<?xml version="1.0" encoding="UTF-8" standalone="no"?>
<svg xmlns:ffdec="https://www.free-decompiler.com/flash" xmlns:xlink="http://www.w3.org/1999/xlink" ffdec:objectType="morphshape" height="587.8px" width="587.8px" xmlns="http://www.w3.org/2000/svg">
  <g transform="matrix(1.0, 0.0, 0.0, 1.0, 293.9, 309.35)">
    <path d="M-234.65 -15.45 Q-234.65 -112.7 -165.95 -181.4 -97.25 -250.1 0.0 -250.1 97.25 -250.1 165.95 -181.4 234.65 -112.7 234.65 -15.45 234.65 81.8 165.95 150.5 97.25 219.2 0.0 219.2 -97.25 219.2 -165.95 150.5 -234.65 81.8 -234.65 -15.45 -234.65 -112.7 -165.95 -181.4 -97.25 -250.1 0.0 -250.1 97.25 -250.1 165.95 -181.4 234.65 -112.7 234.65 -15.45 234.65 81.8 165.95 150.5 97.25 219.2 0.0 219.2 -97.25 219.2 -165.95 150.5 -234.65 81.8 -234.65 -15.45 Z" fill="none" stroke="#ffffff" stroke-linecap="round" stroke-linejoin="round" stroke-width="3.95">
      <animate attributeName="stroke" dur="2s" repeatCount="indefinite" values="#ffffff;#ffffff"/>
      <animate attributeName="stroke-width" dur="2s" repeatCount="indefinite" values="3.95;1.0"/>
      <animate attributeName="fill-opacity" dur="2s" repeatCount="indefinite" values="1.0;0.0"/>
      <animate attributeName="d" dur="2s" repeatCount="indefinite" values="M-234.65 -15.45 Q-234.65 -112.7 -165.95 -181.4 -97.25 -250.1 0.0 -250.1 97.25 -250.1 165.95 -181.4 234.65 -112.7 234.65 -15.45 234.65 81.8 165.95 150.5 97.25 219.2 0.0 219.2 -97.25 219.2 -165.95 150.5 -234.65 81.8 -234.65 -15.45 -234.65 -112.7 -165.95 -181.4 -97.25 -250.1 0.0 -250.1 97.25 -250.1 165.95 -181.4 234.65 -112.7 234.65 -15.45 234.65 81.8 165.95 150.5 97.25 219.2 0.0 219.2 -97.25 219.2 -165.95 150.5 -234.65 81.8 -234.65 -15.45 Z;M-293.4 -15.45 Q-293.4 -137.0 -207.45 -222.9 -121.55 -308.85 0.0 -308.85 121.6 -308.85 207.45 -222.9 293.4 -137.0 293.4 -15.45 293.4 106.15 207.45 192.0 121.6 277.95 0.0 277.95 -121.55 277.95 -207.45 192.0 -293.4 106.15 -293.4 -15.45 -293.4 -137.0 -207.45 -222.9 -121.55 -308.85 0.0 -308.85 121.6 -308.85 207.45 -222.9 293.4 -137.0 293.4 -15.45 293.4 106.15 207.45 192.0 121.6 277.95 0.0 277.95 -121.55 277.95 -207.45 192.0 -293.4 106.15 -293.4 -15.45 Z"/>
    </path>
  </g>
</svg>
