<?xml version="1.0" encoding="UTF-8" standalone="no"?>
<svg xmlns:ffdec="https://www.free-decompiler.com/flash" xmlns:xlink="http://www.w3.org/1999/xlink" ffdec:objectType="morphshape" height="253.0px" width="151.0px" xmlns="http://www.w3.org/2000/svg">
  <g transform="matrix(1.0, 0.0, 0.0, 1.0, 0.0, 0.0)">
    <path d="M0.0 11.25 L0.0 241.75 Q0.0 253.0 11.25 253.0 L139.75 253.0 Q151.0 253.0 151.0 241.75 L151.0 11.25 Q151.0 0.0 139.75 0.0 L11.25 0.0 Q0.0 0.0 0.0 11.25" fill="#ffffff" fill-rule="evenodd" stroke="none">
      <animate attributeName="fill" dur="2s" repeatCount="indefinite" values="#ffffff;#ffffff"/>
      <animate attributeName="fill-opacity" dur="2s" repeatCount="indefinite" values="1.0;0.0"/>
      <animate attributeName="d" dur="2s" repeatCount="indefinite" values="M0.0 11.25 L0.0 241.75 Q0.0 253.0 11.25 253.0 L139.75 253.0 Q151.0 253.0 151.0 241.75 L151.0 11.25 Q151.0 0.0 139.75 0.0 L11.25 0.0 Q0.0 0.0 0.0 11.25;M0.0 11.25 L0.0 241.75 Q0.0 253.0 11.25 253.0 L139.75 253.0 Q151.0 253.0 151.0 241.75 L151.0 11.25 Q151.0 0.0 139.75 0.0 L11.25 0.0 Q0.0 0.0 0.0 11.25"/>
    </path>
    <path d="M0.0 11.25 Q0.0 0.0 11.25 0.0 L139.75 0.0 Q151.0 0.0 151.0 11.25 L151.0 241.75 Q151.0 253.0 139.75 253.0 L11.25 253.0 Q0.0 253.0 0.0 241.75 L0.0 11.25 Z" fill="none" stroke="#000000" stroke-linecap="round" stroke-linejoin="round" stroke-opacity="0.0" stroke-width="0.0">
      <animate attributeName="stroke" dur="2s" repeatCount="indefinite" values="#000000;#000001"/>
      <animate attributeName="stroke-width" dur="2s" repeatCount="indefinite" values="0.0;0.0"/>
      <animate attributeName="fill-opacity" dur="2s" repeatCount="indefinite" values="0.0;0.0"/>
      <animate attributeName="d" dur="2s" repeatCount="indefinite" values="M0.0 11.25 Q0.0 0.0 11.25 0.0 L139.75 0.0 Q151.0 0.0 151.0 11.25 L151.0 241.75 Q151.0 253.0 139.75 253.0 L11.25 253.0 Q0.0 253.0 0.0 241.75 L0.0 11.25 Z;M0.0 11.25 Q0.0 0.0 11.25 0.0 L139.75 0.0 Q151.0 0.0 151.0 11.25 L151.0 241.75 Q151.0 253.0 139.75 253.0 L11.25 253.0 Q0.0 253.0 0.0 241.75 L0.0 11.25 Z"/>
    </path>
  </g>
</svg>
