<?xml version="1.0" encoding="UTF-8" standalone="no"?>
<svg xmlns:ffdec="https://www.free-decompiler.com/flash" xmlns:xlink="http://www.w3.org/1999/xlink" ffdec:objectType="shape" height="104.35px" width="81.6px" xmlns="http://www.w3.org/2000/svg">
  <g transform="matrix(1.0, 0.0, 0.0, 1.0, 53.95, 47.25)">
    <path d="M-38.9 -27.05 L-40.5 -30.15 Q-27.95 -24.5 -14.4 -24.5 -6.5 -24.5 -3.3 -25.75 L-3.75 -26.15 -13.9 -26.8 Q-23.7 -27.3 -30.55 -30.3 L-22.85 -31.05 -17.9 -31.35 -13.55 -30.95 -9.25 -30.4 Q-7.15 -29.85 -3.2 -27.6 0.4 -25.6 0.75 -25.65 L1.05 -25.7 1.1 -26.3 0.2 -28.25 Q-1.65 -30.5 -6.5 -32.3 -11.5 -34.2 -15.75 -36.15 -18.25 -37.2 -21.6 -37.2 L-32.75 -36.15 Q-41.95 -34.5 -41.95 -31.15 -41.95 -27.2 -38.9 -27.05 M-21.85 -46.1 Q-14.6 -46.1 -8.7 -43.9 -4.05 -42.15 6.05 -36.35 10.35 -33.1 10.75 -30.1 L10.2 -27.5 8.35 -28.8 Q7.75 -28.8 7.65 -28.55 L7.7 -28.35 8.2 -27.15 0.0 -31.15 -1.15 -30.85 3.55 -25.05 Q0.6 -23.3 -3.6 -22.6 L-19.1 -21.7 Q-21.75 -21.7 -28.25 -23.05 -35.2 -24.5 -37.8 -25.85 L-37.55 -23.2 -38.4 -23.7 Q-40.45 -24.2 -41.8 -27.2 -42.85 -29.5 -42.85 -31.0 -42.85 -34.45 -33.0 -37.75 L-35.4 -37.8 Q-37.95 -37.8 -40.85 -35.9 L-43.5 -33.8 -42.8 -35.35 Q-41.55 -38.7 -32.35 -41.6 L-34.4 -41.4 -40.6 -39.95 -39.3 -41.0 Q-35.75 -43.35 -33.2 -44.25 L-27.1 -45.45 -21.85 -46.1 M-41.9 -39.65 Q-42.25 -38.75 -43.05 -38.1 -43.95 -37.4 -44.85 -37.6 L-44.8 -37.4 -44.0 -36.8 -44.8 -33.85 -44.95 -33.9 -46.2 -35.0 Q-46.55 -35.15 -47.1 -34.45 L-45.8 -32.7 Q-45.75 -32.2 -45.1 -31.3 L-45.3 -29.65 -47.2 -27.8 Q-48.3 -26.7 -49.55 -26.75 L-51.25 -26.9 -51.4 -27.3 -51.45 -28.4 Q-51.3 -29.25 -49.55 -31.25 -49.9 -31.6 -50.45 -31.75 L-51.15 -31.95 Q-50.75 -33.2 -50.9 -36.05 -49.35 -39.4 -46.95 -41.1 -46.55 -42.0 -45.1 -42.1 L-44.95 -42.0 -44.9 -42.05 -44.9 -42.1 -43.65 -41.65 Q-42.05 -41.0 -41.35 -40.55 L-41.9 -39.65 M5.45 17.85 L7.0 13.7 Q7.9 10.65 7.9 9.65 7.9 7.75 5.45 -9.4 L6.0 -13.5 Q6.4 -15.2 7.05 -16.15 7.9 -17.5 9.1 -17.5 9.6 -17.5 10.3 -16.8 L11.05 -16.15 14.8 -13.2 13.75 -19.4 17.05 -17.35 Q17.5 -18.8 17.3 -19.6 L17.4 -19.95 Q17.65 -20.3 18.4 -20.35 20.45 -19.0 21.8 -16.15 L22.4 -14.65 Q23.8 -10.6 23.8 -4.9 23.8 -0.8 23.0 2.35 20.65 11.95 19.65 16.6 17.3 27.95 16.6 32.75 15.5 40.45 16.6 42.4 15.05 41.3 13.4 37.8 11.5 33.8 11.55 30.35 L13.7 24.7 17.4 12.4 Q18.55 8.15 18.55 3.2 18.55 -1.45 17.75 -4.85 16.95 -8.3 15.1 -11.15 L15.25 -10.15 Q16.35 -9.15 17.1 -4.4 17.65 -0.8 17.65 1.75 17.65 4.8 16.05 12.3 14.45 19.65 13.2 22.5 L7.9 33.4 Q4.5 41.6 5.45 47.6 4.15 45.95 3.0 42.25 2.0 39.2 2.0 38.4 2.4 36.55 4.15 31.35 5.8 26.45 6.45 25.1 L7.8 22.6 Q10.65 17.25 11.25 14.65 11.8 12.15 11.8 3.35 L11.7 -4.15 10.55 -5.3 10.55 -3.5 Q11.65 5.7 9.15 14.4 L8.95 15.1 Q7.35 21.05 6.15 22.7 L2.7 25.5 Q10.1 17.6 10.1 6.4 L9.95 4.8 Q9.35 2.4 8.0 -9.5 L7.4 -9.95 Q6.95 -9.85 6.95 -8.85 6.95 -7.6 8.0 -1.7 L9.05 5.45 Q9.05 12.1 6.4 17.65 4.6 21.45 2.55 23.2 L5.45 17.85 M16.9 17.75 L15.85 22.1 Q18.55 15.7 21.35 2.05 23.15 -7.3 20.0 -16.15 L19.95 -16.2 19.6 -16.1 20.05 -11.55 18.85 -13.15 17.6 -14.2 16.3 -15.2 Q20.05 -4.05 20.05 2.45 20.05 5.25 16.9 17.75 M-43.9 -40.0 L-44.95 -41.0 -45.1 -41.15 Q-46.0 -41.65 -46.65 -40.55 -48.05 -39.0 -49.45 -35.65 -46.9 -37.3 -46.7 -38.15 -46.15 -39.15 -44.95 -39.55 L-44.95 -39.6 -43.8 -39.8 -43.9 -40.0 M15.95 4.75 Q15.6 1.25 13.85 -4.45 11.65 -11.45 9.35 -14.0 L8.85 -14.15 8.75 -13.7 Q8.75 -13.15 9.95 -11.25 L11.8 -8.15 Q12.35 -6.95 12.7 -4.85 L12.95 -2.15 Q12.95 13.75 8.25 25.1 L5.0 32.2 Q3.5 35.6 3.5 38.0 3.5 39.15 4.0 39.95 4.8 35.65 5.8 32.85 7.7 27.35 11.65 21.2 13.7 18.0 15.1 12.15 16.35 6.8 15.95 4.75 M4.15 -35.75 Q1.15 -39.3 -8.6 -42.3 -17.1 -44.95 -21.7 -44.95 L-27.05 -43.95 -15.2 -43.35 Q-5.5 -41.45 4.15 -35.75 M5.2 -31.55 Q2.15 -35.8 -7.15 -39.2 -16.15 -42.5 -23.6 -42.5 -26.4 -42.5 -30.05 -41.45 L-36.4 -39.3 Q-26.0 -40.1 -22.1 -39.1 -18.05 -38.1 -15.95 -38.2 -12.45 -38.35 -6.4 -36.5 0.0 -34.55 5.2 -31.55 M-46.85 -31.8 L-49.75 -28.85 -48.7 -28.75 -47.95 -29.25 Q-47.15 -30.1 -46.95 -30.9 -46.4 -32.25 -46.85 -31.8 M-45.9 -36.9 Q-46.3 -37.9 -46.7 -37.3 L-47.7 -35.6 Q-47.3 -35.65 -47.1 -35.85 L-45.9 -36.9 M14.95 34.85 Q14.85 27.65 15.25 24.45 13.75 30.5 13.75 31.0 13.75 33.35 14.95 36.65 L14.95 34.85" fill="#d1d1d1" fill-rule="evenodd" stroke="none"/>
    <path d="M-21.85 -46.1 L-27.1 -45.45 -33.2 -44.25 Q-35.75 -43.35 -39.3 -41.0 L-40.6 -39.95 -34.4 -41.4 -32.35 -41.6 Q-41.55 -38.7 -42.8 -35.35 L-43.5 -33.8 -40.85 -35.9 Q-37.95 -37.8 -35.4 -37.8 L-33.0 -37.75 Q-42.85 -34.45 -42.85 -31.0 -42.85 -29.5 -41.8 -27.2 -40.45 -24.2 -38.4 -23.7 L-37.55 -23.2 -37.8 -25.85 Q-35.2 -24.5 -28.25 -23.05 -21.75 -21.7 -19.1 -21.7 L-3.6 -22.6 Q0.6 -23.3 3.55 -25.05 L-1.15 -30.85 0.0 -31.15 8.2 -27.15 7.7 -28.35 7.65 -28.55 Q7.75 -28.8 8.35 -28.8 L10.2 -27.5 10.75 -30.1 Q10.35 -33.1 6.05 -36.35 -4.05 -42.15 -8.7 -43.9 -14.6 -46.1 -21.85 -46.1 M10.65 -33.2 Q11.45 -31.0 13.0 -28.85 L14.65 -26.75 Q11.3 -25.95 6.8 -23.3 2.1 -20.55 -0.3 -19.9 -5.65 -18.4 -7.15 -18.25 -9.25 -18.0 -18.5 -18.0 -26.0 -18.0 -30.25 -19.0 L-34.5 -20.5 -34.4 -19.5 -32.65 -17.95 Q-37.15 -18.3 -40.3 -21.55 -43.45 -24.85 -44.95 -30.9 L-44.95 -31.5 -45.05 -31.75 -45.1 -31.3 Q-45.75 -32.2 -45.8 -32.7 L-47.1 -34.45 Q-46.55 -35.15 -46.2 -35.0 L-44.95 -33.9 -44.8 -33.85 -44.0 -36.8 -44.8 -37.4 -44.85 -37.6 Q-43.95 -37.4 -43.05 -38.1 -42.25 -38.75 -41.9 -39.65 L-38.75 -43.0 Q-34.8 -45.2 -32.65 -46.0 -29.1 -47.25 -21.85 -47.25 -11.85 -47.25 -3.7 -43.25 2.05 -40.45 10.65 -33.2 M-45.3 -29.65 Q-45.4 -26.5 -46.45 -26.1 L-47.9 -25.85 Q-48.25 -25.45 -50.15 -24.2 L-52.05 -22.3 Q-53.2 -24.2 -52.5 -28.9 L-51.8 -32.0 -50.9 -36.05 Q-50.75 -33.2 -51.15 -31.95 L-50.45 -31.75 Q-49.9 -31.6 -49.55 -31.25 -51.3 -29.25 -51.45 -28.4 L-51.4 -27.3 -51.25 -26.9 -49.55 -26.75 Q-48.3 -26.7 -47.2 -27.8 L-45.3 -29.65 M21.3 -18.5 L22.35 -16.15 Q24.55 -10.7 24.85 -6.95 L24.65 1.8 Q24.0 6.5 22.4 12.8 18.45 28.5 18.45 36.4 18.45 45.15 23.2 51.0 15.25 45.35 12.2 40.75 10.3 37.85 10.3 35.0 L10.8 32.95 Q11.3 30.95 11.55 30.35 11.5 33.8 13.4 37.8 15.05 41.3 16.6 42.4 15.5 40.45 16.6 32.75 17.3 27.95 19.65 16.6 20.65 11.95 23.0 2.35 23.8 -0.8 23.8 -4.9 23.8 -10.6 22.4 -14.65 L21.8 -16.15 Q20.45 -19.0 18.4 -20.35 17.65 -20.3 17.4 -19.95 L17.3 -19.6 Q17.5 -18.8 17.05 -17.35 L13.75 -19.4 14.8 -13.2 11.05 -16.15 10.3 -16.8 Q9.6 -17.5 9.1 -17.5 7.9 -17.5 7.05 -16.15 6.4 -15.2 6.0 -13.5 L5.45 -9.4 Q7.9 7.75 7.9 9.65 7.9 10.65 7.0 13.7 L5.45 17.85 6.05 13.55 6.3 10.35 Q6.3 5.85 5.15 -0.3 3.95 -6.45 3.95 -7.55 3.95 -13.65 5.5 -16.15 L5.75 -16.55 Q7.85 -19.35 16.15 -22.65 L21.3 -18.5 M9.15 14.4 Q11.65 5.7 10.55 -3.5 L10.55 -5.3 11.7 -4.15 11.8 3.35 Q11.8 12.15 11.25 14.65 10.65 17.25 7.8 22.6 L8.65 20.4 Q10.0 16.7 10.0 14.45 L9.8 12.35 9.15 14.4 M2.0 38.4 Q2.0 39.2 3.0 42.25 4.15 45.95 5.45 47.6 4.5 41.6 7.9 33.4 L13.2 22.5 Q14.45 19.65 16.05 12.3 17.65 4.8 17.65 1.75 17.65 -0.8 17.1 -4.4 16.35 -9.15 15.25 -10.15 L15.1 -11.15 Q16.95 -8.3 17.75 -4.85 18.55 -1.45 18.55 3.2 18.55 8.15 17.4 12.4 L13.7 24.7 Q9.4 30.4 7.95 37.7 7.2 41.45 7.2 46.75 L7.5 50.35 8.05 54.6 Q5.05 51.8 3.2 45.9 1.6 40.9 2.0 38.4" fill="#989898" fill-rule="evenodd" stroke="none"/>
    <path d="M-38.9 -27.05 Q-41.95 -27.2 -41.95 -31.15 -41.95 -34.5 -32.75 -36.15 L-21.6 -37.2 Q-18.25 -37.2 -15.75 -36.15 -11.5 -34.2 -6.5 -32.3 -1.65 -30.5 0.2 -28.25 L1.1 -26.3 1.05 -25.7 0.75 -25.65 Q0.4 -25.6 -3.2 -27.6 -7.15 -29.85 -9.25 -30.4 L-13.55 -30.95 -17.9 -31.35 -22.85 -31.05 -30.55 -30.3 Q-23.7 -27.3 -13.9 -26.8 L-3.75 -26.15 -3.3 -25.75 Q-6.5 -24.5 -14.4 -24.5 -27.95 -24.5 -40.5 -30.15 L-38.9 -27.05 M16.9 17.75 Q20.05 5.25 20.05 2.45 20.05 -4.05 16.3 -15.2 L17.6 -14.2 18.85 -13.15 20.05 -11.55 19.6 -16.1 19.95 -16.2 20.0 -16.15 Q23.15 -7.3 21.35 2.05 18.55 15.7 15.85 22.1 L16.9 17.75 M2.55 23.2 Q4.6 21.45 6.4 17.65 9.05 12.1 9.05 5.45 L8.0 -1.7 Q6.95 -7.6 6.95 -8.85 6.95 -9.85 7.4 -9.95 L8.0 -9.5 Q9.35 2.4 9.95 4.8 L10.1 6.4 Q10.1 17.6 2.7 25.5 L-0.35 26.6 2.55 23.2 M15.95 4.75 Q16.35 6.8 15.1 12.15 13.7 18.0 11.65 21.2 7.7 27.35 5.8 32.85 4.8 35.65 4.0 39.95 3.5 39.15 3.5 38.0 3.5 35.6 5.0 32.2 L8.25 25.1 Q12.95 13.75 12.95 -2.15 L12.7 -4.85 Q12.35 -6.95 11.8 -8.15 L9.95 -11.25 Q8.75 -13.15 8.75 -13.7 L8.85 -14.15 9.35 -14.0 Q11.65 -11.45 13.85 -4.45 15.6 1.25 15.95 4.75 M-43.9 -40.0 L-43.8 -39.8 -44.95 -39.6 -44.95 -39.55 Q-46.15 -39.15 -46.7 -38.15 -46.9 -37.3 -49.45 -35.65 -48.05 -39.0 -46.65 -40.55 -46.0 -41.65 -45.1 -41.15 L-44.95 -41.0 -43.9 -40.0 M-45.9 -36.9 L-47.1 -35.85 Q-47.3 -35.65 -47.7 -35.6 L-46.7 -37.3 Q-46.3 -37.9 -45.9 -36.9 M-46.85 -31.8 Q-46.4 -32.25 -46.95 -30.9 -47.15 -30.1 -47.95 -29.25 L-48.7 -28.75 -49.75 -28.85 -46.85 -31.8 M5.2 -31.55 Q0.0 -34.55 -6.4 -36.5 -12.45 -38.35 -15.95 -38.2 -18.05 -38.1 -22.1 -39.1 -26.0 -40.1 -36.4 -39.3 L-30.05 -41.45 Q-26.4 -42.5 -23.6 -42.5 -16.15 -42.5 -7.15 -39.2 2.15 -35.8 5.2 -31.55 M4.15 -35.75 Q-5.5 -41.45 -15.2 -43.35 L-27.05 -43.95 -21.7 -44.95 Q-17.1 -44.95 -8.6 -42.3 1.15 -39.3 4.15 -35.75 M14.95 34.85 L14.95 36.65 Q13.75 33.35 13.75 31.0 13.75 30.5 15.25 24.45 14.85 27.65 14.95 34.85" fill="#ffffff" fill-rule="evenodd" stroke="none"/>
    <path d="M-45.1 -31.3 L-45.05 -31.75 -44.95 -31.5 -44.95 -30.9 Q-43.45 -24.85 -40.3 -21.55 -37.15 -18.3 -32.65 -17.95 L-34.4 -19.5 -34.5 -20.5 -30.25 -19.0 Q-26.0 -18.0 -18.5 -18.0 -9.25 -18.0 -7.15 -18.25 -5.65 -18.4 -0.3 -19.9 2.1 -20.55 6.8 -23.3 11.3 -25.95 14.65 -26.75 L13.0 -28.85 Q11.45 -31.0 10.65 -33.2 L13.25 -30.05 16.7 -24.75 Q17.55 -23.15 20.6 -19.65 20.1 -20.1 21.3 -18.5 L16.15 -22.65 Q7.85 -19.35 5.75 -16.55 L5.5 -16.15 Q3.95 -13.65 3.95 -7.55 3.95 -6.45 5.15 -0.3 6.3 5.85 6.3 10.35 L6.05 13.55 5.45 17.85 2.55 23.2 -0.35 26.6 2.7 25.5 6.15 22.7 Q7.35 21.05 8.95 15.1 L9.15 14.4 9.8 12.35 10.0 14.45 Q10.0 16.7 8.65 20.4 L7.8 22.6 6.45 25.1 Q5.8 26.45 4.15 31.35 2.4 36.55 2.0 38.4 1.6 40.9 3.2 45.9 5.05 51.8 8.05 54.6 L7.5 50.35 7.2 46.75 Q7.2 41.45 7.95 37.7 9.4 30.4 13.7 24.7 L11.55 30.35 Q11.3 30.95 10.8 32.95 L10.3 35.0 Q10.3 37.85 12.2 40.75 15.25 45.35 23.2 51.0 18.45 45.15 18.45 36.4 18.45 28.5 22.4 12.8 24.0 6.5 24.65 1.8 24.15 11.05 22.8 16.15 21.5 21.0 19.65 35.4 19.65 41.35 24.6 50.35 26.5 53.8 27.65 55.35 20.1 50.85 15.55 46.65 11.05 42.5 10.15 39.1 L9.5 37.7 8.4 45.55 8.8 51.35 Q9.25 56.4 9.45 56.4 L9.25 57.1 Q3.4 53.85 0.9 40.95 0.9 37.65 1.25 35.4 2.1 29.7 4.75 25.9 L2.45 27.15 Q-0.1 28.2 -2.6 28.25 L-0.25 25.2 Q1.7 22.35 3.2 18.7 4.0 16.65 4.55 13.1 L5.0 9.3 3.9 2.0 Q2.75 -4.65 2.75 -8.15 2.75 -15.05 3.1 -16.0 L3.2 -16.15 Q3.5 -16.8 4.55 -17.6 L3.8 -18.75 Q3.4 -19.45 2.8 -19.45 -2.9 -18.0 -6.8 -17.55 L-13.85 -17.25 -19.9 -17.1 -27.7 -17.65 -31.65 -18.55 -30.1 -17.1 -30.05 -16.75 Q-30.1 -16.45 -30.75 -16.45 -35.85 -16.45 -40.1 -19.5 -44.1 -22.35 -44.95 -26.05 -50.05 -23.95 -50.9 -22.2 L-50.9 -21.15 Q-50.85 -20.75 -51.8 -20.75 -54.65 -20.85 -53.7 -28.55 -52.9 -35.75 -50.05 -39.95 -46.65 -43.1 -45.05 -43.4 L-44.95 -43.35 -44.95 -43.45 -43.0 -43.1 -40.9 -42.4 Q-39.9 -41.9 -38.75 -43.0 L-41.9 -39.65 -41.35 -40.55 Q-42.05 -41.0 -43.65 -41.65 L-44.9 -42.1 -44.9 -42.05 -44.95 -42.0 -45.1 -42.1 Q-46.55 -42.0 -46.95 -41.1 -49.35 -39.4 -50.9 -36.05 L-51.8 -32.0 -52.5 -28.9 Q-53.2 -24.2 -52.05 -22.3 L-50.15 -24.2 Q-48.25 -25.45 -47.9 -25.85 L-46.45 -26.1 Q-45.4 -26.5 -45.3 -29.65 L-45.1 -31.3" fill="#606060" fill-rule="evenodd" stroke="none"/>
  </g>
</svg>
