<?xml version="1.0" encoding="UTF-8" standalone="no"?>
<svg xmlns:ffdec="https://www.free-decompiler.com/flash" xmlns:xlink="http://www.w3.org/1999/xlink" ffdec:objectType="shape" height="95.05px" width="34.8px" xmlns="http://www.w3.org/2000/svg">
  <g transform="matrix(1.0, 0.0, 0.0, 1.0, -14.75, 37.95)">
    <path d="M47.55 -29.4 Q46.1 -30.75 44.45 -31.6 L44.25 -33.8 Q46.1 -32.45 47.3 -30.4 L47.55 -29.4 M44.4 -29.9 Q45.8 -28.7 46.8 -27.05 47.55 -25.85 47.2 -24.6 46.1 -20.15 41.9 -18.55 L42.15 -20.9 42.5 -21.8 43.55 -24.9 44.85 -25.5 43.25 -22.4 Q47.05 -23.1 45.65 -27.05 45.2 -28.3 44.35 -29.05 L44.4 -29.9 M36.95 17.85 L39.85 23.2 Q37.8 21.45 36.0 17.65 33.35 12.1 33.35 5.45 33.35 4.15 34.4 -1.7 L35.45 -8.85 35.4 -9.55 36.7 -11.35 36.95 -9.4 Q34.5 7.75 34.5 9.65 34.5 10.65 35.4 13.7 36.35 16.75 36.95 17.85 M39.7 25.5 L36.25 22.7 Q35.05 21.05 33.45 15.1 L33.25 14.4 Q30.75 5.7 31.85 -3.5 L31.85 -5.2 32.55 -6.05 34.25 -8.05 Q33.0 2.55 32.45 4.8 32.3 5.55 32.3 6.4 32.3 17.6 39.7 25.5 M34.6 22.6 L35.95 25.1 Q36.6 26.45 38.25 31.35 L40.4 38.4 Q40.4 39.2 39.4 42.25 38.25 45.95 36.95 47.6 37.9 41.6 34.5 33.4 30.3 25.15 29.2 22.5 27.95 19.65 26.35 12.3 24.8 4.95 24.75 1.9 L27.5 -0.6 Q26.65 2.5 26.45 4.75 26.05 6.8 27.3 12.15 28.7 18.0 30.75 21.2 34.7 27.35 36.6 32.85 37.6 35.65 38.4 39.95 38.9 39.15 38.9 38.0 38.9 35.6 37.4 32.2 L34.15 25.1 Q29.45 13.75 29.45 -2.15 L29.45 -2.6 30.7 -3.9 30.6 3.35 Q30.6 12.15 31.15 14.65 31.75 17.25 34.6 22.6 M28.7 24.7 L30.85 30.35 Q30.9 33.8 29.0 37.8 27.35 41.3 25.8 42.4 26.9 40.45 25.8 32.75 L22.75 16.6 20.2 5.65 21.6 4.55 Q24.1 16.3 26.55 22.1 L25.5 17.75 Q22.95 7.55 22.45 3.85 L23.85 2.65 23.85 3.2 Q23.85 8.15 25.0 12.4 L28.7 24.7 M27.45 34.85 L27.45 36.65 Q28.65 33.35 28.65 31.0 L27.15 24.45 Q27.55 27.65 27.45 34.85" fill="#d1d1d1" fill-rule="evenodd" stroke="none"/>
    <path d="M39.4 -15.55 L40.3 -17.1 41.8 -20.15 42.15 -20.9 41.9 -18.55 Q46.1 -20.15 47.2 -24.6 47.55 -25.85 46.8 -27.05 45.8 -28.7 44.4 -29.9 L44.45 -31.6 Q46.1 -30.75 47.55 -29.4 L48.75 -24.2 46.65 -19.7 Q44.45 -15.6 40.15 -14.15 L39.55 -13.95 39.4 -15.55 M37.95 -13.25 L38.2 -12.0 38.45 -7.55 Q38.45 -6.45 37.25 -0.3 36.1 5.85 36.1 10.35 L36.35 13.55 36.95 17.85 Q36.35 16.75 35.4 13.7 34.5 10.65 34.5 9.65 34.5 7.75 36.95 -9.4 L36.7 -11.35 37.15 -12.05 37.95 -13.25 M33.25 14.4 L32.6 12.35 32.4 14.45 Q32.4 16.7 33.75 20.4 L34.6 22.6 Q31.75 17.25 31.15 14.65 30.6 12.15 30.6 3.35 L30.7 -3.9 31.05 -4.3 31.85 -5.2 31.85 -3.5 Q30.75 5.7 33.25 14.4 M40.4 38.4 Q40.8 40.9 39.2 45.9 37.35 51.8 34.35 54.6 L34.9 50.35 35.2 46.75 Q35.2 41.45 34.45 37.7 33.0 30.4 28.7 24.7 L25.0 12.4 Q23.85 8.15 23.85 3.2 L23.85 2.65 24.75 1.9 Q24.8 4.95 26.35 12.3 27.95 19.65 29.2 22.5 30.3 25.15 34.5 33.4 37.9 41.6 36.95 47.6 38.25 45.95 39.4 42.25 40.4 39.2 40.4 38.4 M30.85 30.35 L31.6 32.95 32.1 35.0 Q32.1 37.85 30.2 40.75 27.15 45.35 19.2 51.0 23.95 45.15 23.95 36.4 23.95 28.5 20.0 12.8 L18.65 6.85 20.2 5.65 22.75 16.6 25.8 32.75 Q26.9 40.45 25.8 42.4 27.35 41.3 29.0 37.8 30.9 33.8 30.85 30.35 M43.65 -36.4 L44.95 -35.3 44.2 -35.5 45.75 -33.65 Q46.9 -32.3 47.3 -30.4 46.1 -32.45 44.25 -33.8 L43.65 -36.4" fill="#989898" fill-rule="evenodd" stroke="none"/>
    <path d="M39.4 -15.55 L39.55 -13.95 40.15 -14.15 Q44.45 -15.6 46.65 -19.7 L48.75 -24.2 47.55 -29.4 47.3 -30.4 Q46.9 -32.3 45.75 -33.65 L44.2 -35.5 44.95 -35.3 43.65 -36.4 43.05 -37.95 45.4 -36.0 Q47.2 -34.3 48.15 -32.1 50.4 -26.85 49.05 -21.45 47.75 -16.25 43.05 -13.75 41.35 -12.85 39.6 -12.35 L39.65 -8.15 Q39.65 -4.65 38.5 2.0 37.4 8.6 37.4 9.3 37.4 10.4 37.85 13.1 38.4 16.65 39.2 18.7 40.7 22.35 42.65 25.2 L45.0 28.25 Q42.5 28.2 39.95 27.15 38.1 26.4 37.65 25.9 40.3 29.7 41.15 35.4 41.5 37.65 41.5 40.95 39.0 53.85 33.15 57.1 L32.95 56.4 Q33.15 56.4 33.6 51.35 L34.0 45.55 32.9 37.7 32.25 39.1 Q31.35 42.5 26.85 46.65 22.3 50.85 14.75 55.35 L17.8 50.35 Q22.75 41.35 22.75 35.4 20.9 21.0 19.6 16.15 18.65 12.65 18.15 7.2 L18.65 6.85 20.0 12.8 Q23.95 28.5 23.95 36.4 23.95 45.15 19.2 51.0 27.15 45.35 30.2 40.75 32.1 37.85 32.1 35.0 L31.6 32.95 30.85 30.35 28.7 24.7 Q33.0 30.4 34.45 37.7 35.2 41.45 35.2 46.75 L34.9 50.35 34.35 54.6 Q37.35 51.8 39.2 45.9 40.8 40.9 40.4 38.4 L38.25 31.35 Q36.6 26.45 35.95 25.1 L34.6 22.6 33.75 20.4 Q32.4 16.7 32.4 14.45 L32.6 12.35 33.25 14.4 33.45 15.1 Q35.05 21.05 36.25 22.7 L39.7 25.5 42.75 26.6 39.85 23.2 36.95 17.85 36.35 13.55 36.1 10.35 Q36.1 5.85 37.25 -0.3 38.45 -6.45 38.45 -7.55 L38.2 -12.0 37.95 -13.25 38.4 -13.9 39.4 -15.55" fill="#606060" fill-rule="evenodd" stroke="none"/>
    <path d="M43.55 -24.9 L43.9 -26.35 44.35 -29.05 Q45.2 -28.3 45.65 -27.05 47.05 -23.1 43.25 -22.4 L44.85 -25.5 43.55 -24.9 M39.85 23.2 L42.75 26.6 39.7 25.5 Q32.3 17.6 32.3 6.4 32.3 5.55 32.45 4.8 33.0 2.55 34.25 -8.05 L35.4 -9.55 35.45 -8.85 34.4 -1.7 Q33.35 4.15 33.35 5.45 33.35 12.1 36.0 17.65 37.8 21.45 39.85 23.2 M27.5 -0.6 L29.45 -2.6 29.45 -2.15 Q29.45 13.75 34.15 25.1 L37.4 32.2 Q38.9 35.6 38.9 38.0 38.9 39.15 38.4 39.95 37.6 35.65 36.6 32.85 34.7 27.35 30.75 21.2 28.7 18.0 27.3 12.15 26.05 6.8 26.45 4.75 26.65 2.5 27.5 -0.6 M22.45 3.85 Q22.95 7.55 25.5 17.75 L26.55 22.1 Q24.1 16.3 21.6 4.55 L22.45 3.85 M27.45 34.85 Q27.55 27.65 27.15 24.45 L28.65 31.0 Q28.65 33.35 27.45 36.65 L27.45 34.85" fill="#ffffff" fill-rule="evenodd" stroke="none"/>
  </g>
</svg>
