<?xml version="1.0" encoding="UTF-8" standalone="no"?>
<svg xmlns:ffdec="https://www.free-decompiler.com/flash" xmlns:xlink="http://www.w3.org/1999/xlink" ffdec:objectType="shape" height="54.45px" width="45.0px" xmlns="http://www.w3.org/2000/svg">
  <g transform="matrix(1.0, 0.0, 0.0, 1.0, 20.4, 6.2)">
    <path d="M8.15 -4.95 Q13.6 -1.15 18.9 4.7 24.6 11.1 24.6 14.1 24.6 18.05 23.8 21.4 23.0 24.75 21.85 25.55 17.0 29.1 12.85 27.65 L11.8 26.5 Q14.15 34.85 13.8 40.05 13.35 46.2 9.5 47.8 7.3 48.7 4.9 47.8 2.05 46.5 0.9 42.95 L-1.2 28.45 Q-3.75 37.85 -7.15 42.15 -10.95 46.9 -15.15 45.75 -17.55 45.05 -19.2 42.7 -21.0 39.85 -20.1 36.2 -15.3 28.0 -12.9 20.8 L-12.35 19.2 -11.4 16.8 -12.8 16.4 Q-16.4 15.55 -18.25 13.1 -19.75 11.15 -19.75 9.0 -19.75 7.7 -12.8 2.25 -6.65 -2.55 -2.45 -5.2 -5.25 -2.6 -14.0 4.7 -18.0 8.05 -18.0 9.25 -18.0 11.0 -15.9 12.5 -14.2 13.75 -10.7 15.2 L-8.75 15.85 -0.4 17.05 0.8 17.1 Q5.25 16.8 5.75 15.15 L5.75 14.8 Q5.75 10.85 2.55 8.05 -1.05 5.0 -7.2 4.7 L-4.0 4.35 Q0.9 4.35 3.85 5.3 5.3 5.8 5.95 6.25 L7.8 5.8 9.6 5.3 Q11.3 5.3 14.5 7.3 L16.65 9.5 Q18.5 11.05 21.05 11.25 L19.85 11.5 Q18.9 11.7 18.9 12.4 18.9 13.55 19.8 18.7 L19.3 17.45 Q17.3 12.85 16.2 11.25 13.35 7.05 9.6 7.05 8.65 7.05 7.95 8.4 7.45 9.5 7.45 10.6 7.45 12.0 8.25 14.8 8.6 15.95 11.5 22.65 13.15 26.55 14.2 26.55 17.55 26.55 19.4 25.0 22.95 22.05 22.95 13.6 22.95 12.1 20.9 9.7 L13.95 2.25 Q8.9 -3.2 8.15 -4.95 M7.15 17.7 L6.7 16.3 Q6.15 17.6 1.85 18.65 L0.6 18.65 0.25 21.1 0.0 22.65 0.05 22.9 1.15 28.8 1.55 36.95 Q1.7 40.55 2.45 43.1 3.15 45.3 5.25 46.3 L9.1 46.45 Q12.75 44.95 12.5 38.55 12.4 33.6 10.3 27.0 L8.4 21.4 7.15 17.7 M-4.55 18.25 L-9.3 17.35 -12.2 24.7 -16.3 31.65 Q-18.15 34.7 -18.8 37.3 -19.4 39.6 -18.1 41.75 -16.85 43.8 -14.75 44.4 -10.8 45.5 -7.45 40.1 -4.9 35.95 -3.15 29.2 L-0.65 18.65 -4.55 18.25" fill="#383f0e" fill-rule="evenodd" stroke="none"/>
    <path d="M-2.45 -5.2 L0.1 -5.9 2.75 -6.2 4.5 -5.95 8.15 -4.95 Q8.9 -3.2 13.95 2.25 L20.9 9.7 Q22.95 12.1 22.95 13.6 22.95 22.05 19.4 25.0 17.55 26.55 14.2 26.55 13.15 26.55 11.5 22.65 8.6 15.95 8.25 14.8 7.45 12.0 7.45 10.6 7.45 9.5 7.95 8.4 8.65 7.05 9.6 7.05 13.35 7.05 16.2 11.25 17.3 12.85 19.3 17.45 L19.8 18.7 Q18.9 13.55 18.9 12.4 18.9 11.7 19.85 11.5 L21.05 11.25 Q18.5 11.05 16.65 9.5 L14.5 7.3 Q11.3 5.3 9.6 5.3 L7.8 5.8 5.95 6.25 Q5.3 5.8 3.85 5.3 0.9 4.35 -4.0 4.35 L-7.2 4.7 Q-1.05 5.0 2.55 8.05 5.75 10.85 5.75 14.8 L5.75 15.15 Q5.25 16.8 0.8 17.1 L-0.4 17.05 -8.75 15.85 -10.7 15.2 Q-14.2 13.75 -15.9 12.5 -18.0 11.0 -18.0 9.25 -18.0 8.05 -14.0 4.7 -5.25 -2.6 -2.45 -5.2 M4.3 -3.65 Q3.35 -3.65 2.65 -1.8 1.3 -4.3 0.65 -4.3 -1.35 -4.3 -8.6 1.7 -15.8 7.65 -15.8 9.3 -15.8 11.95 -11.7 13.3 L-9.95 13.85 -8.2 14.2 -3.0 14.65 -2.4 14.7 -1.75 14.7 -1.1 14.7 -0.6 14.7 Q2.75 14.7 3.85 14.1 4.6 13.8 4.6 12.7 4.6 9.6 0.2 7.0 -4.8 4.05 -10.55 5.55 L-11.75 5.85 -8.05 3.5 Q-1.0 0.05 -4.2 1.65 -2.8 2.3 0.4 2.75 L4.35 3.15 8.6 2.65 Q9.6 2.3 10.6 1.45 L7.2 -1.4 4.3 -3.65 M13.9 9.3 Q12.55 8.1 10.4 8.8 8.5 9.45 8.5 10.45 8.5 12.3 14.95 24.55 16.15 24.55 18.0 23.55 19.85 22.6 19.85 21.9 19.85 19.95 18.35 17.1 L16.55 13.8 15.6 11.6 Q15.0 10.25 13.9 9.3 M7.15 17.7 L8.4 21.4 10.3 27.0 Q12.4 33.6 12.5 38.55 12.75 44.95 9.1 46.45 L5.25 46.3 Q3.15 45.3 2.45 43.1 1.7 40.55 1.55 36.95 L1.15 28.8 0.05 22.9 0.0 22.65 0.25 21.1 0.6 18.65 1.85 18.65 Q6.15 17.6 6.7 16.3 L7.15 17.7 M5.95 21.35 L5.9 21.3 1.6 21.1 Q1.95 24.05 3.0 28.9 3.65 32.05 3.65 42.1 3.95 43.15 4.75 43.95 5.95 45.15 7.25 44.55 9.8 43.55 10.45 39.7 11.35 34.9 8.8 26.95 L5.95 21.35 M-3.95 21.75 L-3.85 20.9 -8.5 20.7 -10.6 26.0 Q-11.75 29.0 -17.25 37.25 -17.5 38.3 -17.25 39.5 -16.8 41.25 -15.4 41.65 -12.55 42.45 -9.9 39.7 -6.55 36.35 -4.45 28.2 L-3.95 21.75 M-4.55 18.25 L-0.65 18.65 -3.15 29.2 Q-4.9 35.95 -7.45 40.1 -10.8 45.5 -14.75 44.4 -16.85 43.8 -18.1 41.75 -19.4 39.6 -18.8 37.3 -18.15 34.7 -16.3 31.65 L-12.2 24.7 -9.3 17.35 -4.55 18.25" fill="#6f7b1d" fill-rule="evenodd" stroke="none"/>
    <path d="M13.9 9.3 Q15.0 10.25 15.6 11.6 L16.55 13.8 18.35 17.1 Q19.85 19.95 19.85 21.9 19.85 22.6 18.0 23.55 16.15 24.55 14.95 24.55 8.5 12.3 8.5 10.45 8.5 9.45 10.4 8.8 12.55 8.1 13.9 9.3 M4.3 -3.65 L7.2 -1.4 10.6 1.45 Q9.6 2.3 8.6 2.65 L4.35 3.15 0.4 2.75 Q-2.8 2.3 -4.2 1.65 -1.0 0.05 -8.05 3.5 L-11.75 5.85 -10.55 5.55 Q-4.8 4.05 0.2 7.0 4.6 9.6 4.6 12.7 4.6 13.8 3.85 14.1 2.75 14.7 -0.6 14.7 L-1.1 14.7 -1.75 14.7 -2.4 14.7 -3.0 14.65 -8.2 14.2 -9.95 13.85 -11.7 13.3 Q-15.8 11.95 -15.8 9.3 -15.8 7.65 -8.6 1.7 -1.35 -4.3 0.65 -4.3 1.3 -4.3 2.65 -1.8 3.35 -3.65 4.3 -3.65 M-1.7 12.05 L2.4 12.35 2.65 11.6 Q1.85 9.7 -0.3 8.05 -3.05 5.95 -6.45 5.95 -10.45 5.95 -12.2 7.3 -13.35 8.25 -13.35 9.4 -13.35 10.0 -11.6 10.75 -10.25 11.35 -8.35 11.55 L-7.25 11.65 -6.65 11.7 -5.25 11.65 -1.7 12.05 M5.95 21.35 L8.8 26.95 Q11.35 34.9 10.45 39.7 9.8 43.55 7.25 44.55 5.95 45.15 4.75 43.95 3.95 43.15 3.65 42.1 3.65 32.05 3.0 28.9 1.95 24.05 1.6 21.1 L5.9 21.3 5.95 21.35 M11.85 13.7 Q11.85 14.3 13.6 17.45 15.45 20.65 16.15 21.05 L16.95 21.05 17.1 21.05 17.2 20.3 Q17.2 18.65 15.15 15.65 13.3 13.05 12.65 12.85 L12.15 12.85 Q11.85 13.0 11.85 13.7 M7.7 30.65 Q7.4 29.75 5.95 27.8 3.95 29.45 4.1 35.1 4.3 39.25 4.85 41.15 L5.55 42.25 Q6.5 43.05 7.25 42.75 11.05 41.2 7.7 30.65 M-3.95 21.75 L-4.45 28.2 Q-6.55 36.35 -9.9 39.7 -12.55 42.45 -15.4 41.65 -16.8 41.25 -17.25 39.5 -17.5 38.3 -17.25 37.25 -11.75 29.0 -10.6 26.0 L-8.5 20.7 -3.85 20.9 -3.95 21.75 M-7.45 30.55 Q-7.2 29.6 -7.45 27.0 -10.1 27.15 -13.0 31.85 -15.15 35.3 -15.65 37.25 L-15.65 38.65 Q-15.3 39.9 -14.4 40.15 -10.2 41.35 -7.45 30.55" fill="#839123" fill-rule="evenodd" stroke="none"/>
    <path d="M-1.7 12.05 L-5.25 11.65 -6.65 11.7 -7.25 11.65 -8.35 11.55 Q-10.25 11.35 -11.6 10.75 -13.35 10.0 -13.35 9.4 -13.35 8.25 -12.2 7.3 -10.45 5.95 -6.45 5.95 -3.05 5.95 -0.3 8.05 1.85 9.7 2.65 11.6 L2.4 12.35 -1.7 12.05 M11.85 13.7 Q11.85 13.0 12.15 12.85 L12.65 12.85 Q13.3 13.05 15.15 15.65 17.2 18.65 17.2 20.3 L17.1 21.05 16.95 21.05 16.15 21.05 Q15.45 20.65 13.6 17.45 11.85 14.3 11.85 13.7 M7.7 30.65 Q11.05 41.2 7.25 42.75 6.5 43.05 5.55 42.25 L4.85 41.15 Q4.3 39.25 4.1 35.1 3.95 29.45 5.95 27.8 7.4 29.75 7.7 30.65 M-7.45 30.55 Q-10.2 41.35 -14.4 40.15 -15.3 39.9 -15.65 38.65 L-15.65 37.25 Q-15.15 35.3 -13.0 31.85 -10.1 27.15 -7.45 27.0 -7.2 29.6 -7.45 30.55" fill="#98a828" fill-rule="evenodd" stroke="none"/>
  </g>
</svg>
