<?xml version="1.0" encoding="UTF-8" standalone="no"?>
<svg xmlns:ffdec="https://www.free-decompiler.com/flash" xmlns:xlink="http://www.w3.org/1999/xlink" ffdec:objectType="shape" height="33.75px" width="30.7px" xmlns="http://www.w3.org/2000/svg">
  <g transform="matrix(1.0, 0.0, 0.0, 1.0, 26.8, 113.45)">
    <path d="M-1.3 -104.1 Q-0.95 -105.6 0.25 -107.8 L-0.1 -106.1 -0.25 -105.95 -0.25 -105.9 -0.3 -105.75 Q-0.6 -104.95 -1.3 -104.1 M-1.6 -88.9 L-2.2 -87.15 -2.55 -86.5 Q-3.25 -85.05 -4.55 -84.1 -7.3 -82.35 -9.75 -83.6 -11.0 -84.2 -11.6 -85.25 L-12.55 -87.2 -4.2 -87.85 Q-3.45 -87.95 -1.6 -88.9 M-14.9 -86.9 Q-15.7 -83.95 -17.05 -81.4 -17.75 -81.8 -17.8 -83.1 -16.65 -84.85 -15.95 -86.55 L-14.9 -86.9" fill="#ffffff" fill-rule="evenodd" stroke="none"/>
    <path d="M-1.3 -104.1 L-2.7 -102.65 Q-4.3 -101.25 -6.2 -100.35 L-6.25 -100.15 -6.35 -99.95 -6.35 -99.75 -6.3 -99.75 -6.1 -99.65 -1.75 -100.75 -1.7 -100.75 -1.4 -100.85 -1.3 -100.9 0.0 -101.0 1.25 -100.6 Q2.3 -100.1 2.95 -99.25 L-2.45 -98.6 Q-14.45 -98.6 -16.05 -100.5 L-15.4 -101.1 Q-13.3 -100.75 -9.35 -102.2 -5.8 -103.5 -5.15 -104.3 -2.75 -107.35 -0.85 -111.35 -0.2 -110.75 0.1 -109.85 L0.3 -108.05 0.25 -107.8 Q-0.95 -105.6 -1.3 -104.1 M3.75 -94.75 L3.1 -93.2 Q1.4 -90.6 -1.4 -89.6 L-1.45 -89.45 -1.45 -89.4 -1.55 -89.35 -1.55 -89.3 -1.6 -88.9 Q-3.45 -87.95 -4.2 -87.85 L-12.55 -87.2 -13.35 -89.5 -3.25 -90.7 Q-1.9 -90.85 3.75 -94.75 M-14.35 -89.35 L-14.9 -86.9 -15.95 -86.55 -15.15 -89.25 -14.35 -89.35 M-17.05 -81.4 L-17.85 -80.05 Q-18.55 -79.6 -19.0 -79.75 -19.55 -79.9 -19.85 -80.4 L-17.8 -83.1 Q-17.75 -81.8 -17.05 -81.4 M-2.55 -95.5 Q-1.85 -95.5 -1.5 -95.15 L-0.8 -93.85 Q-1.45 -92.9 -2.2 -92.65 L-9.95 -92.0 Q-13.7 -92.0 -16.9 -92.8 -19.25 -93.35 -20.05 -93.95 L-19.65 -94.65 Q-19.35 -94.85 -14.85 -94.55 L-9.7 -94.25 -6.3 -94.85 -2.55 -95.5" fill="#e0e0e0" fill-rule="evenodd" stroke="none"/>
    <path d="M-0.85 -111.35 Q-2.75 -107.35 -5.15 -104.3 -5.8 -103.5 -9.35 -102.2 -13.3 -100.75 -15.4 -101.1 L-16.05 -100.5 Q-14.45 -98.6 -2.45 -98.6 L2.95 -99.25 Q3.8 -98.15 3.9 -96.4 L3.9 -96.3 3.9 -95.35 3.8 -95.05 3.8 -95.0 3.75 -94.75 Q-1.9 -90.85 -3.25 -90.7 L-13.35 -89.5 -13.65 -90.45 Q-13.7 -90.6 -13.8 -90.55 L-13.95 -90.6 -14.1 -90.45 -14.2 -90.3 -14.35 -89.35 -15.15 -89.25 -15.0 -90.7 -15.0 -90.85 -15.15 -90.95 -15.25 -91.0 -15.45 -90.85 -15.85 -90.55 Q-18.15 -88.65 -20.5 -87.25 -21.7 -86.65 -22.9 -86.65 -24.25 -86.65 -25.1 -87.2 -23.6 -92.75 -18.7 -101.5 L-17.75 -103.15 -15.7 -101.45 -15.55 -101.4 -15.35 -101.6 -15.3 -101.75 -15.3 -101.95 Q-16.25 -103.3 -16.7 -104.9 L-11.3 -113.4 -10.95 -113.45 -11.05 -112.85 Q-11.6 -110.2 -12.75 -106.8 L-13.8 -103.7 -13.7 -102.75 -12.75 -102.45 Q-11.5 -103.15 -9.4 -108.0 L-7.7 -112.0 -7.25 -111.65 -7.15 -111.55 -6.95 -111.6 -5.25 -112.2 -5.2 -112.2 -3.35 -112.4 Q-1.75 -112.2 -0.85 -111.35 M-2.55 -95.5 L-6.3 -94.85 -9.7 -94.25 -14.85 -94.55 Q-19.35 -94.85 -19.65 -94.65 L-20.05 -93.95 Q-19.25 -93.35 -16.9 -92.8 -13.7 -92.0 -9.95 -92.0 L-2.2 -92.65 Q-1.45 -92.9 -0.8 -93.85 L-1.5 -95.15 Q-1.85 -95.5 -2.55 -95.5 M-8.55 -98.35 L-15.4 -97.75 -18.4 -97.05 -18.55 -96.95 Q-16.95 -95.35 -13.9 -95.35 -6.95 -95.35 -5.45 -97.6 -5.75 -97.9 -6.75 -98.1 L-8.55 -98.35 M-15.4 -91.85 L-15.4 -92.15 -15.55 -92.45 -18.25 -92.25 Q-19.15 -92.0 -18.9 -91.25 L-18.9 -91.35 Q-18.4 -90.95 -17.55 -90.95 L-15.75 -91.2 -15.4 -91.85" fill="#b4b4b4" fill-rule="evenodd" stroke="none"/>
    <path d="M-25.1 -87.2 Q-26.1 -87.85 -26.6 -89.1 -26.85 -89.95 -26.75 -90.8 -25.55 -94.25 -23.5 -98.1 L-20.1 -104.5 Q-19.3 -104.45 -18.6 -103.8 L-17.75 -103.15 -18.7 -101.5 Q-23.6 -92.75 -25.1 -87.2 M-16.7 -104.9 L-16.75 -105.1 Q-17.2 -107.1 -16.75 -108.35 -15.95 -110.65 -14.45 -112.0 L-14.4 -112.0 -14.25 -112.1 -14.25 -112.05 Q-12.95 -113.25 -11.3 -113.4 L-16.7 -104.9 M-10.95 -113.45 L-10.0 -113.4 Q-9.4 -113.3 -8.45 -112.6 L-7.7 -112.0 -9.4 -108.0 Q-11.5 -103.15 -12.75 -102.45 L-13.7 -102.75 -13.8 -103.7 -12.75 -106.8 Q-11.6 -110.2 -11.05 -112.85 L-10.95 -113.45 M-8.55 -98.35 L-6.75 -98.1 Q-5.75 -97.9 -5.45 -97.6 -6.95 -95.35 -13.9 -95.35 -16.95 -95.35 -18.55 -96.95 L-18.4 -97.05 -15.4 -97.75 -8.55 -98.35 M-15.4 -91.85 L-15.75 -91.2 -17.55 -90.95 Q-18.4 -90.95 -18.9 -91.35 L-18.9 -91.25 Q-19.15 -92.0 -18.25 -92.25 L-15.55 -92.45 -15.4 -92.15 -15.4 -91.85" fill="#8a8a8a" fill-rule="evenodd" stroke="none"/>
    <path d="M-26.75 -90.8 L-26.6 -91.85 Q-26.4 -93.25 -25.65 -94.35 L-25.6 -94.55 -25.75 -94.75 -26.35 -95.75 -24.85 -98.8 -21.9 -104.35 -21.1 -104.5 -20.75 -104.5 -20.1 -104.5 -23.5 -98.1 Q-25.55 -94.25 -26.75 -90.8" fill="#464646" fill-rule="evenodd" stroke="none"/>
  </g>
</svg>
