<?xml version="1.0" encoding="UTF-8" standalone="no"?>
<svg xmlns:ffdec="https://www.free-decompiler.com/flash" xmlns:xlink="http://www.w3.org/1999/xlink" ffdec:objectType="shape" height="61.1px" width="39.0px" xmlns="http://www.w3.org/2000/svg">
  <g transform="matrix(1.0, 0.0, 0.0, 1.0, 9.3, 10.1)">
    <path d="M2.65 43.0 L1.0 40.45 Q-1.05 36.9 -1.95 32.5 L-2.0 32.35 -2.15 32.1 -2.15 32.05 Q-2.7 30.7 -2.2 28.9 L-0.05 33.35 0.8 32.85 1.35 33.45 0.95 36.25 Q0.95 36.9 2.55 39.2 L3.2 40.15 3.05 40.45 Q2.6 41.85 2.65 43.0 M19.15 15.35 L20.05 15.85 20.8 16.6 21.0 16.9 21.05 17.0 21.15 17.15 Q23.05 19.25 24.4 21.55 25.9 24.0 26.75 26.6 25.8 26.0 24.4 25.9 L23.8 25.85 23.1 23.5 Q22.55 21.95 21.65 21.0 L18.75 20.9 18.65 20.35 19.55 19.3 20.45 18.1 Q20.45 17.65 19.15 15.35 M12.0 14.25 Q8.45 15.35 4.8 18.0 2.35 19.75 0.55 21.65 L-1.15 17.95 -3.65 12.45 Q-5.55 7.5 -6.85 2.15 L-7.0 1.5 -8.0 -2.65 Q-7.9 -6.25 -6.45 -7.9 -5.0 -9.55 -2.35 -8.6 L0.4 -4.75 5.25 2.15 7.45 5.65 12.0 14.25 M6.6 9.3 L4.15 4.85 2.65 2.15 -1.15 -4.25 Q-4.05 -9.0 -5.05 -6.95 -5.6 -6.3 -5.85 -4.0 -6.05 -2.1 -4.85 2.15 L-4.3 3.85 -0.85 13.95 1.0 18.65 Q1.8 17.25 3.15 16.3 5.9 14.2 9.2 13.35 L6.6 9.3" fill="#515962" fill-rule="evenodd" stroke="none"/>
    <path d="M14.65 46.5 Q12.4 47.45 10.2 47.8 4.75 48.7 2.8 45.8 L2.45 45.2 2.4 45.15 2.4 45.05 Q0.6 42.9 -0.7 40.45 -2.5 37.0 -3.4 32.95 L-3.55 32.55 -3.55 32.6 Q-4.5 30.35 -3.15 27.25 L-8.5 5.8 -9.15 2.4 -9.15 2.15 -9.3 0.3 Q-9.3 -3.95 -7.35 -6.9 -5.3 -10.15 -2.3 -10.1 -0.05 -10.1 1.75 -8.2 L6.05 -2.4 9.4 2.15 18.0 13.5 Q20.65 13.85 22.0 15.7 L22.05 15.75 22.25 16.05 22.3 16.15 22.35 16.25 24.4 18.85 Q27.25 22.75 28.5 27.15 L28.6 27.3 28.65 27.35 Q30.7 30.1 28.1 34.95 L27.15 36.55 26.65 35.55 26.35 35.05 26.8 34.25 Q28.9 30.4 27.4 28.2 L27.3 28.05 27.1 27.7 26.75 26.6 Q25.9 24.0 24.4 21.55 23.05 19.25 21.15 17.15 L21.05 17.0 21.0 16.9 20.8 16.6 20.05 15.85 19.15 15.35 17.6 14.95 17.5 14.95 15.05 15.05 Q10.4 15.8 5.65 19.2 0.85 22.65 -1.25 26.7 L-1.65 27.5 -1.7 27.6 -1.75 27.7 -2.2 28.9 Q-2.7 30.7 -2.15 32.05 L-2.15 32.1 -2.0 32.35 -1.95 32.5 Q-1.05 36.9 1.0 40.45 L2.65 43.0 3.6 44.2 3.7 44.35 3.8 44.55 3.8 44.6 4.0 44.9 Q5.6 47.0 9.95 46.3 11.75 46.0 13.65 45.3 L14.4 46.15 14.65 46.5 M12.0 14.25 L14.8 13.55 16.05 13.45 7.55 2.15 4.85 -1.5 0.65 -7.2 0.65 -7.15 Q-0.65 -8.6 -2.3 -8.6 L-2.35 -8.6 Q-5.0 -9.55 -6.45 -7.9 -7.9 -6.25 -8.0 -2.65 L-7.65 2.15 -7.65 2.2 -7.05 5.45 -2.15 25.2 Q-1.1 23.35 0.55 21.65 2.35 19.75 4.8 18.0 8.45 15.35 12.0 14.25 M20.65 29.45 Q17.05 30.25 13.2 33.0 10.65 34.8 9.0 36.75 8.3 37.55 7.75 38.4 L7.35 39.05 Q6.9 39.8 6.7 40.45 5.95 42.35 6.7 43.5 7.85 44.95 11.15 44.35 L12.55 44.0 13.6 45.2 11.45 45.8 Q7.0 46.65 5.5 44.4 4.3 42.9 5.1 40.45 5.4 39.45 6.05 38.3 8.05 34.8 12.35 31.8 16.55 28.8 20.5 28.0 L20.55 28.0 Q22.9 27.55 24.4 28.0 25.7 28.35 26.4 29.4 27.95 31.35 26.25 34.85 L25.35 33.15 Q25.9 31.4 25.2 30.3 24.9 29.9 24.4 29.65 L23.25 29.35 21.55 29.35 21.45 29.35 20.95 29.45 20.9 29.45 20.8 29.45 20.65 29.45" fill="#2d333a" fill-rule="evenodd" stroke="none"/>
    <path d="M19.25 18.0 Q19.25 19.0 14.5 21.2 8.6 23.95 8.45 24.05 6.55 25.3 1.2 30.85 0.15 30.85 -0.05 30.25 L-0.05 29.6 Q-0.05 22.9 9.6 18.35 13.35 16.6 16.25 16.45 19.25 16.3 19.25 18.0 M19.6 22.05 L21.2 24.1 Q11.8 26.25 7.8 30.65 L3.0 35.65 Q1.2 33.05 3.85 30.2 10.25 23.35 19.6 22.05" fill="#737e8a" fill-rule="evenodd" stroke="none"/>
    <path d="M13.65 45.3 Q11.75 46.0 9.95 46.3 5.6 47.0 4.0 44.9 L3.8 44.6 3.8 44.55 3.7 44.35 3.6 44.2 2.65 43.0 Q2.6 41.85 3.05 40.45 L3.2 40.15 3.95 38.45 Q5.15 36.25 7.05 34.25 8.9 32.3 11.4 30.5 14.85 28.05 18.2 26.85 19.8 26.25 21.35 26.0 L23.8 25.85 24.4 25.9 Q25.8 26.0 26.75 26.6 L27.1 27.7 27.3 28.05 27.4 28.2 Q28.9 30.4 26.8 34.25 L26.35 35.05 26.25 34.85 Q27.95 31.35 26.4 29.4 25.7 28.35 24.4 28.0 22.9 27.55 20.55 28.0 L20.5 28.0 Q16.55 28.8 12.35 31.8 8.05 34.8 6.05 38.3 5.4 39.45 5.1 40.45 4.3 42.9 5.5 44.4 7.0 46.65 11.45 45.8 L13.6 45.2 13.65 45.3 M-2.35 -8.6 L-2.3 -8.6 Q-0.65 -8.6 0.65 -7.15 L0.65 -7.2 4.85 -1.5 7.55 2.15 16.05 13.45 14.8 13.55 12.0 14.25 7.45 5.65 5.25 2.15 0.4 -4.75 -2.35 -8.6 M0.55 21.65 Q-1.1 23.35 -2.15 25.2 L-7.05 5.45 -7.65 2.2 -7.65 2.15 -8.0 -2.65 -7.0 1.5 -6.85 2.15 Q-5.55 7.5 -3.65 12.45 L-1.15 17.95 0.55 21.65" fill="#40474f" fill-rule="evenodd" stroke="none"/>
    <path d="M-2.2 28.9 L-1.75 27.7 -1.7 27.6 -1.65 27.5 -1.25 26.7 Q0.85 22.65 5.65 19.2 10.4 15.8 15.05 15.05 L17.5 14.95 17.6 14.95 19.15 15.35 Q20.45 17.65 20.45 18.1 L19.55 19.3 18.65 20.35 18.75 20.9 21.65 21.0 Q22.55 21.95 23.1 23.5 L23.8 25.85 21.35 26.0 Q19.8 26.25 18.2 26.85 14.85 28.05 11.4 30.5 8.9 32.3 7.05 34.25 5.15 36.25 3.95 38.45 L3.2 40.15 2.55 39.2 Q0.95 36.9 0.95 36.25 L1.35 33.45 0.8 32.85 -0.05 33.35 -2.2 28.9 M6.6 9.3 L9.2 13.35 Q5.9 14.2 3.15 16.3 1.8 17.25 1.0 18.65 L-0.85 13.95 -4.3 3.85 -4.85 2.15 Q-6.05 -2.1 -5.85 -4.0 -5.6 -6.3 -5.05 -6.95 -4.05 -9.0 -1.15 -4.25 L2.65 2.15 4.15 4.85 6.6 9.3 M19.25 18.0 Q19.25 16.3 16.25 16.45 13.35 16.6 9.6 18.35 -0.05 22.9 -0.05 29.6 L-0.05 30.25 Q0.15 30.85 1.2 30.85 6.55 25.3 8.45 24.05 8.6 23.95 14.5 21.2 19.25 19.0 19.25 18.0 M19.6 22.05 Q10.25 23.35 3.85 30.2 1.2 33.05 3.0 35.65 L7.8 30.65 Q11.8 26.25 21.2 24.1 L19.6 22.05" fill="#616b76" fill-rule="evenodd" stroke="none"/>
    <path d="M12.55 44.0 L11.15 44.35 Q7.85 44.95 6.7 43.5 5.95 42.35 6.7 40.45 6.9 39.8 7.35 39.05 L7.75 38.4 12.55 44.0 M23.25 29.35 L24.4 29.65 Q24.9 29.9 25.2 30.3 25.9 31.4 25.35 33.15 L23.25 29.35" fill="#343a41" fill-rule="evenodd" stroke="none"/>
    <path d="M25.35 48.0 Q24.7 43.2 23.95 40.3 L23.3 38.2 22.85 37.15 Q21.05 33.6 18.0 33.6 16.05 33.6 13.75 35.25 11.7 36.7 10.4 38.6 L9.0 36.75 Q10.65 34.8 13.2 33.0 17.05 30.25 20.65 29.45 L24.1 35.55 24.8 36.85 24.9 37.0 24.95 37.05 25.7 38.45 Q27.75 42.45 27.75 44.45 27.75 47.0 25.35 48.0" fill="#e7a867" fill-rule="evenodd" stroke="none"/>
    <path d="M14.65 46.5 L14.4 46.15 13.65 45.3 13.6 45.2 12.55 44.0 7.75 38.4 Q8.3 37.55 9.0 36.75 L10.4 38.6 14.6 43.2 15.65 44.4 16.65 45.55 17.6 46.6 Q19.75 49.0 22.25 49.0 23.8 49.0 25.35 48.0 27.75 47.0 27.75 44.45 27.75 42.45 25.7 38.45 L24.95 37.05 24.9 37.0 24.8 36.85 24.1 35.55 20.65 29.45 20.8 29.45 20.9 29.45 20.95 29.45 21.45 29.35 21.55 29.35 23.25 29.35 25.35 33.15 26.25 34.85 26.35 35.05 26.65 35.55 27.15 36.55 Q28.6 39.65 29.7 44.45 29.7 46.5 28.2 48.35 26.15 51.0 22.15 51.0 21.05 51.0 18.75 49.75 16.15 48.4 14.65 46.5" fill="#a46637" fill-rule="evenodd" stroke="none"/>
    <path d="M10.4 38.6 Q11.7 36.7 13.75 35.25 16.05 33.6 18.0 33.6 21.05 33.6 22.85 37.15 L23.3 38.2 23.95 40.3 Q24.7 43.2 25.35 48.0 23.8 49.0 22.25 49.0 19.75 49.0 17.6 46.6 L16.65 45.55 15.65 44.4 14.6 43.2 10.4 38.6" fill="#f4bb83" fill-rule="evenodd" stroke="none"/>
  </g>
</svg>
