<?xml version="1.0" encoding="UTF-8" standalone="no"?>
<svg xmlns:ffdec="https://www.free-decompiler.com/flash" xmlns:xlink="http://www.w3.org/1999/xlink" ffdec:objectType="shape" height="116.0px" width="73.9px" xmlns="http://www.w3.org/2000/svg">
  <g transform="matrix(1.0, 0.0, 0.0, 1.0, 3.1, -0.3)">
    <path d="M37.95 21.85 Q39.0 21.8 40.2 23.1 L41.9 24.3 42.95 25.85 45.55 28.7 Q46.8 30.15 46.8 31.5 46.8 32.45 44.95 32.45 44.35 32.45 43.7 31.9 L42.8 31.2 41.7 32.65 Q40.85 33.65 39.5 33.65 L38.7 33.45 38.4 33.25 Q38.15 33.25 36.65 34.7 35.15 36.1 33.7 36.1 32.65 36.1 32.0 35.55 L31.25 34.8 Q30.9 35.15 30.9 35.85 L30.7 36.85 30.0 37.95 27.4 38.3 25.65 38.8 Q25.25 38.8 24.55 37.75 L23.6 36.45 Q19.9 37.95 19.2 37.95 18.35 37.95 17.8 37.15 17.2 36.35 15.55 36.3 13.85 36.25 13.55 35.55 L13.3 34.35 Q13.5 33.85 12.6 33.45 L10.95 32.6 Q9.75 31.7 9.75 30.35 L10.45 29.0 11.3 27.8 13.0 26.25 Q14.15 25.3 14.45 25.3 L15.5 25.55 Q14.5 25.85 14.35 26.3 L14.65 26.2 14.9 26.3 15.1 28.3 Q15.25 28.95 16.6 28.95 L17.1 29.0 Q17.6 29.1 18.05 29.5 18.7 30.0 19.75 30.0 20.85 30.0 21.9 28.55 L23.25 26.75 24.8 29.25 Q26.0 31.0 26.85 31.0 28.1 31.0 28.45 30.65 28.75 30.25 29.15 30.25 L29.55 30.6 Q29.95 30.95 30.6 30.95 32.8 30.95 32.8 28.45 L32.55 27.15 Q32.25 26.55 32.25 26.0 32.25 25.65 32.4 25.45 L37.4 27.85 38.45 27.6 38.7 27.3 Q38.7 26.3 38.15 25.0 L37.95 24.45 37.6 23.55 37.6 23.35 Q37.6 22.45 38.6 22.9 L37.95 21.85 M21.95 0.3 L22.95 0.45 Q26.2 0.45 29.05 2.95 31.0 4.7 31.7 6.35 L33.8 9.55 Q35.6 12.25 35.6 13.2 35.6 14.55 33.45 14.55 32.95 14.55 31.3 12.6 29.6 10.5 27.35 10.1 26.2 9.9 25.65 7.75 25.15 5.8 23.3 5.8 L21.2 6.2 19.75 5.7 Q18.55 5.15 17.8 5.15 L15.75 5.35 14.95 5.0 Q13.9 5.0 13.65 4.05 L13.6 3.05 Q13.6 2.6 14.4 2.2 15.4 1.7 17.0 1.7 L19.25 1.0 Q21.15 0.3 21.95 0.3 M47.55 53.3 L47.95 53.15 Q49.15 53.1 49.75 54.0 L50.7 55.4 Q52.9 57.1 55.0 57.85 L57.6 58.7 Q58.65 59.15 58.65 59.9 L58.5 60.4 58.3 61.05 Q58.3 61.65 56.6 62.4 L54.9 63.05 Q54.9 64.6 53.45 65.4 L52.0 65.9 51.55 66.05 50.9 66.0 49.6 65.8 Q49.3 65.8 47.75 67.3 46.1 68.95 44.7 69.35 44.1 69.5 42.65 71.0 41.4 72.25 39.05 72.25 L36.85 72.8 35.55 72.1 34.8 71.35 34.05 72.25 Q33.15 73.1 31.4 73.1 L29.25 72.65 28.1 72.15 Q27.25 72.15 25.85 73.0 24.45 73.85 23.7 73.85 22.75 73.85 22.0 73.05 L21.4 72.2 Q21.05 71.65 20.15 71.35 L18.0 70.9 Q15.8 70.5 14.3 69.1 12.95 67.85 12.25 67.85 L11.05 68.15 10.2 68.45 Q8.45 68.45 8.0 67.35 7.5 66.05 7.25 66.0 L5.65 65.9 Q4.4 65.8 3.95 65.3 3.35 64.6 3.35 64.0 3.35 63.2 5.0 62.05 L7.25 60.4 8.8 58.25 Q10.0 56.75 10.7 56.75 11.25 56.75 11.45 57.2 L11.4 57.25 10.65 57.95 10.5 60.25 Q10.8 62.15 13.25 62.2 L13.35 62.2 14.65 61.85 16.05 61.45 Q16.85 61.45 18.6 63.1 20.35 64.75 22.7 64.75 L25.6 65.15 27.45 65.5 Q29.35 65.5 30.7 63.45 30.85 62.85 31.3 62.2 32.25 60.95 33.85 60.95 34.6 60.95 36.35 63.1 38.1 65.25 38.95 65.25 41.0 65.25 42.0 64.0 42.6 63.2 42.6 62.45 L41.95 59.5 42.7 59.85 43.3 60.0 45.35 59.8 45.9 59.75 47.15 59.15 47.8 58.15 47.45 56.8 47.1 55.85 Q47.1 54.85 47.65 54.3 L48.1 54.05 48.05 54.0 47.55 53.3 M56.2 73.45 L55.95 72.0 56.0 71.8 Q56.1 71.6 56.35 71.6 57.0 71.6 62.0 76.55 L65.3 79.1 Q66.7 80.35 66.7 81.6 66.7 82.1 66.2 82.65 65.5 83.35 64.3 83.35 63.05 83.35 62.05 84.9 61.1 86.4 59.05 86.4 L58.3 86.25 57.95 86.05 Q56.3 86.05 54.8 88.1 53.3 90.1 50.6 90.1 L49.25 89.65 Q48.5 89.2 46.9 89.2 46.25 89.2 45.7 90.0 L44.65 91.7 Q42.8 94.2 38.4 94.2 37.45 94.2 36.05 93.45 L34.75 92.65 Q33.65 92.65 31.95 93.65 30.25 94.65 28.05 94.65 27.55 94.65 26.4 93.75 25.25 92.8 24.35 92.8 22.6 92.8 21.4 93.65 L17.55 94.25 17.45 94.35 17.15 94.3 Q15.45 94.3 13.15 92.2 10.85 90.1 10.75 90.1 L8.75 89.95 Q6.45 89.95 5.75 88.6 L5.15 86.9 3.4 86.4 1.65 85.9 0.8 85.0 0.55 84.2 Q0.55 83.3 2.45 80.65 L4.5 78.05 6.15 76.45 7.3 74.95 Q7.95 73.35 8.6 74.35 L9.15 75.5 7.8 76.6 7.65 76.75 6.8 78.4 6.85 79.35 Q7.05 80.2 8.0 80.2 L8.05 80.2 Q9.05 80.15 11.95 78.1 14.9 75.95 15.1 75.95 15.95 75.95 16.45 76.5 16.8 76.9 16.8 77.45 L17.45 80.55 Q18.3 83.65 19.3 83.65 21.8 83.65 22.95 81.85 24.1 80.05 25.5 80.05 27.5 80.05 28.3 82.45 29.1 84.8 30.85 84.8 32.2 84.8 33.1 83.85 33.8 83.1 33.8 82.55 33.8 82.05 34.35 81.3 35.15 80.15 36.65 80.15 37.3 80.15 38.1 81.8 38.9 83.45 40.1 83.45 40.7 83.45 41.95 82.5 43.25 81.55 43.65 81.55 44.5 81.55 45.9 82.65 47.35 83.75 48.0 83.75 49.95 83.75 50.7 81.9 51.1 80.9 51.1 79.75 51.1 77.75 51.45 77.05 L52.55 77.75 54.45 78.2 Q55.0 78.2 55.45 77.8 56.15 77.05 56.7 75.15 L56.9 73.7 56.45 73.4 56.2 73.25 56.2 73.45 M7.45 96.35 L6.6 97.0 6.6 97.05 6.85 99.15 Q7.2 100.3 8.05 100.75 L9.45 101.05 Q10.3 101.05 11.75 99.85 12.3 100.35 12.85 103.25 13.25 105.3 15.85 105.3 18.1 105.3 19.85 103.45 21.3 101.6 21.6 101.6 22.5 101.6 22.8 104.25 L23.25 105.3 Q23.8 106.35 24.25 106.35 25.5 106.35 25.75 105.95 L26.35 105.0 27.35 106.35 Q28.4 107.45 29.75 107.45 31.45 107.45 32.75 105.3 33.85 103.5 34.0 101.8 L35.5 101.55 36.85 101.15 Q37.15 101.15 37.9 103.5 38.7 105.85 41.0 105.85 43.25 105.85 43.9 104.3 L44.65 102.7 Q45.7 102.7 46.55 104.1 47.4 105.45 48.2 105.45 49.3 105.45 50.9 103.85 52.3 102.4 52.3 101.95 52.3 100.9 51.1 99.85 L49.9 98.65 Q49.9 98.2 50.35 97.8 51.15 97.1 53.1 97.1 53.7 97.1 54.0 97.65 L54.7 98.15 55.75 97.75 Q56.55 97.75 56.95 98.65 57.3 99.55 58.6 99.55 L60.55 99.2 Q61.65 98.7 61.65 97.4 61.65 96.0 61.1 94.8 L60.55 93.4 Q60.55 92.9 60.8 92.7 L60.5 92.3 60.3 92.05 60.2 92.15 Q60.65 91.5 61.45 91.5 62.15 91.5 64.25 93.4 L66.9 95.9 69.8 98.35 Q70.8 99.25 70.8 100.5 70.8 100.9 69.9 101.65 68.75 102.55 67.35 102.55 L66.55 102.3 65.95 103.3 65.55 104.3 Q65.55 104.75 65.0 105.15 L63.05 105.6 Q62.8 105.6 62.4 105.2 61.35 106.35 58.9 107.75 56.7 110.6 55.3 110.6 54.5 110.6 53.9 110.2 L53.4 109.75 52.9 111.1 Q52.55 112.05 51.55 112.55 48.1 114.3 45.5 114.3 L44.5 114.05 43.1 113.75 Q42.0 113.75 40.65 114.9 39.35 116.0 38.2 116.0 36.9 116.0 34.95 115.05 L33.15 114.05 Q31.6 114.05 29.05 115.2 26.55 116.3 24.9 116.3 22.5 116.3 22.35 114.3 22.25 112.3 21.45 112.3 20.95 112.3 19.55 113.7 18.1 115.05 16.3 115.05 14.55 115.05 14.1 113.9 13.6 112.55 12.95 112.4 L11.2 112.15 Q10.25 112.0 10.05 111.4 L9.75 110.55 Q9.45 110.05 8.85 110.05 8.65 110.05 7.95 110.75 7.25 111.4 6.5 111.4 5.7 111.4 4.15 109.85 3.75 109.4 2.0 109.4 L-0.1 109.1 -2.2 107.6 Q-3.1 106.95 -3.1 105.95 -3.1 105.3 1.0 101.3 5.05 97.3 5.05 96.75 5.05 96.55 5.8 96.0 L6.6 95.45 Q7.3 95.45 7.45 96.35" fill="#d7d7d7" fill-rule="evenodd" stroke="none"/>
    <path d="M44.85 38.7 Q45.0 38.3 45.3 38.3 47.2 38.3 49.25 42.95 L48.7 43.75 47.5 44.85 46.55 46.1 44.55 46.35 Q43.5 46.35 43.25 47.25 L43.15 48.5 Q42.85 49.25 41.55 49.75 L39.75 50.3 Q36.3 51.15 35.15 52.2 L33.65 53.35 Q32.35 54.3 31.8 54.3 L29.25 53.9 27.2 53.5 Q26.1 53.5 25.25 53.85 L22.8 54.15 Q21.3 54.15 20.4 53.2 L19.55 51.75 Q19.15 51.0 18.15 50.95 L16.8 50.85 Q16.35 50.6 16.05 49.65 L15.3 50.3 Q14.5 50.9 13.5 50.9 12.8 50.9 12.85 49.35 L13.0 47.75 12.95 47.3 12.95 47.25 11.35 47.15 Q10.75 46.7 10.9 46.35 L10.85 46.3 10.0 46.95 8.55 47.35 Q7.55 47.35 7.1 46.65 L6.85 45.8 Q6.85 44.5 8.65 42.05 L10.45 39.5 Q10.45 38.8 11.0 38.9 11.5 38.95 11.5 39.8 L10.9 40.3 10.6 40.65 10.75 41.35 Q11.15 42.15 12.2 42.15 L13.35 41.7 13.45 42.3 13.25 43.65 Q13.25 44.5 14.65 45.2 L17.5 46.85 19.25 48.45 Q21.15 49.85 22.45 49.85 23.4 49.85 23.95 49.4 24.45 48.95 24.9 48.95 25.6 48.95 26.05 49.75 26.5 50.55 28.05 50.55 29.25 50.55 30.7 49.6 32.45 48.4 32.45 46.75 32.45 44.65 33.6 43.65 34.15 44.35 34.9 46.15 35.35 47.3 36.15 47.3 39.0 47.3 40.3 45.3 41.2 43.2 41.55 42.85 L44.1 42.65 44.15 42.6 Q45.4 41.95 45.4 41.3 L45.55 40.45 45.45 39.3 45.5 39.3 45.6 39.4 Q45.25 38.85 44.85 38.7" fill="#e5e5e5" fill-rule="evenodd" stroke="none"/>
    <path d="M15.5 25.55 L15.8 25.75 16.05 26.3 16.05 26.35 15.85 27.95 17.35 28.0 17.4 28.0 Q17.65 28.0 18.3 28.6 18.95 29.2 19.55 29.2 20.5 29.2 21.4 27.55 22.3 25.9 23.35 25.9 23.7 25.9 25.3 28.05 L27.05 30.2 28.25 29.85 29.2 29.45 Q29.8 29.45 29.95 29.8 30.1 30.15 30.6 30.15 32.05 30.15 32.0 28.45 L31.75 27.2 31.45 25.8 31.45 25.1 Q31.55 24.6 32.3 24.6 32.85 24.6 37.8 27.05 L37.85 26.75 37.35 25.2 Q36.9 24.4 36.85 23.55 L36.8 23.05 Q36.8 22.05 37.75 21.85 L37.95 21.85 38.6 22.9 Q37.6 22.45 37.6 23.35 L37.6 23.55 37.95 24.45 38.15 25.0 Q38.7 26.3 38.7 27.3 L38.45 27.6 37.4 27.85 32.4 25.45 Q32.25 25.65 32.25 26.0 32.25 26.55 32.55 27.15 L32.8 28.45 Q32.8 30.95 30.6 30.95 29.95 30.95 29.55 30.6 L29.15 30.25 Q28.75 30.25 28.45 30.65 28.1 31.0 26.85 31.0 26.0 31.0 24.8 29.25 L23.25 26.75 21.9 28.55 Q20.85 30.0 19.75 30.0 18.7 30.0 18.05 29.5 17.6 29.1 17.1 29.0 L16.6 28.95 Q15.25 28.95 15.1 28.3 L14.9 26.3 14.65 26.2 14.35 26.3 Q14.5 25.85 15.5 25.55 M11.5 39.8 L11.5 40.0 11.35 40.7 Q11.3 41.25 12.0 41.25 L12.5 41.0 Q12.95 40.75 13.3 40.75 14.4 40.75 14.35 41.95 L14.3 42.15 14.1 43.55 Q14.1 44.2 15.9 45.1 L18.1 46.2 19.35 47.6 Q20.8 48.95 21.9 48.95 L22.55 49.15 23.75 48.7 24.8 48.2 Q26.1 48.2 26.5 48.8 L26.65 49.5 28.25 49.8 Q29.65 49.8 30.75 48.35 31.7 47.15 31.7 46.4 31.7 45.6 32.05 44.45 32.6 42.9 33.45 42.9 34.75 42.9 35.4 44.7 36.1 46.5 36.3 46.5 37.6 46.5 38.7 45.8 L39.8 44.55 Q39.95 44.0 40.65 43.0 L41.5 42.05 43.05 42.35 43.85 42.2 Q44.75 41.8 44.7 40.35 44.65 39.2 44.85 38.7 45.25 38.85 45.6 39.4 L45.5 39.3 45.45 39.3 45.55 40.45 45.4 41.3 Q45.4 41.95 44.15 42.6 L44.1 42.65 41.55 42.85 Q41.2 43.2 40.3 45.3 39.0 47.3 36.15 47.3 35.35 47.3 34.9 46.15 34.15 44.35 33.6 43.65 32.45 44.65 32.45 46.75 32.45 48.4 30.7 49.6 29.25 50.55 28.05 50.55 26.5 50.55 26.05 49.75 25.6 48.95 24.9 48.95 24.45 48.95 23.95 49.4 23.4 49.85 22.45 49.85 21.15 49.85 19.25 48.45 L17.5 46.85 14.65 45.2 Q13.25 44.5 13.25 43.65 L13.45 42.3 13.35 41.7 12.2 42.15 Q11.15 42.15 10.75 41.35 L10.6 40.65 10.9 40.3 11.5 39.8 M11.45 57.2 L11.4 58.85 11.6 60.4 Q12.0 61.4 13.3 61.4 L14.4 61.0 16.5 60.6 Q17.05 60.6 18.9 62.05 20.75 63.45 21.1 63.45 L21.6 63.6 22.45 63.85 24.85 63.75 25.75 64.2 Q26.55 64.65 27.3 64.65 29.0 64.65 30.2 62.4 31.4 60.1 33.8 60.1 35.05 60.1 36.85 62.25 38.65 64.35 39.05 64.35 40.6 64.35 41.3 63.45 L41.75 62.25 41.6 61.25 41.35 60.55 41.1 59.55 Q41.1 58.45 41.7 58.45 L43.35 59.15 45.7 59.0 46.4 58.75 Q46.9 58.5 46.9 57.75 L46.6 56.9 Q46.25 56.35 46.25 55.75 46.25 55.15 46.6 54.4 47.0 53.55 47.55 53.3 L48.05 54.0 48.1 54.05 47.65 54.3 Q47.1 54.85 47.1 55.85 L47.45 56.8 47.8 58.15 47.15 59.15 45.9 59.75 45.35 59.8 43.3 60.0 42.7 59.85 41.95 59.5 42.6 62.45 Q42.6 63.2 42.0 64.0 41.0 65.25 38.95 65.25 38.1 65.25 36.35 63.1 34.6 60.95 33.85 60.95 32.25 60.95 31.3 62.2 30.85 62.85 30.7 63.45 29.35 65.5 27.45 65.5 L25.6 65.15 22.7 64.75 Q20.35 64.75 18.6 63.1 16.85 61.45 16.05 61.45 L14.65 61.85 13.35 62.2 13.25 62.2 Q10.8 62.15 10.5 60.25 L10.65 57.95 11.4 57.25 11.45 57.2 M9.15 75.5 L9.15 75.8 7.7 78.4 7.7 79.25 8.0 79.35 9.1 79.0 11.4 77.5 13.85 75.4 14.4 75.2 15.0 75.1 Q17.6 75.1 17.6 77.5 L17.95 78.75 18.3 80.4 18.55 81.65 Q18.85 82.8 19.4 82.8 21.2 82.8 22.45 81.0 23.65 79.15 25.65 79.15 27.2 79.15 28.35 80.7 29.2 81.85 29.2 82.5 L29.65 83.35 Q30.2 83.95 30.95 83.95 32.4 83.95 33.25 81.5 33.25 80.95 34.15 80.2 35.2 79.25 36.6 79.25 37.4 79.25 38.5 80.95 39.6 82.6 40.0 82.6 40.5 82.6 41.7 81.65 42.9 80.65 43.95 80.65 44.45 80.65 46.25 81.8 L48.15 82.95 Q50.05 82.95 50.2 79.55 50.35 76.15 51.75 76.15 L52.65 76.8 Q53.65 77.45 54.3 77.45 55.15 77.45 55.6 76.7 L55.8 76.05 55.9 74.6 56.05 74.05 56.2 73.45 56.2 73.25 56.45 73.4 56.9 73.7 56.7 75.15 Q56.15 77.05 55.45 77.8 55.0 78.2 54.45 78.2 L52.55 77.75 51.45 77.05 Q51.1 77.75 51.1 79.75 51.1 80.9 50.7 81.9 49.95 83.75 48.0 83.75 47.35 83.75 45.9 82.65 44.5 81.55 43.65 81.55 43.25 81.55 41.95 82.5 40.7 83.45 40.1 83.45 38.9 83.45 38.1 81.8 37.3 80.15 36.65 80.15 35.15 80.15 34.35 81.3 33.8 82.05 33.8 82.55 33.8 83.1 33.1 83.85 32.2 84.8 30.85 84.8 29.1 84.8 28.3 82.45 27.5 80.05 25.5 80.05 24.1 80.05 22.95 81.85 21.8 83.65 19.3 83.65 18.3 83.65 17.45 80.55 L16.8 77.45 Q16.8 76.9 16.45 76.5 15.95 75.95 15.1 75.95 14.9 75.95 11.95 78.1 9.05 80.15 8.05 80.2 L8.0 80.2 Q7.05 80.2 6.85 79.35 L6.8 78.4 7.65 76.75 7.8 76.6 9.15 75.5 M60.2 92.15 L60.3 92.05 60.5 92.3 60.8 92.7 Q60.55 92.9 60.55 93.4 L61.1 94.8 Q61.65 96.0 61.65 97.4 61.65 98.7 60.55 99.2 L58.6 99.55 Q57.3 99.55 56.95 98.65 56.55 97.75 55.75 97.75 L54.7 98.15 54.0 97.65 Q53.7 97.1 53.1 97.1 51.15 97.1 50.35 97.8 49.9 98.2 49.9 98.65 L51.1 99.85 Q52.3 100.9 52.3 101.95 52.3 102.4 50.9 103.85 49.3 105.45 48.2 105.45 47.4 105.45 46.55 104.1 45.7 102.7 44.65 102.7 L43.9 104.3 Q43.25 105.85 41.0 105.85 38.7 105.85 37.9 103.5 37.15 101.15 36.85 101.15 L35.5 101.55 34.0 101.8 Q33.85 103.5 32.75 105.3 31.45 107.45 29.75 107.45 28.4 107.45 27.35 106.35 L26.35 105.0 25.75 105.95 Q25.5 106.35 24.25 106.35 23.8 106.35 23.25 105.3 L22.8 104.25 Q22.5 101.6 21.6 101.6 21.3 101.6 19.85 103.45 18.1 105.3 15.85 105.3 13.25 105.3 12.85 103.25 12.3 100.35 11.75 99.85 10.3 101.05 9.45 101.05 L8.05 100.75 Q7.2 100.3 6.85 99.15 L6.6 97.05 6.6 97.0 7.45 96.35 7.35 98.25 8.1 99.25 8.55 99.75 9.2 100.2 Q9.85 100.2 10.7 99.6 11.55 98.95 11.7 98.95 12.85 98.95 13.3 100.65 L13.5 102.45 Q13.5 103.1 13.95 103.65 14.6 104.45 15.9 104.45 17.85 104.45 19.45 102.6 21.1 100.7 21.8 100.7 23.15 100.7 23.5 103.0 L23.8 104.15 24.2 105.4 24.4 105.45 Q25.0 105.45 25.4 104.75 25.85 104.05 26.4 104.05 L27.65 105.35 Q28.65 106.6 29.6 106.6 31.05 106.6 32.2 104.5 L33.05 102.35 33.1 101.55 Q33.2 100.8 33.55 100.8 L34.2 101.0 35.4 100.65 36.85 100.3 Q37.7 100.3 38.45 102.7 39.25 105.05 40.95 105.05 42.95 105.05 43.3 103.45 43.65 101.85 45.1 101.85 46.0 101.85 46.95 103.25 47.85 104.65 48.2 104.65 49.7 104.65 51.45 101.7 51.45 100.95 50.3 100.3 49.1 99.65 49.1 98.5 49.1 97.85 49.8 97.2 50.8 96.25 52.85 96.25 53.8 96.25 54.35 96.75 L54.85 97.2 56.2 96.95 Q57.1 96.95 57.55 97.85 57.95 98.7 58.2 98.7 L60.15 98.3 60.65 97.95 60.8 97.65 60.8 97.6 60.8 97.55 60.8 97.45 Q60.8 96.1 60.3 95.0 59.75 93.9 59.75 93.35 59.75 92.85 60.05 92.35 L60.1 92.3 60.2 92.15" fill="#779c83" fill-rule="evenodd" stroke="none"/>
  </g>
</svg>
