<?xml version="1.0" encoding="UTF-8" standalone="no"?>
<svg xmlns:ffdec="https://www.free-decompiler.com/flash" xmlns:xlink="http://www.w3.org/1999/xlink" ffdec:objectType="shape" height="36.15px" width="49.75px" xmlns="http://www.w3.org/2000/svg">
  <g transform="matrix(1.0, 0.0, 0.0, 1.0, 24.4, 18.95)">
    <path d="M16.1 -10.4 L14.85 -10.3 14.9 -10.55 14.7 -11.0 14.35 -11.35 14.1 -11.3 14.0 -11.2 14.55 -13.1 Q13.75 -13.45 12.55 -12.75 L10.95 -11.7 12.3 -14.25 12.05 -14.65 Q7.8 -12.55 5.15 -8.6 3.55 -6.35 3.2 -3.6 5.55 -4.4 8.0 -5.5 L11.5 -6.9 19.2 -9.95 19.95 -9.75 Q17.45 -8.9 15.45 -7.4 14.65 -6.85 14.95 -6.35 15.1 -6.05 15.85 -6.05 18.5 -6.15 20.9 -5.35 L16.75 -5.75 Q11.3 -6.9 6.3 -4.25 4.25 -3.15 2.1 -2.8 L1.45 -3.25 Q-2.95 -5.3 -7.45 -2.9 -11.15 -0.85 -13.9 2.35 -14.05 2.0 -14.5 1.95 L-15.3 2.05 Q-16.35 2.6 -16.8 2.45 L-15.9 1.15 Q-15.5 0.65 -15.7 0.3 -15.9 0.05 -16.35 0.05 -17.65 0.05 -20.6 1.0 L-16.7 -2.4 Q-16.25 -2.85 -16.35 -3.15 -16.4 -3.45 -16.85 -3.55 L-19.9 -3.8 Q-21.55 -3.5 -22.7 -2.45 L-21.6 -4.15 -18.35 -5.15 Q-15.15 -5.85 -12.05 -4.7 L-16.2 -1.95 -16.35 -1.6 -16.3 -1.3 -16.15 -1.0 Q-12.45 -1.65 -9.0 -3.2 -7.55 -3.9 -6.0 -4.05 -3.9 -4.5 -3.1 -5.75 L-8.35 -7.1 Q-12.55 -7.85 -16.75 -7.15 L-16.45 -7.45 Q-16.35 -7.7 -16.7 -8.15 -17.4 -8.9 -18.4 -9.0 L-17.8 -9.2 -17.2 -9.25 -16.55 -9.45 Q-16.3 -9.7 -16.35 -10.0 L-17.05 -10.7 -13.4 -10.95 Q-12.55 -10.8 -12.35 -11.25 L-12.5 -11.9 -13.7 -13.8 -9.25 -12.95 -7.5 -12.65 -9.65 -12.25 -10.15 -11.85 -9.4 -11.35 -13.7 -10.0 Q-15.05 -9.7 -15.3 -8.4 L-14.05 -8.65 Q-8.75 -9.5 -4.0 -7.5 -0.7 -6.0 1.85 -4.15 1.95 -7.3 -0.1 -9.8 -2.9 -13.15 -7.2 -12.6 L-7.4 -12.85 -7.95 -13.3 -9.4 -14.75 Q-8.45 -14.9 -7.3 -14.25 L-5.5 -12.95 -5.05 -12.85 Q-4.9 -12.9 -4.9 -13.25 L-4.85 -16.15 -2.9 -13.15 -2.3 -12.75 Q-1.9 -12.75 -1.8 -13.45 L-1.35 -15.3 -1.35 -15.15 -1.35 -14.45 -1.15 -13.4 -0.45 -12.2 -0.05 -11.6 0.25 -11.25 0.65 -11.15 0.75 -11.25 Q1.15 -11.65 0.85 -12.0 L0.65 -12.3 0.55 -12.55 0.45 -13.3 0.6 -13.3 1.15 -13.85 Q1.8 -14.95 2.9 -15.8 3.85 -16.55 4.0 -16.85 L3.5 -12.65 Q3.5 -12.25 3.65 -12.15 L4.15 -12.25 4.35 -12.75 Q4.65 -13.5 5.75 -14.7 L8.35 -17.5 Q7.75 -15.8 7.6 -13.95 L7.65 -13.65 6.2 -12.55 5.15 -11.2 6.6 -12.3 9.85 -14.6 12.1 -16.1 Q13.7 -17.05 14.5 -17.05 L12.9 -14.9 12.75 -14.3 13.25 -13.95 13.85 -14.05 16.25 -14.25 15.2 -12.35 Q15.0 -11.8 15.15 -11.55 L16.15 -11.45 16.5 -11.75 16.45 -11.75 16.85 -11.8 16.1 -10.4 M3.3 -12.5 L3.3 -14.85 3.25 -14.95 3.1 -15.05 Q1.75 -14.7 1.75 -13.1 1.75 -9.5 2.7 -6.05 L3.0 -5.75 3.25 -6.3 Q4.4 -9.4 3.3 -12.5 M11.8 6.9 L10.6 3.9 Q10.0 2.3 8.95 1.05 11.4 1.1 13.15 3.05 14.45 4.6 15.9 5.55 16.1 4.35 15.65 3.25 14.85 1.25 13.3 -0.3 L16.95 -0.7 18.9 -0.4 19.0 -0.65 Q18.55 -1.9 16.95 -2.15 L15.25 -2.7 16.8 -3.45 Q20.1 -4.65 23.65 -3.9 L24.15 -3.35 20.55 -2.85 Q19.55 -2.45 19.8 -1.85 21.3 -0.95 21.9 -0.25 22.9 0.85 22.7 2.05 19.8 0.9 16.7 0.9 15.8 0.8 15.8 1.4 L16.4 2.05 Q17.55 2.65 18.15 4.15 L18.8 6.85 17.1 6.3 Q16.65 6.1 16.45 6.3 16.15 6.5 16.35 7.2 16.6 7.95 16.35 8.2 15.3 6.55 12.45 6.45 L11.9 6.6 11.8 6.9 M3.05 9.45 Q3.15 6.45 2.8 3.4 L4.35 4.1 Q8.4 6.65 11.0 10.65 9.65 9.4 8.55 9.2 L7.2 8.9 6.55 8.85 Q6.4 8.95 6.5 9.25 L6.65 11.55 Q5.75 9.75 3.8 9.35 L3.05 9.45 M-6.15 12.8 Q-6.35 12.3 -6.6 12.3 L-7.0 12.55 -8.4 14.0 Q-8.25 11.6 -8.85 9.7 -8.95 9.2 -9.25 9.15 L-9.85 9.5 -12.15 12.0 -12.1 10.9 Q-12.05 9.85 -11.25 7.1 L-10.95 6.25 -10.85 9.45 -10.65 9.75 -7.5 7.15 -6.15 12.8 M-10.7 4.7 L-10.95 4.9 Q-11.55 5.45 -11.75 6.25 -11.9 5.95 -12.25 6.0 L-12.9 6.3 -14.6 7.85 -13.65 6.45 Q-12.15 4.3 -10.2 2.5 L-10.7 4.7 M0.85 14.55 Q0.15 12.7 -0.65 11.75 L-2.1 10.25 -2.7 9.8 -2.75 9.85 -2.35 5.9 -1.15 8.0 Q0.6 11.0 0.85 14.55" fill="#5f7e11" fill-rule="evenodd" stroke="none"/>
    <path d="M19.2 -9.95 L11.5 -6.9 8.0 -5.5 Q5.55 -4.4 3.2 -3.6 3.55 -6.35 5.15 -8.6 7.8 -12.55 12.05 -14.65 L12.3 -14.25 10.95 -11.7 12.55 -12.75 Q13.75 -13.45 14.55 -13.1 L14.0 -11.2 14.1 -11.3 14.35 -11.35 14.7 -11.0 14.9 -10.55 14.85 -10.3 16.1 -10.4 16.1 -10.05 16.35 -9.6 19.2 -9.95 M0.45 -13.3 L0.55 -12.55 0.65 -12.3 0.85 -12.0 Q1.15 -11.65 0.75 -11.25 L0.65 -11.15 0.25 -11.25 -0.05 -11.6 -0.45 -12.2 -1.15 -13.4 -1.35 -14.45 -1.35 -15.15 -1.35 -15.3 -1.2 -15.7 -0.7 -16.9 -0.65 -17.05 -0.1 -14.1 Q0.1 -13.35 0.45 -13.3 M-7.2 -12.6 Q-2.9 -13.15 -0.1 -9.8 1.95 -7.3 1.85 -4.15 -0.7 -6.0 -4.0 -7.5 -8.75 -9.5 -14.05 -8.65 L-15.3 -8.4 Q-15.05 -9.7 -13.7 -10.0 L-9.4 -11.35 -10.15 -11.85 -9.65 -12.25 -7.5 -12.65 -7.2 -12.6 M-16.75 -7.15 Q-12.55 -7.85 -8.35 -7.1 L-3.1 -5.75 Q-3.9 -4.5 -6.0 -4.05 -7.55 -3.9 -9.0 -3.2 -12.45 -1.65 -16.15 -1.0 L-16.3 -1.3 -16.35 -1.6 -16.2 -1.95 -12.05 -4.7 Q-15.15 -5.85 -18.35 -5.15 L-21.6 -4.15 -20.55 -5.35 Q-19.1 -6.9 -16.75 -7.15 M-13.9 2.35 Q-11.15 -0.85 -7.45 -2.9 -2.95 -5.3 1.45 -3.25 L2.1 -2.8 Q4.25 -3.15 6.3 -4.25 11.3 -6.9 16.75 -5.75 L20.9 -5.35 21.25 -5.2 Q22.6 -4.85 23.65 -3.9 20.1 -4.65 16.8 -3.45 L15.25 -2.7 16.95 -2.15 Q18.55 -1.9 19.0 -0.65 L18.9 -0.4 16.95 -0.7 13.3 -0.3 Q14.85 1.25 15.65 3.25 16.1 4.35 15.9 5.55 14.45 4.6 13.15 3.05 11.4 1.1 8.95 1.05 10.0 2.3 10.6 3.9 L11.8 6.9 12.1 11.75 11.0 10.65 Q8.4 6.65 4.35 4.1 L2.8 3.4 Q3.15 6.45 3.05 9.45 2.5 12.7 1.25 15.9 L0.85 14.55 Q0.6 11.0 -1.15 8.0 L-2.35 5.9 -2.75 9.85 -2.95 10.65 Q-3.15 13.95 -5.25 15.1 L-6.15 12.8 -7.5 7.15 -10.65 9.75 -10.85 9.45 -10.95 6.25 -9.9 4.3 -10.7 4.7 -10.2 2.5 Q-12.15 4.3 -13.65 6.45 L-14.6 7.85 -16.7 10.5 Q-15.95 6.35 -13.85 2.8 L-13.9 2.35 M3.3 -12.5 Q4.4 -9.4 3.25 -6.3 L3.0 -5.75 2.7 -6.05 Q1.75 -9.5 1.75 -13.1 1.75 -14.7 3.1 -15.05 L3.25 -14.95 3.3 -14.85 3.3 -12.5 M14.05 -9.4 L14.05 -10.35 Q11.35 -10.25 10.2 -8.0 L11.65 -7.8 11.8 -7.85 Q13.25 -8.1 14.05 -9.4 M13.85 -3.65 L17.15 -3.75 17.6 -4.2 Q16.2 -5.7 13.7 -5.35 L11.55 -4.8 Q7.95 -4.55 6.25 -2.5 L7.7 -1.95 Q9.3 -1.5 10.35 -0.4 11.35 0.8 12.35 0.6 L11.35 -1.35 13.55 -1.8 13.75 -2.0 12.5 -3.3 13.85 -3.65 M-3.7 -10.7 Q-4.65 -11.4 -5.85 -11.45 -7.35 -11.7 -8.5 -10.95 L-8.5 -10.65 -8.25 -10.2 -5.05 -8.95 Q-4.0 -8.45 -3.05 -7.75 -0.85 -6.05 1.05 -5.4 L1.05 -5.65 Q-0.05 -9.4 -3.7 -10.7 M6.35 2.45 Q8.85 4.75 10.35 7.55 10.55 6.0 10.15 4.6 8.75 -0.45 3.9 -1.95 L3.15 -1.1 3.0 -0.85 2.95 -0.55 6.35 2.45 M-0.4 2.45 Q-0.3 6.45 1.6 9.55 L1.85 6.65 Q2.6 1.35 0.85 -3.15 L0.5 -2.7 Q-0.35 -0.2 -0.4 2.45 M2.5 -8.3 L3.2 -8.05 3.2 -8.1 2.95 -10.25 Q2.9 -10.85 2.5 -10.9 L2.35 -10.8 2.5 -8.3 M5.25 -6.6 L4.9 -5.65 Q6.3 -5.45 7.9 -7.1 10.2 -9.5 9.85 -11.75 L8.3 -10.35 5.25 -6.6 M-3.95 10.9 Q-2.2 4.25 -1.05 -2.6 L-3.25 -2.95 Q-10.45 -1.65 -14.1 4.85 L-10.3 2.1 Q-7.4 0.0 -5.55 0.1 -8.0 3.3 -8.4 6.55 L-5.7 4.15 Q-5.2 7.7 -4.85 11.2 L-4.6 11.35 Q-3.95 11.55 -3.95 10.9 M-11.1 -6.25 L-16.05 -6.45 -15.7 -6.1 -15.35 -6.05 Q-12.55 -6.0 -10.05 -4.75 -10.6 -4.5 -11.2 -4.4 -12.5 -3.95 -13.25 -2.8 L-13.4 -2.4 -11.8 -3.0 Q-8.75 -3.8 -6.05 -5.55 L-6.8 -5.9 -8.9 -5.2 -11.1 -6.25" fill="#709318" fill-rule="evenodd" stroke="none"/>
    <path d="M16.1 -10.4 L16.85 -11.8 16.45 -11.75 16.5 -11.75 16.15 -11.45 15.15 -11.55 Q15.0 -11.8 15.2 -12.35 L16.25 -14.25 13.85 -14.05 13.25 -13.95 12.75 -14.3 12.9 -14.9 14.5 -17.05 Q13.7 -17.05 12.1 -16.1 L9.85 -14.6 6.6 -12.3 5.15 -11.2 6.2 -12.55 7.65 -13.65 7.6 -13.95 Q7.75 -15.8 8.35 -17.5 L5.75 -14.7 Q4.65 -13.5 4.35 -12.75 L4.15 -12.25 3.65 -12.15 Q3.5 -12.25 3.5 -12.65 L4.0 -16.85 Q3.85 -16.55 2.9 -15.8 1.8 -14.95 1.15 -13.85 L0.6 -13.3 0.45 -13.3 Q0.1 -13.35 -0.1 -14.1 L-0.65 -17.05 -0.7 -16.9 -1.2 -15.7 -1.35 -15.3 -1.8 -13.45 Q-1.9 -12.75 -2.3 -12.75 L-2.9 -13.15 -4.85 -16.15 -4.9 -13.25 Q-4.9 -12.9 -5.05 -12.85 L-5.5 -12.95 -7.3 -14.25 Q-8.45 -14.9 -9.4 -14.75 L-7.95 -13.3 -7.4 -12.85 -7.2 -12.6 -7.5 -12.65 -9.25 -12.95 -13.7 -13.8 -12.5 -11.9 -12.35 -11.25 Q-12.55 -10.8 -13.4 -10.95 L-17.05 -10.7 -16.35 -10.0 Q-16.3 -9.7 -16.55 -9.45 L-17.2 -9.25 -17.8 -9.2 -18.4 -9.0 Q-17.4 -8.9 -16.7 -8.15 -16.35 -7.7 -16.45 -7.45 L-16.75 -7.15 Q-19.1 -6.9 -20.55 -5.35 L-21.6 -4.15 -22.7 -2.45 Q-21.55 -3.5 -19.9 -3.8 L-16.85 -3.55 Q-16.4 -3.45 -16.35 -3.15 -16.25 -2.85 -16.7 -2.4 L-20.6 1.0 Q-17.65 0.05 -16.35 0.05 -15.9 0.05 -15.7 0.3 -15.5 0.65 -15.9 1.15 L-16.8 2.45 Q-16.35 2.6 -15.3 2.05 L-14.5 1.95 Q-14.05 2.0 -13.9 2.35 L-13.85 2.8 Q-15.95 6.35 -16.7 10.5 L-14.6 7.85 -12.9 6.3 -12.25 6.0 Q-11.9 5.95 -11.75 6.25 -11.55 5.45 -10.95 4.9 L-10.7 4.7 -9.9 4.3 -10.95 6.25 -11.25 7.1 Q-12.05 9.85 -12.1 10.9 L-12.15 12.0 -9.85 9.5 -9.25 9.15 Q-8.95 9.2 -8.85 9.7 -8.25 11.6 -8.4 14.0 L-7.0 12.55 -6.6 12.3 Q-6.35 12.3 -6.15 12.8 L-5.25 15.1 Q-3.15 13.95 -2.95 10.65 L-2.75 9.85 -2.7 9.8 -2.1 10.25 -0.65 11.75 Q0.15 12.7 0.85 14.55 L1.25 15.9 Q2.5 12.7 3.05 9.45 L3.8 9.35 Q5.75 9.75 6.65 11.55 L6.5 9.25 Q6.4 8.95 6.55 8.85 L7.2 8.9 8.55 9.2 Q9.65 9.4 11.0 10.65 L12.1 11.75 11.8 6.9 11.9 6.6 12.45 6.45 Q15.3 6.55 16.35 8.2 16.6 7.95 16.35 7.2 16.15 6.5 16.45 6.3 16.65 6.1 17.1 6.3 L18.8 6.85 18.15 4.15 Q17.55 2.65 16.4 2.05 L15.8 1.4 Q15.8 0.8 16.7 0.9 19.8 0.9 22.7 2.05 22.9 0.85 21.9 -0.25 21.3 -0.95 19.8 -1.85 19.55 -2.45 20.55 -2.85 L24.15 -3.35 23.65 -3.9 Q22.6 -4.85 21.25 -5.2 L20.9 -5.35 Q18.5 -6.15 15.85 -6.05 15.1 -6.05 14.95 -6.35 14.65 -6.85 15.45 -7.4 17.45 -8.9 19.95 -9.75 L19.2 -9.95 16.35 -9.6 16.1 -10.05 16.1 -10.4 M22.05 2.85 Q19.75 1.75 17.4 1.75 18.9 2.95 19.6 6.55 L19.5 7.4 18.3 7.55 17.1 7.25 17.25 8.4 17.0 8.9 16.45 9.05 15.75 8.6 Q14.45 7.2 12.55 7.35 13.1 9.9 12.7 12.5 L12.45 13.1 12.15 13.2 Q11.95 13.2 11.9 13.05 11.35 11.65 10.05 10.75 8.75 9.85 7.25 9.75 7.15 10.05 7.2 10.5 L7.4 11.3 7.25 12.1 Q7.05 12.5 6.7 12.45 6.3 12.45 5.8 11.5 4.95 10.15 3.4 10.15 L2.8 13.5 1.75 16.65 Q1.4 17.2 1.15 17.2 0.75 17.2 0.6 16.45 -0.35 12.45 -2.5 11.1 -2.85 13.1 -3.85 14.9 L-4.65 15.85 -5.85 15.8 -6.15 15.2 -6.8 13.5 Q-7.4 14.4 -8.4 14.8 -8.85 15.0 -9.05 14.8 L-9.2 14.1 Q-8.9 12.15 -9.5 10.25 L-12.2 13.3 Q-12.65 13.85 -13.05 13.6 L-13.25 12.95 -13.15 9.7 -12.55 7.35 Q-15.5 9.7 -16.75 12.35 L-17.1 12.9 -17.7 12.85 -17.8 12.45 Q-17.65 7.3 -14.9 2.95 L-17.2 3.45 -17.95 3.25 -17.9 2.65 -16.85 0.95 Q-18.95 1.1 -20.8 2.45 L-21.8 2.7 Q-22.2 2.45 -21.9 1.7 -20.95 -0.3 -17.45 -2.8 L-20.8 -2.65 Q-22.55 -2.0 -23.45 -0.55 -23.65 -0.1 -23.9 -0.1 -24.2 -0.05 -24.3 -0.4 L-24.35 -1.1 -23.2 -3.35 Q-21.95 -5.35 -20.9 -6.3 -19.35 -7.75 -17.6 -7.9 L-19.25 -8.4 -19.75 -8.8 -19.45 -9.3 Q-18.75 -9.9 -17.8 -10.15 L-18.6 -10.25 Q-19.1 -10.45 -18.95 -10.9 L-18.4 -11.25 Q-15.3 -12.25 -13.65 -11.9 -14.05 -13.2 -15.2 -13.9 L-15.75 -14.5 Q-15.75 -14.9 -14.95 -14.9 L-10.25 -14.1 -9.4 -13.9 -10.3 -14.75 -10.55 -15.15 -10.05 -15.5 Q-8.05 -15.8 -5.55 -14.0 L-5.65 -16.8 -5.6 -17.2 -5.05 -17.3 -4.05 -16.35 -2.5 -14.1 Q-2.1 -16.2 -0.95 -18.45 -0.7 -19.15 -0.25 -18.9 L-0.05 -18.5 0.55 -14.55 2.2 -16.25 2.9 -16.85 4.2 -17.8 4.7 -17.95 Q5.15 -17.8 4.9 -17.05 4.5 -15.8 4.4 -14.25 L8.3 -18.5 8.85 -18.9 9.45 -18.8 Q9.7 -18.55 9.45 -17.85 8.65 -16.05 8.45 -14.3 L10.35 -15.85 Q12.7 -17.5 15.35 -18.15 L15.85 -18.15 Q16.1 -17.95 15.75 -17.35 L13.8 -14.85 15.9 -15.1 16.65 -15.0 Q17.15 -14.8 17.15 -14.45 17.2 -14.0 16.7 -13.5 L16.2 -12.5 15.85 -12.4 17.7 -12.8 Q18.15 -12.9 18.25 -12.6 L18.1 -12.2 17.05 -10.8 21.35 -10.3 Q21.9 -10.2 21.95 -9.9 22.1 -9.5 21.65 -9.3 L20.95 -9.1 Q19.05 -8.9 16.0 -6.85 L21.55 -6.05 Q24.4 -5.1 25.25 -3.3 L25.3 -2.65 Q25.1 -2.25 24.25 -2.45 22.7 -2.75 21.05 -2.1 23.35 -0.8 23.6 1.8 23.7 2.8 23.2 3.05 L22.05 2.85" fill="#455d0c" fill-rule="evenodd" stroke="none"/>
    <path d="M5.25 -6.6 L8.3 -10.35 9.85 -11.75 Q10.2 -9.5 7.9 -7.1 6.3 -5.45 4.9 -5.65 L5.25 -6.6 M2.5 -8.3 L2.35 -10.8 2.5 -10.9 Q2.9 -10.85 2.95 -10.25 L3.2 -8.1 3.2 -8.05 2.5 -8.3 M-0.4 2.45 Q-0.35 -0.2 0.5 -2.7 L0.85 -3.15 Q2.6 1.35 1.85 6.65 L1.6 9.55 Q-0.3 6.45 -0.4 2.45 M6.35 2.45 L2.95 -0.55 3.0 -0.85 3.15 -1.1 3.9 -1.95 Q8.75 -0.45 10.15 4.6 10.55 6.0 10.35 7.55 8.85 4.75 6.35 2.45 M-3.7 -10.7 Q-0.05 -9.4 1.05 -5.65 L1.05 -5.4 Q-0.85 -6.05 -3.05 -7.75 -4.0 -8.45 -5.05 -8.95 L-8.25 -10.2 -8.5 -10.65 -8.5 -10.95 Q-7.35 -11.7 -5.85 -11.45 -4.65 -11.4 -3.7 -10.7 M13.85 -3.65 L12.5 -3.3 13.75 -2.0 13.55 -1.8 11.35 -1.35 12.35 0.6 Q11.35 0.8 10.35 -0.4 9.3 -1.5 7.7 -1.95 L6.25 -2.5 Q7.95 -4.55 11.55 -4.8 L13.7 -5.35 Q16.2 -5.7 17.6 -4.2 L17.15 -3.75 13.85 -3.65 M14.05 -9.4 Q13.25 -8.1 11.8 -7.85 L11.65 -7.8 10.2 -8.0 Q11.35 -10.25 14.05 -10.35 L14.05 -9.4 M-11.1 -6.25 L-8.9 -5.2 -6.8 -5.9 -6.05 -5.55 Q-8.75 -3.8 -11.8 -3.0 L-13.4 -2.4 -13.25 -2.8 Q-12.5 -3.95 -11.2 -4.4 -10.6 -4.5 -10.05 -4.75 -12.55 -6.0 -15.35 -6.05 L-15.7 -6.1 -16.05 -6.45 -11.1 -6.25 M-3.95 10.9 Q-3.95 11.55 -4.6 11.35 L-4.85 11.2 Q-5.2 7.7 -5.7 4.15 L-8.4 6.55 Q-8.0 3.3 -5.55 0.1 -7.4 0.0 -10.3 2.1 L-14.1 4.85 Q-10.45 -1.65 -3.25 -2.95 L-1.05 -2.6 Q-2.2 4.25 -3.95 10.9" fill="#86af1e" fill-rule="evenodd" stroke="none"/>
  </g>
</svg>
