<?xml version="1.0" encoding="UTF-8" standalone="no"?>
<svg xmlns:ffdec="https://www.free-decompiler.com/flash" xmlns:xlink="http://www.w3.org/1999/xlink" ffdec:objectType="shape" height="238.4px" width="391.6px" xmlns="http://www.w3.org/2000/svg">
  <g transform="matrix(1.0, 0.0, 0.0, 1.0, 196.7, 104.35)">
    <path d="M100.05 -104.35 L99.45 -102.05 95.2 -84.35 Q93.4 -77.25 90.65 -73.6 L89.3 -72.1 80.5 -61.2 80.35 -61.25 80.2 -61.7 Q80.95 -64.2 82.9 -66.8 L86.5 -71.0 83.2 -68.4 79.65 -65.7 76.8 -64.0 68.9 -59.55 66.65 -58.25 60.35 -53.85 57.25 -51.85 54.1 -50.05 51.9 -48.5 Q51.65 -48.2 50.8 -47.95 L49.7 -48.0 49.6 -48.3 49.8 -48.75 49.9 -48.9 55.4 -52.15 Q56.65 -52.9 57.95 -53.9 54.25 -56.8 52.3 -57.45 51.4 -58.25 46.55 -67.3 L46.55 -67.65 Q46.3 -66.85 46.2 -64.75 46.1 -62.7 46.25 -62.7 L46.65 -61.65 45.85 -61.45 45.2 -64.55 45.2 -64.7 45.3 -67.95 45.65 -69.05 Q46.4 -71.9 50.75 -76.5 53.8 -79.75 56.2 -81.55 L58.1 -83.7 59.95 -86.0 Q61.35 -88.8 61.5 -91.9 L61.65 -104.35 62.5 -104.35 Q62.5 -90.5 61.95 -88.0 61.55 -86.3 57.9 -81.9 L51.1 -75.5 Q46.8 -71.6 46.8 -69.5 46.8 -67.35 49.25 -63.4 51.5 -59.85 51.85 -59.85 L56.0 -56.05 56.85 -55.3 Q57.75 -54.7 58.9 -54.7 L60.05 -55.0 62.5 -56.8 Q64.45 -58.35 68.3 -60.45 L76.9 -65.2 78.65 -66.3 89.5 -74.7 Q92.4 -76.95 92.95 -77.95 L93.55 -81.3 Q94.1 -84.85 95.95 -89.9 96.65 -91.8 97.75 -97.55 L98.95 -104.35 100.05 -104.35 M120.25 -104.35 L121.5 -104.35 117.65 -95.25 Q117.95 -94.5 116.55 -87.35 L116.45 -86.95 117.05 -86.85 125.9 -86.55 Q134.1 -86.75 135.1 -89.15 138.25 -96.8 137.5 -104.35 L138.15 -104.35 137.85 -97.25 Q137.6 -94.55 137.15 -92.6 L135.6 -88.6 134.85 -87.65 140.35 -87.65 139.9 -88.6 139.5 -90.0 139.45 -90.0 140.35 -96.45 Q141.15 -101.65 140.75 -104.35 L141.4 -104.35 Q141.25 -96.4 140.65 -94.5 140.15 -92.75 140.15 -90.7 140.15 -89.1 140.95 -88.1 141.7 -87.2 142.75 -87.2 L152.6 -88.05 165.15 -87.2 Q169.95 -87.2 174.2 -88.5 179.1 -90.05 179.7 -92.45 179.95 -93.5 180.85 -95.15 181.7 -97.7 181.8 -104.35 L182.6 -104.35 181.75 -97.05 180.4 -92.5 179.6 -90.8 Q181.4 -91.05 184.0 -93.85 185.85 -95.8 187.5 -98.4 L189.1 -100.25 187.7 -97.55 187.05 -96.5 184.8 -92.85 183.5 -91.7 Q181.9 -90.25 179.5 -89.05 176.55 -87.75 172.2 -86.9 L166.95 -86.05 161.95 -86.35 154.1 -87.15 147.0 -86.75 137.1 -86.25 133.6 -86.15 123.25 -85.95 118.15 -85.95 116.95 -86.2 116.55 -81.35 115.8 -76.95 Q117.75 -78.15 125.8 -79.65 134.25 -81.3 139.15 -81.2 L142.25 -81.3 155.1 -80.55 165.3 -79.85 Q177.15 -79.85 182.55 -83.6 188.1 -87.45 190.55 -97.85 L193.05 -104.35 193.9 -104.35 Q189.7 -91.6 187.0 -86.55 184.9 -82.55 182.75 -81.85 178.65 -80.05 175.55 -79.55 L168.95 -78.75 164.75 -78.45 154.0 -79.4 143.65 -80.35 131.85 -79.8 125.55 -79.0 Q117.55 -77.55 116.25 -76.6 115.4 -76.0 111.7 -66.25 110.05 -62.0 104.4 -57.5 L98.4 -53.35 Q92.4 -48.6 86.75 -45.2 82.55 -42.65 81.6 -42.45 L79.35 -41.7 83.2 -44.2 Q96.0 -52.45 97.55 -53.65 L95.6 -53.55 Q92.1 -53.55 89.95 -56.25 90.25 -56.9 91.25 -56.9 L92.8 -56.0 Q94.35 -55.15 95.0 -55.15 102.85 -55.15 108.05 -62.25 111.8 -67.4 113.85 -75.8 L115.3 -80.7 Q115.85 -83.1 116.75 -92.35 117.1 -96.0 120.25 -104.35 M63.3 103.95 Q65.95 105.25 65.5 105.35 L65.5 105.4 65.55 105.5 65.45 105.55 64.95 105.55 Q61.55 105.55 54.4 100.6 47.4 95.7 43.3 90.65 L43.1 93.3 Q43.1 98.85 47.9 106.25 52.9 113.95 60.25 118.95 L60.4 119.35 59.85 119.45 Q59.0 119.5 57.0 118.1 53.1 115.3 47.7 108.1 41.65 100.05 41.65 92.9 41.65 91.6 42.7 87.6 43.75 83.65 43.75 77.75 43.75 67.65 39.35 59.85 38.3 58.0 36.85 52.2 L35.5 46.5 35.25 46.9 34.4 48.4 Q28.95 56.75 27.8 63.65 26.7 70.3 23.3 75.15 L22.85 75.55 Q24.15 73.95 25.3 69.35 L26.95 61.7 27.75 58.25 28.75 55.8 35.75 42.8 37.45 38.35 Q38.3 35.75 38.3 33.25 38.3 29.5 37.05 25.4 35.75 21.25 35.75 18.8 L36.5 13.75 37.2 8.4 37.15 4.35 Q35.45 8.95 34.05 10.85 32.25 13.35 29.85 13.35 28.2 13.35 25.7 12.2 23.05 10.95 22.65 9.7 L22.95 9.2 24.3 10.4 Q25.3 11.25 26.3 11.35 L27.85 11.65 29.5 11.9 Q31.85 11.9 33.25 9.6 34.05 8.2 35.5 3.8 38.85 -6.75 44.25 -11.85 L49.05 -16.1 57.4 -23.5 Q65.65 -30.95 68.95 -36.8 72.4 -42.95 73.8 -44.3 L74.7 -45.05 71.6 -39.05 70.15 -36.55 69.35 -35.2 69.3 -35.2 67.45 -33.25 Q63.15 -28.35 54.6 -20.25 L44.75 -11.0 Q39.95 -6.3 39.0 -3.5 38.1 -0.85 38.1 8.0 38.1 11.2 37.4 14.35 36.7 17.45 36.7 19.2 36.7 25.9 38.5 27.25 39.15 27.25 39.25 30.2 L39.2 33.85 Q39.2 36.6 37.9 40.5 36.6 44.4 36.6 46.65 36.6 50.9 40.65 61.4 44.7 71.85 44.7 77.3 L44.0 85.05 43.25 88.25 Q44.8 90.95 47.8 93.95 L53.35 99.2 Q59.05 104.5 63.3 103.95 M-81.55 99.0 L-82.1 99.05 -82.25 98.95 Q-82.15 98.35 -80.65 98.05 -81.3 98.4 -80.3 98.4 -77.25 98.4 -73.75 94.1 -71.3 91.1 -69.5 89.6 L-64.85 85.45 Q-63.85 84.5 -61.7 79.35 L-59.2 73.4 Q-55.45 67.85 -54.35 65.65 -52.65 62.3 -52.65 57.85 L-53.6 48.55 Q-53.6 42.55 -50.85 37.65 -48.25 33.0 -48.4 31.35 -48.9 25.3 -47.85 21.8 L-46.7 17.8 Q-46.7 12.1 -47.9 9.55 -50.5 4.2 -60.2 -3.1 L-62.9 -4.8 Q-66.55 -5.9 -71.45 -7.9 -75.35 -9.5 -75.8 -9.8 -77.3 -10.75 -79.0 -13.55 L-79.85 -16.2 Q-80.35 -18.3 -81.9 -20.85 -84.65 -25.35 -86.95 -27.85 L-91.55 -32.45 Q-93.05 -34.05 -94.55 -36.6 L-97.1 -40.75 Q-99.75 -44.25 -103.1 -46.25 L-105.85 -47.9 Q-105.85 -49.4 -135.7 -54.05 -137.7 -54.35 -140.5 -57.6 L-143.0 -60.75 -143.6 -62.95 Q-144.25 -65.35 -144.7 -66.05 L-145.25 -66.8 -145.75 -67.8 -146.65 -69.95 -148.25 -75.05 Q-149.05 -77.5 -150.0 -78.8 -152.35 -82.0 -160.0 -83.3 L-171.7 -84.1 Q-183.6 -85.65 -188.55 -90.05 -192.3 -93.35 -193.3 -96.6 L-195.65 -104.35 -194.9 -104.35 -194.4 -102.8 -193.15 -99.6 Q-193.1 -99.5 -193.35 -98.95 -193.5 -98.65 -192.9 -98.65 L-192.45 -97.0 Q-191.95 -95.2 -191.15 -93.95 L-191.0 -93.75 Q-184.15 -86.15 -168.0 -84.9 L-157.0 -83.85 Q-151.7 -82.8 -149.6 -79.9 -149.6 -89.65 -149.9 -90.0 L-153.7 -89.75 -163.0 -90.25 Q-169.25 -90.9 -174.3 -92.15 L-175.1 -92.35 -175.4 -92.4 Q-178.65 -93.05 -180.15 -93.65 -181.2 -94.0 -184.3 -96.35 -187.85 -99.05 -189.15 -100.95 L-190.85 -104.35 -189.7 -104.35 Q-187.1 -98.85 -184.2 -96.65 -180.6 -93.95 -172.9 -92.85 L-164.8 -91.45 -154.55 -90.55 Q-149.9 -90.55 -149.1 -91.5 -148.55 -92.2 -148.55 -96.8 L-148.95 -99.8 Q-149.45 -102.7 -149.65 -102.7 -150.25 -102.7 -150.15 -103.35 L-149.95 -104.35 -149.2 -104.35 -148.5 -99.8 -147.1 -104.25 -147.05 -104.35 -146.4 -104.35 -146.7 -102.05 -147.25 -100.05 -147.4 -99.5 Q-147.55 -97.2 -148.3 -94.8 -148.7 -93.45 -148.7 -82.5 -148.7 -79.05 -148.25 -77.3 -147.8 -75.35 -145.35 -68.95 L-145.1 -68.45 Q-145.05 -72.5 -144.5 -73.9 L-143.4 -74.9 -144.05 -69.25 Q-144.05 -59.2 -137.7 -56.1 -135.45 -55.0 -131.75 -54.5 L-125.75 -53.7 Q-119.3 -53.05 -113.55 -51.75 -102.4 -49.25 -99.9 -45.1 L-99.15 -44.25 Q-99.9 -46.0 -100.0 -47.35 L-99.8 -47.65 Q-99.1 -46.75 -95.55 -40.4 -92.3 -34.5 -89.95 -31.9 L-86.5 -28.4 -83.55 -25.5 -83.6 -26.95 -83.4 -30.45 -83.25 -35.9 Q-83.0 -35.95 -82.9 -36.1 -82.7 -35.3 -82.7 -32.1 L-82.75 -28.3 Q-82.75 -26.65 -82.0 -24.4 -80.35 -19.9 -78.65 -14.7 -77.75 -12.05 -68.85 -7.9 -59.85 -4.1 -59.35 -3.65 L-54.7 0.05 Q-51.55 2.6 -49.2 5.95 -47.1 9.0 -45.3 13.7 -43.05 19.6 -42.85 24.7 -43.3 24.25 -43.75 22.85 L-46.0 16.55 Q-47.8 26.45 -47.8 27.7 L-47.45 32.9 -48.1 34.9 -49.45 37.9 -51.4 40.6 Q-52.6 43.0 -52.6 47.45 L-52.05 52.1 Q-51.55 55.5 -51.55 57.45 -51.55 61.65 -53.05 65.6 -54.3 68.9 -56.15 71.0 -58.0 73.05 -59.15 76.0 L-61.6 82.8 Q-62.05 83.95 -69.95 91.35 -72.45 93.7 -73.45 95.85 -73.95 96.95 -75.05 96.95 L-76.95 97.95 -78.4 98.5 -78.5 98.45 Q-79.4 98.0 -80.4 98.9 L-81.05 98.9 -81.55 99.0 M-124.7 -104.35 L-124.0 -104.35 Q-122.75 -97.3 -120.85 -91.5 -117.25 -80.35 -111.4 -75.9 -107.25 -72.75 -95.85 -69.65 -86.1 -66.95 -82.9 -66.95 -74.3 -66.95 -68.7 -60.6 -66.85 -58.5 -64.95 -55.25 L-62.35 -50.7 Q-61.4 -49.25 -55.3 -44.85 L-47.9 -39.45 -47.45 -39.9 Q-52.25 -46.5 -54.2 -55.6 -56.4 -65.8 -58.8 -70.1 L-64.8 -80.25 -68.65 -85.5 -78.65 -99.65 Q-79.4 -100.8 -80.2 -104.35 L-79.05 -104.35 Q-78.65 -101.5 -75.9 -97.8 L-66.85 -84.95 -61.15 -76.4 Q-59.2 -73.25 -56.15 -66.2 -55.6 -69.95 -54.6 -71.6 L-52.85 -73.6 Q-50.85 -76.1 -50.8 -88.75 L-50.8 -88.95 -54.05 -88.75 Q-56.5 -88.85 -58.5 -91.0 -63.15 -95.9 -64.75 -98.4 L-68.5 -104.35 -66.9 -104.35 Q-61.95 -96.45 -59.6 -93.85 -55.95 -89.9 -52.05 -89.9 -50.55 -89.9 -50.3 -90.35 -50.05 -90.8 -50.05 -93.3 L-50.3 -96.2 -51.45 -104.35 -50.1 -104.35 -50.25 -104.05 -49.55 -95.8 -49.05 -90.7 Q-49.05 -88.85 -49.5 -84.05 L-50.15 -76.85 Q-48.2 -78.05 -44.0 -79.05 L-39.6 -80.0 Q-36.15 -81.05 -33.45 -84.55 -32.05 -86.35 -30.95 -88.45 L-30.25 -88.75 Q-30.45 -87.4 -31.1 -86.2 L-31.15 -86.1 -31.25 -85.95 Q-32.05 -84.6 -33.15 -83.3 -35.4 -81.15 -37.8 -79.6 L-42.5 -77.6 -44.45 -77.15 -45.05 -77.05 Q-49.65 -76.1 -52.1 -72.6 -54.85 -68.8 -54.85 -62.15 -54.8 -59.9 -54.1 -56.7 -52.7 -50.3 -49.4 -44.85 L-46.1 -38.95 Q-45.9 -38.3 -43.7 -36.2 L-41.9 -34.0 Q-38.1 -32.75 -36.05 -31.9 -32.6 -30.4 -31.7 -30.6 -30.5 -30.8 -23.95 -28.4 -16.95 -25.85 -12.75 -19.35 -8.8 -13.25 -9.95 -8.25 L-10.25 -7.85 -10.35 -7.8 Q-10.75 -8.05 -11.25 -11.4 -11.1 -19.05 -19.1 -24.65 -20.9 -25.9 -31.4 -29.2 -41.75 -32.5 -44.15 -34.25 L-43.25 -34.15 -46.5 -37.3 -46.55 -37.35 Q-49.2 -39.4 -52.05 -41.2 L-55.35 -43.35 -55.8 -43.65 Q-58.95 -45.7 -60.7 -47.2 -61.4 -47.75 -64.45 -49.6 L-69.25 -52.15 Q-71.45 -52.75 -72.5 -54.35 L-72.95 -55.45 -72.6 -55.95 Q-69.25 -53.85 -68.7 -53.7 L-66.4 -52.7 Q-64.2 -51.65 -62.8 -50.6 -66.55 -60.25 -75.35 -64.15 -80.2 -66.3 -84.9 -66.3 -86.75 -66.3 -88.65 -65.25 -91.1 -63.95 -91.65 -61.7 L-92.75 -61.65 -92.1 -63.35 Q-91.55 -64.7 -88.0 -66.65 L-91.75 -67.65 -96.45 -68.9 -97.7 -69.25 -102.7 -70.75 Q-103.25 -70.9 -106.9 -72.75 -110.6 -74.6 -111.25 -75.05 L-117.0 -79.9 Q-122.1 -84.8 -123.85 -86.8 L-124.05 -87.0 -124.95 -88.2 -125.65 -89.2 -127.35 -92.0 Q-128.5 -94.0 -130.35 -99.2 -128.45 -95.45 -126.2 -91.95 -121.9 -85.1 -117.3 -81.85 -120.85 -88.5 -122.6 -95.25 L-124.7 -104.35 M-3.85 -104.35 L-3.15 -104.35 -3.55 -95.85 -3.35 -92.2 -3.05 -88.25 -2.85 -88.1 Q0.35 -88.5 2.0 -95.15 3.2 -100.05 3.0 -104.35 L3.75 -104.35 3.45 -100.15 3.45 -100.0 3.45 -99.85 Q3.5 -98.0 2.5 -94.55 1.65 -91.45 1.2 -90.75 -0.05 -89.05 -1.4 -87.9 L-10.65 -81.75 Q-17.5 -77.1 -19.1 -74.45 L-19.7 -72.95 -19.9 -71.4 -19.8 -68.4 -20.1 -68.15 -20.45 -68.1 -20.9 -71.75 -20.9 -72.2 -20.5 -73.95 -18.8 -77.1 -16.4 -79.25 -14.35 -80.7 -12.65 -81.8 -12.6 -81.85 -10.3 -83.4 -10.2 -83.45 -5.25 -87.05 Q-4.0 -88.25 -4.1 -89.75 L-3.85 -104.35 M15.5 -104.35 L16.0 -104.35 14.05 -90.75 Q12.95 -85.6 10.85 -82.05 10.1 -80.8 4.75 -74.5 L-0.35 -68.45 Q-0.35 -65.7 7.8 -58.35 9.75 -56.6 9.85 -55.15 10.0 -53.55 15.8 -47.95 L17.85 -46.55 19.65 -45.35 Q28.4 -34.0 27.45 -34.0 L27.4 -33.7 Q27.45 -33.5 28.05 -33.5 L30.55 -35.3 Q33.05 -37.3 33.8 -38.45 35.75 -41.2 36.35 -43.55 36.7 -44.9 36.7 -47.45 L36.8 -49.45 Q36.8 -50.75 36.15 -50.75 36.0 -50.75 35.15 -54.45 L33.3 -63.4 Q32.9 -65.5 33.15 -68.15 L33.45 -71.1 Q33.45 -72.1 32.3 -75.5 L31.4 -79.9 31.05 -81.3 Q30.65 -85.45 29.55 -104.35 L30.0 -104.35 Q31.2 -91.75 32.1 -84.35 L32.15 -82.8 32.25 -82.8 Q33.05 -76.15 33.45 -74.4 L33.6 -73.8 Q35.2 -78.1 35.85 -80.9 36.55 -84.05 36.45 -87.05 36.9 -87.05 37.15 -86.55 L37.35 -84.7 36.1 -78.3 34.55 -74.1 Q33.3 -70.2 33.3 -67.5 33.3 -64.65 35.95 -54.05 L36.25 -53.1 Q37.15 -50.15 37.15 -47.65 37.15 -43.6 36.55 -41.8 L34.2 -37.7 Q32.65 -35.65 27.25 -32.3 21.6 -28.7 17.85 -24.35 16.0 -21.6 15.5 -20.45 L14.55 -17.75 13.55 -15.2 Q12.9 -13.5 12.65 -13.3 L12.15 -13.4 12.7 -16.2 Q13.4 -19.25 14.65 -21.9 18.55 -30.4 26.8 -33.45 24.85 -38.2 21.3 -42.25 17.6 -46.55 14.15 -47.55 10.0 -49.45 8.9 -49.65 7.0 -49.95 -3.0 -49.95 L-6.4 -50.45 Q-8.5 -51.0 -9.35 -51.7 L-8.85 -52.15 Q-8.65 -51.85 -5.5 -51.35 L-1.7 -50.9 -1.2 -51.0 2.55 -51.5 Q6.05 -51.8 10.8 -50.05 L13.85 -49.15 Q9.55 -55.0 4.85 -59.25 1.75 -62.1 -0.85 -67.3 -2.35 -65.85 -5.25 -61.55 -6.85 -59.15 -9.8 -58.45 L-11.45 -58.9 -9.05 -59.55 Q-7.45 -60.0 -6.65 -61.7 L-3.25 -66.55 Q0.5 -71.65 3.3 -74.2 9.55 -80.0 12.0 -87.85 13.5 -92.65 15.5 -104.35 M41.35 -104.35 L42.4 -104.35 41.9 -98.7 Q41.9 -81.0 44.5 -79.0 51.55 -82.45 54.35 -86.05 59.45 -92.6 58.05 -104.35 L58.8 -104.35 58.4 -96.15 Q58.1 -92.35 56.9 -88.75 L56.7 -88.1 56.5 -87.55 Q55.75 -85.8 53.9 -84.1 L51.55 -82.35 51.2 -82.2 49.9 -81.55 45.2 -78.35 Q43.75 -77.0 42.7 -75.2 41.85 -73.75 41.85 -73.2 L42.05 -71.8 42.25 -70.8 42.2 -70.65 Q41.95 -70.45 41.7 -70.4 41.45 -70.5 41.1 -71.4 40.75 -72.35 40.75 -73.05 40.75 -74.5 42.1 -76.6 L43.4 -78.5 Q43.4 -79.5 43.05 -79.3 L42.15 -84.65 41.4 -92.7 40.95 -99.0 41.15 -102.35 41.35 -104.35 M-39.7 67.15 L-39.3 66.95 -39.0 67.0 Q-38.85 67.05 -38.85 67.7 -38.85 77.0 -42.95 87.25 -46.95 97.05 -51.9 101.1 L-64.95 112.25 Q-68.65 115.05 -74.9 115.65 -75.3 115.55 -75.55 115.15 L-75.6 114.85 Q-69.05 114.65 -63.15 109.75 L-52.5 99.7 Q-46.0 94.0 -42.5 82.9 -40.1 75.1 -39.7 67.15 M3.35 46.15 L3.3 42.95 3.75 45.95 4.25 49.9 4.55 54.7 Q4.55 56.95 2.95 70.55 L-2.25 82.25 Q-5.0 87.35 -7.95 90.35 L-11.25 93.5 Q-14.2 96.0 -16.75 99.5 -18.05 101.25 -20.95 105.9 L-21.1 106.2 -24.65 114.3 -26.1 118.65 Q-26.4 119.0 -26.45 117.95 -24.0 108.4 -19.85 102.15 -17.35 98.35 -9.65 90.1 -0.75 80.6 2.05 67.9 3.95 59.45 3.35 46.15 M18.8 121.15 L18.2 120.9 15.5 116.75 Q15.0 115.95 14.4 112.65 13.85 109.7 13.85 109.0 L14.05 103.05 14.55 102.25 14.9 102.15 Q15.15 102.55 14.8 108.9 14.8 114.5 17.15 117.95 L19.65 121.15 Q19.55 121.45 18.8 121.15" fill="#382c25" fill-rule="evenodd" stroke="none"/>
    <path d="M99.45 -102.05 L100.05 -104.35 100.3 -104.35 Q97.7 -89.5 96.25 -83.65 93.85 -74.0 89.4 -69.5 88.2 -68.3 86.55 -65.85 L85.15 -63.6 Q85.15 -61.75 87.0 -61.75 L100.15 -67.9 102.1 -69.05 105.0 -71.6 Q105.95 -72.55 106.4 -75.7 L106.15 -78.05 104.9 -78.2 Q104.2 -78.2 103.45 -77.8 106.6 -86.15 107.8 -93.4 108.9 -99.75 108.35 -104.35 L115.45 -104.35 114.0 -99.0 Q112.8 -94.85 112.5 -94.85 L109.45 -84.7 108.45 -80.75 108.65 -79.35 Q109.4 -78.85 112.4 -79.75 112.6 -76.3 110.6 -73.1 L107.3 -68.9 105.5 -66.2 Q105.15 -65.75 101.7 -63.05 100.1 -61.85 91.5 -61.3 90.45 -61.25 88.6 -60.3 86.55 -59.25 86.55 -58.3 L83.9 -55.2 Q81.15 -52.25 79.9 -51.4 L78.4 -50.35 Q77.5 -49.85 77.9 -50.8 L77.5 -51.7 Q77.2 -52.35 76.7 -52.35 74.95 -52.35 70.8 -48.5 65.8 -43.85 63.85 -38.2 L63.0 -37.45 63.9 -45.8 Q64.35 -45.35 65.5 -45.35 67.35 -45.35 75.75 -54.85 75.75 -56.9 73.9 -56.75 L77.1 -58.85 80.35 -61.25 80.5 -61.2 89.3 -72.1 90.65 -73.6 Q93.95 -77.4 94.7 -79.15 L96.1 -85.3 99.45 -102.05 M61.65 -104.35 L61.5 -91.9 Q61.35 -88.8 59.95 -86.0 L56.2 -81.55 Q53.8 -79.75 50.75 -76.5 46.4 -71.9 45.65 -69.05 45.05 -68.9 44.6 -68.1 L45.25 -67.95 44.3 -64.45 44.15 -65.9 44.25 -67.5 43.75 -66.3 Q42.95 -63.95 42.95 -61.5 42.95 -53.8 45.15 -50.05 47.0 -47.0 49.9 -47.0 50.8 -47.0 50.8 -47.95 51.65 -48.2 51.9 -48.5 L54.9 -50.45 54.1 -50.05 57.25 -51.85 60.35 -53.85 66.25 -57.5 63.65 -49.25 62.25 -49.5 Q61.8 -49.5 61.35 -48.85 L59.55 -46.25 Q60.5 -48.05 60.5 -48.95 L60.25 -50.8 59.9 -50.9 59.05 -51.05 Q52.9 -51.05 48.15 -38.2 L48.4 -37.25 50.2 -37.1 Q52.4 -37.1 57.55 -43.5 54.65 -38.5 48.85 -32.1 43.75 -26.45 43.1 -26.45 41.85 -26.45 38.05 -21.45 34.5 -16.85 33.55 -14.65 32.15 -11.35 30.8 -6.75 L29.1 -1.3 26.85 -2.2 25.15 -1.15 Q25.4 -0.6 24.9 1.5 L23.75 1.55 Q21.9 1.55 18.75 -0.5 17.05 -1.6 14.0 -4.4 14.25 -4.65 13.25 -4.65 12.5 -4.65 12.05 -3.95 11.75 -3.45 11.75 -3.0 11.75 -0.05 14.05 9.4 16.35 18.85 16.35 21.55 L16.25 31.2 Q16.05 40.7 15.45 43.9 14.45 49.3 13.05 53.9 11.95 57.6 11.95 58.05 11.95 59.25 12.4 59.65 L13.3 59.9 14.2 59.75 14.6 59.3 26.65 40.2 32.15 33.55 Q33.75 34.7 33.75 37.1 33.75 43.1 32.15 47.15 L28.45 54.15 Q32.15 42.05 31.8 41.4 31.5 40.75 30.95 40.75 29.35 40.75 27.95 42.25 26.2 44.15 23.85 49.25 19.55 58.45 17.7 64.9 15.85 71.15 15.85 76.55 15.85 78.35 17.25 78.35 20.0 78.35 26.35 60.8 L28.35 55.25 28.45 55.45 28.75 55.8 27.75 58.25 26.95 61.7 26.0 62.85 Q25.55 63.7 24.65 66.35 L22.6 71.25 Q20.75 76.5 20.75 81.5 20.75 90.3 22.7 90.3 L23.65 90.05 24.1 89.4 Q28.9 72.25 34.35 72.1 35.35 77.4 35.2 79.4 L34.8 90.05 35.25 94.55 36.05 99.6 Q36.8 102.6 39.4 108.5 L41.85 113.8 Q41.85 118.4 38.3 118.4 33.5 118.4 30.6 114.5 28.75 111.95 26.85 105.95 24.8 99.4 23.65 97.4 21.35 93.5 17.55 93.5 15.8 93.5 14.1 95.5 11.7 98.35 11.7 103.95 11.7 106.95 15.4 121.45 15.4 121.95 14.25 122.35 L12.15 122.75 Q5.45 122.75 4.65 114.75 L4.4 109.2 Q4.2 106.7 3.15 106.7 0.7 106.7 -1.2 111.9 L-3.15 118.6 Q-3.45 119.5 -5.45 121.75 L-7.4 123.95 Q-7.4 124.6 -9.05 124.75 L-11.45 124.8 Q-13.95 124.8 -17.0 123.15 -20.15 121.5 -20.15 120.05 -20.15 114.05 -11.7 106.0 L-2.35 98.4 Q0.75 96.1 3.65 92.75 9.4 86.2 10.5 79.0 L10.3 77.75 8.7 77.45 4.7 83.3 Q0.0 90.1 -6.35 94.05 L-12.45 98.05 Q-14.5 99.65 -20.2 105.1 L-16.3 99.85 -11.25 93.5 -7.95 90.35 Q-5.0 87.35 -2.25 82.25 1.35 76.9 2.95 70.55 4.55 56.95 4.55 54.7 5.5 50.8 5.5 49.8 L4.45 44.1 Q3.35 38.4 3.35 30.3 3.35 27.7 4.15 25.45 4.9 23.2 4.9 21.75 L4.85 20.25 4.7 20.15 3.95 20.0 2.8 20.75 Q1.55 21.8 0.45 23.35 -2.95 28.15 -2.95 35.8 L-2.3 44.5 -1.65 51.1 Q-1.65 63.0 -5.3 71.6 -7.9 77.65 -14.55 86.05 L-20.4 91.3 Q-24.95 95.1 -26.1 97.35 L-29.55 105.2 Q-31.85 110.85 -33.4 113.75 -38.65 123.4 -46.0 123.7 -44.5 121.1 -43.75 118.15 L-42.05 110.65 -39.8 105.15 Q-37.9 100.9 -37.65 100.9 -36.25 100.9 -33.8 93.45 L-34.05 91.85 -35.05 91.7 Q-40.75 96.1 -49.0 109.95 -52.5 115.75 -54.35 117.95 -57.15 121.3 -59.7 121.3 -61.1 121.3 -61.9 120.15 -62.5 119.25 -62.5 118.1 -62.5 115.85 -61.0 114.0 -59.85 112.6 -59.4 112.6 L-56.75 110.35 Q-53.9 107.8 -51.35 105.25 L-47.85 101.15 Q-44.75 97.1 -43.05 93.75 -41.7 91.0 -40.55 87.35 -39.45 84.0 -39.1 81.7 L-37.7 62.05 Q-36.55 44.35 -35.8 40.55 -33.7 33.2 -32.9 31.45 -31.9 29.25 -27.15 26.1 L-19.65 20.45 -17.55 18.8 Q-15.75 17.2 -14.6 15.35 L-11.5 9.9 Q-9.3 5.85 -9.3 5.15 -9.3 3.25 -10.5 3.25 -11.2 3.25 -11.5 3.55 L-14.25 6.45 -16.4 8.9 Q-18.25 10.9 -21.45 13.6 -23.25 15.15 -25.45 16.5 -28.35 18.25 -29.6 18.05 -30.4 18.7 -30.4 17.7 -28.05 9.6 -28.05 6.15 -28.05 4.25 -28.85 0.95 -29.7 -2.4 -30.25 -2.4 -30.95 -2.4 -30.95 -2.75 L-30.8 -3.85 Q-30.8 -5.9 -34.85 -8.0 L-40.15 -9.75 -46.4 -11.65 Q-54.2 -14.15 -60.25 -16.95 -71.65 -22.25 -72.35 -26.55 -75.2 -29.75 -76.45 -34.8 -77.65 -39.75 -78.2 -40.3 -78.45 -44.5 -81.65 -49.6 -83.55 -52.65 -85.05 -54.15 L-85.15 -54.3 -85.2 -54.35 -85.25 -54.35 -85.4 -54.45 -85.8 -54.95 -86.0 -54.95 -86.05 -54.05 -86.7 -54.3 -85.95 -53.6 Q-85.4 -51.95 -84.8 -49.2 -83.95 -45.45 -83.95 -43.6 -83.95 -37.6 -86.35 -37.6 -86.95 -37.6 -98.35 -52.4 L-99.9 -53.55 -101.2 -54.15 -102.6 -55.7 Q-104.1 -57.15 -106.1 -58.0 -109.7 -59.5 -120.3 -62.4 -129.35 -65.55 -130.6 -70.1 L-133.25 -80.85 Q-134.55 -85.85 -135.8 -87.15 L-135.9 -87.2 Q-136.45 -87.3 -136.85 -86.9 -136.35 -85.6 -136.65 -81.55 -137.0 -77.65 -137.65 -76.15 L-138.15 -77.55 -138.75 -76.15 -141.8 -83.05 Q-144.65 -90.15 -144.15 -93.45 L-146.4 -93.4 -146.4 -95.5 Q-146.45 -99.25 -146.6 -99.6 L-147.25 -100.05 -146.7 -102.05 -146.4 -104.35 -140.75 -104.35 Q-141.45 -102.95 -142.3 -98.85 -143.15 -94.95 -143.15 -93.25 -143.15 -89.6 -141.75 -86.9 -140.7 -84.95 -140.25 -84.95 -138.3 -84.95 -137.65 -88.05 -137.25 -90.2 -137.1 -96.75 L-137.1 -97.1 -136.6 -93.85 Q-136.4 -92.3 -135.8 -92.3 L-135.1 -90.95 Q-134.5 -89.6 -133.55 -89.6 L-130.65 -90.0 Q-130.1 -90.4 -130.1 -91.75 -130.1 -93.9 -131.15 -98.2 -132.25 -102.65 -133.3 -104.35 L-131.9 -104.35 Q-131.7 -101.4 -131.3 -99.75 -130.6 -97.0 -127.35 -91.8 L-126.8 -90.6 -124.95 -88.2 -124.05 -87.0 -123.85 -86.8 Q-122.1 -84.8 -117.0 -79.9 L-111.25 -75.05 Q-110.6 -74.6 -106.9 -72.75 -103.25 -70.9 -102.7 -70.75 L-97.7 -69.25 -96.45 -68.9 -91.9 -67.55 -95.2 -65.0 Q-96.4 -63.85 -96.4 -62.45 -96.4 -61.05 -95.9 -60.5 -95.45 -60.0 -94.4 -60.0 -93.6 -60.0 -88.6 -62.2 -83.6 -64.45 -81.95 -64.45 -78.35 -64.45 -75.75 -59.55 -73.1 -54.45 -72.5 -54.35 -71.45 -52.75 -69.25 -52.15 L-60.7 -47.2 Q-58.95 -45.7 -55.8 -43.65 L-55.35 -43.35 -46.55 -37.35 -49.45 -37.3 Q-52.2 -37.35 -53.9 -38.15 -63.65 -42.5 -65.55 -42.45 -64.15 -40.8 -60.1 -38.65 -56.2 -36.55 -54.0 -36.1 L-54.15 -36.15 -53.5 -36.0 -44.15 -34.25 Q-41.75 -32.5 -31.4 -29.2 -20.9 -25.9 -19.1 -24.65 -11.1 -19.05 -11.25 -11.4 -12.15 -10.9 -12.15 -9.7 -12.15 -8.05 -11.2 -6.3 L-7.3 -0.15 Q-5.9 2.05 -6.3 4.1 -6.5 5.15 -7.0 6.05 -7.0 6.7 -6.6 7.1 L-5.55 7.8 Q-6.2 7.95 -5.2 7.95 -3.45 7.95 -1.05 3.75 1.8 -1.1 6.05 -2.85 10.15 -4.55 12.0 -7.6 13.75 -10.55 13.55 -15.2 L14.55 -17.75 15.95 -21.2 17.85 -24.3 Q20.0 -24.65 22.3 -26.7 L25.1 -29.25 Q19.95 -22.95 17.65 -18.15 15.4 -13.5 15.4 -9.3 15.4 -8.35 16.2 -7.6 16.9 -6.95 17.45 -6.95 18.2 -6.95 19.6 -9.75 22.05 -14.6 26.95 -20.45 26.2 -15.05 26.2 -13.8 26.2 -8.85 26.85 -7.45 27.3 -6.4 28.8 -6.4 30.05 -6.4 30.2 -6.85 L30.3 -9.25 Q31.05 -15.35 38.35 -26.05 L45.15 -36.1 Q49.7 -42.85 49.85 -43.35 L49.6 -45.25 48.15 -45.5 43.2 -41.35 35.7 -35.7 Q39.15 -38.2 40.3 -42.45 40.95 -44.95 40.95 -49.9 40.95 -51.9 39.55 -57.3 38.1 -62.7 38.1 -64.75 L38.95 -74.2 Q38.95 -76.35 36.2 -75.35 L35.1 -74.55 Q36.2 -77.9 36.7 -80.2 37.7 -84.3 38.2 -85.3 38.1 -81.4 38.3 -81.0 38.75 -81.05 39.2 -80.6 41.1 -82.2 41.15 -83.35 L40.95 -84.2 Q41.55 -84.2 41.55 -87.4 L41.4 -92.7 42.15 -84.65 Q41.4 -81.95 40.75 -78.45 39.95 -74.25 39.95 -71.9 39.95 -69.85 40.4 -68.95 L41.1 -68.1 42.2 -70.65 42.25 -70.8 45.2 -78.35 49.9 -81.55 51.2 -82.2 Q55.45 -82.8 57.45 -86.75 59.9 -91.65 60.85 -104.35 L61.65 -104.35 M76.8 -64.0 L79.65 -65.7 74.85 -60.1 71.3 -56.7 69.75 -56.7 70.05 -57.75 Q69.8 -58.6 69.15 -59.3 L76.8 -64.0 M138.25 -104.35 L140.75 -104.35 Q141.15 -101.65 140.35 -96.45 L139.45 -90.0 137.15 -92.6 Q137.6 -94.55 137.85 -97.25 138.3 -101.25 138.25 -104.35 M183.4 -104.35 L184.4 -104.35 183.65 -102.8 183.4 -104.35 M189.7 -104.35 L193.05 -104.35 190.55 -97.85 Q186.3 -89.65 178.05 -86.2 170.3 -83.0 156.4 -83.0 L150.7 -83.5 149.2 -83.2 147.5 -82.85 132.1 -83.6 125.5 -83.25 Q122.75 -83.4 118.15 -85.95 L123.25 -85.95 Q124.1 -85.45 127.6 -84.9 L132.9 -84.35 151.2 -85.2 161.95 -86.35 166.95 -86.05 Q170.6 -86.2 174.5 -87.25 177.3 -88.05 179.5 -89.05 181.9 -90.25 183.5 -91.7 L184.8 -92.85 187.05 -96.5 187.7 -97.55 189.1 -100.25 187.5 -98.4 189.7 -104.35 M-194.9 -104.35 L-191.05 -104.35 -189.15 -100.95 -189.55 -100.5 -189.65 -99.7 Q-189.65 -97.25 -186.7 -95.05 -183.7 -92.85 -179.65 -92.4 -187.3 -92.45 -190.2 -95.95 L-191.75 -98.4 Q-192.4 -99.55 -193.1 -99.6 L-194.4 -102.8 -194.9 -104.35 M-149.15 -104.35 L-148.6 -104.35 Q-148.9 -104.35 -148.8 -103.3 L-148.8 -102.25 -149.15 -104.35 M-147.15 -104.35 L-147.05 -104.35 -147.1 -104.25 -147.15 -104.35 M-72.65 -104.35 L-68.5 -104.35 -64.75 -98.4 Q-63.15 -95.9 -58.5 -91.0 L-58.25 -87.7 -58.25 -87.25 Q-61.9 -89.75 -62.15 -90.0 -66.5 -94.2 -72.65 -104.35 M-43.45 -104.35 L-40.5 -104.35 -40.9 -102.0 Q-40.9 -101.5 -40.5 -101.25 -40.15 -101.05 -40.15 -100.55 -40.15 -98.8 -41.3 -94.85 L-42.5 -90.95 Q-42.5 -89.8 -42.15 -89.25 -41.5 -88.25 -39.6 -88.25 -36.4 -88.25 -33.5 -92.9 -30.5 -97.7 -29.9 -104.35 L-26.95 -104.35 Q-27.45 -99.45 -27.9 -96.35 -28.75 -90.6 -29.9 -88.6 L-30.3 -89.35 Q-30.65 -89.75 -31.65 -89.75 -32.05 -89.75 -34.85 -87.95 -37.65 -86.2 -38.9 -86.2 L-40.35 -85.8 Q-41.3 -85.45 -41.8 -85.45 -44.6 -85.45 -44.6 -89.6 L-43.3 -95.05 Q-42.25 -101.0 -43.45 -104.35 M-17.1 -104.35 L-13.45 -104.35 Q-13.5 -97.0 -12.55 -93.95 -11.55 -90.85 -11.55 -87.8 -11.55 -86.7 -12.15 -84.5 L-12.75 -82.45 -12.7 -81.85 -14.35 -80.7 -16.4 -79.25 -18.8 -77.1 -20.5 -73.95 -20.9 -72.2 -21.1 -71.8 -21.85 -71.9 -21.3 -68.7 -20.8 -67.15 Q-20.05 -65.45 -17.6 -63.0 -14.9 -60.35 -12.4 -59.2 -12.55 -58.5 -12.25 -58.2 -11.65 -57.6 -8.8 -57.65 L-2.95 -56.55 Q1.35 -55.7 4.7 -52.45 L3.35 -52.05 2.55 -51.5 -1.2 -51.0 -1.7 -50.95 Q-3.65 -54.2 -5.65 -54.2 L-10.0 -54.4 -14.1 -56.2 Q-17.35 -57.6 -18.2 -57.6 -20.1 -57.6 -20.1 -55.5 -20.1 -52.55 -14.75 -48.9 L-8.4 -45.2 Q-4.3 -42.85 -0.6 -38.6 3.9 -33.5 3.0 -30.25 L2.85 -29.4 Q-4.95 -32.75 -16.75 -34.3 -27.3 -35.7 -30.8 -37.85 -32.85 -39.1 -36.6 -40.75 -39.7 -42.7 -41.75 -47.25 -46.4 -57.5 -46.4 -61.9 -46.4 -64.75 -40.9 -66.1 -34.2 -67.75 -30.8 -69.8 L-37.85 -64.75 Q-40.45 -62.15 -40.45 -58.2 -40.45 -52.1 -35.6 -47.55 -33.15 -45.25 -26.05 -41.15 L-17.4 -37.15 -15.15 -36.95 -14.25 -37.4 Q-11.2 -37.4 -9.0 -36.15 -6.8 -34.9 -4.8 -34.9 L-3.65 -35.05 -3.5 -35.5 Q-3.35 -35.9 -3.35 -36.5 -3.35 -37.15 -6.35 -39.7 L-9.4 -42.2 -12.2 -43.05 Q-15.85 -44.3 -19.35 -46.3 -25.4 -49.8 -27.2 -51.8 -28.7 -53.5 -29.6 -57.35 L-26.2 -58.2 Q-23.9 -58.85 -23.9 -59.75 -23.9 -60.0 -24.8 -61.15 -25.7 -62.3 -25.7 -63.4 L-23.6 -67.95 Q-21.55 -72.55 -21.55 -73.55 L-21.75 -75.35 Q-22.25 -77.25 -23.65 -78.3 L-23.55 -78.5 -23.45 -79.5 Q-23.45 -80.8 -24.15 -81.15 -24.95 -81.5 -26.7 -80.75 -22.1 -85.25 -20.6 -88.4 -18.25 -93.3 -17.1 -104.35 M4.35 -104.35 L11.2 -104.35 Q9.75 -100.95 6.4 -91.0 4.4 -85.15 1.85 -82.05 -2.45 -76.7 -9.2 -74.6 L-13.1 -73.5 Q-14.6 -72.95 -14.6 -72.0 L-14.5 -70.85 -13.1 -68.4 Q-16.0 -68.05 -17.8 -70.05 -18.8 -71.15 -19.7 -72.95 L-19.1 -74.45 Q-17.75 -76.35 -16.4 -77.35 L-13.15 -79.75 -14.65 -76.5 -14.6 -75.9 Q-14.5 -75.55 -13.85 -75.55 -10.4 -75.55 -0.5 -83.0 2.35 -86.55 3.35 -89.85 4.6 -93.9 4.6 -101.65 L4.35 -104.35 M36.45 -104.35 L36.65 -104.35 36.75 -103.4 36.45 -104.35 M40.95 -104.35 L41.35 -104.35 41.15 -102.35 40.95 -104.35 M16.35 -40.25 Q16.35 -38.95 15.05 -36.05 13.95 -33.5 12.7 -31.65 L12.2 -31.05 Q13.1 -34.3 8.35 -40.85 4.75 -45.8 2.45 -47.6 L1.7 -48.35 Q7.75 -48.5 12.25 -45.75 16.35 -43.2 16.35 -40.25 M-28.85 -79.4 Q-31.15 -77.2 -33.5 -75.95 -37.65 -73.7 -45.75 -72.75 L-44.45 -77.0 -43.35 -77.2 -44.15 -76.6 -44.7 -75.9 Q-44.7 -74.1 -42.6 -74.1 -39.15 -74.1 -28.85 -79.4 M-11.25 -11.4 L-11.6 -12.45 -11.25 -11.4 M5.9 -20.75 L6.1 -20.3 6.3 -19.55 Q4.35 -21.45 1.25 -22.7 -3.5 -24.6 -6.2 -26.1 L-7.35 -26.95 Q-3.45 -26.9 -0.05 -25.2 2.95 -23.7 5.9 -20.75 M-10.85 40.1 Q-10.85 45.85 -9.9 49.1 -9.05 52.15 -7.65 52.15 -5.65 52.15 -4.95 49.85 -4.45 48.3 -4.25 43.8 -3.7 31.7 -1.1 25.1 L3.85 14.25 8.2 4.8 7.95 3.35 Q8.3 3.1 7.3 3.1 -1.3 7.15 -4.3 12.45 -7.1 17.4 -8.85 24.1 -10.85 31.85 -10.85 40.1 M7.25 31.75 Q7.25 45.35 7.85 49.05 8.45 52.95 10.85 54.15 14.35 50.65 14.35 36.35 14.35 32.2 13.5 27.0 12.2 19.5 9.9 17.95 8.95 18.95 8.15 22.85 7.25 27.1 7.25 31.75 M11.7 98.35 L11.4 96.25 Q10.85 94.15 9.4 94.15 7.4 94.15 6.3 96.7 5.25 99.2 5.25 103.9 5.25 110.25 6.95 114.8 8.5 118.9 10.15 118.9 L11.8 118.7 11.65 114.4 11.1 108.45 11.7 98.35 M26.75 93.8 Q26.75 103.55 30.0 109.4 32.4 113.65 34.15 113.65 37.45 113.65 37.45 112.1 37.45 111.5 36.65 109.45 L34.95 104.9 Q33.75 101.4 33.15 98.25 32.55 95.1 32.55 88.65 32.55 85.2 30.05 85.2 28.25 85.2 27.55 86.7 26.75 88.5 26.75 93.8 M-17.1 118.75 Q-17.1 119.25 -16.7 119.75 -16.3 120.2 -16.3 120.7 -16.3 121.35 -15.85 121.35 L-14.7 121.25 Q-9.5 121.25 -5.2 115.05 L-1.9 108.8 Q-1.1 108.8 0.5 103.4 L0.25 101.8 Q-2.7 101.25 -10.15 109.7 -17.1 117.6 -17.1 118.75 M-174.3 -92.15 L-175.55 -92.25 -175.1 -92.35 -174.3 -92.15 M-128.3 -88.65 Q-129.75 -88.65 -129.75 -86.85 -129.75 -76.4 -123.0 -70.05 -118.4 -65.75 -110.25 -63.15 L-106.65 -62.0 -104.75 -61.05 Q-102.85 -59.85 -100.8 -57.85 -99.35 -56.45 -98.7 -56.45 -97.45 -56.45 -97.2 -57.9 -96.9 -60.05 -99.05 -64.8 -101.95 -69.2 -103.25 -69.5 -107.15 -70.35 -109.05 -71.35 -113.8 -73.9 -121.15 -81.65 -127.7 -88.65 -128.3 -88.65 M-83.85 -63.85 L-86.55 -62.8 Q-87.15 -62.8 -87.25 -62.45 L-87.55 -61.6 Q-87.75 -62.0 -87.75 -61.0 -87.75 -60.85 -86.95 -60.45 -85.55 -59.8 -83.65 -58.45 -82.6 -57.75 -81.1 -54.85 L-79.2 -50.8 -76.9 -46.6 -74.45 -39.0 Q-71.95 -31.05 -62.6 -24.4 -55.1 -19.05 -52.05 -19.05 -50.1 -19.05 -50.1 -20.2 L-49.95 -21.2 -50.3 -21.55 Q-52.45 -22.8 -57.15 -27.45 -66.0 -36.2 -69.15 -44.4 -65.25 -44.05 -63.8 -46.15 L-67.4 -48.45 Q-71.15 -50.75 -73.3 -53.5 -75.6 -56.4 -78.55 -60.85 -80.95 -63.85 -83.85 -63.85 M-94.75 -59.3 L-95.05 -55.85 Q-95.05 -53.1 -91.9 -49.0 -89.1 -45.4 -88.5 -45.4 -87.6 -45.4 -87.15 -45.75 -86.35 -46.35 -86.35 -48.05 -86.35 -49.85 -88.45 -53.7 -90.25 -56.9 -91.45 -58.3 L-92.65 -59.45 -94.75 -59.3 M-51.65 -21.1 L-51.55 -21.1 -51.4 -20.8 -51.65 -21.1 M-51.8 -20.1 L-51.9 -19.95 -51.2 -19.25 -51.3 -19.25 Q-52.0 -19.5 -52.3 -20.15 L-52.15 -20.15 -51.9 -19.95 -52.0 -20.1 -51.8 -20.1 M-138.65 -75.95 L-137.85 -76.35 -137.7 -76.1 Q-138.65 -75.95 -138.05 -75.35 L-138.65 -75.95 M-15.55 -2.0 Q-15.55 -17.65 -26.9 -23.85 -30.8 -26.0 -38.65 -28.4 L-52.4 -32.75 -54.05 -32.4 Q-54.25 -32.3 -54.25 -31.3 -54.25 -30.6 -51.35 -28.55 -45.75 -24.6 -38.1 -17.4 -35.3 -14.75 -32.45 -10.5 -30.25 -7.2 -29.8 -7.2 -28.9 -7.2 -28.5 -7.5 -27.7 -8.25 -27.2 -10.8 -23.75 -2.4 -23.5 3.4 L-23.4 11.55 -22.15 11.8 Q-20.5 11.8 -18.35 8.6 -15.55 4.4 -15.55 -2.0 M-34.95 -29.9 L-35.6 -30.2 -36.55 -30.4 -36.6 -30.4 -34.95 -29.9 M-26.55 -26.95 Q-26.3 -26.95 -21.0 -24.8 L-22.2 -25.5 Q-23.15 -26.1 -24.9 -26.55 L-26.75 -27.0 -26.55 -26.95 M-36.75 78.85 Q-36.75 80.75 -35.4 80.75 -34.2 80.75 -31.9 75.1 -30.1 70.55 -26.9 60.45 -25.85 52.6 -24.65 46.95 -22.4 36.3 -16.1 28.8 L-10.1 19.95 Q-6.5 14.45 -6.5 12.95 L-6.6 11.05 Q-8.2 10.9 -9.9 12.8 L-13.6 17.8 -17.7 21.6 Q-22.05 25.75 -24.45 29.05 -29.4 35.85 -30.55 38.45 -32.6 43.25 -33.25 52.75 -33.4 55.3 -35.15 65.85 -36.75 75.6 -36.75 78.85 M-13.15 28.45 Q-15.65 30.7 -18.95 40.95 -20.1 44.55 -20.7 49.55 L-21.25 54.6 Q-24.6 64.8 -27.7 71.9 L-30.1 77.05 Q-30.1 78.05 -29.95 77.65 -27.05 76.25 -21.7 68.1 -16.75 60.6 -15.5 56.7 -14.85 54.6 -13.7 42.7 -12.65 31.6 -12.65 29.15 L-12.75 28.5 -13.15 28.45 M-45.95 50.25 L-46.5 50.9 Q-45.75 47.85 -45.75 43.65 -45.7 42.55 -41.4 35.2 L-40.45 34.25 -42.55 41.8 Q-44.35 48.2 -45.95 50.25 M-60.8 90.15 L-62.25 90.55 -57.15 87.6 Q-55.2 83.3 -53.0 77.5 L-50.85 72.15 Q-49.85 70.5 -46.95 68.45 L-45.55 67.55 Q-47.3 70.45 -50.1 78.95 -53.65 86.75 -60.8 90.15 M-28.3 90.15 L-26.95 90.45 Q-25.35 90.45 -22.0 88.15 -17.4 85.0 -13.3 79.45 -9.85 74.7 -8.1 70.65 -5.5 64.65 -5.5 58.2 -5.5 56.95 -6.35 56.15 -7.05 55.5 -7.85 55.5 -9.75 55.5 -14.05 63.25 L-20.75 75.05 -26.5 83.0 Q-28.9 86.95 -28.3 90.15 M-29.5 101.25 Q-28.9 101.25 -28.15 99.9 L-27.15 97.9 -26.7 97.45 -26.6 96.7 Q-26.6 95.65 -27.4 95.2 L-28.3 95.0 -29.9 95.45 -31.5 95.9 Q-33.55 95.9 -36.2 100.4 -39.3 105.65 -39.3 111.95 L-39.2 113.3 Q-36.15 113.55 -32.75 107.45 -29.9 101.25 -29.5 101.25" fill="#584439" fill-rule="evenodd" stroke="none"/>
    <path d="M-136.6 -104.35 L-135.75 -104.35 Q-133.7 -101.05 -133.2 -98.85 L-132.1 -91.7 -133.65 -92.0 -134.95 -96.85 -136.25 -101.45 -136.6 -104.35 M-38.25 -104.35 L-31.9 -104.35 Q-33.25 -96.3 -35.65 -93.05 -37.15 -91.0 -39.75 -90.4 L-40.1 -90.25 Q-40.5 -90.2 -40.5 -90.85 L-39.3 -94.8 Q-38.1 -98.7 -38.1 -100.55 -38.1 -101.05 -38.5 -101.35 -38.9 -101.65 -38.9 -102.15 L-38.75 -103.2 -38.25 -104.35 M-24.95 -104.35 L-19.1 -104.35 Q-20.2 -93.85 -22.4 -89.35 -23.6 -86.7 -27.95 -82.3 L-31.3 -80.45 Q-35.1 -78.5 -38.55 -77.1 L-39.6 -76.75 Q-31.05 -82.35 -28.35 -87.65 -26.0 -92.35 -24.95 -104.35 M3.75 -104.35 L4.35 -104.35 4.6 -101.65 Q4.6 -93.9 3.35 -89.85 2.35 -86.55 -0.5 -83.0 -10.4 -75.55 -13.85 -75.55 -14.5 -75.55 -14.6 -75.9 L-14.65 -76.5 -13.15 -79.75 Q-9.55 -81.45 -5.55 -84.4 -2.3 -86.75 -1.4 -87.9 -0.05 -89.05 1.2 -90.75 2.75 -92.75 3.25 -95.2 3.65 -97.15 3.45 -99.85 L3.45 -100.0 3.45 -100.15 3.75 -104.35 M38.65 -104.35 L38.95 -104.35 39.35 -98.9 39.35 -97.6 38.65 -104.35 M58.8 -104.35 L60.85 -104.35 Q59.9 -91.65 57.45 -86.75 55.45 -82.8 51.2 -82.2 L51.55 -82.35 Q52.85 -82.95 54.15 -84.2 55.8 -85.75 56.5 -87.55 L56.7 -88.1 56.9 -88.75 Q58.1 -92.35 58.4 -96.15 L58.8 -104.35 M106.3 -104.35 L106.5 -100.4 Q106.5 -94.25 103.5 -84.95 L100.5 -75.15 100.6 -74.4 101.4 -74.4 103.25 -75.05 104.4 -74.95 Q101.65 -70.85 100.2 -69.95 L88.25 -64.2 87.4 -63.95 Q87.8 -65.4 89.7 -67.1 92.2 -69.25 93.6 -71.4 99.25 -80.1 102.35 -104.35 L106.3 -104.35 M68.45 -54.75 L73.25 -54.75 65.5 -47.65 66.35 -51.1 67.55 -55.45 Q67.7 -54.95 68.45 -54.75 M73.4 -55.75 Q73.35 -55.75 74.4 -54.8 L74.0 -54.85 73.35 -55.75 73.4 -55.75 M47.15 -42.2 L34.75 -24.0 Q32.7 -21.05 30.6 -15.1 L28.45 -8.8 28.45 -8.85 28.2 -13.8 28.3 -15.75 Q28.4 -17.0 29.25 -22.0 L28.55 -22.85 27.9 -23.15 Q26.25 -23.15 22.8 -19.35 18.95 -15.1 18.05 -10.8 L17.4 -9.75 Q16.75 -11.8 19.95 -18.5 23.35 -25.6 26.9 -28.05 L37.4 -34.9 Q45.65 -40.3 47.15 -42.2 M65.5 -47.25 Q65.65 -46.85 65.4 -46.95 L65.1 -47.15 65.5 -47.25 M50.7 -39.35 L50.35 -39.2 53.0 -43.6 Q55.5 -47.25 56.9 -48.3 L58.5 -49.0 Q58.7 -47.65 55.0 -43.5 51.65 -39.75 50.7 -39.35 M48.8 -43.65 Q48.35 -43.45 48.2 -43.65 L48.8 -43.7 48.8 -43.65 M161.95 -86.35 L151.2 -85.2 132.9 -84.35 127.6 -84.9 Q124.1 -85.45 123.25 -85.95 L133.6 -86.15 147.0 -86.75 154.1 -87.15 161.95 -86.35 M9.7 22.2 L10.15 21.1 Q12.35 28.65 12.35 36.35 11.2 48.7 10.85 49.95 L10.45 51.15 Q9.95 49.5 9.65 42.7 9.2 33.7 9.7 22.2 M5.55 5.9 L1.2 14.85 -1.85 21.1 -3.1 24.6 -4.25 28.1 -5.15 31.2 Q-5.7 32.5 -5.85 39.5 -6.0 46.45 -7.1 49.0 L-7.55 49.65 Q-8.3 48.9 -8.65 44.0 -9.15 37.55 -8.1 29.3 -6.6 20.9 -4.15 16.15 -0.9 9.85 5.55 5.9 M29.1 87.5 L30.05 87.2 Q30.7 87.75 30.8 89.75 L30.9 94.7 Q31.25 103.3 35.2 111.6 35.75 111.65 34.75 111.65 32.45 111.65 30.8 105.95 28.85 99.15 29.1 87.5 M30.15 42.95 L24.6 58.4 18.75 73.85 17.9 75.1 Q17.9 68.45 23.5 55.7 28.25 44.95 30.15 42.95 M9.9 114.0 L9.9 116.7 Q7.25 113.35 7.25 103.9 7.25 102.2 7.9 99.7 8.55 97.2 9.2 96.3 9.7 97.25 9.6 103.55 9.45 110.95 9.9 114.0 M-179.65 -92.4 Q-183.7 -92.85 -186.7 -95.05 -189.65 -97.25 -189.65 -99.7 L-189.55 -100.5 -189.15 -100.95 Q-187.85 -99.05 -184.3 -96.35 -181.2 -94.0 -180.15 -93.65 -178.65 -93.05 -175.4 -92.4 L-175.1 -92.35 -175.55 -92.25 -179.65 -92.4 M-141.15 -93.25 Q-141.15 -99.05 -140.05 -101.3 L-139.2 -103.1 -139.0 -99.8 -139.3 -89.35 -139.7 -88.0 -140.75 -91.15 -141.15 -93.25 M-127.55 -84.05 L-127.7 -85.75 -120.2 -77.9 Q-116.95 -74.55 -111.5 -70.6 L-103.7 -66.55 Q-99.55 -64.2 -99.35 -60.0 L-99.25 -59.0 Q-105.5 -63.75 -106.2 -63.95 -109.45 -64.8 -111.4 -65.7 -116.4 -66.05 -121.7 -71.5 -127.5 -77.4 -127.55 -84.05 M-88.35 -48.0 L-88.5 -47.3 -88.95 -48.1 -91.5 -52.65 -92.25 -53.85 -93.0 -55.85 -92.95 -57.25 -91.15 -54.85 Q-89.35 -52.05 -88.35 -48.0 M-52.3 -20.15 L-52.3 -20.25 -54.0 -21.75 -58.95 -24.5 Q-62.3 -26.5 -62.55 -26.5 -63.0 -26.5 -69.25 -33.3 L-70.8 -35.25 Q-72.5 -38.65 -73.55 -43.15 -74.3 -46.15 -74.95 -46.15 L-75.7 -48.4 Q-76.5 -50.7 -76.95 -50.7 L-78.15 -53.2 -79.4 -55.75 -80.9 -57.8 Q-82.55 -60.05 -83.6 -60.85 L-85.0 -61.5 Q-84.85 -61.85 -83.85 -61.85 -81.75 -61.85 -80.35 -60.4 L-77.95 -56.7 Q-74.2 -50.25 -68.25 -47.1 L-67.0 -46.3 -68.95 -46.45 -70.45 -46.65 -71.25 -46.6 -71.6 -46.35 -71.65 -45.4 Q-71.65 -42.75 -65.65 -34.4 -59.3 -25.55 -54.0 -21.75 L-51.65 -21.1 -51.4 -20.8 -51.8 -20.1 -52.0 -20.1 -52.35 -20.8 -52.3 -20.25 -52.15 -20.15 -52.3 -20.15 M-26.4 -60.2 L-30.35 -59.65 Q-31.6 -59.55 -31.6 -57.35 -31.6 -50.9 -20.65 -44.9 -8.7 -39.55 -6.6 -38.15 L-5.85 -37.2 Q-15.05 -39.85 -16.05 -39.75 L-16.35 -39.45 Q-16.5 -39.15 -17.1 -39.15 L-22.15 -41.35 Q-27.6 -44.0 -30.5 -46.1 -34.55 -49.15 -35.8 -50.65 -38.45 -53.8 -38.45 -58.2 -38.45 -61.7 -36.2 -63.8 L-31.65 -66.7 -27.55 -69.8 -25.4 -72.55 Q-23.7 -75.15 -23.6 -74.0 L-26.55 -67.25 Q-27.7 -64.35 -27.7 -63.4 -27.7 -62.05 -26.4 -60.2 M-49.9 -29.9 L-52.5 -30.7 -52.9 -30.65 -52.95 -30.65 -52.25 -31.2 -49.9 -29.9 -38.25 -26.4 Q-31.55 -24.35 -27.85 -22.25 -17.55 -16.3 -17.55 -2.0 -17.55 -0.45 -18.7 3.35 -19.95 7.4 -21.0 8.8 L-21.6 9.35 -21.35 3.25 Q-21.35 -1.3 -23.8 -7.8 -26.1 -13.95 -27.3 -13.95 -27.95 -13.95 -28.1 -13.45 -28.75 -11.55 -29.7 -9.75 -30.8 -12.25 -34.45 -16.45 -40.6 -23.6 -49.9 -29.9 M-34.2 74.95 Q-33.5 71.7 -31.25 51.9 -29.85 39.9 -26.3 35.25 L-17.7 25.15 -10.95 17.5 -10.0 16.05 Q-10.5 17.1 -14.1 22.3 -18.4 28.55 -25.0 40.55 L-28.75 58.35 Q-31.1 69.8 -34.2 74.95 M-7.85 57.5 L-7.6 57.55 -7.5 58.2 Q-7.5 66.5 -12.2 74.45 -17.15 82.75 -25.75 87.95 L-26.6 88.3 Q-26.35 87.35 -22.95 82.05 L-19.0 75.95 -13.9 66.9 Q-9.25 58.55 -7.85 57.5 M-37.25 110.3 Q-35.45 102.35 -33.95 99.95 -32.75 98.05 -29.9 97.5 L-29.15 97.25 -37.25 110.3 M-10.25 117.45 L-14.55 119.25 Q-15.55 119.25 -15.0 119.2 L-15.1 118.75 -12.45 115.85 -3.5 105.95 -2.05 104.3 -4.8 111.2 Q-7.75 117.45 -10.25 117.45" fill="#6d5649" fill-rule="evenodd" stroke="none"/>
    <path d="M99.45 -102.05 L96.1 -85.3 94.7 -79.15 Q93.95 -77.4 90.65 -73.6 93.4 -77.25 95.2 -84.35 L99.45 -102.05 M80.35 -61.25 L77.1 -58.85 73.9 -56.75 71.3 -56.7 74.85 -60.1 79.65 -65.7 83.2 -68.4 86.5 -71.0 82.9 -66.8 Q80.95 -64.2 80.2 -61.7 L80.35 -61.25 M59.95 -86.0 L58.1 -83.7 56.2 -81.55 59.95 -86.0 M45.3 -67.95 L45.2 -64.7 45.2 -64.45 45.0 -61.95 44.95 -61.0 Q45.35 -60.55 46.1 -60.45 47.9 -60.9 47.7 -61.1 47.05 -61.9 47.2 -62.95 L47.15 -64.1 Q50.15 -58.65 51.0 -57.5 51.9 -56.3 56.2 -54.0 L50.6 -50.9 50.0 -50.35 49.9 -50.2 49.0 -49.25 Q46.6 -51.35 46.15 -52.55 45.7 -53.7 45.0 -60.0 L44.95 -61.0 44.3 -64.45 45.25 -67.95 45.3 -67.95 M51.9 -48.5 L54.1 -50.05 54.9 -50.45 51.9 -48.5 M60.35 -53.85 L66.65 -58.25 66.25 -57.5 60.35 -53.85 M68.9 -59.55 L76.8 -64.0 69.15 -59.3 68.9 -59.55 M117.55 -104.35 L119.5 -104.35 117.5 -99.6 116.7 -97.4 115.75 -92.7 113.95 -80.65 113.65 -82.05 110.55 -81.3 117.55 -104.35 M138.15 -104.35 L138.25 -104.35 Q138.3 -101.25 137.85 -97.25 L138.15 -104.35 M182.6 -104.35 L183.4 -104.35 183.65 -102.8 184.4 -104.35 189.7 -104.35 187.5 -98.4 Q185.85 -95.8 184.0 -93.85 181.4 -91.05 179.6 -90.8 L180.4 -92.5 181.75 -97.05 182.6 -104.35 M-191.05 -104.35 L-190.85 -104.35 -189.15 -100.95 -191.05 -104.35 M-149.2 -104.35 L-149.15 -104.35 -148.8 -102.25 -148.8 -103.3 Q-148.9 -104.35 -148.6 -104.35 L-147.15 -104.35 -147.1 -104.25 -148.5 -99.8 -149.2 -104.35 M-129.9 -104.35 L-125.7 -104.35 -123.55 -95.7 Q-121.95 -89.75 -120.05 -85.5 L-125.35 -92.35 Q-125.95 -92.35 -126.8 -94.15 L-128.1 -97.15 -128.9 -98.75 Q-129.75 -101.95 -129.9 -104.35 M-77.95 -104.35 L-74.95 -104.35 Q-68.55 -92.95 -63.1 -88.05 -59.85 -85.15 -58.0 -85.15 -57.3 -85.15 -56.65 -86.1 -55.9 -87.25 -56.35 -88.45 L-51.8 -87.85 -51.8 -87.5 Q-51.5 -79.85 -52.95 -77.75 -53.7 -76.65 -56.5 -76.65 L-58.1 -76.95 -59.3 -77.4 Q-61.15 -78.45 -63.65 -82.45 L-64.6 -83.85 -66.2 -86.25 -68.4 -89.3 Q-70.35 -91.85 -77.2 -102.5 L-77.95 -104.35 M-49.25 -104.35 L-45.55 -104.35 Q-45.0 -102.05 -45.0 -99.3 L-45.0 -95.75 Q-45.1 -92.95 -45.75 -92.95 -46.4 -92.95 -46.55 -91.65 L-46.6 -89.6 Q-46.6 -86.45 -45.1 -84.8 -43.8 -83.45 -41.85 -83.45 -39.45 -83.45 -34.1 -86.0 L-33.2 -86.6 Q-38.0 -81.3 -39.9 -80.75 L-42.95 -80.2 -49.0 -78.55 Q-48.7 -81.15 -48.35 -85.9 L-48.05 -91.15 Q-48.05 -94.15 -48.65 -99.25 L-49.25 -104.35 M-11.45 -104.35 L-4.8 -104.35 Q-5.2 -96.9 -5.0 -88.15 L-9.9 -84.8 -9.6 -86.3 -9.55 -87.6 Q-9.55 -91.4 -10.5 -94.0 -11.5 -96.6 -11.45 -104.35 M31.8 -104.35 L34.35 -104.35 Q37.65 -93.7 36.8 -88.25 36.0 -87.65 35.65 -85.35 35.05 -81.25 33.75 -77.1 L32.6 -83.05 31.9 -89.8 31.0 -103.65 Q31.0 -104.2 31.2 -104.15 31.55 -104.1 31.8 -104.35 M3.45 -99.85 Q3.65 -97.15 3.25 -95.2 2.75 -92.75 1.2 -90.75 1.65 -91.45 2.5 -94.55 3.5 -98.0 3.45 -99.85 M-1.4 -87.9 Q-2.3 -86.75 -5.55 -84.4 -9.55 -81.45 -13.15 -79.75 L-16.4 -77.35 Q-17.75 -76.35 -19.1 -74.45 -17.5 -77.1 -10.65 -81.75 L-1.4 -87.9 M-19.8 -68.4 L-19.65 -68.35 Q-19.45 -68.35 -19.5 -68.75 -18.55 -67.8 -15.05 -66.95 -12.15 -66.2 -11.25 -66.2 -10.6 -66.2 -10.4 -66.6 L-10.3 -67.3 -12.6 -71.8 -12.6 -71.95 Q-9.55 -71.95 -8.0 -72.5 -3.0 -74.25 3.35 -80.65 5.65 -83.0 8.0 -89.7 11.7 -100.5 13.2 -103.9 L13.6 -103.2 14.1 -103.0 11.2 -88.1 Q10.45 -84.9 6.45 -79.6 L2.65 -74.9 -1.2 -70.15 -6.5 -63.7 -7.85 -61.9 Q-8.65 -60.95 -9.35 -60.5 L-11.85 -59.8 -12.4 -59.2 Q-14.9 -60.35 -17.6 -63.0 -20.05 -65.45 -20.8 -67.15 L-20.2 -67.1 -20.05 -67.25 Q-19.9 -67.55 -20.1 -68.15 L-19.8 -68.4 M-8.8 -57.65 Q-6.4 -58.2 -4.45 -60.85 L-1.05 -65.55 Q-0.4 -63.4 3.6 -59.25 L11.2 -50.95 7.4 -52.1 4.7 -52.45 Q1.35 -55.7 -2.95 -56.55 L-8.8 -57.65 M42.2 -70.65 L41.1 -68.1 40.4 -68.95 Q39.95 -69.85 39.95 -71.9 39.95 -74.25 40.75 -78.45 41.4 -81.95 42.15 -84.65 L43.05 -79.3 Q43.4 -79.5 43.4 -78.5 L42.1 -76.6 Q40.75 -74.5 40.75 -73.05 40.75 -72.35 41.1 -71.4 41.45 -70.5 41.7 -70.4 41.95 -70.45 42.2 -70.65 M45.2 -78.35 L42.25 -70.8 42.05 -71.8 41.85 -73.2 Q41.85 -73.75 42.7 -75.2 43.75 -77.0 45.2 -78.35 M51.55 -82.35 L53.9 -84.1 Q55.75 -85.8 56.5 -87.55 55.8 -85.75 54.15 -84.2 52.85 -82.95 51.55 -82.35 M36.15 -78.1 L36.7 -80.2 Q36.2 -77.9 35.1 -74.55 L34.85 -74.3 36.15 -78.1 M35.85 -72.3 L36.9 -73.4 36.1 -64.75 Q36.1 -62.75 37.1 -59.45 L38.5 -54.8 38.3 -54.9 38.3 -55.05 37.65 -55.1 36.85 -54.4 Q34.3 -66.55 34.3 -67.55 34.3 -69.2 34.85 -70.45 L35.85 -72.3 M38.55 -51.15 L38.95 -51.35 38.8 -45.6 Q38.45 -41.65 37.25 -40.35 L36.75 -40.0 36.55 -39.85 Q37.75 -42.35 38.05 -45.55 38.4 -49.1 37.45 -51.4 L38.3 -51.05 38.55 -51.1 38.55 -51.15 M17.85 -24.35 L17.85 -24.3 15.95 -21.2 14.55 -17.75 15.5 -20.45 Q16.0 -21.6 17.85 -24.35 M24.3 -35.9 L25.35 -33.95 Q18.75 -31.7 14.45 -23.6 11.2 -17.45 11.2 -13.65 L11.3 -12.75 11.4 -12.5 Q10.6 -6.7 4.0 -4.0 2.75 -3.5 -0.45 0.25 L-4.35 5.35 -4.65 5.55 Q-4.25 4.2 -4.25 2.7 -4.25 1.25 -5.8 -1.35 L-8.5 -5.6 -8.9 -7.1 -8.95 -9.2 Q-8.95 -12.8 -10.4 -16.55 -12.5 -21.95 -17.05 -25.6 -19.45 -27.5 -30.9 -31.25 -42.0 -34.9 -43.45 -36.45 -45.25 -38.4 -48.85 -45.6 -53.85 -55.55 -53.85 -62.15 -53.85 -67.0 -52.35 -70.0 -50.75 -73.1 -47.0 -75.5 L-47.35 -74.45 Q-48.1 -72.9 -48.1 -71.9 -48.1 -71.15 -47.55 -70.9 L-45.95 -70.7 Q-40.7 -70.7 -34.15 -74.0 -31.45 -75.3 -26.1 -78.8 L-25.5 -79.05 Q-30.55 -70.45 -40.45 -68.15 -45.1 -67.05 -46.15 -66.45 -48.4 -65.15 -48.4 -61.8 -48.4 -56.2 -43.15 -47.15 L-37.95 -39.1 Q-37.95 -38.2 -32.6 -36.05 -27.15 -33.9 -22.6 -33.0 L-5.05 -30.3 Q-3.25 -29.9 0.05 -28.3 3.05 -26.85 3.5 -26.85 4.25 -26.85 4.55 -27.6 5.0 -28.55 5.0 -31.0 5.0 -35.0 1.8 -39.4 -1.55 -44.05 -6.5 -46.35 -6.95 -46.55 -10.05 -48.9 -12.8 -51.0 -13.6 -51.0 -14.25 -51.0 -15.45 -52.3 L-17.25 -54.35 -17.95 -55.4 Q-17.55 -55.15 -12.75 -53.6 -9.7 -52.6 -10.3 -51.4 -10.7 -50.55 -5.95 -49.55 L-1.15 -48.6 Q-1.15 -48.05 1.65 -45.35 5.15 -42.0 6.85 -39.3 10.2 -34.1 10.6 -30.25 L10.8 -28.55 Q10.95 -28.1 11.8 -28.1 14.3 -28.1 16.6 -33.75 17.75 -36.55 18.4 -39.5 L18.1 -42.45 Q17.65 -44.4 16.55 -45.35 18.25 -44.1 18.25 -44.15 L23.8 -36.65 24.3 -35.9 M-44.45 -77.0 L-44.45 -77.15 -42.5 -77.6 -43.35 -77.2 -44.45 -77.0 M-11.25 -11.4 L-11.6 -12.45 -11.25 -11.4 M-44.15 -34.25 L-53.5 -36.0 -54.15 -36.15 -54.0 -36.1 Q-56.2 -36.55 -60.1 -38.65 -64.15 -40.8 -65.55 -42.45 -63.65 -42.5 -53.9 -38.15 -52.2 -37.35 -49.45 -37.3 L-46.55 -37.35 -55.35 -43.35 -52.05 -41.2 Q-49.2 -39.4 -46.55 -37.35 L-46.5 -37.3 -45.25 -35.65 -44.15 -34.25 M-60.7 -47.2 L-69.25 -52.15 -64.45 -49.6 Q-61.4 -47.75 -60.7 -47.2 M-91.9 -67.55 L-96.45 -68.9 -91.75 -67.65 -91.9 -67.55 M-124.95 -88.2 L-126.8 -90.6 -127.35 -91.8 -125.65 -89.2 -124.95 -88.2 M-11.35 -30.3 L-11.85 -30.0 -12.1 -29.1 Q-12.1 -26.9 -5.8 -23.65 -0.9 -21.1 1.0 -20.65 5.1 -19.05 5.75 -17.0 6.85 -13.5 7.7 -13.5 9.45 -13.5 9.45 -15.55 9.45 -19.65 7.45 -22.3 L4.05 -25.45 Q2.8 -26.6 -4.1 -28.6 -10.75 -30.5 -11.35 -30.3 M36.0 39.9 L35.6 40.95 Q35.9 35.55 35.25 33.7 34.55 31.55 32.15 31.55 30.8 31.55 27.7 35.95 L14.6 55.55 Q16.65 49.1 17.55 40.35 18.35 32.5 18.35 21.6 18.35 19.0 16.25 8.8 L13.95 -1.75 12.8 -2.75 12.8 -2.9 13.45 -2.8 13.75 -3.05 13.75 -2.95 13.8 -3.0 13.95 -1.75 Q14.35 -1.4 15.8 -0.65 16.6 -0.25 16.6 0.35 16.6 1.55 23.65 3.55 L26.8 3.45 Q27.3 2.75 26.7 0.3 L26.95 -0.15 29.6 0.9 Q30.9 0.9 32.65 -5.05 35.05 -13.55 36.25 -16.15 37.15 -18.1 42.0 -22.65 L47.5 -27.65 Q51.45 -31.4 56.05 -37.75 L61.0 -44.75 61.95 -46.15 Q61.95 -44.15 60.75 -35.5 L60.9 -34.7 Q61.1 -34.4 61.75 -34.4 63.45 -34.4 64.65 -35.9 L66.9 -39.7 Q70.45 -46.45 75.75 -49.9 L75.65 -49.45 75.8 -48.3 76.15 -48.1 77.1 -47.95 Q80.95 -47.95 86.85 -55.25 89.65 -58.7 90.65 -59.2 L93.7 -59.35 Q100.65 -59.0 105.7 -63.95 108.35 -66.55 110.9 -70.3 L110.5 -69.25 Q107.45 -61.9 101.7 -58.35 98.1 -56.15 95.45 -56.15 94.45 -56.15 93.2 -56.85 L91.25 -57.9 89.4 -57.55 89.2 -57.05 88.95 -56.1 Q88.95 -54.95 91.6 -53.65 93.75 -52.6 94.35 -52.6 L72.4 -38.4 75.75 -44.9 75.6 -45.8 74.75 -46.05 Q73.65 -46.05 72.1 -44.05 L67.95 -38.2 Q59.7 -26.75 46.7 -15.3 38.9 -8.45 34.8 2.45 L32.4 8.55 Q31.2 10.9 29.4 10.9 25.0 10.25 25.0 9.7 L24.2 8.9 23.05 8.2 21.65 9.6 Q21.65 11.55 25.3 13.1 28.35 14.4 30.6 14.4 31.55 14.4 32.85 13.6 34.65 12.55 35.35 10.75 L36.1 9.4 34.9 17.75 34.9 20.75 Q37.3 28.55 37.3 33.25 L36.0 39.9 M-1.7 -50.9 L-1.7 -50.95 -1.2 -51.0 -1.7 -50.9 M118.15 -85.95 Q122.75 -83.4 125.5 -83.25 L132.1 -83.6 147.5 -82.85 149.2 -83.2 150.7 -83.5 156.4 -83.0 Q170.3 -83.0 178.05 -86.2 186.3 -89.65 190.55 -97.85 188.1 -87.45 182.55 -83.6 177.15 -79.85 165.3 -79.85 L155.1 -80.55 142.25 -81.3 139.15 -81.2 134.45 -81.3 130.9 -81.4 Q129.9 -81.95 129.05 -81.95 L119.05 -81.2 116.55 -81.35 116.95 -86.2 118.15 -85.95 M147.0 -86.75 L133.6 -86.15 137.1 -86.25 147.0 -86.75 M139.45 -90.0 L139.5 -90.0 139.9 -88.6 140.35 -87.65 134.85 -87.65 135.6 -88.6 137.15 -92.6 139.45 -90.0 M179.5 -89.05 Q177.3 -88.05 174.5 -87.25 170.6 -86.2 166.95 -86.05 L172.2 -86.9 Q176.55 -87.75 179.5 -89.05 M-78.2 -40.3 L-78.8 -40.1 Q-79.15 -39.9 -79.15 -39.25 -79.15 -22.6 -57.7 -13.4 -51.7 -10.85 -42.95 -8.55 -36.25 -6.75 -36.25 -6.4 -34.7 -5.7 -33.15 -3.85 -30.05 -0.15 -30.05 6.15 -30.05 8.25 -31.2 12.3 -32.4 16.4 -32.4 17.7 -32.4 19.0 -31.75 19.5 -31.05 20.05 -29.15 20.05 -24.35 20.05 -12.55 7.5 L-11.4 4.9 -11.5 4.4 -10.75 5.05 Q-11.2 5.35 -10.85 5.3 L-12.55 7.5 Q-17.55 16.1 -18.95 17.4 -22.95 20.05 -29.8 25.6 L-33.05 27.95 Q-34.6 29.25 -35.15 31.45 L-36.05 34.3 -37.7 40.0 Q-38.55 43.35 -39.0 48.25 -39.45 53.8 -39.75 65.3 -40.7 68.1 -41.65 74.4 L-43.2 81.5 Q-45.55 89.7 -49.7 95.15 -51.7 97.9 -64.2 109.25 -66.65 112.0 -70.85 113.15 L-76.25 114.15 -76.35 114.2 Q-77.45 113.1 -79.95 108.35 -82.3 103.85 -82.5 102.95 L-82.35 101.85 -81.7 100.35 -80.4 98.9 Q-79.4 98.0 -78.5 98.45 L-78.4 98.5 Q-76.5 99.4 -74.1 97.85 L-71.45 94.9 -67.3 90.3 Q-61.35 84.6 -60.85 83.65 L-59.5 79.7 Q-58.45 76.4 -58.2 76.4 L-56.45 73.75 -53.55 69.15 Q-51.65 66.35 -51.0 62.7 -50.55 60.4 -50.55 56.9 L-51.05 51.75 -51.6 47.45 Q-51.6 42.95 -50.15 40.25 -49.15 38.45 -48.6 38.45 L-46.4 33.2 -46.8 27.7 -45.85 21.85 -45.65 20.3 -44.05 24.7 -43.0 25.7 -42.25 25.35 Q-41.85 25.1 -41.85 24.65 -41.85 17.7 -46.0 10.0 -50.0 2.45 -56.05 -2.3 -57.85 -3.7 -63.55 -6.15 -68.4 -8.25 -68.4 -8.8 -68.4 -9.6 -70.6 -10.3 -73.9 -11.3 -76.7 -13.7 -77.1 -14.05 -79.1 -19.4 L-81.05 -24.7 Q-81.5 -27.0 -81.65 -30.3 L-81.9 -36.7 -82.1 -36.85 -82.9 -37.05 -84.0 -36.85 -84.25 -33.55 -84.55 -27.9 Q-87.9 -30.2 -93.75 -39.8 -99.15 -48.6 -99.85 -48.6 -100.45 -48.6 -100.7 -48.25 L-100.9 -47.75 Q-101.6 -49.25 -111.3 -51.95 -121.0 -54.65 -125.6 -54.65 -135.5 -54.65 -139.75 -59.0 -144.75 -64.1 -142.4 -75.45 L-142.6 -75.65 -143.4 -75.85 Q-144.3 -75.85 -145.05 -74.5 L-145.8 -72.75 Q-146.25 -75.6 -147.15 -77.5 -147.7 -78.65 -147.7 -82.5 L-147.25 -93.2 -146.7 -93.35 -146.4 -93.4 -144.15 -93.45 Q-144.65 -90.15 -141.8 -83.05 L-138.75 -76.15 -138.65 -75.95 -138.05 -75.35 Q-138.65 -75.95 -137.7 -76.1 L-137.65 -76.15 Q-137.0 -77.65 -136.65 -81.55 -136.35 -85.6 -136.85 -86.9 -136.45 -87.3 -135.9 -87.2 -135.9 -86.7 -136.25 -86.25 -135.85 -86.25 -135.85 -86.1 L-135.8 -87.15 Q-134.55 -85.85 -133.25 -80.85 L-130.6 -70.1 Q-129.35 -65.55 -120.3 -62.4 -109.7 -59.5 -106.1 -58.0 -104.1 -57.15 -102.6 -55.7 L-101.2 -54.15 -99.9 -53.55 -98.35 -52.4 Q-86.95 -37.6 -86.35 -37.6 -83.95 -37.6 -83.95 -43.6 -83.95 -45.45 -84.8 -49.2 -85.4 -51.95 -85.95 -53.6 L-85.15 -52.9 -84.45 -52.1 -84.85 -53.35 -85.0 -53.55 Q-85.3 -53.7 -85.05 -54.15 -83.55 -52.65 -81.65 -49.6 -78.45 -44.5 -78.2 -40.3 M58.0 121.15 Q52.85 124.05 46.9 125.75 42.15 127.1 39.4 127.1 L32.1 125.55 Q24.4 123.95 19.85 123.95 18.2 123.95 16.2 126.4 14.2 128.85 13.7 128.85 L8.95 132.0 2.35 133.05 Q-2.75 133.05 -9.05 131.1 -11.05 130.5 -22.8 125.75 L-24.95 126.05 Q-27.0 126.45 -27.0 126.8 -27.0 127.05 -29.95 128.45 L-33.95 130.15 Q-36.05 130.9 -39.4 131.35 L-44.65 131.7 -48.75 131.2 -52.85 130.7 -53.85 130.95 -54.25 131.5 Q-60.65 129.1 -63.65 127.3 -68.6 124.3 -74.45 116.6 -71.65 115.65 -69.5 115.4 L-66.9 114.85 Q-64.8 113.8 -50.55 101.3 -52.65 103.9 -60.1 110.65 -64.5 114.6 -64.5 118.1 -64.5 121.4 -62.15 122.65 -60.95 123.3 -59.35 123.3 -57.45 123.3 -55.25 121.1 L-49.6 114.95 Q-48.9 114.25 -46.15 109.35 L-43.4 104.4 Q-39.85 99.0 -37.6 96.2 L-37.05 95.55 Q-42.55 106.0 -44.6 113.15 -45.65 116.65 -45.75 118.0 -46.0 118.0 -46.65 119.35 L-49.55 125.15 Q-48.85 126.3 -48.35 126.3 -41.8 126.3 -36.7 121.7 -33.75 119.0 -31.0 114.3 -30.65 113.65 -27.65 104.9 -25.15 97.65 -23.9 97.65 -13.75 89.0 -8.1 81.2 -3.3 74.55 -1.3 66.3 0.35 59.6 0.35 51.05 L-0.3 44.3 -0.95 35.8 Q-0.95 32.35 0.0 29.0 0.95 25.75 2.3 24.15 1.35 28.9 1.35 30.3 1.35 33.45 2.05 39.75 2.75 46.0 2.75 51.6 L2.4 56.4 2.1 59.75 2.05 59.9 2.0 60.3 0.1 70.1 Q-3.7 82.2 -8.15 87.2 L-12.8 91.8 Q-16.15 95.05 -19.0 98.75 L-21.15 102.25 -23.3 105.85 Q-25.4 110.6 -26.4 111.9 L-27.45 118.0 -27.2 119.45 -27.0 119.6 -26.2 119.75 -25.8 119.5 -25.0 118.7 -23.7 113.8 Q-22.15 109.5 -18.15 105.85 L-10.6 99.95 -5.25 95.7 2.2 89.6 7.65 82.55 8.5 79.05 8.5 78.95 8.55 78.8 8.9 79.3 9.3 79.5 7.65 82.55 Q4.6 88.9 -0.95 94.5 -3.7 97.35 -10.75 103.1 -16.55 107.85 -18.8 110.75 -22.15 115.15 -22.15 120.05 -22.15 123.4 -17.0 125.4 -13.5 126.8 -11.45 126.8 -5.3 126.8 -2.4 121.5 0.25 114.25 1.95 110.3 L2.65 109.4 Q2.35 112.4 2.35 114.0 2.35 117.4 4.3 120.55 6.9 124.75 11.65 124.75 13.35 124.75 14.9 124.05 16.65 123.2 17.4 121.8 L17.95 122.05 19.2 122.3 20.25 121.8 20.65 121.25 Q19.3 119.25 18.05 116.55 15.55 111.2 15.9 107.3 16.2 103.95 16.0 102.9 15.75 101.7 14.6 101.2 L14.55 101.25 13.9 101.55 Q15.4 95.5 17.55 95.5 19.25 95.5 20.45 96.75 21.55 97.85 23.05 100.85 L29.45 116.15 Q29.45 118.0 33.35 119.35 36.45 120.4 38.3 120.4 41.4 120.4 42.8 118.1 43.85 116.45 43.85 114.05 43.85 112.6 41.85 108.3 L39.55 103.55 38.75 101.45 38.0 99.15 37.55 96.95 Q37.15 94.65 37.1 92.05 L36.7 75.65 Q36.2 70.1 34.35 70.1 31.5 70.1 28.65 73.25 24.75 77.5 22.95 86.05 L22.75 81.5 Q22.75 80.3 23.1 77.45 L23.95 76.15 26.1 72.15 Q28.1 67.8 28.8 63.05 28.9 62.1 30.4 58.55 32.3 54.1 34.95 49.4 36.1 53.4 40.65 66.45 42.75 72.45 42.75 77.75 42.75 79.85 41.7 86.3 L40.65 92.9 Q40.65 100.1 47.1 109.35 53.25 118.1 58.95 120.35 L58.0 121.15 M2.95 70.55 Q1.35 76.9 -2.25 82.25 L2.95 70.55 M-11.25 93.5 L-16.3 99.85 -20.2 105.1 -20.9 105.85 -20.95 105.9 Q-18.05 101.25 -16.75 99.5 -14.2 96.0 -11.25 93.5 M12.95 58.2 L12.95 58.15 13.0 58.15 12.95 58.2 M44.25 94.7 L44.1 93.45 Q46.45 97.35 53.25 101.3 59.2 104.8 64.0 105.9 61.85 107.75 61.3 109.1 60.35 111.4 60.55 116.95 L60.45 117.05 60.25 117.85 Q55.85 117.25 49.55 107.25 43.45 97.65 44.25 94.7 M-194.4 -102.8 L-193.1 -99.6 -193.15 -99.6 -194.4 -102.8 M-186.05 -91.45 L-167.65 -89.4 -150.9 -88.9 -150.55 -88.95 -150.65 -82.15 -154.05 -84.25 Q-156.2 -85.25 -159.45 -85.25 L-161.25 -85.45 Q-170.0 -85.7 -175.7 -86.85 -183.85 -88.45 -188.05 -92.15 L-186.05 -91.45 M-86.05 -54.05 L-86.0 -54.95 -85.8 -54.95 -85.4 -54.45 -86.05 -54.05 M-93.55 -62.35 L-93.95 -62.25 -94.35 -62.55 -93.4 -64.1 -92.3 -64.8 -92.85 -64.0 -93.55 -62.35 M-12.7 -81.85 L-12.65 -81.8 -14.35 -80.7 -12.7 -81.85 M-12.6 -81.85 L-12.6 -81.9 -12.6 -81.85 M-20.9 -71.75 L-21.1 -71.8 -20.9 -72.2 -20.9 -71.75 M-75.05 -62.1 L-76.0 -63.3 Q-67.85 -59.3 -65.95 -54.75 L-65.0 -53.1 Q-67.3 -54.6 -69.85 -55.25 -71.95 -56.35 -75.05 -62.1 M-34.95 -29.9 L-36.6 -30.4 -36.55 -30.4 -35.6 -30.2 -34.95 -29.9 M-26.55 -26.95 L-26.75 -27.0 -24.9 -26.55 Q-23.15 -26.1 -22.2 -25.5 L-21.0 -24.8 Q-26.3 -26.95 -26.55 -26.95 M-48.95 52.35 L-48.15 53.25 -47.4 53.7 -43.65 50.5 Q-42.55 50.5 -41.85 47.35 L-40.7 41.45 -38.55 34.9 -37.75 32.4 -37.9 31.05 Q-44.1 31.85 -46.65 40.6 -48.05 45.25 -48.95 52.35 M-13.15 28.45 L-12.75 28.5 -12.65 29.15 Q-12.65 31.6 -13.7 42.7 -14.85 54.6 -15.5 56.7 -16.75 60.6 -21.7 68.1 -27.05 76.25 -29.95 77.65 -30.1 78.05 -30.1 77.05 L-27.7 71.9 Q-24.6 64.8 -21.25 54.6 L-20.7 49.55 Q-20.1 44.55 -18.95 40.95 -15.65 30.7 -13.15 28.45 M-63.65 92.7 L-62.4 92.85 Q-60.9 92.65 -59.15 91.8 -53.75 89.2 -49.05 81.6 L-45.9 73.95 Q-43.35 67.4 -43.35 67.0 L-43.55 65.2 Q-44.7 65.55 -44.7 64.9 -45.3 64.9 -50.45 68.65 -52.5 70.9 -53.65 74.25 -54.55 76.8 -54.9 76.8 -55.5 76.8 -55.7 78.0 L-56.15 80.35 -56.6 81.25 -56.85 82.25 Q-56.85 85.5 -61.1 87.25 -65.35 89.0 -65.35 91.75 -65.35 92.4 -64.85 92.6 L-63.65 92.7 Q-64.35 92.7 -64.0 93.1 -63.65 93.45 -63.65 92.7" fill="#48382f" fill-rule="evenodd" stroke="none"/>
    <path d="M73.9 -56.75 Q75.75 -56.9 75.75 -54.85 67.35 -45.35 65.5 -45.35 64.35 -45.35 63.9 -45.8 64.15 -47.95 63.65 -49.25 L66.25 -57.5 66.65 -58.25 68.9 -59.55 69.15 -59.3 Q69.8 -58.6 70.05 -57.75 L69.75 -56.7 71.3 -56.7 73.9 -56.75 M108.35 -104.35 Q108.9 -99.75 107.8 -93.4 106.6 -86.15 103.45 -77.8 104.2 -78.2 104.9 -78.2 L106.15 -78.05 106.4 -75.7 Q105.95 -72.55 105.0 -71.6 L102.1 -69.05 100.15 -67.9 87.0 -61.75 Q85.15 -61.75 85.15 -63.6 L86.55 -65.85 Q88.2 -68.3 89.4 -69.5 93.85 -74.0 96.25 -83.65 97.7 -89.5 100.3 -104.35 L102.35 -104.35 Q99.25 -80.1 93.6 -71.4 92.2 -69.25 89.7 -67.1 87.8 -65.4 87.4 -63.95 L88.25 -64.2 100.2 -69.95 Q101.65 -70.85 104.4 -74.95 L103.25 -75.05 101.4 -74.4 100.6 -74.4 100.5 -75.15 103.5 -84.95 Q106.5 -94.25 106.5 -100.4 L106.3 -104.35 108.35 -104.35 M-140.75 -104.35 L-136.6 -104.35 -136.25 -101.45 -134.95 -96.85 -133.65 -92.0 -132.1 -91.7 -133.2 -98.85 Q-133.7 -101.05 -135.75 -104.35 L-133.3 -104.35 Q-132.25 -102.65 -131.15 -98.2 -130.1 -93.9 -130.1 -91.75 -130.1 -90.4 -130.65 -90.0 L-133.55 -89.6 Q-134.5 -89.6 -135.1 -90.95 L-135.8 -92.3 Q-136.4 -92.3 -136.6 -93.85 L-137.1 -97.1 -137.1 -96.75 Q-137.25 -90.2 -137.65 -88.05 -138.3 -84.95 -140.25 -84.95 -140.7 -84.95 -141.75 -86.9 -143.15 -89.6 -143.15 -93.25 -143.15 -94.95 -142.3 -98.85 -141.45 -102.95 -140.75 -104.35 M-40.5 -104.35 L-38.25 -104.35 -38.75 -103.2 -38.9 -102.15 Q-38.9 -101.65 -38.5 -101.35 -38.1 -101.05 -38.1 -100.55 -38.1 -98.7 -39.3 -94.8 L-40.5 -90.85 Q-40.5 -90.2 -40.1 -90.25 L-39.75 -90.4 Q-37.15 -91.0 -35.65 -93.05 -33.25 -96.3 -31.9 -104.35 L-29.9 -104.35 Q-30.5 -97.7 -33.5 -92.9 -36.4 -88.25 -39.6 -88.25 -41.5 -88.25 -42.15 -89.25 -42.5 -89.8 -42.5 -90.95 L-41.3 -94.85 Q-40.15 -98.8 -40.15 -100.55 -40.15 -101.05 -40.5 -101.25 -40.9 -101.5 -40.9 -102.0 L-40.5 -104.35 M-26.95 -104.35 L-24.95 -104.35 Q-26.0 -92.35 -28.35 -87.65 -31.05 -82.35 -39.6 -76.75 L-38.55 -77.1 Q-35.1 -78.5 -31.3 -80.45 L-27.95 -82.3 Q-23.6 -86.7 -22.4 -89.35 -20.2 -93.85 -19.1 -104.35 L-17.1 -104.35 Q-18.25 -93.3 -20.6 -88.4 -22.1 -85.25 -26.7 -80.75 L-28.85 -79.4 Q-39.15 -74.1 -42.6 -74.1 -44.7 -74.1 -44.7 -75.9 L-44.15 -76.6 -43.35 -77.2 -42.5 -77.6 -37.8 -79.6 Q-36.95 -79.85 -35.1 -81.5 L-33.15 -83.3 Q-32.05 -84.6 -31.25 -85.95 L-31.15 -86.1 -31.1 -86.2 Q-30.05 -88.0 -29.9 -88.6 -28.75 -90.6 -27.9 -96.35 -27.45 -99.45 -26.95 -104.35 M36.65 -104.35 L38.65 -104.35 39.35 -97.6 39.35 -98.9 38.95 -104.35 40.95 -104.35 41.15 -102.35 40.95 -99.0 41.4 -92.7 41.55 -87.4 Q41.55 -84.2 40.95 -84.2 L41.15 -83.35 Q41.1 -82.2 39.2 -80.6 38.75 -81.05 38.3 -81.0 38.1 -81.4 38.2 -85.3 L38.6 -87.25 39.0 -89.9 38.3 -95.2 Q37.5 -100.85 36.75 -103.4 L36.65 -104.35 M57.55 -43.5 Q52.4 -37.1 50.2 -37.1 L48.4 -37.25 48.15 -38.2 Q52.9 -51.05 59.05 -51.05 L59.9 -50.9 60.25 -50.8 60.5 -48.95 Q60.5 -48.05 59.55 -46.25 L57.55 -43.5 M68.45 -54.75 Q67.7 -54.95 67.55 -55.45 L66.35 -51.1 65.5 -47.65 73.25 -54.75 68.45 -54.75 M73.4 -55.75 L73.35 -55.75 74.0 -54.85 74.4 -54.8 Q73.35 -55.75 73.4 -55.75 M25.1 -29.25 Q25.75 -29.45 28.9 -31.25 33.05 -33.55 35.45 -35.55 L35.7 -35.7 43.2 -41.35 48.15 -45.5 49.6 -45.25 49.85 -43.35 Q49.7 -42.85 45.15 -36.1 L38.35 -26.05 Q31.05 -15.35 30.3 -9.25 L30.2 -6.85 Q30.05 -6.4 28.8 -6.4 27.3 -6.4 26.85 -7.45 26.2 -8.85 26.2 -13.8 26.2 -15.05 26.95 -20.45 22.05 -14.6 19.6 -9.75 18.2 -6.95 17.45 -6.95 16.9 -6.95 16.2 -7.6 15.4 -8.35 15.4 -9.3 15.4 -13.5 17.65 -18.15 19.95 -22.95 25.1 -29.25 M47.15 -42.2 Q45.65 -40.3 37.4 -34.9 L26.9 -28.05 Q23.35 -25.6 19.95 -18.5 16.75 -11.8 17.4 -9.75 L18.05 -10.8 Q18.95 -15.1 22.8 -19.35 26.25 -23.15 27.9 -23.15 L28.55 -22.85 29.25 -22.0 Q28.4 -17.0 28.3 -15.75 L28.2 -13.8 28.45 -8.85 28.45 -8.8 30.6 -15.1 Q32.7 -21.05 34.75 -24.0 L47.15 -42.2 M-30.8 -69.8 L-29.9 -70.4 Q-24.75 -74.95 -23.65 -78.3 -22.25 -77.25 -21.75 -75.35 L-21.55 -73.55 Q-21.55 -72.55 -23.6 -67.95 L-25.7 -63.4 Q-25.7 -62.3 -24.8 -61.15 -23.9 -60.0 -23.9 -59.75 -23.9 -58.85 -26.2 -58.2 L-29.6 -57.35 Q-28.7 -53.5 -27.2 -51.8 -25.4 -49.8 -19.35 -46.3 -15.85 -44.3 -12.2 -43.05 L-9.4 -42.2 -6.35 -39.7 Q-3.35 -37.15 -3.35 -36.5 -3.35 -35.9 -3.5 -35.5 L-3.65 -35.05 -4.8 -34.9 Q-6.8 -34.9 -9.0 -36.15 -11.2 -37.4 -14.25 -37.4 L-15.15 -36.95 -17.4 -37.15 -26.05 -41.15 Q-33.15 -45.25 -35.6 -47.55 -40.45 -52.1 -40.45 -58.2 -40.45 -62.15 -37.85 -64.75 L-30.8 -69.8 M28.45 54.15 L28.15 54.9 Q28.9 53.35 28.35 55.25 L26.35 60.8 Q20.0 78.35 17.25 78.35 15.85 78.35 15.85 76.55 15.85 71.15 17.7 64.9 19.55 58.45 23.85 49.25 26.2 44.15 27.95 42.25 29.35 40.75 30.95 40.75 31.5 40.75 31.8 41.4 32.15 42.05 28.45 54.15 M65.5 -47.25 L65.1 -47.15 65.4 -46.95 Q65.65 -46.85 65.5 -47.25 M48.8 -43.65 L48.8 -43.7 48.2 -43.65 Q48.35 -43.45 48.8 -43.65 M50.7 -39.35 Q51.65 -39.75 55.0 -43.5 58.7 -47.65 58.5 -49.0 L56.9 -48.3 Q55.5 -47.25 53.0 -43.6 L50.35 -39.2 50.7 -39.35 M7.25 31.75 Q7.25 27.1 8.15 22.85 8.95 18.95 9.9 17.95 12.2 19.5 13.5 27.0 14.35 32.2 14.35 36.35 14.35 50.65 10.85 54.15 8.45 52.95 7.85 49.05 7.25 45.35 7.25 31.75 M-10.85 40.1 Q-10.85 31.85 -8.85 24.1 -7.1 17.4 -4.3 12.45 -1.3 7.15 7.3 3.1 8.3 3.1 7.95 3.35 L8.2 4.8 3.85 14.25 -1.1 25.1 Q-3.7 31.7 -4.25 43.8 -4.45 48.3 -4.95 49.85 -5.65 52.15 -7.65 52.15 -9.05 52.15 -9.9 49.1 -10.85 45.85 -10.85 40.1 M5.55 5.9 Q-0.9 9.85 -4.15 16.15 -6.6 20.9 -8.1 29.3 -9.15 37.55 -8.65 44.0 -8.3 48.9 -7.55 49.65 L-7.1 49.0 Q-6.0 46.45 -5.85 39.5 -5.7 32.5 -5.15 31.2 L-4.25 28.1 -3.1 24.6 -1.85 21.1 1.2 14.85 5.55 5.9 M9.7 22.2 Q9.2 33.7 9.65 42.7 9.95 49.5 10.45 51.15 L10.85 49.95 Q11.2 48.7 12.35 36.35 12.35 28.65 10.15 21.1 L9.7 22.2 M11.7 98.35 L11.1 108.45 11.65 114.4 11.8 118.7 10.15 118.9 Q8.5 118.9 6.95 114.8 5.25 110.25 5.25 103.9 5.25 99.2 6.3 96.7 7.4 94.15 9.4 94.15 10.85 94.15 11.4 96.25 L11.7 98.35 M26.75 93.8 Q26.75 88.5 27.55 86.7 28.25 85.2 30.05 85.2 32.55 85.2 32.55 88.65 32.55 95.1 33.15 98.25 33.75 101.4 34.95 104.9 L36.65 109.45 Q37.45 111.5 37.45 112.1 37.45 113.65 34.15 113.65 32.4 113.65 30.0 109.4 26.75 103.55 26.75 93.8 M30.15 42.95 Q28.25 44.95 23.5 55.7 17.9 68.45 17.9 75.1 L18.75 73.85 24.6 58.4 30.15 42.95 M29.1 87.5 Q28.85 99.15 30.8 105.95 32.45 111.65 34.75 111.65 35.75 111.65 35.2 111.6 31.25 103.3 30.9 94.7 L30.8 89.75 Q30.7 87.75 30.05 87.2 L29.1 87.5 M-17.1 118.75 Q-17.1 117.6 -10.15 109.7 -2.7 101.25 0.25 101.8 L0.5 103.4 Q-1.1 108.8 -1.9 108.8 L-5.2 115.05 Q-9.5 121.25 -14.7 121.25 L-15.85 121.35 Q-16.3 121.35 -16.3 120.7 -16.3 120.2 -16.7 119.75 -17.1 119.25 -17.1 118.75 M9.9 114.0 Q9.45 110.95 9.6 103.55 9.7 97.25 9.2 96.3 8.55 97.2 7.9 99.7 7.25 102.2 7.25 103.9 7.25 113.35 9.9 116.7 L9.9 114.0 M-127.55 -84.05 Q-127.5 -77.4 -121.7 -71.5 -116.4 -66.05 -111.4 -65.7 -109.45 -64.8 -106.2 -63.95 -105.5 -63.75 -99.25 -59.0 L-99.35 -60.0 Q-99.55 -64.2 -103.7 -66.55 L-111.5 -70.6 Q-116.95 -74.55 -120.2 -77.9 L-127.7 -85.75 -127.55 -84.05 M-141.15 -93.25 L-140.75 -91.15 -139.7 -88.0 -139.3 -89.35 -139.0 -99.8 -139.2 -103.1 -140.05 -101.3 Q-141.15 -99.05 -141.15 -93.25 M-128.3 -88.65 Q-127.7 -88.65 -121.15 -81.65 -113.8 -73.9 -109.05 -71.35 -107.15 -70.35 -103.25 -69.5 -101.95 -69.2 -99.05 -64.8 -96.9 -60.05 -97.2 -57.9 -97.45 -56.45 -98.7 -56.45 -99.35 -56.45 -100.8 -57.85 -102.85 -59.85 -104.75 -61.05 L-106.65 -62.0 -110.25 -63.15 Q-118.4 -65.75 -123.0 -70.05 -129.75 -76.4 -129.75 -86.85 -129.75 -88.65 -128.3 -88.65 M-83.85 -63.85 Q-80.95 -63.85 -78.55 -60.85 -75.6 -56.4 -73.3 -53.5 -71.15 -50.75 -67.4 -48.45 L-63.8 -46.15 Q-65.25 -44.05 -69.15 -44.4 -66.0 -36.2 -57.15 -27.45 -52.45 -22.8 -50.3 -21.55 L-49.95 -21.2 -50.1 -20.2 Q-50.1 -19.05 -52.05 -19.05 -55.1 -19.05 -62.6 -24.4 -71.95 -31.05 -74.45 -39.0 L-76.9 -46.6 -79.2 -50.8 -81.1 -54.85 Q-82.6 -57.75 -83.65 -58.45 -85.55 -59.8 -86.95 -60.45 -87.75 -60.85 -87.75 -61.0 -87.75 -62.0 -87.55 -61.6 L-87.25 -62.45 Q-87.15 -62.8 -86.55 -62.8 L-83.85 -63.85 M-94.75 -59.3 L-92.65 -59.45 -91.45 -58.3 Q-90.25 -56.9 -88.45 -53.7 -86.35 -49.85 -86.35 -48.05 -86.35 -46.35 -87.15 -45.75 -87.6 -45.4 -88.5 -45.4 -89.1 -45.4 -91.9 -49.0 -95.05 -53.1 -95.05 -55.85 L-94.75 -59.3 M-51.65 -21.1 L-54.0 -21.75 Q-59.3 -25.55 -65.65 -34.4 -71.65 -42.75 -71.65 -45.4 L-71.6 -46.35 -71.25 -46.6 -70.45 -46.65 -68.95 -46.45 -67.0 -46.3 -68.25 -47.1 Q-74.2 -50.25 -77.95 -56.7 L-80.35 -60.4 Q-81.75 -61.85 -83.85 -61.85 -84.85 -61.85 -85.0 -61.5 L-83.6 -60.85 Q-82.55 -60.05 -80.9 -57.8 L-79.4 -55.75 -78.15 -53.2 -76.95 -50.7 Q-76.5 -50.7 -75.7 -48.4 L-74.95 -46.15 Q-74.3 -46.15 -73.55 -43.15 -72.5 -38.65 -70.8 -35.25 L-69.25 -33.3 Q-63.0 -26.5 -62.55 -26.5 -62.3 -26.5 -58.95 -24.5 L-54.0 -21.75 -52.3 -20.25 -52.3 -20.15 Q-52.0 -19.5 -51.3 -19.25 L-51.2 -19.25 -51.9 -19.95 -51.8 -20.1 -51.4 -20.8 -51.55 -21.1 -51.65 -21.1 M-88.35 -48.0 Q-89.35 -52.05 -91.15 -54.85 L-92.95 -57.25 -93.0 -55.85 -92.25 -53.85 -91.5 -52.65 -88.95 -48.1 -88.5 -47.3 -88.35 -48.0 M-52.15 -20.15 L-52.3 -20.25 -52.35 -20.8 -52.0 -20.1 -51.9 -19.95 -52.15 -20.15 M-26.4 -60.2 Q-27.7 -62.05 -27.7 -63.4 -27.7 -64.35 -26.55 -67.25 L-23.6 -74.0 Q-23.7 -75.15 -25.4 -72.55 L-27.55 -69.8 -31.65 -66.7 -36.2 -63.8 Q-38.45 -61.7 -38.45 -58.2 -38.45 -53.8 -35.8 -50.65 -34.55 -49.15 -30.5 -46.1 -27.6 -44.0 -22.15 -41.35 L-17.1 -39.15 Q-16.5 -39.15 -16.35 -39.45 L-16.05 -39.75 Q-15.05 -39.85 -5.85 -37.2 L-6.6 -38.15 Q-8.7 -39.55 -20.65 -44.9 -31.6 -50.9 -31.6 -57.35 -31.6 -59.55 -30.35 -59.65 L-26.4 -60.2 M-49.9 -29.9 L-52.25 -31.2 -52.95 -30.65 -52.9 -30.65 -52.5 -30.7 -49.9 -29.9 Q-40.6 -23.6 -34.45 -16.45 -30.8 -12.25 -29.7 -9.75 -28.75 -11.55 -28.1 -13.45 -27.95 -13.95 -27.3 -13.95 -26.1 -13.95 -23.8 -7.8 -21.35 -1.3 -21.35 3.25 L-21.6 9.35 -21.0 8.8 Q-19.95 7.4 -18.7 3.35 -17.55 -0.45 -17.55 -2.0 -17.55 -16.3 -27.85 -22.25 -31.55 -24.35 -38.25 -26.4 L-49.9 -29.9 M-15.55 -2.0 Q-15.55 4.4 -18.35 8.6 -20.5 11.8 -22.15 11.8 L-23.4 11.55 -23.5 3.4 Q-23.75 -2.4 -27.2 -10.8 -27.7 -8.25 -28.5 -7.5 -28.9 -7.2 -29.8 -7.2 -30.25 -7.2 -32.45 -10.5 -35.3 -14.75 -38.1 -17.4 -45.75 -24.6 -51.35 -28.55 -54.25 -30.6 -54.25 -31.3 -54.25 -32.3 -54.05 -32.4 L-52.4 -32.75 -38.65 -28.4 Q-30.8 -26.0 -26.9 -23.85 -15.55 -17.65 -15.55 -2.0 M-36.75 78.85 Q-36.75 75.6 -35.15 65.85 -33.4 55.3 -33.25 52.75 -32.6 43.25 -30.55 38.45 -29.4 35.85 -24.45 29.05 -22.05 25.75 -17.7 21.6 L-13.6 17.8 -9.9 12.8 Q-8.2 10.9 -6.6 11.05 L-6.5 12.95 Q-6.5 14.45 -10.1 19.95 L-16.1 28.8 Q-22.4 36.3 -24.65 46.95 -25.85 52.6 -26.9 60.45 -30.1 70.55 -31.9 75.1 -34.2 80.75 -35.4 80.75 -36.75 80.75 -36.75 78.85 M-34.2 74.95 Q-31.1 69.8 -28.75 58.35 L-25.0 40.55 Q-18.4 28.55 -14.1 22.3 -10.5 17.1 -10.0 16.05 L-10.95 17.5 -17.7 25.15 -26.3 35.25 Q-29.85 39.9 -31.25 51.9 -33.5 71.7 -34.2 74.95 M-7.85 57.5 Q-9.25 58.55 -13.9 66.9 L-19.0 75.95 -22.95 82.05 Q-26.35 87.35 -26.6 88.3 L-25.75 87.95 Q-17.15 82.75 -12.2 74.45 -7.5 66.5 -7.5 58.2 L-7.6 57.55 -7.85 57.5 M-28.3 90.15 Q-28.9 86.95 -26.5 83.0 L-20.75 75.05 -14.05 63.25 Q-9.75 55.5 -7.85 55.5 -7.05 55.5 -6.35 56.15 -5.5 56.95 -5.5 58.2 -5.5 64.65 -8.1 70.65 -9.85 74.7 -13.3 79.45 -17.4 85.0 -22.0 88.15 -25.35 90.45 -26.95 90.45 L-28.3 90.15 M-37.25 110.3 L-29.15 97.25 -29.9 97.5 Q-32.75 98.05 -33.95 99.95 -35.45 102.35 -37.25 110.3 M-29.5 101.25 Q-29.9 101.25 -32.75 107.45 -36.15 113.55 -39.2 113.3 L-39.3 111.95 Q-39.3 105.65 -36.2 100.4 -33.55 95.9 -31.5 95.9 L-29.9 95.45 -28.3 95.0 -27.4 95.2 Q-26.6 95.65 -26.6 96.7 L-26.7 97.45 -27.15 97.9 -28.15 99.9 Q-28.9 101.25 -29.5 101.25 M-10.25 117.45 Q-7.75 117.45 -4.8 111.2 L-2.05 104.3 -3.5 105.95 -12.45 115.85 -15.1 118.75 -15.0 119.2 Q-15.55 119.25 -14.55 119.25 L-10.25 117.45" fill="#624d40" fill-rule="evenodd" stroke="none"/>
    <path d="M63.9 -45.8 L63.0 -37.45 63.85 -38.2 Q65.8 -43.85 70.8 -48.5 74.95 -52.35 76.7 -52.35 77.2 -52.35 77.5 -51.7 L77.9 -50.8 Q77.5 -49.85 78.4 -50.35 L79.9 -51.4 Q81.15 -52.25 83.9 -55.2 L86.55 -58.3 Q86.55 -59.25 88.6 -60.3 90.45 -61.25 91.5 -61.3 100.1 -61.85 101.7 -63.05 105.15 -65.75 105.5 -66.2 L107.3 -68.9 110.6 -73.1 Q112.6 -76.3 112.4 -79.75 109.4 -78.85 108.65 -79.35 L108.45 -80.75 109.45 -84.7 112.5 -94.85 Q112.8 -94.85 114.0 -99.0 L115.45 -104.35 117.55 -104.35 110.55 -81.3 113.65 -82.05 113.95 -80.65 Q113.95 -78.55 112.7 -74.7 L110.5 -69.25 110.9 -70.3 Q108.35 -66.55 105.7 -63.95 100.65 -59.0 93.7 -59.35 L90.65 -59.2 Q89.65 -58.7 86.85 -55.25 80.95 -47.95 77.1 -47.95 L76.15 -48.1 75.8 -48.3 75.65 -49.45 75.75 -49.9 Q70.45 -46.45 66.9 -39.7 L64.65 -35.9 Q63.45 -34.4 61.75 -34.4 61.1 -34.4 60.9 -34.7 L60.75 -35.5 Q61.95 -44.15 61.95 -46.15 L61.0 -44.75 56.05 -37.75 Q51.45 -31.4 47.5 -27.65 L42.0 -22.65 Q37.15 -18.1 36.25 -16.15 35.05 -13.55 32.65 -5.05 30.9 0.9 29.6 0.9 L26.95 -0.15 26.7 0.3 Q27.3 2.75 26.8 3.45 L23.65 3.55 Q16.6 1.55 16.6 0.35 16.6 -0.25 15.8 -0.65 14.35 -1.4 13.95 -1.75 L13.8 -3.0 13.75 -2.95 13.75 -3.05 13.45 -2.8 12.8 -2.9 12.8 -2.75 13.95 -1.75 16.25 8.8 Q18.35 19.0 18.35 21.6 18.35 32.5 17.55 40.35 16.65 49.1 14.6 55.55 L27.7 35.95 Q30.8 31.55 32.15 31.55 34.55 31.55 35.25 33.7 35.9 35.55 35.6 40.95 L36.0 39.9 35.75 42.8 28.75 55.8 28.45 55.45 28.35 55.25 Q28.9 53.35 28.15 54.9 L28.45 54.15 32.15 47.15 Q33.75 43.1 33.75 37.1 33.75 34.7 32.15 33.55 L26.65 40.2 14.6 59.3 14.2 59.75 13.3 59.9 12.4 59.65 Q11.95 59.25 11.95 58.05 11.95 57.6 13.05 53.9 14.45 49.3 15.45 43.9 16.05 40.7 16.25 31.2 L16.35 21.55 Q16.35 18.85 14.05 9.4 11.75 -0.05 11.75 -3.0 11.75 -3.45 12.05 -3.95 12.5 -4.65 13.25 -4.65 14.25 -4.65 14.0 -4.4 17.05 -1.6 18.75 -0.5 21.9 1.55 23.75 1.55 L24.9 1.5 Q25.4 -0.6 25.15 -1.15 L26.85 -2.2 29.1 -1.3 30.8 -6.75 Q32.15 -11.35 33.55 -14.65 34.5 -16.85 38.05 -21.45 41.85 -26.45 43.1 -26.45 43.75 -26.45 48.85 -32.1 54.65 -38.5 57.55 -43.5 L59.55 -46.25 61.35 -48.85 Q61.8 -49.5 62.25 -49.5 L63.65 -49.25 Q64.15 -47.95 63.9 -45.8 M45.65 -69.05 L45.3 -67.95 45.25 -67.95 44.6 -68.1 Q45.05 -68.9 45.65 -69.05 M45.2 -64.7 L45.2 -64.55 45.2 -64.45 45.2 -64.7 M49.8 -48.75 L49.6 -48.3 49.7 -48.0 50.8 -47.95 Q50.8 -47.0 49.9 -47.0 47.0 -47.0 45.15 -50.05 42.95 -53.8 42.95 -61.5 42.95 -63.95 43.75 -66.3 L44.25 -67.5 44.15 -65.9 44.3 -64.45 44.95 -61.0 45.0 -60.0 Q45.7 -53.7 46.15 -52.55 46.6 -51.35 49.0 -49.25 L49.9 -50.2 49.7 -49.4 Q49.7 -48.75 49.8 -48.75 M115.75 -92.7 L116.7 -97.4 117.5 -99.6 115.75 -92.7 M58.75 121.6 Q54.1 124.95 46.3 126.85 L39.05 128.1 31.1 126.55 Q24.2 124.95 19.85 124.95 18.4 124.95 17.05 126.35 L14.45 129.5 Q10.3 134.05 2.35 134.05 -4.35 134.05 -14.0 130.4 L-22.8 126.75 Q-24.65 126.75 -26.6 127.7 -27.8 128.25 -30.45 129.75 -36.35 132.7 -45.6 132.7 L-49.2 132.2 -52.85 131.7 Q-53.35 131.7 -53.45 132.2 -53.55 132.7 -54.05 132.7 L-58.75 130.7 -63.4 128.7 Q-67.45 126.35 -71.45 121.75 L-78.25 114.0 Q-83.1 107.75 -83.5 103.85 L-82.5 102.95 Q-82.3 103.85 -79.95 108.35 -77.45 113.1 -76.35 114.2 L-76.25 114.15 Q-76.25 114.75 -75.85 115.2 L-74.9 115.65 Q-68.65 115.05 -64.95 112.25 L-51.9 101.1 Q-46.95 97.05 -42.95 87.25 -38.85 77.0 -38.85 67.7 -38.85 67.05 -39.0 67.0 L-39.3 66.95 -39.7 67.15 Q-39.55 67.0 -39.65 66.15 L-39.75 65.3 Q-39.45 53.8 -39.0 48.25 -38.55 43.35 -37.7 40.0 L-36.05 34.3 -35.15 31.45 Q-34.6 29.25 -33.05 27.95 L-29.8 25.6 Q-22.95 20.05 -18.95 17.4 -17.55 16.1 -12.55 7.5 L-10.85 5.3 Q-11.2 5.35 -10.75 5.05 L-11.5 4.4 -11.4 4.9 -12.55 7.5 Q-24.35 20.05 -29.15 20.05 -31.05 20.05 -31.75 19.5 -32.4 19.0 -32.4 17.7 -32.4 16.4 -31.2 12.3 -30.05 8.25 -30.05 6.15 -30.05 -0.15 -33.15 -3.85 -34.7 -5.7 -36.25 -6.4 -36.25 -6.75 -42.95 -8.55 -51.7 -10.85 -57.7 -13.4 -79.15 -22.6 -79.15 -39.25 -79.15 -39.9 -78.8 -40.1 L-78.2 -40.3 Q-77.65 -39.75 -76.45 -34.8 -75.2 -29.75 -72.35 -26.55 -71.65 -22.25 -60.25 -16.95 -54.2 -14.15 -46.4 -11.65 L-40.15 -9.75 -34.85 -8.0 Q-30.8 -5.9 -30.8 -3.85 L-30.95 -2.75 Q-30.95 -2.4 -30.25 -2.4 -29.7 -2.4 -28.85 0.95 -28.05 4.25 -28.05 6.15 -28.05 9.6 -30.4 17.7 -30.4 18.7 -29.6 18.05 -28.35 18.25 -25.45 16.5 -23.25 15.15 -21.45 13.6 -18.25 10.9 -16.4 8.9 L-14.25 6.45 -11.5 3.55 Q-11.2 3.25 -10.5 3.25 -9.3 3.25 -9.3 5.15 -9.3 5.85 -11.5 9.9 L-14.6 15.35 Q-15.75 17.2 -17.55 18.8 L-19.65 20.45 -27.15 26.1 Q-31.9 29.25 -32.9 31.45 -33.7 33.2 -35.8 40.55 -36.55 44.35 -37.7 62.05 L-39.1 81.7 Q-39.45 84.0 -40.55 87.35 -41.7 91.0 -43.05 93.75 -44.75 97.1 -47.85 101.15 L-51.35 105.25 Q-53.9 107.8 -56.75 110.35 L-59.4 112.6 Q-59.85 112.6 -61.0 114.0 -62.5 115.85 -62.5 118.1 -62.5 119.25 -61.9 120.15 -61.1 121.3 -59.7 121.3 -57.15 121.3 -54.35 117.95 -52.5 115.75 -49.0 109.95 -40.75 96.1 -35.05 91.7 L-34.05 91.85 -33.8 93.45 Q-36.25 100.9 -37.65 100.9 -37.9 100.9 -39.8 105.15 L-42.05 110.65 -43.75 118.15 Q-44.5 121.1 -46.0 123.7 -38.65 123.4 -33.4 113.75 -31.85 110.85 -29.55 105.2 L-26.1 97.35 Q-24.95 95.1 -20.4 91.3 L-14.55 86.05 Q-7.9 77.65 -5.3 71.6 -1.65 63.0 -1.65 51.1 L-2.3 44.5 -2.95 35.8 Q-2.95 28.15 0.45 23.35 1.55 21.8 2.8 20.75 L3.95 20.0 4.7 20.15 4.85 20.25 4.9 21.75 Q4.9 23.2 4.15 25.45 3.35 27.7 3.35 30.3 3.35 38.4 4.45 44.1 L5.5 49.8 Q5.5 50.8 4.55 54.7 L4.25 49.9 Q4.3 46.15 3.75 45.95 L3.3 42.95 3.35 46.15 Q3.1 47.15 2.75 51.6 2.75 46.0 2.05 39.75 1.35 33.45 1.35 30.3 1.35 28.9 2.3 24.15 0.95 25.75 0.0 29.0 -0.95 32.35 -0.95 35.8 L-0.3 44.3 0.35 51.05 Q0.35 59.6 -1.3 66.3 -3.3 74.55 -8.1 81.2 -13.75 89.0 -23.9 97.65 -25.15 97.65 -27.65 104.9 -30.65 113.65 -31.0 114.3 -33.75 119.0 -36.7 121.7 -41.8 126.3 -48.35 126.3 -48.85 126.3 -49.55 125.15 L-46.65 119.35 Q-46.0 118.0 -45.75 118.0 -45.65 116.65 -44.6 113.15 -42.55 106.0 -37.05 95.55 L-37.6 96.2 Q-39.85 99.0 -43.4 104.4 L-46.15 109.35 Q-48.9 114.25 -49.6 114.95 L-55.25 121.1 Q-57.45 123.3 -59.35 123.3 -60.95 123.3 -62.15 122.65 -64.5 121.4 -64.5 118.1 -64.5 114.6 -60.1 110.65 -52.65 103.9 -50.55 101.3 -64.8 113.8 -66.9 114.85 L-69.5 115.4 Q-71.65 115.65 -74.45 116.6 -68.6 124.3 -63.65 127.3 -60.65 129.1 -54.25 131.5 L-53.85 130.95 -52.85 130.7 -48.75 131.2 -44.65 131.7 -39.4 131.35 Q-36.05 130.9 -33.95 130.15 L-29.95 128.45 Q-27.0 127.05 -27.0 126.8 -27.0 126.45 -24.95 126.05 L-22.8 125.75 Q-11.05 130.5 -9.05 131.1 -2.75 133.05 2.35 133.05 L8.95 132.0 13.7 128.85 Q14.2 128.85 16.2 126.4 18.2 123.95 19.85 123.95 24.4 123.95 32.1 125.55 L39.4 127.1 Q42.15 127.1 46.9 125.75 52.85 124.05 58.0 121.15 L58.75 121.6 M-131.9 -104.35 L-129.9 -104.35 Q-129.75 -101.95 -128.9 -98.75 L-128.1 -97.15 -126.8 -94.15 Q-125.95 -92.35 -125.35 -92.35 L-120.05 -85.5 Q-121.95 -89.75 -123.55 -95.7 L-125.7 -104.35 -124.7 -104.35 -122.6 -95.25 Q-120.85 -88.5 -117.3 -81.85 -121.9 -85.1 -126.2 -91.95 -128.45 -95.45 -130.35 -99.2 -128.5 -94.0 -127.35 -92.0 L-125.65 -89.2 -127.35 -91.8 Q-130.6 -97.0 -131.3 -99.75 -131.7 -101.4 -131.9 -104.35 M-78.25 -104.35 L-77.95 -104.35 -77.2 -102.5 -78.25 -104.35 M-74.95 -104.35 L-72.65 -104.35 Q-66.5 -94.2 -62.15 -90.0 -61.9 -89.75 -58.25 -87.25 L-58.25 -87.7 -58.5 -91.0 Q-56.5 -88.85 -54.05 -88.75 L-50.8 -88.95 -50.8 -88.75 Q-51.4 -88.45 -51.8 -87.5 L-51.8 -87.85 -56.35 -88.45 Q-55.9 -87.25 -56.65 -86.1 -57.3 -85.15 -58.0 -85.15 -59.85 -85.15 -63.1 -88.05 -68.55 -92.95 -74.95 -104.35 M-50.1 -104.35 L-49.25 -104.35 -48.65 -99.25 Q-48.05 -94.15 -48.05 -91.15 L-48.35 -85.9 Q-48.7 -81.15 -49.0 -78.55 L-42.95 -80.2 -39.9 -80.75 Q-38.0 -81.3 -33.2 -86.6 L-34.1 -86.0 Q-39.45 -83.45 -41.85 -83.45 -43.8 -83.45 -45.1 -84.8 -46.6 -86.45 -46.6 -89.6 L-46.55 -91.65 Q-46.4 -92.95 -45.75 -92.95 -45.1 -92.95 -45.0 -95.75 L-45.0 -99.3 Q-45.0 -102.05 -45.55 -104.35 L-43.45 -104.35 Q-42.25 -101.0 -43.3 -95.05 L-44.6 -89.6 Q-44.6 -85.45 -41.8 -85.45 -41.3 -85.45 -40.35 -85.8 L-38.9 -86.2 Q-37.65 -86.2 -34.85 -87.95 -32.05 -89.75 -31.65 -89.75 -30.65 -89.75 -30.3 -89.35 L-29.9 -88.6 Q-30.05 -88.0 -31.1 -86.2 -30.45 -87.4 -30.25 -88.75 L-30.95 -88.45 Q-32.05 -86.35 -33.45 -84.55 -36.15 -81.05 -39.6 -80.0 L-44.0 -79.05 Q-48.2 -78.05 -50.15 -76.85 L-49.5 -84.05 Q-49.05 -88.85 -49.05 -90.7 L-49.55 -95.8 -50.25 -104.05 -50.1 -104.35 M-13.45 -104.35 L-11.45 -104.35 Q-11.5 -96.6 -10.5 -94.0 -9.55 -91.4 -9.55 -87.6 L-9.6 -86.3 Q-10.4 -84.9 -10.5 -83.7 L-10.35 -83.4 -10.3 -83.4 -12.6 -81.85 -12.65 -81.8 -12.7 -81.85 -12.75 -82.45 -12.15 -84.5 Q-11.55 -86.7 -11.55 -87.8 -11.55 -90.85 -12.55 -93.95 -13.5 -97.0 -13.45 -104.35 M11.2 -104.35 L13.75 -104.35 13.6 -103.2 13.2 -103.9 Q11.7 -100.5 8.0 -89.7 5.65 -83.0 3.35 -80.65 -3.0 -74.25 -8.0 -72.5 -9.55 -71.95 -12.6 -71.95 L-12.6 -71.8 -10.3 -67.3 -10.4 -66.6 Q-10.6 -66.2 -11.25 -66.2 -12.15 -66.2 -15.05 -66.95 -18.55 -67.8 -19.5 -68.75 -19.45 -68.35 -19.65 -68.35 L-19.8 -68.4 -19.9 -71.4 -19.7 -72.95 Q-18.8 -71.15 -17.8 -70.05 -16.0 -68.05 -13.1 -68.4 L-14.5 -70.85 -14.6 -72.0 Q-14.6 -72.95 -13.1 -73.5 L-9.2 -74.6 Q-2.45 -76.7 1.85 -82.05 4.4 -85.15 6.4 -91.0 9.75 -100.95 11.2 -104.35 M34.35 -104.35 L36.45 -104.35 36.75 -103.4 Q37.5 -100.85 38.3 -95.2 L39.0 -89.9 38.6 -87.25 38.2 -85.3 Q37.7 -84.3 36.7 -80.2 L36.15 -78.1 36.1 -78.3 37.35 -84.7 37.15 -86.55 37.05 -87.3 36.8 -88.25 Q37.65 -93.7 34.35 -104.35 M-9.35 -60.5 Q-9.9 -59.75 -10.8 -59.75 L-11.85 -59.8 -9.35 -60.5 M32.6 -83.05 L32.25 -82.8 32.15 -82.8 32.1 -84.35 31.9 -89.8 32.6 -83.05 M-20.1 -68.15 Q-19.9 -67.55 -20.05 -67.25 L-20.2 -67.1 -20.8 -67.15 -21.3 -68.7 -21.85 -71.9 -21.1 -71.8 -20.9 -71.75 -20.45 -68.1 -20.1 -68.15 M38.3 -54.9 L38.5 -54.8 37.1 -59.45 Q36.1 -62.75 36.1 -64.75 L36.9 -73.4 35.85 -72.3 36.2 -75.35 Q38.95 -76.35 38.95 -74.2 L38.1 -64.75 Q38.1 -62.7 39.55 -57.3 40.95 -51.9 40.95 -49.9 40.95 -44.95 40.3 -42.45 39.15 -38.2 35.7 -35.7 L35.45 -35.55 Q33.05 -33.55 28.9 -31.25 25.75 -29.45 25.1 -29.25 L22.3 -26.7 Q20.0 -24.65 17.85 -24.3 L17.85 -24.35 Q21.6 -28.7 27.25 -32.3 32.65 -35.65 34.2 -37.7 35.85 -38.45 37.25 -40.35 38.45 -41.65 38.8 -45.6 L38.95 -51.35 38.55 -51.15 38.3 -54.9 M35.95 -54.05 L35.9 -55.7 36.25 -53.1 35.95 -54.05 M11.4 -12.5 L12.3 -12.7 Q12.65 -12.95 12.65 -13.3 12.9 -13.5 13.55 -15.2 13.75 -10.55 12.0 -7.6 10.15 -4.55 6.05 -2.85 1.8 -1.1 -1.05 3.75 -3.45 7.95 -5.2 7.95 -6.2 7.95 -5.55 7.8 L-6.6 7.1 Q-7.0 6.7 -7.0 6.05 -6.5 5.15 -6.3 4.1 -5.9 2.05 -7.3 -0.15 L-11.2 -6.3 Q-12.15 -8.05 -12.15 -9.7 -12.15 -10.9 -11.25 -11.4 -10.75 -8.05 -10.35 -7.8 L-10.25 -7.85 -9.95 -8.25 -9.6 -6.5 -8.5 -5.6 -5.8 -1.35 Q-4.25 1.25 -4.25 2.7 -4.25 4.2 -4.65 5.55 L-4.35 5.35 -0.45 0.25 Q2.75 -3.5 4.0 -4.0 10.6 -6.7 11.4 -12.5 M14.15 -47.55 L16.15 -45.65 16.2 -45.6 16.55 -45.35 Q17.65 -44.4 18.1 -42.45 L18.4 -39.5 Q17.75 -36.55 16.6 -33.75 14.3 -28.1 11.8 -28.1 10.95 -28.1 10.8 -28.55 L10.6 -30.25 Q10.2 -34.1 6.85 -39.3 5.15 -42.0 1.65 -45.35 -1.15 -48.05 -1.15 -48.6 L-5.95 -49.55 Q-10.7 -50.55 -10.3 -51.4 -9.7 -52.6 -12.75 -53.6 -17.55 -55.15 -17.95 -55.4 L-17.25 -54.35 -15.45 -52.3 Q-14.25 -51.0 -13.6 -51.0 -12.8 -51.0 -10.05 -48.9 -6.95 -46.55 -6.5 -46.35 -1.55 -44.05 1.8 -39.4 5.0 -35.0 5.0 -31.0 5.0 -28.55 4.55 -27.6 4.25 -26.85 3.5 -26.85 3.05 -26.85 0.05 -28.3 -3.25 -29.9 -5.05 -30.3 L-22.6 -33.0 Q-27.15 -33.9 -32.6 -36.05 -37.95 -38.2 -37.95 -39.1 L-43.15 -47.15 Q-48.4 -56.2 -48.4 -61.8 -48.4 -65.15 -46.15 -66.45 -45.1 -67.05 -40.45 -68.15 -30.55 -70.45 -25.5 -79.05 L-26.1 -78.8 Q-31.45 -75.3 -34.15 -74.0 -40.7 -70.7 -45.95 -70.7 L-47.55 -70.9 Q-48.1 -71.15 -48.1 -71.9 -48.1 -72.9 -47.35 -74.45 -45.5 -75.5 -45.0 -77.05 L-45.05 -77.05 -44.45 -77.15 -44.45 -77.0 -45.75 -72.75 Q-37.65 -73.7 -33.5 -75.95 -31.15 -77.2 -28.85 -79.4 L-26.7 -80.75 Q-24.95 -81.5 -24.15 -81.15 -23.45 -80.8 -23.45 -79.5 L-23.55 -78.5 -23.65 -78.3 Q-24.75 -74.95 -29.9 -70.4 L-30.8 -69.8 Q-34.2 -67.75 -40.9 -66.1 -46.4 -64.75 -46.4 -61.9 -46.4 -57.5 -41.75 -47.25 -39.7 -42.7 -36.6 -40.75 -32.85 -39.1 -30.8 -37.85 -27.3 -35.7 -16.75 -34.3 -4.95 -32.75 2.85 -29.4 L3.0 -30.25 Q3.9 -33.5 -0.6 -38.6 -4.3 -42.85 -8.4 -45.2 L-14.75 -48.9 Q-20.1 -52.55 -20.1 -55.5 -20.1 -57.6 -18.2 -57.6 -17.35 -57.6 -14.1 -56.2 L-10.0 -54.4 -5.65 -54.2 Q-3.65 -54.2 -1.7 -50.95 L-1.7 -50.9 -5.5 -51.35 Q-8.65 -51.85 -8.85 -52.15 L-9.35 -51.7 Q-8.5 -51.0 -6.4 -50.45 L-3.0 -49.95 Q7.0 -49.95 8.9 -49.65 10.0 -49.45 14.15 -47.55 M23.8 -36.65 L24.15 -36.4 24.3 -35.9 23.8 -36.65 M16.35 -40.25 Q16.35 -43.2 12.25 -45.75 7.75 -48.5 1.7 -48.35 L2.45 -47.6 Q4.75 -45.8 8.35 -40.85 13.1 -34.3 12.2 -31.05 L12.7 -31.65 Q13.95 -33.5 15.05 -36.05 16.35 -38.95 16.35 -40.25 M-72.5 -54.35 Q-73.1 -54.45 -75.75 -59.55 -78.35 -64.45 -81.95 -64.45 -83.6 -64.45 -88.6 -62.2 -93.6 -60.0 -94.4 -60.0 -95.45 -60.0 -95.9 -60.5 -96.4 -61.05 -96.4 -62.45 -96.4 -63.85 -95.2 -65.0 L-91.9 -67.55 -91.75 -67.65 -88.0 -66.65 Q-91.55 -64.7 -92.1 -63.35 L-92.75 -61.65 -91.65 -61.7 Q-91.1 -63.95 -88.65 -65.25 -86.75 -66.3 -84.9 -66.3 -80.2 -66.3 -75.35 -64.15 -66.55 -60.25 -62.8 -50.6 -64.2 -51.65 -66.4 -52.7 L-68.7 -53.7 Q-69.25 -53.85 -72.6 -55.95 L-72.95 -55.45 -72.5 -54.35 M-11.35 -30.3 Q-10.75 -30.5 -4.1 -28.6 2.8 -26.6 4.05 -25.45 L7.45 -22.3 Q9.45 -19.65 9.45 -15.55 9.45 -13.5 7.7 -13.5 6.85 -13.5 5.75 -17.0 5.1 -19.05 1.0 -20.65 -0.9 -21.1 -5.8 -23.65 -12.1 -26.9 -12.1 -29.1 L-11.85 -30.0 -11.35 -30.3 M5.9 -20.75 Q2.95 -23.7 -0.05 -25.2 -3.45 -26.9 -7.35 -26.95 L-6.2 -26.1 Q-3.5 -24.6 1.25 -22.7 4.35 -21.45 6.3 -19.55 L6.1 -20.3 5.9 -20.75 M-20.2 105.1 Q-14.5 99.65 -12.45 98.05 L-6.35 94.05 Q0.0 90.1 4.7 83.3 L8.7 77.45 10.3 77.75 10.5 79.0 Q9.4 86.2 3.65 92.75 0.75 96.1 -2.35 98.4 L-11.7 106.0 Q-20.15 114.05 -20.15 120.05 -20.15 121.5 -17.0 123.15 -13.95 124.8 -11.45 124.8 L-9.05 124.75 Q-7.4 124.6 -7.4 123.95 L-5.45 121.75 Q-3.45 119.5 -3.15 118.6 L-1.2 111.9 Q0.7 106.7 3.15 106.7 4.2 106.7 4.4 109.2 L4.65 114.75 Q5.45 122.75 12.15 122.75 L14.25 122.35 Q15.4 121.95 15.4 121.45 11.7 106.95 11.7 103.95 11.7 98.35 14.1 95.5 15.8 93.5 17.55 93.5 21.35 93.5 23.65 97.4 24.8 99.4 26.85 105.95 28.75 111.95 30.6 114.5 33.5 118.4 38.3 118.4 41.85 118.4 41.85 113.8 L39.4 108.5 Q36.8 102.6 36.05 99.6 L35.25 94.55 34.8 90.05 35.2 79.4 Q35.35 77.4 34.35 72.1 28.9 72.25 24.1 89.4 L23.65 90.05 22.7 90.3 Q20.75 90.3 20.75 81.5 20.75 76.5 22.6 71.25 L24.65 66.35 Q25.55 63.7 26.0 62.85 L26.95 61.7 25.3 69.35 Q24.15 73.95 22.85 75.55 L23.3 75.15 23.0 76.55 23.1 77.45 Q22.75 80.3 22.75 81.5 L22.95 86.05 Q24.75 77.5 28.65 73.25 31.5 70.1 34.35 70.1 36.2 70.1 36.7 75.65 L37.1 92.05 Q37.15 94.65 37.55 96.95 L38.0 99.15 38.75 101.45 39.55 103.55 41.85 108.3 Q43.85 112.6 43.85 114.05 43.85 116.45 42.8 118.1 41.4 120.4 38.3 120.4 36.45 120.4 33.35 119.35 29.45 118.0 29.45 116.15 L23.05 100.85 Q21.55 97.85 20.45 96.75 19.25 95.5 17.55 95.5 15.4 95.5 13.9 101.55 L14.55 101.25 Q14.25 101.45 14.05 103.0 L14.05 103.05 13.85 109.0 Q13.85 109.7 14.4 112.65 15.0 115.95 15.5 116.75 L18.2 120.9 18.8 121.15 19.2 122.3 17.95 122.05 17.4 121.8 Q16.65 123.2 14.9 124.05 13.35 124.75 11.65 124.75 6.9 124.75 4.3 120.55 2.35 117.4 2.35 114.0 2.35 112.4 2.65 109.4 L1.95 110.3 Q0.25 114.25 -2.4 121.5 -5.3 126.8 -11.45 126.8 -13.5 126.8 -17.0 125.4 -22.15 123.4 -22.15 120.05 -22.15 115.15 -18.8 110.75 -16.55 107.85 -10.75 103.1 -3.7 97.35 -0.95 94.5 4.6 88.9 7.65 82.55 L2.2 89.6 -5.25 95.7 -10.6 99.95 -18.15 105.85 Q-22.15 109.5 -23.7 113.8 L-25.0 118.7 -24.65 114.3 -21.1 106.2 -20.9 105.85 -20.2 105.1 M35.25 46.9 L35.05 47.45 34.4 48.4 35.25 46.9 M12.95 58.2 L13.0 58.15 12.95 58.15 12.95 58.2 M0.1 70.1 L2.0 60.3 Q1.35 65.8 0.1 70.1 M7.65 82.55 L9.3 79.5 8.9 79.3 8.55 78.8 8.5 78.95 8.5 79.05 7.65 82.55 M-193.1 -99.6 Q-192.4 -99.55 -191.75 -98.4 L-190.2 -95.95 Q-187.3 -92.45 -179.65 -92.4 L-175.55 -92.25 -174.3 -92.15 Q-169.25 -90.9 -163.0 -90.25 L-153.7 -89.75 -149.9 -90.0 -150.4 -89.5 -150.9 -88.9 -167.65 -89.4 -186.05 -91.45 -188.7 -92.8 -191.15 -93.95 Q-191.95 -95.2 -192.45 -97.0 L-192.9 -98.65 Q-193.5 -98.65 -193.35 -98.95 -193.1 -99.5 -193.15 -99.6 L-193.1 -99.6 M-64.6 -83.85 L-63.65 -82.45 -63.7 -82.45 -64.6 -83.85 M-147.4 -99.5 L-147.25 -100.05 -146.6 -99.6 Q-146.45 -99.25 -146.4 -95.5 L-147.4 -99.5 M-85.95 -53.6 L-86.7 -54.3 -86.05 -54.05 -85.4 -54.45 -85.25 -54.35 -85.2 -54.35 -85.15 -54.3 -85.05 -54.15 Q-85.3 -53.7 -85.0 -53.55 L-84.85 -53.35 -84.45 -52.1 -85.15 -52.9 -85.95 -53.6 M-93.55 -62.35 L-92.85 -64.0 -92.3 -64.8 -93.4 -64.1 -94.35 -62.55 -93.95 -62.25 -93.55 -62.35 M-135.9 -87.2 L-135.8 -87.15 -135.85 -86.1 Q-135.85 -86.25 -136.25 -86.25 -135.9 -86.7 -135.9 -87.2 M-138.75 -76.15 L-138.15 -77.55 -137.65 -76.15 -137.7 -76.1 -137.85 -76.35 -138.65 -75.95 -138.75 -76.15 M-12.6 -81.85 L-12.6 -81.9 -12.6 -81.85 M-33.15 -83.3 L-35.1 -81.5 Q-36.95 -79.85 -37.8 -79.6 -35.4 -81.15 -33.15 -83.3 M-75.05 -62.1 Q-71.95 -56.35 -69.85 -55.25 -67.3 -54.6 -65.0 -53.1 L-65.95 -54.75 Q-67.85 -59.3 -76.0 -63.3 L-75.05 -62.1 M-44.15 -34.25 L-45.25 -35.65 -46.5 -37.3 -43.25 -34.15 -44.15 -34.25 M-48.95 52.35 Q-48.05 45.25 -46.65 40.6 -44.1 31.85 -37.9 31.05 L-37.75 32.4 -38.55 34.9 -40.7 41.45 -41.85 47.35 Q-42.55 50.5 -43.65 50.5 L-47.4 53.7 -48.15 53.25 -48.95 52.35 M-60.8 90.15 Q-53.65 86.75 -50.1 78.95 -47.3 70.45 -45.55 67.55 L-46.95 68.45 Q-49.85 70.5 -50.85 72.15 L-53.0 77.5 Q-55.2 83.3 -57.15 87.6 L-62.25 90.55 -60.8 90.15 M-45.95 50.25 Q-44.35 48.2 -42.55 41.8 L-40.45 34.25 -41.4 35.2 Q-45.7 42.55 -45.75 43.65 -45.75 47.85 -46.5 50.9 L-45.95 50.25 M-63.65 92.7 L-64.85 92.6 Q-65.35 92.4 -65.35 91.75 -65.35 89.0 -61.1 87.25 -56.85 85.5 -56.85 82.25 L-56.6 81.25 -56.15 80.35 -55.7 78.0 Q-55.5 76.8 -54.9 76.8 -54.55 76.8 -53.65 74.25 -52.5 70.9 -50.45 68.65 -45.3 64.9 -44.7 64.9 -44.7 65.55 -43.55 65.2 L-43.35 67.0 Q-43.35 67.4 -45.9 73.95 L-49.05 81.6 Q-53.75 89.2 -59.15 91.8 -60.9 92.65 -62.4 92.85 L-63.65 92.7 Q-63.65 93.45 -64.0 93.1 -64.35 92.7 -63.65 92.7 M-19.0 98.75 L-20.8 101.85 -23.3 105.85 -21.15 102.25 -19.0 98.75" fill="#503e33" fill-rule="evenodd" stroke="none"/>
    <path d="M45.2 -64.55 L45.85 -61.45 46.65 -61.65 46.25 -62.7 Q46.1 -62.7 46.2 -64.75 46.3 -66.85 46.55 -67.65 L46.55 -67.3 Q51.4 -58.25 52.3 -57.45 54.25 -56.8 57.95 -53.9 56.65 -52.9 55.4 -52.15 L49.9 -48.9 49.8 -48.75 Q49.7 -48.75 49.7 -49.4 L49.9 -50.2 50.0 -50.35 50.6 -50.9 56.2 -54.0 Q51.9 -56.3 51.0 -57.5 50.15 -58.65 47.15 -64.1 L47.2 -62.95 Q47.05 -61.9 47.7 -61.1 47.9 -60.9 46.1 -60.45 45.35 -60.55 44.95 -61.0 L45.0 -61.95 45.2 -64.45 45.2 -64.55 M113.95 -80.65 L115.75 -92.7 117.5 -99.6 119.5 -104.35 120.25 -104.35 Q117.1 -96.0 116.75 -92.35 115.85 -83.1 115.3 -80.7 L113.85 -75.8 Q111.8 -67.4 108.05 -62.25 102.85 -55.15 95.0 -55.15 94.35 -55.15 92.8 -56.0 L91.25 -56.9 Q90.25 -56.9 89.95 -56.25 92.1 -53.55 95.6 -53.55 L97.55 -53.65 Q96.0 -52.45 83.2 -44.2 L79.35 -41.7 Q76.65 -40.7 73.9 -38.9 71.4 -37.25 69.35 -35.2 L70.15 -36.55 71.6 -39.05 74.7 -45.05 73.8 -44.3 Q72.4 -42.95 68.95 -36.8 65.65 -30.95 57.4 -23.5 L49.05 -16.1 44.25 -11.85 Q38.85 -6.75 35.5 3.8 34.05 8.2 33.25 9.6 31.85 11.9 29.5 11.9 L27.85 11.65 26.3 11.35 Q25.3 11.25 24.3 10.4 L22.95 9.2 22.65 9.7 Q23.05 10.95 25.7 12.2 28.2 13.35 29.85 13.35 32.25 13.35 34.05 10.85 35.45 8.95 37.15 4.35 L37.2 8.4 36.5 13.75 35.75 18.8 Q35.75 21.25 37.05 25.4 38.3 29.5 38.3 33.25 38.3 35.75 37.45 38.35 L35.75 42.8 36.0 39.9 37.3 33.25 Q37.3 28.55 34.9 20.75 L34.9 17.75 36.1 9.4 35.35 10.75 Q34.65 12.55 32.85 13.6 31.55 14.4 30.6 14.4 28.35 14.4 25.3 13.1 21.65 11.55 21.65 9.6 L23.05 8.2 24.2 8.9 25.0 9.7 Q25.0 10.25 29.4 10.9 31.2 10.9 32.4 8.55 L34.8 2.45 Q38.9 -8.45 46.7 -15.3 59.7 -26.75 67.95 -38.2 L72.1 -44.05 Q73.65 -46.05 74.75 -46.05 L75.6 -45.8 75.75 -44.9 72.4 -38.4 94.35 -52.6 Q93.75 -52.6 91.6 -53.65 88.95 -54.95 88.95 -56.1 L89.2 -57.05 89.4 -57.55 91.25 -57.9 93.2 -56.85 Q94.45 -56.15 95.45 -56.15 98.1 -56.15 101.7 -58.35 107.45 -61.9 110.5 -69.25 L112.7 -74.7 Q113.95 -78.55 113.95 -80.65 M65.45 105.55 L63.15 108.7 Q61.45 110.7 61.45 112.85 L61.45 117.3 Q61.1 119.75 58.75 121.6 L58.0 121.15 58.95 120.35 Q53.25 118.1 47.1 109.35 40.65 100.1 40.65 92.9 L41.7 86.3 Q42.75 79.85 42.75 77.75 42.75 72.45 40.65 66.45 36.1 53.4 34.95 49.4 32.3 54.1 30.4 58.55 28.9 62.1 28.8 63.05 28.1 67.8 26.1 72.15 L23.95 76.15 23.1 77.45 23.0 76.55 23.3 75.15 Q26.7 70.3 27.8 63.65 28.95 56.75 34.4 48.4 L35.05 47.45 35.25 46.9 35.5 46.5 36.85 52.2 Q38.3 58.0 39.35 59.85 43.75 67.65 43.75 77.75 43.75 83.65 42.7 87.6 41.65 91.6 41.65 92.9 41.65 100.05 47.7 108.1 53.1 115.3 57.0 118.1 59.0 119.5 59.85 119.45 L60.4 119.35 60.25 118.95 Q52.9 113.95 47.9 106.25 43.1 98.85 43.1 93.3 L43.3 90.65 Q47.4 95.7 54.4 100.6 61.55 105.55 64.95 105.55 L65.45 105.55 M-83.5 103.85 L-83.55 103.85 -83.55 102.65 Q-83.55 101.1 -82.8 100.0 -82.3 99.2 -81.55 99.0 L-81.05 98.9 -80.4 98.9 -81.7 100.35 -82.35 101.85 -82.5 102.95 -83.5 103.85 M-79.05 -104.35 L-78.25 -104.35 -77.2 -102.5 Q-70.35 -91.85 -68.4 -89.3 L-66.2 -86.25 -64.6 -83.85 -63.7 -82.45 -63.65 -82.45 Q-61.15 -78.45 -59.3 -77.4 L-58.1 -76.95 -56.5 -76.65 Q-53.7 -76.65 -52.95 -77.75 -51.5 -79.85 -51.8 -87.5 -51.4 -88.45 -50.8 -88.75 -50.85 -76.1 -52.85 -73.6 L-54.6 -71.6 Q-55.6 -69.95 -56.15 -66.2 -59.2 -73.25 -61.15 -76.4 L-66.85 -84.95 -75.9 -97.8 Q-78.65 -101.5 -79.05 -104.35 M-4.8 -104.35 L-3.85 -104.35 -4.1 -89.75 Q-4.0 -88.25 -5.25 -87.05 L-10.2 -83.45 -10.3 -83.4 -10.35 -83.4 -10.5 -83.7 Q-10.4 -84.9 -9.6 -86.3 L-9.9 -84.8 -5.0 -88.15 Q-5.2 -96.9 -4.8 -104.35 M13.75 -104.35 L15.5 -104.35 Q13.5 -92.65 12.0 -87.85 9.55 -80.0 3.3 -74.2 0.5 -71.65 -3.25 -66.55 L-6.65 -61.7 Q-7.45 -60.0 -9.05 -59.55 L-11.45 -58.9 -9.8 -58.45 Q-6.85 -59.15 -5.25 -61.55 -2.35 -65.85 -0.85 -67.3 1.75 -62.1 4.85 -59.25 9.55 -55.0 13.85 -49.15 L10.8 -50.05 Q6.05 -51.8 2.55 -51.5 L3.35 -52.05 4.7 -52.45 7.4 -52.1 11.2 -50.95 3.6 -59.25 Q-0.4 -63.4 -1.05 -65.55 L-4.45 -60.85 Q-6.4 -58.2 -8.8 -57.65 -11.65 -57.6 -12.25 -58.2 -12.55 -58.5 -12.4 -59.2 L-11.85 -59.8 -10.8 -59.75 Q-9.9 -59.75 -9.35 -60.5 -8.65 -60.95 -7.85 -61.9 L-6.5 -63.7 -1.2 -70.15 2.65 -74.9 6.45 -79.6 Q10.45 -84.9 11.2 -88.1 L14.1 -103.0 13.6 -103.2 13.75 -104.35 M30.0 -104.35 L31.8 -104.35 Q31.55 -104.1 31.2 -104.15 31.0 -104.2 31.0 -103.65 L31.9 -89.8 32.1 -84.35 Q31.2 -91.75 30.0 -104.35 M36.8 -88.25 L37.05 -87.3 37.15 -86.55 Q36.9 -87.05 36.45 -87.05 36.55 -84.05 35.85 -80.9 35.2 -78.1 33.6 -73.8 L33.45 -74.4 Q33.05 -76.15 32.25 -82.8 L32.6 -83.05 33.75 -77.1 Q35.05 -81.25 35.65 -85.35 36.0 -87.65 36.8 -88.25 M36.1 -78.3 L36.15 -78.1 34.85 -74.3 35.1 -74.55 36.2 -75.35 35.85 -72.3 34.85 -70.45 Q34.3 -69.2 34.3 -67.55 34.3 -66.55 36.85 -54.4 L37.65 -55.1 38.3 -55.05 38.3 -54.9 38.55 -51.15 38.55 -51.1 38.3 -51.05 37.45 -51.4 Q38.4 -49.1 38.05 -45.55 37.75 -42.35 36.55 -39.85 L36.75 -40.0 37.25 -40.35 Q35.85 -38.45 34.2 -37.7 L36.55 -41.8 Q37.15 -43.6 37.15 -47.65 37.15 -50.15 36.25 -53.1 L35.9 -55.7 35.95 -54.05 Q33.3 -64.65 33.3 -67.5 33.3 -70.2 34.55 -74.1 L36.1 -78.3 M11.4 -12.5 L11.3 -12.75 11.2 -13.65 Q11.2 -17.45 14.45 -23.6 18.75 -31.7 25.35 -33.95 L24.3 -35.9 24.15 -36.4 23.8 -36.65 18.25 -44.15 Q18.25 -44.1 16.55 -45.35 L16.2 -45.6 16.15 -45.65 14.15 -47.55 Q17.6 -46.55 21.3 -42.25 24.85 -38.2 26.8 -33.45 18.55 -30.4 14.65 -21.9 13.4 -19.25 12.7 -16.2 L12.15 -13.4 12.65 -13.3 Q12.65 -12.95 12.3 -12.7 L11.4 -12.5 M-45.05 -77.05 L-45.0 -77.05 Q-45.5 -75.5 -47.35 -74.45 L-47.0 -75.5 Q-50.75 -73.1 -52.35 -70.0 -53.85 -67.0 -53.85 -62.15 -53.85 -55.55 -48.85 -45.6 -45.25 -38.4 -43.45 -36.45 -42.0 -34.9 -30.9 -31.25 -19.45 -27.5 -17.05 -25.6 -12.5 -21.95 -10.4 -16.55 -8.95 -12.8 -8.95 -9.2 L-8.9 -7.1 -8.5 -5.6 -9.6 -6.5 -9.95 -8.25 Q-8.8 -13.25 -12.75 -19.35 -16.95 -25.85 -23.95 -28.4 -30.5 -30.8 -31.7 -30.6 -32.6 -30.4 -36.05 -31.9 -38.1 -32.75 -41.9 -34.0 L-43.7 -36.2 Q-45.9 -38.3 -46.1 -38.95 L-49.4 -44.85 Q-52.7 -50.3 -54.1 -56.7 -54.8 -59.9 -54.85 -62.15 -54.85 -68.8 -52.1 -72.6 -49.65 -76.1 -45.05 -77.05 M116.55 -81.35 L119.05 -81.2 129.05 -81.95 Q129.9 -81.95 130.9 -81.4 L134.45 -81.3 139.15 -81.2 Q134.25 -81.3 125.8 -79.65 117.75 -78.15 115.8 -76.95 L116.55 -81.35 M-39.75 65.3 L-39.65 66.15 Q-39.55 67.0 -39.7 67.15 -40.1 75.1 -42.5 82.9 -46.0 94.0 -52.5 99.7 L-63.15 109.75 Q-69.05 114.65 -75.6 114.85 L-75.55 115.15 Q-75.3 115.55 -74.9 115.65 L-75.85 115.2 Q-76.25 114.75 -76.25 114.15 L-70.85 113.15 Q-66.65 112.0 -64.2 109.25 -51.7 97.9 -49.7 95.15 -45.55 89.7 -43.2 81.5 L-41.65 74.4 Q-40.7 68.1 -39.75 65.3 M2.75 51.6 Q3.1 47.15 3.35 46.15 3.95 59.45 2.05 67.9 -0.75 80.6 -9.65 90.1 -17.35 98.35 -19.85 102.15 -24.0 108.4 -26.45 117.95 -26.4 119.0 -26.1 118.65 L-24.65 114.3 -25.0 118.7 -25.8 119.5 -26.2 119.75 -27.0 119.6 -27.2 119.45 -27.45 118.0 -26.4 111.9 Q-25.4 110.6 -23.3 105.85 L-20.8 101.85 -19.0 98.75 Q-16.15 95.05 -12.8 91.8 L-8.15 87.2 Q-3.7 82.2 0.1 70.1 1.35 65.8 2.0 60.3 L2.05 59.9 2.1 59.75 2.4 56.4 2.75 51.6 M3.75 45.95 Q4.3 46.15 4.25 49.9 L3.75 45.95 M19.2 122.3 L18.8 121.15 Q19.55 121.45 19.65 121.15 L17.15 117.95 Q14.8 114.5 14.8 108.9 15.15 102.55 14.9 102.15 L14.55 102.25 14.05 103.05 14.05 103.0 Q14.25 101.45 14.55 101.25 L14.6 101.2 Q15.75 101.7 16.0 102.9 16.2 103.95 15.9 107.3 15.55 111.2 18.05 116.55 19.3 119.25 20.65 121.25 L20.25 121.8 19.2 122.3 M44.25 94.7 Q43.45 97.65 49.55 107.25 55.85 117.25 60.25 117.85 L60.45 117.05 60.55 116.95 Q60.35 111.4 61.3 109.1 61.85 107.75 64.0 105.9 59.2 104.8 53.25 101.3 46.45 97.35 44.1 93.45 L44.25 94.7 M-191.15 -93.95 L-188.7 -92.8 -186.05 -91.45 -188.05 -92.15 Q-183.85 -88.45 -175.7 -86.85 -170.0 -85.7 -161.25 -85.45 L-159.45 -85.25 Q-156.2 -85.25 -154.05 -84.25 L-150.65 -82.15 -150.55 -88.95 -150.9 -88.9 -150.4 -89.5 -149.9 -90.0 Q-149.6 -89.65 -149.6 -79.9 -151.7 -82.8 -157.0 -83.85 L-168.0 -84.9 Q-184.15 -86.15 -191.0 -93.75 L-191.15 -93.95 M-147.4 -99.5 L-146.4 -95.5 -146.4 -93.4 -146.7 -93.35 -147.25 -93.2 -147.7 -82.5 Q-147.7 -78.65 -147.15 -77.5 -146.25 -75.6 -145.8 -72.75 L-145.05 -74.5 Q-144.3 -75.85 -143.4 -75.85 L-142.6 -75.65 -142.4 -75.45 Q-144.75 -64.1 -139.75 -59.0 -135.5 -54.65 -125.6 -54.65 -121.0 -54.65 -111.3 -51.95 -101.6 -49.25 -100.9 -47.75 L-100.7 -48.25 Q-100.45 -48.6 -99.85 -48.6 -99.15 -48.6 -93.75 -39.8 -87.9 -30.2 -84.55 -27.9 L-84.25 -33.55 -84.0 -36.85 -82.9 -37.05 -82.1 -36.85 -81.9 -36.7 -81.65 -30.3 Q-81.5 -27.0 -81.05 -24.7 L-79.1 -19.4 Q-77.1 -14.05 -76.7 -13.7 -73.9 -11.3 -70.6 -10.3 -68.4 -9.6 -68.4 -8.8 -68.4 -8.25 -63.55 -6.15 -57.85 -3.7 -56.05 -2.3 -50.0 2.45 -46.0 10.0 -41.85 17.7 -41.85 24.65 -41.85 25.1 -42.25 25.35 L-43.0 25.7 -44.05 24.7 -45.65 20.3 -45.85 21.85 -46.8 27.7 -46.4 33.2 -48.6 38.45 Q-49.15 38.45 -50.15 40.25 -51.6 42.95 -51.6 47.45 L-51.05 51.75 -50.55 56.9 Q-50.55 60.4 -51.0 62.7 -51.65 66.35 -53.55 69.15 L-56.45 73.75 -58.2 76.4 Q-58.45 76.4 -59.5 79.7 L-60.85 83.65 Q-61.35 84.6 -67.3 90.3 L-71.45 94.9 -74.1 97.85 Q-76.5 99.4 -78.4 98.5 L-76.95 97.95 -75.05 96.95 Q-73.95 96.95 -73.45 95.85 -72.45 93.7 -69.95 91.35 -62.05 83.95 -61.6 82.8 L-59.15 76.0 Q-58.0 73.05 -56.15 71.0 -54.3 68.9 -53.05 65.6 -51.55 61.65 -51.55 57.45 -51.55 55.5 -52.05 52.1 L-52.6 47.45 Q-52.6 43.0 -51.4 40.6 L-49.45 37.9 -48.1 34.9 -47.45 32.9 -47.8 27.7 Q-47.8 26.45 -46.0 16.55 L-43.75 22.85 Q-43.3 24.25 -42.85 24.7 -43.05 19.6 -45.3 13.7 -47.1 9.0 -49.2 5.95 -51.55 2.6 -54.7 0.05 L-59.35 -3.65 Q-59.85 -4.1 -68.85 -7.9 -77.75 -12.05 -78.65 -14.7 -80.35 -19.9 -82.0 -24.4 -82.75 -26.65 -82.75 -28.3 L-82.7 -32.1 Q-82.7 -35.3 -82.9 -36.1 -83.0 -35.95 -83.25 -35.9 L-83.4 -30.45 -83.6 -26.95 -83.55 -25.5 -86.5 -28.4 -89.95 -31.9 Q-92.3 -34.5 -95.55 -40.4 -99.1 -46.75 -99.8 -47.65 L-100.0 -47.35 Q-99.9 -46.0 -99.15 -44.25 L-99.9 -45.1 Q-102.4 -49.25 -113.55 -51.75 -119.3 -53.05 -125.75 -53.7 L-131.75 -54.5 Q-135.45 -55.0 -137.7 -56.1 -144.05 -59.2 -144.05 -69.25 L-143.4 -74.9 -144.5 -73.9 Q-145.05 -72.5 -145.1 -68.45 L-145.35 -68.95 Q-147.8 -75.35 -148.25 -77.3 -148.7 -79.05 -148.7 -82.5 -148.7 -93.45 -148.3 -94.8 -147.55 -97.2 -147.4 -99.5 M-21.1 106.2 L-20.95 105.9 -20.9 105.85 -21.1 106.2" fill="#403229" fill-rule="evenodd" stroke="none"/>
    <path d="M98.95 -104.35 L97.75 -97.55 Q96.65 -91.8 95.95 -89.9 94.1 -84.85 93.55 -81.3 L92.95 -77.95 Q92.4 -76.95 89.5 -74.7 L78.65 -66.3 76.9 -65.2 68.3 -60.45 Q64.45 -58.35 62.5 -56.8 L60.05 -55.0 58.9 -54.7 Q57.75 -54.7 56.85 -55.3 L56.0 -56.05 51.85 -59.85 Q51.5 -59.85 49.25 -63.4 46.8 -67.35 46.8 -69.5 46.8 -71.6 51.1 -75.5 L57.9 -81.9 Q61.55 -86.3 61.95 -88.0 62.5 -90.5 62.5 -104.35 L63.5 -104.35 Q63.55 -91.0 62.8 -87.8 62.35 -85.95 58.75 -81.4 L53.1 -75.25 48.75 -71.0 Q48.1 -71.0 48.0 -70.7 L47.95 -69.65 Q47.95 -65.6 52.65 -60.45 56.95 -55.75 59.05 -55.75 L64.7 -59.45 Q70.8 -63.4 73.75 -64.65 L78.15 -67.15 Q87.15 -73.05 90.0 -76.15 91.35 -77.65 92.15 -80.4 96.2 -94.05 96.55 -97.25 97.05 -101.0 97.95 -104.35 L98.95 -104.35 M121.5 -104.35 L122.55 -104.35 118.35 -93.8 Q118.6 -92.7 117.6 -87.9 128.3 -88.3 133.05 -88.15 133.5 -88.35 134.6 -90.95 135.75 -93.65 135.75 -94.95 L136.15 -98.7 136.5 -104.35 137.5 -104.35 Q138.25 -96.8 135.1 -89.15 134.1 -86.75 125.9 -86.55 L117.05 -86.85 116.45 -86.95 116.55 -87.35 Q117.95 -94.5 117.65 -95.25 L121.5 -104.35 M141.4 -104.35 L142.4 -104.35 Q141.95 -95.35 141.5 -93.25 141.15 -91.7 141.15 -90.75 141.15 -90.25 141.55 -89.7 L141.9 -88.7 Q141.9 -88.05 142.05 -88.05 L142.95 -88.2 152.55 -89.05 165.6 -88.2 Q176.05 -88.2 178.45 -92.4 179.4 -94.0 179.85 -97.4 L180.8 -104.0 Q180.7 -104.2 181.25 -104.3 L181.8 -104.35 Q181.7 -97.7 180.85 -95.15 179.95 -93.5 179.7 -92.45 179.1 -90.05 174.2 -88.5 169.95 -87.2 165.15 -87.2 L152.6 -88.05 142.75 -87.2 Q141.7 -87.2 140.95 -88.1 140.15 -89.1 140.15 -90.7 140.15 -92.75 140.65 -94.5 141.25 -96.4 141.4 -104.35 M193.9 -104.35 L194.9 -104.35 Q191.85 -94.9 190.45 -91.5 188.15 -86.05 185.45 -83.2 179.9 -77.45 164.8 -77.45 L152.65 -78.4 143.65 -79.35 134.45 -78.8 130.3 -78.25 123.3 -77.65 Q120.8 -77.4 118.3 -76.15 L115.75 -74.65 Q113.3 -66.85 111.2 -63.0 109.65 -60.15 107.45 -58.2 106.45 -57.35 102.6 -54.85 L99.0 -52.55 Q99.0 -51.95 91.45 -47.15 84.05 -42.5 80.55 -40.8 72.5 -36.6 67.5 -31.1 60.25 -23.05 55.65 -19.4 48.15 -13.45 43.5 -8.1 39.35 -3.3 39.35 -1.3 L39.1 0.0 38.7 1.9 Q38.6 3.3 38.85 5.2 L39.1 8.05 Q38.8 13.9 38.2 16.15 37.7 18.0 37.7 19.15 37.7 22.05 38.95 25.25 40.2 28.4 40.2 33.9 40.2 36.8 38.9 40.85 37.6 44.85 37.6 46.7 37.6 50.35 41.7 61.0 45.75 71.65 45.75 77.25 45.75 80.6 45.1 84.35 L44.3 88.2 53.6 98.25 56.85 100.45 Q63.25 103.6 63.3 103.95 59.05 104.5 53.35 99.2 L47.8 93.95 Q44.8 90.95 43.25 88.25 L44.0 85.05 44.7 77.3 Q44.7 71.85 40.65 61.4 36.6 50.9 36.6 46.65 36.6 44.4 37.9 40.5 39.2 36.6 39.2 33.85 L39.25 30.2 Q39.15 27.25 38.5 27.25 36.7 25.9 36.7 19.2 36.7 17.45 37.4 14.35 38.1 11.2 38.1 8.0 38.1 -0.85 39.0 -3.5 39.95 -6.3 44.75 -11.0 L54.6 -20.25 Q63.15 -28.35 67.45 -33.25 L69.3 -35.2 69.35 -35.2 Q71.4 -37.25 73.9 -38.9 76.65 -40.7 79.35 -41.7 L81.6 -42.45 Q82.55 -42.65 86.75 -45.2 92.4 -48.6 98.4 -53.35 L104.4 -57.5 Q110.05 -62.0 111.7 -66.25 115.4 -76.0 116.25 -76.6 117.55 -77.55 125.55 -79.0 L131.85 -79.8 143.65 -80.35 154.0 -79.4 164.75 -78.45 168.95 -78.75 175.55 -79.55 Q178.65 -80.05 182.75 -81.85 184.9 -82.55 187.0 -86.55 189.7 -91.6 193.9 -104.35 M-80.65 98.05 L-80.25 97.35 Q-79.95 96.9 -79.15 96.9 -75.05 95.15 -72.5 90.6 L-69.85 88.5 Q-66.9 86.3 -64.85 84.0 -63.9 82.95 -61.75 77.8 L-58.55 70.6 Q-55.9 66.75 -55.05 65.0 -53.65 62.25 -53.65 57.85 L-54.6 48.55 Q-54.6 42.0 -51.9 37.3 -49.35 32.7 -49.4 31.7 -49.7 27.05 -48.75 22.95 -47.7 18.45 -47.7 17.7 -47.7 12.2 -48.6 10.3 -49.95 7.5 -56.65 0.95 -61.05 -3.3 -62.4 -3.85 L-66.15 -4.8 Q-75.1 -8.0 -77.6 -9.85 -79.25 -11.05 -80.3 -14.0 -82.35 -19.85 -87.3 -26.1 -89.75 -29.25 -92.05 -31.5 L-94.3 -33.4 Q-96.15 -35.15 -97.05 -38.15 -97.8 -40.7 -101.7 -44.1 -105.65 -47.55 -109.0 -48.35 -122.75 -51.75 -131.75 -52.9 -137.95 -53.7 -139.25 -54.3 -141.65 -55.4 -144.15 -61.35 L-149.5 -75.15 Q-151.0 -78.75 -152.8 -79.9 -154.35 -80.9 -160.15 -82.3 L-169.15 -83.25 Q-177.6 -84.15 -180.25 -85.0 -190.6 -88.4 -193.2 -93.4 -194.05 -94.95 -194.85 -98.35 -195.75 -102.15 -196.7 -104.35 L-195.65 -104.35 -193.3 -96.6 Q-192.3 -93.35 -188.55 -90.05 -183.6 -85.65 -171.7 -84.1 L-160.0 -83.3 Q-152.35 -82.0 -150.0 -78.8 -149.05 -77.5 -148.25 -75.05 L-146.65 -69.95 -145.75 -67.8 -145.25 -66.8 -144.7 -66.05 Q-144.25 -65.35 -143.6 -62.95 L-143.0 -60.75 -140.5 -57.6 Q-137.7 -54.35 -135.7 -54.05 -105.85 -49.4 -105.85 -47.9 L-103.1 -46.25 Q-99.75 -44.25 -97.1 -40.75 L-94.55 -36.6 Q-93.05 -34.05 -91.55 -32.45 L-86.95 -27.85 Q-84.65 -25.35 -81.9 -20.85 -80.35 -18.3 -79.85 -16.2 L-79.0 -13.55 Q-77.3 -10.75 -75.8 -9.8 -75.35 -9.5 -71.45 -7.9 -66.55 -5.9 -62.9 -4.8 L-60.2 -3.1 Q-50.5 4.2 -47.9 9.55 -46.7 12.1 -46.7 17.8 L-47.85 21.8 Q-48.9 25.3 -48.4 31.35 -48.25 33.0 -50.85 37.65 -53.6 42.55 -53.6 48.55 L-52.65 57.85 Q-52.65 62.3 -54.35 65.65 -55.45 67.85 -59.2 73.4 L-61.7 79.35 Q-63.85 84.5 -64.85 85.45 L-69.5 89.6 Q-71.3 91.1 -73.75 94.1 -77.25 98.4 -80.3 98.4 -81.3 98.4 -80.65 98.05 M-189.7 -104.35 Q-188.15 -103.7 -186.6 -101.25 -184.85 -98.4 -183.8 -97.6 -182.6 -96.7 -178.7 -95.4 -174.75 -94.05 -172.75 -93.85 L-164.65 -92.55 -154.65 -91.55 -149.95 -91.8 -149.55 -96.6 Q-149.55 -98.25 -150.95 -104.35 L-149.95 -104.35 -150.15 -103.35 Q-150.25 -102.7 -149.65 -102.7 -149.45 -102.7 -148.95 -99.8 L-148.55 -96.8 Q-148.55 -92.2 -149.1 -91.5 -149.9 -90.55 -154.55 -90.55 L-164.8 -91.45 -172.9 -92.85 Q-180.6 -93.95 -184.2 -96.65 -187.1 -98.85 -189.7 -104.35 M-124.0 -104.35 Q-123.35 -104.35 -122.85 -103.3 L-122.45 -102.25 -121.55 -98.85 -118.9 -89.7 Q-117.0 -84.35 -114.35 -80.5 -112.7 -78.15 -111.5 -77.2 -108.55 -74.85 -96.75 -71.35 L-85.55 -68.2 -85.55 -67.65 -84.8 -67.9 Q-77.55 -67.9 -72.35 -64.8 -69.5 -63.1 -68.25 -61.3 -61.3 -50.85 -59.3 -48.85 L-50.15 -42.15 -50.65 -43.1 Q-55.9 -53.65 -56.6 -60.2 -57.2 -65.75 -61.15 -72.25 L-66.45 -80.65 -69.45 -84.9 Q-76.5 -95.1 -79.5 -99.05 -80.3 -100.3 -81.2 -104.35 L-80.2 -104.35 Q-79.4 -100.8 -78.65 -99.65 L-68.65 -85.5 -64.8 -80.25 -58.8 -70.1 Q-56.4 -65.8 -54.2 -55.6 -52.25 -46.5 -47.45 -39.9 L-47.9 -39.45 -55.3 -44.85 Q-61.4 -49.25 -62.35 -50.7 L-64.95 -55.25 Q-66.85 -58.5 -68.7 -60.6 -74.3 -66.95 -82.9 -66.95 -86.1 -66.95 -95.85 -69.65 -107.25 -72.75 -111.4 -75.9 -117.25 -80.35 -120.85 -91.5 -122.75 -97.3 -124.0 -104.35 M-66.9 -104.35 Q-65.75 -103.9 -64.65 -102.45 L-63.2 -100.35 -61.2 -97.15 Q-60.35 -95.7 -58.6 -94.3 L-55.0 -91.3 -52.0 -90.9 -51.05 -91.0 Q-51.1 -94.3 -52.45 -104.35 L-51.45 -104.35 -50.3 -96.2 -50.05 -93.3 Q-50.05 -90.8 -50.3 -90.35 -50.55 -89.9 -52.05 -89.9 -55.95 -89.9 -59.6 -93.85 -61.95 -96.45 -66.9 -104.35 M-3.15 -104.35 L-2.15 -104.35 -2.35 -95.35 -2.2 -89.65 Q1.2 -94.15 1.55 -96.95 L2.0 -104.35 3.0 -104.35 Q3.2 -100.05 2.0 -95.15 0.35 -88.5 -2.85 -88.1 L-3.05 -88.25 -3.35 -92.2 -3.55 -95.85 -3.15 -104.35 M16.0 -104.35 L17.0 -104.35 Q16.8 -101.05 14.9 -92.4 13.1 -84.1 12.5 -83.0 11.55 -81.15 6.05 -74.6 L0.8 -68.4 Q0.8 -67.75 2.1 -65.65 L3.55 -63.6 Q4.05 -63.6 6.6 -61.1 L9.65 -57.85 12.8 -52.65 Q14.25 -50.15 17.8 -48.2 18.5 -47.85 23.25 -41.55 27.95 -35.4 28.65 -35.1 32.15 -37.7 33.65 -39.9 35.7 -42.95 35.7 -47.35 35.7 -49.4 35.15 -51.3 L34.25 -54.1 Q31.9 -62.8 31.9 -67.0 L32.1 -69.45 32.15 -71.85 30.25 -80.85 Q30.0 -82.55 28.5 -104.35 L29.55 -104.35 Q30.65 -85.45 31.05 -81.3 L31.4 -79.9 32.3 -75.5 Q33.45 -72.1 33.45 -71.1 L33.15 -68.15 Q32.9 -65.5 33.3 -63.4 L35.15 -54.45 Q36.0 -50.75 36.15 -50.75 36.8 -50.75 36.8 -49.45 L36.7 -47.45 Q36.7 -44.9 36.35 -43.55 35.75 -41.2 33.8 -38.45 33.05 -37.3 30.55 -35.3 L28.05 -33.5 Q27.45 -33.5 27.4 -33.7 L27.45 -34.0 Q28.4 -34.0 19.65 -45.35 L17.85 -46.55 15.8 -47.95 Q10.0 -53.55 9.85 -55.15 9.75 -56.6 7.8 -58.35 -0.35 -65.7 -0.35 -68.45 L4.75 -74.5 Q10.1 -80.8 10.85 -82.05 12.95 -85.6 14.05 -90.75 L16.0 -104.35 M42.4 -104.35 L43.4 -104.35 Q42.75 -99.0 42.8 -97.5 L44.8 -80.35 Q51.5 -82.95 54.3 -87.65 57.85 -93.5 57.05 -104.35 L58.05 -104.35 Q59.45 -92.6 54.35 -86.05 51.55 -82.45 44.5 -79.0 41.9 -81.0 41.9 -98.7 L42.4 -104.35" fill="#231c18" fill-rule="evenodd" stroke="none"/>
  </g>
</svg>
