<?xml version="1.0" encoding="UTF-8" standalone="no"?>
<svg xmlns:ffdec="https://www.free-decompiler.com/flash" xmlns:xlink="http://www.w3.org/1999/xlink" ffdec:objectType="shape" height="116.5px" width="159.0px" xmlns="http://www.w3.org/2000/svg">
  <g transform="matrix(1.0, 0.0, 0.0, 1.0, 0.0, 0.0)">
    <path d="M153.65 9.75 L158.2 10.45 158.2 15.7 153.65 11.15 153.65 9.75 M152.0 9.5 L152.15 9.5 152.15 9.65 152.0 9.5 146.3 8.6 146.3 7.55 150.75 8.25 152.0 9.5 M138.95 7.45 L138.95 6.4 144.8 7.3 144.8 8.35 138.95 7.45 M142.35 18.85 L144.8 21.3 144.8 24.05 138.95 23.4 138.95 18.4 142.35 18.85 141.15 17.65 144.8 18.15 144.8 19.15 142.35 18.85 M146.3 22.8 L147.9 24.4 146.3 24.25 146.3 22.8 M146.3 19.35 L146.3 18.35 152.15 19.1 152.15 20.1 146.3 19.35 M153.65 20.3 L153.65 19.3 159.0 20.0 159.0 25.65 158.2 25.55 158.2 20.9 153.65 20.3 M131.75 6.3 L131.75 5.25 137.45 6.15 137.45 7.2 131.75 6.3 M131.75 18.75 L131.75 17.45 137.45 18.2 137.45 23.2 136.05 23.05 131.75 18.75 M136.55 13.05 L131.75 12.4 131.75 8.25 136.55 13.05 M135.65 30.4 L131.75 30.05 131.75 26.5 135.65 30.4 M131.75 37.75 L131.75 31.55 137.3 32.05 137.45 32.1 137.45 38.2 131.75 37.75 M138.95 25.95 L138.95 24.9 144.8 25.6 144.8 31.3 144.25 31.25 138.95 25.95 M138.95 33.7 L143.9 38.65 138.95 38.3 138.95 33.7 M158.2 27.05 L159.0 27.15 159.0 32.65 158.2 32.55 158.2 27.05 M155.85 32.35 L153.65 32.15 153.65 30.15 155.85 32.35 M158.2 34.7 L158.2 34.05 159.0 34.15 159.0 35.5 158.2 34.7 158.2 39.8 153.65 39.45 153.65 33.65 157.5 34.0 158.2 34.7 M146.3 25.75 L152.15 26.4 152.15 32.0 146.3 31.45 146.3 25.75 M146.3 33.3 L146.3 32.95 152.15 33.5 152.15 39.15 146.3 33.3 M73.9 2.0 L73.9 1.0 81.1 0.35 81.1 1.35 73.9 2.0 M82.6 1.25 L82.6 0.25 85.25 0.0 84.2 1.1 82.6 1.25 M82.6 13.3 L82.6 12.3 82.75 12.3 89.9 11.75 89.9 12.75 82.6 13.3 M78.65 94.85 L81.1 94.95 81.1 95.8 77.8 95.7 78.65 94.85 M82.6 95.85 L82.6 95.0 89.9 95.2 89.9 96.1 82.6 95.85 M73.9 83.55 L73.9 82.65 81.1 82.75 81.1 83.65 73.9 83.55 M133.95 82.95 L137.45 82.85 137.45 86.45 133.95 82.95 131.75 83.0 131.75 82.1 133.1 82.1 133.95 82.95 M144.8 82.65 L144.8 89.4 140.65 89.65 138.95 87.95 138.95 82.8 144.8 82.65 M132.55 90.05 L131.75 90.05 131.75 89.25 132.55 90.05 M136.55 94.05 L135.75 93.25 137.45 93.15 143.8 92.8 144.65 93.65 144.8 93.65 144.8 93.8 144.65 93.65 138.95 93.95 138.95 93.1 137.45 93.15 137.45 94.0 136.55 94.05 137.45 94.95 137.45 98.45 131.85 98.85 131.75 98.85 131.75 94.3 136.55 94.05 M140.75 98.25 L138.95 98.35 138.95 96.45 140.75 98.25 M153.65 82.45 L158.2 82.3 158.2 88.75 152.9 89.0 153.65 88.95 153.65 82.45 M146.3 95.3 L146.3 93.55 152.15 93.25 152.15 97.4 148.65 97.65 146.3 95.3 M153.65 102.65 L153.65 98.8 158.2 98.5 158.2 104.0 155.25 104.25 153.65 102.65 M153.65 93.15 L158.2 92.9 158.2 97.0 153.65 97.3 153.65 93.15 M146.3 82.6 L152.15 82.45 152.15 89.05 146.3 89.35 146.3 82.6 M65.2 2.8 L65.2 1.8 72.4 1.15 72.4 2.15 65.2 2.8 M57.15 9.95 L56.25 10.05 56.25 2.6 63.7 1.9 63.7 2.9 57.15 3.5 57.15 9.95 M57.15 20.45 L56.25 20.5 56.25 14.25 63.7 13.7 63.7 14.65 57.15 15.15 57.15 20.45 M71.15 14.15 L65.2 14.55 65.2 13.55 72.2 13.05 71.15 14.15 M46.55 4.55 L46.55 3.5 45.8 3.55 51.55 3.05 51.55 4.1 46.55 4.55 M39.65 5.15 L40.8 4.0 45.05 3.6 45.05 4.65 39.65 5.15 M57.15 28.25 L56.25 28.3 56.25 22.0 57.15 21.95 57.15 28.25 M33.0 11.9 L32.9 11.9 33.0 11.75 33.0 11.9 M27.5 17.25 L27.7 17.05 27.7 17.25 27.5 17.25 M15.0 7.2 L15.0 6.35 19.6 5.9 18.65 6.9 15.0 7.2 M7.55 7.9 L7.55 7.0 13.5 6.45 13.5 7.35 7.55 7.9 M1.0 14.45 L0.0 14.5 0.0 7.7 6.05 7.15 6.05 8.0 1.0 8.45 1.0 14.45 M7.55 17.95 L7.55 17.9 7.65 17.9 7.55 17.95 M1.0 24.05 L0.0 24.15 0.0 18.45 6.05 18.0 6.05 18.85 1.0 19.2 1.0 24.05 M22.45 82.6 L22.45 81.9 20.95 81.85 20.95 82.6 15.0 82.5 15.0 81.75 25.1 81.9 24.4 82.65 22.45 82.6 M13.3 81.75 L13.5 81.75 13.5 82.45 12.6 82.45 13.3 81.75 M0.0 85.25 L0.0 81.5 3.7 81.55 3.0 82.3 1.0 82.25 1.0 84.25 0.0 85.25 M0.0 95.0 L1.0 94.0 1.0 97.9 0.0 97.85 0.0 95.0 M1.85 93.2 L2.55 92.5 6.05 92.6 6.05 93.3 1.85 93.2 M7.55 93.35 L7.55 92.65 13.5 92.8 13.5 93.55 7.55 93.35 M57.15 90.85 L56.25 90.8 56.25 82.4 63.7 82.55 63.7 83.4 57.15 83.3 57.15 90.85 M46.55 83.15 L46.55 82.25 51.55 82.3 51.55 83.25 46.55 83.15 M65.2 83.45 L65.2 82.55 72.4 82.65 72.4 83.55 65.2 83.45 M70.3 95.45 L65.2 95.3 65.2 94.45 71.15 94.6 70.3 95.45 M57.15 100.1 L56.25 100.1 56.25 94.15 63.7 94.4 63.7 95.25 57.15 95.05 57.15 100.1 M57.15 107.95 L56.25 107.9 56.25 101.6 57.15 101.6 57.15 107.95 M56.25 109.5 L56.25 109.4 56.4 109.4 56.25 109.5 M57.15 116.5 L57.05 116.5 57.15 116.35 57.15 116.5 M0.0 107.0 L0.0 106.55 0.45 106.6 0.0 107.0 M1.0 105.1 L0.0 105.05 0.0 99.35 1.0 99.4 1.0 105.1 M158.2 107.2 L156.65 105.65 158.2 105.5 158.2 107.2 159.0 108.0 159.0 111.7 158.2 111.75 158.2 107.2 M147.45 104.95 L146.3 105.05 146.3 103.8 147.45 104.95 M152.15 109.65 L152.15 112.45 146.3 113.05 146.3 106.55 148.85 106.35 152.15 109.65 M144.8 102.3 L144.8 105.15 138.95 105.7 138.95 99.85 142.1 99.6 144.8 102.3 M153.65 111.15 L154.65 112.15 153.65 112.25 153.65 111.15 M150.05 99.05 L152.15 98.9 152.15 101.15 150.05 99.05 M140.1 107.1 L144.8 106.7 144.8 111.8 140.1 107.1 M136.2 105.95 L131.75 106.3 131.75 101.5 136.2 105.95 M133.25 100.25 L137.45 99.95 137.45 104.45 133.25 100.25 M131.75 114.65 L131.75 107.85 137.45 107.35 137.45 114.0 138.05 113.95 131.75 114.65 M143.6 113.35 L138.95 113.85 138.95 108.7 143.6 113.35" fill="#5da3e2" fill-rule="evenodd" stroke="none"/>
  </g>
</svg>
