<?xml version="1.0" encoding="UTF-8" standalone="no"?>
<svg xmlns:ffdec="https://www.free-decompiler.com/flash" xmlns:xlink="http://www.w3.org/1999/xlink" ffdec:objectType="shape" height="231.65px" width="327.7px" xmlns="http://www.w3.org/2000/svg">
  <g transform="matrix(1.0, 0.0, 0.0, 1.0, 0.0, 0.0)">
    <path d="M318.75 79.1 L318.75 80.75 318.7 80.85 318.65 80.9 318.55 80.95 318.45 80.95 Q293.95 84.55 268.25 87.05 L268.25 98.6 268.25 98.7 268.25 101.15 268.25 101.3 268.25 110.85 268.25 111.0 268.2 130.25 268.25 130.4 268.2 130.55 268.2 132.95 268.25 133.15 268.2 133.25 268.2 146.3 268.25 146.45 268.2 146.6 268.2 149.0 268.25 149.15 268.2 149.3 268.2 165.05 268.25 165.2 268.2 165.35 268.2 167.75 268.25 167.9 268.2 168.05 268.2 175.15 268.25 175.3 268.2 175.45 268.2 177.5 268.25 177.65 268.2 177.8 268.2 196.95 268.25 197.1 268.2 197.25 268.2 199.65 268.25 199.8 268.2 199.95 268.15 212.9 268.25 213.1 268.2 213.25 268.15 213.3 268.15 215.85 268.1 216.0 267.95 216.1 266.0 216.45 265.85 216.45 239.85 220.65 239.75 220.65 208.85 225.65 208.75 225.65 206.35 226.05 206.25 226.05 174.2 231.25 174.05 231.25 171.45 231.65 171.45 52.85 170.9 52.7 170.8 52.7 170.7 52.75 170.65 52.8 170.6 52.85 170.55 52.9 170.55 53.15 170.2 53.05 170.25 53.05 170.4 52.95 170.45 52.8 170.35 52.6 170.3 52.55 170.2 52.55 105.2 61.2 105.15 61.2 73.0 65.5 Q72.85 65.5 72.8 65.6 L72.75 65.75 72.75 68.8 72.75 68.9 72.75 77.55 Q50.9 73.75 29.05 69.1 L19.75 67.1 12.65 65.55 Q47.6 63.2 82.55 58.4 L85.75 57.95 100.9 55.65 Q134.1 50.35 167.35 42.85 L171.45 44.15 171.45 43.6 167.6 42.35 167.6 40.1 171.45 41.4 171.45 40.85 167.5 39.55 167.3 39.5 Q134.15 47.45 100.8 52.9 L68.3 57.6 64.75 58.05 Q37.85 61.3 10.9 62.95 L10.75 63.05 10.65 63.2 10.65 63.8 8.25 63.35 5.95 62.95 Q17.2 62.55 54.0 58.8 L61.45 58.0 64.95 57.55 Q81.0 55.45 100.9 51.85 130.2 46.55 167.8 37.9 L171.45 39.2 171.45 38.7 168.0 37.5 168.0 30.8 171.45 32.55 171.45 31.95 167.9 30.15 167.7 30.1 167.6 30.15 Q134.25 42.45 100.8 49.35 72.25 55.25 43.6 57.15 L36.95 57.5 Q20.2 58.35 3.45 57.8 L3.3 57.9 3.2 58.05 3.3 58.25 3.45 58.3 3.45 58.4 0.0 57.3 3.45 57.35 Q12.2 57.45 20.95 57.2 L29.7 56.85 Q65.55 55.15 100.9 47.7 133.7 40.8 165.95 29.0 L167.85 28.3 168.45 28.6 171.45 30.15 171.45 29.55 169.3 28.45 168.5 28.05 168.15 27.85 168.15 26.45 170.6 27.7 171.35 28.1 171.45 28.15 171.45 0.15 172.1 0.0 172.15 0.0 172.3 0.05 223.6 17.95 223.7 18.0 223.75 18.15 223.75 21.25 223.7 21.4 223.7 21.45 223.6 21.5 223.55 21.5 221.9 21.8 221.9 35.6 223.6 36.1 223.7 36.2 223.75 36.35 223.75 42.35 223.7 42.35 223.75 42.4 223.85 42.45 Q238.7 49.6 254.35 55.4 289.0 68.1 327.5 73.3 L327.65 73.4 327.7 73.55 327.7 74.1 327.65 74.2 327.6 74.25 327.5 74.3 322.35 75.3 322.35 78.3 322.35 78.4 322.3 78.5 322.3 78.55 322.25 78.6 322.05 78.6 318.75 79.1" fill="url(#gradient0)" fill-rule="evenodd" stroke="none"/>
  </g>
  <defs>
    <linearGradient gradientTransform="matrix(-0.1353, 0.0, 0.0, -0.1414, 151.15, 116.7)" gradientUnits="userSpaceOnUse" id="gradient0" spreadMethod="pad" x1="-819.2" x2="819.2">
      <stop offset="0.0" stop-color="#000000" stop-opacity="0.7490196"/>
      <stop offset="1.0" stop-color="#000000" stop-opacity="0.0"/>
    </linearGradient>
  </defs>
</svg>
