<?xml version="1.0" encoding="UTF-8" standalone="no"?>
<svg xmlns:ffdec="https://www.free-decompiler.com/flash" xmlns:xlink="http://www.w3.org/1999/xlink" ffdec:objectType="shape" height="35.75px" width="42.8px" xmlns="http://www.w3.org/2000/svg">
  <g transform="matrix(1.0, 0.0, 0.0, 1.0, 19.9, 23.6)">
    <path d="M5.65 3.05 L5.6 3.1 Q5.0 3.8 4.9 4.3 L5.15 5.35 6.0 7.4 Q6.5 8.6 6.45 9.3 L6.15 10.2 5.45 10.5 4.9 9.6 4.55 9.2 5.0 9.05 3.7 5.75 3.5 4.95 Q3.35 4.0 3.8 3.15 L4.3 2.45 5.3 1.95 5.55 2.1 5.65 3.05 M-2.35 12.1 L-2.95 11.85 -3.55 11.0 Q-3.75 10.5 -3.55 9.95 L-3.25 9.3 -2.2 7.65 -1.8 6.9 Q-1.65 6.55 -1.75 6.0 L-1.95 5.05 -2.0 3.55 -2.0 1.6 -1.7 0.55 -1.0 0.5 -1.0 0.75 -1.0 2.6 -1.0 2.7 -1.0 4.7 -0.75 6.65 Q-0.65 7.2 -0.95 7.6 L-1.7 8.6 -2.05 9.4 -2.4 10.15 Q-2.3 10.6 -1.85 10.75 -2.2 11.1 -2.35 11.9 L-2.35 12.1 M0.7 0.0 L1.45 -0.4 2.3 0.95 3.3 2.05 2.95 2.4 2.4 2.35 2.0 2.4 Q1.3 2.4 1.15 2.0 L1.1 1.3 0.75 0.55 0.7 0.0" fill="#4d2b1a" fill-rule="evenodd" stroke="none"/>
    <path d="M-1.0 0.5 L0.7 0.0 0.75 0.55 1.1 1.3 1.15 2.0 Q1.3 2.4 2.0 2.4 L2.4 2.35 Q2.25 3.05 2.25 4.0 L2.45 5.65 3.0 7.05 3.15 8.4 1.5 9.1 0.35 9.05 Q0.15 8.85 0.15 8.0 0.35 6.0 -1.0 2.7 L-1.0 2.6 -1.0 0.75 -1.0 0.5" fill="#7b4e37" fill-rule="evenodd" stroke="none"/>
    <path d="M5.45 10.5 L5.4 10.55 3.8 11.05 0.6 11.85 -1.45 12.15 -2.35 12.1 -2.35 11.9 Q-2.2 11.1 -1.85 10.75 -2.3 10.6 -2.4 10.15 L-2.05 9.4 -1.7 8.6 -0.95 7.6 Q-0.65 7.2 -0.75 6.65 L-1.0 4.7 -1.0 2.7 Q0.35 6.0 0.15 8.0 0.15 8.85 0.35 9.05 L1.5 9.1 3.15 8.4 3.0 7.05 2.45 5.65 2.25 4.0 Q2.25 3.05 2.4 2.35 L2.95 2.4 3.3 2.05 3.75 2.4 4.0 2.5 4.25 2.45 4.3 2.45 3.8 3.15 Q3.35 4.0 3.5 4.95 L3.7 5.75 5.0 9.05 4.55 9.2 4.9 9.6 5.45 10.5" fill="#66402c" fill-rule="evenodd" stroke="none"/>
    <path d="M-2.05 -18.75 L-1.65 -18.2 -1.35 -17.2 -1.35 -16.75 Q-1.3 -16.5 -1.55 -16.45 -1.75 -16.4 -2.1 -16.75 L-2.75 -17.7 -2.95 -18.45 -2.95 -18.95 -2.45 -19.1 -2.05 -18.75 M-4.75 -20.45 L-4.8 -20.6 -4.9 -21.1 -4.8 -21.25 -4.7 -21.35 -4.5 -21.4 -4.45 -21.35 -4.2 -21.25 -4.15 -21.1 -4.05 -21.0 -3.95 -20.5 -4.1 -20.35 -4.3 -20.2 -4.6 -20.25 -4.75 -20.45 M-5.2 -15.25 L-5.35 -15.85 -5.5 -18.0 -5.4 -18.6 Q-5.3 -19.0 -5.0 -18.85 -4.75 -18.8 -4.65 -18.25 L-4.35 -17.0 Q-4.1 -15.5 -4.25 -14.75 L-4.25 -14.7 -5.2 -15.25 M-7.7 -14.3 L-7.7 -14.75 -7.2 -14.85 -6.8 -14.45 -7.1 -13.9 -7.7 -14.3 M-2.15 -13.05 L-2.0 -13.3 -1.85 -13.35 -1.5 -13.25 -1.3 -12.75 -1.15 -11.8 -1.15 -11.75 -2.15 -13.05 M6.7 -10.3 L6.4 -10.3 Q6.25 -10.3 6.15 -10.4 L5.9 -10.65 5.9 -11.65 6.3 -12.6 6.55 -12.9 6.95 -12.95 7.4 -12.9 7.75 -12.7 7.75 -12.3 7.35 -11.15 7.2 -10.8 7.2 -10.7 6.9 -10.5 6.85 -10.45 6.7 -10.3 M-7.2 -11.0 L-7.6 -10.9 -7.65 -10.9 -8.85 -11.15 Q-9.45 -11.4 -10.0 -11.75 L-10.75 -12.4 -11.05 -12.8 Q-11.15 -13.2 -10.9 -13.25 L-10.5 -13.3 -9.5 -12.95 -8.4 -12.3 Q-7.8 -11.9 -7.35 -11.35 L-7.2 -11.0 M-11.0 -10.5 Q-10.7 -10.2 -10.85 -10.0 -10.9 -9.85 -11.25 -9.85 -12.0 -9.8 -13.45 -10.3 L-14.7 -10.75 -15.2 -11.15 Q-15.35 -11.45 -14.95 -11.5 L-14.4 -11.5 -12.25 -11.1 Q-11.45 -10.85 -11.0 -10.5 M-15.45 -8.15 L-15.75 -8.65 Q-15.85 -8.95 -15.55 -9.1 L-15.05 -9.1 -14.4 -8.75 -13.5 -7.95 -13.2 -7.4 Q-13.3 -7.15 -13.55 -7.2 L-14.0 -7.25 -14.95 -7.75 -15.45 -8.15 M-17.0 -11.2 L-16.65 -10.85 -16.65 -10.65 -16.8 -10.4 -16.95 -10.3 -17.45 -10.45 -17.55 -10.55 -17.7 -10.65 -17.8 -10.85 -17.8 -10.95 -17.75 -11.15 -17.65 -11.25 -17.45 -11.35 -17.0 -11.2 M-12.55 -5.25 L-12.25 -5.05 Q-12.05 -4.75 -12.15 -4.45 -12.25 -4.1 -12.65 -4.0 L-13.3 -3.95 -14.6 -4.2 -14.85 -4.4 -14.9 -4.8 -14.75 -5.25 -14.4 -5.55 -14.15 -5.6 -13.1 -5.5 -12.55 -5.25 M-10.65 -1.5 Q-10.3 -1.3 -10.35 -0.9 L-10.45 -0.2 -11.6 0.55 -12.6 0.6 -13.35 0.05 -13.6 0.0 Q-13.85 -0.2 -13.65 -0.6 L-13.3 -0.95 -12.65 -1.45 -11.85 -1.65 -10.65 -1.5 M-2.45 -10.2 L-2.6 -9.85 -3.0 -9.8 -3.4 -9.9 -4.35 -10.9 -4.75 -11.6 -4.85 -12.05 -4.6 -12.35 -4.35 -12.35 -4.25 -12.3 -3.65 -12.1 -3.5 -12.05 -3.15 -11.85 Q-2.25 -11.15 -2.45 -10.2 M9.15 -14.55 L9.9 -14.95 10.45 -15.1 10.85 -14.85 10.4 -14.3 9.45 -13.5 9.15 -14.55 M12.5 -15.5 L12.9 -15.8 13.1 -15.8 13.25 -15.75 13.35 -15.6 13.35 -15.45 13.3 -15.25 13.25 -15.1 13.15 -15.0 13.0 -14.8 12.7 -14.7 12.55 -14.7 12.35 -14.85 12.25 -15.1 12.5 -15.5 M10.55 -11.9 L10.8 -12.4 11.35 -12.9 11.85 -13.05 12.2 -12.75 12.05 -12.2 11.85 -11.8 10.55 -11.9 M0.55 -12.1 Q0.4 -12.65 0.55 -13.5 L0.7 -13.95 1.05 -15.05 1.25 -15.55 1.55 -16.05 Q1.7 -16.25 1.8 -16.25 L2.0 -16.15 2.1 -15.45 1.9 -14.15 1.2 -12.05 0.85 -11.75 Q0.6 -11.75 0.55 -12.1 M4.7 -14.95 L4.85 -14.3 4.8 -13.3 4.65 -12.85 4.6 -12.85 4.3 -12.65 Q4.1 -12.7 3.95 -13.1 L3.65 -14.25 3.75 -15.0 3.95 -15.5 4.45 -15.45 4.7 -14.95 M2.8 -17.55 L2.85 -17.7 2.95 -18.2 3.05 -18.35 3.4 -18.35 3.45 -18.25 3.65 -18.1 3.6 -17.95 3.65 -17.85 3.65 -17.55 3.55 -17.3 3.4 -17.15 3.1 -17.15 2.9 -17.25 2.8 -17.55 M6.15 -15.2 L6.25 -14.95 6.2 -14.95 6.15 -15.2 M5.75 -5.9 L5.7 -6.15 5.75 -7.0 6.25 -7.65 6.65 -7.95 6.75 -8.0 7.05 -8.1 7.3 -8.25 7.65 -8.3 7.95 -8.05 7.85 -7.6 7.55 -6.9 6.85 -5.9 Q6.6 -5.7 6.3 -5.65 L5.95 -5.65 5.75 -5.9 M10.45 -7.25 L10.45 -7.45 10.5 -7.65 11.0 -8.25 12.3 -9.3 13.25 -9.8 13.4 -9.85 13.8 -9.9 Q14.1 -9.8 14.0 -9.5 L13.75 -9.0 13.05 -8.3 13.0 -8.25 Q12.35 -7.7 11.75 -7.45 L10.8 -7.2 10.45 -7.25 M20.0 -8.35 L20.1 -8.45 20.55 -8.65 20.85 -8.5 20.95 -8.35 20.9 -8.2 20.85 -8.0 20.7 -7.9 20.65 -7.8 20.45 -7.65 20.15 -7.6 20.0 -7.6 19.8 -7.85 19.8 -8.05 20.0 -8.35 M14.25 -7.15 L15.35 -7.9 17.45 -8.5 18.05 -8.55 18.35 -8.2 Q18.35 -8.0 17.85 -7.75 L16.65 -7.2 Q15.25 -6.6 14.55 -6.55 L14.1 -6.6 Q13.95 -6.85 14.25 -7.15 M10.75 4.75 L11.65 4.5 12.45 4.6 13.0 5.4 13.1 6.0 Q13.1 6.4 12.7 6.4 L11.9 6.6 Q10.75 6.45 10.4 5.4 10.3 4.95 10.5 4.9 L10.75 4.75 M14.8 1.85 Q15.3 1.45 16.0 1.6 L16.8 1.7 17.45 2.05 17.85 2.45 Q18.05 2.8 17.85 3.0 L17.6 3.1 16.95 3.75 15.95 3.8 Q15.05 3.6 14.7 3.15 L14.5 2.45 14.8 1.85 M16.3 -2.05 L16.8 -2.35 18.15 -2.6 18.45 -2.25 18.65 -1.85 18.7 -1.45 18.4 -1.2 17.15 -0.9 16.5 -0.85 15.95 -1.2 Q15.8 -1.5 16.05 -1.85 L16.3 -2.05 M18.85 -5.3 L18.45 -4.8 17.55 -4.25 17.05 -4.15 Q16.85 -4.05 16.75 -4.3 16.65 -4.45 16.9 -4.85 L17.7 -5.75 18.4 -6.15 18.9 -6.2 Q19.2 -6.1 19.15 -5.75 L18.85 -5.3 M-7.25 0.8 L-6.05 1.05 -5.9 1.55 Q-6.15 2.65 -7.25 2.9 L-8.1 2.85 -8.55 2.45 -8.5 1.85 -8.05 1.05 Q-7.75 0.8 -7.25 0.8" fill="#954e75" fill-rule="evenodd" stroke="none"/>
    <path d="M-4.75 -20.45 L-4.6 -20.25 -4.3 -20.2 -4.1 -20.35 -3.95 -20.5 -4.05 -21.0 -4.15 -21.1 -4.2 -21.25 -4.45 -21.35 -4.5 -21.4 -4.7 -21.35 -4.8 -21.25 -4.9 -21.1 -4.8 -20.6 -4.75 -20.45 M-2.05 -18.75 L-2.45 -19.1 -2.95 -18.95 -2.95 -18.45 -2.75 -17.7 -2.1 -16.75 Q-1.75 -16.4 -1.55 -16.45 -1.3 -16.5 -1.35 -16.75 L-1.35 -17.2 -1.65 -18.2 -2.05 -18.75 M-4.25 -14.7 L-4.25 -14.75 Q-4.1 -15.5 -4.35 -17.0 L-4.65 -18.25 Q-4.75 -18.8 -5.0 -18.85 -5.3 -19.0 -5.4 -18.6 L-5.5 -18.0 -5.35 -15.85 -5.2 -15.25 -5.55 -15.4 -5.8 -15.45 -6.05 -15.3 -6.8 -14.45 -7.2 -14.85 -7.7 -14.75 -7.7 -14.3 -8.8 -14.85 -8.8 -15.85 -6.85 -15.95 -6.55 -15.85 -6.35 -15.9 -6.15 -16.05 -6.0 -16.25 -6.0 -16.55 Q-6.65 -19.6 -5.2 -22.5 -2.7 -21.15 -0.95 -18.1 L-0.65 -17.8 -0.35 -17.9 -0.2 -18.1 Q0.25 -19.2 1.1 -19.65 L1.6 -19.25 Q0.05 -17.5 -0.5 -15.3 -1.3 -16.0 -2.75 -15.65 L-3.95 -18.8 -3.35 -15.15 -3.75 -14.4 -4.05 -14.6 -4.1 -14.6 -4.25 -14.7 M-4.6 2.2 L-4.8 2.25 -4.95 2.35 Q-6.9 4.55 -9.85 3.75 L-10.2 1.95 -10.35 1.75 Q-10.45 1.6 -10.6 1.55 L-10.85 1.6 Q-13.25 1.95 -15.1 0.65 -15.2 -0.85 -13.6 -2.15 L-13.4 -2.4 -13.5 -2.65 -13.65 -2.85 -14.6 -3.3 -14.65 -3.35 Q-16.05 -3.9 -16.7 -5.1 -16.15 -5.9 -14.95 -6.25 L-14.75 -6.4 -14.65 -6.7 -14.9 -7.0 Q-17.75 -9.15 -18.8 -11.75 -15.75 -12.9 -12.85 -11.85 L-12.55 -11.8 -12.35 -11.9 -12.2 -12.1 -12.15 -12.3 -12.15 -12.65 Q-12.7 -13.55 -11.85 -14.55 L-9.65 -14.15 -8.75 -13.8 Q-8.0 -13.5 -7.4 -13.0 L-7.1 -12.7 -6.85 -12.6 -6.6 -12.6 -6.35 -12.75 -6.3 -13.0 -6.2 -13.5 -5.6 -14.45 -4.6 -13.9 -4.05 -13.5 -3.3 -12.85 -2.4 -11.9 -1.2 -10.05 -1.0 -9.65 -0.9 -9.45 -3.05 -7.65 Q-3.3 -8.35 -3.9 -9.05 L-5.15 -10.25 -5.8 -10.7 -6.55 -9.1 -9.7 -10.9 -8.5 -8.1 -15.3 -10.05 -8.95 -6.6 -9.0 -6.55 Q-11.2 -5.25 -11.7 -3.3 -9.8 -2.55 -7.9 -4.05 L-9.1 0.45 Q-6.4 -0.7 -5.25 -1.85 L-5.1 -2.0 -4.6 2.2 M-2.15 -13.05 L-3.0 -13.85 -2.65 -14.75 -2.4 -14.8 Q-1.3 -14.95 -0.8 -14.15 L-0.5 -13.95 -0.35 -13.9 -0.1 -14.0 0.1 -14.1 0.2 -14.35 0.5 -15.55 Q0.85 -16.75 1.6 -17.8 L2.15 -18.55 2.85 -19.25 3.15 -19.55 4.25 -17.95 4.65 -17.05 5.0 -16.0 5.45 -13.9 5.65 -13.55 5.8 -13.45 5.95 -13.5 Q6.05 -13.5 6.15 -13.6 L7.25 -14.45 8.0 -14.65 8.15 -14.45 8.3 -14.1 8.6 -13.1 8.6 -12.05 8.6 -12.0 8.55 -11.95 8.5 -11.5 8.25 -11.45 Q7.65 -11.15 7.2 -10.7 L7.2 -10.8 7.35 -11.15 7.75 -12.3 7.75 -12.7 7.4 -12.9 6.95 -12.95 6.55 -12.9 6.3 -12.6 5.9 -11.65 5.9 -10.65 6.15 -10.4 Q6.25 -10.3 6.4 -10.3 L6.7 -10.3 5.85 -9.5 5.8 -9.5 4.05 -9.1 2.9 -8.5 2.95 -15.7 2.4 -13.15 2.3 -12.6 1.55 -9.35 1.5 -9.55 1.45 -9.65 1.3 -10.25 1.1 -10.4 0.8 -10.5 0.5 -10.5 0.15 -10.35 -0.5 -11.15 -0.5 -10.65 -1.15 -11.75 -1.15 -11.8 -1.3 -12.75 -1.5 -13.25 -1.85 -13.35 -2.0 -13.3 -2.15 -13.05 M-10.65 -1.5 L-11.85 -1.65 -12.65 -1.45 -13.3 -0.95 -13.65 -0.6 Q-13.85 -0.2 -13.6 0.0 L-13.35 0.05 -12.6 0.6 -11.6 0.55 -10.45 -0.2 -10.35 -0.9 Q-10.3 -1.3 -10.65 -1.5 M-12.55 -5.25 L-13.1 -5.5 -14.15 -5.6 -14.4 -5.55 -14.75 -5.25 -14.9 -4.8 -14.85 -4.4 -14.6 -4.2 -13.3 -3.95 -12.65 -4.0 Q-12.25 -4.1 -12.15 -4.45 -12.05 -4.75 -12.25 -5.05 L-12.55 -5.25 M-17.0 -11.2 L-17.45 -11.35 -17.65 -11.25 -17.75 -11.15 -17.8 -10.95 -17.8 -10.85 -17.7 -10.65 -17.55 -10.55 -17.45 -10.45 -16.95 -10.3 -16.8 -10.4 -16.65 -10.65 -16.65 -10.85 -17.0 -11.2 M-15.45 -8.15 L-14.95 -7.75 -14.0 -7.25 -13.55 -7.2 Q-13.3 -7.15 -13.2 -7.4 L-13.5 -7.95 -14.4 -8.75 -15.05 -9.1 -15.55 -9.1 Q-15.85 -8.95 -15.75 -8.65 L-15.45 -8.15 M-11.0 -10.5 Q-11.45 -10.85 -12.25 -11.1 L-14.4 -11.5 -14.95 -11.5 Q-15.35 -11.45 -15.2 -11.15 L-14.7 -10.75 -13.45 -10.3 Q-12.0 -9.8 -11.25 -9.85 -10.9 -9.85 -10.85 -10.0 -10.7 -10.2 -11.0 -10.5 M-7.2 -11.0 L-7.35 -11.35 Q-7.8 -11.9 -8.4 -12.3 L-9.5 -12.95 -10.5 -13.3 -10.9 -13.25 Q-11.15 -13.2 -11.05 -12.8 L-10.75 -12.4 -10.0 -11.75 Q-9.45 -11.4 -8.85 -11.15 L-7.65 -10.9 -7.6 -10.9 -7.2 -11.0 M-2.45 -10.2 Q-2.25 -11.15 -3.15 -11.85 L-3.5 -12.05 -3.65 -12.1 -4.25 -12.3 -4.35 -12.35 -4.6 -12.35 -4.85 -12.05 -4.75 -11.6 -4.35 -10.9 -3.4 -9.9 -3.0 -9.8 -2.6 -9.85 -2.45 -10.2 M-1.6 -3.5 L-1.6 -3.6 -1.55 -3.65 -1.05 -3.95 -0.9 -3.8 -1.6 -3.5 M12.5 -15.5 L12.25 -15.1 12.35 -14.85 12.55 -14.7 12.7 -14.7 13.0 -14.8 13.15 -15.0 13.25 -15.1 13.3 -15.25 13.35 -15.45 13.35 -15.6 13.25 -15.75 13.1 -15.8 12.9 -15.8 12.5 -15.5 M9.45 -13.5 L10.4 -14.3 10.85 -14.85 10.45 -15.1 9.9 -14.95 9.15 -14.55 8.8 -15.15 Q11.1 -16.65 14.0 -16.65 13.9 -14.15 12.4 -11.65 L11.85 -11.8 12.05 -12.2 12.2 -12.75 11.85 -13.05 11.35 -12.9 10.8 -12.4 10.55 -11.9 9.95 -11.8 9.85 -12.4 11.25 -13.9 9.65 -12.75 9.5 -12.8 9.45 -13.5 M2.8 -17.55 L2.9 -17.25 3.1 -17.15 3.4 -17.15 3.55 -17.3 3.65 -17.55 3.65 -17.85 3.6 -17.95 3.65 -18.1 3.45 -18.25 3.4 -18.35 3.05 -18.35 2.95 -18.2 2.85 -17.7 2.8 -17.55 M4.7 -14.95 L4.45 -15.45 3.95 -15.5 3.75 -15.0 3.65 -14.25 3.95 -13.1 Q4.1 -12.7 4.3 -12.65 L4.6 -12.85 4.65 -12.85 4.8 -13.3 4.85 -14.3 4.7 -14.95 M0.55 -12.1 Q0.6 -11.75 0.85 -11.75 L1.2 -12.05 1.9 -14.15 2.1 -15.45 2.0 -16.15 1.8 -16.25 Q1.7 -16.25 1.55 -16.05 L1.25 -15.55 1.05 -15.05 0.7 -13.95 0.55 -13.5 Q0.4 -12.65 0.55 -12.1 M6.15 -15.2 L5.55 -17.4 6.65 -17.45 7.05 -16.5 7.25 -15.45 6.25 -14.95 6.15 -15.2 M4.25 -5.1 L4.35 -5.25 4.8 -6.3 4.85 -6.4 Q5.6 -8.1 7.0 -9.4 L7.45 -9.85 8.4 -10.5 9.25 -9.35 9.25 -9.2 Q9.25 -9.0 9.35 -8.95 9.45 -8.8 9.6 -8.8 L9.85 -8.8 10.1 -8.95 10.9 -9.7 12.3 -10.55 13.75 -11.1 14.65 -11.3 Q15.45 -10.5 15.2 -9.55 L15.15 -9.4 15.15 -9.1 15.15 -9.05 15.2 -8.9 15.4 -8.7 15.6 -8.6 15.9 -8.7 Q18.7 -10.0 21.85 -9.2 21.1 -6.5 18.4 -4.1 L18.25 -3.75 18.35 -3.45 Q18.4 -3.3 18.6 -3.3 19.8 -3.15 20.4 -2.35 19.95 -1.1 18.6 -0.4 L18.55 -0.35 17.65 0.2 17.5 0.45 Q17.4 0.55 17.45 0.7 L17.65 0.9 Q19.4 2.0 19.4 3.55 17.75 5.05 15.3 4.85 L15.05 4.9 Q14.9 4.95 14.85 5.05 14.7 5.15 14.7 5.35 L14.55 7.15 Q11.7 8.25 9.55 6.3 L9.3 6.15 9.15 6.2 9.2 1.95 9.7 2.3 Q10.9 3.15 13.45 3.9 L11.8 -0.4 Q13.85 0.9 15.6 -0.05 15.2 -1.2 14.2 -2.05 L13.5 -2.55 12.8 -2.95 12.6 -3.05 18.5 -7.15 11.95 -4.45 12.85 -7.3 12.85 -7.35 9.9 -5.3 9.0 -6.75 7.85 -5.65 Q6.9 -4.65 6.65 -3.65 L6.6 -3.5 4.25 -5.1 M9.95 -10.15 L9.6 -10.7 10.0 -10.8 10.15 -10.85 11.05 -10.95 9.95 -10.15 M5.75 -5.9 L5.95 -5.65 6.3 -5.65 Q6.6 -5.7 6.85 -5.9 L7.55 -6.9 7.85 -7.6 7.95 -8.05 7.65 -8.3 7.3 -8.25 7.05 -8.1 6.75 -8.0 6.65 -7.95 6.25 -7.65 5.75 -7.0 5.7 -6.15 5.75 -5.9 M14.25 -7.15 Q13.95 -6.85 14.1 -6.6 L14.55 -6.55 Q15.25 -6.6 16.65 -7.2 L17.85 -7.75 Q18.35 -8.0 18.35 -8.2 L18.05 -8.55 17.45 -8.5 15.35 -7.9 14.25 -7.15 M20.0 -8.35 L19.8 -8.05 19.8 -7.85 20.0 -7.6 20.15 -7.6 20.45 -7.65 20.65 -7.8 20.7 -7.9 20.85 -8.0 20.9 -8.2 20.95 -8.35 20.85 -8.5 20.55 -8.65 20.1 -8.45 20.0 -8.35 M10.45 -7.25 L10.8 -7.2 11.75 -7.45 Q12.35 -7.7 13.0 -8.25 L13.05 -8.3 13.75 -9.0 14.0 -9.5 Q14.1 -9.8 13.8 -9.9 L13.4 -9.85 13.25 -9.8 12.3 -9.3 11.0 -8.25 10.5 -7.65 10.45 -7.45 10.45 -7.25 M18.85 -5.3 L19.15 -5.75 Q19.2 -6.1 18.9 -6.2 L18.4 -6.15 17.7 -5.75 16.9 -4.85 Q16.65 -4.45 16.75 -4.3 16.85 -4.05 17.05 -4.15 L17.55 -4.25 18.45 -4.8 18.85 -5.3 M16.3 -2.05 L16.05 -1.85 Q15.8 -1.5 15.95 -1.2 L16.5 -0.85 17.15 -0.9 18.4 -1.2 18.7 -1.45 18.65 -1.85 18.45 -2.25 18.15 -2.6 16.8 -2.35 16.3 -2.05 M14.8 1.85 L14.5 2.45 14.7 3.15 Q15.05 3.6 15.95 3.8 L16.95 3.75 17.6 3.1 17.85 3.0 Q18.05 2.8 17.85 2.45 L17.45 2.05 16.8 1.7 16.0 1.6 Q15.3 1.45 14.8 1.85 M10.75 4.75 L10.5 4.9 Q10.3 4.95 10.4 5.4 10.75 6.45 11.9 6.6 L12.7 6.4 Q13.1 6.4 13.1 6.0 L13.0 5.4 12.45 4.6 11.65 4.5 10.75 4.75 M-7.25 0.8 Q-7.75 0.8 -8.05 1.05 L-8.5 1.85 -8.55 2.45 -8.1 2.85 -7.25 2.9 Q-6.15 2.65 -5.9 1.55 L-6.05 1.05 -7.25 0.8" fill="#794260" fill-rule="evenodd" stroke="none"/>
    <path d="M-3.35 -15.15 L-3.95 -18.8 -2.75 -15.65 -3.05 -15.6 -3.2 -15.55 -3.3 -15.35 -3.35 -15.15 M-0.9 -9.45 L-0.8 -9.35 -0.5 -9.3 -0.45 -9.3 0.5 -9.5 Q1.1 -6.6 -1.55 -4.75 L-2.1 -4.45 -2.2 -4.6 -2.35 -4.7 -2.45 -4.7 -2.55 -4.75 -3.1 -5.15 -4.5 -5.8 -6.85 -6.65 -6.95 -6.65 -6.95 -6.55 -4.7 -5.4 -4.55 -5.2 -4.3 -5.1 -4.25 -5.05 -4.1 -4.95 -3.85 -4.85 -3.65 -4.7 -3.55 -4.55 -3.2 -4.3 -3.0 -4.2 -2.95 -4.1 -2.55 -3.7 -2.55 -3.65 -2.6 -3.6 -2.55 -3.1 -2.5 -0.55 -2.65 0.4 -3.45 2.35 -4.5 2.25 -4.6 2.2 -5.1 -2.0 -5.25 -1.85 Q-6.4 -0.7 -9.1 0.45 L-7.9 -4.05 Q-9.8 -2.55 -11.7 -3.3 -11.2 -5.25 -9.0 -6.55 L-8.95 -6.6 -15.3 -10.05 -8.5 -8.1 -9.7 -10.9 -6.55 -9.1 -5.8 -10.7 -5.15 -10.25 -3.9 -9.05 Q-3.3 -8.35 -3.05 -7.65 L-0.9 -9.45 M-0.5 -10.65 L-0.5 -11.15 0.15 -10.35 -0.3 -10.25 -0.5 -10.65 M1.55 -9.35 L2.3 -12.6 2.4 -13.15 2.95 -15.7 2.9 -8.5 4.05 -9.1 5.8 -9.5 5.85 -9.5 Q4.3 -7.95 3.55 -5.8 L2.75 -5.9 2.5 -5.95 2.2 -5.85 2.05 -5.6 2.0 -5.4 2.0 -6.7 1.9 -6.75 1.8 -6.65 1.4 -3.65 1.4 -3.5 1.35 -3.45 1.3 -2.65 1.4 -1.95 1.45 -1.85 1.4 -1.75 1.45 -1.6 1.45 -1.45 1.1 -1.2 0.65 -1.0 Q-0.3 -0.55 -1.15 -0.45 L-1.55 -0.45 Q-1.4 -1.85 -1.6 -3.5 L-0.9 -3.8 -1.05 -3.95 Q2.05 -6.05 1.55 -9.35 M9.65 -12.75 L11.25 -13.9 9.85 -12.4 9.75 -12.65 9.65 -12.75 M4.25 -5.1 L6.6 -3.5 6.65 -3.65 Q6.9 -4.65 7.85 -5.65 L9.0 -6.75 9.9 -5.3 12.85 -7.35 12.85 -7.3 11.95 -4.45 18.5 -7.15 12.6 -3.05 12.8 -2.95 13.5 -2.55 14.2 -2.05 Q15.2 -1.2 15.6 -0.05 13.85 0.9 11.8 -0.4 L13.45 3.9 Q10.9 3.15 9.7 2.3 L9.2 1.95 9.15 6.2 9.05 6.2 8.05 6.45 Q6.85 4.85 6.65 2.45 L6.55 1.45 6.55 1.4 6.55 0.6 6.5 0.55 6.5 0.5 6.6 0.4 6.7 0.2 6.9 0.0 6.9 -0.05 7.9 -0.9 8.1 -1.1 8.3 -1.2 8.45 -1.4 10.55 -2.8 10.55 -2.9 10.45 -2.9 7.75 -1.5 7.5 -1.4 6.85 -1.0 6.7 -0.8 6.35 -0.6 6.2 -0.45 6.05 -0.35 5.95 -0.15 Q2.55 -1.7 2.85 -4.95 L3.85 -4.9 4.15 -4.95 4.25 -5.1 M2.45 -1.5 L2.35 -1.5 2.2 -1.85 2.25 -2.0 2.2 -2.1 2.15 -2.15 2.15 -2.35 2.0 -2.8 2.05 -2.85 Q2.3 -1.95 2.95 -1.15 L2.45 -1.5 M4.15 1.5 L4.0 1.35 3.1 0.35 2.75 -0.1 Q4.0 0.65 5.2 1.05 L4.15 1.5" fill="#64334e" fill-rule="evenodd" stroke="none"/>
    <path d="M-2.0 1.6 L-2.8 3.05 -2.9 3.25 -3.2 3.25 -4.3 3.15 Q-6.75 5.7 -10.4 4.55 L-10.65 4.4 -10.8 4.15 -11.15 2.55 Q-13.8 2.8 -15.85 1.3 L-16.0 0.95 Q-16.35 -0.9 -14.75 -2.4 L-14.95 -2.5 Q-16.95 -3.25 -17.7 -5.1 L-17.7 -5.35 Q-17.25 -6.35 -16.15 -6.85 -18.95 -9.15 -19.9 -11.95 L-19.85 -12.3 -19.65 -12.5 Q-16.4 -13.75 -13.35 -12.9 -13.65 -14.1 -12.45 -15.3 L-12.35 -15.45 -12.15 -15.4 -9.7 -15.1 -9.65 -16.2 -9.6 -16.35 -9.45 -16.5 Q-8.15 -17.55 -7.0 -17.1 -7.4 -20.3 -5.8 -23.35 L-5.55 -23.55 -5.2 -23.55 Q-2.55 -22.35 -0.65 -19.3 -0.05 -20.35 1.0 -20.7 L1.3 -20.7 2.25 -20.0 2.95 -20.65 3.25 -20.75 3.55 -20.65 5.15 -18.35 Q6.05 -18.65 7.05 -18.35 L7.3 -18.15 7.75 -17.25 Q8.35 -16.7 8.45 -15.9 11.05 -17.7 14.55 -17.6 L14.8 -17.45 15.0 -17.2 Q15.05 -14.55 13.6 -11.9 L14.8 -12.15 15.0 -12.2 15.15 -12.1 Q16.45 -11.05 16.3 -9.75 L22.6 -10.0 22.85 -9.85 22.9 -9.5 Q22.3 -6.55 19.65 -4.05 20.85 -3.65 21.4 -2.75 L21.45 -2.4 Q20.85 -0.5 19.0 0.4 L18.8 0.5 Q20.5 1.85 20.4 3.75 L20.25 4.05 Q18.3 5.8 15.7 5.75 L15.5 7.45 15.4 7.7 15.15 7.85 Q11.65 9.4 9.0 7.1 L7.85 7.35 7.6 7.35 7.45 7.25 Q6.05 5.65 5.65 3.05 L5.55 2.1 5.3 1.95 4.3 2.45 4.25 2.45 4.0 2.5 3.75 2.4 3.3 2.05 2.3 0.95 1.45 -0.4 0.7 0.0 -1.0 0.5 -1.7 0.55 -2.0 1.6 M-5.2 -15.25 L-4.25 -14.7 -4.1 -14.6 -4.05 -14.6 -3.75 -14.4 -3.35 -15.15 -3.3 -15.35 -3.2 -15.55 -3.05 -15.6 -2.75 -15.65 Q-1.3 -16.0 -0.5 -15.3 0.05 -17.5 1.6 -19.25 L1.1 -19.65 Q0.25 -19.2 -0.2 -18.1 L-0.35 -17.9 -0.65 -17.8 -0.95 -18.1 Q-2.7 -21.15 -5.2 -22.5 -6.65 -19.6 -6.0 -16.55 L-6.0 -16.25 -6.15 -16.05 -6.35 -15.9 -6.55 -15.85 -6.85 -15.95 -8.8 -15.85 -8.8 -14.85 -7.7 -14.3 -7.1 -13.9 -6.8 -14.45 -6.05 -15.3 -5.8 -15.45 -5.55 -15.4 -5.2 -15.25 M-0.9 -9.45 L-1.0 -9.65 -1.2 -10.05 -2.4 -11.9 -3.3 -12.85 -4.05 -13.5 -4.6 -13.9 -5.6 -14.45 -6.2 -13.5 -6.3 -13.0 -6.35 -12.75 -6.6 -12.6 -6.85 -12.6 -7.1 -12.7 -7.4 -13.0 Q-8.0 -13.5 -8.75 -13.8 L-9.65 -14.15 -11.85 -14.55 Q-12.7 -13.55 -12.15 -12.65 L-12.15 -12.3 -12.2 -12.1 -12.35 -11.9 -12.55 -11.8 -12.85 -11.85 Q-15.75 -12.9 -18.8 -11.75 -17.75 -9.15 -14.9 -7.0 L-14.65 -6.7 -14.75 -6.4 -14.95 -6.25 Q-16.15 -5.9 -16.7 -5.1 -16.05 -3.9 -14.65 -3.35 L-14.6 -3.3 -13.65 -2.85 -13.5 -2.65 -13.4 -2.4 -13.6 -2.15 Q-15.2 -0.85 -15.1 0.65 -13.25 1.95 -10.85 1.6 L-10.6 1.55 Q-10.45 1.6 -10.35 1.75 L-10.2 1.95 -9.85 3.75 Q-6.9 4.55 -4.95 2.35 L-4.8 2.25 -4.6 2.2 -4.5 2.25 -3.45 2.35 -2.65 0.4 -2.5 -0.55 -2.55 -3.1 -2.6 -3.6 -2.55 -3.65 -2.55 -3.7 -2.95 -4.1 -3.0 -4.2 -3.2 -4.3 -3.55 -4.55 -3.65 -4.7 -3.85 -4.85 -4.1 -4.95 -4.25 -5.05 -4.3 -5.1 -4.55 -5.2 -4.7 -5.4 -6.95 -6.55 -6.95 -6.65 -6.85 -6.65 -4.5 -5.8 -3.1 -5.15 -2.55 -4.75 -2.45 -4.7 -2.35 -4.7 -2.2 -4.6 -2.1 -4.45 -1.55 -4.75 Q1.1 -6.6 0.5 -9.5 L-0.45 -9.3 -0.5 -9.3 -0.8 -9.35 -0.9 -9.45 M7.2 -10.7 Q7.65 -11.15 8.25 -11.45 L8.5 -11.5 8.55 -11.95 8.6 -12.0 8.6 -12.05 8.6 -13.1 8.3 -14.1 8.15 -14.45 8.0 -14.65 7.25 -14.45 6.15 -13.6 Q6.05 -13.5 5.95 -13.5 L5.8 -13.45 5.65 -13.55 5.45 -13.9 5.0 -16.0 4.65 -17.05 4.25 -17.95 3.15 -19.55 2.85 -19.25 2.15 -18.55 1.6 -17.8 Q0.85 -16.75 0.5 -15.55 L0.2 -14.35 0.1 -14.1 -0.1 -14.0 -0.35 -13.9 -0.5 -13.95 -0.8 -14.15 Q-1.3 -14.95 -2.4 -14.8 L-2.65 -14.75 -3.0 -13.85 -2.15 -13.05 -1.15 -11.75 -0.5 -10.65 -0.3 -10.25 0.15 -10.35 0.5 -10.5 0.8 -10.5 1.1 -10.4 1.3 -10.25 1.45 -9.65 1.5 -9.55 1.55 -9.35 Q2.05 -6.05 -1.05 -3.95 L-1.55 -3.65 -1.6 -3.6 -1.6 -3.5 Q-1.4 -1.85 -1.55 -0.45 L-1.15 -0.45 Q-0.3 -0.55 0.65 -1.0 L1.1 -1.2 1.45 -1.45 1.45 -1.6 1.4 -1.75 1.45 -1.85 1.4 -1.95 1.3 -2.65 1.35 -3.45 1.4 -3.5 1.4 -3.65 1.8 -6.65 1.9 -6.75 2.0 -6.7 2.0 -5.4 2.05 -5.6 2.2 -5.85 2.5 -5.95 2.75 -5.9 3.55 -5.8 Q4.3 -7.95 5.85 -9.5 L6.7 -10.3 6.85 -10.45 6.9 -10.5 7.2 -10.7 M9.15 -14.55 L9.45 -13.5 9.5 -12.8 9.65 -12.75 9.75 -12.65 9.85 -12.4 9.95 -11.8 10.55 -11.9 11.85 -11.8 12.4 -11.65 Q13.9 -14.15 14.0 -16.65 11.1 -16.65 8.8 -15.15 L9.15 -14.55 M6.25 -14.95 L7.25 -15.45 7.05 -16.5 6.65 -17.45 5.55 -17.4 6.15 -15.2 6.2 -14.95 6.25 -14.95 M9.95 -10.15 L11.05 -10.95 10.15 -10.85 10.0 -10.8 9.6 -10.7 9.95 -10.15 M9.15 6.2 L9.3 6.15 9.55 6.3 Q11.7 8.25 14.55 7.15 L14.7 5.35 Q14.7 5.15 14.85 5.05 14.9 4.95 15.05 4.9 L15.3 4.85 Q17.75 5.05 19.4 3.55 19.4 2.0 17.65 0.9 L17.45 0.7 Q17.4 0.55 17.5 0.45 L17.65 0.2 18.55 -0.35 18.6 -0.4 Q19.95 -1.1 20.4 -2.35 19.8 -3.15 18.6 -3.3 18.4 -3.3 18.35 -3.45 L18.25 -3.75 18.4 -4.1 Q21.1 -6.5 21.85 -9.2 18.7 -10.0 15.9 -8.7 L15.6 -8.6 15.4 -8.7 15.2 -8.9 15.15 -9.05 15.15 -9.1 15.15 -9.4 15.2 -9.55 Q15.45 -10.5 14.65 -11.3 L13.75 -11.1 12.3 -10.55 10.9 -9.7 10.1 -8.95 9.85 -8.8 9.6 -8.8 Q9.45 -8.8 9.35 -8.95 9.25 -9.0 9.25 -9.2 L9.25 -9.35 8.4 -10.5 7.45 -9.85 7.0 -9.4 Q5.6 -8.1 4.85 -6.4 L4.8 -6.3 4.35 -5.25 4.25 -5.1 4.15 -4.95 3.85 -4.9 2.85 -4.95 Q2.55 -1.7 5.95 -0.15 L6.05 -0.35 6.2 -0.45 6.35 -0.6 6.7 -0.8 6.85 -1.0 7.5 -1.4 7.75 -1.5 10.45 -2.9 10.55 -2.9 10.55 -2.8 8.45 -1.4 8.3 -1.2 8.1 -1.1 7.9 -0.9 6.9 -0.05 6.9 0.0 6.7 0.2 6.6 0.4 6.5 0.5 6.5 0.55 6.55 0.6 6.55 1.4 6.55 1.45 6.65 2.45 Q6.85 4.85 8.05 6.45 L9.05 6.2 9.15 6.2 M2.45 -1.5 L2.95 -1.15 Q2.3 -1.95 2.05 -2.85 L2.0 -2.8 2.15 -2.35 2.15 -2.15 2.2 -2.1 2.25 -2.0 2.2 -1.85 2.35 -1.5 2.45 -1.5 M4.15 1.5 L5.2 1.05 Q4.0 0.65 2.75 -0.1 L3.1 0.35 4.0 1.35 4.15 1.5" fill="#51293f" fill-rule="evenodd" stroke="none"/>
  </g>
</svg>
