<?xml version="1.0" encoding="UTF-8" standalone="no"?>
<svg xmlns:ffdec="https://www.free-decompiler.com/flash" xmlns:xlink="http://www.w3.org/1999/xlink" ffdec:objectType="shape" height="110.3px" width="8.3px" xmlns="http://www.w3.org/2000/svg">
  <g transform="matrix(1.0, 0.0, 0.0, 1.0, -6.15, -0.65)">
    <path d="M13.2 0.85 L13.75 0.7 14.05 0.7 14.3 0.85 14.45 1.15 14.45 8.95 14.35 9.2 Q13.3 10.95 11.85 12.1 10.65 12.95 9.25 13.45 L6.7 13.85 6.4 13.8 6.25 13.6 6.15 13.3 6.15 5.55 Q6.15 5.35 6.3 5.2 L7.75 4.0 Q8.05 5.0 9.25 4.6 L11.85 3.0 Q12.7 2.1 13.2 0.85 M11.85 10.75 L13.4 8.8 13.4 2.8 11.85 4.3 Q10.65 5.2 9.25 5.65 L7.2 6.1 7.2 12.8 9.25 12.35 11.85 10.75 M13.2 20.15 L13.75 20.0 14.05 20.0 14.3 20.15 14.45 20.45 14.45 28.25 14.35 28.5 Q13.3 30.25 11.85 31.4 10.65 32.25 9.25 32.75 L6.7 33.15 6.4 33.1 6.25 32.9 6.15 32.6 6.15 24.85 Q6.15 24.65 6.3 24.5 L7.75 23.3 Q8.05 24.3 9.25 23.9 L11.85 22.3 Q12.7 21.4 13.2 20.15 M11.85 30.05 L13.4 28.1 13.4 22.1 11.85 23.6 Q10.65 24.5 9.25 24.95 L7.2 25.4 7.2 32.1 9.25 31.65 11.85 30.05 M13.2 39.55 L13.75 39.4 14.05 39.4 14.3 39.55 14.45 39.85 14.45 47.65 14.35 47.9 Q13.3 49.65 11.85 50.8 10.65 51.65 9.25 52.15 L6.7 52.55 6.4 52.5 6.25 52.3 6.15 52.0 6.15 44.25 Q6.15 44.05 6.3 43.9 L7.75 42.7 Q8.05 43.7 9.25 43.3 L11.85 41.7 Q12.7 40.8 13.2 39.55 M9.25 44.35 L7.2 44.8 7.2 51.5 9.25 51.05 11.85 49.45 13.4 47.5 13.4 41.5 11.85 43.0 Q10.65 43.9 9.25 44.35 M13.2 58.9 L13.75 58.75 14.05 58.75 14.3 58.9 14.45 59.2 14.45 67.0 14.35 67.25 Q13.3 69.0 11.85 70.15 10.65 71.0 9.25 71.5 L6.7 71.9 6.4 71.85 6.25 71.65 6.15 71.35 6.15 63.6 Q6.15 63.4 6.3 63.25 L7.75 62.05 Q8.05 63.05 9.25 62.65 L11.85 61.05 Q12.7 60.15 13.2 58.9 M9.25 63.7 L7.2 64.15 7.2 70.85 9.25 70.4 11.85 68.8 13.4 66.85 13.4 60.85 11.85 62.35 Q10.65 63.25 9.25 63.7 M13.2 78.3 L13.75 78.15 14.05 78.15 14.3 78.3 14.45 78.6 14.45 86.4 14.35 86.65 Q13.3 88.4 11.85 89.55 10.65 90.4 9.25 90.9 L6.7 91.3 6.4 91.25 6.25 91.05 6.15 90.75 6.15 83.0 Q6.15 82.8 6.3 82.65 L7.75 81.45 Q8.05 82.45 9.25 82.05 L11.85 80.45 Q12.7 79.55 13.2 78.3 M11.85 88.2 L13.4 86.25 13.4 80.25 11.85 81.75 Q10.65 82.65 9.25 83.1 L7.2 83.55 7.2 90.25 9.25 89.8 11.85 88.2 M13.2 97.95 L13.75 97.8 14.05 97.8 14.3 97.95 14.45 98.25 14.45 106.05 14.35 106.3 Q13.3 108.05 11.85 109.2 10.65 110.05 9.25 110.55 L6.7 110.95 6.4 110.9 6.25 110.7 6.15 110.4 6.15 102.65 Q6.15 102.45 6.3 102.3 L7.75 101.1 Q8.05 102.1 9.25 101.7 L11.85 100.1 Q12.7 99.2 13.2 97.95 M11.85 107.85 L13.4 105.9 13.4 99.9 11.85 101.4 Q10.65 102.3 9.25 102.75 L7.2 103.2 7.2 109.9 9.25 109.45 11.85 107.85" fill="#d36ea1" fill-rule="evenodd" stroke="none"/>
    <path d="M11.85 4.3 L13.4 2.8 13.4 8.8 11.85 10.75 11.85 4.3 M9.25 12.35 L7.2 12.8 7.2 6.1 9.25 5.65 9.25 12.35 M11.85 23.6 L13.4 22.1 13.4 28.1 11.85 30.05 11.85 23.6 M9.25 31.65 L7.2 32.1 7.2 25.4 9.25 24.95 9.25 31.65 M9.25 51.05 L7.2 51.5 7.2 44.8 9.25 44.35 9.25 51.05 M11.85 43.0 L13.4 41.5 13.4 47.5 11.85 49.45 11.85 43.0 M9.25 70.4 L7.2 70.85 7.2 64.15 9.25 63.7 9.25 70.4 M11.85 62.35 L13.4 60.85 13.4 66.85 11.85 68.8 11.85 62.35 M11.85 81.75 L13.4 80.25 13.4 86.25 11.85 88.2 11.85 81.75 M9.25 89.8 L7.2 90.25 7.2 83.55 9.25 83.1 9.25 89.8 M11.85 101.4 L13.4 99.9 13.4 105.9 11.85 107.85 11.85 101.4 M9.25 109.45 L7.2 109.9 7.2 103.2 9.25 102.75 9.25 109.45" fill="#ff9acd" fill-rule="evenodd" stroke="none"/>
    <path d="M11.85 10.75 L9.25 12.35 9.25 5.65 Q10.65 5.2 11.85 4.3 L11.85 10.75 M11.85 30.05 L9.25 31.65 9.25 24.95 Q10.65 24.5 11.85 23.6 L11.85 30.05 M9.25 44.35 Q10.65 43.9 11.85 43.0 L11.85 49.45 9.25 51.05 9.25 44.35 M9.25 63.7 Q10.65 63.25 11.85 62.35 L11.85 68.8 9.25 70.4 9.25 63.7 M11.85 88.2 L9.25 89.8 9.25 83.1 Q10.65 82.65 11.85 81.75 L11.85 88.2 M11.85 107.85 L9.25 109.45 9.25 102.75 Q10.65 102.3 11.85 101.4 L11.85 107.85" fill="#ffd7eb" fill-rule="evenodd" stroke="none"/>
  </g>
</svg>
