<?xml version="1.0" encoding="UTF-8" standalone="no"?>
<svg xmlns:ffdec="https://www.free-decompiler.com/flash" xmlns:xlink="http://www.w3.org/1999/xlink" ffdec:objectType="shape" height="14.55px" width="11.9px" xmlns="http://www.w3.org/2000/svg">
  <g transform="matrix(1.0, 0.0, 0.0, 1.0, -6.05, -4.75)">
    <path d="M17.95 19.3 L6.05 19.3 Q6.25 17.55 7.3 16.0 8.3 14.4 11.15 12.3 12.9 11.0 13.4 10.35 L13.9 9.05 Q13.9 8.4 13.4 7.95 12.95 7.45 12.2 7.45 11.45 7.45 10.95 7.95 10.45 8.4 10.3 9.65 L6.3 9.3 Q6.55 7.65 7.2 6.7 7.8 5.75 8.95 5.25 10.1 4.75 12.1 4.75 L15.35 5.2 Q16.55 5.7 17.2 6.7 17.85 7.7 17.85 8.9 17.85 10.2 17.1 11.4 16.35 12.6 14.3 14.05 L12.7 15.2 11.75 16.05 17.95 16.05 17.95 19.3" fill="#ffffff" fill-rule="evenodd" stroke="none"/>
  </g>
</svg>
