<?xml version="1.0" encoding="UTF-8" standalone="no"?>
<svg xmlns:ffdec="https://www.free-decompiler.com/flash" xmlns:xlink="http://www.w3.org/1999/xlink" ffdec:objectType="shape" height="48.6px" width="31.3px" xmlns="http://www.w3.org/2000/svg">
  <g transform="matrix(1.0, 0.0, 0.0, 1.0, 0.0, 0.0)">
    <path d="M27.9 4.1 L28.4 4.95 29.1 6.6 Q29.55 7.75 30.45 7.95 L30.75 7.25 Q31.05 6.65 30.75 5.85 L29.95 4.3 29.2 3.1 28.85 2.45 28.6 2.05 27.9 1.05 Q26.55 0.2 25.45 0.45 24.35 0.7 24.0 1.25 L23.35 2.05 22.6 2.9 22.2 3.45 21.55 4.45 21.3 5.25 21.05 6.2 21.0 6.7 21.15 8.7 21.35 9.55 21.85 10.9 22.65 12.3 23.45 13.45 24.35 14.85 25.15 16.15 26.05 17.6 26.6 19.0 Q27.1 20.7 26.9 22.3 L26.75 22.7 26.15 23.75 Q25.5 24.5 24.3 24.45 23.5 24.3 23.15 23.8 L21.55 21.4 20.85 20.7 18.65 20.0 16.05 19.8 Q13.85 19.75 11.85 20.45 L10.05 21.0 Q8.25 21.35 6.65 22.25 4.5 23.35 2.75 24.75 L0.35 26.9 0.35 27.85 1.7 27.6 Q3.25 27.15 4.45 26.3 L5.7 26.3 6.6 26.05 8.85 25.45 9.45 25.75 9.7 25.35 Q10.3 24.3 10.9 24.8 L10.7 25.2 Q10.4 25.75 10.7 26.05 L12.0 26.2 12.25 27.0 13.7 27.1 14.7 26.5 14.85 26.6 14.4 27.5 Q15.05 28.0 15.95 28.1 L17.1 27.9 18.0 27.9 18.75 28.45 19.15 28.45 20.65 28.15 20.6 28.4 19.4 28.95 18.7 29.05 17.6 28.45 15.95 28.6 Q14.85 28.35 13.9 27.65 12.65 27.95 11.8 27.25 L11.65 26.8 10.75 26.5 10.25 26.3 10.2 25.9 10.1 25.65 10.1 25.75 9.6 26.25 9.4 26.1 9.0 25.9 8.6 26.15 7.35 26.1 6.95 26.5 6.6 26.65 5.45 26.6 Q4.85 26.65 4.1 27.05 L5.95 27.35 7.55 27.65 9.3 28.15 11.0 28.8 12.25 29.0 13.6 29.1 Q14.35 29.2 14.6 29.6 15.2 30.45 16.2 30.55 L17.9 30.4 19.8 29.9 21.6 29.55 22.7 29.4 24.55 28.8 25.45 28.4 26.55 27.95 27.7 27.25 28.7 26.0 29.0 24.95 29.05 23.45 29.0 22.15 28.75 20.2 28.4 18.85 26.85 15.95 25.75 14.45 25.0 13.5 24.35 12.55 23.8 11.7 23.0 10.05 22.5 8.7 Q22.3 7.9 22.5 7.0 L22.9 5.55 23.45 4.0 23.55 3.75 Q24.0 3.4 23.8 3.1 L23.75 2.85 Q23.9 2.65 24.2 2.6 23.95 3.0 24.55 3.3 L26.0 3.85 Q27.05 3.7 27.9 4.1 M15.5 31.0 L14.8 30.55 14.3 30.15 13.6 29.85 12.2 29.7 10.6 29.4 9.65 29.05 8.45 28.5 6.65 28.1 4.8 27.7 3.45 27.7 2.5 27.9 1.1 28.4 0.05 28.15 0.0 27.3 Q0.05 26.3 0.75 25.7 L2.25 24.45 3.8 23.35 5.1 22.55 6.45 21.85 7.65 21.3 Q8.45 20.9 9.3 20.55 L10.3 20.1 12.15 19.6 13.7 19.35 15.2 19.1 18.65 19.25 19.95 19.75 21.5 20.6 22.3 21.35 22.45 21.55 22.9 22.2 23.65 23.2 24.2 23.8 25.45 23.8 25.4 23.65 25.5 23.45 26.15 22.75 26.3 22.65 26.25 21.4 26.05 19.55 25.65 18.05 25.5 17.85 24.6 16.5 23.6 14.95 22.45 13.1 21.5 11.2 20.85 9.4 20.5 7.65 20.5 6.05 Q20.5 5.65 20.65 5.25 L21.3 3.7 22.2 2.55 Q22.65 2.1 23.2 1.75 23.2 1.15 23.9 0.65 25.05 -0.1 26.35 0.0 L27.4 0.4 28.65 1.3 29.4 2.3 29.95 3.25 30.8 4.8 31.2 5.8 31.3 6.4 31.2 7.45 30.95 8.2 30.65 8.55 29.75 8.4 29.0 7.25 28.85 7.0 27.85 5.5 Q27.35 4.85 26.7 4.6 L25.6 4.45 25.15 4.25 24.2 4.0 24.0 4.2 23.3 5.75 Q22.8 7.25 23.1 8.5 L23.55 9.8 Q24.1 11.0 24.95 12.15 L27.2 15.2 27.9 16.2 28.45 17.35 29.5 20.6 29.75 22.95 29.75 24.25 29.75 25.25 Q29.7 26.1 29.2 26.65 L28.45 27.4 27.25 28.45 26.05 29.1 25.45 29.25 24.1 29.6 22.75 30.05 21.1 30.15 19.5 30.4 18.55 30.9 17.8 31.2 17.45 31.2 17.35 31.2 17.35 31.15 17.2 31.0 17.05 31.0 Q16.9 31.0 16.9 31.1 L16.85 31.2 15.95 31.1 15.9 31.0 15.75 30.85 15.6 30.9 15.5 31.0" fill="#980e56" fill-rule="evenodd" stroke="none"/>
    <path d="M29.2 3.1 L29.95 4.3 30.75 5.85 Q31.05 6.65 30.75 7.25 L30.45 7.95 Q29.55 7.75 29.1 6.6 L28.4 4.95 27.9 4.1 27.75 3.95 Q28.4 3.3 29.2 3.1" fill="#fbde79" fill-rule="evenodd" stroke="none"/>
    <path d="M24.2 2.6 Q23.9 2.65 23.75 2.85 L23.8 3.1 22.45 5.1 21.9 5.05 21.85 4.6 23.35 2.05 24.0 1.25 Q24.35 0.7 25.45 0.45 26.55 0.2 27.9 1.05 L28.6 2.05 28.85 2.45 28.85 2.55 27.5 2.7 Q27.65 1.4 26.65 2.1 26.5 2.2 26.45 2.45 L24.2 2.6 M26.85 15.95 L28.4 18.85 28.75 20.2 Q28.9 21.25 28.4 22.05 L27.95 22.6 27.9 21.65 Q28.25 19.6 27.35 17.7 L26.2 16.0 25.65 15.5 26.15 15.45 26.5 15.65 26.85 15.95 M20.45 21.8 L21.4 22.6 23.0 23.9 24.15 24.55 25.35 24.75 26.3 24.6 26.95 24.1 27.1 23.95 27.3 24.2 27.35 24.9 27.2 25.25 26.55 25.65 Q26.1 25.9 25.6 26.1 L22.85 26.65 21.45 26.85 18.55 27.15 17.4 26.8 16.25 26.1 15.0 25.4 13.45 25.0 13.25 24.75 13.15 24.4 13.2 24.05 9.3 23.75 8.8 24.05 7.6 24.5 5.95 25.1 5.15 25.05 5.15 24.5 5.95 23.8 7.5 22.85 9.2 22.1 10.65 21.4 17.95 20.6 Q19.15 21.05 20.45 21.8 M12.45 22.15 Q12.05 22.95 12.75 23.4 L13.55 23.3 13.05 23.1 Q13.0 22.4 12.6 22.25 L12.45 22.15 M16.0 22.95 L15.75 23.65 15.75 24.1 Q16.15 24.65 16.95 24.6 L17.7 24.15 17.05 23.85 16.2 23.85 16.4 23.5 16.75 23.15 16.25 22.9 16.0 22.95 M18.25 23.4 L19.7 23.5 18.65 23.15 19.5 22.05 19.45 21.9 18.95 21.9 18.3 23.0 18.25 23.4 M18.9 25.5 L19.0 25.85 19.2 26.05 20.5 25.95 19.4 25.4 19.85 24.9 20.1 24.5 19.15 24.9 18.95 25.15 18.9 25.5" fill="#f8a5c1" fill-rule="evenodd" stroke="none"/>
    <path d="M27.9 4.1 Q27.05 3.7 26.0 3.85 L24.55 3.3 Q23.95 3.0 24.2 2.6 L26.45 2.45 Q26.6 3.05 27.35 2.85 L27.5 2.7 28.85 2.55 28.85 2.45 29.2 3.1 Q28.4 3.3 27.75 3.95 L27.9 4.1 M23.8 3.1 Q24.0 3.4 23.55 3.75 L23.45 4.0 22.9 5.55 22.5 7.0 Q22.3 7.9 22.5 8.7 L23.0 10.05 23.8 11.7 24.35 12.55 25.0 13.5 25.75 14.45 26.85 15.95 26.5 15.65 26.15 15.45 25.65 15.5 26.2 16.0 27.35 17.7 Q28.25 19.6 27.9 21.65 L27.95 22.6 28.4 22.05 Q28.9 21.25 28.75 20.2 L29.0 22.15 29.05 23.45 29.0 24.95 28.7 26.0 27.2 26.55 25.6 27.25 23.9 27.55 22.55 27.7 20.65 28.15 19.15 28.45 18.75 28.45 18.0 27.9 17.1 27.9 15.95 28.1 Q15.05 28.0 14.4 27.5 L14.85 26.6 14.7 26.5 13.7 27.1 12.25 27.0 12.0 26.2 10.7 26.05 Q10.4 25.75 10.7 25.2 L10.9 24.8 Q10.3 24.3 9.7 25.35 L9.45 25.75 8.85 25.45 6.6 26.05 5.7 26.3 4.45 26.3 Q3.25 27.15 1.7 27.6 L0.35 27.85 0.35 26.9 2.75 24.75 Q4.5 23.35 6.65 22.25 8.25 21.35 10.05 21.0 L11.85 20.45 Q13.85 19.75 16.05 19.8 L18.65 20.0 20.85 20.7 21.55 21.4 23.15 23.8 Q23.5 24.3 24.3 24.45 25.5 24.5 26.15 23.75 L26.75 22.7 26.9 22.3 Q27.1 20.7 26.6 19.0 L26.05 17.6 25.15 16.15 24.35 14.85 23.45 13.45 22.65 12.3 21.85 10.9 21.35 9.55 21.15 8.7 21.0 6.7 21.05 6.2 21.3 5.25 21.55 4.45 22.2 3.45 22.6 2.9 23.35 2.05 21.85 4.6 21.9 5.05 22.45 5.1 23.8 3.1 M20.45 21.8 Q19.15 21.05 17.95 20.6 L10.65 21.4 9.2 22.1 7.5 22.85 5.95 23.8 5.15 24.5 5.15 25.05 5.95 25.1 7.6 24.5 8.8 24.05 9.3 23.75 13.2 24.05 13.15 24.4 13.25 24.75 13.45 25.0 15.0 25.4 16.25 26.1 17.4 26.8 18.55 27.15 21.45 26.85 22.85 26.65 25.6 26.1 Q26.1 25.9 26.55 25.65 L27.2 25.25 27.35 24.9 27.3 24.2 27.1 23.95 26.95 24.1 26.3 24.6 25.35 24.75 24.15 24.55 23.0 23.9 21.4 22.6 20.45 21.8 M18.9 25.5 L18.95 25.15 19.15 24.9 20.1 24.5 19.85 24.9 19.4 25.4 20.5 25.95 19.2 26.05 19.0 25.85 18.9 25.5 M18.25 23.4 L18.3 23.0 18.95 21.9 19.45 21.9 19.5 22.05 18.65 23.15 19.7 23.5 18.25 23.4 M16.0 22.95 L16.25 22.9 16.75 23.15 16.4 23.5 16.2 23.85 17.05 23.85 17.7 24.15 16.95 24.6 Q16.15 24.65 15.75 24.1 L15.75 23.65 16.0 22.95 M12.45 22.15 L12.6 22.25 Q13.0 22.4 13.05 23.1 L13.55 23.3 12.75 23.4 Q12.05 22.95 12.45 22.15" fill="#f376a2" fill-rule="evenodd" stroke="none"/>
    <path d="M26.45 2.45 Q26.5 2.2 26.65 2.1 27.65 1.4 27.5 2.7 L27.35 2.85 Q26.6 3.05 26.45 2.45" fill="#000000" fill-rule="evenodd" stroke="none"/>
    <path d="M28.7 26.0 L27.7 27.25 26.55 27.95 25.45 28.4 24.55 28.8 22.7 29.4 21.6 29.55 19.8 29.9 17.9 30.4 16.2 30.55 Q15.2 30.45 14.6 29.6 14.35 29.2 13.6 29.1 L12.25 29.0 11.0 28.8 9.3 28.15 7.55 27.65 5.95 27.35 4.1 27.05 Q4.85 26.65 5.45 26.6 L6.6 26.65 6.95 26.5 7.35 26.1 8.6 26.15 9.0 25.9 9.4 26.1 9.6 26.25 10.1 25.75 10.1 25.65 10.2 25.9 10.25 26.3 10.75 26.5 11.65 26.8 11.8 27.25 Q12.65 27.95 13.9 27.65 14.85 28.35 15.95 28.6 L17.6 28.45 18.7 29.05 19.4 28.95 20.6 28.4 20.65 28.15 22.55 27.7 23.9 27.55 25.6 27.25 27.2 26.55 28.7 26.0" fill="#ee3e7b" fill-rule="evenodd" stroke="none"/>
    <path d="M15.5 31.0 L15.6 30.9 15.75 30.85 15.9 31.0 15.95 31.1 15.95 31.15 12.35 46.85 11.85 46.8 15.45 31.05 15.5 31.0 M16.85 31.2 L16.9 31.1 Q16.9 31.0 17.05 31.0 L17.2 31.0 17.35 31.15 17.35 31.2 23.15 48.6 22.65 48.5 16.9 31.3 16.85 31.2" fill="#333333" fill-rule="evenodd" stroke="none"/>
  </g>
</svg>
