<?xml version="1.0" encoding="UTF-8" standalone="no"?>
<svg xmlns:ffdec="https://www.free-decompiler.com/flash" xmlns:xlink="http://www.w3.org/1999/xlink" ffdec:objectType="shape" height="60.4px" width="60.5px" xmlns="http://www.w3.org/2000/svg">
  <g transform="matrix(1.0, 0.0, 0.0, 1.0, 21.65, 43.75)">
    <path d="M38.85 -13.55 Q38.85 -1.1 30.0 7.8 21.15 16.65 8.55 16.65 -3.95 16.65 -12.8 7.8 -21.65 -1.1 -21.65 -13.55 -21.65 -26.05 -12.8 -34.9 -3.95 -43.75 8.55 -43.75 21.15 -43.75 30.0 -34.9 38.85 -26.05 38.85 -13.55" fill="url(#gradient0)" fill-rule="evenodd" stroke="none"/>
    <path d="M7.5 -3.4 L5.9 -5.15 7.65 -20.7 8.3 -20.55 9.7 -5.4 Q9.4 -3.65 8.75 -3.25 L8.8 -3.55 8.8 -4.5 Q8.8 -8.3 8.0 -10.95 7.5 -10.15 7.25 -8.1 7.1 -6.65 7.1 -4.8 L7.3 -3.75 7.4 -3.5 7.5 -3.4" fill="#ff9900" fill-rule="evenodd" stroke="none"/>
    <path d="M8.75 -3.25 L7.5 -3.4 7.4 -3.5 7.3 -3.75 7.1 -4.8 Q7.1 -6.65 7.25 -8.1 7.5 -10.15 8.0 -10.95 8.8 -8.3 8.8 -4.5 L8.8 -3.55 8.75 -3.25" fill="#ffcc33" fill-rule="evenodd" stroke="none"/>
  </g>
  <defs>
    <radialGradient cx="0" cy="0" gradientTransform="matrix(0.0381, 0.0, 0.0, 0.0381, 8.55, -13.55)" gradientUnits="userSpaceOnUse" id="gradient0" r="819.2" spreadMethod="pad">
      <stop offset="0.0" stop-color="#ffe04d" stop-opacity="0.4392157"/>
      <stop offset="0.4117647058823529" stop-color="#ffe461" stop-opacity="0.13725491"/>
      <stop offset="0.6509803921568628" stop-color="#ffdc38" stop-opacity="0.05882353"/>
      <stop offset="1.0" stop-color="#ffd619" stop-opacity="0.0"/>
    </radialGradient>
  </defs>
</svg>
