<?xml version="1.0" encoding="UTF-8" standalone="no"?>
<svg xmlns:ffdec="https://www.free-decompiler.com/flash" xmlns:xlink="http://www.w3.org/1999/xlink" ffdec:objectType="shape" height="19.75px" width="35.6px" xmlns="http://www.w3.org/2000/svg">
  <g transform="matrix(1.0, 0.0, 0.0, 1.0, 0.0, 0.0)">
    <path d="M32.05 6.6 L31.15 5.85 29.95 4.75 28.4 3.7 26.15 2.25 26.4 2.2 Q27.7 2.4 28.65 3.15 31.0 4.35 32.05 6.6 M24.75 7.9 L25.1 7.9 Q26.1 8.65 26.5 9.75 L26.45 9.7 Q25.3 9.05 24.75 7.9 M25.5 3.45 L25.55 4.25 Q25.4 5.5 24.5 6.7 23.55 7.7 22.0 7.95 L21.95 7.55 23.05 7.15 24.25 5.85 Q25.5 4.15 24.4 2.5 23.8 1.6 24.2 1.15 L24.45 1.2 Q25.15 2.15 25.5 3.45 M11.4 1.15 Q11.8 1.6 11.2 2.5 10.1 4.15 11.35 5.85 L12.55 7.15 13.65 7.55 13.6 7.95 Q12.05 7.7 11.1 6.7 10.2 5.5 10.05 4.25 L10.1 3.45 Q10.45 2.15 11.15 1.2 L11.4 1.15 M10.85 7.9 Q10.3 9.05 9.15 9.7 L9.1 9.75 Q9.5 8.65 10.5 7.9 L10.85 7.9 M9.45 2.25 L7.2 3.7 Q6.35 4.15 5.65 4.75 L4.45 5.85 3.55 6.6 Q4.6 4.35 6.95 3.15 7.9 2.4 9.2 2.2 L9.45 2.25" fill="#464646" fill-rule="evenodd" stroke="none"/>
    <path d="M32.05 6.6 Q31.0 4.35 28.65 3.15 27.7 2.4 26.4 2.2 L26.15 2.25 28.4 3.7 29.95 4.75 31.15 5.85 32.05 6.6 M35.35 11.7 L33.65 9.1 Q32.6 7.6 31.0 6.95 29.55 6.35 28.25 6.95 27.6 7.35 27.5 8.2 27.2 10.8 29.35 12.35 28.05 11.45 26.65 10.85 25.1 10.05 23.45 10.35 22.4 10.85 22.5 11.85 22.65 13.35 23.2 15.1 L21.6 13.2 Q20.9 12.45 20.7 11.35 20.3 9.35 20.7 7.55 L20.9 6.7 Q22.45 6.25 23.15 5.15 23.85 4.1 23.7 2.85 23.6 1.05 21.85 0.75 L23.1 0.2 26.6 1.1 Q28.85 1.85 30.55 3.4 32.4 5.05 33.8 7.05 35.25 9.1 35.35 11.7 M25.5 3.45 Q25.15 2.15 24.45 1.2 L24.2 1.15 Q23.8 1.6 24.4 2.5 25.5 4.15 24.25 5.85 L23.05 7.15 21.95 7.55 22.0 7.95 Q23.55 7.7 24.5 6.7 25.4 5.5 25.55 4.25 L25.5 3.45 M24.75 7.9 Q25.3 9.05 26.45 9.7 L26.5 9.75 Q26.1 8.65 25.1 7.9 L24.75 7.9 M11.4 1.15 L11.15 1.2 Q10.45 2.15 10.1 3.45 L10.05 4.25 Q10.2 5.5 11.1 6.7 12.05 7.7 13.6 7.95 L13.65 7.55 12.55 7.15 11.35 5.85 Q10.1 4.15 11.2 2.5 11.8 1.6 11.4 1.15 M13.75 0.75 Q12.0 1.05 11.9 2.85 11.75 4.1 12.45 5.15 13.15 6.25 14.7 6.7 L14.9 7.55 Q15.3 9.35 14.9 11.35 14.7 12.45 14.0 13.2 L12.4 15.1 Q12.95 13.35 13.1 11.85 13.2 10.85 12.15 10.35 10.5 10.05 8.95 10.85 7.55 11.45 6.25 12.35 8.4 10.8 8.1 8.2 8.0 7.35 7.35 6.95 6.05 6.35 4.6 6.95 3.0 7.6 1.95 9.1 L0.25 11.7 Q0.35 9.1 1.8 7.05 3.2 5.05 5.05 3.4 6.75 1.85 9.0 1.1 L12.5 0.2 13.75 0.75 M10.85 7.9 L10.5 7.9 Q9.5 8.65 9.1 9.75 L9.15 9.7 Q10.3 9.05 10.85 7.9 M9.45 2.25 L9.2 2.2 Q7.9 2.4 6.95 3.15 4.6 4.35 3.55 6.6 L4.45 5.85 5.65 4.75 Q6.35 4.15 7.2 3.7 L9.45 2.25" fill="#202020" fill-rule="evenodd" stroke="none"/>
    <path d="M35.35 11.7 Q35.25 9.1 33.8 7.05 32.4 5.05 30.55 3.4 28.85 1.85 26.6 1.1 L23.1 0.2 21.85 0.75 Q23.6 1.05 23.7 2.85 23.85 4.1 23.15 5.15 22.45 6.25 20.9 6.7 L20.7 7.55 Q20.3 9.35 20.7 11.35 20.9 12.45 21.6 13.2 L23.2 15.1 Q22.65 13.35 22.5 11.85 22.4 10.85 23.45 10.35 25.1 10.05 26.65 10.85 28.05 11.45 29.35 12.35 27.2 10.8 27.5 8.2 27.6 7.35 28.25 6.95 29.55 6.35 31.0 6.95 32.6 7.6 33.65 9.1 L35.35 11.7 M34.15 6.5 Q36.1 9.15 35.4 12.3 L33.25 9.6 Q31.35 6.7 28.15 7.55 28.1 8.6 28.5 9.5 29.5 11.8 31.0 13.75 L29.95 13.3 Q27.3 11.3 24.15 10.6 23.7 10.85 23.2 11.05 L23.0 11.55 23.05 12.45 Q23.6 14.65 24.75 16.85 L24.75 17.0 Q22.6 14.9 20.3 13.6 L19.7 12.9 19.55 12.85 Q18.15 15.65 17.2 18.7 L16.75 19.75 Q15.85 19.1 15.85 17.75 16.0 15.65 15.45 13.95 L15.3 13.6 Q13.0 14.9 10.85 16.85 12.0 14.65 12.55 12.45 L12.6 11.55 12.4 11.05 11.45 10.6 Q8.3 11.3 5.65 13.3 L4.6 13.75 Q6.1 11.8 7.1 9.5 7.5 8.6 7.45 7.55 4.25 6.7 2.35 9.6 L0.2 12.3 Q-0.5 9.15 1.45 6.5 3.15 4.3 5.25 2.75 5.95 2.15 6.7 1.7 9.75 0.1 13.15 0.0 14.1 -0.05 14.85 0.45 15.85 1.0 15.3 1.95 14.95 2.3 14.45 1.95 L14.3 1.4 13.35 1.15 Q12.05 2.2 12.55 3.85 13.1 5.5 14.8 6.15 L14.95 6.0 Q15.9 4.85 15.9 3.15 17.05 3.7 17.35 4.95 17.7 3.65 18.6 2.8 18.7 4.2 19.45 5.35 L20.5 6.15 Q22.5 5.5 23.05 3.85 23.55 2.2 22.25 1.15 L21.3 1.4 21.15 1.95 Q20.65 2.3 20.3 1.95 19.75 1.0 20.75 0.45 21.5 -0.05 22.45 0.0 25.85 0.1 28.9 1.7 L30.35 2.75 Q32.45 4.3 34.15 6.5 M13.75 0.75 L12.5 0.2 9.0 1.1 Q6.75 1.85 5.05 3.4 3.2 5.05 1.8 7.05 0.35 9.1 0.25 11.7 L1.95 9.1 Q3.0 7.6 4.6 6.95 6.05 6.35 7.35 6.95 8.0 7.35 8.1 8.2 8.4 10.8 6.25 12.35 7.55 11.45 8.95 10.85 10.5 10.05 12.15 10.35 13.2 10.85 13.1 11.85 12.95 13.35 12.4 15.1 L14.0 13.2 Q14.7 12.45 14.9 11.35 15.3 9.35 14.9 7.55 L14.7 6.7 Q13.15 6.25 12.45 5.15 11.75 4.1 11.9 2.85 12.0 1.05 13.75 0.75 M16.4 6.5 Q15.5 6.55 15.85 7.2 L16.4 7.7 Q16.95 8.3 17.05 7.45 17.15 6.65 16.4 6.5 M17.75 7.85 L17.95 7.85 Q19.2 7.55 18.7 6.6 L18.1 6.65 17.65 7.2 17.6 7.55 17.6 7.7 17.75 7.85" fill="#040404" fill-rule="evenodd" stroke="none"/>
    <path d="M17.75 7.85 L17.6 7.7 17.6 7.55 17.65 7.2 18.1 6.65 18.7 6.6 Q19.2 7.55 17.95 7.85 L17.75 7.85 M16.4 6.5 Q17.15 6.65 17.05 7.45 16.95 8.3 16.4 7.7 L15.85 7.2 Q15.5 6.55 16.4 6.5" fill="#68b21d" fill-rule="evenodd" stroke="none"/>
  </g>
</svg>
