<?xml version="1.0" encoding="UTF-8" standalone="no"?>
<svg xmlns:ffdec="https://www.free-decompiler.com/flash" xmlns:xlink="http://www.w3.org/1999/xlink" ffdec:objectType="shape" height="186.35px" width="86.3px" xmlns="http://www.w3.org/2000/svg">
  <g transform="matrix(1.0, 0.0, 0.0, 1.0, -14.85, 319.8)">
    <path d="M59.9 -319.8 L60.15 -319.8 60.15 -230.1 60.1 -230.0 60.0 -229.95 59.9 -230.0 59.9 -230.1 59.9 -319.8 M14.9 -319.8 L15.15 -319.8 15.15 -211.6 15.1 -211.5 15.0 -211.45 14.9 -211.5 14.9 -211.6 14.9 -319.8 M24.4 -319.8 L24.65 -319.8 24.65 -152.6 24.6 -152.5 24.5 -152.45 24.4 -152.5 24.4 -152.6 24.4 -319.8 M82.9 -319.8 L83.15 -319.8 83.15 -133.6 83.1 -133.5 83.0 -133.45 82.9 -133.5 82.9 -133.6 82.9 -319.8 M93.4 -319.8 L93.65 -319.8 93.65 -245.1 93.6 -245.0 93.5 -244.95 93.4 -245.0 93.4 -245.1 93.4 -319.8 M100.9 -319.8 L101.15 -319.8 101.15 -185.1 101.1 -185.0 101.0 -184.95 100.9 -185.0 100.9 -185.1 100.9 -319.8" fill="url(#gradient0)" fill-rule="evenodd" stroke="none"/>
  </g>
  <defs>
    <linearGradient gradientTransform="matrix(-2.0E-4, 0.0239, -0.9993, -0.0078, -283.65, -268.75)" gradientUnits="userSpaceOnUse" id="gradient0" spreadMethod="pad" x1="-819.2" x2="819.2">
      <stop offset="0.0" stop-color="#ffffff" stop-opacity="0.0"/>
      <stop offset="1.0" stop-color="#ffffff"/>
    </linearGradient>
  </defs>
</svg>
