<?xml version="1.0" encoding="UTF-8" standalone="no"?>
<svg xmlns:ffdec="https://www.free-decompiler.com/flash" xmlns:xlink="http://www.w3.org/1999/xlink" ffdec:objectType="shape" height="14.65px" width="24.4px" xmlns="http://www.w3.org/2000/svg">
  <g transform="matrix(1.0, 0.0, 0.0, 1.0, 5.3, 5.05)">
    <path d="M8.5 -0.3 L8.55 -0.35 9.75 -1.05 Q10.8 -2.15 11.8 -4.25 13.95 -6.5 16.45 -2.55 18.9 1.4 19.1 2.7 19.25 4.0 13.85 6.55 8.45 9.1 3.25 9.55 -2.0 9.95 -4.05 7.7 -5.3 6.4 -5.3 5.05 -5.3 3.9 -4.0 0.65 -2.4 -3.25 -0.6 -3.4 L0.45 -3.35 -0.35 -1.85 Q-1.3 -0.4 -0.7 -0.15 L0.5 0.4 Q1.15 0.7 4.9 0.4 L7.3 0.05 7.5 0.0 7.65 -0.05 8.4 -0.2 8.5 -0.3 M12.65 -2.45 L10.1 -0.55 8.65 -0.05 7.7 0.25 Q2.6 1.7 -1.35 0.45 L-1.4 0.35 -1.7 -0.1 -1.35 -1.7 -2.95 0.9 -3.0 1.1 -3.2 1.5 Q-4.15 3.65 -4.15 5.0 -4.15 6.15 -3.0 7.3 L-2.9 7.4 -0.6 8.7 -0.55 8.7 0.35 8.9 1.2 9.05 1.4 9.05 2.55 9.1 3.7 9.05 4.65 8.9 4.85 8.9 11.05 7.0 11.3 6.9 12.4 6.4 16.35 4.4 17.05 3.95 17.5 3.65 17.8 3.35 Q18.2 2.95 18.25 2.2 18.3 1.45 16.6 -1.1 14.9 -3.65 14.0 -4.25 L13.1 -3.25 12.65 -2.45" fill="#464646" fill-rule="evenodd" stroke="none"/>
    <path d="M7.65 -0.05 L8.5 -0.3 8.4 -0.2 7.65 -0.05 M-1.4 0.35 L-1.35 0.45 Q2.6 1.7 7.7 0.25 L8.65 -0.05 10.1 -0.55 12.65 -2.45 12.65 -2.35 Q14.8 -0.75 15.55 0.45 L16.65 3.15 17.05 3.95 16.35 4.4 12.4 6.4 11.3 6.9 11.05 7.0 4.85 8.9 4.65 8.9 3.7 9.05 2.55 9.1 1.4 9.05 1.2 9.05 1.2 9.0 -0.35 8.4 Q-1.25 8.1 -1.6 7.65 L-3.3 5.65 -3.3 5.2 -2.5 5.15 -2.0 5.45 -0.8 5.7 -0.2 5.55 -0.75 5.05 -1.55 3.85 -1.85 1.95 -1.8 0.85 -1.4 0.35 M13.05 1.9 L12.95 2.5 12.1 2.65 11.25 2.55 11.2 2.0 Q11.2 1.3 12.1 1.25 13.05 1.2 13.05 1.9 M0.1 2.2 L0.1 2.3 -0.4 4.15 -0.6 4.8 1.55 5.1 7.6 5.5 8.5 5.5 8.6 5.8 Q8.6 6.15 6.6 6.55 L0.25 7.0 -0.85 6.95 -0.55 7.55 Q0.0 8.1 1.8 8.2 L2.1 8.15 Q6.05 7.65 8.05 6.9 L9.85 6.35 9.8 6.0 Q9.8 4.6 11.55 4.6 L12.75 4.85 14.8 2.45 Q14.05 0.7 12.95 -0.15 12.5 0.3 10.35 1.3 9.15 1.9 5.3 2.65 L2.45 2.6 0.25 2.25 0.1 2.2 M2.1 4.0 L2.9 4.05 3.0 4.1 3.1 4.4 Q3.1 4.9 2.1 4.9 L1.3 4.75 1.25 4.4 1.3 4.05 2.1 4.0" fill="#b4b4b4" fill-rule="evenodd" stroke="none"/>
    <path d="M-1.4 0.35 L-1.8 0.85 -1.85 1.95 -1.55 3.85 -0.75 5.05 -0.2 5.55 -0.8 5.7 -2.0 5.45 -2.5 5.15 -3.3 5.2 -3.3 5.65 -1.6 7.65 Q-1.25 8.1 -0.35 8.4 L1.2 9.0 1.2 9.05 0.35 8.9 -0.55 8.7 -0.6 8.7 -2.9 7.4 -3.0 7.3 Q-4.15 6.15 -4.15 5.0 -4.15 3.65 -3.2 1.5 L-3.0 1.1 -2.95 0.9 -1.35 -1.7 -1.7 -0.1 -1.4 0.35 M17.05 3.95 L16.65 3.15 15.55 0.45 Q14.8 -0.75 12.65 -2.35 L12.65 -2.45 13.1 -3.25 14.0 -4.25 Q14.9 -3.65 16.6 -1.1 18.3 1.45 18.25 2.2 18.2 2.95 17.8 3.35 L17.5 3.65 17.05 3.95" fill="#8a8a8a" fill-rule="evenodd" stroke="none"/>
    <path d="M2.1 4.0 L1.3 4.05 1.25 4.4 1.3 4.75 2.1 4.9 Q3.1 4.9 3.1 4.4 L3.0 4.1 2.9 4.05 2.1 4.0 M0.1 2.2 L0.25 2.25 2.45 2.6 5.3 2.65 Q9.15 1.9 10.35 1.3 12.5 0.3 12.95 -0.15 14.05 0.7 14.8 2.45 L12.75 4.85 11.55 4.6 Q9.8 4.6 9.8 6.0 L9.85 6.35 8.05 6.9 Q6.05 7.65 2.1 8.15 L1.8 8.2 Q0.0 8.1 -0.55 7.55 L-0.85 6.95 0.25 7.0 6.6 6.55 Q8.6 6.15 8.6 5.8 L8.5 5.5 7.6 5.5 1.55 5.1 -0.6 4.8 -0.4 4.15 0.1 2.3 0.1 2.2 M13.05 1.9 Q13.05 1.2 12.1 1.25 11.2 1.3 11.2 2.0 L11.25 2.55 12.1 2.65 12.95 2.5 13.05 1.9" fill="#e0e0e0" fill-rule="evenodd" stroke="none"/>
  </g>
</svg>
