<?xml version="1.0" encoding="UTF-8" standalone="no"?>
<svg xmlns:ffdec="https://www.free-decompiler.com/flash" xmlns:xlink="http://www.w3.org/1999/xlink" ffdec:objectType="shape" height="30.8px" width="39.8px" xmlns="http://www.w3.org/2000/svg">
  <g transform="matrix(1.0, 0.0, 0.0, 1.0, 20.9, 13.4)">
    <path d="M-5.4 -11.3 L-2.35 -11.8 0.85 -11.6 Q3.9 -11.25 6.4 -10.3 L7.7 -9.75 8.15 -9.0 8.7 -7.85 9.7 -6.9 Q10.25 -6.1 9.8 -5.15 9.5 -4.55 8.6 -3.8 L7.95 -3.35 7.0 -3.2 5.3 -3.2 3.45 -3.3 1.8 -3.85 -0.15 -4.3 -2.0 -4.8 -3.45 -5.4 -4.75 -5.95 -5.8 -6.8 Q-6.15 -7.25 -6.15 -8.25 -6.35 -10.25 -5.4 -11.3 M3.25 -0.15 L6.1 -0.75 8.35 -1.3 11.65 -0.75 12.65 -0.15 Q12.95 0.25 12.85 1.35 L12.8 3.1 11.95 4.6 Q10.55 6.6 9.4 7.55 L7.85 8.65 6.25 9.7 4.3 10.9 0.9 11.25 -0.55 11.05 -2.0 10.6 -4.3 10.15 -6.25 9.25 Q-9.45 7.45 -12.45 4.75 L-13.75 3.2 Q-14.35 2.05 -14.05 -0.25 L-13.85 -1.2 -12.8 -2.15 -11.0 -3.6 Q-10.0 -4.25 -8.7 -4.25 -7.45 -4.25 -6.45 -3.6 L-4.5 -2.0 -2.45 -1.0 Q-0.7 -0.2 0.3 -0.05 L3.25 -0.15" fill="#efefef" fill-rule="evenodd" stroke="none"/>
    <path d="M7.7 -9.75 L6.4 -10.3 Q3.9 -11.25 0.85 -11.6 L-2.35 -11.8 -5.4 -11.3 Q-6.35 -11.0 -6.9 -10.5 L-8.4 -8.6 -9.8 -6.65 -11.3 -5.65 -12.9 -4.85 Q-17.15 -2.6 -18.75 1.2 -19.4 2.75 -19.55 4.65 L-19.45 6.1 -19.65 6.4 -19.75 7.2 -19.7 8.9 Q-20.65 7.8 -20.85 6.5 -21.0 5.3 -20.3 3.15 L-18.75 -0.95 Q-17.7 -3.1 -16.2 -4.35 L-13.25 -6.2 Q-11.35 -7.25 -10.5 -8.25 L-9.45 -9.75 -8.45 -11.25 Q-6.65 -13.25 -2.35 -13.35 L3.5 -12.9 Q9.0 -11.95 11.9 -8.85 L14.0 -6.1 16.95 -1.75 18.15 0.15 Q18.8 1.65 18.9 4.75 19.0 7.75 18.55 9.15 18.0 10.9 16.5 12.4 L16.45 9.95 17.25 8.05 Q17.65 6.5 17.35 3.75 L17.05 1.65 16.55 0.55 15.25 -1.25 13.9 -3.05 12.95 -4.8 12.15 -5.65 11.7 -6.8 Q11.35 -7.65 10.1 -8.4 L7.7 -9.75 M-6.15 14.55 L-5.45 13.8 -5.3 13.9 -6.15 14.55" fill="#9d9d9d" fill-rule="evenodd" stroke="none"/>
    <path d="M-5.4 -11.3 Q-6.35 -10.25 -6.15 -8.25 -6.15 -7.25 -5.8 -6.8 L-4.75 -5.95 -3.45 -5.4 -2.0 -4.8 -0.15 -4.3 1.8 -3.85 3.45 -3.3 5.3 -3.2 7.0 -3.2 7.95 -3.35 8.6 -3.8 Q9.5 -4.55 9.8 -5.15 10.25 -6.1 9.7 -6.9 L8.7 -7.85 8.15 -9.0 7.7 -9.75 10.1 -8.4 Q11.35 -7.65 11.7 -6.8 L12.15 -5.65 12.95 -4.8 13.9 -3.05 15.25 -1.25 16.55 0.55 17.05 1.65 17.35 3.75 Q17.65 6.5 17.25 8.05 L16.45 9.95 16.5 12.4 14.25 14.1 Q12.05 15.55 9.05 16.55 4.55 17.9 -0.2 17.05 L-5.5 15.6 -13.85 12.6 -14.9 12.15 -18.85 9.75 -19.3 9.35 -19.7 8.95 -19.7 8.9 -19.75 7.2 -19.65 6.4 -19.45 6.1 -19.55 4.65 Q-19.4 2.75 -18.75 1.2 -17.15 -2.6 -12.9 -4.85 L-11.3 -5.65 -9.8 -6.65 -8.4 -8.6 -6.9 -10.5 Q-6.35 -11.0 -5.4 -11.3 M3.25 -0.15 L0.3 -0.05 Q-0.7 -0.2 -2.45 -1.0 L-4.5 -2.0 -6.45 -3.6 Q-7.45 -4.25 -8.7 -4.25 -10.0 -4.25 -11.0 -3.6 L-12.8 -2.15 -13.85 -1.2 -14.05 -0.25 Q-14.35 2.05 -13.75 3.2 L-12.45 4.75 Q-9.45 7.45 -6.25 9.25 L-4.3 10.15 -2.0 10.6 -0.55 11.05 0.9 11.25 4.3 10.9 6.25 9.7 7.85 8.65 9.4 7.55 Q10.55 6.6 11.95 4.6 L12.8 3.1 12.85 1.35 Q12.95 0.25 12.65 -0.15 L11.65 -0.75 8.35 -1.3 6.1 -0.75 3.25 -0.15 M-6.15 14.55 L-5.3 13.9 -5.45 13.8 -6.15 14.55" fill="#dbdbdb" fill-rule="evenodd" stroke="none"/>
  </g>
</svg>
