<?xml version="1.0" encoding="UTF-8" standalone="no"?>
<svg xmlns:ffdec="https://www.free-decompiler.com/flash" xmlns:xlink="http://www.w3.org/1999/xlink" ffdec:objectType="shape" height="80.0px" width="51.35px" xmlns="http://www.w3.org/2000/svg">
  <g transform="matrix(1.0, 0.0, 0.0, 1.0, -49.05, -20.9)">
    <path d="M99.95 94.6 L77.6 97.6 78.25 97.5 99.95 75.8 99.95 94.6 M99.95 58.75 L94.8 59.25 99.95 54.05 99.95 58.75 M99.95 64.5 L99.95 70.3 76.5 93.75 76.5 77.5 88.35 65.65 100.4 64.45 99.95 64.5 M99.95 20.9 L99.95 36.7 76.5 60.15 76.5 22.05 99.95 20.9 M49.05 63.5 L49.05 40.6 67.2 22.5 73.5 22.2 73.5 61.25 49.05 63.5 M49.05 23.4 L55.05 23.1 49.05 29.15 49.05 23.4 M49.1 69.5 L69.15 67.55 49.05 87.6 49.05 69.5 49.1 69.5 M73.5 96.75 L71.9 98.35 52.65 100.9 53.15 100.8 73.5 80.5 73.5 96.75" fill="#77bfff" fill-rule="evenodd" stroke="none"/>
    <path d="M71.9 98.35 L73.5 96.75 73.5 98.15 72.1 98.35 71.9 98.35" fill="#a1d2ff" fill-rule="evenodd" stroke="none"/>
  </g>
</svg>
