<?xml version="1.0" encoding="UTF-8" standalone="no"?>
<svg xmlns:ffdec="https://www.free-decompiler.com/flash" xmlns:xlink="http://www.w3.org/1999/xlink" ffdec:objectType="shape" height="21.05px" width="40.85px" xmlns="http://www.w3.org/2000/svg">
  <g transform="matrix(1.0, 0.0, 0.0, 1.0, 19.3, 15.3)">
    <path d="M15.3 -12.55 L15.0 -12.6 14.75 -12.45 14.75 -12.15 14.85 -12.1 14.8 -11.85 14.75 -11.8 14.7 -11.7 14.75 -11.65 15.05 -11.15 15.35 -10.85 15.5 -10.75 15.6 -10.65 16.0 -10.3 16.1 -10.4 Q16.6 -10.1 16.95 -10.05 L17.95 -10.0 17.95 -10.05 18.15 -10.4 18.15 -10.85 18.1 -10.85 18.05 -10.95 17.85 -11.45 17.35 -11.9 16.4 -12.5 16.2 -12.6 15.6 -12.7 15.3 -12.55 M14.55 -10.85 Q14.5 -10.8 14.35 -10.95 L14.25 -11.0 14.15 -11.15 13.95 -11.45 13.05 -12.05 12.8 -12.65 13.35 -12.75 13.7 -12.8 13.9 -12.95 14.3 -13.1 15.4 -13.15 16.3 -13.2 16.7 -13.15 17.7 -12.6 17.95 -12.4 18.2 -12.25 18.35 -12.1 19.1 -10.95 19.4 -10.3 19.45 -9.7 19.3 -9.5 18.85 -9.15 18.5 -9.1 18.2 -9.0 17.8 -8.95 16.05 -9.15 15.65 -9.4 15.1 -10.05 14.8 -10.5 14.55 -10.85 M-5.8 -9.1 L-8.0 -9.2 -11.8 -9.9 Q-13.65 -10.4 -14.25 -11.35 -14.5 -11.65 -14.4 -12.0 L-14.2 -12.35 -13.65 -12.85 -12.9 -13.2 -9.7 -14.4 -7.0 -14.5 -5.4 -14.7 -4.1 -14.7 -2.9 -14.9 -1.75 -14.75 -0.75 -14.9 1.6 -14.65 7.75 -13.5 8.7 -13.0 Q9.15 -12.55 8.9 -12.05 8.7 -11.65 8.0 -11.55 L6.6 -11.25 5.6 -11.2 4.7 -11.0 3.8 -10.2 2.9 -9.35 1.45 -9.0 -2.05 -8.85 -3.25 -9.05 -5.8 -9.1 M-11.85 -12.35 Q-11.85 -11.95 -11.35 -11.75 L-9.75 -11.3 Q-6.0 -10.9 1.35 -11.3 L2.5 -11.45 3.3 -11.9 4.55 -12.2 6.7 -12.35 Q6.85 -12.7 6.6 -12.95 L6.05 -13.3 4.45 -13.6 -8.75 -13.85 -9.9 -13.7 -11.25 -13.1 Q-11.85 -12.7 -11.85 -12.35 M4.7 -1.5 L4.25 -1.8 4.05 -2.0 3.35 -3.0 3.3 -3.4 Q3.3 -3.8 3.45 -3.95 L3.7 -4.1 5.35 -4.45 5.75 -4.35 5.95 -4.3 6.25 -4.15 Q6.7 -4.05 6.9 -3.8 L7.3 -3.5 7.85 -3.05 8.1 -2.9 Q8.95 -2.45 9.45 -1.85 L9.6 -1.7 9.75 -1.65 Q9.9 -1.35 9.95 -1.4 L10.0 -1.3 9.75 -1.0 9.6 -0.9 8.65 -0.8 7.25 -0.85 5.45 -1.2 Q5.1 -1.25 4.7 -1.5 M5.85 -3.9 L5.65 -4.0 5.4 -4.05 4.6 -4.05 4.3 -4.0 3.95 -3.9 3.9 -3.55 3.9 -3.45 4.0 -3.15 4.0 -3.05 4.15 -2.95 4.4 -2.75 4.5 -2.7 4.6 -2.6 4.75 -2.55 4.85 -2.45 4.95 -2.4 5.1 -2.3 5.45 -2.25 5.65 -2.25 6.05 -2.05 6.25 -2.0 6.95 -2.0 7.35 -2.1 7.45 -2.2 7.5 -2.3 7.55 -2.45 7.55 -2.5 7.55 -2.8 7.5 -2.75 7.5 -2.8 7.3 -2.9 7.2 -3.0 6.35 -3.5 5.85 -3.9 M-0.75 -1.45 L-0.35 -1.4 0.3 -1.05 0.3 -0.75 0.1 -0.65 -0.35 -0.55 -0.9 -0.35 -2.2 -0.4 -2.45 -0.6 -2.5 -1.15 -2.15 -1.4 -1.95 -1.45 -2.0 -1.45 -1.95 -1.1 -1.75 -1.0 -1.2 -0.85 -1.1 -0.65 -0.75 -0.65 -0.3 -0.9 Q-0.05 -1.0 -0.3 -1.15 L-0.4 -1.2 -0.4 -1.3 -0.5 -1.4 -0.55 -1.4 -0.75 -1.45 M18.35 -5.55 Q18.65 -5.65 18.85 -5.35 L20.4 -3.7 21.05 -2.4 21.0 -2.05 20.85 -1.95 Q20.3 -1.65 19.1 -1.95 L16.3 -2.15 12.4 -2.25 11.6 -2.3 Q11.0 -2.45 10.65 -2.7 9.4 -3.35 8.55 -4.4 L8.35 -4.75 8.4 -5.3 8.6 -5.8 Q8.9 -6.3 9.8 -6.4 L13.4 -6.85 13.85 -7.05 14.55 -7.1 15.15 -6.8 16.8 -6.4 18.35 -5.55 M11.75 -5.95 L10.9 -5.85 10.25 -5.45 10.15 -5.0 10.2 -4.7 10.5 -4.35 10.8 -4.1 Q11.0 -3.9 11.9 -3.7 L12.85 -3.6 17.3 -3.05 18.3 -3.0 18.95 -3.3 19.25 -3.5 18.8 -4.3 Q18.65 -4.5 18.15 -4.7 L16.6 -5.45 15.4 -6.0 14.65 -6.15 13.95 -6.0 12.3 -6.05 11.75 -5.95 M-7.25 -3.0 L-9.8 -2.85 -11.55 -3.1 -13.3 -3.25 -15.05 -3.0 -16.1 -3.1 Q-17.15 -3.2 -17.5 -3.7 L-17.65 -4.0 -17.35 -5.05 Q-17.05 -5.85 -16.15 -6.25 L-14.4 -6.7 -9.7 -7.2 -9.3 -7.5 -3.9 -6.65 -2.6 -6.3 -1.35 -5.45 -0.8 -5.1 Q-0.65 -4.85 -1.0 -4.5 L-1.75 -3.85 Q-2.15 -3.65 -3.1 -3.55 L-4.75 -3.4 -6.1 -3.05 -7.25 -3.0 M-11.85 -6.6 L-16.0 -5.8 Q-16.4 -5.7 -16.4 -5.5 L-16.25 -5.2 -15.85 -4.7 -15.25 -4.55 -11.15 -4.3 -7.65 -4.25 -3.8 -4.6 Q-2.9 -4.8 -2.8 -5.25 -2.7 -5.8 -3.25 -6.05 L-4.2 -6.35 -5.3 -6.6 -6.0 -6.6 -7.0 -6.8 -8.4 -6.85 -11.85 -6.6 M-16.55 2.65 L-11.25 3.2 -8.8 3.0 -7.65 2.6 Q-6.75 1.85 -6.15 1.65 L-5.45 1.3 -5.3 0.9 Q-5.2 0.3 -5.45 0.05 L-6.3 -0.35 -7.3 -0.15 -10.3 0.35 -12.95 0.4 -14.9 0.65 -15.7 0.6 Q-16.4 0.65 -17.0 1.25 L-17.35 1.7 Q-17.4 2.15 -16.95 2.5 L-16.55 2.65 M-5.8 4.05 L-6.7 4.5 -8.0 4.85 -8.9 4.9 -9.8 5.1 -12.35 5.35 -15.0 5.25 -16.45 5.25 -17.8 4.9 -18.55 4.2 Q-18.85 3.7 -18.75 2.5 L-18.65 2.05 -18.35 1.8 -17.45 0.85 -16.5 0.35 -14.9 0.0 -12.25 -0.15 -9.6 -0.35 -7.55 -0.8 -5.5 -0.7 -5.1 -0.55 Q-4.85 -0.55 -4.85 -0.8 -4.1 -0.6 -3.9 -0.05 L-3.65 1.0 -3.9 1.5 -4.0 1.95 -3.85 2.25 -4.0 2.5 -5.8 4.05" fill="#dbdbdb" fill-rule="evenodd" stroke="none"/>
    <path d="M15.85 -13.55 L16.35 -13.6 16.95 -13.5 17.45 -13.35 18.15 -12.85 18.7 -12.4 19.6 -11.05 19.8 -10.65 19.9 -10.45 Q20.05 -9.85 19.85 -9.4 L19.8 -9.3 19.1 -8.8 18.65 -8.65 17.35 -8.6 16.55 -8.7 16.05 -8.7 14.9 -9.6 14.7 -9.85 14.2 -10.6 13.6 -11.2 13.4 -11.45 13.05 -11.65 12.6 -12.05 12.5 -12.25 12.4 -12.4 12.3 -12.65 12.35 -12.9 12.7 -13.1 13.55 -13.25 14.0 -13.45 15.15 -13.6 15.85 -13.55 M-5.8 -9.1 L-3.25 -9.05 -2.05 -8.85 1.45 -9.0 2.9 -9.35 3.8 -10.2 4.7 -11.0 5.6 -11.2 6.6 -11.25 8.0 -11.55 Q8.7 -11.65 8.9 -12.05 9.15 -12.55 8.7 -13.0 L7.75 -13.5 1.6 -14.65 -0.75 -14.9 -1.75 -14.75 -2.9 -14.9 -4.1 -14.7 -5.4 -14.7 -7.0 -14.5 -9.7 -14.4 -12.9 -13.2 -13.65 -12.85 -14.2 -12.35 -14.4 -12.0 Q-14.5 -11.65 -14.25 -11.35 -13.65 -10.4 -11.8 -9.9 L-8.0 -9.2 -5.8 -9.1 M14.55 -10.85 L14.8 -10.5 15.1 -10.05 15.65 -9.4 16.05 -9.15 17.8 -8.95 18.2 -9.0 18.5 -9.1 18.85 -9.15 19.3 -9.5 19.45 -9.7 19.4 -10.3 19.1 -10.95 18.35 -12.1 18.2 -12.25 17.95 -12.4 17.7 -12.6 16.7 -13.15 16.3 -13.2 15.4 -13.15 14.3 -13.1 13.9 -12.95 13.7 -12.8 13.35 -12.75 12.8 -12.65 13.05 -12.05 13.95 -11.45 14.15 -11.15 14.25 -11.0 14.35 -10.95 Q14.5 -10.8 14.55 -10.85 M3.45 -2.2 L2.95 -2.8 Q2.85 -3.6 3.05 -4.1 L3.3 -4.35 4.0 -4.65 4.7 -4.8 5.7 -4.8 6.85 -4.4 6.9 -4.25 7.15 -4.0 7.75 -3.55 8.4 -3.1 8.85 -2.85 9.2 -2.6 10.1 -1.8 10.25 -1.6 10.35 -1.2 10.25 -1.0 Q9.8 -0.55 9.4 -0.5 L8.65 -0.4 7.0 -0.55 5.25 -0.85 4.15 -1.3 3.9 -1.5 3.45 -2.2 M-2.05 -15.3 L0.5 -15.2 2.35 -15.0 6.2 -14.4 Q8.1 -14.0 8.8 -13.35 9.5 -12.65 9.3 -12.0 9.05 -11.4 8.1 -11.2 L6.35 -10.9 5.1 -10.75 Q4.6 -10.6 4.05 -9.9 L3.0 -8.9 1.95 -8.65 -1.05 -8.35 -4.2 -8.7 -6.4 -8.75 -8.65 -8.8 -11.5 -9.35 -13.3 -9.95 Q-14.3 -10.45 -14.7 -11.2 -15.0 -11.55 -14.9 -12.1 L-14.55 -12.65 -13.9 -13.25 -10.6 -14.6 -9.7 -14.85 -8.75 -14.9 -5.8 -15.05 -4.1 -15.15 -2.05 -15.3 M4.7 -1.5 Q5.1 -1.25 5.45 -1.2 L7.25 -0.85 8.65 -0.8 9.6 -0.9 9.75 -1.0 10.0 -1.3 9.95 -1.4 Q9.9 -1.35 9.75 -1.65 L9.6 -1.7 9.45 -1.85 Q8.95 -2.45 8.1 -2.9 L7.85 -3.05 7.3 -3.5 6.9 -3.8 Q6.7 -4.05 6.25 -4.15 L5.95 -4.3 5.75 -4.35 5.35 -4.45 3.7 -4.1 3.45 -3.95 Q3.3 -3.8 3.3 -3.4 L3.35 -3.0 4.05 -2.0 4.25 -1.8 4.7 -1.5 M-1.95 0.0 L-2.3 -0.1 -2.45 -0.2 -2.7 -0.25 -2.85 -0.5 -2.85 -0.75 -2.8 -0.9 -2.85 -1.05 -2.85 -1.3 -2.6 -1.45 -2.25 -1.75 -1.9 -1.85 -0.75 -1.85 -0.6 -1.8 -0.45 -1.85 -0.1 -1.6 0.0 -1.5 0.25 -1.45 0.45 -1.35 0.55 -1.2 0.65 -1.15 0.7 -1.0 0.65 -0.65 0.25 -0.4 0.05 -0.3 -0.25 -0.2 -0.5 -0.15 -0.6 -0.05 -0.8 0.0 -1.35 0.05 -1.6 0.05 -1.95 0.0 M-1.95 -1.45 L-2.15 -1.4 -2.5 -1.15 -2.45 -0.6 -2.2 -0.4 -0.9 -0.35 -0.35 -0.55 0.1 -0.65 0.3 -0.75 0.3 -1.05 -0.35 -1.4 -0.75 -1.45 -1.55 -1.5 -1.65 -1.5 -1.95 -1.45 M18.35 -5.55 L16.8 -6.4 15.15 -6.8 14.55 -7.1 13.85 -7.05 13.4 -6.85 9.8 -6.4 Q8.9 -6.3 8.6 -5.8 L8.4 -5.3 8.35 -4.75 8.55 -4.4 Q9.4 -3.35 10.65 -2.7 11.0 -2.45 11.6 -2.3 L12.4 -2.25 16.3 -2.15 19.1 -1.95 Q20.3 -1.65 20.85 -1.95 L21.0 -2.05 21.05 -2.4 20.4 -3.7 18.85 -5.35 Q18.65 -5.65 18.35 -5.55 M8.3 -4.05 L7.9 -4.65 7.95 -5.35 8.2 -6.05 8.7 -6.45 Q9.5 -6.9 10.95 -7.0 L13.4 -7.35 14.4 -7.4 15.0 -7.25 18.65 -5.9 19.35 -5.5 20.05 -4.75 21.4 -2.8 Q21.7 -2.2 21.3 -1.8 L20.8 -1.5 Q20.2 -1.35 19.25 -1.5 L17.65 -1.75 16.15 -1.65 15.35 -1.75 13.55 -1.8 12.5 -1.85 10.85 -2.1 10.0 -2.6 9.65 -2.65 8.3 -4.05 M-5.85 -2.7 L-8.4 -2.5 -10.55 -2.55 -11.9 -2.7 -13.65 -2.7 -15.4 -2.55 Q-17.4 -2.55 -18.05 -3.55 L-18.2 -3.95 -17.85 -5.3 -17.3 -6.1 Q-16.3 -6.95 -13.75 -7.25 L-12.25 -7.45 -9.0 -7.65 -6.9 -7.4 -4.05 -7.0 -2.2 -6.45 -1.4 -5.85 -0.75 -5.55 -0.35 -5.1 Q-0.3 -4.85 -0.6 -4.35 -1.1 -3.65 -1.7 -3.4 L-2.9 -3.2 -4.65 -2.95 -5.85 -2.7 M-7.25 -3.0 L-6.1 -3.05 -4.75 -3.4 -3.1 -3.55 Q-2.15 -3.65 -1.75 -3.85 L-1.0 -4.5 Q-0.65 -4.85 -0.8 -5.1 L-1.35 -5.45 -2.6 -6.3 -3.9 -6.65 -9.3 -7.5 -9.7 -7.2 -14.4 -6.7 -16.15 -6.25 Q-17.05 -5.85 -17.35 -5.05 L-17.65 -4.0 -17.5 -3.7 Q-17.15 -3.2 -16.1 -3.1 L-15.05 -3.0 -13.3 -3.25 -11.55 -3.1 -9.8 -2.85 -7.25 -3.0 M-3.65 2.7 L-5.45 4.35 -6.65 4.95 -7.85 5.25 -8.75 5.25 -9.8 5.5 -12.25 5.75 -14.75 5.65 -15.95 5.7 -17.15 5.55 -18.15 5.15 -19.0 4.5 -19.25 3.35 -19.3 2.55 -19.25 2.15 -18.8 1.6 -18.25 0.85 Q-17.7 0.2 -16.0 -0.2 L-12.45 -0.55 -8.9 -0.95 -7.45 -1.3 -6.0 -1.3 -4.45 -1.0 -3.75 -0.5 -3.4 0.55 Q-3.2 1.15 -3.45 1.45 L-3.6 1.8 -3.4 2.15 Q-3.25 2.4 -3.65 2.7 M-5.8 4.05 L-4.0 2.5 -3.85 2.25 -4.0 1.95 -3.9 1.5 -3.65 1.0 -3.9 -0.05 Q-4.1 -0.6 -4.85 -0.8 -4.85 -0.55 -5.1 -0.55 L-5.5 -0.7 -7.55 -0.8 -9.6 -0.35 -12.25 -0.15 -14.9 0.0 -16.5 0.35 -17.45 0.85 -18.35 1.8 -18.65 2.05 -18.75 2.5 Q-18.85 3.7 -18.55 4.2 L-17.8 4.9 -16.45 5.25 -15.0 5.25 -12.35 5.35 -9.8 5.1 -8.9 4.9 -8.0 4.85 -6.7 4.5 -5.8 4.05" fill="#9d9d9d" fill-rule="evenodd" stroke="none"/>
    <path d="M15.3 -12.55 L15.6 -12.7 16.2 -12.6 16.4 -12.5 17.35 -11.9 17.85 -11.45 18.05 -10.95 18.1 -10.85 18.15 -10.85 18.15 -10.4 17.95 -10.05 17.95 -10.0 16.95 -10.05 Q16.6 -10.1 16.1 -10.4 L16.0 -10.3 15.6 -10.65 15.5 -10.75 15.35 -10.85 15.05 -11.15 14.75 -11.65 14.7 -11.7 14.75 -11.8 14.8 -11.85 14.85 -12.1 14.75 -12.15 14.75 -12.45 15.0 -12.6 15.3 -12.55 M-11.85 -12.35 Q-11.85 -12.7 -11.25 -13.1 L-9.9 -13.7 -8.75 -13.85 4.45 -13.6 6.05 -13.3 6.6 -12.95 Q6.85 -12.7 6.7 -12.35 L4.55 -12.2 3.3 -11.9 2.5 -11.45 1.35 -11.3 Q-6.0 -10.9 -9.75 -11.3 L-11.35 -11.75 Q-11.85 -11.95 -11.85 -12.35 M5.85 -3.9 L6.35 -3.5 7.2 -3.0 7.3 -2.9 7.5 -2.8 7.5 -2.75 7.55 -2.8 7.55 -2.5 7.55 -2.45 7.5 -2.3 7.45 -2.2 7.35 -2.1 6.95 -2.0 6.25 -2.0 6.05 -2.05 5.65 -2.25 5.45 -2.25 5.1 -2.3 4.95 -2.4 4.85 -2.45 4.75 -2.55 4.6 -2.6 4.5 -2.7 4.4 -2.75 4.15 -2.95 4.0 -3.05 4.0 -3.15 3.9 -3.45 3.9 -3.55 3.95 -3.9 4.3 -4.0 4.6 -4.05 5.4 -4.05 5.65 -4.0 5.85 -3.9 M-1.95 -1.45 L-1.65 -1.5 -1.55 -1.5 -0.75 -1.45 -0.55 -1.4 -0.5 -1.4 -0.4 -1.3 -0.4 -1.2 -0.3 -1.15 Q-0.05 -1.0 -0.3 -0.9 L-0.75 -0.65 -1.1 -0.65 -1.2 -0.85 -1.75 -1.0 -1.95 -1.1 -2.0 -1.45 -1.95 -1.45 M11.75 -5.95 L12.3 -6.05 13.95 -6.0 14.65 -6.15 15.4 -6.0 16.6 -5.45 18.15 -4.7 Q18.65 -4.5 18.8 -4.3 L19.25 -3.5 18.95 -3.3 18.3 -3.0 17.3 -3.05 12.85 -3.6 11.9 -3.7 Q11.0 -3.9 10.8 -4.1 L10.5 -4.35 10.2 -4.7 10.15 -5.0 10.25 -5.45 10.9 -5.85 11.75 -5.95 M-11.85 -6.6 L-8.4 -6.85 -7.0 -6.8 -6.0 -6.6 -5.3 -6.6 -4.2 -6.35 -3.25 -6.05 Q-2.7 -5.8 -2.8 -5.25 -2.9 -4.8 -3.8 -4.6 L-7.65 -4.25 -11.15 -4.3 -15.25 -4.55 -15.85 -4.7 -16.25 -5.2 -16.4 -5.5 Q-16.4 -5.7 -16.0 -5.8 L-11.85 -6.6 M-16.55 2.65 L-16.95 2.5 Q-17.4 2.15 -17.35 1.7 L-17.0 1.25 Q-16.4 0.65 -15.7 0.6 L-14.9 0.65 -12.95 0.4 -10.3 0.35 -7.3 -0.15 -6.3 -0.35 -5.45 0.05 Q-5.2 0.3 -5.3 0.9 L-5.45 1.3 -6.15 1.65 Q-6.75 1.85 -7.65 2.6 L-8.8 3.0 -11.25 3.2 -16.55 2.65" fill="#efefef" fill-rule="evenodd" stroke="none"/>
  </g>
</svg>
