<?xml version="1.0" encoding="UTF-8" standalone="no"?>
<svg xmlns:ffdec="https://www.free-decompiler.com/flash" xmlns:xlink="http://www.w3.org/1999/xlink" ffdec:objectType="shape" height="12.7px" width="275.6px" xmlns="http://www.w3.org/2000/svg">
  <g transform="matrix(1.0, 0.0, 0.0, 1.0, 137.35, 16.1)">
    <path d="M6.55 -12.0 L0.3 -12.45 Q-3.3 -12.7 -6.0 -12.55 L-13.75 -11.9 -21.0 -11.6 -28.25 -11.45 -43.15 -11.0 -72.2 -9.55 -79.25 -9.05 -88.7 -8.95 -98.15 -8.6 -103.1 -8.1 -110.8 -8.3 Q-115.85 -8.6 -118.55 -8.35 L-121.6 -7.95 -124.7 -7.6 -129.7 -7.6 Q-133.0 -7.75 -134.75 -7.55 L-136.65 -7.7 -137.05 -8.05 -136.75 -7.75 Q-137.1 -7.9 -137.25 -8.35 L-137.25 -9.15 Q-136.9 -9.85 -135.9 -10.15 L-134.2 -10.1 -123.8 -10.7 -120.3 -11.45 -116.2 -11.6 -112.05 -11.3 Q-107.35 -11.0 -101.3 -11.3 L-90.55 -12.05 -87.25 -12.2 -83.95 -11.95 -78.95 -11.85 -73.35 -12.1 -68.85 -12.75 -64.35 -13.5 -55.25 -14.1 Q-48.05 -14.25 -40.9 -13.95 L-34.25 -13.8 -25.0 -14.6 -15.8 -15.6 -8.65 -15.7 Q-3.65 -15.6 -1.15 -15.8 L3.55 -16.1 7.2 -15.6 10.9 -15.0 15.95 -15.0 21.7 -14.65 27.45 -14.35 29.8 -14.5 32.2 -14.6 36.5 -14.2 47.05 -13.1 57.85 -11.95 58.1 -11.8 136.75 -5.7 Q137.85 -5.7 138.15 -5.1 138.45 -4.4 137.7 -3.8 L136.3 -3.4 132.25 -3.65 128.15 -4.2 123.0 -4.3 117.85 -4.45 112.45 -5.15 107.15 -5.35 98.2 -6.1 89.25 -6.95 79.25 -7.35 73.15 -7.9 67.25 -8.25 56.1 -8.85 36.65 -10.1 7.6 -12.0 7.45 -12.05 6.55 -12.0 M-123.8 -8.15 L-119.9 -8.6 Q-116.8 -8.95 -111.55 -8.7 -105.35 -8.45 -103.25 -8.55 L-98.2 -8.9 -93.15 -9.3 -88.15 -9.35 -83.15 -9.3 -74.4 -9.7 -65.7 -10.4 -48.35 -11.2 -41.45 -11.35 -35.75 -11.45 -31.15 -11.85 -22.6 -12.05 -14.1 -12.3 -6.25 -13.05 0.85 -12.9 7.85 -12.3 10.9 -12.2 25.05 -11.35 48.3 -9.8 69.45 -8.5 72.85 -8.3 81.0 -7.85 95.1 -6.9 99.0 -6.4 107.4 -5.75 113.45 -5.4 116.95 -4.9 122.3 -4.75 127.65 -4.7 131.2 -4.25 134.7 -3.85 Q136.85 -3.75 137.9 -4.5 137.35 -5.0 135.6 -5.1 L131.75 -5.6 127.95 -6.25 124.35 -6.4 119.35 -6.85 108.15 -7.5 96.95 -7.9 77.0 -9.85 57.05 -11.35 56.7 -11.45 56.7 -11.65 44.05 -12.8 36.65 -13.6 33.2 -14.05 30.0 -14.1 26.75 -14.0 16.0 -14.25 7.15 -14.95 3.25 -15.55 -0.45 -15.25 Q-2.6 -15.05 -8.3 -15.15 L-26.7 -14.0 -31.05 -13.45 Q-33.0 -13.3 -36.95 -13.4 L-51.55 -13.7 -66.1 -12.75 -70.4 -12.05 -74.7 -11.55 Q-77.35 -11.35 -81.7 -11.55 L-88.7 -11.75 -97.85 -11.05 -108.75 -10.7 -115.3 -11.05 -121.8 -10.7 -125.35 -9.95 -130.5 -9.55 -135.65 -9.6 -136.45 -9.35 -136.6 -8.55 -136.6 -8.15 -136.4 -8.05 -135.5 -8.0 -129.65 -8.05 Q-125.7 -7.95 -123.8 -8.15" fill="#9d9d9d" fill-rule="evenodd" stroke="none"/>
    <path d="M-123.8 -8.15 Q-125.7 -7.95 -129.65 -8.05 L-135.5 -8.0 -136.4 -8.05 -136.6 -8.15 -136.6 -8.55 -136.45 -9.35 -135.65 -9.6 -130.5 -9.55 -125.35 -9.95 -121.8 -10.7 -115.3 -11.05 -108.75 -10.7 -97.85 -11.05 -88.7 -11.75 -81.7 -11.55 Q-77.35 -11.35 -74.7 -11.55 L-70.4 -12.05 -66.1 -12.75 -51.55 -13.7 -36.95 -13.4 Q-33.0 -13.3 -31.05 -13.45 L-26.7 -14.0 -8.3 -15.15 Q-2.6 -15.05 -0.45 -15.25 L3.25 -15.55 7.15 -14.95 16.0 -14.25 26.75 -14.0 30.0 -14.1 33.2 -14.05 36.65 -13.6 44.05 -12.8 56.7 -11.65 56.7 -11.45 57.05 -11.35 77.0 -9.85 96.95 -7.9 108.15 -7.5 119.35 -6.85 124.35 -6.4 127.95 -6.25 131.75 -5.6 135.6 -5.1 Q137.35 -5.0 137.9 -4.5 136.85 -3.75 134.7 -3.85 L131.2 -4.25 127.65 -4.7 122.3 -4.75 116.95 -4.9 113.45 -5.4 107.4 -5.75 99.0 -6.4 95.1 -6.9 81.0 -7.85 72.85 -8.3 69.45 -8.5 48.3 -9.8 25.05 -11.35 10.9 -12.2 7.85 -12.3 0.85 -12.9 -6.25 -13.05 -14.1 -12.3 -22.6 -12.05 -31.15 -11.85 -35.75 -11.45 -41.45 -11.35 -48.35 -11.2 -65.7 -10.4 -74.4 -9.7 -83.15 -9.3 -88.15 -9.35 -93.15 -9.3 -98.2 -8.9 -103.25 -8.55 Q-105.35 -8.45 -111.55 -8.7 -116.8 -8.95 -119.9 -8.6 L-123.8 -8.15" fill="#efefef" fill-rule="evenodd" stroke="none"/>
  </g>
</svg>
