<?xml version="1.0" encoding="UTF-8" standalone="no"?>
<svg xmlns:ffdec="https://www.free-decompiler.com/flash" xmlns:xlink="http://www.w3.org/1999/xlink" ffdec:objectType="shape" height="159.25px" width="218.05px" xmlns="http://www.w3.org/2000/svg">
  <g transform="matrix(1.0, 0.0, 0.0, 1.0, 0.0, 0.0)">
    <path d="M11.3 123.2 L11.1 123.25 11.05 123.25 5.65 124.2 5.55 124.2 5.5 124.2 5.25 124.1 5.2 124.05 5.15 123.95 5.1 123.9 0.3 118.05 0.15 117.95 0.0 117.6 0.0 58.1 Q0.0 57.9 0.15 57.8 L0.05 57.65 0.0 57.45 0.0 51.3 0.15 51.05 0.2 51.0 0.75 50.45 Q5.6 45.65 10.6 41.4 15.45 37.15 20.5 33.4 25.05 29.9 29.8 26.8 33.85 24.1 38.05 21.7 41.9 19.4 45.9 17.4 58.45 11.0 71.75 6.95 83.6 3.3 96.05 1.6 L101.8 0.9 104.75 0.6 105.8 0.5 Q115.7 -0.3 125.15 0.2 138.8 0.8 151.45 4.1 L152.55 4.4 Q159.6 6.25 166.4 9.05 L166.45 9.05 Q174.35 11.8 181.85 15.7 L186.45 18.3 Q188.55 19.45 190.7 20.85 L190.85 21.0 190.9 21.25 190.9 27.35 190.85 27.6 190.9 27.85 190.9 77.1 189.9 76.6 189.9 27.85 189.95 27.65 186.7 25.55 185.8 25.0 182.1 22.85 182.1 46.75 185.7 49.4 186.7 50.5 186.7 54.25 185.7 55.1 182.1 52.3 182.1 72.7 181.1 72.2 181.1 51.55 178.55 49.75 Q159.85 37.0 137.5 33.65 123.35 31.5 107.65 33.15 L106.35 33.3 106.35 49.4 106.35 50.4 106.35 53.35 105.35 53.45 105.35 33.45 102.35 33.85 101.35 34.0 99.2 34.3 96.6 34.8 96.6 50.35 101.35 52.8 102.35 53.75 101.35 53.85 101.35 53.65 96.9 51.3 95.6 50.65 95.6 50.5 95.6 35.0 86.7 37.05 85.95 37.25 Q80.55 38.7 75.35 40.6 L74.8 40.8 74.15 41.05 Q68.8 43.05 63.65 45.5 L63.2 45.75 Q62.9 45.85 62.65 46.0 56.8 48.85 51.2 52.25 L50.75 52.55 50.25 52.85 Q44.35 56.5 38.7 60.8 L38.25 61.1 37.85 61.4 Q32.2 65.75 26.75 70.8 L26.35 71.15 Q20.55 76.45 15.05 82.5 L14.75 82.85 11.5 86.5 11.5 104.55 11.5 106.15 11.5 115.5 11.5 121.95 11.5 122.9 11.45 123.05 11.4 123.05 11.3 123.2 M6.05 60.5 L9.2 57.3 10.65 55.9 Q15.05 51.65 19.55 47.8 24.7 43.35 30.0 39.4 34.9 35.75 39.95 32.55 44.3 29.75 48.75 27.25 52.95 24.9 57.25 22.85 71.0 16.2 85.75 12.45 90.8 11.05 96.0 10.1 L99.05 9.55 101.8 9.15 105.8 8.6 109.05 8.2 Q149.75 3.95 181.85 21.55 L186.45 24.25 186.5 24.25 189.9 26.4 189.9 21.55 185.95 19.15 Q183.65 17.8 181.4 16.6 175.25 13.4 168.9 11.05 L167.5 10.5 Q155.65 5.65 148.8 4.4 L148.05 4.3 147.9 4.25 Q136.85 1.7 125.1 1.2 115.7 0.7 105.9 1.5 L104.85 1.6 101.9 1.9 96.2 2.6 Q83.8 4.3 72.05 7.9 59.2 11.8 47.0 17.95 43.0 19.95 39.1 22.25 L30.75 27.35 Q26.0 30.45 21.35 33.95 16.3 37.7 11.4 41.95 6.35 46.3 1.5 51.05 L1.25 51.3 1.0 52.4 1.0 57.25 5.05 60.7 6.05 60.5 M109.15 9.2 L106.35 9.55 106.35 27.75 Q115.6 27.1 124.35 27.8 L129.1 28.25 129.15 28.25 Q136.7 28.75 143.85 30.2 164.0 34.3 181.1 46.05 L181.1 22.6 181.2 22.35 Q149.4 5.0 109.15 9.2 M11.5 82.05 L11.5 85.0 14.0 82.2 14.35 81.8 Q19.8 75.8 25.55 70.55 L25.95 70.15 Q31.35 65.15 37.0 60.8 L37.4 60.5 37.85 60.15 Q43.45 55.9 49.3 52.25 L49.8 51.95 50.25 51.65 Q55.8 48.25 61.55 45.4 L62.1 45.15 62.6 44.9 Q67.7 42.4 72.95 40.45 L73.55 40.2 74.15 39.95 Q79.65 37.9 85.3 36.35 90.55 34.9 96.0 33.85 L99.05 33.3 101.8 32.9 105.8 32.35 105.85 32.35 107.55 32.15 Q123.35 30.5 137.65 32.65 160.25 36.0 179.1 48.9 L181.9 50.9 181.95 50.95 185.7 53.8 185.7 50.65 181.35 47.45 181.2 47.35 Q161.35 33.45 137.35 30.1 L137.15 30.1 137.05 30.05 Q134.8 29.35 130.3 28.95 118.8 27.85 109.55 28.6 L109.9 28.55 106.35 28.75 106.35 28.95 102.35 29.5 102.35 29.45 105.35 29.05 105.35 9.65 102.35 10.1 102.35 10.15 101.35 10.25 99.2 10.55 96.6 11.05 96.6 11.15 96.6 28.75 101.35 29.45 101.35 29.65 98.6 30.05 96.1 29.65 Q87.1 30.8 78.45 33.05 72.85 34.5 67.4 36.45 L66.8 36.65 66.15 36.9 Q60.95 38.8 55.9 41.1 L55.4 41.35 54.85 41.6 Q49.15 44.25 43.6 47.45 L43.15 47.75 Q42.9 47.85 42.65 48.05 36.85 51.45 31.3 55.45 L30.8 55.8 30.4 56.1 Q24.8 60.2 19.45 64.85 L19.0 65.25 Q15.2 68.55 11.5 72.15 L11.5 80.55 11.5 82.05 M11.35 56.6 L11.5 56.95 11.5 70.8 18.25 64.6 18.65 64.25 Q24.0 59.55 29.55 55.5 L29.95 55.2 30.45 54.85 Q35.95 50.85 41.7 47.45 L42.2 47.15 42.65 46.85 Q48.15 43.65 53.8 41.0 L54.35 40.75 54.85 40.5 Q59.8 38.2 64.95 36.3 L65.6 36.05 Q71.25 33.95 77.05 32.4 86.15 29.95 95.6 28.7 L95.6 11.25 86.0 13.4 Q71.75 17.05 58.4 23.4 54.05 25.45 49.8 27.8 45.3 30.3 40.9 33.1 35.85 36.3 30.9 40.0 25.55 43.95 20.4 48.4 15.8 52.3 11.35 56.6 M6.0 62.05 L5.1 62.05 1.0 58.55 1.0 117.4 5.05 122.3 6.05 123.1 10.5 122.35 10.5 57.45 10.0 57.95 6.0 62.05" fill="#3f161f" fill-rule="evenodd" stroke="none"/>
    <path d="M102.35 33.85 L105.35 33.45 105.35 53.45 103.0 53.65 102.35 53.75 102.35 33.85 M186.7 54.25 L186.7 50.5 186.7 50.35 186.7 25.55 189.95 27.65 189.9 27.85 189.9 76.6 186.7 75.0 186.7 54.25 M167.5 10.5 L168.9 11.05 Q175.25 13.4 181.4 16.6 183.65 17.8 185.95 19.15 L189.9 21.55 189.9 26.4 186.5 24.25 186.45 24.25 181.85 21.55 Q149.75 3.95 109.05 8.2 L105.8 8.6 101.8 9.15 99.05 9.55 96.0 10.1 Q90.8 11.05 85.75 12.45 71.0 16.2 57.25 22.85 52.95 24.9 48.75 27.25 44.3 29.75 39.95 32.55 34.9 35.75 30.0 39.4 24.7 43.35 19.55 47.8 15.05 51.65 10.65 55.9 L9.2 57.3 6.05 60.5 6.05 55.65 6.55 55.15 Q11.55 50.2 16.65 45.7 21.65 41.3 26.85 37.4 31.55 33.8 36.45 30.6 L44.95 25.3 Q48.95 22.95 53.05 20.85 65.45 14.5 78.6 10.5 87.25 7.8 96.2 6.15 L101.95 5.15 105.9 4.6 109.35 4.2 129.5 3.45 Q142.95 3.85 155.5 6.9 L156.6 7.15 Q161.25 8.3 165.85 9.9 L166.0 10.0 166.1 10.0 167.5 10.5 M137.05 30.05 L137.15 30.1 137.35 30.1 Q161.35 33.45 181.2 47.35 L181.35 47.45 185.7 50.65 185.7 53.8 181.95 50.95 181.9 50.9 179.1 48.9 Q160.25 36.0 137.65 32.65 123.35 30.5 107.55 32.15 L105.85 32.35 105.8 32.35 101.8 32.9 99.05 33.3 96.0 33.85 Q90.55 34.9 85.3 36.35 79.65 37.9 74.15 39.95 L73.55 40.2 72.95 40.45 Q67.7 42.4 62.6 44.9 L62.1 45.15 61.55 45.4 Q55.8 48.25 50.25 51.65 L49.8 51.95 49.3 52.25 Q43.45 55.9 37.85 60.15 L37.4 60.5 37.0 60.8 Q31.35 65.15 25.95 70.15 L25.55 70.55 Q19.8 75.8 14.35 81.8 L14.0 82.2 11.5 85.0 11.5 82.05 12.6 80.85 12.9 80.5 Q18.3 74.5 24.0 69.25 L24.4 68.9 Q29.75 63.9 35.3 59.6 L35.7 59.3 36.15 58.95 Q41.65 54.65 47.4 51.0 L47.85 50.7 Q48.05 50.55 48.3 50.45 53.75 47.0 59.35 44.15 L59.9 43.85 60.35 43.65 Q65.25 41.15 70.35 39.1 L71.0 38.85 71.55 38.6 Q76.8 36.5 82.25 34.9 89.1 32.8 96.2 31.45 L99.2 30.95 101.9 30.5 101.95 30.5 102.35 30.45 104.35 30.2 105.85 30.0 105.95 30.0 107.9 29.75 126.0 29.1 129.0 29.25 129.05 29.25 137.05 30.05 M102.35 10.15 L102.35 10.1 105.35 9.65 105.35 29.05 102.35 29.45 102.35 10.15 M6.05 123.1 L6.05 62.25 6.0 62.05 10.0 57.95 10.5 57.45 10.5 122.35 6.05 123.1" fill="#7b2a3b" fill-rule="evenodd" stroke="none"/>
    <path d="M102.35 53.75 L101.35 52.8 101.35 34.0 102.35 33.85 102.35 53.75 M185.7 55.1 L186.7 54.25 186.7 75.0 185.7 74.5 185.7 55.1 M186.7 50.5 L185.7 49.4 185.7 25.25 185.8 25.0 186.7 25.55 186.7 50.35 186.7 50.5 M6.05 60.5 L5.05 60.7 5.05 55.7 1.0 52.4 1.25 51.3 5.55 54.8 5.8 54.55 Q10.75 49.6 15.85 45.15 20.8 40.75 25.95 36.85 30.65 33.25 35.5 30.05 L43.9 24.75 Q47.9 22.4 51.95 20.3 64.7 13.7 78.3 9.55 86.95 6.8 96.0 5.15 L101.8 4.15 105.8 3.6 109.25 3.2 129.55 2.45 Q137.8 2.7 147.9 4.25 L148.05 4.3 148.8 4.4 Q155.65 5.65 167.5 10.5 L166.1 10.0 166.0 10.0 165.85 9.9 Q161.25 8.3 156.6 7.15 L155.5 6.9 Q142.95 3.85 129.5 3.45 L109.35 4.2 105.9 4.6 101.95 5.15 96.2 6.15 Q87.25 7.8 78.6 10.5 65.45 14.5 53.05 20.85 48.95 22.95 44.95 25.3 L36.45 30.6 Q31.55 33.8 26.85 37.4 21.65 41.3 16.65 45.7 11.55 50.2 6.55 55.15 L6.05 55.65 6.05 60.5 M11.5 82.05 L11.5 80.55 11.85 80.2 12.2 79.8 Q17.6 73.9 23.2 68.65 L23.6 68.25 Q28.9 63.3 34.45 59.0 L34.85 58.7 35.3 58.35 Q40.75 54.05 46.45 50.4 L46.9 50.1 47.35 49.85 Q52.75 46.4 58.3 43.55 L58.8 43.25 59.25 43.05 Q64.15 40.55 69.15 38.45 L69.8 38.2 70.35 38.0 Q75.55 35.9 80.9 34.25 88.3 31.9 96.0 30.45 L96.05 30.45 98.6 30.05 101.35 29.65 101.35 29.45 101.35 10.25 102.35 10.15 102.35 29.45 102.35 29.5 106.35 28.95 107.8 28.75 109.25 28.6 109.55 28.6 Q118.8 27.85 130.3 28.95 134.8 29.35 137.05 30.05 L129.05 29.25 129.0 29.25 126.0 29.1 107.9 29.75 105.95 30.0 105.85 30.0 104.35 30.2 102.35 30.45 101.95 30.5 101.9 30.5 99.2 30.95 96.2 31.45 Q89.1 32.8 82.25 34.9 76.8 36.5 71.55 38.6 L71.0 38.85 70.35 39.1 Q65.25 41.15 60.35 43.65 L59.9 43.85 59.35 44.15 Q53.75 47.0 48.3 50.45 48.05 50.55 47.85 50.7 L47.4 51.0 Q41.65 54.65 36.15 58.95 L35.7 59.3 35.3 59.6 Q29.75 63.9 24.4 68.9 L24.0 69.25 Q18.3 74.5 12.9 80.5 L12.6 80.85 11.5 82.05 M5.1 62.05 L6.0 62.05 6.05 62.25 6.05 123.1 5.05 122.3 5.05 62.25 5.1 62.05" fill="#bf566c" fill-rule="evenodd" stroke="none"/>
    <path d="M101.35 52.8 L96.6 50.35 96.6 34.8 99.2 34.3 101.35 34.0 101.35 52.8 M182.1 72.7 L182.1 52.3 185.7 55.1 185.7 74.5 182.1 72.7 M185.7 49.4 L182.1 46.75 182.1 22.85 185.8 25.0 185.7 25.25 185.7 49.4 M5.05 60.7 L1.0 57.25 1.0 52.4 5.05 55.7 5.05 60.7 M101.35 29.45 L96.6 28.75 96.6 11.15 96.6 11.05 99.2 10.55 101.35 10.25 101.35 29.45 M5.1 62.05 L5.05 62.25 5.05 122.3 1.0 117.4 1.0 58.55 5.1 62.05" fill="#561b27" fill-rule="evenodd" stroke="none"/>
    <path d="M11.3 123.2 L11.4 123.05 11.45 123.05 11.5 122.9 11.5 121.95 38.4 153.35 42.35 157.95 Q46.55 151.55 51.4 145.4 L51.7 145.0 52.0 144.6 Q58.1 136.9 65.2 129.45 L65.55 129.1 65.9 128.75 Q72.5 121.85 80.0 115.25 L80.4 114.9 80.45 114.8 80.55 114.75 80.8 114.55 82.4 113.15 Q88.75 107.6 96.1 102.95 L96.55 102.65 96.95 102.35 97.0 102.35 103.85 98.3 105.8 97.3 Q109.85 95.15 114.2 93.25 L114.75 93.0 115.25 92.8 115.35 92.75 Q123.9 89.05 133.5 86.25 L134.15 86.05 134.65 85.95 134.8 85.9 Q140.35 84.3 146.2 83.0 L152.55 81.8 153.05 81.7 153.35 81.65 153.85 81.6 154.25 81.55 Q165.0 79.9 175.35 80.2 L175.4 80.2 175.85 80.25 176.6 80.25 177.1 80.3 177.95 80.3 181.15 80.55 182.7 80.7 185.7 81.05 186.7 81.15 189.9 81.65 190.9 81.85 193.6 82.35 195.75 82.85 196.25 82.95 Q201.1 84.1 205.8 85.7 L191.95 78.75 157.5 61.45 150.7 58.05 150.55 57.95 150.45 58.0 Q143.4 54.75 135.8 52.85 L133.7 52.35 133.25 52.25 Q124.55 50.3 115.2 50.15 L114.45 50.15 114.0 50.15 113.5 50.15 112.85 50.15 106.35 50.4 106.35 49.4 110.8 49.2 111.95 49.15 113.1 49.15 Q121.9 49.1 130.15 50.6 141.05 52.55 150.9 57.1 L151.15 57.15 181.1 72.2 182.1 72.7 185.7 74.5 186.7 75.0 189.9 76.6 190.9 77.1 217.8 90.55 218.05 90.85 218.0 91.25 217.75 91.5 217.35 91.45 216.55 91.1 Q208.65 87.4 200.55 85.1 L200.15 85.0 Q195.55 83.7 190.9 82.85 L189.9 82.65 186.7 82.15 185.7 82.05 183.75 81.8 182.25 81.65 180.4 81.5 179.0 81.4 177.75 81.35 155.8 82.35 154.9 82.45 154.1 82.6 146.4 84.0 Q141.1 85.15 136.05 86.6 L135.4 86.75 134.7 86.95 Q125.05 89.75 116.4 93.45 L115.8 93.7 115.25 93.9 Q110.15 96.15 105.35 98.7 L104.35 99.2 Q101.05 101.0 97.9 102.95 L97.4 103.25 96.95 103.55 Q89.5 108.25 83.05 113.9 L81.55 115.15 81.15 115.5 80.75 115.85 Q73.1 122.65 66.3 129.75 L65.95 130.15 Q58.65 137.75 52.4 145.75 47.25 152.25 42.85 159.05 L42.5 159.25 42.15 159.2 42.0 159.05 41.95 159.0 11.3 123.2 M11.5 106.15 L11.5 104.55 12.3 103.5 16.15 98.75 Q19.65 94.55 23.25 90.75 L23.6 90.35 Q29.5 84.1 35.75 78.8 L36.15 78.45 Q42.2 73.3 48.6 69.05 L49.0 68.8 49.5 68.5 Q56.05 64.15 62.95 60.85 L63.45 60.6 64.0 60.35 Q70.85 57.05 78.05 54.75 L78.7 54.55 79.3 54.4 Q85.25 52.55 91.4 51.35 L92.4 51.15 93.25 51.0 94.0 50.8 94.75 50.65 95.6 50.5 95.6 50.65 96.9 51.3 96.2 51.4 96.15 51.4 95.4 51.55 95.0 51.6 94.6 51.7 93.35 51.95 91.85 52.3 91.8 52.3 Q86.05 53.4 80.5 55.05 L80.05 55.2 79.9 55.25 79.45 55.4 79.25 55.45 Q71.95 57.7 65.0 60.95 L64.75 61.1 64.45 61.2 64.0 61.4 63.9 61.45 Q56.95 64.8 50.35 69.1 L50.25 69.2 50.0 69.35 49.8 69.5 Q49.6 69.55 49.5 69.7 43.05 73.9 36.95 79.05 L36.6 79.35 36.55 79.4 36.15 79.75 Q30.25 84.75 24.7 90.65 L24.35 91.05 24.0 91.4 Q20.4 95.2 16.9 99.4 L13.3 103.85 13.0 104.25 12.7 104.65 11.5 106.15" fill="#312619" fill-rule="evenodd" stroke="none"/>
    <path d="M96.9 51.3 L101.35 53.65 101.35 53.85 102.35 53.75 103.0 53.65 105.35 53.45 106.35 53.35 106.35 50.4 112.85 50.15 120.45 53.8 106.4 54.35 106.35 54.35 105.35 54.45 102.55 54.7 96.15 51.4 96.2 51.4 96.9 51.3 M168.85 75.95 L176.95 76.35 178.5 76.5 181.5 76.85 182.5 76.95 182.55 76.95 193.6 82.35 190.9 81.85 189.9 81.65 186.7 81.15 185.7 81.05 182.7 80.7 181.15 80.55 177.95 80.3 168.85 75.95 M141.85 56.95 Q135.4 55.15 128.55 54.4 L122.95 53.9 115.2 50.15 Q124.55 50.3 133.25 52.25 L133.25 52.5 133.5 52.8 141.85 56.95 M175.4 80.2 L175.35 80.2 Q165.0 79.9 154.25 81.55 L147.05 77.8 Q156.95 76.05 166.55 75.95 L175.4 80.2 M152.55 81.8 L146.2 83.0 Q140.35 84.3 134.8 85.9 L128.5 82.3 Q135.0 80.35 142.0 78.8 L145.45 78.1 152.55 81.8 M133.5 86.25 Q123.9 89.05 115.35 92.75 L109.7 89.2 Q118.0 85.5 127.2 82.7 L133.5 86.25 M114.2 93.25 Q109.85 95.15 105.8 97.3 L103.85 98.3 97.0 102.35 91.9 98.7 99.65 94.1 101.6 93.1 Q105.0 91.3 108.6 89.7 L114.2 93.25 M96.1 102.95 Q88.75 107.6 82.4 113.15 L80.8 114.55 76.15 110.8 78.2 108.95 Q84.2 103.75 91.0 99.3 L96.1 102.95 M100.8 54.9 L97.55 55.55 96.05 55.9 96.0 55.9 Q91.0 56.85 86.15 58.25 L80.5 55.05 Q86.05 53.4 91.8 52.3 L91.85 52.3 93.35 51.95 94.6 51.7 100.8 54.9 M70.05 64.15 L65.0 60.95 Q71.95 57.7 79.25 55.45 L84.8 58.6 Q77.25 60.85 70.05 64.15 M63.9 61.45 L68.95 64.65 Q61.8 68.0 55.0 72.4 L50.35 69.1 Q56.95 64.8 63.9 61.45 M36.95 79.05 Q43.05 73.9 49.5 69.7 L54.1 73.0 Q47.5 77.3 41.25 82.55 L36.95 79.05" fill="#6b553d" fill-rule="evenodd" stroke="none"/>
    <path d="M182.55 76.95 L182.5 76.95 181.5 76.85 178.5 76.5 176.95 76.35 168.85 75.95 122.95 53.9 128.55 54.4 Q135.4 55.15 141.85 56.95 L182.55 76.95 M54.1 73.0 L91.0 99.3 Q84.2 103.75 78.2 108.95 L76.15 110.8 41.25 82.55 Q47.5 77.3 54.1 73.0" fill="#7b6247" fill-rule="evenodd" stroke="none"/>
    <path d="M11.5 115.5 L11.5 106.15 12.7 104.65 13.0 104.25 13.3 103.85 17.15 107.9 47.95 140.3 52.0 144.6 51.7 145.0 51.4 145.4 Q46.55 151.55 42.35 157.95 L38.4 153.35 Q42.55 147.1 47.3 141.1 L16.55 108.7 11.5 115.5 M168.85 75.95 L177.95 80.3 177.1 80.3 176.6 80.25 175.85 80.25 175.4 80.2 166.55 75.95 120.45 53.8 112.85 50.15 113.5 50.15 114.0 50.15 114.45 50.15 115.2 50.15 122.95 53.9 168.85 75.95 M193.6 82.35 L182.55 76.95 141.85 56.95 133.5 52.8 133.25 52.5 133.25 52.25 133.7 52.35 135.8 52.85 Q143.4 54.75 150.45 58.0 L150.55 57.95 150.7 58.05 157.5 61.45 149.05 59.25 148.4 59.05 186.05 77.55 186.7 77.65 191.95 78.75 205.8 85.7 Q201.1 84.1 196.25 82.95 L195.75 82.85 193.6 82.35 M147.05 77.8 L154.25 81.55 153.85 81.6 153.35 81.65 153.05 81.7 152.55 81.8 145.45 78.1 100.8 54.9 94.6 51.7 95.0 51.6 95.4 51.55 96.15 51.4 102.55 54.7 147.05 77.8 M134.8 85.9 L134.65 85.95 134.15 86.05 133.5 86.25 127.2 82.7 84.8 58.6 79.25 55.45 79.45 55.4 79.9 55.25 80.05 55.2 80.5 55.05 86.15 58.25 128.5 82.3 134.8 85.9 M115.35 92.75 L115.25 92.8 114.75 93.0 114.2 93.25 108.6 89.7 68.95 64.65 63.9 61.45 64.0 61.4 64.45 61.2 64.75 61.1 65.0 60.95 70.05 64.15 109.7 89.2 115.35 92.75 M97.0 102.35 L96.95 102.35 96.55 102.65 96.1 102.95 91.0 99.3 54.1 73.0 49.5 69.7 Q49.6 69.55 49.8 69.5 L50.0 69.35 50.25 69.2 50.35 69.1 55.0 72.4 91.9 98.7 97.0 102.35 M80.8 114.55 L80.55 114.75 80.45 114.8 80.4 114.9 80.0 115.25 75.35 111.5 40.45 83.25 36.25 79.8 36.15 79.75 36.55 79.4 36.6 79.35 36.95 79.05 41.25 82.55 76.15 110.8 80.8 114.55 M65.9 128.75 L65.55 129.1 65.2 129.45 60.85 125.45 28.05 95.15 24.0 91.4 24.35 91.05 24.7 90.65 28.75 94.4 61.55 124.7 65.9 128.75" fill="#56442f" fill-rule="evenodd" stroke="none"/>
    <path d="M11.5 121.95 L11.5 115.5 16.55 108.7 47.3 141.1 Q42.55 147.1 38.4 153.35 L11.5 121.95 M191.95 78.75 L186.7 77.65 186.05 77.55 148.4 59.05 149.05 59.25 157.5 61.45 191.95 78.75" fill="#69533b" fill-rule="evenodd" stroke="none"/>
    <path d="M1.25 51.3 L1.5 51.05 Q6.35 46.3 11.4 41.95 16.3 37.7 21.35 33.95 26.0 30.45 30.75 27.35 L39.1 22.25 Q43.0 19.95 47.0 17.95 59.2 11.8 72.05 7.9 83.8 4.3 96.2 2.6 L101.9 1.9 104.85 1.6 105.9 1.5 Q115.7 0.7 125.1 1.2 136.85 1.7 147.9 4.25 137.8 2.7 129.55 2.45 L109.25 3.2 105.8 3.6 101.8 4.15 96.0 5.15 Q86.95 6.8 78.3 9.55 64.7 13.7 51.95 20.3 47.9 22.4 43.9 24.75 L35.5 30.05 Q30.65 33.25 25.95 36.85 20.8 40.75 15.85 45.15 10.75 49.6 5.8 54.55 L5.55 54.8 1.25 51.3 M11.5 80.55 L11.5 72.15 Q15.2 68.55 19.0 65.25 L19.45 64.85 Q24.8 60.2 30.4 56.1 L30.8 55.8 31.3 55.45 Q36.85 51.45 42.65 48.05 42.9 47.85 43.15 47.75 L43.6 47.45 Q49.15 44.25 54.85 41.6 L55.4 41.35 55.9 41.1 Q60.95 38.8 66.15 36.9 L66.8 36.65 67.4 36.45 Q72.85 34.5 78.45 33.05 87.1 30.8 96.1 29.65 L98.6 30.05 96.05 30.45 96.0 30.45 Q88.3 31.9 80.9 34.25 75.55 35.9 70.35 38.0 L69.8 38.2 69.15 38.45 Q64.15 40.55 59.25 43.05 L58.8 43.25 58.3 43.55 Q52.75 46.4 47.35 49.85 L46.9 50.1 46.45 50.4 Q40.75 54.05 35.3 58.35 L34.85 58.7 34.45 59.0 Q28.9 63.3 23.6 68.25 L23.2 68.65 Q17.6 73.9 12.2 79.8 L11.85 80.2 11.5 80.55 M106.35 28.95 L106.35 28.75 109.9 28.55 109.55 28.6 109.25 28.6 107.8 28.75 106.35 28.95" fill="#983a4e" fill-rule="evenodd" stroke="none"/>
    <path d="M166.55 75.95 Q156.95 76.05 147.05 77.8 L102.55 54.7 105.35 54.45 106.35 54.35 106.4 54.35 120.45 53.8 166.55 75.95 M109.7 89.2 L70.05 64.15 Q77.25 60.85 84.8 58.6 L127.2 82.7 Q118.0 85.5 109.7 89.2" fill="#876d4f" fill-rule="evenodd" stroke="none"/>
    <path d="M86.15 58.25 Q91.0 56.85 96.0 55.9 L96.05 55.9 97.55 55.55 100.8 54.9 145.45 78.1 142.0 78.8 Q135.0 80.35 128.5 82.3 L86.15 58.25" fill="#8e7253" fill-rule="evenodd" stroke="none"/>
    <path d="M108.6 89.7 Q105.0 91.3 101.6 93.1 L99.65 94.1 91.9 98.7 55.0 72.4 Q61.8 68.0 68.95 64.65 L108.6 89.7" fill="#81674a" fill-rule="evenodd" stroke="none"/>
    <path d="M80.0 115.25 Q72.5 121.85 65.9 128.75 L61.55 124.7 Q68.05 117.95 75.35 111.5 L80.0 115.25 M36.15 79.75 L36.25 79.8 40.45 83.25 Q34.45 88.35 28.75 94.4 L24.7 90.65 Q30.25 84.75 36.15 79.75" fill="#634f38" fill-rule="evenodd" stroke="none"/>
    <path d="M65.2 129.45 Q58.1 136.9 52.0 144.6 L47.95 140.3 Q53.9 132.75 60.85 125.45 L65.2 129.45 M24.0 91.4 L28.05 95.15 Q24.5 98.9 21.1 103.0 L17.15 107.9 13.3 103.85 16.9 99.4 Q20.4 95.2 24.0 91.4" fill="#5d4833" fill-rule="evenodd" stroke="none"/>
    <path d="M40.45 83.25 L75.35 111.5 Q68.05 117.95 61.55 124.7 L28.75 94.4 Q34.45 88.35 40.45 83.25" fill="#755c42" fill-rule="evenodd" stroke="none"/>
    <path d="M28.05 95.15 L60.85 125.45 Q53.9 132.75 47.95 140.3 L17.15 107.9 21.1 103.0 Q24.5 98.9 28.05 95.15" fill="#6e583e" fill-rule="evenodd" stroke="none"/>
  </g>
</svg>
