<?xml version="1.0" encoding="UTF-8" standalone="no"?>
<svg xmlns:ffdec="https://www.free-decompiler.com/flash" xmlns:xlink="http://www.w3.org/1999/xlink" ffdec:objectType="shape" height="142.75px" width="379.1px" xmlns="http://www.w3.org/2000/svg">
  <g transform="matrix(1.0, 0.0, 0.0, 1.0, 112.75, 84.0)">
    <path d="M76.65 -62.95 Q74.1 -59.7 74.25 -55.6 76.95 -54.1 78.45 -53.7 L81.95 -52.95 83.75 -52.2 85.7 -51.25 87.65 -49.85 Q88.25 -49.5 89.55 -49.1 92.95 -47.95 94.9 -48.1 96.0 -48.15 97.45 -48.7 99.85 -49.55 100.8 -51.05 L101.55 -53.2 101.9 -55.65 102.95 -54.65 103.6 -53.35 103.9 -52.15 Q104.15 -50.55 103.65 -49.2 102.7 -46.9 99.5 -45.9 L96.85 -45.2 94.2 -44.5 92.25 -43.8 89.6 -43.7 Q83.65 -44.3 79.8 -47.85 L78.55 -48.95 77.2 -49.85 75.55 -50.25 73.85 -50.55 Q72.55 -50.95 70.85 -52.35 70.35 -52.65 70.2 -53.0 70.0 -53.4 70.2 -54.05 70.75 -56.75 72.35 -58.9 L73.5 -60.35 73.6 -60.4 73.75 -60.6 75.65 -62.2 76.65 -62.95 M24.5 -2.6 L23.2 -0.1 Q21.45 3.5 22.75 5.5 23.4 6.5 25.25 7.45 29.15 9.6 31.3 9.9 L34.0 10.2 37.45 11.1 43.15 11.55 47.0 11.15 Q48.25 10.7 50.55 8.6 L57.5 2.1 Q58.4 1.2 58.35 0.6 58.35 0.0 57.5 -0.65 56.4 -1.55 55.2 -2.0 L55.15 -2.05 56.3 -1.85 58.8 -1.35 60.3 -0.8 Q63.35 0.6 64.35 3.2 63.55 4.55 61.35 6.0 58.8 7.7 58.05 8.55 L56.9 10.1 55.75 11.75 Q54.5 13.3 51.4 15.25 L47.85 17.2 Q45.55 18.1 42.2 18.1 36.05 18.2 30.6 15.35 27.9 13.8 26.5 13.2 L24.55 12.45 22.6 11.55 19.7 9.25 Q18.5 8.05 18.35 7.35 18.1 6.5 18.7 4.9 L19.8 2.3 20.55 1.05 21.35 0.0 24.35 -2.5 24.5 -2.6 M66.65 -42.65 L67.0 -42.85 67.1 -42.7 67.3 -41.8 Q67.4 -41.1 68.35 -39.6 L69.15 -38.45 70.3 -37.45 Q71.4 -36.55 72.05 -36.4 L73.0 -36.25 80.2 -35.8 82.9 -36.05 Q83.65 -36.4 83.95 -37.05 84.35 -37.8 83.95 -38.45 L83.05 -39.1 80.35 -40.05 Q79.45 -40.35 79.3 -40.8 L79.35 -41.2 79.85 -41.05 82.05 -40.4 82.5 -40.25 85.05 -39.15 86.95 -38.2 88.15 -37.35 Q88.7 -36.75 89.1 -35.25 L89.15 -34.45 88.1 -33.8 84.95 -33.0 Q81.65 -32.2 79.95 -32.3 L75.1 -33.1 71.55 -33.8 Q69.6 -34.35 68.5 -35.5 L66.85 -37.35 66.1 -38.0 65.8 -38.7 65.6 -39.55 65.55 -39.7 Q65.35 -40.45 65.4 -41.3 L65.9 -41.95 66.1 -42.15 66.25 -42.35 66.65 -42.65 M49.75 -21.1 Q49.6 -20.15 49.75 -19.65 49.9 -19.05 50.55 -18.5 L51.8 -17.6 Q53.15 -16.45 53.25 -14.55 53.35 -12.65 52.1 -11.4 L50.55 -9.95 Q49.65 -8.95 50.15 -8.0 50.55 -7.35 51.85 -7.05 L59.9 -5.2 Q65.05 -4.05 67.5 -4.35 69.9 -4.6 73.25 -6.15 L78.85 -8.75 81.4 -9.65 83.95 -10.6 Q86.5 -11.75 89.85 -14.6 L95.4 -19.25 97.45 -20.75 Q98.55 -21.65 98.95 -22.65 99.45 -23.9 99.15 -25.95 98.8 -28.15 97.85 -29.7 L98.3 -29.6 98.7 -29.5 100.5 -28.75 Q101.6 -28.1 102.5 -27.15 104.2 -25.35 104.2 -23.2 104.25 -21.45 103.1 -19.5 101.45 -16.8 98.15 -14.45 L95.4 -12.5 93.8 -10.85 92.2 -9.2 Q87.15 -4.2 77.75 -3.05 L72.1 -2.15 69.25 -0.9 66.5 0.5 64.9 0.8 64.5 0.3 61.6 -2.05 Q59.65 -3.2 56.3 -3.65 L47.0 -4.3 41.05 -4.95 41.25 -5.7 Q41.65 -6.75 42.75 -7.95 L44.7 -10.0 Q46.7 -12.25 47.7 -15.2 L48.45 -18.0 48.55 -18.4 49.45 -20.65 49.75 -21.1 M221.9 -82.4 L221.75 -82.25 219.6 -79.7 Q218.4 -78.15 218.25 -76.65 218.15 -74.75 220.15 -71.95 L221.0 -70.85 Q221.95 -69.9 223.55 -69.45 L226.55 -68.95 Q230.2 -68.55 231.85 -69.3 233.3 -69.9 235.05 -72.05 235.75 -72.85 235.75 -73.5 235.8 -74.45 234.7 -75.55 L232.05 -78.3 Q230.55 -79.95 229.8 -81.35 L229.65 -81.65 230.25 -81.4 231.9 -80.5 234.0 -79.65 Q235.95 -78.9 239.15 -76.95 L241.6 -75.45 242.25 -74.85 242.1 -73.8 241.1 -71.45 Q240.5 -70.0 239.8 -69.45 239.55 -69.3 238.4 -68.85 L236.85 -68.05 Q235.3 -67.25 232.8 -66.65 227.3 -65.15 223.75 -65.8 L220.85 -66.45 218.85 -66.75 Q217.15 -67.25 216.05 -69.05 215.25 -70.3 214.6 -72.4 L213.95 -73.85 213.35 -74.7 Q212.95 -75.2 212.85 -75.6 212.75 -76.15 213.05 -77.1 213.7 -78.65 214.55 -79.25 215.4 -79.95 217.6 -80.45 L218.75 -80.95 219.6 -81.45 219.7 -81.5 221.8 -82.4 221.9 -82.4 M231.65 -63.15 L232.2 -63.15 231.95 -62.95 Q230.95 -61.9 230.85 -60.55 230.75 -59.6 231.2 -59.1 231.6 -58.65 232.7 -58.55 L242.8 -57.15 247.5 -56.7 252.15 -57.05 254.75 -57.85 257.4 -58.5 258.4 -58.7 259.15 -59.2 Q259.4 -59.7 259.15 -60.35 L258.5 -61.55 257.95 -62.65 258.9 -62.55 259.0 -62.55 259.15 -62.55 259.75 -62.6 260.75 -62.7 Q261.5 -62.6 262.75 -61.65 263.95 -60.75 264.1 -60.05 264.4 -58.8 262.85 -57.25 261.35 -55.65 260.35 -55.2 L259.0 -54.75 257.65 -54.45 255.7 -53.65 253.8 -52.7 Q251.45 -51.7 248.2 -51.65 L242.45 -52.1 Q240.55 -52.3 239.45 -52.75 L237.75 -53.45 235.25 -53.65 Q232.3 -53.7 227.8 -55.4 L226.9 -56.05 Q226.6 -56.5 226.9 -57.45 227.55 -59.65 228.15 -60.5 L229.8 -62.15 229.8 -62.2 231.05 -63.05 231.2 -63.05 231.35 -63.1 231.65 -63.15 M238.3 -45.75 L238.25 -45.65 237.05 -43.65 Q236.3 -42.5 236.6 -41.8 236.8 -41.45 237.5 -41.05 239.25 -40.15 242.15 -39.8 L245.3 -39.5 244.7 -39.5 243.25 -39.3 241.05 -38.0 240.75 -37.75 238.85 -35.75 239.2 -36.25 238.25 -36.3 236.35 -36.5 235.0 -37.0 233.65 -37.25 232.8 -37.2 Q232.3 -37.2 232.1 -37.45 231.75 -37.8 231.95 -38.7 232.35 -40.85 233.0 -41.8 L234.45 -43.45 235.65 -44.5 236.65 -45.15 237.6 -45.55 237.65 -45.55 237.75 -45.6 238.3 -45.75 M246.4 -39.4 L247.1 -39.35 250.45 -38.65 253.8 -37.9 256.2 -38.0 Q257.15 -38.4 258.15 -39.9 259.95 -42.55 259.75 -44.15 L259.6 -44.85 260.15 -43.85 260.3 -43.6 260.35 -43.5 260.95 -41.95 Q261.4 -40.35 261.0 -39.3 L260.25 -37.75 Q259.65 -35.85 259.0 -35.05 L256.85 -36.0 251.4 -38.15 247.0 -39.3 246.9 -39.3 246.4 -39.4 M244.0 -37.95 L244.05 -37.6 243.3 -36.55 Q242.25 -35.65 241.8 -34.25 241.4 -32.85 241.75 -31.5 L242.65 -29.3 Q246.05 -22.35 244.95 -14.6 L244.55 -11.2 Q244.55 -9.3 245.35 -8.1 245.9 -7.3 247.0 -6.6 248.7 -5.55 250.5 -5.15 L251.85 -5.2 Q252.85 -5.55 252.95 -7.5 253.1 -9.15 252.85 -11.05 L252.6 -13.05 252.45 -15.1 Q252.55 -18.05 254.7 -20.45 256.8 -22.8 259.8 -23.55 L261.4 -23.9 Q262.3 -24.1 262.85 -24.45 264.15 -25.25 264.8 -27.25 L264.5 -25.55 Q264.25 -24.45 263.7 -23.7 L262.0 -22.25 261.8 -22.1 261.5 -21.85 Q257.6 -18.9 257.4 -15.4 257.35 -14.0 258.05 -11.3 258.8 -8.6 258.75 -7.25 258.75 -5.95 258.0 -4.1 257.45 -2.85 256.7 -2.2 255.95 -1.6 254.9 -1.35 250.65 -0.15 246.8 -2.3 L244.05 -3.9 242.75 -4.5 241.6 -5.25 Q240.05 -6.7 240.4 -9.55 240.6 -11.1 241.55 -14.05 241.95 -15.9 241.85 -20.35 241.65 -25.3 240.7 -27.55 L239.5 -30.15 Q238.85 -32.0 239.4 -33.95 239.85 -35.7 241.05 -36.9 L241.35 -37.2 Q241.3 -36.85 241.7 -36.7 L242.4 -36.75 243.45 -37.75 244.0 -37.95 M257.25 9.75 L257.25 9.7 258.35 10.65 259.2 11.6 260.2 13.15 Q261.0 15.0 260.2 16.2 259.7 17.0 258.45 17.4 L256.25 18.05 254.0 19.05 251.0 19.2 Q245.8 18.85 240.6 17.45 L236.2 16.1 Q232.9 15.0 231.2 14.75 L228.0 14.0 Q226.2 13.05 226.25 11.45 226.25 10.95 226.75 9.95 L228.35 7.15 Q228.95 6.3 229.65 5.9 L230.15 5.65 231.0 5.25 231.95 4.2 Q232.25 4.0 233.0 3.75 L233.2 3.6 233.3 3.9 232.85 4.65 231.65 6.15 Q231.0 7.25 231.0 8.1 231.0 9.75 232.6 10.8 233.45 11.45 235.65 12.05 L245.8 14.85 248.35 15.4 250.25 15.35 252.1 15.25 253.65 15.4 255.1 15.05 256.1 13.95 257.1 12.6 257.35 10.85 257.25 9.75 M256.2 28.6 L257.25 29.2 257.3 29.25 257.35 29.3 257.4 29.35 257.5 29.4 257.55 29.45 257.85 29.75 259.0 30.95 Q261.25 33.75 261.05 36.2 260.85 40.0 255.45 42.9 L251.4 44.9 Q248.9 46.05 245.95 47.0 241.75 48.35 237.3 48.65 L230.2 48.75 218.4 48.55 Q216.25 48.45 215.35 47.9 L214.05 46.6 212.65 45.5 211.5 45.3 210.45 44.9 Q209.9 44.4 209.8 43.55 209.5 41.45 211.1 39.45 L212.55 38.05 213.3 37.4 214.2 36.6 214.35 36.45 214.7 36.2 214.5 36.75 Q214.0 38.0 214.75 39.35 215.55 40.65 216.9 40.75 L216.7 40.95 216.75 41.25 217.35 41.45 236.2 42.35 240.85 41.75 243.35 40.5 Q244.9 39.6 245.8 39.3 L249.95 38.6 Q252.0 38.15 253.6 37.1 254.9 36.3 255.55 35.15 256.15 34.1 256.15 32.4 256.25 30.75 255.75 29.5 L254.9 27.95 256.2 28.6 M12.3 14.1 L13.95 14.6 Q16.4 15.45 18.4 16.85 L20.35 18.4 20.9 18.95 Q22.1 20.2 22.65 21.6 23.4 23.65 23.0 25.95 22.6 28.2 21.2 30.0 18.75 33.35 13.95 34.9 10.85 35.9 5.2 36.45 -6.5 37.6 -13.45 36.7 -15.9 36.3 -17.0 35.75 -19.0 34.7 -20.75 31.45 -23.05 27.3 -23.95 26.3 -25.85 24.25 -29.9 22.75 L-36.6 20.1 Q-39.65 18.4 -39.2 16.3 -39.0 15.4 -37.65 14.15 -34.65 11.25 -32.45 10.3 L-31.9 10.1 Q-29.95 9.35 -27.3 9.3 L-26.5 9.35 Q-26.55 10.0 -28.15 10.45 -30.25 10.95 -32.8 14.25 L-33.25 15.15 Q-33.25 15.65 -32.65 16.15 -30.75 18.0 -25.6 19.5 -20.35 20.95 -18.45 22.75 L-16.1 25.5 -11.65 29.85 -9.7 31.2 -6.35 31.85 Q0.75 32.15 7.6 30.1 L14.0 28.0 16.4 27.2 Q17.75 26.65 18.5 25.85 19.65 24.7 19.8 22.9 19.95 21.2 19.15 19.65 17.85 17.05 14.35 15.15 L12.3 14.1 M-101.35 36.45 Q-102.7 39.15 -103.35 42.35 -103.7 44.3 -103.05 45.35 -102.4 46.3 -100.85 46.75 -96.6 48.0 -89.85 46.5 L-84.45 45.2 -79.0 44.3 -70.6 44.75 -62.9 45.4 Q-58.65 45.6 -55.15 45.25 -46.4 44.3 -40.75 40.1 -38.0 38.1 -37.75 35.95 -37.55 34.2 -39.05 32.05 L-40.45 30.4 Q-38.8 30.7 -37.5 31.25 -35.7 31.95 -34.55 33.15 -32.65 35.05 -32.5 37.95 -32.3 40.85 -33.9 43.0 -35.1 44.6 -38.5 46.6 -41.4 48.35 -43.15 49.05 L-46.8 50.25 -50.4 51.55 -52.0 52.45 -53.65 53.3 Q-55.5 54.0 -58.8 54.0 L-71.9 53.7 -84.95 54.6 -89.1 55.55 -93.25 56.4 -97.75 56.85 -102.25 56.95 -107.4 56.9 Q-109.25 56.8 -110.05 56.05 -111.3 54.8 -110.45 51.6 L-108.85 46.7 Q-107.9 44.2 -106.65 42.35 L-104.85 40.15 -104.85 40.1 -104.3 39.55 -101.35 36.45" fill="#dbdbdb" fill-rule="evenodd" stroke="none"/>
    <path d="M70.7 -50.6 Q69.65 -51.25 69.25 -51.9 68.5 -53.0 69.2 -55.1 69.75 -57.0 70.95 -58.9 72.1 -60.55 74.4 -62.95 L76.4 -64.7 Q77.25 -65.2 78.55 -65.45 L80.85 -65.7 83.7 -66.05 86.55 -66.3 Q89.9 -66.45 92.15 -65.35 L95.15 -63.2 99.6 -59.45 101.4 -58.05 103.15 -56.75 Q104.35 -55.7 105.0 -54.15 105.7 -52.6 105.65 -51.0 105.6 -49.4 104.75 -47.9 103.95 -46.45 102.6 -45.55 101.4 -44.75 99.4 -44.2 L96.05 -43.35 93.7 -42.55 91.35 -42.0 88.8 -42.2 84.95 -43.0 Q83.35 -43.45 81.15 -44.85 79.75 -45.7 78.85 -46.5 L77.4 -47.75 75.8 -48.65 74.1 -49.0 Q72.9 -49.25 70.7 -50.6 M101.9 -55.65 L100.45 -56.7 95.65 -60.7 Q91.9 -64.05 89.1 -64.6 87.5 -64.95 85.05 -64.65 L81.0 -64.1 77.9 -63.65 76.65 -62.95 75.65 -62.2 73.75 -60.6 73.6 -60.4 73.5 -60.35 72.35 -58.9 Q70.75 -56.75 70.2 -54.05 70.0 -53.4 70.2 -53.0 70.35 -52.65 70.85 -52.35 72.55 -50.95 73.85 -50.55 L75.55 -50.25 77.2 -49.85 78.55 -48.95 79.8 -47.85 Q83.65 -44.3 89.6 -43.7 L92.25 -43.8 94.2 -44.5 96.85 -45.2 99.5 -45.9 Q102.7 -46.9 103.65 -49.2 104.15 -50.55 103.9 -52.15 L103.6 -53.35 102.95 -54.65 101.9 -55.65 M55.2 -2.0 L54.6 -2.1 46.05 -2.6 Q41.0 -2.95 37.65 -3.9 L32.5 -5.45 Q29.45 -6.05 27.3 -4.9 L25.75 -3.75 24.5 -2.6 24.35 -2.5 21.35 0.0 20.55 1.05 19.8 2.3 18.7 4.9 Q18.1 6.5 18.35 7.35 18.5 8.05 19.7 9.25 L22.6 11.55 24.55 12.45 26.5 13.2 Q27.9 13.8 30.6 15.35 36.05 18.2 42.2 18.1 45.55 18.1 47.85 17.2 L51.4 15.25 Q54.5 13.3 55.75 11.75 L56.9 10.1 58.05 8.55 Q58.8 7.7 61.35 6.0 63.55 4.55 64.35 3.2 63.35 0.6 60.3 -0.8 L58.8 -1.35 56.3 -1.85 55.15 -2.05 55.2 -2.0 M60.15 8.85 L58.8 10.35 57.6 12.0 Q53.9 16.85 47.7 18.8 L35.65 19.15 Q33.15 18.45 28.7 16.4 L20.35 11.95 Q16.9 9.65 16.7 7.1 16.55 5.75 17.8 3.15 19.6 -0.55 21.35 -1.75 L22.5 -2.45 Q23.1 -2.9 23.3 -3.4 L23.6 -4.4 Q23.9 -5.1 24.9 -5.75 28.35 -7.95 32.45 -7.3 L35.15 -6.6 37.85 -5.7 39.45 -5.25 Q39.8 -7.05 40.9 -8.5 L42.6 -10.35 44.35 -12.25 Q45.4 -13.7 46.4 -16.9 47.4 -20.3 48.25 -21.65 49.4 -23.45 55.5 -26.2 61.6 -28.95 66.75 -30.25 L74.05 -31.75 73.85 -31.8 70.45 -32.65 Q68.55 -33.5 67.25 -35.1 L66.2 -36.4 65.6 -36.85 65.1 -37.4 64.8 -38.25 64.6 -39.1 64.2 -40.1 Q63.85 -41.45 65.2 -42.8 L67.55 -44.7 68.85 -45.85 70.6 -46.05 Q74.6 -45.6 77.05 -44.15 L78.55 -43.25 80.35 -42.55 82.15 -42.0 Q84.05 -41.4 87.8 -39.35 L89.4 -38.2 90.25 -36.55 90.7 -34.7 Q90.55 -33.5 89.3 -32.75 88.6 -32.3 87.0 -31.9 L86.65 -31.8 89.35 -31.8 94.65 -31.8 Q97.6 -31.6 99.75 -30.8 102.35 -29.85 104.05 -27.8 105.9 -25.55 105.7 -23.05 105.6 -20.7 103.3 -17.65 101.35 -14.9 99.3 -13.4 96.9 -11.8 95.85 -10.8 L94.0 -8.75 92.1 -6.75 Q90.7 -5.6 87.1 -4.15 81.1 -1.7 77.55 -1.4 L75.45 -1.25 73.4 -0.95 Q72.1 -0.6 70.3 0.35 L67.3 2.0 65.85 2.65 65.8 2.55 65.85 2.9 Q66.05 4.85 63.8 6.5 61.25 7.9 60.15 8.85 M79.35 -41.2 L77.75 -41.9 76.1 -42.95 74.1 -43.75 70.25 -44.4 69.5 -44.25 68.75 -43.45 Q68.4 -42.85 68.0 -42.8 L67.2 -42.9 66.65 -42.65 66.25 -42.35 66.1 -42.15 65.9 -41.95 65.4 -41.3 Q65.15 -40.85 65.25 -40.45 L65.55 -39.7 65.6 -39.55 65.8 -38.7 66.1 -38.0 66.85 -37.35 68.5 -35.5 Q69.6 -34.35 71.55 -33.8 L75.1 -33.1 79.95 -32.3 Q81.65 -32.2 84.95 -33.0 L88.1 -33.8 89.15 -34.45 89.1 -35.25 Q88.7 -36.75 88.15 -37.35 L86.95 -38.2 85.05 -39.15 82.5 -40.25 82.05 -40.4 79.85 -41.05 79.35 -41.2 M98.3 -29.6 L94.3 -30.15 89.8 -30.05 80.0 -30.15 Q70.45 -30.25 66.35 -28.45 62.25 -26.7 56.4 -24.65 51.2 -22.9 49.75 -21.1 L49.45 -20.65 48.55 -18.4 48.45 -18.0 47.7 -15.2 Q46.7 -12.25 44.7 -10.0 L42.75 -7.95 Q41.65 -6.75 41.25 -5.7 L41.05 -4.95 47.0 -4.3 56.3 -3.65 Q59.65 -3.2 61.6 -2.05 L64.5 0.3 64.9 0.8 66.5 0.5 69.25 -0.9 72.1 -2.15 77.75 -3.05 Q87.15 -4.2 92.2 -9.2 L93.8 -10.85 95.4 -12.5 98.15 -14.45 Q101.45 -16.8 103.1 -19.5 104.25 -21.45 104.2 -23.2 104.2 -25.35 102.5 -27.15 101.6 -28.1 100.5 -28.75 L98.7 -29.5 98.3 -29.6 M230.45 -64.45 L225.75 -63.95 223.1 -64.4 220.4 -65.0 218.3 -65.45 Q216.85 -65.9 215.45 -67.4 214.1 -68.85 213.5 -70.9 L212.9 -72.75 212.0 -74.2 Q211.4 -75.4 211.75 -76.85 212.05 -78.2 213.0 -79.25 214.05 -80.4 216.85 -81.8 L219.1 -82.9 221.4 -83.8 224.2 -84.0 227.8 -83.65 230.75 -82.7 Q236.65 -80.3 242.15 -76.8 L243.45 -75.55 Q243.9 -74.7 243.4 -73.1 242.75 -71.25 241.9 -69.75 L240.75 -68.25 Q240.2 -67.85 239.45 -67.5 234.9 -65.4 230.45 -64.45 M229.65 -81.65 Q227.65 -82.45 224.25 -82.55 L221.9 -82.4 221.8 -82.4 219.7 -81.5 219.6 -81.45 218.75 -80.95 217.6 -80.45 Q215.4 -79.95 214.55 -79.25 213.7 -78.65 213.05 -77.1 212.75 -76.15 212.85 -75.6 212.95 -75.2 213.35 -74.7 L213.95 -73.85 214.6 -72.4 Q215.25 -70.3 216.05 -69.05 217.15 -67.25 218.85 -66.75 L220.85 -66.45 223.75 -65.8 Q227.3 -65.15 232.8 -66.65 235.3 -67.25 236.85 -68.05 L238.4 -68.85 Q239.55 -69.3 239.8 -69.45 240.5 -70.0 241.1 -71.45 L242.1 -73.8 242.25 -74.85 241.6 -75.45 239.15 -76.95 Q235.95 -78.9 234.0 -79.65 L231.9 -80.5 230.25 -81.4 229.65 -81.65 M257.95 -62.65 L256.85 -62.95 251.8 -63.65 244.95 -64.05 242.4 -64.0 240.0 -63.65 238.2 -63.65 236.45 -63.7 232.95 -63.2 231.65 -63.15 231.35 -63.1 231.2 -63.05 231.05 -63.05 229.8 -62.2 229.8 -62.15 228.15 -60.5 Q227.55 -59.65 226.9 -57.45 226.6 -56.5 226.9 -56.05 L227.8 -55.4 Q232.3 -53.7 235.25 -53.65 L237.75 -53.45 239.45 -52.75 Q240.55 -52.3 242.45 -52.1 L248.2 -51.65 Q251.45 -51.7 253.8 -52.7 L255.7 -53.65 257.65 -54.45 259.0 -54.75 260.35 -55.2 Q261.35 -55.65 262.85 -57.25 264.4 -58.8 264.1 -60.05 263.95 -60.75 262.75 -61.65 261.5 -62.6 260.75 -62.7 L259.75 -62.6 259.15 -62.55 259.0 -62.55 258.9 -62.55 257.95 -62.65 M256.9 -52.6 L255.55 -51.85 254.15 -51.05 Q252.45 -50.2 248.95 -50.1 242.9 -49.9 239.1 -51.25 L236.95 -51.9 235.75 -52.0 234.55 -52.05 Q232.05 -52.1 227.55 -54.0 226.1 -54.6 225.75 -55.4 225.5 -55.9 225.6 -56.7 225.75 -58.8 226.95 -60.65 228.1 -62.5 229.9 -63.55 231.55 -64.55 234.0 -64.9 L238.4 -65.25 243.5 -65.4 252.15 -65.15 256.4 -64.5 259.05 -64.1 260.25 -64.15 261.4 -64.05 Q262.3 -63.9 263.6 -62.8 265.5 -61.3 265.7 -60.05 265.9 -58.45 263.85 -56.2 262.1 -54.35 260.9 -53.8 L258.9 -53.2 256.9 -52.6 M259.6 -44.85 L258.65 -45.9 257.45 -46.4 254.85 -47.1 252.65 -47.25 241.3 -47.4 240.0 -47.1 239.4 -46.5 238.8 -45.9 238.3 -45.75 237.75 -45.6 237.65 -45.55 237.6 -45.55 236.65 -45.15 235.65 -44.5 234.45 -43.45 233.0 -41.8 Q232.35 -40.85 231.95 -38.7 231.75 -37.8 232.1 -37.45 232.3 -37.2 232.8 -37.2 L233.65 -37.25 235.0 -37.0 236.35 -36.5 238.25 -36.3 239.2 -36.25 238.85 -35.75 240.75 -37.75 241.05 -38.0 243.25 -39.3 244.7 -39.5 246.2 -39.4 246.4 -39.4 246.9 -39.3 247.0 -39.3 251.4 -38.15 256.85 -36.0 259.0 -35.05 Q259.65 -35.85 260.25 -37.75 L261.0 -39.3 Q261.4 -40.35 260.95 -41.95 L260.35 -43.5 260.3 -43.6 260.15 -43.85 259.6 -44.85 M255.55 0.15 Q252.3 1.3 248.4 0.0 245.8 -0.85 242.0 -3.35 240.4 -4.55 239.9 -5.2 238.45 -7.05 239.0 -10.35 L239.65 -12.95 240.3 -15.55 Q240.75 -18.0 240.35 -22.45 L239.7 -26.0 238.9 -27.8 238.25 -29.6 Q238.0 -30.75 238.1 -32.5 238.1 -33.9 238.4 -34.85 L232.25 -36.05 Q231.35 -36.25 231.0 -36.65 230.45 -37.2 230.75 -38.85 231.15 -41.05 231.75 -42.05 232.35 -43.1 234.05 -44.5 L238.55 -47.8 Q239.5 -48.45 240.2 -48.75 L242.6 -48.95 254.55 -48.65 257.9 -47.8 259.75 -46.9 Q261.15 -45.9 262.15 -42.75 L262.65 -40.65 Q262.7 -39.3 261.7 -37.0 L260.3 -34.5 260.2 -34.55 263.8 -32.5 Q265.7 -31.0 266.2 -29.1 266.55 -27.85 266.15 -25.75 265.7 -23.8 264.85 -22.75 L263.7 -21.6 262.35 -20.65 Q259.3 -18.4 259.0 -15.8 258.8 -14.55 259.25 -12.8 L260.0 -9.85 Q260.5 -7.25 259.8 -4.55 259.25 -2.7 258.4 -1.7 257.35 -0.4 255.55 0.15 M264.8 -27.25 Q264.9 -28.95 264.2 -30.05 263.45 -31.2 261.5 -32.1 L255.35 -34.95 253.0 -35.95 Q250.35 -36.95 245.4 -37.85 L244.0 -37.95 243.45 -37.75 242.4 -36.75 241.7 -36.7 Q241.3 -36.85 241.35 -37.2 L241.05 -36.9 Q239.85 -35.7 239.4 -33.95 238.85 -32.0 239.5 -30.15 L240.7 -27.55 Q241.65 -25.3 241.85 -20.35 241.95 -15.9 241.55 -14.05 240.6 -11.1 240.4 -9.55 240.05 -6.7 241.6 -5.25 L242.75 -4.5 244.05 -3.9 246.8 -2.3 Q250.65 -0.15 254.9 -1.35 255.95 -1.6 256.7 -2.2 257.45 -2.85 258.0 -4.1 258.75 -5.95 258.75 -7.25 258.8 -8.6 258.05 -11.3 257.35 -14.0 257.4 -15.4 257.6 -18.9 261.5 -21.85 L261.8 -22.1 262.0 -22.25 263.7 -23.7 Q264.25 -24.45 264.5 -25.55 L264.8 -27.25 M233.2 3.6 L233.0 3.75 Q232.25 4.0 231.95 4.2 L231.0 5.25 230.15 5.65 229.65 5.9 Q228.95 6.3 228.35 7.15 L226.75 9.95 Q226.25 10.95 226.25 11.45 226.2 13.05 228.0 14.0 L231.2 14.75 Q232.9 15.0 236.2 16.1 L240.6 17.45 Q245.8 18.85 251.0 19.2 L254.0 19.05 256.25 18.05 258.45 17.4 Q259.7 17.0 260.2 16.2 261.0 15.0 260.2 13.15 L259.2 11.6 258.35 10.65 257.25 9.7 257.25 9.75 256.8 9.4 252.4 6.8 248.5 4.05 Q246.15 2.45 244.3 1.9 L240.2 1.45 Q236.65 1.55 233.45 2.8 233.65 3.25 233.2 3.6 M254.25 6.15 L256.05 7.1 257.8 8.1 259.75 9.8 Q262.05 12.3 262.2 14.2 262.3 15.4 261.75 16.55 261.15 17.7 260.15 18.35 259.5 18.8 258.45 19.1 L256.65 19.65 255.1 20.3 253.5 20.85 250.45 20.8 245.35 20.1 Q242.05 19.55 236.75 17.95 L227.7 15.35 Q225.75 14.75 225.25 13.7 224.95 13.15 224.95 11.9 L225.15 9.85 226.0 8.2 227.85 5.8 229.75 4.15 230.9 2.95 232.1 1.8 Q233.1 1.05 235.2 0.5 L243.35 0.1 Q245.15 0.4 246.2 0.85 L248.9 2.4 251.7 4.4 254.25 6.15 M214.7 36.2 L214.35 36.45 214.2 36.6 213.3 37.4 212.55 38.05 211.1 39.45 Q209.5 41.45 209.8 43.55 209.9 44.4 210.45 44.9 L211.5 45.3 212.65 45.5 214.05 46.6 215.35 47.9 Q216.25 48.45 218.4 48.55 L230.2 48.75 237.3 48.65 Q241.75 48.35 245.95 47.0 248.9 46.05 251.4 44.9 L255.45 42.9 Q260.85 40.0 261.05 36.2 261.25 33.75 259.0 30.95 L257.85 29.75 257.55 29.45 257.5 29.4 257.4 29.35 257.35 29.3 257.3 29.25 257.25 29.2 256.2 28.6 254.25 27.65 Q250.1 26.1 243.95 25.2 L234.0 24.75 Q226.45 25.45 221.7 29.6 L219.05 32.2 214.7 36.2 M218.0 50.15 Q215.15 50.15 214.0 49.1 L213.2 48.2 212.3 47.35 Q211.85 47.1 211.2 47.0 L210.0 46.85 Q209.1 46.65 208.95 46.2 L208.95 45.15 208.9 43.9 208.7 42.65 Q208.5 40.0 211.0 37.4 212.4 36.05 215.55 33.7 L218.15 31.1 220.75 28.45 Q226.05 23.8 234.1 23.15 240.05 22.6 248.6 24.4 255.75 25.95 258.95 28.65 261.25 30.6 262.2 33.35 263.2 36.3 262.15 38.8 261.05 41.3 257.6 43.55 254.7 45.4 249.6 47.35 L242.5 49.5 237.2 50.3 229.85 50.4 218.0 50.15 M-26.5 9.35 L-27.3 9.3 Q-29.95 9.35 -31.9 10.1 L-32.45 10.3 Q-34.65 11.25 -37.65 14.15 -39.0 15.4 -39.2 16.3 -39.65 18.4 -36.6 20.1 L-29.9 22.75 Q-25.85 24.25 -23.95 26.3 -23.05 27.3 -20.75 31.45 -19.0 34.7 -17.0 35.75 -15.9 36.3 -13.45 36.7 -6.5 37.6 5.2 36.45 10.85 35.9 13.95 34.9 18.75 33.35 21.2 30.0 22.6 28.2 23.0 25.95 23.4 23.65 22.65 21.6 22.1 20.2 20.9 18.95 L20.35 18.4 18.4 16.85 Q16.4 15.45 13.95 14.6 L12.3 14.1 12.25 14.1 7.85 13.25 1.6 12.25 -6.2 10.1 -14.05 9.45 -22.0 9.45 -26.5 9.35 M-6.6 38.95 L-14.5 38.3 Q-17.55 37.65 -19.1 36.5 -20.7 35.3 -22.25 32.15 -24.0 28.55 -25.1 27.4 -26.95 25.35 -31.3 23.8 -36.6 21.9 -38.15 20.9 -40.6 19.2 -40.75 17.1 -40.75 15.9 -39.95 14.5 -38.55 11.9 -36.1 10.1 -33.6 8.3 -30.7 7.75 L-25.6 7.5 -15.35 7.6 -10.35 7.75 -5.35 8.4 0.55 10.05 10.7 11.95 Q16.85 13.2 20.25 15.8 22.4 17.4 23.7 19.65 25.05 22.05 25.0 24.55 25.0 27.0 23.5 29.8 22.25 31.95 20.7 33.25 19.4 34.25 16.85 35.4 L10.4 37.75 5.8 38.25 1.2 38.35 -6.6 38.95 M-40.45 30.4 L-42.2 30.15 -44.5 29.85 -48.45 28.9 -53.0 28.1 -57.6 27.25 -60.45 26.3 -63.35 25.45 -68.1 25.3 Q-71.4 25.45 -72.85 25.25 L-74.85 24.9 -76.9 24.55 Q-79.1 24.4 -82.05 25.35 -83.75 25.85 -87.1 27.05 L-90.35 27.85 Q-92.25 28.35 -93.45 29.05 -95.15 29.95 -97.9 32.8 L-101.35 36.45 -104.3 39.55 -104.85 40.1 -104.85 40.15 -106.65 42.35 Q-107.9 44.2 -108.85 46.7 L-110.45 51.6 Q-111.3 54.8 -110.05 56.05 -109.25 56.8 -107.4 56.9 L-102.25 56.95 -97.75 56.85 -93.25 56.4 -89.1 55.55 -84.95 54.6 -71.9 53.7 -58.8 54.0 Q-55.5 54.0 -53.65 53.3 L-52.0 52.45 -50.4 51.55 -46.8 50.25 -43.15 49.05 Q-41.4 48.35 -38.5 46.6 -35.1 44.6 -33.9 43.0 -32.3 40.85 -32.5 37.95 -32.65 35.05 -34.55 33.15 -35.7 31.95 -37.5 31.25 -38.8 30.7 -40.45 30.4 M-111.75 52.2 Q-111.2 51.25 -110.45 48.35 -109.35 44.1 -107.85 41.8 -107.05 40.5 -104.65 37.9 L-99.1 32.05 Q-96.05 28.8 -94.1 27.7 -92.7 26.95 -89.5 26.0 L-82.1 23.85 -77.65 23.0 -74.8 23.35 -72.0 23.8 -68.2 23.7 -64.45 23.6 Q-63.05 23.75 -61.0 24.45 L-57.6 25.6 -53.1 26.5 -48.55 27.3 -46.5 27.85 -44.4 28.2 -42.25 28.2 Q-41.0 28.35 -39.3 28.95 -36.3 29.95 -34.95 30.85 -33.4 31.85 -32.35 33.5 -31.3 35.1 -31.0 36.95 -30.3 40.85 -32.75 44.1 -34.05 45.75 -37.75 48.1 -41.55 50.4 -43.3 51.05 L-46.25 51.9 Q-48.1 52.35 -49.15 52.85 L-51.1 53.95 -53.05 55.0 Q-54.8 55.75 -58.4 55.75 L-71.9 55.45 Q-79.85 55.35 -85.25 56.4 L-91.9 57.9 -105.45 58.7 Q-109.55 58.7 -111.35 57.3 -112.9 56.1 -112.75 54.55 -112.7 53.95 -111.75 52.2" fill="#9d9d9d" fill-rule="evenodd" stroke="none"/>
    <path d="M76.65 -62.95 L77.9 -63.65 81.0 -64.1 85.05 -64.65 Q87.5 -64.95 89.1 -64.6 91.9 -64.05 95.65 -60.7 L100.45 -56.7 101.9 -55.65 101.55 -53.2 100.8 -51.05 Q99.85 -49.55 97.45 -48.7 96.0 -48.15 94.9 -48.1 92.95 -47.95 89.55 -49.1 88.25 -49.5 87.65 -49.85 L85.7 -51.25 83.75 -52.2 81.95 -52.95 78.45 -53.7 Q76.95 -54.1 74.25 -55.6 74.1 -59.7 76.65 -62.95 M24.5 -2.6 L25.75 -3.75 27.3 -4.9 Q29.45 -6.05 32.5 -5.45 L37.65 -3.9 Q41.0 -2.95 46.05 -2.6 L54.6 -2.1 55.2 -2.0 Q56.4 -1.55 57.5 -0.65 58.35 0.0 58.35 0.6 58.4 1.2 57.5 2.1 L50.55 8.6 Q48.25 10.7 47.0 11.15 L43.15 11.55 37.45 11.1 34.0 10.2 31.3 9.9 Q29.15 9.6 25.25 7.45 23.4 6.5 22.75 5.5 21.45 3.5 23.2 -0.1 L24.5 -2.6 M66.65 -42.65 L67.2 -42.9 68.0 -42.8 Q68.4 -42.85 68.75 -43.45 L69.5 -44.25 70.25 -44.4 74.1 -43.75 76.1 -42.95 77.75 -41.9 79.35 -41.2 79.3 -40.8 Q79.45 -40.35 80.35 -40.05 L83.05 -39.1 83.95 -38.45 Q84.35 -37.8 83.95 -37.05 83.65 -36.4 82.9 -36.05 L80.2 -35.8 73.0 -36.25 72.05 -36.4 Q71.4 -36.55 70.3 -37.45 L69.15 -38.45 68.35 -39.6 Q67.4 -41.1 67.3 -41.8 L67.1 -42.7 67.0 -42.85 66.65 -42.65 M65.55 -39.7 L65.25 -40.45 Q65.15 -40.85 65.4 -41.3 65.35 -40.45 65.55 -39.7 M49.75 -21.1 Q51.2 -22.9 56.4 -24.65 62.25 -26.7 66.35 -28.45 70.45 -30.25 80.0 -30.15 L89.8 -30.05 94.3 -30.15 98.3 -29.6 97.85 -29.7 Q98.8 -28.15 99.15 -25.95 99.45 -23.9 98.95 -22.65 98.55 -21.65 97.45 -20.75 L95.4 -19.25 89.85 -14.6 Q86.5 -11.75 83.95 -10.6 L81.4 -9.65 78.85 -8.75 73.25 -6.15 Q69.9 -4.6 67.5 -4.35 65.05 -4.05 59.9 -5.2 L51.85 -7.05 Q50.55 -7.35 50.15 -8.0 49.65 -8.95 50.55 -9.95 L52.1 -11.4 Q53.35 -12.65 53.25 -14.55 53.15 -16.45 51.8 -17.6 L50.55 -18.5 Q49.9 -19.05 49.75 -19.65 49.6 -20.15 49.75 -21.1 M221.9 -82.4 L224.25 -82.55 Q227.65 -82.45 229.65 -81.65 L229.8 -81.35 Q230.55 -79.95 232.05 -78.3 L234.7 -75.55 Q235.8 -74.45 235.75 -73.5 235.75 -72.85 235.05 -72.05 233.3 -69.9 231.85 -69.3 230.2 -68.55 226.55 -68.95 L223.55 -69.45 Q221.95 -69.9 221.0 -70.85 L220.15 -71.95 Q218.15 -74.75 218.25 -76.65 218.4 -78.15 219.6 -79.7 L221.75 -82.25 221.9 -82.4 M231.65 -63.15 L232.95 -63.2 236.45 -63.7 238.2 -63.65 240.0 -63.65 242.4 -64.0 244.95 -64.05 251.8 -63.65 256.85 -62.95 257.95 -62.65 258.5 -61.55 259.15 -60.35 Q259.4 -59.7 259.15 -59.2 L258.4 -58.7 257.4 -58.5 254.75 -57.85 252.15 -57.05 247.5 -56.7 242.8 -57.15 232.7 -58.55 Q231.6 -58.65 231.2 -59.1 230.75 -59.6 230.85 -60.55 230.95 -61.9 231.95 -62.95 L232.2 -63.15 231.65 -63.15 M238.3 -45.75 L238.8 -45.9 239.4 -46.5 240.0 -47.1 241.3 -47.4 252.65 -47.25 254.85 -47.1 257.45 -46.4 258.65 -45.9 259.6 -44.85 259.75 -44.15 Q259.95 -42.55 258.15 -39.9 257.15 -38.4 256.2 -38.0 L253.8 -37.9 250.45 -38.65 247.1 -39.35 246.4 -39.4 246.2 -39.4 244.7 -39.5 245.3 -39.5 242.15 -39.8 Q239.25 -40.15 237.5 -41.05 236.8 -41.45 236.6 -41.8 236.3 -42.5 237.05 -43.65 L238.25 -45.65 238.3 -45.75 M264.8 -27.25 Q264.15 -25.25 262.85 -24.45 262.3 -24.1 261.4 -23.9 L259.8 -23.55 Q256.8 -22.8 254.7 -20.45 252.55 -18.05 252.45 -15.1 L252.6 -13.05 252.85 -11.05 Q253.1 -9.15 252.95 -7.5 252.85 -5.55 251.85 -5.2 L250.5 -5.15 Q248.7 -5.55 247.0 -6.6 245.9 -7.3 245.35 -8.1 244.55 -9.3 244.55 -11.2 L244.95 -14.6 Q246.05 -22.35 242.65 -29.3 L241.75 -31.5 Q241.4 -32.85 241.8 -34.25 242.25 -35.65 243.3 -36.55 L244.05 -37.6 244.0 -37.95 245.4 -37.85 Q250.35 -36.95 253.0 -35.95 L255.35 -34.95 261.5 -32.1 Q263.45 -31.2 264.2 -30.05 264.9 -28.95 264.8 -27.25 M257.25 9.75 L257.35 10.85 257.1 12.6 256.1 13.95 255.1 15.05 253.65 15.4 252.1 15.25 250.25 15.35 248.35 15.4 245.8 14.85 235.65 12.05 Q233.45 11.45 232.6 10.8 231.0 9.75 231.0 8.1 231.0 7.25 231.65 6.15 L232.85 4.65 233.3 3.9 233.2 3.6 Q233.65 3.25 233.45 2.8 236.65 1.55 240.2 1.45 L244.3 1.9 Q246.15 2.45 248.5 4.05 L252.4 6.8 256.8 9.4 257.25 9.75 M256.2 28.6 L254.9 27.95 255.75 29.5 Q256.25 30.75 256.15 32.4 256.15 34.1 255.55 35.15 254.9 36.3 253.6 37.1 252.0 38.15 249.95 38.6 L245.8 39.3 Q244.9 39.6 243.35 40.5 L240.85 41.75 236.2 42.35 217.35 41.45 216.75 41.25 216.7 40.95 216.9 40.75 Q215.55 40.65 214.75 39.35 214.0 38.0 214.5 36.75 L214.7 36.2 219.05 32.2 221.7 29.6 Q226.45 25.45 234.0 24.75 L243.95 25.2 Q250.1 26.1 254.25 27.65 L256.2 28.6 M12.3 14.1 L14.35 15.15 Q17.85 17.05 19.15 19.65 19.95 21.2 19.8 22.9 19.65 24.7 18.5 25.85 17.75 26.65 16.4 27.2 L14.0 28.0 7.6 30.1 Q0.75 32.15 -6.35 31.85 L-9.7 31.2 -11.65 29.85 -16.1 25.5 -18.45 22.75 Q-20.35 20.95 -25.6 19.5 -30.75 18.0 -32.65 16.15 -33.25 15.65 -33.25 15.15 L-32.8 14.25 Q-30.25 10.95 -28.15 10.45 -26.55 10.0 -26.5 9.35 L-22.0 9.45 -14.05 9.45 -6.2 10.1 1.6 12.25 7.85 13.25 12.25 14.1 12.3 14.1 M-40.45 30.4 L-39.05 32.05 Q-37.55 34.2 -37.75 35.95 -38.0 38.1 -40.75 40.1 -46.4 44.3 -55.15 45.25 -58.65 45.6 -62.9 45.4 L-70.6 44.75 -79.0 44.3 -84.45 45.2 -89.85 46.5 Q-96.6 48.0 -100.85 46.75 -102.4 46.3 -103.05 45.35 -103.7 44.3 -103.35 42.35 -102.7 39.15 -101.35 36.45 L-97.9 32.8 Q-95.15 29.95 -93.45 29.05 -92.25 28.35 -90.35 27.85 L-87.1 27.05 Q-83.75 25.85 -82.05 25.35 -79.1 24.4 -76.9 24.55 L-74.85 24.9 -72.85 25.25 Q-71.4 25.45 -68.1 25.3 L-63.35 25.45 -60.45 26.3 -57.6 27.25 -53.0 28.1 -48.45 28.9 -44.5 29.85 -42.2 30.15 -40.45 30.4" fill="#efefef" fill-rule="evenodd" stroke="none"/>
  </g>
</svg>
