<?xml version="1.0" encoding="UTF-8" standalone="no"?>
<svg xmlns:ffdec="https://www.free-decompiler.com/flash" xmlns:xlink="http://www.w3.org/1999/xlink" ffdec:objectType="shape" height="39.15px" width="67.25px" xmlns="http://www.w3.org/2000/svg">
  <g transform="matrix(1.0, 0.0, 0.0, 1.0, 0.0, 0.0)">
    <path d="M52.1 9.9 Q53.05 9.25 53.75 9.25 L54.25 9.6 55.35 10.75 55.2 12.25 Q55.75 17.05 53.55 20.6 51.7 23.6 46.5 27.7 L34.35 36.8 31.4 39.15 27.3 39.15 29.55 37.25 26.75 39.15 24.8 39.15 28.5 36.25 Q30.0 35.5 29.45 31.3 L28.5 27.0 Q30.85 35.45 30.55 35.75 L31.0 35.8 31.4 35.75 Q31.05 34.85 29.45 28.55 28.05 23.0 27.15 21.7 29.65 24.2 31.05 28.75 32.0 31.8 32.0 33.25 35.1 31.0 39.0 28.95 L43.9 26.15 Q46.4 24.3 48.55 20.0 L48.6 20.0 48.6 19.9 Q50.1 16.85 51.5 12.6 L51.6 11.95 52.1 9.9 M63.8 26.2 Q64.6 25.65 65.35 25.65 L65.85 25.65 66.7 26.45 Q67.6 28.3 65.75 33.6 L65.0 36.4 Q64.4 37.35 63.85 39.15 L63.35 39.15 63.45 38.55 65.35 30.25 Q65.9 27.55 65.25 26.7 63.05 33.3 61.65 39.15 L60.75 39.15 63.1 29.1 63.8 26.2 M54.65 12.35 L53.6 10.3 50.95 17.3 Q48.5 23.5 47.45 24.45 L46.9 25.0 51.3 21.65 Q55.1 18.0 55.1 14.1 L54.65 12.35 M12.05 14.95 L13.95 14.35 17.15 14.5 18.7 14.85 22.15 17.2 24.05 18.6 Q22.55 17.5 20.65 16.65 17.3 15.05 14.5 15.05 L9.5 16.0 Q9.9 15.4 10.95 15.15 L12.05 14.95 M9.45 16.05 L9.4 16.65 9.5 17.35 9.1 17.05 Q9.2 16.5 9.45 16.05 M9.85 17.55 L11.05 17.6 Q11.65 17.6 12.2 16.65 12.8 15.75 14.5 15.75 L18.15 16.25 Q20.95 16.9 22.4 18.3 L20.9 17.95 18.5 17.1 15.85 16.75 13.8 16.65 13.5 16.9 Q12.3 17.95 10.85 17.95 L10.25 17.75 9.85 17.55" fill="#171717" fill-rule="evenodd" stroke="none"/>
    <path d="M52.1 9.9 L51.6 11.95 51.45 11.7 Q48.35 5.5 41.95 2.95 38.2 1.45 34.0 1.45 31.4 1.45 28.6 2.85 25.75 4.25 21.4 7.7 L20.1 8.45 Q18.95 9.15 18.75 9.35 L19.1 8.6 Q16.35 10.75 15.4 12.05 L13.95 14.35 12.05 14.95 Q13.5 9.5 21.3 4.55 28.55 0.0 34.0 0.0 39.1 0.0 43.25 2.05 48.1 4.45 52.1 9.9 M55.2 12.25 L55.35 10.75 59.65 10.2 63.8 26.2 63.1 29.1 58.55 11.85 55.2 12.25 M65.75 33.6 L67.25 39.15 65.75 39.15 65.0 36.4 65.75 33.6 M9.5 17.35 L9.5 17.5 9.85 17.55 10.25 17.75 10.85 17.95 Q12.3 17.95 13.5 16.9 L12.25 18.1 8.15 18.15 8.15 18.75 Q6.5 18.8 6.25 19.4 L6.4 19.6 2.6 22.35 1.7 23.0 6.05 39.15 4.5 39.15 0.0 22.45 5.45 18.95 Q7.75 17.2 9.1 17.05 L9.5 17.35" fill="#44423c" fill-rule="evenodd" stroke="none"/>
    <path d="M51.6 11.95 L51.5 12.6 51.45 11.7 51.6 11.95 M48.6 19.9 L48.6 20.0 48.55 20.0 47.45 20.15 Q46.85 20.25 46.8 20.7 L45.85 22.0 Q45.05 22.7 44.35 22.5 L43.65 22.1 43.3 21.6 Q45.15 21.5 45.1 21.0 44.65 20.2 44.65 19.6 44.65 18.3 46.35 18.3 47.2 18.3 47.7 18.65 L48.6 19.9 M28.5 27.0 L29.45 31.3 Q30.0 35.5 28.5 36.25 27.9 30.2 22.6 24.0 19.85 20.8 16.15 17.6 L18.5 17.3 18.5 17.1 20.9 17.95 22.4 18.3 25.9 21.8 28.5 27.0 M31.4 39.15 L34.35 36.8 46.5 27.7 Q51.7 23.6 53.55 20.6 55.75 17.05 55.2 12.25 L58.55 11.85 63.1 29.1 60.75 39.15 55.4 39.15 52.95 25.45 Q52.3 26.45 48.4 28.75 42.05 32.5 39.7 34.1 36.05 36.5 32.85 39.15 L31.4 39.15 M65.75 39.15 L63.85 39.15 Q64.4 37.35 65.0 36.4 L65.75 39.15 M41.6 6.55 L41.65 6.15 Q42.9 6.15 44.7 8.8 L42.95 7.65 41.6 6.55 M46.5 11.8 L46.35 11.35 46.2 10.45 46.5 11.8 M40.25 11.65 L40.7 11.8 41.5 12.2 39.35 12.5 37.35 12.25 38.3 11.7 40.15 11.55 40.25 11.65 M41.1 24.45 L43.3 23.7 43.8 23.25 Q43.1 24.6 41.35 25.2 L38.8 25.25 41.1 24.45 M57.25 21.65 L57.95 21.35 58.25 20.7 57.95 20.0 57.25 19.75 Q56.85 19.75 56.55 20.0 56.3 20.3 56.3 20.7 L56.55 21.35 Q56.85 21.65 57.25 21.65 M55.5 27.15 Q55.0 27.15 54.65 27.55 54.25 27.9 54.25 28.4 54.25 28.9 54.65 29.3 55.0 29.65 55.5 29.65 56.0 29.65 56.4 29.3 L56.75 28.4 Q56.75 27.9 56.4 27.55 56.0 27.15 55.5 27.15 M47.8 35.75 L47.8 33.65 49.15 33.65 49.15 35.75 47.8 35.75 M32.25 11.7 L34.45 11.9 Q36.05 12.1 36.05 12.4 L33.4 13.25 29.65 13.5 Q30.0 12.4 30.75 12.0 L32.25 11.7 M26.15 7.8 Q29.05 4.5 35.4 4.5 L38.15 4.8 39.15 5.1 Q35.0 4.75 31.3 7.35 28.8 9.1 25.45 13.2 23.6 10.8 26.15 7.8 M31.65 22.0 L33.15 21.05 Q34.25 21.05 35.05 21.9 36.05 22.9 36.05 24.8 36.05 27.7 33.0 27.7 30.2 27.7 30.35 24.5 L30.85 24.15 31.3 23.65 32.9 25.2 33.6 25.65 34.45 25.55 34.6 24.8 34.4 22.5 32.2 22.55 31.65 22.0 M39.15 22.5 Q38.75 22.85 38.2 22.85 37.65 22.85 37.3 22.5 36.9 22.1 36.9 21.6 36.9 21.1 37.3 20.7 37.65 20.3 38.2 20.3 38.75 20.3 39.15 20.7 39.5 21.1 39.5 21.6 39.5 22.1 39.15 22.5 M2.6 22.35 L6.4 19.6 6.8 19.3 12.3 39.15 8.65 39.15 Q5.55 28.35 2.6 22.35 M14.15 22.45 Q14.5 22.45 14.8 22.85 L15.05 23.65 14.8 24.45 Q14.5 24.8 14.15 24.8 13.8 24.8 13.55 24.45 13.25 24.1 13.25 23.65 13.25 23.15 13.55 22.85 13.8 22.45 14.15 22.45 M20.0 24.7 L20.0 25.15 19.7 26.0 18.8 27.45 20.55 27.95 20.9 28.1 20.0 28.6 Q19.2 29.05 18.4 29.05 L17.4 28.75 Q17.25 28.6 17.25 28.0 17.25 27.2 17.75 26.35 18.5 25.15 19.9 24.8 L20.0 24.7 M14.75 33.3 L14.45 33.35 14.25 33.3 14.15 33.05 14.25 32.9 14.45 32.8 14.75 32.9 14.8 33.05 14.75 33.3 M23.9 26.45 Q24.7 26.75 25.1 28.5 25.45 29.95 25.35 31.65 L25.35 31.85 23.75 30.6 Q22.95 29.55 22.95 28.35 22.95 27.85 23.1 27.55 L23.5 27.0 23.9 26.45" fill="#5f5c55" fill-rule="evenodd" stroke="none"/>
    <path d="M27.15 21.7 Q28.05 23.0 29.45 28.55 31.05 34.85 31.4 35.75 L31.0 35.8 30.55 35.75 Q30.85 35.45 28.5 27.0 L25.9 21.8 22.4 18.3 Q20.95 16.9 18.15 16.25 L14.5 15.75 Q12.8 15.75 12.2 16.65 11.65 17.6 11.05 17.6 L9.85 17.55 9.5 17.5 9.5 17.35 9.4 16.65 9.45 16.05 9.5 16.0 14.5 15.05 Q17.3 15.05 20.65 16.65 22.55 17.5 24.05 18.6 L24.85 19.2 25.2 19.5 27.15 21.7 M26.75 39.15 L29.55 37.25 27.3 39.15 26.75 39.15 M63.35 39.15 L61.65 39.15 Q63.05 33.3 65.25 26.7 65.9 27.55 65.35 30.25 L63.45 38.55 63.35 39.15 M54.65 12.35 L55.1 14.1 Q55.1 18.0 51.3 21.65 L46.9 25.0 47.45 24.45 Q48.5 23.5 50.95 17.3 L53.6 10.3 54.65 12.35" fill="#272727" fill-rule="evenodd" stroke="none"/>
    <path d="M51.5 12.6 Q50.1 16.85 48.6 19.9 L47.7 18.65 Q47.2 18.3 46.35 18.3 44.65 18.3 44.65 19.6 44.65 20.2 45.1 21.0 45.15 21.5 43.3 21.6 L43.65 22.1 44.35 22.5 Q45.05 22.7 45.85 22.0 L46.8 20.7 Q46.85 20.25 47.45 20.15 L48.55 20.0 Q46.4 24.3 43.9 26.15 L39.0 28.95 Q35.1 31.0 32.0 33.25 32.0 31.8 31.05 28.75 29.65 24.2 27.15 21.7 L25.2 19.5 24.85 19.2 24.05 18.6 22.15 17.2 18.7 14.85 Q20.3 10.3 21.4 7.7 25.75 4.25 28.6 2.85 31.4 1.45 34.0 1.45 38.2 1.45 41.95 2.95 48.35 5.5 51.45 11.7 L51.5 12.6 M28.5 36.25 L24.8 39.15 13.85 39.15 8.15 18.75 8.15 18.15 12.25 18.1 16.15 17.6 Q19.85 20.8 22.6 24.0 27.9 30.2 28.5 36.25 M55.4 39.15 L32.85 39.15 Q36.05 36.5 39.7 34.1 42.05 32.5 48.4 28.75 52.3 26.45 52.95 25.45 L55.4 39.15 M41.1 24.45 L38.8 25.25 41.35 25.2 Q43.1 24.6 43.8 23.25 L43.3 23.7 41.1 24.45 M40.25 11.65 L40.15 11.55 38.3 11.7 37.35 12.25 39.35 12.5 41.5 12.2 40.7 11.8 40.25 11.65 M46.5 11.8 L46.2 10.45 46.35 11.35 46.5 11.8 M41.6 6.55 L42.95 7.65 44.7 8.8 Q42.9 6.15 41.65 6.15 L41.6 6.55 M57.25 21.65 Q56.85 21.65 56.55 21.35 L56.3 20.7 Q56.3 20.3 56.55 20.0 56.85 19.75 57.25 19.75 L57.95 20.0 58.25 20.7 57.95 21.35 57.25 21.65 M55.5 27.15 Q56.0 27.15 56.4 27.55 56.75 27.9 56.75 28.4 L56.4 29.3 Q56.0 29.65 55.5 29.65 55.0 29.65 54.65 29.3 54.25 28.9 54.25 28.4 54.25 27.9 54.65 27.55 55.0 27.15 55.5 27.15 M47.8 35.75 L49.15 35.75 49.15 33.65 47.8 33.65 47.8 35.75 M26.15 7.8 Q23.6 10.8 25.45 13.2 28.8 9.1 31.3 7.35 35.0 4.75 39.15 5.1 L38.15 4.8 35.4 4.5 Q29.05 4.5 26.15 7.8 M32.25 11.7 L30.75 12.0 Q30.0 12.4 29.65 13.5 L33.4 13.25 36.05 12.4 Q36.05 12.1 34.45 11.9 L32.25 11.7 M39.15 22.5 Q39.5 22.1 39.5 21.6 39.5 21.1 39.15 20.7 38.75 20.3 38.2 20.3 37.65 20.3 37.3 20.7 36.9 21.1 36.9 21.6 36.9 22.1 37.3 22.5 37.65 22.85 38.2 22.85 38.75 22.85 39.15 22.5 M31.65 22.0 L32.2 22.55 34.4 22.5 34.6 24.8 34.45 25.55 33.6 25.65 32.9 25.2 31.3 23.65 30.85 24.15 30.35 24.5 Q30.2 27.7 33.0 27.7 36.05 27.7 36.05 24.8 36.05 22.9 35.05 21.9 34.25 21.05 33.15 21.05 L31.65 22.0 M14.15 22.45 Q13.8 22.45 13.55 22.85 13.25 23.15 13.25 23.65 13.25 24.1 13.55 24.45 13.8 24.8 14.15 24.8 14.5 24.8 14.8 24.45 L15.05 23.65 14.8 22.85 Q14.5 22.45 14.15 22.45 M14.75 33.3 L14.8 33.05 14.75 32.9 14.45 32.8 14.25 32.9 14.15 33.05 14.25 33.3 14.45 33.35 14.75 33.3 M20.0 24.7 L19.9 24.8 Q18.5 25.15 17.75 26.35 17.25 27.2 17.25 28.0 17.25 28.6 17.4 28.75 L18.4 29.05 Q19.2 29.05 20.0 28.6 L20.9 28.1 20.55 27.95 18.8 27.45 19.7 26.0 20.0 25.15 20.0 24.7 M23.9 26.45 L23.5 27.0 23.1 27.55 Q22.95 27.85 22.95 28.35 22.95 29.55 23.75 30.6 L25.35 31.85 25.35 31.65 Q25.45 29.95 25.1 28.5 24.7 26.75 23.9 26.45" fill="#747067" fill-rule="evenodd" stroke="none"/>
    <path d="M13.95 14.35 L15.4 12.05 Q16.35 10.75 19.1 8.6 L18.75 9.35 Q18.25 10.35 17.15 14.5 L13.95 14.35" fill="#858176" fill-rule="evenodd" stroke="none"/>
    <path d="M18.75 9.35 Q18.95 9.15 20.1 8.45 L21.4 7.7 Q20.3 10.3 18.7 14.85 L17.15 14.5 Q18.25 10.35 18.75 9.35 M6.4 19.6 L6.25 19.4 Q6.5 18.8 8.15 18.75 L13.85 39.15 12.3 39.15 6.8 19.3 6.4 19.6 M12.25 18.1 L13.5 16.9 13.8 16.65 15.85 16.75 18.5 17.1 18.5 17.3 16.15 17.6 12.25 18.1" fill="#9c978b" fill-rule="evenodd" stroke="none"/>
    <path d="M6.05 39.15 L1.7 23.0 2.6 22.35 Q5.55 28.35 8.65 39.15 L6.05 39.15" fill="#525049" fill-rule="evenodd" stroke="none"/>
  </g>
</svg>
