<?xml version="1.0" encoding="UTF-8" standalone="no"?>
<svg xmlns:ffdec="https://www.free-decompiler.com/flash" xmlns:xlink="http://www.w3.org/1999/xlink" ffdec:objectType="shape" height="11.25px" width="22.05px" xmlns="http://www.w3.org/2000/svg">
  <g transform="matrix(1.0, 0.0, 0.0, 1.0, -1.45, -0.75)">
    <path d="M1.45 1.45 L1.5 1.4 1.45 1.3 1.5 1.2 1.5 1.15 1.5 1.0 Q1.95 0.55 2.45 1.0 L2.9 1.2 Q12.5 5.4 22.1 1.2 L22.55 1.0 Q22.9 0.65 23.5 1.0 L23.5 1.15 23.5 1.2 23.5 1.4 23.45 1.8 Q23.35 4.75 22.0 7.5 20.8 9.35 18.75 10.55 16.65 11.6 14.95 11.85 L12.5 12.0 9.95 11.85 Q8.15 11.6 6.15 10.55 3.95 9.3 2.9 7.45 1.4 4.65 1.45 1.8 L1.45 1.45 M3.25 1.95 L1.9 1.45 Q1.9 2.7 2.3 4.75 2.75 6.65 4.2 8.3 5.7 9.8 7.6 10.7 9.9 11.55 12.4 11.55 L12.5 11.55 Q15.0 11.6 17.3 10.65 19.15 9.9 20.6 8.35 22.05 6.75 22.5 4.75 23.0 2.8 22.9 1.45 L21.55 2.0 19.25 2.8 18.1 3.1 15.15 3.7 Q12.5 4.1 9.65 3.65 L6.7 3.05 5.55 2.7 3.25 1.95" fill="#762121" fill-rule="evenodd" stroke="none"/>
    <path d="M21.55 2.0 L22.9 1.45 Q23.0 2.8 22.5 4.75 22.05 6.75 20.6 8.35 19.15 9.9 17.3 10.65 15.0 11.6 12.5 11.55 L12.4 11.55 Q9.9 11.55 7.6 10.7 5.7 9.8 4.2 8.3 2.75 6.65 2.3 4.75 1.9 2.7 1.9 1.45 L3.25 1.95 Q3.45 5.15 5.8 7.5 8.3 10.0 12.4 9.85 L12.5 9.85 Q16.4 9.9 19.05 7.55 21.4 5.2 21.55 2.0 M9.65 3.65 Q12.5 4.1 15.15 3.7 L13.55 4.9 Q12.45 5.4 11.35 4.9 10.1 4.5 9.65 3.65" fill="#b13a3a" fill-rule="evenodd" stroke="none"/>
    <path d="M5.55 2.7 L6.7 3.05 Q7.5 4.75 9.3 6.0 10.75 6.9 12.4 7.0 L12.5 7.0 Q14.15 6.8 15.6 6.0 17.25 4.95 18.1 3.1 L19.25 2.8 19.3 2.9 Q18.6 5.05 17.05 6.4 15.15 7.95 12.45 8.1 L12.35 8.1 Q9.7 7.95 7.8 6.4 6.3 5.0 5.6 2.8 L5.55 2.7" fill="#453da3" fill-rule="evenodd" stroke="none"/>
    <path d="M21.55 2.0 Q21.4 5.2 19.05 7.55 16.4 9.9 12.5 9.85 L12.4 9.85 Q8.3 10.0 5.8 7.5 3.45 5.15 3.25 1.95 L5.55 2.7 5.6 2.8 Q6.3 5.0 7.8 6.4 9.7 7.95 12.35 8.1 L12.45 8.1 Q15.15 7.95 17.05 6.4 18.6 5.05 19.3 2.9 L19.25 2.8 21.55 2.0 M6.7 3.05 L9.65 3.65 Q10.1 4.5 11.35 4.9 12.45 5.4 13.55 4.9 L15.15 3.7 18.1 3.1 Q17.25 4.95 15.6 6.0 14.15 6.8 12.5 7.0 L12.4 7.0 Q10.75 6.9 9.3 6.0 7.5 4.75 6.7 3.05" fill="#eeeeee" fill-rule="evenodd" stroke="none"/>
  </g>
</svg>
