<?xml version="1.0" encoding="UTF-8" standalone="no"?>
<svg xmlns:ffdec="https://www.free-decompiler.com/flash" xmlns:xlink="http://www.w3.org/1999/xlink" ffdec:objectType="shape" height="165.9px" width="106.3px" xmlns="http://www.w3.org/2000/svg">
  <g transform="matrix(1.0, 0.0, 0.0, 1.0, 51.65, 130.0)">
    <path d="M-22.05 -117.95 Q-15.55 -124.25 -7.25 -128.8 L-7.15 -128.8 -6.9 -128.95 Q0.65 -131.25 8.4 -128.5 L8.5 -128.45 Q15.4 -124.8 20.7 -118.35 L19.3 -117.7 Q14.3 -123.7 7.8 -127.1 L7.9 -127.1 5.65 -127.75 Q0.1 -129.2 -5.35 -127.85 L-5.9 -127.7 -5.85 -127.6 -5.85 -127.25 Q-1.9 -128.9 1.6 -127.7 4.0 -126.9 6.2 -124.8 L6.35 -124.5 Q7.5 -121.3 6.55 -118.6 L5.0 -116.05 3.35 -114.45 2.4 -113.75 2.3 -113.65 1.9 -113.4 -1.3 -110.55 -2.0 -109.7 Q-3.2 -108.15 -3.9 -106.4 L-2.35 -101.5 -2.1 -100.55 -2.0 -100.3 -1.95 -100.15 -2.25 -99.0 -2.25 -98.8 Q-2.15 -97.9 -1.5 -97.25 L-1.5 -97.2 -1.05 -96.85 -0.7 -95.7 -0.6 -95.2 -0.55 -95.1 -0.55 -95.05 0.3 -91.5 1.2 -87.7 -0.1 -87.2 -0.2 -87.15 -1.2 -91.35 -1.95 -94.4 -2.0 -94.7 -2.25 -95.55 -2.7 -97.15 -3.15 -98.85 -3.2 -98.95 -5.4 -106.2 -5.4 -106.7 Q-3.65 -111.4 1.45 -114.9 L3.05 -116.2 Q4.35 -117.5 4.95 -118.9 5.7 -120.7 5.3 -122.75 L5.05 -123.8 Q0.05 -128.5 -6.15 -125.45 L-6.4 -125.4 -10.1 -121.75 Q-13.15 -118.35 -15.3 -114.25 L-16.65 -111.45 -16.8 -111.2 -18.15 -109.9 -18.6 -109.5 -18.65 -109.5 -21.4 -106.8 -23.85 -104.3 -25.45 -102.55 -25.5 -102.5 -25.5 -102.65 -25.7 -104.55 -24.35 -105.95 -22.4 -107.95 -19.65 -110.6 -17.95 -112.2 -17.85 -112.45 -17.35 -113.5 -16.55 -115.1 Q-14.95 -118.2 -12.8 -120.9 -10.45 -123.9 -7.5 -126.45 L-7.55 -126.95 Q-15.1 -122.6 -21.1 -116.75 L-22.05 -117.95 M24.05 -113.6 L24.95 -112.15 25.0 -112.1 Q31.2 -99.35 34.2 -77.5 L35.35 -67.7 Q36.35 -60.1 38.0 -52.5 L38.6 -49.6 38.45 -49.55 37.25 -49.0 36.55 -52.2 Q34.85 -59.85 33.85 -67.55 L32.7 -77.5 Q29.7 -98.85 23.65 -111.4 L23.65 -111.45 23.15 -112.3 23.85 -113.25 24.05 -113.6 M40.75 -41.35 Q44.6 -28.0 50.85 -17.1 53.45 -15.5 54.6 -12.1 L54.65 -11.7 54.45 -11.35 Q49.5 -6.0 41.35 -2.35 L39.8 -1.65 34.4 0.3 Q28.95 1.9 23.5 2.85 L23.3 1.4 24.45 1.15 25.2 1.0 26.05 0.85 26.5 0.75 29.7 0.0 33.95 -1.15 36.8 -2.15 39.85 -3.35 40.4 -3.55 41.4 -4.0 Q48.55 -7.35 53.05 -12.0 52.15 -14.4 50.35 -15.6 L49.95 -15.9 49.75 -16.05 49.65 -16.15 Q43.35 -27.1 39.45 -40.45 L40.75 -41.35 M-37.4 -6.05 Q-44.15 -7.75 -50.25 -10.8 L-50.4 -10.95 Q-52.85 -13.15 -50.4 -16.45 L-50.4 -16.4 Q-36.55 -35.95 -34.7 -59.8 L-33.45 -57.2 Q-34.55 -46.75 -37.95 -37.05 L-37.95 -37.1 -38.1 -36.6 -39.3 -33.5 -39.55 -32.9 Q-43.35 -23.85 -49.2 -15.55 -50.7 -13.5 -49.45 -12.1 -46.4 -10.6 -43.15 -9.4 L-40.95 -8.65 -37.4 -7.6 -37.4 -6.6 -37.4 -6.05 M-39.55 -82.2 Q-39.45 -88.75 -37.45 -94.95 L-36.2 -94.65 -36.9 -92.4 -37.85 -87.55 -35.8 -91.15 Q-33.35 -95.2 -30.3 -99.05 -30.0 -98.15 -29.5 -97.7 L-33.75 -91.9 Q-36.9 -87.25 -39.55 -82.2 M-36.15 -98.35 Q-33.05 -105.7 -27.15 -112.45 L-26.15 -111.35 Q-31.8 -104.95 -34.75 -98.35 L-36.05 -98.4 -36.15 -98.35 M2.8 -78.95 L2.9 -78.0 2.9 -77.5 2.95 -76.45 Q2.5 -75.85 2.5 -75.0 L2.5 -74.8 Q2.55 -74.15 2.95 -73.6 L2.9 -73.0 Q2.65 -69.1 1.55 -65.05 L1.5 -64.8 1.1 -63.45 0.85 -62.6 0.8 -62.55 -0.95 -57.4 -1.9 -54.3 -2.5 -53.85 Q-3.25 -53.2 -3.25 -52.1 L-3.25 -51.9 Q-3.2 -51.25 -2.8 -50.75 L-3.9 -45.5 -4.45 -42.2 Q-5.1 -38.15 -5.35 -34.0 L-5.35 -33.95 -5.3 -33.05 -5.3 -32.75 -5.3 -32.7 -5.25 -30.95 Q-5.75 -30.4 -5.75 -29.5 L-5.75 -29.3 Q-5.65 -28.5 -5.1 -27.9 L-5.05 -26.5 -5.05 -26.45 Q-4.6 -20.1 -3.75 -13.55 L-3.7 -13.4 -3.65 -12.85 -3.35 -10.8 -3.05 -8.85 -2.8 -7.35 -2.6 -6.35 -2.75 -5.5 -2.75 -5.3 Q-2.65 -4.5 -2.15 -3.9 -1.95 -2.4 -2.1 -0.7 L-2.1 -0.5 -2.25 0.55 -2.5 1.9 -2.35 2.0 -1.05 2.35 -1.0 2.35 0.75 2.5 10.5 2.8 10.5 3.0 10.55 4.15 10.6 4.2 -1.1 3.85 -1.15 3.85 -2.25 3.7 Q-3.4 3.4 -3.95 2.45 L-4.1 2.2 -4.1 1.95 -4.05 1.85 -3.75 0.45 -3.6 -0.8 Q-3.45 -2.5 -3.7 -3.95 L-3.65 -3.95 -4.3 -7.45 -4.6 -9.0 -4.95 -11.2 -5.15 -12.65 -5.3 -13.9 -6.55 -26.4 -6.7 -29.05 -6.8 -32.65 -6.8 -32.7 -6.85 -34.0 -6.85 -34.05 -6.0 -42.0 -5.4 -45.7 -4.2 -51.4 -2.5 -57.55 -0.6 -63.05 -0.5 -63.45 0.05 -65.2 Q1.05 -68.85 1.35 -72.45 1.55 -75.0 1.4 -77.5 L1.4 -78.0 1.35 -78.15 2.8 -78.95" fill="#312437" fill-rule="evenodd" stroke="none"/>
    <path d="M-21.1 -116.75 Q-15.1 -122.6 -7.55 -126.95 L-7.5 -126.45 Q-10.45 -123.9 -12.8 -120.9 -14.95 -118.2 -16.55 -115.1 L-17.35 -113.5 -17.85 -112.45 -18.65 -112.05 -20.95 -110.7 -21.65 -110.25 -22.8 -109.4 -26.45 -105.95 Q-27.1 -106.45 -28.15 -106.2 -30.8 -105.6 -30.8 -102.05 L-30.7 -100.85 -34.05 -96.85 -34.05 -97.1 Q-34.05 -98.1 -34.75 -98.35 -31.8 -104.95 -26.15 -111.35 L-25.9 -111.0 -23.75 -111.0 Q-21.9 -112.2 -21.25 -113.15 -20.75 -113.9 -20.75 -115.1 -20.75 -116.0 -21.1 -116.75 M3.35 -114.45 L5.0 -116.05 6.55 -118.6 Q7.5 -121.3 6.35 -124.5 L6.2 -124.8 Q4.0 -126.9 1.6 -127.7 -1.9 -128.9 -5.85 -127.25 L-5.85 -127.6 -5.9 -127.7 -5.35 -127.85 Q0.1 -129.2 5.65 -127.75 L7.9 -127.1 7.8 -127.1 Q14.3 -123.7 19.3 -117.7 17.25 -116.5 17.25 -114.45 17.25 -113.2 17.5 -112.7 18.15 -111.25 20.4 -111.25 22.05 -111.25 23.15 -112.3 L23.65 -111.45 23.65 -111.4 Q29.7 -98.85 32.7 -77.5 L33.85 -67.55 Q34.85 -59.85 36.55 -52.2 L37.25 -49.0 Q34.0 -47.2 34.0 -42.8 33.85 -42.0 34.0 -41.25 34.4 -39.75 36.25 -39.75 38.1 -39.75 39.45 -40.45 43.35 -27.1 49.65 -16.15 L49.75 -16.05 49.5 -15.85 Q46.25 -12.0 41.5 -9.25 L41.2 -9.05 38.85 -7.85 39.0 -9.3 39.0 -9.6 Q39.0 -11.75 38.25 -13.25 37.1 -15.4 34.4 -16.2 L32.65 -16.6 32.6 -16.6 32.65 -16.65 32.65 -17.2 31.3 -20.95 30.95 -21.35 30.8 -21.4 31.4 -22.45 Q32.9 -24.85 33.0 -27.35 L33.0 -27.4 33.0 -27.65 32.7 -29.7 Q32.05 -33.75 31.5 -33.75 L29.8 -33.6 27.05 -33.1 26.0 -32.85 23.75 -32.5 23.35 -32.5 22.4 -32.55 22.7 -33.4 23.15 -35.15 Q23.15 -36.35 22.25 -36.35 L24.0 -38.2 24.35 -38.55 24.7 -38.85 25.75 -39.9 26.5 -40.75 26.7 -39.25 Q27.25 -36.75 28.85 -36.75 31.0 -36.75 31.0 -40.05 31.0 -42.35 28.75 -43.25 L28.1 -43.45 26.85 -50.05 25.9 -53.85 Q27.45 -52.0 28.9 -52.0 30.0 -52.0 31.0 -56.65 31.0 -59.55 29.0 -62.65 27.35 -66.0 24.25 -66.0 L23.6 -65.95 23.4 -66.0 23.1 -65.9 22.55 -65.75 23.3 -67.3 Q25.35 -71.85 26.0 -77.5 L26.25 -82.5 Q26.25 -87.8 21.65 -88.95 L20.9 -92.65 20.85 -92.8 22.25 -96.35 22.4 -100.0 Q22.4 -103.9 21.4 -105.55 19.85 -108.15 15.4 -109.65 L15.4 -109.85 Q15.4 -113.45 12.6 -112.2 11.0 -111.5 10.3 -110.4 L6.0 -110.5 5.5 -111.1 4.45 -112.95 3.6 -114.65 3.35 -114.45 M11.25 -113.8 L9.4 -115.8 8.4 -116.8 8.0 -117.0 7.85 -117.0 7.3 -116.75 7.1 -116.2 Q7.1 -115.9 7.35 -115.7 L7.8 -115.25 9.1 -113.9 10.1 -112.8 Q10.3 -112.55 10.6 -112.55 L11.15 -112.7 11.4 -113.25 11.25 -113.8 M6.7 -55.6 L8.6 -55.85 10.1 -56.15 Q17.2 -57.85 21.3 -63.7 22.15 -60.8 23.5 -57.9 L24.05 -56.8 23.9 -56.85 23.8 -56.85 23.3 -56.6 23.1 -56.2 15.65 -52.25 13.8 -51.65 13.65 -51.6 11.6 -50.75 8.0 -50.75 7.65 -50.85 7.1 -51.05 7.25 -51.35 Q7.65 -52.3 7.65 -53.3 L6.7 -55.6 M30.5 -73.85 Q30.5 -75.7 28.4 -75.7 26.25 -75.75 26.25 -73.65 26.15 -72.9 26.3 -72.25 26.6 -70.9 28.0 -70.9 L29.45 -72.2 30.5 -73.85 M27.7 -34.3 L27.4 -35.7 27.3 -36.4 27.05 -37.75 26.95 -38.2 26.65 -38.7 26.1 -38.85 25.6 -38.5 25.45 -38.15 25.45 -37.95 25.75 -36.5 25.95 -35.35 26.25 -34.0 26.55 -33.5 27.1 -33.4 27.6 -33.75 27.7 -34.3 M20.55 -33.75 L20.75 -33.35 21.0 -32.9 20.65 -33.25 20.55 -33.75 M36.0 -33.15 Q36.0 -35.05 34.65 -34.95 33.25 -34.85 33.25 -33.4 L33.5 -32.5 Q34.0 -31.5 35.1 -31.5 36.0 -31.5 36.0 -33.15 M38.55 -6.6 L38.6 -6.65 39.8 -7.2 41.3 -8.0 41.5 -8.1 Q46.75 -11.05 50.25 -15.2 L50.35 -15.6 Q52.15 -14.4 53.05 -12.0 48.55 -7.35 41.4 -4.0 L40.4 -3.55 39.85 -3.35 36.8 -2.15 38.55 -6.6 M44.75 -19.25 Q44.75 -21.85 41.45 -23.35 38.1 -24.8 38.1 -21.9 38.1 -21.0 39.25 -19.4 L41.0 -17.05 42.65 -17.0 44.35 -18.35 Q44.75 -18.7 44.75 -19.25 M30.05 -20.0 L30.2 -19.65 31.1 -17.1 Q29.75 -17.7 29.75 -19.05 L30.05 -20.0 M-35.5 -94.8 L-36.85 -92.5 -36.9 -92.4 -36.2 -94.65 -36.15 -94.65 -35.5 -94.8 M-33.45 -57.2 Q-31.55 -52.6 -32.45 -48.3 L-33.3 -44.0 Q-34.75 -37.95 -37.15 -32.3 L-37.35 -34.8 Q-37.35 -35.6 -37.65 -36.35 L-37.95 -37.05 Q-34.55 -46.75 -33.45 -57.2 M-34.65 -35.9 Q-36.25 -25.0 -35.4 -20.3 L-35.75 -19.05 Q-36.85 -15.2 -37.2 -11.05 -40.9 -12.3 -44.3 -14.0 -45.85 -15.5 -44.15 -17.8 -38.1 -26.35 -34.65 -35.9 M-40.55 -11.2 L-37.25 -10.05 -37.4 -7.6 -40.95 -8.65 -41.25 -9.45 -40.55 -11.2" fill="#4c3856" fill-rule="evenodd" stroke="none"/>
    <path d="M-2.0 -109.7 L-1.3 -110.55 -1.25 -110.45 0.35 -106.5 0.7 -105.6 1.0 -104.75 1.3 -104.0 1.65 -102.95 2.25 -101.3 2.7 -100.1 3.7 -97.1 3.9 -96.35 5.35 -91.3 6.25 -87.7 5.05 -88.1 4.2 -91.35 3.15 -95.35 3.15 -95.45 2.4 -97.75 2.75 -98.8 2.75 -99.0 Q2.75 -100.1 2.0 -100.75 L1.2 -101.3 1.0 -101.9 0.5 -103.25 0.35 -103.7 0.1 -104.4 -2.0 -109.7 M11.25 -113.8 L11.4 -113.25 11.15 -112.7 10.6 -112.55 Q10.3 -112.55 10.1 -112.8 L9.1 -113.9 7.8 -115.25 7.35 -115.7 Q7.1 -115.9 7.1 -116.2 L7.3 -116.75 7.85 -117.0 8.0 -117.0 8.4 -116.8 9.4 -115.8 11.25 -113.8 M20.85 -92.8 L20.9 -92.65 21.65 -88.95 21.7 -88.65 21.55 -88.1 21.1 -87.8 Q20.75 -87.75 20.55 -87.95 L20.2 -88.4 19.7 -91.1 19.45 -92.3 19.5 -92.9 20.0 -93.2 20.05 -93.2 20.15 -93.25 20.55 -93.15 20.65 -93.05 20.85 -92.8 M23.1 -65.9 L23.4 -66.0 23.6 -65.95 23.1 -65.9 M30.8 -21.4 L30.95 -21.35 31.3 -20.95 32.65 -17.2 32.65 -16.65 32.6 -16.6 32.65 -16.6 32.25 -16.25 31.65 -16.25 31.25 -16.65 31.1 -17.1 30.2 -19.65 30.05 -20.0 30.0 -20.15 29.9 -20.45 29.95 -21.0 30.35 -21.4 30.8 -21.4 M38.85 -7.85 L41.2 -9.05 41.5 -9.25 Q46.25 -12.0 49.5 -15.85 L49.75 -16.05 49.95 -15.9 50.35 -15.6 50.25 -15.2 Q46.75 -11.05 41.5 -8.1 L41.3 -8.0 39.8 -7.2 38.6 -6.65 38.55 -6.6 38.05 -6.4 Q34.5 -4.85 30.9 -3.65 L30.55 -4.6 32.9 -5.4 34.8 -6.1 35.0 -6.2 37.4 -7.2 38.2 -7.55 38.85 -7.85 M15.25 -108.25 L15.55 -107.7 16.05 -106.9 16.4 -106.2 16.5 -105.65 16.15 -105.2 15.55 -105.1 15.1 -105.45 14.25 -107.0 15.1 -107.95 15.25 -108.25 M19.4 -98.5 L19.65 -97.65 19.55 -97.05 Q19.4 -96.8 19.1 -96.7 L18.9 -96.7 18.55 -96.8 Q18.25 -96.95 18.2 -97.25 L17.0 -101.1 17.05 -101.65 17.45 -102.05 18.05 -102.0 18.4 -101.6 19.4 -98.5 M21.7 -84.25 L22.25 -84.1 22.55 -83.6 22.7 -82.55 22.85 -81.65 23.1 -79.5 22.95 -78.95 22.95 -78.9 22.8 -78.75 22.45 -78.65 21.9 -78.8 21.6 -79.3 21.05 -83.4 21.2 -83.95 21.7 -84.25 M24.05 -56.8 L24.3 -56.7 24.35 -56.65 24.6 -56.15 24.65 -55.7 24.95 -52.1 24.8 -51.55 Q24.6 -51.35 24.3 -51.3 23.95 -51.25 23.75 -51.45 L23.45 -51.95 23.1 -56.05 23.1 -56.2 23.3 -56.6 23.8 -56.85 23.9 -56.85 24.05 -56.8 M24.1 -47.25 L24.2 -47.5 24.7 -47.8 25.25 -47.65 25.55 -47.15 25.85 -45.15 26.15 -43.15 26.0 -42.6 25.5 -42.3 24.95 -42.45 24.65 -42.95 24.35 -44.95 24.35 -45.15 24.05 -46.95 24.1 -47.25 M28.3 -30.0 L28.35 -30.0 28.45 -29.95 28.8 -29.45 29.85 -25.65 29.75 -25.1 29.3 -24.7 28.75 -24.8 28.4 -25.25 Q27.8 -27.15 27.35 -29.1 L27.4 -29.65 27.9 -30.0 28.3 -30.0 M33.45 -11.45 L33.5 -11.45 33.25 -11.95 33.2 -12.1 Q33.05 -12.4 33.15 -12.65 L33.55 -13.05 34.15 -13.1 34.55 -12.7 36.1 -9.35 36.1 -8.8 35.75 -8.35 35.5 -8.3 35.15 -8.35 34.75 -8.7 33.45 -11.45 M23.9 -70.35 L23.75 -69.8 23.2 -69.55 22.65 -69.7 22.65 -69.75 Q22.4 -69.95 22.4 -70.25 L22.35 -71.2 22.1 -74.3 Q22.05 -74.6 22.3 -74.85 L22.8 -75.1 23.35 -74.9 23.6 -74.4 23.7 -73.0 23.9 -70.35 M6.25 -82.75 L7.1 -84.0 7.1 -83.8 7.2 -83.45 7.25 -83.15 7.3 -82.85 7.35 -82.45 7.45 -81.9 7.5 -81.55 7.55 -81.15 7.55 -80.85 7.75 -78.65 7.8 -77.5 7.75 -75.6 Q7.55 -71.35 6.25 -67.0 L5.6 -64.95 4.95 -63.3 4.25 -61.3 3.55 -62.3 3.9 -63.4 4.65 -65.3 5.1 -66.75 Q6.05 -69.85 6.45 -72.95 L6.75 -73.2 6.75 -73.25 Q7.4 -73.9 7.5 -74.8 L7.5 -75.0 Q7.5 -76.1 6.75 -76.75 L6.7 -76.8 6.7 -77.5 6.7 -78.55 6.5 -81.05 6.4 -82.05 6.25 -82.75 M1.0 -53.85 L1.85 -57.1 1.9 -57.2 2.2 -54.55 1.75 -52.55 1.0 -53.85 M0.1 -49.75 Q0.55 -49.95 1.0 -50.3 L1.0 -50.35 1.3 -50.7 1.3 -50.6 0.6 -47.2 0.25 -44.95 0.15 -44.2 0.05 -43.5 -0.1 -42.5 -1.2 -41.5 -1.15 -42.1 -0.75 -45.1 0.1 -49.75 M27.7 -34.3 L27.6 -33.75 27.1 -33.4 26.55 -33.5 26.25 -34.0 25.95 -35.35 25.75 -36.5 25.45 -37.95 25.45 -38.15 25.6 -38.5 26.1 -38.85 26.65 -38.7 26.95 -38.2 27.05 -37.75 27.3 -36.4 27.4 -35.7 27.7 -34.3 M-0.55 -36.25 L-0.5 -34.6 -0.5 -33.85 -0.15 -28.2 Q0.2 -23.5 0.8 -18.75 L1.2 -16.15 1.3 -15.4 1.75 -12.7 2.45 -8.8 2.55 -8.25 2.55 -8.2 3.05 -5.75 3.05 -5.6 3.25 -4.75 3.55 -3.25 3.95 -1.65 13.1 -1.4 12.15 -0.4 Q9.5 -0.3 6.85 -0.45 L3.9 -0.65 3.85 -0.65 3.7 -0.6 3.45 -0.6 3.2 -0.75 3.1 -0.9 3.1 -0.95 3.0 -1.35 2.85 -2.0 2.55 -3.25 2.2 -4.95 2.25 -5.3 2.25 -5.5 Q2.25 -6.4 1.75 -7.0 L1.55 -8.05 1.45 -8.75 Q0.95 -11.05 0.6 -13.35 L0.35 -15.05 0.1 -16.6 Q-0.65 -21.75 -1.05 -26.9 L-1.15 -28.15 Q-0.8 -28.7 -0.75 -29.3 L-0.75 -29.5 Q-0.75 -30.45 -1.3 -31.1 L-1.45 -33.3 -1.55 -35.65 -1.5 -35.65 -0.55 -36.25 M22.35 -2.5 L26.45 -3.4 26.4 -2.8 26.35 -2.35 22.7 -1.55 22.35 -2.5 M-33.3 -44.0 L-34.65 -35.9 Q-38.1 -26.35 -44.15 -17.8 -45.85 -15.5 -44.3 -14.0 -40.9 -12.3 -37.2 -11.05 L-37.25 -10.7 -37.25 -10.6 -37.25 -10.5 -37.25 -10.05 -40.55 -11.2 -43.75 -12.6 -44.85 -13.15 -45.0 -13.2 Q-47.25 -15.3 -44.95 -18.4 -41.35 -23.5 -38.65 -28.95 L-37.15 -32.3 Q-34.75 -37.95 -33.3 -44.0" fill="#3e2e46" fill-rule="evenodd" stroke="none"/>
    <path d="M-25.45 -102.55 L-23.85 -104.3 Q-24.95 -101.15 -25.2 -98.1 -25.8 -90.65 -21.5 -88.0 -17.1 -85.45 -10.3 -89.2 L-10.25 -89.25 Q-5.95 -91.6 -2.25 -95.55 L-2.0 -94.7 -1.95 -94.4 Q-5.6 -90.6 -9.8 -88.35 -16.9 -84.45 -21.6 -86.95 L-22.0 -87.15 -22.3 -87.35 -22.7 -87.65 Q-26.5 -90.45 -26.25 -97.05 L-26.2 -98.2 -26.1 -98.9 -25.45 -102.55 M-21.4 -106.8 L-18.65 -109.5 -18.6 -109.5 -18.15 -109.9 -18.5 -109.35 Q-21.35 -104.15 -21.95 -99.3 -22.55 -93.45 -19.3 -91.4 L-18.4 -90.95 -18.25 -90.9 -17.45 -90.7 -17.2 -90.7 Q-14.4 -90.4 -10.55 -92.6 -7.1 -94.6 -4.05 -97.9 L-3.15 -98.85 -2.7 -97.15 Q-6.0 -93.5 -9.8 -91.3 -16.15 -87.65 -20.05 -90.1 -24.15 -92.45 -23.45 -99.45 -23.05 -103.05 -21.4 -106.8 M-15.3 -114.25 Q-13.15 -118.35 -10.1 -121.75 L-7.15 -123.75 Q-0.85 -127.35 3.1 -124.9 4.45 -124.1 5.3 -122.75 5.7 -120.7 4.95 -118.9 4.55 -122.2 2.35 -123.6 -1.05 -125.55 -6.4 -122.45 -11.3 -119.6 -15.3 -114.25 M-1.05 -96.85 L-1.5 -97.2 -1.5 -97.25 Q-2.15 -97.9 -2.25 -98.8 L-2.25 -99.0 -1.95 -100.15 -1.5 -100.75 Q-0.75 -101.5 0.25 -101.5 L1.2 -101.3 2.0 -100.75 Q2.75 -100.1 2.75 -99.0 L2.75 -98.8 2.4 -97.75 2.0 -97.25 2.0 -97.2 Q1.25 -96.55 0.25 -96.55 L-1.05 -96.85 M41.35 -2.35 Q40.65 13.05 30.4 24.0 18.8 36.2 2.15 35.9 -14.55 35.55 -26.0 23.15 -28.35 20.6 -30.2 17.85 L-30.0 15.45 Q-27.85 18.95 -24.9 22.15 -13.85 34.05 2.2 34.4 18.2 34.7 29.3 22.95 38.95 12.65 39.8 -1.65 L41.35 -2.35 M-32.75 13.55 Q-37.3 4.75 -37.4 -6.05 L-37.4 -6.6 -37.4 -7.6 -37.25 -10.05 -37.25 -10.5 -37.25 -10.6 -37.25 -10.7 -37.2 -11.05 Q-36.85 -15.2 -35.75 -19.05 L-35.4 -20.3 Q-35.1 -18.75 -34.5 -17.85 -35.4 -14.4 -35.7 -10.7 L-35.65 -10.6 -34.65 -9.25 -33.5 -8.15 -33.15 -7.85 -33.55 -6.3 -34.35 -6.9 -35.85 -8.35 -35.9 -7.25 -35.9 -6.6 -35.9 -5.7 Q-35.75 3.55 -32.15 11.35 L-32.5 12.45 -32.75 13.55 M1.85 -98.8 L1.85 -99.0 Q1.85 -99.65 1.4 -100.1 L1.4 -100.15 Q0.9 -100.6 0.25 -100.6 -0.4 -100.6 -0.9 -100.15 L-0.9 -100.1 Q-1.35 -99.65 -1.35 -99.0 L-1.3 -98.8 Q-1.3 -98.25 -0.9 -97.85 -0.4 -97.4 0.25 -97.4 0.9 -97.4 1.4 -97.85 1.8 -98.25 1.85 -98.8 M2.95 -76.45 L3.25 -76.75 Q4.0 -77.5 4.95 -77.5 L5.05 -77.5 Q6.0 -77.5 6.7 -76.8 L6.75 -76.75 Q7.5 -76.1 7.5 -75.0 L7.5 -74.8 Q7.4 -73.9 6.75 -73.25 L6.75 -73.2 6.45 -72.95 5.0 -72.55 Q4.0 -72.55 3.25 -73.2 L3.25 -73.25 2.95 -73.6 Q2.55 -74.15 2.5 -74.8 L2.5 -75.0 Q2.5 -75.85 2.95 -76.45 M-3.75 0.45 L-4.05 1.85 -4.1 1.95 -4.85 1.9 -5.9 1.8 -13.2 0.95 -13.2 0.75 -12.8 0.2 -12.75 -0.05 -12.75 -0.3 -12.75 -0.45 -6.8 0.25 -6.55 0.25 -4.2 0.45 -3.75 0.45 M-2.15 -3.9 Q-2.65 -4.5 -2.75 -5.3 L-2.75 -5.5 -2.6 -6.35 -2.0 -7.25 Q-1.25 -8.0 -0.25 -8.0 0.75 -8.0 1.5 -7.25 L1.75 -7.0 Q2.25 -6.4 2.25 -5.5 L2.25 -5.3 2.2 -4.95 1.5 -3.75 1.5 -3.7 Q0.75 -3.05 -0.25 -3.05 -1.25 -3.05 -2.0 -3.7 L-2.0 -3.75 -2.15 -3.9 M-5.1 -27.9 Q-5.65 -28.5 -5.75 -29.3 L-5.75 -29.5 Q-5.75 -30.4 -5.25 -30.95 L-5.0 -31.25 Q-4.25 -32.0 -3.25 -32.0 -2.25 -32.0 -1.5 -31.25 L-1.3 -31.1 Q-0.75 -30.45 -0.75 -29.5 L-0.75 -29.3 Q-0.8 -28.7 -1.15 -28.15 L-1.5 -27.75 -1.5 -27.7 Q-2.25 -27.05 -3.25 -27.05 -4.25 -27.05 -5.0 -27.7 L-5.0 -27.75 -5.1 -27.9 M-2.8 -50.75 Q-3.2 -51.25 -3.25 -51.9 L-3.25 -52.1 Q-3.25 -53.2 -2.5 -53.85 L-1.9 -54.3 -0.75 -54.6 Q0.25 -54.6 1.0 -53.85 L1.75 -52.55 1.75 -52.1 1.75 -51.9 Q1.7 -51.25 1.3 -50.7 L1.0 -50.35 1.0 -50.3 Q0.55 -49.95 0.1 -49.75 L-0.75 -49.65 Q-1.75 -49.65 -2.5 -50.3 L-2.5 -50.35 -2.8 -50.75 M6.6 -74.8 L6.6 -75.0 6.15 -76.1 6.15 -76.15 Q5.65 -76.6 5.0 -76.6 4.35 -76.6 3.85 -76.15 L3.85 -76.1 Q3.4 -75.65 3.4 -75.0 L3.45 -74.8 Q3.45 -74.25 3.85 -73.85 4.35 -73.4 5.0 -73.4 5.65 -73.4 6.15 -73.85 6.55 -74.25 6.6 -74.8 M0.85 -51.9 L0.85 -52.1 0.75 -52.75 0.4 -53.2 0.4 -53.25 Q-0.1 -53.7 -0.75 -53.7 -1.4 -53.7 -1.9 -53.25 L-1.9 -53.2 Q-2.35 -52.75 -2.35 -52.1 L-2.3 -51.9 Q-2.3 -51.35 -1.9 -50.95 -1.4 -50.5 -0.75 -50.5 -0.15 -50.5 0.3 -50.85 L0.4 -50.95 Q0.8 -51.35 0.85 -51.9 M1.35 -5.3 L1.35 -5.5 Q1.35 -6.15 0.9 -6.6 L0.9 -6.65 Q0.4 -7.1 -0.25 -7.1 -0.9 -7.1 -1.4 -6.65 L-1.4 -6.6 Q-1.85 -6.15 -1.85 -5.5 L-1.8 -5.3 Q-1.8 -4.75 -1.4 -4.35 -0.9 -3.9 -0.25 -3.9 0.4 -3.9 0.9 -4.35 1.3 -4.75 1.35 -5.3 M-1.65 -29.3 L-1.65 -29.5 Q-1.65 -30.15 -2.1 -30.6 L-2.1 -30.65 Q-2.6 -31.1 -3.25 -31.1 -3.9 -31.1 -4.4 -30.65 L-4.4 -30.6 Q-4.85 -30.15 -4.85 -29.5 L-4.8 -29.3 Q-4.8 -28.75 -4.4 -28.35 -3.9 -27.9 -3.25 -27.9 -2.6 -27.9 -2.1 -28.35 -1.7 -28.75 -1.65 -29.3 M-30.7 -4.5 L-30.7 -4.65 -30.6 -4.45 -30.7 -4.5 M-24.8 -1.95 L-24.8 -2.15 -22.4 -1.45 -22.4 -1.15 -24.8 -1.95 M-18.45 -0.05 L-18.55 -0.25 -16.45 0.4 -18.45 -0.05" fill="#162427" fill-rule="evenodd" stroke="none"/>
    <path d="M-18.15 -109.9 L-16.8 -111.2 -16.65 -111.45 -15.3 -114.25 Q-11.3 -119.6 -6.4 -122.45 -1.05 -125.55 2.35 -123.6 4.55 -122.2 4.95 -118.9 4.35 -117.5 3.05 -116.2 L3.05 -116.55 2.8 -119.5 Q2.35 -121.5 0.05 -122.1 L-1.4 -122.15 Q-2.95 -121.5 -4.4 -120.3 L-8.7 -116.3 -10.25 -114.6 -11.6 -112.9 -14.1 -109.45 Q-16.05 -106.65 -17.5 -102.5 -19.05 -98.15 -19.05 -95.1 -19.05 -93.8 -18.45 -92.35 -17.95 -91.15 -17.2 -90.7 L-17.45 -90.7 -18.25 -90.9 -18.4 -90.95 -19.3 -91.4 Q-22.55 -93.45 -21.95 -99.3 -21.35 -104.15 -18.5 -109.35 L-18.15 -109.9 M-3.2 -98.95 L-3.15 -98.85 -4.05 -97.9 -3.2 -98.95" fill="#e7a867" fill-rule="evenodd" stroke="none"/>
    <path d="M3.05 -116.2 L1.45 -114.9 Q-3.65 -111.4 -5.4 -106.7 L-5.4 -106.2 -3.2 -98.95 -4.05 -97.9 Q-7.1 -94.6 -10.55 -92.6 -14.4 -90.4 -17.2 -90.7 -17.95 -91.15 -18.45 -92.35 -19.05 -93.8 -19.05 -95.1 -19.05 -98.15 -17.5 -102.5 -16.05 -106.65 -14.1 -109.45 L-11.6 -112.9 -10.25 -114.6 -8.7 -116.3 -4.4 -120.3 Q-2.95 -121.5 -1.4 -122.15 L0.05 -122.1 Q2.35 -121.5 2.8 -119.5 L3.05 -116.55 3.05 -116.2" fill="#f4bb83" fill-rule="evenodd" stroke="none"/>
    <path d="M-17.85 -112.45 L-17.95 -112.2 -19.65 -110.6 -22.4 -107.95 -24.35 -105.95 -25.7 -104.55 Q-25.95 -105.5 -26.45 -105.95 L-22.8 -109.4 -21.65 -110.25 -20.95 -110.7 -18.65 -112.05 -17.85 -112.45 M-2.35 -101.5 L-3.9 -106.4 Q-3.2 -108.15 -2.0 -109.7 L0.1 -104.4 0.35 -103.7 0.5 -103.25 0.3 -103.15 -0.25 -102.75 -1.1 -102.2 Q-1.75 -101.8 -2.35 -101.5 M-1.3 -110.55 L1.9 -113.4 2.3 -113.65 2.4 -113.75 3.35 -114.45 3.6 -114.65 4.45 -112.95 5.5 -111.1 6.0 -110.5 10.3 -110.4 Q9.75 -109.6 9.75 -108.5 9.65 -107.95 9.85 -107.45 10.35 -106.5 12.15 -106.5 13.45 -106.5 14.25 -107.0 L15.1 -105.45 13.1 -105.75 7.55 -105.25 6.7 -105.1 6.1 -104.95 5.55 -104.8 4.2 -104.45 2.35 -104.05 2.0 -104.0 1.3 -104.0 1.0 -104.75 0.7 -105.6 0.35 -106.5 -1.25 -110.45 -1.3 -110.55 M15.4 -109.65 Q19.85 -108.15 21.4 -105.55 22.4 -103.9 22.4 -100.0 L22.25 -96.35 20.85 -92.8 20.65 -93.05 20.55 -93.15 20.15 -93.25 20.05 -93.2 20.0 -93.2 19.5 -92.9 19.45 -92.3 19.7 -91.1 20.2 -88.4 20.55 -87.95 Q20.75 -87.75 21.1 -87.8 L21.55 -88.1 21.7 -88.65 21.65 -88.95 Q26.25 -87.8 26.25 -82.5 L26.0 -77.5 Q25.35 -71.85 23.3 -67.3 L22.55 -65.75 Q21.25 -65.25 21.25 -63.8 L21.3 -63.7 Q17.2 -57.85 10.1 -56.15 L8.6 -55.85 6.7 -55.6 5.25 -59.2 8.25 -59.85 8.95 -59.95 9.0 -59.95 10.45 -60.6 Q13.05 -61.8 14.1 -62.5 17.9 -65.05 20.5 -70.8 22.1 -74.4 22.65 -77.5 L22.8 -78.75 22.95 -78.9 22.95 -78.95 23.1 -79.5 22.85 -81.65 22.75 -82.4 22.7 -82.55 22.55 -83.6 22.25 -84.1 21.7 -84.25 21.1 -85.0 Q17.55 -84.7 16.6 -86.2 16.25 -86.7 16.25 -88.05 16.25 -89.45 17.75 -92.95 18.5 -94.75 18.9 -96.7 L19.1 -96.7 Q19.4 -96.8 19.55 -97.05 L19.65 -97.65 19.4 -98.5 19.2 -99.15 19.25 -100.8 Q19.25 -101.95 18.0 -103.55 17.15 -104.6 16.0 -105.1 L16.15 -105.2 16.5 -105.65 16.4 -106.2 16.05 -106.9 15.55 -107.7 15.25 -108.25 15.4 -109.65 M25.9 -53.85 L26.85 -50.05 28.1 -43.45 Q26.5 -43.75 26.5 -41.8 L26.5 -40.75 25.75 -39.9 24.7 -38.85 24.35 -38.55 24.0 -38.2 22.25 -36.35 21.65 -36.3 Q20.15 -35.95 20.15 -34.75 L20.55 -33.75 20.65 -33.25 21.0 -32.9 Q21.55 -32.0 22.1 -32.0 L22.4 -32.55 23.35 -32.5 23.75 -32.5 26.0 -32.85 27.05 -33.1 29.8 -33.6 31.5 -33.75 Q32.05 -33.75 32.7 -29.7 L33.0 -27.65 33.0 -27.4 33.0 -27.35 Q32.9 -24.85 31.4 -22.45 L30.8 -21.4 30.35 -21.4 29.95 -21.0 29.9 -20.45 30.0 -20.15 30.05 -20.0 29.75 -19.05 Q29.75 -17.7 31.1 -17.1 L31.25 -16.65 31.65 -16.25 32.25 -16.25 32.65 -16.6 34.4 -16.2 Q37.1 -15.4 38.25 -13.25 39.0 -11.75 39.0 -9.6 L39.0 -9.3 38.85 -7.85 38.2 -7.55 37.4 -7.2 35.0 -6.2 35.05 -6.25 35.5 -7.95 35.5 -8.3 35.75 -8.35 36.1 -8.8 36.1 -9.35 34.55 -12.7 34.15 -13.1 33.55 -13.05 33.15 -12.65 Q33.05 -12.4 33.2 -12.1 L33.25 -11.95 33.5 -11.45 33.45 -11.45 Q32.3 -12.2 30.45 -12.6 L30.25 -12.65 Q27.45 -13.25 26.65 -13.7 25.0 -14.5 25.0 -16.25 25.0 -17.85 27.15 -20.7 L27.75 -21.45 Q30.5 -24.8 30.5 -27.1 30.5 -28.05 29.75 -28.95 L28.45 -29.95 28.35 -30.0 28.3 -30.0 25.5 -30.5 22.15 -29.75 20.3 -29.1 Q16.75 -27.75 16.35 -27.75 14.8 -27.75 14.45 -28.5 14.25 -28.85 14.35 -29.25 L14.6 -29.75 15.0 -29.75 Q16.35 -29.75 17.0 -31.2 17.35 -32.05 17.35 -33.05 L17.35 -33.6 17.9 -34.35 19.35 -36.35 22.35 -40.65 23.1 -41.95 Q24.15 -43.9 24.35 -45.15 L24.35 -44.95 24.65 -42.95 24.95 -42.45 25.5 -42.3 26.0 -42.6 26.15 -43.15 25.85 -45.15 25.55 -47.15 25.25 -47.65 24.7 -47.8 24.2 -47.5 24.1 -47.25 23.75 -48.0 Q22.85 -49.75 21.1 -49.75 L18.55 -49.45 Q17.9 -52.5 15.65 -52.25 L23.1 -56.2 23.1 -56.05 23.45 -51.95 23.75 -51.45 Q23.95 -51.25 24.3 -51.3 24.6 -51.35 24.8 -51.55 L24.95 -52.1 24.65 -55.7 25.9 -53.85 M23.9 -70.35 L23.7 -73.0 23.6 -74.4 23.35 -74.9 22.8 -75.1 22.3 -74.85 Q22.05 -74.6 22.1 -74.3 L22.35 -71.2 22.4 -70.25 Q22.4 -69.95 22.65 -69.75 L22.65 -69.7 23.2 -69.55 23.75 -69.8 23.9 -70.35 M2.2 -54.55 L2.25 -54.35 Q3.1 -50.0 5.6 -50.0 6.55 -50.0 7.1 -51.05 L7.65 -50.85 8.0 -50.75 11.6 -50.75 13.65 -51.6 13.8 -51.65 13.5 -51.5 Q10.2 -49.65 9.4 -46.65 L9.05 -46.55 8.9 -46.45 7.65 -46.0 7.3 -45.85 4.0 -44.6 2.95 -44.15 1.35 -43.55 0.0 -43.05 0.05 -43.5 0.15 -44.2 0.25 -44.95 0.6 -47.2 1.3 -50.6 1.3 -50.7 Q1.7 -51.25 1.75 -51.9 L1.75 -52.1 1.75 -52.55 2.2 -54.55 M10.5 2.8 L0.75 2.5 0.0 2.45 0.55 2.1 3.8 0.65 4.0 0.6 6.85 -0.45 Q9.5 -0.3 12.15 -0.4 10.6 1.4 10.5 2.8 M22.7 -1.55 L26.35 -2.35 26.45 -1.5 Q26.85 -0.15 28.4 -0.15 31.0 -0.15 31.0 -2.4 L30.9 -3.65 Q34.5 -4.85 38.05 -6.4 L38.55 -6.6 36.8 -2.15 33.95 -1.15 29.7 0.0 26.5 0.75 26.05 0.85 25.2 1.0 24.45 1.15 23.3 1.4 22.7 -1.45 22.7 -1.55 M31.25 -15.55 Q31.25 -17.05 30.15 -16.95 29.0 -16.9 29.0 -15.25 L29.05 -14.7 Q29.2 -14.25 30.0 -14.25 30.65 -14.25 31.0 -14.75 L31.25 -15.55 M-34.05 -96.85 L-30.7 -100.85 -30.5 -99.65 -30.3 -99.05 Q-33.35 -95.2 -35.8 -91.15 L-37.85 -87.55 -36.9 -92.4 -36.85 -92.5 -35.5 -94.8 -34.4 -96.45 -34.05 -96.85 M-37.15 -32.3 L-38.65 -28.95 Q-41.35 -23.5 -44.95 -18.4 -47.25 -15.3 -45.0 -13.2 L-44.85 -13.15 -43.75 -12.6 -40.55 -11.2 -41.25 -9.45 -40.95 -8.65 -43.15 -9.4 Q-46.4 -10.6 -49.45 -12.1 -50.7 -13.5 -49.2 -15.55 -43.35 -23.85 -39.55 -32.9 L-39.3 -33.5 -38.1 -36.6 -37.95 -37.1 -37.95 -37.05 -37.65 -36.35 Q-37.35 -35.6 -37.35 -34.8 L-37.15 -32.3" fill="#5b4366" fill-rule="evenodd" stroke="none"/>
    <path d="M-0.6 -95.2 L-0.7 -95.7 -1.05 -96.85 0.25 -96.55 Q1.25 -96.55 2.0 -97.2 L2.0 -97.25 2.4 -97.75 3.15 -95.45 2.9 -96.15 -0.6 -95.2 M-1.95 -100.15 L-2.0 -100.3 -2.1 -100.55 -2.35 -101.5 Q-1.75 -101.8 -1.1 -102.2 L-0.25 -102.75 0.3 -103.15 0.5 -103.25 1.0 -101.9 1.2 -101.3 0.25 -101.5 Q-0.75 -101.5 -1.5 -100.75 L-1.95 -100.15 M16.15 -105.2 L16.0 -105.1 Q17.15 -104.6 18.0 -103.55 19.25 -101.95 19.25 -100.8 L19.2 -99.15 19.4 -98.5 18.4 -101.6 18.05 -102.0 17.45 -102.05 17.05 -101.65 17.0 -101.1 18.2 -97.25 Q18.25 -96.95 18.55 -96.8 L18.9 -96.7 Q18.5 -94.75 17.75 -92.95 16.25 -89.45 16.25 -88.05 16.25 -86.7 16.6 -86.2 17.55 -84.7 21.1 -85.0 L21.7 -84.25 21.2 -83.95 21.05 -83.4 21.6 -79.3 21.9 -78.8 22.45 -78.65 22.8 -78.75 22.65 -77.5 Q22.1 -74.4 20.5 -70.8 17.9 -65.05 14.1 -62.5 13.05 -61.8 10.45 -60.6 L9.0 -59.95 8.95 -59.95 8.25 -59.85 5.25 -59.2 4.75 -60.4 4.25 -61.3 4.95 -63.3 5.6 -64.95 6.25 -67.0 Q7.55 -71.35 7.75 -75.6 L7.8 -77.5 7.75 -78.65 7.55 -80.85 7.55 -81.15 7.5 -81.55 7.45 -81.9 7.35 -82.45 7.3 -82.85 7.25 -83.15 7.2 -83.45 7.1 -83.8 7.1 -84.0 Q7.5 -84.75 7.5 -85.15 7.5 -87.0 6.25 -87.7 L5.35 -91.3 6.65 -93.5 7.25 -90.75 Q7.7 -87.85 8.65 -84.95 L9.0 -83.65 9.25 -80.25 9.25 -79.0 9.2 -77.5 8.4 -68.15 8.65 -68.45 Q8.25 -66.9 8.25 -63.95 8.1 -63.35 8.25 -62.8 8.55 -61.75 10.0 -61.75 11.5 -61.75 11.75 -63.3 L11.75 -65.15 Q11.75 -70.1 10.0 -70.1 L9.8 -70.05 10.5 -71.65 10.55 -71.75 10.85 -72.1 12.65 -75.25 13.25 -75.0 Q13.7 -75.0 14.0 -75.75 L14.25 -76.9 Q14.25 -77.5 13.65 -77.6 L14.5 -79.95 Q14.5 -81.65 14.15 -82.45 L14.15 -82.5 15.65 -84.3 Q16.1 -84.95 16.1 -85.9 16.1 -89.25 12.5 -91.45 L12.4 -91.5 12.9 -92.75 13.15 -93.3 14.5 -93.15 Q15.35 -93.15 16.2 -94.05 17.0 -94.95 17.0 -95.7 17.0 -97.6 14.5 -97.3 L14.0 -97.2 10.05 -97.4 9.0 -97.1 7.9 -96.7 8.0 -100.8 Q8.0 -106.45 5.45 -101.25 4.3 -98.95 3.7 -97.1 L2.7 -100.1 2.25 -101.3 1.65 -102.95 1.3 -104.0 2.0 -104.0 2.35 -104.05 4.2 -104.45 5.55 -104.8 6.1 -104.95 6.7 -105.1 7.55 -105.25 13.1 -105.75 15.1 -105.45 15.55 -105.1 16.15 -105.2 M22.7 -82.55 L22.75 -82.4 22.85 -81.65 22.7 -82.55 M18.55 -49.45 L21.1 -49.75 Q22.85 -49.75 23.75 -48.0 L24.1 -47.25 24.05 -46.95 24.35 -45.15 Q24.15 -43.9 23.1 -41.95 L22.35 -40.65 19.35 -36.35 17.9 -34.35 17.35 -33.6 Q17.2 -35.6 16.2 -36.0 17.0 -37.4 17.0 -38.95 17.0 -40.2 15.4 -40.65 13.65 -41.15 11.85 -39.75 11.15 -39.25 8.15 -38.0 L7.65 -37.85 7.6 -37.8 Q7.05 -39.1 4.9 -36.75 L3.6 -36.25 Q2.65 -35.75 1.2 -35.2 L1.8 -32.0 1.9 -31.6 Q1.6 -30.55 1.6 -29.5 1.3 -27.75 2.65 -27.75 4.2 -27.75 5.35 -29.05 L6.55 -29.5 Q9.65 -30.65 11.8 -31.95 L12.1 -31.1 Q12.8 -29.9 14.6 -29.75 L14.35 -29.25 Q14.25 -28.85 14.45 -28.5 14.8 -27.75 16.35 -27.75 16.75 -27.75 20.3 -29.1 L22.15 -29.75 25.5 -30.5 28.3 -30.0 27.9 -30.0 27.4 -29.65 27.35 -29.1 Q27.8 -27.15 28.4 -25.25 L28.75 -24.8 29.3 -24.7 29.75 -25.1 29.85 -25.65 28.8 -29.45 28.45 -29.95 29.75 -28.95 Q30.5 -28.05 30.5 -27.1 30.5 -24.8 27.75 -21.45 L27.15 -20.7 Q25.0 -17.85 25.0 -16.25 25.0 -14.5 26.65 -13.7 27.45 -13.25 30.25 -12.65 L30.45 -12.6 Q32.3 -12.2 33.45 -11.45 L34.75 -8.7 35.15 -8.35 35.5 -8.3 35.5 -7.95 35.05 -6.25 35.0 -6.2 34.8 -6.1 32.9 -5.4 30.55 -4.6 Q29.95 -5.55 28.7 -5.7 26.65 -5.9 26.45 -3.4 L22.35 -2.5 Q21.65 -4.4 20.75 -5.15 L25.6 -6.25 Q27.85 -6.85 29.35 -7.95 30.9 -9.1 30.9 -10.25 31.05 -10.6 30.75 -10.95 30.25 -11.6 28.45 -11.65 28.2 -12.75 27.25 -12.75 26.3 -12.75 26.1 -11.6 L25.75 -11.6 23.5 -11.0 12.6 -11.05 Q17.25 -14.0 20.7 -17.6 24.65 -21.75 24.65 -24.6 24.65 -29.65 18.55 -26.3 13.45 -22.85 10.45 -21.25 L9.35 -26.25 Q6.45 -31.05 5.2 -23.6 L4.8 -18.7 2.75 -17.45 Q2.8 -16.25 3.35 -14.4 L4.5 -10.65 5.25 -8.55 5.8 -7.15 7.1 -4.15 10.6 -4.35 15.25 -4.0 16.45 -4.35 14.15 -2.45 13.1 -1.4 3.95 -1.65 3.55 -3.25 3.25 -4.75 3.05 -5.6 3.05 -5.75 2.55 -8.2 2.55 -8.25 2.45 -8.8 1.75 -12.7 1.3 -15.4 1.2 -16.15 0.8 -18.75 Q0.2 -23.5 -0.15 -28.2 L-0.5 -33.85 -0.5 -34.6 -0.55 -36.25 1.55 -38.95 Q3.75 -42.15 3.75 -42.75 3.75 -44.15 2.95 -44.15 L4.0 -44.6 7.3 -45.85 7.65 -46.0 8.9 -46.45 9.05 -46.55 9.4 -46.65 Q9.1 -45.65 9.1 -44.55 9.1 -43.8 9.3 -43.5 L10.6 -42.25 12.5 -42.15 Q13.7 -42.15 14.5 -42.8 15.3 -43.5 15.75 -43.5 L16.15 -42.25 Q16.5 -41.35 17.75 -41.15 L19.6 -41.15 22.0 -43.55 Q22.75 -44.65 22.75 -46.15 L22.5 -47.5 Q21.8 -48.8 19.25 -48.8 L18.65 -48.75 18.55 -49.45 M0.75 2.5 L-1.0 2.35 -1.05 2.35 -2.35 2.0 -2.5 1.9 -2.25 0.55 -2.1 -0.5 -1.65 -0.5 -1.5 -0.55 1.6 -1.9 2.85 -2.0 3.0 -1.35 3.1 -0.95 3.1 -0.9 3.2 -0.75 3.45 -0.6 3.7 -0.6 3.85 -0.65 3.9 -0.65 6.85 -0.45 4.0 0.6 3.8 0.65 0.55 2.1 0.0 2.45 0.75 2.5 M-3.7 -13.4 L-3.75 -13.55 Q-4.6 -20.1 -5.05 -26.45 L-2.5 -26.5 -1.05 -26.9 Q-0.65 -21.75 0.1 -16.6 L0.35 -15.05 0.25 -14.95 -0.5 -14.8 -1.05 -14.65 Q-2.65 -14.2 -3.55 -13.55 L-3.7 -13.4 M-5.3 -33.05 L-5.35 -33.95 -5.35 -34.0 Q-5.1 -38.15 -4.45 -42.2 L-3.9 -45.5 -2.8 -50.75 -2.5 -50.35 -2.5 -50.3 Q-1.75 -49.65 -0.75 -49.65 L0.1 -49.75 -0.75 -45.1 -1.15 -42.1 -1.2 -41.5 Q-3.5 -39.25 -3.5 -37.4 -3.65 -36.9 -3.45 -36.5 -3.15 -35.65 -1.55 -35.65 L-1.45 -33.3 -1.5 -34.2 -3.1 -33.8 -5.3 -33.05 M-1.9 -54.3 L-0.95 -57.4 0.8 -62.55 0.85 -62.6 1.1 -63.45 1.5 -64.8 1.55 -65.05 4.8 -65.75 5.1 -66.75 4.65 -65.3 3.9 -63.4 3.55 -62.3 Q1.85 -64.15 1.85 -58.55 L1.9 -57.2 1.85 -57.1 1.0 -53.85 Q0.25 -54.6 -0.75 -54.6 L-1.9 -54.3 M19.1 -71.5 Q19.1 -73.7 17.65 -73.7 16.15 -73.7 16.15 -71.6 L16.15 -70.65 Q16.35 -69.55 17.35 -69.55 18.05 -69.55 18.6 -70.25 19.1 -70.85 19.1 -71.5 M0.05 -43.5 L0.0 -43.05 1.35 -43.55 0.15 -42.7 -0.1 -42.5 0.05 -43.5" fill="#6e537b" fill-rule="evenodd" stroke="none"/>
    <path d="M-23.85 -104.3 L-21.4 -106.8 Q-23.05 -103.05 -23.45 -99.45 -24.15 -92.45 -20.05 -90.1 -16.15 -87.65 -9.8 -91.3 -6.0 -93.5 -2.7 -97.15 L-2.25 -95.55 Q-5.95 -91.6 -10.25 -89.25 L-10.3 -89.2 Q-17.1 -85.45 -21.5 -88.0 -25.8 -90.65 -25.2 -98.1 -24.95 -101.15 -23.85 -104.3 M-10.1 -121.75 L-6.4 -125.4 -6.15 -125.45 Q0.05 -128.5 5.05 -123.8 L5.3 -122.75 Q4.45 -124.1 3.1 -124.9 -0.85 -127.35 -7.15 -123.75 L-10.1 -121.75 M-1.3 -98.8 L-1.35 -99.0 Q-1.35 -99.65 -0.9 -100.1 L-0.9 -100.15 Q-0.4 -100.6 0.25 -100.6 0.9 -100.6 1.4 -100.15 L1.4 -100.1 Q1.85 -99.65 1.85 -99.0 L1.85 -98.8 -1.3 -98.8 M3.45 -74.8 L3.4 -75.0 Q3.4 -75.65 3.85 -76.1 L3.85 -76.15 Q4.35 -76.6 5.0 -76.6 5.65 -76.6 6.15 -76.15 L6.15 -76.1 6.6 -75.0 6.6 -74.8 3.45 -74.8 M-2.3 -51.9 L-2.35 -52.1 Q-2.35 -52.75 -1.9 -53.2 L-1.9 -53.25 Q-1.4 -53.7 -0.75 -53.7 -0.1 -53.7 0.4 -53.25 L0.4 -53.2 0.75 -52.75 0.85 -52.1 0.85 -51.9 -2.3 -51.9 M-1.8 -5.3 L-1.85 -5.5 Q-1.85 -6.15 -1.4 -6.6 L-1.4 -6.65 Q-0.9 -7.1 -0.25 -7.1 0.4 -7.1 0.9 -6.65 L0.9 -6.6 Q1.35 -6.15 1.35 -5.5 L1.35 -5.3 -1.8 -5.3 M-5.9 1.8 L-6.2 6.6 Q-6.2 8.05 -5.0 8.65 -2.9 9.8 3.5 9.8 L17.4 9.1 24.65 7.65 Q25.65 7.5 27.35 6.75 L26.7 8.7 Q25.0 13.6 21.45 18.1 14.4 27.05 4.55 27.05 -8.3 27.05 -14.1 21.2 -19.0 16.3 -20.1 6.2 L-19.75 3.15 -18.75 4.3 -18.75 4.25 Q-17.2 5.8 -15.9 5.45 L-15.0 5.15 Q-14.75 12.1 -11.4 15.5 -7.45 19.55 1.65 19.55 7.6 19.55 11.25 15.8 13.8 13.15 13.8 11.35 L13.75 10.85 Q13.6 10.55 12.8 10.2 L5.3 10.2 3.55 10.55 -2.75 10.1 -6.2 9.45 Q-7.1 9.05 -7.25 8.45 L-7.25 7.25 Q-7.0 5.55 -7.05 4.85 -7.15 3.65 -9.65 3.15 L-13.6 3.05 -13.25 1.55 -13.2 0.95 -5.9 1.8 M-4.8 -29.3 L-4.85 -29.5 Q-4.85 -30.15 -4.4 -30.6 L-4.4 -30.65 Q-3.9 -31.1 -3.25 -31.1 -2.6 -31.1 -2.1 -30.65 L-2.1 -30.6 Q-1.65 -30.15 -1.65 -29.5 L-1.65 -29.3 -4.8 -29.3 M-24.25 -5.0 L-24.25 -5.15 -24.2 -5.6 -24.15 -5.8 -24.0 -6.3 -22.95 -5.95 -22.7 -4.55 -24.25 -5.0 M-14.15 -7.05 L-12.7 -6.75 -11.15 -6.45 -7.3 -5.75 -6.8 0.25 -12.75 -0.45 -13.05 -1.2 -13.2 -1.4 -13.2 -1.8 -12.65 -1.8 Q-11.4 -1.8 -11.0 -2.8 -10.85 -3.2 -10.85 -3.9 -10.85 -4.45 -11.2 -4.85 -11.65 -5.35 -12.6 -5.65 L-13.05 -5.75 -13.85 -5.9 -14.15 -7.05 M-17.5 -7.75 L-17.3 -7.3 -19.25 -7.9 -19.25 -8.2 -17.5 -7.75 M-16.45 0.4 L-16.2 0.45 -16.6 2.05 -16.75 2.45 -16.85 2.25 Q-17.9 1.2 -18.45 -0.05 L-16.45 0.4" fill="#37545b" fill-rule="evenodd" stroke="none"/>
    <path d="M1.2 -87.7 L0.3 -91.5 -0.55 -95.05 -0.55 -95.1 -0.6 -95.2 2.9 -96.15 3.15 -95.45 3.15 -95.35 Q2.85 -94.1 2.85 -93.1 L2.9 -92.25 3.6 -91.4 4.2 -91.35 5.05 -88.1 3.0 -88.1 1.2 -87.7 M7.9 -96.7 L9.0 -97.1 10.05 -97.4 14.0 -97.2 Q12.0 -96.85 12.0 -95.15 11.8 -94.6 12.05 -94.1 12.3 -93.55 13.15 -93.3 L12.9 -92.75 12.4 -91.5 Q8.85 -93.65 8.85 -90.25 8.85 -89.55 9.85 -86.95 11.0 -83.85 12.25 -82.55 L14.15 -82.5 14.15 -82.45 Q14.5 -81.65 14.5 -79.95 L13.65 -77.6 13.25 -77.65 Q12.25 -77.65 12.25 -75.95 L12.5 -75.45 12.65 -75.25 10.85 -72.1 10.55 -71.75 10.5 -71.65 9.8 -70.05 Q9.05 -69.9 8.65 -68.45 L8.4 -68.15 9.2 -77.5 9.25 -79.0 9.25 -80.25 9.0 -83.65 8.65 -84.95 Q7.7 -87.85 7.25 -90.75 L6.65 -93.5 7.8 -96.2 7.9 -96.7 M2.8 -78.95 Q3.85 -79.8 5.1 -81.3 L6.25 -82.75 6.4 -82.05 6.5 -81.05 6.7 -78.55 6.7 -77.5 6.7 -76.8 Q6.0 -77.5 5.05 -77.5 L4.95 -77.5 Q4.0 -77.5 3.25 -76.75 L2.95 -76.45 2.9 -77.5 2.9 -78.0 2.8 -78.95 M-2.1 -0.5 L-2.1 -0.7 Q-1.95 -2.4 -2.15 -3.9 L-2.0 -3.75 -2.0 -3.7 Q-1.25 -3.05 -0.25 -3.05 0.75 -3.05 1.5 -3.7 L1.5 -3.75 2.2 -4.95 2.55 -3.25 2.85 -2.0 1.6 -1.9 -1.5 -0.55 -1.65 -0.5 -2.1 -0.5 M-2.6 -6.35 L-2.8 -7.35 -3.05 -8.85 -3.35 -10.8 -3.65 -12.85 -3.7 -13.4 -3.55 -13.55 Q-2.65 -14.2 -1.05 -14.65 L-0.5 -14.8 0.25 -14.95 0.35 -15.05 0.6 -13.35 Q0.95 -11.05 1.45 -8.75 L1.55 -8.05 1.75 -7.0 1.5 -7.25 Q0.75 -8.0 -0.25 -8.0 -1.25 -8.0 -2.0 -7.25 L-2.6 -6.35 M-5.05 -26.45 L-5.05 -26.5 -5.1 -27.9 -5.0 -27.75 -5.0 -27.7 Q-4.25 -27.05 -3.25 -27.05 -2.25 -27.05 -1.5 -27.7 L-1.5 -27.75 -1.15 -28.15 -1.05 -26.9 -2.5 -26.5 -5.05 -26.45 M-5.25 -30.95 L-5.3 -32.7 -5.3 -32.75 -5.3 -33.05 -3.1 -33.8 -1.5 -34.2 -1.45 -33.3 -1.3 -31.1 -1.5 -31.25 Q-2.25 -32.0 -3.25 -32.0 -4.25 -32.0 -5.0 -31.25 L-5.25 -30.95 M1.55 -65.05 Q2.65 -69.1 2.9 -73.0 L2.95 -73.6 3.25 -73.25 3.25 -73.2 Q4.0 -72.55 5.0 -72.55 L6.45 -72.95 Q6.05 -69.85 5.1 -66.75 L4.8 -65.75 1.55 -65.05 M7.6 -37.8 L7.65 -37.85 8.15 -38.0 Q11.15 -39.25 11.85 -39.75 13.65 -41.15 15.4 -40.65 17.0 -40.2 17.0 -38.95 17.0 -37.4 16.2 -36.0 L14.55 -35.85 Q11.75 -34.75 11.75 -32.6 L11.8 -31.95 Q9.65 -30.65 6.55 -29.5 L5.35 -29.05 Q6.25 -30.1 6.85 -32.0 7.75 -34.6 7.75 -36.55 L7.6 -37.8 M1.9 -31.6 L1.8 -32.0 1.2 -35.2 Q2.65 -35.75 3.6 -36.25 L4.9 -36.75 4.7 -36.55 Q2.5 -34.1 1.9 -31.6 M16.45 -4.35 L15.25 -4.0 10.6 -4.35 7.1 -4.15 5.8 -7.15 5.25 -8.55 4.5 -10.65 3.35 -14.4 Q2.8 -16.25 2.75 -17.45 L4.8 -18.7 4.5 -14.55 Q4.5 -11.2 4.75 -10.25 5.45 -7.3 8.25 -6.4 L10.0 -6.4 Q11.35 -7.65 11.7 -8.75 L11.9 -10.75 Q11.9 -14.05 11.0 -18.65 L10.45 -21.25 Q13.45 -22.85 18.55 -26.3 24.65 -29.65 24.65 -24.6 24.65 -21.75 20.7 -17.6 17.25 -14.0 12.6 -11.05 L23.5 -11.0 25.75 -11.6 26.1 -11.6 26.0 -10.75 26.0 -9.7 Q26.3 -8.75 27.6 -8.75 28.5 -8.75 28.5 -10.75 L28.45 -11.65 Q30.25 -11.6 30.75 -10.95 31.05 -10.6 30.9 -10.25 30.9 -9.1 29.35 -7.95 27.85 -6.85 25.6 -6.25 L20.75 -5.15 Q20.05 -5.7 19.25 -5.65 18.2 -5.6 16.45 -4.35 M16.0 -15.15 L15.75 -18.25 Q14.75 -19.6 13.9 -19.3 13.15 -19.05 13.15 -18.0 13.05 -17.05 13.2 -16.0 13.55 -13.9 14.9 -13.9 15.35 -13.9 15.7 -14.3 L16.0 -15.15" fill="#795c87" fill-rule="evenodd" stroke="none"/>
    <path d="M1.85 -98.8 Q1.8 -98.25 1.4 -97.85 0.9 -97.4 0.25 -97.4 -0.4 -97.4 -0.9 -97.85 -1.3 -98.25 -1.3 -98.8 L1.85 -98.8 M-2.25 3.7 L-1.15 3.85 -1.1 3.85 10.6 4.2 Q17.05 4.0 23.5 2.85 28.95 1.9 34.4 0.3 L39.8 -1.65 Q38.95 12.65 29.3 22.95 18.2 34.7 2.2 34.4 -13.85 34.05 -24.9 22.15 -27.85 18.95 -30.0 15.45 L-29.4 12.9 -28.5 10.3 -28.15 9.45 -28.15 9.5 -28.05 9.35 -26.55 12.3 -24.25 16.05 -23.65 16.9 -23.25 22.35 Q-23.15 22.95 -22.65 23.4 -22.2 23.85 -21.55 23.9 L-21.05 23.8 -20.95 23.75 -20.55 23.5 Q-20.2 23.05 -20.25 22.4 L-20.4 20.7 -16.1 24.85 -16.45 24.5 -14.2 25.85 Q-11.9 27.4 -11.25 27.6 L-7.8 28.45 Q-5.55 29.0 -4.35 29.55 L-0.6 29.6 2.15 30.05 5.45 30.3 Q22.1 30.3 30.1 13.25 32.45 8.25 33.75 2.85 L33.7 2.85 33.6 2.85 33.75 2.75 28.95 4.15 21.1 5.75 13.35 6.3 4.9 6.65 Q-0.65 6.65 -1.95 5.4 -2.25 5.15 -2.25 3.8 L-2.25 3.7 M6.6 -74.8 Q6.55 -74.25 6.15 -73.85 5.65 -73.4 5.0 -73.4 4.35 -73.4 3.85 -73.85 3.45 -74.25 3.45 -74.8 L6.6 -74.8 M0.85 -51.9 Q0.8 -51.35 0.4 -50.95 L0.3 -50.85 Q-0.15 -50.5 -0.75 -50.5 -1.4 -50.5 -1.9 -50.95 -2.3 -51.35 -2.3 -51.9 L0.85 -51.9 M1.35 -5.3 Q1.3 -4.75 0.9 -4.35 0.4 -3.9 -0.25 -3.9 -0.9 -3.9 -1.4 -4.35 -1.8 -4.75 -1.8 -5.3 L1.35 -5.3 M-34.5 -17.85 L-34.35 -17.65 Q-33.85 -15.8 -29.45 -13.8 L-30.1 -13.3 -31.35 -11.8 -32.0 -10.75 -32.85 -8.7 -33.15 -7.85 -33.5 -8.15 -34.65 -9.25 -35.65 -10.6 -35.7 -10.7 Q-35.4 -14.4 -34.5 -17.85 M-33.55 -6.3 Q-34.05 -4.1 -33.65 -2.5 L-33.65 -2.45 -33.6 -2.1 Q-33.3 -0.9 -32.65 -0.3 L-32.25 0.05 Q-31.45 0.7 -30.35 0.6 L-29.65 4.65 -30.7 7.4 -30.9 7.95 -30.95 7.95 -32.15 11.35 Q-35.75 3.55 -35.9 -5.7 L-35.9 -6.6 -35.9 -7.25 -35.85 -8.35 -34.35 -6.9 -33.55 -6.3 M-1.65 -29.3 Q-1.7 -28.75 -2.1 -28.35 -2.6 -27.9 -3.25 -27.9 -3.9 -27.9 -4.4 -28.35 -4.8 -28.75 -4.8 -29.3 L-1.65 -29.3 M-30.5 -2.6 L-30.7 -2.55 -30.7 -2.65 -30.8 -3.7 -30.7 -4.5 -30.6 -4.45 -30.55 -4.3 -30.45 -4.15 -30.5 -2.75 -30.5 -2.6 M-27.3 -11.35 L-27.3 -11.4 -27.25 -11.4 -27.05 -11.55 -26.85 -11.45 -26.9 -11.2 -27.3 -11.35 M-14.85 -8.9 L-15.0 -9.2 -13.35 -8.85 -14.85 -8.9" fill="#284046" fill-rule="evenodd" stroke="none"/>
    <path d="M-1.95 -94.4 L-1.2 -91.35 Q-3.15 -91.0 -4.8 -89.85 -6.65 -88.25 -7.75 -87.4 -9.7 -85.8 -11.75 -85.25 -16.1 -84.15 -17.65 -82.25 -18.95 -80.65 -19.2 -77.5 L-19.25 -76.05 Q-19.25 -74.15 -18.0 -73.1 -15.7 -71.2 -9.45 -71.1 L-6.9 -71.1 -6.9 -71.25 -1.95 -71.6 1.35 -72.45 Q1.05 -68.85 0.05 -65.2 L-0.5 -63.45 Q-24.65 -63.95 -24.65 -74.5 L-24.2 -77.5 Q-23.45 -80.95 -21.15 -86.7 L-21.6 -86.95 Q-16.9 -84.45 -9.8 -88.35 -5.6 -90.6 -1.95 -94.4 M0.4 -84.15 L0.75 -82.55 1.35 -78.15 1.4 -78.0 -4.55 -78.0 -4.95 -78.05 -9.2 -78.05 Q-9.75 -78.1 -9.9 -78.3 L-10.05 -78.6 Q-5.95 -80.0 -1.75 -82.65 L-0.95 -83.2 0.4 -84.15 M-5.4 -45.7 L-6.0 -42.0 -9.4 -41.4 Q-14.3 -39.95 -14.85 -36.35 L-16.3 -29.9 -16.35 -29.55 -16.05 -28.8 Q-15.45 -28.05 -14.15 -28.05 -13.5 -28.05 -12.4 -28.8 -11.3 -29.55 -9.2 -29.55 L-6.7 -29.05 -6.55 -26.4 -5.3 -13.9 Q-11.3 -15.15 -14.65 -16.7 -19.65 -19.05 -20.5 -22.85 L-20.7 -24.6 Q-20.7 -26.8 -20.0 -30.0 L-18.6 -35.3 -17.9 -41.1 -17.8 -41.5 Q-17.45 -42.85 -16.9 -43.8 -15.65 -46.1 -13.45 -46.2 L-13.3 -46.2 -11.85 -46.05 -6.65 -45.95 -5.4 -45.7" fill="#494844" fill-rule="evenodd" stroke="none"/>
    <path d="M-1.2 -91.35 L-0.2 -87.15 0.4 -84.15 -0.95 -83.2 -1.75 -82.65 Q-5.95 -80.0 -10.05 -78.6 L-9.9 -78.3 Q-9.75 -78.1 -9.2 -78.05 L-4.95 -78.05 -4.55 -78.0 1.4 -78.0 1.4 -77.5 Q1.55 -75.0 1.35 -72.45 L-1.95 -71.6 -6.9 -71.25 -6.9 -71.1 -9.45 -71.1 Q-15.7 -71.2 -18.0 -73.1 -19.25 -74.15 -19.25 -76.05 L-19.2 -77.5 Q-18.95 -80.65 -17.65 -82.25 -16.1 -84.15 -11.75 -85.25 -9.7 -85.8 -7.75 -87.4 -6.65 -88.25 -4.8 -89.85 -3.15 -91.0 -1.2 -91.35 M-6.0 -42.0 L-6.85 -34.05 -6.85 -34.0 -6.8 -32.7 -6.8 -32.65 -6.7 -29.05 -9.2 -29.55 Q-11.3 -29.55 -12.4 -28.8 -13.5 -28.05 -14.15 -28.05 -15.45 -28.05 -16.05 -28.8 L-16.35 -29.55 -16.3 -29.9 -14.85 -36.35 Q-14.3 -39.95 -9.4 -41.4 L-6.0 -42.0 M-24.85 -7.1 L-25.2 -6.05 -26.1 -4.05 -26.9 -2.75 -26.95 -2.7 Q-28.0 -1.25 -29.9 -0.55 L-30.4 -0.4 Q-31.2 -0.35 -31.75 -0.75 L-32.2 -1.25 Q-32.55 -1.7 -32.7 -2.55 L-32.8 -3.75 -32.7 -5.3 -32.65 -5.65 -32.25 -7.2 -31.9 -8.25 -31.15 -10.0 -30.3 -11.4 -30.15 -11.6 -29.65 -12.2 Q-29.15 -12.75 -28.5 -13.1 L-28.5 -13.15 -28.2 -13.3 -27.35 -13.75 -26.55 -13.95 -26.65 -13.85 Q-26.8 -13.45 -27.25 -12.95 L-27.4 -12.8 -27.4 -12.75 -27.8 -12.3 -27.85 -12.25 -27.9 -12.25 -28.55 -11.75 -28.9 -11.4 Q-30.15 -10.15 -30.95 -7.8 L-31.1 -7.5 -31.35 -6.6 -31.7 -5.05 -31.75 -4.35 -31.7 -2.6 -31.65 -2.45 -31.2 -1.5 Q-30.95 -1.35 -30.45 -1.5 L-30.35 -1.55 Q-28.8 -2.1 -27.9 -3.15 L-27.8 -3.35 -27.1 -4.45 -26.15 -6.55 -25.4 -8.55 -24.95 -7.45 -24.85 -7.1 M-24.8 -12.2 L-24.8 -12.3 -24.75 -12.8 -24.4 -13.5 -24.4 -13.55 -24.4 -13.5 -24.35 -13.5 -24.25 -13.6 -23.45 -13.8 -23.35 -13.8 -23.4 -13.75 -23.65 -13.3 -24.05 -11.8 -24.05 -11.65 -24.55 -11.95 -24.6 -12.0 -24.8 -12.2 M-22.9 -13.55 L-22.85 -13.5 -22.65 -13.4 -22.6 -13.3 -22.55 -13.2 -22.35 -12.9 -22.15 -12.3 -22.3 -12.15 -22.6 -11.7 -22.9 -11.5 -23.25 -11.4 -23.4 -12.55 -23.2 -13.15 -23.05 -13.4 -22.9 -13.55 M-20.25 -11.85 L-20.25 -11.9 -20.2 -11.8 -20.25 -11.85 M-19.2 -11.3 L-19.45 -11.8 -19.5 -11.95 -19.95 -12.75 Q-19.25 -12.55 -18.55 -11.95 L-18.05 -11.5 -17.0 -10.45 -16.8 -10.2 -16.3 -9.55 -16.25 -9.5 -15.95 -8.95 -15.2 -7.25 -14.85 -6.1 -14.35 -3.35 -14.2 -1.85 -14.2 -1.4 -14.15 -0.7 -14.2 0.8 Q-14.35 2.15 -14.75 3.1 L-14.8 3.15 -15.05 3.65 -15.4 4.05 -16.2 4.5 Q-17.05 4.6 -18.1 3.6 -19.45 2.3 -20.2 0.7 L-20.45 0.1 -20.5 -0.05 -20.7 -0.65 -21.25 -2.35 -21.75 -4.55 -22.0 -6.3 -21.55 -7.35 -21.2 -7.7 -21.1 -7.0 -20.75 -4.6 -20.6 -3.8 -20.15 -2.05 -19.6 -0.35 -19.55 -0.25 Q-18.9 1.55 -17.45 2.9 L-17.45 2.95 Q-16.9 3.45 -16.45 3.45 L-15.7 2.6 -15.2 0.65 -15.15 -0.35 -15.15 -0.9 -15.2 -2.0 -15.35 -3.35 -15.35 -3.4 -15.35 -3.55 Q-15.55 -5.0 -15.9 -6.25 L-16.35 -7.5 -16.75 -8.4 -17.15 -9.05 -17.55 -9.65 -17.6 -9.75 -17.7 -9.9 -18.5 -10.7 -19.2 -11.3 M-28.4 4.25 L-27.4 4.4 Q-27.95 6.25 -28.65 7.9 L-29.1 8.95 -29.05 8.95 -30.45 12.75 -30.75 14.1 -30.9 14.8 -31.15 16.45 -31.2 18.55 -31.3 18.85 -31.65 18.95 -32.0 18.8 -32.15 18.6 -32.2 18.45 Q-32.3 16.8 -32.0 15.0 L-31.5 12.7 -31.5 12.6 Q-30.95 10.65 -30.0 8.45 L-30.0 8.4 -29.15 6.4 -28.4 4.25 M-22.05 5.2 L-21.05 5.35 -21.55 8.75 -21.75 14.05 -21.5 19.65 -21.25 22.4 -21.35 22.7 -21.7 22.85 -22.05 22.7 -22.25 22.35 -22.55 18.35 -22.75 13.9 -22.55 8.45 -22.05 5.2" fill="#585752" fill-rule="evenodd" stroke="none"/>
    <path d="M-4.3 -7.45 L-3.65 -3.95 -3.7 -3.95 Q-3.45 -2.5 -3.6 -0.8 L-3.75 0.45 -4.2 0.45 -6.55 0.25 -6.8 0.25 -7.3 -5.75 -11.15 -6.45 -12.7 -6.75 -14.15 -7.05 -14.85 -8.9 -13.35 -8.85 Q-8.95 -7.9 -4.3 -7.45 M-4.1 1.95 L-4.1 2.2 -3.95 2.45 Q-3.4 3.4 -2.25 3.7 L-2.25 3.8 Q-2.25 5.15 -1.95 5.4 -0.65 6.65 4.9 6.65 L13.35 6.3 21.1 5.75 28.95 4.15 33.75 2.75 33.6 2.85 33.7 2.85 33.75 2.85 Q32.45 8.25 30.1 13.25 22.1 30.3 5.45 30.3 L2.15 30.05 -0.6 29.6 -4.35 29.55 Q-5.55 29.0 -7.8 28.45 L-11.25 27.6 Q-11.9 27.4 -14.2 25.85 L-16.45 24.5 -16.1 24.85 -20.4 20.7 -20.7 14.2 -20.55 8.95 -20.1 6.2 Q-19.0 16.3 -14.1 21.2 -8.3 27.05 4.55 27.05 14.4 27.05 21.45 18.1 25.0 13.6 26.7 8.7 L27.35 6.75 Q25.65 7.5 24.65 7.65 L17.4 9.1 3.5 9.8 Q-2.9 9.8 -5.0 8.65 -6.2 8.05 -6.2 6.6 L-5.9 1.8 -4.85 1.9 -4.1 1.95 M-23.65 16.9 L-24.25 16.05 -26.55 12.3 -28.05 9.35 -27.9 8.95 Q-26.35 5.15 -25.4 0.9 L-24.8 -1.95 -22.4 -1.15 -22.6 0.7 -22.7 1.85 -23.35 7.0 -23.5 8.1 -23.55 8.25 -23.75 13.75 -23.65 16.9 M-30.35 0.6 L-29.5 0.4 -29.45 0.4 -28.3 -0.1 -29.65 4.65 -30.35 0.6 M-30.45 -4.15 L-29.55 -3.55 -29.25 -3.45 -29.15 -3.45 Q-29.75 -2.95 -30.5 -2.6 L-30.5 -2.75 -30.45 -4.15 M-26.9 -11.2 L-26.9 -11.1 -26.95 -10.2 -27.7 -10.4 -27.75 -10.4 -28.3 -10.5 -27.6 -11.1 -27.5 -11.2 -27.3 -11.35 -26.9 -11.2 M-29.05 -6.45 L-29.1 -6.45 -30.2 -6.35 -30.35 -6.25 -30.0 -7.35 -29.4 -8.75 -29.2 -8.25 -28.5 -7.65 -28.2 -7.5 -27.2 -7.2 -27.25 -6.7 -27.55 -5.95 -29.05 -6.45 M-24.15 -5.8 L-24.2 -5.6 -24.25 -5.15 -24.25 -5.0 -24.35 -5.05 -24.3 -5.55 -24.25 -5.6 -24.15 -5.8 M-19.25 -8.2 L-19.3 -9.3 -18.2 -8.95 -17.5 -7.75 -19.25 -8.2" fill="#2f4a50" fill-rule="evenodd" stroke="none"/>
    <path d="M-13.6 3.05 L-9.65 3.15 Q-7.15 3.65 -7.05 4.85 -7.0 5.55 -7.25 7.25 L-7.25 8.45 Q-7.1 9.05 -6.2 9.45 L-2.75 10.1 3.55 10.55 5.3 10.2 12.8 10.2 Q13.6 10.55 13.75 10.85 L13.8 11.35 Q13.8 13.15 11.25 15.8 7.6 19.55 1.65 19.55 -7.45 19.55 -11.4 15.5 -14.75 12.1 -15.0 5.15 L-14.25 4.35 -13.85 3.7 -13.6 3.05 M-13.85 -5.9 L-13.05 -5.75 -12.6 -5.65 Q-11.65 -5.35 -11.2 -4.85 -10.85 -4.45 -10.85 -3.9 -10.85 -3.2 -11.0 -2.8 -11.4 -1.8 -12.65 -1.8 L-13.2 -1.8 -13.35 -3.3 -13.35 -3.35 -13.85 -5.9 M-16.25 -2.65 L-19.3 -3.55 -19.25 -4.85 -17.2 -4.2 -16.45 -4.2 -16.3 -3.4 -16.35 -3.4 -16.25 -2.65" fill="#41636b" fill-rule="evenodd" stroke="none"/>
    <path d="M-25.5 -102.5 L-25.45 -102.55 -26.1 -98.9 -26.2 -98.2 -26.25 -97.05 Q-28.8 -92.6 -29.9 -88.35 -31.55 -82.4 -31.9 -77.5 L-32.0 -74.75 Q-32.0 -70.7 -29.9 -67.65 L-25.5 -62.7 -25.1 -62.25 -23.4 -61.1 Q-21.75 -60.35 -18.7 -59.7 L-13.7 -58.8 -12.25 -58.6 -4.35 -57.75 -2.5 -57.55 -4.2 -51.4 -6.65 -51.6 -9.75 -51.9 -12.1 -52.0 -13.55 -52.15 -14.7 -52.35 Q-20.9 -52.35 -23.9 -39.85 L-24.25 -38.15 -24.8 -35.5 Q-25.5 -31.4 -25.7 -27.2 -25.7 -21.3 -23.75 -18.85 L-22.35 -17.4 Q-18.3 -14.0 -8.45 -12.0 L-4.95 -11.2 -4.6 -9.0 Q-10.5 -9.6 -16.1 -11.0 L-16.5 -11.4 -16.65 -11.5 -18.35 -13.05 Q-19.6 -13.95 -20.8 -13.9 L-20.85 -13.9 -21.85 -13.8 Q-22.5 -14.65 -23.45 -14.8 L-24.4 -14.75 -25.95 -15.15 -27.75 -14.75 Q-29.05 -15.25 -30.0 -15.7 -32.65 -17.05 -32.95 -18.2 L-33.1 -18.55 Q-33.6 -19.1 -33.85 -20.2 -34.2 -21.5 -34.25 -23.55 -34.45 -30.95 -31.0 -47.95 L-31.0 -48.0 Q-30.45 -50.4 -30.75 -52.9 -30.95 -54.5 -31.45 -56.15 -32.1 -58.1 -33.2 -60.15 L-34.55 -62.35 -35.45 -63.65 Q-40.0 -69.85 -39.05 -77.5 L-38.2 -81.45 -38.25 -81.4 Q-36.4 -86.7 -33.75 -91.9 L-29.5 -97.7 -25.5 -102.5 M-24.85 -7.1 L-24.95 -7.45 -25.4 -8.55 -25.35 -8.7 -24.85 -10.05 -23.95 -9.5 -24.3 -8.55 -24.85 -7.1 M-27.8 -12.3 L-27.4 -12.75 -27.4 -12.8 -27.25 -12.95 Q-26.8 -13.45 -26.65 -13.85 L-26.55 -13.95 -26.55 -14.0 -26.5 -14.0 -26.45 -14.05 -25.95 -14.05 -25.85 -14.05 -25.35 -14.05 -25.45 -13.9 -25.75 -13.05 -25.9 -13.05 -26.45 -12.95 -26.9 -12.8 Q-27.2 -12.7 -27.45 -12.55 L-27.8 -12.3 M-23.35 -13.8 L-22.9 -13.55 -23.05 -13.4 -23.2 -13.15 -23.4 -12.55 -23.25 -11.4 -22.9 -11.5 -22.6 -11.7 -22.3 -12.15 -22.15 -12.3 -22.15 -11.9 -22.2 -11.25 -22.55 -10.65 -22.6 -10.7 -22.8 -10.5 -23.45 -10.35 -23.6 -10.4 -24.2 -10.7 -24.4 -10.95 -24.45 -11.05 -24.8 -12.05 -24.8 -12.2 -24.6 -12.0 -24.55 -11.95 -24.05 -11.65 -24.05 -11.8 -23.65 -13.3 -23.4 -13.75 -23.35 -13.8 M-20.25 -11.85 L-20.65 -11.9 -21.15 -11.8 -21.2 -12.5 -21.3 -12.85 -20.75 -12.9 -20.25 -12.85 -19.95 -12.75 -19.5 -11.95 -19.45 -11.8 -19.2 -11.3 -19.15 -11.25 -19.7 -11.6 -20.2 -11.8 -20.25 -11.9 -20.25 -11.85 M-22.0 -6.3 L-22.3 -8.25 -22.4 -9.05 -22.45 -9.45 -21.85 -9.85 -21.8 -9.9 -21.8 -9.95 -21.55 -10.2 -21.5 -9.75 -21.35 -8.75 -21.25 -8.05 -21.2 -7.7 -21.55 -7.35 -22.0 -6.3 M-23.25 -8.05 L-23.1 -7.0 -23.7 -7.2 -23.35 -8.1 -23.25 -8.05 M-20.35 -10.65 L-20.3 -10.15 -20.25 -9.5 -20.25 -8.45 -20.25 -7.85 -20.35 -8.45 -20.45 -9.55 -20.5 -9.75 -20.5 -9.8 -20.55 -10.15 -20.55 -10.75 -20.55 -10.85 -20.55 -10.9 -20.5 -10.85 -20.35 -10.8 -20.35 -10.65 M-25.85 -12.0 L-25.75 -12.0 -25.55 -11.1 -25.6 -10.9 -25.6 -10.8 -25.9 -10.15 -25.9 -10.9 -25.9 -10.95 -25.85 -12.0 M-28.05 -8.5 L-28.15 -8.5 -28.4 -8.75 -28.5 -9.1 -28.3 -9.45 -27.9 -9.45 -27.0 -9.2 -27.1 -8.2 -28.05 -8.5 M-28.4 4.25 Q-27.65 1.75 -27.05 -0.95 L-26.1 -2.05 -26.15 -2.0 -25.9 -2.35 -25.75 -2.6 -25.8 -2.3 Q-26.4 1.2 -27.4 4.4 L-28.4 4.25 M-29.4 -4.55 L-29.75 -4.8 -29.85 -5.15 -29.8 -5.25 -29.7 -5.45 -29.65 -5.5 -29.45 -5.55 -29.25 -5.5 -27.95 -5.1 -28.05 -4.9 -28.5 -4.25 -28.55 -4.25 -29.4 -4.55 M-24.65 -3.1 L-24.55 -3.45 -24.5 -4.05 -22.5 -3.45 -22.35 -2.75 -22.35 -2.7 -22.35 -2.45 -24.65 -3.1 M-17.05 -5.2 L-19.25 -5.85 -19.25 -6.7 -19.25 -6.9 -16.9 -6.2 -16.65 -5.25 -16.7 -5.25 -17.05 -5.2 M-18.95 -1.45 L-19.05 -1.75 -19.3 -2.55 -16.2 -1.6 -16.15 -1.1 -16.15 -0.55 -18.95 -1.45 M-22.05 5.2 L-22.0 4.55 -21.6 0.95 -21.55 0.5 -21.5 -0.05 -21.45 0.15 -21.4 0.2 -21.3 0.5 -21.05 1.05 -20.65 1.85 -20.8 3.55 -21.05 5.35 -22.05 5.2" fill="#2e2d2b" fill-rule="evenodd" stroke="none"/>
    <path d="M-0.5 -63.45 L-0.6 -63.05 -2.5 -57.55 -4.35 -57.75 -12.25 -58.6 -13.7 -58.8 -18.7 -59.7 Q-21.75 -60.35 -23.4 -61.1 L-25.1 -62.25 -25.5 -62.7 -29.9 -67.65 Q-32.0 -70.7 -32.0 -74.75 L-31.9 -77.5 Q-31.55 -82.4 -29.9 -88.35 -28.8 -92.6 -26.25 -97.05 -26.5 -90.45 -22.7 -87.65 L-22.3 -87.35 -22.0 -87.15 -21.6 -86.95 -21.15 -86.7 Q-23.45 -80.95 -24.2 -77.5 L-24.65 -74.5 Q-24.65 -63.95 -0.5 -63.45 M-4.2 -51.4 L-5.4 -45.7 -6.65 -45.95 -11.85 -46.05 -13.3 -46.2 -13.45 -46.2 Q-15.65 -46.1 -16.9 -43.8 -17.45 -42.85 -17.8 -41.5 L-17.9 -41.1 -18.6 -35.3 -20.0 -30.0 Q-20.7 -26.8 -20.7 -24.6 L-20.5 -22.85 Q-19.65 -19.05 -14.65 -16.7 -11.3 -15.15 -5.3 -13.9 L-5.15 -12.65 -4.95 -11.2 -8.45 -12.0 Q-18.3 -14.0 -22.35 -17.4 L-23.75 -18.85 Q-25.7 -21.3 -25.7 -27.2 -25.5 -31.4 -24.8 -35.5 L-24.25 -38.15 -23.9 -39.85 Q-20.9 -52.35 -14.7 -52.35 L-13.55 -52.15 -12.1 -52.0 -9.75 -51.9 -6.65 -51.6 -4.2 -51.4" fill="#3d3c39" fill-rule="evenodd" stroke="none"/>
    <path d="M-30.2 17.85 L-30.2 18.6 Q-30.15 19.25 -30.55 19.65 L-30.8 19.85 -31.45 20.0 -31.6 20.0 -32.45 19.65 -32.7 19.45 Q-33.15 18.95 -33.2 18.35 L-33.2 16.8 -32.75 13.55 -32.5 12.45 -32.15 11.35 -30.95 7.95 -30.9 7.95 -30.7 7.4 -29.65 4.65 -28.3 -0.1 -29.45 0.4 -29.5 0.4 -30.35 0.6 Q-31.45 0.7 -32.25 0.05 L-32.65 -0.3 Q-33.3 -0.9 -33.6 -2.1 L-33.65 -2.45 -33.65 -2.5 Q-34.05 -4.1 -33.55 -6.3 L-33.15 -7.85 -32.85 -8.7 -32.0 -10.75 -31.35 -11.8 -30.1 -13.3 -29.45 -13.8 Q-33.85 -15.8 -34.35 -17.65 L-34.5 -17.85 Q-35.1 -18.75 -35.4 -20.3 -36.25 -25.0 -34.65 -35.9 L-33.3 -44.0 -32.45 -48.3 Q-31.55 -52.6 -33.45 -57.2 L-34.7 -59.8 -36.65 -62.75 Q-41.55 -69.35 -40.55 -77.5 -40.35 -79.6 -39.65 -81.85 L-39.65 -81.9 -39.55 -82.2 Q-36.9 -87.25 -33.75 -91.9 -36.4 -86.7 -38.25 -81.4 L-38.2 -81.45 -39.05 -77.5 Q-40.0 -69.85 -35.45 -63.65 L-34.55 -62.35 -33.2 -60.15 Q-32.1 -58.1 -31.45 -56.15 -30.95 -54.5 -30.75 -52.9 -30.45 -50.4 -31.0 -48.0 L-31.0 -47.95 Q-34.45 -30.95 -34.25 -23.55 -34.2 -21.5 -33.85 -20.2 -33.6 -19.1 -33.1 -18.55 L-32.95 -18.2 Q-32.65 -17.05 -30.0 -15.7 -29.05 -15.25 -27.75 -14.75 L-25.95 -15.15 -24.4 -14.75 -23.45 -14.8 Q-22.5 -14.65 -21.85 -13.8 L-20.85 -13.9 -20.8 -13.9 Q-19.6 -13.95 -18.35 -13.05 L-16.65 -11.5 -16.5 -11.4 -16.1 -11.0 Q-10.5 -9.6 -4.6 -9.0 L-4.3 -7.45 Q-8.95 -7.9 -13.35 -8.85 L-15.0 -9.2 -14.85 -8.9 -14.15 -7.05 -13.85 -5.9 -13.35 -3.35 -13.35 -3.3 -13.2 -1.8 -13.2 -1.4 -13.05 -1.2 -12.75 -0.45 -12.75 -0.3 -12.75 -0.05 -12.8 0.2 -13.2 0.75 -13.2 0.95 -13.25 1.55 -13.6 3.05 -13.85 3.7 -14.25 4.35 -15.0 5.15 -15.9 5.45 Q-17.2 5.8 -18.75 4.25 L-18.75 4.3 -19.75 3.15 -20.1 6.2 -20.55 8.95 -20.7 14.2 -20.4 20.7 -20.25 22.4 Q-20.2 23.05 -20.55 23.5 L-20.95 23.75 -21.05 23.8 -21.55 23.9 Q-22.2 23.85 -22.65 23.4 -23.15 22.95 -23.25 22.35 L-23.65 16.9 -23.75 13.75 -23.55 8.25 -23.5 8.1 -23.35 7.0 -22.7 1.85 -22.6 0.7 -22.4 -1.15 -22.4 -1.45 -24.8 -2.15 -24.8 -1.95 -25.4 0.9 Q-26.35 5.15 -27.9 8.95 L-28.05 9.35 -28.15 9.5 -28.15 9.45 -28.5 10.3 -29.4 12.9 -30.0 15.45 -30.2 17.85 M-26.55 -13.95 L-27.35 -13.75 -28.2 -13.3 -28.5 -13.15 -28.5 -13.1 Q-29.15 -12.75 -29.65 -12.2 L-30.15 -11.6 -30.3 -11.4 -31.15 -10.0 -31.9 -8.25 -32.25 -7.2 -32.65 -5.65 -32.7 -5.3 -32.8 -3.75 -32.7 -2.55 Q-32.55 -1.7 -32.2 -1.25 L-31.75 -0.75 Q-31.2 -0.35 -30.4 -0.4 L-29.9 -0.55 Q-28.0 -1.25 -26.95 -2.7 L-26.9 -2.75 -26.1 -4.05 -25.2 -6.05 -24.85 -7.1 -24.3 -8.55 -23.95 -9.5 -24.85 -10.05 -25.35 -8.7 -25.4 -8.55 -26.15 -6.55 -27.1 -4.45 -27.8 -3.35 -27.9 -3.15 Q-28.8 -2.1 -30.35 -1.55 L-30.45 -1.5 Q-30.95 -1.35 -31.2 -1.5 L-31.65 -2.45 -31.7 -2.6 -31.75 -4.35 -31.7 -5.05 -31.35 -6.6 -31.1 -7.5 -30.95 -7.8 Q-30.15 -10.15 -28.9 -11.4 L-28.55 -11.75 -27.9 -12.25 -27.85 -12.25 -27.8 -12.3 -27.45 -12.55 Q-27.2 -12.7 -26.9 -12.8 L-26.45 -12.95 -25.9 -13.05 -25.75 -13.05 -25.45 -13.9 -25.35 -14.05 -25.85 -14.05 -25.95 -14.05 -26.45 -14.05 -26.5 -14.0 -26.55 -14.0 -26.55 -13.95 M-23.35 -13.8 L-23.45 -13.8 -24.25 -13.6 -24.35 -13.5 -24.4 -13.5 -24.4 -13.55 -24.4 -13.5 -24.75 -12.8 -24.8 -12.3 -24.8 -12.2 -24.8 -12.05 -24.45 -11.05 -24.4 -10.95 -24.2 -10.7 -23.6 -10.4 -23.45 -10.35 -22.8 -10.5 -22.6 -10.7 -22.55 -10.65 -22.2 -11.25 -22.15 -11.9 -22.15 -12.3 -22.35 -12.9 -22.55 -13.2 -22.6 -13.3 -22.65 -13.4 -22.85 -13.5 -22.9 -13.55 -23.35 -13.8 M-19.95 -12.75 L-20.25 -12.85 -20.75 -12.9 -21.3 -12.85 -21.2 -12.5 -21.15 -11.8 -20.65 -11.9 -20.25 -11.85 -20.2 -11.8 -19.7 -11.6 -19.15 -11.25 -19.2 -11.3 -18.5 -10.7 -17.7 -9.9 -17.6 -9.75 -17.55 -9.65 -17.15 -9.05 -16.75 -8.4 -16.35 -7.5 -15.9 -6.25 Q-15.55 -5.0 -15.35 -3.55 L-15.35 -3.4 -15.35 -3.35 -15.2 -2.0 -15.15 -0.9 -15.15 -0.35 -15.2 0.65 -15.7 2.6 -16.45 3.45 Q-16.9 3.45 -17.45 2.95 L-17.45 2.9 Q-18.9 1.55 -19.55 -0.25 L-19.6 -0.35 -20.15 -2.05 -20.6 -3.8 -20.75 -4.6 -21.1 -7.0 -21.2 -7.7 -21.25 -8.05 -21.35 -8.75 -21.5 -9.75 -21.55 -10.2 -21.8 -9.95 -21.8 -9.9 -21.85 -9.85 -22.45 -9.45 -22.4 -9.05 -22.3 -8.25 -22.0 -6.3 -21.75 -4.55 -21.25 -2.35 -20.7 -0.65 -20.5 -0.05 -20.45 0.1 -20.2 0.7 Q-19.45 2.3 -18.1 3.6 -17.05 4.6 -16.2 4.5 L-15.4 4.05 -15.05 3.65 -14.8 3.15 -14.75 3.1 Q-14.35 2.15 -14.2 0.8 L-14.15 -0.7 -14.2 -1.4 -14.2 -1.85 -14.35 -3.35 -14.85 -6.1 -15.2 -7.25 -15.95 -8.95 -16.25 -9.5 -16.3 -9.55 -16.8 -10.2 -17.0 -10.45 -18.05 -11.5 -18.55 -11.95 Q-19.25 -12.55 -19.95 -12.75 M-30.7 -4.5 L-30.8 -3.7 -30.7 -2.65 -30.7 -2.55 -30.5 -2.6 Q-29.75 -2.95 -29.15 -3.45 L-29.25 -3.45 -29.55 -3.55 -30.45 -4.15 -30.55 -4.3 -30.6 -4.45 -30.7 -4.65 -30.7 -4.5 M-20.35 -10.65 L-20.35 -10.8 -20.5 -10.85 -20.55 -10.9 -20.55 -10.85 -20.55 -10.75 -20.55 -10.15 -20.5 -9.8 -20.5 -9.75 -20.45 -9.55 -20.35 -8.45 -20.25 -7.85 -20.25 -8.45 -20.25 -9.5 -20.3 -10.15 -20.35 -10.65 M-23.25 -8.05 L-23.35 -8.1 -23.7 -7.2 -23.1 -7.0 -23.25 -8.05 M-25.85 -12.0 L-25.9 -10.95 -25.9 -10.9 -25.9 -10.15 -25.6 -10.8 -25.6 -10.9 -25.55 -11.1 -25.75 -12.0 -25.85 -12.0 M-27.3 -11.35 L-27.5 -11.2 -27.6 -11.1 -28.3 -10.5 -27.75 -10.4 -27.7 -10.4 -26.95 -10.2 -26.9 -11.1 -26.9 -11.2 -26.85 -11.45 -27.05 -11.55 -27.25 -11.4 -27.3 -11.4 -27.3 -11.35 M-28.05 -8.5 L-27.1 -8.2 -27.0 -9.2 -27.9 -9.45 -28.3 -9.45 -28.5 -9.1 -28.4 -8.75 -28.15 -8.5 -28.05 -8.5 M-29.05 -6.45 L-27.55 -5.95 -27.25 -6.7 -27.2 -7.2 -28.2 -7.5 -28.5 -7.65 -29.2 -8.25 -29.4 -8.75 -30.0 -7.35 -30.35 -6.25 -30.2 -6.35 -29.1 -6.45 -29.05 -6.45 M-29.4 -4.55 L-28.55 -4.25 -28.5 -4.25 -28.05 -4.9 -27.95 -5.1 -29.25 -5.5 -29.45 -5.55 -29.65 -5.5 -29.7 -5.45 -29.8 -5.25 -29.85 -5.15 -29.75 -4.8 -29.4 -4.55 M-27.4 4.4 Q-26.4 1.2 -25.8 -2.3 L-25.75 -2.6 -25.9 -2.35 -26.15 -2.0 -26.1 -2.05 -27.05 -0.95 Q-27.65 1.75 -28.4 4.25 L-29.15 6.4 -30.0 8.4 -30.0 8.45 Q-30.95 10.65 -31.5 12.6 L-31.5 12.7 -32.0 15.0 Q-32.3 16.8 -32.2 18.45 L-32.15 18.6 -32.0 18.8 -31.65 18.95 -31.3 18.85 -31.2 18.55 -31.15 16.45 -30.9 14.8 -30.75 14.1 -30.45 12.75 -29.05 8.95 -29.1 8.95 -28.65 7.9 Q-27.95 6.25 -27.4 4.4 M-24.25 -5.0 L-22.7 -4.55 -22.95 -5.95 -24.0 -6.3 -24.15 -5.8 -24.25 -5.6 -24.3 -5.55 -24.35 -5.05 -24.25 -5.0 M-24.65 -3.1 L-22.35 -2.45 -22.35 -2.7 -22.35 -2.75 -22.5 -3.45 -24.5 -4.05 -24.55 -3.45 -24.65 -3.1 M-17.05 -5.2 L-16.7 -5.25 -16.65 -5.25 -16.9 -6.2 -19.25 -6.9 -19.25 -6.7 -19.25 -5.85 -17.05 -5.2 M-19.25 -8.2 L-19.25 -7.9 -17.3 -7.3 -17.5 -7.75 -18.2 -8.95 -19.3 -9.3 -19.25 -8.2 M-16.25 -2.65 L-16.35 -3.4 -16.3 -3.4 -16.45 -4.2 -17.2 -4.2 -19.25 -4.85 -19.3 -3.55 -16.25 -2.65 M-16.45 0.4 L-18.55 -0.25 -18.45 -0.05 Q-17.9 1.2 -16.85 2.25 L-16.75 2.45 -16.6 2.05 -16.2 0.45 -16.45 0.4 M-18.95 -1.45 L-16.15 -0.55 -16.15 -1.1 -16.2 -1.6 -19.3 -2.55 -19.05 -1.75 -18.95 -1.45 M-21.05 5.35 L-20.8 3.55 -20.65 1.85 -21.05 1.05 -21.3 0.5 -21.4 0.2 -21.45 0.15 -21.5 -0.05 -21.55 0.5 -21.6 0.95 -22.0 4.55 -22.05 5.2 -22.55 8.45 -22.75 13.9 -22.55 18.35 -22.25 22.35 -22.05 22.7 -21.7 22.85 -21.35 22.7 -21.25 22.4 -21.5 19.65 -21.75 14.05 -21.55 8.75 -21.05 5.35" fill="#1f1e1d" fill-rule="evenodd" stroke="none"/>
    <path d="M12.4 -91.5 L10.9 -88.25 10.9 -86.25 11.2 -84.0 Q13.4 -84.15 14.15 -82.5 L12.25 -82.55 Q11.0 -83.85 9.85 -86.95 8.85 -89.55 8.85 -90.25 8.85 -93.65 12.4 -91.5 M12.65 -75.25 L12.5 -75.45 12.25 -75.95 Q12.25 -77.65 13.25 -77.65 L13.65 -77.6 13.6 -77.5 12.65 -75.25 M10.45 -21.25 L11.0 -18.65 Q11.9 -14.05 11.9 -10.75 L11.7 -8.75 Q11.35 -7.65 10.0 -6.4 L8.25 -6.4 Q5.45 -7.3 4.75 -10.25 4.5 -11.2 4.5 -14.55 L4.8 -18.7 8.1 -20.15 10.45 -21.25" fill="#afd465" fill-rule="evenodd" stroke="none"/>
    <path d="M12.4 -91.5 L12.5 -91.45 Q16.1 -89.25 16.1 -85.9 16.1 -84.95 15.65 -84.3 L14.15 -82.5 Q13.4 -84.15 11.2 -84.0 L10.9 -86.25 10.9 -88.25 12.4 -91.5 M13.65 -77.6 Q14.25 -77.5 14.25 -76.9 L14.0 -75.75 Q13.7 -75.0 13.25 -75.0 L12.65 -75.25 13.6 -77.5 13.65 -77.6 M4.8 -18.7 L5.2 -23.6 Q6.45 -31.05 9.35 -26.25 L10.45 -21.25 8.1 -20.15 4.8 -18.7" fill="#93b452" fill-rule="evenodd" stroke="none"/>
    <path d="M21.3 -63.7 L21.25 -63.8 Q21.25 -65.25 22.55 -65.75 L21.3 -63.7 M24.3 -56.7 L24.35 -56.75 Q25.05 -56.75 25.9 -53.85 L24.65 -55.7 24.6 -56.15 24.35 -56.65 24.3 -56.7" fill="#7b9842" fill-rule="evenodd" stroke="none"/>
    <path d="M22.55 -65.75 L23.1 -65.9 22.9 -65.75 22.7 -65.2 22.85 -61.15 Q22.85 -60.85 23.1 -60.65 23.3 -60.45 23.65 -60.45 L24.15 -60.65 24.35 -61.2 24.2 -65.25 23.95 -65.8 23.6 -65.95 24.25 -66.0 Q27.35 -66.0 29.0 -62.65 31.0 -59.55 31.0 -56.65 30.0 -52.0 28.9 -52.0 27.45 -52.0 25.9 -53.85 25.05 -56.75 24.35 -56.75 L24.3 -56.7 24.05 -56.8 23.5 -57.9 Q22.15 -60.8 21.3 -63.7 L22.55 -65.75 M-26.15 -111.35 L-25.05 -112.6 -25.0 -112.6 -21.1 -116.75 Q-20.75 -116.0 -20.75 -115.1 -20.75 -113.9 -21.25 -113.15 -21.9 -112.2 -23.75 -111.0 L-25.9 -111.0 -26.15 -111.35" fill="#647e32" fill-rule="evenodd" stroke="none"/>
    <path d="M23.6 -65.95 L23.95 -65.8 24.2 -65.25 24.35 -61.2 24.15 -60.65 23.65 -60.45 Q23.3 -60.45 23.1 -60.65 22.85 -60.85 22.85 -61.15 L22.7 -65.2 22.9 -65.75 23.1 -65.9 23.6 -65.95" fill="#4b5f24" fill-rule="evenodd" stroke="none"/>
    <path d="M-22.05 -117.95 L-21.1 -116.75 -25.0 -112.6 -25.05 -112.6 -26.15 -111.35 -27.15 -112.45 -26.15 -113.6 -22.05 -117.95" fill="#455624" fill-rule="evenodd" stroke="none"/>
    <path d="M5.35 -91.3 L3.9 -96.35 3.7 -97.1 Q4.3 -98.95 5.45 -101.25 8.0 -106.45 8.0 -100.8 L7.9 -96.7 7.55 -96.6 7.2 -96.4 5.5 -96.55 5.75 -96.0 6.65 -93.5 5.35 -91.3 M13.1 -1.4 L14.15 -2.45 16.45 -4.35 18.6 -4.75 20.75 -5.15 Q21.65 -4.4 22.35 -2.5 L13.1 -1.4" fill="#704c2c" fill-rule="evenodd" stroke="none"/>
    <path d="M3.15 -95.35 L4.2 -91.35 3.6 -91.4 2.9 -92.25 2.85 -93.1 Q2.85 -94.1 3.15 -95.35 M7.9 -96.7 L7.8 -96.2 6.65 -93.5 5.75 -96.0 5.5 -96.55 7.2 -96.4 7.55 -96.6 7.9 -96.7 M16.45 -4.35 Q18.2 -5.6 19.25 -5.65 20.05 -5.7 20.75 -5.15 L18.6 -4.75 16.45 -4.35" fill="#835b37" fill-rule="evenodd" stroke="none"/>
    <path d="M22.7 -1.55 L22.7 -1.45 23.3 1.4 Q16.9 2.6 10.5 2.8 10.6 1.4 12.15 -0.4 L21.8 -1.4 22.7 -1.55" fill="#5d3e23" fill-rule="evenodd" stroke="none"/>
    <path d="M39.45 -40.45 Q38.1 -39.75 36.25 -39.75 34.4 -39.75 34.0 -41.25 33.85 -42.0 34.0 -42.8 34.0 -47.2 37.25 -49.0 38.2 -44.6 39.45 -40.45 M-34.75 -98.35 Q-34.05 -98.1 -34.05 -97.1 L-34.05 -96.85 -34.4 -96.45 -35.5 -94.8 -36.15 -94.65 -36.2 -94.65 -34.9 -98.05 -34.75 -98.35" fill="#4f341d" fill-rule="evenodd" stroke="none"/>
    <path d="M12.15 -0.4 L13.1 -1.4 22.35 -2.5 22.7 -1.55 21.8 -1.4 12.15 -0.4" fill="#3f2917" fill-rule="evenodd" stroke="none"/>
    <path d="M38.6 -49.6 Q39.55 -45.35 40.75 -41.35 L39.45 -40.45 Q38.2 -44.6 37.25 -49.0 L38.45 -49.55 38.6 -49.6 M-37.45 -94.95 L-36.15 -98.35 -36.05 -98.4 -34.75 -98.35 -34.9 -98.05 -36.2 -94.65 -37.45 -94.95 M10.6 4.2 L10.55 4.15 10.5 3.0 10.5 2.8 Q16.9 2.6 23.3 1.4 L23.5 2.85 Q17.05 4.0 10.6 4.2" fill="#2c1d0f" fill-rule="evenodd" stroke="none"/>
    <path d="M1.2 -87.7 L3.0 -88.1 5.05 -88.1 5.75 -85.35 5.95 -84.35 6.25 -82.75 5.1 -81.3 Q3.85 -79.8 2.8 -78.95 L2.2 -82.85 1.7 -85.15 1.2 -87.7 M16.0 -15.15 L15.7 -14.3 Q15.35 -13.9 14.9 -13.9 13.55 -13.9 13.2 -16.0 13.05 -17.05 13.15 -18.0 13.15 -19.05 13.9 -19.3 14.75 -19.6 15.75 -18.25 L16.0 -15.15" fill="#ee7ec8" fill-rule="evenodd" stroke="none"/>
    <path d="M7.1 -84.0 L6.95 -84.55 6.25 -87.7 Q7.5 -87.0 7.5 -85.15 7.5 -84.75 7.1 -84.0 M1.35 -43.55 L2.95 -44.15 Q3.75 -44.15 3.75 -42.75 3.75 -42.15 1.55 -38.95 L-0.55 -36.25 -0.6 -37.15 -0.15 -41.9 -0.1 -42.5 0.15 -42.7 1.35 -43.55 M26.45 -3.4 Q26.65 -5.9 28.7 -5.7 29.95 -5.55 30.55 -4.6 L26.45 -3.4 M-1.55 -35.65 Q-3.15 -35.65 -3.45 -36.5 -3.65 -36.9 -3.5 -37.4 -3.5 -39.25 -1.2 -41.5 L-1.6 -37.15 -1.55 -35.65" fill="#d768b1" fill-rule="evenodd" stroke="none"/>
    <path d="M28.1 -43.45 L28.1 -43.35 Q28.1 -42.55 26.5 -40.75 L26.5 -41.8 Q26.5 -43.75 28.1 -43.45 M30.9 -3.65 L31.0 -2.4 Q31.0 -0.15 28.4 -0.15 26.85 -0.15 26.45 -1.5 L26.35 -2.35 30.9 -3.65 M-30.3 -99.05 L-30.5 -99.65 -30.7 -100.85 -29.15 -102.75 -28.65 -103.35 -26.45 -105.95 Q-25.95 -105.5 -25.7 -104.55 L-27.5 -102.45 -30.3 -99.05" fill="#bf5b9d" fill-rule="evenodd" stroke="none"/>
    <path d="M28.1 -43.45 L28.75 -43.25 Q31.0 -42.35 31.0 -40.05 31.0 -36.75 28.85 -36.75 27.25 -36.75 26.7 -39.25 L26.5 -40.75 Q28.1 -42.55 28.1 -43.35 L28.1 -43.45 M-30.7 -100.85 L-30.8 -102.05 Q-30.8 -105.6 -28.15 -106.2 -27.1 -106.45 -26.45 -105.95 L-28.65 -103.35 -29.15 -102.75 -30.7 -100.85" fill="#9c457e" fill-rule="evenodd" stroke="none"/>
    <path d="M5.05 -88.1 L6.25 -87.7 6.95 -84.55 7.1 -84.0 6.25 -82.75 5.95 -84.35 5.75 -85.35 5.05 -88.1 M26.35 -2.35 L26.4 -2.8 26.45 -3.4 30.55 -4.6 30.9 -3.65 26.35 -2.35 M-1.2 -41.5 L-0.1 -42.5 -0.15 -41.9 -0.6 -37.15 -0.55 -36.25 -1.5 -35.65 -1.55 -35.65 -1.6 -37.15 -1.2 -41.5" fill="#833869" fill-rule="evenodd" stroke="none"/>
    <path d="M-25.7 -104.55 L-25.5 -102.65 -25.5 -102.5 -29.5 -97.7 Q-30.0 -98.15 -30.3 -99.05 L-27.5 -102.45 -25.7 -104.55 M-0.2 -87.15 L-0.1 -87.2 1.2 -87.7 1.7 -85.15 2.2 -82.85 2.8 -78.95 1.35 -78.15 0.75 -82.55 0.4 -84.15 -0.2 -87.15" fill="#6b2b55" fill-rule="evenodd" stroke="none"/>
    <path d="M18.55 -49.45 L18.65 -48.75 19.25 -48.8 Q21.8 -48.8 22.5 -47.5 L22.75 -46.15 Q22.75 -44.65 22.0 -43.55 L19.6 -41.15 17.75 -41.15 Q16.5 -41.35 16.15 -42.25 L15.75 -43.5 Q15.3 -43.5 14.5 -42.8 13.7 -42.15 12.5 -42.15 L10.6 -42.25 9.3 -43.5 Q9.1 -43.8 9.1 -44.55 9.1 -45.65 9.4 -46.65 L11.65 -47.45 Q15.8 -48.95 18.55 -49.45" fill="#62aaad" fill-rule="evenodd" stroke="none"/>
    <path d="M15.65 -52.25 Q17.9 -52.5 18.55 -49.45 15.8 -48.95 11.65 -47.45 L9.4 -46.65 Q10.2 -49.65 13.5 -51.5 L13.8 -51.65 15.65 -52.25 M22.25 -36.35 Q20.6 -34.6 20.6 -34.05 L20.55 -33.8 20.55 -33.75 20.15 -34.75 Q20.15 -35.95 21.65 -36.3 L22.25 -36.35 M21.0 -32.9 Q21.45 -32.65 22.4 -32.55 L22.1 -32.0 Q21.55 -32.0 21.0 -32.9" fill="#559598" fill-rule="evenodd" stroke="none"/>
    <path d="M23.15 -112.3 Q22.05 -111.25 20.4 -111.25 18.15 -111.25 17.5 -112.7 17.25 -113.2 17.25 -114.45 17.25 -116.5 19.3 -117.7 L23.15 -112.3 M22.25 -36.35 Q23.15 -36.35 23.15 -35.15 L22.7 -33.4 22.4 -32.55 Q21.45 -32.65 21.0 -32.9 L20.75 -33.35 20.55 -33.75 20.55 -33.8 20.6 -34.05 Q20.6 -34.6 22.25 -36.35" fill="#467e80" fill-rule="evenodd" stroke="none"/>
    <path d="M19.3 -117.7 L20.7 -118.35 24.05 -113.6 23.85 -113.25 23.15 -112.3 19.3 -117.7 M30.5 -73.85 L29.45 -72.2 28.0 -70.9 Q26.6 -70.9 26.3 -72.25 26.15 -72.9 26.25 -73.65 26.25 -75.75 28.4 -75.7 30.5 -75.7 30.5 -73.85 M44.75 -19.25 Q44.75 -18.7 44.35 -18.35 L42.65 -17.0 41.0 -17.05 39.25 -19.4 Q38.1 -21.0 38.1 -21.9 38.1 -24.8 41.45 -23.35 44.75 -21.85 44.75 -19.25" fill="#326062" fill-rule="evenodd" stroke="none"/>
    <path d="M14.0 -97.2 L14.5 -97.3 Q17.0 -97.6 17.0 -95.7 17.0 -94.95 16.2 -94.05 15.35 -93.15 14.5 -93.15 L13.15 -93.3 14.25 -96.4 14.0 -97.2 M9.8 -70.05 L10.0 -70.1 Q11.75 -70.1 11.75 -65.15 L11.75 -63.3 Q11.5 -61.75 10.0 -61.75 8.55 -61.75 8.25 -62.8 8.1 -63.35 8.25 -63.95 8.25 -66.9 8.65 -68.45 L9.35 -69.35 9.8 -70.05 M5.35 -29.05 Q4.2 -27.75 2.65 -27.75 1.3 -27.75 1.6 -29.5 1.6 -30.55 1.9 -31.6 L2.2 -29.85 2.4 -28.05 3.65 -28.45 5.35 -29.05 M4.9 -36.75 Q7.05 -39.1 7.6 -37.8 L7.35 -37.7 5.65 -37.05 5.35 -36.95 4.9 -36.75 M26.1 -11.6 Q26.3 -12.75 27.25 -12.75 28.2 -12.75 28.45 -11.65 L28.1 -11.65 26.1 -11.6" fill="#b1ac9c" fill-rule="evenodd" stroke="none"/>
    <path d="M13.15 -93.3 Q12.3 -93.55 12.05 -94.1 11.8 -94.6 12.0 -95.15 12.0 -96.85 14.0 -97.2 L14.25 -96.4 13.15 -93.3 M8.65 -68.45 Q9.05 -69.9 9.8 -70.05 L9.35 -69.35 8.65 -68.45 M7.6 -37.8 L7.75 -36.55 Q7.75 -34.6 6.85 -32.0 6.25 -30.1 5.35 -29.05 L3.65 -28.45 2.4 -28.05 2.2 -29.85 1.9 -31.6 Q2.5 -34.1 4.7 -36.55 L4.9 -36.75 5.35 -36.95 5.65 -37.05 7.35 -37.7 7.6 -37.8 M26.1 -11.6 L28.1 -11.65 28.45 -11.65 28.5 -10.75 Q28.5 -8.75 27.6 -8.75 26.3 -8.75 26.0 -9.7 L26.0 -10.75 26.1 -11.6" fill="#cdc7b7" fill-rule="evenodd" stroke="none"/>
    <path d="M31.25 -15.55 L31.0 -14.75 Q30.65 -14.25 30.0 -14.25 29.2 -14.25 29.05 -14.7 L29.0 -15.25 Q29.0 -16.9 30.15 -16.95 31.25 -17.05 31.25 -15.55" fill="#989488" fill-rule="evenodd" stroke="none"/>
    <path d="M4.25 -61.3 L4.75 -60.4 5.25 -59.2 3.4 -58.75 4.25 -61.3 M19.1 -71.5 Q19.1 -70.85 18.6 -70.25 18.05 -69.55 17.35 -69.55 16.35 -69.55 16.15 -70.65 L16.15 -71.6 Q16.15 -73.7 17.65 -73.7 19.1 -73.7 19.1 -71.5 M1.9 -57.2 L1.85 -58.55 Q1.85 -64.15 3.55 -62.3 L1.9 -57.2 M16.2 -36.0 Q17.2 -35.6 17.35 -33.6 L14.6 -29.75 Q12.8 -29.9 12.1 -31.1 L11.8 -31.95 Q14.8 -33.75 16.05 -35.8 L16.2 -36.0" fill="#4d4b46" fill-rule="evenodd" stroke="none"/>
    <path d="M16.2 -36.0 L16.05 -35.8 Q14.8 -33.75 11.8 -31.95 L11.75 -32.6 Q11.75 -34.75 14.55 -35.85 L16.2 -36.0" fill="#5d5b54" fill-rule="evenodd" stroke="none"/>
    <path d="M14.25 -107.0 Q13.45 -106.5 12.15 -106.5 10.35 -106.5 9.85 -107.45 9.65 -107.95 9.75 -108.5 9.75 -109.6 10.3 -110.4 L12.75 -110.4 15.4 -109.65 15.25 -108.25 14.3 -109.7 13.8 -110.0 13.25 -109.9 12.95 -109.45 Q12.85 -109.15 13.05 -108.85 L13.55 -108.1 14.0 -107.4 14.25 -107.0 M5.25 -59.2 L6.7 -55.6 5.6 -55.55 4.7 -55.6 5.1 -56.25 Q3.75 -54.25 3.75 -52.4 3.75 -52.0 4.0 -51.95 L7.1 -51.05 Q6.55 -50.0 5.6 -50.0 3.1 -50.0 2.25 -54.35 L2.2 -54.55 2.65 -56.2 2.9 -57.0 3.4 -58.75 5.25 -59.2 M17.35 -33.6 L17.35 -33.05 Q17.35 -32.05 17.0 -31.2 16.35 -29.75 15.0 -29.75 L14.6 -29.75 17.35 -33.6" fill="#3c3b37" fill-rule="evenodd" stroke="none"/>
    <path d="M10.3 -110.4 Q11.0 -111.5 12.6 -112.2 15.4 -113.45 15.4 -109.85 L15.4 -109.65 12.75 -110.4 10.3 -110.4 M7.1 -51.05 L4.0 -51.95 Q3.75 -52.0 3.75 -52.4 3.75 -54.25 5.1 -56.25 L4.7 -55.6 5.6 -55.55 6.7 -55.6 7.65 -53.3 Q7.65 -52.3 7.25 -51.35 L7.1 -51.05 M36.0 -33.15 Q36.0 -31.5 35.1 -31.5 34.0 -31.5 33.5 -32.5 L33.25 -33.4 Q33.25 -34.85 34.65 -34.95 36.0 -35.05 36.0 -33.15" fill="#312f2c" fill-rule="evenodd" stroke="none"/>
    <path d="M14.25 -107.0 L14.0 -107.4 13.55 -108.1 13.05 -108.85 Q12.85 -109.15 12.95 -109.45 L13.25 -109.9 13.8 -110.0 14.3 -109.7 15.25 -108.25 15.1 -107.95 14.25 -107.0 M3.4 -58.75 L2.9 -57.0 2.65 -56.2 2.2 -54.55 1.9 -57.2 3.55 -62.3 4.25 -61.3 3.4 -58.75" fill="#272623" fill-rule="evenodd" stroke="none"/>
  </g>
</svg>
