<?xml version="1.0" encoding="UTF-8" standalone="no"?>
<svg xmlns:ffdec="https://www.free-decompiler.com/flash" xmlns:xlink="http://www.w3.org/1999/xlink" ffdec:objectType="shape" height="63.75px" width="143.1px" xmlns="http://www.w3.org/2000/svg">
  <g transform="matrix(1.0, 0.0, 0.0, 1.0, 78.1, 90.6)">
    <path d="M-67.2 -43.45 L-67.65 -43.4 -55.75 -42.25 -47.9 -41.1 -43.3 -40.5 Q-31.8 -39.75 -20.7 -42.95 -14.85 -44.7 -5.05 -49.2 L-2.2 -50.5 2.65 -52.7 7.5 -54.8 Q11.35 -56.45 14.35 -57.35 L16.1 -57.95 23.1 -59.65 23.35 -59.7 27.9 -60.35 Q32.75 -60.85 37.65 -60.55 L43.6 -59.65 Q51.7 -57.6 57.25 -51.05 59.75 -48.05 61.25 -44.95 L59.6 -38.1 54.95 -34.4 53.9 -33.8 Q51.2 -42.75 43.2 -47.7 36.15 -52.05 27.2 -52.1 17.55 -52.2 -7.2 -45.55 -31.9 -38.95 -45.55 -39.05 L-47.9 -39.25 -52.75 -39.95 -63.5 -40.85 -73.75 -40.75 Q-75.65 -42.25 -76.35 -43.25 -76.6 -44.3 -76.5 -45.3 -76.45 -48.05 -74.85 -49.4 -72.65 -51.25 -68.0 -50.95 -64.65 -50.75 -59.7 -47.45 L-59.05 -47.0 -62.1 -47.35 -64.05 -47.6 -67.55 -47.75 Q-68.75 -47.55 -69.5 -46.95 L-69.4 -45.8 -68.9 -44.4 -68.75 -44.05 -67.2 -43.45 M-37.95 -57.35 L-37.5 -62.85 -36.7 -68.95 -35.55 -75.15 Q-34.8 -78.0 -33.45 -81.4 -33.45 -82.0 -32.3 -83.05 L-31.65 -83.65 Q-30.65 -83.2 -29.2 -81.2 L-26.95 -78.75 Q-25.35 -78.55 -19.4 -82.0 -13.35 -85.5 -9.3 -85.15 -3.95 -83.75 1.0 -81.6 10.95 -77.3 11.15 -73.2 11.3 -71.3 8.15 -67.65 L5.3 -64.65 0.0 -59.65 -2.05 -57.85 -25.2 -58.55 -34.6 -57.8 -37.95 -57.35 M-15.1 -49.95 L-25.6 -50.2 -35.25 -49.5 -38.25 -49.0 -38.3 -50.4 -38.1 -53.1 -37.95 -55.0 -37.9 -55.45 -34.7 -56.0 -23.0 -56.85 -4.3 -56.25 -15.1 -49.95" fill="#ffffff" fill-rule="evenodd" stroke="none"/>
    <path d="M61.25 -44.95 Q61.75 -43.75 62.5 -40.05 L63.15 -36.45 Q63.05 -33.85 60.3 -31.8 L60.2 -31.8 Q52.8 -31.8 47.75 -35.45 43.75 -39.4 42.6 -40.0 38.2 -43.25 35.7 -44.45 31.7 -46.3 19.25 -47.25 L10.0 -47.15 3.05 -45.6 -2.55 -44.5 -7.65 -42.9 Q-10.75 -41.85 -15.0 -41.0 L-29.75 -37.8 -32.45 -37.25 -33.55 -37.1 -36.95 -36.6 -38.0 -36.45 -39.65 -36.25 -47.9 -36.0 -48.2 -36.0 Q-56.95 -36.1 -64.15 -37.95 L-73.75 -40.75 -63.5 -40.85 -52.75 -39.95 -47.9 -39.25 -45.55 -39.05 Q-31.9 -38.95 -7.2 -45.55 17.55 -52.2 27.2 -52.1 36.15 -52.05 43.2 -47.7 51.2 -42.75 53.9 -33.8 L54.95 -34.4 59.6 -38.1 61.25 -44.95 M-59.05 -47.0 L-56.35 -45.35 -55.7 -44.95 -56.9 -45.15 -59.45 -45.15 -59.5 -45.2 -63.0 -45.2 -64.65 -44.45 -64.95 -43.6 -64.95 -43.5 -67.2 -43.45 -68.75 -44.05 -68.9 -44.4 -69.4 -45.8 -69.5 -46.95 Q-68.75 -47.55 -67.55 -47.75 L-64.05 -47.6 -62.1 -47.35 -59.05 -47.0 M8.8 -85.5 L6.2 -86.3 8.05 -85.55 9.9 -84.15 11.4 -82.6 13.7 -79.45 Q15.0 -77.3 15.0 -76.2 15.0 -71.4 13.8 -64.35 L12.7 -58.2 9.7 -57.1 8.7 -57.05 4.95 -57.2 -2.05 -57.85 0.0 -59.65 5.3 -64.65 8.15 -67.65 Q11.3 -71.3 11.15 -73.2 10.95 -77.3 1.0 -81.6 -3.95 -83.75 -9.3 -85.15 -13.35 -85.5 -19.4 -82.0 -25.35 -78.55 -26.95 -78.75 L-29.2 -81.2 Q-30.65 -83.2 -31.65 -83.65 L-32.3 -83.05 Q-33.45 -82.0 -33.45 -81.4 -34.8 -78.0 -35.55 -75.15 L-36.7 -68.95 -37.5 -62.85 -37.95 -57.35 -38.4 -57.3 -40.7 -56.85 -40.7 -57.15 -39.55 -67.4 -38.2 -77.6 Q-37.45 -82.25 -35.25 -85.5 L-33.4 -87.55 Q-32.2 -88.1 -26.0 -88.7 -19.8 -89.35 -9.95 -88.8 1.0 -88.2 8.8 -85.5 M-4.3 -56.25 L-0.75 -55.8 3.55 -55.25 4.45 -55.15 4.5 -55.15 -4.7 -51.3 -5.5 -50.9 -5.75 -50.8 -14.95 -49.95 -15.1 -49.95 -4.3 -56.25 M-38.25 -49.0 L-38.45 -48.95 -39.2 -48.8 -41.3 -48.2 -41.3 -48.9 -41.0 -50.55 -40.8 -52.4 -40.6 -54.5 -40.55 -54.8 -38.9 -55.25 -37.9 -55.45 -37.95 -55.0 -38.1 -53.1 -38.3 -50.4 -38.25 -49.0" fill="#e0e0e0" fill-rule="evenodd" stroke="none"/>
    <path d="M60.3 -31.8 L59.65 -31.35 Q57.7 -30.15 55.8 -29.6 L55.15 -29.45 52.65 -29.5 50.8 -30.0 49.0 -30.4 48.5 -30.05 Q46.85 -30.05 42.55 -33.0 36.8 -37.0 34.35 -38.2 29.45 -40.55 25.5 -41.5 L12.4 -43.45 9.15 -43.45 5.5 -43.7 -0.25 -43.05 -0.8 -42.95 -13.7 -40.4 -18.8 -39.25 -20.05 -39.0 -32.45 -37.25 -29.75 -37.8 -15.0 -41.0 Q-10.75 -41.85 -7.65 -42.9 L-2.55 -44.5 3.05 -45.6 10.0 -47.15 19.25 -47.25 Q31.7 -46.3 35.7 -44.45 38.2 -43.25 42.6 -40.0 43.75 -39.4 47.75 -35.45 52.8 -31.8 60.2 -31.8 L60.3 -31.8 M-38.0 -36.45 L-39.0 -36.3 -39.85 -36.25 -39.65 -36.25 -38.0 -36.45 M-55.7 -44.95 L-55.65 -44.95 -55.1 -44.7 -54.3 -44.4 -53.15 -44.05 -52.4 -43.95 -60.65 -43.85 -59.3 -43.7 -64.95 -43.5 -64.95 -43.6 -64.65 -44.45 -63.0 -45.2 -59.5 -45.2 -59.45 -45.15 -56.9 -45.15 -55.7 -44.95 M12.7 -58.2 L13.8 -64.35 Q15.0 -71.4 15.0 -76.2 15.0 -77.3 13.7 -79.45 L11.4 -82.6 9.9 -84.15 8.05 -85.55 6.2 -86.3 8.8 -85.5 14.0 -83.35 17.85 -81.4 20.0 -80.35 20.0 -77.5 Q19.85 -74.7 19.5 -73.0 19.6 -71.25 19.15 -68.5 18.55 -64.85 18.5 -64.0 18.5 -62.5 17.25 -59.85 L18.1 -60.15 16.7 -59.65 15.25 -59.15 12.7 -58.2 M-33.4 -87.55 L-35.25 -85.5 Q-37.45 -82.25 -38.2 -77.6 L-39.55 -67.4 -40.7 -57.15 -40.7 -56.85 -41.15 -56.75 -41.55 -56.65 -42.1 -56.5 -44.9 -55.95 -45.0 -56.85 -40.05 -83.85 -36.85 -86.2 Q-33.95 -87.7 -33.4 -87.55 M-41.3 -48.2 L-41.85 -48.05 -45.65 -45.85 -45.05 -52.35 Q-45.0 -53.85 -43.9 -54.05 L-42.0 -54.4 -40.55 -54.8 -40.6 -54.5 -40.8 -52.4 -41.0 -50.55 -41.3 -48.9 -41.3 -48.2 M-42.0 -45.9 L-40.75 -46.3 -40.55 -46.3 -38.55 -47.2 Q-26.15 -49.3 -19.85 -48.7 L-9.75 -48.4 Q-15.15 -46.7 -16.75 -46.0 L-20.15 -44.7 Q-27.55 -42.3 -34.2 -42.1 -37.0 -42.45 -39.7 -43.45 L-41.55 -44.75 -41.45 -46.05 -42.0 -45.9" fill="#b4b4b4" fill-rule="evenodd" stroke="none"/>
    <path d="M-52.2 -45.55 Q-48.05 -43.85 -47.95 -44.1 L-47.8 -44.35 -47.55 -47.15 -46.7 -54.5 -46.55 -55.55 -46.0 -59.65 -45.25 -64.85 -45.15 -65.15 -44.8 -67.8 -44.45 -69.2 -44.45 -69.55 Q-42.4 -81.6 -41.2 -84.15 -40.6 -85.2 -39.2 -86.15 -34.65 -89.3 -20.85 -90.35 -7.55 -91.5 8.7 -87.05 25.0 -82.7 27.15 -74.3 L29.65 -64.15 Q30.05 -62.4 29.75 -62.35 41.9 -62.8 47.85 -59.85 53.8 -56.95 57.25 -53.6 60.65 -50.3 61.9 -47.7 63.1 -45.15 64.1 -42.1 65.1 -39.05 65.0 -36.6 64.85 -34.15 63.75 -32.55 L62.25 -30.65 Q58.9 -27.85 55.0 -27.1 51.0 -26.35 46.4 -27.9 L41.15 -30.3 Q25.85 -39.05 22.2 -40.05 18.55 -41.15 11.2 -41.65 3.8 -42.1 2.6 -41.85 L-3.85 -40.55 -10.25 -39.1 -18.8 -37.5 -32.65 -35.45 -44.7 -34.5 -53.2 -34.6 Q-57.35 -34.55 -71.5 -38.3 -75.6 -39.55 -77.0 -40.9 -78.35 -42.45 -78.05 -45.3 -78.0 -47.95 -76.2 -49.9 -74.4 -51.9 -71.1 -52.2 -67.85 -52.55 -62.1 -49.9 -56.4 -47.25 -52.2 -45.55 M61.25 -44.95 Q59.75 -48.05 57.25 -51.05 51.7 -57.6 43.6 -59.65 L37.65 -60.55 Q32.75 -60.85 27.9 -60.35 L23.35 -59.7 23.1 -59.65 16.1 -57.95 14.35 -57.35 Q11.35 -56.45 7.5 -54.8 L2.65 -52.7 -2.2 -50.5 -5.05 -49.2 Q-14.85 -44.7 -20.7 -42.95 -31.8 -39.75 -43.3 -40.5 L-47.9 -41.1 -55.75 -42.25 -67.65 -43.4 -67.2 -43.45 -64.95 -43.5 -59.3 -43.7 -53.45 -43.1 -45.3 -41.95 Q-44.8 -41.9 -45.35 -42.45 -45.95 -43.0 -52.65 -44.15 L-54.3 -44.4 -55.1 -44.7 -55.65 -44.95 -55.7 -44.95 -56.35 -45.35 -59.05 -47.0 -59.7 -47.45 Q-64.65 -50.75 -68.0 -50.95 -72.65 -51.25 -74.85 -49.4 -76.45 -48.05 -76.5 -45.3 -76.6 -44.3 -76.35 -43.25 -75.65 -42.25 -73.75 -40.75 L-64.15 -37.95 Q-56.95 -36.1 -48.2 -36.0 L-47.9 -36.0 -39.65 -36.25 -39.85 -36.25 -39.0 -36.3 -38.0 -36.45 -36.95 -36.6 -33.55 -37.1 -32.45 -37.25 -20.05 -39.0 -18.8 -39.25 -13.7 -40.4 -0.8 -42.95 -0.25 -43.05 5.5 -43.7 9.15 -43.45 12.65 -43.05 18.3 -42.3 Q24.8 -41.45 36.0 -35.15 47.15 -28.85 50.75 -29.0 L51.25 -29.05 51.7 -29.05 54.45 -29.3 55.2 -29.45 55.15 -29.45 55.8 -29.6 Q57.7 -30.15 59.65 -31.35 L60.3 -31.8 Q63.05 -33.85 63.15 -36.45 L62.5 -40.05 Q61.75 -43.75 61.25 -44.95 M8.8 -85.5 Q1.0 -88.2 -9.95 -88.8 -19.8 -89.35 -26.0 -88.7 -32.2 -88.1 -33.4 -87.55 -33.95 -87.7 -36.85 -86.2 L-40.05 -83.85 -45.0 -56.85 -44.9 -55.95 -42.1 -56.5 -41.55 -56.65 -41.15 -56.75 -40.7 -56.85 -38.4 -57.3 -37.95 -57.35 -34.6 -57.8 -25.2 -58.55 -2.05 -57.85 4.95 -57.2 8.7 -57.05 9.7 -57.1 12.7 -58.2 15.25 -59.15 16.7 -59.65 18.1 -60.15 17.15 -59.65 27.65 -62.05 Q27.7 -63.8 27.35 -66.15 L26.4 -73.0 Q25.85 -77.5 20.0 -80.35 L17.85 -81.4 14.0 -83.35 8.8 -85.5 M-15.1 -49.95 L-14.95 -49.95 -5.75 -50.8 -5.5 -50.9 -4.7 -51.3 4.5 -55.15 4.45 -55.15 3.55 -55.25 -0.75 -55.8 -4.3 -56.25 -23.0 -56.85 -34.7 -56.0 -37.9 -55.45 -38.9 -55.25 -40.55 -54.8 -42.0 -54.4 -43.9 -54.05 Q-45.0 -53.85 -45.05 -52.35 L-45.65 -45.85 -41.85 -48.05 -41.3 -48.2 -39.2 -48.8 -38.45 -48.95 -38.25 -49.0 -35.25 -49.5 -25.6 -50.2 -15.1 -49.95 M-42.0 -45.9 L-43.35 -45.3 -43.6 -45.2 -44.0 -45.0 -45.4 -43.6 -44.65 -43.55 -43.7 -43.3 -41.85 -42.85 -37.65 -42.2 -34.2 -42.1 Q-27.55 -42.3 -20.15 -44.7 L-16.75 -46.0 Q-15.15 -46.7 -9.75 -48.4 L-19.85 -48.7 Q-26.15 -49.3 -38.55 -47.2 L-40.55 -46.3 -40.75 -46.3 -42.0 -45.9" fill="#464646" fill-rule="evenodd" stroke="none"/>
    <path d="M55.15 -29.45 L55.2 -29.45 54.45 -29.3 51.7 -29.05 51.25 -29.05 50.75 -29.0 Q47.15 -28.85 36.0 -35.15 24.8 -41.45 18.3 -42.3 L12.65 -43.05 9.15 -43.45 12.4 -43.45 25.5 -41.5 Q29.45 -40.55 34.35 -38.2 36.8 -37.0 42.55 -33.0 46.85 -30.05 48.5 -30.05 L49.0 -30.4 50.8 -30.0 52.65 -29.5 55.15 -29.45 M-54.3 -44.4 L-52.65 -44.15 Q-45.95 -43.0 -45.35 -42.45 -44.8 -41.9 -45.3 -41.95 L-53.45 -43.1 -59.3 -43.7 -60.65 -43.85 -52.4 -43.95 -53.15 -44.05 -54.3 -44.4 M18.1 -60.15 L17.25 -59.85 Q18.5 -62.5 18.5 -64.0 18.55 -64.85 19.15 -68.5 19.6 -71.25 19.5 -73.0 19.85 -74.7 20.0 -77.5 L20.0 -80.35 Q25.85 -77.5 26.4 -73.0 L27.35 -66.15 Q27.7 -63.8 27.65 -62.05 L17.15 -59.65 18.1 -60.15 M-34.2 -42.1 L-37.65 -42.2 -41.85 -42.85 -43.7 -43.3 -44.65 -43.55 -45.4 -43.6 -44.0 -45.0 -43.6 -45.2 -43.35 -45.3 -42.0 -45.9 -41.45 -46.05 -41.55 -44.75 -39.7 -43.45 Q-37.0 -42.45 -34.2 -42.1" fill="#8a8a8a" fill-rule="evenodd" stroke="none"/>
  </g>
</svg>
