<?xml version="1.0" encoding="UTF-8" standalone="no"?>
<svg xmlns:ffdec="https://www.free-decompiler.com/flash" xmlns:xlink="http://www.w3.org/1999/xlink" ffdec:objectType="shape" height="57.6px" width="38.1px" xmlns="http://www.w3.org/2000/svg">
  <g transform="matrix(1.0, 0.0, 0.0, 1.0, 34.85, 104.35)">
    <path d="M-4.0 -104.35 Q-1.2 -104.55 1.05 -102.6 L1.1 -102.55 1.8 -101.75 1.7 -101.85 Q3.4 -99.85 3.25 -96.95 L3.25 -96.9 Q3.05 -94.25 0.7 -88.1 L-4.2 -76.65 -4.15 -76.7 -6.25 -72.15 Q-2.3 -68.05 -2.7 -62.2 L-2.7 -62.15 -2.8 -61.3 -2.8 -61.25 Q-3.3 -57.45 -5.15 -54.0 -8.05 -48.65 -13.3 -47.25 L-13.25 -47.25 -17.45 -46.75 -17.5 -46.75 -18.0 -46.75 -14.25 -47.25 -14.3 -47.25 Q-9.05 -48.65 -6.15 -54.0 -4.3 -57.45 -3.8 -61.25 L-3.8 -61.3 -3.7 -62.15 -3.7 -62.2 Q-3.3 -68.05 -7.25 -72.15 L-5.15 -76.7 -5.2 -76.65 Q-2.15 -83.4 -0.3 -88.1 2.05 -94.25 2.25 -96.9 L2.25 -96.95 Q2.4 -99.85 0.7 -101.85 L0.8 -101.75 0.1 -102.55 0.05 -102.6 Q-1.8 -104.2 -4.0 -104.35 M-20.55 -103.75 Q-18.9 -104.1 -17.6 -102.45 L-17.55 -102.4 Q-16.75 -101.25 -16.2 -98.9 L-16.15 -98.7 Q-15.0 -93.55 -15.5 -88.0 L-15.55 -87.6 -15.65 -86.85 Q-15.7 -85.75 -15.9 -84.6 -16.35 -80.9 -17.1 -77.05 L-16.4 -76.95 -16.45 -76.9 -18.1 -77.05 Q-17.35 -80.95 -16.9 -84.65 L-16.9 -84.6 Q-16.7 -85.75 -16.65 -86.85 L-16.55 -87.6 -16.5 -88.0 Q-16.0 -93.55 -17.15 -98.7 L-17.2 -98.9 Q-17.75 -101.25 -18.55 -102.4 L-18.6 -102.45 Q-19.5 -103.55 -20.55 -103.75" fill="#454545" fill-rule="evenodd" stroke="none"/>
    <path d="M-18.0 -46.75 L-18.45 -46.75 -18.5 -46.75 -22.75 -47.05 Q-27.95 -47.8 -30.9 -50.2 L-30.95 -50.25 -33.1 -52.75 -33.15 -52.75 Q-35.15 -55.85 -34.8 -59.3 L-34.55 -61.15 -34.6 -61.1 Q-34.15 -65.25 -32.55 -68.3 -31.15 -71.1 -29.0 -73.05 L-29.0 -73.1 -28.45 -73.55 -28.35 -74.15 -28.9 -81.6 Q-29.05 -86.65 -28.8 -90.1 -28.6 -95.2 -25.4 -101.1 L-25.3 -101.25 Q-24.45 -102.35 -23.35 -103.05 L-22.55 -103.45 -20.55 -103.75 Q-19.5 -103.55 -18.6 -102.45 L-18.55 -102.4 Q-17.75 -101.25 -17.2 -98.9 L-17.15 -98.7 Q-16.0 -93.55 -16.5 -88.0 L-16.55 -87.6 -16.65 -86.85 Q-16.7 -85.75 -16.9 -84.6 L-16.9 -84.65 Q-17.35 -80.95 -18.1 -77.05 L-16.45 -76.9 -16.4 -76.95 -16.25 -77.8 -16.1 -78.75 -15.3 -83.05 -15.3 -83.2 -14.9 -86.5 -13.9 -92.4 Q-13.2 -96.75 -12.15 -98.9 -11.2 -101.05 -7.5 -103.65 L-7.35 -103.75 -5.6 -104.25 -5.6 -104.3 -4.0 -104.35 Q-1.8 -104.2 0.05 -102.6 L0.1 -102.55 0.8 -101.75 0.7 -101.85 Q2.4 -99.85 2.25 -96.95 L2.25 -96.9 Q2.05 -94.25 -0.3 -88.1 -2.15 -83.4 -5.2 -76.65 L-5.15 -76.7 -7.25 -72.15 Q-3.3 -68.05 -3.7 -62.2 L-3.7 -62.15 -3.8 -61.3 -3.8 -61.25 Q-4.3 -57.45 -6.15 -54.0 -9.05 -48.65 -14.3 -47.25 L-14.25 -47.25 -18.0 -46.75 M-19.4 -101.85 Q-20.55 -103.3 -22.15 -102.55 L-22.85 -102.2 -24.55 -100.65 Q-27.6 -94.95 -27.8 -90.05 -28.05 -86.65 -27.9 -81.65 L-27.35 -74.25 -27.6 -72.9 -28.35 -72.35 Q-30.35 -70.5 -31.65 -67.85 -33.15 -64.95 -33.6 -61.0 L-33.8 -59.25 Q-34.1 -56.1 -32.3 -53.3 L-30.3 -51.0 Q-27.5 -48.75 -22.6 -48.05 L-18.5 -47.75 -18.45 -47.75 -14.55 -48.25 Q-9.7 -49.55 -7.05 -54.5 -5.25 -57.75 -4.8 -61.4 L-4.7 -62.3 Q-4.3 -68.0 -8.45 -71.95 L-6.1 -77.1 Q-3.05 -83.8 -1.25 -88.45 1.05 -94.4 1.25 -97.0 1.4 -99.5 -0.05 -101.2 L-0.6 -101.85 Q-2.75 -103.7 -5.45 -103.3 L-6.95 -102.85 Q-10.35 -100.45 -11.25 -98.5 -12.25 -96.4 -12.95 -92.25 L-13.9 -86.45 -14.3 -83.05 -14.35 -82.9 -15.15 -78.55 -15.25 -77.8 -15.25 -77.7 -15.6 -75.75 -16.1 -75.85 -18.2 -76.05 -19.35 -76.05 Q-18.4 -80.55 -17.9 -84.8 L-17.65 -87.0 -17.55 -87.85 -17.5 -88.1 Q-17.0 -93.5 -18.15 -98.5 L-18.2 -98.65 Q-18.65 -100.8 -19.4 -101.85" fill="#8a8a8a" fill-rule="evenodd" stroke="none"/>
    <path d="M-30.3 -51.0 L-32.3 -53.3 Q-34.1 -56.1 -33.8 -59.25 L-33.6 -61.0 Q-33.15 -64.95 -31.65 -67.85 -30.35 -70.5 -28.35 -72.35 L-27.6 -72.9 -27.35 -74.25 -27.9 -81.65 Q-28.05 -86.65 -27.8 -90.05 -27.6 -94.95 -24.55 -100.65 L-22.85 -102.2 -22.15 -102.55 Q-20.55 -103.3 -19.4 -101.85 L-19.65 -100.95 -20.6 -96.5 -20.7 -96.55 Q-22.15 -97.65 -23.65 -97.05 L-24.15 -96.75 Q-25.35 -96.0 -25.6 -93.85 -25.85 -92.4 -25.75 -90.05 L-25.5 -86.65 -24.6 -79.0 -24.25 -77.75 -24.95 -74.65 -27.3 -63.9 -27.8 -61.9 -27.9 -61.2 -30.3 -51.0" fill="#9f9f9f" fill-rule="evenodd" stroke="none"/>
    <path d="M-19.4 -101.85 Q-18.65 -100.8 -18.2 -98.65 L-18.15 -98.5 Q-17.0 -93.5 -17.5 -88.1 L-17.55 -87.85 -17.65 -87.0 -17.9 -84.8 -19.2 -80.25 -19.65 -78.25 -19.75 -77.8 -20.35 -73.75 -21.8 -66.6 Q-21.8 -67.4 -22.4 -68.05 -23.05 -68.75 -24.0 -68.75 -25.0 -68.75 -25.8 -68.05 -26.55 -67.3 -26.65 -66.35 -26.7 -65.35 -26.05 -64.65 -25.35 -63.9 -24.35 -63.9 -23.4 -63.9 -22.65 -64.65 L-22.05 -65.4 -22.35 -63.9 -23.0 -60.9 -23.15 -60.85 Q-24.05 -60.35 -23.55 -59.7 L-23.35 -59.45 -23.9 -57.2 Q-24.0 -55.65 -23.35 -52.45 -22.8 -50.0 -22.6 -48.05 -27.5 -48.75 -30.3 -51.0 L-27.9 -61.2 -27.8 -61.9 -27.3 -63.9 -24.95 -74.65 -24.25 -77.75 -24.25 -77.7 Q-23.8 -75.9 -23.1 -75.95 -22.2 -75.9 -21.6 -79.1 -21.05 -81.3 -20.45 -85.25 L-20.4 -86.1 -20.25 -87.35 -20.25 -87.4 -20.1 -88.8 Q-19.35 -95.25 -20.55 -96.5 L-20.6 -96.5 -19.65 -100.95 -19.4 -101.85 M-14.3 -83.05 L-13.9 -86.45 -12.95 -92.25 Q-12.25 -96.4 -11.25 -98.5 -10.35 -100.45 -6.95 -102.85 L-8.7 -101.2 -9.4 -99.05 -10.85 -93.7 -14.7 -80.55 -14.1 -84.0 -14.3 -83.05" fill="#b4b4b4" fill-rule="evenodd" stroke="none"/>
    <path d="M-17.9 -84.8 Q-18.4 -80.55 -19.35 -76.05 L-18.2 -76.05 -16.1 -75.85 -16.7 -74.3 -17.0 -73.35 Q-18.2 -69.55 -18.9 -63.9 L-19.25 -61.0 -21.05 -61.35 Q-22.2 -61.35 -23.0 -60.9 L-22.35 -63.9 -22.05 -65.4 Q-21.8 -65.85 -21.8 -66.35 L-21.8 -66.6 -20.35 -73.75 -19.75 -77.8 -19.65 -78.25 -19.2 -80.25 -17.9 -84.8 M-15.25 -77.8 L-15.15 -78.55 -14.35 -82.9 -14.3 -83.05 -14.1 -84.0 -14.7 -80.55 -10.85 -93.7 -9.4 -99.05 -8.7 -101.2 -6.95 -102.85 -5.45 -103.3 Q-2.75 -103.7 -0.6 -101.85 L-0.05 -101.2 Q1.4 -99.5 1.25 -97.0 1.05 -94.4 -1.25 -88.45 L-4.7 -87.5 -4.65 -87.6 -4.05 -89.2 Q-1.25 -96.35 -2.5 -98.0 L-2.6 -98.1 Q-3.8 -99.7 -5.65 -99.35 -6.85 -99.2 -7.8 -98.0 L-8.25 -97.45 -8.8 -96.35 Q-10.0 -93.7 -10.85 -88.4 L-11.35 -84.45 -11.55 -83.6 -11.55 -83.55 Q-13.25 -81.7 -14.55 -79.3 L-15.25 -77.8 M-4.8 -61.4 Q-5.25 -57.75 -7.05 -54.5 -9.7 -49.55 -14.55 -48.25 L-18.45 -47.75 -18.5 -47.75 -22.6 -48.05 Q-22.8 -50.0 -23.35 -52.45 -24.0 -55.65 -23.9 -57.2 L-23.35 -59.45 -22.75 -58.5 Q-22.55 -58.0 -21.7 -58.25 -20.95 -58.35 -20.15 -58.85 L-19.45 -59.3 -19.75 -55.65 -19.75 -52.7 Q-19.55 -51.0 -18.45 -51.0 -13.7 -51.0 -6.7 -59.05 L-4.8 -61.4" fill="#e0e0e0" fill-rule="evenodd" stroke="none"/>
    <path d="M-16.1 -75.85 L-15.6 -75.75 -15.25 -77.7 -15.25 -77.8 -14.55 -79.3 Q-13.25 -81.7 -11.55 -83.55 L-12.05 -79.6 Q-12.2 -75.95 -11.2 -75.75 -10.2 -75.5 -8.65 -78.8 -7.05 -81.7 -4.7 -87.5 L-1.25 -88.45 Q-3.05 -83.8 -6.1 -77.1 L-8.45 -71.95 Q-4.3 -68.0 -4.7 -62.3 L-4.8 -61.4 -6.7 -59.05 Q-13.7 -51.0 -18.45 -51.0 -19.55 -51.0 -19.75 -52.7 L-19.75 -55.65 -19.45 -59.3 -18.7 -59.9 Q-18.1 -60.35 -19.0 -60.85 L-19.25 -61.0 -18.9 -63.9 Q-18.2 -69.55 -17.0 -73.35 L-16.7 -74.3 -16.1 -75.85 M-13.2 -65.65 Q-13.1 -66.6 -13.8 -67.4 -14.45 -68.05 -15.4 -68.05 -16.4 -68.05 -17.2 -67.4 -17.95 -66.6 -18.05 -65.65 -18.1 -64.65 -17.45 -64.0 -16.75 -63.2 -15.75 -63.2 -14.8 -63.2 -14.05 -64.0 -13.25 -64.65 -13.2 -65.65" fill="#ffffff" fill-rule="evenodd" stroke="none"/>
    <path d="M-4.65 -87.6 L-7.6 -86.85 -8.55 -86.2 -8.65 -86.15 -10.0 -85.1 -10.55 -84.65 -10.55 -84.5 -10.65 -84.5 -11.55 -83.6 -11.35 -84.45 -10.85 -88.4 Q-10.0 -93.7 -8.8 -96.35 L-8.25 -97.45 -7.8 -98.0 Q-6.85 -99.2 -5.65 -99.35 -3.8 -99.7 -2.6 -98.1 L-2.5 -98.0 Q-1.25 -96.35 -4.05 -89.2 L-4.65 -87.6" fill="#fd8686" fill-rule="evenodd" stroke="none"/>
    <path d="M-11.55 -83.6 L-10.65 -84.5 -10.55 -84.5 -10.55 -84.65 -10.0 -85.1 -8.65 -86.15 -8.55 -86.2 -7.6 -86.85 -4.65 -87.6 -4.7 -87.5 Q-7.05 -81.7 -8.65 -78.8 -10.2 -75.5 -11.2 -75.75 -12.2 -75.95 -12.05 -79.6 L-11.55 -83.55 -11.55 -83.6" fill="#ff9999" fill-rule="evenodd" stroke="none"/>
    <path d="M-20.55 -96.5 Q-19.35 -95.25 -20.1 -88.8 L-20.25 -87.4 -20.25 -87.35 -20.4 -86.1 -20.45 -85.25 Q-21.05 -81.3 -21.6 -79.1 -22.2 -75.9 -23.1 -75.95 -23.8 -75.9 -24.25 -77.7 L-24.25 -77.8 -23.95 -79.3 -22.6 -85.1 -22.05 -87.85 -21.5 -90.2 -20.95 -94.7 -20.55 -96.5" fill="#f87474" fill-rule="evenodd" stroke="none"/>
    <path d="M-24.25 -77.75 L-24.6 -79.0 -25.5 -86.65 -25.75 -90.05 Q-25.85 -92.4 -25.6 -93.85 -25.35 -96.0 -24.15 -96.75 L-23.65 -97.05 Q-22.15 -97.65 -20.7 -96.55 L-20.6 -96.5 -20.55 -96.5 -20.95 -94.7 -21.5 -90.2 -22.05 -87.85 -22.6 -85.1 -23.95 -79.3 -24.25 -77.8 -24.25 -77.7 -24.25 -77.75 M-23.0 -60.9 Q-22.2 -61.35 -21.05 -61.35 L-19.25 -61.0 -19.0 -60.85 Q-18.1 -60.35 -18.7 -59.9 L-19.45 -59.3 -20.15 -58.85 Q-20.95 -58.35 -21.7 -58.25 -22.55 -58.0 -22.75 -58.5 L-23.35 -59.45 -23.55 -59.7 Q-24.05 -60.35 -23.15 -60.85 L-23.0 -60.9" fill="#d54f4f" fill-rule="evenodd" stroke="none"/>
    <path d="M-21.8 -66.6 L-21.8 -66.35 Q-21.8 -65.85 -22.05 -65.4 L-22.65 -64.65 Q-23.4 -63.9 -24.35 -63.9 -25.35 -63.9 -26.05 -64.65 -26.7 -65.35 -26.65 -66.35 -26.55 -67.3 -25.8 -68.05 -25.0 -68.75 -24.0 -68.75 -23.05 -68.75 -22.4 -68.05 -21.8 -67.4 -21.8 -66.6 M-13.2 -65.65 Q-13.25 -64.65 -14.05 -64.0 -14.8 -63.2 -15.75 -63.2 -16.75 -63.2 -17.45 -64.0 -18.1 -64.65 -18.05 -65.65 -17.95 -66.6 -17.2 -67.4 -16.4 -68.05 -15.4 -68.05 -14.45 -68.05 -13.8 -67.4 -13.1 -66.6 -13.2 -65.65" fill="#333333" fill-rule="evenodd" stroke="none"/>
  </g>
</svg>
