<?xml version="1.0" encoding="UTF-8" standalone="no"?>
<svg xmlns:ffdec="https://www.free-decompiler.com/flash" xmlns:xlink="http://www.w3.org/1999/xlink" ffdec:objectType="shape" height="130.8px" width="105.4px" xmlns="http://www.w3.org/2000/svg">
  <g transform="matrix(1.0, 0.0, 0.0, 1.0, 50.75, 50.25)">
    <path d="M8.65 3.75 Q7.85 2.25 7.85 1.25 7.85 -0.8 9.1 -5.85 L10.35 -11.65 Q10.35 -13.25 8.4 -15.8 6.0 -18.95 1.9 -21.25 -9.6 -27.9 -28.7 -25.35 -31.05 -28.1 -31.05 -30.4 -31.05 -32.8 -27.25 -35.45 -23.15 -38.35 -18.55 -38.35 -17.05 -38.35 -16.15 -37.75 -18.7 -37.1 -20.75 -36.1 -24.8 -34.1 -24.8 -30.55 L-23.2 -28.5 Q-21.3 -26.5 -19.65 -26.5 -17.35 -26.5 -16.55 -28.85 -15.4 -32.35 -13.15 -34.2 -12.25 -34.95 -6.8 -36.7 -0.8 -38.65 1.5 -38.5 L6.25 -38.55 12.45 -38.15 12.45 -37.85 Q12.3 -37.7 12.6 -37.65 12.35 -37.2 10.2 -36.95 6.45 -36.55 0.5 -34.3 L-4.55 -32.15 Q-6.55 -30.75 -7.25 -27.2 L-5.85 -27.05 Q-2.65 -29.15 0.95 -30.5 4.1 -31.75 5.6 -31.75 L6.3 -31.7 6.25 -31.6 Q6.15 -31.0 4.05 -28.95 L1.3 -26.35 3.0 -26.25 14.2 -26.35 14.65 -25.75 11.9 -24.05 Q9.7 -22.8 9.1 -22.65 10.85 -20.2 13.1 -19.85 L16.4 -19.5 16.35 -18.85 14.65 -17.05 Q13.1 -15.5 12.0 -14.65 L12.7 -14.2 19.1 -11.45 Q18.75 -10.7 16.05 -8.65 L12.35 -5.75 Q14.0 -5.75 16.45 -6.7 L18.85 -7.65 19.55 -7.55 19.65 -7.25 Q19.8 -6.25 16.1 -2.2 12.05 2.3 8.65 3.75" fill="#ffffff" fill-rule="evenodd" stroke="none"/>
    <path d="M-36.2 -27.35 L-40.35 -27.65 -38.3 -27.6 -39.9 -29.35 Q-41.0 -30.75 -41.0 -32.75 -41.0 -38.45 -32.75 -41.35 -24.05 -44.5 -4.75 -45.0 L-2.6 -45.0 -2.6 -44.1 -1.6 -44.1 Q-3.5 -43.95 -7.15 -42.6 -11.55 -40.95 -12.5 -39.9 L-11.8 -38.95 -11.0 -38.5 -6.55 -40.55 Q-1.75 -42.6 4.75 -42.6 6.05 -42.6 11.35 -39.65 16.5 -36.85 17.8 -35.55 L13.95 -35.35 13.5 -34.65 Q14.35 -33.95 18.35 -33.65 L18.65 -33.65 19.15 -33.25 15.55 -31.6 Q13.3 -30.45 12.75 -29.4 L12.85 -28.8 13.75 -28.75 16.4 -29.35 20.5 -30.0 Q21.65 -30.0 22.3 -29.3 L23.8 -27.05 Q22.9 -26.25 21.55 -25.85 20.15 -25.4 18.25 -23.5 L18.3 -23.0 18.4 -22.85 19.25 -22.75 21.45 -23.2 23.65 -23.65 24.6 -23.5 25.0 -23.05 Q24.7 -22.35 22.7 -20.7 L20.25 -18.8 Q20.55 -17.95 21.15 -17.95 L25.75 -18.25 26.6 -18.1 27.0 -14.25 Q27.0 -13.25 25.55 -12.25 23.6 -10.95 22.5 -8.75 L22.65 -8.2 Q22.8 -8.0 23.5 -8.0 24.65 -8.0 26.5 -10.15 25.15 -7.1 22.3 -4.4 21.05 -3.25 18.25 -1.15 L18.45 -0.65 19.35 -0.5 Q20.4 -0.3 22.15 -1.6 L25.7 -4.85 26.25 -5.5 26.1 -4.35 25.5 -1.8 24.6 0.25 23.2 2.7 Q21.3 5.1 14.35 5.1 12.45 5.1 8.95 4.1 L8.65 3.75 Q12.05 2.3 16.1 -2.2 19.8 -6.25 19.65 -7.25 L19.55 -7.55 18.85 -7.65 16.45 -6.7 Q14.0 -5.75 12.35 -5.75 L16.05 -8.65 Q18.75 -10.7 19.1 -11.45 L12.7 -14.2 12.0 -14.65 Q13.1 -15.5 14.65 -17.05 L16.35 -18.85 16.4 -19.5 13.1 -19.85 Q10.85 -20.2 9.1 -22.65 9.7 -22.8 11.9 -24.05 L14.65 -25.75 14.2 -26.35 3.0 -26.25 1.3 -26.35 4.05 -28.95 Q6.15 -31.0 6.25 -31.6 L6.3 -31.7 5.6 -31.75 Q4.1 -31.75 0.95 -30.5 -2.65 -29.15 -5.85 -27.05 L-7.25 -27.2 Q-6.55 -30.75 -4.55 -32.15 L0.5 -34.3 Q6.45 -36.55 10.2 -36.95 12.35 -37.2 12.6 -37.65 12.3 -37.7 12.45 -37.85 L12.45 -38.15 6.25 -38.55 1.5 -38.5 Q-0.8 -38.65 -6.8 -36.7 -12.25 -34.95 -13.15 -34.2 -15.4 -32.35 -16.55 -28.85 -17.35 -26.5 -19.65 -26.5 -21.3 -26.5 -23.2 -28.5 L-24.8 -30.55 Q-24.8 -34.1 -20.75 -36.1 -18.7 -37.1 -16.15 -37.75 -17.05 -38.35 -18.55 -38.35 -23.15 -38.35 -27.25 -35.45 -31.05 -32.8 -31.05 -30.4 -31.05 -28.1 -28.7 -25.35 L-31.4 -25.4 -30.95 -25.85 -30.8 -25.95 Q-31.75 -26.7 -33.6 -29.2 -35.3 -31.6 -35.65 -32.5 L-36.05 -33.55 Q-36.55 -32.65 -36.55 -31.6 L-36.2 -27.35 M27.5 5.85 L27.7 6.2 Q27.7 7.2 26.3 8.4 L24.25 9.75 22.55 9.75 22.5 9.25 25.0 5.0 Q26.55 2.25 27.65 1.5 L27.75 1.75 27.4 3.2 27.0 4.8 27.5 5.85 M-44.4 -35.5 L-44.55 -36.05 Q-44.85 -39.6 -37.65 -42.4 -30.2 -45.35 -19.75 -45.5 L-19.3 -45.55 Q-19.15 -45.6 -19.15 -45.0 L-19.2 -44.15 -19.3 -44.1 Q-35.15 -43.6 -40.0 -39.9 -41.1 -39.05 -42.35 -37.2 -43.25 -35.8 -44.4 -35.5" fill="#d1d1d1" fill-rule="evenodd" stroke="none"/>
    <path d="M-33.45 -25.85 L-32.65 -26.5 -35.5 -27.3 -36.2 -27.35 -36.55 -31.6 Q-36.55 -32.65 -36.05 -33.55 L-35.65 -32.5 Q-35.3 -31.6 -33.6 -29.2 -31.75 -26.7 -30.8 -25.95 L-30.95 -25.85 -31.4 -25.4 Q-33.0 -25.4 -33.45 -25.85 M-40.35 -27.65 Q-41.9 -28.1 -42.9 -30.35 L-44.0 -33.25 -44.8 -31.55 Q-45.3 -29.95 -44.65 -28.1 -46.65 -28.2 -48.0 -30.25 -49.25 -32.25 -49.25 -35.05 -49.25 -40.1 -41.05 -44.1 -32.0 -48.55 -18.35 -48.55 -3.0 -48.55 9.4 -42.65 18.35 -38.4 21.7 -33.85 27.25 -26.3 28.9 -18.55 29.6 -15.2 29.6 -8.8 29.6 -0.95 28.2 3.85 L27.5 5.85 27.0 4.8 27.4 3.2 27.75 1.75 27.65 1.5 Q26.55 2.25 25.0 5.0 L22.5 9.25 22.55 9.75 24.25 9.75 26.3 8.4 Q24.85 10.85 22.75 12.75 L20.7 9.85 Q18.95 7.7 18.3 7.55 17.9 7.75 17.75 8.35 L13.15 6.25 Q9.55 4.65 8.95 4.1 12.45 5.1 14.35 5.1 21.3 5.1 23.2 2.7 L24.6 0.25 25.5 -1.8 26.1 -4.35 26.25 -5.5 25.7 -4.85 22.15 -1.6 Q20.4 -0.3 19.35 -0.5 L18.45 -0.65 18.25 -1.15 Q21.05 -3.25 22.3 -4.4 25.15 -7.1 26.5 -10.15 24.65 -8.0 23.5 -8.0 22.8 -8.0 22.65 -8.2 L22.5 -8.75 Q23.6 -10.95 25.55 -12.25 27.0 -13.25 27.0 -14.25 L26.6 -18.1 25.75 -18.25 21.15 -17.95 Q20.55 -17.95 20.25 -18.8 L22.7 -20.7 Q24.7 -22.35 25.0 -23.05 L24.6 -23.5 23.65 -23.65 21.45 -23.2 19.25 -22.75 18.4 -22.85 18.3 -23.0 18.25 -23.5 Q20.15 -25.4 21.55 -25.85 22.9 -26.25 23.8 -27.05 L22.3 -29.3 Q21.65 -30.0 20.5 -30.0 L16.4 -29.35 13.75 -28.75 12.85 -28.8 12.75 -29.4 Q13.3 -30.45 15.55 -31.6 L19.15 -33.25 18.65 -33.65 18.35 -33.65 Q14.35 -33.95 13.5 -34.65 L13.95 -35.35 17.8 -35.55 Q16.5 -36.85 11.35 -39.65 6.05 -42.6 4.75 -42.6 -1.75 -42.6 -6.55 -40.55 L-11.0 -38.5 -11.8 -38.95 -12.5 -39.9 Q-11.55 -40.95 -7.15 -42.6 -3.5 -43.95 -1.6 -44.1 L-2.6 -44.1 -2.6 -45.0 -4.75 -45.0 Q-24.05 -44.5 -32.75 -41.35 -41.0 -38.45 -41.0 -32.75 -41.0 -30.75 -39.9 -29.35 L-38.3 -27.6 -40.35 -27.65 M-44.4 -35.5 Q-43.25 -35.8 -42.35 -37.2 -41.1 -39.05 -40.0 -39.9 -35.15 -43.6 -19.3 -44.1 L-19.2 -44.15 -19.15 -45.0 Q-19.15 -45.6 -19.3 -45.55 L-19.75 -45.5 Q-30.2 -45.35 -37.65 -42.4 -44.85 -39.6 -44.55 -36.05 L-44.4 -35.5" fill="#989898" fill-rule="evenodd" stroke="none"/>
    <path d="M-33.45 -25.85 Q-43.05 -25.65 -46.2 -26.85 -50.75 -28.65 -50.75 -34.9 -50.75 -40.55 -44.4 -44.05 -37.85 -47.7 -23.0 -50.05 L-18.4 -50.25 Q-10.15 -50.25 -0.15 -47.25 11.25 -43.8 20.5 -37.6 24.4 -35.0 27.75 -25.75 30.9 -16.95 30.9 -9.95 30.9 -3.05 29.65 3.15 28.75 7.7 27.95 9.2 26.2 12.3 24.1 13.8 22.85 14.75 22.25 14.75 21.6 14.75 21.3 14.45 L20.9 13.85 20.75 13.25 Q20.6 12.15 19.4 10.35 18.35 8.7 17.75 8.35 17.9 7.75 18.3 7.55 18.95 7.7 20.7 9.85 L22.75 12.75 Q24.85 10.85 26.3 8.4 27.7 7.2 27.7 6.2 L27.5 5.85 28.2 3.85 Q29.6 -0.95 29.6 -8.8 29.6 -15.2 28.9 -18.55 27.25 -26.3 21.7 -33.85 18.35 -38.4 9.4 -42.65 -3.0 -48.55 -18.35 -48.55 -32.0 -48.55 -41.05 -44.1 -49.25 -40.1 -49.25 -35.05 -49.25 -32.25 -48.0 -30.25 -46.65 -28.2 -44.65 -28.1 -45.3 -29.95 -44.8 -31.55 L-44.0 -33.25 -42.9 -30.35 Q-41.9 -28.1 -40.35 -27.65 L-36.2 -27.35 -35.5 -27.3 -32.65 -26.5 -33.45 -25.85" fill="#606060" fill-rule="evenodd" stroke="none"/>
    <path d="M30.45 68.8 Q29.45 73.9 25.05 76.6 L23.2 77.5 17.8 76.3 Q16.6 75.95 15.5 75.25 12.25 73.1 10.9 69.4 9.25 64.65 11.3 59.85 13.1 55.75 16.4 52.95 L19.3 50.55 Q23.15 47.6 25.7 43.45 27.9 39.9 28.0 35.5 28.15 31.65 26.2 28.1 25.15 26.15 23.75 24.4 L21.95 21.9 Q20.25 19.6 18.95 17.0 18.45 16.0 18.25 14.85 17.45 10.75 18.65 6.55 19.85 2.2 22.35 -1.35 L26.4 -7.25 Q32.15 -16.4 33.35 -22.3 L33.65 -23.65 33.65 -24.25 34.05 -26.4 Q34.25 -27.95 33.7 -30.55 33.75 -31.2 31.25 -33.45 L29.2 -34.65 Q25.9 -35.6 25.1 -36.25 L25.2 -36.35 25.8 -36.4 Q33.15 -35.6 36.05 -31.65 38.0 -28.95 37.65 -25.85 37.35 -23.85 36.65 -23.3 L34.55 -18.4 Q31.65 -12.5 27.9 -7.1 23.9 -1.3 21.0 5.4 20.15 7.5 20.1 9.7 20.0 15.3 23.1 20.05 L25.95 24.6 Q26.55 25.5 26.75 26.25 L28.35 30.45 28.7 31.5 Q29.2 34.1 28.9 36.6 L28.55 38.5 Q27.75 41.45 26.25 44.0 24.0 47.85 20.7 50.7 L16.95 54.0 Q14.45 56.3 13.25 59.35 L12.5 60.9 Q11.1 63.75 11.55 66.95 12.05 70.65 14.9 73.2 L14.6 72.75 Q16.2 74.6 18.6 75.4 21.35 76.35 24.15 75.9 25.65 75.55 27.05 74.45 28.5 73.35 29.05 71.55 29.75 69.45 29.4 67.25 L29.5 66.75 30.45 68.8 M38.4 51.6 L38.75 52.7 37.7 54.85 Q37.25 55.3 36.8 55.05 L35.6 53.95 36.2 52.45 36.75 53.8 38.15 53.55 38.4 51.6 M46.75 50.2 Q47.45 46.05 47.55 41.95 L47.4 39.05 Q46.75 34.9 44.15 31.2 L40.25 25.65 Q38.05 22.85 36.6 19.8 35.9 18.2 35.6 16.3 L35.0 11.8 Q34.8 9.8 35.2 8.05 36.15 3.45 38.0 -0.8 L39.3 -3.7 40.2 -5.75 41.55 -9.85 42.8 -14.55 Q44.5 -30.1 39.6 -33.35 L39.2 -34.0 Q43.1 -33.55 44.75 -25.5 46.05 -19.25 45.45 -14.0 45.0 -9.75 42.35 -5.5 L42.25 -5.3 Q40.35 -2.45 38.8 0.75 L37.5 3.05 37.35 3.2 Q36.35 6.2 36.0 9.25 35.5 13.2 36.7 17.05 37.35 19.0 38.25 20.6 L39.3 22.15 Q42.5 26.2 45.3 30.6 46.8 32.95 47.6 35.85 49.3 41.95 48.2 48.25 L47.2 52.5 Q46.55 54.7 45.25 56.6 L43.3 58.85 Q41.65 60.3 39.7 59.6 L42.55 58.05 44.1 56.7 45.0 55.5 Q46.2 53.7 46.55 51.4 L46.6 51.15 46.75 50.2 M31.35 52.85 Q30.9 52.35 31.15 51.7 31.9 49.7 33.55 48.9 L35.15 48.8 Q36.1 48.95 36.7 49.65 37.9 51.15 37.7 53.0 L37.0 52.9 36.95 52.25 Q36.25 49.65 33.6 50.2 L33.55 50.15 33.35 50.3 Q32.7 50.25 32.1 51.0 31.45 51.75 31.35 52.85 M21.3 -32.0 Q27.4 -31.35 30.05 -27.45 31.9 -24.65 31.55 -21.6 L31.5 -21.2 Q31.4 -20.95 31.0 -20.95 L30.45 -22.95 Q29.75 -25.2 28.65 -26.75 27.35 -28.5 23.8 -29.75 20.7 -30.85 20.75 -31.35 20.8 -31.9 21.3 -32.0 M35.85 -5.0 L34.15 -1.05 Q32.4 3.4 31.55 8.45 30.8 5.75 31.75 2.8 33.2 -1.85 35.1 -6.3 L38.75 -14.15 Q39.45 -15.65 40.15 -18.25 L40.35 -19.3 40.35 -16.95 40.2 -15.05 36.35 -6.15 35.85 -5.0 M32.6 -5.8 Q30.75 -3.45 29.4 -0.75 28.7 0.7 28.4 2.15 28.05 4.4 27.85 6.6 L27.35 11.6 27.3 11.9 Q26.4 11.8 26.5 10.6 L26.6 8.25 Q26.7 -0.3 32.45 -6.6 L32.8 -6.55 Q32.9 -6.25 32.6 -5.8 M17.75 29.45 Q17.35 32.55 17.85 35.4 18.5 38.55 19.8 41.55 L18.95 41.9 Q17.3 40.55 17.15 38.25 L16.4 32.45 Q16.2 31.05 17.1 29.9 17.35 29.6 17.75 29.45 M39.75 34.15 Q41.15 37.5 40.75 41.3 L40.15 45.05 39.75 46.05 38.9 45.8 39.3 43.8 39.65 39.2 Q39.7 37.1 39.3 34.95 39.25 34.55 39.75 34.15" fill="#ffffff" fill-rule="evenodd" stroke="none"/>
    <path d="M20.95 -2.3 L23.0 -4.8 24.95 -7.4 24.95 -7.45 25.1 -7.6 Q26.7 -10.3 27.0 -13.15 27.25 -15.4 26.85 -17.3 L25.45 -22.1 Q24.5 -24.65 22.65 -26.5 25.55 -25.55 26.85 -24.05 L29.1 -20.5 29.35 -20.55 29.4 -20.75 Q29.55 -22.3 27.0 -25.05 24.2 -28.25 21.3 -28.15 L20.75 -28.2 20.0 -28.95 Q18.4 -30.7 18.45 -31.4 18.55 -32.15 19.85 -33.15 L20.8 -33.2 21.8 -33.55 25.2 -33.2 Q30.3 -30.4 31.65 -27.45 L32.0 -27.75 Q32.15 -29.3 29.35 -31.8 26.7 -34.0 24.3 -34.8 L20.7 -35.2 Q21.35 -36.85 27.85 -38.7 L28.95 -38.55 29.05 -38.45 Q32.0 -38.05 33.0 -37.0 L34.85 -35.2 35.05 -35.5 34.2 -37.25 Q33.25 -38.75 33.25 -39.2 L32.95 -40.05 34.1 -40.4 Q39.65 -38.3 41.7 -36.4 44.15 -34.1 45.4 -29.1 L46.95 -22.45 Q47.55 -18.5 47.15 -14.55 46.7 -10.35 43.55 -5.4 L40.55 0.95 39.05 4.65 Q37.6 8.55 37.25 12.55 37.05 15.15 37.9 17.5 38.45 19.0 39.45 20.45 41.95 24.35 44.85 27.7 L45.45 28.3 Q47.35 30.65 48.75 33.4 L49.6 35.2 50.1 38.05 Q50.45 39.25 50.4 40.55 L50.25 46.15 Q50.1 50.4 48.1 54.55 46.1 58.8 41.5 60.55 L38.2 61.3 Q36.0 61.3 33.9 60.55 32.5 60.0 31.45 58.85 30.55 57.9 30.1 56.7 29.3 54.6 29.6 52.5 L29.75 52.15 Q31.0 49.6 33.55 48.9 31.9 49.7 31.15 51.7 30.9 52.35 31.35 52.85 30.75 54.35 31.0 55.8 31.25 57.05 32.05 57.95 33.55 59.45 35.85 59.7 L36.85 59.8 37.6 59.9 38.7 59.8 39.7 59.6 Q41.65 60.3 43.3 58.85 L45.25 56.6 Q46.55 54.7 47.2 52.5 L48.2 48.25 Q49.3 41.95 47.6 35.85 46.8 32.95 45.3 30.6 42.5 26.2 39.3 22.15 L38.25 20.6 Q37.35 19.0 36.7 17.05 35.5 13.2 36.0 9.25 36.35 6.2 37.35 3.2 L37.5 3.05 38.8 0.75 Q40.35 -2.45 42.25 -5.3 L42.35 -5.5 Q45.0 -9.75 45.45 -14.0 46.05 -19.25 44.75 -25.5 43.1 -33.55 39.2 -34.0 L39.6 -33.35 Q44.5 -30.1 42.8 -14.55 L41.55 -9.85 40.2 -5.75 39.3 -3.7 38.0 -0.8 Q36.15 3.45 35.2 8.05 34.8 9.8 35.0 11.8 L35.6 16.3 Q35.9 18.2 36.6 19.8 38.05 22.85 40.25 25.65 L44.15 31.2 Q46.75 34.9 47.4 39.05 L47.55 41.95 Q47.45 46.05 46.75 50.2 47.25 46.75 46.55 43.3 L45.6 38.7 Q44.6 34.9 42.45 31.75 42.55 30.95 42.2 30.35 41.85 29.75 41.25 29.7 L40.15 27.85 40.0 27.6 38.25 25.25 36.4 23.0 35.05 20.7 Q34.05 18.65 33.6 16.35 L33.3 14.2 Q33.0 10.25 33.85 6.3 34.1 5.0 34.5 3.8 L38.4 -5.95 39.25 -5.85 39.8 -9.7 Q39.95 -11.6 39.05 -9.35 L37.65 -6.05 35.75 -1.75 34.05 2.3 32.55 6.95 Q32.15 8.15 32.2 9.7 L32.1 12.45 Q31.8 15.85 32.7 19.05 33.6 20.8 34.8 22.4 L39.4 28.95 41.35 31.9 42.0 35.7 42.35 37.55 Q42.95 40.8 42.1 44.15 40.95 48.45 38.75 52.7 L38.4 51.6 37.2 48.85 37.45 47.4 37.8 44.9 Q38.55 40.05 37.9 35.25 L37.9 35.15 37.95 34.3 37.7 32.3 Q36.95 28.85 34.8 26.15 L32.0 22.3 31.55 21.4 30.55 19.25 Q29.3 16.0 29.3 12.3 L29.35 8.4 Q29.45 5.3 30.55 2.55 L32.25 -1.55 31.6 -0.95 30.5 0.65 Q29.1 3.65 28.7 6.95 28.2 11.25 28.75 15.75 L29.5 20.4 Q30.25 24.15 30.55 28.15 L28.45 23.8 26.7 17.45 25.75 14.8 Q24.8 12.95 24.4 11.15 L24.15 9.65 Q23.8 6.3 24.95 3.3 26.9 -1.75 30.2 -6.0 L30.8 -6.75 Q35.75 -12.25 38.35 -19.45 39.85 -23.6 40.2 -27.2 40.6 -30.85 37.6 -32.35 L38.25 -31.3 38.45 -30.25 38.2 -30.45 38.7 -29.8 Q39.3 -28.45 38.95 -25.35 38.65 -22.75 37.25 -19.3 34.7 -13.1 29.35 -6.95 L26.2 -2.25 Q24.25 1.0 23.3 4.75 22.2 9.1 23.6 13.1 L25.65 19.65 Q27.0 24.0 29.0 27.65 30.8 32.35 29.6 37.2 28.45 42.05 26.0 46.35 L23.95 49.0 20.9 51.7 Q17.25 54.75 14.7 58.5 13.1 60.75 12.65 63.7 12.2 66.8 13.05 69.7 13.6 71.45 14.6 72.75 L14.9 73.2 Q12.05 70.65 11.55 66.95 11.1 63.75 12.5 60.9 L13.25 59.35 Q14.45 56.3 16.95 54.0 L20.7 50.7 Q24.0 47.85 26.25 44.0 27.75 41.45 28.55 38.5 L28.9 36.6 Q29.2 34.1 28.7 31.5 L28.35 30.45 26.75 26.25 Q26.55 25.5 25.95 24.6 L23.1 20.05 Q20.0 15.3 20.1 9.7 20.15 7.5 21.0 5.4 23.9 -1.3 27.9 -7.1 31.65 -12.5 34.55 -18.4 L36.65 -23.3 Q37.35 -23.85 37.65 -25.85 38.0 -28.95 36.05 -31.65 33.15 -35.6 25.8 -36.4 L25.2 -36.35 25.1 -36.25 Q25.9 -35.6 29.2 -34.65 L31.25 -33.45 Q33.75 -31.2 33.7 -30.55 34.25 -27.95 34.05 -26.4 L33.65 -24.25 33.65 -23.65 33.35 -22.3 Q32.15 -16.4 26.4 -7.25 L22.35 -1.35 Q19.85 2.2 18.65 6.55 17.45 10.75 18.25 14.85 18.45 16.0 18.95 17.0 20.25 19.6 21.95 21.9 L23.75 24.4 Q25.15 26.15 26.2 28.1 28.15 31.65 28.0 35.5 27.9 39.9 25.7 43.45 23.15 47.6 19.3 50.55 L16.4 52.95 Q13.1 55.75 11.3 59.85 9.25 64.65 10.9 69.4 12.25 73.1 15.5 75.25 16.6 75.95 17.8 76.3 L23.2 77.5 25.05 76.6 Q29.45 73.9 30.45 68.8 L30.4 69.25 Q29.4 74.3 25.6 77.4 23.75 78.85 21.5 78.2 L17.5 76.95 Q12.9 75.15 10.6 70.85 8.2 66.35 9.55 61.4 10.6 57.35 13.55 54.2 L16.3 51.4 19.1 49.0 21.65 46.9 Q25.25 43.8 26.45 39.3 27.3 36.1 26.85 33.1 26.65 31.0 25.6 29.4 23.3 25.7 20.25 22.45 17.1 19.05 16.4 14.65 15.7 10.45 17.55 6.45 L20.9 -2.1 20.95 -2.3 M21.3 -32.0 Q20.8 -31.9 20.75 -31.35 20.7 -30.85 23.8 -29.75 27.35 -28.5 28.65 -26.75 29.75 -25.2 30.45 -22.95 L31.0 -20.95 Q31.4 -20.95 31.5 -21.2 L31.55 -21.6 Q31.9 -24.65 30.05 -27.45 27.4 -31.35 21.3 -32.0 M32.6 -5.8 Q32.9 -6.25 32.8 -6.55 L32.45 -6.6 Q26.7 -0.3 26.6 8.25 L26.5 10.6 Q26.4 11.8 27.3 11.9 L27.35 11.6 27.85 6.6 Q28.05 4.4 28.4 2.15 28.7 0.7 29.4 -0.75 30.75 -3.45 32.6 -5.8 M35.85 -5.0 L36.35 -6.15 40.2 -15.05 40.35 -16.95 40.35 -19.3 40.15 -18.25 Q39.45 -15.65 38.75 -14.15 L35.1 -6.3 Q33.2 -1.85 31.75 2.8 30.8 5.75 31.55 8.45 32.4 3.4 34.15 -1.05 L35.85 -5.0 M39.7 18.35 L39.7 18.2 39.65 15.7 Q40.8 9.3 41.3 7.3 L42.35 3.1 Q42.65 1.45 43.45 0.35 44.2 -0.7 44.1 0.5 L44.0 7.05 Q43.7 9.5 42.85 11.55 42.0 13.65 41.8 15.3 L41.7 17.9 Q41.3 19.8 41.5 21.7 40.45 20.3 39.75 18.45 L39.7 18.35 M16.65 24.5 L19.4 29.8 Q19.15 31.5 19.4 33.15 L19.65 36.1 Q20.0 40.65 22.6 44.1 L20.4 46.3 Q17.5 43.1 16.1 38.75 15.15 36.0 15.35 33.1 15.55 28.7 16.65 24.5 M17.75 29.45 Q17.35 29.6 17.1 29.9 16.2 31.05 16.4 32.45 L17.15 38.25 Q17.3 40.55 18.95 41.9 L19.8 41.55 Q18.5 38.55 17.85 35.4 17.35 32.55 17.75 29.45 M34.9 36.45 Q34.3 41.05 31.8 44.85 L29.95 48.0 Q29.9 47.35 30.15 46.85 31.25 43.8 32.6 40.95 33.3 39.4 33.6 37.75 L33.85 33.6 33.5 30.8 33.15 29.2 Q33.45 29.35 33.6 29.6 34.15 30.5 34.4 31.55 35.1 34.0 34.9 36.45 M39.75 34.15 Q39.25 34.55 39.3 34.95 39.7 37.1 39.65 39.2 L39.3 43.8 38.9 45.8 39.75 46.05 40.15 45.05 40.75 41.3 Q41.15 37.5 39.75 34.15 M35.6 53.95 L36.8 55.05 Q37.25 55.3 37.7 54.85 L35.75 58.8 33.95 58.2 35.6 53.95 M33.6 50.2 L33.35 50.3 33.55 50.15 33.6 50.2 M25.7 51.05 L25.7 52.35 Q25.65 56.0 23.8 58.95 24.25 55.45 22.6 52.1 L25.4 49.35 25.7 51.05 M29.4 67.25 L29.35 66.7 29.25 66.2 29.5 66.75 29.4 67.25 M34.8 64.05 L34.6 65.25 Q34.4 68.3 35.75 71.15 33.1 67.85 33.3 63.5 L34.8 64.05" fill="#d1d1d1" fill-rule="evenodd" stroke="none"/>
    <path d="M34.1 -40.4 L32.95 -40.05 33.25 -39.2 Q33.25 -38.75 34.2 -37.25 L35.05 -35.5 34.85 -35.2 33.0 -37.0 Q32.0 -38.05 29.05 -38.45 L28.95 -38.55 27.85 -38.7 Q21.35 -36.85 20.7 -35.2 L24.3 -34.8 Q26.7 -34.0 29.35 -31.8 32.15 -29.3 32.0 -27.75 L31.65 -27.45 Q30.3 -30.4 25.2 -33.2 L21.8 -33.55 20.8 -33.2 19.85 -33.15 Q18.55 -32.15 18.45 -31.4 18.4 -30.7 20.0 -28.95 L20.75 -28.2 21.3 -28.15 Q24.2 -28.25 27.0 -25.05 29.55 -22.3 29.4 -20.75 L29.35 -20.55 29.1 -20.5 26.85 -24.05 Q25.55 -25.55 22.65 -26.5 24.5 -24.65 25.45 -22.1 L26.85 -17.3 Q27.25 -15.4 27.0 -13.15 26.7 -10.3 25.1 -7.6 L24.95 -7.45 24.95 -7.4 23.0 -4.8 20.95 -2.3 21.65 -4.85 22.05 -6.6 22.35 -8.0 22.55 -12.3 Q22.55 -15.65 22.1 -18.2 21.65 -20.75 18.0 -25.4 14.45 -30.05 15.75 -33.5 17.05 -36.9 23.55 -38.95 30.0 -40.95 34.1 -40.4 M29.0 27.65 Q27.0 24.0 25.65 19.65 L23.6 13.1 Q22.2 9.1 23.3 4.75 24.25 1.0 26.2 -2.25 L29.35 -6.95 Q34.7 -13.1 37.25 -19.3 38.65 -22.75 38.95 -25.35 39.3 -28.45 38.7 -29.8 L38.2 -30.45 38.45 -30.25 38.25 -31.3 37.6 -32.35 Q40.6 -30.85 40.2 -27.2 39.85 -23.6 38.35 -19.45 35.75 -12.25 30.8 -6.75 L30.2 -6.0 Q26.9 -1.75 24.95 3.3 23.8 6.3 24.15 9.65 L24.4 11.15 Q24.8 12.95 25.75 14.8 L26.7 17.45 28.45 23.8 28.35 23.6 29.0 27.65 M30.55 28.15 Q30.25 24.15 29.5 20.4 L28.75 15.75 Q28.2 11.25 28.7 6.95 29.1 3.65 30.5 0.65 L31.6 -0.95 32.25 -1.55 30.55 2.55 Q29.45 5.3 29.35 8.4 L29.3 12.3 Q29.3 16.0 30.55 19.25 L31.55 21.4 32.0 22.3 34.8 26.15 Q36.95 28.85 37.7 32.3 L37.95 34.3 37.9 35.15 37.3 31.85 37.1 32.9 Q36.6 35.65 37.1 38.3 L36.2 39.65 Q34.05 43.4 32.15 47.2 L31.6 47.95 29.95 49.75 Q28.95 50.9 28.35 52.25 27.9 53.5 27.9 54.75 27.85 57.3 29.0 59.55 L28.0 63.85 26.4 63.95 Q23.9 64.1 23.45 66.45 L23.8 62.9 25.75 60.45 Q26.65 59.35 26.9 58.0 27.85 52.95 26.3 48.25 L28.0 45.3 Q30.2 41.65 31.0 37.25 31.95 32.55 30.55 28.15 M38.75 52.7 Q40.95 48.45 42.1 44.15 42.95 40.8 42.35 37.55 L42.0 35.7 41.35 31.9 41.35 31.85 41.7 32.65 41.9 33.5 Q43.0 36.65 43.4 40.15 44.1 45.9 41.55 51.1 40.05 54.25 39.0 57.55 L38.65 59.1 35.9 58.85 35.75 58.85 35.75 58.8 37.7 54.85 38.75 52.7 M32.7 19.05 Q31.8 15.85 32.1 12.45 L32.2 9.7 Q32.15 8.15 32.55 6.95 L34.05 2.3 35.75 -1.75 37.65 -6.05 39.05 -9.35 Q39.95 -11.6 39.8 -9.7 L39.25 -5.85 38.4 -5.95 34.5 3.8 Q34.1 5.0 33.85 6.3 33.0 10.25 33.3 14.2 L33.6 16.35 Q34.05 18.65 35.05 20.7 L36.4 23.0 38.25 25.25 40.0 27.6 40.15 27.85 Q36.65 25.05 34.2 21.2 L33.05 19.6 32.7 19.05 M41.25 29.7 Q41.85 29.75 42.2 30.35 42.55 30.95 42.45 31.75 L41.25 29.7 M29.6 52.5 Q29.3 54.6 30.1 56.7 30.55 57.9 31.45 58.85 32.5 60.0 33.9 60.55 36.0 61.3 38.2 61.3 L41.5 60.55 Q46.1 58.8 48.1 54.55 50.1 50.4 50.25 46.15 L50.4 40.55 Q50.45 39.25 50.1 38.05 L49.6 35.2 Q51.25 39.35 51.25 44.0 51.25 48.45 50.35 53.0 49.9 55.35 48.5 57.25 45.55 61.25 40.9 62.85 L39.7 63.1 36.05 63.0 Q31.15 62.15 29.5 57.5 28.75 55.35 29.35 53.15 L29.6 52.5 M39.7 18.35 L38.9 15.25 Q38.0 11.15 39.8 6.45 41.55 1.7 43.55 -2.65 L44.2 -3.9 Q45.65 0.1 45.15 5.1 44.65 10.1 42.9 14.05 42.05 16.0 41.7 17.9 L41.8 15.3 Q42.0 13.65 42.85 11.55 43.7 9.5 44.0 7.05 L44.1 0.5 Q44.2 -0.7 43.45 0.35 42.65 1.45 42.35 3.1 L41.3 7.3 Q40.8 9.3 39.65 15.7 L39.7 18.2 39.7 18.35 M16.65 24.5 L17.6 21.4 20.45 24.85 Q20.2 25.1 20.1 25.45 19.5 27.45 19.4 29.8 L16.65 24.5 M34.9 36.45 Q35.1 34.0 34.4 31.55 34.15 30.5 33.6 29.6 33.45 29.35 33.15 29.2 L33.5 30.8 33.85 33.6 33.6 37.75 Q33.3 39.4 32.6 40.95 31.25 43.8 30.15 46.85 29.9 47.35 29.95 48.0 L31.8 44.85 Q34.3 41.05 34.9 36.45 M23.8 58.95 Q25.65 56.0 25.7 52.35 L25.7 51.05 Q26.15 52.95 26.15 55.05 26.1 59.75 22.35 62.65 L23.8 58.95 M26.5 73.35 L24.95 74.25 25.0 74.05 24.6 72.95 23.8 70.0 23.4 66.7 23.45 66.9 23.65 67.2 23.95 67.3 24.35 67.15 Q24.95 65.7 26.35 65.8 27.0 65.85 27.4 66.2 28.15 66.95 28.25 67.75 28.8 71.05 26.5 73.35 M34.8 64.05 L38.1 64.5 Q37.95 66.35 38.75 68.05 39.95 70.9 42.85 72.1 L46.7 72.5 Q48.55 72.5 50.2 71.5 52.6 70.05 52.75 67.25 52.85 65.75 52.6 64.3 52.25 62.5 50.2 62.3 50.45 62.15 50.8 62.1 L51.8 62.25 Q53.1 62.7 53.4 63.9 L53.75 65.85 53.7 68.55 Q53.45 70.5 52.3 72.1 50.9 74.15 48.45 74.9 45.7 75.8 42.6 75.7 41.25 75.4 40.15 74.8 38.05 73.5 36.25 71.75 L35.75 71.15 Q34.4 68.3 34.6 65.25 L34.8 64.05 M27.85 78.1 L27.4 77.8 28.45 76.7 28.9 78.65 27.85 78.1" fill="#989898" fill-rule="evenodd" stroke="none"/>
    <path d="M20.95 -2.3 L20.9 -2.1 17.55 6.45 Q15.7 10.45 16.4 14.65 17.1 19.05 20.25 22.45 23.3 25.7 25.6 29.4 26.65 31.0 26.85 33.1 27.3 36.1 26.45 39.3 25.25 43.8 21.65 46.9 L19.1 49.0 16.3 51.4 13.55 54.2 Q10.6 57.35 9.55 61.4 8.2 66.35 10.6 70.85 12.9 75.15 17.5 76.95 L21.5 78.2 Q23.75 78.85 25.6 77.4 29.4 74.3 30.4 69.25 L30.45 68.8 29.5 66.75 29.25 66.2 29.35 66.7 29.4 67.25 Q29.75 69.45 29.05 71.55 28.5 73.35 27.05 74.45 25.65 75.55 24.15 75.9 21.35 76.35 18.6 75.4 16.2 74.6 14.6 72.75 13.6 71.45 13.05 69.7 12.2 66.8 12.65 63.7 13.1 60.75 14.7 58.5 17.25 54.75 20.9 51.7 L23.95 49.0 26.0 46.35 Q28.45 42.05 29.6 37.2 30.8 32.35 29.0 27.65 L28.35 23.6 28.45 23.8 30.55 28.15 Q31.95 32.55 31.0 37.25 30.2 41.65 28.0 45.3 L26.3 48.25 Q27.85 52.95 26.9 58.0 26.65 59.35 25.75 60.45 L23.8 62.9 23.45 66.45 Q23.9 64.1 26.4 63.95 L28.0 63.85 29.0 59.55 Q27.85 57.3 27.9 54.75 27.9 53.5 28.35 52.25 28.95 50.9 29.95 49.75 L31.6 47.95 32.15 47.2 Q34.05 43.4 36.2 39.65 L37.1 38.3 Q36.6 35.65 37.1 32.9 L37.3 31.85 37.9 35.15 37.9 35.25 Q38.55 40.05 37.8 44.9 L37.45 47.4 37.2 48.85 38.4 51.6 38.15 53.55 36.75 53.8 36.2 52.45 35.6 53.95 33.95 58.2 35.75 58.8 35.75 58.85 35.9 58.85 38.65 59.1 39.0 57.55 Q40.05 54.25 41.55 51.1 44.1 45.9 43.4 40.15 43.0 36.65 41.9 33.5 L41.7 32.65 41.35 31.85 41.35 31.9 39.4 28.95 34.8 22.4 Q33.6 20.8 32.7 19.05 L33.05 19.6 34.2 21.2 Q36.65 25.05 40.15 27.85 L41.25 29.7 42.45 31.75 Q44.6 34.9 45.6 38.7 L46.55 43.3 Q47.25 46.75 46.75 50.2 L46.6 51.15 46.55 51.4 Q46.2 53.7 45.0 55.5 L44.1 56.7 42.55 58.05 39.7 59.6 38.7 59.8 37.6 59.9 36.85 59.8 35.85 59.7 Q33.55 59.45 32.05 57.95 31.25 57.05 31.0 55.8 30.75 54.35 31.35 52.85 31.45 51.75 32.1 51.0 32.7 50.25 33.35 50.3 L33.6 50.2 Q36.25 49.65 36.95 52.25 L37.0 52.9 37.7 53.0 Q37.9 51.15 36.7 49.65 36.1 48.95 35.15 48.8 L33.55 48.9 Q31.0 49.6 29.75 52.15 L29.6 52.5 29.35 53.15 Q28.75 55.35 29.5 57.5 31.15 62.15 36.05 63.0 L39.7 63.1 40.9 62.85 Q45.55 61.25 48.5 57.25 49.9 55.35 50.35 53.0 51.25 48.45 51.25 44.0 51.25 39.35 49.6 35.2 L48.75 33.4 Q47.35 30.65 45.45 28.3 L44.85 27.7 Q41.95 24.35 39.45 20.45 38.45 19.0 37.9 17.5 37.05 15.15 37.25 12.55 37.6 8.55 39.05 4.65 L40.55 0.95 43.55 -5.4 Q46.7 -10.35 47.15 -14.55 47.55 -18.5 46.95 -22.45 L45.4 -29.1 Q44.15 -34.1 41.7 -36.4 39.65 -38.3 34.1 -40.4 30.0 -40.95 23.55 -38.95 17.05 -36.9 15.75 -33.5 14.45 -30.05 18.0 -25.4 21.65 -20.75 22.1 -18.2 22.55 -15.65 22.55 -12.3 L22.35 -8.0 22.05 -6.6 21.65 -4.85 20.95 -2.3 M44.3 25.1 Q47.7 28.45 49.8 32.8 50.9 35.1 51.5 37.4 L51.95 39.8 52.05 41.4 Q52.3 45.75 52.0 50.15 51.65 55.05 48.6 58.95 45.7 62.6 41.1 64.0 L39.35 64.5 40.35 68.15 Q40.7 68.9 41.3 69.5 L42.9 70.5 44.8 71.2 Q46.95 71.95 49.0 71.15 50.45 70.45 51.1 69.0 51.95 67.15 52.05 65.2 52.1 64.35 51.65 63.55 L50.9 63.15 49.1 63.15 Q48.7 61.95 49.95 61.55 52.05 60.65 53.45 62.2 54.15 63.05 54.4 64.0 54.85 66.35 54.45 68.8 L53.9 71.1 Q53.5 72.45 52.5 73.45 49.3 76.7 44.7 76.75 L41.2 76.7 Q38.65 76.0 36.65 74.0 L34.95 72.2 Q32.9 69.95 32.25 66.95 31.8 65.0 32.1 62.95 L29.55 60.55 29.05 64.3 Q31.35 66.35 31.3 69.2 31.3 70.5 30.8 71.8 L29.5 75.0 29.0 75.9 30.7 80.35 Q30.55 80.65 30.25 80.55 28.55 80.45 27.3 79.3 L26.5 78.4 Q24.25 79.55 21.55 79.5 18.6 78.55 15.75 77.35 14.5 76.9 13.35 76.1 11.9 75.0 10.75 73.55 9.7 72.2 9.0 70.55 7.45 67.15 8.05 63.55 9.25 56.05 15.15 50.85 L18.3 48.1 19.5 47.1 Q15.9 43.7 14.85 39.05 L14.2 35.45 Q14.0 33.35 14.25 31.3 L15.2 24.6 Q15.3 23.75 15.7 22.9 L16.9 20.05 Q15.45 16.85 15.05 13.45 14.7 10.6 15.65 7.9 L19.75 -2.65 20.7 -6.75 21.05 -10.7 Q21.35 -14.3 20.9 -17.7 20.35 -21.25 16.35 -25.6 12.45 -29.9 14.6 -33.85 16.8 -37.7 22.4 -40.0 28.0 -42.3 32.35 -41.8 43.0 -40.65 46.7 -30.15 49.25 -23.1 48.3 -14.6 48.2 -13.75 46.7 -9.75 L45.05 -5.2 Q45.0 -4.85 45.25 -4.5 L46.15 -1.75 Q47.8 6.6 44.65 14.25 43.5 17.05 42.75 20.15 42.4 21.65 42.65 23.2 L44.3 25.1 M41.7 17.9 Q42.05 16.0 42.9 14.05 44.65 10.1 45.15 5.1 45.65 0.1 44.2 -3.9 L43.55 -2.65 Q41.55 1.7 39.8 6.45 38.0 11.15 38.9 15.25 L39.7 18.35 39.75 18.45 Q40.45 20.3 41.5 21.7 41.3 19.8 41.7 17.9 M43.8 55.4 Q46.1 51.85 46.05 47.65 46.0 42.9 44.55 38.45 44.9 40.9 44.65 43.45 44.45 45.5 43.75 47.7 L41.1 54.9 39.6 58.95 Q40.55 58.85 41.35 58.25 42.55 57.35 43.35 56.1 L43.8 55.4 M19.4 29.8 Q19.5 27.45 20.1 25.45 20.2 25.1 20.45 24.85 L17.6 21.4 16.65 24.5 Q15.55 28.7 15.35 33.1 15.15 36.0 16.1 38.75 17.5 43.1 20.4 46.3 L22.6 44.1 Q20.0 40.65 19.65 36.1 L19.4 33.15 Q19.15 31.5 19.4 29.8 M25.7 37.05 Q26.35 32.3 23.55 28.5 L21.15 25.6 Q19.2 32.3 21.5 38.75 L23.15 43.45 Q24.45 41.85 25.1 39.65 L25.7 37.05 M34.45 47.65 L36.55 48.35 37.1 39.9 33.2 47.65 34.45 47.65 M34.8 51.05 Q32.6 51.2 32.0 53.45 31.6 54.95 32.3 56.25 32.55 57.0 33.15 57.7 L35.7 51.45 34.8 51.05 M25.7 51.05 L25.4 49.35 22.6 52.1 Q24.25 55.45 23.8 58.95 L22.35 62.65 Q26.1 59.75 26.15 55.05 26.15 52.95 25.7 51.05 M16.2 66.8 L15.3 66.4 Q15.3 65.65 16.2 65.6 17.7 65.35 18.8 64.55 L21.05 62.55 Q22.25 61.2 22.6 59.35 23.3 55.9 21.8 52.75 18.2 55.2 15.75 58.7 L14.6 60.45 14.1 61.75 Q13.35 65.0 13.9 68.25 14.5 72.05 18.0 73.75 21.0 75.15 24.05 74.7 22.55 72.55 22.4 70.0 22.25 68.45 22.4 66.85 L22.65 64.05 Q19.9 66.75 16.2 66.8 M26.5 73.35 Q28.8 71.05 28.25 67.75 28.15 66.95 27.4 66.2 27.0 65.85 26.35 65.8 24.95 65.7 24.35 67.15 L23.95 67.3 23.65 67.2 23.45 66.9 23.4 66.7 23.8 70.0 24.6 72.95 25.0 74.05 24.95 74.25 26.5 73.35 M35.75 71.15 L36.25 71.75 Q38.05 73.5 40.15 74.8 41.25 75.4 42.6 75.7 45.7 75.8 48.45 74.9 50.9 74.15 52.3 72.1 53.45 70.5 53.7 68.55 L53.75 65.85 53.4 63.9 Q53.1 62.7 51.8 62.25 L50.8 62.1 Q50.45 62.15 50.2 62.3 52.25 62.5 52.6 64.3 52.85 65.75 52.75 67.25 52.6 70.05 50.2 71.5 48.55 72.5 46.7 72.5 L42.85 72.1 Q39.95 70.9 38.75 68.05 37.95 66.35 38.1 64.5 L34.8 64.05 33.3 63.5 Q33.1 67.85 35.75 71.15 M27.85 78.1 L28.9 78.65 28.45 76.7 27.4 77.8 27.85 78.1" fill="#606060" fill-rule="evenodd" stroke="none"/>
  </g>
</svg>
