<?xml version="1.0" encoding="UTF-8" standalone="no"?>
<svg xmlns:ffdec="https://www.free-decompiler.com/flash" xmlns:xlink="http://www.w3.org/1999/xlink" ffdec:objectType="shape" height="33.3px" width="26.3px" xmlns="http://www.w3.org/2000/svg">
  <g transform="matrix(1.0, 0.0, 0.0, 1.0, 15.65, 28.95)">
    <path d="M-6.95 -3.65 Q-9.05 -7.5 -9.6 -11.85 -10.2 -16.5 -10.15 -21.05 L-10.0 -22.35 -9.4 -23.05 -8.45 -23.3 Q-7.25 -23.05 -6.15 -22.4 L0.15 -18.1 2.9 -15.9 4.3 -14.65 5.2 -13.6 Q6.9 -11.2 7.2 -8.35 7.8 -9.7 7.85 -11.05 7.9 -12.7 7.0 -14.15 5.35 -16.6 3.25 -18.65 0.15 -21.7 -3.5 -24.1 -5.0 -25.05 -6.75 -25.75 L-9.05 -26.4 -11.1 -26.85 Q-12.05 -26.45 -12.35 -25.65 -13.1 -24.15 -13.4 -22.45 L-13.65 -20.15 -13.5 -15.05 Q-13.45 -12.9 -12.8 -10.95 L-10.45 -4.9 Q-9.2 -2.1 -7.3 0.2 -6.65 1.05 -5.7 1.4 L-4.1 1.5 -2.9 1.15 Q-5.75 -0.7 -6.95 -3.65 M5.4 -19.35 Q7.2 -16.45 9.65 -14.25 L10.65 -13.4 Q10.7 -11.85 10.2 -10.25 9.45 -7.65 8.3 -5.3 L7.3 -3.8 Q3.7 0.35 -1.0 3.0 -2.45 3.8 -4.05 4.3 -6.25 4.65 -7.85 3.35 L-9.55 1.6 Q-11.4 -0.7 -12.5 -3.35 L-15.2 -10.95 -15.3 -11.5 Q-16.0 -17.3 -15.2 -23.0 -14.95 -25.05 -14.2 -26.95 -13.3 -29.0 -11.3 -28.95 -9.85 -28.8 -8.45 -28.25 -4.35 -26.7 -0.7 -24.4 L2.25 -22.45 Q4.2 -21.2 5.4 -19.35 M1.9 -15.0 Q-0.85 -18.3 -4.85 -20.2 L-8.55 -21.8 Q-9.0 -20.05 -8.75 -18.1 L-8.0 -14.15 -7.05 -9.85 -6.95 -9.4 -6.15 -7.0 -4.2 -2.8 -3.55 -2.05 Q-1.85 -0.9 0.25 -0.75 3.5 -2.95 5.9 -6.05 L5.7 -7.05 Q5.05 -11.7 1.9 -15.0" fill="#270e10" fill-rule="evenodd" stroke="none"/>
    <path d="M2.9 -15.9 L2.5 -16.85 3.25 -17.75 3.25 -18.65 Q5.35 -16.6 7.0 -14.15 7.9 -12.7 7.85 -11.05 7.8 -9.7 7.2 -8.35 6.9 -11.2 5.2 -13.6 L4.3 -14.65 2.9 -15.9 M-10.45 -4.9 L-6.95 -3.65 Q-5.75 -0.7 -2.9 1.15 L-4.1 1.5 -5.7 1.4 Q-6.65 1.05 -7.3 0.2 -9.2 -2.1 -10.45 -4.9" fill="#42171b" fill-rule="evenodd" stroke="none"/>
    <path d="M-7.05 -9.85 Q-6.2 -9.6 -5.65 -8.9 L-3.95 -6.3 Q-3.4 -5.2 -2.15 -5.0 -0.5 -5.05 0.35 -6.8 1.5 -9.1 1.45 -11.6 1.5 -13.2 1.9 -15.0 5.05 -11.7 5.7 -7.05 L5.9 -6.05 Q3.5 -2.95 0.25 -0.75 -1.85 -0.9 -3.55 -2.05 L-4.2 -2.8 -6.15 -7.0 -6.95 -9.4 -7.05 -9.85" fill="#df4aa0" fill-rule="evenodd" stroke="none"/>
    <path d="M1.9 -15.0 Q1.5 -13.2 1.45 -11.6 1.5 -9.1 0.35 -6.8 -0.5 -5.05 -2.15 -5.0 -3.4 -5.2 -3.95 -6.3 L-5.65 -8.9 Q-6.2 -9.6 -7.05 -9.85 L-8.0 -14.15 -8.75 -18.1 Q-9.0 -20.05 -8.55 -21.8 L-4.85 -20.2 Q-0.85 -18.3 1.9 -15.0" fill="#f075bc" fill-rule="evenodd" stroke="none"/>
    <path d="M2.9 -15.9 L0.15 -18.1 -6.15 -22.4 Q-7.25 -23.05 -8.45 -23.3 L-9.4 -23.05 -10.0 -22.35 -10.15 -21.05 Q-10.2 -16.5 -9.6 -11.85 -9.05 -7.5 -6.95 -3.65 L-10.45 -4.9 -12.8 -10.95 Q-13.45 -12.9 -13.5 -15.05 L-13.65 -20.15 -13.4 -22.45 Q-13.1 -24.15 -12.35 -25.65 -12.05 -26.45 -11.1 -26.85 L-9.05 -26.4 -6.75 -25.75 Q-5.0 -25.05 -3.5 -24.1 0.15 -21.7 3.25 -18.65 L3.25 -17.75 2.5 -16.85 2.9 -15.9" fill="#6e262d" fill-rule="evenodd" stroke="none"/>
  </g>
</svg>
