<?xml version="1.0" encoding="UTF-8" standalone="no"?>
<svg xmlns:ffdec="https://www.free-decompiler.com/flash" xmlns:xlink="http://www.w3.org/1999/xlink" ffdec:objectType="shape" height="20.2px" width="32.7px" xmlns="http://www.w3.org/2000/svg">
  <g transform="matrix(1.0, 0.0, 0.0, 1.0, 9.3, 8.55)">
    <path d="M1.1 -5.1 L-0.85 -5.9 Q-0.45 -6.3 1.15 -6.7 L1.1 -5.1 M12.6 -5.3 L12.9 -6.45 14.1 -5.85 Q13.4 -5.45 12.6 -5.3" fill="#616161" fill-rule="evenodd" stroke="none"/>
    <path d="M17.5 -5.0 L15.85 -6.5 Q14.85 -7.15 13.2 -7.5 L14.05 -7.1 Q15.2 -6.45 15.2 -5.5 14.5 -4.9 11.95 -4.3 L6.45 -3.65 Q2.35 -3.7 0.4 -4.55 L-1.45 -5.3 Q-1.9 -5.5 -1.9 -6.0 -1.9 -6.6 -1.3 -7.0 -0.65 -7.3 -0.65 -7.4 -2.75 -6.9 -4.0 -5.3 -5.3 -2.35 -8.15 3.5 L-9.3 2.9 -8.0 0.15 -5.7 -4.65 Q-5.25 -6.4 -3.85 -7.25 -2.4 -8.15 1.05 -8.45 L1.15 -6.7 Q-0.45 -6.3 -0.85 -5.9 L1.1 -5.1 3.75 -4.6 6.0 -4.5 10.3 -4.95 11.4 -5.1 12.7 -8.55 13.4 -8.5 Q15.25 -8.3 17.55 -6.55 L20.35 -1.65 22.75 2.8 Q23.4 4.0 23.4 4.75 23.4 6.7 20.2 8.5 L19.5 8.9 19.2 8.1 Q22.2 6.25 22.2 4.8 22.2 4.15 21.4 2.6 L17.5 -5.0 M12.6 -5.3 Q13.4 -5.45 14.1 -5.85 L12.9 -6.45 12.6 -5.3 M8.1 10.8 L8.05 11.65 4.15 11.65 -2.15 11.0 -1.9 10.05 4.9 10.85 8.1 10.8" fill="#464646" fill-rule="evenodd" stroke="none"/>
    <path d="M17.5 -5.0 L21.4 2.6 Q22.2 4.15 22.2 4.8 22.2 6.25 19.2 8.1 L18.5 6.2 18.85 4.95 17.2 0.85 15.3 -3.7 Q16.7 -4.4 17.5 -5.0 M-8.15 3.5 Q-5.3 -2.35 -4.0 -5.3 -3.95 -4.45 -3.2 -3.8 L-2.8 -3.5 Q-4.2 0.7 -6.15 4.25 L-7.0 3.95 -8.15 3.5 M8.2 9.2 L8.1 10.8 4.9 10.85 -1.9 10.05 -1.5 8.45 Q3.15 9.7 7.25 9.3 L8.2 9.2" fill="#8a8a8a" fill-rule="evenodd" stroke="none"/>
    <path d="M-3.2 -3.8 L-2.8 -3.55 -2.8 -3.5 -2.75 -3.5 -0.5 -2.95 -2.3 5.3 -6.15 4.25 Q-4.2 0.7 -2.8 -3.5 L-3.2 -3.8 M12.6 -3.05 L15.3 -3.7 17.2 0.85 18.85 4.95 18.5 6.2 17.95 4.6 16.3 5.0 16.3 4.85 Q16.15 3.75 12.6 -3.05 M8.3 7.55 L8.2 9.2 7.25 9.3 Q3.15 9.7 -1.5 8.45 L-1.0 6.4 Q4.45 7.65 8.3 7.55" fill="#b4b4b4" fill-rule="evenodd" stroke="none"/>
    <path d="M-0.5 -2.95 Q6.6 -1.65 12.6 -3.05 16.15 3.75 16.3 4.85 L16.3 5.0 8.4 6.05 8.3 7.55 Q4.45 7.65 -1.0 6.4 L-0.75 5.55 -2.3 5.3 -0.5 -2.95" fill="#e0e0e0" fill-rule="evenodd" stroke="none"/>
    <path d="M-4.0 -5.3 Q-2.75 -6.9 -0.65 -7.4 -0.65 -7.3 -1.3 -7.0 -1.9 -6.6 -1.9 -6.0 -1.9 -5.5 -1.45 -5.3 L0.4 -4.55 Q2.35 -3.7 6.45 -3.65 L11.95 -4.3 Q14.5 -4.9 15.2 -5.5 15.2 -6.45 14.05 -7.1 L13.2 -7.5 Q14.85 -7.15 15.85 -6.5 L17.5 -5.0 Q16.7 -4.4 15.3 -3.7 L12.6 -3.05 Q6.6 -1.65 -0.5 -2.95 L-2.75 -3.5 -2.8 -3.5 -2.8 -3.55 -3.2 -3.8 Q-3.95 -4.45 -4.0 -5.3" fill="#ffffff" fill-rule="evenodd" stroke="none"/>
    <path d="M12.75 -5.8 L12.9 -6.45 13.6 -6.1 12.75 -5.8" fill="#4d4d4d" fill-rule="evenodd" stroke="none"/>
    <path d="M9.0 -3.75 L8.9 -2.45 1.35 -2.65 1.75 -4.1 6.45 -3.65 9.0 -3.75 M14.45 -5.05 Q14.95 -5.3 15.2 -5.5 15.2 -6.45 14.05 -7.1 L13.2 -7.5 Q14.85 -7.15 15.85 -6.5 L17.5 -5.0 Q16.7 -4.4 15.3 -3.7 L15.0 -3.6 14.45 -5.05" fill="#b5b5b5" fill-rule="evenodd" stroke="none"/>
    <path d="M8.9 -2.45 L8.4 6.05 6.4 6.05 -0.75 5.55 1.35 -2.65 8.9 -2.45" fill="#a9a9a9" fill-rule="evenodd" stroke="none"/>
    <path d="M15.0 -3.6 L15.3 -3.7 17.2 0.85 18.7 4.35 17.95 4.6 15.0 -3.6" fill="#8b8b8b" fill-rule="evenodd" stroke="none"/>
    <path d="M17.5 -5.0 L21.4 2.6 21.7 3.15 19.8 3.95 18.7 4.35 17.2 0.85 15.3 -3.7 Q16.7 -4.4 17.5 -5.0" fill="#6c6c6c" fill-rule="evenodd" stroke="none"/>
    <path d="M1.75 -4.1 L1.95 -4.9 3.75 -4.6 6.0 -4.5 9.05 -4.75 9.0 -3.75 6.45 -3.65 1.75 -4.1 M17.5 -5.0 L15.85 -6.5 Q14.85 -7.15 13.2 -7.5 L14.05 -7.1 Q15.2 -6.45 15.2 -5.5 14.95 -5.3 14.45 -5.05 L14.2 -5.8 13.8 -6.2 13.6 -6.1 12.9 -6.45 12.75 -5.8 11.5 -5.3 12.7 -8.55 13.4 -8.5 Q15.25 -8.3 17.55 -6.55 L20.35 -1.65 22.65 2.6 21.7 3.15 21.4 2.6 17.5 -5.0" fill="#3c3c3c" fill-rule="evenodd" stroke="none"/>
  </g>
</svg>
