<?xml version="1.0" encoding="UTF-8" standalone="no"?>
<svg xmlns:ffdec="https://www.free-decompiler.com/flash" xmlns:xlink="http://www.w3.org/1999/xlink" ffdec:objectType="shape" height="60.2px" width="437.3px" xmlns="http://www.w3.org/2000/svg">
  <g transform="matrix(1.0, 0.0, 0.0, 1.0, 32.0, 7.15)">
    <path d="M-29.85 41.65 Q-28.25 43.05 -25.15 43.05 L-19.0 43.05 Q-14.4 43.2 -12.15 39.7 -11.4 43.05 -6.05 43.05 L0.15 43.05 Q6.2 43.3 8.05 36.9 12.65 42.95 21.2 43.05 29.35 43.1 36.35 37.1 L36.4 37.1 38.05 35.55 38.05 36.35 Q38.05 43.5 44.05 43.05 L44.25 43.05 50.9 43.05 51.2 43.05 Q54.1 43.4 56.7 39.6 57.05 40.7 57.95 41.6 59.4 43.05 61.45 43.05 L67.95 43.05 68.4 43.05 Q69.8 43.1 70.95 42.5 73.15 41.4 74.4 38.1 L74.4 38.15 84.35 11.8 84.5 11.25 84.7 10.3 Q84.9 9.1 84.7 8.15 L84.55 7.45 84.55 7.4 87.55 15.25 87.3 16.75 Q86.55 22.05 87.8 26.6 L79.55 48.35 79.55 48.3 Q78.35 51.45 76.25 52.5 75.15 53.1 73.85 53.05 L73.4 53.05 67.2 53.05 Q65.25 53.05 63.85 51.65 63.0 50.8 62.65 49.75 60.2 53.35 57.4 53.05 L57.15 53.05 50.8 53.05 50.6 53.05 Q44.9 53.45 44.9 46.65 L44.9 45.9 43.3 47.35 43.25 47.35 Q36.6 53.1 28.8 53.05 20.65 52.95 16.25 47.15 14.5 53.3 8.7 53.05 L2.8 53.05 Q-2.3 53.05 -3.0 49.85 -5.15 53.2 -9.55 53.05 L-15.4 53.05 Q-19.25 53.05 -20.65 50.85 -24.3 46.85 -29.85 41.65 M21.45 3.25 Q18.75 4.2 16.15 5.9 L17.3 1.6 Q18.05 -1.35 17.3 -3.15 L21.45 3.25 M88.95 29.9 Q90.2 32.6 92.2 35.05 L93.7 36.7 Q99.95 43.0 109.5 43.05 118.05 43.1 125.0 37.8 125.25 39.6 126.4 40.7 127.9 43.05 131.6 43.05 L150.85 43.05 154.3 42.5 157.4 43.05 170.25 43.05 173.4 42.6 176.2 43.05 195.45 43.05 198.65 42.6 202.0 43.05 213.3 43.05 Q218.35 43.05 222.05 40.2 223.7 43.2 228.05 43.05 L232.75 43.05 Q236.4 43.05 237.95 40.75 L238.25 40.4 238.35 40.5 Q240.6 43.3 243.4 43.0 245.5 43.15 247.7 41.5 L248.05 41.2 249.2 40.1 249.95 40.5 250.15 40.6 254.7 42.5 255.05 42.6 257.45 43.0 Q261.9 43.4 263.7 38.35 L264.85 38.45 267.05 38.45 268.8 38.15 269.25 39.05 269.2 38.95 Q271.4 43.35 275.4 43.0 L277.7 42.65 278.35 42.4 281.15 41.1 Q282.95 43.2 286.5 43.05 L291.2 43.05 Q295.05 43.05 296.5 40.55 297.45 39.6 297.7 38.15 299.15 43.25 304.55 43.05 L309.25 43.05 Q311.3 43.05 312.65 42.35 314.2 43.15 316.35 43.05 L321.05 43.05 Q324.4 43.05 325.9 41.25 L326.0 41.35 Q327.5 43.05 330.9 43.05 L335.6 43.05 Q339.65 43.05 341.0 40.35 341.75 39.55 342.0 38.45 348.3 43.1 355.45 43.05 359.1 43.05 362.0 41.95 L362.0 41.9 Q364.6 40.9 366.7 39.05 L368.15 40.55 368.25 40.6 Q370.4 42.4 373.1 42.9 L373.95 42.95 374.3 42.95 374.7 42.95 Q377.2 42.95 379.05 41.8 L380.0 41.05 380.05 41.0 Q382.0 42.45 384.4 42.9 L385.25 42.95 385.6 42.95 386.0 42.95 Q388.3 42.95 390.2 41.85 L391.3 41.05 391.3 41.0 Q393.35 42.5 395.7 42.9 L396.55 42.95 396.9 42.95 397.3 42.95 Q399.6 42.95 401.5 41.85 L402.05 41.55 401.3 42.2 393.35 50.4 392.95 50.8 391.6 51.9 Q389.8 52.95 387.6 52.95 L387.2 52.95 386.9 52.95 386.05 52.9 Q383.85 52.5 381.9 51.1 L381.9 51.15 380.85 51.9 Q379.0 52.95 376.8 52.95 L376.45 52.95 376.1 52.95 375.3 52.9 Q373.0 52.45 371.15 51.1 L371.1 51.15 370.2 51.85 Q368.4 52.95 366.05 52.95 L365.65 52.95 365.3 52.95 364.5 52.9 Q361.95 52.4 359.9 50.7 L359.8 50.65 358.4 49.2 Q356.4 51.0 353.9 51.95 L353.9 52.0 Q351.15 53.05 347.7 53.05 340.85 53.1 334.85 48.65 334.6 49.7 333.9 50.45 332.6 53.05 328.75 53.05 L324.25 53.05 Q321.0 53.05 319.6 51.4 L319.5 51.3 Q318.05 53.05 314.85 53.05 L310.35 53.05 Q308.3 53.15 306.85 52.35 305.55 53.05 303.6 53.05 L299.1 53.05 Q293.95 53.25 292.6 48.35 292.35 49.75 291.45 50.65 290.05 53.05 286.4 53.05 L281.9 53.05 Q278.5 53.2 276.8 51.2 L274.1 52.4 273.5 52.65 271.3 53.0 Q267.55 53.35 265.45 49.2 L265.4 49.15 265.0 48.35 263.35 48.65 261.25 48.65 260.15 48.55 Q258.45 53.35 254.2 53.0 L251.9 52.6 251.55 52.5 247.2 50.7 247.05 50.6 246.3 50.25 245.2 51.3 244.9 51.55 Q242.8 53.15 240.8 53.0 238.1 53.3 235.95 50.6 L235.85 50.5 235.6 50.85 Q234.1 53.05 230.6 53.05 L226.15 53.05 Q222.0 53.2 220.4 50.3 216.9 53.05 212.05 53.05 L201.3 53.05 198.1 52.6 195.05 53.05 176.65 53.05 174.0 52.6 171.0 53.05 158.75 53.05 Q157.0 53.05 155.8 52.5 154.4 53.05 152.5 53.05 L134.1 53.05 Q130.6 53.05 129.15 50.8 128.05 49.75 127.85 48.05 121.2 53.1 113.05 53.05 103.95 53.0 97.95 47.0 L96.55 45.4 Q92.6 40.55 88.95 29.9 M402.8 40.8 L402.9 40.7 402.8 40.8" fill="#2d0b15" fill-rule="evenodd" stroke="none"/>
    <path d="M6.25 24.0 L12.45 0.3 Q13.1 -2.15 10.85 -2.15 L5.0 -2.15 Q2.65 -2.15 2.0 0.3 L-1.65 13.35 -5.45 -0.85 -5.75 -1.6 Q-6.25 -2.15 -7.25 -2.15 L-13.0 -2.15 Q-15.3 -2.15 -16.0 0.3 L-23.25 24.0 -26.7 35.35 Q-27.55 38.05 -25.15 38.05 L-19.0 38.05 Q-16.5 38.05 -15.7 35.35 L-12.45 24.0 -11.75 21.65 -11.15 24.0 -7.7 37.45 Q-7.4 38.05 -6.05 38.05 L0.15 38.05 Q2.55 38.05 3.25 35.35 L6.25 24.0 M-29.85 41.65 Q-30.65 40.95 -31.05 39.9 -32.75 37.85 -31.45 33.85 L-31.45 33.9 -20.75 -1.15 Q-19.0 -7.35 -13.0 -7.15 L-7.25 -7.15 Q-3.7 -7.15 -2.05 -4.95 L-1.9 -4.8 -1.4 -4.15 Q0.7 -7.25 5.0 -7.15 L10.85 -7.15 Q15.2 -7.15 16.55 -4.25 L17.3 -3.15 Q18.05 -1.35 17.3 1.6 L16.15 5.9 Q18.75 4.2 21.45 3.25 24.85 2.0 28.5 2.05 35.1 2.05 39.4 5.7 40.85 3.85 43.65 3.25 L43.7 3.25 48.3 2.25 Q52.0 1.4 53.8 3.35 55.3 4.2 55.85 6.1 L56.05 5.75 56.2 5.55 56.7 4.8 56.75 4.75 Q57.9 3.25 59.25 2.7 L59.6 2.5 61.95 2.05 62.6 2.1 Q66.25 2.05 67.55 6.1 68.8 3.25 70.95 2.35 L75.5 2.25 79.7 3.25 Q82.9 4.0 83.9 6.25 L84.55 7.45 84.7 8.15 Q84.9 9.1 84.7 10.3 L84.5 11.25 84.35 11.8 74.4 38.15 74.4 38.1 Q73.15 41.4 70.95 42.5 69.8 43.1 68.4 43.05 L67.95 43.05 61.45 43.05 Q59.4 43.05 57.95 41.6 57.05 40.7 56.7 39.6 54.1 43.4 51.2 43.05 L50.9 43.05 44.25 43.05 44.05 43.05 Q38.05 43.5 38.05 36.35 L38.05 35.55 36.4 37.1 36.35 37.1 Q29.35 43.1 21.2 43.05 12.65 42.95 8.05 36.9 6.2 43.3 0.15 43.05 L-6.05 43.05 Q-11.4 43.05 -12.15 39.7 -14.4 43.2 -19.0 43.05 L-25.15 43.05 Q-28.25 43.05 -29.85 41.65 M87.55 15.25 L88.0 13.25 Q90.05 5.4 96.45 -0.25 L99.2 -2.45 Q105.9 -7.2 113.95 -7.15 124.0 -7.1 130.5 0.15 L132.55 2.65 Q133.55 2.05 134.85 2.05 L152.45 2.05 Q154.15 2.05 155.4 2.6 156.8 2.0 158.7 2.05 L163.2 2.05 Q166.6 2.05 168.2 4.15 169.9 5.6 169.9 8.7 170.0 2.0 176.7 2.05 L195.1 2.05 Q197.0 2.05 198.4 2.6 199.6 2.05 201.35 2.05 L212.15 2.05 Q216.95 2.0 220.7 4.7 L221.2 4.2 Q222.7 2.05 226.25 2.05 L236.4 2.05 236.75 2.05 237.95 2.2 Q243.15 2.7 247.1 6.4 L247.15 6.4 Q249.35 8.45 250.6 11.0 251.45 12.65 252.15 11.9 L253.6 6.95 253.65 6.85 Q255.05 2.1 259.1 2.1 L259.65 2.05 266.2 2.05 266.75 2.1 Q268.9 2.05 270.55 3.75 272.05 2.05 275.3 2.05 L293.5 2.05 Q295.2 2.05 296.5 2.55 297.7 2.05 299.4 2.05 L303.85 2.05 Q305.85 2.0 307.35 2.7 308.65 2.05 310.65 2.05 L315.15 2.05 Q317.45 2.1 319.2 3.25 L319.4 3.4 319.9 3.75 Q321.35 2.05 324.55 2.05 L329.05 2.05 Q334.35 1.9 335.85 7.0 340.3 2.1 347.95 2.05 L348.05 2.05 Q351.0 2.0 353.85 2.85 L353.95 2.85 Q358.35 4.1 362.65 7.5 L362.55 7.45 365.15 9.75 Q366.6 11.2 366.6 13.25 366.6 14.85 365.7 16.1 370.05 16.1 371.5 20.8 L371.6 21.3 371.7 21.8 371.7 21.7 372.1 24.4 372.4 24.4 375.6 25.0 375.85 25.1 376.25 25.25 378.25 26.35 379.0 25.8 Q380.65 24.4 383.55 24.4 385.1 24.4 386.75 25.0 L387.0 25.1 387.25 25.2 Q388.4 25.65 389.4 26.35 L390.4 25.65 Q392.05 24.4 394.75 24.4 396.2 24.35 398.0 25.0 L397.9 24.95 398.2 25.1 398.6 25.25 Q399.85 25.8 401.0 26.7 L401.1 26.75 Q403.75 28.85 404.8 32.15 L404.85 32.25 405.2 33.75 Q405.45 35.6 405.0 37.1 L404.3 39.0 403.35 40.3 402.9 40.7 402.8 40.8 402.05 41.55 401.5 41.85 Q399.6 42.95 397.3 42.95 L396.9 42.95 396.55 42.95 395.7 42.9 Q393.35 42.5 391.3 41.0 L391.3 41.05 390.2 41.85 Q388.3 42.95 386.0 42.95 L385.6 42.95 385.25 42.95 384.4 42.9 Q382.0 42.45 380.05 41.0 L380.0 41.05 379.05 41.8 Q377.2 42.95 374.7 42.95 L374.3 42.95 373.95 42.95 373.1 42.9 Q370.4 42.4 368.25 40.6 L368.15 40.55 366.7 39.05 Q364.6 40.9 362.0 41.9 L362.0 41.95 Q359.1 43.05 355.45 43.05 348.3 43.1 342.0 38.45 341.75 39.55 341.0 40.35 339.65 43.05 335.6 43.05 L330.9 43.05 Q327.5 43.05 326.0 41.35 L325.9 41.25 Q324.4 43.05 321.05 43.05 L316.35 43.05 Q314.2 43.15 312.65 42.35 311.3 43.05 309.25 43.05 L304.55 43.05 Q299.15 43.25 297.7 38.15 297.45 39.6 296.5 40.55 295.05 43.05 291.2 43.05 L286.5 43.05 Q282.95 43.2 281.15 41.1 L278.35 42.4 277.7 42.65 275.4 43.0 Q271.4 43.35 269.2 38.95 L269.25 39.05 268.8 38.15 267.05 38.45 264.85 38.45 263.7 38.35 Q261.9 43.4 257.45 43.0 L255.05 42.6 254.7 42.5 250.15 40.6 249.95 40.5 249.2 40.1 248.05 41.2 247.7 41.5 Q245.5 43.15 243.4 43.0 240.6 43.3 238.35 40.5 L238.25 40.4 237.95 40.75 Q236.4 43.05 232.75 43.05 L228.05 43.05 Q223.7 43.2 222.05 40.2 218.35 43.05 213.3 43.05 L202.0 43.05 198.65 42.6 195.45 43.05 176.2 43.05 173.4 42.6 170.25 43.05 157.4 43.05 154.3 42.5 150.85 43.05 131.6 43.05 Q127.9 43.05 126.4 40.7 125.25 39.6 125.0 37.8 118.05 43.1 109.5 43.05 99.95 43.0 93.7 36.7 L92.2 35.05 Q90.2 32.6 88.95 29.9 L87.8 26.6 Q86.55 22.05 87.3 16.75 L87.55 15.25 M367.05 24.0 L366.7 22.25 Q366.35 21.1 365.3 21.1 L352.3 21.1 Q350.4 21.1 350.85 22.95 L351.1 24.0 351.55 25.8 Q352.0 27.75 353.95 27.75 L357.25 27.75 Q355.75 29.25 353.35 29.25 350.55 29.25 348.05 27.15 346.4 25.8 345.6 24.0 L345.0 22.25 Q344.3 19.25 345.8 17.3 347.25 15.25 350.0 15.3 352.5 15.25 354.75 16.9 L355.0 17.1 355.25 17.3 356.05 18.0 356.75 18.75 Q357.25 19.5 357.9 19.2 L363.1 16.7 Q364.05 16.3 363.5 15.5 L361.65 13.35 359.5 11.4 Q356.05 8.65 352.5 7.65 L348.05 7.05 Q341.95 7.05 338.7 11.4 335.35 15.75 336.75 22.25 L337.25 24.0 Q338.9 29.3 343.6 33.3 349.1 38.05 355.45 38.05 358.1 38.05 360.2 37.25 363.1 36.15 365.1 33.3 367.85 29.35 367.05 24.0 M392.45 30.35 L392.35 30.5 392.2 30.65 Q391.4 31.85 391.95 33.7 392.45 35.45 393.95 36.75 395.15 37.7 396.55 37.95 L396.9 37.95 397.3 37.95 399.05 37.5 399.4 37.1 399.8 36.75 400.15 35.75 Q400.4 34.85 400.05 33.7 399.45 31.85 397.95 30.65 397.3 30.15 396.6 29.85 L396.3 29.7 394.75 29.4 Q393.7 29.4 393.05 29.85 L392.45 30.35 M370.1 30.35 L370.0 30.5 369.8 30.65 Q368.95 31.85 369.45 33.7 369.9 35.45 371.4 36.75 372.55 37.7 373.95 37.95 L374.3 37.95 374.7 37.95 376.45 37.5 376.85 37.1 377.25 36.75 377.65 35.75 Q377.85 34.85 377.55 33.7 377.05 31.85 375.6 30.65 L374.25 29.85 373.95 29.7 372.4 29.4 Q371.35 29.4 370.75 29.85 370.4 30.05 370.1 30.35 M381.25 30.35 L381.15 30.5 381.0 30.65 Q380.2 31.85 380.7 33.7 381.2 35.45 382.7 36.75 383.85 37.7 385.25 37.95 L385.6 37.95 386.0 37.95 387.75 37.5 388.15 37.1 388.55 36.75 388.9 35.75 Q389.1 34.85 388.8 33.7 388.25 31.85 386.8 30.65 L385.4 29.85 385.1 29.7 383.55 29.4 Q382.5 29.4 381.9 29.85 L381.25 30.35 M334.45 24.0 L331.2 8.9 Q330.8 7.05 329.05 7.05 L324.55 7.05 Q322.8 7.05 323.15 8.9 L325.25 19.05 316.95 8.0 316.45 7.45 Q315.9 7.05 315.15 7.05 L310.65 7.05 Q308.85 7.05 309.2 8.9 L311.95 24.0 314.15 36.0 Q314.5 38.05 316.35 38.05 L321.05 38.05 Q322.9 38.05 322.5 36.0 L320.5 25.45 329.35 37.6 Q329.85 38.05 330.9 38.05 L335.6 38.05 Q337.45 38.05 337.0 36.0 L334.45 24.0 M308.65 24.0 L305.95 8.9 Q305.6 7.05 303.85 7.05 L299.4 7.05 Q297.6 7.05 297.9 8.9 L300.4 24.0 302.35 36.0 Q302.7 38.05 304.55 38.05 L309.25 38.05 Q311.1 38.05 310.75 36.0 L308.65 24.0 M290.95 24.0 L289.65 15.3 294.8 15.3 Q296.7 15.25 296.4 13.45 L295.65 8.85 Q295.35 7.05 293.5 7.05 L275.3 7.05 Q273.4 7.05 273.65 8.85 L274.25 13.45 Q274.45 15.25 276.35 15.3 L281.5 15.3 282.7 24.0 284.4 36.0 Q284.65 38.05 286.5 38.05 L291.2 38.05 Q293.05 38.05 292.75 36.0 L290.95 24.0 M276.0 24.0 L267.75 8.3 Q267.1 7.15 266.2 7.05 L259.65 7.05 Q258.75 7.15 258.4 8.3 L253.7 24.0 250.8 33.7 Q250.5 35.25 252.05 35.95 L256.6 37.85 257.45 38.0 Q258.5 38.0 258.95 36.7 L259.95 33.45 271.9 33.45 273.65 36.7 Q274.3 38.0 275.4 38.0 L276.25 37.85 280.3 35.95 Q281.7 35.25 281.1 33.7 L276.0 24.0 M262.6 24.0 L264.25 18.4 267.1 24.0 267.45 24.65 262.45 24.65 262.6 24.0 M245.9 24.0 Q247.65 21.2 247.35 17.55 246.95 13.1 243.7 10.05 240.85 7.4 237.1 7.1 L236.75 7.05 236.4 7.05 226.25 7.05 Q224.45 7.05 224.6 8.9 L225.4 24.0 226.1 36.0 Q226.2 38.05 228.05 38.05 L232.75 38.05 Q234.6 38.05 234.45 36.0 L233.95 28.5 234.65 28.5 242.2 37.3 Q242.75 38.0 243.4 38.0 244.0 38.0 244.65 37.5 L248.05 34.35 Q249.45 33.15 248.1 31.6 L243.65 26.5 244.2 26.0 244.55 25.6 245.0 25.2 245.9 24.0 M221.35 24.0 L220.65 22.95 220.3 22.6 220.0 22.25 220.25 21.8 220.6 21.4 Q222.15 19.15 222.0 16.1 221.8 12.3 218.9 9.65 216.05 7.0 212.15 7.05 L201.35 7.05 Q199.55 7.05 199.6 8.9 L199.9 24.0 200.1 36.0 Q200.15 38.05 202.0 38.05 L213.3 38.05 Q217.4 38.05 220.15 35.2 222.8 32.3 222.6 28.4 222.45 25.95 221.35 24.0 M207.95 17.95 L207.85 15.3 212.55 15.3 Q213.0 15.3 213.45 15.65 L213.45 15.7 Q213.85 16.05 213.85 16.6 L213.5 17.55 213.5 17.6 Q213.1 17.95 212.7 17.95 L207.95 17.95 M233.4 19.9 L233.05 15.3 236.9 15.3 Q237.65 15.3 238.4 15.9 L238.5 16.0 Q239.1 16.65 239.2 17.55 239.25 18.55 238.75 19.2 L238.65 19.35 Q237.95 19.9 237.35 19.9 L233.4 19.9 M208.2 26.5 L212.9 26.5 Q213.3 26.45 213.8 26.85 L213.85 26.9 Q214.25 27.3 214.25 27.9 214.3 28.5 213.9 28.9 L213.85 28.9 213.05 29.2 208.3 29.2 208.2 26.5 M193.4 24.0 L193.35 19.85 Q193.3 17.95 191.55 17.95 L182.9 17.95 182.9 15.3 195.2 15.3 Q196.95 15.25 196.95 13.45 L196.9 8.85 Q196.85 7.05 195.1 7.05 L176.7 7.05 Q174.9 7.05 174.9 8.9 L174.6 24.0 174.4 36.0 Q174.35 38.05 176.2 38.05 L195.45 38.05 Q197.35 38.05 197.35 36.1 L197.25 31.2 Q197.2 29.2 195.35 29.2 L182.8 29.2 182.85 26.5 191.6 26.5 Q193.4 26.45 193.4 24.6 L193.4 24.0 M164.45 24.0 L164.9 8.9 Q164.95 7.05 163.2 7.05 L158.7 7.05 Q156.95 7.05 156.85 8.9 L156.2 24.0 155.65 36.0 Q155.55 38.05 157.4 38.05 L170.25 38.05 Q172.15 38.05 172.2 36.1 L172.3 31.2 Q172.35 29.2 170.45 29.2 L164.25 29.2 164.45 24.0 M149.65 24.0 L149.9 19.85 Q150.0 17.95 148.2 17.95 L139.55 17.95 139.75 15.3 152.05 15.3 Q153.8 15.25 153.9 13.45 L154.15 8.85 Q154.2 7.05 152.45 7.05 L134.05 7.05 Q132.3 7.05 132.15 8.9 L130.9 24.0 129.95 36.0 Q129.75 38.05 131.6 38.05 L150.85 38.05 Q152.75 38.05 152.85 36.1 L153.1 31.2 Q153.15 29.2 151.3 29.2 L138.8 29.2 138.95 26.5 147.7 26.5 Q149.5 26.45 149.65 24.6 L149.65 24.0 M104.9 24.0 L104.75 23.85 Q102.5 21.2 103.0 17.4 103.45 13.6 106.3 11.1 109.15 8.5 112.75 8.5 116.35 8.5 118.65 11.1 L119.3 11.95 119.9 12.95 Q120.2 13.9 121.2 13.55 L129.1 10.3 Q130.5 9.8 130.15 8.75 L128.75 5.95 126.75 3.45 Q121.75 -2.15 113.95 -2.15 106.05 -2.15 99.75 3.45 93.4 9.1 92.25 17.4 91.75 20.9 92.35 24.0 93.15 28.3 96.05 31.85 101.15 38.05 109.5 38.05 117.8 38.05 124.2 31.85 126.95 29.2 128.6 26.3 129.25 25.15 127.8 24.55 L126.6 24.0 120.45 21.3 Q119.7 20.9 119.0 21.85 L118.2 22.9 117.35 23.85 117.15 24.0 Q114.3 26.6 110.75 26.6 107.2 26.6 104.9 24.0 M74.35 24.0 L79.65 10.0 Q80.05 8.45 78.55 8.1 L74.35 7.1 Q72.65 6.7 71.95 8.55 L66.3 23.05 63.0 8.3 Q62.75 7.15 61.95 7.05 61.25 7.05 60.7 7.8 L60.35 8.3 51.4 23.25 51.2 8.55 Q51.15 6.7 49.35 7.1 L44.75 8.1 Q43.1 8.45 42.95 10.0 L43.0 24.0 43.05 36.35 Q43.05 38.0 44.25 38.05 L50.9 38.05 Q51.75 38.0 52.6 36.7 L58.2 27.0 60.2 36.7 Q60.5 38.0 61.4 38.05 L67.95 38.05 Q69.1 37.95 69.7 36.35 L74.35 24.0 M18.05 24.0 Q18.05 23.15 18.3 22.25 19.0 19.25 21.4 17.3 23.8 15.25 26.6 15.3 29.4 15.25 30.85 17.3 32.4 19.3 31.75 22.25 L31.15 24.0 Q30.3 25.75 28.6 27.15 26.1 29.25 23.3 29.25 20.45 29.25 19.0 27.15 18.0 25.8 18.05 24.0 M39.5 24.0 L39.95 22.25 Q41.3 15.8 37.95 11.4 34.6 7.05 28.5 7.05 22.45 7.05 17.1 11.4 11.7 15.75 10.05 22.25 L9.65 24.0 Q8.8 29.3 11.6 33.3 14.85 38.05 21.2 38.05 27.6 38.05 33.1 33.3 37.8 29.3 39.5 24.0" fill="#711c35" fill-rule="evenodd" stroke="none"/>
    <path d="M-23.25 24.0 L-16.0 0.3 Q-15.3 -2.15 -13.0 -2.15 L-7.25 -2.15 Q-6.25 -2.15 -5.75 -1.6 L-5.45 -0.85 -1.65 13.35 2.0 0.3 Q2.65 -2.15 5.0 -2.15 L10.85 -2.15 Q13.1 -2.15 12.45 0.3 L6.25 24.0 -11.15 24.0 -11.75 21.65 -12.45 24.0 -23.25 24.0 M351.1 24.0 L350.85 22.95 Q350.4 21.1 352.3 21.1 L365.3 21.1 Q366.35 21.1 366.7 22.25 L367.05 24.0 351.1 24.0 M337.25 24.0 L336.75 22.25 Q335.35 15.75 338.7 11.4 341.95 7.05 348.05 7.05 L352.5 7.65 Q356.05 8.65 359.5 11.4 L361.65 13.35 363.5 15.5 Q364.05 16.3 363.1 16.7 L357.9 19.2 Q357.25 19.5 356.75 18.75 L356.05 18.0 355.25 17.3 355.0 17.1 354.75 16.9 Q352.5 15.25 350.0 15.3 347.25 15.25 345.8 17.3 344.3 19.25 345.0 22.25 L345.6 24.0 337.25 24.0 M311.95 24.0 L309.2 8.9 Q308.85 7.05 310.65 7.05 L315.15 7.05 Q315.9 7.05 316.45 7.45 L316.95 8.0 325.25 19.05 323.15 8.9 Q322.8 7.05 324.55 7.05 L329.05 7.05 Q330.8 7.05 331.2 8.9 L334.45 24.0 311.95 24.0 M300.4 24.0 L297.9 8.9 Q297.6 7.05 299.4 7.05 L303.85 7.05 Q305.6 7.05 305.95 8.9 L308.65 24.0 300.4 24.0 M282.7 24.0 L281.5 15.3 276.35 15.3 Q274.45 15.25 274.25 13.45 L273.65 8.85 Q273.4 7.05 275.3 7.05 L293.5 7.05 Q295.35 7.05 295.65 8.85 L296.4 13.45 Q296.7 15.25 294.8 15.3 L289.65 15.3 290.95 24.0 282.7 24.0 M253.7 24.0 L258.4 8.3 Q258.75 7.15 259.65 7.05 L266.2 7.05 Q267.1 7.15 267.75 8.3 L276.0 24.0 267.1 24.0 264.25 18.4 262.6 24.0 253.7 24.0 M225.4 24.0 L224.6 8.9 Q224.45 7.05 226.25 7.05 L236.4 7.05 236.75 7.05 237.1 7.1 Q240.85 7.4 243.7 10.05 246.95 13.1 247.35 17.55 247.65 21.2 245.9 24.0 L225.4 24.0 M233.4 19.9 L237.35 19.9 Q237.95 19.9 238.65 19.35 L238.75 19.2 Q239.25 18.55 239.2 17.55 239.1 16.65 238.5 16.0 L238.4 15.9 Q237.65 15.3 236.9 15.3 L233.05 15.3 233.4 19.9 M207.95 17.95 L212.7 17.95 Q213.1 17.95 213.5 17.6 L213.5 17.55 213.85 16.6 Q213.85 16.05 213.45 15.7 L213.45 15.65 Q213.0 15.3 212.55 15.3 L207.85 15.3 207.95 17.95 M199.9 24.0 L199.6 8.9 Q199.55 7.05 201.35 7.05 L212.15 7.05 Q216.05 7.0 218.9 9.65 221.8 12.3 222.0 16.1 222.15 19.15 220.6 21.4 L220.25 21.8 220.0 22.25 220.3 22.6 220.65 22.95 221.35 24.0 199.9 24.0 M174.6 24.0 L174.9 8.9 Q174.9 7.05 176.7 7.05 L195.1 7.05 Q196.85 7.05 196.9 8.85 L196.95 13.45 Q196.95 15.25 195.2 15.3 L182.9 15.3 182.9 17.95 191.55 17.95 Q193.3 17.95 193.35 19.85 L193.4 24.0 174.6 24.0 M156.2 24.0 L156.85 8.9 Q156.95 7.05 158.7 7.05 L163.2 7.05 Q164.95 7.05 164.9 8.9 L164.45 24.0 156.2 24.0 M130.9 24.0 L132.15 8.9 Q132.3 7.05 134.05 7.05 L152.45 7.05 Q154.2 7.05 154.15 8.85 L153.9 13.45 Q153.8 15.25 152.05 15.3 L139.75 15.3 139.55 17.95 148.2 17.95 Q150.0 17.95 149.9 19.85 L149.65 24.0 130.9 24.0 M92.35 24.0 Q91.75 20.9 92.25 17.4 93.4 9.1 99.75 3.45 106.05 -2.15 113.95 -2.15 121.75 -2.15 126.75 3.45 L128.75 5.95 130.15 8.75 Q130.5 9.8 129.1 10.3 L121.2 13.55 Q120.2 13.9 119.9 12.95 L119.3 11.95 118.65 11.1 Q116.35 8.5 112.75 8.5 109.15 8.5 106.3 11.1 103.45 13.6 103.0 17.4 102.5 21.2 104.75 23.85 L104.9 24.0 92.35 24.0 M117.15 24.0 L117.35 23.85 118.2 22.9 119.0 21.85 Q119.7 20.9 120.45 21.3 L126.6 24.0 117.15 24.0 M43.0 24.0 L42.95 10.0 Q43.1 8.45 44.75 8.1 L49.35 7.1 Q51.15 6.7 51.2 8.55 L51.4 23.25 60.35 8.3 60.7 7.8 Q61.25 7.05 61.95 7.05 62.75 7.15 63.0 8.3 L66.3 23.05 71.95 8.55 Q72.65 6.7 74.35 7.1 L78.55 8.1 Q80.05 8.45 79.65 10.0 L74.35 24.0 43.0 24.0 M31.15 24.0 L31.75 22.25 Q32.4 19.3 30.85 17.3 29.4 15.25 26.6 15.3 23.8 15.25 21.4 17.3 19.0 19.25 18.3 22.25 18.05 23.15 18.05 24.0 L9.65 24.0 10.05 22.25 Q11.7 15.75 17.1 11.4 22.45 7.05 28.5 7.05 34.6 7.05 37.95 11.4 41.3 15.8 39.95 22.25 L39.5 24.0 31.15 24.0" fill="#9fffe2" fill-rule="evenodd" stroke="none"/>
    <path d="M6.25 24.0 L3.25 35.35 Q2.55 38.05 0.15 38.05 L-6.05 38.05 Q-7.4 38.05 -7.7 37.45 L-11.15 24.0 6.25 24.0 M-12.45 24.0 L-15.7 35.35 Q-16.5 38.05 -19.0 38.05 L-25.15 38.05 Q-27.55 38.05 -26.7 35.35 L-23.25 24.0 -12.45 24.0 M367.05 24.0 Q367.85 29.35 365.1 33.3 363.1 36.15 360.2 37.25 358.1 38.05 355.45 38.05 349.1 38.05 343.6 33.3 338.9 29.3 337.25 24.0 L345.6 24.0 Q346.4 25.8 348.05 27.15 350.55 29.25 353.35 29.25 355.75 29.25 357.25 27.75 L353.95 27.75 Q352.0 27.75 351.55 25.8 L351.1 24.0 367.05 24.0 M381.25 30.35 L381.9 29.85 Q382.5 29.4 383.55 29.4 L385.1 29.7 385.4 29.85 386.8 30.65 Q388.25 31.85 388.8 33.7 389.1 34.85 388.9 35.75 L388.55 36.75 388.15 37.1 387.75 37.5 386.0 37.95 385.6 37.95 385.25 37.95 Q383.85 37.7 382.7 36.75 381.2 35.45 380.7 33.7 380.2 31.85 381.0 30.65 L381.15 30.5 381.25 30.35 M370.1 30.35 Q370.4 30.05 370.75 29.85 371.35 29.4 372.4 29.4 L373.95 29.7 374.25 29.85 375.6 30.65 Q377.05 31.85 377.55 33.7 377.85 34.85 377.65 35.75 L377.25 36.75 376.85 37.1 376.45 37.5 374.7 37.95 374.3 37.95 373.95 37.95 Q372.55 37.7 371.4 36.75 369.9 35.45 369.45 33.7 368.95 31.85 369.8 30.65 L370.0 30.5 370.1 30.35 M392.45 30.35 L393.05 29.85 Q393.7 29.4 394.75 29.4 L396.3 29.7 396.6 29.85 Q397.3 30.15 397.95 30.65 399.45 31.85 400.05 33.7 400.4 34.85 400.15 35.75 L399.8 36.75 399.4 37.1 399.05 37.5 397.3 37.95 396.9 37.95 396.55 37.95 Q395.15 37.7 393.95 36.75 392.45 35.45 391.95 33.7 391.4 31.85 392.2 30.65 L392.35 30.5 392.45 30.35 M334.45 24.0 L337.0 36.0 Q337.45 38.05 335.6 38.05 L330.9 38.05 Q329.85 38.05 329.35 37.6 L320.5 25.45 322.5 36.0 Q322.9 38.05 321.05 38.05 L316.35 38.05 Q314.5 38.05 314.15 36.0 L311.95 24.0 334.45 24.0 M308.65 24.0 L310.75 36.0 Q311.1 38.05 309.25 38.05 L304.55 38.05 Q302.7 38.05 302.35 36.0 L300.4 24.0 308.65 24.0 M290.95 24.0 L292.75 36.0 Q293.05 38.05 291.2 38.05 L286.5 38.05 Q284.65 38.05 284.4 36.0 L282.7 24.0 290.95 24.0 M276.0 24.0 L281.1 33.7 Q281.7 35.25 280.3 35.95 L276.25 37.85 275.4 38.0 Q274.3 38.0 273.65 36.7 L271.9 33.45 259.95 33.45 258.95 36.7 Q258.5 38.0 257.45 38.0 L256.6 37.85 252.05 35.95 Q250.5 35.25 250.8 33.7 L253.7 24.0 262.6 24.0 262.45 24.65 267.45 24.65 267.1 24.0 276.0 24.0 M245.9 24.0 L245.0 25.2 244.55 25.6 244.2 26.0 243.65 26.5 248.1 31.6 Q249.45 33.15 248.05 34.35 L244.65 37.5 Q244.0 38.0 243.4 38.0 242.75 38.0 242.2 37.3 L234.65 28.5 233.95 28.5 234.45 36.0 Q234.6 38.05 232.75 38.05 L228.05 38.05 Q226.2 38.05 226.1 36.0 L225.4 24.0 245.9 24.0 M221.35 24.0 Q222.45 25.95 222.6 28.4 222.8 32.3 220.15 35.2 217.4 38.05 213.3 38.05 L202.0 38.05 Q200.15 38.05 200.1 36.0 L199.9 24.0 221.35 24.0 M208.2 26.5 L208.3 29.2 213.05 29.2 213.85 28.9 213.9 28.9 Q214.3 28.5 214.25 27.9 214.25 27.3 213.85 26.9 L213.8 26.85 Q213.3 26.45 212.9 26.5 L208.2 26.5 M193.4 24.0 L193.4 24.6 Q193.4 26.45 191.6 26.5 L182.85 26.5 182.8 29.2 195.35 29.2 Q197.2 29.2 197.25 31.2 L197.35 36.1 Q197.35 38.05 195.45 38.05 L176.2 38.05 Q174.35 38.05 174.4 36.0 L174.6 24.0 193.4 24.0 M164.45 24.0 L164.25 29.2 170.45 29.2 Q172.35 29.2 172.3 31.2 L172.2 36.1 Q172.15 38.05 170.25 38.05 L157.4 38.05 Q155.55 38.05 155.65 36.0 L156.2 24.0 164.45 24.0 M149.65 24.0 L149.65 24.6 Q149.5 26.45 147.7 26.5 L138.95 26.5 138.8 29.2 151.3 29.2 Q153.15 29.2 153.1 31.2 L152.85 36.1 Q152.75 38.05 150.85 38.05 L131.6 38.05 Q129.75 38.05 129.95 36.0 L130.9 24.0 149.65 24.0 M104.9 24.0 Q107.2 26.6 110.75 26.6 114.3 26.6 117.15 24.0 L126.6 24.0 127.8 24.55 Q129.25 25.15 128.6 26.3 126.95 29.2 124.2 31.85 117.8 38.05 109.5 38.05 101.15 38.05 96.05 31.85 93.15 28.3 92.35 24.0 L104.9 24.0 M74.35 24.0 L69.7 36.35 Q69.1 37.95 67.95 38.05 L61.4 38.05 Q60.5 38.0 60.2 36.7 L58.2 27.0 52.6 36.7 Q51.75 38.0 50.9 38.05 L44.25 38.05 Q43.05 38.0 43.05 36.35 L43.0 24.0 74.35 24.0 M18.05 24.0 Q18.0 25.8 19.0 27.15 20.45 29.25 23.3 29.25 26.1 29.25 28.6 27.15 30.3 25.75 31.15 24.0 L39.5 24.0 Q37.8 29.3 33.1 33.3 27.6 38.05 21.2 38.05 14.85 38.05 11.6 33.3 8.8 29.3 9.65 24.0 L18.05 24.0" fill="#1affd1" fill-rule="evenodd" stroke="none"/>
  </g>
</svg>
