<?xml version="1.0" encoding="UTF-8" standalone="no"?>
<svg xmlns:ffdec="https://www.free-decompiler.com/flash" xmlns:xlink="http://www.w3.org/1999/xlink" ffdec:objectType="shape" height="17.75px" width="20.25px" xmlns="http://www.w3.org/2000/svg">
  <g transform="matrix(1.0, 0.0, 0.0, 1.0, 5.2, -33.95)">
    <path d="M9.9 34.7 L9.75 34.7 9.65 34.65 9.85 34.65 9.9 34.7" fill="#d10505" fill-rule="evenodd" stroke="none"/>
    <path d="M-1.6 37.3 L-0.2 36.75 0.3 42.9 0.45 43.05 1.4 43.15 Q2.55 43.05 2.05 42.95 2.35 42.05 1.95 36.25 L4.15 36.05 4.4 41.6 5.45 42.95 5.9 40.35 5.75 36.0 6.75 36.0 7.25 43.05 8.15 43.5 8.85 42.7 8.3 36.15 9.75 36.4 Q9.65 37.4 10.4 44.7 L5.4 44.35 -0.55 44.9 -1.6 37.3" fill="#e0e0e0" fill-rule="evenodd" stroke="none"/>
    <path d="M12.3 37.0 L10.45 34.85 11.8 35.4 11.95 35.5 Q12.75 35.9 13.35 36.8 L15.05 48.9 14.75 49.85 14.0 50.0 11.45 50.25 Q11.05 49.55 11.15 48.75 L6.1 48.45 Q1.8 48.6 -0.45 49.6 -1.15 49.9 -1.3 51.7 L-3.4 51.5 Q-4.15 51.25 -4.35 49.4 -4.65 47.85 -5.2 38.5 L-4.6 37.45 -4.4 37.15 -4.45 36.7 -2.7 35.9 -2.6 35.95 Q-2.95 36.35 -2.95 36.85 L-3.95 38.6 -3.3 48.5 Q0.6 46.5 5.9 46.3 10.8 45.9 13.75 47.2 L12.3 37.0 M-3.45 50.05 Q-3.45 51.05 -2.4 51.05 -1.55 51.05 -1.55 50.5 -1.55 50.15 -2.5 50.1 -2.35 49.35 0.65 48.45 L5.5 47.65 7.45 47.65 10.5 48.05 Q12.7 48.35 12.7 48.75 L12.4 49.1 12.1 49.5 12.2 49.75 12.65 50.0 13.3 49.55 13.6 48.7 13.5 48.2 Q13.05 47.6 11.95 47.3 L9.4 46.9 6.45 46.8 3.75 47.0 1.6 47.35 Q-3.45 48.45 -3.45 50.05" fill="#464646" fill-rule="evenodd" stroke="none"/>
    <path d="M-0.2 36.75 L1.95 36.25 Q2.35 42.05 2.05 42.95 2.55 43.05 1.4 43.15 L0.45 43.05 0.3 42.9 -0.2 36.75 M4.15 36.05 L5.75 36.0 5.9 40.35 5.45 42.95 4.4 41.6 4.15 36.05 M6.75 36.0 L8.3 36.15 8.85 42.7 8.15 43.5 7.25 43.05 6.75 36.0" fill="#ffffff" fill-rule="evenodd" stroke="none"/>
    <path d="M-3.95 38.6 Q-2.1 37.25 -1.6 37.3 L-0.55 44.9 5.4 44.35 10.4 44.7 Q9.65 37.4 9.75 36.4 L12.3 37.0 13.75 47.2 Q10.8 45.9 5.9 46.3 0.6 46.5 -3.3 48.5 L-3.95 38.6" fill="#b4b4b4" fill-rule="evenodd" stroke="none"/>
    <path d="M10.45 34.85 L12.3 37.0 9.75 36.4 8.3 36.15 6.75 36.0 5.75 36.0 4.15 36.05 1.95 36.25 -0.2 36.75 -1.6 37.3 Q-2.1 37.25 -3.95 38.6 L-2.95 36.85 Q-2.95 36.35 -2.6 35.95 L-2.7 35.9 -1.35 35.25 2.3 34.3 5.85 34.0 8.0 34.15 8.15 34.2 9.85 34.65 9.65 34.65 9.75 34.7 9.9 34.7 10.45 34.85 M-3.45 50.05 Q-3.45 48.45 1.6 47.35 L3.75 47.0 6.45 46.8 9.4 46.9 11.95 47.3 Q13.05 47.6 13.5 48.2 L13.6 48.7 13.3 49.55 12.65 50.0 12.2 49.75 12.1 49.5 12.4 49.1 12.7 48.75 Q12.7 48.35 10.5 48.05 L7.45 47.65 5.5 47.65 0.65 48.45 Q-2.35 49.35 -2.5 50.1 -1.55 50.15 -1.55 50.5 -1.55 51.05 -2.4 51.05 -3.45 51.05 -3.45 50.05" fill="#8a8a8a" fill-rule="evenodd" stroke="none"/>
  </g>
</svg>
