<?xml version="1.0" encoding="UTF-8" standalone="no"?>
<svg xmlns:ffdec="https://www.free-decompiler.com/flash" xmlns:xlink="http://www.w3.org/1999/xlink" ffdec:objectType="shape" height="68.75px" width="81.5px" xmlns="http://www.w3.org/2000/svg">
  <g transform="matrix(1.0, 0.0, 0.0, 1.0, 52.55, 54.6)">
    <path d="M-33.75 -26.4 L-34.6 -26.1 -37.15 -24.75 Q-38.4 -24.2 -39.55 -24.2 -46.3 -24.2 -49.85 -28.05 -52.55 -31.0 -52.55 -34.8 -52.55 -41.25 -49.8 -44.25 -46.7 -47.65 -39.3 -47.65 L-38.15 -49.65 Q-36.7 -51.7 -34.6 -51.7 -34.25 -51.7 -33.0 -53.15 -31.75 -54.6 -29.6 -54.6 -24.0 -54.6 -22.7 -53.5 L-22.0 -51.45 -18.8 -52.2 -16.3 -52.55 Q-13.45 -52.55 -11.3 -50.1 -9.15 -47.7 -5.65 -47.7 -4.85 -47.7 -1.1 -49.25 3.2 -51.05 5.35 -52.7 5.9 -51.3 5.9 -49.95 L5.75 -47.15 Q5.5 -45.1 5.05 -45.1 L9.6 -45.9 Q14.0 -46.85 14.95 -47.75 L15.45 -45.15 Q15.7 -42.75 15.0 -41.55 L19.8 -44.0 20.15 -40.15 19.85 -39.1 Q21.2 -39.45 22.75 -40.6 24.65 -42.0 26.15 -42.7 L26.5 -39.0 Q26.55 -36.2 26.3 -36.2 L27.15 -36.0 27.1 -31.0 28.0 -30.05 28.25 -23.65 Q27.2 -22.35 26.6 -20.45 L27.95 -18.45 27.1 -17.0 Q26.25 -15.5 26.25 -14.1 L28.95 -9.8 28.7 -8.55 28.0 -7.3 Q26.3 -4.65 26.55 0.0 26.85 5.2 26.1 7.1 L23.95 12.8 Q23.35 14.15 22.5 14.15 20.65 14.15 17.9 8.2 L19.8 9.85 21.65 11.95 22.05 12.6 24.7 8.65 Q26.0 5.8 26.1 -6.45 L27.1 -8.3 27.75 -9.8 Q27.75 -11.0 26.35 -12.4 L24.9 -13.9 26.85 -18.55 25.5 -20.45 25.75 -20.5 25.7 -21.65 26.15 -23.1 Q26.6 -24.0 26.8 -27.3 26.9 -28.5 27.4 -29.15 L25.95 -29.3 23.85 -29.6 21.75 -28.9 14.9 -28.15 Q14.05 -28.1 9.35 -25.8 4.55 -23.45 3.5 -23.3 L8.65 -25.7 9.35 -26.8 Q13.7 -29.2 19.0 -29.4 22.4 -29.55 26.1 -35.0 L22.75 -35.15 20.1 -34.75 16.75 -33.85 16.35 -34.15 Q17.5 -35.3 20.1 -36.75 L17.95 -37.1 19.2 -42.8 Q18.85 -42.15 16.15 -40.85 13.65 -39.6 12.6 -39.4 L11.5 -39.3 15.8 -37.5 Q15.35 -36.85 11.25 -36.9 L3.7 -36.35 Q-5.85 -33.2 -8.4 -30.55 L-10.65 -28.8 -8.65 -31.8 Q-3.0 -35.5 0.55 -36.7 5.35 -38.35 12.05 -38.05 L6.2 -39.75 -2.95 -39.45 -3.7 -39.6 -3.85 -39.9 -1.4 -42.55 -6.95 -41.65 -11.1 -41.15 Q-7.65 -43.2 -0.1 -43.6 L0.45 -43.2 Q-0.45 -41.8 -1.25 -41.15 L3.7 -41.35 4.35 -42.75 3.85 -42.55 Q3.35 -42.5 3.35 -43.15 L3.9 -46.6 4.6 -50.8 Q3.35 -49.25 0.05 -47.6 -3.8 -45.65 -7.0 -45.65 -7.6 -45.65 -8.75 -46.5 L-11.3 -48.25 -12.45 -49.2 -14.9 -51.45 -22.1 -50.05 Q-22.55 -48.25 -22.6 -46.8 -22.7 -45.25 -22.25 -44.8 L-18.1 -43.25 Q-14.6 -41.85 -14.1 -41.45 L-14.25 -41.3 -15.35 -41.05 Q-15.9 -41.85 -17.55 -42.6 L-19.05 -43.3 -24.0 -43.55 -23.8 -48.5 -23.25 -49.4 -23.05 -50.5 Q-23.05 -51.6 -24.15 -52.45 -25.7 -53.65 -29.0 -53.65 -30.3 -53.65 -32.2 -52.3 -33.6 -51.35 -34.6 -50.8 L-35.4 -50.4 Q-37.65 -49.6 -38.8 -46.1 -39.95 -42.5 -38.85 -39.15 -39.55 -39.55 -40.4 -41.15 L-39.65 -46.3 -40.05 -46.65 Q-40.55 -47.0 -41.0 -47.0 L-41.75 -46.8 -42.5 -46.6 Q-49.15 -43.05 -50.05 -42.1 L-50.95 -41.05 Q-51.6 -39.7 -51.6 -37.05 -51.6 -36.05 -50.8 -33.3 -49.95 -30.25 -49.15 -29.4 -47.8 -28.25 -46.45 -27.4 -45.75 -27.0 -43.3 -26.15 -40.55 -25.2 -39.5 -25.2 -38.65 -25.2 -36.75 -26.0 -35.45 -26.6 -34.6 -27.25 L-33.4 -28.05 -28.05 -32.15 -29.35 -32.1 -34.0 -31.4 -37.2 -32.15 -34.6 -32.55 -27.8 -33.1 Q-26.05 -33.15 -22.05 -34.05 L-21.25 -33.4 Q-22.8 -32.2 -26.5 -30.9 -30.0 -29.7 -33.75 -26.4 M24.95 -36.35 L25.4 -41.3 19.45 -38.2 21.3 -37.85 21.35 -37.0 21.2 -36.35 24.95 -36.35 M13.2 -40.95 L14.55 -46.05 Q12.25 -44.75 10.6 -44.45 8.6 -44.05 4.9 -44.4 L5.25 -42.9 Q5.4 -41.9 4.9 -41.1 L9.0 -40.1 13.2 -40.95" fill="#606060" fill-rule="evenodd" stroke="none"/>
    <path d="M17.9 8.2 L16.15 6.75 Q14.35 5.75 11.15 5.2 L10.8 5.15 10.9 5.15 12.2 4.95 16.85 5.35 Q19.4 5.95 21.8 8.4 L22.3 7.1 22.5 5.8 Q21.0 4.1 20.25 2.55 20.45 2.25 21.65 2.2 L24.2 2.05 24.45 1.0 Q24.1 -2.25 24.2 -4.85 L22.15 -5.5 21.3 -5.95 21.2 -6.2 Q22.0 -6.75 23.5 -7.3 24.6 -8.3 24.6 -11.75 L23.4 -12.35 19.85 -13.9 22.15 -15.05 Q24.0 -16.0 24.0 -17.15 23.2 -19.15 22.3 -20.05 L20.95 -19.95 16.4 -20.1 9.65 -19.55 6.8 -19.8 Q4.7 -20.05 4.15 -20.4 L4.1 -20.4 4.0 -20.5 3.95 -20.55 14.3 -21.9 Q18.85 -22.1 20.5 -24.05 22.1 -26.0 26.65 -27.35 L19.4 -26.35 Q15.15 -25.45 11.1 -24.15 L2.45 -21.5 2.3 -21.6 Q-1.0 -23.0 -2.05 -23.25 L-2.3 -24.0 3.55 -25.3 9.35 -26.8 8.65 -25.7 3.5 -23.3 Q4.55 -23.45 9.35 -25.8 14.05 -28.1 14.9 -28.15 L21.75 -28.9 23.85 -29.6 25.95 -29.3 27.4 -29.15 Q26.9 -28.5 26.8 -27.3 26.6 -24.0 26.15 -23.1 L25.7 -21.65 25.75 -20.5 25.5 -20.45 26.85 -18.55 24.9 -13.9 26.35 -12.4 Q27.75 -11.0 27.75 -9.8 L27.1 -8.3 26.1 -6.45 Q26.0 5.8 24.7 8.65 L22.05 12.6 21.65 11.95 19.8 9.85 17.9 8.2 M-13.9 -26.4 Q-15.55 -25.0 -19.05 -25.15 L-23.3 -25.75 -14.4 -27.85 Q-11.25 -28.95 -8.65 -31.8 L-10.65 -28.8 -13.9 -26.4 M-37.2 -32.15 L-34.0 -31.4 -34.6 -31.35 -40.2 -31.1 -41.0 -32.2 Q-41.8 -33.4 -42.1 -34.8 L-42.5 -38.55 -42.5 -40.15 Q-42.15 -39.8 -41.85 -38.35 L-41.15 -35.65 Q-40.1 -32.05 -37.2 -32.15 M-33.4 -28.05 L-34.6 -27.25 Q-35.45 -26.6 -36.75 -26.0 -38.65 -25.2 -39.5 -25.2 -40.55 -25.2 -43.3 -26.15 -45.75 -27.0 -46.45 -27.4 -47.8 -28.25 -49.15 -29.4 -49.95 -30.25 -50.8 -33.3 -51.6 -36.05 -51.6 -37.05 -51.6 -39.7 -50.95 -41.05 L-50.05 -42.1 Q-49.15 -43.05 -42.5 -46.6 L-41.75 -46.8 -41.0 -47.0 Q-40.55 -47.0 -40.05 -46.65 L-39.65 -46.3 -40.4 -41.15 Q-39.55 -39.55 -38.85 -39.15 -39.95 -42.5 -38.8 -46.1 -37.65 -49.6 -35.4 -50.4 L-34.6 -50.8 Q-33.6 -51.35 -32.2 -52.3 -30.3 -53.65 -29.0 -53.65 -25.7 -53.65 -24.15 -52.45 -23.05 -51.6 -23.05 -50.5 L-23.25 -49.4 -23.8 -48.5 Q-24.15 -49.55 -25.0 -50.5 -26.3 -51.9 -28.15 -51.9 -30.1 -51.9 -31.5 -48.55 L-27.1 -43.25 Q-28.9 -43.25 -31.0 -44.1 -34.0 -45.35 -34.35 -47.6 L-34.6 -47.6 Q-35.65 -47.6 -37.25 -45.3 -39.0 -42.75 -39.0 -40.9 -39.0 -40.0 -37.35 -39.3 -35.95 -38.75 -35.0 -38.75 L-34.6 -38.75 -25.9 -39.3 Q-20.75 -40.1 -16.75 -42.15 L-17.55 -42.6 Q-15.9 -41.85 -15.35 -41.05 L-25.1 -38.45 Q-30.85 -36.8 -34.6 -36.6 L-35.2 -36.6 Q-38.25 -36.6 -40.55 -39.3 -42.95 -42.1 -42.15 -45.0 L-48.2 -41.05 Q-48.8 -40.4 -49.15 -38.5 L-49.4 -36.0 Q-49.4 -31.4 -45.6 -28.85 -42.55 -26.85 -38.85 -26.85 L-36.1 -27.35 -34.6 -27.75 -33.4 -28.05 M-22.25 -44.8 Q-22.7 -45.25 -22.6 -46.8 -22.55 -48.25 -22.1 -50.05 L-14.9 -51.45 -12.45 -49.2 -11.3 -48.25 -8.75 -46.5 Q-7.6 -45.65 -7.0 -45.65 -3.8 -45.65 0.05 -47.6 3.35 -49.25 4.6 -50.8 L3.9 -46.6 3.35 -43.15 Q3.35 -42.5 3.85 -42.55 L4.35 -42.75 3.7 -41.35 -1.25 -41.15 Q-0.45 -41.8 0.45 -43.2 L-0.1 -43.6 1.2 -45.25 Q-2.0 -43.95 -4.3 -43.95 -6.65 -43.95 -9.65 -45.0 -13.3 -46.25 -15.45 -48.35 L-21.25 -47.8 -21.75 -46.5 -22.25 -44.8 M-11.1 -41.15 L-6.95 -41.65 -14.8 -37.25 Q-15.3 -36.95 -17.1 -36.25 -19.2 -35.4 -20.0 -35.4 L-19.0 -35.9 -11.1 -41.15 M-8.4 -30.55 Q-5.85 -33.2 3.7 -36.35 L11.25 -36.9 Q15.35 -36.85 15.8 -37.5 L11.5 -39.3 12.6 -39.4 Q13.65 -39.6 16.15 -40.85 18.85 -42.15 19.2 -42.8 L17.95 -37.1 20.1 -36.75 Q17.5 -35.3 16.35 -34.15 L16.75 -33.85 13.95 -33.3 7.2 -34.75 Q3.55 -34.75 -1.85 -32.95 L-8.4 -30.55 M24.95 -36.35 L21.2 -36.35 21.35 -37.0 21.3 -37.85 19.45 -38.2 25.4 -41.3 24.95 -36.35 M13.2 -40.95 L9.0 -40.1 4.9 -41.1 Q5.4 -41.9 5.25 -42.9 L4.9 -44.4 Q8.6 -44.05 10.6 -44.45 12.25 -44.75 14.55 -46.05 L13.2 -40.95" fill="#989898" fill-rule="evenodd" stroke="none"/>
    <path d="M10.9 5.15 Q9.7 4.75 8.35 3.85 8.85 3.55 11.3 3.1 L14.05 2.7 Q15.05 2.7 18.4 3.6 L18.6 3.7 18.65 3.15 Q18.65 1.6 14.7 -0.5 L15.65 -0.45 Q16.7 -0.25 18.45 -0.8 20.3 -1.35 21.0 -2.2 19.3 -2.85 17.7 -3.95 15.75 -5.25 14.85 -6.6 16.5 -6.65 18.95 -7.9 21.45 -9.15 21.8 -10.25 19.0 -11.1 16.5 -12.4 14.65 -13.4 14.1 -13.95 15.2 -13.95 16.9 -14.8 18.7 -15.75 19.85 -17.0 L19.65 -17.3 17.25 -17.1 13.6 -17.1 10.05 -17.85 6.6 -18.5 4.15 -20.4 Q4.7 -20.05 6.8 -19.8 L9.65 -19.55 16.4 -20.1 20.95 -19.95 22.3 -20.05 Q23.2 -19.15 24.0 -17.15 24.0 -16.0 22.15 -15.05 L19.85 -13.9 23.4 -12.35 24.6 -11.75 Q24.6 -8.3 23.5 -7.3 22.0 -6.75 21.2 -6.2 L21.3 -5.95 22.15 -5.5 24.2 -4.85 Q24.1 -2.25 24.45 1.0 L24.2 2.05 21.65 2.2 Q20.45 2.25 20.25 2.55 21.0 4.1 22.5 5.8 L22.3 7.1 21.8 8.4 Q19.4 5.95 16.85 5.35 L12.2 4.95 10.9 5.15 M3.95 -20.55 L2.45 -21.5 11.1 -24.15 Q15.15 -25.45 19.4 -26.35 L26.65 -27.35 Q22.1 -26.0 20.5 -24.05 18.85 -22.1 14.3 -21.9 L3.95 -20.55 M-2.05 -23.25 L-3.65 -23.6 Q-1.15 -27.1 6.4 -28.0 6.6 -28.0 9.2 -29.3 12.05 -30.65 13.5 -30.9 L20.85 -32.0 22.7 -33.5 Q18.85 -32.3 11.25 -31.95 4.15 -31.6 -1.4 -29.6 L0.85 -31.85 0.2 -32.05 -0.7 -32.15 Q-1.9 -32.1 -3.6 -31.45 -6.95 -30.15 -10.15 -26.9 L-11.8 -26.6 -13.9 -26.4 -10.65 -28.8 -8.4 -30.55 -1.85 -32.95 Q3.55 -34.75 7.2 -34.75 L13.95 -33.3 16.75 -33.85 20.1 -34.75 22.75 -35.15 26.1 -35.0 Q22.4 -29.55 19.0 -29.4 13.7 -29.2 9.35 -26.8 L3.55 -25.3 -2.3 -24.0 -2.05 -23.25 M-23.3 -25.75 L-24.6 -25.7 -11.75 -33.0 Q-2.6 -38.3 6.2 -39.75 L12.05 -38.05 Q5.35 -38.35 0.55 -36.7 -3.0 -35.5 -8.65 -31.8 -11.25 -28.95 -14.4 -27.85 L-23.3 -25.75 M-29.05 -27.2 L-31.1 -26.8 -33.75 -26.4 Q-30.0 -29.7 -26.5 -30.9 -22.8 -32.2 -21.25 -33.4 L-22.05 -34.05 Q-26.05 -33.15 -27.8 -33.1 L-34.6 -32.55 -37.2 -32.15 Q-40.1 -32.05 -41.15 -35.65 L-41.85 -38.35 Q-42.15 -39.8 -42.5 -40.15 L-42.5 -38.55 -42.1 -34.8 Q-44.0 -38.0 -43.65 -40.25 -43.4 -41.95 -44.35 -42.65 -47.45 -41.25 -47.45 -36.7 -47.45 -33.3 -46.1 -31.65 -44.1 -29.15 -38.6 -29.15 -36.25 -29.15 -34.6 -29.7 L-33.7 -29.95 Q-32.05 -30.45 -29.35 -32.1 L-28.05 -32.15 -33.4 -28.05 -34.6 -27.75 -36.1 -27.35 -38.85 -26.85 Q-42.55 -26.85 -45.6 -28.85 -49.4 -31.4 -49.4 -36.0 L-49.15 -38.5 Q-48.8 -40.4 -48.2 -41.05 L-42.15 -45.0 Q-42.95 -42.1 -40.55 -39.3 -38.25 -36.6 -35.2 -36.6 L-34.6 -36.6 Q-30.85 -36.8 -25.1 -38.45 L-15.35 -41.05 -14.25 -41.3 -14.1 -41.45 Q-14.6 -41.85 -18.1 -43.25 L-22.25 -44.8 -21.75 -46.5 -21.25 -47.8 -15.45 -48.35 Q-13.3 -46.25 -9.65 -45.0 -6.65 -43.95 -4.3 -43.95 -2.0 -43.95 1.2 -45.25 L-0.1 -43.6 Q-7.65 -43.2 -11.1 -41.15 L-19.0 -35.9 -20.0 -35.4 Q-19.2 -35.4 -17.1 -36.25 -15.3 -36.95 -14.8 -37.25 -19.65 -32.0 -29.05 -27.2 M-23.8 -48.5 L-24.0 -43.55 -19.05 -43.3 -17.55 -42.6 -16.75 -42.15 Q-20.75 -40.1 -25.9 -39.3 L-34.6 -38.75 -35.0 -38.75 Q-35.95 -38.75 -37.35 -39.3 -39.0 -40.0 -39.0 -40.9 -39.0 -42.75 -37.25 -45.3 -35.65 -47.6 -34.6 -47.6 L-34.35 -47.6 Q-34.0 -45.35 -31.0 -44.1 -28.9 -43.25 -27.1 -43.25 L-31.5 -48.55 Q-30.1 -51.9 -28.15 -51.9 -26.3 -51.9 -25.0 -50.5 -24.15 -49.55 -23.8 -48.5 M-10.25 -44.0 Q-11.7 -45.1 -14.2 -45.6 L-18.15 -45.9 -12.05 -43.3 Q-11.05 -43.3 -10.25 -44.0 M-17.95 -39.05 Q-29.4 -35.1 -31.9 -35.3 L-33.2 -35.65 -34.6 -35.55 -35.5 -35.3 -35.0 -34.85 -34.6 -34.8 -31.1 -34.7 Q-27.1 -34.7 -24.05 -36.0 L-17.95 -39.05 M-24.0 -41.7 Q-29.7 -41.45 -31.9 -42.4 -32.7 -42.75 -34.6 -44.4 L-35.6 -45.65 -35.7 -44.8 -35.65 -44.15 -34.6 -42.65 Q-33.55 -41.95 -31.9 -41.45 -29.35 -40.65 -27.3 -40.65 -24.45 -40.65 -23.05 -41.9 L-24.0 -41.7 M-24.45 -43.8 L-25.85 -48.75 Q-26.4 -49.95 -28.05 -50.15 L-27.5 -48.4 -26.75 -46.55 -24.45 -43.8" fill="#d1d1d1" fill-rule="evenodd" stroke="none"/>
    <path d="M8.35 3.85 Q7.85 3.05 7.85 1.9 7.85 0.05 9.1 -5.4 L10.35 -11.1 9.85 -14.1 Q8.9 -17.2 6.6 -18.5 L10.05 -17.85 13.6 -17.1 17.25 -17.1 19.65 -17.3 19.85 -17.0 Q18.7 -15.75 16.9 -14.8 15.2 -13.95 14.1 -13.95 14.65 -13.4 16.5 -12.4 19.0 -11.1 21.8 -10.25 21.45 -9.15 18.95 -7.9 16.5 -6.65 14.85 -6.6 15.75 -5.25 17.7 -3.95 19.3 -2.85 21.0 -2.2 20.3 -1.35 18.45 -0.8 16.7 -0.25 15.65 -0.45 L14.7 -0.5 Q18.65 1.6 18.65 3.15 L18.6 3.7 18.4 3.6 Q15.05 2.7 14.05 2.7 L11.3 3.1 Q8.85 3.55 8.35 3.85 M-3.65 -23.6 L-3.75 -24.65 -8.5 -24.55 Q-9.15 -24.55 -9.15 -25.4 L-8.85 -27.15 -10.15 -26.9 Q-6.95 -30.15 -3.6 -31.45 -1.9 -32.1 -0.7 -32.15 L0.2 -32.05 0.85 -31.85 -1.4 -29.6 Q4.15 -31.6 11.25 -31.95 18.85 -32.3 22.7 -33.5 L20.85 -32.0 13.5 -30.9 Q12.05 -30.65 9.2 -29.3 6.6 -28.0 6.4 -28.0 -1.15 -27.1 -3.65 -23.6 M-24.6 -25.7 L-28.5 -25.55 Q-28.85 -26.2 -28.35 -27.35 L-29.05 -27.2 Q-19.65 -32.0 -14.8 -37.25 L-6.95 -41.65 -1.4 -42.55 -3.85 -39.9 -3.7 -39.6 -2.95 -39.45 6.2 -39.75 Q-2.6 -38.3 -11.75 -33.0 L-24.6 -25.7 M-34.0 -31.4 L-29.35 -32.1 Q-32.05 -30.45 -33.7 -29.95 L-34.6 -29.7 Q-36.25 -29.15 -38.6 -29.15 -44.1 -29.15 -46.1 -31.65 -47.45 -33.3 -47.45 -36.7 -47.45 -41.25 -44.35 -42.65 -43.4 -41.95 -43.65 -40.25 -44.0 -38.0 -42.1 -34.8 -41.8 -33.4 -41.0 -32.2 L-40.2 -31.1 -34.6 -31.35 -34.0 -31.4 M-10.25 -44.0 Q-11.05 -43.3 -12.05 -43.3 L-18.15 -45.9 -14.2 -45.6 Q-11.7 -45.1 -10.25 -44.0 M-24.45 -43.8 L-26.75 -46.55 -27.5 -48.4 -28.05 -50.15 Q-26.4 -49.95 -25.85 -48.75 L-24.45 -43.8 M-24.0 -41.7 L-23.05 -41.9 Q-24.45 -40.65 -27.3 -40.65 -29.35 -40.65 -31.9 -41.45 -33.55 -41.95 -34.6 -42.65 L-35.65 -44.15 -35.7 -44.8 -35.6 -45.65 -34.6 -44.4 Q-32.7 -42.75 -31.9 -42.4 -29.7 -41.45 -24.0 -41.7 M-17.95 -39.05 L-24.05 -36.0 Q-27.1 -34.7 -31.1 -34.7 L-34.6 -34.8 -35.0 -34.85 -35.5 -35.3 -34.6 -35.55 -33.2 -35.65 -31.9 -35.3 Q-29.4 -35.1 -17.95 -39.05" fill="#ffffff" fill-rule="evenodd" stroke="none"/>
  </g>
</svg>
