<?xml version="1.0" encoding="UTF-8" standalone="no"?>
<svg xmlns:ffdec="https://www.free-decompiler.com/flash" xmlns:xlink="http://www.w3.org/1999/xlink" ffdec:objectType="shape" height="32.55px" width="58.65px" xmlns="http://www.w3.org/2000/svg">
  <g transform="matrix(1.0, 0.0, 0.0, 1.0, 26.7, 4.1)">
    <path d="M-16.75 27.25 Q-21.2 26.8 -23.75 22.8 -25.45 19.15 -26.7 17.0 L-25.85 17.65 Q-24.3 19.25 -22.2 20.15 L-16.75 27.25" fill="#606060" fill-rule="evenodd" stroke="none"/>
    <path d="M26.95 -0.15 L27.35 -0.1 27.4 -0.1 Q27.45 0.2 27.1 0.5 26.65 0.85 25.5 1.2 L26.95 -0.15 M21.35 4.7 Q25.2 3.2 31.95 2.95 L31.95 3.25 30.85 4.75 Q26.7 5.0 23.2 7.1 22.15 7.65 21.55 8.7 20.8 9.95 20.3 11.35 19.6 13.35 19.15 15.4 L19.1 15.8 Q18.85 17.1 18.75 18.5 L18.5 22.35 18.35 24.0 Q16.55 25.65 13.9 26.3 L11.8 26.8 -6.65 26.75 -9.35 24.8 Q-8.25 24.75 -7.8 24.35 -7.5 24.1 -7.4 23.4 L-7.45 22.75 -10.55 22.95 Q-11.55 22.95 -12.9 21.75 -12.6 21.7 -12.2 21.3 L-11.65 20.65 -11.6 20.65 -10.4 20.45 Q-7.35 20.0 -4.2 19.05 L-3.8 19.2 -3.65 19.1 -3.55 19.7 -3.85 20.55 Q-4.45 21.4 -5.75 21.25 L-2.8 22.0 Q4.8 22.0 8.6 20.9 L9.15 21.0 9.35 21.25 Q6.9 22.75 5.7 23.1 L4.85 23.35 3.8 23.45 6.6 23.5 Q11.4 23.5 13.85 21.65 16.2 19.95 16.15 16.75 15.35 17.15 14.75 17.75 L13.75 17.15 Q15.95 15.35 16.75 13.3 L16.5 12.5 12.25 15.5 Q9.5 17.2 9.0 17.25 L7.9 17.25 7.75 16.8 Q11.85 14.4 14.3 11.5 L16.9 8.1 17.8 7.4 21.35 4.7 M-14.95 21.05 Q-15.9 22.55 -16.55 22.55 -17.55 22.55 -17.05 22.5 L-17.4 22.3 Q-16.05 21.05 -14.95 21.05" fill="#d1d1d1" fill-rule="evenodd" stroke="none"/>
    <path d="M25.5 1.2 Q26.65 0.85 27.1 0.5 27.45 0.2 27.4 -0.1 L27.35 -0.1 26.95 -0.15 30.85 -4.1 31.95 2.95 Q25.2 3.2 21.35 4.7 L25.5 1.2 M-4.2 19.05 Q-0.3 17.85 3.75 15.95 5.25 15.25 6.7 14.5 11.65 11.85 16.9 8.1 L14.3 11.5 Q11.85 14.4 7.75 16.8 L7.9 17.25 9.0 17.25 Q9.5 17.2 12.25 15.5 L16.5 12.5 16.75 13.3 Q15.95 15.35 13.75 17.15 L14.75 17.75 Q15.35 17.15 16.15 16.75 16.2 19.95 13.85 21.65 11.4 23.5 6.6 23.5 L3.8 23.45 4.85 23.35 5.7 23.1 Q6.9 22.75 9.35 21.25 L9.15 21.0 8.6 20.9 Q4.8 22.0 -2.8 22.0 L-5.75 21.25 Q-4.45 21.4 -3.85 20.55 L-3.55 19.7 -3.65 19.1 -3.8 19.2 -4.2 19.05" fill="#ffffff" fill-rule="evenodd" stroke="none"/>
    <path d="M11.8 26.8 L7.7 27.45 5.7 27.7 -0.9 28.35 -2.7 28.4 Q-6.2 28.25 -6.8 28.45 L-16.75 27.25 -22.2 20.15 -22.1 20.2 -22.05 20.25 -22.0 20.25 -11.65 20.65 -12.2 21.3 Q-12.6 21.7 -12.9 21.75 -11.55 22.95 -10.55 22.95 L-7.45 22.75 -7.4 23.4 Q-7.5 24.1 -7.8 24.35 -8.25 24.75 -9.35 24.8 L-6.65 26.75 11.8 26.8 M-14.95 21.05 Q-16.05 21.05 -17.4 22.3 L-17.05 22.5 Q-17.55 22.55 -16.55 22.55 -15.9 22.55 -14.95 21.05" fill="#989898" fill-rule="evenodd" stroke="none"/>
  </g>
</svg>
