<?xml version="1.0" encoding="UTF-8" standalone="no"?>
<svg xmlns:ffdec="https://www.free-decompiler.com/flash" xmlns:xlink="http://www.w3.org/1999/xlink" ffdec:objectType="shape" height="77.65px" width="67.6px" xmlns="http://www.w3.org/2000/svg">
  <g transform="matrix(1.0, 0.0, 0.0, 1.0, 75.4, 71.45)">
    <path d="M-22.75 -53.4 L-23.2 -52.55 -23.35 -50.7 -22.95 -49.0 -38.85 -47.9 -37.3 -49.75 Q-31.25 -55.85 -22.75 -53.4 M-27.95 -62.65 L-31.7 -61.35 -26.2 -59.65 Q-38.4 -53.95 -48.3 -44.9 -56.25 -37.7 -60.4 -27.75 -61.1 -30.5 -60.45 -33.25 -59.35 -38.3 -56.5 -42.45 -64.4 -31.45 -69.15 -18.85 -70.1 -27.95 -67.65 -36.6 -63.9 -49.85 -52.75 -57.8 -41.3 -65.9 -27.95 -62.65 M-52.8 -46.75 L-54.2 -45.3 -48.9 -50.0 -52.8 -46.75" fill="#b4b4b4" fill-rule="evenodd" stroke="none"/>
    <path d="M-27.95 -62.65 Q-41.3 -65.9 -52.75 -57.8 -63.9 -49.85 -67.65 -36.6 -70.1 -27.95 -69.15 -18.85 -64.4 -31.45 -56.5 -42.45 -59.35 -38.3 -60.45 -33.25 -61.1 -30.5 -60.4 -27.75 -56.25 -37.7 -48.3 -44.9 -38.4 -53.95 -26.2 -59.65 L-31.7 -61.35 -27.95 -62.65 M-22.75 -53.4 Q-31.25 -55.85 -37.3 -49.75 L-38.85 -47.9 -22.95 -49.0 -23.35 -50.7 -23.2 -52.55 -22.75 -53.4 M-21.15 -51.3 L-14.3 -44.6 -24.8 -44.95 Q-29.3 -44.05 -33.15 -41.4 L-37.6 -38.2 -36.6 -44.5 Q-39.75 -43.35 -42.6 -41.55 -51.3 -36.05 -55.3 -26.4 -56.8 -22.8 -57.55 -18.7 L-58.5 -18.8 -61.3 -22.6 -66.15 -11.3 Q-69.5 -16.05 -70.75 -21.8 -73.5 -34.35 -67.65 -46.05 -59.0 -63.3 -40.05 -65.1 -24.9 -66.7 -14.4 -55.65 L-23.6 -59.2 -14.9 -50.0 -21.15 -51.3 M-52.8 -46.75 L-48.9 -50.0 -54.2 -45.3 -52.8 -46.75" fill="#9f9f9f" fill-rule="evenodd" stroke="none"/>
    <path d="M-9.05 -41.8 Q-23.95 -42.95 -35.8 -34.2 L-40.45 -30.45 -39.15 -37.25 Q-53.15 -36.25 -55.35 -18.95 L-56.1 -11.3 -57.65 -16.65 Q-60.3 -6.45 -59.15 3.95 -63.15 1.8 -65.05 -2.3 L-66.9 -7.15 -67.55 -5.4 Q-80.35 -26.8 -69.35 -49.15 -58.4 -71.5 -33.8 -69.55 -26.0 -69.4 -20.45 -65.65 -14.95 -61.95 -12.2 -57.85 -9.45 -53.8 -7.9 -50.35 L-7.9 -50.3 -13.05 -53.35 -10.95 -51.0 Q-8.95 -48.8 -8.1 -46.05 L-7.8 -44.9 -8.25 -45.05 -12.35 -47.1 -8.95 -42.1 -9.05 -41.8 M-21.15 -51.3 L-14.9 -50.0 -23.6 -59.2 -14.4 -55.65 Q-24.9 -66.7 -40.05 -65.1 -59.0 -63.3 -67.65 -46.05 -73.5 -34.35 -70.75 -21.8 -69.5 -16.05 -66.15 -11.3 L-61.3 -22.6 -58.5 -18.8 -57.55 -18.7 Q-56.8 -22.8 -55.3 -26.4 -51.3 -36.05 -42.6 -41.55 -39.75 -43.35 -36.6 -44.5 L-37.6 -38.2 -33.15 -41.4 Q-29.3 -44.05 -24.8 -44.95 L-14.3 -44.6 -21.15 -51.3" fill="#858585" fill-rule="evenodd" stroke="none"/>
    <path d="M-7.9 -50.35 Q-9.45 -53.8 -12.2 -57.85 -14.95 -61.95 -20.45 -65.65 -26.0 -69.4 -33.8 -69.55 -58.4 -71.5 -69.35 -49.15 -80.35 -26.8 -67.55 -5.4 L-66.9 -7.15 -65.05 -2.3 Q-63.15 1.8 -59.15 3.95 -60.3 -6.45 -57.65 -16.65 L-56.1 -11.3 -55.35 -18.95 Q-53.15 -36.25 -39.15 -37.25 L-40.45 -30.45 -35.8 -34.2 Q-23.95 -42.95 -9.05 -41.8 -27.6 -39.5 -41.45 -27.1 L-42.35 -27.6 -40.75 -34.6 Q-44.05 -35.8 -48.75 -30.5 -53.45 -25.25 -55.4 -7.95 L-57.7 -10.6 -57.7 6.2 Q-69.65 -1.6 -73.5 -15.25 -77.7 -30.0 -72.7 -44.55 -67.85 -58.65 -55.0 -66.25 -41.7 -74.05 -26.8 -70.15 -11.15 -65.85 -7.9 -50.35 M-8.95 -42.1 L-12.35 -47.1 -8.25 -45.05 -8.95 -42.1 M-8.1 -46.05 Q-8.95 -48.8 -10.95 -51.0 L-13.05 -53.35 -7.9 -50.3 -8.1 -46.05" fill="#4d4d4d" fill-rule="evenodd" stroke="none"/>
  </g>
</svg>
