<?xml version="1.0" encoding="UTF-8" standalone="no"?>
<svg xmlns:ffdec="https://www.free-decompiler.com/flash" xmlns:xlink="http://www.w3.org/1999/xlink" ffdec:objectType="shape" height="87.35px" width="87.35px" xmlns="http://www.w3.org/2000/svg">
  <g transform="matrix(1.0, 0.0, 0.0, 1.0, 55.15, 54.15)">
    <path d="M-31.05 27.05 L-34.25 25.15 Q-38.0 22.65 -41.3 19.35 -53.65 7.0 -53.65 -10.45 -53.65 -14.65 -52.95 -18.55 -52.75 -18.6 -52.55 -18.75 L-46.0 -24.95 Q-45.8 -19.3 -41.4 -14.2 -41.25 -14.0 -40.95 -13.95 L-40.4 -14.05 Q-39.55 -19.5 -36.9 -24.4 -34.5 -28.9 -30.75 -32.5 L-27.5 -27.45 Q-26.35 -27.45 -24.1 -29.9 -21.9 -32.4 -21.25 -32.4 -20.1 -32.4 -18.55 -31.35 L-16.95 -30.05 -15.45 -30.0 -8.4 -32.4 Q-7.9 -32.4 -5.95 -29.35 -3.8 -25.95 -2.95 -25.25 L-0.55 -24.85 2.55 -24.6 5.6 -25.1 Q10.6 -25.1 11.8 -19.25 12.15 -17.2 13.1 -15.4 L14.05 -14.0 15.2 -15.45 14.7 -10.5 13.75 -9.4 12.8 -11.5 12.45 -12.35 Q9.7 -9.65 5.4 -6.35 5.2 -6.2 5.0 -6.2 L4.55 -6.3 4.25 -6.65 4.25 -7.1 Q6.05 -15.0 3.45 -22.85 -0.25 -17.55 -6.0 -15.45 L-6.5 -15.45 -6.9 -15.8 -6.95 -16.3 Q-5.55 -22.35 -7.4 -28.4 L-16.45 -22.5 -16.85 -22.4 Q-17.1 -22.4 -17.25 -22.55 L-17.55 -22.85 Q-18.45 -25.2 -18.25 -28.6 -24.6 -23.05 -28.0 -17.05 L-28.3 -16.75 -28.75 -16.7 Q-29.0 -16.75 -29.15 -16.9 L-29.35 -17.3 Q-30.95 -24.5 -29.95 -31.0 -37.25 -25.55 -40.1 -14.5 L-40.4 -14.05 Q-40.8 -11.45 -40.8 -8.75 -40.8 0.35 -36.6 10.85 -32.45 21.3 -24.4 24.6 L-18.85 24.6 Q-0.4 23.1 8.9 5.95 11.55 1.1 13.1 -3.8 L13.2 -4.1 Q13.55 -3.8 14.05 -3.45 15.7 -2.2 17.0 -1.65 L16.9 2.35 17.05 2.75 17.35 3.05 17.8 3.1 18.2 2.85 20.25 0.3 21.5 1.2 21.9 1.45 Q18.75 9.6 12.05 16.25 -0.5 28.85 -18.25 28.85 -25.0 28.85 -31.05 27.05" fill="#f4bb83" fill-rule="evenodd" stroke="none"/>
    <path d="M-52.95 -18.55 Q-50.7 -30.9 -41.3 -40.3 -28.9 -52.65 -11.45 -52.65 -2.75 -52.65 4.7 -49.6 L8.15 -47.95 Q13.6 -45.05 18.35 -40.3 30.7 -27.9 30.7 -10.45 30.7 -6.0 29.9 -1.85 27.55 10.15 18.35 19.35 6.0 31.7 -11.45 31.7 -22.2 31.7 -31.05 27.05 -25.0 28.85 -18.25 28.85 -0.5 28.85 12.05 16.25 18.75 9.6 21.9 1.45 L21.5 1.2 20.25 0.3 18.2 2.85 17.8 3.1 17.35 3.05 17.05 2.75 16.9 2.35 17.0 -1.65 Q15.7 -2.2 14.05 -3.45 13.55 -3.8 13.2 -4.1 L13.1 -3.8 Q12.75 -4.1 12.55 -4.65 12.25 -5.3 12.2 -6.05 12.2 -7.5 13.75 -9.4 L14.7 -10.5 15.2 -15.45 14.05 -14.0 13.1 -15.4 Q12.15 -17.2 11.8 -19.25 10.6 -25.1 5.6 -25.1 L2.55 -24.6 -0.55 -24.85 -2.95 -25.25 Q-3.8 -25.95 -5.95 -29.35 -7.9 -32.4 -8.4 -32.4 L-15.45 -30.0 -16.95 -30.05 -18.55 -31.35 Q-20.1 -32.4 -21.25 -32.4 -21.9 -32.4 -24.1 -29.9 -26.35 -27.45 -27.5 -27.45 L-30.75 -32.5 Q-34.5 -28.9 -36.9 -24.4 -39.55 -19.5 -40.4 -14.05 L-40.95 -13.95 Q-41.25 -14.0 -41.4 -14.2 -45.8 -19.3 -46.0 -24.95 L-52.55 -18.75 Q-52.75 -18.6 -52.95 -18.55" fill="#e7a867" fill-rule="evenodd" stroke="none"/>
    <path d="M-31.05 27.05 Q-22.2 31.7 -11.45 31.7 6.0 31.7 18.35 19.35 27.55 10.15 29.9 -1.85 30.7 -6.0 30.7 -10.45 30.7 -27.9 18.35 -40.3 13.6 -45.05 8.15 -47.95 L4.7 -49.6 Q-2.75 -52.65 -11.45 -52.65 -28.9 -52.65 -41.3 -40.3 -50.7 -30.9 -52.95 -18.55 -53.65 -14.65 -53.65 -10.45 -53.65 7.0 -41.3 19.35 -38.0 22.65 -34.25 25.15 L-31.05 27.05 M19.4 20.4 Q6.6 33.2 -11.45 33.2 -24.6 33.2 -35.05 26.4 -38.9 23.85 -42.35 20.4 -55.15 7.6 -55.15 -10.45 -55.15 -17.05 -53.45 -22.95 -50.5 -33.2 -42.35 -41.35 -29.5 -54.15 -11.45 -54.15 -2.45 -54.15 5.25 -51.0 12.95 -47.8 19.4 -41.35 32.2 -28.5 32.2 -10.45 32.2 -5.05 31.05 -0.15 28.35 11.4 19.4 20.4" fill="#a46637" fill-rule="evenodd" stroke="none"/>
    <path d="M13.75 -9.4 Q12.2 -7.5 12.2 -6.05 12.25 -5.3 12.55 -4.65 12.75 -4.1 13.1 -3.8 11.55 1.1 8.9 5.95 -0.4 23.1 -18.85 24.6 L-24.4 24.6 Q-32.45 21.3 -36.6 10.85 -40.8 0.35 -40.8 -8.75 -40.8 -11.45 -40.4 -14.05 L-40.1 -14.5 Q-37.25 -25.55 -29.95 -31.0 -30.95 -24.5 -29.35 -17.3 L-29.15 -16.9 Q-29.0 -16.75 -28.75 -16.7 L-28.3 -16.75 -28.0 -17.05 Q-24.6 -23.05 -18.25 -28.6 -18.45 -25.2 -17.55 -22.85 L-17.25 -22.55 Q-17.1 -22.4 -16.85 -22.4 L-16.45 -22.5 -7.4 -28.4 Q-5.55 -22.35 -6.95 -16.3 L-6.9 -15.8 -6.5 -15.45 -6.0 -15.45 Q-0.25 -17.55 3.45 -22.85 6.05 -15.0 4.25 -7.1 L4.25 -6.65 4.55 -6.3 5.0 -6.2 Q5.2 -6.2 5.4 -6.35 9.7 -9.65 12.45 -12.35 L12.8 -11.5 13.75 -9.4" fill="#f5c89d" fill-rule="evenodd" stroke="none"/>
    <path d="M10.75 -0.55 Q10.75 0.15 10.25 0.65 9.75 1.15 9.05 1.15 8.35 1.15 7.85 0.65 7.35 0.15 7.35 -0.55 7.35 -1.25 7.85 -1.75 8.35 -2.25 9.05 -2.25 9.75 -2.25 10.25 -1.75 10.75 -1.25 10.75 -0.55 M7.55 -10.95 Q7.55 -10.25 7.05 -9.75 6.55 -9.25 5.85 -9.25 5.15 -9.25 4.65 -9.75 4.15 -10.25 4.15 -10.95 4.15 -11.65 4.65 -12.15 5.15 -12.65 5.85 -12.65 6.55 -12.65 7.05 -12.15 7.55 -11.65 7.55 -10.95 M-0.05 -5.95 Q-0.05 -5.25 -0.55 -4.75 -1.05 -4.25 -1.75 -4.25 -2.45 -4.25 -2.95 -4.75 -3.45 -5.25 -3.45 -5.95 -3.45 -6.65 -2.95 -7.15 -2.45 -7.65 -1.75 -7.65 -1.05 -7.65 -0.55 -7.15 -0.05 -6.65 -0.05 -5.95 M-45.85 8.85 Q-45.85 8.15 -45.35 7.65 -44.85 7.15 -44.15 7.15 -43.45 7.15 -42.95 7.65 -42.45 8.15 -42.45 8.85 -42.45 9.55 -42.95 10.05 -43.45 10.55 -44.15 10.55 -44.85 10.55 -45.35 10.05 -45.85 9.55 -45.85 8.85 M-48.85 1.25 Q-48.85 0.55 -48.35 0.05 -47.85 -0.45 -47.15 -0.45 -46.45 -0.45 -45.95 0.05 -45.45 0.55 -45.45 1.25 -45.45 1.95 -45.95 2.45 -46.45 2.95 -47.15 2.95 -47.85 2.95 -48.35 2.45 -48.85 1.95 -48.85 1.25 M-39.45 5.25 Q-39.45 4.55 -38.95 4.05 -38.45 3.55 -37.75 3.55 -37.05 3.55 -36.55 4.05 -36.05 4.55 -36.05 5.25 -36.05 5.95 -36.55 6.45 -37.05 6.95 -37.75 6.95 -38.45 6.95 -38.95 6.45 -39.45 5.95 -39.45 5.25" fill="#e7a867" fill-rule="evenodd" stroke="none"/>
  </g>
</svg>
