<?xml version="1.0" encoding="UTF-8" standalone="no"?>
<svg xmlns:ffdec="https://www.free-decompiler.com/flash" xmlns:xlink="http://www.w3.org/1999/xlink" ffdec:objectType="shape" height="26.4px" width="65.1px" xmlns="http://www.w3.org/2000/svg">
  <g transform="matrix(1.0, 0.0, 0.0, 1.0, 33.95, 13.25)">
    <path d="M8.8 -12.45 L7.7 -13.15 7.9 -13.25 10.85 -13.25 Q11.65 -12.95 12.35 -12.25 L13.15 -11.2 13.9 -12.25 15.5 -13.25 18.45 -13.25 Q19.25 -12.95 19.95 -12.25 L20.75 -11.15 21.55 -12.25 23.15 -13.25 26.1 -13.25 Q26.9 -12.95 27.6 -12.25 L28.5 -11.0 29.35 -12.25 Q30.05 -12.95 30.95 -13.25 L31.15 -13.25 31.15 -12.25 30.05 -11.55 Q29.1 -10.6 29.1 -9.25 29.1 -7.9 30.05 -6.95 30.55 -6.45 31.15 -6.2 L31.15 -5.1 Q30.15 -5.45 29.35 -6.25 28.8 -6.8 28.5 -7.45 L27.6 -6.25 Q26.35 -4.95 24.6 -4.95 22.85 -4.95 21.55 -6.25 L20.75 -7.3 19.95 -6.25 Q18.7 -4.95 16.95 -4.95 15.2 -4.95 13.9 -6.25 L12.55 -8.6 12.6 -9.25 Q12.6 -10.6 11.65 -11.55 10.7 -12.5 9.35 -12.5 L8.8 -12.45 M20.2 -9.25 Q20.2 -10.6 19.25 -11.55 18.3 -12.5 16.95 -12.5 15.6 -12.5 14.6 -11.55 13.65 -10.6 13.65 -9.25 13.65 -7.9 14.6 -6.95 15.6 -5.95 16.95 -5.95 18.3 -5.95 19.25 -6.95 20.2 -7.9 20.2 -9.25 M15.15 -0.55 L15.1 -1.65 16.95 -2.1 Q18.7 -2.1 19.95 -0.85 L20.75 0.25 21.55 -0.85 Q22.85 -2.1 24.6 -2.1 26.35 -2.1 27.6 -0.85 L28.5 0.4 29.35 -0.85 Q30.15 -1.65 31.15 -1.9 L31.15 -0.85 30.05 -0.15 Q29.1 0.8 29.1 2.15 29.1 3.5 30.05 4.45 30.55 4.95 31.15 5.2 L31.15 6.3 Q30.15 5.95 29.35 5.15 L28.5 3.95 27.6 5.15 Q26.35 6.45 24.6 6.45 22.85 6.45 21.55 5.15 L20.75 4.1 19.95 5.15 Q18.7 6.45 16.95 6.45 15.35 6.45 14.15 5.4 L14.55 4.35 14.6 4.45 Q15.6 5.45 16.95 5.45 18.3 5.45 19.25 4.45 20.2 3.5 20.2 2.15 20.2 0.8 19.25 -0.15 18.3 -1.1 16.95 -1.1 15.95 -1.1 15.15 -0.55 M27.85 2.15 Q27.85 0.8 26.9 -0.15 25.95 -1.1 24.6 -1.1 23.25 -1.1 22.25 -0.15 21.3 0.8 21.3 2.15 21.3 3.5 22.25 4.45 23.25 5.45 24.6 5.45 25.95 5.45 26.9 4.45 27.85 3.5 27.85 2.15 M27.85 -9.25 Q27.85 -10.6 26.9 -11.55 25.95 -12.5 24.6 -12.5 23.25 -12.5 22.25 -11.55 21.3 -10.6 21.3 -9.25 21.3 -7.9 22.25 -6.95 23.25 -5.95 24.6 -5.95 25.95 -5.95 26.9 -6.95 27.85 -7.9 27.85 -9.25 M10.8 10.5 L11.5 9.75 12.35 10.4 13.15 11.45 13.9 10.4 Q15.2 9.15 16.95 9.15 18.7 9.15 19.95 10.4 L20.8 11.6 Q21.1 10.95 21.65 10.4 22.95 9.15 24.7 9.15 26.45 9.15 27.7 10.4 L28.55 11.55 29.35 10.4 Q30.15 9.6 31.15 9.35 L31.15 10.4 Q30.55 10.6 30.05 11.1 29.2 11.95 29.1 13.15 L27.95 13.15 Q27.85 11.95 27.0 11.1 26.05 10.15 24.7 10.15 23.35 10.15 22.35 11.1 21.5 11.95 21.4 13.15 L20.2 13.15 Q20.1 11.95 19.25 11.1 18.3 10.15 16.95 10.15 15.6 10.15 14.6 11.1 13.75 11.95 13.65 13.15 L12.6 13.15 Q12.5 11.95 11.65 11.1 L10.8 10.5 M-33.95 -10.05 L-33.95 -12.1 -33.3 -11.2 -32.55 -12.25 Q-31.85 -12.95 -30.95 -13.25 L-28.0 -13.25 Q-27.2 -12.95 -26.5 -12.25 L-25.7 -11.15 -24.9 -12.25 Q-24.2 -12.95 -23.3 -13.25 L-20.35 -13.25 Q-19.55 -12.95 -18.85 -12.25 L-18.0 -11.1 -17.2 -12.25 -15.6 -13.25 -12.65 -13.25 Q-11.85 -12.95 -11.15 -12.25 L-10.45 -11.4 -9.8 -12.25 Q-9.1 -12.95 -8.2 -13.25 L-7.45 -13.25 Q-9.15 -12.25 -10.65 -10.8 L-11.05 -10.35 -11.85 -11.55 Q-12.8 -12.5 -14.15 -12.5 -15.5 -12.5 -16.5 -11.55 -17.45 -10.6 -17.45 -9.25 -17.45 -7.9 -16.5 -6.95 -15.5 -5.95 -14.15 -5.95 L-13.9 -5.95 -14.3 -4.95 Q-15.95 -5.0 -17.2 -6.25 L-18.0 -7.35 Q-18.35 -6.75 -18.85 -6.25 -20.1 -4.95 -21.85 -4.95 -23.6 -4.95 -24.9 -6.25 L-25.7 -7.3 -26.5 -6.25 Q-27.75 -4.95 -29.5 -4.95 -30.85 -4.95 -31.95 -5.7 L-31.95 -6.9 -33.1 -6.9 -33.3 -7.25 -33.55 -6.9 -33.95 -6.9 -33.95 -8.4 -33.85 -9.25 -33.95 -10.05 M-26.25 -9.25 Q-26.25 -10.6 -27.2 -11.55 -28.15 -12.5 -29.5 -12.5 -30.85 -12.5 -31.85 -11.55 -32.8 -10.6 -32.8 -9.25 -32.8 -7.9 -31.85 -6.95 -30.85 -5.95 -29.5 -5.95 -28.15 -5.95 -27.2 -6.95 -26.25 -7.9 -26.25 -9.25 M-18.6 -9.25 Q-18.6 -10.6 -19.55 -11.55 -20.5 -12.5 -21.85 -12.5 -23.2 -12.5 -24.2 -11.55 -25.15 -10.6 -25.15 -9.25 -25.15 -7.9 -24.2 -6.95 -23.2 -5.95 -21.85 -5.95 -20.5 -5.95 -19.55 -6.95 -18.6 -7.9 -18.6 -9.25 M-28.05 -0.75 L-28.05 -1.85 Q-27.2 -1.55 -26.5 -0.85 L-25.7 0.25 -24.9 -0.85 Q-23.6 -2.1 -21.85 -2.1 -20.1 -2.1 -18.85 -0.85 L-18.0 0.3 -17.2 -0.85 Q-16.2 -1.8 -14.95 -2.0 L-15.0 -1.0 Q-15.85 -0.8 -16.5 -0.15 -17.45 0.8 -17.45 2.15 -17.45 3.5 -16.5 4.45 -15.5 5.45 -14.15 5.45 L-14.05 5.45 -13.6 6.45 -14.15 6.45 Q-15.9 6.45 -17.2 5.15 L-18.0 4.05 -18.85 5.15 Q-20.1 6.45 -21.85 6.45 -23.6 6.45 -24.9 5.15 L-25.7 4.1 -26.5 5.15 Q-27.75 6.45 -29.5 6.45 -30.85 6.45 -31.95 5.7 L-31.95 4.35 -31.85 4.45 Q-30.85 5.45 -29.5 5.45 -28.15 5.45 -27.2 4.45 -26.25 3.5 -26.25 2.15 -26.25 0.8 -27.2 -0.15 L-28.05 -0.75 M-18.6 2.15 Q-18.6 0.8 -19.55 -0.15 -20.5 -1.1 -21.85 -1.1 -23.2 -1.1 -24.2 -0.15 -25.15 0.8 -25.15 2.15 -25.15 3.5 -24.2 4.45 -23.2 5.45 -21.85 5.45 -20.5 5.45 -19.55 4.45 -18.6 3.5 -18.6 2.15 M-9.6 11.55 L-10.0 12.35 -10.2 13.15 -11.2 13.15 -11.05 12.35 Q-11.3 11.65 -11.85 11.1 -12.8 10.15 -14.15 10.15 -15.5 10.15 -16.5 11.1 -17.35 11.95 -17.45 13.15 L-18.6 13.15 Q-18.7 11.95 -19.55 11.1 -20.5 10.15 -21.85 10.15 -23.2 10.15 -24.2 11.1 -25.05 11.95 -25.15 13.15 L-26.25 13.15 Q-26.35 11.95 -27.2 11.1 -28.15 10.15 -29.5 10.15 -30.85 10.15 -31.85 11.1 -32.7 11.95 -32.8 13.15 L-33.85 13.15 -33.95 12.6 -33.95 10.55 Q-33.55 10.95 -33.3 11.45 L-32.55 10.4 Q-31.25 9.15 -29.5 9.15 -27.75 9.15 -26.5 10.4 L-25.7 11.5 -24.9 10.4 Q-23.6 9.15 -21.85 9.15 -20.1 9.15 -18.85 10.4 -18.35 10.9 -18.0 11.55 L-17.2 10.4 Q-15.9 9.15 -14.15 9.15 -12.4 9.15 -11.15 10.4 L-10.55 11.15 -10.35 10.85 -9.6 11.55" fill="#d2bf4f" fill-rule="evenodd" stroke="none"/>
    <path d="M8.8 -12.45 L9.35 -12.5 Q10.7 -12.5 11.65 -11.55 12.6 -10.6 12.6 -9.25 L12.55 -8.6 11.55 -9.9 11.05 -10.75 10.3 -11.2 8.8 -12.45 M31.15 -6.2 Q30.55 -6.45 30.05 -6.95 29.1 -7.9 29.1 -9.25 29.1 -10.6 30.05 -11.55 L31.15 -12.25 31.15 -6.2 M19.15 -9.6 Q19.15 -10.25 18.65 -10.75 18.2 -11.25 17.5 -11.25 16.8 -11.25 16.3 -10.75 15.8 -10.25 15.8 -9.6 15.8 -8.9 16.3 -8.4 16.8 -7.9 17.5 -7.9 18.2 -7.9 18.65 -8.4 19.15 -8.9 19.15 -9.6 M20.2 -9.25 Q20.2 -7.9 19.25 -6.95 18.3 -5.95 16.95 -5.95 15.6 -5.95 14.6 -6.95 13.65 -7.9 13.65 -9.25 13.65 -10.6 14.6 -11.55 15.6 -12.5 16.95 -12.5 18.3 -12.5 19.25 -11.55 20.2 -10.6 20.2 -9.25 M15.15 -0.55 Q15.95 -1.1 16.95 -1.1 18.3 -1.1 19.25 -0.15 20.2 0.8 20.2 2.15 20.2 3.5 19.25 4.45 18.3 5.45 16.95 5.45 15.6 5.45 14.6 4.45 L14.55 4.35 Q15.15 2.25 15.15 -0.1 L15.15 -0.55 M31.15 5.2 Q30.55 4.95 30.05 4.45 29.1 3.5 29.1 2.15 29.1 0.8 30.05 -0.15 L31.15 -0.85 31.15 5.2 M26.8 -9.6 Q26.8 -10.25 26.3 -10.75 25.85 -11.25 25.15 -11.25 24.45 -11.25 23.95 -10.75 23.45 -10.25 23.45 -9.6 23.45 -8.9 23.95 -8.4 24.45 -7.9 25.15 -7.9 25.85 -7.9 26.3 -8.4 26.8 -8.9 26.8 -9.6 M27.85 -9.25 Q27.85 -7.9 26.9 -6.95 25.95 -5.95 24.6 -5.95 23.25 -5.95 22.25 -6.95 21.3 -7.9 21.3 -9.25 21.3 -10.6 22.25 -11.55 23.25 -12.5 24.6 -12.5 25.95 -12.5 26.9 -11.55 27.85 -10.6 27.85 -9.25 M27.85 2.15 Q27.85 3.5 26.9 4.45 25.95 5.45 24.6 5.45 23.25 5.45 22.25 4.45 21.3 3.5 21.3 2.15 21.3 0.8 22.25 -0.15 23.25 -1.1 24.6 -1.1 25.95 -1.1 26.9 -0.15 27.85 0.8 27.85 2.15 M10.8 10.5 L11.65 11.1 Q12.5 11.95 12.6 13.15 L11.55 13.15 11.55 13.05 Q11.55 12.4 11.05 11.9 10.6 11.4 9.9 11.4 L9.8 11.4 10.7 10.55 10.8 10.5 M13.65 13.15 Q13.75 11.95 14.6 11.1 15.6 10.15 16.95 10.15 18.3 10.15 19.25 11.1 20.1 11.95 20.2 13.15 L19.15 13.15 19.15 13.05 Q19.15 12.4 18.65 11.9 18.2 11.4 17.5 11.4 16.8 11.4 16.3 11.9 15.8 12.4 15.8 13.05 L15.8 13.15 13.65 13.15 M21.4 13.15 Q21.5 11.95 22.35 11.1 23.35 10.15 24.7 10.15 26.05 10.15 27.0 11.1 27.85 11.95 27.95 13.15 L26.9 13.15 26.9 13.05 Q26.9 12.4 26.4 11.9 25.95 11.4 25.25 11.4 24.55 11.4 24.05 11.9 23.55 12.4 23.55 13.05 L23.55 13.15 21.4 13.15 M29.1 13.15 Q29.2 11.95 30.05 11.1 30.55 10.6 31.15 10.4 L31.15 13.15 29.1 13.15 M26.8 1.8 Q26.8 1.15 26.3 0.65 25.85 0.15 25.15 0.15 24.45 0.15 23.95 0.65 23.45 1.15 23.45 1.8 23.45 2.5 23.95 3.0 24.45 3.5 25.15 3.5 25.85 3.5 26.3 3.0 26.8 2.5 26.8 1.8 M19.15 1.8 Q19.15 1.15 18.65 0.65 18.2 0.15 17.5 0.15 16.8 0.15 16.3 0.65 15.8 1.15 15.8 1.8 15.8 2.5 16.3 3.0 16.8 3.5 17.5 3.5 18.2 3.5 18.65 3.0 19.15 2.5 19.15 1.8 M8.3 12.6 L8.2 13.05 8.2 13.15 7.35 13.15 8.3 12.6 M-33.95 -10.05 L-33.85 -9.25 -33.95 -8.4 -33.95 -10.05 M-13.9 -5.95 L-14.15 -5.95 Q-15.5 -5.95 -16.5 -6.95 -17.45 -7.9 -17.45 -9.25 -17.45 -10.6 -16.5 -11.55 -15.5 -12.5 -14.15 -12.5 -12.8 -12.5 -11.85 -11.55 L-11.05 -10.35 -11.95 -9.25 -11.95 -9.6 Q-11.95 -10.25 -12.45 -10.75 -12.9 -11.25 -13.6 -11.25 -14.3 -11.25 -14.8 -10.75 -15.3 -10.25 -15.3 -9.6 -15.3 -8.9 -14.8 -8.4 -14.3 -7.9 -13.6 -7.9 L-12.8 -8.1 -13.9 -5.95 M-26.25 -9.25 Q-26.25 -7.9 -27.2 -6.95 -28.15 -5.95 -29.5 -5.95 -30.85 -5.95 -31.85 -6.95 -32.8 -7.9 -32.8 -9.25 -32.8 -10.6 -31.85 -11.55 -30.85 -12.5 -29.5 -12.5 -28.15 -12.5 -27.2 -11.55 -26.25 -10.6 -26.25 -9.25 M-18.6 -9.25 Q-18.6 -7.9 -19.55 -6.95 -20.5 -5.95 -21.85 -5.95 -23.2 -5.95 -24.2 -6.95 -25.15 -7.9 -25.15 -9.25 -25.15 -10.6 -24.2 -11.55 -23.2 -12.5 -21.85 -12.5 -20.5 -12.5 -19.55 -11.55 -18.6 -10.6 -18.6 -9.25 M-27.3 -9.6 Q-27.3 -10.25 -27.8 -10.75 -28.25 -11.25 -28.95 -11.25 -29.65 -11.25 -30.15 -10.75 -30.65 -10.25 -30.65 -9.6 -30.65 -8.9 -30.15 -8.4 -29.65 -7.9 -28.95 -7.9 -28.25 -7.9 -27.8 -8.4 -27.3 -8.9 -27.3 -9.6 M-19.65 -9.6 Q-19.65 -10.25 -20.15 -10.75 -20.6 -11.25 -21.3 -11.25 -22.0 -11.25 -22.5 -10.75 -23.0 -10.25 -23.0 -9.6 -23.0 -8.9 -22.5 -8.4 -22.0 -7.9 -21.3 -7.9 -20.6 -7.9 -20.15 -8.4 -19.65 -8.9 -19.65 -9.6 M-28.05 -0.75 L-27.2 -0.15 Q-26.25 0.8 -26.25 2.15 -26.25 3.5 -27.2 4.45 -28.15 5.45 -29.5 5.45 -30.85 5.45 -31.85 4.45 L-31.95 4.35 -31.95 3.05 -30.1 3.05 Q-29.6 3.5 -28.95 3.5 -28.25 3.5 -27.8 3.0 -27.3 2.5 -27.3 1.8 -27.3 1.15 -27.8 0.65 -27.9 0.5 -28.05 0.45 L-28.05 -0.75 M-14.05 5.45 L-14.15 5.45 Q-15.5 5.45 -16.5 4.45 -17.45 3.5 -17.45 2.15 -17.45 0.8 -16.5 -0.15 -15.85 -0.8 -15.0 -1.0 L-15.05 -0.1 -15.0 0.9 -15.3 1.8 Q-15.3 2.5 -14.8 3.0 L-14.75 3.05 -14.05 5.45 M-18.6 2.15 Q-18.6 3.5 -19.55 4.45 -20.5 5.45 -21.85 5.45 -23.2 5.45 -24.2 4.45 -25.15 3.5 -25.15 2.15 -25.15 0.8 -24.2 -0.15 -23.2 -1.1 -21.85 -1.1 -20.5 -1.1 -19.55 -0.15 -18.6 0.8 -18.6 2.15 M-10.2 13.15 L-10.0 12.35 -9.6 11.55 -8.0 12.7 -8.05 13.05 -8.05 13.15 -10.2 13.15 M-33.95 12.6 L-33.85 13.15 -33.95 13.15 -33.95 12.6 M-32.8 13.15 Q-32.7 11.95 -31.85 11.1 -30.85 10.15 -29.5 10.15 -28.15 10.15 -27.2 11.1 -26.35 11.95 -26.25 13.15 L-27.3 13.15 -27.3 13.05 Q-27.3 12.4 -27.8 11.9 -28.25 11.4 -28.95 11.4 -29.65 11.4 -30.15 11.9 -30.65 12.4 -30.65 13.05 L-30.65 13.15 -32.8 13.15 M-25.15 13.15 Q-25.05 11.95 -24.2 11.1 -23.2 10.15 -21.85 10.15 -20.5 10.15 -19.55 11.1 -18.7 11.95 -18.6 13.15 L-19.65 13.15 -19.65 13.05 Q-19.65 12.4 -20.15 11.9 -20.6 11.4 -21.3 11.4 -22.0 11.4 -22.5 11.9 -23.0 12.4 -23.0 13.05 L-23.0 13.15 -25.15 13.15 M-17.45 13.15 Q-17.35 11.95 -16.5 11.1 -15.5 10.15 -14.15 10.15 -12.8 10.15 -11.85 11.1 -11.3 11.65 -11.05 12.35 L-11.2 13.15 -11.95 13.15 -11.95 13.05 Q-11.95 12.4 -12.45 11.9 -12.9 11.4 -13.6 11.4 -14.3 11.4 -14.8 11.9 -15.3 12.4 -15.3 13.05 L-15.3 13.15 -17.45 13.15 M-19.65 1.8 Q-19.65 1.15 -20.15 0.65 -20.6 0.15 -21.3 0.15 -22.0 0.15 -22.5 0.65 -23.0 1.15 -23.0 1.8 -23.0 2.5 -22.5 3.0 -22.0 3.5 -21.3 3.5 -20.6 3.5 -20.15 3.0 -19.65 2.5 -19.65 1.8" fill="#fff08c" fill-rule="evenodd" stroke="none"/>
    <path d="M19.15 -9.6 Q19.15 -8.9 18.65 -8.4 18.2 -7.9 17.5 -7.9 16.8 -7.9 16.3 -8.4 15.8 -8.9 15.8 -9.6 15.8 -10.25 16.3 -10.75 16.8 -11.25 17.5 -11.25 18.2 -11.25 18.65 -10.75 19.15 -10.25 19.15 -9.6 M11.55 -9.9 L10.7 -10.8 10.3 -11.2 11.05 -10.75 11.55 -9.9 M26.8 -9.6 Q26.8 -8.9 26.3 -8.4 25.85 -7.9 25.15 -7.9 24.45 -7.9 23.95 -8.4 23.45 -8.9 23.45 -9.6 23.45 -10.25 23.95 -10.75 24.45 -11.25 25.15 -11.25 25.85 -11.25 26.3 -10.75 26.8 -10.25 26.8 -9.6 M26.8 1.8 Q26.8 2.5 26.3 3.0 25.85 3.5 25.15 3.5 24.45 3.5 23.95 3.0 23.45 2.5 23.45 1.8 23.45 1.15 23.95 0.65 24.45 0.15 25.15 0.15 25.85 0.15 26.3 0.65 26.8 1.15 26.8 1.8 M23.55 13.15 L23.55 13.05 Q23.55 12.4 24.05 11.9 24.55 11.4 25.25 11.4 25.95 11.4 26.4 11.9 26.9 12.4 26.9 13.05 L26.9 13.15 23.55 13.15 M19.15 1.8 Q19.15 2.5 18.65 3.0 18.2 3.5 17.5 3.5 16.8 3.5 16.3 3.0 15.8 2.5 15.8 1.8 15.8 1.15 16.3 0.65 16.8 0.15 17.5 0.15 18.2 0.15 18.65 0.65 19.15 1.15 19.15 1.8 M15.8 13.15 L15.8 13.05 Q15.8 12.4 16.3 11.9 16.8 11.4 17.5 11.4 18.2 11.4 18.65 11.9 19.15 12.4 19.15 13.05 L19.15 13.15 15.8 13.15 M9.8 11.4 L9.9 11.4 Q10.6 11.4 11.05 11.9 11.55 12.4 11.55 13.05 L11.55 13.15 8.2 13.15 8.2 13.05 8.3 12.6 9.8 11.4 M-11.95 -9.25 L-12.8 -8.1 -13.6 -7.9 Q-14.3 -7.9 -14.8 -8.4 -15.3 -8.9 -15.3 -9.6 -15.3 -10.25 -14.8 -10.75 -14.3 -11.25 -13.6 -11.25 -12.9 -11.25 -12.45 -10.75 -11.95 -10.25 -11.95 -9.6 L-11.95 -9.25 M-19.65 -9.6 Q-19.65 -8.9 -20.15 -8.4 -20.6 -7.9 -21.3 -7.9 -22.0 -7.9 -22.5 -8.4 -23.0 -8.9 -23.0 -9.6 -23.0 -10.25 -22.5 -10.75 -22.0 -11.25 -21.3 -11.25 -20.6 -11.25 -20.15 -10.75 -19.65 -10.25 -19.65 -9.6 M-27.3 -9.6 Q-27.3 -8.9 -27.8 -8.4 -28.25 -7.9 -28.95 -7.9 -29.65 -7.9 -30.15 -8.4 -30.65 -8.9 -30.65 -9.6 -30.65 -10.25 -30.15 -10.75 -29.65 -11.25 -28.95 -11.25 -28.25 -11.25 -27.8 -10.75 -27.3 -10.25 -27.3 -9.6 M-15.0 0.9 L-14.75 3.05 -14.8 3.0 Q-15.3 2.5 -15.3 1.8 L-15.0 0.9 M-8.05 13.15 L-8.05 13.05 -8.0 12.7 -7.25 13.15 -8.05 13.15 M-19.65 1.8 Q-19.65 2.5 -20.15 3.0 -20.6 3.5 -21.3 3.5 -22.0 3.5 -22.5 3.0 -23.0 2.5 -23.0 1.8 -23.0 1.15 -22.5 0.65 -22.0 0.15 -21.3 0.15 -20.6 0.15 -20.15 0.65 -19.65 1.15 -19.65 1.8 M-15.3 13.15 L-15.3 13.05 Q-15.3 12.4 -14.8 11.9 -14.3 11.4 -13.6 11.4 -12.9 11.4 -12.45 11.9 -11.95 12.4 -11.95 13.05 L-11.95 13.15 -15.3 13.15 M-19.65 13.15 L-23.0 13.15 -23.0 13.05 Q-23.0 12.4 -22.5 11.9 -22.0 11.4 -21.3 11.4 -20.6 11.4 -20.15 11.9 -19.65 12.4 -19.65 13.05 L-19.65 13.15 M-28.05 0.45 Q-27.9 0.5 -27.8 0.65 -27.3 1.15 -27.3 1.8 -27.3 2.5 -27.8 3.0 -28.25 3.5 -28.95 3.5 -29.6 3.5 -30.1 3.05 L-28.05 3.05 -28.05 0.45 M-30.65 13.15 L-30.65 13.05 Q-30.65 12.4 -30.15 11.9 -29.65 11.4 -28.95 11.4 -28.25 11.4 -27.8 11.9 -27.3 12.4 -27.3 13.05 L-27.3 13.15 -30.65 13.15" fill="#fff9db" fill-rule="evenodd" stroke="none"/>
    <path d="M14.55 -13.25 L14.05 -12.65 Q13.1 -11.65 11.75 -11.65 10.4 -11.65 9.4 -12.65 L8.95 -13.25 14.55 -13.25 M29.85 -13.25 L29.35 -12.65 Q28.4 -11.65 27.05 -11.65 25.7 -11.65 24.7 -12.65 L24.25 -13.25 29.85 -13.25 M22.2 -13.25 L21.7 -12.65 Q20.75 -11.65 19.4 -11.65 18.05 -11.65 17.05 -12.65 L16.6 -13.25 22.2 -13.25 M14.1 -5.75 Q15.0 -4.8 15.0 -3.5 L14.95 -2.75 14.1 -5.75 M21.6 -3.85 Q21.6 -4.5 21.1 -5.0 20.65 -5.5 19.95 -5.5 19.25 -5.5 18.75 -5.0 18.25 -4.5 18.25 -3.85 18.25 -3.15 18.75 -2.65 19.25 -2.15 19.95 -2.15 20.65 -2.15 21.1 -2.65 21.6 -3.15 21.6 -3.85 M22.65 -3.5 Q22.65 -2.15 21.7 -1.2 20.75 -0.2 19.4 -0.2 18.05 -0.2 17.05 -1.2 16.1 -2.15 16.1 -3.5 16.1 -4.85 17.05 -5.8 18.05 -6.75 19.4 -6.75 20.75 -6.75 21.7 -5.8 22.65 -4.85 22.65 -3.5 M30.3 -3.5 Q30.3 -2.15 29.35 -1.2 28.4 -0.2 27.05 -0.2 25.7 -0.2 24.7 -1.2 23.75 -2.15 23.75 -3.5 23.75 -4.85 24.7 -5.8 25.7 -6.75 27.05 -6.75 28.4 -6.75 29.35 -5.8 30.3 -4.85 30.3 -3.5 M29.25 -3.85 Q29.25 -4.5 28.75 -5.0 28.3 -5.5 27.6 -5.5 26.9 -5.5 26.4 -5.0 25.9 -4.5 25.9 -3.85 25.9 -3.15 26.4 -2.65 26.9 -2.15 27.6 -2.15 28.3 -2.15 28.75 -2.65 29.25 -3.15 29.25 -3.85 M14.05 5.6 Q15.0 6.55 15.0 7.9 15.0 9.25 14.05 10.2 13.1 11.2 11.75 11.2 L10.35 10.9 10.7 10.55 11.95 9.2 12.3 9.25 Q13.0 9.25 13.45 8.75 13.95 8.25 13.95 7.55 L13.65 6.6 14.05 5.6 M30.3 7.9 Q30.3 9.25 29.35 10.2 28.4 11.2 27.05 11.2 25.7 11.2 24.7 10.2 23.75 9.25 23.75 7.9 23.75 6.55 24.7 5.6 25.7 4.65 27.05 4.65 28.4 4.65 29.35 5.6 30.3 6.55 30.3 7.9 M21.6 7.55 Q21.6 6.9 21.1 6.4 20.65 5.9 19.95 5.9 19.25 5.9 18.75 6.4 18.25 6.9 18.25 7.55 18.25 8.25 18.75 8.75 19.25 9.25 19.95 9.25 20.65 9.25 21.1 8.75 21.6 8.25 21.6 7.55 M22.65 7.9 Q22.65 9.25 21.7 10.2 20.75 11.2 19.4 11.2 18.05 11.2 17.05 10.2 16.1 9.25 16.1 7.9 16.1 6.55 17.05 5.6 18.05 4.65 19.4 4.65 20.75 4.65 21.7 5.6 22.65 6.55 22.65 7.9 M29.25 7.55 Q29.25 6.9 28.75 6.4 28.3 5.9 27.6 5.9 26.9 5.9 26.4 6.4 25.9 6.9 25.9 7.55 25.9 8.25 26.4 8.75 26.9 9.25 27.6 9.25 28.3 9.25 28.75 8.75 29.25 8.25 29.25 7.55 M-24.25 -13.25 L-24.75 -12.65 Q-25.7 -11.65 -27.05 -11.65 -28.4 -11.65 -29.4 -12.65 L-29.85 -13.25 -24.25 -13.25 M-31.9 -13.25 L-32.4 -12.65 Q-33.05 -11.95 -33.95 -11.7 L-33.95 -13.25 -31.9 -13.25 M-8.9 -13.25 L-9.4 -12.65 Q-10.35 -11.65 -11.7 -11.65 -13.05 -11.65 -14.05 -12.65 L-14.5 -13.25 -8.9 -13.25 M-16.6 -13.25 L-17.1 -12.65 Q-18.05 -11.65 -19.4 -11.65 -20.75 -11.65 -21.75 -12.65 L-22.2 -13.25 -16.6 -13.25 M-31.95 -5.25 Q-31.45 -4.5 -31.45 -3.5 L-31.45 -3.0 -31.95 -3.0 -31.95 -5.25 M-30.3 -3.0 L-30.35 -3.5 Q-30.35 -4.85 -29.4 -5.8 -28.4 -6.75 -27.05 -6.75 -25.7 -6.75 -24.75 -5.8 -23.8 -4.85 -23.8 -3.5 -23.8 -2.15 -24.75 -1.2 -25.7 -0.2 -27.05 -0.2 L-28.05 -0.35 -28.05 -3.0 -30.3 -3.0 M-14.85 -2.55 L-15.0 -3.5 Q-15.0 -4.85 -14.05 -5.8 L-13.95 -5.85 Q-14.6 -4.3 -14.85 -2.55 M-24.85 -3.85 Q-24.85 -4.5 -25.35 -5.0 -25.8 -5.5 -26.5 -5.5 -27.2 -5.5 -27.7 -5.0 -28.2 -4.5 -28.2 -3.85 -28.2 -3.15 -27.7 -2.65 -27.2 -2.15 -26.5 -2.15 -25.8 -2.15 -25.35 -2.65 -24.85 -3.15 -24.85 -3.85 M-16.15 -3.5 Q-16.15 -2.15 -17.1 -1.2 -18.05 -0.2 -19.4 -0.2 -20.75 -0.2 -21.75 -1.2 -22.7 -2.15 -22.7 -3.5 -22.7 -4.85 -21.75 -5.8 -20.75 -6.75 -19.4 -6.75 -18.05 -6.75 -17.1 -5.8 -16.15 -4.85 -16.15 -3.5 M-17.2 -3.85 Q-17.2 -4.5 -17.7 -5.0 -18.15 -5.5 -18.85 -5.5 -19.55 -5.5 -20.05 -5.0 -20.55 -4.5 -20.55 -3.85 -20.55 -3.15 -20.05 -2.65 -19.55 -2.15 -18.85 -2.15 -18.15 -2.15 -17.7 -2.65 -17.2 -3.15 -17.2 -3.85 M-10.3 10.9 L-11.7 11.2 Q-13.05 11.2 -14.05 10.2 -15.0 9.25 -15.0 7.9 -15.0 6.55 -14.05 5.6 L-14.0 5.55 -12.8 7.85 -12.35 8.75 -12.0 9.05 -10.65 10.55 -10.3 10.9 M-31.95 6.15 Q-31.45 6.9 -31.45 7.9 -31.45 9.25 -32.4 10.2 -33.05 10.9 -33.95 11.15 L-33.95 9.25 Q-33.4 9.2 -33.0 8.75 -32.5 8.25 -32.5 7.55 L-32.6 6.95 -31.95 6.95 -31.95 6.15 M-16.15 7.9 Q-16.15 9.25 -17.1 10.2 -18.05 11.2 -19.4 11.2 -20.75 11.2 -21.75 10.2 -22.7 9.25 -22.7 7.9 -22.7 6.55 -21.75 5.6 -20.75 4.65 -19.4 4.65 -18.05 4.65 -17.1 5.6 -16.15 6.55 -16.15 7.9 M-17.2 7.55 Q-17.2 6.9 -17.7 6.4 -18.15 5.9 -18.85 5.9 -19.55 5.9 -20.05 6.4 -20.55 6.9 -20.55 7.55 -20.55 8.25 -20.05 8.75 -19.55 9.25 -18.85 9.25 -18.15 9.25 -17.7 8.75 -17.2 8.25 -17.2 7.55 M-23.8 7.9 Q-23.8 9.25 -24.75 10.2 -25.7 11.2 -27.05 11.2 -28.4 11.2 -29.4 10.2 -30.35 9.25 -30.35 7.9 -30.35 6.55 -29.4 5.6 -28.4 4.65 -27.05 4.65 -25.7 4.65 -24.75 5.6 -23.8 6.55 -23.8 7.9 M-24.85 7.55 Q-24.85 6.9 -25.35 6.4 -25.8 5.9 -26.5 5.9 -27.2 5.9 -27.7 6.4 -28.2 6.9 -28.2 7.55 -28.2 8.25 -27.7 8.75 -27.2 9.25 -26.5 9.25 -25.8 9.25 -25.35 8.75 -24.85 8.25 -24.85 7.55" fill="#fff08c" fill-rule="evenodd" stroke="none"/>
    <path d="M21.6 -3.85 Q21.6 -3.15 21.1 -2.65 20.65 -2.15 19.95 -2.15 19.25 -2.15 18.75 -2.65 18.25 -3.15 18.25 -3.85 18.25 -4.5 18.75 -5.0 19.25 -5.5 19.95 -5.5 20.65 -5.5 21.1 -5.0 21.6 -4.5 21.6 -3.85 M29.25 -3.85 Q29.25 -3.15 28.75 -2.65 28.3 -2.15 27.6 -2.15 26.9 -2.15 26.4 -2.65 25.9 -3.15 25.9 -3.85 25.9 -4.5 26.4 -5.0 26.9 -5.5 27.6 -5.5 28.3 -5.5 28.75 -5.0 29.25 -4.5 29.25 -3.85 M11.95 9.2 L13.65 6.6 13.95 7.55 Q13.95 8.25 13.45 8.75 13.0 9.25 12.3 9.25 L11.95 9.2 M21.6 7.55 Q21.6 8.25 21.1 8.75 20.65 9.25 19.95 9.25 19.25 9.25 18.75 8.75 18.25 8.25 18.25 7.55 18.25 6.9 18.75 6.4 19.25 5.9 19.95 5.9 20.65 5.9 21.1 6.4 21.6 6.9 21.6 7.55 M29.25 7.55 Q29.25 8.25 28.75 8.75 28.3 9.25 27.6 9.25 26.9 9.25 26.4 8.75 25.9 8.25 25.9 7.55 25.9 6.9 26.4 6.4 26.9 5.9 27.6 5.9 28.3 5.9 28.75 6.4 29.25 6.9 29.25 7.55 M-24.85 -3.85 Q-24.85 -3.15 -25.35 -2.65 -25.8 -2.15 -26.5 -2.15 -27.2 -2.15 -27.7 -2.65 -28.2 -3.15 -28.2 -3.85 -28.2 -4.5 -27.7 -5.0 -27.2 -5.5 -26.5 -5.5 -25.8 -5.5 -25.35 -5.0 -24.85 -4.5 -24.85 -3.85 M-17.2 -3.85 Q-17.2 -3.15 -17.7 -2.65 -18.15 -2.15 -18.85 -2.15 -19.55 -2.15 -20.05 -2.65 -20.55 -3.15 -20.55 -3.85 -20.55 -4.5 -20.05 -5.0 -19.55 -5.5 -18.85 -5.5 -18.15 -5.5 -17.7 -5.0 -17.2 -4.5 -17.2 -3.85 M-12.0 9.05 L-12.35 8.75 -12.8 7.85 -12.0 9.05 M-17.2 7.55 Q-17.2 8.25 -17.7 8.75 -18.15 9.25 -18.85 9.25 -19.55 9.25 -20.05 8.75 -20.55 8.25 -20.55 7.55 -20.55 6.9 -20.05 6.4 -19.55 5.9 -18.85 5.9 -18.15 5.9 -17.7 6.4 -17.2 6.9 -17.2 7.55 M-24.85 7.55 Q-24.85 8.25 -25.35 8.75 -25.8 9.25 -26.5 9.25 -27.2 9.25 -27.7 8.75 -28.2 8.25 -28.2 7.55 -28.2 6.9 -27.7 6.4 -27.2 5.9 -26.5 5.9 -25.8 5.9 -25.35 6.4 -24.85 6.9 -24.85 7.55 M-32.6 6.95 L-32.5 7.55 Q-32.5 8.25 -33.0 8.75 -33.4 9.2 -33.95 9.25 L-33.95 6.95 -32.6 6.95" fill="#fff9db" fill-rule="evenodd" stroke="none"/>
    <path d="M8.95 -13.25 L9.4 -12.65 Q10.4 -11.65 11.75 -11.65 13.1 -11.65 14.05 -12.65 L14.55 -13.25 16.6 -13.25 17.05 -12.65 Q18.05 -11.65 19.4 -11.65 20.75 -11.65 21.7 -12.65 L22.2 -13.25 24.25 -13.25 24.7 -12.65 Q25.7 -11.65 27.05 -11.65 28.4 -11.65 29.35 -12.65 L29.85 -13.25 31.15 -13.25 31.15 -12.6 30.9 -13.05 30.05 -11.95 Q28.8 -10.65 27.05 -10.65 25.3 -10.65 24.0 -11.95 L23.2 -13.0 22.4 -11.95 Q21.15 -10.65 19.4 -10.65 17.65 -10.65 16.35 -11.95 L15.55 -13.0 14.75 -11.95 Q13.5 -10.65 11.75 -10.65 L10.75 -10.75 10.7 -10.8 7.55 -13.25 8.95 -13.25 M14.1 -5.75 L14.05 -5.8 13.25 -7.45 Q14.1 -7.15 14.75 -6.5 L15.55 -5.4 16.35 -6.5 Q17.65 -7.75 19.4 -7.75 21.15 -7.75 22.4 -6.5 L23.2 -5.4 24.0 -6.5 Q25.3 -7.75 27.05 -7.75 28.8 -7.75 30.05 -6.5 L30.9 -5.35 31.15 -5.85 31.15 -1.15 30.9 -1.6 30.05 -0.5 Q28.8 0.8 27.05 0.8 25.3 0.8 24.0 -0.5 L23.2 -1.55 22.4 -0.5 Q21.15 0.8 19.4 0.8 17.65 0.8 16.35 -0.5 L15.55 -1.55 15.15 -0.9 14.95 -2.75 15.0 -3.5 Q15.0 -4.8 14.1 -5.75 M22.65 -3.5 Q22.65 -4.85 21.7 -5.8 20.75 -6.75 19.4 -6.75 18.05 -6.75 17.05 -5.8 16.1 -4.85 16.1 -3.5 16.1 -2.15 17.05 -1.2 18.05 -0.2 19.4 -0.2 20.75 -0.2 21.7 -1.2 22.65 -2.15 22.65 -3.5 M30.3 -3.5 Q30.3 -4.85 29.35 -5.8 28.4 -6.75 27.05 -6.75 25.7 -6.75 24.7 -5.8 23.75 -4.85 23.75 -3.5 23.75 -2.15 24.7 -1.2 25.7 -0.2 27.05 -0.2 28.4 -0.2 29.35 -1.2 30.3 -2.15 30.3 -3.5 M14.05 5.6 L14.45 4.6 14.75 4.9 15.55 6.0 16.35 4.9 Q17.65 3.65 19.4 3.65 21.15 3.65 22.4 4.9 L23.2 6.0 24.0 4.9 Q25.3 3.65 27.05 3.65 28.8 3.65 30.05 4.9 L30.9 6.05 31.15 5.55 31.15 10.25 30.9 9.8 30.05 10.9 Q28.8 12.2 27.05 12.2 25.3 12.2 24.0 10.9 L23.2 9.85 22.4 10.9 Q21.15 12.2 19.4 12.2 17.65 12.2 16.35 10.9 L15.55 9.85 14.75 10.9 Q13.5 12.2 11.75 12.2 10.55 12.2 9.6 11.6 L10.35 10.9 11.75 11.2 Q13.1 11.2 14.05 10.2 15.0 9.25 15.0 7.9 15.0 6.55 14.05 5.6 M30.3 7.9 Q30.3 6.55 29.35 5.6 28.4 4.65 27.05 4.65 25.7 4.65 24.7 5.6 23.75 6.55 23.75 7.9 23.75 9.25 24.7 10.2 25.7 11.2 27.05 11.2 28.4 11.2 29.35 10.2 30.3 9.25 30.3 7.9 M22.65 7.9 Q22.65 6.55 21.7 5.6 20.75 4.65 19.4 4.65 18.05 4.65 17.05 5.6 16.1 6.55 16.1 7.9 16.1 9.25 17.05 10.2 18.05 11.2 19.4 11.2 20.75 11.2 21.7 10.2 22.65 9.25 22.65 7.9 M-29.85 -13.25 L-29.4 -12.65 Q-28.4 -11.65 -27.05 -11.65 -25.7 -11.65 -24.75 -12.65 L-24.25 -13.25 -22.2 -13.25 -21.75 -12.65 Q-20.75 -11.65 -19.4 -11.65 -18.05 -11.65 -17.1 -12.65 L-16.6 -13.25 -14.5 -13.25 -14.05 -12.65 Q-13.05 -11.65 -11.7 -11.65 -10.35 -11.65 -9.4 -12.65 L-8.9 -13.25 -7.45 -13.25 -7.85 -13.0 -7.85 -13.05 -7.9 -12.95 -10.65 -10.8 -10.65 -10.75 -11.7 -10.65 Q-13.45 -10.65 -14.75 -11.95 L-15.55 -13.05 -16.4 -11.95 Q-17.65 -10.65 -19.4 -10.65 -21.15 -10.65 -22.45 -11.95 L-23.25 -13.0 -24.05 -11.95 Q-25.3 -10.65 -27.05 -10.65 -28.8 -10.65 -30.1 -11.95 L-30.9 -13.0 -31.7 -11.95 Q-32.65 -10.95 -33.95 -10.7 L-33.95 -11.7 Q-33.05 -11.95 -32.4 -12.65 L-31.9 -13.25 -29.85 -13.25 M-33.95 -6.9 L-33.95 -7.7 Q-32.95 -7.5 -32.15 -6.9 L-33.95 -6.9 M-31.95 -5.25 L-31.95 -6.7 -31.7 -6.5 -30.9 -5.4 -30.1 -6.5 Q-28.8 -7.75 -27.05 -7.75 -25.3 -7.75 -24.05 -6.5 L-23.25 -5.4 -22.45 -6.5 Q-21.15 -7.75 -19.4 -7.75 -17.65 -7.75 -16.4 -6.5 L-15.55 -5.35 -14.75 -6.5 Q-14.05 -7.2 -13.15 -7.5 L-13.95 -5.85 -14.05 -5.8 Q-15.0 -4.85 -15.0 -3.5 L-14.85 -2.55 -15.0 -0.8 -15.55 -1.6 -16.4 -0.5 Q-17.65 0.8 -19.4 0.8 -21.15 0.8 -22.45 -0.5 L-23.25 -1.55 -24.05 -0.5 Q-25.3 0.8 -27.05 0.8 L-28.05 0.7 -28.05 -0.35 -27.05 -0.2 Q-25.7 -0.2 -24.75 -1.2 -23.8 -2.15 -23.8 -3.5 -23.8 -4.85 -24.75 -5.8 -25.7 -6.75 -27.05 -6.75 -28.4 -6.75 -29.4 -5.8 -30.35 -4.85 -30.35 -3.5 L-30.3 -3.0 -31.45 -3.0 -31.45 -3.5 Q-31.45 -4.5 -31.95 -5.25 M-16.15 -3.5 Q-16.15 -4.85 -17.1 -5.8 -18.05 -6.75 -19.4 -6.75 -20.75 -6.75 -21.75 -5.8 -22.7 -4.85 -22.7 -3.5 -22.7 -2.15 -21.75 -1.2 -20.75 -0.2 -19.4 -0.2 -18.05 -0.2 -17.1 -1.2 -16.15 -2.15 -16.15 -3.5 M-14.0 5.55 L-14.05 5.6 Q-15.0 6.55 -15.0 7.9 -15.0 9.25 -14.05 10.2 -13.05 11.2 -11.7 11.2 L-10.3 10.9 -9.5 11.6 Q-10.5 12.2 -11.7 12.2 -13.45 12.2 -14.75 10.9 L-15.55 9.8 -16.4 10.9 Q-17.65 12.2 -19.4 12.2 -21.15 12.2 -22.45 10.9 L-23.25 9.85 -24.05 10.9 Q-25.3 12.2 -27.05 12.2 -28.8 12.2 -30.1 10.9 L-30.9 9.85 -31.7 10.9 Q-32.65 11.9 -33.95 12.15 L-33.95 11.15 Q-33.05 10.9 -32.4 10.2 -31.45 9.25 -31.45 7.9 -31.45 6.9 -31.95 6.15 L-31.95 4.7 -31.7 4.9 -30.9 6.0 -30.1 4.9 Q-28.8 3.65 -27.05 3.65 -25.3 3.65 -24.05 4.9 L-23.25 6.0 -22.45 4.9 Q-21.15 3.65 -19.4 3.65 -17.65 3.65 -16.4 4.9 -15.9 5.4 -15.55 6.05 -15.25 5.4 -14.75 4.9 L-14.35 4.55 -14.0 5.55 M-16.15 7.9 Q-16.15 6.55 -17.1 5.6 -18.05 4.65 -19.4 4.65 -20.75 4.65 -21.75 5.6 -22.7 6.55 -22.7 7.9 -22.7 9.25 -21.75 10.2 -20.75 11.2 -19.4 11.2 -18.05 11.2 -17.1 10.2 -16.15 9.25 -16.15 7.9 M-23.8 7.9 Q-23.8 6.55 -24.75 5.6 -25.7 4.65 -27.05 4.65 -28.4 4.65 -29.4 5.6 -30.35 6.55 -30.35 7.9 -30.35 9.25 -29.4 10.2 -28.4 11.2 -27.05 11.2 -25.7 11.2 -24.75 10.2 -23.8 9.25 -23.8 7.9" fill="#d2bf4f" fill-rule="evenodd" stroke="none"/>
  </g>
</svg>
