<?xml version="1.0" encoding="UTF-8" standalone="no"?>
<svg xmlns:ffdec="https://www.free-decompiler.com/flash" xmlns:xlink="http://www.w3.org/1999/xlink" ffdec:objectType="shape" height="3.6px" width="7.2px" xmlns="http://www.w3.org/2000/svg">
  <g transform="matrix(1.0, 0.0, 0.0, 1.0, -8.7, 1.75)">
    <path d="M11.95 0.9 L11.85 1.1 11.05 1.75 9.75 1.7 Q9.15 1.45 8.9 0.9 8.55 0.35 8.75 -0.15 L8.9 -0.35 Q8.75 0.1 9.05 0.45 9.35 1.05 9.95 1.3 10.6 1.55 11.2 1.3 11.65 1.25 11.95 0.9 M15.75 0.45 L15.65 0.65 Q15.45 1.2 14.85 1.3 L13.6 1.35 Q12.95 1.05 12.65 0.45 12.35 -0.05 12.55 -0.6 L12.7 -0.8 12.8 0.1 Q13.1 0.6 13.75 0.9 L15.0 0.95 15.75 0.45" fill="#363636" fill-rule="evenodd" stroke="none"/>
    <path d="M8.9 -0.35 L8.95 -0.55 9.75 -1.3 10.95 -1.25 11.9 -0.45 Q12.25 0.2 12.05 0.7 L11.95 0.9 Q11.65 1.25 11.2 1.3 10.6 1.55 9.95 1.3 9.35 1.05 9.05 0.45 8.75 0.1 8.9 -0.35 M12.7 -0.8 L12.7 -1.0 13.5 -1.65 14.75 -1.6 15.7 -0.8 Q16.0 -0.25 15.8 0.25 L15.75 0.45 15.0 0.95 13.75 0.9 Q13.1 0.6 12.8 0.1 L12.7 -0.8" fill="#585858" fill-rule="evenodd" stroke="none"/>
  </g>
</svg>
