<?xml version="1.0" encoding="UTF-8" standalone="no"?>
<svg xmlns:ffdec="https://www.free-decompiler.com/flash" xmlns:xlink="http://www.w3.org/1999/xlink" ffdec:objectType="shape" height="15.75px" width="14.0px" xmlns="http://www.w3.org/2000/svg">
  <g transform="matrix(1.0, 0.0, 0.0, 1.0, 0.0, 0.0)">
    <path d="M13.0 8.75 Q13.0 11.25 11.25 13.0 9.5 14.75 7.0 14.75 4.5 14.75 2.75 13.0 1.0 11.25 1.0 8.75 1.0 6.25 2.75 4.5 3.8 3.45 5.15 3.05 L6.15 2.8 7.0 2.75 7.9 2.8 8.9 3.05 Q10.2 3.45 11.25 4.5 13.0 6.25 13.0 8.75 M10.15 9.85 Q11.3 8.7 11.3 7.1 11.3 5.5 10.15 4.35 9.6 3.8 8.9 3.5 L7.9 3.25 7.4 3.2 6.15 3.4 5.15 3.95 4.65 4.35 Q3.5 5.5 3.5 7.1 3.5 8.7 4.65 9.85 5.8 11.0 7.4 11.0 9.0 11.0 10.15 9.85" fill="#ff1a1a" fill-rule="evenodd" stroke="none"/>
    <path d="M10.15 9.85 Q9.0 11.0 7.4 11.0 5.8 11.0 4.65 9.85 3.5 8.7 3.5 7.1 3.5 5.5 4.65 4.35 L5.15 3.95 6.15 3.4 7.4 3.2 7.9 3.25 8.9 3.5 Q9.6 3.8 10.15 4.35 11.3 5.5 11.3 7.1 11.3 8.7 10.15 9.85 M8.8 5.2 Q8.35 4.75 7.8 4.75 L7.75 4.75 Q7.15 4.75 6.7 5.2 6.25 5.65 6.25 6.25 6.25 6.85 6.7 7.3 7.15 7.75 7.75 7.75 8.35 7.75 8.8 7.3 L9.25 6.25 Q9.25 5.65 8.8 5.2" fill="#ff5b5b" fill-rule="evenodd" stroke="none"/>
    <path d="M8.9 2.0 Q10.6 2.45 11.95 3.8 14.0 5.85 14.0 8.75 14.0 11.65 11.95 13.7 9.9 15.75 7.0 15.75 4.1 15.75 2.05 13.7 0.0 11.65 0.0 8.75 0.0 5.85 2.05 3.8 3.4 2.45 5.15 2.0 L6.15 1.8 7.0 1.75 7.9 1.8 8.9 2.0 M13.0 8.75 Q13.0 6.25 11.25 4.5 10.2 3.45 8.9 3.05 L7.9 2.8 7.0 2.75 6.15 2.8 5.15 3.05 Q3.8 3.45 2.75 4.5 1.0 6.25 1.0 8.75 1.0 11.25 2.75 13.0 4.5 14.75 7.0 14.75 9.5 14.75 11.25 13.0 13.0 11.25 13.0 8.75" fill="#790000" fill-rule="evenodd" stroke="none"/>
    <path d="M8.9 2.0 L7.9 1.8 7.9 1.0 6.15 1.0 6.15 1.8 5.15 2.0 5.15 0.5 5.3 0.15 5.65 0.0 8.4 0.0 8.75 0.15 8.9 0.5 8.9 2.0" fill="#8c6404" fill-rule="evenodd" stroke="none"/>
    <path d="M7.9 1.8 L7.0 1.75 6.15 1.8 6.15 1.0 7.9 1.0 7.9 1.8" fill="#f7b928" fill-rule="evenodd" stroke="none"/>
    <path d="M8.8 5.2 Q9.25 5.65 9.25 6.25 L8.8 7.3 Q8.35 7.75 7.75 7.75 7.15 7.75 6.7 7.3 6.25 6.85 6.25 6.25 6.25 5.65 6.7 5.2 7.15 4.75 7.75 4.75 L7.8 4.75 Q8.35 4.75 8.8 5.2" fill="#ffbbbb" fill-rule="evenodd" stroke="none"/>
  </g>
</svg>
