<?xml version="1.0" encoding="UTF-8" standalone="no"?>
<svg xmlns:ffdec="https://www.free-decompiler.com/flash" xmlns:xlink="http://www.w3.org/1999/xlink" ffdec:objectType="shape" height="34.1px" width="14.8px" xmlns="http://www.w3.org/2000/svg">
  <g transform="matrix(1.0, 0.0, 0.0, 1.0, 0.0, 0.0)">
    <path d="M11.75 2.3 L11.85 1.7 Q12.85 2.6 13.8 4.35 L13.4 4.85 11.75 2.3 M8.85 0.1 L9.3 0.8 6.1 0.4 5.8 0.0 8.85 0.1 M14.1 8.45 L14.55 7.95 14.8 9.8 14.4 11.15 Q14.0 12.0 13.1 12.0 11.8 12.0 11.25 11.15 L11.65 10.9 13.2 11.3 Q14.25 11.35 14.25 10.15 L14.1 8.45 M10.6 5.6 L11.0 7.45 10.6 7.85 10.25 6.25 10.6 5.6 M4.0 7.8 L4.15 8.35 3.7 8.6 3.65 8.5 3.5 7.8 4.0 7.8 M5.15 11.3 L6.0 13.75 5.6 14.05 4.75 11.55 5.15 11.3 M7.3 17.65 L8.15 20.1 7.75 20.35 6.9 17.9 7.3 17.65 M9.15 23.05 L10.0 25.5 9.6 25.75 8.75 23.3 9.15 23.05 M11.0 28.45 Q12.05 30.7 12.05 32.3 12.05 33.05 11.25 33.6 10.5 34.1 9.5 34.1 L8.7 33.8 8.6 33.55 7.8 31.15 8.15 30.75 Q8.7 32.85 9.15 33.45 L9.8 33.7 Q11.6 33.7 11.6 31.4 11.6 30.4 10.6 28.7 L11.0 28.45 M6.75 28.15 L5.95 25.75 6.3 25.35 7.15 27.8 6.75 28.15 M4.9 22.75 L4.3 20.9 4.45 19.95 5.3 22.4 4.9 22.75 M3.05 17.35 L1.95 14.0 2.3 13.6 3.4 16.8 3.05 17.35 M0.9 11.0 Q0.0 8.3 0.0 6.05 L0.5 6.2 Q0.5 8.6 1.3 10.65 L0.9 11.0 M0.9 3.65 L3.4 0.95 3.55 1.35 Q2.3 2.35 1.35 3.7 L0.9 3.65 M7.25 3.4 L8.3 3.6 7.4 3.85 7.25 3.4" fill="#790000" fill-rule="evenodd" stroke="none"/>
    <path d="M11.85 1.7 L11.75 2.3 9.3 0.8 8.85 0.1 Q10.7 0.8 11.85 1.7 M13.4 4.85 L13.8 4.35 14.55 7.95 14.1 8.45 13.4 4.85 M11.65 10.9 L11.25 11.15 10.6 7.85 11.0 7.45 11.65 10.9 M8.3 3.6 L9.15 4.25 10.6 5.6 10.25 6.25 Q10.0 5.85 8.9 4.95 L7.4 3.85 Q6.25 3.85 5.35 4.5 3.8 5.5 4.0 7.8 L3.5 7.8 Q3.45 6.05 4.2 4.8 L4.45 4.5 Q4.75 4.35 5.8 3.95 L7.25 3.4 7.4 3.85 8.3 3.6 M4.15 8.35 L5.15 11.3 4.75 11.55 3.7 8.6 4.15 8.35 M6.0 13.75 L7.3 17.65 6.9 17.9 5.6 14.05 6.0 13.75 M8.15 20.1 L9.15 23.05 8.75 23.3 7.7 20.35 7.75 20.35 8.15 20.1 M10.0 25.5 L11.0 28.45 10.6 28.7 9.55 25.75 9.6 25.75 10.0 25.5 M7.8 31.15 L6.75 28.15 7.15 27.8 8.15 30.75 7.8 31.15 M5.95 25.75 L4.9 22.75 5.3 22.4 6.3 25.35 5.95 25.75 M4.3 20.9 L4.25 21.0 3.05 17.35 3.4 16.8 4.45 19.95 4.3 20.9 M1.95 14.0 L0.9 11.0 1.3 10.65 2.3 13.6 1.95 14.0 M0.0 6.05 Q0.45 4.2 0.9 3.65 L1.35 3.7 Q0.9 4.6 0.5 6.2 L0.0 6.05 M3.4 0.95 Q4.35 0.45 5.8 0.0 L6.1 0.4 6.1 0.45 3.55 1.35 3.4 0.95" fill="#464646" fill-rule="evenodd" stroke="none"/>
    <path d="M11.55 3.1 Q12.55 4.45 12.8 5.6 L11.65 6.9 10.95 4.8 11.55 3.1 M12.25 10.35 L13.5 9.2 Q13.65 10.25 12.95 10.8 L12.55 10.65 12.25 10.35 M9.1 1.55 L8.55 2.9 7.05 2.65 6.45 1.15 9.1 1.55 M3.85 2.1 L4.35 3.65 3.5 4.45 2.1 3.85 Q2.85 2.85 3.85 2.1 M1.15 6.5 L2.6 7.3 3.05 9.1 1.85 10.1 Q1.35 8.6 1.15 6.5 M3.85 16.05 L2.8 13.05 4.05 12.05 4.95 14.7 3.85 16.05 M5.85 21.85 L4.95 19.4 6.2 18.4 7.05 20.85 5.85 21.85 M8.05 23.8 L8.9 26.25 7.7 27.25 6.8 24.8 8.05 23.8 M8.65 30.2 L9.9 29.2 Q10.45 30.75 10.05 31.85 L9.55 32.7 8.65 30.2" fill="#ff6c6c" fill-rule="evenodd" stroke="none"/>
    <path d="M11.55 3.1 L10.95 4.8 9.9 3.7 Q9.25 3.15 8.55 2.9 L9.1 1.55 Q10.35 1.95 11.55 3.1 M11.65 6.9 L12.8 5.6 Q13.35 7.5 13.5 9.2 L12.25 10.35 12.2 10.35 11.65 6.9 M6.45 1.15 L7.05 2.65 Q5.5 2.95 4.35 3.65 L3.85 2.1 Q5.2 1.45 6.45 1.15 M2.1 3.85 L3.5 4.45 Q2.85 5.7 2.6 7.3 L1.15 6.5 Q1.4 5.25 2.1 3.85 M3.05 9.1 L4.05 12.05 2.8 13.05 1.85 10.1 3.05 9.1 M4.95 14.7 L6.2 18.4 4.95 19.4 3.85 16.05 4.95 14.7 M6.8 24.8 L5.85 21.85 7.05 20.85 8.05 23.8 6.8 24.8 M7.7 27.25 L8.9 26.25 9.9 29.2 8.65 30.2 7.7 27.25" fill="#ffffff" fill-rule="evenodd" stroke="none"/>
    <path d="M9.3 0.8 L11.75 2.3 11.55 3.1 Q10.35 1.95 9.1 1.55 L9.3 0.8 M12.8 5.6 L13.4 4.85 14.1 8.45 13.5 9.2 Q13.35 7.5 12.8 5.6 M10.95 4.8 L10.6 5.6 9.15 4.25 8.3 3.6 8.55 2.9 Q9.25 3.15 9.9 3.7 L10.95 4.8 M11.0 7.45 L11.65 6.9 12.2 10.35 11.65 10.9 11.0 7.45 M6.1 0.45 L6.45 1.15 Q5.2 1.45 3.85 2.1 L3.55 1.35 6.1 0.45 M4.35 3.65 Q5.5 2.95 7.05 2.65 L7.25 3.4 5.8 3.95 Q4.75 4.35 4.45 4.5 L4.35 3.65 M4.2 4.8 Q3.45 6.05 3.5 7.8 L2.6 7.3 Q2.85 5.7 3.5 4.45 L4.2 4.8 M1.35 3.7 L2.1 3.85 Q1.4 5.25 1.15 6.5 L0.5 6.2 Q0.9 4.6 1.35 3.7 M3.05 9.1 L3.7 8.6 4.75 11.55 4.05 12.05 3.05 9.1 M1.3 10.65 L1.85 10.1 2.8 13.05 2.3 13.6 1.3 10.65 M5.6 14.05 L6.9 17.9 6.2 18.4 4.95 14.7 5.6 14.05 M3.4 16.8 L3.85 16.05 4.95 19.4 4.45 19.95 3.4 16.8 M5.3 22.4 L5.85 21.85 6.8 24.8 6.3 25.35 5.3 22.4 M7.05 20.85 L7.7 20.35 8.75 23.3 8.05 23.8 7.05 20.85 M8.9 26.25 L9.55 25.75 10.6 28.7 9.9 29.2 8.9 26.25 M7.7 27.25 L8.65 30.2 8.15 30.75 7.15 27.8 7.7 27.25" fill="#aaaaaa" fill-rule="evenodd" stroke="none"/>
    <path d="M11.75 2.3 L13.4 4.85 12.8 5.6 Q12.55 4.45 11.55 3.1 L11.75 2.3 M10.95 4.8 L11.65 6.9 11.0 7.45 10.6 5.6 10.95 4.8 M13.5 9.2 L14.1 8.45 14.25 10.15 Q14.25 11.35 13.2 11.3 L11.65 10.9 12.2 10.35 12.25 10.35 12.55 10.65 12.95 10.8 Q13.65 10.25 13.5 9.2 M8.55 2.9 L8.3 3.6 7.25 3.4 7.05 2.65 8.55 2.9 M9.1 1.55 L6.45 1.15 6.1 0.45 6.1 0.4 9.3 0.8 9.1 1.55 M4.45 4.5 L4.2 4.8 3.5 4.45 4.35 3.65 4.45 4.5 M3.55 1.35 L3.85 2.1 Q2.85 2.85 2.1 3.85 L1.35 3.7 Q2.3 2.35 3.55 1.35 M3.05 9.1 L2.6 7.3 3.5 7.8 3.65 8.5 3.7 8.6 3.05 9.1 M4.05 12.05 L4.75 11.55 5.6 14.05 4.95 14.7 4.05 12.05 M0.5 6.2 L1.15 6.5 Q1.35 8.6 1.85 10.1 L1.3 10.65 Q0.5 8.6 0.5 6.2 M6.2 18.4 L6.9 17.9 7.75 20.35 7.7 20.35 7.05 20.85 6.2 18.4 M3.4 16.8 L2.3 13.6 2.8 13.05 3.85 16.05 3.4 16.8 M4.45 19.95 L4.95 19.4 5.85 21.85 5.3 22.4 4.45 19.95 M6.3 25.35 L6.8 24.8 7.7 27.25 7.15 27.8 6.3 25.35 M8.05 23.8 L8.75 23.3 9.6 25.75 9.55 25.75 8.9 26.25 8.05 23.8 M10.6 28.7 Q11.6 30.4 11.6 31.4 11.6 33.7 9.8 33.7 L9.15 33.45 Q8.7 32.85 8.15 30.75 L8.65 30.2 9.55 32.7 10.05 31.85 Q10.45 30.75 9.9 29.2 L10.6 28.7" fill="#ff1a1a" fill-rule="evenodd" stroke="none"/>
  </g>
</svg>
