<?xml version="1.0" encoding="UTF-8" standalone="no"?>
<svg xmlns:ffdec="https://www.free-decompiler.com/flash" xmlns:xlink="http://www.w3.org/1999/xlink" ffdec:objectType="shape" height="49.5px" width="70.05px" xmlns="http://www.w3.org/2000/svg">
  <g transform="matrix(1.0, 0.0, 0.0, 1.0, 23.75, 80.45)">
    <path d="M5.5 -77.7 L5.0 -77.3 2.5 -77.3 Q0.9 -77.3 1.1 -78.4 L1.4 -78.85 5.5 -77.7 M6.4 -73.75 Q6.25 -74.05 6.35 -74.4 L6.4 -74.95 7.25 -75.75 Q8.75 -75.9 10.6 -73.9 10.6 -72.8 8.6 -72.8 6.95 -72.8 6.5 -73.55 L6.45 -73.65 7.15 -73.5 6.75 -73.65 6.4 -73.75 M13.65 -74.45 L12.6 -74.3 Q10.95 -74.3 10.1 -75.3 9.7 -75.8 9.65 -76.2 L12.8 -74.85 13.65 -74.45 M19.95 -71.15 L23.45 -68.95 22.65 -68.05 22.35 -68.05 Q20.45 -68.05 19.75 -69.05 19.35 -69.6 19.35 -70.25 19.35 -70.95 19.95 -71.15 M18.55 -64.8 L15.85 -66.35 15.85 -66.8 Q15.85 -68.5 17.75 -67.85 19.6 -67.25 19.6 -65.8 L19.5 -65.15 Q19.3 -64.85 18.55 -64.8 M3.9 -72.4 L5.05 -72.1 Q7.65 -71.3 10.85 -69.75 L10.75 -69.3 Q10.75 -69.1 10.35 -69.05 6.85 -70.65 3.4 -71.75 L3.4 -71.8 3.9 -72.4 M2.15 -72.15 L2.1 -72.15 2.35 -72.45 2.15 -72.15 M28.85 -62.65 L28.75 -61.55 27.85 -61.3 Q26.4 -61.3 25.6 -63.2 25.2 -64.15 25.1 -65.1 25.1 -66.85 27.0 -65.75 28.85 -64.6 28.85 -62.65" fill="#ffffff" fill-rule="evenodd" stroke="none"/>
    <path d="M45.25 -41.55 L46.3 -38.25 45.5 -35.25 44.4 -30.95 43.15 -35.35 45.25 -41.55 M-21.3 -73.85 L-23.75 -73.35 Q-19.85 -77.2 -14.1 -80.35 L-9.85 -80.45 Q-13.1 -79.55 -13.95 -78.85 -17.95 -76.9 -21.3 -73.85" fill="#464646" fill-rule="evenodd" stroke="none"/>
    <path d="M37.15 -56.1 L37.95 -55.1 34.15 -51.25 33.25 -52.3 34.25 -53.4 37.15 -56.1 M41.8 -49.05 Q43.95 -45.3 45.25 -41.55 L43.15 -35.35 Q41.65 -39.75 38.95 -44.3 L36.85 -47.6 37.9 -47.05 40.0 -45.65 40.35 -47.3 41.8 -49.05 M28.25 -57.5 L27.35 -58.3 Q28.15 -58.8 28.25 -57.5 M20.45 -63.55 L20.25 -63.7 20.6 -63.8 20.65 -63.8 20.45 -63.55 M-4.15 -73.65 L-5.35 -73.85 -4.45 -74.35 -4.15 -74.15 -4.15 -73.75 -4.15 -73.65 M-16.4 -74.4 L-21.3 -73.85 Q-17.95 -76.9 -13.95 -78.85 -13.1 -79.55 -9.85 -80.45 L-8.3 -80.35 -10.35 -79.05 -14.0 -76.3 -16.4 -74.4" fill="#8a8a8a" fill-rule="evenodd" stroke="none"/>
    <path d="M0.75 -79.0 L-1.25 -77.65 -1.35 -77.55 -2.55 -76.6 3.8 -74.55 6.65 -77.3 8.35 -76.7 7.25 -75.75 6.4 -74.95 5.45 -74.05 6.4 -73.75 6.75 -73.65 7.15 -73.5 6.45 -73.65 5.3 -73.9 3.9 -72.4 3.4 -71.8 3.4 -71.75 2.15 -72.15 2.35 -72.45 Q3.05 -73.75 3.5 -74.25 L3.55 -74.25 -2.2 -75.25 -3.8 -75.4 -4.65 -74.45 -4.45 -74.35 -5.35 -73.85 -8.6 -74.3 -6.75 -74.3 -6.05 -75.05 -6.15 -75.55 Q-6.55 -76.3 -8.15 -76.5 -10.3 -76.75 -10.3 -75.3 L-10.25 -74.85 -9.75 -74.4 Q-13.15 -74.65 -16.4 -74.4 L-14.0 -76.3 -10.35 -79.05 -8.3 -80.35 -3.15 -79.8 Q-6.95 -78.7 -7.55 -78.2 L-3.15 -76.8 -2.4 -77.75 -1.4 -78.8 -0.75 -79.35 0.75 -79.0 M15.75 -73.45 L17.1 -72.75 12.4 -68.1 11.1 -68.7 14.05 -71.8 15.75 -73.45 M23.45 -68.95 L24.75 -68.05 Q22.55 -66.25 21.5 -65.0 L20.6 -63.8 20.25 -63.7 19.5 -64.2 21.7 -67.0 22.65 -68.05 23.45 -68.95 M30.7 -63.2 L32.05 -61.9 31.75 -61.6 28.3 -57.45 28.25 -57.5 Q28.15 -58.8 27.35 -58.3 L26.75 -58.85 27.55 -59.9 Q29.05 -61.8 30.7 -63.2 M33.35 -60.6 L34.35 -59.5 Q33.85 -59.3 33.85 -58.4 L33.85 -57.5 Q34.15 -56.55 35.35 -56.55 35.85 -56.55 36.0 -56.8 L36.1 -57.45 37.15 -56.1 34.25 -53.4 33.25 -52.3 30.55 -55.25 Q32.7 -54.3 33.1 -56.45 33.45 -58.15 33.35 -59.9 L33.35 -60.6 M37.95 -55.1 L41.15 -50.2 41.8 -49.05 40.35 -47.3 40.0 -45.65 37.9 -47.05 36.85 -47.6 34.15 -51.25 37.95 -55.1 M-2.9 -73.4 L-4.15 -73.65 -4.15 -73.75 -4.15 -74.15 -3.7 -73.85 -2.9 -73.4 M-4.2 -75.4 Q-5.75 -75.4 -4.75 -74.55 L-4.2 -75.4" fill="#b4b4b4" fill-rule="evenodd" stroke="none"/>
    <path d="M0.75 -79.0 L1.4 -78.85 1.1 -78.4 Q0.9 -77.3 2.5 -77.3 L5.0 -77.3 5.5 -77.7 6.65 -77.3 3.8 -74.55 -2.55 -76.6 -1.35 -77.55 -1.25 -77.65 0.75 -79.0 M6.4 -74.95 L6.35 -74.4 Q6.25 -74.05 6.4 -73.75 L5.45 -74.05 6.4 -74.95 M6.45 -73.65 L6.5 -73.55 Q6.95 -72.8 8.6 -72.8 10.6 -72.8 10.6 -73.9 8.75 -75.9 7.25 -75.75 L8.35 -76.7 9.65 -76.2 Q9.7 -75.8 10.1 -75.3 10.95 -74.3 12.6 -74.3 L13.65 -74.45 15.75 -73.45 14.05 -71.8 11.1 -68.7 10.6 -68.95 10.35 -69.05 Q10.75 -69.1 10.75 -69.3 L10.85 -69.75 Q7.65 -71.3 5.05 -72.1 L3.9 -72.4 5.3 -73.9 6.45 -73.65 M12.4 -68.1 L17.1 -72.75 19.95 -71.15 Q19.35 -70.95 19.35 -70.25 19.35 -69.6 19.75 -69.05 20.45 -68.05 22.35 -68.05 L22.65 -68.05 21.7 -67.0 19.5 -64.2 18.55 -64.8 Q19.3 -64.85 19.5 -65.15 L19.6 -65.8 Q19.6 -67.25 17.75 -67.85 15.85 -68.5 15.85 -66.8 L15.85 -66.35 12.4 -68.1 M24.75 -68.05 Q27.9 -65.8 30.7 -63.2 29.05 -61.8 27.55 -59.9 L26.75 -58.85 Q23.8 -61.4 20.45 -63.55 L20.65 -63.8 20.6 -63.8 21.5 -65.0 Q22.55 -66.25 24.75 -68.05 M32.05 -61.9 L33.35 -60.6 33.35 -59.9 Q33.45 -58.15 33.1 -56.45 32.7 -54.3 30.55 -55.25 L28.3 -57.45 31.75 -61.6 32.05 -61.9 M34.35 -59.5 L36.1 -57.45 36.0 -56.8 Q35.85 -56.55 35.35 -56.55 34.15 -56.55 33.85 -57.5 L33.85 -58.4 Q33.85 -59.3 34.35 -59.5 M2.1 -72.15 L-2.9 -73.4 -3.7 -73.85 -4.15 -74.15 -4.45 -74.35 -4.65 -74.45 -3.8 -75.4 -2.2 -75.25 3.55 -74.25 3.5 -74.25 Q3.05 -73.75 2.35 -72.45 L2.1 -72.15 M-8.6 -74.3 L-9.75 -74.4 -10.25 -74.85 -10.3 -75.3 Q-10.3 -76.75 -8.15 -76.5 -6.55 -76.3 -6.15 -75.55 L-6.05 -75.05 -6.75 -74.3 -8.6 -74.3 M-3.15 -79.8 L-0.75 -79.35 -1.4 -78.8 -2.4 -77.75 -3.15 -76.8 -7.55 -78.2 Q-6.95 -78.7 -3.15 -79.8 M28.85 -62.65 Q28.85 -64.6 27.0 -65.75 25.1 -66.85 25.1 -65.1 25.2 -64.15 25.6 -63.2 26.4 -61.3 27.85 -61.3 L28.75 -61.55 28.85 -62.65 M-4.2 -75.4 L-4.75 -74.55 Q-5.75 -75.4 -4.2 -75.4" fill="#e0e0e0" fill-rule="evenodd" stroke="none"/>
  </g>
</svg>
