<?xml version="1.0" encoding="UTF-8" standalone="no"?>
<svg xmlns:ffdec="https://www.free-decompiler.com/flash" xmlns:xlink="http://www.w3.org/1999/xlink" ffdec:objectType="shape" height="12.85px" width="9.15px" xmlns="http://www.w3.org/2000/svg">
  <g transform="matrix(1.0, 0.0, 0.0, 1.0, -8.05, 40.6)">
    <path d="M17.1 -32.55 Q13.1 -27.5 12.35 -27.75 11.85 -27.95 9.9 -31.35 7.95 -34.7 8.05 -34.85 8.25 -35.45 9.9 -37.7 11.85 -40.3 12.85 -40.6 14.4 -40.6 16.05 -37.05 17.5 -33.8 17.1 -32.55 M16.35 -32.75 Q16.75 -33.9 16.0 -36.15 15.05 -38.6 13.5 -38.4 12.7 -38.3 11.45 -36.5 10.4 -35.0 10.0 -33.9 L12.6 -28.9 Q13.25 -28.65 14.8 -30.5 L16.35 -32.75" fill="#999999" fill-rule="evenodd" stroke="none"/>
    <path d="M16.35 -32.75 L14.8 -30.5 Q13.25 -28.65 12.6 -28.9 L10.0 -33.9 Q10.4 -35.0 11.45 -36.5 12.7 -38.3 13.5 -38.4 15.05 -38.6 16.0 -36.15 16.75 -33.9 16.35 -32.75" fill="#cccccc" fill-rule="evenodd" stroke="none"/>
  </g>
</svg>
