<?xml version="1.0" encoding="UTF-8" standalone="no"?>
<svg xmlns:ffdec="https://www.free-decompiler.com/flash" xmlns:xlink="http://www.w3.org/1999/xlink" ffdec:objectType="shape" height="60.75px" width="84.0px" xmlns="http://www.w3.org/2000/svg">
  <g transform="matrix(1.0, 0.0, 0.0, 1.0, 43.3, 66.8)">
    <path d="M2.25 -62.3 L5.5 -61.05 0.9 -50.95 -3.6 -52.75 2.25 -62.3 M10.7 -58.6 L14.3 -56.7 11.65 -51.35 9.25 -46.95 5.95 -48.7 10.7 -58.6 M18.8 -53.85 L20.6 -52.5 16.2 -42.65 13.85 -44.2 18.8 -53.85 M23.15 -50.5 L26.75 -47.25 21.65 -38.55 19.1 -40.6 23.15 -50.5 M29.35 -44.6 L30.55 -43.2 30.8 -42.55 26.2 -34.35 24.05 -36.35 29.35 -44.6 M-15.35 -66.0 L-11.05 -65.65 -15.6 -56.1 -17.15 -56.35 -21.85 -56.85 -15.35 -66.0 M-7.1 -65.0 L-2.85 -64.0 -7.15 -54.0 -12.35 -55.4 -7.1 -65.0" fill="#ffffff" fill-rule="evenodd" stroke="none"/>
    <path d="M2.25 -62.3 L-3.6 -52.75 -7.15 -54.0 -2.85 -64.0 2.25 -62.3 M0.9 -50.95 L5.5 -61.05 10.7 -58.6 5.95 -48.7 0.9 -50.95 M14.3 -56.7 L18.8 -53.85 13.85 -44.2 9.25 -46.95 11.65 -51.35 14.3 -56.7 M20.6 -52.5 L23.15 -50.5 19.1 -40.6 16.2 -42.65 20.6 -52.5 M26.75 -47.25 L29.35 -44.6 24.05 -36.35 26.2 -34.35 30.8 -42.55 30.55 -43.2 33.15 -39.95 27.45 -33.05 27.85 -32.55 21.65 -38.55 26.75 -47.25 M34.35 -38.25 L36.35 -34.75 31.25 -28.55 28.95 -31.3 29.55 -30.7 31.25 -32.9 31.95 -33.65 34.35 -38.25 M37.4 -32.8 L38.5 -30.2 33.8 -25.0 32.0 -27.65 32.7 -26.75 37.4 -32.8 M-23.3 -65.45 L-28.55 -56.7 -33.0 -56.0 -27.75 -64.4 -23.3 -65.45 M-25.45 -56.85 L-20.3 -65.85 -15.35 -66.0 -21.85 -56.85 -25.45 -56.85 M-11.05 -65.65 L-7.1 -65.0 -12.35 -55.4 -17.15 -56.35 -15.6 -56.1 -11.05 -65.65" fill="#e0e0e0" fill-rule="evenodd" stroke="none"/>
    <path d="M33.15 -39.95 L34.35 -38.25 31.95 -33.65 31.25 -32.9 29.55 -30.7 28.95 -31.3 27.85 -32.55 27.45 -33.05 33.15 -39.95 M36.35 -34.75 L37.4 -32.8 32.7 -26.75 32.0 -27.65 31.25 -28.55 36.35 -34.75 M38.5 -30.2 L39.8 -22.5 38.05 -18.05 33.85 -24.8 33.8 -25.0 38.5 -30.2 M-23.3 -65.45 L-20.3 -65.85 -25.45 -56.85 -28.55 -56.7 -23.3 -65.45 M-27.75 -64.4 L-33.0 -56.0 -38.45 -53.6 -32.8 -62.2 -27.75 -64.4" fill="#b4b4b4" fill-rule="evenodd" stroke="none"/>
    <path d="M23.05 -31.4 L20.7 -33.45 17.75 -35.85 16.0 -37.25 14.25 -38.55 12.45 -39.95 10.55 -41.3 8.5 -42.55 6.4 -43.7 3.0 -45.45 0.55 -46.65 -2.35 -48.0 -5.55 -49.35 -8.75 -50.4 -11.8 -51.0 -15.55 -51.55 -17.75 -51.9 -19.85 -52.15 -23.3 -52.45 -25.3 -52.35 -28.8 -52.05 -31.5 -51.4 -34.15 -50.45 -36.8 -49.1 -39.25 -47.55 -39.6 -47.3 Q-41.35 -47.65 -38.95 -51.2 -40.75 -49.7 -39.25 -51.0 L-37.1 -52.55 -34.7 -53.8 -32.05 -54.7 -29.0 -55.5 -27.35 -55.7 -24.6 -55.8 Q-16.65 -55.8 -10.3 -53.95 -7.15 -53.05 -3.6 -51.3 L1.65 -49.1 Q20.05 -40.95 29.55 -29.6 L33.15 -24.8 Q35.55 -20.8 36.3 -17.2 L36.7 -14.85 Q36.75 -14.2 36.0 -11.4 35.25 -8.25 34.25 -7.05 L33.85 -7.55 33.75 -7.9 33.75 -8.35 34.4 -11.45 Q34.65 -12.95 34.25 -14.55 L33.4 -17.2 33.3 -17.5 31.9 -20.65 30.6 -22.65 29.15 -24.6 27.6 -26.5 25.1 -29.35 23.05 -31.4" fill="#8a8a8a" fill-rule="evenodd" stroke="none"/>
    <path d="M5.5 -61.05 L2.25 -62.3 -2.85 -64.0 -7.1 -65.0 -11.05 -65.65 -15.35 -66.0 -20.3 -65.85 -23.3 -65.45 -27.75 -64.4 -32.8 -62.2 -38.45 -53.6 -33.0 -56.0 -28.55 -56.7 -25.45 -56.85 -21.85 -56.85 -17.15 -56.35 -12.35 -55.4 -7.15 -54.0 -3.6 -52.75 0.9 -50.95 5.95 -48.7 9.25 -46.95 13.85 -44.2 16.2 -42.65 19.1 -40.6 21.65 -38.55 27.85 -32.55 28.95 -31.3 31.25 -28.55 32.0 -27.65 33.8 -25.0 33.85 -24.8 38.05 -18.05 39.8 -22.5 38.5 -30.2 37.4 -32.8 36.35 -34.75 34.35 -38.25 33.15 -39.95 30.55 -43.2 29.35 -44.6 26.75 -47.25 23.15 -50.5 20.6 -52.5 18.8 -53.85 14.3 -56.7 10.7 -58.6 5.5 -61.05 M23.05 -31.4 L25.1 -29.35 27.6 -26.5 29.15 -24.6 30.6 -22.65 31.9 -20.65 33.3 -17.5 33.4 -17.2 34.25 -14.55 Q34.65 -12.95 34.4 -11.45 L33.75 -8.35 33.75 -7.9 33.85 -7.55 34.25 -7.05 Q35.25 -8.25 36.0 -11.4 36.75 -14.2 36.7 -14.85 L36.3 -17.2 Q35.55 -20.8 33.15 -24.8 L29.55 -29.6 Q20.05 -40.95 1.65 -49.1 L-3.6 -51.3 Q-7.15 -53.05 -10.3 -53.95 -16.65 -55.8 -24.6 -55.8 L-27.35 -55.7 -29.0 -55.5 -32.05 -54.7 -34.7 -53.8 -37.1 -52.55 -39.25 -51.0 Q-40.75 -49.7 -38.95 -51.2 -41.35 -47.65 -39.6 -47.3 L-39.25 -47.55 -36.8 -49.1 -34.15 -50.45 -31.5 -51.4 -28.8 -52.05 -25.3 -52.35 -23.3 -52.45 -19.85 -52.15 -17.75 -51.9 -15.55 -51.55 -11.8 -51.0 -8.75 -50.4 -5.55 -49.35 -2.35 -48.0 0.55 -46.65 3.0 -45.45 6.4 -43.7 8.5 -42.55 10.55 -41.3 12.45 -39.95 14.25 -38.55 16.0 -37.25 17.75 -35.85 20.7 -33.45 23.05 -31.4 M37.75 -33.9 Q38.65 -32.45 39.65 -27.85 L40.35 -24.8 40.7 -22.4 40.65 -18.4 Q40.6 -15.65 39.55 -11.5 38.45 -7.35 34.6 -6.05 L33.2 -6.35 32.6 -7.0 32.95 -7.9 33.0 -8.0 33.35 -9.1 33.45 -10.1 Q33.65 -11.6 33.45 -13.1 L32.4 -16.85 32.3 -17.2 31.0 -20.15 29.65 -22.4 28.8 -23.5 27.55 -25.0 26.2 -26.5 23.45 -29.4 19.1 -33.8 15.5 -36.95 12.3 -39.25 8.9 -41.45 5.5 -43.25 2.1 -45.0 Q0.9 -45.6 -0.25 -46.15 L-2.65 -47.1 -5.0 -48.1 -7.55 -48.95 -10.3 -49.7 -11.65 -49.95 -13.05 -50.25 -15.8 -50.7 -20.75 -51.3 -25.3 -51.5 -27.3 -51.45 -30.45 -50.9 -34.1 -49.45 Q-36.2 -48.45 -36.95 -47.1 L-38.55 -43.8 Q-39.95 -40.4 -42.55 -43.5 -43.6 -44.75 -43.15 -46.9 -42.55 -49.55 -41.4 -52.0 L-40.4 -53.85 -39.35 -55.7 Q-36.95 -59.5 -33.5 -63.15 -30.3 -65.5 -24.55 -66.2 L-22.25 -66.55 -21.15 -66.6 Q-6.0 -68.1 13.1 -57.8 21.7 -53.15 28.0 -47.45 34.45 -41.6 36.55 -36.4 L37.75 -33.9" fill="#464646" fill-rule="evenodd" stroke="none"/>
  </g>
</svg>
