<?xml version="1.0" encoding="UTF-8" standalone="no"?>
<svg xmlns:ffdec="https://www.free-decompiler.com/flash" xmlns:xlink="http://www.w3.org/1999/xlink" ffdec:objectType="shape" height="374.4px" width="369.6px" xmlns="http://www.w3.org/2000/svg">
  <g transform="matrix(1.0, 0.0, 0.0, 1.0, 12.55, 154.9)">
    <path d="M43.0 7.05 L40.75 0.3 54.65 0.3 54.65 -133.9 64.65 -133.9 64.65 0.3 65.3 0.3 65.55 1.1 65.85 0.3 89.5 0.3 Q99.15 -1.85 106.45 4.0 L106.45 0.3 148.9 0.3 148.9 9.3 157.3 8.8 154.75 0.3 181.3 0.3 181.65 1.45 181.85 0.3 203.15 0.3 203.4 1.55 203.8 0.3 230.3 0.3 230.3 0.4 Q237.8 -1.5 244.85 2.6 246.1 3.3 247.2 4.15 L247.2 0.3 250.6 0.3 267.75 -0.35 276.0 0.25 276.05 0.25 Q277.95 0.7 279.65 1.55 L279.65 -133.9 289.65 -133.9 289.65 14.9 Q290.8 18.7 290.7 22.5 L290.7 31.6 304.85 31.25 315.1 1.65 315.15 1.65 325.7 31.25 357.05 32.05 332.2 51.2 338.4 71.95 Q352.7 91.25 352.65 114.0 L352.65 114.05 Q352.7 149.15 318.45 176.05 310.0 182.7 299.4 188.85 246.6 219.5 171.95 219.5 97.3 219.5 44.5 188.85 33.95 182.7 25.5 176.05 19.0 170.95 13.75 165.55 -8.7 142.5 -8.65 114.05 L-8.65 114.0 Q-8.7 90.55 6.5 70.8 L12.4 51.2 -12.55 32.05 18.9 31.25 29.3 1.65 29.35 1.65 39.75 31.25 51.2 31.55 47.05 19.1 46.9 18.7 43.0 7.05 M279.65 -141.9 L279.65 -147.9 289.65 -147.9 289.65 -141.9 279.65 -141.9 M64.65 -141.9 L54.65 -141.9 54.65 -147.9 64.65 -147.9 64.65 -141.9" fill="#381628" fill-rule="evenodd" stroke="none"/>
    <path d="M47.05 19.1 L47.15 19.5 36.0 18.5 35.3 18.5 33.7 14.0 35.1 12.7 Q37.8 10.25 40.75 8.35 41.95 7.55 43.0 7.05 L46.9 18.7 47.05 19.1" fill="#351526" fill-rule="evenodd" stroke="none"/>
    <path d="M286.65 -154.9 L289.65 -154.9 289.65 -14.55 Q290.7 -14.0 291.45 -13.05 293.7 -10.85 293.7 -6.05 L293.7 16.55 304.85 16.25 315.1 -13.35 315.15 -13.35 325.7 16.25 357.05 17.05 332.2 36.2 338.4 56.95 Q352.7 76.25 352.65 99.0 L352.65 99.05 Q352.7 134.15 318.45 161.05 310.0 167.7 299.4 173.85 246.6 204.5 171.95 204.5 97.3 204.5 44.5 173.85 33.95 167.7 25.5 161.05 19.0 155.95 13.75 150.55 -8.7 127.5 -8.65 99.05 L-8.65 99.0 Q-8.7 75.55 6.5 55.8 L12.4 36.2 -12.55 17.05 18.9 16.25 29.3 -13.35 29.35 -13.35 39.75 16.25 46.1 16.4 39.4 2.35 39.2 1.95 Q35.65 -5.85 42.2 -10.05 L42.55 -10.25 46.95 -13.35 47.85 -13.9 Q51.4 -16.3 54.7 -15.3 L54.65 -15.45 54.65 -154.9 57.65 -154.9 57.65 -13.05 Q59.45 -11.3 60.1 -9.85 L61.55 -7.4 61.8 -6.45 61.65 -154.9 64.65 -154.9 64.55 -12.8 Q66.0 -14.4 67.85 -14.8 71.2 -16.4 75.2 -13.75 L75.6 -13.55 80.0 -10.4 Q86.3 -15.55 94.45 -15.5 L94.5 -15.5 Q102.85 -15.55 109.3 -10.1 109.85 -11.95 111.0 -13.1 113.2 -15.8 117.75 -15.5 L123.25 -15.5 Q127.35 -15.75 129.55 -13.55 131.75 -15.75 135.9 -15.5 L141.4 -15.5 Q145.95 -15.75 148.15 -13.05 150.4 -10.85 150.4 -6.05 L150.4 -5.75 165.05 -5.55 Q165.3 -12.2 171.9 -13.55 L177.35 -15.05 177.7 -15.15 Q182.1 -16.35 184.95 -13.75 186.9 -12.55 187.9 -9.6 L187.9 -9.65 188.25 -10.35 188.3 -10.55 Q190.7 -15.55 194.9 -15.45 L196.45 -15.45 Q201.0 -15.5 203.15 -9.95 204.1 -12.65 205.95 -13.75 208.85 -16.4 213.5 -15.1 L219.15 -13.55 Q222.1 -12.85 223.8 -11.0 229.8 -15.55 237.45 -15.5 L237.5 -15.5 Q246.0 -15.55 252.5 -9.9 253.05 -11.9 254.3 -13.1 256.5 -15.8 261.05 -15.5 L266.7 -15.5 Q270.3 -15.5 272.6 -13.3 274.8 -15.75 279.2 -15.5 L279.65 -15.5 279.65 -154.9 282.65 -154.9 282.65 -15.1 286.65 -15.45 286.65 -154.9 M129.25 0.05 L129.25 -6.05 Q129.25 -12.85 123.4 -12.5 L117.55 -12.5 Q111.75 -12.9 111.75 -6.05 L111.75 -3.0 110.65 -4.4 Q104.0 -12.55 94.45 -12.5 86.25 -12.55 80.15 -6.5 L78.8 -7.6 78.85 -7.55 73.85 -11.1 73.8 -11.1 Q71.1 -13.0 68.85 -11.95 66.8 -11.5 65.4 -8.65 L61.4 -0.1 57.35 -8.6 57.4 -8.55 Q56.05 -11.55 54.0 -12.0 51.7 -13.1 49.0 -11.1 L48.9 -11.05 43.9 -7.55 43.85 -7.55 Q39.5 -4.65 41.9 0.7 L41.95 0.75 51.05 19.95 37.3 19.6 29.35 -3.15 29.3 -3.15 21.3 19.6 -2.85 20.2 4.2 25.6 16.3 34.9 9.8 56.55 Q6.25 61.0 3.5 65.7 -5.6 81.25 -5.65 99.0 L-5.65 99.05 Q-5.55 126.85 16.85 149.35 22.85 155.4 30.45 161.05 37.5 166.3 46.0 171.25 98.2 201.5 171.95 201.5 245.7 201.5 297.9 171.25 306.4 166.3 313.5 161.05 349.55 134.3 349.65 99.05 L349.65 99.0 Q349.6 81.25 340.5 65.7 338.05 61.6 335.05 57.65 L328.25 34.9 340.35 25.6 347.35 20.2 323.25 19.6 315.2 -3.15 315.15 -3.15 307.25 19.6 290.7 20.0 290.7 -6.05 Q290.7 -12.85 284.85 -12.5 L279.0 -12.5 Q273.3 -12.85 273.15 -6.4 L272.15 -8.65 Q271.8 -9.75 270.95 -10.7 L270.8 -10.85 Q269.25 -12.5 266.7 -12.5 L260.85 -12.5 Q255.05 -12.9 255.05 -6.05 L255.05 -2.55 253.65 -4.4 Q247.0 -12.55 237.45 -12.5 228.95 -12.55 222.75 -6.05 222.2 -9.8 218.35 -10.65 L212.7 -12.2 212.75 -12.2 Q209.65 -13.1 207.75 -11.35 206.1 -10.3 205.5 -7.3 L205.45 -7.2 203.85 1.6 200.6 -8.1 Q199.25 -12.35 196.15 -12.45 L195.15 -12.45 Q192.55 -12.45 191.0 -9.25 L191.05 -9.3 190.6 -8.4 190.5 -8.1 187.1 1.95 185.4 -7.2 185.4 -7.3 Q184.75 -10.3 183.15 -11.35 181.25 -13.1 178.25 -12.2 L178.15 -12.2 172.55 -10.65 Q167.65 -9.55 168.1 -4.0 L168.15 -3.65 168.4 -2.4 Q166.95 -2.65 157.9 -2.45 L147.4 -2.15 147.4 -6.05 Q147.4 -12.85 141.55 -12.5 L135.7 -12.5 Q129.85 -12.85 129.85 -6.05 L129.85 -0.05 129.25 0.05" fill="#191919" fill-rule="evenodd" stroke="none"/>
    <path d="M57.65 -154.9 L61.65 -154.9 61.8 -6.45 61.55 -7.4 60.1 -9.85 Q59.45 -11.3 57.65 -13.05 L57.65 -154.9 M282.65 -154.9 L286.65 -154.9 286.65 -15.45 282.65 -15.1 282.65 -154.9" fill="#454545" fill-rule="evenodd" stroke="none"/>
    <path d="M4.2 25.6 L-2.85 20.2 21.3 19.6 29.3 -3.15 29.35 -3.15 37.3 19.6 51.05 19.95 41.95 0.75 41.9 0.7 Q39.5 -4.65 43.85 -7.55 L43.9 -7.55 48.9 -11.05 49.0 -11.1 Q51.7 -13.1 54.0 -12.0 56.05 -11.55 57.4 -8.55 L57.35 -8.6 61.4 -0.1 65.4 -8.65 Q66.8 -11.5 68.85 -11.95 71.1 -13.0 73.8 -11.1 L73.85 -11.1 78.85 -7.55 78.8 -7.6 80.15 -6.5 Q86.25 -12.55 94.45 -12.5 104.0 -12.55 110.65 -4.4 L111.75 -3.0 111.75 -6.05 Q111.75 -12.9 117.55 -12.5 L123.4 -12.5 Q129.25 -12.85 129.25 -6.05 L129.25 0.05 129.25 1.75 129.25 20.6 Q129.25 21.25 129.55 21.7 L129.85 20.6 129.85 1.7 129.85 -0.05 129.85 -6.05 Q129.85 -12.85 135.7 -12.5 L141.55 -12.5 Q147.4 -12.85 147.4 -6.05 L147.4 -2.15 147.4 0.9 147.4 20.2 Q147.35 28.65 142.4 34.7 137.05 41.15 129.6 41.05 122.0 41.1 116.75 34.65 114.6 32.05 113.4 28.95 L110.7 32.9 110.65 32.95 Q104.0 41.1 94.45 41.05 84.95 41.15 78.25 32.95 73.25 26.9 72.2 18.95 L70.15 23.25 70.15 34.8 70.05 36.05 Q69.45 41.3 64.3 41.2 L58.45 41.2 Q52.65 41.55 52.65 34.8 L52.65 26.95 52.65 25.6 48.8 25.6 51.7 23.35 34.85 22.95 29.3 7.05 23.7 22.95 6.85 23.35 9.8 25.6 4.2 25.6 M71.55 12.1 L77.6 -0.75 Q78.85 -3.3 76.8 -4.7 L71.8 -8.25 Q69.8 -9.65 68.55 -7.1 L61.4 8.05 54.2 -7.1 Q53.0 -9.75 51.0 -8.25 L45.9 -4.7 Q43.95 -3.3 45.1 -0.75 L51.2 12.1 54.05 18.1 55.75 21.6 56.15 22.5 56.15 34.8 Q56.15 37.7 58.45 37.7 L64.3 37.7 Q66.4 37.7 66.6 35.5 L66.65 34.8 66.65 22.45 67.05 21.6 68.7 18.1 71.55 12.1 M125.75 12.1 L125.75 -6.05 Q125.75 -9.0 123.4 -9.0 L117.55 -9.0 Q115.25 -9.0 115.25 -6.05 L115.25 12.1 115.25 18.1 115.25 20.1 115.3 21.6 Q115.7 27.85 119.45 32.45 123.6 37.55 129.6 37.55 135.45 37.55 139.7 32.45 143.5 27.85 143.85 21.6 L143.9 20.2 143.9 18.1 143.9 12.1 143.9 -6.05 Q143.9 -9.0 141.55 -9.0 L135.7 -9.0 Q133.35 -9.0 133.35 -6.05 L133.35 12.1 133.35 18.1 133.35 20.6 133.25 21.6 Q133.0 22.85 132.2 23.95 131.1 25.25 129.5 25.25 127.9 25.25 126.8 23.95 126.0 22.95 125.85 21.6 L125.75 20.6 125.75 18.1 125.75 12.1 M113.5 12.1 Q112.9 3.85 107.95 -2.2 102.4 -9.0 94.45 -9.0 86.55 -9.0 80.95 -2.2 76.05 3.8 75.5 12.1 L75.4 14.35 Q75.4 16.3 75.65 18.1 L76.3 21.6 Q77.65 26.65 80.95 30.7 86.55 37.55 94.45 37.55 102.4 37.55 107.95 30.7 111.3 26.6 112.65 21.6 L113.35 18.1 113.55 14.35 113.5 12.1 M86.1 12.1 Q86.55 9.1 88.35 6.9 90.9 3.85 94.45 3.85 98.05 3.85 100.55 6.9 102.4 9.15 102.9 12.1 L103.05 14.35 Q103.05 16.35 102.5 18.1 101.9 20.0 100.65 21.6 L100.55 21.7 Q98.0 24.8 94.45 24.8 90.9 24.8 88.35 21.7 L88.3 21.6 Q87.0 20.05 86.45 18.1 85.9 16.35 85.9 14.35 L86.1 12.1 M168.4 -2.4 L168.15 -3.65 168.1 -4.0 Q167.65 -9.55 172.55 -10.65 L178.15 -12.2 178.25 -12.2 Q181.25 -13.1 183.15 -11.35 184.75 -10.3 185.4 -7.3 L185.4 -7.2 187.1 1.95 190.5 -8.1 190.6 -8.4 191.05 -9.3 191.0 -9.25 Q192.55 -12.45 195.15 -12.45 L196.15 -12.45 Q199.25 -12.35 200.6 -8.1 L203.85 1.6 205.45 -7.2 205.5 -7.3 Q206.1 -10.3 207.75 -11.35 209.65 -13.1 212.75 -12.2 L212.7 -12.2 218.35 -10.65 Q222.2 -9.8 222.75 -6.05 228.95 -12.55 237.45 -12.5 247.0 -12.55 253.65 -4.4 L255.05 -2.55 255.05 -6.05 Q255.05 -12.9 260.85 -12.5 L266.7 -12.5 Q269.25 -12.5 270.8 -10.85 L270.95 -10.7 Q271.8 -9.75 272.15 -8.65 L273.15 -6.4 Q273.3 -12.85 279.0 -12.5 L284.85 -12.5 Q290.7 -12.85 290.7 -6.05 L290.7 20.0 307.25 19.6 315.15 -3.15 315.2 -3.15 323.25 19.6 347.35 20.2 340.35 25.6 334.75 25.6 337.65 23.35 320.8 22.95 315.2 7.05 309.65 22.95 292.8 23.35 295.75 25.6 290.7 25.6 290.7 26.05 290.7 26.55 290.7 34.6 Q290.7 41.4 284.85 41.05 L279.0 41.05 Q275.55 41.05 274.35 38.9 L274.05 38.35 272.55 35.1 Q272.35 41.4 266.7 41.05 L260.85 41.05 Q255.05 41.45 255.05 34.6 L255.05 31.1 253.7 32.9 253.65 32.95 Q247.0 41.1 237.45 41.05 232.35 41.1 228.05 38.75 224.35 36.75 221.25 32.95 218.75 29.9 217.25 26.35 L215.5 35.75 Q214.55 41.0 210.75 41.05 L210.25 41.05 202.1 41.05 201.95 41.05 Q199.3 41.35 197.75 38.5 L197.0 36.75 195.5 32.35 194.0 36.75 194.05 36.65 193.3 38.5 Q191.8 41.4 189.15 41.05 L189.0 41.05 184.9 41.05 180.85 41.05 180.75 41.05 180.65 41.05 Q177.55 41.35 176.2 38.5 175.6 37.35 175.35 35.7 L175.35 35.75 168.9 0.3 168.4 -2.4 M185.4 12.1 L181.95 -6.6 Q181.35 -9.5 179.15 -8.85 L173.45 -7.3 Q171.4 -6.75 171.6 -4.3 L174.6 12.1 175.7 18.1 176.35 21.6 178.8 35.1 Q179.2 37.5 180.75 37.55 L189.0 37.55 Q190.1 37.5 190.7 35.6 L195.5 21.6 195.55 21.45 195.6 21.6 200.3 35.6 Q200.95 37.5 202.1 37.55 L210.25 37.55 Q211.65 37.35 212.05 35.1 L214.5 21.6 215.15 18.1 216.25 12.1 219.25 -4.3 Q219.45 -6.75 217.4 -7.3 L211.75 -8.85 Q209.5 -9.5 208.9 -6.6 L205.55 12.1 204.9 15.6 203.75 12.1 197.25 -7.0 Q196.7 -8.8 195.55 -9.0 194.7 -8.9 194.15 -7.75 L193.8 -7.0 187.35 12.1 186.05 15.85 185.4 12.1 M256.5 12.1 Q255.9 3.85 250.95 -2.2 245.4 -9.0 237.45 -9.0 229.55 -9.0 223.95 -2.2 219.05 3.8 218.5 12.1 L218.4 14.35 Q218.4 16.3 218.65 18.1 L219.3 21.6 Q220.65 26.65 223.95 30.7 229.55 37.55 237.45 37.55 245.4 37.55 250.95 30.7 254.3 26.6 255.65 21.6 L256.35 18.1 256.55 14.35 256.5 12.1 M229.1 12.1 Q229.55 9.1 231.35 6.9 233.9 3.85 237.45 3.85 241.05 3.85 243.55 6.9 245.4 9.15 245.9 12.1 L246.05 14.35 Q246.05 16.35 245.5 18.1 244.9 20.0 243.65 21.6 L243.55 21.7 Q241.0 24.8 237.45 24.8 233.9 24.8 231.35 21.7 L231.3 21.6 Q230.0 20.05 229.45 18.1 228.9 16.35 228.9 14.35 L229.1 12.1 M287.2 12.1 L287.2 -6.05 Q287.2 -9.0 284.85 -9.0 L279.0 -9.0 Q276.65 -9.0 276.65 -6.05 L276.65 9.6 268.85 -7.45 268.3 -8.4 Q267.7 -9.0 266.7 -9.0 L260.85 -9.0 Q258.55 -9.0 258.55 -6.05 L258.55 12.1 258.55 18.1 258.55 21.6 258.55 34.6 Q258.55 37.55 260.85 37.55 L266.7 37.55 Q269.05 37.55 269.05 34.6 L269.05 21.6 269.05 19.2 270.15 21.6 277.2 36.85 Q277.7 37.55 279.0 37.55 L284.85 37.55 Q287.2 37.55 287.2 34.6 L287.2 21.6 287.2 18.1 287.2 12.1 M237.45 7.35 Q235.5 7.4 234.05 9.15 232.4 11.25 232.4 14.35 232.4 17.4 234.05 19.5 235.5 21.2 237.45 21.3 239.4 21.2 240.85 19.5 242.55 17.3 242.55 14.35 242.55 11.25 240.85 9.15 239.45 7.4 237.45 7.35 M97.0 8.3 Q95.9 7.4 94.45 7.35 92.5 7.4 91.05 9.15 L90.3 10.3 Q89.4 12.05 89.4 14.35 89.4 17.4 91.05 19.5 92.5 21.2 94.45 21.3 96.4 21.2 97.85 19.5 99.55 17.3 99.55 14.35 99.55 11.25 97.85 9.15 L97.0 8.3" fill="#c68600" fill-rule="evenodd" stroke="none"/>
    <path d="M9.8 25.6 L6.85 23.35 23.7 22.95 29.3 7.05 34.85 22.95 51.7 23.35 48.8 25.6 42.9 30.1 15.65 30.1 9.8 25.6 M51.2 12.1 L45.1 -0.75 Q43.95 -3.3 45.9 -4.7 L51.0 -8.25 Q53.0 -9.75 54.2 -7.1 L61.4 8.05 68.55 -7.1 Q69.8 -9.65 71.8 -8.25 L76.8 -4.7 Q78.85 -3.3 77.6 -0.75 L71.55 12.1 51.2 12.1 M68.7 18.1 L67.05 21.6 55.75 21.6 54.05 18.1 68.7 18.1 M115.25 12.1 L115.25 -6.05 Q115.25 -9.0 117.55 -9.0 L123.4 -9.0 Q125.75 -9.0 125.75 -6.05 L125.75 12.1 115.25 12.1 M125.75 18.1 L125.75 20.6 125.85 21.6 115.3 21.6 115.25 20.1 115.25 18.1 125.75 18.1 M133.25 21.6 L133.35 20.6 133.35 18.1 143.9 18.1 143.9 20.2 143.85 21.6 133.25 21.6 M133.35 12.1 L133.35 -6.05 Q133.35 -9.0 135.7 -9.0 L141.55 -9.0 Q143.9 -9.0 143.9 -6.05 L143.9 12.1 133.35 12.1 M75.5 12.1 Q76.05 3.8 80.95 -2.2 86.55 -9.0 94.45 -9.0 102.4 -9.0 107.95 -2.2 112.9 3.85 113.5 12.1 L102.9 12.1 Q102.4 9.15 100.55 6.9 98.05 3.85 94.45 3.85 90.9 3.85 88.35 6.9 86.55 9.1 86.1 12.1 L75.5 12.1 M113.35 18.1 L112.65 21.6 100.65 21.6 Q101.9 20.0 102.5 18.1 L113.35 18.1 M76.3 21.6 L75.65 18.1 86.45 18.1 Q87.0 20.05 88.3 21.6 L76.3 21.6 M295.75 25.6 L292.8 23.35 309.65 22.95 315.2 7.05 320.8 22.95 337.65 23.35 334.75 25.6 326.25 32.1 304.2 32.1 295.75 25.6 M174.6 12.1 L171.6 -4.3 Q171.4 -6.75 173.45 -7.3 L179.15 -8.85 Q181.35 -9.5 181.95 -6.6 L185.4 12.1 174.6 12.1 M187.35 12.1 L193.8 -7.0 194.15 -7.75 Q194.7 -8.9 195.55 -9.0 196.7 -8.8 197.25 -7.0 L203.75 12.1 187.35 12.1 M205.55 12.1 L208.9 -6.6 Q209.5 -9.5 211.75 -8.85 L217.4 -7.3 Q219.45 -6.75 219.25 -4.3 L216.25 12.1 205.55 12.1 M215.15 18.1 L214.5 21.6 195.6 21.6 195.55 21.45 195.5 21.6 176.35 21.6 175.7 18.1 215.15 18.1 M218.5 12.1 Q219.05 3.8 223.95 -2.2 229.55 -9.0 237.45 -9.0 245.4 -9.0 250.95 -2.2 255.9 3.85 256.5 12.1 L245.9 12.1 Q245.4 9.15 243.55 6.9 241.05 3.85 237.45 3.85 233.9 3.85 231.35 6.9 229.55 9.1 229.1 12.1 L218.5 12.1 M256.35 18.1 L255.65 21.6 243.65 21.6 Q244.9 20.0 245.5 18.1 L256.35 18.1 M219.3 21.6 L218.65 18.1 229.45 18.1 Q230.0 20.05 231.3 21.6 L219.3 21.6 M258.55 12.1 L258.55 -6.05 Q258.55 -9.0 260.85 -9.0 L266.7 -9.0 Q267.7 -9.0 268.3 -8.4 L268.85 -7.45 276.65 9.6 276.65 -6.05 Q276.65 -9.0 279.0 -9.0 L284.85 -9.0 Q287.2 -9.0 287.2 -6.05 L287.2 12.1 258.55 12.1 M287.2 18.1 L287.2 21.6 270.15 21.6 269.05 19.2 269.05 21.6 258.55 21.6 258.55 18.1 287.2 18.1" fill="#ffec64" fill-rule="evenodd" stroke="none"/>
    <path d="M4.2 25.6 L9.8 25.6 15.65 30.1 20.2 33.6 15.4 49.65 29.3 40.15 43.15 49.65 38.35 33.6 42.9 30.1 48.8 25.6 52.65 25.6 52.65 26.95 42.3 34.9 49.2 57.9 49.15 57.9 29.3 44.3 19.55 50.95 9.4 57.9 9.8 56.55 16.3 34.9 4.2 25.6 M290.7 26.05 L290.7 25.6 295.75 25.6 304.2 32.1 306.15 33.6 301.35 49.65 315.2 40.15 329.1 49.65 324.3 33.6 326.25 32.1 334.75 25.6 340.35 25.6 328.25 34.9 335.05 57.65 335.1 57.9 319.3 47.1 315.2 44.3 295.35 57.9 300.55 40.45 302.25 34.9 292.85 27.7 290.7 26.05" fill="#8a5000" fill-rule="evenodd" stroke="none"/>
    <path d="M147.4 0.9 L147.4 -2.15 157.9 -2.45 Q166.95 -2.65 168.4 -2.4 L168.9 0.3 162.75 0.15 159.25 0.25 148.9 0.8 147.4 0.9 M129.85 -0.05 L129.85 1.7 129.25 1.75 129.25 0.05 129.85 -0.05 M71.55 12.1 L68.7 18.1 54.05 18.1 51.2 12.1 71.55 12.1 M67.05 21.6 L66.65 22.45 66.65 34.8 66.6 35.5 Q66.4 37.7 64.3 37.7 L58.45 37.7 Q56.15 37.7 56.15 34.8 L56.15 22.5 55.75 21.6 67.05 21.6 M125.75 12.1 L125.75 18.1 115.25 18.1 115.25 12.1 125.75 12.1 M125.85 21.6 Q126.0 22.95 126.8 23.95 127.9 25.25 129.5 25.25 131.1 25.25 132.2 23.95 133.0 22.85 133.25 21.6 L143.85 21.6 Q143.5 27.85 139.7 32.45 135.45 37.55 129.6 37.55 123.6 37.55 119.45 32.45 115.7 27.85 115.3 21.6 L125.85 21.6 M133.35 18.1 L133.35 12.1 143.9 12.1 143.9 18.1 133.35 18.1 M113.5 12.1 L113.55 14.35 113.35 18.1 102.5 18.1 Q103.05 16.35 103.05 14.35 L102.9 12.1 113.5 12.1 M112.65 21.6 Q111.3 26.6 107.95 30.7 102.4 37.55 94.45 37.55 86.55 37.55 80.95 30.7 77.65 26.65 76.3 21.6 L88.3 21.6 88.35 21.7 Q90.9 24.8 94.45 24.8 98.0 24.8 100.55 21.7 L100.65 21.6 112.65 21.6 M75.65 18.1 Q75.4 16.3 75.4 14.35 L75.5 12.1 86.1 12.1 85.9 14.35 Q85.9 16.35 86.45 18.1 L75.65 18.1 M290.7 26.55 L290.7 26.05 292.85 27.7 290.7 26.55 M335.05 57.65 Q338.05 61.6 340.5 65.7 349.6 81.25 349.65 99.0 L349.65 99.05 343.95 99.05 344.0 96.0 343.9 92.05 343.75 90.4 333.2 61.65 Q330.9 58.3 328.15 55.05 L327.8 54.65 319.3 47.1 335.1 57.9 335.05 57.65 M-5.65 99.05 L-5.65 99.0 Q-5.6 81.25 3.5 65.7 6.25 61.0 9.8 56.55 L9.4 57.9 19.55 50.95 15.85 55.05 Q13.55 57.75 11.6 60.55 0.0 76.95 0.0 96.0 L0.1 99.05 -5.65 99.05 M185.4 12.1 L186.05 15.85 187.35 12.1 203.75 12.1 204.9 15.6 205.55 12.1 216.25 12.1 215.15 18.1 175.7 18.1 174.6 12.1 185.4 12.1 M214.5 21.6 L212.05 35.1 Q211.65 37.35 210.25 37.55 L202.1 37.55 Q200.95 37.5 200.3 35.6 L195.6 21.6 214.5 21.6 M195.5 21.6 L190.7 35.6 Q190.1 37.5 189.0 37.55 L180.75 37.55 Q179.2 37.5 178.8 35.1 L176.35 21.6 195.5 21.6 M256.5 12.1 L256.55 14.35 256.35 18.1 245.5 18.1 Q246.05 16.35 246.05 14.35 L245.9 12.1 256.5 12.1 M255.65 21.6 Q254.3 26.6 250.95 30.7 245.4 37.55 237.45 37.55 229.55 37.55 223.95 30.7 220.65 26.65 219.3 21.6 L231.3 21.6 231.35 21.7 Q233.9 24.8 237.45 24.8 241.0 24.8 243.55 21.7 L243.65 21.6 255.65 21.6 M218.65 18.1 Q218.4 16.3 218.4 14.35 L218.5 12.1 229.1 12.1 228.9 14.35 Q228.9 16.35 229.45 18.1 L218.65 18.1 M287.2 12.1 L287.2 18.1 258.55 18.1 258.55 12.1 287.2 12.1 M287.2 21.6 L287.2 34.6 Q287.2 37.55 284.85 37.55 L279.0 37.55 Q277.7 37.55 277.2 36.85 L270.15 21.6 287.2 21.6 M269.05 21.6 L269.05 34.6 Q269.05 37.55 266.7 37.55 L260.85 37.55 Q258.55 37.55 258.55 34.6 L258.55 21.6 269.05 21.6 M326.25 32.1 L324.3 33.6 329.1 49.65 315.2 40.15 301.35 49.65 306.15 33.6 304.2 32.1 326.25 32.1 M97.0 8.3 L94.15 9.15 93.1 9.45 90.3 10.3 91.05 9.15 Q92.5 7.4 94.45 7.35 95.9 7.4 97.0 8.3 M15.65 30.1 L42.9 30.1 38.35 33.6 43.15 49.65 29.3 40.15 15.4 49.65 20.2 33.6 15.65 30.1" fill="#fbdd37" fill-rule="evenodd" stroke="none"/>
    <path d="M184.9 41.05 L189.0 41.05 189.15 41.05 Q191.8 41.4 193.3 38.5 L197.75 38.5 Q199.3 41.35 201.95 41.05 L202.1 41.05 210.25 41.05 210.75 41.05 Q214.55 41.0 215.5 35.75 L217.25 26.35 Q218.75 29.9 221.25 32.95 224.35 36.75 228.05 38.75 L190.0 55.5 184.9 41.05 M319.3 47.1 L327.8 54.65 328.15 55.05 Q330.9 58.3 333.2 61.65 L343.75 90.4 343.9 92.05 344.0 96.0 343.95 99.05 Q342.15 134.85 298.55 161.05 L293.6 163.9 Q243.2 192.05 171.95 192.05 100.7 192.05 50.3 163.9 L45.4 161.05 Q41.35 158.65 37.75 156.15 86.4 135.35 134.9 114.15 L117.85 171.45 172.05 134.2 226.2 171.45 207.45 108.45 259.65 68.45 239.5 67.95 268.2 55.05 300.55 40.45 295.35 57.9 315.2 44.3 319.3 47.1 M112.15 89.7 L12.95 133.35 Q6.7 125.0 3.45 116.05 L95.65 77.05 112.15 89.7 M118.1 67.6 L155.4 51.8 150.1 66.75 118.1 67.6" fill="#f4f4f4" fill-rule="evenodd" stroke="none"/>
    <path d="M349.65 99.05 Q349.55 134.3 313.5 161.05 L298.55 161.05 Q342.15 134.85 343.95 99.05 L349.65 99.05 M30.45 161.05 Q22.85 155.4 16.85 149.35 -5.55 126.85 -5.65 99.05 L0.1 99.05 Q0.5 107.85 3.45 116.05 6.7 125.0 12.95 133.35 17.95 140.0 24.9 146.2 30.65 151.35 37.75 156.15 41.35 158.65 45.4 161.05 L30.45 161.05" fill="#e3c204" fill-rule="evenodd" stroke="none"/>
    <path d="M52.65 26.95 L52.65 34.8 Q52.65 41.55 58.45 41.2 L64.3 41.2 Q69.45 41.3 70.05 36.05 L70.15 34.8 70.15 23.25 72.2 18.95 Q73.25 26.9 78.25 32.95 84.95 41.15 94.45 41.05 104.0 41.1 110.65 32.95 L110.7 32.9 113.4 28.95 Q114.6 32.05 116.75 34.65 122.0 41.1 129.6 41.05 137.05 41.15 142.4 34.7 147.35 28.65 147.4 20.2 L147.4 0.9 148.9 0.8 159.25 0.25 162.75 0.15 168.9 0.3 175.35 35.75 175.35 35.7 Q175.6 37.35 176.2 38.5 L174.35 38.5 167.8 16.85 155.4 51.8 118.1 67.6 84.4 68.45 95.65 77.05 3.45 116.05 Q0.5 107.85 0.1 99.05 L0.0 96.0 Q0.0 76.95 11.6 60.55 13.55 57.75 15.85 55.05 L19.55 50.95 29.3 44.3 49.15 57.9 49.2 57.9 42.3 34.9 52.65 26.95 M129.85 1.7 L129.85 20.6 129.55 21.7 Q129.25 21.25 129.25 20.6 L129.25 1.75 129.85 1.7 M193.3 38.5 L194.05 36.65 194.0 36.75 195.5 32.35 197.0 36.75 197.75 38.5 193.3 38.5 M228.05 38.75 Q232.35 41.1 237.45 41.05 247.0 41.1 253.65 32.95 L253.7 32.9 255.05 31.1 255.05 34.6 Q255.05 41.45 260.85 41.05 L266.7 41.05 Q272.35 41.4 272.55 35.1 L274.05 38.35 274.35 38.9 Q275.55 41.05 279.0 41.05 L284.85 41.05 Q290.7 41.4 290.7 34.6 L290.7 26.55 292.85 27.7 302.25 34.9 300.55 40.45 268.2 55.05 239.5 67.95 193.95 66.75 190.0 55.5 228.05 38.75 M134.9 114.15 Q86.4 135.35 37.75 156.15 30.65 151.35 24.9 146.2 17.95 140.0 12.95 133.35 L112.15 89.7 136.6 108.45 134.9 114.15 M237.45 7.35 Q239.45 7.4 240.85 9.15 242.55 11.25 242.55 14.35 242.55 17.3 240.85 19.5 239.4 21.2 237.45 21.3 235.5 21.2 234.05 19.5 232.4 17.4 232.4 14.35 232.4 11.25 234.05 9.15 235.5 7.4 237.45 7.35 M90.3 10.3 L93.1 9.45 94.15 9.15 97.0 8.3 97.85 9.15 Q99.55 11.25 99.55 14.35 99.55 17.3 97.85 19.5 96.4 21.2 94.45 21.3 92.5 21.2 91.05 19.5 89.4 17.4 89.4 14.35 89.4 12.05 90.3 10.3" fill="#ffffff" fill-rule="evenodd" stroke="none"/>
    <path d="M176.2 38.5 Q177.55 41.35 180.65 41.05 L180.75 41.05 180.85 41.05 155.4 51.8 167.8 16.85 174.35 38.5 176.2 38.5 M190.0 55.5 L193.95 66.75 239.5 67.95 Q187.3 91.25 134.9 114.15 L136.6 108.45 112.15 89.7 190.0 55.5 M95.65 77.05 L84.4 68.45 118.1 67.6 95.65 77.05" fill="#fffbbf" fill-rule="evenodd" stroke="none"/>
    <path d="M180.85 41.05 L184.9 41.05 190.0 55.5 112.15 89.7 95.65 77.05 118.1 67.6 150.1 66.75 155.4 51.8 180.85 41.05 M239.5 67.95 L259.65 68.45 207.45 108.45 226.2 171.45 172.05 134.2 117.85 171.45 134.9 114.15 Q187.3 91.25 239.5 67.95" fill="#fff895" fill-rule="evenodd" stroke="none"/>
    <path d="M313.5 161.05 Q306.4 166.3 297.9 171.25 245.7 201.5 171.95 201.5 98.2 201.5 46.0 171.25 37.5 166.3 30.45 161.05 L45.4 161.05 50.3 163.9 Q100.7 192.05 171.95 192.05 243.2 192.05 293.6 163.9 L298.55 161.05 313.5 161.05" fill="#c7a903" fill-rule="evenodd" stroke="none"/>
  </g>
</svg>
