<?xml version="1.0" encoding="UTF-8" standalone="no"?>
<svg xmlns:ffdec="https://www.free-decompiler.com/flash" xmlns:xlink="http://www.w3.org/1999/xlink" ffdec:objectType="shape" height="74.75px" width="73.65px" xmlns="http://www.w3.org/2000/svg">
  <g transform="matrix(1.0, 0.0, 0.0, 1.0, 38.3, 39.85)">
    <path d="M24.55 -28.95 Q35.35 -17.95 35.35 -2.45 35.35 13.0 24.55 23.9 13.75 34.9 -1.45 34.9 L-5.75 34.7 -12.75 33.25 Q-15.7 32.3 -18.35 30.85 -23.3 28.2 -27.5 23.9 -38.3 13.0 -38.3 -2.45 -38.3 -15.5 -30.65 -25.35 L-27.9 -28.55 -27.75 -28.7 -27.65 -28.8 -27.5 -28.95 -26.1 -30.3 Q-15.8 -39.9 -1.45 -39.85 13.75 -39.9 24.55 -28.95 M-5.85 32.4 L-1.75 32.6 Q12.8 32.6 23.1 22.25 33.4 11.95 33.4 -2.6 33.4 -17.15 23.1 -27.5 12.8 -37.8 -1.75 -37.75 -15.4 -37.8 -25.35 -28.75 L-25.3 -28.75 -26.95 -27.35 -28.05 -26.2 -29.65 -24.1 Q-36.95 -14.85 -36.95 -2.6 -36.95 5.95 -33.4 13.05 -31.65 16.5 -29.05 19.6 L-26.65 22.25 Q-23.35 25.55 -19.55 27.85 L-19.5 27.9 -17.9 28.75 Q-15.35 30.1 -12.55 31.0 L-5.85 32.4" fill="#9d632f" fill-rule="evenodd" stroke="none"/>
    <path d="M-29.05 19.6 Q-31.65 16.5 -33.4 13.05 -36.95 5.95 -36.95 -2.6 -36.95 -14.85 -29.65 -24.1 L-28.05 -26.2 -26.95 -27.35 -25.3 -28.75 -25.35 -28.75 Q-15.4 -37.8 -1.75 -37.75 12.8 -37.8 23.1 -27.5 33.4 -17.15 33.4 -2.6 33.4 11.95 23.1 22.25 12.8 32.6 -1.75 32.6 L-5.85 32.4 Q7.9 31.65 17.55 21.95 22.65 16.85 25.05 10.65 L25.0 9.55 Q24.85 8.95 24.05 8.4 L22.2 8.45 2.05 9.7 Q-10.5 10.0 -22.8 8.2 -24.95 7.75 -27.0 8.15 -29.95 8.65 -30.85 10.5 -31.25 11.35 -31.25 13.25 -31.25 14.9 -30.15 16.95 -29.15 18.8 -29.05 19.6" fill="#de9954" fill-rule="evenodd" stroke="none"/>
    <path d="M-5.85 32.4 L-12.55 31.0 Q-15.35 30.1 -17.9 28.75 L-19.5 27.9 -19.55 27.85 Q-23.35 25.55 -26.65 22.25 L-29.05 19.6 Q-29.15 18.8 -30.15 16.95 -31.25 14.9 -31.25 13.25 -31.25 11.35 -30.85 10.5 -29.95 8.65 -27.0 8.15 -24.95 7.75 -22.8 8.2 -10.5 10.0 2.05 9.7 L22.2 8.45 24.05 8.4 Q24.85 8.95 25.0 9.55 L25.05 10.65 Q22.65 16.85 17.55 21.95 7.9 31.65 -5.85 32.4 M10.75 20.55 Q14.2 17.15 16.4 13.2 L10.8 14.05 6.9 14.1 2.8 14.3 -13.5 14.25 -21.5 12.8 -25.15 12.1 Q-25.5 12.5 -25.5 13.0 -25.5 17.4 -22.1 21.8 -16.8 28.65 -6.0 28.65 L-1.8 28.1 Q5.15 26.0 10.75 20.55" fill="#eaa76a" fill-rule="evenodd" stroke="none"/>
    <path d="M10.75 20.55 Q5.15 26.0 -1.8 28.1 L-6.0 28.65 Q-16.8 28.65 -22.1 21.8 -25.5 17.4 -25.5 13.0 -25.5 12.5 -25.15 12.1 L-21.5 12.8 -13.5 14.25 2.8 14.3 6.9 14.1 10.8 14.05 16.4 13.2 Q14.2 17.15 10.75 20.55" fill="#ecb17d" fill-rule="evenodd" stroke="none"/>
  </g>
</svg>
