<?xml version="1.0" encoding="UTF-8" standalone="no"?>
<svg xmlns:ffdec="https://www.free-decompiler.com/flash" xmlns:xlink="http://www.w3.org/1999/xlink" ffdec:objectType="shape" height="136.85px" width="80.1px" xmlns="http://www.w3.org/2000/svg">
  <g transform="matrix(1.0, 0.0, 0.0, 1.0, 36.45, 135.85)">
    <path d="M8.45 -126.6 L9.3 -128.25 8.9 -128.95 7.65 -130.8 7.55 -130.9 7.5 -130.95 6.35 -130.1 Q4.75 -128.55 3.35 -125.2 L2.5 -122.95 Q0.85 -118.1 -0.05 -112.0 L-0.55 -108.4 -1.05 -102.95 -1.1 -102.5 -1.3 -96.7 -1.3 -95.65 -2.8 -95.7 -2.6 -102.6 -2.45 -104.4 -2.3 -106.15 Q-1.7 -112.7 -0.4 -118.1 L1.1 -123.45 2.0 -125.9 2.05 -125.95 2.35 -126.4 2.5 -126.7 Q3.65 -128.5 4.05 -129.9 L5.5 -131.65 6.3 -132.25 7.5 -132.7 7.55 -132.7 7.6 -132.6 7.95 -132.05 8.1 -132.1 10.1 -129.4 10.5 -128.8 10.5 -128.75 10.9 -128.05 10.5 -127.4 10.1 -126.65 9.25 -124.75 8.4 -122.55 Q5.6 -114.15 4.8 -102.1 L4.55 -95.45 3.05 -95.5 3.3 -102.2 3.45 -104.15 Q3.9 -109.6 4.75 -114.25 5.45 -118.1 6.5 -121.4 L7.0 -123.05 8.45 -126.6 M-17.0 -95.7 L-13.4 -113.3 Q-11.3 -124.85 -9.8 -128.55 -8.3 -132.25 -5.95 -134.1 L-5.75 -134.25 -5.4 -134.45 Q-4.2 -135.25 -2.8 -135.6 L-1.85 -135.8 -1.0 -135.85 -0.8 -135.85 -0.7 -135.85 0.05 -135.8 0.05 -134.5 -0.6 -134.5 -1.9 -134.15 Q-3.2 -133.6 -4.45 -132.3 L-4.7 -131.85 -5.2 -130.9 -5.35 -130.6 -5.55 -130.1 -5.75 -129.55 -5.95 -128.95 -6.7 -125.9 -7.6 -123.55 -8.6 -120.1 -9.55 -116.0 -10.7 -108.6 -11.05 -104.8 -11.2 -103.1 -11.45 -95.7 -12.95 -95.7 -12.95 -97.3 -12.95 -97.35 -12.7 -103.2 -12.5 -105.55 -12.5 -105.6 Q-11.6 -116.35 -9.0 -124.05 L-7.65 -127.45 Q-7.05 -130.0 -6.15 -131.8 -8.6 -129.45 -9.15 -127.85 -9.9 -125.85 -12.2 -113.45 L-15.5 -96.4 -15.65 -95.7 -17.0 -95.7 M-12.45 -89.2 L-2.3 -88.5 -2.1 -86.7 -6.65 -86.9 -12.8 -87.2 -13.15 -87.2 -12.45 -89.2 M1.4 -88.25 L0.95 -86.55 -0.05 -86.6 -0.25 -88.35 1.4 -88.25 M3.45 -88.1 L5.35 -88.0 17.3 -38.05 20.1 -38.15 20.9 -38.2 29.6 -39.05 31.85 -39.5 Q33.35 -39.95 34.1 -40.4 L34.5 -40.75 Q34.8 -41.2 34.4 -41.75 34.2 -42.0 34.25 -42.3 L34.55 -42.8 34.8 -42.9 35.1 -42.95 35.6 -42.65 Q36.3 -41.75 36.2 -40.9 36.5 -36.0 37.15 -32.8 L37.25 -32.35 41.6 -17.2 41.9 -16.1 42.75 -12.85 43.65 -9.5 43.15 -2.75 42.45 -2.55 42.45 -2.6 41.3 -2.3 41.2 -4.65 41.45 -4.35 Q41.5 -3.5 41.55 -4.2 L41.65 -5.9 41.4 -11.9 41.25 -13.2 40.75 -16.1 40.5 -17.2 39.55 -21.2 34.55 -38.9 Q33.65 -38.45 32.25 -38.05 L30.4 -37.65 21.45 -36.7 20.0 -36.65 16.75 -36.55 Q16.45 -36.55 16.25 -36.7 L16.15 -36.8 16.0 -37.1 14.4 -43.7 12.85 -50.3 11.75 -54.85 9.9 -62.5 7.3 -73.45 6.0 -78.8 4.5 -85.25 4.45 -85.5 4.2 -86.4 3.0 -86.45 3.45 -88.1 M35.75 -1.2 L33.9 -0.9 33.9 -4.6 33.85 -4.6 33.8 -11.25 33.75 -12.75 33.85 -12.8 34.5 -10.3 34.9 -8.7 34.7 -7.95 34.8 -8.3 34.95 -7.55 35.3 -5.3 35.3 -5.1 35.35 -5.1 35.35 -4.3 35.4 -4.3 Q35.4 -3.55 35.9 -2.2 L35.75 -1.2 M30.65 -0.4 L29.2 -0.25 29.1 -1.9 29.15 -2.7 29.15 -3.35 29.15 -3.4 29.2 -3.55 29.25 -4.5 29.3 -5.25 29.3 -6.1 29.4 -9.35 Q29.6 -10.9 30.2 -11.45 L30.25 -10.85 30.25 -10.05 30.65 -0.4 M6.8 1.0 L6.65 1.0 5.4 1.0 5.35 -7.4 5.45 -11.5 6.7 -11.5 6.85 -5.55 6.85 -1.95 6.85 -1.15 6.8 1.0 M1.45 0.95 L0.7 0.95 -0.05 0.95 -0.05 0.9 0.0 0.9 0.1 -11.6 1.4 -11.55 1.45 -8.05 1.45 -2.35 1.45 0.95 M-33.5 -3.7 L-35.05 -4.2 -35.1 -4.8 Q-35.55 -5.3 -36.45 -11.7 L-35.9 -13.7 -35.35 -15.95 -35.0 -17.2 -32.45 -27.15 Q-29.15 -39.85 -28.2 -44.15 L-28.05 -44.85 -26.55 -51.65 -26.3 -52.75 -25.1 -58.2 -23.8 -64.2 -21.2 -76.15 -18.75 -87.5 -18.7 -87.55 -18.65 -87.8 -18.5 -88.55 -18.3 -89.6 -17.85 -89.55 -17.65 -86.5 -17.75 -86.4 Q-18.6 -85.55 -18.6 -84.35 L-18.6 -84.25 Q-18.55 -83.5 -18.2 -82.9 L-26.6 -43.3 Q-28.85 -32.65 -31.95 -21.35 L-32.0 -21.2 -31.95 -21.2 -32.3 -19.95 -32.45 -19.55 -32.45 -19.45 -32.5 -19.35 -32.8 -18.2 -33.1 -17.2 -33.35 -15.95 -33.5 -14.75 -33.75 -10.85 -33.45 -6.85 -33.35 -5.75 -33.55 -5.05 -33.5 -3.7 M39.65 -21.2 L39.7 -21.2 39.65 -21.35 39.6 -21.35 39.65 -21.2 M-15.7 -87.35 L-15.8 -89.4 -14.55 -89.35 -15.25 -87.3 -15.7 -87.35" fill="#464646" fill-rule="evenodd" stroke="none"/>
    <path d="M4.75 -114.25 Q3.9 -109.6 3.45 -104.15 L3.35 -104.1 Q1.0 -103.05 -1.0 -102.95 L-1.05 -102.95 -0.55 -108.4 0.8 -111.85 1.3 -113.25 Q2.5 -115.6 3.05 -116.15 4.05 -115.5 4.75 -114.25 M-1.3 -95.65 L-1.3 -96.7 -0.55 -96.8 Q0.9 -96.8 1.9 -95.8 L2.15 -95.5 -1.3 -95.65 M4.45 -85.5 L4.5 -85.25 3.75 -82.25 2.65 -78.7 6.0 -78.8 7.3 -73.45 Q5.7 -72.2 3.55 -71.05 -1.8 -68.1 -3.5 -68.1 L-5.5 -68.3 Q-5.25 -68.7 -5.5 -69.1 -6.45 -73.2 -3.05 -78.35 L-1.15 -80.85 Q-0.35 -80.2 0.7 -80.2 1.9 -80.2 2.75 -81.05 3.55 -81.85 3.6 -83.0 L3.6 -83.1 Q3.6 -84.0 3.15 -84.7 L4.45 -85.5 M9.9 -62.5 L11.75 -54.85 Q-3.0 -44.25 -6.65 -44.25 L-7.25 -44.25 -7.15 -44.3 -7.3 -48.4 -7.5 -51.05 Q-7.5 -53.75 -1.1 -58.25 5.05 -62.55 7.8 -62.55 L9.9 -62.5 M12.85 -50.3 L14.4 -43.7 9.85 -40.45 Q1.95 -35.45 -5.65 -35.45 -8.1 -36.0 -8.1 -38.45 -8.1 -40.25 -2.35 -43.5 L3.6 -46.5 11.4 -49.75 12.85 -50.3 M-4.5 -26.75 L-3.1 -27.7 -1.7 -28.9 Q1.85 -31.8 5.75 -33.35 8.45 -34.45 9.95 -34.5 L11.1 -34.3 11.3 -32.4 Q11.3 -29.75 12.3 -28.4 L13.3 -27.6 Q13.3 -28.7 14.05 -30.35 L14.1 -30.2 16.15 -25.6 Q20.85 -23.3 22.15 -17.2 L22.35 -16.1 21.35 -14.9 Q19.85 -13.45 18.7 -13.75 L15.65 -14.1 Q13.7 -14.15 13.1 -14.8 L12.45 -15.5 12.2 -15.5 Q11.1 -15.7 9.2 -17.2 L7.9 -18.35 7.65 -18.55 4.8 -21.2 3.65 -19.35 2.45 -17.2 2.4 -16.15 Q2.05 -15.65 1.05 -15.4 L-1.55 -15.2 -3.4 -15.45 Q-4.0 -15.65 -4.45 -15.95 L-5.55 -17.2 -5.7 -17.45 -6.15 -18.7 -6.5 -21.2 -10.2 -17.3 -10.3 -17.2 -11.95 -16.15 -13.75 -15.85 -15.45 -16.1 -17.15 -17.2 -17.25 -17.3 -17.35 -17.4 Q-15.35 -22.25 -12.3 -23.35 -5.65 -25.7 -4.5 -26.75 M1.4 -11.55 L5.45 -11.7 5.45 -11.5 5.35 -7.4 1.45 -8.05 1.4 -11.55 M30.25 -10.85 L30.2 -11.9 33.75 -12.85 33.75 -12.75 33.8 -11.25 30.25 -10.05 30.25 -10.85" fill="#ffffff" fill-rule="evenodd" stroke="none"/>
    <path d="M6.35 -130.1 L7.5 -130.95 7.55 -130.9 7.65 -130.8 8.9 -128.95 9.3 -128.25 8.45 -126.6 8.15 -127.15 5.85 -123.1 5.65 -122.7 Q3.0 -117.9 1.3 -113.25 L0.8 -111.85 -0.55 -108.4 -0.05 -112.0 0.2 -112.75 2.9 -119.5 3.4 -120.7 4.9 -123.65 Q6.2 -126.1 7.75 -128.0 L6.35 -130.1 M41.3 -2.3 L36.8 -1.4 36.65 -3.45 36.1 -1.25 35.75 -1.2 35.9 -2.2 Q35.4 -3.55 35.4 -4.3 L35.35 -4.3 35.35 -5.1 35.3 -5.1 35.3 -5.3 34.95 -7.55 34.8 -8.3 34.7 -7.95 34.9 -8.7 34.9 -8.8 35.3 -10.3 36.05 -13.45 36.3 -14.85 36.4 -15.85 36.4 -17.2 36.4 -18.35 36.5 -21.35 36.55 -21.35 Q35.5 -25.3 35.2 -26.95 34.55 -30.3 31.45 -35.9 L30.4 -37.65 32.25 -38.05 Q33.65 -38.45 34.55 -38.9 L39.55 -21.2 40.5 -17.2 40.75 -16.1 41.25 -13.2 41.4 -11.9 41.65 -5.9 41.55 -4.2 Q41.5 -3.5 41.45 -4.35 L41.2 -4.65 41.3 -2.3 M27.0 0.0 L26.6 0.05 26.05 0.1 26.0 -2.8 26.6 -2.9 28.7 -4.65 29.05 -4.95 29.3 -5.25 29.25 -4.5 29.2 -3.55 29.15 -3.4 29.15 -3.35 29.15 -2.7 29.1 -1.9 26.95 -1.35 27.0 0.0 M8.15 1.0 L6.8 1.0 6.85 -1.15 6.85 -1.95 6.85 -5.55 6.7 -11.5 6.85 -11.6 6.95 -11.6 6.95 -8.55 Q7.75 -5.15 7.8 -3.45 7.8 -0.45 8.15 1.0 M1.75 0.95 L1.45 0.95 1.45 -2.35 1.65 -1.3 1.7 -0.2 1.75 0.95 M-0.05 0.95 L-0.85 0.9 -0.9 0.1 -0.9 0.3 -0.95 -0.25 -1.0 -0.5 -2.0 -0.55 -3.65 -0.7 Q-4.35 -0.85 -4.35 -1.05 L-3.65 -1.4 -2.55 -1.5 -2.15 -1.5 -2.0 -1.5 -1.9 -1.5 -1.2 -1.45 -1.15 -1.25 0.05 -11.6 0.05 -11.65 0.1 -11.6 0.0 0.9 -0.05 0.9 -0.05 0.95 M-29.35 -2.6 L-31.45 -3.15 -33.5 -3.7 -33.55 -5.05 -33.35 -5.75 -33.45 -6.85 -33.75 -10.85 -33.5 -14.75 -33.35 -15.95 -33.1 -17.2 -32.8 -18.2 -32.5 -19.35 -32.45 -19.45 -32.45 -19.55 -32.3 -19.95 -31.95 -21.2 -32.0 -21.2 -31.95 -21.35 Q-28.85 -32.65 -26.6 -43.3 L-18.2 -82.9 -17.75 -82.3 Q-16.9 -81.45 -15.7 -81.45 L-15.55 -81.45 -15.15 -80.9 -13.7 -79.1 Q-13.7 -78.8 -15.2 -75.8 -17.55 -71.15 -20.65 -60.6 -19.0 -60.2 -18.6 -59.6 -24.95 -46.9 -24.95 -42.65 -24.95 -42.0 -23.85 -40.95 L-19.85 -37.0 Q-24.9 -36.0 -26.45 -28.6 -27.55 -23.4 -28.2 -17.2 L-28.35 -15.55 -28.5 -13.8 -28.65 -11.95 -28.7 -8.6 -28.3 -5.6 -28.2 -5.35 -27.9 -5.45 -27.35 -5.15 -28.6 -4.2 Q-29.25 -3.65 -29.35 -2.6 M-15.65 -95.7 L-15.5 -96.4 -12.2 -113.45 Q-9.9 -125.85 -9.15 -127.85 -8.6 -129.45 -6.15 -131.8 -7.05 -130.0 -7.65 -127.45 L-9.0 -124.05 Q-11.6 -116.35 -12.5 -105.6 L-12.75 -104.5 -13.5 -98.6 -13.05 -97.5 -13.0 -97.45 -12.95 -97.3 -12.95 -95.7 -15.65 -95.7 M20.0 -36.65 L21.45 -36.7 21.45 -36.6 21.85 -33.8 21.4 -33.7 21.35 -33.65 20.6 -33.8 20.0 -36.65 M20.85 -30.45 L21.65 -30.7 Q22.95 -27.65 22.95 -26.45 22.95 -25.75 22.65 -25.55 L21.85 -25.45 Q21.35 -26.85 20.85 -30.45 M12.4 -0.95 Q12.4 -1.2 13.0 -1.35 L13.1 -1.35 15.15 -1.5 15.9 -1.35 Q16.5 -1.2 16.5 -0.95 16.5 -0.7 15.9 -0.5 L14.45 -0.35 13.0 -0.5 12.4 -0.95 M23.3 -1.95 L23.3 -0.95 19.6 -0.95 19.6 -1.9 20.05 -1.95 23.3 -1.95 M-24.75 -3.75 L-24.45 -4.75 -23.75 -4.6 Q-21.55 -3.55 -21.5 -3.2 L-22.1 -2.85 Q-23.0 -3.05 -24.75 -3.75 M-18.5 -1.65 L-18.5 -3.05 -15.9 -3.05 -14.6 -2.85 -14.6 -1.65 -18.5 -1.65 M-10.85 -1.1 L-11.45 -1.55 -10.85 -2.0 -9.5 -2.2 -8.05 -2.05 -7.95 -2.0 -7.35 -1.55 -7.95 -1.1 -9.4 -0.9 -10.85 -1.1" fill="#8a8a8a" fill-rule="evenodd" stroke="none"/>
    <path d="M6.5 -121.4 Q5.45 -118.1 4.75 -114.25 4.05 -115.5 3.05 -116.15 2.5 -115.6 1.3 -113.25 3.0 -117.9 5.65 -122.7 L5.95 -122.25 6.5 -121.4 M3.45 -104.15 L3.3 -102.2 3.05 -95.5 2.15 -95.5 1.9 -95.8 Q0.9 -96.8 -0.55 -96.8 L-1.3 -96.7 -1.1 -102.5 -1.05 -102.95 -1.0 -102.95 Q1.0 -103.05 3.35 -104.1 L3.45 -104.15 M-0.05 -112.0 Q0.85 -118.1 2.5 -122.95 L3.35 -125.2 4.9 -123.65 3.4 -120.7 2.9 -119.5 0.2 -112.75 -0.05 -112.0 M0.95 -86.55 L0.8 -86.0 0.7 -86.0 0.05 -85.9 -0.05 -86.6 0.95 -86.55 M33.9 -0.9 L30.65 -0.4 30.25 -10.05 33.8 -11.25 33.85 -4.6 33.9 -4.6 33.9 -0.9 M23.6 0.35 L10.45 1.0 10.2 -1.2 10.05 -1.2 10.0 -1.2 Q9.9 -2.85 8.75 -5.65 L8.65 -5.85 Q7.75 -8.05 7.3 -9.9 L7.0 -11.5 7.0 -11.6 6.95 -11.6 6.85 -11.6 6.7 -11.5 5.45 -11.5 5.45 -11.7 1.4 -11.55 0.1 -11.6 0.05 -11.65 0.05 -11.6 -2.15 -2.15 -2.1 -1.85 -2.1 -1.6 -2.0 -1.55 -1.9 -1.5 -2.0 -1.5 -2.15 -1.5 -2.55 -1.5 -3.65 -1.4 -4.35 -1.05 Q-4.35 -0.85 -3.65 -0.7 L-2.0 -0.55 -1.95 0.85 -21.9 -1.1 -21.15 -3.65 -21.0 -4.0 -20.85 -4.0 -20.95 -4.3 -21.0 -4.5 -21.2 -5.55 -20.85 -7.55 Q-20.55 -8.85 -20.55 -9.5 L-20.55 -9.9 -20.85 -11.45 -20.85 -11.75 -20.65 -13.65 -20.0 -17.2 -19.95 -17.6 Q-18.8 -23.2 -18.05 -23.8 -16.1 -25.3 -12.05 -27.05 L-8.35 -28.45 Q-5.75 -29.45 -4.75 -30.15 -3.55 -31.0 -3.25 -32.15 L-3.1 -32.65 -10.2 -31.6 Q-13.0 -31.6 -13.15 -36.1 -13.35 -40.65 -11.3 -50.8 -9.25 -60.95 -9.75 -62.45 -8.3 -69.85 -7.05 -82.5 L-6.65 -86.9 -2.1 -86.7 -1.8 -84.5 Q-2.2 -83.9 -2.2 -83.1 L-2.2 -83.0 Q-2.15 -81.85 -1.35 -81.05 L-1.15 -80.85 -3.05 -78.35 Q-6.45 -73.2 -5.5 -69.1 -5.25 -68.7 -5.5 -68.3 L-3.5 -68.1 Q-1.8 -68.1 3.55 -71.05 5.7 -72.2 7.3 -73.45 L9.9 -62.5 7.8 -62.55 Q5.05 -62.55 -1.1 -58.25 -7.5 -53.75 -7.5 -51.05 L-7.3 -48.4 -7.15 -44.3 -7.25 -44.25 -6.65 -44.25 Q-3.0 -44.25 11.75 -54.85 L12.85 -50.3 11.4 -49.75 3.6 -46.5 -2.35 -43.5 Q-8.1 -40.25 -8.1 -38.45 -8.1 -36.0 -5.65 -35.45 1.95 -35.45 9.85 -40.45 L14.4 -43.7 16.0 -37.1 16.15 -36.8 14.5 -35.5 Q15.2 -35.1 17.7 -34.45 L20.6 -33.8 21.35 -33.65 22.95 -32.85 22.9 -32.45 22.9 -32.35 Q22.95 -31.2 23.75 -30.4 24.4 -29.75 25.2 -29.6 26.0 -27.35 26.0 -24.0 L25.85 -21.35 25.85 -21.2 27.3 -19.2 27.25 -18.35 27.1 -17.2 27.05 -16.9 26.8 -15.85 26.05 -13.5 23.55 -2.4 23.5 -2.4 23.5 -2.3 23.45 -2.1 23.5 -2.15 23.6 0.35 M5.4 1.0 L1.75 0.95 1.7 -0.2 1.65 -1.3 1.45 -2.35 1.45 -8.05 5.35 -7.4 5.4 1.0 M4.5 -85.25 L6.0 -78.8 2.65 -78.7 3.75 -82.25 4.5 -85.25 M4.45 -85.5 L3.15 -84.7 2.75 -85.15 2.65 -85.25 3.0 -86.45 4.2 -86.4 4.45 -85.5 M20.85 -30.45 Q21.35 -26.85 21.85 -25.45 L22.65 -25.55 Q22.95 -25.75 22.95 -26.45 22.95 -27.65 21.65 -30.7 L20.85 -30.45 M-4.5 -26.75 Q-5.65 -25.7 -12.3 -23.35 -15.35 -22.25 -17.35 -17.4 L-17.25 -17.3 -17.15 -17.2 -15.45 -16.1 -13.75 -15.85 -11.95 -16.15 -10.3 -17.2 -10.2 -17.3 -6.5 -21.2 -6.15 -18.7 -5.7 -17.45 -5.55 -17.2 -4.45 -15.95 Q-4.0 -15.65 -3.4 -15.45 L-1.55 -15.2 1.05 -15.4 Q2.05 -15.65 2.4 -16.15 L2.45 -17.2 3.65 -19.35 4.8 -21.2 7.65 -18.55 7.9 -18.35 9.2 -17.2 Q11.1 -15.7 12.2 -15.5 L12.45 -15.5 13.1 -14.8 Q13.7 -14.15 15.65 -14.1 L18.7 -13.75 Q19.85 -13.45 21.35 -14.9 L22.35 -16.1 22.15 -17.2 Q20.85 -23.3 16.15 -25.6 L14.1 -30.2 14.05 -30.35 Q13.3 -28.7 13.3 -27.6 L12.3 -28.4 Q11.3 -29.75 11.3 -32.4 L11.1 -34.3 9.95 -34.5 Q8.45 -34.45 5.75 -33.35 1.85 -31.8 -1.7 -28.9 L-3.1 -27.7 -4.5 -26.75 M9.95 -1.2 L9.95 -1.35 9.95 -1.2 M12.4 -0.95 L13.0 -0.5 14.45 -0.35 15.9 -0.5 Q16.5 -0.7 16.5 -0.95 16.5 -1.2 15.9 -1.35 L15.15 -1.5 13.1 -1.35 13.0 -1.35 Q12.4 -1.2 12.4 -0.95 M23.3 -1.95 L20.05 -1.95 19.6 -1.9 19.6 -0.95 23.3 -0.95 23.3 -1.95 M25.45 -12.3 L25.45 -12.35 25.2 -12.0 25.4 -12.25 25.45 -12.15 25.45 -12.3 M25.75 -2.75 L25.55 -2.7 25.75 -2.75 M-13.15 -87.2 L-12.8 -87.2 -13.3 -86.0 -13.45 -86.2 -13.15 -87.2 M-10.85 -1.1 L-9.4 -0.9 -7.95 -1.1 -7.35 -1.55 -7.95 -2.0 -8.05 -2.05 -9.5 -2.2 -10.85 -2.0 -11.45 -1.55 -10.85 -1.1 M-18.5 -1.65 L-14.6 -1.65 -14.6 -2.85 -15.9 -3.05 -18.5 -3.05 -18.5 -1.65 M-1.2 -1.45 L-1.25 -1.65 -1.2 -1.45" fill="#e0e0e0" fill-rule="evenodd" stroke="none"/>
    <path d="M8.45 -126.6 L7.0 -123.05 6.5 -121.4 5.95 -122.25 5.65 -122.7 5.85 -123.1 8.15 -127.15 8.45 -126.6 M3.35 -125.2 Q4.75 -128.55 6.35 -130.1 L7.75 -128.0 Q6.2 -126.1 4.9 -123.65 L3.35 -125.2 M36.8 -1.4 L36.1 -1.25 36.65 -3.45 36.8 -1.4 M29.2 -0.25 L27.0 0.0 26.95 -1.35 29.1 -1.9 29.2 -0.25 M26.05 0.1 L23.6 0.35 23.5 -2.15 23.45 -2.1 23.5 -2.3 23.5 -2.4 23.55 -2.4 26.05 -13.5 26.8 -15.85 27.05 -16.9 27.1 -17.2 27.25 -18.35 27.3 -19.2 25.85 -21.2 25.85 -21.35 26.0 -24.0 Q26.0 -27.35 25.2 -29.6 L25.8 -29.55 Q27.0 -29.55 27.85 -30.4 28.65 -31.2 28.7 -32.35 L28.7 -32.45 Q28.7 -33.65 27.85 -34.5 27.0 -35.35 25.8 -35.35 24.6 -35.35 23.75 -34.5 23.05 -33.8 22.95 -32.85 L21.35 -33.65 21.4 -33.7 21.85 -33.8 21.45 -36.6 21.45 -36.7 30.4 -37.65 31.45 -35.9 Q34.55 -30.3 35.2 -26.95 35.5 -25.3 36.55 -21.35 L36.5 -21.35 36.4 -18.35 36.4 -17.2 36.4 -15.85 36.3 -14.85 36.05 -13.45 35.3 -10.3 34.9 -8.8 34.9 -8.7 34.5 -10.3 33.85 -12.8 33.75 -12.75 33.75 -12.85 30.2 -11.9 30.25 -10.85 30.2 -11.45 Q29.6 -10.9 29.4 -9.35 L29.3 -6.1 29.3 -5.25 29.05 -4.95 28.7 -4.65 26.6 -2.9 26.0 -2.8 26.05 0.1 M10.45 1.0 L10.1 1.0 8.45 1.0 8.15 1.0 Q7.8 -0.45 7.8 -3.45 7.75 -5.15 6.95 -8.55 L6.95 -11.6 7.0 -11.6 7.0 -11.5 7.3 -9.9 Q7.75 -8.05 8.65 -5.85 L8.75 -5.65 Q9.9 -2.85 10.0 -1.2 L10.05 -1.2 10.2 -1.2 10.45 1.0 M-0.85 0.9 L-1.95 0.85 -2.0 -0.55 -1.0 -0.5 -0.95 -0.25 -0.9 0.3 -0.9 0.1 -0.85 0.9 M-21.9 -1.1 L-29.35 -2.6 Q-29.25 -3.65 -28.6 -4.2 L-27.35 -5.15 -27.9 -5.45 -28.2 -5.35 -28.3 -5.6 -28.7 -8.6 -28.65 -11.95 -28.5 -13.8 -28.35 -15.55 -28.2 -17.2 Q-27.55 -23.4 -26.45 -28.6 -24.9 -36.0 -19.85 -37.0 L-23.85 -40.95 Q-24.95 -42.0 -24.95 -42.65 -24.95 -46.9 -18.6 -59.6 -19.0 -60.2 -20.65 -60.6 -17.55 -71.15 -15.2 -75.8 -13.7 -78.8 -13.7 -79.1 L-15.15 -80.9 -15.55 -81.45 Q-14.45 -81.5 -13.65 -82.3 -12.85 -83.1 -12.8 -84.25 L-12.8 -84.35 Q-12.8 -85.3 -13.3 -86.0 L-12.8 -87.2 -6.65 -86.9 -7.05 -82.5 Q-8.3 -69.85 -9.75 -62.45 -9.25 -60.95 -11.3 -50.8 -13.35 -40.65 -13.15 -36.1 -13.0 -31.6 -10.2 -31.6 L-3.1 -32.65 -3.25 -32.15 Q-3.55 -31.0 -4.75 -30.15 -5.75 -29.45 -8.35 -28.45 L-12.05 -27.05 Q-16.1 -25.3 -18.05 -23.8 -18.8 -23.2 -19.95 -17.6 L-20.0 -17.2 -20.65 -13.65 -20.85 -11.75 -20.85 -11.45 -20.55 -9.9 -20.55 -9.5 Q-20.55 -8.85 -20.85 -7.55 L-21.2 -5.55 -21.0 -4.5 -20.95 -4.3 -20.85 -4.0 -21.0 -4.0 -21.15 -3.65 -21.9 -1.1 M-12.5 -105.6 L-12.5 -105.55 -12.7 -103.2 -12.95 -97.35 -12.95 -97.3 -13.0 -97.45 -13.05 -97.5 -13.5 -98.6 -12.75 -104.5 -12.5 -105.6 M16.15 -36.8 L16.25 -36.7 Q16.45 -36.55 16.75 -36.55 L20.0 -36.65 20.6 -33.8 17.7 -34.45 Q15.2 -35.1 14.5 -35.5 L16.15 -36.8 M0.05 -11.6 L-1.15 -1.25 -1.2 -1.45 -1.9 -1.5 -2.0 -1.55 -2.1 -1.6 -2.1 -1.85 -2.15 -2.15 0.05 -11.6 M9.95 -1.2 L9.95 -1.35 9.95 -1.2 M25.45 -12.3 L25.45 -12.15 25.4 -12.25 25.2 -12.0 25.45 -12.35 25.45 -12.3 M25.75 -2.75 L25.55 -2.7 25.75 -2.75 M-15.25 -87.3 L-15.25 -87.2 -15.7 -87.25 -15.7 -87.35 -15.25 -87.3 M-24.75 -3.75 Q-23.0 -3.05 -22.1 -2.85 L-21.5 -3.2 Q-21.55 -3.55 -23.75 -4.6 L-24.45 -4.75 -24.75 -3.75 M-1.2 -1.45 L-1.25 -1.65 -1.2 -1.45" fill="#b4b4b4" fill-rule="evenodd" stroke="none"/>
    <path d="M10.9 -128.05 L10.5 -128.75 10.5 -128.8 10.9 -128.05 M8.1 -132.1 L7.95 -132.05 7.6 -132.6 7.7 -132.5 8.1 -132.1 M-5.75 -129.55 L-5.95 -128.95 -5.75 -129.55 M-18.75 -87.5 L-18.5 -88.55 -18.65 -87.8 -18.7 -87.55 -18.75 -87.5 M-18.3 -89.6 L-17.95 -91.2 -17.85 -89.55 -18.3 -89.6 M39.65 -21.35 L39.65 -21.2 39.6 -21.35 39.65 -21.35" fill="#0b4a56" fill-rule="evenodd" stroke="none"/>
    <path d="M3.05 -95.5 L4.55 -95.45 4.7 -95.45 5.05 -95.3 5.15 -94.9 5.05 -92.4 4.9 -92.05 4.55 -91.95 4.45 -91.95 3.45 -88.1 3.0 -86.45 2.65 -85.25 2.75 -85.15 3.15 -84.7 Q3.6 -84.0 3.6 -83.1 L3.6 -83.0 Q3.55 -81.85 2.75 -81.05 1.9 -80.2 0.7 -80.2 -0.35 -80.2 -1.15 -80.85 L-1.35 -81.05 Q-2.15 -81.85 -2.2 -83.0 L-2.2 -83.1 Q-2.2 -83.9 -1.8 -84.5 L-2.1 -86.7 -2.3 -88.5 -2.8 -92.2 -3.2 -92.2 Q-3.45 -92.2 -3.55 -92.35 L-3.7 -92.7 -3.6 -95.2 -3.45 -95.55 -3.05 -95.7 -2.8 -95.7 -1.3 -95.65 2.15 -95.5 3.05 -95.5 M-11.45 -95.7 L-11.1 -95.7 -10.8 -95.6 -10.65 -95.4 -10.6 -95.1 -10.9 -92.85 -11.05 -92.55 -11.4 -92.45 -12.45 -89.2 -13.15 -87.2 -13.45 -86.2 -13.3 -86.0 Q-12.8 -85.3 -12.8 -84.35 L-12.8 -84.25 Q-12.85 -83.1 -13.65 -82.3 -14.45 -81.5 -15.55 -81.45 L-15.7 -81.45 Q-16.9 -81.45 -17.75 -82.3 L-18.2 -82.9 Q-18.55 -83.5 -18.6 -84.25 L-18.6 -84.35 Q-18.6 -85.55 -17.75 -86.4 L-17.65 -86.5 -17.85 -89.55 -17.95 -91.2 -18.0 -92.45 -18.15 -92.45 -18.4 -92.5 -18.6 -92.75 -18.65 -93.0 -18.35 -95.25 -18.15 -95.55 -17.85 -95.7 -17.0 -95.7 -15.65 -95.7 -12.95 -95.7 -11.45 -95.7 M4.15 -94.45 L-2.6 -94.65 -2.65 -93.15 4.1 -92.95 4.15 -94.45 M3.8 -91.95 L3.05 -92.0 1.4 -85.9 2.1 -85.65 3.8 -91.95 M1.4 -88.25 L2.4 -92.0 -0.75 -92.1 -0.25 -88.35 -0.05 -86.6 0.05 -85.9 0.7 -86.0 0.8 -86.0 0.95 -86.55 1.4 -88.25 M2.6 -83.0 L2.6 -83.1 2.35 -84.05 2.35 -84.1 2.05 -84.45 1.85 -84.65 1.15 -84.95 0.7 -85.0 0.5 -85.0 0.15 -84.9 -0.45 -84.6 -0.65 -84.45 -0.95 -84.0 -1.15 -83.4 -1.2 -83.1 -1.2 -83.0 Q-1.15 -82.25 -0.65 -81.75 L-0.5 -81.6 Q0.0 -81.2 0.7 -81.2 1.5 -81.2 2.05 -81.75 2.55 -82.25 2.6 -83.0 M23.9 -32.35 L24.0 -31.8 24.45 -31.1 24.55 -31.0 Q25.05 -30.55 25.8 -30.55 26.6 -30.55 27.15 -31.1 27.65 -31.6 27.7 -32.35 L27.7 -32.45 Q27.7 -33.25 27.15 -33.8 26.6 -34.35 25.8 -34.35 25.0 -34.35 24.45 -33.8 23.9 -33.25 23.9 -32.45 L23.9 -32.35 M22.95 -32.85 Q23.05 -33.8 23.75 -34.5 24.6 -35.35 25.8 -35.35 27.0 -35.35 27.85 -34.5 28.7 -33.65 28.7 -32.45 L28.7 -32.35 Q28.65 -31.2 27.85 -30.4 27.0 -29.55 25.8 -29.55 L25.2 -29.6 Q24.4 -29.75 23.75 -30.4 22.95 -31.2 22.9 -32.35 L22.9 -32.45 22.95 -32.85 M-1.4 -92.15 L-2.15 -92.15 -1.3 -85.2 -0.6 -85.7 -1.4 -92.15 M-11.65 -94.7 L-17.4 -94.7 -17.55 -93.45 -11.85 -93.45 -11.65 -94.7 M-16.65 -92.45 L-17.4 -92.45 -17.05 -86.9 -16.3 -87.2 -16.65 -92.45 M-15.7 -87.35 L-15.7 -87.25 -15.25 -87.2 -15.25 -87.3 -14.55 -89.35 -13.5 -92.45 -16.0 -92.45 -15.8 -89.4 -15.7 -87.35 M-12.05 -92.45 L-12.85 -92.45 -14.65 -87.05 -13.95 -86.7 -12.05 -92.45 M-13.8 -84.25 L-13.8 -84.35 -13.85 -84.8 -13.9 -85.0 -14.3 -85.65 -14.35 -85.7 -14.45 -85.8 -14.95 -86.1 -15.6 -86.25 -15.7 -86.25 -16.25 -86.15 -16.4 -86.1 -16.95 -85.75 -17.05 -85.7 -17.55 -84.8 -17.6 -84.35 -17.6 -84.25 Q-17.55 -83.5 -17.05 -83.0 L-16.2 -82.5 -15.7 -82.45 Q-14.9 -82.45 -14.35 -83.0 -13.85 -83.5 -13.8 -84.25" fill="#454545" fill-rule="evenodd" stroke="none"/>
    <path d="M4.15 -94.45 L4.1 -92.95 -2.65 -93.15 -2.6 -94.65 4.15 -94.45 M3.8 -91.95 L2.1 -85.65 1.4 -85.9 3.05 -92.0 3.8 -91.95 M2.6 -83.0 Q2.55 -82.25 2.05 -81.75 1.5 -81.2 0.7 -81.2 0.0 -81.2 -0.5 -81.6 L-0.65 -81.75 Q-1.15 -82.25 -1.2 -83.0 L2.6 -83.0 M27.7 -32.35 Q27.65 -31.6 27.15 -31.1 26.6 -30.55 25.8 -30.55 25.05 -30.55 24.55 -31.0 L24.45 -31.1 24.0 -31.8 23.9 -32.35 27.7 -32.35 M-1.4 -92.15 L-0.6 -85.7 -1.3 -85.2 -2.15 -92.15 -1.4 -92.15 M-11.65 -94.7 L-11.85 -93.45 -17.55 -93.45 -17.4 -94.7 -11.65 -94.7 M-16.65 -92.45 L-16.3 -87.2 -17.05 -86.9 -17.4 -92.45 -16.65 -92.45 M-12.05 -92.45 L-13.95 -86.7 -14.65 -87.05 -12.85 -92.45 -12.05 -92.45 M-13.8 -84.25 Q-13.85 -83.5 -14.35 -83.0 -14.9 -82.45 -15.7 -82.45 L-16.2 -82.5 -17.05 -83.0 Q-17.55 -83.5 -17.6 -84.25 L-13.8 -84.25" fill="#aaaaaa" fill-rule="evenodd" stroke="none"/>
    <path d="M-1.2 -83.0 L-1.2 -83.1 -1.15 -83.4 -0.95 -84.0 -0.65 -84.45 -0.45 -84.6 0.15 -84.9 0.5 -85.0 0.7 -85.0 1.15 -84.95 1.85 -84.65 2.05 -84.45 2.35 -84.1 2.35 -84.05 2.6 -83.1 2.6 -83.0 -1.2 -83.0 M23.9 -32.35 L23.9 -32.45 Q23.9 -33.25 24.45 -33.8 25.0 -34.35 25.8 -34.35 26.6 -34.35 27.15 -33.8 27.7 -33.25 27.7 -32.45 L27.7 -32.35 23.9 -32.35 M-17.6 -84.25 L-17.6 -84.35 -17.55 -84.8 -17.05 -85.7 -16.95 -85.75 -16.4 -86.1 -16.25 -86.15 -15.7 -86.25 -15.6 -86.25 -14.95 -86.1 -14.45 -85.8 -14.35 -85.7 -14.3 -85.65 -13.9 -85.0 -13.85 -84.8 -13.8 -84.35 -13.8 -84.25 -17.6 -84.25" fill="#d4d4d4" fill-rule="evenodd" stroke="none"/>
    <path d="M-6.6 -98.15 L-6.95 -97.6 -6.9 -98.0 -6.6 -98.15" fill="#44b7cd" fill-rule="evenodd" stroke="none"/>
  </g>
</svg>
