<?xml version="1.0" encoding="UTF-8" standalone="no"?>
<svg xmlns:ffdec="https://www.free-decompiler.com/flash" xmlns:xlink="http://www.w3.org/1999/xlink" ffdec:objectType="shape" height="13.35px" width="66.5px" xmlns="http://www.w3.org/2000/svg">
  <g transform="matrix(1.0, 0.0, 0.0, 1.0, 30.0, 46.95)">
    <path d="M-4.95 -41.75 L0.0 -41.95 0.5 -42.0 2.7 -42.05 20.2 -43.0 26.95 -43.1 27.2 -43.1 25.1 -42.65 12.6 -41.15 7.25 -40.85 3.05 -40.45 -10.75 -39.95 -10.25 -40.1 -8.0 -40.95 -4.95 -41.75" fill="#ffffff" fill-rule="evenodd" stroke="none"/>
    <path d="M-26.4 -42.85 L-26.4 -42.95 -26.85 -43.1 -26.4 -43.05 -4.95 -41.75 -8.0 -40.95 -10.25 -40.1 -18.35 -41.1 Q-26.35 -42.2 -26.4 -42.85 M13.75 -37.75 Q13.3 -37.1 11.25 -37.05 L9.05 -36.9 6.6 -36.7 -3.1 -36.65 -3.25 -37.0 13.75 -37.75" fill="#e0e0e0" fill-rule="evenodd" stroke="none"/>
    <path d="M20.2 -43.0 L25.7 -43.65 Q31.25 -44.3 33.8 -45.1 L33.6 -43.9 33.4 -43.85 Q30.5 -42.95 27.55 -42.7 27.55 -42.2 26.55 -41.85 25.85 -41.4 22.9 -40.5 L18.95 -39.3 18.85 -39.25 18.25 -39.2 20.05 -39.25 25.95 -39.55 31.2 -39.7 Q31.9 -39.7 31.75 -39.25 31.85 -38.5 27.55 -37.75 L14.4 -36.55 9.55 -36.3 3.45 -35.75 -5.85 -35.35 -11.65 -35.75 -11.7 -36.5 Q-11.25 -37.1 -8.15 -37.3 L-8.1 -37.45 Q-7.95 -37.45 -7.95 -37.7 L-10.2 -38.1 Q-12.55 -38.25 -12.6 -38.75 L-10.75 -39.95 3.05 -40.45 7.25 -40.85 12.6 -41.15 25.1 -42.65 27.2 -43.1 26.95 -43.1 20.2 -43.0 M13.75 -37.75 L-3.25 -37.0 -3.1 -36.65 6.6 -36.7 9.05 -36.9 11.25 -37.05 Q13.3 -37.1 13.75 -37.75" fill="#b4b4b4" fill-rule="evenodd" stroke="none"/>
    <path d="M-14.45 -34.3 L-27.6 -35.35 Q-29.65 -35.35 -29.85 -36.0 -30.15 -36.7 -29.8 -38.75 L-29.0 -44.6 -28.15 -44.95 -28.05 -44.95 -27.75 -44.85 -26.65 -43.95 Q-7.25 -43.15 -0.05 -43.2 L0.45 -43.2 2.6 -43.3 25.55 -44.85 Q33.5 -45.9 33.35 -46.3 33.25 -46.7 33.95 -46.85 L34.2 -46.95 34.7 -46.85 34.7 -46.8 35.15 -44.5 36.05 -40.75 36.5 -37.9 Q36.5 -37.05 26.15 -35.55 15.85 -34.05 2.0 -33.7 L0.65 -33.65 0.15 -33.6 -14.45 -34.3 M33.6 -43.9 L33.8 -45.1 Q31.25 -44.3 25.7 -43.65 L20.2 -43.0 2.7 -42.05 0.5 -42.0 0.0 -41.95 -4.95 -41.75 -26.4 -43.05 -26.85 -43.1 -26.4 -42.95 -26.4 -42.85 -26.45 -42.6 -28.05 -43.45 Q-27.85 -40.2 -28.65 -36.35 L-27.75 -36.55 -27.1 -36.5 0.05 -34.85 0.6 -34.9 1.9 -34.95 25.35 -36.55 Q34.05 -37.7 34.3 -38.4 33.5 -41.25 33.6 -43.9" fill="#464646" fill-rule="evenodd" stroke="none"/>
    <path d="M33.6 -43.9 Q33.5 -41.25 34.3 -38.4 34.05 -37.7 25.35 -36.55 L1.9 -34.95 0.6 -34.9 0.05 -34.85 -27.1 -36.5 -27.75 -36.55 -28.65 -36.35 Q-27.85 -40.2 -28.05 -43.45 L-26.45 -42.6 -26.4 -42.85 Q-26.35 -42.2 -18.35 -41.1 L-10.25 -40.1 -10.75 -39.95 -12.6 -38.75 Q-12.55 -38.25 -10.2 -38.1 L-7.95 -37.7 Q-7.95 -37.45 -8.1 -37.45 L-8.15 -37.3 Q-11.25 -37.1 -11.7 -36.5 L-11.65 -35.75 -5.85 -35.35 3.45 -35.75 9.55 -36.3 14.4 -36.55 27.55 -37.75 Q31.85 -38.5 31.75 -39.25 31.9 -39.7 31.2 -39.7 L25.95 -39.55 20.05 -39.25 18.25 -39.2 18.85 -39.25 18.95 -39.3 22.9 -40.5 Q25.85 -41.4 26.55 -41.85 27.55 -42.2 27.55 -42.7 30.5 -42.95 33.4 -43.85 L33.6 -43.9" fill="#8a8a8a" fill-rule="evenodd" stroke="none"/>
  </g>
</svg>
