<?xml version="1.0" encoding="UTF-8" standalone="no"?>
<svg xmlns:ffdec="https://www.free-decompiler.com/flash" xmlns:xlink="http://www.w3.org/1999/xlink" ffdec:objectType="shape" height="83.0px" width="117.85px" xmlns="http://www.w3.org/2000/svg">
  <g transform="matrix(1.0, 0.0, 0.0, 1.0, 49.4, 31.65)">
    <path d="M46.8 44.7 Q44.3 45.5 40.65 45.35 36.2 45.1 32.25 43.55 21.65 39.25 18.7 27.15 L18.2 24.65 20.15 27.0 19.35 22.3 Q25.05 28.7 35.3 33.05 45.1 37.25 49.25 35.75 48.75 36.9 47.05 37.8 L45.4 38.5 39.75 38.35 Q35.15 37.55 32.45 35.45 L33.2 36.25 Q35.0 38.55 39.55 39.25 45.35 40.2 57.35 38.95 53.2 42.7 46.8 44.7 M25.1 24.5 Q22.8 21.5 22.25 19.5 L22.0 17.6 Q22.85 18.35 23.8 17.3 L24.4 16.55 24.65 16.15 30.35 26.95 30.3 27.35 29.95 27.55 Q27.85 28.15 25.1 24.5" fill="#ffffff" fill-rule="evenodd" stroke="none"/>
    <path d="M52.35 34.65 L60.75 34.05 59.7 36.65 Q58.85 38.75 57.8 40.15 54.65 44.65 48.6 46.45 36.85 50.15 27.9 44.0 19.95 38.45 17.4 27.9 15.45 19.7 17.95 12.25 L18.45 19.15 18.8 20.45 21.4 10.55 22.65 15.7 Q23.05 15.1 23.35 12.5 23.65 9.75 24.5 8.2 L24.8 10.15 Q25.85 14.1 28.75 17.75 31.9 21.45 35.8 22.9 L31.65 24.5 Q34.3 28.45 39.4 30.5 46.1 33.3 53.55 30.3 L53.65 30.4 53.9 31.05 53.4 32.35 52.35 34.65 M46.8 44.7 Q53.2 42.7 57.35 38.95 45.35 40.2 39.55 39.25 35.0 38.55 33.2 36.25 L32.45 35.45 Q35.15 37.55 39.75 38.35 L45.4 38.5 47.05 37.8 Q48.75 36.9 49.25 35.75 45.1 37.25 35.3 33.05 25.05 28.7 19.35 22.3 L20.15 27.0 18.2 24.65 18.7 27.15 Q21.65 39.25 32.25 43.55 36.2 45.1 40.65 45.35 44.3 45.5 46.8 44.7 M25.1 24.5 Q27.85 28.15 29.95 27.55 L30.3 27.35 30.35 26.95 24.65 16.15 24.4 16.55 23.8 17.3 Q22.85 18.35 22.0 17.6 L22.25 19.5 Q22.8 21.5 25.1 24.5" fill="#d1d1d1" fill-rule="evenodd" stroke="none"/>
    <path d="M24.4 3.45 Q30.45 15.5 33.45 18.3 34.8 19.5 36.75 20.4 L41.15 22.2 37.15 23.25 36.75 23.75 Q37.8 25.5 45.55 26.8 54.2 28.2 59.0 25.3 L54.9 29.75 57.5 29.1 Q60.75 28.15 63.2 26.55 L67.5 23.4 Q67.8 24.8 66.6 27.8 65.35 31.25 63.5 33.05 L64.8 32.9 Q62.5 38.05 58.1 42.25 52.85 47.25 46.45 49.3 37.35 52.1 28.8 47.7 18.5 42.55 15.3 29.45 13.8 23.0 14.7 17.55 15.5 12.25 19.0 5.65 L19.0 5.6 19.05 5.65 Q18.65 10.5 18.9 10.65 L20.15 6.65 Q20.75 5.15 21.55 4.2 L22.15 3.6 22.2 3.95 22.3 7.65 24.15 3.45 24.4 3.45 M52.35 34.65 L53.4 32.35 53.9 31.05 53.65 30.4 53.55 30.3 Q46.1 33.3 39.4 30.5 34.3 28.45 31.65 24.5 L35.8 22.9 Q31.9 21.45 28.75 17.75 25.85 14.1 24.8 10.15 L24.5 8.2 Q23.65 9.75 23.35 12.5 23.05 15.1 22.65 15.7 L21.4 10.55 18.8 20.45 18.45 19.15 17.95 12.25 Q15.45 19.7 17.4 27.9 19.95 38.45 27.9 44.0 36.85 50.15 48.6 46.45 54.65 44.65 57.8 40.15 58.85 38.75 59.7 36.65 L60.75 34.05 52.35 34.65" fill="#989898" fill-rule="evenodd" stroke="none"/>
    <path d="M24.4 3.45 Q24.0 2.75 25.15 3.85 L25.35 4.4 Q26.0 6.4 27.9 8.6 L28.25 9.4 Q30.15 13.35 35.3 17.5 40.45 21.65 43.55 21.75 L43.55 22.55 Q43.05 23.0 42.4 23.15 L40.6 23.6 Q44.8 25.15 48.25 25.75 L58.35 25.0 Q59.6 24.55 60.8 24.05 L59.65 26.4 68.45 21.5 Q68.15 30.3 63.6 37.75 58.0 46.65 47.7 49.9 34.2 54.05 24.45 46.15 16.7 39.8 14.1 28.9 12.15 20.75 14.25 12.65 15.55 8.05 19.0 5.65 15.5 12.25 14.7 17.55 13.8 23.0 15.3 29.45 18.5 42.55 28.8 47.7 37.35 52.1 46.45 49.3 52.85 47.25 58.1 42.25 62.5 38.05 64.8 32.9 L63.5 33.05 Q65.35 31.25 66.6 27.8 67.8 24.8 67.5 23.4 L63.2 26.55 Q60.75 28.15 57.5 29.1 L54.9 29.75 59.0 25.3 Q54.2 28.2 45.55 26.8 37.8 25.5 36.75 23.75 L37.15 23.25 41.15 22.2 36.75 20.4 Q34.8 19.5 33.45 18.3 30.45 15.5 24.4 3.45 M19.05 5.65 Q20.15 4.7 21.55 4.2 20.75 5.15 20.15 6.65 L18.9 10.65 Q18.65 10.5 19.05 5.65 M22.2 3.95 Q23.1 3.55 24.15 3.45 L22.3 7.65 22.2 3.95" fill="#606060" fill-rule="evenodd" stroke="none"/>
    <path d="M8.65 3.75 Q7.85 2.25 7.85 1.25 7.85 -0.8 9.1 -5.85 L10.35 -11.65 Q10.35 -13.25 8.4 -15.8 L7.55 -16.85 7.85 -16.65 7.9 -16.45 Q12.85 -12.95 16.55 -9.0 L16.05 -8.65 12.35 -5.75 Q14.0 -5.75 16.45 -6.7 L18.05 -7.3 19.15 -5.95 16.1 -2.2 Q12.05 2.3 8.65 3.75 M-24.8 -30.5 L-23.2 -28.5 Q-21.3 -26.5 -19.65 -26.5 -17.55 -26.5 -16.7 -28.45 -12.0 -27.0 -7.15 -24.8 -16.35 -27.0 -28.7 -25.35 -31.05 -28.1 -31.05 -30.4 L-30.9 -31.4 -24.8 -30.5" fill="#ffffff" fill-rule="evenodd" stroke="none"/>
    <path d="M8.65 3.75 Q12.05 2.3 16.1 -2.2 L19.15 -5.95 20.05 -4.8 21.1 -3.35 18.25 -1.15 18.45 -0.65 19.35 -0.5 Q20.4 -0.3 22.15 -1.6 L22.25 -1.65 24.05 1.35 23.2 2.7 Q21.3 5.1 14.35 5.1 12.45 5.1 8.95 4.1 L8.65 3.75 M18.05 -7.3 L16.45 -6.7 Q14.0 -5.75 12.35 -5.75 L16.05 -8.65 16.55 -9.0 18.05 -7.3 M26.3 8.4 L24.25 9.75 22.55 9.75 22.5 9.25 25.0 5.0 25.35 4.4 Q25.85 5.95 27.1 7.6 L26.3 8.4 M-40.35 -27.65 L-38.3 -27.6 -39.9 -29.35 Q-40.6 -30.25 -40.85 -31.4 L-37.35 -31.6 -36.55 -31.6 -36.2 -27.35 -40.35 -27.65 M-16.7 -28.45 Q-17.55 -26.5 -19.65 -26.5 -21.3 -26.5 -23.2 -28.5 L-24.8 -30.5 Q-20.8 -29.75 -16.7 -28.45 M-30.9 -31.4 L-31.05 -30.4 Q-31.05 -28.1 -28.7 -25.35 L-31.4 -25.4 -30.95 -25.85 -30.8 -25.95 Q-31.75 -26.7 -33.6 -29.2 L-35.2 -31.6 -30.9 -31.4" fill="#d1d1d1" fill-rule="evenodd" stroke="none"/>
    <path d="M22.25 -1.65 L22.15 -1.6 Q20.4 -0.3 19.35 -0.5 L18.45 -0.65 18.25 -1.15 21.1 -3.35 22.25 -1.65 M24.05 1.35 L25.35 4.4 25.0 5.0 22.5 9.25 22.55 9.75 24.25 9.75 26.3 8.4 Q24.85 10.85 22.75 12.75 L20.7 9.85 Q18.95 7.7 18.3 7.55 17.9 7.75 17.75 8.35 L13.15 6.25 Q9.55 4.65 8.95 4.1 12.45 5.1 14.35 5.1 21.3 5.1 23.2 2.7 L24.05 1.35 M-40.35 -27.65 Q-41.9 -28.1 -42.9 -30.35 L-43.2 -31.1 -40.85 -31.4 Q-40.6 -30.25 -39.9 -29.35 L-38.3 -27.6 -40.35 -27.65 M-44.95 -30.75 Q-45.15 -29.5 -44.65 -28.1 -46.55 -28.2 -47.8 -30.0 L-44.95 -30.75 M-33.45 -25.85 L-32.65 -26.5 -35.5 -27.3 -36.2 -27.35 -36.55 -31.6 -35.2 -31.6 -33.6 -29.2 Q-31.75 -26.7 -30.8 -25.95 L-30.95 -25.85 -31.4 -25.4 Q-33.0 -25.4 -33.45 -25.85" fill="#989898" fill-rule="evenodd" stroke="none"/>
    <path d="M17.75 8.35 Q17.9 7.75 18.3 7.55 18.95 7.7 20.7 9.85 L22.75 12.75 Q24.85 10.85 26.3 8.4 L27.1 7.6 28.1 8.9 27.95 9.2 Q26.2 12.3 24.1 13.8 22.85 14.75 22.25 14.75 21.6 14.75 21.3 14.45 L20.9 13.85 20.75 13.25 Q20.6 12.15 19.4 10.35 18.35 8.7 17.75 8.35 M-43.2 -31.1 L-42.9 -30.35 Q-41.9 -28.1 -40.35 -27.65 L-36.2 -27.35 -35.5 -27.3 -32.65 -26.5 -33.45 -25.85 Q-43.05 -25.65 -46.2 -26.85 -48.25 -27.65 -49.4 -29.4 L-47.8 -30.0 Q-46.55 -28.2 -44.65 -28.1 -45.15 -29.5 -44.95 -30.75 L-43.2 -31.1" fill="#606060" fill-rule="evenodd" stroke="none"/>
  </g>
</svg>
