<?xml version="1.0" encoding="UTF-8" standalone="no"?>
<svg xmlns:ffdec="https://www.free-decompiler.com/flash" xmlns:xlink="http://www.w3.org/1999/xlink" ffdec:objectType="shape" height="16.9px" width="17.9px" xmlns="http://www.w3.org/2000/svg">
  <g transform="matrix(1.0, 0.0, 0.0, 1.0, 5.0, -1.5)">
    <path d="M5.55 17.75 L5.15 17.8 4.75 17.65 4.5 17.3 4.2 16.3 3.5 17.25 Q2.7 18.25 0.8 18.4 L0.7 18.4 Q-1.4 18.25 -3.1 16.6 -4.75 15.05 -5.0 12.95 L-5.0 12.8 Q-4.85 11.0 -3.75 10.2 L-2.4 9.45 -3.65 8.15 Q-4.5 7.0 -4.4 5.3 L-4.35 5.15 Q-3.85 3.15 -1.9 2.15 0.0 1.15 2.25 1.75 L2.35 1.75 Q4.05 2.5 4.65 3.8 L5.3 5.55 Q6.0 5.05 6.9 4.8 8.15 4.35 9.85 5.05 L9.95 5.1 Q11.85 6.3 12.6 8.4 L12.65 8.45 Q13.3 10.6 12.3 12.4 L12.25 12.5 Q11.25 13.9 9.8 14.0 L8.8 14.05 9.4 14.6 9.65 15.0 9.6 15.5 9.25 15.85 5.55 17.75 M9.95 13.25 Q10.95 13.05 11.65 12.05 L11.75 11.9 Q12.45 10.4 11.9 8.65 11.25 6.8 9.55 5.75 8.15 5.15 7.1 5.5 L6.55 5.7 5.35 6.4 5.2 6.55 4.5 7.4 4.6 6.05 4.55 5.7 3.95 4.1 Q3.45 3.05 2.05 2.45 L2.0 2.45 Q0.05 1.95 -1.55 2.8 -3.15 3.6 -3.6 5.25 L-3.65 5.35 Q-3.75 6.75 -3.05 7.7 L-1.5 9.15 -0.5 9.7 -0.1 9.8 -0.4 9.8 -1.55 9.9 Q-2.5 10.2 -3.3 10.8 L-3.9 11.6 -4.25 12.85 Q-4.05 14.7 -2.6 16.05 L-1.75 16.75 Q-0.6 17.55 0.75 17.65 2.25 17.55 2.9 16.75 L2.95 16.7 3.9 15.05 4.0 13.2 5.2 17.05 8.9 15.15 5.75 12.3 Q7.0 13.05 7.6 13.15 L9.7 13.25 9.95 13.25" fill="#232323" fill-rule="evenodd" stroke="none"/>
    <path d="M11.75 11.9 L11.65 12.05 Q10.95 13.05 9.95 13.25 L9.45 12.55 7.55 9.85 7.0 9.05 6.65 8.55 5.65 7.15 5.2 6.55 5.35 6.4 6.55 5.7 7.05 6.35 8.05 7.55 8.85 8.5 11.2 11.25 11.75 11.9 M2.95 16.7 L2.9 16.75 Q2.25 17.55 0.75 17.65 -0.6 17.55 -1.75 16.75 L-2.25 15.55 -2.4 15.2 -2.65 14.65 -2.75 14.35 -3.45 12.65 -3.9 11.6 -3.3 10.8 Q-2.5 10.2 -1.55 9.9 L-0.4 9.8 0.05 10.55 0.2 10.8 0.85 11.85 1.0 12.3 2.6 15.95 2.95 16.7 M-0.5 9.7 L-1.5 9.15 -3.05 7.7 Q-3.75 6.75 -3.65 5.35 L-3.6 5.25 -2.85 6.3 -1.4 8.3 -0.5 9.7 M2.0 2.45 L2.05 2.45 Q3.45 3.05 3.95 4.1 L4.55 5.7 2.0 2.45" fill="#3a851a" fill-rule="evenodd" stroke="none"/>
    <path d="M-1.75 16.75 L-2.6 16.05 Q-4.05 14.7 -4.25 12.85 L-3.9 11.6 -3.45 12.65 -2.75 14.35 -2.65 14.65 -2.4 15.2 -2.25 15.55 -1.75 16.75 M6.55 5.7 L7.1 5.5 Q8.15 5.15 9.55 5.75 11.25 6.8 11.9 8.65 12.45 10.4 11.75 11.9 L11.2 11.25 8.85 8.5 8.05 7.55 7.05 6.35 6.55 5.7" fill="#296410" fill-rule="evenodd" stroke="none"/>
    <path d="M9.95 13.25 L9.7 13.25 7.6 13.15 Q7.0 13.05 5.75 12.3 L8.9 15.15 5.2 17.05 4.0 13.2 3.9 15.05 2.95 16.7 2.6 15.95 1.0 12.3 0.85 11.85 0.2 10.8 0.05 10.55 -0.4 9.8 -0.1 9.8 -0.5 9.7 -1.4 8.3 -2.85 6.3 -3.6 5.25 Q-3.15 3.6 -1.55 2.8 0.05 1.95 2.0 2.45 L4.55 5.7 4.6 6.05 4.5 7.4 5.2 6.55 5.65 7.15 6.65 8.55 7.0 9.05 7.55 9.85 9.45 12.55 9.95 13.25" fill="#4aa325" fill-rule="evenodd" stroke="none"/>
  </g>
</svg>
