<?xml version="1.0" encoding="UTF-8" standalone="no"?>
<svg xmlns:ffdec="https://www.free-decompiler.com/flash" xmlns:xlink="http://www.w3.org/1999/xlink" ffdec:objectType="shape" height="46.85px" width="34.5px" xmlns="http://www.w3.org/2000/svg">
  <g transform="matrix(1.0, 0.0, 0.0, 1.0, 19.4, 3.4)">
    <path d="M-6.5 8.9 Q-7.2 13.25 -9.25 15.7 -11.15 17.9 -13.35 17.9 -19.4 17.9 -19.4 12.5 -19.4 7.65 -17.25 4.65 -16.45 3.55 -14.0 1.65 L-13.8 1.55 -11.5 2.0 Q-10.8 2.2 -10.25 2.55 -14.0 2.0 -16.05 4.7 -18.2 7.5 -18.2 13.35 -18.2 14.55 -17.4 15.35 -16.3 16.45 -13.8 16.45 -10.9 16.45 -9.2 13.55 -7.6 10.85 -7.6 6.75 L-7.65 6.05 -6.95 7.65 -6.5 8.9 M13.9 34.7 Q13.9 36.4 13.0 38.4 L11.6 40.7 9.75 41.35 7.25 41.8 Q5.45 41.75 4.45 39.7 L2.8 42.1 Q1.3 43.45 -1.6 43.45 -3.1 43.45 -4.45 42.6 -5.9 41.7 -6.55 40.35 -8.8 42.1 -9.85 42.1 -13.25 42.1 -15.75 38.85 -17.9 36.1 -17.9 33.65 -17.4 31.7 -16.1 29.75 -13.55 25.9 -9.55 25.9 -8.75 25.9 -7.15 26.75 -4.95 27.9 -4.65 29.7 L-2.95 28.05 Q-2.4 27.55 -0.4 27.55 1.85 27.55 3.1 28.3 4.05 28.9 5.05 30.35 L6.15 29.2 Q6.9 28.55 8.55 28.55 10.85 28.55 12.35 30.2 13.9 31.95 13.9 34.7 M6.8 30.6 Q6.0 31.4 5.9 32.55 5.75 35.15 5.4 36.8 L5.05 38.55 Q5.05 39.75 6.7 40.25 L8.5 40.55 Q12.05 40.55 12.6 35.15 13.1 29.75 8.95 29.75 7.7 29.75 6.8 30.6 M3.75 31.1 Q2.6 29.1 0.2 29.1 -3.85 29.1 -3.85 33.25 -3.85 35.1 -4.25 36.55 L-4.85 37.45 Q-5.5 38.5 -5.5 39.1 -5.5 40.45 -3.8 41.25 -2.55 41.9 -1.55 41.9 0.95 41.9 2.65 39.9 4.2 38.1 4.5 35.5 4.8 32.9 3.75 31.1 M-9.7 27.4 Q-12.55 27.4 -14.15 29.9 -15.45 31.9 -15.45 34.1 -15.45 38.45 -13.05 39.9 -11.8 40.65 -10.5 40.55 -7.95 40.55 -6.5 37.95 -5.35 35.9 -5.35 33.4 -5.35 31.45 -6.4 29.6 -7.65 27.4 -9.7 27.4" fill="#391b0d" fill-rule="evenodd" stroke="none"/>
    <path d="M-10.25 2.55 L-9.7 3.05 Q-8.5 4.4 -7.65 6.05 L-7.6 6.75 Q-7.6 10.85 -9.2 13.55 -10.9 16.45 -13.8 16.45 -16.3 16.45 -17.4 15.35 -18.2 14.55 -18.2 13.35 -18.2 7.5 -16.05 4.7 -14.0 2.0 -10.25 2.55 M6.8 30.6 Q7.7 29.75 8.95 29.75 13.1 29.75 12.6 35.15 12.05 40.55 8.5 40.55 L6.7 40.25 Q5.05 39.75 5.05 38.55 L5.4 36.8 Q5.75 35.15 5.9 32.55 6.0 31.4 6.8 30.6 M0.9 31.2 Q0.2 30.75 -0.6 30.75 -2.15 30.75 -2.5 31.6 L-2.9 34.25 Q-3.2 36.8 -3.6 37.85 L-4.15 39.2 -3.5 39.75 -2.45 40.0 Q-0.45 40.0 0.95 38.2 2.25 36.5 2.25 34.35 2.25 32.1 0.9 31.2 M3.75 31.1 Q4.8 32.9 4.5 35.5 4.2 38.1 2.65 39.9 0.95 41.9 -1.55 41.9 -2.55 41.9 -3.8 41.25 -5.5 40.45 -5.5 39.1 -5.5 38.5 -4.85 37.45 L-4.25 36.55 Q-3.85 35.1 -3.85 33.25 -3.85 29.1 0.2 29.1 2.6 29.1 3.75 31.1 M7.7 31.3 L6.95 31.65 7.2 34.45 Q7.2 35.3 6.25 38.15 L6.7 38.7 Q7.2 39.05 7.85 39.05 10.35 39.05 10.7 35.15 11.05 31.2 8.55 31.2 L7.7 31.3 M-11.3 6.2 Q-12.35 5.2 -13.75 5.25 -17.4 5.5 -17.4 10.75 -17.4 12.65 -16.2 13.7 -15.3 14.5 -14.35 14.5 -12.4 14.5 -11.15 12.45 -10.15 10.8 -10.15 9.05 -10.15 7.3 -11.3 6.2 M-9.7 27.4 Q-7.65 27.4 -6.4 29.6 -5.35 31.45 -5.35 33.4 -5.35 35.9 -6.5 37.95 -7.95 40.55 -10.5 40.55 -11.8 40.65 -13.05 39.9 -15.45 38.45 -15.45 34.1 -15.45 31.9 -14.15 29.9 -12.55 27.4 -9.7 27.4 M-8.6 30.6 Q-9.65 29.2 -11.1 29.2 -12.55 29.2 -13.55 30.6 -14.6 32.0 -14.6 34.0 -14.6 36.0 -13.55 37.4 -12.55 38.8 -11.1 38.8 -9.65 38.8 -8.6 37.4 -7.6 36.0 -7.6 34.0 -7.6 32.0 -8.6 30.6" fill="#512410" fill-rule="evenodd" stroke="none"/>
    <path d="M9.05 34.05 L9.25 35.25 9.05 36.45 8.45 36.95 Q8.1 36.95 7.9 36.45 7.65 35.95 7.65 35.25 7.65 34.55 7.9 34.05 8.1 33.55 8.45 33.55 L9.05 34.05 M-16.1 12.1 L-16.35 11.9 Q-17.3 9.45 -16.1 7.9 -15.2 6.7 -14.1 6.7 -13.5 6.7 -13.45 6.9 L-13.4 7.05 -13.15 8.8 Q-13.25 9.9 -13.95 11.1 -14.65 12.3 -15.25 12.3 L-16.1 12.1 M-2.1 34.0 Q-1.35 32.5 -0.75 32.5 0.25 32.5 -0.25 32.75 L-0.1 33.05 Q0.5 35.05 -0.15 36.6 -0.75 38.0 -1.7 38.0 L-2.4 37.85 -2.45 37.7 Q-2.95 35.8 -2.1 34.0 M-11.0 31.85 Q-10.75 32.25 -10.75 33.9 -10.75 35.55 -11.0 35.95 -11.25 36.35 -12.2 36.35 -13.1 36.35 -13.35 35.95 L-13.6 33.9 -13.35 31.85 Q-13.1 31.45 -12.2 31.45 -11.25 31.45 -11.0 31.85" fill="#8c4020" fill-rule="evenodd" stroke="none"/>
    <path d="M0.9 31.2 Q2.25 32.1 2.25 34.35 2.25 36.5 0.95 38.2 -0.45 40.0 -2.45 40.0 L-3.5 39.75 -4.15 39.2 -3.6 37.85 Q-3.2 36.8 -2.9 34.25 L-2.5 31.6 Q-2.15 30.75 -0.6 30.75 0.2 30.75 0.9 31.2 M7.7 31.3 L8.55 31.2 Q11.05 31.2 10.7 35.15 10.35 39.05 7.85 39.05 7.2 39.05 6.7 38.7 L6.25 38.15 Q7.2 35.3 7.2 34.45 L6.95 31.65 7.7 31.3 M9.05 34.05 L8.45 33.55 Q8.1 33.55 7.9 34.05 7.65 34.55 7.65 35.25 7.65 35.95 7.9 36.45 8.1 36.95 8.45 36.95 L9.05 36.45 9.25 35.25 9.05 34.05 M-16.1 12.1 L-15.25 12.3 Q-14.65 12.3 -13.95 11.1 -13.25 9.9 -13.15 8.8 L-13.4 7.05 -13.45 6.9 Q-13.5 6.7 -14.1 6.7 -15.2 6.7 -16.1 7.9 -17.3 9.45 -16.35 11.9 L-16.1 12.1 M-11.3 6.2 Q-10.15 7.3 -10.15 9.05 -10.15 10.8 -11.15 12.45 -12.4 14.5 -14.35 14.5 -15.3 14.5 -16.2 13.7 -17.4 12.65 -17.4 10.75 -17.4 5.5 -13.75 5.25 -12.35 5.2 -11.3 6.2 M-2.1 34.0 Q-2.95 35.8 -2.45 37.7 L-2.4 37.85 -1.7 38.0 Q-0.75 38.0 -0.15 36.6 0.5 35.05 -0.1 33.05 L-0.25 32.75 Q0.25 32.5 -0.75 32.5 -1.35 32.5 -2.1 34.0 M-8.6 30.6 Q-7.6 32.0 -7.6 34.0 -7.6 36.0 -8.6 37.4 -9.65 38.8 -11.1 38.8 -12.55 38.8 -13.55 37.4 -14.6 36.0 -14.6 34.0 -14.6 32.0 -13.55 30.6 -12.55 29.2 -11.1 29.2 -9.65 29.2 -8.6 30.6 M-11.0 31.85 Q-11.25 31.45 -12.2 31.45 -13.1 31.45 -13.35 31.85 L-13.6 33.9 -13.35 35.95 Q-13.1 36.35 -12.2 36.35 -11.25 36.35 -11.0 35.95 -10.75 35.55 -10.75 33.9 -10.75 32.25 -11.0 31.85" fill="#77351a" fill-rule="evenodd" stroke="none"/>
    <path d="M1.4 -3.2 L7.1 -2.15 Q9.95 0.2 11.8 3.7 12.85 5.65 13.15 7.05 L4.85 7.0 4.95 6.0 4.6 4.7 Q4.6 5.65 2.1 7.0 L0.1 7.0 -0.7 6.8 Q-4.75 5.85 -7.7 4.3 L-8.35 3.5 -7.85 4.9 -7.65 6.05 Q-8.5 4.4 -9.7 3.05 L-10.25 2.55 -9.25 2.75 -10.85 2.0 Q-9.55 1.1 -7.45 0.05 -3.35 -2.05 1.4 -3.2" fill="#493210" fill-rule="evenodd" stroke="none"/>
    <path d="M1.4 -3.2 Q-3.35 -2.05 -7.45 0.05 -9.55 1.1 -10.85 2.0 L-9.25 2.75 -10.25 2.55 Q-10.8 2.2 -11.5 2.0 L-13.8 1.55 Q-11.0 -0.55 -7.05 -2.0 -3.15 -3.4 -0.45 -3.4 L1.4 -3.2 M-7.65 6.05 L-7.85 4.9 -8.35 3.5 -7.7 4.3 Q-4.75 5.85 -0.7 6.8 L0.1 7.0 2.1 7.0 Q4.6 5.65 4.6 4.7 L4.95 6.0 4.85 7.0 13.15 7.05 Q12.85 5.65 11.8 3.7 9.95 0.2 7.1 -2.15 11.15 -0.45 13.15 2.3 14.6 4.3 15.05 7.05 L15.1 9.25 -6.35 7.85 -6.5 8.9 -6.95 7.65 -7.65 6.05" fill="#35240b" fill-rule="evenodd" stroke="none"/>
  </g>
</svg>
