<?xml version="1.0" encoding="UTF-8" standalone="no"?>
<svg xmlns:ffdec="https://www.free-decompiler.com/flash" xmlns:xlink="http://www.w3.org/1999/xlink" ffdec:objectType="shape" height="21.25px" width="39.85px" xmlns="http://www.w3.org/2000/svg">
  <g transform="matrix(1.0, 0.0, 0.0, 1.0, 42.1, -0.1)">
    <path d="M-7.65 10.75 L-8.15 9.8 -8.6 9.2 -8.6 9.15 -9.9 8.0 Q-10.3 9.15 -10.15 10.5 -10.0 11.6 -9.2 12.5 L-9.15 12.55 -8.5 12.75 -7.85 12.3 Q-7.35 11.55 -7.65 10.75 M-12.0 4.2 Q-11.5 3.65 -10.8 3.65 L-9.85 3.9 Q-7.75 4.9 -6.0 6.85 L-5.95 6.85 -5.25 7.85 -5.25 7.8 Q-4.65 8.65 -4.35 9.55 L-4.35 9.6 Q-3.45 12.15 -5.0 14.35 L-5.0 14.3 Q-5.95 15.65 -7.6 16.15 L-7.7 16.15 Q-10.1 16.65 -11.7 14.95 L-11.75 14.9 Q-13.4 13.15 -13.65 10.9 -14.0 7.9 -12.55 5.35 -12.55 4.65 -12.0 4.2" fill="#3e2317" fill-rule="evenodd" stroke="none"/>
    <path d="M-7.65 10.75 Q-7.35 11.55 -7.85 12.3 L-8.5 12.75 -9.15 12.55 -9.2 12.5 Q-10.0 11.6 -10.15 10.5 -10.3 9.15 -9.9 8.0 L-8.6 9.15 -8.6 9.2 -8.15 9.8 -7.65 10.75 M-27.8 11.75 Q-28.1 14.4 -29.3 16.05 L-29.3 16.0 Q-30.4 17.3 -32.1 17.3 -33.75 17.3 -34.85 16.0 -36.15 14.5 -36.15 12.35 -36.15 10.35 -35.0 9.25 -33.55 7.95 -31.4 7.15 L-28.2 6.95 Q-27.5 9.3 -27.8 11.75" fill="#ffe6cc" fill-rule="evenodd" stroke="none"/>
    <path d="M-27.8 11.75 Q-27.5 9.3 -28.2 6.95 L-31.4 7.15 Q-33.55 7.95 -35.0 9.25 -36.15 10.35 -36.15 12.35 -36.15 14.5 -34.85 16.0 -33.75 17.3 -32.1 17.3 -30.4 17.3 -29.3 16.0 L-29.3 16.05 Q-28.1 14.4 -27.8 11.75 M-26.95 17.9 L-27.0 17.95 Q-29.0 20.3 -32.1 20.3 -35.05 20.3 -37.1 17.95 -39.15 15.6 -39.15 12.35 -39.15 8.95 -37.0 7.05 -35.15 5.35 -32.45 4.35 L-32.5 4.35 Q-29.55 3.2 -26.5 4.35 -26.2 4.45 -25.95 4.7 L-25.65 5.25 Q-24.4 8.55 -24.8 12.1 -25.2 15.7 -26.95 17.9" fill="#3d2618" fill-rule="evenodd" stroke="none"/>
    <path d="M-12.0 4.2 Q-12.55 4.65 -12.55 5.35 -14.0 7.9 -13.65 10.9 -13.4 13.15 -11.75 14.9 L-11.7 14.95 Q-10.1 16.65 -7.7 16.15 L-7.6 16.15 Q-5.95 15.65 -5.0 14.3 L-5.0 14.35 Q-3.45 12.15 -4.35 9.6 L-4.35 9.55 Q-4.65 8.65 -5.25 7.8 L-5.25 7.85 -5.95 6.85 -6.0 6.85 Q-7.75 4.9 -9.85 3.9 L-10.8 3.65 Q-11.5 3.65 -12.0 4.2 M-14.2 2.8 Q-12.15 0.25 -9.25 0.25 -6.35 0.25 -4.3 2.8 -2.25 5.35 -2.25 8.9 -2.25 12.5 -4.3 15.05 -6.35 17.55 -9.25 17.55 -12.15 17.55 -14.2 15.05 -16.25 12.5 -16.25 8.9 -16.25 5.35 -14.2 2.8 M-24.2 9.05 L-24.1 10.75 Q-24.1 15.15 -26.75 18.25 -29.35 21.35 -33.1 21.35 -36.8 21.35 -39.5 18.25 -42.1 15.15 -42.1 10.75 -42.1 6.35 -39.5 3.2 -36.8 0.1 -33.1 0.1 -29.35 0.1 -26.75 3.2 -25.3 4.9 -24.65 6.95 -24.35 7.95 -24.2 9.05 M-26.95 17.9 Q-25.2 15.7 -24.8 12.1 -24.4 8.55 -25.65 5.25 L-25.95 4.7 Q-26.2 4.45 -26.5 4.35 -29.55 3.2 -32.5 4.35 L-32.45 4.35 Q-35.15 5.35 -37.0 7.05 -39.15 8.95 -39.15 12.35 -39.15 15.6 -37.1 17.95 -35.05 20.3 -32.1 20.3 -29.0 20.3 -27.0 17.95 L-26.95 17.9" fill="#e7a867" fill-rule="evenodd" stroke="none"/>
  </g>
</svg>
