<?xml version="1.0" encoding="UTF-8" standalone="no"?>
<svg xmlns:ffdec="https://www.free-decompiler.com/flash" xmlns:xlink="http://www.w3.org/1999/xlink" ffdec:objectType="shape" height="56.65px" width="66.0px" xmlns="http://www.w3.org/2000/svg">
  <g transform="matrix(1.0, 0.0, 0.0, 1.0, 33.05, 28.4)">
    <path d="M25.45 -4.35 Q25.45 -6.9 22.4 -12.35 20.95 -16.1 20.15 -17.25 19.35 -18.45 15.75 -18.8 L13.3 -18.55 10.8 -18.0 Q10.55 -24.2 5.8 -26.2 3.0 -27.4 -3.7 -27.4 -10.35 -27.4 -12.3 -22.6 -13.4 -19.9 -12.85 -16.05 -18.15 -17.65 -22.25 -15.2 -25.5 -13.3 -25.5 -11.6 L-26.15 -8.35 Q-26.85 -5.0 -27.35 -4.05 -28.25 -2.35 -28.05 -1.05 L-27.6 0.85 Q-29.45 4.55 -31.15 5.55 -32.05 6.05 -32.05 8.1 -32.05 10.55 -28.75 12.1 -26.9 13.0 -23.15 14.15 -21.5 14.8 -21.35 15.55 L-20.95 17.5 Q-20.45 18.55 -18.8 19.95 L-17.0 21.15 Q-16.0 21.15 -12.35 23.95 L-10.05 25.3 -8.5 25.8 Q-6.9 26.0 -4.25 25.1 -4.25 26.4 -3.1 26.85 L0.25 27.25 Q1.15 27.25 2.95 25.7 4.9 24.0 5.25 22.4 7.15 23.35 8.7 23.35 12.6 23.35 15.8 20.3 L18.95 17.2 Q19.55 17.2 20.1 16.5 L20.85 15.35 Q21.3 14.85 25.75 13.2 30.0 11.05 31.3 9.5 L31.85 8.35 Q32.15 7.1 31.35 6.0 26.35 0.45 25.6 -1.25 25.45 -1.6 25.45 -4.35 M26.45 -4.35 L26.55 -1.65 Q27.25 -0.05 32.1 5.35 L32.15 5.4 Q33.25 6.9 32.85 8.6 L32.0 10.2 32.1 10.15 Q30.7 11.8 26.2 14.1 L26.1 14.15 Q22.1 15.6 21.65 16.0 L20.9 17.1 20.9 17.15 Q20.15 18.05 19.4 18.2 L16.5 21.0 16.5 21.05 Q13.0 24.35 8.7 24.35 7.4 24.35 5.85 23.75 5.2 25.1 3.6 26.45 1.4 28.35 0.25 28.25 L-3.5 27.8 -3.45 27.8 Q-4.6 27.35 -5.0 26.4 L-8.6 26.8 -8.7 26.8 -10.35 26.25 -10.45 26.25 Q-11.8 25.6 -12.95 24.75 -16.2 22.25 -17.0 22.15 -17.5 22.3 -19.4 20.75 L-19.45 20.75 Q-21.3 19.15 -21.85 17.95 L-21.9 17.7 -22.3 15.8 -22.3 15.75 -23.45 15.1 -23.5 15.1 -29.15 13.0 Q-33.15 11.15 -33.05 8.1 -33.05 5.3 -31.6 4.7 L-31.65 4.7 Q-30.25 3.8 -28.65 0.75 L-29.0 -0.85 -29.05 -0.9 Q-29.3 -2.5 -28.2 -4.5 -27.8 -5.4 -27.1 -8.55 L-26.5 -11.6 Q-26.65 -13.8 -22.75 -16.05 -18.9 -18.4 -14.0 -17.35 -14.2 -20.6 -13.2 -22.95 -11.1 -28.4 -3.7 -28.4 3.3 -28.4 6.2 -27.1 11.05 -25.15 11.7 -19.25 L13.15 -19.5 13.15 -19.55 15.75 -19.8 15.85 -19.8 Q20.1 -19.4 21.0 -17.8 21.8 -16.6 23.35 -12.7 L23.3 -12.85 Q26.5 -7.05 26.45 -4.35" fill="#c6c6c6" fill-rule="evenodd" stroke="none"/>
    <path d="M25.45 -4.35 Q25.45 -1.6 25.6 -1.25 26.35 0.45 31.35 6.0 32.15 7.1 31.85 8.35 L31.3 9.5 Q30.0 11.05 25.75 13.2 21.3 14.85 20.85 15.35 L20.1 16.5 Q19.55 17.2 18.95 17.2 L15.8 20.3 Q12.6 23.35 8.7 23.35 7.15 23.35 5.25 22.4 4.9 24.0 2.95 25.7 1.15 27.25 0.25 27.25 L-3.1 26.85 Q-4.25 26.4 -4.25 25.1 -6.9 26.0 -8.5 25.8 L-10.05 25.3 -12.35 23.95 Q-16.0 21.15 -17.0 21.15 L-18.8 19.95 Q-20.45 18.55 -20.95 17.5 L-21.35 15.55 Q-21.5 14.8 -23.15 14.15 -26.9 13.0 -28.75 12.1 -32.05 10.55 -32.05 8.1 -32.05 6.05 -31.15 5.55 -29.45 4.55 -27.6 0.85 L-28.05 -1.05 Q-28.25 -2.35 -27.35 -4.05 -26.85 -5.0 -26.15 -8.35 L-25.5 -11.6 Q-25.5 -13.3 -22.25 -15.2 -18.15 -17.65 -12.85 -16.05 -13.4 -19.9 -12.3 -22.6 -10.35 -27.4 -3.7 -27.4 3.0 -27.4 5.8 -26.2 10.55 -24.2 10.8 -18.0 L13.3 -18.55 15.75 -18.8 Q19.35 -18.45 20.15 -17.25 20.95 -16.1 22.4 -12.35 25.45 -6.9 25.45 -4.35" fill="#ffffff" fill-rule="evenodd" stroke="none"/>
    <path d="M-24.3 1.45 L-24.8 -0.4 -25.15 -1.85 Q-23.9 -4.25 -23.75 -6.1 L-23.4 -9.5 -22.9 -10.3 Q-22.05 -12.0 -20.65 -12.8 -19.0 -13.6 -16.05 -13.6 -13.15 -13.6 -8.45 -10.4 L-9.45 -14.55 -10.1 -17.65 Q-10.1 -24.4 -3.7 -24.4 L3.8 -23.8 Q7.85 -22.35 7.85 -16.8 L7.2 -12.0 Q10.1 -14.5 11.85 -15.2 L15.75 -15.8 Q16.45 -15.8 17.45 -15.0 18.6 -14.1 19.2 -12.7 L21.6 -7.8 Q22.45 -6.1 22.45 -4.35 22.45 -2.9 22.05 -2.15 L21.45 -1.25 20.8 -0.15 19.45 0.8 18.0 1.7 15.8 2.65 13.4 3.2 15.55 4.4 Q15.65 4.0 17.2 5.55 L18.9 7.5 19.4 9.1 19.6 11.0 19.3 12.3 Q18.85 13.25 16.95 14.95 L14.6 17.2 Q12.75 19.5 9.2 20.35 6.75 20.35 4.25 17.85 L3.4 16.9 1.8 14.9 -0.3 11.4 -0.95 15.6 Q-1.25 17.05 -1.95 18.55 L-3.05 20.15 -3.85 21.1 -3.95 21.25 Q-5.7 22.8 -7.45 22.8 -8.45 22.8 -9.55 22.2 L-11.85 20.3 -15.6 18.5 Q-18.7 16.9 -18.5 14.4 L-18.25 12.45 -17.85 11.4 -16.9 9.1 Q-14.95 6.0 -14.15 5.2 L-12.7 3.9 -13.85 4.0 -20.95 3.6 -22.2 3.1 -23.5 2.5 -24.3 1.45 M17.85 -12.95 Q16.1 -14.65 14.2 -14.65 9.9 -14.65 2.1 -3.95 L1.0 -3.7 1.0 -4.25 Q6.35 -8.6 6.35 -16.45 6.35 -20.55 3.85 -22.1 L2.2 -22.55 0.5 -22.8 -0.95 -22.6 -2.75 -22.7 -4.55 -22.9 -6.7 -22.4 -8.15 -21.05 Q-9.05 -19.8 -9.05 -18.3 -9.05 -15.4 -7.45 -11.3 -5.7 -6.75 -3.45 -4.9 L-3.55 -4.1 -4.5 -4.1 Q-6.2 -7.55 -9.85 -9.95 -13.55 -12.45 -17.4 -12.45 L-18.65 -12.1 -20.15 -11.6 Q-21.1 -10.8 -21.85 -9.2 L-22.5 -7.35 Q-22.5 -6.0 -22.9 -5.25 L-23.9 -3.15 Q-24.3 -0.35 -23.0 0.9 -21.3 2.6 -16.05 2.6 L-11.55 1.75 -6.0 0.35 -4.65 0.6 -5.15 1.7 Q-10.15 2.0 -13.9 6.35 -17.25 10.2 -17.25 13.7 -17.25 14.3 -16.15 15.8 -14.75 17.7 -13.0 18.4 -11.9 18.55 -11.35 19.2 -9.9 21.1 -6.75 21.1 -4.2 21.1 -2.55 16.5 -0.7 11.25 -1.4 3.3 L-1.15 2.8 0.05 3.6 -0.05 5.35 Q-0.05 11.4 3.85 15.6 6.95 18.9 9.4 18.9 12.45 18.2 13.8 16.4 L14.35 15.5 14.85 14.8 Q18.35 13.25 18.35 9.95 18.35 7.5 14.55 5.2 10.65 2.9 3.95 1.45 L3.25 0.6 3.55 0.5 Q5.05 1.35 7.05 1.8 L9.9 2.1 Q14.85 2.1 18.05 0.15 20.95 -1.6 20.95 -3.7 L20.65 -5.8 20.25 -7.45 18.85 -10.4 17.85 -12.95" fill="#983b69" fill-rule="evenodd" stroke="none"/>
    <path d="M17.85 -12.95 L15.7 -13.55 14.05 -13.9 Q11.85 -13.9 9.75 -11.85 8.0 -10.15 8.0 -9.35 8.0 -8.85 8.15 -8.65 8.4 -8.15 9.3 -8.15 11.15 -8.15 13.55 -9.35 14.35 -9.35 15.55 -8.0 16.65 -6.75 16.65 -6.2 16.65 -4.25 14.4 -2.95 L10.7 -0.7 Q11.45 0.6 12.85 0.6 15.9 0.6 17.6 -0.8 19.95 -2.7 20.25 -7.45 L20.65 -5.8 20.95 -3.7 Q20.95 -1.6 18.05 0.15 14.85 2.1 9.9 2.1 L7.05 1.8 Q5.05 1.35 3.55 0.5 2.15 -0.15 1.45 -0.55 L10.55 -4.35 Q11.05 -3.95 11.8 -3.95 12.85 -3.95 13.25 -4.75 L13.55 -5.8 Q13.55 -6.65 13.0 -7.15 12.5 -7.7 11.65 -7.7 L10.9 -7.35 Q10.2 -6.8 9.75 -5.85 L0.75 -2.05 2.1 -3.95 Q9.9 -14.65 14.2 -14.65 16.1 -14.65 17.85 -12.95 M-6.7 -22.4 Q-7.65 -20.4 -7.65 -19.15 -7.65 -16.05 -6.75 -14.65 -6.05 -13.65 -5.05 -13.65 -4.0 -13.65 -3.55 -17.1 -3.05 -20.65 -1.3 -20.65 1.25 -20.65 1.5 -16.8 L1.85 -14.15 Q2.25 -12.95 3.4 -12.95 4.0 -12.95 4.3 -13.75 4.75 -15.0 4.75 -18.2 L4.45 -20.4 3.85 -22.1 Q6.35 -20.55 6.35 -16.45 6.35 -8.6 1.0 -4.25 L-0.75 -2.85 -0.7 -8.0 Q-0.6 -13.15 -0.35 -13.25 L0.2 -13.75 0.4 -14.1 0.5 -14.85 Q0.5 -15.65 -0.05 -16.2 -0.55 -16.7 -1.4 -16.7 -2.45 -16.7 -3.0 -15.9 L-3.3 -14.85 Q-3.3 -13.8 -2.4 -13.1 L-2.4 -2.95 -3.45 -4.9 Q-5.7 -6.75 -7.45 -11.3 -9.05 -15.4 -9.05 -18.3 -9.05 -19.8 -8.15 -21.05 L-6.7 -22.4 M14.85 14.8 L15.75 13.35 16.1 11.65 Q16.1 9.7 15.5 8.05 14.6 5.35 12.35 5.35 L11.7 5.5 11.5 5.65 11.35 6.4 12.05 7.15 12.45 7.5 12.35 8.35 Q12.2 9.4 12.3 10.6 12.4 11.85 11.1 12.55 L9.65 13.0 Q8.1 13.0 6.7 12.2 5.55 11.4 5.35 11.4 4.9 11.4 4.6 11.8 4.25 12.2 4.25 12.6 5.2 14.45 7.55 15.75 9.7 16.9 11.6 16.9 L13.8 16.4 Q12.45 18.2 9.4 18.9 6.95 18.9 3.85 15.6 -0.05 11.4 -0.05 5.35 L0.05 3.6 0.05 1.95 6.95 8.7 6.8 9.25 Q7.25 10.35 7.9 10.85 L8.7 11.1 Q9.45 11.1 10.0 10.6 10.55 10.05 10.55 9.25 L10.25 7.85 Q9.6 6.7 8.0 7.5 L1.15 0.9 3.95 1.45 Q10.65 2.9 14.55 5.2 18.35 7.5 18.35 9.95 18.35 13.25 14.85 14.8 M-20.15 -11.6 L-18.65 -12.1 -17.4 -12.45 Q-13.55 -12.45 -9.85 -9.95 -6.2 -7.55 -4.5 -4.1 -3.9 -2.8 -3.85 -2.25 -3.95 -1.9 -13.15 -4.5 L-14.2 -5.55 Q-14.7 -5.95 -15.0 -5.95 -15.8 -5.95 -16.35 -5.45 -16.9 -4.9 -16.9 -4.1 -16.9 -3.3 -16.35 -2.75 -15.8 -2.2 -15.0 -2.2 -14.4 -2.2 -13.55 -2.75 L-4.1 -0.3 -6.0 0.35 -11.55 1.75 -16.05 2.6 Q-21.3 2.6 -23.0 0.9 -24.3 -0.35 -23.9 -3.15 -23.3 -1.6 -21.35 -0.3 -19.3 1.0 -17.1 1.0 L-16.3 0.75 Q-15.95 0.35 -15.95 -0.65 -15.95 -2.25 -17.95 -2.45 -20.0 -2.65 -20.0 -4.75 -20.0 -7.2 -16.65 -7.95 L-14.35 -8.5 Q-13.3 -8.85 -13.3 -9.6 -13.3 -10.7 -14.2 -11.25 -15.35 -11.85 -18.05 -11.85 L-20.15 -11.6 M-1.4 3.3 Q-0.7 11.25 -2.55 16.5 -4.2 21.1 -6.75 21.1 -9.9 21.1 -11.35 19.2 -8.7 20.5 -5.7 18.75 -2.9 17.05 -2.9 14.8 -2.9 14.25 -3.95 13.15 -4.5 13.25 -4.9 14.0 L-5.35 14.85 Q-8.45 16.4 -9.1 16.4 -9.85 16.4 -10.8 15.5 -12.05 14.35 -12.05 12.6 L-11.3 11.5 Q-10.55 10.45 -10.55 9.8 L-10.75 8.85 -11.2 8.35 Q-12.95 8.95 -14.45 10.95 -15.8 12.7 -15.8 13.85 -15.8 14.75 -14.75 16.35 L-13.0 18.4 Q-14.75 17.7 -16.15 15.8 -17.25 14.3 -17.25 13.7 -17.25 10.2 -13.9 6.35 -10.15 2.0 -5.15 1.7 L-3.05 1.3 -7.9 9.65 Q-9.2 9.85 -9.75 10.75 L-10.05 11.5 Q-10.05 12.4 -9.5 12.9 -8.9 13.4 -8.15 13.4 -7.1 13.4 -6.6 12.85 -6.05 12.05 -6.55 10.6 L-1.55 2.1 -1.4 3.3" fill="#ffb4d9" fill-rule="evenodd" stroke="none"/>
    <path d="M20.25 -7.45 Q19.95 -2.7 17.6 -0.8 15.9 0.6 12.85 0.6 11.45 0.6 10.7 -0.7 L14.4 -2.95 Q16.65 -4.25 16.65 -6.2 16.65 -6.75 15.55 -8.0 14.35 -9.35 13.55 -9.35 11.15 -8.15 9.3 -8.15 8.4 -8.15 8.15 -8.65 8.0 -8.85 8.0 -9.35 8.0 -10.15 9.75 -11.85 11.85 -13.9 14.05 -13.9 L15.7 -13.55 17.85 -12.95 18.85 -10.4 20.25 -7.45 M3.85 -22.1 L4.45 -20.4 4.75 -18.2 Q4.75 -15.0 4.3 -13.75 4.0 -12.95 3.4 -12.95 2.25 -12.95 1.85 -14.15 L1.5 -16.8 Q1.25 -20.65 -1.3 -20.65 -3.05 -20.65 -3.55 -17.1 -4.0 -13.65 -5.05 -13.65 -6.05 -13.65 -6.75 -14.65 -7.65 -16.05 -7.65 -19.15 -7.65 -20.4 -6.7 -22.4 L-4.55 -22.9 -2.75 -22.7 -0.95 -22.6 0.5 -22.8 2.2 -22.55 3.85 -22.1 M13.8 16.4 L11.6 16.9 Q9.7 16.9 7.55 15.75 5.2 14.45 4.25 12.6 4.25 12.2 4.6 11.8 4.9 11.4 5.35 11.4 5.55 11.4 6.7 12.2 8.1 13.0 9.65 13.0 L11.1 12.55 Q12.4 11.85 12.3 10.6 12.2 9.4 12.35 8.35 L12.45 7.5 12.05 7.15 11.35 6.4 11.5 5.65 11.7 5.5 12.35 5.35 Q14.6 5.35 15.5 8.05 16.1 9.7 16.1 11.65 L15.75 13.35 14.85 14.8 14.35 15.5 13.8 16.4 M-23.9 -3.15 L-22.9 -5.25 Q-22.5 -6.0 -22.5 -7.35 L-21.85 -9.2 Q-21.1 -10.8 -20.15 -11.6 L-18.05 -11.85 Q-15.35 -11.85 -14.2 -11.25 -13.3 -10.7 -13.3 -9.6 -13.3 -8.85 -14.35 -8.5 L-16.65 -7.95 Q-20.0 -7.2 -20.0 -4.75 -20.0 -2.65 -17.95 -2.45 -15.95 -2.25 -15.95 -0.65 -15.95 0.35 -16.3 0.75 L-17.1 1.0 Q-19.3 1.0 -21.35 -0.3 -23.3 -1.6 -23.9 -3.15 M-11.35 19.2 Q-11.9 18.55 -13.0 18.4 L-14.75 16.35 Q-15.8 14.75 -15.8 13.85 -15.8 12.7 -14.45 10.95 -12.95 8.95 -11.2 8.35 L-10.75 8.85 -10.55 9.8 Q-10.55 10.45 -11.3 11.5 L-12.05 12.6 Q-12.05 14.35 -10.8 15.5 -9.85 16.4 -9.1 16.4 -8.45 16.4 -5.35 14.85 L-4.9 14.0 Q-4.5 13.25 -3.95 13.15 -2.9 14.25 -2.9 14.8 -2.9 17.05 -5.7 18.75 -8.7 20.5 -11.35 19.2" fill="#ffe0ef" fill-rule="evenodd" stroke="none"/>
    <path d="M2.1 -3.95 L0.75 -2.05 9.75 -5.85 Q10.2 -6.8 10.9 -7.35 L11.65 -7.7 Q12.5 -7.7 13.0 -7.15 13.55 -6.65 13.55 -5.8 L13.25 -4.75 Q12.85 -3.95 11.8 -3.95 11.05 -3.95 10.55 -4.35 L1.45 -0.55 Q2.15 -0.15 3.55 0.5 L3.25 0.6 3.95 1.45 1.15 0.9 8.0 7.5 Q9.6 6.7 10.25 7.85 L10.55 9.25 Q10.55 10.05 10.0 10.6 9.45 11.1 8.7 11.1 L7.9 10.85 Q7.25 10.35 6.8 9.25 L6.95 8.7 0.05 1.95 0.05 3.6 -1.15 2.8 -1.4 3.3 -1.55 2.1 -6.55 10.6 Q-6.05 12.05 -6.6 12.85 -7.1 13.4 -8.15 13.4 -8.9 13.4 -9.5 12.9 -10.05 12.4 -10.05 11.5 L-9.75 10.75 Q-9.2 9.85 -7.9 9.65 L-3.05 1.3 -5.15 1.7 -4.65 0.6 -6.0 0.35 -4.1 -0.3 -13.55 -2.75 Q-14.4 -2.2 -15.0 -2.2 -15.8 -2.2 -16.35 -2.75 -16.9 -3.3 -16.9 -4.1 -16.9 -4.9 -16.35 -5.45 -15.8 -5.95 -15.0 -5.95 -14.7 -5.95 -14.2 -5.55 L-13.15 -4.5 Q-3.95 -1.9 -3.85 -2.25 -3.9 -2.8 -4.5 -4.1 L-3.55 -4.1 -3.45 -4.9 -2.4 -2.95 -2.4 -13.1 Q-3.3 -13.8 -3.3 -14.85 L-3.0 -15.9 Q-2.45 -16.7 -1.4 -16.7 -0.55 -16.7 -0.05 -16.2 0.5 -15.65 0.5 -14.85 L0.4 -14.1 0.2 -13.75 -0.35 -13.25 Q-0.6 -13.15 -0.7 -8.0 L-0.75 -2.85 1.0 -4.25 1.0 -3.7 2.1 -3.95" fill="#cb4c8b" fill-rule="evenodd" stroke="none"/>
    <path d="M-24.3 1.45 L-23.5 2.5 -27.65 7.75 Q-24.05 9.8 -17.85 11.4 L-18.25 12.45 -21.2 11.6 -24.35 10.55 Q-27.55 9.6 -28.6 8.75 L-29.05 8.1 -28.95 7.6 -28.9 7.6 -24.3 1.45 M-3.85 21.1 L-3.05 20.15 -0.6 22.85 3.4 16.9 4.25 17.85 Q2.25 22.0 0.65 23.45 -0.05 24.2 -0.6 24.2 L-1.05 24.15 -1.05 24.05 -3.85 21.1 M19.3 12.3 L19.6 11.0 27.55 7.75 Q23.25 2.05 20.8 -0.15 L21.45 -1.25 Q24.15 1.25 26.15 4.0 L28.9 7.75 28.9 7.65 28.95 7.95 Q28.95 8.7 24.15 10.6 L19.3 12.3" fill="#0b4f27" fill-rule="evenodd" stroke="none"/>
    <path d="M-23.5 2.5 L-22.2 3.1 -20.95 3.6 -19.9 4.55 -21.3 5.75 Q-22.6 6.6 -22.95 7.25 L-22.8 7.95 -20.9 7.95 Q-19.8 7.95 -18.55 7.35 L-17.15 6.65 -16.9 9.1 -17.85 11.4 Q-24.05 9.8 -27.65 7.75 L-23.5 2.5 M-3.05 20.15 L-1.95 18.55 Q-0.4 19.25 -0.05 18.75 L1.8 14.9 3.4 16.9 -0.6 22.85 -3.05 20.15 M19.6 11.0 L19.4 9.1 18.9 7.5 21.9 7.15 Q22.65 6.7 22.7 5.6 L18.0 1.7 19.45 0.8 20.8 -0.15 Q23.25 2.05 27.55 7.75 L19.6 11.0" fill="#44c979" fill-rule="evenodd" stroke="none"/>
    <path d="M-20.95 3.6 L-13.85 4.0 -12.7 3.9 -14.15 5.2 Q-14.95 6.0 -16.9 9.1 L-17.15 6.65 -18.55 7.35 Q-19.8 7.95 -20.9 7.95 L-22.8 7.95 -22.95 7.25 Q-22.6 6.6 -21.3 5.75 L-19.9 4.55 -20.95 3.6 M-1.95 18.55 Q-1.25 17.05 -0.95 15.6 L-0.3 11.4 1.8 14.9 -0.05 18.75 Q-0.4 19.25 -1.95 18.55 M18.9 7.5 L17.2 5.55 Q15.65 4.0 15.55 4.4 L13.4 3.2 15.8 2.65 18.0 1.7 22.7 5.6 Q22.65 6.7 21.9 7.15 L18.9 7.5" fill="#329a5c" fill-rule="evenodd" stroke="none"/>
  </g>
</svg>
