<?xml version="1.0" encoding="UTF-8" standalone="no"?>
<svg xmlns:ffdec="https://www.free-decompiler.com/flash" xmlns:xlink="http://www.w3.org/1999/xlink" ffdec:objectType="shape" height="101.0px" width="115.6px" xmlns="http://www.w3.org/2000/svg">
  <g transform="matrix(1.0, 0.0, 0.0, 1.0, 54.8, 46.3)">
    <path d="M32.2 -40.65 Q30.4 -39.15 29.75 -39.15 26.75 -39.65 24.7 -39.25 20.85 -38.5 19.75 -33.75 L18.25 -27.0 17.5 -20.15 Q17.0 -15.85 17.0 -13.3 L17.5 -0.35 Q17.5 1.75 18.0 6.05 L18.5 12.5 Q18.5 17.05 16.25 23.1 15.25 25.75 14.15 27.35 L3.5 27.15 -10.9 26.35 Q-14.1 24.3 -14.1 21.65 L-11.85 3.95 Q-9.65 -12.95 -9.65 -27.45 L-9.6 -29.35 Q-9.6 -31.65 -10.15 -33.5 -11.9 -39.5 -17.95 -39.5 -20.3 -39.5 -21.85 -38.9 -23.4 -38.3 -24.3 -38.3 -26.5 -38.3 -26.75 -39.65 L-26.8 -39.95 -27.9 -39.1 Q-26.25 -40.75 -21.85 -42.05 L-21.1 -41.3 -18.75 -41.0 -2.35 -41.0 0.55 -41.25 4.0 -41.45 7.3 -41.5 10.05 -41.4 Q11.75 -41.35 12.6 -40.8 L20.6 -40.75 24.1 -40.5 Q24.95 -40.5 27.2 -42.05 L30.6 -41.15 32.2 -40.65 M3.25 -8.5 Q2.2 -8.6 1.65 -7.9 1.25 -7.4 1.25 -6.7 1.5 -5.6 2.25 -5.6 3.4 -5.6 3.4 -7.8 L3.25 -8.5 M12.0 -5.4 Q12.0 -7.25 10.4 -7.2 8.75 -7.2 8.75 -5.05 L8.75 -4.25 Q8.9 -3.5 9.75 -3.5 10.75 -3.5 11.45 -4.25 12.0 -4.85 12.0 -5.4 M6.4 -14.15 Q6.4 -16.0 4.7 -16.0 3.0 -16.0 3.0 -13.55 2.9 -13.05 3.05 -12.5 3.35 -11.5 4.75 -11.5 5.6 -11.5 6.05 -12.6 6.4 -13.35 6.4 -14.15 M13.1 -16.2 Q13.1 -17.0 12.65 -17.2 L11.0 -17.3 11.0 -16.25 11.1 -15.45 Q11.3 -15.1 12.1 -15.1 13.1 -15.1 13.1 -16.2 M11.6 -23.8 Q11.6 -25.1 10.75 -25.05 9.9 -25.05 9.9 -23.9 L10.0 -22.65 10.1 -22.55 10.7 -22.5 Q11.3 -22.5 11.5 -22.8 L11.6 -23.8 M1.55 -26.9 Q1.55 -30.5 -1.3 -30.35 -4.15 -30.2 -4.15 -27.8 -4.15 -26.95 -3.45 -26.0 -2.55 -24.75 -1.1 -24.75 0.15 -24.75 0.9 -25.6 1.55 -26.25 1.55 -26.9 M10.6 -33.15 Q10.6 -35.35 8.55 -35.4 6.5 -35.45 6.5 -33.55 L6.5 -32.85 Q6.8 -32.25 8.3 -32.25 10.6 -32.25 10.6 -33.15 M40.55 34.7 L43.45 35.2 Q58.95 38.1 59.3 40.95 L59.3 41.0 56.75 41.0 55.4 40.8 47.0 40.8 40.75 41.35 40.7 41.35 41.2 40.85 41.4 40.3 41.4 40.25 41.4 40.15 41.4 40.05 41.4 40.0 41.45 39.8 Q40.8 37.25 40.55 34.7 M13.75 53.2 L2.65 52.95 Q-20.9 52.15 -37.5 49.1 L-42.9 48.0 -42.15 43.5 -37.5 44.45 Q-20.85 47.5 2.8 48.3 L14.15 48.55 13.75 53.2 M-45.3 33.75 L-37.55 32.6 -36.9 32.5 -33.95 32.2 -34.95 36.55 -40.15 35.5 -45.9 33.9 -45.3 33.75 M13.5 15.2 Q13.5 12.9 12.15 12.75 10.75 12.6 10.75 14.8 L10.75 15.75 Q11.05 16.75 12.85 16.75 13.5 16.75 13.5 15.2 M6.5 23.25 Q6.5 20.6 5.0 20.7 3.5 20.8 3.5 22.9 L3.5 23.75 Q3.7 24.65 4.8 24.65 6.5 24.65 6.5 23.25 M5.75 12.0 Q5.75 10.05 4.55 10.05 3.3 10.1 3.3 11.55 3.75 12.65 4.8 12.65 L5.65 12.5 5.75 12.0 M2.25 1.3 Q2.25 -2.1 -0.25 -2.25 -2.75 -2.4 -2.75 0.25 L-2.45 1.75 Q-1.75 3.0 0.55 3.0 1.55 3.0 2.0 2.25 L2.25 1.3 M10.75 3.2 Q10.75 0.4 8.3 0.05 5.8 -0.25 5.8 2.15 5.85 3.1 6.25 4.05 6.95 6.05 8.5 6.05 9.6 6.05 10.25 5.0 10.75 4.15 10.75 3.2 M-0.25 -37.25 Q-0.25 -38.2 -1.4 -38.5 -2.6 -38.75 -2.6 -37.7 L-2.45 -37.1 -2.15 -36.8 -3.75 -36.8 -3.85 -35.9 -3.75 -35.15 Q-3.4 -34.5 -2.1 -34.5 -1.35 -34.5 -0.75 -35.65 -0.25 -36.65 -0.25 -37.25 M-0.75 22.75 Q-1.4 21.95 -2.55 21.65 -3.9 21.3 -3.9 22.65 L-3.75 23.2 Q-3.45 23.85 -2.5 23.85 -2.2 23.85 -1.65 23.5 L-0.75 22.75 M-0.5 16.55 Q-0.5 11.4 -3.9 11.65 -7.35 11.9 -7.35 16.4 L-7.25 17.55 Q-6.45 18.6 -3.1 18.6 -1.75 18.6 -1.0 17.65 -0.5 17.05 -0.5 16.55 M-5.5 5.3 Q-5.5 3.2 -6.8 3.55 -8.15 3.9 -8.15 5.5 L-8.15 6.35 Q-8.0 7.1 -6.85 7.1 -5.85 7.1 -5.6 6.35 L-5.5 5.3 M-0.25 -10.25 Q-0.25 -12.6 -1.75 -12.35 -3.25 -12.05 -3.25 -10.55 L-3.0 -9.85 Q-2.6 -9.1 -1.75 -9.1 -0.25 -9.1 -0.25 -10.25 M-2.65 -19.0 Q-2.65 -20.65 -4.05 -20.65 -5.5 -20.65 -5.5 -19.35 -5.5 -18.05 -3.6 -18.05 L-3.0 -18.25 Q-2.65 -18.55 -2.65 -19.0" fill="#481c33" fill-rule="evenodd" stroke="none"/>
    <path d="M27.2 -42.05 Q24.95 -40.5 24.1 -40.5 L20.6 -40.75 12.6 -40.8 Q11.75 -41.35 10.05 -41.4 L7.3 -41.5 4.0 -41.45 0.55 -41.25 -2.35 -41.0 -18.75 -41.0 -21.1 -41.3 -21.85 -42.05 -21.5 -42.15 -18.9 -42.85 Q-8.55 -45.2 5.95 -44.7 18.1 -44.3 27.2 -42.05 M59.3 41.05 L59.2 43.45 Q58.2 44.15 56.55 44.7 L56.45 44.75 56.35 44.8 56.25 44.8 56.05 44.9 55.95 44.9 55.85 44.95 55.75 44.95 55.65 45.0 52.65 45.65 52.5 45.35 52.05 44.3 43.1 45.65 Q26.4 47.6 2.85 46.8 -20.7 46.0 -37.25 42.95 -45.95 41.35 -49.95 39.7 L-50.4 39.5 -50.85 40.9 -52.8 39.9 -52.95 39.85 -53.0 39.8 -53.15 39.7 -53.2 39.65 -53.1 37.25 Q-53.0 38.05 -51.55 38.9 L-50.25 38.8 -38.0 38.8 -34.0 39.25 Q-31.5 40.9 -23.7 42.25 -12.7 44.1 2.9 44.65 18.5 45.2 29.6 44.05 L35.1 43.3 43.25 43.3 48.8 43.95 52.3 44.25 52.35 44.25 53.2 44.05 55.5 43.45 56.0 43.3 Q59.05 42.2 59.3 41.05" fill="#6c2b4e" fill-rule="evenodd" stroke="none"/>
    <path d="M36.9 -38.7 L34.45 -39.8 32.2 -40.65 30.6 -41.15 27.2 -42.05 Q18.1 -44.3 5.95 -44.7 -8.55 -45.2 -18.9 -42.85 L-21.5 -42.15 -21.85 -42.05 Q-26.25 -40.75 -27.9 -39.1 L-28.25 -38.75 -28.6 -38.2 -28.8 -37.75 -28.8 -37.65 -28.85 -37.6 -28.9 -37.3 -28.7 -35.45 -28.55 -33.9 -28.45 -32.65 Q-26.3 -6.6 -29.6 20.1 L-29.8 21.6 -29.95 22.75 -30.0 23.0 Q-29.05 23.85 -23.1 24.85 L-22.8 24.9 -20.65 25.25 -19.3 25.45 -15.35 25.9 -10.9 26.35 3.5 27.15 14.15 27.35 17.5 27.35 21.6 27.2 24.3 27.1 27.75 26.85 Q36.1 26.2 37.25 25.3 L37.15 25.05 37.1 23.9 37.05 22.4 Q35.9 -6.4 40.2 -34.85 L40.2 -34.9 Q40.2 -36.25 38.6 -37.55 L36.9 -38.7 M-31.15 20.65 Q-27.5 -8.6 -30.4 -37.15 L-30.4 -37.25 -30.4 -37.35 Q-30.4 -41.75 -19.25 -44.3 -8.7 -46.7 6.0 -46.2 20.7 -45.7 31.05 -42.6 42.0 -39.25 41.7 -34.85 L41.7 -34.75 41.7 -34.65 Q37.35 -5.95 38.6 23.05 L38.7 24.7 38.7 24.95 38.5 25.5 38.1 25.7 Q36.6 27.2 27.8 27.9 17.75 28.65 3.5 28.15 L-20.8 26.2 Q-29.5 24.95 -30.9 23.4 L-31.25 23.1 -31.4 22.55 -31.35 22.25 -31.15 20.65 M40.4 33.15 L43.7 33.75 Q60.7 36.85 60.8 40.85 L60.8 40.9 60.8 41.05 60.8 41.15 60.8 41.3 60.6 47.15 Q60.6 51.3 43.0 53.35 26.25 55.25 2.6 54.45 -21.05 53.65 -37.75 50.6 -55.1 47.4 -54.8 43.25 L-54.6 37.4 -54.6 37.25 -54.6 37.15 -54.6 37.0 -54.6 36.95 Q-54.2 32.95 -37.05 31.0 L-33.7 30.65 -33.95 32.2 -36.9 32.5 -37.55 32.6 -45.3 33.75 Q-52.7 35.2 -53.1 37.15 L-53.1 37.25 -53.2 39.65 -53.3 43.35 Q-53.2 44.75 -49.45 46.15 -47.0 47.05 -42.9 48.0 L-37.5 49.1 Q-20.9 52.15 2.65 52.95 L13.75 53.2 39.0 52.2 42.85 51.8 43.55 51.75 47.05 51.3 Q58.9 49.55 59.1 47.1 L59.2 43.45 59.3 41.05 59.3 41.0 59.3 40.95 Q58.95 38.1 43.45 35.2 L40.55 34.7 40.4 33.15" fill="#1f0c16" fill-rule="evenodd" stroke="none"/>
    <path d="M-31.15 20.65 L-31.35 22.25 -31.85 22.85 -31.85 22.95 -31.85 23.0 -31.8 24.0 Q-31.8 27.25 -32.2 30.5 L-32.4 32.05 Q-32.9 34.75 -33.7 37.5 -33.55 38.25 -30.95 39.1 L-30.75 39.15 -26.9 40.15 -25.75 40.4 -25.8 40.35 -23.45 40.8 -22.5 40.95 -21.7 41.1 -21.4 41.15 0.9 43.1 9.5 43.3 10.5 43.35 14.7 43.35 15.25 43.35 15.95 43.35 24.65 43.0 26.35 42.9 29.45 42.6 Q39.4 41.55 39.9 40.05 39.25 37.25 39.0 34.45 L38.85 32.9 Q38.65 29.65 39.0 26.4 L39.05 25.35 39.05 25.25 38.7 24.7 38.6 23.05 Q40.5 23.95 40.6 25.05 L40.55 25.3 40.55 25.4 40.55 25.5 Q40.15 29.3 40.4 33.15 L40.55 34.7 Q40.8 37.25 41.45 39.8 L41.4 40.0 41.4 40.05 41.4 40.15 41.4 40.25 41.4 40.3 41.2 40.85 40.7 41.35 40.75 41.35 Q39.3 42.5 35.1 43.3 L29.6 44.05 Q18.5 45.2 2.9 44.65 -12.7 44.1 -23.7 42.25 -31.5 40.9 -34.0 39.25 -35.15 38.5 -35.2 37.65 L-35.2 37.55 -35.2 37.45 -35.2 37.4 -35.15 37.25 -34.95 36.55 -33.95 32.2 -33.7 30.65 Q-33.2 26.8 -33.35 23.0 L-33.35 22.95 -33.35 22.8 Q-33.35 21.6 -31.15 20.65" fill="#743c05" fill-rule="evenodd" stroke="none"/>
    <path d="M-31.35 22.25 L-31.4 22.55 -31.25 23.1 -30.9 23.4 Q-29.5 24.95 -20.8 26.2 L3.5 28.15 Q17.75 28.65 27.8 27.9 36.6 27.2 38.1 25.7 L38.5 25.5 38.7 24.95 38.7 24.7 39.05 25.25 39.05 25.35 39.0 26.4 Q36.8 27.8 29.1 28.6 L26.7 28.85 25.5 28.95 16.9 29.35 15.9 29.4 3.45 29.25 Q-10.4 28.8 -20.45 27.2 L-20.45 27.15 -21.4 27.0 -21.75 26.95 -22.1 26.9 Q-26.45 26.1 -29.0 25.3 L-31.35 24.3 -31.5 24.2 -31.8 24.0 -31.85 23.0 -31.85 22.95 -31.85 22.85 -31.35 22.25" fill="#fffd91" fill-rule="evenodd" stroke="none"/>
    <path d="M15.9 29.4 Q15.15 32.1 15.0 34.25 L14.85 36.65 14.6 38.85 Q14.85 41.45 11.75 41.65 L-1.6 41.25 -9.35 40.7 -13.7 40.4 -18.1 40.1 Q-20.95 39.9 -20.9 37.75 L-20.65 35.15 -20.4 29.55 -20.45 27.2 Q-10.4 28.8 3.45 29.25 L15.9 29.4 M11.75 35.85 L11.1 36.45 10.7 37.25 Q10.7 37.95 11.7 37.95 12.6 37.95 12.6 36.8 12.7 35.85 11.75 35.85 M11.85 32.55 Q11.85 30.8 10.15 31.0 8.45 31.25 8.45 33.05 L8.55 33.85 Q8.9 34.55 10.05 34.55 11.0 34.55 11.5 33.65 L11.85 32.55 M19.5 32.1 Q19.6 34.05 17.9 34.05 16.75 34.05 16.45 33.2 L16.35 32.35 Q16.35 30.85 17.95 30.55 19.5 30.2 19.5 32.1 M2.4 38.6 Q2.4 37.25 1.2 37.6 -0.05 37.95 -0.05 38.8 L0.05 39.5 Q0.3 40.2 1.3 40.2 2.55 40.2 2.4 38.6 M9.3 39.0 Q9.3 37.6 8.15 37.85 6.95 38.05 6.95 39.35 L7.05 39.95 Q7.35 40.5 8.2 40.5 9.3 40.5 9.3 39.0 M6.9 35.75 Q6.9 33.3 5.4 33.3 3.9 33.25 3.9 36.15 3.9 37.5 5.2 37.5 6.1 37.5 6.6 36.75 L6.9 35.75 M4.7 31.6 Q4.7 30.55 3.7 30.4 2.7 30.3 2.7 31.3 L2.75 31.8 Q2.9 32.25 3.7 32.25 4.7 32.25 4.7 31.6 M2.7 34.4 Q2.7 31.5 0.45 31.25 -1.8 31.0 -1.8 33.45 L-1.5 34.85 Q-0.95 36.2 0.45 36.2 1.6 36.2 2.25 35.4 L2.7 34.4 M20.15 38.1 Q20.15 40.55 18.8 40.55 17.8 40.55 17.15 39.45 16.65 38.7 16.65 38.3 16.65 36.95 18.4 36.95 20.15 36.95 20.15 38.1 M23.4 33.35 Q23.4 34.2 22.35 34.2 21.8 34.2 21.6 33.7 L21.45 33.2 Q21.45 32.15 22.45 32.1 23.4 32.05 23.4 33.35 M22.65 37.75 Q22.65 38.4 22.0 38.4 21.45 38.4 21.45 37.9 21.45 36.95 22.05 37.0 22.65 37.0 22.65 37.75 M-22.2 29.95 Q-22.2 30.6 -23.35 30.6 -24.2 30.6 -24.5 30.0 L-24.6 29.45 Q-24.6 28.15 -23.4 28.3 -22.2 28.45 -22.2 29.95 M-26.25 32.35 L-26.3 32.7 -26.9 32.85 Q-27.95 32.85 -27.95 32.05 -27.95 31.05 -27.1 30.95 -26.25 30.85 -26.25 32.35 M-23.15 36.2 Q-23.15 36.8 -23.3 37.05 -23.6 37.55 -24.6 37.55 -26.25 37.55 -26.1 36.2 -26.1 34.85 -24.6 34.8 -23.15 34.75 -23.15 36.2 M-1.65 38.2 Q-1.65 35.45 -4.1 35.45 -6.6 35.45 -6.6 37.75 -6.6 39.2 -5.3 39.7 L-4.05 39.85 -4.2 39.8 -4.05 39.8 Q-1.65 39.75 -1.65 38.2 M-12.45 38.2 Q-12.45 37.15 -13.35 37.6 -14.25 38.0 -14.25 38.55 -14.25 39.3 -12.95 39.3 L-12.6 38.95 -12.45 38.2 M-12.9 32.95 Q-12.9 31.25 -14.55 31.6 -16.2 32.0 -16.2 33.4 -15.8 35.1 -14.7 35.1 -14.0 35.1 -13.4 34.15 -12.9 33.35 -12.9 32.95 M-17.55 37.2 Q-17.55 36.2 -18.3 36.15 -19.05 36.1 -19.05 36.95 -19.1 38.1 -18.3 38.1 -17.55 38.1 -17.55 37.2 M-16.65 30.8 Q-16.65 29.05 -17.7 29.6 -18.8 30.2 -18.8 30.8 -18.55 31.7 -18.0 31.7 -16.65 31.7 -16.65 30.8 M-7.5 35.75 Q-7.5 33.3 -9.5 33.4 -11.55 33.55 -11.55 35.85 L-11.55 37.0 Q-11.35 38.1 -10.2 38.1 -8.3 38.1 -7.7 37.1 L-7.5 35.75 M-2.75 32.2 Q-2.75 30.25 -5.05 29.95 -7.35 29.65 -7.35 31.2 L-7.2 32.9 Q-6.7 34.55 -5.15 34.55 -3.7 34.55 -3.1 33.55 -2.75 33.0 -2.75 32.2 M-9.3 29.85 Q-10.8 29.85 -10.8 30.85 L-10.7 31.6 Q-10.45 32.3 -9.4 32.3 -8.25 32.3 -8.25 31.25 L-8.4 30.55 Q-8.65 29.85 -9.3 29.85" fill="#eec433" fill-rule="evenodd" stroke="none"/>
    <path d="M43.65 47.15 L43.25 47.2 39.05 47.65 14.15 48.55 2.8 48.3 Q-20.85 47.5 -37.5 44.45 L-42.15 43.5 Q-46.4 42.55 -49.1 41.6 L-49.65 41.4 -50.5 41.05 -50.85 40.9 -50.4 39.5 -49.95 39.7 Q-45.95 41.35 -37.25 42.95 -20.7 46.0 2.85 46.8 26.4 47.6 43.1 45.65 L52.05 44.3 52.5 45.35 52.65 45.65 49.3 46.4 47.45 46.65 47.45 46.7 43.65 47.15" fill="#bb598d" fill-rule="evenodd" stroke="none"/>
    <path d="M-29.0 25.3 L-29.9 33.75 -30.25 36.65 -30.2 36.1 -29.85 37.5 Q-29.0 39.1 -26.35 40.15 L-25.8 40.35 -25.75 40.4 -26.9 40.15 -30.75 39.15 -30.95 39.1 Q-33.55 38.25 -33.7 37.5 -32.9 34.75 -32.4 32.05 L-32.2 30.5 Q-31.8 27.25 -31.8 24.0 L-31.5 24.2 -31.35 24.3 -29.0 25.3 M10.5 43.35 L11.15 43.25 21.65 41.85 Q23.65 41.35 24.35 40.05 L24.45 39.75 24.45 39.7 Q24.45 37.0 24.9 33.0 L24.95 32.55 25.05 31.8 25.5 28.95 26.7 28.85 29.1 28.6 Q36.8 27.8 39.0 26.4 38.65 29.65 38.85 32.9 L39.0 34.45 Q39.25 37.25 39.9 40.05 39.4 41.55 29.45 42.6 L26.35 42.9 24.65 43.0 15.95 43.35 15.25 43.35 14.7 43.35 10.5 43.35 M37.65 31.3 Q37.65 29.4 35.95 29.7 34.2 30.05 34.2 31.7 34.2 32.35 34.35 32.6 L35.25 33.6 36.2 33.6 Q37.65 32.7 37.65 31.3 M30.3 34.05 Q28.6 34.05 28.1 34.5 27.8 34.8 27.8 35.65 L28.05 36.6 Q28.55 37.55 29.8 37.55 31.05 37.55 31.4 36.6 L31.55 35.3 Q31.75 34.05 30.3 34.05 M28.2 40.0 Q28.2 38.8 27.4 38.95 26.6 39.1 26.6 40.05 L26.65 40.35 27.6 40.65 28.0 40.4 28.2 40.0 M29.45 31.05 Q29.45 29.8 28.5 29.95 27.5 30.15 27.5 30.95 L27.55 31.5 Q27.8 32.1 28.5 32.1 29.45 32.1 29.45 31.05 M34.95 39.35 Q34.95 38.05 33.95 37.7 32.9 37.4 32.9 38.75 L32.95 39.3 Q33.15 39.9 33.95 39.9 L34.7 39.8 34.95 39.35" fill="#b77215" fill-rule="evenodd" stroke="none"/>
    <path d="M15.9 29.4 L16.9 29.35 25.5 28.95 25.05 31.8 24.95 32.55 24.9 33.0 Q24.45 37.0 24.45 39.7 L24.45 39.75 24.35 40.05 Q23.65 41.35 21.65 41.85 L11.15 43.25 10.5 43.35 9.5 43.3 0.9 43.1 -21.4 41.15 -21.7 41.1 -22.5 40.95 -23.45 40.8 -25.8 40.35 -26.35 40.15 Q-29.0 39.1 -29.85 37.5 L-30.2 36.1 -30.25 36.65 -29.9 33.75 -29.0 25.3 Q-26.45 26.1 -22.1 26.9 L-21.75 26.95 -21.4 27.0 -20.45 27.15 -20.45 27.2 -20.4 29.55 -20.65 35.15 -20.9 37.75 Q-20.95 39.9 -18.1 40.1 L-13.7 40.4 -9.35 40.7 -1.6 41.25 11.75 41.65 Q14.85 41.45 14.6 38.85 L14.85 36.65 15.0 34.25 Q15.15 32.1 15.9 29.4 M19.5 32.1 Q19.5 30.2 17.95 30.55 16.35 30.85 16.35 32.35 L16.45 33.2 Q16.75 34.05 17.9 34.05 19.6 34.05 19.5 32.1 M20.15 38.1 Q20.15 36.95 18.4 36.95 16.65 36.95 16.65 38.3 16.65 38.7 17.15 39.45 17.8 40.55 18.8 40.55 20.15 40.55 20.15 38.1 M30.3 34.05 Q31.75 34.05 31.55 35.3 L31.4 36.6 Q31.05 37.55 29.8 37.55 28.55 37.55 28.05 36.6 L27.8 35.65 Q27.8 34.8 28.1 34.5 28.6 34.05 30.3 34.05 M37.65 31.3 Q37.65 32.7 36.2 33.6 L35.25 33.6 34.35 32.6 Q34.2 32.35 34.2 31.7 34.2 30.05 35.95 29.7 37.65 29.4 37.65 31.3 M23.4 33.35 Q23.4 32.05 22.45 32.1 21.45 32.15 21.45 33.2 L21.6 33.7 Q21.8 34.2 22.35 34.2 23.4 34.2 23.4 33.35 M29.45 31.05 Q29.45 32.1 28.5 32.1 27.8 32.1 27.55 31.5 L27.5 30.95 Q27.5 30.15 28.5 29.95 29.45 29.8 29.45 31.05 M28.2 40.0 L28.0 40.4 27.6 40.65 26.65 40.35 26.6 40.05 Q26.6 39.1 27.4 38.95 28.2 38.8 28.2 40.0 M22.65 37.75 Q22.65 37.0 22.05 37.0 21.45 36.95 21.45 37.9 21.45 38.4 22.0 38.4 22.65 38.4 22.65 37.75 M34.95 39.35 L34.7 39.8 33.95 39.9 Q33.15 39.9 32.95 39.3 L32.9 38.75 Q32.9 37.4 33.95 37.7 34.95 38.05 34.95 39.35 M-23.15 36.2 Q-23.15 34.75 -24.6 34.8 -26.1 34.85 -26.1 36.2 -26.25 37.55 -24.6 37.55 -23.6 37.55 -23.3 37.05 -23.15 36.8 -23.15 36.2 M-26.25 32.35 Q-26.25 30.85 -27.1 30.95 -27.95 31.05 -27.95 32.05 -27.95 32.85 -26.9 32.85 L-26.3 32.7 -26.25 32.35 M-22.2 29.95 Q-22.2 28.45 -23.4 28.3 -24.6 28.15 -24.6 29.45 L-24.5 30.0 Q-24.2 30.6 -23.35 30.6 -22.2 30.6 -22.2 29.95" fill="#d5981a" fill-rule="evenodd" stroke="none"/>
    <path d="M11.85 32.55 L11.5 33.65 Q11.0 34.55 10.05 34.55 8.9 34.55 8.55 33.85 L8.45 33.05 Q8.45 31.25 10.15 31.0 11.85 30.8 11.85 32.55 M11.75 35.85 Q12.7 35.85 12.6 36.8 12.6 37.95 11.7 37.95 10.7 37.95 10.7 37.25 L11.1 36.45 11.75 35.85 M2.7 34.4 L2.25 35.4 Q1.6 36.2 0.45 36.2 -0.95 36.2 -1.5 34.85 L-1.8 33.45 Q-1.8 31.0 0.45 31.25 2.7 31.5 2.7 34.4 M4.7 31.6 Q4.7 32.25 3.7 32.25 2.9 32.25 2.75 31.8 L2.7 31.3 Q2.7 30.3 3.7 30.4 4.7 30.55 4.7 31.6 M6.9 35.75 L6.6 36.75 Q6.1 37.5 5.2 37.5 3.9 37.5 3.9 36.15 3.9 33.25 5.4 33.3 6.9 33.3 6.9 35.75 M9.3 39.0 Q9.3 40.5 8.2 40.5 7.35 40.5 7.05 39.95 L6.95 39.35 Q6.95 38.05 8.15 37.85 9.3 37.6 9.3 39.0 M2.4 38.6 Q2.55 40.2 1.3 40.2 0.3 40.2 0.05 39.5 L-0.05 38.8 Q-0.05 37.95 1.2 37.6 2.4 37.25 2.4 38.6 M-9.3 29.85 Q-8.65 29.85 -8.4 30.55 L-8.25 31.25 Q-8.25 32.3 -9.4 32.3 -10.45 32.3 -10.7 31.6 L-10.8 30.85 Q-10.8 29.85 -9.3 29.85 M-2.75 32.2 Q-2.75 33.0 -3.1 33.55 -3.7 34.55 -5.15 34.55 -6.7 34.55 -7.2 32.9 L-7.35 31.2 Q-7.35 29.65 -5.05 29.95 -2.75 30.25 -2.75 32.2 M-7.5 35.75 L-7.7 37.1 Q-8.3 38.1 -10.2 38.1 -11.35 38.1 -11.55 37.0 L-11.55 35.85 Q-11.55 33.55 -9.5 33.4 -7.5 33.3 -7.5 35.75 M-16.65 30.8 Q-16.65 31.7 -18.0 31.7 -18.55 31.7 -18.8 30.8 -18.8 30.2 -17.7 29.6 -16.65 29.05 -16.65 30.8 M-17.55 37.2 Q-17.55 38.1 -18.3 38.1 -19.1 38.1 -19.05 36.95 -19.05 36.1 -18.3 36.15 -17.55 36.2 -17.55 37.2 M-12.9 32.95 Q-12.9 33.35 -13.4 34.15 -14.0 35.1 -14.7 35.1 -15.8 35.1 -16.2 33.4 -16.2 32.0 -14.55 31.6 -12.9 31.25 -12.9 32.95 M-12.45 38.2 L-12.6 38.95 -12.95 39.3 Q-14.25 39.3 -14.25 38.55 -14.25 38.0 -13.35 37.6 -12.45 37.15 -12.45 38.2 M-1.65 38.2 Q-1.65 39.75 -4.05 39.8 L-4.2 39.8 -4.05 39.85 -5.3 39.7 Q-6.6 39.2 -6.6 37.75 -6.6 35.45 -4.1 35.45 -1.65 35.45 -1.65 38.2" fill="#f9ee71" fill-rule="evenodd" stroke="none"/>
    <path d="M32.2 -40.65 L34.45 -39.8 36.9 -38.7 36.0 -36.25 Q35.55 -35.3 32.65 -34.1 29.5 -32.8 28.65 -31.75 25.55 -27.85 25.45 -21.7 26.0 -14.55 25.9 -11.1 L25.9 -0.75 Q25.85 5.35 25.25 9.4 25.35 11.15 25.05 14.6 L24.75 19.75 Q23.85 24.55 21.6 27.2 L17.5 27.35 14.15 27.35 Q15.25 25.75 16.25 23.1 18.5 17.05 18.5 12.5 L18.0 6.05 Q17.5 1.75 17.5 -0.35 L17.0 -13.3 Q17.0 -15.85 17.5 -20.15 L18.25 -27.0 19.75 -33.75 Q20.85 -38.5 24.7 -39.25 26.75 -39.65 29.75 -39.15 30.4 -39.15 32.2 -40.65 M-27.9 -39.1 L-26.8 -39.95 -26.75 -39.65 Q-26.5 -38.3 -24.3 -38.3 -23.4 -38.3 -21.85 -38.9 -20.3 -39.5 -17.95 -39.5 -11.9 -39.5 -10.15 -33.5 -9.6 -31.65 -9.6 -29.35 L-9.65 -27.45 Q-9.65 -12.95 -11.85 3.95 L-14.1 21.65 Q-14.1 24.3 -10.9 26.35 L-15.35 25.9 -19.3 25.45 -19.45 25.3 Q-21.75 22.85 -22.0 21.5 -22.75 16.7 -22.75 14.9 L-21.25 2.5 Q-19.75 -11.0 -19.75 -20.4 -19.75 -26.2 -20.75 -28.8 -22.75 -33.95 -28.7 -35.45 L-28.9 -37.3 -28.85 -37.6 -28.8 -37.65 -28.8 -37.75 -28.6 -38.2 -28.25 -38.75 -27.9 -39.1 M47.05 51.3 L43.55 51.75 43.65 47.15 47.45 46.7 Q47.0 49.1 47.0 51.0 L47.05 51.3 M39.0 52.2 L13.75 53.2 14.15 48.55 39.05 47.65 39.0 52.05 39.0 52.2 M-42.9 48.0 Q-47.0 47.05 -49.45 46.15 L-49.1 41.6 Q-46.4 42.55 -42.15 43.5 L-42.9 48.0" fill="#381628" fill-rule="evenodd" stroke="none"/>
    <path d="M21.6 27.2 Q23.85 24.55 24.75 19.75 L25.05 14.6 Q25.35 11.15 25.25 9.4 25.85 5.35 25.9 -0.75 L25.9 -11.1 Q26.0 -14.55 25.45 -21.7 25.55 -27.85 28.65 -31.75 29.5 -32.8 32.65 -34.1 35.55 -35.3 36.0 -36.25 L36.9 -38.7 38.6 -37.55 Q40.2 -36.25 40.2 -34.9 L40.2 -34.85 Q35.9 -6.4 37.05 22.4 L37.1 23.9 37.15 25.05 37.25 25.3 Q36.1 26.2 27.75 26.85 L24.3 27.1 21.6 27.2 M59.2 43.45 L59.1 47.1 Q58.9 49.55 47.05 51.3 L47.0 51.0 Q47.0 49.1 47.45 46.7 L47.45 46.65 49.3 46.4 52.65 45.65 55.65 45.0 55.75 44.95 55.85 44.95 55.95 44.9 56.05 44.9 56.25 44.8 56.35 44.8 56.45 44.75 56.55 44.7 Q58.2 44.15 59.2 43.45 M43.55 51.75 L42.85 51.8 39.0 52.2 39.0 52.05 39.05 47.65 43.25 47.2 43.65 47.15 43.55 51.75 M-49.45 46.15 Q-53.2 44.75 -53.3 43.35 L-53.2 39.65 -53.15 39.7 -53.0 39.8 -52.95 39.85 -52.8 39.9 -50.85 40.9 -50.5 41.05 -49.65 41.4 -49.1 41.6 -49.45 46.15 M-19.3 25.45 L-20.65 25.25 -22.8 24.9 -23.1 24.85 Q-29.05 23.85 -30.0 23.0 L-29.95 22.75 -29.8 21.6 -29.6 20.1 Q-26.3 -6.6 -28.45 -32.65 L-28.55 -33.9 -28.7 -35.45 Q-22.75 -33.95 -20.75 -28.8 -19.75 -26.2 -19.75 -20.4 -19.75 -11.0 -21.25 2.5 L-22.75 14.9 Q-22.75 16.7 -22.0 21.5 -21.75 22.85 -19.45 25.3 L-19.3 25.45" fill="#29101e" fill-rule="evenodd" stroke="none"/>
    <path d="M10.6 -33.15 Q10.6 -32.25 8.3 -32.25 6.8 -32.25 6.5 -32.85 L6.5 -33.55 Q6.5 -35.45 8.55 -35.4 10.6 -35.35 10.6 -33.15 M1.55 -26.9 Q1.55 -26.25 0.9 -25.6 0.15 -24.75 -1.1 -24.75 -2.55 -24.75 -3.45 -26.0 -4.15 -26.95 -4.15 -27.8 -4.15 -30.2 -1.3 -30.35 1.55 -30.5 1.55 -26.9 M11.6 -23.8 L11.5 -22.8 Q11.3 -22.5 10.7 -22.5 L10.1 -22.55 10.0 -22.65 9.9 -23.9 Q9.9 -25.05 10.75 -25.05 11.6 -25.1 11.6 -23.8 M13.1 -16.2 Q13.1 -15.1 12.1 -15.1 11.3 -15.1 11.1 -15.45 L11.0 -16.25 11.0 -17.3 12.65 -17.2 Q13.1 -17.0 13.1 -16.2 M6.4 -14.15 Q6.4 -13.35 6.05 -12.6 5.6 -11.5 4.75 -11.5 3.35 -11.5 3.05 -12.5 2.9 -13.05 3.0 -13.55 3.0 -16.0 4.7 -16.0 6.4 -16.0 6.4 -14.15 M12.0 -5.4 Q12.0 -4.85 11.45 -4.25 10.75 -3.5 9.75 -3.5 8.9 -3.5 8.75 -4.25 L8.75 -5.05 Q8.75 -7.2 10.4 -7.2 12.0 -7.25 12.0 -5.4 M3.25 -8.5 L3.4 -7.8 Q3.4 -5.6 2.25 -5.6 1.5 -5.6 1.25 -6.7 1.25 -7.4 1.65 -7.9 2.2 -8.6 3.25 -8.5 M59.3 41.0 L59.3 41.05 Q59.05 42.2 56.0 43.3 L55.5 43.45 53.2 44.05 52.35 44.25 52.3 44.25 48.8 43.95 43.25 43.3 35.1 43.3 Q39.3 42.5 40.75 41.35 L47.0 40.8 55.4 40.8 56.75 41.0 59.3 41.0 M-53.1 37.25 L-53.1 37.15 Q-52.7 35.2 -45.3 33.75 L-45.9 33.9 -40.15 35.5 -34.95 36.55 -35.15 37.25 -35.2 37.4 -35.2 37.45 -35.2 37.55 -35.2 37.65 Q-35.15 38.5 -34.0 39.25 L-38.0 38.8 -50.25 38.8 -51.55 38.9 Q-53.0 38.05 -53.1 37.25 M10.75 3.2 Q10.75 4.15 10.25 5.0 9.6 6.05 8.5 6.05 6.95 6.05 6.25 4.05 5.85 3.1 5.8 2.15 5.8 -0.25 8.3 0.05 10.75 0.4 10.75 3.2 M2.25 1.3 L2.0 2.25 Q1.55 3.0 0.55 3.0 -1.75 3.0 -2.45 1.75 L-2.75 0.25 Q-2.75 -2.4 -0.25 -2.25 2.25 -2.1 2.25 1.3 M5.75 12.0 L5.65 12.5 4.8 12.65 Q3.75 12.65 3.3 11.55 3.3 10.1 4.55 10.05 5.75 10.05 5.75 12.0 M6.5 23.25 Q6.5 24.65 4.8 24.65 3.7 24.65 3.5 23.75 L3.5 22.9 Q3.5 20.8 5.0 20.7 6.5 20.6 6.5 23.25 M13.5 15.2 Q13.5 16.75 12.85 16.75 11.05 16.75 10.75 15.75 L10.75 14.8 Q10.75 12.6 12.15 12.75 13.5 12.9 13.5 15.2 M-0.25 -37.25 Q-0.25 -36.65 -0.75 -35.65 -1.35 -34.5 -2.1 -34.5 -3.4 -34.5 -3.75 -35.15 L-3.85 -35.9 -3.75 -36.8 -2.15 -36.8 -2.45 -37.1 -2.6 -37.7 Q-2.6 -38.75 -1.4 -38.5 -0.25 -38.2 -0.25 -37.25 M-2.65 -19.0 Q-2.65 -18.55 -3.0 -18.25 L-3.6 -18.05 Q-5.5 -18.05 -5.5 -19.35 -5.5 -20.65 -4.05 -20.65 -2.65 -20.65 -2.65 -19.0 M-0.25 -10.25 Q-0.25 -9.1 -1.75 -9.1 -2.6 -9.1 -3.0 -9.85 L-3.25 -10.55 Q-3.25 -12.05 -1.75 -12.35 -0.25 -12.6 -0.25 -10.25 M-5.5 5.3 L-5.6 6.35 Q-5.85 7.1 -6.85 7.1 -8.0 7.1 -8.15 6.35 L-8.15 5.5 Q-8.15 3.9 -6.8 3.55 -5.5 3.2 -5.5 5.3 M-0.5 16.55 Q-0.5 17.05 -1.0 17.65 -1.75 18.6 -3.1 18.6 -6.45 18.6 -7.25 17.55 L-7.35 16.4 Q-7.35 11.9 -3.9 11.65 -0.5 11.4 -0.5 16.55 M-0.75 22.75 L-1.65 23.5 Q-2.2 23.85 -2.5 23.85 -3.45 23.85 -3.75 23.2 L-3.9 22.65 Q-3.9 21.3 -2.55 21.65 -1.4 21.95 -0.75 22.75" fill="#58233f" fill-rule="evenodd" stroke="none"/>
  </g>
</svg>
