<?xml version="1.0" encoding="UTF-8" standalone="no"?>
<svg xmlns:ffdec="https://www.free-decompiler.com/flash" xmlns:xlink="http://www.w3.org/1999/xlink" ffdec:objectType="shape" height="265.0px" width="340.0px" xmlns="http://www.w3.org/2000/svg">
  <g transform="matrix(1.0, 0.0, 0.0, 1.0, 0.0, -1.0)">
    <path d="M1.0 265.0 L339.0 265.0 339.0 2.0 1.0 2.0 1.0 265.0 M340.0 1.0 L340.0 266.0 0.0 266.0 0.0 1.0 340.0 1.0" fill="#ef9a9a" fill-rule="evenodd" stroke="none"/>
    <path d="M1.0 265.0 L1.0 2.0 339.0 2.0 339.0 265.0 1.0 265.0" fill="#ffffff" fill-rule="evenodd" stroke="none"/>
    <path d="M34.5 86.0 L305.45 86.0 Q315.6 86.0 322.75 93.15 329.4 99.8 329.9 109.0 L329.95 134.45 329.95 142.0 329.95 142.95 Q329.4 152.2 322.75 158.8 315.6 166.0 305.45 166.0 L34.5 166.0 Q24.35 166.0 17.15 158.8 10.55 152.2 10.05 142.95 L10.0 142.95 10.0 142.0 10.0 134.45 10.05 109.0 Q10.55 99.8 17.15 93.15 24.35 86.0 34.5 86.0" fill="#f6f6f6" fill-rule="evenodd" stroke="none"/>
  </g>
</svg>
