<?xml version="1.0" encoding="UTF-8" standalone="no"?>
<svg xmlns:ffdec="https://www.free-decompiler.com/flash" xmlns:xlink="http://www.w3.org/1999/xlink" ffdec:objectType="shape" height="75.85px" width="109.95px" xmlns="http://www.w3.org/2000/svg">
  <g transform="matrix(1.0, 0.0, 0.0, 1.0, 41.7, 29.9)">
    <path d="M11.85 -18.35 L16.0 -14.15 19.65 -13.7 Q20.7 -12.75 21.9 -12.45 L23.3 -12.3 Q26.55 -10.4 27.9 -8.75 L30.25 -5.25 31.45 -7.25 32.15 -8.95 34.1 -5.6 33.05 -4.7 33.2 -4.45 33.15 -3.9 Q33.15 -2.65 35.55 -2.3 39.85 -1.65 43.35 0.0 44.45 2.3 46.5 3.2 48.05 3.9 50.9 3.95 L50.8 4.2 49.2 5.9 46.5 4.1 Q45.25 3.35 43.9 3.35 43.3 3.35 43.15 3.7 L43.1 4.05 48.05 6.95 Q44.4 5.7 42.85 5.7 41.35 5.7 40.7 6.55 41.9 7.95 44.55 10.05 L43.1 10.05 Q41.95 9.8 40.7 10.75 L41.05 11.45 Q43.9 9.95 47.35 14.85 50.75 19.7 50.45 24.6 50.1 30.45 53.25 33.6 56.5 36.75 62.65 36.6 L61.95 36.5 Q64.0 36.65 65.7 36.45 L65.35 37.2 Q64.65 38.0 63.55 38.3 L60.65 38.55 Q53.7 38.55 51.1 35.3 50.6 34.6 49.5 31.05 L48.45 27.25 48.8 23.55 Q48.85 21.55 47.3 19.85 L44.5 17.95 42.45 16.9 Q41.85 16.9 41.7 17.15 L41.6 17.7 Q46.65 19.9 47.15 22.65 L43.3 20.5 Q40.95 19.4 40.7 19.4 L39.8 19.6 39.6 20.05 Q41.45 22.45 41.95 24.2 L42.2 26.4 41.65 33.1 Q41.4 36.1 42.6 39.7 40.5 37.85 40.5 34.6 40.5 26.15 40.1 24.8 39.95 24.2 39.5 24.0 L38.55 23.5 37.4 22.2 37.0 21.5 36.9 21.55 35.95 22.8 35.2 24.0 Q35.45 21.7 35.1 21.0 33.65 21.7 33.15 22.6 32.7 23.4 32.7 24.9 32.7 26.8 33.55 29.1 L34.35 31.1 Q34.35 33.1 33.3 34.6 L30.2 37.4 Q31.55 36.35 32.2 34.8 32.75 33.6 32.75 32.45 32.75 29.9 31.35 27.6 29.95 25.35 29.95 24.5 29.95 24.0 31.15 22.45 32.3 20.9 32.3 19.9 L32.05 19.2 31.5 19.2 30.65 20.45 29.5 17.35 Q28.95 15.9 27.6 14.9 L27.25 14.95 27.1 17.5 Q27.05 19.45 26.7 20.35 26.6 19.35 25.95 17.5 L25.3 15.65 25.5 14.65 25.4 14.3 Q22.15 15.7 22.6 19.85 23.0 24.2 20.2 25.75 21.95 23.7 21.95 21.9 L21.6 16.15 22.65 10.25 22.5 9.45 22.1 9.2 22.05 8.8 Q20.9 8.8 18.9 9.85 16.85 10.95 16.75 11.6 L16.45 14.25 Q16.25 15.55 15.9 15.85 L15.65 12.5 Q15.65 12.15 16.75 9.35 L17.85 6.55 17.75 5.7 17.65 5.6 17.4 5.55 Q16.65 5.85 14.85 8.65 15.15 7.5 15.15 4.55 L13.8 4.35 Q13.1 4.45 12.9 5.0 L13.35 5.4 Q13.7 5.75 13.7 6.35 13.7 8.4 12.15 10.6 9.7 13.95 4.4 15.75 7.05 14.75 9.5 11.05 11.95 7.3 11.3 5.0 L11.15 4.4 Q10.15 4.9 9.3 5.75 L9.25 5.55 Q8.2 5.65 5.7 7.45 3.4 9.15 -1.2 9.15 L-5.45 7.5 -8.15 8.25 -11.35 9.0 Q-12.6 9.0 -14.15 8.2 -15.75 7.35 -17.1 5.85 L-9.45 6.15 -6.75 5.9 Q-6.75 4.5 -7.75 3.25 -8.65 2.2 -10.05 1.5 -12.0 -0.6 -14.7 -0.6 L-18.3 -0.15 Q-21.5 0.05 -21.9 -1.15 L-22.35 -3.7 Q-22.45 -5.0 -22.65 -5.25 L-23.55 -4.65 -24.0 -4.25 Q-26.7 -7.8 -27.75 -8.65 -29.15 -9.75 -31.55 -9.75 -34.85 -9.75 -36.75 -8.4 -38.75 -7.05 -38.9 -4.5 L-39.5 -5.15 Q-39.2 -8.1 -37.2 -9.9 -35.05 -11.85 -31.45 -11.85 -29.45 -11.85 -27.25 -11.05 -24.5 -10.05 -23.4 -8.25 -19.65 -2.2 -9.95 -2.4 L-9.05 -2.55 -9.0 -3.15 Q-10.35 -4.8 -14.45 -7.7 L-19.05 -10.95 Q-11.85 -8.45 -10.9 -8.3 -11.75 -8.15 -12.45 -7.2 L-8.85 -5.5 Q-6.4 -4.0 -6.45 -2.05 -6.5 2.7 -5.5 4.4 -4.1 6.9 0.5 6.9 6.1 6.9 7.7 3.8 L7.55 3.5 7.05 3.35 Q4.95 4.75 3.65 5.1 L0.35 5.4 Q-3.1 5.4 -3.85 3.55 -4.7 -0.5 -6.15 -4.95 -5.3 -2.5 -3.9 -0.65 -1.2 3.0 3.85 3.0 6.45 3.0 6.45 1.95 6.45 1.45 6.9 0.25 L7.35 -1.5 Q7.35 -2.1 7.15 -2.1 L6.65 -2.05 6.95 -2.8 6.6 -3.65 Q4.5 -2.85 3.5 -2.85 2.7 -2.85 1.35 -4.0 L-2.95 -7.8 Q-1.2 -8.0 -1.2 -8.6 -5.25 -9.8 -7.15 -12.3 -8.6 -14.2 -8.6 -16.55 -8.6 -17.95 -7.6 -20.2 -7.5 -16.3 -4.5 -13.15 -1.05 -9.45 4.35 -9.45 L6.6 -9.8 Q10.9 -9.5 11.4 -9.8 11.75 -10.0 11.55 -10.75 10.45 -11.35 5.7 -12.75 L10.5 -12.6 Q12.35 -12.7 13.2 -13.35 L12.8 -13.6 11.55 -13.65 Q12.35 -15.95 11.85 -18.35 M44.7 37.7 L46.3 39.5 48.0 41.3 46.5 41.25 Q45.55 40.45 45.1 39.1 L44.7 37.7 M6.7 9.9 L8.0 7.95 8.95 6.6 6.7 9.9 M-6.15 -7.2 L-4.75 -6.65 -3.65 -6.15 -6.15 -7.2 M26.05 -6.8 Q26.5 -8.5 23.5 -10.2 20.8 -11.7 18.45 -11.7 16.0 -11.7 13.1 -9.5 10.15 -7.35 7.8 -7.35 7.3 -7.35 6.7 -7.8 L5.6 -8.25 4.8 -8.0 4.7 -7.5 Q5.9 -4.7 9.35 -2.7 12.2 -1.05 13.95 -1.05 14.8 -1.05 18.05 -2.2 L21.8 -3.35 Q22.1 -3.35 23.05 -2.75 23.6 -2.45 24.6 -3.25 L24.55 -3.6 Q24.25 -4.05 23.1 -4.55 L21.8 -4.95 17.75 -3.75 14.1 -2.55 Q13.0 -2.55 11.1 -3.4 L8.85 -4.55 Q12.05 -4.1 15.65 -5.45 L19.25 -6.95 Q20.75 -6.95 25.5 -5.4 L26.2 -5.5 26.25 -5.8 26.05 -6.8 M34.4 16.5 Q30.3 14.65 29.25 10.1 28.2 5.7 25.6 4.7 L26.85 3.3 26.7 3.1 26.25 3.0 22.35 3.75 19.9 3.4 18.2 2.1 19.15 2.1 Q23.05 2.15 24.6 0.65 25.4 -0.15 25.85 -1.55 L25.8 -1.8 23.15 -0.3 Q21.35 0.75 19.8 0.75 L18.2 0.6 Q17.0 0.55 16.35 1.2 17.6 3.6 21.3 4.65 L25.7 5.9 Q26.55 6.55 27.35 9.3 L28.1 12.35 Q28.45 14.25 32.05 16.55 35.6 18.75 38.05 18.75 39.25 18.75 39.45 18.05 36.05 15.4 36.05 13.55 L37.6 10.0 39.15 6.45 Q39.15 4.1 37.85 2.4 36.4 0.45 33.7 -0.15 L30.85 -1.05 28.75 -1.6 27.9 -1.35 27.75 -0.9 Q30.0 0.15 30.65 2.65 31.0 4.05 30.95 7.6 30.8 14.55 34.4 16.5 M37.1 -13.95 Q36.85 -12.95 36.85 -11.1 36.85 -9.95 37.6 -9.8 L40.1 -12.05 Q42.95 -14.15 46.25 -14.15 L49.15 -13.95 Q49.85 -13.1 52.0 -11.85 53.9 -10.75 54.45 -10.75 L54.05 -10.7 52.05 -10.4 Q51.25 -10.4 49.4 -11.3 47.6 -12.2 46.0 -12.2 43.25 -12.2 42.3 -10.15 L41.3 -6.35 Q38.5 -6.95 35.3 -6.3 L35.25 -8.0 Q35.25 -10.3 37.1 -13.95 M44.55 -2.0 L47.2 -2.6 49.9 -3.05 52.7 -2.5 Q52.25 -0.6 54.9 2.55 53.4 2.0 50.8 0.2 48.8 -1.1 47.45 -1.1 46.4 -1.1 44.8 -0.35 L44.55 -2.0 M45.25 -6.25 L43.55 -5.2 Q43.55 -5.65 44.05 -5.95 L45.25 -6.25 M-1.65 15.45 L1.35 15.15 Q1.0 15.35 0.6 15.5 L-1.65 15.45 M-36.9 4.8 Q-35.9 2.2 -32.7 0.4 -29.8 -1.25 -26.85 -1.35 -26.6 -1.15 -26.6 -2.15 -26.6 -4.65 -30.45 -4.9 L-26.7 -5.2 Q-25.1 -4.95 -25.1 -2.85 -25.1 -0.45 -26.6 1.05 -28.0 2.45 -29.9 2.45 L-32.95 2.05 Q-35.15 2.35 -36.15 6.3 L-36.85 5.0 -36.9 4.8 M-7.35 -9.05 L-12.7 -10.75 Q-16.65 -12.1 -16.65 -13.4 L-16.15 -14.6 -15.15 -16.5 Q-12.9 -13.45 -10.4 -12.2 -9.55 -11.8 -8.15 -10.55 -6.85 -9.4 -5.65 -8.95 L-6.45 -9.05 -7.35 -9.05 M-27.2 4.55 L-25.4 2.45 Q-24.7 3.5 -22.0 4.9 -18.8 6.55 -17.55 7.6 -19.7 8.85 -23.15 12.45 -26.75 15.45 -31.95 15.45 L-33.2 15.35 Q-28.75 14.45 -26.95 11.95 L-23.4 5.65 Q-23.9 5.3 -25.35 4.9 L-27.2 4.55 M-26.45 6.45 L-26.4 6.0 -26.25 6.2 -26.45 6.45" fill="#311f11" fill-rule="evenodd" stroke="none"/>
    <path d="M11.85 -18.35 Q11.55 -19.35 10.05 -21.45 L10.8 -21.2 14.25 -19.3 15.9 -17.65 16.2 -17.25 17.2 -16.1 18.2 -15.05 19.65 -13.7 16.0 -14.15 11.85 -18.35 M23.3 -12.3 L28.1 -11.55 Q30.75 -10.8 32.15 -8.95 L31.45 -7.25 30.25 -5.25 27.9 -8.75 Q26.55 -10.4 23.3 -12.3 M33.2 -4.45 L33.3 -4.4 33.5 -4.35 36.0 -4.95 38.75 -5.55 Q42.0 -5.55 42.65 -3.5 L43.35 0.0 Q39.85 -1.65 35.55 -2.3 33.15 -2.65 33.15 -3.9 L33.2 -4.45 M48.05 6.95 Q54.6 11.85 54.6 17.85 L54.1 21.85 53.6 25.85 Q53.6 30.05 56.7 33.25 59.1 35.7 61.95 36.5 L62.65 36.6 Q56.5 36.75 53.25 33.6 50.1 30.45 50.45 24.6 50.75 19.7 47.35 14.85 43.9 9.95 41.05 11.45 L40.7 10.75 Q41.95 9.8 43.1 10.05 L44.55 10.05 Q41.9 7.95 40.7 6.55 41.35 5.7 42.85 5.7 44.4 5.7 48.05 6.95 M47.15 22.65 Q47.6 24.7 45.95 28.5 44.1 32.75 44.1 34.3 44.1 35.8 44.7 37.7 L45.1 39.1 Q45.55 40.45 46.5 41.25 44.15 40.7 42.6 39.7 41.4 36.1 41.65 33.1 L42.2 26.4 41.95 24.2 Q41.45 22.45 39.6 20.05 L39.8 19.6 40.7 19.4 Q40.95 19.4 43.3 20.5 L47.15 22.65 M35.2 24.0 L35.1 24.7 Q35.3 26.05 36.05 28.75 L36.75 31.35 Q36.75 35.7 33.5 37.25 31.8 38.05 29.4 37.95 L30.2 37.4 33.3 34.6 Q34.35 33.1 34.35 31.1 L33.55 29.1 Q32.7 26.8 32.7 24.9 32.7 23.4 33.15 22.6 33.65 21.7 35.1 21.0 35.45 21.7 35.2 24.0 M30.65 20.45 Q29.75 22.5 26.9 24.15 L26.7 20.35 Q27.05 19.45 27.1 17.5 L27.25 14.95 27.6 14.9 Q28.95 15.9 29.5 17.35 L30.65 20.45 M20.2 25.75 L17.1 26.65 Q19.15 25.75 19.95 24.6 20.7 23.65 20.7 22.25 L19.3 18.05 Q17.85 14.3 17.85 13.4 17.85 12.45 19.05 11.3 20.2 10.15 22.1 9.2 L22.5 9.45 22.65 10.25 21.6 16.15 21.95 21.9 Q21.95 23.7 20.2 25.75 M15.9 15.85 L14.9 17.85 14.3 15.9 Q13.95 14.7 13.95 14.05 13.95 12.95 14.85 8.65 16.65 5.85 17.4 5.55 L17.65 5.6 17.75 5.7 17.85 6.55 16.75 9.35 Q15.65 12.15 15.65 12.5 L15.9 15.85 M4.4 15.75 Q-2.05 16.8 -3.55 15.75 -4.0 14.7 -4.6 14.15 L-2.3 14.6 Q4.4 14.6 6.7 9.9 L8.95 6.6 9.15 6.35 9.3 6.3 9.3 5.75 Q10.15 4.9 11.15 4.4 L11.3 5.0 Q11.95 7.3 9.5 11.05 7.05 14.75 4.4 15.75 M-17.1 5.85 Q-17.85 5.05 -21.65 3.1 -24.35 1.7 -24.35 -0.45 -24.35 -1.45 -24.15 -1.5 L-23.75 -0.65 Q-22.75 0.25 -20.7 0.85 L-18.45 1.35 -13.85 1.0 Q-12.6 1.15 -11.9 1.7 -11.3 2.25 -10.45 2.25 L-9.9 2.2 -10.15 2.1 -10.05 1.5 Q-8.65 2.2 -7.75 3.25 -6.75 4.5 -6.75 5.9 L-9.45 6.15 -17.1 5.85 M-39.5 -5.15 L-39.95 -6.0 -40.2 -7.1 Q-40.2 -10.0 -37.15 -12.4 -33.6 -15.15 -28.05 -15.15 -24.5 -15.15 -22.8 -13.7 -19.9 -11.35 -19.05 -10.95 L-14.45 -7.7 Q-10.35 -4.8 -9.0 -3.15 L-9.05 -2.55 -9.95 -2.4 Q-19.65 -2.2 -23.4 -8.25 -24.5 -10.05 -27.25 -11.05 -29.45 -11.85 -31.45 -11.85 -35.05 -11.85 -37.2 -9.9 -39.2 -8.1 -39.5 -5.15 M-6.15 -4.95 L-8.25 -7.4 -7.95 -7.5 -6.75 -7.45 -6.15 -7.2 -3.65 -6.15 -2.8 -5.75 0.6 -2.3 Q1.95 -1.35 4.15 -1.35 5.25 -1.35 6.65 -2.05 L7.15 -2.1 Q7.35 -2.1 7.35 -1.5 L6.9 0.25 Q6.45 1.45 6.45 1.95 6.45 3.0 3.85 3.0 -1.2 3.0 -3.9 -0.65 -5.3 -2.5 -6.15 -4.95 M-7.6 -20.2 Q-6.05 -22.8 -2.4 -24.95 L-2.95 -24.0 -3.95 -22.3 -4.2 -20.7 Q-4.2 -16.55 -1.8 -14.75 0.4 -13.1 5.7 -12.75 10.45 -11.35 11.55 -10.75 11.75 -10.0 11.4 -9.8 10.9 -9.5 6.6 -9.8 L4.35 -9.45 Q-1.05 -9.45 -4.5 -13.15 -7.5 -16.3 -7.6 -20.2 M26.05 -6.8 L26.25 -5.8 26.2 -5.5 25.5 -5.4 Q20.75 -6.95 19.25 -6.95 L15.65 -5.45 Q12.05 -4.1 8.85 -4.55 L7.65 -5.7 Q10.0 -5.9 14.25 -8.1 L18.45 -10.2 Q21.05 -10.2 22.6 -9.0 24.8 -7.25 26.05 -6.8 M34.4 16.5 Q30.8 14.55 30.95 7.6 31.0 4.05 30.65 2.65 30.0 0.15 27.75 -0.9 L27.9 -1.35 28.75 -1.6 30.85 -1.05 33.7 -0.15 32.4 -0.15 Q38.1 2.4 38.1 6.45 38.1 7.35 36.5 10.65 34.85 13.9 34.85 14.65 L36.2 17.1 34.4 16.5 M49.15 -13.95 L46.25 -14.15 Q42.95 -14.15 40.1 -12.05 L37.6 -9.8 Q36.85 -9.95 36.85 -11.1 36.85 -12.95 37.1 -13.95 38.55 -15.6 41.35 -16.8 43.55 -17.75 44.45 -17.75 46.2 -17.75 47.2 -17.05 48.25 -16.2 49.2 -13.95 L49.15 -13.95 M44.55 -2.0 Q44.35 -4.35 43.55 -5.2 L45.25 -6.25 Q47.3 -6.8 50.1 -5.55 52.0 -4.7 52.95 -3.85 L52.7 -2.5 49.9 -3.05 47.2 -2.6 44.55 -2.0 M-1.65 15.45 L0.6 15.5 Q1.0 15.35 1.35 15.15 L-1.65 15.45 M-30.45 -4.9 Q-26.6 -4.65 -26.6 -2.15 -26.6 -1.15 -26.85 -1.35 -29.8 -1.25 -32.7 0.4 -35.9 2.2 -36.9 4.8 L-37.05 4.25 Q-36.8 -1.75 -30.45 -4.9 M-27.2 4.55 L-25.35 4.9 Q-23.9 5.3 -23.4 5.65 L-26.95 11.95 Q-28.75 14.45 -33.2 15.35 L-35.1 14.55 Q-30.6 13.45 -29.1 11.05 -28.35 9.85 -27.2 4.55 M-26.45 6.45 L-26.25 6.2 -26.4 6.0 -26.45 6.45" fill="#56351a" fill-rule="evenodd" stroke="none"/>
    <path d="M19.65 -13.7 L18.2 -15.05 17.2 -16.1 16.2 -17.25 15.9 -17.65 14.25 -19.3 10.8 -21.2 10.05 -21.45 Q11.55 -19.35 11.85 -18.35 12.35 -15.95 11.55 -13.65 L12.8 -13.6 13.2 -13.35 Q12.35 -12.7 10.5 -12.6 L5.7 -12.75 Q0.4 -13.1 -1.8 -14.75 -4.2 -16.55 -4.2 -20.7 L-3.95 -22.3 -2.95 -24.0 -2.4 -24.95 Q-6.05 -22.8 -7.6 -20.2 -8.6 -17.95 -8.6 -16.55 -8.6 -14.2 -7.15 -12.3 -5.25 -9.8 -1.2 -8.6 -1.2 -8.0 -2.95 -7.8 L1.35 -4.0 Q2.7 -2.85 3.5 -2.85 4.5 -2.85 6.6 -3.65 L6.95 -2.8 6.65 -2.05 Q5.25 -1.35 4.15 -1.35 1.95 -1.35 0.6 -2.3 L-2.8 -5.75 -3.65 -6.15 -4.75 -6.65 -6.15 -7.2 -6.75 -7.45 -7.95 -7.5 -8.25 -7.4 -6.15 -4.95 Q-4.7 -0.5 -3.85 3.55 -3.1 5.4 0.35 5.4 L3.65 5.1 Q4.95 4.75 7.05 3.35 L7.55 3.5 7.7 3.8 Q6.1 6.9 0.5 6.9 -4.1 6.9 -5.5 4.4 -6.5 2.7 -6.45 -2.05 -6.4 -4.0 -8.85 -5.5 L-12.45 -7.2 Q-11.75 -8.15 -10.9 -8.3 -11.85 -8.45 -19.05 -10.95 -19.9 -11.35 -22.8 -13.7 -24.5 -15.15 -28.05 -15.15 -33.6 -15.15 -37.15 -12.4 -40.2 -10.0 -40.2 -7.1 L-39.95 -6.0 -39.5 -5.15 -38.9 -4.5 Q-38.75 -7.05 -36.75 -8.4 -34.85 -9.75 -31.55 -9.75 -29.15 -9.75 -27.75 -8.65 -26.7 -7.8 -24.0 -4.25 L-23.55 -4.65 -22.65 -5.25 Q-22.45 -5.0 -22.35 -3.7 L-21.9 -1.15 Q-21.5 0.05 -18.3 -0.15 L-14.7 -0.6 Q-12.0 -0.6 -10.05 1.5 L-10.15 2.1 -9.9 2.2 -10.45 2.25 Q-11.3 2.25 -11.9 1.7 -12.6 1.15 -13.85 1.0 L-18.45 1.35 -20.7 0.85 Q-22.75 0.25 -23.75 -0.65 L-24.15 -1.5 Q-24.35 -1.45 -24.35 -0.45 -24.35 1.7 -21.65 3.1 -17.85 5.05 -17.1 5.85 -15.75 7.35 -14.15 8.2 -12.6 9.0 -11.35 9.0 L-8.15 8.25 -5.45 7.5 -1.2 9.15 Q3.4 9.15 5.7 7.45 8.2 5.65 9.25 5.55 L9.3 5.75 9.3 6.3 9.15 6.35 8.95 6.6 8.0 7.95 6.7 9.9 Q4.4 14.6 -2.3 14.6 L-4.6 14.15 Q-4.0 14.7 -3.55 15.75 -2.05 16.8 4.4 15.75 9.7 13.95 12.15 10.6 13.7 8.4 13.7 6.35 13.7 5.75 13.35 5.4 L12.9 5.0 Q13.1 4.45 13.8 4.35 L15.15 4.55 Q15.15 7.5 14.85 8.65 13.95 12.95 13.95 14.05 13.95 14.7 14.3 15.9 L14.9 17.85 15.9 15.85 Q16.25 15.55 16.45 14.25 L16.75 11.6 Q16.85 10.95 18.9 9.85 20.9 8.8 22.05 8.8 L22.1 9.2 Q20.2 10.15 19.05 11.3 17.85 12.45 17.85 13.4 17.85 14.3 19.3 18.05 L20.7 22.25 Q20.7 23.65 19.95 24.6 19.15 25.75 17.1 26.65 L20.2 25.75 Q23.0 24.2 22.6 19.85 22.15 15.7 25.4 14.3 L25.5 14.65 25.3 15.65 25.95 17.5 Q26.6 19.35 26.7 20.35 L26.9 24.15 Q29.75 22.5 30.65 20.45 L31.5 19.2 32.05 19.2 32.3 19.9 Q32.3 20.9 31.15 22.45 29.95 24.0 29.95 24.5 29.95 25.35 31.35 27.6 32.75 29.9 32.75 32.45 32.75 33.6 32.2 34.8 31.55 36.35 30.2 37.4 L29.4 37.95 Q31.8 38.05 33.5 37.25 36.75 35.7 36.75 31.35 L36.05 28.75 Q35.3 26.05 35.1 24.7 L35.2 24.0 35.95 22.8 36.9 21.55 37.0 21.5 37.4 22.2 38.55 23.5 39.5 24.0 Q39.95 24.2 40.1 24.8 40.5 26.15 40.5 34.6 40.5 37.85 42.6 39.7 44.15 40.7 46.5 41.25 L48.0 41.3 46.3 39.5 44.7 37.7 Q44.1 35.8 44.1 34.3 44.1 32.75 45.95 28.5 47.6 24.7 47.15 22.65 46.65 19.9 41.6 17.7 L41.7 17.15 Q41.85 16.9 42.45 16.9 L44.5 17.95 47.3 19.85 Q48.85 21.55 48.8 23.55 L48.45 27.25 49.5 31.05 Q50.6 34.6 51.1 35.3 53.7 38.55 60.65 38.55 L63.55 38.3 Q64.65 38.0 65.35 37.2 L65.7 36.45 Q64.0 36.65 61.95 36.5 59.1 35.7 56.7 33.25 53.6 30.05 53.6 25.85 L54.1 21.85 54.6 17.85 Q54.6 11.85 48.05 6.95 L43.1 4.05 43.15 3.7 Q43.3 3.35 43.9 3.35 45.25 3.35 46.5 4.1 L49.2 5.9 50.8 4.2 50.9 3.95 Q48.05 3.9 46.5 3.2 44.45 2.3 43.35 0.0 L42.65 -3.5 Q42.0 -5.55 38.75 -5.55 L36.0 -4.95 33.5 -4.35 33.3 -4.4 33.2 -4.45 33.05 -4.7 34.1 -5.6 32.15 -8.95 Q30.75 -10.8 28.1 -11.55 L23.3 -12.3 21.9 -12.45 Q20.7 -12.75 19.65 -13.7 M60.85 -14.15 L61.45 -14.25 61.6 -13.6 Q61.6 -12.2 58.05 -10.55 54.55 -8.95 51.9 -8.95 L46.7 -10.7 Q43.0 -10.7 43.0 -7.75 L43.0 -6.8 46.65 -7.45 Q52.4 -7.45 53.3 -5.05 L54.4 -1.7 Q55.45 0.9 57.55 3.5 57.4 4.25 56.35 4.25 L54.1 3.75 52.7 3.55 Q52.4 4.9 51.7 5.9 L50.8 6.85 Q54.35 11.0 55.25 12.95 56.1 14.75 56.1 17.85 L55.6 21.85 55.1 25.85 Q55.1 31.0 58.55 33.45 60.9 35.1 63.65 35.1 65.2 35.1 66.4 34.5 L67.35 33.9 67.95 34.0 Q68.25 34.1 68.25 34.75 68.25 37.25 65.75 38.8 63.65 40.1 61.1 40.1 54.75 40.1 51.1 37.2 47.65 34.45 47.35 29.75 L46.1 32.6 Q45.6 34.0 45.6 34.35 45.6 36.9 47.35 38.55 50.3 41.3 51.75 43.85 L51.75 45.65 51.8 45.8 51.15 45.95 49.85 44.6 Q48.7 43.15 48.0 42.8 L44.6 41.8 Q41.35 40.75 40.4 39.55 38.8 37.55 39.25 32.2 39.65 27.2 37.15 25.15 L36.9 24.85 Q36.7 24.6 36.65 24.75 L37.45 27.3 Q38.25 30.0 38.25 31.35 38.25 35.1 36.05 37.4 34.0 39.6 30.95 39.6 27.85 39.6 26.1 37.95 28.7 36.5 29.95 35.0 31.25 33.4 31.25 31.4 L30.2 28.75 28.85 25.2 25.8 25.6 Q25.25 25.1 25.2 22.2 25.05 18.6 24.55 16.8 24.9 23.05 23.2 25.75 21.65 28.2 17.85 28.2 L14.95 27.75 Q14.2 27.4 13.7 26.45 14.9 25.65 17.6 24.45 L18.75 23.35 19.1 22.2 18.65 20.4 17.25 17.0 15.05 19.95 Q14.1 19.25 13.1 16.6 11.95 13.6 12.75 12.3 10.2 15.0 7.7 16.2 4.5 17.7 -0.1 17.7 -5.1 17.7 -6.05 16.05 -7.8 13.05 -9.75 11.95 -8.35 10.85 -7.65 10.85 -7.15 10.85 -4.95 12.0 L-2.75 13.1 0.7 12.35 Q3.1 11.45 4.25 10.3 L4.95 9.4 -0.2 10.65 Q-1.75 10.65 -5.25 9.0 L-7.8 9.75 -11.2 10.5 Q-12.05 10.5 -16.35 8.8 -17.55 8.8 -18.75 10.05 L-21.15 12.9 Q-25.0 16.95 -31.5 16.95 L-34.9 16.05 Q-37.9 14.95 -39.15 13.75 -37.45 12.8 -34.9 12.35 -32.45 11.95 -31.8 11.55 -30.15 10.6 -29.7 7.7 -29.1 4.4 -28.65 3.85 L-30.5 3.7 -32.25 3.5 Q-33.35 3.5 -34.2 4.9 -35.1 6.4 -34.1 7.85 L-34.2 8.45 Q-34.35 8.7 -35.0 8.7 -36.5 8.7 -37.5 7.5 -38.6 6.2 -38.6 3.9 -38.6 -0.35 -35.15 -3.8 -31.6 -7.3 -27.4 -6.95 L-29.75 -7.7 -31.55 -8.15 Q-34.9 -8.15 -36.55 -5.4 -38.15 -2.7 -38.4 -2.7 -41.7 -2.7 -41.7 -7.1 -41.7 -13.95 -33.6 -16.1 L-27.95 -16.9 -25.1 -16.9 Q-22.8 -16.9 -20.85 -14.8 -18.75 -12.5 -17.9 -12.3 L-17.4 -15.6 Q-16.75 -17.65 -14.4 -18.2 -12.3 -15.25 -9.75 -13.85 L-10.1 -16.6 Q-10.1 -20.95 -6.25 -23.9 L-3.65 -25.85 Q-2.45 -26.85 -2.45 -27.8 -2.45 -28.4 -2.8 -28.65 L-3.2 -29.0 -2.85 -29.9 Q-1.9 -29.3 -1.15 -28.3 -0.45 -27.35 -0.45 -26.75 -0.45 -26.0 -1.55 -23.6 L-2.7 -20.75 Q-2.7 -17.25 -1.05 -16.05 1.4 -14.25 9.95 -13.65 L10.65 -15.95 Q10.65 -18.9 6.05 -22.35 6.45 -23.1 7.75 -23.1 12.9 -23.1 15.65 -20.45 17.25 -18.9 19.7 -15.55 21.25 -14.05 27.35 -13.0 32.5 -12.1 34.0 -8.55 35.85 -14.2 37.3 -15.95 39.65 -18.75 44.75 -18.75 47.35 -18.75 48.65 -17.2 L50.25 -14.0 Q51.0 -12.05 54.85 -12.1 58.7 -12.15 60.85 -14.15 M8.85 -4.55 L11.1 -3.4 Q13.0 -2.55 14.1 -2.55 L17.75 -3.75 21.8 -4.95 23.1 -4.55 Q24.25 -4.05 24.55 -3.6 L24.6 -3.25 Q23.6 -2.45 23.05 -2.75 22.1 -3.35 21.8 -3.35 L18.05 -2.2 Q14.8 -1.05 13.95 -1.05 12.2 -1.05 9.35 -2.7 5.9 -4.7 4.7 -7.5 L4.8 -8.0 5.6 -8.25 6.7 -7.8 Q7.3 -7.35 7.8 -7.35 10.15 -7.35 13.1 -9.5 16.0 -11.7 18.45 -11.7 20.8 -11.7 23.5 -10.2 26.5 -8.5 26.05 -6.8 24.8 -7.25 22.6 -9.0 21.05 -10.2 18.45 -10.2 L14.25 -8.1 Q10.0 -5.9 7.65 -5.7 L8.85 -4.55 M33.7 -0.15 Q36.4 0.45 37.85 2.4 39.15 4.1 39.15 6.45 L37.6 10.0 36.05 13.55 Q36.05 15.4 39.45 18.05 39.25 18.75 38.05 18.75 35.6 18.75 32.05 16.55 28.45 14.25 28.1 12.35 L27.35 9.3 Q26.55 6.55 25.7 5.9 L21.3 4.65 Q17.6 3.6 16.35 1.2 17.0 0.55 18.2 0.6 L19.8 0.75 Q21.35 0.75 23.15 -0.3 L25.8 -1.8 25.85 -1.55 Q25.4 -0.15 24.6 0.65 23.05 2.15 19.15 2.1 L18.2 2.1 19.9 3.4 22.35 3.75 26.25 3.0 26.7 3.1 26.85 3.3 25.6 4.7 Q28.2 5.7 29.25 10.1 30.3 14.65 34.4 16.5 L36.2 17.1 34.85 14.65 Q34.85 13.9 36.5 10.65 38.1 7.35 38.1 6.45 38.1 2.4 32.4 -0.15 L33.7 -0.15 M37.1 -13.95 Q35.25 -10.3 35.25 -8.0 L35.3 -6.3 Q38.5 -6.95 41.3 -6.35 L42.3 -10.15 Q43.25 -12.2 46.0 -12.2 47.6 -12.2 49.4 -11.3 51.25 -10.4 52.05 -10.4 L54.05 -10.7 54.45 -10.75 Q53.9 -10.75 52.0 -11.85 49.85 -13.1 49.15 -13.95 L49.2 -13.95 Q48.25 -16.2 47.2 -17.05 46.2 -17.75 44.45 -17.75 43.55 -17.75 41.35 -16.8 38.55 -15.6 37.1 -13.95 M43.55 -5.2 Q44.35 -4.35 44.55 -2.0 L44.8 -0.35 Q46.4 -1.1 47.45 -1.1 48.8 -1.1 50.8 0.2 53.4 2.0 54.9 2.55 52.25 -0.6 52.7 -2.5 L52.95 -3.85 Q52.0 -4.7 50.1 -5.55 47.3 -6.8 45.25 -6.25 L44.05 -5.95 Q43.55 -5.65 43.55 -5.2 M50.95 2.15 L49.05 0.95 47.8 0.3 46.2 0.6 45.5 0.85 Q45.95 1.7 48.6 2.25 L51.65 2.7 50.95 2.15 M-30.45 -4.9 Q-36.8 -1.75 -37.05 4.25 L-36.9 4.8 -36.85 5.0 -36.15 6.3 Q-35.15 2.35 -32.95 2.05 L-29.9 2.45 Q-28.0 2.45 -26.6 1.05 -25.1 -0.45 -25.1 -2.85 -25.1 -4.95 -26.7 -5.2 L-30.45 -4.9 M-7.35 -9.05 L-6.45 -9.05 -5.65 -8.95 Q-6.85 -9.4 -8.15 -10.55 -9.55 -11.8 -10.4 -12.2 -12.9 -13.45 -15.15 -16.5 L-16.15 -14.6 -16.65 -13.4 Q-16.65 -12.1 -12.7 -10.75 L-7.35 -9.05 M-33.2 15.35 L-31.95 15.45 Q-26.75 15.45 -23.15 12.45 -19.7 8.85 -17.55 7.6 -18.8 6.55 -22.0 4.9 -24.7 3.5 -25.4 2.45 L-27.2 4.55 Q-28.35 9.85 -29.1 11.05 -30.6 13.45 -35.1 14.55 L-33.2 15.35" fill="#25170d" fill-rule="evenodd" stroke="none"/>
  </g>
</svg>
