<?xml version="1.0" encoding="UTF-8" standalone="no"?>
<svg xmlns:ffdec="https://www.free-decompiler.com/flash" xmlns:xlink="http://www.w3.org/1999/xlink" ffdec:objectType="shape" height="167.9px" width="92.95px" xmlns="http://www.w3.org/2000/svg">
  <g transform="matrix(1.0, 0.0, 0.0, 1.0, 44.75, 129.3)">
    <path d="M-30.4 -25.2 Q-26.25 -35.2 -23.4 -51.8 -22.0 -60.1 -21.4 -66.55 L-23.7 -67.9 Q-26.5 -69.6 -28.6 -71.6 -30.6 -73.5 -31.45 -77.0 -32.05 -79.3 -32.05 -81.8 -32.05 -85.2 -29.05 -90.85 -26.1 -96.45 -17.85 -108.6 L-13.85 -114.75 -6.95 -125.3 Q-5.7 -127.2 -1.75 -128.4 L2.15 -129.3 Q9.65 -129.3 15.5 -117.8 20.9 -107.2 23.15 -90.75 24.35 -82.05 24.3 -78.0 24.0 -75.0 24.2 -72.85 24.65 -66.4 34.7 -24.3 L34.25 -23.55 33.6 -21.7 Q26.35 -48.35 24.1 -63.35 23.25 -68.7 21.85 -87.45 20.5 -105.4 13.95 -117.5 8.1 -128.35 2.15 -128.35 -2.9 -128.35 -5.55 -125.25 L-13.2 -113.0 Q-17.15 -106.45 -21.35 -100.35 L-26.65 -92.7 Q-30.4 -87.05 -30.4 -81.05 -30.4 -75.55 -25.0 -71.0 L-19.6 -67.45 Q-19.6 -63.25 -24.15 -43.65 -27.8 -28.05 -29.15 -23.4 L-29.45 -23.6 -30.2 -23.8 -30.4 -22.6 -30.5 -22.35 -30.6 -22.9 -30.4 -24.45 -30.4 -25.2" fill="#671b2e" fill-rule="evenodd" stroke="none"/>
    <path d="M8.9 -112.25 Q7.35 -117.0 5.35 -117.0 4.5 -117.0 4.15 -116.45 L3.3 -114.25 Q1.25 -109.3 -4.8 -102.45 -5.7 -101.45 -10.4 -100.5 L-16.2 -99.15 Q-15.4 -98.65 -10.3 -98.05 L-2.95 -97.55 Q3.5 -97.55 6.65 -99.35 10.2 -101.4 10.2 -106.1 10.2 -108.45 8.9 -112.25 M-10.2 -74.85 L-22.5 -75.95 Q-27.2 -77.35 -27.2 -82.7 -27.2 -86.55 -23.9 -92.4 -19.85 -99.45 -10.25 -110.8 L-13.1 -103.0 -13.7 -101.3 -13.65 -101.15 -12.7 -100.85 Q-11.5 -101.85 -4.0 -113.85 2.75 -124.7 5.0 -124.7 7.5 -124.7 10.25 -115.7 11.55 -111.5 13.5 -103.0 15.65 -93.8 15.65 -91.85 15.65 -90.8 14.9 -89.2 L11.4 -82.95 10.7 -83.9 10.1 -84.6 9.95 -84.75 8.85 -85.9 11.5 -90.9 Q12.65 -93.25 12.65 -94.15 L12.45 -97.8 11.95 -99.1 Q2.3 -93.7 -1.2 -90.95 L-12.1 -89.7 Q-18.55 -89.15 -20.15 -87.75 -21.35 -86.7 -21.35 -83.0 -21.35 -80.45 -19.2 -79.5 -17.1 -78.55 -11.75 -78.55 L-7.55 -78.65 -9.4 -76.05 -10.2 -74.85 M10.35 -80.35 L11.2 -79.85 13.75 -82.95 15.85 -85.85 Q16.25 -86.8 16.35 -85.5 15.2 -76.75 14.6 -74.55 L12.85 -75.15 Q13.35 -77.95 12.9 -78.15 L12.1 -78.2 11.05 -77.2 10.05 -75.75 6.15 -75.65 2.2 -75.15 1.85 -76.2 Q1.0 -75.75 -2.75 -75.25 L-6.9 -74.85 Q-5.1 -75.85 -2.2 -76.75 -0.35 -77.3 0.1 -78.2 0.4 -77.6 0.65 -77.45 L1.65 -77.35 5.5 -77.9 Q7.65 -78.45 8.65 -79.0 L7.6 -80.55 10.35 -80.35 M17.0 -73.5 L18.05 -76.25 Q18.25 -73.0 19.15 -66.5 20.5 -56.45 22.3 -48.95 21.0 -48.9 19.5 -48.25 18.0 -47.6 17.35 -46.85 L17.45 -45.85 19.25 -45.9 22.75 -46.4 Q23.05 -43.45 24.15 -41.25 25.15 -39.2 25.15 -38.55 25.15 -34.95 23.8 -33.05 22.2 -30.85 19.15 -31.6 L18.9 -31.55 Q19.9 -30.9 21.15 -30.8 L24.3 -30.7 26.9 -23.5 27.65 -21.25 27.65 -21.1 27.2 -21.15 -7.75 -20.35 -13.9 -20.9 -19.75 -22.05 Q-19.05 -22.3 -18.5 -25.3 L-17.7 -29.6 -17.0 -29.6 -16.15 -29.5 Q-15.3 -29.5 -14.6 -30.05 L-14.1 -30.2 Q-12.6 -30.85 -12.6 -31.75 -11.1 -31.4 -9.15 -32.4 L-6.25 -34.25 -4.1 -32.7 -11.6 -30.8 Q-13.45 -29.85 -13.45 -25.45 -13.45 -23.7 -13.25 -23.35 -13.0 -22.95 -11.75 -22.95 7.5 -22.95 14.6 -24.5 16.95 -25.0 18.25 -26.3 17.7 -27.45 15.0 -27.95 12.75 -28.4 12.75 -31.3 12.75 -33.3 13.95 -34.2 14.6 -34.65 16.65 -35.15 20.55 -36.15 20.55 -40.0 20.55 -41.95 17.55 -44.4 L10.2 -49.65 16.9 -51.0 Q18.05 -51.5 18.05 -53.55 18.05 -58.45 16.65 -60.7 15.7 -62.3 14.3 -62.3 L6.4 -60.8 6.85 -61.7 8.7 -61.9 8.6 -63.4 10.1 -62.35 11.5 -63.6 Q12.15 -64.4 12.15 -65.05 L11.6 -66.35 Q10.9 -67.6 10.0 -68.3 L11.65 -71.9 14.0 -72.2 13.6 -70.15 13.9 -69.8 14.75 -69.65 16.7 -72.8 17.15 -72.8 17.6 -73.0 17.6 -73.25 17.0 -73.5 M-17.5 -30.65 L-17.0 -33.6 -15.1 -32.3 Q-15.1 -31.6 -15.8 -31.1 -16.5 -30.65 -17.5 -30.65 M-18.1 -36.4 L-19.55 -36.15 -21.2 -36.35 -20.25 -38.7 -19.85 -38.55 Q-19.85 -37.7 -19.35 -37.1 -18.9 -36.55 -18.25 -36.55 L-18.1 -36.4 M-14.7 -54.6 L-14.25 -63.55 -12.8 -63.55 -12.35 -55.35 -14.7 -54.6 M0.85 -70.25 L0.95 -70.15 1.05 -70.3 1.85 -70.8 2.5 -71.25 4.7 -71.2 4.9 -71.2 5.2 -71.2 5.35 -71.2 6.2 -71.3 7.7 -71.8 6.1 -68.85 Q2.6 -69.55 -3.7 -65.05 L-5.1 -64.0 Q-9.6 -60.45 -10.55 -57.5 L-10.2 -58.85 Q-9.55 -61.15 -8.1 -64.5 -3.8 -66.35 -2.1 -67.6 L0.55 -70.15 0.85 -70.25 M-0.7 -63.45 L-9.1 -58.05 Q-7.7 -60.7 -4.7 -62.3 -2.1 -63.75 -0.7 -63.45 M-2.2 -46.9 L0.35 -45.6 -2.05 -44.95 -2.2 -46.9 M-0.75 -93.35 L-1.35 -94.5 -12.1 -94.15 -20.65 -93.4 -15.95 -92.4 -9.8 -91.8 -4.5 -92.0 Q-1.25 -92.35 -0.75 -93.35 M-15.9 -91.0 L-15.9 -91.85 Q-18.5 -92.2 -19.55 -91.05 L-19.2 -90.95 -18.15 -90.75 -16.65 -90.85 -15.9 -91.0 M-8.3 -95.35 Q-6.35 -95.95 -5.4 -96.65 -8.1 -98.15 -12.7 -97.75 -16.9 -97.4 -18.95 -96.05 L-18.0 -95.4 -15.65 -94.9 -13.35 -94.7 -8.3 -95.35 M-7.1 -49.45 L-7.8 -51.85 Q-8.8 -53.6 -11.7 -53.6 -13.35 -53.6 -15.0 -52.4 -16.35 -51.4 -16.75 -50.5 L-18.65 -49.35 Q-17.7 -51.2 -15.95 -52.75 -13.45 -54.9 -10.7 -54.9 -8.3 -54.9 -6.0 -52.15 -3.95 -49.7 -3.2 -46.8 L-4.65 -47.9 -7.1 -49.45 M-11.65 -63.65 L-9.95 -63.95 -11.6 -58.35 -11.65 -63.65" fill="#c03256" fill-rule="evenodd" stroke="none"/>
    <path d="M11.4 -82.95 L14.9 -89.2 Q15.65 -90.8 15.65 -91.85 15.65 -93.8 13.5 -103.0 11.55 -111.5 10.25 -115.7 7.5 -124.7 5.0 -124.7 2.75 -124.7 -4.0 -113.85 -11.5 -101.85 -12.7 -100.85 L-13.65 -101.15 -13.7 -101.3 -13.1 -103.0 -10.25 -110.8 Q-19.85 -99.45 -23.9 -92.4 -27.2 -86.55 -27.2 -82.7 -27.2 -77.35 -22.5 -75.95 L-10.2 -74.85 -10.95 -72.1 -11.35 -71.15 -11.05 -71.7 -11.65 -69.1 -12.8 -63.55 -14.25 -63.55 -14.7 -54.6 Q-16.5 -54.0 -17.85 -52.0 -19.05 -50.25 -19.4 -48.5 -20.35 -48.55 -21.45 -47.85 L-22.75 -46.7 -22.5 -46.45 -19.85 -46.9 -20.3 -44.25 Q-22.2 -43.0 -22.2 -41.3 L-21.6 -40.3 -20.25 -38.7 -21.2 -36.35 -19.55 -36.15 -18.1 -36.4 Q-17.8 -36.1 -17.75 -35.65 L-17.75 -35.2 -17.9 -35.3 -18.15 -35.0 -18.1 -34.9 -17.0 -33.6 -17.5 -30.65 Q-19.2 -32.25 -21.0 -31.25 -22.6 -30.35 -22.6 -28.35 -22.6 -26.8 -20.4 -26.8 -20.0 -26.8 -19.65 -27.45 L-19.2 -28.45 -19.35 -29.15 -20.3 -29.35 Q-21.15 -29.25 -21.15 -28.9 L-21.0 -28.8 -19.8 -28.6 -20.05 -27.45 -20.55 -27.25 -22.05 -27.45 -22.15 -28.4 Q-22.15 -29.5 -21.45 -30.15 -20.8 -30.8 -19.75 -30.8 -19.4 -30.8 -17.7 -29.6 L-18.5 -25.3 Q-19.05 -22.3 -19.75 -22.05 L-13.9 -20.9 -7.75 -20.35 27.2 -21.15 27.65 -21.1 27.65 -21.25 26.9 -23.5 24.3 -30.7 21.15 -30.8 Q19.9 -30.9 18.9 -31.55 L19.15 -31.6 Q22.2 -30.85 23.8 -33.05 25.15 -34.95 25.15 -38.55 25.15 -39.2 24.15 -41.25 23.05 -43.45 22.75 -46.4 L19.25 -45.9 17.45 -45.85 17.35 -46.85 Q18.0 -47.6 19.5 -48.25 21.0 -48.9 22.3 -48.95 20.5 -56.45 19.15 -66.5 18.25 -73.0 18.05 -76.25 L17.0 -73.5 14.6 -74.55 Q15.2 -76.75 16.35 -85.5 16.25 -86.8 15.85 -85.85 L13.75 -82.95 11.2 -79.85 10.35 -80.35 10.65 -81.0 10.9 -81.4 11.0 -81.8 11.4 -82.95 M-30.4 -22.6 L-30.2 -23.8 -29.45 -23.6 -29.15 -23.4 Q-27.8 -28.05 -24.15 -43.65 -19.6 -63.25 -19.6 -67.45 L-25.0 -71.0 Q-30.4 -75.55 -30.4 -81.05 -30.4 -87.05 -26.65 -92.7 L-21.35 -100.35 Q-17.15 -106.45 -13.2 -113.0 L-5.55 -125.25 Q-2.9 -128.35 2.15 -128.35 8.1 -128.35 13.95 -117.5 20.5 -105.4 21.85 -87.45 23.25 -68.7 24.1 -63.35 26.35 -48.35 33.6 -21.7 L33.55 -21.65 Q30.95 -20.15 18.9 -18.35 3.25 -16.0 -9.3 -17.75 L-9.3 -18.4 -25.9 -21.15 Q-27.5 -21.45 -28.35 -20.75 L-29.45 -21.45 -30.4 -22.6 M-6.9 -74.85 L-2.75 -75.25 Q1.0 -75.75 1.85 -76.2 L2.2 -75.15 Q-0.1 -74.95 -4.3 -70.9 -8.4 -67.05 -9.95 -63.95 L-11.65 -63.65 Q-11.8 -66.55 -10.05 -70.25 -8.5 -73.45 -6.9 -74.85 M14.0 -72.2 L16.7 -72.8 14.75 -69.65 13.9 -69.8 13.6 -70.15 14.0 -72.2 M0.55 -70.15 L-2.1 -67.6 Q-3.8 -66.35 -8.1 -64.5 -4.95 -70.25 0.55 -70.15 M-8.3 -95.35 L-13.35 -94.7 -15.65 -94.9 -18.0 -95.4 -18.95 -96.05 Q-16.9 -97.4 -12.7 -97.75 -8.1 -98.15 -5.4 -96.65 -6.35 -95.95 -8.3 -95.35 M-15.9 -91.0 L-16.65 -90.85 -18.15 -90.75 -19.2 -90.95 -19.55 -91.05 Q-18.5 -92.2 -15.9 -91.85 L-15.9 -91.0" fill="#982744" fill-rule="evenodd" stroke="none"/>
    <path d="M8.9 -112.25 Q10.2 -108.45 10.2 -106.1 10.2 -101.4 6.65 -99.35 3.5 -97.55 -2.95 -97.55 L-10.3 -98.05 Q-15.4 -98.65 -16.2 -99.15 L-10.4 -100.5 Q-5.7 -101.45 -4.8 -102.45 1.25 -109.3 3.3 -114.25 L4.15 -116.45 Q4.5 -117.0 5.35 -117.0 7.35 -117.0 8.9 -112.25 M0.2 -100.0 Q3.7 -100.9 5.0 -103.65 6.15 -105.95 5.8 -109.85 3.3 -109.8 1.05 -106.7 -1.1 -103.8 -1.1 -101.3 L-0.75 -100.8 0.2 -100.0 M-7.55 -78.65 L-11.75 -78.55 Q-17.1 -78.55 -19.2 -79.5 -21.35 -80.45 -21.35 -83.0 -21.35 -86.7 -20.15 -87.75 -18.55 -89.15 -12.1 -89.7 L-1.2 -90.95 Q2.3 -93.7 11.95 -99.1 L12.45 -97.8 12.65 -94.15 Q12.65 -93.25 11.5 -90.9 L8.85 -85.9 2.7 -85.6 Q3.55 -87.15 6.85 -90.0 9.55 -92.3 9.55 -93.65 L9.5 -94.4 9.4 -94.45 Q1.55 -90.6 -0.95 -89.5 -4.75 -87.8 -8.0 -87.85 -13.95 -87.95 -16.35 -87.15 -18.85 -86.3 -18.85 -84.05 -18.85 -82.75 -18.35 -82.45 L-14.55 -82.05 -10.15 -82.25 -2.8 -82.9 -7.55 -78.65 M10.05 -75.75 L11.05 -77.2 12.1 -78.2 12.9 -78.15 Q13.35 -77.95 12.85 -75.15 L10.05 -75.75 M7.7 -71.8 L10.0 -72.05 11.65 -71.9 10.0 -68.3 6.1 -68.85 7.7 -71.8 M3.1 -63.0 Q3.4 -62.6 3.75 -62.45 L4.0 -62.35 6.85 -61.7 6.4 -60.8 14.3 -62.3 Q15.7 -62.3 16.65 -60.7 18.05 -58.45 18.05 -53.55 18.05 -51.5 16.9 -51.0 L10.2 -49.65 17.55 -44.4 Q20.55 -41.95 20.55 -40.0 20.55 -36.15 16.65 -35.15 14.6 -34.65 13.95 -34.2 12.75 -33.3 12.75 -31.3 12.75 -28.4 15.0 -27.95 17.7 -27.45 18.25 -26.3 16.95 -25.0 14.6 -24.5 7.5 -22.95 -11.75 -22.95 -13.0 -22.95 -13.25 -23.35 -13.45 -23.7 -13.45 -25.45 -13.45 -29.85 -11.6 -30.8 L-4.1 -32.7 -6.25 -34.25 -5.15 -35.5 3.05 -29.6 3.4 -29.3 -1.35 -28.65 -6.25 -27.75 -7.3 -27.1 -4.75 -25.9 Q-2.55 -24.9 0.9 -24.9 L5.15 -25.4 11.0 -25.8 12.3 -26.75 Q12.5 -27.05 12.5 -27.5 L10.75 -30.4 6.55 -36.6 Q9.85 -37.2 12.55 -38.55 15.0 -39.8 15.0 -40.5 15.0 -42.9 11.8 -44.7 L3.95 -48.5 3.1 -48.4 Q4.0 -44.3 7.5 -42.95 L8.65 -42.75 -2.3 -41.85 -2.05 -44.95 0.35 -45.6 -2.2 -46.9 Q-2.2 -50.4 -4.6 -52.85 -7.05 -55.35 -10.5 -55.35 L-9.1 -58.05 -0.7 -63.45 2.05 -63.05 2.75 -63.7 3.1 -63.0 M6.3 -58.25 L-1.3 -58.85 Q-4.75 -58.85 -5.75 -57.05 -6.1 -56.45 -6.1 -54.95 -6.1 -52.95 1.05 -52.95 L6.4 -53.2 Q11.6 -53.65 11.6 -54.8 11.6 -56.05 10.55 -56.95 9.7 -57.7 9.05 -57.7 L6.3 -58.25 M-0.75 -93.35 Q-1.25 -92.35 -4.5 -92.0 L-9.8 -91.8 -15.95 -92.4 -20.65 -93.4 -12.1 -94.15 -1.35 -94.5 -0.75 -93.35 M-16.55 -50.55 L-16.75 -50.5 Q-16.35 -51.4 -15.0 -52.4 -13.35 -53.6 -11.7 -53.6 -8.8 -53.6 -7.8 -51.85 L-7.1 -49.45 -7.35 -49.6 -11.05 -50.75 -14.85 -50.85 -16.55 -50.55" fill="#d15071" fill-rule="evenodd" stroke="none"/>
    <path d="M0.2 -100.0 L-0.75 -100.8 -1.1 -101.3 Q-1.1 -103.8 1.05 -106.7 3.3 -109.8 5.8 -109.85 6.15 -105.95 5.0 -103.65 3.7 -100.9 0.2 -100.0 M-2.8 -82.9 L-10.15 -82.25 -14.55 -82.05 -18.35 -82.45 Q-18.85 -82.75 -18.85 -84.05 -18.85 -86.3 -16.35 -87.15 -13.95 -87.95 -8.0 -87.85 -4.75 -87.8 -0.95 -89.5 1.55 -90.6 9.4 -94.45 L9.5 -94.4 9.55 -93.65 Q9.55 -92.3 6.85 -90.0 3.55 -87.15 2.7 -85.6 L-0.55 -84.4 -2.8 -82.9 M-2.3 -41.85 L8.65 -42.75 7.5 -42.95 Q4.0 -44.3 3.1 -48.4 L3.95 -48.5 11.8 -44.7 Q15.0 -42.9 15.0 -40.5 15.0 -39.8 12.55 -38.55 9.85 -37.2 6.55 -36.6 L10.75 -30.4 12.5 -27.5 Q12.5 -27.05 12.3 -26.75 L11.0 -25.8 5.15 -25.4 0.9 -24.9 Q-2.55 -24.9 -4.75 -25.9 L-7.3 -27.1 -6.25 -27.75 -1.35 -28.65 3.4 -29.3 3.05 -29.6 -5.15 -35.5 Q-4.8 -35.95 -3.6 -38.65 L-2.3 -41.85 M6.3 -58.25 L9.05 -57.7 Q9.7 -57.7 10.55 -56.95 11.6 -56.05 11.6 -54.8 11.6 -53.65 6.4 -53.2 L1.05 -52.95 Q-6.1 -52.95 -6.1 -54.95 -6.1 -56.45 -5.75 -57.05 -4.75 -58.85 -1.3 -58.85 L6.3 -58.25" fill="#d96f89" fill-rule="evenodd" stroke="none"/>
    <path d="M27.2 -4.65 L26.35 -15.55 29.45 -16.8 30.15 -5.75 29.3 -5.4 Q29.75 -1.0 37.7 19.4 L35.6 19.85 Q34.85 19.85 32.6 14.1 29.7 6.65 27.2 -4.65 M4.05 -12.8 L4.1 -2.2 0.65 -2.55 Q0.8 -5.1 0.45 -7.4 L0.45 -13.45 4.05 -12.8 M-2.65 -5.5 L-2.2 -0.45 -0.3 10.95 0.85 -0.65 2.85 -0.65 Q2.8 8.05 3.7 18.05 L4.55 26.55 1.75 26.6 Q-3.95 26.6 -6.2 25.5 -8.25 24.5 -8.95 21.55 -9.4 11.4 -12.3 1.05 L-12.45 1.85 Q-13.75 6.3 -15.6 16.5 -17.65 24.5 -21.7 24.5 L-23.0 24.25 Q-19.1 15.55 -17.4 -2.15 L-18.65 -2.4 -20.4 -2.8 -29.45 20.35 -34.1 19.6 Q-28.85 8.95 -24.2 0.65 -21.3 -4.55 -21.0 -5.75 L-14.65 -4.35 Q-14.35 -1.6 -15.6 2.95 L-21.25 22.45 -19.05 22.45 -12.05 -0.2 -8.7 13.3 -6.55 22.65 Q-0.4 24.2 2.55 24.2 -0.65 15.55 -3.7 5.65 -4.65 2.75 -7.9 -2.75 L-9.2 -3.65 -10.55 -4.25 -10.1 -4.75 -9.6 -5.85 -8.1 -6.05 -4.8 -5.85 -2.65 -5.5 M13.05 -6.2 L20.6 -7.05 Q21.15 -0.05 23.3 10.55 L26.0 24.35 17.45 23.15 15.6 21.45 13.9 23.45 Q13.0 24.15 11.25 24.2 9.25 0.05 8.45 -5.85 L12.8 -6.2 13.05 -6.2 M14.05 1.7 L15.45 8.05 16.7 16.4 Q17.55 19.55 19.2 21.05 19.2 0.8 18.9 -0.35 L14.05 1.7 M11.2 7.55 Q11.45 12.0 13.15 22.5 15.2 19.9 15.2 18.9 L14.5 14.8 11.95 0.85 Q10.85 2.6 11.2 7.55 M3.25 23.4 L1.65 7.25 1.6 14.05 Q1.65 18.15 3.25 23.4" fill="#eaeae1" fill-rule="evenodd" stroke="none"/>
    <path d="M26.35 -15.55 L26.2 -17.5 29.3 -18.45 29.45 -16.8 26.35 -15.55 M0.45 -13.45 L0.5 -15.45 4.05 -15.4 4.05 -12.8 0.45 -13.45 M14.05 1.7 L18.9 -0.35 Q19.2 0.8 19.2 21.05 17.55 19.55 16.7 16.4 L15.45 8.05 14.05 1.7 M3.25 23.4 Q1.65 18.15 1.6 14.05 L1.65 7.25 3.25 23.4 M11.2 7.55 Q10.85 2.6 11.95 0.85 L14.5 14.8 15.2 18.9 Q15.2 19.9 13.15 22.5 11.45 12.0 11.2 7.55 M-14.65 -4.35 L-10.55 -4.25 -9.2 -3.65 -7.9 -2.75 Q-4.65 2.75 -3.7 5.65 -0.65 15.55 2.55 24.2 -0.4 24.2 -6.55 22.65 L-8.7 13.3 -12.05 -0.2 -19.05 22.45 -21.25 22.45 -15.6 2.95 Q-14.35 -1.6 -14.65 -4.35" fill="#f7f7f4" fill-rule="evenodd" stroke="none"/>
    <path d="M36.3 -13.7 Q36.05 -8.4 39.8 -0.85 41.15 1.9 48.2 13.65 48.35 15.7 46.85 16.9 44.15 19.05 43.3 20.2 42.35 21.5 39.95 22.55 L33.9 24.65 Q31.9 25.3 29.0 27.8 L23.35 32.45 Q14.9 38.6 2.5 38.6 -0.75 38.6 -6.05 37.1 L-12.25 34.95 Q-14.25 34.0 -18.2 31.0 L-21.9 28.15 -25.3 27.45 Q-27.4 26.85 -27.4 26.1 L-27.35 25.3 -27.15 24.85 -35.3 22.9 Q-37.6 22.0 -38.9 19.3 L-41.95 17.25 Q-44.75 15.4 -44.75 14.4 -44.75 13.05 -41.75 9.0 -37.65 3.45 -36.4 1.2 -33.75 -3.45 -33.35 -4.8 -32.65 -6.95 -32.1 -13.1 L-30.75 -11.8 Q-29.9 -8.05 -33.5 -1.55 L-43.65 14.4 -41.05 16.55 -38.4 18.3 Q-33.2 9.25 -30.65 3.35 -29.85 1.5 -27.75 -4.55 -33.65 13.55 -38.2 20.35 -36.2 22.3 -34.55 22.9 -32.15 23.75 -26.8 23.75 -26.2 23.75 -24.35 18.65 -21.8 11.35 -18.65 -2.4 L-18.65 -2.05 Q-19.05 3.6 -26.35 25.95 -24.9 26.5 -15.3 26.2 -12.1 26.2 -8.6 27.2 L-3.95 28.55 0.6 29.15 Q7.0 29.15 10.85 27.9 14.65 26.6 15.7 26.6 L24.15 27.65 26.65 27.15 30.5 25.65 26.7 12.75 Q24.05 4.05 23.05 -2.35 L23.0 -2.75 23.75 -6.35 24.0 -2.7 Q24.3 -1.2 24.9 0.6 L31.1 24.1 Q38.6 22.65 40.65 21.8 42.0 21.25 42.0 20.2 42.0 19.55 37.75 10.8 L30.3 -5.2 30.15 -5.6 30.15 -5.75 29.45 -16.8 29.3 -18.45 26.2 -17.5 26.35 -15.55 27.2 -4.65 27.2 -4.35 26.6 -3.75 Q25.95 -4.0 25.7 -6.95 L25.6 -7.95 24.85 -16.85 24.75 -17.75 22.25 -17.35 20.0 -16.95 18.7 -16.8 18.65 -16.8 18.15 -16.75 18.05 -16.7 6.3 -15.65 5.15 -15.65 5.15 -14.85 5.15 -5.8 5.3 -5.8 5.15 -1.2 6.75 12.15 6.75 12.4 Q5.65 9.9 4.75 6.35 3.85 0.15 4.1 -2.2 L4.05 -12.8 4.05 -15.4 0.5 -15.45 0.45 -13.45 0.45 -7.4 -0.2 -1.65 -0.95 -2.5 -0.85 -16.05 -9.35 -16.45 -9.3 -17.75 Q3.25 -16.0 18.9 -18.35 30.95 -20.15 33.55 -21.65 L33.4 -21.45 31.3 -19.75 Q30.55 -19.3 30.6 -18.85 L30.6 -18.55 31.25 -10.45 Q31.85 -6.15 35.0 2.55 38.6 12.55 42.35 18.4 44.5 18.3 46.05 16.5 47.2 15.15 47.2 14.6 47.2 13.1 43.15 6.9 L38.15 -1.05 36.2 -4.55 Q34.9 -7.4 35.0 -12.0 L35.6 -12.7 36.3 -13.7 M11.75 29.4 Q8.1 30.35 0.05 30.35 -5.2 30.35 -10.45 28.85 L-15.25 27.3 -19.95 27.85 Q-18.25 31.25 -9.8 33.95 -2.05 36.4 4.5 36.4 12.3 36.4 16.8 32.85 19.8 30.4 20.05 28.25 L15.7 27.7 Q12.8 29.15 11.75 29.4 M23.35 28.7 L21.2 28.45 20.3 31.25 23.35 28.7" fill="#696356" fill-rule="evenodd" stroke="none"/>
    <path d="M25.6 -7.95 L25.7 -6.95 23.75 -6.35 23.0 -2.75 22.8 -7.4 25.1 -7.85 25.6 -7.95 M30.3 -5.2 L37.75 10.8 Q42.0 19.55 42.0 20.2 42.0 21.25 40.65 21.8 38.6 22.65 31.1 24.1 L24.9 0.6 Q26.3 5.25 29.25 12.15 33.45 21.95 34.8 21.95 36.75 21.95 38.5 21.35 L40.5 20.3 34.85 8.25 30.3 -5.2 M23.05 -2.35 Q24.05 4.05 26.7 12.75 L30.5 25.65 26.65 27.15 24.15 27.65 15.7 26.6 Q14.65 26.6 10.85 27.9 7.0 29.15 0.6 29.15 L-3.95 28.55 -8.6 27.2 Q-12.1 26.2 -15.3 26.2 -24.9 26.5 -26.35 25.95 -19.05 3.6 -18.65 -2.05 -19.1 9.85 -25.15 25.4 L-21.9 25.9 Q-17.1 25.9 -15.15 22.5 -12.7 18.1 -12.05 4.8 -11.6 8.45 -11.15 16.25 -10.85 21.35 -10.05 23.3 -8.95 25.85 -5.7 26.85 -2.5 27.85 4.85 27.85 L7.8 27.65 4.75 6.35 Q5.65 9.9 6.75 12.4 L6.75 12.15 5.15 -1.2 5.3 -5.8 7.75 -5.8 Q7.15 -5.15 6.85 -4.5 6.25 -3.35 6.25 -0.7 6.25 4.4 8.0 13.65 L10.3 25.9 10.35 26.3 18.05 25.05 21.85 25.7 25.9 26.35 Q27.35 26.35 28.45 25.65 27.65 22.95 25.45 11.8 23.2 0.2 23.05 -2.35 M-18.65 -2.4 Q-21.8 11.35 -24.35 18.65 -26.2 23.75 -26.8 23.75 -32.15 23.75 -34.55 22.9 -36.2 22.3 -38.2 20.35 -33.65 13.55 -27.75 -4.55 -29.85 1.5 -30.65 3.35 -33.2 9.25 -38.4 18.3 L-41.05 16.55 -43.65 14.4 -33.5 -1.55 Q-29.9 -8.05 -30.75 -11.8 L-29.6 -11.0 -29.55 -7.65 -27.7 -7.25 -27.75 -4.9 -26.9 -4.5 Q-29.35 5.35 -30.0 6.9 L-35.95 20.0 -31.75 21.05 -28.45 21.75 Q-27.85 21.75 -26.0 16.9 L-18.65 -2.4 M0.65 -2.55 L0.4 -0.4 -1.3 -0.4 -1.6 -5.45 -2.65 -5.5 -4.8 -5.85 -1.1 -5.75 -1.05 -7.25 -1.0 -14.85 -1.0 -15.6 -2.25 -15.65 -6.05 -15.8 -6.5 -15.8 -7.1 -15.9 -9.35 -16.05 -9.35 -16.45 -0.85 -16.05 -0.95 -2.5 -0.2 -1.65 0.45 -7.4 Q0.8 -5.1 0.65 -2.55 M31.25 -10.45 L31.5 -9.5 Q33.9 -10.75 35.0 -12.0 34.9 -7.4 36.2 -4.55 L38.15 -1.05 43.15 6.9 Q47.2 13.1 47.2 14.6 47.2 15.15 46.05 16.5 44.5 18.3 42.35 18.4 38.6 12.55 35.0 2.55 31.85 -6.15 31.25 -10.45 M34.25 -4.85 L35.4 -2.05 41.55 12.45 Q43.1 15.85 43.75 15.85 45.1 15.85 45.4 13.65 L34.25 -4.85 M-26.5 -9.55 L-27.1 -9.9 -26.45 -9.6 -26.5 -9.55 M-31.4 -3.45 L-41.75 13.65 -38.9 15.65 -31.2 -0.75 -31.4 -3.45" fill="#a7a094" fill-rule="evenodd" stroke="none"/>
    <path d="M25.7 -6.95 Q25.95 -4.0 26.6 -3.75 L27.2 -4.35 27.2 -4.65 Q29.7 6.65 32.6 14.1 34.85 19.85 35.6 19.85 L37.7 19.4 Q29.75 -1.0 29.3 -5.4 L30.15 -5.75 30.15 -5.6 30.3 -5.2 34.85 8.25 40.5 20.3 38.5 21.35 Q36.75 21.95 34.8 21.95 33.45 21.95 29.25 12.15 26.3 5.25 24.9 0.6 24.3 -1.2 24.0 -2.7 L23.75 -6.35 25.7 -6.95 M23.0 -2.75 L23.05 -2.35 Q23.2 0.2 25.45 11.8 27.65 22.95 28.45 25.65 27.35 26.35 25.9 26.35 L21.85 25.7 18.05 25.05 10.35 26.3 10.3 25.9 8.0 13.65 Q6.25 4.4 6.25 -0.7 6.25 -3.35 6.85 -4.5 7.15 -5.15 7.75 -5.8 L8.45 -5.85 Q9.25 0.05 11.25 24.2 13.0 24.15 13.9 23.45 L15.6 21.45 17.45 23.15 26.0 24.35 23.3 10.55 Q21.15 -0.05 20.6 -7.05 L22.8 -7.4 23.0 -2.75 M-18.65 -2.05 L-18.65 -2.4 -17.4 -2.15 Q-19.1 15.55 -23.0 24.25 L-21.7 24.5 Q-17.65 24.5 -15.6 16.5 -13.75 6.3 -12.45 1.85 L-12.3 1.05 Q-9.4 11.4 -8.95 21.55 -8.25 24.5 -6.2 25.5 -3.95 26.6 1.75 26.6 L4.55 26.55 3.7 18.05 Q2.8 8.05 2.85 -0.65 L0.85 -0.65 -0.3 10.95 -2.2 -0.45 -2.65 -5.5 -1.6 -5.45 -1.3 -0.4 0.4 -0.4 0.65 -2.55 4.1 -2.2 Q3.85 0.15 4.75 6.35 L7.8 27.65 4.85 27.85 Q-2.5 27.85 -5.7 26.85 -8.95 25.85 -10.05 23.3 -10.85 21.35 -11.15 16.25 -11.6 8.45 -12.05 4.8 -12.7 18.1 -15.15 22.5 -17.1 25.9 -21.9 25.9 L-25.15 25.4 Q-19.1 9.85 -18.65 -2.05 M-21.0 -5.75 Q-21.3 -4.55 -24.2 0.65 -28.85 8.95 -34.1 19.6 L-29.45 20.35 -20.4 -2.8 -18.65 -2.4 -26.0 16.9 Q-27.85 21.75 -28.45 21.75 L-31.75 21.05 -35.95 20.0 -30.0 6.9 Q-29.35 5.35 -26.9 -4.5 L-27.75 -4.9 -27.7 -7.25 -21.0 -5.75 M34.25 -4.85 L45.4 13.65 Q45.1 15.85 43.75 15.85 43.1 15.85 41.55 12.45 L35.4 -2.05 34.25 -4.85 M-26.25 -9.5 L-26.5 -9.55 -26.45 -9.6 -26.25 -9.5 M-31.4 -3.45 L-31.2 -0.75 -38.9 15.65 -41.75 13.65 -31.4 -3.45" fill="#d9d6ca" fill-rule="evenodd" stroke="none"/>
    <path d="M-9.6 -5.85 L-9.6 -6.2 -8.1 -6.05 -9.6 -5.85" fill="#806a46" fill-rule="evenodd" stroke="none"/>
    <path d="M11.75 29.4 Q12.8 29.15 15.7 27.7 L20.05 28.25 Q19.8 30.4 16.8 32.85 12.3 36.4 4.5 36.4 -2.05 36.4 -9.8 33.95 -18.25 31.25 -19.95 27.85 L-15.25 27.3 -10.45 28.85 Q-5.2 30.35 0.05 30.35 8.1 30.35 11.75 29.4 M23.35 28.7 L20.3 31.25 21.2 28.45 23.35 28.7" fill="#978f82" fill-rule="evenodd" stroke="none"/>
    <path d="M18.05 -16.7 L18.15 -16.75 18.65 -16.8 18.7 -16.8 19.1 -16.55 19.2 -16.1 17.65 -15.95 17.75 -16.4 18.05 -16.7 M-6.5 -15.8 L-5.9 -14.9 -7.75 -15.0 -7.1 -15.9 -6.5 -15.8" fill="#7cbe92" fill-rule="evenodd" stroke="none"/>
    <path d="M9.45 -81.95 L5.65 -81.65 6.6 -79.65 2.05 -78.75 Q1.05 -78.75 0.25 -80.0 -0.15 -78.6 -2.55 -77.7 -3.8 -77.2 -5.4 -76.85 L-6.8 -76.05 Q-5.5 -78.35 2.0 -82.15 9.8 -86.05 9.8 -82.95 L9.65 -82.05 9.45 -81.95 M7.3 -85.6 Q8.3 -85.6 8.4 -85.2 -0.05 -82.4 -5.7 -79.55 1.0 -83.95 3.45 -84.95 4.95 -85.6 7.3 -85.6 M13.4 -73.05 L13.25 -72.95 10.2 -72.85 Q9.7 -72.85 8.55 -73.3 L6.9 -73.75 4.9 -72.3 3.55 -72.4 Q3.1 -72.55 2.25 -71.95 1.25 -71.3 0.8 -71.3 L-1.45 -71.1 Q-2.85 -70.35 -3.8 -70.55 L-2.35 -71.65 Q1.85 -74.8 7.55 -74.8 10.5 -74.8 15.3 -73.6 L14.25 -73.3 13.4 -73.05 M10.3 -63.9 L8.65 -64.35 7.7 -64.8 7.55 -62.95 5.75 -63.45 Q3.95 -64.1 3.5 -65.05 L1.05 -64.45 -0.75 -64.35 -2.65 -64.0 Q0.55 -65.4 4.25 -66.05 8.3 -66.75 11.0 -66.2 L11.05 -64.3 Q11.3 -63.9 10.3 -63.9 M0.7 -66.85 L4.55 -67.75 7.3 -68.15 Q9.25 -68.05 10.8 -66.8 L4.7 -66.9 -0.6 -66.45 0.7 -66.85 M18.7 -16.8 L20.0 -16.95 20.9 -16.3 21.0 -16.3 19.2 -16.1 19.1 -16.55 18.7 -16.8 M18.05 -16.7 L17.75 -16.4 17.65 -15.95 7.9 -14.9 11.95 -7.85 Q8.35 -6.95 7.4 -8.45 7.0 -9.1 7.0 -11.8 L7.05 -14.85 5.85 -14.85 6.3 -15.65 18.05 -16.7 M17.65 -15.95 L19.2 -16.1 21.0 -13.6 Q20.8 -9.15 19.15 -8.85 16.35 -9.1 13.9 -8.05 L17.65 -15.95 M31.3 -19.0 L31.3 -19.75 33.4 -21.45 34.25 -21.45 32.6 -20.0 31.3 -19.0 M-28.9 -20.35 L-30.2 -21.2 -29.45 -21.45 -28.35 -20.75 -28.9 -20.35 M-21.15 -15.55 L-17.85 -14.95 -15.55 -9.4 -21.8 -10.8 -21.8 -13.2 -22.95 -13.4 -21.15 -15.55 M-6.5 -15.8 L-6.05 -15.8 -4.35 -14.85 -5.9 -14.9 -6.5 -15.8 M-7.1 -15.9 L-7.75 -15.0 -5.9 -14.9 -4.4 -12.45 -4.7 -8.85 Q-5.0 -8.25 -7.3 -8.25 L-9.55 -8.35 -9.45 -12.7 -7.75 -15.0 -9.35 -15.15 -9.35 -16.05 -7.1 -15.9" fill="#418557" fill-rule="evenodd" stroke="none"/>
    <path d="M11.0 -81.8 L10.9 -81.4 10.65 -81.0 10.05 -80.8 7.9 -81.0 6.5 -81.25 7.75 -79.1 Q6.2 -77.65 0.9 -77.65 -0.1 -77.65 0.15 -79.35 -0.45 -78.05 -5.3 -75.85 -9.3 -74.05 -10.85 -70.8 L-10.75 -71.1 Q-10.45 -73.95 -6.25 -77.3 L-1.2 -80.95 -1.35 -81.0 Q-5.05 -79.05 -6.75 -77.5 -9.0 -75.5 -11.05 -71.7 L-11.35 -71.15 -10.95 -72.1 -10.6 -73.0 Q-9.1 -77.8 -4.05 -81.7 1.25 -85.9 6.8 -85.9 8.1 -85.9 9.4 -85.15 L9.95 -84.75 10.1 -84.6 10.7 -83.9 11.0 -82.75 11.0 -81.8 M9.45 -81.95 L9.65 -82.05 9.8 -82.95 Q9.8 -86.05 2.0 -82.15 -5.5 -78.35 -6.8 -76.05 L-5.4 -76.85 Q-3.8 -77.2 -2.55 -77.7 -0.15 -78.6 0.25 -80.0 1.05 -78.75 2.05 -78.75 L6.6 -79.65 5.65 -81.65 9.45 -81.95 M7.3 -85.6 Q4.95 -85.6 3.45 -84.95 1.0 -83.95 -5.7 -79.55 -0.05 -82.4 8.4 -85.2 8.3 -85.6 7.3 -85.6 M0.85 -70.25 L0.2 -70.9 -0.45 -71.05 Q-4.45 -69.5 -6.1 -68.45 L-5.15 -69.75 Q-3.25 -72.4 0.05 -73.95 3.3 -75.45 6.85 -75.45 L12.5 -74.55 17.0 -73.2 13.45 -72.55 10.3 -72.2 Q9.7 -72.2 8.85 -72.65 L8.1 -73.1 7.45 -72.0 Q7.05 -71.5 6.2 -71.3 L5.35 -71.2 5.2 -71.2 4.9 -71.2 4.7 -71.2 3.6 -71.55 Q2.8 -71.95 2.3 -71.95 1.5 -71.2 1.05 -70.3 L0.95 -70.15 0.85 -70.25 M13.4 -73.05 L14.25 -73.3 15.3 -73.6 Q10.5 -74.8 7.55 -74.8 1.85 -74.8 -2.35 -71.65 L-3.8 -70.55 Q-2.85 -70.35 -1.45 -71.1 L0.8 -71.3 Q1.25 -71.3 2.25 -71.95 3.1 -72.55 3.55 -72.4 L4.9 -72.3 6.9 -73.75 8.55 -73.3 Q9.7 -72.85 10.2 -72.85 L13.25 -72.95 13.4 -73.05 M-3.7 -65.05 L-0.7 -66.7 Q3.2 -68.5 5.9 -68.5 9.15 -68.5 10.55 -67.55 11.8 -66.7 11.8 -64.9 11.8 -63.95 11.35 -63.45 10.4 -62.4 8.15 -64.2 L8.1 -62.35 Q8.0 -62.0 7.3 -62.0 L5.75 -62.1 4.0 -62.35 3.75 -62.45 Q3.4 -62.6 3.1 -63.0 L3.1 -63.05 Q3.1 -64.05 3.25 -64.65 2.5 -63.55 1.5 -63.55 L-1.55 -63.75 Q-4.7 -63.4 -8.0 -60.25 L-7.0 -61.3 Q-5.6 -62.7 -2.5 -64.1 L2.85 -66.2 2.65 -66.35 Q-2.85 -65.85 -7.35 -61.5 -6.45 -62.85 -5.1 -64.0 L-3.7 -65.05 M10.3 -63.9 Q11.3 -63.9 11.05 -64.3 L11.0 -66.2 Q8.3 -66.75 4.25 -66.05 0.55 -65.4 -2.65 -64.0 L-0.75 -64.35 1.05 -64.45 3.5 -65.05 Q3.95 -64.1 5.75 -63.45 L7.55 -62.95 7.7 -64.8 8.65 -64.35 10.3 -63.9 M0.7 -66.85 L-0.6 -66.45 4.7 -66.9 10.8 -66.8 Q9.25 -68.05 7.3 -68.15 L4.55 -67.75 0.7 -66.85 M20.0 -16.95 L22.25 -17.35 22.6 -16.7 20.9 -16.3 20.0 -16.95 M19.2 -16.1 L21.0 -16.3 21.0 -13.6 19.2 -16.1 M6.3 -15.65 L5.85 -14.85 7.05 -14.85 7.0 -11.8 Q7.0 -9.1 7.4 -8.45 8.35 -6.95 11.95 -7.85 L7.9 -14.9 17.65 -15.95 13.9 -8.05 11.95 -7.85 12.25 -7.25 5.95 -6.75 5.85 -14.85 5.15 -14.85 5.15 -15.65 6.3 -15.65 M22.8 -11.15 Q22.7 -7.6 18.5 -7.1 L13.6 -7.3 13.9 -8.05 Q16.35 -9.1 19.15 -8.85 20.8 -9.15 21.0 -13.6 L22.8 -11.15 M30.6 -18.85 Q30.55 -19.3 31.3 -19.75 L31.3 -19.0 30.75 -18.6 30.6 -18.85 M31.4 -17.8 L35.1 -13.35 33.35 -11.9 31.75 -10.75 31.8 -11.35 31.4 -17.8 M-11.2 -47.65 L-13.8 -46.55 -13.95 -46.35 Q-12.65 -48.75 -10.4 -47.8 L-10.0 -47.4 -10.2 -47.5 -11.2 -47.65 M-19.1 -48.05 L-18.0 -46.5 -19.85 -47.45 -21.95 -47.3 Q-20.15 -48.9 -19.1 -48.05 M-25.9 -16.3 L-21.15 -15.55 -22.95 -13.4 -26.15 -14.1 -25.9 -16.3 M-17.85 -14.95 L-13.7 -14.25 -13.85 -9.05 -15.55 -9.4 -15.05 -8.05 -25.6 -10.3 -25.2 -10.75 -21.8 -10.25 -21.8 -10.8 -15.55 -9.4 -17.85 -14.95 M-30.65 -16.1 L-29.65 -13.6 -29.6 -11.95 Q-31.35 -13.5 -31.35 -14.15 L-31.15 -15.2 -30.65 -16.1 M-5.9 -14.9 L-4.35 -14.85 -6.05 -15.8 -2.25 -15.65 -2.2 -14.85 -2.3 -14.85 -4.3 -14.85 -4.4 -12.45 -5.9 -14.9 M-9.35 -15.15 L-7.75 -15.0 -9.45 -12.7 -9.35 -15.15 M-9.55 -8.35 L-7.3 -8.25 Q-5.0 -8.25 -4.7 -8.85 L-4.4 -12.45 -2.45 -9.45 -2.4 -6.75 -9.55 -7.3 -9.55 -8.35" fill="#336945" fill-rule="evenodd" stroke="none"/>
    <path d="M11.4 -82.95 L11.0 -81.8 11.0 -82.75 10.7 -83.9 11.4 -82.95 M10.65 -81.0 L10.35 -80.35 7.6 -80.55 8.65 -79.0 Q7.65 -78.45 5.5 -77.9 L1.65 -77.35 0.65 -77.45 Q0.4 -77.6 0.1 -78.2 -0.35 -77.3 -2.2 -76.75 -5.1 -75.85 -6.9 -74.85 -8.5 -73.45 -10.05 -70.25 -11.8 -66.55 -11.65 -63.65 L-11.6 -58.35 -9.95 -63.95 Q-8.4 -67.05 -4.3 -70.9 -0.1 -74.95 2.2 -75.15 L6.15 -75.65 10.05 -75.75 12.85 -75.15 14.6 -74.55 17.0 -73.5 17.6 -73.25 17.6 -73.0 17.15 -72.8 16.7 -72.8 14.0 -72.2 11.65 -71.9 10.0 -72.05 7.7 -71.8 6.2 -71.3 Q7.05 -71.5 7.45 -72.0 L8.1 -73.1 8.85 -72.65 Q9.7 -72.2 10.3 -72.2 L13.45 -72.55 17.0 -73.2 12.5 -74.55 6.85 -75.45 Q3.3 -75.45 0.05 -73.95 -3.25 -72.4 -5.15 -69.75 L-6.1 -68.45 Q-4.45 -69.5 -0.45 -71.05 L0.2 -70.9 0.85 -70.25 0.55 -70.15 Q-4.95 -70.25 -8.1 -64.5 -9.55 -61.15 -10.2 -58.85 L-10.55 -57.5 Q-9.6 -60.45 -5.1 -64.0 -6.45 -62.85 -7.35 -61.5 -2.85 -65.85 2.65 -66.35 L2.85 -66.2 -2.5 -64.1 Q-5.6 -62.7 -7.0 -61.3 L-8.0 -60.25 Q-4.7 -63.4 -1.55 -63.75 L1.5 -63.55 Q2.5 -63.55 3.25 -64.65 3.1 -64.05 3.1 -63.05 L3.1 -63.0 2.75 -63.7 2.05 -63.05 -0.7 -63.45 Q-2.1 -63.75 -4.7 -62.3 -7.7 -60.7 -9.1 -58.05 L-10.5 -55.35 -12.35 -55.35 -12.8 -63.55 -11.65 -69.1 -11.05 -71.7 Q-9.0 -75.5 -6.75 -77.5 -5.05 -79.05 -1.35 -81.0 L-1.2 -80.95 -6.25 -77.3 Q-10.45 -73.95 -10.75 -71.1 L-10.85 -70.8 Q-9.3 -74.05 -5.3 -75.85 -0.45 -78.05 0.15 -79.35 -0.1 -77.65 0.9 -77.65 6.2 -77.65 7.75 -79.1 L6.5 -81.25 7.9 -81.0 10.05 -80.8 10.65 -81.0 M-19.85 -46.9 L-22.5 -46.45 -22.75 -46.7 -21.45 -47.85 Q-20.35 -48.55 -19.4 -48.5 L-19.15 -48.3 -18.15 -47.45 -17.8 -47.05 Q-16.75 -45.7 -16.6 -44.95 L-16.7 -44.8 -18.8 -46.5 -19.55 -46.85 -19.85 -46.9 M-10.95 -72.1 L-10.2 -74.85 -9.4 -76.05 -7.55 -78.65 -2.8 -82.9 -0.55 -84.4 2.7 -85.6 8.85 -85.9 9.95 -84.75 9.4 -85.15 Q8.1 -85.9 6.8 -85.9 1.25 -85.9 -4.05 -81.7 -9.1 -77.8 -10.6 -73.0 L-10.95 -72.1 M-32.1 -13.1 Q-32.55 -13.85 -32.6 -14.95 -32.65 -16.45 -32.15 -19.85 L-30.65 -16.1 -31.15 -15.2 -31.35 -14.15 Q-31.35 -13.5 -29.6 -11.95 L-29.6 -11.0 -30.75 -11.8 -32.1 -13.1 M1.05 -70.3 Q1.5 -71.2 2.3 -71.95 2.8 -71.95 3.6 -71.55 L4.7 -71.2 2.5 -71.25 1.85 -70.8 1.05 -70.3 M4.0 -62.35 L5.75 -62.1 7.3 -62.0 Q8.0 -62.0 8.1 -62.35 L8.15 -64.2 Q10.4 -62.4 11.35 -63.45 11.8 -63.95 11.8 -64.9 11.8 -66.7 10.55 -67.55 9.15 -68.5 5.9 -68.5 3.2 -68.5 -0.7 -66.7 L-3.7 -65.05 Q2.6 -69.55 6.1 -68.85 L10.0 -68.3 Q10.9 -67.6 11.6 -66.35 L12.15 -65.05 Q12.15 -64.4 11.5 -63.6 L10.1 -62.35 8.6 -63.4 8.7 -61.9 6.85 -61.7 4.0 -62.35 M22.25 -17.35 L24.75 -17.75 24.85 -16.85 22.6 -16.7 22.25 -17.35 M5.3 -5.8 L5.15 -5.8 5.15 -14.85 5.85 -14.85 5.95 -6.75 12.25 -7.25 12.8 -6.2 8.45 -5.85 7.75 -5.8 5.3 -5.8 M13.05 -6.2 L13.6 -7.3 18.5 -7.1 Q22.7 -7.6 22.8 -11.15 L25.1 -7.85 22.8 -7.4 20.6 -7.05 13.05 -6.2 M35.1 -13.35 L35.6 -12.7 35.0 -12.0 Q33.9 -10.75 31.5 -9.5 L31.25 -10.45 30.6 -18.55 30.75 -18.6 31.4 -17.8 31.8 -11.35 31.75 -10.75 33.35 -11.9 35.1 -13.35 M-13.85 -47.35 Q-12.55 -48.8 -11.55 -48.8 -10.45 -48.8 -9.2 -46.85 L-9.3 -46.7 Q-11.4 -47.0 -14.95 -44.65 L-15.25 -44.95 -13.85 -47.35 M-11.2 -47.65 L-10.2 -47.5 -10.0 -47.4 -10.4 -47.8 Q-12.65 -48.75 -13.95 -46.35 L-13.8 -46.55 -11.2 -47.65 M-19.1 -48.05 Q-20.15 -48.9 -21.95 -47.3 L-19.85 -47.45 -18.0 -46.5 -19.1 -48.05 M-14.55 -6.9 L-26.25 -9.5 -25.6 -10.3 -15.05 -8.05 -14.55 -6.9 M-2.25 -15.65 L-1.0 -15.6 -1.0 -14.85 -2.2 -14.85 -2.25 -15.65 M-1.05 -7.25 L-1.1 -5.75 -4.8 -5.85 -8.1 -6.05 -9.6 -6.2 -9.55 -7.3 -2.4 -6.75 -2.45 -9.45 -1.05 -7.25" fill="#1e3e28" fill-rule="evenodd" stroke="none"/>
    <path d="M35.4 -23.7 L36.55 -15.75 Q36.6 -14.35 36.3 -13.7 L35.6 -12.7 35.1 -13.35 35.4 -15.2 34.35 -21.5 Q34.35 -22.25 34.75 -22.65 35.25 -23.1 35.4 -23.7 M-32.15 -19.85 L-31.55 -23.9 -30.8 -22.7 Q-30.25 -21.75 -30.25 -20.45 -30.25 -17.8 -30.65 -16.1 L-32.15 -19.85 M24.85 -16.85 L25.6 -7.95 25.1 -7.85 22.8 -11.15 22.6 -16.7 24.85 -16.85 M12.8 -6.2 L12.25 -7.25 13.6 -7.3 13.05 -6.2 12.8 -6.2 M30.75 -18.6 L31.3 -19.0 31.4 -17.8 30.75 -18.6 M-13.9 -7.9 L-14.0 -6.8 -14.55 -6.9 -15.05 -8.05 -13.9 -7.9 M-27.1 -9.9 L-27.1 -10.75 -25.6 -10.3 -26.25 -9.5 -26.45 -9.6 -27.1 -9.9 M-1.0 -14.85 L-1.05 -7.25 -2.45 -9.45 -2.3 -14.85 -2.2 -14.85 -1.0 -14.85" fill="#0f2014" fill-rule="evenodd" stroke="none"/>
    <path d="M-30.4 -25.2 L-30.4 -24.45 -30.6 -22.9 -30.5 -22.35 -30.4 -22.6 -29.45 -21.45 -30.2 -21.2 -28.9 -20.35 -29.3 -19.3 Q-29.7 -17.45 -29.65 -13.6 L-30.65 -16.1 Q-30.25 -17.8 -30.25 -20.45 -30.25 -21.75 -30.8 -22.7 L-31.55 -23.9 -31.2 -24.8 Q-30.9 -25.2 -30.4 -25.2 M33.6 -21.7 L34.25 -23.55 34.7 -24.3 34.8 -23.9 35.4 -23.7 Q35.25 -23.1 34.75 -22.65 34.35 -22.25 34.35 -21.5 L35.4 -15.2 35.1 -13.35 31.4 -17.8 31.3 -19.0 32.6 -20.0 34.25 -21.45 33.4 -21.45 33.55 -21.65 33.6 -21.7 M21.0 -16.3 L20.9 -16.3 22.6 -16.7 22.8 -11.15 21.0 -13.6 21.0 -16.3 M12.25 -7.25 L11.95 -7.85 13.9 -8.05 13.6 -7.3 12.25 -7.25 M-26.15 -14.1 L-27.1 -14.4 -27.1 -16.55 -25.9 -16.3 -26.15 -14.1 M-13.85 -9.05 L-13.9 -7.9 -15.05 -8.05 -15.55 -9.4 -13.85 -9.05 M-27.1 -10.75 L-27.1 -11.15 -25.2 -10.75 -25.6 -10.3 -27.1 -10.75 M-4.4 -12.45 L-4.3 -14.85 -2.3 -14.85 -2.45 -9.45 -4.4 -12.45" fill="#254b32" fill-rule="evenodd" stroke="none"/>
    <path d="M30.6 -18.85 L30.75 -18.6 30.6 -18.55 30.6 -18.85" fill="#40066f" fill-rule="evenodd" stroke="none"/>
    <path d="M-21.0 -5.75 L-27.7 -7.25 -29.55 -7.65 -29.6 -11.0 -29.6 -11.95 -29.65 -13.6 Q-29.7 -17.45 -29.3 -19.3 L-28.9 -20.35 -28.35 -20.75 Q-27.5 -21.45 -25.9 -21.15 L-9.3 -18.4 -9.3 -17.75 -9.35 -16.45 -9.35 -16.05 -9.35 -15.15 -9.45 -12.7 -9.55 -8.35 -9.55 -7.3 -9.6 -6.2 -9.6 -5.85 -10.1 -4.75 -10.55 -4.25 -14.65 -4.35 -21.0 -5.75 M-9.95 -17.5 L-27.4 -20.4 -28.7 -19.45 -28.9 -8.05 -11.55 -4.5 -10.3 -5.5 -9.95 -17.5 M-25.9 -16.3 L-27.1 -16.55 -27.1 -14.4 -26.15 -14.1 -22.95 -13.4 -21.8 -13.2 -21.8 -10.8 -21.8 -10.25 -25.2 -10.75 -27.1 -11.15 -27.1 -10.75 -27.1 -9.9 -26.5 -9.55 -26.25 -9.5 -14.55 -6.9 -14.0 -6.8 -13.9 -7.9 -13.85 -9.05 -13.7 -14.25 -17.85 -14.95 -21.15 -15.55 -25.9 -16.3 M-27.6 -13.35 L-27.6 -12.25 -22.55 -11.15 -22.55 -12.4 -27.6 -13.35 M-27.9 -8.95 L-27.9 -17.65 -12.8 -14.65 -13.2 -5.8 -27.9 -8.95" fill="#422311" fill-rule="evenodd" stroke="none"/>
    <path d="M-28.7 -19.45 L-27.4 -20.4 -9.95 -17.5 -11.25 -16.2 -28.7 -19.45" fill="#bb6540" fill-rule="evenodd" stroke="none"/>
    <path d="M-28.7 -19.45 L-11.25 -16.2 -11.55 -4.5 -28.9 -8.05 -28.7 -19.45 M-27.6 -13.35 L-22.55 -12.4 -22.55 -11.15 -27.6 -12.25 -27.6 -13.35 M-27.9 -8.95 L-13.2 -5.8 -12.8 -14.65 -27.9 -17.65 -27.9 -8.95" fill="#8c4b24" fill-rule="evenodd" stroke="none"/>
    <path d="M-11.25 -16.2 L-9.95 -17.5 -10.3 -5.5 -11.55 -4.5 -11.25 -16.2" fill="#78411f" fill-rule="evenodd" stroke="none"/>
    <path d="M-17.0 -33.6 L-18.1 -34.9 -18.15 -35.0 -17.9 -35.3 -17.75 -35.2 -17.3 -35.05 -12.0 -34.9 -11.9 -34.9 -10.25 -35.2 -8.5 -35.75 Q-8.2 -36.8 -8.05 -39.05 L-8.25 -38.85 -9.5 -37.8 -11.1 -37.05 -17.55 -36.5 -18.25 -36.55 Q-18.9 -36.55 -19.35 -37.1 -19.85 -37.7 -19.85 -38.55 L-19.35 -38.45 -18.8 -37.25 -15.25 -36.95 Q-11.8 -36.95 -9.7 -38.2 -8.6 -38.85 -7.7 -40.1 L-7.55 -40.1 -7.45 -38.95 Q-7.45 -35.35 -8.95 -34.85 L-12.55 -34.25 -16.45 -34.4 -17.0 -34.45 -17.15 -34.5 Q-15.65 -33.3 -15.05 -33.0 L-15.1 -32.3 -17.0 -33.6 M-20.3 -44.25 L-19.85 -46.9 -19.55 -46.85 -20.0 -44.35 -20.3 -44.25 M-19.4 -48.5 Q-19.05 -50.25 -17.85 -52.0 -16.5 -54.0 -14.7 -54.6 L-12.35 -55.35 -10.5 -55.35 Q-7.05 -55.35 -4.6 -52.85 -2.2 -50.4 -2.2 -46.9 L-2.05 -44.95 -2.3 -41.85 -3.6 -38.65 Q-4.8 -35.95 -5.15 -35.5 L-6.25 -34.25 -9.15 -32.4 Q-11.1 -31.4 -12.6 -31.75 L-12.45 -32.5 Q-8.55 -32.5 -5.8 -35.6 -3.05 -38.7 -3.05 -43.1 -2.95 -45.0 -3.2 -46.8 -3.95 -49.7 -6.0 -52.15 -8.3 -54.9 -10.7 -54.9 -13.45 -54.9 -15.95 -52.75 -17.7 -51.2 -18.65 -49.35 L-19.15 -48.3 -19.4 -48.5" fill="#623333" fill-rule="evenodd" stroke="none"/>
    <path d="M-16.75 -50.5 L-16.55 -50.55 -17.8 -47.95 -18.15 -47.45 -19.15 -48.3 -18.65 -49.35 -16.75 -50.5 M-7.35 -49.6 L-7.1 -49.45 -4.65 -47.9 -3.2 -46.8 Q-2.95 -45.0 -3.05 -43.1 -3.15 -43.45 -6.8 -45.6 L-6.75 -45.6 Q-6.8 -48.0 -7.35 -49.6" fill="#d58e9c" fill-rule="evenodd" stroke="none"/>
    <path d="M-16.55 -50.55 L-14.85 -50.85 -11.05 -50.75 -7.35 -49.6 Q-6.8 -48.0 -6.75 -45.6 L-6.8 -45.6 -6.8 -45.5 -9.3 -46.7 -9.2 -46.85 Q-10.45 -48.8 -11.55 -48.8 -12.55 -48.8 -13.85 -47.35 L-17.8 -47.05 -18.15 -47.45 -17.8 -47.95 -16.55 -50.55" fill="#e4a4b2" fill-rule="evenodd" stroke="none"/>
    <path d="M-6.8 -45.5 Q-6.8 -42.55 -7.5 -40.3 L-7.55 -40.25 -7.7 -40.1 Q-8.6 -38.85 -9.7 -38.2 -11.8 -36.95 -15.25 -36.95 L-18.8 -37.25 -19.35 -38.45 -19.2 -38.5 -18.65 -38.15 -17.8 -38.05 Q-15.55 -38.05 -15.55 -41.2 L-14.75 -39.3 Q-13.75 -37.7 -12.0 -37.7 -10.2 -37.7 -9.1 -38.95 -8.1 -40.1 -8.1 -41.75 -8.1 -43.35 -9.4 -44.45 -10.6 -45.45 -12.05 -45.45 -12.85 -45.45 -13.95 -44.75 -15.05 -44.1 -16.05 -44.1 L-17.65 -44.5 -19.6 -44.8 -19.1 -46.05 -18.8 -46.5 -16.7 -44.8 -16.6 -44.95 Q-16.75 -45.7 -17.8 -47.05 L-13.85 -47.35 -15.25 -44.95 -14.95 -44.65 Q-11.4 -47.0 -9.3 -46.7 L-6.8 -45.5 M-12.55 -34.25 L-16.45 -34.4 -12.55 -34.25" fill="#f4f1e8" fill-rule="evenodd" stroke="none"/>
    <path d="M-3.05 -43.1 Q-3.05 -38.7 -5.8 -35.6 -8.55 -32.5 -12.45 -32.5 -12.6 -33.05 -12.9 -32.95 -13.15 -32.0 -13.65 -31.15 L-14.6 -30.05 Q-15.3 -29.5 -16.15 -29.5 L-17.0 -29.6 -17.4 -29.95 -17.05 -29.75 -15.6 -30.2 Q-14.45 -30.8 -14.45 -31.7 -14.45 -32.5 -14.95 -33.0 L-15.05 -33.0 Q-15.65 -33.3 -17.15 -34.5 L-17.0 -34.45 -16.45 -34.4 -12.55 -34.25 -8.95 -34.85 Q-7.45 -35.35 -7.45 -38.95 L-7.55 -40.1 -7.55 -40.25 -7.5 -40.3 Q-6.8 -42.55 -6.8 -45.5 L-6.8 -45.6 Q-3.15 -43.45 -3.05 -43.1 M-15.55 -41.2 Q-13.65 -38.3 -12.3 -38.3 -10.95 -38.3 -9.8 -39.4 -8.7 -40.5 -8.7 -41.75 -8.7 -42.6 -9.35 -43.5 -10.35 -44.9 -12.3 -44.9 L-14.1 -44.25 Q-15.15 -43.6 -16.8 -43.6 L-18.2 -44.0 -20.0 -44.35 -19.55 -46.85 -18.8 -46.5 -19.1 -46.05 -19.6 -44.8 -17.65 -44.5 -16.05 -44.1 Q-15.05 -44.1 -13.95 -44.75 -12.85 -45.45 -12.05 -45.45 -10.6 -45.45 -9.4 -44.45 -8.1 -43.35 -8.1 -41.75 -8.1 -40.1 -9.1 -38.95 -10.2 -37.7 -12.0 -37.7 -13.75 -37.7 -14.75 -39.3 L-15.55 -41.2 Q-15.55 -38.05 -17.8 -38.05 L-18.65 -38.15 -19.2 -38.5 Q-17.05 -38.95 -16.3 -40.5 -15.95 -41.2 -15.95 -42.15 L-15.55 -41.2" fill="#e7e0cb" fill-rule="evenodd" stroke="none"/>
    <path d="M-20.25 -38.7 L-21.6 -40.3 -22.2 -41.3 Q-22.2 -43.0 -20.3 -44.25 L-20.0 -44.35 -18.2 -44.0 -16.8 -43.6 Q-15.15 -43.6 -14.1 -44.25 L-12.3 -44.9 Q-10.35 -44.9 -9.35 -43.5 -8.7 -42.6 -8.7 -41.75 -8.7 -40.5 -9.8 -39.4 -10.95 -38.3 -12.3 -38.3 -13.65 -38.3 -15.55 -41.2 L-15.95 -42.15 Q-15.95 -41.2 -16.3 -40.5 -17.05 -38.95 -19.2 -38.5 L-19.35 -38.45 -19.85 -38.55 -20.25 -38.7 M-11.0 -43.6 L-11.95 -43.85 Q-13.1 -43.85 -13.9 -43.0 -14.75 -42.15 -14.75 -40.95 L-14.3 -39.95 -13.4 -39.15 -12.4 -38.9 Q-11.35 -38.9 -10.6 -39.8 -9.85 -40.75 -9.85 -42.1 L-10.2 -42.9 -11.0 -43.6 M-16.9 -41.9 L-17.25 -42.6 -17.95 -43.2 -18.85 -43.5 Q-19.9 -43.5 -20.65 -42.7 -21.4 -41.9 -21.4 -40.8 L-20.95 -39.95 -20.15 -39.15 -19.3 -38.95 Q-18.3 -38.95 -17.6 -39.8 -16.9 -40.7 -16.9 -41.9" fill="#3c3c3c" fill-rule="evenodd" stroke="none"/>
    <path d="M-11.95 -43.85 L-14.75 -40.95 Q-14.75 -42.15 -13.9 -43.0 -13.1 -43.85 -11.95 -43.85 M-14.3 -39.95 L-11.0 -43.6 -10.2 -42.9 -13.4 -39.15 -14.3 -39.95 M-9.85 -42.1 Q-9.85 -40.75 -10.6 -39.8 -11.35 -38.9 -12.4 -38.9 L-9.85 -42.1 M-17.25 -42.6 L-20.15 -39.15 -20.95 -39.95 -17.95 -43.2 -17.25 -42.6 M-19.3 -38.95 L-16.9 -41.9 Q-16.9 -40.7 -17.6 -39.8 -18.3 -38.95 -19.3 -38.95 M-18.85 -43.5 L-21.4 -40.8 Q-21.4 -41.9 -20.65 -42.7 -19.9 -43.5 -18.85 -43.5" fill="#d5e3ec" fill-rule="evenodd" stroke="none"/>
    <path d="M-8.25 -38.85 L-8.05 -39.05 Q-8.2 -36.8 -8.5 -35.75 -8.9 -36.8 -8.25 -38.85" fill="#98898a" fill-rule="evenodd" stroke="none"/>
    <path d="M-8.25 -38.85 Q-8.9 -36.8 -8.5 -35.75 L-10.25 -35.2 Q-10.55 -35.5 -11.6 -35.9 L-11.5 -36.35 -9.5 -37.8 -8.25 -38.85 M-11.9 -34.9 L-12.0 -34.9 Q-12.85 -35.35 -14.2 -35.45 L-15.3 -35.65 Q-15.3 -35.1 -16.1 -35.25 L-16.85 -35.2 -16.55 -35.75 -17.2 -35.85 -17.2 -36.15 Q-15.5 -35.1 -15.5 -36.35 -15.5 -35.75 -15.2 -35.7 L-14.2 -35.75 Q-13.7 -35.75 -13.55 -35.9 L-12.9 -36.05 -12.1 -35.85 -12.85 -35.75 -11.9 -34.9" fill="#aa9e9f" fill-rule="evenodd" stroke="none"/>
    <path d="M-7.55 -40.25 L-7.55 -40.1 -7.7 -40.1 -7.55 -40.25" fill="#5f2525" fill-rule="evenodd" stroke="none"/>
    <path d="M-11.95 -43.85 L-11.0 -43.6 -14.3 -39.95 -14.75 -40.95 -11.95 -43.85 M-10.2 -42.9 L-9.85 -42.1 -12.4 -38.9 -13.4 -39.15 -10.2 -42.9 M-17.25 -42.6 L-16.9 -41.9 -19.3 -38.95 -20.15 -39.15 -17.25 -42.6 M-17.95 -43.2 L-20.95 -39.95 -21.4 -40.8 -18.85 -43.5 -17.95 -43.2" fill="#fbfcfd" fill-rule="evenodd" stroke="none"/>
    <path d="M-10.25 -35.2 L-11.9 -34.9 -12.85 -35.75 -12.1 -35.85 -12.9 -36.05 -13.55 -35.9 Q-13.7 -35.75 -14.2 -35.75 L-15.2 -35.7 Q-15.5 -35.75 -15.5 -36.35 -15.5 -35.1 -17.2 -36.15 L-17.55 -36.5 -11.1 -37.05 -9.5 -37.8 -11.5 -36.35 -11.6 -35.9 Q-10.55 -35.5 -10.25 -35.2 M-12.0 -34.9 L-17.3 -35.05 -17.2 -35.85 -16.55 -35.75 -16.85 -35.2 -16.1 -35.25 Q-15.3 -35.1 -15.3 -35.65 L-14.2 -35.45 Q-12.85 -35.35 -12.0 -34.9" fill="#ffffff" fill-rule="evenodd" stroke="none"/>
    <path d="M-17.7 -29.6 Q-19.4 -30.8 -19.75 -30.8 -20.8 -30.8 -21.45 -30.15 -22.15 -29.5 -22.15 -28.4 L-22.05 -27.45 -20.55 -27.25 -20.05 -27.45 -19.8 -28.6 -21.0 -28.8 -21.15 -28.9 Q-21.15 -29.25 -20.3 -29.35 L-19.35 -29.15 -19.2 -28.45 -19.65 -27.45 Q-20.0 -26.8 -20.4 -26.8 -22.6 -26.8 -22.6 -28.35 -22.6 -30.35 -21.0 -31.25 -19.2 -32.25 -17.5 -30.65 -16.5 -30.65 -15.8 -31.1 -15.1 -31.6 -15.1 -32.3 L-15.05 -33.0 -14.95 -33.0 Q-14.45 -32.5 -14.45 -31.7 -14.45 -30.8 -15.6 -30.2 L-17.05 -29.75 -17.4 -29.95 -17.0 -29.6 -17.7 -29.6 M-12.45 -32.5 L-12.6 -31.75 Q-12.6 -30.85 -14.1 -30.2 L-14.6 -30.05 -13.65 -31.15 Q-13.15 -32.0 -12.9 -32.95 -12.6 -33.05 -12.45 -32.5" fill="#d3c8a3" fill-rule="evenodd" stroke="none"/>
    <path d="M-17.75 -35.2 L-17.75 -35.65 Q-17.8 -36.1 -18.1 -36.4 L-18.25 -36.55 -17.55 -36.5 -17.2 -36.15 -17.2 -35.85 -17.3 -35.05 -17.75 -35.2" fill="#3d3838" fill-rule="evenodd" stroke="none"/>
  </g>
</svg>
