<?xml version="1.0" encoding="UTF-8" standalone="no"?>
<svg xmlns:ffdec="https://www.free-decompiler.com/flash" xmlns:xlink="http://www.w3.org/1999/xlink" ffdec:objectType="shape" height="125.8px" width="197.5px" xmlns="http://www.w3.org/2000/svg">
  <g transform="matrix(1.0, 0.0, 0.0, 1.0, 78.1, 133.1)">
    <path d="M3.3 -85.35 L3.7 -85.85 3.2 -96.4 5.25 -85.95 8.0 -85.25 8.0 -88.6 7.8 -92.2 7.6 -93.95 7.45 -95.1 Q5.5 -109.3 -3.5 -121.8 7.6 -110.75 10.05 -96.05 L10.25 -94.95 10.55 -92.5 10.75 -89.65 10.75 -86.2 Q10.7 -85.15 11.0 -84.1 L12.5 -84.75 13.5 -84.3 13.95 -83.3 14.75 -87.2 15.1 -91.8 15.15 -93.5 15.1 -93.6 14.9 -96.3 14.75 -97.35 14.3 -100.15 Q13.75 -102.55 14.65 -105.15 L15.75 -97.5 15.8 -96.5 15.95 -95.0 16.05 -93.55 16.2 -90.7 16.2 -86.25 16.2 -84.25 16.15 -83.25 19.45 -79.35 20.55 -86.85 21.4 -86.7 21.7 -85.05 Q21.4 -84.15 21.4 -83.3 21.25 -81.05 22.4 -79.0 L22.8 -78.3 22.85 -78.3 24.15 -78.45 24.05 -81.7 23.95 -88.6 23.95 -89.7 24.5 -100.45 26.0 -78.35 29.95 -75.75 30.45 -97.2 30.65 -96.2 30.95 -95.0 31.0 -94.4 31.4 -91.6 31.75 -88.55 31.95 -86.0 32.05 -84.5 32.1 -83.15 32.1 -77.2 32.1 -76.5 32.15 -77.15 34.6 -75.85 34.3 -75.2 32.05 -76.2 31.9 -74.55 33.3 -74.95 33.65 -73.0 34.25 -72.55 35.7 -74.7 36.6 -73.45 36.05 -71.3 37.8 -70.8 37.9 -70.3 38.05 -70.0 38.25 -69.8 38.35 -69.85 38.6 -69.9 39.3 -67.8 39.45 -67.9 40.0 -68.8 40.65 -69.85 42.1 -71.8 42.15 -71.8 45.25 -75.7 47.35 -78.3 47.95 -79.1 48.5 -79.8 Q52.9 -85.45 56.9 -86.85 L49.75 -79.3 48.4 -77.95 47.8 -77.25 45.4 -74.3 43.75 -71.9 42.1 -69.1 41.5 -67.85 41.05 -66.95 40.9 -66.55 39.05 -67.15 39.05 -68.15 39.1 -68.2 39.05 -68.2 37.2 -68.4 Q35.3 -68.75 34.9 -69.7 L35.25 -70.55 33.85 -71.0 33.7 -71.0 32.45 -71.05 31.0 -72.25 29.8 -72.25 29.1 -73.8 27.4 -74.85 Q25.65 -75.8 23.6 -75.8 L23.3 -75.85 Q21.5 -76.5 20.5 -77.65 L19.35 -78.85 18.6 -78.7 17.35 -79.45 16.65 -79.9 16.15 -79.6 15.15 -79.75 13.65 -80.55 10.95 -81.9 9.95 -81.3 8.65 -83.05 7.65 -82.8 4.65 -84.55 3.3 -85.35 M20.85 -88.5 L20.5 -89.75 21.4 -90.85 23.45 -93.45 23.65 -91.7 22.1 -89.9 20.85 -88.5 M20.3 -89.55 L19.6 -88.0 19.2 -86.7 17.95 -85.3 18.85 -84.7 18.75 -83.8 18.75 -81.6 Q18.05 -83.5 17.65 -85.5 L17.95 -85.3 17.6 -85.55 17.35 -86.5 20.3 -89.55 M16.65 -96.15 L16.6 -96.65 16.95 -96.75 16.65 -96.15 M37.45 -103.15 L36.7 -109.75 37.9 -114.05 37.9 -114.2 37.95 -113.85 38.7 -98.1 37.45 -103.15 M66.55 -59.9 L60.3 -55.0 61.15 -55.45 60.1 -54.65 61.45 -54.45 62.2 -53.25 Q75.1 -63.4 91.2 -62.05 77.95 -62.7 67.45 -55.2 L64.8 -52.75 63.65 -51.6 64.3 -51.1 Q69.5 -51.6 74.15 -54.5 L74.75 -54.9 74.4 -54.55 72.3 -52.65 66.65 -50.4 67.25 -49.45 66.1 -48.85 67.65 -46.65 71.5 -50.4 Q84.75 -53.1 98.25 -52.8 L102.85 -51.4 91.45 -51.45 Q80.65 -51.9 71.0 -47.9 70.75 -47.8 70.65 -47.45 L70.7 -46.9 67.35 -43.15 66.1 -45.35 65.95 -45.55 64.85 -46.1 64.05 -46.6 61.95 -48.35 Q59.65 -50.45 59.1 -52.9 L59.0 -53.4 58.35 -52.9 58.2 -52.9 57.55 -52.9 54.6 -56.95 54.05 -57.6 53.95 -57.8 66.95 -64.4 56.75 -57.45 58.0 -56.15 63.7 -59.3 65.45 -59.95 66.05 -60.0 66.55 -59.9 M107.5 -50.0 L110.95 -49.0 Q114.8 -46.95 117.75 -43.8 L119.35 -42.1 118.4 -41.1 116.35 -42.25 107.5 -50.0 M80.0 -44.95 Q78.7 -42.85 75.2 -41.75 L73.95 -41.05 72.0 -40.3 71.25 -40.65 80.0 -44.95 M94.35 -38.0 L94.9 -38.05 97.05 -37.6 98.55 -36.75 Q91.7 -37.4 85.1 -35.3 L83.5 -35.15 Q88.3 -37.85 94.35 -38.0 M112.45 -20.2 L114.15 -17.6 114.55 -16.9 114.65 -16.7 114.95 -16.05 Q115.65 -13.6 115.95 -11.05 L115.9 -8.05 Q113.8 -15.5 109.25 -21.7 L106.9 -24.3 104.35 -26.25 Q94.25 -33.25 82.05 -32.6 L78.45 -32.45 78.8 -32.95 Q98.85 -35.65 112.1 -20.65 L112.45 -20.2 M-75.7 -101.5 L-73.3 -103.55 -63.35 -108.2 Q-53.85 -108.15 -47.25 -100.6 L-44.95 -98.05 -45.2 -96.55 -45.65 -96.25 Q-58.25 -113.6 -75.3 -100.4 -75.8 -100.1 -76.4 -99.9 L-75.7 -101.5 M-50.45 -107.45 L-51.95 -109.05 -55.05 -112.0 -62.0 -117.35 -63.2 -118.3 Q-64.1 -119.3 -64.5 -120.6 L-64.6 -121.2 Q-48.75 -112.6 -41.0 -97.05 L-40.85 -96.35 Q-45.3 -102.25 -50.45 -107.45 M-49.7 -117.55 Q-44.6 -114.0 -40.85 -109.05 L-38.55 -106.1 -34.45 -97.7 -35.3 -96.7 Q-38.25 -105.25 -44.45 -112.3 L-49.7 -117.55 M-24.3 -95.95 L-23.8 -95.45 -20.8 -91.1 -23.95 -92.25 -24.8 -92.55 -25.05 -93.15 Q-25.75 -95.0 -26.8 -96.5 -30.3 -101.55 -34.3 -106.15 -33.4 -105.75 -32.55 -105.15 L-29.6 -102.5 Q-26.65 -99.45 -24.3 -95.95 M-37.95 -116.45 Q-29.0 -110.35 -22.7 -101.5 L-19.45 -97.35 -17.05 -92.15 -17.6 -91.8 -17.05 -90.9 -17.4 -91.2 -18.15 -91.95 -18.65 -92.8 Q-28.25 -110.15 -45.75 -120.15 L-49.3 -122.15 -37.95 -116.45 M-18.15 -102.8 L-21.4 -108.35 Q-24.8 -113.0 -29.1 -116.55 L-31.2 -118.2 -29.95 -118.5 -22.3 -113.0 Q-16.15 -104.35 -12.65 -94.35 L-12.6 -94.2 Q-13.5 -93.85 -14.0 -94.85 L-18.15 -102.8 M-7.8 -94.5 L-7.8 -94.7 -8.2 -97.2 Q-11.15 -117.65 -28.25 -128.05 L-29.0 -128.4 Q-18.9 -125.3 -13.45 -115.2 L-12.25 -113.15 -8.6 -104.2 -4.75 -88.0 -4.5 -88.35 -4.2 -88.75 -3.6 -89.25 -2.1 -89.45 -1.95 -89.4 -1.3 -87.0 -5.8 -87.35 -7.8 -94.5 M0.9 -85.75 L-2.4 -98.1 1.7 -85.7 0.9 -85.75 M43.7 -82.8 Q43.8 -83.25 44.05 -83.5 44.35 -83.85 44.65 -83.75 L46.8 -79.6 44.85 -77.3 44.75 -77.5 43.7 -82.8 M37.5 -74.35 L39.65 -73.1 38.2 -72.55 37.45 -73.8 37.5 -74.35 M40.45 -72.7 L41.3 -72.3 40.65 -71.2 40.45 -72.7 M41.0 -66.55 L44.3 -68.55 45.0 -65.35 45.15 -65.5 Q46.9 -68.75 49.35 -71.3 L50.1 -72.2 Q54.55 -76.7 60.75 -79.0 54.7 -75.2 50.55 -69.55 L50.2 -69.05 49.7 -68.1 49.8 -66.45 49.35 -66.35 49.0 -66.8 48.4 -65.1 50.35 -64.45 50.95 -63.35 50.95 -63.3 Q63.4 -74.35 80.2 -78.05 65.05 -71.65 52.0 -61.75 L53.05 -59.95 55.35 -60.35 55.7 -59.25 53.85 -57.9 53.75 -57.9 52.25 -57.05 52.75 -58.5 52.35 -58.6 52.15 -58.6 52.1 -58.65 49.15 -59.5 48.5 -59.75 47.1 -61.2 48.15 -61.35 48.95 -61.5 49.0 -61.55 48.8 -61.65 Q48.25 -61.9 47.65 -62.2 L47.25 -62.35 45.65 -63.5 44.15 -63.65 43.65 -64.7 43.1 -65.05 Q42.4 -65.15 41.85 -65.85 L41.7 -66.55 41.6 -66.85 41.45 -66.7 41.2 -66.55 41.0 -66.55 M45.05 -71.9 L42.9 -69.15 48.0 -76.7 49.2 -72.05 45.05 -67.65 47.6 -73.05 Q46.1 -73.35 45.05 -71.9 M32.2 -90.1 L31.6 -94.7 33.2 -93.95 32.6 -91.45 32.2 -90.1 M37.35 -91.4 L38.05 -90.95 Q37.5 -83.6 35.0 -76.75 L35.1 -83.2 36.7 -84.7 37.15 -87.5 37.35 -91.4 M26.15 -94.75 L26.0 -96.45 27.3 -96.15 26.15 -94.75 M29.8 -92.1 Q29.5 -86.5 28.3 -81.2 L27.35 -79.75 27.9 -79.5 27.6 -78.55 26.1 -79.85 26.55 -85.25 27.25 -86.4 29.8 -92.1 M24.05 -81.7 L24.05 -81.1 21.95 -81.15 21.85 -83.0 24.05 -81.7 M11.3 -92.4 L10.7 -95.1 13.2 -95.9 13.65 -91.15 12.2 -88.65 13.95 -87.65 13.95 -86.6 12.45 -84.8 11.55 -91.2 11.45 -92.45 11.3 -92.4 M1.95 -88.95 L1.6 -90.75 2.5 -91.35 2.45 -89.25 1.95 -88.95 M6.7 -93.55 Q6.9 -90.1 6.6 -86.6 L5.15 -92.8 6.7 -93.55 M21.2 -42.8 Q26.85 -39.9 32.1 -36.4 L19.95 -45.9 43.15 -33.0 46.85 -30.45 47.85 -31.45 47.4 -32.45 Q50.7 -33.5 55.8 -34.05 64.05 -35.05 69.35 -41.35 L70.15 -40.6 71.45 -38.2 66.0 -35.75 65.25 -37.1 60.8 -34.15 54.8 -32.3 54.0 -33.3 52.25 -32.25 52.7 -31.65 44.9 -28.45 44.7 -27.35 45.5 -26.8 Q50.75 -25.85 56.0 -28.4 L56.0 -27.1 Q56.65 -26.6 57.45 -26.65 59.9 -26.8 59.75 -29.2 L59.25 -29.7 63.9 -31.8 64.95 -31.9 Q65.4 -32.15 65.5 -32.6 L71.0 -35.45 63.85 -28.4 68.85 -29.8 Q67.35 -25.9 63.05 -24.45 L60.3 -23.5 Q53.6 -21.05 34.45 -19.85 L30.15 -21.0 Q30.4 -34.35 21.2 -42.8 M-13.9 -57.25 L-19.9 -58.8 -22.6 -62.75 -20.65 -62.4 -18.8 -63.65 Q-20.4 -67.45 -24.35 -68.0 L-25.2 -67.2 Q-28.85 -74.25 -30.7 -82.05 L-33.1 -92.3 -33.0 -92.25 -32.55 -92.15 -32.4 -92.35 -30.8 -92.6 -30.5 -92.25 -29.1 -88.7 -29.25 -87.45 -29.5 -84.05 -29.4 -81.6 -26.75 -82.85 -25.25 -79.9 -28.75 -78.2 -25.15 -71.95 -22.3 -74.0 -20.55 -70.45 -22.15 -69.4 -19.05 -67.45 -13.9 -57.25 M-22.05 -58.8 L-26.9 -58.55 Q-30.2 -61.5 -32.1 -65.95 L-34.25 -70.35 Q-37.5 -76.85 -38.55 -83.85 L-36.45 -82.05 -38.9 -88.85 -40.2 -88.9 -39.75 -87.6 -41.4 -91.0 -40.7 -92.4 -39.4 -92.75 -39.85 -93.95 -39.7 -94.75 -35.8 -90.3 -35.5 -91.4 -35.15 -91.6 -34.7 -87.0 -33.8 -83.45 -31.4 -76.3 -32.25 -74.8 Q-33.3 -71.7 -31.05 -69.6 L-29.8 -70.15 -30.25 -73.45 -28.3 -68.85 Q-25.95 -63.35 -22.05 -58.8 M69.55 -43.65 L69.65 -43.35 69.6 -43.2 69.4 -42.85 68.95 -42.75 68.8 -42.8 68.55 -43.0 68.45 -43.25 68.45 -43.4 68.7 -43.8 69.15 -43.85 69.25 -43.85 69.55 -43.65 M73.35 -36.0 Q88.8 -49.5 107.35 -40.7 L108.3 -40.1 Q88.4 -48.9 73.4 -33.9 L73.3 -33.8 73.4 -34.0 73.4 -34.35 73.25 -34.3 72.6 -33.8 71.95 -34.6 71.9 -34.7 73.35 -36.0 M-16.95 -90.9 L-16.55 -91.9 -12.8 -92.2 -11.45 -90.75 -12.55 -90.8 -12.95 -90.55 -14.05 -89.95 -16.95 -90.9 M-35.45 -91.6 L-36.2 -94.4 -34.1 -92.1 -35.45 -91.6" fill="#bca750" fill-rule="evenodd" stroke="none"/>
    <path d="M21.4 -86.7 L20.55 -86.85 19.45 -79.35 16.15 -83.25 16.2 -84.25 16.2 -86.25 16.2 -90.7 16.05 -93.55 15.95 -95.0 15.8 -96.5 15.75 -97.5 14.65 -105.15 Q13.75 -102.55 14.3 -100.15 L14.75 -97.35 14.9 -96.3 15.1 -93.6 15.15 -93.5 15.1 -91.8 14.75 -87.2 13.95 -83.3 13.5 -84.3 12.5 -84.75 11.0 -84.1 Q10.7 -85.15 10.75 -86.2 L10.75 -89.65 10.55 -92.5 10.25 -94.95 10.05 -96.05 Q7.6 -110.75 -3.5 -121.8 5.5 -109.3 7.45 -95.1 L7.6 -93.95 7.8 -92.2 8.0 -88.6 8.0 -85.25 5.25 -85.95 3.2 -96.4 3.7 -85.85 3.3 -85.35 1.7 -85.7 -2.4 -98.1 0.9 -85.75 -0.3 -86.45 -1.3 -87.0 -1.95 -89.4 -2.1 -89.45 -3.6 -89.25 -4.2 -88.75 -4.5 -88.35 -4.75 -88.0 -8.6 -104.2 -3.45 -89.95 -2.05 -92.7 -6.0 -105.3 -4.85 -106.9 -3.05 -104.25 Q-0.55 -100.0 0.55 -95.25 L1.3 -91.85 2.55 -92.6 2.7 -100.7 3.0 -100.25 4.1 -97.65 4.45 -96.25 4.95 -93.95 6.6 -94.7 Q5.8 -102.65 2.15 -110.3 -0.85 -116.65 -4.6 -122.35 L-3.95 -123.3 Q2.6 -119.5 5.55 -111.95 8.65 -104.25 10.45 -96.25 L13.05 -97.0 13.0 -97.45 Q11.6 -107.7 11.7 -117.2 16.7 -108.35 16.65 -97.7 L23.1 -97.9 Q22.9 -101.75 23.0 -105.5 L23.2 -107.3 Q24.95 -102.6 25.75 -97.6 L29.9 -96.5 29.7 -100.55 Q29.65 -101.4 30.1 -102.15 L31.4 -95.85 34.05 -94.7 38.1 -92.15 Q38.3 -97.55 37.45 -103.15 L38.7 -98.1 37.95 -113.85 Q41.55 -102.5 40.15 -90.5 44.5 -86.6 47.1 -81.05 L47.4 -80.35 Q58.55 -93.15 74.75 -98.55 L74.85 -97.55 Q65.0 -93.55 56.9 -86.85 52.9 -85.45 48.5 -79.8 L47.95 -79.1 47.35 -78.3 45.25 -75.7 42.15 -71.8 42.1 -71.8 40.65 -69.85 40.0 -68.8 39.45 -67.9 39.3 -67.8 38.6 -69.9 38.35 -69.85 38.25 -69.8 38.05 -70.0 37.9 -70.3 37.8 -70.8 36.05 -71.3 36.6 -73.45 35.7 -74.7 34.25 -72.55 33.65 -73.0 33.3 -74.95 31.9 -74.55 32.05 -76.2 34.3 -75.2 34.6 -75.85 35.0 -76.75 Q37.5 -83.6 38.05 -90.95 L37.35 -91.4 33.2 -93.95 31.6 -94.7 32.2 -90.1 32.5 -84.3 32.15 -77.15 32.1 -76.5 32.1 -77.2 32.1 -83.15 32.05 -84.5 31.95 -86.0 31.75 -88.55 31.4 -91.6 31.0 -94.4 30.95 -95.0 30.65 -96.2 30.45 -97.2 29.95 -75.75 26.0 -78.35 24.5 -100.45 23.95 -89.7 23.65 -91.7 23.45 -93.45 23.4 -94.1 Q23.2 -95.4 23.15 -96.65 L16.95 -96.75 16.6 -96.65 16.65 -96.15 16.6 -96.0 16.55 -93.65 16.7 -90.6 Q16.9 -88.5 17.35 -86.5 L17.6 -85.55 17.65 -85.5 Q18.05 -83.5 18.75 -81.6 L18.75 -83.8 18.85 -84.7 19.0 -86.0 19.2 -86.7 19.6 -88.0 20.3 -89.55 20.4 -89.95 20.5 -89.75 20.85 -88.5 21.4 -86.7 M39.05 -68.2 L39.1 -68.2 39.05 -68.15 39.05 -68.2 M40.9 -66.55 L41.05 -66.95 41.5 -67.85 42.1 -69.1 43.75 -71.9 45.4 -74.3 47.8 -77.25 48.4 -77.95 49.75 -79.3 48.55 -77.55 49.95 -72.8 Q56.05 -78.55 63.55 -82.9 66.05 -84.3 68.75 -84.4 65.25 -78.6 58.7 -75.8 56.1 -74.7 53.95 -72.6 L50.55 -69.4 50.85 -66.65 52.4 -67.0 51.3 -63.85 Q68.25 -77.95 89.8 -82.35 90.8 -82.45 91.55 -81.7 70.4 -75.3 53.05 -61.5 L59.35 -63.45 59.55 -62.1 Q70.65 -70.65 84.05 -71.05 70.85 -65.8 58.75 -58.25 L59.55 -58.0 66.45 -61.3 66.55 -59.9 66.05 -60.0 65.45 -59.95 63.7 -59.3 58.0 -56.15 56.75 -57.45 66.95 -64.4 53.95 -57.8 54.05 -57.6 53.75 -57.9 53.85 -57.9 55.7 -59.25 55.35 -60.35 53.05 -59.95 52.0 -61.75 Q65.05 -71.65 80.2 -78.05 63.4 -74.35 50.95 -63.3 L50.95 -63.35 50.35 -64.45 48.4 -65.1 49.0 -66.8 49.35 -66.35 49.8 -66.45 49.7 -68.1 50.2 -69.05 50.55 -69.55 Q54.7 -75.2 60.75 -79.0 54.55 -76.7 50.1 -72.2 L49.35 -71.3 Q46.9 -68.75 45.15 -65.5 L45.0 -65.35 44.3 -68.55 41.0 -66.55 40.8 -66.45 40.9 -66.55 M24.05 -81.7 L24.15 -78.45 22.85 -78.3 22.8 -78.3 22.4 -79.0 Q21.25 -81.05 21.4 -83.3 21.4 -84.15 21.7 -85.05 L21.85 -83.0 21.95 -81.15 24.05 -81.1 24.05 -81.7 M36.7 -109.75 Q35.5 -113.0 36.3 -116.25 L36.65 -117.45 37.9 -114.05 36.7 -109.75 M61.15 -55.45 Q83.6 -67.2 108.25 -62.1 113.5 -60.2 116.7 -55.55 96.4 -66.35 74.15 -58.35 70.55 -57.0 67.45 -55.2 77.95 -62.7 91.2 -62.05 75.1 -63.4 62.2 -53.25 L61.45 -54.45 60.1 -54.65 61.15 -55.45 M64.8 -52.75 L65.5 -52.0 74.15 -54.5 Q69.5 -51.6 64.3 -51.1 L63.65 -51.6 64.8 -52.75 M74.4 -54.55 L76.4 -55.15 76.5 -54.95 76.4 -54.7 Q74.4 -53.6 72.3 -52.65 L74.4 -54.55 M67.25 -49.45 Q80.3 -54.15 94.1 -53.2 L98.25 -52.8 Q84.75 -53.1 71.5 -50.4 L67.65 -46.65 66.1 -48.85 67.25 -49.45 M102.85 -51.4 L107.5 -50.0 116.35 -42.25 Q106.1 -49.7 93.65 -51.3 L91.45 -51.45 102.85 -51.4 M110.95 -49.0 Q114.85 -48.25 117.35 -46.2 119.75 -44.15 119.35 -42.1 L117.75 -43.8 Q114.8 -46.95 110.95 -49.0 M70.65 -47.45 L71.2 -43.35 Q74.3 -44.15 77.15 -45.45 78.7 -46.1 80.0 -44.95 L71.25 -40.65 72.0 -40.3 73.95 -41.05 74.85 -38.25 Q91.75 -50.8 109.95 -39.85 111.2 -39.1 111.25 -37.7 L109.8 -36.8 Q93.65 -47.7 77.6 -35.85 L75.7 -34.15 Q82.45 -37.35 90.05 -38.0 L94.35 -38.0 Q88.3 -37.85 83.5 -35.15 L85.1 -35.3 Q91.7 -37.4 98.55 -36.75 L97.05 -37.6 99.05 -36.65 Q92.25 -34.55 84.65 -34.5 102.75 -34.0 112.45 -20.2 L112.1 -20.65 Q98.85 -35.65 78.8 -32.95 L78.45 -32.45 82.05 -32.6 Q94.25 -33.25 104.35 -26.25 88.9 -33.3 72.75 -29.15 L72.7 -29.1 71.55 -27.95 Q68.55 -25.7 65.5 -24.1 57.3 -19.85 48.1 -19.85 L47.05 -19.15 45.7 -19.0 45.2 -18.15 44.25 -18.1 Q18.3 -15.85 22.5 -23.25 26.65 -30.75 22.15 -35.9 17.6 -41.1 6.45 -46.55 -4.65 -52.1 -20.75 -56.4 L-22.55 -56.2 Q-25.65 -55.45 -28.4 -57.25 -31.5 -59.35 -33.1 -62.85 L-39.4 -77.35 Q-40.6 -80.2 -41.2 -83.25 -41.6 -85.05 -41.3 -86.5 -47.9 -103.25 -64.9 -105.05 -71.5 -103.25 -75.9 -97.85 L-77.9 -95.25 Q-78.45 -97.0 -77.65 -98.85 L-76.9 -100.15 -75.7 -101.5 -76.4 -99.9 Q-75.8 -100.1 -75.3 -100.4 -58.25 -113.6 -45.65 -96.25 L-45.2 -96.55 -44.95 -98.05 -42.55 -94.15 -40.3 -93.45 Q-44.6 -101.15 -50.45 -107.45 -45.3 -102.25 -40.85 -96.35 L-41.0 -97.05 Q-48.75 -112.6 -64.6 -121.2 L-64.5 -120.6 Q-64.1 -119.3 -63.2 -118.3 L-67.3 -121.45 -66.5 -122.4 Q-49.7 -114.65 -39.95 -98.25 L-37.65 -94.65 -37.7 -100.3 Q-43.45 -109.65 -51.85 -116.3 L-51.05 -117.6 -49.7 -117.55 -44.45 -112.3 Q-38.25 -105.25 -35.3 -96.7 L-34.45 -97.7 -38.55 -106.1 Q-32.6 -100.35 -32.25 -93.05 L-32.25 -92.75 -31.0 -92.85 Q-32.5 -95.05 -31.05 -97.8 -27.9 -96.45 -28.15 -93.25 L-28.1 -93.1 -25.3 -93.15 -33.55 -103.55 -35.9 -106.45 -35.7 -107.0 Q-27.6 -103.95 -24.3 -95.95 -26.65 -99.45 -29.6 -102.5 L-32.55 -105.15 Q-33.4 -105.75 -34.3 -106.15 -30.3 -101.55 -26.8 -96.5 -25.75 -95.0 -25.05 -93.15 L-24.8 -92.55 -23.95 -92.25 -26.7 -92.65 -28.25 -92.65 -30.25 -92.0 -30.5 -92.25 -30.8 -92.6 -32.4 -92.35 -32.55 -92.15 -33.0 -92.25 -33.1 -92.3 -35.15 -91.6 -35.5 -91.4 -35.8 -90.3 -39.7 -94.75 -39.85 -93.95 -39.4 -92.75 -40.7 -92.4 -41.4 -91.0 -39.75 -87.6 -40.2 -88.9 -38.9 -88.85 -36.45 -82.05 -38.55 -83.85 Q-37.5 -76.85 -34.25 -70.35 L-32.1 -65.95 Q-30.2 -61.5 -26.9 -58.55 L-22.05 -58.8 -19.9 -58.8 -13.9 -57.25 Q-5.45 -54.3 2.65 -51.2 L15.35 -45.55 21.2 -42.8 Q30.4 -34.35 30.15 -21.0 L34.45 -19.85 Q53.6 -21.05 60.3 -23.5 L63.05 -24.45 Q67.35 -25.9 68.85 -29.8 L63.85 -28.4 71.0 -35.45 71.45 -38.2 70.15 -40.6 69.35 -41.35 67.5 -43.05 67.35 -43.15 70.7 -46.9 70.65 -47.45 M115.9 -8.05 L114.9 -7.3 Q113.35 -16.35 107.55 -23.5 L106.9 -24.3 109.25 -21.7 Q113.8 -15.5 115.9 -8.05 M-73.3 -103.55 Q-70.1 -106.6 -65.85 -107.7 L-63.35 -108.2 -73.3 -103.55 M-23.8 -95.45 L-23.0 -96.25 -20.75 -94.1 -19.9 -94.2 Q-33.35 -114.2 -55.7 -124.1 -50.3 -123.6 -45.45 -121.3 -41.4 -119.35 -37.95 -116.45 L-49.3 -122.15 -45.75 -120.15 Q-28.25 -110.15 -18.65 -92.8 L-18.15 -91.95 -17.4 -91.2 -19.4 -91.55 -20.8 -91.1 -23.8 -95.45 M-19.45 -97.35 L-14.8 -93.2 -14.65 -94.35 -18.15 -102.8 -14.0 -94.85 Q-13.5 -93.85 -12.6 -94.2 L-12.65 -94.35 Q-16.15 -104.35 -22.3 -113.0 -16.15 -104.95 -12.1 -95.85 L-11.0 -93.4 -8.6 -91.9 -7.8 -94.5 -5.8 -87.35 -8.25 -88.8 -10.25 -90.05 -11.25 -90.3 -12.95 -90.55 -12.55 -90.8 -11.45 -90.75 -12.8 -92.2 -16.55 -91.9 -16.95 -90.9 -17.05 -90.9 -17.6 -91.8 -17.05 -92.15 -19.45 -97.35 M-21.4 -108.35 L-31.2 -118.2 -29.1 -116.55 Q-24.8 -113.0 -21.4 -108.35 M-7.8 -94.7 Q-11.9 -113.85 -26.1 -126.4 L-28.25 -128.05 Q-11.15 -117.65 -8.2 -97.2 L-7.8 -94.7 M-29.0 -128.4 L-38.4 -131.6 -38.4 -132.6 -37.5 -133.1 Q-22.4 -130.35 -14.4 -117.5 -13.2 -115.45 -12.25 -113.15 L-13.45 -115.2 Q-18.9 -125.3 -29.0 -128.4 M44.65 -83.75 L40.0 -89.2 39.7 -87.65 38.55 -82.25 37.35 -78.15 37.9 -77.7 37.5 -74.35 37.45 -73.8 38.2 -72.55 39.65 -73.1 40.35 -73.45 40.45 -72.7 40.65 -71.2 41.3 -72.3 44.85 -77.3 46.8 -79.6 44.65 -83.75 M45.05 -71.9 Q46.1 -73.35 47.6 -73.05 L45.05 -67.65 49.2 -72.05 48.0 -76.7 42.9 -69.15 45.05 -71.9 M41.45 -66.7 L41.6 -66.85 41.7 -66.55 41.45 -66.7 M48.8 -61.65 L49.0 -61.55 48.95 -61.5 48.8 -61.65 M56.6 -59.6 L59.05 -61.7 56.35 -60.15 56.6 -59.6 M27.3 -96.15 L26.0 -96.45 26.15 -94.75 26.25 -94.1 Q26.6 -90.55 26.6 -86.85 L26.55 -85.25 26.1 -79.85 27.6 -78.55 27.9 -79.5 28.3 -81.2 Q29.5 -86.5 29.8 -92.1 L29.9 -95.35 27.3 -96.15 M13.65 -91.15 L13.2 -95.9 10.7 -95.1 11.3 -92.4 11.55 -91.2 12.45 -84.8 13.95 -86.6 13.95 -87.65 13.65 -91.15 M6.7 -93.55 L5.15 -92.8 6.6 -86.6 Q6.9 -90.1 6.7 -93.55 M1.95 -88.95 L2.45 -89.25 2.5 -91.35 1.6 -90.75 1.95 -88.95 M69.55 -43.65 L69.25 -43.85 69.15 -43.85 68.7 -43.8 68.45 -43.4 68.45 -43.25 68.55 -43.0 68.8 -42.8 68.95 -42.75 69.4 -42.85 69.6 -43.2 69.65 -43.35 69.55 -43.65 M73.35 -36.0 L71.9 -34.7 71.95 -34.6 72.6 -33.8 73.25 -34.3 73.4 -34.35 73.4 -34.0 73.3 -33.8 73.4 -33.9 Q88.4 -48.9 108.3 -40.1 L107.35 -40.7 Q88.8 -49.5 73.35 -36.0 M-35.45 -91.6 L-34.1 -92.1 -36.2 -94.4 -35.45 -91.6" fill="#877634" fill-rule="evenodd" stroke="none"/>
    <path d="M3.3 -85.35 L4.65 -84.55 8.3 -77.45 13.65 -80.55 15.15 -79.75 16.15 -79.6 16.65 -79.9 17.35 -79.45 20.25 -73.35 23.3 -75.85 23.6 -75.8 Q25.65 -75.8 27.4 -74.85 L31.3 -66.35 34.1 -69.6 33.7 -71.0 33.85 -71.0 35.25 -70.55 34.9 -69.7 Q35.3 -68.75 37.2 -68.4 L40.85 -61.65 43.65 -64.7 44.15 -63.65 45.65 -63.5 47.25 -62.35 47.65 -62.2 48.15 -61.35 47.1 -61.2 48.5 -59.75 49.15 -59.5 51.9 -54.85 54.6 -56.95 57.55 -52.9 58.2 -52.9 58.55 -52.05 59.1 -52.9 Q59.65 -50.45 61.95 -48.35 L62.55 -45.1 64.05 -46.6 64.85 -46.1 65.95 -45.55 66.1 -45.35 56.2 -35.55 63.45 -39.25 62.8 -41.85 64.3 -43.45 65.05 -40.5 67.5 -43.05 69.35 -41.35 Q64.05 -35.05 55.8 -34.05 50.7 -33.5 47.4 -32.45 46.85 -33.85 45.9 -34.95 43.7 -37.7 40.65 -35.85 L43.15 -33.0 19.95 -45.9 32.1 -36.4 Q26.85 -39.9 21.2 -42.8 L15.35 -45.55 2.65 -51.2 Q-5.45 -54.3 -13.9 -57.25 L-19.05 -67.45 -13.75 -65.35 -12.6 -66.05 -16.05 -73.7 -15.55 -74.1 -20.55 -70.45 -22.3 -74.0 -17.4 -76.9 -17.9 -76.65 -21.2 -82.15 -25.25 -79.9 -26.75 -82.85 -26.55 -82.95 -24.25 -83.95 -26.1 -86.45 -28.85 -90.45 -29.1 -88.7 -30.5 -92.25 -30.25 -92.0 -28.25 -92.65 -26.7 -92.65 Q-22.75 -90.45 -21.0 -86.6 L-20.7 -85.6 -11.25 -90.3 -10.25 -90.05 -8.25 -88.8 -5.05 -83.5 -0.3 -86.45 0.9 -85.75 1.7 -85.7 3.3 -85.35 M34.6 -75.85 L32.15 -77.15 32.5 -84.3 35.1 -83.2 35.0 -76.75 34.6 -75.85 M23.95 -88.6 L24.05 -81.7 21.85 -83.0 21.7 -85.05 21.4 -86.7 20.85 -88.5 22.1 -89.9 23.95 -88.6 M20.5 -89.75 L20.4 -89.95 20.3 -89.55 17.35 -86.5 Q16.9 -88.5 16.7 -90.6 L19.65 -90.4 Q20.75 -90.4 21.4 -90.85 L20.5 -89.75 M19.2 -86.7 L19.0 -86.0 18.85 -84.7 17.95 -85.3 19.2 -86.7 M17.65 -85.5 L17.6 -85.55 17.95 -85.3 17.65 -85.5 M16.55 -93.65 L16.6 -96.0 16.65 -96.15 16.95 -96.75 23.15 -96.65 Q23.2 -95.4 23.4 -94.1 L19.9 -95.6 19.1 -94.9 Q17.85 -94.05 16.55 -93.65 M44.65 -83.75 Q44.35 -83.85 44.05 -83.5 43.8 -83.25 43.7 -82.8 L39.7 -87.65 40.0 -89.2 44.65 -83.75 M44.75 -77.5 L44.85 -77.3 41.3 -72.3 40.45 -72.7 40.35 -73.45 39.65 -73.1 37.5 -74.35 37.9 -77.7 37.35 -78.15 38.55 -82.25 41.75 -77.75 Q42.45 -76.55 43.9 -77.0 L44.75 -77.5 M46.6 -50.85 L49.65 -52.9 47.9 -56.3 45.0 -62.65 42.55 -60.15 39.0 -57.0 42.8 -48.55 46.6 -50.85 M48.9 -49.6 L51.2 -43.45 56.35 -48.7 55.4 -54.15 48.9 -49.6 M33.2 -93.95 L37.35 -91.4 37.15 -87.5 32.6 -91.45 33.2 -93.95 M26.15 -94.75 L27.3 -96.15 29.9 -95.35 29.8 -92.1 26.25 -94.1 26.15 -94.75 M28.3 -81.2 L27.9 -79.5 27.35 -79.75 28.3 -81.2 M26.55 -85.25 L26.6 -86.85 27.25 -86.4 26.55 -85.25 M13.65 -91.15 L13.95 -87.65 12.2 -88.65 13.65 -91.15 M11.55 -91.2 L11.3 -92.4 11.45 -92.45 11.55 -91.2 M3.3 -81.5 L1.95 -84.3 -1.0 -82.75 -4.8 -80.8 -2.75 -76.8 -0.65 -72.65 4.5 -75.25 6.35 -76.4 3.3 -81.5 M15.45 -76.75 L14.6 -78.65 12.0 -77.1 11.05 -76.55 11.6 -76.85 14.55 -71.55 15.5 -69.75 17.2 -70.95 18.4 -71.85 15.45 -76.75 M19.4 -69.85 L16.8 -67.95 21.05 -58.9 29.15 -64.3 25.6 -71.65 24.8 -73.4 23.3 -72.45 19.4 -69.85 M10.75 -63.2 L14.75 -57.7 17.25 -56.85 18.35 -57.45 14.8 -66.4 10.75 -63.2 M1.4 -71.05 L-3.6 -68.25 -1.55 -62.25 -1.85 -62.3 2.55 -61.2 5.0 -63.3 1.4 -71.05 M7.15 -64.55 L13.1 -68.4 9.4 -75.6 3.5 -72.25 7.15 -64.55 M19.55 -49.95 L20.1 -50.75 Q20.2 -51.25 19.9 -51.75 L19.05 -52.3 18.1 -52.1 Q17.65 -51.75 17.55 -51.25 17.45 -50.75 17.75 -50.3 18.05 -49.85 18.55 -49.75 L19.55 -49.95 M9.0 -61.75 L6.95 -60.05 5.95 -60.3 10.55 -59.0 9.0 -61.75 M7.05 -57.4 Q6.3 -57.05 5.85 -56.55 5.4 -56.05 5.2 -55.35 L5.2 -55.1 11.9 -51.95 12.7 -52.6 11.8 -56.35 7.05 -57.4 M1.7 -56.8 L2.3 -57.45 Q1.65 -59.95 -1.05 -60.5 L-1.1 -59.95 Q-1.2 -57.2 1.7 -56.8 M34.05 -66.55 L33.2 -65.65 36.45 -58.75 37.05 -57.95 39.0 -59.7 35.7 -66.2 35.0 -67.55 34.05 -66.55 M30.2 -54.25 L34.95 -56.65 32.8 -61.1 30.25 -62.9 27.65 -60.55 30.2 -54.25 M25.8 -59.05 L20.9 -55.4 26.45 -51.4 28.4 -52.75 25.8 -59.05 M33.8 -53.2 L38.1 -45.95 40.55 -47.25 36.9 -55.45 33.8 -53.2 M28.5 -49.65 L35.1 -44.35 31.95 -51.95 28.5 -49.65 M25.9 -45.65 Q28.15 -43.7 30.1 -45.3 28.25 -49.0 24.1 -50.1 23.7 -47.5 25.9 -45.65 M39.7 -43.5 L37.05 -42.05 41.55 -38.95 39.7 -43.5 M36.3 -39.3 L37.05 -39.5 37.5 -40.2 37.3 -40.95 Q37.1 -41.3 36.7 -41.35 L35.9 -41.2 Q35.55 -40.95 35.5 -40.55 35.4 -40.15 35.65 -39.75 35.9 -39.4 36.3 -39.3 M-19.9 -58.8 L-22.05 -58.8 Q-25.95 -63.35 -28.3 -68.85 L-30.25 -73.45 -31.4 -76.3 -33.8 -83.45 -33.5 -83.0 -32.6 -83.2 -32.5 -83.85 Q-32.55 -85.8 -33.65 -87.45 L-34.7 -87.0 -35.15 -91.6 -33.1 -92.3 -30.7 -82.05 Q-28.85 -74.25 -25.2 -67.2 -25.5 -65.65 -24.7 -64.3 -23.95 -63.05 -22.6 -62.75 L-19.9 -58.8 M71.45 -38.2 L71.0 -35.45 65.5 -32.6 66.0 -35.75 71.45 -38.2 M63.9 -31.8 L59.25 -29.7 57.1 -29.55 Q56.15 -29.15 56.0 -28.4 50.75 -25.85 45.5 -26.8 L44.7 -27.35 44.9 -28.45 52.7 -31.65 54.1 -31.7 54.8 -32.3 60.8 -34.15 60.5 -32.55 63.9 -31.8 M56.55 -45.5 L58.5 -41.75 60.05 -43.0 59.3 -48.4 56.55 -45.5 M55.6 -44.45 L50.75 -39.8 52.3 -37.15 56.5 -40.45 54.8 -43.65 55.6 -44.45 M41.6 -44.6 L44.9 -38.4 49.3 -41.9 46.55 -47.95 41.6 -44.6 M47.1 -36.65 L50.75 -35.9 49.45 -38.65 47.1 -36.65 M-10.05 -86.65 L-10.95 -88.35 -12.9 -87.2 -18.2 -83.9 -18.7 -83.65 -15.5 -77.9 -8.5 -81.4 -7.3 -82.05 -10.05 -86.65 M-13.9 -75.4 L-10.1 -67.5 -10.75 -67.1 -3.2 -71.45 -6.6 -79.9 -13.9 -75.4 M-6.3 -66.8 L-10.7 -64.45 -4.65 -63.0 -6.3 -66.8 M-10.95 -63.55 L-11.4 -61.2 -8.95 -60.75 -8.5 -63.1 -10.95 -63.55" fill="#cbba76" fill-rule="evenodd" stroke="none"/>
    <path d="M4.65 -84.55 L7.65 -82.8 8.65 -83.05 9.95 -81.3 10.95 -81.9 13.65 -80.55 8.3 -77.45 4.65 -84.55 M17.35 -79.45 L18.6 -78.7 19.35 -78.85 20.5 -77.65 Q21.5 -76.5 23.3 -75.85 L20.25 -73.35 17.35 -79.45 M27.4 -74.85 L29.1 -73.8 29.8 -72.25 31.0 -72.25 32.45 -71.05 33.7 -71.0 34.1 -69.6 31.3 -66.35 27.4 -74.85 M37.2 -68.4 L39.05 -68.2 39.05 -68.15 39.05 -67.15 40.9 -66.55 40.8 -66.45 41.0 -66.55 41.2 -66.55 41.45 -66.7 41.7 -66.55 41.85 -65.85 Q42.4 -65.15 43.1 -65.05 L43.65 -64.7 40.85 -61.65 37.2 -68.4 M23.95 -89.7 L23.95 -88.6 22.1 -89.9 23.65 -91.7 23.95 -89.7 M16.7 -90.6 L16.55 -93.65 Q17.85 -94.05 19.1 -94.9 L19.9 -95.6 23.4 -94.1 23.45 -93.45 21.4 -90.85 Q20.75 -90.4 19.65 -90.4 L16.7 -90.6 M-1.3 -87.0 L-0.3 -86.45 -5.05 -83.5 -8.25 -88.8 -5.8 -87.35 -1.3 -87.0 M39.7 -87.65 L43.7 -82.8 44.75 -77.5 43.9 -77.0 Q42.45 -76.55 41.75 -77.75 L38.55 -82.25 39.7 -87.65 M53.75 -57.9 L54.05 -57.6 54.6 -56.95 51.9 -54.85 49.15 -59.5 52.1 -58.65 52.15 -58.6 52.35 -58.6 52.75 -58.5 52.25 -57.05 53.75 -57.9 M47.65 -62.2 Q48.25 -61.9 48.8 -61.65 L48.95 -61.5 48.15 -61.35 47.65 -62.2 M47.9 -56.3 L42.55 -60.15 45.0 -62.65 47.9 -56.3 M39.0 -57.0 L46.6 -50.85 42.8 -48.55 39.0 -57.0 M58.2 -52.9 L58.35 -52.9 59.0 -53.4 59.1 -52.9 58.55 -52.05 58.2 -52.9 M61.95 -48.35 L64.05 -46.6 62.55 -45.1 61.95 -48.35 M66.1 -45.35 L67.35 -43.15 67.5 -43.05 65.05 -40.5 64.3 -43.45 62.8 -41.85 63.45 -39.25 56.2 -35.55 66.1 -45.35 M48.9 -49.6 L55.4 -54.15 56.35 -48.7 51.2 -43.45 48.9 -49.6 M32.2 -90.1 L32.6 -91.45 37.15 -87.5 36.7 -84.7 35.1 -83.2 32.5 -84.3 32.2 -90.1 M26.6 -86.85 Q26.6 -90.55 26.25 -94.1 L29.8 -92.1 27.25 -86.4 26.6 -86.85 M-1.0 -82.75 L1.95 -84.3 3.3 -81.5 -1.0 -82.75 M4.5 -75.25 L-0.65 -72.65 -2.75 -76.8 -2.4 -76.25 4.5 -75.25 M15.45 -76.75 L12.55 -77.4 12.0 -77.1 14.6 -78.65 15.45 -76.75 M14.55 -71.55 L17.2 -70.95 15.5 -69.75 14.55 -71.55 M29.15 -64.3 L21.05 -58.9 16.8 -67.95 19.4 -69.85 29.15 -64.3 M23.3 -72.45 L24.8 -73.4 25.6 -71.65 23.3 -72.45 M19.7 -64.1 Q19.55 -63.3 20.0 -62.65 20.45 -62.0 21.3 -61.85 22.1 -61.7 22.75 -62.15 23.4 -62.55 23.55 -63.35 23.7 -64.2 23.3 -64.9 22.85 -65.55 22.05 -65.7 21.2 -65.85 20.55 -65.4 19.85 -64.95 19.7 -64.1 M1.4 -71.05 L5.0 -63.3 2.55 -61.2 -1.85 -62.3 -1.55 -62.25 -3.6 -68.25 1.4 -71.05 M10.75 -63.2 L14.8 -66.4 18.35 -57.45 17.25 -56.85 14.75 -57.7 10.75 -63.2 M8.9 -71.35 Q7.1 -71.7 6.3 -70.0 L7.7 -68.0 9.3 -68.8 9.35 -71.15 8.9 -71.35 M7.15 -64.55 L3.5 -72.25 9.4 -75.6 13.1 -68.4 7.15 -64.55 M1.7 -56.8 Q-1.2 -57.2 -1.1 -59.95 L-1.05 -60.5 Q1.65 -59.95 2.3 -57.45 L1.7 -56.8 M7.05 -57.4 L11.8 -56.35 12.7 -52.6 11.9 -51.95 5.2 -55.1 5.2 -55.35 Q5.4 -56.05 5.85 -56.55 6.3 -57.05 7.05 -57.4 M9.0 -61.75 L10.55 -59.0 5.95 -60.3 6.95 -60.05 9.0 -61.75 M19.55 -49.95 L18.55 -49.75 Q18.05 -49.85 17.75 -50.3 17.45 -50.75 17.55 -51.25 17.65 -51.75 18.1 -52.1 L19.05 -52.3 19.9 -51.75 Q20.2 -51.25 20.1 -50.75 L19.55 -49.95 M34.05 -66.55 L35.0 -67.55 35.7 -66.2 34.05 -66.55 M28.5 -49.65 L31.95 -51.95 35.1 -44.35 28.5 -49.65 M33.8 -53.2 L36.9 -55.45 40.55 -47.25 38.1 -45.95 33.8 -53.2 M25.8 -59.05 L28.4 -52.75 26.45 -51.4 20.9 -55.4 25.8 -59.05 M30.2 -54.25 L27.65 -60.55 30.25 -62.9 32.8 -61.1 34.95 -56.65 30.2 -54.25 M36.3 -39.3 Q35.9 -39.4 35.65 -39.75 35.4 -40.15 35.5 -40.55 35.55 -40.95 35.9 -41.2 L36.7 -41.35 Q37.1 -41.3 37.3 -40.95 L37.5 -40.2 37.05 -39.5 36.3 -39.3 M39.7 -43.5 L41.55 -38.95 37.05 -42.05 39.7 -43.5 M25.9 -45.65 Q23.7 -47.5 24.1 -50.1 28.25 -49.0 30.1 -45.3 28.15 -43.7 25.9 -45.65 M43.15 -33.0 L40.65 -35.85 Q43.7 -37.7 45.9 -34.95 46.85 -33.85 47.4 -32.45 L47.85 -31.45 46.85 -30.45 43.15 -33.0 M-26.7 -92.65 L-23.95 -92.25 -20.8 -91.1 -19.4 -91.55 -17.4 -91.2 -17.05 -90.9 -16.95 -90.9 -14.05 -89.95 -12.95 -90.55 -11.25 -90.3 -20.7 -85.6 -21.0 -86.6 Q-22.75 -90.45 -26.7 -92.65 M65.5 -32.6 Q65.4 -32.15 64.95 -31.9 L63.9 -31.8 60.5 -32.55 60.8 -34.15 65.25 -37.1 66.0 -35.75 65.5 -32.6 M59.25 -29.7 L59.75 -29.2 Q59.9 -26.8 57.45 -26.65 56.65 -26.6 56.0 -27.1 L56.0 -28.4 Q56.15 -29.15 57.1 -29.55 L59.25 -29.7 M52.7 -31.65 L52.25 -32.25 54.0 -33.3 54.8 -32.3 54.1 -31.7 52.7 -31.65 M41.6 -44.6 L46.55 -47.95 49.3 -41.9 44.9 -38.4 41.6 -44.6 M55.6 -44.45 L54.8 -43.65 56.5 -40.45 52.3 -37.15 50.75 -39.8 55.6 -44.45 M56.55 -45.5 L59.3 -48.4 60.05 -43.0 58.5 -41.75 56.55 -45.5 M47.1 -36.65 L49.45 -38.65 50.75 -35.9 47.1 -36.65 M-12.9 -87.2 L-10.95 -88.35 -10.05 -86.65 -12.9 -87.2 M-8.5 -81.4 L-15.5 -77.9 -18.7 -83.65 -18.2 -83.9 -8.5 -81.4 M-25.25 -79.9 L-21.2 -82.15 -17.9 -76.65 -17.4 -76.9 -22.3 -74.0 -25.15 -71.95 -28.75 -78.2 -25.25 -79.9 M-20.55 -70.45 L-15.55 -74.1 -16.05 -73.7 -12.6 -66.05 -13.75 -65.35 -19.05 -67.45 -22.15 -69.4 -20.55 -70.45 M-13.9 -75.4 L-6.6 -79.9 -3.2 -71.45 -10.75 -67.1 -10.1 -67.5 -13.9 -75.4 M-29.25 -87.45 L-29.1 -88.7 -28.85 -90.45 -26.1 -86.45 -29.25 -87.45 M-26.55 -82.95 L-26.75 -82.85 -29.4 -81.6 -29.5 -84.05 -26.55 -82.95 M-34.7 -87.0 L-33.65 -87.45 Q-32.55 -85.8 -32.5 -83.85 L-32.6 -83.2 -33.5 -83.0 -33.8 -83.45 -34.7 -87.0 M-31.4 -76.3 L-30.25 -73.45 -29.8 -70.15 -31.05 -69.6 Q-33.3 -71.7 -32.25 -74.8 L-31.4 -76.3 M-22.6 -62.75 Q-23.95 -63.05 -24.7 -64.3 -25.5 -65.65 -25.2 -67.2 L-24.35 -68.0 Q-20.4 -67.45 -18.8 -63.65 L-20.65 -62.4 -22.6 -62.75 M-8.45 -71.4 L-6.65 -72.35 -8.15 -75.75 Q-10.1 -74.45 -9.85 -72.1 L-8.45 -71.4 M-6.3 -66.8 L-4.65 -63.0 -10.7 -64.45 -6.3 -66.8 M-10.95 -63.55 L-8.5 -63.1 -8.95 -60.75 -11.4 -61.2 -10.95 -63.55" fill="#e1d7b0" fill-rule="evenodd" stroke="none"/>
    <path d="M47.9 -56.3 L49.65 -52.9 46.6 -50.85 39.0 -57.0 42.55 -60.15 47.9 -56.3 M3.3 -81.5 L6.35 -76.4 4.5 -75.25 -2.4 -76.25 -2.75 -76.8 -4.8 -80.8 -1.0 -82.75 3.3 -81.5 M12.0 -77.1 L12.55 -77.4 15.45 -76.75 18.4 -71.85 17.2 -70.95 14.55 -71.55 11.6 -76.85 11.05 -76.55 12.0 -77.1 M19.4 -69.85 L23.3 -72.45 25.6 -71.65 29.15 -64.3 19.4 -69.85 M19.7 -64.1 Q19.85 -64.95 20.55 -65.4 21.2 -65.85 22.05 -65.7 22.85 -65.55 23.3 -64.9 23.7 -64.2 23.55 -63.35 23.4 -62.55 22.75 -62.15 22.1 -61.7 21.3 -61.85 20.45 -62.0 20.0 -62.65 19.55 -63.3 19.7 -64.1 M8.9 -71.35 L9.35 -71.15 9.3 -68.8 7.7 -68.0 6.3 -70.0 Q7.1 -71.7 8.9 -71.35 M35.7 -66.2 L39.0 -59.7 37.05 -57.95 36.45 -58.75 33.2 -65.65 34.05 -66.55 35.7 -66.2 M-12.9 -87.2 L-10.05 -86.65 -7.3 -82.05 -8.5 -81.4 -18.2 -83.9 -12.9 -87.2 M-26.1 -86.45 L-24.25 -83.95 -26.55 -82.95 -29.5 -84.05 -29.25 -87.45 -26.1 -86.45 M-8.45 -71.4 L-9.85 -72.1 Q-10.1 -74.45 -8.15 -75.75 L-6.65 -72.35 -8.45 -71.4" fill="#ede8d1" fill-rule="evenodd" stroke="none"/>
  </g>
</svg>
