<?xml version="1.0" encoding="UTF-8" standalone="no"?>
<svg xmlns:ffdec="https://www.free-decompiler.com/flash" xmlns:xlink="http://www.w3.org/1999/xlink" ffdec:objectType="shape" height="50.4px" width="64.65px" xmlns="http://www.w3.org/2000/svg">
  <g transform="matrix(1.0, 0.0, 0.0, 1.0, 0.25, 6.4)">
    <path d="M51.25 9.15 L50.8 9.2 50.75 9.2 50.4 9.25 48.45 9.45 Q38.6 10.75 30.6 15.1 L30.65 15.1 30.45 15.2 30.4 15.2 Q26.4 17.4 22.8 20.3 L21.9 19.7 18.6 17.8 Q29.45 8.9 42.9 6.7 L45.4 6.35 Q48.05 7.2 50.35 8.6 L51.25 9.15 M52.4 10.05 L52.45 10.05 52.75 10.3 Q54.7 13.75 54.6 17.7 52.85 20.9 48.05 23.7 40.6 28.05 29.0 28.45 L28.8 27.7 28.8 27.6 28.65 27.2 Q27.55 23.85 24.05 21.2 L23.7 20.95 Q27.15 18.15 30.9 16.1 L31.1 16.0 Q39.2 11.55 49.25 10.35 L50.7 10.2 52.4 10.05 M28.0 28.6 L28.15 29.8 28.3 34.4 28.15 40.35 28.05 42.3 27.95 42.3 26.95 42.4 27.0 41.15 27.15 34.45 27.0 30.6 26.6 28.45 Q8.35 28.4 8.35 19.0 8.35 17.3 9.05 15.75 7.75 15.25 6.7 15.1 5.65 14.9 4.8 15.1 L5.55 14.05 5.65 14.05 7.35 14.2 7.85 14.35 9.45 14.9 9.55 14.75 9.6 14.75 10.4 15.05 10.4 15.1 10.55 15.15 17.5 18.3 21.35 20.55 22.5 21.35 22.65 21.45 23.45 22.0 Q26.2 24.1 27.35 26.65 L27.75 27.65 27.95 28.45 28.0 28.6 M43.0 5.65 L40.9 6.05 Q28.1 8.6 17.65 17.25 14.7 15.7 11.1 14.25 L10.8 14.15 10.2 13.9 Q16.5 8.9 23.55 6.05 28.6 4.75 34.85 4.75 39.25 4.75 43.0 5.65" fill="#474a6b" fill-rule="evenodd" stroke="none"/>
    <path d="M53.25 26.15 Q56.35 19.95 55.4 14.65 L55.1 13.3 Q54.6 11.6 53.7 10.0 L54.9 9.95 Q59.9 14.3 58.95 18.65 58.0 22.7 53.25 26.15 M53.75 9.0 L51.25 9.15 50.35 8.6 Q48.05 7.2 45.4 6.35 L45.7 6.3 48.45 6.05 Q51.4 7.2 53.75 9.0 M52.45 10.05 L52.6 10.05 52.65 10.1 52.75 10.3 52.45 10.05 M54.6 17.7 Q54.4 22.2 51.45 27.4 L47.4 29.55 Q38.95 33.55 29.3 34.35 L29.15 29.75 29.0 28.6 29.0 28.45 Q40.6 28.05 48.05 23.7 52.85 20.9 54.6 17.7 M46.15 5.25 L43.3 5.6 43.25 5.6 43.0 5.65 Q39.25 4.75 34.85 4.75 28.6 4.75 23.55 6.05 26.45 4.85 29.45 4.0 L34.65 3.75 Q41.15 3.75 46.15 5.25 M23.5 4.95 Q15.95 8.0 9.25 13.35 L9.1 13.55 8.05 13.35 Q9.8 11.45 12.35 9.7 17.2 6.4 23.5 4.95 M7.85 14.35 L9.55 14.75 9.45 14.9 7.85 14.35 M6.7 15.1 Q7.75 15.25 9.05 15.75 8.35 17.3 8.35 19.0 8.35 28.4 26.6 28.45 L27.0 30.6 27.15 34.45 24.7 34.5 Q14.85 34.5 9.45 31.0 4.4 27.7 4.4 22.15 4.4 18.4 6.7 15.1" fill="#3e415f" fill-rule="evenodd" stroke="none"/>
    <path d="M38.95 -4.15 L43.35 -4.7 Q45.7 -4.7 50.0 -3.0 55.05 -1.0 57.9 1.85 L55.2 4.95 Q52.75 2.95 46.7 1.05 39.65 -1.2 34.4 -0.75 35.25 -3.15 38.95 -4.15 M60.8 12.1 Q60.65 12.3 60.75 12.5 62.0 17.4 59.8 21.85 57.25 26.75 50.3 31.0 L53.25 26.15 Q58.0 22.7 58.95 18.65 59.9 14.3 54.9 9.95 L59.05 9.95 60.8 12.1 M58.0 8.95 Q55.85 8.9 53.75 9.0 51.4 7.2 48.45 6.05 L53.3 5.95 53.65 5.8 53.75 5.65 55.3 6.7 58.0 8.95 M51.45 27.4 L48.1 32.25 Q40.65 36.3 29.2 39.7 L29.3 34.35 Q38.95 33.55 47.4 29.55 L51.45 27.4 M29.1 42.2 L29.15 40.75 Q41.0 37.25 48.65 33.1 57.7 28.15 60.7 22.3 62.55 18.6 62.15 14.65 62.85 16.5 62.85 18.4 62.85 27.0 50.6 34.65 40.55 40.95 29.1 42.2 M52.6 4.95 L46.15 5.25 Q41.15 3.75 34.65 3.75 L29.45 4.0 Q36.6 2.0 44.45 2.0 L44.8 1.85 44.9 1.8 Q48.95 2.8 52.6 4.95 M41.25 1.1 Q31.85 1.55 23.5 4.95 17.2 6.4 12.35 9.7 9.8 11.45 8.05 13.35 L6.05 13.45 9.25 9.95 Q19.25 0.8 36.85 0.8 L41.25 1.1 M4.8 15.1 Q5.65 14.9 6.7 15.1 4.4 18.4 4.4 22.15 4.4 27.7 9.45 31.0 14.85 34.5 24.7 34.5 L27.15 34.45 27.0 41.15 26.95 42.4 23.3 42.5 Q11.85 42.5 6.05 37.25 1.25 32.9 1.25 26.15 1.25 20.3 4.75 15.1 L4.8 15.1" fill="#33354e" fill-rule="evenodd" stroke="none"/>
    <path d="M38.95 -4.15 Q35.25 -3.15 34.4 -0.75 39.65 -1.2 46.7 1.05 52.75 2.95 55.2 4.95 L57.9 1.85 Q55.05 -1.0 50.0 -3.0 45.7 -4.7 43.35 -4.7 L38.95 -4.15 M33.65 -2.0 Q35.25 -3.55 38.3 -5.0 41.2 -6.4 42.65 -6.4 46.4 -6.4 51.9 -4.55 59.45 -2.0 59.45 2.0 59.45 3.45 56.45 5.85 60.5 8.95 62.55 12.5 64.4 15.65 64.4 18.55 64.4 27.2 52.3 35.4 39.65 44.0 24.65 44.0 12.35 44.0 5.9 39.15 -0.25 34.55 -0.25 26.05 -0.25 19.8 3.2 14.15 7.45 7.15 15.75 3.55 17.45 2.75 25.55 0.65 32.85 -1.25 33.65 -2.0 M62.15 14.65 L60.8 12.1 59.05 9.95 58.0 8.95 55.3 6.7 53.75 5.65 52.6 4.95 Q48.95 2.8 44.9 1.8 L43.5 1.4 41.25 1.1 36.85 0.8 Q19.25 0.8 9.25 9.95 L6.05 13.45 5.65 14.05 5.55 14.05 4.8 15.1 4.75 15.1 Q1.25 20.3 1.25 26.15 1.25 32.9 6.05 37.25 11.85 42.5 23.3 42.5 L26.95 42.4 27.95 42.3 28.05 42.3 29.1 42.2 Q40.55 40.95 50.6 34.65 62.85 27.0 62.85 18.4 62.85 16.5 62.15 14.65" fill="#17192c" fill-rule="evenodd" stroke="none"/>
    <path d="M50.8 9.2 L51.35 9.45 52.4 10.05 50.7 10.2 49.25 10.35 Q39.2 11.55 31.1 16.0 L30.9 16.1 Q27.15 18.15 23.7 20.95 L24.05 21.2 Q27.55 23.85 28.65 27.2 L28.8 27.6 28.8 27.7 29.0 28.45 29.0 28.6 28.0 28.6 27.95 28.45 27.75 27.65 27.35 26.65 Q26.2 24.1 23.45 22.0 L22.65 21.45 22.5 21.35 21.35 20.55 17.5 18.3 10.55 15.15 10.4 15.1 10.4 15.05 9.6 14.75 10.2 13.9 10.8 14.15 11.1 14.25 Q14.7 15.7 17.65 17.25 28.1 8.6 40.9 6.05 L43.0 5.65 43.25 5.6 43.3 5.6 45.45 6.15 45.7 6.3 45.4 6.35 42.9 6.7 Q29.45 8.9 18.6 17.8 L21.9 19.7 22.8 20.3 Q26.4 17.4 30.4 15.2 L30.45 15.2 30.65 15.1 30.6 15.1 Q38.6 10.75 48.45 9.45 L50.4 9.25 50.75 9.2 50.8 9.2" fill="#282a3e" fill-rule="evenodd" stroke="none"/>
    <path d="M60.8 12.1 L62.15 14.65 Q62.55 18.6 60.7 22.3 57.7 28.15 48.65 33.1 41.0 37.25 29.15 40.75 L29.1 42.2 28.05 42.3 28.15 40.35 28.3 34.4 28.15 29.8 28.0 28.6 29.0 28.6 29.15 29.75 29.3 34.35 29.2 39.7 Q40.65 36.3 48.1 32.25 L51.45 27.4 Q54.4 22.2 54.6 17.7 54.7 13.75 52.75 10.3 L52.65 10.1 52.6 10.05 52.45 10.05 52.4 10.05 51.35 9.45 50.8 9.2 51.25 9.15 53.75 9.0 Q55.85 8.9 58.0 8.95 L59.05 9.95 54.9 9.95 53.7 10.0 Q54.6 11.6 55.1 13.3 L55.4 14.65 Q56.35 19.95 53.25 26.15 L50.3 31.0 Q57.25 26.75 59.8 21.85 62.0 17.4 60.75 12.5 60.65 12.3 60.8 12.1 M52.6 4.95 L53.75 5.65 53.65 5.8 53.3 5.95 48.45 6.05 45.7 6.3 45.45 6.15 43.3 5.6 46.15 5.25 52.6 4.95 M10.2 13.9 L9.6 14.75 9.55 14.75 7.85 14.35 7.35 14.2 5.65 14.05 6.05 13.45 8.05 13.35 9.1 13.55 9.25 13.35 Q15.95 8.0 23.5 4.95 31.85 1.55 41.25 1.1 L43.5 1.4 44.9 1.8 44.8 1.85 44.45 2.0 Q36.6 2.0 29.45 4.0 26.45 4.85 23.55 6.05 16.5 8.9 10.2 13.9" fill="#222436" fill-rule="evenodd" stroke="none"/>
    <path d="M59.7 20.55 Q59.8 20.4 60.0 20.4 60.2 20.4 60.35 20.55 L60.5 20.8 60.75 21.9 60.75 22.15 60.65 22.35 Q48.3 37.15 32.1 39.35 L31.8 39.3 31.6 39.15 31.5 38.9 31.35 32.05 Q31.35 31.85 31.5 31.7 31.6 31.5 31.8 31.5 49.25 29.65 59.7 20.55 M50.95 30.35 L55.75 26.2 55.95 26.0 59.7 21.9 59.7 21.85 56.35 24.35 54.0 25.85 Q50.7 27.7 46.95 29.15 L46.75 29.25 46.4 29.35 33.55 32.3 32.35 32.45 32.4 34.05 32.5 38.3 Q42.5 36.75 50.95 30.35" fill="#4a4a4a" fill-rule="evenodd" stroke="none"/>
    <path d="M32.4 34.05 L32.35 32.45 33.55 32.3 46.4 29.35 46.75 29.25 46.95 29.15 Q46.15 29.95 40.75 31.7 L32.65 34.05 32.4 34.05" fill="#a8a8a8" fill-rule="evenodd" stroke="none"/>
    <path d="M50.95 30.35 Q42.5 36.75 32.5 38.3 L32.4 34.05 32.65 34.05 40.75 31.7 Q46.15 29.95 46.95 29.15 50.7 27.7 54.0 25.85 L52.7 27.5 50.5 30.65 50.95 30.35" fill="#939393" fill-rule="evenodd" stroke="none"/>
    <path d="M54.0 25.85 L56.35 24.35 59.7 21.85 59.7 21.9 55.95 26.0 55.75 26.2 50.95 30.35 50.5 30.65 52.7 27.5 54.0 25.85" fill="#808080" fill-rule="evenodd" stroke="none"/>
  </g>
</svg>
