<?xml version="1.0" encoding="UTF-8" standalone="no"?>
<svg xmlns:ffdec="https://www.free-decompiler.com/flash" xmlns:xlink="http://www.w3.org/1999/xlink" ffdec:objectType="shape" height="15.4px" width="63.45px" xmlns="http://www.w3.org/2000/svg">
  <g transform="matrix(1.0, 0.0, 0.0, 1.0, 54.3, -10.6)">
    <path d="M9.15 16.3 Q9.15 23.25 -0.5 25.15 L-20.4 26.0 -45.65 24.95 Q-54.55 23.15 -54.3 16.3 -40.85 9.95 -15.4 10.7 -5.05 11.0 1.95 12.55 9.15 14.15 9.15 16.3 M-5.95 17.85 L6.3 19.75 7.7 16.3 Q5.15 14.95 1.15 13.8 -2.6 12.75 -5.95 12.4 L-17.05 11.65 Q-26.6 11.45 -34.7 11.95 -41.8 12.55 -46.3 14.05 L-53.2 16.85 -51.85 20.75 -46.3 19.6 -34.7 17.9 -17.05 17.15 -5.95 17.85 M-5.95 18.85 L-19.25 18.15 -36.5 19.1 Q-47.85 20.25 -50.8 22.2 -48.9 24.0 -42.4 24.4 L-21.2 24.65 -5.75 24.55 Q2.85 24.05 5.8 21.3 2.6 19.5 -4.45 19.1 -11.5 18.7 -5.95 18.85" fill="#464646" fill-rule="evenodd" stroke="none"/>
    <path d="M-5.95 12.4 Q-2.6 12.75 1.15 13.8 5.15 14.95 7.7 16.3 L6.3 19.75 -5.95 17.85 -5.95 12.4 M-46.3 19.6 L-51.85 20.75 -53.2 16.85 -46.3 14.05 -46.3 19.6" fill="#8a8a8a" fill-rule="evenodd" stroke="none"/>
    <path d="M-5.95 12.4 L-5.95 17.85 -17.05 17.15 -17.05 11.65 -5.95 12.4 M-34.7 17.9 L-46.3 19.6 -46.3 14.05 Q-41.8 12.55 -34.7 11.95 L-34.7 17.9" fill="#b4b4b4" fill-rule="evenodd" stroke="none"/>
    <path d="M-17.05 17.15 L-34.7 17.9 -34.7 11.95 Q-26.6 11.45 -17.05 11.65 L-17.05 17.15" fill="#e0e0e0" fill-rule="evenodd" stroke="none"/>
    <path d="M-5.95 18.85 Q-11.5 18.7 -4.45 19.1 2.6 19.5 5.8 21.3 2.85 24.05 -5.75 24.55 L-21.2 24.65 -42.4 24.4 Q-48.9 24.0 -50.8 22.2 -47.85 20.25 -36.5 19.1 L-19.25 18.15 -5.95 18.85" fill="#616161" fill-rule="evenodd" stroke="none"/>
  </g>
</svg>
