<?xml version="1.0" encoding="UTF-8" standalone="no"?>
<svg xmlns:ffdec="https://www.free-decompiler.com/flash" xmlns:xlink="http://www.w3.org/1999/xlink" ffdec:objectType="shape" height="125.9px" width="60.0px" xmlns="http://www.w3.org/2000/svg">
  <g transform="matrix(1.0, 0.0, 0.0, 1.0, 27.15, 136.05)">
    <path d="M26.95 -67.6 L26.4 -67.2 25.25 -66.4 25.2 -66.35 26.95 -67.6" fill="#0000ff" fill-rule="evenodd" stroke="none"/>
    <path d="M2.65 -112.85 L4.15 -112.9 4.25 -109.5 2.75 -107.8 2.65 -112.85 M8.3 -94.9 L8.15 -96.1 8.55 -96.05 Q8.35 -96.05 8.3 -94.9 M4.65 -93.05 L4.85 -87.0 3.35 -84.65 3.2 -91.6 4.65 -93.05 M5.15 -76.15 L5.25 -72.15 3.75 -70.25 3.65 -74.8 5.15 -76.15 M5.3 -69.85 L5.9 -47.9 4.4 -47.35 4.25 -52.1 5.3 -54.75 4.2 -53.7 3.75 -70.05 5.3 -69.85 M6.0 -43.9 L6.1 -40.25 4.6 -38.8 4.5 -43.85 6.0 -43.9 M6.3 -32.8 L6.4 -27.85 4.9 -28.15 4.75 -33.15 6.3 -32.8 M6.55 -23.5 L6.6 -20.3 5.15 -19.9 5.05 -23.25 6.55 -23.5 M-2.8 -109.75 L-2.7 -103.65 -4.2 -103.0 -4.3 -108.25 -2.8 -109.75 M-2.5 -86.15 L-2.45 -77.85 -3.95 -76.75 -4.0 -84.5 -2.5 -86.15 M-2.45 -70.5 L-2.45 -58.45 -3.95 -58.3 -3.95 -69.15 -2.45 -70.5 M-2.45 -56.4 L-2.45 -48.45 Q-2.95 -48.15 -3.95 -48.0 L-3.95 -54.9 -2.45 -56.4 M-2.5 -40.45 L-2.6 -30.3 -4.1 -30.85 -4.05 -39.45 -2.5 -40.45 M-2.7 -22.5 L-2.75 -19.1 -4.25 -19.1 -4.2 -22.35 -2.7 -22.5" fill="#ffffff" fill-rule="evenodd" stroke="none"/>
    <path d="M-6.4 -130.5 L-7.65 -127.65 -8.15 -125.9 Q-8.15 -124.85 -7.2 -123.2 -6.0 -121.0 -4.15 -121.0 1.05 -121.0 4.3 -124.45 6.7 -127.05 6.7 -129.2 6.7 -130.7 5.45 -132.5 L4.7 -133.5 7.1 -131.75 Q8.15 -130.8 8.15 -130.3 8.15 -125.65 4.65 -122.65 1.2 -119.7 -4.2 -119.7 -5.9 -119.7 -7.3 -121.1 -9.0 -122.85 -9.0 -125.9 L-7.7 -128.95 Q-6.1 -132.05 -4.6 -133.35 -5.8 -132.1 -6.4 -130.5 M2.6 -114.2 L4.1 -115.0 4.15 -112.9 2.65 -112.85 2.6 -114.2 M24.0 -84.65 L21.5 -96.5 24.35 -89.35 Q24.8 -88.15 24.8 -86.5 24.8 -85.35 24.0 -84.65 M8.15 -120.3 L8.75 -121.35 10.4 -123.15 Q10.6 -122.5 9.9 -121.35 L8.45 -119.85 Q8.25 -120.0 8.15 -120.3 M2.75 -107.8 L4.25 -109.5 4.45 -100.85 3.0 -98.75 2.75 -107.8 M9.15 -101.1 L10.1 -91.6 10.1 -91.55 9.6 -89.6 9.35 -88.9 9.3 -88.9 Q9.2 -89.0 9.6 -89.6 L9.3 -89.75 9.15 -89.7 9.1 -88.95 Q9.1 -87.75 10.25 -82.05 L11.65 -75.65 14.1 -51.0 13.0 -46.9 11.55 -61.5 11.8 -62.2 11.45 -62.45 8.3 -94.9 Q8.35 -96.05 8.55 -96.05 L8.15 -96.1 7.8 -99.5 7.8 -99.55 9.15 -101.1 M15.4 -37.8 L15.6 -35.65 14.2 -34.55 13.8 -38.5 15.4 -37.8 M15.9 -32.7 L16.65 -24.75 15.25 -23.55 14.8 -28.45 Q15.05 -29.5 14.65 -30.15 L14.35 -33.2 15.9 -32.7 M15.85 -17.6 L15.5 -21.1 16.25 -19.1 16.5 -17.4 Q16.35 -17.7 15.85 -17.6 M7.2 -105.7 L6.35 -114.55 Q7.6 -111.1 7.7 -109.6 7.8 -108.4 7.2 -105.7 M1.95 -116.25 Q5.45 -117.55 6.65 -118.1 L2.9 -115.35 Q0.95 -114.15 -1.2 -114.15 -6.65 -114.15 -8.9 -116.1 -10.1 -117.15 -10.65 -118.85 L-9.95 -118.3 Q-7.9 -116.45 -5.45 -115.55 -3.65 -114.9 -2.1 -114.9 -1.65 -114.9 1.95 -116.25 M3.1 -95.3 L4.6 -96.3 4.65 -93.05 3.2 -91.6 3.1 -95.3 M4.85 -87.0 L5.15 -76.15 3.65 -74.8 3.35 -84.65 4.85 -87.0 M5.25 -72.15 L5.3 -69.85 3.75 -70.05 3.75 -70.25 5.25 -72.15 M5.9 -47.9 L6.0 -43.9 4.5 -43.85 4.4 -47.35 5.9 -47.9 M6.1 -40.25 L6.3 -32.8 4.75 -33.15 4.6 -38.8 6.1 -40.25 M6.4 -27.85 L6.45 -26.85 4.95 -27.0 4.9 -28.15 6.4 -27.85 M6.45 -26.0 L6.55 -23.5 5.05 -23.25 4.95 -25.65 6.45 -26.0 M6.6 -20.3 L6.7 -16.95 5.2 -16.9 5.15 -19.9 6.6 -20.3 M4.25 -52.1 L4.2 -53.7 5.3 -54.75 4.25 -52.1 M-4.35 -112.25 L-2.85 -112.7 -2.8 -109.75 -4.3 -108.25 -4.35 -112.25 M-2.7 -103.65 L-2.65 -98.25 -4.15 -98.2 -4.2 -103.0 -2.7 -103.65 M-2.6 -96.75 L-2.5 -86.15 -4.0 -84.5 -4.1 -94.8 -2.6 -96.75 M-2.45 -77.85 L-2.45 -70.5 -3.95 -69.15 -3.95 -76.75 -2.45 -77.85 M-2.45 -58.45 L-2.45 -56.4 -3.95 -54.9 -3.95 -58.3 -2.45 -58.45 M-2.45 -48.45 L-2.5 -44.85 -4.0 -44.65 -3.95 -48.0 Q-2.95 -48.15 -2.45 -48.45 M-2.5 -42.65 L-2.5 -40.45 -4.05 -39.45 -4.0 -41.5 -2.5 -42.65 M-2.6 -30.3 L-2.65 -27.75 -4.15 -27.9 -4.1 -30.85 -2.6 -30.3 M-2.7 -24.55 L-2.7 -22.5 -4.2 -22.35 -4.2 -24.35 -2.7 -24.55 M-2.75 -19.1 L-2.8 -16.9 -4.3 -16.95 -4.25 -19.1 -2.75 -19.1 M-9.55 -109.0 L-8.85 -109.9 -7.9 -110.65 -8.75 -98.4 Q-9.35 -98.85 -9.55 -98.7 L-10.1 -101.15 -10.1 -101.2 -9.55 -109.0 M-9.6 -67.45 Q-9.6 -58.75 -10.45 -44.4 -11.3 -44.9 -11.3 -46.1 L-11.25 -56.65 -11.1 -62.05 -11.0 -63.15 Q-10.65 -66.4 -9.6 -67.45 M-10.8 -36.35 L-11.1 -28.7 -11.4 -29.0 -11.45 -29.75 -11.2 -33.1 -10.8 -36.35 M-11.25 -22.1 L-11.35 -18.05 -12.45 -19.55 -12.05 -20.5 -11.25 -22.1" fill="#e0e0e0" fill-rule="evenodd" stroke="none"/>
    <path d="M-20.45 -18.75 L-20.9 -20.25 -21.2 -22.15 Q-21.2 -22.75 -19.5 -24.3 L-20.45 -18.75 M-9.05 -114.95 L-7.6 -114.1 -7.9 -110.65 -8.85 -109.9 -9.55 -109.0 -9.05 -114.95 M-4.35 -113.1 L-2.85 -112.95 -2.85 -112.7 -4.35 -112.25 -4.35 -113.1 M6.15 -116.3 L7.55 -117.35 7.95 -113.3 7.9 -113.3 7.8 -112.55 Q7.95 -111.5 8.25 -110.55 L9.15 -101.1 7.8 -99.55 7.2 -105.7 Q7.8 -108.4 7.7 -109.6 7.6 -111.1 6.35 -114.55 L6.15 -116.3 M12.25 -110.3 L13.35 -112.0 14.35 -107.85 13.9 -103.05 12.25 -110.3 M15.4 -103.1 L18.05 -87.9 17.55 -89.9 16.55 -87.8 15.35 -95.55 15.25 -100.15 Q15.25 -101.9 15.4 -103.1 M27.45 -21.15 L27.95 -18.35 27.95 -18.3 26.55 -17.4 25.85 -21.55 27.45 -21.15 M21.75 -101.95 L24.5 -90.05 Q26.0 -82.8 26.75 -76.1 L25.4 -74.75 24.0 -84.65 Q24.8 -85.35 24.8 -86.5 24.8 -88.15 24.35 -89.35 L21.5 -96.5 19.45 -105.05 21.75 -101.95 M10.1 -91.55 L11.65 -75.65 10.25 -82.05 Q9.1 -87.75 9.1 -88.95 L9.15 -89.7 9.3 -89.75 9.6 -89.6 Q9.2 -89.0 9.3 -88.9 L9.35 -88.9 9.6 -89.6 10.1 -91.55 M14.1 -51.0 L14.75 -44.4 14.75 -44.25 15.4 -37.8 13.8 -38.5 13.0 -46.9 14.1 -51.0 M15.6 -35.65 L15.9 -32.7 14.35 -33.2 14.2 -34.55 15.6 -35.65 M16.65 -24.75 L17.65 -15.05 16.15 -14.9 15.85 -17.6 Q16.35 -17.7 16.5 -17.4 L16.25 -19.1 15.5 -21.1 15.25 -23.55 16.65 -24.75 M3.1 -95.3 L3.0 -98.75 4.45 -100.85 4.6 -96.3 3.1 -95.3 M6.45 -26.85 L6.45 -26.0 4.95 -25.65 4.95 -27.0 6.45 -26.85 M6.7 -16.95 L6.75 -14.75 5.25 -14.8 5.2 -16.9 6.7 -16.95 M-2.65 -98.25 L-2.6 -96.75 -4.1 -94.8 -4.15 -98.2 -2.65 -98.25 M-2.5 -44.85 L-2.5 -42.65 -4.0 -41.5 -4.0 -44.65 -2.5 -44.85 M-2.65 -27.75 L-2.7 -24.55 -4.2 -24.35 -4.15 -27.9 -2.65 -27.75 M-2.8 -16.9 L-2.8 -15.25 -4.3 -15.35 -4.3 -16.95 -2.8 -16.9 M-10.1 -101.15 L-9.55 -98.7 Q-9.35 -98.85 -8.75 -98.4 L-8.85 -96.25 -10.3 -97.25 -10.1 -101.15 M-8.95 -94.55 L-9.6 -67.45 Q-10.65 -66.4 -11.0 -63.15 L-10.75 -73.2 -10.45 -94.7 -8.95 -94.55 M-10.45 -44.4 L-10.8 -36.35 -11.2 -33.1 -11.45 -29.75 -11.4 -29.0 -11.1 -28.7 -11.25 -22.1 -12.05 -20.5 -12.45 -19.55 -11.35 -18.05 -11.35 -16.25 -12.85 -16.5 -12.2 -39.85 Q-12.15 -40.4 -11.25 -40.35 L-12.15 -40.45 -11.25 -56.65 -11.3 -46.1 Q-11.3 -44.9 -10.45 -44.4" fill="#b4b4b4" fill-rule="evenodd" stroke="none"/>
    <path d="M-6.4 -130.5 Q-7.15 -128.65 -7.05 -126.4 L-6.9 -124.75 Q-6.65 -123.35 -5.9 -122.5 L-5.5 -122.15 Q-4.75 -121.5 -3.7 -121.5 L-3.65 -121.5 -2.45 -121.65 -2.0 -121.75 Q-0.55 -122.15 0.8 -123.05 L0.95 -123.15 1.15 -123.25 Q5.85 -125.9 5.85 -130.65 L5.75 -131.65 5.55 -132.25 5.45 -132.5 Q6.7 -130.7 6.7 -129.2 6.7 -127.05 4.3 -124.45 1.05 -121.0 -4.15 -121.0 -6.0 -121.0 -7.2 -123.2 -8.15 -124.85 -8.15 -125.9 L-7.65 -127.65 -6.4 -130.5 M4.7 -133.5 L4.65 -133.55 4.35 -133.85 2.95 -134.65 Q-0.2 -136.15 -2.55 -135.05 L-2.8 -134.9 -3.15 -134.7 -4.55 -133.45 -4.6 -133.35 Q-6.1 -132.05 -7.7 -128.95 L-9.0 -125.9 Q-9.0 -122.85 -7.3 -121.1 -5.9 -119.7 -4.2 -119.7 1.2 -119.7 4.65 -122.65 8.15 -125.65 8.15 -130.3 8.15 -130.8 7.1 -131.75 L4.7 -133.5 M-23.05 -13.05 L-23.75 -13.25 -27.15 -14.3 -27.15 -14.45 -26.9 -15.85 -25.9 -21.95 Q-24.65 -27.55 -23.8 -33.05 -22.55 -40.4 -21.85 -47.8 L-20.4 -62.65 -20.4 -62.75 -20.35 -63.35 -20.05 -66.3 -19.9 -73.3 -19.6 -89.35 Q-19.35 -108.35 -12.05 -124.3 L-10.1 -128.25 -8.7 -131.15 Q-7.2 -133.2 -5.05 -134.6 -2.75 -136.05 -0.65 -136.05 L1.9 -135.8 4.5 -135.3 5.25 -134.95 Q7.5 -133.75 8.7 -131.7 L9.2 -130.85 8.95 -128.15 7.15 -124.6 4.75 -121.95 Q2.85 -120.35 1.45 -119.7 -0.1 -119.05 -2.65 -118.85 L-4.8 -118.9 -6.75 -119.55 Q-7.4 -119.75 -8.15 -120.4 L-9.25 -121.4 Q-10.1 -122.4 -10.65 -123.8 L-11.4 -122.1 -9.75 -119.5 Q-8.5 -118.1 -6.95 -117.25 L-2.3 -116.2 Q0.55 -116.2 4.9 -118.7 L6.8 -120.05 7.95 -121.3 9.15 -123.4 10.25 -125.6 Q10.45 -126.45 10.3 -128.25 L11.0 -127.5 11.05 -127.45 11.05 -127.4 11.8 -125.85 12.25 -125.1 Q12.2 -123.95 11.75 -122.9 L10.95 -121.1 13.35 -112.0 12.25 -110.3 9.8 -119.55 7.55 -117.35 6.15 -116.3 4.1 -115.0 2.6 -114.2 0.3 -113.25 -2.15 -112.95 -2.85 -112.95 -4.35 -113.1 Q-6.5 -113.55 -7.6 -114.1 L-9.05 -114.95 -9.55 -115.3 -11.7 -117.55 Q-15.1 -102.4 -15.8 -70.75 -16.5 -38.5 -19.5 -24.3 -21.2 -22.75 -21.2 -22.15 L-20.9 -20.25 -20.45 -18.75 -21.25 -14.5 -22.7 -14.8 -23.05 -13.05 M-22.7 -14.8 Q-20.8 -25.55 -17.85 -66.3 -14.85 -107.65 -13.3 -117.1 -16.75 -98.2 -17.75 -87.95 -18.3 -82.6 -18.4 -73.6 -18.65 -55.55 -25.45 -15.4 L-22.7 -14.8 M14.35 -107.85 L15.4 -103.1 Q15.25 -101.9 15.25 -100.15 L15.35 -95.55 13.9 -103.0 13.9 -103.05 14.35 -107.85 M18.05 -87.9 L18.1 -87.75 18.4 -84.0 19.9 -64.6 27.45 -21.15 25.85 -21.55 24.55 -29.1 24.1 -31.45 24.1 -31.5 Q17.95 -62.05 17.45 -71.45 L17.35 -78.0 Q17.3 -81.95 16.55 -87.8 L17.55 -89.9 18.05 -87.9 M27.95 -18.3 L28.75 -13.55 27.25 -13.3 26.55 -17.4 27.95 -18.3 M17.2 -113.65 L20.0 -109.0 21.75 -101.95 19.45 -105.05 17.2 -113.65 M26.75 -76.1 Q27.15 -72.5 27.05 -69.7 L25.5 -68.4 Q25.7 -71.05 25.4 -74.75 L26.75 -76.1 M8.15 -120.3 Q8.25 -120.0 8.45 -119.85 L9.9 -121.35 Q10.6 -122.5 10.4 -123.15 L8.75 -121.35 8.15 -120.3 M7.95 -113.3 L8.25 -110.55 Q7.95 -111.5 7.8 -112.55 L7.9 -113.3 7.95 -113.3 M17.65 -15.05 L17.95 -12.0 16.45 -11.85 16.15 -14.9 17.65 -15.05 M1.95 -116.25 Q-1.65 -114.9 -2.1 -114.9 -3.65 -114.9 -5.45 -115.55 -7.9 -116.45 -9.95 -118.3 L-10.65 -118.85 Q-10.1 -117.15 -8.9 -116.1 -6.65 -114.15 -1.2 -114.15 0.95 -114.15 2.9 -115.35 L6.65 -118.1 Q5.45 -117.55 1.95 -116.25 M29.55 -92.3 Q30.25 -90.6 31.25 -86.25 L32.15 -81.3 Q32.15 -79.95 31.35 -76.35 L30.55 -84.35 29.55 -92.3 M6.75 -14.75 L6.85 -11.55 5.35 -11.55 5.25 -14.8 6.75 -14.75 M-2.8 -15.25 L-2.85 -11.8 -4.35 -11.9 -4.3 -15.35 -2.8 -15.25 M-10.3 -97.25 L-8.85 -96.25 -8.95 -94.55 -10.45 -94.7 -10.3 -97.25 M-11.35 -16.25 L-11.4 -12.85 -12.9 -13.1 -12.85 -16.5 -11.35 -16.25 M-12.2 -39.85 L-12.15 -40.45 -11.25 -40.35 Q-12.15 -40.4 -12.2 -39.85" fill="#8a8a8a" fill-rule="evenodd" stroke="none"/>
    <path d="M5.45 -132.5 L5.55 -132.25 5.75 -131.65 5.85 -130.65 Q5.85 -125.9 1.15 -123.25 L0.95 -123.15 0.8 -123.05 Q-0.55 -122.15 -2.0 -121.75 L-2.45 -121.65 -3.65 -121.5 -3.7 -121.5 Q-4.75 -121.5 -5.5 -122.15 L-5.9 -122.5 Q-6.65 -123.35 -6.9 -124.75 L-7.05 -126.4 Q-7.15 -128.65 -6.4 -130.5 -5.8 -132.1 -4.6 -133.35 L-4.55 -133.45 -3.15 -134.7 -2.8 -134.9 -2.55 -135.05 Q-0.2 -136.15 2.95 -134.65 L4.35 -133.85 4.65 -133.55 4.7 -133.5 5.45 -132.5 M-23.05 -13.05 L-22.7 -14.8 -21.25 -14.5 -21.6 -12.7 -22.5 -12.95 -23.05 -13.05 M28.75 -13.55 L28.95 -12.35 27.95 -12.1 27.5 -12.0 27.25 -13.3 28.75 -13.55 M17.2 -113.65 L17.2 -113.7 15.7 -119.15 18.6 -114.3 20.0 -109.0 17.2 -113.65 M2.4 -133.5 L1.85 -133.75 Q-1.0 -134.85 -3.0 -133.2 L-3.6 -132.6 Q-5.15 -130.9 -5.6 -128.65 L-5.7 -128.3 -5.7 -128.25 -5.8 -127.0 -5.75 -125.7 -5.6 -124.75 -5.3 -123.85 -4.75 -123.15 -4.0 -122.85 -3.7 -122.8 -3.5 -122.8 -3.25 -122.8 -3.0 -122.8 -2.35 -122.95 Q-1.45 -123.2 -0.6 -123.65 1.45 -124.8 3.1 -127.15 L3.7 -128.1 3.65 -128.1 4.15 -129.05 4.4 -129.7 4.4 -129.75 4.45 -129.9 4.55 -130.85 4.55 -130.95 4.55 -131.1 4.5 -131.4 4.4 -131.65 Q4.05 -132.55 2.95 -133.2 L2.5 -133.45 2.4 -133.5 M27.05 -69.7 L26.95 -67.6 25.2 -66.35 25.5 -68.4 27.05 -69.7 M17.95 -12.0 L18.1 -10.5 16.6 -10.4 16.45 -11.85 17.95 -12.0 M29.55 -92.3 L29.5 -92.35 28.9 -93.9 24.95 -103.75 27.05 -100.35 29.3 -96.4 30.9 -93.15 31.95 -84.65 32.85 -76.1 31.25 -72.55 31.05 -72.2 31.35 -76.3 31.35 -76.35 Q32.15 -79.95 32.15 -81.3 L31.25 -86.25 Q30.25 -90.6 29.55 -92.3 M6.85 -11.55 L6.9 -10.15 5.4 -10.15 5.35 -11.55 6.85 -11.55 M-2.85 -11.8 L-2.9 -10.4 -4.4 -10.5 -4.35 -11.9 -2.85 -11.8 M-11.4 -12.85 L-11.4 -11.1 -12.9 -11.3 -12.9 -13.1 -11.4 -12.85" fill="#464646" fill-rule="evenodd" stroke="none"/>
  </g>
</svg>
