<?xml version="1.0" encoding="UTF-8" standalone="no"?>
<svg xmlns:ffdec="https://www.free-decompiler.com/flash" xmlns:xlink="http://www.w3.org/1999/xlink" ffdec:objectType="shape" height="15.8px" width="98.7px" xmlns="http://www.w3.org/2000/svg">
  <g transform="matrix(1.0, 0.0, 0.0, 1.0, 46.1, -7.1)">
    <path d="M48.05 8.05 L49.1 7.35 50.9 9.8 52.6 12.1 52.3 12.2 51.45 12.55 49.9 10.5 48.05 8.05 M46.35 16.35 L45.2 16.6 44.3 15.2 43.55 13.95 41.6 10.75 40.95 9.6 42.4 9.35 44.8 13.7 46.35 16.35 M34.35 20.3 L33.6 20.55 33.3 20.65 32.5 18.45 32.3 17.95 31.65 16.2 31.3 15.3 30.5 13.3 32.0 13.25 33.4 17.35 33.45 17.6 34.35 20.3 M-26.8 20.7 L-26.85 20.7 -27.4 20.6 -26.25 17.8 -25.05 14.6 -24.75 13.8 -24.5 13.25 -24.0 13.2 -23.85 13.2 -24.5 14.85 -24.6 15.15 -26.2 19.2 -26.8 20.7 M-39.2 16.55 L-40.35 16.3 -38.55 13.7 -35.95 9.5 -35.9 9.4 -34.95 9.55 -35.7 10.85 -36.85 12.8 -37.5 13.9 -39.2 16.55 M-45.2 11.85 L-46.1 11.4 -44.4 9.25 -43.45 8.0 -42.75 7.1 -41.95 7.9 -43.5 9.8 -44.1 10.5 -45.2 11.85" fill="#464646" fill-rule="evenodd" stroke="none"/>
    <path d="M48.05 8.05 L49.9 10.5 51.45 12.55 50.4 13.1 49.35 11.75 49.35 11.8 46.85 8.5 48.05 8.05 M48.5 15.55 Q47.8 15.95 46.5 16.35 L46.35 16.35 44.8 13.7 42.4 9.35 42.95 9.25 44.8 8.95 47.1 13.15 48.5 15.55 M45.2 16.6 L43.85 16.9 42.15 14.15 41.25 12.5 41.2 12.45 39.95 10.15 39.95 10.1 39.75 9.8 40.95 9.6 41.6 10.75 43.55 13.95 44.3 15.2 45.2 16.6 M36.5 18.7 L36.4 18.9 36.35 19.1 Q36.1 19.65 34.35 20.3 L33.45 17.6 33.4 17.35 32.0 13.25 32.25 13.2 33.4 12.9 34.7 15.45 35.45 16.85 36.5 18.7 M33.3 20.65 L32.25 20.95 31.05 21.05 30.8 20.4 30.15 18.1 30.05 17.7 28.9 13.4 30.5 13.3 31.3 15.3 31.65 16.2 32.3 17.95 32.5 18.45 33.3 20.65 M11.5 21.95 L8.55 22.4 7.95 19.45 8.0 19.45 7.85 18.75 7.65 17.75 7.65 17.7 7.2 14.85 10.05 14.45 10.95 19.05 11.5 21.95 M-11.55 21.25 L-15.1 20.4 -14.55 18.65 -14.4 18.35 -14.25 17.6 -13.45 13.05 -12.15 13.35 -11.9 16.35 -11.8 18.2 -11.65 20.05 -11.55 21.25 M-25.35 20.95 L-26.8 20.7 -26.2 19.2 -24.6 15.15 -24.5 14.85 -23.85 13.2 -22.6 13.05 -23.25 15.05 -23.65 16.35 -23.65 16.45 -23.7 16.55 -23.9 17.1 -24.2 17.95 -24.6 19.15 -25.35 20.95 M-27.4 20.6 L-29.05 20.15 -29.85 19.85 -29.55 19.25 -28.6 17.35 -26.4 13.05 -24.5 13.25 -24.75 13.8 -25.05 14.6 -26.25 17.8 -27.4 20.6 M-37.5 16.85 L-39.2 16.55 -37.5 13.9 -36.85 12.8 -35.7 10.85 -34.95 9.55 -33.55 9.75 -33.75 10.15 -35.2 12.75 -35.95 14.15 -37.5 16.85 M-40.35 16.3 L-41.2 16.05 -42.25 15.45 -38.4 8.95 -35.9 9.4 -35.95 9.5 -38.55 13.7 -40.35 16.3 M-44.25 12.35 Q-44.65 12.1 -45.2 11.85 L-44.1 10.5 -43.5 9.8 -41.95 7.9 -41.2 8.3 -41.1 8.35 -43.1 10.95 -43.1 10.9 -44.25 12.35" fill="#8a8a8a" fill-rule="evenodd" stroke="none"/>
    <path d="M50.4 13.1 Q49.4 13.75 49.4 14.4 49.4 15.0 48.5 15.55 L47.1 13.15 44.8 8.95 46.85 8.5 49.35 11.8 49.35 11.75 50.4 13.1 M43.85 16.9 L42.95 17.0 41.5 17.25 40.4 15.1 40.1 14.5 39.45 13.0 38.5 10.95 38.15 10.2 39.75 9.8 39.95 10.1 39.95 10.15 41.2 12.45 41.25 12.5 42.15 14.15 43.85 16.9 M38.75 17.8 Q36.9 18.2 36.5 18.7 L35.45 16.85 34.7 15.45 33.4 12.9 33.6 12.8 36.05 11.7 36.3 12.2 37.5 15.15 38.2 16.65 38.75 17.8 M31.05 21.05 L29.15 21.15 28.85 19.75 28.4 18.2 27.8 15.6 27.3 13.5 28.9 13.4 30.05 17.7 30.15 18.1 30.8 20.4 31.05 21.05 M13.1 21.6 L12.4 21.75 11.5 21.95 10.95 19.05 10.05 14.45 12.35 14.0 12.4 14.3 12.8 18.65 13.1 21.6 M8.55 22.4 L5.2 22.75 4.85 19.75 4.65 18.0 4.4 15.05 7.2 14.85 7.65 17.7 7.65 17.75 7.85 18.75 8.0 19.45 7.95 19.45 8.55 22.4 M-9.5 21.8 L-10.4 21.55 -11.55 21.25 -11.65 20.05 -11.8 18.2 -11.9 16.35 -12.15 13.35 -10.95 13.65 -10.05 18.65 -9.6 20.95 -9.5 21.8 M-15.1 20.4 L-16.5 20.2 -17.8 20.3 -17.35 19.35 -16.65 17.55 -16.5 17.2 -16.4 16.75 -15.4 12.6 -13.45 13.05 -14.25 17.6 -14.4 18.35 -14.55 18.65 -15.1 20.4 M-23.4 20.9 L-24.0 20.95 -24.5 21.0 -25.35 20.95 -24.6 19.15 -24.2 17.95 -23.9 17.1 -23.7 16.55 -23.65 16.45 -23.65 16.35 -23.25 15.05 -22.6 13.05 -21.0 12.9 -22.35 17.75 -22.35 17.8 -22.9 19.3 -23.4 20.9 M-29.85 19.85 L-30.25 19.4 -30.25 19.1 -29.95 18.0 -30.85 17.9 -28.3 12.65 -26.85 12.95 -26.4 13.05 -28.6 17.35 -29.55 19.25 -29.85 19.85 M-35.8 17.15 L-37.5 16.85 -35.95 14.15 -35.2 12.75 -33.75 10.15 -33.55 9.75 -31.15 10.1 -32.9 12.65 -34.1 14.45 -34.4 14.95 -35.8 17.15 M-42.25 15.45 Q-43.2 14.6 -43.2 13.05 -43.2 12.9 -44.25 12.35 L-43.1 10.9 -43.1 10.95 -41.1 8.35 -38.4 8.95 -42.25 15.45" fill="#b4b4b4" fill-rule="evenodd" stroke="none"/>
    <path d="M41.5 17.25 L38.75 17.8 38.2 16.65 37.5 15.15 36.3 12.2 36.05 11.7 36.35 11.35 36.4 11.15 Q36.4 10.65 38.15 10.2 L38.5 10.95 39.45 13.0 40.1 14.5 40.4 15.1 41.5 17.25 M29.15 21.15 L26.1 21.25 24.15 13.4 24.65 13.45 27.3 13.5 27.8 15.6 28.4 18.2 28.85 19.75 29.15 21.15 M21.35 20.85 L18.45 20.55 17.3 20.75 17.85 19.95 17.3 17.75 17.15 17.05 16.95 16.3 16.9 16.2 16.55 14.6 16.3 13.45 16.25 13.2 18.45 12.8 18.95 12.85 19.5 14.7 19.85 15.9 20.25 17.25 20.45 17.75 21.2 20.3 21.35 20.85 M15.2 21.2 L13.1 21.6 12.8 18.65 12.4 14.3 12.35 14.0 12.4 14.0 13.95 13.7 14.15 15.1 14.7 18.3 15.2 21.2 M5.2 22.75 L4.25 22.8 3.3 15.1 4.4 15.05 4.65 18.0 4.85 19.75 5.2 22.75 M3.9 22.85 L2.75 22.9 -0.85 15.15 0.75 15.15 2.55 15.15 Q2.55 16.95 2.7 17.85 L2.7 18.2 2.7 18.3 2.75 18.55 2.75 18.75 2.85 19.3 3.0 19.85 Q3.3 21.3 3.9 22.85 M-6.9 22.3 L-9.5 21.8 -9.6 20.95 -10.05 18.65 -10.95 13.65 -10.4 13.8 -9.4 14.05 -8.2 17.95 -7.9 19.15 -7.8 19.15 -7.05 21.85 -7.05 21.95 -6.9 22.3 M-17.8 20.3 L-17.85 20.3 -19.75 20.5 -16.65 12.45 -16.5 12.45 -15.4 12.6 -16.4 16.75 -16.5 17.2 -16.65 17.55 -17.35 19.35 -17.8 20.3 M-22.45 20.8 L-23.4 20.9 -22.9 19.3 -22.35 17.8 -22.35 17.75 -21.0 12.9 -19.5 12.7 -19.65 13.05 -19.75 13.3 -19.8 13.4 -20.35 15.0 -21.3 17.65 -21.6 18.5 -22.45 20.8 M-30.85 17.9 L-35.8 17.15 -34.4 14.95 -34.1 14.45 -32.9 12.65 -31.15 10.1 -29.95 10.25 -30.25 11.35 -30.25 11.65 -29.05 12.4 -28.3 12.65 -30.85 17.9" fill="#e0e0e0" fill-rule="evenodd" stroke="none"/>
    <path d="M26.1 21.25 L24.65 21.2 23.4 21.05 21.35 20.85 21.2 20.3 20.45 17.75 20.25 17.25 19.85 15.9 19.5 14.7 18.95 12.85 23.4 13.3 24.15 13.4 26.1 21.25 M17.3 20.75 L15.2 21.2 14.7 18.3 14.15 15.1 13.95 13.7 16.25 13.2 16.3 13.45 16.55 14.6 16.9 16.2 16.95 16.3 17.15 17.05 17.3 17.75 17.85 19.95 17.3 20.75 M4.25 22.8 L3.9 22.85 Q3.3 21.3 3.0 19.85 L2.85 19.3 2.75 18.75 2.75 18.55 2.7 18.3 2.7 18.2 2.7 17.85 Q2.55 16.95 2.55 15.15 L3.3 15.1 4.25 22.8 M2.75 22.9 L0.75 22.9 -6.9 22.3 -7.05 21.95 -7.05 21.85 -7.8 19.15 -7.9 19.15 -8.2 17.95 -9.4 14.05 Q-5.4 15.0 -0.85 15.15 L2.75 22.9 M-19.75 20.5 L-22.45 20.8 -21.6 18.5 -21.3 17.65 -20.35 15.0 -19.8 13.4 -19.75 13.3 -19.65 13.05 -19.5 12.7 -16.65 12.45 -19.75 20.5" fill="#ffffff" fill-rule="evenodd" stroke="none"/>
  </g>
</svg>
