<?xml version="1.0" encoding="UTF-8" standalone="no"?>
<svg xmlns:ffdec="https://www.free-decompiler.com/flash" xmlns:xlink="http://www.w3.org/1999/xlink" ffdec:objectType="shape" height="53.7px" width="37.4px" xmlns="http://www.w3.org/2000/svg">
  <g transform="matrix(1.0, 0.0, 0.0, 1.0, 35.25, 53.85)">
    <path d="M-27.6 -43.5 L-26.85 -44.45 -26.9 -44.5 -23.75 -45.6 -23.75 -43.65 -25.1 -43.2 -24.65 -40.6 -25.55 -40.65 Q-25.55 -41.85 -26.15 -42.65 -26.75 -43.5 -27.6 -43.5 M0.95 -26.5 L0.15 -26.45 0.05 -27.25 0.1 -27.9 1.1 -27.9 1.4 -27.5 1.1 -26.6 0.95 -26.5 M-0.6 -29.05 L-0.35 -28.05 -1.4 -28.15 -1.45 -28.45 -1.4 -28.95 -0.65 -29.05 -0.6 -29.05 M-12.1 -47.5 L-14.5 -48.8 -7.05 -51.4 -8.35 -49.95 -9.3 -48.65 -10.15 -48.4 Q-11.45 -48.05 -12.1 -47.5 M-0.2 -51.25 L-0.1 -50.8 -1.15 -52.7 -0.8 -52.6 Q-0.4 -52.25 -0.3 -51.8 L-0.2 -51.25 M-3.45 -50.0 L-3.55 -49.65 -3.9 -49.55 -4.2 -49.65 -4.35 -50.0 -4.2 -50.3 -3.9 -50.45 -3.55 -50.3 -3.45 -50.0 M-5.45 -49.3 L-4.85 -49.05 -4.65 -48.5 -4.85 -47.9 -5.45 -47.7 -6.0 -47.9 -6.25 -48.5 -6.0 -49.05 -5.45 -49.3 M-3.95 -47.0 L-3.8 -47.4 -3.4 -47.55 -3.0 -47.4 -2.85 -47.0 Q-2.85 -46.75 -3.0 -46.6 -3.15 -46.45 -3.4 -46.45 -3.65 -46.45 -3.8 -46.6 L-3.95 -47.0 M-5.2 -46.5 L-4.8 -46.65 -4.4 -46.5 -4.25 -46.1 Q-4.25 -45.85 -4.4 -45.7 -4.55 -45.55 -4.8 -45.55 L-5.2 -45.7 -5.35 -46.1 -5.2 -46.5 M-9.55 -46.4 L-9.2 -46.55 -8.85 -46.4 -8.7 -46.05 Q-8.7 -45.85 -8.85 -45.7 -9.0 -45.55 -9.2 -45.55 -9.4 -45.55 -9.55 -45.7 L-9.7 -46.05 -9.55 -46.4 M-15.4 -46.25 L-15.15 -46.4 -14.85 -46.25 -14.75 -46.0 -14.85 -45.7 -15.15 -45.6 Q-15.3 -45.6 -15.4 -45.7 L-15.55 -46.0 -15.4 -46.25 M-13.3 -44.55 L-13.55 -43.95 Q-13.8 -43.7 -14.15 -43.7 L-14.75 -43.95 -15.0 -44.55 -14.75 -45.15 -14.15 -45.4 -13.55 -45.15 -13.3 -44.55 M-16.15 -47.85 L-15.95 -45.95 -16.0 -45.85 -16.55 -45.95 -17.8 -46.85 -17.4 -47.45 Q-17.05 -47.7 -16.95 -48.1 L-16.15 -47.85 M-20.75 -46.4 L-20.55 -46.9 -20.05 -47.15 -19.55 -46.9 -19.35 -46.4 -19.55 -45.85 Q-19.75 -45.65 -20.05 -45.65 L-20.55 -45.85 -20.75 -46.4 M-17.95 -45.0 Q-17.6 -45.0 -17.35 -44.75 L-17.1 -44.15 Q-17.1 -43.8 -17.35 -43.55 -17.6 -43.3 -17.95 -43.3 L-18.55 -43.55 -18.8 -44.15 -18.55 -44.75 -17.95 -45.0 M-16.05 -44.6 L-15.75 -44.75 -15.4 -44.6 -15.3 -44.3 -15.4 -43.95 -15.75 -43.85 -16.05 -43.95 -16.2 -44.3 -16.05 -44.6 M-11.35 -30.55 L-11.25 -30.55 -11.15 -30.55 -11.05 -30.55 -10.9 -30.35 -11.0 -29.85 -11.25 -29.5 -12.15 -29.65 -12.55 -29.95 -12.35 -30.3 -11.7 -30.5 -11.35 -30.55 M-3.85 -33.85 L-3.35 -34.05 -2.85 -33.9 -2.7 -33.55 Q-2.7 -33.0 -2.85 -32.75 L-3.2 -32.45 -3.55 -32.65 -3.8 -33.25 -3.85 -33.85 M-0.2 -20.75 L-0.2 -20.7 -1.15 -20.55 Q-0.95 -20.8 -1.2 -21.15 L-1.35 -21.9 -0.6 -22.1 -0.15 -21.6 -0.2 -20.75 M-12.6 -18.1 L-12.6 -19.05 Q-12.0 -19.8 -11.2 -19.55 L-10.95 -18.8 Q-11.05 -17.9 -11.8 -17.8 L-12.6 -18.1 M-14.45 -28.4 L-14.75 -28.55 -14.9 -29.25 Q-14.9 -30.25 -14.8 -29.55 L-13.8 -30.1 -13.3 -30.15 Q-13.05 -30.1 -13.05 -29.45 L-13.1 -29.05 Q-13.35 -28.75 -14.45 -28.4 M-11.2 -26.45 L-11.4 -26.55 -11.35 -27.65 Q-10.9 -27.65 -10.0 -28.15 L-9.5 -27.15 -9.6 -26.95 -10.35 -26.3 -10.6 -26.2 -11.2 -26.45 M-9.3 -28.25 L-9.5 -29.9 -9.05 -29.2 -9.0 -28.6 -9.3 -28.25 M-13.0 -25.5 L-12.65 -25.05 -12.6 -24.7 -13.6 -23.9 -13.85 -25.1 -13.0 -25.5 M-13.95 -21.5 L-15.1 -21.65 -15.45 -22.5 -15.3 -22.75 -15.35 -22.9 -15.3 -22.95 -14.65 -23.1 -13.8 -23.0 -13.7 -23.05 -13.65 -23.05 Q-13.65 -21.95 -13.95 -21.5 M-2.2 -31.45 L-2.3 -30.8 -2.5 -30.55 -2.8 -30.6 -2.9 -30.65 -3.2 -30.85 -3.0 -32.0 -2.2 -31.45 M-5.4 -29.15 L-5.6 -30.45 -5.35 -30.95 Q-5.0 -30.9 -4.8 -30.55 L-4.4 -29.6 -5.3 -29.05 -5.4 -29.15 M-4.3 -29.0 L-3.3 -29.25 -2.9 -29.15 Q-3.55 -28.5 -4.2 -28.7 L-4.3 -29.0 M-7.8 -32.95 L-6.9 -33.1 -6.6 -32.35 -6.95 -32.1 -7.2 -32.0 -7.8 -32.95 M-8.7 -34.2 L-8.5 -33.0 -9.2 -32.85 -9.5 -33.0 -9.9 -33.45 -9.15 -33.95 Q-8.6 -34.05 -9.15 -34.45 L-8.7 -34.2 M-3.35 -24.6 L-3.35 -25.0 Q-2.7 -25.4 -2.05 -25.3 L-3.35 -24.6 M-27.05 -29.0 L-26.8 -29.6 -26.2 -29.85 -25.6 -29.6 -25.35 -29.0 Q-25.35 -28.65 -25.6 -28.4 -25.85 -28.15 -26.2 -28.15 -26.55 -28.15 -26.8 -28.4 L-27.05 -29.0 M-24.55 -21.9 Q-24.25 -22.2 -23.85 -22.2 L-23.15 -21.9 -22.85 -21.2 Q-22.85 -20.8 -23.15 -20.5 -23.45 -20.2 -23.85 -20.2 -24.25 -20.2 -24.55 -20.5 L-24.85 -21.2 -24.55 -21.9 M-24.7 -16.55 Q-24.7 -16.05 -24.95 -15.7 -25.25 -15.35 -25.65 -15.35 -26.05 -15.35 -26.3 -15.7 L-26.6 -16.55 -26.3 -17.4 Q-26.05 -17.75 -25.65 -17.75 -25.25 -17.75 -24.95 -17.4 -24.7 -17.05 -24.7 -16.55 M-22.25 -13.85 Q-21.85 -13.85 -21.55 -13.55 -21.25 -13.25 -21.25 -12.85 -21.25 -12.45 -21.55 -12.15 -21.85 -11.85 -22.25 -11.85 L-22.95 -12.15 -23.25 -12.85 -22.95 -13.55 -22.25 -13.85 M-24.25 -9.65 Q-23.75 -9.65 -23.4 -9.2 -23.1 -8.75 -23.1 -8.1 -23.1 -7.45 -23.4 -7.0 -23.75 -6.55 -24.25 -6.55 -24.75 -6.55 -25.05 -7.0 -25.4 -7.45 -25.4 -8.1 -25.4 -8.75 -25.05 -9.2 -24.75 -9.65 -24.25 -9.65 M-1.2 -24.2 L-1.15 -24.25 -1.0 -24.25 Q-0.45 -23.8 -1.0 -22.75 L-1.6 -23.65 -1.5 -23.9 -1.45 -23.95 -1.2 -24.2 M-4.25 -23.9 L-3.2 -24.0 -3.0 -22.6 Q-3.65 -21.95 -4.05 -22.75 L-4.35 -23.8 -4.25 -23.9 M-4.85 -20.25 L-4.55 -20.35 -4.1 -20.35 Q-4.05 -19.6 -4.45 -19.3 L-5.0 -19.0 Q-4.1 -20.35 -4.85 -20.25 M-8.05 -22.2 L-7.45 -22.2 -7.4 -22.05 Q-7.3 -21.35 -7.55 -20.7 L-8.25 -21.65 -8.05 -22.2 M-8.9 -23.35 L-8.6 -23.1 Q-9.35 -21.95 -10.15 -21.6 L-10.2 -21.75 -10.45 -23.0 -10.2 -23.2 -9.35 -23.4 -8.9 -23.35" fill="#ffffff" fill-rule="evenodd" stroke="none"/>
    <path d="M-25.5 -40.1 Q-23.75 -30.95 -20.8 -18.6 L-20.4 -16.25 Q-19.8 -12.3 -19.9 -6.95 -22.15 -3.9 -24.1 -3.9 -26.35 -3.9 -27.2 -4.85 -28.35 -6.1 -28.35 -9.85 L-27.75 -16.75 Q-27.6 -19.45 -27.6 -43.5 -26.75 -43.5 -26.15 -42.65 -25.55 -41.85 -25.55 -40.65 L-25.5 -40.1 M1.1 -27.9 L0.1 -27.9 0.05 -27.25 0.15 -26.45 0.95 -26.5 0.7 -26.35 -0.25 -26.15 -1.25 -26.95 -1.55 -26.55 -3.05 -26.95 -1.6 -28.85 -1.5 -28.35 -1.4 -28.15 -0.35 -28.05 -0.6 -29.05 Q0.4 -28.9 1.0 -28.3 L1.1 -27.9 M-3.45 -50.0 L-3.55 -50.3 -3.9 -50.45 -4.2 -50.3 -4.35 -50.0 -4.2 -49.65 -3.9 -49.55 -3.55 -49.65 -3.45 -50.0 M-1.45 -49.7 L-0.95 -47.35 Q-1.55 -46.25 -2.05 -45.75 -2.9 -44.85 -4.6 -44.85 -5.3 -44.85 -6.15 -45.55 -7.15 -46.4 -7.15 -47.65 -7.15 -48.7 -6.45 -49.8 -5.6 -51.1 -4.4 -51.1 L-3.25 -50.6 -1.45 -49.7 M-5.2 -46.5 L-5.35 -46.1 -5.2 -45.7 -4.8 -45.55 Q-4.55 -45.55 -4.4 -45.7 -4.25 -45.85 -4.25 -46.1 L-4.4 -46.5 -4.8 -46.65 -5.2 -46.5 M-3.95 -47.0 L-3.8 -46.6 Q-3.65 -46.45 -3.4 -46.45 -3.15 -46.45 -3.0 -46.6 -2.85 -46.75 -2.85 -47.0 L-3.0 -47.4 -3.4 -47.55 -3.8 -47.4 -3.95 -47.0 M-5.45 -49.3 L-6.0 -49.05 -6.25 -48.5 -6.0 -47.9 -5.45 -47.7 -4.85 -47.9 -4.65 -48.5 -4.85 -49.05 -5.45 -49.3 M-3.2 -44.9 L-2.85 -45.05 -2.5 -44.9 -2.35 -44.5 Q-2.35 -44.25 -2.5 -44.1 -2.65 -43.95 -2.85 -43.95 -3.05 -43.95 -3.2 -44.1 L-3.35 -44.5 -3.2 -44.9 M-8.15 -46.15 L-8.55 -45.3 Q-8.75 -44.95 -9.4 -44.95 L-10.0 -44.95 -9.85 -45.0 -10.0 -45.1 -10.1 -45.85 -9.9 -46.65 -9.55 -46.85 -8.55 -46.65 -8.15 -46.15 M-9.55 -46.4 L-9.7 -46.05 -9.55 -45.7 Q-9.4 -45.55 -9.2 -45.55 -9.0 -45.55 -8.85 -45.7 -8.7 -45.85 -8.7 -46.05 L-8.85 -46.4 -9.2 -46.55 -9.55 -46.4 M-13.3 -44.55 L-13.55 -45.15 -14.15 -45.4 -14.75 -45.15 -15.0 -44.55 -14.75 -43.95 -14.15 -43.7 Q-13.8 -43.7 -13.55 -43.95 L-13.3 -44.55 M-15.4 -46.25 L-15.55 -46.0 -15.4 -45.7 Q-15.3 -45.6 -15.15 -45.6 L-14.85 -45.7 -14.75 -46.0 -14.85 -46.25 -15.15 -46.4 -15.4 -46.25 M-16.15 -47.85 L-16.0 -47.7 -13.3 -44.9 -12.75 -44.0 -14.55 -42.6 Q-14.1 -42.5 -14.15 -42.0 L-14.0 -41.95 -15.95 -42.3 Q-15.7 -41.8 -15.7 -40.8 L-16.45 -40.7 Q-16.75 -40.7 -18.1 -41.4 -19.7 -42.25 -20.8 -42.6 L-20.05 -43.1 -21.55 -45.25 Q-21.85 -45.65 -21.85 -46.55 -21.85 -47.9 -19.2 -48.15 L-16.95 -48.1 Q-17.05 -47.7 -17.4 -47.45 L-17.8 -46.85 -16.55 -45.95 -16.0 -45.85 -15.95 -45.95 -16.15 -47.85 M-16.05 -44.6 L-16.2 -44.3 -16.05 -43.95 -15.75 -43.85 -15.4 -43.95 -15.3 -44.3 -15.4 -44.6 -15.75 -44.75 -16.05 -44.6 M-17.95 -45.0 L-18.55 -44.75 -18.8 -44.15 -18.55 -43.55 -17.95 -43.3 Q-17.6 -43.3 -17.35 -43.55 -17.1 -43.8 -17.1 -44.15 L-17.35 -44.75 Q-17.6 -45.0 -17.95 -45.0 M-20.75 -46.4 L-20.55 -45.85 -20.05 -45.65 Q-19.75 -45.65 -19.55 -45.85 L-19.35 -46.4 -19.55 -46.9 -20.05 -47.15 -20.55 -46.9 -20.75 -46.4 M-19.0 -40.35 L-18.85 -40.75 -18.5 -40.9 -18.15 -40.75 -18.0 -40.35 Q-18.0 -40.1 -18.15 -39.95 -18.3 -39.8 -18.5 -39.8 L-18.85 -39.95 -19.0 -40.35 M-14.5 -30.2 Q-13.85 -30.7 -12.75 -30.7 L-11.35 -30.55 -11.7 -30.5 -12.35 -30.3 -12.55 -29.95 -12.15 -29.65 -11.25 -29.5 -11.0 -29.75 -10.55 -30.35 Q-10.15 -30.65 -9.55 -30.65 L-8.95 -30.45 -8.25 -29.75 -9.0 -28.6 -9.05 -29.2 -9.5 -29.9 -9.3 -28.25 -9.15 -27.9 -9.5 -27.15 -10.0 -28.15 Q-10.9 -27.65 -11.35 -27.65 L-11.4 -26.55 -11.2 -26.45 -11.8 -26.7 -12.45 -27.2 -11.65 -27.85 -12.3 -28.05 -13.5 -27.85 -14.35 -28.25 -14.45 -28.4 Q-13.35 -28.75 -13.1 -29.05 L-13.05 -29.45 Q-13.05 -30.1 -13.3 -30.15 L-13.8 -30.1 -14.8 -29.55 -14.5 -30.2 M-4.2 -33.55 L-3.85 -33.85 -3.8 -33.25 -3.55 -32.65 -3.2 -32.45 -2.85 -32.75 Q-2.7 -33.0 -2.7 -33.55 -1.45 -32.5 -2.2 -31.45 L-3.0 -32.0 -3.2 -30.85 -2.95 -30.65 -2.9 -30.65 -2.8 -30.6 -2.4 -30.25 -2.2 -29.3 -2.45 -28.7 -3.1 -28.0 -4.2 -28.7 Q-3.55 -28.5 -2.9 -29.15 L-3.3 -29.25 -4.3 -29.0 -4.6 -28.7 -5.3 -29.05 -4.4 -29.6 -4.8 -30.55 Q-5.0 -30.9 -5.35 -30.95 L-5.6 -30.45 -5.4 -29.15 -6.1 -29.3 -5.75 -30.5 -5.15 -31.95 Q-4.95 -31.9 -4.6 -31.05 -4.3 -31.35 -4.45 -31.7 L-4.55 -32.7 -4.2 -33.55 M-3.35 -34.05 L-2.95 -34.05 -2.85 -33.9 -3.35 -34.05 M-2.65 -26.15 L-1.9 -25.85 Q-1.1 -25.35 -1.2 -24.2 L-1.45 -23.95 -1.6 -23.9 -1.6 -23.65 -1.0 -22.75 Q-0.45 -23.8 -1.0 -24.25 L-0.1 -24.25 Q0.25 -21.95 -0.15 -20.8 L-0.2 -20.75 -0.15 -21.6 -0.6 -22.1 -1.35 -21.9 -1.2 -21.15 Q-0.95 -20.8 -1.15 -20.55 L-1.4 -20.5 Q-1.65 -21.6 -2.0 -21.5 L-2.1 -21.6 -2.1 -21.95 -2.35 -22.5 Q-2.95 -22.15 -2.95 -21.55 L-3.6 -21.65 -4.35 -22.1 -4.8 -23.25 -4.35 -23.8 -4.05 -22.75 Q-3.65 -21.95 -3.0 -22.6 L-3.2 -24.0 -4.25 -23.9 -3.8 -24.65 -3.75 -24.65 -3.35 -24.6 -2.05 -25.3 Q-2.7 -25.4 -3.35 -25.0 L-2.65 -26.15 M-6.55 -21.6 L-6.9 -20.6 -7.4 -20.15 -8.35 -19.95 -9.1 -20.05 -8.85 -19.35 Q-8.6 -19.0 -7.8 -19.2 -8.55 -17.95 -9.05 -17.45 -9.8 -16.75 -10.65 -16.75 -11.05 -16.75 -12.6 -18.1 L-11.8 -17.8 Q-11.05 -17.9 -10.95 -18.8 L-11.2 -19.55 Q-12.0 -19.8 -12.6 -19.05 L-12.55 -19.4 Q-12.2 -19.5 -11.75 -20.35 -10.35 -20.65 -10.3 -21.3 L-11.25 -21.4 -10.85 -22.8 -10.3 -23.45 -9.25 -23.8 -8.9 -23.35 -9.35 -23.4 -10.2 -23.2 -10.45 -23.0 -10.2 -21.75 -10.15 -21.6 Q-9.35 -21.95 -8.6 -23.1 L-7.95 -22.75 -8.05 -22.2 -8.25 -21.65 -7.55 -20.7 Q-7.3 -21.35 -7.4 -22.05 L-6.55 -21.6 M-12.6 -24.95 L-12.75 -25.5 -10.4 -24.7 -11.7 -23.3 Q-12.2 -23.3 -12.55 -22.9 -12.95 -22.55 -12.95 -22.05 L-13.95 -21.5 Q-13.65 -21.95 -13.65 -23.05 L-13.7 -23.05 -13.8 -23.0 -14.65 -23.1 -15.3 -22.95 Q-15.25 -23.8 -14.85 -24.4 -14.45 -25.1 -13.85 -25.1 L-13.6 -23.9 -12.6 -24.7 -12.6 -24.95 M-15.1 -21.65 L-15.5 -22.05 -15.45 -22.5 -15.1 -21.65 M-9.95 -33.2 L-9.85 -33.8 -9.7 -34.05 -9.2 -34.45 -9.15 -34.45 Q-8.6 -34.05 -9.15 -33.95 L-9.9 -33.45 -9.5 -33.0 -9.2 -32.85 -8.5 -33.0 -8.7 -34.2 -7.4 -33.85 Q-6.9 -33.55 -6.9 -33.1 L-7.8 -32.95 -7.6 -32.25 Q-7.45 -32.0 -7.2 -32.0 L-7.0 -31.95 -6.5 -32.15 -7.45 -29.8 -8.55 -31.05 Q-8.55 -31.5 -9.55 -32.2 L-9.95 -33.2 M-9.6 -26.95 L-9.85 -26.25 -10.35 -26.3 -9.6 -26.95 M-22.25 -13.85 L-22.95 -13.55 -23.25 -12.85 -22.95 -12.15 -22.25 -11.85 Q-21.85 -11.85 -21.55 -12.15 -21.25 -12.45 -21.25 -12.85 -21.25 -13.25 -21.55 -13.55 -21.85 -13.85 -22.25 -13.85 M-24.7 -16.55 Q-24.7 -17.05 -24.95 -17.4 -25.25 -17.75 -25.65 -17.75 -26.05 -17.75 -26.3 -17.4 L-26.6 -16.55 -26.3 -15.7 Q-26.05 -15.35 -25.65 -15.35 -25.25 -15.35 -24.95 -15.7 -24.7 -16.05 -24.7 -16.55 M-24.55 -21.9 L-24.85 -21.2 -24.55 -20.5 Q-24.25 -20.2 -23.85 -20.2 -23.45 -20.2 -23.15 -20.5 -22.85 -20.8 -22.85 -21.2 L-23.15 -21.9 -23.85 -22.2 Q-24.25 -22.2 -24.55 -21.9 M-27.05 -29.0 L-26.8 -28.4 Q-26.55 -28.15 -26.2 -28.15 -25.85 -28.15 -25.6 -28.4 -25.35 -28.65 -25.35 -29.0 L-25.6 -29.6 -26.2 -29.85 -26.8 -29.6 -27.05 -29.0 M-24.25 -9.65 Q-24.75 -9.65 -25.05 -9.2 -25.4 -8.75 -25.4 -8.1 -25.4 -7.45 -25.05 -7.0 -24.75 -6.55 -24.25 -6.55 -23.75 -6.55 -23.4 -7.0 -23.1 -7.45 -23.1 -8.1 -23.1 -8.75 -23.4 -9.2 -23.75 -9.65 -24.25 -9.65 M-4.85 -20.25 Q-4.1 -20.35 -5.0 -19.0 L-4.45 -19.3 Q-4.05 -19.6 -4.1 -20.35 L-3.85 -20.35 -4.15 -18.05 -5.6 -16.65 Q-6.2 -16.8 -6.65 -17.6 L-6.75 -18.65 Q-6.1 -19.6 -6.3 -20.3 L-5.8 -22.15 -4.15 -20.5 -4.65 -20.4 -4.85 -20.25" fill="#e0e0e0" fill-rule="evenodd" stroke="none"/>
    <path d="M-23.15 -41.0 Q-23.85 -40.7 -24.6 -40.45 L-24.65 -40.6 -25.1 -43.2 -23.75 -43.65 -23.15 -41.0 M-19.9 -6.95 L-20.55 -5.05 -21.1 -3.55 -22.3 -1.85 Q-23.1 -1.05 -25.75 -1.05 L-28.45 -2.05 Q-30.9 -3.05 -31.55 -3.45 -31.15 -5.4 -28.5 -24.9 L-28.5 -21.0 -28.35 -16.95 -27.75 -16.75 -28.35 -9.85 Q-28.35 -6.1 -27.2 -4.85 -26.35 -3.9 -24.1 -3.9 -22.15 -3.9 -19.9 -6.95 M-1.5 -28.35 L-1.6 -28.85 -1.45 -29.1 -1.4 -28.95 -1.45 -28.45 -1.5 -28.35 M-1.55 -26.55 L-1.25 -26.95 -0.25 -26.15 -0.35 -26.0 -1.55 -26.55 M1.4 -24.25 L0.55 -25.15 1.05 -25.8 1.4 -24.25 M-7.85 -47.8 Q-6.5 -50.9 -4.1 -52.0 L-3.1 -51.5 Q-2.1 -50.8 -1.45 -49.7 L-3.25 -50.6 -4.4 -51.1 Q-5.6 -51.1 -6.45 -49.8 -7.15 -48.7 -7.15 -47.65 -7.15 -46.4 -6.15 -45.55 -5.3 -44.85 -4.6 -44.85 -2.9 -44.85 -2.05 -45.75 -1.55 -46.25 -0.95 -47.35 -1.3 -43.3 -1.1 -43.15 -2.9 -43.15 -6.45 -44.2 L-7.15 -46.05 -7.85 -47.8 M-3.2 -44.9 L-3.35 -44.5 -3.2 -44.1 Q-3.05 -43.95 -2.85 -43.95 -2.65 -43.95 -2.5 -44.1 -2.35 -44.25 -2.35 -44.5 L-2.5 -44.9 -2.85 -45.05 -3.2 -44.9 M-1.05 -44.1 L-1.15 -44.3 -1.05 -44.5 -0.85 -44.6 -0.65 -44.5 -0.55 -44.3 -0.65 -44.1 Q-0.75 -44.0 -0.85 -44.0 -0.95 -44.0 -1.05 -44.1 M-9.55 -46.85 L-9.9 -46.65 -10.1 -45.85 -10.0 -45.1 -9.85 -45.0 -10.0 -44.95 -9.4 -44.95 Q-8.75 -44.95 -8.55 -45.3 L-8.15 -46.15 -7.55 -45.0 Q-7.85 -44.75 -8.65 -44.55 L-9.9 -44.45 -11.15 -46.8 -9.55 -46.85 M-9.05 -43.55 Q-9.2 -43.55 -9.3 -43.65 L-9.45 -43.9 -9.3 -44.15 -9.05 -44.25 -8.75 -44.15 -8.65 -43.9 -8.75 -43.65 -9.05 -43.55 M-3.4 -42.75 L-3.6 -42.65 -3.8 -42.75 -3.9 -43.0 -3.8 -43.25 -3.6 -43.35 -3.4 -43.25 -3.3 -43.0 -3.4 -42.75 M-22.2 -42.85 L-22.05 -42.55 -22.05 -42.65 -22.0 -42.5 -21.95 -42.55 -21.85 -42.8 -21.75 -42.5 -21.8 -42.3 -22.0 -42.5 -22.0 -42.25 -22.3 -42.55 -22.2 -42.85 M-21.6 -41.1 L-21.4 -41.15 -20.65 -41.1 -20.65 -40.55 -20.9 -40.5 -21.25 -40.35 -21.6 -41.1 M-12.5 -40.6 L-11.0 -44.1 Q-11.15 -42.05 -12.5 -40.6 M-17.1 -38.45 L-17.45 -38.55 -17.6 -38.8 -17.6 -38.9 -17.45 -39.2 -17.1 -39.35 Q-16.9 -39.35 -16.75 -39.2 L-16.6 -38.9 -16.6 -38.75 -16.75 -38.55 -17.1 -38.45 M-10.9 -30.35 L-10.2 -31.15 -9.6 -30.8 -9.55 -30.65 Q-10.15 -30.65 -10.55 -30.35 L-11.0 -29.75 -11.0 -29.85 -10.9 -30.35 M-1.85 -30.05 L-2.1 -29.35 -2.2 -29.3 -2.4 -30.25 -2.8 -30.6 -2.5 -30.55 -1.85 -30.05 M-1.9 -25.85 L-0.8 -25.65 -0.8 -25.15 -1.15 -24.25 -1.2 -24.2 Q-1.1 -25.35 -1.9 -25.85 M-7.35 -19.85 L-7.8 -19.2 Q-8.6 -19.0 -8.85 -19.35 L-9.1 -20.05 -8.35 -19.95 -7.4 -20.15 -7.35 -19.85 M-13.5 -27.85 L-12.3 -28.05 -11.65 -27.85 -12.45 -27.2 -13.5 -27.85 M-13.05 -25.7 L-12.75 -25.5 -12.6 -24.95 -12.65 -25.05 -13.0 -25.5 -13.05 -25.7 M-11.7 -23.3 L-12.6 -21.85 -12.95 -22.05 Q-12.95 -22.55 -12.55 -22.9 -12.2 -23.3 -11.7 -23.3 M-4.55 -32.7 L-4.45 -31.7 Q-4.3 -31.35 -4.6 -31.05 -4.95 -31.9 -5.15 -31.95 L-4.55 -32.7 M-9.55 -32.2 Q-8.55 -31.5 -8.55 -31.05 L-9.7 -31.9 -9.55 -32.2 M-6.5 -32.15 L-7.0 -31.95 -6.95 -32.1 -6.6 -32.35 -6.4 -32.45 -6.5 -32.15 M-7.2 -32.0 Q-7.45 -32.0 -7.6 -32.25 L-7.8 -32.95 -7.2 -32.0 M-31.45 -17.15 L-31.65 -17.65 -31.45 -18.15 -30.95 -18.35 -30.45 -18.15 -30.25 -17.65 -30.45 -17.15 Q-30.65 -16.95 -30.95 -16.95 L-31.45 -17.15 M-31.35 -10.4 Q-31.6 -10.1 -31.95 -10.1 -32.3 -10.1 -32.55 -10.4 L-32.8 -11.2 -32.55 -11.95 -31.95 -12.3 Q-31.6 -12.3 -31.35 -11.95 -31.1 -11.65 -31.1 -11.2 -31.1 -10.75 -31.35 -10.4 M-1.45 -23.95 L-1.5 -23.9 -1.6 -23.9 -1.45 -23.95 M-2.95 -21.55 Q-2.95 -22.15 -2.35 -22.5 L-2.1 -21.95 -2.1 -21.6 -2.0 -21.5 -2.6 -21.35 -2.95 -21.55 M-4.1 -20.35 L-4.55 -20.35 -4.65 -20.4 -4.15 -20.5 -3.85 -20.35 -4.1 -20.35 M-6.3 -20.3 Q-6.1 -19.6 -6.75 -18.65 L-7.0 -18.75 -6.3 -20.3 M-11.25 -21.4 L-10.3 -21.3 Q-10.35 -20.65 -11.75 -20.35 L-11.25 -21.4" fill="#b4b4b4" fill-rule="evenodd" stroke="none"/>
    <path d="M-31.55 -3.45 L-33.9 -6.15 Q-34.4 -7.05 -34.4 -9.4 L-32.65 -21.3 -30.8 -33.95 Q-29.3 -43.45 -28.5 -43.95 L-28.5 -24.9 Q-31.15 -5.4 -31.55 -3.45 M1.1 -27.9 L1.0 -28.3 1.4 -27.5 1.1 -27.9 M-1.4 -28.15 L-1.5 -28.35 -1.45 -28.45 -1.4 -28.15 M-0.25 -26.15 L0.7 -26.35 Q0.05 -25.85 -0.35 -26.0 L-0.25 -26.15 M-0.2 -51.25 L-0.3 -51.8 0.0 -50.75 -0.2 -51.25 M-1.45 -49.7 Q-2.1 -50.8 -3.1 -51.5 L-4.1 -52.0 Q-6.5 -50.9 -7.85 -47.8 L-8.3 -48.15 -7.15 -50.75 Q-5.75 -52.8 -3.0 -52.8 -1.75 -52.8 -0.95 -50.2 -0.25 -47.95 -0.25 -45.4 -0.25 -43.3 -1.25 -42.55 -1.85 -42.1 -3.05 -42.1 L-4.75 -42.6 -6.85 -43.25 -6.45 -44.2 Q-2.9 -43.15 -1.1 -43.15 -1.3 -43.3 -0.95 -47.35 L-1.45 -49.7 M-1.05 -44.1 Q-0.95 -44.0 -0.85 -44.0 -0.75 -44.0 -0.65 -44.1 L-0.55 -44.3 -0.65 -44.5 -0.85 -44.6 -1.05 -44.5 -1.15 -44.3 -1.05 -44.1 M-9.9 -44.45 L-8.65 -44.55 Q-7.85 -44.75 -7.55 -45.0 -8.1 -44.0 -9.3 -43.0 L-10.0 -42.65 -9.9 -44.45 M-9.05 -43.55 L-8.75 -43.65 -8.65 -43.9 -8.75 -44.15 -9.05 -44.25 -9.3 -44.15 -9.45 -43.9 -9.3 -43.65 Q-9.2 -43.55 -9.05 -43.55 M-3.4 -42.75 L-3.3 -43.0 -3.4 -43.25 -3.6 -43.35 -3.8 -43.25 -3.9 -43.0 -3.8 -42.75 -3.6 -42.65 -3.4 -42.75 M-16.95 -48.1 L-19.2 -48.15 Q-21.85 -47.9 -21.85 -46.55 -21.85 -45.65 -21.55 -45.25 L-20.05 -43.1 -20.8 -42.6 Q-19.7 -42.25 -18.1 -41.4 -16.75 -40.7 -16.45 -40.7 L-15.7 -40.8 Q-15.7 -41.8 -15.95 -42.3 L-14.0 -41.95 -14.15 -42.0 Q-14.1 -42.5 -14.55 -42.6 L-12.75 -44.0 -13.3 -44.9 -16.0 -47.7 -16.15 -47.85 -16.95 -48.1 M-22.2 -42.85 L-22.55 -45.15 Q-22.45 -47.85 -21.95 -48.5 -21.4 -49.15 -19.1 -49.15 -18.35 -49.15 -15.8 -47.8 -12.55 -46.15 -11.0 -44.1 L-12.5 -40.6 -13.9 -38.55 -14.35 -38.1 Q-14.95 -37.6 -15.6 -37.35 L-17.3 -37.05 Q-17.65 -37.05 -18.75 -37.8 -20.25 -38.8 -21.25 -40.35 L-20.9 -40.5 -20.65 -40.55 -20.65 -41.1 -21.4 -41.15 -21.6 -41.1 -22.0 -42.25 -22.0 -42.5 -21.8 -42.3 -21.75 -42.5 -21.85 -42.8 -21.95 -42.55 -22.0 -42.5 -22.05 -42.65 -22.05 -42.55 -22.2 -42.85 M-19.0 -40.35 L-18.85 -39.95 -18.5 -39.8 Q-18.3 -39.8 -18.15 -39.95 -18.0 -40.1 -18.0 -40.35 L-18.15 -40.75 -18.5 -40.9 -18.85 -40.75 -19.0 -40.35 M-17.1 -38.45 L-16.75 -38.55 -16.6 -38.75 -16.6 -38.9 -16.75 -39.2 Q-16.9 -39.35 -17.1 -39.35 L-17.45 -39.2 -17.6 -38.9 -17.6 -38.8 -17.45 -38.55 -17.1 -38.45 M-14.5 -30.2 L-13.3 -31.6 -10.2 -31.15 -10.9 -30.35 -11.05 -30.55 -11.15 -30.55 -11.25 -30.55 -11.35 -30.55 -12.75 -30.7 Q-13.85 -30.7 -14.5 -30.2 M-9.6 -30.8 L-8.95 -30.45 -9.55 -30.65 -9.6 -30.8 M-8.25 -29.75 L-7.95 -28.95 -9.15 -27.9 -9.3 -28.25 -9.0 -28.6 -8.25 -29.75 M-6.7 -29.25 L-5.65 -32.0 -4.2 -33.55 -4.55 -32.7 -5.15 -31.95 -5.75 -30.5 -6.1 -29.3 -6.7 -29.25 M-2.95 -34.05 L-1.5 -32.65 Q-1.1 -31.8 -1.85 -30.05 L-2.5 -30.55 -2.3 -30.8 -2.2 -31.45 Q-1.45 -32.5 -2.7 -33.55 L-2.85 -33.9 -2.95 -34.05 M-2.1 -29.35 L-2.45 -28.7 -2.2 -29.3 -2.1 -29.35 M-3.1 -28.0 L-3.8 -27.6 -4.6 -28.7 -4.3 -29.0 -4.2 -28.7 -3.1 -28.0 M-3.5 -26.15 L-2.65 -26.15 -3.35 -25.0 -3.35 -24.6 -3.75 -24.65 -3.8 -24.65 -3.75 -24.85 Q-3.5 -25.45 -3.5 -26.15 M-0.8 -25.15 Q0.85 -23.55 0.85 -22.9 0.85 -21.8 -0.15 -20.8 0.25 -21.95 -0.1 -24.25 L-1.0 -24.25 -1.15 -24.25 -0.8 -25.15 M-1.4 -20.5 L-3.6 -21.65 -2.95 -21.55 -2.6 -21.35 -2.0 -21.5 Q-1.65 -21.6 -1.4 -20.5 M-4.35 -22.1 L-5.35 -22.9 -4.8 -23.25 -4.35 -22.1 M-6.6 -22.5 L-6.55 -21.6 -7.4 -22.05 -7.45 -22.2 -8.05 -22.2 -7.95 -22.75 -6.6 -22.5 M-6.9 -20.6 L-7.35 -19.85 -7.4 -20.15 -6.9 -20.6 M-12.55 -19.4 L-10.85 -22.8 -11.25 -21.4 -11.75 -20.35 Q-12.2 -19.5 -12.55 -19.4 M-10.3 -23.45 L-9.55 -24.25 -9.25 -23.8 -10.3 -23.45 M-9.85 -25.6 Q-11.7 -25.6 -13.0 -26.35 -14.35 -27.15 -14.35 -28.25 L-13.5 -27.85 -12.45 -27.2 -11.8 -26.7 -11.2 -26.45 -10.6 -26.2 -10.35 -26.3 -9.85 -26.25 -9.85 -25.6 M-11.0 -29.85 L-11.0 -29.75 -11.25 -29.5 -11.0 -29.85 M-13.05 -25.7 L-13.0 -25.5 -13.85 -25.1 Q-14.45 -25.1 -14.85 -24.4 -15.25 -23.8 -15.3 -22.95 L-15.35 -22.9 -15.3 -22.75 -15.45 -22.5 -15.5 -22.05 Q-15.5 -23.55 -14.75 -24.6 -14.05 -25.7 -13.05 -25.7 M-12.65 -25.05 L-12.6 -24.95 -12.6 -24.7 -12.65 -25.05 M-12.6 -21.85 Q-12.95 -21.5 -13.95 -21.5 L-12.95 -22.05 -12.6 -21.85 M-9.95 -33.2 L-9.55 -32.2 -9.7 -31.9 -9.95 -33.2 M-7.0 -31.95 L-7.2 -32.0 -6.95 -32.1 -7.0 -31.95 M-6.9 -33.1 Q-6.9 -33.55 -7.4 -33.85 L-8.7 -34.2 -9.15 -34.45 Q-8.05 -34.45 -7.2 -33.85 -6.4 -33.3 -6.4 -32.45 L-6.6 -32.35 -6.9 -33.1 M-1.4 -28.95 L-1.45 -29.1 -0.65 -29.05 -1.4 -28.95 M-2.9 -30.65 L-2.95 -30.65 -3.2 -30.85 -2.9 -30.65 M-31.35 -10.4 Q-31.1 -10.75 -31.1 -11.2 -31.1 -11.65 -31.35 -11.95 -31.6 -12.3 -31.95 -12.3 L-32.55 -11.95 -32.8 -11.2 -32.55 -10.4 Q-32.3 -10.1 -31.95 -10.1 -31.6 -10.1 -31.35 -10.4 M-31.45 -17.15 L-30.95 -16.95 Q-30.65 -16.95 -30.45 -17.15 L-30.25 -17.65 -30.45 -18.15 -30.95 -18.35 -31.45 -18.15 -31.65 -17.65 -31.45 -17.15 M-1.5 -23.9 L-1.6 -23.65 -1.6 -23.9 -1.5 -23.9 M-4.55 -20.35 L-4.85 -20.25 -4.65 -20.4 -4.55 -20.35 M-6.75 -18.65 L-6.65 -17.6 -7.0 -18.75 -6.75 -18.65" fill="#8a8a8a" fill-rule="evenodd" stroke="none"/>
    <path d="M-21.1 -3.55 Q-21.65 -2.1 -23.4 -0.7 -24.8 -0.15 -26.3 -0.15 -29.4 -0.15 -32.1 -2.7 -35.25 -5.7 -35.25 -10.35 -35.25 -12.15 -29.9 -43.75 L-29.8 -44.0 -29.5 -44.55 -23.6 -46.6 Q-23.3 -47.7 -22.6 -48.7 -21.55 -50.3 -20.25 -50.3 -18.45 -50.3 -15.75 -49.35 L-3.6 -53.55 Q-3.5 -53.55 -3.35 -53.7 L-2.55 -53.85 Q-0.2 -53.85 0.45 -52.7 L1.05 -50.2 0.25 -49.95 Q0.95 -47.65 0.7 -45.55 0.45 -43.45 -0.15 -42.4 -0.8 -41.35 -2.05 -41.2 -3.35 -41.05 -5.35 -41.9 -8.9 -43.7 -11.95 -39.6 L-13.8 -37.9 Q-16.0 -36.0 -17.2 -36.0 L-18.35 -36.15 Q-21.3 -37.05 -22.75 -40.15 L-23.15 -41.0 -23.75 -43.65 -23.75 -45.6 -26.9 -44.5 -26.85 -44.45 -27.6 -43.5 Q-27.6 -19.45 -27.75 -16.75 L-28.35 -16.95 -28.5 -21.0 -28.5 -24.9 -28.5 -43.95 Q-29.3 -43.45 -30.8 -33.95 L-32.65 -21.3 -34.4 -9.4 Q-34.4 -7.05 -33.9 -6.15 L-31.55 -3.45 Q-30.9 -3.05 -28.45 -2.05 L-25.75 -1.05 Q-23.1 -1.05 -22.3 -1.85 L-21.1 -3.55 M-24.6 -40.45 L-25.5 -40.1 -25.55 -40.65 -24.65 -40.6 -24.6 -40.45 M1.0 -28.3 Q0.4 -28.9 -0.6 -29.05 L-0.65 -29.05 -1.45 -29.1 -1.6 -28.85 -3.05 -26.95 -1.55 -26.55 -0.35 -26.0 Q0.05 -25.85 0.7 -26.35 L0.95 -26.5 1.1 -26.6 1.4 -27.5 1.0 -28.3 M1.05 -25.8 L0.55 -25.15 1.4 -24.25 1.65 -22.5 Q1.3 -21.1 0.15 -19.8 -1.15 -19.05 -3.1 -20.15 -2.45 -17.85 -5.15 -16.05 L-5.65 -16.05 Q-6.45 -16.4 -7.9 -17.6 L-8.8 -16.5 Q-9.7 -15.6 -10.95 -15.9 -12.2 -16.25 -12.8 -16.95 -13.45 -17.65 -13.5 -19.0 -13.6 -20.35 -15.0 -21.0 -16.45 -21.65 -16.3 -23.0 L-15.75 -25.0 Q-15.35 -25.7 -13.85 -26.2 L-15.3 -28.4 Q-15.6 -29.05 -15.25 -30.45 -14.9 -31.85 -13.35 -32.2 L-10.65 -31.95 -11.3 -33.3 Q-11.3 -35.1 -9.25 -35.7 L-8.75 -35.7 -8.1 -35.65 Q-5.35 -34.15 -5.8 -32.8 L-2.95 -34.85 Q-1.65 -34.85 -0.95 -33.95 -0.3 -33.1 -0.3 -31.9 L-0.5 -30.95 -1.15 -29.8 Q0.0 -30.75 2.0 -28.0 2.55 -26.5 1.05 -25.8 M-12.1 -47.5 Q-11.45 -48.05 -10.15 -48.4 L-9.3 -48.65 -8.35 -49.95 -7.05 -51.4 -14.5 -48.8 -12.1 -47.5 M-0.3 -51.8 Q-0.4 -52.25 -0.8 -52.6 L-1.15 -52.7 -0.1 -50.8 -0.2 -51.25 0.0 -50.75 -0.3 -51.8 M-6.45 -44.2 L-6.85 -43.25 -4.75 -42.6 -3.05 -42.1 Q-1.85 -42.1 -1.25 -42.55 -0.25 -43.3 -0.25 -45.4 -0.25 -47.95 -0.95 -50.2 -1.75 -52.8 -3.0 -52.8 -5.75 -52.8 -7.15 -50.75 L-8.3 -48.15 -7.85 -47.8 -7.15 -46.05 -6.45 -44.2 M-9.55 -46.85 L-11.15 -46.8 -9.9 -44.45 -10.0 -42.65 -9.3 -43.0 Q-8.1 -44.0 -7.55 -45.0 L-8.15 -46.15 -8.55 -46.65 -9.55 -46.85 M-11.0 -44.1 Q-12.55 -46.15 -15.8 -47.8 -18.35 -49.15 -19.1 -49.15 -21.4 -49.15 -21.95 -48.5 -22.45 -47.85 -22.55 -45.15 L-22.2 -42.85 -22.3 -42.55 -22.0 -42.25 -21.6 -41.1 -21.25 -40.35 Q-20.25 -38.8 -18.75 -37.8 -17.65 -37.05 -17.3 -37.05 L-15.6 -37.35 Q-14.95 -37.6 -14.35 -38.1 L-13.9 -38.55 -12.5 -40.6 Q-11.15 -42.05 -11.0 -44.1 M-10.2 -31.15 L-13.3 -31.6 -14.5 -30.2 -14.8 -29.55 Q-14.9 -30.25 -14.9 -29.25 L-14.75 -28.55 -14.45 -28.4 -14.35 -28.25 Q-14.35 -27.15 -13.0 -26.35 -11.7 -25.6 -9.85 -25.6 L-9.55 -24.25 -10.3 -23.45 -10.85 -22.8 -12.55 -19.4 -12.6 -19.05 -12.6 -18.1 Q-11.05 -16.75 -10.65 -16.75 -9.8 -16.75 -9.05 -17.45 -8.55 -17.95 -7.8 -19.2 L-7.35 -19.85 -6.9 -20.6 -6.55 -21.6 -6.6 -22.5 -5.35 -22.9 -4.35 -22.1 -3.6 -21.65 -1.4 -20.5 -1.15 -20.55 -0.2 -20.7 -0.2 -20.75 -0.15 -20.8 Q0.85 -21.8 0.85 -22.9 0.85 -23.55 -0.8 -25.15 L-0.8 -25.65 -1.9 -25.85 -2.65 -26.15 -3.5 -26.15 -3.55 -26.6 -3.8 -27.6 -3.1 -28.0 -2.45 -28.7 -2.1 -29.35 -1.85 -30.05 Q-1.1 -31.8 -1.5 -32.65 L-2.95 -34.05 -3.35 -34.05 -3.85 -33.85 -4.2 -33.55 -5.65 -32.0 -6.7 -29.25 -7.95 -28.95 -8.25 -29.75 -8.95 -30.45 -9.6 -30.8 -10.2 -31.15 M-12.75 -25.5 L-13.05 -25.7 Q-14.05 -25.7 -14.75 -24.6 -15.5 -23.55 -15.5 -22.05 L-15.1 -21.65 -13.95 -21.5 Q-12.95 -21.5 -12.6 -21.85 L-11.7 -23.3 -10.4 -24.7 -12.75 -25.5 M-9.15 -34.45 L-9.2 -34.45 -9.7 -34.05 -9.85 -33.8 -9.95 -33.2 -9.7 -31.9 -8.55 -31.05 -7.45 -29.8 -6.5 -32.15 -6.4 -32.45 Q-6.4 -33.3 -7.2 -33.85 -8.05 -34.45 -9.15 -34.45 M-4.15 -20.5 L-5.8 -22.15 -6.3 -20.3 -7.0 -18.75 -6.65 -17.6 Q-6.2 -16.8 -5.6 -16.65 L-4.15 -18.05 -3.85 -20.35 -4.15 -20.5" fill="#464646" fill-rule="evenodd" stroke="none"/>
  </g>
</svg>
