<?xml version="1.0" encoding="UTF-8" standalone="no"?>
<svg xmlns:ffdec="https://www.free-decompiler.com/flash" xmlns:xlink="http://www.w3.org/1999/xlink" ffdec:objectType="shape" height="53.7px" width="42.1px" xmlns="http://www.w3.org/2000/svg">
  <g transform="matrix(1.0, 0.0, 0.0, 1.0, 35.25, 53.85)">
    <path d="M-24.65 -40.65 L-24.75 -40.6 -25.55 -40.65 Q-25.55 -41.85 -26.15 -42.65 -26.75 -43.5 -27.6 -43.5 L-26.85 -44.45 -26.9 -44.5 -25.0 -45.15 -19.15 -47.35 -13.4 -49.25 -8.3 -51.1 Q-4.9 -52.45 -2.9 -52.8 L-1.55 -52.85 Q-0.9 -52.9 -0.55 -52.5 L-0.15 -51.45 -6.15 -49.65 -9.9 -48.3 -11.4 -47.8 -13.05 -47.25 -18.25 -45.7 -21.6 -44.4 -23.75 -43.65 -23.85 -43.6 -25.1 -43.2 -24.9 -42.2 -24.65 -40.65 M-20.8 -18.6 L-24.45 -39.5 -24.4 -39.5 -22.85 -40.1 Q-18.55 -41.25 -18.85 -35.8 L-20.0 -27.35 -19.55 -17.25 Q-19.25 -13.3 -19.7 -12.15 L-20.4 -16.25 -20.8 -18.6 M-7.0 -23.35 L-7.45 -23.9 -7.6 -25.65 -7.3 -27.9 -6.85 -28.55 -6.85 -28.6 -6.6 -28.6 -6.5 -28.6 -6.05 -28.55 -5.5 -28.35 -5.15 -28.2 -4.7 -27.85 Q-3.9 -27.0 -3.9 -25.95 -3.9 -24.95 -4.65 -24.15 L-4.7 -24.1 -5.55 -23.55 -6.6 -23.35 -6.75 -23.35 -7.0 -23.35" fill="#ffffff" fill-rule="evenodd" stroke="none"/>
    <path d="M-25.55 -40.65 L-25.5 -40.1 Q-23.75 -30.95 -20.8 -18.6 L-20.4 -16.25 Q-19.8 -12.3 -19.9 -6.95 -22.15 -3.9 -24.1 -3.9 -26.35 -3.9 -27.2 -4.85 -28.35 -6.1 -28.35 -9.85 L-27.75 -16.75 Q-27.6 -19.45 -27.6 -43.5 -26.75 -43.5 -26.15 -42.65 -25.55 -41.85 -25.55 -40.65 M-22.85 -40.1 L-20.55 -41.25 -17.9 -42.35 -17.7 -42.45 -17.2 -42.65 Q-14.35 -43.9 -11.85 -44.45 L-11.1 -44.65 -10.55 -44.75 -9.6 -44.9 Q-7.05 -44.9 -6.05 -43.1 L-6.0 -43.0 -5.55 -41.7 -5.4 -40.4 -5.6 -34.7 -5.65 -34.7 -5.65 -33.3 -5.3 -29.45 -6.65 -29.7 Q-8.2 -29.7 -9.3 -28.6 -10.4 -27.5 -10.4 -25.95 -10.4 -24.4 -9.3 -23.3 -8.2 -22.2 -6.65 -22.2 -5.45 -22.2 -4.5 -22.85 L-3.85 -18.9 -3.65 -17.25 -3.9 -16.15 -4.1 -15.8 -4.0 -15.8 Q-5.15 -13.6 -11.95 -11.0 -16.75 -9.2 -19.15 -8.7 L-19.7 -12.15 Q-19.25 -13.3 -19.55 -17.25 L-20.0 -27.35 -18.85 -35.8 Q-18.55 -41.25 -22.85 -40.1 M-0.15 -51.45 L0.1 -50.85 -11.75 -47.0 -18.3 -44.85 Q-23.6 -42.4 -24.9 -42.2 L-25.1 -43.2 -23.85 -43.6 -23.75 -43.65 -21.6 -44.4 -18.25 -45.7 -13.05 -47.25 -11.4 -47.8 -9.9 -48.3 -6.15 -49.65 -0.15 -51.45 M-6.85 -28.55 L-7.3 -27.9 -7.6 -25.65 -7.45 -23.9 -7.0 -23.35 Q-7.85 -23.45 -8.4 -24.0 L-8.45 -24.1 Q-9.3 -24.9 -9.3 -25.95 L-9.15 -26.7 -8.7 -27.6 -8.45 -27.85 Q-7.85 -28.55 -6.85 -28.55" fill="#e0e0e0" fill-rule="evenodd" stroke="none"/>
    <path d="M0.1 -50.85 L0.15 -50.65 0.35 -49.5 0.1 -49.35 -1.45 -48.8 Q-3.55 -47.9 -4.9 -47.55 L-12.25 -45.7 Q-15.1 -45.05 -19.0 -43.2 L-22.45 -41.6 -24.25 -40.9 -24.65 -40.65 -24.9 -42.2 Q-23.6 -42.4 -18.3 -44.85 L-11.75 -47.0 0.1 -50.85 M-10.55 -44.75 L-7.5 -45.5 -7.4 -45.5 -4.55 -46.3 -1.4 -47.25 0.65 -48.2 1.05 -46.1 1.35 -43.6 1.35 -43.35 1.55 -42.05 Q0.65 -36.9 0.85 -30.8 L1.1 -27.25 1.15 -26.75 1.05 -25.8 1.4 -24.25 1.65 -22.5 Q1.65 -16.1 -4.4 -11.55 -10.45 -7.0 -19.0 -7.0 L-19.15 -8.7 Q-16.75 -9.2 -11.95 -11.0 -5.15 -13.6 -4.0 -15.8 L-4.1 -15.8 -3.9 -16.15 -3.65 -17.25 -3.85 -18.9 -4.5 -22.85 -4.0 -23.3 Q-2.9 -24.4 -2.9 -25.95 -2.9 -27.5 -4.0 -28.6 L-5.3 -29.45 -5.65 -33.3 -5.65 -34.7 -5.6 -34.7 -5.4 -40.4 -5.55 -41.7 -6.0 -43.0 -6.05 -43.1 Q-7.05 -44.9 -9.6 -44.9 L-10.55 -44.75 M-19.9 -6.95 L-20.55 -5.05 -21.1 -3.55 -22.3 -1.85 Q-23.1 -1.05 -25.75 -1.05 L-28.45 -2.05 Q-30.9 -3.05 -31.55 -3.45 -31.15 -5.4 -28.5 -24.9 L-28.5 -21.0 -28.35 -16.95 -27.75 -16.75 -28.35 -9.85 Q-28.35 -6.1 -27.2 -4.85 -26.35 -3.9 -24.1 -3.9 -22.15 -3.9 -19.9 -6.95 M-0.65 -29.05 L-0.8 -29.05 -0.8 -29.0 -0.65 -29.05" fill="#b4b4b4" fill-rule="evenodd" stroke="none"/>
    <path d="M1.55 -42.05 Q5.95 -23.5 5.95 -16.8 5.95 -11.35 -2.3 -7.75 L-19.75 -3.4 -19.9 -3.4 -20.0 -3.55 Q-19.3 -5.05 -19.0 -7.0 -10.45 -7.0 -4.4 -11.55 1.65 -16.1 1.65 -22.5 L1.4 -24.25 1.05 -25.8 1.15 -26.75 1.1 -27.25 0.85 -30.8 Q0.65 -36.9 1.55 -42.05 M-31.55 -3.45 L-33.9 -6.15 Q-34.4 -7.05 -34.4 -9.4 L-32.65 -21.3 -30.8 -33.95 Q-29.3 -43.45 -28.5 -43.95 L-28.5 -24.9 Q-31.15 -5.4 -31.55 -3.45 M-0.65 -29.05 L-0.8 -29.0 -0.8 -29.05 -0.65 -29.05" fill="#8a8a8a" fill-rule="evenodd" stroke="none"/>
    <path d="M-23.4 -0.7 Q-24.8 -0.15 -26.3 -0.15 -29.4 -0.15 -32.1 -2.7 -35.25 -5.7 -35.25 -10.35 -35.25 -12.15 -29.9 -43.75 L-29.8 -44.0 -29.5 -44.55 -3.6 -53.55 Q-3.5 -53.55 -3.35 -53.7 L-2.55 -53.85 Q-0.2 -53.85 0.45 -52.7 L1.05 -50.2 5.25 -27.1 Q6.85 -18.15 6.85 -16.6 L6.5 -14.6 Q6.05 -12.75 5.6 -12.15 1.5 -6.45 -5.0 -5.05 L-12.5 -3.65 Q-18.05 -2.55 -23.4 -0.7 M-24.65 -40.65 L-24.25 -40.9 -22.45 -41.6 -19.0 -43.2 Q-15.1 -45.05 -12.25 -45.7 L-4.9 -47.55 Q-3.55 -47.9 -1.45 -48.8 L0.1 -49.35 0.35 -49.5 0.15 -50.65 0.1 -50.85 -0.15 -51.45 -0.55 -52.5 Q-0.9 -52.9 -1.55 -52.85 L-2.9 -52.8 Q-4.9 -52.45 -8.3 -51.1 L-13.4 -49.25 -19.15 -47.35 -25.0 -45.15 -26.9 -44.5 -26.85 -44.45 -27.6 -43.5 Q-27.6 -19.45 -27.75 -16.75 L-28.35 -16.95 -28.5 -21.0 -28.5 -24.9 -28.5 -43.95 Q-29.3 -43.45 -30.8 -33.95 L-32.65 -21.3 -34.4 -9.4 Q-34.4 -7.05 -33.9 -6.15 L-31.55 -3.45 Q-30.9 -3.05 -28.45 -2.05 L-25.75 -1.05 Q-23.1 -1.05 -22.3 -1.85 L-21.1 -3.55 -20.55 -5.05 -19.9 -6.95 Q-19.8 -12.3 -20.4 -16.25 L-19.7 -12.15 -19.15 -8.7 -19.0 -7.0 Q-19.3 -5.05 -20.0 -3.55 L-19.9 -3.4 -19.75 -3.4 -2.3 -7.75 Q5.95 -11.35 5.95 -16.8 5.95 -23.5 1.55 -42.05 L1.35 -43.35 1.35 -43.6 1.05 -46.1 0.65 -48.2 -1.4 -47.25 -4.55 -46.3 -7.4 -45.5 -7.5 -45.5 -10.55 -44.75 -11.1 -44.65 -11.85 -44.45 Q-14.35 -43.9 -17.2 -42.65 L-17.7 -42.45 -17.9 -42.35 -20.55 -41.25 -22.85 -40.1 -24.4 -39.5 -24.45 -39.5 -20.8 -18.6 Q-23.75 -30.95 -25.5 -40.1 L-25.55 -40.65 -24.75 -40.6 -24.65 -40.65 M-6.85 -28.55 Q-7.85 -28.55 -8.45 -27.85 L-8.7 -27.6 -9.15 -26.7 -9.3 -25.95 Q-9.3 -24.9 -8.45 -24.1 L-8.4 -24.0 Q-7.85 -23.45 -7.0 -23.35 L-6.75 -23.35 -6.6 -23.35 -5.55 -23.55 -4.7 -24.1 -4.65 -24.15 Q-3.9 -24.95 -3.9 -25.95 -3.9 -27.0 -4.7 -27.85 L-5.15 -28.2 -5.5 -28.35 -6.05 -28.55 -6.5 -28.6 -6.6 -28.6 -6.85 -28.6 -6.85 -28.55 M-4.5 -22.85 Q-5.45 -22.2 -6.65 -22.2 -8.2 -22.2 -9.3 -23.3 -10.4 -24.4 -10.4 -25.95 -10.4 -27.5 -9.3 -28.6 -8.2 -29.7 -6.65 -29.7 L-5.3 -29.45 -4.0 -28.6 Q-2.9 -27.5 -2.9 -25.95 -2.9 -24.4 -4.0 -23.3 L-4.5 -22.85" fill="#464646" fill-rule="evenodd" stroke="none"/>
  </g>
</svg>
