<?xml version="1.0" encoding="UTF-8" standalone="no"?>
<svg xmlns:ffdec="https://www.free-decompiler.com/flash" xmlns:xlink="http://www.w3.org/1999/xlink" ffdec:objectType="shape" height="65.9px" width="23.6px" xmlns="http://www.w3.org/2000/svg">
  <g transform="matrix(1.0, 0.0, 0.0, 1.0, 2.25, 117.85)">
    <path d="M-1.25 -53.95 L-2.25 -54.3 1.2 -63.45 6.8 -78.1 13.5 -97.9 Q18.45 -114.25 17.6 -117.85 L18.25 -117.65 20.85 -114.7 21.35 -112.5 Q21.6 -110.65 16.95 -95.7 10.95 -76.75 1.1 -51.95 L0.85 -52.35 0.3 -52.85 Q7.3 -72.5 16.95 -97.9 22.5 -114.15 18.55 -116.5 19.0 -112.4 14.6 -98.1 9.5 -81.4 -1.25 -53.95" fill="#464646" fill-rule="evenodd" stroke="none"/>
    <path d="M-1.25 -53.95 Q9.5 -81.4 14.6 -98.1 19.0 -112.4 18.55 -116.5 22.5 -114.15 16.95 -97.9 7.3 -72.5 0.3 -52.85 L-0.9 -53.75 -1.25 -53.95" fill="#616161" fill-rule="evenodd" stroke="none"/>
  </g>
</svg>
