<?xml version="1.0" encoding="UTF-8" standalone="no"?>
<svg xmlns:ffdec="https://www.free-decompiler.com/flash" xmlns:xlink="http://www.w3.org/1999/xlink" ffdec:objectType="shape" height="30.65px" width="66.65px" xmlns="http://www.w3.org/2000/svg">
  <g transform="matrix(1.0, 0.0, 0.0, 1.0, -0.85, -25.5)">
    <path d="M47.3 44.45 Q48.2 44.0 49.05 43.5 L49.05 48.6 47.3 49.6 47.3 44.45 M25.9 49.9 L44.05 45.95 44.05 51.05 Q40.6 52.95 34.15 54.0 L25.9 54.7 25.9 49.9" fill="#454545" fill-rule="evenodd" stroke="none"/>
    <path d="M47.3 44.45 L47.3 49.6 44.05 51.05 44.05 45.95 47.3 44.45 M49.05 48.6 L49.05 43.5 Q50.8 42.8 53.85 40.45 57.55 37.55 59.25 34.95 L59.25 41.2 49.05 48.6 M9.75 46.85 Q13.05 48.65 18.75 49.5 L25.9 49.9 25.9 54.7 15.4 53.55 9.75 51.65 9.75 46.85" fill="#353535" fill-rule="evenodd" stroke="none"/>
    <path d="M59.25 34.95 L61.85 31.0 64.4 26.6 66.25 26.6 66.25 33.05 64.15 36.45 Q62.9 38.0 59.25 41.2 L59.25 34.95 M2.55 40.6 Q3.05 42.0 5.05 43.9 7.4 46.15 9.75 46.85 L9.75 51.65 Q6.2 50.25 4.75 48.5 2.5 45.85 2.55 40.6" fill="#242424" fill-rule="evenodd" stroke="none"/>
    <path d="M47.3 49.6 L49.05 48.6 59.25 41.2 Q62.9 38.0 64.15 36.45 L66.25 33.05 66.25 26.6 64.4 26.6 64.65 25.5 67.5 25.75 67.5 34.35 Q63.8 40.45 57.05 45.7 43.9 56.15 25.9 56.15 20.8 56.15 15.65 55.15 11.65 54.4 9.75 53.55 L1.45 49.8 Q0.85 49.3 0.85 45.05 0.85 40.7 2.2 39.65 L2.55 40.6 Q2.5 45.85 4.75 48.5 6.2 50.25 9.75 51.65 L15.4 53.55 25.9 54.7 34.15 54.0 Q40.6 52.95 44.05 51.05 L47.3 49.6" fill="#1a0b06" fill-rule="evenodd" stroke="none"/>
  </g>
</svg>
