<?xml version="1.0" encoding="UTF-8" standalone="no"?>
<svg xmlns:ffdec="https://www.free-decompiler.com/flash" xmlns:xlink="http://www.w3.org/1999/xlink" ffdec:objectType="shape" height="69.85px" width="85.4px" xmlns="http://www.w3.org/2000/svg">
  <g transform="matrix(1.0, 0.0, 0.0, 1.0, 57.8, 55.75)">
    <path d="M-30.7 -49.55 L-26.3 -53.1 -23.9 -54.85 -23.65 -55.1 -21.0 -50.65 -20.35 -49.85 Q-19.4 -52.65 -18.3 -52.65 -18.15 -52.65 -17.05 -52.05 -15.9 -51.35 -15.4 -50.85 L-15.3 -50.7 -14.0 -54.05 -9.85 -51.7 -5.05 -48.7 -6.95 -52.1 -3.2 -51.85 Q1.25 -51.4 4.4 -49.2 4.85 -49.4 5.3 -50.4 L6.0 -51.6 8.25 -50.05 Q9.8 -48.35 13.75 -42.35 L14.55 -45.5 Q15.95 -44.65 18.55 -39.55 21.05 -34.55 21.45 -32.15 L21.55 -32.1 Q22.45 -32.2 24.8 -34.4 25.95 -32.4 25.55 -27.95 L24.95 -23.6 27.55 -23.4 27.6 -22.95 Q27.6 -22.0 26.85 -18.9 L26.1 -15.45 26.85 -6.15 26.8 -5.45 26.7 -5.35 26.6 -5.3 Q26.25 -5.2 25.9 -5.6 L25.5 -8.15 25.25 -10.45 24.9 -15.4 Q24.9 -16.35 26.1 -22.35 L22.3 -22.35 Q23.6 -23.5 24.3 -30.3 L24.3 -32.25 21.6 -30.45 Q20.8 -31.35 18.5 -36.6 L15.75 -42.9 15.5 -43.35 Q15.65 -42.2 15.2 -41.45 L14.35 -40.4 Q14.3 -40.4 14.0 -40.55 L13.65 -40.9 8.35 -47.55 6.3 -49.95 5.55 -48.2 Q5.2 -47.7 4.65 -47.7 -3.15 -50.9 -3.75 -50.9 L-4.35 -51.0 -3.65 -48.65 -3.3 -47.2 -3.3 -46.65 -3.35 -46.85 Q-3.75 -46.45 -4.25 -46.4 -4.65 -47.5 -5.25 -47.9 L-6.9 -48.65 Q-7.75 -49.0 -10.4 -50.7 L-13.2 -52.55 Q-13.7 -50.2 -14.4 -49.05 L-14.75 -48.9 Q-16.6 -50.05 -18.15 -51.3 L-18.8 -50.65 -19.15 -49.7 -18.65 -48.2 -18.15 -47.2 -18.0 -46.95 Q-18.0 -46.8 -18.6 -46.8 -19.75 -46.8 -20.85 -47.8 -22.55 -49.35 -23.75 -53.0 -25.8 -52.0 -28.35 -49.8 L-32.9 -45.8 -33.15 -45.95 Q-32.7 -47.6 -30.8 -49.45 L-30.7 -49.55 -30.8 -49.45 -33.05 -50.85 -34.55 -52.2 Q-37.85 -47.95 -39.05 -47.25 L-36.2 -44.55 -33.55 -42.35 -33.6 -41.9 -33.7 -41.8 -33.8 -41.75 -34.05 -41.7 Q-35.85 -42.1 -38.45 -44.85 -41.85 -48.45 -43.35 -53.5 L-43.75 -52.6 -43.7 -52.45 -46.25 -44.25 Q-47.55 -39.95 -45.6 -34.1 L-44.75 -30.35 -44.65 -29.85 Q-46.8 -33.05 -48.0 -37.25 -49.2 -41.45 -47.7 -46.05 L-48.5 -48.05 -49.65 -51.2 -49.95 -52.5 Q-52.5 -49.45 -53.5 -45.6 -54.05 -42.3 -54.35 -41.9 -54.8 -42.1 -56.15 -43.05 L-56.6 -39.75 Q-56.1 -34.2 -51.9 -30.5 -49.85 -28.65 -45.7 -26.75 -49.8 -26.95 -53.5 -30.35 -57.8 -34.25 -57.8 -39.7 L-57.55 -42.1 -57.0 -46.0 -54.9 -43.65 -54.75 -43.5 Q-54.25 -46.3 -52.85 -49.55 -51.25 -53.4 -49.8 -54.1 -49.1 -53.35 -48.35 -51.25 L-47.25 -47.9 Q-45.2 -54.05 -42.65 -55.75 -42.3 -55.7 -42.15 -54.1 -42.05 -53.25 -40.8 -50.15 -39.5 -47.05 -39.55 -47.9 L-36.75 -51.4 -34.8 -53.4 Q-34.2 -53.4 -32.65 -52.35 L-29.85 -50.3 -30.7 -49.55" fill="#606060" fill-rule="evenodd" stroke="none"/>
    <path d="M-19.2 -27.1 L-20.3 -26.75 Q-23.9 -33.2 -29.3 -33.2 L-29.9 -33.15 -29.75 -33.0 -27.6 -30.2 -24.25 -25.5 -26.1 -26.2 -28.75 -26.7 -28.75 -26.75 Q-29.4 -29.55 -32.25 -31.95 L-37.2 -35.85 Q-41.1 -39.6 -42.75 -43.9 L-44.1 -48.25 -44.7 -47.05 Q-45.15 -45.5 -45.15 -42.45 -45.15 -39.0 -41.75 -34.2 -39.85 -31.5 -35.65 -27.0 L-37.45 -26.35 -40.05 -25.65 -40.0 -25.7 Q-40.7 -26.1 -42.45 -28.55 -45.15 -32.3 -45.6 -34.1 -47.55 -39.95 -46.25 -44.25 L-43.7 -52.45 Q-42.05 -44.65 -34.8 -38.8 -29.0 -34.1 -25.8 -34.1 -25.2 -34.1 -25.25 -34.3 L-25.35 -34.8 -33.6 -41.85 -33.7 -41.8 -33.6 -41.9 -33.55 -42.35 Q-31.2 -46.35 -28.65 -48.25 -25.1 -50.8 -24.3 -51.75 -20.65 -42.95 -12.2 -42.95 L-11.65 -43.05 -11.7 -43.25 -11.75 -43.75 -12.35 -43.95 Q-12.8 -44.1 -12.8 -44.7 -12.8 -45.7 -12.45 -44.95 L-12.8 -45.65 Q-13.2 -46.4 -13.2 -47.0 L-12.75 -50.45 Q-9.7 -49.6 -6.25 -45.6 L-2.8 -41.7 -2.0 -42.35 -1.95 -43.5 -2.85 -48.9 -1.1 -48.4 Q11.85 -45.4 15.9 -33.6 L13.8 -33.25 Q13.35 -33.15 12.9 -32.4 16.7 -27.1 17.6 -24.45 L13.65 -24.35 14.2 -22.55 14.4 -22.0 14.6 -21.45 14.95 -20.5 11.85 -21.9 Q8.25 -23.4 3.0 -24.85 L5.35 -25.55 6.9 -26.0 Q9.9 -26.75 10.5 -27.15 9.6 -28.45 6.05 -30.0 2.1 -31.65 -1.05 -31.65 L-2.7 -31.5 -0.15 -34.6 2.25 -37.05 Q1.95 -37.65 0.9 -37.65 -4.2 -37.65 -6.5 -36.5 -8.65 -34.85 -10.5 -33.95 -10.3 -34.55 -10.5 -36.25 -10.7 -38.05 -11.1 -38.55 L-12.0 -38.15 -12.85 -36.45 Q-13.45 -35.1 -13.8 -34.8 L-16.95 -31.6 Q-18.45 -29.75 -19.2 -27.1 M2.8 -39.95 Q3.4 -41.6 2.7 -43.15 2.1 -44.6 0.75 -45.35 L0.45 -45.25 0.35 -44.85 1.95 -41.45 2.8 -39.95 M4.4 -32.9 Q9.75 -33.8 9.05 -38.25 8.4 -42.3 4.9 -44.25 L4.7 -43.8 5.8 -41.15 6.3 -38.85 Q6.3 -36.95 4.5 -35.2 L2.15 -33.45 2.55 -32.9 4.4 -32.9 M20.05 -26.75 L20.0 -26.7 Q17.15 -28.9 17.15 -30.95 17.15 -31.7 17.4 -32.05 L17.55 -32.15 Q19.15 -31.5 19.65 -29.9 L20.05 -26.75 M14.25 -27.5 L12.9 -28.85 11.5 -29.65 11.2 -29.65 11.1 -29.1 Q11.1 -28.35 12.4 -27.7 L13.7 -27.2 14.3 -27.3 14.25 -27.5 M22.2 -17.45 L22.15 -16.8 22.05 -16.8 21.95 -16.65 17.15 -21.75 18.15 -21.85 Q18.9 -22.1 19.65 -23.2 21.5 -25.8 22.35 -25.8 L22.2 -17.45 M-46.35 -29.35 L-46.4 -29.25 Q-49.35 -29.45 -51.2 -34.85 -52.15 -37.55 -52.5 -40.25 -52.5 -45.75 -50.35 -48.25 -50.1 -48.0 -50.1 -43.4 -50.1 -39.05 -48.2 -34.85 -46.35 -30.7 -46.35 -29.35 M-53.1 -34.85 L-53.15 -34.8 Q-53.85 -35.3 -54.25 -35.95 -54.85 -37.15 -55.2 -39.5 L-55.1 -39.9 Q-54.3 -38.55 -53.65 -36.85 -53.1 -35.35 -53.1 -34.85 M-15.8 -39.05 Q-19.35 -40.85 -20.3 -42.0 -21.05 -42.9 -22.6 -45.9 -24.0 -48.6 -24.7 -49.2 L-25.1 -48.9 -25.4 -46.65 Q-25.4 -44.0 -23.0 -37.75 -20.75 -31.95 -19.7 -30.8 L-19.6 -30.9 Q-18.8 -34.0 -17.75 -35.35 -16.5 -36.95 -15.8 -39.05 M-7.05 -37.2 Q-5.2 -40.35 -6.45 -42.8 -7.2 -44.3 -10.4 -47.1 L-10.5 -46.6 Q-7.8 -39.7 -7.05 -37.2 M-25.7 -40.4 L-27.35 -46.1 -27.6 -46.35 Q-28.25 -45.5 -28.7 -43.8 L-29.05 -41.85 Q-27.35 -37.7 -25.7 -37.7 L-25.15 -37.8 -25.25 -38.0 Q-25.3 -38.45 -26.1 -40.05 -25.7 -40.05 -25.7 -40.4 M-34.05 -49.95 L-34.65 -47.7 -34.95 -47.25 -35.15 -47.35 -35.4 -48.25 -34.05 -49.95" fill="#d1d1d1" fill-rule="evenodd" stroke="none"/>
    <path d="M-40.05 -25.65 L-42.8 -26.8 -45.7 -26.7 -45.7 -26.75 Q-49.85 -28.65 -51.9 -30.5 -56.1 -34.2 -56.6 -39.75 L-56.15 -43.05 Q-54.8 -42.1 -54.35 -41.9 -54.05 -42.3 -53.5 -45.6 -52.5 -49.45 -49.95 -52.5 L-49.65 -51.2 -48.5 -48.05 -47.7 -46.05 Q-49.2 -41.45 -48.0 -37.25 -46.8 -33.05 -44.65 -29.85 L-44.75 -30.35 -45.6 -34.1 Q-45.15 -32.3 -42.45 -28.55 -40.7 -26.1 -40.0 -25.7 L-40.05 -25.65 M-30.7 -49.55 L-30.8 -49.45 Q-32.7 -47.6 -33.15 -45.95 L-32.9 -45.8 -28.35 -49.8 Q-25.8 -52.0 -23.75 -53.0 -22.55 -49.35 -20.85 -47.8 -19.75 -46.8 -18.6 -46.8 -18.0 -46.8 -18.0 -46.95 L-18.15 -47.2 -18.65 -48.2 -19.15 -49.7 -18.8 -50.65 -18.15 -51.3 Q-16.6 -50.05 -14.75 -48.9 L-14.4 -49.05 Q-13.7 -50.2 -13.2 -52.55 L-10.4 -50.7 Q-7.75 -49.0 -6.9 -48.65 L-5.25 -47.9 Q-4.65 -47.5 -4.25 -46.4 -3.75 -46.45 -3.35 -46.85 L-3.3 -46.65 -3.3 -47.2 -3.65 -48.65 -4.35 -51.0 -3.75 -50.9 Q-3.15 -50.9 4.65 -47.7 5.2 -47.7 5.55 -48.2 L6.3 -49.95 8.35 -47.55 13.65 -40.9 14.0 -40.55 Q14.3 -40.4 14.35 -40.4 L15.2 -41.45 Q15.65 -42.2 15.5 -43.35 L15.75 -42.9 18.5 -36.6 Q20.8 -31.35 21.6 -30.45 L24.3 -32.25 24.3 -30.3 Q23.6 -23.5 22.3 -22.35 L26.1 -22.35 Q24.9 -16.35 24.9 -15.4 L25.25 -10.45 25.5 -8.15 25.9 -5.6 Q25.3 -6.1 24.65 -6.95 23.05 -9.1 21.15 -13.65 18.95 -19.0 15.05 -20.45 L14.95 -20.5 14.6 -21.45 14.4 -22.0 14.2 -22.55 13.65 -24.35 17.6 -24.45 Q16.7 -27.1 12.9 -32.4 13.35 -33.15 13.8 -33.25 L15.9 -33.6 Q11.85 -45.4 -1.1 -48.4 L-2.85 -48.9 -1.95 -43.5 -2.0 -42.35 -2.8 -41.7 -6.25 -45.6 Q-9.7 -49.6 -12.75 -50.45 L-13.2 -47.0 Q-13.2 -46.4 -12.8 -45.65 L-12.45 -44.95 Q-12.8 -45.7 -12.8 -44.7 -12.8 -44.1 -12.35 -43.95 L-11.75 -43.75 -11.7 -43.25 -11.65 -43.05 -12.2 -42.95 Q-20.65 -42.95 -24.3 -51.75 -25.1 -50.8 -28.65 -48.25 -31.2 -46.35 -33.55 -42.35 L-36.2 -44.55 -39.05 -47.25 Q-37.85 -47.95 -34.55 -52.2 L-33.05 -50.85 -30.8 -49.45 -30.7 -49.55 M-33.7 -41.8 L-33.6 -41.85 -25.35 -34.8 -25.25 -34.3 Q-25.2 -34.1 -25.8 -34.1 -29.0 -34.1 -34.8 -38.8 -42.05 -44.65 -43.7 -52.45 L-43.75 -52.6 -43.35 -53.5 Q-41.85 -48.45 -38.45 -44.85 -35.85 -42.1 -34.05 -41.7 L-33.8 -41.75 -33.7 -41.8 M20.05 -26.75 L19.65 -29.9 Q19.15 -31.5 17.55 -32.15 L17.4 -32.05 Q17.15 -31.7 17.15 -30.95 17.15 -28.9 20.0 -26.7 L20.05 -26.75 M22.2 -17.45 L22.35 -25.8 Q21.5 -25.8 19.65 -23.2 18.9 -22.1 18.15 -21.85 L17.15 -21.75 21.95 -16.65 22.05 -16.8 22.15 -16.8 22.2 -17.45 M-53.1 -34.85 Q-53.1 -35.35 -53.65 -36.85 -54.3 -38.55 -55.1 -39.9 L-55.2 -39.5 Q-54.85 -37.15 -54.25 -35.95 -53.85 -35.3 -53.15 -34.8 L-53.1 -34.85 M-46.35 -29.35 Q-46.35 -30.7 -48.2 -34.85 -50.1 -39.05 -50.1 -43.4 -50.1 -48.0 -50.35 -48.25 -52.5 -45.75 -52.5 -40.25 -52.15 -37.55 -51.2 -34.85 -49.35 -29.45 -46.4 -29.25 L-46.35 -29.35 M-34.05 -49.95 L-35.4 -48.25 -35.15 -47.35 -34.95 -47.25 -34.65 -47.7 -34.05 -49.95" fill="#989898" fill-rule="evenodd" stroke="none"/>
    <path d="M-9.85 -26.75 L-15.3 -26.4 -19.2 -27.1 Q-18.45 -29.75 -16.95 -31.6 L-13.8 -34.8 Q-13.45 -35.1 -12.85 -36.45 L-12.0 -38.15 -11.1 -38.55 Q-10.7 -38.05 -10.5 -36.25 -10.3 -34.55 -10.5 -33.95 -8.65 -34.85 -6.5 -36.5 -4.2 -37.65 0.9 -37.65 1.95 -37.65 2.25 -37.05 L-0.15 -34.6 -2.7 -31.5 -1.05 -31.65 Q2.1 -31.65 6.05 -30.0 9.6 -28.45 10.5 -27.15 9.9 -26.75 6.9 -26.0 L5.35 -25.55 3.0 -24.85 Q-2.3 -26.7 -8.8 -26.75 L-9.85 -26.75 M-20.3 -26.75 Q-21.4 -26.0 -22.7 -25.7 L-24.25 -25.5 -27.6 -30.2 -29.75 -33.0 -29.9 -33.15 -29.3 -33.2 Q-23.9 -33.2 -20.3 -26.75 M-28.75 -26.7 L-31.8 -25.5 Q-33.5 -25.5 -34.05 -25.95 L-35.65 -27.0 Q-39.85 -31.5 -41.75 -34.2 -45.15 -39.0 -45.15 -42.45 -45.15 -45.5 -44.7 -47.05 L-44.1 -48.25 -42.75 -43.9 Q-41.1 -39.6 -37.2 -35.85 L-32.25 -31.95 Q-29.4 -29.55 -28.75 -26.75 L-28.75 -26.7 M4.4 -32.9 L2.55 -32.9 2.15 -33.45 4.5 -35.2 Q6.3 -36.95 6.3 -38.85 L5.8 -41.15 4.7 -43.8 4.9 -44.25 Q8.4 -42.3 9.05 -38.25 9.75 -33.8 4.4 -32.9 M2.8 -39.95 L1.95 -41.45 0.35 -44.85 0.45 -45.25 0.75 -45.35 Q2.1 -44.6 2.7 -43.15 3.4 -41.6 2.8 -39.95 M14.25 -27.5 L14.3 -27.3 13.7 -27.2 12.4 -27.7 Q11.1 -28.35 11.1 -29.1 L11.2 -29.65 11.5 -29.65 12.9 -28.85 14.25 -27.5 M-7.05 -37.2 Q-7.8 -39.7 -10.5 -46.6 L-10.4 -47.1 Q-7.2 -44.3 -6.45 -42.8 -5.2 -40.35 -7.05 -37.2 M-15.8 -39.05 Q-16.5 -36.95 -17.75 -35.35 -18.8 -34.0 -19.6 -30.9 L-19.7 -30.8 Q-20.75 -31.95 -23.0 -37.75 -25.4 -44.0 -25.4 -46.65 L-25.1 -48.9 -24.7 -49.2 Q-24.0 -48.6 -22.6 -45.9 -21.05 -42.9 -20.3 -42.0 -19.35 -40.85 -15.8 -39.05 M-25.7 -40.4 Q-25.7 -40.05 -26.1 -40.05 -25.3 -38.45 -25.25 -38.0 L-25.15 -37.8 -25.7 -37.7 Q-27.35 -37.7 -29.05 -41.85 L-28.7 -43.8 Q-28.25 -45.5 -27.6 -46.35 L-27.35 -46.1 -25.7 -40.4" fill="#ffffff" fill-rule="evenodd" stroke="none"/>
    <path d="M17.35 6.55 L14.95 5.85 12.15 5.15 Q11.15 5.0 9.5 4.0 9.95 1.15 9.95 -2.7 L9.95 -3.85 10.5 -6.3 11.4 -10.9 10.5 -14.0 10.05 -14.95 10.0 -15.0 9.3 -16.8 6.9 -18.8 5.3 -20.0 Q-2.35 -25.9 -9.5 -26.7 L-9.85 -26.75 -8.8 -26.75 Q-2.3 -26.7 3.0 -24.85 8.25 -23.4 11.85 -21.9 L14.95 -20.5 15.05 -20.45 Q18.55 -13.05 18.55 -3.2 18.55 2.4 17.35 6.55" fill="url(#gradient0)" fill-rule="evenodd" stroke="none"/>
    <path d="M20.75 12.85 Q20.15 8.3 17.35 6.55 18.55 2.4 18.55 -3.2 18.55 -13.05 15.05 -20.45 18.95 -19.0 21.15 -13.65 23.05 -9.1 24.65 -6.95 L24.7 -4.65 Q24.7 4.7 20.75 12.85" fill="url(#gradient1)" fill-rule="evenodd" stroke="none"/>
    <path d="M9.5 4.0 Q8.8 3.95 8.75 3.15 L8.7 1.45 9.95 -3.85 9.95 -2.7 Q9.95 1.15 9.5 4.0" fill="#b9a99b" fill-opacity="0.29803923" fill-rule="evenodd" stroke="none"/>
    <path d="M26.7 -5.35 L26.7 -4.65 Q26.7 5.6 22.4 14.1 L20.85 13.05 20.75 12.85 Q24.7 4.7 24.7 -4.65 L24.65 -6.95 Q25.3 -6.1 25.9 -5.6 26.25 -5.2 26.6 -5.3 L26.7 -5.35" fill="#8e7c71" fill-opacity="0.69411767" fill-rule="evenodd" stroke="none"/>
  </g>
  <defs>
    <linearGradient gradientTransform="matrix(0.0, -0.0122, 0.0293, 0.0, 8.3, -12.75)" gradientUnits="userSpaceOnUse" id="gradient0" spreadMethod="pad" x1="-819.2" x2="819.2">
      <stop offset="0.0" stop-color="#b9a99b" stop-opacity="0.4"/>
      <stop offset="1.0" stop-color="#ebe8e0"/>
    </linearGradient>
    <linearGradient gradientTransform="matrix(0.0029, -0.008, 0.0328, 0.0121, 50.9, 6.95)" gradientUnits="userSpaceOnUse" id="gradient1" spreadMethod="pad" x1="-819.2" x2="819.2">
      <stop offset="0.0" stop-color="#8e7c71" stop-opacity="0.4"/>
      <stop offset="1.0" stop-color="#cbc8c0"/>
    </linearGradient>
  </defs>
</svg>
