<?xml version="1.0" encoding="UTF-8" standalone="no"?>
<svg xmlns:ffdec="https://www.free-decompiler.com/flash" xmlns:xlink="http://www.w3.org/1999/xlink" ffdec:objectType="shape" height="64.35px" width="63.4px" xmlns="http://www.w3.org/2000/svg">
  <g transform="matrix(1.0, 0.0, 0.0, 1.0, 45.0, 48.65)">
    <path d="M10.45 -46.15 L11.7 -44.85 10.4 -44.35 2.3 -41.35 -22.15 -32.25 -23.9 -33.5 5.85 -44.45 9.35 -45.75 10.45 -46.15 M-14.9 -44.1 L-14.1 -43.95 -11.5 -43.1 -11.7 -43.0 -12.2 -42.7 -12.7 -42.45 -13.15 -42.15 Q-15.2 -40.75 -16.25 -38.65 L-16.35 -38.65 -18.8 -39.15 -19.35 -39.3 -19.4 -39.35 -19.0 -40.0 -18.95 -40.05 -18.65 -40.5 -18.05 -41.3 -18.05 -41.35 -17.85 -41.6 -17.55 -41.9 -16.45 -43.05 -15.7 -43.6 -14.9 -44.1" fill="#ffffff" fill-rule="evenodd" stroke="none"/>
    <path d="M-12.0 -19.75 L-14.7 -19.0 Q-16.3 -19.2 -19.95 -28.45 -20.95 -30.95 -22.15 -32.25 L2.3 -41.35 -1.9 -38.25 Q-5.8 -35.3 -8.2 -31.1 -11.6 -25.2 -12.0 -19.75 M-23.9 -33.5 L-24.5 -33.65 -26.15 -33.8 -36.1 -34.2 Q-34.7 -35.3 -30.6 -36.7 L-30.55 -36.7 -27.15 -37.85 -26.85 -37.95 -26.95 -37.65 -26.95 -37.6 -26.75 -37.25 Q-26.4 -36.95 -24.85 -36.3 L-24.9 -36.35 Q-23.2 -35.65 -22.65 -35.65 L-19.1 -36.65 -15.75 -37.75 -15.45 -38.0 Q-14.15 -40.65 -11.25 -42.1 -8.4 -43.65 -4.9 -43.65 L-1.9 -43.25 -1.55 -43.3 Q0.25 -44.1 3.4 -44.75 L3.75 -44.95 3.8 -45.35 3.6 -45.65 Q2.5 -46.4 0.95 -46.65 L-0.5 -46.75 -0.6 -46.75 -0.7 -46.75 -0.9 -46.7 -1.05 -46.65 -1.0 -46.65 -0.9 -46.7 -0.15 -46.95 5.4 -46.75 6.25 -46.0 6.3 -45.4 5.85 -44.45 -23.9 -33.5 M-28.55 -30.95 L-27.95 -31.2 -26.65 -32.0 -22.3 -9.55 Q-20.0 2.85 -19.7 8.3 L-19.7 8.35 -19.7 9.65 -19.7 9.75 -19.7 11.05 Q-21.5 6.3 -22.45 0.75 -23.15 -3.35 -23.65 -9.9 -24.1 -15.3 -25.65 -20.6 L-27.25 -25.4 Q-28.5 -29.35 -28.55 -30.95 M13.3 -22.05 L13.3 -22.0 13.3 -21.75 13.3 -21.7 13.3 -21.6 13.2 -21.15 Q12.8 -19.85 11.4 -18.9 9.5 -17.7 6.6 -16.9 L3.65 -16.8 3.2 -17.15 2.95 -17.45 5.65 -18.8 Q10.9 -21.35 13.3 -22.05 M0.2 -16.65 L0.0 -15.65 Q-1.75 -11.6 -15.85 -9.4 L-15.95 -9.45 -16.65 -9.9 -14.35 -11.0 Q-11.2 -12.45 -9.3 -13.1 -6.35 -14.1 0.2 -16.65 M-40.3 -14.2 L-39.7 -14.35 -33.85 -14.0 -33.55 -13.8 -32.85 -13.75 -32.55 -13.4 Q-32.55 -13.3 -34.05 -12.25 L-36.3 -10.55 -37.65 -9.0 Q-38.8 -7.75 -39.15 -7.75 -40.2 -7.75 -40.9 -9.2 L-41.4 -10.95 Q-41.35 -12.9 -40.75 -13.75 L-40.3 -14.2 M-12.05 -44.95 L-10.1 -44.35 -8.75 -44.05 -9.5 -43.8 -11.5 -43.1 -14.1 -43.95 -14.9 -44.1 -12.6 -44.85 -12.05 -44.95" fill="#e0e0e0" fill-rule="evenodd" stroke="none"/>
    <path d="M-5.75 -21.5 L-12.0 -19.75 Q-11.6 -25.2 -8.2 -31.1 -5.8 -35.3 -1.9 -38.25 L2.3 -41.35 10.4 -44.35 12.5 -40.9 14.2 -36.65 15.2 -33.2 Q15.2 -31.75 11.7 -29.45 8.7 -27.5 5.9 -26.5 1.65 -24.95 -0.25 -23.7 L-3.35 -22.55 -5.75 -21.5 M-0.15 -46.95 L7.15 -47.65 7.7 -47.6 8.6 -46.6 9.35 -45.75 5.85 -44.45 6.3 -45.4 6.25 -46.0 5.4 -46.75 -0.15 -46.95 M14.3 -25.7 L14.35 -23.7 14.35 -23.65 14.35 -21.65 14.3 -21.8 14.3 -22.0 14.3 -22.05 14.15 -24.25 14.0 -24.6 13.65 -24.75 13.3 -24.6 10.0 -23.45 11.75 -24.25 Q13.5 -25.05 14.3 -25.7 M7.4 -22.55 L1.0 -20.35 0.7 -20.15 0.4 -20.15 0.2 -20.1 Q-1.85 -19.25 -8.3 -17.2 L-20.5 -13.35 -20.6 -13.3 -20.7 -13.35 -21.1 -13.3 -20.65 -10.1 -19.95 -5.15 -19.35 0.8 -18.55 6.2 -18.35 10.0 -18.25 10.3 -18.05 10.45 -16.3 11.0 -16.1 11.0 -15.95 11.0 -5.9 6.55 -5.85 6.55 Q-1.9 4.3 0.25 2.5 3.0 0.0 3.3 -2.25 10.85 -4.7 12.65 -7.15 14.0 -8.95 14.25 -14.0 14.4 -8.7 11.7 -5.7 10.6 -4.5 0.05 3.35 -6.5 8.25 -13.45 11.55 L-14.7 12.15 -17.25 12.55 -19.75 12.6 -21.9 10.2 Q-22.8 9.05 -23.85 8.55 -23.9 4.25 -24.55 -0.2 -25.3 -5.0 -25.3 -9.85 -25.3 -11.25 -24.7 -14.55 L-24.7 -14.65 -24.75 -14.85 -24.85 -15.0 -24.9 -15.05 -25.0 -15.1 -25.0 -15.15 -25.35 -15.3 -25.4 -15.3 -30.75 -15.45 -29.35 -15.45 -31.8 -16.2 Q-37.3 -17.95 -37.3 -19.0 L-36.8 -21.95 -36.65 -24.95 Q-35.95 -28.6 -35.95 -30.8 L-35.95 -31.7 -35.25 -31.4 -32.65 -30.95 -30.2 -30.75 -28.55 -30.95 Q-28.5 -29.35 -27.25 -25.4 L-25.65 -20.6 Q-24.1 -15.3 -23.65 -9.9 -23.15 -3.35 -22.45 0.75 -21.5 6.3 -19.7 11.05 L-19.7 11.85 -19.35 11.65 -19.2 11.3 Q-18.65 4.7 -21.3 -9.75 L-22.2 -14.5 -20.35 -15.15 -17.65 -16.0 -11.65 -17.35 -1.5 -19.75 Q0.3 -20.2 3.0 -21.2 L7.4 -22.55 M16.95 -27.0 L17.15 -26.65 17.15 -26.45 15.35 -26.4 15.2 -26.4 14.8 -28.6 15.45 -29.05 16.9 -27.05 16.95 -27.0 M15.3 -25.4 L15.9 -25.35 15.9 -25.15 16.05 -23.5 15.35 -19.25 15.35 -23.7 15.3 -25.4 M2.95 -17.45 L1.65 -19.1 1.6 -19.15 1.35 -19.4 13.2 -23.55 13.3 -22.05 Q10.9 -21.35 5.65 -18.8 L2.95 -17.45 M11.2 -7.05 L11.15 -7.0 9.75 -7.0 9.7 -7.05 9.7 -15.8 12.4 -17.5 12.7 -17.1 12.3 -16.25 12.3 -11.95 12.1 -9.5 Q11.9 -8.0 11.2 -7.05 M-16.65 -9.9 L-18.75 -11.2 Q-19.45 -11.55 -20.0 -12.45 L-8.0 -16.25 Q-2.1 -18.15 0.15 -19.0 L0.15 -17.5 0.15 -17.4 0.2 -16.65 Q-6.35 -14.1 -9.3 -13.1 -11.2 -12.45 -14.35 -11.0 L-16.65 -9.9 M8.8 -7.1 Q8.05 -4.9 5.65 -4.9 L5.1 -4.95 4.75 -9.45 4.35 -14.8 Q4.35 -15.3 4.9 -15.5 L8.95 -15.55 Q8.75 -14.9 8.8 -13.85 L9.1 -10.95 8.8 -8.0 8.8 -7.1 M-30.55 -14.5 L-26.65 -14.1 -26.65 -13.95 -30.45 -9.9 Q-32.65 -7.6 -34.8 -6.3 L-37.9 -6.3 Q-40.4 -6.35 -41.5 -8.0 -42.2 -9.1 -42.2 -10.45 -42.2 -12.25 -40.75 -13.75 -41.35 -12.9 -41.4 -10.95 L-40.9 -9.2 Q-40.2 -7.75 -39.15 -7.75 -38.8 -7.75 -37.65 -9.0 L-36.3 -10.55 -34.05 -12.25 Q-32.55 -13.3 -32.55 -13.4 L-32.85 -13.75 -33.55 -13.8 -33.85 -14.0 -39.7 -14.35 -40.3 -14.2 -39.75 -14.65 -30.65 -14.5 -30.55 -14.5 M-30.6 -4.95 L-29.1 1.3 Q-28.45 4.15 -28.45 6.95 -28.45 10.95 -28.7 11.8 -29.35 14.0 -32.1 14.0 -35.6 14.0 -39.05 10.6 -41.25 8.45 -42.1 6.75 L-42.9 2.9 -43.55 -1.4 Q-43.85 -4.75 -42.6 -4.75 L-41.5 -4.45 -41.1 -4.25 -40.25 -1.9 -39.05 1.25 -38.5 4.15 Q-38.2 5.95 -37.4 7.1 -37.1 7.0 -37.1 6.2 -37.1 3.35 -37.85 -3.65 L-36.9 -3.55 -34.05 -3.55 Q-32.85 -3.7 -30.6 -4.95 M-0.5 -45.75 L1.8 -45.4 -1.25 -44.45 Q-1.35 -44.65 -1.55 -44.7 L-3.3 -45.2 -0.5 -45.75 M-8.75 -44.05 L-10.1 -44.35 -12.05 -44.95 -9.55 -45.15 -8.3 -45.1 -7.2 -45.0 -7.15 -45.0 -6.05 -44.85 -5.75 -44.8 -5.3 -44.7 -5.1 -44.7 -4.9 -44.65 -6.95 -44.5 -8.75 -44.05 M-20.35 -38.6 L-20.3 -38.55 -20.25 -38.55 -19.65 -38.35 -18.6 -38.15 -18.1 -38.2 Q-17.4 -38.2 -17.45 -37.95 L-18.0 -37.5 Q-19.25 -36.8 -21.15 -36.7 -23.1 -36.65 -24.5 -37.25 L-25.15 -37.5 -23.7 -38.0 -21.55 -38.65 -21.25 -38.75 -20.35 -38.6 M-20.4 -39.6 L-21.2 -39.75 -20.1 -40.05 -20.4 -39.6 M-7.75 -9.3 L-7.7 -9.0 -7.85 -8.0 -8.05 -6.85 -7.2 3.1 Q-7.2 4.3 -7.35 4.55 -7.75 5.1 -9.65 5.75 L-14.0 8.1 Q-14.9 7.25 -14.9 -6.05 -14.9 -7.0 -12.1 -8.15 -9.45 -9.25 -7.75 -9.3 M-0.8 -5.65 Q-0.8 2.15 -6.0 3.35 L-6.3 3.2 -6.3 -3.2 Q-6.65 -4.45 -6.65 -7.9 L-6.5 -9.25 Q-6.15 -9.95 -4.8 -10.2 L-3.1 -11.1 Q-2.1 -11.65 -1.75 -10.65 L-0.85 -7.8 -0.8 -5.65" fill="#b4b4b4" fill-rule="evenodd" stroke="none"/>
    <path d="M-18.65 -42.2 L-17.8 -43.15 -16.1 -44.55 Q-13.65 -46.15 -9.55 -46.15 L-7.45 -46.05 -7.05 -46.0 -6.1 -45.9 -5.5 -46.1 -1.4 -47.6 Q1.45 -48.65 7.15 -48.65 9.35 -48.7 11.5 -46.55 L12.7 -45.2 Q15.6 -41.45 18.4 -33.55 L18.4 -33.4 17.8 -31.85 16.2 -29.7 17.7 -27.65 18.15 -26.65 18.15 -25.95 18.0 -25.6 17.65 -25.45 17.5 -25.45 16.9 -25.4 16.9 -25.35 17.05 -23.5 16.35 -19.05 15.25 -14.05 Q15.45 -8.25 12.45 -5.0 11.3 -3.8 0.65 4.15 -6.0 9.15 -13.0 12.45 -19.2 15.35 -21.6 15.35 L-27.05 15.05 Q-35.65 16.9 -40.2 13.6 -44.8 10.25 -45.0 -1.9 L-44.3 -10.45 -44.25 -10.35 Q-43.8 -13.65 -41.05 -15.45 L-39.55 -24.2 -39.55 -24.25 -37.65 -33.2 -37.5 -33.35 -37.7 -33.65 -37.65 -33.95 Q-36.9 -35.65 -30.9 -37.65 L-19.25 -41.4 -18.85 -41.95 -18.8 -41.95 -18.65 -42.2 M11.7 -44.85 L10.45 -46.15 9.3 -47.0 7.7 -47.6 7.15 -47.65 -0.15 -46.95 -0.9 -46.7 -1.0 -46.65 -1.05 -46.65 -0.9 -46.7 -0.7 -46.75 -0.6 -46.75 -0.5 -46.75 0.95 -46.65 Q2.5 -46.4 3.6 -45.65 L3.8 -45.35 3.75 -44.95 3.4 -44.75 Q0.25 -44.1 -1.55 -43.3 L-1.9 -43.25 -4.9 -43.65 Q-8.4 -43.65 -11.25 -42.1 -14.15 -40.65 -15.45 -38.0 L-15.75 -37.75 -19.1 -36.65 -22.65 -35.65 Q-23.2 -35.65 -24.9 -36.35 L-24.85 -36.3 Q-26.4 -36.95 -26.75 -37.25 L-26.95 -37.6 -26.95 -37.65 -26.85 -37.95 -27.15 -37.85 -30.55 -36.7 -30.6 -36.7 Q-34.7 -35.3 -36.1 -34.2 L-26.15 -33.8 -24.5 -33.65 -23.9 -33.5 -22.15 -32.25 Q-20.95 -30.95 -19.95 -28.45 -16.3 -19.2 -14.7 -19.0 L-12.0 -19.75 -5.75 -21.5 -5.2 -21.65 -5.15 -21.65 -2.35 -22.4 -2.4 -22.4 1.25 -23.6 Q4.95 -24.95 8.95 -26.8 12.0 -28.15 13.95 -29.2 L15.25 -30.1 15.3 -30.15 16.95 -32.35 16.9 -32.35 17.4 -33.35 Q14.55 -41.35 11.7 -44.85 M14.3 -25.7 L14.3 -26.7 14.2 -28.35 Q10.15 -25.2 -2.1 -21.45 L-14.55 -18.0 -14.7 -18.0 Q-16.85 -17.9 -20.3 -25.0 -22.7 -30.0 -23.85 -31.6 L-24.6 -32.4 Q-25.5 -32.75 -25.75 -31.55 L-22.35 -15.15 -22.2 -14.5 -21.3 -9.75 Q-18.65 4.7 -19.2 11.3 L-19.35 11.65 -19.7 11.85 -19.7 11.05 -19.7 9.75 -19.7 9.65 -19.7 8.35 -19.7 8.3 Q-20.0 2.85 -22.3 -9.55 L-26.65 -32.0 -27.95 -31.2 -28.55 -30.95 -30.2 -30.75 -32.65 -30.95 -35.25 -31.4 -35.95 -31.7 -36.45 -31.95 -36.6 -32.0 -36.65 -32.05 -36.9 -32.2 -38.55 -24.05 -40.05 -15.65 -32.15 -15.5 -30.75 -15.45 -25.4 -15.3 -25.35 -15.3 -25.0 -15.15 -25.0 -15.1 -24.9 -15.05 -24.85 -15.0 -24.75 -14.85 -24.7 -14.65 -24.7 -14.55 Q-25.3 -11.25 -25.3 -9.85 -25.3 -5.0 -24.55 -0.2 -23.9 4.25 -23.85 8.55 L-23.85 9.4 -23.85 9.65 Q-23.85 11.55 -24.1 12.3 -24.45 13.45 -25.3 14.15 L-21.55 14.35 -20.5 14.25 Q-18.45 13.8 -14.7 12.15 L-13.45 11.55 Q-6.5 8.25 0.05 3.35 10.6 -4.5 11.7 -5.7 14.4 -8.7 14.25 -14.0 14.0 -8.95 12.65 -7.15 10.85 -4.7 3.3 -2.25 3.0 0.0 0.25 2.5 -1.9 4.3 -5.85 6.55 L-5.9 6.55 -15.95 11.0 -16.1 11.0 -16.3 11.0 -18.05 10.45 -18.25 10.3 -18.35 10.0 -18.55 6.2 -19.35 0.8 -19.95 -5.15 -20.65 -10.1 -21.1 -13.3 -20.7 -13.35 -20.6 -13.3 -20.5 -13.35 -8.3 -17.2 Q-1.85 -19.25 0.2 -20.1 L0.4 -20.15 0.7 -20.15 1.0 -20.35 7.4 -22.55 10.0 -23.45 13.3 -24.6 13.65 -24.75 14.0 -24.6 14.15 -24.25 14.3 -22.05 14.3 -22.0 14.3 -21.8 14.35 -21.65 14.35 -23.65 14.35 -23.7 14.3 -25.7 M15.3 -25.4 L15.35 -23.7 15.35 -19.25 16.05 -23.5 15.9 -25.15 15.9 -25.35 15.3 -25.4 M16.95 -27.0 L16.9 -27.05 15.45 -29.05 14.8 -28.6 15.2 -26.4 15.35 -26.4 17.15 -26.45 17.15 -26.65 16.95 -27.0 M2.95 -17.45 L3.2 -17.15 3.65 -16.8 6.6 -16.9 Q9.5 -17.7 11.4 -18.9 12.8 -19.85 13.2 -21.15 L13.3 -21.6 13.3 -21.7 13.3 -21.75 13.3 -22.0 13.3 -22.05 13.2 -23.55 1.35 -19.4 1.6 -19.15 1.65 -19.1 2.95 -17.45 M11.2 -7.05 L11.85 -7.75 Q13.3 -9.8 13.3 -16.2 L13.55 -19.45 13.55 -19.6 Q12.95 -18.75 11.95 -18.05 9.9 -16.8 6.85 -15.95 3.4 -15.05 2.4 -16.55 L1.85 -17.3 2.3 -9.5 2.85 -6.25 2.85 -6.2 3.3 -3.3 Q9.0 -5.15 11.15 -7.0 L11.2 -7.05 M0.2 -16.65 L0.15 -17.4 0.15 -17.5 0.15 -19.0 Q-2.1 -18.15 -8.0 -16.25 L-20.0 -12.45 Q-19.45 -11.55 -18.75 -11.2 L-16.65 -9.9 -15.95 -9.45 -15.85 -9.4 Q-1.75 -11.6 0.0 -15.65 L0.2 -16.65 M-15.9 -8.4 L-16.25 -8.45 -19.25 -10.3 -19.2 -10.3 -19.65 -10.6 -18.95 -5.25 -18.35 0.7 -17.55 6.05 Q-17.25 8.25 -17.3 9.5 L-17.2 9.7 -16.7 9.85 -17.2 2.3 Q-17.8 -4.0 -18.6 -8.4 L-18.5 -8.75 -18.2 -9.0 -18.0 -9.3 -17.6 -7.3 -16.45 1.05 Q-15.75 7.1 -15.7 9.85 L-6.35 5.7 -6.3 5.65 Q-2.5 3.5 -0.4 1.75 2.15 -0.6 2.3 -2.65 L2.3 -2.7 2.3 -2.8 1.85 -6.05 1.3 -9.45 0.95 -15.25 Q-1.0 -10.65 -15.9 -8.4 M-30.55 -14.5 L-30.65 -14.5 -39.75 -14.65 -40.45 -14.65 -41.5 -13.8 Q-43.35 -12.0 -43.35 -9.05 -43.35 -7.05 -41.75 -6.3 L-41.8 -6.3 Q-40.95 -5.9 -39.4 -5.8 L-38.0 -5.75 -37.25 -5.75 -34.8 -6.3 -33.0 -6.65 -32.55 -6.9 -32.0 -7.25 Q-30.15 -8.6 -27.55 -12.05 L-26.0 -14.3 -26.4 -14.35 -29.3 -14.45 -30.55 -14.5 M-25.05 12.0 L-24.85 9.4 Q-24.85 4.75 -25.55 -0.05 -26.3 -4.9 -26.3 -9.85 L-26.05 -12.45 Q-28.45 -7.25 -31.15 -6.0 -33.85 -4.75 -38.0 -4.75 -40.85 -4.75 -42.2 -5.4 -43.25 -5.9 -43.75 -6.75 -43.95 10.05 -39.6 13.1 -35.25 16.1 -27.25 14.05 L-27.2 14.05 Q-25.55 13.5 -25.05 12.0 M-0.5 -45.75 L-3.3 -45.2 -1.55 -44.7 Q-1.35 -44.65 -1.25 -44.45 L1.8 -45.4 -0.5 -45.75 M-12.05 -44.95 L-12.6 -44.85 -14.9 -44.1 -15.7 -43.6 -16.45 -43.05 -17.55 -41.9 -17.85 -41.6 -18.05 -41.35 -18.05 -41.3 -18.65 -40.5 -18.95 -40.05 -19.0 -40.0 -19.4 -39.35 -19.35 -39.3 -18.8 -39.15 -16.35 -38.65 -16.25 -38.65 Q-15.2 -40.75 -13.15 -42.15 L-12.7 -42.45 -12.2 -42.7 -11.7 -43.0 -11.5 -43.1 -9.5 -43.8 -8.75 -44.05 -6.95 -44.5 -4.9 -44.65 -5.1 -44.7 -5.3 -44.7 -5.75 -44.8 -6.05 -44.85 -7.15 -45.0 -7.2 -45.0 -8.3 -45.1 -9.55 -45.15 -12.05 -44.95 M-20.4 -39.6 L-20.1 -40.05 -21.2 -39.75 -20.4 -39.6 M-20.35 -38.6 L-21.25 -38.75 -21.55 -38.65 -23.7 -38.0 -25.15 -37.5 -24.5 -37.25 Q-23.1 -36.65 -21.15 -36.7 -19.25 -36.8 -18.0 -37.5 L-17.45 -37.95 Q-17.4 -38.2 -18.1 -38.2 L-18.6 -38.15 -19.65 -38.35 -20.25 -38.55 -20.3 -38.55 -20.35 -38.6 M-34.9 -32.35 L-34.95 -32.35 -32.55 -31.95 -32.5 -31.95 -30.2 -31.75 Q-28.45 -31.75 -27.2 -32.8 L-36.55 -33.2 -36.45 -32.9 -34.9 -32.35" fill="#464646" fill-rule="evenodd" stroke="none"/>
    <path d="M11.7 -44.85 Q14.55 -41.35 17.4 -33.35 L16.9 -32.35 16.95 -32.35 15.3 -30.15 15.25 -30.1 13.95 -29.2 Q12.0 -28.15 8.95 -26.8 4.95 -24.95 1.25 -23.6 L-2.4 -22.4 -2.35 -22.4 -5.15 -21.65 -5.2 -21.65 -5.75 -21.5 -3.35 -22.55 -0.25 -23.7 Q1.65 -24.95 5.9 -26.5 8.7 -27.5 11.7 -29.45 15.2 -31.75 15.2 -33.2 L14.2 -36.65 12.5 -40.9 10.4 -44.35 11.7 -44.85 M7.7 -47.6 L9.3 -47.0 10.45 -46.15 9.35 -45.75 8.6 -46.6 7.7 -47.6 M-22.2 -14.5 L-22.35 -15.15 -25.75 -31.55 Q-25.5 -32.75 -24.6 -32.4 L-23.85 -31.6 Q-22.7 -30.0 -20.3 -25.0 -16.85 -17.9 -14.7 -18.0 L-14.55 -18.0 -2.1 -21.45 Q10.15 -25.2 14.2 -28.35 L14.3 -26.7 14.3 -25.7 Q13.5 -25.05 11.75 -24.25 L10.0 -23.45 7.4 -22.55 3.0 -21.2 Q0.3 -20.2 -1.5 -19.75 L-11.65 -17.35 -17.65 -16.0 -20.35 -15.15 -22.2 -14.5 M-14.7 12.15 Q-18.45 13.8 -20.5 14.25 L-21.55 14.35 -25.3 14.15 Q-24.45 13.45 -24.1 12.3 -23.85 11.55 -23.85 9.65 L-23.85 9.4 -23.85 8.55 Q-22.8 9.05 -21.9 10.2 L-19.75 12.6 -17.25 12.55 -14.7 12.15 M-30.75 -15.45 L-32.15 -15.5 -40.05 -15.65 -38.55 -24.05 -36.9 -32.2 -36.65 -32.05 -36.6 -32.0 -36.45 -31.95 -35.95 -31.7 -35.95 -30.8 Q-35.95 -28.6 -36.65 -24.95 L-36.8 -21.95 -37.3 -19.0 Q-37.3 -17.95 -31.8 -16.2 L-29.35 -15.45 -30.75 -15.45 M11.15 -7.0 Q9.0 -5.15 3.3 -3.3 L2.85 -6.2 2.85 -6.25 2.3 -9.5 1.85 -17.3 2.4 -16.55 Q3.4 -15.05 6.85 -15.95 9.9 -16.8 11.95 -18.05 12.95 -18.75 13.55 -19.6 L13.55 -19.45 13.3 -16.2 Q13.3 -9.8 11.85 -7.75 L11.2 -7.05 Q11.9 -8.0 12.1 -9.5 L12.3 -11.95 12.3 -16.25 12.7 -17.1 12.4 -17.5 9.7 -15.8 9.7 -7.05 9.75 -7.0 11.15 -7.0 M8.8 -7.1 L8.8 -8.0 9.1 -10.95 8.8 -13.85 Q8.75 -14.9 8.95 -15.55 L4.9 -15.5 Q4.35 -15.3 4.35 -14.8 L4.75 -9.45 5.1 -4.95 5.65 -4.9 Q8.05 -4.9 8.8 -7.1 M-15.9 -8.4 Q-1.0 -10.65 0.95 -15.25 L1.3 -9.45 1.85 -6.05 2.3 -2.8 2.3 -2.7 2.3 -2.65 Q2.15 -0.6 -0.4 1.75 -2.5 3.5 -6.3 5.65 L-6.35 5.7 -15.7 9.85 Q-15.75 7.1 -16.45 1.05 L-17.6 -7.3 -18.0 -9.3 -18.2 -9.0 -18.5 -8.75 -18.6 -8.4 Q-17.8 -4.0 -17.2 2.3 L-16.7 9.85 -17.2 9.7 -17.3 9.5 Q-17.25 8.25 -17.55 6.05 L-18.35 0.7 -18.95 -5.25 -19.65 -10.6 -19.2 -10.3 -19.25 -10.3 -16.25 -8.45 -15.9 -8.4 M-40.75 -13.75 Q-42.2 -12.25 -42.2 -10.45 -42.2 -9.1 -41.5 -8.0 -40.4 -6.35 -37.9 -6.3 L-34.8 -6.3 Q-32.65 -7.6 -30.45 -9.9 L-26.65 -13.95 -26.65 -14.1 -30.55 -14.5 -29.3 -14.45 -26.4 -14.35 -26.0 -14.3 -27.55 -12.05 Q-30.15 -8.6 -32.0 -7.25 L-32.55 -6.9 -33.0 -6.65 -34.8 -6.3 -37.25 -5.75 -38.0 -5.75 -39.4 -5.8 Q-40.95 -5.9 -41.8 -6.3 L-41.75 -6.3 Q-43.35 -7.05 -43.35 -9.05 -43.35 -12.0 -41.5 -13.8 L-40.45 -14.65 -39.75 -14.65 -40.3 -14.2 -40.75 -13.75 M-30.6 -4.95 Q-32.85 -3.7 -34.05 -3.55 L-36.9 -3.55 -37.85 -3.65 Q-37.1 3.35 -37.1 6.2 -37.1 7.0 -37.4 7.1 -38.2 5.95 -38.5 4.15 L-39.05 1.25 -40.25 -1.9 -41.1 -4.25 -41.5 -4.45 -42.6 -4.75 Q-43.85 -4.75 -43.55 -1.4 L-42.9 2.9 -42.1 6.75 Q-41.25 8.45 -39.05 10.6 -35.6 14.0 -32.1 14.0 -29.35 14.0 -28.7 11.8 -28.45 10.95 -28.45 6.95 -28.45 4.15 -29.1 1.3 L-30.6 -4.95 M-25.05 12.0 Q-25.55 13.5 -27.2 14.05 L-27.25 14.05 Q-35.25 16.1 -39.6 13.1 -43.95 10.05 -43.75 -6.75 -43.25 -5.9 -42.2 -5.4 -40.85 -4.75 -38.0 -4.75 -33.85 -4.75 -31.15 -6.0 -28.45 -7.25 -26.05 -12.45 L-26.3 -9.85 Q-26.3 -4.9 -25.55 -0.05 -24.85 4.75 -24.85 9.4 L-25.05 12.0 M-0.8 -5.65 L-0.85 -7.8 -1.75 -10.65 Q-2.1 -11.65 -3.1 -11.1 L-4.8 -10.2 Q-6.15 -9.95 -6.5 -9.25 L-6.65 -7.9 Q-6.65 -4.45 -6.3 -3.2 L-6.3 3.2 -6.0 3.35 Q-0.8 2.15 -0.8 -5.65 M-7.75 -9.3 Q-9.45 -9.25 -12.1 -8.15 -14.9 -7.0 -14.9 -6.05 -14.9 7.25 -14.0 8.1 L-9.65 5.75 Q-7.75 5.1 -7.35 4.55 -7.2 4.3 -7.2 3.1 L-8.05 -6.85 -7.85 -8.0 -7.7 -9.0 -7.75 -9.3" fill="#8a8a8a" fill-rule="evenodd" stroke="none"/>
    <path d="M-34.9 -32.35 L-36.45 -32.9 -36.55 -33.2 -27.2 -32.8 Q-28.45 -31.75 -30.2 -31.75 L-32.5 -31.95 -32.55 -31.95 -34.95 -32.35 -34.9 -32.35" fill="#616161" fill-rule="evenodd" stroke="none"/>
  </g>
</svg>
