<?xml version="1.0" encoding="UTF-8" standalone="no"?>
<svg xmlns:ffdec="https://www.free-decompiler.com/flash" xmlns:xlink="http://www.w3.org/1999/xlink" ffdec:objectType="shape" height="51.05px" width="38.1px" xmlns="http://www.w3.org/2000/svg">
  <g transform="matrix(1.0, 0.0, 0.0, 1.0, -11.4, 41.75)">
    <path d="M21.6 7.95 Q17.15 6.2 14.75 3.25 12.25 0.2 11.65 -4.45 L16.35 -4.2 Q19.95 -4.3 21.4 -6.55 17.7 -7.8 14.35 -14.15 11.4 -19.65 11.4 -22.6 11.4 -23.6 11.8 -24.55 18.7 -22.25 20.15 -22.25 L22.7 -22.55 26.55 -22.75 23.6 -21.45 17.15 -21.85 13.55 -22.9 12.4 -23.25 Q14.95 -14.0 17.05 -11.25 18.15 -9.75 23.2 -6.75 L23.1 -6.25 Q23.55 -4.8 20.55 -3.8 17.6 -2.8 16.2 -2.85 L13.3 -3.25 Q13.4 -2.15 15.25 0.9 17.15 3.95 18.85 5.2 20.55 6.45 20.8 7.0 L21.6 7.95" fill="#606060" fill-rule="evenodd" stroke="none"/>
    <path d="M13.3 -3.25 L16.2 -2.85 Q17.6 -2.8 20.55 -3.8 23.55 -4.8 23.1 -6.25 L25.65 -5.45 28.35 -4.8 29.4 -4.85 Q25.95 -5.9 20.5 -11.95 14.75 -18.25 13.55 -22.9 L17.15 -21.85 23.6 -21.45 Q25.0 -20.0 29.45 -18.1 33.5 -16.35 34.6 -16.35 L33.95 -14.5 33.6 -12.55 33.35 -12.05 30.75 -11.7 Q29.45 -11.7 28.5 -12.45 L25.35 -15.0 Q27.0 -15.2 28.5 -15.9 L29.45 -16.5 29.0 -16.75 27.85 -17.0 Q21.75 -17.0 18.3 -20.2 18.7 -15.5 22.55 -11.85 26.5 -8.1 32.7 -6.75 L32.85 -5.75 32.6 -6.1 Q31.9 -3.65 29.5 -2.0 27.05 -0.3 23.85 -0.3 21.9 -0.3 17.55 -1.25 L17.5 -0.95 Q17.55 -0.55 18.65 0.0 L27.15 2.15 Q28.5 2.15 30.05 1.35 32.15 0.35 33.5 -1.7 L33.5 0.1 Q33.05 2.3 31.5 3.7 29.6 5.4 26.55 5.4 22.0 5.4 17.85 2.25 14.45 -0.35 13.3 -3.25" fill="#d1d1d1" fill-rule="evenodd" stroke="none"/>
    <path d="M21.6 7.95 L20.8 7.0 Q20.55 6.45 18.85 5.2 17.15 3.95 15.25 0.9 13.4 -2.15 13.3 -3.25 14.45 -0.35 17.85 2.25 22.0 5.4 26.55 5.4 29.6 5.4 31.5 3.7 33.05 2.3 33.5 0.1 33.25 4.8 31.75 6.95 30.1 9.3 26.55 9.3 L24.15 8.8 21.6 7.95 M23.1 -6.25 L23.2 -6.75 Q18.15 -9.75 17.05 -11.25 14.95 -14.0 12.4 -23.25 L13.55 -22.9 Q14.75 -18.25 20.5 -11.95 25.95 -5.9 29.4 -4.85 L28.35 -4.8 25.65 -5.45 23.1 -6.25 M23.6 -21.45 L26.55 -22.75 Q28.25 -20.7 32.35 -18.95 35.4 -17.6 37.1 -17.35 L33.6 -12.55 33.95 -14.5 34.6 -16.35 Q33.5 -16.35 29.45 -18.1 25.0 -20.0 23.6 -21.45" fill="#989898" fill-rule="evenodd" stroke="none"/>
    <path d="M33.35 -12.05 Q32.45 -9.35 32.45 -8.5 L32.55 -7.25 32.7 -6.75 Q26.5 -8.1 22.55 -11.85 18.7 -15.5 18.3 -20.2 21.75 -17.0 27.85 -17.0 L29.0 -16.75 29.45 -16.5 28.5 -15.9 Q27.0 -15.2 25.35 -15.0 L28.5 -12.45 Q29.45 -11.7 30.75 -11.7 L33.35 -12.05 M32.85 -5.75 L33.5 -1.7 Q32.15 0.35 30.05 1.35 28.5 2.15 27.15 2.15 L18.65 0.0 Q17.55 -0.55 17.5 -0.95 L17.55 -1.25 Q21.9 -0.3 23.85 -0.3 27.05 -0.3 29.5 -2.0 31.9 -3.65 32.6 -6.1 L32.85 -5.75" fill="#ffffff" fill-rule="evenodd" stroke="none"/>
    <path d="M37.05 -40.35 L37.0 -40.35 33.9 -40.05 31.8 -39.75 29.2 -39.65 28.15 -39.95 Q27.9 -41.45 29.75 -41.25 L35.0 -41.5 Q40.2 -42.5 44.25 -39.6 50.0 -35.6 49.45 -27.55 48.9 -19.55 45.15 -16.4 41.4 -13.3 38.55 -12.8 35.7 -12.3 35.05 -12.75 L36.75 -15.8 Q32.45 -13.55 27.5 -13.3 21.3 -12.65 17.65 -17.8 14.2 -22.7 15.4 -28.35 16.1 -31.4 18.5 -33.25 19.25 -29.6 22.3 -27.25 L23.15 -26.75 Q26.6 -27.5 27.6 -31.3 L28.15 -34.55 28.85 -32.95 29.35 -30.8 29.4 -30.65 Q28.8 -26.85 26.55 -24.45 L26.8 -25.05 Q27.15 -26.1 26.8 -27.3 24.2 -24.45 20.8 -26.7 18.3 -28.4 17.75 -31.55 14.65 -23.8 20.2 -17.75 24.15 -13.5 30.1 -14.55 34.25 -15.35 37.65 -17.9 L38.45 -17.3 38.25 -16.3 38.05 -15.6 37.8 -15.0 37.35 -14.5 36.8 -14.0 Q40.7 -14.45 43.75 -16.85 48.5 -20.65 48.6 -26.85 48.7 -33.05 45.1 -38.1 41.7 -41.7 37.05 -40.35" fill="#606060" fill-rule="evenodd" stroke="none"/>
    <path d="M28.15 -39.95 L29.2 -39.65 31.8 -39.75 33.9 -40.05 37.0 -40.35 37.05 -40.35 34.95 -39.55 Q30.0 -37.3 29.5 -31.7 L29.4 -30.65 29.35 -30.8 28.85 -32.95 28.15 -34.55 28.15 -39.95 M45.1 -38.1 Q48.7 -33.05 48.6 -26.85 48.5 -20.65 43.75 -16.85 40.7 -14.45 36.8 -14.0 L37.35 -14.5 37.8 -15.0 38.05 -15.6 38.25 -16.3 38.45 -17.3 37.65 -17.9 Q34.25 -15.35 30.1 -14.55 24.15 -13.5 20.2 -17.75 14.65 -23.8 17.75 -31.55 18.3 -28.4 20.8 -26.7 24.2 -24.45 26.8 -27.3 27.15 -26.1 26.8 -25.05 L26.55 -24.45 Q26.15 -23.7 25.3 -23.3 L24.95 -23.05 23.3 -22.15 22.4 -21.95 Q18.0 -24.4 17.4 -29.4 16.4 -22.3 23.1 -19.3 29.6 -16.5 36.25 -18.7 41.95 -20.45 44.55 -25.75 45.1 -26.9 45.25 -28.25 45.7 -33.2 45.1 -38.1" fill="#989898" fill-rule="evenodd" stroke="none"/>
    <path d="M37.05 -40.35 Q41.7 -41.7 45.1 -38.1 45.7 -33.2 45.25 -28.25 45.1 -26.9 44.55 -25.75 41.95 -20.45 36.25 -18.7 29.6 -16.5 23.1 -19.3 16.4 -22.3 17.4 -29.4 18.0 -24.4 22.4 -21.95 L23.3 -22.15 24.95 -23.05 25.3 -23.3 Q26.15 -23.7 26.55 -24.45 28.8 -26.85 29.4 -30.65 L29.5 -31.7 Q30.0 -37.3 34.95 -39.55 L37.05 -40.35 M34.95 -30.55 Q34.65 -27.7 32.55 -25.6 L31.95 -25.0 35.15 -31.4 34.95 -30.55 M44.75 -36.5 L43.4 -37.8 Q37.2 -42.05 32.55 -35.2 31.5 -33.6 31.45 -31.75 31.2 -24.6 25.6 -20.9 29.2 -19.9 32.25 -21.7 36.95 -24.4 37.15 -29.7 39.2 -24.45 35.2 -20.55 38.7 -21.2 40.4 -24.1 41.15 -25.35 40.75 -26.8 39.2 -32.3 42.7 -36.45 L44.75 -36.5" fill="#d1d1d1" fill-rule="evenodd" stroke="none"/>
    <path d="M34.95 -30.55 L35.15 -31.4 31.95 -25.0 32.55 -25.6 Q34.65 -27.7 34.95 -30.55 M44.75 -36.5 L42.7 -36.45 Q39.2 -32.3 40.75 -26.8 41.15 -25.35 40.4 -24.1 38.7 -21.2 35.2 -20.55 39.2 -24.45 37.15 -29.7 36.95 -24.4 32.25 -21.7 29.2 -19.9 25.6 -20.9 31.2 -24.6 31.45 -31.75 31.5 -33.6 32.55 -35.2 37.2 -42.05 43.4 -37.8 L44.75 -36.5" fill="#ffffff" fill-rule="evenodd" stroke="none"/>
  </g>
</svg>
