<?xml version="1.0" encoding="UTF-8" standalone="no"?>
<svg xmlns:ffdec="https://www.free-decompiler.com/flash" xmlns:xlink="http://www.w3.org/1999/xlink" ffdec:objectType="shape" height="54.1px" width="66.05px" xmlns="http://www.w3.org/2000/svg">
  <g transform="matrix(1.0, 0.0, 0.0, 1.0, 33.15, 27.05)">
    <path d="M-27.8 25.5 Q-28.85 25.45 -29.95 24.85 -32.1 23.65 -32.1 20.4 L-31.7 18.25 -31.35 16.05 -31.75 13.05 -32.15 10.05 Q-32.15 8.85 -31.4 7.9 L-29.95 6.05 -29.2 4.25 Q-28.65 2.8 -28.15 2.4 L-23.8 -1.2 Q-20.75 -3.25 -17.25 -3.4 -18.6 -4.05 -15.65 -7.3 -16.4 -7.7 -16.95 -8.9 -17.5 -10.15 -17.5 -11.3 -17.5 -15.9 -14.45 -19.95 -11.3 -24.1 -7.55 -24.1 -6.15 -24.1 -5.65 -23.35 L-5.05 -22.1 -0.9 -24.6 Q1.4 -25.65 3.7 -25.65 4.2 -25.65 4.8 -25.2 5.4 -24.8 5.9 -24.8 6.4 -24.8 7.15 -25.4 7.9 -26.05 8.4 -26.05 8.9 -26.05 10.5 -25.0 12.05 -23.95 12.55 -23.95 12.7 -23.95 14.7 -25.1 17.05 -25.1 19.1 -23.3 21.95 -20.8 21.95 -16.15 21.95 -14.7 20.55 -11.4 20.55 -10.4 21.9 -10.2 L22.6 -8.25 22.95 -6.2 Q22.95 -3.85 22.35 -1.7 21.65 0.7 20.5 1.45 20.95 1.75 21.9 3.65 L24.1 5.3 Q26.1 6.65 26.45 6.7 L27.4 6.6 28.25 6.55 Q30.8 7.25 31.6 13.2 32.0 16.2 31.85 19.15 31.1 24.5 29.35 24.5 28.05 25.45 26.4 25.7 L-25.4 25.7 Q-27.8 26.5 -27.8 25.5" fill="#ffffff" fill-rule="evenodd" stroke="none"/>
    <path d="M-27.8 25.5 Q-27.8 26.5 -25.4 25.7 L26.4 25.7 Q28.05 25.45 29.35 24.5 31.1 24.5 31.85 19.15 32.0 16.2 31.6 13.2 30.8 7.25 28.25 6.55 L27.4 6.6 26.45 6.7 Q26.1 6.65 24.1 5.3 L21.9 3.65 Q20.95 1.75 20.5 1.45 21.65 0.7 22.35 -1.7 22.95 -3.85 22.95 -6.2 L22.6 -8.25 21.9 -10.2 Q20.55 -10.4 20.55 -11.4 21.95 -14.7 21.95 -16.15 21.95 -20.8 19.1 -23.3 17.05 -25.1 14.7 -25.1 12.7 -23.95 12.55 -23.95 12.05 -23.95 10.5 -25.0 8.9 -26.05 8.4 -26.05 7.9 -26.05 7.15 -25.4 6.4 -24.8 5.9 -24.8 5.4 -24.8 4.8 -25.2 4.2 -25.65 3.7 -25.65 1.4 -25.65 -0.9 -24.6 L-5.05 -22.1 -5.65 -23.35 Q-6.15 -24.1 -7.55 -24.1 -11.3 -24.1 -14.45 -19.95 -17.5 -15.9 -17.5 -11.3 -17.5 -10.15 -16.95 -8.9 -16.4 -7.7 -15.65 -7.3 -18.6 -4.05 -17.25 -3.4 -20.75 -3.25 -23.8 -1.2 L-28.15 2.4 Q-28.65 2.8 -29.2 4.25 L-29.95 6.05 -31.4 7.9 Q-32.15 8.85 -32.15 10.05 L-31.75 13.05 -31.35 16.05 -31.7 18.25 -32.1 20.4 Q-32.1 23.65 -29.95 24.85 -28.85 25.45 -27.8 25.5 M-27.25 27.05 Q-28.25 26.95 -28.6 26.4 L-30.4 25.75 Q-33.1 24.3 -33.1 20.4 L-32.65 18.05 -32.35 16.05 -32.7 13.2 -33.15 10.05 Q-33.15 8.5 -32.15 7.3 L-30.85 5.6 -30.1 3.9 Q-29.45 2.1 -28.75 1.65 L-24.35 -2.0 Q-21.7 -3.85 -18.7 -4.25 L-18.45 -5.05 -17.05 -7.2 -17.85 -8.45 -17.85 -8.5 Q-18.5 -9.95 -18.5 -11.3 -18.5 -16.2 -15.25 -20.55 -11.75 -25.15 -7.55 -25.1 -5.5 -25.1 -4.8 -23.9 L-4.6 -23.55 -1.3 -25.5 Q1.2 -26.65 3.7 -26.65 4.5 -26.7 5.4 -26.0 L5.9 -25.8 6.5 -26.15 6.55 -26.15 Q7.65 -27.1 8.4 -27.05 9.05 -27.15 11.05 -25.8 L12.55 -24.95 14.2 -25.95 14.7 -26.1 Q17.4 -26.1 19.75 -24.05 22.95 -21.3 22.95 -16.15 23.0 -14.65 21.65 -11.3 L22.05 -11.2 22.5 -11.0 22.8 -10.65 23.6 -8.5 23.95 -6.2 Q23.95 -3.7 23.35 -1.4 L23.3 -1.4 Q22.75 0.55 21.9 1.55 L22.75 3.05 24.7 4.5 24.65 4.5 26.6 5.7 26.65 5.75 27.2 5.65 27.25 5.65 28.45 5.6 28.55 5.6 Q31.7 6.25 32.6 13.1 33.0 16.15 32.85 19.2 L32.85 19.3 Q32.0 25.35 29.65 25.5 28.25 26.45 26.55 26.7 L26.4 26.7 -25.2 26.7 -27.25 27.05" fill="#c6c6c6" fill-rule="evenodd" stroke="none"/>
    <path d="M17.4 -19.05 L17.4 -19.2 Q16.3 -21.35 15.7 -21.75 L16.05 -20.65 Q16.25 -19.2 15.6 -17.85 15.05 -16.65 14.15 -16.05 L15.15 -14.2 15.35 -13.1 15.6 -12.15 Q16.65 -12.45 17.4 -13.5 18.25 -14.55 18.25 -15.7 L18.1 -17.05 17.4 -19.05 M18.95 -15.7 Q18.95 -14.3 18.0 -13.05 17.1 -11.7 15.75 -11.55 L15.9 -10.5 15.8 -9.95 15.75 -9.45 16.1 -8.95 17.35 -8.7 17.9 -8.9 18.35 -9.0 Q19.1 -9.0 19.5 -8.3 19.95 -7.55 19.95 -5.8 L19.25 -2.0 Q19.25 -1.1 18.55 -0.6 17.7 -0.05 16.0 -0.05 L15.7 0.6 Q17.15 1.3 17.65 2.05 18.0 2.65 17.85 3.25 L21.05 5.5 20.65 6.4 24.35 9.0 25.6 9.55 26.2 9.7 26.5 9.45 27.55 9.45 28.5 11.2 28.5 14.9 27.7 14.9 27.7 15.35 28.55 17.05 28.8 19.05 Q28.8 20.85 27.9 21.85 27.15 22.7 26.2 22.7 25.5 22.7 24.95 22.3 L24.2 21.95 24.0 22.05 23.8 22.6 22.7 22.6 22.45 22.2 22.45 22.6 16.55 22.6 16.1 21.85 15.7 21.05 14.4 22.35 13.25 22.7 Q12.15 22.7 11.35 22.1 L10.15 20.75 10.15 22.6 3.9 22.6 3.8 22.4 3.8 22.6 0.35 22.6 0.0 21.95 0.0 22.6 -3.4 22.6 -4.35 20.95 -4.6 20.95 -4.6 22.6 -8.45 22.6 -9.35 20.85 -10.8 20.85 -10.7 21.05 -10.7 22.6 -14.6 22.6 -15.05 21.85 -15.45 20.95 -16.05 21.4 -16.45 22.1 Q-17.0 22.7 -18.3 22.7 -19.55 22.7 -20.45 21.45 -21.15 20.5 -21.35 19.4 -21.35 20.95 -22.0 21.75 -22.55 22.55 -23.6 22.6 L-28.35 22.6 -28.8 21.5 -29.2 20.3 -29.1 19.6 -29.0 19.6 Q-28.65 19.8 -28.4 19.05 L-28.35 15.25 -28.35 11.6 -28.5 11.4 -28.65 11.25 -29.2 11.1 -29.2 9.5 Q-28.95 9.5 -28.7 9.15 L-28.3 8.5 -27.65 7.5 -26.75 6.6 -25.85 5.75 -26.5 4.9 -24.75 3.65 -22.1 2.05 -22.75 1.4 Q-22.15 0.95 -20.75 0.4 L-17.9 -0.5 -18.3 -1.35 -16.85 -2.2 Q-15.5 -3.0 -14.4 -3.4 L-14.5 -4.55 -11.4 -5.45 -9.55 -7.95 Q-11.0 -7.75 -12.8 -8.75 -14.75 -9.85 -14.75 -11.25 -14.75 -14.75 -12.3 -17.9 L-10.05 -20.1 Q-8.9 -20.95 -7.9 -21.15 -9.55 -18.95 -9.55 -16.15 L-9.45 -15.0 -9.1 -13.9 -8.9 -13.75 -8.5 -13.55 -8.1 -14.4 -8.5 -14.55 -7.65 -15.9 -6.1 -17.45 -6.65 -18.1 -4.25 -19.8 Q-2.9 -20.4 -0.5 -20.65 L-1.1 -21.2 Q0.05 -21.95 1.5 -22.3 L3.8 -22.65 6.15 -22.2 8.3 -21.55 8.2 -22.3 8.3 -23.05 Q10.05 -22.55 11.9 -20.4 13.7 -18.3 14.0 -16.4 L15.2 -17.95 Q15.6 -18.6 15.6 -19.55 L15.4 -20.85 14.9 -22.1 15.35 -22.15 Q16.4 -22.15 17.6 -20.3 18.95 -18.15 18.95 -15.7 M13.65 -10.7 Q14.5 -11.25 14.8 -11.75 L15.1 -12.75 15.05 -13.2 14.95 -13.55 Q14.4 -13.5 14.4 -13.15 L14.15 -12.45 13.95 -12.4 13.35 -12.0 Q13.2 -12.2 13.4 -13.35 L13.6 -14.7 Q13.6 -16.6 12.9 -18.15 12.15 -19.75 10.55 -21.15 L10.1 -21.4 9.1 -22.0 9.2 -20.65 9.15 -20.25 8.95 -19.85 Q8.3 -20.1 7.5 -21.3 L3.7 -22.0 Q2.15 -22.0 -0.1 -21.2 L0.45 -20.3 Q0.35 -20.1 -0.2 -20.0 L-1.35 -19.9 -2.95 -19.55 -4.45 -18.85 -5.9 -18.05 -5.3 -17.25 Q-5.5 -17.0 -5.75 -17.1 L-7.05 -15.9 -7.85 -14.85 -7.45 -14.6 -8.0 -13.4 -6.2 -12.85 -5.5 -12.7 -5.3 -12.35 -4.95 -11.45 -4.75 -10.4 Q-4.75 -9.75 -5.15 -8.85 L-6.0 -7.15 -6.2 -6.8 -5.65 -7.15 -5.45 -7.05 Q-7.15 -5.35 -8.0 -3.8 L-9.2 -0.4 Q-8.35 -0.45 -7.5 -1.15 L-6.6 -1.85 -6.45 -1.85 -7.25 -0.65 Q-7.8 0.25 -7.8 1.8 L-7.45 3.95 -7.0 5.45 -5.6 3.55 -5.5 3.65 -5.45 3.95 Q-5.45 4.55 -6.0 5.0 L-4.2 7.9 -3.25 6.4 -4.3 5.1 -4.15 4.75 -0.35 8.55 0.1 7.0 -0.6 6.25 -1.15 4.95 1.55 7.3 3.05 7.9 3.7 6.25 4.65 5.1 4.85 5.0 4.95 5.25 4.45 6.2 Q5.5 6.8 6.55 8.35 7.55 9.85 8.0 11.3 L8.0 11.4 8.55 12.4 10.1 10.4 11.25 7.6 11.55 6.3 11.9 6.9 12.0 7.5 11.8 8.5 11.45 9.45 12.45 10.2 13.1 9.0 13.25 7.7 Q13.25 6.7 12.7 5.9 L11.55 4.9 11.45 5.1 11.35 5.35 10.75 4.75 8.6 5.2 8.4 5.1 8.4 4.9 9.2 4.5 10.7 4.15 12.2 4.3 14.45 4.75 Q15.45 4.75 16.35 4.3 17.3 3.8 17.45 3.1 L17.4 2.95 17.25 2.9 15.2 2.75 14.0 2.7 Q9.45 2.7 6.95 3.65 8.75 2.75 11.15 2.3 L15.15 2.05 14.9 0.95 13.35 0.85 13.25 0.6 14.05 0.4 14.95 0.05 15.15 -0.1 12.25 0.15 8.5 -0.2 Q7.05 -0.55 5.4 -1.4 L2.7 -3.0 1.15 -3.45 -0.15 -3.0 0.25 -0.75 1.05 -0.35 2.4 0.0 2.7 -1.1 3.25 -1.75 4.95 0.05 5.55 0.6 8.3 0.6 8.4 0.75 Q7.75 1.15 6.85 1.15 L4.8 1.05 3.25 -1.15 2.35 1.75 2.25 1.8 1.95 2.1 1.65 1.65 2.05 0.75 0.35 0.35 -0.8 1.4 Q1.55 4.05 4.45 4.05 L6.35 3.8 4.8 4.25 3.6 4.45 Q1.8 4.45 0.2 3.1 -1.7 1.6 -1.7 -0.75 L-1.45 -1.95 -0.9 -3.15 Q0.55 -4.0 1.65 -4.0 2.75 -4.0 3.9 -3.4 L5.95 -2.0 Q6.35 -1.65 9.25 -1.25 L15.45 -1.0 16.95 -1.25 17.95 -1.85 Q18.7 -2.65 19.3 -5.9 19.35 -6.65 19.0 -7.5 18.65 -8.35 18.3 -8.35 L17.9 -8.2 17.55 -7.75 16.6 -8.25 16.05 -8.45 11.9 -8.55 11.35 -8.95 10.85 -9.15 Q10.0 -9.15 8.7 -8.55 7.15 -7.8 7.15 -7.0 L7.25 -6.45 7.35 -5.85 7.2 -5.15 6.9 -4.0 6.6 -3.9 6.3 -4.85 Q6.95 -7.35 7.75 -8.4 8.75 -9.6 10.8 -9.6 L11.4 -9.5 12.15 -9.05 13.05 -9.05 12.95 -9.3 13.65 -10.7 M7.85 -9.5 L7.95 -9.35 7.15 -8.75 6.4 -8.6 5.9 -8.65 5.4 -8.7 4.95 -8.4 4.3 -7.95 3.15 -7.5 2.4 -7.25 1.3 -7.15 -0.35 -7.35 Q-1.15 -7.65 -2.5 -8.6 -3.25 -9.15 -3.6 -9.85 L-4.6 -12.3 -4.3 -14.1 -2.75 -15.8 -2.0 -16.15 -1.8 -16.0 -1.4 -14.9 0.8 -15.6 1.8 -13.9 2.9 -14.2 3.8 -12.6 Q3.9 -12.05 3.65 -12.0 L3.2 -12.55 Q2.8 -13.1 2.7 -13.7 L1.9 -13.35 Q1.1 -13.35 0.75 -15.1 L-1.45 -14.4 -1.75 -14.6 Q-2.0 -14.9 -2.05 -15.75 L-3.5 -14.45 -3.9 -13.35 Q-3.9 -12.6 -3.45 -12.0 -3.05 -11.45 -2.5 -11.45 L-2.15 -11.55 -1.75 -11.65 0.65 -11.5 2.75 -11.1 5.35 -9.85 6.5 -9.3 7.3 -9.4 7.85 -9.5 M5.55 -10.85 L6.4 -10.15 5.6 -10.3 Q5.1 -10.5 4.95 -10.85 L4.95 -11.05 5.55 -10.85 M18.3 -7.5 L18.85 -7.05 19.1 -6.0 18.75 -5.55 18.05 -6.25 17.85 -6.8 Q17.85 -7.15 18.0 -7.3 L18.3 -7.5 M9.05 -6.8 L9.9 -7.35 Q10.65 -7.1 10.65 -6.15 10.65 -5.6 9.9 -5.3 L9.15 -5.05 Q8.65 -5.05 8.3 -5.3 L9.05 -6.8 M3.6 -9.4 Q3.75 -10.3 2.25 -10.85 L0.45 -11.25 -1.25 -11.1 Q-1.45 -10.95 -1.45 -9.85 -1.45 -9.05 -0.9 -8.6 -0.4 -8.25 0.35 -8.25 L1.7 -8.4 3.05 -8.65 Q3.4 -8.75 3.6 -9.4 M15.15 -11.65 L14.25 -10.5 15.05 -9.5 15.25 -10.3 Q15.4 -11.15 15.15 -11.65 M26.25 10.05 L25.15 9.85 23.6 9.9 Q22.9 10.25 22.5 11.05 22.1 11.85 22.1 12.7 L22.3 14.4 Q22.5 15.2 23.2 15.65 L25.45 17.2 Q26.0 17.65 26.0 18.3 L25.75 19.2 Q25.45 19.6 25.05 19.6 24.25 19.6 23.65 19.1 22.9 18.45 22.7 17.05 L22.0 17.05 22.0 20.8 22.7 20.8 22.95 20.3 23.15 20.15 24.1 20.5 25.1 20.9 Q25.85 20.9 26.4 20.5 27.6 19.7 27.6 17.45 27.6 16.0 26.95 15.1 L25.6 14.1 24.2 13.5 Q23.6 13.05 23.6 12.2 23.6 11.35 24.05 11.0 L24.7 10.75 Q25.55 10.75 26.2 11.85 L26.65 13.1 27.3 13.1 27.3 9.85 26.65 9.85 26.45 10.0 26.25 10.05 M15.95 10.8 Q16.45 10.85 16.6 11.05 L16.65 11.3 16.8 15.3 16.7 19.3 16.5 19.65 15.95 19.85 15.95 20.8 21.2 20.8 21.2 16.85 20.35 16.85 20.35 17.7 Q20.35 19.7 19.2 19.7 18.7 19.7 18.55 19.4 18.3 19.15 18.3 18.5 L18.3 15.6 19.6 15.6 19.6 14.4 18.3 14.4 18.3 12.1 Q18.2 10.9 19.2 10.9 19.75 10.9 20.1 11.55 20.45 12.3 20.35 13.6 L21.2 13.6 21.2 9.85 15.95 9.85 15.95 10.8 M11.95 10.6 L11.45 10.25 11.2 10.05 10.9 10.4 10.7 10.85 10.55 11.1 10.2 11.7 9.9 12.05 9.7 12.5 Q9.55 13.15 9.55 16.95 9.55 18.7 10.35 19.8 11.1 20.9 12.35 20.9 14.4 20.9 14.95 18.4 L15.15 15.2 Q15.15 12.25 14.7 11.35 L14.15 10.65 13.35 9.95 13.25 10.2 12.9 10.6 12.65 10.85 12.95 11.15 13.25 11.6 13.35 15.1 13.3 16.9 13.25 18.8 12.95 19.45 12.75 19.7 12.35 19.8 Q11.75 19.8 11.6 19.05 11.45 18.25 11.45 15.1 L11.45 11.8 11.7 11.25 11.9 11.05 Q12.1 10.85 12.25 10.85 L11.95 10.6 M5.65 15.1 L5.75 11.15 6.0 11.0 Q6.3 11.0 6.5 10.8 L6.5 9.85 3.3 9.85 3.3 10.8 3.85 10.95 3.95 11.05 4.1 11.5 4.15 15.3 4.15 18.85 4.05 19.4 3.95 19.65 3.3 19.85 3.3 20.8 8.95 20.8 8.95 17.25 8.1 17.25 Q8.3 18.6 7.85 19.1 7.5 19.45 6.85 19.45 6.05 19.45 5.9 19.05 L5.7 18.55 5.65 15.1 M-0.05 9.85 L-1.3 9.85 -3.05 18.05 -3.35 19.1 -3.6 19.5 -4.1 19.85 -4.1 20.8 -1.25 20.8 -1.25 19.85 Q-1.95 19.9 -1.95 18.5 L-1.8 17.25 -0.05 17.25 0.05 18.8 -0.1 19.4 Q-0.25 19.85 -0.7 19.85 L-0.7 20.8 2.6 20.8 2.6 19.85 2.05 19.5 1.9 19.1 1.65 18.4 -0.05 9.85 M-10.15 -17.8 L-9.8 -18.8 -8.8 -20.55 -10.35 -19.45 Q-13.9 -16.0 -13.9 -11.65 L-13.7 -9.95 Q-13.45 -9.45 -12.7 -9.2 L-10.3 -8.55 -8.9 -8.4 Q-6.55 -8.4 -5.9 -8.95 -5.45 -9.35 -5.45 -10.65 -5.45 -11.7 -6.15 -12.3 -6.8 -12.95 -8.05 -13.1 L-8.65 -13.2 -9.4 -13.45 Q-10.35 -14.1 -10.35 -16.15 L-10.3 -16.85 -10.15 -17.8 M-9.45 -5.55 L-14.0 -2.3 -13.05 -2.25 Q-11.15 -2.25 -9.65 -3.1 -9.25 -3.3 -8.75 -4.35 L-7.9 -5.85 -8.45 -5.35 -9.3 -4.8 -9.4 -5.05 -9.45 -5.55 M-9.65 4.4 L-9.65 4.9 -9.1 4.9 -9.1 6.35 -8.45 6.35 -8.45 4.9 -7.9 4.9 -7.9 4.4 -9.65 4.4 M-7.7 7.75 Q-8.2 7.7 -8.55 7.35 L-8.8 6.95 -9.1 7.7 -9.9 7.75 -9.35 8.25 -9.45 9.05 -8.8 8.7 -8.1 9.05 -8.25 8.25 -7.7 7.75 M-6.7 14.4 L-6.55 11.5 Q-6.4 10.9 -5.85 10.9 -5.25 10.9 -4.85 11.45 -4.2 12.2 -4.4 13.6 L-3.4 13.6 -3.4 9.85 -9.1 9.85 -9.1 10.8 Q-8.45 10.85 -8.4 11.15 L-8.2 11.55 -8.2 15.3 -8.3 19.3 -8.5 19.65 -9.1 19.85 -9.1 20.8 -5.7 20.8 -5.7 19.85 -6.55 19.3 -6.7 18.35 -6.7 15.6 -5.4 15.6 -5.4 14.4 -6.7 14.4 M-19.9 4.4 L-20.55 4.4 -21.25 6.35 -20.65 6.35 -20.5 6.2 -20.25 6.0 -19.85 6.2 -19.15 6.35 -19.9 4.4 M-18.85 7.6 L-18.55 7.85 -18.0 7.8 -18.35 7.3 -18.9 7.15 Q-19.85 7.15 -19.85 8.15 L-19.7 8.75 Q-19.45 9.15 -18.85 9.15 L-18.25 9.0 Q-18.05 8.85 -18.0 8.5 -18.3 8.35 -18.5 8.35 L-18.65 8.55 -18.9 8.7 Q-19.25 8.7 -19.25 8.15 L-19.1 7.7 -18.85 7.6 M-17.65 7.2 L-17.65 9.15 -17.1 9.15 -17.1 7.2 -17.65 7.2 M-14.95 7.7 L-14.95 7.2 -16.75 7.2 -16.75 7.7 -16.15 7.7 -16.15 9.15 -15.55 9.15 -15.55 7.7 -14.95 7.7 M-16.3 4.4 L-16.85 4.4 -16.85 6.35 -15.35 6.35 -15.35 5.85 -16.3 5.85 -16.3 4.4 M-20.0 5.6 L-20.25 5.25 -20.25 4.9 -20.0 5.6 M-17.2 4.95 Q-17.2 4.65 -17.5 4.5 L-19.0 4.4 -19.0 6.35 -18.35 6.35 -18.35 5.55 -18.0 6.0 Q-17.85 6.45 -17.1 6.35 L-17.45 5.65 -17.7 5.5 -17.35 5.35 -17.2 4.95 M-18.35 4.8 L-17.85 4.8 -17.85 5.15 -18.35 5.15 -18.35 4.8 M-15.05 4.4 L-15.05 6.35 -14.5 6.35 -14.5 4.4 -15.05 4.4 M-13.05 4.35 Q-13.55 4.35 -13.85 4.65 L-14.1 5.35 -13.85 6.05 -13.1 6.35 -12.7 6.25 -12.15 6.05 -12.15 5.2 -13.05 5.2 -13.05 5.65 -12.7 5.75 -12.7 5.8 -12.8 5.9 -13.1 5.95 Q-13.5 5.95 -13.5 5.35 -13.5 4.8 -13.1 4.8 L-12.75 5.0 -12.15 4.9 -12.25 4.75 -12.7 4.45 -13.05 4.35 M-9.95 4.4 L-10.55 4.4 -10.55 5.1 -11.2 5.1 -11.2 4.4 -11.8 4.4 -11.8 6.35 -11.2 6.35 -11.2 5.55 -10.55 5.55 -10.55 6.35 -9.95 6.35 -9.95 4.4 M-22.25 10.8 Q-21.7 10.9 -21.5 11.25 L-21.45 12.3 -21.35 18.05 -21.2 18.95 Q-21.0 19.85 -20.5 20.35 -19.95 20.9 -18.9 20.9 -17.9 20.9 -17.4 20.45 -17.0 20.05 -16.8 19.05 -16.65 18.25 -16.65 16.75 L-16.6 11.8 -16.55 11.35 -16.5 11.15 -16.3 10.95 -15.75 10.8 -15.75 9.85 -18.35 9.85 -18.35 10.8 -17.8 11.0 Q-17.6 11.05 -17.55 11.25 L-17.45 14.8 Q-17.45 17.9 -17.65 18.7 -17.85 19.8 -18.65 19.8 L-19.3 19.65 -19.7 19.0 Q-19.9 18.05 -19.9 14.15 L-19.8 11.25 -19.55 11.0 -19.05 10.8 -19.05 9.85 -22.25 9.85 -22.25 10.8 M-15.2 10.8 Q-14.7 10.85 -14.55 11.0 L-14.5 11.2 -14.4 11.5 -14.35 15.3 -14.45 19.3 -14.65 19.65 -15.2 19.85 -15.2 20.8 -11.85 20.8 -11.85 19.85 -12.7 19.3 -12.8 18.35 -12.8 15.6 -11.5 15.6 -11.5 14.4 -12.8 14.4 -12.8 12.1 Q-12.9 11.45 -12.6 11.15 L-11.95 10.9 Q-11.4 10.9 -10.95 11.45 -10.35 12.2 -10.55 13.6 L-9.55 13.6 -9.55 9.85 -15.2 9.85 -15.2 10.8 M-10.3 7.75 L-11.05 7.7 -11.4 6.95 -11.7 7.7 -12.5 7.75 -11.9 8.25 -12.05 9.05 -11.4 8.7 -10.7 9.05 -10.85 8.25 -10.3 7.75 M-13.85 7.85 L-14.2 7.2 -14.9 7.2 -14.15 8.3 -14.15 9.15 -13.55 9.15 -13.55 8.3 -12.8 7.2 -13.45 7.2 -13.85 7.85 M-0.9 13.05 L-0.65 14.35 -0.4 15.7 -1.45 15.7 -0.9 13.05 M-21.15 4.9 L-21.15 4.4 -22.95 4.4 -22.95 4.9 -22.4 4.9 -22.4 6.35 -21.75 6.35 -21.75 4.9 -21.15 4.9 M-23.2 4.8 Q-23.45 4.3 -24.15 4.35 -24.8 4.45 -24.8 4.95 L-24.35 5.55 -23.7 5.8 -23.95 6.0 -24.25 5.8 -24.3 5.65 -24.9 5.65 -24.85 5.85 -24.5 6.25 -23.95 6.35 -23.35 6.2 -23.15 5.7 Q-23.15 5.2 -23.6 5.05 L-24.3 4.9 -24.05 4.75 -23.85 4.9 -23.75 5.0 -23.2 4.95 -23.2 4.8 M-22.65 12.75 Q-22.65 10.0 -25.2 9.85 L-28.95 9.85 -28.95 10.8 Q-28.35 10.85 -28.25 11.15 L-28.1 11.55 -28.1 15.3 -28.2 19.3 -28.4 19.65 -28.95 19.85 -28.95 20.8 -24.8 20.8 Q-23.65 20.65 -23.15 19.9 -22.6 19.1 -22.6 17.5 L-22.65 16.9 -22.8 16.2 -23.15 15.5 -23.4 15.1 -22.95 14.3 Q-22.65 13.55 -22.65 12.75 M-26.55 12.4 L-26.4 11.3 Q-26.3 11.05 -25.65 11.05 -24.95 11.05 -24.7 11.35 -24.25 11.75 -24.25 12.85 -24.25 13.9 -24.8 14.25 L-25.35 14.45 -26.55 14.45 -26.55 12.4 M-24.4 7.7 Q-24.85 7.7 -24.75 8.0 L-24.6 8.25 -24.75 9.05 -24.05 8.7 -23.4 9.05 -23.5 8.25 -22.95 7.75 -23.7 7.7 -24.05 6.95 -24.4 7.7 M-21.8 7.7 L-22.55 7.75 -22.0 8.25 -22.15 9.05 -21.45 8.7 -20.8 9.05 -20.9 8.25 -20.35 7.75 -21.15 7.7 -21.45 6.95 -21.8 7.7 M-26.55 15.6 Q-25.3 15.35 -24.7 16.0 -24.25 16.5 -24.25 17.45 -24.25 18.4 -24.5 18.95 -24.85 19.6 -25.75 19.6 L-26.2 19.55 -26.45 19.2 -26.55 15.6" fill="#3a0707" fill-rule="evenodd" stroke="none"/>
    <path d="M16.05 -20.65 L15.7 -21.75 Q16.3 -21.35 17.4 -19.2 L17.4 -19.05 17.55 -18.55 17.65 -17.7 17.2 -16.15 Q16.85 -15.35 16.2 -14.85 L16.75 -16.15 17.1 -17.55 Q17.1 -19.35 16.05 -20.65 M6.35 3.8 L4.45 4.05 Q1.55 4.05 -0.8 1.4 L0.35 0.35 2.05 0.75 1.65 1.65 1.95 2.1 2.25 1.8 2.35 1.75 3.25 -1.15 4.8 1.05 6.85 1.15 Q7.75 1.15 8.4 0.75 L8.3 0.6 5.55 0.6 4.95 0.05 3.25 -1.75 2.7 -1.1 2.4 0.0 1.05 -0.35 0.25 -0.75 -0.15 -3.0 1.15 -3.45 2.7 -3.0 5.4 -1.4 Q7.05 -0.55 8.5 -0.2 L12.25 0.15 15.15 -0.1 14.95 0.05 14.05 0.4 13.25 0.6 13.35 0.85 14.9 0.95 15.15 2.05 11.15 2.3 Q8.75 2.75 6.95 3.65 L6.5 3.75 6.35 3.8 M2.6 -9.4 L2.35 -9.95 Q2.15 -10.2 1.8 -10.2 L1.25 -9.95 Q1.0 -9.75 1.0 -9.4 1.0 -9.05 1.25 -8.85 1.45 -8.6 1.8 -8.6 2.15 -8.6 2.35 -8.85 L2.6 -9.4 M3.6 -9.4 Q3.4 -8.75 3.05 -8.65 L1.7 -8.4 0.35 -8.25 Q-0.4 -8.25 -0.9 -8.6 -1.45 -9.05 -1.45 -9.85 -1.45 -10.95 -1.25 -11.1 L0.45 -11.25 2.25 -10.85 Q3.75 -10.3 3.6 -9.4 M15.15 -11.65 Q15.4 -11.15 15.25 -10.3 L15.05 -9.5 14.25 -10.5 15.15 -11.65 M24.7 15.1 L26.5 15.1 25.55 14.55 24.0 13.7 23.55 13.2 23.35 12.15 Q23.35 11.15 23.9 10.7 L24.7 10.5 Q25.45 10.5 26.05 11.2 26.65 11.9 26.8 12.8 L27.05 12.8 27.05 10.1 26.7 10.1 26.3 10.4 25.15 10.05 23.9 10.1 Q22.35 10.95 22.35 12.7 L22.45 13.8 Q22.65 14.75 23.15 15.1 L24.85 15.15 24.7 15.1 23.55 14.55 Q22.65 13.95 22.65 13.65 L22.7 12.95 22.95 11.5 23.1 12.65 23.5 13.35 23.75 14.25 24.45 14.9 24.7 15.1 M26.25 10.05 L26.45 10.0 26.65 9.85 27.3 9.85 27.3 13.1 26.65 13.1 26.2 11.85 Q25.55 10.75 24.7 10.75 L24.05 11.0 Q23.6 11.35 23.6 12.2 23.6 13.05 24.2 13.5 L25.6 14.1 26.95 15.1 Q27.6 16.0 27.6 17.45 27.6 19.7 26.4 20.5 25.85 20.9 25.1 20.9 L24.1 20.5 23.15 20.15 22.95 20.3 22.7 20.8 22.0 20.8 22.0 17.05 22.7 17.05 Q22.9 18.45 23.65 19.1 24.25 19.6 25.05 19.6 25.45 19.6 25.75 19.2 L26.0 18.3 Q26.0 17.65 25.45 17.2 L23.2 15.65 Q22.5 15.2 22.3 14.4 L22.1 12.7 Q22.1 11.85 22.5 11.05 22.9 10.25 23.6 9.9 L25.15 9.85 26.25 10.05 M17.0 15.1 L17.1 15.05 17.25 15.0 17.5 15.0 17.25 14.3 17.1 13.85 17.3 12.9 17.55 11.5 17.8 12.9 18.0 13.85 17.85 14.2 17.7 14.55 17.55 15.0 17.55 15.1 17.95 15.2 18.5 15.1 19.0 15.1 19.4 15.1 19.4 14.7 18.05 14.7 18.05 12.1 Q18.05 11.35 18.4 10.95 18.7 10.6 19.2 10.6 19.9 10.6 20.25 11.3 20.65 11.95 20.6 13.3 L20.95 13.3 20.95 10.1 16.2 10.1 16.35 10.5 16.65 10.6 16.85 10.95 17.0 11.75 17.0 15.1 M15.95 10.8 L15.95 9.85 21.2 9.85 21.2 13.6 20.35 13.6 Q20.45 12.3 20.1 11.55 19.75 10.9 19.2 10.9 18.2 10.9 18.3 12.1 L18.3 14.4 19.6 14.4 19.6 15.6 18.3 15.6 18.3 18.5 Q18.3 19.15 18.55 19.4 18.7 19.7 19.2 19.7 20.35 19.7 20.35 17.7 L20.35 16.85 21.2 16.85 21.2 20.8 15.95 20.8 15.95 19.85 16.5 19.65 16.7 19.3 16.8 15.3 16.65 11.3 16.6 11.05 Q16.45 10.85 15.95 10.8 M11.95 10.6 L12.25 10.85 Q12.1 10.85 11.9 11.05 L11.7 11.25 11.45 11.8 11.45 15.1 Q11.45 18.25 11.6 19.05 11.75 19.8 12.35 19.8 L12.75 19.7 12.95 19.45 13.25 18.8 13.3 16.9 13.35 15.1 13.25 11.6 12.95 11.15 12.65 10.85 12.9 10.6 13.3 11.15 13.5 11.6 13.6 15.1 14.15 15.05 14.25 15.15 14.4 15.0 14.6 15.0 14.85 15.05 14.95 15.1 14.95 13.65 Q14.95 12.75 14.55 11.75 14.1 10.6 13.25 10.2 L13.35 9.95 14.15 10.65 14.7 11.35 Q15.15 12.25 15.15 15.2 L14.95 18.4 Q14.4 20.9 12.35 20.9 11.1 20.9 10.35 19.8 9.55 18.7 9.55 16.95 9.55 13.15 9.7 12.5 L9.9 12.05 10.2 11.7 9.9 12.65 Q9.75 13.4 9.85 15.1 L10.4 15.05 10.55 15.15 10.65 15.0 10.9 15.0 11.15 15.1 11.25 11.7 11.4 11.15 11.95 10.6 M10.7 10.85 L10.9 10.4 11.2 10.05 11.45 10.25 10.7 10.85 M14.4 12.7 L14.5 13.2 14.65 13.85 14.5 14.25 14.3 14.9 14.25 15.1 13.95 14.3 13.8 13.85 13.9 13.5 14.0 13.05 14.0 12.15 13.95 11.65 14.4 12.7 M4.4 15.05 L4.6 15.0 4.85 15.0 4.6 14.3 4.5 13.85 4.65 12.9 4.95 11.5 5.15 12.9 5.35 13.85 5.25 14.2 5.05 14.55 4.95 15.05 4.95 15.1 5.15 15.0 5.4 15.1 5.45 11.75 5.6 10.95 5.7 10.7 Q5.85 10.5 6.3 10.5 L6.3 10.1 3.5 10.1 3.5 10.5 4.1 10.7 4.25 11.1 4.4 12.05 4.4 15.05 M5.65 15.1 L5.7 18.55 5.9 19.05 Q6.05 19.45 6.85 19.45 7.5 19.45 7.85 19.1 8.3 18.6 8.1 17.25 L8.95 17.25 8.95 20.8 3.3 20.8 3.3 19.85 3.95 19.65 4.05 19.4 4.15 18.85 4.15 15.3 4.1 11.5 3.95 11.05 3.85 10.95 3.3 10.8 3.3 9.85 6.5 9.85 6.5 10.8 Q6.3 11.0 6.0 11.0 L5.75 11.15 5.65 15.1 M-1.1 10.1 L-2.15 15.1 -1.85 15.05 -1.6 15.1 -1.25 13.4 -0.85 11.6 -0.25 15.1 -0.25 15.05 -0.05 15.0 0.1 15.1 0.25 15.15 0.45 15.1 0.75 15.1 -0.25 10.1 -1.1 10.1 M0.4 13.85 L0.35 14.4 0.25 15.1 Q-0.35 14.2 -0.35 13.2 L-0.4 11.5 0.1 12.85 0.4 13.85 M-0.05 9.85 L1.65 18.4 1.9 19.1 2.05 19.5 2.6 19.85 2.6 20.8 -0.7 20.8 -0.7 19.85 Q-0.25 19.85 -0.1 19.4 L0.05 18.8 -0.05 17.25 -1.8 17.25 -1.95 18.5 Q-1.95 19.9 -1.25 19.85 L-1.25 20.8 -4.1 20.8 -4.1 19.85 -3.6 19.5 -3.35 19.1 -3.05 18.05 -1.3 9.85 -0.05 9.85 M10.8 11.5 L10.75 12.8 10.85 13.3 10.9 13.85 10.8 14.2 10.65 14.5 10.5 15.1 10.15 13.95 Q10.0 12.75 10.8 11.5 M-10.35 -19.45 L-8.8 -20.55 -9.8 -18.8 -10.15 -17.8 -11.0 -16.25 -11.45 -14.45 Q-10.25 -13.0 -9.0 -12.2 -8.0 -11.55 -6.3 -11.1 L-6.3 -10.85 Q-5.95 -10.35 -9.1 -11.3 -12.2 -12.2 -12.2 -12.8 -12.2 -14.8 -11.8 -16.25 -11.4 -18.0 -10.35 -19.45 M-8.0 15.1 L-7.95 15.05 -7.75 15.0 -7.55 15.1 -7.45 15.1 -5.6 15.1 -5.6 14.7 -6.95 14.7 -6.95 12.1 Q-7.0 11.3 -6.65 10.95 -6.4 10.6 -5.85 10.6 -4.95 10.6 -4.5 11.35 -4.05 12.05 -4.15 13.3 L-3.65 13.3 -3.65 10.1 -8.85 10.1 -8.85 10.5 Q-8.4 10.55 -8.25 10.7 L-8.1 11.1 -8.0 12.05 -8.0 15.1 M-6.7 14.4 L-5.4 14.4 -5.4 15.6 -6.7 15.6 -6.7 18.35 -6.55 19.3 -5.7 19.85 -5.7 20.8 -9.1 20.8 -9.1 19.85 -8.5 19.65 -8.3 19.3 -8.2 15.3 -8.2 11.55 -8.4 11.15 Q-8.45 10.85 -9.1 10.8 L-9.1 9.85 -3.4 9.85 -3.4 13.6 -4.4 13.6 Q-4.2 12.2 -4.85 11.45 -5.25 10.9 -5.85 10.9 -6.4 10.9 -6.55 11.5 L-6.7 14.4 M-7.45 11.5 L-7.2 12.85 -7.0 13.85 -7.15 14.2 -7.3 14.55 -7.5 15.1 Q-7.55 14.65 -7.75 14.3 L-7.9 13.85 -7.65 13.2 Q-7.35 12.4 -7.5 11.5 L-7.45 11.5 M-15.95 10.1 L-18.1 10.1 -18.1 10.5 Q-17.6 10.6 -17.45 11.05 L-17.25 12.3 -17.25 15.1 -16.85 15.1 -16.85 12.25 -16.75 11.1 -16.25 10.6 Q-15.85 10.5 -15.95 10.1 M-22.25 10.8 L-22.25 9.85 -19.05 9.85 -19.05 10.8 -19.55 11.0 -19.8 11.25 -19.9 14.15 Q-19.9 18.05 -19.7 19.0 L-19.3 19.65 -18.65 19.8 Q-17.85 19.8 -17.65 18.7 -17.45 17.9 -17.45 14.8 L-17.55 11.25 Q-17.6 11.05 -17.8 11.0 L-18.35 10.8 -18.35 9.85 -15.75 9.85 -15.75 10.8 -16.3 10.95 -16.5 11.15 -16.55 11.35 -16.6 11.8 -16.65 16.75 Q-16.65 18.25 -16.8 19.05 -17.0 20.05 -17.4 20.45 -17.9 20.9 -18.9 20.9 -19.95 20.9 -20.5 20.35 -21.0 19.85 -21.2 18.95 L-21.35 18.05 -21.45 12.3 -21.5 11.25 Q-21.7 10.9 -22.25 10.8 M-21.2 15.1 L-21.15 15.1 -21.0 15.0 -20.8 15.0 -20.7 15.15 -20.6 15.1 -20.15 15.1 -20.15 12.05 -20.0 11.1 -19.9 10.7 -19.3 10.5 -19.3 10.1 -22.05 10.1 -22.05 10.5 Q-21.6 10.55 -21.5 10.7 L-21.3 11.1 -21.25 12.05 -21.2 15.1 M-15.2 10.8 L-15.2 9.85 -9.55 9.85 -9.55 13.6 -10.55 13.6 Q-10.35 12.2 -10.95 11.45 -11.4 10.9 -11.95 10.9 L-12.6 11.15 Q-12.9 11.45 -12.8 12.1 L-12.8 14.4 -11.5 14.4 -11.5 15.6 -12.8 15.6 -12.8 18.35 -12.7 19.3 -11.85 19.85 -11.85 20.8 -15.2 20.8 -15.2 19.85 -14.65 19.65 -14.45 19.3 -14.35 15.3 -14.4 11.5 -14.5 11.2 -14.55 11.0 Q-14.7 10.85 -15.2 10.8 M-14.1 15.1 L-14.05 15.05 -13.85 15.0 Q-13.75 15.0 -13.7 15.1 L-13.55 15.1 -11.7 15.1 -11.7 14.7 -13.05 14.7 -13.05 12.1 Q-13.15 11.3 -12.8 10.95 -12.5 10.6 -11.95 10.6 -11.1 10.6 -10.65 11.35 -10.25 12.05 -10.3 13.3 L-9.8 13.3 -9.8 10.1 -14.95 10.1 -14.95 10.5 Q-14.5 10.55 -14.4 10.7 L-14.25 11.1 -14.15 12.05 -14.1 15.1 M-13.15 13.85 L-13.25 14.2 -13.45 14.55 -13.6 15.1 -13.9 14.3 -14.05 13.85 -13.85 13.2 Q-13.65 12.4 -13.6 11.5 L-13.35 12.9 -13.15 13.85 M-0.9 13.05 L-1.45 15.7 -0.4 15.7 -0.65 14.35 -0.9 13.05 M-22.65 12.75 Q-22.65 13.55 -22.95 14.3 L-23.4 15.1 -23.15 15.5 -22.8 16.2 -22.65 16.9 -22.6 17.5 Q-22.6 19.1 -23.15 19.9 -23.65 20.65 -24.8 20.8 L-28.95 20.8 -28.95 19.85 -28.4 19.65 -28.2 19.3 -28.1 15.3 -28.1 11.55 -28.25 11.15 Q-28.35 10.85 -28.95 10.8 L-28.95 9.85 -25.2 9.85 Q-22.65 10.0 -22.65 12.75 M-28.7 10.1 L-28.7 10.5 -28.1 10.7 -27.95 11.1 -27.85 12.15 -27.85 15.1 -27.8 15.05 -27.65 15.0 -27.45 15.1 -27.3 15.1 -24.35 15.15 -24.3 15.1 -24.05 15.1 -23.75 15.1 Q-23.4 15.1 -23.1 14.05 L-22.9 12.75 Q-22.9 11.2 -23.75 10.6 -25.05 9.7 -28.7 10.1 M-26.55 12.4 L-26.55 14.45 -25.35 14.45 -24.8 14.25 Q-24.25 13.9 -24.25 12.85 -24.25 11.75 -24.7 11.35 -24.95 11.05 -25.65 11.05 -26.3 11.05 -26.4 11.3 L-26.55 12.4 M-25.65 10.75 Q-24.6 10.75 -24.25 11.6 -24.0 12.1 -24.0 12.95 -24.0 13.95 -24.5 14.4 -24.8 14.65 -25.25 14.7 L-26.8 14.7 -26.8 12.4 -26.6 11.05 Q-26.4 10.75 -25.65 10.75 M-27.35 11.9 L-27.35 11.5 -27.1 12.9 -26.85 13.85 -27.05 14.2 -27.2 14.55 -27.3 14.9 -27.35 15.1 -27.6 14.45 -27.75 13.85 -27.6 13.2 -27.35 11.9 M-20.7 11.65 L-20.4 12.85 -20.25 13.85 -20.35 14.25 -20.6 14.9 -20.7 15.1 Q-20.75 14.6 -20.95 14.25 L-21.1 13.85 -20.85 13.15 Q-20.6 12.45 -20.7 11.65 M-23.65 11.5 L-23.4 12.65 -23.25 13.6 Q-23.25 14.2 -23.7 14.65 L-24.4 15.1 -23.8 13.75 Q-23.5 12.95 -23.65 11.5 M-26.55 15.6 L-26.45 19.2 -26.2 19.55 -25.75 19.6 Q-24.85 19.6 -24.5 18.95 -24.25 18.4 -24.25 17.45 -24.25 16.5 -24.7 16.0 -25.3 15.35 -26.55 15.6" fill="#ffffff" fill-rule="evenodd" stroke="none"/>
    <path d="M17.4 -19.05 L18.1 -17.05 18.25 -15.7 Q18.25 -14.55 17.4 -13.5 16.65 -12.45 15.6 -12.15 L15.35 -13.1 15.15 -14.2 14.15 -16.05 Q15.05 -16.65 15.6 -17.85 16.25 -19.2 16.05 -20.65 17.1 -19.35 17.1 -17.55 L16.75 -16.15 16.2 -14.85 Q16.85 -15.35 17.2 -16.15 L17.65 -17.7 17.55 -18.55 17.4 -19.05 M13.35 -12.0 L13.95 -12.4 14.15 -12.45 14.4 -13.15 Q14.4 -13.5 14.95 -13.55 L15.05 -13.2 15.1 -12.75 14.8 -11.75 Q14.5 -11.25 13.65 -10.7 L13.25 -10.7 12.85 -10.55 12.9 -11.1 13.35 -12.0 M6.6 -3.9 L6.9 -4.0 7.2 -5.15 7.35 -5.85 7.25 -6.45 7.15 -7.0 Q7.15 -7.8 8.7 -8.55 10.0 -9.15 10.85 -9.15 L11.35 -8.95 11.9 -8.55 16.05 -8.45 16.6 -8.25 17.55 -7.75 17.9 -8.2 18.3 -8.35 Q18.65 -8.35 19.0 -7.5 19.35 -6.65 19.3 -5.9 L19.05 -5.9 19.1 -6.0 18.85 -7.05 18.3 -7.5 18.2 -7.7 17.6 -7.2 17.0 -7.05 16.4 -7.15 11.35 -8.0 11.3 -8.05 11.2 -8.1 9.4 -7.7 8.1 -7.15 Q8.3 -6.6 7.75 -5.05 L6.9 -3.3 6.6 -3.9 M-0.9 -3.15 L-1.45 -1.95 -1.7 -0.75 Q-1.7 1.6 0.2 3.1 1.8 4.45 3.6 4.45 L4.8 4.25 6.35 3.8 6.5 3.75 6.95 3.65 Q9.45 2.7 14.0 2.7 L15.2 2.75 17.25 2.9 17.4 2.95 17.45 3.1 Q17.3 3.8 16.35 4.3 15.45 4.75 14.45 4.75 L12.2 4.3 11.1 4.0 10.7 4.15 9.2 4.5 8.4 4.9 4.95 5.25 4.85 5.0 4.65 5.1 2.1 4.9 Q0.6 4.45 -0.45 3.8 -1.3 3.2 -2.05 1.55 -2.8 -0.05 -2.8 -1.2 -2.8 -2.55 -1.95 -3.9 -0.95 -5.45 0.55 -5.45 L1.0 -5.45 1.8 -5.2 1.8 -4.85 1.2 -4.6 0.45 -4.4 Q-0.6 -4.05 -0.9 -3.15 M7.8 -9.85 L7.85 -9.5 7.3 -9.4 6.5 -9.3 5.35 -9.85 2.75 -11.1 0.65 -11.5 -1.75 -11.65 -2.15 -11.55 -2.5 -11.45 Q-3.05 -11.45 -3.45 -12.0 -3.9 -12.6 -3.9 -13.35 L-3.5 -14.45 -2.05 -15.75 Q-2.0 -14.9 -1.75 -14.6 L-1.45 -14.4 0.75 -15.1 Q1.1 -13.35 1.9 -13.35 L2.7 -13.7 Q2.8 -13.1 3.2 -12.55 L3.65 -12.0 Q3.9 -12.05 3.8 -12.6 L5.55 -10.85 4.95 -11.05 4.95 -10.85 Q5.1 -10.5 5.6 -10.3 L6.4 -10.15 7.8 -9.85 M24.7 15.1 L24.45 14.9 23.75 14.25 23.5 13.35 23.1 12.65 22.95 11.5 22.7 12.95 22.65 13.65 Q22.65 13.95 23.55 14.55 L24.7 15.1 24.85 15.15 23.15 15.1 Q22.65 14.75 22.45 13.8 L22.35 12.7 Q22.35 10.95 23.9 10.1 L25.15 10.05 26.3 10.4 26.7 10.1 27.05 10.1 27.05 12.8 26.8 12.8 Q26.65 11.9 26.05 11.2 25.45 10.5 24.7 10.5 L23.9 10.7 Q23.35 11.15 23.35 12.15 L23.55 13.2 24.0 13.7 25.55 14.55 26.5 15.1 24.7 15.1 M17.0 15.1 L17.0 11.75 16.85 10.95 16.65 10.6 16.35 10.5 16.2 10.1 20.95 10.1 20.95 13.3 20.6 13.3 Q20.65 11.95 20.25 11.3 19.9 10.6 19.2 10.6 18.7 10.6 18.4 10.95 18.05 11.35 18.05 12.1 L18.05 14.7 19.4 14.7 19.4 15.1 19.0 15.1 18.5 15.1 17.95 15.2 17.55 15.1 17.55 15.0 17.7 14.55 17.85 14.2 18.0 13.85 17.8 12.9 17.55 11.5 17.3 12.9 17.1 13.85 17.25 14.3 17.5 15.0 17.25 15.0 17.1 15.05 17.0 15.1 M11.45 10.25 L11.95 10.6 11.4 11.15 11.25 11.7 11.15 15.1 10.9 15.0 10.65 15.0 10.55 15.15 10.4 15.05 9.85 15.1 Q9.75 13.4 9.9 12.65 L10.2 11.7 10.55 11.1 10.7 10.85 11.45 10.25 M12.9 10.6 L13.25 10.2 Q14.1 10.6 14.55 11.75 14.95 12.75 14.95 13.65 L14.95 15.1 14.85 15.05 14.6 15.0 14.4 15.0 14.25 15.15 14.15 15.05 13.6 15.1 13.5 11.6 13.3 11.15 12.9 10.6 M14.4 12.7 L13.95 11.65 14.0 12.15 14.0 13.05 13.9 13.5 13.8 13.85 13.95 14.3 14.25 15.1 14.3 14.9 14.5 14.25 14.65 13.85 14.5 13.2 14.4 12.7 M4.4 15.05 L4.4 12.05 4.25 11.1 4.1 10.7 3.5 10.5 3.5 10.1 6.3 10.1 6.3 10.5 Q5.85 10.5 5.7 10.7 L5.6 10.95 5.45 11.75 5.4 15.1 5.15 15.0 4.95 15.1 4.95 15.05 5.05 14.55 5.25 14.2 5.35 13.85 5.15 12.9 4.95 11.5 4.65 12.9 4.5 13.85 4.6 14.3 4.85 15.0 4.6 15.0 4.4 15.05 M0.4 13.85 L0.1 12.85 -0.4 11.5 -0.35 13.2 Q-0.35 14.2 0.25 15.1 L0.35 14.4 0.4 13.85 M-1.1 10.1 L-0.25 10.1 0.75 15.1 0.45 15.1 0.25 15.15 0.1 15.1 -0.05 15.0 -0.25 15.05 -0.25 15.1 -0.85 11.6 -1.25 13.4 -1.6 15.1 -1.85 15.05 -2.15 15.1 -1.1 10.1 M10.8 11.5 Q10.0 12.75 10.15 13.95 L10.5 15.1 10.65 14.5 10.8 14.2 10.9 13.85 10.85 13.3 10.75 12.8 10.8 11.5 M-10.35 -19.45 Q-11.4 -18.0 -11.8 -16.25 -12.2 -14.8 -12.2 -12.8 -12.2 -12.2 -9.1 -11.3 -5.95 -10.35 -6.3 -10.85 L-6.3 -11.1 Q-8.0 -11.55 -9.0 -12.2 -10.25 -13.0 -11.45 -14.45 L-11.0 -16.25 -10.15 -17.8 -10.3 -16.85 -10.35 -16.15 Q-10.35 -14.1 -9.4 -13.45 L-8.65 -13.2 -8.05 -13.1 Q-6.8 -12.95 -6.15 -12.3 -5.45 -11.7 -5.45 -10.65 -5.45 -9.35 -5.9 -8.95 -6.55 -8.4 -8.9 -8.4 L-10.3 -8.55 -12.7 -9.2 Q-13.45 -9.45 -13.7 -9.95 L-13.9 -11.65 Q-13.9 -16.0 -10.35 -19.45 M-7.7 7.75 L-8.25 8.25 -8.1 9.05 -8.8 8.7 -9.45 9.05 -9.35 8.25 -9.9 7.75 -9.1 7.7 -8.8 6.95 -8.55 7.35 Q-8.2 7.7 -7.7 7.75 M-8.0 15.1 L-8.0 12.05 -8.1 11.1 -8.25 10.7 Q-8.4 10.55 -8.85 10.5 L-8.85 10.1 -3.65 10.1 -3.65 13.3 -4.15 13.3 Q-4.05 12.05 -4.5 11.35 -4.95 10.6 -5.85 10.6 -6.4 10.6 -6.65 10.95 -7.0 11.3 -6.95 12.1 L-6.95 14.7 -5.6 14.7 -5.6 15.1 -7.45 15.1 -7.55 15.1 -7.75 15.0 -7.95 15.05 -8.0 15.1 M-7.45 11.5 L-7.5 11.5 Q-7.35 12.4 -7.65 13.2 L-7.9 13.85 -7.75 14.3 Q-7.55 14.65 -7.5 15.1 L-7.3 14.55 -7.15 14.2 -7.0 13.85 -7.2 12.85 -7.45 11.5 M-15.95 10.1 Q-15.85 10.5 -16.25 10.6 L-16.75 11.1 -16.85 12.25 -16.85 15.1 -17.25 15.1 -17.25 12.3 -17.45 11.05 Q-17.6 10.6 -18.1 10.5 L-18.1 10.1 -15.95 10.1 M-21.2 15.1 L-21.25 12.05 -21.3 11.1 -21.5 10.7 Q-21.6 10.55 -22.05 10.5 L-22.05 10.1 -19.3 10.1 -19.3 10.5 -19.9 10.7 -20.0 11.1 -20.15 12.05 -20.15 15.1 -20.6 15.1 -20.7 15.15 -20.8 15.0 -21.0 15.0 -21.15 15.1 -21.2 15.1 M-10.3 7.75 L-10.85 8.25 -10.7 9.05 -11.4 8.7 -12.05 9.05 -11.9 8.25 -12.5 7.75 -11.7 7.7 -11.4 6.95 -11.05 7.7 -10.3 7.75 M-13.15 13.85 L-13.35 12.9 -13.6 11.5 Q-13.65 12.4 -13.85 13.2 L-14.05 13.85 -13.9 14.3 -13.6 15.1 -13.45 14.55 -13.25 14.2 -13.15 13.85 M-14.1 15.1 L-14.15 12.05 -14.25 11.1 -14.4 10.7 Q-14.5 10.55 -14.95 10.5 L-14.95 10.1 -9.8 10.1 -9.8 13.3 -10.3 13.3 Q-10.25 12.05 -10.65 11.35 -11.1 10.6 -11.95 10.6 -12.5 10.6 -12.8 10.95 -13.15 11.3 -13.05 12.1 L-13.05 14.7 -11.7 14.7 -11.7 15.1 -13.55 15.1 -13.7 15.1 Q-13.75 15.0 -13.85 15.0 L-14.05 15.05 -14.1 15.1 M-28.7 10.1 Q-25.05 9.7 -23.75 10.6 -22.9 11.2 -22.9 12.75 L-23.1 14.05 Q-23.4 15.1 -23.75 15.1 L-24.05 15.1 -24.3 15.1 -24.35 15.15 -27.3 15.1 -27.45 15.1 -27.65 15.0 -27.8 15.05 -27.85 15.1 -27.85 12.15 -27.95 11.1 -28.1 10.7 -28.7 10.5 -28.7 10.1 M-27.35 11.9 L-27.6 13.2 -27.75 13.85 -27.6 14.45 -27.35 15.1 -27.3 14.9 -27.2 14.55 -27.05 14.2 -26.85 13.85 -27.1 12.9 -27.35 11.5 -27.35 11.9 M-25.65 10.75 Q-26.4 10.75 -26.6 11.05 L-26.8 12.4 -26.8 14.7 -25.25 14.7 Q-24.8 14.65 -24.5 14.4 -24.0 13.95 -24.0 12.95 -24.0 12.1 -24.25 11.6 -24.6 10.75 -25.65 10.75 M-21.8 7.7 L-21.45 6.95 -21.15 7.7 -20.35 7.75 -20.9 8.25 -20.8 9.05 -21.45 8.7 -22.15 9.05 -22.0 8.25 -22.55 7.75 -21.8 7.7 M-24.4 7.7 L-24.05 6.95 -23.7 7.7 -22.95 7.75 -23.5 8.25 -23.4 9.05 -24.05 8.7 -24.75 9.05 -24.6 8.25 -24.75 8.0 Q-24.85 7.7 -24.4 7.7 M-23.65 11.5 Q-23.5 12.95 -23.8 13.75 L-24.4 15.1 -23.7 14.65 Q-23.25 14.2 -23.25 13.6 L-23.4 12.65 -23.65 11.5 M-20.7 11.65 Q-20.6 12.45 -20.85 13.15 L-21.1 13.85 -20.95 14.25 Q-20.75 14.6 -20.7 15.1 L-20.6 14.9 -20.35 14.25 -20.25 13.85 -20.4 12.85 -20.7 11.65" fill="#fb8604" fill-rule="evenodd" stroke="none"/>
    <path d="M13.35 -12.0 L12.9 -11.1 12.85 -10.55 13.25 -10.7 13.65 -10.7 12.95 -9.3 13.05 -9.05 12.15 -9.05 11.4 -9.5 10.8 -9.6 Q8.75 -9.6 7.75 -8.4 6.95 -7.35 6.3 -4.85 5.85 -5.8 4.85 -6.45 3.75 -7.1 2.6 -7.1 L0.0 -6.7 -0.8 -6.8 -1.8 -6.95 Q-2.4 -7.15 -3.05 -7.6 L-4.5 -7.8 -7.45 -3.0 -6.4 -3.95 Q-5.65 -4.55 -5.0 -4.55 L-4.5 -4.35 -4.35 -3.9 Q-5.3 -2.85 -5.95 -0.9 L-6.45 1.65 -6.2 2.05 -5.65 0.4 -4.85 -0.2 -4.4 0.0 -4.15 0.25 -4.3 1.1 -4.6 1.95 -4.85 2.5 -4.2 3.15 -3.8 3.35 -3.05 2.85 Q-1.7 4.0 0.65 5.1 2.6 6.0 3.7 6.25 L3.05 7.9 1.55 7.3 -1.15 4.95 -0.6 6.25 0.1 7.0 -0.35 8.55 -4.15 4.75 -4.3 5.1 -3.25 6.4 -4.2 7.9 -6.0 5.0 Q-5.45 4.55 -5.45 3.95 L-5.5 3.65 -5.6 3.55 -7.0 5.45 -7.45 3.95 -7.8 1.8 Q-7.8 0.25 -7.25 -0.65 L-6.45 -1.85 -6.6 -1.85 -7.5 -1.15 Q-8.35 -0.45 -9.2 -0.4 L-8.0 -3.8 Q-7.15 -5.35 -5.45 -7.05 L-5.65 -7.15 -6.2 -6.8 -6.0 -7.15 -5.15 -8.85 Q-4.75 -9.75 -4.75 -10.4 L-4.95 -11.45 -5.3 -12.35 -4.6 -12.3 -3.6 -9.85 Q-3.25 -9.15 -2.5 -8.6 -1.15 -7.65 -0.35 -7.35 L1.3 -7.15 2.4 -7.25 3.15 -7.5 4.3 -7.95 4.95 -8.4 5.4 -8.7 5.9 -8.65 6.4 -8.6 7.15 -8.75 7.95 -9.35 7.85 -9.5 7.8 -9.85 10.1 -9.6 11.55 -9.75 12.45 -10.2 12.45 -10.95 12.5 -11.75 12.6 -13.3 12.25 -16.8 Q11.7 -19.5 10.55 -21.15 12.15 -19.75 12.9 -18.15 13.6 -16.6 13.6 -14.7 L13.4 -13.35 Q13.2 -12.2 13.35 -12.0 M19.3 -5.9 Q18.7 -2.65 17.95 -1.85 L16.95 -1.25 15.45 -1.0 15.2 -1.35 16.2 -4.2 16.4 -7.15 17.0 -7.05 17.6 -7.2 18.2 -7.7 18.3 -7.5 18.0 -7.3 Q17.85 -7.15 17.85 -6.8 L18.05 -6.25 18.75 -5.55 19.1 -6.0 19.05 -5.9 19.3 -5.9 M8.4 4.9 L8.4 5.1 8.6 5.2 10.75 4.75 11.35 5.35 11.45 5.1 11.55 4.9 12.7 5.9 Q13.25 6.7 13.25 7.7 L13.1 9.0 12.45 10.2 11.45 9.45 11.8 8.5 12.0 7.5 11.9 6.9 11.55 6.3 11.25 7.6 10.4 5.75 7.0 6.45 7.05 6.55 7.15 6.75 6.95 7.3 8.0 11.3 Q7.55 9.85 6.55 8.35 5.5 6.8 4.45 6.2 L4.95 5.25 8.4 4.9 M-6.2 -12.85 L-8.0 -13.4 -7.45 -14.6 -7.85 -14.85 -7.05 -15.9 -5.75 -17.1 Q-5.5 -17.0 -5.3 -17.25 L-5.9 -18.05 -4.45 -18.85 -2.95 -19.55 -1.35 -19.9 -0.2 -20.0 Q0.35 -20.1 0.45 -20.3 L-0.1 -21.2 Q2.15 -22.0 3.7 -22.0 L7.5 -21.3 Q8.3 -20.1 8.95 -19.85 L9.15 -20.25 9.2 -20.65 9.1 -22.0 10.1 -21.4 9.8 -20.2 9.65 -19.35 9.65 -18.85 Q4.9 -21.3 2.7 -21.3 1.7 -21.3 1.7 -20.55 L1.8 -20.15 2.0 -19.6 Q-1.0 -19.1 -3.3 -17.0 -5.35 -15.15 -6.2 -12.85 M9.9 -7.35 L10.95 -7.15 11.25 -6.5 Q11.25 -5.55 10.6 -4.95 L9.5 -4.35 Q8.75 -4.35 8.35 -4.7 L8.1 -5.25 8.3 -5.85 9.05 -6.8 8.3 -5.3 Q8.65 -5.05 9.15 -5.05 L9.9 -5.3 Q10.65 -5.6 10.65 -6.15 10.65 -7.1 9.9 -7.35 M-9.45 -5.55 L-9.4 -5.05 -9.3 -4.8 -8.45 -5.35 -7.9 -5.85 -8.75 -4.35 Q-9.25 -3.3 -9.65 -3.1 -11.15 -2.25 -13.05 -2.25 L-14.0 -2.3 -9.45 -5.55" fill="#910000" fill-rule="evenodd" stroke="none"/>
    <path d="M6.3 -4.85 L6.6 -3.9 6.9 -3.3 7.75 -5.05 Q8.3 -6.6 8.1 -7.15 L9.4 -7.7 11.2 -8.1 11.3 -8.05 11.35 -8.0 16.4 -7.15 16.2 -4.2 15.2 -1.35 15.45 -1.0 9.25 -1.25 Q6.35 -1.65 5.95 -2.0 L3.9 -3.4 Q2.75 -4.0 1.65 -4.0 0.55 -4.0 -0.9 -3.15 -0.6 -4.05 0.45 -4.4 L1.2 -4.6 1.8 -4.85 1.8 -5.2 1.0 -5.45 0.55 -5.45 Q-0.95 -5.45 -1.95 -3.9 -2.8 -2.55 -2.8 -1.2 -2.8 -0.05 -2.05 1.55 -1.3 3.2 -0.45 3.8 0.6 4.45 2.1 4.9 L4.65 5.1 3.7 6.25 Q2.6 6.0 0.65 5.1 -1.7 4.0 -3.05 2.85 L-3.8 3.35 -4.2 3.15 -4.85 2.5 -4.6 1.95 -4.3 1.1 -4.15 0.25 -4.4 0.0 -4.85 -0.2 -5.65 0.4 -6.2 2.05 -6.45 1.65 -5.95 -0.9 Q-5.3 -2.85 -4.35 -3.9 L-4.5 -4.35 -5.0 -4.55 Q-5.65 -4.55 -6.4 -3.95 L-7.45 -3.0 -4.5 -7.8 -3.05 -7.6 Q-2.4 -7.15 -1.8 -6.95 L-0.8 -6.8 0.0 -6.7 2.6 -7.1 Q3.75 -7.1 4.85 -6.45 5.85 -5.8 6.3 -4.85 M12.2 4.3 L10.7 4.15 11.1 4.0 12.2 4.3 M11.25 7.6 L10.1 10.4 8.55 12.4 8.0 11.4 8.0 11.3 6.95 7.3 7.15 6.75 7.05 6.55 7.0 6.45 10.4 5.75 11.25 7.6 M-5.3 -12.35 L-5.5 -12.7 -6.2 -12.85 Q-5.35 -15.15 -3.3 -17.0 -1.0 -19.1 2.0 -19.6 L1.8 -20.15 1.7 -20.55 Q1.7 -21.3 2.7 -21.3 4.9 -21.3 9.65 -18.85 L9.65 -19.35 9.8 -20.2 10.1 -21.4 10.55 -21.15 Q11.7 -19.5 12.25 -16.8 L12.6 -13.3 12.5 -11.75 12.45 -10.95 12.45 -10.2 11.55 -9.75 10.1 -9.6 7.8 -9.85 6.4 -10.15 5.55 -10.85 3.8 -12.6 2.9 -14.2 1.8 -13.9 0.8 -15.6 -1.4 -14.9 -1.8 -16.0 -2.0 -16.15 -2.75 -15.8 -4.3 -14.1 -4.6 -12.3 -5.3 -12.35 M9.9 -7.35 L9.05 -6.8 8.3 -5.85 8.1 -5.25 8.35 -4.7 Q8.75 -4.35 9.5 -4.35 L10.6 -4.95 Q11.25 -5.55 11.25 -6.5 L10.95 -7.15 9.9 -7.35 M-9.65 4.4 L-7.9 4.4 -7.9 4.9 -8.45 4.9 -8.45 6.35 -9.1 6.35 -9.1 4.9 -9.65 4.9 -9.65 4.4 M-9.95 4.4 L-9.95 6.35 -10.55 6.35 -10.55 5.55 -11.2 5.55 -11.2 6.35 -11.8 6.35 -11.8 4.4 -11.2 4.4 -11.2 5.1 -10.55 5.1 -10.55 4.4 -9.95 4.4 M-13.05 4.35 L-12.7 4.45 -12.25 4.75 -12.15 4.9 -12.75 5.0 -13.1 4.8 Q-13.5 4.8 -13.5 5.35 -13.5 5.95 -13.1 5.95 L-12.8 5.9 -12.7 5.8 -12.7 5.75 -13.05 5.65 -13.05 5.2 -12.15 5.2 -12.15 6.05 -12.7 6.25 -13.1 6.35 -13.85 6.05 -14.1 5.35 -13.85 4.65 Q-13.55 4.35 -13.05 4.35 M-15.05 4.4 L-14.5 4.4 -14.5 6.35 -15.05 6.35 -15.05 4.4 M-18.35 4.8 L-18.35 5.15 -17.85 5.15 -17.85 4.8 -18.35 4.8 M-17.2 4.95 L-17.35 5.35 -17.7 5.5 -17.45 5.65 -17.1 6.35 Q-17.85 6.45 -18.0 6.0 L-18.35 5.55 -18.35 6.35 -19.0 6.35 -19.0 4.4 -17.5 4.5 Q-17.2 4.65 -17.2 4.95 M-20.0 5.6 L-20.25 4.9 -20.25 5.25 -20.0 5.6 M-16.3 4.4 L-16.3 5.85 -15.35 5.85 -15.35 6.35 -16.85 6.35 -16.85 4.4 -16.3 4.4 M-14.95 7.7 L-15.55 7.7 -15.55 9.15 -16.15 9.15 -16.15 7.7 -16.75 7.7 -16.75 7.2 -14.95 7.2 -14.95 7.7 M-17.65 7.2 L-17.1 7.2 -17.1 9.15 -17.65 9.15 -17.65 7.2 M-18.85 7.6 L-19.1 7.7 -19.25 8.15 Q-19.25 8.7 -18.9 8.7 L-18.65 8.55 -18.5 8.35 Q-18.3 8.35 -18.0 8.5 -18.05 8.85 -18.25 9.0 L-18.85 9.15 Q-19.45 9.15 -19.7 8.75 L-19.85 8.15 Q-19.85 7.15 -18.9 7.15 L-18.35 7.3 -18.0 7.8 -18.55 7.85 -18.85 7.6 M-19.9 4.4 L-19.15 6.35 -19.85 6.2 -20.25 6.0 -20.5 6.2 -20.65 6.35 -21.25 6.35 -20.55 4.4 -19.9 4.4 M-13.85 7.85 L-13.45 7.2 -12.8 7.2 -13.55 8.3 -13.55 9.15 -14.15 9.15 -14.15 8.3 -14.9 7.2 -14.2 7.2 -13.85 7.85 M-23.2 4.8 L-23.2 4.95 -23.75 5.0 -23.85 4.9 -24.05 4.75 -24.3 4.9 -23.6 5.05 Q-23.15 5.2 -23.15 5.7 L-23.35 6.2 -23.95 6.35 -24.5 6.25 -24.85 5.85 -24.9 5.65 -24.3 5.65 -24.25 5.8 -23.95 6.0 -23.7 5.8 -24.35 5.55 -24.8 4.95 Q-24.8 4.45 -24.15 4.35 -23.45 4.3 -23.2 4.8 M-21.15 4.9 L-21.75 4.9 -21.75 6.35 -22.4 6.35 -22.4 4.9 -22.95 4.9 -22.95 4.4 -21.15 4.4 -21.15 4.9" fill="#e00000" fill-rule="evenodd" stroke="none"/>
    <path d="M2.6 -9.4 L2.35 -8.85 Q2.15 -8.6 1.8 -8.6 1.45 -8.6 1.25 -8.85 1.0 -9.05 1.0 -9.4 1.0 -9.75 1.25 -9.95 L1.8 -10.2 Q2.15 -10.2 2.35 -9.95 L2.6 -9.4" fill="#000000" fill-rule="evenodd" stroke="none"/>
  </g>
</svg>
