<?xml version="1.0" encoding="UTF-8" standalone="no"?>
<svg xmlns:ffdec="https://www.free-decompiler.com/flash" xmlns:xlink="http://www.w3.org/1999/xlink" ffdec:objectType="shape" height="125.95px" width="66.0px" xmlns="http://www.w3.org/2000/svg">
  <g transform="matrix(1.0, 0.0, 0.0, 1.0, 28.75, 135.85)">
    <path d="M6.3 -80.5 L6.2 -75.2 4.65 -73.95 4.8 -80.5 6.3 -80.5 M6.05 -65.2 L6.05 -53.8 4.55 -53.25 4.55 -64.85 6.05 -65.2 M6.05 -51.45 L6.1 -44.3 4.65 -43.7 4.55 -50.65 6.05 -51.45 M6.15 -39.6 L6.5 -23.7 5.0 -23.0 4.7 -39.2 6.15 -39.6 M3.75 -114.8 L2.35 -104.05 0.75 -103.75 2.1 -113.8 3.75 -114.8 M1.45 -96.75 L0.85 -91.5 -0.75 -91.1 0.0 -97.5 1.45 -96.75 M0.0 -83.7 L-1.25 -70.9 -2.8 -70.55 -1.7 -82.05 0.0 -83.7 M-2.05 -61.0 L-2.85 -50.35 -4.4 -49.65 -3.75 -59.25 -2.05 -61.0 M-3.1 -46.25 L-3.4 -41.4 -4.9 -41.25 -4.7 -45.35 -3.1 -46.25 M-3.75 -34.75 L-4.05 -28.0 -5.6 -26.8 -5.3 -33.4 -3.75 -34.75 M13.85 -54.9 L14.2 -49.05 12.8 -47.9 12.35 -54.45 13.85 -54.9 M15.65 -28.0 L15.95 -23.85 14.45 -24.05 13.75 -33.35 15.65 -28.0 M12.15 -57.5 L11.75 -64.75 Q13.3 -63.1 13.3 -60.95 L12.15 -57.5" fill="#ffffff" fill-rule="evenodd" stroke="none"/>
    <path d="M-6.15 -131.1 Q-7.4 -129.75 -8.35 -126.2 -9.15 -123.1 -9.2 -121.0 L-8.75 -122.0 -7.95 -123.05 -5.75 -121.95 Q-4.15 -121.05 -3.45 -121.05 -0.85 -121.05 2.0 -122.75 4.1 -124.05 5.2 -125.4 6.85 -127.45 6.8 -129.1 L6.75 -130.25 6.7 -130.8 Q6.7 -131.65 5.4 -132.6 L4.8 -133.4 4.45 -133.7 Q5.9 -133.1 7.1 -131.9 8.1 -130.85 8.1 -130.45 8.1 -126.5 5.45 -123.55 2.25 -120.0 -3.35 -120.0 L-5.9 -120.4 -7.6 -121.2 Q-12.15 -109.4 -17.6 -73.95 -23.45 -32.4 -26.25 -15.15 L-27.05 -15.35 Q-24.2 -35.25 -14.35 -99.15 -11.7 -117.0 -10.55 -121.8 -8.2 -131.55 -4.2 -133.8 L-4.35 -133.65 -4.55 -133.45 -5.55 -132.1 -6.15 -131.1 M8.45 -117.8 L8.3 -116.3 7.6 -117.35 8.4 -118.0 8.45 -117.8 M8.15 -114.75 L8.0 -113.3 7.9 -113.3 7.8 -112.55 7.9 -111.7 7.9 -111.65 7.3 -103.9 5.7 -102.5 6.8 -116.75 7.25 -117.1 8.15 -114.75 M6.9 -97.6 L6.75 -94.35 5.2 -93.0 5.45 -98.0 6.9 -97.6 M6.6 -90.65 L6.5 -87.7 6.25 -87.0 6.45 -86.2 6.3 -80.5 4.8 -80.5 5.05 -89.7 6.6 -90.65 M6.2 -75.2 L6.05 -65.2 4.55 -64.85 4.65 -73.95 6.2 -75.2 M6.05 -53.8 L6.05 -51.45 4.55 -50.65 4.55 -53.25 6.05 -53.8 M6.1 -44.3 L6.15 -39.6 4.7 -39.2 4.65 -43.7 6.1 -44.3 M6.5 -23.7 L6.55 -21.6 5.1 -20.15 5.0 -23.0 6.5 -23.7 M2.35 -104.05 L1.85 -100.3 0.25 -99.8 0.75 -103.75 2.35 -104.05 M1.7 -99.0 L1.45 -96.75 0.0 -97.5 0.25 -99.55 1.7 -99.0 M0.85 -91.5 L0.55 -89.1 -1.1 -87.85 -0.75 -91.1 0.85 -91.5 M0.3 -86.75 L0.0 -83.7 -1.7 -82.05 -1.2 -86.75 0.3 -86.75 M-1.25 -70.9 L-2.05 -61.0 -3.75 -59.25 -2.8 -70.55 -1.25 -70.9 M-2.85 -50.35 L-3.1 -46.3 -3.1 -46.25 -4.7 -45.35 -4.4 -49.65 -2.85 -50.35 M-3.4 -41.4 L-3.75 -34.75 -5.3 -33.4 -4.9 -41.25 -3.4 -41.4 M-4.05 -28.0 L-4.25 -22.5 -4.8 -24.5 -5.75 -23.55 -5.6 -26.8 -4.05 -28.0 M7.25 -120.55 L7.25 -120.6 7.25 -120.55 M6.7 -118.1 L2.75 -116.05 Q0.85 -115.4 -0.9 -112.6 -3.15 -109.05 -3.65 -104.05 -4.0 -100.35 -5.25 -92.15 L-7.45 -77.25 -10.45 -52.85 -11.95 -36.65 -12.0 -34.4 Q-12.1 -29.1 -12.35 -25.45 L-13.35 -13.8 -14.35 -13.9 -12.2 -43.2 Q-10.8 -60.0 -7.7 -82.0 L-4.55 -101.6 Q-2.35 -113.65 -1.55 -114.2 0.4 -115.55 4.9 -117.95 8.1 -119.65 9.2 -120.95 9.1 -119.55 6.7 -118.1 M12.0 -87.25 L12.6 -76.0 11.15 -74.4 10.55 -86.2 12.0 -87.25 M13.05 -68.25 L13.85 -54.9 12.35 -54.45 12.15 -57.45 12.15 -57.5 13.3 -60.95 Q13.3 -63.1 11.75 -64.75 L11.5 -68.4 13.05 -68.25 M14.2 -49.05 L14.7 -41.85 13.25 -40.85 12.8 -47.9 14.2 -49.05 M14.8 -40.0 L15.65 -28.0 13.75 -33.35 13.25 -40.65 14.8 -40.0 M15.95 -23.85 L16.05 -22.25 14.5 -22.9 14.45 -24.0 14.45 -24.05 15.95 -23.85" fill="#e0e0e0" fill-rule="evenodd" stroke="none"/>
    <path d="M8.45 -118.1 L8.45 -117.85 8.45 -117.8 8.4 -118.0 8.45 -118.1 M8.3 -116.3 L8.15 -114.75 7.25 -117.1 7.6 -117.35 8.3 -116.3 M7.3 -103.9 L6.9 -97.6 5.45 -98.0 5.7 -102.5 7.3 -103.9 M6.75 -94.35 L6.6 -90.65 5.05 -89.7 5.2 -93.0 6.75 -94.35 M6.5 -87.7 L6.45 -86.2 6.25 -87.0 6.5 -87.7 M6.55 -21.6 L6.7 -15.8 5.25 -14.9 5.1 -20.15 6.55 -21.6 M1.85 -100.3 L1.7 -99.0 0.25 -99.55 0.25 -99.8 1.85 -100.3 M0.55 -89.1 L0.3 -86.75 -1.2 -86.75 -1.1 -87.85 0.55 -89.1 M-4.25 -22.5 L-4.45 -16.75 -5.95 -17.1 -5.75 -23.55 -4.8 -24.5 -4.25 -22.5 M7.25 -120.6 L7.65 -120.95 7.25 -120.55 7.25 -120.6 M11.05 -117.1 L11.85 -115.0 Q11.45 -111.95 11.25 -104.95 L9.75 -105.85 Q10.05 -112.75 10.25 -114.3 10.45 -116.25 11.05 -117.1 M13.8 -109.15 L16.5 -100.25 18.05 -94.8 20.35 -80.35 19.4 -76.35 16.65 -93.9 13.8 -109.15 M11.25 -102.45 L11.4 -99.35 Q11.35 -99.8 10.8 -99.2 10.2 -98.55 10.2 -97.15 L10.45 -95.6 Q10.75 -94.4 11.25 -94.9 L11.6 -95.05 11.75 -92.15 11.55 -92.0 11.45 -91.25 Q11.45 -89.65 11.95 -88.3 L12.0 -87.25 10.55 -86.2 9.7 -103.15 10.6 -101.9 11.25 -102.45 M12.6 -76.0 L13.05 -68.25 11.5 -68.4 11.15 -74.4 12.6 -76.0 M14.7 -41.85 L14.8 -40.0 13.25 -40.65 13.25 -40.85 14.7 -41.85 M16.05 -22.25 L16.55 -15.75 15.0 -16.35 14.5 -22.9 16.05 -22.25 M21.55 -72.1 Q26.15 -40.0 28.35 -17.8 L26.85 -17.75 Q22.8 -54.2 20.05 -71.8 L21.55 -72.1" fill="#b4b4b4" fill-rule="evenodd" stroke="none"/>
    <path d="M5.4 -132.6 Q6.7 -131.65 6.7 -130.8 L6.75 -130.25 6.8 -129.1 Q6.85 -127.45 5.2 -125.4 4.1 -124.05 2.0 -122.75 -0.85 -121.05 -3.45 -121.05 -4.15 -121.05 -5.75 -121.95 L-7.95 -123.05 -8.75 -122.0 -9.2 -121.0 Q-9.15 -123.1 -8.35 -126.2 -7.4 -129.75 -6.15 -131.1 -7.3 -128.7 -7.0 -125.6 L-6.8 -124.45 -6.7 -123.95 Q-6.0 -121.5 -3.55 -121.5 -0.5 -121.5 2.1 -124.1 L2.4 -124.4 3.65 -125.8 4.75 -127.45 5.15 -128.15 Q5.8 -129.55 5.85 -130.65 L5.9 -130.9 5.8 -131.2 5.7 -131.7 5.4 -132.6 M-4.2 -133.8 Q-8.2 -131.55 -10.55 -121.8 -11.7 -117.0 -14.35 -99.15 -24.2 -35.25 -27.05 -15.35 L-26.25 -15.15 Q-23.45 -32.4 -17.6 -73.95 -12.15 -109.4 -7.6 -121.2 L-5.9 -120.4 -3.35 -120.0 Q2.25 -120.0 5.45 -123.55 8.1 -126.5 8.1 -130.45 8.1 -130.85 7.1 -131.9 5.9 -133.1 4.45 -133.7 L2.95 -134.65 Q-1.4 -136.75 -4.2 -133.8 M-14.9 -105.55 L-13.4 -113.3 -12.4 -118.55 -12.05 -120.2 -11.95 -120.5 -11.15 -124.1 -9.8 -128.55 Q-7.35 -134.55 -2.8 -135.6 L-0.7 -135.85 Q2.1 -135.85 4.25 -134.9 6.25 -134.1 7.7 -132.5 L9.25 -130.65 9.1 -128.9 8.3 -127.0 7.35 -124.9 5.8 -123.0 Q3.15 -118.8 -4.0 -118.8 L-6.15 -119.05 Q-7.55 -118.25 -7.85 -117.35 -7.85 -116.65 -8.0 -116.65 -8.65 -116.65 -11.35 -101.1 L-11.45 -100.6 -11.55 -100.1 -14.5 -82.15 -14.75 -80.35 -20.15 -44.25 -24.7 -12.85 -28.75 -13.95 -18.45 -81.15 -15.55 -100.3 -14.9 -105.55 M7.65 -120.95 L8.75 -122.35 Q9.4 -122.95 9.85 -124.3 L10.4 -126.45 10.3 -127.85 Q10.3 -128.85 10.5 -128.7 L10.55 -128.7 12.3 -125.15 11.85 -123.05 10.7 -120.85 10.0 -119.75 8.45 -118.1 8.4 -118.0 7.6 -117.35 7.25 -117.1 6.8 -116.75 4.0 -114.95 3.75 -114.8 2.1 -113.8 Q1.1 -112.85 -0.3 -108.6 -1.45 -104.95 -1.65 -103.55 L-3.45 -92.45 Q-5.5 -80.15 -7.65 -60.05 L-9.4 -42.45 -12.25 -10.9 -12.75 -10.95 -12.9 -11.0 -13.0 -11.0 -16.0 -11.35 -15.4 -20.35 -12.7 -55.8 -6.65 -98.8 -6.55 -99.7 Q-5.9 -103.65 -6.25 -106.5 -6.35 -107.3 -3.75 -112.7 L-1.3 -115.7 Q0.35 -116.7 4.0 -118.3 6.15 -119.25 7.25 -120.55 L7.65 -120.95 M8.0 -113.3 L7.9 -111.7 7.8 -112.55 7.9 -113.3 8.0 -113.3 M6.7 -15.8 L6.8 -11.5 5.35 -11.65 5.25 -14.9 6.7 -15.8 M-4.45 -16.75 L-4.6 -12.45 -6.1 -12.55 -5.95 -17.1 -4.45 -16.75 M11.85 -115.0 L11.05 -117.1 11.2 -117.3 12.1 -117.5 Q13.3 -117.5 15.0 -111.0 16.8 -104.35 18.05 -94.8 L16.5 -100.25 13.8 -109.15 Q11.95 -117.15 11.85 -115.0 M9.75 -105.85 L11.25 -104.95 11.25 -102.45 10.6 -101.9 9.7 -103.15 9.75 -105.85 M6.7 -118.1 Q9.1 -119.55 9.2 -120.95 8.1 -119.65 4.9 -117.95 0.4 -115.55 -1.55 -114.2 -2.35 -113.65 -4.55 -101.6 L-7.7 -82.0 Q-10.8 -60.0 -12.2 -43.2 L-14.35 -13.9 -13.35 -13.8 -12.35 -25.45 Q-12.1 -29.1 -12.0 -34.4 L-11.95 -36.65 -10.45 -52.85 -7.45 -77.25 -5.25 -92.15 Q-4.0 -100.35 -3.65 -104.05 -3.15 -109.05 -0.9 -112.6 0.85 -115.4 2.75 -116.05 L6.7 -118.1 M11.4 -99.35 L11.6 -95.05 11.25 -94.9 Q10.75 -94.4 10.45 -95.6 L10.2 -97.15 Q10.2 -98.55 10.8 -99.2 11.35 -99.8 11.4 -99.35 M11.75 -92.15 L11.95 -88.3 Q11.45 -89.65 11.45 -91.25 L11.55 -92.0 11.75 -92.15 M16.55 -15.75 L16.55 -15.7 16.85 -12.15 15.35 -12.0 15.0 -16.35 16.55 -15.75 M24.3 -77.45 L28.45 -62.75 37.0 -15.2 35.55 -14.8 34.6 -20.1 34.1 -24.2 33.25 -27.7 24.3 -77.45 M19.4 -76.35 L20.35 -80.35 21.55 -72.1 20.05 -71.8 19.4 -76.35 M28.35 -17.8 L28.85 -13.5 27.35 -13.3 26.85 -17.75 28.35 -17.8" fill="#8a8a8a" fill-rule="evenodd" stroke="none"/>
    <path d="M-6.15 -131.1 L-5.55 -132.1 -4.55 -133.45 -4.35 -133.65 -4.2 -133.8 Q-1.4 -136.75 2.95 -134.65 L4.45 -133.7 4.8 -133.4 5.4 -132.6 5.7 -131.7 5.8 -131.2 5.9 -130.9 5.85 -130.65 Q5.8 -129.55 5.15 -128.15 L4.75 -127.45 3.65 -125.8 2.4 -124.4 2.1 -124.1 Q-0.5 -121.5 -3.55 -121.5 -6.0 -121.5 -6.7 -123.95 L-6.8 -124.45 -7.0 -125.6 Q-7.3 -128.7 -6.15 -131.1 M4.5 -131.4 Q4.1 -132.7 2.4 -133.5 L0.3 -134.15 -1.3 -134.05 -2.85 -133.3 -3.6 -132.6 Q-5.15 -130.9 -5.6 -128.65 L-5.75 -125.7 -5.65 -125.0 Q-5.45 -123.7 -4.75 -123.15 L-4.5 -123.0 -2.35 -122.95 Q0.5 -123.8 2.7 -126.6 L3.7 -128.1 3.65 -128.1 4.2 -129.2 4.4 -129.75 4.45 -129.9 4.55 -130.85 4.5 -131.4 M6.8 -11.5 L6.85 -9.9 5.4 -9.9 5.35 -11.65 6.8 -11.5 M-4.6 -12.45 L-4.65 -10.25 -6.15 -10.35 -6.1 -12.55 -4.6 -12.45 M16.85 -12.15 L17.0 -10.1 15.5 -10.05 15.35 -12.0 16.85 -12.15 M24.3 -77.45 L22.2 -89.05 26.15 -75.75 28.45 -62.75 24.3 -77.45 M37.0 -15.2 L37.25 -13.8 35.8 -13.4 35.55 -14.8 37.0 -15.2 M28.85 -13.5 L29.05 -11.65 27.85 -11.4 27.55 -11.35 27.35 -13.3 28.85 -13.5" fill="#464646" fill-rule="evenodd" stroke="none"/>
  </g>
</svg>
