<?xml version="1.0" encoding="UTF-8" standalone="no"?>
<svg xmlns:ffdec="https://www.free-decompiler.com/flash" xmlns:xlink="http://www.w3.org/1999/xlink" ffdec:objectType="shape" height="123.05px" width="35.95px" xmlns="http://www.w3.org/2000/svg">
  <g transform="matrix(1.0, 0.0, 0.0, 1.0, -27.55, 37.5)">
    <path d="M38.15 -13.5 L38.4 -13.9 39.05 -14.9 40.5 -12.85 40.45 -12.85 40.3 -5.0 Q40.3 5.7 42.4 17.7 44.9 31.85 49.5 42.15 43.4 33.35 40.2 14.1 37.7 -1.0 38.15 -13.5 M39.6 -15.8 L40.3 -17.1 41.8 -20.15 42.5 -21.75 46.7 -13.35 46.75 -13.2 46.85 -12.75 47.25 -10.0 47.45 -9.4 46.85 -9.3 Q47.45 -9.3 47.35 -5.75 L47.25 0.05 47.4 1.55 Q46.75 -0.3 45.65 -6.5 45.0 -10.2 43.55 -10.2 43.3 -10.2 42.4 -11.75 L41.05 -13.95 39.6 -15.8 M33.35 -6.95 L36.45 -11.0 Q34.35 6.25 34.35 11.0 34.35 21.05 36.45 31.55 L40.4 47.75 42.2 58.8 Q42.65 62.15 47.1 69.75 L46.85 70.8 Q44.6 69.2 44.0 68.4 43.0 67.15 39.95 61.6 L39.0 58.9 Q32.25 21.9 32.25 17.4 32.25 15.45 32.6 8.3 L33.35 -6.95" fill="#ffffff" fill-rule="evenodd" stroke="none"/>
    <path d="M38.15 -13.5 Q37.7 -1.0 40.2 14.1 43.4 33.35 49.5 42.15 44.9 31.85 42.4 17.7 40.3 5.7 40.3 -5.0 L40.45 -12.85 40.5 -12.85 39.05 -14.9 39.6 -15.8 41.05 -13.95 42.4 -11.75 Q43.3 -10.2 43.55 -10.2 45.0 -10.2 45.65 -6.5 46.75 -0.3 47.4 1.55 L47.25 0.05 47.35 -5.75 Q47.45 -9.3 46.85 -9.3 L47.45 -9.4 47.25 -10.0 46.85 -12.75 Q47.9 -8.8 48.2 -6.25 47.8 -1.15 50.25 5.85 51.95 10.85 54.5 15.3 L54.4 15.25 Q48.65 10.8 46.4 3.2 L44.7 -3.4 Q43.65 -7.45 42.35 -10.25 L42.35 -9.85 Q41.25 9.3 49.9 30.45 L48.2 30.7 Q48.85 34.4 51.05 41.65 54.2 51.9 57.55 57.9 49.3 50.5 43.8 34.25 39.0 20.1 37.2 2.2 L37.2 5.75 Q36.05 13.7 38.95 30.4 41.85 46.85 46.75 61.15 L50.7 81.7 Q48.1 78.65 44.4 71.5 41.05 65.05 39.95 61.6 43.0 67.15 44.0 68.4 44.6 69.2 46.85 70.8 L47.1 69.75 Q42.65 62.15 42.2 58.8 L40.4 47.75 36.45 31.55 Q34.35 21.05 34.35 11.0 34.35 6.25 36.45 -11.0 L37.15 -12.05 38.15 -13.5 M42.5 -21.75 L42.5 -21.8 43.3 -24.0 45.75 -16.7 46.7 -13.35 42.5 -21.75 M44.3 -28.5 L44.4 -32.0 Q48.3 -27.95 51.25 -22.25 56.1 -12.8 56.1 -5.4 L55.7 -3.6 54.85 -1.25 54.2 -0.9 Q53.1 -15.85 49.2 -22.2 47.6 -24.75 44.3 -28.5 M31.15 -4.4 L32.55 -6.05 33.35 -6.95 32.6 8.3 Q32.25 15.45 32.25 17.4 32.25 21.9 39.0 58.9 L35.9 49.9 34.6 46.6 Q33.1 41.05 31.85 34.05 30.6 26.85 29.1 14.7 L29.4 7.85 31.15 -4.4" fill="#d1d1d1" fill-rule="evenodd" stroke="none"/>
    <path d="M43.6 -25.1 L43.9 -26.35 44.3 -28.5 Q47.6 -24.75 49.2 -22.2 53.1 -15.85 54.2 -0.9 L54.85 -1.25 55.7 -3.6 56.1 -5.4 Q56.1 -12.8 51.25 -22.25 48.3 -27.95 44.4 -32.0 L43.95 -35.25 46.0 -33.4 Q52.5 -26.55 55.15 -20.85 58.05 -14.45 58.05 -5.65 58.05 -1.45 57.65 2.65 L56.7 10.4 Q51.45 0.05 48.1 -13.7 46.75 -19.15 45.9 -21.3 44.95 -23.5 43.6 -25.1 M29.95 -3.1 L31.05 -4.3 31.15 -4.4 29.4 7.85 29.95 -3.1 M48.2 -6.25 Q50.75 4.2 52.15 7.95 54.65 14.6 58.1 16.75 L54.5 15.3 Q51.95 10.85 50.25 5.85 47.8 -1.15 48.2 -6.25 M54.4 15.25 Q50.55 13.0 48.1 9.05 45.7 5.2 44.35 -0.75 44.95 8.0 47.45 18.4 L50.6 30.5 49.9 30.45 Q41.25 9.3 42.35 -9.85 L42.35 -10.25 Q43.65 -7.45 44.7 -3.4 L46.4 3.2 Q48.65 10.8 54.4 15.25 M37.2 5.75 Q37.4 13.85 41.45 29.0 L50.05 60.05 47.25 58.7 Q46.85 59.25 46.75 61.15 41.85 46.85 38.95 30.4 36.05 13.7 37.2 5.75 M34.6 46.6 L32.5 50.1 32.3 48.75 Q31.45 44.2 30.55 36.3 29.1 23.8 29.1 14.7 30.6 26.85 31.85 34.05 33.1 41.05 34.6 46.6 M46.7 9.95 Q47.1 10.55 48.45 11.55 49.3 12.25 49.3 12.8 49.3 13.8 48.2 16.35 L46.7 10.1 46.7 9.95" fill="#989898" fill-rule="evenodd" stroke="none"/>
    <path d="M43.3 -24.0 L43.6 -25.1 Q44.95 -23.5 45.9 -21.3 46.75 -19.15 48.1 -13.7 51.45 0.05 56.7 10.4 L57.65 2.65 Q58.05 -1.45 58.05 -5.65 58.05 -14.45 55.15 -20.85 52.5 -26.55 46.0 -33.4 L43.95 -35.25 43.25 -37.5 44.15 -36.75 Q52.45 -29.65 55.85 -22.05 59.35 -14.2 59.35 -2.25 L58.9 3.9 57.95 10.0 57.35 12.85 60.3 18.15 56.8 17.2 Q53.35 15.9 50.55 13.85 L48.95 19.45 52.2 32.65 50.0 31.9 Q50.05 35.7 54.0 46.15 58.55 58.05 63.5 64.4 L63.25 65.2 Q60.1 62.9 58.05 60.8 54.45 57.15 48.15 47.65 48.65 50.75 50.15 55.55 51.9 61.1 53.3 63.0 L48.6 61.65 Q51.45 79.7 52.25 83.2 52.7 85.2 53.1 85.55 51.95 85.15 51.15 84.5 49.1 82.8 46.15 78.35 40.55 70.0 37.1 61.1 33.95 52.9 34.25 48.85 L33.05 52.35 32.05 54.0 Q29.8 42.6 29.1 37.0 27.55 25.15 27.55 10.95 27.55 6.65 28.65 0.5 L29.2 -2.3 29.95 -3.1 29.4 7.85 29.1 14.7 Q29.1 23.8 30.55 36.3 31.45 44.2 32.3 48.75 L32.5 50.1 34.6 46.6 35.9 49.9 39.0 58.9 39.95 61.6 Q41.05 65.05 44.4 71.5 48.1 78.65 50.7 81.7 L46.75 61.15 Q46.85 59.25 47.25 58.7 L50.05 60.05 41.45 29.0 Q37.4 13.85 37.2 5.75 L37.2 2.2 Q39.0 20.1 43.8 34.25 49.3 50.5 57.55 57.9 54.2 51.9 51.05 41.65 48.85 34.4 48.2 30.7 L49.9 30.45 50.6 30.5 47.45 18.4 Q44.95 8.0 44.35 -0.75 45.7 5.2 48.1 9.05 50.55 13.0 54.4 15.25 L54.5 15.3 58.1 16.75 Q54.65 14.6 52.15 7.95 50.75 4.2 48.2 -6.25 47.9 -8.8 46.85 -12.75 L46.75 -13.2 46.7 -13.35 45.75 -16.7 43.3 -24.0 M46.7 9.95 L46.7 10.1 48.2 16.35 Q49.3 13.8 49.3 12.8 49.3 12.25 48.45 11.55 47.1 10.55 46.7 9.95" fill="#606060" fill-rule="evenodd" stroke="none"/>
  </g>
</svg>
