<?xml version="1.0" encoding="UTF-8" standalone="no"?>
<svg xmlns:ffdec="https://www.free-decompiler.com/flash" xmlns:xlink="http://www.w3.org/1999/xlink" ffdec:objectType="shape" height="99.15px" width="99.1px" xmlns="http://www.w3.org/2000/svg">
  <g transform="matrix(1.0, 0.0, 0.0, 1.0, 75.65, 99.4)">
    <path d="M7.6 -87.05 L12.1 -87.95 14.2 -87.45 14.05 -87.35 6.35 -82.2 6.25 -82.15 5.1 -81.25 2.6 -81.45 1.95 -81.45 7.6 -87.05 M-1.4 -76.15 L-0.25 -76.05 Q1.35 -76.05 3.1 -76.95 L3.55 -76.8 -7.15 -66.1 Q-8.15 -66.55 -9.35 -66.6 L-13.65 -65.8 -10.55 -68.95 -1.4 -76.15 M-3.05 -76.45 L-2.5 -77.0 -2.3 -76.6 -3.05 -76.45 M-25.25 -49.65 L-26.05 -50.0 -28.6 -49.85 Q-29.8 -49.15 -29.8 -47.55 L-29.65 -46.6 -31.45 -45.2 -34.95 -44.5 -24.35 -55.15 -22.4 -55.55 Q-21.75 -54.85 -20.55 -54.85 -19.7 -54.85 -18.95 -55.75 L-17.85 -55.45 -20.3 -53.0 -25.25 -49.65 M-39.0 -39.25 L-31.45 -45.2 -30.75 -45.25 -28.65 -44.8 -28.6 -44.7 -39.2 -34.05 -41.5 -34.55 -45.6 -33.85 -44.7 -34.75 -44.7 -34.8 -44.15 -34.75 Q-41.4 -34.75 -39.3 -38.75 L-39.0 -39.25 M-56.2 -23.25 L-52.2 -23.9 -51.5 -23.8 -51.4 -23.6 Q-51.1 -23.0 -50.6 -22.7 L-54.7 -18.55 -60.35 -14.8 -60.75 -15.25 -62.7 -16.75 -56.2 -23.25" fill="#fcf7f1" fill-rule="evenodd" stroke="none"/>
    <path d="M1.95 -81.45 L2.6 -81.45 5.1 -81.25 -0.25 -77.1 -2.3 -76.6 -2.5 -77.0 1.95 -81.45 M-1.4 -76.15 L-0.25 -77.1 1.4 -77.3 3.1 -76.95 Q1.35 -76.05 -0.25 -76.05 L-1.4 -76.15 M-29.65 -46.6 L-29.8 -47.55 Q-29.8 -49.15 -28.6 -49.85 L-26.05 -50.0 -25.25 -49.65 -28.55 -47.45 -28.65 -47.35 -29.65 -46.6 M-18.95 -55.75 Q-19.7 -54.85 -20.55 -54.85 -21.75 -54.85 -22.4 -55.55 L-20.05 -55.95 -18.95 -55.75 M-44.7 -34.8 L-39.0 -39.25 -39.3 -38.75 Q-41.4 -34.75 -44.15 -34.75 L-44.7 -34.8 M-28.65 -44.8 L-28.55 -44.75 -28.6 -44.7 -28.65 -44.8 M-51.5 -23.8 L-49.9 -23.4 -50.6 -22.7 Q-51.1 -23.0 -51.4 -23.6 L-51.5 -23.8" fill="#f8f3ed" fill-rule="evenodd" stroke="none"/>
    <path d="M22.25 -92.3 L22.45 -90.55 18.15 -86.2 16.6 -86.55 16.5 -86.4 15.15 -86.95 15.3 -87.1 14.2 -87.45 18.45 -90.25 20.35 -91.65 Q21.4 -91.85 22.25 -92.3 M14.2 -87.45 L14.05 -87.35 14.2 -87.45 M3.55 -76.8 L4.45 -76.35 3.45 -75.3 4.45 -76.3 5.7 -75.85 5.85 -75.95 7.55 -75.65 4.05 -72.1 -3.2 -66.1 -3.7 -66.15 Q-4.55 -66.15 -5.5 -65.45 L-6.3 -65.65 -7.15 -66.1 3.55 -76.8 M18.05 -97.65 L17.15 -97.4 16.05 -97.05 17.25 -97.95 18.05 -97.65 M7.6 -87.05 L1.95 -81.45 Q0.0 -81.35 -1.0 -80.85 -2.6 -80.0 -2.6 -77.75 L-2.5 -77.0 -3.05 -76.45 -4.15 -76.15 -4.2 -76.15 -10.75 -73.5 -5.25 -79.0 1.6 -84.8 -0.3 -83.95 4.7 -88.95 5.9 -88.45 1.6 -84.8 6.5 -86.75 7.6 -87.05 M10.2 -94.5 L16.05 -97.05 8.9 -90.95 8.2 -92.5 10.2 -94.5 M-18.6 -64.1 L-15.0 -65.5 -17.5 -63.35 -18.0 -63.85 -18.6 -64.1 M-23.2 -58.55 L-29.25 -53.45 -25.55 -54.85 -24.35 -55.15 -34.95 -44.5 -36.2 -44.2 -36.25 -44.2 -37.8 -43.65 Q-38.0 -44.5 -39.05 -44.55 L-39.85 -44.45 -39.3 -44.95 -29.25 -53.45 -31.8 -52.45 -22.4 -61.9 Q-23.15 -60.6 -23.2 -58.55 M-13.65 -65.8 L-14.85 -65.5 -14.65 -65.7 -14.55 -65.8 -10.55 -68.95 -13.65 -65.8 M-20.3 -53.0 L-17.85 -55.45 -17.1 -55.1 -20.3 -53.0 M-9.1 -61.1 Q-9.5 -60.15 -9.5 -59.2 L-9.45 -58.6 -13.7 -54.4 -15.4 -54.65 -15.55 -54.5 -16.95 -55.0 -17.1 -55.1 -16.4 -55.6 -16.8 -55.1 -16.4 -55.55 -9.1 -61.1 M-52.15 -31.7 L-46.9 -33.6 -45.95 -33.8 -44.7 -34.75 -45.6 -33.85 -45.95 -33.8 -49.2 -31.25 -49.3 -31.2 -50.3 -30.35 -51.25 -31.1 -52.15 -31.7 M-55.05 -29.2 L-53.75 -27.45 -58.7 -23.3 -59.9 -24.35 -55.05 -29.2 M-47.25 -23.8 L-43.7 -26.55 -43.05 -27.2 -35.85 -33.25 -34.95 -33.1 -45.55 -22.5 -47.45 -22.75 Q-47.45 -22.6 -47.55 -22.6 L-48.0 -22.75 Q-47.45 -23.1 -47.25 -23.8 M-29.95 -38.15 L-35.85 -33.25 -36.8 -33.3 -36.9 -33.2 -38.35 -33.7 -39.2 -34.05 -28.6 -44.7 -28.35 -44.35 -28.0 -43.95 -28.7 -43.25 -28.0 -43.95 Q-26.95 -42.8 -25.65 -42.4 L-29.95 -38.15 M-50.6 -22.7 Q-50.1 -22.4 -49.4 -22.4 L-49.1 -22.4 -51.25 -20.85 -54.7 -18.55 -50.6 -22.7 M-63.45 -19.35 L-63.35 -19.35 Q-61.35 -19.35 -59.9 -20.2 -58.45 -21.05 -58.45 -22.3 L-58.45 -22.65 -57.55 -22.95 -56.2 -23.25 -62.7 -16.75 -62.8 -16.8 -62.95 -16.9 -63.05 -16.95 -64.2 -17.4 -65.4 -17.7 -63.45 -19.35 M-58.65 -12.0 L-58.35 -11.95 -58.35 -12.05 -57.7 -12.0 Q-58.05 -11.3 -58.05 -10.25 L-58.05 -10.05 -58.2 -9.9 -58.2 -10.0 -58.2 -10.1 -58.55 -11.8 -58.65 -12.0" fill="#f4efe9" fill-rule="evenodd" stroke="none"/>
    <path d="M22.25 -92.3 Q21.4 -91.85 20.35 -91.65 L22.1 -93.0 22.25 -92.3 M8.2 -92.5 L8.9 -90.95 5.9 -88.45 4.7 -88.95 8.2 -92.5 M-5.5 -65.45 Q-4.55 -66.15 -3.7 -66.15 L-3.2 -66.1 -4.3 -65.25 -4.75 -65.3 -4.85 -65.2 -5.5 -65.45 M-21.3 -63.0 L-18.6 -64.1 -18.0 -63.85 -17.5 -63.35 -23.2 -58.55 Q-23.15 -60.6 -22.4 -61.9 L-21.3 -63.0 M-2.5 -77.0 L-2.6 -77.75 Q-2.6 -80.0 -1.0 -80.85 0.0 -81.35 1.95 -81.45 L-2.5 -77.0 M-39.85 -44.45 L-39.05 -44.55 Q-38.0 -44.5 -37.8 -43.65 L-42.35 -41.9 -39.85 -44.45 M-9.1 -61.1 L-8.85 -61.3 -8.25 -61.9 -4.3 -65.25 -3.05 -65.0 -9.45 -58.6 -9.5 -59.2 Q-9.5 -60.15 -9.1 -61.1 M-52.85 -31.4 L-52.15 -31.7 -51.25 -31.1 -50.3 -30.35 -53.75 -27.45 -55.05 -29.2 -53.1 -31.2 -52.85 -31.4 M-47.25 -23.8 Q-47.45 -23.1 -48.0 -22.75 L-48.5 -22.85 -49.1 -22.4 -49.4 -22.4 Q-50.1 -22.4 -50.6 -22.7 L-49.9 -23.4 -49.05 -23.0 -48.5 -22.85 -47.25 -23.8 M-63.55 -20.75 L-59.9 -24.35 -58.7 -23.3 -60.25 -22.05 -63.55 -20.75 M-58.45 -22.65 L-58.45 -22.3 Q-58.45 -21.05 -59.9 -20.2 -61.35 -19.35 -63.35 -19.35 L-63.45 -19.35 -60.25 -22.05 -58.45 -22.65 M-57.7 -12.0 L-56.2 -11.9 -58.05 -10.05 -58.05 -10.25 Q-58.05 -11.3 -57.7 -12.0 M-28.0 -43.95 L-28.35 -44.35 -28.6 -44.7 -28.55 -44.75 -27.65 -44.35 -28.0 -43.95 -27.65 -44.3 -26.3 -43.9 -26.2 -44.0 -24.3 -43.75 -25.65 -42.4 Q-26.95 -42.8 -28.0 -43.95" fill="#f0eae4" fill-rule="evenodd" stroke="none"/>
    <path d="M7.5 -95.95 L9.5 -97.8 12.8 -98.35 12.6 -98.15 Q10.55 -97.7 8.95 -96.15 L8.35 -95.45 8.15 -95.1 8.05 -95.0 7.05 -94.0 3.3 -90.25 3.25 -90.2 -0.55 -87.75 7.3 -95.6 7.5 -95.95 M17.25 -97.95 L18.15 -98.7 17.6 -98.9 18.85 -98.35 19.85 -97.7 19.4 -98.0 18.05 -97.65 17.25 -97.95 M22.1 -95.3 L22.3 -94.95 23.0 -93.45 23.4 -91.5 23.45 -90.5 23.45 -89.9 23.05 -87.8 21.35 -86.4 Q22.0 -87.5 22.3 -88.75 L22.45 -90.5 22.45 -90.55 22.25 -92.3 22.1 -93.0 22.9 -93.65 22.1 -95.3 M21.6 -85.05 L20.85 -84.2 20.2 -83.55 11.15 -74.5 10.1 -74.6 9.95 -74.7 12.15 -76.9 17.45 -82.2 19.5 -84.25 20.15 -84.9 20.5 -85.25 20.7 -85.15 21.6 -85.05 M0.6 -63.95 L-0.05 -63.3 -10.5 -54.25 -0.6 -64.1 -0.5 -64.05 0.6 -63.95 M-9.85 -53.45 L-20.4 -42.9 -21.65 -42.95 -21.75 -43.0 -11.2 -53.55 -11.05 -53.5 -9.85 -53.45 M-30.95 -32.35 L-33.25 -30.1 -42.65 -21.85 -41.45 -21.9 -51.95 -11.35 -53.45 -11.3 -44.1 -20.65 -42.65 -21.85 -42.8 -21.85 -42.85 -21.85 -32.3 -32.45 -32.2 -32.4 -30.95 -32.35 M-75.65 -9.2 L-75.65 -9.5 -75.6 -9.5 -75.65 -9.2 M-63.05 -25.3 L-56.35 -32.0 -51.7 -36.25 -52.8 -35.55 -42.25 -46.1 -38.65 -48.4 -51.7 -36.25 -49.05 -37.9 -59.4 -27.55 -63.05 -25.3 M-31.8 -56.5 L-22.7 -65.65 -20.9 -67.3 -21.25 -67.05 -10.8 -77.5 -7.75 -79.4 -4.9 -82.05 -7.25 -79.7 -7.75 -79.4 -20.9 -67.3 -17.6 -69.35 -28.15 -58.8 -31.8 -56.5 M-37.75 -49.2 L-38.45 -48.5 -38.65 -48.4 -37.75 -49.2" fill="#a39c96" fill-rule="evenodd" stroke="none"/>
    <path d="M22.45 -90.55 L22.45 -90.5 22.3 -88.75 Q22.0 -87.5 21.35 -86.4 L20.15 -85.45 18.15 -86.2 22.45 -90.55 M7.55 -75.65 L8.1 -75.5 20.15 -85.45 20.5 -85.25 20.15 -84.9 19.5 -84.25 17.45 -82.2 16.95 -82.3 14.35 -80.35 Q12.75 -78.75 12.15 -76.9 L9.95 -74.7 8.1 -75.5 4.05 -72.1 7.55 -75.65 M10.2 -94.5 L8.2 -92.5 8.15 -92.6 7.85 -93.1 9.75 -94.3 10.2 -94.5 M7.5 -93.5 L7.05 -94.0 8.05 -95.0 8.15 -95.1 8.35 -95.45 8.95 -96.15 Q10.55 -97.7 12.6 -98.15 L7.5 -93.5 M3.6 -89.9 L3.7 -89.75 4.7 -88.95 -0.3 -83.95 -0.85 -83.75 -7.25 -79.7 -4.9 -82.05 3.6 -89.9 M-2.45 -64.85 L-0.6 -64.1 -10.5 -54.25 -11.25 -53.6 -13.7 -54.4 -9.45 -58.6 -9.35 -58.05 Q-7.4 -57.9 -4.9 -60.3 -2.45 -62.75 -2.45 -64.85 M-11.2 -73.65 L-7.4 -77.25 -5.25 -79.0 -10.75 -73.5 -11.0 -73.4 -11.2 -73.65 M-34.45 -52.25 L-25.55 -60.45 -22.0 -62.7 -21.3 -63.0 -22.4 -61.9 -31.8 -52.45 -32.6 -52.15 Q-35.5 -50.3 -38.4 -48.55 L-38.45 -48.5 -37.75 -49.2 -37.5 -49.45 -35.6 -51.2 -35.5 -51.25 Q-34.8 -51.6 -34.45 -52.25 M-25.55 -60.45 L-28.1 -58.8 -28.15 -58.8 -17.6 -69.35 -15.75 -70.45 -15.0 -70.15 Q-20.3 -65.25 -25.55 -60.45 M-39.3 -44.95 L-39.85 -44.45 -40.0 -44.4 -39.3 -44.95 M-22.3 -44.45 L-11.25 -53.6 -11.2 -53.55 -21.75 -43.0 -22.4 -43.25 -22.3 -43.95 -22.3 -44.45 M-45.1 -39.85 L-53.45 -32.2 -54.05 -32.2 Q-55.2 -32.05 -55.3 -30.45 L-56.55 -29.35 -55.35 -30.1 -55.35 -30.05 -55.05 -29.2 -59.9 -24.35 -61.25 -24.95 -56.55 -29.35 -59.4 -27.55 -49.05 -37.9 -44.65 -40.65 -45.1 -39.85 M-45.55 -22.5 L-34.95 -33.1 -32.3 -32.45 -42.85 -21.85 -45.55 -22.5 M-65.6 -19.65 L-69.1 -17.5 -69.35 -17.45 -69.3 -17.45 -66.55 -20.05 Q-66.1 -19.8 -65.6 -19.65 M-54.65 -11.9 L-44.1 -20.65 -53.45 -11.3 -54.4 -11.55 -54.65 -11.9 M-58.05 -10.05 L-58.0 -9.1 -58.15 -9.0 -58.2 -9.9 -58.05 -10.05 M-25.65 -42.4 L-24.95 -42.25 -29.95 -38.15 -25.65 -42.4" fill="#e3ddd6" fill-rule="evenodd" stroke="none"/>
    <path d="M17.45 -82.2 L12.15 -76.9 Q12.75 -78.75 14.35 -80.35 L16.95 -82.3 17.45 -82.2 M7.05 -94.0 L7.5 -93.5 5.4 -91.6 3.3 -90.25 7.05 -94.0 M7.85 -93.1 L8.15 -92.6 8.2 -92.5 4.7 -88.95 3.7 -89.75 3.6 -89.9 5.4 -91.6 7.85 -93.1 M-3.05 -65.0 L-2.45 -64.85 Q-2.45 -62.75 -4.9 -60.3 -7.4 -57.9 -9.35 -58.05 L-9.45 -58.6 -3.05 -65.0 M-11.2 -73.65 L-11.0 -73.4 -11.4 -73.25 -12.35 -72.6 -15.0 -70.15 -15.75 -70.45 -12.35 -72.6 -11.2 -73.65 M-34.45 -52.25 Q-34.8 -51.6 -35.5 -51.25 L-35.6 -51.2 -34.45 -52.25 M-22.3 -44.45 L-22.3 -43.95 -22.4 -43.25 -23.4 -43.55 -24.95 -42.25 -25.65 -42.4 -24.3 -43.75 -23.4 -43.55 -22.3 -44.45 M-42.35 -41.9 L-43.15 -41.6 -43.5 -41.35 -45.1 -39.85 -44.65 -40.65 -43.5 -41.35 -41.85 -42.85 -40.0 -44.4 -39.85 -44.45 -42.35 -41.9 M-53.45 -32.2 L-55.3 -30.45 Q-55.2 -32.05 -54.05 -32.2 L-53.45 -32.2 M-55.35 -30.1 L-53.75 -31.05 -52.85 -31.4 -53.1 -31.2 -55.05 -29.2 -55.35 -30.05 -55.35 -30.1 M-61.25 -24.95 L-59.9 -24.35 -63.55 -20.75 -64.35 -20.45 -65.6 -19.65 Q-66.1 -19.8 -66.55 -20.05 L-61.25 -24.95 M-56.2 -11.9 L-54.9 -11.7 -54.65 -11.9 -54.4 -11.55 -54.9 -11.7 -58.0 -9.1 -58.05 -10.05 -56.2 -11.9" fill="#dbd5cf" fill-rule="evenodd" stroke="none"/>
    <path d="M7.5 -95.95 L7.55 -96.05 8.25 -96.85 Q10.9 -99.4 14.6 -99.4 L15.1 -99.4 15.45 -99.35 15.75 -99.35 15.85 -99.35 17.6 -98.9 18.15 -98.7 17.25 -97.95 14.6 -98.4 14.1 -98.35 12.6 -98.15 12.8 -98.35 9.5 -97.8 7.5 -95.95 M19.85 -97.7 L20.3 -97.35 20.85 -96.85 22.05 -95.35 22.1 -95.3 22.9 -93.65 22.1 -93.0 21.45 -94.45 21.4 -94.55 21.35 -94.6 20.15 -96.15 20.1 -96.2 20.05 -96.25 19.5 -96.75 18.9 -97.15 18.15 -97.6 Q18.05 -97.65 18.05 -97.65 L19.4 -98.0 19.85 -97.7 M23.05 -87.8 L23.1 -87.85 22.8 -87.1 21.7 -85.2 21.6 -85.05 20.7 -85.15 20.5 -85.25 21.35 -86.4 23.05 -87.8 M11.15 -74.5 L0.6 -63.95 -0.5 -64.05 -0.6 -64.1 9.95 -74.7 10.1 -74.6 11.15 -74.5 M-0.05 -63.3 L-9.85 -53.45 -11.05 -53.5 -11.2 -53.55 -10.5 -54.25 -0.05 -63.3 M-20.4 -42.9 L-30.95 -32.35 -32.2 -32.4 -32.3 -32.45 -21.75 -43.0 -21.65 -42.95 -20.4 -42.9 M-33.25 -30.1 L-41.45 -21.9 -42.65 -21.85 -33.25 -30.1 M-51.95 -11.35 L-61.2 -2.15 Q-61.35 -2.0 -61.55 -2.0 L-61.65 -2.0 -62.95 -1.15 -63.8 -0.75 -66.9 -0.25 -67.15 -0.25 Q-70.65 -0.35 -73.15 -2.8 -75.65 -5.4 -75.65 -9.0 L-75.65 -9.1 -75.65 -9.2 -75.6 -9.5 -75.65 -9.5 -75.45 -10.85 -75.1 -12.15 -73.95 -14.3 -73.9 -14.35 -73.75 -14.65 -67.6 -20.75 -64.25 -24.1 -63.1 -25.25 -63.05 -25.3 -59.4 -27.55 -63.1 -23.85 -66.8 -20.15 -69.6 -17.35 -69.55 -17.4 -69.3 -17.45 -69.35 -17.45 -69.1 -17.5 -66.9 -17.8 -66.5 -17.8 -66.2 -17.75 -65.4 -17.7 -64.2 -17.4 -63.05 -16.95 -62.95 -16.9 -62.8 -16.8 -62.7 -16.75 -60.75 -15.25 -60.35 -14.8 -59.5 -13.75 -58.8 -12.4 -58.65 -12.0 -58.55 -11.8 -58.2 -10.1 -58.2 -10.0 -58.2 -9.9 -58.15 -9.0 Q-58.15 -7.5 -58.6 -6.1 L-53.45 -11.3 -51.95 -11.35 M-56.35 -32.0 L-52.8 -35.55 -51.7 -36.25 -56.35 -32.0 M-42.25 -46.1 L-31.8 -56.5 -28.15 -58.8 -28.1 -58.8 -37.5 -49.45 -37.75 -49.2 -38.65 -48.4 -38.45 -48.5 -38.4 -48.55 -49.05 -37.9 -51.7 -36.25 -38.65 -48.4 -42.25 -46.1 M-22.7 -65.65 L-21.25 -67.05 -20.9 -67.3 -22.7 -65.65 M-10.8 -77.5 L-10.85 -77.45 -0.6 -87.7 -0.55 -87.75 3.25 -90.2 -4.9 -82.05 -7.75 -79.4 -10.8 -77.5 M-17.6 -69.35 L-20.9 -67.3 -7.75 -79.4 -7.25 -79.7 -17.6 -69.35 M-67.6 -10.15 L-67.5 -10.2 -66.65 -10.4 -66.4 -10.35 Q-65.55 -10.05 -65.5 -9.0 -65.5 -8.25 -66.15 -7.75 -66.45 -7.55 -66.85 -7.4 L-66.95 -7.4 -67.15 -7.4 -67.35 -7.45 Q-68.55 -7.6 -69.05 -8.3 L-69.45 -9.65 Q-69.5 -10.35 -69.2 -10.8 L-68.8 -11.35 -68.35 -11.6 -67.65 -11.85 -66.75 -11.95 -66.7 -11.95 -66.55 -11.9 -65.75 -11.7 -65.1 -11.35 -64.5 -10.55 -64.3 -10.15 -64.15 -9.3 -64.15 -9.15 -64.15 -8.95 Q-64.1 -7.45 -65.05 -6.65 L-65.9 -6.15 Q-66.35 -5.95 -66.95 -5.85 L-67.0 -5.85 -67.35 -5.85 Q-68.8 -5.9 -69.85 -6.85 L-69.9 -6.9 -70.05 -7.05 -70.35 -7.3 -70.65 -7.75 -71.05 -9.4 -71.05 -9.5 -71.05 -9.6 -70.8 -11.0 -70.55 -11.5 -70.3 -11.9 -70.25 -11.9 -70.25 -11.95 -70.1 -12.1 -69.95 -12.3 -69.9 -12.35 Q-68.75 -13.45 -66.95 -13.45 L-66.1 -13.35 -64.95 -12.95 -64.05 -12.25 -64.0 -12.2 Q-63.25 -11.4 -62.9 -10.35 L-62.7 -9.35 Q-62.4 -7.2 -63.75 -5.95 L-64.0 -5.65 -64.8 -5.05 Q-65.75 -4.6 -66.85 -4.55 L-67.1 -4.5 -67.4 -4.5 -68.15 -4.6 -68.85 -4.75 -69.5 -5.0 -69.75 -5.15 -70.55 -5.7 -70.65 -5.75 Q-72.3 -7.1 -72.5 -9.3 L-72.5 -9.4 -72.5 -10.15 -72.45 -10.3 -72.4 -10.85 -72.15 -11.45 -71.85 -12.05 -71.6 -12.45 -71.3 -12.85 -71.25 -12.85 -70.85 -13.25 -70.5 -13.5 -70.3 -13.7 -69.95 -13.9 -69.75 -14.05 Q-68.4 -14.8 -66.8 -14.75 L-66.75 -14.75 -65.0 -14.45 Q-63.95 -14.1 -63.05 -13.2 L-62.9 -13.05 Q-62.2 -12.35 -61.8 -11.5 -61.2 -10.35 -61.15 -9.0 -61.15 -7.6 -61.65 -6.4 L-62.0 -5.75 -62.65 -4.9 -62.95 -4.6 -63.75 -4.0 -64.0 -3.85 -64.3 -3.7 -64.6 -3.55 -64.85 -3.5 -66.55 -3.2 -66.6 -3.2 -66.7 -3.2 -66.8 -3.2 -66.95 -3.2 -67.65 -3.25 -68.0 -3.3 Q-70.0 -3.6 -71.7 -4.9 L-72.0 -5.15 -72.5 -5.6 -72.85 -6.05 -73.35 -6.8 -73.95 -9.4 -73.95 -9.45 -73.9 -10.25 -73.9 -10.55 Q-73.75 -11.95 -72.95 -13.15 L-72.35 -13.95 -72.05 -14.25 Q-70.45 -15.9 -68.1 -16.15 L-67.1 -16.25 -67.0 -16.25 Q-65.3 -16.25 -63.9 -15.6 -62.8 -15.05 -61.85 -14.1 L-61.65 -13.9 -61.15 -13.35 -61.05 -13.2 -60.75 -12.7 -60.65 -12.6 Q-59.7 -11.05 -59.7 -9.05 L-59.7 -8.35 -59.7 -8.3 -59.75 -7.95 -59.8 -7.6 Q-60.15 -5.55 -61.6 -3.85 L-61.9 -3.55 -62.65 -2.9 Q-64.4 -1.7 -66.85 -1.7 L-67.1 -1.7 -67.5 -1.7 -68.4 -1.8 -68.65 -1.85 -70.9 -2.6 -71.9 -3.2 -72.35 -3.5 -72.75 -3.8 -72.9 -3.95 -73.9 -5.0 -72.65 -3.3 -72.1 -2.8 Q-70.7 -1.65 -68.95 -1.2 L-67.25 -0.95 -66.9 -0.95 -65.4 -1.05 Q-63.65 -1.4 -62.2 -2.45 L-61.25 -3.3 -60.25 -4.5 Q-59.1 -6.2 -58.9 -8.35 L-58.9 -9.0 -58.9 -9.2 -58.9 -9.4 -58.9 -9.6 -59.3 -11.6 -59.55 -12.25 -59.7 -12.6 -59.85 -12.95 -60.0 -13.15 -60.05 -13.25 -60.95 -14.4 -61.25 -14.75 -63.25 -16.2 Q-64.6 -16.9 -66.2 -17.0 L-66.9 -17.05 -67.25 -17.05 -67.75 -17.0 -70.1 -16.4 -70.8 -16.05 -70.85 -16.0 -71.0 -15.95 -71.7 -15.5 -72.65 -14.75 -72.85 -14.5 -73.4 -13.85 -73.5 -13.7 -73.5 -13.6 -73.55 -13.55 Q-74.55 -11.95 -74.65 -10.0 L-74.65 -9.9 -74.65 -9.65 Q-74.7 -6.7 -72.7 -4.7 L-72.6 -4.6 -72.45 -4.5 -71.65 -3.85 -71.45 -3.7 -68.45 -2.55 -67.7 -2.45 -67.45 -2.4 -67.05 -2.4 -66.9 -2.4 -66.25 -2.4 -66.0 -2.4 -63.95 -2.95 -63.55 -3.15 -63.45 -3.2 -63.4 -3.25 -63.25 -3.35 -63.15 -3.4 -62.4 -4.05 -62.15 -4.3 Q-61.4 -5.2 -61.0 -6.15 L-60.75 -6.8 -60.55 -7.55 Q-60.4 -8.3 -60.4 -9.05 -60.45 -10.7 -61.2 -12.1 L-61.85 -13.05 -62.25 -13.5 -62.35 -13.6 -64.4 -15.05 Q-65.6 -15.55 -67.0 -15.55 L-68.05 -15.45 -69.0 -15.25 Q-70.5 -14.8 -71.55 -13.7 L-71.8 -13.4 -72.4 -12.6 -72.75 -11.95 -72.95 -11.5 -73.0 -11.3 -73.0 -11.25 -73.15 -10.55 -73.25 -9.55 -73.25 -9.45 Q-73.25 -8.35 -72.85 -7.45 -72.35 -6.35 -71.3 -5.5 L-70.4 -4.85 -70.05 -4.65 -69.25 -4.35 -68.95 -4.25 -68.4 -4.1 -67.95 -4.0 -67.5 -3.95 -66.95 -3.95 Q-65.4 -3.9 -64.3 -4.55 L-63.45 -5.1 -63.2 -5.4 Q-61.85 -6.95 -61.9 -8.95 -61.95 -10.05 -62.3 -10.95 -62.7 -11.85 -63.4 -12.55 L-63.5 -12.65 -63.55 -12.7 -63.65 -12.8 -63.95 -13.05 Q-64.75 -13.65 -65.6 -13.85 L-66.8 -14.05 Q-68.85 -14.1 -70.4 -12.7 L-70.75 -12.35 -71.35 -11.55 -71.45 -11.35 -71.55 -11.15 Q-71.85 -10.4 -71.8 -9.45 -71.7 -8.0 -70.85 -6.95 L-70.2 -6.3 -69.8 -6.0 -68.0 -5.3 -66.9 -5.3 -66.85 -5.3 -65.35 -5.6 -64.55 -6.15 -64.25 -6.45 Q-63.2 -7.5 -63.4 -9.25 L-63.4 -9.3 -63.45 -9.8 Q-63.75 -10.95 -64.6 -11.75 -65.35 -12.5 -66.4 -12.7 L-66.75 -12.75 -66.95 -12.75 -67.2 -12.75 -68.85 -12.25 -69.25 -11.95 -69.35 -11.85 -69.4 -11.85 -69.8 -11.4 -70.25 -10.45 -70.35 -9.6 -70.3 -9.1 -70.2 -8.65 -69.75 -7.75 -69.4 -7.4 Q-68.5 -6.65 -67.35 -6.6 L-67.1 -6.6 -66.5 -6.75 Q-65.95 -6.9 -65.6 -7.2 -65.05 -7.65 -64.9 -8.4 L-64.85 -8.95 Q-64.9 -10.3 -65.75 -10.85 L-66.8 -11.2 -67.35 -11.15 -67.5 -11.15 -67.6 -11.1 -68.25 -10.8 -68.3 -10.8 -68.65 -10.25 -68.7 -9.65 -68.7 -9.55 -68.6 -9.15 -68.45 -8.8 -68.25 -8.6 -68.05 -8.4 -67.9 -8.3 -67.1 -8.1 -67.05 -8.1 -66.65 -8.25 Q-66.3 -8.55 -66.25 -8.95 -66.3 -9.55 -66.75 -9.65 L-66.8 -9.65 -67.1 -9.65 -67.25 -9.25 -67.35 -8.95 -67.55 -8.9 -67.65 -8.9 Q-67.8 -8.9 -67.9 -9.0 L-67.95 -9.15 -68.0 -9.25 -68.0 -9.3 -67.95 -9.55 -67.6 -10.15 M-44.1 -20.65 L-42.85 -21.85 -42.8 -21.85 -42.65 -21.85 -44.1 -20.65" fill="#2d7aa8" fill-rule="evenodd" stroke="none"/>
    <path d="M14.1 -98.35 L14.6 -98.4 17.25 -97.95 16.05 -97.05 17.15 -97.4 18.05 -97.65 Q18.05 -97.65 18.15 -97.6 L7.6 -87.05 6.5 -86.75 1.6 -84.8 5.9 -88.45 8.9 -90.95 16.05 -97.05 10.2 -94.5 14.1 -98.35 M21.35 -94.6 L21.4 -94.55 21.45 -94.45 22.1 -93.0 20.35 -91.65 18.45 -90.25 14.2 -87.45 15.3 -87.1 15.15 -86.95 16.5 -86.4 16.6 -86.55 18.15 -86.2 7.55 -75.65 5.85 -75.95 5.7 -75.85 4.45 -76.3 3.45 -75.3 4.45 -76.35 3.55 -76.8 14.05 -87.35 14.2 -87.45 21.35 -94.6 M-7.15 -66.1 L-6.3 -65.65 -5.5 -65.45 -4.85 -65.2 -4.75 -65.3 -4.3 -65.25 -3.2 -66.1 4.05 -72.1 -3.05 -65.0 -4.3 -65.25 -8.25 -61.9 -8.85 -61.3 -9.1 -61.1 -16.4 -55.55 -16.8 -55.1 -16.4 -55.6 -17.1 -55.1 -16.95 -55.0 -15.55 -54.5 -15.4 -54.65 -13.7 -54.4 -24.3 -43.75 -26.2 -44.0 -26.3 -43.9 -27.65 -44.3 -28.0 -43.95 -27.65 -44.35 -28.55 -44.75 -20.3 -53.0 -17.1 -55.1 -17.85 -55.45 -7.15 -66.1 M-5.25 -79.0 L-0.3 -83.95 1.6 -84.8 -5.25 -79.0 M-10.75 -73.5 L-4.2 -76.15 -4.15 -76.15 -3.05 -76.45 -10.55 -68.95 -14.55 -65.8 -14.65 -65.7 -14.85 -65.5 -13.65 -65.8 -24.35 -55.15 -25.55 -54.85 -29.25 -53.45 -23.2 -58.55 -17.5 -63.35 -15.0 -65.5 -18.6 -64.1 -21.3 -63.0 -10.75 -73.5 M-31.8 -52.45 L-29.25 -53.45 -39.3 -44.95 -31.8 -52.45 M-37.8 -43.65 L-36.25 -44.2 -36.2 -44.2 -34.95 -44.5 -44.7 -34.8 -44.7 -34.75 -45.95 -33.8 -46.9 -33.6 -52.15 -31.7 -52.85 -31.4 -42.35 -41.9 -37.8 -43.65 M-53.75 -27.45 L-50.3 -30.35 -49.3 -31.2 -49.2 -31.25 -45.95 -33.8 -45.6 -33.85 -56.2 -23.25 -57.55 -22.95 -58.45 -22.65 -60.25 -22.05 -63.45 -19.35 -65.4 -17.7 -66.2 -17.75 -66.5 -17.8 -63.55 -20.75 -60.25 -22.05 -58.7 -23.3 -53.75 -27.45 M-34.95 -33.1 L-35.85 -33.25 -43.05 -27.2 -43.7 -26.55 -47.25 -23.8 -48.5 -22.85 -49.05 -23.0 -49.9 -23.4 -39.2 -34.05 -38.35 -33.7 -36.9 -33.2 -36.8 -33.3 -35.85 -33.25 -29.95 -38.15 -34.95 -33.1 M-48.0 -22.75 L-47.55 -22.6 Q-47.45 -22.6 -47.45 -22.75 L-45.55 -22.5 -56.2 -11.9 -57.7 -12.0 -58.35 -12.05 -58.35 -11.95 -58.65 -12.0 -58.8 -12.4 -59.5 -13.75 -54.7 -18.55 -51.25 -20.85 -49.1 -22.4 -48.5 -22.85 -48.0 -22.75 M-28.0 -43.95 L-28.7 -43.25 -28.0 -43.95" fill="#73c2f1" fill-rule="evenodd" stroke="none"/>
    <path d="M12.6 -98.15 L14.1 -98.35 10.2 -94.5 9.75 -94.3 7.85 -93.1 5.4 -91.6 3.6 -89.9 -4.9 -82.05 3.25 -90.2 3.3 -90.25 5.4 -91.6 7.5 -93.5 12.6 -98.15 M18.15 -86.2 L20.15 -85.45 21.35 -86.4 20.5 -85.25 20.15 -85.45 8.1 -75.5 7.55 -75.65 18.15 -86.2 M4.05 -72.1 L8.1 -75.5 9.95 -74.7 -0.6 -64.1 -2.45 -64.85 -3.05 -65.0 4.05 -72.1 M-7.25 -79.7 L-0.85 -83.75 -0.3 -83.95 -5.25 -79.0 -7.4 -77.25 -11.2 -73.65 -12.35 -72.6 -15.75 -70.45 -17.6 -69.35 -7.25 -79.7 M-11.0 -73.4 L-10.75 -73.5 -21.3 -63.0 -22.0 -62.7 -25.55 -60.45 -34.45 -52.25 -35.6 -51.2 -37.5 -49.45 -28.1 -58.8 -25.55 -60.45 Q-20.3 -65.25 -15.0 -70.15 L-12.35 -72.6 -11.4 -73.25 -11.0 -73.4 M-38.4 -48.55 Q-35.5 -50.3 -32.6 -52.15 L-31.8 -52.45 -39.3 -44.95 -40.0 -44.4 -41.85 -42.85 -43.5 -41.35 -43.15 -41.6 -42.35 -41.9 -52.85 -31.4 -53.75 -31.05 -55.35 -30.1 -56.55 -29.35 -55.3 -30.45 -53.45 -32.2 -45.1 -39.85 -43.5 -41.35 -44.65 -40.65 -49.05 -37.9 -38.4 -48.55 M-11.2 -53.55 L-11.25 -53.6 -22.3 -44.45 -23.4 -43.55 -24.3 -43.75 -13.7 -54.4 -11.25 -53.6 -10.5 -54.25 -11.2 -53.55 M-22.4 -43.25 L-21.75 -43.0 -32.3 -32.45 -34.95 -33.1 -29.95 -38.15 -24.95 -42.25 -23.4 -43.55 -22.4 -43.25 M-59.4 -27.55 L-56.55 -29.35 -61.25 -24.95 -66.55 -20.05 -69.3 -17.45 -69.55 -17.4 -69.6 -17.35 -66.8 -20.15 -63.1 -23.85 -59.4 -27.55 M-65.6 -19.65 L-64.35 -20.45 -63.55 -20.75 -66.5 -17.8 -66.9 -17.8 -69.1 -17.5 -65.6 -19.65 M-42.85 -21.85 L-44.1 -20.65 -54.65 -11.9 -54.9 -11.7 -56.2 -11.9 -45.55 -22.5 -42.85 -21.85 M-58.0 -9.1 L-54.9 -11.7 -54.4 -11.55 -53.45 -11.3 -58.6 -6.1 Q-58.15 -7.5 -58.15 -9.0 L-58.0 -9.1" fill="#60b5e8" fill-rule="evenodd" stroke="none"/>
    <path d="M18.15 -97.6 L18.9 -97.15 19.5 -96.75 20.05 -96.25 20.1 -96.2 20.15 -96.15 21.35 -94.6 14.2 -87.45 12.1 -87.95 7.6 -87.05 18.15 -97.6 M14.05 -87.35 L3.55 -76.8 3.1 -76.95 1.4 -77.3 -0.25 -77.1 -1.4 -76.15 -10.55 -68.95 -3.05 -76.45 -2.3 -76.6 -0.25 -77.1 5.1 -81.25 6.25 -82.15 6.35 -82.2 14.05 -87.35 M-24.35 -55.15 L-13.65 -65.8 -9.35 -66.6 Q-8.15 -66.55 -7.15 -66.1 L-17.85 -55.45 -18.95 -55.75 -20.05 -55.95 -22.4 -55.55 -24.35 -55.15 M-25.25 -49.65 L-20.3 -53.0 -28.55 -44.75 -28.65 -44.8 -30.75 -45.25 -31.45 -45.2 -39.0 -39.25 -44.7 -34.8 -34.95 -44.5 -31.45 -45.2 -29.65 -46.6 -28.65 -47.35 -28.55 -47.45 -25.25 -49.65 M-39.2 -34.05 L-49.9 -23.4 -51.5 -23.8 -52.2 -23.9 -56.2 -23.25 -45.6 -33.85 -41.5 -34.55 -39.2 -34.05 M-54.7 -18.55 L-59.5 -13.75 -60.35 -14.8 -54.7 -18.55" fill="#89d3ff" fill-rule="evenodd" stroke="none"/>
    <path d="M-67.6 -10.15 L-67.95 -9.55 -68.0 -9.3 -68.0 -9.25 -67.95 -9.15 -67.9 -9.0 Q-67.8 -8.9 -67.65 -8.9 L-67.55 -8.9 -67.35 -8.95 -67.25 -9.25 -67.1 -9.65 -66.8 -9.65 -66.75 -9.65 Q-66.3 -9.55 -66.25 -8.95 -66.3 -8.55 -66.65 -8.25 L-67.05 -8.1 -67.1 -8.1 -67.9 -8.3 -68.05 -8.4 -68.25 -8.6 -68.45 -8.8 -68.6 -9.15 -68.7 -9.55 -68.7 -9.65 -68.65 -10.25 -68.3 -10.8 -68.25 -10.8 -67.6 -11.1 -67.5 -11.15 -67.35 -11.15 -66.8 -11.2 -65.75 -10.85 Q-64.9 -10.3 -64.85 -8.95 L-64.9 -8.4 Q-65.05 -7.65 -65.6 -7.2 -65.95 -6.9 -66.5 -6.75 L-67.1 -6.6 -67.35 -6.6 Q-68.5 -6.65 -69.4 -7.4 L-69.75 -7.75 -70.2 -8.65 -70.3 -9.1 -70.35 -9.6 -70.25 -10.45 -69.8 -11.4 -69.4 -11.85 -69.35 -11.85 -69.25 -11.95 -68.85 -12.25 -67.2 -12.75 -66.95 -12.75 -66.75 -12.75 -66.4 -12.7 Q-65.35 -12.5 -64.6 -11.75 -63.75 -10.95 -63.45 -9.8 L-63.4 -9.3 -63.4 -9.25 Q-63.2 -7.5 -64.25 -6.45 L-64.55 -6.15 -65.35 -5.6 -66.85 -5.3 -66.9 -5.3 -68.0 -5.3 -69.8 -6.0 -70.2 -6.3 -70.85 -6.95 Q-71.7 -8.0 -71.8 -9.45 -71.85 -10.4 -71.55 -11.15 L-71.45 -11.35 -71.35 -11.55 -70.75 -12.35 -70.4 -12.7 Q-68.85 -14.1 -66.8 -14.05 L-65.6 -13.85 Q-64.75 -13.65 -63.95 -13.05 L-63.65 -12.8 -63.55 -12.7 -63.5 -12.65 -63.4 -12.55 Q-62.7 -11.85 -62.3 -10.95 -61.95 -10.05 -61.9 -8.95 -61.85 -6.95 -63.2 -5.4 L-63.45 -5.1 -64.3 -4.55 Q-65.4 -3.9 -66.95 -3.95 L-67.5 -3.95 -67.95 -4.0 -68.4 -4.1 -68.95 -4.25 -69.25 -4.35 -70.05 -4.65 -70.4 -4.85 -71.3 -5.5 Q-72.35 -6.35 -72.85 -7.45 -73.25 -8.35 -73.25 -9.45 L-73.25 -9.55 -73.15 -10.55 -73.0 -11.25 -73.0 -11.3 -72.95 -11.5 -72.75 -11.95 -72.4 -12.6 -71.8 -13.4 -71.55 -13.7 Q-70.5 -14.8 -69.0 -15.25 L-68.05 -15.45 -67.0 -15.55 Q-65.6 -15.55 -64.4 -15.05 L-62.35 -13.6 -62.25 -13.5 -61.85 -13.05 -61.2 -12.1 Q-60.45 -10.7 -60.4 -9.05 -60.4 -8.3 -60.55 -7.55 L-60.75 -6.8 -61.0 -6.15 Q-61.4 -5.2 -62.15 -4.3 L-62.4 -4.05 -63.15 -3.4 -63.25 -3.35 -63.4 -3.25 -63.45 -3.2 -63.55 -3.15 -63.95 -2.95 -66.0 -2.4 -66.25 -2.4 -66.9 -2.4 -67.05 -2.4 -67.45 -2.4 -67.7 -2.45 -68.45 -2.55 -71.45 -3.7 -71.65 -3.85 -72.45 -4.5 -72.6 -4.6 -72.7 -4.7 Q-74.7 -6.7 -74.65 -9.65 L-74.65 -9.9 -74.65 -10.0 Q-74.55 -11.95 -73.55 -13.55 L-73.5 -13.6 -73.5 -13.7 -73.4 -13.85 -72.85 -14.5 -72.65 -14.75 -71.7 -15.5 -71.0 -15.95 -70.85 -16.0 -70.8 -16.05 -70.1 -16.4 -67.75 -17.0 -67.25 -17.05 -66.9 -17.05 -66.2 -17.0 Q-64.6 -16.9 -63.25 -16.2 L-61.25 -14.75 -60.95 -14.4 -60.05 -13.25 -60.0 -13.15 -59.85 -12.95 -59.7 -12.6 -59.55 -12.25 -59.3 -11.6 -58.9 -9.6 -58.9 -9.4 -58.9 -9.2 -58.9 -9.0 -58.9 -8.35 Q-59.1 -6.2 -60.25 -4.5 L-61.25 -3.3 -62.2 -2.45 Q-63.65 -1.4 -65.4 -1.05 L-66.9 -0.95 -67.25 -0.95 -68.95 -1.2 Q-70.7 -1.65 -72.1 -2.8 L-72.65 -3.3 -73.9 -5.0 -72.9 -3.95 -72.75 -3.8 -72.35 -3.5 -71.9 -3.2 -70.9 -2.6 -68.65 -1.85 -68.4 -1.8 -67.5 -1.7 -67.1 -1.7 -66.85 -1.7 Q-64.4 -1.7 -62.65 -2.9 L-61.9 -3.55 -61.6 -3.85 Q-60.15 -5.55 -59.8 -7.6 L-59.75 -7.95 -59.7 -8.3 -59.7 -8.35 -59.7 -9.05 Q-59.7 -11.05 -60.65 -12.6 L-60.75 -12.7 -61.05 -13.2 -61.15 -13.35 -61.65 -13.9 -61.85 -14.1 Q-62.8 -15.05 -63.9 -15.6 -65.3 -16.25 -67.0 -16.25 L-67.1 -16.25 -68.1 -16.15 Q-70.45 -15.9 -72.05 -14.25 L-72.35 -13.95 -72.95 -13.15 Q-73.75 -11.95 -73.9 -10.55 L-73.9 -10.25 -73.95 -9.45 -73.95 -9.4 -73.35 -6.8 -72.85 -6.05 -72.5 -5.6 -72.0 -5.15 -71.7 -4.9 Q-70.0 -3.6 -68.0 -3.3 L-67.65 -3.25 -66.95 -3.2 -66.8 -3.2 -66.7 -3.2 -66.6 -3.2 -66.55 -3.2 -64.85 -3.5 -64.6 -3.55 -64.3 -3.7 -64.0 -3.85 -63.75 -4.0 -62.95 -4.6 -62.65 -4.9 -62.0 -5.75 -61.65 -6.4 Q-61.15 -7.6 -61.15 -9.0 -61.2 -10.35 -61.8 -11.5 -62.2 -12.35 -62.9 -13.05 L-63.05 -13.2 Q-63.95 -14.1 -65.0 -14.45 L-66.75 -14.75 -66.8 -14.75 Q-68.4 -14.8 -69.75 -14.05 L-69.95 -13.9 -70.3 -13.7 -70.5 -13.5 -70.85 -13.25 -71.25 -12.85 -71.3 -12.85 -71.6 -12.45 -71.85 -12.05 -72.15 -11.45 -72.4 -10.85 -72.45 -10.3 -72.5 -10.15 -72.5 -9.4 -72.5 -9.3 Q-72.3 -7.1 -70.65 -5.75 L-70.55 -5.7 -69.75 -5.15 -69.5 -5.0 -68.85 -4.75 -68.15 -4.6 -67.4 -4.5 -67.1 -4.5 -66.85 -4.55 Q-65.75 -4.6 -64.8 -5.05 L-64.0 -5.65 -63.75 -5.95 Q-62.4 -7.2 -62.7 -9.35 L-62.9 -10.35 Q-63.25 -11.4 -64.0 -12.2 L-64.05 -12.25 -64.95 -12.95 -66.1 -13.35 -66.95 -13.45 Q-68.75 -13.45 -69.9 -12.35 L-69.95 -12.3 -70.1 -12.1 -70.25 -11.95 -70.25 -11.9 -70.3 -11.9 -70.55 -11.5 -70.8 -11.0 -71.05 -9.6 -71.05 -9.5 -71.05 -9.4 -70.65 -7.75 -70.35 -7.3 -70.05 -7.05 -69.9 -6.9 -69.85 -6.85 Q-68.8 -5.9 -67.35 -5.85 L-67.0 -5.85 -66.95 -5.85 Q-66.35 -5.95 -65.9 -6.15 L-65.05 -6.65 Q-64.1 -7.45 -64.15 -8.95 L-64.15 -9.15 -64.15 -9.3 -64.3 -10.15 -64.5 -10.55 -65.1 -11.35 -65.75 -11.7 -66.55 -11.9 -66.7 -11.95 -66.75 -11.95 -67.65 -11.85 -68.35 -11.6 -68.8 -11.35 -69.2 -10.8 Q-69.5 -10.35 -69.45 -9.65 L-69.05 -8.3 Q-68.55 -7.6 -67.35 -7.45 L-67.15 -7.4 -66.95 -7.4 -66.85 -7.4 Q-66.45 -7.55 -66.15 -7.75 -65.5 -8.25 -65.5 -9.0 -65.55 -10.05 -66.4 -10.35 L-66.65 -10.4 -67.5 -10.2 -67.6 -10.15" fill="#154f72" fill-rule="evenodd" stroke="none"/>
  </g>
</svg>
