<?xml version="1.0" encoding="UTF-8" standalone="no"?>
<svg xmlns:ffdec="https://www.free-decompiler.com/flash" xmlns:xlink="http://www.w3.org/1999/xlink" ffdec:objectType="shape" height="6.35px" width="6.3px" xmlns="http://www.w3.org/2000/svg">
  <g transform="matrix(1.0, 0.0, 0.0, 1.0, -10.75, -2.65)">
    <path d="M14.55 3.3 L15.1 4.65 17.05 5.5 15.4 6.85 15.25 9.0 13.4 7.85 12.85 8.0 Q13.0 7.15 12.6 6.2 12.15 5.1 12.85 4.3 L12.9 4.3 13.1 4.1 Q13.55 3.65 14.35 3.35 L14.55 3.3" fill="#e0e0e0" fill-rule="evenodd" stroke="none"/>
    <path d="M12.85 8.0 L11.35 8.35 11.85 6.25 10.75 4.45 12.85 4.3 Q12.15 5.1 12.6 6.2 13.0 7.15 12.85 8.0 M13.1 4.1 L14.25 2.65 14.55 3.3 14.35 3.35 Q13.55 3.65 13.1 4.1" fill="#ffffff" fill-rule="evenodd" stroke="none"/>
  </g>
</svg>
