<?xml version="1.0" encoding="UTF-8" standalone="no"?>
<svg xmlns:ffdec="https://www.free-decompiler.com/flash" xmlns:xlink="http://www.w3.org/1999/xlink" ffdec:objectType="shape" height="9.6px" width="36.85px" xmlns="http://www.w3.org/2000/svg">
  <g transform="matrix(1.0, 0.0, 0.0, 1.0, 18.15, -24.75)">
    <path d="M16.95 26.6 Q17.45 26.8 17.85 27.25 18.25 27.8 18.35 28.8 L17.6 30.35 Q16.7 30.85 15.55 30.9 L14.9 30.75 14.2 30.05 Q13.9 28.95 14.05 27.55 L14.2 27.3 14.8 26.75 16.95 26.6 M16.5 27.25 L15.25 27.35 Q14.75 27.65 14.65 28.3 14.35 28.85 14.7 29.35 14.9 30.0 15.6 30.1 L16.7 29.9 17.45 29.1 Q17.8 28.5 17.35 28.0 17.25 27.45 16.5 27.25" fill="#5c5c5c" fill-rule="evenodd" stroke="none"/>
    <path d="M16.5 27.25 Q17.25 27.45 17.35 28.0 17.8 28.5 17.45 29.1 L16.7 29.9 15.6 30.1 Q14.9 30.0 14.7 29.35 14.35 28.85 14.65 28.3 14.75 27.65 15.25 27.35 L16.5 27.25" fill="#ffffff" fill-rule="evenodd" stroke="none"/>
    <path d="M17.85 27.25 L18.35 26.0 16.95 26.6 14.8 26.75 14.2 27.3 14.05 27.55 12.7 27.8 10.6 27.65 9.6 27.35 Q10.0 29.85 10.4 30.1 L10.75 30.15 11.9 30.4 13.0 30.35 14.2 30.05 14.9 30.75 13.1 31.0 9.55 30.5 Q8.8 29.85 8.5 29.0 L8.45 28.45 7.6 30.55 7.15 30.9 6.2 31.5 4.45 32.0 3.6 32.1 0.65 32.25 -3.4 31.65 -4.35 31.0 -4.15 29.6 -3.75 28.0 -3.1 27.85 -2.8 28.2 -0.2 28.9 3.7 29.1 7.05 27.85 7.9 27.45 Q8.3 27.3 8.45 27.75 L8.45 27.9 8.55 25.65 9.75 26.1 10.2 26.15 14.2 26.55 16.4 26.1 18.4 24.75 Q18.75 25.05 18.7 26.65 18.8 28.35 18.35 28.8 18.25 27.8 17.85 27.25 M5.4 30.8 Q6.3 30.2 7.3 28.4 L5.65 29.15 2.7 30.1 0.1 30.25 -1.8 29.9 Q-2.9 29.35 -3.3 29.45 L-3.5 29.75 -2.25 31.55 -1.1 31.85 0.25 31.95 4.55 31.4 5.4 30.8 M-6.2 28.2 L-5.5 29.0 Q-5.05 30.05 -5.05 31.1 L-4.85 30.95 -5.1 32.25 -5.1 33.85 -5.25 33.8 -5.9 34.35 -7.1 34.2 -8.3 33.1 -7.25 32.65 -6.65 33.35 -6.35 32.15 -5.2 31.6 -6.2 28.2 M-12.4 30.75 L-13.8 30.75 Q-14.85 31.1 -15.85 31.6 L-18.0 32.2 -18.05 32.0 Q-18.3 30.9 -17.9 30.0 L-17.0 28.85 Q-16.1 27.8 -15.4 27.3 L-13.3 26.1 -11.9 26.2 -10.35 26.6 -11.75 27.2 -12.65 27.15 -14.0 27.4 Q-15.3 28.3 -16.5 29.75 L-16.95 30.7 -14.75 29.75 -12.7 29.45 -12.4 30.75" fill="#462c09" fill-rule="evenodd" stroke="none"/>
    <path d="M16.95 26.6 L18.35 26.0 17.85 27.25 Q17.45 26.8 16.95 26.6 M14.2 30.05 L13.0 30.35 11.9 30.4 10.75 30.15 10.4 30.1 Q10.0 29.85 9.6 27.35 L10.6 27.65 12.7 27.8 14.05 27.55 Q13.9 28.95 14.2 30.05 M5.4 30.8 L4.55 31.4 0.25 31.95 -1.1 31.85 -2.25 31.55 -3.5 29.75 -3.3 29.45 Q-2.9 29.35 -1.8 29.9 L0.1 30.25 2.7 30.1 5.65 29.15 7.3 28.4 Q6.3 30.2 5.4 30.8 M-12.95 27.7 L-13.15 28.05 -12.7 29.45 -14.75 29.75 -16.95 30.7 -16.5 29.75 Q-15.3 28.3 -14.0 27.4 L-12.65 27.15 -12.95 27.7 M-7.25 32.65 L-6.35 32.15 -6.65 33.35 -7.25 32.65" fill="#d5981a" fill-rule="evenodd" stroke="none"/>
    <path d="M-8.2 26.5 Q-9.3 26.1 -10.35 26.9 -11.4 27.65 -11.95 29.1 L-11.05 32.0 -10.8 33.05 -6.75 31.3 Q-6.1 29.75 -6.55 28.3 -7.0 26.95 -8.2 26.5 M-10.35 26.6 L-7.05 25.25 -6.2 28.2 -5.2 31.6 -6.35 32.15 -7.25 32.65 -8.3 33.1 -8.55 33.2 -11.35 34.15 -12.4 30.75 -12.7 29.45 -13.15 28.05 -12.95 27.7 -11.75 27.2 -10.35 26.6" fill="#612747" fill-rule="evenodd" stroke="none"/>
    <path d="M-9.25 29.75 L-8.2 26.5 Q-7.0 26.95 -6.55 28.3 -6.1 29.75 -6.75 31.3 L-9.25 29.75" fill="#bd5991" fill-rule="evenodd" stroke="none"/>
    <path d="M-9.55 29.7 L-9.25 29.75 -6.75 31.3 -10.8 33.05 -11.05 32.0 -9.55 29.7" fill="#712d52" fill-rule="evenodd" stroke="none"/>
    <path d="M-8.2 26.5 L-9.25 29.75 -9.55 29.7 -11.95 29.1 Q-11.4 27.65 -10.35 26.9 -9.3 26.1 -8.2 26.5" fill="#d799bb" fill-rule="evenodd" stroke="none"/>
    <path d="M-11.95 29.1 L-9.55 29.7 -11.05 32.0 -11.95 29.1" fill="#8a3765" fill-rule="evenodd" stroke="none"/>
  </g>
</svg>
