<?xml version="1.0" encoding="UTF-8" standalone="no"?>
<svg xmlns:ffdec="https://www.free-decompiler.com/flash" xmlns:xlink="http://www.w3.org/1999/xlink" ffdec:objectType="shape" height="48.9px" width="38.8px" xmlns="http://www.w3.org/2000/svg">
  <g transform="matrix(1.0, 0.0, 0.0, 1.0, 18.0, 135.85)">
    <path d="M6.15 -106.75 Q6.15 -105.35 3.35 -104.1 1.0 -103.05 -1.0 -102.95 L-1.45 -102.95 -2.6 -103.05 -3.05 -103.15 Q-2.95 -104.3 -1.0 -108.45 L-0.35 -109.85 Q2.15 -115.25 3.05 -116.15 6.15 -114.15 6.15 -106.75 M1.9 -95.8 Q2.9 -94.8 2.9 -93.4 2.9 -92.0 1.9 -91.0 0.9 -90.0 -0.55 -90.0 -2.0 -90.0 -3.0 -91.0 -4.0 -92.0 -4.0 -93.4 -4.0 -94.8 -3.0 -95.8 -2.0 -96.8 -0.55 -96.8 0.9 -96.8 1.9 -95.8" fill="#ffffff" fill-rule="evenodd" stroke="none"/>
    <path d="M-2.45 -121.65 L-2.0 -121.75 -1.5 -121.9 Q-0.15 -122.35 1.05 -123.25 L3.25 -125.3 Q4.4 -124.5 5.95 -122.25 8.95 -117.95 8.95 -112.95 8.95 -112.45 8.5 -112.6 8.0 -112.75 8.0 -112.25 8.0 -110.85 9.0 -108.35 L9.9 -108.65 Q10.35 -106.6 6.5 -103.25 3.3 -100.55 0.1 -99.05 L0.5 -98.75 Q1.7 -97.9 5.25 -97.05 9.15 -96.15 10.4 -96.4 L2.35 -89.85 Q0.55 -88.3 -0.55 -86.95 L-5.8 -86.95 -8.9 -87.65 Q-8.2 -92.35 -7.8 -96.2 -7.35 -105.45 -6.55 -110.15 -5.65 -115.5 -3.35 -119.95 L-3.55 -119.95 -3.55 -120.35 Q-3.55 -120.9 -2.45 -121.65 M6.15 -106.75 Q6.15 -114.15 3.05 -116.15 2.15 -115.25 -0.35 -109.85 L-1.0 -108.45 Q-2.95 -104.3 -3.05 -103.15 L-2.6 -103.05 -1.45 -102.95 -1.0 -102.95 Q1.0 -103.05 3.35 -104.1 6.15 -105.35 6.15 -106.75 M7.6 -87.35 L7.0 -87.25 6.75 -86.95 4.15 -86.95 Q6.55 -88.35 9.5 -91.05 L8.15 -88.4 7.6 -87.35 M1.9 -95.8 Q0.9 -96.8 -0.55 -96.8 -2.0 -96.8 -3.0 -95.8 -4.0 -94.8 -4.0 -93.4 -4.0 -92.0 -3.0 -91.0 -2.0 -90.0 -0.55 -90.0 0.9 -90.0 1.9 -91.0 2.9 -92.0 2.9 -93.4 2.9 -94.8 1.9 -95.8" fill="#e0e0e0" fill-rule="evenodd" stroke="none"/>
    <path d="M-6.45 -123.4 L-5.5 -122.15 Q-4.4 -121.2 -2.45 -121.65 -3.55 -120.9 -3.55 -120.35 L-3.55 -119.95 -3.35 -119.95 Q-5.65 -115.5 -6.55 -110.15 -7.35 -105.45 -7.8 -96.2 -8.2 -92.35 -8.9 -87.65 L-12.75 -88.75 -15.35 -89.65 -14.65 -91.5 -12.65 -96.45 -13.05 -97.5 -13.5 -98.6 Q-13.5 -102.95 -10.9 -111.8 -8.9 -118.65 -6.45 -123.4 M3.25 -125.3 L4.75 -127.45 Q5.8 -129.3 5.85 -130.75 8.65 -127.6 10.85 -120.1 13.25 -111.9 15.15 -98.75 L15.2 -97.85 15.2 -97.55 17.7 -90.8 15.75 -88.75 14.0 -88.4 13.75 -89.4 Q13.3 -90.8 12.6 -91.35 L12.35 -91.0 12.2 -90.75 12.2 -90.1 Q12.2 -89.0 12.5 -88.15 L7.6 -87.35 8.15 -88.4 9.5 -91.05 Q6.55 -88.35 4.15 -86.95 L-0.55 -86.95 Q0.55 -88.3 2.35 -89.85 L10.4 -96.4 Q9.15 -96.15 5.25 -97.05 1.7 -97.9 0.5 -98.75 L0.1 -99.05 Q3.3 -100.55 6.5 -103.25 10.35 -106.6 9.9 -108.65 L9.0 -108.35 Q8.0 -110.85 8.0 -112.25 8.0 -112.75 8.5 -112.6 8.95 -112.45 8.95 -112.95 8.95 -117.95 5.95 -122.25 4.4 -124.5 3.25 -125.3 M10.75 -105.0 L9.4 -105.65 10.35 -101.25 11.05 -101.35 Q11.55 -101.65 11.55 -103.1 11.55 -104.3 10.75 -105.0 M10.65 -96.35 Q10.65 -95.35 10.95 -94.65 11.25 -93.95 11.65 -93.95 12.05 -93.95 12.35 -94.65 L12.65 -96.35 12.35 -98.05 11.7 -98.75 11.65 -98.75 Q11.25 -98.75 10.95 -98.05 10.65 -97.35 10.65 -96.35" fill="#b4b4b4" fill-rule="evenodd" stroke="none"/>
    <path d="M5.85 -130.75 L5.7 -131.7 Q5.5 -132.6 4.9 -133.3 6.35 -132.4 7.55 -130.9 10.35 -127.45 13.2 -118.7 L18.85 -98.75 19.7 -95.4 20.1 -93.95 18.2 -91.45 17.7 -90.8 15.2 -97.55 15.2 -97.85 15.15 -98.75 Q13.25 -111.9 10.85 -120.1 8.65 -127.6 5.85 -130.75 M-16.7 -90.25 L-12.2 -113.45 Q-9.9 -125.85 -9.15 -127.85 -8.5 -129.7 -5.35 -132.6 L-5.0 -132.85 Q-7.4 -129.9 -7.0 -125.6 -6.9 -124.3 -6.45 -123.4 -8.9 -118.65 -10.9 -111.8 -13.5 -102.95 -13.5 -98.6 L-13.05 -97.5 -12.65 -96.45 -14.65 -91.5 -15.35 -89.65 -16.7 -90.25 M10.65 -96.35 Q10.65 -97.35 10.95 -98.05 11.25 -98.75 11.65 -98.75 L11.7 -98.75 12.35 -98.05 12.65 -96.35 12.35 -94.65 Q12.05 -93.95 11.65 -93.95 11.25 -93.95 10.95 -94.65 10.65 -95.35 10.65 -96.35 M10.75 -105.0 Q11.55 -104.3 11.55 -103.1 11.55 -101.65 11.05 -101.35 L10.35 -101.25 9.4 -105.65 10.75 -105.0 M14.0 -88.4 L12.5 -88.15 Q12.2 -89.0 12.2 -90.1 L12.2 -90.75 12.35 -91.0 12.6 -91.35 Q13.3 -90.8 13.75 -89.4 L14.0 -88.4" fill="#8a8a8a" fill-rule="evenodd" stroke="none"/>
    <path d="M20.1 -93.95 L19.7 -95.4 18.85 -98.75 13.2 -118.7 Q10.35 -127.45 7.55 -130.9 6.35 -132.4 4.9 -133.3 5.5 -132.6 5.7 -131.7 L5.85 -130.75 Q5.8 -129.3 4.75 -127.45 L3.25 -125.3 1.05 -123.25 Q-0.15 -122.35 -1.5 -121.9 L-2.0 -121.75 -2.45 -121.65 Q-4.4 -121.2 -5.5 -122.15 L-6.45 -123.4 Q-6.9 -124.3 -7.0 -125.6 -7.4 -129.9 -5.0 -132.85 L-5.35 -132.6 Q-8.5 -129.7 -9.15 -127.85 -9.9 -125.85 -12.2 -113.45 L-16.7 -90.25 -18.0 -90.85 -13.4 -113.3 Q-11.3 -124.85 -9.8 -128.55 -7.35 -134.55 -2.8 -135.6 L-1.85 -135.8 -1.0 -135.85 -0.8 -135.85 -0.7 -135.85 Q2.1 -135.85 4.25 -134.9 6.25 -134.1 7.7 -132.5 10.8 -129.2 12.75 -124.0 14.7 -118.85 17.6 -107.85 L19.9 -98.75 20.8 -94.95 20.1 -93.95 M2.4 -133.5 L0.2 -134.15 -1.35 -134.05 Q-2.6 -133.75 -3.6 -132.6 -6.15 -129.8 -5.75 -125.7 L-5.65 -124.95 Q-5.4 -123.7 -4.75 -123.15 L-2.35 -122.95 -0.4 -123.8 1.95 -125.7 3.7 -128.1 3.65 -128.1 Q4.75 -130.05 4.5 -131.4 L4.05 -132.25 Q3.5 -133.0 2.4 -133.5" fill="#464646" fill-rule="evenodd" stroke="none"/>
  </g>
</svg>
