<?xml version="1.0" encoding="UTF-8" standalone="no"?>
<svg xmlns:ffdec="https://www.free-decompiler.com/flash" xmlns:xlink="http://www.w3.org/1999/xlink" ffdec:objectType="shape" height="48.85px" width="39.2px" xmlns="http://www.w3.org/2000/svg">
  <g transform="matrix(1.0, 0.0, 0.0, 1.0, 18.2, 135.85)">
    <path d="M6.15 -106.75 Q6.15 -105.35 3.35 -104.1 1.0 -103.05 -1.0 -102.95 L-1.45 -102.95 -2.6 -103.05 -3.05 -103.15 Q-2.95 -104.3 -1.0 -108.45 L-0.35 -109.85 Q2.15 -115.25 3.05 -116.15 6.15 -114.15 6.15 -106.75 M2.9 -93.4 Q2.9 -92.0 1.9 -91.0 0.9 -90.0 -0.55 -90.0 -2.0 -90.0 -3.0 -91.0 -4.0 -92.0 -4.0 -93.4 -4.0 -94.8 -3.0 -95.8 -2.0 -96.8 -0.55 -96.8 0.9 -96.8 1.9 -95.8 2.9 -94.8 2.9 -93.4" fill="#ffffff" fill-rule="evenodd" stroke="none"/>
    <path d="M-3.25 -115.9 L3.15 -125.35 Q4.3 -124.6 5.95 -122.25 8.95 -117.95 8.95 -112.95 8.95 -112.45 8.5 -112.6 8.0 -112.75 8.0 -112.25 8.0 -110.85 9.0 -108.35 L9.9 -108.65 Q10.35 -106.6 6.5 -103.25 3.3 -100.55 0.1 -99.05 L0.5 -98.75 Q1.7 -97.9 5.25 -97.05 9.15 -96.15 10.4 -96.4 L2.35 -89.85 -0.5 -87.0 -2.0 -87.0 -6.65 -87.15 -5.15 -103.1 Q-4.35 -110.85 -3.25 -115.9 M6.15 -106.75 Q6.15 -114.15 3.05 -116.15 2.15 -115.25 -0.35 -109.85 L-1.0 -108.45 Q-2.95 -104.3 -3.05 -103.15 L-2.6 -103.05 -1.45 -102.95 -1.0 -102.95 Q1.0 -103.05 3.35 -104.1 6.15 -105.35 6.15 -106.75 M7.8 -87.65 L5.7 -87.5 4.85 -87.4 Q7.0 -88.75 9.5 -91.05 L8.15 -88.4 7.8 -87.65 M-12.55 -87.9 L-14.7 -88.55 Q-14.5 -90.55 -13.7 -92.3 -12.6 -94.55 -10.9 -95.45 -10.5 -95.35 -10.4 -94.6 -10.45 -93.8 -11.75 -90.1 L-12.55 -87.9 M2.9 -93.4 Q2.9 -94.8 1.9 -95.8 0.9 -96.8 -0.55 -96.8 -2.0 -96.8 -3.0 -95.8 -4.0 -94.8 -4.0 -93.4 -4.0 -92.0 -3.0 -91.0 -2.0 -90.0 -0.55 -90.0 0.9 -90.0 1.9 -91.0 2.9 -92.0 2.9 -93.4" fill="#e0e0e0" fill-rule="evenodd" stroke="none"/>
    <path d="M-7.75 -120.6 Q-7.3 -117.4 -5.9 -113.8 L-5.85 -113.65 -9.55 -87.4 -11.15 -87.6 -12.55 -87.9 -11.75 -90.1 Q-10.45 -93.8 -10.4 -94.6 -10.5 -95.35 -10.9 -95.45 -12.6 -94.55 -13.7 -92.3 -14.5 -90.55 -14.7 -88.55 L-15.65 -88.9 -14.65 -91.5 -12.65 -96.45 -13.05 -97.5 -13.5 -98.6 Q-13.5 -102.95 -10.9 -111.8 -9.45 -116.75 -7.75 -120.6 M-4.8 -113.7 L-3.25 -115.9 Q-4.35 -110.85 -5.15 -103.1 L-6.65 -87.15 -8.35 -87.25 -4.8 -113.7 M3.15 -125.35 L3.55 -126.0 Q5.5 -129.0 5.5 -131.05 8.5 -128.0 10.85 -120.1 13.25 -111.9 15.15 -98.75 L15.2 -97.85 15.2 -97.55 17.85 -90.5 16.0 -88.75 14.0 -88.4 13.75 -89.4 Q13.3 -90.8 12.6 -91.35 L12.35 -91.0 12.2 -90.75 12.2 -90.1 Q12.2 -89.05 12.45 -88.2 L7.8 -87.65 8.15 -88.4 9.5 -91.05 Q7.0 -88.75 4.85 -87.4 L-0.5 -87.0 2.35 -89.85 10.4 -96.4 Q9.15 -96.15 5.25 -97.05 1.7 -97.9 0.5 -98.75 L0.1 -99.05 Q3.3 -100.55 6.5 -103.25 10.35 -106.6 9.9 -108.65 L9.0 -108.35 Q8.0 -110.85 8.0 -112.25 8.0 -112.75 8.5 -112.6 8.95 -112.45 8.95 -112.95 8.95 -117.95 5.95 -122.25 4.3 -124.6 3.15 -125.35 M11.05 -101.35 Q11.55 -101.65 11.55 -103.1 11.55 -104.3 10.75 -105.0 L9.4 -105.65 10.35 -101.25 11.05 -101.35 M10.65 -96.35 Q10.65 -95.35 10.95 -94.65 11.25 -93.95 11.65 -93.95 12.05 -93.95 12.35 -94.65 L12.65 -96.35 12.35 -98.05 11.7 -98.75 11.65 -98.75 Q11.25 -98.75 10.95 -98.05 10.65 -97.35 10.65 -96.35" fill="#b4b4b4" fill-rule="evenodd" stroke="none"/>
    <path d="M5.5 -131.05 L5.5 -131.3 Q5.5 -132.4 5.0 -133.25 L7.55 -130.9 Q10.35 -127.45 13.2 -118.7 L18.85 -98.75 19.7 -95.4 20.3 -93.1 19.85 -92.65 17.85 -90.5 15.2 -97.55 15.2 -97.85 15.15 -98.75 Q13.25 -111.9 10.85 -120.1 8.5 -128.0 5.5 -131.05 M-16.9 -89.4 L-12.2 -113.45 Q-9.9 -125.85 -9.15 -127.85 -8.6 -129.4 -6.2 -131.75 -8.75 -127.0 -7.75 -120.6 -9.45 -116.75 -10.9 -111.8 -13.5 -102.95 -13.5 -98.6 L-13.05 -97.5 -12.65 -96.45 -14.65 -91.5 -15.65 -88.9 -16.3 -89.15 -16.9 -89.4 M10.65 -96.35 Q10.65 -97.35 10.95 -98.05 11.25 -98.75 11.65 -98.75 L11.7 -98.75 12.35 -98.05 12.65 -96.35 12.35 -94.65 Q12.05 -93.95 11.65 -93.95 11.25 -93.95 10.95 -94.65 10.65 -95.35 10.65 -96.35 M11.05 -101.35 L10.35 -101.25 9.4 -105.65 10.75 -105.0 Q11.55 -104.3 11.55 -103.1 11.55 -101.65 11.05 -101.35 M14.0 -88.4 L12.45 -88.2 Q12.2 -89.05 12.2 -90.1 L12.2 -90.75 12.35 -91.0 12.6 -91.35 Q13.3 -90.8 13.75 -89.4 L14.0 -88.4" fill="#8a8a8a" fill-rule="evenodd" stroke="none"/>
    <path d="M-5.85 -113.65 L-5.65 -113.5 -5.2 -113.45 Q-4.95 -113.5 -4.8 -113.7 L-8.35 -87.25 -9.55 -87.4 -5.85 -113.65" fill="#616161" fill-rule="evenodd" stroke="none"/>
    <path d="M20.3 -93.1 L19.7 -95.4 18.85 -98.75 13.2 -118.7 Q10.35 -127.45 7.55 -130.9 L5.0 -133.25 Q5.5 -132.4 5.5 -131.3 L5.5 -131.05 Q5.5 -129.0 3.55 -126.0 L3.15 -125.35 -3.25 -115.9 -4.8 -113.7 Q-4.95 -113.5 -5.2 -113.45 L-5.65 -113.5 -5.85 -113.65 -5.9 -113.8 Q-7.3 -117.4 -7.75 -120.6 -8.75 -127.0 -6.2 -131.75 -8.6 -129.4 -9.15 -127.85 -9.9 -125.85 -12.2 -113.45 L-16.9 -89.4 -18.2 -89.95 Q-14.45 -107.6 -13.4 -113.3 -11.3 -124.85 -9.8 -128.55 -7.35 -134.55 -2.8 -135.6 L-1.85 -135.8 -1.0 -135.85 -0.8 -135.85 -0.7 -135.85 Q2.1 -135.85 4.25 -134.9 6.25 -134.1 7.7 -132.5 10.8 -129.2 12.75 -124.0 14.7 -118.85 17.6 -107.85 L19.9 -98.75 21.0 -93.95 20.3 -93.1 M2.45 -133.85 L0.75 -134.45 -0.6 -134.5 -1.9 -134.15 Q-3.2 -133.6 -4.45 -132.3 -7.05 -128.25 -6.75 -122.85 -6.6 -119.8 -5.45 -116.35 L-5.15 -115.4 -4.4 -116.45 -2.35 -119.45 1.85 -125.65 2.5 -126.7 Q4.25 -129.45 4.25 -131.3 L4.05 -132.25 Q3.6 -133.25 2.45 -133.85" fill="#464646" fill-rule="evenodd" stroke="none"/>
  </g>
</svg>
