<?xml version="1.0" encoding="UTF-8" standalone="no"?>
<svg xmlns:ffdec="https://www.free-decompiler.com/flash" xmlns:xlink="http://www.w3.org/1999/xlink" ffdec:objectType="shape" height="42.65px" width="28.4px" xmlns="http://www.w3.org/2000/svg">
  <g transform="matrix(1.0, 0.0, 0.0, 1.0, 33.05, 97.2)">
    <path d="M-10.5 -75.1 Q-10.95 -74.8 -11.5 -74.8 -13.1 -74.75 -13.95 -75.3 -15.1 -76.15 -15.2 -78.4 -15.25 -80.25 -14.1 -81.35 -13.2 -82.3 -12.2 -82.3 -9.2 -82.4 -9.4 -78.6 L-9.6 -76.9 Q-9.75 -76.0 -10.1 -75.5 L-10.2 -75.4 -10.35 -75.2 -10.5 -75.1 M-29.6 -91.0 Q-29.3 -92.75 -28.25 -93.9 -27.15 -95.0 -26.05 -94.8 -23.55 -94.45 -24.05 -91.15 -24.2 -90.05 -25.25 -88.6 -26.3 -87.2 -27.05 -87.3 -28.45 -87.55 -29.15 -88.45 -29.8 -89.5 -29.6 -91.0 M-23.65 -60.6 L-23.8 -59.85 Q-24.05 -58.9 -24.75 -58.55 -26.65 -57.65 -28.05 -58.15 -29.85 -58.65 -31.05 -61.35 -32.1 -63.75 -31.4 -65.85 -30.75 -67.4 -29.55 -68.05 L-26.5 -67.9 Q-25.25 -67.1 -24.5 -65.55 -23.95 -64.3 -23.7 -62.25 L-23.65 -60.6" fill="#ffffff" fill-rule="evenodd" stroke="none"/>
    <path d="M-11.65 -83.75 L-9.75 -84.35 Q-8.65 -84.35 -7.4 -83.2 -5.85 -81.75 -5.8 -79.4 -5.75 -76.95 -6.75 -74.95 -7.9 -72.7 -10.15 -72.65 -11.2 -72.65 -12.95 -73.85 L-12.8 -73.85 Q-9.75 -73.3 -8.0 -74.55 -6.2 -75.95 -6.3 -79.1 -6.35 -81.15 -8.1 -82.45 -9.85 -83.7 -12.3 -83.25 L-11.65 -83.75 M-25.65 -95.9 L-23.1 -96.2 Q-21.9 -96.05 -21.2 -94.5 -20.4 -92.8 -20.8 -90.45 -21.15 -88.25 -22.75 -86.5 -24.5 -84.6 -26.15 -84.85 -26.9 -85.0 -27.55 -85.65 L-28.65 -86.8 -28.5 -86.75 Q-26.6 -85.05 -24.2 -86.25 -21.8 -87.5 -21.35 -90.35 -21.0 -92.5 -22.05 -93.95 -23.15 -95.5 -25.65 -95.9 M-29.55 -70.35 L-28.8 -71.15 -27.9 -71.7 Q-25.85 -72.65 -23.7 -71.45 -21.5 -70.2 -20.1 -67.2 -18.55 -63.6 -19.35 -60.45 -20.1 -57.5 -22.55 -56.35 -23.55 -55.85 -24.9 -56.1 L-26.05 -56.6 -25.85 -56.75 Q-22.0 -56.8 -20.55 -60.05 -19.15 -63.1 -20.75 -66.9 -22.0 -69.7 -24.45 -70.4 -27.15 -71.1 -30.2 -69.2 L-29.55 -70.35" fill="#e0e0e0" fill-rule="evenodd" stroke="none"/>
    <path d="M-10.5 -75.1 L-10.35 -75.2 -10.2 -75.4 -10.1 -75.5 Q-9.75 -76.0 -9.6 -76.9 L-9.0 -79.2 Q-9.05 -80.5 -9.5 -81.2 L-10.3 -82.2 -9.85 -82.15 Q-6.75 -80.8 -7.4 -77.7 -8.05 -74.75 -10.2 -74.7 L-10.95 -74.75 -10.5 -75.1 M-23.75 -91.1 Q-23.55 -92.5 -24.15 -94.3 -23.15 -93.5 -22.6 -92.35 -22.25 -91.35 -22.35 -90.55 -22.6 -88.65 -23.9 -87.9 L-25.85 -87.0 -26.55 -87.15 -25.8 -87.65 Q-25.0 -88.4 -23.75 -91.1 M-23.65 -60.6 L-23.55 -62.55 Q-23.6 -64.65 -24.05 -65.75 L-25.25 -67.05 -27.2 -68.9 Q-25.4 -69.05 -23.85 -68.15 -22.45 -67.4 -22.0 -66.3 -21.2 -64.4 -21.35 -62.35 -21.6 -60.0 -23.1 -59.2 L-24.1 -58.85 -23.8 -59.85 -23.65 -60.6" fill="#b4b4b4" fill-rule="evenodd" stroke="none"/>
    <path d="M-11.65 -83.75 L-12.3 -83.25 Q-9.85 -83.7 -8.1 -82.45 -6.35 -81.15 -6.3 -79.1 -6.2 -75.95 -8.0 -74.55 -9.75 -73.3 -12.8 -73.85 L-12.95 -73.85 Q-11.2 -72.65 -10.15 -72.65 -7.9 -72.7 -6.75 -74.95 -5.75 -76.95 -5.8 -79.4 -5.85 -81.75 -7.4 -83.2 -8.65 -84.35 -9.75 -84.35 L-11.65 -83.75 M-9.6 -76.9 L-9.4 -78.6 Q-9.2 -82.4 -12.2 -82.3 -13.2 -82.3 -14.1 -81.35 -15.25 -80.25 -15.2 -78.4 -15.1 -76.15 -13.95 -75.3 -13.1 -74.75 -11.5 -74.8 -10.95 -74.8 -10.5 -75.1 L-10.95 -74.75 -10.2 -74.7 Q-8.05 -74.75 -7.4 -77.7 -6.75 -80.8 -9.85 -82.15 L-10.3 -82.2 -9.5 -81.2 Q-9.05 -80.5 -9.0 -79.2 L-9.6 -76.9 M-7.55 -84.65 L-5.9 -82.7 Q-4.7 -80.9 -4.65 -79.45 -4.55 -75.7 -6.6 -73.5 -8.2 -71.65 -10.1 -71.6 -11.75 -71.55 -13.75 -73.1 L-15.4 -76.3 -16.25 -78.35 Q-16.3 -80.25 -14.3 -82.65 -12.1 -85.2 -9.65 -85.3 L-8.6 -85.15 -7.55 -84.65 M-24.75 -97.2 Q-21.95 -96.9 -20.65 -95.1 -19.35 -93.25 -19.85 -90.25 -20.3 -87.5 -22.55 -85.65 -24.3 -84.1 -26.15 -83.9 -28.85 -84.65 -30.0 -87.55 -30.8 -89.5 -30.55 -91.05 -30.15 -93.65 -28.65 -94.85 -27.65 -95.6 -24.75 -97.2 M-25.65 -95.9 Q-23.15 -95.5 -22.05 -93.95 -21.0 -92.5 -21.35 -90.35 -21.8 -87.5 -24.2 -86.25 -26.6 -85.05 -28.5 -86.75 L-28.65 -86.8 -27.55 -85.65 Q-26.9 -85.0 -26.15 -84.85 -24.5 -84.6 -22.75 -86.5 -21.15 -88.25 -20.8 -90.45 -20.4 -92.8 -21.2 -94.5 -21.9 -96.05 -23.1 -96.2 L-25.65 -95.9 M-29.6 -91.0 Q-29.8 -89.5 -29.15 -88.45 -28.45 -87.55 -27.05 -87.3 -26.3 -87.2 -25.25 -88.6 -24.2 -90.05 -24.05 -91.15 -23.55 -94.45 -26.05 -94.8 -27.15 -95.0 -28.25 -93.9 -29.3 -92.75 -29.6 -91.0 M-23.75 -91.1 Q-25.0 -88.4 -25.8 -87.65 L-26.55 -87.15 -25.85 -87.0 -23.9 -87.9 Q-22.6 -88.65 -22.35 -90.55 -22.25 -91.35 -22.6 -92.35 -23.15 -93.5 -24.15 -94.3 -23.55 -92.5 -23.75 -91.1 M-29.05 -72.6 Q-27.65 -73.35 -26.4 -73.55 -25.3 -73.5 -23.25 -72.45 L-21.25 -71.4 Q-19.55 -69.4 -18.9 -67.9 -17.65 -62.95 -18.05 -60.2 L-18.75 -58.6 Q-19.3 -57.2 -19.8 -56.45 L-21.35 -55.5 -23.6 -54.55 Q-25.5 -54.35 -28.35 -56.3 -31.1 -58.1 -32.1 -60.2 -32.55 -60.8 -32.85 -62.25 -33.2 -63.95 -32.95 -65.0 -32.5 -65.85 -32.15 -67.35 L-31.8 -68.7 Q-30.05 -71.8 -29.05 -72.6 M-29.55 -70.35 L-30.2 -69.2 Q-27.15 -71.1 -24.45 -70.4 -22.0 -69.7 -20.75 -66.9 -19.15 -63.1 -20.55 -60.05 -22.0 -56.8 -25.85 -56.75 L-26.05 -56.6 -24.9 -56.1 Q-23.55 -55.85 -22.55 -56.35 -20.1 -57.5 -19.35 -60.45 -18.55 -63.6 -20.1 -67.2 -21.5 -70.2 -23.7 -71.45 -25.85 -72.65 -27.9 -71.7 L-28.8 -71.15 -29.55 -70.35 M-23.8 -59.85 L-24.1 -58.85 -23.1 -59.2 Q-21.6 -60.0 -21.35 -62.35 -21.2 -64.4 -22.0 -66.3 -22.45 -67.4 -23.85 -68.15 -25.4 -69.05 -27.2 -68.9 L-25.25 -67.05 -24.05 -65.75 Q-23.6 -64.65 -23.55 -62.55 L-23.65 -60.6 -23.7 -62.25 Q-23.95 -64.3 -24.5 -65.55 -25.25 -67.1 -26.5 -67.9 L-29.55 -68.05 Q-30.75 -67.4 -31.4 -65.85 -32.1 -63.75 -31.05 -61.35 -29.85 -58.65 -28.05 -58.15 -26.65 -57.65 -24.75 -58.55 -24.05 -58.9 -23.8 -59.85" fill="#616161" fill-rule="evenodd" stroke="none"/>
  </g>
</svg>
