<?xml version="1.0" encoding="UTF-8" standalone="no"?>
<svg xmlns:ffdec="https://www.free-decompiler.com/flash" xmlns:xlink="http://www.w3.org/1999/xlink" ffdec:objectType="shape" height="32.95px" width="41.05px" xmlns="http://www.w3.org/2000/svg">
  <g transform="matrix(1.0, 0.0, 0.0, 1.0, 21.9, 3.4)">
    <path d="M4.05 -0.55 L4.6 -0.25 4.65 -0.25 Q7.05 1.1 12.75 5.7 L13.95 6.7 13.55 6.6 9.75 6.1 9.3 6.1 Q7.4 4.7 5.95 4.7 L3.0 5.2 2.1 5.6 1.55 5.5 -0.4 5.4 Q-3.5 5.3 -8.55 3.8 L-8.65 3.8 -7.1 2.1 Q-4.75 0.2 0.05 0.85 -0.4 0.25 -0.4 -1.1 -0.55 -1.6 -1.2 -1.7 1.0 -1.6 4.05 -0.55 M-19.5 23.2 L-18.8 22.6 -18.95 25.3 -19.7 23.4 -19.7 23.3 -19.5 23.2" fill="#e0e0e0" fill-rule="evenodd" stroke="none"/>
    <path d="M2.35 -2.9 L2.9 -1.9 4.05 -0.55 Q1.0 -1.6 -1.2 -1.7 -0.55 -1.6 -0.4 -1.1 -0.4 0.25 0.05 0.85 -4.75 0.2 -7.1 2.1 L-8.65 3.8 -9.7 3.5 -3.15 -3.3 -1.35 -3.4 2.35 -2.9 M9.3 6.1 L8.2 6.1 8.05 6.05 5.95 6.15 5.9 6.35 5.35 6.25 5.05 6.2 4.85 6.2 4.9 6.2 3.05 5.8 2.1 5.6 3.0 5.2 5.95 4.7 Q7.4 4.7 9.3 6.1 M5.9 6.4 L5.95 6.55 5.8 6.5 4.9 6.25 5.9 6.4" fill="#b4b4b4" fill-rule="evenodd" stroke="none"/>
    <path d="M4.05 -0.55 L2.9 -1.9 2.35 -2.9 2.5 -2.85 Q5.35 -1.9 12.6 3.5 17.1 6.85 19.15 9.15 L16.15 8.55 15.3 8.4 11.1 7.7 8.6 7.1 7.25 7.1 6.5 6.95 6.55 6.95 6.6 6.85 6.3 6.85 5.95 6.55 5.9 6.4 5.9 6.35 5.95 6.15 8.05 6.05 8.2 6.1 9.3 6.1 9.75 6.1 13.55 6.6 13.95 6.7 12.75 5.7 Q7.05 1.1 4.65 -0.25 L4.6 -0.25 4.05 -0.55 M-3.15 -3.3 L-9.7 3.5 -11.85 2.9 -11.35 2.7 -9.55 0.3 Q-7.55 -2.35 -3.15 -3.3 M-17.2 29.55 Q-20.0 28.45 -21.2 25.95 L-21.9 22.9 Q-20.65 22.75 -20.1 22.9 L-19.9 22.4 -17.85 18.0 -17.05 16.4 -16.35 15.25 -16.55 15.75 -17.6 19.3 -17.6 19.4 -17.75 19.85 -17.8 20.15 -17.9 20.75 -17.85 21.05 -18.0 23.2 -17.85 25.95 -17.7 27.65 -17.2 29.55 M-19.5 23.2 L-19.7 23.3 -19.7 23.4 -18.95 25.3 -18.8 22.6 -19.5 23.2" fill="#464646" fill-rule="evenodd" stroke="none"/>
  </g>
</svg>
