<?xml version="1.0" encoding="UTF-8" standalone="no"?>
<svg xmlns:ffdec="https://www.free-decompiler.com/flash" xmlns:xlink="http://www.w3.org/1999/xlink" ffdec:objectType="shape" height="31.55px" width="42.7px" xmlns="http://www.w3.org/2000/svg">
  <g transform="matrix(1.0, 0.0, 0.0, 1.0, 22.1, 3.55)">
    <path d="M-3.75 0.55 Q-3.55 1.85 -2.45 3.6 -0.5 6.8 2.8 6.8 5.1 6.8 6.35 4.85 8.3 7.45 10.15 10.8 9.75 10.75 8.15 9.8 6.65 8.95 6.15 8.95 5.4 8.95 5.25 9.7 L5.25 10.5 Q5.25 12.05 6.6 15.25 L6.95 16.05 6.75 16.3 6.75 16.35 6.7 16.4 Q6.45 16.7 6.35 17.15 L6.05 16.7 Q4.35 14.15 2.1 14.15 0.05 14.15 -0.8 16.3 L-1.0 16.95 -1.1 16.95 -1.15 16.95 -1.3 16.95 -2.85 17.35 -3.0 15.7 Q-3.4 14.35 -4.8 12.8 -6.8 10.5 -9.25 10.5 -10.55 10.5 -12.3 11.9 -14.1 13.3 -15.15 13.3 -16.6 13.3 -16.6 11.75 -16.6 10.6 -13.0 8.65 L-9.05 6.7 Q-6.85 5.55 -5.4 3.45 L-3.75 0.55 M-1.35 24.65 L-1.8 24.65 -2.85 24.7 -2.7 23.45 -1.35 23.75 -1.35 24.65" fill="#ffffff" fill-rule="evenodd" stroke="none"/>
    <path d="M3.1 -1.95 L0.75 -1.95 -0.65 -1.8 -2.7 -1.4 -2.75 -1.4 -2.95 -1.3 -3.0 -1.25 -3.7 -0.45 -3.8 -0.05 -3.75 0.55 -5.4 3.45 Q-6.85 5.55 -9.05 6.7 L-13.0 8.65 Q-16.6 10.6 -16.6 11.75 -16.6 13.3 -15.15 13.3 -14.1 13.3 -12.3 11.9 -10.55 10.5 -9.25 10.5 -6.8 10.5 -4.8 12.8 -3.4 14.35 -3.0 15.7 L-2.85 17.35 -3.05 17.5 -3.65 17.95 -4.0 18.4 Q-4.4 16.35 -5.7 14.65 -7.45 12.4 -9.2 12.4 -9.6 12.4 -14.5 15.4 L-14.8 15.6 -15.3 14.75 -16.7 12.5 -18.5 10.1 Q-16.6 8.6 -13.8 7.0 L-12.6 6.3 Q-8.15 4.75 -5.9 1.85 L-4.7 0.2 -3.7 -1.75 -0.8 -3.15 1.8 -3.35 3.1 -1.95 M6.35 4.85 L6.45 4.65 6.5 4.55 6.6 4.25 6.8 3.8 Q8.05 5.85 8.65 6.45 L12.65 10.4 12.6 10.55 12.55 10.6 Q12.25 11.15 12.25 11.8 12.25 12.95 13.1 13.8 L13.1 13.75 Q13.95 14.6 15.1 14.6 L15.9 14.5 Q15.35 14.85 14.95 15.35 L13.85 16.9 13.75 17.1 13.1 16.3 10.6 13.15 Q10.15 12.7 9.65 12.7 L9.85 13.35 7.15 11.45 7.35 12.6 8.35 15.2 Q7.55 15.4 7.05 15.9 L6.95 16.05 6.6 15.25 Q5.25 12.05 5.25 10.5 L5.25 9.7 Q5.4 8.95 6.15 8.95 6.65 8.95 8.15 9.8 9.75 10.75 10.15 10.8 8.3 7.45 6.35 4.85 M6.35 17.15 L6.25 17.85 Q6.25 19.0 7.05 19.8 L7.45 20.15 7.65 20.25 7.6 20.25 9.0 20.6 10.5 20.25 10.85 21.15 8.9 21.95 Q7.05 22.8 5.95 23.45 L4.1 17.75 4.0 17.45 2.95 16.05 Q1.3 16.0 0.95 17.85 0.1 17.05 -1.0 16.95 L-0.8 16.3 Q0.05 14.15 2.1 14.15 4.35 14.15 6.05 16.7 L6.35 17.15 M1.4 24.8 L-1.35 24.65 -1.35 23.75 -1.3 23.75 Q0.05 23.75 1.05 22.75 L1.0 22.75 1.05 22.7 1.4 24.8 M-2.85 24.7 L-5.1 25.1 -5.0 24.7 -4.2 22.0 -3.65 22.75 -2.9 23.35 -2.7 23.45 -2.85 24.7" fill="#e0e0e0" fill-rule="evenodd" stroke="none"/>
    <path d="M6.8 3.8 L6.95 3.35 7.2 1.35 7.1 -0.4 7.05 -0.45 Q10.1 2.55 14.05 7.35 L15.4 9.05 15.1 9.0 Q13.95 9.0 13.1 9.8 L12.65 10.4 8.65 6.45 Q8.05 5.85 6.8 3.8 M13.75 17.1 L13.65 17.3 13.1 16.3 13.75 17.1 M9.85 13.35 L10.85 15.8 Q10.1 15.1 9.0 15.1 L8.4 15.15 8.4 15.2 8.35 15.2 7.35 12.6 7.15 11.45 9.85 13.35 M10.5 20.25 L10.55 20.2 10.55 20.15 10.95 19.8 Q11.65 19.1 11.75 18.15 L12.55 20.6 12.55 20.65 10.85 21.15 10.5 20.25 M5.95 23.45 L5.15 23.95 4.1 17.75 5.95 23.45 M4.0 17.45 Q2.55 18.6 2.55 19.65 L3.15 24.1 3.25 25.05 3.0 25.0 1.4 24.8 1.05 22.7 1.4 22.3 Q2.0 21.45 2.0 20.35 2.0 19.15 1.3 18.3 L1.0 17.95 1.05 17.95 0.95 17.85 Q1.3 16.0 2.95 16.05 L4.0 17.45 M-5.1 25.1 L-5.5 25.2 -6.05 25.35 -5.45 21.75 -5.2 19.8 Q-5.2 17.7 -6.5 15.75 -8.0 13.55 -10.1 13.55 -11.9 13.55 -14.45 16.15 L-14.8 15.6 -14.5 15.4 Q-9.6 12.4 -9.2 12.4 -7.45 12.4 -5.7 14.65 -4.4 16.35 -4.0 18.4 L-4.3 19.0 -4.6 20.35 -4.4 21.4 -4.2 22.0 -5.0 24.7 -5.1 25.1 M-18.5 10.1 L-19.3 9.3 Q-16.4 7.6 -12.6 6.3 L-13.8 7.0 Q-16.6 8.6 -18.5 10.1 M4.4 -2.9 L5.8 -1.7 5.3 -1.9 5.1 -1.95 3.1 -1.95 1.8 -3.35 4.4 -2.9 M17.35 13.75 L16.9 13.95 17.1 13.75 17.1 13.8 Q17.7 13.2 17.9 12.4 L18.5 13.35 17.35 13.75" fill="#b4b4b4" fill-rule="evenodd" stroke="none"/>
    <path d="M-3.75 0.55 L-3.8 -0.05 -3.7 -0.45 -3.0 -1.25 -2.95 -1.3 -2.75 -1.4 -2.7 -1.4 -0.65 -1.8 0.75 -1.95 3.1 -1.95 5.1 -1.95 5.3 -1.9 5.8 -1.7 4.4 -2.9 3.95 -3.55 Q7.3 -2.4 15.45 7.45 L20.6 14.1 20.25 14.1 20.25 14.15 19.15 14.35 Q18.05 14.65 17.0 15.45 L17.0 15.5 Q15.55 16.55 15.1 17.65 L14.85 18.35 14.6 19.0 14.1 20.25 Q13.65 21.45 13.55 21.95 L12.9 22.1 11.4 22.5 9.8 23.05 Q7.7 23.9 6.4 24.75 L5.45 25.5 4.55 26.65 3.4 26.2 3.0 26.1 -1.9 26.1 -3.05 26.45 -5.6 27.1 -6.4 27.3 -6.7 27.35 -8.5 28.0 -8.25 27.1 Q-7.1 22.9 -7.1 19.8 -7.1 18.4 -8.05 16.9 -9.05 15.35 -10.0 15.35 -11.7 15.35 -13.75 17.7 L-14.65 18.75 -15.55 17.3 -15.8 16.9 -16.1 16.4 -19.3 11.75 -19.75 11.15 -20.65 10.05 -22.1 8.45 Q-19.5 7.05 -16.1 6.25 -14.1 5.8 -10.25 2.0 -6.35 -1.85 -0.8 -3.15 L-3.7 -1.75 -4.7 0.2 -5.9 1.85 Q-8.15 4.75 -12.6 6.3 -16.4 7.6 -19.3 9.3 L-18.5 10.1 -16.7 12.5 -15.3 14.75 -14.8 15.6 -14.45 16.15 Q-11.9 13.55 -10.1 13.55 -8.0 13.55 -6.5 15.75 -5.2 17.7 -5.2 19.8 L-5.45 21.75 -6.05 25.35 -5.5 25.2 -5.1 25.1 -2.85 24.7 -1.8 24.65 -1.35 24.65 1.4 24.8 3.0 25.0 3.25 25.05 3.15 24.1 2.55 19.65 Q2.55 18.6 4.0 17.45 L4.1 17.75 5.15 23.95 5.95 23.45 Q7.05 22.8 8.9 21.95 L10.85 21.15 12.55 20.65 12.55 20.6 11.75 18.15 Q11.65 19.1 10.95 19.8 L10.55 20.15 10.55 20.2 10.5 20.25 9.0 20.6 7.6 20.25 7.65 20.25 7.45 20.15 7.05 19.8 Q6.25 19.0 6.25 17.85 L6.35 17.15 Q6.45 16.7 6.7 16.4 L6.75 16.35 6.75 16.3 6.95 16.05 7.05 15.9 Q7.55 15.4 8.35 15.2 L8.4 15.2 8.4 15.15 9.0 15.1 Q10.1 15.1 10.85 15.8 L9.85 13.35 9.65 12.7 Q10.15 12.7 10.6 13.15 L13.1 16.3 13.65 17.3 13.75 17.1 13.85 16.9 14.95 15.35 Q15.35 14.85 15.9 14.5 L15.1 14.6 Q13.95 14.6 13.1 13.75 L13.1 13.8 Q12.25 12.95 12.25 11.8 12.25 11.15 12.55 10.6 L12.6 10.55 12.65 10.4 13.1 9.8 Q13.95 9.0 15.1 9.0 L15.4 9.05 14.05 7.35 Q10.1 2.55 7.05 -0.45 L7.1 -0.4 7.2 1.35 6.95 3.35 6.8 3.8 6.6 4.25 6.5 4.55 6.45 4.65 6.35 4.85 Q5.1 6.8 2.8 6.8 -0.5 6.8 -2.45 3.6 -3.55 1.85 -3.75 0.55 M6.2 1.35 L6.15 -0.05 Q5.9 -0.6 5.0 -0.95 L0.8 -0.95 -0.45 -0.8 -0.5 -0.8 -2.35 -0.45 -2.45 -0.4 -2.8 0.0 Q-2.75 1.2 -1.6 3.1 0.0 5.8 2.8 5.8 4.6 5.8 5.55 4.25 L5.55 4.2 5.65 3.95 5.65 3.9 6.0 3.05 6.0 3.1 6.2 1.35 M16.95 11.8 Q16.95 11.05 16.4 10.5 16.1 10.2 15.7 10.1 L15.75 10.1 15.1 10.0 Q14.35 10.0 13.8 10.55 L13.8 10.5 13.45 11.0 13.45 11.05 13.25 11.8 Q13.25 12.55 13.8 13.05 14.35 13.6 15.1 13.6 L15.7 13.55 15.65 13.55 16.4 13.05 Q16.95 12.55 16.95 11.8 M10.75 17.85 Q10.75 17.1 10.25 16.6 9.75 16.1 9.0 16.1 L8.6 16.15 8.65 16.15 Q8.1 16.25 7.75 16.6 L7.6 16.85 7.55 16.9 Q7.25 17.3 7.25 17.85 7.25 18.6 7.75 19.1 L8.0 19.3 8.05 19.35 8.1 19.35 8.1 19.4 9.0 19.6 10.0 19.35 10.25 19.1 Q10.75 18.6 10.75 17.85 M0.95 17.85 L1.05 17.95 1.0 17.95 1.3 18.3 Q2.0 19.15 2.0 20.35 2.0 21.45 1.4 22.3 L1.05 22.7 1.0 22.75 1.05 22.75 Q0.05 23.75 -1.3 23.75 L-1.35 23.75 -2.7 23.45 -2.9 23.35 -3.65 22.75 -4.2 22.0 -4.4 21.4 -4.6 20.35 -4.3 19.0 -4.0 18.4 -3.65 17.95 -3.05 17.5 -2.85 17.35 -1.3 16.95 -1.15 16.95 -1.1 16.95 -1.0 16.95 Q0.1 17.05 0.95 17.85 M1.0 20.35 Q1.0 19.5 0.5 18.9 L0.45 18.85 0.3 18.65 Q-0.3 18.0 -1.15 17.95 L-1.3 17.95 Q-2.0 17.95 -2.5 18.3 L-2.55 18.35 -2.95 18.65 -3.35 19.35 -3.4 19.45 -3.6 20.35 -3.45 21.1 -3.45 21.15 -2.95 22.05 -2.4 22.5 -1.35 22.75 -1.3 22.75 Q-0.35 22.75 0.3 22.05 L0.6 21.7 Q1.0 21.15 1.0 20.35 M17.35 13.75 L18.5 13.35 17.9 12.4 Q17.7 13.2 17.1 13.8 L17.1 13.75 16.9 13.95 17.35 13.75" fill="#464646" fill-rule="evenodd" stroke="none"/>
  </g>
</svg>
