<?xml version="1.0" encoding="UTF-8" standalone="no"?>
<svg xmlns:ffdec="https://www.free-decompiler.com/flash" xmlns:xlink="http://www.w3.org/1999/xlink" ffdec:objectType="shape" height="40.65px" width="24.1px" xmlns="http://www.w3.org/2000/svg">
  <g transform="matrix(1.0, 0.0, 0.0, 1.0, 8.4, 3.3)">
    <path d="M-4.05 13.2 L-3.75 11.75 -3.45 10.15 Q-2.85 8.4 -1.55 7.7 -0.5 7.15 2.75 8.45 L3.05 8.55 Q6.45 9.95 6.45 10.75 6.45 11.4 5.8 11.85 4.85 12.45 4.4 13.15 3.35 14.75 3.1 15.8 L2.75 17.35 Q2.3 19.5 2.3 21.0 2.3 23.15 2.75 25.7 L2.8 25.95 3.3 28.9 Q3.3 30.0 2.75 30.35 L2.15 30.5 Q-1.35 30.5 -3.4 26.0 -4.8 22.85 -4.8 20.45 L-4.4 15.85 -4.05 13.2" fill="#ffffff" fill-rule="evenodd" stroke="none"/>
    <path d="M13.45 10.5 L13.4 10.65 13.0 13.0 11.25 12.6 Q9.95 12.6 8.45 13.5 7.7 13.95 7.2 14.55 L7.15 14.55 Q6.3 14.55 5.75 16.85 5.3 18.7 5.3 20.25 5.3 24.7 7.35 28.55 L7.45 28.7 5.5 30.4 Q4.85 31.0 3.1 33.25 L2.75 33.7 1.6 35.3 -1.55 32.95 -1.5 32.7 -1.5 32.6 -1.5 32.3 Q-1.5 30.4 -2.7 29.05 L-2.75 29.05 Q-3.95 27.8 -5.5 27.75 L-5.55 27.75 -5.75 27.75 Q-6.9 24.5 -6.95 18.45 L-6.9 18.35 -6.5 17.8 -6.5 17.85 -4.55 14.7 -4.55 14.75 -4.05 13.2 -4.4 15.85 -4.8 20.45 Q-4.8 22.85 -3.4 26.0 -1.35 30.5 2.15 30.5 L2.75 30.35 Q3.3 30.0 3.3 28.9 L2.8 25.95 2.75 25.7 Q2.3 23.15 2.3 21.0 2.3 19.5 2.75 17.35 L3.1 15.8 Q3.35 14.75 4.4 13.15 4.85 12.45 5.8 11.85 6.45 11.4 6.45 10.75 6.45 9.95 3.05 8.55 L2.75 8.45 Q-0.5 7.15 -1.55 7.7 -2.85 8.4 -3.45 10.15 L-3.3 8.05 Q-3.3 6.45 -3.6 5.4 L-3.75 5.0 -2.85 3.3 Q-1.15 1.2 -0.75 0.3 L-0.05 0.2 Q0.8 0.2 2.6 -0.75 L2.75 -0.8 Q4.35 -1.65 4.7 -2.45 L4.95 -1.4 Q4.95 -0.9 5.3 0.2 5.3 1.4 7.35 4.65 L10.0 8.3 Q10.6 8.95 12.65 10.1 L13.45 10.5" fill="#e0e0e0" fill-rule="evenodd" stroke="none"/>
    <path d="M4.85 -2.7 L4.85 -2.6 5.0 -2.05 5.15 -1.8 5.5 -1.35 6.0 -0.85 6.0 -0.8 6.05 -0.75 7.6 0.85 9.6 3.45 Q11.6 6.2 14.45 8.4 L14.0 9.05 Q13.55 9.8 13.45 10.5 L12.65 10.1 Q10.6 8.95 10.0 8.3 L7.35 4.65 Q5.3 1.4 5.3 0.2 4.95 -0.9 4.95 -1.4 L4.7 -2.45 4.8 -2.75 4.85 -2.75 4.85 -2.7 M13.0 13.0 L12.75 16.9 12.85 18.05 12.85 18.1 11.25 17.05 Q8.85 15.1 8.1 14.9 L7.95 14.85 Q7.35 14.85 7.35 15.1 L7.35 15.15 7.4 15.35 7.5 15.8 11.85 26.05 Q11.3 26.2 10.2 26.8 L7.45 28.7 7.35 28.55 Q5.3 24.7 5.3 20.25 5.3 18.7 5.75 16.85 6.3 14.55 7.15 14.55 L7.2 14.55 Q7.7 13.95 8.45 13.5 9.95 12.6 11.25 12.6 L13.0 13.0 M-3.75 5.0 Q-4.2 3.9 -4.95 3.6 L-5.0 3.55 -5.05 3.55 -4.35 1.55 -4.1 1.0 -4.1 0.85 -4.1 0.75 -2.8 0.75 -1.95 0.55 -0.9 0.35 -0.75 0.3 Q-1.15 1.2 -2.85 3.3 L-3.75 5.0" fill="#b4b4b4" fill-rule="evenodd" stroke="none"/>
    <path d="M13.45 10.5 Q13.55 9.8 14.0 9.05 L14.45 8.4 Q11.6 6.2 9.6 3.45 L7.6 0.85 6.05 -0.75 6.0 -0.8 6.0 -0.85 5.5 -1.35 5.15 -1.8 5.0 -2.05 4.85 -2.6 4.85 -2.7 4.85 -3.1 5.55 -3.3 6.7 -2.0 Q7.75 -0.7 8.0 -0.7 L10.9 2.8 Q13.95 6.7 15.5 8.0 L15.7 8.2 15.4 9.1 14.8 10.65 14.75 11.1 14.45 13.4 14.45 13.55 14.05 16.1 14.05 19.9 12.85 19.55 11.1 18.7 9.9 17.95 12.85 24.85 12.65 26.3 12.55 27.35 12.5 27.4 12.0 27.7 9.5 30.0 8.65 30.6 Q6.05 32.45 4.7 34.0 L2.9 36.15 2.75 36.3 1.9 37.35 -2.35 34.1 -2.6 33.2 -2.5 32.55 -2.5 32.3 Q-2.5 30.8 -3.45 29.75 -4.35 28.8 -5.55 28.75 L-5.75 28.75 -6.15 28.8 -6.5 28.75 -6.75 28.4 -7.15 26.85 Q-8.2 23.2 -8.4 19.5 L-8.25 18.5 -7.7 17.75 -7.35 17.3 -5.45 14.2 -5.4 14.2 -4.75 11.55 Q-4.3 9.15 -4.3 8.05 -4.3 6.65 -4.55 5.7 -4.85 4.75 -5.4 4.45 L-5.45 4.45 -6.0 4.3 -6.35 4.15 -6.5 3.8 -6.4 3.5 -5.0 0.25 -4.45 0.3 -4.2 0.35 -4.1 0.75 -4.1 0.85 -4.1 1.0 -4.35 1.55 -5.05 3.55 -5.0 3.55 -4.95 3.6 Q-4.2 3.9 -3.75 5.0 L-3.6 5.4 Q-3.3 6.45 -3.3 8.05 L-3.45 10.15 -3.75 11.75 -4.05 13.2 -4.55 14.75 -4.55 14.7 -6.5 17.85 -6.5 17.8 -6.9 18.35 -6.95 18.45 Q-6.9 24.5 -5.75 27.75 L-5.55 27.75 -5.5 27.75 Q-3.95 27.8 -2.75 29.05 L-2.7 29.05 Q-1.5 30.4 -1.5 32.3 L-1.5 32.6 -1.5 32.7 -1.55 32.95 1.6 35.3 2.75 33.7 3.1 33.25 Q4.85 31.0 5.5 30.4 L7.45 28.7 10.2 26.8 Q11.3 26.2 11.85 26.05 L7.5 15.8 7.4 15.35 7.35 15.15 7.35 15.1 Q7.35 14.85 7.95 14.85 L8.1 14.9 Q8.85 15.1 11.25 17.05 L12.85 18.1 12.85 18.05 12.75 16.9 13.0 13.0 13.4 10.65 13.45 10.5" fill="#464646" fill-rule="evenodd" stroke="none"/>
  </g>
</svg>
