<?xml version="1.0" encoding="UTF-8" standalone="no"?>
<svg xmlns:ffdec="https://www.free-decompiler.com/flash" xmlns:xlink="http://www.w3.org/1999/xlink" ffdec:objectType="shape" height="63.8px" width="27.75px" xmlns="http://www.w3.org/2000/svg">
  <g transform="matrix(1.0, 0.0, 0.0, 1.0, 9.3, 2.2)">
    <path d="M0.0 47.45 L5.1 46.85 6.95 46.75 9.05 46.75 9.95 56.0 8.5 58.5 Q8.25 57.45 7.3 49.6 L3.0 49.65 0.25 50.15 0.1 48.65 0.0 47.45" fill="#de9954" fill-rule="evenodd" stroke="none"/>
    <path d="M11.75 52.4 L11.95 56.2 11.95 57.2 11.2 57.4 9.35 59.5 Q7.35 61.6 6.05 61.6 4.45 61.6 2.05 59.95 0.1 58.7 -0.85 57.55 L-0.9 57.35 -1.25 53.45 -0.95 53.35 -0.7 53.1 -0.6 52.75 -1.0 47.65 0.0 47.45 0.1 48.65 0.25 50.15 Q0.8 55.1 1.1 56.4 1.5 58.15 2.45 58.15 3.2 58.15 4.4 58.85 5.65 59.55 6.45 59.55 L7.6 59.25 8.5 58.5 9.95 56.0 9.05 46.75 10.65 46.85 11.2 51.85 11.3 52.15 11.6 52.35 11.75 52.4 M-7.8 0.85 L-7.9 0.4 -7.35 0.3 -7.8 0.85" fill="#9d632f" fill-rule="evenodd" stroke="none"/>
    <path d="M0.25 50.15 L3.0 49.65 7.3 49.6 Q8.25 57.45 8.5 58.5 L7.6 59.25 6.45 59.55 Q5.65 59.55 4.4 58.85 3.2 58.15 2.45 58.15 1.5 58.15 1.1 56.4 0.8 55.1 0.25 50.15" fill="#eaa76a" fill-rule="evenodd" stroke="none"/>
    <path d="M-4.75 -1.15 L-3.3 -1.55 -3.25 -1.25 -3.25 -1.15 -2.55 6.45 Q-2.55 8.2 -3.15 10.2 L-3.5 11.2 -3.6 11.55 -4.15 13.1 -4.5 15.2 Q-4.65 15.45 -3.8 15.5 L-3.65 15.5 -2.75 15.25 Q-1.85 14.85 -0.25 13.7 L-0.2 13.65 Q1.4 12.5 2.2 11.55 L2.55 11.1 3.0 10.1 3.1 7.75 3.1 6.1 Q3.1 2.3 3.25 -0.9 L3.25 -1.15 3.3 -1.95 3.3 -2.2 4.05 -2.1 4.0 1.5 Q4.0 4.3 5.15 8.25 L5.35 8.85 5.9 11.55 6.25 15.2 Q6.25 16.3 6.85 17.6 L7.05 18.0 Q8.05 19.85 8.35 21.35 L8.4 21.95 8.45 23.0 8.55 24.25 8.65 24.75 8.7 24.9 9.3 26.65 9.85 28.5 9.95 30.15 9.95 30.55 10.15 30.75 11.4 31.85 Q12.85 33.3 13.05 34.65 L12.95 35.35 12.45 35.7 12.5 35.75 10.15 35.45 10.0 34.95 9.35 32.8 9.3 32.65 9.35 32.7 9.35 32.45 9.3 30.15 8.95 28.0 Q8.6 27.1 7.75 26.65 7.45 26.45 7.05 26.35 L6.2 26.15 5.0 26.05 4.4 26.1 4.35 26.1 Q3.25 26.25 1.95 26.85 L1.25 27.25 Q-0.35 28.15 -0.65 29.4 L-0.45 30.15 -0.35 30.75 -0.2 30.7 -0.75 33.95 -0.95 35.35 -1.05 36.05 -3.9 36.7 -3.6 33.45 -3.6 33.35 -3.5 32.4 -3.4 32.35 -3.45 32.0 -2.8 30.15 -2.7 29.95 -2.55 29.45 -2.15 28.55 -1.75 27.5 -1.65 27.15 -1.7 26.45 -1.85 26.35 -2.0 26.15 -2.35 26.9 -3.0 27.65 -3.65 28.15 -4.2 28.55 -4.5 28.7 -5.0 28.85 Q-6.15 27.5 -6.15 26.05 L-5.9 24.75 -5.7 24.25 -5.2 23.3 -4.9 22.9 -4.25 21.95 -3.8 21.35 -3.7 21.2 -3.15 20.55 -2.4 19.6 Q-0.85 17.45 -0.6 16.6 L-0.9 15.3 -5.25 18.0 -5.6 17.45 -6.1 16.25 -6.5 13.15 -6.5 12.85 -6.35 11.6 -6.35 11.55 -5.95 8.65 -5.65 6.95 -5.45 4.6 -5.4 3.9 -5.05 1.35 -4.7 -0.5 -4.7 -0.75 -4.75 -1.15 M-3.5 23.75 L-3.9 24.25 -4.25 24.75 -4.55 25.35 -4.55 25.7 -4.6 25.75 -4.55 25.85 -3.9 25.95 -3.25 25.75 -2.55 25.5 -1.95 25.25 -1.05 24.9 -0.45 24.75 0.95 24.65 2.1 24.6 4.2 24.5 5.4 24.25 6.0 23.95 Q6.45 23.6 6.45 22.6 L6.35 21.95 5.55 17.8 5.15 15.5 4.65 12.45 4.25 12.0 Q3.95 12.15 3.65 12.45 3.2 12.8 2.85 13.4 2.35 14.15 1.95 15.25 L0.55 18.85 0.35 19.2 -1.95 21.95 -2.2 22.2 -2.65 22.7 -2.85 22.95 -3.5 23.75" fill="#cb9e21" fill-rule="evenodd" stroke="none"/>
    <path d="M-3.3 -1.55 L-3.3 -1.6 -2.25 -1.85 3.3 -2.2 3.3 -1.95 3.25 -1.15 3.25 -0.9 Q3.1 2.3 3.1 6.1 L3.1 7.75 3.0 10.1 2.55 11.1 2.2 11.55 Q1.4 12.5 -0.2 13.65 L-0.25 13.7 Q-1.85 14.85 -2.75 15.25 L-3.65 15.5 -3.8 15.5 Q-4.65 15.45 -4.5 15.2 L-4.15 13.1 -3.6 11.55 -3.5 11.2 -3.15 10.2 Q-2.55 8.2 -2.55 6.45 L-3.25 -1.15 -3.25 -1.25 -3.3 -1.55 M-1.05 36.05 L-0.95 35.35 -0.75 33.95 -0.2 30.7 -0.35 30.75 -0.45 30.15 -0.65 29.4 Q-0.35 28.15 1.25 27.25 L1.95 26.85 Q3.25 26.25 4.35 26.1 L4.4 26.1 5.0 26.05 6.2 26.15 7.05 26.35 Q7.45 26.45 7.75 26.65 8.6 27.1 8.95 28.0 L9.3 30.15 9.35 32.45 9.35 32.7 9.3 32.65 9.35 32.8 10.0 34.95 10.15 35.45 Q7.4 35.2 4.1 35.4 L4.05 35.4 -1.05 36.05 M-3.5 23.75 L-2.85 22.95 -2.65 22.7 -2.2 22.2 -1.95 21.95 0.35 19.2 0.55 18.85 1.95 15.25 Q2.35 14.15 2.85 13.4 3.2 12.8 3.65 12.45 3.95 12.15 4.25 12.0 L4.65 12.45 5.15 15.5 5.55 17.8 6.35 21.95 6.45 22.6 Q6.45 23.6 6.0 23.95 L5.4 24.25 4.2 24.5 2.1 24.6 0.95 24.65 -0.45 24.75 -1.05 24.9 -1.95 25.25 -2.55 25.5 -3.25 25.75 -3.9 25.95 -4.55 25.85 -4.6 25.75 -4.55 25.7 -4.55 25.35 -4.25 24.75 -3.9 24.25 -3.5 23.75" fill="#dead25" fill-rule="evenodd" stroke="none"/>
    <path d="M4.05 -2.1 L5.45 -1.85 5.3 -1.55 5.25 -0.9 7.35 7.15 7.7 8.45 8.45 11.55 9.7 16.55 11.0 21.95 11.55 24.25 11.7 24.75 12.9 30.15 14.05 36.0 13.15 35.85 12.5 35.75 12.45 35.7 12.95 35.35 13.05 34.65 Q12.85 33.3 11.4 31.85 L10.15 30.75 9.95 30.55 9.95 30.15 9.85 28.5 9.3 26.65 8.7 24.9 8.65 24.75 8.55 24.25 8.45 23.0 8.4 21.95 8.35 21.35 Q8.05 19.85 7.05 18.0 L6.85 17.6 Q6.25 16.3 6.25 15.2 L5.9 11.55 5.35 8.85 5.15 8.25 Q4.0 4.3 4.0 1.5 L4.05 -2.1 M-6.65 -0.3 L-4.75 -1.15 -4.7 -0.75 -4.7 -0.5 -5.05 1.35 -5.4 3.9 -5.45 4.6 -5.65 6.95 -5.95 8.65 -6.35 11.55 -6.35 11.6 -6.5 12.85 -6.5 13.15 -6.1 16.25 -5.6 17.45 -5.25 18.0 -0.9 15.3 -0.6 16.6 Q-0.85 17.45 -2.4 19.6 L-3.15 20.55 -3.7 21.2 -3.8 21.35 -4.25 21.95 -4.9 22.9 -5.2 23.3 -5.7 24.25 -5.9 24.75 -6.15 26.05 Q-6.15 27.5 -5.0 28.85 L-4.5 28.7 -4.2 28.55 -3.65 28.15 -3.0 27.65 -2.35 26.9 -2.0 26.15 -1.85 26.35 -1.7 26.45 -1.65 27.15 -1.75 27.5 -2.15 28.55 -2.55 29.45 -2.7 29.95 -2.8 30.15 -3.45 32.0 -3.4 32.35 -3.5 32.4 -3.6 33.35 -3.6 33.45 -3.9 36.7 -4.85 37.0 -4.8 37.0 -6.75 37.75 -6.85 36.65 -6.65 32.55 -7.2 30.85 -7.45 30.15 -7.8 28.5 -7.5 24.75 -7.5 24.6 -7.45 24.25 -7.2 22.3 -7.2 21.95 -7.6 19.35 -8.0 16.35 -7.55 11.55 -7.45 9.3 -7.35 6.55 -7.25 5.05 -6.95 2.35 -6.65 0.15 -6.65 0.05 -6.65 -0.3" fill="#9f7911" fill-rule="evenodd" stroke="none"/>
    <path d="M5.45 -1.85 Q7.45 -1.2 9.15 6.3 L10.3 11.55 12.5 21.95 12.55 22.2 13.05 24.25 13.2 24.75 14.45 30.15 15.55 36.05 15.6 36.5 14.05 36.0 12.9 30.15 11.7 24.75 11.55 24.25 11.0 21.95 9.7 16.55 8.45 11.55 7.7 8.45 7.35 7.15 5.25 -0.9 5.3 -1.55 5.45 -1.85 M-7.95 38.5 L-8.1 36.65 -8.0 35.35 Q-7.9 34.25 -8.4 31.6 L-8.7 30.15 -9.0 28.5 -8.6 24.75 -8.6 24.25 -8.5 21.95 -8.55 21.7 -9.3 16.4 -8.95 11.55 -8.75 7.45 Q-8.8 3.5 -8.25 1.75 L-7.8 0.85 -7.35 0.3 -6.65 -0.3 -6.65 0.05 -6.65 0.15 -6.95 2.35 -7.25 5.05 -7.35 6.55 -7.45 9.3 -7.55 11.55 -8.0 16.35 -7.6 19.35 -7.2 21.95 -7.2 22.3 -7.45 24.25 -7.5 24.6 -7.5 24.75 -7.8 28.5 -7.45 30.15 -7.2 30.85 -6.65 32.55 -6.85 36.65 -6.75 37.75 Q-7.5 38.1 -7.95 38.5" fill="#57440e" fill-rule="evenodd" stroke="none"/>
    <path d="M-0.8 37.3 L-0.55 39.25 -0.45 40.05 0.7 39.9 -0.55 40.1 -1.5 40.25 -3.45 40.75 -4.0 40.9 -4.2 41.0 -4.35 38.2 -4.0 38.05 -1.2 37.35 -0.8 37.3 M7.4 39.4 L7.4 36.6 8.75 36.65 8.75 38.25 8.75 39.4 9.15 39.45 8.9 39.45 7.5 39.4 7.4 39.4 M-3.15 44.0 L-3.05 44.0 -2.35 43.8 -0.45 43.35 -0.25 43.3 0.65 43.15 -0.15 43.3 -0.1 43.8 0.1 46.15 1.1 46.0 -0.15 46.2 -1.8 46.55 -2.0 46.6 -2.85 46.8 -3.15 44.0 M12.15 36.95 L12.15 37.0 12.25 39.75 11.4 39.6 10.0 39.5 9.9 36.7 10.6 36.75 12.15 36.95 M8.1 42.65 L8.65 42.65 9.05 42.65 9.2 44.6 9.35 45.5 8.95 45.5 8.2 45.5 8.2 44.9 8.1 42.65 M10.4 45.55 L10.4 44.8 10.3 42.7 11.15 42.75 12.6 42.95 12.85 44.85 12.9 45.85 11.35 45.65 11.25 45.65 10.4 45.55" fill="#ed6207" fill-rule="evenodd" stroke="none"/>
    <path d="M-4.35 38.2 L-4.2 41.0 -4.3 41.0 -6.0 41.55 -6.5 41.85 -7.25 42.5 -7.5 40.05 Q-7.45 39.55 -6.7 39.15 -5.95 38.65 -4.45 38.2 L-4.35 38.2 M-6.9 45.6 L-5.9 44.95 Q-5.2 44.6 -3.95 44.25 L-3.85 44.25 -3.15 44.0 -2.85 46.8 -2.85 46.85 -3.55 47.05 -3.95 47.15 -5.6 47.8 -6.6 48.35 -6.9 45.6 M12.25 39.75 L12.15 37.0 12.15 36.95 12.9 37.1 13.6 37.2 14.35 37.4 Q15.4 37.65 15.9 38.0 L16.25 38.45 16.45 40.85 16.25 40.75 15.05 40.25 15.0 40.25 13.95 40.05 13.3 39.9 12.7 39.8 12.25 39.75 M12.6 42.95 L12.65 42.95 13.65 43.1 15.65 43.65 Q16.3 43.85 16.75 44.15 L16.85 45.05 16.85 45.1 17.05 46.9 15.85 46.45 14.05 46.05 12.9 45.85 12.85 44.85 12.6 42.95" fill="#bd5008" fill-rule="evenodd" stroke="none"/>
    <path d="M15.6 36.5 Q17.5 37.2 17.5 38.35 L18.1 44.95 18.1 45.0 18.25 46.3 18.45 48.55 18.45 48.6 Q18.45 50.1 16.05 51.1 L16.1 51.1 14.3 51.75 14.35 51.75 11.9 52.4 11.75 52.4 11.6 52.35 11.3 52.15 11.2 51.85 10.65 46.85 9.05 46.75 6.95 46.75 5.1 46.85 0.0 47.45 -1.0 47.65 -0.6 52.75 -0.7 53.1 -0.95 53.35 -1.25 53.45 -1.3 53.45 -3.6 53.05 -3.55 53.1 -5.25 52.7 Q-7.45 52.05 -7.7 50.4 L-8.75 40.15 -8.75 40.05 Q-8.85 39.25 -7.95 38.5 -7.5 38.1 -6.75 37.75 L-4.8 37.0 -4.85 37.0 -3.9 36.7 -1.05 36.05 4.05 35.4 4.1 35.4 Q7.4 35.2 10.15 35.45 L12.5 35.75 13.15 35.85 14.05 36.0 15.6 36.5 M-0.8 37.3 L-1.2 37.35 -4.0 38.05 -4.35 38.2 -4.45 38.2 Q-5.95 38.65 -6.7 39.15 -7.45 39.55 -7.5 40.05 L-7.25 42.5 -6.9 45.6 -6.6 48.35 -5.6 47.8 -3.95 47.15 -3.55 47.05 -2.85 46.85 -2.85 46.8 -2.0 46.6 -1.8 46.55 -0.15 46.2 1.1 46.0 4.35 45.65 5.05 45.6 5.25 45.6 8.2 45.5 8.95 45.5 9.35 45.5 10.4 45.55 11.25 45.65 11.35 45.65 12.9 45.85 14.05 46.05 15.85 46.45 17.05 46.9 16.85 45.1 16.85 45.05 16.75 44.15 16.45 40.85 16.25 38.45 15.9 38.0 Q15.4 37.65 14.35 37.4 L13.6 37.2 12.9 37.1 12.15 36.95 10.6 36.75 9.9 36.7 8.75 36.6 8.75 36.65 7.4 36.6 6.4 36.6 5.55 36.6 5.4 36.6 4.15 36.65 3.85 36.65 3.7 36.7 -0.8 37.3 M-3.55 48.35 L-5.1 48.95 Q-6.35 49.5 -6.45 50.05 -6.3 51.1 -4.9 51.5 L-3.35 51.85 -3.3 51.85 -1.9 52.1 -2.2 47.95 -3.55 48.35 M13.9 50.6 L13.9 50.55 15.55 49.95 15.6 49.95 Q17.0 49.35 17.15 48.6 16.9 48.05 15.5 47.65 L15.45 47.65 13.85 47.3 11.9 47.0 12.35 51.0 13.9 50.6" fill="#79370b" fill-rule="evenodd" stroke="none"/>
    <path d="M0.7 39.9 L-0.45 40.05 -0.55 39.25 -0.8 37.3 3.7 36.7 3.85 36.65 4.15 36.65 5.4 36.6 5.55 36.6 6.4 36.6 7.4 36.6 7.4 39.4 5.65 39.4 4.45 39.45 0.7 39.9 M1.1 46.0 L0.1 46.15 -0.1 43.8 -0.15 43.3 0.65 43.15 3.2 42.85 4.45 42.75 4.7 42.7 5.0 42.7 6.45 42.65 6.75 42.65 7.1 42.65 7.85 42.6 8.1 42.6 8.1 42.65 8.2 44.9 8.2 45.5 5.25 45.6 5.05 45.6 4.35 45.65 1.1 46.0 M9.9 36.7 L10.0 39.5 9.9 39.5 9.15 39.45 8.75 39.4 8.75 38.25 8.75 36.65 8.75 36.6 9.9 36.7 M9.05 42.65 L9.6 42.7 10.3 42.7 10.4 44.8 10.4 45.55 9.35 45.5 9.2 44.6 9.05 42.65" fill="#ff7f2c" fill-rule="evenodd" stroke="none"/>
    <path d="M-0.55 40.1 L0.7 39.9 4.45 39.45 5.65 39.4 7.4 39.4 7.5 39.4 7.85 42.6 7.1 42.65 6.75 42.65 6.45 42.65 5.0 42.7 4.7 42.7 4.45 42.75 3.2 42.85 0.65 43.15 -0.25 43.3 -0.4 41.85 -0.55 40.1 M9.15 39.45 L9.9 39.5 10.2 41.85 10.3 42.7 9.6 42.7 9.05 42.65 9.05 41.85 9.05 40.7 8.9 39.45 9.15 39.45" fill="#e2e2e2" fill-rule="evenodd" stroke="none"/>
    <path d="M-4.0 40.9 L-3.45 40.75 -1.5 40.25 -0.55 40.1 -0.4 41.85 -0.25 43.3 -0.45 43.35 -2.35 43.8 -3.05 44.0 -3.1 43.85 -3.45 41.85 -3.6 41.25 -3.6 40.8 -4.0 40.9 M-6.55 42.1 L-6.55 42.05 -6.4 42.5 -6.45 42.5 -6.55 42.1 M10.0 39.5 L11.4 39.6 12.25 39.75 12.7 39.8 12.35 39.75 12.55 41.85 12.6 42.6 12.65 42.95 12.6 42.95 11.15 42.75 10.3 42.7 10.2 41.85 9.9 39.5 10.0 39.5 M8.9 39.45 L9.05 40.7 9.05 41.85 9.05 42.65 8.65 42.65 8.1 42.65 8.1 42.6 7.85 42.6 7.5 39.4 8.9 39.45" fill="#b0b0b0" fill-rule="evenodd" stroke="none"/>
    <path d="M-4.2 41.0 L-4.0 40.9 -3.6 40.8 -3.6 41.25 -3.45 41.85 -3.1 43.85 -3.05 44.0 -3.15 44.0 -3.85 44.25 -3.95 44.25 Q-5.2 44.6 -5.9 44.95 L-6.9 45.6 -7.25 42.5 -6.5 41.85 -6.0 41.55 -4.3 41.0 -4.2 41.0 M-6.55 42.1 L-6.45 42.5 -6.4 42.5 -6.55 42.05 -6.55 42.1 M12.7 39.8 L13.3 39.9 13.95 40.05 15.0 40.25 15.05 40.25 16.25 40.75 16.45 40.85 16.75 44.15 Q16.3 43.85 15.65 43.65 L13.65 43.1 12.65 42.95 12.6 42.6 12.55 41.85 12.35 39.75 12.7 39.8" fill="#959595" fill-rule="evenodd" stroke="none"/>
    <path d="M-3.55 48.35 L-2.2 47.95 -1.9 52.1 -3.3 51.85 -3.35 51.85 -4.9 51.5 Q-6.3 51.1 -6.45 50.05 -6.35 49.5 -5.1 48.95 L-3.55 48.35 M13.9 50.6 L12.35 51.0 11.9 47.0 13.85 47.3 15.45 47.65 15.5 47.65 Q16.9 48.05 17.15 48.6 17.0 49.35 15.6 49.95 L15.55 49.95 13.9 50.55 13.9 50.6" fill="#9a440b" fill-rule="evenodd" stroke="none"/>
  </g>
</svg>
