<?xml version="1.0" encoding="UTF-8" standalone="no"?>
<svg xmlns:ffdec="https://www.free-decompiler.com/flash" xmlns:xlink="http://www.w3.org/1999/xlink" ffdec:objectType="shape" height="124.3px" width="74.75px" xmlns="http://www.w3.org/2000/svg">
  <g transform="matrix(1.0, 0.0, 0.0, 1.0, 33.8, 134.95)">
    <path d="M-0.4 -105.6 Q0.1 -102.55 1.05 -99.25 -3.9 -97.85 -6.4 -90.55 L-5.95 -101.5 -4.55 -101.6 -1.65 -102.0 Q-1.4 -101.7 -1.4 -102.7 L-4.35 -103.65 -5.85 -104.05 -5.65 -109.2 -7.05 -109.35 -6.95 -110.15 -6.4 -109.5 -5.6 -109.8 -5.65 -109.2 -3.35 -109.05 -2.95 -108.3 -1.6 -106.7 -0.4 -105.6 M3.5 -93.95 L6.85 -90.35 8.85 -88.4 3.9 -88.3 0.9 -88.3 3.5 -93.95 M-7.1 -72.35 L-7.2 -69.95 -7.45 -69.9 -10.1 -68.95 Q-10.3 -70.75 -11.0 -73.4 L-11.65 -76.8 -10.7 -82.9 -9.9 -89.15 -6.95 -88.8 -7.05 -88.45 Q-8.6 -82.65 -8.6 -75.7 L-8.45 -73.55 Q-8.2 -72.35 -7.4 -72.35 L-7.1 -72.35 M-7.35 -67.0 L-7.45 -64.05 -7.35 -64.05 -7.45 -63.9 -7.45 -64.05 -10.35 -64.25 -7.35 -67.0 M-0.75 -63.8 L2.75 -63.8 18.4 -64.5 18.2 -66.15 19.75 -66.75 19.45 -64.6 18.4 -64.5 20.1 -51.75 Q19.5 -50.45 16.55 -48.15 12.75 -45.15 12.5 -44.5 14.7 -42.0 18.95 -42.0 L21.4 -42.25 21.7 -40.05 20.6 -38.95 21.05 -38.55 14.0 -38.05 4.65 -43.75 12.1 -50.15 Q15.5 -53.1 15.5 -56.65 15.5 -58.45 15.05 -59.15 14.6 -59.8 13.5 -59.8 0.15 -55.4 -4.5 -54.1 L-7.95 -52.75 -7.6 -60.4 -4.65 -60.0 Q4.0 -60.0 6.25 -61.8 5.55 -62.45 3.75 -62.55 L-2.7 -62.6 -0.75 -63.8 M24.25 -17.5 L23.55 -23.55 24.5 -24.05 Q24.35 -24.9 23.35 -25.6 L23.05 -28.4 24.2 -27.9 Q26.75 -26.85 26.75 -25.3 26.75 -20.05 24.25 -17.5 M22.65 -32.05 L21.95 -38.0 22.7 -37.65 Q24.3 -36.6 26.0 -33.35 25.45 -32.95 22.9 -32.15 L22.65 -32.05 M-6.45 -37.95 L-8.55 -38.05 -8.7 -33.8 -16.55 -35.8 -16.45 -38.6 -8.55 -38.05 -8.5 -38.55 -6.45 -37.95 M-8.85 -29.9 L-9.1 -24.2 Q-9.35 -25.4 -10.25 -26.3 -11.45 -27.5 -13.15 -27.5 -14.85 -27.5 -16.05 -26.3 -17.25 -25.1 -17.25 -23.4 -17.25 -21.7 -16.05 -20.5 -14.85 -19.3 -13.15 -19.3 -11.45 -19.3 -10.25 -20.5 -9.45 -21.3 -9.2 -22.3 L-9.35 -17.8 -9.95 -17.15 Q-10.5 -16.6 -11.35 -16.6 L-19.7 -18.0 Q-19.6 -18.6 -19.65 -21.75 L-19.75 -25.5 -19.15 -30.75 -11.85 -30.1 -8.85 -29.9 M-5.45 -113.4 L-5.55 -110.9 Q-6.2 -110.9 -6.7 -111.55 L-6.2 -114.15 -5.65 -113.5 -5.6 -113.45 -5.45 -113.4" fill="#e0e0e0" fill-rule="evenodd" stroke="none"/>
    <path d="M10.15 -126.0 L9.6 -130.2 Q11.4 -127.55 12.75 -124.0 14.35 -119.75 16.6 -111.6 L15.1 -111.05 11.8 -121.4 10.75 -121.65 10.55 -123.15 11.2 -123.1 10.15 -126.0 M-0.6 -109.0 L0.9 -109.0 Q0.85 -107.35 1.1 -105.6 1.35 -103.75 1.9 -101.75 L2.55 -99.5 Q3.3 -97.45 4.25 -95.65 5.9 -92.6 8.25 -90.4 9.55 -89.25 10.85 -88.5 L8.85 -88.4 6.85 -90.35 3.5 -93.95 Q2.2 -96.45 1.05 -99.25 0.1 -102.55 -0.4 -105.6 L-0.6 -109.0 M15.55 -85.75 L15.35 -87.3 16.8 -87.55 Q18.75 -88.1 20.2 -89.55 L20.9 -89.7 21.95 -89.9 28.8 -66.25 27.3 -65.85 21.3 -88.55 19.7 -87.45 18.1 -86.4 16.3 -85.9 15.55 -85.75 M33.8 -40.6 L35.25 -41.15 37.25 -32.35 Q39.6 -21.85 40.95 -14.45 L39.55 -14.45 Q29.55 -11.65 25.8 -11.0 L24.95 -10.85 24.75 -12.75 31.15 -13.8 38.35 -15.3 Q38.95 -15.9 38.95 -17.7 38.95 -20.0 33.8 -40.6 M-9.6 -12.4 L-9.65 -10.65 -15.3 -11.25 Q-29.25 -13.0 -32.55 -15.95 L-33.8 -16.85 -32.65 -23.8 -28.9 -40.8 -27.25 -40.3 -31.95 -17.9 Q-31.95 -16.55 -28.35 -15.65 -24.25 -14.6 -9.6 -12.4 M-21.85 -65.9 L-23.35 -66.3 -21.2 -76.15 -17.95 -91.05 -16.5 -90.5 -17.8 -84.5 -21.85 -65.9 M-13.0 -110.6 L-13.85 -110.9 -13.4 -113.3 Q-11.3 -124.85 -9.8 -128.55 -7.85 -133.3 -4.6 -134.95 L-4.7 -131.85 Q-7.75 -126.8 -7.05 -119.45 L-7.0 -118.95 Q-6.8 -117.35 -5.75 -115.85 L-5.4 -115.35 -5.45 -113.4 -5.6 -113.45 -5.65 -113.5 -6.2 -114.15 -6.7 -114.9 -7.85 -117.1 -8.5 -118.6 Q-9.2 -126.25 -6.3 -131.65 L-7.0 -130.8 Q-9.35 -127.6 -11.05 -120.55 L-13.0 -110.6" fill="#464646" fill-rule="evenodd" stroke="none"/>
    <path d="M10.55 -123.15 L10.15 -126.0 11.2 -123.1 10.55 -123.15 M27.3 -65.85 L24.05 -65.25 22.4 -71.1 20.6 -69.95 20.0 -70.05 Q19.65 -70.2 19.65 -70.85 L20.3 -72.4 Q20.9 -74.25 20.9 -76.7 20.9 -79.65 20.35 -81.35 L18.1 -86.4 19.7 -87.45 21.3 -88.55 27.3 -65.85 M30.3 -39.75 L33.8 -40.6 Q38.95 -20.0 38.95 -17.7 38.95 -15.9 38.35 -15.3 L31.15 -13.8 24.75 -12.75 24.6 -14.4 25.55 -14.85 Q28.85 -16.3 29.5 -16.7 32.9 -18.7 32.9 -24.35 32.9 -27.7 32.3 -30.95 L30.3 -39.75 M-9.55 -12.7 L-9.6 -12.4 Q-24.25 -14.6 -28.35 -15.65 -31.95 -16.55 -31.95 -17.9 L-27.25 -40.3 -21.9 -39.3 -20.85 -34.3 -21.8 -33.5 -23.5 -31.8 Q-25.85 -28.25 -25.85 -18.6 -25.85 -17.0 -18.5 -15.1 L-9.55 -12.7 M-17.5 -65.1 L-18.2 -65.2 -21.85 -65.9 -17.8 -84.5 -16.5 -90.5 -13.3 -89.75 -14.7 -80.2 Q-16.1 -70.5 -17.5 -65.1 M-9.9 -109.8 L-10.85 -110.0 -13.0 -110.6 -11.05 -120.55 Q-9.35 -127.6 -7.0 -130.8 L-6.3 -131.65 Q-9.2 -126.25 -8.5 -118.6 L-7.85 -117.1 -8.4 -115.35 -7.8 -113.65 Q-7.3 -112.25 -6.7 -111.55 -6.2 -110.9 -5.55 -110.9 L-5.6 -109.8 -6.4 -109.5 -6.95 -110.15 Q-8.25 -111.8 -8.95 -113.5 L-9.9 -109.8" fill="#8a8a8a" fill-rule="evenodd" stroke="none"/>
    <path d="M-0.6 -109.0 L-0.4 -105.6 -1.6 -106.7 -2.95 -108.3 -3.35 -109.05 -0.6 -109.0 M1.05 -99.25 Q2.2 -96.45 3.5 -93.95 L0.9 -88.3 -6.45 -88.75 -7.1 -72.35 -7.4 -72.35 Q-8.2 -72.35 -8.45 -73.55 L-8.6 -75.7 Q-8.6 -82.65 -7.05 -88.45 L-6.95 -88.8 -6.45 -88.75 -6.4 -90.55 Q-3.9 -97.85 1.05 -99.25 M-7.35 -64.05 L-0.75 -63.8 -2.7 -62.6 3.75 -62.55 Q5.55 -62.45 6.25 -61.8 4.0 -60.0 -4.65 -60.0 L-7.6 -60.4 -7.45 -63.9 -7.35 -64.05 M23.55 -23.55 L23.35 -25.6 Q24.35 -24.9 24.5 -24.05 L23.55 -23.55 M14.0 -38.05 Q8.75 -37.8 2.75 -37.8 -2.1 -37.8 -6.45 -37.95 L-8.5 -38.55 -7.95 -52.75 -4.5 -54.1 Q0.15 -55.4 13.5 -59.8 14.6 -59.8 15.05 -59.15 15.5 -58.45 15.5 -56.65 15.5 -53.1 12.1 -50.15 L4.65 -43.75 14.0 -38.05 M-9.1 -24.2 L-9.2 -22.3 Q-9.45 -21.3 -10.25 -20.5 -11.45 -19.3 -13.15 -19.3 -14.85 -19.3 -16.05 -20.5 -17.25 -21.7 -17.25 -23.4 -17.25 -25.1 -16.05 -26.3 -14.85 -27.5 -13.15 -27.5 -11.45 -27.5 -10.25 -26.3 -9.35 -25.4 -9.1 -24.2" fill="#ffffff" fill-rule="evenodd" stroke="none"/>
    <path d="M-7.2 -69.95 L-7.35 -67.0 -10.35 -64.25 -17.5 -65.1 Q-16.1 -70.5 -14.7 -80.2 L-13.3 -89.75 -13.1 -89.7 -9.9 -89.15 -10.7 -82.9 -11.65 -76.8 -11.0 -73.4 Q-10.3 -70.75 -10.1 -68.95 L-7.45 -69.9 -7.2 -69.95 M18.2 -66.15 L15.55 -85.75 16.3 -85.9 18.1 -86.4 20.35 -81.35 Q20.9 -79.65 20.9 -76.7 20.9 -74.25 20.3 -72.4 L19.65 -70.85 Q19.65 -70.2 20.0 -70.05 L20.6 -69.95 22.4 -71.1 24.05 -65.25 23.75 -65.2 19.45 -64.6 19.75 -66.75 18.2 -66.15 M20.1 -51.75 L21.4 -42.25 18.95 -42.0 Q14.7 -42.0 12.5 -44.5 12.75 -45.15 16.55 -48.15 19.5 -50.45 20.1 -51.75 M21.7 -40.05 L21.9 -38.6 26.75 -39.2 30.3 -39.75 32.3 -30.95 Q32.9 -27.7 32.9 -24.35 32.9 -18.7 29.5 -16.7 28.85 -16.3 25.55 -14.85 L24.6 -14.4 24.25 -17.5 Q26.75 -20.05 26.75 -25.3 26.75 -26.85 24.2 -27.9 L23.05 -28.4 22.65 -32.05 22.9 -32.15 Q25.45 -32.95 26.0 -33.35 24.3 -36.6 22.7 -37.65 L21.95 -38.0 21.9 -38.6 21.05 -38.55 20.6 -38.95 21.7 -40.05 M-8.7 -33.8 L-8.85 -29.9 -11.85 -30.1 -19.15 -30.75 -19.75 -25.5 -19.65 -21.75 Q-19.6 -18.6 -19.7 -18.0 L-11.35 -16.6 Q-10.5 -16.6 -9.95 -17.15 L-9.35 -17.8 -9.55 -12.7 -18.5 -15.1 Q-25.85 -17.0 -25.85 -18.6 -25.85 -28.25 -23.5 -31.8 L-21.8 -33.5 -20.85 -34.3 -21.9 -39.3 -21.25 -39.2 -16.45 -38.6 -16.55 -35.8 -8.7 -33.8 M-5.95 -101.5 L-5.85 -104.05 -4.35 -103.65 -1.4 -102.7 Q-1.4 -101.7 -1.65 -102.0 L-4.55 -101.6 -5.95 -101.5 M-7.05 -109.35 L-9.9 -109.8 -8.95 -113.5 Q-8.25 -111.8 -6.95 -110.15 L-7.05 -109.35 M-7.85 -117.1 L-6.7 -114.9 -6.2 -114.15 -6.7 -111.55 Q-7.3 -112.25 -7.8 -113.65 L-8.4 -115.35 -7.85 -117.1" fill="#b4b4b4" fill-rule="evenodd" stroke="none"/>
  </g>
</svg>
