<?xml version="1.0" encoding="UTF-8" standalone="no"?>
<svg xmlns:ffdec="https://www.free-decompiler.com/flash" xmlns:xlink="http://www.w3.org/1999/xlink" ffdec:objectType="shape" height="63.1px" width="19.85px" xmlns="http://www.w3.org/2000/svg">
  <g transform="matrix(1.0, 0.0, 0.0, 1.0, 7.9, 1.55)">
    <path d="M-5.95 0.15 L-5.75 0.95 Q-2.0 17.05 0.8 54.65 L1.15 55.3 1.25 56.3 1.25 56.4 Q1.5 57.55 2.45 58.2 L2.45 58.15 Q5.2 59.9 7.15 59.4 L8.5 58.5 9.65 56.65 9.95 56.0 4.4 -0.45 4.4 -0.7 4.65 -1.15 Q4.9 -1.5 5.3 -1.55 L6.05 -1.3 6.4 -0.65 Q10.85 33.2 11.95 56.0 L11.95 56.1 11.95 56.4 11.65 57.1 11.2 57.4 11.65 57.15 Q10.2 60.6 7.75 61.3 5.15 62.25 1.4 59.85 L1.35 59.85 -0.2 58.2 -0.5 58.0 -0.85 57.55 -0.9 57.4 -0.9 57.35 Q-2.45 32.75 -7.9 0.4 L-7.45 0.2 Q-7.05 0.15 -6.75 0.4 -6.4 0.65 -6.1 -0.4 L-5.95 0.15" fill="#737373" fill-rule="evenodd" stroke="none"/>
    <path d="M1.15 -1.5 L1.5 -1.45 1.85 -1.45 3.65 -1.25 4.4 -0.7 4.4 -0.45 9.95 56.0 9.65 56.65 8.5 58.5 7.15 59.4 Q5.2 59.9 2.45 58.15 L2.45 58.2 Q1.5 57.55 1.25 56.4 L1.25 56.3 1.15 55.3 0.8 54.65 Q-2.0 17.05 -5.75 0.95 L-5.95 0.15 -4.8 -0.85 -4.1 -1.2 -4.1 -1.1 -3.6 3.1 -2.0 11.5 Q-1.1 15.55 0.2 28.25 L0.65 34.35 1.45 42.65 2.65 50.75 Q3.65 55.6 5.2 56.95 6.9 56.85 7.5 56.4 L7.95 56.15 8.05 56.55 Q6.85 51.3 6.9 47.95 L5.15 31.45 Q1.15 1.5 1.15 -1.4 L1.15 -1.5" fill="#d0d0d0" fill-rule="evenodd" stroke="none"/>
    <path d="M1.15 -1.5 L1.15 -1.4 Q1.15 1.5 5.15 31.45 L6.9 47.95 Q6.85 51.3 8.05 56.55 L7.95 56.15 7.5 56.4 Q6.9 56.85 5.2 56.95 3.65 55.6 2.65 50.75 L1.45 42.65 0.65 34.35 0.2 28.25 Q-1.1 15.55 -2.0 11.5 L-3.6 3.1 -4.1 -1.1 -4.1 -1.2 -2.35 -1.55 1.15 -1.5" fill="#fcfcfc" fill-rule="evenodd" stroke="none"/>
  </g>
</svg>
