<?xml version="1.0" encoding="UTF-8" standalone="no"?>
<svg xmlns:ffdec="https://www.free-decompiler.com/flash" xmlns:xlink="http://www.w3.org/1999/xlink" ffdec:objectType="shape" height="68.1px" width="92.9px" xmlns="http://www.w3.org/2000/svg">
  <g transform="matrix(1.0, 0.0, 0.0, 1.0, 73.15, 149.6)">
    <path d="M11.35 -144.1 L11.85 -142.5 Q12.3 -141.65 13.4 -141.4 15.85 -140.9 19.25 -134.55 19.25 -133.95 19.05 -133.7 L18.85 -133.3 19.3 -131.85 19.75 -130.2 Q19.75 -129.1 18.8 -128.0 L17.85 -127.05 18.05 -125.0 Q18.25 -123.55 18.05 -122.95 16.35 -121.9 15.95 -120.65 15.75 -119.2 15.4 -118.45 14.7 -116.9 13.3 -116.7 L11.15 -116.35 8.95 -114.15 Q8.1 -113.1 7.25 -113.1 6.75 -113.1 6.25 -113.55 L5.25 -114.0 1.5 -112.6 Q0.6 -112.6 -0.4 -113.1 L-1.6 -114.0 Q-2.6 -115.1 -4.6 -122.15 L-5.75 -124.45 Q-6.05 -125.15 -6.9 -125.4 L-8.5 -125.75 Q-9.6 -126.1 -11.35 -127.3 -12.8 -128.3 -13.45 -128.3 -14.6 -128.3 -15.2 -127.55 L-16.1 -126.85 -17.45 -127.05 -18.85 -127.2 Q-20.65 -127.05 -21.55 -126.5 -22.45 -125.95 -23.5 -125.85 -29.75 -125.0 -29.75 -123.5 -29.75 -121.45 -32.5 -121.25 -35.3 -121.0 -35.3 -119.45 L-35.2 -117.9 Q-35.2 -116.95 -35.55 -116.1 -35.9 -115.3 -36.95 -114.75 L-37.9 -114.3 -37.65 -112.75 Q-37.5 -111.8 -37.7 -111.2 -38.05 -110.2 -39.15 -109.5 L-40.15 -108.9 -39.55 -106.0 -39.0 -103.9 -39.7 -102.2 -40.4 -100.75 Q-40.4 -99.05 -39.55 -98.15 -38.75 -97.25 -38.75 -95.6 -38.75 -95.0 -40.2 -92.9 L-41.65 -90.8 Q-41.65 -89.35 -41.1 -88.2 L-40.6 -87.2 Q-40.6 -86.8 -41.35 -85.8 -42.25 -84.55 -43.5 -84.05 L-46.85 -82.35 Q-47.8 -81.8 -48.85 -81.8 -49.25 -81.8 -50.7 -82.65 L-53.3 -84.45 -55.6 -82.5 Q-56.85 -81.5 -57.6 -81.5 -59.15 -81.5 -61.0 -82.55 -62.85 -83.55 -64.0 -83.5 -66.45 -83.35 -67.25 -84.75 L-67.7 -86.9 Q-67.9 -88.2 -69.15 -89.95 L-70.6 -91.8 -70.75 -94.9 -70.9 -98.15 Q-71.2 -99.4 -72.0 -101.0 L-71.65 -103.0 -71.35 -104.75 Q-71.4 -105.55 -72.3 -106.45 L-73.15 -107.25 Q-73.15 -108.45 -72.25 -110.45 L-71.35 -112.3 Q-71.35 -112.8 -73.15 -114.95 -73.15 -115.85 -71.25 -117.65 -69.15 -119.6 -68.9 -120.35 L-68.2 -122.75 Q-67.35 -124.05 -63.6 -125.6 -63.9 -126.65 -63.45 -127.8 -63.0 -128.95 -62.2 -129.35 L-60.15 -129.85 Q-58.35 -130.55 -57.95 -132.1 L-57.45 -133.65 -56.55 -134.3 -53.65 -134.65 Q-54.05 -135.75 -53.5 -136.75 -52.85 -137.85 -51.4 -137.85 L-48.85 -137.25 Q-49.0 -139.75 -48.65 -140.15 L-45.95 -140.5 Q-43.65 -140.45 -42.75 -141.75 -41.9 -143.05 -41.25 -143.05 L-40.15 -142.75 -39.15 -142.9 Q-38.35 -143.35 -37.55 -144.45 L-36.75 -145.35 -35.1 -144.95 -33.5 -144.6 -30.5 -147.05 -29.3 -146.65 Q-28.6 -146.25 -28.1 -146.25 -26.85 -146.25 -26.15 -147.55 -25.4 -148.85 -23.75 -148.85 -22.45 -148.85 -21.7 -148.3 -20.95 -147.75 -20.5 -147.75 L-15.0 -149.6 Q-14.75 -149.6 -12.6 -148.0 L-8.0 -149.55 Q-6.6 -149.55 -6.2 -149.0 L-5.75 -148.0 Q-4.95 -149.1 -3.0 -149.1 -2.85 -149.1 -1.25 -148.0 0.45 -146.8 1.65 -146.5 L4.45 -146.7 Q6.0 -146.75 6.6 -144.5 10.7 -145.8 11.35 -144.1 M-37.05 -121.35 L-33.7 -122.65 Q-31.7 -123.25 -30.7 -124.25 L-28.0 -126.8 Q-26.3 -128.05 -24.45 -128.1 L-18.35 -128.95 -13.8 -129.75 Q-12.2 -129.75 -8.6 -128.05 -4.35 -125.95 -3.35 -123.65 L-1.9 -118.2 Q-0.75 -114.4 1.2 -114.4 1.9 -114.4 5.25 -115.85 L6.25 -115.4 Q6.7 -115.0 7.2 -115.0 L8.75 -116.8 Q9.15 -117.35 12.85 -118.6 13.5 -118.95 13.7 -119.65 L14.2 -121.6 15.6 -122.85 Q16.6 -123.55 16.6 -124.1 L16.45 -126.0 16.4 -127.65 17.45 -129.35 18.15 -130.4 17.8 -131.2 16.6 -133.05 17.35 -134.4 Q16.5 -136.8 13.3 -138.5 10.15 -140.15 9.4 -142.65 L5.5 -142.55 Q4.6 -142.75 4.5 -143.5 4.2 -141.65 2.7 -142.4 L0.2 -144.45 -2.05 -146.2 -3.15 -147.25 -5.75 -146.1 Q-7.2 -146.1 -8.25 -147.85 L-12.6 -145.85 -15.75 -147.8 Q-16.2 -147.8 -18.05 -146.8 -19.9 -145.85 -20.6 -145.85 -21.65 -145.85 -23.75 -147.0 L-27.75 -144.15 Q-28.4 -144.15 -30.25 -145.25 L-31.6 -144.2 -33.85 -142.65 -36.05 -143.2 Q-37.6 -142.6 -38.05 -141.4 -38.4 -140.5 -39.55 -140.5 L-40.55 -140.75 -41.1 -141.25 Q-41.3 -140.25 -41.85 -139.6 L-42.4 -139.05 -42.45 -139.05 -42.4 -139.05 Q-44.05 -138.6 -47.15 -139.05 -46.8 -137.25 -47.65 -136.55 -48.1 -136.2 -48.7 -136.2 L-50.7 -136.3 -52.3 -136.25 Q-51.85 -134.7 -52.2 -133.9 L-52.75 -133.15 -55.55 -132.75 Q-56.6 -132.55 -56.6 -131.45 -55.8 -129.4 -56.1 -129.0 -56.45 -128.5 -62.25 -127.3 -61.5 -126.15 -61.7 -125.3 L-62.25 -124.35 -64.7 -123.0 Q-67.05 -121.8 -67.05 -121.15 -66.4 -119.55 -66.55 -118.8 -66.8 -117.65 -71.05 -114.85 L-69.6 -113.0 -69.05 -112.05 -71.3 -107.35 Q-71.3 -106.7 -70.7 -106.5 -69.8 -106.2 -69.05 -104.65 L-70.0 -101.1 -68.0 -98.7 -68.75 -94.6 Q-68.95 -92.7 -68.0 -92.0 -66.7 -91.35 -66.1 -90.6 -65.8 -90.25 -65.5 -87.75 -65.25 -85.55 -64.65 -85.55 L-60.6 -85.7 -59.2 -84.45 Q-58.4 -83.6 -57.55 -83.6 -57.35 -83.6 -55.4 -85.1 L-53.1 -86.75 Q-51.85 -86.05 -50.15 -84.8 L-48.65 -83.75 Q-48.35 -83.75 -45.4 -85.4 -42.4 -87.1 -42.4 -87.35 L-43.6 -90.9 -42.25 -93.65 Q-40.9 -96.4 -40.9 -96.7 -40.9 -98.35 -41.65 -99.65 L-42.4 -100.75 -41.7 -102.45 Q-41.0 -103.7 -41.0 -104.2 L-41.4 -106.0 -41.85 -107.8 Q-41.85 -109.05 -40.45 -110.9 L-39.1 -112.55 Q-39.1 -113.05 -39.45 -113.4 -39.85 -113.75 -39.85 -114.25 -39.85 -115.15 -38.55 -116.3 L-36.8 -118.1 -36.95 -120.4 -37.05 -121.35" fill="#535353" fill-rule="evenodd" stroke="none"/>
    <path d="M-36.05 -143.2 L-33.85 -142.65 -31.6 -144.2 -30.25 -145.25 Q-28.4 -144.15 -27.75 -144.15 L-23.75 -147.0 Q-21.65 -145.85 -20.6 -145.85 -19.9 -145.85 -18.05 -146.8 -16.2 -147.8 -15.75 -147.8 L-12.6 -145.85 -8.25 -147.85 Q-7.2 -146.1 -5.75 -146.1 L-3.15 -147.25 -2.05 -146.2 0.2 -144.45 2.7 -142.4 Q4.2 -141.65 4.5 -143.5 4.6 -142.75 5.5 -142.55 L9.4 -142.65 Q10.15 -140.15 13.3 -138.5 16.5 -136.8 17.35 -134.4 L16.6 -133.05 17.8 -131.2 18.15 -130.4 17.45 -129.35 16.4 -127.65 16.45 -126.0 16.6 -124.1 Q16.6 -123.55 15.6 -122.85 L14.2 -121.6 13.7 -119.65 Q13.5 -118.95 12.85 -118.6 9.15 -117.35 8.75 -116.8 L7.2 -115.0 Q6.7 -115.0 6.25 -115.4 L5.25 -115.85 Q1.9 -114.4 1.2 -114.4 -0.75 -114.4 -1.9 -118.2 L-3.35 -123.65 Q-4.35 -125.95 -8.6 -128.05 -12.2 -129.75 -13.8 -129.75 L-18.35 -128.95 -24.45 -128.1 Q-26.3 -128.05 -28.0 -126.8 L-30.7 -124.25 Q-31.7 -123.25 -33.7 -122.65 L-37.05 -121.35 Q-36.3 -122.7 -33.0 -125.0 L-29.5 -127.5 Q-28.55 -128.85 -27.55 -130.75 -26.5 -132.7 -26.5 -133.2 L-27.9 -136.65 -26.85 -138.9 -30.35 -139.65 -34.1 -140.25 Q-35.55 -140.7 -35.8 -141.6 L-36.05 -143.2 M-36.95 -120.4 L-36.8 -118.1 -37.15 -118.55 -37.3 -119.45 -37.1 -121.2 -36.95 -120.4" fill="#919191" fill-rule="evenodd" stroke="none"/>
    <path d="M-37.05 -121.35 L-36.95 -120.4 -37.1 -121.2 -37.3 -119.45 -37.15 -118.55 -36.8 -118.1 -38.55 -116.3 Q-39.85 -115.15 -39.85 -114.25 -39.85 -113.75 -39.45 -113.4 -39.1 -113.05 -39.1 -112.55 L-40.45 -110.9 Q-41.85 -109.05 -41.85 -107.8 L-41.4 -106.0 -41.0 -104.2 Q-41.0 -103.7 -41.7 -102.45 L-42.4 -100.75 -41.65 -99.65 Q-40.9 -98.35 -40.9 -96.7 -40.9 -96.4 -42.25 -93.65 L-43.6 -90.9 -42.4 -87.35 Q-42.4 -87.1 -45.4 -85.4 -48.35 -83.75 -48.65 -83.75 L-50.15 -84.8 Q-51.85 -86.05 -53.1 -86.75 L-48.8 -90.35 Q-45.1 -93.9 -45.1 -97.05 -45.1 -97.55 -45.45 -98.65 L-45.85 -100.3 -44.35 -104.1 Q-44.35 -104.6 -44.7 -105.4 L-45.1 -106.75 Q-45.1 -108.1 -43.1 -110.95 L-45.5 -110.85 -45.6 -111.6 -45.5 -112.1 -44.75 -112.3 -41.8 -112.05 -41.6 -112.8 Q-42.05 -114.8 -40.95 -117.0 -39.5 -119.75 -39.4 -120.5 -39.1 -122.65 -37.65 -124.1 L-35.5 -126.25 Q-35.9 -126.15 -36.85 -126.7 L-38.35 -127.25 -39.15 -127.05 -39.75 -126.1 -40.2 -126.3 -40.35 -127.0 -40.2 -127.95 -39.75 -128.35 -39.45 -128.55 -38.65 -128.6 -36.95 -128.15 -35.25 -127.75 Q-34.2 -127.75 -32.2 -129.2 -30.05 -130.75 -29.75 -131.95 L-30.35 -132.15 -31.25 -132.4 Q-33.9 -132.4 -34.75 -130.35 L-35.2 -130.55 -35.35 -131.15 Q-34.9 -132.0 -33.25 -132.95 -31.75 -133.8 -31.0 -133.9 L-31.75 -134.65 Q-34.2 -136.7 -35.0 -136.7 -35.45 -136.7 -36.2 -135.9 L-37.0 -135.15 Q-37.65 -135.15 -37.75 -135.4 L-37.75 -135.75 -37.15 -136.9 -36.5 -137.8 Q-37.3 -138.2 -37.3 -138.55 L-42.4 -139.05 -41.85 -139.6 Q-41.3 -140.25 -41.1 -141.25 L-40.55 -140.75 -39.55 -140.5 Q-38.4 -140.5 -38.05 -141.4 -37.6 -142.6 -36.05 -143.2 L-35.8 -141.6 Q-35.55 -140.7 -34.1 -140.25 L-30.35 -139.65 -26.85 -138.9 -27.9 -136.65 -26.5 -133.2 Q-26.5 -132.7 -27.55 -130.75 -28.55 -128.85 -29.5 -127.5 L-33.0 -125.0 Q-36.3 -122.7 -37.05 -121.35 M-41.9 -118.65 L-41.6 -118.1 Q-41.6 -117.75 -41.9 -117.5 L-42.75 -117.3 -43.55 -117.5 Q-43.9 -117.75 -43.9 -118.1 L-43.55 -118.65 -42.75 -118.9 -41.9 -118.65 M-50.75 -103.35 Q-51.7 -103.75 -51.25 -104.8 -50.75 -106.0 -48.7 -106.0 L-47.35 -105.75 Q-46.25 -105.35 -46.25 -104.5 -46.25 -103.85 -46.4 -103.8 L-46.55 -103.85 -46.75 -103.8 Q-47.15 -103.8 -47.7 -104.3 -48.2 -104.8 -48.75 -104.8 -49.4 -104.8 -49.75 -104.4 L-50.75 -103.35" fill="#c5c5c5" fill-rule="evenodd" stroke="none"/>
    <path d="M-53.1 -86.75 L-55.4 -85.1 Q-57.35 -83.6 -57.55 -83.6 -58.4 -83.6 -59.2 -84.45 L-60.6 -85.7 -64.65 -85.55 Q-65.25 -85.55 -65.5 -87.75 -65.8 -90.25 -66.1 -90.6 -66.7 -91.35 -68.0 -92.0 -68.95 -92.7 -68.75 -94.6 L-68.0 -98.7 -70.0 -101.1 -69.05 -104.65 Q-69.8 -106.2 -70.7 -106.5 -71.3 -106.7 -71.3 -107.35 L-69.05 -112.05 -69.6 -113.0 -71.05 -114.85 Q-66.8 -117.65 -66.55 -118.8 -66.4 -119.55 -67.05 -121.15 -67.05 -121.8 -64.7 -123.0 L-62.25 -124.35 -61.7 -125.3 Q-61.5 -126.15 -62.25 -127.3 -56.45 -128.5 -56.1 -129.0 -55.8 -129.4 -56.6 -131.45 -56.6 -132.55 -55.55 -132.75 L-52.75 -133.15 -52.2 -133.9 Q-51.85 -134.7 -52.3 -136.25 L-50.7 -136.3 -48.7 -136.2 Q-48.1 -136.2 -47.65 -136.55 -46.8 -137.25 -47.15 -139.05 -44.05 -138.6 -42.4 -139.05 L-42.45 -139.05 -42.4 -139.05 -37.3 -138.55 Q-37.3 -138.2 -36.5 -137.8 L-37.15 -136.9 -37.75 -135.75 -37.75 -135.4 Q-37.65 -135.15 -37.0 -135.15 L-36.2 -135.9 Q-35.45 -136.7 -35.0 -136.7 -34.2 -136.7 -31.75 -134.65 L-31.0 -133.9 Q-31.75 -133.8 -33.25 -132.95 -34.9 -132.0 -35.35 -131.15 L-35.2 -130.55 -34.75 -130.35 Q-33.9 -132.4 -31.25 -132.4 L-30.35 -132.15 -29.75 -131.95 Q-30.05 -130.75 -32.2 -129.2 -34.2 -127.75 -35.25 -127.75 L-36.95 -128.15 -38.65 -128.6 -39.45 -128.55 -39.75 -128.35 -40.2 -127.95 -40.35 -127.0 -40.2 -126.3 -39.75 -126.1 -39.15 -127.05 -38.35 -127.25 -36.85 -126.7 Q-35.9 -126.15 -35.5 -126.25 L-37.65 -124.1 Q-39.1 -122.65 -39.4 -120.5 -39.5 -119.75 -40.95 -117.0 -42.05 -114.8 -41.6 -112.8 L-41.8 -112.05 -44.75 -112.3 -45.5 -112.1 -45.6 -111.6 -45.5 -110.85 -43.1 -110.95 Q-45.1 -108.1 -45.1 -106.75 L-44.7 -105.4 Q-44.35 -104.6 -44.35 -104.1 L-45.85 -100.3 -45.45 -98.65 Q-45.1 -97.55 -45.1 -97.05 -45.1 -93.9 -48.8 -90.35 L-53.1 -86.75 M-60.0 -124.95 Q-61.95 -123.9 -61.85 -122.2 L-61.4 -120.65 Q-61.4 -119.6 -64.05 -118.2 -66.75 -116.8 -66.75 -116.1 -66.75 -114.6 -66.0 -114.1 -65.25 -113.55 -65.25 -112.25 L-68.3 -108.4 Q-68.3 -104.95 -64.95 -102.45 -62.2 -100.4 -59.75 -100.4 -57.7 -100.4 -57.45 -102.25 -57.15 -104.75 -56.4 -105.35 -55.55 -106.05 -51.95 -107.15 -49.2 -107.95 -48.65 -109.7 -48.5 -110.2 -48.5 -113.75 -48.5 -115.65 -46.05 -117.85 -43.65 -120.05 -43.65 -122.75 -43.65 -123.25 -44.0 -124.25 L-44.4 -125.75 -41.4 -128.3 Q-38.4 -130.65 -38.4 -131.6 -38.4 -132.35 -40.8 -133.95 -43.5 -135.8 -45.75 -135.8 L-48.15 -133.95 -51.45 -130.7 -53.95 -129.6 Q-56.35 -128.45 -56.85 -127.35 -57.2 -126.45 -60.0 -124.95 M-60.8 -110.2 L-60.85 -110.75 -59.9 -112.45 Q-58.65 -114.1 -56.95 -114.1 -56.0 -114.1 -54.7 -113.0 -53.35 -111.85 -53.35 -111.0 -53.35 -110.35 -53.7 -110.2 L-54.25 -110.1 -55.65 -111.45 -57.25 -112.85 Q-58.65 -112.75 -59.5 -111.75 L-60.65 -110.35 -60.8 -110.2 M-62.0 -115.35 L-62.45 -115.65 Q-63.1 -117.35 -62.05 -118.4 -61.15 -119.4 -59.45 -119.4 -58.8 -119.4 -57.9 -118.75 L-57.15 -118.15 -57.7 -117.55 -60.1 -117.7 Q-60.85 -117.3 -62.0 -115.35 M-47.25 -124.8 L-46.1 -124.6 -45.55 -124.4 -45.35 -123.4 -45.6 -122.4 Q-46.0 -122.4 -46.35 -122.8 -46.75 -123.25 -47.25 -123.25 -48.25 -123.25 -48.05 -122.6 L-48.75 -122.55 Q-49.15 -122.6 -49.15 -123.25 L-49.0 -123.85 Q-48.35 -124.8 -47.25 -124.8 M-44.4 -132.75 Q-43.4 -131.45 -43.15 -129.95 -44.45 -130.5 -45.6 -132.4 L-46.1 -131.5 Q-46.4 -131.05 -47.0 -131.05 -47.6 -131.05 -47.7 -131.4 L-47.75 -131.95 -46.55 -133.55 -45.95 -133.95 Q-45.35 -133.95 -44.4 -132.75 M-54.8 -125.45 L-52.9 -124.95 Q-51.4 -124.25 -51.4 -123.15 -51.4 -122.5 -51.5 -122.55 L-51.65 -122.7 Q-53.15 -123.15 -54.5 -124.05 -54.55 -123.55 -55.2 -122.85 -55.85 -122.1 -56.25 -122.1 -56.85 -122.1 -56.9 -122.35 L-56.85 -122.9 Q-56.5 -124.05 -55.75 -124.8 L-54.8 -125.45 M-51.3 -127.6 Q-52.25 -127.55 -52.4 -128.25 L-50.5 -130.1 Q-49.25 -130.1 -48.6 -128.35 L-49.1 -127.65 Q-49.7 -127.65 -50.1 -127.95 -50.5 -128.25 -51.3 -127.6 M-41.9 -118.65 L-42.75 -118.9 -43.55 -118.65 -43.9 -118.1 Q-43.9 -117.75 -43.55 -117.5 L-42.75 -117.3 -41.9 -117.5 Q-41.6 -117.75 -41.6 -118.1 L-41.9 -118.65 M-49.45 -118.75 Q-49.25 -118.55 -49.0 -117.75 -49.05 -117.3 -49.55 -117.0 L-50.45 -117.25 -51.1 -117.5 -51.75 -117.05 Q-52.3 -116.65 -52.5 -116.6 L-53.15 -117.5 -52.2 -118.6 Q-51.55 -119.15 -50.85 -119.15 -49.85 -119.15 -49.45 -118.75 M-50.75 -103.35 L-49.75 -104.4 Q-49.4 -104.8 -48.75 -104.8 -48.2 -104.8 -47.7 -104.3 -47.15 -103.8 -46.75 -103.8 L-46.55 -103.85 -46.4 -103.8 Q-46.25 -103.85 -46.25 -104.5 -46.25 -105.35 -47.35 -105.75 L-48.7 -106.0 Q-50.75 -106.0 -51.25 -104.8 -51.7 -103.75 -50.75 -103.35" fill="#e9e9e9" fill-rule="evenodd" stroke="none"/>
    <path d="M-60.0 -124.95 Q-57.2 -126.45 -56.85 -127.35 -56.35 -128.45 -53.95 -129.6 L-51.45 -130.7 -48.15 -133.95 -45.75 -135.8 Q-43.5 -135.8 -40.8 -133.95 -38.4 -132.35 -38.4 -131.6 -38.4 -130.65 -41.4 -128.3 L-44.4 -125.75 -44.0 -124.25 Q-43.65 -123.25 -43.65 -122.75 -43.65 -120.05 -46.05 -117.85 -48.5 -115.65 -48.5 -113.75 -48.5 -110.2 -48.65 -109.7 -49.2 -107.95 -51.95 -107.15 -55.55 -106.05 -56.4 -105.35 -57.15 -104.75 -57.45 -102.25 -57.7 -100.4 -59.75 -100.4 -62.2 -100.4 -64.95 -102.45 -68.3 -104.95 -68.3 -108.4 L-65.25 -112.25 Q-65.25 -113.55 -66.0 -114.1 -66.75 -114.6 -66.75 -116.1 -66.75 -116.8 -64.05 -118.2 -61.4 -119.6 -61.4 -120.65 L-61.85 -122.2 Q-61.95 -123.9 -60.0 -124.95 M-51.3 -127.6 Q-50.5 -128.25 -50.1 -127.95 -49.7 -127.65 -49.1 -127.65 L-48.6 -128.35 Q-49.25 -130.1 -50.5 -130.1 L-52.4 -128.25 Q-52.25 -127.55 -51.3 -127.6 M-54.8 -125.45 L-55.75 -124.8 Q-56.5 -124.05 -56.85 -122.9 L-56.9 -122.35 Q-56.85 -122.1 -56.25 -122.1 -55.85 -122.1 -55.2 -122.85 -54.55 -123.55 -54.5 -124.05 -53.15 -123.15 -51.65 -122.7 L-51.5 -122.55 Q-51.4 -122.5 -51.4 -123.15 -51.4 -124.25 -52.9 -124.95 L-54.8 -125.45 M-44.4 -132.75 Q-45.35 -133.95 -45.95 -133.95 L-46.55 -133.55 -47.75 -131.95 -47.7 -131.4 Q-47.6 -131.05 -47.0 -131.05 -46.4 -131.05 -46.1 -131.5 L-45.6 -132.4 Q-44.45 -130.5 -43.15 -129.95 -43.4 -131.45 -44.4 -132.75 M-47.25 -124.8 Q-48.35 -124.8 -49.0 -123.85 L-49.15 -123.25 Q-49.15 -122.6 -48.75 -122.55 L-48.05 -122.6 Q-48.25 -123.25 -47.25 -123.25 -46.75 -123.25 -46.35 -122.8 -46.0 -122.4 -45.6 -122.4 L-45.35 -123.4 -45.55 -124.4 -46.1 -124.6 -47.25 -124.8 M-62.0 -115.35 Q-60.85 -117.3 -60.1 -117.7 L-57.7 -117.55 -57.15 -118.15 -57.9 -118.75 Q-58.8 -119.4 -59.45 -119.4 -61.15 -119.4 -62.05 -118.4 -63.1 -117.35 -62.45 -115.65 L-62.0 -115.35 M-60.8 -110.2 L-60.65 -110.35 -59.5 -111.75 Q-58.65 -112.75 -57.25 -112.85 L-55.65 -111.45 -54.25 -110.1 -53.7 -110.2 Q-53.35 -110.35 -53.35 -111.0 -53.35 -111.85 -54.7 -113.0 -56.0 -114.1 -56.95 -114.1 -58.65 -114.1 -59.9 -112.45 L-60.85 -110.75 -60.8 -110.2 M-49.45 -118.75 Q-49.85 -119.15 -50.85 -119.15 -51.55 -119.15 -52.2 -118.6 L-53.15 -117.5 -52.5 -116.6 Q-52.3 -116.65 -51.75 -117.05 L-51.1 -117.5 -50.45 -117.25 -49.55 -117.0 Q-49.05 -117.3 -49.0 -117.75 -49.25 -118.55 -49.45 -118.75" fill="#fcfcfc" fill-rule="evenodd" stroke="none"/>
  </g>
</svg>
