<?xml version="1.0" encoding="UTF-8" standalone="no"?>
<svg xmlns:ffdec="https://www.free-decompiler.com/flash" xmlns:xlink="http://www.w3.org/1999/xlink" ffdec:objectType="shape" height="43.8px" width="52.3px" xmlns="http://www.w3.org/2000/svg">
  <g transform="matrix(1.0, 0.0, 0.0, 1.0, 92.05, 113.75)">
    <path d="M-63.6 -113.65 L-61.7 -112.25 Q-61.3 -112.25 -60.7 -113.0 L-59.55 -113.75 -58.2 -112.9 -56.85 -112.1 -55.65 -112.4 -55.0 -112.7 Q-53.6 -112.3 -53.3 -111.4 L-52.95 -110.6 -51.7 -110.75 -49.8 -109.85 Q-47.85 -108.55 -46.75 -108.35 L-43.35 -108.2 Q-41.95 -108.1 -41.15 -106.2 -39.75 -103.0 -39.75 -99.8 -39.75 -95.3 -40.55 -91.1 -42.15 -83.1 -46.2 -81.25 L-44.45 -80.75 Q-43.65 -80.5 -43.65 -79.9 -43.65 -79.25 -43.8 -79.2 L-44.0 -79.25 -45.3 -79.9 Q-46.45 -80.5 -47.05 -80.5 L-49.7 -78.05 -44.95 -75.75 Q-40.9 -73.5 -40.25 -71.95 L-40.9 -71.55 Q-42.35 -72.65 -50.6 -77.35 -51.6 -77.35 -54.55 -74.9 L-51.4 -72.35 Q-49.95 -71.1 -49.95 -70.45 -49.95 -69.85 -50.05 -69.95 L-50.45 -70.1 Q-51.6 -70.9 -53.35 -73.0 -54.55 -74.4 -55.65 -74.4 L-63.15 -72.8 Q-67.95 -72.8 -71.85 -75.5 -73.8 -76.9 -74.85 -78.25 -77.0 -78.25 -79.35 -76.7 -80.7 -75.85 -82.7 -74.2 L-83.2 -74.7 Q-81.85 -76.65 -79.6 -77.75 -77.8 -78.65 -75.05 -79.2 L-75.1 -80.25 Q-79.5 -80.7 -84.7 -78.35 L-91.45 -74.55 -91.9 -74.7 -92.05 -75.05 Q-90.45 -77.35 -85.6 -79.35 -80.2 -81.65 -75.25 -81.25 -75.4 -81.6 -77.25 -81.95 L-79.85 -82.25 -84.1 -81.8 Q-86.5 -81.3 -89.3 -79.9 -90.3 -79.9 -89.6 -80.15 L-89.65 -80.5 Q-88.2 -81.45 -84.3 -82.4 L-79.55 -83.25 -76.05 -82.9 -76.5 -83.85 -78.15 -87.95 -78.9 -91.45 Q-79.05 -92.4 -80.45 -94.65 -81.65 -96.6 -81.65 -99.2 -81.65 -108.25 -75.4 -108.25 L-72.8 -108.45 Q-71.85 -108.8 -69.85 -110.5 -68.95 -111.3 -67.45 -111.4 -65.55 -111.6 -64.45 -112.65 L-63.6 -113.65 M-52.4 -109.25 Q-53.4 -109.4 -54.4 -110.4 L-55.5 -111.35 -56.4 -111.05 Q-56.75 -110.75 -56.9 -110.75 -57.2 -110.75 -58.2 -111.45 -59.2 -112.15 -59.55 -112.15 L-60.45 -111.5 Q-61.2 -110.9 -61.7 -110.9 -63.0 -110.9 -63.7 -112.05 L-64.6 -111.1 -65.8 -110.1 -67.1 -110.0 Q-68.05 -110.0 -68.75 -109.6 -70.45 -108.55 -71.7 -106.8 -72.6 -105.55 -73.5 -105.55 -74.6 -105.55 -75.05 -104.05 L-75.45 -102.1 Q-75.75 -101.3 -76.7 -100.35 L-78.2 -98.65 -78.3 -97.6 -78.3 -97.55 -77.75 -97.55 -73.15 -95.6 -70.15 -94.1 -70.2 -93.65 -70.75 -93.65 -72.7 -94.3 Q-75.9 -95.3 -78.05 -95.45 L-77.9 -93.95 -77.0 -89.9 -76.05 -86.7 Q-75.65 -85.05 -74.9 -83.55 L-75.15 -82.7 Q-75.3 -82.35 -74.7 -81.7 L-73.95 -80.85 -73.5 -80.6 Q-73.7 -80.65 -73.7 -79.65 -73.7 -77.3 -69.15 -75.55 -65.75 -74.2 -64.25 -74.2 L-57.35 -75.45 -60.25 -76.65 -64.75 -77.35 -63.0 -78.25 -61.25 -77.95 -58.6 -77.1 -56.15 -75.95 -54.95 -76.55 -52.45 -78.05 -55.1 -78.8 -57.9 -79.25 -58.7 -79.35 -60.4 -79.4 -61.05 -79.4 -57.7 -80.25 -56.55 -80.1 -53.75 -79.5 Q-51.1 -78.35 -50.45 -79.05 L-48.65 -81.0 -50.55 -81.4 -54.15 -81.8 -58.75 -81.7 -60.75 -81.5 -62.5 -81.25 -60.45 -82.55 -53.05 -82.75 -49.7 -82.3 -47.75 -81.8 Q-42.95 -86.15 -42.0 -89.7 -41.45 -91.7 -41.45 -94.65 L-41.75 -94.35 -43.1 -93.45 -43.35 -93.5 Q-43.75 -93.75 -44.05 -95.45 L-43.55 -96.3 Q-43.0 -97.2 -42.9 -98.25 L-42.9 -98.15 -42.65 -95.75 -41.3 -98.5 Q-40.95 -100.95 -41.7 -103.85 -42.7 -107.7 -45.3 -107.7 L-46.45 -107.5 Q-46.55 -107.8 -48.8 -106.4 L-50.6 -105.45 -50.9 -105.65 -50.95 -105.8 -50.9 -106.15 -47.95 -107.85 -48.65 -108.2 Q-49.85 -108.3 -51.55 -109.65 L-52.4 -109.25 M-75.95 -105.25 L-75.0 -106.2 -73.9 -107.15 -75.95 -107.45 Q-78.3 -107.25 -79.4 -105.15 -80.6 -102.85 -80.6 -97.65 L-80.1 -96.6 -79.25 -95.2 Q-79.45 -97.8 -79.25 -100.0 L-77.85 -101.95 Q-76.65 -103.35 -75.95 -105.25 M-62.45 -93.85 L-65.35 -93.8 -65.25 -93.9 -52.8 -97.45 Q-51.8 -97.45 -50.75 -96.3 -49.85 -95.3 -49.85 -94.85 L-49.95 -94.25 -50.15 -94.3 -51.55 -94.75 -53.35 -95.25 -55.2 -95.1 -62.45 -93.85 M-70.75 -88.55 Q-70.55 -88.45 -70.65 -87.6 -70.7 -86.7 -71.05 -85.75 L-72.55 -85.65 -70.75 -88.55" fill="#535353" fill-rule="evenodd" stroke="none"/>
    <path d="M-78.2 -98.65 L-76.7 -100.35 Q-75.75 -101.3 -75.45 -102.1 L-75.05 -104.05 Q-74.6 -105.55 -73.5 -105.55 -72.6 -105.55 -71.7 -106.8 -70.45 -108.55 -68.75 -109.6 -68.05 -110.0 -67.1 -110.0 L-65.8 -110.1 -64.6 -111.1 -63.7 -112.05 Q-63.0 -110.9 -61.7 -110.9 -61.2 -110.9 -60.45 -111.5 L-59.55 -112.15 Q-59.2 -112.15 -58.2 -111.45 -57.2 -110.75 -56.9 -110.75 -56.75 -110.75 -56.4 -111.05 L-55.5 -111.35 -54.4 -110.4 Q-53.4 -109.4 -52.4 -109.25 L-50.9 -106.15 -50.95 -105.8 -50.9 -105.65 -50.6 -105.45 -48.8 -106.4 -48.3 -104.6 -49.25 -105.05 -50.8 -105.35 -53.7 -103.75 Q-56.6 -102.2 -57.0 -102.2 L-57.35 -102.25 -57.5 -102.95 -56.5 -104.55 Q-55.5 -106.25 -55.5 -106.9 -55.5 -107.35 -56.4 -108.75 -57.55 -110.5 -58.75 -110.5 L-60.5 -110.25 -64.15 -110.0 Q-69.65 -107.6 -70.75 -106.5 L-73.0 -103.35 Q-74.85 -100.3 -74.85 -98.65 L-74.3 -97.4 -73.15 -95.6 -77.75 -97.55 -78.2 -98.65 M-46.45 -107.5 L-45.3 -107.7 Q-42.7 -107.7 -41.7 -103.85 -40.95 -100.95 -41.3 -98.5 L-41.8 -99.3 -42.35 -99.7 -42.25 -101.7 Q-42.25 -103.2 -42.9 -104.2 -43.95 -105.75 -46.3 -105.6 L-46.45 -107.5 M-44.05 -95.45 Q-43.75 -93.75 -43.35 -93.5 L-43.55 -93.55 Q-43.05 -92.15 -45.45 -88.15 -47.5 -84.75 -49.7 -82.3 L-53.05 -82.75 Q-52.4 -83.5 -51.6 -83.6 -51.05 -83.65 -50.55 -84.7 -48.75 -88.45 -47.4 -90.35 -47.05 -90.85 -46.65 -91.85 -46.45 -92.3 -45.9 -92.3 -45.8 -92.3 -45.25 -95.5 -44.7 -98.65 -44.7 -99.15 -44.7 -99.95 -46.35 -101.65 L-46.95 -102.3 -46.05 -102.15 Q-45.15 -101.85 -45.3 -101.0 L-44.05 -100.35 Q-43.65 -100.15 -43.6 -98.55 L-43.8 -96.85 -44.05 -95.45 M-60.75 -81.5 L-58.75 -81.7 -58.7 -80.35 -60.6 -80.4 -60.75 -81.5 M-54.15 -81.8 L-50.55 -81.4 -51.9 -80.35 -53.75 -79.5 -56.55 -80.1 -54.15 -81.8 M-60.4 -79.4 L-58.7 -79.35 -58.7 -78.8 -58.65 -78.9 -57.9 -79.25 -55.1 -78.8 -56.45 -78.1 Q-57.85 -77.35 -58.6 -77.1 L-61.25 -77.95 -60.95 -78.05 -61.05 -78.05 -60.4 -79.4 M-64.75 -77.35 L-60.25 -76.65 -62.25 -76.3 -64.7 -76.1 -67.05 -76.3 -69.3 -76.7 Q-70.8 -77.15 -70.7 -78.0 -70.55 -79.65 -70.75 -80.2 L-69.05 -81.2 -69.3 -79.8 Q-69.3 -77.75 -66.25 -77.8 -66.05 -77.35 -64.75 -77.35 M-72.7 -94.3 L-70.75 -93.65 -70.6 -93.25 -71.0 -93.6 Q-71.65 -94.0 -72.55 -94.0 L-72.7 -94.3 M-62.15 -99.55 L-62.55 -99.3 -62.8 -99.3 -62.95 -99.25 -63.0 -99.85 -62.6 -101.4 Q-62.0 -102.85 -60.7 -102.85 L-60.05 -102.75 -60.2 -102.65 Q-59.8 -101.95 -59.8 -101.05 L-59.9 -100.3 -60.2 -100.25 -60.5 -100.3 -61.1 -101.7 -62.15 -99.55 M-70.3 -99.5 L-70.35 -100.35 Q-70.5 -98.65 -70.85 -98.4 -71.35 -98.5 -71.4 -99.75 -71.5 -101.35 -70.0 -101.5 L-69.45 -100.85 Q-69.15 -100.45 -69.15 -99.85 L-69.2 -99.25 -69.4 -99.3 -70.3 -99.5 M-67.25 -104.0 L-66.9 -104.25 -66.55 -104.0 -66.4 -103.45 Q-66.4 -103.1 -66.55 -102.85 L-66.9 -102.65 -67.25 -102.85 -67.4 -103.45 -67.25 -104.0 M-62.45 -107.65 L-61.6 -107.75 Q-60.5 -107.75 -60.1 -107.15 L-59.75 -106.2 -59.9 -105.8 -60.05 -105.75 -61.7 -106.85 -62.5 -105.65 -62.8 -104.95 -63.2 -105.05 Q-63.4 -105.25 -63.4 -105.9 L-63.25 -107.35 -62.45 -107.65 M-51.15 -100.25 L-51.1 -99.85 -51.65 -99.3 Q-52.05 -98.9 -53.4 -98.5 -53.9 -98.6 -53.95 -99.05 -52.3 -100.45 -51.65 -100.45 L-51.0 -100.35 -51.15 -100.25 M-47.45 -103.5 L-47.1 -102.45 Q-48.0 -103.55 -48.05 -104.1 L-47.45 -103.5 M-62.45 -93.85 L-55.2 -95.1 Q-52.45 -93.7 -52.45 -91.4 -52.45 -89.6 -53.6 -88.1 -54.75 -86.7 -56.75 -85.85 -58.4 -85.2 -59.15 -84.55 L-62.0 -82.35 -62.5 -82.25 Q-63.0 -83.1 -63.55 -85.65 -64.15 -88.35 -64.15 -90.0 -64.15 -92.15 -62.45 -93.85 M-54.0 -91.8 Q-54.0 -94.25 -58.8 -93.9 -63.6 -93.55 -63.6 -90.5 -63.6 -88.95 -62.35 -87.6 -61.0 -86.1 -59.05 -86.1 -56.9 -86.1 -55.4 -87.85 -54.0 -89.5 -54.0 -91.8 M-70.25 -91.45 L-69.8 -90.3 Q-69.6 -88.95 -70.15 -85.55 L-71.05 -85.75 Q-70.7 -86.7 -70.65 -87.6 -70.55 -88.45 -70.75 -88.55 L-70.85 -90.5 -70.25 -91.45" fill="#e9e9e9" fill-rule="evenodd" stroke="none"/>
    <path d="M-52.4 -109.25 L-51.55 -109.65 Q-49.85 -108.3 -48.65 -108.2 L-47.95 -107.85 -50.9 -106.15 -52.4 -109.25 M-48.8 -106.4 Q-46.55 -107.8 -46.45 -107.5 L-46.3 -105.6 -46.95 -105.3 -47.25 -104.6 -47.6 -104.2 -47.45 -103.5 -48.05 -104.1 -48.3 -104.6 -48.8 -106.4 M-41.3 -98.5 L-42.65 -95.75 -42.9 -98.15 -42.85 -97.8 -42.85 -97.95 -42.55 -98.75 -42.35 -99.7 -41.8 -99.3 -41.3 -98.5 M-43.35 -93.5 L-43.1 -93.45 -41.75 -94.35 -41.45 -94.65 Q-41.45 -91.7 -42.0 -89.7 -42.95 -86.15 -47.75 -81.8 L-49.7 -82.3 Q-47.5 -84.75 -45.45 -88.15 -43.05 -92.15 -43.55 -93.55 L-43.35 -93.5 M-50.55 -81.4 L-48.65 -81.0 -50.45 -79.05 Q-51.1 -78.35 -53.75 -79.5 L-51.9 -80.35 -50.55 -81.4 M-55.1 -78.8 L-52.45 -78.05 -54.95 -76.55 -56.15 -75.95 -58.6 -77.1 Q-57.85 -77.35 -56.45 -78.1 L-55.1 -78.8 M-60.25 -76.65 L-57.35 -75.45 -64.25 -74.2 Q-65.75 -74.2 -69.15 -75.55 -73.7 -77.3 -73.7 -79.65 -73.7 -80.65 -73.5 -80.6 -72.8 -80.2 -71.75 -80.15 L-70.75 -80.2 Q-70.55 -79.65 -70.7 -78.0 -70.8 -77.15 -69.3 -76.7 L-67.05 -76.3 -64.7 -76.1 -62.25 -76.3 -60.25 -76.65 M-74.9 -83.55 Q-75.65 -85.05 -76.05 -86.7 L-75.75 -87.45 -75.05 -87.65 Q-74.15 -87.65 -73.45 -88.1 L-70.85 -90.5 -70.75 -88.55 -72.55 -85.65 Q-73.5 -85.65 -74.2 -85.0 -74.9 -84.4 -74.9 -83.55 M-77.9 -93.95 L-78.05 -95.45 Q-75.9 -95.3 -72.7 -94.3 L-72.55 -94.0 Q-76.0 -95.1 -77.9 -93.95 M-77.75 -97.55 L-78.3 -97.55 -78.3 -97.6 -78.2 -98.65 -77.75 -97.55 M-79.25 -100.0 Q-79.45 -97.8 -79.25 -95.2 L-80.1 -96.6 -80.6 -97.65 Q-80.6 -102.85 -79.4 -105.15 -78.3 -107.25 -75.95 -107.45 L-73.9 -107.15 -75.0 -106.2 -75.95 -105.25 -78.05 -103.1 Q-79.5 -101.25 -79.25 -100.0 M-54.0 -91.8 Q-54.0 -89.5 -55.4 -87.85 -56.9 -86.1 -59.05 -86.1 -61.0 -86.1 -62.35 -87.6 -63.6 -88.95 -63.6 -90.5 -63.6 -93.55 -58.8 -93.9 -54.0 -94.25 -54.0 -91.8" fill="#c5c5c5" fill-rule="evenodd" stroke="none"/>
    <path d="M-75.95 -105.25 Q-76.65 -103.35 -77.85 -101.95 L-79.25 -100.0 Q-79.5 -101.25 -78.05 -103.1 L-75.95 -105.25" fill="#de83be" fill-rule="evenodd" stroke="none"/>
    <path d="M-53.05 -82.75 L-60.45 -82.55 -62.0 -82.35 -59.15 -84.55 Q-58.4 -85.2 -56.75 -85.85 -54.75 -86.7 -53.6 -88.1 -52.45 -89.6 -52.45 -91.4 -52.45 -93.7 -55.2 -95.1 L-53.35 -95.25 -51.55 -94.75 -50.15 -94.3 -49.95 -94.25 -49.85 -94.85 Q-49.85 -95.3 -50.75 -96.3 -51.8 -97.45 -52.8 -97.45 L-65.25 -93.9 -65.35 -93.8 -62.45 -93.85 Q-64.15 -92.15 -64.15 -90.0 -64.15 -88.35 -63.55 -85.65 -63.0 -83.1 -62.5 -82.25 -64.3 -82.1 -64.5 -81.4 L-64.25 -81.05 -62.5 -81.25 -60.75 -81.5 -60.6 -80.4 -61.4 -80.35 -61.8 -79.85 Q-61.6 -79.4 -61.05 -79.4 L-60.4 -79.4 -61.05 -78.05 -60.95 -78.05 -61.25 -77.95 -63.0 -78.25 Q-66.05 -78.35 -66.25 -77.8 -69.3 -77.75 -69.3 -79.8 L-69.05 -81.2 -68.4 -81.9 Q-68.05 -82.4 -68.05 -83.05 L-68.7 -84.15 -70.15 -85.55 Q-69.6 -88.95 -69.8 -90.3 L-70.25 -91.45 Q-70.1 -92.15 -70.4 -92.75 L-70.6 -93.25 -70.75 -93.65 -70.2 -93.65 -70.15 -94.1 -73.15 -95.6 -74.3 -97.4 -74.85 -98.65 Q-74.85 -100.3 -73.0 -103.35 L-70.75 -106.5 Q-69.65 -107.6 -64.15 -110.0 L-60.5 -110.25 -58.75 -110.5 Q-57.55 -110.5 -56.4 -108.75 -55.5 -107.35 -55.5 -106.9 -55.5 -106.25 -56.5 -104.55 L-57.5 -102.95 -57.35 -102.25 -57.0 -102.2 Q-56.6 -102.2 -53.7 -103.75 L-50.8 -105.35 -49.25 -105.05 -48.3 -104.6 -48.05 -104.1 Q-48.0 -103.55 -47.1 -102.45 L-47.0 -102.3 -46.95 -102.3 -46.35 -101.65 Q-44.7 -99.95 -44.7 -99.15 -44.7 -98.65 -45.25 -95.5 -45.8 -92.3 -45.9 -92.3 -46.45 -92.3 -46.65 -91.85 -47.05 -90.85 -47.4 -90.35 -48.75 -88.45 -50.55 -84.7 -51.05 -83.65 -51.6 -83.6 -52.4 -83.5 -53.05 -82.75 M-58.75 -81.7 L-54.15 -81.8 -56.55 -80.1 -57.7 -80.25 -58.7 -80.35 -58.75 -81.7 M-58.7 -79.35 L-57.9 -79.25 -58.65 -78.9 -58.7 -78.8 -58.7 -79.35 M-62.45 -107.65 L-63.25 -107.35 -63.4 -105.9 Q-63.4 -105.25 -63.2 -105.05 L-62.8 -104.95 -62.5 -105.65 -61.7 -106.85 -60.05 -105.75 -59.9 -105.8 -59.75 -106.2 -60.1 -107.15 Q-60.5 -107.75 -61.6 -107.75 L-62.45 -107.65 M-67.25 -104.0 L-67.4 -103.45 -67.25 -102.85 -66.9 -102.65 -66.55 -102.85 Q-66.4 -103.1 -66.4 -103.45 L-66.55 -104.0 -66.9 -104.25 -67.25 -104.0 M-70.3 -99.5 L-69.4 -99.3 -69.2 -99.25 -69.15 -99.85 Q-69.15 -100.45 -69.45 -100.85 L-70.0 -101.5 Q-71.5 -101.35 -71.4 -99.75 -71.35 -98.5 -70.85 -98.4 -70.5 -98.65 -70.35 -100.35 L-70.3 -99.5 M-62.15 -99.55 L-61.1 -101.7 -60.5 -100.3 -60.2 -100.25 -59.9 -100.3 -59.8 -101.05 Q-59.8 -101.95 -60.2 -102.65 L-60.05 -102.75 -60.7 -102.85 Q-62.0 -102.85 -62.6 -101.4 L-63.0 -99.85 -62.95 -99.25 -62.8 -99.3 -62.55 -99.3 -62.15 -99.55 M-51.15 -100.25 L-51.0 -100.35 -51.65 -100.45 Q-52.3 -100.45 -53.95 -99.05 -53.9 -98.6 -53.4 -98.5 -52.05 -98.9 -51.65 -99.3 L-51.1 -99.85 -51.15 -100.25" fill="#fcfcfc" fill-rule="evenodd" stroke="none"/>
    <path d="M-42.9 -98.15 L-42.9 -98.25 -42.7 -100.3 -43.45 -100.5 Q-44.25 -100.85 -44.25 -102.3 L-44.35 -103.05 -44.65 -103.25 Q-45.85 -103.25 -46.5 -103.9 L-47.25 -104.6 -46.95 -105.3 -46.3 -105.6 Q-43.95 -105.75 -42.9 -104.2 -42.25 -103.2 -42.25 -101.7 L-42.35 -99.7 -42.55 -98.75 -42.85 -97.95 -42.85 -97.8 -42.9 -98.15 M-72.0 -83.9 L-71.35 -84.2 Q-70.95 -84.2 -70.65 -83.9 L-70.4 -83.2 -70.65 -82.5 Q-70.95 -82.2 -71.35 -82.2 -71.75 -82.2 -72.0 -82.5 L-72.3 -83.2 -72.0 -83.9" fill="#ecb7da" fill-rule="evenodd" stroke="none"/>
    <path d="M-42.9 -98.25 Q-43.0 -97.2 -43.55 -96.3 L-44.05 -95.45 -43.8 -96.85 -43.6 -98.55 Q-43.65 -100.15 -44.05 -100.35 L-45.3 -101.0 Q-45.15 -101.85 -46.05 -102.15 L-46.95 -102.3 -47.0 -102.3 -47.1 -102.45 -47.45 -103.5 -47.6 -104.2 -47.25 -104.6 -46.5 -103.9 Q-45.85 -103.25 -44.65 -103.25 L-44.35 -103.05 -44.25 -102.3 Q-44.25 -100.85 -43.45 -100.5 L-42.7 -100.3 -42.9 -98.25 M-60.45 -82.55 L-62.5 -81.25 -64.25 -81.05 -64.5 -81.4 Q-64.3 -82.1 -62.5 -82.25 L-62.0 -82.35 -60.45 -82.55 M-57.7 -80.25 L-61.05 -79.4 Q-61.6 -79.4 -61.8 -79.85 L-61.4 -80.35 -60.6 -80.4 -58.7 -80.35 -57.7 -80.25 M-63.0 -78.25 L-64.75 -77.35 Q-66.05 -77.35 -66.25 -77.8 -66.05 -78.35 -63.0 -78.25 M-76.05 -86.7 L-77.0 -89.9 -77.9 -93.95 Q-76.0 -95.1 -72.55 -94.0 -71.65 -94.0 -71.0 -93.6 L-70.6 -93.25 -70.4 -92.75 Q-70.1 -92.15 -70.25 -91.45 L-70.85 -90.5 -73.45 -88.1 Q-74.15 -87.65 -75.05 -87.65 L-75.75 -87.45 -76.05 -86.7" fill="#919191" fill-rule="evenodd" stroke="none"/>
    <path d="M-72.0 -83.9 L-72.3 -83.2 -72.0 -82.5 Q-71.75 -82.2 -71.35 -82.2 -70.95 -82.2 -70.65 -82.5 L-70.4 -83.2 -70.65 -83.9 Q-70.95 -84.2 -71.35 -84.2 L-72.0 -83.9 M-74.3 -83.55 Q-74.35 -84.15 -73.7 -84.6 -73.0 -85.05 -71.05 -85.0 -69.1 -85.0 -69.1 -82.9 -69.1 -82.4 -69.95 -81.7 -70.9 -80.95 -71.6 -80.95 -72.35 -80.95 -73.1 -81.35 -73.9 -81.8 -74.1 -82.35 L-74.3 -83.55" fill="#d152a5" fill-rule="evenodd" stroke="none"/>
    <path d="M-73.5 -80.6 L-73.95 -80.85 -74.7 -81.7 Q-75.3 -82.35 -75.15 -82.7 L-74.9 -83.55 Q-74.9 -84.4 -74.2 -85.0 -73.5 -85.65 -72.55 -85.65 L-71.05 -85.75 -70.15 -85.55 -68.7 -84.15 -68.05 -83.05 Q-68.05 -82.4 -68.4 -81.9 L-69.05 -81.2 -70.75 -80.2 -71.75 -80.15 Q-72.8 -80.2 -73.5 -80.6 M-74.3 -83.55 L-74.1 -82.35 Q-73.9 -81.8 -73.1 -81.35 -72.35 -80.95 -71.6 -80.95 -70.9 -80.95 -69.95 -81.7 -69.1 -82.4 -69.1 -82.9 -69.1 -85.0 -71.05 -85.0 -73.0 -85.05 -73.7 -84.6 -74.35 -84.15 -74.3 -83.55" fill="#481336" fill-rule="evenodd" stroke="none"/>
  </g>
</svg>
