<?xml version="1.0" encoding="UTF-8" standalone="no"?>
<svg xmlns:ffdec="https://www.free-decompiler.com/flash" xmlns:xlink="http://www.w3.org/1999/xlink" ffdec:objectType="shape" height="4.5px" width="22.65px" xmlns="http://www.w3.org/2000/svg">
  <g transform="matrix(1.0, 0.0, 0.0, 1.0, 0.0, -1.0)">
    <path d="M22.35 2.15 Q22.7 2.4 22.65 3.0 22.55 3.95 21.25 4.65 L20.65 4.95 18.3 5.5 18.25 5.5 15.8 5.1 15.3 4.85 15.35 4.85 Q14.2 4.25 14.35 3.35 L14.35 3.3 Q14.45 2.4 15.45 2.2 L16.0 2.15 16.05 2.15 18.65 2.0 18.7 2.0 19.75 1.95 21.15 1.9 Q22.0 1.85 22.35 2.15 M18.6 4.8 L20.6 4.2 Q21.55 3.65 21.65 2.95 L21.7 2.75 21.6 2.55 21.3 2.5 21.25 2.5 19.9 2.55 18.75 2.6 16.1 2.75 16.05 2.75 15.45 3.1 15.35 3.35 15.35 3.6 Q15.4 4.1 16.0 4.4 L16.25 4.55 18.15 4.85 18.6 4.8 M5.75 2.2 L5.3 2.0 5.25 2.0 3.2 1.75 1.2 1.6 1.15 1.6 1.1 1.55 1.05 1.65 1.0 1.75 1.0 1.85 1.1 2.2 1.2 2.45 1.7 2.9 Q2.45 3.35 3.45 3.45 L4.25 3.5 5.1 3.3 5.8 2.6 5.8 2.5 5.75 2.2 M5.3 1.45 L5.45 1.45 Q6.8 1.6 6.8 2.5 6.8 3.3 5.7 3.7 L5.75 3.7 5.45 3.85 3.3 4.0 3.25 4.0 1.95 3.75 0.95 3.25 0.9 3.25 Q0.0 2.6 0.0 1.85 0.0 1.4 0.3 1.2 L1.1 1.0 1.15 1.0 1.4 1.05 3.4 1.2 5.3 1.45" fill="#481336" fill-rule="evenodd" stroke="none"/>
    <path d="M19.9 2.55 L21.25 2.5 21.3 2.5 21.6 2.55 21.7 2.75 21.65 2.95 Q21.55 3.65 20.6 4.2 L18.6 4.8 19.25 4.35 Q19.9 3.7 19.9 2.75 L19.9 2.55 M16.25 4.55 L16.0 4.4 Q15.4 4.1 15.35 3.6 L15.45 3.15 Q15.55 3.85 16.05 4.35 L16.25 4.55 M5.3 2.0 L5.75 2.2 5.8 2.6 5.1 3.3 4.25 3.5 4.7 3.1 5.3 2.0 M1.2 2.45 L1.1 2.2 1.0 1.75 1.05 1.65 1.2 2.45" fill="#e9e9e9" fill-rule="evenodd" stroke="none"/>
    <path d="M18.6 4.8 L18.15 4.85 16.25 4.55 16.05 4.35 Q15.55 3.85 15.45 3.15 L15.45 3.1 16.05 2.75 16.1 2.75 18.75 2.6 19.9 2.55 19.9 2.75 Q19.9 3.7 19.25 4.35 L18.6 4.8 M4.25 3.5 L3.45 3.45 Q2.45 3.35 1.7 2.9 L1.2 2.45 1.05 1.65 1.1 1.55 1.15 1.6 1.2 1.6 3.2 1.75 5.25 2.0 5.3 2.0 4.7 3.1 4.25 3.5" fill="#282828" fill-rule="evenodd" stroke="none"/>
  </g>
</svg>
