<?xml version="1.0" encoding="UTF-8" standalone="no"?>
<svg xmlns:ffdec="https://www.free-decompiler.com/flash" xmlns:xlink="http://www.w3.org/1999/xlink" ffdec:objectType="shape" height="17.3px" width="33.1px" xmlns="http://www.w3.org/2000/svg">
  <g transform="matrix(1.0, 0.0, 0.0, 1.0, 16.75, 5.35)">
    <path d="M-10.6 6.6 L-10.8 6.1 -14.5 1.6 Q-10.0 3.15 -5.1 3.15 0.5 3.15 7.75 -0.65 14.1 -3.9 14.5 -5.25 15.4 1.6 11.0 5.6 6.1 9.95 -4.55 9.95 L-9.5 9.15 -10.6 6.6" fill="#202020" fill-rule="evenodd" stroke="none"/>
    <path d="M-13.25 4.45 Q-14.65 1.6 -16.75 -0.7 L-5.55 1.05 Q1.2 1.05 7.05 -2.35 L7.45 -2.55 7.65 -2.65 Q10.6 -3.75 13.05 -5.35 L14.9 -5.35 16.35 -5.35 Q16.3 1.0 11.7 5.8 5.85 11.95 -4.3 11.95 -9.6 11.95 -11.45 8.45 L-13.25 4.45 M-10.6 6.6 L-9.5 9.15 -4.55 9.95 Q6.1 9.95 11.0 5.6 15.4 1.6 14.5 -5.25 14.1 -3.9 7.75 -0.65 0.5 3.15 -5.1 3.15 -10.0 3.15 -14.5 1.6 L-10.8 6.1 -10.6 6.6" fill="#272727" fill-rule="evenodd" stroke="none"/>
  </g>
</svg>
