<?xml version="1.0" encoding="UTF-8" standalone="no"?>
<svg xmlns:ffdec="https://www.free-decompiler.com/flash" xmlns:xlink="http://www.w3.org/1999/xlink" ffdec:objectType="shape" height="135.0px" width="67.95px" xmlns="http://www.w3.org/2000/svg">
  <g transform="matrix(1.0, 0.0, 0.0, 1.0, 29.6, 136.15)">
    <path d="M35.8 -10.5 L37.3 -10.85 38.0 -7.3 38.3 -5.9 38.35 -5.85 36.85 -5.3 36.8 -5.35 36.6 -5.25 35.55 -4.9 33.15 -4.2 32.2 -4.65 32.25 -4.65 25.5 -7.95 22.05 -3.1 22.15 -3.1 21.4 -2.1 18.4 -1.75 16.15 -1.55 13.8 -1.4 7.95 -1.15 Q-4.55 -1.25 -16.65 -3.1 L-18.3 -3.35 -18.6 -3.4 -20.9 -12.65 -25.45 -4.95 -27.75 -5.65 -28.0 -5.7 -29.6 -6.1 -29.55 -6.2 -29.25 -7.85 -28.3 -11.8 -28.15 -12.3 -28.05 -12.75 -26.6 -12.1 -26.6 -12.0 -26.8 -11.3 -27.65 -7.5 -26.55 -7.6 Q-25.05 -8.05 -23.55 -10.3 L-20.9 -14.2 -20.75 -14.75 Q-20.4 -14.45 -19.9 -14.45 L-19.45 -14.5 -19.35 -14.55 -19.5 -12.55 -19.55 -12.5 -19.25 -11.9 -18.0 -7.7 Q-17.85 -4.35 -12.95 -3.8 L-3.65 -3.1 2.75 -2.5 7.0 -2.5 13.55 -3.1 13.75 -3.15 17.95 -3.5 20.7 -3.8 25.25 -10.0 33.4 -5.8 35.45 -6.25 36.6 -6.65 35.8 -10.5 M-11.5 -121.3 L-10.5 -126.65 -10.25 -127.25 -8.75 -130.5 Q-6.85 -134.7 -1.85 -135.8 L-0.35 -136.05 Q4.2 -136.65 7.7 -132.9 L7.15 -131.2 5.8 -132.65 5.0 -133.2 Q5.5 -132.4 5.5 -131.3 L5.3 -129.7 5.2 -129.45 2.9 -126.0 Q-1.8 -120.45 -10.85 -102.75 L-11.0 -102.9 -11.15 -103.05 -11.5 -103.2 -11.95 -103.3 -12.35 -103.2 -12.8 -102.95 -12.3 -108.1 -11.7 -112.85 Q-10.0 -123.9 -7.05 -129.7 L-6.25 -131.65 -7.3 -130.0 -10.05 -124.3 -11.5 -121.3 M4.15 -130.3 L4.25 -131.3 Q4.15 -132.95 2.45 -133.85 L0.75 -134.45 Q-0.75 -134.7 -2.2 -134.0 -3.35 -133.45 -4.45 -132.3 L-5.7 -129.7 Q-9.55 -122.5 -11.25 -106.25 L-11.5 -104.1 -9.85 -107.25 -9.15 -108.5 Q-2.05 -121.95 1.95 -126.7 L4.0 -129.7 4.15 -130.3 M-12.0 -100.6 L-12.1 -100.5 -12.15 -100.5 -12.55 -100.4 Q-12.8 -100.45 -12.95 -100.6 L-13.0 -101.0 -13.0 -101.1 -12.9 -101.0 -12.6 -100.8 -12.0 -100.6 M-19.0 -18.95 L-19.15 -16.95 -19.9 -17.15 -20.35 -17.05 -19.5 -22.0 -19.0 -18.95" fill="#464646" fill-rule="evenodd" stroke="none"/>
    <path d="M7.15 -131.2 L7.05 -130.9 6.8 -131.25 5.95 -128.25 5.2 -129.45 5.3 -129.7 5.5 -131.3 Q5.5 -132.4 5.0 -133.2 L5.8 -132.65 7.15 -131.2 M-10.55 -98.25 L-11.4 -95.9 -11.6 -95.4 -12.95 -95.35 -12.1 -95.4 Q-11.8 -96.3 -11.8 -97.1 L-11.6 -98.2 -10.55 -98.25 M-15.2 -73.4 Q-14.45 -71.5 -13.0 -69.3 -11.75 -66.7 -9.9 -63.75 -9.55 -62.95 -9.55 -62.6 L-9.8 -60.9 -10.0 -60.9 -10.1 -58.95 -11.95 -46.8 -12.7 -42.75 -12.75 -41.35 -12.8 -41.15 -13.4 -36.95 -13.85 -36.8 -14.6 -32.55 -14.6 -32.45 -14.9 -32.35 -14.55 -32.45 -14.1 -32.6 -15.85 -20.95 -17.4 -15.2 -16.95 -14.05 -17.4 -11.1 -17.0 -10.75 -16.6 -13.05 -16.95 -10.55 -15.8 -9.7 Q-15.6 -8.35 -15.7 -7.15 L-9.5 -6.7 9.3 -5.75 13.75 -5.55 15.9 -5.6 20.15 -5.9 27.0 -13.2 28.8 -12.15 31.1 -10.1 Q31.75 -10.65 30.9 -10.6 L30.75 -10.95 32.75 -9.75 35.8 -10.5 36.6 -6.65 35.45 -6.25 33.4 -5.8 25.25 -10.0 20.7 -3.8 17.95 -3.5 13.75 -3.15 13.55 -3.1 7.0 -2.5 2.75 -2.5 -3.65 -3.1 -12.95 -3.8 Q-17.85 -4.35 -18.0 -7.7 L-19.25 -11.9 -19.55 -12.5 -19.5 -12.55 -19.35 -14.55 -18.95 -14.85 Q-18.55 -15.25 -18.55 -15.8 -18.55 -16.35 -18.95 -16.75 L-19.1 -16.9 -19.15 -16.95 -19.0 -18.95 -16.9 -31.1 -16.65 -31.2 -16.25 -31.5 Q-15.85 -31.9 -15.85 -32.45 -15.85 -33.0 -16.25 -33.4 L-16.35 -33.5 -16.45 -33.55 -14.0 -47.95 -13.95 -48.0 Q-13.55 -48.4 -13.55 -48.95 L-13.7 -49.6 -12.35 -57.6 -12.3 -57.9 -11.85 -60.75 Q-11.7 -62.7 -12.0 -63.8 L-12.05 -63.9 Q-11.8 -64.25 -11.8 -64.7 -11.8 -65.25 -12.2 -65.65 L-12.35 -65.8 -13.15 -66.05 -14.45 -67.55 Q-16.55 -69.7 -17.5 -72.55 L-17.8 -73.65 -15.2 -73.4 M-26.6 -12.1 Q-25.0 -11.5 -23.1 -11.25 L-22.6 -14.55 Q-21.95 -16.75 -18.55 -37.25 -16.05 -52.0 -15.25 -58.4 L-15.25 -58.25 -15.2 -58.8 -14.9 -62.6 Q-14.9 -63.9 -16.0 -65.35 L-18.35 -68.15 Q-20.5 -70.85 -21.3 -74.45 L-21.2 -74.4 -19.1 -73.85 -19.1 -73.75 Q-18.7 -70.65 -16.9 -68.3 L-14.4 -65.15 -14.5 -64.7 Q-14.5 -64.15 -14.1 -63.75 L-14.05 -63.7 Q-13.7 -63.35 -13.15 -63.35 L-13.0 -62.45 -14.85 -50.3 -14.9 -50.3 -15.6 -50.1 -15.85 -49.9 Q-16.25 -49.5 -16.25 -48.95 L-15.9 -48.05 -15.85 -48.0 Q-15.6 -47.75 -15.25 -47.65 L-17.3 -34.15 -17.55 -33.75 -17.95 -33.55 -18.15 -33.4 Q-18.55 -33.0 -18.55 -32.45 -18.55 -31.95 -18.2 -31.6 L-18.15 -31.5 -17.85 -31.25 -19.5 -22.0 -20.35 -17.05 -20.85 -16.75 Q-21.25 -16.35 -21.25 -15.8 L-21.05 -15.1 -20.85 -14.85 -20.75 -14.75 -20.9 -14.2 -23.55 -10.3 Q-25.05 -8.05 -26.55 -7.6 L-27.65 -7.5 -26.8 -11.3 -26.6 -12.0 -26.6 -12.1 M-18.8 -90.8 L-18.05 -92.75 -15.8 -92.65 -16.4 -90.5 -16.6 -90.45 -16.75 -90.4 -18.8 -90.8 M-16.7 -96.4 L-16.0 -98.3 -14.05 -98.25 -14.75 -96.25 -16.7 -96.4 M-13.0 -110.9 L-11.85 -116.1 Q-11.15 -119.45 -11.5 -119.95 L-11.85 -119.2 -11.5 -121.3 -10.05 -124.3 -7.3 -130.0 -6.25 -131.65 -7.05 -129.7 Q-10.0 -123.9 -11.7 -112.85 L-13.0 -110.9 M-12.3 -108.1 L-12.8 -102.95 -12.9 -102.9 -13.15 -102.55 -13.7 -102.75 -13.8 -103.7 -12.75 -106.8 -12.3 -108.1 M-18.3 -42.2 L-19.45 -35.1 -15.7 -60.2 Q-16.2 -55.4 -18.3 -42.2" fill="#8a8a8a" fill-rule="evenodd" stroke="none"/>
    <path d="M5.95 -128.25 L5.6 -127.3 Q4.25 -124.15 2.55 -121.25 L1.15 -119.25 -6.9 -107.8 Q-8.55 -104.9 -9.05 -103.15 L-9.35 -102.2 -10.3 -101.85 -11.3 -99.0 -10.35 -98.9 -10.55 -98.25 -11.6 -98.2 -11.8 -97.1 Q-11.8 -96.3 -12.1 -95.4 L-12.95 -95.35 -11.6 -95.4 -12.0 -94.35 -12.7 -94.4 -13.2 -92.15 -12.95 -92.1 -14.9 -87.05 -14.95 -86.9 Q-15.85 -84.35 -16.15 -81.2 L-16.3 -77.9 Q-16.3 -75.95 -15.2 -73.4 L-17.8 -73.65 -18.0 -74.85 -17.8 -75.05 Q-17.4 -75.45 -17.4 -76.0 -17.4 -76.55 -17.8 -76.95 L-17.9 -77.05 -18.2 -77.25 -18.2 -78.0 -18.15 -78.4 Q-18.05 -80.25 -17.6 -82.1 L-17.25 -83.55 -16.4 -86.3 -15.95 -87.85 -15.75 -87.9 -15.45 -88.05 -15.25 -88.25 Q-14.9 -88.6 -14.85 -89.1 L-14.85 -89.2 Q-14.85 -89.75 -15.25 -90.15 L-14.8 -92.1 -14.75 -92.35 -14.2 -94.35 -12.1 -100.5 -12.0 -100.6 -11.95 -100.6 -11.5 -100.65 -11.2 -100.8 -11.0 -101.0 Q-10.65 -101.35 -10.6 -101.85 L-10.6 -101.95 -10.85 -102.75 Q-1.8 -120.45 2.9 -126.0 L5.2 -129.45 5.95 -128.25 M-9.8 -60.9 L-10.1 -58.95 -10.0 -60.9 -9.8 -60.9 M-11.95 -46.8 L-12.75 -41.35 -12.7 -42.75 -11.95 -46.8 M-13.4 -36.95 L-14.1 -32.6 -14.55 -32.45 -14.9 -32.35 -14.6 -32.45 -14.6 -32.55 -13.85 -36.8 -13.4 -36.95 M-15.85 -20.95 L-16.95 -14.05 -17.4 -15.2 -15.85 -20.95 M-15.8 -9.7 Q-13.75 -8.85 -8.35 -8.55 L-5.55 -8.3 Q1.75 -7.8 13.7 -7.8 L16.25 -7.8 18.05 -7.85 24.6 -14.7 27.0 -13.2 20.15 -5.9 15.9 -5.6 13.75 -5.55 9.3 -5.75 -9.5 -6.7 -15.7 -7.15 Q-15.6 -8.35 -15.8 -9.7 M28.8 -12.15 L30.75 -10.95 30.9 -10.6 Q31.75 -10.65 31.1 -10.1 L28.8 -12.15 M-15.25 -58.4 L-15.2 -58.8 -15.25 -58.25 -15.25 -58.4 M-21.3 -74.45 Q-21.8 -76.65 -21.8 -79.15 -21.8 -82.65 -18.85 -90.7 L-18.8 -90.8 -16.75 -90.4 -17.15 -90.15 Q-17.55 -89.75 -17.55 -89.2 -17.55 -88.65 -17.15 -88.25 L-17.05 -88.15 -18.35 -84.65 Q-19.3 -82.15 -19.35 -79.45 L-19.35 -77.2 -19.7 -76.95 Q-20.1 -76.55 -20.1 -76.0 -20.1 -75.45 -19.7 -75.05 L-19.5 -74.85 -19.2 -74.7 -19.1 -73.85 -21.2 -74.4 -21.3 -74.45 M-18.05 -92.75 L-16.7 -96.4 -14.75 -96.25 -15.2 -94.85 -15.3 -94.55 -15.8 -92.65 -18.05 -92.75 M-16.0 -98.3 L-14.85 -101.65 Q-14.45 -103.15 -14.0 -105.8 L-13.0 -110.9 -11.7 -112.85 -12.3 -108.1 -12.75 -106.8 -13.8 -103.7 -13.7 -102.75 -13.15 -102.55 -13.3 -101.95 -13.0 -101.15 -14.05 -98.25 -16.0 -98.3 M-16.15 -81.2 L-16.3 -81.25 -16.65 -81.3 -16.15 -81.2 M-17.3 -34.15 L-17.35 -33.8 -17.55 -33.75 -17.3 -34.15" fill="#b4b4b4" fill-rule="evenodd" stroke="none"/>
    <path d="M-9.35 -102.2 L-10.35 -98.9 -11.3 -99.0 -10.3 -101.85 -9.35 -102.2 M-12.0 -94.35 L-12.95 -92.1 -13.2 -92.15 -12.7 -94.4 -12.0 -94.35 M-8.35 -8.55 Q0.6 -8.0 18.85 -9.0 L24.5 -14.75 24.6 -14.7 18.05 -7.85 16.25 -7.8 13.7 -7.8 Q1.75 -7.8 -5.55 -8.3 L-8.35 -8.55 M-16.15 -81.2 L-16.65 -81.3 -16.3 -81.25 -16.15 -81.2" fill="#e0e0e0" fill-rule="evenodd" stroke="none"/>
    <path d="M-12.1 -100.5 L-14.2 -94.35 -14.75 -92.35 -14.8 -92.1 -15.25 -90.15 -15.4 -90.3 -15.75 -90.45 -16.2 -90.55 -16.4 -90.5 -15.8 -92.65 -15.3 -94.55 -15.2 -94.85 -14.75 -96.25 -14.05 -98.25 -13.0 -101.15 -13.0 -101.1 -13.0 -101.0 -12.95 -100.6 Q-12.8 -100.45 -12.55 -100.4 L-12.15 -100.5 -12.1 -100.5 M-15.95 -87.85 L-16.4 -86.3 -17.25 -83.55 -17.6 -82.1 Q-18.05 -80.25 -18.15 -78.4 L-18.2 -78.0 -18.2 -77.25 -18.75 -77.35 -19.15 -77.3 -19.35 -77.2 -19.35 -79.45 Q-19.3 -82.15 -18.35 -84.65 L-17.05 -88.15 -16.85 -88.05 -16.2 -87.85 -15.95 -87.85 M-18.0 -74.85 L-17.8 -73.65 -17.5 -72.55 Q-16.55 -69.7 -14.45 -67.55 L-13.15 -66.05 -13.75 -65.9 -14.1 -65.65 -14.4 -65.15 -16.9 -68.3 Q-18.7 -70.65 -19.1 -73.75 L-19.1 -73.85 -19.2 -74.7 -18.75 -74.65 -18.2 -74.75 -18.0 -74.85 M-12.05 -63.9 L-12.0 -63.8 Q-11.7 -62.7 -11.85 -60.75 L-12.3 -57.9 -12.35 -57.6 -13.7 -49.6 -13.95 -49.9 -14.1 -50.05 -14.85 -50.3 -13.0 -62.45 -13.15 -63.35 -12.7 -63.4 Q-12.4 -63.55 -12.2 -63.75 L-12.05 -63.9 M-14.0 -47.95 L-16.45 -33.55 -17.2 -33.8 -17.35 -33.8 -17.3 -34.15 -15.25 -47.65 -14.9 -47.6 -14.45 -47.65 -14.0 -47.95 M-16.9 -31.1 L-19.0 -18.95 -19.5 -22.0 -17.85 -31.25 -17.2 -31.1 -16.9 -31.1" fill="#616161" fill-rule="evenodd" stroke="none"/>
    <path d="M4.45 -87.45 L3.3 -87.5 -2.6 -87.2 -1.95 -88.0 Q-0.7 -89.4 1.1 -89.45 2.85 -89.45 4.15 -87.9 L4.45 -87.45 M-3.9 -87.05 L-7.15 -86.6 -11.65 -85.95 -11.55 -86.2 -11.5 -86.3 -11.5 -86.35 -11.5 -86.4 -11.45 -86.45 -10.6 -87.9 Q-9.25 -89.35 -7.45 -89.45 -5.7 -89.4 -4.5 -88.0 L-3.9 -87.05 M-8.9 -79.45 L-5.15 -79.5 3.55 -80.6 3.1 -80.2 2.55 -79.9 2.2 -79.75 Q1.1 -79.35 0.15 -78.65 L-1.05 -77.7 -2.2 -76.55 -5.55 -76.55 -7.9 -78.9 -8.9 -79.45" fill="#e0e0e0" fill-rule="evenodd" stroke="none"/>
    <path d="M-2.6 -87.2 L3.3 -87.5 4.45 -87.45 Q5.1 -86.2 5.05 -84.35 L5.05 -84.15 Q4.9 -82.25 3.75 -80.75 L3.55 -80.6 -5.15 -79.5 -8.9 -79.45 -9.4 -79.65 -9.5 -79.7 Q-10.3 -80.05 -11.0 -80.75 -11.95 -82.15 -11.95 -84.15 L-11.95 -84.35 -11.95 -84.45 -11.95 -84.6 -11.9 -84.7 -11.8 -85.5 -11.65 -85.95 -7.15 -86.6 -3.9 -87.05 -3.6 -86.5 -3.35 -84.8 -3.0 -86.4 -2.6 -87.2" fill="#ffffff" fill-rule="evenodd" stroke="none"/>
    <path d="M-2.2 -76.55 L-3.85 -73.85 -4.2 -73.85 -4.55 -74.75 -4.95 -75.6 -5.55 -76.55 -2.2 -76.55" fill="#b4b4b4" fill-rule="evenodd" stroke="none"/>
    <path d="M-2.6 -87.2 L-3.0 -86.4 -3.35 -84.8 -3.6 -86.5 -3.9 -87.05 -4.5 -88.0 Q-5.7 -89.4 -7.45 -89.45 -9.25 -89.35 -10.6 -87.9 L-11.45 -86.45 -11.5 -86.4 -11.5 -86.35 -11.5 -86.3 -11.55 -86.2 -11.8 -85.5 -11.9 -84.7 -11.95 -84.6 -11.95 -84.45 -11.95 -84.35 -11.95 -84.15 Q-11.95 -82.15 -11.0 -80.75 -10.3 -80.05 -9.5 -79.7 L-9.4 -79.65 -8.9 -79.45 -7.9 -78.9 -5.55 -76.55 -4.95 -75.6 -4.55 -74.75 -4.2 -73.85 -4.05 -73.35 -3.85 -73.85 -2.2 -76.55 -1.05 -77.7 0.15 -78.65 Q1.1 -79.35 2.2 -79.75 L2.55 -79.9 3.1 -80.2 3.75 -80.75 Q4.9 -82.25 5.05 -84.15 L5.05 -84.35 Q5.1 -86.2 4.45 -87.45 L4.15 -87.9 Q2.85 -89.45 1.1 -89.45 -0.7 -89.4 -1.95 -88.0 L-2.6 -87.2 M1.15 -90.35 Q3.3 -90.35 4.85 -88.5 L4.9 -88.45 Q6.0 -86.9 5.95 -84.55 6.15 -84.1 5.9 -83.75 5.65 -81.8 4.45 -80.25 L4.3 -80.1 2.55 -78.95 2.5 -78.95 Q-1.4 -77.4 -3.2 -73.05 L-3.55 -72.55 -4.1 -72.45 -4.6 -72.6 -4.9 -73.05 Q-6.25 -77.4 -9.85 -78.85 L-9.9 -78.85 -11.6 -80.1 -11.7 -80.25 Q-12.9 -81.8 -12.85 -84.1 L-12.85 -84.15 -12.85 -84.35 Q-12.7 -86.85 -11.2 -88.45 L-11.2 -88.5 Q-9.6 -90.25 -7.45 -90.35 L-7.35 -90.35 Q-5.25 -90.3 -3.8 -88.6 L-3.75 -88.5 -3.25 -87.75 -2.6 -88.5 -2.55 -88.6 Q-1.05 -90.3 1.15 -90.35" fill="#464646" fill-rule="evenodd" stroke="none"/>
  </g>
</svg>
