<?xml version="1.0" encoding="UTF-8" standalone="no"?>
<svg xmlns:ffdec="https://www.free-decompiler.com/flash" xmlns:xlink="http://www.w3.org/1999/xlink" ffdec:objectType="shape" height="8.75px" width="44.1px" xmlns="http://www.w3.org/2000/svg">
  <g transform="matrix(1.0, 0.0, 0.0, 1.0, 23.0, 107.3)">
    <path d="M-18.85 -103.9 L-18.25 -100.8 -18.1 -100.5 -17.85 -100.35 -18.15 -100.35 Q-19.0 -100.35 -19.45 -101.0 L-19.8 -101.7 Q-19.8 -102.95 -18.85 -103.9 M-17.1 -100.6 L-14.7 -103.35 -13.7 -104.05 -12.7 -104.6 Q-10.45 -102.75 -8.9 -99.6 L-8.6 -99.3 -8.2 -99.3 -7.9 -99.6 Q-6.7 -102.2 -3.3 -103.7 -0.6 -102.0 0.8 -99.15 L1.1 -98.85 1.5 -98.8 1.8 -99.1 Q3.55 -102.05 6.9 -103.45 9.4 -102.25 11.2 -99.75 L11.5 -99.55 11.9 -99.6 12.15 -99.85 12.2 -99.95 12.35 -99.2 12.2 -99.15 12.15 -99.15 10.5 -99.0 9.75 -99.8 Q7.75 -102.05 7.15 -102.05 6.1 -102.05 3.95 -99.85 L2.6 -98.6 2.05 -98.55 0.4 -98.55 -0.75 -100.05 Q-2.35 -102.4 -3.1 -102.4 -3.95 -102.4 -6.25 -100.55 L-8.4 -98.8 Q-8.7 -98.8 -10.3 -100.35 L-12.55 -102.9 Q-13.1 -102.05 -14.55 -101.15 -15.8 -100.45 -16.1 -100.45 L-17.1 -100.6 M7.85 -99.85 L7.65 -99.35 Q7.35 -99.0 6.85 -99.0 6.25 -99.0 6.05 -99.45 L6.0 -99.85 Q6.0 -101.0 6.9 -100.9 7.85 -100.75 7.85 -99.85 M-11.85 -100.25 L-12.05 -99.65 Q-12.3 -99.3 -12.75 -99.3 -13.45 -99.3 -13.7 -99.8 L-13.75 -100.25 Q-13.75 -101.35 -12.75 -101.2 -11.85 -101.05 -11.85 -100.25 M-2.6 -100.3 L-2.8 -99.7 Q-3.05 -99.25 -3.35 -99.25 -4.1 -99.25 -4.5 -99.8 L-4.7 -100.45 Q-4.7 -101.45 -3.65 -101.35 -2.6 -101.25 -2.6 -100.3" fill="#ffffff" fill-rule="evenodd" stroke="none"/>
    <path d="M18.3 -101.9 L18.15 -101.35 Q17.85 -100.95 17.35 -100.95 16.7 -100.95 16.5 -101.45 L16.45 -101.9 Q16.45 -103.0 17.35 -102.9 18.3 -102.7 18.3 -101.9" fill="#e0e0e0" fill-rule="evenodd" stroke="none"/>
    <path d="M-22.05 -101.8 L-21.65 -102.65 -21.25 -102.7 Q-20.55 -102.7 -20.55 -101.8 -20.55 -101.5 -20.7 -101.25 -20.95 -100.95 -21.3 -100.95 -21.85 -100.95 -22.0 -101.35 L-22.05 -101.8 M-20.55 -104.5 L-19.7 -105.7 -18.95 -104.15 -18.85 -103.9 Q-19.8 -102.95 -19.8 -101.7 L-19.45 -101.0 Q-19.0 -100.35 -18.15 -100.35 L-17.85 -100.35 -17.75 -100.3 -17.4 -100.35 -17.15 -100.55 -17.1 -100.6 -16.1 -100.45 Q-15.8 -100.45 -14.55 -101.15 -13.1 -102.05 -12.55 -102.9 L-10.3 -100.35 Q-8.7 -98.8 -8.4 -98.8 L-6.25 -100.55 Q-3.95 -102.4 -3.1 -102.4 -2.35 -102.4 -0.75 -100.05 L0.4 -98.55 -0.85 -98.55 -15.35 -99.4 -16.75 -99.65 -17.95 -99.85 -20.8 -100.55 -20.65 -100.9 -19.6 -102.9 -20.2 -103.65 -20.55 -104.5 M12.2 -99.95 L12.2 -100.0 12.5 -100.6 15.55 -104.3 15.65 -104.4 16.05 -104.7 16.15 -104.7 16.4 -104.9 Q17.7 -104.3 18.75 -103.35 L16.2 -104.2 Q15.5 -104.2 14.15 -101.15 L13.3 -99.35 13.1 -99.3 12.35 -99.2 12.2 -99.95 M10.5 -99.0 L2.05 -98.55 2.6 -98.6 3.95 -99.85 Q6.1 -102.05 7.15 -102.05 7.75 -102.05 9.75 -99.8 L10.5 -99.0 M7.85 -99.85 Q7.85 -100.75 6.9 -100.9 6.0 -101.0 6.0 -99.85 L6.05 -99.45 Q6.25 -99.0 6.85 -99.0 7.35 -99.0 7.65 -99.35 L7.85 -99.85 M-2.6 -100.3 Q-2.6 -101.25 -3.65 -101.35 -4.7 -101.45 -4.7 -100.45 L-4.5 -99.8 Q-4.1 -99.25 -3.35 -99.25 -3.05 -99.25 -2.8 -99.7 L-2.6 -100.3 M-11.85 -100.25 Q-11.85 -101.05 -12.75 -101.2 -13.75 -101.35 -13.75 -100.25 L-13.7 -99.8 Q-13.45 -99.3 -12.75 -99.3 -12.3 -99.3 -12.05 -99.65 L-11.85 -100.25" fill="#b4b4b4" fill-rule="evenodd" stroke="none"/>
    <path d="M-22.3 -101.15 L-22.05 -101.8 -22.0 -101.35 Q-21.85 -100.95 -21.3 -100.95 -20.95 -100.95 -20.7 -101.25 -20.55 -101.5 -20.55 -101.8 -20.55 -102.7 -21.25 -102.7 L-21.65 -102.65 -20.55 -104.5 -20.2 -103.65 -19.6 -102.9 -20.65 -100.9 -20.8 -100.55 -21.8 -100.9 -22.3 -101.15 M18.75 -103.35 L18.8 -103.35 20.6 -101.1 19.75 -100.75 Q18.15 -100.1 15.1 -99.65 L13.3 -99.35 14.15 -101.15 Q15.5 -104.2 16.2 -104.2 L18.75 -103.35 M18.3 -101.9 Q18.3 -102.7 17.35 -102.9 16.45 -103.0 16.45 -101.9 L16.5 -101.45 Q16.7 -100.95 17.35 -100.95 17.85 -100.95 18.15 -101.35 L18.3 -101.9" fill="#8a8a8a" fill-rule="evenodd" stroke="none"/>
    <path d="M-22.3 -101.15 L-22.85 -101.55 -22.95 -101.65 -22.9 -101.75 Q-23.1 -102.3 -22.8 -102.95 L-22.65 -103.25 -22.55 -103.4 -22.6 -103.35 Q-21.35 -105.8 -20.05 -107.1 L-19.8 -107.25 -19.45 -107.25 -19.15 -107.05 Q-17.8 -105.35 -17.3 -102.45 -15.45 -104.8 -12.8 -105.9 L-12.55 -105.95 -12.3 -105.8 Q-10.05 -104.1 -8.35 -101.15 -6.85 -103.5 -3.45 -104.95 L-3.2 -105.0 -2.95 -104.9 Q-0.2 -103.25 1.4 -100.6 3.35 -103.3 6.7 -104.7 L7.15 -104.7 Q9.65 -103.5 11.5 -101.25 13.05 -104.1 16.05 -106.15 L16.3 -106.25 16.55 -106.2 Q18.9 -105.15 20.55 -103.25 L21.1 -101.45 20.6 -101.1 18.8 -103.35 18.75 -103.35 Q17.7 -104.3 16.4 -104.9 L16.15 -104.7 16.05 -104.7 15.65 -104.4 15.55 -104.3 12.5 -100.6 12.2 -100.0 12.2 -99.95 12.15 -99.85 11.9 -99.6 11.5 -99.55 11.2 -99.75 Q9.4 -102.25 6.9 -103.45 3.55 -102.05 1.8 -99.1 L1.5 -98.8 1.1 -98.85 0.8 -99.15 Q-0.6 -102.0 -3.3 -103.7 -6.7 -102.2 -7.9 -99.6 L-8.2 -99.3 -8.6 -99.3 -8.9 -99.6 Q-10.45 -102.75 -12.7 -104.6 L-13.7 -104.05 -14.7 -103.35 -17.1 -100.6 -17.15 -100.55 -17.4 -100.35 -17.75 -100.3 -17.85 -100.35 -18.1 -100.5 -18.25 -100.8 -18.85 -103.9 -18.95 -104.15 -19.7 -105.7 -20.55 -104.5 -21.65 -102.65 -22.05 -101.8 -22.3 -101.15" fill="#464646" fill-rule="evenodd" stroke="none"/>
  </g>
</svg>
