<?xml version="1.0" encoding="UTF-8" standalone="no"?>
<svg xmlns:ffdec="https://www.free-decompiler.com/flash" xmlns:xlink="http://www.w3.org/1999/xlink" ffdec:objectType="shape" height="12.5px" width="227.0px" xmlns="http://www.w3.org/2000/svg">
  <g transform="matrix(1.0, 0.0, 0.0, 1.0, 0.0, 0.0)">
    <path d="M226.0 0.0 L227.0 0.0 Q227.0 5.15 223.3 8.8 219.65 12.5 214.5 12.5 L12.5 12.5 Q7.35 12.5 3.65 8.8 L3.25 8.4 Q0.0 4.85 0.0 0.0 L1.0 0.0 Q1.0 3.3 2.65 6.0 L3.95 7.7 4.0 7.75 4.35 8.1 Q7.75 11.5 12.5 11.5 L214.5 11.5 Q219.25 11.5 222.6 8.1 226.0 4.75 226.0 0.0" fill="#313131" fill-rule="evenodd" stroke="none"/>
    <path d="M226.0 0.0 Q226.0 4.75 222.6 8.1 219.25 11.5 214.5 11.5 L12.5 11.5 Q7.75 11.5 4.35 8.1 L4.0 7.75 3.95 7.7 2.65 6.0 Q1.0 3.3 1.0 0.0 L226.0 0.0" fill="#e9e9e9" fill-rule="evenodd" stroke="none"/>
  </g>
</svg>
