<?xml version="1.0" encoding="UTF-8" standalone="no"?>
<svg xmlns:ffdec="https://www.free-decompiler.com/flash" xmlns:xlink="http://www.w3.org/1999/xlink" ffdec:objectType="shape" height="28.0px" width="227.0px" xmlns="http://www.w3.org/2000/svg">
  <g transform="matrix(1.0, 0.0, 0.0, 1.0, 0.5, 0.5)">
    <path d="M226.5 27.5 L-0.5 27.5 -0.5 25.0 -0.5 22.5 -0.5 19.25 -0.45 11.0 -0.35 10.0 Q0.25 6.1 3.15 3.15 6.85 -0.5 12.0 -0.5 L214.0 -0.5 Q219.15 -0.5 222.8 3.15 224.0 4.35 224.85 5.7 L225.0 6.0 226.4 11.0 226.5 19.25 226.5 22.5 226.5 25.0 226.5 27.5 M3.85 3.85 Q1.25 6.5 0.65 10.0 L0.55 11.0 0.5 19.25 0.5 22.5 0.5 25.0 0.5 26.5 225.5 26.5 225.5 25.0 225.5 22.5 225.5 19.25 225.5 11.0 225.4 10.0 224.85 8.0 224.75 7.75 224.7 7.65 224.65 7.5 224.55 7.25 224.45 7.1 224.4 6.95 224.3 6.8 224.05 6.3 224.0 6.2 222.45 4.2 222.1 3.85 Q218.75 0.5 214.0 0.5 L12.0 0.5 Q7.25 0.5 3.85 3.85" fill="#313131" fill-rule="evenodd" stroke="none"/>
    <path d="M3.85 3.85 Q7.25 0.5 12.0 0.5 L214.0 0.5 Q218.75 0.5 222.1 3.85 L222.45 4.2 224.0 6.2 224.05 6.3 224.3 6.8 224.4 6.95 224.45 7.1 224.55 7.25 224.65 7.5 224.7 7.65 224.75 7.75 224.85 8.0 225.4 10.0 225.5 11.0 225.5 19.25 225.5 22.5 225.5 25.0 225.5 26.5 0.5 26.5 0.5 25.0 0.5 22.5 0.5 19.25 0.55 11.0 0.65 10.0 Q1.25 6.5 3.85 3.85" fill="#9ae09a" fill-rule="evenodd" stroke="none"/>
    <path d="M207.2 19.25 L207.05 19.0 206.9 18.75 201.05 8.55 200.6 7.75 200.55 7.4 200.65 7.2 Q200.8 7.05 201.0 7.05 L214.3 7.05 214.55 7.2 214.75 7.45 214.65 7.75 214.6 7.85 207.95 19.25 207.75 19.5 207.65 19.55 207.4 19.5 207.2 19.25 M207.65 7.95 L201.75 7.95 207.6 18.2 207.65 18.15 213.55 7.95 207.65 7.95" fill="#000000" fill-rule="evenodd" stroke="none"/>
    <path d="M207.65 18.15 L207.6 18.2 201.75 7.95 207.65 7.95 207.65 18.15" fill="#dbb300" fill-rule="evenodd" stroke="none"/>
    <path d="M207.65 7.95 L213.55 7.95 207.65 18.15 207.65 7.95" fill="#f7ca00" fill-rule="evenodd" stroke="none"/>
    <path d="M207.2 19.25 L207.4 19.5 207.65 19.55 207.75 19.5 207.95 19.25 214.6 7.85 214.75 7.85 215.0 8.0 215.2 8.25 215.1 8.55 208.4 20.05 208.2 20.3 208.1 20.35 207.85 20.3 207.65 20.05 207.2 19.25" fill="#a4a4a4" fill-rule="evenodd" stroke="none"/>
  </g>
</svg>
