<?xml version="1.0" encoding="UTF-8" standalone="no"?>
<svg xmlns:ffdec="https://www.free-decompiler.com/flash" xmlns:xlink="http://www.w3.org/1999/xlink" ffdec:objectType="shape" height="76.5px" width="103.1px" xmlns="http://www.w3.org/2000/svg">
  <g transform="matrix(1.0, 0.0, 0.0, 1.0, 63.8, 62.9)">
    <path d="M-7.65 -61.8 L-4.9 -61.15 -4.7 -61.05 -4.45 -61.05 4.35 -59.1 5.05 -58.9 5.0 -58.95 Q15.05 -56.75 22.2 -50.05 L25.3 -46.8 26.05 -45.8 Q32.2 -37.65 31.1 -27.05 L31.1 -26.95 31.05 -26.65 31.05 -26.55 30.95 -25.95 Q29.0 -12.1 15.65 -2.2 L15.45 -2.05 Q2.05 7.85 -14.9 7.85 L-24.9 6.9 -24.95 6.9 -25.25 6.8 -25.2 6.8 -35.7 4.6 -35.75 4.6 -36.0 4.5 -36.2 4.5 -38.1 4.15 -39.1 3.95 -39.05 2.95 -39.0 2.95 -39.05 2.9 -38.65 3.0 -37.85 3.2 -37.9 3.15 -36.5 3.45 -35.9 3.55 -35.8 3.65 -35.6 3.6 -27.85 5.2 -25.0 5.8 -24.95 5.85 -24.65 5.95 -24.7 5.9 -14.9 6.85 Q-1.1 6.85 10.25 0.2 L11.0 -0.25 13.35 -1.75 14.4 -2.5 14.85 -2.85 Q28.0 -12.5 29.95 -26.1 L30.05 -26.7 30.1 -27.15 Q30.9 -35.2 27.4 -41.8 26.2 -44.1 24.45 -46.2 L23.6 -47.2 21.5 -49.3 Q14.55 -55.85 4.8 -57.95 L4.75 -57.95 4.2 -58.1 4.15 -58.1 1.95 -58.55 -4.85 -60.15 -4.9 -60.2 -5.05 -60.2 -5.3 -60.25 -5.35 -60.25 -5.8 -60.35 -6.75 -60.6 -6.85 -60.6 -7.65 -61.8" fill="#212121" fill-rule="evenodd" stroke="none"/>
    <path d="M-39.1 3.95 L-38.1 4.15 -36.2 4.5 -36.0 4.5 -35.75 4.6 -35.7 4.6 -25.2 6.8 -25.25 6.8 -24.95 6.9 -24.9 6.9 -14.9 7.85 Q2.05 7.85 15.45 -2.05 L15.65 -2.2 Q29.0 -12.1 30.95 -25.95 L31.05 -26.55 31.05 -26.65 31.1 -26.95 31.1 -27.05 Q32.2 -37.65 26.05 -45.8 L25.3 -46.8 22.2 -50.05 Q15.05 -56.75 5.0 -58.95 L5.05 -58.9 4.35 -59.1 -4.45 -61.05 -4.7 -61.05 -4.9 -61.15 -7.65 -61.8 -4.95 -61.9 Q4.15 -61.9 11.55 -59.1 L11.95 -58.95 12.45 -58.75 12.55 -58.65 Q18.5 -56.25 23.3 -51.95 L24.05 -51.25 24.05 -51.2 Q26.7 -48.75 28.6 -46.0 34.45 -37.55 33.4 -26.8 L33.35 -26.25 33.25 -25.6 Q31.2 -10.55 17.2 0.1 L14.4 2.1 Q1.35 10.75 -14.75 10.75 -22.55 10.75 -29.05 8.7 L-29.15 8.7 -29.25 8.7 -29.4 8.7 Q-29.5 8.55 -29.65 8.55 -34.75 6.85 -39.1 3.95 M-6.85 -60.6 L-6.75 -60.6 -5.8 -60.35 -5.35 -60.25 -5.3 -60.25 -5.15 -60.2 -5.05 -60.2 -4.9 -60.2 -4.85 -60.15 -4.65 -60.05 -4.25 -59.95 -1.05 -58.85 -1.0 -58.8 Q4.9 -56.45 9.5 -52.05 L9.5 -52.0 11.3 -50.2 12.2 -49.15 Q19.0 -40.85 17.65 -29.85 L17.65 -29.8 17.6 -29.45 17.6 -29.4 17.5 -28.8 Q15.3 -15.15 2.1 -5.5 L2.05 -5.5 Q-11.15 4.2 -27.75 4.2 L-30.85 4.1 -35.55 3.6 -35.6 3.6 -35.8 3.65 -35.9 3.55 -36.05 3.5 -36.5 3.45 -37.9 3.15 -37.85 3.2 -38.65 3.0 -39.05 2.9 -39.0 2.95 -39.05 2.95 -41.4 2.25 -41.65 2.2 Q-49.0 -0.25 -54.45 -5.45 -63.25 -13.8 -62.75 -25.15 L-62.75 -25.3 -62.75 -25.45 -62.75 -25.55 -62.4 -28.65 Q-60.2 -42.4 -47.0 -52.0 -33.75 -61.7 -17.15 -61.7 L-12.1 -61.45 -7.95 -60.85 -7.35 -60.7 -6.85 -60.6" fill="#838383" fill-rule="evenodd" stroke="none"/>
    <path d="M-4.85 -60.15 L1.95 -58.55 Q6.5 -56.3 10.2 -52.75 L13.0 -49.75 13.8 -48.8 13.95 -48.6 14.4 -47.95 16.5 -44.4 17.0 -43.15 17.05 -43.15 Q19.55 -37.05 18.65 -29.8 L18.65 -29.75 18.6 -29.25 18.5 -28.65 Q16.35 -15.0 3.35 -5.2 L2.65 -4.7 2.35 -4.45 1.65 -3.95 0.9 -3.45 0.95 -3.45 Q-11.9 5.2 -27.75 5.2 L-27.85 5.2 -35.6 3.6 -35.55 3.6 -30.85 4.1 -27.75 4.2 Q-11.15 4.2 2.05 -5.5 L2.1 -5.5 Q15.3 -15.15 17.5 -28.8 L17.6 -29.4 17.6 -29.45 17.65 -29.8 17.65 -29.85 Q19.0 -40.85 12.2 -49.15 L11.3 -50.2 9.5 -52.0 9.5 -52.05 Q4.9 -56.45 -1.0 -58.8 L-1.05 -58.85 -4.25 -59.95 -4.65 -60.05 -4.85 -60.15 M-29.25 8.7 L-29.15 8.7 -29.05 8.7 Q-22.55 10.75 -14.75 10.75 1.35 10.75 14.4 2.1 L17.2 0.1 Q31.2 -10.55 33.25 -25.6 L33.35 -26.25 33.4 -26.8 Q34.45 -37.55 28.6 -46.0 26.7 -48.75 24.05 -51.2 L24.05 -51.25 23.3 -51.95 Q18.5 -56.25 12.55 -58.65 L12.45 -58.75 19.65 -56.05 Q22.35 -54.25 24.75 -51.95 L25.3 -51.45 25.55 -51.2 25.7 -51.05 25.8 -50.95 26.75 -49.95 26.9 -49.75 27.05 -49.6 29.1 -47.05 30.05 -45.65 Q35.45 -37.25 34.4 -26.65 L34.4 -26.6 34.35 -26.2 34.35 -26.1 34.25 -25.45 Q32.2 -10.05 17.8 0.9 L17.35 1.25 15.95 2.25 15.75 2.4 14.1 3.5 Q1.1 11.75 -14.75 11.75 L-21.5 11.35 -29.25 8.7" fill="#dbdbdb" fill-rule="evenodd" stroke="none"/>
    <path d="M1.95 -58.55 L4.15 -58.1 4.2 -58.1 4.75 -57.95 4.8 -57.95 Q14.55 -55.85 21.5 -49.3 L23.6 -47.2 24.45 -46.2 14.3 -48.65 13.8 -48.8 13.0 -49.75 10.2 -52.75 Q6.5 -56.3 1.95 -58.55 M25.3 -51.45 L24.75 -51.95 Q22.35 -54.25 19.65 -56.05 23.85 -54.0 27.4 -50.95 L25.3 -51.45" fill="#989898" fill-rule="evenodd" stroke="none"/>
    <path d="M-7.65 -61.8 L-6.85 -60.6 -7.35 -60.7 -7.95 -60.85 -12.1 -61.45 -17.15 -61.7 Q-33.75 -61.7 -47.0 -52.0 -60.2 -42.4 -62.4 -28.65 L-62.75 -25.55 -62.75 -25.45 -62.75 -25.3 -62.75 -25.15 Q-63.25 -13.8 -54.45 -5.45 -49.0 -0.25 -41.65 2.2 L-41.4 2.25 -39.05 2.95 -39.1 3.95 Q-34.75 6.85 -29.65 8.55 -29.5 8.55 -29.4 8.7 L-29.25 8.7 -21.5 11.35 Q-16.25 12.6 -10.2 12.6 4.7 12.6 17.05 5.15 L19.5 3.55 19.75 3.4 21.15 2.4 21.75 1.9 Q35.85 -8.8 37.95 -23.85 L38.05 -24.5 38.1 -24.95 38.1 -25.0 Q39.3 -36.25 33.0 -44.9 L31.4 -46.9 28.9 -49.5 28.9 -49.55 27.4 -50.95 Q23.85 -54.0 19.65 -56.05 L12.45 -58.75 11.95 -58.95 11.55 -59.1 Q4.15 -61.9 -4.95 -61.9 L-7.65 -61.8 M-5.3 -60.25 L-5.05 -60.2 -5.15 -60.2 -5.3 -60.25 M-35.9 3.55 L-36.5 3.45 -36.05 3.5 -35.9 3.55 M-55.15 -4.75 L-55.15 -4.7 Q-64.25 -13.4 -63.75 -25.2 L-63.75 -25.6 -63.4 -28.8 Q-61.2 -42.9 -47.6 -52.8 -34.05 -62.7 -17.15 -62.7 L-12.0 -62.45 -10.3 -62.25 -10.15 -62.5 Q-10.05 -62.7 -9.85 -62.7 L-4.95 -62.9 Q4.95 -62.9 12.9 -59.6 L12.95 -59.6 13.1 -59.55 Q22.5 -57.0 29.4 -50.45 L29.6 -50.25 Q32.45 -47.55 34.5 -44.55 40.25 -35.95 39.1 -24.95 L39.1 -24.9 39.05 -24.35 38.95 -23.7 Q36.85 -8.3 22.35 2.7 L21.0 3.7 Q7.15 13.6 -10.2 13.6 -21.15 13.6 -29.5 9.6 L-29.65 9.5 -29.95 9.5 Q-36.55 7.3 -41.9 3.15 -49.5 0.65 -55.15 -4.75" fill="#000000" fill-rule="evenodd" stroke="none"/>
    <path d="M24.45 -46.2 Q26.2 -44.1 27.4 -41.8 L26.2 -41.9 17.05 -43.15 17.0 -43.15 16.5 -44.4 14.4 -47.95 13.95 -48.6 14.65 -48.55 14.3 -48.65 24.45 -46.2 M27.4 -50.95 L28.9 -49.55 28.9 -49.5 31.4 -46.9 31.1 -46.95 30.5 -47.0 29.95 -46.75 29.4 -46.65 29.1 -47.05 27.05 -49.6 26.9 -49.75 26.75 -49.95 25.8 -50.95 25.7 -51.05 25.55 -51.2 25.3 -51.45 27.4 -50.95" fill="#818181" fill-rule="evenodd" stroke="none"/>
    <path d="M27.4 -41.8 Q30.9 -35.2 30.1 -27.15 L30.05 -26.7 29.95 -26.1 Q28.0 -12.5 14.85 -2.85 L14.4 -2.5 3.35 -5.2 Q16.35 -15.0 18.5 -28.65 L18.6 -29.25 18.65 -29.75 18.65 -29.8 Q19.55 -37.05 17.05 -43.15 L26.2 -41.9 27.4 -41.8 M31.4 -46.9 L33.0 -44.9 Q39.3 -36.25 38.1 -25.0 L38.1 -24.95 38.05 -24.5 37.95 -23.85 Q35.85 -8.8 21.75 1.9 L21.15 2.4 20.8 2.25 18.45 1.7 17.35 1.25 17.8 0.9 Q32.2 -10.05 34.25 -25.45 L34.35 -26.1 34.35 -26.2 34.4 -26.6 34.4 -26.65 Q35.45 -37.25 30.05 -45.65 L29.1 -47.05 29.4 -46.65 29.95 -46.75 30.5 -47.0 31.1 -46.95 31.4 -46.9 M13.8 -48.8 L14.3 -48.65 14.65 -48.55 13.95 -48.6 13.8 -48.8" fill="#6a6a6a" fill-rule="evenodd" stroke="none"/>
    <path d="M14.4 -2.5 L13.35 -1.75 11.0 -0.25 10.25 0.2 7.2 -0.95 0.95 -3.45 0.9 -3.45 1.65 -3.95 2.35 -4.45 2.65 -4.7 3.35 -5.2 14.4 -2.5 M21.15 2.4 L19.75 3.4 18.8 3.15 19.5 3.55 17.05 5.15 14.1 3.5 15.75 2.4 15.95 2.25 17.35 1.25 18.45 1.7 20.8 2.25 21.15 2.4" fill="#545454" fill-rule="evenodd" stroke="none"/>
    <path d="M10.25 0.2 Q-1.1 6.85 -14.9 6.85 L-24.7 5.9 -24.65 5.95 -24.95 5.85 -25.0 5.8 -27.85 5.2 -27.75 5.2 Q-11.9 5.2 0.95 -3.45 L7.2 -0.95 10.25 0.2 M19.75 3.4 L19.5 3.55 18.8 3.15 19.75 3.4 M17.05 5.15 Q4.7 12.6 -10.2 12.6 -16.25 12.6 -21.5 11.35 L-14.75 11.75 Q1.1 11.75 14.1 3.5 L17.05 5.15" fill="#3e3e3e" fill-rule="evenodd" stroke="none"/>
  </g>
</svg>
