<?xml version="1.0" encoding="UTF-8" standalone="no"?>
<svg xmlns:ffdec="https://www.free-decompiler.com/flash" xmlns:xlink="http://www.w3.org/1999/xlink" ffdec:objectType="shape" height="24.95px" width="19.1px" xmlns="http://www.w3.org/2000/svg">
  <g transform="matrix(1.0, 0.0, 0.0, 1.0, 0.95, 0.9)">
    <path d="M2.45 21.1 L3.0 19.0 Q3.4 15.15 3.75 14.25 L6.1 9.0 Q7.55 5.6 7.55 4.35 7.55 3.35 6.85 3.1 9.6 0.6 13.25 1.05 8.35 5.55 7.05 14.6 L6.2 19.9 Q5.6 22.05 4.2 22.05 3.3 22.05 2.5 21.15 L2.45 21.1" fill="#2d251e" fill-rule="evenodd" stroke="none"/>
    <path d="M16.6 2.15 Q14.8 2.7 13.75 3.4 9.65 6.15 9.15 14.4 8.8 19.8 8.05 21.65 6.95 24.05 4.05 24.05 1.8 24.05 0.35 21.55 -0.95 19.25 -0.95 16.3 -0.95 10.2 3.5 4.65 8.0 -0.9 13.0 -0.9 15.9 -0.9 18.15 1.35 18.0 1.75 16.6 2.15 M2.45 21.1 L2.5 21.15 Q3.3 22.05 4.2 22.05 5.6 22.05 6.2 19.9 L7.05 14.6 Q8.35 5.55 13.25 1.05 9.6 0.6 6.85 3.1 5.4 4.4 4.2 6.55 L3.65 7.5 Q1.1 12.6 1.1 16.15 1.1 19.55 2.45 21.1" fill="#1b1714" fill-rule="evenodd" stroke="none"/>
    <path d="M6.85 3.1 Q7.55 3.35 7.55 4.35 7.55 5.6 6.1 9.0 L3.75 14.25 Q3.4 15.15 3.0 19.0 L2.45 21.1 Q1.1 19.55 1.1 16.15 1.1 12.6 3.65 7.5 L4.2 6.55 Q5.4 4.4 6.85 3.1" fill="#393026" fill-rule="evenodd" stroke="none"/>
  </g>
</svg>
