<?xml version="1.0" encoding="UTF-8" standalone="no"?>
<svg xmlns:ffdec="https://www.free-decompiler.com/flash" xmlns:xlink="http://www.w3.org/1999/xlink" ffdec:objectType="shape" height="1.7px" width="6.4px" xmlns="http://www.w3.org/2000/svg">
  <g transform="matrix(1.0, 0.0, 0.0, 1.0, 3.0, 0.95)">
    <path d="M0.95 0.3 L2.05 -0.2 Q2.05 -1.1 0.55 -0.6 -1.0 -0.15 -1.15 0.3 L-1.0 0.45 -1.35 0.45 -2.05 0.75 -2.7 0.5 -3.0 0.1 Q-3.0 -0.7 0.25 -0.95 3.4 -1.1 3.4 -0.35 3.4 0.05 2.05 0.2 L0.95 0.3" fill="#50541d" fill-rule="evenodd" stroke="none"/>
    <path d="M-1.0 0.45 L-1.15 0.3 Q-1.0 -0.15 0.55 -0.6 2.05 -1.1 2.05 -0.2 L0.95 0.3 -1.0 0.45" fill="#989f37" fill-rule="evenodd" stroke="none"/>
  </g>
</svg>
