<?xml version="1.0" encoding="UTF-8" standalone="no"?>
<svg xmlns:ffdec="https://www.free-decompiler.com/flash" xmlns:xlink="http://www.w3.org/1999/xlink" ffdec:objectType="shape" height="92.05px" width="82.4px" xmlns="http://www.w3.org/2000/svg">
  <g transform="matrix(1.0, 0.0, 0.0, 1.0, 48.5, 4.05)">
    <path d="M-18.65 20.85 Q-16.6 21.05 -14.1 20.9 L-14.85 27.7 Q-16.15 38.9 -21.2 53.25 -22.55 56.9 -26.7 62.95 -31.65 70.05 -33.95 69.75 -27.2 57.4 -24.45 47.45 -20.75 33.45 -18.65 20.85 M-8.55 20.15 L-7.9 20.05 -6.8 27.0 -10.05 43.95 -9.85 44.35 -9.1 44.5 Q-8.6 44.5 -6.45 43.3 L-5.5 42.65 -5.55 45.95 Q-5.75 47.85 -6.05 48.75 L-6.2 47.7 -10.2 48.6 -10.2 48.55 -16.25 50.05 Q-13.05 45.95 -10.65 34.25 -10.25 33.1 -10.2 32.1 L-10.2 31.65 Q-8.55 24.6 -8.55 20.15 M8.0 13.8 L9.6 12.9 11.1 12.1 11.1 11.95 13.2 10.65 13.15 10.8 12.55 15.2 12.4 16.0 12.05 18.4 11.55 22.05 11.4 23.2 11.1 25.25 11.1 23.95 10.55 30.05 10.55 30.1 Q10.0 35.75 10.0 39.9 10.0 42.5 11.1 54.95 L11.9 63.7 11.9 65.5 11.8 65.4 11.6 65.45 11.1 64.95 9.6 62.6 Q8.05 59.95 7.5 58.15 L7.65 58.7 Q8.1 59.65 6.7 63.3 5.05 67.45 2.5 70.1 L2.4 68.95 2.35 59.55 2.2 58.05 2.05 57.9 1.4 58.05 Q1.0 58.05 1.0 57.45 1.0 50.35 2.3 44.55 3.65 38.2 3.85 31.5 4.05 25.5 8.0 13.8" fill="#ffffff" fill-rule="evenodd" stroke="none"/>
    <path d="M-23.2 19.65 L-22.1 20.2 -22.05 20.25 -22.0 20.25 -21.15 20.45 Q-22.35 27.55 -24.8 34.6 -28.2 44.5 -30.15 45.2 L-30.8 43.1 -30.4 42.25 Q-29.55 41.15 -27.65 35.45 L-24.9 27.15 -24.2 24.05 -23.2 19.65 M-21.1 20.5 L-18.65 20.85 Q-20.75 33.45 -24.45 47.45 -27.2 57.4 -33.95 69.75 -31.65 70.05 -26.7 62.95 -22.55 56.9 -21.2 53.25 -16.15 38.9 -14.85 27.7 L-14.1 20.9 -11.6 20.65 -11.0 20.55 -10.2 20.45 -9.65 20.35 -10.15 22.65 -10.15 22.75 -10.2 23.15 -11.3 29.85 Q-13.65 42.25 -18.0 51.0 L-14.5 51.55 Q-14.6 55.5 -14.05 58.05 -13.25 60.45 -12.05 60.6 -10.95 60.55 -10.2 59.5 L-10.2 59.55 Q-7.95 57.05 -6.1 48.8 L-6.05 48.75 Q-5.75 47.85 -5.55 45.95 L-5.5 42.65 -6.45 43.3 Q-8.6 44.5 -9.1 44.5 L-9.85 44.35 -10.05 43.95 -6.8 27.0 -7.9 20.05 -6.6 19.75 -5.05 19.3 -4.5 19.15 -4.0 19.0 Q-0.2 17.8 3.75 15.95 5.25 15.25 6.7 14.5 L7.7 13.95 8.0 13.8 Q4.05 25.5 3.85 31.5 3.65 38.2 2.3 44.55 1.0 50.35 1.0 57.45 1.0 58.05 1.4 58.05 L2.05 57.9 2.2 58.05 2.35 59.55 2.4 68.95 2.5 70.1 Q5.05 67.45 6.7 63.3 8.1 59.65 7.65 58.7 L7.5 58.15 Q8.05 59.95 9.6 62.6 L11.1 64.95 11.6 65.45 11.8 65.4 11.9 65.5 11.9 63.7 11.1 54.95 Q10.0 42.5 10.0 39.9 10.0 35.75 10.55 30.1 L10.55 30.05 11.1 23.95 11.1 25.25 11.4 23.2 11.55 22.05 12.05 18.4 12.4 16.0 12.55 15.2 13.15 10.8 13.2 10.65 16.5 8.4 16.45 8.55 15.95 13.2 15.85 14.2 15.4 18.9 15.1 22.4 14.9 24.6 14.75 26.15 Q13.9 36.2 13.85 42.4 L13.85 43.3 14.9 74.65 6.5 69.4 -0.05 77.65 0.1 53.85 Q0.35 36.35 -1.0 32.5 L-1.05 32.8 -3.55 49.55 Q-4.8 57.95 -5.85 62.05 -7.3 67.55 -10.2 71.3 L-10.2 71.25 Q-12.75 74.7 -16.85 76.7 L-16.25 66.8 Q-15.75 57.15 -16.45 56.45 -26.75 75.3 -34.65 74.1 L-40.8 73.35 Q-32.8 66.05 -27.95 52.35 -23.9 42.05 -21.1 20.5 M-39.8 69.65 L-34.4 62.55 Q-34.7 63.65 -36.75 66.3 L-39.8 69.65" fill="#d1d1d1" fill-rule="evenodd" stroke="none"/>
    <path d="M27.3 -0.5 L30.8 -4.05 30.8 -3.95 31.55 0.2 31.6 0.35 31.95 2.8 31.0 4.6 30.85 4.6 29.9 3.3 29.05 2.5 Q27.9 1.2 27.3 -0.5 M-31.55 10.35 L-31.4 10.7 Q-31.85 17.05 -32.95 23.45 L-33.6 29.2 Q-32.45 28.25 -30.7 25.5 -28.55 22.15 -26.6 17.05 L-25.85 17.65 Q-24.7 18.85 -23.2 19.65 L-24.2 24.05 -24.9 27.15 -27.65 35.45 Q-29.55 41.15 -30.4 42.25 L-30.8 43.1 -30.15 45.2 Q-28.2 44.5 -24.8 34.6 -22.35 27.55 -21.15 20.45 L-21.1 20.5 Q-23.9 42.05 -27.95 52.35 -32.8 66.05 -40.8 73.35 L-34.65 74.1 Q-26.75 75.3 -16.45 56.45 -15.75 57.15 -16.25 66.8 L-16.85 76.7 Q-12.75 74.7 -10.2 71.25 L-10.2 71.3 Q-7.3 67.55 -5.85 62.05 -4.8 57.95 -3.55 49.55 L-1.05 32.8 -1.0 32.5 Q0.35 36.35 0.1 53.85 L-0.05 77.65 6.5 69.4 14.9 74.65 13.85 43.3 13.85 42.4 Q13.9 36.2 14.75 26.15 L14.9 24.6 15.1 22.4 15.4 18.9 15.85 14.2 15.95 13.2 16.45 8.55 16.5 8.4 17.8 7.4 21.05 4.95 20.9 6.2 20.7 8.65 20.65 9.1 20.6 9.35 20.45 11.1 20.2 13.5 20.0 16.25 20.0 16.3 20.0 16.4 Q19.45 22.8 20.0 22.55 L20.2 26.85 20.6 30.15 Q21.95 40.1 23.8 51.45 25.65 62.6 26.2 69.85 L23.65 68.1 Q21.35 66.75 20.95 66.75 L20.6 66.8 Q19.05 67.3 18.3 72.3 17.85 75.1 17.1 85.0 L15.85 83.35 12.25 78.65 12.1 78.45 11.6 77.85 11.1 77.35 11.1 77.3 Q8.7 74.65 7.5 74.65 6.2 74.65 3.55 78.0 -0.2 82.8 -2.8 85.0 -2.8 82.4 -3.9 77.8 -4.9 73.5 -5.6 72.4 L-10.2 75.8 -10.2 75.75 -12.05 77.05 Q-18.1 81.25 -20.95 82.05 L-21.95 82.35 Q-19.65 79.0 -19.7 74.85 L-19.8 73.45 -19.65 73.3 Q-19.55 73.15 -20.2 73.15 L-25.25 75.75 Q-31.1 78.35 -36.55 78.35 L-42.9 77.55 -45.95 75.95 -39.8 69.65 -36.75 66.3 Q-34.7 63.65 -34.4 62.55 L-32.4 59.45 Q-30.95 57.05 -30.45 52.65 L-31.8 52.45 -36.7 55.05 Q-34.9 52.7 -33.25 48.1 -30.9 41.9 -29.95 33.7 -29.55 31.7 -29.7 29.05 -29.8 26.65 -30.05 25.85 L-35.6 32.1 Q-32.35 16.6 -31.55 10.35 M-30.7 12.1 L-29.65 13.8 -27.5 16.3 -32.4 26.15 -32.05 22.0 -30.7 12.1 M21.2 4.8 L26.4 0.4 26.15 4.9 26.15 5.95 Q25.35 34.25 32.45 56.35 27.2 62.0 26.55 60.65 25.4 55.3 24.2 48.45 21.85 34.8 21.3 25.45 L21.2 4.8 M-14.5 51.55 L-10.6 51.05 -10.2 50.9 -10.2 50.95 Q-7.45 50.15 -6.1 48.8 -7.95 57.05 -10.2 59.55 L-10.2 59.5 Q-10.95 60.55 -12.05 60.6 -13.25 60.45 -14.05 58.05 -14.6 55.5 -14.5 51.55" fill="#989898" fill-rule="evenodd" stroke="none"/>
    <path d="M27.3 -0.5 Q27.9 1.2 29.05 2.5 L29.9 3.3 30.85 4.6 30.85 4.85 Q24.4 29.7 33.9 57.15 32.7 60.25 27.45 62.75 L28.7 73.4 Q27.0 73.1 26.2 72.55 L21.0 68.5 20.6 70.6 Q19.1 78.75 18.95 84.85 L18.75 87.3 Q18.6 87.8 17.8 87.8 17.2 87.8 15.85 86.55 L13.45 84.0 13.4 83.9 11.1 81.2 7.2 76.7 3.05 82.1 Q-0.9 86.8 -3.25 88.0 -3.75 87.05 -5.05 81.2 L-6.4 75.0 -10.2 77.85 -10.2 77.8 Q-17.1 82.9 -20.15 84.2 -22.2 85.05 -24.45 84.9 -24.4 84.45 -24.5 84.15 L-23.1 80.2 Q-21.85 76.9 -21.8 75.95 -24.4 78.35 -29.35 79.5 L-35.15 80.2 Q-40.9 80.2 -44.0 78.4 -47.25 76.45 -48.5 76.5 -45.35 74.75 -38.8 66.4 -32.05 57.5 -32.1 54.35 L-35.15 55.8 Q-37.9 57.3 -38.45 57.2 L-39.0 57.1 -38.9 56.65 -32.5 40.35 -31.6 36.7 -31.1 29.1 -37.0 35.15 -37.25 35.05 -37.3 34.15 Q-34.6 20.85 -32.7 9.9 L-32.45 8.7 -31.9 9.45 -31.55 10.35 Q-32.35 16.6 -35.6 32.1 L-30.05 25.85 Q-29.8 26.65 -29.7 29.05 -29.55 31.7 -29.95 33.7 -30.9 41.9 -33.25 48.1 -34.9 52.7 -36.7 55.05 L-31.8 52.45 -30.45 52.65 Q-30.95 57.05 -32.4 59.45 L-34.4 62.55 -39.8 69.65 -45.95 75.95 -42.9 77.55 -36.55 78.35 Q-31.1 78.35 -25.25 75.75 L-20.2 73.15 Q-19.55 73.15 -19.65 73.3 L-19.8 73.45 -19.7 74.85 Q-19.65 79.0 -21.95 82.35 L-20.95 82.05 Q-18.1 81.25 -12.05 77.05 L-10.2 75.75 -10.2 75.8 -5.6 72.4 Q-4.9 73.5 -3.9 77.8 -2.8 82.4 -2.8 85.0 -0.2 82.8 3.55 78.0 6.2 74.65 7.5 74.65 8.7 74.65 11.1 77.3 L11.1 77.35 11.6 77.85 12.1 78.45 12.25 78.65 15.85 83.35 17.1 85.0 Q17.85 75.1 18.3 72.3 19.05 67.3 20.6 66.8 L20.95 66.75 Q21.35 66.75 23.65 68.1 L26.2 69.85 Q25.65 62.6 23.8 51.45 21.95 40.1 20.6 30.15 L20.2 26.85 20.0 22.55 Q19.45 22.8 20.0 16.4 L20.0 16.3 20.0 16.25 20.2 13.5 20.45 11.1 20.6 9.35 20.65 9.1 20.7 8.65 20.9 6.2 21.05 4.95 21.2 4.8 21.3 25.45 Q21.85 34.8 24.2 48.45 25.4 55.3 26.55 60.65 27.2 62.0 32.45 56.35 25.35 34.25 26.15 5.95 L26.15 4.9 26.4 0.4 27.3 -0.5 M-31.4 10.7 L-30.7 12.1 -32.05 22.0 -32.4 26.15 -27.5 16.3 -26.8 16.9 -26.6 17.05 Q-28.55 22.15 -30.7 25.5 -32.45 28.25 -33.6 29.2 L-32.95 23.45 Q-31.85 17.05 -31.4 10.7 M-9.65 20.35 L-9.0 20.25 -8.55 20.15 Q-8.55 24.6 -10.2 31.65 L-10.2 32.1 Q-10.25 33.1 -10.65 34.25 -13.05 45.95 -16.25 50.05 L-10.2 48.55 -10.2 48.6 -6.2 47.7 -6.05 48.75 -6.1 48.8 Q-7.45 50.15 -10.2 50.95 L-10.2 50.9 -10.6 51.05 -14.5 51.55 -18.0 51.0 Q-13.65 42.25 -11.3 29.85 L-10.2 23.15 -10.15 22.75 -10.15 22.65 -9.65 20.35" fill="#606060" fill-rule="evenodd" stroke="none"/>
  </g>
</svg>
