<?xml version="1.0" encoding="UTF-8" standalone="no"?>
<svg xmlns:ffdec="https://www.free-decompiler.com/flash" xmlns:xlink="http://www.w3.org/1999/xlink" ffdec:objectType="shape" height="38.65px" width="27.55px" xmlns="http://www.w3.org/2000/svg">
  <g transform="matrix(1.0, 0.0, 0.0, 1.0, 24.05, 98.45)">
    <path d="M-19.35 -89.8 L-20.8 -81.9 Q-20.8 -80.55 -21.25 -78.65 L-22.45 -80.75 -21.8 -82.0 -21.85 -84.1 -20.4 -90.45 -19.35 -89.8 M-22.4 -74.75 L-23.0 -73.25 -24.05 -74.9 -22.4 -74.75" fill="#464646" fill-rule="evenodd" stroke="none"/>
    <path d="M-19.35 -89.8 L-18.35 -89.1 -17.95 -88.0 -19.15 -79.0 -19.55 -75.7 -21.25 -78.65 Q-20.8 -80.55 -20.8 -81.9 L-19.35 -89.8 M-22.4 -74.75 L-20.0 -74.55 -19.6 -75.4 -20.1 -70.95 -21.35 -71.15 -20.55 -72.4 -22.55 -72.5 -23.0 -73.25 -22.4 -74.75" fill="#8a8a8a" fill-rule="evenodd" stroke="none"/>
    <path d="M-11.8 -91.8 L-12.9 -83.9 -10.9 -80.1 Q-9.5 -76.95 -9.5 -75.9 -9.5 -74.05 -14.6 -69.75 L-14.65 -69.5 -15.9 -69.45 Q-15.3 -77.75 -14.25 -85.95 L-13.55 -85.3 -13.5 -89.75 -13.65 -90.6 -13.35 -92.9 -11.8 -91.8" fill="#b4b4b4" fill-rule="evenodd" stroke="none"/>
    <path d="M-2.5 -82.25 L-1.9 -83.0 -1.65 -83.35 -1.6 -83.4 0.65 -85.3 1.85 -86.55 1.45 -84.2 2.4 -83.75 1.05 -79.8 1.95 -78.25 -1.0 -75.05 -2.15 -74.45 -2.3 -77.7 -2.5 -82.25 M-11.8 -91.8 L-11.7 -91.7 -9.2 -98.45 -8.5 -95.95 -8.95 -94.4 -9.0 -90.5 Q-9.2 -88.1 -8.75 -85.75 -8.15 -82.65 -6.5 -81.55 L-6.5 -77.0 -6.45 -72.25 -10.35 -69.9 -11.3 -69.05 -11.3 -69.5 -14.65 -69.5 -14.6 -69.75 Q-9.5 -74.05 -9.5 -75.9 -9.5 -76.95 -10.9 -80.1 L-12.9 -83.9 -11.8 -91.8 M-11.65 -62.15 L-10.3 -62.15 -10.4 -60.25 -10.65 -59.8 -11.8 -59.85 -11.65 -62.15" fill="#e0e0e0" fill-rule="evenodd" stroke="none"/>
    <path d="M-2.5 -82.25 L-2.55 -85.9 -2.55 -85.85 -1.25 -87.25 2.6 -89.55 2.05 -87.75 1.85 -86.55 0.65 -85.3 -1.6 -83.4 -1.65 -83.35 -1.9 -83.0 -2.5 -82.25 M-1.0 -75.05 L-1.75 -74.3 -1.05 -73.0 -0.65 -72.85 3.5 -72.05 1.85 -70.2 -0.9 -70.75 -0.25 -68.85 -1.95 -69.05 -2.15 -74.45 -1.0 -75.05 M-11.3 -69.05 L-10.35 -69.9 -6.45 -72.25 -6.45 -68.85 -9.9 -69.65 -10.3 -62.15 -11.65 -62.15 -11.3 -69.05 M-6.5 -81.55 Q-8.15 -82.65 -8.75 -85.75 -9.2 -88.1 -9.0 -90.5 L-8.95 -94.4 -8.5 -95.95 -7.3 -91.45 -6.45 -91.9 -6.5 -81.55 M-10.65 -59.8 L-10.4 -60.25 -10.45 -59.8 -10.65 -59.8" fill="#ffffff" fill-rule="evenodd" stroke="none"/>
  </g>
</svg>
