<?xml version="1.0" encoding="UTF-8" standalone="no"?>
<svg xmlns:ffdec="https://www.free-decompiler.com/flash" xmlns:xlink="http://www.w3.org/1999/xlink" ffdec:objectType="shape" height="18.65px" width="107.45px" xmlns="http://www.w3.org/2000/svg">
  <g transform="matrix(1.0, 0.0, 0.0, 1.0, 0.35, 18.3)">
    <path d="M37.75 -9.85 Q54.65 -7.85 72.0 -14.8 L75.15 -14.8 105.2 -0.55 0.35 -0.35 0.45 -17.55 19.65 -14.65 Q28.65 -10.95 37.75 -9.85" fill="#0066cc" fill-rule="evenodd" stroke="none"/>
    <path d="M75.25 -15.5 L75.4 -15.45 106.9 -0.5 107.1 -0.35 107.1 -0.1 107.0 0.1 106.75 0.15 0.0 0.35 -0.25 0.25 -0.35 0.0 -0.25 -17.95 -0.2 -18.15 -0.05 -18.25 0.15 -18.3 19.75 -15.35 19.85 -15.3 Q28.8 -11.65 37.85 -10.55 54.6 -8.55 71.8 -15.45 L71.9 -15.5 75.25 -15.5 M37.75 -9.85 Q28.65 -10.95 19.65 -14.65 L0.45 -17.55 0.35 -0.35 105.2 -0.55 75.15 -14.8 72.0 -14.8 Q54.65 -7.85 37.75 -9.85" fill="#0c3c6d" fill-rule="evenodd" stroke="none"/>
    <path d="M37.75 -7.35 Q54.65 -5.35 72.0 -12.3 L75.15 -12.3 100.35 -0.35 0.4 -0.35 0.45 -15.05 19.65 -12.15 Q28.65 -8.45 37.75 -7.35" fill="#0c3c6d" fill-rule="evenodd" stroke="none"/>
  </g>
</svg>
