<?xml version="1.0" encoding="UTF-8" standalone="no"?>
<svg xmlns:ffdec="https://www.free-decompiler.com/flash" xmlns:xlink="http://www.w3.org/1999/xlink" ffdec:objectType="shape" height="39.1px" width="30.5px" xmlns="http://www.w3.org/2000/svg">
  <g transform="matrix(1.0, 0.0, 0.0, 1.0, 0.0, 39.1)">
    <path d="M21.05 -38.1 L29.45 -38.1 29.45 -1.0 21.2 -1.0 21.05 -38.1" fill="#b20003" fill-rule="evenodd" stroke="none"/>
    <path d="M21.05 -38.1 L21.05 -39.1 30.5 -39.1 30.5 0.0 21.2 0.0 21.2 -1.0 29.45 -1.0 29.45 -38.1 21.05 -38.1" fill="#371919" fill-rule="evenodd" stroke="none"/>
    <path d="M10.85 -1.0 L0.95 -1.0 0.95 -38.1 10.65 -38.1 10.85 -1.0" fill="#0066cc" fill-rule="evenodd" stroke="none"/>
    <path d="M10.65 -39.1 L10.65 -38.1 0.95 -38.1 0.95 -1.0 10.85 -1.0 10.85 0.0 0.0 0.0 0.0 -39.1 10.65 -39.1" fill="#00274d" fill-rule="evenodd" stroke="none"/>
    <path d="M10.65 -38.1 L21.05 -38.1 21.2 -1.0 10.85 -1.0 10.65 -38.1" fill="#d8d8d8" fill-rule="evenodd" stroke="none"/>
    <path d="M21.05 -39.1 L21.05 -38.1 10.65 -38.1 10.65 -39.1 21.05 -39.1 M21.2 -1.0 L21.2 0.0 10.85 0.0 10.85 -1.0 21.2 -1.0" fill="#666666" fill-rule="evenodd" stroke="none"/>
  </g>
</svg>
