<?xml version="1.0" encoding="UTF-8" standalone="no"?>
<svg xmlns:ffdec="https://www.free-decompiler.com/flash" xmlns:xlink="http://www.w3.org/1999/xlink" ffdec:objectType="shape" height="39.1px" width="30.5px" xmlns="http://www.w3.org/2000/svg">
  <g transform="matrix(1.0, 0.0, 0.0, 1.0, 0.0, 39.1)">
    <path d="M0.95 -38.1 L29.45 -38.1 29.45 -20.95 0.95 -20.2 0.95 -38.1" fill="#cc0000" fill-rule="evenodd" stroke="none"/>
    <path d="M0.95 -19.7 L0.0 -19.7 0.0 -39.1 30.5 -39.1 30.5 -20.5 29.45 -20.45 0.95 -19.7 M0.95 -38.1 L0.95 -20.2 29.45 -20.95 29.45 -38.1 0.95 -38.1" fill="#580000" fill-rule="evenodd" stroke="none"/>
    <path d="M21.15 -14.35 L22.1 -15.5 Q22.45 -16.25 22.35 -17.1 22.3 -17.9 21.8 -18.2 L20.7 -18.1 19.7 -17.0 Q19.35 -16.2 19.4 -15.4 19.5 -14.55 20.0 -14.3 L21.15 -14.35 M15.8 -14.45 L16.75 -15.6 Q17.1 -16.35 17.0 -17.2 16.95 -18.0 16.45 -18.3 L15.35 -18.2 Q14.75 -17.85 14.35 -17.1 14.0 -16.3 14.05 -15.5 14.15 -14.65 14.65 -14.4 L15.8 -14.45 M10.9 -14.3 Q11.5 -14.65 11.85 -15.45 12.2 -16.2 12.1 -17.05 12.05 -17.85 11.55 -18.15 L10.45 -18.05 Q9.85 -17.7 9.45 -16.95 9.1 -16.15 9.15 -15.35 9.25 -14.5 9.75 -14.25 L10.9 -14.3 M0.95 -19.7 L29.45 -20.45 29.45 -1.0 0.95 -1.0 0.95 -19.7 M20.45 -1.8 Q21.05 -2.15 21.4 -2.95 21.75 -3.7 21.65 -4.55 21.6 -5.35 21.1 -5.65 L20.0 -5.55 Q19.4 -5.2 19.0 -4.45 18.65 -3.65 18.7 -2.85 18.8 -2.0 19.3 -1.75 L20.45 -1.8 M15.1 -1.9 L16.05 -3.05 Q16.4 -3.8 16.3 -4.65 16.25 -5.45 15.75 -5.75 L14.65 -5.65 13.65 -4.55 Q13.3 -3.75 13.35 -2.95 13.45 -2.1 13.95 -1.85 L15.1 -1.9 M11.85 -7.9 L12.8 -9.05 Q13.15 -9.8 13.05 -10.65 13.0 -11.45 12.5 -11.75 L11.4 -11.65 Q10.8 -11.3 10.4 -10.55 10.05 -9.75 10.1 -8.95 10.2 -8.1 10.7 -7.85 L11.85 -7.9 M16.75 -8.05 L17.7 -9.2 Q18.05 -9.95 17.95 -10.8 17.9 -11.6 17.4 -11.9 L16.3 -11.8 Q15.7 -11.45 15.3 -10.7 14.95 -9.9 15.0 -9.1 15.1 -8.25 15.6 -8.0 L16.75 -8.05 M10.2 -1.75 L11.15 -2.9 Q11.5 -3.65 11.4 -4.5 11.35 -5.3 10.85 -5.6 L9.75 -5.5 Q9.15 -5.15 8.75 -4.4 8.4 -3.6 8.45 -2.8 8.55 -1.95 9.05 -1.7 L10.2 -1.75 M4.35 -1.5 Q4.95 -1.85 5.3 -2.65 5.65 -3.4 5.55 -4.25 5.5 -5.05 5.0 -5.35 L3.9 -5.25 Q3.3 -4.9 2.9 -4.15 2.55 -3.35 2.6 -2.55 2.7 -1.7 3.2 -1.45 L4.35 -1.5 M6.0 -7.65 Q6.6 -8.0 6.95 -8.8 7.3 -9.55 7.2 -10.4 7.15 -11.2 6.65 -11.5 L5.55 -11.4 Q4.95 -11.05 4.55 -10.3 4.2 -9.5 4.25 -8.7 4.35 -7.85 4.85 -7.6 L6.0 -7.65 M5.05 -14.05 Q5.65 -14.4 6.0 -15.2 6.35 -15.95 6.25 -16.8 6.2 -17.6 5.7 -17.9 L4.6 -17.8 Q4.0 -17.45 3.6 -16.7 3.25 -15.9 3.3 -15.1 3.4 -14.25 3.9 -14.0 L5.05 -14.05 M25.2 -1.65 L26.15 -2.8 Q26.5 -3.55 26.4 -4.4 26.35 -5.2 25.85 -5.5 L24.75 -5.4 Q24.15 -5.05 23.75 -4.3 23.4 -3.5 23.45 -2.7 23.55 -1.85 24.05 -1.6 L25.2 -1.65 M22.1 -7.95 Q22.7 -8.3 23.05 -9.1 23.4 -9.85 23.3 -10.7 23.25 -11.5 22.75 -11.8 L21.65 -11.7 Q21.05 -11.35 20.65 -10.6 20.3 -9.8 20.35 -9.0 20.45 -8.15 20.95 -7.9 L22.1 -7.95 M26.85 -7.8 L27.8 -8.95 Q28.15 -9.7 28.05 -10.55 28.0 -11.35 27.5 -11.65 L26.4 -11.55 Q25.8 -11.2 25.4 -10.45 25.05 -9.65 25.1 -8.85 25.2 -8.0 25.7 -7.75 L26.85 -7.8 M25.9 -14.2 Q26.5 -14.55 26.85 -15.35 27.2 -16.1 27.1 -16.95 27.05 -17.75 26.55 -18.05 L25.45 -17.95 Q24.85 -17.6 24.45 -16.85 24.1 -16.05 24.15 -15.25 24.25 -14.4 24.75 -14.15 L25.9 -14.2" fill="#b1b1b1" fill-rule="evenodd" stroke="none"/>
    <path d="M10.9 -14.3 L9.75 -14.25 Q9.25 -14.5 9.15 -15.35 9.1 -16.15 9.45 -16.95 9.85 -17.7 10.45 -18.05 L11.55 -18.15 Q12.05 -17.85 12.1 -17.05 12.2 -16.2 11.85 -15.45 11.5 -14.65 10.9 -14.3 M15.8 -14.45 L14.65 -14.4 Q14.15 -14.65 14.05 -15.5 14.0 -16.3 14.35 -17.1 14.75 -17.85 15.35 -18.2 L16.45 -18.3 Q16.95 -18.0 17.0 -17.2 17.1 -16.35 16.75 -15.6 L15.8 -14.45 M21.15 -14.35 L20.0 -14.3 Q19.5 -14.55 19.4 -15.4 19.35 -16.2 19.7 -17.0 L20.7 -18.1 21.8 -18.2 Q22.3 -17.9 22.35 -17.1 22.45 -16.25 22.1 -15.5 L21.15 -14.35 M0.0 -19.7 L0.95 -19.7 0.95 -1.0 29.45 -1.0 29.45 -20.45 30.5 -20.5 30.5 0.0 0.0 0.0 0.0 -19.7 M5.05 -14.05 L3.9 -14.0 Q3.4 -14.25 3.3 -15.1 3.25 -15.9 3.6 -16.7 4.0 -17.45 4.6 -17.8 L5.7 -17.9 Q6.2 -17.6 6.25 -16.8 6.35 -15.95 6.0 -15.2 5.65 -14.4 5.05 -14.05 M6.0 -7.65 L4.85 -7.6 Q4.35 -7.85 4.25 -8.7 4.2 -9.5 4.55 -10.3 4.95 -11.05 5.55 -11.4 L6.65 -11.5 Q7.15 -11.2 7.2 -10.4 7.3 -9.55 6.95 -8.8 6.6 -8.0 6.0 -7.65 M4.35 -1.5 L3.2 -1.45 Q2.7 -1.7 2.6 -2.55 2.55 -3.35 2.9 -4.15 3.3 -4.9 3.9 -5.25 L5.0 -5.35 Q5.5 -5.05 5.55 -4.25 5.65 -3.4 5.3 -2.65 4.95 -1.85 4.35 -1.5 M10.2 -1.75 L9.05 -1.7 Q8.55 -1.95 8.45 -2.8 8.4 -3.6 8.75 -4.4 9.15 -5.15 9.75 -5.5 L10.85 -5.6 Q11.35 -5.3 11.4 -4.5 11.5 -3.65 11.15 -2.9 L10.2 -1.75 M16.75 -8.05 L15.6 -8.0 Q15.1 -8.25 15.0 -9.1 14.95 -9.9 15.3 -10.7 15.7 -11.45 16.3 -11.8 L17.4 -11.9 Q17.9 -11.6 17.95 -10.8 18.05 -9.95 17.7 -9.2 L16.75 -8.05 M11.85 -7.9 L10.7 -7.85 Q10.2 -8.1 10.1 -8.95 10.05 -9.75 10.4 -10.55 10.8 -11.3 11.4 -11.65 L12.5 -11.75 Q13.0 -11.45 13.05 -10.65 13.15 -9.8 12.8 -9.05 L11.85 -7.9 M15.1 -1.9 L13.95 -1.85 Q13.45 -2.1 13.35 -2.95 13.3 -3.75 13.65 -4.55 L14.65 -5.65 15.75 -5.75 Q16.25 -5.45 16.3 -4.65 16.4 -3.8 16.05 -3.05 L15.1 -1.9 M20.45 -1.8 L19.3 -1.75 Q18.8 -2.0 18.7 -2.85 18.65 -3.65 19.0 -4.45 19.4 -5.2 20.0 -5.55 L21.1 -5.65 Q21.6 -5.35 21.65 -4.55 21.75 -3.7 21.4 -2.95 21.05 -2.15 20.45 -1.8 M25.9 -14.2 L24.75 -14.15 Q24.25 -14.4 24.15 -15.25 24.1 -16.05 24.45 -16.85 24.85 -17.6 25.45 -17.95 L26.55 -18.05 Q27.05 -17.75 27.1 -16.95 27.2 -16.1 26.85 -15.35 26.5 -14.55 25.9 -14.2 M26.85 -7.8 L25.7 -7.75 Q25.2 -8.0 25.1 -8.85 25.05 -9.65 25.4 -10.45 25.8 -11.2 26.4 -11.55 L27.5 -11.65 Q28.0 -11.35 28.05 -10.55 28.15 -9.7 27.8 -8.95 L26.85 -7.8 M22.1 -7.95 L20.95 -7.9 Q20.45 -8.15 20.35 -9.0 20.3 -9.8 20.65 -10.6 21.05 -11.35 21.65 -11.7 L22.75 -11.8 Q23.25 -11.5 23.3 -10.7 23.4 -9.85 23.05 -9.1 22.7 -8.3 22.1 -7.95 M25.2 -1.65 L24.05 -1.6 Q23.55 -1.85 23.45 -2.7 23.4 -3.5 23.75 -4.3 24.15 -5.05 24.75 -5.4 L25.85 -5.5 Q26.35 -5.2 26.4 -4.4 26.5 -3.55 26.15 -2.8 L25.2 -1.65" fill="#8d8d8d" fill-rule="evenodd" stroke="none"/>
  </g>
</svg>
