<?xml version="1.0" encoding="UTF-8" standalone="no"?>
<svg xmlns:ffdec="https://www.free-decompiler.com/flash" xmlns:xlink="http://www.w3.org/1999/xlink" ffdec:objectType="shape" height="39.1px" width="30.5px" xmlns="http://www.w3.org/2000/svg">
  <g transform="matrix(1.0, 0.0, 0.0, 1.0, 0.0, 39.1)">
    <path d="M11.35 -38.1 L21.45 -38.1 21.7 -38.1 21.7 -1.0 21.65 -1.0 11.15 -1.0 11.1 -1.0 11.1 -38.1 11.35 -38.1" fill="#e2e2e2" fill-rule="evenodd" stroke="none"/>
    <path d="M21.7 -38.1 L29.45 -38.1 29.45 -1.0 21.7 -1.0 21.7 -38.1" fill="#d40004" fill-rule="evenodd" stroke="none"/>
    <path d="M21.45 -38.1 L21.45 -39.1 30.5 -39.1 30.5 0.0 21.65 0.0 21.65 -1.0 21.7 -1.0 29.45 -1.0 29.45 -38.1 21.7 -38.1 21.45 -38.1" fill="#6f0002" fill-rule="evenodd" stroke="none"/>
    <path d="M11.1 -1.0 L0.95 -1.0 0.95 -38.1 11.1 -38.1 11.1 -1.0" fill="#0066ff" fill-rule="evenodd" stroke="none"/>
    <path d="M11.35 -39.1 L11.35 -38.1 11.1 -38.1 0.95 -38.1 0.95 -1.0 11.1 -1.0 11.15 -1.0 11.15 0.0 0.0 0.0 0.0 -39.1 11.35 -39.1" fill="#003366" fill-rule="evenodd" stroke="none"/>
    <path d="M21.45 -39.1 L21.45 -38.1 11.35 -38.1 11.35 -39.1 21.45 -39.1 M21.65 -1.0 L21.65 0.0 11.15 0.0 11.15 -1.0 21.65 -1.0" fill="#666666" fill-rule="evenodd" stroke="none"/>
  </g>
</svg>
