<?xml version="1.0" encoding="UTF-8" standalone="no"?>
<svg xmlns:ffdec="https://www.free-decompiler.com/flash" xmlns:xlink="http://www.w3.org/1999/xlink" ffdec:objectType="shape" height="39.1px" width="40.85px" xmlns="http://www.w3.org/2000/svg">
  <g transform="matrix(1.0, 0.0, 0.0, 1.0, 6.15, 39.1)">
    <path d="M0.95 -38.1 L29.45 -38.1 29.45 -1.0 0.95 -1.0 0.95 -38.1" fill="#333333" fill-rule="evenodd" stroke="none"/>
    <path d="M0.0 -39.1 L30.5 -39.1 30.5 0.0 0.0 0.0 0.0 -39.1 M0.95 -38.1 L0.95 -1.0 29.45 -1.0 29.45 -38.1 0.95 -38.1" fill="#111111" fill-rule="evenodd" stroke="none"/>
    <path d="M24.65 -27.2 L24.55 -28.3 27.75 -30.45 29.2 -31.6 31.75 -34.35 33.25 -36.7 Q35.3 -25.55 34.45 -15.2 L32.85 -5.35 32.5 -7.0 30.55 -14.7 26.5 -7.7 25.35 -14.85 24.35 -13.55 Q23.75 -12.85 23.3 -15.8 L22.9 -19.7 23.45 -20.95 24.2 -15.8 24.95 -16.1 25.6 -16.95 26.8 -10.3 27.6 -11.6 30.65 -16.85 32.65 -10.2 32.85 -8.75 Q34.2 -14.7 33.85 -24.25 33.6 -30.7 32.95 -34.55 31.55 -32.45 29.25 -30.85 26.25 -28.85 24.65 -27.2 M14.15 -26.7 L13.65 -25.55 Q9.95 -29.85 9.1 -31.25 L7.65 -34.75 Q4.9 -31.2 2.7 -27.4 -2.3 -19.05 -4.45 -10.9 L-3.65 -11.9 -1.2 -14.65 Q1.3 -17.3 2.15 -17.45 L3.3 -11.3 3.7 -9.8 8.25 -15.5 8.65 -14.45 8.9 -13.0 9.45 -13.95 12.9 -18.45 13.25 -17.3 12.6 -16.7 8.55 -10.85 7.6 -13.55 4.3 -9.3 2.75 -7.35 1.15 -15.4 -6.15 -7.7 -5.4 -10.85 -1.6 -21.55 Q-0.05 -24.95 3.15 -29.85 5.65 -33.75 7.5 -36.0 L8.25 -36.9 9.8 -32.4 Q11.1 -29.65 13.6 -27.35 L14.15 -26.7" fill="#04392e" fill-rule="evenodd" stroke="none"/>
    <path d="M22.55 -25.5 Q22.45 -26.35 21.95 -26.5 21.45 -26.6 20.9 -26.0 L20.1 -24.35 Q19.8 -23.3 19.95 -22.5 20.05 -21.7 20.6 -21.6 21.05 -21.45 21.55 -22.0 22.15 -22.65 22.45 -23.75 22.75 -24.8 22.55 -25.5 M24.55 -28.3 L24.65 -27.2 24.5 -25.35 24.45 -24.6 24.4 -24.3 23.45 -20.95 22.9 -19.7 21.75 -17.9 21.4 -11.9 19.7 -10.85 19.95 -15.55 19.75 -15.55 19.35 -15.5 18.8 -10.15 16.9 -9.3 17.65 -14.6 17.1 -14.55 16.2 -9.25 14.55 -9.25 14.55 -9.5 15.45 -14.65 Q15.1 -14.55 14.8 -13.75 L14.6 -13.0 13.75 -9.65 12.2 -9.95 12.85 -12.6 13.5 -15.95 13.25 -17.3 12.9 -18.45 12.85 -21.85 13.05 -23.05 13.65 -25.55 14.15 -26.7 14.65 -27.75 Q15.05 -28.7 16.15 -29.95 17.3 -31.35 18.25 -31.9 L22.9 -31.8 23.8 -30.25 24.55 -28.3 M17.55 -23.0 Q17.95 -24.25 17.8 -25.25 17.55 -26.3 17.0 -26.45 16.45 -26.6 15.8 -25.85 15.05 -25.05 14.7 -23.8 14.3 -22.5 14.55 -21.55 14.7 -20.5 15.3 -20.35 15.85 -20.2 16.55 -20.95 17.2 -21.7 17.55 -23.0 M18.35 -17.45 L19.05 -18.25 18.35 -21.25 16.7 -17.8 17.3 -17.3 18.2 -19.75 18.35 -17.45" fill="#e9e9e9" fill-rule="evenodd" stroke="none"/>
    <path d="M13.05 -23.05 L12.85 -21.85 Q9.65 -22.6 6.35 -29.75 4.75 -27.45 -3.65 -11.9 L-1.0 -17.9 Q2.15 -24.35 6.9 -31.4 8.35 -27.6 9.05 -26.3 10.6 -23.8 13.05 -23.05 M24.45 -24.6 L24.5 -25.35 Q27.0 -25.4 28.55 -26.7 L32.25 -31.2 32.65 -22.4 32.65 -10.2 32.5 -20.35 Q32.35 -28.45 32.1 -29.4 31.5 -28.15 28.4 -26.15 25.4 -24.15 24.5 -24.25 L24.45 -24.6 M27.6 -11.6 L26.8 -10.3 27.25 -15.05 Q27.75 -19.05 28.75 -23.8 L28.7 -22.0 27.6 -11.6 M24.95 -16.1 L24.2 -15.8 Q25.0 -22.1 25.45 -22.45 L24.95 -16.1 M9.45 -13.95 L8.9 -13.0 8.65 -14.45 11.15 -20.65 Q11.5 -20.1 9.45 -13.95 M3.7 -9.8 L3.3 -11.3 Q5.3 -17.6 7.75 -23.2 L6.1 -17.05 3.7 -9.8" fill="#11e3b4" fill-rule="evenodd" stroke="none"/>
    <path d="M13.65 -25.55 L13.05 -23.05 Q10.6 -23.8 9.05 -26.3 8.35 -27.6 6.9 -31.4 2.15 -24.35 -1.0 -17.9 L-3.65 -11.9 -4.45 -10.9 Q-2.3 -19.05 2.7 -27.4 4.9 -31.2 7.65 -34.75 L9.1 -31.25 Q9.95 -29.85 13.65 -25.55 M24.5 -25.35 L24.65 -27.2 Q26.25 -28.85 29.25 -30.85 31.55 -32.45 32.95 -34.55 33.6 -30.7 33.85 -24.25 34.2 -14.7 32.85 -8.75 L32.65 -10.2 32.65 -22.4 32.25 -31.2 28.55 -26.7 Q27.0 -25.4 24.5 -25.35" fill="#0b9374" fill-rule="evenodd" stroke="none"/>
    <path d="M22.55 -25.5 Q22.75 -24.8 22.45 -23.75 22.15 -22.65 21.55 -22.0 21.05 -21.45 20.6 -21.6 20.05 -21.7 19.95 -22.5 19.8 -23.3 20.1 -24.35 L20.9 -26.0 Q21.45 -26.6 21.95 -26.5 22.45 -26.35 22.55 -25.5 M17.55 -23.0 Q17.2 -21.7 16.55 -20.95 15.85 -20.2 15.3 -20.35 14.7 -20.5 14.55 -21.55 14.3 -22.5 14.7 -23.8 15.05 -25.05 15.8 -25.85 16.45 -26.6 17.0 -26.45 17.55 -26.3 17.8 -25.25 17.95 -24.25 17.55 -23.0 M18.35 -17.45 L18.2 -19.75 17.3 -17.3 16.7 -17.8 18.35 -21.25 19.05 -18.25 18.35 -17.45" fill="#0c0c0c" fill-rule="evenodd" stroke="none"/>
    <path d="M12.85 -21.85 L12.9 -18.45 9.45 -13.95 Q11.5 -20.1 11.15 -20.65 L8.65 -14.45 8.25 -15.5 3.7 -9.8 6.1 -17.05 7.75 -23.2 Q5.3 -17.6 3.3 -11.3 L2.15 -17.45 Q1.3 -17.3 -1.2 -14.65 L-3.65 -11.9 Q4.75 -27.45 6.35 -29.75 9.65 -22.6 12.85 -21.85 M23.45 -20.95 L24.4 -24.3 24.5 -24.25 Q25.4 -24.15 28.4 -26.15 31.5 -28.15 32.1 -29.4 32.35 -28.45 32.5 -20.35 L32.65 -10.2 30.65 -16.85 27.6 -11.6 28.7 -22.0 28.75 -23.8 Q27.75 -19.05 27.25 -15.05 L26.8 -10.3 25.6 -16.95 24.95 -16.1 25.45 -22.45 Q25.0 -22.1 24.2 -15.8 L23.45 -20.95" fill="#0eb993" fill-rule="evenodd" stroke="none"/>
  </g>
</svg>
