<?xml version="1.0" encoding="UTF-8" standalone="no"?>
<svg xmlns:ffdec="https://www.free-decompiler.com/flash" xmlns:xlink="http://www.w3.org/1999/xlink" ffdec:objectType="shape" height="39.1px" width="30.5px" xmlns="http://www.w3.org/2000/svg">
  <g transform="matrix(1.0, 0.0, 0.0, 1.0, 0.0, 39.1)">
    <path d="M21.6 -38.1 L13.3 -38.1 8.95 -38.1 0.95 -38.1 0.95 -1.0 2.0 -1.0 9.2 -1.0 19.4 -1.0 29.45 -1.0 29.45 -13.35 29.45 -37.3 29.45 -38.1 21.6 -38.1 M0.0 -39.1 L30.5 -39.1 30.5 0.0 0.0 0.0 0.0 -39.1" fill="#764700" fill-rule="evenodd" stroke="none"/>
    <path d="M21.6 -38.1 Q20.75 -35.6 20.7 -33.45 20.85 -29.65 20.3 -26.0 19.85 -22.95 19.25 -21.7 L17.5 -18.7 Q16.2 -16.25 16.2 -14.35 16.2 -10.65 17.85 -10.65 20.0 -10.65 22.15 -16.25 24.4 -22.2 24.6 -29.45 24.6 -30.35 28.5 -35.9 L29.45 -37.3 29.45 -13.35 28.45 -12.9 26.8 -12.1 Q25.45 -12.1 22.75 -9.1 19.4 -5.35 19.4 -1.0 L9.2 -1.0 9.35 -3.6 Q9.35 -10.75 7.6 -15.6 5.8 -20.45 5.8 -21.95 5.8 -24.75 7.4 -26.35 L7.7 -26.3 Q9.25 -26.3 11.3 -31.0 12.7 -34.3 13.3 -38.1 L21.6 -38.1 M2.0 -1.0 L0.95 -1.0 0.95 -38.1 8.95 -38.1 Q8.5 -35.45 7.85 -34.2 L7.8 -34.1 8.3 -33.85 7.6 -34.1 Q6.35 -34.1 4.35 -30.55 2.0 -26.35 2.0 -21.5 2.0 -20.25 2.75 -15.9 L3.5 -10.25 Q3.5 -3.95 2.15 -1.3 L2.0 -1.0" fill="#f5e050" fill-rule="evenodd" stroke="none"/>
    <path d="M29.45 -37.3 L28.5 -35.9 Q24.6 -30.35 24.6 -29.45 24.4 -22.2 22.15 -16.25 20.0 -10.65 17.85 -10.65 16.2 -10.65 16.2 -14.35 16.2 -16.25 17.5 -18.7 L19.25 -21.7 Q19.85 -22.95 20.3 -26.0 20.85 -29.65 20.7 -33.45 20.75 -35.6 21.6 -38.1 L29.45 -38.1 29.45 -37.3 M13.3 -38.1 Q12.7 -34.3 11.3 -31.0 9.25 -26.3 7.7 -26.3 L7.4 -26.35 Q5.8 -24.75 5.8 -21.95 5.8 -20.45 7.6 -15.6 9.35 -10.75 9.35 -3.6 L9.2 -1.0 2.0 -1.0 2.15 -1.3 Q3.5 -3.95 3.5 -10.25 L2.75 -15.9 Q2.0 -20.25 2.0 -21.5 2.0 -26.35 4.35 -30.55 6.35 -34.1 7.6 -34.1 L8.3 -33.85 7.8 -34.1 7.85 -34.2 Q8.5 -35.45 8.95 -38.1 L13.3 -38.1 M19.4 -1.0 Q19.4 -5.35 22.75 -9.1 25.45 -12.1 26.8 -12.1 L28.45 -12.9 29.45 -13.35 29.45 -1.0 19.4 -1.0" fill="#fbfcf8" fill-rule="evenodd" stroke="none"/>
  </g>
</svg>
