<?xml version="1.0" encoding="UTF-8" standalone="no"?>
<svg xmlns:ffdec="https://www.free-decompiler.com/flash" xmlns:xlink="http://www.w3.org/1999/xlink" ffdec:objectType="shape" height="18.65px" width="108.65px" xmlns="http://www.w3.org/2000/svg">
  <g transform="matrix(1.0, 0.0, 0.0, 1.0, 1.55, 18.3)">
    <path d="M12.55 -12.75 L18.25 -12.8 18.7 -13.3 18.4 -13.65 4.7 -15.15 Q3.15 -15.15 3.15 -14.7 3.4 -14.1 3.25 -13.8 L2.85 -12.2 3.25 -11.8 Q3.6 -12.15 4.7 -12.75 L7.05 -12.75 5.45 -11.6 Q3.65 -9.8 3.65 -7.25 3.65 -4.75 5.4 -2.95 L5.45 -2.9 5.8 -2.55 2.55 -2.7 Q0.45 -8.65 2.25 -16.55 L19.5 -14.05 Q28.65 -8.95 41.9 -7.8 55.15 -6.65 64.1 -10.4 71.95 -13.75 72.1 -14.1 L75.4 -14.15 78.85 -12.2 80.05 -11.85 82.75 -11.2 102.05 -2.05 Q57.35 -1.05 13.5 -2.3 L14.1 -2.85 14.15 -2.9 Q15.95 -4.7 15.95 -7.25 15.95 -9.8 14.15 -11.6 L12.55 -12.75" fill="#ff3399" fill-rule="evenodd" stroke="none"/>
    <path d="M13.5 -2.3 Q57.35 -1.05 102.05 -2.05 L105.2 -0.55 0.35 -0.35 0.0 -1.45 -0.15 -2.05 Q-2.15 -9.4 0.45 -17.55 L19.65 -14.65 Q28.65 -10.95 37.75 -9.85 54.45 -7.85 71.5 -14.6 L72.0 -14.8 75.15 -14.8 82.75 -11.2 80.05 -11.85 78.85 -12.2 75.4 -14.15 72.1 -14.1 Q71.95 -13.75 64.1 -10.4 55.15 -6.65 41.9 -7.8 28.65 -8.95 19.5 -14.05 L2.25 -16.55 Q0.45 -8.65 2.55 -2.7 L5.8 -2.55 6.5 -2.05 Q7.95 -1.1 9.8 -1.1 11.5 -1.1 12.9 -1.9 L13.15 -2.05 13.5 -2.3" fill="#d92c83" fill-rule="evenodd" stroke="none"/>
    <path d="M102.05 -2.05 L82.75 -11.2 75.15 -14.8 72.0 -14.8 71.5 -14.6 Q54.45 -7.85 37.75 -9.85 28.65 -10.95 19.65 -14.65 L0.45 -17.55 Q-2.15 -9.4 -0.15 -2.05 L0.0 -1.45 0.35 -0.35 105.2 -0.55 102.05 -2.05 M75.25 -15.5 L75.4 -15.45 106.9 -0.5 107.1 -0.35 107.1 -0.1 107.0 0.1 106.75 0.15 0.0 0.35 -0.25 0.25 -0.35 0.0 Q-2.75 -6.55 -0.25 -17.95 L-0.2 -18.15 -0.05 -18.25 0.15 -18.3 19.75 -15.35 19.85 -15.3 Q28.8 -11.65 37.85 -10.55 54.45 -8.6 71.5 -15.35 L71.8 -15.45 71.9 -15.5 75.25 -15.5" fill="#611139" fill-rule="evenodd" stroke="none"/>
    <path d="M7.05 -12.75 L4.7 -12.75 Q3.6 -12.15 3.25 -11.8 L2.85 -12.2 3.25 -13.8 Q3.4 -14.1 3.15 -14.7 3.15 -15.15 4.7 -15.15 L18.4 -13.65 18.7 -13.3 18.25 -12.8 12.55 -12.75 Q11.3 -13.4 9.8 -13.4 8.3 -13.4 7.05 -12.75" fill="#f888c0" fill-rule="evenodd" stroke="none"/>
    <path d="M12.55 -12.75 L14.15 -11.6 Q15.95 -9.8 15.95 -7.25 15.95 -4.7 14.15 -2.9 L14.1 -2.85 13.9 -2.95 5.4 -2.95 Q3.65 -4.75 3.65 -7.25 3.65 -9.8 5.45 -11.6 L7.05 -12.75 Q8.3 -13.4 9.8 -13.4 11.3 -13.4 12.55 -12.75 M12.9 -1.9 L12.8 -2.05 13.15 -2.05 12.9 -1.9" fill="#ffff33" fill-rule="evenodd" stroke="none"/>
    <path d="M14.1 -2.85 L13.5 -2.3 13.15 -2.05 12.8 -2.05 12.9 -1.9 Q11.5 -1.1 9.8 -1.1 7.95 -1.1 6.5 -2.05 L5.8 -2.55 5.45 -2.9 5.4 -2.95 13.9 -2.95 14.1 -2.85" fill="#e2e227" fill-rule="evenodd" stroke="none"/>
  </g>
</svg>
