<?xml version="1.0" encoding="UTF-8" standalone="no"?>
<svg xmlns:ffdec="https://www.free-decompiler.com/flash" xmlns:xlink="http://www.w3.org/1999/xlink" ffdec:objectType="shape" height="138.15px" width="61.4px" xmlns="http://www.w3.org/2000/svg">
  <g transform="matrix(1.0, 0.0, 0.0, 1.0, 30.3, 136.15)">
    <path d="M15.85 -36.35 L13.4 -34.95 9.75 -33.0 8.15 -32.45 8.25 -32.3 Q4.1 -30.5 -0.25 -29.55 L-2.6 -31.35 Q-7.0 -34.7 -7.25 -36.2 -6.2 -36.95 -1.15 -37.65 L9.85 -38.6 8.8 -38.8 8.85 -38.8 Q7.1 -39.35 5.85 -41.3 4.7 -43.0 4.5 -44.55 L5.25 -44.65 Q10.85 -42.2 13.1 -40.45 L14.85 -38.8 14.8 -38.8 Q15.75 -37.65 15.85 -36.35 M4.95 -112.9 L5.05 -112.75 5.2 -111.25 Q5.2 -106.75 3.1 -103.85 1.45 -101.5 -0.15 -101.5 -0.7 -101.5 -1.05 -101.85 -1.45 -102.25 -1.45 -102.95 -1.45 -104.9 0.9 -109.0 3.25 -113.05 4.2 -113.05 L4.95 -112.9 M-14.0 -87.05 L-4.2 -87.85 Q-2.65 -88.1 3.0 -91.65 L8.5 -95.1 9.1 -94.95 9.1 -94.6 Q9.2 -93.05 6.9 -89.95 4.5 -86.75 2.8 -86.45 3.6 -83.9 -1.2 -82.4 -5.6 -81.1 -12.9 -81.1 L-15.85 -81.2 -14.4 -87.0 -15.0 -86.9 -14.1 -87.05 -14.0 -87.05 M11.05 -50.15 L1.7 -49.45 Q-2.1 -49.45 -3.65 -50.2 -4.8 -50.75 -4.15 -53.8 -3.55 -56.9 5.7 -55.0 L10.45 -54.5 Q13.7 -50.75 11.05 -50.15" fill="#ffffff" fill-rule="evenodd" stroke="none"/>
    <path d="M19.6 -38.65 L15.85 -36.35 Q15.75 -37.65 14.8 -38.8 L14.85 -38.8 13.1 -40.45 Q10.85 -42.2 5.25 -44.65 L4.5 -44.55 Q4.7 -43.0 5.85 -41.3 7.1 -39.35 8.85 -38.8 L8.8 -38.8 9.85 -38.6 -1.15 -37.65 Q-6.2 -36.95 -7.25 -36.2 -7.0 -34.7 -2.6 -31.35 L-0.25 -29.55 -2.4 -29.15 Q-4.4 -30.8 -8.35 -32.9 -11.25 -34.5 -11.2 -36.3 -11.2 -36.85 -8.8 -37.9 L-6.55 -38.8 -6.5 -38.8 2.05 -41.6 Q-5.75 -46.0 -7.1 -47.0 -8.55 -48.0 -8.55 -53.05 -8.55 -54.45 -1.95 -59.0 5.3 -63.95 5.95 -64.95 L8.65 -71.0 Q11.35 -76.8 12.0 -76.8 L13.05 -76.5 13.1 -75.35 Q13.1 -73.6 11.9 -70.05 L7.2 -57.75 11.6 -58.75 14.55 -59.35 Q16.1 -59.35 17.05 -57.25 L16.75 -56.75 Q16.45 -56.1 16.45 -55.15 16.45 -54.2 16.75 -53.55 17.0 -52.9 17.4 -52.9 17.8 -52.9 18.05 -53.45 L18.35 -50.4 18.3 -50.4 Q17.9 -50.4 17.65 -49.75 17.35 -49.1 17.35 -48.15 L17.4 -47.45 16.8 -47.3 Q13.0 -46.55 11.05 -45.85 11.5 -45.35 17.25 -40.85 L18.5 -39.8 18.55 -39.2 19.25 -39.0 19.45 -38.8 19.6 -38.65 M9.75 -33.0 L8.25 -32.3 8.15 -32.45 9.75 -33.0 M-10.9 -100.05 L-6.8 -103.25 Q-5.5 -103.85 -5.15 -104.3 L-3.9 -105.95 2.1 -112.35 Q4.75 -115.5 6.1 -119.35 L7.0 -117.7 Q8.1 -115.5 8.7 -113.25 L7.9 -113.3 7.8 -112.55 Q7.8 -110.45 9.4 -109.0 L9.25 -106.05 9.0 -106.15 8.95 -106.1 9.1 -105.45 Q7.55 -98.6 -2.45 -98.6 L-11.3 -99.0 -10.9 -100.05 M4.95 -112.9 L4.2 -113.05 Q3.25 -113.05 0.9 -109.0 -1.45 -104.9 -1.45 -102.95 -1.45 -102.25 -1.05 -101.85 -0.7 -101.5 -0.15 -101.5 1.45 -101.5 3.1 -103.85 5.2 -106.75 5.2 -111.25 L5.05 -112.75 4.95 -112.9 M-14.0 -87.05 L-13.65 -88.0 -13.1 -89.55 -3.25 -90.7 Q-1.75 -90.85 4.9 -95.6 L11.3 -100.35 11.9 -100.2 11.85 -100.05 11.9 -98.8 Q11.6 -99.4 11.2 -99.4 10.8 -99.4 10.5 -98.75 10.2 -98.1 10.2 -97.15 10.2 -96.2 10.5 -95.55 10.8 -94.9 11.2 -94.9 11.6 -94.9 11.9 -95.55 L12.0 -95.75 12.15 -94.75 Q12.0 -92.6 9.3 -86.6 6.65 -80.7 2.85 -79.0 -0.95 -77.25 -11.5 -77.25 L-16.05 -77.65 -15.9 -78.65 -15.6 -81.15 -16.65 -81.3 -16.3 -81.25 -15.85 -81.2 -12.9 -81.1 Q-5.6 -81.1 -1.2 -82.4 3.6 -83.9 2.8 -86.45 4.5 -86.75 6.9 -89.95 9.2 -93.05 9.1 -94.6 L9.1 -94.95 8.5 -95.1 3.0 -91.65 Q-2.65 -88.1 -4.2 -87.85 L-14.0 -87.05 M11.05 -50.15 Q13.7 -50.75 10.45 -54.5 L5.7 -55.0 Q-3.55 -56.9 -4.15 -53.8 -4.8 -50.75 -3.65 -50.2 -2.1 -49.45 1.7 -49.45 L11.05 -50.15 M-2.2 -92.65 L-9.95 -92.0 -13.2 -92.15 -12.7 -94.4 -9.7 -94.25 -6.3 -94.85 -2.55 -95.5 Q-1.85 -95.5 -1.5 -95.15 L-0.8 -93.85 Q-1.45 -92.9 -2.2 -92.65" fill="#e0e0e0" fill-rule="evenodd" stroke="none"/>
    <path d="M24.4 -37.5 Q22.4 -38.3 20.5 -39.25 L19.6 -38.65 19.45 -38.8 19.25 -39.0 19.75 -39.05 Q20.4 -39.8 20.1 -41.15 L19.95 -41.65 22.85 -42.35 24.0 -38.8 23.95 -38.8 24.4 -37.5 M-2.4 -29.15 L-5.75 -28.75 Q-9.3 -28.55 -12.2 -29.9 -10.0 -30.0 -8.7 -31.2 L-8.85 -31.8 -10.85 -32.4 -13.0 -32.85 -14.55 -32.45 -14.9 -32.35 -14.6 -32.45 -14.6 -32.55 -13.85 -36.8 -12.2 -37.4 Q-9.95 -38.15 -8.3 -38.8 -6.15 -39.75 -5.2 -40.6 L-6.3 -41.75 -9.6 -41.5 -12.8 -41.15 -12.7 -42.75 -11.2 -51.15 Q-10.05 -57.7 -10.0 -60.9 -6.15 -61.4 -2.35 -64.25 2.8 -68.05 2.8 -72.55 2.8 -73.75 2.35 -74.5 L-1.65 -73.6 -4.7 -73.1 -17.8 -73.65 Q-18.3 -75.8 -18.2 -78.0 L-18.15 -78.4 Q-18.05 -80.25 -17.6 -82.1 L-17.25 -83.55 -16.4 -86.3 -15.75 -88.55 -15.55 -89.15 -14.8 -92.1 -14.75 -92.35 -14.2 -94.35 -12.6 -99.05 -12.0 -99.35 -11.95 -99.35 -10.9 -100.05 -11.3 -99.0 -2.45 -98.6 Q7.55 -98.6 9.1 -105.45 L9.65 -103.3 Q9.95 -102.55 10.6 -101.9 L11.25 -102.5 11.8 -102.9 12.0 -103.65 Q12.0 -104.95 9.25 -106.05 L9.4 -109.0 9.6 -108.8 9.7 -108.65 Q9.7 -110.35 8.7 -113.25 8.1 -115.5 7.0 -117.7 L6.1 -119.35 6.7 -121.25 Q7.25 -123.55 7.15 -125.75 9.05 -121.05 11.3 -111.5 13.55 -102.0 15.15 -92.4 15.15 -90.4 12.85 -85.25 L12.5 -85.25 12.55 -84.65 10.1 -79.8 Q10.1 -79.35 10.4 -79.1 L11.2 -78.6 Q11.9 -79.1 13.45 -81.65 L13.5 -81.75 14.3 -80.9 15.55 -83.8 15.0 -84.35 15.85 -86.35 15.95 -84.9 Q15.95 -80.45 15.15 -75.6 L14.95 -76.25 14.2 -78.4 13.65 -77.2 13.65 -76.0 Q13.9 -75.05 14.95 -74.45 L14.85 -74.05 13.7 -68.45 Q13.7 -67.7 13.9 -67.55 L14.8 -67.35 15.0 -67.55 15.15 -67.3 15.7 -66.9 16.3 -67.3 16.45 -68.25 16.3 -69.95 16.4 -70.25 Q17.4 -72.65 17.8 -74.5 L17.9 -73.3 Q17.65 -68.95 19.8 -57.95 L22.4 -45.05 Q17.85 -44.8 17.85 -42.8 17.85 -41.8 18.15 -41.75 L18.3 -41.7 18.5 -39.8 17.25 -40.85 Q11.5 -45.35 11.05 -45.85 13.0 -46.55 16.8 -47.3 L17.4 -47.45 Q17.45 -46.95 17.65 -46.55 17.9 -45.9 18.3 -45.9 18.7 -45.9 19.0 -46.55 L19.25 -48.15 19.0 -49.75 18.35 -50.4 18.05 -53.45 18.1 -53.55 18.35 -55.15 18.1 -56.75 17.4 -57.4 17.05 -57.25 Q16.1 -59.35 14.55 -59.35 L11.6 -58.75 7.2 -57.75 11.9 -70.05 Q13.1 -73.6 13.1 -75.35 L13.05 -76.5 12.0 -76.8 Q11.35 -76.8 8.65 -71.0 L5.95 -64.95 Q5.3 -63.95 -1.95 -59.0 -8.55 -54.45 -8.55 -53.05 -8.55 -48.0 -7.1 -47.0 -5.75 -46.0 2.05 -41.6 L-6.5 -38.8 -6.55 -38.8 -8.8 -37.9 Q-11.2 -36.85 -11.2 -36.3 -11.25 -34.5 -8.35 -32.9 -4.4 -30.8 -2.4 -29.15 M-17.35 -33.95 L-17.45 -33.9 -17.3 -34.15 -17.35 -33.95 M-15.35 -107.15 L-15.35 -104.15 -15.35 -104.1 Q-15.3 -101.4 -14.2 -99.15 L-14.0 -98.95 -13.8 -98.9 -14.05 -98.25 -17.15 -98.25 -17.45 -97.65 -17.7 -97.7 -17.35 -98.95 -17.4 -99.35 -17.55 -99.5 Q-18.95 -98.05 -19.3 -97.05 -18.05 -96.4 -14.75 -96.25 L-15.2 -94.85 -15.3 -94.55 -15.8 -92.65 -19.95 -93.0 -20.85 -93.15 -21.1 -92.55 Q-21.1 -91.0 -16.45 -90.35 L-16.7 -89.55 -16.85 -88.9 -18.35 -84.65 Q-19.3 -82.15 -19.35 -79.45 L-19.1 -73.85 -21.2 -74.4 Q-25.8 -76.2 -25.8 -82.95 -25.8 -88.9 -18.7 -101.5 L-15.35 -107.15 M-6.8 -103.25 L-4.4 -105.5 -3.9 -105.95 -5.15 -104.3 Q-5.5 -103.85 -6.8 -103.25 M11.9 -98.8 L11.85 -100.05 11.9 -100.2 11.3 -100.35 4.9 -95.6 Q-1.75 -90.85 -3.25 -90.7 L-13.1 -89.55 -13.65 -88.0 -14.0 -87.05 -14.1 -87.05 -15.0 -86.9 -14.4 -87.0 -15.85 -81.2 -16.3 -81.25 -16.65 -81.3 -15.6 -81.15 -15.9 -78.65 -16.05 -77.65 -11.5 -77.25 Q-0.95 -77.25 2.85 -79.0 6.65 -80.7 9.3 -86.6 12.0 -92.6 12.15 -94.75 L12.0 -95.75 12.2 -97.15 11.9 -98.75 11.9 -98.8 M12.05 -92.4 Q11.7 -92.35 11.55 -91.8 L11.45 -91.25 Q11.5 -89.0 11.95 -88.25 L12.0 -88.45 12.7 -88.3 13.4 -87.95 Q13.45 -90.1 13.1 -90.9 L12.05 -92.4 M15.55 -62.15 Q15.55 -61.2 15.85 -60.55 16.1 -59.9 16.5 -59.9 16.9 -59.9 17.2 -60.55 L17.45 -62.15 17.2 -63.75 16.5 -64.4 Q16.1 -64.4 15.85 -63.75 15.55 -63.1 15.55 -62.15 M-2.2 -92.65 Q-1.45 -92.9 -0.8 -93.85 L-1.5 -95.15 Q-1.85 -95.5 -2.55 -95.5 L-6.3 -94.85 -9.7 -94.25 -12.7 -94.4 -13.2 -92.15 -9.95 -92.0 -2.2 -92.65 M-8.55 -98.35 L-11.6 -98.2 -11.8 -97.1 Q-11.8 -96.3 -12.1 -95.4 L-12.95 -95.35 Q-6.85 -95.5 -5.45 -97.6 -5.75 -97.9 -6.75 -98.1 L-8.55 -98.35 M-15.3 -58.8 L-15.2 -59.45 -15.25 -58.25 -15.3 -58.8" fill="#b4b4b4" fill-rule="evenodd" stroke="none"/>
    <path d="M7.15 -125.75 L6.5 -129.65 Q6.1 -131.15 5.4 -132.15 L5.0 -133.2 5.8 -132.65 Q7.25 -131.3 8.6 -129.05 L10.45 -125.9 12.95 -121.2 Q14.55 -117.9 15.8 -114.4 18.6 -106.9 19.95 -98.55 L20.9 -90.7 22.65 -69.8 22.85 -67.7 23.4 -64.65 23.45 -64.1 23.5 -63.95 Q24.55 -56.6 25.85 -49.25 26.7 -43.95 27.85 -38.8 L28.6 -36.0 24.4 -37.5 23.95 -38.8 24.0 -38.8 22.85 -42.35 19.95 -41.65 20.1 -41.15 Q20.4 -39.8 19.75 -39.05 L19.25 -39.0 18.55 -39.2 18.5 -39.8 18.3 -41.7 18.15 -41.75 Q17.85 -41.8 17.85 -42.8 17.85 -44.8 22.4 -45.05 L19.8 -57.95 Q17.65 -68.95 17.9 -73.3 L17.8 -74.5 Q17.4 -72.65 16.4 -70.25 L16.3 -69.95 16.45 -68.25 16.3 -67.3 15.7 -66.9 15.15 -67.3 15.0 -67.55 14.8 -67.35 13.9 -67.55 Q13.7 -67.7 13.7 -68.45 L14.85 -74.05 14.95 -74.45 Q13.9 -75.05 13.65 -76.0 L13.65 -77.2 14.2 -78.4 14.95 -76.25 15.15 -75.6 Q15.95 -80.45 15.95 -84.9 L15.85 -86.35 15.0 -84.35 15.55 -83.8 14.3 -80.9 13.5 -81.75 13.45 -81.65 Q11.9 -79.1 11.2 -78.6 L10.4 -79.1 Q10.1 -79.35 10.1 -79.8 L12.55 -84.65 12.5 -85.25 12.85 -85.25 Q15.15 -90.4 15.15 -92.4 13.55 -102.0 11.3 -111.5 9.05 -121.05 7.15 -125.75 M-12.2 -29.9 Q-14.6 -31.0 -16.55 -33.15 L-12.35 -57.6 -12.3 -57.9 -11.85 -60.75 Q-11.7 -62.7 -12.0 -63.8 -12.6 -65.65 -14.45 -67.55 -16.55 -69.7 -17.5 -72.55 L-17.8 -73.65 -4.7 -73.1 -1.65 -73.6 2.35 -74.5 Q2.8 -73.75 2.8 -72.55 2.8 -68.05 -2.35 -64.25 -6.15 -61.4 -10.0 -60.9 -10.05 -57.7 -11.2 -51.15 L-12.7 -42.75 -12.8 -41.15 -9.6 -41.5 -6.3 -41.75 -5.2 -40.6 Q-6.15 -39.75 -8.3 -38.8 -9.95 -38.15 -12.2 -37.4 L-13.85 -36.8 -14.6 -32.55 -14.6 -32.45 -14.9 -32.35 -14.55 -32.45 -13.0 -32.85 -10.85 -32.4 -8.85 -31.8 -8.7 -31.2 Q-10.0 -30.0 -12.2 -29.9 M-17.45 -33.9 L-21.6 -31.9 -20.5 -36.95 -20.4 -37.5 -20.1 -38.8 -19.8 -40.85 -19.7 -41.55 Q-18.85 -47.75 -18.45 -53.15 L-18.25 -56.6 -17.75 -63.95 -17.75 -64.0 -17.7 -64.45 -17.7 -64.55 -17.7 -64.65 -17.7 -65.05 -18.3 -65.35 -18.95 -65.7 -19.05 -65.75 Q-20.4 -66.45 -21.5 -67.25 L-22.9 -68.3 Q-27.55 -72.15 -28.55 -77.8 -29.9 -86.05 -23.5 -98.1 L-14.6 -115.15 Q-15.25 -111.2 -15.35 -107.15 L-18.7 -101.5 Q-25.8 -88.9 -25.8 -82.95 -25.8 -76.2 -21.2 -74.4 L-19.1 -73.85 -19.1 -73.75 Q-18.7 -70.65 -16.9 -68.3 L-13.95 -64.6 -13.35 -63.75 Q-13.1 -63.5 -13.0 -62.45 L-17.3 -34.15 -17.45 -33.9 M9.4 -109.0 Q7.8 -110.45 7.8 -112.55 L7.9 -113.3 8.7 -113.25 Q9.7 -110.35 9.7 -108.65 L9.6 -108.8 9.4 -109.0 M9.25 -106.05 Q12.0 -104.95 12.0 -103.65 L11.8 -102.9 11.25 -102.5 10.6 -101.9 Q9.95 -102.55 9.65 -103.3 L9.1 -105.45 8.95 -106.1 9.0 -106.15 9.25 -106.05 M12.0 -95.75 L11.9 -95.55 Q11.6 -94.9 11.2 -94.9 10.8 -94.9 10.5 -95.55 10.2 -96.2 10.2 -97.15 10.2 -98.1 10.5 -98.75 10.8 -99.4 11.2 -99.4 11.6 -99.4 11.9 -98.8 L11.9 -98.75 12.2 -97.15 12.0 -95.75 M12.05 -92.4 L13.1 -90.9 Q13.45 -90.1 13.4 -87.95 L12.7 -88.3 12.0 -88.45 11.95 -88.25 Q11.5 -89.0 11.45 -91.25 L11.55 -91.8 Q11.7 -92.35 12.05 -92.4 M17.05 -57.25 L17.4 -57.4 18.1 -56.75 18.35 -55.15 18.1 -53.55 18.05 -53.45 Q17.8 -52.9 17.4 -52.9 17.0 -52.9 16.75 -53.55 16.45 -54.2 16.45 -55.15 16.45 -56.1 16.75 -56.75 L17.05 -57.25 M18.35 -50.4 L19.0 -49.75 19.25 -48.15 19.0 -46.55 Q18.7 -45.9 18.3 -45.9 17.9 -45.9 17.65 -46.55 17.45 -46.95 17.4 -47.45 L17.35 -48.15 Q17.35 -49.1 17.65 -49.75 17.9 -50.4 18.3 -50.4 L18.35 -50.4 M15.55 -62.15 Q15.55 -63.1 15.85 -63.75 16.1 -64.4 16.5 -64.4 L17.2 -63.75 17.45 -62.15 17.2 -60.55 Q16.9 -59.9 16.5 -59.9 16.1 -59.9 15.85 -60.55 15.55 -61.2 15.55 -62.15 M-14.75 -96.25 Q-18.05 -96.4 -19.3 -97.05 -18.95 -98.05 -17.55 -99.5 L-17.4 -99.35 -17.35 -98.95 -17.7 -97.7 -17.45 -97.65 -17.15 -98.25 -14.05 -98.25 -14.75 -96.25 M-8.55 -98.35 L-6.75 -98.1 Q-5.75 -97.9 -5.45 -97.6 -6.85 -95.5 -12.95 -95.35 L-12.1 -95.4 Q-11.8 -96.3 -11.8 -97.1 L-11.6 -98.2 -8.55 -98.35 M-15.8 -92.65 L-16.45 -90.35 Q-21.1 -91.0 -21.1 -92.55 L-20.85 -93.15 -19.95 -93.0 -15.8 -92.65 M-15.3 -58.8 L-15.25 -58.25 -15.2 -59.45 -15.3 -58.8" fill="#8a8a8a" fill-rule="evenodd" stroke="none"/>
    <path d="M4.1 -132.1 L3.7 -132.4 3.65 -132.45 Q0.4 -134.85 -3.05 -132.9 L-4.75 -131.75 Q-6.35 -130.6 -7.6 -129.05 L-8.0 -128.55 -8.8 -127.4 Q-11.5 -123.35 -12.8 -118.7 L-13.45 -115.9 Q-14.1 -112.45 -14.25 -108.9 L-14.35 -104.15 Q-14.3 -101.9 -13.45 -99.95 L-13.4 -99.9 -12.5 -100.2 -12.1 -100.45 -10.35 -101.7 -10.0 -101.95 Q-7.35 -103.9 -5.1 -106.2 L-1.65 -109.7 1.35 -113.0 Q4.1 -116.3 5.4 -120.4 L5.75 -121.5 Q6.6 -125.15 5.7 -128.7 L5.55 -129.35 5.3 -130.15 Q4.85 -131.35 4.1 -132.1 M24.4 -37.5 L28.6 -36.0 27.85 -38.8 Q26.7 -43.95 25.85 -49.25 24.55 -56.6 23.5 -63.95 L23.45 -64.1 23.4 -64.65 22.85 -67.7 22.65 -69.8 20.9 -90.7 19.95 -98.55 Q18.6 -106.9 15.8 -114.4 14.55 -117.9 12.95 -121.2 L10.45 -125.9 8.6 -129.05 Q7.25 -131.3 5.8 -132.65 L5.0 -133.2 5.4 -132.15 Q6.1 -131.15 6.5 -129.65 L7.15 -125.75 Q7.25 -123.55 6.7 -121.25 L6.1 -119.35 Q4.75 -115.5 2.1 -112.35 L-3.9 -105.95 -4.4 -105.5 -6.8 -103.25 -10.9 -100.05 -11.95 -99.35 -12.0 -99.35 -12.6 -99.05 -13.75 -98.9 -13.8 -98.9 -14.0 -98.95 -14.2 -99.15 Q-15.3 -101.4 -15.35 -104.1 L-15.35 -104.15 -15.35 -107.15 Q-15.25 -111.2 -14.6 -115.15 L-23.5 -98.1 Q-29.9 -86.05 -28.55 -77.8 -27.55 -72.15 -22.9 -68.3 L-21.5 -67.25 Q-20.4 -66.45 -19.05 -65.75 L-18.95 -65.7 -18.3 -65.35 -17.7 -65.05 -17.7 -64.65 -17.7 -64.55 -17.7 -64.45 -17.75 -64.0 -17.75 -63.95 -18.25 -56.6 -18.45 -53.15 Q-18.85 -47.75 -19.7 -41.55 L-19.8 -40.85 -20.1 -38.8 -20.4 -37.5 -20.5 -36.95 -21.6 -31.9 -17.45 -33.9 -17.35 -33.95 -17.25 -34.0 -16.55 -33.15 Q-14.6 -31.0 -12.2 -29.9 -9.3 -28.55 -5.75 -28.75 L-2.4 -29.15 -0.25 -29.55 Q4.1 -30.5 8.25 -32.3 L9.75 -33.0 13.4 -34.95 15.85 -36.35 19.6 -38.65 20.5 -39.25 Q22.4 -38.3 24.4 -37.5 M14.6 -121.2 Q21.1 -107.35 22.4 -90.8 L22.7 -87.4 23.2 -81.85 24.3 -68.8 24.4 -67.85 24.85 -64.95 24.95 -64.3 25.0 -63.95 27.35 -49.5 Q27.9 -46.15 28.6 -42.85 L29.2 -39.7 29.4 -38.8 30.25 -35.55 30.4 -35.1 31.1 -32.55 29.45 -33.0 29.05 -33.15 25.35 -34.45 20.9 -36.4 19.75 -37.0 Q18.1 -35.25 16.1 -34.3 12.65 -32.55 9.05 -31.15 5.15 -29.65 1.15 -28.5 L0.0 -28.2 Q-3.7 -27.2 -7.05 -27.45 -10.6 -27.75 -13.75 -29.5 L-16.8 -31.65 -17.65 -32.4 -17.75 -32.5 -23.7 -29.85 -23.4 -31.05 -22.2 -36.05 -21.65 -38.75 -21.65 -38.8 -21.2 -41.75 -21.1 -42.3 -20.2 -50.5 -19.75 -56.7 -19.7 -57.3 -19.55 -60.25 -19.3 -63.95 -19.3 -64.2 -19.5 -64.3 -21.85 -65.65 -23.25 -66.65 Q-28.95 -71.0 -30.0 -77.55 -31.5 -86.25 -24.85 -98.8 L-13.25 -121.2 -12.55 -122.55 -10.65 -126.3 -10.25 -127.25 -8.75 -130.5 Q-6.85 -134.7 -1.85 -135.8 L-0.35 -136.05 Q5.85 -136.85 10.15 -129.55 14.4 -122.3 14.6 -121.2" fill="#464646" fill-rule="evenodd" stroke="none"/>
    <path d="M-16.55 -33.15 L-17.25 -34.0 -17.35 -33.95 -17.3 -34.15 -13.0 -62.45 Q-13.1 -63.5 -13.35 -63.75 L-13.95 -64.6 -16.9 -68.3 Q-18.7 -70.65 -19.1 -73.75 L-19.1 -73.85 -19.35 -79.45 Q-19.3 -82.15 -18.35 -84.65 L-16.85 -88.9 -16.7 -89.55 -16.45 -90.35 -15.8 -92.65 -15.3 -94.55 -15.2 -94.85 -14.75 -96.25 -14.05 -98.25 -13.8 -98.9 -13.75 -98.9 -12.6 -99.05 -14.2 -94.35 -14.75 -92.35 -14.8 -92.1 -15.55 -89.15 -15.75 -88.55 -16.4 -86.3 -17.25 -83.55 -17.6 -82.1 Q-18.05 -80.25 -18.15 -78.4 L-18.2 -78.0 Q-18.3 -75.8 -17.8 -73.65 L-17.5 -72.55 Q-16.55 -69.7 -14.45 -67.55 -12.6 -65.65 -12.0 -63.8 -11.7 -62.7 -11.85 -60.75 L-12.3 -57.9 -12.35 -57.6 -16.55 -33.15" fill="#616161" fill-rule="evenodd" stroke="none"/>
    <path d="M-12.7 -32.65 L-12.7 -32.7 -12.15 -32.15 -11.6 -31.3 -11.55 -31.25 -10.85 -30.1 -11.0 -27.35 -11.25 -27.65 -11.65 -28.2 -11.7 -28.35 -11.75 -28.55 -12.75 -30.0 -12.95 -30.4 -12.7 -32.65 M-5.4 -9.35 L-4.5 -4.25 -4.4 -3.65 -4.3 -3.45 -4.8 -4.25 -6.1 -6.3 -6.15 -7.8 -6.4 -11.25 -5.4 -9.35 M-19.25 -9.25 L-20.95 -7.85 -21.75 -7.05 -21.45 -9.6 -20.8 -10.15 -20.55 -10.2 -20.4 -10.4 -19.8 -10.85 -19.05 -11.55 -19.25 -9.25 M-22.9 -26.75 L-22.0 -31.6 -21.2 -29.05 -21.35 -28.45 -21.4 -28.3 -21.4 -28.25 -21.45 -28.05 -21.45 -27.8 -21.5 -27.8 -22.25 -24.7 -22.2 -24.5 -22.3 -24.25 -22.9 -26.75 M-21.7 -40.6 L-21.5 -41.1 -21.45 -41.3 -21.1 -41.9 -20.65 -42.4 -20.35 -42.1 -20.5 -40.4 -20.15 -39.25 -21.7 -40.6" fill="#4a4a4a" fill-rule="evenodd" stroke="none"/>
    <path d="M-9.65 -37.6 L-8.85 -37.55 -10.15 -35.75 -11.25 -35.95 -10.95 -36.1 -9.65 -37.6 M-20.35 -42.1 L-19.4 -41.25 -20.15 -39.35 -20.15 -39.25 -20.5 -40.4 -20.35 -42.1" fill="#737373" fill-rule="evenodd" stroke="none"/>
    <path d="M-16.7 -42.35 L-15.4 -41.85 -14.25 -41.25 -14.2 -41.2 -14.1 -41.2 -13.95 -41.1 -14.0 -41.1 -13.85 -41.0 -13.6 -40.75 -11.85 -39.55 -11.25 -39.2 -11.25 -39.1 Q-11.1 -38.35 -11.25 -37.8 -11.6 -36.6 -13.2 -36.25 L-13.25 -36.25 -13.65 -36.15 Q-16.4 -35.75 -18.0 -36.95 -19.0 -37.75 -19.15 -38.5 L-19.15 -38.55 Q-19.35 -39.7 -18.7 -40.75 L-18.65 -40.8 Q-18.1 -41.9 -16.7 -42.35 M-21.35 -28.45 L-21.15 -28.8 Q-20.75 -29.3 -20.25 -29.15 -19.55 -28.9 -19.35 -27.95 -19.2 -26.9 -19.65 -22.75 L-20.8 -15.95 -21.2 -13.1 -22.15 -8.95 -24.55 -7.05 Q-25.0 -10.1 -23.1 -19.95 L-22.85 -21.7 -22.8 -21.85 -22.75 -22.0 -22.3 -24.25 -22.2 -24.5 -22.25 -24.7 -21.5 -27.8 -21.45 -27.8 -21.45 -28.05 -21.4 -28.25 -21.4 -28.3 -21.35 -28.45 M-11.65 -28.2 L-11.25 -27.65 -11.0 -27.35 -11.0 -27.3 -10.6 -26.75 Q-7.3 -21.9 -7.05 -20.15 L-6.55 -12.95 -6.5 -12.05 -6.75 -12.3 -7.55 -13.25 Q-8.65 -14.65 -9.25 -16.0 L-11.45 -20.1 Q-12.45 -22.0 -12.8 -23.9 -13.1 -25.5 -12.6 -26.8 L-11.65 -28.2" fill="#e0e0e0" fill-rule="evenodd" stroke="none"/>
    <path d="M-9.65 -37.6 L-10.95 -36.1 -11.25 -35.95 -11.9 -35.4 -12.0 -35.3 -12.4 -35.0 -14.2 -34.95 -17.25 -35.35 Q-17.75 -35.75 -19.0 -36.55 -19.65 -36.85 -20.4 -37.7 L-20.4 -37.75 -20.15 -39.25 -20.15 -39.35 -19.4 -41.25 Q-18.85 -42.25 -18.0 -42.45 L-16.7 -42.35 Q-18.1 -41.9 -18.65 -40.8 L-18.7 -40.75 Q-19.35 -39.7 -19.15 -38.55 L-19.15 -38.5 Q-19.0 -37.75 -18.0 -36.95 -16.4 -35.75 -13.65 -36.15 L-13.25 -36.25 -13.2 -36.25 Q-11.6 -36.6 -11.25 -37.8 -11.1 -38.35 -11.25 -39.1 L-11.25 -39.2 -11.05 -39.2 -9.6 -38.15 -9.6 -38.0 -9.65 -37.6 M-12.4 -40.15 L-11.95 -39.9 -11.2 -39.35 -12.4 -40.15 M-6.15 -7.8 L-6.25 -8.0 -7.2 -8.95 -8.25 -10.1 -8.5 -10.55 -10.3 -13.0 -13.1 -18.25 Q-14.25 -20.7 -14.75 -23.45 L-15.1 -26.15 -14.55 -29.5 Q-14.25 -30.85 -13.65 -31.55 L-12.95 -30.4 -12.75 -30.0 -11.75 -28.55 -11.7 -28.35 -11.65 -28.2 -12.6 -26.8 Q-13.1 -25.5 -12.8 -23.9 -12.45 -22.0 -11.45 -20.1 L-9.25 -16.0 Q-8.65 -14.65 -7.55 -13.25 L-6.75 -12.3 -6.5 -12.05 -6.55 -12.95 -6.4 -11.25 -6.15 -7.8 M-20.05 -33.0 Q-18.8 -32.35 -18.35 -30.05 L-18.45 -27.3 Q-17.75 -23.2 -19.0 -15.05 L-19.25 -13.75 -19.8 -10.85 -20.4 -10.4 -20.55 -10.2 -20.8 -10.15 -21.45 -9.6 -22.15 -8.95 -21.2 -13.1 -20.8 -15.95 -19.65 -22.75 Q-19.2 -26.9 -19.35 -27.95 -19.55 -28.9 -20.25 -29.15 -20.75 -29.3 -21.15 -28.8 L-21.35 -28.45 -21.2 -29.05 -20.05 -33.0" fill="#b4b4b4" fill-rule="evenodd" stroke="none"/>
    <path d="M-13.95 -41.1 L-13.15 -40.6 -12.4 -40.15 -11.2 -39.35 -11.05 -39.2 -11.25 -39.2 -11.85 -39.55 -13.6 -40.75 -13.85 -41.0 -14.0 -41.1 -13.95 -41.1 M-6.1 -6.3 L-5.8 -4.15 -5.75 -3.35 Q-5.05 0.6 -5.85 -0.6 -7.6 -0.65 -9.6 -3.85 -11.05 -6.05 -11.95 -8.3 -13.55 -11.95 -14.85 -19.4 L-15.2 -22.7 -15.3 -23.45 -15.4 -25.55 -16.0 -31.9 -15.8 -31.9 -14.1 -32.5 -14.0 -32.3 -13.65 -31.55 Q-14.25 -30.85 -14.55 -29.5 L-15.1 -26.15 -14.75 -23.45 Q-14.25 -20.7 -13.1 -18.25 L-10.3 -13.0 -8.5 -10.55 -8.25 -10.1 -7.2 -8.95 -6.25 -8.0 -6.15 -7.8 -6.1 -6.3 M-20.4 -37.7 Q-19.65 -36.85 -19.0 -36.55 -17.75 -35.75 -17.25 -35.35 L-14.2 -34.95 -12.4 -35.0 Q-14.65 -33.15 -15.85 -33.05 L-18.3 -34.5 -20.35 -35.85 -20.4 -37.7 M-20.05 -33.0 L-19.75 -33.75 Q-18.7 -32.75 -17.6 -32.3 L-17.2 -26.4 Q-16.6 -22.2 -16.75 -20.1 L-16.45 -16.7 Q-16.25 -14.7 -17.25 -13.4 L-19.05 -11.55 -19.8 -10.85 -19.25 -13.75 -19.0 -15.05 Q-17.75 -23.2 -18.45 -27.3 L-18.35 -30.05 Q-18.8 -32.35 -20.05 -33.0" fill="#8a8a8a" fill-rule="evenodd" stroke="none"/>
    <path d="M-20.05 -42.9 L-20.35 -42.1 -20.65 -42.4 -20.05 -42.9 M-12.4 -35.0 L-12.0 -35.3 -11.9 -35.4 -11.05 -34.85 -13.15 -33.1 -12.7 -32.65 -12.95 -30.4 -13.65 -31.55 -14.0 -32.3 -14.1 -32.5 -15.8 -31.9 -16.0 -31.9 -15.4 -25.55 -15.3 -23.45 -15.2 -22.7 -14.85 -19.4 Q-13.55 -11.95 -11.95 -8.3 -11.05 -6.05 -9.6 -3.85 -7.6 -0.65 -5.85 -0.6 -5.05 0.6 -5.75 -3.35 L-5.8 -4.15 -6.1 -6.3 -4.8 -4.25 -4.3 -3.45 -3.4 0.15 -3.6 1.55 Q-3.8 2.65 -6.5 1.05 -9.25 -0.55 -10.6 -2.25 L-12.1 -4.3 Q-13.35 -5.85 -14.35 -9.05 -15.1 -11.15 -15.5 -13.4 L-16.6 -11.85 -19.25 -9.25 -19.05 -11.55 -17.25 -13.4 Q-16.25 -14.7 -16.45 -16.7 L-16.75 -20.1 Q-16.6 -22.2 -17.2 -26.4 L-17.6 -32.3 Q-18.7 -32.75 -19.75 -33.75 L-20.05 -33.0 -21.2 -29.05 -22.0 -31.6 -21.75 -35.6 Q-22.3 -38.75 -21.7 -40.6 L-20.15 -39.25 -20.4 -37.75 -20.4 -37.7 -20.35 -35.85 -18.3 -34.5 -15.85 -33.05 Q-14.65 -33.15 -12.4 -35.0 M-10.85 -30.1 L-9.45 -27.55 -7.0 -23.7 Q-5.95 -22.05 -5.65 -20.25 -5.3 -18.3 -5.4 -16.1 L-5.55 -11.6 -5.4 -9.35 -6.4 -11.25 -6.55 -12.95 -7.05 -20.15 Q-7.3 -21.9 -10.6 -26.75 L-11.0 -27.3 -11.0 -27.35 -10.85 -30.1 M-21.75 -7.05 Q-24.0 -5.25 -24.8 -5.15 -26.2 -4.95 -26.1 -6.65 -26.9 -11.1 -23.9 -22.45 L-22.9 -26.75 -22.3 -24.25 -22.75 -22.0 -22.8 -21.85 -22.85 -21.7 -23.1 -19.95 Q-25.0 -10.1 -24.55 -7.05 L-22.15 -8.95 -21.45 -9.6 -21.75 -7.05" fill="#464646" fill-rule="evenodd" stroke="none"/>
    <path d="M-8.85 -37.55 L-9.65 -37.6 -9.6 -38.0 -9.6 -38.15 -11.05 -39.2 -11.2 -39.35 -11.95 -39.9 -12.4 -40.15 -13.15 -40.6 -13.95 -41.1 -14.1 -41.2 -14.2 -41.2 -14.25 -41.25 -15.4 -41.85 -16.7 -42.35 -18.0 -42.45 Q-18.85 -42.25 -19.4 -41.25 L-20.35 -42.1 -20.05 -42.9 -19.55 -43.05 -16.8 -43.4 -16.25 -43.3 Q-13.7 -43.0 -11.15 -41.4 -8.85 -39.85 -8.55 -38.45 L-8.85 -37.55 M-11.25 -35.95 L-10.15 -35.75 -10.85 -35.1 -11.05 -34.85 -11.9 -35.4 -11.25 -35.95" fill="#616161" fill-rule="evenodd" stroke="none"/>
  </g>
</svg>
