<?xml version="1.0" encoding="UTF-8" standalone="no"?>
<svg xmlns:ffdec="https://www.free-decompiler.com/flash" xmlns:xlink="http://www.w3.org/1999/xlink" ffdec:objectType="shape" height="178.15px" width="79.05px" xmlns="http://www.w3.org/2000/svg">
  <g transform="matrix(1.0, 0.0, 0.0, 1.0, 35.2, 138.8)">
    <path d="M-3.35 -43.3 Q-0.8 -43.0 1.1 -47.95 2.05 -50.45 2.45 -53.0 6.9 -59.7 11.2 -64.05 15.5 -68.5 17.6 -68.6 18.55 -68.6 18.95 -68.05 19.45 -67.45 19.5 -65.7 19.55 -65.05 14.85 -55.8 10.25 -46.6 9.3 -45.2 12.25 -46.25 13.6 -44.65 14.35 -43.75 14.35 -42.7 14.4 -41.2 13.5 -38.9 12.55 -36.65 12.6 -35.25 L12.65 -34.6 12.65 -34.65 18.3 -36.1 22.25 -36.8 Q25.65 -36.85 25.75 -34.2 25.8 -32.25 24.9 -27.6 23.7 -20.95 21.3 -15.4 14.2 1.55 0.0 1.9 -3.4 2.0 -4.15 -1.65 L-4.35 -8.15 -4.4 -19.0 Q-4.5 -22.3 -3.3 -28.9 -2.15 -35.3 -1.7 -35.35 -3.55 -35.05 -4.45 -36.05 -5.0 -36.7 -5.05 -37.8 -5.1 -39.9 -3.35 -43.3 M-4.25 -73.1 Q-2.25 -71.55 -0.6 -71.6 1.3 -71.65 2.9 -73.5 4.95 -75.7 4.85 -79.45 4.8 -80.9 3.6 -82.7 L1.95 -84.65 5.1 -88.35 Q7.2 -90.65 8.6 -90.7 11.1 -90.8 11.25 -86.3 11.3 -83.4 7.85 -76.25 L3.85 -68.7 Q-0.5 -60.95 -4.1 -60.85 -6.45 -60.8 -6.55 -62.95 L-5.6 -67.7 -4.25 -73.1 M-1.6 -114.95 Q1.05 -120.6 4.4 -119.05 7.7 -117.55 7.9 -110.75 8.1 -101.85 5.35 -97.25 3.15 -93.55 -0.2 -93.5 -3.4 -93.4 -3.5 -97.1 L-2.9 -101.7 Q-2.7 -103.0 -2.4 -108.7 -2.0 -113.95 -1.6 -114.95 M-10.9 -102.3 Q-10.2 -101.85 -10.15 -101.05 -10.15 -100.25 -10.85 -99.65 -11.55 -99.15 -12.6 -99.1 -13.65 -99.1 -14.4 -99.55 -15.15 -100.1 -15.15 -100.9 -15.2 -101.7 -14.45 -102.2 -13.75 -102.85 -12.7 -102.85 -11.65 -102.9 -10.9 -102.3 M-16.55 -75.55 Q-16.3 -77.75 -15.05 -78.8 -14.2 -79.5 -13.05 -79.55 -10.95 -79.6 -10.9 -76.65 -10.8 -73.5 -12.4 -71.45 -13.05 -69.8 -15.0 -69.4 -17.0 -69.05 -16.55 -75.55 M-13.8 -59.95 Q-12.75 -57.6 -13.15 -55.8 -13.5 -54.3 -14.7 -54.3 -17.25 -54.2 -17.1 -56.5 L-17.05 -57.25 -15.1 -58.75 -13.8 -59.95 M-14.65 -32.4 L-13.75 -27.95 -13.2 -24.7 Q-13.15 -23.45 -14.0 -22.35 -14.95 -21.0 -16.6 -20.95 -17.55 -20.95 -18.55 -22.9 -19.6 -25.0 -19.9 -27.75 -18.85 -28.0 -17.15 -29.1 -15.3 -30.35 -15.3 -31.05 L-15.1 -31.8 -14.65 -32.4 M-15.8 -9.15 Q-15.0 -8.0 -14.95 -5.8 -14.9 -2.9 -16.95 -3.1 -19.0 -3.3 -19.05 -5.45 -19.15 -10.05 -17.3 -10.1 -16.4 -10.1 -15.8 -9.15 M7.75 3.1 L8.75 3.25 9.1 5.2 Q9.1 6.3 6.25 9.35 3.1 12.7 0.8 12.75 -1.45 12.8 -1.5 10.55 -1.55 9.9 1.45 6.85 4.95 3.2 7.75 3.1" fill="#ffffff" fill-rule="evenodd" stroke="none"/>
    <path d="M-3.75 -127.25 L-1.25 -124.65 0.95 -122.2 Q-0.3 -125.7 -0.35 -127.45 -0.45 -131.55 2.65 -131.65 4.8 -131.7 7.45 -127.1 10.55 -121.85 10.75 -114.9 L10.75 -112.2 10.65 -109.05 10.55 -106.95 12.15 -100.35 Q12.2 -99.1 10.75 -96.7 L9.3 -94.55 12.5 -92.15 Q15.65 -89.5 15.7 -87.75 15.75 -85.7 13.0 -80.9 L8.1 -72.85 Q18.2 -73.5 21.35 -72.2 23.55 -71.3 23.6 -68.25 23.7 -63.9 22.55 -60.8 L21.3 -58.35 21.95 -53.85 Q26.0 -54.95 28.7 -50.15 32.7 -42.9 33.25 -22.8 33.35 -19.25 29.8 -12.05 26.05 -4.35 20.4 2.75 5.5 21.3 -8.95 19.8 L-9.0 19.2 -10.0 -8.0 -9.9 -13.7 -9.7 -20.8 -10.0 -44.5 -9.6 -51.35 -8.6 -60.4 -7.7 -71.05 -6.6 -90.15 -5.3 -111.4 Q-4.7 -119.75 -3.75 -127.25 M-1.6 -114.95 Q-2.0 -113.95 -2.4 -108.7 -2.7 -103.0 -2.9 -101.7 L-3.5 -97.1 Q-3.4 -93.4 -0.2 -93.5 3.15 -93.55 5.35 -97.25 8.1 -101.85 7.9 -110.75 7.7 -117.55 4.4 -119.05 1.05 -120.6 -1.6 -114.95 M-4.25 -73.1 L-5.6 -67.7 -6.55 -62.95 Q-6.45 -60.8 -4.1 -60.85 -0.5 -60.95 3.85 -68.7 L7.85 -76.25 Q11.3 -83.4 11.25 -86.3 11.1 -90.8 8.6 -90.7 7.2 -90.65 5.1 -88.35 L1.95 -84.65 3.6 -82.7 Q4.8 -80.9 4.85 -79.45 4.95 -75.7 2.9 -73.5 1.3 -71.65 -0.6 -71.6 -2.25 -71.55 -4.25 -73.1 M-3.35 -43.3 Q-5.1 -39.9 -5.05 -37.8 -5.0 -36.7 -4.45 -36.05 -3.55 -35.05 -1.7 -35.35 -2.15 -35.3 -3.3 -28.9 -4.5 -22.3 -4.4 -19.0 L-4.35 -8.15 -4.15 -1.65 Q-3.4 2.0 0.0 1.9 14.2 1.55 21.3 -15.4 23.7 -20.95 24.9 -27.6 25.8 -32.25 25.75 -34.2 25.65 -36.85 22.25 -36.8 L18.3 -36.1 12.65 -34.65 12.65 -34.6 12.6 -35.25 Q12.55 -36.65 13.5 -38.9 14.4 -41.2 14.35 -42.7 14.35 -43.75 13.6 -44.65 12.25 -46.25 9.3 -45.2 10.25 -46.6 14.85 -55.8 19.55 -65.05 19.5 -65.7 19.45 -67.45 18.95 -68.05 18.55 -68.6 17.6 -68.6 15.5 -68.5 11.2 -64.05 6.9 -59.7 2.45 -53.0 2.05 -50.45 1.1 -47.95 -0.8 -43.0 -3.35 -43.3 M-7.3 -125.05 Q-7.25 -109.6 -7.8 -99.7 -8.4 -87.5 -10.75 -65.35 L-12.6 -50.05 -13.95 -38.4 Q-13.8 -37.4 -13.8 -36.3 L-13.95 -34.65 -13.9 -34.4 Q-12.5 -29.4 -12.55 -17.45 L-12.1 18.95 Q-16.7 17.15 -19.55 11.35 -21.85 6.6 -22.85 -0.4 -23.15 -1.9 -23.65 -12.1 L-24.3 -22.6 -24.7 -24.65 -24.3 -25.1 Q-24.05 -25.5 -24.05 -27.8 L-24.55 -33.65 Q-24.55 -37.25 -23.6 -45.2 L-22.7 -53.4 -22.65 -53.85 Q-22.1 -54.3 -21.5 -57.1 L-21.8 -57.2 Q-21.9 -59.15 -22.65 -60.7 -23.55 -62.45 -23.55 -63.8 -23.55 -65.0 -21.4 -69.7 -19.3 -74.45 -19.3 -76.2 L-19.3 -76.5 -17.3 -81.45 -16.25 -83.8 -16.3 -84.4 Q-16.3 -85.45 -17.55 -88.65 -18.8 -91.9 -18.8 -92.9 L-17.8 -95.1 Q-16.8 -96.8 -16.8 -97.2 L-17.0 -98.1 -15.35 -101.75 Q-14.45 -103.1 -14.5 -103.2 L-15.05 -104.25 Q-15.65 -105.1 -15.65 -106.35 -15.75 -110.25 -14.3 -114.75 -12.9 -119.2 -11.2 -120.7 L-7.3 -125.05 M-10.9 -102.3 Q-11.65 -102.9 -12.7 -102.85 -13.75 -102.85 -14.45 -102.2 -15.2 -101.7 -15.15 -100.9 -15.15 -100.1 -14.4 -99.55 -13.65 -99.1 -12.6 -99.1 -11.55 -99.15 -10.85 -99.65 -10.15 -100.25 -10.15 -101.05 -10.2 -101.85 -10.9 -102.3 M-13.8 -59.95 L-15.1 -58.75 -17.05 -57.25 -17.1 -56.5 Q-17.25 -54.2 -14.7 -54.3 -13.5 -54.3 -13.15 -55.8 -12.75 -57.6 -13.8 -59.95 M-16.55 -75.55 Q-17.0 -69.05 -15.0 -69.4 -13.05 -69.8 -12.4 -71.45 -10.8 -73.5 -10.9 -76.65 -10.95 -79.6 -13.05 -79.55 -14.2 -79.5 -15.05 -78.8 -16.3 -77.75 -16.55 -75.55 M-14.65 -32.4 L-15.1 -31.8 -15.3 -31.05 Q-15.3 -30.35 -17.15 -29.1 -18.85 -28.0 -19.9 -27.75 -19.6 -25.0 -18.55 -22.9 -17.55 -20.95 -16.6 -20.95 -14.95 -21.0 -14.0 -22.35 -13.15 -23.45 -13.2 -24.7 L-13.75 -27.95 -14.65 -32.4 M-15.8 -9.15 Q-16.4 -10.1 -17.3 -10.1 -19.15 -10.05 -19.05 -5.45 -19.0 -3.3 -16.95 -3.1 -14.9 -2.9 -14.95 -5.8 -15.0 -8.0 -15.8 -9.15 M7.75 3.1 Q4.95 3.2 1.45 6.85 -1.55 9.9 -1.5 10.55 -1.45 12.8 0.8 12.75 3.1 12.7 6.25 9.35 9.1 6.3 9.1 5.2 L8.75 3.25 7.75 3.1" fill="#e0e0e0" fill-rule="evenodd" stroke="none"/>
    <path d="M-8.95 19.8 Q5.5 21.3 20.4 2.75 26.05 -4.35 29.8 -12.05 33.35 -19.25 33.25 -22.8 32.7 -42.9 28.7 -50.15 26.0 -54.95 21.95 -53.85 L21.3 -58.35 22.55 -60.8 Q23.7 -63.9 23.6 -68.25 23.55 -71.3 21.35 -72.2 18.2 -73.5 8.1 -72.85 L13.0 -80.9 Q15.75 -85.7 15.7 -87.75 15.65 -89.5 12.5 -92.15 L9.3 -94.55 10.75 -96.7 Q12.2 -99.1 12.15 -100.35 L10.55 -106.95 10.65 -109.05 10.75 -112.2 Q12.25 -108.9 14.25 -102.85 L16.45 -95.65 17.25 -90.5 Q17.9 -86.05 18.1 -85.45 20.9 -78.35 25.0 -71.1 28.4 -65.4 28.4 -65.1 L27.3 -59.3 26.15 -54.85 Q28.2 -53.6 30.35 -51.4 34.7 -46.85 35.65 -38.85 L36.4 -28.15 36.65 -21.15 Q36.75 -16.5 36.2 -14.3 35.7 -12.35 33.95 -9.95 26.05 1.25 21.6 9.65 20.55 11.65 16.65 14.9 L12.4 18.2 Q10.7 19.65 5.35 20.55 L-8.55 22.25 -8.95 19.8 M-31.0 -30.5 Q-30.5 -33.55 -30.5 -38.05 L-30.7 -43.05 Q-30.75 -45.0 -29.45 -48.55 -28.25 -52.15 -28.35 -54.7 L-28.85 -57.05 -29.35 -59.5 Q-29.4 -60.4 -27.55 -65.75 L-27.4 -67.9 Q-27.05 -69.6 -26.45 -70.45 -26.65 -71.95 -27.35 -72.9 L-28.0 -74.25 Q-28.0 -75.0 -26.15 -77.35 -24.35 -79.7 -24.45 -82.3 L-24.85 -84.7 -25.3 -87.2 -24.6 -88.35 Q-23.6 -89.8 -22.55 -94.95 -22.35 -96.0 -22.6 -98.05 L-22.9 -100.55 -21.8 -102.4 Q-20.75 -104.25 -20.8 -105.1 L-21.65 -108.95 -17.4 -114.45 Q-13.5 -119.2 -11.2 -120.7 -12.9 -119.2 -14.3 -114.75 -15.75 -110.25 -15.65 -106.35 -15.65 -105.1 -15.05 -104.25 L-14.5 -103.2 Q-14.45 -103.1 -15.35 -101.75 L-17.0 -98.1 -16.8 -97.2 Q-16.8 -96.8 -17.8 -95.1 L-18.8 -92.9 Q-18.8 -91.9 -17.55 -88.65 -16.3 -85.45 -16.3 -84.4 L-16.25 -83.8 -17.3 -81.45 -19.3 -76.5 -19.3 -76.2 Q-19.3 -74.45 -21.4 -69.7 -23.55 -65.0 -23.55 -63.8 -23.55 -62.45 -22.65 -60.7 -21.9 -59.15 -21.8 -57.2 L-21.5 -57.1 Q-22.1 -54.3 -22.65 -53.85 L-22.7 -53.4 -23.6 -45.2 Q-24.55 -37.25 -24.55 -33.65 L-24.05 -27.8 Q-24.05 -25.5 -24.3 -25.1 L-24.7 -24.65 -24.3 -22.6 -23.65 -12.1 Q-23.15 -1.9 -22.85 -0.4 L-25.45 -10.2 -31.0 -30.5" fill="#b4b4b4" fill-rule="evenodd" stroke="none"/>
    <path d="M10.75 -112.2 L10.75 -114.9 Q10.55 -121.85 7.45 -127.1 4.8 -131.7 2.65 -131.65 -0.45 -131.55 -0.35 -127.45 -0.3 -125.7 0.95 -122.2 L-1.25 -124.65 -3.75 -127.25 -3.35 -134.05 -2.65 -136.8 5.85 -136.5 10.1 -132.55 10.95 -126.9 Q11.1 -124.35 12.05 -121.5 13.6 -117.15 16.1 -112.7 17.7 -109.8 17.8 -107.45 L17.35 -105.05 16.9 -102.75 Q16.95 -100.5 19.75 -96.65 L22.55 -93.15 22.25 -89.75 21.9 -86.4 Q21.95 -83.95 25.15 -79.6 29.35 -73.85 31.95 -66.05 L33.35 -61.35 33.6 -56.8 Q33.65 -55.9 34.35 -55.1 35.2 -54.15 36.75 -53.8 L36.2 -49.65 Q36.2 -48.95 38.3 -44.35 L40.3 -39.85 Q39.15 -32.2 39.2 -30.4 39.25 -27.7 40.3 -24.0 L41.35 -19.25 Q41.4 -17.1 40.7 -8.75 33.35 10.9 20.35 20.1 9.05 28.1 -6.9 28.35 L-8.55 22.25 5.35 20.55 Q10.7 19.65 12.4 18.2 L16.65 14.9 Q20.55 11.65 21.6 9.65 26.05 1.25 33.95 -9.95 35.7 -12.35 36.2 -14.3 36.75 -16.5 36.65 -21.15 L36.4 -28.15 35.65 -38.85 Q34.7 -46.85 30.35 -51.4 28.2 -53.6 26.15 -54.85 L27.3 -59.3 28.4 -65.1 Q28.4 -65.4 25.0 -71.1 20.9 -78.35 18.1 -85.45 17.9 -86.05 17.25 -90.5 L16.45 -95.65 14.25 -102.85 Q12.25 -108.9 10.75 -112.2 M-21.65 -108.95 L-21.95 -110.95 -20.65 -113.2 Q-19.0 -115.75 -18.1 -117.7 L-17.5 -120.8 -16.85 -123.85 Q-16.45 -124.95 -12.75 -130.2 -9.25 -135.25 -5.85 -135.95 L-7.3 -125.05 -11.2 -120.7 Q-13.5 -119.2 -17.4 -114.45 L-21.65 -108.95 M-12.1 18.95 L-11.55 24.15 Q-15.75 23.1 -21.0 17.8 -26.35 12.35 -30.35 4.85 L-31.4 -3.45 Q-32.5 -12.15 -32.6 -16.7 L-32.1 -22.1 -31.0 -30.5 -25.45 -10.2 -22.85 -0.4 Q-21.85 6.6 -19.55 11.35 -16.7 17.15 -12.1 18.95" fill="#8a8a8a" fill-rule="evenodd" stroke="none"/>
    <path d="M-3.75 -127.25 Q-4.7 -119.75 -5.3 -111.4 L-6.6 -90.15 -7.7 -71.05 -8.6 -60.4 -9.6 -51.35 -10.0 -44.5 -9.7 -20.8 -9.9 -13.7 -10.0 -8.0 -9.0 19.2 -8.95 19.8 -8.55 22.25 -6.9 28.35 Q9.05 28.1 20.35 20.1 33.35 10.9 40.7 -8.75 40.7 -5.55 39.4 0.3 37.75 7.75 34.65 15.95 33.35 19.4 30.25 23.75 25.6 30.15 20.4 32.35 14.05 35.1 8.8 36.1 L-1.6 37.1 -6.25 36.95 -11.15 36.0 Q-18.15 32.15 -24.0 22.9 -29.75 13.75 -30.2 5.8 L-30.35 4.85 Q-26.35 12.35 -21.0 17.8 -15.75 23.1 -11.55 24.15 L-12.1 18.95 -12.55 -17.45 Q-12.5 -29.4 -13.9 -34.4 L-13.95 -34.65 -13.8 -36.3 Q-13.8 -37.4 -13.95 -38.4 L-12.6 -50.05 -10.75 -65.35 Q-8.4 -87.5 -7.8 -99.7 -7.25 -109.6 -7.3 -125.05 L-5.85 -135.95 -2.65 -136.8 -3.35 -134.05 -3.75 -127.25 M36.75 -53.8 Q35.2 -54.15 34.35 -55.1 33.65 -55.9 33.6 -56.8 L33.35 -61.35 31.95 -66.05 Q29.35 -73.85 25.15 -79.6 21.95 -83.95 21.9 -86.4 L22.25 -89.75 22.55 -93.15 19.75 -96.65 Q16.95 -100.5 16.9 -102.75 L17.35 -105.05 17.8 -107.45 Q17.7 -109.8 16.1 -112.7 13.6 -117.15 12.05 -121.5 11.1 -124.35 10.95 -126.9 L10.1 -132.55 Q11.85 -129.45 13.9 -126.4 L15.25 -124.25 14.8 -123.15 Q14.3 -122.6 14.3 -122.15 14.35 -121.25 17.15 -117.9 19.9 -114.8 19.45 -112.45 19.1 -110.45 21.45 -106.9 L24.15 -102.65 23.45 -97.55 24.2 -96.45 27.1 -91.95 Q27.35 -91.5 27.8 -87.35 L28.45 -83.05 Q31.8 -78.5 31.8 -78.15 31.25 -76.9 31.35 -73.35 31.35 -72.35 32.75 -68.6 34.0 -65.2 33.7 -61.8 33.6 -61.0 35.3 -57.95 36.9 -54.9 36.75 -53.8" fill="#616161" fill-rule="evenodd" stroke="none"/>
    <path d="M1.6 -138.65 L1.35 -138.6 Q1.15 -138.3 1.4 -138.4 L2.85 -138.75 Q5.75 -139.15 8.55 -136.7 L11.4 -134.35 13.9 -130.35 Q14.85 -129.3 16.15 -126.9 L17.25 -124.6 16.75 -123.35 Q16.3 -122.55 16.3 -122.1 L19.3 -118.5 Q22.2 -115.25 21.7 -112.4 21.3 -110.0 23.75 -108.0 26.4 -105.75 26.5 -101.45 L25.95 -97.7 29.75 -92.6 Q30.35 -91.55 30.4 -89.45 L30.25 -85.85 Q30.25 -84.7 31.15 -83.15 34.25 -77.95 34.25 -77.35 33.7 -73.65 33.85 -72.85 34.05 -71.6 35.25 -69.2 36.25 -66.95 36.25 -66.5 L36.05 -61.7 Q36.2 -60.7 37.75 -57.85 39.2 -55.15 39.2 -54.5 L38.95 -52.15 38.6 -49.85 40.55 -46.4 Q42.5 -42.45 42.55 -39.6 L42.1 -34.65 41.55 -30.75 42.55 -25.55 Q43.55 -20.45 43.8 -15.55 44.05 -10.65 42.9 1.0 41.75 12.65 39.5 17.0 37.25 21.3 32.15 27.4 27.35 30.65 24.15 33.15 16.7 38.85 -1.75 39.35 -15.55 39.7 -25.6 25.8 -35.7 11.85 -35.2 -4.05 -34.75 -19.95 -33.95 -24.3 L-32.7 -31.7 Q-32.55 -33.25 -32.55 -37.15 L-32.3 -43.1 Q-31.75 -48.25 -30.85 -51.45 L-30.05 -54.35 -30.65 -56.55 Q-31.25 -58.85 -31.25 -59.9 -31.3 -61.9 -29.75 -65.6 -28.25 -69.3 -28.25 -69.8 L-29.05 -71.75 -29.9 -74.2 Q-29.9 -75.1 -28.2 -78.25 -26.45 -81.45 -26.45 -81.85 L-27.3 -87.15 -25.7 -91.9 Q-24.5 -95.0 -24.55 -95.5 L-24.8 -98.1 Q-25.0 -99.8 -24.8 -100.85 -24.5 -102.7 -23.7 -103.9 L-22.8 -105.05 -23.35 -107.6 -23.95 -110.95 Q-23.95 -112.0 -22.2 -114.7 -20.1 -117.8 -19.75 -118.95 L-18.75 -123.35 Q-18.2 -126.1 -17.45 -127.1 -16.65 -128.2 -14.4 -131.85 -13.05 -134.05 -11.85 -135.0 -8.85 -137.5 1.6 -138.65 M40.7 -8.75 Q41.4 -17.1 41.35 -19.25 L40.3 -24.0 Q39.25 -27.7 39.2 -30.4 39.15 -32.2 40.3 -39.85 L38.3 -44.35 Q36.2 -48.95 36.2 -49.65 L36.75 -53.8 Q36.9 -54.9 35.3 -57.95 33.6 -61.0 33.7 -61.8 34.0 -65.2 32.75 -68.6 31.35 -72.35 31.35 -73.35 31.25 -76.9 31.8 -78.15 31.8 -78.5 28.45 -83.05 L27.8 -87.35 Q27.35 -91.5 27.1 -91.95 L24.2 -96.45 23.45 -97.55 24.15 -102.65 21.45 -106.9 Q19.1 -110.45 19.45 -112.45 19.9 -114.8 17.15 -117.9 14.35 -121.25 14.3 -122.15 14.3 -122.6 14.8 -123.15 L15.25 -124.25 13.9 -126.4 Q11.85 -129.45 10.1 -132.55 L5.85 -136.5 -2.65 -136.8 -5.85 -135.95 Q-9.25 -135.25 -12.75 -130.2 -16.45 -124.95 -16.85 -123.85 L-17.5 -120.8 -18.1 -117.7 Q-19.0 -115.75 -20.65 -113.2 L-21.95 -110.95 -21.65 -108.95 -20.8 -105.1 Q-20.75 -104.25 -21.8 -102.4 L-22.9 -100.55 -22.6 -98.05 Q-22.35 -96.0 -22.55 -94.95 -23.6 -89.8 -24.6 -88.35 L-25.3 -87.2 -24.85 -84.7 -24.45 -82.3 Q-24.35 -79.7 -26.15 -77.35 -28.0 -75.0 -28.0 -74.25 L-27.35 -72.9 Q-26.65 -71.95 -26.45 -70.45 -27.05 -69.6 -27.4 -67.9 L-27.55 -65.75 Q-29.4 -60.4 -29.35 -59.5 L-28.85 -57.05 -28.35 -54.7 Q-28.25 -52.15 -29.45 -48.55 -30.75 -45.0 -30.7 -43.05 L-30.5 -38.05 Q-30.5 -33.55 -31.0 -30.5 L-32.1 -22.1 -32.6 -16.7 Q-32.5 -12.15 -31.4 -3.45 L-30.35 4.85 -30.2 5.8 Q-29.75 13.75 -24.0 22.9 -18.15 32.15 -11.15 36.0 L-6.25 36.95 -1.6 37.1 8.8 36.1 Q14.05 35.1 20.4 32.35 25.6 30.15 30.25 23.75 33.35 19.4 34.65 15.95 37.75 7.75 39.4 0.3 40.7 -5.55 40.7 -8.75" fill="#464646" fill-rule="evenodd" stroke="none"/>
  </g>
</svg>
