<?xml version="1.0" encoding="UTF-8" standalone="no"?>
<svg xmlns:ffdec="https://www.free-decompiler.com/flash" xmlns:xlink="http://www.w3.org/1999/xlink" ffdec:objectType="shape" height="188.9px" width="156.8px" xmlns="http://www.w3.org/2000/svg">
  <g transform="matrix(1.0, 0.0, 0.0, 1.0, 86.9, 151.7)">
    <path d="M0.0 -142.8 L0.05 -142.4 Q0.05 -141.6 -1.7 -140.2 L-4.1 -138.05 Q-7.8 -133.8 -8.6 -133.85 -9.35 -133.85 -10.05 -135.8 -9.95 -136.3 -7.95 -137.85 L-5.55 -139.5 Q-4.5 -139.95 -3.0 -141.45 -1.75 -142.65 0.0 -142.8 M15.15 -48.85 Q3.9 -47.85 -10.2 -48.6 L-13.0 -48.35 -26.4 -49.15 -26.85 -44.2 -27.95 -30.3 -14.35 -29.5 -13.5 -40.45 -13.5 -40.5 -13.1 -40.4 -13.0 -40.4 -12.25 -40.5 -12.2 -40.8 -11.5 -40.75 -12.35 -29.4 -11.25 -29.35 0.7 -29.15 Q1.05 -35.25 1.7 -40.9 L3.7 -41.0 2.7 -29.1 6.9 -29.15 4.3 -27.55 3.3 -27.05 2.45 -27.1 2.5 -26.65 0.4 -25.65 0.45 -27.05 -11.35 -27.3 -12.55 -27.35 -12.85 -21.5 -13.85 -21.3 -14.95 -21.05 -14.55 -27.45 -28.0 -28.2 -28.3 -22.1 -28.7 -22.2 -30.35 -22.35 -30.0 -28.35 -45.65 -30.0 -46.15 -23.8 -48.1 -23.95 -47.65 -30.25 -57.7 -31.85 -57.75 -31.85 -57.75 -33.9 -47.45 -32.3 -45.5 -51.15 -56.0 -52.85 -55.65 -54.9 -45.2 -53.2 -44.35 -59.75 -43.3 -67.35 -42.85 -70.45 -47.45 -70.7 Q-48.6 -71.85 -49.7 -72.0 L-49.8 -72.0 -49.85 -72.0 -50.0 -72.0 -50.05 -72.0 -50.5 -72.05 -50.6 -72.0 -50.65 -72.0 -52.2 -71.8 -51.85 -73.05 -42.55 -72.45 Q-40.9 -82.85 -38.95 -92.05 L-44.4 -92.05 -45.05 -92.35 -46.2 -92.3 -46.35 -92.35 -43.9 -93.7 -43.1 -94.1 -38.45 -94.15 -38.35 -94.55 -37.85 -96.75 -35.55 -97.9 -36.25 -94.55 -36.35 -94.15 Q-28.75 -94.2 -20.4 -93.85 L-20.2 -94.55 Q-18.55 -100.55 -16.55 -105.95 L-15.45 -106.3 -14.55 -106.55 -14.25 -106.65 -18.15 -94.55 -18.35 -93.9 -9.2 -93.6 -6.4 -93.55 -6.3 -93.35 Q-5.45 -90.95 -4.15 -89.0 L-6.85 -75.8 -7.7 -70.85 5.65 -70.4 6.65 -75.35 7.95 -81.6 9.8 -81.45 10.05 -81.45 8.65 -75.2 Q8.1 -72.9 7.7 -70.4 L15.65 -70.25 15.65 -68.2 7.35 -68.35 7.2 -67.35 Q6.5 -63.65 5.95 -59.75 5.2 -55.05 4.6 -50.0 L15.2 -50.2 15.15 -48.85 M2.6 -50.05 L3.9 -59.75 5.1 -67.35 5.3 -68.4 -8.05 -68.75 -8.25 -67.35 -9.4 -59.75 -10.5 -50.3 2.6 -50.05 M-21.85 -17.3 L-26.0 -17.55 -26.4 -17.55 -26.4 -17.6 -21.85 -17.3 M-26.45 -14.35 L-13.4 -13.9 -6.15 -14.2 6.8 -13.95 14.1 -13.5 13.8 -4.5 11.85 -4.55 11.25 -4.4 6.2 -4.55 6.2 -4.9 6.35 -8.6 6.3 -8.55 5.2 -4.5 4.85 -4.55 2.55 -3.95 Q1.2 -3.75 -2.55 -3.85 L-10.35 -4.05 -26.75 -6.6 -26.45 -14.35 M14.0 -1.45 L15.7 -1.3 15.7 -2.1 15.75 -2.1 Q24.45 -3.4 32.45 0.6 31.75 5.75 30.3 10.9 L30.15 10.85 27.35 10.7 17.15 8.6 Q11.1 7.3 8.8 5.55 7.1 4.3 4.55 1.2 4.0 0.6 3.8 -0.65 L14.0 -1.45 M34.4 1.55 L34.6 1.7 Q34.25 4.3 33.5 6.6 L34.4 1.55 M-44.2 -126.4 L-46.8 -118.25 -48.0 -113.3 Q-48.85 -110.15 -49.3 -110.2 -50.1 -110.15 -50.25 -112.65 L-50.1 -115.0 -49.95 -117.9 -48.6 -122.2 -47.15 -125.85 Q-45.65 -129.35 -44.2 -126.4 M-57.0 -93.8 L-53.7 -93.85 -54.25 -91.85 -55.3 -91.75 -55.35 -92.5 Q-55.25 -93.2 -55.75 -93.4 L-57.0 -93.65 -57.0 -93.8 M-42.7 -102.85 L-42.05 -104.6 -41.3 -106.95 Q-39.25 -112.65 -37.15 -116.05 -35.6 -118.3 -32.65 -120.55 -30.35 -122.35 -26.0 -124.95 -23.8 -126.1 -19.7 -129.25 L-15.8 -131.35 -12.4 -115.4 Q-28.05 -110.0 -33.45 -107.6 L-39.4 -104.5 -39.75 -104.3 -42.7 -102.85 M-5.6 -91.45 L-9.25 -91.55 -18.85 -91.8 Q-20.9 -84.5 -22.45 -76.35 L-23.35 -71.45 -9.95 -70.85 -9.8 -70.85 -8.9 -75.9 Q-7.45 -84.2 -5.6 -91.45 M-32.1 -86.9 L-31.1 -87.15 Q-30.05 -87.1 -29.35 -86.3 -28.6 -85.55 -28.65 -84.45 -28.7 -83.4 -29.45 -82.6 L-30.1 -82.15 -30.7 -83.5 -32.1 -86.9 M-40.5 -72.35 L-36.6 -72.1 -25.3 -71.45 -24.5 -76.4 Q-22.95 -84.45 -20.9 -91.85 L-36.9 -92.1 Q-38.9 -82.75 -40.5 -72.35 M-37.15 -70.0 L-40.8 -70.35 -41.25 -67.35 -42.35 -59.75 -43.25 -52.9 -37.25 -52.15 -28.2 -51.3 -27.2 -59.75 -26.05 -67.35 -25.7 -69.45 -31.6 -69.75 -32.6 -70.3 -33.7 -70.6 -33.8 -70.6 -33.9 -70.6 -34.45 -70.65 -36.45 -70.35 -36.65 -70.25 -37.15 -70.0 M-12.5 -50.35 L-11.4 -59.75 -10.25 -67.35 -10.05 -68.8 -23.65 -69.4 -24.0 -67.35 -25.15 -59.75 -26.2 -51.2 -12.5 -50.35 M-33.6 -61.6 L-34.5 -63.0 -36.05 -66.1 -36.1 -66.15 -34.45 -66.65 Q-33.4 -66.6 -32.75 -65.8 -31.95 -65.0 -32.0 -63.95 -32.0 -62.85 -32.85 -62.15 -33.2 -61.8 -33.6 -61.6 M-45.8 -83.6 L-46.05 -84.25 -47.5 -88.5 -46.55 -88.7 Q-45.5 -88.7 -44.7 -87.85 -44.05 -87.15 -44.05 -86.05 -44.05 -85.0 -44.85 -84.15 L-44.85 -84.1 Q-45.15 -83.9 -45.55 -83.75 L-45.8 -83.6 M-52.0 -68.5 L-51.45 -68.5 -51.4 -68.5 Q-50.35 -68.5 -49.6 -67.7 L-49.35 -67.35 Q-48.9 -66.65 -48.95 -65.8 -49.0 -64.75 -49.75 -64.0 L-50.1 -63.7 -50.55 -64.95 Q-50.45 -65.05 -51.5 -67.35 L-52.0 -68.5 M-56.55 -48.05 Q-55.85 -48.7 -54.9 -48.7 L-54.8 -48.7 Q-53.75 -48.65 -53.05 -47.85 -52.3 -47.05 -52.35 -46.0 -52.35 -44.9 -53.15 -44.2 L-53.2 -44.15 -54.9 -45.95 -56.55 -48.05 M-28.4 -49.25 L-37.35 -50.05 -43.5 -50.85 -45.45 -32.05 -29.95 -30.4 -28.85 -44.25 -28.4 -49.25 M-38.6 -46.55 L-37.55 -46.8 -37.35 -46.75 Q-36.5 -46.75 -35.85 -45.9 -35.25 -45.35 -35.15 -44.55 L-35.1 -44.1 Q-35.2 -43.25 -35.65 -42.55 L-38.6 -46.55 M-28.85 -2.85 L-28.75 -2.15 Q-28.55 -1.7 -27.9 -1.75 L-27.15 -1.85 -27.1 -2.1 Q-17.5 -0.65 -11.0 -0.5 L-4.85 -0.35 -4.8 -0.35 -4.75 2.0 -4.2 3.1 -3.85 3.45 Q8.45 12.3 25.5 14.85 L26.3 14.75 Q26.2 15.25 26.25 16.15 L26.25 16.2 22.9 18.05 19.65 17.25 16.35 16.2 13.05 15.2 12.4 15.2 Q12.8 16.1 13.95 16.7 L17.3 18.0 20.25 19.05 18.65 19.5 Q-7.0 26.1 -32.05 17.95 -36.7 16.45 -39.65 12.45 -44.5 5.8 -43.4 -2.85 L-28.85 -2.85 M-17.2 -1.7 L-17.35 -1.75 -16.8 -1.7 -17.2 -1.7" fill="#e9d96b" fill-rule="evenodd" stroke="none"/>
    <path d="M16.15 -6.5 L15.9 -6.5 16.2 -16.35 16.2 -16.45 31.55 -16.9 33.5 -17.05 46.55 -18.25 46.75 -18.2 48.5 -18.5 48.6 -18.5 48.7 -18.5 48.45 -8.35 48.2 -8.35 47.6 -8.35 Q47.6 -13.15 44.3 -13.2 31.2 -13.35 18.3 -10.85 L18.05 -6.6 16.15 -6.5 M54.7 -19.15 L54.7 -19.4 57.8 -19.95 54.7 -18.9 54.7 -19.15 M54.5 -9.8 L54.45 -9.8 54.55 -14.6 56.45 -15.3 Q58.75 -16.25 60.65 -16.2 L60.65 -16.1 60.0 -12.55 59.8 -11.15 59.55 -11.15 Q57.25 -11.0 55.1 -10.1 L54.75 -9.95 54.5 -9.8 M-24.35 -131.4 L-31.8 -124.75 -40.95 -116.3 Q-39.5 -122.0 -36.6 -128.85 L-35.4 -131.45 -34.9 -132.55 -34.45 -133.5 Q-31.8 -138.6 -29.6 -140.35 -26.3 -142.8 -16.25 -146.05 -4.9 -149.6 2.8 -149.55 L-14.8 -137.6 -17.25 -137.75 -22.15 -133.4 -22.2 -133.4 -23.1 -132.55 -24.35 -131.4 M-76.7 -15.35 L-77.45 -20.45 -73.3 -19.7 -69.8 -19.0 -69.95 -13.65 Q-71.9 -14.8 -74.65 -15.15 L-76.7 -15.35 M-45.0 -8.7 L-45.85 -8.8 -45.5 -19.0 -43.45 -18.85 -28.35 -18.3 -28.35 -18.1 -28.65 -8.15 -28.9 -8.1 -29.4 -8.15 Q-29.45 -11.2 -30.25 -12.25 -31.85 -14.35 -37.65 -14.15 L-44.1 -13.75 -44.75 -10.2 -45.0 -8.7" fill="#333333" fill-rule="evenodd" stroke="none"/>
    <path d="M-73.25 -95.1 L-72.25 -96.95 -70.7 -96.15 -70.15 -95.95 -68.85 -95.4 -66.85 -94.55 -63.9 -93.45 Q-60.45 -92.2 -57.7 -91.65 L-60.8 -91.55 -61.05 -90.6 -63.0 -91.3 -63.25 -91.4 -65.65 -92.25 -65.85 -92.35 -67.5 -92.95 -68.05 -93.1 -69.35 -93.6 -69.35 -93.55 -71.2 -94.3 -71.9 -94.6 -73.25 -95.1 M10.2 -130.6 L10.25 -130.55 10.85 -130.05 Q11.0 -129.9 11.25 -129.7 12.0 -129.0 12.85 -128.35 18.7 -123.25 23.85 -117.7 L24.55 -116.85 Q18.45 -122.95 11.25 -127.25 L10.65 -127.5 Q10.35 -127.95 10.2 -128.45 9.55 -129.25 9.05 -130.2 L8.75 -130.65 10.2 -130.6 M7.25 -130.25 L9.2 -127.1 Q4.85 -121.3 0.9 -111.65 L-8.6 -112.0 -9.6 -112.05 Q-8.0 -112.65 -8.0 -112.85 -7.9 -113.8 -9.25 -118.6 L-8.75 -119.55 1.55 -122.4 6.15 -130.35 7.25 -130.25 M10.3 -125.2 Q14.25 -118.2 17.4 -110.7 L3.05 -111.45 Q6.5 -119.85 10.3 -125.2 M19.0 -106.85 Q21.4 -100.85 23.3 -94.55 L24.1 -91.8 21.55 -92.0 21.5 -92.0 19.95 -92.1 13.2 -92.5 13.9 -94.55 14.25 -95.6 15.45 -99.0 15.95 -100.2 Q17.45 -103.8 19.0 -106.85 M24.6 -89.7 L26.3 -82.65 26.05 -81.8 Q24.95 -78.45 24.05 -74.7 L22.95 -70.2 15.65 -70.25 15.4 -75.0 14.9 -78.6 Q14.3 -80.65 13.05 -81.15 L10.15 -81.45 10.05 -81.45 12.55 -90.45 21.3 -89.9 22.9 -89.75 24.6 -89.7 M27.15 -78.45 L28.55 -70.1 25.05 -70.2 26.1 -74.6 27.15 -78.45 M28.8 -68.0 L28.9 -67.35 29.7 -59.75 30.2 -51.25 30.2 -51.2 30.0 -51.2 29.5 -51.15 29.3 -51.1 21.5 -50.5 Q22.15 -55.3 22.95 -59.75 23.6 -63.7 24.4 -67.35 L24.55 -68.1 28.8 -68.0 M-10.9 -46.3 Q-4.65 -45.9 2.15 -46.0 L1.85 -43.25 1.7 -41.4 Q-4.6 -41.4 -11.35 -41.75 L-11.2 -43.75 -10.9 -46.3 M4.15 -46.0 L17.3 -47.0 19.05 -47.2 18.5 -42.65 18.5 -42.5 12.4 -41.95 3.7 -41.45 3.85 -43.2 4.15 -46.0 M21.1 -47.35 L30.35 -48.8 33.25 -49.45 33.35 -49.45 34.6 -49.75 34.5 -45.25 33.9 -45.1 30.35 -44.4 30.3 -44.4 20.55 -42.85 21.1 -47.35 M34.75 -44.25 L34.75 -44.1 Q34.85 -43.95 35.45 -43.9 L35.65 -43.9 Q36.25 -44.0 36.35 -44.45 L36.55 -47.9 36.5 -49.4 36.85 -49.45 Q37.85 -40.65 38.0 -30.8 L31.55 -30.55 31.9 -43.8 33.7 -44.1 34.75 -44.25 M36.05 -51.55 L35.5 -51.95 35.25 -51.9 34.75 -51.85 31.7 -51.45 31.2 -59.75 30.4 -67.35 30.3 -67.95 30.4 -67.9 33.6 -67.85 33.75 -67.35 35.35 -59.75 36.6 -51.5 36.05 -51.55 M30.1 -69.8 L30.05 -70.1 28.1 -81.55 27.2 -85.45 26.85 -86.9 27.1 -86.05 Q30.6 -78.7 33.05 -69.95 L30.1 -70.0 30.1 -69.8 M25.45 -92.35 L24.85 -94.55 Q22.75 -101.7 20.0 -108.4 L19.65 -109.2 Q24.35 -109.45 28.6 -109.15 33.6 -102.6 37.6 -94.55 L39.2 -91.2 26.3 -91.85 25.65 -92.3 25.45 -92.35 M18.85 -111.2 Q16.0 -117.8 12.6 -124.05 20.5 -118.8 26.85 -111.3 23.0 -111.45 18.85 -111.2 M14.15 -100.95 L12.3 -96.3 11.7 -94.55 11.15 -92.6 -3.05 -93.35 -2.7 -94.55 Q-1.1 -100.5 0.7 -105.45 L2.2 -109.5 17.7 -108.65 Q16.05 -105.65 14.55 -102.0 L14.15 -100.95 M33.5 -105.85 L35.6 -102.75 36.9 -100.9 40.75 -94.55 42.75 -90.95 41.4 -91.05 39.85 -94.55 Q36.95 -100.65 33.5 -105.85 M51.1 -71.75 L48.1 -71.15 Q45.7 -80.7 42.3 -89.0 L43.8 -88.9 45.5 -85.5 47.45 -81.2 50.45 -73.75 51.1 -71.75 M51.8 -69.8 L52.2 -68.35 52.55 -67.35 53.15 -65.2 53.15 -65.25 54.2 -61.35 54.2 -61.3 54.6 -59.75 55.55 -55.25 55.75 -54.4 Q53.75 -53.75 51.55 -53.25 L50.5 -59.75 49.0 -67.35 48.55 -69.15 51.8 -69.8 M38.65 -51.65 L37.4 -59.75 35.8 -67.35 35.65 -67.9 46.6 -68.9 46.95 -67.35 48.45 -59.75 49.55 -52.85 38.65 -51.65 M57.55 -33.5 L53.6 -32.65 Q53.0 -42.4 51.85 -51.25 L56.0 -52.35 Q56.95 -46.8 57.35 -41.3 L57.65 -34.3 57.55 -33.5 M15.65 -68.2 L22.5 -68.1 22.35 -67.35 Q21.55 -63.7 20.9 -59.75 L19.4 -50.45 15.2 -50.2 15.45 -55.7 15.6 -59.75 15.65 -67.35 15.65 -68.2 M35.15 -70.0 Q32.15 -81.0 27.4 -89.8 L40.05 -89.1 Q43.6 -80.75 46.1 -70.85 L35.15 -70.0 M-57.75 -31.85 L-57.7 -31.85 Q-57.6 -27.55 -57.05 -24.85 L-61.75 -25.6 -61.0 -32.45 -57.75 -31.85 M-4.15 -89.0 L-3.55 -91.35 10.45 -90.65 Q9.15 -86.4 7.95 -81.6 0.05 -82.65 -4.15 -89.0 M20.45 -42.05 L23.35 -42.55 30.4 -43.55 30.45 -43.55 30.0 -30.15 19.25 -29.45 20.45 -42.05 M31.4 -28.5 L38.0 -28.75 38.0 -21.2 33.75 -20.9 31.75 -20.9 30.75 -20.8 31.4 -28.2 31.4 -28.5 M39.0 -21.25 L40.0 -21.5 40.05 -28.9 51.7 -30.2 52.0 -22.7 48.8 -22.3 46.7 -22.0 39.0 -21.25 M53.95 -23.0 L53.7 -30.6 57.6 -31.4 57.15 -23.5 53.95 -23.0 M29.9 -28.1 L29.25 -20.85 29.25 -20.75 18.65 -20.45 19.1 -27.4 29.9 -28.1 M16.65 -20.45 L2.1 -20.5 2.5 -26.65 3.3 -27.05 Q10.5 -27.05 17.1 -27.3 L16.65 -20.45 M0.1 -20.55 L-12.95 -20.95 -12.85 -21.5 Q-5.1 -23.35 0.4 -25.65 L0.1 -20.55 M-14.95 -21.0 L-15.15 -21.0 -14.95 -21.05 -14.95 -21.0 M14.8 -41.2 L18.4 -41.7 17.25 -29.35 6.9 -29.15 8.45 -30.3 Q13.65 -34.5 14.8 -41.2 M38.8 -49.65 L49.85 -50.85 Q51.1 -42.05 51.65 -32.2 L40.05 -30.95 Q39.9 -40.8 38.8 -49.65 M-58.1 -101.2 L-57.15 -104.1 -53.35 -94.85 -53.45 -94.55 -53.7 -93.85 -57.0 -93.8 -56.95 -94.55 Q-56.6 -101.2 -57.0 -101.45 L-58.1 -101.2 M-48.35 -95.5 L-48.2 -95.7 Q-41.0 -99.95 -38.15 -101.2 L-36.7 -101.85 -37.85 -96.75 -42.2 -94.55 -43.1 -94.1 -49.15 -94.0 -48.85 -94.55 -48.35 -95.5 M-34.3 -102.85 Q-23.25 -107.75 -15.65 -110.15 L-15.05 -110.15 -16.55 -105.95 Q-19.8 -105.05 -24.7 -103.0 -29.75 -100.8 -35.55 -97.9 L-34.3 -102.85 M-14.25 -106.65 L-12.9 -110.15 -8.7 -109.95 0.05 -109.6 -1.2 -106.25 Q-3.15 -100.8 -4.8 -94.55 L-5.1 -93.5 -6.4 -93.55 -6.75 -94.35 -6.8 -94.55 -9.15 -102.85 Q-10.25 -106.8 -12.15 -106.8 L-14.25 -106.65 M-28.6 -87.0 Q-29.65 -88.15 -31.1 -88.2 -32.5 -88.25 -33.6 -87.2 -34.65 -86.1 -34.75 -84.6 -34.8 -83.2 -33.75 -82.1 -32.7 -80.95 -31.3 -80.85 -29.85 -80.8 -28.8 -81.9 -27.7 -82.9 -27.65 -84.4 -27.6 -85.9 -28.6 -87.0 M-31.3 -90.5 Q-28.8 -90.4 -27.1 -88.6 -25.4 -86.7 -25.5 -84.15 -25.55 -81.55 -27.35 -79.85 -29.2 -78.1 -31.6 -78.15 -34.1 -78.25 -35.85 -80.1 -37.55 -82.0 -37.5 -84.55 -37.4 -87.1 -35.55 -88.85 -33.75 -90.6 -31.3 -90.5 M-31.6 -69.75 L-30.55 -68.75 -29.55 -67.35 Q-28.95 -66.15 -29.0 -64.65 -29.05 -62.25 -30.8 -60.45 L-31.7 -59.75 Q-33.1 -58.9 -34.85 -58.95 L-37.0 -59.45 -37.5 -59.75 -38.75 -60.8 Q-40.4 -62.6 -40.25 -65.0 -40.25 -66.3 -39.7 -67.35 L-38.45 -69.0 -37.15 -70.0 -36.7 -70.0 -31.6 -69.75 M-31.95 -66.5 L-33.1 -67.35 -34.45 -67.65 -35.95 -67.35 -36.75 -66.8 -36.95 -66.65 Q-38.05 -65.6 -38.1 -64.15 -38.15 -62.65 -37.15 -61.55 L-36.95 -61.3 Q-36.0 -60.45 -34.7 -60.4 -33.25 -60.35 -32.1 -61.3 -31.1 -62.45 -31.05 -63.95 -31.0 -65.4 -31.95 -66.5 M-49.9 -91.95 L-44.4 -92.05 -43.2 -90.8 Q-41.75 -88.85 -41.85 -86.15 -42.0 -82.65 -44.05 -81.2 -45.35 -80.25 -46.6 -80.25 L-47.7 -80.85 Q-48.95 -81.45 -49.65 -82.0 L-51.85 -73.05 -55.7 -73.35 -53.9 -80.3 -51.6 -87.4 -49.9 -91.95 M-56.25 -71.35 L-47.45 -70.7 -47.15 -70.4 Q-45.95 -69.0 -45.6 -67.35 L-45.5 -65.85 Q-45.55 -63.5 -47.2 -61.75 -48.85 -60.05 -51.05 -60.15 L-52.4 -60.55 Q-53.75 -61.15 -54.45 -61.65 L-55.65 -54.9 -59.05 -55.4 -58.45 -59.75 -57.1 -67.35 -56.25 -71.35 M-59.2 -53.4 L-56.0 -52.85 -56.3 -51.3 -54.1 -51.6 Q-51.75 -51.55 -50.15 -49.9 -48.55 -48.3 -48.65 -45.85 -48.7 -43.6 -50.4 -42.15 -52.15 -40.55 -54.45 -40.6 -55.9 -40.65 -57.4 -41.55 L-57.7 -36.65 -57.75 -33.9 -60.8 -34.5 -59.2 -53.4 M-43.05 -85.95 Q-43.0 -87.45 -44.05 -88.6 -45.05 -89.7 -46.5 -89.75 -47.95 -89.8 -49.05 -88.75 -50.05 -87.75 -50.1 -86.2 -50.2 -84.75 -49.15 -83.65 -48.15 -82.55 -46.7 -82.45 -45.2 -82.45 -44.2 -83.45 -43.1 -84.45 -43.05 -85.95 M-55.3 -91.75 L-54.25 -91.85 Q-56.6 -84.0 -59.0 -73.65 L-63.25 -74.0 -62.8 -74.6 Q-61.9 -76.4 -60.8 -79.6 L-61.2 -80.05 -61.6 -79.85 -63.65 -75.25 -64.35 -74.05 -65.1 -74.15 -62.05 -86.85 Q-60.85 -86.25 -60.2 -85.7 L-58.5 -88.45 Q-56.3 -87.65 -55.9 -87.95 -55.5 -88.3 -55.3 -91.75 M-63.95 -87.65 L-67.0 -74.3 -73.95 -75.0 Q-72.4 -82.3 -70.65 -88.8 L-68.4 -89.15 Q-67.1 -89.15 -64.0 -87.7 L-63.95 -87.65 M-65.55 -71.65 L-64.95 -72.1 -59.4 -71.7 -60.35 -67.35 -62.0 -59.75 -62.75 -56.2 -67.65 -57.4 -68.4 -57.6 -68.0 -59.75 -66.5 -67.35 -65.55 -71.65 M-67.7 -71.45 L-68.55 -67.35 -70.05 -59.75 -70.35 -58.1 -73.9 -59.15 -71.9 -72.2 -67.7 -71.45 M-67.75 -35.95 L-70.4 -36.55 -71.85 -36.95 Q-70.4 -46.65 -68.75 -55.6 L-68.1 -55.45 -63.15 -54.35 -64.45 -47.85 Q-66.2 -39.35 -67.6 -36.25 L-67.7 -35.95 -67.75 -35.95 M-74.3 -57.1 L-70.7 -56.1 -73.8 -37.5 -77.1 -38.35 -74.3 -57.1 M-51.4 -69.5 Q-52.85 -69.6 -53.95 -68.5 L-54.75 -67.35 -55.05 -66.0 Q-55.1 -64.5 -54.05 -63.4 -53.05 -62.35 -51.65 -62.3 -50.15 -62.2 -49.05 -63.3 -48.0 -64.3 -47.95 -65.8 -47.9 -66.65 -48.25 -67.35 L-48.95 -68.35 Q-49.95 -69.45 -51.4 -69.5 M-40.8 -48.0 Q-39.3 -49.5 -37.3 -49.4 L-37.25 -49.45 Q-35.15 -49.4 -33.7 -47.8 -32.4 -46.35 -32.4 -44.4 L-32.35 -44.1 Q-32.5 -42.0 -33.95 -40.55 -35.5 -39.1 -37.55 -39.15 -39.65 -39.2 -41.05 -40.75 -42.55 -42.35 -42.45 -44.45 -42.35 -46.6 -40.8 -48.0 M-52.3 -48.55 Q-53.3 -49.65 -54.75 -49.7 -56.2 -49.7 -57.3 -48.7 -58.45 -47.7 -58.5 -46.25 -58.45 -44.75 -57.5 -43.55 -56.45 -42.45 -55.0 -42.45 -53.6 -42.4 -52.45 -43.4 -51.35 -44.45 -51.35 -45.9 -51.3 -47.4 -52.3 -48.55 M-77.4 -36.3 L-74.1 -35.4 -74.5 -32.75 Q-75.7 -32.95 -76.65 -33.45 L-77.1 -34.85 -77.4 -36.3 M-35.3 -41.6 Q-34.15 -42.65 -34.1 -44.05 L-34.15 -44.5 Q-34.25 -45.7 -35.1 -46.7 -36.05 -47.65 -37.35 -47.75 L-37.5 -47.8 Q-38.95 -47.85 -40.1 -46.85 -41.15 -45.75 -41.2 -44.3 -41.25 -42.8 -40.25 -41.75 -39.2 -40.65 -37.75 -40.6 -36.35 -40.55 -35.3 -41.6" fill="#82a1b5" fill-rule="evenodd" stroke="none"/>
    <path d="M-46.85 -9.6 L-47.05 -8.95 -47.1 -9.6 -46.85 -9.6" fill="#b17034" fill-rule="evenodd" stroke="none"/>
    <path d="M12.9 -139.55 Q16.95 -138.9 20.75 -136.55 L21.15 -136.25 21.55 -136.05 22.9 -135.2 23.7 -134.6 26.3 -132.55 28.05 -130.9 30.4 -128.6 31.7 -127.25 Q28.45 -128.8 24.9 -129.95 L21.95 -132.55 Q17.65 -136.2 12.9 -139.55 M35.65 -122.65 L41.2 -115.15 44.4 -110.4 45.0 -109.45 45.2 -109.2 45.7 -108.55 46.05 -108.0 46.0 -108.0 46.5 -107.2 46.75 -107.0 43.15 -108.45 Q36.8 -118.15 28.6 -126.45 32.35 -124.85 35.65 -122.65 M49.2 -103.35 L52.3 -98.5 52.35 -98.45 52.9 -97.4 53.35 -96.6 54.4 -94.55 56.7 -89.7 52.8 -90.1 50.85 -94.55 Q48.15 -100.2 44.95 -105.45 47.15 -104.5 49.2 -103.35 M57.55 -87.65 L57.55 -87.6 57.95 -86.6 58.4 -85.45 58.45 -85.45 59.8 -81.95 59.9 -81.55 60.2 -80.85 60.25 -80.7 60.4 -80.3 60.55 -79.8 60.7 -79.4 60.7 -79.35 61.75 -75.4 58.45 -73.95 Q56.35 -81.3 53.6 -88.05 L57.55 -87.65 M62.15 -73.4 L62.65 -70.95 62.95 -69.4 63.0 -69.15 63.35 -67.35 63.55 -66.3 64.7 -59.75 64.75 -59.45 62.1 -57.2 61.65 -59.75 60.1 -67.35 58.95 -71.9 Q60.65 -72.55 62.15 -73.35 L62.15 -73.4 M65.05 -57.5 L65.45 -53.8 65.45 -53.4 65.75 -51.4 65.75 -51.35 66.95 -40.95 67.35 -38.1 Q66.1 -36.95 64.3 -36.05 63.85 -45.95 62.4 -55.0 63.95 -55.85 65.1 -56.85 L65.05 -57.5 M67.75 -35.65 L67.75 -35.6 68.3 -30.7 Q68.45 -27.75 67.35 -25.75 L65.05 -25.2 64.55 -25.05 64.4 -33.75 67.75 -35.65 M65.2 -24.25 L64.3 -23.8 62.35 -23.3 62.4 -23.4 65.2 -24.25 M57.9 -22.4 L49.15 -20.5 48.65 -20.5 48.75 -21.15 57.9 -22.4 M46.6 -20.2 L18.6 -18.6 18.55 -19.45 31.7 -19.9 31.65 -19.25 33.6 -19.35 33.7 -19.9 35.6 -20.1 46.7 -20.85 46.6 -20.2 M16.6 -18.55 L15.3 -18.45 2.0 -18.5 2.05 -19.45 16.55 -19.45 16.6 -18.55 M0.0 -18.55 Q-6.65 -18.65 -13.05 -18.9 L-12.95 -20.0 -8.95 -19.85 0.05 -19.5 0.0 -18.55 M-15.05 -18.95 L-28.4 -19.7 -28.4 -20.7 -14.95 -20.0 -15.05 -18.95 M-30.35 -19.95 L-32.95 -20.1 -46.4 -21.4 -46.3 -21.85 -46.2 -22.25 -30.4 -20.9 -30.35 -19.95 M-48.25 -21.7 L-55.4 -22.8 -55.65 -22.95 Q-59.65 -23.7 -61.85 -24.6 L-48.25 -22.45 -48.25 -22.0 -48.25 -21.7 M-63.8 -24.15 Q-68.6 -25.0 -73.35 -26.3 L-73.25 -26.75 -64.05 -25.0 -63.8 -24.15 M-75.3 -26.85 L-76.55 -27.3 -82.05 -29.25 -75.3 -27.25 -75.3 -26.85 M-84.3 -31.3 Q-84.95 -31.65 -84.9 -31.95 L-84.2 -38.65 -82.75 -38.1 -83.8 -31.05 -84.3 -31.3 M-83.9 -40.7 L-83.15 -47.3 -81.3 -59.6 -79.3 -58.8 -82.2 -41.9 -82.45 -40.1 -83.85 -40.7 -83.9 -40.7 M-81.0 -61.6 L-79.8 -67.35 -77.95 -73.55 -76.35 -73.35 -77.65 -67.35 -78.95 -60.85 -81.0 -61.6 M-77.7 -75.5 Q-77.4 -80.5 -76.05 -86.05 L-74.5 -91.45 -74.75 -90.5 -72.2 -90.75 -73.25 -86.55 -74.0 -84.95 -74.65 -80.95 -75.95 -75.25 -77.7 -75.5 M-74.2 -92.5 L-73.7 -94.2 -73.1 -93.85 -71.6 -93.1 Q-71.55 -93.0 -71.65 -92.85 L-74.15 -92.65 -74.2 -92.5 M9.25 -139.55 Q14.2 -136.25 18.65 -132.55 L20.35 -131.1 Q16.0 -132.15 11.2 -132.55 L7.55 -132.75 7.5 -132.75 7.15 -133.1 6.2 -135.4 7.65 -137.8 9.25 -139.55 M10.25 -130.55 Q17.6 -130.0 23.8 -128.05 33.0 -119.6 40.0 -109.4 35.25 -110.65 29.65 -111.15 L25.05 -116.35 24.9 -116.5 24.8 -116.6 24.55 -116.85 23.85 -117.7 Q18.7 -123.25 12.85 -128.35 12.0 -129.0 11.25 -129.7 11.0 -129.9 10.85 -130.05 L10.25 -130.55 M33.35 -106.05 L31.4 -108.85 Q37.0 -108.25 41.85 -106.6 45.55 -100.9 48.6 -94.55 L50.45 -90.45 42.75 -90.95 40.75 -94.55 36.9 -100.9 35.6 -102.75 33.5 -105.85 33.35 -106.05 M43.8 -88.9 L51.35 -88.3 Q54.3 -81.1 56.45 -73.25 L51.1 -71.75 50.45 -73.75 47.45 -81.2 45.5 -85.5 43.8 -88.9 M51.8 -69.8 L57.1 -71.15 58.05 -67.35 59.6 -59.75 60.2 -56.1 59.4 -55.75 55.75 -54.4 55.55 -55.25 54.6 -59.75 54.2 -61.3 54.2 -61.35 53.15 -65.25 53.15 -65.2 52.55 -67.35 52.2 -68.35 51.8 -69.8 M56.0 -52.35 Q58.4 -52.95 60.25 -53.85 L60.55 -54.0 Q61.9 -45.0 62.3 -35.15 L61.7 -34.85 Q59.9 -34.1 57.55 -33.5 L57.65 -34.3 57.35 -41.3 Q56.95 -46.8 56.0 -52.35 M57.6 -31.4 Q60.25 -32.05 62.45 -32.95 L62.55 -24.5 57.15 -23.5 57.6 -31.4 M5.45 -133.95 L5.9 -132.55 5.95 -132.4 4.6 -132.45 4.65 -132.55 5.45 -133.95 M34.5 -45.25 L34.75 -44.25 33.7 -44.1 31.9 -43.8 30.45 -43.55 30.4 -43.55 23.35 -42.55 20.45 -42.05 20.55 -42.65 20.55 -42.85 30.3 -44.4 30.35 -44.4 33.9 -45.1 34.5 -45.25 M3.45 -130.5 L6.15 -130.35 1.55 -122.4 -8.75 -119.55 -7.25 -122.4 -1.05 -124.5 Q0.35 -125.0 0.45 -125.2 L3.45 -130.5 M18.5 -42.5 L18.4 -41.7 14.8 -41.2 3.7 -41.0 3.7 -41.45 12.4 -41.95 18.5 -42.5 M1.7 -41.4 L1.7 -40.9 -11.5 -40.75 -11.35 -41.75 Q-4.6 -41.4 1.7 -41.4 M-62.0 -108.55 L-61.0 -109.85 -59.6 -110.0 -57.25 -110.1 -57.35 -109.95 -58.35 -106.95 -60.1 -101.35 -60.3 -101.5 -60.2 -104.4 Q-59.7 -107.35 -59.85 -108.5 L-62.0 -108.55 M-59.45 -112.05 L-58.5 -113.45 -58.05 -112.15 -59.45 -112.05 M-57.15 -104.1 L-56.15 -107.15 -53.95 -102.25 -50.8 -95.9 -50.8 -95.85 -50.95 -94.55 -51.1 -93.95 -53.7 -93.85 -53.45 -94.55 -53.35 -94.85 -57.15 -104.1 M-81.85 -30.35 L-80.8 -37.45 -80.6 -37.4 -77.4 -36.3 -77.1 -34.85 -76.65 -33.45 Q-75.7 -32.95 -74.5 -32.75 L-75.1 -28.5 Q-79.45 -29.55 -81.85 -30.35 M-77.1 -38.35 L-80.5 -39.45 -77.35 -58.15 -74.3 -57.1 -77.1 -38.35 M-73.9 -59.15 L-75.8 -59.75 -77.0 -60.15 -75.55 -67.35 -74.45 -72.85 -74.35 -73.05 -71.8 -72.7 -69.9 -72.5 -69.65 -72.45 -67.9 -72.35 -67.85 -72.35 -67.55 -72.35 -67.7 -71.45 -71.9 -72.2 -73.9 -59.15 M-54.25 -91.85 L-51.55 -91.9 Q-52.35 -89.0 -54.0 -84.4 -56.2 -78.35 -57.5 -73.5 L-59.0 -73.65 Q-56.6 -84.0 -54.25 -91.85 M-58.5 -88.45 L-60.2 -85.7 Q-60.85 -86.25 -62.05 -86.85 L-61.4 -89.4 -58.7 -88.8 -58.5 -88.45 M-64.35 -74.05 L-63.65 -75.25 -61.6 -79.85 -61.2 -80.05 -60.8 -79.6 Q-61.9 -76.4 -62.8 -74.6 L-63.25 -74.0 -64.35 -74.05 M-59.4 -71.7 L-58.0 -71.5 -58.75 -67.8 -58.8 -67.35 -59.85 -59.75 -60.25 -55.9 -60.3 -55.7 -62.75 -56.2 -62.0 -59.75 -60.35 -67.35 -59.4 -71.7 M-57.7 -91.65 L-58.55 -89.85 -61.05 -90.6 -60.8 -91.55 -57.7 -91.65 M-70.65 -88.8 L-70.05 -90.95 -66.95 -91.2 -64.35 -90.3 -63.3 -89.95 -63.95 -87.65 -64.0 -87.7 Q-67.1 -89.15 -68.4 -89.15 L-70.65 -88.8 M-64.95 -72.1 L-65.55 -71.65 -65.5 -72.1 -64.95 -72.1 M-63.15 -54.35 L-60.45 -53.65 -61.05 -46.9 -62.35 -36.95 -62.65 -34.8 -67.7 -35.95 -67.6 -36.25 Q-66.2 -39.35 -64.45 -47.85 L-63.15 -54.35 M-62.9 -32.8 L-63.65 -25.9 -63.8 -26.0 -73.2 -27.95 -73.15 -28.0 -72.5 -32.55 -72.35 -32.55 Q-70.35 -32.45 -68.9 -34.1 L-62.9 -32.8" fill="#5a819a" fill-rule="evenodd" stroke="none"/>
    <path d="M29.6 -130.8 L29.65 -130.8 30.0 -130.45 29.6 -130.8 M-44.4 -133.15 L-44.2 -133.45 -44.15 -133.45 -44.4 -133.15 M46.05 -108.0 L46.5 -107.2 46.0 -108.0 46.05 -108.0 M46.8 -106.95 L47.6 -105.75 47.5 -105.8 47.0 -106.55 46.8 -106.95 M57.95 -86.6 L58.45 -85.45 58.4 -85.45 57.95 -86.6 M-84.2 -38.65 L-83.9 -40.7 -83.85 -40.7 -84.2 -38.65 M-70.1 -98.15 L-70.15 -98.15 -70.15 -98.2 -70.1 -98.15 M2.05 -19.45 L0.05 -19.5 2.05 -19.5 2.05 -19.45 M-24.35 -131.4 L-23.1 -132.55 -22.2 -133.4 -22.15 -133.4 -23.05 -132.55 -24.35 -131.4 M-73.2 -27.95 L-75.1 -28.5 -73.15 -28.0 -73.2 -27.95" fill="#595959" fill-rule="evenodd" stroke="none"/>
    <path d="M-13.0 -48.35 L-13.35 -48.1 Q-13.8 -47.55 -13.9 -44.45 L-13.9 -43.75 -13.9 -41.05 Q-13.85 -40.6 -13.5 -40.45 L-14.35 -29.5 -27.95 -30.3 -26.85 -44.2 -26.4 -49.15 -13.0 -48.35 M7.95 -81.6 L6.65 -75.35 5.65 -70.4 -7.7 -70.85 -6.85 -75.8 -4.15 -89.0 Q0.05 -82.65 7.95 -81.6 M-6.4 -93.55 L-9.2 -93.6 -18.35 -93.9 -18.15 -94.55 -14.25 -106.65 -12.15 -106.8 Q-10.25 -106.8 -9.15 -102.85 L-6.8 -94.55 -6.75 -94.35 -6.4 -93.55 M-16.55 -105.95 Q-18.55 -100.55 -20.2 -94.55 L-20.4 -93.85 Q-28.75 -94.2 -36.35 -94.15 L-36.25 -94.55 -35.55 -97.9 Q-29.75 -100.8 -24.7 -103.0 -19.8 -105.05 -16.55 -105.95 M-37.85 -96.75 L-38.35 -94.55 -38.45 -94.15 -43.1 -94.1 -42.2 -94.55 -37.85 -96.75 M-44.4 -92.05 L-38.95 -92.05 Q-40.9 -82.85 -42.55 -72.45 L-51.85 -73.05 -49.65 -82.0 Q-48.95 -81.45 -47.7 -80.85 L-46.6 -80.25 Q-45.35 -80.25 -44.05 -81.2 -42.0 -82.65 -41.85 -86.15 -41.75 -88.85 -43.2 -90.8 L-44.4 -92.05 M-47.45 -70.7 L-42.85 -70.45 -43.3 -67.35 -44.35 -59.75 -45.2 -53.2 -55.65 -54.9 -54.45 -61.65 Q-53.75 -61.15 -52.4 -60.55 L-51.05 -60.15 Q-48.85 -60.05 -47.2 -61.75 -45.55 -63.5 -45.5 -65.85 L-45.6 -67.35 Q-45.95 -69.0 -47.15 -70.4 L-47.45 -70.7 M-56.0 -52.85 L-45.5 -51.15 -47.45 -32.3 -57.75 -33.9 -57.7 -36.65 -57.4 -41.55 Q-55.9 -40.65 -54.45 -40.6 -52.15 -40.55 -50.4 -42.15 -48.7 -43.6 -48.65 -45.85 -48.55 -48.3 -50.15 -49.9 -51.75 -51.55 -54.1 -51.6 L-56.3 -51.3 -56.0 -52.85 M-57.7 -31.85 L-47.65 -30.25 -48.1 -23.95 -57.05 -24.85 Q-57.6 -27.55 -57.7 -31.85 M-46.15 -23.8 L-45.65 -30.0 -30.0 -28.35 -30.35 -22.35 -38.2 -23.05 -46.15 -23.8 M-28.3 -22.1 L-28.0 -28.2 -14.55 -27.45 -14.95 -21.05 -15.15 -21.0 -28.3 -22.1 M-12.85 -21.5 L-12.55 -27.35 -11.35 -27.3 0.45 -27.05 0.4 -25.65 Q-5.1 -23.35 -12.85 -21.5 M2.5 -26.65 L2.45 -27.1 3.3 -27.05 2.5 -26.65 M6.9 -29.15 L2.7 -29.1 3.7 -41.0 14.8 -41.2 Q13.65 -34.5 8.45 -30.3 L6.9 -29.15 M1.7 -40.9 Q1.05 -35.25 0.7 -29.15 L-11.25 -29.35 -12.35 -29.4 -11.5 -40.75 1.7 -40.9 M15.65 -70.25 L7.7 -70.4 Q8.1 -72.9 8.65 -75.2 L10.05 -81.45 10.15 -81.45 13.05 -81.15 Q14.3 -80.65 14.9 -78.6 L15.4 -75.0 15.65 -70.25 M15.65 -68.2 L15.65 -67.35 15.6 -59.75 15.45 -55.7 15.2 -50.2 4.6 -50.0 Q5.2 -55.05 5.95 -59.75 6.5 -63.65 7.2 -67.35 L7.35 -68.35 15.65 -68.2 M2.6 -50.05 L-10.5 -50.3 -9.4 -59.75 -8.25 -67.35 -8.05 -68.75 5.3 -68.4 5.1 -67.35 3.9 -59.75 2.6 -50.05 M-5.6 -91.45 Q-7.45 -84.2 -8.9 -75.9 L-9.8 -70.85 -9.95 -70.85 -23.35 -71.45 -22.45 -76.35 Q-20.9 -84.5 -18.85 -91.8 L-9.25 -91.55 -5.6 -91.45 M-31.3 -90.5 Q-33.75 -90.6 -35.55 -88.85 -37.4 -87.1 -37.5 -84.55 -37.55 -82.0 -35.85 -80.1 -34.1 -78.25 -31.6 -78.15 -29.2 -78.1 -27.35 -79.85 -25.55 -81.55 -25.5 -84.15 -25.4 -86.7 -27.1 -88.6 -28.8 -90.4 -31.3 -90.5 M-40.5 -72.35 Q-38.9 -82.75 -36.9 -92.1 L-20.9 -91.85 Q-22.95 -84.45 -24.5 -76.4 L-25.3 -71.45 -36.6 -72.1 -40.5 -72.35 M-37.15 -70.0 L-38.45 -69.0 -39.7 -67.35 Q-40.25 -66.3 -40.25 -65.0 -40.4 -62.6 -38.75 -60.8 L-37.5 -59.75 -37.0 -59.45 -34.85 -58.95 Q-33.1 -58.9 -31.7 -59.75 L-30.8 -60.45 Q-29.05 -62.25 -29.0 -64.65 -28.95 -66.15 -29.55 -67.35 L-30.55 -68.75 -31.6 -69.75 -25.7 -69.45 -26.05 -67.35 -27.2 -59.75 -28.2 -51.3 -37.25 -52.15 -43.25 -52.9 -42.35 -59.75 -41.25 -67.35 -40.8 -70.35 -37.15 -70.0 M-12.5 -50.35 L-26.2 -51.2 -25.15 -59.75 -24.0 -67.35 -23.65 -69.4 -10.05 -68.8 -10.25 -67.35 -11.4 -59.75 -12.5 -50.35 M-73.25 -86.55 L-74.65 -80.95 -74.0 -84.95 -73.25 -86.55 M-40.8 -48.0 Q-42.35 -46.6 -42.45 -44.45 -42.55 -42.35 -41.05 -40.75 -39.65 -39.2 -37.55 -39.15 -35.5 -39.1 -33.95 -40.55 -32.5 -42.0 -32.35 -44.1 L-32.4 -44.4 Q-32.4 -46.35 -33.7 -47.8 -35.15 -49.4 -37.25 -49.45 L-37.3 -49.4 Q-39.3 -49.5 -40.8 -48.0 M-72.5 -32.55 L-72.15 -34.95 -70.95 -34.55 -68.9 -34.1 Q-70.35 -32.45 -72.35 -32.55 L-72.5 -32.55 M-28.4 -49.25 L-28.85 -44.25 -29.95 -30.4 -45.45 -32.05 -43.5 -50.85 -37.35 -50.05 -28.4 -49.25" fill="#9db6c6" fill-rule="evenodd" stroke="none"/>
    <path d="M67.9 -22.9 L66.95 -17.75 66.05 -12.1 64.65 -9.05 61.8 -8.5 58.05 -7.35 Q57.55 -7.8 56.95 -7.5 L55.65 -7.3 54.35 -7.3 54.5 -9.8 54.75 -9.95 55.1 -10.1 Q57.25 -11.0 59.55 -11.15 L59.8 -11.15 62.85 -11.6 Q64.95 -12.5 65.9 -22.1 L66.75 -22.45 67.9 -22.9 M-82.65 -15.5 L-83.3 -16.6 Q-84.9 -18.75 -84.5 -23.1 -84.15 -27.1 -84.65 -28.3 -82.55 -28.3 -79.3 -25.9 -81.2 -26.45 -82.25 -27.1 L-82.5 -27.15 -82.55 -27.2 -82.6 -27.2 -82.6 -27.15 -82.6 -27.05 -82.6 -26.3 -82.55 -26.0 Q-82.1 -16.65 -78.65 -15.6 L-76.7 -15.35 -74.65 -15.15 Q-71.9 -14.8 -69.95 -13.65 L-69.8 -19.0 -69.6 -22.7 -68.7 -22.55 -68.75 -19.6 Q-68.9 -14.95 -67.55 -12.9 -66.7 -11.6 -64.4 -10.8 L-60.35 -9.65 -59.35 -9.55 -53.35 -9.0 -53.0 -9.0 -50.0 -8.9 -48.45 -8.9 -47.05 -8.95 -46.85 -9.6 -46.5 -19.3 -43.7 -18.9 -43.45 -18.85 -45.5 -19.0 -45.85 -8.8 -45.0 -8.7 -29.4 -8.15 -28.9 -8.1 -28.75 -6.65 -28.65 -5.25 -28.8 -4.4 -28.75 -5.65 -51.85 -7.7 -51.9 -7.7 -54.3 -7.9 -57.1 -8.2 -59.05 -8.45 -71.0 -11.45 -72.35 -11.35 Q-74.05 -12.4 -77.2 -13.75 -80.85 -15.3 -82.65 -15.5 M15.95 -4.7 Q15.85 -5.0 15.9 -5.25 15.85 -5.9 16.15 -6.5 L18.05 -6.6 44.1 -8.1 47.6 -8.35 48.2 -8.35 48.2 -6.7 44.3 -5.75 38.0 -5.3 37.3 -5.3 36.3 -5.35 36.2 -5.35 36.0 -5.4 35.85 -5.35 35.05 -5.3 33.0 -5.25 15.95 -4.7" fill="#1e1e1e" fill-rule="evenodd" stroke="none"/>
    <path d="M10.05 -144.9 Q14.6 -141.55 20.1 -138.25 24.55 -135.7 27.9 -132.55 L29.6 -130.8 30.0 -130.45 30.05 -130.4 30.15 -130.2 Q33.95 -126.25 37.95 -121.3 46.4 -111.05 52.6 -101.2 L56.5 -94.55 Q59.7 -88.7 60.7 -84.75 L60.95 -83.6 63.7 -73.3 65.2 -67.35 66.0 -63.95 67.0 -59.75 Q68.35 -53.4 68.85 -48.5 L69.6 -40.85 69.75 -38.15 69.85 -37.05 69.8 -26.45 68.15 -23.65 67.9 -22.9 66.75 -22.45 65.9 -22.1 65.9 -22.4 Q64.8 -21.7 62.2 -20.95 L60.45 -20.6 60.1 -20.5 57.8 -19.95 54.7 -19.4 54.7 -19.15 53.5 -19.25 50.45 -18.85 48.6 -18.5 48.5 -18.5 46.75 -18.2 46.55 -18.25 33.5 -17.05 31.55 -16.9 16.2 -16.45 16.2 -16.35 14.95 -16.3 14.15 -16.3 14.2 -16.45 Q2.5 -16.45 -12.15 -16.95 L-14.1 -17.05 -14.55 -17.1 -17.75 -17.2 -21.85 -17.3 -26.4 -17.6 -28.35 -18.1 -28.35 -18.3 -43.45 -18.85 -43.7 -18.9 -46.5 -19.3 -46.5 -19.95 -68.65 -23.55 -68.7 -22.55 -69.6 -22.7 -69.65 -23.2 -73.65 -24.1 -75.6 -24.7 -76.2 -24.85 -79.3 -25.9 Q-82.55 -28.3 -84.65 -28.3 L-84.75 -28.55 -86.1 -30.4 Q-86.95 -31.5 -86.9 -32.05 -86.6 -42.05 -83.4 -59.75 L-81.95 -67.35 -81.15 -71.35 Q-77.75 -87.9 -75.15 -94.55 -73.35 -99.3 -71.9 -99.05 L-70.15 -98.15 -70.1 -98.15 -70.05 -98.1 -69.45 -97.8 -67.45 -97.15 -66.35 -96.65 -67.55 -96.55 -70.15 -95.95 -70.7 -96.15 -72.25 -96.95 -73.25 -95.1 -73.7 -94.2 -74.2 -92.5 -74.35 -92.05 -74.5 -91.45 -76.05 -86.05 Q-77.4 -80.5 -77.7 -75.5 L-77.8 -74.0 -77.95 -73.55 -79.8 -67.35 -81.0 -61.6 -81.05 -61.25 -81.25 -59.75 -81.3 -59.6 -83.15 -47.3 -83.9 -40.7 -84.2 -38.65 -84.9 -31.95 Q-84.95 -31.65 -84.3 -31.3 L-82.6 -29.5 -82.05 -29.25 -76.55 -27.3 -75.3 -26.85 -73.35 -26.3 Q-68.6 -25.0 -63.8 -24.15 L-55.65 -22.95 -55.4 -22.8 -48.25 -21.7 -46.65 -21.5 -46.4 -21.4 -32.95 -20.1 -30.35 -19.95 -28.4 -19.7 -15.05 -18.95 -15.05 -18.9 -14.05 -18.9 -13.05 -18.9 Q-6.65 -18.65 0.0 -18.55 L1.4 -18.5 2.0 -18.5 15.3 -18.45 16.6 -18.55 18.6 -18.6 46.6 -20.2 48.65 -20.5 49.15 -20.5 57.9 -22.4 60.3 -22.95 60.95 -23.05 61.15 -23.1 62.35 -23.3 64.3 -23.8 65.2 -24.25 67.25 -25.1 67.35 -25.75 Q68.45 -27.75 68.3 -30.7 L67.75 -35.6 67.75 -35.65 67.65 -36.1 67.5 -37.25 67.45 -37.7 67.35 -38.1 66.95 -40.95 65.75 -51.35 65.75 -51.4 65.45 -53.4 65.45 -53.8 65.05 -57.5 64.9 -58.35 64.85 -58.45 64.75 -59.45 64.7 -59.75 63.55 -66.3 63.35 -67.35 63.0 -69.15 62.95 -69.4 62.65 -70.95 62.15 -73.4 61.75 -75.4 60.7 -79.35 60.7 -79.4 60.55 -79.8 60.4 -80.3 60.25 -80.7 60.2 -80.85 59.9 -81.55 59.8 -81.95 58.45 -85.45 57.95 -86.6 57.55 -87.6 57.55 -87.65 57.5 -87.7 56.7 -89.7 54.4 -94.55 53.35 -96.6 52.9 -97.4 52.35 -98.45 52.3 -98.5 49.2 -103.35 49.05 -103.6 47.75 -105.65 47.65 -105.7 47.6 -105.75 46.8 -106.95 46.75 -107.0 46.5 -107.2 46.05 -108.0 45.7 -108.55 45.2 -109.2 45.0 -109.45 44.4 -110.4 41.2 -115.15 35.65 -122.65 31.7 -127.25 30.4 -128.6 28.05 -130.9 26.3 -132.55 23.7 -134.6 22.9 -135.2 21.55 -136.05 21.15 -136.25 20.75 -136.55 Q16.95 -138.9 12.9 -139.55 L12.85 -139.55 10.1 -139.85 10.05 -139.85 9.65 -139.7 9.25 -139.55 7.65 -137.8 10.05 -144.9 M-65.25 -107.2 L-60.05 -115.15 Q-58.7 -117.7 -58.65 -119.7 L-58.5 -113.45 -59.45 -112.05 -61.0 -109.85 -62.0 -108.55 Q-63.65 -108.05 -65.2 -107.2 L-65.25 -107.2" fill="#314553" fill-rule="evenodd" stroke="none"/>
    <path d="M-44.15 -133.45 Q-40.35 -136.35 -36.65 -138.4 -25.4 -145.0 -15.85 -148.25 -4.45 -152.05 6.2 -151.65 L6.5 -151.4 Q7.1 -150.2 10.4 -146.85 10.65 -146.05 10.05 -144.9 L7.65 -137.8 6.2 -135.4 5.65 -134.5 5.45 -133.95 4.65 -132.55 4.6 -132.45 4.55 -132.4 3.45 -130.5 0.45 -125.2 Q0.35 -125.0 -1.05 -124.5 L-7.25 -122.4 -9.8 -121.6 -9.95 -121.55 -9.4 -119.35 -9.25 -118.6 Q-7.9 -113.8 -8.0 -112.85 -8.0 -112.65 -9.6 -112.05 L-12.95 -111.05 -15.65 -110.15 Q-23.25 -107.75 -34.3 -102.85 L-36.7 -101.85 -38.15 -101.2 Q-41.0 -99.95 -48.2 -95.7 L-48.35 -95.5 -50.15 -94.4 -50.8 -95.85 -50.8 -95.9 -53.95 -102.25 -56.15 -107.15 -57.05 -109.35 -57.35 -109.95 -57.25 -110.1 -58.05 -112.15 -58.5 -113.45 -58.65 -119.7 -58.15 -120.65 -55.85 -123.25 -48.5 -130.0 -45.25 -132.55 -44.85 -132.85 -44.5 -133.1 -44.4 -133.15 -44.15 -133.45 M64.65 -9.05 L62.45 -4.5 61.6 -2.9 Q57.25 5.65 52.25 10.3 22.85 38.25 -9.25 37.15 -26.2 36.55 -42.75 28.25 -62.85 18.15 -74.45 0.15 -77.15 -4.2 -79.55 -9.55 L-79.75 -9.85 -82.65 -15.5 Q-80.85 -15.3 -77.2 -13.75 -74.05 -12.4 -72.35 -11.35 L-73.35 -11.25 -74.2 -11.0 -74.3 -11.05 Q-75.9 -10.4 -75.9 -9.25 L-75.95 -9.05 Q-75.95 -3.65 -69.6 4.05 -66.85 7.3 -63.5 10.45 -59.0 14.8 -53.15 18.95 L-50.6 20.75 Q-41.2 27.1 -31.5 30.85 -19.05 35.65 -9.25 35.15 L-9.1 35.2 Q4.0 36.75 22.5 28.7 L22.75 28.55 25.05 27.5 25.85 27.2 25.85 27.15 26.9 26.65 27.85 24.75 28.45 24.2 29.2 24.3 29.7 24.95 29.8 25.25 Q39.7 20.0 44.65 14.9 50.7 9.95 54.85 3.35 57.65 -1.05 58.35 -4.0 L58.55 -5.95 Q58.65 -6.8 58.05 -7.35 L61.8 -8.5 64.65 -9.05 M-71.9 -99.05 Q-71.25 -100.7 -69.3 -103.25 L-68.2 -104.6 Q-66.6 -106.5 -65.25 -107.2 L-65.2 -107.2 Q-63.65 -108.05 -62.0 -108.55 L-59.85 -108.5 Q-59.7 -107.35 -60.2 -104.4 L-60.3 -101.5 -60.1 -101.35 -58.15 -101.2 -58.1 -101.2 -57.0 -101.45 Q-56.6 -101.2 -56.95 -94.55 L-57.0 -93.8 -57.0 -93.65 -60.0 -94.35 -60.05 -94.5 -60.05 -94.55 -60.7 -96.95 -61.15 -98.05 Q-61.85 -100.5 -62.1 -100.35 L-62.05 -104.2 -62.05 -106.35 Q-63.9 -106.15 -66.55 -103.1 L-67.15 -102.4 Q-69.0 -100.15 -70.1 -98.15 L-70.15 -98.2 -70.15 -98.15 -71.9 -99.05 M3.55 -147.55 L-12.4 -136.75 -13.15 -136.2 -10.35 -123.65 -1.0 -126.6 2.4 -132.55 5.45 -137.7 Q9.95 -147.0 5.95 -149.2 L3.55 -147.55 M14.1 -13.5 L14.15 -16.3 14.95 -16.3 16.2 -16.35 15.9 -6.5 16.15 -6.5 Q15.85 -5.9 15.9 -5.25 15.85 -5.0 15.95 -4.7 L15.7 -2.1 15.7 -1.3 14.0 -1.45 13.75 -2.45 13.8 -4.5 14.1 -13.5 M-26.4 -17.55 L-26.45 -14.35 -26.75 -6.6 -26.85 -3.1 -27.1 -2.1 -27.15 -1.85 -27.9 -1.75 Q-28.55 -1.7 -28.75 -2.15 L-28.85 -2.85 -28.85 -3.45 -28.8 -4.4 -28.65 -5.25 -28.75 -6.65 -28.9 -8.1 -28.65 -8.15 -28.35 -18.1 -26.4 -17.6 -26.4 -17.55 M48.2 -8.35 L48.45 -8.35 48.7 -18.5 48.6 -18.5 50.45 -18.85 53.5 -19.25 54.7 -19.15 54.7 -18.9 54.55 -14.6 54.45 -9.8 54.5 -9.8 54.35 -7.3 54.15 -6.85 Q53.8 -5.8 53.25 -5.8 52.6 -5.85 52.5 -6.1 L52.4 -6.65 52.7 -19.1 50.7 -18.75 50.25 -6.15 50.25 -5.25 50.1 -5.05 49.35 -4.95 Q48.7 -4.95 48.5 -5.4 L48.4 -6.7 48.3 -6.7 48.2 -6.7 48.2 -8.35 M36.0 -5.4 L36.2 -5.35 36.3 -5.35 37.3 -5.3 38.0 -5.3 37.95 -4.95 37.8 -2.35 Q37.8 -1.9 37.45 -1.6 L36.7 -1.35 Q36.3 -1.4 36.0 -1.7 L35.8 -2.5 36.0 -5.3 36.0 -5.4 M29.6 21.9 L29.55 21.8 Q29.4 21.4 29.6 21.0 L31.1 17.25 Q31.3 16.85 31.65 16.65 L32.45 16.6 32.95 17.15 33.0 18.0 32.0 20.45 31.4 21.9 30.85 22.45 30.1 22.4 Q29.7 22.25 29.6 21.9 M-39.65 -134.25 L-43.05 -132.55 Q-48.25 -129.55 -52.4 -124.7 -56.65 -119.75 -56.7 -117.75 -56.65 -112.65 -55.35 -108.55 -53.75 -103.55 -49.95 -98.0 -47.0 -104.95 -45.1 -110.2 L-36.75 -132.55 -35.05 -137.05 -39.65 -134.25 M-58.85 -96.6 L-58.8 -99.45 -59.9 -99.5 -58.85 -96.6 M-16.45 -134.15 L-18.85 -132.55 Q-37.1 -120.2 -41.65 -112.5 -42.9 -110.35 -44.0 -106.6 -45.0 -103.1 -46.55 -100.95 L-47.75 -98.15 Q-40.45 -102.25 -30.45 -106.45 -19.4 -111.2 -10.2 -113.7 L-14.95 -135.15 -16.45 -134.15 M-22.15 -133.4 L-17.25 -137.75 -14.8 -137.6 2.8 -149.55 Q-4.9 -149.6 -16.25 -146.05 -26.3 -142.8 -29.6 -140.35 -31.8 -138.6 -34.45 -133.5 L-34.9 -132.55 -35.4 -131.45 -36.6 -128.85 Q-39.5 -122.0 -40.95 -116.3 L-31.8 -124.75 -24.35 -131.4 -23.05 -132.55 -22.15 -133.4 M26.3 14.75 L25.5 14.85 Q8.45 12.3 -3.85 3.45 L-4.2 3.1 -4.25 2.75 Q-4.35 2.35 -4.1 2.05 -3.9 1.7 -3.5 1.65 -3.1 1.5 -2.75 1.8 L-2.5 1.95 Q9.4 10.4 25.8 12.8 L26.5 13.3 26.55 13.35 26.65 14.0 26.3 14.7 26.3 14.75 M34.4 14.1 L33.95 14.65 33.15 14.7 32.6 14.25 Q32.4 13.8 32.55 13.4 L33.75 9.55 Q33.75 9.1 34.15 8.85 34.45 8.7 34.9 8.85 L35.5 9.3 35.6 10.05 34.4 14.1 M36.55 6.0 L36.2 6.75 35.45 6.8 34.8 6.35 Q34.55 6.0 34.7 5.6 L35.35 1.55 Q35.4 1.1 35.75 0.85 36.0 0.6 36.5 0.7 36.9 0.75 37.15 1.1 37.4 1.4 37.25 1.85 L36.55 6.0" fill="#876c0d" fill-rule="evenodd" stroke="none"/>
    <path d="M-66.35 -96.65 L-67.45 -97.15 -65.5 -100.65 Q-64.5 -102.3 -62.15 -104.1 L-62.05 -104.2 -62.1 -100.35 Q-61.85 -100.5 -61.15 -98.05 L-60.7 -96.95 -60.05 -94.55 -60.05 -94.5 -60.0 -94.35 -60.05 -94.35 -60.55 -94.55 -61.95 -95.1 -62.05 -95.1 -62.15 -95.15 -64.5 -96.05 -65.75 -96.45 -66.35 -96.65 M7.55 -132.75 L7.85 -132.55 8.2 -132.25 8.15 -132.25 8.75 -131.75 10.2 -130.6 8.75 -130.65 7.8 -132.3 7.65 -132.55 7.55 -132.65 7.55 -132.75 M25.05 -116.35 L25.2 -116.15 30.65 -109.65 31.45 -108.5 32.35 -107.5 33.05 -106.4 33.35 -106.05 33.5 -105.85 Q36.95 -100.65 39.85 -94.55 L41.4 -91.05 42.75 -90.95 43.4 -89.85 43.8 -88.9 42.3 -89.0 Q45.7 -80.7 48.1 -71.15 L51.1 -71.75 51.6 -70.45 51.8 -69.8 48.55 -69.15 49.0 -67.35 50.5 -59.75 51.55 -53.25 Q53.75 -53.75 55.75 -54.4 L55.9 -53.25 55.85 -53.25 56.0 -52.35 51.85 -51.25 Q53.0 -42.4 53.6 -32.65 L57.55 -33.5 57.6 -32.2 57.6 -31.4 53.7 -30.6 53.95 -23.0 52.0 -22.7 51.7 -30.2 40.05 -28.9 40.0 -21.5 39.0 -21.25 38.0 -21.2 38.0 -28.75 31.4 -28.5 31.55 -30.25 31.55 -30.55 38.0 -30.8 Q37.85 -40.65 36.85 -49.45 L36.5 -49.4 36.4 -49.75 36.4 -50.3 36.05 -51.55 36.6 -51.5 35.35 -59.75 33.75 -67.35 33.6 -67.85 30.4 -67.9 30.3 -67.95 30.3 -68.0 30.1 -69.5 30.1 -69.65 30.1 -69.8 30.1 -70.0 33.05 -69.95 Q30.6 -78.7 27.1 -86.05 L26.85 -86.9 26.2 -89.5 25.7 -91.7 25.5 -92.1 25.45 -92.35 25.65 -92.3 26.3 -91.85 39.2 -91.2 37.6 -94.55 Q33.6 -102.6 28.6 -109.15 24.35 -109.45 19.65 -109.2 L18.95 -110.95 18.85 -111.2 Q23.0 -111.45 26.85 -111.3 20.5 -118.8 12.6 -124.05 L11.2 -126.45 10.65 -127.5 11.25 -127.25 Q18.45 -122.95 24.55 -116.85 L24.8 -116.6 24.9 -116.5 25.05 -116.35 M3.55 -147.55 L4.1 -145.6 Q4.95 -142.35 4.9 -140.8 4.85 -139.75 3.3 -136.65 L1.45 -133.1 1.25 -132.55 Q0.45 -130.8 -0.8 -129.2 -1.2 -128.7 -4.65 -127.9 L-8.8 -127.05 -10.8 -132.55 -11.85 -135.35 -12.4 -136.75 3.55 -147.55 M0.0 -142.8 Q-1.75 -142.65 -3.0 -141.45 -4.5 -139.95 -5.55 -139.5 L-7.95 -137.85 Q-9.95 -136.3 -10.05 -135.8 -9.35 -133.85 -8.6 -133.85 -7.8 -133.8 -4.1 -138.05 L-1.7 -140.2 Q0.05 -141.6 0.05 -142.4 L0.0 -142.8 M6.7 -131.2 L7.25 -130.25 6.15 -130.35 6.7 -131.2 M9.2 -127.1 L10.3 -125.2 Q6.5 -119.85 3.05 -111.45 L17.4 -110.7 19.0 -106.85 Q17.45 -103.8 15.95 -100.2 L14.55 -102.0 Q16.05 -105.65 17.7 -108.65 L2.2 -109.5 0.7 -105.45 Q-1.1 -100.5 -2.7 -94.55 L-3.05 -93.35 11.15 -92.6 11.7 -94.55 12.3 -96.3 14.15 -100.95 15.45 -99.0 14.25 -95.6 13.9 -94.55 13.2 -92.5 19.95 -92.1 21.3 -89.9 12.55 -90.45 10.05 -81.45 9.8 -81.45 7.95 -81.6 Q9.15 -86.4 10.45 -90.65 L-3.55 -91.35 -4.15 -89.0 Q-5.45 -90.95 -6.3 -93.35 L-6.4 -93.55 -5.1 -93.5 -4.8 -94.55 Q-3.15 -100.8 -1.2 -106.25 L0.05 -109.6 -8.7 -109.95 -12.9 -110.15 -14.25 -106.65 -14.55 -106.55 -15.45 -106.3 -16.55 -105.95 -15.05 -110.15 -15.65 -110.15 -12.95 -111.05 -9.6 -112.05 -8.6 -112.0 0.9 -111.65 Q4.85 -121.3 9.2 -127.1 M24.1 -91.8 L24.6 -89.7 22.9 -89.75 21.55 -92.0 24.1 -91.8 M26.75 -80.45 L27.15 -78.45 26.1 -74.6 25.05 -70.2 28.55 -70.1 28.8 -68.0 24.55 -68.1 24.4 -67.35 Q23.6 -63.7 22.95 -59.75 22.15 -55.3 21.5 -50.5 L29.3 -51.1 18.5 -49.3 17.9 -49.25 16.75 -49.1 15.15 -48.85 15.2 -50.2 19.4 -50.45 20.9 -59.75 Q21.55 -63.7 22.35 -67.35 L22.5 -68.1 15.65 -68.2 15.65 -70.25 22.95 -70.2 24.05 -74.7 Q24.95 -78.45 26.05 -81.8 L26.75 -80.45 M-11.95 -41.85 L-11.85 -46.4 -10.9 -46.3 -11.2 -43.75 -11.35 -41.75 -11.95 -41.85 M2.15 -46.0 L4.15 -46.0 3.85 -43.2 3.7 -41.45 1.7 -41.4 1.85 -43.25 2.15 -46.0 M19.05 -47.2 L19.55 -47.15 21.1 -47.35 20.55 -42.85 19.3 -42.65 18.5 -42.5 18.5 -42.65 19.05 -47.2 M-8.75 -119.55 L-9.25 -118.6 -9.4 -119.35 -8.75 -119.55 M38.65 -51.65 L49.55 -52.85 48.45 -59.75 46.95 -67.35 46.6 -68.9 35.65 -67.9 35.8 -67.35 37.4 -59.75 38.65 -51.65 M35.15 -70.0 L46.1 -70.85 Q43.6 -80.75 40.05 -89.1 L27.4 -89.8 Q32.15 -81.0 35.15 -70.0 M-35.55 -97.9 L-37.85 -96.75 -36.7 -101.85 -34.3 -102.85 -35.55 -97.9 M-43.1 -94.1 L-43.9 -93.7 -46.35 -92.35 -46.2 -92.3 -45.05 -92.35 -44.4 -92.05 -49.9 -91.95 -49.9 -92.0 -49.85 -92.05 -49.45 -93.1 -49.15 -94.0 -43.1 -94.1 M-51.85 -73.05 L-52.2 -71.8 -50.65 -72.0 -50.6 -72.0 -50.5 -72.05 -50.05 -72.0 -50.0 -72.0 -49.85 -72.0 -49.8 -72.0 -49.7 -72.0 Q-48.6 -71.85 -47.45 -70.7 L-56.25 -71.35 -55.7 -73.35 -51.85 -73.05 M-55.65 -54.9 L-56.0 -52.85 -59.2 -53.4 -59.1 -55.1 -59.05 -55.4 -55.65 -54.9 M-57.75 -33.9 L-57.75 -31.85 -61.0 -32.45 -61.05 -32.4 -61.0 -32.55 -60.95 -33.5 -60.8 -34.5 -57.75 -33.9 M-14.95 -21.05 L-13.85 -21.3 -12.85 -21.5 -12.95 -20.95 -14.95 -21.0 -14.95 -21.05 M0.4 -25.65 L2.5 -26.65 2.1 -20.5 0.1 -20.55 0.4 -25.65 M3.3 -27.05 L4.3 -27.55 6.9 -29.15 17.25 -29.35 18.4 -41.7 20.45 -42.05 19.25 -29.45 30.0 -30.15 29.9 -28.1 19.1 -27.4 18.65 -20.45 18.2 -20.5 16.65 -20.45 17.1 -27.3 Q10.5 -27.05 3.3 -27.05 M14.15 -16.3 L14.1 -13.5 6.8 -13.95 -6.15 -14.2 -13.4 -13.9 -26.45 -14.35 -26.4 -17.55 -26.0 -17.55 -21.85 -17.3 -17.75 -17.2 -14.55 -17.1 -14.1 -17.05 -12.15 -16.95 Q2.5 -16.45 14.2 -16.45 L14.15 -16.3 M13.8 -4.5 L13.75 -2.45 14.0 -1.45 3.8 -0.65 Q4.0 0.6 4.55 1.2 7.1 4.3 8.8 5.55 11.1 7.3 17.15 8.6 L27.35 10.7 30.15 10.85 30.3 10.9 29.55 13.25 Q27.7 18.8 25.0 24.3 14.0 29.15 7.45 29.4 -13.55 32.15 -31.6 25.05 -48.25 21.3 -56.75 6.1 -59.7 0.7 -61.05 -5.25 L-56.9 -5.05 -28.85 -3.45 -28.85 -2.85 -43.4 -2.85 Q-44.5 5.8 -39.65 12.45 -36.7 16.45 -32.05 17.95 -7.0 26.1 18.65 19.5 L20.25 19.05 17.3 18.0 13.95 16.7 Q12.8 16.1 12.4 15.2 L13.05 15.2 16.35 16.2 19.65 17.25 22.9 18.05 26.25 16.2 26.25 16.15 Q26.2 15.25 26.3 14.75 L26.3 14.7 26.65 14.0 26.55 13.35 26.5 13.3 25.8 12.8 Q9.4 10.4 -2.5 1.95 L-2.75 1.8 Q-3.1 1.5 -3.5 1.65 -3.9 1.7 -4.1 2.05 -4.35 2.35 -4.25 2.75 L-4.2 3.1 -4.75 2.0 -4.8 -0.35 -4.85 -0.35 -11.0 -0.5 Q-17.5 -0.65 -27.1 -2.1 L-26.85 -3.1 -26.75 -6.6 -10.35 -4.05 -2.55 -3.85 Q1.2 -3.75 2.55 -3.95 L4.85 -4.55 5.2 -4.5 6.3 -8.55 6.35 -8.6 6.2 -4.9 6.2 -4.55 11.25 -4.4 11.85 -4.55 13.8 -4.5 M15.7 -2.1 L15.95 -4.7 33.0 -5.25 32.45 0.6 Q24.45 -3.4 15.75 -2.1 L15.7 -2.1 M36.0 -5.3 L35.8 -2.5 36.0 -1.7 Q36.3 -1.4 36.7 -1.35 L37.45 -1.6 Q37.8 -1.9 37.8 -2.35 L37.95 -4.95 38.9 -4.8 42.2 -4.4 45.35 -3.45 Q45.4 3.9 40.7 11.65 37.65 16.7 32.0 20.45 L33.0 18.0 32.95 17.15 32.45 16.6 31.65 16.65 Q31.3 16.85 31.1 17.25 L29.6 21.0 Q29.4 21.4 29.55 21.8 L29.6 21.9 27.95 22.85 Q31.65 14.8 33.5 6.6 34.25 4.3 34.6 1.7 L34.4 1.55 35.05 -5.3 35.85 -5.35 35.9 -5.35 36.0 -5.3 M50.25 -6.15 L50.7 -18.75 52.7 -19.1 52.4 -6.65 Q51.3 -6.0 50.25 -6.15 M38.8 -49.65 Q39.9 -40.8 40.05 -30.95 L51.65 -32.2 Q51.1 -42.05 49.85 -50.85 L38.8 -49.65 M-44.2 -126.4 Q-45.65 -129.35 -47.15 -125.85 L-48.6 -122.2 -49.95 -117.9 -50.1 -115.0 -50.25 -112.65 Q-50.1 -110.15 -49.3 -110.2 -48.85 -110.15 -48.0 -113.3 L-46.8 -118.25 -44.2 -126.4 M-56.7 -117.75 Q-56.65 -119.75 -52.4 -124.7 -48.25 -129.55 -43.05 -132.55 L-39.65 -134.25 -39.9 -132.55 Q-40.65 -128.25 -43.0 -120.65 -46.4 -109.95 -49.9 -102.9 L-49.85 -102.85 -50.5 -102.85 Q-51.05 -102.8 -53.4 -108.15 -55.85 -113.65 -56.7 -117.75 M-46.55 -100.95 Q-45.0 -103.1 -44.0 -106.6 -42.9 -110.35 -41.65 -112.5 -37.1 -120.2 -18.85 -132.55 L-16.45 -134.15 -15.8 -131.35 -19.7 -129.25 Q-23.8 -126.1 -26.0 -124.95 -30.35 -122.35 -32.65 -120.55 -35.6 -118.3 -37.15 -116.05 -39.25 -112.65 -41.3 -106.95 L-42.05 -104.6 -42.7 -102.85 -43.25 -102.65 -46.55 -100.95 M-77.4 -36.3 L-77.1 -38.35 -73.8 -37.5 -70.7 -56.1 -74.3 -57.1 -73.9 -59.15 -70.35 -58.1 -70.05 -59.75 -68.55 -67.35 -67.7 -71.45 -67.15 -71.4 -67.1 -71.35 -67.0 -71.35 -66.25 -71.5 -65.55 -71.65 -66.5 -67.35 -68.0 -59.75 -68.4 -57.6 -67.65 -57.4 -62.75 -56.2 -63.05 -55.1 -63.15 -54.35 -68.1 -55.45 -68.75 -55.6 Q-70.4 -46.65 -71.85 -36.95 L-70.4 -36.55 -67.75 -35.95 Q-68.25 -34.85 -68.9 -34.1 L-70.95 -34.55 -72.15 -34.95 -72.5 -32.55 -72.95 -32.55 -73.35 -32.55 -74.5 -32.75 -74.1 -35.4 -77.4 -36.3 M-69.9 -72.5 L-73.2 -73.3 -76.75 -74.6 -75.0 -74.55 -74.65 -80.95 -73.25 -86.55 Q-72.3 -88.3 -70.65 -88.8 -72.4 -82.3 -73.95 -75.0 L-67.0 -74.3 -63.95 -87.65 -63.0 -87.2 -62.05 -86.85 -65.1 -74.15 -64.35 -74.05 -65.0 -73.3 -67.25 -72.35 -67.55 -72.35 -67.85 -72.35 -67.9 -72.35 -69.65 -72.45 -69.9 -72.5 M-32.1 -86.9 L-30.7 -83.5 -30.1 -82.15 -31.3 -81.9 Q-32.3 -82.0 -33.0 -82.7 -33.7 -83.6 -33.75 -84.65 -33.7 -85.75 -32.9 -86.4 -32.55 -86.8 -32.1 -86.9 M-31.6 -69.75 L-36.7 -70.0 -37.15 -70.0 -36.65 -70.25 -36.45 -70.35 -34.45 -70.65 -33.9 -70.6 -33.8 -70.6 -33.7 -70.6 -32.6 -70.3 -31.6 -69.75 M-36.1 -66.15 L-36.05 -66.1 -34.5 -63.0 -33.6 -61.6 -34.65 -61.4 Q-35.7 -61.4 -36.4 -62.25 L-36.9 -62.95 -37.1 -64.1 -36.8 -65.2 -36.35 -66.0 -36.1 -66.15 M-45.8 -83.6 L-46.7 -83.5 Q-47.7 -83.55 -48.45 -84.3 -49.15 -85.15 -49.1 -86.2 -49.15 -87.3 -48.3 -88.0 L-47.5 -88.5 -46.05 -84.25 -45.8 -83.6 M-63.25 -74.0 L-59.0 -73.65 -59.4 -71.7 -64.95 -72.1 Q-64.0 -72.75 -63.25 -74.0 M-52.0 -68.5 L-51.5 -67.35 Q-50.45 -65.05 -50.55 -64.95 L-50.1 -63.7 Q-50.8 -63.25 -51.6 -63.35 -52.65 -63.35 -53.35 -64.15 -54.1 -64.85 -54.05 -65.95 -54.0 -66.7 -53.6 -67.35 L-53.2 -67.85 Q-52.7 -68.35 -52.0 -68.5 M-56.55 -48.05 L-54.9 -45.95 -53.2 -44.15 Q-53.95 -43.4 -55.0 -43.45 -56.05 -43.45 -56.75 -44.3 -57.5 -45.05 -57.45 -46.15 -57.4 -47.2 -56.65 -48.0 L-56.55 -48.05 M-54.3 -7.9 L-51.9 -7.7 -54.15 -7.85 -54.3 -7.9 M-38.6 -46.55 L-35.65 -42.55 -35.95 -42.3 Q-36.75 -41.6 -37.75 -41.6 -38.8 -41.65 -39.45 -42.45 -40.25 -43.2 -40.2 -44.3 -40.15 -45.35 -39.4 -46.05 L-38.6 -46.55 M-17.2 -1.7 L-16.8 -1.7 -17.35 -1.75 -17.2 -1.7 M36.55 6.0 L37.25 1.85 Q37.4 1.4 37.15 1.1 36.9 0.75 36.5 0.7 36.0 0.6 35.75 0.85 35.4 1.1 35.35 1.55 L34.7 5.6 Q34.55 6.0 34.8 6.35 L35.45 6.8 36.2 6.75 36.55 6.0 M34.4 14.1 L35.6 10.05 35.5 9.3 34.9 8.85 Q34.45 8.7 34.15 8.85 33.75 9.1 33.75 9.55 L32.55 13.4 Q32.4 13.8 32.6 14.25 L33.15 14.7 33.95 14.65 34.4 14.1" fill="#ddc93c" fill-rule="evenodd" stroke="none"/>
    <path d="M12.9 -139.55 Q17.65 -136.2 21.95 -132.55 L24.9 -129.95 Q28.45 -128.8 31.7 -127.25 L35.65 -122.65 Q32.35 -124.85 28.6 -126.45 36.8 -118.15 43.15 -108.45 L46.75 -107.0 46.8 -106.95 47.0 -106.55 47.5 -105.8 47.6 -105.75 47.65 -105.7 47.75 -105.65 49.05 -103.6 49.2 -103.35 Q47.15 -104.5 44.95 -105.45 48.15 -100.2 50.85 -94.55 L52.8 -90.1 56.7 -89.7 57.5 -87.7 57.55 -87.65 53.6 -88.05 Q56.35 -81.3 58.45 -73.95 L61.75 -75.4 62.15 -73.4 62.15 -73.35 Q60.65 -72.55 58.95 -71.9 L60.1 -67.35 61.65 -59.75 62.1 -57.2 64.75 -59.45 64.85 -58.45 64.9 -58.35 65.05 -57.5 65.1 -56.85 Q63.95 -55.85 62.4 -55.0 63.85 -45.95 64.3 -36.05 66.1 -36.95 67.35 -38.1 L67.45 -37.7 67.5 -37.25 67.65 -36.1 67.75 -35.65 64.4 -33.75 64.55 -25.05 64.35 -25.0 62.55 -24.5 62.45 -32.95 Q60.25 -32.05 57.6 -31.4 L57.6 -32.2 57.55 -33.5 Q59.9 -34.1 61.7 -34.85 L62.3 -35.15 Q61.9 -45.0 60.55 -54.0 L60.25 -53.85 Q58.4 -52.95 56.0 -52.35 L55.85 -53.25 55.9 -53.25 55.75 -54.4 59.4 -55.75 60.2 -56.1 59.6 -59.75 58.05 -67.35 57.1 -71.15 51.8 -69.8 51.6 -70.45 51.1 -71.75 56.45 -73.25 Q54.3 -81.1 51.35 -88.3 L43.8 -88.9 43.4 -89.85 42.75 -90.95 50.45 -90.45 48.6 -94.55 Q45.55 -100.9 41.85 -106.6 37.0 -108.25 31.4 -108.85 L33.35 -106.05 33.05 -106.4 32.35 -107.5 31.45 -108.5 30.65 -109.65 25.2 -116.15 25.05 -116.35 29.65 -111.15 Q35.25 -110.65 40.0 -109.4 33.0 -119.6 23.8 -128.05 17.6 -130.0 10.25 -130.55 L10.2 -130.6 8.75 -131.75 8.15 -132.25 8.2 -132.25 7.85 -132.55 7.55 -132.75 11.2 -132.55 Q16.0 -132.15 20.35 -131.1 L18.65 -132.55 Q14.2 -136.25 9.25 -139.55 L9.65 -139.7 10.05 -139.85 10.1 -139.85 12.85 -139.55 12.9 -139.55 M62.35 -23.3 L61.15 -23.1 62.4 -23.4 62.35 -23.3 M60.95 -23.05 L60.3 -22.95 60.3 -23.0 60.95 -23.05 M48.65 -20.5 L46.6 -20.2 46.7 -20.85 46.7 -20.9 48.25 -21.1 48.75 -21.15 48.65 -20.5 M18.6 -18.6 L16.6 -18.55 16.55 -19.45 18.55 -19.45 18.6 -18.6 M2.0 -18.5 L1.4 -18.5 0.0 -18.55 0.05 -19.5 2.05 -19.45 2.0 -18.5 M-13.05 -18.9 L-14.05 -18.9 -15.05 -18.9 -15.05 -18.95 -14.95 -20.0 -14.35 -20.05 -13.95 -20.0 -12.95 -20.0 -13.05 -18.9 M-28.4 -19.7 L-30.35 -19.95 -30.4 -20.9 -29.5 -20.75 -28.4 -20.7 -28.4 -19.7 M-46.4 -21.4 L-46.65 -21.5 -48.25 -21.7 -48.25 -22.0 -48.25 -22.45 -46.2 -22.25 -46.3 -21.85 -46.4 -21.4 M-73.35 -26.3 L-75.3 -26.85 -75.3 -27.25 -74.0 -27.0 -73.6 -26.85 -73.25 -26.8 -73.25 -26.75 -73.35 -26.3 M-81.3 -59.6 L-81.25 -59.75 -81.05 -61.25 -81.0 -61.6 -78.95 -60.85 -77.65 -67.35 -76.35 -73.35 -77.95 -73.55 -77.8 -74.0 -77.7 -75.5 -75.95 -75.25 -74.65 -80.95 -75.0 -74.55 -76.75 -74.6 -73.2 -73.3 -69.9 -72.5 -71.8 -72.7 -74.35 -73.05 -74.45 -72.85 -75.55 -67.35 -77.0 -60.15 -75.8 -59.75 -73.9 -59.15 -74.3 -57.1 -77.35 -58.15 -80.5 -39.45 -77.1 -38.35 -77.4 -36.3 -80.6 -37.4 -80.8 -37.45 -81.85 -30.35 -82.85 -30.7 -83.3 -30.85 -83.7 -31.0 -83.8 -31.05 -82.75 -38.1 -84.2 -38.65 -83.85 -40.7 -82.45 -40.1 -82.2 -41.9 -79.3 -58.8 -81.3 -59.6 M-74.5 -91.45 L-74.35 -92.05 -74.2 -92.5 -74.15 -92.65 -71.65 -92.85 Q-71.55 -93.0 -71.6 -93.1 L-66.95 -91.2 -70.05 -90.95 -70.65 -88.8 Q-72.3 -88.3 -73.25 -86.55 L-72.2 -90.75 -74.75 -90.5 -74.5 -91.45 M-67.45 -97.15 L-69.45 -97.8 -70.05 -98.1 -70.1 -98.15 Q-69.0 -100.15 -67.15 -102.4 L-66.55 -103.1 Q-63.9 -106.15 -62.05 -106.35 L-62.05 -104.2 -62.15 -104.1 Q-64.5 -102.3 -65.5 -100.65 L-67.45 -97.15 M-12.4 -136.75 L-11.85 -135.35 -10.8 -132.55 -8.8 -127.05 -4.65 -127.9 Q-1.2 -128.7 -0.8 -129.2 0.45 -130.8 1.25 -132.55 L1.45 -133.1 3.3 -136.65 Q4.85 -139.75 4.9 -140.8 4.95 -142.35 4.1 -145.6 L3.55 -147.55 5.95 -149.2 Q9.95 -147.0 5.45 -137.7 L2.4 -132.55 -1.0 -126.6 -10.35 -123.65 -13.15 -136.2 -12.4 -136.75 M7.5 -132.75 L7.55 -132.75 7.55 -132.65 7.5 -132.75 M5.95 -132.4 L6.0 -132.3 6.7 -131.2 6.15 -130.35 3.45 -130.5 4.55 -132.4 4.6 -132.45 5.95 -132.4 M26.3 -82.65 L26.75 -80.45 26.05 -81.8 26.3 -82.65 M-12.2 -40.8 L-11.95 -41.85 -11.35 -41.75 -11.5 -40.75 -12.2 -40.8 M-7.25 -122.4 L-8.75 -119.55 -9.4 -119.35 -9.95 -121.55 -9.8 -121.6 -7.25 -122.4 M14.15 -100.95 L14.55 -102.0 15.95 -100.2 15.45 -99.0 14.15 -100.95 M19.95 -92.1 L21.5 -92.0 21.55 -92.0 22.9 -89.75 21.3 -89.9 19.95 -92.1 M3.7 -41.0 L1.7 -40.9 1.7 -41.4 3.7 -41.45 3.7 -41.0 M20.55 -42.85 L20.55 -42.65 20.45 -42.05 18.4 -41.7 18.5 -42.5 19.3 -42.65 20.55 -42.85 M31.7 -19.9 L32.7 -19.95 33.7 -19.9 33.6 -19.35 31.65 -19.25 31.7 -19.9 M32.45 0.6 L33.0 -5.25 35.05 -5.3 34.4 1.55 33.5 6.6 Q31.65 14.8 27.95 22.85 L29.6 21.9 Q29.7 22.25 30.1 22.4 L30.85 22.45 31.4 21.9 32.0 20.45 Q37.65 16.7 40.7 11.65 45.4 3.9 45.35 -3.45 L42.2 -4.4 38.9 -4.8 37.95 -4.95 38.0 -5.3 44.3 -5.75 48.2 -6.7 48.3 -6.7 48.4 -6.7 48.5 -5.4 Q48.7 -4.95 49.35 -4.95 L50.1 -5.05 50.25 -5.25 50.25 -6.15 Q51.3 -6.0 52.4 -6.65 L52.5 -6.1 Q52.6 -5.85 53.25 -5.8 53.8 -5.8 54.15 -6.85 L54.35 -7.3 55.65 -7.3 56.95 -7.5 Q57.55 -7.8 58.05 -7.35 58.65 -6.8 58.55 -5.95 L58.35 -4.0 Q57.65 -1.05 54.85 3.35 50.7 9.95 44.65 14.9 39.7 20.0 29.8 25.25 L29.7 24.95 29.2 24.3 28.45 24.2 27.85 24.75 26.9 26.65 25.85 27.15 25.85 27.2 25.05 27.5 22.75 28.55 22.5 28.7 Q4.0 36.75 -9.1 35.2 L-9.25 35.15 Q-19.05 35.65 -31.5 30.85 -41.2 27.1 -50.6 20.75 L-53.15 18.95 Q-59.0 14.8 -63.5 10.45 -66.85 7.3 -69.6 4.05 -75.95 -3.65 -75.95 -9.05 L-75.9 -9.25 Q-75.9 -10.4 -74.3 -11.05 L-74.2 -11.0 -73.35 -11.25 -72.35 -11.35 -71.0 -11.45 -59.05 -8.45 -57.1 -8.2 -54.3 -7.9 -54.15 -7.85 -51.9 -7.7 -51.85 -7.7 -28.75 -5.65 -28.8 -4.4 -28.85 -3.45 -56.9 -5.05 -61.05 -5.25 Q-59.7 0.7 -56.75 6.1 -48.25 21.3 -31.6 25.05 -13.55 32.15 7.45 29.4 14.0 29.15 25.0 24.3 27.7 18.8 29.55 13.25 L30.3 10.9 Q31.75 5.75 32.45 0.6 M36.0 -5.4 L36.0 -5.3 35.9 -5.35 35.85 -5.35 36.0 -5.4 M-39.65 -134.25 L-35.05 -137.05 -36.75 -132.55 -45.1 -110.2 Q-47.0 -104.95 -49.95 -98.0 -53.75 -103.55 -55.35 -108.55 -56.65 -112.65 -56.7 -117.75 -55.85 -113.65 -53.4 -108.15 -51.05 -102.8 -50.5 -102.85 L-49.85 -102.85 -49.9 -102.9 Q-46.4 -109.95 -43.0 -120.65 -40.65 -128.25 -39.9 -132.55 L-39.65 -134.25 M-60.1 -101.35 L-58.35 -106.95 -57.35 -109.95 -57.05 -109.35 -56.15 -107.15 -57.15 -104.1 -58.1 -101.2 -58.15 -101.2 -60.1 -101.35 M-57.25 -110.1 L-59.6 -110.0 -61.0 -109.85 -59.45 -112.05 -58.05 -112.15 -57.25 -110.1 M-58.85 -96.6 L-59.9 -99.5 -58.8 -99.45 -58.85 -96.6 M-46.55 -100.95 L-43.25 -102.65 -42.7 -102.85 -39.75 -104.3 -39.4 -104.5 -33.45 -107.6 Q-28.05 -110.0 -12.4 -115.4 L-15.8 -131.35 -16.45 -134.15 -14.95 -135.15 -10.2 -113.7 Q-19.4 -111.2 -30.45 -106.45 -40.45 -102.25 -47.75 -98.15 L-46.55 -100.95 M-53.7 -93.85 L-51.1 -93.95 -51.2 -93.2 -51.45 -92.25 -51.55 -91.9 -54.25 -91.85 -53.7 -93.85 M-59.0 -73.65 L-57.5 -73.5 -57.9 -71.75 -58.0 -71.5 -59.4 -71.7 -59.0 -73.65 M-61.4 -89.4 L-62.05 -86.85 -63.0 -87.2 -63.95 -87.65 -63.3 -89.95 -61.4 -89.4 M-64.95 -72.1 L-65.5 -72.1 -65.55 -71.65 -66.25 -71.5 -67.0 -71.35 -67.1 -71.35 -67.15 -71.4 -67.7 -71.45 -67.55 -72.35 -67.25 -72.35 -65.0 -73.3 -64.35 -74.05 -63.25 -74.0 Q-64.0 -72.75 -64.95 -72.1 M-63.15 -54.35 L-63.05 -55.1 -62.75 -56.2 -60.3 -55.7 -60.35 -54.7 -60.45 -53.65 -63.15 -54.35 M-62.65 -34.8 L-62.75 -34.05 -62.85 -33.3 -62.9 -32.8 -68.9 -34.1 Q-68.25 -34.85 -67.75 -35.95 L-67.7 -35.95 -62.65 -34.8 M-74.5 -32.75 L-73.35 -32.55 -72.95 -32.55 -72.5 -32.55 -73.15 -28.0 -75.1 -28.5 -74.5 -32.75" fill="#c1aa2c" fill-rule="evenodd" stroke="none"/>
    <path d="M18.05 -6.6 L18.3 -10.85 Q31.2 -13.35 44.3 -13.2 47.6 -13.15 47.6 -8.35 L44.1 -8.1 18.05 -6.6 M-45.0 -8.7 L-44.75 -10.2 -44.1 -13.75 -37.65 -14.15 Q-31.85 -14.35 -30.25 -12.25 -29.45 -11.2 -29.4 -8.15 L-45.0 -8.7" fill="#434343" fill-rule="evenodd" stroke="none"/>
    <path d="M57.8 -19.95 L60.1 -20.5 60.45 -20.6 62.2 -20.95 Q64.8 -21.7 65.9 -22.4 L65.9 -22.1 Q64.95 -12.5 62.85 -11.6 L59.8 -11.15 60.0 -12.55 60.65 -16.1 60.65 -16.2 Q58.75 -16.25 56.45 -15.3 L54.55 -14.6 54.7 -18.9 57.8 -19.95 M-76.7 -15.35 L-78.65 -15.6 Q-82.1 -16.65 -82.55 -26.0 L-82.6 -26.3 -82.6 -27.05 -82.6 -27.15 -82.6 -27.2 -82.55 -27.2 -82.5 -27.15 -82.25 -27.1 Q-81.2 -26.45 -79.3 -25.9 L-76.2 -24.85 -75.6 -24.7 -73.65 -24.1 -69.65 -23.2 -69.6 -22.7 -69.8 -19.0 -73.3 -19.7 -77.45 -20.45 -76.7 -15.35" fill="#272727" fill-rule="evenodd" stroke="none"/>
    <path d="M-47.05 -8.95 L-48.45 -8.9 -50.0 -8.9 -53.0 -9.0 -53.35 -9.0 -59.35 -9.55 -60.35 -9.65 -64.4 -10.8 Q-66.7 -11.6 -67.55 -12.9 -68.9 -14.95 -68.75 -19.6 L-68.7 -22.55 -68.65 -23.55 -46.5 -19.95 -46.5 -19.3 -46.85 -9.6 -47.1 -9.6 -47.05 -8.95 M-48.0 -15.4 Q-47.95 -16.95 -55.0 -18.4 -62.0 -19.8 -62.05 -17.25 L-61.7 -12.0 -61.55 -11.5 -51.95 -10.3 -48.3 -10.45 Q-48.0 -13.45 -48.0 -15.4" fill="#b86e0a" fill-rule="evenodd" stroke="none"/>
    <path d="M-48.0 -15.4 Q-48.0 -13.45 -48.3 -10.45 L-51.95 -10.3 -61.55 -11.5 -61.7 -12.0 -62.05 -17.25 Q-62.0 -19.8 -55.0 -18.4 -47.95 -16.95 -48.0 -15.4" fill="#e98e13" fill-rule="evenodd" stroke="none"/>
    <path d="M67.35 -25.75 L67.25 -25.1 65.2 -24.25 62.4 -23.4 61.15 -23.1 60.95 -23.05 60.3 -23.0 60.3 -22.95 57.9 -22.4 48.75 -21.15 48.25 -21.1 46.7 -20.9 46.7 -20.85 35.6 -20.1 33.7 -19.9 32.7 -19.95 31.7 -19.9 18.55 -19.45 16.55 -19.45 2.05 -19.45 2.05 -19.5 0.05 -19.5 -8.95 -19.85 -12.95 -20.0 -13.95 -20.0 -14.35 -20.05 -14.95 -20.0 -28.4 -20.7 -29.5 -20.75 -30.4 -20.9 -46.2 -22.25 -48.25 -22.45 -61.85 -24.6 Q-59.65 -23.7 -55.65 -22.95 L-63.8 -24.15 -64.05 -25.0 -73.25 -26.75 -73.25 -26.8 -73.6 -26.85 -74.0 -27.0 -75.3 -27.25 -82.05 -29.25 -82.6 -29.5 -84.3 -31.3 -83.8 -31.05 -83.7 -31.0 -83.3 -30.85 -82.85 -30.7 -81.85 -30.35 Q-79.45 -29.55 -75.1 -28.5 L-73.2 -27.95 -63.8 -26.0 -63.65 -25.9 -62.9 -32.8 -62.85 -33.3 -62.75 -34.05 -62.65 -34.8 -62.35 -36.95 -61.05 -46.9 -60.45 -53.65 -60.35 -54.7 -60.3 -55.7 -60.25 -55.9 -59.85 -59.75 -58.8 -67.35 -58.75 -67.8 -58.0 -71.5 -57.9 -71.75 -57.5 -73.5 Q-56.2 -78.35 -54.0 -84.4 -52.35 -89.0 -51.55 -91.9 L-51.45 -92.25 -51.2 -93.2 -51.1 -93.95 -50.95 -94.55 -50.8 -95.85 -50.15 -94.4 -48.35 -95.5 -48.85 -94.55 -49.15 -94.0 -49.45 -93.1 -49.85 -92.05 -49.9 -92.0 -49.9 -91.95 -51.6 -87.4 -53.9 -80.3 -55.7 -73.35 -56.25 -71.35 -57.1 -67.35 -58.45 -59.75 -59.05 -55.4 -59.1 -55.1 -59.2 -53.4 -60.8 -34.5 -60.95 -33.5 -61.0 -32.55 -61.05 -32.4 -61.0 -32.45 -61.75 -25.6 -57.05 -24.85 -48.1 -23.95 -46.15 -23.8 -38.2 -23.05 -30.35 -22.35 -28.7 -22.2 -28.3 -22.1 -15.15 -21.0 -14.95 -21.0 -12.95 -20.95 0.1 -20.55 2.1 -20.5 16.65 -20.45 18.2 -20.5 18.65 -20.45 29.25 -20.75 29.25 -20.85 29.9 -28.1 30.0 -30.15 30.45 -43.55 31.9 -43.8 31.55 -30.55 31.55 -30.25 31.4 -28.5 31.4 -28.2 30.75 -20.8 31.75 -20.9 33.75 -20.9 38.0 -21.2 39.0 -21.25 46.7 -22.0 48.8 -22.3 52.0 -22.7 53.95 -23.0 57.15 -23.5 62.55 -24.5 64.35 -25.0 64.55 -25.05 65.05 -25.2 67.35 -25.75 M-73.7 -94.2 L-73.25 -95.1 -71.9 -94.6 -71.2 -94.3 -69.35 -93.55 -69.35 -93.6 -68.05 -93.1 -67.5 -92.95 -65.85 -92.35 -65.65 -92.25 -63.25 -91.4 -63.0 -91.3 -61.05 -90.6 -58.55 -89.85 -57.7 -91.65 Q-60.45 -92.2 -63.9 -93.45 L-66.85 -94.55 -68.85 -95.4 -70.15 -95.95 -67.55 -96.55 -66.35 -96.65 -65.75 -96.45 -64.5 -96.05 -62.15 -95.15 -62.05 -95.1 -61.95 -95.1 -60.55 -94.55 -60.05 -94.35 -60.0 -94.35 -57.0 -93.65 -55.75 -93.4 Q-55.25 -93.2 -55.35 -92.5 L-55.3 -91.75 Q-55.5 -88.3 -55.9 -87.95 -56.3 -87.65 -58.5 -88.45 L-58.7 -88.8 -61.4 -89.4 -63.3 -89.95 -64.35 -90.3 -66.95 -91.2 -71.6 -93.1 -73.1 -93.85 -73.7 -94.2 M6.2 -135.4 L7.15 -133.1 7.5 -132.75 7.55 -132.65 7.65 -132.55 7.8 -132.3 8.75 -130.65 9.05 -130.2 Q9.55 -129.25 10.2 -128.45 10.35 -127.95 10.65 -127.5 L11.2 -126.45 12.6 -124.05 Q16.0 -117.8 18.85 -111.2 L18.95 -110.95 19.65 -109.2 20.0 -108.4 Q22.75 -101.7 24.85 -94.55 L25.45 -92.35 25.5 -92.1 25.7 -91.7 26.2 -89.5 26.85 -86.9 27.2 -85.45 28.1 -81.55 30.05 -70.1 30.1 -69.8 30.1 -69.65 30.1 -69.5 30.3 -68.0 30.3 -67.95 30.4 -67.35 31.2 -59.75 31.7 -51.45 34.75 -51.85 35.25 -51.9 35.5 -51.95 36.05 -51.55 36.4 -50.3 36.4 -49.75 36.5 -49.4 36.55 -47.9 36.35 -44.45 Q36.25 -44.0 35.65 -43.9 L35.45 -43.9 Q34.85 -43.95 34.75 -44.1 L34.75 -44.25 34.5 -45.25 34.6 -49.75 33.35 -49.45 33.25 -49.45 30.35 -48.8 21.1 -47.35 19.55 -47.15 19.05 -47.2 17.3 -47.0 4.15 -46.0 2.15 -46.0 Q-4.65 -45.9 -10.9 -46.3 L-11.85 -46.4 -11.95 -41.85 -12.2 -40.8 -12.25 -40.5 -13.0 -40.4 -13.1 -40.4 -13.5 -40.5 -13.5 -40.45 Q-13.85 -40.6 -13.9 -41.05 L-13.9 -43.75 -13.9 -44.45 Q-13.8 -47.55 -13.35 -48.1 L-13.0 -48.35 -10.2 -48.6 Q3.9 -47.85 15.15 -48.85 L16.75 -49.1 17.9 -49.25 18.5 -49.3 29.3 -51.1 29.5 -51.15 30.0 -51.2 30.2 -51.2 30.2 -51.25 29.7 -59.75 28.9 -67.35 28.8 -68.0 28.55 -70.1 27.15 -78.45 26.75 -80.45 26.3 -82.65 24.6 -89.7 24.1 -91.8 23.3 -94.55 Q21.4 -100.85 19.0 -106.85 L17.4 -110.7 Q14.25 -118.2 10.3 -125.2 L9.2 -127.1 7.25 -130.25 6.7 -131.2 6.0 -132.3 5.95 -132.4 5.9 -132.55 5.45 -133.95 5.65 -134.5 6.2 -135.4 M-28.6 -87.0 Q-27.6 -85.9 -27.65 -84.4 -27.7 -82.9 -28.8 -81.9 -29.85 -80.8 -31.3 -80.85 -32.7 -80.95 -33.75 -82.1 -34.8 -83.2 -34.75 -84.6 -34.65 -86.1 -33.6 -87.2 -32.5 -88.25 -31.1 -88.2 -29.65 -88.15 -28.6 -87.0 M-30.1 -82.15 L-29.45 -82.6 Q-28.7 -83.4 -28.65 -84.45 -28.6 -85.55 -29.35 -86.3 -30.05 -87.1 -31.1 -87.15 L-32.1 -86.9 Q-32.55 -86.8 -32.9 -86.4 -33.7 -85.75 -33.75 -84.65 -33.7 -83.6 -33.0 -82.7 -32.3 -82.0 -31.3 -81.9 L-30.1 -82.15 M-36.1 -66.15 L-36.35 -66.0 -36.8 -65.2 -37.1 -64.1 -36.9 -62.95 -36.4 -62.25 Q-35.7 -61.4 -34.65 -61.4 L-33.6 -61.6 Q-33.2 -61.8 -32.85 -62.15 -32.0 -62.85 -32.0 -63.95 -31.95 -65.0 -32.75 -65.8 -33.4 -66.6 -34.45 -66.65 L-36.1 -66.15 M-31.95 -66.5 Q-31.0 -65.4 -31.05 -63.95 -31.1 -62.45 -32.1 -61.3 -33.25 -60.35 -34.7 -60.4 -36.0 -60.45 -36.95 -61.3 L-37.15 -61.55 Q-38.15 -62.65 -38.1 -64.15 -38.05 -65.6 -36.95 -66.65 L-36.75 -66.8 -35.95 -67.35 -34.45 -67.65 -33.1 -67.35 -31.95 -66.5 M-43.05 -85.95 Q-43.1 -84.45 -44.2 -83.45 -45.2 -82.45 -46.7 -82.45 -48.15 -82.55 -49.15 -83.65 -50.2 -84.75 -50.1 -86.2 -50.05 -87.75 -49.05 -88.75 -47.95 -89.8 -46.5 -89.75 -45.05 -89.7 -44.05 -88.6 -43.0 -87.45 -43.05 -85.95 M-47.5 -88.5 L-48.3 -88.0 Q-49.15 -87.3 -49.1 -86.2 -49.15 -85.15 -48.45 -84.3 -47.7 -83.55 -46.7 -83.5 L-45.8 -83.6 -45.55 -83.75 Q-45.15 -83.9 -44.85 -84.1 L-44.85 -84.15 Q-44.05 -85.0 -44.05 -86.05 -44.05 -87.15 -44.7 -87.85 -45.5 -88.7 -46.55 -88.7 L-47.5 -88.5 M-50.1 -63.7 L-49.75 -64.0 Q-49.0 -64.75 -48.95 -65.8 -48.9 -66.65 -49.35 -67.35 L-49.6 -67.7 Q-50.35 -68.5 -51.4 -68.5 L-51.45 -68.5 -52.0 -68.5 Q-52.7 -68.35 -53.2 -67.85 L-53.6 -67.35 Q-54.0 -66.7 -54.05 -65.95 -54.1 -64.85 -53.35 -64.15 -52.65 -63.35 -51.6 -63.35 -50.8 -63.25 -50.1 -63.7 M-51.4 -69.5 Q-49.95 -69.45 -48.95 -68.35 L-48.25 -67.35 Q-47.9 -66.65 -47.95 -65.8 -48.0 -64.3 -49.05 -63.3 -50.15 -62.2 -51.65 -62.3 -53.05 -62.35 -54.05 -63.4 -55.1 -64.5 -55.05 -66.0 L-54.75 -67.35 -53.95 -68.5 Q-52.85 -69.6 -51.4 -69.5 M-53.2 -44.15 L-53.15 -44.2 Q-52.35 -44.9 -52.35 -46.0 -52.3 -47.05 -53.05 -47.85 -53.75 -48.65 -54.8 -48.7 L-54.9 -48.7 Q-55.85 -48.7 -56.55 -48.05 L-56.65 -48.0 Q-57.4 -47.2 -57.45 -46.15 -57.5 -45.05 -56.75 -44.3 -56.05 -43.45 -55.0 -43.45 -53.95 -43.4 -53.2 -44.15 M-52.3 -48.55 Q-51.3 -47.4 -51.35 -45.9 -51.35 -44.45 -52.45 -43.4 -53.6 -42.4 -55.0 -42.45 -56.45 -42.45 -57.5 -43.55 -58.45 -44.75 -58.5 -46.25 -58.45 -47.7 -57.3 -48.7 -56.2 -49.7 -54.75 -49.7 -53.3 -49.65 -52.3 -48.55 M-35.3 -41.6 Q-36.35 -40.55 -37.75 -40.6 -39.2 -40.65 -40.25 -41.75 -41.25 -42.8 -41.2 -44.3 -41.15 -45.75 -40.1 -46.85 -38.95 -47.85 -37.5 -47.8 L-37.35 -47.75 Q-36.05 -47.65 -35.1 -46.7 -34.25 -45.7 -34.15 -44.5 L-34.1 -44.05 Q-34.15 -42.65 -35.3 -41.6 M-35.65 -42.55 Q-35.2 -43.25 -35.1 -44.1 L-35.15 -44.55 Q-35.25 -45.35 -35.85 -45.9 -36.5 -46.75 -37.35 -46.75 L-37.55 -46.8 -38.6 -46.55 -39.4 -46.05 Q-40.15 -45.35 -40.2 -44.3 -40.25 -43.2 -39.45 -42.45 -38.8 -41.65 -37.75 -41.6 -36.75 -41.6 -35.95 -42.3 L-35.65 -42.55" fill="#46687e" fill-rule="evenodd" stroke="none"/>
  </g>
</svg>
