<?xml version="1.0" encoding="UTF-8" standalone="no"?>
<svg xmlns:ffdec="https://www.free-decompiler.com/flash" xmlns:xlink="http://www.w3.org/1999/xlink" ffdec:objectType="shape" height="42.9px" width="73.75px" xmlns="http://www.w3.org/2000/svg">
  <g transform="matrix(1.0, 0.0, 0.0, 1.0, 40.8, 26.3)">
    <path d="M18.8 -26.3 L19.75 -25.7 19.75 -25.65 18.8 -26.3" fill="#794e31" fill-rule="evenodd" stroke="none"/>
    <path d="M-35.35 0.6 L-27.45 6.5 Q-21.7 10.55 -15.35 11.95 -9.05 13.3 1.45 10.7 L6.55 8.45 Q11.4 5.65 15.2 1.9 17.3 -1.35 18.65 -4.15 20.0 -6.95 18.7 -17.65 19.15 -16.65 20.2 -16.15 20.4 -16.0 24.65 -14.8 L27.15 -13.95 27.15 -13.9 Q27.15 -0.85 10.85 7.9 5.25 10.85 -1.4 12.85 -6.5 14.4 -9.0 14.55 -14.85 13.9 -17.25 12.9 L-20.45 11.75 Q-26.3 9.4 -33.6 2.5 L-34.3 1.85 -35.35 0.6" fill="#d1d1d1" fill-rule="evenodd" stroke="none"/>
    <path d="M-9.0 14.55 Q-6.5 14.4 -1.4 12.85 5.25 10.85 10.85 7.9 27.15 -0.85 27.15 -13.9 L27.15 -13.95 Q28.35 -13.45 28.75 -13.05 L29.95 -11.25 30.0 -11.2 30.4 -7.4 26.6 -1.2 26.5 -1.05 24.9 1.05 24.45 1.6 Q18.5 8.5 9.35 12.1 -0.3 15.95 -9.0 14.55" fill="#989898" fill-rule="evenodd" stroke="none"/>
    <path d="M-35.35 0.6 L-34.3 1.85 -33.6 2.5 Q-26.3 9.4 -20.45 11.75 L-17.25 12.9 Q-14.85 13.9 -9.0 14.55 -0.3 15.95 9.35 12.1 18.5 8.5 24.45 1.6 L24.9 1.05 26.5 -1.05 26.6 -1.2 30.4 -7.4 30.6 -5.85 30.95 -4.15 Q28.35 0.25 24.5 4.2 L24.25 4.45 23.3 5.35 23.2 5.5 Q11.3 16.6 -5.05 16.6 -22.2 16.6 -34.35 4.45 L-36.45 2.15 -40.1 -2.65 -40.8 -3.75 -37.5 -1.8 -37.25 -2.1 -37.2 -1.9 -37.0 -1.25 -37.1 -1.75 -36.05 -0.25 -35.35 0.6" fill="#606060" fill-rule="evenodd" stroke="none"/>
    <path d="M19.25 -17.15 L19.3 -17.5 Q19.9 -16.0 20.8 -15.55 L21.95 -15.3 18.7 -14.85 18.9 -15.65 19.25 -17.15 M22.9 -14.9 L23.4 -14.7 Q23.65 -14.55 23.1 -14.6 L24.75 -14.4 26.85 -14.0 24.0 -12.9 22.95 -12.85 23.0 -14.6 22.9 -14.9" fill="#989898" fill-rule="evenodd" stroke="none"/>
    <path d="M19.25 -17.15 L18.9 -15.65 18.7 -14.85 21.95 -15.3 22.9 -14.9 23.0 -14.6 22.95 -12.85 24.0 -12.9 26.85 -14.0 26.9 -14.05 27.75 -12.55 28.2 -11.3 28.55 -11.75 Q28.9 -12.15 29.5 -12.15 30.45 -12.15 31.85 -9.8 33.1 -7.55 32.95 -6.75 L32.25 -5.95 Q31.4 -6.5 30.45 -8.0 29.5 -9.55 29.3 -10.8 L27.8 -9.7 Q27.65 -9.8 27.4 -10.75 L26.85 -12.75 26.35 -12.7 24.0 -12.0 21.95 -11.6 21.6 -14.3 18.8 -13.75 18.4 -13.7 17.35 -13.75 17.9 -15.8 18.5 -18.9 19.15 -17.9 19.25 -17.15" fill="#606060" fill-rule="evenodd" stroke="none"/>
  </g>
</svg>
