<?xml version="1.0" encoding="UTF-8" standalone="no"?>
<svg xmlns:ffdec="https://www.free-decompiler.com/flash" xmlns:xlink="http://www.w3.org/1999/xlink" ffdec:objectType="shape" height="73.15px" width="96.8px" xmlns="http://www.w3.org/2000/svg">
  <g transform="matrix(1.0, 0.0, 0.0, 1.0, 43.15, 78.3)">
    <path d="M14.75 -67.65 L14.45 -67.1 13.7 -66.9 12.95 -67.1 Q12.65 -67.35 12.65 -67.65 L12.95 -68.15 13.7 -68.4 14.45 -68.15 14.75 -67.65 M20.1 -63.2 L18.3 -62.0 Q17.55 -62.05 17.4 -62.75 L18.45 -63.55 Q19.05 -63.8 20.1 -63.2 M5.4 -71.0 Q5.4 -70.7 5.0 -70.45 L4.05 -70.25 3.1 -70.45 Q2.7 -70.7 2.7 -71.0 L3.1 -71.5 4.05 -71.75 5.0 -71.5 5.4 -71.0 M1.85 -64.95 L2.0 -64.9 2.1 -64.2 Q2.0 -63.2 1.4 -62.35 0.2 -60.6 -2.3 -60.75 L-3.45 -61.3 -3.75 -61.65 Q-3.75 -63.25 -1.9 -64.35 0.0 -65.5 1.85 -64.95 M7.65 -66.5 Q7.65 -66.05 7.2 -65.7 6.75 -65.4 6.15 -65.4 5.55 -65.4 5.1 -65.7 4.65 -66.05 4.65 -66.5 4.65 -66.95 5.1 -67.25 5.55 -67.6 6.15 -67.6 L7.2 -67.25 7.65 -66.5 M8.8 -57.3 L8.0 -57.35 7.9 -57.45 7.75 -57.75 7.55 -58.7 Q7.55 -59.7 8.85 -60.9 10.6 -62.5 13.25 -61.9 L14.35 -61.7 Q14.3 -60.0 12.95 -58.75 11.35 -57.3 8.8 -57.3 M18.95 -54.4 L19.15 -54.45 19.2 -53.9 Q19.2 -53.3 17.5 -52.35 L16.9 -52.25 Q16.7 -52.3 16.7 -52.9 16.7 -53.6 17.45 -53.95 L18.95 -54.4 M-2.25 -68.8 Q-2.25 -68.45 -2.55 -68.2 L-3.4 -67.95 Q-3.9 -67.95 -4.2 -68.2 -4.55 -68.45 -4.55 -68.8 L-4.2 -69.4 -3.4 -69.65 -2.55 -69.4 Q-2.25 -69.15 -2.25 -68.8 M-12.05 -63.05 L-12.7 -63.1 -12.85 -63.25 -12.95 -63.25 -13.1 -64.0 Q-13.1 -65.05 -11.6 -65.95 -10.3 -66.75 -9.2 -66.75 L-8.45 -66.7 -8.15 -66.55 Q-8.15 -63.05 -12.05 -63.05" fill="#ffffff" fill-rule="evenodd" stroke="none"/>
    <path d="M-14.15 -71.1 L-12.0 -72.15 Q-3.65 -76.0 -1.65 -74.1 -12.3 -70.5 -15.6 -67.7 -17.55 -65.1 -20.15 -63.75 L-20.3 -63.75 -20.5 -63.75 -20.55 -64.4 Q-20.55 -66.2 -18.65 -68.0 L-17.45 -68.9 -14.15 -71.1 M14.3 -69.3 L19.15 -69.0 20.3 -68.15 Q20.7 -67.8 20.25 -66.3 L16.75 -66.05 Q9.85 -65.0 5.85 -63.0 3.1 -61.9 1.9 -60.3 L1.0 -58.5 Q-3.7 -58.05 -5.2 -59.45 -6.0 -60.2 -6.0 -61.9 -6.0 -62.8 -4.3 -65.0 L-4.05 -65.15 Q-1.8 -66.3 3.65 -67.7 10.2 -69.4 14.3 -69.3 M18.8 -65.1 L23.2 -65.1 25.6 -63.9 Q27.15 -62.95 27.15 -62.45 27.15 -61.8 26.8 -61.5 L26.15 -61.05 18.8 -58.8 Q18.5 -58.8 15.9 -56.85 13.1 -54.75 12.35 -53.85 8.3 -53.85 5.45 -55.35 2.55 -56.85 2.55 -59.0 L3.35 -59.75 Q5.2 -61.5 10.25 -63.2 15.0 -64.8 18.8 -65.1 M-17.95 -61.8 Q-14.65 -66.7 -5.95 -70.1 2.95 -73.6 11.75 -73.1 L14.3 -72.1 Q16.2 -71.1 16.5 -70.3 L11.15 -70.3 Q7.95 -70.2 3.65 -69.1 0.0 -68.2 -2.05 -67.25 L-2.1 -67.25 -7.35 -64.4 Q-9.25 -63.05 -10.1 -61.3 -11.9 -60.5 -13.0 -60.5 L-15.1 -60.95 -17.95 -61.8 M20.1 -63.2 Q19.05 -63.8 18.45 -63.55 L17.4 -62.75 Q17.55 -62.05 18.3 -62.0 L20.1 -63.2 M14.75 -67.65 L14.45 -68.15 13.7 -68.4 12.95 -68.15 12.65 -67.65 Q12.65 -67.35 12.95 -67.1 L13.7 -66.9 14.45 -67.1 14.75 -67.65 M8.8 -57.3 Q11.35 -57.3 12.95 -58.75 14.3 -60.0 14.35 -61.7 L13.25 -61.9 Q10.6 -62.5 8.85 -60.9 7.55 -59.7 7.55 -58.7 L7.75 -57.75 7.9 -57.45 8.0 -57.35 8.8 -57.3 M7.65 -66.5 L7.2 -67.25 6.15 -67.6 Q5.55 -67.6 5.1 -67.25 4.65 -66.95 4.65 -66.5 4.65 -66.05 5.1 -65.7 5.55 -65.4 6.15 -65.4 6.75 -65.4 7.2 -65.7 7.65 -66.05 7.65 -66.5 M1.85 -64.95 Q0.0 -65.5 -1.9 -64.35 -3.75 -63.25 -3.75 -61.65 L-3.45 -61.3 -2.3 -60.75 Q0.2 -60.6 1.4 -62.35 2.0 -63.2 2.1 -64.2 L2.0 -64.9 1.85 -64.95 M5.4 -71.0 L5.0 -71.5 4.05 -71.75 3.1 -71.5 2.7 -71.0 Q2.7 -70.7 3.1 -70.45 L4.05 -70.25 5.0 -70.45 Q5.4 -70.7 5.4 -71.0 M36.85 -56.15 L32.45 -56.7 Q30.0 -56.85 25.3 -54.95 21.25 -53.35 19.15 -51.85 L17.15 -50.55 15.15 -50.55 14.8 -50.75 14.7 -51.5 Q14.7 -54.2 19.85 -56.6 24.55 -58.8 28.3 -58.8 32.6 -58.8 34.75 -57.9 36.1 -57.35 36.85 -56.15 M18.95 -54.4 L17.45 -53.95 Q16.7 -53.6 16.7 -52.9 16.7 -52.3 16.9 -52.25 L17.5 -52.35 Q19.2 -53.3 19.2 -53.9 L19.15 -54.45 18.95 -54.4 M33.75 -51.0 Q26.9 -47.8 24.7 -45.0 L24.35 -45.0 Q24.15 -45.1 24.15 -45.75 24.15 -47.15 26.85 -49.5 29.85 -52.1 32.55 -52.1 L33.5 -51.85 33.7 -51.0 33.75 -51.0 M30.65 -39.0 L30.0 -39.05 30.1 -39.1 29.75 -39.05 Q29.55 -39.05 29.55 -39.65 29.55 -40.3 29.95 -40.95 30.55 -41.85 31.7 -42.0 32.75 -41.1 32.3 -40.05 31.85 -39.0 30.65 -39.0 M23.75 -37.35 Q23.85 -35.85 22.75 -33.4 L17.25 -38.0 18.3 -40.15 Q18.75 -41.25 18.55 -41.5 L23.75 -37.35 M15.3 -39.45 L10.45 -42.55 Q11.45 -45.35 11.45 -46.15 L17.25 -42.45 15.3 -39.45 M8.35 -43.75 L-2.4 -48.45 -1.1 -48.0 Q-0.2 -50.45 -0.2 -51.4 L10.05 -46.9 8.35 -43.75 M-3.75 -48.9 L-10.7 -50.8 Q-9.9 -53.35 -9.9 -54.05 L-2.45 -52.1 -3.4 -49.9 -3.75 -48.9 M-13.55 -51.35 L-19.1 -52.15 -18.1 -53.6 -17.0 -55.15 -11.6 -54.35 -13.55 -51.35 M-2.25 -68.8 Q-2.25 -69.15 -2.55 -69.4 L-3.4 -69.65 -4.2 -69.4 -4.55 -68.8 Q-4.55 -68.45 -4.2 -68.2 -3.9 -67.95 -3.4 -67.95 L-2.55 -68.2 Q-2.25 -68.45 -2.25 -68.8 M-12.05 -63.05 Q-8.15 -63.05 -8.15 -66.55 L-8.45 -66.7 -9.2 -66.75 Q-10.3 -66.75 -11.6 -65.95 -13.1 -65.05 -13.1 -64.0 L-12.95 -63.25 -12.85 -63.25 -12.7 -63.1 -12.05 -63.05" fill="#e0e0e0" fill-rule="evenodd" stroke="none"/>
    <path d="M6.5 -76.5 L14.75 -74.7 15.25 -74.55 15.2 -74.55 Q-6.55 -73.5 -14.85 -67.45 -19.65 -63.95 -19.65 -58.75 L-19.5 -57.7 Q-19.6 -56.8 -20.9 -56.8 -22.05 -56.8 -23.5 -57.9 -24.9 -58.95 -24.9 -59.65 L-23.75 -62.55 Q-22.05 -65.45 -18.65 -68.0 -20.55 -66.2 -20.55 -64.4 L-20.5 -63.75 -20.3 -63.75 -20.15 -63.75 Q-17.55 -65.1 -15.6 -67.7 -12.3 -70.5 -1.65 -74.1 -3.65 -76.0 -12.0 -72.15 L-14.15 -71.1 Q-10.75 -73.3 -9.15 -73.9 -4.6 -75.6 6.5 -76.5 M27.8 -33.4 L28.45 -32.7 26.7 -29.45 22.75 -33.4 Q23.85 -35.85 23.75 -37.35 L27.8 -33.4 M29.65 -31.4 L32.95 -27.15 31.05 -24.0 28.25 -27.7 29.65 -31.4 M33.8 -25.95 L33.9 -25.75 Q33.8 -25.4 34.45 -23.55 L35.1 -21.75 34.7 -19.85 34.3 -18.55 Q33.5 -20.05 32.6 -20.15 L32.35 -20.2 32.35 -20.55 Q32.35 -22.1 31.9 -22.75 L33.8 -25.95 M-32.8 -55.0 L-26.15 -55.65 -27.35 -52.65 -26.5 -52.6 -33.55 -52.15 -32.8 -55.0 M-24.3 -55.6 L-18.9 -55.3 -17.0 -55.15 -18.1 -53.6 -19.1 -52.15 -25.1 -52.55 Q-24.4 -54.65 -24.3 -55.6 M-16.05 -74.35 Q-8.4 -76.7 -2.25 -76.8 -8.15 -76.05 -16.4 -70.7 -24.6 -65.35 -25.35 -61.9 -26.35 -57.45 -31.05 -57.45 -32.0 -57.45 -32.6 -57.95 -33.15 -58.4 -33.15 -58.9 -33.15 -59.95 -30.55 -62.75 -26.5 -67.0 -16.05 -74.35 M11.15 -70.3 L14.3 -69.3 Q10.2 -69.4 3.65 -67.7 -1.8 -66.3 -4.05 -65.15 -3.0 -66.8 -2.1 -67.25 L-2.05 -67.25 Q0.0 -68.2 3.65 -69.1 7.95 -70.2 11.15 -70.3 M19.15 -69.0 Q21.65 -68.8 25.25 -67.5 28.2 -66.45 29.0 -65.9 L27.95 -66.05 20.25 -66.3 Q20.7 -67.8 20.3 -68.15 L19.15 -69.0 M16.75 -66.05 L18.8 -65.1 Q15.0 -64.8 10.25 -63.2 5.2 -61.5 3.35 -59.75 L3.75 -60.65 Q4.4 -61.8 5.85 -63.0 9.85 -65.0 16.75 -66.05 M23.2 -65.1 Q32.45 -64.65 35.3 -60.85 L32.4 -61.85 26.15 -61.05 26.8 -61.5 Q27.15 -61.8 27.15 -62.45 27.15 -62.95 25.6 -63.9 L23.2 -65.1 M12.35 -53.85 Q10.9 -51.15 10.65 -48.25 L1.2 -52.45 0.85 -53.15 Q0.6 -53.6 0.6 -54.2 L1.25 -56.15 2.55 -59.0 Q2.55 -56.85 5.45 -55.35 8.3 -53.85 12.35 -53.85 M1.0 -58.5 L-0.6 -56.1 -2.35 -53.65 -10.9 -55.75 -15.7 -56.95 Q-18.3 -57.85 -18.3 -60.2 -18.3 -61.2 -17.95 -61.8 L-15.1 -60.95 -13.0 -60.5 Q-11.9 -60.5 -10.1 -61.3 -10.9 -58.9 -11.0 -56.4 L-10.9 -55.75 -10.2 -55.6 -7.6 -62.8 -6.95 -63.3 -4.3 -65.0 Q-6.0 -62.8 -6.0 -61.9 -6.0 -60.2 -5.2 -59.45 -3.7 -58.05 1.0 -58.5 M11.75 -73.1 Q14.05 -73.7 19.0 -71.8 22.95 -70.35 24.2 -69.4 L16.5 -70.3 Q16.2 -71.1 14.3 -72.1 L11.75 -73.1 M30.45 -60.35 Q34.9 -60.35 37.8 -57.7 40.35 -55.35 43.9 -48.55 41.7 -50.55 34.35 -54.9 27.85 -54.9 24.65 -52.7 23.4 -51.85 21.25 -48.8 20.3 -47.45 18.8 -46.4 L16.5 -44.75 12.1 -47.4 12.1 -47.8 11.95 -49.6 Q12.0 -50.2 12.8 -51.8 L13.8 -53.4 Q16.85 -56.45 21.6 -58.4 26.3 -60.35 30.45 -60.35 M36.85 -56.15 Q36.1 -57.35 34.75 -57.9 32.6 -58.8 28.3 -58.8 24.55 -58.8 19.85 -56.6 14.7 -54.2 14.7 -51.5 L14.8 -50.75 15.15 -50.55 17.15 -50.55 19.15 -51.85 Q21.25 -53.35 25.3 -54.95 30.0 -56.85 32.45 -56.7 L36.85 -56.15 M33.75 -51.0 L33.7 -51.0 33.5 -51.85 32.55 -52.1 Q29.85 -52.1 26.85 -49.5 24.15 -47.15 24.15 -45.75 24.15 -45.1 24.35 -45.0 L24.7 -45.0 Q26.9 -47.8 33.75 -51.0 M24.8 -38.4 L22.4 -39.9 Q20.7 -41.05 20.6 -42.35 L20.35 -44.7 21.3 -46.1 22.65 -48.3 Q24.1 -51.3 28.3 -52.65 31.15 -53.6 34.35 -53.6 38.4 -53.6 43.85 -46.8 49.9 -39.25 49.9 -31.05 49.9 -27.65 48.65 -24.5 48.2 -23.25 46.35 -19.85 L46.55 -21.15 Q47.3 -27.25 46.1 -33.2 45.35 -36.85 44.4 -38.7 42.95 -41.55 39.3 -44.85 35.75 -48.05 34.25 -48.05 31.75 -48.05 29.45 -46.1 26.4 -43.55 24.8 -38.4 M30.65 -39.0 Q31.85 -39.0 32.3 -40.05 32.75 -41.1 31.7 -42.0 30.55 -41.85 29.95 -40.95 29.55 -40.3 29.55 -39.65 29.55 -39.05 29.75 -39.05 L30.1 -39.1 30.0 -39.05 30.65 -39.0 M32.85 -45.3 Q34.7 -45.3 38.15 -37.2 41.6 -29.2 41.6 -25.35 41.6 -24.65 40.9 -24.1 40.3 -23.6 39.85 -23.6 L39.05 -23.7 38.95 -23.8 Q37.15 -30.5 36.4 -32.15 34.75 -35.75 32.0 -35.75 30.95 -35.75 29.2 -34.0 30.1 -33.0 27.75 -35.1 25.9 -36.75 25.9 -37.4 25.9 -39.45 27.65 -42.05 29.8 -45.3 32.85 -45.3 M18.55 -41.5 Q18.75 -41.25 18.3 -40.15 L17.25 -38.0 15.3 -39.45 17.25 -42.45 18.45 -41.6 18.55 -41.5 M10.45 -42.55 L8.35 -43.75 10.05 -46.9 11.45 -46.15 Q11.45 -45.35 10.45 -42.55 M-2.4 -48.45 L-3.75 -48.9 -3.4 -49.9 -2.45 -52.1 -0.2 -51.4 Q-0.2 -50.45 -1.1 -48.0 L-2.4 -48.45 M-10.7 -50.8 L-13.55 -51.35 -11.6 -54.35 -9.9 -54.05 Q-9.9 -53.35 -10.7 -50.8" fill="#b4b4b4" fill-rule="evenodd" stroke="none"/>
    <path d="M6.5 -76.5 Q-4.6 -75.6 -9.15 -73.9 -10.75 -73.3 -14.15 -71.1 L-17.45 -68.9 -18.65 -68.0 Q-22.05 -65.45 -23.75 -62.55 L-24.9 -59.65 Q-24.9 -58.95 -23.5 -57.9 -22.05 -56.8 -20.9 -56.8 -19.6 -56.8 -19.5 -57.7 L-19.65 -58.75 Q-19.65 -63.95 -14.85 -67.45 -6.55 -73.5 15.2 -74.55 29.8 -69.55 40.1 -58.25 52.1 -45.0 52.1 -28.65 52.1 -20.25 50.2 -15.85 47.8 -11.95 46.75 -9.9 L45.6 -9.0 46.6 -10.85 Q47.4 -12.55 47.4 -13.05 46.5 -12.7 44.3 -10.2 L41.35 -7.1 41.15 -7.05 Q42.45 -7.9 43.5 -11.45 44.35 -14.5 44.3 -16.25 L44.2 -17.05 44.05 -17.2 43.05 -13.9 Q41.95 -11.15 39.4 -10.0 L39.0 -9.15 39.6 -11.6 39.95 -14.2 Q39.95 -18.0 37.2 -23.45 33.6 -30.55 27.8 -33.4 L23.75 -37.35 18.55 -41.5 18.45 -41.6 17.25 -42.45 11.45 -46.15 10.05 -46.9 -0.2 -51.4 -2.45 -52.1 -9.9 -54.05 -11.6 -54.35 -17.0 -55.15 -18.9 -55.3 -26.3 -57.05 -26.3 -57.15 Q-28.75 -57.9 -31.4 -57.05 L-34.75 -56.05 -35.45 -56.2 -35.55 -56.4 Q-35.55 -58.1 -36.0 -58.2 L-36.8 -56.05 Q-37.3 -54.3 -40.1 -53.7 L-39.6 -54.9 Q-38.95 -58.35 -32.8 -63.75 -26.7 -69.15 -16.05 -74.35 -26.5 -67.0 -30.55 -62.75 -33.15 -59.95 -33.15 -58.9 -33.15 -58.4 -32.6 -57.95 -32.0 -57.45 -31.05 -57.45 -26.35 -57.45 -25.35 -61.9 -24.6 -65.35 -16.4 -70.7 -8.15 -76.05 -2.25 -76.8 L6.5 -76.5 M28.45 -32.7 L29.65 -31.4 28.25 -27.7 31.05 -24.0 32.95 -27.15 33.8 -25.95 31.9 -22.75 Q32.35 -22.1 32.35 -20.55 L31.65 -21.7 Q27.1 -28.75 19.7 -34.85 -0.25 -51.25 -28.75 -51.25 -34.1 -51.25 -41.65 -48.0 L-41.15 -48.4 Q-40.8 -48.8 -40.8 -49.4 L-40.5 -50.3 Q-40.2 -50.7 -40.2 -51.2 -40.2 -52.25 -36.75 -53.7 -37.45 -51.7 -37.05 -51.2 L-36.65 -51.0 Q-36.1 -51.3 -35.65 -52.7 L-35.25 -54.3 -32.8 -55.0 -33.55 -52.15 -26.5 -52.6 -27.35 -52.65 -26.15 -55.65 -24.3 -55.6 Q-24.4 -54.65 -25.1 -52.55 L-19.1 -52.15 -13.55 -51.35 -10.7 -50.8 -3.75 -48.9 -2.4 -48.45 8.35 -43.75 10.45 -42.55 15.3 -39.45 17.25 -38.0 22.75 -33.4 26.7 -29.45 28.45 -32.7 M33.9 -25.75 Q36.95 -21.2 38.45 -13.55 L37.7 -11.65 Q37.3 -10.7 37.75 -10.65 L38.0 -10.7 Q39.25 -11.0 38.1 -10.0 37.55 -9.55 37.5 -9.75 L37.0 -8.9 Q36.15 -7.7 34.9 -7.5 L34.15 -7.35 Q34.9 -8.15 35.3 -9.6 L35.6 -11.7 Q35.6 -15.05 32.6 -20.15 33.5 -20.05 34.3 -18.55 L34.7 -19.85 35.1 -21.75 34.45 -23.55 Q33.8 -25.4 33.9 -25.75 M14.3 -69.3 L11.15 -70.3 16.5 -70.3 24.2 -69.4 Q22.95 -70.35 19.0 -71.8 14.05 -73.7 11.75 -73.1 2.95 -73.6 -5.95 -70.1 -14.65 -66.7 -17.95 -61.8 -18.3 -61.2 -18.3 -60.2 -18.3 -57.85 -15.7 -56.95 L-10.9 -55.75 -2.35 -53.65 -0.6 -56.1 1.0 -58.5 1.9 -60.3 Q3.1 -61.9 5.85 -63.0 4.4 -61.8 3.75 -60.65 L3.35 -59.75 2.55 -59.0 1.25 -56.15 0.6 -54.2 Q0.6 -53.6 0.85 -53.15 L1.2 -52.45 10.65 -48.25 Q10.9 -51.15 12.35 -53.85 13.1 -54.75 15.9 -56.85 18.5 -58.8 18.8 -58.8 L26.15 -61.05 32.4 -61.85 35.3 -60.85 Q32.45 -64.65 23.2 -65.1 L18.8 -65.1 16.75 -66.05 20.25 -66.3 27.95 -66.05 29.0 -65.9 Q28.2 -66.45 25.25 -67.5 21.65 -68.8 19.15 -69.0 L14.3 -69.3 M-2.1 -67.25 Q-3.0 -66.8 -4.05 -65.15 L-4.3 -65.0 -6.95 -63.3 -7.6 -62.8 -10.2 -55.6 -10.9 -55.75 -11.0 -56.4 Q-10.9 -58.9 -10.1 -61.3 -9.25 -63.05 -7.35 -64.4 L-2.1 -67.25 M30.45 -60.35 Q26.3 -60.35 21.6 -58.4 16.85 -56.45 13.8 -53.4 L12.8 -51.8 Q12.0 -50.2 11.95 -49.6 L12.1 -47.8 12.1 -47.4 16.5 -44.75 18.8 -46.4 Q20.3 -47.45 21.25 -48.8 23.4 -51.85 24.65 -52.7 27.85 -54.9 34.35 -54.9 41.7 -50.55 43.9 -48.55 40.35 -55.35 37.8 -57.7 34.9 -60.35 30.45 -60.35 M24.8 -38.4 Q26.4 -43.55 29.45 -46.1 31.75 -48.05 34.25 -48.05 35.75 -48.05 39.3 -44.85 42.95 -41.55 44.4 -38.7 45.35 -36.85 46.1 -33.2 47.3 -27.25 46.55 -21.15 L46.35 -19.85 Q48.2 -23.25 48.65 -24.5 49.9 -27.65 49.9 -31.05 49.9 -39.25 43.85 -46.8 38.4 -53.6 34.35 -53.6 31.15 -53.6 28.3 -52.65 24.1 -51.3 22.65 -48.3 L21.3 -46.1 20.35 -44.7 20.6 -42.35 Q20.7 -41.05 22.4 -39.9 L24.8 -38.4 M32.85 -45.3 Q29.8 -45.3 27.65 -42.05 25.9 -39.45 25.9 -37.4 25.9 -36.75 27.75 -35.1 30.1 -33.0 29.2 -34.0 30.95 -35.75 32.0 -35.75 34.75 -35.75 36.4 -32.15 37.15 -30.5 38.95 -23.8 L39.05 -23.7 39.85 -23.6 Q40.3 -23.6 40.9 -24.1 41.6 -24.65 41.6 -25.35 41.6 -29.2 38.15 -37.2 34.7 -45.3 32.85 -45.3" fill="#8a8a8a" fill-rule="evenodd" stroke="none"/>
    <path d="M15.2 -74.55 L15.25 -74.55 14.75 -74.7 6.5 -76.5 -2.25 -76.8 Q-8.4 -76.7 -16.05 -74.35 -26.7 -69.15 -32.8 -63.75 -38.95 -58.35 -39.6 -54.9 L-40.1 -53.7 Q-37.3 -54.3 -36.8 -56.05 L-36.0 -58.2 Q-35.55 -58.1 -35.55 -56.4 L-35.45 -56.2 -34.75 -56.05 -31.4 -57.05 Q-28.75 -57.9 -26.3 -57.15 L-26.3 -57.05 -18.9 -55.3 -24.3 -55.6 -26.15 -55.65 -32.8 -55.0 -35.25 -54.3 -35.65 -52.7 Q-36.1 -51.3 -36.65 -51.0 L-37.05 -51.2 Q-37.45 -51.7 -36.75 -53.7 -40.2 -52.25 -40.2 -51.2 -40.2 -50.7 -40.5 -50.3 L-40.8 -49.4 Q-40.8 -48.8 -41.15 -48.4 L-41.65 -48.0 Q-34.1 -51.25 -28.75 -51.25 -0.25 -51.25 19.7 -34.85 27.1 -28.75 31.65 -21.7 L32.35 -20.55 32.35 -20.2 32.6 -20.15 Q35.6 -15.05 35.6 -11.7 L35.3 -9.6 Q34.9 -8.15 34.15 -7.35 L34.9 -7.5 Q36.15 -7.7 37.0 -8.9 L37.5 -9.75 Q37.55 -9.55 38.1 -10.0 39.25 -11.0 38.0 -10.7 L37.75 -10.65 Q37.3 -10.7 37.7 -11.65 L38.45 -13.55 Q36.95 -21.2 33.9 -25.75 L33.8 -25.95 32.95 -27.15 29.65 -31.4 28.45 -32.7 27.8 -33.4 Q33.6 -30.55 37.2 -23.45 39.95 -18.0 39.95 -14.2 L39.6 -11.6 39.0 -9.15 39.4 -10.0 Q41.95 -11.15 43.05 -13.9 L44.05 -17.2 44.2 -17.05 44.3 -16.25 Q44.35 -14.5 43.5 -11.45 42.45 -7.9 41.15 -7.05 L41.35 -7.1 44.3 -10.2 Q46.5 -12.7 47.4 -13.05 47.4 -12.55 46.6 -10.85 L45.6 -9.0 46.75 -9.9 Q47.8 -11.95 50.2 -15.85 52.1 -20.25 52.1 -28.65 52.1 -45.0 40.1 -58.25 29.8 -69.55 15.2 -74.55 M38.65 -5.15 L35.15 -5.5 32.25 -5.95 31.95 -6.0 31.85 -6.7 33.0 -8.4 Q34.1 -10.35 34.1 -11.75 34.1 -12.75 31.4 -18.05 28.65 -23.35 27.15 -25.25 23.25 -30.05 19.8 -32.9 15.7 -36.3 7.45 -41.2 L3.2 -43.2 -5.55 -46.45 Q-10.1 -48.45 -19.45 -49.3 L-28.7 -49.75 -34.15 -48.85 Q-38.95 -47.9 -39.45 -47.45 L-40.55 -46.1 Q-40.9 -45.35 -41.45 -44.75 L-42.65 -46.75 -43.15 -48.0 -42.95 -48.95 -42.45 -49.5 Q-42.15 -49.85 -42.0 -51.0 L-41.85 -52.8 -40.2 -57.0 Q-38.7 -60.4 -31.35 -66.5 -24.05 -72.6 -16.9 -75.45 -9.75 -78.3 2.55 -78.3 22.75 -78.3 38.45 -62.65 45.55 -55.6 49.55 -47.0 53.65 -38.15 53.65 -29.5 53.65 -17.35 49.75 -11.15 45.95 -5.15 38.65 -5.15" fill="#464646" fill-rule="evenodd" stroke="none"/>
  </g>
</svg>
