<?xml version="1.0" encoding="UTF-8" standalone="no"?>
<svg xmlns:ffdec="https://www.free-decompiler.com/flash" xmlns:xlink="http://www.w3.org/1999/xlink" ffdec:objectType="shape" height="171.65px" width="79.1px" xmlns="http://www.w3.org/2000/svg">
  <g transform="matrix(1.0, 0.0, 0.0, 1.0, 35.9, 133.6)">
    <path d="M13.1 -126.7 Q13.55 -128.55 13.45 -129.2 L20.75 -120.55 Q25.3 -114.6 28.45 -107.6 37.25 -88.3 39.25 -53.1 L40.5 -33.45 41.2 -23.6 Q41.7 -17.55 41.6 -13.5 41.55 -10.95 42.35 -8.1 L43.2 -4.5 Q43.2 -1.85 42.7 -1.45 L40.45 -1.2 Q40.2 -1.35 39.9 -1.45 L38.35 -4.0 36.1 -5.05 34.6 -5.5 33.35 -5.2 31.9 -4.0 30.55 -2.8 Q30.0 -1.9 29.5 0.0 29.45 1.35 29.15 1.5 L28.95 1.6 Q29.05 1.8 28.75 1.9 L27.7 2.1 27.7 2.65 Q28.2 5.95 26.25 16.85 L26.75 2.35 24.65 2.85 23.3 2.9 22.1 0.85 21.1 -0.1 Q20.2 -0.75 18.3 -1.4 L15.15 -1.45 13.1 -0.9 11.55 -0.1 Q11.4 0.0 10.0 1.2 8.9 2.6 8.45 3.75 L7.9 5.1 6.5 5.05 5.15 4.95 4.15 4.9 3.4 4.9 Q2.95 4.8 1.95 2.55 0.9 0.05 -2.95 -1.75 L-5.4 -2.0 Q-6.95 -2.05 -8.55 -0.8 L-9.9 0.55 -10.85 2.3 Q-11.0 2.5 -11.35 2.5 -12.35 2.5 -11.95 2.25 L-15.3 0.85 Q-16.7 0.25 -17.15 -3.1 -17.65 -6.4 -20.05 -7.5 -22.25 -7.65 -23.8 -6.55 L-25.0 -4.75 -25.45 -4.35 Q-27.45 -5.35 -27.45 -7.1 -27.45 -8.2 -25.85 -13.65 -24.05 -19.7 -23.45 -26.05 L-22.55 -35.6 -22.15 -53.1 -22.1 -53.1 -22.25 -57.15 Q-23.0 -59.8 -23.75 -60.15 L-26.7 -62.05 Q-29.15 -63.65 -29.5 -63.95 -33.0 -66.65 -34.5 -69.9 -35.9 -73.05 -35.9 -77.85 -35.9 -82.65 -34.6 -85.75 L-28.95 -96.85 Q-25.0 -104.75 -19.2 -113.1 L-8.5 -127.7 -9.1 -124.0 -9.15 -124.0 Q-11.35 -121.8 -19.15 -108.9 -26.65 -96.55 -26.65 -95.9 -26.65 -95.2 -26.0 -94.9 L-24.6 -94.45 -12.25 -92.4 -10.75 -92.85 Q-10.25 -93.25 -8.95 -95.85 L-7.95 -95.85 -8.95 -93.8 -9.1 -92.95 -8.95 -92.35 -8.15 -92.4 -5.65 -92.65 -4.85 -92.7 Q5.15 -93.65 9.85 -95.95 L10.3 -96.5 11.9 -99.25 13.1 -101.65 12.6 -99.95 Q12.3 -97.65 11.05 -96.05 9.85 -94.6 8.15 -94.0 L5.7 -93.45 5.65 -93.45 5.65 -93.4 Q3.1 -88.25 1.75 -87.35 0.6 -86.55 -3.8 -86.55 -7.45 -86.55 -8.3 -87.15 -8.5 -87.3 -8.5 -87.9 L-8.35 -88.8 -7.05 -91.65 -9.25 -91.5 -9.85 -91.95 -10.2 -92.5 Q-10.75 -92.05 -12.2 -91.5 -14.05 -91.55 -14.8 -90.6 -15.45 -89.15 -16.15 -88.35 -16.85 -86.85 -17.4 -86.65 L-22.75 -86.55 -26.15 -86.6 Q-27.45 -86.8 -27.45 -87.75 L-27.15 -88.45 Q-26.4 -89.45 -25.05 -93.45 -26.0 -93.4 -26.85 -94.1 L-27.7 -94.95 -32.35 -84.95 Q-33.8 -81.35 -33.8 -76.8 -33.8 -70.35 -28.8 -65.8 -26.7 -63.9 -19.5 -59.8 -20.45 -26.1 -21.2 -20.5 -21.55 -18.1 -22.4 -16.45 -23.65 -13.9 -24.3 -11.95 L-24.8 -10.6 -25.1 -9.1 -23.75 -12.45 Q-22.65 -14.1 -20.5 -14.1 -18.5 -14.1 -17.0 -12.55 -15.6 -11.05 -15.45 -9.1 L-15.4 -9.0 -14.95 -9.05 -14.85 -4.35 Q-14.95 -2.9 -15.35 -1.2 L-11.85 -0.05 -11.45 -2.4 -10.3 -5.0 Q-9.6 -6.15 -8.25 -7.15 -7.1 -8.0 -6.25 -8.2 L-1.7 -8.0 Q0.4 -7.2 1.8 -5.2 L3.25 -2.35 3.65 -0.45 3.5 3.25 6.85 3.35 Q6.75 3.35 6.8 2.2 L6.95 -0.25 7.55 -2.25 Q7.75 -3.05 9.2 -4.95 10.5 -6.55 12.5 -7.4 14.3 -8.2 16.1 -8.2 L19.15 -7.55 Q20.65 -7.0 21.2 -6.3 L23.6 -3.2 24.2 -1.15 24.35 1.35 24.6 1.3 28.0 0.3 27.6 -2.3 Q27.55 -3.9 27.65 -4.75 28.1 -7.15 28.6 -8.15 L29.65 -9.85 Q30.65 -11.1 31.9 -11.6 L33.15 -11.9 Q37.1 -11.75 39.0 -9.1 40.5 -7.05 40.95 -2.95 41.8 -3.2 42.0 -4.95 41.95 -5.8 39.95 -11.45 39.55 -12.55 38.95 -21.25 38.4 -28.8 38.35 -31.5 38.0 -40.25 37.05 -53.1 L37.1 -53.1 33.25 -85.1 Q32.35 -91.35 30.85 -95.95 26.35 -109.85 20.4 -117.95 17.3 -122.25 13.1 -126.7 M2.85 -92.55 L-0.7 -92.5 -6.05 -91.75 -7.45 -88.5 Q-7.45 -87.7 -6.65 -87.55 L-3.45 -87.5 Q1.1 -87.5 1.7 -88.25 L4.35 -92.7 4.3 -92.7 2.85 -92.55 M-4.25 -7.45 Q-6.35 -7.45 -8.25 -5.95 -10.6 -4.05 -10.75 -0.8 L-9.75 -1.85 -8.25 -2.75 Q-6.7 -3.55 -5.05 -3.55 -2.2 -3.55 0.3 -1.8 2.55 -0.25 2.7 1.2 L2.6 -0.5 Q2.2 -2.9 0.85 -4.75 -1.1 -7.45 -4.25 -7.45 M15.75 -7.15 Q12.35 -7.15 10.1 -4.4 8.05 -1.9 7.75 1.8 9.0 -0.05 11.4 -1.45 14.15 -3.05 17.0 -3.05 18.6 -3.05 20.65 -1.95 22.35 -1.05 23.35 -0.05 L23.25 -0.95 Q22.6 -3.75 20.85 -5.3 18.9 -7.15 15.75 -7.15 M34.3 -10.95 Q31.8 -10.95 30.25 -8.9 28.55 -6.75 28.55 -3.2 L28.6 -2.25 28.6 -2.35 Q29.5 -4.0 31.7 -5.6 33.65 -7.0 34.5 -7.0 35.35 -7.0 37.0 -6.3 L39.65 -4.8 39.4 -5.85 Q39.1 -8.55 36.95 -9.95 35.45 -10.95 34.3 -10.95 M26.2 17.05 L26.0 18.05 24.7 17.7 24.5 17.65 21.1 16.6 21.25 15.55 26.2 17.05 M23.55 29.7 L22.25 35.0 20.3 35.8 16.8 36.9 17.55 34.25 Q21.75 33.65 23.55 29.7 M-22.5 -87.5 Q-18.2 -87.5 -17.2 -88.2 -16.95 -88.4 -15.1 -91.75 L-24.15 -93.3 -25.9 -90.05 -26.3 -88.6 Q-26.3 -87.9 -26.0 -87.75 L-22.5 -87.5 M-20.55 -13.05 Q-21.9 -13.05 -22.7 -11.4 L-24.3 -8.2 -23.5 -8.8 Q-23.5 -9.4 -21.65 -9.4 -19.85 -9.4 -18.05 -8.05 -15.85 -6.4 -15.9 -3.95 L-15.85 -5.2 Q-15.85 -8.6 -17.15 -10.8 -18.45 -13.05 -20.55 -13.05" fill="#717167" fill-rule="evenodd" stroke="none"/>
    <path d="M13.1 -126.7 Q17.3 -122.25 20.4 -117.95 26.35 -109.85 30.85 -95.95 32.35 -91.35 33.25 -85.1 L37.1 -53.1 37.05 -53.1 Q38.0 -40.25 38.35 -31.5 38.4 -28.8 38.95 -21.25 39.55 -12.55 39.95 -11.45 41.95 -5.8 42.0 -4.95 41.8 -3.2 40.95 -2.95 40.5 -7.05 39.0 -9.1 37.1 -11.75 33.15 -11.9 33.0 -14.6 31.25 -23.6 L26.45 -23.05 25.8 -24.15 26.25 -24.05 Q26.5 -23.9 28.6 -24.85 30.9 -25.9 31.8 -27.0 33.65 -26.5 35.1 -27.35 36.65 -28.3 36.65 -30.3 36.65 -33.2 33.55 -34.45 33.1 -37.35 32.0 -40.4 27.8 -39.1 26.95 -39.1 L26.1 -39.2 25.9 -39.5 Q26.6 -41.8 29.4 -42.55 31.95 -43.25 31.95 -43.85 31.95 -46.15 31.45 -49.0 30.9 -51.8 30.9 -53.1 L30.15 -58.0 Q29.2 -62.9 28.9 -65.5 31.05 -65.6 32.55 -66.95 34.25 -68.45 34.25 -70.9 34.25 -74.35 31.9 -75.95 30.4 -77.0 28.8 -77.0 26.4 -77.0 25.3 -74.75 24.55 -73.3 24.55 -71.55 25.05 -68.85 26.0 -67.35 25.3 -65.6 24.55 -65.0 24.1 -64.65 23.35 -64.65 L22.6 -64.6 22.6 -65.3 22.7 -66.25 23.35 -68.65 23.95 -70.55 24.9 -74.7 Q25.5 -78.45 25.5 -81.75 L25.35 -84.5 21.1 -77.9 Q20.05 -76.6 19.1 -75.95 L17.6 -76.35 17.5 -76.3 17.4 -77.0 22.15 -85.0 23.35 -87.85 Q24.05 -89.3 24.05 -90.6 24.05 -94.7 11.3 -123.5 L13.1 -126.7 M27.6 -2.3 L28.0 0.3 24.6 1.3 24.35 1.35 24.2 -1.15 Q25.9 -1.6 27.6 -2.3 M6.95 -0.25 L6.8 2.2 Q6.75 3.35 6.85 3.35 L3.5 3.25 3.65 -0.45 6.95 -0.25 M-11.45 -2.4 L-11.85 -0.05 -15.35 -1.2 Q-14.95 -2.9 -14.85 -4.35 -12.4 -2.6 -11.45 -2.4 M-15.45 -9.1 Q-15.6 -11.05 -17.0 -12.55 -18.5 -14.1 -20.5 -14.1 -22.65 -14.1 -23.75 -12.45 L-25.1 -9.1 -24.8 -10.6 -24.3 -11.95 Q-23.65 -13.9 -22.4 -16.45 -21.55 -18.1 -21.2 -20.5 -20.45 -26.1 -19.5 -59.8 -26.7 -63.9 -28.8 -65.8 -33.8 -70.35 -33.8 -76.8 -33.8 -81.35 -32.35 -84.95 L-27.7 -94.95 -26.85 -94.1 Q-26.0 -93.4 -25.05 -93.45 -26.4 -89.45 -27.15 -88.45 L-27.45 -87.75 Q-27.45 -86.8 -26.15 -86.6 L-22.75 -86.55 -17.4 -86.65 Q-16.85 -86.85 -16.15 -88.35 -15.45 -89.15 -14.8 -90.6 -14.05 -91.55 -12.2 -91.5 L-12.7 -90.65 -14.4 -88.25 Q-16.1 -86.5 -17.05 -85.95 -18.6 -85.15 -20.9 -84.65 L-24.2 -84.35 -26.35 -84.6 Q-28.15 -84.95 -28.55 -85.4 L-29.75 -82.3 -30.2 -79.8 Q-30.2 -77.35 -28.6 -74.3 -26.85 -70.95 -24.65 -70.05 -24.4 -67.65 -22.55 -66.1 -20.9 -64.75 -19.0 -64.75 -17.9 -64.75 -17.25 -65.35 L-17.0 -65.6 -16.75 -66.05 Q-16.35 -67.0 -16.35 -68.6 L-1.7 -68.8 Q-1.0 -69.3 6.4 -70.75 7.05 -69.7 7.05 -68.7 7.05 -67.15 6.15 -65.3 4.85 -62.55 2.05 -61.15 0.95 -61.85 -2.4 -62.8 -4.25 -62.8 -6.3 -61.2 -8.85 -59.3 -9.75 -56.1 -12.85 -55.0 -12.5 -39.5 -15.25 -39.65 -17.25 -38.15 -19.35 -36.5 -19.35 -33.8 -19.35 -30.1 -17.3 -28.4 -15.9 -27.25 -14.0 -27.25 -12.5 -27.25 -10.8 -28.75 -7.65 -27.85 -7.4 -27.05 -7.85 -26.05 -9.65 -25.85 L-12.2 -25.85 Q-12.4 -23.85 -15.45 -9.1 M-9.25 -91.5 L-7.05 -91.65 -8.35 -88.8 -8.5 -87.9 Q-8.5 -87.3 -8.3 -87.15 -7.45 -86.55 -3.8 -86.55 0.6 -86.55 1.75 -87.35 3.1 -88.25 5.65 -93.4 L5.65 -93.45 5.7 -93.45 8.15 -94.0 6.95 -91.75 Q5.15 -88.6 3.95 -87.4 1.75 -85.6 -0.1 -84.95 L-3.3 -84.45 -8.3 -84.75 Q-9.4 -85.1 -10.35 -86.65 L-10.35 -88.35 -9.3 -91.4 -9.25 -91.5 M-24.6 -94.45 L-26.0 -94.9 Q-26.65 -95.2 -26.65 -95.9 -26.65 -96.55 -19.15 -108.9 -11.35 -121.8 -9.15 -124.0 L-9.2 -123.85 Q-9.2 -122.1 -10.6 -117.0 -11.85 -112.45 -12.35 -111.5 L-16.15 -106.6 Q-17.05 -107.5 -18.0 -107.5 -19.6 -107.5 -20.7 -105.55 -21.6 -103.9 -21.6 -102.45 L-21.15 -101.15 -20.55 -100.3 Q-21.85 -99.15 -23.0 -97.35 L-24.6 -94.45 M26.75 2.35 L26.25 16.85 26.2 17.05 21.25 15.55 21.55 13.05 Q25.4 12.55 25.95 10.4 26.15 6.35 26.75 2.35 M26.0 18.05 L26.1 18.1 23.85 28.85 23.55 29.7 Q21.75 33.65 17.55 34.25 L19.2 27.85 Q22.85 27.8 24.0 23.45 L24.7 17.7 26.0 18.05 M-9.85 -37.25 L-5.3 -37.7 -4.0 -36.5 Q-5.1 -35.4 -8.95 -34.05 -9.05 -35.75 -9.85 -37.25" fill="#b6b7a2" fill-rule="evenodd" stroke="none"/>
    <path d="M33.15 -11.9 L31.9 -11.6 Q30.65 -11.1 29.65 -9.85 L26.55 -15.9 Q24.4 -19.05 21.0 -19.7 21.7 -21.5 21.8 -22.4 21.95 -23.95 21.35 -26.5 24.6 -27.4 26.6 -29.1 28.65 -30.85 28.65 -32.9 28.65 -35.85 23.95 -39.1 L17.75 -42.55 21.3 -43.65 21.7 -43.5 22.85 -43.4 24.15 -43.75 24.65 -43.95 Q25.3 -44.1 25.6 -44.4 L25.85 -44.7 26.25 -45.05 27.3 -45.9 Q27.7 -46.5 27.7 -49.05 27.7 -53.2 26.6 -54.95 25.6 -56.55 23.35 -56.55 L13.05 -54.3 Q16.15 -59.1 18.5 -63.7 21.6 -69.85 21.8 -72.8 L21.6 -73.85 20.15 -74.15 Q19.3 -74.15 17.9 -71.6 14.9 -66.05 11.6 -61.1 10.85 -59.95 9.85 -59.4 L4.8 -56.95 4.05 -58.65 Q3.1 -60.35 2.05 -61.15 4.85 -62.55 6.15 -65.3 7.05 -67.15 7.05 -68.7 7.05 -69.7 6.4 -70.75 -1.0 -69.3 -1.7 -68.8 L-16.35 -68.6 Q-16.7 -69.75 -17.65 -70.85 -19.3 -72.75 -21.8 -72.75 -23.8 -72.75 -24.65 -70.05 -26.85 -70.95 -28.6 -74.3 -30.2 -77.35 -30.2 -79.8 L-29.75 -82.3 -28.55 -85.4 Q-28.15 -84.95 -26.35 -84.6 L-24.2 -84.35 -20.9 -84.65 -22.4 -81.45 Q-22.6 -80.75 -22.6 -78.3 -22.6 -72.8 -13.7 -72.8 L-1.3 -73.9 6.25 -75.15 7.2 -74.9 8.85 -74.65 Q11.2 -74.65 13.0 -75.9 15.95 -78.0 15.3 -82.8 17.25 -86.0 18.45 -88.85 19.55 -91.45 19.55 -92.7 L18.9 -98.2 18.0 -98.4 6.95 -91.75 8.15 -94.0 Q9.85 -94.6 11.05 -96.05 12.3 -97.65 12.6 -99.95 L13.85 -102.75 14.75 -105.6 Q15.85 -107.35 15.85 -109.05 15.85 -110.25 14.8 -111.85 L14.3 -112.55 Q13.25 -113.8 11.85 -114.6 L8.1 -118.95 8.95 -120.1 11.3 -123.5 Q24.05 -94.7 24.05 -90.6 24.05 -89.3 23.35 -87.85 L22.15 -85.0 17.4 -77.0 17.5 -76.3 17.6 -76.35 19.1 -75.95 Q20.05 -76.6 21.1 -77.9 L25.35 -84.5 25.5 -81.75 Q25.5 -78.45 24.9 -74.7 L23.95 -70.55 23.35 -68.65 22.7 -66.25 22.6 -65.3 22.6 -64.6 23.35 -64.65 Q24.1 -64.65 24.55 -65.0 25.3 -65.6 26.0 -67.35 27.35 -66.0 28.9 -65.5 29.2 -62.9 30.15 -58.0 L30.9 -53.1 Q30.9 -51.8 31.45 -49.0 31.95 -46.15 31.95 -43.85 31.95 -43.25 29.4 -42.55 26.6 -41.8 25.9 -39.5 L26.1 -39.2 26.95 -39.1 Q27.8 -39.1 32.0 -40.4 33.1 -37.35 33.55 -34.45 32.1 -34.15 31.15 -33.15 30.05 -32.0 30.05 -30.3 30.05 -28.75 31.8 -27.0 30.9 -25.9 28.6 -24.85 26.5 -23.9 26.25 -24.05 L25.8 -24.15 26.45 -23.05 31.25 -23.6 Q33.0 -14.6 33.15 -11.9 M27.65 -4.75 Q27.55 -3.9 27.6 -2.3 25.9 -1.6 24.2 -1.15 L23.6 -3.2 25.8 -3.95 27.65 -4.75 M7.55 -2.25 L6.95 -0.25 3.65 -0.45 3.25 -2.35 7.55 -2.25 M-10.3 -5.0 L-11.45 -2.4 Q-12.4 -2.6 -14.85 -4.35 L-14.95 -9.05 -15.4 -9.0 -15.45 -9.1 Q-12.4 -23.85 -12.2 -25.85 L-9.65 -25.85 Q-7.85 -26.05 -7.4 -27.05 -7.65 -27.85 -10.8 -28.75 -10.2 -29.35 -9.55 -30.6 L-6.25 -28.55 Q-3.1 -26.7 -0.75 -25.0 L0.15 -24.3 -3.2 -23.7 -6.9 -22.9 Q-9.9 -21.65 -9.9 -19.2 L-9.55 -17.9 -8.65 -15.95 -10.7 -6.05 -10.65 -5.35 -10.3 -5.0 M-12.2 -91.5 Q-10.75 -92.05 -10.2 -92.5 L-9.85 -91.95 -9.25 -91.5 -9.3 -91.4 -10.6 -91.1 -12.7 -90.65 -12.2 -91.5 M11.9 -99.25 L10.3 -96.5 9.85 -95.95 Q5.15 -93.65 -4.85 -92.7 L-5.65 -92.65 -8.15 -92.4 -8.95 -92.35 -9.1 -92.95 -8.95 -93.8 -7.95 -95.85 2.85 -96.3 Q8.9 -96.75 11.9 -99.25 M-8.95 -95.85 Q-10.25 -93.25 -10.75 -92.85 L-12.25 -92.4 -24.6 -94.45 -23.0 -97.35 Q-21.85 -99.15 -20.55 -100.3 L-20.35 -100.1 -19.55 -100.0 Q-17.75 -100.0 -16.75 -101.7 -16.1 -102.75 -16.0 -104.2 L-16.05 -105.8 -16.15 -106.6 -12.35 -111.5 -14.7 -100.6 Q-14.45 -99.55 -13.75 -99.5 -13.35 -99.8 -5.25 -107.0 L3.9 -115.25 Q1.9 -111.0 -0.65 -107.05 -4.1 -101.75 -6.1 -101.25 L-6.15 -101.25 -10.65 -99.95 Q-14.65 -98.75 -15.95 -98.9 L-16.45 -97.55 -14.4 -96.4 -8.95 -95.85 M24.65 2.85 L26.75 2.35 Q26.15 6.35 25.95 10.4 25.4 12.55 21.55 13.05 L21.65 11.45 Q23.35 11.1 23.95 9.65 24.6 7.95 24.65 2.85 M-8.1 -49.1 L-7.3 -44.1 Q-6.95 -42.75 -5.95 -42.2 -1.55 -40.95 5.15 -37.7 L-5.85 -34.5 -8.95 -33.2 -8.95 -34.05 Q-5.1 -35.4 -4.0 -36.5 L-5.3 -37.7 -9.85 -37.25 -10.75 -38.3 Q-11.75 -39.35 -12.5 -39.5 -12.85 -55.0 -9.75 -56.1 L-9.65 -53.05 Q-9.3 -50.15 -8.1 -49.1 M24.5 17.65 L24.7 17.7 24.0 23.45 Q22.85 27.8 19.2 27.85 L20.4 21.5 22.15 20.7 24.1 18.7 24.5 17.65 M-10.35 -88.35 L-10.35 -86.65 -11.9 -86.3 -17.05 -85.95 Q-16.1 -86.5 -14.4 -88.25 L-10.35 -88.35" fill="#d6d7c3" fill-rule="evenodd" stroke="none"/>
    <path d="M8.95 -123.15 Q10.6 -124.5 11.55 -127.8 11.55 -128.95 10.8 -130.1 9.75 -131.75 7.8 -131.75 L6.0 -132.1 8.85 -129.5 9.6 -128.75 9.15 -127.3 Q8.6 -125.85 7.9 -124.9 L5.75 -122.9 Q0.3 -116.15 -4.2 -112.3 -6.85 -110.0 -8.45 -109.25 L-9.05 -109.3 -9.2 -110.45 -8.1 -115.55 -6.65 -122.2 -5.45 -127.9 -4.7 -129.15 Q-6.3 -127.35 -7.1 -124.55 L-7.75 -121.6 -10.4 -112.0 Q-12.55 -103.6 -12.85 -102.9 L-10.9 -104.75 -2.25 -111.55 Q6.4 -118.75 7.1 -121.3 L8.95 -123.15 M3.45 -131.0 Q-1.55 -131.0 -3.6 -124.65 -5.5 -116.2 -7.4 -111.9 L-2.55 -115.35 Q-1.0 -116.6 0.95 -119.05 L4.9 -123.45 Q7.75 -126.6 7.75 -127.15 7.75 -128.3 6.85 -129.45 5.6 -131.0 3.45 -131.0 M13.45 -129.2 Q13.55 -128.55 13.1 -126.7 L11.3 -123.5 8.95 -120.1 8.1 -118.95 Q7.85 -118.5 5.95 -116.85 L3.9 -115.25 -5.25 -107.0 Q-13.35 -99.8 -13.75 -99.5 -14.45 -99.55 -14.7 -100.6 L-12.35 -111.5 Q-11.85 -112.45 -10.6 -117.0 -9.2 -122.1 -9.2 -123.85 L-9.1 -124.0 -8.5 -127.7 Q-5.65 -130.0 -2.7 -131.7 0.7 -133.6 2.5 -133.6 8.55 -133.6 10.45 -132.25 11.95 -130.3 13.45 -129.2 M-25.45 -4.35 L-25.0 -4.75 -23.8 -6.55 -24.5 4.9 Q-24.5 14.95 -19.1 22.8 -16.35 26.85 -12.85 29.75 -11.1 31.85 -4.35 33.9 2.65 36.05 8.55 36.05 13.55 36.05 16.45 34.6 L18.1 28.15 19.3 21.95 20.0 17.4 Q20.15 16.2 18.55 15.4 16.6 14.45 14.6 13.35 L9.55 10.25 Q8.5 9.25 8.05 7.8 7.65 6.4 7.9 5.1 L8.45 3.75 Q8.9 2.6 10.0 1.2 L9.85 2.0 9.75 9.25 Q16.8 13.85 20.3 15.15 L20.55 12.95 20.7 11.25 21.1 -0.1 22.1 0.85 21.65 11.45 21.55 13.05 21.25 15.55 21.1 16.6 21.0 17.75 20.4 21.5 19.2 27.85 17.55 34.25 16.8 36.9 Q11.05 38.05 6.6 38.05 -1.05 38.05 -9.85 32.65 -16.1 28.8 -19.8 24.65 -23.1 21.0 -24.7 14.9 -26.1 9.6 -26.1 3.1 L-25.45 -4.35 M26.25 16.85 Q28.2 5.95 27.7 2.65 L27.7 2.1 28.75 1.9 Q28.8 6.95 27.9 14.05 L26.8 21.0 25.8 25.8 24.5 30.7 Q34.8 21.55 36.75 14.8 37.6 11.9 37.85 6.9 38.05 0.4 38.35 -4.0 L39.9 -1.45 Q40.8 10.1 35.7 20.95 30.45 32.05 22.25 35.0 L23.55 29.7 23.85 28.85 26.1 18.1 26.0 18.05 26.2 17.05 26.25 16.85 M29.5 0.0 Q30.0 -1.9 30.55 -2.8 L30.65 -0.6 30.35 -0.15 29.5 0.0 M33.35 -5.2 L34.6 -5.5 34.9 -4.05 35.2 -2.35 Q35.2 -1.7 34.85 -1.4 L34.05 -0.9 33.6 -1.15 33.5 -1.45 33.35 -5.2" fill="#835600" fill-rule="evenodd" stroke="none"/>
    <path d="M7.9 -124.9 Q8.6 -125.85 9.15 -127.3 L9.6 -128.75 8.85 -129.5 6.0 -132.1 7.8 -131.75 Q9.75 -131.75 10.8 -130.1 11.55 -128.95 11.55 -127.8 10.6 -124.5 8.95 -123.15 L7.9 -124.9 M-7.75 -121.6 L-7.1 -124.55 Q-6.3 -127.35 -4.7 -129.15 L-5.45 -127.9 -6.65 -122.2 -8.1 -115.55 Q-7.6 -118.15 -7.9 -120.2 L-7.85 -121.1 -7.75 -121.6 M-23.8 -6.55 Q-22.25 -7.65 -20.05 -7.5 -19.75 -6.55 -18.95 -5.75 L-20.15 -4.85 Q-21.05 -3.6 -21.05 -0.4 -21.05 10.4 -13.2 19.9 -4.65 30.25 7.2 30.25 L14.0 29.6 18.1 28.15 16.45 34.6 Q13.55 36.05 8.55 36.05 2.65 36.05 -4.35 33.9 -11.1 31.85 -12.85 29.75 -16.35 26.85 -19.1 22.8 -24.5 14.95 -24.5 4.9 L-23.8 -6.55 M4.15 4.9 L5.15 4.95 5.0 5.6 4.65 5.85 4.3 5.6 4.15 4.9 M10.0 1.2 Q11.4 0.0 11.55 -0.1 L11.0 2.65 10.75 5.1 12.2 8.3 Q14.8 11.65 20.55 12.95 L20.3 15.15 Q16.8 13.85 9.75 9.25 L9.85 2.0 10.0 1.2 M34.6 -5.5 L36.1 -5.05 38.35 -4.0 Q38.05 0.4 37.85 6.9 37.6 11.9 36.75 14.8 34.8 21.55 24.5 30.7 L25.8 25.8 30.05 19.8 29.8 19.55 Q30.1 16.35 30.35 15.5 L30.5 15.8 30.45 18.6 30.45 19.25 33.25 15.2 Q36.1 9.85 36.1 1.4 L35.75 -4.1 35.7 -3.6 35.0 -0.85 34.15 2.3 33.9 2.0 33.6 -1.15 34.05 -0.9 34.85 -1.4 Q35.2 -1.7 35.2 -2.35 L34.9 -4.05 34.6 -5.5 M31.2 3.5 L31.05 4.95 30.65 5.5 Q30.4 5.5 30.25 4.95 L30.1 3.5 Q30.1 2.65 30.25 2.1 30.4 1.5 30.65 1.5 L31.05 2.1 31.2 3.5 M31.3 10.4 L31.15 11.85 30.75 12.45 Q30.5 12.45 30.35 11.85 30.2 11.25 30.2 10.4 30.2 9.55 30.35 8.95 30.5 8.35 30.75 8.35 L31.15 8.95 31.3 10.4" fill="#d99f04" fill-rule="evenodd" stroke="none"/>
    <path d="M7.9 -124.9 L8.95 -123.15 7.1 -121.3 Q7.1 -121.95 6.7 -122.4 L5.75 -122.9 7.9 -124.9 M-10.9 -104.75 L-12.85 -102.9 Q-12.55 -103.6 -10.4 -112.0 L-7.75 -121.6 -7.85 -121.1 -7.9 -120.2 Q-7.6 -118.15 -8.1 -115.55 L-9.2 -110.45 -9.05 -109.3 -8.45 -109.25 -10.9 -104.75 M-20.05 -7.5 Q-17.65 -6.4 -17.15 -3.1 -16.7 0.25 -15.3 0.85 -16.1 9.25 -11.55 15.45 -5.7 23.6 7.45 23.6 L14.45 22.95 19.3 21.95 18.1 28.15 14.0 29.6 7.2 30.25 Q-4.65 30.25 -13.2 19.9 -21.05 10.4 -21.05 -0.4 -21.05 -3.6 -20.15 -4.85 L-18.95 -5.75 Q-19.75 -6.55 -20.05 -7.5 M3.4 4.9 L4.15 4.9 4.3 5.6 4.65 5.85 5.0 5.6 5.15 4.95 6.5 5.05 7.9 5.1 Q7.65 6.4 8.05 7.8 8.5 9.25 9.55 10.25 L7.85 9.4 7.9 9.45 Q6.7 9.15 5.0 7.2 3.6 5.55 3.4 4.9 M11.55 -0.1 L13.1 -0.9 Q13.95 4.4 15.5 7.0 17.15 9.7 20.7 11.25 L20.55 12.95 Q14.8 11.65 12.2 8.3 L10.75 5.1 11.0 2.65 11.55 -0.1 M15.15 -1.45 L18.3 -1.4 15.15 -1.45 M29.15 1.5 Q29.45 1.35 29.5 0.0 L30.35 -0.15 30.65 -0.6 33.5 -1.45 33.6 -1.15 33.9 2.0 34.15 2.3 35.0 -0.85 35.7 -3.6 35.75 -4.1 36.1 1.4 Q36.1 9.85 33.25 15.2 L30.45 19.25 30.45 18.6 30.5 15.8 30.35 15.5 Q30.1 16.35 29.8 19.55 L30.05 19.8 25.8 25.8 26.8 21.0 Q28.1 20.25 28.9 18.45 29.55 16.85 29.55 15.25 L29.15 1.5 M31.3 10.4 L31.15 8.95 30.75 8.35 Q30.5 8.35 30.35 8.95 30.2 9.55 30.2 10.4 30.2 11.25 30.35 11.85 30.5 12.45 30.75 12.45 L31.15 11.85 31.3 10.4 M31.2 3.5 L31.05 2.1 30.65 1.5 Q30.4 1.5 30.25 2.1 30.1 2.65 30.1 3.5 L30.25 4.95 Q30.4 5.5 30.65 5.5 L31.05 4.95 31.2 3.5" fill="#f5c60c" fill-rule="evenodd" stroke="none"/>
    <path d="M7.1 -121.3 Q6.4 -118.75 -2.25 -111.55 L-10.9 -104.75 -8.45 -109.25 Q-6.85 -110.0 -4.2 -112.3 0.3 -116.15 5.75 -122.9 L6.7 -122.4 Q7.1 -121.95 7.1 -121.3 M-15.3 0.85 L-11.95 2.25 Q-12.35 2.5 -11.35 2.5 -11.0 2.5 -10.85 2.3 L-9.9 0.55 -8.55 -0.8 Q-6.95 -2.05 -5.4 -2.0 L-2.95 -1.75 Q0.9 0.05 1.95 2.55 2.95 4.8 3.4 4.9 3.6 5.55 5.0 7.2 6.7 9.15 7.9 9.45 8.7 10.5 12.05 13.0 16.5 16.3 20.0 17.4 L19.3 21.95 14.45 22.95 7.45 23.6 Q-5.7 23.6 -11.55 15.45 -16.1 9.25 -15.3 0.85 M13.1 -0.9 L15.15 -1.45 18.3 -1.4 Q20.2 -0.75 21.1 -0.1 L20.7 11.25 Q17.15 9.7 15.5 7.0 13.95 4.4 13.1 -0.9 M28.75 1.9 Q29.05 1.8 28.95 1.6 L29.15 1.5 29.55 15.25 Q29.55 16.85 28.9 18.45 28.1 20.25 26.8 21.0 L27.9 14.05 Q28.8 6.95 28.75 1.9 M30.55 -2.8 L31.9 -4.0 33.35 -5.2 33.5 -1.45 30.65 -0.6 30.55 -2.8 M-8.9 -0.25 Q-9.65 3.75 -6.3 9.55 -3.3 14.75 -0.35 16.35 6.25 18.8 9.25 18.55 11.5 18.4 11.5 16.7 L11.45 15.85 Q9.0 15.15 6.6 13.75 1.8 11.0 0.4 6.9 -1.35 1.75 -2.4 0.75 -3.65 -0.45 -7.85 -0.45 L-8.65 -0.4 -8.9 -0.25" fill="#f5e050" fill-rule="evenodd" stroke="none"/>
    <path d="M29.65 -9.85 L28.6 -8.15 Q28.1 -7.15 27.65 -4.75 L25.8 -3.95 23.6 -3.2 21.2 -6.3 Q23.6 -7.1 25.45 -8.6 27.05 -9.95 27.05 -10.65 27.05 -12.1 25.0 -12.65 L22.8 -12.9 16.5 -12.05 7.6 -10.8 -3.25 -11.3 -7.0 -11.1 -7.5 -10.3 -6.25 -8.2 Q-7.1 -8.0 -8.25 -7.15 -9.6 -6.15 -10.3 -5.0 L-10.65 -5.35 -10.7 -6.05 -8.65 -15.95 -7.45 -15.25 -6.25 -15.05 Q-4.45 -15.05 -3.55 -16.6 -2.9 -17.75 -2.9 -19.2 -2.9 -20.55 -3.85 -21.5 -4.9 -22.6 -6.9 -22.9 L-3.2 -23.7 0.15 -24.3 -0.75 -25.0 Q-3.1 -26.7 -6.25 -28.55 L-9.55 -30.6 -9.3 -31.35 -8.95 -33.2 -5.85 -34.5 5.15 -37.7 Q-1.55 -40.95 -5.95 -42.2 -6.95 -42.75 -7.3 -44.1 L-8.1 -49.1 -6.0 -47.15 -2.65 -46.2 -0.3 -45.6 2.0 -45.35 10.5 -46.05 18.55 -47.1 Q18.85 -45.85 19.3 -45.2 19.9 -44.4 21.3 -43.65 L17.75 -42.55 23.95 -39.1 Q28.65 -35.85 28.65 -32.9 28.65 -30.85 26.6 -29.1 24.6 -27.4 21.35 -26.5 L19.75 -28.8 18.2 -30.5 Q21.35 -31.15 22.25 -32.3 22.6 -32.7 22.6 -33.65 22.6 -35.5 20.05 -37.2 16.5 -39.55 8.8 -40.8 9.9 -35.4 15.5 -35.05 1.95 -34.15 -2.2 -33.1 -4.1 -32.2 -6.1 -32.0 L-5.85 -31.4 Q-4.0 -29.25 0.1 -26.55 L4.35 -23.8 Q4.35 -22.55 4.75 -20.9 1.3 -20.6 -0.55 -19.9 L-2.9 -18.65 -2.2 -18.1 Q-1.3 -17.6 1.95 -16.8 L5.2 -16.15 8.35 -16.3 Q9.2 -15.9 11.15 -15.4 L13.55 -14.95 Q15.9 -14.95 17.65 -16.25 L21.0 -19.7 Q24.4 -19.05 26.55 -15.9 L29.65 -9.85 M9.2 -4.95 Q7.75 -3.05 7.55 -2.25 L3.25 -2.35 1.8 -5.2 9.2 -4.95 M12.6 -99.95 L13.1 -101.65 11.9 -99.25 Q8.9 -96.75 2.85 -96.3 L-7.95 -95.85 -8.95 -95.85 -14.4 -96.4 -16.45 -97.55 -15.95 -98.9 Q-14.65 -98.75 -10.65 -99.95 L-6.15 -101.25 -6.1 -101.25 Q-4.1 -101.75 -0.65 -107.05 1.9 -111.0 3.9 -115.25 L5.95 -116.85 Q7.85 -118.5 8.1 -118.95 L11.85 -114.6 10.4 -114.75 Q9.05 -114.75 7.5 -113.6 5.4 -112.05 4.9 -109.1 2.7 -106.25 1.8 -104.6 0.75 -102.7 0.55 -100.8 L0.75 -99.55 Q0.9 -99.2 1.55 -99.2 L3.9 -99.95 Q6.4 -101.2 7.85 -103.8 9.15 -103.15 10.35 -103.15 L11.95 -103.75 12.15 -103.85 13.05 -104.15 13.4 -104.55 14.75 -105.6 13.85 -102.75 12.6 -99.95 M22.1 0.85 L23.3 2.9 24.65 2.85 Q24.6 7.95 23.95 9.65 23.35 11.1 21.65 11.45 L22.1 0.85 M12.2 -86.95 L14.15 -89.95 Q15.3 -92.05 15.3 -92.65 L14.35 -92.75 3.95 -87.4 Q5.15 -88.6 6.95 -91.75 L18.0 -98.4 18.9 -98.2 19.55 -92.7 Q19.55 -91.45 18.45 -88.85 17.25 -86.0 15.3 -82.8 15.1 -83.9 14.1 -85.15 L12.2 -86.95 M-3.3 -84.45 L-15.95 -82.5 Q-20.05 -81.95 -20.05 -79.8 -20.05 -78.8 -19.1 -77.65 -18.1 -76.4 -17.05 -76.4 L-10.3 -76.8 Q-8.2 -76.75 -3.7 -77.65 0.6 -78.5 2.55 -79.3 3.45 -77.25 4.15 -76.55 L6.25 -75.15 -1.3 -73.9 -13.7 -72.8 Q-22.6 -72.8 -22.6 -78.3 -22.6 -80.75 -22.4 -81.45 L-20.9 -84.65 Q-18.6 -85.15 -17.05 -85.95 L-11.9 -86.3 -10.35 -86.65 Q-9.4 -85.1 -8.3 -84.75 L-3.3 -84.45 M4.8 -56.95 L9.85 -59.4 Q10.85 -59.95 11.6 -61.1 14.9 -66.05 17.9 -71.6 19.3 -74.15 20.15 -74.15 L21.6 -73.85 21.8 -72.8 Q21.6 -69.85 18.5 -63.7 16.15 -59.1 13.05 -54.3 L23.35 -56.55 Q25.6 -56.55 26.6 -54.95 27.7 -53.2 27.7 -49.05 27.7 -46.5 27.3 -45.9 L26.25 -45.05 Q27.2 -46.2 27.2 -47.75 27.2 -49.5 25.9 -50.8 24.6 -52.1 22.85 -52.1 20.2 -52.05 19.05 -49.85 17.85 -51.45 15.15 -51.4 L4.75 -51.9 5.0 -54.45 4.8 -56.95 M24.1 18.7 L22.15 20.7 20.4 21.5 21.0 17.75 24.1 18.7 M-9.3 -91.4 L-10.35 -88.35 -14.4 -88.25 -12.7 -90.65 -10.6 -91.1 -9.3 -91.4" fill="#ebecdf" fill-rule="evenodd" stroke="none"/>
    <path d="M21.2 -6.3 Q20.65 -7.0 19.15 -7.55 L16.1 -8.2 Q14.3 -8.2 12.5 -7.4 10.5 -6.55 9.2 -4.95 L1.8 -5.2 Q0.4 -7.2 -1.7 -8.0 L-6.25 -8.2 -7.5 -10.3 -7.0 -11.1 -3.25 -11.3 7.6 -10.8 16.5 -12.05 22.8 -12.9 25.0 -12.65 Q27.05 -12.1 27.05 -10.65 27.05 -9.95 25.45 -8.6 23.6 -7.1 21.2 -6.3 M4.9 -109.1 Q5.0 -108.25 5.95 -106.45 6.95 -104.55 7.85 -103.8 6.4 -101.2 3.9 -99.95 L1.55 -99.2 Q0.9 -99.2 0.75 -99.55 L0.55 -100.8 Q0.75 -102.7 1.8 -104.6 2.7 -106.25 4.9 -109.1 M3.95 -87.4 L14.35 -92.75 15.3 -92.65 Q15.3 -92.05 14.15 -89.95 L12.2 -86.95 Q10.25 -87.85 8.85 -87.85 6.15 -87.85 4.2 -85.9 2.25 -83.95 2.25 -81.25 L2.55 -79.3 Q0.6 -78.5 -3.7 -77.65 -8.2 -76.75 -10.3 -76.8 L-17.05 -76.4 Q-18.1 -76.4 -19.1 -77.65 -20.05 -78.8 -20.05 -79.8 -20.05 -81.95 -15.95 -82.5 L-3.3 -84.45 -0.1 -84.95 Q1.75 -85.6 3.95 -87.4 M4.75 -51.9 L15.15 -51.4 Q17.85 -51.45 19.05 -49.85 18.45 -48.3 18.55 -47.1 L10.5 -46.05 2.0 -45.35 -0.3 -45.6 -2.65 -46.2 Q-0.8 -46.3 1.5 -47.75 4.3 -49.55 4.75 -51.9 M4.35 -23.8 L0.1 -26.55 Q-4.0 -29.25 -5.85 -31.4 L-6.1 -32.0 Q-4.1 -32.2 -2.2 -33.1 1.95 -34.15 15.5 -35.05 9.9 -35.4 8.8 -40.8 16.5 -39.55 20.05 -37.2 22.6 -35.5 22.6 -33.65 22.6 -32.7 22.25 -32.3 21.35 -31.15 18.2 -30.5 L13.1 -32.05 Q10.35 -32.05 7.7 -30.45 3.9 -28.15 4.35 -23.8 M4.75 -20.9 L5.6 -19.1 Q6.65 -17.4 8.35 -16.3 L5.2 -16.15 1.95 -16.8 Q-1.3 -17.6 -2.2 -18.1 L-2.9 -18.65 -0.55 -19.9 Q1.3 -20.6 4.75 -20.9 M21.0 17.75 L21.1 16.6 24.5 17.65 24.1 18.7 21.0 17.75" fill="#fbfcf8" fill-rule="evenodd" stroke="none"/>
    <path d="M7.9 9.45 L7.85 9.4 9.55 10.25 14.6 13.35 Q16.6 14.45 18.55 15.4 20.15 16.2 20.0 17.4 16.5 16.3 12.05 13.0 8.7 10.5 7.9 9.45 M-8.9 -0.25 L-8.65 -0.4 -7.85 -0.45 Q-3.65 -0.45 -2.4 0.75 -1.35 1.75 0.4 6.9 1.8 11.0 6.6 13.75 9.0 15.15 11.45 15.85 L11.5 16.7 Q11.5 18.4 9.25 18.55 6.25 18.8 -0.35 16.35 -3.3 14.75 -6.3 9.55 -9.65 3.75 -8.9 -0.25" fill="#fff08c" fill-rule="evenodd" stroke="none"/>
    <path d="M3.45 -131.0 Q5.6 -131.0 6.85 -129.45 7.75 -128.3 7.75 -127.15 7.75 -126.6 4.9 -123.45 L0.95 -119.05 Q-1.0 -116.6 -2.55 -115.35 L-7.4 -111.9 Q-5.5 -116.2 -3.6 -124.65 -1.55 -131.0 3.45 -131.0" fill="#83563a" fill-rule="evenodd" stroke="none"/>
    <path d="M5.65 -107.15 L5.4 -108.9 Q6.35 -109.75 7.8 -110.5 9.05 -111.2 9.45 -111.2 10.05 -111.2 11.75 -110.05 L15.0 -107.3 Q14.55 -106.1 13.85 -105.35 12.85 -106.25 11.2 -106.85 9.4 -107.45 7.3 -107.45 L6.1 -107.3 5.65 -107.15 M3.0 -80.05 Q3.85 -82.0 5.7 -83.0 6.85 -83.6 7.7 -83.6 12.25 -82.35 14.75 -80.4 14.35 -78.7 13.8 -77.95 L11.35 -78.75 8.85 -79.15 6.0 -78.75 3.7 -78.2 3.0 -80.05 M3.25 -50.35 Q2.55 -50.55 1.0 -51.25 -0.6 -51.85 -2.4 -51.85 -5.4 -51.85 -8.3 -50.65 L-9.05 -53.0 Q-5.8 -57.5 -3.6 -57.5 -1.95 -57.5 0.3 -56.35 2.6 -55.15 4.35 -53.4 3.9 -51.4 3.25 -50.35 M26.75 -47.2 L26.15 -45.6 Q24.2 -46.35 22.85 -46.35 L20.8 -46.05 19.45 -45.75 19.0 -46.95 Q20.4 -48.6 22.15 -49.3 L23.95 -48.6 26.75 -47.2 M30.45 -29.85 L32.35 -31.15 Q33.6 -31.95 33.8 -31.95 L34.65 -31.55 36.3 -29.95 36.0 -28.85 35.05 -29.05 33.4 -29.25 32.15 -28.95 31.0 -28.4 Q30.65 -29.05 30.45 -29.85 M20.95 -22.35 Q20.65 -20.75 19.7 -19.25 L16.1 -20.2 13.1 -20.75 Q9.35 -20.75 6.25 -19.55 L5.35 -21.95 8.0 -24.7 Q10.15 -26.55 11.7 -26.55 13.45 -26.55 15.65 -25.55 L20.95 -22.35 M-4.25 -7.45 Q-1.1 -7.45 0.85 -4.75 2.2 -2.9 2.6 -0.5 L2.7 1.2 Q2.55 -0.25 0.3 -1.8 -2.2 -3.55 -5.05 -3.55 -6.7 -3.55 -8.25 -2.75 L-9.75 -1.85 -10.75 -0.8 Q-10.6 -4.05 -8.25 -5.95 -6.35 -7.45 -4.25 -7.45 M15.75 -7.15 Q18.9 -7.15 20.85 -5.3 22.6 -3.75 23.25 -0.95 L23.35 -0.05 Q22.35 -1.05 20.65 -1.95 18.6 -3.05 17.0 -3.05 14.15 -3.05 11.4 -1.45 9.0 -0.05 7.75 1.8 8.05 -1.9 10.1 -4.4 12.35 -7.15 15.75 -7.15 M34.3 -10.95 Q35.45 -10.95 36.95 -9.95 39.1 -8.55 39.4 -5.85 L39.65 -4.8 37.0 -6.3 Q35.35 -7.0 34.5 -7.0 33.65 -7.0 31.7 -5.6 29.5 -4.0 28.6 -2.35 L28.6 -2.25 28.55 -3.2 Q28.55 -6.75 30.25 -8.9 31.8 -10.95 34.3 -10.95 M-21.4 -103.0 L-21.15 -104.15 -18.85 -105.35 Q-18.45 -105.35 -17.8 -104.45 L-16.65 -102.25 -17.65 -101.05 Q-17.65 -101.85 -18.75 -102.4 -19.85 -103.0 -21.4 -103.0 M-16.6 -68.2 Q-16.5 -67.45 -16.65 -66.75 -17.65 -67.35 -20.15 -67.25 L-22.9 -66.9 -23.7 -68.05 Q-22.55 -70.2 -21.55 -70.2 -20.95 -70.2 -19.0 -69.35 -17.35 -68.65 -16.6 -68.2 M-9.55 -32.4 Q-9.7 -31.45 -10.4 -30.15 -11.45 -30.8 -14.95 -31.55 L-18.4 -30.85 -18.85 -32.65 Q-16.9 -35.2 -14.85 -35.8 -13.15 -35.8 -9.55 -32.4 M-20.55 -13.05 Q-18.45 -13.05 -17.15 -10.8 -15.85 -8.6 -15.85 -5.2 L-15.9 -3.95 Q-15.85 -6.4 -18.05 -8.05 -19.85 -9.4 -21.65 -9.4 -23.5 -9.4 -23.5 -8.8 L-24.3 -8.2 -22.7 -11.4 Q-21.9 -13.05 -20.55 -13.05 M-3.3 -18.3 L-3.85 -16.9 Q-4.3 -17.15 -5.2 -17.4 L-6.95 -17.75 -9.25 -17.35 -9.55 -18.5 -7.7 -20.0 -6.85 -20.45 -5.5 -19.75 -3.3 -18.3" fill="#cdca9c" fill-rule="evenodd" stroke="none"/>
    <path d="M11.85 -114.6 Q13.25 -113.8 14.3 -112.55 L14.15 -112.7 Q12.65 -114.2 10.4 -114.2 8.3 -114.2 6.85 -112.35 5.8 -110.9 5.4 -108.9 L5.65 -107.15 Q7.1 -103.75 10.35 -103.75 L12.15 -103.85 11.95 -103.75 10.35 -103.15 Q9.15 -103.15 7.85 -103.8 6.95 -104.55 5.95 -106.45 5.0 -108.25 4.9 -109.1 5.4 -112.05 7.5 -113.6 9.05 -114.75 10.4 -114.75 L11.85 -114.6 M14.8 -111.85 Q15.85 -110.25 15.85 -109.05 15.85 -107.35 14.75 -105.6 L13.4 -104.55 13.85 -105.35 Q14.55 -106.1 15.0 -107.3 15.85 -110.05 14.8 -111.85 M26.0 -67.35 Q25.05 -68.85 24.55 -71.55 24.55 -73.3 25.3 -74.75 26.4 -77.0 28.8 -77.0 30.4 -77.0 31.9 -75.95 34.25 -74.35 34.25 -70.9 34.25 -68.45 32.55 -66.95 31.05 -65.6 28.9 -65.5 27.35 -66.0 26.0 -67.35 M33.55 -34.45 Q36.65 -33.2 36.65 -30.3 36.65 -28.3 35.1 -27.35 33.65 -26.5 31.8 -27.0 30.05 -28.75 30.05 -30.3 30.05 -32.0 31.15 -33.15 32.1 -34.15 33.55 -34.45 M25.4 -69.45 Q25.8 -71.45 26.9 -72.4 27.75 -73.15 28.8 -73.15 31.85 -73.15 33.7 -71.25 33.9 -73.95 32.05 -75.35 30.65 -76.45 28.85 -76.45 27.4 -76.45 26.25 -75.15 25.0 -73.7 25.0 -71.55 L25.2 -70.1 25.4 -69.45 M2.55 -79.3 L2.25 -81.25 Q2.25 -83.95 4.2 -85.9 6.15 -87.85 8.85 -87.85 10.25 -87.85 12.2 -86.95 L14.1 -85.15 Q15.1 -83.9 15.3 -82.8 15.95 -78.0 13.0 -75.9 11.2 -74.65 8.85 -74.65 L7.2 -74.9 6.25 -75.15 4.15 -76.55 Q3.45 -77.25 2.55 -79.3 M3.0 -80.05 L3.7 -78.2 Q5.2 -75.3 8.85 -75.3 11.2 -75.3 12.55 -76.5 L13.8 -77.95 Q14.35 -78.7 14.75 -80.4 14.2 -87.2 8.85 -87.2 6.2 -87.2 4.3 -85.0 2.35 -82.75 3.0 -80.05 M4.8 -56.95 L5.0 -54.45 4.75 -51.9 Q4.3 -49.55 1.5 -47.75 -0.8 -46.3 -2.65 -46.2 L-6.0 -47.15 -8.1 -49.1 Q-9.3 -50.15 -9.65 -53.05 L-9.75 -56.1 Q-8.85 -59.3 -6.3 -61.2 -4.25 -62.8 -2.4 -62.8 0.95 -61.85 2.05 -61.15 3.1 -60.35 4.05 -58.65 L4.8 -56.95 M19.05 -49.85 Q20.2 -52.05 22.85 -52.1 24.6 -52.1 25.9 -50.8 27.2 -49.5 27.2 -47.75 27.2 -46.2 26.25 -45.05 L25.85 -44.7 26.15 -45.6 26.75 -47.2 Q26.75 -49.2 25.6 -50.55 24.4 -51.9 22.8 -51.85 21.15 -51.8 20.05 -50.35 18.95 -48.9 19.0 -46.95 L19.45 -45.75 Q20.8 -44.4 21.55 -44.0 L22.85 -43.8 24.65 -43.95 24.15 -43.75 22.85 -43.4 21.7 -43.5 21.3 -43.65 Q19.9 -44.4 19.3 -45.2 18.85 -45.85 18.55 -47.1 18.45 -48.3 19.05 -49.85 M21.35 -26.5 Q21.95 -23.95 21.8 -22.4 21.7 -21.5 21.0 -19.7 L17.65 -16.25 Q15.9 -14.95 13.55 -14.95 L11.15 -15.4 Q9.2 -15.9 8.35 -16.3 6.65 -17.4 5.6 -19.1 L4.75 -20.9 Q4.35 -22.55 4.35 -23.8 3.9 -28.15 7.7 -30.45 10.35 -32.05 13.1 -32.05 L18.2 -30.5 19.75 -28.8 21.35 -26.5 M3.25 -50.35 Q3.9 -51.4 4.35 -53.4 4.9 -56.6 2.9 -59.25 0.8 -62.0 -2.4 -62.0 -5.55 -62.0 -7.65 -59.35 -9.85 -56.6 -9.05 -53.0 L-8.3 -50.65 Q-7.65 -49.4 -6.35 -48.35 -4.65 -47.0 -2.75 -47.0 0.7 -47.0 3.25 -50.35 M36.3 -29.95 Q36.35 -31.7 35.45 -32.9 34.55 -34.15 33.35 -34.1 32.15 -34.05 31.3 -32.8 30.45 -31.55 30.45 -29.85 30.65 -29.05 31.0 -28.4 L31.55 -27.65 Q32.25 -26.95 33.55 -26.95 34.4 -26.95 36.0 -28.85 L36.3 -29.95 M-8.95 -33.2 L-9.3 -31.35 -9.55 -30.6 Q-10.2 -29.35 -10.8 -28.75 -12.5 -27.25 -14.0 -27.25 -15.9 -27.25 -17.3 -28.4 -19.35 -30.1 -19.35 -33.8 -19.35 -36.5 -17.25 -38.15 -15.25 -39.65 -12.5 -39.5 -11.75 -39.35 -10.75 -38.3 L-9.85 -37.25 Q-9.05 -35.75 -8.95 -34.05 L-8.95 -33.2 M-6.9 -22.9 Q-4.9 -22.6 -3.85 -21.5 -2.9 -20.55 -2.9 -19.2 -2.9 -17.75 -3.55 -16.6 -4.45 -15.05 -6.25 -15.05 L-7.45 -15.25 -8.65 -15.95 -9.55 -17.9 -9.9 -19.2 Q-9.9 -21.65 -6.9 -22.9 M20.95 -22.35 Q21.75 -26.05 19.05 -28.75 16.55 -31.25 13.1 -31.25 9.85 -31.25 7.5 -29.0 5.15 -26.75 5.15 -23.4 L5.35 -21.95 6.25 -19.55 Q7.4 -18.05 9.8 -16.8 11.8 -15.75 12.65 -15.75 15.6 -15.75 17.25 -16.9 L19.7 -19.25 Q20.65 -20.75 20.95 -22.35 M-21.4 -103.0 Q-21.15 -101.65 -20.5 -100.9 L-19.45 -100.3 -18.3 -100.6 -17.65 -101.05 -16.65 -102.25 Q-16.15 -103.35 -16.0 -104.2 -16.1 -102.75 -16.75 -101.7 -17.75 -100.0 -19.55 -100.0 L-20.35 -100.1 -20.55 -100.3 -21.15 -101.15 -21.6 -102.45 Q-21.6 -103.9 -20.7 -105.55 -19.6 -107.5 -18.0 -107.5 -17.05 -107.5 -16.15 -106.6 L-16.05 -105.8 -16.15 -106.1 Q-16.7 -107.15 -18.05 -107.15 -20.1 -106.15 -21.15 -104.15 L-21.4 -103.0 M-24.65 -70.05 Q-23.8 -72.75 -21.8 -72.75 -19.3 -72.75 -17.65 -70.85 -16.7 -69.75 -16.35 -68.6 -16.35 -67.0 -16.75 -66.05 L-16.65 -66.75 Q-16.5 -67.45 -16.6 -68.2 -17.25 -69.7 -18.65 -70.95 -20.2 -72.4 -21.65 -72.4 -22.65 -72.4 -23.4 -71.75 -24.25 -71.05 -24.25 -69.85 L-24.1 -68.85 -23.7 -68.05 -22.9 -66.9 Q-21.7 -66.05 -20.35 -65.5 L-19.15 -65.1 -17.25 -65.35 Q-17.9 -64.75 -19.0 -64.75 -20.9 -64.75 -22.55 -66.1 -24.4 -67.65 -24.65 -70.05 M-9.55 -32.4 Q-9.5 -35.15 -10.8 -37.2 -12.15 -39.25 -14.05 -39.3 -16.0 -39.4 -17.4 -37.45 -18.8 -35.5 -18.85 -32.65 L-18.4 -30.85 Q-16.65 -27.8 -14.05 -27.8 -12.5 -27.8 -11.4 -28.9 -10.85 -29.45 -10.4 -30.15 -9.7 -31.45 -9.55 -32.4 M-3.3 -18.3 Q-3.2 -20.0 -4.1 -21.3 -5.0 -22.6 -6.3 -22.65 -7.6 -22.7 -8.55 -21.5 -9.5 -20.3 -9.55 -18.5 L-9.25 -17.35 -8.2 -16.0 Q-7.5 -15.45 -6.25 -15.45 -4.95 -15.45 -4.35 -16.1 L-3.85 -16.9 -3.3 -18.3" fill="#989886" fill-rule="evenodd" stroke="none"/>
    <path d="M5.4 -108.9 Q5.8 -110.9 6.85 -112.35 8.3 -114.2 10.4 -114.2 12.65 -114.2 14.15 -112.7 L14.3 -112.55 14.8 -111.85 Q15.85 -110.05 15.0 -107.3 L11.75 -110.05 Q10.05 -111.2 9.45 -111.2 9.05 -111.2 7.8 -110.5 6.35 -109.75 5.4 -108.9 M25.4 -69.45 L25.2 -70.1 25.0 -71.55 Q25.0 -73.7 26.25 -75.15 27.4 -76.45 28.85 -76.45 30.65 -76.45 32.05 -75.35 33.9 -73.95 33.7 -71.25 31.85 -73.15 28.8 -73.15 27.75 -73.15 26.9 -72.4 25.8 -71.45 25.4 -69.45 M14.75 -80.4 Q12.25 -82.35 7.7 -83.6 6.85 -83.6 5.7 -83.0 3.85 -82.0 3.0 -80.05 2.35 -82.75 4.3 -85.0 6.2 -87.2 8.85 -87.2 14.2 -87.2 14.75 -80.4 M4.35 -53.4 Q2.6 -55.15 0.3 -56.35 -1.95 -57.5 -3.6 -57.5 -5.8 -57.5 -9.05 -53.0 -9.85 -56.6 -7.65 -59.35 -5.55 -62.0 -2.4 -62.0 0.8 -62.0 2.9 -59.25 4.9 -56.6 4.35 -53.4 M19.0 -46.95 Q18.95 -48.9 20.05 -50.35 21.15 -51.8 22.8 -51.85 24.4 -51.9 25.6 -50.55 26.75 -49.2 26.75 -47.2 L23.95 -48.6 22.15 -49.3 Q20.4 -48.6 19.0 -46.95 M36.3 -29.95 L34.65 -31.55 33.8 -31.95 Q33.6 -31.95 32.35 -31.15 L30.45 -29.85 Q30.45 -31.55 31.3 -32.8 32.15 -34.05 33.35 -34.1 34.55 -34.15 35.45 -32.9 36.35 -31.7 36.3 -29.95 M5.35 -21.95 L5.15 -23.4 Q5.15 -26.75 7.5 -29.0 9.85 -31.25 13.1 -31.25 16.55 -31.25 19.05 -28.75 21.75 -26.05 20.95 -22.35 L15.65 -25.55 Q13.45 -26.55 11.7 -26.55 10.15 -26.55 8.0 -24.7 L5.35 -21.95 M-21.15 -104.15 Q-20.1 -106.15 -18.05 -107.15 -16.7 -107.15 -16.15 -106.1 L-16.05 -105.8 -16.0 -104.2 Q-16.15 -103.35 -16.65 -102.25 L-17.8 -104.45 Q-18.45 -105.35 -18.85 -105.35 L-21.15 -104.15 M-23.7 -68.05 L-24.1 -68.85 -24.25 -69.85 Q-24.25 -71.05 -23.4 -71.75 -22.65 -72.4 -21.65 -72.4 -20.2 -72.4 -18.65 -70.95 -17.25 -69.7 -16.6 -68.2 -17.35 -68.65 -19.0 -69.35 -20.95 -70.2 -21.55 -70.2 -22.55 -70.2 -23.7 -68.05 M-18.85 -32.65 Q-18.8 -35.5 -17.4 -37.45 -16.0 -39.4 -14.05 -39.3 -12.15 -39.25 -10.8 -37.2 -9.5 -35.15 -9.55 -32.4 -13.15 -35.8 -14.85 -35.8 -16.9 -35.2 -18.85 -32.65 M-9.55 -18.5 Q-9.5 -20.3 -8.55 -21.5 -7.6 -22.7 -6.3 -22.65 -5.0 -22.6 -4.1 -21.3 -3.2 -20.0 -3.3 -18.3 L-5.5 -19.75 -6.85 -20.45 -7.7 -20.0 -9.55 -18.5" fill="#b6b387" fill-rule="evenodd" stroke="none"/>
    <path d="M12.15 -103.85 L10.35 -103.75 Q7.1 -103.75 5.65 -107.15 L6.1 -107.3 7.3 -107.45 Q9.4 -107.45 11.2 -106.85 12.85 -106.25 13.85 -105.35 L13.4 -104.55 13.05 -104.15 12.15 -103.85 M3.7 -78.2 L6.0 -78.75 8.85 -79.15 11.35 -78.75 13.8 -77.95 12.55 -76.5 Q11.2 -75.3 8.85 -75.3 5.2 -75.3 3.7 -78.2 M25.85 -44.7 L25.6 -44.4 Q25.3 -44.1 24.65 -43.95 L22.85 -43.8 21.55 -44.0 Q20.8 -44.4 19.45 -45.75 L20.8 -46.05 22.85 -46.35 Q24.2 -46.35 26.15 -45.6 L25.85 -44.7 M-8.3 -50.65 Q-5.4 -51.85 -2.4 -51.85 -0.6 -51.85 1.0 -51.25 2.55 -50.55 3.25 -50.35 0.7 -47.0 -2.75 -47.0 -4.65 -47.0 -6.35 -48.35 -7.65 -49.4 -8.3 -50.65 M31.0 -28.4 L32.15 -28.95 33.4 -29.25 35.05 -29.05 36.0 -28.85 Q34.4 -26.95 33.55 -26.95 32.25 -26.95 31.55 -27.65 L31.0 -28.4 M19.7 -19.25 L17.25 -16.9 Q15.6 -15.75 12.65 -15.75 11.8 -15.75 9.8 -16.8 7.4 -18.05 6.25 -19.55 9.35 -20.75 13.1 -20.75 L16.1 -20.2 19.7 -19.25 M-17.65 -101.05 L-18.3 -100.6 -19.45 -100.3 -20.5 -100.9 Q-21.15 -101.65 -21.4 -103.0 -19.85 -103.0 -18.75 -102.4 -17.65 -101.85 -17.65 -101.05 M-16.75 -66.05 L-17.0 -65.6 -17.25 -65.35 -19.15 -65.1 -20.35 -65.5 Q-21.7 -66.05 -22.9 -66.9 L-20.15 -67.25 Q-17.65 -67.35 -16.65 -66.75 L-16.75 -66.05 M-10.4 -30.15 Q-10.85 -29.45 -11.4 -28.9 -12.5 -27.8 -14.05 -27.8 -16.65 -27.8 -18.4 -30.85 L-14.95 -31.55 Q-11.45 -30.8 -10.4 -30.15 M-3.85 -16.9 L-4.35 -16.1 Q-4.95 -15.45 -6.25 -15.45 -7.5 -15.45 -8.2 -16.0 L-9.25 -17.35 -6.95 -17.75 -5.2 -17.4 Q-4.3 -17.15 -3.85 -16.9" fill="#e0dfa9" fill-rule="evenodd" stroke="none"/>
    <path d="M2.85 -92.55 L4.3 -92.7 4.35 -92.7 1.7 -88.25 Q1.1 -87.5 -3.45 -87.5 L-6.65 -87.55 Q-7.45 -87.7 -7.45 -88.5 L-6.05 -91.75 -0.7 -92.5 2.85 -92.55 M-3.85 -88.35 Q-2.7 -88.3 -1.75 -88.75 -0.9 -89.15 -0.9 -89.75 -0.9 -90.4 -1.15 -90.5 L-1.75 -90.55 Q-2.8 -90.6 -3.85 -88.35 M-22.5 -87.5 L-26.0 -87.75 Q-26.3 -87.9 -26.3 -88.6 L-25.9 -90.05 -24.15 -93.3 -15.1 -91.75 Q-16.95 -88.4 -17.2 -88.2 -18.2 -87.5 -22.5 -87.5 M-23.1 -88.35 L-21.0 -88.65 Q-20.25 -89.1 -20.25 -89.9 -20.25 -90.9 -20.5 -90.45 L-21.0 -90.55 -22.1 -89.8 -23.1 -88.35" fill="#000000" fill-rule="evenodd" stroke="none"/>
    <path d="M-3.85 -88.35 Q-2.8 -90.6 -1.75 -90.55 L-1.15 -90.5 Q-0.9 -90.4 -0.9 -89.75 -0.9 -89.15 -1.75 -88.75 -2.7 -88.3 -3.85 -88.35 M-23.1 -88.35 L-22.1 -89.8 -21.0 -90.55 -20.5 -90.45 Q-20.25 -90.9 -20.25 -89.9 -20.25 -89.1 -21.0 -88.65 L-23.1 -88.35" fill="#c8c9b4" fill-rule="evenodd" stroke="none"/>
  </g>
</svg>
