<?xml version="1.0" encoding="UTF-8" standalone="no"?>
<svg xmlns:ffdec="https://www.free-decompiler.com/flash" xmlns:xlink="http://www.w3.org/1999/xlink" ffdec:objectType="shape" height="66.0px" width="57.9px" xmlns="http://www.w3.org/2000/svg">
  <g transform="matrix(1.0, 0.0, 0.0, 1.0, 28.85, 33.0)">
    <path d="M-1.1 -28.85 L-1.15 -28.9 Q-5.7 -33.2 -10.2 -30.85 -14.7 -28.55 -12.05 -23.25 L-14.0 -21.3 Q-15.9 -19.3 -15.75 -16.75 -15.6 -14.25 -15.75 -13.0 -15.9 -11.75 -17.95 -8.75 -20.0 -5.7 -19.8 -5.3 L-21.15 -1.95 Q-22.55 2.0 -23.0 4.95 -23.3 7.15 -23.9 7.4 L-24.95 7.5 Q-26.05 8.1 -26.85 9.8 -27.85 11.95 -27.85 15.05 -27.85 16.8 -27.15 18.95 -26.35 21.4 -25.15 22.4 L-24.35 22.8 Q-23.75 23.2 -23.15 24.6 -21.9 27.4 -21.05 28.5 -19.75 30.15 -15.5 31.0 L0.8 32.0 16.15 31.0 Q20.4 30.3 21.3 29.35 L22.25 26.15 Q23.05 23.35 25.15 22.05 28.05 20.2 28.05 14.85 L27.85 12.3 Q27.55 10.3 27.05 9.15 L25.75 8.2 Q24.65 7.4 24.4 5.45 23.4 -0.85 21.9 -3.65 19.0 -7.9 19.0 -8.05 19.0 -9.45 20.0 -11.85 L21.0 -14.0 Q21.0 -19.5 16.2 -23.15 L12.85 -25.4 Q11.35 -26.4 11.35 -27.1 11.35 -28.55 10.15 -30.05 8.65 -32.0 6.1 -32.0 -0.15 -32.0 -1.1 -28.85 M-10.65 -31.75 L-10.65 -31.7 Q-6.1 -34.2 -1.45 -30.45 0.3 -33.0 6.1 -33.0 9.15 -33.0 10.95 -30.65 12.4 -28.85 12.35 -27.1 L13.4 -26.2 13.45 -26.2 16.75 -23.95 16.8 -23.95 Q22.0 -20.0 22.0 -14.0 L20.9 -11.4 Q20.0 -9.3 20.0 -8.05 L22.75 -4.2 22.8 -4.1 Q24.35 -1.25 25.4 5.3 L25.4 5.35 Q25.6 6.8 26.35 7.4 L27.65 8.35 28.0 8.75 Q28.5 10.0 28.85 12.15 L28.85 12.2 29.05 14.85 Q29.05 20.85 25.7 22.9 23.9 24.05 23.2 26.45 L22.0 30.05 22.05 30.05 Q21.05 31.2 16.35 32.0 L0.8 33.0 -15.65 32.0 -15.7 32.0 Q-20.4 31.05 -21.8 29.15 L-21.85 29.1 Q-22.75 27.95 -24.05 25.0 -24.45 24.05 -24.8 23.7 L-25.75 23.2 -25.8 23.2 Q-27.2 22.05 -28.1 19.25 -28.85 16.95 -28.85 15.05 -28.85 11.7 -27.75 9.4 -26.8 7.3 -25.4 6.65 L-24.85 6.5 -24.3 6.5 -24.25 6.5 -24.0 4.85 -24.0 4.8 Q-23.55 1.8 -22.1 -2.25 L-22.05 -2.35 -20.75 -5.55 Q-20.55 -6.7 -18.75 -9.3 -16.95 -12.05 -16.75 -13.1 -16.6 -14.3 -16.75 -16.7 -16.95 -19.65 -14.7 -22.0 L-13.25 -23.5 Q-14.4 -26.1 -13.85 -28.0 -13.35 -30.35 -10.65 -31.75" fill="#c6c6c6" fill-rule="evenodd" stroke="none"/>
    <path d="M-1.1 -28.85 Q-0.15 -32.0 6.1 -32.0 8.65 -32.0 10.15 -30.05 11.35 -28.55 11.35 -27.1 11.35 -26.4 12.85 -25.4 L16.2 -23.15 Q21.0 -19.5 21.0 -14.0 L20.0 -11.85 Q19.0 -9.45 19.0 -8.05 19.0 -7.9 21.9 -3.65 23.4 -0.85 24.4 5.45 24.65 7.4 25.75 8.2 L27.05 9.15 Q27.55 10.3 27.85 12.3 L28.05 14.85 Q28.05 20.2 25.15 22.05 23.05 23.35 22.25 26.15 L21.3 29.35 Q20.4 30.3 16.15 31.0 L0.8 32.0 -15.5 31.0 Q-19.75 30.15 -21.05 28.5 -21.9 27.4 -23.15 24.6 -23.75 23.2 -24.35 22.8 L-25.15 22.4 Q-26.35 21.4 -27.15 18.95 -27.85 16.8 -27.85 15.05 -27.85 11.95 -26.85 9.8 -26.05 8.1 -24.95 7.5 L-23.9 7.4 Q-23.3 7.15 -23.0 4.95 -22.55 2.0 -21.15 -1.95 L-19.8 -5.3 Q-20.0 -5.7 -17.95 -8.75 -15.9 -11.75 -15.75 -13.0 -15.6 -14.25 -15.75 -16.75 -15.9 -19.3 -14.0 -21.3 L-12.05 -23.25 Q-14.7 -28.55 -10.2 -30.85 -5.7 -33.2 -1.15 -28.9 L-1.1 -28.85" fill="#ffffff" fill-rule="evenodd" stroke="none"/>
    <path d="M1.95 -22.0 Q1.95 -22.5 2.4 -23.05 2.9 -23.5 2.9 -24.4 2.9 -25.2 2.0 -25.1 1.15 -25.05 1.15 -25.8 1.15 -29.0 5.35 -29.0 8.2 -29.0 8.2 -27.0 L8.2 -26.05 9.8 -23.45 8.75 -23.5 Q8.75 -24.25 8.2 -24.7 7.7 -25.2 6.9 -25.2 L7.15 -27.35 Q7.15 -28.9 6.55 -27.7 L3.7 -27.15 Q2.8 -26.6 2.35 -25.9 L4.7 -24.25 2.9 -22.4 3.2 -21.8 1.95 -22.0 M-9.55 -21.15 Q-10.1 -23.75 -9.65 -24.0 L-9.0 -24.4 Q-9.0 -25.2 -9.85 -25.1 -10.75 -25.05 -10.75 -25.8 -10.75 -29.0 -6.55 -29.0 -3.7 -29.0 -3.7 -27.0 L-3.7 -26.05 -2.1 -23.45 -3.15 -23.5 Q-3.15 -24.25 -3.7 -24.7 -4.15 -25.2 -4.95 -25.2 -4.7 -25.75 -4.7 -27.35 -4.7 -28.9 -5.35 -27.7 L-8.2 -27.15 -9.55 -25.9 Q-7.75 -24.85 -7.15 -24.25 L-9.0 -22.4 -8.7 -21.8 -9.55 -21.15" fill="#fc0abf" fill-rule="evenodd" stroke="none"/>
    <path d="M3.2 -21.8 L2.9 -22.4 4.7 -24.25 2.35 -25.9 Q2.8 -26.6 3.7 -27.15 5.25 -25.25 5.25 -24.3 L6.9 -25.2 Q7.7 -25.2 8.2 -24.7 8.75 -24.25 8.75 -23.5 5.2 -22.9 3.2 -21.8 M-8.7 -21.8 L-9.0 -22.4 -7.15 -24.25 Q-7.75 -24.85 -9.55 -25.9 L-8.2 -27.15 Q-6.6 -25.25 -6.6 -24.3 L-4.95 -25.2 Q-4.15 -25.2 -3.7 -24.7 -3.15 -24.25 -3.15 -23.5 -6.7 -22.9 -8.7 -21.8" fill="#fb79db" fill-rule="evenodd" stroke="none"/>
    <path d="M3.7 -27.15 L6.55 -27.7 Q7.15 -28.9 7.15 -27.35 L6.9 -25.2 5.25 -24.3 Q5.25 -25.25 3.7 -27.15 M-8.2 -27.15 L-5.35 -27.7 Q-4.7 -28.9 -4.7 -27.35 -4.7 -25.75 -4.95 -25.2 L-6.6 -24.3 Q-6.6 -25.25 -8.2 -27.15" fill="#febcee" fill-rule="evenodd" stroke="none"/>
    <path d="M5.9 -16.25 L8.45 -17.65 Q10.35 -18.95 10.55 -19.4 L10.15 -20.35 Q9.85 -20.75 8.85 -20.75 8.45 -20.75 7.1 -20.1 L4.85 -18.85 3.9 -20.2 Q6.45 -21.8 8.65 -21.8 L10.75 -21.05 13.5 -19.9 14.2 -16.25 Q9.55 -17.4 7.95 -13.05 L6.05 -13.6 5.9 -16.25 M1.6 -19.9 Q2.15 -18.2 2.35 -16.25 L-1.8 -16.4 Q-3.95 -15.75 -3.95 -13.45 -3.95 -11.65 -1.25 -9.65 -4.9 -8.8 -7.75 -10.55 -9.65 -11.65 -10.9 -13.55 -10.65 -16.85 -8.75 -19.15 -6.6 -21.8 -3.2 -21.8 -1.95 -21.8 -0.35 -21.0 1.15 -20.1 1.6 -19.9 M-1.3 -19.4 L-1.7 -20.35 Q-2.05 -20.75 -3.05 -20.75 -4.95 -20.75 -6.05 -19.3 L-7.15 -17.2 Q-6.95 -16.3 -6.55 -16.25 -4.0 -16.55 -2.75 -17.6 -2.1 -18.05 -1.3 -19.4 M-8.7 -15.3 L-8.45 -14.4 Q-8.1 -14.1 -7.75 -14.1 -7.35 -14.1 -7.1 -14.4 -6.8 -14.8 -6.8 -15.3 -6.8 -15.75 -7.1 -16.05 -7.35 -16.45 -7.75 -16.45 L-8.45 -16.05 -8.7 -15.3" fill="#849221" fill-rule="evenodd" stroke="none"/>
    <path d="M1.95 -22.0 L3.2 -21.8 Q5.2 -22.9 8.75 -23.5 L9.8 -23.45 Q12.45 -22.55 14.7 -20.65 17.95 -17.9 17.95 -14.25 L17.15 -11.7 Q16.25 -9.1 15.55 -7.9 L14.3 -9.2 15.55 -12.2 16.25 -14.25 Q16.25 -16.85 13.5 -19.9 L10.75 -21.05 8.65 -21.8 Q6.45 -21.8 3.9 -20.2 L4.85 -18.85 5.9 -16.25 6.05 -13.6 5.95 -12.75 5.8 -11.9 4.55 -9.75 2.65 -6.9 Q0.45 -5.2 -1.55 -4.9 -3.85 -4.6 -7.25 -5.6 L-8.3 -6.15 -10.1 -7.7 -11.45 -9.6 -11.85 -10.35 Q-12.65 -12.65 -12.65 -14.25 -11.35 -18.95 -9.55 -21.15 L-8.7 -21.8 Q-6.7 -22.9 -3.15 -23.5 L-2.1 -23.45 Q-0.05 -22.95 1.95 -22.0 M7.95 -13.05 Q9.55 -17.4 14.2 -16.25 L14.9 -15.45 Q15.5 -14.5 15.5 -13.45 15.5 -12.25 14.75 -11.3 L13.4 -9.9 12.3 -10.75 13.65 -12.25 14.3 -13.4 Q14.3 -14.95 13.5 -15.35 L11.85 -15.9 Q9.7 -14.75 9.15 -12.6 L7.95 -13.05 M-10.9 -13.55 Q-10.75 -11.15 -8.9 -9.0 -6.6 -6.5 -3.2 -6.5 1.3 -6.5 3.3 -10.2 L4.4 -14.15 Q4.4 -14.9 3.85 -16.45 2.95 -18.6 1.6 -19.9 1.15 -20.1 -0.35 -21.0 -1.95 -21.8 -3.2 -21.8 -6.6 -21.8 -8.75 -19.15 -10.65 -16.85 -10.9 -13.55 M2.35 -16.25 L3.05 -15.35 Q3.6 -14.4 3.6 -13.4 3.6 -10.2 -1.25 -9.65 -3.95 -11.65 -3.95 -13.45 -3.95 -15.75 -1.8 -16.4 L2.35 -16.25 M-0.5 -10.7 Q1.05 -11.5 1.85 -12.45 2.4 -13.05 2.4 -13.4 2.4 -14.95 1.6 -15.35 L-0.05 -15.9 Q-2.8 -14.35 -2.8 -13.3 -2.8 -11.95 -2.05 -11.65 L-0.5 -10.7" fill="#434a11" fill-rule="evenodd" stroke="none"/>
    <path d="M4.85 -18.85 L7.1 -20.1 Q8.45 -20.75 8.85 -20.75 9.85 -20.75 10.15 -20.35 L10.55 -19.4 Q10.35 -18.95 8.45 -17.65 L5.9 -16.25 4.85 -18.85 M-1.3 -19.4 Q-2.1 -18.05 -2.75 -17.6 -4.0 -16.55 -6.55 -16.25 -6.95 -16.3 -7.15 -17.2 L-6.05 -19.3 Q-4.95 -20.75 -3.05 -20.75 -2.05 -20.75 -1.7 -20.35 L-1.3 -19.4 M-8.7 -15.3 L-8.45 -16.05 -7.75 -16.45 Q-7.35 -16.45 -7.1 -16.05 -6.8 -15.75 -6.8 -15.3 -6.8 -14.8 -7.1 -14.4 -7.35 -14.1 -7.75 -14.1 -8.1 -14.1 -8.45 -14.4 L-8.7 -15.3" fill="#c9d955" fill-rule="evenodd" stroke="none"/>
    <path d="M13.5 -15.35 L11.7 -11.15 9.15 -12.6 Q9.7 -14.75 11.85 -15.9 L13.5 -15.35 M1.6 -15.35 L-0.5 -10.7 -2.05 -11.65 Q-2.8 -11.95 -2.8 -13.3 -2.8 -14.35 -0.05 -15.9 L1.6 -15.35" fill="#fe9230" fill-rule="evenodd" stroke="none"/>
    <path d="M13.5 -15.35 Q14.3 -14.95 14.3 -13.4 L13.65 -12.25 12.3 -10.75 11.7 -11.15 13.5 -15.35 M1.6 -15.35 Q2.4 -14.95 2.4 -13.4 2.4 -13.05 1.85 -12.45 1.05 -11.5 -0.5 -10.7 L1.6 -15.35" fill="#dc6901" fill-rule="evenodd" stroke="none"/>
    <path d="M14.2 -16.25 L13.5 -19.9 Q16.25 -16.85 16.25 -14.25 L15.55 -12.2 14.3 -9.2 13.4 -9.9 14.75 -11.3 Q15.5 -12.25 15.5 -13.45 15.5 -14.5 14.9 -15.45 L14.2 -16.25 M1.6 -19.9 Q2.95 -18.6 3.85 -16.45 4.4 -14.9 4.4 -14.15 L3.3 -10.2 Q1.3 -6.5 -3.2 -6.5 -6.6 -6.5 -8.9 -9.0 -10.75 -11.15 -10.9 -13.55 -9.65 -11.65 -7.75 -10.55 -4.9 -8.8 -1.25 -9.65 3.6 -10.2 3.6 -13.4 3.6 -14.4 3.05 -15.35 L2.35 -16.25 Q2.15 -18.2 1.6 -19.9" fill="#657019" fill-rule="evenodd" stroke="none"/>
    <path d="M15.55 -7.9 Q22.2 0.15 21.35 9.5 L21.25 10.3 21.2 10.7 20.95 11.8 20.8 11.9 17.3 12.55 13.4 12.95 12.3 13.0 9.05 13.15 -4.7 13.25 -14.6 12.75 -18.9 12.15 Q-19.45 12.15 -19.85 11.8 L-20.15 11.1 -20.3 10.4 -20.3 10.15 -20.4 9.3 Q-20.4 4.9 -18.4 -0.95 L-17.15 -3.95 Q-18.65 -0.25 -19.6 7.45 L-19.3 11.25 -9.25 11.95 0.45 12.35 9.0 12.05 20.3 11.35 20.55 8.35 Q20.55 3.4 18.35 -1.55 16.25 -6.4 13.25 -8.95 9.45 -11.5 5.95 -12.75 L6.05 -13.6 7.95 -13.05 9.15 -12.6 11.7 -11.15 12.3 -10.75 13.4 -9.9 14.3 -9.2 15.55 -7.9 M20.4 20.85 Q19.5 26.95 18.9 27.35 18.15 27.9 13.5 28.3 L0.05 29.0 Q-13.25 29.0 -17.15 27.35 L-18.4 26.65 Q-17.4 26.0 -13.65 27.35 L0.05 27.8 14.15 27.35 Q16.75 27.75 17.8 27.35 19.5 26.65 19.6 21.0 L20.4 20.85 M-18.5 26.55 Q-20.65 24.75 -20.55 20.75 L-19.6 20.95 Q-18.35 25.35 -18.5 26.55 M-15.8 -6.5 Q-14.05 -9.25 -11.85 -10.35 L-11.45 -9.6 -12.25 -8.4 Q-12.7 -7.7 -13.65 -7.7 -14.85 -7.7 -15.8 -6.5 M-7.95 -4.75 L-5.9 -4.35 Q-5.05 -4.05 -5.05 -3.5 -6.0 -2.3 -7.4 -2.3 L-8.6 -2.45 -8.6 -2.55 -8.7 -2.6 -8.75 -3.0 Q-9.1 -3.65 -7.95 -4.75 M5.75 -4.6 L6.6 -3.5 8.1 -3.3 6.7 -5.15 5.75 -4.6 M5.25 -3.8 Q5.25 -4.45 5.8 -4.9 6.35 -5.4 7.15 -5.4 7.7 -5.4 8.05 -4.6 8.45 -3.85 8.45 -2.85 L8.25 -2.05 Q6.6 -2.45 5.25 -3.8 M14.3 0.4 L14.55 -0.85 14.85 -1.4 16.35 -0.95 16.9 -0.45 Q16.9 1.35 16.2 2.4 14.75 1.3 14.3 0.4 M14.85 0.9 L16.25 1.75 Q16.5 1.85 16.75 0.9 16.45 -0.6 15.3 -1.0 14.75 -0.7 14.85 0.9 M10.4 6.6 L9.95 7.85 Q9.55 8.35 8.9 8.35 8.25 8.35 7.8 7.85 L7.55 7.4 7.5 6.6 Q7.4 5.5 7.8 4.75 8.25 3.95 8.9 3.95 9.55 3.95 9.95 4.75 10.4 5.5 10.4 6.6 M-6.05 7.95 L-6.2 9.1 -6.15 9.35 -7.15 9.6 Q-8.3 9.6 -8.75 8.75 L-9.1 7.6 Q-9.1 6.9 -8.6 6.45 -8.05 5.85 -7.25 5.85 L-6.8 6.5 -6.05 7.95 M-13.25 1.5 Q-13.25 0.95 -13.75 1.75 L-13.85 1.85 -13.75 1.35 Q-13.75 0.7 -14.0 0.35 L-14.6 -0.15 Q-15.0 -0.15 -15.25 0.35 L-15.5 1.35 -15.25 2.45 Q-15.0 2.85 -14.6 2.85 L-14.45 2.85 -14.85 3.4 -15.8 2.55 Q-15.95 2.95 -15.95 1.35 -15.95 -0.4 -15.25 -0.7 L-14.3 -0.85 -13.25 1.2 -13.25 1.5 M0.65 3.2 L0.75 2.6 0.45 1.65 Q0.2 1.35 -0.15 1.3 L0.75 0.8 1.2 2.6 0.65 3.2 M8.1 6.1 Q8.1 6.75 8.35 7.2 L9.0 7.7 Q9.4 7.7 9.6 7.2 L9.85 6.1 9.6 5.0 Q9.4 4.55 9.0 4.55 8.6 4.55 8.35 5.0 8.1 5.5 8.1 6.1 M-1.15 2.55 L-1.15 2.6 -0.9 3.6 -0.5 3.9 -1.65 4.2 -1.15 2.55 M-8.5 -3.7 Q-8.5 -3.3 -8.1 -3.1 L-7.0 -2.85 -6.0 -3.1 Q-5.5 -3.3 -5.5 -3.7 -5.5 -4.1 -6.0 -4.35 L-7.0 -4.6 -8.1 -4.35 Q-8.5 -4.1 -8.5 -3.7 M-8.7 7.6 L-8.35 8.65 Q-8.05 9.05 -7.65 9.05 L-6.95 8.65 Q-6.6 8.15 -6.6 7.6 -6.6 7.05 -6.95 6.65 L-7.65 6.2 Q-8.05 6.2 -8.35 6.65 -8.7 7.05 -8.7 7.6" fill="#79521e" fill-rule="evenodd" stroke="none"/>
    <path d="M2.65 -6.9 L3.05 -6.95 3.2 -6.1 Q3.2 -5.0 1.0 -4.25 -3.2 -2.85 -5.6 -1.75 L-5.35 -2.15 Q-5.05 -2.7 -5.05 -3.5 -5.05 -4.05 -5.9 -4.35 L-7.95 -4.75 -7.25 -5.6 Q-3.85 -4.6 -1.55 -4.9 0.45 -5.2 2.65 -6.9 M5.75 -4.6 L6.7 -5.15 8.1 -3.3 6.6 -3.5 5.75 -4.6 M8.45 -2.85 Q8.45 -3.85 8.05 -4.6 7.7 -5.4 7.15 -5.4 7.0 -6.9 7.7 -7.2 L10.25 -5.4 11.3 -3.85 Q11.3 -2.2 10.65 -1.55 9.6 -1.55 8.5 -2.35 L8.45 -2.85 M14.85 0.9 Q14.75 -0.7 15.3 -1.0 16.45 -0.6 16.75 0.9 16.5 1.85 16.25 1.75 L14.85 0.9 M-13.85 1.85 L-14.0 2.45 -14.45 2.85 -14.6 2.85 Q-15.0 2.85 -15.25 2.45 L-15.5 1.35 -15.25 0.35 Q-15.0 -0.15 -14.6 -0.15 L-14.0 0.35 Q-13.75 0.7 -13.75 1.35 L-13.85 1.85 M8.1 6.1 Q8.1 5.5 8.35 5.0 8.6 4.55 9.0 4.55 9.4 4.55 9.6 5.0 L9.85 6.1 9.6 7.2 Q9.4 7.7 9.0 7.7 L8.35 7.2 Q8.1 6.75 8.1 6.1 M-0.15 1.3 Q0.2 1.35 0.45 1.65 L0.75 2.6 0.65 3.2 0.45 3.6 -0.2 3.95 -0.5 3.9 -0.9 3.6 -1.15 2.6 -1.15 2.55 -0.9 1.65 Q-0.6 1.3 -0.2 1.3 L-0.15 1.3 M-8.5 -3.7 Q-8.5 -4.1 -8.1 -4.35 L-7.0 -4.6 -6.0 -4.35 Q-5.5 -4.1 -5.5 -3.7 -5.5 -3.3 -6.0 -3.1 L-7.0 -2.85 -8.1 -3.1 Q-8.5 -3.3 -8.5 -3.7 M-8.7 7.6 Q-8.7 7.05 -8.35 6.65 -8.05 6.2 -7.65 6.2 L-6.95 6.65 Q-6.6 7.05 -6.6 7.6 -6.6 8.15 -6.95 8.65 L-7.65 9.05 Q-8.05 9.05 -8.35 8.65 L-8.7 7.6" fill="#f4e8d7" fill-rule="evenodd" stroke="none"/>
    <path d="M-5.6 -1.75 Q-3.2 -2.85 1.0 -4.25 3.2 -5.0 3.2 -6.1 L3.05 -6.95 2.65 -6.9 4.55 -9.75 5.8 -11.9 Q9.6 -9.4 11.2 -7.75 14.15 -4.5 14.15 -0.15 14.15 1.35 13.1 2.0 12.4 2.0 11.5 1.45 L9.95 0.35 7.65 2.4 Q5.9 2.4 4.05 0.4 2.35 -1.65 1.95 -1.65 0.05 -1.65 -1.65 0.4 L-3.2 2.6 -3.6 2.55 -3.7 1.65 Q-3.75 0.95 -4.7 0.95 L-8.9 2.6 -9.7 2.45 -9.85 0.65 Q-9.85 -0.55 -9.3 -2.75 L-8.3 -6.15 -7.25 -5.6 -7.95 -4.75 Q-9.1 -3.65 -8.75 -3.0 L-8.7 -2.6 -8.6 -2.55 -8.6 -2.45 -7.95 -1.95 -6.0 -1.55 Q-5.75 -1.55 -5.6 -1.75 M7.15 -5.4 Q6.35 -5.4 5.8 -4.9 5.25 -4.45 5.25 -3.8 6.45 -1.9 7.65 -0.95 8.25 -1.2 8.5 -2.35 9.6 -1.55 10.65 -1.55 11.3 -2.2 11.3 -3.85 L10.25 -5.4 7.7 -7.2 Q7.0 -6.9 7.15 -5.4 M-0.5 27.05 L-1.3 27.05 -1.25 25.85 -0.9 25.35 Q-0.75 25.35 -0.7 25.85 L-0.5 27.05 M-3.85 26.4 L-4.15 26.4 -4.7 26.25 -4.8 26.1 -4.9 25.75 -4.7 25.35 -4.15 25.15 Q-3.85 25.15 -3.7 25.35 L-3.45 25.75 -3.7 26.25 -3.85 26.4 M-7.95 25.2 L-8.35 25.35 -8.75 25.2 -8.9 24.95 -8.9 24.8 -8.75 24.4 -8.35 24.25 Q-8.1 24.25 -7.95 24.4 L-7.8 24.8 -7.95 25.2 M1.15 25.3 Q1.15 25.05 1.3 24.9 1.45 24.65 1.7 24.65 1.95 24.65 2.1 24.9 L2.25 25.3 2.1 25.75 1.7 25.9 1.3 25.75 1.15 25.3 M5.1 25.2 Q5.1 24.95 5.25 24.8 L5.75 24.55 6.15 24.8 6.35 25.2 6.15 25.7 5.75 25.85 5.25 25.7 5.1 25.2 M10.25 26.25 L10.1 25.85 10.4 25.85 10.25 26.25" fill="#e3c091" fill-rule="evenodd" stroke="none"/>
    <path d="M-17.15 -3.95 L-15.8 -6.5 Q-14.85 -7.7 -13.65 -7.7 -12.7 -7.7 -12.25 -8.4 L-11.45 -9.6 -10.1 -7.7 -13.25 1.2 -14.3 -0.85 -15.25 -0.7 Q-15.95 -0.4 -15.95 1.35 -15.95 2.95 -15.8 2.55 L-14.85 3.4 -14.45 2.85 -14.0 2.45 -13.85 1.85 -13.75 1.75 Q-13.25 0.95 -13.25 1.5 L-13.25 1.6 -13.6 5.85 -13.5 9.7 -11.45 10.15 -8.6 10.15 -8.5 9.7 Q-9.25 8.55 -9.1 7.6 L-8.75 8.75 Q-8.3 9.6 -7.15 9.6 L-6.15 9.35 -6.2 9.1 -6.05 7.95 -6.05 8.0 Q-5.5 10.15 -2.8 10.15 -0.7 10.15 -0.15 9.45 L1.05 7.3 3.7 10.15 8.9 9.85 9.0 9.2 Q7.8 8.8 7.55 7.4 L7.8 7.85 Q8.25 8.35 8.9 8.35 9.55 8.35 9.95 7.85 L10.4 6.6 11.6 9.1 Q11.9 9.5 12.55 9.5 L14.2 9.45 Q14.55 7.45 15.25 7.15 L15.65 8.15 16.9 9.45 17.3 4.7 17.2 2.6 Q16.8 3.8 16.2 3.35 14.75 2.4 14.3 0.4 14.75 1.3 16.2 2.4 16.9 1.35 16.9 -0.45 15.25 -5.7 13.25 -8.95 16.25 -6.4 18.35 -1.55 20.55 3.4 20.55 8.35 L20.3 11.35 9.0 12.05 0.45 12.35 -9.25 11.95 -19.3 11.25 -19.6 7.45 Q-18.65 -0.25 -17.15 -3.95 M-5.05 -3.5 Q-5.05 -2.7 -5.35 -2.15 L-5.6 -1.75 Q-5.75 -1.55 -6.0 -1.55 L-7.95 -1.95 -8.6 -2.45 -7.4 -2.3 Q-6.0 -2.3 -5.05 -3.5 M5.25 -3.8 Q6.6 -2.45 8.25 -2.05 L8.45 -2.85 8.5 -2.35 Q8.25 -1.2 7.65 -0.95 6.45 -1.9 5.25 -3.8 M0.65 3.2 L1.2 2.6 Q0.6 4.55 -0.6 5.65 -1.65 5.1 -1.65 4.2 L-0.5 3.9 -0.2 3.95 0.45 3.6 0.65 3.2 M-0.5 27.05 L2.8 26.85 11.35 27.1 Q12.0 27.2 12.7 24.1 L11.35 24.25 2.9 24.4 -12.95 23.8 -8.9 24.95 -8.75 25.2 -8.35 25.35 -7.95 25.2 -4.8 26.1 -4.7 26.25 -4.15 26.4 -3.85 26.4 -1.3 27.05 -0.5 27.05 M15.8 21.55 L14.15 27.35 0.05 27.8 -13.65 27.35 -15.0 21.65 Q1.95 22.6 15.8 21.55 M-7.25 5.85 L-6.7 5.15 Q-6.3 5.65 -6.05 7.95 L-6.8 6.5 -7.25 5.85" fill="#cc8b33" fill-rule="evenodd" stroke="none"/>
    <path d="M5.95 -12.75 Q9.45 -11.5 13.25 -8.95 15.25 -5.7 16.9 -0.45 L16.35 -0.95 14.85 -1.4 14.55 -0.85 14.3 0.4 Q14.75 2.4 16.2 3.35 16.8 3.8 17.2 2.6 L17.3 4.7 16.9 9.45 15.65 8.15 15.25 7.15 Q14.55 7.45 14.2 9.45 L12.55 9.5 Q11.9 9.5 11.6 9.1 L10.4 6.6 Q10.4 5.5 9.95 4.75 9.55 3.95 8.9 3.95 8.25 3.95 7.8 4.75 7.4 5.5 7.5 6.6 L7.55 7.4 Q7.8 8.8 9.0 9.2 L8.9 9.85 3.7 10.15 1.05 7.3 -0.15 9.45 Q-0.7 10.15 -2.8 10.15 -5.5 10.15 -6.05 8.0 L-6.05 7.95 Q-6.3 5.65 -6.7 5.15 L-7.25 5.85 Q-8.05 5.85 -8.6 6.45 -9.1 6.9 -9.1 7.6 -9.25 8.55 -8.5 9.7 L-8.6 10.15 -11.45 10.15 -13.5 9.7 -13.6 5.85 -13.25 1.6 -13.25 1.5 -13.25 1.2 -10.1 -7.7 -8.3 -6.15 -9.3 -2.75 Q-9.85 -0.55 -9.85 0.65 L-9.7 2.45 -8.9 2.6 -4.7 0.95 Q-3.75 0.95 -3.7 1.65 L-3.6 2.55 -3.2 2.6 -1.65 0.4 Q0.05 -1.65 1.95 -1.65 2.35 -1.65 4.05 0.4 5.9 2.4 7.65 2.4 L9.95 0.35 11.5 1.45 Q12.4 2.0 13.1 2.0 14.15 1.35 14.15 -0.15 14.15 -4.5 11.2 -7.75 9.6 -9.4 5.8 -11.9 L5.95 -12.75 M1.2 2.6 L0.75 0.8 -0.15 1.3 -0.2 1.3 Q-0.6 1.3 -0.9 1.65 L-1.15 2.55 -1.65 4.2 Q-1.65 5.1 -0.6 5.65 0.6 4.55 1.2 2.6 M-8.9 24.95 L-12.95 23.8 2.9 24.4 11.35 24.25 12.7 24.1 Q12.0 27.2 11.35 27.1 L2.8 26.85 -0.5 27.05 -0.7 25.85 Q-0.75 25.35 -0.9 25.35 L-1.25 25.85 -1.3 27.05 -3.85 26.4 -3.7 26.25 -3.45 25.75 -3.7 25.35 Q-3.85 25.15 -4.15 25.15 L-4.7 25.35 -4.9 25.75 -4.8 26.1 -7.95 25.2 -7.8 24.8 -7.95 24.4 Q-8.1 24.25 -8.35 24.25 L-8.75 24.4 -8.9 24.8 -8.9 24.95 M10.25 26.25 L10.4 25.85 10.1 25.85 10.25 26.25 M5.1 25.2 L5.25 25.7 5.75 25.85 6.15 25.7 6.35 25.2 6.15 24.8 5.75 24.55 5.25 24.8 Q5.1 24.95 5.1 25.2 M1.15 25.3 L1.3 25.75 1.7 25.9 2.1 25.75 2.25 25.3 2.1 24.9 Q1.95 24.65 1.7 24.65 1.45 24.65 1.3 24.9 1.15 25.05 1.15 25.3" fill="#d8a663" fill-rule="evenodd" stroke="none"/>
    <path d="M22.05 11.35 L21.2 10.7 21.25 10.3 Q23.3 10.95 23.3 11.35 L23.25 11.35 22.05 11.35 M-23.1 11.2 Q-22.6 10.7 -20.3 10.15 L-20.3 10.4 -22.8 11.35 -23.1 11.25 -23.1 11.2" fill="#735236" fill-rule="evenodd" stroke="none"/>
    <path d="M21.35 9.5 L23.85 10.25 Q25.05 10.95 25.05 14.9 25.05 18.45 23.4 19.6 L20.4 20.85 19.6 21.0 15.8 21.55 Q1.95 22.6 -15.0 21.65 L-19.6 20.95 -20.55 20.75 -23.35 20.0 Q-24.85 18.85 -24.85 15.05 -24.85 10.95 -23.4 10.05 L-20.4 9.3 -20.3 10.15 Q-22.6 10.7 -23.1 11.2 L-23.35 12.05 -23.35 16.15 Q-23.15 18.15 -21.65 19.1 -18.25 21.4 -1.95 21.4 L12.3 21.0 22.45 19.6 Q23.65 19.2 24.1 15.2 L23.65 12.2 23.3 11.35 Q23.3 10.95 21.25 10.3 L21.35 9.5" fill="#35261a" fill-rule="evenodd" stroke="none"/>
    <path d="M22.05 11.35 L22.3 11.9 22.15 12.75 Q21.2 13.8 18.8 14.2 L18.0 13.25 19.9 12.95 Q20.8 12.6 20.95 12.2 L20.8 11.9 20.95 11.8 21.2 10.7 22.05 11.35 M7.55 14.45 L3.05 14.9 -2.5 14.6 -4.1 13.65 9.05 13.15 12.3 13.0 11.9 13.95 7.55 14.45 M-18.9 12.95 L-18.9 12.85 Q-17.0 13.1 -14.6 12.85 L-14.6 13.65 -16.35 13.8 -18.9 13.7 -18.9 12.95 M-23.0 12.3 L-23.0 12.15 -22.8 12.75 -23.0 12.3" fill="#ee9c04" fill-rule="evenodd" stroke="none"/>
    <path d="M20.8 11.9 L20.95 12.2 Q20.8 12.6 19.9 12.95 L18.0 13.25 17.3 12.55 20.8 11.9 M9.05 13.15 L-4.1 13.65 -4.7 13.25 9.05 13.15 M-18.9 12.85 L-18.9 12.15 -14.6 12.75 -14.6 12.85 Q-17.0 13.1 -18.9 12.85" fill="#f5e050" fill-rule="evenodd" stroke="none"/>
    <path d="M22.3 11.9 L22.05 11.35 23.25 11.35 22.3 11.9 M-23.1 11.25 L-22.8 11.35 -22.85 11.5 -23.1 11.25" fill="#896241" fill-rule="evenodd" stroke="none"/>
    <path d="M22.15 12.75 L22.3 11.9 23.25 11.35 23.3 11.35 23.65 12.2 22.15 12.75 M-23.35 12.05 L-23.1 11.2 -23.1 11.25 -22.85 11.5 -23.0 12.15 -23.0 12.3 Q-23.15 12.2 -23.35 12.05 M7.55 14.45 L11.9 13.95 14.05 14.05 7.55 14.45 M-11.15 14.25 L-15.65 13.9 -16.35 13.8 -14.6 13.65 -11.15 14.25" fill="#a97850" fill-rule="evenodd" stroke="none"/>
    <path d="M18.8 14.2 Q21.2 13.8 22.15 12.75 L23.65 12.2 24.1 15.2 Q23.65 19.2 22.45 19.6 L12.3 21.0 -1.95 21.4 Q-18.25 21.4 -21.65 19.1 -23.15 18.15 -23.35 16.15 L-23.35 12.05 Q-23.15 12.2 -23.0 12.3 L-22.8 12.75 -18.9 13.7 -16.35 13.8 -15.65 13.9 -15.8 18.55 -10.35 19.25 -5.5 19.6 6.85 18.85 15.55 17.9 15.55 14.25 18.8 14.2" fill="#4b3523" fill-rule="evenodd" stroke="none"/>
    <path d="M-2.5 14.6 L3.05 14.9 7.55 14.45 14.05 14.05 15.55 14.25 15.55 17.9 6.85 18.85 -5.5 19.6 -10.35 19.25 -15.8 18.55 -15.65 13.9 -11.15 14.25 -2.5 14.6" fill="#5c422c" fill-rule="evenodd" stroke="none"/>
    <path d="M18.0 13.25 L18.8 14.2 15.55 14.25 14.05 14.05 11.9 13.95 12.3 13.0 13.4 12.95 18.0 13.25 M-4.1 13.65 L-2.5 14.6 -11.15 14.25 -14.6 13.65 -14.6 12.85 -10.1 13.5 -4.1 13.65 M-20.15 11.1 Q-22.4 11.5 -22.6 11.9 -22.8 12.2 -22.05 12.55 L-20.0 12.85 -18.9 12.95 -18.9 13.7 -22.8 12.75 -23.0 12.15 -22.85 11.5 -22.8 11.35 -20.3 10.4 -20.15 11.1" fill="#d21a1a" fill-rule="evenodd" stroke="none"/>
    <path d="M17.3 12.55 L18.0 13.25 13.4 12.95 17.3 12.55 M-20.15 11.1 L-19.85 11.8 Q-19.45 12.15 -18.9 12.15 L-18.9 12.85 -18.9 12.95 -20.0 12.85 -22.05 12.55 Q-22.8 12.2 -22.6 11.9 -22.4 11.5 -20.15 11.1 M-14.6 12.75 L-4.7 13.25 -4.1 13.65 -10.1 13.5 -14.6 12.85 -14.6 12.75" fill="#e83c3c" fill-rule="evenodd" stroke="none"/>
    <path d="M-18.4 26.65 L-18.6 26.8 -18.5 26.55 Q-18.35 25.35 -19.6 20.95 L-15.0 21.65 -13.65 27.35 Q-17.4 26.0 -18.4 26.65 M15.8 21.55 L19.6 21.0 Q19.5 26.65 17.8 27.35 16.75 27.75 14.15 27.35 L15.8 21.55" fill="#ad762c" fill-rule="evenodd" stroke="none"/>
  </g>
</svg>
