<?xml version="1.0" encoding="UTF-8" standalone="no"?>
<svg xmlns:ffdec="https://www.free-decompiler.com/flash" xmlns:xlink="http://www.w3.org/1999/xlink" ffdec:objectType="shape" height="45.7px" width="38.35px" xmlns="http://www.w3.org/2000/svg">
  <g transform="matrix(1.0, 0.0, 0.0, 1.0, 7.45, 2.55)">
    <path d="M-1.25 -2.3 Q1.7 -3.15 5.05 -1.25 L4.95 -1.25 Q8.05 0.6 10.55 4.2 L12.85 7.35 15.3 10.3 17.85 13.35 20.25 16.2 26.35 23.3 29.2 26.55 30.4 28.2 30.65 28.75 30.9 29.3 Q31.0 32.25 25.9 35.6 L24.75 33.35 25.3 32.9 Q26.9 32.35 26.3 29.85 26.05 29.3 22.3 28.85 13.55 29.1 8.35 34.45 6.2 36.2 5.7 37.7 5.65 38.2 6.2 39.1 6.7 39.9 9.9 40.35 L11.65 40.25 11.75 40.45 12.9 42.3 11.25 42.75 6.2 43.1 Q4.9 43.1 3.45 42.15 2.0 41.15 1.35 40.0 L-5.9 13.2 -6.15 12.6 -6.3 12.15 Q-8.15 7.75 -7.05 3.7 -6.4 1.55 -5.25 0.15 -6.15 1.4 -6.35 4.65 -6.65 7.9 -5.65 10.9 L-4.6 14.3 -4.05 16.2 -1.55 24.5 -1.3 25.25 2.3 36.9 2.8 38.8 Q2.75 39.75 4.15 41.05 L8.95 41.2 Q5.15 40.45 4.7 39.85 3.95 39.0 4.1 38.15 4.3 35.5 10.0 31.8 16.25 27.45 22.9 27.55 L25.45 27.8 Q26.6 28.1 27.2 28.75 L27.6 30.0 Q27.65 31.4 26.25 33.25 28.55 32.45 28.85 30.45 29.0 29.45 28.8 28.75 L28.35 27.9 26.85 26.2 25.45 24.85 Q22.15 21.6 17.7 15.85 L17.45 15.5 15.8 13.4 11.2 7.5 10.9 7.1 10.0 6.05 9.45 5.35 8.6 4.15 Q7.55 2.45 4.4 -0.2 1.25 -2.9 -1.25 -2.3" fill="#070707" fill-rule="evenodd" stroke="none"/>
    <path d="M9.95 29.7 L5.8 19.75 5.6 19.3 4.9 17.95 Q3.35 15.05 0.15 10.3 L-0.2 9.8 -0.25 9.85 Q-2.35 6.15 -2.35 3.7 L-2.2 2.5 -2.05 1.65 -0.45 1.1 Q2.3 2.5 5.65 7.2 L6.1 7.85 Q8.25 10.65 11.7 15.95 L12.15 16.65 12.7 17.6 Q17.0 24.35 18.45 26.1 L15.95 27.1 Q14.35 27.6 9.95 29.7" fill="#4b4b4b" fill-rule="evenodd" stroke="none"/>
    <path d="M18.45 26.1 Q17.0 24.35 12.7 17.6 L12.15 16.65 11.7 15.95 Q8.25 10.65 6.1 7.85 L5.65 7.2 Q2.3 2.5 -0.45 1.1 L-2.05 1.65 -2.2 2.5 -2.35 3.7 Q-2.35 6.15 -0.25 9.85 L-0.2 9.8 0.15 10.3 Q3.35 15.05 4.9 17.95 L5.6 19.3 5.8 19.75 9.95 29.7 6.3 32.1 Q5.4 30.6 2.45 23.25 L2.0 22.15 1.9 21.8 0.2 17.5 -1.8 11.6 -2.1 10.6 Q-3.6 6.25 -3.6 4.0 -3.6 2.45 -3.05 1.35 -2.25 -0.3 -0.45 -0.3 2.5 -0.3 7.1 6.5 L7.05 6.5 7.45 7.05 7.7 7.45 13.15 15.0 14.05 16.2 Q18.9 22.7 21.25 25.4 L18.45 26.1" fill="#373737" fill-rule="evenodd" stroke="none"/>
    <path d="M-1.25 -2.3 Q1.25 -2.9 4.4 -0.2 7.55 2.45 8.6 4.15 L9.45 5.35 10.0 6.05 10.9 7.1 11.2 7.5 15.8 13.4 17.45 15.5 17.7 15.85 Q22.15 21.6 25.45 24.85 L26.85 26.2 25.45 25.5 21.25 25.4 Q18.9 22.7 14.05 16.2 L13.15 15.0 7.7 7.45 7.45 7.05 7.05 6.5 7.1 6.5 Q2.5 -0.3 -0.45 -0.3 -2.25 -0.3 -3.05 1.35 -3.6 2.45 -3.6 4.0 -3.6 6.25 -2.1 10.6 L-1.8 11.6 0.2 17.5 1.9 21.8 2.0 22.15 2.45 23.25 Q5.4 30.6 6.3 32.1 3.9 33.65 2.3 36.9 L-1.3 25.25 -1.55 24.5 -4.05 16.2 -4.6 14.3 -5.65 10.9 Q-6.65 7.9 -6.35 4.65 -6.15 1.4 -5.25 0.15 L-4.35 -0.75 Q-3.55 -1.7 -2.3 -2.0 L-1.25 -2.3" fill="#252525" fill-rule="evenodd" stroke="none"/>
    <path d="M28.35 27.9 L28.8 28.75 Q29.0 29.45 28.85 30.45 28.55 32.45 26.25 33.25 27.65 31.4 27.6 30.0 L27.2 28.75 Q26.6 28.1 25.45 27.8 L22.9 27.55 Q16.25 27.45 10.0 31.8 4.3 35.5 4.1 38.15 3.95 39.0 4.7 39.85 5.15 40.45 8.95 41.2 L4.15 41.05 Q2.75 39.75 2.8 38.8 4.5 33.9 11.8 30.0 18.4 26.4 22.75 26.3 L25.45 26.5 27.3 27.3 28.35 27.9" fill="#191919" fill-rule="evenodd" stroke="none"/>
    <path d="M26.85 26.2 L28.35 27.9 27.3 27.3 25.45 26.5 22.75 26.3 Q18.4 26.4 11.8 30.0 4.5 33.9 2.8 38.8 L2.3 36.9 Q3.9 33.65 6.3 32.1 L9.95 29.7 Q14.35 27.6 15.95 27.1 L18.45 26.1 21.25 25.4 25.45 25.5 26.85 26.2 M11.75 40.45 L11.65 40.25 9.9 40.35 Q6.7 39.9 6.2 39.1 5.65 38.2 5.7 37.7 6.2 36.2 8.35 34.45 L11.75 40.45 M22.3 28.85 Q26.05 29.3 26.3 29.85 26.9 32.35 25.3 32.9 L24.75 33.35 24.7 33.35 22.3 28.85" fill="#101010" fill-rule="evenodd" stroke="none"/>
  </g>
</svg>
