<?xml version="1.0" encoding="UTF-8" standalone="no"?>
<svg xmlns:ffdec="https://www.free-decompiler.com/flash" xmlns:xlink="http://www.w3.org/1999/xlink" ffdec:objectType="shape" height="46.1px" width="31.05px" xmlns="http://www.w3.org/2000/svg">
  <g transform="matrix(1.0, 0.0, 0.0, 1.0, 12.2, 2.7)">
    <path d="M5.45 26.0 Q6.35 25.35 6.75 24.35 L6.9 21.2 Q6.9 17.15 4.95 7.95 L3.15 -1.4 3.2 -1.35 Q6.9 12.9 8.65 27.2 L5.7 28.05 5.45 26.0 M0.45 28.8 L-2.55 28.75 -6.7 0.05 -5.6 -0.7 -5.6 -0.75 -4.0 -1.6 -3.85 -1.1 -3.8 -0.75 Q-4.8 0.25 -4.8 0.9 L-3.3 12.95 -2.45 18.55 -1.65 24.3 -1.25 25.3 Q-0.85 26.55 0.2 26.9 L0.45 28.8" fill="#93c4e5" fill-rule="evenodd" stroke="none"/>
    <path d="M0.45 28.85 L-2.55 28.8 -2.55 28.75 0.45 28.8 0.45 28.85" fill="#3f667e" fill-rule="evenodd" stroke="none"/>
    <path d="M5.0 22.7 L5.1 22.4 5.1 20.15 4.5 14.55 3.8 9.9 2.45 3.75 Q1.45 -0.3 0.45 -0.3 L0.35 -0.3 -0.2 -2.3 -0.25 -2.6 2.85 -2.5 3.15 -1.4 4.95 7.95 Q6.9 17.15 6.9 21.2 L6.75 24.35 Q6.35 25.35 5.45 26.0 L5.0 22.7 M0.2 26.9 Q-0.85 26.55 -1.25 25.3 L-1.65 24.3 -2.45 18.55 -3.3 12.95 -4.8 0.9 Q-4.8 0.25 -3.8 -0.75 L0.2 26.9" fill="#aacfe8" fill-rule="evenodd" stroke="none"/>
    <path d="M0.35 -0.3 L0.45 -0.3 Q1.45 -0.3 2.45 3.75 L3.8 9.9 4.5 14.55 5.1 20.15 5.1 22.4 5.0 22.7 Q3.3 11.2 0.35 -0.3" fill="#bedbee" fill-rule="evenodd" stroke="none"/>
    <path d="M3.2 -1.35 L3.1 -2.0 3.05 -2.5 4.95 -2.0 4.95 -1.85 5.0 -0.4 5.15 -0.35 8.5 18.15 9.05 21.4 9.9 26.45 10.0 26.65 8.65 27.2 Q6.9 12.9 3.2 -1.35 M5.7 28.05 L4.0 28.4 3.75 28.45 1.65 28.75 0.45 28.85 0.45 28.8 0.2 26.9 1.0 27.0 1.15 27.0 1.25 27.0 1.5 27.0 1.6 27.0 3.8 26.7 Q4.75 26.45 5.45 26.0 L5.7 28.05 M-2.55 28.8 L-3.15 28.7 -3.35 28.7 -3.35 28.55 -4.3 20.5 -6.6 2.35 -6.8 1.7 -7.05 0.3 -6.7 0.05 -2.55 28.75 -2.55 28.8 M13.1 39.05 Q10.05 40.85 5.4 41.55 1.7 42.1 -1.3 41.7 L-0.85 41.75 -0.95 41.45 -3.2 34.8 -3.8 32.45 -0.6 32.5 0.05 35.85 Q1.2 40.05 2.85 40.05 7.3 40.05 9.3 38.25 10.5 37.1 10.5 35.85 L10.3 32.6 10.15 30.5 13.05 29.25 13.1 39.05 M-3.8 -0.75 L-3.85 -1.1 -4.0 -1.6 -1.95 -2.3 -2.0 -2.3 -3.8 -0.75" fill="#d7d7d7" fill-rule="evenodd" stroke="none"/>
    <path d="M8.65 27.2 L10.0 26.65 9.9 26.45 9.05 21.4 8.5 18.15 5.15 -0.35 5.0 -0.4 4.95 -1.85 4.95 -2.0 6.1 -1.6 6.4 -1.35 6.55 -1.0 9.95 17.8 13.15 18.25 Q18.4 19.3 18.8 22.35 L18.85 23.15 18.85 23.3 18.75 23.9 18.75 23.95 17.45 35.45 17.45 35.5 Q17.9 37.95 14.05 40.25 10.75 42.25 5.6 43.05 0.5 43.8 -3.35 42.85 -7.0 41.95 -7.7 40.05 L-7.7 40.0 -11.55 29.3 -11.55 29.2 -12.1 27.9 Q-12.75 24.9 -8.2 22.1 L-8.2 22.05 Q-7.1 21.35 -5.8 20.75 L-8.2 1.7 -8.15 1.35 -7.95 1.05 -7.05 0.3 -6.8 1.7 -6.6 2.35 -4.3 20.5 -3.35 28.55 -3.35 28.7 -3.15 28.7 -2.55 28.8 0.45 28.85 1.65 28.75 3.75 28.45 4.0 28.4 5.7 28.05 8.65 27.2 M17.25 23.65 L17.3 23.45 17.35 23.05 17.3 22.6 Q16.8 20.5 12.8 19.7 L12.15 19.55 Q15.25 20.45 15.5 22.5 L15.5 23.75 14.95 24.85 12.95 26.65 12.35 27.05 11.15 27.75 Q8.25 29.15 4.25 29.9 -0.45 30.7 -4.1 30.1 L-4.0 30.1 -4.45 30.05 -4.75 29.95 -5.95 29.55 -7.05 29.2 -7.55 28.85 -7.6 28.85 Q-8.7 28.05 -8.85 26.85 -9.3 25.0 -7.1 23.2 L-7.4 23.35 Q-10.85 25.5 -10.6 27.65 L-10.55 27.85 Q-10.55 29.85 -9.35 31.2 L-9.25 31.35 -6.3 39.5 Q-5.7 40.75 -3.0 41.4 L-2.9 41.4 -1.8 41.65 -1.3 41.7 Q1.7 42.1 5.4 41.55 10.05 40.85 13.1 39.05 L13.25 38.95 13.3 38.95 Q16.1 37.25 15.95 35.65 L15.95 35.55 15.95 35.4 15.95 35.35 16.85 27.55 16.85 27.45 Q17.25 26.2 17.25 23.7 L17.25 23.65 M10.7 20.75 L10.45 20.7 11.35 25.9 11.55 25.8 11.6 25.75 Q14.15 24.2 14.05 22.75 13.65 21.3 10.7 20.75 M-7.4 26.6 Q-7.1 27.8 -4.85 28.4 L-5.45 23.85 Q-7.55 25.25 -7.4 26.6" fill="#8c8c8c" fill-rule="evenodd" stroke="none"/>
    <path d="M5.0 22.7 L5.45 26.0 Q4.75 26.45 3.8 26.7 L1.6 27.0 1.5 27.0 1.25 27.0 1.15 27.0 1.0 27.0 0.2 26.9 -3.8 -0.75 -2.0 -2.3 -0.25 -2.6 -0.2 -2.3 0.35 -0.3 Q-2.05 -0.3 -2.65 0.35 -3.05 0.75 -3.05 2.25 L-1.7 13.2 -0.3 21.55 Q-0.85 24.0 1.95 24.0 3.45 24.0 4.25 23.5 L5.0 22.7 M3.15 -1.4 L2.85 -2.5 3.05 -2.5 3.1 -2.0 3.2 -1.35 3.15 -1.4 M14.95 24.85 L15.5 23.75 15.5 22.5 Q15.25 20.45 12.15 19.55 L12.8 19.7 Q16.8 20.5 17.3 22.6 L17.35 23.05 17.3 23.45 17.25 23.65 16.85 24.55 17.2 23.8 15.35 24.2 14.95 24.85 M-10.55 27.85 L-10.6 27.65 Q-10.85 25.5 -7.4 23.35 L-7.1 23.2 Q-9.3 25.0 -8.85 26.85 -8.7 28.05 -7.6 28.85 L-7.55 28.85 -7.05 29.2 -5.95 29.55 -8.15 30.3 -8.35 30.2 -8.45 30.15 -8.75 30.0 -10.25 28.5 -10.3 28.4 -10.55 27.85 M10.15 30.5 L10.3 32.6 10.5 35.85 Q10.5 37.1 9.3 38.25 7.3 40.05 2.85 40.05 1.2 40.05 0.05 35.85 L-0.6 32.5 0.55 32.45 4.6 31.95 8.85 30.95 9.0 30.9 10.15 30.5" fill="#f0f0f0" fill-rule="evenodd" stroke="none"/>
    <path d="M0.35 -0.3 Q3.3 11.2 5.0 22.7 L4.25 23.5 Q3.45 24.0 1.95 24.0 -0.85 24.0 -0.3 21.55 L-1.7 13.2 -3.05 2.25 Q-3.05 0.75 -2.65 0.35 -2.05 -0.3 0.35 -0.3 M-5.95 29.55 L-4.75 29.95 -4.45 30.05 -4.0 30.1 -4.1 30.1 Q-0.45 30.7 4.25 29.9 8.25 29.15 11.15 27.75 L12.35 27.05 12.95 26.65 14.95 24.85 15.35 24.2 17.2 23.8 16.85 24.55 16.1 25.65 15.9 25.85 15.8 25.95 12.65 28.5 Q10.5 30.05 4.3 31.15 L-4.65 31.5 -8.15 30.3 -5.95 29.55" fill="#f9f9f9" fill-rule="evenodd" stroke="none"/>
    <path d="M17.25 23.65 L17.25 23.7 Q17.25 26.2 16.85 27.45 L16.85 27.55 15.95 35.35 15.95 35.4 15.95 35.55 15.95 35.65 Q16.1 37.25 13.3 38.95 L13.25 38.95 13.1 39.05 13.05 29.25 10.15 30.5 9.0 30.9 8.85 30.95 4.6 31.95 0.55 32.45 -0.6 32.5 -3.8 32.45 -3.2 34.8 -0.95 41.45 -0.85 41.75 -1.3 41.7 -1.8 41.65 -2.9 41.4 -3.0 41.4 Q-5.7 40.75 -6.3 39.5 L-9.25 31.35 -9.35 31.2 Q-10.55 29.85 -10.55 27.85 L-10.3 28.4 -10.25 28.5 -8.75 30.0 -8.45 30.15 -8.35 30.2 -8.15 30.3 -4.65 31.5 4.3 31.15 Q10.5 30.05 12.65 28.5 L15.8 25.95 15.9 25.85 16.1 25.65 16.85 24.55 17.25 23.65 M10.7 20.75 Q13.65 21.3 14.05 22.75 14.15 24.2 11.6 25.75 L11.55 25.8 11.35 25.9 10.45 20.7 10.7 20.75 M-7.4 26.6 Q-7.55 25.25 -5.45 23.85 L-4.85 28.4 Q-7.1 27.8 -7.4 26.6" fill="#bbbbbb" fill-rule="evenodd" stroke="none"/>
  </g>
</svg>
