<?xml version="1.0" encoding="UTF-8" standalone="no"?>
<svg xmlns:ffdec="https://www.free-decompiler.com/flash" xmlns:xlink="http://www.w3.org/1999/xlink" ffdec:objectType="shape" height="17.95px" width="54.2px" xmlns="http://www.w3.org/2000/svg">
  <g transform="matrix(1.0, 0.0, 0.0, 1.0, 45.3, 29.5)">
    <path d="M7.9 -21.65 L8.35 -21.5 8.9 -21.6 8.25 -15.7 8.2 -15.6 Q7.05 -11.7 0.8 -11.55 L-9.8 -11.55 Q-14.6 -12.0 -15.5 -16.4 L-15.5 -16.45 -16.0 -21.6 -15.5 -21.5 -15.0 -21.65 -14.5 -16.6 Q-13.7 -12.95 -9.75 -12.55 L0.75 -12.55 Q6.1 -12.7 7.25 -15.85 L7.9 -21.65 M-21.4 -21.65 Q-21.2 -21.5 -20.9 -21.5 L-20.4 -21.6 -20.9 -16.45 -20.9 -16.4 Q-21.8 -12.0 -26.6 -11.55 L-37.2 -11.55 Q-43.45 -11.7 -44.6 -15.6 L-44.65 -15.7 -45.3 -21.6 -44.75 -21.5 -44.3 -21.65 -43.65 -15.85 Q-42.5 -12.7 -37.15 -12.55 L-26.65 -12.55 Q-22.7 -12.95 -21.9 -16.6 L-21.4 -21.65" fill="#b6b6b6" fill-rule="evenodd" stroke="none"/>
    <path d="M7.9 -21.65 L7.25 -15.85 Q6.1 -12.7 0.75 -12.55 L-9.75 -12.55 Q-13.7 -12.95 -14.5 -16.6 L-15.0 -21.65 -14.8 -21.85 Q-14.5 -22.15 -14.55 -22.55 L-14.8 -25.15 Q-15.05 -28.55 -12.4 -29.5 L3.7 -29.5 Q7.8 -29.0 7.7 -24.1 L7.5 -22.65 Q7.45 -22.25 7.7 -21.9 L7.9 -21.65" fill="url(#gradient0)" fill-rule="evenodd" stroke="none"/>
    <path d="M-44.3 -21.65 L-44.1 -21.9 Q-43.85 -22.25 -43.9 -22.65 L-44.1 -24.1 Q-44.2 -29.0 -40.1 -29.5 L-24.0 -29.5 Q-21.35 -28.55 -21.6 -25.15 L-21.85 -22.55 -21.6 -21.85 -21.4 -21.65 -21.9 -16.6 Q-22.7 -12.95 -26.65 -12.55 L-37.15 -12.55 Q-42.5 -12.7 -43.65 -15.85 L-44.3 -21.65" fill="url(#gradient1)" fill-rule="evenodd" stroke="none"/>
  </g>
  <defs>
    <linearGradient gradientTransform="matrix(0.0, 0.0046, 0.0103, 0.0, -3.55, -21.05)" gradientUnits="userSpaceOnUse" id="gradient0" spreadMethod="pad" x1="-819.2" x2="819.2">
      <stop offset="0.0" stop-color="#ffffff" stop-opacity="0.49803922"/>
      <stop offset="1.0" stop-color="#ffffff" stop-opacity="0.8"/>
    </linearGradient>
    <linearGradient gradientTransform="matrix(0.0, 0.0046, -0.0103, 0.0, -32.85, -21.05)" gradientUnits="userSpaceOnUse" id="gradient1" spreadMethod="pad" x1="-819.2" x2="819.2">
      <stop offset="0.0" stop-color="#ffffff" stop-opacity="0.49803922"/>
      <stop offset="1.0" stop-color="#ffffff" stop-opacity="0.8"/>
    </linearGradient>
  </defs>
</svg>
