<?xml version="1.0" encoding="UTF-8" standalone="no"?>
<svg xmlns:ffdec="https://www.free-decompiler.com/flash" xmlns:xlink="http://www.w3.org/1999/xlink" ffdec:objectType="shape" height="17.3px" width="75.8px" xmlns="http://www.w3.org/2000/svg">
  <g transform="matrix(1.0, 0.0, 0.0, 1.0, 41.4, 28.85)">
    <path d="M6.6 -24.4 L31.85 -17.85 32.0 -17.85 32.7 -17.6 32.7 -17.65 32.85 -17.5 Q34.35 -15.35 32.95 -12.45 L32.75 -12.3 32.65 -12.3 32.45 -12.5 32.5 -12.65 Q33.45 -14.6 32.95 -16.1 L32.55 -16.95 32.3 -17.15 32.05 -17.3 31.85 -17.3 6.75 -23.6 6.6 -24.4" fill="#e0e0e0" fill-rule="evenodd" stroke="none"/>
    <path d="M6.6 -24.4 L6.75 -23.6 31.85 -17.3 32.05 -17.3 32.3 -17.15 32.55 -16.95 32.95 -16.1 Q33.45 -14.6 32.5 -12.65 L32.45 -12.5 32.65 -12.3 32.75 -12.3 32.95 -12.45 Q34.35 -15.35 32.85 -17.5 L32.7 -17.65 32.7 -17.6 32.0 -17.85 31.85 -17.85 6.6 -24.4 M31.85 -18.7 L32.0 -18.65 32.9 -18.35 33.45 -17.95 Q35.25 -15.45 33.6 -12.1 L33.05 -11.6 32.25 -11.65 Q31.9 -11.85 31.75 -12.2 31.6 -12.6 31.8 -13.0 32.6 -14.6 32.2 -15.9 L32.0 -16.35 31.85 -16.55 6.15 -23.15 5.75 -25.2 31.85 -18.7" fill="#8a8a8a" fill-rule="evenodd" stroke="none"/>
    <path d="M1.15 -27.85 L-10.2 -27.85 Q-12.2 -27.85 -13.65 -26.4 -15.05 -25.05 -15.05 -23.15 L-15.05 -21.15 Q-15.05 -18.4 -13.05 -16.4 -11.0 -14.5 -8.15 -14.5 L-0.9 -14.5 Q1.95 -14.5 3.95 -16.4 6.0 -18.4 6.0 -21.15 L6.0 -23.15 Q6.0 -25.05 4.55 -26.4 3.15 -27.85 1.15 -27.85 M4.9 -26.75 Q6.5 -25.25 6.5 -23.15 L6.5 -21.15 Q6.5 -18.2 4.3 -16.05 2.15 -14.0 -0.9 -14.0 L-8.15 -14.0 Q-11.2 -14.0 -13.4 -16.05 -15.55 -18.2 -15.55 -21.15 L-15.55 -23.15 Q-15.55 -25.25 -14.0 -26.75 -12.4 -28.35 -10.2 -28.35 L1.15 -28.35 Q3.35 -28.35 4.9 -26.75 M-35.55 -27.85 Q-37.55 -27.85 -38.95 -26.4 -40.4 -25.05 -40.4 -23.15 L-40.4 -21.15 Q-40.4 -18.4 -38.35 -16.4 -36.35 -14.5 -33.5 -14.5 L-26.25 -14.5 Q-23.4 -14.5 -21.35 -16.4 -19.35 -18.4 -19.35 -21.15 L-19.35 -23.15 Q-19.35 -25.05 -20.75 -26.4 -22.2 -27.85 -24.2 -27.85 L-35.55 -27.85 M-40.9 -21.15 L-40.9 -23.15 Q-40.9 -25.25 -39.3 -26.75 -37.75 -28.35 -35.55 -28.35 L-24.2 -28.35 Q-22.0 -28.35 -20.4 -26.75 -18.85 -25.25 -18.85 -23.15 L-18.85 -21.15 Q-18.85 -18.2 -21.0 -16.05 -23.2 -14.0 -26.25 -14.0 L-33.5 -14.0 Q-36.55 -14.0 -38.7 -16.05 -40.9 -18.2 -40.9 -21.15" fill="#e0e0e0" fill-rule="evenodd" stroke="none"/>
    <path d="M1.15 -27.35 L-10.2 -27.35 Q-12.0 -27.35 -13.3 -26.05 -14.55 -24.85 -14.55 -23.15 L-14.55 -21.15 Q-14.55 -18.6 -12.7 -16.75 L-12.7 -16.8 Q-10.8 -15.0 -8.15 -15.0 L-0.9 -15.0 Q1.75 -15.0 3.6 -16.8 L3.6 -16.75 Q5.5 -18.6 5.5 -21.15 L5.5 -23.15 Q5.5 -24.85 4.2 -26.05 2.95 -27.35 1.15 -27.35 M5.25 -27.1 L5.25 -27.15 Q7.0 -25.45 7.0 -23.15 L7.0 -21.15 Q7.0 -18.0 4.65 -15.7 2.35 -13.5 -0.9 -13.5 L-8.15 -13.5 Q-11.4 -13.5 -13.75 -15.7 -16.05 -18.0 -16.05 -21.15 L-16.05 -22.4 -16.55 -22.4 -16.65 -22.4 -17.75 -22.4 -17.85 -22.4 -18.35 -22.4 -18.35 -21.15 Q-18.35 -18.0 -20.65 -15.7 -23.0 -13.5 -26.25 -13.5 L-33.5 -13.5 Q-36.75 -13.5 -39.05 -15.7 -41.4 -18.0 -41.4 -21.15 L-41.4 -23.15 Q-41.4 -25.45 -39.65 -27.15 L-39.65 -27.1 Q-37.95 -28.85 -35.55 -28.85 L-24.2 -28.85 Q-21.8 -28.85 -20.05 -27.1 L-20.05 -27.15 Q-18.85 -25.95 -18.45 -24.4 L-17.85 -24.4 -17.75 -24.4 -16.65 -24.4 -16.55 -24.4 -15.95 -24.4 Q-15.55 -25.95 -14.35 -27.15 L-14.35 -27.1 Q-12.6 -28.85 -10.2 -28.85 L1.15 -28.85 Q3.55 -28.85 5.25 -27.1 M4.9 -26.75 Q3.35 -28.35 1.15 -28.35 L-10.2 -28.35 Q-12.4 -28.35 -14.0 -26.75 -15.55 -25.25 -15.55 -23.15 L-15.55 -21.15 Q-15.55 -18.2 -13.4 -16.05 -11.2 -14.0 -8.15 -14.0 L-0.9 -14.0 Q2.15 -14.0 4.3 -16.05 6.5 -18.2 6.5 -21.15 L6.5 -23.15 Q6.5 -25.25 4.9 -26.75 M1.15 -27.85 Q3.15 -27.85 4.55 -26.4 6.0 -25.05 6.0 -23.15 L6.0 -21.15 Q6.0 -18.4 3.95 -16.4 1.95 -14.5 -0.9 -14.5 L-8.15 -14.5 Q-11.0 -14.5 -13.05 -16.4 -15.05 -18.4 -15.05 -21.15 L-15.05 -23.15 Q-15.05 -25.05 -13.65 -26.4 -12.2 -27.85 -10.2 -27.85 L1.15 -27.85 M-40.9 -21.15 Q-40.9 -18.2 -38.7 -16.05 -36.55 -14.0 -33.5 -14.0 L-26.25 -14.0 Q-23.2 -14.0 -21.0 -16.05 -18.85 -18.2 -18.85 -21.15 L-18.85 -23.15 Q-18.85 -25.25 -20.4 -26.75 -22.0 -28.35 -24.2 -28.35 L-35.55 -28.35 Q-37.75 -28.35 -39.3 -26.75 -40.9 -25.25 -40.9 -23.15 L-40.9 -21.15 M-35.55 -27.85 L-24.2 -27.85 Q-22.2 -27.85 -20.75 -26.4 -19.35 -25.05 -19.35 -23.15 L-19.35 -21.15 Q-19.35 -18.4 -21.35 -16.4 -23.4 -14.5 -26.25 -14.5 L-33.5 -14.5 Q-36.35 -14.5 -38.35 -16.4 -40.4 -18.4 -40.4 -21.15 L-40.4 -23.15 Q-40.4 -25.05 -38.95 -26.4 -37.55 -27.85 -35.55 -27.85 M-35.55 -27.35 Q-37.35 -27.35 -38.6 -26.05 -39.9 -24.85 -39.9 -23.15 L-39.9 -21.15 Q-39.9 -18.6 -38.0 -16.75 L-38.0 -16.8 Q-36.15 -15.0 -33.5 -15.0 L-26.25 -15.0 Q-23.6 -15.0 -21.7 -16.8 L-21.7 -16.75 Q-19.85 -18.6 -19.85 -21.15 L-19.85 -23.15 Q-19.85 -24.85 -21.1 -26.05 -22.4 -27.35 -24.2 -27.35 L-35.55 -27.35" fill="#8a8a8a" fill-rule="evenodd" stroke="none"/>
  </g>
</svg>
