<?xml version="1.0" encoding="UTF-8" standalone="no"?>
<svg xmlns:ffdec="https://www.free-decompiler.com/flash" xmlns:xlink="http://www.w3.org/1999/xlink" ffdec:objectType="shape" height="14.25px" width="31.0px" xmlns="http://www.w3.org/2000/svg">
  <g transform="matrix(1.0, 0.0, 0.0, 1.0, -12.8, 32.8)">
    <path d="M15.2 -24.85 L15.35 -24.85 43.05 -32.0 43.05 -31.25 15.35 -24.3 15.15 -24.3 14.9 -24.15 14.65 -23.95 14.25 -23.1 Q13.75 -21.6 14.7 -19.65 L14.75 -19.5 14.55 -19.3 14.45 -19.3 Q14.3 -19.35 14.25 -19.45 12.85 -22.35 14.35 -24.5 L14.5 -24.65 14.5 -24.6 15.2 -24.85" fill="#e0e0e0" fill-rule="evenodd" stroke="none"/>
    <path d="M15.2 -24.85 L14.5 -24.6 14.5 -24.65 14.35 -24.5 Q12.85 -22.35 14.25 -19.45 14.3 -19.35 14.45 -19.3 L14.55 -19.3 14.75 -19.5 14.7 -19.65 Q13.75 -21.6 14.25 -23.1 L14.65 -23.95 14.9 -24.15 15.15 -24.3 15.35 -24.3 43.05 -31.25 43.05 -32.0 15.35 -24.85 15.2 -24.85 M15.35 -25.7 L43.8 -32.8 43.8 -30.8 15.35 -23.55 15.2 -23.35 15.0 -22.9 Q14.6 -21.6 15.4 -20.0 15.6 -19.6 15.45 -19.2 L14.95 -18.65 14.15 -18.6 13.6 -19.1 Q11.95 -22.45 13.75 -24.95 L14.3 -25.35 15.35 -25.7" fill="#8a8a8a" fill-rule="evenodd" stroke="none"/>
  </g>
</svg>
