<?xml version="1.0" encoding="UTF-8" standalone="no"?>
<svg xmlns:ffdec="https://www.free-decompiler.com/flash" xmlns:xlink="http://www.w3.org/1999/xlink" ffdec:objectType="shape" height="31.4px" width="23.1px" xmlns="http://www.w3.org/2000/svg">
  <g transform="matrix(1.0, 0.0, 0.0, 1.0, 12.45, 134.65)">
    <path d="M-5.95 -131.5 Q-7.3 -128.95 -7.0 -125.6 -6.8 -123.4 -5.8 -122.4 L-6.45 -120.9 Q-5.7 -120.15 -4.65 -120.0 L-4.05 -119.95 -3.55 -119.95 -3.45 -119.95 -2.85 -120.0 1.7 -121.95 3.9 -123.95 4.0 -124.0 6.85 -127.75 5.7 -129.55 Q5.95 -130.75 5.7 -131.7 5.55 -132.5 5.0 -133.15 L7.0 -131.55 Q8.45 -130.0 9.85 -127.35 L8.1 -124.7 7.35 -126.65 Q6.5 -125.3 4.55 -123.5 L3.9 -122.9 1.3 -120.85 Q-1.15 -119.25 -3.25 -119.0 L-4.0 -118.95 -4.9 -119.0 Q-6.05 -119.2 -6.9 -119.8 -8.4 -116.0 -9.65 -110.85 L-10.75 -114.45 -11.75 -117.3 -11.75 -117.35 -11.05 -120.55 Q-9.35 -127.6 -7.0 -130.8 L-5.95 -132.0 -5.95 -131.5" fill="#8a8a8a" fill-rule="evenodd" stroke="none"/>
    <path d="M-5.8 -122.4 L-5.5 -122.15 Q-4.95 -121.65 -4.15 -121.55 L-4.65 -120.0 Q-5.7 -120.15 -6.45 -120.9 L-5.8 -122.4 M2.85 -124.85 L4.75 -127.45 5.7 -129.55 6.85 -127.75 4.0 -124.0 2.85 -124.85 M8.1 -124.7 L6.05 -121.65 4.55 -123.5 Q6.5 -125.3 7.35 -126.65 L8.1 -124.7 M-6.0 -104.1 L-6.7 -103.25 -9.0 -108.55 -9.05 -108.65 -9.65 -110.85 Q-8.4 -116.0 -6.9 -119.8 -6.05 -119.2 -4.9 -119.0 L-5.2 -118.05 Q-7.35 -110.35 -7.35 -105.1 -7.35 -104.6 -6.0 -104.1" fill="#b4b4b4" fill-rule="evenodd" stroke="none"/>
    <path d="M-4.15 -121.55 L-2.45 -121.65 -2.0 -121.75 Q-0.4 -122.2 1.05 -123.25 L2.85 -124.85 4.0 -124.0 3.9 -123.95 1.7 -121.95 -2.85 -120.0 -3.45 -119.95 -3.55 -119.95 -4.05 -119.95 -4.65 -120.0 -4.15 -121.55 M6.05 -121.65 L3.45 -117.7 2.85 -119.0 Q2.15 -120.3 1.3 -120.85 L3.9 -122.9 4.55 -123.5 6.05 -121.65 M-3.2 -107.65 L-3.3 -107.5 -3.4 -107.4 -6.0 -104.1 Q-7.35 -104.6 -7.35 -105.1 -7.35 -110.35 -5.2 -118.05 L-4.9 -119.0 -4.0 -118.95 -3.25 -119.0 Q-4.5 -116.7 -4.5 -113.4 -4.5 -110.1 -3.25 -107.75 L-3.2 -107.65" fill="#e0e0e0" fill-rule="evenodd" stroke="none"/>
    <path d="M3.45 -117.7 L-3.2 -107.65 -3.25 -107.75 Q-4.5 -110.1 -4.5 -113.4 -4.5 -116.7 -3.25 -119.0 -1.15 -119.25 1.3 -120.85 2.15 -120.3 2.85 -119.0 L3.45 -117.7" fill="#ffffff" fill-rule="evenodd" stroke="none"/>
    <path d="M-5.95 -131.5 L-5.85 -128.65 -5.7 -128.0 -5.75 -125.7 Q-5.65 -124.4 -5.15 -123.65 L-4.75 -123.15 Q-4.3 -122.85 -3.65 -122.8 L-2.35 -122.95 Q-0.1 -123.6 1.75 -125.5 L3.7 -128.1 3.65 -128.1 Q4.35 -129.3 4.5 -130.3 L4.65 -130.75 4.9 -133.65 4.9 -134.65 Q6.45 -133.85 7.7 -132.5 9.3 -130.8 10.65 -128.55 L9.85 -127.35 Q8.45 -130.0 7.0 -131.55 L5.0 -133.15 Q5.55 -132.5 5.7 -131.7 5.95 -130.75 5.7 -129.55 L4.75 -127.45 2.85 -124.85 1.05 -123.25 Q-0.4 -122.2 -2.0 -121.75 L-2.45 -121.65 -4.15 -121.55 Q-4.95 -121.65 -5.5 -122.15 L-5.8 -122.4 Q-6.8 -123.4 -7.0 -125.6 -7.3 -128.95 -5.95 -131.5 M-11.75 -117.35 L-12.45 -118.15 Q-10.95 -125.7 -9.8 -128.55 -8.3 -132.25 -5.95 -134.05 L-5.9 -133.5 -5.95 -132.2 -5.95 -132.0 -7.0 -130.8 Q-9.35 -127.6 -11.05 -120.55 L-11.75 -117.35" fill="#464646" fill-rule="evenodd" stroke="none"/>
  </g>
</svg>
