<?xml version="1.0" encoding="UTF-8" standalone="no"?>
<svg xmlns:ffdec="https://www.free-decompiler.com/flash" xmlns:xlink="http://www.w3.org/1999/xlink" ffdec:objectType="shape" height="100.8px" width="86.35px" xmlns="http://www.w3.org/2000/svg">
  <g transform="matrix(1.0, 0.0, 0.0, 1.0, -22.05, 47.9)">
    <path d="M84.0 -33.55 L83.5 -34.85 83.45 -34.9 83.35 -35.05 Q79.5 -41.25 74.2 -43.9 L74.2 -43.95 73.5 -44.25 72.4 -44.7 72.2 -44.8 72.45 -44.5 72.6 -44.3 73.45 -43.3 73.35 -43.4 Q75.7 -40.3 76.7 -36.8 77.9 -32.5 77.0 -27.55 80.5 -20.4 88.2 -17.85 92.6 -20.8 97.1 -20.5 L98.9 -20.3 Q102.3 -19.65 105.8 -17.1 L105.85 -17.05 106.3 -16.75 106.25 -16.9 106.2 -17.05 105.7 -18.25 104.2 -20.95 104.25 -20.9 103.8 -21.55 102.4 -23.05 102.3 -23.15 102.2 -23.25 98.75 -25.5 96.0 -26.45 Q94.05 -23.2 89.05 -20.6 L89.65 -21.15 89.75 -21.2 Q93.05 -24.1 94.0 -25.9 L95.0 -27.75 Q96.9 -31.15 97.75 -34.45 L97.8 -34.65 98.15 -36.45 98.35 -38.3 98.35 -38.35 98.25 -41.8 Q96.55 -36.95 92.9 -33.4 L92.8 -33.3 91.8 -32.4 91.5 -32.15 90.5 -31.4 Q89.55 -30.75 88.35 -30.6 L88.15 -30.6 88.05 -30.6 87.95 -30.6 Q88.5 -30.85 89.2 -32.7 L89.2 -32.8 Q89.4 -38.75 86.85 -44.25 L86.15 -39.7 84.9 -35.3 85.05 -35.05 85.1 -34.9 85.15 -34.8 Q85.95 -32.75 86.1 -30.35 86.25 -28.1 85.85 -25.5 L85.8 -26.0 85.75 -26.15 Q85.2 -30.5 84.0 -33.55 M69.2 -45.7 L69.0 -46.1 69.05 -46.55 69.4 -46.9 69.85 -46.95 Q78.2 -45.35 83.9 -37.0 85.55 -42.3 85.45 -47.1 85.45 -47.4 85.6 -47.6 85.75 -47.8 86.0 -47.85 L86.5 -47.85 86.85 -47.5 Q90.7 -40.95 90.7 -33.85 96.25 -38.1 97.65 -45.35 L97.85 -45.8 98.35 -46.0 98.8 -45.85 99.1 -45.45 Q101.45 -36.65 96.75 -27.8 105.95 -25.35 108.4 -14.8 L108.35 -14.35 108.05 -14.0 107.6 -13.9 107.15 -14.1 Q97.75 -22.5 88.75 -16.4 L88.4 -16.3 88.1 -16.3 Q79.4 -19.05 75.55 -27.1 L75.5 -27.6 Q77.55 -38.1 69.2 -45.7" fill="#213021" fill-rule="evenodd" stroke="none"/>
    <path d="M84.0 -33.55 Q85.2 -30.5 85.75 -26.15 L85.25 -23.45 85.1 -23.1 84.55 -22.1 Q84.0 -22.1 82.6 -24.95 81.3 -27.55 81.3 -27.85 L78.8 -33.7 77.6 -36.65 76.1 -39.45 74.2 -42.3 73.45 -43.3 72.6 -44.3 73.45 -43.8 Q75.6 -42.35 78.5 -38.6 81.95 -33.85 83.15 -27.9 L83.15 -27.85 Q83.35 -26.25 83.65 -26.25 L83.9 -26.4 83.9 -31.3 84.05 -32.7 84.0 -33.55 M86.15 -39.7 L86.85 -44.25 Q89.4 -38.75 89.2 -32.8 L88.8 -32.45 Q88.2 -31.9 88.1 -31.9 L86.8 -37.55 86.15 -39.7 M88.35 -30.6 Q89.55 -30.75 90.5 -31.4 L91.5 -32.15 91.4 -32.05 89.5 -29.65 88.2 -28.25 88.3 -28.05 88.65 -28.05 91.05 -29.15 93.45 -30.5 93.45 -30.45 92.2 -28.15 Q90.45 -26.0 90.45 -25.75 L90.5 -25.6 90.7 -25.5 92.15 -26.75 93.8 -28.3 95.65 -30.7 97.0 -32.95 97.75 -34.45 Q96.9 -31.15 95.0 -27.75 L94.0 -25.9 Q93.05 -24.1 89.75 -21.2 L89.65 -21.15 89.35 -21.3 88.25 -21.0 87.85 -21.0 Q86.8 -21.15 86.4 -21.85 L86.05 -23.0 85.95 -23.95 85.95 -23.9 85.85 -23.6 86.0 -24.25 86.65 -26.85 Q87.1 -28.25 88.35 -30.6 M89.05 -20.6 Q94.05 -23.2 96.0 -26.45 L98.75 -25.5 98.2 -25.7 98.1 -25.6 97.7 -25.05 97.4 -24.85 96.5 -24.15 95.3 -23.6 Q94.65 -23.35 94.5 -23.1 L94.1 -22.95 Q93.2 -22.5 93.2 -22.3 L93.4 -22.05 Q93.7 -22.05 94.4 -22.35 L96.95 -22.65 98.6 -22.65 Q101.5 -21.45 103.45 -19.85 L105.8 -17.1 Q102.3 -19.65 98.9 -20.3 97.15 -21.4 95.8 -21.4 L94.0 -21.5 92.8 -21.25 92.3 -21.2 89.4 -20.7 89.05 -20.6" fill="#385339" fill-rule="evenodd" stroke="none"/>
    <path d="M72.6 -44.3 L72.45 -44.5 72.2 -44.8 72.4 -44.7 73.5 -44.25 74.2 -43.95 74.2 -43.9 Q79.5 -41.25 83.35 -35.05 L83.45 -34.9 83.5 -34.85 84.0 -33.55 84.05 -32.7 83.9 -31.3 83.9 -26.4 83.65 -26.25 Q83.35 -26.25 83.15 -27.85 L83.15 -27.9 Q81.95 -33.85 78.5 -38.6 75.6 -42.35 73.45 -43.8 L72.6 -44.3 M91.5 -32.15 L91.8 -32.4 92.8 -33.3 92.9 -33.4 Q96.55 -36.95 98.25 -41.8 L98.35 -38.35 98.35 -38.3 98.15 -36.45 97.8 -34.65 97.75 -34.45 97.0 -32.95 95.65 -30.7 93.8 -28.3 92.15 -26.75 90.7 -25.5 90.5 -25.6 90.45 -25.75 Q90.45 -26.0 92.2 -28.15 L93.45 -30.45 93.45 -30.5 91.05 -29.15 88.65 -28.05 88.3 -28.05 88.2 -28.25 89.5 -29.65 91.4 -32.05 91.5 -32.15 M98.75 -25.5 L102.2 -23.25 102.3 -23.15 102.4 -23.05 103.8 -21.55 104.25 -20.9 104.2 -20.95 105.7 -18.25 106.2 -17.05 106.25 -16.9 106.3 -16.75 105.85 -17.05 105.8 -17.1 103.45 -19.85 Q101.5 -21.45 98.6 -22.65 L96.95 -22.65 94.4 -22.35 Q93.7 -22.05 93.4 -22.05 L93.2 -22.3 Q93.2 -22.5 94.1 -22.95 L94.5 -23.1 Q94.65 -23.35 95.3 -23.6 L96.5 -24.15 97.4 -24.85 97.7 -25.05 98.1 -25.6 98.2 -25.7 98.75 -25.5" fill="#5c815c" fill-rule="evenodd" stroke="none"/>
    <path d="M85.75 -26.15 L85.8 -26.0 85.85 -25.5 Q86.25 -28.1 86.1 -30.35 85.95 -32.75 85.15 -34.8 L85.1 -34.9 85.05 -35.05 84.9 -35.3 86.15 -39.7 86.8 -37.55 88.1 -31.9 Q88.2 -31.9 88.8 -32.45 L89.2 -32.8 89.2 -32.7 Q88.5 -30.85 87.95 -30.6 L88.05 -30.6 88.15 -30.6 88.35 -30.6 Q87.1 -28.25 86.65 -26.85 L86.0 -24.25 85.85 -23.6 85.95 -23.9 85.95 -23.95 86.05 -23.0 86.4 -21.85 Q86.8 -21.15 87.85 -21.0 L88.25 -21.0 89.35 -21.3 89.65 -21.15 89.05 -20.6 89.4 -20.7 92.3 -21.2 92.8 -21.25 94.0 -21.5 95.8 -21.4 Q97.15 -21.4 98.9 -20.3 L97.1 -20.5 Q92.6 -20.8 88.2 -17.85 80.5 -20.4 77.0 -27.55 77.9 -32.5 76.7 -36.8 75.7 -40.3 73.35 -43.4 L73.45 -43.3 74.2 -42.3 76.1 -39.45 77.6 -36.65 78.8 -33.7 81.3 -27.85 Q81.3 -27.55 82.6 -24.95 84.0 -22.1 84.55 -22.1 L85.1 -23.1 85.25 -23.45 85.75 -26.15" fill="#2c432d" fill-rule="evenodd" stroke="none"/>
    <path d="M33.35 21.0 L30.2 21.15 25.85 21.75 25.6 20.05 33.15 17.95 33.35 21.0 M26.45 27.4 L30.05 26.85 30.05 27.7 29.95 27.75 Q29.3 27.75 28.8 28.25 28.35 28.75 28.35 29.4 28.3 30.05 28.85 30.55 29.4 31.05 30.1 31.05 L30.7 30.9 30.3 31.05 30.3 32.05 Q30.3 34.45 29.9 37.2 L29.55 37.2 Q28.85 37.2 28.4 37.6 28.0 38.15 28.05 38.8 28.0 39.5 28.5 39.95 L29.3 40.5 28.15 44.8 27.95 45.6 27.85 45.55 Q27.2 45.6 26.7 46.05 26.3 46.55 26.3 47.15 26.3 47.85 26.75 48.35 L27.1 48.65 26.3 51.15 26.15 51.1 Q22.55 49.95 24.0 44.7 27.15 38.05 26.45 27.4 M27.5 30.95 Q27.0 31.4 27.1 32.7 L27.25 35.0 26.55 39.15 25.3 43.35 Q24.35 46.3 24.35 47.7 L24.4 48.45 Q24.55 49.1 25.15 49.1 L25.55 48.95 25.65 48.55 Q25.6 46.5 26.75 42.05 28.0 37.4 28.0 36.2 L28.15 33.15 28.1 32.0 Q28.0 31.3 27.5 30.95" fill="#6d4521" fill-rule="evenodd" stroke="none"/>
    <path d="M25.85 21.75 L30.2 21.15 33.35 21.0 33.55 26.35 Q33.85 40.85 31.85 46.8 L31.8 46.85 Q30.65 51.1 27.5 51.25 L26.8 51.25 26.3 51.15 27.1 48.65 27.95 48.75 28.4 48.8 29.05 48.3 29.1 48.25 Q29.6 47.75 29.5 47.1 29.55 46.5 29.05 46.0 L29.0 45.95 Q28.55 45.55 27.95 45.6 L28.15 44.8 29.3 40.5 29.4 40.45 29.6 40.45 Q30.3 40.45 30.7 39.9 L30.75 39.85 30.85 39.8 Q31.25 39.4 31.25 38.75 L31.05 38.1 30.65 37.6 30.65 37.55 30.6 37.5 30.3 37.3 29.9 37.2 Q30.3 34.45 30.3 32.05 L30.3 31.05 30.7 30.9 31.05 30.6 31.15 30.5 31.2 30.5 31.5 30.15 31.65 29.65 31.65 29.7 31.7 29.3 31.55 28.7 31.1 28.2 Q30.65 27.7 30.05 27.7 L30.05 26.85 26.45 27.4 26.45 27.25 25.85 21.75" fill="#5b391b" fill-rule="evenodd" stroke="none"/>
    <path d="M33.7 16.4 L34.15 16.3 34.5 16.55 34.6 17.0 Q35.95 39.5 33.2 47.3 L33.3 47.25 Q31.35 54.0 25.75 52.65 L25.7 52.6 Q20.65 51.2 22.55 44.3 L22.65 44.1 Q26.7 35.45 23.9 19.6 23.85 19.3 24.1 19.1 L24.55 18.7 33.7 16.4 M33.35 21.0 L33.15 17.95 25.6 20.05 25.85 21.75 26.45 27.25 26.45 27.4 Q27.15 38.05 24.0 44.7 22.55 49.95 26.15 51.1 L26.3 51.15 26.8 51.25 27.5 51.25 Q30.65 51.1 31.8 46.85 L31.85 46.8 Q33.85 40.85 33.55 26.35 L33.35 21.0" fill="#35210e" fill-rule="evenodd" stroke="none"/>
    <path d="M30.05 27.7 Q30.65 27.7 31.1 28.2 L31.55 28.7 31.7 29.3 31.65 29.7 31.65 29.65 31.5 30.15 31.2 30.5 31.15 30.5 31.05 30.6 30.7 30.9 30.1 31.05 Q29.4 31.05 28.85 30.55 28.3 30.05 28.35 29.4 28.35 28.75 28.8 28.25 29.3 27.75 29.95 27.75 L30.05 27.7 M29.9 37.2 L30.3 37.3 30.6 37.5 30.65 37.55 30.65 37.6 31.05 38.1 31.25 38.75 Q31.25 39.4 30.85 39.8 L30.75 39.85 30.7 39.9 Q30.3 40.45 29.6 40.45 L29.4 40.45 29.3 40.5 28.5 39.95 Q28.0 39.5 28.05 38.8 28.0 38.15 28.4 37.6 28.85 37.2 29.55 37.2 L29.9 37.2 M27.95 45.6 Q28.55 45.55 29.0 45.95 L29.05 46.0 Q29.55 46.5 29.5 47.1 29.6 47.75 29.1 48.25 L29.05 48.3 28.4 48.8 27.95 48.75 27.1 48.65 26.75 48.35 Q26.3 47.85 26.3 47.15 26.3 46.55 26.7 46.05 27.2 45.6 27.85 45.55 L27.95 45.6 M30.9 29.3 L30.55 28.75 Q30.4 28.45 30.0 28.55 29.6 28.45 29.4 28.7 L29.35 28.8 Q29.1 29.0 29.2 29.35 29.15 29.75 29.4 29.95 29.65 30.2 30.05 30.25 30.4 30.2 30.6 29.9 L30.9 29.3 M30.55 38.75 L30.2 38.15 Q29.9 37.95 29.55 37.9 29.2 37.9 28.95 38.15 L28.9 38.2 Q28.7 38.45 28.75 38.85 L29.0 39.45 Q29.25 39.75 29.6 39.7 L30.2 39.45 30.55 38.75 M28.75 47.1 L28.5 46.5 Q28.3 46.3 27.85 46.25 27.5 46.25 27.3 46.55 L27.25 46.55 Q27.0 46.8 27.05 47.15 L27.35 47.8 27.95 48.05 Q28.35 48.0 28.55 47.75 L28.75 47.1" fill="#412913" fill-rule="evenodd" stroke="none"/>
    <path d="M27.5 30.95 Q28.0 31.3 28.1 32.0 L28.15 33.15 28.0 36.2 Q28.0 37.4 26.75 42.05 25.6 46.5 25.65 48.55 L25.55 48.95 25.15 49.1 Q24.55 49.1 24.4 48.45 L24.35 47.7 Q24.35 46.3 25.3 43.35 L26.55 39.15 27.25 35.0 27.1 32.7 Q27.0 31.4 27.5 30.95" fill="#855529" fill-rule="evenodd" stroke="none"/>
    <path d="M30.9 29.3 L30.6 29.9 Q30.4 30.2 30.05 30.25 29.65 30.2 29.4 29.95 29.15 29.75 29.2 29.35 29.1 29.0 29.35 28.8 L29.4 28.7 Q29.6 28.45 30.0 28.55 30.4 28.45 30.55 28.75 L30.9 29.3 M30.55 38.75 L30.2 39.45 29.6 39.7 Q29.25 39.75 29.0 39.45 L28.75 38.85 Q28.7 38.45 28.9 38.2 L28.95 38.15 Q29.2 37.9 29.55 37.9 29.9 37.95 30.2 38.15 L30.55 38.75 M28.75 47.1 L28.55 47.75 Q28.35 48.0 27.95 48.05 L27.35 47.8 27.05 47.15 Q27.0 46.8 27.25 46.55 L27.3 46.55 Q27.5 46.25 27.85 46.25 28.3 46.3 28.5 46.5 L28.75 47.1" fill="#170f07" fill-rule="evenodd" stroke="none"/>
  </g>
</svg>
