<?xml version="1.0" encoding="UTF-8" standalone="no"?>
<svg xmlns:ffdec="https://www.free-decompiler.com/flash" xmlns:xlink="http://www.w3.org/1999/xlink" ffdec:objectType="shape" height="25.0px" width="227.0px" xmlns="http://www.w3.org/2000/svg">
  <g transform="matrix(1.0, 0.0, 0.0, 1.0, 0.5, 0.5)">
    <path d="M2.15 18.0 Q0.5 15.3 0.5 12.0 0.5 7.25 3.85 3.85 7.25 0.5 12.0 0.5 L214.0 0.5 Q218.75 0.5 222.1 3.85 L222.45 4.2 Q219.45 2.0 215.5 2.0 L13.5 2.0 Q8.55 2.0 5.0 5.5 1.5 9.05 1.5 14.0 1.5 16.1 2.15 18.0" fill="#cacaca" fill-rule="evenodd" stroke="none"/>
    <path d="M222.45 4.2 L224.0 6.2 Q225.5 8.8 225.5 12.0 225.5 16.75 222.1 20.1 218.75 23.5 214.0 23.5 L12.0 23.5 Q7.25 23.5 3.85 20.1 L3.5 19.75 3.45 19.7 2.15 18.0 Q1.5 16.1 1.5 14.0 1.5 9.05 5.0 5.5 8.55 2.0 13.5 2.0 L215.5 2.0 Q219.45 2.0 222.45 4.2" fill="#dcdcdc" fill-rule="evenodd" stroke="none"/>
    <path d="M-0.5 12.0 Q-0.5 6.85 3.15 3.15 6.85 -0.5 12.0 -0.5 L214.0 -0.5 Q219.15 -0.5 222.8 3.15 224.0 4.35 224.85 5.7 226.5 8.5 226.5 12.0 226.5 17.15 222.8 20.8 219.15 24.5 214.0 24.5 L12.0 24.5 Q6.85 24.5 3.15 20.8 L2.75 20.4 Q-0.5 16.85 -0.5 12.0 M2.15 18.0 L3.45 19.7 3.5 19.75 3.85 20.1 Q7.25 23.5 12.0 23.5 L214.0 23.5 Q218.75 23.5 222.1 20.1 225.5 16.75 225.5 12.0 225.5 8.8 224.0 6.2 L222.45 4.2 222.1 3.85 Q218.75 0.5 214.0 0.5 L12.0 0.5 Q7.25 0.5 3.85 3.85 0.5 7.25 0.5 12.0 0.5 15.3 2.15 18.0" fill="#313131" fill-rule="evenodd" stroke="none"/>
    <path d="M193.0 0.5 L193.0 -0.5 214.0 -0.5 Q219.15 -0.5 222.8 3.15 224.0 4.35 224.85 5.7 226.35 8.3 226.5 11.5 L226.5 12.0 Q226.5 17.15 222.8 20.8 219.15 24.5 214.0 24.5 L193.0 24.5 193.0 23.5 194.0 23.5 214.0 23.5 Q218.75 23.5 222.1 20.1 225.5 16.75 225.5 12.0 L225.5 11.5 Q225.4 8.6 224.0 6.2 L222.45 4.2 222.1 3.85 Q218.75 0.5 214.0 0.5 L194.0 0.5 193.0 0.5" fill="#313131" fill-rule="evenodd" stroke="none"/>
    <path d="M193.0 0.5 L194.0 0.5 194.0 11.5 194.0 23.5 193.0 23.5 193.0 2.0 193.0 0.5" fill="#a4a4a4" fill-rule="evenodd" stroke="none"/>
    <path d="M193.0 2.0 L193.0 23.5 192.0 23.5 192.0 2.0 193.0 2.0" fill="#d4d4d4" fill-rule="evenodd" stroke="none"/>
    <path d="M194.0 0.5 L214.0 0.5 Q218.75 0.5 222.1 3.85 L222.45 4.2 224.0 6.2 Q225.4 8.6 225.5 11.5 L194.0 11.5 194.0 0.5" fill="#eaeaea" fill-rule="evenodd" stroke="none"/>
    <path d="M225.5 11.5 L225.5 12.0 Q225.5 16.75 222.1 20.1 218.75 23.5 214.0 23.5 L194.0 23.5 194.0 11.5 225.5 11.5" fill="#d8d8d8" fill-rule="evenodd" stroke="none"/>
    <path d="M207.2 19.25 L207.05 19.0 206.9 18.75 201.05 8.55 200.6 7.75 200.55 7.4 200.65 7.2 Q200.8 7.05 201.0 7.05 L214.3 7.05 214.55 7.2 214.75 7.45 214.65 7.75 214.6 7.85 207.95 19.25 207.75 19.5 207.65 19.55 207.4 19.5 207.2 19.25 M207.65 7.95 L201.75 7.95 207.6 18.2 207.65 18.15 213.55 7.95 207.65 7.95" fill="#000000" fill-rule="evenodd" stroke="none"/>
    <path d="M207.65 18.15 L207.6 18.2 201.75 7.95 207.65 7.95 207.65 18.15" fill="#dbb300" fill-rule="evenodd" stroke="none"/>
    <path d="M207.65 7.95 L213.55 7.95 207.65 18.15 207.65 7.95" fill="#f7ca00" fill-rule="evenodd" stroke="none"/>
    <path d="M207.2 19.25 L207.4 19.5 207.65 19.55 207.75 19.5 207.95 19.25 214.6 7.85 214.75 7.85 215.0 8.0 215.2 8.25 215.1 8.55 208.4 20.05 208.2 20.3 208.1 20.35 207.85 20.3 207.65 20.05 207.2 19.25" fill="#a4a4a4" fill-rule="evenodd" stroke="none"/>
  </g>
</svg>
