<?xml version="1.0" encoding="UTF-8" standalone="no"?>
<svg xmlns:ffdec="https://www.free-decompiler.com/flash" xmlns:xlink="http://www.w3.org/1999/xlink" ffdec:objectType="shape" height="103.55px" width="94.15px" xmlns="http://www.w3.org/2000/svg">
  <g transform="matrix(1.0, 0.0, 0.0, 1.0, -11.2, -8.25)">
    <path d="M27.55 108.25 L23.9 109.6 Q26.4 107.8 28.65 100.6 30.8 93.85 30.4 90.9 34.0 79.3 35.15 77.05 38.0 71.55 45.05 67.1 L45.1 66.85 45.15 67.35 Q45.15 68.8 44.1 70.0 L41.6 72.45 Q37.4 76.75 35.4 84.85 34.35 89.3 33.45 97.1 32.1 103.65 27.55 108.25 M23.2 75.95 Q21.9 80.2 21.7 81.6 L21.3 83.75 21.1 80.7 Q21.1 76.9 24.1 66.95 25.85 64.05 28.65 60.1 33.1 53.85 37.25 49.25 L37.65 49.2 37.75 49.75 36.3 52.9 Q34.65 56.4 33.05 58.95 L26.5 68.15 Q23.7 71.95 23.2 75.95 M12.7 60.35 Q14.45 51.9 16.35 49.15 L23.4 41.1 28.5 37.75 28.7 38.0 29.0 38.65 Q18.5 49.95 16.65 52.55 15.95 53.5 12.7 60.35" fill="#31251c" fill-rule="evenodd" stroke="none"/>
    <path d="M96.45 8.25 Q101.3 19.2 102.65 25.45 103.85 31.0 103.85 41.0 103.85 49.7 101.1 57.2 98.3 64.65 93.05 70.3 L95.6 60.5 Q97.1 54.45 97.1 47.05 97.1 42.05 94.0 30.6 90.85 19.15 90.85 18.15 90.95 15.9 91.2 13.75 91.8 9.55 92.75 9.85 L93.75 8.25 96.45 8.25 M61.55 8.25 Q84.0 25.2 86.7 27.7 L87.3 28.05 88.4 28.9 Q89.25 29.65 90.85 30.0 92.05 30.2 92.55 31.55 93.45 33.9 94.55 40.05 L95.6 47.05 Q95.6 61.3 87.75 69.7 81.9 75.95 71.5 79.05 L56.8 82.25 Q48.4 84.6 43.2 91.0 L40.2 95.85 36.35 101.8 Q31.35 107.0 27.55 108.25 32.1 103.65 33.45 97.1 34.35 89.3 35.4 84.85 37.4 76.75 41.6 72.45 L44.1 70.0 Q45.15 68.8 45.15 67.35 L45.1 66.85 45.05 67.1 Q38.0 71.55 35.15 77.05 34.0 79.3 30.4 90.9 31.0 84.0 31.65 80.45 32.45 76.1 33.9 73.75 L37.85 64.8 Q41.1 57.85 45.75 53.9 47.4 52.5 49.3 49.0 L51.5 44.15 55.25 35.0 Q56.2 32.8 56.2 30.25 L56.05 29.45 55.7 29.3 Q55.1 29.85 51.6 39.6 48.05 49.45 44.65 52.85 L38.0 58.7 33.05 62.45 Q28.15 66.45 23.2 75.95 23.7 71.95 26.5 68.15 L33.05 58.95 Q34.65 56.4 36.3 52.9 L37.75 49.75 37.65 49.2 37.25 49.25 Q33.1 53.85 28.65 60.1 25.85 64.05 24.1 66.95 25.8 61.55 30.3 53.7 L35.05 45.8 Q37.75 40.15 40.5 36.2 L43.8 31.65 43.75 31.1 43.0 30.95 Q42.4 30.95 42.15 31.35 L40.7 33.45 40.55 33.6 Q40.35 33.25 39.3 34.05 L36.2 36.3 Q28.05 41.55 21.4 48.85 14.35 56.6 13.05 62.3 L12.7 60.35 Q15.95 53.5 16.65 52.55 18.5 49.95 29.0 38.65 L28.7 38.0 28.5 37.75 23.4 41.1 Q33.4 30.55 35.7 26.95 41.3 18.2 39.95 8.25 L61.55 8.25" fill="#231b16" fill-rule="evenodd" stroke="none"/>
    <path d="M96.45 8.25 L98.15 8.25 Q102.3 16.25 104.0 24.35 105.35 31.05 105.35 41.0 105.35 50.75 101.95 58.5 99.3 64.35 91.8 74.55 L91.4 74.85 90.9 74.8 90.55 74.4 90.5 73.9 92.9 65.1 88.95 70.35 Q84.05 76.1 77.55 78.6 71.15 81.05 58.65 83.5 46.55 85.8 41.25 96.9 35.65 108.6 21.55 111.8 L21.05 111.75 20.7 111.4 20.65 110.9 20.85 110.5 Q28.1 104.05 28.8 92.2 29.5 79.75 31.9 74.5 33.85 70.05 38.45 60.45 L37.95 60.85 37.2 61.4 Q32.05 65.4 29.9 67.6 25.6 71.9 23.6 79.85 22.6 83.6 22.5 87.9 L22.35 88.35 21.95 88.6 21.45 88.55 21.1 88.2 Q19.6 85.35 19.6 80.7 19.6 76.15 21.95 68.7 24.2 61.25 28.45 54.25 L28.45 54.3 Q32.6 47.4 35.0 42.5 36.55 39.25 38.45 36.45 L32.75 40.6 32.75 40.65 Q25.5 45.7 20.8 51.35 16.05 56.9 13.6 65.45 L13.3 65.85 12.85 66.0 12.4 65.85 12.15 65.4 Q11.2 60.85 11.2 60.3 11.2 54.0 15.65 47.7 17.9 44.45 25.2 37.1 31.75 30.4 34.55 26.0 38.65 19.35 38.65 12.1 L38.4 8.25 39.95 8.25 Q41.3 18.2 35.7 26.95 33.4 30.55 23.4 41.1 L16.35 49.15 Q14.45 51.9 12.7 60.35 L13.05 62.3 Q14.35 56.6 21.4 48.85 28.05 41.55 36.2 36.3 L39.3 34.05 Q40.35 33.25 40.55 33.6 L40.7 33.45 42.15 31.35 Q42.4 30.95 43.0 30.95 L43.75 31.1 43.8 31.65 40.5 36.2 Q37.75 40.15 35.05 45.8 L30.3 53.7 Q25.8 61.55 24.1 66.95 21.1 76.9 21.1 80.7 L21.3 83.75 21.7 81.6 Q21.9 80.2 23.2 75.95 28.15 66.45 33.05 62.45 L38.0 58.7 44.65 52.85 Q48.05 49.45 51.6 39.6 55.1 29.85 55.7 29.3 L56.05 29.45 56.2 30.25 Q56.2 32.8 55.25 35.0 L51.5 44.15 49.3 49.0 Q47.4 52.5 45.75 53.9 41.1 57.85 37.85 64.8 L33.9 73.75 Q32.45 76.1 31.65 80.45 31.0 84.0 30.4 90.9 30.8 93.85 28.65 100.6 26.4 107.8 23.9 109.6 L27.55 108.25 Q31.35 107.0 36.35 101.8 L40.2 95.85 43.2 91.0 Q48.4 84.6 56.8 82.25 L71.5 79.05 Q81.9 75.95 87.75 69.7 95.6 61.3 95.6 47.05 L94.55 40.05 Q93.45 33.9 92.55 31.55 92.05 30.2 90.85 30.0 89.25 29.65 88.4 28.9 L87.3 28.05 86.7 27.7 Q84.0 25.2 61.55 8.25 L93.75 8.25 92.75 9.85 Q91.8 9.55 91.2 13.75 90.95 15.9 90.85 18.15 90.85 19.15 94.0 30.6 97.1 42.05 97.1 47.05 97.1 54.45 95.6 60.5 L93.05 70.3 Q98.3 64.65 101.1 57.2 103.85 49.7 103.85 41.0 103.85 31.0 102.65 25.45 101.3 19.2 96.45 8.25" fill="#171310" fill-rule="evenodd" stroke="none"/>
  </g>
</svg>
