<?xml version="1.0" encoding="UTF-8" standalone="no"?>
<svg xmlns:ffdec="https://www.free-decompiler.com/flash" xmlns:xlink="http://www.w3.org/1999/xlink" ffdec:objectType="shape" height="125.95px" width="74.75px" xmlns="http://www.w3.org/2000/svg">
  <g transform="matrix(1.0, 0.0, 0.0, 1.0, 33.8, 135.85)">
    <path d="M6.15 -106.75 Q6.15 -105.35 3.35 -104.1 1.0 -103.05 -1.0 -102.95 L-1.45 -102.95 -2.6 -103.05 -3.05 -103.15 Q-2.95 -104.3 -1.0 -108.45 L-0.35 -109.85 Q2.15 -115.25 3.05 -116.15 6.15 -114.15 6.15 -106.75 M3.75 -82.25 L2.65 -78.7 11.6 -78.95 Q10.3 -74.75 3.55 -71.05 -1.8 -68.1 -3.5 -68.1 L-5.5 -68.3 Q-5.25 -68.7 -5.5 -69.1 -6.45 -73.2 -3.05 -78.35 0.05 -83.05 4.5 -85.55 L3.75 -82.25 M2.9 -93.4 Q2.9 -92.0 1.9 -91.0 0.9 -90.0 -0.55 -90.0 -2.0 -90.0 -3.0 -91.0 -4.0 -92.0 -4.0 -93.4 -4.0 -94.8 -3.0 -95.8 -2.0 -96.8 -0.55 -96.8 0.9 -96.8 1.9 -95.8 2.9 -94.8 2.9 -93.4 M15.45 -51.2 L16.25 -50.55 Q16.9 -49.55 16.9 -47.4 16.9 -44.85 9.85 -40.45 1.95 -35.45 -5.65 -35.45 -8.1 -36.0 -8.1 -38.45 -8.1 -40.25 -2.35 -43.5 L3.6 -46.5 11.4 -49.75 Q14.85 -51.2 15.45 -51.2 M12.85 -61.85 Q14.4 -60.8 14.4 -56.8 -2.7 -44.25 -6.65 -44.25 L-7.25 -44.25 -7.15 -44.3 -7.3 -48.4 -7.5 -51.05 Q-7.5 -53.75 -1.1 -58.25 5.05 -62.55 7.8 -62.55 11.8 -62.55 12.85 -61.85 M-1.7 -28.9 Q1.85 -31.8 5.75 -33.35 8.45 -34.45 9.95 -34.5 L11.1 -34.3 11.3 -32.4 Q11.3 -25.7 8.95 -20.75 6.6 -15.75 3.3 -15.75 0.7 -15.75 0.65 -17.05 L2.3 -25.85 Q-0.95 -22.6 -11.85 -14.9 L-11.95 -15.05 -12.0 -15.75 Q-12.0 -17.85 -9.4 -21.35 -7.3 -24.25 -4.5 -26.75 L-3.1 -27.7 -1.7 -28.9 M14.05 -30.35 L14.1 -30.2 16.15 -25.6 Q17.75 -21.05 18.35 -16.8 L18.4 -16.7 17.8 -16.65 Q16.15 -16.65 15.05 -18.4 13.3 -21.1 13.3 -27.6 13.3 -28.7 14.05 -30.35" fill="#ffffff" fill-rule="evenodd" stroke="none"/>
    <path d="M9.5 -11.5 L8.95 -11.5 Q4.8 -11.45 1.15 -11.55 -1.05 -13.1 -4.1 -17.35 -5.65 -14.1 -7.6 -12.9 L-8.9 -12.3 -14.65 -13.15 -14.65 -13.2 Q-15.25 -14.0 -15.25 -16.8 -15.25 -22.35 -12.45 -24.55 -10.25 -26.3 -4.5 -26.75 -7.3 -24.25 -9.4 -21.35 -12.0 -17.85 -12.0 -15.75 L-11.95 -15.05 -11.85 -14.9 Q-0.95 -22.6 2.3 -25.85 L0.65 -17.05 Q0.7 -15.75 3.3 -15.75 6.6 -15.75 8.95 -20.75 11.3 -25.7 11.3 -32.4 L11.1 -34.3 9.95 -34.5 Q8.45 -34.45 5.75 -33.35 1.85 -31.8 -1.7 -28.9 -1.05 -30.1 -1.05 -32.7 -0.45 -32.95 -1.45 -32.95 L-10.2 -31.6 Q-12.5 -31.6 -12.9 -33.0 L-12.9 -32.95 Q-20.55 -41.1 -21.3 -42.6 -21.85 -43.7 -21.85 -45.7 -21.85 -47.9 -19.85 -51.1 -17.4 -54.65 -4.75 -62.95 L-17.6 -63.8 -18.2 -64.95 -18.4 -66.05 Q-18.65 -67.35 -16.3 -70.3 L-13.5 -74.0 -13.45 -73.9 Q-6.15 -74.0 -14.05 -84.45 L-14.45 -85.75 -14.75 -87.35 Q-14.75 -90.05 -13.7 -92.3 -12.6 -94.55 -10.9 -95.45 -5.5 -99.5 -5.15 -103.1 -4.35 -110.85 -3.25 -115.9 L3.15 -125.35 Q4.3 -124.6 5.95 -122.25 8.95 -117.95 8.95 -112.95 8.95 -112.45 8.5 -112.6 8.0 -112.75 8.0 -112.25 8.0 -110.85 9.0 -108.35 L9.9 -108.65 Q10.35 -106.6 6.5 -103.25 3.3 -100.55 0.1 -99.05 L0.5 -98.75 Q1.7 -97.9 5.25 -97.05 9.15 -96.15 10.4 -96.4 L2.35 -89.85 Q-0.35 -87.5 -1.45 -85.7 L-1.4 -85.45 -0.75 -85.35 Q3.25 -85.35 9.5 -91.05 L8.15 -88.4 6.75 -85.65 7.15 -84.25 7.35 -83.95 8.25 -83.7 Q10.05 -83.7 11.3 -84.65 L13.4 -86.6 13.75 -84.0 13.4 -83.95 Q13.25 -83.85 13.25 -83.25 L13.45 -80.65 Q13.75 -79.6 14.95 -79.2 L15.05 -79.4 Q15.35 -77.4 15.1 -76.55 L14.5 -76.5 14.45 -75.2 9.6 -69.55 7.35 -66.7 Q7.75 -65.85 9.15 -65.8 L15.95 -65.7 Q15.95 -65.1 16.2 -64.65 16.4 -64.2 16.75 -64.2 17.1 -64.2 17.35 -64.65 L17.55 -65.7 Q19.3 -63.45 20.8 -58.0 22.75 -50.95 22.75 -42.9 22.75 -41.15 19.9 -39.35 15.55 -36.55 14.5 -35.5 15.2 -35.1 17.7 -34.45 L20.6 -33.8 21.35 -33.65 Q26.0 -32.1 26.0 -24.0 26.0 -21.45 25.35 -18.45 24.7 -15.5 23.95 -14.6 L22.6 -14.85 22.55 -13.95 20.55 -13.65 Q19.3 -13.65 18.15 -14.15 15.55 -15.35 12.15 -16.45 L9.5 -11.5 M-21.6 -14.3 L-26.55 -15.25 -27.0 -15.8 Q-28.35 -17.75 -27.95 -20.7 -27.0 -27.8 -19.75 -30.95 L-19.75 -30.3 Q-12.35 -31.6 -21.6 -14.3 M6.15 -106.75 Q6.15 -114.15 3.05 -116.15 2.15 -115.25 -0.35 -109.85 L-1.0 -108.45 Q-2.95 -104.3 -3.05 -103.15 L-2.6 -103.05 -1.45 -102.95 -1.0 -102.95 Q1.0 -103.05 3.35 -104.1 6.15 -105.35 6.15 -106.75 M2.9 -93.4 Q2.9 -94.8 1.9 -95.8 0.9 -96.8 -0.55 -96.8 -2.0 -96.8 -3.0 -95.8 -4.0 -94.8 -4.0 -93.4 -4.0 -92.0 -3.0 -91.0 -2.0 -90.0 -0.55 -90.0 0.9 -90.0 1.9 -91.0 2.9 -92.0 2.9 -93.4 M3.75 -82.25 L4.5 -85.55 Q0.05 -83.05 -3.05 -78.35 -6.45 -73.2 -5.5 -69.1 -5.25 -68.7 -5.5 -68.3 L-3.5 -68.1 Q-1.8 -68.1 3.55 -71.05 10.3 -74.75 11.6 -78.95 L2.65 -78.7 3.75 -82.25 M18.5 -61.35 L16.95 -61.35 16.95 -56.85 18.5 -56.85 18.5 -61.35 M12.85 -61.85 Q11.8 -62.55 7.8 -62.55 5.05 -62.55 -1.1 -58.25 -7.5 -53.75 -7.5 -51.05 L-7.3 -48.4 -7.15 -44.3 -7.25 -44.25 -6.65 -44.25 Q-2.7 -44.25 14.4 -56.8 14.4 -60.8 12.85 -61.85 M15.45 -51.2 Q14.85 -51.2 11.4 -49.75 L3.6 -46.5 -2.35 -43.5 Q-8.1 -40.25 -8.1 -38.45 -8.1 -36.0 -5.65 -35.45 1.95 -35.45 9.85 -40.45 16.9 -44.85 16.9 -47.4 16.9 -49.55 16.25 -50.55 L15.45 -51.2 M20.65 -41.55 L20.65 -46.2 19.1 -46.2 19.1 -41.55 20.65 -41.55 M17.75 -51.45 Q17.75 -50.45 18.05 -49.7 18.35 -49.0 18.8 -49.0 19.25 -49.0 19.55 -49.7 L19.85 -51.45 19.55 -53.15 Q19.25 -53.9 18.8 -53.9 18.35 -53.9 18.05 -53.15 17.75 -52.45 17.75 -51.45 M21.85 -25.45 L22.65 -25.55 Q22.95 -25.75 22.95 -26.45 22.95 -27.65 21.65 -30.7 L20.85 -30.45 Q21.35 -26.85 21.85 -25.45 M14.05 -30.35 Q13.3 -28.7 13.3 -27.6 13.3 -21.1 15.05 -18.4 16.15 -16.65 17.8 -16.65 L18.4 -16.7 18.35 -16.8 Q17.75 -21.05 16.15 -25.6 L14.1 -30.2 14.05 -30.35 M23.7 -22.75 L21.95 -22.75 21.95 -17.8 23.7 -17.8 23.7 -22.75" fill="#e0e0e0" fill-rule="evenodd" stroke="none"/>
    <path d="M37.65 -15.15 L37.45 -15.1 Q34.9 -14.05 24.75 -12.6 L24.5 -13.35 23.95 -14.6 Q24.7 -15.5 25.35 -18.45 26.0 -21.45 26.0 -24.0 26.0 -32.1 21.35 -33.65 L21.4 -33.7 21.85 -33.8 21.45 -36.6 20.75 -38.5 20.15 -38.35 19.9 -37.5 Q20.05 -35.9 20.6 -33.8 L17.7 -34.45 Q15.2 -35.1 14.5 -35.5 15.55 -36.55 19.9 -39.35 22.75 -41.15 22.75 -42.9 22.75 -50.95 20.8 -58.0 19.3 -63.45 17.55 -65.7 17.65 -67.75 16.85 -68.65 16.35 -69.25 15.85 -69.25 L15.35 -69.15 15.6 -68.75 15.95 -65.7 9.15 -65.8 Q7.75 -65.85 7.35 -66.7 L9.6 -69.55 14.45 -75.2 15.2 -73.65 16.3 -71.8 16.4 -71.9 16.45 -72.55 16.05 -74.3 15.1 -76.55 Q15.35 -77.4 15.05 -79.4 15.45 -79.9 15.3 -80.9 15.1 -82.35 13.75 -84.0 L13.4 -86.6 11.3 -84.65 Q10.05 -83.7 8.25 -83.7 L7.35 -83.95 7.15 -84.25 6.75 -85.65 8.15 -88.4 9.5 -91.05 Q3.25 -85.35 -0.75 -85.35 L-1.4 -85.45 -1.45 -85.7 Q-0.35 -87.5 2.35 -89.85 L10.4 -96.4 Q9.15 -96.15 5.25 -97.05 1.7 -97.9 0.5 -98.75 L0.1 -99.05 Q3.3 -100.55 6.5 -103.25 10.35 -106.6 9.9 -108.65 L9.0 -108.35 Q8.0 -110.85 8.0 -112.25 8.0 -112.75 8.5 -112.6 8.95 -112.45 8.95 -112.95 8.95 -117.95 5.95 -122.25 4.3 -124.6 3.15 -125.35 L3.55 -126.0 Q5.5 -129.0 5.5 -131.05 8.5 -128.0 10.85 -120.1 13.25 -111.9 15.15 -98.75 L15.2 -97.85 15.2 -97.55 Q21.5 -81.35 21.5 -75.8 21.5 -75.45 20.2 -74.6 18.85 -73.2 18.85 -70.15 18.85 -69.15 19.15 -69.3 L23.95 -70.15 29.15 -51.4 Q29.95 -48.5 29.95 -46.2 29.95 -45.6 29.25 -45.35 28.5 -44.55 28.5 -41.05 28.5 -40.85 31.45 -35.9 34.55 -30.3 35.2 -26.95 L36.75 -20.5 Q37.4 -17.6 37.65 -15.15 M22.7 -12.35 L20.35 -12.05 9.5 -11.5 12.15 -16.45 Q15.55 -15.35 18.15 -14.15 19.3 -13.65 20.55 -13.65 L22.55 -13.95 22.7 -12.35 M1.15 -11.55 L-7.55 -12.1 -8.9 -12.3 -7.6 -12.9 Q-5.65 -14.1 -4.1 -17.35 -1.05 -13.1 1.15 -11.55 M-14.65 -13.15 L-18.3 -13.75 -19.55 -13.95 -19.9 -14.7 -20.0 -14.05 -21.6 -14.3 Q-12.35 -31.6 -19.75 -30.3 L-19.75 -30.95 Q-27.0 -27.8 -27.95 -20.7 -28.35 -17.75 -27.0 -15.8 L-26.55 -15.25 -28.35 -15.65 -28.9 -15.8 Q-28.3 -20.6 -27.35 -24.75 -24.9 -36.0 -19.85 -37.0 L-23.85 -40.95 Q-24.95 -42.0 -24.95 -42.65 -24.95 -46.9 -18.6 -59.6 -19.0 -60.2 -20.65 -60.6 -17.55 -71.15 -15.2 -75.8 -13.7 -78.8 -13.7 -79.1 L-15.15 -80.9 Q-16.65 -82.85 -16.65 -83.95 -16.65 -86.85 -14.65 -91.5 L-12.65 -96.45 -13.05 -97.5 -13.5 -98.6 Q-13.5 -102.95 -10.9 -111.8 -9.45 -116.75 -7.75 -120.6 -7.3 -117.4 -5.9 -113.8 L-5.85 -113.65 -5.65 -113.5 -5.2 -113.45 Q-4.95 -113.5 -4.8 -113.7 L-3.25 -115.9 Q-4.35 -110.85 -5.15 -103.1 -5.5 -99.5 -10.9 -95.45 -12.6 -94.55 -13.7 -92.3 -14.75 -90.05 -14.75 -87.35 L-14.45 -85.75 -14.05 -84.45 Q-6.15 -74.0 -13.45 -73.9 L-13.5 -74.0 -16.3 -70.3 Q-18.65 -67.35 -18.4 -66.05 L-18.2 -64.95 -17.6 -63.8 -4.75 -62.95 Q-17.4 -54.65 -19.85 -51.1 -21.85 -47.9 -21.85 -45.7 -21.85 -43.7 -21.3 -42.6 -20.55 -41.1 -12.9 -32.95 L-12.9 -33.0 Q-12.5 -31.6 -10.2 -31.6 L-1.45 -32.95 Q-0.45 -32.95 -1.05 -32.7 -1.05 -30.1 -1.7 -28.9 L-3.1 -27.7 -4.5 -26.75 Q-10.25 -26.3 -12.45 -24.55 -15.25 -22.35 -15.25 -16.8 -15.25 -14.0 -14.65 -13.2 L-14.65 -13.15 M-18.4 -11.65 L-18.35 -11.5 -18.45 -11.65 -18.4 -11.65 M11.05 -101.35 Q11.55 -101.65 11.55 -103.1 11.55 -104.3 10.75 -105.0 L9.4 -105.65 10.35 -101.25 11.05 -101.35 M11.7 -98.75 L11.65 -98.75 Q11.25 -98.75 10.95 -98.05 10.65 -97.35 10.65 -96.35 10.65 -95.35 10.95 -94.65 11.25 -93.95 11.65 -93.95 12.05 -93.95 12.35 -94.65 L12.65 -96.35 12.35 -98.05 11.7 -98.75 M13.4 -86.6 Q14.35 -87.65 13.75 -89.4 13.3 -90.8 12.6 -91.35 L12.35 -91.0 12.2 -90.75 12.2 -90.1 Q12.2 -87.8 13.4 -86.6" fill="#b4b4b4" fill-rule="evenodd" stroke="none"/>
    <path d="M5.5 -131.05 L5.5 -131.3 Q5.5 -132.4 5.0 -133.25 L7.55 -130.9 Q10.35 -127.45 13.2 -118.7 L18.85 -98.75 19.7 -95.4 29.2 -58.55 33.95 -41.0 36.45 -29.7 38.95 -17.7 39.0 -16.3 Q38.8 -15.65 37.65 -15.15 37.4 -17.6 36.75 -20.5 L35.2 -26.95 Q34.55 -30.3 31.45 -35.9 28.5 -40.85 28.5 -41.05 28.5 -44.55 29.25 -45.35 29.95 -45.6 29.95 -46.2 29.95 -48.5 29.15 -51.4 L23.95 -70.15 19.15 -69.3 Q18.85 -69.15 18.85 -70.15 18.85 -73.2 20.2 -74.6 21.5 -75.45 21.5 -75.8 21.5 -81.35 15.2 -97.55 L15.2 -97.85 15.15 -98.75 Q13.25 -111.9 10.85 -120.1 8.5 -128.0 5.5 -131.05 M24.75 -12.6 L22.7 -12.35 22.55 -13.95 22.6 -14.85 23.95 -14.6 24.5 -13.35 24.75 -12.6 M-28.9 -15.8 Q-31.95 -16.65 -31.95 -17.9 L-28.05 -36.6 -27.4 -39.65 -27.1 -41.0 -26.6 -43.3 -18.15 -83.25 Q-14.9 -99.05 -12.2 -113.45 -9.9 -125.85 -9.15 -127.85 -8.6 -129.4 -6.2 -131.75 -8.75 -127.0 -7.75 -120.6 -9.45 -116.75 -10.9 -111.8 -13.5 -102.95 -13.5 -98.6 L-13.05 -97.5 -12.65 -96.45 -14.65 -91.5 Q-16.65 -86.85 -16.65 -83.95 -16.65 -82.85 -15.15 -80.9 L-13.7 -79.1 Q-13.7 -78.8 -15.2 -75.8 -17.55 -71.15 -20.65 -60.6 -19.0 -60.2 -18.6 -59.6 -24.95 -46.9 -24.95 -42.65 -24.95 -42.0 -23.85 -40.95 L-19.85 -37.0 Q-24.9 -36.0 -27.35 -24.75 -28.3 -20.6 -28.9 -15.8 M11.7 -98.75 L12.35 -98.05 12.65 -96.35 12.35 -94.65 Q12.05 -93.95 11.65 -93.95 11.25 -93.95 10.95 -94.65 10.65 -95.35 10.65 -96.35 10.65 -97.35 10.95 -98.05 11.25 -98.75 11.65 -98.75 L11.7 -98.75 M11.05 -101.35 L10.35 -101.25 9.4 -105.65 10.75 -105.0 Q11.55 -104.3 11.55 -103.1 11.55 -101.65 11.05 -101.35 M13.4 -86.6 Q12.2 -87.8 12.2 -90.1 L12.2 -90.75 12.35 -91.0 12.6 -91.35 Q13.3 -90.8 13.75 -89.4 14.35 -87.65 13.4 -86.6 M15.05 -79.4 L14.95 -79.2 Q13.75 -79.6 13.45 -80.65 L13.25 -83.25 Q13.25 -83.85 13.4 -83.95 L13.75 -84.0 Q15.1 -82.35 15.3 -80.9 15.45 -79.9 15.05 -79.4 M15.1 -76.55 L16.05 -74.3 16.45 -72.55 16.4 -71.9 16.3 -71.8 15.2 -73.65 14.45 -75.2 14.5 -76.5 15.1 -76.55 M15.95 -65.7 L15.6 -68.75 15.35 -69.15 15.85 -69.25 Q16.35 -69.25 16.85 -68.65 17.65 -67.75 17.55 -65.7 L17.35 -64.65 Q17.1 -64.2 16.75 -64.2 16.4 -64.2 16.2 -64.65 15.95 -65.1 15.95 -65.7 M20.6 -33.8 Q20.05 -35.9 19.9 -37.5 L20.15 -38.35 20.75 -38.5 21.45 -36.6 21.85 -33.8 21.4 -33.7 21.35 -33.65 20.6 -33.8 M18.5 -61.35 L18.5 -56.85 16.95 -56.85 16.95 -61.35 18.5 -61.35 M17.75 -51.45 Q17.75 -52.45 18.05 -53.15 18.35 -53.9 18.8 -53.9 19.25 -53.9 19.55 -53.15 L19.85 -51.45 19.55 -49.7 Q19.25 -49.0 18.8 -49.0 18.35 -49.0 18.05 -49.7 17.75 -50.45 17.75 -51.45 M20.65 -41.55 L19.1 -41.55 19.1 -46.2 20.65 -46.2 20.65 -41.55 M21.85 -25.45 Q21.35 -26.85 20.85 -30.45 L21.65 -30.7 Q22.95 -27.65 22.95 -26.45 22.95 -25.75 22.65 -25.55 L21.85 -25.45 M23.7 -22.75 L23.7 -17.8 21.95 -17.8 21.95 -22.75 23.7 -22.75" fill="#8a8a8a" fill-rule="evenodd" stroke="none"/>
    <path d="M37.65 -15.15 Q38.8 -15.65 39.0 -16.3 L38.95 -17.7 36.45 -29.7 33.95 -41.0 29.2 -58.55 19.7 -95.4 18.85 -98.75 13.2 -118.7 Q10.35 -127.45 7.55 -130.9 L5.0 -133.25 Q5.5 -132.4 5.5 -131.3 L5.5 -131.05 Q5.5 -129.0 3.55 -126.0 L3.15 -125.35 -3.25 -115.9 -4.8 -113.7 Q-4.95 -113.5 -5.2 -113.45 L-5.65 -113.5 -5.85 -113.65 -5.9 -113.8 Q-7.3 -117.4 -7.75 -120.6 -8.75 -127.0 -6.2 -131.75 -8.6 -129.4 -9.15 -127.85 -9.9 -125.85 -12.2 -113.45 -14.9 -99.05 -18.15 -83.25 L-26.6 -43.3 -27.1 -41.0 -27.4 -39.65 -28.05 -36.6 -31.95 -17.9 Q-31.95 -16.65 -28.9 -15.8 L-28.35 -15.65 -26.55 -15.25 -21.6 -14.3 -20.0 -14.05 -19.9 -14.7 -19.55 -13.95 -18.3 -13.75 -14.65 -13.15 -8.9 -12.3 -7.55 -12.1 1.15 -11.55 Q4.8 -11.45 8.95 -11.5 L9.5 -11.5 20.35 -12.05 22.7 -12.35 24.75 -12.6 Q34.9 -14.05 37.45 -15.1 L37.65 -15.15 M2.45 -133.85 L0.75 -134.45 -0.6 -134.5 -1.9 -134.15 Q-3.2 -133.6 -4.45 -132.3 -7.05 -128.25 -6.75 -122.85 -6.6 -119.8 -5.45 -116.35 L-5.15 -115.4 -4.4 -116.45 -2.35 -119.45 1.85 -125.65 2.5 -126.7 Q4.25 -129.45 4.25 -131.3 L4.05 -132.25 Q3.6 -133.25 2.45 -133.85 M-18.45 -11.65 L-19.9 -11.9 -20.15 -11.95 -21.05 -12.1 Q-26.1 -13.0 -29.1 -14.1 -31.45 -14.95 -32.55 -15.95 L-33.3 -16.5 -33.8 -16.85 -32.65 -23.8 -28.9 -40.8 -28.4 -43.3 -26.3 -52.75 -21.2 -76.15 Q-14.8 -105.6 -13.4 -113.3 -11.3 -124.85 -9.8 -128.55 -7.35 -134.55 -2.8 -135.6 L-1.85 -135.8 -1.0 -135.85 -0.8 -135.85 -0.7 -135.85 Q2.1 -135.85 4.25 -134.9 6.25 -134.1 7.7 -132.5 10.8 -129.2 12.75 -124.0 14.7 -118.85 17.6 -107.85 L19.9 -98.75 21.8 -90.35 Q27.7 -71.1 32.35 -52.75 L34.7 -43.3 35.3 -41.0 35.4 -40.5 35.45 -40.35 36.25 -36.85 36.3 -36.55 37.25 -32.35 40.35 -17.75 40.95 -14.45 39.55 -14.45 37.75 -13.95 Q29.2 -11.6 25.8 -11.0 L24.5 -10.8 22.75 -10.55 14.45 -10.0 13.5 -10.0 7.35 -9.9 -15.3 -11.25 -18.4 -11.65 -18.45 -11.65" fill="#464646" fill-rule="evenodd" stroke="none"/>
  </g>
</svg>
