<?xml version="1.0" encoding="UTF-8" standalone="no"?>
<svg xmlns:ffdec="https://www.free-decompiler.com/flash" xmlns:xlink="http://www.w3.org/1999/xlink" ffdec:objectType="shape" height="13.9px" width="22.15px" xmlns="http://www.w3.org/2000/svg">
  <g transform="matrix(1.0, 0.0, 0.0, 1.0, 0.0, 0.0)">
    <path d="M19.65 3.85 L20.2 3.1 21.05 1.75 21.15 1.55 Q14.85 1.85 9.3 0.55 L8.3 0.3 7.3 0.0 15.55 0.5 20.35 0.4 22.15 0.35 Q22.25 3.85 19.55 6.3 18.0 7.8 15.9 8.45 16.3 9.75 16.2 11.25 L12.9 11.85 10.3 11.8 9.25 13.85 8.25 13.9 6.3 13.6 Q-0.4 12.05 0.0 5.15 0.1 3.4 1.2 1.9 L1.15 2.3 1.15 2.4 1.1 2.85 1.05 3.1 1.05 3.55 Q0.75 7.55 2.6 9.95 4.75 12.85 8.5 12.6 L9.25 10.45 14.95 10.3 Q15.15 8.9 14.5 7.5 17.4 6.65 19.65 3.85" fill="#585858" fill-rule="evenodd" stroke="none"/>
    <path d="M9.3 0.55 Q14.85 1.85 21.15 1.55 L21.05 1.75 20.2 3.1 19.65 3.85 18.5 4.15 14.0 5.05 11.4 5.1 Q12.9 7.75 12.9 8.35 L12.65 8.85 10.95 8.9 9.0 8.4 7.05 8.05 6.3 7.8 Q5.8 7.8 5.6 9.05 L5.2 10.3 Q3.35 10.3 2.15 7.15 1.55 5.65 1.05 3.55 L1.05 3.1 1.3 3.2 5.15 3.7 5.25 3.8 7.5 3.95 8.6 4.1 Q9.5 4.1 9.7 3.65 L9.7 2.95 Q9.7 1.7 9.3 0.55 M13.45 2.4 Q13.45 0.65 11.75 3.35 L11.8 3.65 12.3 3.75 13.05 3.15 13.45 2.4 M10.25 5.8 L9.8 5.9 8.55 6.3 8.15 6.65 8.4 7.05 9.35 7.05 10.3 6.6 10.75 6.1 10.7 5.95 10.25 5.8 M16.5 2.95 L15.45 3.25 14.9 3.7 15.4 4.1 Q16.8 4.1 16.5 2.95 M6.5 5.8 Q6.5 5.1 6.05 5.3 5.5 5.7 5.25 5.7 L4.15 5.55 3.65 5.35 Q2.8 5.35 2.8 5.85 2.8 6.0 3.55 6.4 4.4 6.9 5.35 6.9 5.9 6.9 6.25 6.45 L6.5 5.8" fill="#e2e2e2" fill-rule="evenodd" stroke="none"/>
    <path d="M19.65 3.85 Q17.4 6.65 14.5 7.5 15.15 8.9 14.95 10.3 L9.25 10.45 8.5 12.6 Q4.75 12.85 2.6 9.95 0.75 7.55 1.05 3.55 1.55 5.65 2.15 7.15 3.35 10.3 5.2 10.3 L5.6 9.05 Q5.8 7.8 6.3 7.8 L7.05 8.05 9.0 8.4 10.95 8.9 12.65 8.85 12.9 8.35 Q12.9 7.75 11.4 5.1 L14.0 5.05 18.5 4.15 19.65 3.85 M16.5 2.95 Q16.8 4.1 15.4 4.1 L14.9 3.7 15.45 3.25 16.5 2.95 M10.25 5.8 L10.7 5.95 10.75 6.1 10.3 6.6 9.35 7.05 8.4 7.05 8.15 6.65 8.55 6.3 9.8 5.9 10.25 5.8 M13.45 2.4 L13.05 3.15 12.3 3.75 11.8 3.65 11.75 3.35 Q13.45 0.65 13.45 2.4 M6.5 5.8 L6.25 6.45 Q5.9 6.9 5.35 6.9 4.4 6.9 3.55 6.4 2.8 6.0 2.8 5.85 2.8 5.35 3.65 5.35 L4.15 5.55 5.25 5.7 Q5.5 5.7 6.05 5.3 6.5 5.1 6.5 5.8" fill="#a8a8a8" fill-rule="evenodd" stroke="none"/>
    <path d="M1.05 3.1 L1.1 2.85 1.15 2.4 1.15 2.3 1.2 1.95 1.35 1.95 8.15 3.05 8.75 3.05 8.75 2.55 8.4 1.55 Q8.25 0.9 7.7 0.6 L5.85 0.1 7.3 0.0 8.3 0.3 9.3 0.55 Q9.7 1.7 9.7 2.95 L9.7 3.65 Q9.5 4.1 8.6 4.1 L7.5 3.95 5.25 3.8 5.15 3.7 1.3 3.2 1.05 3.1" fill="#a3c5de" fill-rule="evenodd" stroke="none"/>
    <path d="M1.15 2.3 L1.2 1.9 1.75 1.45 Q3.0 0.5 4.45 0.2 L5.85 0.1 7.7 0.6 Q8.25 0.9 8.4 1.55 L8.75 2.55 8.75 3.05 8.15 3.05 1.35 1.95 1.2 1.95 1.15 2.3" fill="#64a9db" fill-rule="evenodd" stroke="none"/>
  </g>
</svg>
