<?xml version="1.0" encoding="UTF-8" standalone="no"?>
<svg xmlns:ffdec="https://www.free-decompiler.com/flash" xmlns:xlink="http://www.w3.org/1999/xlink" ffdec:objectType="shape" height="16.0px" width="16.0px" xmlns="http://www.w3.org/2000/svg">
  <g transform="matrix(1.0, 0.0, 0.0, 1.0, 0.0, 0.0)">
    <path d="M0.95 8.0 Q0.95 10.9 3.0 13.0 5.05 15.05 8.0 15.05 10.9 15.05 13.0 13.0 15.05 10.9 15.05 8.0 15.05 5.1 13.0 3.0 10.9 0.95 8.0 0.95 5.05 0.95 3.0 3.0 0.95 5.1 0.95 8.0 M13.65 2.35 Q16.0 4.7 16.0 8.0 16.0 11.3 13.65 13.65 11.3 16.0 8.0 16.0 4.7 16.0 2.35 13.65 0.0 11.3 0.0 8.0 0.0 4.7 2.35 2.35 4.7 0.0 8.0 0.0 11.3 0.0 13.65 2.35" fill="#690503" fill-rule="evenodd" stroke="none"/>
    <path d="M2.0 8.0 L0.95 8.0 Q0.95 5.1 3.0 3.0 5.05 0.95 8.0 0.95 10.9 0.95 13.0 3.0 15.05 5.1 15.05 8.0 L14.0 8.0 Q14.0 5.55 12.25 3.75 10.45 2.0 8.0 2.0 5.5 2.0 3.75 3.75 2.0 5.55 2.0 8.0" fill="#f30e07" fill-rule="evenodd" stroke="none"/>
    <path d="M2.0 8.0 L2.05 8.5 Q2.2 10.65 3.75 12.25 5.5 14.0 8.0 14.0 10.45 14.0 12.25 12.25 13.8 10.65 14.0 8.5 L14.0 8.0 15.05 8.0 Q15.05 10.9 13.0 13.0 10.9 15.05 8.0 15.05 5.05 15.05 3.0 13.0 0.95 10.9 0.95 8.0 L2.0 8.0 Q2.0 5.55 3.75 3.75 5.5 2.0 8.0 2.0 10.45 2.0 12.25 3.75 14.0 5.55 14.0 8.0 L2.0 8.0" fill="#cb0b06" fill-rule="evenodd" stroke="none"/>
    <path d="M14.0 8.0 L14.0 8.5 Q13.8 10.65 12.25 12.25 10.45 14.0 8.0 14.0 5.5 14.0 3.75 12.25 2.2 10.65 2.05 8.5 L2.0 8.0 14.0 8.0" fill="#a50a05" fill-rule="evenodd" stroke="none"/>
    <path d="M11.1 9.9 L11.1 11.65 5.45 11.65 5.45 4.5 7.65 4.5 7.65 9.9 11.1 9.9" fill="#ffffff" fill-rule="evenodd" stroke="none"/>
  </g>
</svg>
