<?xml version="1.0" encoding="UTF-8" standalone="no"?>
<svg xmlns:ffdec="https://www.free-decompiler.com/flash" xmlns:xlink="http://www.w3.org/1999/xlink" ffdec:objectType="shape" height="54.6px" width="24.85px" xmlns="http://www.w3.org/2000/svg">
  <g transform="matrix(1.0, 0.0, 0.0, 1.0, -27.8, 43.35)">
    <path d="M38.8 -18.35 Q38.55 -18.95 38.3 -23.75 38.1 -28.6 37.75 -29.45 36.7 -32.0 34.5 -35.4 32.8 -38.05 32.8 -38.7 32.8 -39.45 34.4 -40.1 L36.4 -40.6 Q39.1 -40.6 40.85 -39.45 43.5 -37.7 43.5 -33.65 43.5 -27.15 38.8 -18.35 M49.05 -26.45 Q49.6 -25.35 49.6 -24.35 49.6 -20.8 48.45 -17.0 47.3 -13.05 45.75 -12.05 L45.45 -12.05 45.35 -12.85 46.95 -18.55 Q48.7 -24.3 49.05 -26.45" fill="#ffffff" fill-rule="evenodd" stroke="none"/>
    <path d="M38.8 -18.35 Q43.5 -27.15 43.5 -33.65 43.5 -37.7 40.85 -39.45 39.1 -40.6 36.4 -40.6 L34.4 -40.1 Q32.8 -39.45 32.8 -38.7 32.8 -38.05 34.5 -35.4 36.7 -32.0 37.75 -29.45 38.1 -28.6 38.3 -23.75 38.55 -18.95 38.8 -18.35 M33.95 -29.25 L32.15 -32.55 27.95 -39.2 30.2 -40.5 Q31.45 -41.15 32.9 -41.25 L33.85 -41.3 Q40.65 -43.5 45.95 -38.0 51.1 -32.6 51.1 -23.9 51.1 -17.5 48.0 -9.4 44.55 -0.5 39.0 5.85 40.7 1.75 43.6 -9.55 46.9 -22.55 46.9 -27.95 L46.6 -31.7 Q46.2 -33.95 45.5 -34.55 L44.8 -34.15 Q45.05 -26.3 42.55 -19.7 39.8 -12.35 35.25 -11.55 35.95 -12.9 36.4 -16.55 L36.75 -20.45 Q36.75 -26.0 33.85 -32.85 L33.95 -31.75 33.95 -29.25 M49.05 -26.45 Q48.7 -24.3 46.95 -18.55 L45.35 -12.85 45.45 -12.05 45.75 -12.05 Q47.3 -13.05 48.45 -17.0 49.6 -20.8 49.6 -24.35 49.6 -25.35 49.05 -26.45" fill="#d1d1d1" fill-rule="evenodd" stroke="none"/>
    <path d="M35.05 -19.5 L35.1 -20.2 34.75 -24.25 33.95 -29.25 33.95 -31.75 33.85 -32.85 Q36.75 -26.0 36.75 -20.45 L36.4 -16.55 Q35.95 -12.9 35.25 -11.55 39.8 -12.35 42.55 -19.7 45.05 -26.3 44.8 -34.15 L45.5 -34.55 Q46.2 -33.95 46.6 -31.7 L46.9 -27.95 Q46.9 -22.55 43.6 -9.55 40.7 1.75 39.0 5.85 L36.15 8.8 Q43.0 -8.05 42.8 -14.15 L42.65 -14.65 37.4 -10.45 33.9 -7.95 Q35.35 -10.7 35.35 -13.5 L35.05 -19.5 M27.95 -39.2 L27.8 -39.8 Q28.05 -40.7 28.25 -40.85 L32.9 -41.25 Q31.45 -41.15 30.2 -40.5 L27.95 -39.2" fill="#989898" fill-rule="evenodd" stroke="none"/>
    <path d="M28.25 -40.85 L31.75 -42.4 Q34.2 -43.5 39.25 -43.3 44.25 -43.1 48.15 -38.2 52.65 -32.55 52.65 -24.1 52.65 -16.0 47.75 -4.75 42.8 6.5 35.3 11.05 L34.35 11.25 37.7 -0.25 40.8 -11.5 Q33.6 -5.75 31.25 -4.45 33.75 -12.65 35.05 -19.5 L35.35 -13.5 Q35.35 -10.7 33.9 -7.95 L37.4 -10.45 42.65 -14.65 42.8 -14.15 Q43.0 -8.05 36.15 8.8 L39.0 5.85 Q44.55 -0.5 48.0 -9.4 51.1 -17.5 51.1 -23.9 51.1 -32.6 45.95 -38.0 40.65 -43.5 33.85 -41.3 L32.9 -41.25 28.25 -40.85" fill="#606060" fill-rule="evenodd" stroke="none"/>
  </g>
</svg>
