<?xml version="1.0" encoding="UTF-8" standalone="no"?>
<svg xmlns:ffdec="https://www.free-decompiler.com/flash" xmlns:xlink="http://www.w3.org/1999/xlink" ffdec:objectType="shape" height="54.0px" width="21.6px" xmlns="http://www.w3.org/2000/svg">
  <g transform="matrix(1.0, 0.0, 0.0, 1.0, -27.8, 42.75)">
    <path d="M38.8 -18.35 Q38.55 -18.95 38.3 -23.75 38.1 -28.6 37.75 -29.45 36.7 -32.0 34.5 -35.4 32.8 -38.05 32.8 -38.7 32.8 -39.45 34.4 -40.1 35.7 -40.6 37.65 -39.4 L41.9 -36.15 Q44.25 -34.05 43.9 -30.6 43.5 -27.15 38.8 -18.35" fill="#ffffff" fill-rule="evenodd" stroke="none"/>
    <path d="M33.95 -29.25 L32.15 -32.55 27.95 -39.2 30.2 -40.5 Q31.45 -41.15 32.9 -41.25 L37.9 -40.35 Q42.4 -39.4 44.45 -34.9 46.5 -30.45 47.2 -24.65 47.85 -18.9 46.6 -15.3 47.7 -12.25 46.05 -6.35 44.35 -0.5 39.0 5.85 40.7 1.75 43.2 -6.3 45.65 -14.4 45.15 -18.5 44.6 -22.6 43.95 -24.3 L42.55 -19.7 Q39.8 -12.35 35.25 -11.55 35.95 -12.9 36.4 -16.55 L36.75 -20.45 Q36.75 -26.0 33.85 -32.85 L33.95 -31.75 33.95 -29.25 M38.8 -18.35 Q43.5 -27.15 43.9 -30.6 44.25 -34.05 41.9 -36.15 L37.65 -39.4 Q35.7 -40.6 34.4 -40.1 32.8 -39.45 32.8 -38.7 32.8 -38.05 34.5 -35.4 36.7 -32.0 37.75 -29.45 38.1 -28.6 38.3 -23.75 38.55 -18.95 38.8 -18.35" fill="#d1d1d1" fill-rule="evenodd" stroke="none"/>
    <path d="M35.05 -19.5 L35.1 -20.2 34.75 -24.25 33.95 -29.25 33.95 -31.75 33.85 -32.85 Q36.75 -26.0 36.75 -20.45 L36.4 -16.55 Q35.95 -12.9 35.25 -11.55 39.8 -12.35 42.55 -19.7 L43.95 -24.3 Q44.6 -22.6 45.15 -18.5 45.65 -14.4 43.2 -6.3 40.7 1.75 39.0 5.85 L36.15 8.8 Q43.0 -8.05 42.8 -14.15 L42.65 -14.65 37.4 -10.45 33.9 -7.95 Q35.35 -10.7 35.35 -13.5 L35.05 -19.5 M27.95 -39.2 L27.8 -39.8 Q28.05 -40.7 28.25 -40.85 L32.9 -41.25 Q31.45 -41.15 30.2 -40.5 L27.95 -39.2" fill="#989898" fill-rule="evenodd" stroke="none"/>
    <path d="M28.25 -40.85 L31.75 -42.4 Q34.2 -43.5 40.1 -41.2 46.0 -38.9 47.6 -33.3 49.2 -27.7 49.2 -23.25 49.2 -18.8 48.7 -16.15 50.5 -11.05 47.75 -4.75 42.8 6.5 35.3 11.05 L34.35 11.25 37.7 -0.25 40.8 -11.5 Q33.6 -5.75 31.25 -4.45 33.75 -12.65 35.05 -19.5 L35.35 -13.5 Q35.35 -10.7 33.9 -7.95 L37.4 -10.45 42.65 -14.65 42.8 -14.15 Q43.0 -8.05 36.15 8.8 L39.0 5.85 Q44.35 -0.5 46.05 -6.35 47.7 -12.25 46.6 -15.3 47.85 -18.9 47.2 -24.65 46.5 -30.45 44.45 -34.9 42.4 -39.4 37.9 -40.35 L32.9 -41.25 28.25 -40.85" fill="#606060" fill-rule="evenodd" stroke="none"/>
  </g>
</svg>
