<?xml version="1.0" encoding="UTF-8" standalone="no"?>
<svg xmlns:ffdec="https://www.free-decompiler.com/flash" xmlns:xlink="http://www.w3.org/1999/xlink" ffdec:objectType="shape" height="16.0px" width="16.0px" xmlns="http://www.w3.org/2000/svg">
  <g transform="matrix(1.0, 0.0, 0.0, 1.0, 0.0, 0.0)">
    <path d="M2.0 8.0 L2.05 8.5 Q2.2 10.65 3.75 12.25 5.5 14.0 8.0 14.0 10.45 14.0 12.25 12.25 13.8 10.65 14.0 8.5 L14.0 8.0 15.05 8.0 Q15.05 10.9 13.0 13.0 10.9 15.05 8.0 15.05 5.05 15.05 3.0 13.0 0.95 10.9 0.95 8.0 L2.0 8.0 Q2.0 5.55 3.75 3.75 5.5 2.0 8.0 2.0 10.45 2.0 12.25 3.75 14.0 5.55 14.0 8.0 L2.0 8.0" fill="#0e58bc" fill-rule="evenodd" stroke="none"/>
    <path d="M14.0 8.0 L14.0 8.5 Q13.8 10.65 12.25 12.25 10.45 14.0 8.0 14.0 5.5 14.0 3.75 12.25 2.2 10.65 2.05 8.5 L2.0 8.0 14.0 8.0" fill="#0c4a9e" fill-rule="evenodd" stroke="none"/>
    <path d="M2.0 8.0 L0.95 8.0 Q0.95 5.1 3.0 3.0 5.05 0.95 8.0 0.95 10.9 0.95 13.0 3.0 15.05 5.1 15.05 8.0 L14.0 8.0 Q14.0 5.55 12.25 3.75 10.45 2.0 8.0 2.0 5.5 2.0 3.75 3.75 2.0 5.55 2.0 8.0" fill="#116ae3" fill-rule="evenodd" stroke="none"/>
    <path d="M0.95 8.0 Q0.95 10.9 3.0 13.0 5.05 15.05 8.0 15.05 10.9 15.05 13.0 13.0 15.05 10.9 15.05 8.0 15.05 5.1 13.0 3.0 10.9 0.95 8.0 0.95 5.05 0.95 3.0 3.0 0.95 5.1 0.95 8.0 M13.65 2.35 Q16.0 4.7 16.0 8.0 16.0 11.3 13.65 13.65 11.3 16.0 8.0 16.0 4.7 16.0 2.35 13.65 0.0 11.3 0.0 8.0 0.0 4.7 2.35 2.35 4.7 0.0 8.0 0.0 11.3 0.0 13.65 2.35" fill="#062e64" fill-rule="evenodd" stroke="none"/>
    <path d="M10.85 10.45 L11.4 10.8 11.9 11.05 11.3 12.3 10.35 11.75 9.75 11.3 7.9 11.6 Q6.25 11.6 5.3 10.75 4.2 9.75 4.2 7.95 4.2 6.2 5.2 5.2 6.15 4.2 7.9 4.2 9.7 4.2 10.65 5.2 11.6 6.15 11.6 7.9 11.6 9.5 10.85 10.45 M9.15 9.3 L9.4 7.9 Q9.4 6.8 9.0 6.35 8.6 5.9 7.9 5.9 7.25 5.9 6.85 6.35 6.4 6.85 6.4 7.85 6.4 9.0 6.8 9.5 7.2 9.95 7.9 9.95 L8.35 9.9 7.45 9.4 7.8 8.6 8.25 8.75 8.9 9.15 9.15 9.3" fill="#ffffff" fill-rule="evenodd" stroke="none"/>
  </g>
</svg>
