<?xml version="1.0" encoding="UTF-8" standalone="no"?>
<svg xmlns:ffdec="https://www.free-decompiler.com/flash" xmlns:xlink="http://www.w3.org/1999/xlink" ffdec:objectType="shape" height="16.0px" width="16.0px" xmlns="http://www.w3.org/2000/svg">
  <g transform="matrix(1.0, 0.0, 0.0, 1.0, 0.0, 0.0)">
    <path d="M13.65 2.35 Q16.0 4.7 16.0 8.0 16.0 11.3 13.65 13.65 11.3 16.0 8.0 16.0 4.7 16.0 2.35 13.65 0.0 11.3 0.0 8.0 0.0 4.7 2.35 2.35 4.7 0.0 8.0 0.0 11.3 0.0 13.65 2.35 M15.05 8.0 Q15.05 5.1 13.0 3.0 10.9 0.95 8.0 0.95 5.05 0.95 3.0 3.0 0.95 5.1 0.95 8.0 0.95 10.9 3.0 13.0 5.05 15.05 8.0 15.05 10.9 15.05 13.0 13.0 15.05 10.9 15.05 8.0" fill="#4a4a4a" fill-rule="evenodd" stroke="none"/>
    <path d="M0.95 8.0 L2.0 8.0 Q2.0 5.55 3.75 3.75 5.5 2.0 8.0 2.0 10.45 2.0 12.25 3.75 14.0 5.55 14.0 8.0 L15.05 8.0 Q15.05 10.9 13.0 13.0 10.9 15.05 8.0 15.05 5.05 15.05 3.0 13.0 0.95 10.9 0.95 8.0 M14.0 8.0 L2.0 8.0 2.05 8.5 Q2.2 10.65 3.75 12.25 5.5 14.0 8.0 14.0 10.45 14.0 12.25 12.25 13.8 10.65 14.0 8.5 L14.0 8.0" fill="#bcbcbc" fill-rule="evenodd" stroke="none"/>
    <path d="M14.0 8.0 L14.0 8.5 Q13.8 10.65 12.25 12.25 10.45 14.0 8.0 14.0 5.5 14.0 3.75 12.25 2.2 10.65 2.05 8.5 L2.0 8.0 14.0 8.0" fill="#a4a4a4" fill-rule="evenodd" stroke="none"/>
    <path d="M0.95 8.0 Q0.95 5.1 3.0 3.0 5.05 0.95 8.0 0.95 10.9 0.95 13.0 3.0 15.05 5.1 15.05 8.0 L14.0 8.0 Q14.0 5.55 12.25 3.75 10.45 2.0 8.0 2.0 5.5 2.0 3.75 3.75 2.0 5.55 2.0 8.0 L0.95 8.0" fill="#d2d2d2" fill-rule="evenodd" stroke="none"/>
    <path d="M4.2 4.35 L7.1 4.35 8.25 8.7 9.35 4.35 12.25 4.35 12.25 11.5 10.45 11.5 10.45 6.05 9.05 11.5 7.4 11.5 6.0 6.05 6.0 11.5 4.2 11.5 4.2 4.35" fill="#ffffff" fill-rule="evenodd" stroke="none"/>
  </g>
</svg>
