<?xml version="1.0" encoding="UTF-8" standalone="no"?>
<svg xmlns:ffdec="https://www.free-decompiler.com/flash" xmlns:xlink="http://www.w3.org/1999/xlink" ffdec:objectType="shape" height="35.2px" width="59.95px" xmlns="http://www.w3.org/2000/svg">
  <g transform="matrix(1.0, 0.0, 0.0, 1.0, 36.85, 5.35)">
    <path d="M5.4 -5.3 Q10.25 -4.6 13.35 -1.0 L16.45 2.95 13.45 4.85 13.4 4.85 Q12.35 5.15 11.9 5.95 L8.5 7.9 Q2.25 9.55 1.35 10.0 -2.25 11.9 -0.7 15.8 L-0.7 15.85 0.05 18.8 0.9 21.25 1.35 22.45 0.0 20.8 Q-1.05 19.6 -2.6 19.65 L-3.45 19.5 -2.2 18.9 Q-1.7 18.55 -1.7 17.9 L-2.15 15.55 -2.6 13.2 Q-2.6 12.4 -1.15 11.1 0.1 9.95 1.5 9.25 L14.35 3.35 Q14.4 1.65 10.7 -1.55 7.7 -4.15 5.4 -5.3 M7.5 27.2 Q6.3 28.1 4.15 29.0 L0.9 29.85 Q-4.8 29.85 -7.85 21.9 -9.65 17.1 -10.0 16.45 -11.35 13.95 -13.3 13.95 -15.1 13.95 -19.15 15.0 L-18.5 13.1 -12.5 12.45 Q-10.2 12.45 -6.05 14.85 L-5.15 15.4 -8.05 15.55 -6.75 20.1 Q-5.75 23.15 -5.2 23.75 L-3.0 25.9 -0.65 28.05 1.55 28.15 3.2 27.75 5.6 26.95 7.5 27.2 M-21.85 3.35 L-18.0 3.35 -17.35 3.25 Q-10.75 1.6 -9.05 0.65 L0.1 -5.3 Q-5.2 -0.5 -9.5 1.95 -14.7 4.85 -19.3 4.85 L-21.3 4.75 Q-22.3 3.3 -21.85 3.35" fill="#0d0d0d" fill-rule="evenodd" stroke="none"/>
    <path d="M0.1 -5.3 L5.4 -5.3 Q7.7 -4.15 10.7 -1.55 14.4 1.65 14.35 3.35 L1.5 9.25 Q0.1 9.95 -1.15 11.1 -2.6 12.4 -2.6 13.2 L-2.15 15.55 -1.7 17.9 Q-1.7 18.55 -2.2 18.9 L-3.45 19.5 -2.6 19.65 Q-1.05 19.6 0.0 20.8 L1.35 22.45 0.9 21.25 1.5 22.1 2.3 23.8 2.35 23.85 2.4 24.85 Q-1.55 23.05 -5.0 19.6 L-4.75 18.2 Q-4.55 17.55 -4.25 17.55 L-5.8 16.85 Q-6.45 17.65 -6.65 18.8 L-5.2 23.75 Q-5.75 23.15 -6.75 20.1 L-8.05 15.55 -5.15 15.4 -6.05 14.85 Q-10.2 12.45 -12.5 12.45 L-18.5 13.1 -18.0 11.55 -14.1 11.0 Q-11.7 11.0 -9.25 12.25 -6.8 13.45 -4.45 13.45 -3.65 13.45 -2.35 11.65 -0.6 9.1 1.55 7.5 L2.95 6.15 3.55 4.7 4.85 5.55 5.45 6.25 Q7.85 4.1 7.85 1.05 7.85 -0.7 7.35 -1.45 6.5 -2.75 3.55 -3.5 L2.15 0.0 2.2 -0.3 -1.6 -2.35 -9.3 3.05 Q-14.8 6.7 -19.85 7.05 L-21.3 4.75 -19.3 4.85 Q-14.7 4.85 -9.5 1.95 -5.2 -0.5 0.1 -5.3 M4.4 26.8 L5.6 26.95 3.2 27.75 1.55 28.15 -0.65 28.05 2.0 27.65 4.4 26.8" fill="#1e1e1e" fill-rule="evenodd" stroke="none"/>
    <path d="M0.9 21.25 L0.05 18.8 -0.7 15.85 1.5 22.1 0.9 21.25 M-19.85 7.05 Q-14.8 6.7 -9.3 3.05 L-1.6 -2.35 2.2 -0.3 2.15 0.0 3.55 -3.5 Q6.5 -2.75 7.35 -1.45 7.85 -0.7 7.85 1.05 7.85 4.1 5.45 6.25 L4.85 5.55 3.55 4.7 2.95 6.15 1.55 7.5 Q-0.6 9.1 -2.35 11.65 -3.65 13.45 -4.45 13.45 -6.8 13.45 -9.25 12.25 -11.7 11.0 -14.1 11.0 L-18.0 11.55 Q-18.8 9.2 -19.85 7.05 M-5.2 23.75 L-6.65 18.8 Q-6.45 17.65 -5.8 16.85 L-4.25 17.55 Q-4.55 17.55 -4.75 18.2 L-5.0 19.6 Q-1.55 23.05 2.4 24.85 L2.35 23.85 Q4.0 26.65 4.4 26.8 L2.0 27.65 -0.65 28.05 -3.0 25.9 -5.2 23.75 M0.7 5.7 Q-0.2 2.4 -0.7 1.7 -1.75 0.3 -3.5 0.8 -4.5 1.1 -5.3 1.75 -7.05 3.55 -7.7 3.6 L-8.7 9.8 -6.1 10.7 -4.2 11.2 0.2 6.8 Q0.7 6.4 0.7 5.7 M-17.15 8.3 L-17.9 8.7 Q-17.25 9.35 -14.65 9.35 -13.85 9.35 -12.35 7.85 L-14.7 7.55 Q-16.4 7.9 -17.15 8.3 M-3.25 23.5 L-2.7 24.25 Q-1.5 25.6 -0.1 26.05 L0.2 26.0 Q0.0 25.25 -0.65 24.35 -1.35 23.45 -2.05 23.1 L-3.25 23.5" fill="#272727" fill-rule="evenodd" stroke="none"/>
    <path d="M0.7 5.7 Q0.7 6.4 0.2 6.8 L-4.2 11.2 -6.1 10.7 -8.7 9.8 -7.7 3.6 Q-7.05 3.55 -5.3 1.75 -4.5 1.1 -3.5 0.8 -1.75 0.3 -0.7 1.7 -0.2 2.4 0.7 5.7 M-17.15 8.3 Q-16.4 7.9 -14.7 7.55 L-12.35 7.85 Q-13.85 9.35 -14.65 9.35 -17.25 9.35 -17.9 8.7 L-17.15 8.3 M-3.25 23.5 L-2.05 23.1 Q-1.35 23.45 -0.65 24.35 0.0 25.25 0.2 26.0 L-0.1 26.05 Q-1.5 25.6 -2.7 24.25 L-3.25 23.5" fill="#3e3e3e" fill-rule="evenodd" stroke="none"/>
    <path d="M2.4 14.4 Q3.6 15.85 4.8 19.05 5.8 21.85 5.8 22.7 L5.7 23.9 5.25 24.15 4.35 24.25 Q4.1 24.25 3.15 22.15 2.25 20.1 2.1 19.25 1.25 16.3 1.3 15.2 L2.4 14.4 M-33.35 12.05 L-33.5 11.85 -34.4 10.6 Q-34.95 9.35 -34.6 7.75 L-20.05 8.75 Q-20.5 11.2 -23.45 12.65 -25.85 13.8 -28.15 13.8 L-31.9 12.95 -33.35 12.05" fill="#d99567" fill-rule="evenodd" stroke="none"/>
    <path d="M-0.7 15.85 L-0.7 15.8 Q-0.8 14.0 -0.35 12.35 1.9 13.0 4.1 15.25 7.15 18.35 7.15 22.35 L6.4 24.0 Q5.5 25.7 4.4 26.8 4.0 26.65 2.35 23.85 L2.3 23.8 1.5 22.1 -0.7 15.85 M-19.85 7.05 Q-18.8 9.2 -18.0 11.55 L-23.5 13.4 -28.4 15.1 Q-31.35 14.45 -33.35 12.05 L-31.9 12.95 -28.15 13.8 Q-25.85 13.8 -23.45 12.65 -20.5 11.2 -20.05 8.75 L-34.6 7.75 Q-34.95 9.35 -34.4 10.6 -35.5 8.8 -35.5 6.95 L-34.45 3.85 -25.35 6.1 -19.85 7.05 M15.3 8.0 Q16.2 7.55 17.0 7.35 18.25 7.2 19.35 8.35 20.45 9.55 20.45 11.3 L19.2 12.85 16.55 9.4 15.3 8.0 M11.2 11.0 L12.1 10.75 Q12.9 10.75 13.85 12.25 15.3 14.5 15.3 18.8 L14.9 19.7 Q14.2 20.6 12.95 21.2 L10.25 15.75 8.3 12.45 11.2 11.0 M2.4 14.4 L1.3 15.2 Q1.25 16.3 2.1 19.25 2.25 20.1 3.15 22.15 4.1 24.25 4.35 24.25 L5.25 24.15 5.7 23.9 5.8 22.7 Q5.8 21.85 4.8 19.05 3.6 15.85 2.4 14.4" fill="#d08857" fill-rule="evenodd" stroke="none"/>
    <path d="M11.9 5.95 Q12.35 5.15 13.4 4.85 L13.45 4.85 Q16.45 4.85 18.7 6.25 21.65 8.1 21.65 11.8 20.75 14.5 18.9 16.05 18.35 15.4 18.0 14.05 17.65 12.6 17.0 11.65 L14.5 9.55 Q12.2 7.8 11.5 7.55 11.5 6.6 11.9 5.95 M-18.0 11.55 L-18.5 13.1 -22.55 14.3 Q-25.4 15.05 -28.4 15.1 L-23.5 13.4 -18.0 11.55 M11.2 11.0 L8.3 12.45 10.25 15.75 12.95 21.2 Q14.2 20.6 14.9 19.7 L15.3 18.8 Q15.3 14.5 13.85 12.25 12.9 10.75 12.1 10.75 L11.2 11.0 M15.3 8.0 L16.55 9.4 19.2 12.85 20.45 11.3 Q20.45 9.55 19.35 8.35 18.25 7.2 17.0 7.35 16.2 7.55 15.3 8.0 M6.35 8.75 L7.25 8.55 Q11.9 8.55 14.5 11.1 17.2 13.75 17.2 18.8 17.2 19.85 16.35 20.85 15.2 22.25 13.1 22.25 L10.85 21.75 11.15 21.25 11.25 20.35 Q11.25 18.4 8.85 14.5 L5.65 9.45 6.35 8.75 M4.4 26.8 Q5.5 25.7 6.4 24.0 L7.15 22.35 Q7.15 18.35 4.1 15.25 1.9 13.0 -0.35 12.35 1.7 11.05 2.5 11.05 4.45 11.05 6.5 12.8 9.55 15.4 9.55 20.3 9.55 22.25 8.65 23.95 7.6 25.95 5.6 26.95 L4.4 26.8 M-34.45 3.85 L-32.0 2.75 Q-30.4 2.75 -26.15 3.7 L-21.3 4.75 -19.85 7.05 -25.35 6.1 -34.45 3.85" fill="#bd7543" fill-rule="evenodd" stroke="none"/>
    <path d="M16.45 2.95 Q18.1 3.5 20.4 6.1 23.1 9.05 23.1 11.45 23.1 14.55 21.85 16.1 L19.35 18.85 16.45 23.25 Q15.65 24.05 14.1 24.05 L12.65 23.85 10.45 23.2 9.0 25.25 7.5 27.2 5.6 26.95 Q7.6 25.95 8.65 23.95 9.55 22.25 9.55 20.3 9.55 15.4 6.5 12.8 4.45 11.05 2.5 11.05 1.7 11.05 -0.35 12.35 -0.8 14.0 -0.7 15.8 -2.25 11.9 1.35 10.0 2.25 9.55 8.5 7.9 L11.9 5.95 Q11.5 6.6 11.5 7.55 12.2 7.8 14.5 9.55 L17.0 11.65 Q17.65 12.6 18.0 14.05 18.35 15.4 18.9 16.05 20.75 14.5 21.65 11.8 21.65 8.1 18.7 6.25 16.45 4.85 13.45 4.85 L16.45 2.95 M-19.15 15.0 L-25.55 16.5 -27.6 16.85 Q-31.6 16.85 -34.35 13.75 -36.85 10.9 -36.85 7.35 -36.85 4.85 -35.7 3.25 -34.35 1.35 -31.6 1.35 L-21.85 3.35 Q-22.3 3.3 -21.3 4.75 L-26.15 3.7 Q-30.4 2.75 -32.0 2.75 L-34.45 3.85 -35.5 6.95 Q-35.5 8.8 -34.4 10.6 L-33.5 11.85 -33.35 12.05 Q-31.35 14.45 -28.4 15.1 -25.4 15.05 -22.55 14.3 L-18.5 13.1 -19.15 15.0 M6.35 8.75 L5.65 9.45 8.85 14.5 Q11.25 18.4 11.25 20.35 L11.15 21.25 10.85 21.75 13.1 22.25 Q15.2 22.25 16.35 20.85 17.2 19.85 17.2 18.8 17.2 13.75 14.5 11.1 11.9 8.55 7.25 8.55 L6.35 8.75" fill="#7d4a27" fill-rule="evenodd" stroke="none"/>
  </g>
</svg>
