<?xml version="1.0" encoding="UTF-8" standalone="no"?>
<svg xmlns:ffdec="https://www.free-decompiler.com/flash" xmlns:xlink="http://www.w3.org/1999/xlink" ffdec:objectType="shape" height="138.8px" width="114.1px" xmlns="http://www.w3.org/2000/svg">
  <g transform="matrix(1.0, 0.0, 0.0, 1.0, 39.0, 1.0)">
    <path d="M-14.7 15.55 L-14.8 15.45 -17.0 12.7 -18.35 11.35 -17.3 11.1 -17.35 11.2 Q-16.8 11.35 -13.2 14.2 -10.35 16.45 -7.55 16.0 -7.05 16.0 -6.7 15.65 L-9.55 13.4 -11.05 11.6 -10.05 11.4 -8.4 11.25 Q-8.0 11.25 -7.05 11.8 -5.5 12.65 -5.3 12.75 L-5.0 12.45 Q-5.85 11.6 -7.25 11.0 -9.2 10.15 -10.9 10.6 L-13.35 10.4 -14.65 10.1 Q-15.1 9.9 -14.45 9.35 L-14.35 9.2 -15.0 9.15 Q-15.8 9.15 -16.3 9.95 -16.85 10.7 -19.4 10.7 L-20.85 10.45 -22.6 10.2 Q-21.9 8.85 -20.65 7.5 L-19.0 6.25 -16.65 5.2 Q-15.45 4.55 -12.1 3.45 L-8.5 2.45 Q-1.2 2.45 2.8 4.15 1.6 5.0 0.05 5.0 L-2.05 4.95 -2.1 5.25 Q-2.05 5.55 0.2 5.7 L-0.5 6.25 -2.25 6.75 -6.25 6.7 Q-10.2 6.95 -11.7 8.45 L-11.65 8.65 -11.55 8.7 -4.35 7.9 -2.85 7.95 -3.3 8.85 -3.65 10.05 -3.55 11.9 Q-4.8 13.15 -6.1 15.65 -7.6 17.6 -11.5 17.6 L-14.7 15.55 M-15.8 15.45 L-15.15 16.75 Q-15.6 17.15 -16.55 17.45 L-18.3 17.75 Q-21.85 17.75 -23.6 15.4 L-23.75 15.05 -22.4 15.1 -19.85 14.6 -17.3 14.1 Q-16.95 14.1 -15.8 15.45 M-28.55 19.6 L-30.2 19.35 -30.4 19.4 -29.75 18.6 -29.7 18.55 Q-29.3 18.25 -29.3 17.8 -28.25 16.6 -27.4 16.2 -27.05 16.0 -24.95 15.3 L-25.4 15.7 -26.85 17.0 -28.75 19.1 -28.55 19.6 M-30.75 18.85 L-32.25 19.8 -33.9 20.65 -34.3 18.85 -34.2 18.2 -34.15 18.45 -33.55 18.6 Q-32.75 18.6 -31.75 16.4 -30.85 14.3 -31.0 13.7 L-29.05 13.0 -29.0 13.0 -29.9 14.95 -30.55 16.8 Q-30.35 17.45 -29.8 17.45 L-30.75 18.85 M-29.95 16.45 L-29.4 14.8 -29.25 15.05 -28.6 15.1 Q-27.5 15.1 -25.95 14.4 -24.15 13.6 -22.75 13.35 L-18.7 12.9 -18.35 13.15 -18.05 13.35 Q-19.15 14.4 -21.55 14.4 L-24.8 14.4 -28.05 15.95 Q-30.7 17.2 -29.95 16.45 L-29.9 16.45 -29.95 16.45 M0.2 11.2 L0.7 10.95 Q1.3 13.1 5.25 14.95 L9.4 16.8 8.45 16.45 6.15 15.9 Q5.75 15.65 3.95 15.2 L1.9 14.8 0.6 15.05 2.25 15.75 6.25 16.8 8.6 17.45 5.1 18.75 Q2.3 18.75 0.5 17.25 -1.15 15.9 -1.15 14.05 L-0.75 13.0 0.2 11.2 M36.65 20.1 L37.55 22.7 38.25 25.3 37.2 26.95 35.2 26.6 Q33.95 26.3 33.85 26.1 L32.8 22.2 Q31.8 18.65 29.7 16.95 28.15 14.35 26.6 12.45 25.6 9.7 20.15 6.5 13.8 2.8 8.55 3.9 6.25 4.1 5.05 4.55 L4.2 4.8 6.9 3.25 10.55 2.75 13.75 2.5 Q22.75 2.5 30.2 10.55 34.3 15.05 36.65 20.1 M32.05 25.1 L31.95 25.4 Q32.4 25.6 31.4 25.6 30.9 25.6 29.65 24.65 L27.35 23.3 25.45 22.65 Q24.0 22.05 23.1 21.05 L21.2 17.7 Q20.05 15.7 18.7 14.7 L14.65 11.05 Q11.8 8.6 9.55 8.25 L6.7 7.85 4.4 7.7 4.25 7.7 4.15 7.75 Q3.2 8.0 -0.05 9.25 L-0.65 9.45 0.9 8.0 2.7 6.6 2.85 6.8 3.5 6.85 5.95 6.5 8.4 6.1 Q15.85 6.1 20.7 12.75 23.7 16.8 24.8 17.85 27.5 20.55 31.2 21.45 32.05 23.55 32.05 25.1 M20.75 19.15 L22.25 22.25 Q21.35 21.05 19.7 20.25 L16.85 18.7 Q14.2 16.85 12.0 14.65 9.55 12.2 7.45 11.05 4.95 9.65 1.95 9.5 L3.75 8.8 7.5 8.6 Q8.5 9.6 14.05 12.8 15.25 13.6 16.95 15.6 L19.5 18.45 20.1 18.0 20.75 19.15 M50.1 29.1 L50.7 30.3 Q50.7 32.35 48.2 33.5 45.15 34.5 44.0 35.3 44.45 34.5 47.55 31.6 49.5 29.75 48.95 27.5 L50.1 29.1 M48.25 29.3 Q48.25 31.05 45.75 31.9 L45.5 30.65 44.9 28.9 47.3 26.9 Q48.3 28.2 48.25 29.3 M42.95 31.15 L43.25 29.8 42.45 27.85 Q44.2 29.05 44.85 31.65 L42.95 31.15 M44.6 33.45 Q44.55 33.25 44.05 33.2 L43.1 33.3 43.4 32.75 43.5 32.05 Q43.95 32.05 44.3 32.45 L44.6 33.45 M29.95 40.25 L33.2 40.8 33.6 45.8 Q33.6 49.2 32.25 55.25 L30.15 63.75 28.05 67.85 Q26.5 71.5 26.5 75.7 26.5 81.35 28.0 86.9 29.1 91.1 28.4 93.45 27.95 92.65 27.05 85.2 26.2 78.1 26.2 76.45 26.2 69.7 29.0 60.35 31.8 50.95 31.8 47.8 31.8 44.65 31.45 44.1 30.9 43.95 30.5 43.45 L29.95 40.25 M35.8 40.05 L36.45 39.4 Q36.85 39.15 37.5 39.15 38.2 39.15 38.85 40.15 L39.5 41.8 39.6 43.05 38.55 49.05 Q37.5 54.65 37.35 56.65 37.4 63.7 37.8 68.15 37.8 79.3 32.3 84.6 33.85 82.9 34.3 80.75 34.6 79.25 34.6 75.5 L34.05 70.15 33.45 64.6 34.0 58.65 Q34.0 58.15 34.75 56.0 L35.7 52.95 36.15 47.55 Q36.35 42.6 35.8 40.05 M36.3 95.65 L39.75 87.55 Q43.15 76.05 42.4 66.4 L42.45 65.45 41.9 60.4 41.3 55.4 Q41.3 53.2 42.05 47.95 L43.0 41.85 Q43.65 42.45 44.05 42.45 L44.55 42.3 Q44.95 42.35 46.3 46.75 L47.05 51.75 47.3 55.95 46.7 61.4 Q46.05 65.4 46.05 72.65 46.05 88.45 51.4 96.95 53.45 101.35 54.6 106.6 55.65 111.55 57.05 114.3 51.3 111.7 50.05 105.1 L49.25 99.25 Q48.8 95.85 47.8 93.6 L47.9 93.8 Q45.9 87.95 45.65 76.2 L45.75 62.15 45.5 61.55 Q44.4 69.25 44.4 71.25 L44.5 76.15 43.75 82.65 42.5 90.8 Q41.8 93.95 41.35 106.35 40.9 118.8 40.35 121.35 L39.35 104.2 Q39.35 97.8 40.25 94.9 L41.1 91.25 41.1 90.65 40.35 90.55 Q39.75 90.55 38.3 94.55 36.8 98.85 36.85 101.8 37.15 113.6 36.65 118.9 L35.7 123.6 35.8 119.25 35.2 112.35 34.55 105.25 Q34.55 103.85 34.85 101.3 L35.75 97.85 36.3 95.65 M47.55 124.55 L45.5 126.85 44.75 127.4 45.75 122.7 Q46.75 118.3 46.75 113.9 46.75 107.6 45.15 100.75 L43.35 93.0 44.75 83.1 46.4 91.65 Q47.9 99.6 48.25 103.55 L49.2 113.85 Q49.2 115.9 48.5 120.15 L47.55 124.55 M27.2 9.45 L27.05 10.05 Q28.35 11.85 31.35 17.15 33.85 21.65 35.85 23.95 L36.1 23.9 36.2 23.25 Q36.2 21.8 32.9 15.9 29.35 9.5 27.55 9.3 L27.2 9.45 M29.25 25.95 L30.0 26.95 29.0 25.85 29.25 25.95 M37.3 31.95 L36.35 32.05 Q35.1 32.05 33.8 31.5 32.0 30.65 31.6 29.1 L34.4 29.1 37.5 29.05 37.75 29.4 37.95 30.35 Q37.95 31.05 37.3 31.95 M33.35 32.45 L36.95 32.85 35.5 33.8 Q34.25 34.45 32.9 34.45 29.85 34.45 27.4 32.9 L25.25 31.1 27.2 30.35 27.5 30.05 28.55 29.75 Q29.1 29.75 33.35 32.45 M26.35 29.75 L24.6 30.65 22.95 30.4 Q21.85 30.25 21.1 29.5 L17.95 27.0 19.65 26.3 21.05 26.4 24.95 27.1 25.45 27.35 27.85 29.05 27.75 29.15 26.35 29.75 M18.3 26.15 L18.2 26.2 Q15.45 26.1 13.05 25.4 8.25 24.1 8.25 20.85 L8.35 19.4 9.6 18.7 Q10.55 18.85 11.2 19.85 L11.75 21.0 Q12.6 22.1 14.7 23.65 17.45 25.65 19.25 25.65 L18.3 26.15 M12.7 20.95 L11.9 19.7 12.3 19.8 13.6 19.9 Q14.65 22.15 17.45 23.25 21.05 24.65 21.6 25.15 L21.3 25.6 17.4 24.7 Q14.45 23.85 12.7 20.95 M22.35 25.4 L22.3 24.8 Q24.45 25.0 26.95 26.65 L30.85 29.3 30.8 29.9 30.5 30.15 26.9 27.35 Q24.9 26.1 22.35 25.6 L22.35 25.4 M24.55 36.5 L25.05 38.7 25.4 41.15 Q25.4 51.25 21.85 52.2 L20.7 52.6 Q22.6 51.5 23.2 50.05 23.6 48.95 23.6 46.25 23.6 42.95 23.25 41.0 22.75 38.5 21.25 34.85 23.15 35.3 24.55 36.5 M36.2 57.6 L36.05 57.35 35.9 57.25 Q34.35 58.95 34.35 62.9 34.35 67.55 34.9 70.85 L35.65 74.35 35.85 74.4 Q37.1 71.6 37.1 70.4 L36.2 58.35 36.2 57.6 M-2.65 4.05 L-2.85 3.55 Q-2.3 3.5 -3.3 3.5 -11.3 3.5 -15.3 5.0 -18.35 6.15 -19.6 8.45 L-19.55 9.25 -18.75 9.45 Q-17.4 9.45 -12.55 7.3 -7.4 5.05 -2.95 4.7 L-2.65 4.05 M-35.95 22.15 Q-35.6 20.45 -34.95 19.5 -34.4 22.2 -34.55 23.1 L-35.95 22.15 M-27.45 28.95 Q-27.5 30.9 -29.55 34.8 -32.15 39.85 -35.35 40.75 L-36.3 40.85 -36.35 40.8 Q-33.6 40.45 -31.35 36.3 -30.25 34.25 -29.5 31.85 -27.7 29.55 -27.45 28.95" fill="#f4d773" fill-rule="evenodd" stroke="none"/>
    <path d="M-5.15 17.7 L-5.05 17.2 -5.1 16.8 -4.85 16.75 -5.4 16.65 Q-6.45 16.65 -7.35 17.7 -8.25 18.75 -11.05 18.75 L-12.65 17.7 -14.7 15.55 -11.5 17.6 Q-7.6 17.6 -6.1 15.65 -4.8 13.15 -3.55 11.9 L-3.2 13.5 -2.75 13.85 Q-1.5 11.6 -0.75 11.3 L0.2 11.2 -0.75 13.0 -1.15 14.05 Q-1.15 15.9 0.5 17.25 2.3 18.75 5.1 18.75 L8.6 17.45 9.25 17.65 6.3 19.15 Q4.4 19.95 2.65 19.95 -1.95 19.95 -2.6 18.45 -2.55 16.65 -3.55 16.0 -3.7 15.95 -3.9 16.25 L-3.95 16.1 -5.15 17.7 M-14.8 15.45 L-15.8 15.45 Q-16.95 14.1 -17.3 14.1 L-19.85 14.6 -22.4 15.1 -23.75 15.05 -23.6 15.4 Q-21.85 17.75 -18.3 17.75 L-16.55 17.45 Q-15.6 17.15 -15.15 16.75 L-14.25 18.1 -13.7 18.7 -18.1 19.35 Q-21.1 19.35 -22.9 17.8 L-24.9 15.5 -23.9 17.25 -22.75 18.9 Q-25.35 20.45 -28.55 19.6 L-28.75 19.1 -26.85 17.0 -25.4 15.7 -24.95 15.3 Q-27.05 16.0 -27.4 16.2 -28.25 16.6 -29.3 17.8 -29.3 18.25 -29.7 18.55 L-29.75 18.6 -30.75 18.85 -29.8 17.45 Q-30.35 17.45 -30.55 16.8 L-29.95 16.45 -29.9 16.45 -29.95 16.45 Q-30.7 17.2 -28.05 15.95 L-24.8 14.4 -21.55 14.4 Q-19.15 14.4 -18.05 13.35 L-18.35 13.15 -17.0 12.7 -14.8 15.45 M-10.7 13.35 L-9.55 13.4 -6.7 15.65 Q-7.05 16.0 -7.55 16.0 L-9.2 15.15 -10.7 13.35 M-20.65 7.5 L-20.75 7.25 Q-22.0 7.65 -23.2 8.95 -24.45 10.25 -25.5 10.65 L-26.35 10.9 Q-23.95 6.05 -18.35 3.1 -12.55 0.05 -5.2 0.05 L0.7 0.5 Q1.55 0.75 2.25 1.35 L3.65 2.05 -4.4 1.5 Q-6.6 1.5 -10.5 2.4 -15.45 3.6 -16.65 5.2 L-19.0 6.25 -20.65 7.5 M-2.25 6.75 L-4.35 7.9 -11.55 8.7 -11.65 8.65 -11.7 8.45 Q-10.2 6.95 -6.25 6.7 L-2.25 6.75 M6.15 15.9 L6.25 16.8 2.25 15.75 0.6 15.05 1.9 14.8 3.95 15.2 Q5.75 15.65 6.15 15.9 M6.9 3.25 L9.7 2.05 Q12.0 1.2 12.9 1.2 L13.3 1.2 Q13.8 1.4 14.65 1.2 15.8 0.95 22.0 2.75 26.75 4.15 30.2 7.25 L35.5 11.7 Q32.25 8.0 30.0 6.15 25.8 2.6 21.3 1.25 L20.05 0.85 Q25.5 2.15 27.75 3.2 31.3 4.9 36.5 9.55 38.7 11.5 41.9 16.7 44.85 21.45 45.7 23.95 L45.05 25.85 44.95 26.0 40.65 17.55 Q39.75 15.8 38.4 15.35 L42.4 22.7 43.6 26.15 43.6 26.35 41.0 25.95 Q40.0 25.9 39.4 24.45 L38.65 21.9 Q37.95 19.8 37.6 19.8 37.0 19.8 37.0 19.5 L36.85 19.05 36.45 19.5 36.65 20.1 Q34.3 15.05 30.2 10.55 22.75 2.5 13.75 2.5 L10.55 2.75 6.9 3.25 M33.85 26.1 Q33.05 26.0 32.05 25.1 32.05 23.55 31.2 21.45 L28.95 17.0 29.25 16.55 29.7 16.95 Q31.8 18.65 32.8 22.2 L33.85 26.1 M23.1 21.05 L20.75 19.15 20.1 18.0 18.2 14.7 18.7 14.7 Q20.05 15.7 21.2 17.7 L23.1 21.05 M3.75 8.8 Q3.75 8.35 3.9 8.05 L4.15 7.75 4.25 7.7 4.4 7.7 6.7 7.85 9.55 8.25 Q10.75 8.9 10.95 9.1 L9.1 8.9 7.5 8.6 3.75 8.8 M7.0 5.2 L6.3 5.35 8.55 3.9 Q13.8 2.8 20.15 6.5 25.6 9.7 26.6 12.45 L26.7 12.8 Q23.35 9.5 20.45 7.75 15.55 4.8 10.3 4.8 L7.0 5.2 M42.95 31.15 L40.6 31.35 40.15 30.15 Q39.6 29.15 39.6 28.65 39.6 28.05 39.7 28.1 L39.8 28.1 41.35 27.7 42.45 27.85 43.25 29.8 42.95 31.15 M43.5 32.05 L43.4 32.75 43.1 33.3 44.05 33.2 Q44.55 33.25 44.6 33.45 L42.95 35.05 Q41.7 36.05 40.25 36.05 38.45 36.05 36.4 35.25 L39.15 33.25 Q41.05 31.95 42.2 31.95 L43.5 32.05 M29.95 40.25 L29.05 37.6 28.2 35.65 35.85 36.35 37.75 36.75 40.75 36.75 Q42.9 36.65 43.65 37.2 48.1 40.4 49.4 44.6 50.65 48.5 50.65 58.35 L49.95 66.8 48.7 73.75 Q48.3 75.75 48.3 76.9 48.3 91.05 56.8 101.9 64.55 111.75 72.3 111.5 L68.05 112.0 Q59.3 112.0 55.7 105.05 L53.1 98.95 Q51.5 95.3 49.6 93.45 L51.4 96.95 Q46.05 88.45 46.05 72.65 46.05 65.4 46.7 61.4 L47.3 55.95 47.05 51.75 46.3 46.75 Q44.95 42.35 44.55 42.3 L44.05 42.45 Q43.65 42.45 43.0 41.85 L42.05 47.95 Q41.3 53.2 41.3 55.4 L41.9 60.4 42.45 65.45 42.4 66.4 Q42.35 65.35 42.1 65.1 41.9 65.55 41.75 70.6 41.6 76.3 40.9 79.85 L39.8 83.85 Q38.95 86.8 38.95 87.5 L39.05 88.1 39.35 88.15 39.75 87.55 36.3 95.65 36.7 94.45 36.65 94.05 36.5 93.9 Q33.25 98.05 33.4 105.25 33.5 109.1 34.25 114.65 34.25 115.25 32.25 116.8 L29.05 119.25 27.75 119.65 Q31.05 118.3 32.15 108.5 L32.7 97.65 Q33.0 92.35 34.75 88.05 36.8 83.05 37.1 81.25 L38.3 74.1 Q38.85 69.75 38.55 66.3 37.8 58.85 38.3 54.85 L39.15 50.95 39.3 50.3 Q38.0 51.7 37.35 56.65 37.5 54.65 38.55 49.05 L39.6 43.05 39.5 41.8 38.85 40.15 Q38.2 39.15 37.5 39.15 36.85 39.15 36.45 39.4 L35.8 40.05 Q35.55 39.5 35.1 39.3 L34.7 39.3 Q34.55 39.35 34.55 39.95 34.55 41.4 35.0 42.1 35.35 43.85 34.75 50.9 L34.2 53.9 Q33.65 56.6 32.7 58.65 L30.15 63.75 32.25 55.25 Q33.6 49.2 33.6 45.8 L33.2 40.8 29.95 40.25 M47.8 93.6 L47.7 93.3 46.75 91.7 Q48.95 98.2 48.85 102.9 48.85 104.5 49.4 106.5 50.0 108.9 51.15 110.6 L51.45 111.05 51.45 111.15 51.55 115.1 Q51.55 117.1 50.45 119.85 49.25 122.95 47.55 124.55 L48.5 120.15 Q49.2 115.9 49.2 113.85 L48.25 103.55 Q47.9 99.6 46.4 91.65 L44.75 83.1 45.25 77.65 Q45.25 76.2 44.75 74.95 L44.5 76.15 44.4 71.25 Q44.4 69.25 45.5 61.55 L45.75 62.15 45.65 76.2 Q45.9 87.95 47.9 93.8 L47.8 93.6 M30.75 28.75 L31.6 29.05 31.6 29.1 Q32.0 30.65 33.8 31.5 35.1 32.05 36.35 32.05 L33.35 32.45 Q29.1 29.75 28.55 29.75 L27.5 30.05 27.2 30.35 26.35 29.75 27.75 29.15 27.85 29.05 25.45 27.35 24.95 27.1 21.05 26.4 19.65 26.3 18.3 26.15 19.25 25.65 Q17.45 25.65 14.7 23.65 12.6 22.1 11.75 21.0 L12.7 20.95 Q14.45 23.85 17.4 24.7 L21.3 25.6 21.6 25.15 21.55 24.85 22.15 25.05 22.35 25.4 22.35 25.6 Q24.9 26.1 26.9 27.35 L30.5 30.15 30.8 29.9 30.85 29.3 30.75 28.75 M38.45 28.8 Q39.4 29.75 39.9 30.85 39.25 31.4 38.45 31.65 L37.3 31.95 Q37.95 31.05 37.95 30.35 L37.75 29.4 37.5 29.05 38.45 28.8 M36.95 32.85 L37.8 32.8 Q36.1 35.35 32.85 35.35 30.8 35.35 28.25 34.35 25.55 33.35 24.2 32.0 L24.0 31.6 25.25 31.1 27.4 32.9 Q29.85 34.45 32.9 34.45 34.25 34.45 35.5 33.8 L36.95 32.85 M24.6 30.65 L22.75 31.15 20.1 30.65 Q17.45 29.8 16.2 28.1 L15.95 27.65 17.95 27.0 21.1 29.5 Q21.85 30.25 22.95 30.4 L24.6 30.65 M18.2 26.2 L15.75 26.9 13.2 27.35 Q10.8 27.35 8.55 25.3 6.5 23.4 6.5 21.8 6.5 20.45 6.9 20.15 L8.35 19.4 8.25 20.85 Q8.25 24.1 13.05 25.4 15.45 26.1 18.2 26.2 M21.25 34.85 L18.95 31.45 18.65 31.0 Q23.05 31.9 23.25 32.5 L23.45 33.8 Q23.7 35.0 24.55 36.5 23.15 35.3 21.25 34.85 M-34.55 23.1 L-33.6 26.2 -34.45 26.45 -35.25 24.45 -35.95 22.15 -34.55 23.1 M-33.8 22.9 Q-33.8 21.9 -32.3 21.0 -30.85 20.1 -29.35 20.1 L-29.25 20.1 -30.65 23.35 Q-31.55 25.6 -32.05 26.0 L-32.45 26.15 -33.35 24.2 -33.8 22.9 M-29.5 31.85 L-27.55 24.6 -26.5 22.9 -27.45 28.95 Q-27.7 29.55 -29.5 31.85 M-30.3 29.6 Q-30.7 30.35 -31.95 31.0 -32.85 30.75 -33.5 29.35 -34.05 28.15 -34.05 27.25 -33.95 27.25 -34.0 27.05 L-32.75 27.0 Q-32.15 27.0 -31.25 27.4 L-29.9 28.05 -30.3 29.6" fill="#f1b73d" fill-rule="evenodd" stroke="none"/>
    <path d="M-34.2 18.2 L-34.2 18.15 -34.15 17.9 Q-33.8 15.4 -31.0 13.7 -30.85 14.3 -31.75 16.4 -32.75 18.6 -33.55 18.6 L-34.15 18.45 -34.2 18.2 M-29.4 14.8 Q-26.65 11.35 -22.05 11.35 -20.65 11.35 -20.15 11.75 L-18.7 12.9 -22.75 13.35 Q-24.15 13.6 -25.95 14.4 -27.5 15.1 -28.6 15.1 L-29.25 15.05 -29.4 14.8 M-17.3 11.1 L-16.45 11.0 -14.7 10.9 Q-12.55 11.1 -10.7 13.35 L-9.2 15.15 -7.55 16.0 Q-10.35 16.45 -13.2 14.2 -16.8 11.35 -17.35 11.2 L-17.3 11.1 M0.7 10.95 L3.4 10.5 Q5.3 10.35 7.3 11.35 11.3 13.25 12.2 18.8 11.1 18.25 10.9 17.85 L9.95 17.0 9.85 17.0 9.8 16.95 9.7 16.9 9.4 16.8 5.25 14.95 Q1.3 13.1 0.7 10.95 M2.7 6.6 Q4.3 5.95 7.0 5.2 L10.3 4.8 Q15.55 4.8 20.45 7.75 23.35 9.5 26.7 12.8 L26.6 12.45 Q28.15 14.35 29.7 16.95 L29.25 16.55 28.95 17.0 31.2 21.45 Q27.5 20.55 24.8 17.85 23.7 16.8 20.7 12.75 15.85 6.1 8.4 6.1 L5.95 6.5 3.5 6.85 2.85 6.8 2.7 6.6 M40.35 121.35 Q40.3 122.9 38.1 127.45 35.8 132.3 34.3 133.15 L35.7 123.6 36.65 118.9 Q37.15 113.6 36.85 101.8 36.8 98.85 38.3 94.55 39.75 90.55 40.35 90.55 L41.1 90.65 41.1 91.25 40.25 94.9 Q39.35 97.8 39.35 104.2 L40.35 121.35 M27.2 9.45 L27.55 9.3 Q29.35 9.5 32.9 15.9 36.2 21.8 36.2 23.25 L36.1 23.9 35.85 23.95 Q33.85 21.65 31.35 17.15 28.35 11.85 27.05 10.05 L27.2 9.45 M22.3 24.8 L22.15 24.1 23.0 23.95 24.0 23.8 25.15 23.95 28.3 25.0 29.25 25.95 29.0 25.85 30.0 26.95 30.75 28.75 30.85 29.3 26.95 26.65 Q24.45 25.0 22.3 24.8 M31.6 29.05 L31.3 27.55 31.35 27.5 36.6 27.45 38.45 28.8 37.5 29.05 34.4 29.1 31.6 29.1 31.6 29.05 M13.6 19.9 Q16.9 19.9 19.25 21.35 21.55 22.8 21.55 24.85 L21.6 25.15 Q21.05 24.65 17.45 23.25 14.65 22.15 13.6 19.9 M18.7 14.7 L18.2 14.7 20.1 18.0 19.5 18.45 16.95 15.6 Q15.25 13.6 14.05 12.8 8.5 9.6 7.5 8.6 L9.1 8.9 10.95 9.1 Q10.75 8.9 9.55 8.25 11.8 8.6 14.65 11.05 L18.7 14.7 M30.5 43.45 Q30.9 43.95 31.45 44.1 31.8 44.65 31.8 47.8 31.8 50.95 29.0 60.35 26.2 69.7 26.2 76.45 26.2 78.1 27.05 85.2 27.95 92.65 28.4 93.45 L26.95 96.25 Q28.1 92.75 26.55 87.25 24.6 80.45 24.6 78.6 24.6 69.5 27.95 59.95 31.0 51.2 30.65 48.3 L30.6 46.25 30.5 43.45 M36.2 57.6 L36.2 58.35 37.1 70.4 Q37.1 71.6 35.85 74.4 L35.65 74.35 34.9 70.85 Q34.35 67.55 34.35 62.9 34.35 58.95 35.9 57.25 L36.05 57.35 36.2 57.6 M-2.65 4.05 L-2.95 4.7 Q-7.4 5.05 -12.55 7.3 -17.4 9.45 -18.75 9.45 L-19.55 9.25 -19.6 8.45 Q-18.35 6.15 -15.3 5.0 -11.3 3.5 -3.3 3.5 -2.3 3.5 -2.85 3.55 L-2.65 4.05 M-16.65 11.4 Q-16.45 12.05 -16.45 11.05 L-16.65 11.4" fill="#f1ec91" fill-rule="evenodd" stroke="none"/>
    <path d="M-5.15 17.7 L-5.2 17.75 Q-7.65 20.2 -10.45 20.2 L-12.75 19.5 Q-14.3 20.5 -15.55 20.5 L-17.95 19.9 -22.05 19.3 Q-22.95 19.3 -23.45 19.65 L-24.85 21.25 -25.4 22.6 -25.9 24.35 Q-26.6 32.9 -30.7 37.9 -33.75 41.6 -36.3 41.6 L-37.95 41.35 Q-38.85 41.1 -39.0 40.85 L-38.9 40.8 Q-35.9 39.85 -34.6 38.85 -32.4 37.2 -29.95 30.95 L-30.4 31.5 -31.4 31.75 Q-32.95 31.75 -33.7 30.3 L-34.8 27.3 -35.8 24.6 -36.55 22.35 Q-36.55 21.05 -35.65 19.25 L-34.8 17.0 -34.0 15.1 Q-33.4 14.25 -31.1 13.25 -28.75 12.25 -27.9 11.15 -23.7 5.7 -21.85 4.2 -15.3 -1.0 -5.2 -1.0 -0.1 -1.0 2.95 0.45 6.0 1.9 6.95 1.9 7.35 1.9 9.4 0.8 12.65 -0.35 18.6 -0.35 25.1 -0.35 30.95 3.5 35.25 6.3 39.95 11.8 L44.8 19.15 46.35 22.75 47.35 25.7 Q48.55 24.8 50.15 27.0 51.6 28.9 51.6 30.05 51.6 32.25 50.2 33.5 48.9 34.7 45.15 36.2 48.9 40.15 50.6 46.2 51.85 50.65 51.85 55.7 51.85 63.55 50.65 70.9 L49.4 76.95 Q49.4 91.15 57.0 101.05 64.3 110.55 74.1 110.55 L74.85 110.65 75.1 111.2 Q74.3 113.15 68.05 113.15 61.3 113.15 58.65 111.35 L56.2 108.35 Q56.45 111.3 58.0 113.5 L59.75 115.35 59.75 115.7 59.05 115.85 Q54.8 115.85 52.1 112.1 52.65 113.35 52.65 115.2 52.65 119.6 48.7 125.0 44.9 130.2 42.25 130.2 L41.55 130.05 41.6 129.7 Q44.15 127.65 44.8 122.95 L45.35 118.35 45.75 113.9 Q45.75 111.45 42.85 96.25 L42.75 97.25 42.1 110.65 Q41.45 123.45 40.7 125.15 37.8 131.9 34.7 135.35 32.45 137.8 31.1 137.8 30.45 137.8 30.4 137.6 L30.4 137.2 Q31.95 135.7 32.7 134.1 33.6 132.3 33.9 129.8 34.7 123.25 34.7 120.55 L34.45 116.25 33.7 117.45 Q32.2 119.05 29.85 120.15 27.65 121.2 26.25 121.2 L25.35 121.05 25.15 120.6 Q28.65 118.95 29.9 112.1 31.0 102.3 31.85 95.95 32.9 88.5 34.0 86.1 L35.35 82.7 32.85 85.55 Q31.55 87.0 30.65 87.0 L29.95 86.95 29.85 86.7 29.8 86.35 Q32.1 83.2 32.9 80.75 33.55 78.8 33.55 76.15 32.6 65.55 32.65 61.55 L32.0 62.8 Q29.95 65.1 28.65 69.95 27.7 73.6 27.7 75.7 27.7 78.6 28.8 83.75 29.85 88.9 29.85 91.35 29.85 93.55 27.8 97.3 25.55 101.45 23.45 101.45 22.8 101.45 22.75 101.25 L22.75 100.85 24.85 97.75 Q25.95 96.25 25.95 93.7 25.95 89.85 24.65 85.85 23.35 81.85 23.35 78.7 23.35 67.95 26.4 60.45 L28.5 55.2 Q29.45 52.25 29.45 48.95 29.45 43.7 28.85 40.75 27.9 35.6 25.1 34.3 L25.2 34.7 25.9 38.2 26.3 41.55 Q26.3 53.5 19.8 53.5 18.55 53.5 18.3 52.95 21.35 51.4 22.25 49.3 22.6 48.45 22.6 46.65 22.5 43.35 21.5 39.55 19.45 32.0 14.7 28.8 13.9 28.25 12.05 27.8 10.15 27.3 9.4 26.8 7.25 25.35 6.3 23.55 5.7 22.5 5.7 21.85 6.6 20.65 5.35 21.0 L3.45 21.6 1.25 21.35 -0.75 20.9 Q-2.25 20.4 -3.15 18.55 -3.7 17.4 -3.9 16.25 -3.7 15.95 -3.55 16.0 -2.55 16.65 -2.6 18.45 -1.95 19.95 2.65 19.95 4.4 19.95 6.3 19.15 L9.25 17.65 8.6 17.45 6.25 16.8 6.15 15.9 8.45 16.45 9.4 16.8 9.7 16.9 9.8 16.95 9.85 17.0 9.95 17.0 10.9 17.85 Q11.1 18.25 12.2 18.8 11.3 13.25 7.3 11.35 5.3 10.35 3.4 10.5 L0.7 10.95 0.2 11.2 -0.75 11.3 Q-1.5 11.6 -2.75 13.85 L-3.2 13.5 -3.55 11.9 -3.65 10.05 -3.3 8.85 -2.85 7.95 -4.35 7.9 -2.25 6.75 -0.5 6.25 0.2 5.7 Q-2.05 5.55 -2.1 5.25 L-2.05 4.95 0.05 5.0 Q1.6 5.0 2.8 4.15 -1.2 2.45 -8.5 2.45 L-12.1 3.45 Q-15.45 4.55 -16.65 5.2 -15.45 3.6 -10.5 2.4 -6.6 1.5 -4.4 1.5 L3.65 2.05 2.25 1.35 Q1.55 0.75 0.7 0.5 L-5.2 0.05 Q-12.55 0.05 -18.35 3.1 -23.95 6.05 -26.35 10.9 L-25.5 10.65 Q-24.45 10.25 -23.2 8.95 -22.0 7.65 -20.75 7.25 L-20.65 7.5 Q-21.9 8.85 -22.6 10.2 L-20.85 10.45 -19.4 10.7 Q-16.85 10.7 -16.3 9.95 -15.8 9.15 -15.0 9.15 L-14.35 9.2 -14.45 9.35 Q-15.1 9.9 -14.65 10.1 L-13.35 10.4 -10.9 10.6 Q-9.2 10.15 -7.25 11.0 -5.85 11.6 -5.0 12.45 L-5.3 12.75 Q-5.5 12.65 -7.05 11.8 -8.0 11.25 -8.4 11.25 L-10.05 11.4 -11.05 11.6 -9.55 13.4 -10.7 13.35 Q-12.55 11.1 -14.7 10.9 L-16.45 11.0 -17.3 11.1 -18.35 11.35 -17.0 12.7 -18.35 13.15 -18.7 12.9 -20.15 11.75 Q-20.65 11.35 -22.05 11.35 -26.65 11.35 -29.4 14.8 L-29.95 16.45 -30.55 16.8 -29.9 14.95 -29.0 13.0 -29.05 13.0 -31.0 13.7 Q-33.8 15.4 -34.15 17.9 L-34.2 18.15 -34.2 18.2 -34.3 18.85 -33.9 20.65 -32.25 19.8 -30.75 18.85 -29.75 18.6 -30.4 19.4 -30.2 19.35 -28.55 19.6 Q-25.35 20.45 -22.75 18.9 L-23.9 17.25 -24.9 15.5 -22.9 17.8 Q-21.1 19.35 -18.1 19.35 L-13.7 18.7 -14.25 18.1 -15.15 16.75 -15.8 15.45 -14.8 15.45 -14.7 15.55 -12.65 17.7 -11.05 18.75 Q-8.25 18.75 -7.35 17.7 -6.45 16.65 -5.4 16.65 L-4.85 16.75 -5.1 16.8 -5.05 17.2 -5.15 17.7 M36.65 20.1 L36.45 19.5 36.85 19.05 37.0 19.5 Q37.0 19.8 37.6 19.8 37.95 19.8 38.65 21.9 L39.4 24.45 Q40.0 25.9 41.0 25.95 L43.6 26.35 43.6 26.15 42.4 22.7 38.4 15.35 Q39.75 15.8 40.65 17.55 L44.95 26.0 45.05 25.85 45.7 23.95 Q44.85 21.45 41.9 16.7 38.7 11.5 36.5 9.55 31.3 4.9 27.75 3.2 25.5 2.15 20.05 0.85 L21.3 1.25 Q25.8 2.6 30.0 6.15 32.25 8.0 35.5 11.7 L30.2 7.25 Q26.75 4.15 22.0 2.75 15.8 0.95 14.65 1.2 13.8 1.4 13.3 1.2 L12.9 1.2 Q12.0 1.2 9.7 2.05 L6.9 3.25 4.2 4.8 5.05 4.55 Q6.25 4.1 8.55 3.9 L6.3 5.35 7.0 5.2 Q4.3 5.95 2.7 6.6 L0.9 8.0 -0.65 9.45 -0.05 9.25 Q3.2 8.0 4.15 7.75 L3.9 8.05 Q3.75 8.35 3.75 8.8 L1.95 9.5 Q4.95 9.65 7.45 11.05 9.55 12.2 12.0 14.65 14.2 16.85 16.85 18.7 L19.7 20.25 Q21.35 21.05 22.25 22.25 L20.75 19.15 23.1 21.05 Q24.0 22.05 25.45 22.65 L27.35 23.3 29.65 24.65 Q30.9 25.6 31.4 25.6 32.4 25.6 31.95 25.4 L32.05 25.1 Q33.05 26.0 33.85 26.1 33.95 26.3 35.2 26.6 L37.2 26.95 38.25 25.3 37.55 22.7 36.65 20.1 M48.25 29.3 Q48.3 28.2 47.3 26.9 L44.9 28.9 45.5 30.65 45.75 31.9 Q48.25 31.05 48.25 29.3 M50.1 29.1 L48.95 27.5 Q49.5 29.75 47.55 31.6 44.45 34.5 44.0 35.3 45.15 34.5 48.2 33.5 50.7 32.35 50.7 30.3 L50.1 29.1 M42.45 27.85 L41.35 27.7 39.8 28.1 39.7 28.1 Q39.6 28.05 39.6 28.65 39.6 29.15 40.15 30.15 L40.6 31.35 42.95 31.15 44.85 31.65 Q44.2 29.05 42.45 27.85 M43.5 32.05 L42.2 31.95 Q41.05 31.95 39.15 33.25 L36.4 35.25 Q38.45 36.05 40.25 36.05 41.7 36.05 42.95 35.05 L44.6 33.45 44.3 32.45 Q43.95 32.05 43.5 32.05 M51.4 96.95 L49.6 93.45 Q51.5 95.3 53.1 98.95 L55.7 105.05 Q59.3 112.0 68.05 112.0 L72.3 111.5 Q64.55 111.75 56.8 101.9 48.3 91.05 48.3 76.9 48.3 75.75 48.7 73.75 L49.95 66.8 50.65 58.35 Q50.65 48.5 49.4 44.6 48.1 40.4 43.65 37.2 42.9 36.65 40.75 36.75 L37.75 36.75 35.85 36.35 28.2 35.65 29.05 37.6 29.95 40.25 30.5 43.45 30.6 46.25 30.65 48.3 Q31.0 51.2 27.95 59.95 24.6 69.5 24.6 78.6 24.6 80.45 26.55 87.25 28.1 92.75 26.95 96.25 L28.4 93.45 Q29.1 91.1 28.0 86.9 26.5 81.35 26.5 75.7 26.5 71.5 28.05 67.85 L30.15 63.75 32.7 58.65 Q33.65 56.6 34.2 53.9 L34.75 50.9 Q35.35 43.85 35.0 42.1 34.55 41.4 34.55 39.95 34.55 39.35 34.7 39.3 L35.1 39.3 Q35.55 39.5 35.8 40.05 36.35 42.6 36.15 47.55 L35.7 52.95 34.75 56.0 Q34.0 58.15 34.0 58.65 L33.45 64.6 34.05 70.15 34.6 75.5 Q34.6 79.25 34.3 80.75 33.85 82.9 32.3 84.6 37.8 79.3 37.8 68.15 37.4 63.7 37.35 56.65 38.0 51.7 39.3 50.3 L39.15 50.95 38.3 54.85 Q37.8 58.85 38.55 66.3 38.85 69.75 38.3 74.1 L37.1 81.25 Q36.8 83.05 34.75 88.05 33.0 92.35 32.7 97.65 L32.15 108.5 Q31.05 118.3 27.75 119.65 L29.05 119.25 32.25 116.8 Q34.25 115.25 34.25 114.65 33.5 109.1 33.4 105.25 33.25 98.05 36.5 93.9 L36.65 94.05 36.7 94.45 36.3 95.65 35.75 97.85 34.85 101.3 Q34.55 103.85 34.55 105.25 L35.2 112.35 35.8 119.25 35.7 123.6 34.3 133.15 Q35.8 132.3 38.1 127.45 40.3 122.9 40.35 121.35 40.9 118.8 41.35 106.35 41.8 93.95 42.5 90.8 L43.75 82.65 44.5 76.15 44.75 74.95 Q45.25 76.2 45.25 77.65 L44.75 83.1 43.35 93.0 45.15 100.75 Q46.75 107.6 46.75 113.9 46.75 118.3 45.75 122.7 L44.75 127.4 45.5 126.85 47.55 124.55 Q49.25 122.95 50.45 119.85 51.55 117.1 51.55 115.1 L51.45 111.15 51.45 111.05 51.15 110.6 Q50.0 108.9 49.4 106.5 48.85 104.5 48.85 102.9 48.95 98.2 46.75 91.7 L47.7 93.3 47.8 93.6 Q48.8 95.85 49.25 99.25 L50.05 105.1 Q51.3 111.7 57.05 114.3 55.65 111.55 54.6 106.6 53.45 101.35 51.4 96.95 M39.75 87.55 L39.35 88.15 39.05 88.1 38.95 87.5 Q38.95 86.8 39.8 83.85 L40.9 79.85 Q41.6 76.3 41.75 70.6 41.9 65.55 42.1 65.1 42.35 65.35 42.4 66.4 43.15 76.05 39.75 87.55 M29.25 25.95 L28.3 25.0 25.15 23.95 24.0 23.8 23.0 23.95 22.15 24.1 22.3 24.8 22.35 25.4 22.15 25.05 21.55 24.85 Q21.55 22.8 19.25 21.35 16.9 19.9 13.6 19.9 L12.3 19.8 11.9 19.7 12.7 20.95 11.75 21.0 11.2 19.85 Q10.55 18.85 9.6 18.7 L8.35 19.4 6.9 20.15 Q6.5 20.45 6.5 21.8 6.5 23.4 8.55 25.3 10.8 27.35 13.2 27.35 L15.75 26.9 18.2 26.2 18.3 26.15 19.65 26.3 17.95 27.0 15.95 27.65 16.2 28.1 Q17.45 29.8 20.1 30.65 L22.75 31.15 24.6 30.65 26.35 29.75 27.2 30.35 25.25 31.1 24.0 31.6 24.2 32.0 Q25.55 33.35 28.25 34.35 30.8 35.35 32.85 35.35 36.1 35.35 37.8 32.8 L36.95 32.85 33.35 32.45 36.35 32.05 37.3 31.95 38.45 31.65 Q39.25 31.4 39.9 30.85 39.4 29.75 38.45 28.8 L36.6 27.45 31.35 27.5 31.3 27.55 31.6 29.05 30.75 28.75 30.0 26.95 29.25 25.95 M24.55 36.5 Q23.7 35.0 23.45 33.8 L23.25 32.5 Q23.05 31.9 18.65 31.0 L18.95 31.45 21.25 34.85 Q22.75 38.5 23.25 41.0 23.6 42.95 23.6 46.25 23.6 48.95 23.2 50.05 22.6 51.5 20.7 52.6 L21.85 52.2 Q25.4 51.25 25.4 41.15 L25.05 38.7 24.55 36.5 M-16.65 11.4 L-16.45 11.05 Q-16.45 12.05 -16.65 11.4 M-34.55 23.1 Q-34.4 22.2 -34.95 19.5 -35.6 20.45 -35.95 22.15 L-35.25 24.45 -34.45 26.45 -33.6 26.2 -34.55 23.1 M-33.8 22.9 L-33.35 24.2 -32.45 26.15 -32.05 26.0 Q-31.55 25.6 -30.65 23.35 L-29.25 20.1 -29.35 20.1 Q-30.85 20.1 -32.3 21.0 -33.8 21.9 -33.8 22.9 M-27.45 28.95 L-26.5 22.9 -27.55 24.6 -29.5 31.85 Q-30.25 34.25 -31.35 36.3 -33.6 40.45 -36.35 40.8 L-36.3 40.85 -35.35 40.75 Q-32.15 39.85 -29.55 34.8 -27.5 30.9 -27.45 28.95 M-30.3 29.6 L-29.9 28.05 -31.25 27.4 Q-32.15 27.0 -32.75 27.0 L-34.0 27.05 Q-33.95 27.25 -34.05 27.25 -34.05 28.15 -33.5 29.35 -32.85 30.75 -31.95 31.0 -30.7 30.35 -30.3 29.6" fill="#b37c0d" fill-rule="evenodd" stroke="none"/>
    <path d="M44.55 44.15 L45.2 45.45 Q45.7 46.35 45.7 47.2 45.7 51.25 45.2 55.15 L45.1 55.85 44.25 55.9 44.15 63.6 42.8 62.6 44.55 44.15 M44.2 66.0 L44.4 70.9 42.5 67.6 42.65 64.45 44.2 66.0 M38.1 69.1 L39.45 64.55 41.7 63.7 41.55 67.3 38.1 69.1 M39.8 63.2 L40.6 59.15 42.1 56.1 40.45 55.65 41.6 46.0 43.2 44.1 41.75 62.5 39.8 63.2 M49.8 58.3 L50.7 59.45 Q51.35 60.25 51.5 61.1 52.25 65.05 52.35 69.1 L52.4 69.8 51.6 69.95 52.8 77.55 51.3 76.75 49.8 58.3 M53.3 79.85 L54.4 84.65 51.9 81.75 51.5 78.65 53.3 79.85 M47.8 84.0 L48.35 79.3 50.4 78.1 50.9 81.6 47.8 84.0 M48.45 77.9 L48.55 73.8 49.5 70.5 47.8 70.4 47.3 60.6 48.5 58.45 50.25 76.9 48.45 77.9" fill="#934d22" fill-rule="evenodd" stroke="none"/>
    <path d="M48.7 39.8 L50.0 57.05 Q51.6 58.4 52.1 60.6 53.15 64.8 53.6 69.1 53.8 70.7 53.55 72.0 L52.4 71.55 55.4 84.95 54.5 86.15 56.5 90.95 54.95 92.7 Q55.4 94.15 55.3 95.55 L54.75 97.3 53.95 99.05 52.8 100.35 49.6 91.4 47.3 91.25 48.75 86.25 46.95 85.45 46.65 85.1 48.65 71.6 46.95 71.5 46.35 60.25 48.4 57.0 48.1 39.95 48.7 39.8 M44.15 63.6 L44.25 55.9 45.1 55.85 45.2 55.15 Q45.7 51.25 45.7 47.2 45.7 46.35 45.2 45.45 L44.55 44.15 43.95 43.4 43.2 44.1 41.6 46.0 40.45 55.65 42.1 56.1 40.6 59.15 39.8 63.2 39.45 64.55 38.1 69.1 39.95 71.05 37.35 75.35 39.55 76.05 40.4 84.4 42.8 81.15 42.75 78.65 44.3 77.1 43.4 71.8 44.4 70.9 44.2 66.0 44.15 63.6 M43.35 42.6 L45.15 35.0 44.95 42.9 Q46.2 44.5 46.35 46.8 46.65 51.1 46.35 55.4 46.25 57.0 45.8 58.25 L44.8 57.6 45.4 71.35 44.3 72.4 45.4 77.45 43.6 78.95 Q43.75 80.4 43.4 81.8 L42.6 83.45 41.55 84.95 40.2 86.05 38.55 76.7 36.35 76.1 38.65 71.5 37.0 70.4 36.8 70.0 41.05 57.0 39.45 56.65 40.75 45.45 43.35 42.6 M52.8 77.55 L51.6 69.95 52.4 69.8 52.35 69.1 Q52.25 65.05 51.5 61.1 51.35 60.25 50.7 59.45 L49.8 58.3 49.1 57.7 48.5 58.45 47.3 60.6 47.8 70.4 49.5 70.5 48.55 73.8 48.45 77.9 48.35 79.3 47.8 84.0 50.0 85.6 48.15 90.35 50.4 90.65 52.7 98.7 54.55 95.0 54.05 92.6 55.3 90.8 53.45 85.75 54.4 84.65 53.3 79.85 52.8 77.55" fill="#673618" fill-rule="evenodd" stroke="none"/>
    <path d="M44.55 44.15 L42.8 62.6 42.65 64.45 42.5 67.6 40.75 79.85 41.55 67.3 41.7 63.7 41.75 62.5 43.2 44.1 43.95 43.4 44.55 44.15 M49.8 58.3 L51.3 76.75 51.5 78.65 51.9 81.75 52.25 94.15 50.9 81.6 50.4 78.1 50.25 76.9 48.5 58.45 49.1 57.7 49.8 58.3" fill="#d37a45" fill-rule="evenodd" stroke="none"/>
    <path d="M42.8 62.6 L44.15 63.6 44.2 66.0 42.65 64.45 42.8 62.6 M44.4 70.9 L43.4 71.8 44.3 77.1 42.75 78.65 42.8 81.15 40.4 84.4 39.55 76.05 37.35 75.35 39.95 71.05 38.1 69.1 41.55 67.3 40.75 79.85 42.5 67.6 44.4 70.9 M39.45 64.55 L39.8 63.2 41.75 62.5 41.7 63.7 39.45 64.55 M51.3 76.75 L52.8 77.55 53.3 79.85 51.5 78.65 51.3 76.75 M54.4 84.65 L53.45 85.75 55.3 90.8 54.05 92.6 54.55 95.0 52.7 98.7 50.4 90.65 48.15 90.35 50.0 85.6 47.8 84.0 50.9 81.6 52.25 94.15 51.9 81.75 54.4 84.65 M48.35 79.3 L48.45 77.9 50.25 76.9 50.4 78.1 48.35 79.3" fill="#b45e29" fill-rule="evenodd" stroke="none"/>
    <path d="M50.75 29.65 L51.2 32.2 Q51.2 37.2 48.5 37.2 46.8 37.2 45.85 36.35 45.0 35.55 44.25 33.65 43.75 31.55 44.7 28.95 L44.9 28.5 44.7 30.15 Q44.7 31.75 45.45 32.9 46.1 34.05 47.1 34.05 48.1 34.05 48.85 32.9 49.55 31.75 49.55 30.15 49.55 28.55 48.85 27.45 L48.4 26.85 48.5 26.95 Q50.15 28.1 50.75 29.65 M45.45 27.4 L46.2 25.95 Q46.8 25.95 47.6 26.4 L47.1 26.3 Q46.15 26.3 45.45 27.4" fill="#12af98" fill-rule="evenodd" stroke="none"/>
    <path d="M50.9 28.15 Q53.1 32.05 53.1 35.2 53.1 38.1 51.4 40.55 49.9 42.8 48.8 42.8 46.6 42.8 44.1 39.05 41.7 35.45 41.7 32.65 41.7 27.95 43.4 25.6 44.7 23.9 46.1 23.9 48.55 23.9 50.9 28.15 M44.25 33.65 Q44.55 36.1 46.25 38.4 47.95 40.65 49.45 40.65 50.5 40.65 51.4 38.9 52.3 37.25 52.3 35.65 52.3 31.45 51.85 30.8 L50.75 29.65 Q50.15 28.1 48.5 26.95 L48.4 26.85 47.65 26.45 47.6 26.4 Q46.8 25.95 46.2 25.95 L45.45 27.4 45.45 27.45 44.9 28.5 44.7 28.95 Q43.75 31.55 44.25 33.65 M43.15 30.4 Q43.15 28.45 44.85 26.8 46.2 25.4 47.3 25.4 46.7 24.7 46.2 24.5 44.1 25.3 43.0 28.9 42.35 31.2 42.35 32.7 42.35 34.35 44.0 37.65 46.1 41.95 48.95 41.95 L49.6 41.8 49.85 41.6 Q45.3 39.2 44.3 37.5 43.15 35.7 43.15 30.4" fill="#4a2611" fill-rule="evenodd" stroke="none"/>
    <path d="M44.9 28.5 L45.45 27.45 45.45 27.4 Q46.15 26.3 47.1 26.3 L47.6 26.4 47.65 26.45 48.4 26.85 48.85 27.45 Q49.55 28.55 49.55 30.15 49.55 31.75 48.85 32.9 48.1 34.05 47.1 34.05 46.1 34.05 45.45 32.9 44.7 31.75 44.7 30.15 L44.9 28.5" fill="#16dcbe" fill-rule="evenodd" stroke="none"/>
    <path d="M50.75 29.65 L51.85 30.8 Q52.3 31.45 52.3 35.65 52.3 37.25 51.4 38.9 50.5 40.65 49.45 40.65 47.95 40.65 46.25 38.4 44.55 36.1 44.25 33.65 45.0 35.55 45.85 36.35 46.8 37.2 48.5 37.2 51.2 37.2 51.2 32.2 L50.75 29.65" fill="#0b6a5c" fill-rule="evenodd" stroke="none"/>
    <path d="M43.15 30.4 Q43.15 35.7 44.3 37.5 45.3 39.2 49.85 41.6 L49.6 41.8 48.95 41.95 Q46.1 41.95 44.0 37.65 42.35 34.35 42.35 32.7 42.35 31.2 43.0 28.9 44.1 25.3 46.2 24.5 46.7 24.7 47.3 25.4 46.2 25.4 44.85 26.8 43.15 28.45 43.15 30.4" fill="#934d22" fill-rule="evenodd" stroke="none"/>
  </g>
</svg>
