<?xml version="1.0" encoding="UTF-8" standalone="no"?>
<svg xmlns:ffdec="https://www.free-decompiler.com/flash" xmlns:xlink="http://www.w3.org/1999/xlink" ffdec:objectType="shape" height="86.7px" width="63.45px" xmlns="http://www.w3.org/2000/svg">
  <g transform="matrix(1.0, 0.0, 0.0, 1.0, 51.4, 37.15)">
    <path d="M-31.2 40.8 L-29.4 38.8 -28.95 38.15 -28.95 38.1 Q-26.85 33.85 -26.45 29.0 L-26.4 27.7 Q-26.6 23.05 -27.4 18.7 L-25.95 21.1 -25.9 21.25 Q-25.55 22.55 -25.4 25.05 L-25.4 25.2 -25.4 25.35 -25.4 25.45 -25.35 27.3 Q-25.35 30.0 -25.75 32.75 -26.35 37.1 -29.4 40.25 -33.35 44.15 -38.75 46.0 L-44.55 47.0 -47.55 47.35 Q-42.75 48.85 -37.85 48.25 -32.25 47.75 -27.45 44.65 -22.75 41.5 -20.4 36.2 -17.95 30.65 -18.8 24.7 L-19.25 21.9 -19.7 19.75 -19.65 19.75 -18.3 19.75 -18.0 20.85 Q-16.5 26.1 -17.55 31.5 -18.55 36.8 -21.75 41.2 -25.85 46.7 -32.7 48.75 -37.55 50.05 -42.55 49.3 -46.95 48.7 -50.35 46.9 -43.85 46.25 -39.8 45.1 -35.0 43.8 -31.2 40.8 M-50.7 47.45 L-51.4 47.25 -51.25 47.25 -50.7 47.45" fill="#606060" fill-rule="evenodd" stroke="none"/>
    <path d="M-19.7 19.75 L-19.25 21.9 -18.8 24.7 Q-17.95 30.65 -20.4 36.2 -22.75 41.5 -27.45 44.65 -32.25 47.75 -37.85 48.25 -42.75 48.85 -47.55 47.35 L-44.55 47.0 Q-41.15 47.7 -37.35 47.1 -31.8 46.0 -27.3 42.45 -24.65 40.4 -23.05 37.7 -22.35 36.35 -22.0 34.95 -21.0 30.7 -21.65 27.25 L-22.7 21.65 -19.7 19.75" fill="#989898" fill-rule="evenodd" stroke="none"/>
    <path d="M-44.55 47.0 L-38.75 46.0 -39.7 46.25 Q-33.45 45.7 -28.7 41.75 -24.7 38.45 -23.15 33.7 L-22.9 33.0 Q-21.9 28.9 -23.6 25.15 -24.05 27.45 -25.55 32.15 L-25.75 32.75 Q-25.35 30.0 -25.35 27.3 L-25.4 25.45 -25.4 25.35 -25.4 25.2 -25.4 25.05 Q-25.45 23.7 -24.65 22.9 L-24.65 22.85 Q-23.95 22.05 -22.7 21.65 L-21.65 27.25 Q-21.0 30.7 -22.0 34.95 -22.35 36.35 -23.05 37.7 -24.65 40.4 -27.3 42.45 -31.8 46.0 -37.35 47.1 -41.15 47.7 -44.55 47.0" fill="#d1d1d1" fill-rule="evenodd" stroke="none"/>
    <path d="M-38.75 46.0 Q-33.35 44.15 -29.4 40.25 -26.35 37.1 -25.75 32.75 L-25.55 32.15 Q-24.05 27.45 -23.6 25.15 -21.9 28.9 -22.9 33.0 L-23.15 33.7 Q-24.7 38.45 -28.7 41.75 -33.45 45.7 -39.7 46.25 L-38.75 46.0" fill="#ffffff" fill-rule="evenodd" stroke="none"/>
    <path d="M-24.0 -37.15 L-25.0 -36.3 -26.45 -35.05 Q-31.45 -30.5 -34.6 -24.95 -38.0 -19.05 -38.7 -13.7 -39.4 -8.4 -38.65 -3.95 -37.9 0.5 -37.0 3.75 L-35.8 8.15 -35.25 10.75 Q-34.75 13.7 -34.6 16.75 -34.3 22.55 -38.3 26.65 -42.2 30.65 -47.75 31.0 L-49.75 31.1 -48.55 32.0 Q-44.6 34.95 -39.85 35.45 L-31.7 34.75 -31.95 35.65 -33.7 39.3 -30.15 39.45 -29.4 38.8 -31.2 40.8 -33.5 40.45 Q-34.6 40.15 -35.15 39.5 L-33.05 36.0 -39.35 36.7 Q-44.2 36.4 -48.35 34.25 -51.2 32.9 -51.15 30.15 L-49.2 30.05 Q-43.45 29.9 -39.4 26.05 -34.9 21.7 -35.75 15.3 -36.55 9.55 -38.2 3.9 -39.8 -1.65 -40.2 -5.15 -40.6 -8.65 -40.5 -11.65 -40.45 -14.6 -38.85 -18.25 -37.3 -21.95 -35.15 -26.05 -32.05 -31.85 -26.6 -36.3 L-25.6 -37.15 -24.0 -37.15 M-19.65 19.75 L-21.15 13.4 Q-22.6 8.05 -22.5 2.45 -22.4 -3.55 -20.4 -9.15 L-19.4 -11.65 Q-15.85 -15.85 -11.4 -19.45 -6.05 -23.8 -0.15 -27.45 5.7 -30.95 10.1 -36.3 L10.65 -37.15 12.05 -37.15 11.6 -36.3 Q7.4 -30.7 1.15 -27.05 -3.95 -24.0 -8.6 -20.35 -13.75 -16.4 -17.9 -11.65 L-19.4 -7.95 Q-21.75 -1.25 -20.95 5.8 -20.15 12.85 -18.3 19.75 L-19.65 19.75" fill="#4d4d4d" fill-rule="evenodd" stroke="none"/>
    <path d="M-35.25 10.75 L-35.8 8.15 -37.0 3.75 Q-37.9 0.5 -38.65 -3.95 -39.4 -8.4 -38.7 -13.7 -38.0 -19.05 -34.6 -24.95 -31.45 -30.5 -26.45 -35.05 L-25.0 -36.3 -24.0 -37.15 10.65 -37.15 10.1 -36.3 Q5.7 -30.95 -0.15 -27.45 -6.05 -23.8 -11.4 -19.45 -15.85 -15.85 -19.4 -11.65 L-20.4 -9.15 Q-22.4 -3.55 -22.5 2.45 -22.6 8.05 -21.15 13.4 L-19.65 19.75 -19.7 19.75 -22.7 21.65 -23.3 20.6 Q-24.4 18.75 -26.7 16.85 L-25.9 21.25 -25.95 21.1 -27.4 18.7 -28.1 15.75 -30.3 14.25 Q-29.4 20.6 -29.3 27.15 -29.2 32.1 -30.1 36.85 L-29.35 35.9 Q-27.05 32.75 -26.45 29.0 -26.85 33.85 -28.95 38.1 L-28.95 38.15 -29.4 38.8 -30.15 39.45 -33.7 39.3 -31.95 35.65 -31.7 34.75 -39.85 35.45 Q-44.6 34.95 -48.55 32.0 L-49.75 31.1 -47.75 31.0 Q-42.55 33.7 -36.6 32.8 -31.0 31.95 -30.6 25.85 -30.25 20.35 -31.05 14.8 L-31.15 14.0 -34.8 11.15 -35.25 10.75" fill="#858585" fill-rule="evenodd" stroke="none"/>
    <path d="M-47.75 31.0 Q-42.2 30.65 -38.3 26.65 -34.3 22.55 -34.6 16.75 -34.75 13.7 -35.25 10.75 L-34.8 11.15 -31.15 14.0 -31.05 14.8 Q-30.25 20.35 -30.6 25.85 -31.0 31.95 -36.6 32.8 -42.55 33.7 -47.75 31.0 M-25.4 25.05 Q-25.55 22.55 -25.9 21.25 L-26.7 16.85 Q-24.4 18.75 -23.3 20.6 L-22.7 21.65 Q-23.95 22.05 -24.65 22.85 L-24.65 22.8 -24.7 22.7 -24.65 22.9 Q-25.45 23.7 -25.4 25.05 M-27.4 18.7 Q-26.6 23.05 -26.4 27.7 L-26.45 29.0 Q-27.05 32.75 -29.35 35.9 L-30.1 36.85 Q-29.2 32.1 -29.3 27.15 -29.4 20.6 -30.3 14.25 L-28.1 15.75 -27.4 18.7 M-37.15 28.1 Q-39.15 30.2 -42.1 31.15 -40.4 32.0 -38.35 31.75 -35.6 31.1 -33.95 28.75 -31.4 25.05 -31.65 20.65 L-33.2 18.0 Q-33.05 23.9 -37.15 28.1" fill="#9f9f9f" fill-rule="evenodd" stroke="none"/>
    <path d="M-37.15 28.1 Q-33.05 23.9 -33.2 18.0 L-31.65 20.65 Q-31.4 25.05 -33.95 28.75 -35.6 31.1 -38.35 31.75 -40.4 32.0 -42.1 31.15 -39.15 30.2 -37.15 28.1 M-24.65 22.9 L-24.7 22.7 -24.65 22.8 -24.65 22.85 -24.65 22.9" fill="#b4b4b4" fill-rule="evenodd" stroke="none"/>
  </g>
</svg>
