<?xml version="1.0" encoding="UTF-8" standalone="no"?>
<svg xmlns:ffdec="https://www.free-decompiler.com/flash" xmlns:xlink="http://www.w3.org/1999/xlink" ffdec:objectType="shape" height="16.75px" width="16.45px" xmlns="http://www.w3.org/2000/svg">
  <g transform="matrix(1.0, 0.0, 0.0, 1.0, 2.35, -2.15)">
    <path d="M10.25 5.35 L12.9 9.8 13.1 10.1 14.1 11.85 13.9 12.85 12.5 14.2 12.4 14.3 11.55 12.8 9.2 8.6 8.25 6.9 8.25 6.85 Q9.3 5.75 10.25 5.35 M6.75 2.6 L7.2 2.85 Q8.5 3.65 8.0 6.45 L7.3 5.25 Q7.35 4.05 6.75 2.6" fill="#b4b4b4" fill-rule="evenodd" stroke="none"/>
    <path d="M12.4 14.3 L10.75 14.75 9.7 14.45 Q9.05 11.8 5.0 6.25 4.15 5.7 2.75 5.75 L0.35 6.55 -1.2 7.15 -1.0 6.1 Q-0.55 5.85 -0.15 5.7 L1.7 4.35 2.05 4.45 Q3.15 4.9 3.1 4.15 3.05 3.6 3.35 3.2 L3.4 3.1 3.6 2.85 Q4.25 2.4 4.4 2.5 L5.3 2.15 Q5.95 2.1 6.75 2.6 7.35 4.05 7.3 5.25 L8.0 6.45 7.8 7.3 8.25 6.85 8.25 6.9 9.2 8.6 11.55 12.8 12.4 14.3 M9.7 16.4 L10.35 17.8 10.0 18.35 9.85 18.4 9.65 18.0 9.7 16.4 M0.0 15.8 L-0.25 15.75 -1.2 15.2 -1.85 14.2 -2.35 13.0 -2.1 11.5 0.0 15.8" fill="#e0e0e0" fill-rule="evenodd" stroke="none"/>
    <path d="M10.25 5.35 L12.2 5.25 12.75 6.15 13.7 7.7 13.45 8.55 12.9 9.75 12.9 9.8 10.25 5.35 M13.1 10.1 L13.9 10.65 14.05 11.5 14.1 11.85 13.1 10.1" fill="#464646" fill-rule="evenodd" stroke="none"/>
    <path d="M9.7 14.45 L8.45 14.1 9.7 16.4 9.65 18.0 9.85 18.4 10.0 18.35 8.8 18.9 Q8.15 19.0 8.2 18.45 L7.15 14.6 Q6.25 17.35 5.45 17.85 4.6 18.4 4.15 18.4 L2.8 18.25 1.45 17.7 Q1.05 17.35 1.45 16.4 1.8 15.45 1.1 15.65 L0.0 15.8 -2.1 11.5 -1.85 11.05 Q-1.3 10.0 1.9 9.95 -0.65 8.7 -1.05 8.05 L-1.2 7.65 -1.2 7.15 0.35 6.55 2.75 5.75 Q4.15 5.7 5.0 6.25 9.05 11.8 9.7 14.45 M-1.0 6.1 Q-0.75 5.4 -0.1 4.8 0.7 4.1 1.7 4.35 L-0.15 5.7 Q-0.55 5.85 -1.0 6.1 M3.35 3.2 L3.4 3.1 3.35 3.2" fill="#ffffff" fill-rule="evenodd" stroke="none"/>
  </g>
</svg>
