<?xml version="1.0" encoding="UTF-8" standalone="no"?>
<svg xmlns:ffdec="https://www.free-decompiler.com/flash" xmlns:xlink="http://www.w3.org/1999/xlink" ffdec:objectType="shape" height="94.2px" width="89.2px" xmlns="http://www.w3.org/2000/svg">
  <g transform="matrix(1.0, 0.0, 0.0, 1.0, 63.25, 31.8)">
    <path d="M14.6 -10.9 L15.8 -9.7 16.2 -5.0 15.15 -0.2 Q15.4 -5.6 14.6 -10.9 M-53.1 -27.6 L-50.9 -29.05 Q-50.1 -28.05 -48.25 -27.35 L-47.65 -27.8 -41.9 -31.5 -39.75 -31.7 -40.3 -31.45 -40.4 -31.35 Q-43.45 -29.65 -46.1 -27.45 L-48.25 -26.65 -49.95 -25.05 Q-51.0 -24.05 -51.5 -20.4 -53.3 -24.1 -53.1 -27.6 M-25.3 -30.8 L-23.15 -30.35 Q-25.3 -28.4 -25.3 -26.05 L-24.8 -24.3 -24.4 -23.45 Q-21.55 -18.8 -17.15 -15.45 -12.55 -11.85 -9.45 -7.15 -6.35 -2.5 -4.1 2.7 -1.95 7.75 -1.95 13.2 -1.9 18.9 -2.9 24.8 L-4.2 32.6 -4.7 35.7 Q-5.6 41.35 -4.0 46.8 -2.45 52.0 1.85 55.3 6.35 58.85 11.9 59.95 15.7 60.55 19.1 59.85 L22.1 60.2 Q17.3 61.7 12.4 61.1 6.8 60.6 2.0 57.5 -2.7 54.35 -5.05 49.05 -7.5 43.5 -6.65 37.55 L-5.75 32.6 -4.3 26.25 Q-2.85 20.9 -2.95 15.3 -3.05 9.3 -5.05 3.7 -7.05 -1.95 -10.95 -6.6 -14.6 -10.95 -19.1 -14.6 -23.55 -18.1 -25.85 -23.45 L-26.1 -24.3 Q-26.65 -26.4 -26.35 -28.75 L-26.85 -28.4 -30.2 -24.95 -31.3 -23.8 Q-35.45 -19.5 -38.65 -17.25 L-46.25 -12.25 Q-50.65 -9.5 -54.4 -2.1 -58.15 5.35 -54.5 18.4 -56.75 15.95 -58.2 13.3 -61.8 6.8 -61.25 -0.1 L-61.25 -0.3 Q-61.0 -2.6 -60.35 -4.95 L-60.3 -5.1 -60.2 -5.45 -59.25 -8.3 -59.2 -8.05 -59.75 -5.8 Q-60.3 -3.75 -60.3 -2.1 L-59.95 1.8 Q-59.55 4.35 -58.95 5.4 -57.3 -1.25 -54.9 -5.3 -51.3 -11.3 -44.15 -16.2 L-36.9 -20.9 Q-32.6 -23.8 -30.15 -26.1 L-27.4 -28.85 -25.3 -30.8 M-4.15 -23.5 L-1.9 -22.4 -0.5 -21.65 Q2.7 -18.9 4.8 -15.15 7.7 -10.1 8.55 -4.4 9.4 1.0 8.8 6.5 8.25 11.8 7.3 16.9 L5.6 27.65 Q5.25 30.15 5.15 32.6 4.95 35.65 5.15 38.7 5.55 44.8 11.15 45.65 17.1 46.55 22.3 43.85 L24.3 43.95 23.1 44.85 Q19.15 47.8 14.4 48.3 L6.25 47.6 6.5 48.5 8.25 52.15 4.7 52.3 Q3.95 51.8 3.5 50.95 1.4 46.7 1.0 41.85 1.6 45.6 3.9 48.75 L4.65 49.7 Q3.75 44.95 3.85 40.0 3.9 36.25 4.25 32.6 4.5 29.15 5.05 25.75 L6.7 14.95 7.95 5.35 Q8.35 1.3 7.9 -2.5 6.9 -10.6 1.95 -17.0 -0.75 -20.55 -4.1 -23.45 L-4.15 -23.5 M-0.05 38.3 L0.7 32.6 1.8 27.3 Q3.1 21.9 3.75 16.55 4.45 11.2 3.75 5.8 3.05 0.5 1.2 -4.5 -0.85 -10.0 -4.0 -15.0 L-5.0 -16.55 Q-1.25 -14.15 0.4 -9.85 2.1 -5.45 3.4 -0.8 4.5 3.3 4.95 7.75 5.4 12.35 4.7 17.05 L3.25 25.65 1.95 31.55 -0.05 38.3 M-58.4 -16.4 Q-54.75 -22.75 -53.3 -18.75 -59.75 -12.65 -61.85 -6.55 L-61.95 -6.3 -61.95 -6.85 Q-62.1 -10.1 -58.4 -16.4" fill="#989898" fill-rule="evenodd" stroke="none"/>
    <path d="M11.95 -13.3 L14.6 -10.9 Q15.4 -5.6 15.15 -0.2 14.85 4.15 13.8 8.25 L11.0 18.55 Q9.4 23.9 9.15 29.6 9.05 31.15 9.3 32.6 9.95 36.5 12.85 39.5 16.75 43.5 22.3 43.85 17.1 46.55 11.15 45.65 5.55 44.8 5.15 38.7 4.95 35.65 5.15 32.6 5.25 30.15 5.6 27.65 L7.3 16.9 Q8.25 11.8 8.8 6.5 9.4 1.0 8.55 -4.4 7.7 -10.1 4.8 -15.15 2.7 -18.9 -0.5 -21.65 L0.6 -21.05 5.0 -18.4 5.2 -18.1 Q12.05 -8.65 10.95 3.05 10.4 9.05 9.3 15.05 L7.95 22.25 Q7.0 27.2 6.3 32.35 L6.3 32.6 Q5.65 37.55 8.5 41.6 10.15 43.95 12.9 44.6 14.95 44.85 16.65 44.0 13.7 43.05 11.7 40.95 8.25 37.4 7.8 32.6 7.7 31.6 7.75 30.5 7.95 25.2 9.2 19.85 L11.6 8.85 Q12.75 3.15 12.85 -2.8 12.95 -8.2 11.95 -13.3 M-27.65 -26.2 L-27.7 -26.45 -27.65 -26.45 -27.65 -26.2 M-50.9 -29.05 L-49.4 -29.7 -49.45 -29.65 -49.25 -29.75 -48.25 -30.15 Q-45.5 -31.1 -41.9 -31.5 L-47.65 -27.8 -48.25 -27.35 Q-50.1 -28.05 -50.9 -29.05 M-39.75 -31.7 L-37.6 -31.8 -36.35 -31.8 -38.75 -30.45 Q-43.35 -27.7 -45.0 -24.35 -46.7 -21.0 -51.9 -16.35 -57.15 -11.7 -59.15 -1.1 -54.9 -10.65 -49.75 -15.15 L-42.7 -20.9 -37.4 -24.2 Q-33.65 -26.45 -33.65 -27.05 -33.65 -27.4 -34.15 -27.4 L-38.25 -26.4 -38.2 -26.45 Q-33.45 -29.65 -30.55 -31.15 L-29.75 -31.45 -25.3 -30.8 -27.4 -28.85 -30.15 -26.1 Q-32.6 -23.8 -36.9 -20.9 L-44.15 -16.2 Q-51.3 -11.3 -54.9 -5.3 -57.3 -1.25 -58.95 5.4 -59.55 4.35 -59.95 1.8 L-60.3 -2.1 Q-60.3 -3.75 -59.75 -5.8 L-59.2 -8.05 -59.25 -8.3 Q-57.2 -13.9 -50.1 -20.05 -50.8 -23.65 -46.1 -27.45 -43.45 -29.65 -40.4 -31.35 L-40.3 -31.45 -39.75 -31.7 M-23.15 -30.35 L-20.6 -29.7 -21.5 -28.7 Q-22.1 -27.55 -22.1 -25.5 L-21.75 -24.3 -21.25 -23.45 Q-17.65 -19.55 -13.6 -16.0 -8.8 -11.8 -5.1 -6.8 -2.05 -2.65 -0.6 2.4 0.95 7.85 0.45 13.45 0.0 18.9 -1.0 24.1 L-2.5 32.6 -3.05 35.8 Q-3.95 41.3 -2.3 46.55 -0.75 51.3 3.25 54.6 8.0 58.55 14.25 59.1 L13.3 58.85 19.1 59.85 Q15.7 60.55 11.9 59.95 6.35 58.85 1.85 55.3 -2.45 52.0 -4.0 46.8 -5.6 41.35 -4.7 35.7 L-4.2 32.6 -2.9 24.8 Q-1.9 18.9 -1.95 13.2 -1.95 7.75 -4.1 2.7 -6.35 -2.5 -9.45 -7.15 -12.55 -11.85 -17.15 -15.45 -21.55 -18.8 -24.4 -23.45 L-24.8 -24.3 -25.3 -26.05 Q-25.3 -28.4 -23.15 -30.35 M-18.65 -29.15 L-15.4 -28.15 Q-15.35 -26.2 -12.85 -24.3 L-12.65 -24.15 -11.5 -23.45 Q-7.4 -21.25 -3.9 -18.0 0.0 -14.5 2.25 -9.75 4.3 -5.4 5.25 -0.65 6.0 3.2 6.1 7.1 L6.45 7.4 Q6.9 4.75 6.8 2.15 6.55 -3.5 4.85 -8.65 3.55 -12.55 0.75 -15.5 -3.35 -19.9 -8.0 -23.45 L-8.1 -23.5 -9.3 -24.3 -11.2 -25.4 Q-12.0 -25.65 -13.5 -27.1 L-14.2 -27.7 Q-9.95 -26.2 -5.55 -24.15 L-4.15 -23.5 -4.1 -23.45 Q-0.75 -20.55 1.95 -17.0 6.9 -10.6 7.9 -2.5 8.35 1.3 7.95 5.35 L6.7 14.95 5.05 25.75 Q4.5 29.15 4.25 32.6 3.9 36.25 3.85 40.0 3.75 44.95 4.65 49.7 L3.9 48.75 Q1.6 45.6 1.0 41.85 L0.95 40.55 Q1.15 36.45 1.8 32.6 L1.95 31.55 3.25 25.65 4.7 17.05 Q5.4 12.35 4.95 7.75 4.5 3.3 3.4 -0.8 2.1 -5.45 0.4 -9.85 -1.25 -14.15 -5.0 -16.55 L-4.0 -15.0 Q-0.85 -10.0 1.2 -4.5 3.05 0.5 3.75 5.8 4.45 11.2 3.75 16.55 3.1 21.9 1.8 27.3 L0.7 32.6 -0.05 38.3 -0.1 40.15 Q-0.1 42.85 0.3 45.6 -1.35 40.45 -0.7 35.05 L-0.4 32.6 0.8 24.75 Q1.8 19.3 2.15 13.8 2.55 7.85 1.0 2.25 -0.45 -3.0 -2.4 -8.15 -4.5 -13.6 -8.95 -17.1 L-16.55 -23.45 -17.3 -24.3 -17.6 -24.65 Q-18.65 -26.15 -18.65 -29.15" fill="#d1d1d1" fill-rule="evenodd" stroke="none"/>
    <path d="M5.0 -18.4 L5.9 -17.8 7.65 -16.65 11.95 -13.3 Q12.95 -8.2 12.85 -2.8 12.75 3.15 11.6 8.85 L9.2 19.85 Q7.95 25.2 7.75 30.5 7.7 31.6 7.8 32.6 8.25 37.4 11.7 40.95 13.7 43.05 16.65 44.0 14.95 44.85 12.9 44.6 10.15 43.95 8.5 41.6 5.65 37.55 6.3 32.6 L6.3 32.35 Q7.0 27.2 7.95 22.25 L9.3 15.05 Q10.4 9.05 10.95 3.05 12.05 -8.65 5.2 -18.1 L5.0 -18.4 M-49.4 -29.7 L-49.25 -29.75 -49.45 -29.65 -49.4 -29.7 M-36.35 -31.8 L-29.75 -31.45 -30.55 -31.15 Q-33.45 -29.65 -38.2 -26.45 L-38.25 -26.4 -34.15 -27.4 Q-33.65 -27.4 -33.65 -27.05 -33.65 -26.45 -37.4 -24.2 L-42.7 -20.9 -49.75 -15.15 Q-54.9 -10.65 -59.15 -1.1 -57.15 -11.7 -51.9 -16.35 -46.7 -21.0 -45.0 -24.35 -43.35 -27.7 -38.75 -30.45 L-36.35 -31.8 M-20.6 -29.7 L-18.65 -29.15 Q-18.65 -26.15 -17.6 -24.65 L-17.3 -24.3 -16.55 -23.45 -8.95 -17.1 Q-4.5 -13.6 -2.4 -8.15 -0.45 -3.0 1.0 2.25 2.55 7.85 2.15 13.8 1.8 19.3 0.8 24.75 L-0.4 32.6 -0.7 35.05 Q-1.35 40.45 0.3 45.6 0.9 49.95 3.95 53.1 7.9 57.0 13.3 58.85 L14.25 59.1 Q8.0 58.55 3.25 54.6 -0.75 51.3 -2.3 46.55 -3.95 41.3 -3.05 35.8 L-2.5 32.6 -1.0 24.1 Q0.0 18.9 0.45 13.45 0.95 7.85 -0.6 2.4 -2.05 -2.65 -5.1 -6.8 -8.8 -11.8 -13.6 -16.0 -17.65 -19.55 -21.25 -23.45 L-21.75 -24.3 -22.1 -25.5 Q-22.1 -27.55 -21.5 -28.7 L-20.6 -29.7 M-15.4 -28.15 L-14.2 -27.7 -13.5 -27.1 Q-12.0 -25.65 -11.2 -25.4 L-9.3 -24.3 -8.1 -23.5 -8.0 -23.45 Q-3.35 -19.9 0.75 -15.5 3.55 -12.55 4.85 -8.65 6.55 -3.5 6.8 2.15 6.9 4.75 6.45 7.4 L6.1 7.1 Q6.0 3.2 5.25 -0.65 4.3 -5.4 2.25 -9.75 0.0 -14.5 -3.9 -18.0 -7.4 -21.25 -11.5 -23.45 L-12.65 -24.15 -12.85 -24.3 Q-15.35 -26.2 -15.4 -28.15" fill="#ffffff" fill-rule="evenodd" stroke="none"/>
    <path d="M16.2 -5.0 Q16.55 0.3 15.45 5.65 14.35 11.2 12.75 16.75 11.1 22.4 10.3 28.15 10.0 30.5 10.4 32.6 11.1 36.15 13.95 38.9 18.0 42.75 23.75 42.9 L25.7 43.0 Q25.75 45.75 22.9 47.1 18.75 49.25 13.9 49.55 10.8 49.7 7.6 48.85 L9.7 52.35 Q9.15 53.0 8.05 53.3 L5.75 53.65 Q9.55 56.65 14.35 57.95 18.4 59.1 24.9 59.75 21.5 61.55 17.1 62.15 12.1 62.9 7.25 61.6 0.4 59.55 -3.7 54.05 -6.9 49.65 -7.9 44.35 -8.95 38.95 -7.45 33.7 L-7.15 32.6 Q-5.3 25.7 -4.5 18.65 -3.7 11.6 -6.05 4.9 -8.45 -2.05 -13.4 -7.5 -16.65 -11.15 -20.55 -14.2 -25.35 -17.85 -27.35 -23.45 L-27.5 -24.3 -27.65 -26.15 -27.65 -26.2 -27.65 -26.45 -27.7 -26.45 Q-34.55 -17.6 -44.4 -11.7 -50.3 -8.25 -52.85 -1.85 -57.4 9.7 -51.7 21.1 -56.5 20.2 -60.15 13.6 -63.85 6.95 -62.7 -5.3 -65.1 -12.15 -56.55 -22.15 L-56.5 -23.5 -56.45 -23.65 -54.6 -26.3 -53.4 -27.4 -53.1 -27.6 Q-53.3 -24.1 -51.5 -20.4 -51.0 -24.05 -49.95 -25.05 L-48.25 -26.65 -46.1 -27.45 Q-50.8 -23.65 -50.1 -20.05 -57.2 -13.9 -59.25 -8.3 L-60.2 -5.45 -60.3 -5.1 -60.35 -4.95 Q-61.0 -2.6 -61.25 -0.3 L-61.25 -0.1 Q-61.8 6.8 -58.2 13.3 -56.75 15.95 -54.5 18.4 -58.15 5.35 -54.4 -2.1 -50.65 -9.5 -46.25 -12.25 L-38.65 -17.25 Q-35.45 -19.5 -31.3 -23.8 L-30.2 -24.95 -26.85 -28.4 -26.35 -28.75 Q-26.65 -26.4 -26.1 -24.3 L-25.85 -23.45 Q-23.55 -18.1 -19.1 -14.6 -14.6 -10.95 -10.95 -6.6 -7.05 -1.95 -5.05 3.7 -3.05 9.3 -2.95 15.3 -2.85 20.9 -4.3 26.25 L-5.75 32.6 -6.65 37.55 Q-7.5 43.5 -5.05 49.05 -2.7 54.35 2.0 57.5 6.8 60.6 12.4 61.1 17.3 61.7 22.1 60.2 L19.1 59.85 13.3 58.85 Q7.9 57.0 3.95 53.1 0.9 49.95 0.3 45.6 -0.1 42.85 -0.1 40.15 L-0.05 38.3 1.95 31.55 1.8 32.6 Q1.15 36.45 0.95 40.55 L1.0 41.85 Q1.4 46.7 3.5 50.95 3.95 51.8 4.7 52.3 L8.25 52.15 6.5 48.5 6.25 47.6 14.4 48.3 Q19.15 47.8 23.1 44.85 L24.3 43.95 22.3 43.85 Q16.75 43.5 12.85 39.5 9.95 36.5 9.3 32.6 9.05 31.15 9.15 29.6 9.4 23.9 11.0 18.55 L13.8 8.25 Q14.85 4.15 15.15 -0.2 L16.2 -5.0 M25.25 60.3 L25.8 60.1 25.95 60.1 25.25 60.3 M-58.4 -16.4 Q-62.1 -10.1 -61.95 -6.85 L-61.95 -6.3 -61.85 -6.55 Q-59.75 -12.65 -53.3 -18.75 -54.75 -22.75 -58.4 -16.4" fill="#606060" fill-rule="evenodd" stroke="none"/>
  </g>
</svg>
