<?xml version="1.0" encoding="UTF-8" standalone="no"?>
<svg xmlns:ffdec="https://www.free-decompiler.com/flash" xmlns:xlink="http://www.w3.org/1999/xlink" ffdec:objectType="shape" height="135.25px" width="134.4px" xmlns="http://www.w3.org/2000/svg">
  <g transform="matrix(1.0, 0.0, 0.0, 1.0, -1.55, -1.2)">
    <path d="M133.05 47.9 L127.95 56.25 135.95 61.75 129.25 68.8 135.95 75.9 127.95 81.4 133.05 89.75 124.0 93.4 127.3 102.65 117.7 104.4 118.95 114.05 109.2 113.75 108.45 123.5 99.0 121.2 96.25 130.6 87.45 126.35 82.8 134.9 75.05 129.0 68.75 136.45 62.45 129.0 54.7 134.9 50.05 126.35 41.25 130.6 38.5 121.2 29.0 123.5 28.3 113.75 18.5 114.05 19.8 104.4 10.2 102.65 13.45 93.4 4.45 89.75 9.55 81.4 1.55 75.9 8.25 68.85 1.55 61.75 9.55 56.25 4.45 47.9 13.45 44.2 10.2 35.0 19.8 33.25 18.5 23.6 28.3 23.85 29.0 14.1 38.5 16.45 41.25 7.05 50.05 11.25 54.7 2.75 62.45 8.65 68.7 1.2 75.05 8.65 82.8 2.75 87.45 11.25 96.25 7.05 99.0 16.45 108.45 14.1 109.2 23.85 118.95 23.6 117.7 33.25 127.3 35.0 124.0 44.2 133.05 47.9" fill="#ffffff" fill-rule="evenodd" stroke="none"/>
  </g>
</svg>
