<?xml version="1.0" encoding="UTF-8" standalone="no"?>
<svg xmlns:ffdec="https://www.free-decompiler.com/flash" xmlns:xlink="http://www.w3.org/1999/xlink" ffdec:objectType="shape" height="27.3px" width="27.25px" xmlns="http://www.w3.org/2000/svg">
  <g transform="matrix(1.0, 0.0, 0.0, 1.0, 0.0, 0.0)">
    <path d="M22.0 4.15 L22.55 4.65 Q26.25 8.4 26.25 13.65 26.25 18.9 22.55 22.55 L22.0 23.1 22.0 4.15 M5.75 23.55 L4.65 22.55 Q1.0 18.9 1.0 13.65 1.0 8.4 4.65 4.65 L5.75 3.7 5.75 23.55" fill="#dadada" fill-rule="evenodd" stroke="none"/>
    <path d="M22.0 23.1 Q19.65 25.25 16.6 26.0 L16.6 1.35 Q19.65 2.0 22.0 4.15 L22.0 23.1 M11.25 26.1 Q8.2 25.55 5.75 23.55 L5.75 3.7 Q8.2 1.7 11.25 1.2 L11.25 26.1" fill="#ebebeb" fill-rule="evenodd" stroke="none"/>
    <path d="M16.6 26.0 L13.6 26.3 11.25 26.1 11.25 1.2 13.6 1.0 16.6 1.35 16.6 26.0" fill="#ffffff" fill-rule="evenodd" stroke="none"/>
    <path d="M22.65 3.4 L22.7 3.4 23.25 3.95 Q27.25 8.0 27.25 13.65 27.25 19.3 23.25 23.25 L23.35 23.2 22.7 23.85 22.65 23.9 Q20.1 26.15 16.85 27.0 L16.8 27.0 13.6 27.3 11.1 27.1 Q7.75 26.5 5.15 24.35 L3.95 23.25 Q0.0 19.3 0.0 13.65 0.0 8.0 3.95 3.95 L5.15 2.95 5.15 2.9 Q7.8 0.75 11.1 0.25 L13.6 0.0 16.8 0.4 Q20.1 1.05 22.65 3.4 M22.0 23.1 L22.55 22.55 Q26.25 18.9 26.25 13.65 26.25 8.4 22.55 4.65 L22.0 4.15 Q19.65 2.0 16.6 1.35 L13.6 1.0 11.25 1.2 Q8.2 1.7 5.75 3.7 L4.65 4.65 Q1.0 8.4 1.0 13.65 1.0 18.9 4.65 22.55 L5.75 23.55 Q8.2 25.55 11.25 26.1 L13.6 26.3 16.6 26.0 Q19.65 25.25 22.0 23.1" fill="#623615" fill-rule="evenodd" stroke="none"/>
    <path d="M21.8 12.0 L21.7 11.1 21.1 9.5 21.1 9.55 20.0 7.9 18.85 6.75 17.65 6.05 17.6 6.05 17.45 6.0 17.0 5.85 16.6 5.7 15.45 5.45 14.95 5.5 13.6 5.75 12.25 5.5 Q11.6 5.2 9.6 6.05 7.5 6.95 6.1 9.55 L6.1 9.5 6.05 9.55 6.0 9.65 5.95 9.75 5.9 9.85 5.85 9.95 5.8 10.05 5.45 11.55 Q5.35 12.3 5.4 13.1 L5.45 13.1 5.65 14.35 5.8 15.0 5.85 15.1 5.9 15.15 6.6 16.95 6.9 17.65 8.2 19.7 10.1 19.7 9.1 16.75 8.55 15.15 8.4 14.8 8.35 14.8 8.15 13.3 8.15 13.2 8.15 12.95 Q8.1 11.55 8.75 10.5 L8.75 10.45 9.0 10.1 9.25 9.75 9.35 9.7 9.5 9.55 9.55 9.5 10.75 8.55 11.55 8.25 11.6 8.25 13.6 8.05 15.1 8.1 16.6 8.7 17.75 9.6 17.85 9.7 Q19.2 11.05 19.1 13.1 L18.95 14.2 18.85 14.8 18.8 14.8 17.1 19.7 19.0 19.7 Q20.65 17.4 21.35 15.1 21.9 13.45 21.8 12.0 M22.3 15.15 L22.3 15.35 Q21.55 17.55 20.15 19.7 L20.2 19.7 Q20.65 19.75 20.65 20.15 L20.65 20.35 20.65 22.2 20.4 22.7 19.95 22.9 17.55 22.9 17.45 22.9 17.3 22.9 16.5 22.6 16.45 22.55 16.15 22.35 16.0 22.0 16.0 21.85 16.05 19.9 16.15 19.6 16.15 19.55 17.95 14.5 17.95 14.55 Q18.6 11.95 17.15 10.4 15.7 8.8 13.65 9.0 L13.55 9.0 Q11.5 8.8 10.1 10.4 L10.05 10.4 Q8.6 11.95 9.3 14.55 L9.3 14.5 11.05 19.55 11.1 19.6 11.15 19.9 11.2 21.85 11.2 22.0 11.05 22.35 10.8 22.55 10.75 22.6 9.95 22.9 9.75 22.9 9.65 22.9 7.25 22.9 6.8 22.7 Q6.5 22.4 6.55 22.2 L6.55 20.35 6.6 20.15 Q6.55 19.75 7.0 19.7 5.6 17.55 4.95 15.35 L4.9 15.15 Q3.85 11.85 5.25 9.1 6.8 6.15 9.25 5.2 L9.2 5.2 Q11.85 4.05 12.7 4.7 L12.75 4.7 13.55 4.8 13.7 4.8 14.45 4.7 14.5 4.7 Q15.35 4.05 18.0 5.2 20.4 6.15 21.95 9.1 23.35 11.85 22.3 15.15 M7.7 20.35 L7.5 20.5 7.5 21.95 9.65 21.95 10.25 21.75 10.2 20.15 10.05 20.15 8.15 20.15 7.7 20.35 M17.55 21.95 L19.7 21.95 19.7 20.5 19.45 20.35 19.05 20.15 17.15 20.15 17.0 20.15 16.95 21.75 17.55 21.95" fill="#623615" fill-rule="evenodd" stroke="none"/>
    <path d="M21.7 11.1 L20.8 11.8 Q20.6 10.1 19.6 8.95 L19.2 8.5 20.0 7.9 21.1 9.55 21.1 9.5 21.7 11.1 M20.85 12.75 L21.45 12.25 21.8 12.0 Q21.9 13.45 21.35 15.1 20.65 17.4 19.0 19.7 L17.1 19.7 18.8 14.8 18.85 14.8 18.95 14.2 20.0 13.4 19.95 12.5 Q20.35 15.25 18.9 18.35 20.55 16.05 20.8 13.35 L20.85 12.75 M19.1 13.1 Q19.2 11.05 17.85 9.7 L17.75 9.6 18.5 9.05 Q19.25 9.95 19.65 11.3 L19.95 12.5 19.1 13.1 M16.6 8.7 L15.1 8.1 16.0 7.45 Q16.75 7.65 17.4 8.05 L16.6 8.7 M13.6 8.05 L11.6 8.25 15.2 5.6 15.45 5.45 16.6 5.7 13.6 8.05 M8.75 10.5 Q8.1 11.55 8.15 12.95 L8.15 12.2 7.2 13.0 7.5 11.5 8.75 10.5 M8.15 13.3 L8.35 14.8 8.4 14.8 8.55 15.15 7.7 15.85 7.45 16.15 7.2 14.1 8.15 13.3 M9.1 16.75 L10.1 19.7 8.2 19.7 6.9 17.65 7.3 18.3 7.9 17.8 8.25 18.35 8.0 17.7 9.1 16.75 M6.6 16.95 L5.9 15.15 6.6 14.6 7.2 16.4 6.6 16.95 M5.65 14.35 L5.45 13.1 6.0 12.6 6.35 12.35 6.4 13.35 6.6 14.6 6.4 13.65 5.65 14.35 M17.65 6.05 L18.85 6.75 18.0 7.5 Q17.4 7.05 16.75 6.85 L17.65 6.05 M7.7 20.35 L9.65 20.35 9.65 21.95 7.5 21.95 7.5 20.5 7.7 20.35 M19.45 20.35 L19.7 20.5 19.7 21.95 17.55 21.95 17.55 20.35 19.45 20.35" fill="#facc14" fill-rule="evenodd" stroke="none"/>
    <path d="M21.7 11.1 L21.8 12.0 21.45 12.25 20.85 12.75 20.85 12.55 20.8 11.8 21.7 11.1 M18.95 14.2 L19.1 13.1 19.95 12.5 20.0 13.4 18.95 14.2 M17.75 9.6 L16.6 8.7 17.4 8.05 17.4 8.0 17.85 8.35 18.5 9.05 17.75 9.6 M15.1 8.1 L13.6 8.05 16.6 5.7 17.0 5.85 17.45 6.0 17.6 6.05 17.65 6.05 16.75 6.85 16.3 6.65 Q15.15 6.65 15.85 7.4 L16.0 7.45 15.1 8.1 M11.6 8.25 L11.55 8.25 10.75 8.55 9.55 9.5 9.5 9.55 9.35 9.7 9.25 9.75 9.0 10.1 8.75 10.45 8.75 10.5 7.5 11.5 7.55 11.3 Q8.55 8.05 11.3 7.4 12.05 6.65 10.9 6.65 9.0 7.25 7.6 8.95 6.4 10.3 6.35 12.35 L6.0 12.6 5.45 13.1 5.4 13.1 Q5.35 12.3 5.45 11.55 L5.8 10.05 5.85 9.95 5.9 9.85 5.95 9.75 6.0 9.65 6.05 9.55 6.1 9.5 6.1 9.55 Q7.5 6.95 9.6 6.05 11.6 5.2 12.25 5.5 L13.6 5.75 14.95 5.5 15.45 5.45 15.2 5.6 11.6 8.25 M8.15 12.95 L8.15 13.2 8.15 13.3 7.2 14.1 7.2 13.0 8.15 12.2 8.15 12.95 M8.55 15.15 L9.1 16.75 8.0 17.7 7.45 16.15 7.7 15.85 8.55 15.15 M6.9 17.65 L6.6 16.95 7.2 16.4 7.2 16.5 7.3 16.7 7.4 16.9 7.9 17.8 7.3 18.3 6.9 17.65 M5.9 15.15 L5.85 15.1 5.8 15.0 5.65 14.35 6.4 13.65 6.6 14.6 5.9 15.15 M18.85 6.75 L20.0 7.9 19.2 8.5 18.95 8.25 18.0 7.5 18.85 6.75" fill="#fff35e" fill-rule="evenodd" stroke="none"/>
    <path d="M20.8 11.8 L20.85 12.55 20.85 12.75 20.8 13.35 Q20.55 16.05 18.9 18.35 20.35 15.25 19.95 12.5 L19.65 11.3 Q19.25 9.95 18.5 9.05 L17.85 8.35 17.4 8.0 17.4 8.05 Q16.75 7.65 16.0 7.45 L15.85 7.4 Q15.15 6.65 16.3 6.65 L16.75 6.85 Q17.4 7.05 18.0 7.5 L18.95 8.25 19.2 8.5 19.6 8.95 Q20.6 10.1 20.8 11.8 M6.35 12.35 Q6.4 10.3 7.6 8.95 9.0 7.25 10.9 6.65 12.05 6.65 11.3 7.4 8.55 8.05 7.55 11.3 L7.5 11.5 7.2 13.0 7.2 14.1 7.45 16.15 8.0 17.7 8.25 18.35 7.9 17.8 7.4 16.9 7.3 16.7 7.2 16.5 7.2 16.4 6.6 14.6 6.4 13.35 6.35 12.35 M9.65 21.95 L9.65 20.35 10.05 20.15 10.2 20.15 10.25 21.75 9.65 21.95 M17.55 20.35 L17.55 21.95 16.95 21.75 17.0 20.15 17.15 20.15 17.55 20.35" fill="#da8403" fill-rule="evenodd" stroke="none"/>
    <path d="M9.65 20.35 L7.7 20.35 8.15 20.15 10.05 20.15 9.65 20.35 M19.45 20.35 L17.55 20.35 17.15 20.15 19.05 20.15 19.45 20.35" fill="#fff897" fill-rule="evenodd" stroke="none"/>
  </g>
</svg>
