<?xml version="1.0" encoding="UTF-8" standalone="no"?>
<svg xmlns:ffdec="https://www.free-decompiler.com/flash" xmlns:xlink="http://www.w3.org/1999/xlink" ffdec:objectType="shape" height="64.2px" width="42.05px" xmlns="http://www.w3.org/2000/svg">
  <g transform="matrix(1.0, 0.0, 0.0, 1.0, 10.75, 10.05)">
    <path d="M28.05 50.8 L28.35 50.4 28.7 49.95 Q30.0 48.1 30.0 45.45 30.0 40.8 26.4 33.65 L22.0 25.0 20.35 21.95 Q19.25 20.65 17.7 18.05 L15.5 14.3 11.7 7.5 10.55 5.35 9.05 3.05 4.75 -3.9 Q2.3 -7.4 -1.2 -8.3 L-1.85 -8.45 -2.3 -8.55 -3.8 -8.65 Q-5.35 -8.65 -6.7 -7.8 L-7.1 -7.5 -7.25 -7.4 -7.3 -7.35 Q-9.5 -5.55 -9.5 -1.8 -9.9 -0.05 -9.0 4.05 -8.1 8.15 -6.3 11.05 -4.95 13.1 -2.4 18.05 L-0.3 22.1 Q3.85 30.3 7.35 35.2 L10.9 40.3 15.05 47.35 Q18.95 52.55 23.45 52.8 L23.85 52.8 24.0 52.8 24.5 52.75 Q26.0 52.5 27.5 51.25 L28.05 50.8 M-10.75 -1.8 Q-10.75 -5.55 -9.3 -7.45 L-7.8 -8.8 Q-5.95 -10.0 -2.75 -10.05 L-2.35 -10.05 Q1.75 -10.05 6.15 -4.05 8.4 -1.1 10.1 1.8 L12.45 5.55 15.2 10.25 19.4 17.55 19.7 18.05 Q23.15 24.5 23.75 26.5 23.9 27.0 27.6 34.1 31.3 41.85 31.3 45.95 31.3 48.7 29.4 51.2 L29.0 51.75 28.05 52.7 Q26.7 53.75 25.15 54.05 L24.65 54.15 24.6 54.15 23.85 54.15 22.35 54.05 Q17.65 53.4 14.3 48.8 L10.8 42.3 4.25 33.05 -4.0 18.05 -5.75 14.75 Q-10.75 4.9 -10.75 -1.8" fill="#070707" fill-rule="evenodd" stroke="none"/>
    <path d="M26.05 46.6 L27.9 50.6 28.05 50.8 27.5 51.25 Q26.0 52.5 24.5 52.75 L24.45 52.6 22.5 48.5 24.2 47.9 24.25 47.85 26.05 46.6 M-2.3 -8.55 L-2.25 -8.2 -1.75 -7.3 -2.4 -7.5 Q-4.55 -7.5 -5.85 -6.4 L-6.65 -7.75 -6.7 -7.8 Q-5.35 -8.65 -3.8 -8.65 L-2.3 -8.55" fill="#aa8c00" fill-rule="evenodd" stroke="none"/>
    <path d="M25.6 45.65 L25.95 46.45 26.05 46.6 24.25 47.85 24.2 47.9 22.5 48.5 22.45 48.4 21.95 47.25 22.45 47.25 Q23.25 47.25 24.6 46.4 L25.6 45.65" fill="#c2aa00" fill-rule="evenodd" stroke="none"/>
    <path d="M19.85 45.2 L20.65 46.85 20.2 46.4 Q19.9 45.95 19.85 45.2" fill="#3b3b3b" fill-rule="evenodd" stroke="none"/>
    <path d="M-1.75 -7.3 L-1.35 -6.65 7.95 10.4 6.55 8.2 Q5.3 6.25 4.4 5.85 L1.8 6.0 1.2 6.25 1.15 6.2 0.6 5.25 0.6 5.3 0.55 5.2 0.9 4.95 Q3.4 3.15 3.4 2.75 3.4 2.1 1.2 -1.65 -1.35 -5.95 -3.1 -5.95 -4.35 -5.95 -5.15 -5.1 L-5.8 -6.3 -5.8 -6.25 -5.85 -6.4 Q-4.55 -7.5 -2.4 -7.5 L-1.75 -7.3 M9.75 13.8 L11.95 18.0 10.9 18.05 10.15 18.25 9.6 18.45 9.65 18.05 9.75 13.85 9.75 13.8 M17.7 29.3 L17.7 29.35 18.45 30.85 14.6 32.05 13.85 30.55 14.7 30.35 15.85 30.0 16.3 29.8 16.55 29.7 17.7 29.3 M22.1 38.25 L23.05 40.2 Q22.1 40.4 21.4 41.0 20.4 41.8 20.05 43.25 L18.45 39.85 Q20.55 39.65 22.0 38.3 L22.1 38.25" fill="#eed702" fill-rule="evenodd" stroke="none"/>
    <path d="M7.95 10.4 L9.75 13.8 9.75 13.85 9.65 18.05 9.6 18.45 10.15 18.25 10.9 18.05 11.95 18.0 11.95 18.05 12.1 18.35 17.7 29.3 16.55 29.7 16.3 29.8 15.85 30.0 14.7 30.35 13.85 30.55 13.8 30.5 7.5 18.05 1.2 6.25 1.8 6.0 4.4 5.85 Q5.3 6.25 6.55 8.2 L7.95 10.4 M18.45 30.85 L18.5 30.95 22.0 38.15 22.1 38.25 22.0 38.3 Q20.55 39.65 18.45 39.85 L18.35 39.7 14.6 32.05 18.45 30.85 M23.05 40.2 L23.1 40.4 25.5 45.4 25.5 45.45 25.6 45.65 24.6 46.4 Q23.25 47.25 22.45 47.25 L21.95 47.25 21.8 46.95 20.35 43.9 20.05 43.25 Q20.4 41.8 21.4 41.0 22.1 40.4 23.05 40.2 M-5.15 -5.1 Q-4.35 -5.95 -3.1 -5.95 -1.35 -5.95 1.2 -1.65 3.4 2.1 3.4 2.75 3.4 3.15 0.9 4.95 L0.55 5.2 -5.0 -4.9 -5.15 -5.1" fill="#fff148" fill-rule="evenodd" stroke="none"/>
    <path d="M-5.75 -4.15 L-0.3 5.75 -0.25 5.75 Q-2.1 6.9 -3.15 6.9 -3.55 6.9 -4.25 5.45 L-6.05 1.4 Q-6.8 -0.25 -6.2 -2.85 L-5.75 -4.15 M0.2 6.6 L0.3 6.7 0.25 6.7 6.35 18.05 12.85 30.8 10.5 31.0 Q8.85 31.0 2.95 20.75 L1.4 18.05 Q-2.9 10.35 -2.9 8.4 -2.9 7.7 -1.7 7.2 L0.2 6.6 M13.7 32.4 L13.7 32.5 17.35 39.9 Q16.5 39.75 15.6 38.45 14.6 36.9 12.9 32.75 L13.7 32.4 M26.25 44.6 L24.1 40.1 Q25.2 40.1 25.85 41.6 26.35 42.75 26.35 43.8 L26.25 44.6 M22.8 37.45 L19.45 30.55 20.45 30.25 Q20.95 30.25 21.95 32.0 23.2 34.15 23.2 36.55 L22.8 37.45 M18.6 28.85 L13.3 18.45 Q14.55 19.4 15.75 22.35 L17.7 25.3 Q19.3 27.65 19.3 28.25 L18.6 28.85" fill="#434343" fill-rule="evenodd" stroke="none"/>
    <path d="M17.35 39.9 L17.45 40.15 18.75 42.8 Q11.85 37.1 9.2 34.0 6.4 30.8 4.55 26.15 3.4 23.25 1.05 19.85 L-0.25 18.05 -3.1 14.05 Q-8.05 6.95 -8.05 0.2 -8.05 -3.7 -6.6 -5.65 L-5.85 -4.4 -5.75 -4.15 -6.2 -2.85 Q-6.8 -0.25 -6.05 1.4 L-4.25 5.45 Q-3.55 6.9 -3.15 6.9 -2.1 6.9 -0.25 5.75 L0.2 6.6 -1.7 7.2 Q-2.9 7.7 -2.9 8.4 -2.9 10.35 1.4 18.05 L2.95 20.75 Q8.85 31.0 10.5 31.0 L12.85 30.8 12.9 30.95 13.7 32.4 12.9 32.75 Q14.6 36.9 15.6 38.45 16.5 39.75 17.35 39.9 M13.3 18.45 L13.1 18.05 13.0 17.9 -0.05 -6.3 Q1.55 -5.2 2.55 -3.9 L5.4 0.15 Q7.2 2.9 7.35 5.8 L10.15 10.05 11.9 13.2 15.0 18.05 16.2 19.8 Q18.65 23.35 19.25 26.4 21.4 27.2 23.1 31.2 L27.5 43.85 26.75 45.75 26.45 45.05 26.4 45.0 26.25 44.6 26.35 43.8 Q26.35 42.75 25.85 41.6 25.2 40.1 24.1 40.1 L24.0 39.95 22.9 37.7 22.8 37.45 23.2 36.55 Q23.2 34.15 21.95 32.0 20.95 30.25 20.45 30.25 L19.45 30.55 19.4 30.5 18.6 28.9 18.6 28.85 19.3 28.25 Q19.3 27.65 17.7 25.3 L15.75 22.35 Q14.55 19.4 13.3 18.45 M20.65 46.85 L20.9 47.4 20.9 47.35 21.5 48.65 20.65 48.7 17.6 45.4 18.0 44.4 18.75 42.85 19.45 44.35 19.45 44.3 19.85 45.2 Q19.9 45.95 20.2 46.4 L20.65 46.85" fill="#313131" fill-rule="evenodd" stroke="none"/>
    <path d="M7.95 10.4 L-1.35 -6.65 -1.75 -7.3 -2.25 -8.2 -2.3 -8.55 -1.85 -8.45 -1.2 -8.3 Q2.3 -7.4 4.75 -3.9 L9.05 3.05 10.55 5.35 11.7 7.5 15.5 14.3 17.7 18.05 Q19.25 20.65 20.35 21.95 L22.0 25.0 26.4 33.65 Q30.0 40.8 30.0 45.45 30.0 48.1 28.7 49.95 L28.35 50.4 28.05 50.8 27.9 50.6 26.05 46.6 25.95 46.45 25.6 45.65 25.5 45.45 25.5 45.4 23.1 40.4 23.05 40.2 22.1 38.25 22.0 38.15 18.5 30.95 18.45 30.85 17.7 29.35 17.7 29.3 12.1 18.35 11.95 18.05 11.95 18.0 9.75 13.8 7.95 10.4 M-5.85 -6.4 L-5.8 -6.25 -5.8 -6.3 -5.15 -5.1 -5.0 -4.9 0.55 5.2 0.6 5.3 0.6 5.25 1.15 6.2 1.2 6.25 7.5 18.05 13.8 30.5 13.85 30.55 14.6 32.05 18.35 39.7 18.45 39.85 20.05 43.25 20.35 43.9 21.8 46.95 21.95 47.25 22.45 48.4 22.5 48.5 24.45 52.6 24.5 52.75 24.0 52.8 23.85 52.8 23.45 52.8 Q18.95 52.55 15.05 47.35 L10.9 40.3 7.35 35.2 Q3.85 30.3 -0.3 22.1 L-2.4 18.05 Q-4.95 13.1 -6.3 11.05 -8.1 8.15 -9.0 4.05 -9.9 -0.05 -9.5 -1.8 -9.5 -5.55 -7.3 -7.35 L-7.25 -7.4 -7.1 -7.5 -6.7 -7.8 -6.65 -7.75 -5.85 -6.4 M-5.75 -4.15 L-5.85 -4.4 -6.6 -5.65 Q-8.05 -3.7 -8.05 0.2 -8.05 6.95 -3.1 14.05 L-0.25 18.05 1.05 19.85 Q3.4 23.25 4.55 26.15 6.4 30.8 9.2 34.0 11.85 37.1 18.75 42.8 L17.45 40.15 17.35 39.9 13.7 32.5 13.7 32.4 12.9 30.95 12.85 30.8 6.35 18.05 0.25 6.7 0.3 6.7 0.2 6.6 -0.25 5.75 -0.3 5.75 -5.75 -4.15 M26.25 44.6 L26.4 45.0 26.45 45.05 26.75 45.75 27.5 43.85 23.1 31.2 Q21.4 27.2 19.25 26.4 18.65 23.35 16.2 19.8 L15.0 18.05 11.9 13.2 10.15 10.05 7.35 5.8 Q7.2 2.9 5.4 0.15 L2.55 -3.9 Q1.55 -5.2 -0.05 -6.3 L13.0 17.9 13.1 18.05 13.3 18.45 18.6 28.85 18.6 28.9 19.4 30.5 19.45 30.55 22.8 37.45 22.9 37.7 24.0 39.95 24.1 40.1 26.25 44.6 M19.85 45.2 L19.45 44.3 19.45 44.35 18.75 42.85 18.0 44.4 17.6 45.4 20.65 48.7 21.5 48.65 20.9 47.35 20.9 47.4 20.65 46.85 19.85 45.2" fill="#232323" fill-rule="evenodd" stroke="none"/>
  </g>
</svg>
