<?xml version="1.0" encoding="UTF-8" standalone="no"?>
<svg xmlns:ffdec="https://www.free-decompiler.com/flash" xmlns:xlink="http://www.w3.org/1999/xlink" ffdec:objectType="shape" height="43.6px" width="26.2px" xmlns="http://www.w3.org/2000/svg">
  <g transform="matrix(1.0, 0.0, 0.0, 1.0, 9.7, 85.35)">
    <path d="M3.05 -80.35 L4.7 -79.55 5.5 -79.15 5.75 -79.0 Q8.85 -77.3 10.65 -75.5 L10.75 -75.4 11.35 -74.7 11.55 -74.45 12.8 -72.35 Q15.45 -66.8 15.45 -55.2 L14.9 -43.0 14.9 -42.8 14.25 -42.75 13.7 -42.8 13.9 -42.9 14.45 -55.2 Q14.45 -63.75 12.9 -69.05 L12.25 -71.0 Q11.4 -73.2 10.2 -74.7 9.1 -76.15 7.15 -77.5 L6.5 -77.9 5.95 -78.25 4.35 -79.3 3.9 -79.65 3.05 -80.35 M-3.05 -81.9 L-8.2 -82.05 -7.8 -82.6 Q-7.45 -83.35 -6.9 -83.45 -4.65 -83.8 -2.75 -82.25 -2.75 -82.0 -3.05 -81.9" fill="#e0e0e0" fill-rule="evenodd" stroke="none"/>
    <path d="M5.15 -80.95 L6.55 -80.45 Q8.05 -79.8 9.35 -78.65 L9.85 -78.2 11.5 -76.25 11.55 -76.2 13.05 -73.55 13.65 -72.2 14.2 -70.75 Q16.5 -63.75 16.5 -52.1 L16.3 -45.45 16.3 -45.4 16.1 -43.55 16.05 -43.35 15.9 -42.8 Q15.7 -42.15 15.1 -41.9 L14.25 -41.75 13.65 -41.75 Q13.2 -41.85 13.05 -42.0 12.85 -42.2 12.9 -43.1 L12.9 -43.35 12.9 -43.4 13.45 -53.9 Q13.45 -67.95 9.0 -74.15 7.4 -76.45 4.75 -78.2 L2.7 -79.5 2.15 -79.8 0.3 -80.9 -0.4 -81.35 1.15 -81.55 5.15 -80.95 M3.05 -80.35 L3.9 -79.65 4.35 -79.3 5.95 -78.25 6.5 -77.9 7.15 -77.5 Q9.1 -76.15 10.2 -74.7 11.4 -73.2 12.25 -71.0 L12.9 -69.05 Q14.45 -63.75 14.45 -55.2 L13.9 -42.9 13.7 -42.8 14.25 -42.75 14.9 -42.8 14.9 -43.0 15.45 -55.2 Q15.45 -66.8 12.8 -72.35 L11.55 -74.45 11.35 -74.7 10.75 -75.4 10.65 -75.5 Q8.85 -77.3 5.75 -79.0 L5.5 -79.15 4.7 -79.55 3.05 -80.35 M-8.2 -82.05 L-9.7 -82.05 Q-8.2 -84.45 -5.95 -85.3 L-3.9 -84.9 Q-2.65 -84.4 -1.55 -83.35 L-1.5 -83.25 -1.3 -81.75 -3.05 -81.9 Q-2.75 -82.0 -2.75 -82.25 -4.65 -83.8 -6.9 -83.45 -7.45 -83.35 -7.8 -82.6 L-8.2 -82.05" fill="#464646" fill-rule="evenodd" stroke="none"/>
  </g>
</svg>
