<?xml version="1.0" encoding="UTF-8" standalone="no"?>
<svg xmlns:ffdec="https://www.free-decompiler.com/flash" xmlns:xlink="http://www.w3.org/1999/xlink" ffdec:objectType="shape" height="42.65px" width="71.7px" xmlns="http://www.w3.org/2000/svg">
  <g transform="matrix(1.0, 0.0, 0.0, 1.0, 40.8, 26.05)">
    <path d="M-9.0 14.55 Q-6.5 14.4 -1.4 12.85 5.25 10.85 10.85 7.9 27.15 -0.85 28.4 -19.45 29.25 -18.35 29.95 -16.65 L29.7 -15.3 29.75 -13.65 Q29.85 -10.5 30.4 -7.4 L30.4 -7.35 26.6 -1.2 26.5 -1.05 24.9 1.05 24.45 1.6 Q18.5 8.5 9.35 12.1 -0.3 15.95 -9.0 14.55" fill="#d1d1d1" fill-rule="evenodd" stroke="none"/>
    <path d="M-36.95 -1.5 L-36.05 -0.25 -34.3 1.85 -33.6 2.5 Q-26.3 9.4 -20.45 11.75 L-17.25 12.9 Q-14.85 13.9 -9.0 14.55 -0.3 15.95 9.35 12.1 18.5 8.5 24.45 1.6 L24.9 1.05 26.5 -1.05 26.6 -1.2 30.4 -7.35 30.65 -6.05 30.65 -5.3 30.9 -4.15 Q27.55 1.1 24.5 4.2 L24.25 4.45 23.3 5.35 23.2 5.5 Q11.3 16.6 -5.05 16.6 -22.2 16.6 -34.35 4.45 L-36.45 2.15 -40.1 -2.65 -40.8 -3.75 -37.5 -1.8 -37.15 -1.6 -37.0 -1.25 -37.1 -1.75 -36.95 -1.5" fill="#606060" fill-rule="evenodd" stroke="none"/>
    <path d="M-36.95 -1.5 L-35.75 -0.8 Q-34.15 0.05 -27.45 5.05 -20.8 10.05 -12.4 9.6 -4.05 9.15 2.45 4.15 L10.85 -2.3 10.65 -2.15 11.25 -2.6 11.6 -2.9 11.65 -2.95 11.75 -3.0 12.0 -3.2 Q15.05 -5.8 16.75 -8.1 18.75 -10.95 21.1 -25.9 21.05 -26.3 22.25 -25.6 L24.95 -23.75 Q26.45 -22.55 28.4 -19.45 27.15 -0.85 10.85 7.9 5.25 10.85 -1.4 12.85 -6.5 14.4 -9.0 14.55 -14.85 13.9 -17.25 12.9 L-20.45 11.75 Q-26.3 9.4 -33.6 2.5 L-34.3 1.85 -36.05 -0.25 -36.95 -1.5" fill="#ffffff" fill-rule="evenodd" stroke="none"/>
  </g>
</svg>
