<?xml version="1.0" encoding="UTF-8" standalone="no"?>
<svg xmlns:ffdec="https://www.free-decompiler.com/flash" xmlns:xlink="http://www.w3.org/1999/xlink" ffdec:objectType="shape" height="48.75px" width="55.2px" xmlns="http://www.w3.org/2000/svg">
  <g transform="matrix(1.0, 0.0, 0.0, 1.0, 31.25, 3.1)">
    <path d="M-2.7 -2.85 Q-6.6 2.45 -10.55 5.45 -15.35 9.05 -21.1 10.0 L-21.9 8.85 -13.6 5.15 -9.6 1.25 Q-5.45 -2.45 -2.7 -2.85 M12.75 22.05 L9.7 14.1 Q9.7 13.5 10.0 13.5 L10.5 13.65 12.9 16.6 14.6 19.55 Q14.35 20.85 13.55 21.55 L12.75 22.05 M19.35 14.6 Q18.1 12.6 11.45 5.2 L4.05 -3.05 Q9.05 -1.15 13.55 4.65 L21.2 14.3 19.35 14.6 M-8.8 28.3 Q-7.8 23.1 -7.8 22.1 -7.8 20.65 -8.4 18.85 -9.35 16.15 -11.05 16.15 L-11.45 16.2 -14.3 18.75 -14.75 19.15 -15.6 17.9 -11.1 14.3 Q-9.3 14.3 -7.9 15.85 -5.95 18.0 -5.95 22.4 -5.95 23.65 -6.7 27.4 L-8.8 28.3 M5.05 26.5 L3.05 26.25 Q2.35 21.05 2.35 20.05 2.35 19.45 3.0 18.85 L3.6 18.35 5.05 26.5" fill="#0d0d0d" fill-rule="evenodd" stroke="none"/>
    <path d="M-20.05 11.5 Q-11.85 8.8 -6.1 2.95 L-2.65 -0.55 Q-0.95 -1.95 0.8 -1.95 2.05 -1.95 5.15 0.4 L2.5 -0.05 -0.65 0.3 Q-2.9 0.7 -3.3 1.1 -3.7 1.45 -4.0 2.55 L-4.25 4.25 -4.8 7.25 -5.05 10.05 Q-5.05 11.8 -4.1 12.5 -3.2 13.2 -1.0 13.2 2.95 13.2 5.7 11.75 9.6 9.65 7.4 5.6 8.0 4.55 7.8 2.75 8.55 3.5 11.0 8.35 L9.85 11.4 9.0 13.35 Q9.0 16.75 9.55 17.65 10.7 19.65 11.5 22.5 9.15 23.6 6.35 25.5 6.1 21.55 5.5 18.55 4.9 15.35 4.3 15.35 L1.85 15.9 Q0.3 16.4 -0.7 16.85 -1.4 15.9 -2.35 15.9 -3.05 15.9 -3.45 16.25 L-4.15 17.2 -6.1 14.85 Q-7.65 12.9 -9.8 12.9 -10.55 12.9 -12.15 13.55 -14.5 14.5 -16.65 16.35 L-17.3 15.45 Q-15.35 14.4 -13.95 12.8 L-12.8 11.2 -13.3 11.0 -14.85 10.95 -19.95 11.6 -20.05 11.5 M14.85 18.5 Q13.4 16.7 12.5 14.45 11.8 12.8 11.75 12.0 L12.1 12.3 13.0 12.45 Q14.2 12.45 14.5 11.45 14.8 10.55 14.3 9.15 15.3 9.8 16.6 11.4 18.1 13.2 18.7 14.75 L17.5 15.05 Q16.5 13.65 15.05 12.45 14.55 12.65 14.4 13.5 L15.35 16.4 14.85 18.5 M5.65 14.2 Q5.1 14.75 5.1 15.55 5.1 16.35 5.65 16.9 6.2 17.45 7.0 17.45 7.8 17.45 8.35 16.9 8.9 16.35 8.9 15.55 8.9 14.75 8.35 14.2 7.8 13.65 7.0 13.65 6.2 13.65 5.65 14.2 M-0.85 19.05 Q0.05 20.2 0.35 21.05 0.9 22.45 1.45 26.0 L-1.25 26.1 -1.55 25.65 -2.55 26.3 -5.35 26.95 -4.35 21.8 Q-4.0 19.95 -3.55 19.3 L-0.85 19.05" fill="#272727" fill-rule="evenodd" stroke="none"/>
    <path d="M15.35 16.4 L14.4 13.5 Q14.55 12.65 15.05 12.45 16.5 13.65 17.5 15.05 16.25 15.5 15.7 16.0 L15.35 16.4 M7.4 5.6 Q9.6 9.65 5.7 11.75 2.95 13.2 -1.0 13.2 -3.2 13.2 -4.1 12.5 -5.05 11.8 -5.05 10.05 L-4.8 7.25 -4.25 4.25 Q-3.75 5.7 -2.6 6.85 -0.8 8.7 1.8 8.7 3.75 8.7 5.25 7.85 6.75 7.0 7.4 5.6 M-2.5 26.3 L-2.55 26.3 -1.55 25.65 -1.25 26.1 -2.5 26.3 M-19.95 11.6 L-14.85 10.95 -13.3 11.0 -12.8 11.2 -13.95 12.8 Q-15.35 14.4 -17.3 15.45 L-19.95 11.6" fill="#3e3e3e" fill-rule="evenodd" stroke="none"/>
    <path d="M-2.7 -2.85 L4.05 -3.05 11.45 5.2 Q18.1 12.6 19.35 14.6 L18.7 14.75 Q18.1 13.2 16.6 11.4 15.3 9.8 14.3 9.15 14.0 8.65 13.0 8.65 12.2 8.65 11.65 9.2 11.1 9.75 11.1 10.55 11.1 11.35 11.75 12.0 11.8 12.8 12.5 14.45 13.4 16.7 14.85 18.5 L14.6 19.55 12.9 16.6 10.5 13.65 10.0 13.5 Q9.7 13.5 9.7 14.1 L12.75 22.05 11.5 22.5 Q10.7 19.65 9.55 17.65 9.0 16.75 9.0 13.35 L9.85 11.4 11.0 8.35 Q8.55 3.5 7.8 2.75 L7.8 2.7 Q7.8 1.75 7.05 1.1 6.25 0.4 5.15 0.4 2.05 -1.95 0.8 -1.95 -0.95 -1.95 -2.65 -0.55 L-6.1 2.95 Q-11.85 8.8 -20.05 11.5 L-21.1 10.0 Q-15.35 9.05 -10.55 5.45 -6.6 2.45 -2.7 -2.85 M-0.7 16.85 Q0.3 16.4 1.85 15.9 L4.3 15.35 Q4.9 15.35 5.5 18.55 6.1 21.55 6.35 25.5 L5.05 26.5 3.6 18.35 3.0 18.85 Q2.35 19.45 2.35 20.05 2.35 21.05 3.05 26.25 L1.45 26.0 Q0.9 22.45 0.35 21.05 0.05 20.2 -0.85 19.05 -0.65 18.65 -0.6 17.9 L-0.7 16.85 M-5.35 26.95 L-6.7 27.4 Q-5.95 23.65 -5.95 22.4 -5.95 18.0 -7.9 15.85 -9.3 14.3 -11.1 14.3 L-15.6 17.9 -16.65 16.35 Q-14.5 14.5 -12.15 13.55 -10.55 12.9 -9.8 12.9 -7.65 12.9 -6.1 14.85 L-4.15 17.2 -3.95 18.4 -3.55 19.3 Q-4.0 19.95 -4.35 21.8 L-5.35 26.95" fill="#1e1e1e" fill-rule="evenodd" stroke="none"/>
    <path d="M21.2 14.3 Q22.65 16.4 23.95 21.85 23.95 24.35 22.65 25.55 21.5 26.65 19.55 26.35 L15.5 24.6 Q16.85 33.85 14.0 38.15 11.8 41.5 7.6 41.5 6.5 41.5 5.55 40.1 4.5 38.5 4.55 35.65 3.05 45.65 -4.4 45.65 -7.4 45.65 -8.8 44.25 -10.6 42.45 -10.6 37.75 -10.6 36.95 -8.8 28.3 L-6.7 27.4 -8.8 37.8 Q-9.0 41.45 -7.75 42.85 -6.85 43.8 -5.05 43.8 3.2 43.8 3.2 29.25 L3.05 26.25 5.05 26.5 Q5.9 34.7 7.0 37.4 7.8 39.4 9.35 39.4 11.05 39.4 12.3 38.05 14.35 35.8 14.35 30.3 L12.75 22.05 13.55 21.55 Q14.35 20.85 14.6 19.55 15.95 22.7 17.4 23.8 18.4 24.55 19.9 24.55 22.15 24.55 22.15 21.35 22.15 20.25 21.2 18.05 L19.35 14.6 21.2 14.3 M-14.3 18.75 Q-18.25 22.4 -20.1 23.6 -22.2 24.9 -24.3 24.9 -26.65 24.9 -28.85 23.3 -31.25 21.6 -31.25 19.3 -31.25 13.0 -21.9 8.85 L-21.1 10.0 Q-24.65 11.25 -27.0 13.65 -29.35 16.05 -29.35 18.45 -29.35 20.7 -27.55 22.05 -26.1 23.1 -24.55 23.1 -22.35 23.1 -20.0 21.8 -17.65 20.4 -15.6 17.9 L-14.75 19.15 -14.3 18.75" fill="#a46637" fill-rule="evenodd" stroke="none"/>
    <path d="M-21.1 10.0 L-20.05 11.5 -21.05 11.9 -21.9 12.2 Q-25.1 13.5 -26.8 15.1 -28.2 16.5 -28.2 17.5 -28.2 20.95 -24.95 20.95 -23.65 20.95 -22.25 20.25 -20.3 19.25 -16.65 16.35 L-15.6 17.9 Q-17.65 20.4 -20.0 21.8 -22.35 23.1 -24.55 23.1 -26.1 23.1 -27.55 22.05 -29.35 20.7 -29.35 18.45 -29.35 16.05 -27.0 13.65 -24.65 11.25 -21.1 10.0 M5.15 0.4 Q6.25 0.4 7.05 1.1 7.8 1.75 7.8 2.7 L5.15 0.4 M11.5 22.5 L12.75 22.05 14.35 30.3 Q14.35 35.8 12.3 38.05 11.05 39.4 9.35 39.4 7.8 39.4 7.0 37.4 5.9 34.7 5.05 26.5 L6.35 25.5 Q6.55 30.4 7.75 33.65 8.85 36.8 10.25 36.8 11.95 36.8 12.9 34.85 13.8 33.05 13.55 30.85 L11.5 22.5 M14.6 19.55 L14.85 18.5 Q18.35 23.35 20.25 23.35 L20.85 23.2 20.85 23.05 21.1 20.9 20.25 18.15 18.7 14.75 19.35 14.6 21.2 18.05 Q22.15 20.25 22.15 21.35 22.15 24.55 19.9 24.55 18.4 24.55 17.4 23.8 15.95 22.7 14.6 19.55 M11.75 12.0 Q11.1 11.35 11.1 10.55 11.1 9.75 11.65 9.2 12.2 8.65 13.0 8.65 14.0 8.65 14.3 9.15 13.25 9.15 12.5 10.0 11.75 10.8 11.75 12.0 M3.05 26.25 L3.2 29.25 Q3.2 43.8 -5.05 43.8 -6.85 43.8 -7.75 42.85 -9.0 41.45 -8.8 37.8 L-6.7 27.4 -5.35 26.95 -6.95 36.75 Q-6.95 39.1 -6.1 40.2 -5.25 41.3 -3.4 41.3 -1.1 41.3 0.2 38.5 1.6 35.5 1.6 29.7 L1.45 26.0 3.05 26.25 M-3.55 19.3 L-3.95 18.4 -4.15 17.2 -2.65 17.25 -0.7 16.85 -0.6 17.9 Q-0.65 18.65 -0.85 19.05 L-2.45 18.9 Q-3.05 18.9 -3.55 19.3" fill="#e7a867" fill-rule="evenodd" stroke="none"/>
    <path d="M7.8 2.7 L7.8 2.75 Q8.0 4.55 7.4 5.6 6.35 2.7 3.4 1.35 1.85 0.7 0.4 0.6 -2.2 0.6 -4.25 4.25 L-4.0 2.55 Q-3.7 1.45 -3.3 1.1 -2.9 0.7 -0.65 0.3 L2.5 -0.05 5.15 0.4 7.8 2.7 M18.7 14.75 L20.25 18.15 21.1 20.9 20.85 23.05 20.85 23.2 20.25 23.35 Q18.35 23.35 14.85 18.5 L15.35 16.4 Q15.85 17.95 18.1 20.6 L19.35 19.2 18.45 17.0 17.5 15.05 18.7 14.75 M11.75 12.0 Q11.75 10.8 12.5 10.0 13.25 9.15 14.3 9.15 14.8 10.55 14.5 11.45 14.2 12.45 13.0 12.45 L12.1 12.3 11.75 12.0 M5.65 14.2 Q6.2 13.65 7.0 13.65 7.8 13.65 8.35 14.2 8.9 14.75 8.9 15.55 8.9 16.35 8.35 16.9 7.8 17.45 7.0 17.45 6.2 17.45 5.65 16.9 5.1 16.35 5.1 15.55 5.1 14.75 5.65 14.2 M6.35 25.5 Q9.15 23.6 11.5 22.5 L13.55 30.85 Q13.8 33.05 12.9 34.85 11.95 36.8 10.25 36.8 8.85 36.8 7.75 33.65 6.55 30.4 6.35 25.5 M1.45 26.0 L1.6 29.7 Q1.6 35.5 0.2 38.5 -1.1 41.3 -3.4 41.3 -5.25 41.3 -6.1 40.2 -6.95 39.1 -6.95 36.75 L-5.35 26.95 -2.55 26.3 -2.5 26.3 Q-3.6 27.3 -4.35 30.25 L-4.85 33.5 Q-4.85 37.8 -2.5 37.8 -0.05 37.8 -0.05 31.9 -0.05 27.45 -1.25 26.1 L1.45 26.0 M10.7 34.15 Q12.85 32.0 12.5 28.2 12.1 24.45 10.0 24.45 7.9 24.45 7.9 28.55 L8.95 31.05 Q10.1 33.55 10.7 34.15 M-17.3 15.45 L-16.65 16.35 Q-20.3 19.25 -22.25 20.25 -23.65 20.95 -24.95 20.95 -28.2 20.95 -28.2 17.5 -28.2 16.5 -26.8 15.1 -25.1 13.5 -21.9 12.2 -23.5 12.95 -24.55 14.45 -25.65 16.05 -25.65 17.55 L-25.35 18.0 -24.1 18.75 Q-23.15 18.8 -21.0 17.75 L-17.3 15.45 M-21.05 11.9 L-20.05 11.5 -19.95 11.6 -21.05 11.9 M-4.15 17.2 L-3.45 16.25 Q-3.05 15.9 -2.35 15.9 -1.4 15.9 -0.7 16.85 L-2.65 17.25 -4.15 17.2 M-3.55 19.3 Q-3.05 18.9 -2.45 18.9 L-0.85 19.05 -3.55 19.3" fill="#f4bb83" fill-rule="evenodd" stroke="none"/>
    <path d="M-4.25 4.25 Q-2.2 0.6 0.4 0.6 1.85 0.7 3.4 1.35 6.35 2.7 7.4 5.6 6.75 7.0 5.25 7.85 3.75 8.7 1.8 8.7 -0.8 8.7 -2.6 6.85 -3.75 5.7 -4.25 4.25 M15.35 16.4 L15.7 16.0 Q16.25 15.5 17.5 15.05 L18.45 17.0 19.35 19.2 18.1 20.6 Q15.85 17.95 15.35 16.4 M10.7 34.15 Q10.1 33.55 8.95 31.05 L7.9 28.55 Q7.9 24.45 10.0 24.45 12.1 24.45 12.5 28.2 12.85 32.0 10.7 34.15 M-1.25 26.1 Q-0.05 27.45 -0.05 31.9 -0.05 37.8 -2.5 37.8 -4.85 37.8 -4.85 33.5 L-4.35 30.25 Q-3.6 27.3 -2.5 26.3 L-1.25 26.1 M-21.9 12.2 L-21.05 11.9 -19.95 11.6 -17.3 15.45 -21.0 17.75 Q-23.15 18.8 -24.1 18.75 L-25.35 18.0 -25.65 17.55 Q-25.65 16.05 -24.55 14.45 -23.5 12.95 -21.9 12.2" fill="#f5c89d" fill-rule="evenodd" stroke="none"/>
  </g>
</svg>
