<?xml version="1.0" encoding="UTF-8" standalone="no"?>
<svg xmlns:ffdec="https://www.free-decompiler.com/flash" xmlns:xlink="http://www.w3.org/1999/xlink" ffdec:objectType="shape" height="39.45px" width="123.85px" xmlns="http://www.w3.org/2000/svg">
  <g transform="matrix(1.0, 0.0, 0.0, 1.0, -7.55, 39.45)">
    <path d="M16.5 -22.5 L120.9 -22.5 121.25 -23.6 121.65 -23.6 123.9 -30.7 125.3 -35.15 17.35 -35.15 14.05 -23.6 13.95 -23.6 13.6 -22.5 16.5 -22.5 M16.7 -18.75 L16.4 -21.5 14.9 -18.75 8.75 -18.8 10.15 -23.6 10.2 -23.6 14.4 -38.45 130.2 -38.45 126.0 -23.6 125.95 -23.6 124.55 -18.8 120.45 -18.8 120.15 -20.8 118.65 -18.8 88.6 -18.8 88.0 -20.4 86.65 -18.8 56.85 -18.8 56.25 -20.4 54.9 -18.8 38.5 -18.8 38.5 -18.75 16.7 -18.75" fill="#cb9354" fill-rule="evenodd" stroke="none"/>
    <path d="M123.9 -30.7 L124.1 -31.4 19.15 -31.4 16.9 -23.6 16.85 -23.6 16.5 -22.5 13.6 -22.5 13.95 -23.6 14.05 -23.6 17.35 -35.15 125.3 -35.15 123.9 -30.7 M14.9 -18.75 L16.4 -21.5 16.7 -18.75 14.9 -18.75 M54.9 -18.8 L56.25 -20.4 56.85 -18.8 54.9 -18.8 M86.65 -18.8 L88.0 -20.4 88.6 -18.8 86.65 -18.8 M118.65 -18.8 L120.15 -20.8 120.45 -18.8 118.65 -18.8 M16.7 -18.0 L38.5 -18.2 38.5 -18.3 54.9 -18.3 55.75 -14.9 56.85 -18.3 69.9 -18.1 69.9 -18.15 85.45 -17.95 85.45 -18.3 86.65 -18.3 86.65 -18.25 87.5 -14.9 88.6 -18.25 88.6 -18.3 118.65 -17.9 118.65 -17.85 119.75 -13.4 120.45 -17.8 120.45 -17.9 124.4 -17.8 124.4 -11.4 106.85 -11.4 105.8 -14.4 104.8 -11.4 78.35 -11.4 77.3 -14.4 76.3 -11.4 36.55 -11.4 35.3 -14.9 34.15 -11.4 14.15 -11.4 13.05 -14.5 12.0 -11.4 8.55 -11.4 8.55 -17.8 14.9 -17.95 16.0 -13.4 16.7 -18.0 M8.55 -2.65 L8.55 -8.75 15.0 -8.75 16.0 -4.65 16.65 -8.75 55.1 -8.75 55.75 -6.15 56.6 -8.75 86.85 -8.75 87.5 -6.15 88.35 -8.75 118.75 -8.75 119.75 -4.65 120.4 -8.75 124.4 -8.75 124.4 -2.65 106.85 -2.65 105.8 -5.65 104.8 -2.65 78.35 -2.65 77.3 -5.65 76.3 -2.65 36.55 -2.65 35.3 -6.15 34.15 -2.65 14.15 -2.65 13.05 -5.75 12.0 -2.65 8.55 -2.65" fill="#9b682f" fill-rule="evenodd" stroke="none"/>
    <path d="M14.9 -18.75 L16.7 -18.75 16.7 -18.0 16.0 -13.4 14.9 -17.95 14.9 -18.75 M54.9 -18.3 L54.9 -18.8 56.85 -18.8 56.85 -18.3 55.75 -14.9 54.9 -18.3 M86.65 -18.3 L86.65 -18.8 88.6 -18.8 88.6 -18.3 88.6 -18.25 87.5 -14.9 86.65 -18.25 86.65 -18.3 M118.65 -17.9 L118.65 -18.8 120.45 -18.8 120.45 -17.9 120.45 -17.8 119.75 -13.4 118.65 -17.85 118.65 -17.9 M15.0 -8.75 L16.65 -8.75 16.0 -4.65 15.0 -8.75 M55.1 -8.75 L56.6 -8.75 55.75 -6.15 55.1 -8.75 M86.85 -8.75 L88.35 -8.75 87.5 -6.15 86.85 -8.75 M118.75 -8.75 L120.4 -8.75 119.75 -4.65 118.75 -8.75 M128.5 -28.75 L130.4 -35.35 130.4 -29.95 128.6 -23.6 128.55 -23.6 128.5 -23.6 128.5 -28.75 M130.25 -20.8 L130.25 -23.6 129.7 -23.6 130.4 -26.2 130.4 -21.2 130.25 -20.65 130.25 -20.8" fill="#64431e" fill-rule="evenodd" stroke="none"/>
    <path d="M16.7 -18.75 L38.5 -18.75 38.5 -18.8 54.9 -18.8 54.9 -18.3 38.5 -18.3 38.5 -18.2 16.7 -18.0 16.7 -18.75 M56.85 -18.8 L86.65 -18.8 86.65 -18.3 85.45 -18.3 85.45 -17.95 69.9 -18.15 69.9 -18.1 56.85 -18.3 56.85 -18.8 M88.6 -18.8 L118.65 -18.8 118.65 -17.9 88.6 -18.3 88.6 -18.8 M120.45 -18.8 L124.55 -18.8 125.95 -23.6 126.0 -23.6 130.2 -38.45 14.4 -38.45 10.2 -23.6 10.15 -23.6 8.75 -18.8 14.9 -18.75 14.9 -17.95 8.55 -17.8 8.55 -11.4 8.55 -9.75 124.4 -9.75 124.4 -11.4 124.4 -17.8 120.45 -17.9 120.45 -18.8 M15.0 -8.75 L8.55 -8.75 8.55 -2.65 8.55 -1.0 124.4 -1.0 124.4 -2.65 124.4 -8.75 120.4 -8.75 118.75 -8.75 88.35 -8.75 86.85 -8.75 56.6 -8.75 55.1 -8.75 16.65 -8.75 15.0 -8.75 M7.55 -18.15 L13.5 -39.45 131.4 -39.45 131.4 -21.0 129.25 -13.3 129.2 -13.3 125.45 0.0 7.55 0.0 7.55 -18.15 M128.55 -23.6 L128.6 -23.6 130.4 -29.95 130.4 -35.35 128.5 -28.75 127.05 -23.6 126.95 -23.6 125.4 -18.2 125.4 -12.75 128.55 -23.6 M129.7 -23.6 L129.65 -23.6 125.4 -8.75 125.4 -4.0 130.25 -20.8 130.25 -20.65 130.4 -21.2 130.4 -26.2 129.7 -23.6" fill="#452e14" fill-rule="evenodd" stroke="none"/>
    <path d="M124.4 -11.4 L124.4 -9.75 8.55 -9.75 8.55 -11.4 12.0 -11.4 13.05 -14.5 14.15 -11.4 34.15 -11.4 35.3 -14.9 36.55 -11.4 76.3 -11.4 77.3 -14.4 78.35 -11.4 104.8 -11.4 105.8 -14.4 106.85 -11.4 124.4 -11.4 M124.4 -2.65 L124.4 -1.0 8.55 -1.0 8.55 -2.65 12.0 -2.65 13.05 -5.75 14.15 -2.65 34.15 -2.65 35.3 -6.15 36.55 -2.65 76.3 -2.65 77.3 -5.65 78.35 -2.65 104.8 -2.65 105.8 -5.65 106.85 -2.65 124.4 -2.65" fill="#734d22" fill-rule="evenodd" stroke="none"/>
    <path d="M16.5 -22.5 L16.85 -23.6 16.9 -23.6 19.15 -31.4 124.1 -31.4 123.9 -30.7 121.65 -23.6 121.25 -23.6 120.9 -22.5 16.5 -22.5" fill="#251d18" fill-rule="evenodd" stroke="none"/>
    <path d="M128.55 -23.6 L125.4 -12.75 125.4 -18.2 126.95 -23.6 127.05 -23.6 128.5 -28.75 128.5 -23.6 128.55 -23.6 M130.25 -20.8 L125.4 -4.0 125.4 -8.75 129.65 -23.6 129.7 -23.6 130.25 -23.6 130.25 -20.8" fill="#865928" fill-rule="evenodd" stroke="none"/>
  </g>
</svg>
