<?xml version="1.0" encoding="UTF-8" standalone="no"?>
<svg xmlns:ffdec="https://www.free-decompiler.com/flash" xmlns:xlink="http://www.w3.org/1999/xlink" ffdec:objectType="shape" height="27.0px" width="73.0px" xmlns="http://www.w3.org/2000/svg">
  <g transform="matrix(1.0, 0.0, 0.0, 1.0, 0.0, 0.0)">
    <path d="M68.2 17.45 L70.35 17.45 Q69.45 19.75 67.55 21.6 64.15 25.0 59.25 25.0 L13.75 25.0 Q8.85 25.0 5.4 21.6 3.5 19.75 2.7 17.45 L4.9 17.45 4.9 17.5 68.15 17.5 68.2 17.45" fill="#fffe63" fill-rule="evenodd" stroke="none"/>
    <path d="M4.35 11.0 L68.7 11.0 69.0 13.5 Q69.0 15.65 68.2 17.45 L68.15 17.5 4.9 17.5 4.9 17.45 Q4.0 15.65 4.0 13.5 4.0 12.2 4.35 11.0" fill="#fbed29" fill-rule="evenodd" stroke="none"/>
    <path d="M4.45 10.6 Q5.1 8.5 6.8 6.8 L6.85 6.75 Q9.7 4.0 13.75 4.0 L59.25 4.0 Q63.3 4.0 66.15 6.75 67.9 8.45 68.6 10.6 L68.7 11.0 4.35 11.0 4.45 10.6" fill="#fae033" fill-rule="evenodd" stroke="none"/>
    <path d="M68.6 10.6 L70.65 10.6 Q71.0 12.0 71.0 13.5 71.0 15.6 70.35 17.45 L68.2 17.45 Q69.0 15.65 69.0 13.5 L68.7 11.0 68.6 10.6 M2.35 10.6 L4.45 10.6 4.35 11.0 Q4.0 12.2 4.0 13.5 4.0 15.65 4.9 17.45 L2.7 17.45 Q2.0 15.6 2.0 13.5 2.0 12.0 2.35 10.6" fill="#fffe8e" fill-rule="evenodd" stroke="none"/>
    <path d="M68.6 10.6 Q67.9 8.45 66.15 6.75 63.3 4.0 59.25 4.0 L13.75 4.0 Q9.7 4.0 6.85 6.75 L6.8 6.8 Q5.1 8.5 4.45 10.6 L2.35 10.6 Q3.1 7.6 5.4 5.3 L5.4 5.35 Q8.85 2.0 13.75 2.0 L59.25 2.0 Q64.15 2.0 67.55 5.35 L67.55 5.3 Q69.9 7.6 70.65 10.6 L68.6 10.6" fill="#ffffc8" fill-rule="evenodd" stroke="none"/>
    <path d="M70.65 10.6 Q69.9 7.6 67.55 5.3 L67.55 5.35 Q64.15 2.0 59.25 2.0 L13.75 2.0 Q8.85 2.0 5.4 5.35 L5.4 5.3 Q3.1 7.6 2.35 10.6 2.0 12.0 2.0 13.5 2.0 15.6 2.7 17.45 3.5 19.75 5.4 21.6 8.85 25.0 13.75 25.0 L59.25 25.0 Q64.15 25.0 67.55 21.6 69.45 19.75 70.35 17.45 71.0 15.6 71.0 13.5 71.0 12.0 70.65 10.6 M59.25 0.0 Q64.95 0.0 68.95 3.9 71.9 6.8 72.7 10.6 L73.0 13.5 Q73.0 15.6 72.45 17.45 71.5 20.6 68.95 23.05 L68.95 23.0 Q64.95 27.0 59.25 27.0 L13.75 27.0 Q8.05 27.0 4.0 23.0 L4.0 23.05 Q1.5 20.6 0.55 17.45 0.0 15.6 0.0 13.5 0.0 12.0 0.3 10.6 1.1 6.8 4.0 3.9 8.05 0.0 13.75 0.0 L59.25 0.0" fill="#b97900" fill-rule="evenodd" stroke="none"/>
  </g>
</svg>
