<?xml version="1.0" encoding="UTF-8" standalone="no"?>
<svg xmlns:ffdec="https://www.free-decompiler.com/flash" xmlns:xlink="http://www.w3.org/1999/xlink" ffdec:objectType="shape" height="36.0px" width="97.0px" xmlns="http://www.w3.org/2000/svg">
  <g transform="matrix(1.0, 0.0, 0.0, 1.0, 0.0, 0.0)">
    <path d="M94.7 21.2 L94.65 21.5 Q93.7 25.9 90.3 29.3 85.65 34.0 79.0 34.0 L18.0 34.0 Q11.35 34.0 6.65 29.3 3.3 25.9 2.35 21.5 L2.3 21.2 4.35 21.2 4.4 21.5 92.6 21.5 92.7 21.2 94.7 21.2" fill="#fffe63" fill-rule="evenodd" stroke="none"/>
    <path d="M92.5 14.0 L92.6 14.5 92.6 14.45 Q93.0 16.15 93.0 18.0 L93.0 18.5 93.0 18.9 92.95 19.3 92.7 21.1 92.7 21.2 92.6 21.5 4.4 21.5 4.35 21.2 4.3 21.1 4.05 19.3 4.05 19.0 4.0 18.6 4.0 18.5 4.0 18.0 Q4.0 16.15 4.4 14.45 L4.55 14.0 92.5 14.0" fill="#fbed29" fill-rule="evenodd" stroke="none"/>
    <path d="M92.25 13.25 L92.5 14.0 4.55 14.0 4.8 13.25 Q5.75 10.4 8.1 8.1 L8.05 8.1 Q12.15 4.0 18.0 4.0 L79.0 4.0 Q84.8 4.0 88.9 8.1 91.2 10.4 92.25 13.25" fill="#fae033" fill-rule="evenodd" stroke="none"/>
    <path d="M79.0 0.0 Q86.45 0.0 91.7 5.25 95.2 8.75 96.45 13.25 L96.6 14.0 Q97.0 15.9 97.0 18.0 L97.0 18.5 97.0 19.0 96.95 19.5 96.75 21.2 96.7 21.5 Q95.7 26.75 91.7 30.7 86.45 36.0 79.0 36.0 L18.0 36.0 Q10.55 36.0 5.25 30.7 1.3 26.75 0.3 21.5 L0.25 21.2 0.05 19.5 0.05 19.0 0.0 18.5 0.0 18.0 Q0.0 15.9 0.4 14.0 L0.6 13.25 Q1.75 8.75 5.25 5.25 10.55 0.0 18.0 0.0 L79.0 0.0 M94.7 21.2 L94.95 19.5 95.0 19.0 95.0 18.5 95.0 18.0 Q95.0 15.9 94.55 14.0 L94.35 13.25 Q93.2 9.55 90.3 6.65 85.65 2.0 79.0 2.0 L18.0 2.0 Q11.35 2.0 6.65 6.65 3.75 9.55 2.65 13.25 L2.45 14.0 Q2.0 15.9 2.0 18.0 L2.0 18.5 2.05 19.0 2.05 19.5 2.3 21.2 2.35 21.5 Q3.3 25.9 6.65 29.3 11.35 34.0 18.0 34.0 L79.0 34.0 Q85.65 34.0 90.3 29.3 93.7 25.9 94.65 21.5 L94.7 21.2" fill="#b97900" fill-rule="evenodd" stroke="none"/>
    <path d="M94.35 13.25 L94.55 14.0 Q95.0 15.9 95.0 18.0 L95.0 18.5 95.0 19.0 94.95 19.5 94.7 21.2 92.7 21.2 92.7 21.1 92.95 19.3 93.0 18.9 93.0 18.5 93.0 18.0 Q93.0 16.15 92.6 14.45 L92.6 14.5 92.5 14.0 92.25 13.25 94.35 13.25 M2.3 21.2 L2.05 19.5 2.05 19.0 2.0 18.5 2.0 18.0 Q2.0 15.9 2.45 14.0 L2.65 13.25 4.8 13.25 4.55 14.0 4.4 14.45 Q4.0 16.15 4.0 18.0 L4.0 18.5 4.0 18.6 4.05 19.0 4.05 19.3 4.3 21.1 4.35 21.2 2.3 21.2" fill="#fffe8e" fill-rule="evenodd" stroke="none"/>
    <path d="M2.65 13.25 Q3.75 9.55 6.65 6.65 11.35 2.0 18.0 2.0 L79.0 2.0 Q85.65 2.0 90.3 6.65 93.2 9.55 94.35 13.25 L92.25 13.25 Q91.2 10.4 88.9 8.1 84.8 4.0 79.0 4.0 L18.0 4.0 Q12.15 4.0 8.05 8.1 L8.1 8.1 Q5.75 10.4 4.8 13.25 L2.65 13.25" fill="#ffffc8" fill-rule="evenodd" stroke="none"/>
  </g>
</svg>
