<?xml version="1.0" encoding="UTF-8" standalone="no"?>
<svg xmlns:ffdec="https://www.free-decompiler.com/flash" xmlns:xlink="http://www.w3.org/1999/xlink" ffdec:objectType="shape" height="31.45px" width="59.75px" xmlns="http://www.w3.org/2000/svg">
  <g transform="matrix(1.0, 0.0, 0.0, 1.0, 23.35, 33.95)">
    <path d="M25.6 -32.7 L25.75 -33.1 26.75 -33.05 26.65 -32.7 25.6 -32.7 M21.6 -25.7 L18.45 -23.05 18.5 -23.2 18.6 -23.6 19.05 -24.0 19.7 -24.35 20.75 -25.35 21.6 -25.7 M9.35 -14.85 L9.25 -14.7 9.0 -14.25 8.9 -14.4 8.7 -14.75 Q8.6 -15.0 8.8 -15.1 L9.2 -15.05 9.35 -14.85 M6.9 -11.3 Q6.6 -10.4 6.6 -9.45 L6.65 -8.8 4.9 -6.8 4.9 -6.85 4.3 -8.15 6.9 -11.3 M19.55 -31.55 L19.1 -31.6 Q19.55 -32.3 20.25 -32.4 20.9 -32.5 20.65 -32.2 L20.15 -31.65 20.05 -31.5 20.0 -31.45 19.75 -31.5 19.55 -31.55 M25.0 -20.7 L25.45 -21.35 26.65 -22.7 Q28.75 -25.1 31.55 -27.4 32.3 -28.05 32.3 -28.5 L31.75 -29.55 Q31.25 -30.15 31.45 -30.6 31.7 -30.8 32.05 -30.45 L32.45 -29.9 Q33.1 -29.1 34.15 -29.5 34.9 -29.75 35.35 -30.55 L35.4 -30.4 35.4 -30.2 Q35.4 -29.4 34.8 -28.75 29.55 -25.2 25.35 -19.8 L25.35 -19.85 25.2 -20.3 25.0 -20.7 M24.25 -18.3 L24.2 -18.3 24.2 -18.25 21.95 -16.2 19.25 -13.45 19.1 -13.8 18.9 -14.05 19.15 -14.45 21.45 -17.35 22.05 -18.6 21.9 -19.25 Q21.65 -19.6 21.7 -19.75 21.7 -20.1 22.1 -20.1 22.4 -20.1 22.6 -19.8 L22.85 -19.25 Q23.6 -19.35 23.85 -19.55 L24.4 -19.85 24.4 -19.55 24.25 -18.3 M18.6 -12.15 L18.6 -12.1 18.6 -11.2 18.5 -10.75 18.15 -10.15 17.85 -9.8 17.35 -9.4 17.35 -9.95 17.2 -10.85 17.85 -11.5 18.5 -12.15 18.6 -12.15 M16.1 -8.9 L15.0 -7.45 12.95 -6.1 Q11.55 -5.35 10.6 -5.2 L8.95 -4.95 7.05 -4.3 7.25 -4.75 15.15 -8.35 16.1 -8.9 M11.0 -14.0 L10.15 -14.05 11.05 -15.75 11.1 -15.85 11.2 -16.0 11.25 -16.1 11.3 -16.15 11.45 -16.45 11.3 -15.65 11.35 -15.4 11.6 -15.25 11.8 -14.6 11.95 -14.15 12.0 -14.1 11.7 -13.9 11.6 -13.85 11.55 -13.85 11.35 -13.95 11.0 -14.0 M7.3 -32.7 L7.45 -33.1 8.45 -33.05 8.35 -32.7 7.3 -32.7 M3.25 -25.7 L0.2 -23.1 0.2 -23.2 0.3 -23.6 0.75 -24.0 1.4 -24.35 2.45 -25.35 3.25 -25.7 M-8.95 -14.9 L-9.1 -14.7 -9.3 -14.3 -9.4 -14.4 -9.6 -14.75 -9.5 -15.1 -9.1 -15.05 -8.95 -14.9 M-11.5 -11.2 L-11.75 -9.45 -11.7 -8.7 -13.4 -6.8 -13.4 -6.85 Q-13.55 -7.55 -14.0 -8.15 L-11.5 -11.2 M1.25 -31.55 L0.8 -31.6 Q1.25 -32.3 1.95 -32.4 2.6 -32.5 2.35 -32.2 L1.85 -31.65 1.75 -31.5 1.7 -31.45 1.45 -31.5 1.25 -31.55 M15.15 -29.35 Q14.9 -28.65 15.05 -27.75 10.65 -24.45 7.0 -19.8 L7.0 -19.85 6.85 -20.3 6.65 -20.7 7.1 -21.35 8.3 -22.7 Q10.4 -25.1 13.2 -27.4 13.95 -28.05 13.95 -28.5 L13.4 -29.55 Q12.9 -30.15 13.1 -30.6 L13.7 -30.45 14.1 -29.9 Q14.5 -29.4 15.15 -29.35 M5.9 -18.3 L5.85 -18.3 5.85 -18.25 5.75 -18.1 5.5 -17.95 5.45 -17.95 5.35 -17.85 5.35 -17.8 5.15 -17.55 3.6 -16.2 0.9 -13.45 0.75 -13.8 0.55 -14.05 0.8 -14.45 3.1 -17.35 3.7 -18.6 3.55 -19.25 Q3.3 -19.6 3.35 -19.75 3.35 -20.1 3.75 -20.1 L4.25 -19.8 4.5 -19.25 5.5 -19.55 6.05 -19.85 6.05 -19.55 5.9 -18.3 M0.25 -12.15 L0.25 -12.1 0.25 -11.95 -1.1 -10.75 -1.15 -10.85 -0.5 -11.5 0.15 -12.15 0.25 -12.15 M-4.7 -7.65 Q-5.05 -7.05 -5.05 -6.25 L-5.4 -6.1 Q-6.8 -5.35 -7.75 -5.2 L-9.4 -4.95 -11.3 -4.3 -11.1 -4.75 -4.7 -7.65 M-7.35 -14.0 L-8.2 -14.05 -7.3 -15.75 -7.25 -15.85 -7.15 -16.0 -7.1 -16.1 -7.0 -16.25 -6.9 -16.45 -7.0 -16.1 -7.05 -15.75 -7.05 -15.65 -7.0 -15.4 -6.75 -15.25 -6.55 -14.6 -6.4 -14.15 -6.35 -14.1 -6.65 -13.9 -6.75 -13.85 -6.8 -13.85 -7.0 -13.95 -7.3 -14.0 -7.35 -14.0" fill="#4d7226" fill-rule="evenodd" stroke="none"/>
    <path d="M27.65 -32.7 L27.8 -32.85 Q29.4 -33.95 31.4 -33.95 33.45 -33.95 34.85 -32.9 36.45 -31.8 36.4 -30.2 36.4 -29.0 35.55 -28.05 L35.45 -27.95 Q29.6 -24.0 25.05 -17.75 L25.0 -17.7 22.6 -15.45 Q21.2 -14.35 19.6 -12.25 L19.6 -11.65 Q19.75 -10.35 18.45 -9.0 L17.4 -8.15 16.85 -8.0 16.6 -7.65 14.8 -5.95 Q12.65 -4.5 10.4 -4.15 L9.05 -3.9 6.55 -3.0 5.8 -2.85 5.3 -3.2 Q5.15 -3.55 5.55 -4.0 L6.3 -5.15 6.5 -6.1 6.65 -7.25 4.6 -4.8 4.05 -4.1 3.4 -3.55 Q2.0 -2.5 -0.05 -2.5 -2.05 -2.5 -3.55 -3.55 -4.5 -4.25 -4.85 -5.15 -6.4 -4.4 -7.95 -4.15 L-9.3 -3.9 -11.8 -3.0 -12.55 -2.85 -13.05 -3.2 Q-13.2 -3.55 -12.8 -4.0 -12.2 -4.7 -12.05 -5.15 L-11.85 -6.1 -11.7 -7.2 -13.7 -4.8 -14.25 -4.1 -14.9 -3.55 Q-16.3 -2.5 -18.35 -2.5 -20.35 -2.5 -21.85 -3.55 -23.35 -4.65 -23.35 -6.25 -23.35 -7.8 -21.95 -8.85 L-21.9 -8.9 -21.8 -8.95 -21.75 -9.0 -21.7 -9.0 Q-16.25 -12.95 -13.25 -17.4 L-13.25 -17.45 -12.95 -17.8 -12.95 -17.85 -12.85 -17.95 -12.8 -17.95 Q-6.7 -22.5 -3.15 -27.25 -4.0 -30.5 -0.6 -31.35 -0.35 -32.35 0.45 -32.75 1.25 -33.2 1.9 -33.05 2.55 -32.95 2.8 -33.2 3.05 -33.45 4.15 -33.75 L6.35 -33.65 6.75 -33.4 8.4 -33.6 8.7 -33.4 Q9.05 -33.05 8.95 -32.4 L9.05 -32.35 9.3 -32.7 9.45 -32.85 Q11.05 -33.95 13.05 -33.95 15.1 -33.95 16.5 -32.9 17.4 -32.3 17.75 -31.55 18.05 -32.4 18.75 -32.75 19.55 -33.2 20.2 -33.05 20.85 -32.95 21.1 -33.2 21.35 -33.45 22.45 -33.75 L24.65 -33.65 25.05 -33.4 26.7 -33.6 27.0 -33.4 Q27.35 -33.05 27.25 -32.4 L27.4 -32.3 27.65 -32.7 M25.6 -32.7 L26.65 -32.7 26.75 -33.05 25.75 -33.1 25.6 -32.7 M26.1 -30.55 L26.9 -31.6 26.8 -31.8 26.2 -32.0 25.55 -31.85 24.95 -32.6 24.8 -32.65 24.5 -32.95 24.35 -33.05 22.85 -33.15 22.6 -33.05 21.95 -32.75 22.65 -32.8 22.7 -32.8 22.4 -32.6 22.05 -32.6 21.5 -32.45 20.85 -32.35 20.45 -32.0 20.15 -31.65 20.65 -32.2 Q20.9 -32.5 20.25 -32.4 19.55 -32.3 19.1 -31.6 L19.55 -31.55 Q19.0 -31.45 18.8 -31.1 L18.75 -30.7 18.1 -30.6 18.05 -30.55 17.3 -30.1 17.05 -29.9 16.45 -29.35 16.15 -28.7 16.15 -28.65 16.15 -28.5 16.05 -28.3 16.0 -27.85 16.05 -26.35 15.4 -25.9 Q12.65 -22.45 8.6 -19.1 L7.25 -18.45 6.6 -18.05 6.35 -17.8 6.3 -17.45 6.35 -17.35 6.35 -17.3 6.25 -17.25 6.1 -17.15 6.0 -17.0 5.9 -16.85 Q4.05 -14.1 1.3 -11.5 L-0.1 -10.3 -0.5 -9.95 -0.3 -10.0 -0.15 -10.0 -0.35 -9.95 -0.4 -9.95 -0.45 -9.95 -1.0 -9.45 -2.15 -8.6 -2.5 -8.4 -2.65 -8.35 -2.85 -8.2 -2.95 -8.1 -3.0 -8.1 -3.05 -8.05 -3.9 -6.95 -4.05 -6.25 -3.95 -5.65 Q-3.75 -4.95 -2.95 -4.35 -1.75 -3.5 -0.05 -3.5 1.6 -3.5 2.8 -4.35 L3.35 -4.8 3.7 -5.2 3.7 -5.25 3.95 -5.85 4.8 -6.75 4.9 -6.85 4.9 -6.8 6.65 -8.8 6.6 -9.45 Q6.6 -10.4 6.9 -11.3 L7.25 -12.2 8.1 -13.2 9.0 -14.25 9.25 -14.7 9.35 -14.85 10.05 -16.0 10.6 -16.9 10.65 -16.9 11.15 -17.45 Q11.6 -17.9 12.1 -18.1 L12.2 -18.15 13.45 -18.35 13.95 -18.3 15.0 -19.6 16.7 -21.7 16.9 -21.9 17.0 -21.95 18.45 -23.05 21.6 -25.7 23.05 -27.1 25.0 -29.25 25.55 -29.85 26.1 -30.55 M29.65 -32.65 L28.4 -32.05 27.75 -31.15 27.0 -30.15 26.25 -29.2 25.65 -28.5 24.55 -27.25 23.6 -26.3 22.15 -24.9 20.0 -23.0 19.85 -22.9 20.25 -22.95 18.8 -22.25 18.05 -21.7 17.75 -21.3 17.75 -21.25 17.45 -21.05 15.8 -19.0 14.95 -17.9 15.25 -17.65 15.4 -17.4 15.45 -17.3 14.95 -16.95 14.6 -16.6 14.55 -16.85 14.3 -17.2 13.95 -17.35 13.45 -17.35 12.9 -17.25 12.8 -17.25 12.0 -16.95 11.85 -16.85 11.45 -16.45 11.3 -16.15 11.25 -16.1 11.2 -16.0 11.1 -15.85 11.05 -15.75 10.15 -14.05 11.0 -14.0 10.75 -13.75 10.35 -13.05 9.65 -12.95 8.85 -12.6 8.35 -11.95 7.95 -11.15 7.6 -9.8 7.55 -8.25 7.55 -8.2 7.35 -5.15 7.25 -4.75 7.05 -4.3 8.95 -4.95 10.6 -5.2 Q11.55 -5.35 12.95 -6.1 L15.0 -7.45 16.1 -8.9 16.3 -9.45 16.4 -10.15 16.35 -10.3 16.95 -11.3 17.2 -10.85 17.35 -9.95 17.35 -9.4 17.85 -9.8 18.15 -10.15 18.5 -10.75 18.6 -11.2 18.6 -12.1 18.6 -12.15 18.5 -12.5 19.0 -13.45 19.1 -13.8 19.25 -13.45 21.95 -16.2 24.2 -18.25 24.2 -18.3 24.25 -18.3 24.3 -18.3 24.75 -18.6 24.85 -18.9 Q24.95 -19.45 25.35 -19.85 L25.35 -19.8 Q29.55 -25.2 34.8 -28.75 35.4 -29.4 35.4 -30.2 L35.4 -30.4 35.35 -30.55 35.1 -31.25 34.25 -32.1 Q33.05 -32.95 31.4 -32.95 L29.65 -32.65 M7.3 -32.7 L8.35 -32.7 8.45 -33.05 7.45 -33.1 7.3 -32.7 M7.25 -31.85 L6.65 -32.6 6.5 -32.65 6.2 -32.95 6.05 -33.05 4.55 -33.15 4.3 -33.05 3.65 -32.75 4.35 -32.8 4.4 -32.8 4.1 -32.6 3.75 -32.6 3.2 -32.45 2.55 -32.35 2.15 -32.0 1.85 -31.65 2.35 -32.2 Q2.6 -32.5 1.95 -32.4 1.25 -32.3 0.8 -31.6 L1.25 -31.55 Q0.7 -31.45 0.5 -31.1 L0.45 -30.7 -0.2 -30.6 -1.0 -30.1 -1.85 -29.35 -2.15 -28.7 -2.15 -28.65 -2.25 -28.3 -2.3 -27.85 -2.25 -26.35 -2.9 -25.9 Q-5.65 -22.45 -9.7 -19.1 L-11.7 -18.05 -11.95 -17.8 -12.0 -17.45 -11.95 -17.3 -12.2 -17.15 -12.4 -16.85 Q-14.8 -13.25 -18.8 -9.95 L-18.45 -10.0 -18.7 -9.95 -18.75 -9.95 -20.45 -8.6 -20.95 -8.35 -21.15 -8.2 -21.25 -8.1 -21.3 -8.1 -21.35 -8.05 Q-22.35 -7.3 -22.35 -6.25 -22.35 -5.15 -21.25 -4.35 -20.05 -3.5 -18.35 -3.5 -16.7 -3.5 -15.5 -4.35 L-14.95 -4.8 -14.6 -5.2 -14.6 -5.25 -14.35 -5.85 -13.5 -6.75 -13.4 -6.85 -13.4 -6.8 -11.7 -8.7 -11.75 -9.45 -11.5 -11.2 -11.1 -12.2 -10.25 -13.2 -9.3 -14.3 -9.1 -14.7 -8.95 -14.9 -8.3 -16.0 -7.75 -16.9 -7.7 -16.9 -7.15 -17.5 Q-6.7 -17.9 -6.25 -18.1 L-6.15 -18.15 -4.9 -18.35 -4.4 -18.3 -3.35 -19.6 -1.65 -21.7 -1.45 -21.9 -1.35 -21.95 0.2 -23.1 3.25 -25.7 4.7 -27.1 6.65 -29.25 7.2 -29.9 7.75 -30.55 8.6 -31.65 8.5 -31.8 7.9 -32.0 7.25 -31.85 M11.3 -32.65 L10.05 -32.05 9.45 -31.2 8.7 -30.2 7.9 -29.25 7.35 -28.55 6.15 -27.25 5.2 -26.25 3.75 -24.85 1.5 -22.9 1.9 -22.95 0.45 -22.25 -0.3 -21.7 -0.6 -21.3 -0.6 -21.25 -0.9 -21.05 -2.55 -19.0 -3.4 -17.9 -3.1 -17.6 -2.95 -17.4 -2.9 -17.3 -3.4 -16.95 -3.75 -16.6 -3.75 -16.8 -4.05 -17.2 -4.4 -17.35 -4.9 -17.35 -5.25 -17.3 -5.45 -17.25 -5.55 -17.25 -6.3 -16.95 -6.5 -16.85 -6.9 -16.45 -7.0 -16.25 -7.1 -16.1 -7.15 -16.0 -7.25 -15.85 -7.3 -15.75 -8.2 -14.05 -7.35 -14.0 -7.6 -13.75 -8.0 -13.05 -8.7 -12.95 -9.5 -12.6 -10.0 -11.95 -10.4 -11.15 -10.75 -9.7 -10.8 -8.2 Q-10.75 -6.0 -11.0 -5.15 L-11.1 -4.75 -11.3 -4.3 -9.4 -4.95 -7.75 -5.2 Q-6.8 -5.35 -5.4 -6.1 L-5.05 -6.25 Q-5.05 -7.05 -4.7 -7.65 L-3.65 -8.85 -3.6 -8.9 -3.5 -8.95 -3.45 -9.0 -3.4 -9.0 -1.95 -10.1 -1.95 -10.15 -2.0 -10.3 -1.4 -11.3 -1.15 -10.85 -1.1 -10.75 0.25 -11.95 0.25 -12.1 0.25 -12.15 0.15 -12.5 0.65 -13.45 0.75 -13.8 0.9 -13.45 3.6 -16.2 5.15 -17.55 5.35 -17.8 5.35 -17.85 5.45 -17.95 5.5 -17.95 5.75 -18.1 5.85 -18.25 5.85 -18.3 5.9 -18.3 6.0 -18.3 6.45 -18.65 6.5 -18.9 Q6.6 -19.45 7.0 -19.85 L7.0 -19.8 Q10.65 -24.45 15.05 -27.75 14.9 -28.65 15.15 -29.35 15.5 -30.5 16.85 -31.05 L16.75 -31.25 15.9 -32.1 Q14.7 -32.95 13.05 -32.95 L11.3 -32.65 M9.0 -6.45 L9.0 -6.4 8.9 -6.4 9.0 -6.45 M-9.35 -6.45 L-9.35 -6.4 -9.45 -6.4 -9.35 -6.45" fill="#31471a" fill-rule="evenodd" stroke="none"/>
    <path d="M25.55 -31.85 L25.15 -31.65 25.05 -31.6 25.4 -30.7 25.3 -30.1 25.3 -30.05 25.35 -30.0 25.55 -29.85 25.0 -29.25 24.8 -29.35 23.65 -29.7 22.8 -29.8 22.15 -29.55 22.1 -29.5 21.8 -29.3 21.6 -29.05 21.35 -28.75 21.3 -28.65 20.65 -27.1 Q21.2 -26.5 20.85 -25.55 L20.75 -25.35 19.7 -24.35 19.05 -24.0 18.2 -23.55 17.2 -22.85 Q17.05 -22.7 16.85 -22.7 17.5 -23.95 18.15 -24.35 L19.6 -25.25 20.15 -25.8 20.15 -25.85 Q20.35 -26.3 20.1 -26.6 L18.95 -26.7 18.9 -26.65 18.6 -26.6 17.9 -26.7 18.3 -27.1 19.45 -27.5 Q20.1 -27.6 20.6 -27.15 L20.65 -27.1 20.65 -29.3 20.5 -29.9 19.95 -30.5 19.95 -30.55 19.75 -30.65 19.7 -30.65 19.0 -30.75 18.75 -30.7 18.8 -31.1 Q19.0 -31.45 19.55 -31.55 L19.75 -31.5 20.0 -31.45 20.05 -31.5 20.15 -31.65 20.45 -32.0 20.85 -32.35 21.5 -32.45 22.05 -32.6 22.4 -32.6 22.7 -32.8 22.75 -32.8 23.85 -32.55 23.9 -32.55 24.0 -32.45 24.05 -32.45 24.45 -32.25 24.7 -32.45 24.85 -32.5 24.8 -32.65 24.95 -32.6 25.55 -31.85 M12.1 -18.1 Q11.6 -17.9 11.15 -17.45 L9.0 -17.95 8.35 -17.9 8.25 -17.9 7.7 -17.8 7.65 -17.8 7.55 -17.75 6.5 -17.4 6.35 -17.3 6.35 -17.35 6.3 -17.45 6.35 -17.8 6.6 -18.05 7.25 -18.45 8.6 -19.1 8.3 -18.9 8.85 -18.95 8.9 -18.95 Q10.75 -18.95 12.1 -18.1 M20.25 -22.95 L20.4 -22.95 20.85 -22.95 22.2 -22.7 Q23.1 -22.45 23.85 -21.9 L25.0 -20.7 25.2 -20.3 25.35 -19.85 Q24.95 -19.45 24.85 -18.9 L24.75 -18.6 24.3 -18.3 24.25 -18.3 24.4 -19.55 24.4 -19.85 23.35 -21.3 Q22.55 -22.05 21.4 -22.1 L20.5 -22.1 19.6 -21.95 17.75 -21.25 17.75 -21.3 18.05 -21.7 18.8 -22.25 20.25 -22.95 M20.65 -31.3 L20.6 -31.25 20.6 -31.15 20.95 -30.75 21.4 -30.05 Q22.0 -30.5 22.85 -30.6 L23.85 -30.5 24.6 -30.3 24.6 -30.45 Q24.7 -31.25 23.8 -31.75 L23.45 -31.9 22.25 -32.1 Q21.05 -32.0 20.65 -31.3 M19.1 -13.8 L19.0 -13.45 18.5 -12.5 18.45 -12.75 Q17.85 -14.05 16.35 -13.55 L15.75 -13.3 16.1 -13.7 Q16.65 -14.3 17.45 -14.6 17.4 -17.15 15.6 -15.95 L15.55 -15.8 14.95 -14.6 15.15 -14.5 15.35 -14.25 15.55 -13.1 15.5 -11.95 16.25 -11.85 16.3 -11.8 16.6 -11.65 16.95 -11.3 16.35 -10.3 15.8 -10.95 15.15 -11.0 15.35 -10.95 15.1 -10.5 Q14.0 -8.5 12.1 -7.55 L10.95 -7.05 9.5 -6.5 9.45 -6.5 9.2 -6.45 9.15 -6.45 9.0 -6.4 9.0 -6.45 9.0 -6.5 9.9 -6.9 12.05 -8.35 Q13.3 -9.35 14.25 -11.15 L14.45 -11.6 14.55 -12.2 14.6 -13.2 14.55 -13.5 14.4 -13.7 13.65 -13.85 13.45 -13.85 Q12.75 -13.85 12.15 -13.4 11.25 -12.85 10.45 -11.0 L10.05 -10.1 10.1 -10.7 Q10.25 -11.7 10.55 -12.25 L10.7 -12.5 11.0 -13.0 10.8 -13.05 10.75 -13.05 10.35 -13.05 10.75 -13.75 11.0 -14.0 11.35 -13.95 11.55 -13.85 11.6 -13.85 11.7 -13.9 12.0 -14.1 12.3 -14.25 12.8 -14.5 13.3 -14.65 13.55 -14.7 13.7 -14.8 14.15 -15.3 Q14.55 -15.75 14.6 -16.45 L14.6 -16.6 14.95 -16.95 15.45 -17.3 15.5 -17.05 16.0 -17.1 16.1 -17.1 17.0 -16.9 17.6 -16.35 18.25 -15.35 18.35 -14.7 18.4 -14.6 18.4 -14.5 18.5 -14.45 18.9 -14.05 19.1 -13.8 M6.5 -32.65 L6.65 -32.6 7.25 -31.85 6.85 -31.65 6.75 -31.6 7.1 -30.7 7.0 -30.1 7.0 -30.05 7.05 -30.0 7.2 -29.9 6.65 -29.25 6.5 -29.35 5.35 -29.7 4.5 -29.8 3.85 -29.55 3.8 -29.5 3.5 -29.3 3.3 -29.05 3.05 -28.75 3.0 -28.65 2.35 -27.1 Q2.9 -26.5 2.55 -25.55 L2.45 -25.35 1.4 -24.35 0.75 -24.0 -0.1 -23.55 -1.1 -22.85 -1.45 -22.7 -0.15 -24.35 1.3 -25.25 1.85 -25.8 1.85 -25.85 1.8 -26.6 0.65 -26.7 0.6 -26.65 0.3 -26.6 -0.4 -26.7 0.0 -27.1 1.15 -27.5 Q1.8 -27.6 2.3 -27.15 L2.35 -27.1 2.35 -29.3 2.2 -29.9 1.65 -30.5 1.65 -30.55 1.45 -30.65 1.4 -30.65 0.7 -30.75 0.45 -30.7 0.5 -31.1 Q0.7 -31.45 1.25 -31.55 L1.45 -31.5 1.7 -31.45 1.75 -31.5 1.85 -31.65 2.15 -32.0 2.55 -32.35 3.2 -32.45 3.75 -32.6 4.1 -32.6 4.4 -32.8 4.45 -32.8 5.55 -32.55 5.6 -32.55 5.7 -32.45 5.75 -32.45 6.15 -32.25 6.4 -32.45 6.55 -32.5 6.5 -32.65 M-6.25 -18.1 Q-6.7 -17.9 -7.15 -17.5 L-9.3 -17.95 -9.95 -17.9 -10.05 -17.9 -10.6 -17.8 -10.65 -17.8 -10.75 -17.75 -11.8 -17.4 -11.95 -17.3 -12.0 -17.45 -11.95 -17.8 -11.7 -18.05 -9.7 -19.1 -10.0 -18.9 -9.45 -18.95 -9.4 -18.95 Q-7.55 -18.95 -6.25 -18.1 M2.35 -31.3 L2.3 -31.25 2.3 -31.15 2.65 -30.75 3.1 -30.05 Q3.7 -30.5 4.55 -30.6 L5.55 -30.5 6.3 -30.3 6.3 -30.45 Q6.4 -31.25 5.5 -31.75 L5.15 -31.9 3.95 -32.1 Q2.75 -32.0 2.35 -31.3 M7.0 -19.85 Q6.6 -19.45 6.5 -18.9 L6.45 -18.65 6.0 -18.3 5.9 -18.3 6.05 -19.55 6.05 -19.85 5.0 -21.3 Q4.2 -22.0 3.15 -22.1 L2.15 -22.1 1.35 -21.95 Q0.25 -21.75 -0.6 -21.25 L-0.6 -21.3 -0.3 -21.7 0.45 -22.25 1.9 -22.95 2.05 -22.95 2.55 -22.9 3.9 -22.7 Q4.8 -22.45 5.5 -21.9 L6.65 -20.7 6.85 -20.3 7.0 -19.85 M0.75 -13.8 L0.65 -13.45 0.15 -12.5 0.1 -12.75 Q-0.5 -14.05 -2.0 -13.55 L-2.6 -13.3 -2.25 -13.7 Q-1.7 -14.3 -0.9 -14.6 -0.95 -17.15 -2.75 -15.95 L-2.8 -15.8 Q-2.85 -15.35 -3.4 -14.6 L-3.2 -14.5 -3.0 -14.25 -2.8 -13.1 -2.85 -11.95 -2.1 -11.85 -2.05 -11.8 -1.75 -11.65 -1.4 -11.3 -2.0 -10.3 -2.55 -10.95 -3.2 -11.0 -3.0 -10.95 -3.25 -10.5 Q-4.35 -8.5 -6.25 -7.55 L-7.4 -7.05 -8.85 -6.5 -8.9 -6.5 -9.15 -6.45 -9.2 -6.45 -9.35 -6.4 -9.35 -6.45 -9.35 -6.5 -8.45 -6.9 -6.3 -8.35 Q-5.05 -9.35 -4.1 -11.15 L-3.9 -11.6 -3.8 -12.2 -3.75 -13.2 -3.8 -13.5 -3.95 -13.7 -4.65 -13.85 -4.9 -13.85 -6.2 -13.4 Q-7.1 -12.8 -7.95 -10.9 L-8.3 -10.1 -8.25 -10.65 -7.8 -12.25 -7.7 -12.4 -7.35 -13.0 -7.55 -13.05 -7.6 -13.05 -8.0 -13.05 -7.6 -13.75 -7.35 -14.0 -7.3 -14.0 -7.0 -13.95 -6.8 -13.85 -6.75 -13.85 -6.65 -13.9 -6.35 -14.1 -6.25 -14.15 -6.05 -14.25 -5.7 -14.4 -5.5 -14.5 -5.0 -14.65 -4.8 -14.7 -4.65 -14.8 -4.2 -15.3 Q-3.8 -15.75 -3.75 -16.45 L-3.75 -16.6 -3.4 -16.95 -2.9 -17.3 -2.85 -17.05 -2.35 -17.1 -2.2 -17.1 -1.35 -16.9 -0.75 -16.35 -0.1 -15.35 0.0 -14.7 0.05 -14.6 0.05 -14.5 0.15 -14.45 0.55 -14.05 0.75 -13.8" fill="#446620" fill-rule="evenodd" stroke="none"/>
    <path d="M25.4 -30.7 L25.5 -30.65 26.1 -30.55 25.55 -29.85 25.35 -30.0 25.3 -30.05 25.3 -30.1 25.4 -30.7 M23.05 -27.1 L21.6 -25.7 20.75 -25.35 20.85 -25.55 Q21.2 -26.5 20.65 -27.1 L21.3 -28.65 21.35 -28.75 21.6 -29.05 21.8 -29.3 21.55 -28.7 Q21.5 -27.95 22.2 -27.4 22.55 -27.15 23.05 -27.1 M18.45 -23.05 L17.0 -21.95 16.9 -21.9 16.7 -21.7 15.0 -19.6 13.95 -18.3 13.45 -18.35 12.2 -18.15 12.1 -18.1 Q10.75 -18.95 8.9 -18.95 L8.85 -18.95 8.3 -18.9 8.6 -19.1 Q12.65 -22.45 15.4 -25.9 L16.05 -26.35 16.0 -27.85 16.05 -28.3 16.15 -28.5 16.15 -28.65 16.25 -28.6 Q16.4 -28.45 16.7 -28.35 L17.35 -28.25 Q18.35 -28.15 19.2 -28.7 19.65 -28.95 19.85 -29.3 L19.95 -30.4 19.95 -30.5 20.5 -29.9 20.65 -29.3 20.65 -27.1 20.6 -27.15 Q20.1 -27.6 19.45 -27.5 L18.3 -27.1 17.9 -26.7 18.6 -26.6 18.05 -26.2 17.1 -25.4 16.65 -25.0 Q16.5 -24.75 16.65 -24.5 16.9 -24.25 17.35 -24.5 L19.1 -25.25 19.4 -25.45 19.85 -25.65 20.15 -25.8 19.6 -25.25 18.15 -24.35 Q17.5 -23.95 16.85 -22.7 17.05 -22.7 17.2 -22.85 L18.2 -23.55 19.05 -24.0 18.6 -23.6 18.5 -23.2 18.45 -23.05 M11.15 -17.45 L10.65 -16.9 10.35 -17.0 9.4 -17.25 7.8 -16.9 7.0 -16.75 Q6.45 -16.45 6.7 -16.05 6.85 -15.75 7.55 -15.85 L9.5 -16.05 10.0 -16.0 10.05 -16.0 9.35 -14.85 9.2 -15.05 8.8 -15.1 Q8.6 -15.0 8.7 -14.75 L8.9 -14.4 9.0 -14.25 8.1 -13.2 7.25 -12.2 6.9 -11.3 4.3 -8.15 4.9 -6.85 4.8 -6.75 3.95 -5.85 3.9 -5.85 3.95 -6.15 3.95 -6.25 Q3.9 -7.35 2.8 -8.15 1.65 -8.95 0.1 -9.0 L-0.05 -9.0 -0.3 -9.0 -0.7 -8.95 -0.95 -8.95 -2.15 -8.6 -1.0 -9.45 -0.45 -9.95 -0.4 -9.95 -0.35 -9.95 -0.15 -10.0 -0.3 -10.0 -0.5 -9.95 -0.1 -10.3 1.3 -11.5 Q4.05 -14.1 5.9 -16.85 L6.0 -17.0 6.1 -17.15 6.25 -17.25 6.35 -17.3 6.5 -17.4 7.55 -17.75 7.65 -17.8 7.7 -17.8 8.25 -17.9 8.35 -17.9 9.0 -17.95 11.15 -17.45 M22.65 -32.8 L21.95 -32.75 22.6 -33.05 22.65 -32.8 M24.5 -32.95 L24.8 -32.65 24.85 -32.5 24.7 -32.45 24.45 -32.25 24.05 -32.45 24.45 -32.8 24.5 -32.95 M29.65 -32.65 L29.55 -32.05 29.6 -31.55 Q29.7 -31.4 30.05 -31.4 L31.25 -31.5 32.4 -31.45 33.25 -31.05 33.85 -30.95 Q34.65 -30.85 35.0 -31.2 L35.1 -31.25 35.35 -30.55 Q34.9 -29.75 34.15 -29.5 33.1 -29.1 32.45 -29.9 L32.05 -30.45 Q31.7 -30.8 31.45 -30.6 31.25 -30.15 31.75 -29.55 L32.3 -28.5 Q32.3 -28.05 31.55 -27.4 28.75 -25.1 26.65 -22.7 L25.45 -21.35 25.0 -20.7 23.85 -21.9 Q23.1 -22.45 22.2 -22.7 L20.85 -22.95 20.4 -22.95 20.25 -22.95 19.85 -22.9 20.0 -23.0 22.15 -24.9 23.6 -26.3 24.55 -27.25 25.65 -28.5 26.25 -29.2 27.0 -30.15 27.75 -31.15 28.4 -32.05 29.65 -32.65 M23.45 -31.9 L23.8 -31.75 Q24.7 -31.25 24.6 -30.45 L24.6 -30.3 23.85 -30.5 22.85 -30.6 Q22.0 -30.5 21.4 -30.05 L20.95 -30.75 20.6 -31.15 20.6 -31.25 20.65 -31.3 Q20.85 -30.85 21.3 -30.7 L22.05 -30.6 Q22.8 -30.6 23.05 -30.85 23.35 -31.05 23.45 -31.75 L23.45 -31.9 M22.5 -24.5 L22.35 -24.05 22.3 -23.45 Q22.3 -23.1 22.45 -22.85 L22.6 -22.7 23.05 -22.6 24.2 -22.6 Q24.3 -22.6 24.85 -22.9 L26.1 -23.7 28.25 -25.7 30.1 -27.65 30.85 -28.55 Q31.15 -29.1 31.1 -29.7 L31.0 -30.05 30.5 -30.2 Q29.0 -30.2 28.4 -29.8 L28.35 -28.55 26.55 -26.7 25.2 -25.5 Q24.15 -24.7 22.5 -24.5 M18.5 -12.5 L18.6 -12.15 18.5 -12.15 17.85 -11.5 17.2 -10.85 16.95 -11.3 16.6 -11.65 16.3 -11.8 16.25 -11.85 15.5 -11.95 15.55 -13.1 15.35 -14.25 15.15 -14.5 14.95 -14.6 15.55 -15.8 15.6 -15.95 Q17.4 -17.15 17.45 -14.6 16.65 -14.3 16.1 -13.7 L15.75 -13.3 16.35 -13.55 Q17.85 -14.05 18.45 -12.75 L18.5 -12.5 M16.35 -10.3 L16.4 -10.15 16.3 -9.45 16.1 -8.9 15.15 -8.35 7.25 -4.75 7.35 -5.15 7.55 -8.2 7.55 -8.25 7.6 -9.8 7.95 -11.15 8.35 -11.95 8.85 -12.6 9.65 -12.95 10.35 -13.05 10.75 -13.05 10.8 -13.05 11.0 -13.0 10.7 -12.5 10.55 -12.25 Q10.25 -11.7 10.1 -10.7 L10.05 -10.1 10.45 -11.0 Q11.25 -12.85 12.15 -13.4 12.75 -13.85 13.45 -13.85 L13.65 -13.85 14.4 -13.7 14.55 -13.5 14.6 -13.2 14.55 -12.2 14.45 -11.6 14.25 -11.15 Q13.3 -9.35 12.05 -8.35 L9.9 -6.9 9.0 -6.5 9.1 -6.85 9.85 -7.65 Q10.3 -7.65 10.65 -7.95 L10.95 -8.2 11.45 -8.5 11.9 -9.1 12.25 -9.35 12.35 -9.6 12.9 -10.1 13.7 -10.95 13.8 -12.7 13.75 -13.2 13.35 -13.35 13.05 -13.3 11.85 -12.55 11.6 -12.15 11.45 -11.8 11.25 -11.3 Q10.95 -11.0 10.95 -10.6 L10.9 -10.05 10.55 -9.6 10.0 -8.95 9.45 -8.75 9.15 -8.45 9.1 -8.45 Q8.65 -8.0 8.7 -7.75 L8.9 -7.45 Q8.75 -7.5 8.7 -7.7 8.35 -6.95 8.15 -5.9 L8.15 -5.55 8.6 -5.6 8.9 -6.2 9.0 -6.4 9.15 -6.45 9.2 -6.45 9.45 -6.5 9.5 -6.5 10.95 -7.05 12.1 -7.55 Q14.0 -8.5 15.1 -10.5 L15.35 -10.95 15.15 -11.0 15.8 -10.95 16.35 -10.3 M11.45 -16.45 L11.85 -16.85 12.0 -16.95 12.8 -17.25 12.9 -17.25 13.45 -17.35 13.95 -17.35 14.3 -17.2 14.55 -16.85 14.6 -16.6 14.6 -16.45 Q14.55 -15.75 14.15 -15.3 L13.7 -14.8 13.55 -14.7 13.3 -14.65 12.8 -14.5 12.3 -14.25 12.0 -14.1 11.95 -14.15 11.8 -14.6 11.6 -15.25 11.35 -15.4 11.3 -15.65 11.45 -16.45 M15.45 -17.3 L15.4 -17.4 15.25 -17.65 14.95 -17.9 15.8 -19.0 17.45 -21.05 17.75 -21.25 19.6 -21.95 20.5 -22.1 21.4 -22.1 Q22.55 -22.05 23.35 -21.3 L24.4 -19.85 23.85 -19.55 Q23.6 -19.35 22.85 -19.25 L22.6 -19.8 Q22.4 -20.1 22.1 -20.1 21.7 -20.1 21.7 -19.75 21.65 -19.6 21.9 -19.25 L22.05 -18.6 21.45 -17.35 19.15 -14.45 18.9 -14.05 18.5 -14.45 18.4 -14.5 18.4 -14.6 18.6 -14.9 19.75 -16.3 19.85 -16.6 20.05 -16.85 20.9 -18.25 20.9 -19.0 20.65 -19.65 20.05 -19.8 18.8 -19.6 17.9 -19.15 17.15 -18.45 16.45 -17.75 16.1 -17.3 16.0 -17.1 15.5 -17.05 15.45 -17.3 M7.75 -30.55 L7.2 -29.9 7.05 -30.0 7.0 -30.05 7.0 -30.1 7.1 -30.7 7.2 -30.65 7.75 -30.55 M4.7 -27.1 L3.25 -25.7 2.45 -25.35 2.55 -25.55 Q2.9 -26.5 2.35 -27.1 L3.0 -28.65 3.05 -28.75 3.3 -29.05 3.5 -29.3 3.25 -28.7 Q3.2 -27.95 3.9 -27.4 L4.7 -27.1 M0.2 -23.1 L-1.35 -21.95 -1.45 -21.9 -1.65 -21.7 -3.35 -19.6 -4.4 -18.3 -4.9 -18.35 -6.15 -18.15 -6.25 -18.1 Q-7.55 -18.95 -9.4 -18.95 L-9.45 -18.95 -10.0 -18.9 -9.7 -19.1 Q-5.65 -22.45 -2.9 -25.9 L-2.25 -26.35 -2.3 -27.85 -2.25 -28.3 -2.15 -28.65 Q-1.95 -28.45 -1.6 -28.35 -0.2 -28.0 0.9 -28.7 L1.55 -29.3 1.65 -30.4 1.65 -30.5 2.2 -29.9 2.35 -29.3 2.35 -27.1 2.3 -27.15 Q1.8 -27.6 1.15 -27.5 L0.0 -27.1 -0.4 -26.7 0.3 -26.6 -0.25 -26.2 -1.2 -25.4 -1.65 -25.0 -1.65 -24.5 Q-1.4 -24.25 -0.95 -24.5 L0.8 -25.25 1.1 -25.45 1.55 -25.65 1.85 -25.8 1.3 -25.25 -0.15 -24.35 -1.45 -22.7 -1.1 -22.85 -0.1 -23.55 0.75 -24.0 0.3 -23.6 0.2 -23.2 0.2 -23.1 M-7.15 -17.5 L-7.7 -16.9 -7.95 -17.0 -8.9 -17.25 -10.5 -16.9 -11.3 -16.75 Q-11.85 -16.45 -11.6 -16.05 -11.45 -15.75 -10.75 -15.85 L-8.8 -16.05 -8.3 -16.0 -8.95 -14.9 -9.1 -15.05 -9.5 -15.1 -9.6 -14.75 -9.4 -14.4 -9.3 -14.3 -10.25 -13.2 -11.1 -12.2 -11.5 -11.2 -14.0 -8.15 Q-13.55 -7.55 -13.4 -6.85 L-13.5 -6.75 -14.35 -5.85 -14.4 -5.85 -14.35 -6.15 -14.35 -6.25 Q-14.4 -7.35 -15.5 -8.15 -16.7 -9.0 -18.35 -9.0 L-18.6 -9.0 -19.0 -8.95 -19.25 -8.95 -20.45 -8.6 -18.75 -9.95 -18.7 -9.95 -18.45 -10.0 -18.8 -9.95 Q-14.8 -13.25 -12.4 -16.85 L-12.2 -17.15 -11.95 -17.3 -11.8 -17.4 -10.75 -17.75 -10.65 -17.8 -10.6 -17.8 -10.05 -17.9 -9.95 -17.9 -9.3 -17.95 -7.15 -17.5 M4.35 -32.8 L3.65 -32.75 4.3 -33.05 4.35 -32.8 M6.2 -32.95 L6.5 -32.65 6.55 -32.5 6.4 -32.45 6.15 -32.25 5.75 -32.45 6.15 -32.8 6.2 -32.95 M5.15 -31.9 L5.5 -31.75 Q6.4 -31.25 6.3 -30.45 L6.3 -30.3 5.55 -30.5 4.55 -30.6 Q3.7 -30.5 3.1 -30.05 L2.65 -30.75 2.3 -31.15 2.3 -31.25 2.35 -31.3 3.0 -30.7 3.75 -30.6 4.75 -30.85 Q5.05 -31.05 5.15 -31.75 L5.15 -31.9 M1.9 -22.95 L1.5 -22.9 3.75 -24.85 5.2 -26.25 6.15 -27.25 7.35 -28.55 7.9 -29.25 8.7 -30.2 9.45 -31.2 10.05 -32.05 11.3 -32.65 11.2 -32.05 11.25 -31.55 Q11.35 -31.4 11.7 -31.4 L12.9 -31.5 14.05 -31.45 14.9 -31.05 15.5 -30.95 Q16.3 -30.85 16.65 -31.2 L16.75 -31.25 16.85 -31.05 Q15.5 -30.5 15.15 -29.35 14.5 -29.4 14.1 -29.9 L13.7 -30.45 13.1 -30.6 Q12.9 -30.15 13.4 -29.55 L13.95 -28.5 Q13.95 -28.05 13.2 -27.4 10.4 -25.1 8.3 -22.7 L7.1 -21.35 6.65 -20.7 5.5 -21.9 Q4.8 -22.45 3.9 -22.7 L2.55 -22.9 2.05 -22.95 1.9 -22.95 M0.15 -12.5 L0.25 -12.15 0.15 -12.15 -0.5 -11.5 -1.15 -10.85 -1.4 -11.3 -1.75 -11.65 -2.05 -11.8 -2.1 -11.85 -2.85 -11.95 -2.8 -13.1 -3.0 -14.25 -3.2 -14.5 -3.4 -14.6 Q-2.85 -15.35 -2.8 -15.8 L-2.75 -15.95 Q-0.95 -17.15 -0.9 -14.6 -1.7 -14.3 -2.25 -13.7 L-2.6 -13.3 -2.0 -13.55 Q-0.5 -14.05 0.1 -12.75 L0.15 -12.5 M-2.0 -10.3 L-1.95 -10.15 -1.95 -10.1 -3.4 -9.0 -3.45 -9.0 -3.5 -8.95 -3.6 -8.9 -3.65 -8.85 -4.7 -7.65 -11.1 -4.75 -11.0 -5.15 Q-10.75 -6.0 -10.8 -8.2 L-10.75 -9.7 -10.4 -11.15 -10.0 -11.95 -9.5 -12.6 -8.7 -12.95 -8.0 -13.05 -7.6 -13.05 -7.55 -13.05 -7.35 -13.0 -7.7 -12.4 -7.8 -12.25 -8.25 -10.65 -8.3 -10.1 -7.95 -10.9 Q-7.1 -12.8 -6.2 -13.4 L-4.9 -13.85 -4.65 -13.85 -3.95 -13.7 -3.8 -13.5 -3.75 -13.2 -3.8 -12.2 -3.9 -11.6 -4.1 -11.15 Q-5.05 -9.35 -6.3 -8.35 L-8.45 -6.9 -9.35 -6.5 -9.25 -6.85 -8.5 -7.65 Q-8.05 -7.65 -7.7 -7.95 L-7.4 -8.2 -6.9 -8.5 -6.45 -9.1 -6.1 -9.35 -6.0 -9.6 -5.45 -10.1 -4.65 -10.95 -4.55 -12.7 -4.6 -13.2 -4.95 -13.35 -5.3 -13.3 -6.5 -12.55 -6.75 -12.15 -6.95 -11.75 -7.1 -11.3 -7.4 -10.6 -7.45 -10.05 -7.8 -9.6 -8.35 -8.95 -8.9 -8.75 -9.2 -8.45 -9.25 -8.45 -9.65 -7.75 -9.45 -7.45 -9.65 -7.7 -10.2 -5.9 -10.2 -5.55 -9.75 -5.6 -9.45 -6.2 -9.35 -6.4 -9.2 -6.45 -9.15 -6.45 -8.9 -6.5 -8.85 -6.5 -7.4 -7.05 -6.25 -7.55 Q-4.35 -8.5 -3.25 -10.5 L-3.0 -10.95 -3.2 -11.0 -2.55 -10.95 -2.0 -10.3 M-6.9 -16.45 L-6.5 -16.85 -6.3 -16.95 -5.55 -17.25 -5.45 -17.25 -5.25 -17.3 -4.9 -17.35 -4.4 -17.35 -4.05 -17.2 -3.75 -16.8 -3.75 -16.6 -3.75 -16.45 Q-3.8 -15.75 -4.2 -15.3 L-4.65 -14.8 -4.8 -14.7 -5.0 -14.65 -5.5 -14.5 -5.7 -14.4 -6.05 -14.25 -6.25 -14.15 -6.35 -14.1 -6.4 -14.15 -6.55 -14.6 -6.75 -15.25 -7.0 -15.4 -7.05 -15.65 -7.05 -15.75 -7.0 -16.1 -6.9 -16.45 M-2.9 -17.3 L-2.95 -17.4 -3.1 -17.6 -3.4 -17.9 -2.55 -19.0 -0.9 -21.05 -0.6 -21.25 Q0.25 -21.75 1.35 -21.95 L2.15 -22.1 3.15 -22.1 Q4.2 -22.0 5.0 -21.3 L6.05 -19.85 5.5 -19.55 4.5 -19.25 4.25 -19.8 3.75 -20.1 Q3.35 -20.1 3.35 -19.75 3.3 -19.6 3.55 -19.25 L3.7 -18.6 3.1 -17.35 0.8 -14.45 0.55 -14.05 0.15 -14.45 0.05 -14.5 0.05 -14.6 0.25 -14.9 1.4 -16.3 1.5 -16.6 1.7 -16.85 2.55 -18.25 2.55 -19.0 2.3 -19.65 1.7 -19.8 0.45 -19.6 -0.45 -19.15 -1.2 -18.45 -1.9 -17.75 -2.25 -17.3 -2.35 -17.1 -2.85 -17.05 -2.9 -17.3 M4.15 -24.5 L4.0 -24.05 4.0 -24.0 3.95 -23.45 Q3.95 -23.05 4.1 -22.85 L4.25 -22.7 4.7 -22.6 5.85 -22.6 6.5 -22.9 7.75 -23.7 9.9 -25.7 11.75 -27.65 12.5 -28.55 Q12.8 -29.1 12.75 -29.7 L12.65 -30.05 12.15 -30.2 10.05 -29.8 10.0 -28.55 8.25 -26.75 6.85 -25.5 Q5.8 -24.7 4.15 -24.5 M22.65 -20.35 L23.3 -19.75 Q23.55 -19.7 23.75 -19.95 L23.85 -20.5 23.15 -21.3 22.0 -21.9 21.25 -22.0 21.05 -22.0 20.25 -21.95 18.6 -21.05 18.5 -20.95 18.15 -20.7 18.15 -20.65 Q17.9 -20.35 18.2 -20.1 18.5 -19.95 19.0 -20.35 L19.7 -20.7 20.6 -20.9 Q22.1 -21.1 22.65 -20.35 M11.2 -19.8 L11.1 -19.4 Q11.1 -18.95 11.55 -19.2 L12.05 -19.55 15.2 -23.25 15.35 -23.65 Q15.25 -24.2 14.65 -24.0 L14.0 -23.5 11.65 -20.7 11.35 -20.25 11.2 -19.8 M12.25 -16.6 L12.05 -16.45 12.0 -16.3 11.9 -15.8 12.05 -15.5 12.25 -15.45 12.8 -15.5 12.95 -15.7 13.15 -16.05 13.3 -16.25 13.05 -16.65 12.6 -16.7 12.25 -16.6 M17.6 -12.25 L17.8 -12.6 17.75 -12.75 17.6 -12.85 17.4 -13.05 16.95 -13.15 16.7 -13.1 16.5 -13.0 16.3 -12.75 16.25 -12.55 16.3 -12.35 16.5 -12.2 16.8 -12.15 17.3 -12.15 17.6 -12.25 M15.8 -15.15 L15.95 -15.05 16.4 -14.9 16.65 -14.95 Q16.9 -14.95 16.95 -15.1 L17.05 -15.4 17.0 -15.7 Q16.6 -16.1 16.2 -15.95 L16.15 -15.9 Q15.95 -16.0 15.85 -15.75 L15.75 -15.35 15.8 -15.15 M4.3 -20.35 L4.95 -19.75 Q5.2 -19.7 5.4 -19.95 L5.5 -20.5 4.8 -21.3 Q4.1 -21.8 3.65 -21.9 L3.0 -22.0 2.7 -22.0 1.9 -21.95 0.25 -21.05 -0.2 -20.7 -0.25 -20.55 Q-0.4 -20.3 -0.15 -20.1 0.15 -19.95 0.65 -20.35 1.0 -20.6 1.45 -20.7 L2.25 -20.9 Q3.75 -21.1 4.3 -20.35 M6.65 -13.1 L6.85 -13.45 7.15 -13.8 7.5 -14.6 7.55 -15.15 Q7.45 -15.55 7.1 -15.45 L6.7 -15.25 6.4 -15.25 5.85 -14.95 5.45 -14.45 4.85 -13.85 2.3 -11.45 0.9 -9.95 Q2.0 -9.8 2.95 -9.25 L4.85 -11.3 6.05 -12.45 6.65 -13.1 M8.7 -9.65 L8.75 -9.5 8.75 -9.45 8.8 -9.25 9.0 -9.05 9.25 -9.05 9.45 -9.35 9.95 -10.1 9.95 -10.85 9.9 -11.15 9.45 -11.45 9.4 -11.4 9.0 -11.2 8.8 -10.9 8.75 -10.75 8.65 -10.45 8.7 -9.9 8.7 -9.65 M15.05 -9.9 L15.1 -9.7 Q15.2 -9.4 15.5 -9.5 L15.85 -9.8 15.9 -10.2 15.85 -10.35 15.75 -10.45 15.65 -10.5 15.35 -10.5 15.1 -10.3 15.05 -10.15 15.05 -9.9 M-7.1 -19.8 L-7.2 -19.4 Q-7.2 -18.95 -6.75 -19.2 L-6.25 -19.55 -3.1 -23.25 -2.95 -23.65 Q-3.05 -24.2 -3.65 -24.0 L-4.3 -23.5 -6.65 -20.7 -6.95 -20.25 -7.1 -19.8 M-6.1 -16.6 L-6.3 -16.45 -6.35 -16.3 -6.45 -15.8 -6.3 -15.5 -6.1 -15.45 -5.55 -15.5 -5.45 -15.65 -5.4 -15.7 -5.2 -16.05 -5.05 -16.25 Q-5.05 -16.55 -5.3 -16.65 L-5.75 -16.7 -5.95 -16.6 -6.1 -16.6 M-11.65 -13.1 L-11.45 -13.45 -11.15 -13.8 -10.8 -14.6 -10.75 -15.15 Q-10.85 -15.55 -11.2 -15.45 L-11.6 -15.25 -11.9 -15.25 -12.45 -14.95 -12.85 -14.45 -13.45 -13.85 -16.0 -11.45 -17.4 -9.95 Q-16.3 -9.8 -15.35 -9.25 L-13.45 -11.3 -12.25 -12.45 -11.65 -13.1 M-0.75 -12.25 L-0.55 -12.6 -0.6 -12.75 -0.75 -12.85 -0.95 -13.05 -1.4 -13.15 -1.65 -13.1 -1.85 -13.0 -2.05 -12.75 -2.1 -12.55 -2.05 -12.35 -1.85 -12.2 -1.55 -12.15 -1.05 -12.15 -0.75 -12.25 M-2.55 -15.15 L-2.4 -15.05 -1.95 -14.9 -1.7 -14.95 Q-1.45 -14.95 -1.4 -15.1 L-1.3 -15.4 -1.35 -15.7 Q-1.75 -16.1 -2.15 -15.95 L-2.2 -15.9 Q-2.4 -16.0 -2.5 -15.75 L-2.6 -15.35 -2.55 -15.15 M-9.65 -9.65 L-9.6 -9.5 -9.6 -9.45 -9.55 -9.25 -9.35 -9.05 -9.1 -9.05 -8.9 -9.35 -8.4 -10.1 -8.4 -10.85 -8.45 -11.15 -8.85 -11.45 -8.9 -11.45 -9.35 -11.2 -9.55 -10.8 -9.6 -10.75 -9.7 -10.45 -9.65 -9.9 -9.65 -9.65 M-3.3 -9.9 L-3.25 -9.7 Q-3.15 -9.4 -2.85 -9.5 L-2.5 -9.8 -2.45 -10.2 -2.5 -10.35 -2.6 -10.45 -2.7 -10.5 -3.0 -10.5 -3.25 -10.3 -3.3 -10.15 -3.3 -9.9" fill="#5e8733" fill-rule="evenodd" stroke="none"/>
    <path d="M25.55 -31.85 L26.2 -32.0 26.8 -31.8 26.9 -31.6 26.1 -30.55 25.5 -30.65 25.4 -30.7 25.05 -31.6 25.15 -31.65 25.55 -31.85 M25.0 -29.25 L23.05 -27.1 Q22.55 -27.15 22.2 -27.4 21.5 -27.95 21.55 -28.7 L21.8 -29.3 22.1 -29.5 22.15 -29.55 22.8 -29.8 23.65 -29.7 24.8 -29.35 25.0 -29.25 M10.65 -16.9 L10.6 -16.9 10.05 -16.0 10.0 -16.0 9.5 -16.05 7.55 -15.85 Q6.85 -15.75 6.7 -16.05 6.45 -16.45 7.0 -16.75 L7.8 -16.9 9.4 -17.25 10.35 -17.0 10.65 -16.9 M16.15 -28.65 L16.15 -28.7 16.45 -29.35 17.05 -29.9 17.3 -30.1 18.05 -30.55 18.1 -30.6 18.75 -30.7 19.0 -30.75 19.7 -30.65 19.75 -30.65 19.95 -30.55 19.95 -30.5 19.95 -30.4 19.85 -29.3 Q19.65 -28.95 19.2 -28.7 18.35 -28.15 17.35 -28.25 L16.7 -28.35 Q16.4 -28.45 16.25 -28.6 L16.15 -28.65 M22.7 -32.8 L22.65 -32.8 22.6 -33.05 22.85 -33.15 24.35 -33.05 24.5 -32.95 24.45 -32.8 24.05 -32.45 24.0 -32.45 23.9 -32.55 23.85 -32.55 22.75 -32.8 22.7 -32.8 M35.1 -31.25 L35.0 -31.2 Q34.65 -30.85 33.85 -30.95 L33.25 -31.05 32.4 -31.45 31.25 -31.5 30.05 -31.4 Q29.7 -31.4 29.6 -31.55 L29.55 -32.05 29.65 -32.65 31.4 -32.95 Q33.05 -32.95 34.25 -32.1 L35.1 -31.25 M23.45 -31.9 L23.45 -31.75 Q23.35 -31.05 23.05 -30.85 22.8 -30.6 22.05 -30.6 L21.3 -30.7 Q20.85 -30.85 20.65 -31.3 21.05 -32.0 22.25 -32.1 L23.45 -31.9 M22.5 -24.5 Q24.15 -24.7 25.2 -25.5 L26.55 -26.7 28.35 -28.55 28.4 -29.8 Q29.0 -30.2 30.5 -30.2 L31.0 -30.05 31.1 -29.7 Q31.15 -29.1 30.85 -28.55 L30.1 -27.65 28.25 -25.7 26.1 -23.7 24.85 -22.9 Q24.3 -22.6 24.2 -22.6 L23.05 -22.6 22.6 -22.7 22.45 -22.85 Q22.3 -23.1 22.3 -23.45 L22.35 -24.05 22.5 -24.5 M7.25 -31.85 L7.9 -32.0 8.5 -31.8 8.6 -31.65 7.75 -30.55 7.2 -30.65 7.1 -30.7 6.75 -31.6 6.85 -31.65 7.25 -31.85 M6.65 -29.25 L4.7 -27.1 3.9 -27.4 Q3.2 -27.95 3.25 -28.7 L3.5 -29.3 3.8 -29.5 3.85 -29.55 4.5 -29.8 5.35 -29.7 6.5 -29.35 6.65 -29.25 M-7.7 -16.9 L-7.75 -16.9 -8.3 -16.0 -8.8 -16.05 -10.75 -15.85 Q-11.45 -15.75 -11.6 -16.05 -11.85 -16.45 -11.3 -16.75 L-10.5 -16.9 -8.9 -17.25 -7.95 -17.0 -7.7 -16.9 M-2.15 -28.65 L-2.15 -28.7 -1.85 -29.35 -1.0 -30.1 -0.2 -30.6 0.45 -30.7 0.7 -30.75 1.4 -30.65 1.45 -30.65 1.65 -30.55 1.65 -30.5 1.65 -30.4 1.55 -29.3 0.9 -28.7 Q-0.2 -28.0 -1.6 -28.35 -1.95 -28.45 -2.15 -28.65 M4.4 -32.8 L4.35 -32.8 4.3 -33.05 4.55 -33.15 6.05 -33.05 6.2 -32.95 6.15 -32.8 5.75 -32.45 5.7 -32.45 5.6 -32.55 5.55 -32.55 4.45 -32.8 4.4 -32.8 M5.15 -31.9 L5.15 -31.75 Q5.05 -31.05 4.75 -30.85 L3.75 -30.6 3.0 -30.7 2.35 -31.3 Q2.75 -32.0 3.95 -32.1 L5.15 -31.9 M11.3 -32.65 L13.05 -32.95 Q14.7 -32.95 15.9 -32.1 L16.75 -31.25 16.65 -31.2 Q16.3 -30.85 15.5 -30.95 L14.9 -31.05 14.05 -31.45 12.9 -31.5 11.7 -31.4 Q11.35 -31.4 11.25 -31.55 L11.2 -32.05 11.3 -32.65 M0.3 -26.6 L0.6 -26.65 0.65 -26.7 1.8 -26.6 1.85 -25.85 1.85 -25.8 1.55 -25.65 1.1 -25.45 0.8 -25.25 -0.95 -24.5 Q-1.4 -24.25 -1.65 -24.5 L-1.65 -25.0 -1.2 -25.4 -0.25 -26.2 0.3 -26.6 M4.15 -24.5 Q5.8 -24.7 6.85 -25.5 L8.25 -26.75 10.0 -28.55 10.05 -29.8 12.15 -30.2 12.65 -30.05 12.75 -29.7 Q12.8 -29.1 12.5 -28.55 L11.75 -27.65 9.9 -25.7 7.75 -23.7 6.5 -22.9 5.85 -22.6 4.7 -22.6 4.25 -22.7 4.1 -22.85 Q3.95 -23.05 3.95 -23.45 L4.0 -24.0 4.0 -24.05 4.15 -24.5 M20.15 -25.8 L19.85 -25.65 19.4 -25.45 19.1 -25.25 17.35 -24.5 Q16.9 -24.25 16.65 -24.5 16.5 -24.75 16.65 -25.0 L17.1 -25.4 18.05 -26.2 18.6 -26.6 18.9 -26.65 18.95 -26.7 20.1 -26.6 Q20.35 -26.3 20.15 -25.85 L20.15 -25.8 M11.2 -19.8 L11.35 -20.25 11.65 -20.7 14.0 -23.5 14.65 -24.0 Q15.25 -24.2 15.35 -23.65 L15.2 -23.25 12.05 -19.55 11.55 -19.2 Q11.1 -18.95 11.1 -19.4 L11.2 -19.8 M22.65 -20.35 Q22.1 -21.1 20.6 -20.9 L19.7 -20.7 19.0 -20.35 Q18.5 -19.95 18.2 -20.1 17.9 -20.35 18.15 -20.65 L18.15 -20.7 18.5 -20.95 18.6 -21.05 20.25 -21.95 21.05 -22.0 21.25 -22.0 22.0 -21.9 23.15 -21.3 23.85 -20.5 23.75 -19.95 Q23.55 -19.7 23.3 -19.75 L22.65 -20.35 M16.0 -17.1 L16.1 -17.3 16.45 -17.75 17.15 -18.45 17.9 -19.15 18.8 -19.6 20.05 -19.8 20.65 -19.65 20.9 -19.0 20.9 -18.25 20.05 -16.85 19.85 -16.6 19.75 -16.3 18.6 -14.9 18.4 -14.6 18.35 -14.7 18.25 -15.35 17.6 -16.35 17.0 -16.9 16.1 -17.1 16.0 -17.1 M12.25 -16.6 L12.6 -16.7 13.05 -16.65 13.3 -16.25 13.15 -16.05 12.95 -15.7 12.8 -15.5 12.25 -15.45 12.05 -15.5 11.9 -15.8 12.0 -16.3 12.05 -16.45 12.25 -16.6 M9.0 -6.4 L8.9 -6.2 8.6 -5.6 8.15 -5.55 8.15 -5.9 Q8.35 -6.95 8.7 -7.7 8.75 -7.5 8.9 -7.45 L8.7 -7.75 Q8.65 -8.0 9.1 -8.45 L9.15 -8.45 9.45 -8.75 10.0 -8.95 10.55 -9.6 10.9 -10.05 10.95 -10.6 Q10.95 -11.0 11.25 -11.3 L11.45 -11.8 11.6 -12.15 11.85 -12.55 13.05 -13.3 13.35 -13.35 13.75 -13.2 13.8 -12.7 13.7 -10.95 12.9 -10.1 12.35 -9.6 12.25 -9.35 11.9 -9.1 11.45 -8.5 10.95 -8.2 10.65 -7.95 Q10.3 -7.65 9.85 -7.65 L9.1 -6.85 9.0 -6.5 9.0 -6.45 8.9 -6.4 9.0 -6.4 M15.8 -15.15 L15.75 -15.35 15.85 -15.75 Q15.95 -16.0 16.15 -15.9 L16.2 -15.95 Q16.6 -16.1 17.0 -15.7 L17.05 -15.4 16.95 -15.1 Q16.9 -14.95 16.65 -14.95 L16.4 -14.9 15.95 -15.05 15.8 -15.15 M17.6 -12.25 L17.3 -12.15 16.8 -12.15 16.5 -12.2 16.3 -12.35 16.25 -12.55 16.3 -12.75 16.5 -13.0 16.7 -13.1 16.95 -13.15 17.4 -13.05 17.6 -12.85 17.75 -12.75 17.8 -12.6 17.6 -12.25 M4.3 -20.35 Q3.75 -21.1 2.25 -20.9 L1.45 -20.7 Q1.0 -20.6 0.65 -20.35 0.15 -19.95 -0.15 -20.1 -0.4 -20.3 -0.25 -20.55 L-0.2 -20.7 0.25 -21.05 1.9 -21.95 2.7 -22.0 3.0 -22.0 3.65 -21.9 Q4.1 -21.8 4.8 -21.3 L5.5 -20.5 5.4 -19.95 Q5.2 -19.7 4.95 -19.75 L4.3 -20.35 M-2.35 -17.1 L-2.25 -17.3 -1.9 -17.75 -1.2 -18.45 -0.45 -19.15 0.45 -19.6 1.7 -19.8 2.3 -19.65 2.55 -19.0 2.55 -18.25 1.7 -16.85 1.5 -16.6 1.4 -16.3 0.25 -14.9 0.05 -14.6 0.0 -14.7 -0.1 -15.35 -0.75 -16.35 -1.35 -16.9 -2.2 -17.1 -2.35 -17.1 M6.65 -13.1 L6.05 -12.45 4.85 -11.3 2.95 -9.25 Q2.0 -9.8 0.9 -9.95 L2.3 -11.45 4.85 -13.85 5.45 -14.45 5.85 -14.95 6.4 -15.25 6.7 -15.25 7.1 -15.45 Q7.45 -15.55 7.55 -15.15 L7.5 -14.6 7.15 -13.8 6.85 -13.45 6.65 -13.1 M8.7 -9.65 L8.7 -9.9 8.65 -10.45 8.75 -10.75 8.8 -10.9 9.0 -11.2 9.4 -11.4 9.45 -11.45 9.9 -11.15 9.95 -10.85 9.95 -10.1 9.45 -9.35 9.25 -9.05 9.0 -9.05 8.8 -9.25 8.75 -9.45 8.75 -9.5 8.7 -9.65 M15.05 -9.9 L15.05 -10.15 15.1 -10.3 15.35 -10.5 15.65 -10.5 15.75 -10.45 15.85 -10.35 15.9 -10.2 15.85 -9.8 15.5 -9.5 Q15.2 -9.4 15.1 -9.7 L15.05 -9.9 M-7.1 -19.8 L-6.95 -20.25 -6.65 -20.7 -4.3 -23.5 -3.65 -24.0 Q-3.05 -24.2 -2.95 -23.65 L-3.1 -23.25 -6.25 -19.55 -6.75 -19.2 Q-7.2 -18.95 -7.2 -19.4 L-7.1 -19.8 M-6.1 -16.6 L-5.95 -16.6 -5.75 -16.7 -5.3 -16.65 Q-5.05 -16.55 -5.05 -16.25 L-5.2 -16.05 -5.4 -15.7 -5.45 -15.65 -5.55 -15.5 -6.1 -15.45 -6.3 -15.5 -6.45 -15.8 -6.35 -16.3 -6.3 -16.45 -6.1 -16.6 M-9.35 -6.4 L-9.45 -6.2 -9.75 -5.6 -10.2 -5.55 -10.2 -5.9 -9.65 -7.7 -9.45 -7.45 -9.65 -7.75 -9.25 -8.45 -9.2 -8.45 -8.9 -8.75 -8.35 -8.95 -7.8 -9.6 -7.45 -10.05 -7.4 -10.6 -7.1 -11.3 -6.95 -11.75 -6.75 -12.15 -6.5 -12.55 -5.3 -13.3 -4.95 -13.35 -4.6 -13.2 -4.55 -12.7 -4.65 -10.95 -5.45 -10.1 -6.0 -9.6 -6.1 -9.35 -6.45 -9.1 -6.9 -8.5 -7.4 -8.2 -7.7 -7.95 Q-8.05 -7.65 -8.5 -7.65 L-9.25 -6.85 -9.35 -6.5 -9.35 -6.45 -9.45 -6.4 -9.35 -6.4 M-2.55 -15.15 L-2.6 -15.35 -2.5 -15.75 Q-2.4 -16.0 -2.2 -15.9 L-2.15 -15.95 Q-1.75 -16.1 -1.35 -15.7 L-1.3 -15.4 -1.4 -15.1 Q-1.45 -14.95 -1.7 -14.95 L-1.95 -14.9 -2.4 -15.05 -2.55 -15.15 M-0.75 -12.25 L-1.05 -12.15 -1.55 -12.15 -1.85 -12.2 -2.05 -12.35 -2.1 -12.55 -2.05 -12.75 -1.85 -13.0 -1.65 -13.1 -1.4 -13.15 -0.95 -13.05 -0.75 -12.85 -0.6 -12.75 -0.55 -12.6 -0.75 -12.25 M-11.65 -13.1 L-12.25 -12.45 -13.45 -11.3 -15.35 -9.25 Q-16.3 -9.8 -17.4 -9.95 L-16.0 -11.45 -13.45 -13.85 -12.85 -14.45 -12.45 -14.95 -11.9 -15.25 -11.6 -15.25 -11.2 -15.45 Q-10.85 -15.55 -10.75 -15.15 L-10.8 -14.6 -11.15 -13.8 -11.45 -13.45 -11.65 -13.1 M-3.3 -9.9 L-3.3 -10.15 -3.25 -10.3 -3.0 -10.5 -2.7 -10.5 -2.6 -10.45 -2.5 -10.35 -2.45 -10.2 -2.5 -9.8 -2.85 -9.5 Q-3.15 -9.4 -3.25 -9.7 L-3.3 -9.9 M-9.65 -9.65 L-9.65 -9.9 -9.7 -10.45 -9.6 -10.75 -9.55 -10.8 -9.35 -11.2 -8.9 -11.45 -8.85 -11.45 -8.45 -11.15 -8.4 -10.85 -8.4 -10.1 -8.9 -9.35 -9.1 -9.05 -9.35 -9.05 -9.55 -9.25 -9.6 -9.45 -9.6 -9.5 -9.65 -9.65" fill="#78aa43" fill-rule="evenodd" stroke="none"/>
    <path d="M3.95 -5.85 L3.7 -5.25 3.7 -5.2 3.35 -4.8 2.8 -4.35 Q1.6 -3.5 -0.05 -3.5 -1.75 -3.5 -2.95 -4.35 -3.75 -4.95 -3.95 -5.65 L-4.05 -6.25 -3.9 -6.95 -3.05 -8.05 -3.0 -8.1 -2.95 -8.1 -2.85 -8.2 -2.65 -8.35 -2.5 -8.4 -2.15 -8.6 -0.95 -8.95 -0.7 -8.95 -0.3 -9.0 -0.05 -9.0 0.1 -9.0 Q1.65 -8.95 2.8 -8.15 3.9 -7.35 3.95 -6.25 L3.95 -6.15 3.9 -5.85 3.95 -5.85 M-14.35 -5.85 L-14.6 -5.25 -14.6 -5.2 -14.95 -4.8 -15.5 -4.35 Q-16.7 -3.5 -18.35 -3.5 -20.05 -3.5 -21.25 -4.35 -22.35 -5.15 -22.35 -6.25 -22.35 -7.3 -21.35 -8.05 L-21.3 -8.1 -21.25 -8.1 -21.15 -8.2 -20.95 -8.35 -20.45 -8.6 -19.25 -8.95 -19.0 -8.95 -18.6 -9.0 -18.35 -9.0 Q-16.7 -9.0 -15.5 -8.15 -14.4 -7.35 -14.35 -6.25 L-14.35 -6.15 -14.4 -5.85 -14.35 -5.85 M0.6 -8.2 L-1.25 -8.0 -1.65 -7.75 -2.35 -7.45 -2.8 -6.7 -3.1 -6.4 -3.15 -6.25 -3.2 -6.05 -3.1 -5.6 -2.85 -5.25 -2.35 -4.8 -1.45 -4.55 -0.85 -4.25 -0.25 -4.25 0.75 -4.25 1.7 -4.4 2.65 -5.1 3.0 -5.5 3.05 -5.9 3.0 -6.6 2.85 -7.0 2.2 -7.65 1.45 -8.1 0.6 -8.2 M-17.7 -8.2 L-19.55 -8.0 -19.95 -7.75 -20.65 -7.45 -21.1 -6.7 -21.4 -6.4 -21.5 -6.05 -21.4 -5.6 -21.15 -5.25 -20.65 -4.8 -19.75 -4.55 -19.15 -4.25 -18.55 -4.25 -17.55 -4.25 -16.6 -4.4 -15.65 -5.1 -15.3 -5.5 -15.25 -5.9 -15.3 -6.6 -15.45 -7.0 -16.1 -7.65 -16.85 -8.1 -17.7 -8.2" fill="#8dbb5e" fill-rule="evenodd" stroke="none"/>
    <path d="M0.6 -8.2 L1.45 -8.1 2.2 -7.65 2.85 -7.0 3.0 -6.6 3.05 -5.9 3.0 -5.5 2.65 -5.1 1.7 -4.4 0.75 -4.25 -0.25 -4.25 -0.85 -4.25 -1.45 -4.55 -2.35 -4.8 -2.85 -5.25 -3.1 -5.6 -3.2 -6.05 -3.15 -6.25 -3.1 -6.4 -2.8 -6.7 -2.35 -7.45 -1.65 -7.75 -1.25 -8.0 0.6 -8.2 M1.8 -6.35 L1.7 -6.85 1.3 -7.0 0.6 -7.15 -0.2 -7.1 -1.1 -6.75 Q-1.5 -6.35 -1.3 -5.8 -1.0 -5.4 -0.55 -5.35 L0.6 -5.35 1.2 -5.5 1.6 -6.0 1.8 -6.35 M-17.7 -8.2 L-16.85 -8.1 -16.1 -7.65 -15.45 -7.0 -15.3 -6.6 -15.25 -5.9 -15.3 -5.5 -15.65 -5.1 -16.6 -4.4 -17.55 -4.25 -18.55 -4.25 -19.15 -4.25 -19.75 -4.55 -20.65 -4.8 -21.15 -5.25 -21.4 -5.6 -21.5 -6.05 -21.4 -6.4 -21.1 -6.7 -20.65 -7.45 -19.95 -7.75 -19.55 -8.0 -17.7 -8.2 M-16.5 -6.35 L-16.6 -6.85 -17.0 -7.0 -17.7 -7.15 -18.5 -7.1 -19.4 -6.75 Q-19.8 -6.35 -19.6 -5.8 -19.3 -5.4 -18.85 -5.35 L-17.7 -5.35 Q-17.3 -5.35 -17.1 -5.5 L-16.7 -6.0 -16.5 -6.35" fill="#afd788" fill-rule="evenodd" stroke="none"/>
    <path d="M1.8 -6.35 L1.6 -6.0 1.2 -5.5 0.6 -5.35 -0.55 -5.35 Q-1.0 -5.4 -1.3 -5.8 -1.5 -6.35 -1.1 -6.75 L-0.2 -7.1 0.6 -7.15 1.3 -7.0 1.7 -6.85 1.8 -6.35 M-16.5 -6.35 L-16.7 -6.0 -17.1 -5.5 Q-17.3 -5.35 -17.7 -5.35 L-18.85 -5.35 Q-19.3 -5.4 -19.6 -5.8 -19.8 -6.35 -19.4 -6.75 L-18.5 -7.1 -17.7 -7.15 -17.0 -7.0 -16.6 -6.85 -16.5 -6.35" fill="#c4e5a4" fill-rule="evenodd" stroke="none"/>
  </g>
</svg>
