<?xml version="1.0" encoding="UTF-8" standalone="no"?>
<svg xmlns:ffdec="https://www.free-decompiler.com/flash" xmlns:xlink="http://www.w3.org/1999/xlink" ffdec:objectType="shape" height="60.25px" width="324.45px" xmlns="http://www.w3.org/2000/svg">
  <g transform="matrix(1.0, 0.0, 0.0, 1.0, -26.5, 6.9)">
    <path d="M28.15 41.85 Q29.75 43.5 32.9 43.3 L33.05 43.3 41.75 43.3 42.0 43.3 Q45.55 43.75 48.25 39.0 L48.2 39.1 49.1 37.55 Q50.35 43.75 55.35 43.3 L55.55 43.3 64.15 43.3 64.65 43.3 Q69.0 43.35 71.1 37.95 L71.15 37.9 71.95 35.8 Q71.45 39.1 73.1 40.75 74.5 43.3 78.4 43.3 L97.65 43.3 Q100.05 43.35 101.65 42.4 102.9 43.3 104.5 43.3 L117.05 43.3 Q121.75 43.35 123.35 39.9 127.95 43.3 134.25 43.3 142.6 43.35 148.95 37.1 L149.05 37.0 149.45 36.55 149.8 36.95 149.75 36.85 Q155.45 43.3 164.05 43.3 171.65 43.3 177.3 38.25 178.15 43.5 184.0 43.3 L188.7 43.3 Q194.3 43.5 195.35 38.65 198.25 40.35 201.1 38.65 202.15 43.45 207.75 43.3 L212.45 43.3 Q214.05 43.3 215.35 42.4 216.95 43.4 219.5 43.3 L238.75 43.3 Q242.35 43.3 243.85 41.15 L244.95 39.7 245.15 39.2 Q243.05 48.5 242.4 49.85 L241.35 51.25 Q239.9 53.3 236.5 53.3 L218.1 53.3 Q215.7 53.4 214.15 52.45 212.9 53.3 211.4 53.3 L206.9 53.3 Q201.55 53.45 200.55 48.85 197.85 50.5 195.1 48.85 194.1 53.5 188.75 53.3 L184.25 53.3 Q178.65 53.5 177.85 48.45 172.45 53.3 165.2 53.3 157.0 53.3 151.6 47.15 L151.65 47.25 151.3 46.85 150.9 47.3 150.8 47.4 Q144.75 53.35 136.8 53.3 130.8 53.3 126.4 50.05 124.85 53.35 120.4 53.3 L108.4 53.3 Q106.9 53.3 105.7 52.45 104.15 53.35 101.9 53.3 L83.5 53.3 Q79.8 53.3 78.45 50.85 76.9 49.3 77.35 46.15 L76.6 48.15 76.55 48.2 Q74.55 53.35 70.4 53.3 L69.9 53.3 61.7 53.3 61.5 53.3 Q56.75 53.7 55.55 47.8 L54.75 49.2 Q52.15 53.7 48.8 53.3 L48.55 53.3 40.25 53.3 40.1 53.3 Q34.6 53.65 28.15 41.85 M241.55 25.05 L240.8 24.75 240.8 24.45 240.8 24.55 240.45 19.8 Q241.45 19.3 242.05 18.4 242.95 17.6 243.35 16.45 L241.55 25.05 M63.95 0.3 L63.4 1.75 62.75 -1.1 62.15 -3.15 63.95 0.3 M48.8 -0.65 L47.55 1.35 47.55 0.05 47.55 -0.2 Q47.45 -2.35 46.8 -3.85 L48.8 -0.65 M246.65 -1.4 Q246.5 -0.35 246.65 0.95 L247.2 6.8 247.2 6.85 Q247.9 13.6 254.75 13.75 L254.85 13.75 257.05 13.75 259.6 36.15 Q260.4 43.5 267.3 43.3 L273.5 43.3 Q277.6 43.3 279.2 40.7 281.05 38.85 280.55 35.0 L279.75 28.5 Q281.65 33.4 285.9 37.25 L285.95 37.3 Q292.6 43.35 300.8 43.3 307.65 43.25 312.25 39.3 L313.5 40.7 313.65 40.8 Q315.8 42.65 318.45 43.15 L319.35 43.2 319.7 43.2 320.1 43.2 Q322.3 43.2 324.25 42.2 L325.35 41.35 325.45 41.3 325.5 41.25 Q327.4 42.7 329.8 43.15 L330.65 43.2 331.0 43.2 331.4 43.2 Q333.75 43.15 335.65 42.1 L336.75 41.3 336.8 41.25 Q338.75 42.7 341.15 43.15 L342.0 43.2 342.35 43.2 342.75 43.2 Q345.1 43.15 347.0 42.1 L348.1 41.3 348.2 41.15 348.9 40.55 349.3 40.05 349.4 40.05 343.2 48.85 341.7 50.65 340.9 51.25 340.8 51.4 339.75 52.15 Q337.95 53.15 335.7 53.2 L335.3 53.2 335.0 53.2 334.15 53.15 Q331.9 52.7 330.0 51.35 L330.0 51.4 328.95 52.15 Q327.1 53.15 324.85 53.2 L324.5 53.2 324.15 53.2 323.35 53.15 Q321.05 52.7 319.25 51.35 L319.2 51.4 319.1 51.45 318.05 52.25 Q316.2 53.2 314.1 53.2 L313.7 53.2 313.4 53.2 312.5 53.15 Q310.0 52.65 307.95 50.9 L307.8 50.8 306.6 49.45 Q302.2 53.25 295.7 53.3 287.85 53.35 281.5 47.55 L281.45 47.5 Q279.55 45.8 278.15 43.85 276.05 49.85 275.05 50.8 273.55 53.3 269.65 53.3 L263.7 53.3 Q257.15 53.5 256.4 46.45 L253.95 25.1 251.85 25.1 251.75 25.1 Q245.2 24.95 244.55 18.5 L244.55 18.45 244.0 12.9 Q243.65 9.4 246.65 -1.4" fill="#00201f" fill-rule="evenodd" stroke="none"/>
    <path d="M71.4 23.0 L79.4 1.95 Q79.95 -0.05 78.0 -0.5 L72.5 -1.75 71.8 -1.85 Q70.2 -1.9 69.4 0.05 L62.05 18.75 57.8 -0.25 Q57.55 -1.7 56.45 -1.9 55.6 -1.8 54.85 -0.9 L54.4 -0.25 42.7 18.95 42.55 0.05 Q42.45 -1.9 40.95 -1.85 L40.15 -1.75 34.25 -0.5 Q32.25 -0.1 31.85 1.55 L31.85 1.95 31.6 23.0 31.5 36.1 Q31.45 38.25 33.05 38.3 L41.75 38.3 Q42.9 38.25 43.9 36.5 L51.45 23.85 54.0 36.5 Q54.35 38.25 55.55 38.3 L64.15 38.3 Q65.65 38.15 66.45 36.1 L71.4 23.0 M28.15 41.85 Q26.4 40.05 26.5 36.05 L26.5 36.0 26.85 2.3 Q26.65 0.95 27.1 0.05 28.05 -4.3 33.2 -5.35 L33.3 -5.4 38.85 -6.55 40.8 -6.85 40.85 -6.85 Q45.3 -7.4 46.8 -3.85 47.45 -2.35 47.55 -0.2 L47.55 0.05 47.55 1.35 48.8 -0.65 50.15 -2.85 50.35 -3.15 50.7 -3.65 51.0 -4.1 Q53.25 -6.75 55.9 -6.85 L57.35 -6.8 Q60.85 -6.55 62.15 -3.15 L62.75 -1.1 63.4 1.75 63.95 0.3 64.8 -1.85 Q67.0 -7.25 71.65 -6.85 L73.9 -6.55 79.1 -5.35 79.15 -5.35 Q82.6 -4.6 83.7 -2.15 84.95 -0.4 84.45 2.3 L101.05 2.3 Q102.65 2.3 103.85 3.2 105.45 2.25 107.8 2.3 L112.3 2.3 Q115.95 2.3 117.4 4.55 119.2 6.2 118.85 9.7 L118.5 12.75 Q120.05 10.15 122.4 8.0 128.5 2.25 136.5 2.3 144.7 2.3 150.3 8.25 L150.55 8.5 150.95 8.1 151.0 8.05 Q156.9 2.3 165.0 2.3 172.25 2.3 177.55 6.9 178.5 2.2 184.05 2.3 L188.3 2.3 Q192.8 2.1 194.25 5.3 L194.2 5.2 197.75 10.65 201.0 5.4 201.1 5.2 201.35 4.85 Q203.1 2.1 207.05 2.3 L211.2 2.3 Q213.6 2.25 215.2 3.2 216.4 2.3 218.0 2.3 L236.4 2.3 Q242.75 2.2 243.3 8.7 L243.3 8.8 243.65 13.4 243.65 13.3 Q243.8 15.1 243.35 16.45 242.95 17.6 242.05 18.4 241.45 19.3 240.45 19.8 L240.8 24.55 240.8 24.45 240.8 24.75 241.55 25.05 Q244.35 26.2 244.95 30.0 L245.1 31.1 245.5 35.95 245.5 36.0 Q245.6 37.85 245.15 39.2 L244.95 39.7 243.85 41.15 Q242.35 43.3 238.75 43.3 L219.5 43.3 Q216.95 43.4 215.35 42.4 214.05 43.3 212.45 43.3 L207.75 43.3 Q202.15 43.45 201.1 38.65 198.25 40.35 195.35 38.65 194.3 43.5 188.7 43.3 L184.0 43.3 Q178.15 43.5 177.3 38.25 171.65 43.3 164.05 43.3 155.45 43.3 149.75 36.85 L149.8 36.95 149.45 36.55 149.05 37.0 148.95 37.1 Q142.6 43.35 134.25 43.3 127.95 43.3 123.35 39.9 121.75 43.35 117.05 43.3 L104.5 43.3 Q102.9 43.3 101.65 42.4 100.05 43.35 97.65 43.3 L78.4 43.3 Q74.5 43.3 73.1 40.75 71.45 39.1 71.95 35.8 L71.15 37.9 71.1 37.95 Q69.0 43.35 64.65 43.3 L64.15 43.3 55.55 43.3 55.35 43.3 Q50.35 43.75 49.1 37.55 L48.2 39.1 48.25 39.0 Q45.55 43.75 42.0 43.3 L41.75 43.3 33.05 43.3 32.9 43.3 Q29.75 43.5 28.15 41.85 M274.0 23.0 L272.15 8.75 278.85 8.75 Q281.25 8.7 280.95 6.3 L280.1 0.45 Q279.75 -1.9 277.35 -1.9 L253.75 -1.9 Q251.35 -1.9 251.6 0.45 L252.15 6.3 Q252.4 8.7 254.85 8.75 L261.5 8.75 263.15 23.0 264.55 35.6 Q264.85 38.3 267.3 38.3 L273.5 38.3 Q275.95 38.3 275.6 35.6 L274.0 23.0 M246.65 -1.4 Q246.95 -3.5 248.35 -4.65 249.9 -6.9 253.75 -6.9 L277.35 -6.9 Q284.05 -6.85 285.05 -0.25 L285.05 -0.2 285.85 5.15 Q290.0 2.35 295.7 2.3 303.6 2.25 310.15 7.85 L310.1 7.85 Q316.6 13.4 318.15 21.6 L318.5 24.65 Q320.05 24.65 321.75 25.3 L322.25 25.5 322.4 25.6 322.5 25.65 324.2 26.65 325.2 25.9 Q326.9 24.65 329.6 24.65 L332.8 25.25 333.05 25.35 333.45 25.5 335.4 26.65 Q335.85 26.25 336.3 26.0 337.95 24.65 340.8 24.65 342.35 24.65 344.0 25.25 L344.25 25.35 344.65 25.5 Q346.0 26.1 347.15 27.05 L347.2 27.1 Q349.8 29.35 350.65 32.8 L350.7 32.9 Q351.25 35.4 350.65 37.35 L350.6 37.45 349.65 39.6 349.3 40.05 348.9 40.55 348.2 41.15 348.1 41.3 347.0 42.1 Q345.1 43.15 342.75 43.2 L342.35 43.2 342.0 43.2 341.15 43.15 Q338.75 42.7 336.8 41.25 L336.75 41.3 335.65 42.1 Q333.75 43.15 331.4 43.2 L331.0 43.2 330.65 43.2 329.8 43.15 Q327.4 42.7 325.5 41.25 L325.45 41.3 325.35 41.35 324.25 42.2 Q322.3 43.2 320.1 43.2 L319.7 43.2 319.35 43.2 318.45 43.15 Q315.8 42.65 313.65 40.8 L313.5 40.7 312.25 39.3 Q307.65 43.25 300.8 43.3 292.6 43.35 285.95 37.3 L285.9 37.25 Q281.65 33.4 279.75 28.5 L280.55 35.0 Q281.05 38.85 279.2 40.7 277.6 43.3 273.5 43.3 L267.3 43.3 Q260.4 43.5 259.6 36.15 L257.05 13.75 254.85 13.75 254.75 13.75 Q247.9 13.6 247.2 6.85 L247.2 6.8 246.65 0.95 Q246.5 -0.35 246.65 -1.4 M327.25 30.6 L327.1 30.75 326.95 30.9 Q326.05 32.1 326.45 33.95 326.8 35.7 328.2 37.0 329.25 37.95 330.65 38.2 L331.0 38.2 331.4 38.2 333.2 37.75 333.6 37.35 334.05 37.0 334.45 36.0 Q334.75 35.1 334.55 33.95 334.15 32.1 332.75 30.9 L331.45 30.1 331.15 29.95 329.6 29.65 Q328.55 29.65 327.9 30.1 327.55 30.3 327.25 30.6 M338.45 30.6 L338.35 30.75 338.2 30.9 Q337.3 32.1 337.7 33.95 338.1 35.7 339.5 37.0 340.6 37.95 342.0 38.2 L342.35 38.2 342.75 38.2 344.55 37.75 344.95 37.35 345.35 37.0 345.8 36.0 Q346.05 35.1 345.8 33.95 345.35 32.1 343.95 30.9 L342.65 30.1 342.35 29.95 340.8 29.65 Q339.75 29.65 339.15 30.1 L338.45 30.6 M291.65 23.0 L291.55 22.5 Q291.1 19.5 292.7 17.55 294.3 15.5 297.05 15.55 299.85 15.5 302.15 17.55 304.5 19.55 305.0 22.5 L305.1 23.0 Q305.35 25.55 303.85 27.4 302.15 29.5 299.35 29.5 296.55 29.5 294.25 27.4 292.2 25.6 291.65 23.0 M313.3 23.0 L313.2 22.5 Q312.0 16.05 306.85 11.65 301.8 7.3 295.7 7.3 289.65 7.3 286.05 11.65 282.35 16.0 283.3 22.5 L283.4 23.0 Q284.4 29.1 289.3 33.55 294.45 38.3 300.8 38.3 307.2 38.3 310.8 33.55 314.25 29.05 313.3 23.0 M316.05 30.6 L315.95 30.75 315.75 30.9 Q314.85 32.1 315.2 33.95 315.5 35.7 316.9 37.0 318.0 37.95 319.35 38.2 L319.7 38.2 320.1 38.2 321.9 37.75 322.35 37.35 322.75 37.0 323.2 36.0 Q323.5 35.1 323.3 33.95 322.9 32.1 321.55 30.9 L320.25 30.1 320.0 29.95 318.45 29.65 Q317.4 29.65 316.75 30.1 L316.05 30.6 M235.7 23.0 L235.45 20.1 Q235.3 18.2 233.55 18.2 L224.9 18.2 224.75 15.55 237.0 15.55 Q238.8 15.5 238.65 13.7 L238.3 9.1 Q238.15 7.3 236.4 7.3 L218.0 7.3 Q216.2 7.3 216.3 9.15 L216.95 23.0 217.55 36.25 Q217.65 38.3 219.5 38.3 L238.75 38.3 Q240.65 38.3 240.5 36.35 L240.1 31.45 Q239.95 29.45 238.1 29.45 L225.55 29.45 225.4 26.75 234.15 26.75 Q235.95 26.7 235.8 24.85 L235.7 23.0 M213.7 23.0 L213.1 9.15 Q213.0 7.3 211.25 7.3 L206.75 7.3 Q205.8 7.25 205.35 7.85 L205.3 7.9 205.25 8.0 197.85 19.9 190.0 7.9 Q189.6 7.25 188.5 7.3 L184.05 7.3 Q182.3 7.3 182.3 9.15 L182.2 23.0 182.15 36.25 Q182.15 38.3 184.0 38.3 L188.7 38.3 Q190.55 38.3 190.55 36.25 L190.45 23.55 197.1 33.8 Q198.2 34.75 199.25 33.8 L205.5 23.6 205.8 36.25 Q205.85 38.3 207.75 38.3 L212.45 38.3 Q214.3 38.3 214.25 36.25 L213.7 23.0 M179.55 23.0 L179.55 22.5 Q179.55 16.05 175.3 11.65 171.1 7.3 165.0 7.3 158.9 7.3 154.45 11.65 149.95 16.0 149.65 22.5 L149.6 23.0 Q149.45 29.1 153.5 33.55 157.7 38.3 164.05 38.3 170.45 38.3 175.0 33.55 179.3 29.05 179.55 23.0 M157.9 23.0 L157.9 22.5 Q158.0 19.5 160.0 17.55 162.0 15.5 164.75 15.55 167.55 15.5 169.45 17.55 171.4 19.55 171.35 22.5 L171.3 23.0 Q171.1 25.55 169.2 27.4 167.15 29.5 164.35 29.5 161.5 29.5 159.6 27.4 157.9 25.6 157.9 23.0 M128.7 23.0 L128.7 22.5 Q128.95 19.5 131.05 17.55 133.15 15.5 135.9 15.55 138.7 15.5 140.5 17.55 L141.1 18.25 141.55 19.0 Q141.8 19.75 142.6 19.45 L148.55 16.95 Q149.65 16.55 149.35 15.75 L148.15 13.6 Q147.5 12.55 146.65 11.65 142.55 7.3 136.5 7.3 130.45 7.3 125.8 11.65 121.1 16.0 120.5 22.5 L120.45 23.0 Q120.05 29.1 123.9 33.55 127.9 38.3 134.25 38.3 140.6 38.3 145.4 33.55 147.35 31.5 148.6 29.3 149.0 28.4 147.9 27.95 L142.2 25.45 Q141.6 25.2 141.1 25.9 L140.55 26.7 139.9 27.4 Q137.75 29.5 134.9 29.5 132.05 29.5 130.3 27.4 128.6 25.6 128.7 23.0 M112.35 23.0 L113.85 9.15 Q114.05 7.3 112.3 7.3 L107.8 7.3 Q106.0 7.3 105.8 9.15 L104.15 23.0 102.6 36.25 Q102.35 38.3 104.2 38.3 L117.05 38.3 Q118.95 38.3 119.15 36.35 L119.6 31.45 Q119.8 29.45 117.9 29.45 L111.7 29.45 112.35 23.0 M97.65 23.0 L98.05 20.1 Q98.25 18.2 96.45 18.2 L87.85 18.2 88.2 15.55 100.5 15.55 Q102.25 15.5 102.5 13.7 L103.05 9.1 Q103.25 7.3 101.5 7.3 L83.1 7.3 Q81.35 7.3 81.05 9.15 L78.95 23.0 76.9 36.25 Q76.55 38.3 78.4 38.3 L97.65 38.3 Q99.55 38.3 99.8 36.35 L100.4 31.45 Q100.6 29.45 98.75 29.45 L86.2 29.45 86.6 26.75 95.35 26.75 Q97.2 26.7 97.45 24.85 L97.65 23.0" fill="#006260" fill-rule="evenodd" stroke="none"/>
    <path d="M31.6 23.0 L31.85 1.95 31.85 1.55 Q32.25 -0.1 34.25 -0.5 L40.15 -1.75 40.95 -1.85 Q42.45 -1.9 42.55 0.05 L42.7 18.95 54.4 -0.25 54.85 -0.9 Q55.6 -1.8 56.45 -1.9 57.55 -1.7 57.8 -0.25 L62.05 18.75 69.4 0.05 Q70.2 -1.9 71.8 -1.85 L72.5 -1.75 78.0 -0.5 Q79.95 -0.05 79.4 1.95 L71.4 23.0 31.6 23.0 M263.15 23.0 L261.5 8.75 254.85 8.75 Q252.4 8.7 252.15 6.3 L251.6 0.45 Q251.35 -1.9 253.75 -1.9 L277.35 -1.9 Q279.75 -1.9 280.1 0.45 L280.95 6.3 Q281.25 8.7 278.85 8.75 L272.15 8.75 274.0 23.0 263.15 23.0 M305.1 23.0 L305.0 22.5 Q304.5 19.55 302.15 17.55 299.85 15.5 297.05 15.55 294.3 15.5 292.7 17.55 291.1 19.5 291.55 22.5 L291.65 23.0 283.4 23.0 283.3 22.5 Q282.35 16.0 286.05 11.65 289.65 7.3 295.7 7.3 301.8 7.3 306.85 11.65 312.0 16.05 313.2 22.5 L313.3 23.0 305.1 23.0 M216.95 23.0 L216.3 9.15 Q216.2 7.3 218.0 7.3 L236.4 7.3 Q238.15 7.3 238.3 9.1 L238.65 13.7 Q238.8 15.5 237.0 15.55 L224.75 15.55 224.9 18.2 233.55 18.2 Q235.3 18.2 235.45 20.1 L235.7 23.0 216.95 23.0 M182.2 23.0 L182.3 9.15 Q182.3 7.3 184.05 7.3 L188.5 7.3 Q189.6 7.25 190.0 7.9 L197.85 19.9 205.25 8.0 205.3 7.9 205.35 7.85 Q205.8 7.25 206.75 7.3 L211.25 7.3 Q213.0 7.3 213.1 9.15 L213.7 23.0 182.2 23.0 M149.6 23.0 L149.65 22.5 Q149.95 16.0 154.45 11.65 158.9 7.3 165.0 7.3 171.1 7.3 175.3 11.65 179.55 16.05 179.55 22.5 L179.55 23.0 171.3 23.0 171.35 22.5 Q171.4 19.55 169.45 17.55 167.55 15.5 164.75 15.55 162.0 15.5 160.0 17.55 158.0 19.5 157.9 22.5 L157.9 23.0 149.6 23.0 M120.45 23.0 L120.5 22.5 Q121.1 16.0 125.8 11.65 130.45 7.3 136.5 7.3 142.55 7.3 146.65 11.65 147.5 12.55 148.15 13.6 L149.35 15.75 Q149.65 16.55 148.55 16.95 L142.6 19.45 Q141.8 19.75 141.55 19.0 L141.1 18.25 140.5 17.55 Q138.7 15.5 135.9 15.55 133.15 15.5 131.05 17.55 128.95 19.5 128.7 22.5 L128.7 23.0 120.45 23.0 M104.15 23.0 L105.8 9.15 Q106.0 7.3 107.8 7.3 L112.3 7.3 Q114.05 7.3 113.85 9.15 L112.35 23.0 104.15 23.0 M78.95 23.0 L81.05 9.15 Q81.35 7.3 83.1 7.3 L101.5 7.3 Q103.25 7.3 103.05 9.1 L102.5 13.7 Q102.25 15.5 100.5 15.55 L88.2 15.55 87.85 18.2 96.45 18.2 Q98.25 18.2 98.05 20.1 L97.65 23.0 78.95 23.0" fill="#fff78a" fill-rule="evenodd" stroke="none"/>
    <path d="M71.4 23.0 L66.45 36.1 Q65.65 38.15 64.15 38.3 L55.55 38.3 Q54.35 38.25 54.0 36.5 L51.45 23.85 43.9 36.5 Q42.9 38.25 41.75 38.3 L33.05 38.3 Q31.45 38.25 31.5 36.1 L31.6 23.0 71.4 23.0 M274.0 23.0 L275.6 35.6 Q275.95 38.3 273.5 38.3 L267.3 38.3 Q264.85 38.3 264.55 35.6 L263.15 23.0 274.0 23.0 M338.45 30.6 L339.15 30.1 Q339.75 29.65 340.8 29.65 L342.35 29.95 342.65 30.1 343.95 30.9 Q345.35 32.1 345.8 33.95 346.05 35.1 345.8 36.0 L345.35 37.0 344.95 37.35 344.55 37.75 342.75 38.2 342.35 38.2 342.0 38.2 Q340.6 37.95 339.5 37.0 338.1 35.7 337.7 33.95 337.3 32.1 338.2 30.9 L338.35 30.75 338.45 30.6 M327.25 30.6 Q327.55 30.3 327.9 30.1 328.55 29.65 329.6 29.65 L331.15 29.95 331.45 30.1 332.75 30.9 Q334.15 32.1 334.55 33.95 334.75 35.1 334.45 36.0 L334.05 37.0 333.6 37.35 333.2 37.75 331.4 38.2 331.0 38.2 330.65 38.2 Q329.25 37.95 328.2 37.0 326.8 35.7 326.45 33.95 326.05 32.1 326.95 30.9 L327.1 30.75 327.25 30.6 M291.65 23.0 Q292.2 25.6 294.25 27.4 296.55 29.5 299.35 29.5 302.15 29.5 303.85 27.4 305.35 25.55 305.1 23.0 L313.3 23.0 Q314.25 29.05 310.8 33.55 307.2 38.3 300.8 38.3 294.45 38.3 289.3 33.55 284.4 29.1 283.4 23.0 L291.65 23.0 M316.05 30.6 L316.75 30.1 Q317.4 29.65 318.45 29.65 L320.0 29.95 320.25 30.1 321.55 30.9 Q322.9 32.1 323.3 33.95 323.5 35.1 323.2 36.0 L322.75 37.0 322.35 37.35 321.9 37.75 320.1 38.2 319.7 38.2 319.35 38.2 Q318.0 37.95 316.9 37.0 315.5 35.7 315.2 33.95 314.85 32.1 315.75 30.9 L315.95 30.75 316.05 30.6 M235.7 23.0 L235.8 24.85 Q235.95 26.7 234.15 26.75 L225.4 26.75 225.55 29.45 238.1 29.45 Q239.95 29.45 240.1 31.45 L240.5 36.35 Q240.65 38.3 238.75 38.3 L219.5 38.3 Q217.65 38.3 217.55 36.25 L216.95 23.0 235.7 23.0 M213.7 23.0 L214.25 36.25 Q214.3 38.3 212.45 38.3 L207.75 38.3 Q205.85 38.3 205.8 36.25 L205.5 23.6 199.25 33.8 Q198.2 34.75 197.1 33.8 L190.45 23.55 190.55 36.25 Q190.55 38.3 188.7 38.3 L184.0 38.3 Q182.15 38.3 182.15 36.25 L182.2 23.0 213.7 23.0 M179.55 23.0 Q179.3 29.05 175.0 33.55 170.45 38.3 164.05 38.3 157.7 38.3 153.5 33.55 149.45 29.1 149.6 23.0 L157.9 23.0 Q157.9 25.6 159.6 27.4 161.5 29.5 164.35 29.5 167.15 29.5 169.2 27.4 171.1 25.55 171.3 23.0 L179.55 23.0 M128.7 23.0 Q128.6 25.6 130.3 27.4 132.05 29.5 134.9 29.5 137.75 29.5 139.9 27.4 L140.55 26.7 141.1 25.9 Q141.6 25.2 142.2 25.45 L147.9 27.95 Q149.0 28.4 148.6 29.3 147.35 31.5 145.4 33.55 140.6 38.3 134.25 38.3 127.9 38.3 123.9 33.55 120.05 29.1 120.45 23.0 L128.7 23.0 M112.35 23.0 L111.7 29.45 117.9 29.45 Q119.8 29.45 119.6 31.45 L119.15 36.35 Q118.95 38.3 117.05 38.3 L104.2 38.3 Q102.35 38.3 102.6 36.25 L104.15 23.0 112.35 23.0 M97.65 23.0 L97.45 24.85 Q97.2 26.7 95.35 26.75 L86.6 26.75 86.2 29.45 98.75 29.45 Q100.6 29.45 100.4 31.45 L99.8 36.35 Q99.55 38.3 97.65 38.3 L78.4 38.3 Q76.55 38.3 76.9 36.25 L78.95 23.0 97.65 23.0" fill="#ffec04" fill-rule="evenodd" stroke="none"/>
  </g>
</svg>
