<?xml version="1.0" encoding="UTF-8" standalone="no"?>
<svg xmlns:ffdec="https://www.free-decompiler.com/flash" xmlns:xlink="http://www.w3.org/1999/xlink" ffdec:objectType="shape" height="134.7px" width="80.1px" xmlns="http://www.w3.org/2000/svg">
  <g transform="matrix(1.0, 0.0, 0.0, 1.0, 36.45, 135.85)">
    <path d="M25.45 -9.1 L32.1 -5.6 Q34.4 -5.8 38.05 -7.8 41.6 -9.75 41.6 -10.55 41.6 -13.5 39.0 -22.75 L29.2 -58.55 19.7 -95.4 18.85 -98.75 13.2 -118.7 Q10.35 -127.45 7.55 -130.9 L5.0 -133.25 Q5.5 -132.4 5.5 -131.3 L5.5 -131.05 Q5.5 -129.0 3.55 -126.0 L3.15 -125.35 -3.25 -115.9 -4.8 -113.7 Q-4.95 -113.5 -5.2 -113.45 L-5.65 -113.5 -5.85 -113.65 -5.9 -113.8 Q-7.3 -117.4 -7.75 -120.6 -8.75 -127.0 -6.2 -131.75 -8.6 -129.4 -9.15 -127.85 -9.9 -125.85 -12.2 -113.45 -14.9 -99.05 -18.15 -83.25 L-26.6 -43.3 Q-29.65 -28.85 -34.25 -13.25 -34.25 -12.1 -33.65 -11.05 -33.05 -10.05 -32.1 -9.55 -29.2 -8.05 -27.7 -7.55 L-25.25 -7.35 Q-23.8 -7.75 -22.45 -9.9 L-20.05 -13.75 -19.9 -14.7 -19.35 -13.5 -18.35 -11.5 -17.05 -7.4 Q-16.8 -4.2 -12.15 -3.7 L-3.25 -3.0 2.8 -2.45 6.85 -2.45 13.1 -3.0 19.9 -3.7 22.45 -7.05 24.4 -9.65 Q24.95 -9.35 25.45 -9.1 M2.45 -133.85 L0.75 -134.45 -0.6 -134.5 -1.9 -134.15 Q-3.2 -133.6 -4.45 -132.3 -7.05 -128.25 -6.75 -122.85 -6.6 -119.8 -5.45 -116.35 L-5.15 -115.4 -4.4 -116.45 -2.35 -119.45 1.85 -125.65 2.5 -126.7 Q4.25 -129.45 4.25 -131.3 L4.05 -132.25 Q3.6 -133.25 2.45 -133.85 M7.7 -132.5 Q10.8 -129.2 12.75 -124.0 14.7 -118.85 17.6 -107.85 L19.9 -98.75 21.8 -90.35 Q27.7 -71.1 32.35 -52.75 L34.7 -43.3 37.5 -32.05 38.1 -29.5 43.65 -9.5 42.55 -8.65 Q40.0 -6.95 36.8 -5.65 L34.15 -4.7 31.8 -4.05 24.6 -7.65 20.55 -2.0 17.75 -1.7 7.75 -1.15 Q-4.1 -1.25 -15.6 -3.0 L-17.2 -3.25 -17.45 -3.3 -20.0 -12.25 -23.65 -5.6 -23.6 -5.6 -24.05 -4.8 -26.25 -5.4 Q-33.35 -7.6 -35.3 -10.45 L-36.45 -11.7 -33.9 -21.55 -31.9 -29.35 Q-30.45 -34.75 -28.45 -43.3 L-28.4 -43.3 -26.3 -52.75 -21.2 -76.15 Q-14.8 -105.6 -13.4 -113.3 -11.3 -124.85 -9.8 -128.55 -7.35 -134.55 -2.8 -135.6 L-1.85 -135.8 -1.0 -135.85 -0.8 -135.85 -0.7 -135.85 Q2.1 -135.85 4.25 -134.9 6.25 -134.1 7.7 -132.5" fill="#464646" fill-rule="evenodd" stroke="none"/>
    <path d="M5.5 -131.05 L5.5 -131.3 Q5.5 -132.4 5.0 -133.25 L7.55 -130.9 Q10.35 -127.45 13.2 -118.7 L18.85 -98.75 19.7 -95.4 29.2 -58.55 39.0 -22.75 Q41.6 -13.5 41.6 -10.55 41.6 -9.75 38.05 -7.8 34.4 -5.8 32.1 -5.6 L25.45 -9.1 26.95 -11.0 Q28.45 -9.65 28.85 -9.65 34.45 -9.65 36.65 -10.9 37.8 -11.55 37.8 -12.4 37.8 -15.9 36.75 -20.5 L35.2 -26.95 Q34.55 -30.3 31.45 -35.9 28.5 -40.85 28.5 -41.05 28.5 -44.55 29.25 -45.35 29.95 -45.6 29.95 -46.2 29.95 -48.5 29.15 -51.4 L23.95 -70.15 19.15 -69.3 Q18.85 -69.15 18.85 -70.15 18.85 -73.2 20.2 -74.6 21.5 -75.45 21.5 -75.8 21.5 -81.35 15.2 -97.55 L15.2 -97.85 15.15 -98.75 Q13.25 -111.9 10.85 -120.1 8.5 -128.0 5.5 -131.05 M22.45 -7.05 L19.9 -3.7 13.1 -3.0 6.85 -2.45 2.8 -2.45 -3.25 -3.0 -12.15 -3.7 Q-16.8 -4.2 -17.05 -7.4 L-13.45 -8.25 -9.2 -6.55 -7.5 -7.8 Q-5.95 -8.95 -5.2 -8.95 -4.25 -8.95 -3.75 -8.45 L-2.85 -7.35 Q-1.15 -5.8 4.95 -5.8 7.6 -5.8 8.9 -6.7 11.05 -8.5 14.05 -10.35 15.9 -8.75 17.7 -7.65 19.4 -6.6 20.05 -6.6 L22.45 -7.05 M-22.45 -9.9 Q-23.8 -7.75 -25.25 -7.35 L-27.7 -7.55 Q-29.2 -8.05 -32.1 -9.55 -33.05 -10.05 -33.65 -11.05 -34.25 -12.1 -34.25 -13.25 -29.65 -28.85 -26.6 -43.3 L-18.15 -83.25 Q-14.9 -99.05 -12.2 -113.45 -9.9 -125.85 -9.15 -127.85 -8.6 -129.4 -6.2 -131.75 -8.75 -127.0 -7.75 -120.6 -9.45 -116.75 -10.9 -111.8 -13.5 -102.95 -13.5 -98.6 L-13.05 -97.5 -12.65 -96.45 -14.65 -91.5 Q-16.65 -86.85 -16.65 -83.95 -16.65 -82.85 -15.15 -80.9 L-13.7 -79.1 Q-13.7 -78.8 -15.2 -75.8 -17.55 -71.15 -20.65 -60.6 -19.0 -60.2 -18.6 -59.6 -24.95 -46.9 -24.95 -42.65 -24.95 -42.0 -23.85 -40.95 L-19.85 -37.0 Q-24.9 -36.0 -27.35 -24.75 -28.65 -19.0 -29.35 -12.1 L-22.45 -9.9 M11.7 -98.75 L12.35 -98.05 12.65 -96.35 12.35 -94.65 Q12.05 -93.95 11.65 -93.95 11.25 -93.95 10.95 -94.65 10.65 -95.35 10.65 -96.35 10.65 -97.35 10.95 -98.05 11.25 -98.75 11.65 -98.75 L11.7 -98.75 M11.05 -101.35 L10.35 -101.25 9.4 -105.65 10.75 -105.0 Q11.55 -104.3 11.55 -103.1 11.55 -101.65 11.05 -101.35 M13.4 -86.6 Q12.2 -87.8 12.2 -90.1 L12.2 -90.75 12.35 -91.0 12.6 -91.35 Q13.3 -90.8 13.75 -89.4 14.35 -87.65 13.4 -86.6 M15.05 -79.4 L14.95 -79.2 Q13.75 -79.6 13.45 -80.65 L13.25 -83.25 Q13.25 -83.85 13.4 -83.95 L13.75 -84.0 Q15.1 -82.35 15.3 -80.9 15.45 -79.9 15.05 -79.4 M15.1 -76.55 L16.05 -74.3 16.45 -72.55 16.4 -71.9 16.3 -71.8 15.2 -73.65 14.45 -75.2 14.5 -76.5 15.1 -76.55 M15.95 -65.7 L15.6 -68.75 15.35 -69.15 15.85 -69.25 Q16.35 -69.25 16.85 -68.65 17.65 -67.75 17.55 -65.7 L17.35 -64.65 Q17.1 -64.2 16.75 -64.2 16.4 -64.2 16.2 -64.65 15.95 -65.1 15.95 -65.7 M20.6 -33.8 Q20.05 -35.9 19.9 -37.5 L20.15 -38.35 20.75 -38.5 21.45 -36.6 21.85 -33.8 21.4 -33.7 21.35 -33.65 20.6 -33.8 M23.95 -14.6 L24.5 -13.35 24.8 -12.0 24.5 -10.8 23.85 -9.8 Q22.7 -10.35 22.65 -10.85 L22.55 -13.95 22.6 -14.85 23.95 -14.6 M18.5 -61.35 L18.5 -56.85 16.95 -56.85 16.95 -61.35 18.5 -61.35 M17.75 -51.45 Q17.75 -52.45 18.05 -53.15 18.35 -53.9 18.8 -53.9 19.25 -53.9 19.55 -53.15 L19.85 -51.45 19.55 -49.7 Q19.25 -49.0 18.8 -49.0 18.35 -49.0 18.05 -49.7 17.75 -50.45 17.75 -51.45 M20.65 -41.55 L19.1 -41.55 19.1 -46.2 20.65 -46.2 20.65 -41.55 M21.85 -25.45 Q21.35 -26.85 20.85 -30.45 L21.65 -30.7 Q22.95 -27.65 22.95 -26.45 22.95 -25.75 22.65 -25.55 L21.85 -25.45 M23.7 -22.75 L23.7 -17.8 21.95 -17.8 21.95 -22.75 23.7 -22.75" fill="#8a8a8a" fill-rule="evenodd" stroke="none"/>
    <path d="M25.45 -9.1 Q24.95 -9.35 24.4 -9.65 L22.45 -7.05 20.05 -6.6 Q19.4 -6.6 17.7 -7.65 15.9 -8.75 14.05 -10.35 11.05 -8.5 8.9 -6.7 7.6 -5.8 4.95 -5.8 -1.15 -5.8 -2.85 -7.35 L-3.75 -8.45 Q-4.25 -8.95 -5.2 -8.95 -5.95 -8.95 -7.5 -7.8 L-9.2 -6.55 -13.45 -8.25 -17.05 -7.4 -18.35 -11.5 -18.55 -12.05 -18.15 -14.9 -18.15 -14.95 -4.8 -113.7 -3.25 -115.9 Q-4.35 -110.85 -5.15 -103.1 L-7.05 -82.5 Q-8.3 -69.85 -9.75 -62.45 L-4.75 -62.95 Q-6.8 -60.6 -9.75 -51.1 -13.0 -40.6 -13.0 -33.7 -13.0 -31.6 -10.2 -31.6 L-1.45 -32.95 Q-0.45 -32.95 -1.05 -32.7 -1.05 -30.1 -1.7 -28.9 L-3.1 -27.7 -4.5 -26.75 Q-10.25 -26.3 -12.45 -24.55 -15.25 -22.35 -15.25 -16.8 -15.25 -14.0 -14.65 -13.2 -13.85 -12.05 -10.85 -12.05 -8.95 -12.05 -7.6 -12.9 -5.65 -14.1 -4.1 -17.35 -0.8 -12.75 1.45 -11.35 2.7 -10.6 4.1 -10.45 4.5 -10.55 4.5 -10.75 L4.2 -10.85 9.4 -11.4 12.15 -16.45 Q15.55 -15.35 18.15 -14.15 19.3 -13.65 20.55 -13.65 L22.55 -13.95 22.65 -10.85 Q22.7 -10.35 23.85 -9.8 L24.5 -10.8 24.8 -12.0 24.5 -13.35 23.95 -14.6 Q24.7 -15.5 25.35 -18.45 26.0 -21.45 26.0 -24.0 26.0 -32.1 21.35 -33.65 L21.4 -33.7 21.85 -33.8 21.45 -36.6 20.75 -38.5 20.15 -38.35 19.9 -37.5 Q20.05 -35.9 20.6 -33.8 L17.7 -34.45 Q15.2 -35.1 14.5 -35.5 15.55 -36.55 19.9 -39.35 22.75 -41.15 22.75 -42.9 22.75 -50.95 20.8 -58.0 19.3 -63.45 17.55 -65.7 17.65 -67.75 16.85 -68.65 16.35 -69.25 15.85 -69.25 L15.35 -69.15 15.6 -68.75 15.95 -65.7 9.15 -65.8 Q7.75 -65.85 7.35 -66.7 L9.6 -69.55 14.45 -75.2 15.2 -73.65 16.3 -71.8 16.4 -71.9 16.45 -72.55 16.05 -74.3 15.1 -76.55 Q15.35 -77.4 15.05 -79.4 15.45 -79.9 15.3 -80.9 15.1 -82.35 13.75 -84.0 L13.4 -86.6 11.3 -84.65 Q10.05 -83.7 8.25 -83.7 L7.35 -83.95 7.15 -84.25 6.75 -85.65 8.15 -88.4 9.5 -91.05 Q3.25 -85.35 -0.75 -85.35 L-1.4 -85.45 -1.45 -85.7 Q-0.35 -87.5 2.35 -89.85 L10.4 -96.4 Q9.15 -96.15 5.25 -97.05 1.7 -97.9 0.5 -98.75 L0.1 -99.05 Q3.3 -100.55 6.5 -103.25 10.35 -106.6 9.9 -108.65 L9.0 -108.35 Q8.0 -110.85 8.0 -112.25 8.0 -112.75 8.5 -112.6 8.95 -112.45 8.95 -112.95 8.95 -117.95 5.95 -122.25 4.3 -124.6 3.15 -125.35 L3.55 -126.0 Q5.5 -129.0 5.5 -131.05 8.5 -128.0 10.85 -120.1 13.25 -111.9 15.15 -98.75 L15.2 -97.85 15.2 -97.55 Q21.5 -81.35 21.5 -75.8 21.5 -75.45 20.2 -74.6 18.85 -73.2 18.85 -70.15 18.85 -69.15 19.15 -69.3 L23.95 -70.15 29.15 -51.4 Q29.95 -48.5 29.95 -46.2 29.95 -45.6 29.25 -45.35 28.5 -44.55 28.5 -41.05 28.5 -40.85 31.45 -35.9 34.55 -30.3 35.2 -26.95 L36.75 -20.5 Q37.8 -15.9 37.8 -12.4 37.8 -11.55 36.65 -10.9 34.45 -9.65 28.85 -9.65 28.45 -9.65 26.95 -11.0 L25.45 -9.1 M-19.9 -14.7 L-20.05 -13.75 -22.45 -9.9 -29.35 -12.1 Q-28.65 -19.0 -27.35 -24.75 -24.9 -36.0 -19.85 -37.0 L-23.85 -40.95 Q-24.95 -42.0 -24.95 -42.65 -24.95 -46.9 -18.6 -59.6 -19.0 -60.2 -20.65 -60.6 -17.55 -71.15 -15.2 -75.8 -13.7 -78.8 -13.7 -79.1 L-15.15 -80.9 Q-16.65 -82.85 -16.65 -83.95 -16.65 -86.85 -14.65 -91.5 L-12.65 -96.45 -13.05 -97.5 -13.5 -98.6 Q-13.5 -102.95 -10.9 -111.8 -9.45 -116.75 -7.75 -120.6 -7.3 -117.4 -5.9 -113.8 L-5.85 -113.65 -19.9 -14.7 M11.05 -101.35 Q11.55 -101.65 11.55 -103.1 11.55 -104.3 10.75 -105.0 L9.4 -105.65 10.35 -101.25 11.05 -101.35 M11.7 -98.75 L11.65 -98.75 Q11.25 -98.75 10.95 -98.05 10.65 -97.35 10.65 -96.35 10.65 -95.35 10.95 -94.65 11.25 -93.95 11.65 -93.95 12.05 -93.95 12.35 -94.65 L12.65 -96.35 12.35 -98.05 11.7 -98.75 M13.4 -86.6 Q14.35 -87.65 13.75 -89.4 13.3 -90.8 12.6 -91.35 L12.35 -91.0 12.2 -90.75 12.2 -90.1 Q12.2 -87.8 13.4 -86.6 M-10.4 -94.6 Q-10.5 -95.35 -10.9 -95.45 -12.6 -94.55 -13.7 -92.3 -14.75 -90.05 -14.75 -87.35 L-14.45 -85.75 -14.05 -84.45 Q-13.1 -86.3 -11.75 -90.1 -10.45 -93.8 -10.4 -94.6 M-18.4 -66.05 L-18.2 -64.95 -17.6 -63.8 Q-17.1 -64.15 -15.7 -67.55 -14.25 -71.0 -13.45 -73.9 L-13.5 -74.0 -16.3 -70.3 Q-18.65 -67.35 -18.4 -66.05 M-19.85 -51.1 Q-21.85 -47.9 -21.85 -45.7 -21.85 -43.7 -21.3 -42.6 -20.55 -41.1 -18.55 -40.15 -18.05 -41.85 -17.3 -48.9 L-16.55 -56.4 Q-17.4 -54.65 -19.85 -51.1 M-19.75 -30.95 Q-27.0 -27.8 -27.95 -20.7 -28.35 -17.75 -27.0 -15.8 -25.6 -13.7 -22.75 -13.7 L-21.75 -13.85 Q-21.5 -13.95 -21.65 -14.0 -20.55 -22.55 -19.75 -30.3 L-19.75 -30.95" fill="#b4b4b4" fill-rule="evenodd" stroke="none"/>
    <path d="M-3.25 -115.9 L3.15 -125.35 Q4.3 -124.6 5.95 -122.25 8.95 -117.95 8.95 -112.95 8.95 -112.45 8.5 -112.6 8.0 -112.75 8.0 -112.25 8.0 -110.85 9.0 -108.35 L9.9 -108.65 Q10.35 -106.6 6.5 -103.25 3.3 -100.55 0.1 -99.05 L0.5 -98.75 Q1.7 -97.9 5.25 -97.05 9.15 -96.15 10.4 -96.4 L2.35 -89.85 Q-0.35 -87.5 -1.45 -85.7 L-1.4 -85.45 -0.75 -85.35 Q3.25 -85.35 9.5 -91.05 L8.15 -88.4 6.75 -85.65 7.15 -84.25 7.35 -83.95 8.25 -83.7 Q10.05 -83.7 11.3 -84.65 L13.4 -86.6 13.75 -84.0 13.4 -83.95 Q13.25 -83.85 13.25 -83.25 L13.45 -80.65 Q13.75 -79.6 14.95 -79.2 L15.05 -79.4 Q15.35 -77.4 15.1 -76.55 L14.5 -76.5 14.45 -75.2 9.6 -69.55 7.35 -66.7 Q7.75 -65.85 9.15 -65.8 L15.95 -65.7 Q15.95 -65.1 16.2 -64.65 16.4 -64.2 16.75 -64.2 17.1 -64.2 17.35 -64.65 L17.55 -65.7 Q19.3 -63.45 20.8 -58.0 22.75 -50.95 22.75 -42.9 22.75 -41.15 19.9 -39.35 15.55 -36.55 14.5 -35.5 15.2 -35.1 17.7 -34.45 L20.6 -33.8 21.35 -33.65 Q26.0 -32.1 26.0 -24.0 26.0 -21.45 25.35 -18.45 24.7 -15.5 23.95 -14.6 L22.6 -14.85 22.55 -13.95 20.55 -13.65 Q19.3 -13.65 18.15 -14.15 15.55 -15.35 12.15 -16.45 L9.4 -11.4 4.2 -10.85 4.5 -10.75 Q4.5 -10.55 4.1 -10.45 2.7 -10.6 1.45 -11.35 -0.8 -12.75 -4.1 -17.35 -5.65 -14.1 -7.6 -12.9 -8.95 -12.05 -10.85 -12.05 -13.85 -12.05 -14.65 -13.2 -15.25 -14.0 -15.25 -16.8 -15.25 -22.35 -12.45 -24.55 -10.25 -26.3 -4.5 -26.75 -7.3 -24.25 -9.4 -21.35 -12.0 -17.85 -12.0 -15.75 L-11.95 -15.05 -11.85 -14.9 Q-0.95 -22.6 2.3 -25.85 L0.65 -17.05 Q0.7 -15.75 3.3 -15.75 6.6 -15.75 8.95 -20.75 11.3 -25.7 11.3 -32.4 L11.1 -34.3 9.95 -34.5 Q8.45 -34.45 5.75 -33.35 1.85 -31.8 -1.7 -28.9 -1.05 -30.1 -1.05 -32.7 -0.45 -32.95 -1.45 -32.95 L-10.2 -31.6 Q-13.0 -31.6 -13.0 -33.7 -13.0 -40.6 -9.75 -51.1 -6.8 -60.6 -4.75 -62.95 L-9.75 -62.45 Q-8.3 -69.85 -7.05 -82.5 L-5.15 -103.1 Q-4.35 -110.85 -3.25 -115.9 M6.15 -106.75 Q6.15 -114.15 3.05 -116.15 2.15 -115.25 -0.35 -109.85 L-1.0 -108.45 Q-2.95 -104.3 -3.05 -103.15 L-2.6 -103.05 -1.45 -102.95 -1.0 -102.95 Q1.0 -103.05 3.35 -104.1 6.15 -105.35 6.15 -106.75 M2.9 -93.4 Q2.9 -94.8 1.9 -95.8 0.9 -96.8 -0.55 -96.8 -2.0 -96.8 -3.0 -95.8 -4.0 -94.8 -4.0 -93.4 -4.0 -92.0 -3.0 -91.0 -2.0 -90.0 -0.55 -90.0 0.9 -90.0 1.9 -91.0 2.9 -92.0 2.9 -93.4 M3.75 -82.25 L4.5 -85.55 Q0.05 -83.05 -3.05 -78.35 -6.45 -73.2 -5.5 -69.1 -5.25 -68.7 -5.5 -68.3 L-3.5 -68.1 Q-1.8 -68.1 3.55 -71.05 10.3 -74.75 11.6 -78.95 L2.65 -78.7 3.75 -82.25 M18.5 -61.35 L16.95 -61.35 16.95 -56.85 18.5 -56.85 18.5 -61.35 M12.85 -61.85 Q11.8 -62.55 7.8 -62.55 5.05 -62.55 -1.1 -58.25 -7.5 -53.75 -7.5 -51.05 L-7.3 -48.4 -7.15 -44.3 -7.25 -44.25 -6.65 -44.25 Q-2.7 -44.25 14.4 -56.8 14.4 -60.8 12.85 -61.85 M15.45 -51.2 Q14.85 -51.2 11.4 -49.75 L3.6 -46.5 -2.35 -43.5 Q-8.1 -40.25 -8.1 -38.45 -8.1 -36.0 -5.65 -35.45 1.95 -35.45 9.85 -40.45 16.9 -44.85 16.9 -47.4 16.9 -49.55 16.25 -50.55 L15.45 -51.2 M20.65 -41.55 L20.65 -46.2 19.1 -46.2 19.1 -41.55 20.65 -41.55 M17.75 -51.45 Q17.75 -50.45 18.05 -49.7 18.35 -49.0 18.8 -49.0 19.25 -49.0 19.55 -49.7 L19.85 -51.45 19.55 -53.15 Q19.25 -53.9 18.8 -53.9 18.35 -53.9 18.05 -53.15 17.75 -52.45 17.75 -51.45 M21.85 -25.45 L22.65 -25.55 Q22.95 -25.75 22.95 -26.45 22.95 -27.65 21.65 -30.7 L20.85 -30.45 Q21.35 -26.85 21.85 -25.45 M14.05 -30.35 Q13.3 -28.7 13.3 -27.6 13.3 -21.1 15.05 -18.4 16.15 -16.65 17.8 -16.65 L18.4 -16.7 18.35 -16.8 Q17.75 -21.05 16.15 -25.6 L14.1 -30.2 14.05 -30.35 M23.7 -22.75 L21.95 -22.75 21.95 -17.8 23.7 -17.8 23.7 -22.75 M-19.75 -30.95 L-19.75 -30.3 Q-20.55 -22.55 -21.65 -14.0 -21.5 -13.95 -21.75 -13.85 L-22.75 -13.7 Q-25.6 -13.7 -27.0 -15.8 -28.35 -17.75 -27.95 -20.7 -27.0 -27.8 -19.75 -30.95 M-19.85 -51.1 Q-17.4 -54.65 -16.55 -56.4 L-17.3 -48.9 Q-18.05 -41.85 -18.55 -40.15 -20.55 -41.1 -21.3 -42.6 -21.85 -43.7 -21.85 -45.7 -21.85 -47.9 -19.85 -51.1 M-18.4 -66.05 Q-18.65 -67.35 -16.3 -70.3 L-13.5 -74.0 -13.45 -73.9 Q-14.25 -71.0 -15.7 -67.55 -17.1 -64.15 -17.6 -63.8 L-18.2 -64.95 -18.4 -66.05 M-10.4 -94.6 Q-10.45 -93.8 -11.75 -90.1 -13.1 -86.3 -14.05 -84.45 L-14.45 -85.75 -14.75 -87.35 Q-14.75 -90.05 -13.7 -92.3 -12.6 -94.55 -10.9 -95.45 -10.5 -95.35 -10.4 -94.6" fill="#e0e0e0" fill-rule="evenodd" stroke="none"/>
    <path d="M6.15 -106.75 Q6.15 -105.35 3.35 -104.1 1.0 -103.05 -1.0 -102.95 L-1.45 -102.95 -2.6 -103.05 -3.05 -103.15 Q-2.95 -104.3 -1.0 -108.45 L-0.35 -109.85 Q2.15 -115.25 3.05 -116.15 6.15 -114.15 6.15 -106.75 M3.75 -82.25 L2.65 -78.7 11.6 -78.95 Q10.3 -74.75 3.55 -71.05 -1.8 -68.1 -3.5 -68.1 L-5.5 -68.3 Q-5.25 -68.7 -5.5 -69.1 -6.45 -73.2 -3.05 -78.35 0.05 -83.05 4.5 -85.55 L3.75 -82.25 M2.9 -93.4 Q2.9 -92.0 1.9 -91.0 0.9 -90.0 -0.55 -90.0 -2.0 -90.0 -3.0 -91.0 -4.0 -92.0 -4.0 -93.4 -4.0 -94.8 -3.0 -95.8 -2.0 -96.8 -0.55 -96.8 0.9 -96.8 1.9 -95.8 2.9 -94.8 2.9 -93.4 M-4.5 -26.75 L-3.1 -27.7 -1.7 -28.9 Q1.85 -31.8 5.75 -33.35 8.45 -34.45 9.95 -34.5 L11.1 -34.3 11.3 -32.4 Q11.3 -25.7 8.95 -20.75 6.6 -15.75 3.3 -15.75 0.7 -15.75 0.65 -17.05 L2.3 -25.85 Q-0.95 -22.6 -11.85 -14.9 L-11.95 -15.05 -12.0 -15.75 Q-12.0 -17.85 -9.4 -21.35 -7.3 -24.25 -4.5 -26.75 M15.45 -51.2 L16.25 -50.55 Q16.9 -49.55 16.9 -47.4 16.9 -44.85 9.85 -40.45 1.95 -35.45 -5.65 -35.45 -8.1 -36.0 -8.1 -38.45 -8.1 -40.25 -2.35 -43.5 L3.6 -46.5 11.4 -49.75 Q14.85 -51.2 15.45 -51.2 M12.85 -61.85 Q14.4 -60.8 14.4 -56.8 -2.7 -44.25 -6.65 -44.25 L-7.25 -44.25 -7.15 -44.3 -7.3 -48.4 -7.5 -51.05 Q-7.5 -53.75 -1.1 -58.25 5.05 -62.55 7.8 -62.55 11.8 -62.55 12.85 -61.85 M14.05 -30.35 L14.1 -30.2 16.15 -25.6 Q17.75 -21.05 18.35 -16.8 L18.4 -16.7 17.8 -16.65 Q16.15 -16.65 15.05 -18.4 13.3 -21.1 13.3 -27.6 13.3 -28.7 14.05 -30.35" fill="#ffffff" fill-rule="evenodd" stroke="none"/>
    <path d="M-18.35 -11.5 L-19.35 -13.5 -19.9 -14.7 -5.85 -113.65 -5.65 -113.5 -5.2 -113.45 Q-4.95 -113.5 -4.8 -113.7 L-18.15 -14.95 -18.15 -14.9 -18.55 -12.05 -18.35 -11.5" fill="#616161" fill-rule="evenodd" stroke="none"/>
    <path d="M7.1 -131.45 L8.65 -131.4 8.2 -131.95 10.45 -128.85 10.5 -125.8 Q9.0 -129.1 7.55 -130.9 L7.1 -131.45 M0.5 -135.8 L0.0 -135.8 -0.45 -135.85 0.5 -135.8 M4.25 -131.5 L5.5 -131.5 5.5 -131.3 5.5 -131.05 Q5.5 -129.0 3.55 -126.0 L3.15 -125.35 -0.1 -120.55 -0.05 -122.8 1.85 -125.65 2.5 -126.7 Q4.25 -129.45 4.25 -131.3 L4.25 -131.5 M23.7 -84.15 L27.45 -71.1 25.95 -71.15 22.6 -84.2 23.7 -84.15 M31.1 -57.65 L32.35 -52.75 34.65 -43.6 33.25 -43.55 29.45 -57.65 31.1 -57.65 M38.2 -6.25 L38.65 -6.45 37.85 -6.1 38.2 -6.25 M-35.9 -13.85 L-36.15 -12.95 -35.6 -15.15 -35.9 -13.85 M-22.3 -71.0 L-21.2 -76.15 -19.5 -83.85 -18.0 -83.95 -18.15 -83.25 -20.7 -71.05 -22.3 -71.0 M-17.0 -95.5 L-14.4 -108.15 -13.15 -108.25 -15.5 -96.3 -16.85 -96.2 -17.0 -95.5 M-12.2 -119.5 L-10.5 -126.45 -10.6 -121.6 -11.0 -119.6 -12.2 -119.5 M-24.85 -57.65 L-23.55 -57.65 -25.3 -49.3 -24.85 -57.65 M-20.6 -12.85 L-20.05 -13.75 -19.9 -14.7 -19.35 -13.5 -18.95 -12.75 -20.6 -12.85" fill="#0a0a0a" fill-rule="evenodd" stroke="none"/>
    <path d="M5.5 -131.5 L7.1 -131.45 7.55 -130.9 Q9.0 -129.1 10.5 -125.8 L10.55 -121.1 10.55 -121.05 Q8.35 -128.2 5.5 -131.05 L5.5 -131.3 5.5 -131.5 M10.75 -101.35 L10.35 -101.25 9.4 -105.65 10.75 -105.0 10.75 -101.35 M25.95 -71.15 L22.7 -71.25 22.35 -84.2 22.6 -84.2 25.95 -71.15 M27.4 -57.65 L29.45 -57.65 33.25 -43.55 28.65 -43.45 Q28.8 -44.9 29.25 -45.35 29.95 -45.6 29.95 -46.2 29.95 -48.5 29.15 -51.4 L27.4 -57.65 M34.7 -28.8 L34.75 -28.8 36.95 -28.9 Q37.3 -21.1 37.8 -13.45 37.65 -16.55 36.75 -20.5 L35.2 -26.95 34.7 -28.8 M24.65 -13.0 L24.8 -12.4 24.65 -12.4 24.65 -12.95 24.65 -13.0 M-10.6 -121.6 L-10.7 -119.65 -11.0 -119.6 -10.6 -121.6 M-13.15 -108.25 L-11.85 -108.35 Q-13.5 -102.05 -13.5 -98.6 L-13.05 -97.5 -12.65 -96.45 -15.5 -96.3 -13.15 -108.25 M-18.0 -83.95 L-16.65 -84.0 -16.65 -83.95 Q-16.65 -82.85 -15.15 -80.9 L-13.7 -79.1 Q-13.7 -78.8 -15.2 -75.8 L-17.2 -71.1 -20.7 -71.05 -18.15 -83.25 -18.0 -83.95 M-23.55 -57.65 L-19.55 -57.65 Q-24.35 -47.8 -24.85 -43.6 L-25.65 -43.65 -25.3 -49.3 -23.55 -57.65 M-26.55 -27.9 L-26.5 -28.9 -26.25 -28.9 -26.55 -27.9" fill="#1e1e1e" fill-rule="evenodd" stroke="none"/>
    <path d="M5.5 -131.05 Q8.35 -128.2 10.55 -121.05 L10.55 -120.4 7.05 -120.5 5.95 -122.25 Q4.3 -124.6 3.15 -125.35 L3.55 -126.0 Q5.5 -129.0 5.5 -131.05 M8.7 -109.15 L10.7 -109.1 10.75 -105.0 9.4 -105.65 10.35 -101.25 10.75 -101.35 10.7 -97.1 10.7 -97.05 4.85 -97.15 Q1.65 -97.95 0.5 -98.75 L0.1 -99.05 Q3.3 -100.55 6.5 -103.25 10.35 -106.6 9.9 -108.65 L9.0 -108.35 8.7 -109.15 M7.05 -84.6 L10.95 -84.55 10.95 -84.4 Q9.8 -83.7 8.25 -83.7 L7.35 -83.95 7.15 -84.25 7.05 -84.6 M23.2 -57.65 L27.4 -57.65 29.15 -51.4 Q29.95 -48.5 29.95 -46.2 29.95 -45.6 29.25 -45.35 28.8 -44.9 28.65 -43.45 L23.7 -43.35 23.2 -57.65 M25.6 -28.3 L34.7 -28.8 35.2 -26.95 36.75 -20.5 Q37.65 -16.55 37.8 -13.45 L24.8 -12.4 24.65 -13.0 24.55 -15.7 25.35 -18.45 Q26.0 -21.45 26.0 -24.0 26.0 -26.45 25.6 -28.3 M11.65 -15.5 L11.65 -15.45 11.65 -11.55 9.45 -11.45 11.65 -15.5 M1.3 -11.45 L-1.25 -11.55 -1.2 -13.7 1.3 -11.45 M-14.3 -12.85 L-14.35 -12.4 -18.45 -12.7 -18.15 -14.9 -18.15 -14.95 -16.3 -28.35 -13.85 -28.25 -13.95 -22.75 Q-15.25 -20.55 -15.25 -16.8 -15.25 -14.0 -14.65 -13.2 L-14.3 -12.85 M-11.85 -108.35 L-11.2 -108.4 Q-11.15 -102.5 -11.5 -96.55 L-12.65 -96.45 -13.05 -97.5 -13.5 -98.6 Q-13.5 -102.05 -11.85 -108.35 M-16.65 -84.0 L-11.9 -84.2 Q-11.95 -77.65 -12.4 -71.25 L-14.3 -71.2 -13.45 -73.9 -13.5 -74.0 -15.6 -71.15 -17.2 -71.1 -15.2 -75.8 Q-13.7 -78.8 -13.7 -79.1 L-15.15 -80.9 Q-16.65 -82.85 -16.65 -83.95 L-16.65 -84.0 M-19.55 -57.65 L-13.8 -57.65 -15.8 -43.4 -15.85 -43.4 -17.95 -43.45 -17.3 -48.9 -16.55 -56.4 Q-17.4 -54.65 -19.85 -51.1 -21.85 -47.9 -21.85 -45.7 L-21.6 -43.55 -24.85 -43.6 Q-24.35 -47.8 -19.55 -57.65 M-14.3 -43.35 L-12.95 -53.35 -13.3 -43.35 -14.3 -43.35 M-19.9 -28.55 L-17.95 -28.45 -19.9 -14.7 -20.05 -13.75 -20.6 -12.85 -27.4 -13.45 -27.25 -16.15 -27.25 -16.2 -27.0 -15.8 Q-25.6 -13.7 -22.75 -13.7 L-21.75 -13.85 Q-21.5 -13.95 -21.65 -14.0 L-19.9 -28.55 M-26.25 -28.9 L-23.45 -28.75 Q-25.6 -27.05 -26.75 -24.75 L-26.55 -27.85 -26.55 -27.9 -26.25 -28.9" fill="#292929" fill-rule="evenodd" stroke="none"/>
    <path d="M-0.1 -120.55 L3.15 -125.35 Q4.3 -124.6 5.95 -122.25 L7.05 -120.5 -0.1 -120.4 -0.1 -120.55 M-0.3 -103.0 Q1.4 -103.25 3.35 -104.1 6.15 -105.35 6.15 -106.75 L6.05 -109.2 8.7 -109.15 9.0 -108.35 9.9 -108.65 Q10.35 -106.6 6.5 -103.25 3.3 -100.55 0.1 -99.05 L0.5 -98.75 Q1.65 -97.95 4.85 -97.15 L-0.4 -97.05 -0.3 -103.0 M7.05 -84.6 L7.15 -84.25 7.35 -83.95 8.25 -83.7 Q9.8 -83.7 10.95 -84.4 L10.95 -78.95 2.65 -78.7 3.75 -82.25 4.35 -84.6 7.05 -84.6 M3.0 -84.6 Q1.1 -83.3 -0.5 -81.6 L-0.5 -84.55 3.0 -84.6 M4.25 -71.45 Q9.2 -74.3 10.95 -77.45 L10.95 -71.45 4.25 -71.45 M11.25 -49.7 L11.25 -49.65 3.6 -46.5 -0.95 -44.2 -0.9 -46.5 Q3.65 -49.05 11.2 -54.45 L11.25 -49.7 M24.2 -28.25 L25.6 -28.3 Q26.0 -26.45 26.0 -24.0 26.0 -21.45 25.35 -18.45 L24.55 -15.7 24.2 -28.25 M11.0 -27.7 L11.45 -27.75 11.65 -15.5 9.45 -11.45 1.3 -11.45 -1.2 -13.7 -1.1 -22.85 2.3 -25.85 0.65 -17.05 Q0.7 -15.75 3.3 -15.75 6.6 -15.75 8.95 -20.75 10.45 -23.9 11.0 -27.7 M-13.95 -22.75 L-14.3 -12.85 -14.65 -13.2 Q-15.25 -14.0 -15.25 -16.8 -15.25 -20.55 -13.95 -22.75 M-15.6 -71.15 L-13.5 -74.0 -13.45 -73.9 -14.3 -71.2 -15.6 -71.15 M-21.6 -43.55 L-21.85 -45.7 Q-21.85 -47.9 -19.85 -51.1 -17.4 -54.65 -16.55 -56.4 L-17.3 -48.9 -17.95 -43.45 -21.6 -43.55 M-23.45 -28.75 L-19.9 -28.55 -21.65 -14.0 Q-21.5 -13.95 -21.75 -13.85 L-22.75 -13.7 Q-25.6 -13.7 -27.0 -15.8 L-27.25 -16.2 -26.75 -24.75 Q-25.6 -27.05 -23.45 -28.75" fill="#373737" fill-rule="evenodd" stroke="none"/>
    <path d="M6.05 -109.2 L6.15 -106.75 Q6.15 -105.35 3.35 -104.1 1.4 -103.25 -0.3 -103.0 L-0.25 -109.1 6.05 -109.2 M4.35 -84.6 L3.75 -82.25 2.65 -78.7 10.95 -78.95 10.95 -77.45 Q9.2 -74.3 4.25 -71.45 L-0.7 -71.45 -0.5 -81.6 Q1.1 -83.3 3.0 -84.6 L4.35 -84.6 M11.25 -49.65 L11.4 -43.05 -0.95 -43.05 -0.95 -44.2 3.6 -46.5 11.25 -49.65 M11.2 -54.45 Q3.65 -49.05 -0.9 -46.5 L-0.85 -57.6 11.2 -57.6 11.2 -54.45 M-1.15 -27.75 Q4.75 -27.55 11.0 -27.7 10.45 -23.9 8.95 -20.75 6.6 -15.75 3.3 -15.75 0.7 -15.75 0.65 -17.05 L2.3 -25.85 -1.1 -22.85 -1.15 -27.75" fill="#4b4b4b" fill-rule="evenodd" stroke="none"/>
    <path d="M-16.3 -28.35 L-18.15 -14.95 -18.15 -14.9 -18.45 -12.7 -18.95 -12.75 -19.35 -13.5 -19.9 -14.7 -17.95 -28.45 -16.3 -28.35 M-12.85 -57.65 L-12.95 -53.35 -14.3 -43.35 -15.8 -43.4 -13.8 -57.65 -12.85 -57.65" fill="#141414" fill-rule="evenodd" stroke="none"/>
    <path d="M-10.05 -12.1 L-10.45 -12.05 -10.85 -12.05 -11.1 -12.05 -12.5 -12.15 -13.2 -12.3 -10.05 -12.1" fill="#ff0000" fill-rule="evenodd" stroke="none"/>
    <path d="M-0.7 -109.05 L-0.25 -109.1 -0.25 -110.05 Q2.15 -115.25 3.05 -116.15 5.6 -114.5 6.05 -109.2 L-0.25 -109.1 -0.3 -103.0 -1.0 -102.95 -1.45 -102.95 -2.6 -103.05 -3.05 -103.15 Q-2.95 -104.3 -1.0 -108.45 L-0.7 -109.05 M-0.4 -96.8 Q0.95 -96.75 1.9 -95.8 2.9 -94.8 2.9 -93.4 2.9 -92.0 1.9 -91.0 0.95 -90.05 -0.35 -90.0 L-0.4 -96.8 M4.35 -84.6 L3.0 -84.6 4.4 -85.45 4.5 -85.55 4.35 -84.6 M-0.5 -81.6 L-0.7 -71.45 4.25 -71.45 3.55 -71.05 Q1.0 -69.65 -0.7 -68.9 L-0.7 -71.45 -5.7 -71.35 Q-5.55 -74.6 -3.05 -78.35 L-0.5 -81.6 M10.95 -77.45 L10.95 -78.95 11.6 -78.95 10.95 -77.45 M11.15 -62.35 L11.2 -57.6 14.4 -57.6 14.4 -56.8 11.2 -54.45 11.2 -57.6 -0.85 -57.6 -0.9 -46.5 Q-3.85 -44.9 -5.5 -44.4 L-6.2 -44.25 -6.3 -44.25 -6.55 -44.25 -6.65 -44.25 -7.25 -44.25 -7.15 -44.3 -7.3 -48.4 -7.5 -51.05 Q-7.5 -53.55 -2.0 -57.6 L-0.85 -57.6 -0.8 -58.4 0.5 -59.3 Q4.8 -62.15 7.2 -62.5 L7.6 -62.55 7.65 -62.55 7.75 -62.55 7.8 -62.55 11.15 -62.35 M11.25 -49.65 L11.25 -49.7 11.4 -49.75 Q14.85 -51.2 15.45 -51.2 L16.25 -50.55 Q16.9 -49.55 16.9 -47.4 16.9 -45.65 13.65 -43.05 L11.4 -43.05 11.4 -41.4 9.85 -40.45 Q4.35 -36.95 -1.0 -35.9 L-0.95 -43.05 11.4 -43.05 11.25 -49.65 M13.3 -27.8 L15.25 -27.85 16.15 -25.6 Q17.75 -21.05 18.35 -16.8 L18.4 -16.7 17.8 -16.65 Q16.15 -16.65 15.05 -18.4 13.3 -21.1 13.3 -27.6 L13.3 -27.8 M-1.1 -29.35 Q2.2 -31.95 5.75 -33.35 8.45 -34.45 9.95 -34.5 L11.1 -34.3 11.3 -32.4 11.0 -27.7 Q4.75 -27.55 -1.15 -27.75 L-1.1 -29.35 M-1.1 -22.85 Q-4.95 -19.8 -11.85 -14.9 L-11.95 -15.05 -12.0 -15.75 Q-12.0 -17.85 -9.4 -21.35 -7.3 -24.25 -4.5 -26.75 L-3.1 -27.7 -2.95 -27.8 -1.15 -27.75 -1.1 -22.85 M-3.1 -43.05 L-2.35 -43.5 -0.95 -44.2 -0.95 -43.05 -3.1 -43.05" fill="#b5b5b5" fill-rule="evenodd" stroke="none"/>
    <path d="M11.15 -84.55 L11.2 -84.55 13.7 -84.45 13.75 -84.0 13.4 -83.95 Q13.25 -83.85 13.25 -83.25 L13.45 -80.65 Q13.75 -79.6 14.95 -79.2 L15.05 -79.4 Q15.35 -77.4 15.1 -76.55 L14.5 -76.5 14.45 -75.2 14.25 -74.9 12.05 -72.35 11.25 -71.45 10.95 -71.45 10.95 -77.45 11.6 -78.95 10.95 -78.95 10.95 -84.4 11.15 -84.55 M-4.45 -108.85 L-0.7 -109.05 -1.0 -108.45 Q-2.95 -104.3 -3.05 -103.15 L-2.6 -103.05 -1.45 -102.95 -1.0 -102.95 -0.3 -103.0 -0.4 -97.05 4.85 -97.15 5.25 -97.05 Q9.15 -96.15 10.4 -96.4 L2.35 -89.85 -0.4 -87.1 -0.35 -90.0 Q0.95 -90.05 1.9 -91.0 2.9 -92.0 2.9 -93.4 2.9 -94.8 1.9 -95.8 0.95 -96.75 -0.4 -96.8 L-0.4 -97.05 -5.75 -96.85 -5.15 -103.1 -4.45 -108.85 M-0.25 -110.05 L-0.1 -120.4 -0.2 -120.4 -0.1 -120.55 -0.1 -120.4 7.05 -120.5 Q8.75 -117.3 8.95 -113.7 L8.95 -113.45 8.95 -113.3 8.95 -113.05 8.95 -112.95 Q8.95 -112.45 8.5 -112.6 8.0 -112.75 8.0 -112.25 8.0 -111.1 8.7 -109.15 L6.05 -109.2 Q5.6 -114.5 3.05 -116.15 2.15 -115.25 -0.25 -110.05 M-0.45 -85.35 Q3.45 -85.55 9.5 -91.05 L8.15 -88.4 6.75 -85.65 7.05 -84.6 4.35 -84.6 4.5 -85.55 4.4 -85.45 3.0 -84.6 -0.5 -84.55 -0.5 -81.6 -3.05 -78.35 Q-5.55 -74.6 -5.7 -71.35 L-8.3 -71.3 -7.05 -82.5 -6.85 -84.35 -0.5 -84.55 -0.45 -85.35 M10.95 -71.1 L10.45 -70.5 9.6 -69.55 7.35 -66.7 Q7.75 -65.85 9.15 -65.8 L11.1 -65.7 11.15 -62.35 7.8 -62.55 7.75 -62.55 7.65 -62.55 7.6 -62.55 7.2 -62.5 Q4.8 -62.15 0.5 -59.3 L-0.8 -58.4 -0.8 -58.45 -0.7 -68.9 Q1.0 -69.65 3.55 -71.05 L4.25 -71.45 10.95 -71.45 10.95 -71.1 M14.4 -57.6 L16.95 -57.65 16.95 -56.85 18.5 -56.85 18.5 -57.65 20.9 -57.65 Q22.7 -50.95 22.75 -43.3 L20.65 -43.25 20.65 -46.2 19.1 -46.2 19.1 -43.2 13.65 -43.05 Q16.9 -45.65 16.9 -47.4 16.9 -49.55 16.25 -50.55 L15.45 -51.2 Q14.85 -51.2 11.4 -49.75 L11.25 -49.7 11.2 -54.45 14.4 -56.8 14.4 -57.6 M-0.9 -46.5 L-0.95 -44.2 -2.35 -43.5 -3.1 -43.05 -11.8 -43.3 Q-11.05 -46.9 -9.75 -51.1 L-7.5 -57.65 -2.0 -57.6 Q-7.5 -53.55 -7.5 -51.05 L-7.3 -48.4 -7.15 -44.3 -7.25 -44.25 -6.65 -44.25 -6.55 -44.25 -6.3 -44.25 -6.2 -44.25 -5.5 -44.4 Q-3.85 -44.9 -0.9 -46.5 M17.75 -51.45 Q17.75 -50.45 18.05 -49.7 18.35 -49.0 18.8 -49.0 19.25 -49.0 19.55 -49.7 L19.85 -51.45 19.55 -53.15 Q19.25 -53.9 18.8 -53.9 18.35 -53.9 18.05 -53.15 17.75 -52.45 17.75 -51.45 M24.1 -31.7 L24.55 -31.0 25.6 -28.3 24.2 -28.25 24.1 -31.7 M21.25 -28.1 L21.85 -25.45 22.65 -25.55 Q22.95 -25.75 22.95 -26.45 L22.6 -28.15 24.2 -28.25 24.55 -15.7 23.95 -14.6 22.6 -14.85 22.55 -13.95 20.55 -13.65 Q19.3 -13.65 18.15 -14.15 15.55 -15.35 12.15 -16.45 L11.9 -15.95 11.65 -15.45 11.65 -15.5 11.45 -27.75 11.0 -27.7 11.3 -32.4 11.1 -34.3 9.95 -34.5 Q8.45 -34.45 5.75 -33.35 2.2 -31.95 -1.1 -29.35 L-1.05 -31.95 -1.05 -32.1 -1.05 -32.25 -1.05 -32.7 Q-0.6 -32.9 -1.05 -32.9 L-1.0 -35.9 Q4.35 -36.95 9.85 -40.45 L11.4 -41.4 Q11.25 -34.5 11.45 -27.75 L13.3 -27.8 13.3 -27.6 Q13.3 -21.1 15.05 -18.4 16.15 -16.65 17.8 -16.65 L18.4 -16.7 18.35 -16.8 Q17.75 -21.05 16.15 -25.6 L15.25 -27.85 21.25 -28.1 M9.45 -11.45 L9.4 -11.4 4.2 -10.85 4.5 -10.75 Q4.5 -10.55 4.1 -10.45 2.7 -10.6 1.45 -11.35 L1.3 -11.45 9.45 -11.45 M-1.2 -13.7 Q-2.55 -15.15 -4.1 -17.35 -5.65 -14.1 -7.6 -12.9 L-9.5 -12.15 -10.05 -12.1 -13.2 -12.3 -13.85 -12.55 -14.3 -12.85 -13.95 -22.75 -13.55 -23.4 -13.1 -23.95 -12.85 -24.2 -12.45 -24.55 Q-10.25 -26.3 -4.5 -26.75 -7.3 -24.25 -9.4 -21.35 -12.0 -17.85 -12.0 -15.75 L-11.95 -15.05 -11.85 -14.9 Q-4.95 -19.8 -1.1 -22.85 L-1.2 -13.7 M23.7 -22.75 L21.95 -22.75 21.95 -17.8 23.7 -17.8 23.7 -22.75 M-11.7 -90.2 L-11.75 -90.1 Q-13.1 -86.3 -14.05 -84.45 L-14.45 -85.75 -14.75 -87.35 Q-14.75 -90.05 -13.7 -92.3 -12.8 -94.1 -11.55 -95.05 L-11.7 -90.2 M-14.3 -71.2 L-15.7 -67.55 Q-17.1 -64.15 -17.6 -63.8 L-18.2 -64.95 -18.4 -66.05 Q-18.65 -67.35 -16.3 -70.3 L-15.6 -71.15 -14.3 -71.2 M-21.6 -43.55 L-17.95 -43.45 -18.55 -40.15 Q-20.55 -41.1 -21.3 -42.6 L-21.6 -43.55 M-23.45 -28.75 Q-21.9 -30.0 -19.75 -30.95 L-19.75 -30.3 -19.9 -28.55 -23.45 -28.75 M-26.75 -24.75 L-27.25 -16.2 -27.25 -16.15 -27.65 -17.0 -28.0 -19.95 -27.95 -20.5 -27.95 -20.7 -27.75 -21.75 Q-27.45 -23.35 -26.75 -24.75" fill="#a9a9a9" fill-rule="evenodd" stroke="none"/>
    <path d="M10.55 -121.05 L10.55 -121.1 10.8 -120.4 10.75 -120.4 10.55 -120.4 Q10.35 -114.65 10.7 -109.1 L13.45 -108.95 15.15 -98.75 15.2 -97.85 15.2 -97.55 15.45 -96.9 12.65 -97.0 12.35 -98.05 11.7 -98.75 11.65 -98.75 Q11.25 -98.75 10.95 -98.05 10.75 -97.65 10.7 -97.1 L10.75 -101.35 11.05 -101.35 Q11.55 -101.65 11.55 -103.1 11.55 -104.3 10.75 -105.0 L10.7 -109.1 8.7 -109.15 Q8.0 -111.1 8.0 -112.25 8.0 -112.75 8.5 -112.6 8.95 -112.45 8.95 -112.95 L8.95 -113.05 8.95 -113.3 8.95 -113.45 8.95 -113.7 Q8.75 -117.3 7.05 -120.5 L10.55 -120.4 10.55 -121.05 M10.75 -95.45 L10.95 -84.55 11.15 -84.55 10.95 -84.4 10.95 -84.55 7.05 -84.6 6.75 -85.65 8.15 -88.4 9.5 -91.05 Q3.45 -85.55 -0.45 -85.35 L-0.4 -87.1 2.35 -89.85 10.4 -96.4 Q9.15 -96.15 5.25 -97.05 L4.85 -97.15 10.7 -97.05 10.65 -96.35 10.75 -95.45 M13.7 -84.45 L19.85 -84.25 Q21.5 -78.65 21.5 -75.8 21.5 -75.45 20.2 -74.6 19.15 -73.5 18.9 -71.3 L11.3 -71.45 11.25 -71.45 12.05 -72.35 14.25 -74.9 14.45 -75.2 15.2 -73.65 16.3 -71.8 16.4 -71.9 16.45 -72.55 16.05 -74.3 15.1 -76.55 Q15.35 -77.4 15.05 -79.4 15.45 -79.9 15.3 -80.9 15.1 -82.35 13.75 -84.0 L13.7 -84.45 M24.8 -9.45 L24.7 -11.3 24.8 -12.0 24.8 -12.4 37.8 -13.45 37.8 -12.4 Q37.8 -11.55 36.65 -10.9 34.45 -9.65 28.85 -9.65 28.45 -9.65 26.95 -11.0 L25.45 -9.1 24.8 -9.45 M22.7 -12.25 L11.65 -11.55 11.7 -8.8 8.9 -6.7 Q7.6 -5.8 4.95 -5.8 0.8 -5.8 -1.3 -6.5 L-1.25 -11.55 -10.0 -12.1 -10.05 -12.1 -9.5 -12.15 -7.6 -12.9 Q-5.65 -14.1 -4.1 -17.35 -2.55 -15.15 -1.2 -13.7 L-1.25 -11.55 1.3 -11.45 1.45 -11.35 Q2.7 -10.6 4.1 -10.45 4.5 -10.55 4.5 -10.75 L4.2 -10.85 9.4 -11.4 9.45 -11.45 11.65 -11.55 11.65 -15.45 11.9 -15.95 12.15 -16.45 Q15.55 -15.35 18.15 -14.15 19.3 -13.65 20.55 -13.65 L22.55 -13.95 22.7 -12.25 M-13.2 -12.3 L-13.25 -12.3 -14.35 -12.4 -14.45 -8.0 -17.05 -7.4 -18.35 -11.5 -18.55 -12.05 -18.45 -12.7 -14.35 -12.4 -14.3 -12.85 -13.85 -12.55 -13.2 -12.3 M-27.5 -11.5 L-27.4 -13.45 -29.2 -13.55 Q-28.5 -19.6 -27.35 -24.75 L-27.3 -25.0 -26.75 -27.2 -26.55 -27.85 -26.75 -24.75 Q-27.45 -23.35 -27.75 -21.75 L-27.95 -20.7 -27.95 -20.5 -28.0 -19.95 -27.65 -17.0 -27.25 -16.15 -27.4 -13.45 -20.6 -12.85 -22.45 -9.9 -27.5 -11.5 M-7.65 -119.95 L-8.05 -119.9 -7.75 -120.6 -7.65 -119.95 M-11.1 -111.05 L-11.1 -111.0 -11.2 -108.4 -6.55 -108.75 -8.25 -96.7 -11.5 -96.55 Q-11.15 -102.5 -11.2 -108.4 L-11.85 -108.35 -11.1 -111.05 M-5.45 -108.8 L-4.45 -108.85 -5.15 -103.1 -5.75 -96.85 -7.05 -96.75 -5.45 -108.8 M10.95 -71.1 L10.95 -71.05 11.1 -65.7 9.15 -65.8 Q7.75 -65.85 7.35 -66.7 L9.6 -69.55 10.45 -70.5 10.95 -71.1 M20.9 -57.65 L23.2 -57.65 Q22.9 -63.75 22.75 -69.8 L23.95 -70.15 27.4 -57.65 23.2 -57.65 23.7 -43.35 22.75 -43.3 Q22.7 -50.95 20.9 -57.65 M28.65 -43.45 Q28.5 -42.5 28.5 -41.05 28.5 -40.85 31.45 -35.9 L31.85 -35.2 33.1 -32.75 34.25 -30.15 34.75 -28.8 34.7 -28.8 25.6 -28.3 24.55 -31.0 24.1 -31.7 23.7 -43.35 28.65 -43.45 M24.55 -15.7 L24.65 -13.0 24.65 -12.95 24.6 -13.15 24.5 -13.35 23.95 -14.6 24.55 -15.7 M-4.5 -26.75 Q-10.25 -26.3 -12.45 -24.55 L-12.85 -24.2 -13.1 -23.95 -13.55 -23.4 -13.95 -22.75 -13.85 -28.25 -16.3 -28.35 -14.3 -43.35 -13.3 -43.35 Q-13.4 -35.7 -13.85 -28.25 L-2.95 -27.8 -3.1 -27.7 -4.5 -26.75 M-12.65 -96.45 L-11.5 -96.55 -11.55 -95.05 Q-12.8 -94.1 -13.7 -92.3 -14.75 -90.05 -14.75 -87.35 L-14.45 -85.75 -14.05 -84.45 Q-13.1 -86.3 -11.75 -90.1 L-11.7 -90.2 -11.9 -84.2 -16.65 -84.0 Q-16.65 -86.9 -14.65 -91.5 L-12.65 -96.45 M-17.2 -71.1 L-15.6 -71.15 -16.3 -70.3 Q-18.65 -67.35 -18.4 -66.05 L-18.2 -64.95 -17.6 -63.8 Q-17.1 -64.15 -15.7 -67.55 L-14.3 -71.2 -12.4 -71.25 Q-11.95 -77.65 -11.9 -84.2 L-10.0 -84.25 -11.85 -71.25 -12.4 -71.25 -12.45 -67.1 -13.8 -57.65 -19.55 -57.65 -18.75 -59.25 -18.7 -59.35 -18.6 -59.6 Q-19.0 -60.2 -20.65 -60.6 L-20.55 -60.9 -20.45 -61.2 -17.8 -69.5 -17.2 -71.1 M-8.75 -84.3 L-6.85 -84.35 -7.05 -82.5 -8.3 -71.3 -10.5 -71.25 -8.75 -84.3 M-12.95 -53.35 L-12.35 -57.65 -7.5 -57.65 -9.75 -51.1 Q-11.05 -46.9 -11.8 -43.3 L-13.3 -43.35 -12.95 -53.35 M-17.95 -43.45 L-15.85 -43.4 -17.95 -28.45 -19.9 -28.55 -19.75 -30.3 -19.75 -30.95 Q-21.9 -30.0 -23.45 -28.75 L-26.25 -28.9 Q-23.85 -36.2 -19.85 -37.0 L-23.85 -40.95 Q-24.95 -42.0 -24.95 -42.65 L-24.85 -43.6 -21.6 -43.55 -21.3 -42.6 Q-20.55 -41.1 -18.55 -40.15 L-17.95 -43.45 M-1.05 -32.7 L-1.05 -32.9 Q-0.6 -32.9 -1.05 -32.7" fill="#8b8b8b" fill-rule="evenodd" stroke="none"/>
    <path d="M5.5 -131.5 Q5.45 -132.4 5.05 -133.15 L5.0 -133.25 7.1 -131.45 5.5 -131.5 M10.55 -121.1 L10.5 -125.8 12.65 -120.3 10.8 -120.4 10.55 -121.1 M13.45 -108.95 L16.1 -108.8 18.85 -98.75 19.4 -96.7 15.45 -96.9 15.2 -97.55 15.2 -97.85 15.15 -98.75 13.45 -108.95 M12.65 -97.0 L10.7 -97.05 10.75 -95.45 10.65 -96.35 10.7 -97.05 10.7 -97.1 Q10.75 -97.65 10.95 -98.05 11.25 -98.75 11.65 -98.75 L11.7 -98.75 12.35 -98.05 12.65 -97.0 M19.85 -84.25 L22.35 -84.2 22.3 -85.3 22.6 -84.2 22.35 -84.2 22.7 -71.25 25.95 -71.15 29.2 -58.55 29.45 -57.65 27.4 -57.65 23.95 -70.15 22.75 -69.8 22.7 -71.25 18.9 -71.3 Q19.15 -73.5 20.2 -74.6 21.5 -75.45 21.5 -75.8 21.5 -78.65 19.85 -84.25 M36.85 -30.5 L36.95 -28.9 37.3 -28.9 37.7 -27.4 39.0 -22.75 41.25 -13.65 37.8 -13.45 38.1 -7.8 38.05 -7.8 Q34.4 -5.8 32.1 -5.6 L25.45 -9.1 26.95 -11.0 Q28.45 -9.65 28.85 -9.65 34.45 -9.65 36.65 -10.9 37.8 -11.55 37.8 -12.4 L37.8 -13.45 Q37.3 -21.1 36.95 -28.9 L34.75 -28.8 34.25 -30.15 33.1 -32.75 31.85 -35.2 31.45 -35.9 Q28.5 -40.85 28.5 -41.05 28.5 -42.5 28.65 -43.45 L33.25 -43.55 36.85 -30.5 M24.7 -11.3 L24.65 -12.4 22.7 -12.25 22.55 -13.95 22.6 -14.85 23.95 -14.6 24.5 -13.35 24.6 -13.15 24.65 -12.95 24.65 -12.4 24.8 -12.4 24.8 -12.0 24.7 -11.3 M11.7 -8.8 L11.8 -2.85 6.85 -2.45 2.8 -2.45 -1.35 -2.7 -1.3 -6.5 Q0.8 -5.8 4.95 -5.8 7.6 -5.8 8.9 -6.7 L11.7 -8.8 M-14.45 -8.0 L-14.55 -4.25 Q-16.9 -5.15 -17.05 -7.4 L-14.45 -8.0 M-27.7 -7.55 L-27.5 -11.5 -22.45 -9.9 Q-23.8 -7.75 -25.25 -7.35 L-27.7 -7.55 M-29.2 -13.55 L-34.05 -13.8 Q-31.8 -21.6 -29.9 -29.05 L-26.5 -28.9 Q-26.0 -36.2 -25.65 -43.65 L-26.5 -43.65 -25.3 -49.3 -25.65 -43.65 -24.85 -43.6 -24.95 -42.65 Q-24.95 -42.0 -23.85 -40.95 L-19.85 -37.0 Q-23.85 -36.2 -26.25 -28.9 L-26.5 -28.9 -26.55 -27.9 -26.55 -27.85 -26.75 -27.2 -27.3 -25.0 -27.35 -24.75 Q-28.5 -19.6 -29.2 -13.55 M-7.1 -130.8 L-6.65 -130.85 Q-8.65 -126.4 -7.75 -120.6 L-8.05 -119.9 -10.7 -119.65 -11.1 -111.05 -11.85 -108.35 -13.15 -108.25 -12.2 -113.45 -11.0 -119.6 -10.7 -119.65 -10.6 -121.6 -9.15 -127.85 Q-8.7 -129.1 -7.1 -130.8 M10.75 -105.0 Q11.55 -104.3 11.55 -103.1 11.55 -101.65 11.05 -101.35 L10.75 -101.35 10.75 -105.0 M14.45 -75.2 L14.5 -76.5 15.1 -76.55 16.05 -74.3 16.45 -72.55 16.4 -71.9 16.3 -71.8 15.2 -73.65 14.45 -75.2 M15.05 -79.4 L14.95 -79.2 Q13.75 -79.6 13.45 -80.65 L13.25 -83.25 Q13.25 -83.85 13.4 -83.95 L13.75 -84.0 Q15.1 -82.35 15.3 -80.9 15.45 -79.9 15.05 -79.4 M16.95 -57.65 L18.5 -57.65 18.5 -56.85 16.95 -56.85 16.95 -57.65 M17.75 -51.45 Q17.75 -52.45 18.05 -53.15 18.35 -53.9 18.8 -53.9 19.25 -53.9 19.55 -53.15 L19.85 -51.45 19.55 -49.7 Q19.25 -49.0 18.8 -49.0 18.35 -49.0 18.05 -49.7 17.75 -50.45 17.75 -51.45 M19.1 -43.2 L19.1 -46.2 20.65 -46.2 20.65 -43.25 19.1 -43.2 M21.25 -28.1 L22.6 -28.15 22.95 -26.45 Q22.95 -25.75 22.65 -25.55 L21.85 -25.45 21.25 -28.1 M23.7 -22.75 L23.7 -17.8 21.95 -17.8 21.95 -22.75 23.7 -22.75 M-12.65 -96.45 L-14.65 -91.5 Q-16.65 -86.9 -16.65 -84.0 L-18.0 -83.95 -15.5 -96.3 -12.65 -96.45 M-20.7 -71.05 L-17.2 -71.1 -17.8 -69.5 -20.45 -61.2 -20.55 -60.9 -20.65 -60.6 Q-19.0 -60.2 -18.6 -59.6 L-18.7 -59.35 -18.75 -59.25 -19.55 -57.65 -23.55 -57.65 -23.15 -59.55 -20.7 -71.05" fill="#6c6c6c" fill-rule="evenodd" stroke="none"/>
    <path d="M-6.55 -108.75 L-5.45 -108.8 -7.05 -96.75 -8.25 -96.7 -6.55 -108.75 M-18.45 -12.7 L-18.55 -12.05 -18.35 -11.5 -18.4 -11.65 -18.7 -12.15 -18.95 -12.75 -18.45 -12.7 M-10.0 -84.25 L-8.75 -84.3 -10.5 -71.25 -11.85 -71.25 -10.0 -84.25 M-13.8 -57.65 L-12.45 -67.1 -12.45 -67.0 -12.85 -57.65 -12.35 -57.65 -12.95 -53.35 -12.85 -57.65 -13.8 -57.65 M-15.85 -43.4 L-15.8 -43.4 -14.3 -43.35 -16.3 -28.35 -17.95 -28.45 -15.85 -43.4" fill="#4d4d4d" fill-rule="evenodd" stroke="none"/>
    <path d="M8.2 -131.95 L8.65 -131.4 7.1 -131.45 5.0 -133.25 5.05 -133.15 Q5.45 -132.4 5.5 -131.5 L4.25 -131.5 4.1 -132.15 4.05 -132.2 4.05 -132.25 Q3.6 -133.25 2.45 -133.85 L0.75 -134.45 0.0 -134.5 0.0 -135.8 0.5 -135.8 3.65 -135.15 3.75 -135.1 4.0 -135.0 4.25 -134.9 Q6.25 -134.1 7.7 -132.5 L7.8 -132.4 8.2 -131.95 M-0.05 -122.8 L-0.1 -120.55 -0.2 -120.4 -1.75 -120.35 -0.05 -122.85 -0.05 -122.8 M10.45 -128.85 Q11.75 -126.7 12.75 -124.0 L14.05 -120.25 12.65 -120.3 10.5 -125.8 10.45 -128.85 M16.1 -108.8 L17.4 -108.7 17.6 -107.85 19.9 -98.75 20.4 -96.65 19.4 -96.7 18.85 -98.75 16.1 -108.8 M22.3 -85.3 L22.1 -89.45 22.3 -88.75 23.7 -84.15 22.6 -84.2 22.3 -85.3 M27.45 -71.1 L27.65 -70.35 31.1 -57.65 29.45 -57.65 29.2 -58.55 25.95 -71.15 27.45 -71.1 M34.65 -43.6 L34.7 -43.3 36.5 -36.1 36.85 -30.5 33.25 -43.55 34.65 -43.6 M37.3 -28.9 L38.25 -28.95 42.55 -13.7 41.25 -13.65 39.0 -22.75 37.7 -27.4 37.3 -28.9 M38.1 -7.8 L38.2 -6.25 37.85 -6.1 36.8 -5.65 34.15 -4.7 31.8 -4.05 24.9 -7.5 24.8 -9.45 25.45 -9.1 32.1 -5.6 Q34.4 -5.8 38.05 -7.8 L38.1 -7.8 M11.8 -2.85 L11.85 -1.3 7.75 -1.15 -1.4 -1.45 -1.35 -2.7 2.8 -2.45 6.85 -2.45 11.8 -2.85 M-14.55 -4.25 L-14.6 -2.85 -15.6 -3.0 -17.2 -3.25 -17.45 -3.3 -20.0 -12.25 -23.65 -5.6 -23.6 -5.6 -24.05 -4.8 -26.25 -5.4 -27.8 -5.9 -27.7 -7.55 -25.25 -7.35 Q-23.8 -7.75 -22.45 -9.9 L-20.6 -12.85 -18.95 -12.75 -18.7 -12.15 -18.4 -11.65 -18.35 -11.5 -17.05 -7.4 Q-16.9 -5.15 -14.55 -4.25 M-34.05 -13.8 L-35.9 -13.85 -35.6 -15.15 -34.05 -21.0 -33.9 -21.55 -31.95 -29.15 -29.9 -29.05 Q-31.8 -21.6 -34.05 -13.8 M-26.5 -43.65 L-28.3 -43.7 -26.3 -52.75 -25.25 -57.65 -24.85 -57.65 -24.7 -60.05 -24.7 -60.1 -24.55 -60.75 -22.3 -71.0 -20.7 -71.05 -23.15 -59.55 -23.55 -57.65 -24.85 -57.65 -25.3 -49.3 -26.5 -43.65 M-19.5 -83.85 L-19.45 -84.1 -17.0 -95.5 -16.85 -96.2 -15.5 -96.3 -18.0 -83.95 -19.5 -83.85 M-14.4 -108.15 L-13.4 -113.3 -12.2 -119.5 -11.0 -119.6 -12.2 -113.45 -13.15 -108.25 -14.4 -108.15 M-10.5 -126.45 L-10.4 -126.7 -9.9 -128.25 -9.8 -128.55 -8.8 -130.65 -7.1 -130.8 Q-8.7 -129.1 -9.15 -127.85 L-10.6 -121.6 -10.5 -126.45 M-6.65 -130.85 L-5.2 -131.0 Q-7.0 -127.4 -6.75 -122.85 L-6.4 -120.05 -7.65 -119.95 -7.75 -120.6 Q-8.65 -126.4 -6.65 -130.85" fill="#3c3c3c" fill-rule="evenodd" stroke="none"/>
  </g>
</svg>
