<?xml version="1.0" encoding="UTF-8" standalone="no"?>
<svg xmlns:ffdec="https://www.free-decompiler.com/flash" xmlns:xlink="http://www.w3.org/1999/xlink" ffdec:objectType="shape" height="80.15px" width="20.25px" xmlns="http://www.w3.org/2000/svg">
  <g transform="matrix(1.0, 0.0, 0.0, 1.0, 10.15, 0.0)">
    <path d="M5.2 5.65 L5.2 4.9 0.6 4.9 0.6 5.65 5.2 5.65 M0.6 1.85 L0.6 1.1 -3.55 1.1 -3.55 1.85 0.6 1.85 M4.45 8.1 L4.45 7.35 2.1 7.35 2.1 8.1 4.45 8.1 M5.0 8.1 L6.7 8.1 6.7 7.35 5.0 7.35 5.0 8.1 M0.9 7.35 L-5.9 7.35 -5.9 8.1 0.9 8.1 0.9 7.35 M0.2 8.65 L0.2 9.4 3.25 9.4 3.25 8.65 0.2 8.65 M-10.15 10.25 L-10.15 0.0 10.1 0.0 10.1 10.25 -10.15 10.25 M3.1 6.1 L-2.05 6.1 -2.05 6.85 3.1 6.85 3.1 6.1 M3.55 6.85 L7.25 6.85 7.25 6.1 3.55 6.1 3.55 6.85 M1.8 15.5 L1.8 14.75 -1.05 14.75 -1.05 15.5 1.8 15.5 M3.55 19.75 L3.55 20.5 7.25 20.5 7.25 19.75 3.55 19.75 M3.1 19.75 L-2.05 19.75 -2.05 20.5 3.1 20.5 3.1 19.75 M0.2 23.05 L3.25 23.05 3.25 22.3 0.2 22.3 0.2 23.05 M5.0 21.75 L6.7 21.75 6.7 21.0 5.0 21.0 5.0 21.75 M0.9 21.0 L-5.9 21.0 -5.9 21.75 0.9 21.75 0.9 21.0 M4.45 21.0 L2.1 21.0 2.1 21.75 4.45 21.75 4.45 21.0 M-10.15 23.9 L-10.15 13.65 10.1 13.65 10.1 23.9 -10.15 23.9 M5.2 18.55 L0.6 18.55 0.6 19.3 5.2 19.3 5.2 18.55 M5.85 29.0 L5.85 28.25 -0.65 28.25 -0.65 29.0 5.85 29.0 M3.1 33.25 L-2.05 33.25 -2.05 34.0 3.1 34.0 3.1 33.25 M0.6 32.05 L0.6 32.8 5.2 32.8 5.2 32.05 0.6 32.05 M3.55 33.25 L3.55 34.0 7.25 34.0 7.25 33.25 3.55 33.25 M0.2 36.55 L3.25 36.55 3.25 35.8 0.2 35.8 0.2 36.55 M0.9 34.5 L-5.9 34.5 -5.9 35.25 0.9 35.25 0.9 34.5 M2.1 34.5 L2.1 35.25 4.45 35.25 4.45 34.5 2.1 34.5 M5.0 35.25 L6.7 35.25 6.7 34.5 5.0 34.5 5.0 35.25 M-10.15 37.4 L-10.15 27.15 10.1 27.15 10.1 37.4 -10.15 37.4 M0.6 42.6 L0.6 41.85 -3.55 41.85 -3.55 42.6 0.6 42.6 M0.6 45.65 L0.6 46.4 5.2 46.4 5.2 45.65 0.6 45.65 M0.9 48.1 L-5.9 48.1 -5.9 48.85 0.9 48.85 0.9 48.1 M2.1 48.1 L2.1 48.85 4.45 48.85 4.45 48.1 2.1 48.1 M3.1 46.85 L-2.05 46.85 -2.05 47.6 3.1 47.6 3.1 46.85 M3.55 46.85 L3.55 47.6 7.25 47.6 7.25 46.85 3.55 46.85 M5.0 48.85 L6.7 48.85 6.7 48.1 5.0 48.1 5.0 48.85 M0.2 49.4 L0.2 50.15 3.25 50.15 3.25 49.4 0.2 49.4 M-10.15 51.0 L-10.15 40.75 10.1 40.75 10.1 51.0 -10.15 51.0 M3.55 60.5 L3.55 61.25 7.25 61.25 7.25 60.5 3.55 60.5 M0.6 59.3 L0.6 60.05 5.2 60.05 5.2 59.3 0.6 59.3 M4.45 61.75 L2.1 61.75 2.1 62.5 4.45 62.5 4.45 61.75 M3.1 60.5 L-2.05 60.5 -2.05 61.25 3.1 61.25 3.1 60.5 M1.8 56.25 L1.8 55.5 -1.05 55.5 -1.05 56.25 1.8 56.25 M5.0 61.75 L5.0 62.5 6.7 62.5 6.7 61.75 5.0 61.75 M-10.15 64.65 L-10.15 54.4 10.1 54.4 10.1 64.65 -10.15 64.65 M0.2 63.8 L3.25 63.8 3.25 63.05 0.2 63.05 0.2 63.8 M0.6 72.8 L0.6 73.55 5.2 73.55 5.2 72.8 0.6 72.8 M5.85 69.75 L5.85 69.0 -0.65 69.0 -0.65 69.75 5.85 69.75 M7.25 74.0 L3.55 74.0 3.55 74.75 7.25 74.75 7.25 74.0 M0.9 61.75 L-5.9 61.75 -5.9 62.5 0.9 62.5 0.9 61.75 M6.7 75.25 L5.0 75.25 5.0 76.0 6.7 76.0 6.7 75.25 M-10.15 78.15 L-10.15 67.9 10.1 67.9 10.1 78.15 -10.15 78.15 M3.25 76.55 L0.2 76.55 0.2 77.3 3.25 77.3 3.25 76.55 M4.45 76.0 L4.45 75.25 2.1 75.25 2.1 76.0 4.45 76.0 M0.9 75.25 L-5.9 75.25 -5.9 76.0 0.9 76.0 0.9 75.25 M3.1 74.0 L-2.05 74.0 -2.05 74.75 3.1 74.75 3.1 74.0 M-4.7 5.65 L-4.7 4.9 -5.9 4.9 -5.9 5.65 -4.7 5.65 M-3.8 1.85 L-3.8 1.1 -5.7 1.1 -5.7 1.85 -3.8 1.85 M-0.3 5.65 L-0.3 4.9 -4.25 4.9 -4.25 5.65 -0.3 5.65 M-9.25 3.75 L-6.4 3.75 -6.4 0.9 -9.25 0.9 -9.25 3.75 M-5.9 9.4 L-0.65 9.4 -0.65 8.65 -5.9 8.65 -5.9 9.4 M-5.9 6.1 L-5.9 6.85 -3.0 6.85 -3.0 6.1 -5.9 6.1 M-0.3 18.55 L-4.25 18.55 -4.25 19.3 -0.3 19.3 -0.3 18.55 M-1.9 15.5 L-1.9 14.75 -5.7 14.75 -5.7 15.5 -1.9 15.5 M-9.25 17.4 L-6.4 17.4 -6.4 14.55 -9.25 14.55 -9.25 17.4 M-5.9 20.5 L-3.0 20.5 -3.0 19.75 -5.9 19.75 -5.9 20.5 M-5.9 23.05 L-0.65 23.05 -0.65 22.3 -5.9 22.3 -5.9 23.05 M-5.9 19.3 L-4.7 19.3 -4.7 18.55 -5.9 18.55 -5.9 19.3 M-1.55 29.0 L-1.55 28.25 -5.7 28.25 -5.7 29.0 -1.55 29.0 M-9.25 28.05 L-9.25 30.9 -6.4 30.9 -6.4 28.05 -9.25 28.05 M-5.9 32.05 L-5.9 32.8 -4.7 32.8 -4.7 32.05 -5.9 32.05 M-5.9 34.0 L-3.0 34.0 -3.0 33.25 -5.9 33.25 -5.9 34.0 M-5.9 36.55 L-0.65 36.55 -0.65 35.8 -5.9 35.8 -5.9 36.55 M-4.25 32.8 L-0.3 32.8 -0.3 32.05 -4.25 32.05 -4.25 32.8 M-3.8 42.6 L-3.8 41.85 -5.7 41.85 -5.7 42.6 -3.8 42.6 M-6.4 41.65 L-9.25 41.65 -9.25 44.5 -6.4 44.5 -6.4 41.65 M-5.9 45.65 L-5.9 46.4 -4.7 46.4 -4.7 45.65 -5.9 45.65 M-5.9 47.6 L-3.0 47.6 -3.0 46.85 -5.9 46.85 -5.9 47.6 M-0.3 45.65 L-4.25 45.65 -4.25 46.4 -0.3 46.4 -0.3 45.65 M-5.9 49.4 L-5.9 50.15 -0.65 50.15 -0.65 49.4 -5.9 49.4 M-6.4 55.3 L-9.25 55.3 -9.25 58.15 -6.4 58.15 -6.4 55.3 M-5.9 59.3 L-5.9 60.05 -4.7 60.05 -4.7 59.3 -5.9 59.3 M-5.9 61.25 L-3.0 61.25 -3.0 60.5 -5.9 60.5 -5.9 61.25 M-4.25 59.3 L-4.25 60.05 -0.3 60.05 -0.3 59.3 -4.25 59.3 M-5.7 56.25 L-1.9 56.25 -1.9 55.5 -5.7 55.5 -5.7 56.25 M-0.65 63.05 L-5.9 63.05 -5.9 63.8 -0.65 63.8 -0.65 63.05 M-5.7 69.0 L-5.7 69.75 -1.55 69.75 -1.55 69.0 -5.7 69.0 M-5.9 72.8 L-5.9 73.55 -4.7 73.55 -4.7 72.8 -5.9 72.8 M-9.25 71.65 L-6.4 71.65 -6.4 68.8 -9.25 68.8 -9.25 71.65 M-4.25 73.55 L-0.3 73.55 -0.3 72.8 -4.25 72.8 -4.25 73.55 M-5.9 74.0 L-5.9 74.75 -3.0 74.75 -3.0 74.0 -5.9 74.0 M-0.65 76.55 L-5.9 76.55 -5.9 77.3 -0.65 77.3 -0.65 76.55" fill="#ffffff" fill-rule="evenodd" stroke="none"/>
    <path d="M5.2 5.65 L0.6 5.65 0.6 4.9 5.2 4.9 5.2 5.65 M4.45 8.1 L2.1 8.1 2.1 7.35 4.45 7.35 4.45 8.1 M0.9 7.35 L0.9 8.1 -5.9 8.1 -5.9 7.35 0.9 7.35 M5.0 8.1 L5.0 7.35 6.7 7.35 6.7 8.1 5.0 8.1 M0.2 8.65 L3.25 8.65 3.25 9.4 0.2 9.4 0.2 8.65 M3.1 6.1 L3.1 6.85 -2.05 6.85 -2.05 6.1 3.1 6.1 M3.55 6.85 L3.55 6.1 7.25 6.1 7.25 6.85 3.55 6.85 M3.55 19.75 L7.25 19.75 7.25 20.5 3.55 20.5 3.55 19.75 M0.9 21.0 L0.9 21.75 -5.9 21.75 -5.9 21.0 0.9 21.0 M5.0 21.75 L5.0 21.0 6.7 21.0 6.7 21.75 5.0 21.75 M0.2 23.05 L0.2 22.3 3.25 22.3 3.25 23.05 0.2 23.05 M3.1 19.75 L3.1 20.5 -2.05 20.5 -2.05 19.75 3.1 19.75 M4.45 21.0 L4.45 21.75 2.1 21.75 2.1 21.0 4.45 21.0 M5.2 18.55 L5.2 19.3 0.6 19.3 0.6 18.55 5.2 18.55 M3.1 33.25 L3.1 34.0 -2.05 34.0 -2.05 33.25 3.1 33.25 M3.55 33.25 L7.25 33.25 7.25 34.0 3.55 34.0 3.55 33.25 M0.6 32.05 L5.2 32.05 5.2 32.8 0.6 32.8 0.6 32.05 M0.9 34.5 L0.9 35.25 -5.9 35.25 -5.9 34.5 0.9 34.5 M0.2 36.55 L0.2 35.8 3.25 35.8 3.25 36.55 0.2 36.55 M2.1 34.5 L4.45 34.5 4.45 35.25 2.1 35.25 2.1 34.5 M5.0 35.25 L5.0 34.5 6.7 34.5 6.7 35.25 5.0 35.25 M0.6 45.65 L5.2 45.65 5.2 46.4 0.6 46.4 0.6 45.65 M0.9 48.1 L0.9 48.85 -5.9 48.85 -5.9 48.1 0.9 48.1 M2.1 48.1 L4.45 48.1 4.45 48.85 2.1 48.85 2.1 48.1 M3.1 46.85 L3.1 47.6 -2.05 47.6 -2.05 46.85 3.1 46.85 M3.55 46.85 L7.25 46.85 7.25 47.6 3.55 47.6 3.55 46.85 M0.2 49.4 L3.25 49.4 3.25 50.15 0.2 50.15 0.2 49.4 M5.0 48.85 L5.0 48.1 6.7 48.1 6.7 48.85 5.0 48.85 M4.45 61.75 L4.45 62.5 2.1 62.5 2.1 61.75 4.45 61.75 M0.6 59.3 L5.2 59.3 5.2 60.05 0.6 60.05 0.6 59.3 M3.55 60.5 L7.25 60.5 7.25 61.25 3.55 61.25 3.55 60.5 M3.1 60.5 L3.1 61.25 -2.05 61.25 -2.05 60.5 3.1 60.5 M5.0 61.75 L6.7 61.75 6.7 62.5 5.0 62.5 5.0 61.75 M0.2 63.8 L0.2 63.05 3.25 63.05 3.25 63.8 0.2 63.8 M0.6 72.8 L5.2 72.8 5.2 73.55 0.6 73.55 0.6 72.8 M7.25 74.0 L7.25 74.75 3.55 74.75 3.55 74.0 7.25 74.0 M6.7 75.25 L6.7 76.0 5.0 76.0 5.0 75.25 6.7 75.25 M0.9 61.75 L0.9 62.5 -5.9 62.5 -5.9 61.75 0.9 61.75 M3.25 76.55 L3.25 77.3 0.2 77.3 0.2 76.55 3.25 76.55 M4.45 76.0 L2.1 76.0 2.1 75.25 4.45 75.25 4.45 76.0 M0.9 75.25 L0.9 76.0 -5.9 76.0 -5.9 75.25 0.9 75.25 M3.1 74.0 L3.1 74.75 -2.05 74.75 -2.05 74.0 3.1 74.0 M-4.7 5.65 L-5.9 5.65 -5.9 4.9 -4.7 4.9 -4.7 5.65 M-0.3 5.65 L-4.25 5.65 -4.25 4.9 -0.3 4.9 -0.3 5.65 M-5.9 9.4 L-5.9 8.65 -0.65 8.65 -0.65 9.4 -5.9 9.4 M-5.9 6.1 L-3.0 6.1 -3.0 6.85 -5.9 6.85 -5.9 6.1 M-0.3 18.55 L-0.3 19.3 -4.25 19.3 -4.25 18.55 -0.3 18.55 M-5.9 23.05 L-5.9 22.3 -0.65 22.3 -0.65 23.05 -5.9 23.05 M-5.9 20.5 L-5.9 19.75 -3.0 19.75 -3.0 20.5 -5.9 20.5 M-5.9 19.3 L-5.9 18.55 -4.7 18.55 -4.7 19.3 -5.9 19.3 M-5.9 32.05 L-4.7 32.05 -4.7 32.8 -5.9 32.8 -5.9 32.05 M-5.9 36.55 L-5.9 35.8 -0.65 35.8 -0.65 36.55 -5.9 36.55 M-5.9 34.0 L-5.9 33.25 -3.0 33.25 -3.0 34.0 -5.9 34.0 M-4.25 32.8 L-4.25 32.05 -0.3 32.05 -0.3 32.8 -4.25 32.8 M-5.9 45.65 L-4.7 45.65 -4.7 46.4 -5.9 46.4 -5.9 45.65 M-5.9 47.6 L-5.9 46.85 -3.0 46.85 -3.0 47.6 -5.9 47.6 M-0.3 45.65 L-0.3 46.4 -4.25 46.4 -4.25 45.65 -0.3 45.65 M-5.9 49.4 L-0.65 49.4 -0.65 50.15 -5.9 50.15 -5.9 49.4 M-5.9 59.3 L-4.7 59.3 -4.7 60.05 -5.9 60.05 -5.9 59.3 M-5.9 61.25 L-5.9 60.5 -3.0 60.5 -3.0 61.25 -5.9 61.25 M-4.25 59.3 L-0.3 59.3 -0.3 60.05 -4.25 60.05 -4.25 59.3 M-0.65 63.05 L-0.65 63.8 -5.9 63.8 -5.9 63.05 -0.65 63.05 M-5.9 72.8 L-4.7 72.8 -4.7 73.55 -5.9 73.55 -5.9 72.8 M-4.25 73.55 L-4.25 72.8 -0.3 72.8 -0.3 73.55 -4.25 73.55 M-5.9 74.0 L-3.0 74.0 -3.0 74.75 -5.9 74.75 -5.9 74.0 M-0.65 76.55 L-0.65 77.3 -5.9 77.3 -5.9 76.55 -0.65 76.55" fill="#666666" fill-rule="evenodd" stroke="none"/>
    <path d="M0.6 1.85 L-3.55 1.85 -3.55 1.1 0.6 1.1 0.6 1.85 M1.8 15.5 L-1.05 15.5 -1.05 14.75 1.8 14.75 1.8 15.5 M5.85 29.0 L-0.65 29.0 -0.65 28.25 5.85 28.25 5.85 29.0 M0.6 42.6 L-3.55 42.6 -3.55 41.85 0.6 41.85 0.6 42.6 M1.8 56.25 L-1.05 56.25 -1.05 55.5 1.8 55.5 1.8 56.25 M5.85 69.75 L-0.65 69.75 -0.65 69.0 5.85 69.0 5.85 69.75 M-3.8 1.85 L-5.7 1.85 -5.7 1.1 -3.8 1.1 -3.8 1.85 M-1.9 15.5 L-5.7 15.5 -5.7 14.75 -1.9 14.75 -1.9 15.5 M-1.55 29.0 L-5.7 29.0 -5.7 28.25 -1.55 28.25 -1.55 29.0 M-3.8 42.6 L-5.7 42.6 -5.7 41.85 -3.8 41.85 -3.8 42.6 M-5.7 56.25 L-5.7 55.5 -1.9 55.5 -1.9 56.25 -5.7 56.25 M-5.7 69.0 L-1.55 69.0 -1.55 69.75 -5.7 69.75 -5.7 69.0" fill="#3e628e" fill-rule="evenodd" stroke="none"/>
    <path d="M-8.35 2.05 L-8.5 2.1 -8.7 2.7 -8.7 2.75 -8.75 2.45 -8.5 1.75 Q-8.2 1.5 -7.8 1.5 -7.4 1.5 -7.15 1.75 -6.9 2.05 -6.9 2.45 L-6.9 2.6 -7.1 2.6 -7.35 2.1 -7.9 1.9 -8.35 2.05 M-8.35 29.55 L-8.2 29.3 -8.15 29.3 -7.85 29.15 -7.65 29.2 -7.5 29.3 -7.35 29.65 -7.4 29.9 -7.5 30.0 -7.85 30.15 -8.2 30.0 -8.35 29.65 -8.35 29.6 -8.3 29.65 -8.35 29.55 M-8.1 29.95 L-8.15 30.0 -8.1 30.0 -7.9 30.05 -7.75 30.0 -7.65 30.0 -7.75 29.95 -7.9 29.95 -8.1 29.95 M-7.95 29.45 L-8.05 29.4 -8.1 29.45 -8.15 29.55 -8.1 29.65 -8.05 29.7 -7.95 29.65 -7.95 29.55 -7.95 29.45 M-7.8 29.4 L-7.85 29.45 -7.9 29.55 -7.85 29.65 -7.8 29.7 -7.7 29.65 -7.7 29.55 -7.7 29.45 -7.8 29.4 M-8.35 42.8 L-8.5 42.85 -8.7 43.45 -8.7 43.5 -8.75 43.2 -8.5 42.5 Q-8.2 42.25 -7.8 42.25 -7.4 42.25 -7.15 42.5 -6.9 42.8 -6.9 43.2 L-6.9 43.35 -7.1 43.35 -7.35 42.85 -7.9 42.65 -8.35 42.8 M-7.4 70.65 L-7.5 70.75 -7.85 70.9 -8.2 70.75 -8.35 70.4 -8.35 70.35 -8.3 70.4 -8.35 70.3 -8.2 70.05 -8.15 70.05 -7.85 69.9 -7.65 69.95 -7.5 70.05 -7.35 70.4 -7.4 70.65 M-7.75 70.7 L-7.9 70.7 -8.1 70.7 -8.15 70.75 -8.1 70.75 -7.9 70.8 -7.75 70.75 -7.65 70.75 -7.75 70.7 M-7.7 70.3 L-7.7 70.2 -7.8 70.15 -7.85 70.2 -7.9 70.3 -7.85 70.4 -7.8 70.45 -7.7 70.4 -7.7 70.3 M-8.05 70.15 L-8.1 70.2 -8.15 70.3 -8.1 70.4 -8.05 70.45 -7.95 70.4 -7.95 70.3 -7.95 70.2 -8.05 70.15" fill="#996600" fill-rule="evenodd" stroke="none"/>
    <path d="M-7.35 2.5 L-7.5 2.15 Q-7.65 2.0 -7.85 2.0 -8.05 2.0 -8.2 2.15 L-8.35 2.5 -8.2 2.85 -7.85 3.0 -7.5 2.85 -7.35 2.5 M-7.1 2.6 L-7.3 2.95 -7.6 3.15 -7.6 3.35 Q-7.8 3.7 -8.0 3.55 L-8.0 3.2 -8.0 3.15 -8.3 2.95 -8.5 2.45 -8.35 2.05 -7.9 1.9 -7.35 2.1 -7.1 2.6 M-8.0 43.95 L-8.0 43.9 -8.3 43.7 -8.5 43.2 -8.35 42.8 -7.9 42.65 -7.35 42.85 -7.1 43.35 -7.3 43.7 -7.6 43.9 -7.6 44.1 Q-7.8 44.45 -8.0 44.3 L-8.0 43.95 M-7.85 42.75 Q-8.05 42.75 -8.2 42.9 L-8.35 43.25 -8.2 43.6 -7.85 43.75 -7.5 43.6 -7.35 43.25 -7.5 42.9 Q-7.65 42.75 -7.85 42.75" fill="#f0b68e" fill-rule="evenodd" stroke="none"/>
    <path d="M-7.6 3.15 L-7.3 2.95 -7.1 2.6 -6.9 2.6 -6.9 2.45 Q-6.9 2.05 -7.15 1.75 -7.4 1.5 -7.8 1.5 -8.2 1.5 -8.5 1.75 L-8.75 2.45 -8.7 2.75 -8.7 2.7 -8.5 2.1 -8.35 2.05 -8.5 2.45 -8.3 2.95 -8.0 3.15 -8.0 3.2 -8.65 3.35 -8.65 3.7 -7.0 3.7 -7.0 3.35 Q-7.25 3.2 -7.6 3.15 M-9.25 3.75 L-9.25 0.9 -6.4 0.9 -6.4 3.75 -9.25 3.75 M-8.35 42.8 L-8.5 43.2 -8.3 43.7 -8.0 43.9 -8.0 43.95 -8.65 44.1 -8.65 44.45 -7.0 44.45 -7.0 44.1 Q-7.25 43.95 -7.6 43.9 L-7.3 43.7 -7.1 43.35 -6.9 43.35 -6.9 43.2 Q-6.9 42.8 -7.15 42.5 -7.4 42.25 -7.8 42.25 -8.2 42.25 -8.5 42.5 L-8.75 43.2 -8.7 43.5 -8.7 43.45 -8.5 42.85 -8.35 42.8 M-6.4 41.65 L-6.4 44.5 -9.25 44.5 -9.25 41.65 -6.4 41.65" fill="#993300" fill-rule="evenodd" stroke="none"/>
    <path d="M-7.35 2.5 L-7.5 2.85 -7.85 3.0 -8.2 2.85 -8.35 2.5 -8.2 2.15 Q-8.05 2.0 -7.85 2.0 -7.65 2.0 -7.5 2.15 L-7.35 2.5 M-8.15 2.85 L-8.1 2.85 -7.9 2.9 -7.75 2.85 -7.65 2.85 -7.75 2.8 -7.9 2.8 -8.1 2.8 -8.15 2.85 M-7.95 2.3 L-8.05 2.25 -8.1 2.3 -8.15 2.4 -8.1 2.5 -8.05 2.55 -7.95 2.5 -7.95 2.4 -7.95 2.3 M-7.7 2.3 L-7.8 2.25 -7.85 2.3 -7.9 2.4 -7.85 2.5 -7.8 2.55 -7.7 2.5 -7.7 2.4 -7.7 2.3 M-7.9 43.15 L-7.85 43.25 -7.8 43.3 -7.7 43.25 -7.7 43.15 -7.7 43.05 -7.8 43.0 -7.85 43.05 -7.9 43.15 M-8.15 43.15 L-8.1 43.25 -8.05 43.3 -7.95 43.25 -7.95 43.15 -7.95 43.05 -8.05 43.0 -8.1 43.05 -8.15 43.15 M-7.85 42.75 Q-7.65 42.75 -7.5 42.9 L-7.35 43.25 -7.5 43.6 -7.85 43.75 -8.2 43.6 -8.35 43.25 -8.2 42.9 Q-8.05 42.75 -7.85 42.75 M-7.9 43.65 L-7.75 43.6 -7.65 43.6 -7.75 43.55 -7.9 43.55 -8.1 43.55 -8.15 43.6 -8.1 43.6 -7.9 43.65" fill="#ffcc99" fill-rule="evenodd" stroke="none"/>
    <path d="M-7.7 2.3 L-7.7 2.4 -7.7 2.5 -7.8 2.55 -7.85 2.5 -7.9 2.4 -7.85 2.3 -7.8 2.25 -7.7 2.3 M-7.95 2.3 L-7.95 2.4 -7.95 2.5 -8.05 2.55 -8.1 2.5 -8.15 2.4 -8.1 2.3 -8.05 2.25 -7.95 2.3 M-8.15 2.85 L-8.1 2.8 -7.9 2.8 -7.75 2.8 -7.65 2.85 -7.75 2.85 -7.9 2.9 -8.1 2.85 -8.15 2.85 M-7.8 29.4 L-7.7 29.45 -7.7 29.55 -7.7 29.65 -7.8 29.7 -7.85 29.65 -7.9 29.55 -7.85 29.45 -7.8 29.4 M-7.95 29.45 L-7.95 29.55 -7.95 29.65 -8.05 29.7 -8.1 29.65 -8.15 29.55 -8.1 29.45 -8.05 29.4 -7.95 29.45 M-8.1 29.95 L-7.9 29.95 -7.75 29.95 -7.65 30.0 -7.75 30.0 -7.9 30.05 -8.1 30.0 -8.15 30.0 -8.1 29.95 M-8.15 43.15 L-8.1 43.05 -8.05 43.0 -7.95 43.05 -7.95 43.15 -7.95 43.25 -8.05 43.3 -8.1 43.25 -8.15 43.15 M-7.9 43.15 L-7.85 43.05 -7.8 43.0 -7.7 43.05 -7.7 43.15 -7.7 43.25 -7.8 43.3 -7.85 43.25 -7.9 43.15 M-7.9 43.65 L-8.1 43.6 -8.15 43.6 -8.1 43.55 -7.9 43.55 -7.75 43.55 -7.65 43.6 -7.75 43.6 -7.9 43.65 M-8.05 70.15 L-7.95 70.2 -7.95 70.3 -7.95 70.4 -8.05 70.45 -8.1 70.4 -8.15 70.3 -8.1 70.2 -8.05 70.15 M-7.7 70.3 L-7.7 70.4 -7.8 70.45 -7.85 70.4 -7.9 70.3 -7.85 70.2 -7.8 70.15 -7.7 70.2 -7.7 70.3 M-7.75 70.7 L-7.65 70.75 -7.75 70.75 -7.9 70.8 -8.1 70.75 -8.15 70.75 -8.1 70.7 -7.9 70.7 -7.75 70.7" fill="#333333" fill-rule="evenodd" stroke="none"/>
    <path d="M-7.6 3.15 Q-7.25 3.2 -7.0 3.35 L-7.0 3.7 -8.65 3.7 -8.65 3.35 -8.0 3.2 -8.0 3.55 Q-7.8 3.7 -7.6 3.35 L-7.6 3.15 M-7.6 43.9 Q-7.25 43.95 -7.0 44.1 L-7.0 44.45 -8.65 44.45 -8.65 44.1 -8.0 43.95 -8.0 44.3 Q-7.8 44.45 -7.6 44.1 L-7.6 43.9" fill="#003366" fill-rule="evenodd" stroke="none"/>
    <path d="M2.25 10.8 L2.25 11.75 7.45 11.75 7.45 10.8 2.25 10.8 M1.65 11.75 L1.65 10.8 -3.55 10.8 -3.55 11.75 1.65 11.75 M10.1 10.25 L10.1 12.25 -10.15 12.25 -10.15 10.25 10.1 10.25 M7.45 24.45 L2.25 24.45 2.25 25.4 7.45 25.4 7.45 24.45 M10.1 23.9 L10.1 25.9 -10.15 25.9 -10.15 23.9 10.1 23.9 M7.45 38.9 L7.45 37.95 2.25 37.95 2.25 38.9 7.45 38.9 M10.1 37.4 L10.1 39.4 -10.15 39.4 -10.15 37.4 10.1 37.4 M1.65 38.9 L1.65 37.95 -3.55 37.95 -3.55 38.9 1.65 38.9 M1.65 25.4 L1.65 24.45 -3.55 24.45 -3.55 25.4 1.65 25.4 M10.1 51.0 L10.1 53.0 -10.15 53.0 -10.15 51.0 10.1 51.0 M1.65 52.5 L1.65 51.55 -3.55 51.55 -3.55 52.5 1.65 52.5 M7.45 52.5 L7.45 51.55 2.25 51.55 2.25 52.5 7.45 52.5 M7.45 66.15 L7.45 65.2 2.25 65.2 2.25 66.15 7.45 66.15 M10.1 64.65 L10.1 66.65 -10.15 66.65 -10.15 64.65 10.1 64.65 M1.65 66.15 L1.65 65.2 -3.55 65.2 -3.55 66.15 1.65 66.15 M10.1 78.15 L10.1 80.15 -10.15 80.15 -10.15 78.15 10.1 78.15 M7.45 79.65 L7.45 78.7 2.25 78.7 2.25 79.65 7.45 79.65 M1.65 79.65 L1.65 78.7 -3.55 78.7 -3.55 79.65 1.65 79.65 M-9.45 10.8 L-9.45 11.75 -4.25 11.75 -4.25 10.8 -9.45 10.8 M-4.25 24.45 L-9.45 24.45 -9.45 25.4 -4.25 25.4 -4.25 24.45 M-4.25 38.9 L-4.25 37.95 -9.45 37.95 -9.45 38.9 -4.25 38.9 M-4.25 52.5 L-4.25 51.55 -9.45 51.55 -9.45 52.5 -4.25 52.5 M-4.25 66.15 L-4.25 65.2 -9.45 65.2 -9.45 66.15 -4.25 66.15 M-4.25 79.65 L-4.25 78.7 -9.45 78.7 -9.45 79.65 -4.25 79.65" fill="#e1e9ec" fill-rule="evenodd" stroke="none"/>
    <path d="M1.65 11.75 L-3.55 11.75 -3.55 10.8 1.65 10.8 1.65 11.75 M2.25 10.8 L7.45 10.8 7.45 11.75 2.25 11.75 2.25 10.8 M7.45 24.45 L7.45 25.4 2.25 25.4 2.25 24.45 7.45 24.45 M7.45 38.9 L2.25 38.9 2.25 37.95 7.45 37.95 7.45 38.9 M1.65 38.9 L-3.55 38.9 -3.55 37.95 1.65 37.95 1.65 38.9 M1.65 25.4 L-3.55 25.4 -3.55 24.45 1.65 24.45 1.65 25.4 M7.45 52.5 L2.25 52.5 2.25 51.55 7.45 51.55 7.45 52.5 M1.65 52.5 L-3.55 52.5 -3.55 51.55 1.65 51.55 1.65 52.5 M7.45 66.15 L2.25 66.15 2.25 65.2 7.45 65.2 7.45 66.15 M1.65 66.15 L-3.55 66.15 -3.55 65.2 1.65 65.2 1.65 66.15 M7.45 79.65 L2.25 79.65 2.25 78.7 7.45 78.7 7.45 79.65 M1.65 79.65 L-3.55 79.65 -3.55 78.7 1.65 78.7 1.65 79.65 M-9.45 10.8 L-4.25 10.8 -4.25 11.75 -9.45 11.75 -9.45 10.8 M-4.25 24.45 L-4.25 25.4 -9.45 25.4 -9.45 24.45 -4.25 24.45 M-4.25 38.9 L-9.45 38.9 -9.45 37.95 -4.25 37.95 -4.25 38.9 M-4.25 52.5 L-9.45 52.5 -9.45 51.55 -4.25 51.55 -4.25 52.5 M-4.25 66.15 L-9.45 66.15 -9.45 65.2 -4.25 65.2 -4.25 66.15 M-4.25 79.65 L-9.45 79.65 -9.45 78.7 -4.25 78.7 -4.25 79.65" fill="#b8cad1" fill-rule="evenodd" stroke="none"/>
    <path d="M-7.1 15.55 L-6.85 15.55 Q-6.85 15.25 -7.15 15.05 L-7.8 14.8 Q-8.2 14.8 -8.5 15.05 -8.8 15.25 -8.8 15.55 L-8.65 15.55 -8.65 15.7 -8.75 15.7 -8.75 16.1 -8.75 16.6 -8.5 16.65 -8.8 16.65 -8.8 16.7 -8.55 16.9 -7.85 17.05 -7.2 16.9 -6.9 16.7 -6.9 16.65 -7.2 16.65 -7.0 16.6 -7.0 16.25 -7.0 16.1 -6.95 16.1 -6.95 15.7 -7.1 15.7 -7.1 15.55 M-9.25 17.4 L-9.25 14.55 -6.4 14.55 -6.4 17.4 -9.25 17.4 M-6.4 55.3 L-6.4 58.15 -9.25 58.15 -9.25 55.3 -6.4 55.3 M-7.1 56.3 L-6.85 56.3 Q-6.85 56.0 -7.15 55.8 L-7.8 55.55 Q-8.2 55.55 -8.5 55.8 -8.8 56.0 -8.8 56.3 L-8.65 56.3 -8.65 56.45 -8.75 56.45 -8.75 56.85 -8.75 57.35 -8.5 57.4 -8.8 57.4 -8.8 57.45 -8.55 57.65 -7.85 57.8 -7.2 57.65 -6.9 57.45 -6.9 57.4 -7.2 57.4 -7.0 57.35 -7.0 57.0 -7.0 56.85 -6.95 56.85 -6.95 56.45 -7.1 56.45 -7.1 56.3" fill="#339999" fill-rule="evenodd" stroke="none"/>
    <path d="M-8.65 15.55 L-8.8 15.55 Q-8.8 15.25 -8.5 15.05 -8.2 14.8 -7.8 14.8 L-7.15 15.05 Q-6.85 15.25 -6.85 15.55 L-7.1 15.55 -7.1 15.5 -8.65 15.5 -8.65 15.55 M-7.2 16.65 L-6.9 16.65 -6.9 16.7 -7.2 16.9 -7.85 17.05 -8.55 16.9 -8.8 16.7 -8.8 16.65 -8.5 16.65 -8.15 16.75 -7.55 16.75 -7.2 16.65 M-7.1 56.3 L-7.1 56.25 -8.65 56.25 -8.65 56.3 -8.8 56.3 Q-8.8 56.0 -8.5 55.8 -8.2 55.55 -7.8 55.55 L-7.15 55.8 Q-6.85 56.0 -6.85 56.3 L-7.1 56.3 M-7.2 57.4 L-6.9 57.4 -6.9 57.45 -7.2 57.65 -7.85 57.8 -8.55 57.65 -8.8 57.45 -8.8 57.4 -8.5 57.4 -8.15 57.5 -7.55 57.5 -7.2 57.4" fill="#cc9966" fill-rule="evenodd" stroke="none"/>
    <path d="M-7.1 15.55 L-7.1 15.7 -7.1 15.75 Q-7.85 16.1 -8.65 15.75 L-8.65 15.7 -8.65 15.55 -8.65 15.5 -7.1 15.5 -7.1 15.55 M-8.65 56.3 L-8.65 56.25 -7.1 56.25 -7.1 56.3 -7.1 56.45 -7.1 56.5 Q-7.85 56.85 -8.65 56.5 L-8.65 56.45 -8.65 56.3" fill="#cc3300" fill-rule="evenodd" stroke="none"/>
    <path d="M-7.1 15.7 L-6.95 15.7 -6.95 16.1 -7.0 16.1 -8.7 16.1 -8.75 16.1 -8.75 15.7 -8.65 15.7 -8.65 15.75 Q-7.85 16.1 -7.1 15.75 L-7.1 15.7 M-8.65 56.45 L-8.65 56.5 Q-7.85 56.85 -7.1 56.5 L-7.1 56.45 -6.95 56.45 -6.95 56.85 -7.0 56.85 -8.7 56.85 -8.75 56.85 -8.75 56.45 -8.65 56.45" fill="#009966" fill-rule="evenodd" stroke="none"/>
    <path d="M-7.0 16.25 L-7.0 16.6 -7.2 16.65 -7.55 16.75 -8.15 16.75 -8.5 16.65 -8.75 16.6 -8.75 16.1 -8.7 16.1 -8.2 16.5 -7.0 16.25 M-7.0 57.0 L-7.0 57.35 -7.2 57.4 -7.55 57.5 -8.15 57.5 -8.5 57.4 -8.75 57.35 -8.75 56.85 -8.7 56.85 -8.2 57.25 -7.0 57.0" fill="#724b25" fill-rule="evenodd" stroke="none"/>
    <path d="M-7.0 16.1 L-7.0 16.25 -8.2 16.5 -8.7 16.1 -7.0 16.1 M-7.0 56.85 L-7.0 57.0 -8.2 57.25 -8.7 56.85 -7.0 56.85" fill="#ffcc33" fill-rule="evenodd" stroke="none"/>
    <path d="M-8.15 29.3 L-8.2 29.3 -8.35 29.55 -8.5 29.25 -8.7 29.85 -8.7 29.9 -8.75 29.6 -8.5 28.9 Q-8.2 28.65 -7.8 28.65 -7.4 28.65 -7.15 28.9 -6.9 29.2 -6.9 29.6 L-6.9 29.75 -6.75 30.25 Q-7.15 29.95 -7.3 30.1 L-7.3 30.15 -7.4 29.9 -7.35 29.65 -7.5 29.3 -7.65 29.2 Q-7.75 29.05 -7.9 29.05 L-8.15 29.3 M-7.3 70.9 L-7.4 70.65 -7.35 70.4 -7.5 70.05 -7.65 69.95 Q-7.75 69.8 -7.9 69.8 L-8.15 70.05 -8.2 70.05 -8.35 70.3 -8.5 70.0 -8.7 70.6 -8.7 70.65 -8.75 70.35 -8.5 69.65 Q-8.2 69.4 -7.8 69.4 -7.4 69.4 -7.15 69.65 -6.9 69.95 -6.9 70.35 L-6.9 70.5 -6.75 71.0 Q-7.15 70.7 -7.3 70.85 L-7.3 70.9" fill="#000000" fill-rule="evenodd" stroke="none"/>
    <path d="M-8.15 29.3 L-7.9 29.05 Q-7.75 29.05 -7.65 29.2 L-7.85 29.15 -8.15 29.3 M-7.4 29.9 L-7.3 30.15 -7.6 30.3 -7.6 30.5 Q-7.8 30.85 -8.0 30.7 L-8.0 30.35 -8.0 30.3 -8.3 30.1 -8.5 29.6 Q-8.5 29.4 -8.35 29.6 L-8.35 29.65 -8.2 30.0 -7.85 30.15 -7.5 30.0 -7.4 29.9 M-8.35 70.35 L-8.35 70.4 -8.2 70.75 -7.85 70.9 -7.5 70.75 -7.4 70.65 -7.3 70.9 -7.6 71.05 -7.6 71.25 Q-7.8 71.6 -8.0 71.45 L-8.0 71.1 -8.0 71.05 -8.3 70.85 -8.5 70.35 Q-8.5 70.15 -8.35 70.35 M-7.65 69.95 L-7.85 69.9 -8.15 70.05 -7.9 69.8 Q-7.75 69.8 -7.65 69.95" fill="#6f4a00" fill-rule="evenodd" stroke="none"/>
    <path d="M-7.3 30.15 L-7.3 30.1 Q-7.15 29.95 -6.75 30.25 L-6.9 29.75 -6.9 29.6 Q-6.9 29.2 -7.15 28.9 -7.4 28.65 -7.8 28.65 -8.2 28.65 -8.5 28.9 L-8.75 29.6 -8.7 29.9 -8.7 29.85 -8.5 29.25 -8.35 29.55 -8.3 29.65 -8.35 29.6 Q-8.5 29.4 -8.5 29.6 L-8.3 30.1 -8.0 30.3 -8.0 30.35 -8.65 30.5 -8.65 30.85 -7.0 30.85 -7.0 30.5 Q-7.25 30.35 -7.6 30.3 L-7.3 30.15 M-9.25 28.05 L-6.4 28.05 -6.4 30.9 -9.25 30.9 -9.25 28.05 M-8.35 70.35 Q-8.5 70.15 -8.5 70.35 L-8.3 70.85 -8.0 71.05 -8.0 71.1 -8.65 71.25 -8.65 71.6 -7.0 71.6 -7.0 71.25 Q-7.25 71.1 -7.6 71.05 L-7.3 70.9 -7.3 70.85 Q-7.15 70.7 -6.75 71.0 L-6.9 70.5 -6.9 70.35 Q-6.9 69.95 -7.15 69.65 -7.4 69.4 -7.8 69.4 -8.2 69.4 -8.5 69.65 L-8.75 70.35 -8.7 70.65 -8.7 70.6 -8.5 70.0 -8.35 70.3 -8.3 70.4 -8.35 70.35 M-9.25 71.65 L-9.25 68.8 -6.4 68.8 -6.4 71.65 -9.25 71.65" fill="#40559d" fill-rule="evenodd" stroke="none"/>
    <path d="M-8.0 30.35 L-8.0 30.7 Q-7.8 30.85 -7.6 30.5 L-7.6 30.3 Q-7.25 30.35 -7.0 30.5 L-7.0 30.85 -8.65 30.85 -8.65 30.5 -8.0 30.35 M-8.0 71.1 L-8.0 71.45 Q-7.8 71.6 -7.6 71.25 L-7.6 71.05 Q-7.25 71.1 -7.0 71.25 L-7.0 71.6 -8.65 71.6 -8.65 71.25 -8.0 71.1" fill="#006666" fill-rule="evenodd" stroke="none"/>
  </g>
</svg>
