<?xml version="1.0" encoding="UTF-8" standalone="no"?>
<svg xmlns:ffdec="https://www.free-decompiler.com/flash" xmlns:xlink="http://www.w3.org/1999/xlink" ffdec:objectType="shape" height="55.75px" width="105.0px" xmlns="http://www.w3.org/2000/svg">
  <g transform="matrix(1.0, 0.0, 0.0, 1.0, 49.8, 18.2)">
    <path d="M1.25 -8.95 L1.3 -10.75 5.25 -10.7 5.25 -8.35 1.25 -8.95 M30.45 -10.8 L30.3 -12.55 33.8 -13.4 34.0 -11.95 30.45 -10.8 M26.5 23.0 L26.45 23.0 21.6 21.55 21.2 20.3 20.25 17.25 19.85 15.9 19.5 14.7 18.75 12.35 18.15 10.25 16.6 4.6 22.05 2.75 Q22.4 3.55 22.4 6.3 L26.5 23.0 M13.05 6.85 L13.2 5.95 13.25 5.2 Q13.55 3.6 14.2 3.8 L15.15 8.25 15.75 11.1 15.9 11.7 16.3 13.45 16.55 14.6 16.9 16.2 17.85 19.95 15.6 23.15 15.4 22.15 14.15 15.1 13.9 13.5 13.8 12.35 13.55 10.7 13.05 6.85 M2.7 18.2 L2.7 17.85 Q2.55 16.55 2.55 13.6 L2.5 9.2 4.35 23.95 4.0 23.1 Q2.9 20.6 2.7 18.2 M3.6 24.65 L0.3 24.65 -6.7 23.3 -7.05 21.85 -9.7 13.2 -9.75 13.0 -12.9 2.9 -20.8 23.1 -23.3 23.1 -21.6 18.5 -19.65 13.05 -15.8 2.0 -15.75 2.0 -16.05 -0.75 -15.75 -0.85 -14.8 -0.95 Q-9.9 -0.95 -8.5 0.25 L-6.9 2.55 -6.8 2.55 3.6 24.65" fill="#ffffff" fill-rule="evenodd" stroke="none"/>
    <path d="M5.25 -8.35 L5.3 1.1 1.4 0.8 1.5 -1.5 1.25 -3.55 1.25 -8.95 5.25 -8.35 M31.4 -1.1 L30.45 -10.8 34.0 -11.95 34.8 -2.05 34.8 -1.95 34.7 -1.9 34.8 -2.05 33.8 -1.75 33.8 -1.7 Q34.85 2.45 37.35 8.35 L38.5 10.95 39.45 13.0 40.4 15.1 Q42.0 18.3 43.3 20.4 L40.95 20.8 Q40.35 20.8 39.1 18.55 L38.2 16.65 36.3 12.2 35.7 10.75 Q32.4 2.55 31.4 -1.1 M14.6 -2.8 L13.1 -2.6 Q12.45 -2.45 12.5 -2.2 L13.1 -1.8 14.6 -1.65 16.2 -1.8 16.8 -2.2 Q16.8 -2.45 16.2 -2.6 L14.6 -2.8 M19.9 -3.15 L19.95 -2.2 23.75 -2.2 23.75 -3.15 19.9 -3.15 M19.85 -6.85 Q22.9 -6.85 23.75 -4.6 L24.2 0.8 24.2 0.95 26.15 8.75 26.75 11.35 27.8 15.6 28.85 19.75 29.4 21.95 30.1 24.8 20.45 23.75 18.35 22.2 Q17.15 23.8 15.7 24.35 L13.4 24.65 13.25 22.5 12.4 14.3 12.2 12.75 12.1 11.55 11.9 9.7 11.0 1.65 Q10.1 -1.05 10.1 -4.3 10.05 -5.6 13.3 -6.3 L19.85 -6.85 M28.3 0.55 L28.7 -0.4 29.5 0.45 28.3 0.65 28.3 0.55 M26.5 23.0 L22.4 6.3 Q22.4 3.55 22.05 2.75 L16.6 4.6 18.15 10.25 18.75 12.35 19.5 14.7 19.85 15.9 20.25 17.25 21.2 20.3 21.6 21.55 26.45 23.0 26.5 23.0 M13.05 6.85 L13.55 10.7 13.8 12.35 13.9 13.5 14.15 15.1 15.4 22.15 15.6 23.15 17.85 19.95 16.9 16.2 16.55 14.6 16.3 13.45 15.9 11.7 15.75 11.1 15.15 8.25 14.2 3.8 Q13.55 3.6 13.25 5.2 L13.2 5.95 13.05 6.85 M-2.3 -1.85 Q-2.35 0.6 -1.75 2.65 L-1.8 2.65 0.4 12.85 1.65 2.7 3.75 2.5 4.05 8.95 4.35 14.25 4.65 18.0 5.25 23.1 5.85 26.6 3.1 26.8 -1.5 26.45 -6.8 25.45 Q-9.1 24.65 -9.45 22.1 L-9.6 20.95 -11.35 11.65 Q-12.7 4.95 -13.15 4.0 L-14.1 7.6 -16.4 16.75 -16.65 17.55 Q-17.5 19.85 -18.45 21.45 -21.2 25.75 -25.3 24.7 -24.1 22.75 -22.9 19.3 L-22.35 17.75 -20.7 11.45 Q-19.7 6.85 -18.9 1.15 L-20.35 0.9 -22.35 0.55 -32.55 21.25 -37.8 20.55 -34.4 14.95 -32.9 12.65 -29.05 7.3 -27.0 4.9 Q-24.15 1.85 -23.7 0.4 L-23.65 0.3 -23.65 0.25 Q-23.55 -1.05 -22.05 -4.8 -20.35 -8.8 -20.0 -8.75 L-11.9 -7.85 Q-3.6 -6.25 -2.3 -2.8 L-4.05 -2.65 -4.8 -2.3 Q-4.8 -2.15 -4.05 -2.0 L-2.3 -1.85 M2.7 18.2 Q2.9 20.6 4.0 23.1 L4.35 23.95 2.5 9.2 2.55 13.6 Q2.55 16.55 2.7 17.85 L2.7 18.2 M3.6 24.65 L-6.8 2.55 -6.9 2.55 -8.5 0.25 Q-9.9 -0.95 -14.8 -0.95 L-15.75 -0.85 -16.05 -0.75 -15.75 2.0 -15.8 2.0 -19.65 13.05 -21.6 18.5 -23.3 23.1 -20.8 23.1 -12.9 2.9 -9.75 13.0 -9.7 13.2 -7.05 21.85 -6.7 23.3 0.3 24.65 3.6 24.65 M-19.3 -4.2 L-19.35 -2.9 -15.3 -2.9 -15.25 -4.2 -19.3 -4.2 M-9.9 -3.4 L-11.4 -3.2 Q-12.1 -3.05 -12.1 -2.8 -12.1 -2.55 -11.5 -2.35 L-10.0 -2.15 -8.5 -2.35 -7.8 -2.8 Q-7.9 -3.05 -8.5 -3.2 L-9.9 -3.4" fill="#e0e0e0" fill-rule="evenodd" stroke="none"/>
    <path d="M5.3 1.1 L4.95 2.5 6.1 8.75 6.3 9.7 6.45 10.8 7.2 14.8 7.65 17.7 8.6 22.95 9.5 27.75 6.1 27.95 -1.5 27.2 -9.2 25.95 Q-10.9 25.5 -11.4 22.55 L-11.65 20.05 -11.9 16.35 -12.5 10.25 -12.9 7.35 -13.05 9.45 Q-13.5 14.8 -14.4 18.35 -15.25 21.3 -16.4 23.05 L-16.6 23.3 Q-18.7 26.2 -23.6 26.2 L-23.9 26.2 -26.8 25.9 -27.7 25.75 -27.4 25.3 -26.5 23.5 Q-25.15 20.7 -23.65 16.35 L-23.25 15.05 -21.7 9.65 Q-20.4 4.6 -20.35 0.9 L-18.9 1.15 Q-19.7 6.85 -20.7 11.45 L-22.35 17.75 -22.9 19.3 Q-24.1 22.75 -25.3 24.7 -21.2 25.75 -18.45 21.45 -17.5 19.85 -16.65 17.55 L-16.4 16.75 -14.1 7.6 -13.15 4.0 Q-12.7 4.95 -11.35 11.65 L-9.6 20.95 -9.45 22.1 Q-9.1 24.65 -6.8 25.45 L-1.5 26.45 3.1 26.8 5.85 26.6 5.25 23.1 4.65 18.0 4.35 14.25 4.05 8.95 3.75 2.5 1.65 2.7 0.4 12.85 -1.8 2.65 -1.75 2.65 Q-2.35 0.6 -2.3 -1.85 L-1.3 -1.8 -0.75 2.7 1.2 2.7 1.4 0.8 5.3 1.1 M29.75 -3.15 L30.05 -0.5 30.75 -0.3 Q31.35 -0.55 31.4 -1.1 32.4 2.55 35.7 10.75 L36.3 12.2 38.2 16.65 39.1 18.55 Q40.35 20.8 40.95 20.8 L43.3 20.4 Q42.0 18.3 40.4 15.1 L39.45 13.0 38.5 10.95 37.35 8.35 Q34.85 2.45 33.8 -1.7 L33.8 -1.75 34.8 -2.05 34.7 -1.9 34.8 -1.95 34.95 -1.65 34.95 -1.6 36.05 1.0 37.85 5.4 39.95 10.1 39.95 10.15 41.2 12.45 46.5 21.2 Q45.5 22.0 42.95 22.4 L40.0 22.65 Q39.3 22.65 37.95 20.85 L36.75 19.05 34.7 15.45 33.05 12.2 32.45 11.0 31.25 8.5 29.9 5.7 28.1 1.35 27.8 0.65 27.95 0.65 28.25 0.55 27.8 0.65 27.5 -2.6 29.75 -3.15 M26.7 0.6 L26.75 0.95 26.8 1.75 26.85 2.25 Q27.05 5.0 28.1 9.75 L28.55 11.8 30.05 17.7 30.8 20.4 32.2 24.35 32.85 25.95 Q31.55 26.6 29.85 26.6 L29.75 26.6 25.8 26.05 25.6 26.05 24.6 25.85 22.6 25.6 21.1 25.45 Q17.45 25.45 12.4 26.55 L11.7 22.7 9.75 12.9 9.45 11.45 9.2 10.15 8.5 6.25 7.8 2.45 Q7.9 0.95 8.3 -0.25 8.9 -1.7 9.45 -2.1 L8.6 -2.3 Q8.25 -2.55 8.25 -3.45 8.2 -5.85 8.6 -6.75 9.2 -7.7 10.95 -8.05 L24.8 -9.85 25.9 -9.95 25.95 -9.85 26.7 0.6 M19.85 -6.85 L13.3 -6.3 Q10.05 -5.6 10.1 -4.3 10.1 -1.05 11.0 1.65 L11.9 9.7 12.1 11.55 12.2 12.75 12.4 14.3 13.25 22.5 13.4 24.65 15.7 24.35 Q17.15 23.8 18.35 22.2 L20.45 23.75 30.1 24.8 29.4 21.95 28.85 19.75 27.8 15.6 26.75 11.35 26.15 8.75 24.2 0.95 24.2 0.8 23.75 -4.6 Q22.9 -6.85 19.85 -6.85 M50.15 17.2 L49.7 17.2 Q49.05 17.1 42.45 4.55 L40.7 1.25 39.4 -1.25 52.0 15.25 51.5 16.5 50.85 17.1 50.15 17.2 M37.6 -3.0 L37.1 -3.05 37.4 -4.6 37.6 -3.0 M28.3 0.55 L28.3 0.65 29.5 0.45 28.7 -0.4 28.3 0.55 M-20.35 0.9 L-23.0 6.25 -26.3 12.8 -29.55 19.25 -30.7 21.6 -31.2 22.5 -34.45 22.15 -39.9 20.9 -35.2 12.75 -33.75 10.15 -32.3 7.25 Q-31.65 5.8 -30.45 1.7 L-29.65 -0.95 -30.6 -1.3 -30.55 -3.3 Q-30.45 -4.65 -29.55 -5.3 L-28.2 -6.25 -29.1 -6.65 Q-29.8 -6.8 -29.7 -7.35 L-29.3 -9.85 -29.05 -11.7 -12.0 -9.85 -1.8 -9.4 -1.65 -2.75 -2.3 -2.8 Q-3.6 -6.25 -11.9 -7.85 L-20.0 -8.75 Q-20.35 -8.8 -22.05 -4.8 -23.55 -1.05 -23.65 0.25 L-23.65 0.3 -23.7 0.4 Q-24.15 1.85 -27.0 4.9 L-29.05 7.3 -32.9 12.65 -34.4 14.95 -37.8 20.55 -32.55 21.25 -22.35 0.55 -20.35 0.9 M-22.35 -4.35 Q-22.4 -4.75 -25.15 -5.95 L-25.6 -4.9 Q-23.9 -4.25 -23.0 -4.05 -22.7 -4.15 -22.35 -4.35 M-34.5 2.4 L-43.2 17.05 -46.45 15.25 -34.75 0.0 -34.5 2.4" fill="#b4b4b4" fill-rule="evenodd" stroke="none"/>
    <path d="M6.1 8.75 L6.4 9.8 6.95 11.15 7.7 13.05 8.3 14.15 7.95 11.85 7.8 10.55 7.6 9.3 7.4 8.25 6.65 2.5 6.5 2.5 6.5 1.5 6.65 1.5 6.7 -9.85 6.7 -10.65 28.8 -12.25 29.75 -3.15 27.5 -2.6 26.7 0.6 25.95 -9.85 25.9 -9.95 24.8 -9.85 10.95 -8.05 Q9.2 -7.7 8.6 -6.75 8.2 -5.85 8.25 -3.45 8.25 -2.55 8.6 -2.3 L9.45 -2.1 Q8.9 -1.7 8.3 -0.25 7.9 0.95 7.8 2.45 L8.5 6.25 9.2 10.15 9.45 11.45 9.75 12.9 11.7 22.7 12.4 26.55 Q17.45 25.45 21.1 25.45 L22.6 25.6 24.6 25.85 25.6 26.05 25.8 26.05 29.75 26.6 29.85 26.6 Q31.55 26.6 32.85 25.95 L32.2 24.35 30.8 20.4 30.05 17.7 28.55 11.8 28.1 9.75 Q27.05 5.0 26.85 2.25 L26.8 1.75 26.75 0.95 28.05 6.45 29.3 10.25 30.4 12.95 31.3 15.3 31.65 16.2 32.5 18.45 33.95 22.55 34.95 25.35 35.15 25.95 33.95 26.5 Q30.95 27.7 28.35 27.75 L28.2 27.75 25.05 27.5 24.05 27.4 23.3 27.3 20.2 26.95 18.45 26.8 Q17.25 26.8 12.75 27.95 8.25 29.1 0.5 29.1 L-6.6 28.1 -16.6 26.45 -21.9 26.9 -23.05 26.95 -25.65 26.9 Q-27.9 26.75 -29.05 26.25 L-28.3 24.45 -27.45 22.3 -24.6 15.15 -24.5 14.85 -22.2 8.5 Q-20.9 4.2 -20.35 0.9 L-22.6 7.65 -24.75 13.8 -25.05 14.6 -27.85 21.75 -28.95 23.75 -29.55 24.25 Q-36.0 24.25 -39.1 23.25 -40.7 22.7 -42.45 21.25 -39.3 16.8 -36.85 12.8 L-35.7 10.85 -34.2 8.2 Q-31.7 3.3 -30.6 -0.95 L-30.6 -1.0 Q-31.65 1.7 -34.45 6.85 L-35.0 7.75 -35.95 9.5 Q-39.5 15.5 -42.7 19.4 -47.25 18.05 -48.6 15.9 L-44.1 10.5 Q-39.9 5.5 -36.5 0.15 L-34.35 -3.3 -34.35 -3.35 -33.85 -9.1 Q-33.5 -12.3 -32.3 -15.65 L-29.25 -14.45 -26.8 -13.75 -23.1 -12.65 -0.25 -11.25 -0.4 0.85 Q-0.2 1.5 0.45 1.6 L1.1 1.4 1.25 -3.55 1.5 -1.5 1.4 0.8 1.2 2.7 -0.75 2.7 -1.3 -1.8 -2.3 -1.85 -4.05 -2.0 Q-4.8 -2.15 -4.8 -2.3 L-4.05 -2.65 -2.3 -2.8 -1.65 -2.75 -1.8 -9.4 -12.0 -9.85 -29.05 -11.7 -29.3 -9.85 -29.7 -7.35 Q-29.8 -6.8 -29.1 -6.65 L-28.2 -6.25 -29.55 -5.3 Q-30.45 -4.65 -30.55 -3.3 L-30.6 -1.3 -29.65 -0.95 -30.45 1.7 Q-31.65 5.8 -32.3 7.25 L-33.75 10.15 -35.2 12.75 -39.9 20.9 -34.45 22.15 -31.2 22.5 -30.7 21.6 -29.55 19.25 -26.3 12.8 -23.0 6.25 -20.35 0.9 Q-20.4 4.6 -21.7 9.65 L-23.25 15.05 -23.65 16.35 Q-25.15 20.7 -26.5 23.5 L-27.4 25.3 -27.7 25.75 -26.8 25.9 -23.9 26.2 -23.6 26.2 Q-18.7 26.2 -16.6 23.3 L-16.4 23.05 Q-15.25 21.3 -14.4 18.35 -13.5 14.8 -13.05 9.45 L-12.9 7.35 -12.5 10.25 -11.9 16.35 -11.65 20.05 -11.4 22.55 Q-10.9 25.5 -9.2 25.95 L-1.5 27.2 6.1 27.95 9.5 27.75 8.6 22.95 7.65 17.7 7.2 14.8 6.45 10.8 6.3 9.7 6.1 8.75 M34.95 -1.6 L36.15 0.7 37.9 4.1 40.2 8.25 41.6 10.75 44.3 15.2 47.45 19.75 48.15 21.25 Q48.15 22.15 46.35 22.55 L35.85 24.6 35.75 24.3 34.8 21.55 33.4 17.35 30.05 7.25 28.1 1.45 27.8 0.65 28.1 1.35 29.9 5.7 31.25 8.5 32.45 11.0 33.05 12.2 34.7 15.45 36.75 19.05 37.95 20.85 Q39.3 22.65 40.0 22.65 L42.95 22.4 Q45.5 22.0 46.5 21.2 L41.2 12.45 39.95 10.15 39.95 10.1 37.85 5.4 36.05 1.0 34.95 -1.6 M14.6 -2.8 L16.2 -2.6 Q16.8 -2.45 16.8 -2.2 L16.2 -1.8 14.6 -1.65 13.1 -1.8 12.5 -2.2 Q12.45 -2.45 13.1 -2.6 L14.6 -2.8 M19.9 -3.15 L23.75 -3.15 23.75 -2.2 19.95 -2.2 19.9 -3.15 M35.3 -13.75 L39.0 -14.2 Q40.3 -8.9 40.65 -3.25 40.9 -2.4 42.5 0.15 L45.45 4.45 Q49.8 10.6 54.0 15.65 54.15 16.45 52.9 17.45 51.45 18.6 48.5 19.5 45.65 15.7 42.0 8.55 L41.4 7.35 40.5 5.5 37.9 -0.2 37.0 -2.5 36.8 -3.0 36.75 -3.1 36.8 -3.1 36.75 -3.4 Q36.15 -4.7 36.1 -5.4 L36.05 -5.4 35.3 -13.75 M37.6 -3.0 L37.4 -4.6 37.1 -3.05 37.6 -3.0 M50.15 17.2 L50.85 17.1 51.5 16.5 52.0 15.25 39.4 -1.25 40.7 1.25 42.45 4.55 Q49.05 17.1 49.7 17.2 L50.15 17.2 M27.8 0.65 L28.25 0.55 27.95 0.65 27.8 0.65 M11.4 35.0 Q5.1 36.4 -7.9 33.95 -16.05 32.4 -21.8 27.95 L-16.5 27.45 Q-15.5 27.45 -10.4 28.8 -5.25 30.15 0.75 30.15 6.7 30.15 12.4 29.0 L18.45 27.8 23.4 28.3 23.7 28.35 Q22.2 31.9 20.3 32.6 17.7 33.6 11.4 35.0 M24.65 28.45 L27.1 28.7 23.6 30.95 24.65 28.45 M-22.35 -4.35 Q-22.7 -4.15 -23.0 -4.05 -23.9 -4.25 -25.6 -4.9 L-25.15 -5.95 Q-22.4 -4.75 -22.35 -4.35 M-9.9 -3.4 L-8.5 -3.2 Q-7.9 -3.05 -7.8 -2.8 L-8.5 -2.35 -10.0 -2.15 -11.5 -2.35 Q-12.1 -2.55 -12.1 -2.8 -12.1 -3.05 -11.4 -3.2 L-9.9 -3.4 M-19.3 -4.2 L-15.25 -4.2 -15.3 -2.9 -19.35 -2.9 -19.3 -4.2 M-34.5 2.4 L-34.75 0.0 -46.45 15.25 -43.2 17.05 -34.5 2.4" fill="#8a8a8a" fill-rule="evenodd" stroke="none"/>
    <path d="M5.25 -8.35 L5.25 -10.7 1.3 -10.75 1.25 -8.95 1.25 -3.55 1.1 1.4 0.45 1.6 Q-0.2 1.5 -0.4 0.85 L-0.25 -11.25 -23.1 -12.65 -26.8 -13.75 -29.25 -14.45 -32.3 -15.65 Q-33.5 -12.3 -33.85 -9.1 L-34.35 -3.35 -34.35 -3.3 -36.5 0.15 Q-39.9 5.5 -44.1 10.5 L-48.6 15.9 Q-47.25 18.05 -42.7 19.4 -39.5 15.5 -35.95 9.5 L-35.0 7.75 -34.45 6.85 Q-31.65 1.7 -30.6 -1.0 L-30.6 -0.95 Q-31.7 3.3 -34.2 8.2 L-35.7 10.85 -36.85 12.8 Q-39.3 16.8 -42.45 21.25 -40.7 22.7 -39.1 23.25 -36.0 24.25 -29.55 24.25 L-28.95 23.75 -27.85 21.75 -25.05 14.6 -24.75 13.8 -22.6 7.65 -20.35 0.9 Q-20.9 4.2 -22.2 8.5 L-24.5 14.85 -24.6 15.15 -27.45 22.3 -28.3 24.45 -29.05 26.25 Q-27.9 26.75 -25.65 26.9 L-23.05 26.95 -21.9 26.9 -16.6 26.45 -6.6 28.1 0.5 29.1 Q8.25 29.1 12.75 27.95 17.25 26.8 18.45 26.8 L20.2 26.95 23.3 27.3 24.05 27.4 25.05 27.5 28.2 27.75 28.35 27.75 Q30.95 27.7 33.95 26.5 L35.15 25.95 34.95 25.35 33.95 22.55 32.5 18.45 31.65 16.2 31.3 15.3 30.4 12.95 29.3 10.25 28.05 6.45 26.75 0.95 26.7 0.6 27.5 -2.6 27.8 0.65 28.1 1.45 30.05 7.25 33.4 17.35 34.8 21.55 35.75 24.3 35.85 24.6 46.35 22.55 Q48.15 22.15 48.15 21.25 L47.45 19.75 44.3 15.2 41.6 10.75 40.2 8.25 37.9 4.1 36.15 0.7 34.95 -1.6 34.95 -1.65 34.8 -1.95 34.8 -2.05 34.0 -11.95 33.8 -13.4 30.3 -12.55 30.45 -10.8 31.4 -1.1 Q31.35 -0.55 30.75 -0.3 L30.05 -0.5 29.75 -3.15 28.8 -12.25 6.7 -10.65 6.7 -9.85 6.65 1.5 6.5 1.5 6.5 2.5 6.65 2.5 7.4 8.25 7.6 9.3 7.8 10.55 7.95 11.85 8.3 14.15 7.7 13.05 6.95 11.15 6.4 9.8 6.1 8.75 4.95 2.5 5.3 1.1 5.25 -8.35 M17.55 -12.5 Q24.35 -13.0 33.65 -14.7 L36.65 -15.35 Q38.15 -15.85 39.4 -16.75 L39.45 -16.85 39.5 -16.95 40.1 -16.95 40.5 -15.25 40.85 -13.85 40.85 -13.8 41.1 -12.55 42.3 -5.6 42.4 -4.75 Q42.6 -3.3 44.15 -0.35 47.3 5.4 55.05 15.25 L55.1 15.25 55.2 16.0 Q55.2 18.4 52.3 19.45 49.4 20.5 49.4 21.65 49.4 23.3 42.95 24.25 36.4 25.2 36.4 26.15 36.4 26.9 33.6 27.8 L32.25 28.2 Q26.45 33.6 17.8 35.9 11.45 37.55 3.5 37.55 -3.75 37.55 -10.9 35.1 -15.45 33.45 -19.9 30.9 L-24.0 28.2 -24.5 28.25 -26.85 27.95 -29.05 27.4 -30.25 26.65 Q-30.4 26.25 -29.95 25.25 -39.25 24.0 -41.2 23.3 -43.2 22.55 -43.2 20.3 -43.2 20.05 -46.5 18.45 -49.8 16.8 -49.8 15.9 L-43.45 8.0 Q-38.95 2.15 -37.5 -0.5 -36.75 -1.9 -36.15 -4.1 -35.55 -9.75 -34.45 -13.4 L-34.1 -14.95 -34.15 -14.9 -34.0 -15.65 -33.4 -18.2 -32.65 -18.2 -30.85 -16.75 Q-29.85 -16.0 -28.9 -15.95 -26.05 -15.05 -20.65 -14.1 -9.75 -12.2 7.3 -12.15 L17.55 -12.5 M35.3 -13.75 L36.05 -5.4 36.1 -5.4 Q36.15 -4.7 36.75 -3.4 L36.8 -3.1 36.75 -3.1 36.8 -3.0 37.0 -2.5 37.9 -0.2 40.5 5.5 41.4 7.35 42.0 8.55 Q45.65 15.7 48.5 19.5 51.45 18.6 52.9 17.45 54.15 16.45 54.0 15.65 49.8 10.6 45.45 4.45 L42.5 0.15 Q40.9 -2.4 40.65 -3.25 40.3 -8.9 39.0 -14.2 L35.3 -13.75 M11.4 35.0 Q17.7 33.6 20.3 32.6 22.2 31.9 23.7 28.35 L23.4 28.3 18.45 27.8 12.4 29.0 Q6.7 30.15 0.75 30.15 -5.25 30.15 -10.4 28.8 -15.5 27.45 -16.5 27.45 L-21.8 27.95 Q-16.05 32.4 -7.9 33.95 5.1 36.4 11.4 35.0 M24.65 28.45 L23.6 30.95 27.1 28.7 24.65 28.45" fill="#464646" fill-rule="evenodd" stroke="none"/>
  </g>
</svg>
