<?xml version="1.0" encoding="UTF-8" standalone="no"?>
<svg xmlns:ffdec="https://www.free-decompiler.com/flash" xmlns:xlink="http://www.w3.org/1999/xlink" ffdec:objectType="shape" height="71.8px" width="40.05px" xmlns="http://www.w3.org/2000/svg">
  <g transform="matrix(1.0, 0.0, 0.0, 1.0, -27.35, 39.5)">
    <path d="M48.05 -13.9 L47.1 -17.1 Q45.85 -21.3 43.8 -24.9 40.55 -30.55 36.0 -35.15 L41.35 -29.7 Q41.95 -29.05 45.2 -28.35 45.65 -30.8 44.55 -33.9 43.45 -37.0 36.35 -38.15 L36.75 -38.35 35.55 -38.3 Q32.2 -38.35 29.2 -39.5 L36.75 -39.3 36.25 -38.9 Q45.1 -38.45 46.6 -32.45 L48.35 -24.3 Q48.65 -22.1 51.2 -18.8 53.75 -15.55 56.7 -8.55 59.65 -1.6 60.65 6.05 61.6 13.7 61.85 19.3 62.15 25.2 65.2 30.2 60.65 28.55 57.4 24.9 54.8 21.95 52.85 18.4 49.65 12.55 49.75 5.75 L50.05 -3.3 Q50.3 -8.1 48.65 -12.35 L48.05 -13.9 M27.35 -22.15 L29.1 -20.25 Q30.25 -18.8 31.1 -16.95 31.95 -15.1 32.3 -13.0 33.6 -5.75 38.15 -0.75 38.7 4.25 42.75 7.35 L43.9 6.05 44.0 7.05 Q44.0 10.05 46.7 11.4 L46.65 14.8 Q42.8 11.75 39.95 7.85 36.7 3.4 34.85 -2.1 L31.4 -11.35 Q29.9 -15.0 29.45 -14.4 L29.1 -15.3 Q28.35 -17.1 27.35 -22.15 M49.2 -19.8 L46.45 -22.2 Q49.4 -15.95 50.95 -9.15 52.1 -4.0 51.45 1.2 L50.85 7.35 51.6 7.35 52.0 7.05 52.55 7.1 52.8 9.3 Q53.05 11.75 54.05 14.0 L55.7 10.6 Q56.15 14.8 57.4 18.55 58.15 20.85 60.35 22.15 59.6 17.4 59.85 12.65 60.05 8.35 59.0 3.9 L56.3 -5.55 Q54.7 -10.55 53.15 -14.05 51.55 -17.6 49.2 -19.8" fill="#989898" fill-rule="evenodd" stroke="none"/>
    <path d="M29.2 -39.5 Q32.2 -38.35 35.55 -38.3 L36.75 -38.35 36.35 -38.15 Q43.45 -37.0 44.55 -33.9 45.65 -30.8 45.2 -28.35 41.95 -29.05 41.35 -29.7 L36.0 -35.15 Q40.55 -30.55 43.8 -24.9 45.85 -21.3 47.1 -17.1 L48.05 -13.9 Q48.6 -10.55 48.8 -4.95 48.95 0.2 47.75 5.25 47.0 8.4 46.7 11.4 44.0 10.05 44.0 7.05 L43.9 6.05 42.75 7.35 Q38.7 4.25 38.15 -0.75 33.6 -5.75 32.3 -13.0 31.95 -15.1 31.1 -16.95 30.25 -18.8 29.1 -20.25 L27.35 -22.15 Q29.7 -25.35 30.75 -28.6 32.6 -34.25 29.2 -39.5 L29.1 -39.5 29.2 -39.5 M36.05 -30.7 Q38.85 -22.6 41.05 -17.85 43.2 -13.25 44.1 -8.3 L45.75 1.8 45.85 3.05 Q47.6 -5.05 45.45 -13.2 44.0 -18.65 41.6 -23.9 39.65 -28.15 36.4 -31.3 L35.45 -32.2 36.05 -30.7 M38.0 -14.1 Q39.35 -9.9 40.35 -4.1 40.8 -1.55 41.65 0.75 43.5 -4.75 41.5 -10.5 39.65 -15.9 36.55 -20.65 L35.1 -22.7 38.0 -14.1 M49.2 -19.8 Q51.55 -17.6 53.15 -14.05 54.7 -10.55 56.3 -5.55 L59.0 3.9 Q60.05 8.35 59.85 12.65 59.6 17.4 60.35 22.15 58.15 20.85 57.4 18.55 56.15 14.8 55.7 10.6 L54.05 14.0 Q53.05 11.75 52.8 9.3 L52.55 7.1 52.0 7.05 51.6 7.35 50.85 7.35 51.45 1.2 Q52.1 -4.0 50.95 -9.15 49.4 -15.95 46.45 -22.2 L49.2 -19.8" fill="#d1d1d1" fill-rule="evenodd" stroke="none"/>
    <path d="M48.05 -13.9 L48.65 -12.35 Q50.3 -8.1 50.05 -3.3 L49.75 5.75 Q49.65 12.55 52.85 18.4 54.8 21.95 57.4 24.9 60.65 28.55 65.2 30.2 62.15 25.2 61.85 19.3 61.6 13.7 60.65 6.05 59.65 -1.6 56.7 -8.55 53.75 -15.55 51.2 -18.8 48.65 -22.1 48.35 -24.3 L46.6 -32.45 Q45.1 -38.45 36.25 -38.9 L36.75 -39.3 Q45.15 -40.3 47.35 -34.45 49.5 -28.65 49.2 -25.9 48.9 -23.2 52.4 -18.9 55.85 -14.6 58.5 -7.05 61.1 0.45 62.0 5.9 62.9 11.3 62.9 15.0 62.9 20.6 65.8 28.3 L67.4 32.3 Q64.9 31.9 62.6 30.5 58.7 28.15 55.8 24.75 52.55 20.9 50.35 16.45 48.5 12.8 48.2 8.5 47.9 10.65 47.65 17.1 44.65 15.35 42.85 13.3 39.35 9.45 36.65 4.95 34.05 0.5 32.85 -4.6 L31.45 -8.45 29.45 -14.4 Q29.9 -15.0 31.4 -11.35 L34.85 -2.1 Q36.7 3.4 39.95 7.85 42.8 11.75 46.65 14.8 L46.7 11.4 Q47.0 8.4 47.75 5.25 48.95 0.2 48.8 -4.95 48.6 -10.55 48.05 -13.9" fill="#606060" fill-rule="evenodd" stroke="none"/>
    <path d="M29.1 -28.7 L29.15 -28.7 29.1 -28.7 M38.0 -14.1 L35.1 -22.7 36.55 -20.65 Q39.65 -15.9 41.5 -10.5 43.5 -4.75 41.65 0.75 40.8 -1.55 40.35 -4.1 39.35 -9.9 38.0 -14.1 M36.05 -30.7 L35.45 -32.2 36.4 -31.3 Q39.65 -28.15 41.6 -23.9 44.0 -18.65 45.45 -13.2 47.6 -5.05 45.85 3.05 L45.75 1.8 44.1 -8.3 Q43.2 -13.25 41.05 -17.85 38.85 -22.6 36.05 -30.7" fill="#ffffff" fill-rule="evenodd" stroke="none"/>
  </g>
</svg>
