<?xml version="1.0" encoding="UTF-8" standalone="no"?>
<svg xmlns:ffdec="https://www.free-decompiler.com/flash" xmlns:xlink="http://www.w3.org/1999/xlink" ffdec:objectType="shape" height="62.85px" width="83.3px" xmlns="http://www.w3.org/2000/svg">
  <g transform="matrix(1.0, 0.0, 0.0, 1.0, 68.65, 31.8)">
    <path d="M-1.0 -21.9 L1.1 -16.35 Q3.45 -10.05 3.85 -3.25 L4.45 -8.1 4.3 -12.35 Q4.25 -16.4 2.6 -19.9 L5.05 -18.35 Q5.75 -15.55 5.8 -12.45 5.95 -7.05 5.1 -1.75 L4.5 0.45 Q3.4 5.45 -0.55 8.8 1.8 3.15 2.2 -3.05 2.6 -9.2 0.85 -15.1 -0.45 -19.4 -3.7 -22.6 L-3.85 -23.35 -1.9 -22.4 -1.0 -21.9 M5.1 -18.35 L5.9 -17.8 7.45 -16.8 Q8.25 -12.0 8.6 -7.05 9.05 -1.5 8.05 3.95 6.95 9.8 4.4 15.1 1.9 20.2 -1.5 24.5 L1.6 18.9 Q4.25 13.65 5.85 7.95 7.35 2.5 6.75 -3.15 7.4 -7.25 6.95 -11.3 6.55 -15.05 5.1 -18.35 M9.7 -15.1 L13.5 -11.9 Q13.55 -6.9 12.7 -2.0 11.75 2.45 9.95 6.65 L5.6 16.05 Q7.9 10.9 9.15 5.35 L10.35 -1.85 Q10.85 -5.9 10.5 -9.95 L9.7 -15.1 M-49.5 -29.65 L-48.25 -30.15 Q-45.6 -31.05 -42.1 -31.45 L-42.6 -30.95 Q-46.55 -26.65 -48.8 -20.95 L-51.9 -12.7 Q-53.4 -8.35 -52.9 -3.85 -52.3 1.1 -52.1 6.1 L-52.85 6.1 -53.25 5.8 -53.8 5.85 -53.85 6.4 Q-53.95 9.65 -55.3 12.75 L-56.95 9.35 -57.55 14.4 Q-58.0 18.8 -61.6 20.9 -60.7 16.15 -60.9 11.4 L-61.0 1.75 Q-60.95 -3.1 -59.2 -8.4 L-55.75 -18.6 Q-54.1 -23.6 -51.6 -26.5 -50.45 -27.8 -49.5 -29.65 M-41.45 -31.55 L-38.4 -31.75 Q-41.15 -28.9 -42.85 -25.15 -45.25 -19.9 -46.7 -14.45 -48.85 -6.3 -47.1 1.8 L-47.0 0.55 -45.35 -9.55 Q-44.45 -14.5 -42.3 -19.1 -40.1 -23.85 -36.6 -27.9 L-33.2 -31.75 -28.4 -31.3 Q-34.1 -27.65 -37.8 -21.9 -40.9 -17.15 -42.75 -11.75 -44.75 -6.0 -42.9 -0.5 -42.05 -2.8 -41.6 -5.35 -40.6 -11.15 -38.05 -16.3 -35.9 -20.65 -32.35 -24.05 -28.45 -27.65 -23.75 -30.45 L-23.7 -30.45 -16.15 -28.4 -19.4 -26.6 Q-23.0 -24.35 -26.1 -21.55 -28.75 -19.1 -29.3 -15.65 L-28.6 -15.75 -24.5 -18.8 Q-19.8 -21.6 -15.25 -24.75 L-12.0 -26.9 -10.2 -26.2 Q-12.15 -24.75 -13.6 -22.95 L-11.0 -23.85 Q-10.15 -24.05 -9.45 -24.5 L-8.15 -25.35 -8.15 -25.3 Q-11.85 -21.6 -16.55 -19.8 -21.8 -17.95 -26.05 -14.5 -30.2 -11.1 -33.25 -6.8 L-32.7 -9.7 -30.7 -15.65 Q-27.95 -23.05 -21.15 -27.0 -28.85 -25.55 -32.35 -18.2 -33.2 -16.35 -33.55 -14.25 -34.85 -7.0 -39.4 -2.0 -39.95 3.0 -44.0 6.1 L-45.15 4.8 -45.25 5.8 Q-45.25 8.8 -47.95 10.15 -48.25 7.15 -49.0 4.0 -50.2 -1.05 -50.05 -6.2 -49.85 -11.8 -49.3 -15.15 L-48.35 -18.35 Q-47.1 -22.55 -45.05 -26.15 L-41.45 -31.55 M-57.2 0.8 Q-57.75 -2.45 -57.55 -5.75 L-58.4 -2.95 Q-59.7 1.35 -58.05 6.35 -56.65 4.05 -57.2 0.8" fill="#d1d1d1" fill-rule="evenodd" stroke="none"/>
    <path d="M5.05 -18.35 L5.1 -18.35 Q6.55 -15.05 6.95 -11.3 7.4 -7.25 6.75 -3.15 5.85 -3.5 5.45 -2.55 L5.1 -1.75 Q5.95 -7.05 5.8 -12.45 5.75 -15.55 5.05 -18.35 M13.5 -11.9 L14.65 -10.85 14.55 -9.85 14.25 -5.85 12.7 -2.0 Q13.55 -6.9 13.5 -11.9 M-53.45 -27.4 L-53.4 -27.4 Q-51.8 -28.75 -49.5 -29.65 -50.45 -27.8 -51.6 -26.5 -54.1 -23.6 -55.75 -18.6 L-59.2 -8.4 Q-60.95 -3.1 -61.0 1.75 L-60.9 11.4 Q-60.7 16.15 -61.6 20.9 -58.0 18.8 -57.55 14.4 L-56.95 9.35 -55.3 12.75 Q-53.95 9.65 -53.85 6.4 L-53.8 5.85 -53.25 5.8 -52.85 6.1 -52.1 6.1 Q-52.3 1.1 -52.9 -3.85 -53.4 -8.35 -51.9 -12.7 L-48.8 -20.95 Q-46.55 -26.65 -42.6 -30.95 L-42.1 -31.45 -41.45 -31.55 -45.05 -26.15 Q-47.1 -22.55 -48.35 -18.35 L-49.3 -15.15 -49.9 -13.6 Q-51.55 -9.35 -51.3 -4.55 L-51.0 4.5 Q-50.9 11.3 -54.1 17.15 -56.05 20.7 -58.65 23.65 -61.9 27.3 -66.45 28.95 -63.4 23.95 -63.1 18.05 -62.85 12.45 -63.15 7.25 -63.5 2.0 -62.85 -2.65 -62.25 -7.35 -60.75 -12.4 -59.25 -17.5 -56.25 -21.7 -54.4 -24.35 -53.45 -27.4 M-10.2 -26.2 L-8.15 -25.35 -9.45 -24.5 Q-10.15 -24.05 -11.0 -23.85 L-13.6 -22.95 Q-12.15 -24.75 -10.2 -26.2 M-8.15 -25.3 L-7.0 -24.8 -8.7 -23.2 Q-12.5 -19.4 -17.45 -17.15 -22.25 -15.05 -26.35 -12.0 -30.65 -8.75 -32.45 -3.7 L-33.25 -6.8 Q-30.2 -11.1 -26.05 -14.5 -21.8 -17.95 -16.55 -19.8 -11.85 -21.6 -8.15 -25.3 M-5.1 -23.95 L-3.85 -23.35 -3.7 -22.6 Q-0.45 -19.4 0.85 -15.1 2.6 -9.2 2.2 -3.05 1.8 3.15 -0.55 8.8 L-2.1 10.35 Q0.6 5.85 0.9 0.55 1.15 -4.5 0.4 -9.4 -0.3 -14.3 -2.2 -18.85 -3.35 -21.6 -5.1 -23.95 M-47.95 10.15 Q-45.25 8.8 -45.25 5.8 L-45.15 4.8 -44.0 6.1 Q-39.95 3.0 -39.4 -2.0 -34.85 -7.0 -33.55 -14.25 -33.2 -16.35 -32.35 -18.2 -28.85 -25.55 -21.15 -27.0 -27.95 -23.05 -30.7 -15.65 -31.15 -16.25 -32.65 -12.6 L-36.1 -3.35 Q-37.95 2.15 -41.2 6.6 -44.05 10.5 -47.9 13.55 L-47.95 10.15" fill="#989898" fill-rule="evenodd" stroke="none"/>
    <path d="M-1.0 -21.9 L0.6 -21.05 2.6 -19.9 Q4.25 -16.4 4.3 -12.35 L4.45 -8.1 3.85 -3.25 Q3.45 -10.05 1.1 -16.35 L-1.0 -21.9 M7.45 -16.8 L7.65 -16.65 9.7 -15.1 10.5 -9.95 Q10.85 -5.9 10.35 -1.85 L9.15 5.35 Q7.9 10.9 5.6 16.05 L4.8 17.3 Q2.3 21.5 -1.5 24.5 1.9 20.2 4.4 15.1 6.95 9.8 8.05 3.95 9.05 -1.5 8.6 -7.05 8.25 -12.0 7.45 -16.8 M-38.4 -31.75 L-37.6 -31.8 -33.2 -31.75 -36.6 -27.9 Q-40.1 -23.85 -42.3 -19.1 -44.45 -14.5 -45.35 -9.55 L-47.0 0.55 -47.1 1.8 Q-48.85 -6.3 -46.7 -14.45 -45.25 -19.9 -42.85 -25.15 -41.15 -28.9 -38.4 -31.75 M-28.4 -31.3 L-23.7 -30.45 -23.75 -30.45 Q-28.45 -27.65 -32.35 -24.05 -35.9 -20.65 -38.05 -16.3 -40.6 -11.15 -41.6 -5.35 -42.05 -2.8 -42.9 -0.5 -44.75 -6.0 -42.75 -11.75 -40.9 -17.15 -37.8 -21.9 -34.1 -27.65 -28.4 -31.3 M-16.15 -28.4 L-12.0 -26.9 -15.25 -24.75 Q-19.8 -21.6 -24.5 -18.8 L-28.6 -15.75 -29.3 -15.65 Q-28.75 -19.1 -26.1 -21.55 -23.0 -24.35 -19.4 -26.6 L-16.15 -28.4 M-57.2 0.8 Q-56.65 4.05 -58.05 6.35 -59.7 1.35 -58.4 -2.95 L-57.55 -5.75 Q-57.75 -2.45 -57.2 0.8" fill="#ffffff" fill-rule="evenodd" stroke="none"/>
    <path d="M14.25 -5.85 Q13.45 -0.15 11.6 5.2 9.7 10.55 7.5 14.75 5.25 18.9 3.2 21.15 1.1 23.3 -2.55 25.4 1.1 18.15 2.9 13.3 4.8 8.2 5.3 4.35 L5.8 0.3 Q4.45 5.0 1.45 8.6 -0.75 11.15 -3.55 13.25 L-3.85 13.25 -3.35 11.6 Q-0.45 2.55 -0.2 -2.25 0.0 -7.1 -1.0 -11.9 -2.35 -18.15 -5.85 -23.5 L-6.4 -24.35 Q-9.6 -20.55 -14.0 -18.15 L-22.85 -13.35 Q-27.5 -10.8 -31.1 -4.05 L-32.5 -1.4 -32.65 -1.45 -33.4 -3.45 -34.1 -5.85 Q-35.3 -0.75 -37.9 3.7 -40.6 8.2 -44.1 12.05 -45.9 14.1 -48.9 15.85 -49.15 9.4 -49.45 7.25 -49.75 11.55 -51.6 15.2 -53.8 19.65 -57.05 23.5 -59.95 26.9 -63.85 29.25 -66.15 30.65 -68.65 31.05 L-67.05 27.05 Q-64.15 19.35 -64.15 13.75 -64.15 10.05 -64.75 5.0 -65.35 -0.05 -63.65 -7.2 -62.0 -14.35 -58.6 -19.75 L-57.75 -21.15 -57.0 -22.5 -55.8 -24.8 -54.6 -26.3 -53.45 -27.4 Q-54.4 -24.35 -56.25 -21.7 -59.25 -17.5 -60.75 -12.4 -62.25 -7.35 -62.85 -2.65 -63.5 2.0 -63.15 7.25 -62.85 12.45 -63.1 18.05 -63.4 23.95 -66.45 28.95 -61.9 27.3 -58.65 23.65 -56.05 20.7 -54.1 17.15 -50.9 11.3 -51.0 4.5 L-51.3 -4.55 Q-51.55 -9.35 -49.9 -13.6 L-49.3 -15.15 Q-49.85 -11.8 -50.05 -6.2 -50.2 -1.05 -49.0 4.0 -48.25 7.15 -47.95 10.15 L-47.9 13.55 Q-44.05 10.5 -41.2 6.6 -37.95 2.15 -36.1 -3.35 L-32.65 -12.6 Q-31.15 -16.25 -30.7 -15.65 L-32.7 -9.7 -33.25 -6.8 -32.45 -3.7 Q-30.65 -8.75 -26.35 -12.0 -22.25 -15.05 -17.45 -17.15 -12.5 -19.4 -8.7 -23.2 L-7.0 -24.8 -5.55 -24.15 -5.1 -23.95 Q-3.35 -21.6 -2.2 -18.85 -0.3 -14.3 0.4 -9.4 1.15 -4.5 0.9 0.55 0.6 5.85 -2.1 10.35 L-0.55 8.8 Q3.4 5.45 4.5 0.45 L5.1 -1.75 5.45 -2.55 Q5.85 -3.5 6.75 -3.15 7.35 2.5 5.85 7.95 4.25 13.65 1.6 18.9 L-1.5 24.5 Q2.3 21.5 4.8 17.3 L5.6 16.05 9.95 6.65 Q11.75 2.45 12.7 -2.0 L14.25 -5.85" fill="#606060" fill-rule="evenodd" stroke="none"/>
  </g>
</svg>
