<?xml version="1.0" encoding="UTF-8" standalone="no"?>
<svg xmlns:ffdec="https://www.free-decompiler.com/flash" xmlns:xlink="http://www.w3.org/1999/xlink" ffdec:objectType="shape" height="14.65px" width="23.4px" xmlns="http://www.w3.org/2000/svg">
  <g transform="matrix(1.0, 0.0, 0.0, 1.0, 2.55, -11.05)">
    <path d="M6.2 19.95 L2.35 23.05 Q0.75 24.25 -0.2 23.4 -0.8 22.9 -0.8 21.9 L-0.85 21.85 Q-0.9 20.0 1.15 17.65 3.25 15.3 7.85 13.3 12.8 11.3 15.7 12.65 17.75 13.45 19.2 15.1 L18.25 14.75 Q15.55 14.1 12.05 16.05 8.6 17.9 6.2 19.95 M2.2 17.6 Q0.7 20.9 3.5 20.2 7.6 15.7 14.45 13.75 8.25 12.15 2.2 17.6" fill="#cccccc" fill-rule="evenodd" stroke="none"/>
    <path d="M20.45 17.65 L16.9 16.45 Q12.6 15.95 7.5 21.05 4.15 24.55 2.65 25.3 0.5 26.35 -1.45 24.65 L-2.4 23.2 -2.15 23.45 Q-0.35 24.95 1.2 24.45 L2.8 23.4 6.2 19.95 Q8.6 17.9 12.05 16.05 15.55 14.1 18.25 14.75 L19.2 15.1 Q20.65 16.3 20.45 17.65" fill="#7e7e7e" fill-rule="evenodd" stroke="none"/>
    <path d="M-2.4 23.2 Q-2.7 22.3 -2.45 20.8 L-2.45 20.65 -2.4 20.45 -1.9 19.1 -0.35 16.55 Q3.15 12.5 9.4 11.4 15.6 10.25 18.9 13.1 L19.15 13.4 Q20.35 14.4 20.7 15.65 21.1 16.85 20.45 17.65 20.65 16.3 19.2 15.1 17.75 13.45 15.7 12.65 12.8 11.3 7.85 13.3 3.25 15.3 1.15 17.65 -0.9 20.0 -0.85 21.85 L-0.8 21.9 Q-0.8 22.9 -0.2 23.4 0.75 24.25 2.35 23.05 L6.2 19.95 2.8 23.4 1.2 24.45 Q-0.35 24.95 -2.15 23.45 L-2.4 23.2" fill="#a8a8a8" fill-rule="evenodd" stroke="none"/>
    <path d="M2.2 17.6 Q8.25 12.15 14.45 13.75 7.6 15.7 3.5 20.2 0.7 20.9 2.2 17.6" fill="#e9e9e9" fill-rule="evenodd" stroke="none"/>
  </g>
</svg>
