<?xml version="1.0" encoding="UTF-8" standalone="no"?>
<svg xmlns:ffdec="https://www.free-decompiler.com/flash" xmlns:xlink="http://www.w3.org/1999/xlink" ffdec:objectType="shape" height="42.7px" width="23.35px" xmlns="http://www.w3.org/2000/svg">
  <g transform="matrix(1.0, 0.0, 0.0, 1.0, -12.1, 13.6)">
    <path d="M12.15 -11.0 L12.2 -12.2 12.8 -12.25 15.2 -12.35 17.0 -12.45 17.55 -12.5 20.4 -12.75 20.4 -11.55 12.15 -11.0 M28.7 27.75 L29.2 29.1 27.0 28.8 27.1 28.7 24.65 28.45 24.65 28.5 23.7 28.35 23.4 28.3 18.45 27.8 18.3 27.85 18.0 26.85 18.45 26.8 20.2 26.95 23.3 27.3 24.05 27.4 25.05 27.5 28.2 27.75 28.35 27.75 28.7 27.75 M22.6 -11.7 L22.6 -13.0 27.05 -13.6 27.0 -12.05 23.1 -11.7 22.6 -11.7 M35.0 26.05 L35.45 27.1 33.6 27.8 32.3 28.2 31.95 27.2 32.9 26.9 33.95 26.5 35.0 26.05" fill="#464646" fill-rule="evenodd" stroke="none"/>
    <path d="M20.4 -11.55 L20.4 -9.3 12.1 -8.25 12.1 -10.5 12.15 -11.0 20.4 -11.55 M20.4 -3.15 L20.4 -2.2 19.95 -2.2 19.9 -3.15 20.4 -3.15 M28.25 26.45 L28.7 27.75 28.35 27.75 28.2 27.75 25.05 27.5 24.05 27.4 23.3 27.3 20.2 26.95 18.45 26.8 18.0 26.85 17.7 25.65 20.9 25.45 21.1 25.45 22.6 25.6 24.6 25.85 25.6 26.05 25.8 26.05 26.0 26.1 27.2 26.3 28.25 26.45 M13.1 -2.6 L14.6 -2.8 16.2 -2.6 Q16.8 -2.45 16.8 -2.2 L16.2 -1.8 14.6 -1.65 13.1 -1.8 12.5 -2.2 Q12.45 -2.45 13.1 -2.6 M27.0 -12.05 L26.6 -1.3 26.55 -2.0 26.0 -9.5 26.0 -9.6 26.0 -9.7 25.95 -9.85 25.9 -9.95 24.8 -9.85 22.6 -9.6 22.6 -11.7 23.1 -11.7 27.0 -12.05 M27.05 4.15 Q28.55 10.25 34.3 24.25 L35.0 26.05 33.95 26.5 32.9 26.9 31.95 27.2 31.65 26.4 32.15 26.25 32.6 26.1 32.75 26.05 32.85 25.95 32.2 24.35 30.8 20.4 30.05 17.7 28.55 11.8 28.1 9.75 27.05 4.15 M23.15 -2.2 L23.15 -2.5 23.0 -3.15 23.75 -3.15 23.75 -2.2 23.15 -2.2" fill="#8a8a8a" fill-rule="evenodd" stroke="none"/>
    <path d="M20.4 -6.8 L20.4 -3.15 19.9 -3.15 19.95 -2.2 20.4 -2.2 20.4 -0.05 Q20.4 0.95 20.9 3.15 L16.6 4.6 18.15 10.25 18.75 12.35 19.5 14.7 19.85 15.9 20.25 17.25 21.2 20.3 21.6 21.55 26.45 23.0 26.5 23.0 25.1 17.35 27.6 24.55 20.45 23.75 18.35 22.2 18.15 22.45 17.1 23.55 16.6 21.75 17.85 19.95 16.9 16.2 16.55 14.6 16.3 13.45 15.9 11.7 15.75 11.1 15.15 8.25 14.2 3.8 13.95 3.8 13.9 3.85 13.85 3.85 Q13.5 4.05 13.3 4.95 L12.75 2.0 Q12.3 -1.15 12.15 -6.0 L13.3 -6.3 19.85 -6.85 20.4 -6.8 M13.1 -2.6 Q12.45 -2.45 12.5 -2.2 L13.1 -1.8 14.6 -1.65 16.2 -1.8 16.8 -2.2 Q16.8 -2.45 16.2 -2.6 L14.6 -2.8 13.1 -2.6 M28.35 17.95 L26.55 13.15 Q24.8 8.35 24.05 4.95 23.7 4.05 23.45 2.4 L23.2 -1.3 23.15 -2.2 23.75 -2.2 23.75 -3.15 23.0 -3.15 22.8 -6.0 23.45 -5.25 23.6 -4.85 23.75 -4.6 24.2 0.8 24.2 0.95 26.15 8.75 26.75 11.35 27.8 15.6 28.35 17.95" fill="#e0e0e0" fill-rule="evenodd" stroke="none"/>
    <path d="M20.4 -9.3 L20.4 -8.85 20.4 -6.8 19.85 -6.85 13.3 -6.3 12.15 -6.0 12.1 -8.25 20.4 -9.3 M27.6 24.55 L28.25 26.4 28.25 26.45 27.2 26.3 26.0 26.1 25.8 26.05 25.6 26.05 24.6 25.85 22.6 25.6 21.1 25.45 20.9 25.45 17.7 25.65 17.1 23.6 17.1 23.55 18.15 22.45 18.35 22.2 20.45 23.75 27.6 24.55 M26.6 -1.3 L26.5 0.75 Q26.5 1.95 27.05 4.15 L28.1 9.75 28.55 11.8 30.05 17.7 30.8 20.4 32.2 24.35 32.85 25.95 32.75 26.05 32.6 26.1 32.15 26.25 31.65 26.4 31.0 24.6 28.35 17.95 27.8 15.6 26.75 11.35 26.15 8.75 24.2 0.95 24.2 0.8 23.75 -4.6 23.6 -4.85 23.45 -5.25 22.8 -6.0 22.7 -6.55 22.6 -9.6 24.8 -9.85 25.9 -9.95 25.95 -9.85 26.0 -9.7 26.0 -9.6 26.0 -9.5 26.55 -2.0 26.6 -1.3" fill="#b4b4b4" fill-rule="evenodd" stroke="none"/>
    <path d="M27.8 0.65 L28.25 0.55 27.95 0.65 27.8 0.65" fill="#919191" fill-rule="evenodd" stroke="none"/>
    <path d="M20.9 3.15 Q21.75 6.9 24.1 14.1 L25.1 17.35 26.5 23.0 26.45 23.0 21.6 21.55 21.2 20.3 20.25 17.25 19.85 15.9 19.5 14.7 18.75 12.35 18.15 10.25 16.6 4.6 20.9 3.15 M16.6 21.75 Q15.75 18.75 15.4 16.75 L13.3 4.95 Q13.5 4.05 13.85 3.85 L13.9 3.85 13.95 3.8 14.2 3.8 15.15 8.25 15.75 11.1 15.9 11.7 16.3 13.45 16.55 14.6 16.9 16.2 17.85 19.95 16.6 21.75" fill="#ffffff" fill-rule="evenodd" stroke="none"/>
  </g>
</svg>
