<?xml version="1.0" encoding="UTF-8" standalone="no"?>
<svg xmlns:ffdec="https://www.free-decompiler.com/flash" xmlns:xlink="http://www.w3.org/1999/xlink" ffdec:objectType="shape" height="115.1px" width="74.75px" xmlns="http://www.w3.org/2000/svg">
  <g transform="matrix(1.0, 0.0, 0.0, 1.0, 33.8, 125.0)">
    <path d="M11.55 -123.45 L13.0 -123.35 13.65 -121.5 12.7 -121.5 12.25 -121.5 11.85 -122.55 11.55 -123.45 M14.25 -115.05 L15.4 -115.85 17.6 -107.85 18.55 -104.15 17.55 -103.4 14.25 -115.05 M19.25 -97.0 L20.3 -97.15 20.35 -96.95 21.3 -92.75 21.8 -90.35 22.35 -88.55 21.45 -88.5 20.35 -92.75 19.25 -96.95 19.25 -97.0 M-18.7 -80.35 L-20.35 -80.0 -20.0 -81.65 -17.85 -91.65 -17.6 -92.75 -16.7 -96.95 -16.05 -99.95 -14.75 -100.2 -15.3 -96.95 -16.1 -92.75 -16.3 -91.65 -17.8 -84.5 -18.4 -81.65 -18.7 -80.35 M-14.65 -100.8 L-15.85 -101.05 -13.8 -111.05 -13.0 -110.35 -14.0 -104.75 -14.65 -100.8 M-12.05 -115.6 L-12.55 -116.8 -12.6 -117.35 -12.25 -119.2 -10.9 -121.05 -11.05 -120.55 -12.05 -115.6 M-6.5 -123.45 L-5.2 -123.65 -5.15 -123.65 -4.75 -123.15 Q-4.3 -122.85 -3.65 -122.8 L-2.35 -122.95 Q-1.5 -123.2 -0.7 -123.6 L1.0 -123.2 Q-0.45 -122.2 -2.0 -121.75 L-2.45 -121.65 -4.15 -121.55 Q-4.95 -121.65 -5.5 -122.15 L-5.8 -122.4 -6.5 -123.45 M25.05 -74.9 L25.95 -75.35 26.2 -75.5 27.05 -72.65 25.85 -71.95 25.05 -74.9 M23.4 -81.05 L22.7 -83.6 23.9 -83.35 24.7 -80.7 23.4 -81.05 M27.45 -65.9 L28.95 -65.75 31.85 -54.85 30.2 -54.9 27.45 -65.9 M30.25 -54.8 L31.1 -54.85 31.85 -54.85 34.2 -45.35 32.7 -44.95 30.25 -54.8 M22.45 -12.3 L22.9 -10.6 8.7 -9.9 8.05 -11.5 8.95 -11.5 20.35 -12.05 22.45 -12.3 M34.6 -37.15 L35.95 -38.15 37.25 -32.35 38.35 -27.4 37.2 -26.35 34.6 -37.15 M38.75 -19.05 L40.1 -18.9 40.95 -14.45 39.55 -14.45 28.9 -11.65 Q28.0 -12.25 27.25 -13.0 35.25 -14.2 37.45 -15.1 38.8 -15.6 39.0 -16.3 L38.95 -17.7 38.75 -19.05 M-24.9 -51.55 L-25.95 -51.15 -26.75 -50.75 -26.3 -52.75 -24.4 -53.75 -24.9 -51.55 M-16.15 -13.4 L-20.05 -13.15 Q-26.9 -13.15 -32.3 -15.75 L-32.55 -15.95 -33.8 -16.85 -32.65 -23.8 -31.85 -27.35 -30.2 -26.25 -31.95 -17.9 Q-31.95 -16.55 -28.35 -15.65 L-16.15 -13.4 M-29.6 -29.05 Q-30.45 -31.0 -30.55 -33.45 L-29.1 -39.95 -29.0 -40.15 Q-28.1 -41.55 -26.8 -42.55 L-29.6 -29.05 M-19.3 -77.55 L-19.75 -75.55 -21.3 -75.55 -21.2 -76.15 -20.9 -77.45 -19.3 -77.55 M-22.6 -62.35 L-24.2 -62.45 -23.05 -67.75 -22.3 -71.05 -20.75 -70.85 -21.45 -67.75 -22.6 -62.35" fill="#464646" fill-rule="evenodd" stroke="none"/>
    <path d="M7.8 -95.9 L7.05 -95.35 6.7 -95.2 7.6 -95.3 7.4 -94.75 7.55 -94.35 Q7.7 -93.85 8.0 -93.5 L11.05 -95.8 12.4 -96.0 Q12.7 -94.35 12.6 -92.75 12.4 -89.95 11.15 -87.2 L4.85 -86.05 Q4.5 -87.4 3.45 -87.5 1.45 -87.2 0.5 -87.5 L2.95 -92.75 4.85 -96.95 5.5 -98.7 5.35 -99.35 Q5.15 -99.75 4.5 -99.75 -0.1 -99.75 -3.1 -96.95 -4.85 -95.3 -6.05 -92.75 L-6.5 -91.65 -7.35 -89.15 Q-8.05 -86.65 -8.3 -82.9 L-10.8 -82.3 -10.7 -82.9 Q-9.85 -88.9 -9.75 -91.65 L-9.75 -91.85 -9.7 -92.75 -9.35 -96.95 -9.25 -97.45 Q-8.65 -100.5 -7.1 -101.2 L-4.55 -101.6 -1.65 -102.0 Q-1.4 -101.7 -1.4 -102.7 L-4.35 -103.65 Q-7.35 -104.35 -7.35 -105.1 L-7.1 -108.8 -6.0 -108.8 Q-4.9 -109.65 -4.15 -110.25 L-3.25 -107.75 Q-2.0 -105.45 -0.2 -105.45 1.6 -105.45 2.85 -107.75 4.1 -110.1 4.1 -113.4 4.1 -116.7 2.85 -119.0 2.15 -120.3 1.3 -120.85 L3.05 -122.15 Q4.5 -121.15 5.2 -119.45 5.8 -118.05 5.8 -114.45 5.8 -111.05 4.25 -107.75 L5.65 -108.75 7.6 -110.15 7.55 -110.05 Q6.7 -106.35 5.6 -103.6 L5.75 -103.1 6.6 -102.9 8.45 -103.65 10.0 -104.5 10.1 -102.75 Q10.1 -102.1 8.8 -98.55 L8.2 -96.95 7.8 -95.9 M-4.45 -112.7 L-5.85 -112.65 -6.5 -112.65 -5.2 -118.05 -4.9 -119.0 -4.0 -118.95 -3.25 -119.0 Q-4.5 -116.7 -4.5 -113.4 L-4.45 -112.7 M1.0 -123.2 L2.45 -122.55 1.7 -121.95 -2.85 -120.0 -3.45 -119.95 -3.55 -119.95 -4.05 -119.95 -4.65 -120.0 -4.15 -121.55 -2.45 -121.65 -2.0 -121.75 Q-0.45 -122.2 1.0 -123.2 M13.75 -71.1 L11.15 -71.85 Q11.85 -72.35 14.5 -72.45 L13.75 -71.1 M8.5 -83.05 L4.3 -78.35 -0.5 -76.75 3.0 -81.45 4.5 -82.15 6.95 -82.65 8.5 -83.05 M10.6 -67.5 L8.25 -65.6 Q8.65 -65.4 8.55 -64.8 L12.6 -64.35 15.55 -65.3 19.45 -66.6 19.75 -66.6 19.0 -62.0 19.8 -55.7 15.5 -56.15 15.5 -56.65 Q15.5 -58.45 15.05 -59.15 14.6 -59.8 13.5 -59.8 L5.8 -57.25 -1.95 -58.6 Q-5.9 -59.75 -12.6 -60.95 L-14.4 -61.25 -14.35 -62.0 -13.7 -61.7 -13.0 -61.4 Q-11.5 -61.3 -10.7 -64.0 -9.15 -65.15 -6.8 -67.55 L-6.6 -67.75 -5.25 -69.2 -1.7 -68.8 -2.5 -68.25 -3.15 -67.75 Q-13.35 -60.0 -4.65 -60.0 4.0 -60.0 6.25 -61.8 5.55 -62.45 3.75 -62.55 L-2.7 -62.6 5.05 -67.75 5.5 -68.05 10.6 -67.5 M25.5 -42.5 L25.3 -42.45 23.55 -41.4 22.25 -40.5 20.6 -38.95 19.15 -37.35 17.6 -35.05 16.1 -36.5 9.75 -40.75 Q12.25 -45.3 17.15 -49.25 L19.75 -51.1 Q18.85 -49.95 16.55 -48.15 12.75 -45.15 12.5 -44.5 L12.85 -44.15 Q15.0 -42.0 18.95 -42.0 L24.75 -42.75 25.5 -42.5 M15.9 -30.8 L15.6 -28.3 13.05 -28.9 6.7 -30.45 6.85 -32.05 7.1 -33.3 Q13.1 -31.3 15.9 -30.8 M17.6 -21.0 L19.35 -18.35 21.0 -15.65 10.8 -15.1 Q9.3 -15.1 7.95 -16.3 L6.8 -17.35 6.7 -18.2 6.55 -21.95 Q9.3 -20.35 11.65 -20.15 14.1 -19.9 17.6 -21.0 M24.15 -17.45 Q23.55 -19.0 23.55 -20.7 23.55 -22.25 23.9 -23.7 L24.5 -24.05 24.2 -24.8 Q24.6 -26.1 25.3 -27.35 26.75 -26.5 26.75 -25.3 26.75 -19.95 24.15 -17.45 M9.1 -47.55 L9.15 -47.25 9.05 -46.65 8.8 -46.45 Q9.0 -46.2 8.25 -46.2 L7.75 -46.4 9.1 -47.55 M-7.25 -53.05 L-12.15 -53.25 -15.5 -53.15 -15.45 -53.9 -15.35 -55.4 -14.7 -55.55 -13.65 -55.75 -12.15 -55.6 -3.2 -54.45 -4.5 -54.1 -7.25 -53.05 M2.9 -24.65 L2.85 -24.6 2.1 -22.95 1.5 -25.2 1.6 -25.75 2.9 -24.65 M-2.3 -19.3 L-7.45 -16.2 -7.8 -16.5 Q-7.4 -17.75 -9.0 -18.15 L-9.95 -17.15 Q-10.5 -16.6 -11.35 -16.6 L-19.7 -18.0 Q-19.6 -18.6 -19.65 -21.75 L-17.75 -21.6 -16.85 -21.65 -16.05 -20.5 Q-14.85 -19.3 -13.15 -19.3 -11.45 -19.3 -10.25 -20.5 -9.05 -21.7 -9.05 -23.4 -9.05 -24.05 -9.2 -24.6 -5.9 -26.55 -5.9 -28.05 -5.9 -28.95 -6.2 -29.85 -4.15 -29.9 -3.0 -31.2 -4.0 -32.4 -8.2 -33.65 L-10.75 -34.3 -13.65 -35.05 -16.55 -35.8 -16.2 -44.15 -16.15 -44.55 -13.05 -44.3 -13.05 -44.15 -13.1 -42.45 -13.0 -38.75 -12.25 -38.8 -11.1 -39.0 Q-8.8 -39.0 2.15 -35.05 2.8 -33.35 3.05 -31.3 1.65 -31.0 -2.15 -28.25 L-6.25 -25.05 Q-6.25 -19.9 -2.3 -19.3 M-17.9 -30.55 L-17.6 -30.15 -16.85 -29.35 Q-16.5 -28.65 -16.5 -28.15 -16.5 -27.1 -17.65 -26.05 -18.5 -25.3 -19.75 -24.9 L-19.75 -25.5 -19.15 -30.75 -17.9 -30.55 M-11.5 -77.85 L-8.55 -78.1 -8.6 -75.7 -8.6 -75.4 -11.45 -75.3 -11.45 -75.35 -11.65 -76.8 -11.5 -77.85 M-10.2 -69.75 L-8.35 -69.55 -10.1 -68.95 -10.2 -69.75" fill="#e0e0e0" fill-rule="evenodd" stroke="none"/>
    <path d="M8.2 -124.45 L8.6 -124.1 Q9.55 -123.6 11.55 -123.45 L11.85 -122.55 12.25 -121.5 Q10.15 -121.55 8.95 -122.15 L8.2 -124.45 M11.05 -112.8 L11.65 -113.25 14.25 -115.05 17.55 -103.4 14.5 -101.1 13.15 -100.05 11.75 -108.9 11.05 -112.8 M13.7 -96.2 L15.45 -96.45 19.25 -97.0 19.25 -96.95 20.35 -92.75 21.45 -88.5 14.85 -87.75 14.2 -92.75 13.7 -96.2 M-14.5 -81.35 L-18.4 -80.45 -18.7 -80.35 -18.4 -81.65 -17.8 -84.5 -16.3 -91.65 -16.1 -92.75 -15.3 -96.95 -14.75 -100.2 -12.7 -100.75 -13.25 -100.75 -14.65 -100.8 -14.0 -104.75 -13.0 -110.35 -10.3 -108.8 -10.15 -108.8 -11.3 -103.0 -11.9 -98.9 -12.2 -96.95 -12.85 -92.75 -13.0 -91.65 -14.45 -81.65 -14.5 -81.35 M-9.05 -113.1 Q-10.8 -113.75 -11.75 -115.1 L-12.05 -115.6 -11.05 -120.55 -10.9 -121.05 -10.85 -121.15 Q-9.2 -122.85 -6.5 -123.45 L-5.8 -122.4 -6.45 -120.9 Q-5.7 -120.15 -4.65 -120.0 L-4.05 -119.95 -3.55 -119.95 -3.45 -119.95 -2.85 -120.0 1.7 -121.95 2.45 -122.55 3.05 -122.15 1.3 -120.85 Q-1.15 -119.25 -3.25 -119.0 L-4.0 -118.95 -4.9 -119.0 Q-6.05 -119.2 -6.9 -119.8 -8.1 -116.85 -9.05 -113.1 M25.85 -71.95 Q24.3 -71.2 22.5 -70.8 L22.4 -71.1 21.7 -70.65 19.7 -70.4 19.65 -70.85 20.3 -72.4 20.5 -73.1 21.7 -73.5 25.05 -74.9 25.85 -71.95 M22.7 -83.6 L23.4 -81.05 20.35 -81.45 19.15 -83.95 22.7 -83.6 M30.2 -54.9 L26.95 -55.1 25.35 -60.85 23.8 -66.2 27.45 -65.9 30.2 -54.9 M27.15 -54.35 L30.25 -54.8 32.7 -44.95 30.55 -44.25 29.3 -43.85 29.2 -44.15 29.0 -44.9 25.25 -44.75 24.5 -45.45 Q25.35 -46.85 26.9 -47.7 L28.25 -48.6 Q28.25 -50.05 27.15 -54.35 M22.15 -13.15 L22.45 -12.3 20.35 -12.05 22.15 -13.15 M37.2 -26.35 L37.0 -26.15 Q34.95 -23.9 34.95 -21.1 34.95 -19.95 37.3 -19.35 L38.75 -19.05 38.95 -17.7 39.0 -16.3 Q38.8 -15.6 37.45 -15.1 35.25 -14.2 27.25 -13.0 L26.95 -13.3 25.6 -14.85 Q28.85 -16.3 29.5 -16.7 32.9 -18.7 32.9 -24.35 32.9 -27.7 32.3 -30.95 L31.55 -34.7 32.1 -35.2 34.6 -37.15 37.2 -26.35 M-19.95 -52.75 L-24.9 -51.55 -24.4 -53.75 Q-21.75 -55.05 -19.0 -55.5 L-19.15 -55.15 -19.95 -52.75 M-13.8 -13.85 L-16.15 -13.4 -28.35 -15.65 Q-31.95 -16.55 -31.95 -17.9 L-30.2 -26.25 -29.3 -25.75 Q-27.4 -24.6 -25.65 -23.75 L-25.85 -18.6 Q-25.85 -17.0 -18.5 -15.1 L-13.8 -13.85 M-20.85 -34.35 L-21.9 -34.15 -21.45 -33.7 -21.8 -33.5 -23.5 -31.8 Q-24.95 -29.6 -25.5 -25.1 -27.8 -25.9 -29.1 -28.05 L-29.6 -29.05 -26.8 -42.55 Q-24.65 -44.1 -21.4 -44.5 L-21.45 -44.15 -22.1 -40.25 -20.85 -34.35 M-19.75 -75.55 L-19.3 -77.55 -15.3 -77.7 -15.05 -77.7 -15.45 -75.4 -16.4 -75.45 -19.75 -75.55 M-20.75 -70.85 L-16.3 -70.4 -16.85 -67.75 Q-17.65 -64.15 -18.45 -61.95 L-18.4 -61.85 -22.6 -62.35 -21.45 -67.75 -20.75 -70.85" fill="#8a8a8a" fill-rule="evenodd" stroke="none"/>
    <path d="M8.95 -122.15 Q8.15 -122.55 7.7 -123.1 7.3 -123.6 7.2 -124.25 L7.05 -125.0 Q7.6 -124.9 8.2 -124.45 L8.95 -122.15 M13.15 -100.05 L7.8 -95.9 8.2 -96.95 8.8 -98.55 Q10.1 -102.1 10.1 -102.75 L10.0 -104.5 8.45 -103.65 6.6 -102.9 5.75 -103.1 5.6 -103.6 Q6.7 -106.35 7.55 -110.05 L7.6 -110.15 11.05 -112.8 11.75 -108.9 13.15 -100.05 M7.6 -95.3 L11.05 -95.8 8.0 -93.5 Q7.7 -93.85 7.55 -94.35 L7.4 -94.75 7.6 -95.3 M12.4 -96.0 L13.7 -96.2 14.2 -92.75 14.85 -87.75 11.15 -87.2 Q12.4 -89.95 12.6 -92.75 12.7 -94.35 12.4 -96.0 M-10.8 -82.3 L-14.5 -81.35 -14.45 -81.65 -13.0 -91.65 -12.85 -92.75 -12.2 -96.95 -11.9 -98.9 -11.3 -103.0 -10.15 -108.8 -7.1 -108.8 -7.35 -105.1 Q-7.35 -104.35 -4.35 -103.65 L-1.4 -102.7 Q-1.4 -101.7 -1.65 -102.0 L-4.55 -101.6 -7.1 -101.2 Q-8.65 -100.5 -9.25 -97.45 L-9.35 -96.95 -9.7 -92.75 -9.75 -91.85 -9.75 -91.65 Q-9.85 -88.9 -10.7 -82.9 L-10.8 -82.3 M-6.5 -112.65 L-9.05 -113.1 Q-8.1 -116.85 -6.9 -119.8 -6.05 -119.2 -4.9 -119.0 L-5.2 -118.05 -6.5 -112.65 M22.5 -70.8 L21.7 -70.65 22.4 -71.1 22.5 -70.8 M19.7 -70.4 L17.95 -70.35 Q16.9 -70.35 14.0 -71.05 L13.75 -71.1 14.5 -72.45 15.55 -72.5 20.5 -73.1 20.3 -72.4 19.65 -70.85 19.7 -70.4 M19.15 -83.95 L20.35 -81.45 14.9 -81.7 8.15 -80.95 Q7.75 -79.7 4.3 -78.35 L8.5 -83.05 Q13.95 -84.5 17.2 -84.0 L19.15 -83.95 M19.45 -66.6 L15.55 -65.3 12.6 -64.35 8.55 -64.8 Q8.65 -65.4 8.25 -65.6 L10.6 -67.5 19.45 -66.6 M-5.25 -69.2 L-6.6 -67.75 -6.8 -67.55 Q-9.15 -65.15 -10.7 -64.0 -11.5 -61.3 -13.0 -61.4 L-13.7 -61.7 -14.35 -62.0 -14.4 -61.25 -18.4 -61.85 -18.45 -61.95 Q-17.65 -64.15 -16.85 -67.75 L-16.3 -70.4 -10.2 -69.75 -10.1 -68.95 -8.35 -69.55 -5.25 -69.2 M19.8 -55.7 L19.0 -62.0 19.75 -66.6 23.8 -66.2 25.35 -60.85 26.95 -55.1 19.8 -55.7 M29.3 -43.85 L25.5 -42.5 24.75 -42.75 18.95 -42.0 Q15.0 -42.0 12.85 -44.15 L12.5 -44.5 Q12.75 -45.15 16.55 -48.15 18.85 -49.95 19.75 -51.1 23.35 -53.5 27.15 -54.35 28.25 -50.05 28.25 -48.6 L26.9 -47.7 Q25.35 -46.85 24.5 -45.45 L25.25 -44.75 29.0 -44.9 29.2 -44.15 29.3 -43.85 M23.55 -41.4 L22.0 -40.2 20.6 -38.95 22.25 -40.5 23.55 -41.4 M21.0 -15.65 L22.15 -13.15 20.35 -12.05 8.95 -11.5 8.05 -11.5 7.7 -12.6 Q7.05 -14.75 6.8 -17.35 L7.95 -16.3 Q9.3 -15.1 10.8 -15.1 L21.0 -15.65 M25.6 -14.85 Q24.65 -16.1 24.15 -17.45 26.75 -19.95 26.75 -25.3 26.75 -26.5 25.3 -27.35 27.25 -31.15 31.55 -34.7 L32.3 -30.95 Q32.9 -27.7 32.9 -24.35 32.9 -18.7 29.5 -16.7 28.85 -16.3 25.6 -14.85 M-15.5 -53.15 L-19.95 -52.75 -19.15 -55.15 -19.0 -55.5 -13.65 -55.75 -14.7 -55.55 -15.35 -55.4 -15.45 -53.9 -15.5 -53.15 M-7.45 -16.2 L-7.8 -16.05 Q-10.8 -14.6 -13.8 -13.85 L-18.5 -15.1 Q-25.85 -17.0 -25.85 -18.6 L-25.65 -23.75 Q-22.3 -22.2 -19.65 -21.75 -19.6 -18.6 -19.7 -18.0 L-11.35 -16.6 Q-10.5 -16.6 -9.95 -17.15 L-9.0 -18.15 Q-7.4 -17.75 -7.8 -16.5 L-7.45 -16.2 M-6.2 -29.85 Q-6.65 -31.1 -7.75 -32.25 -8.95 -33.6 -10.75 -34.3 L-8.2 -33.65 Q-4.0 -32.4 -3.0 -31.2 -4.15 -29.9 -6.2 -29.85 M-13.65 -35.05 L-15.7 -35.2 -19.05 -34.7 -20.85 -34.35 -22.1 -40.25 -21.45 -44.15 -21.4 -44.5 -18.95 -44.65 -16.15 -44.55 -16.2 -44.15 -16.55 -35.8 -13.65 -35.05 M-21.45 -33.7 L-18.8 -31.5 -17.9 -30.55 -19.15 -30.75 -19.75 -25.5 -19.75 -24.9 -22.35 -24.6 -25.5 -25.1 Q-24.95 -29.6 -23.5 -31.8 L-21.8 -33.5 -21.45 -33.7 M-4.15 -121.55 L-4.65 -120.0 Q-5.7 -120.15 -6.45 -120.9 L-5.8 -122.4 -5.5 -122.15 Q-4.95 -121.65 -4.15 -121.55 M-15.45 -75.4 L-15.05 -77.7 -11.5 -77.85 -11.65 -76.8 -11.45 -75.35 -11.45 -75.3 -15.45 -75.4" fill="#b4b4b4" fill-rule="evenodd" stroke="none"/>
    <path d="M4.85 -86.05 L-3.35 -84.2 -8.3 -82.9 Q-8.05 -86.65 -7.35 -89.15 L-6.5 -91.65 -6.05 -92.75 Q-4.85 -95.3 -3.1 -96.95 -0.1 -99.75 4.5 -99.75 5.15 -99.75 5.35 -99.35 L5.5 -98.7 4.85 -96.95 2.95 -92.75 0.5 -87.5 Q1.45 -87.2 3.45 -87.5 4.5 -87.4 4.85 -86.05 M-4.15 -110.25 L-3.35 -110.95 Q-1.9 -112.35 -1.8 -113.4 L-1.75 -113.6 Q-2.45 -113.05 -3.0 -112.9 L-4.45 -112.7 -4.5 -113.4 Q-4.5 -116.7 -3.25 -119.0 -1.15 -119.25 1.3 -120.85 2.15 -120.3 2.85 -119.0 4.1 -116.7 4.1 -113.4 4.1 -110.1 2.85 -107.75 1.6 -105.45 -0.2 -105.45 -2.0 -105.45 -3.25 -107.75 L-4.15 -110.25 M3.0 -81.45 L-0.5 -76.75 -2.3 -76.3 Q-4.9 -75.6 -8.6 -75.4 L-8.6 -75.7 -8.55 -78.1 Q-3.85 -78.6 -1.15 -79.6 0.05 -80.35 2.45 -81.2 L3.0 -81.45 M5.5 -68.05 L5.05 -67.75 -2.7 -62.6 3.75 -62.55 Q5.55 -62.45 6.25 -61.8 4.0 -60.0 -4.65 -60.0 -13.35 -60.0 -3.15 -67.75 L-2.5 -68.25 -1.7 -68.8 1.35 -68.5 5.5 -68.05 M5.8 -57.25 L13.5 -59.8 Q14.6 -59.8 15.05 -59.15 15.5 -58.45 15.5 -56.65 L15.5 -56.15 14.05 -56.3 5.8 -57.25 M17.6 -35.05 Q16.7 -33.5 16.2 -31.95 L15.9 -30.8 Q13.1 -31.3 7.1 -33.3 7.8 -37.15 9.7 -40.65 L9.75 -40.75 16.1 -36.5 17.6 -35.05 M15.6 -28.3 L15.5 -26.45 Q15.5 -24.65 16.7 -22.45 L17.6 -21.0 Q14.1 -19.9 11.65 -20.15 9.3 -20.35 6.55 -21.95 L6.55 -23.6 Q6.55 -27.9 6.7 -30.45 L13.05 -28.9 15.6 -28.3 M23.9 -23.7 L24.2 -24.8 24.5 -24.05 23.9 -23.7 M-3.2 -54.45 L-1.9 -53.9 -0.6 -52.65 Q0.4 -51.8 2.4 -51.15 6.3 -49.95 7.6 -49.2 8.9 -48.45 9.1 -47.55 L7.75 -46.4 0.35 -49.6 -1.65 -50.9 -2.9 -52.1 Q-4.05 -52.8 -7.25 -53.05 L-4.5 -54.1 -3.2 -54.45 M3.05 -31.3 L3.15 -29.3 2.9 -24.65 1.6 -25.75 1.5 -25.2 2.1 -22.95 Q1.05 -21.4 -1.15 -20.1 L-2.3 -19.3 Q-6.25 -19.9 -6.25 -25.05 L-2.15 -28.25 Q1.65 -31.0 3.05 -31.3 M-16.85 -21.65 Q-14.3 -21.95 -10.55 -23.9 L-9.2 -24.6 Q-9.05 -24.05 -9.05 -23.4 -9.05 -21.7 -10.25 -20.5 -11.45 -19.3 -13.15 -19.3 -14.85 -19.3 -16.05 -20.5 L-16.85 -21.65 M-13.05 -44.3 Q-3.6 -43.15 0.45 -37.95 1.5 -36.65 2.15 -35.05 -8.8 -39.0 -11.1 -39.0 L-12.25 -38.8 -13.0 -38.75 -13.1 -42.45 -13.05 -44.15 -13.05 -44.3" fill="#ffffff" fill-rule="evenodd" stroke="none"/>
  </g>
</svg>
