<?xml version="1.0" encoding="UTF-8" standalone="no"?>
<svg xmlns:ffdec="https://www.free-decompiler.com/flash" xmlns:xlink="http://www.w3.org/1999/xlink" ffdec:objectType="shape" height="91.95px" width="38.55px" xmlns="http://www.w3.org/2000/svg">
  <g transform="matrix(1.0, 0.0, 0.0, 1.0, 30.85, 108.0)">
    <path d="M0.55 -105.4 Q0.1 -104.95 -0.5 -104.95 -1.15 -104.95 -1.6 -105.4 L-1.85 -105.75 -2.05 -106.45 Q-2.05 -107.1 -1.6 -107.55 L-1.35 -107.75 -0.5 -108.0 Q0.1 -108.0 0.55 -107.55 1.0 -107.1 1.0 -106.45 1.0 -105.85 0.55 -105.4 M6.2 -86.0 Q6.8 -86.0 7.25 -85.55 7.7 -85.1 7.7 -84.45 7.7 -83.85 7.25 -83.4 6.8 -82.95 6.2 -82.95 5.55 -82.95 5.1 -83.4 4.65 -83.85 4.65 -84.45 4.65 -85.1 5.1 -85.55 5.55 -86.0 6.2 -86.0 M0.55 -18.4 Q1.0 -18.0 1.0 -17.4 1.0 -16.85 0.55 -16.45 L0.35 -16.3 -0.5 -16.05 Q-1.15 -16.05 -1.6 -16.45 -2.05 -16.85 -2.05 -17.4 -2.05 -18.0 -1.6 -18.4 L-0.5 -18.8 0.25 -18.6 0.55 -18.4 M-7.75 -80.95 Q-8.2 -81.4 -8.2 -82.0 -8.2 -82.65 -7.75 -83.1 -7.3 -83.55 -6.65 -83.55 -6.05 -83.55 -5.6 -83.1 L-5.4 -82.85 Q-5.15 -82.5 -5.15 -82.0 -5.15 -81.4 -5.6 -80.95 L-6.0 -80.65 -6.65 -80.5 -6.8 -80.5 Q-7.35 -80.55 -7.75 -80.95 M-29.05 -89.5 L-28.8 -89.05 Q-28.6 -88.55 -28.75 -87.95 -28.85 -87.35 -29.25 -86.95 -29.6 -86.7 -29.95 -86.7 L-30.05 -86.7 -30.7 -87.3 -30.8 -88.4 -30.25 -89.4 -29.4 -89.65 -29.05 -89.5 M-3.9 -59.1 Q-3.3 -59.1 -2.85 -58.65 -2.4 -58.2 -2.4 -57.55 L-2.4 -57.45 Q-2.45 -56.9 -2.85 -56.5 L-3.15 -56.25 -3.9 -56.05 -4.5 -56.15 Q-4.75 -56.25 -5.0 -56.5 -5.45 -56.95 -5.45 -57.55 -5.45 -58.2 -5.0 -58.65 L-4.3 -59.05 -3.9 -59.1 M-2.1 -37.85 Q-1.65 -37.45 -1.65 -36.85 -1.65 -36.3 -2.1 -35.9 L-2.2 -35.8 Q-2.65 -35.5 -3.15 -35.5 L-3.6 -35.55 -4.25 -35.9 Q-4.7 -36.3 -4.7 -36.85 -4.7 -37.45 -4.25 -37.85 L-3.85 -38.1 -3.15 -38.25 -2.35 -38.05 -2.1 -37.85" fill="#ffffff" fill-rule="evenodd" stroke="none"/>
  </g>
</svg>
