<?xml version="1.0" encoding="UTF-8" standalone="no"?>
<svg xmlns:ffdec="https://www.free-decompiler.com/flash" xmlns:xlink="http://www.w3.org/1999/xlink" ffdec:objectType="shape" height="6.1px" width="15.5px" xmlns="http://www.w3.org/2000/svg">
  <g transform="matrix(1.0, 0.0, 0.0, 1.0, 7.2, -7.0)">
    <path d="M-2.55 7.3 Q-2.05 7.4 -2.05 7.65 -2.0 8.3 -3.25 10.9 L-3.85 11.95 -4.45 11.9 Q-4.65 11.25 -4.2 10.3 L-2.55 7.3 M-1.15 12.3 L-1.3 9.7 Q-1.15 8.7 -0.6 7.35 L-0.35 7.45 Q-0.05 9.05 -0.45 11.25 L-0.8 12.1 -1.15 12.3 M-4.9 7.25 L-5.7 9.55 -6.8 11.75 -7.2 11.75 Q-7.3 11.0 -6.7 9.85 L-5.75 8.3 -4.9 7.25 M7.95 13.1 Q7.35 12.4 7.25 10.5 7.2 8.4 8.0 7.3 L8.25 8.0 8.3 10.7 Q8.3 12.75 7.95 13.1 M5.2 12.8 Q4.6 12.1 4.5 10.2 4.45 8.1 5.25 7.0 L5.5 7.7 5.55 10.4 Q5.55 12.45 5.2 12.8 M1.3 12.4 Q0.2 11.0 2.05 7.25 L2.3 7.25 Q2.65 8.45 2.3 10.45 L1.55 12.55 1.3 12.4" fill="#606060" fill-rule="evenodd" stroke="none"/>
  </g>
</svg>
