<?xml version="1.0" encoding="UTF-8" standalone="no"?>
<svg xmlns:ffdec="https://www.free-decompiler.com/flash" xmlns:xlink="http://www.w3.org/1999/xlink" ffdec:objectType="shape" height="115.05px" width="85.0px" xmlns="http://www.w3.org/2000/svg">
  <g transform="matrix(1.0, 0.0, 0.0, 1.0, 35.95, 66.5)">
    <path d="M36.6 -54.05 Q49.05 -41.6 49.05 -24.0 49.05 -15.4 46.1 -8.0 43.7 -2.15 39.5 2.95 L39.15 3.3 36.6 6.05 Q27.25 15.4 15.0 17.75 L6.55 18.5 Q-11.05 18.5 -23.5 6.05 L-24.55 5.0 -26.3 3.0 Q-35.95 -8.5 -35.95 -24.0 -35.95 -28.05 -35.25 -31.85 -33.05 -44.5 -23.5 -54.05 -18.9 -58.65 -13.55 -61.55 -4.5 -66.5 6.55 -66.5 24.15 -66.5 36.6 -54.05 M46.85 -27.65 L46.75 -28.65 Q45.4 -41.15 36.65 -51.15 25.0 -64.5 6.5 -64.5 1.9 -64.5 -3.35 -62.95 L-8.45 -61.2 Q-12.05 -59.75 -15.0 -58.1 L-19.15 -55.4 -20.05 -54.65 Q-24.85 -50.15 -28.9 -42.35 -31.4 -37.5 -32.65 -32.95 -33.55 -29.8 -33.8 -26.8 L-33.95 -24.45 -33.95 -24.0 -33.9 -22.55 Q-33.5 -10.05 -25.95 0.75 L-25.1 1.9 -23.5 4.0 Q-15.75 11.25 -9.0 13.5 -7.1 14.4 -3.85 15.25 0.05 16.3 2.9 16.35 L16.35 15.7 Q26.9 13.4 34.95 5.35 L38.4 1.55 38.95 0.8 Q47.0 -9.8 47.0 -24.0 L46.85 -27.6 46.85 -27.65" fill="#a46637" fill-rule="evenodd" stroke="none"/>
    <path d="M-33.9 -22.55 L-33.95 -24.0 -33.95 -24.45 -33.8 -26.8 Q-33.55 -29.8 -32.65 -32.95 -31.4 -37.5 -28.9 -42.35 -24.85 -50.15 -20.05 -54.65 L-19.15 -55.4 -15.0 -58.1 Q-12.05 -59.75 -8.45 -61.2 L-3.35 -62.95 Q1.9 -64.5 6.5 -64.5 25.0 -64.5 36.65 -51.15 45.4 -41.15 46.75 -28.65 L46.85 -27.65 Q39.3 -25.55 31.2 -25.8 L25.2 -25.85 Q21.6 -26.75 21.1 -27.15 L19.75 -28.7 10.2 -27.3 7.3 -27.3 4.75 -27.5 2.4 -27.6 -3.85 -27.65 -11.8 -29.0 -20.65 -30.4 -24.15 -31.05 -25.75 -32.0 -28.25 -34.0 Q-29.85 -34.0 -31.25 -31.1 L-32.75 -27.05 -33.85 -22.85 -33.9 -22.55" fill="#e7a867" fill-rule="evenodd" stroke="none"/>
    <path d="M46.85 -27.65 L46.85 -27.6 47.0 -24.0 Q47.0 -9.8 38.95 0.8 L38.4 1.55 34.95 5.35 Q26.9 13.4 16.35 15.7 L2.9 16.35 Q0.05 16.3 -3.85 15.25 -7.1 14.4 -9.0 13.5 -15.75 11.25 -23.5 4.0 L-25.1 1.9 -25.95 0.75 Q-33.5 -10.05 -33.9 -22.55 L-33.85 -22.85 -32.75 -27.05 -31.25 -31.1 Q-29.85 -34.0 -28.25 -34.0 L-25.75 -32.0 -24.15 -31.05 -20.65 -30.4 -11.8 -29.0 -3.85 -27.65 2.4 -27.6 4.75 -27.5 7.3 -27.3 10.2 -27.3 19.75 -28.7 21.1 -27.15 Q21.6 -26.75 25.2 -25.85 L31.2 -25.8 Q39.3 -25.55 46.85 -27.65 M0.55 11.35 Q12.15 11.35 20.4 2.8 L20.5 1.45 19.4 -5.85 Q18.25 -12.5 18.25 -16.0 18.25 -22.9 18.6 -23.85 L18.7 -24.0 19.55 -25.05 Q18.55 -26.0 18.05 -27.25 L11.8 -25.85 8.7 -25.4 1.65 -25.1 -4.4 -24.95 -12.2 -25.5 -16.15 -26.4 -14.6 -24.95 -14.55 -24.6 Q-14.6 -24.3 -15.25 -24.3 -20.35 -24.3 -24.6 -27.35 L-26.4 -28.85 Q-28.0 -24.15 -28.0 -18.75 -28.0 -6.3 -19.65 2.5 -11.25 11.35 0.55 11.35" fill="#f4bb83" fill-rule="evenodd" stroke="none"/>
    <path d="M0.55 11.35 Q-11.25 11.35 -19.65 2.5 -28.0 -6.3 -28.0 -18.75 -28.0 -24.15 -26.4 -28.85 L-24.6 -27.35 Q-20.35 -24.3 -15.25 -24.3 -14.6 -24.3 -14.55 -24.6 L-14.6 -24.95 -16.15 -26.4 -12.2 -25.5 -4.4 -24.95 1.65 -25.1 8.7 -25.4 11.8 -25.85 18.05 -27.25 Q18.55 -26.0 19.55 -25.05 L18.7 -24.0 18.6 -23.85 Q18.25 -22.9 18.25 -16.0 18.25 -12.5 19.4 -5.85 L20.5 1.45 20.4 2.8 Q12.15 11.35 0.55 11.35" fill="#f5c89d" fill-rule="evenodd" stroke="none"/>
    <path d="M25.0 29.85 L23.9 37.7 24.3 43.5 Q24.75 48.35 24.95 48.55 L25.55 31.05 25.0 29.85 Z" fill="none" stroke="#ff0000" stroke-linecap="round" stroke-linejoin="round" stroke-width="0.05"/>
  </g>
</svg>
