<?xml version="1.0" encoding="UTF-8" standalone="no"?>
<svg xmlns:ffdec="https://www.free-decompiler.com/flash" xmlns:xlink="http://www.w3.org/1999/xlink" ffdec:objectType="shape" height="30.25px" width="29.55px" xmlns="http://www.w3.org/2000/svg">
  <g transform="matrix(1.0, 0.0, 0.0, 1.0, 20.75, 106.25)">
    <path d="M-19.35 -77.45 L-20.75 -78.2 -20.5 -79.3 Q-19.95 -78.75 -19.15 -78.45 L-19.35 -77.45 M-15.0 -105.25 L-14.8 -106.25 -13.15 -106.25 -13.35 -105.25 -15.0 -105.25" fill="#999999" fill-rule="evenodd" stroke="none"/>
    <path d="M-19.7 -82.95 L-19.5 -83.9 -18.95 -83.65 -18.0 -83.4 -17.25 -83.2 -17.1 -78.3 -17.2 -78.35 -17.5 -78.4 -18.7 -78.75 -18.9 -78.8 -19.05 -78.85 -19.5 -79.0 -19.7 -82.95 M-19.25 -85.15 L-18.95 -86.4 -18.7 -86.35 -18.15 -86.35 -18.05 -86.25 -17.5 -85.6 -17.75 -84.55 -18.2 -84.7 Q-18.8 -84.85 -19.25 -85.15 M-15.5 -102.85 L-15.3 -103.75 -15.0 -103.8 -13.6 -103.8 -13.75 -103.2 -15.5 -102.85 M5.65 -79.0 L5.1 -78.8 2.4 -78.1 2.35 -83.0 2.5 -83.05 4.95 -83.65 Q5.45 -83.35 5.5 -82.65 L5.6 -79.9 5.65 -79.0 M1.7 -77.95 L0.65 -77.8 0.65 -79.05 0.55 -82.7 0.85 -82.7 1.7 -82.9 1.7 -77.95 M-0.4 -77.65 L-0.55 -77.65 -0.9 -77.6 -0.9 -78.9 -0.95 -82.5 -0.85 -82.55 -0.8 -82.55 -0.7 -82.55 -0.4 -77.65 M-12.7 -77.7 L-13.55 -77.7 -16.2 -78.15 -16.25 -78.7 -16.3 -79.2 -16.35 -83.05 -15.4 -82.9 -12.65 -82.5 -12.7 -78.45 -12.7 -77.7 M-17.4 -86.2 L-17.5 -85.8 -17.95 -86.35 -17.75 -86.35 -17.4 -86.2" fill="#a86c32" fill-rule="evenodd" stroke="none"/>
    <path d="M3.25 -101.65 L3.15 -101.8 2.9 -102.35 2.9 -102.45 3.8 -101.55 3.5 -101.5 3.35 -101.6 3.25 -101.65 M-8.05 -103.3 L-8.05 -103.35 -7.95 -103.5 -7.45 -103.35 -8.0 -103.3 -8.05 -103.3 M4.5 -91.4 L4.4 -91.45 Q4.75 -92.25 4.75 -91.3 4.55 -91.25 4.5 -91.4 M5.4 -89.7 L5.4 -89.85 5.75 -90.6 5.9 -89.9 5.55 -89.55 5.5 -89.6 5.45 -89.65 5.4 -89.65 5.4 -89.7 M-4.6 -84.3 Q-5.05 -83.95 -6.15 -83.95 -7.0 -83.95 -7.1 -84.3 L-7.1 -84.4 -7.0 -84.4 -6.75 -84.4 -6.55 -84.35 -6.35 -84.35 -6.25 -84.35 -6.15 -84.35 -5.85 -84.3 -5.5 -84.3 -5.1 -84.3 -4.6 -84.3 M-9.85 -84.5 L-9.45 -84.4 -9.45 -84.05 -10.05 -84.0 -10.1 -84.1 -10.15 -84.35 -10.1 -84.55 -9.95 -84.5 -9.85 -84.5 M-13.55 -85.05 L-12.7 -84.55 Q-12.75 -84.15 -13.0 -84.15 -13.25 -84.15 -13.45 -84.4 L-13.6 -84.85 -13.55 -85.05 M-17.5 -85.8 L-17.3 -85.55 -17.5 -85.65 -17.5 -85.6 -18.05 -86.25 -18.15 -86.35 -17.95 -86.35 -17.5 -85.8 M6.1 -88.4 L6.15 -89.0 6.4 -88.25 Q6.2 -88.1 6.15 -88.25 L6.1 -88.4 M-16.2 -85.2 L-16.15 -85.25 -15.65 -85.0 -15.95 -84.6 -16.2 -85.05 -16.2 -85.2" fill="#d6a454" fill-rule="evenodd" stroke="none"/>
    <path d="M-18.5 -88.45 L-18.45 -88.7 -18.4 -88.45 -18.5 -88.45 M-18.05 -90.65 L-17.85 -91.55 -17.6 -91.85 -17.8 -91.25 -18.05 -90.65 M-17.2 -94.65 L-17.15 -94.95 -17.15 -94.85 -17.15 -94.7 -17.2 -94.65 M-15.75 -101.55 L-15.5 -102.85 -13.75 -103.2 -13.25 -103.2 -12.45 -103.25 -8.45 -103.2 -9.1 -103.05 -9.2 -103.0 -10.9 -102.55 -10.85 -102.7 -10.95 -102.55 -11.8 -102.3 -12.45 -102.3 -12.6 -102.3 -12.7 -102.3 -13.9 -102.25 -13.95 -102.25 -13.95 -102.2 -14.45 -102.1 -14.5 -102.05 -14.3 -102.5 -14.7 -102.15 -14.55 -102.05 -15.75 -101.55 M3.5 -101.5 Q4.15 -101.0 4.3 -100.3 L4.45 -98.9 4.35 -97.95 4.3 -97.95 4.15 -98.0 4.0 -98.1 3.75 -98.15 3.55 -98.2 3.6 -98.85 Q3.6 -100.1 2.3 -100.85 1.2 -101.5 -1.05 -101.85 L-1.1 -102.0 -1.15 -102.25 -0.45 -102.35 Q-0.45 -102.75 -1.1 -102.85 L-1.5 -102.8 -1.6 -102.9 -1.1 -102.85 Q1.95 -102.45 3.25 -101.65 3.45 -101.25 3.5 -101.5 M4.0 -99.5 L4.0 -99.3 4.2 -99.05 4.2 -99.75 4.0 -99.5 M0.75 -101.9 L0.9 -101.6 1.35 -101.5 1.1 -102.25 Q0.85 -102.3 0.75 -101.9 M3.1 -92.55 L3.85 -93.15 3.85 -93.2 4.4 -91.45 4.5 -91.4 4.7 -91.0 5.3 -89.95 5.4 -89.7 5.4 -89.65 5.45 -89.65 5.5 -89.6 5.65 -88.6 5.65 -88.3 4.95 -87.7 4.95 -87.85 5.15 -88.05 5.2 -88.5 4.95 -89.05 4.9 -89.05 4.65 -89.0 4.6 -89.05 4.2 -89.8 4.55 -90.45 4.7 -91.0 4.35 -91.35 4.0 -90.1 3.95 -90.25 Q3.3 -91.3 3.1 -92.55 M3.15 -96.15 L3.45 -96.15 3.95 -96.05 4.1 -96.0 3.95 -95.6 3.7 -95.3 2.95 -94.5 2.95 -95.05 3.05 -95.55 3.1 -95.95 3.15 -96.15 M-16.25 -86.75 L-14.95 -86.6 -11.8 -85.9 -11.6 -85.85 -10.4 -85.75 -9.5 -85.75 -6.9 -85.45 -6.9 -85.2 -6.65 -84.7 -6.5 -84.5 -6.8 -84.5 -7.1 -84.5 -7.1 -84.4 -8.15 -84.45 -8.1 -84.5 -8.45 -84.45 -9.85 -84.5 -9.95 -84.5 -10.1 -84.55 -10.6 -84.75 -12.1 -84.8 -13.55 -85.05 -15.3 -85.4 Q-16.55 -85.75 -17.0 -86.1 L-17.4 -86.2 -17.75 -86.35 -17.6 -86.35 -17.45 -86.4 -17.35 -86.4 -16.3 -86.75 -16.25 -86.75 M5.65 -88.25 L5.65 -87.75 5.3 -86.75 Q4.75 -85.9 2.3 -85.3 L2.1 -85.35 1.85 -85.0 2.1 -85.5 Q1.65 -85.9 1.35 -85.2 L1.55 -84.95 Q0.4 -84.35 -2.1 -84.35 L-2.65 -84.3 -2.35 -84.35 -2.2 -84.85 -2.85 -84.85 -2.9 -84.55 -2.85 -84.3 -4.6 -84.3 -5.1 -84.3 -5.5 -84.3 -4.1 -84.45 -4.05 -84.45 0.45 -86.15 1.0 -86.2 3.15 -86.55 3.1 -86.3 3.1 -86.0 3.3 -85.85 3.6 -86.3 3.25 -86.6 3.95 -86.95 4.8 -87.6 4.2 -86.8 4.2 -86.6 4.35 -86.45 5.2 -87.25 5.65 -88.25 M-12.95 -102.8 Q-12.85 -102.6 -12.5 -102.55 L-12.05 -102.55 -12.45 -103.2 Q-12.8 -103.1 -12.95 -102.8" fill="#cf985b" fill-rule="evenodd" stroke="none"/>
    <path d="M3.25 -101.65 L3.35 -101.6 3.5 -101.5 Q3.45 -101.25 3.25 -101.65 M0.75 -101.9 Q0.85 -102.3 1.1 -102.25 L1.35 -101.5 0.9 -101.6 0.75 -101.9 M4.0 -99.5 L4.2 -99.75 4.2 -99.05 4.0 -99.3 4.0 -99.5 M5.65 -88.3 L5.65 -88.25 5.2 -87.25 4.35 -86.45 4.2 -86.6 4.2 -86.8 4.8 -87.6 4.95 -87.7 5.65 -88.3 M1.85 -85.0 L1.8 -85.0 1.65 -85.0 1.55 -84.95 1.35 -85.2 Q1.65 -85.9 2.1 -85.5 L1.85 -85.0 M-2.65 -84.3 L-2.85 -84.3 -2.9 -84.55 -2.85 -84.85 -2.2 -84.85 -2.35 -84.35 -2.65 -84.3 M4.7 -91.0 L4.55 -90.45 4.2 -89.8 4.1 -90.0 4.0 -90.1 4.35 -91.35 4.7 -91.0 M3.15 -86.55 L3.25 -86.6 3.6 -86.3 3.3 -85.85 3.1 -86.0 3.1 -86.3 3.15 -86.55 M-10.95 -102.55 L-10.85 -102.7 -10.9 -102.55 -10.95 -102.55 M-12.95 -102.8 Q-12.8 -103.1 -12.45 -103.2 L-12.05 -102.55 -12.5 -102.55 Q-12.85 -102.6 -12.95 -102.8 M-14.5 -102.05 L-14.55 -102.05 -14.7 -102.15 -14.3 -102.5 -14.5 -102.05 M-1.15 -102.25 L-1.3 -102.45 -1.45 -102.75 -1.5 -102.8 -1.1 -102.85 Q-0.45 -102.75 -0.45 -102.35 L-1.15 -102.25 M-6.5 -84.5 L-6.4 -84.4 -6.35 -84.4 -6.15 -84.35 -6.25 -84.35 -6.35 -84.35 -6.55 -84.35 -6.75 -84.4 -7.0 -84.4 -7.1 -84.4 -7.1 -84.5 -6.8 -84.5 -6.5 -84.5" fill="#af793c" fill-rule="evenodd" stroke="none"/>
    <path d="M-20.4 -79.7 L-19.7 -82.95 -19.5 -79.0 -20.4 -79.7 M-19.5 -83.9 L-19.25 -85.15 Q-18.8 -84.85 -18.2 -84.7 L-17.75 -84.55 -18.0 -83.4 -18.95 -83.65 -19.5 -83.9 M-15.3 -103.75 L-15.05 -104.85 -13.4 -104.85 -13.6 -103.8 -15.0 -103.8 -15.3 -103.75 M7.7 -86.85 L7.7 -83.2 Q7.65 -80.8 6.55 -79.65 L5.7 -79.0 5.65 -79.0 5.6 -79.9 5.5 -82.65 5.45 -83.85 Q6.8 -84.4 7.35 -85.75 L7.7 -86.85" fill="#935b27" fill-rule="evenodd" stroke="none"/>
    <path d="M-20.5 -79.3 L-20.4 -79.7 -19.5 -79.0 -19.05 -78.85 -18.9 -78.8 -18.7 -78.75 -17.5 -78.4 -17.2 -78.35 -17.1 -78.3 -16.3 -78.1 -16.2 -78.1 -16.2 -78.15 -13.55 -77.7 -12.7 -77.7 -12.7 -77.6 -12.6 -77.6 -12.3 -77.55 -12.1 -77.55 -10.6 -77.45 -6.9 -77.4 -3.95 -77.4 -3.45 -77.45 -3.05 -77.45 -0.9 -77.6 -0.55 -77.65 -0.4 -77.65 0.65 -77.8 1.7 -77.95 2.4 -78.1 5.1 -78.8 5.65 -79.0 5.7 -79.0 6.55 -79.65 Q7.65 -80.75 7.7 -82.95 L7.7 -83.2 7.7 -86.85 7.7 -88.05 7.7 -88.15 Q7.7 -90.5 6.7 -91.85 6.2 -92.65 5.95 -93.5 L5.9 -93.55 5.85 -93.75 5.75 -94.2 Q5.65 -94.75 5.7 -95.4 L5.7 -95.5 5.75 -95.8 5.95 -100.6 5.95 -101.1 5.95 -101.5 5.9 -101.85 Q5.8 -102.9 5.25 -103.55 4.65 -104.35 3.95 -104.55 L2.0 -104.85 -13.4 -104.85 -15.05 -104.85 -15.0 -105.25 -13.35 -105.25 2.0 -105.25 4.0 -104.9 Q4.75 -104.75 5.35 -103.9 6.0 -103.2 6.1 -101.9 L6.15 -101.5 6.15 -101.1 6.15 -100.6 6.15 -95.8 6.15 -95.65 6.15 -95.5 6.15 -95.4 6.1 -93.8 6.1 -93.65 Q6.35 -92.85 6.8 -92.2 7.9 -90.7 7.9 -88.15 L7.9 -88.05 7.9 -83.2 7.9 -82.95 Q7.85 -79.25 5.15 -78.4 0.0 -76.9 -6.9 -77.0 -13.8 -76.9 -18.95 -78.4 L-19.15 -78.45 Q-19.95 -78.75 -20.5 -79.3" fill="#65401a" fill-rule="evenodd" stroke="none"/>
    <path d="M-18.95 -86.4 L-18.85 -86.95 -18.7 -86.9 -17.5 -86.95 -17.2 -87.0 -16.3 -87.3 Q-15.4 -87.65 -14.15 -88.3 L-5.7 -93.4 -1.35 -95.6 -0.3 -96.05 0.8 -96.4 1.85 -96.7 2.95 -96.8 3.45 -96.8 3.95 -96.7 4.2 -96.55 4.35 -96.45 4.35 -96.4 4.4 -96.4 4.45 -96.25 4.45 -96.15 4.35 -96.05 4.25 -95.9 4.2 -95.85 4.2 -96.0 4.1 -96.0 3.95 -96.05 3.45 -96.15 3.15 -96.15 3.15 -96.25 3.1 -96.25 3.05 -96.15 2.95 -96.15 1.9 -96.05 0.85 -95.85 0.8 -95.85 0.75 -95.8 0.55 -95.7 -0.25 -95.45 -0.4 -95.4 -0.6 -95.35 -1.35 -95.05 -5.65 -92.85 -6.05 -92.65 -6.2 -92.55 -13.2 -88.25 -13.55 -88.05 -14.1 -87.75 Q-15.4 -87.1 -16.25 -86.75 L-16.3 -86.75 -17.35 -86.4 -17.45 -86.4 -17.6 -86.35 -17.75 -86.35 -17.95 -86.35 -18.15 -86.35 -18.7 -86.35 -18.95 -86.4 M-17.85 -91.55 L-17.7 -92.35 -16.65 -93.5 -15.6 -94.3 -14.45 -95.2 -10.15 -97.5 -5.85 -99.4 -1.55 -101.1 -1.5 -101.1 -1.4 -101.15 -1.35 -101.25 Q-1.15 -101.45 -1.2 -101.8 L-1.3 -102.25 -1.4 -102.55 -1.55 -102.8 -1.7 -102.95 -2.0 -103.25 -2.1 -103.3 -1.95 -103.25 -1.65 -102.95 -1.6 -102.9 -1.5 -102.8 -1.45 -102.75 -1.3 -102.45 -1.15 -102.25 -1.1 -102.0 -1.05 -101.85 -1.0 -101.55 Q-1.0 -101.0 -1.25 -100.7 L-1.35 -100.65 -1.35 -100.6 -1.4 -100.6 -1.45 -100.55 -1.5 -100.5 -3.05 -99.85 -3.25 -99.8 -5.8 -98.8 -6.4 -98.6 -6.75 -98.45 -10.15 -96.95 -12.05 -96.0 -13.2 -95.35 -13.5 -95.15 -14.4 -94.65 -14.35 -94.65 -15.75 -93.55 -16.55 -92.95 -17.6 -91.85 -17.85 -91.55 M-17.2 -94.6 L-17.2 -94.65 -17.15 -94.7 -15.9 -95.8 -15.7 -95.95 -15.65 -95.95 -15.2 -96.2 -12.05 -98.15 -12.0 -98.15 -15.6 -95.95 -17.15 -94.7 -17.2 -94.6 M-16.25 -99.2 L-16.1 -99.85 -14.45 -100.7 -10.0 -101.95 -4.9 -102.5 -2.95 -102.4 -2.65 -102.3 -2.5 -102.3 -2.5 -102.25 -2.45 -102.25 -2.1 -102.05 -2.15 -102.05 -2.9 -101.8 -2.95 -101.85 -4.9 -101.95 -9.9 -101.4 -9.95 -101.4 -10.15 -101.35 -12.2 -100.7 -12.25 -100.7 -14.35 -100.1 -14.45 -100.1 -15.0 -99.8 -15.25 -99.7 -16.1 -99.3 -16.2 -99.25 -16.25 -99.2 M4.55 -97.8 L4.85 -97.55 4.9 -97.5 4.95 -97.5 4.95 -97.4 5.0 -97.35 5.05 -97.3 5.1 -97.3 5.2 -97.05 5.25 -96.85 5.3 -96.45 5.3 -96.4 5.35 -96.0 5.35 -95.9 5.35 -95.6 5.3 -95.45 5.3 -95.4 5.3 -95.25 5.2 -94.85 5.05 -94.6 4.9 -94.3 3.85 -93.2 3.85 -93.15 3.1 -92.55 -3.1 -88.15 -3.35 -88.0 -4.45 -87.2 -4.5 -87.2 -4.55 -87.15 -4.65 -87.1 -5.8 -85.9 -6.05 -85.95 -6.15 -85.95 -6.15 -86.0 -6.1 -86.15 -6.1 -86.2 -6.0 -86.4 -4.65 -87.7 -4.6 -87.7 -4.55 -87.75 3.25 -93.25 3.8 -93.7 4.8 -94.85 5.05 -95.35 5.2 -95.65 5.2 -96.25 5.2 -96.6 5.1 -97.0 4.95 -97.35 4.9 -97.45 4.9 -97.5 4.85 -97.5 4.85 -97.55 4.8 -97.55 4.55 -97.8 M-8.45 -103.2 L-8.05 -103.3 -8.0 -103.3 -8.45 -103.2 M-3.05 -103.55 L-2.5 -103.45 -2.45 -103.45 -2.45 -103.4 -2.5 -103.45 -2.55 -103.45 -3.05 -103.55 M0.6 -97.8 L0.6 -97.85 0.65 -97.85 0.6 -97.8 M3.7 -95.3 L3.95 -95.6 4.2 -95.85 3.7 -95.3 M-6.9 -85.45 L-6.95 -85.5 -6.95 -85.75 -6.95 -85.85 -6.95 -85.9 -6.9 -85.95 -6.9 -86.25 -6.85 -86.35 -6.85 -86.4 -6.7 -86.7 -6.45 -87.2 -6.4 -87.2 -6.55 -86.85 -6.7 -86.55 -6.7 -86.45 -6.75 -86.4 -6.75 -86.3 -6.8 -86.2 -6.8 -85.8 -6.75 -85.55 -6.5 -85.2 -6.35 -84.95 -6.2 -84.95 -6.15 -84.9 -5.85 -84.85 -4.1 -85.0 3.8 -88.15 4.95 -88.45 5.0 -88.55 5.05 -88.75 4.95 -89.05 5.2 -88.5 5.15 -88.05 4.95 -87.85 3.85 -87.6 0.45 -86.15 -4.05 -84.45 -4.1 -84.45 -5.5 -84.3 -5.85 -84.3 -6.15 -84.35 -6.35 -84.4 -6.4 -84.4 -6.5 -84.5 -6.65 -84.7 -6.9 -85.2 -6.9 -85.45 M-6.15 -87.4 L-5.0 -88.7 -4.95 -88.7 -4.9 -88.75 1.2 -93.25 1.25 -93.25 -4.8 -88.75 -4.85 -88.75 -6.15 -87.4 M2.3 -94.05 L2.6 -94.2 2.1 -93.85 2.3 -94.05 M-13.8 -101.7 L-13.8 -101.8 -13.55 -101.85 -13.75 -101.8 -13.8 -101.7 M-8.6 -93.3 L-8.1 -93.65 -7.65 -93.85 -8.05 -93.65 -8.6 -93.3 M-7.1 -94.15 L-7.05 -94.25 -6.0 -94.9 -5.95 -94.9 -7.0 -94.25 -7.1 -94.15 M-12.05 -91.25 L-11.25 -91.75 -10.95 -91.9 -12.05 -91.25" fill="#824124" fill-rule="evenodd" stroke="none"/>
    <path d="M-18.85 -86.95 L-18.75 -87.3 -18.7 -87.3 -17.6 -87.3 -17.6 -87.35 -17.5 -87.35 -17.1 -87.4 Q-16.8 -87.5 -16.35 -87.7 -15.4 -88.05 -14.25 -88.7 L-7.85 -92.6 -5.75 -93.8 -3.6 -95.0 0.75 -96.75 1.85 -97.0 2.95 -97.1 3.45 -97.1 4.0 -97.0 4.2 -96.9 4.45 -96.75 4.6 -96.15 4.6 -96.05 4.5 -95.8 4.2 -95.4 3.05 -94.15 -4.75 -88.55 -4.75 -88.5 -4.8 -88.5 -5.8 -87.6 -6.2 -87.05 -6.5 -86.65 -6.6 -86.3 -6.6 -85.75 -6.55 -85.7 -6.45 -85.4 -6.25 -85.25 -6.2 -85.2 -6.15 -85.2 -6.0 -85.1 -4.85 -85.1 -3.9 -85.35 -2.75 -85.7 2.7 -87.95 3.8 -88.3 4.95 -88.6 4.95 -88.7 4.9 -88.9 3.8 -88.65 2.7 -88.3 -2.8 -86.15 -3.95 -85.85 -4.7 -85.7 -4.9 -85.7 -4.95 -85.65 -6.15 -85.7 -6.15 -85.75 -6.25 -85.8 -6.3 -85.85 -6.3 -86.15 -6.1 -86.55 -6.05 -86.6 -5.6 -87.15 -5.35 -87.35 -4.75 -87.85 -4.7 -87.95 -4.7 -88.0 -4.65 -88.0 2.15 -92.75 3.15 -93.6 4.4 -94.75 4.8 -95.25 4.9 -95.5 5.0 -95.85 5.0 -95.95 5.05 -96.0 5.05 -96.25 4.85 -97.1 4.8 -97.1 4.8 -97.2 4.7 -97.3 4.65 -97.3 4.35 -97.55 4.1 -97.7 3.5 -97.85 2.95 -97.85 1.8 -97.75 0.7 -97.45 -0.45 -97.1 -3.7 -95.7 -5.85 -94.55 -8.0 -93.3 -14.3 -89.45 -16.45 -88.45 -16.9 -88.25 -17.55 -88.1 -17.6 -88.1 -18.1 -88.05 -18.2 -88.05 -18.6 -88.1 -18.5 -88.45 -18.4 -88.45 -18.0 -88.45 -17.7 -88.5 -17.6 -88.5 -17.0 -88.65 -16.8 -88.7 -16.5 -88.85 -16.4 -88.9 -14.65 -89.65 -14.4 -89.8 -14.45 -89.8 -12.05 -91.25 -10.95 -91.9 -8.85 -93.15 -8.6 -93.3 -8.05 -93.65 -7.65 -93.85 -7.25 -94.1 -7.15 -94.15 -7.1 -94.15 -7.0 -94.25 -5.95 -94.9 -5.8 -94.95 -5.6 -95.05 -5.45 -95.15 -5.05 -95.35 -3.85 -96.0 -3.75 -96.05 -3.45 -96.15 -3.25 -96.3 -2.1 -96.8 -1.95 -96.9 -1.85 -96.9 -1.7 -97.0 -1.65 -97.0 -1.6 -97.05 -0.5 -97.45 0.5 -97.8 0.6 -97.8 0.65 -97.85 0.85 -97.9 1.75 -98.1 1.8 -98.1 2.95 -98.2 3.55 -98.2 3.75 -98.15 4.0 -98.1 4.15 -98.0 4.3 -97.95 4.35 -97.95 4.35 -97.9 4.5 -97.85 4.55 -97.8 4.8 -97.55 4.85 -97.55 4.85 -97.5 4.9 -97.5 4.9 -97.45 4.95 -97.35 5.1 -97.0 5.2 -96.6 5.2 -96.25 5.2 -95.65 5.05 -95.35 4.8 -94.85 3.8 -93.7 3.25 -93.25 -4.55 -87.75 -4.6 -87.7 -4.65 -87.7 -6.0 -86.4 -6.1 -86.2 -6.1 -86.15 -6.15 -86.0 -6.15 -85.95 -6.05 -85.95 -5.8 -85.9 -4.9 -85.9 -2.85 -86.35 0.4 -87.55 0.7 -87.65 2.55 -88.4 2.9 -88.5 3.75 -88.75 4.0 -88.9 4.65 -89.0 4.9 -89.05 4.95 -89.05 5.05 -88.75 5.0 -88.55 4.95 -88.45 3.8 -88.15 -4.1 -85.0 -5.85 -84.85 -6.15 -84.9 -6.2 -84.95 -6.35 -84.95 -6.5 -85.2 -6.75 -85.55 -6.8 -85.8 -6.8 -86.2 -6.75 -86.3 -6.75 -86.4 -6.7 -86.45 -6.7 -86.55 -6.55 -86.85 -6.4 -87.2 -6.35 -87.25 -6.15 -87.4 -4.85 -88.75 -4.8 -88.75 1.25 -93.25 1.3 -93.3 2.1 -93.85 2.6 -94.2 2.95 -94.5 3.7 -95.3 4.2 -95.85 4.25 -95.9 4.35 -96.05 4.45 -96.15 4.45 -96.25 4.4 -96.4 4.35 -96.4 4.35 -96.45 4.2 -96.55 3.95 -96.7 3.45 -96.8 2.95 -96.8 1.85 -96.7 0.8 -96.4 -0.3 -96.05 -1.35 -95.6 -5.7 -93.4 -14.15 -88.3 Q-15.4 -87.65 -16.3 -87.3 L-17.2 -87.0 -17.5 -86.95 -18.7 -86.9 -18.85 -86.95 M-17.7 -92.35 L-17.55 -92.95 -17.35 -94.0 -17.2 -94.6 -17.15 -94.7 -15.6 -95.95 -12.0 -98.15 -11.95 -98.15 -11.9 -98.2 -11.85 -98.2 -8.65 -99.6 -8.55 -99.65 -5.9 -100.65 -5.8 -100.7 -2.9 -101.8 -2.15 -102.05 -2.1 -102.05 -2.45 -102.25 -2.5 -102.25 -2.5 -102.3 -2.65 -102.3 -2.95 -102.4 -4.9 -102.5 -10.0 -101.95 -14.45 -100.7 -16.1 -99.85 -16.05 -100.05 -16.0 -100.45 -15.95 -100.55 -13.8 -101.7 -13.75 -101.8 -13.55 -101.85 -11.8 -102.3 -10.95 -102.55 -10.9 -102.55 -9.2 -103.0 -9.1 -103.05 -8.45 -103.2 -8.0 -103.3 -7.45 -103.35 -3.55 -103.65 -3.05 -103.55 -2.55 -103.45 -2.5 -103.45 -2.45 -103.4 -2.3 -103.4 -2.25 -103.35 -2.1 -103.3 -2.0 -103.25 -1.7 -102.95 -1.55 -102.8 -1.4 -102.55 -1.3 -102.25 -1.2 -101.8 Q-1.15 -101.45 -1.35 -101.25 L-1.4 -101.15 -1.5 -101.1 -1.55 -101.1 -5.85 -99.4 -10.15 -97.5 -14.45 -95.2 -15.6 -94.3 -16.65 -93.5 -17.7 -92.35 M-14.2 -100.9 L-10.15 -102.15 -5.75 -102.8 -3.55 -102.8 -2.5 -102.55 -2.45 -102.55 -2.45 -102.5 -2.15 -102.4 -1.95 -102.25 -1.8 -102.0 -1.75 -101.9 -10.85 -98.3 -14.65 -96.25 -15.15 -95.9 -15.25 -95.75 -15.45 -94.85 -11.75 -97.2 -11.7 -97.2 -10.2 -97.9 -8.05 -98.8 -5.9 -99.7 -1.65 -101.35 -1.55 -101.4 -1.45 -101.5 -1.35 -101.8 -1.4 -102.05 -1.55 -102.35 -1.8 -102.75 -2.05 -102.95 -2.35 -103.1 -2.45 -103.1 -2.5 -103.2 -2.8 -103.25 -5.95 -103.3 -13.45 -101.65 -14.15 -101.35 -14.2 -100.9" fill="#c2b280" fill-rule="evenodd" stroke="none"/>
    <path d="M-18.75 -87.3 L-18.6 -88.1 -18.2 -88.05 -18.1 -88.05 -17.6 -88.1 -17.55 -88.1 -16.9 -88.25 -16.45 -88.45 -14.3 -89.45 -8.0 -93.3 -5.85 -94.55 -3.7 -95.7 -0.45 -97.1 0.7 -97.45 1.8 -97.75 2.95 -97.85 3.5 -97.85 4.1 -97.7 4.35 -97.55 4.65 -97.3 4.7 -97.3 4.8 -97.2 4.8 -97.1 4.85 -97.1 5.05 -96.25 5.05 -96.0 5.0 -95.95 5.0 -95.85 4.9 -95.5 4.8 -95.25 4.4 -94.75 3.15 -93.6 2.15 -92.75 -4.65 -88.0 -4.7 -88.0 -4.7 -87.95 -4.75 -87.85 -5.35 -87.35 -5.6 -87.15 -6.05 -86.6 -6.1 -86.55 -6.3 -86.15 -6.3 -85.85 -6.25 -85.8 -6.15 -85.75 -6.15 -85.7 -4.95 -85.65 -4.9 -85.7 -4.7 -85.7 -3.95 -85.85 -2.8 -86.15 2.7 -88.3 3.8 -88.65 4.9 -88.9 4.95 -88.7 4.95 -88.6 3.8 -88.3 2.7 -87.95 -2.75 -85.7 -3.9 -85.35 -4.85 -85.1 -6.0 -85.1 -6.15 -85.2 -6.2 -85.2 -6.25 -85.25 -6.45 -85.4 -6.55 -85.7 -6.6 -85.75 -6.6 -86.3 -6.5 -86.65 -6.2 -87.05 -5.8 -87.6 -4.8 -88.5 -4.75 -88.5 -4.75 -88.55 3.05 -94.15 4.2 -95.4 4.5 -95.8 4.6 -96.05 4.6 -96.15 4.45 -96.75 4.2 -96.9 4.0 -97.0 3.45 -97.1 2.95 -97.1 1.85 -97.0 0.75 -96.75 -3.6 -95.0 -5.75 -93.8 -7.85 -92.6 -14.25 -88.7 Q-15.4 -88.05 -16.35 -87.7 -16.8 -87.5 -17.1 -87.4 L-17.5 -87.35 -17.6 -87.35 -17.6 -87.3 -18.7 -87.3 -18.75 -87.3 M-14.2 -100.9 L-14.15 -101.35 -13.45 -101.65 -5.95 -103.3 -2.8 -103.25 -2.5 -103.2 -2.45 -103.1 -2.35 -103.1 -2.05 -102.95 -1.8 -102.75 -1.55 -102.35 -1.4 -102.05 -1.35 -101.8 -1.45 -101.5 -1.55 -101.4 -1.65 -101.35 -5.9 -99.7 -8.05 -98.8 -10.2 -97.9 -11.7 -97.2 -11.75 -97.2 -15.45 -94.85 -15.25 -95.75 -15.15 -95.9 -14.65 -96.25 -10.85 -98.3 -1.75 -101.9 -1.8 -102.0 -1.95 -102.25 -2.15 -102.4 -2.45 -102.5 -2.45 -102.55 -2.5 -102.55 -3.55 -102.8 -5.75 -102.8 -10.15 -102.15 -14.2 -100.9" fill="#fbf4dd" fill-rule="evenodd" stroke="none"/>
    <path d="M-18.45 -88.7 L-18.05 -90.65 -17.8 -91.25 -17.6 -91.85 -16.55 -92.95 -15.75 -93.55 -16.8 -88.7 -17.0 -88.65 -17.6 -88.5 -17.7 -88.5 -18.0 -88.45 -18.4 -88.45 -18.45 -88.7 M-15.95 -100.55 L-15.75 -101.55 -14.55 -102.05 -14.5 -102.05 -14.45 -102.1 -14.25 -102.1 -13.95 -102.2 -13.9 -102.25 -12.7 -102.3 -12.6 -102.3 -12.45 -102.3 -11.8 -102.3 -13.55 -101.85 -13.8 -101.8 -13.8 -101.7 -15.95 -100.55 M3.55 -98.2 L2.95 -98.2 1.8 -98.1 1.75 -98.1 0.85 -97.9 0.65 -97.85 0.6 -97.85 0.6 -97.8 0.5 -97.8 -0.5 -97.45 -1.6 -97.05 -1.65 -97.0 -1.7 -97.0 -1.85 -96.9 -1.95 -97.55 Q-2.15 -97.7 -2.15 -97.3 L-1.95 -96.9 -2.1 -96.8 -3.25 -96.3 -3.4 -96.55 -3.5 -96.35 -3.45 -96.15 -3.75 -96.05 -3.8 -96.05 -8.75 -96.1 -9.1 -96.1 -10.2 -96.05 -10.2 -96.25 Q-10.2 -96.45 -10.6 -96.45 L-10.6 -96.15 -10.6 -96.05 -11.1 -96.05 -11.2 -96.05 -11.95 -96.0 -12.05 -96.0 -10.15 -96.95 -6.75 -98.45 -6.35 -98.45 -6.4 -98.6 -5.8 -98.8 -3.25 -99.8 -3.2 -99.75 -3.1 -99.8 -3.05 -99.85 -1.5 -100.5 -1.45 -100.55 -1.4 -100.6 -1.35 -100.6 -1.35 -100.65 -1.25 -100.7 Q-1.0 -101.0 -1.0 -101.55 L-1.05 -101.85 Q1.2 -101.5 2.3 -100.85 3.6 -100.1 3.6 -98.85 L3.55 -98.2 M3.15 -96.15 L3.1 -95.95 3.05 -95.55 0.9 -95.8 0.75 -95.8 0.8 -95.85 0.85 -95.85 1.9 -96.05 2.95 -96.15 3.05 -96.15 3.1 -96.25 3.15 -96.25 3.15 -96.15 M0.8 -98.85 L1.1 -98.65 0.8 -99.15 0.8 -98.85 M2.25 -98.9 L2.25 -98.75 Q2.3 -98.6 2.45 -98.6 L2.45 -99.25 2.25 -98.9 M-14.35 -100.1 L-12.25 -100.7 -12.2 -100.7 -10.15 -101.35 Q-10.15 -100.9 -9.95 -100.9 -9.85 -100.9 -9.85 -100.95 L-9.9 -101.4 -4.9 -101.95 -2.95 -101.85 -2.9 -101.8 -5.8 -100.7 -5.85 -101.2 -6.0 -100.9 -5.9 -100.65 -8.55 -99.65 -8.6 -99.7 -8.65 -99.6 -11.85 -98.2 -11.9 -98.2 -11.95 -98.15 -12.0 -98.15 -12.05 -98.15 -15.2 -96.2 -14.35 -100.1 M-11.3 -99.85 Q-11.3 -99.5 -10.9 -99.6 -10.8 -99.7 -11.05 -100.3 L-11.3 -99.85 M-7.75 -101.15 Q-7.7 -100.7 -7.3 -100.9 L-7.5 -101.55 -7.75 -101.15 M-1.0 -98.3 L-0.9 -97.85 Q-0.6 -97.85 -0.85 -98.75 L-1.0 -98.3 M-0.5 -100.45 L-0.3 -100.3 -0.3 -101.05 -0.5 -100.45 M-4.65 -97.7 L-4.6 -97.4 -4.45 -97.4 -4.6 -97.9 -4.65 -97.7 M-4.4 -98.65 L-4.3 -98.3 -4.15 -98.8 -4.4 -98.65 M-8.75 -96.55 Q-8.75 -96.1 -8.3 -96.25 L-8.55 -96.95 Q-8.75 -97.0 -8.75 -96.55 M-5.85 -97.1 L-5.85 -96.9 -5.7 -96.8 -5.8 -97.3 -5.85 -97.1 M-13.3 -98.4 L-13.25 -98.2 Q-13.15 -98.1 -13.05 -98.1 L-13.15 -98.75 -13.3 -98.4 M-17.35 -89.9 L-17.35 -89.7 -17.25 -89.55 -17.1 -89.6 -17.05 -89.65 -17.0 -89.9 Q-17.0 -90.3 -17.25 -90.3 L-17.35 -89.9 M-16.4 -92.45 L-16.35 -92.35 -16.2 -92.2 -16.05 -92.3 -16.25 -92.7 -16.4 -92.45" fill="#98502f" fill-rule="evenodd" stroke="none"/>
    <path d="M3.5 -101.5 L3.8 -101.55 2.9 -102.45 2.9 -102.35 3.15 -101.8 3.25 -101.65 Q1.95 -102.45 -1.1 -102.85 L-1.6 -102.9 -1.65 -102.95 -1.95 -103.25 -2.1 -103.3 -2.25 -103.35 -2.3 -103.4 -2.45 -103.4 -2.45 -103.45 -2.5 -103.45 -3.05 -103.55 -3.55 -103.65 -7.45 -103.35 -7.95 -103.5 -8.05 -103.35 -8.05 -103.3 -8.45 -103.2 -12.45 -103.25 -13.25 -103.2 -13.75 -103.2 -13.6 -103.8 1.15 -103.8 3.45 -103.4 Q5.25 -102.8 5.2 -99.95 L5.2 -99.85 5.2 -99.75 5.2 -97.8 5.2 -97.05 5.1 -97.3 5.05 -97.3 5.0 -97.35 4.95 -97.4 4.95 -97.5 4.9 -97.5 4.85 -97.55 4.55 -97.8 4.5 -97.85 4.35 -97.9 4.35 -97.95 4.45 -98.9 4.3 -100.3 Q4.15 -101.0 3.5 -101.5 M3.95 -95.6 L4.1 -96.0 4.2 -96.0 4.2 -95.85 3.95 -95.6" fill="#e9c76b" fill-rule="evenodd" stroke="none"/>
    <path d="M-3.35 -88.0 L-3.1 -88.15 Q-3.05 -87.85 -3.15 -87.85 L-3.3 -87.95 -3.35 -88.0 M-3.05 -99.85 L-3.1 -99.8 -3.2 -99.75 -3.25 -99.8 -3.05 -99.85 M-6.4 -98.6 L-6.35 -98.45 -6.75 -98.45 -6.4 -98.6 M-10.6 -96.05 L-10.6 -96.15 -10.6 -96.45 Q-10.2 -96.45 -10.2 -96.25 L-10.2 -96.05 -10.4 -95.85 -10.6 -96.05 M-3.45 -96.15 L-3.5 -96.35 -3.4 -96.55 -3.25 -96.3 -3.45 -96.15 M-1.95 -96.9 L-2.15 -97.3 Q-2.15 -97.7 -1.95 -97.55 L-1.85 -96.9 -1.95 -96.9 M2.25 -98.9 L2.45 -99.25 2.45 -98.6 Q2.3 -98.6 2.25 -98.75 L2.25 -98.9 M0.8 -98.85 L0.8 -99.15 1.1 -98.65 0.8 -98.85 M0.75 -95.8 L0.55 -95.55 0.55 -95.7 0.75 -95.8 M-0.4 -95.4 L-0.25 -95.4 -0.6 -94.9 -0.6 -95.15 -0.6 -95.35 -0.4 -95.4 M-6.05 -92.65 L-6.05 -92.3 -6.15 -92.35 -6.2 -92.4 -6.2 -92.55 -6.05 -92.65 M-13.2 -88.25 L-13.15 -87.8 Q-13.55 -87.65 -13.55 -88.05 L-13.2 -88.25 M1.2 -93.25 L1.1 -93.3 1.05 -93.55 1.1 -93.75 Q1.4 -93.75 1.4 -93.55 L1.3 -93.3 1.25 -93.25 1.2 -93.25 M2.1 -93.85 L2.0 -94.1 Q2.0 -94.5 2.35 -94.4 L2.3 -94.05 2.1 -93.85 M3.1 -91.25 Q3.1 -91.65 3.2 -91.55 L3.4 -90.95 3.25 -90.85 3.1 -90.95 3.1 -91.25 M0.0 -90.0 Q0.0 -90.45 0.15 -90.4 0.35 -89.6 0.15 -89.6 L0.0 -90.0 M0.7 -87.65 L0.4 -87.55 0.35 -87.7 0.55 -88.0 0.7 -87.65 M1.85 -89.7 Q1.85 -90.1 2.1 -90.1 L2.25 -89.45 1.95 -89.5 1.85 -89.7 M2.55 -88.4 L2.55 -88.5 Q2.55 -88.9 2.75 -88.9 L2.9 -88.5 2.55 -88.4 M-16.1 -99.3 L-16.1 -99.25 -16.2 -99.25 -16.1 -99.3 M-15.25 -99.7 L-15.0 -99.8 -14.8 -99.25 Q-15.15 -99.15 -15.25 -99.4 L-15.25 -99.65 -15.25 -99.7 M-10.15 -101.35 L-9.95 -101.4 -9.9 -101.4 -9.85 -100.95 Q-9.85 -100.9 -9.95 -100.9 -10.15 -100.9 -10.15 -101.35 M-11.3 -99.85 L-11.05 -100.3 Q-10.8 -99.7 -10.9 -99.6 -11.3 -99.5 -11.3 -99.85 M-8.65 -99.6 L-8.6 -99.7 -8.55 -99.65 -8.65 -99.6 M-5.9 -100.65 L-6.0 -100.9 -5.85 -101.2 -5.8 -100.7 -5.9 -100.65 M-7.75 -101.15 L-7.5 -101.55 -7.3 -100.9 Q-7.7 -100.7 -7.75 -101.15 M-0.5 -100.45 L-0.3 -101.05 -0.3 -100.3 -0.5 -100.45 M-1.0 -98.3 L-0.85 -98.75 Q-0.6 -97.85 -0.9 -97.85 L-1.0 -98.3 M-4.4 -98.65 L-4.15 -98.8 -4.3 -98.3 -4.4 -98.65 M-4.65 -97.7 L-4.6 -97.9 -4.45 -97.4 -4.6 -97.4 -4.65 -97.7 M-3.05 -93.65 L-2.9 -94.05 Q-2.7 -93.5 -2.8 -93.35 L-3.05 -93.5 -3.05 -93.65 M-1.75 -93.4 L-1.55 -93.65 -1.7 -93.15 -1.7 -93.2 -1.75 -93.25 -1.75 -93.4 M-0.8 -93.35 L-0.65 -93.65 -0.4 -93.05 Q-0.75 -92.95 -0.8 -93.2 L-0.8 -93.35 M-5.85 -97.1 L-5.8 -97.3 -5.7 -96.8 -5.85 -96.9 -5.85 -97.1 M-8.75 -96.55 Q-8.75 -97.0 -8.55 -96.95 L-8.3 -96.25 Q-8.75 -96.1 -8.75 -96.55 M-10.1 -93.55 L-9.9 -93.95 Q-9.7 -93.35 -9.8 -93.25 -10.15 -93.15 -10.1 -93.55 M-8.85 -93.15 L-8.9 -93.2 -8.9 -93.35 -8.75 -93.75 -8.6 -93.3 -8.85 -93.15 M-7.25 -94.1 L-7.25 -94.4 -7.15 -94.15 -7.25 -94.1 M-5.8 -94.95 L-5.85 -95.05 -5.6 -95.45 -5.45 -95.15 -5.6 -95.05 -5.8 -94.95 M-7.55 -95.7 L-7.3 -96.0 -7.15 -95.4 -7.3 -95.35 Q-7.5 -95.35 -7.55 -95.7 M-7.65 -91.25 L-7.5 -91.45 -7.25 -90.9 Q-7.55 -90.8 -7.65 -91.0 L-7.65 -91.25 M-8.85 -87.3 L-8.7 -87.85 -8.7 -87.2 -8.85 -87.3 M-9.95 -89.6 L-9.7 -89.95 -9.5 -89.2 Q-9.9 -89.05 -9.95 -89.6 M-7.65 -87.05 L-7.45 -87.3 -7.25 -86.65 Q-7.55 -86.55 -7.65 -86.8 L-7.65 -87.05 M-6.5 -89.2 Q-6.5 -89.6 -6.15 -89.45 -6.15 -88.9 -6.25 -88.9 L-6.5 -89.2 M-3.8 -91.75 L-3.55 -92.0 Q-3.4 -91.4 -3.55 -91.4 L-3.75 -91.65 -3.8 -91.75 M-5.0 -90.05 L-5.0 -90.3 -4.75 -89.7 -4.95 -89.8 -5.0 -90.05 M-2.05 -87.15 L-1.85 -87.6 -1.7 -86.9 -1.95 -86.8 -2.05 -87.15 M-1.1 -88.95 L-0.9 -89.35 -0.7 -88.6 -1.05 -88.65 -1.1 -88.95 M-13.3 -98.4 L-13.15 -98.75 -13.05 -98.1 Q-13.15 -98.1 -13.25 -98.2 L-13.3 -98.4 M-13.2 -95.35 L-13.2 -95.05 -13.5 -95.15 -13.2 -95.35 M-11.25 -91.75 L-11.3 -92.0 -11.1 -92.45 -10.95 -91.9 -11.25 -91.75 M-14.65 -93.5 L-14.5 -93.75 -14.6 -93.25 -14.65 -93.5 M-12.15 -94.05 Q-12.15 -94.4 -11.8 -94.25 L-12.0 -93.7 -12.15 -94.05 M-15.65 -97.1 L-15.5 -97.3 -15.25 -96.9 -15.4 -96.8 -15.6 -96.95 -15.65 -97.1 M-16.4 -92.45 L-16.25 -92.7 -16.05 -92.3 -16.2 -92.2 -16.35 -92.35 -16.4 -92.45 M-17.35 -89.9 L-17.25 -90.3 Q-17.0 -90.3 -17.0 -89.9 L-17.05 -89.65 -17.1 -89.6 -17.25 -89.55 -17.35 -89.7 -17.35 -89.9 M-14.85 -90.35 L-14.65 -90.7 -14.45 -90.0 -14.8 -90.15 -14.85 -90.35 M-13.25 -91.1 L-13.2 -91.35 -12.9 -91.1 -13.15 -90.85 -13.2 -90.95 -13.25 -91.1 M-11.75 -88.6 L-11.55 -89.0 -11.35 -88.25 Q-11.7 -88.15 -11.75 -88.4 L-11.75 -88.6 M-11.35 -86.35 L-11.2 -86.75 Q-10.95 -86.4 -11.05 -86.2 L-11.35 -86.2 -11.35 -86.35" fill="#fe9767" fill-rule="evenodd" stroke="none"/>
    <path d="M-5.8 -85.9 L-4.65 -87.1 -4.55 -87.15 -4.5 -87.2 -4.45 -87.2 -3.35 -88.0 -3.3 -87.95 -3.15 -87.85 Q-3.05 -87.85 -3.1 -88.15 L3.1 -92.55 Q3.3 -91.3 3.95 -90.25 L4.0 -90.1 4.1 -90.0 4.2 -89.8 4.6 -89.05 4.65 -89.0 4.0 -88.9 3.75 -88.75 2.9 -88.5 2.75 -88.9 Q2.55 -88.9 2.55 -88.5 L2.55 -88.4 0.7 -87.65 0.55 -88.0 0.35 -87.7 0.4 -87.55 -2.85 -86.35 -4.9 -85.9 -5.8 -85.9 M-12.05 -96.0 L-11.95 -96.0 -11.2 -96.05 -11.1 -96.05 -10.6 -96.05 -10.4 -95.85 -10.2 -96.05 -9.1 -96.1 -8.75 -96.1 -3.8 -96.05 -3.75 -96.05 -3.85 -96.0 -5.05 -95.35 -5.45 -95.15 -5.6 -95.45 -5.85 -95.05 -5.8 -94.95 -5.95 -94.9 -6.0 -94.9 -7.05 -94.25 -7.1 -94.15 -7.15 -94.15 -7.25 -94.4 -7.25 -94.1 -7.65 -93.85 -8.1 -93.65 -8.6 -93.3 -8.75 -93.75 -8.9 -93.35 -8.9 -93.2 -8.85 -93.15 -10.95 -91.9 -11.1 -92.45 -11.3 -92.0 -11.25 -91.75 -12.05 -91.25 -14.45 -89.8 -14.4 -89.8 -14.65 -89.65 -16.4 -88.9 -16.5 -88.85 -16.8 -88.7 -15.75 -93.55 -14.35 -94.65 -14.4 -94.65 -13.5 -95.15 -13.2 -95.05 -13.2 -95.35 -12.05 -96.0 M3.05 -95.55 L2.95 -95.05 2.95 -94.5 2.6 -94.2 2.3 -94.05 2.35 -94.4 Q2.0 -94.5 2.0 -94.1 L2.1 -93.85 1.3 -93.3 1.4 -93.55 Q1.4 -93.75 1.1 -93.75 L1.05 -93.55 1.1 -93.3 1.2 -93.25 -4.9 -88.75 -4.95 -88.7 -5.0 -88.7 -6.15 -87.4 -6.35 -87.25 -6.4 -87.2 -6.45 -87.2 -6.7 -86.7 -6.85 -86.4 -6.85 -86.35 -6.9 -86.25 -6.9 -85.95 -6.95 -85.9 -6.95 -85.85 -6.95 -85.75 -6.95 -85.5 -6.9 -85.45 -9.5 -85.75 -10.4 -85.75 -11.6 -85.85 -11.8 -85.9 -14.95 -86.6 -16.25 -86.75 Q-15.4 -87.1 -14.1 -87.75 L-13.55 -88.05 Q-13.55 -87.65 -13.15 -87.8 L-13.2 -88.25 -6.2 -92.55 -6.2 -92.4 -6.15 -92.35 -6.05 -92.3 -6.05 -92.65 -5.65 -92.85 -1.35 -95.05 -0.6 -95.35 -0.6 -95.15 -0.6 -94.9 -0.25 -95.4 -0.4 -95.4 -0.25 -95.45 0.55 -95.7 0.55 -95.55 0.75 -95.8 0.9 -95.8 3.05 -95.55 M3.1 -91.25 L3.1 -90.95 3.25 -90.85 3.4 -90.95 3.2 -91.55 Q3.1 -91.65 3.1 -91.25 M4.95 -87.85 L4.95 -87.7 4.8 -87.6 3.95 -86.95 3.25 -86.6 3.15 -86.55 1.0 -86.2 0.45 -86.15 3.85 -87.6 4.95 -87.85 M0.0 -90.0 L0.15 -89.6 Q0.35 -89.6 0.15 -90.4 0.0 -90.45 0.0 -90.0 M1.85 -89.7 L1.95 -89.5 2.25 -89.45 2.1 -90.1 Q1.85 -90.1 1.85 -89.7 M-14.45 -102.1 L-13.95 -102.2 -13.95 -102.25 -13.9 -102.25 -13.95 -102.2 -14.25 -102.1 -14.45 -102.1 M-3.05 -93.65 L-3.05 -93.5 -2.8 -93.35 Q-2.7 -93.5 -2.9 -94.05 L-3.05 -93.65 M-0.8 -93.35 L-0.8 -93.2 Q-0.75 -92.95 -0.4 -93.05 L-0.65 -93.65 -0.8 -93.35 M-1.75 -93.4 L-1.75 -93.25 -1.7 -93.2 -1.7 -93.15 -1.55 -93.65 -1.75 -93.4 M-10.1 -93.55 Q-10.15 -93.15 -9.8 -93.25 -9.7 -93.35 -9.9 -93.95 L-10.1 -93.55 M-7.55 -95.7 Q-7.5 -95.35 -7.3 -95.35 L-7.15 -95.4 -7.3 -96.0 -7.55 -95.7 M-5.0 -90.05 L-4.95 -89.8 -4.75 -89.7 -5.0 -90.3 -5.0 -90.05 M-3.8 -91.75 L-3.75 -91.65 -3.55 -91.4 Q-3.4 -91.4 -3.55 -92.0 L-3.8 -91.75 M-6.5 -89.2 L-6.25 -88.9 Q-6.15 -88.9 -6.15 -89.45 -6.5 -89.6 -6.5 -89.2 M-7.65 -87.05 L-7.65 -86.8 Q-7.55 -86.55 -7.25 -86.65 L-7.45 -87.3 -7.65 -87.05 M-9.95 -89.6 Q-9.9 -89.05 -9.5 -89.2 L-9.7 -89.95 -9.95 -89.6 M-8.85 -87.3 L-8.7 -87.2 -8.7 -87.85 -8.85 -87.3 M-7.65 -91.25 L-7.65 -91.0 Q-7.55 -90.8 -7.25 -90.9 L-7.5 -91.45 -7.65 -91.25 M-1.1 -88.95 L-1.05 -88.65 -0.7 -88.6 -0.9 -89.35 -1.1 -88.95 M-2.05 -87.15 L-1.95 -86.8 -1.7 -86.9 -1.85 -87.6 -2.05 -87.15 M-12.15 -94.05 L-12.0 -93.7 -11.8 -94.25 Q-12.15 -94.4 -12.15 -94.05 M-14.65 -93.5 L-14.6 -93.25 -14.5 -93.75 -14.65 -93.5 M-13.25 -91.1 L-13.2 -90.95 -13.15 -90.85 -12.9 -91.1 -13.2 -91.35 -13.25 -91.1 M-14.85 -90.35 L-14.8 -90.15 -14.45 -90.0 -14.65 -90.7 -14.85 -90.35 M-11.35 -86.35 L-11.35 -86.2 -11.05 -86.2 Q-10.95 -86.4 -11.2 -86.75 L-11.35 -86.35 M-11.75 -88.6 L-11.75 -88.4 Q-11.7 -88.15 -11.35 -88.25 L-11.55 -89.0 -11.75 -88.6" fill="#a95934" fill-rule="evenodd" stroke="none"/>
    <path d="M7.7 -83.2 L7.7 -82.95 Q7.65 -80.75 6.55 -79.65 7.65 -80.8 7.7 -83.2 M2.4 -78.1 L1.7 -77.95 1.7 -82.9 2.35 -83.0 2.4 -78.1 M0.65 -77.8 L-0.4 -77.65 -0.7 -82.55 -0.5 -82.55 0.55 -82.7 0.65 -79.05 0.65 -77.8 M-0.9 -77.6 L-3.05 -77.45 -3.15 -78.6 -3.5 -82.3 -3.15 -82.4 -0.85 -82.55 -0.95 -82.5 -0.9 -78.9 -0.9 -77.6 M-3.45 -77.45 L-3.95 -77.4 -4.0 -80.25 -4.25 -82.3 -3.5 -82.3 -3.5 -80.0 -3.55 -79.75 -3.45 -77.45 M-10.6 -77.45 L-12.1 -77.55 -12.1 -78.85 -12.15 -78.9 -12.15 -82.45 -10.6 -82.3 -10.6 -77.45 M-16.2 -78.15 L-16.2 -78.1 -16.3 -78.1 -17.1 -78.3 -17.25 -83.2 -16.35 -83.05 -16.3 -79.2 -16.25 -78.7 -16.2 -78.15 M4.95 -83.65 L5.15 -83.65 5.45 -83.85 5.5 -82.65 Q5.45 -83.35 4.95 -83.65" fill="#bb7d41" fill-rule="evenodd" stroke="none"/>
    <path d="M-17.15 -94.95 L-17.0 -95.6 -16.25 -99.2 -16.2 -99.25 -16.1 -99.25 -16.1 -99.3 -15.25 -99.7 -15.25 -99.65 -15.25 -99.4 Q-15.15 -99.15 -14.8 -99.25 L-15.0 -99.8 -14.45 -100.1 -14.35 -100.1 -15.2 -96.2 -15.65 -95.95 -15.7 -95.95 -15.9 -95.8 -17.15 -94.7 -17.15 -94.85 -17.15 -94.95 M-15.65 -97.1 L-15.6 -96.95 -15.4 -96.8 -15.25 -96.9 -15.5 -97.3 -15.65 -97.1" fill="#793f25" fill-rule="evenodd" stroke="none"/>
    <path d="M-3.05 -77.45 L-3.45 -77.45 -3.55 -79.75 -3.5 -80.0 -3.5 -82.3 -3.15 -78.6 -3.05 -77.45 M-3.95 -77.4 L-6.9 -77.4 -10.6 -77.45 -10.6 -82.3 -7.05 -82.3 -7.0 -82.3 -6.9 -82.3 -6.75 -82.25 -5.55 -82.25 -4.25 -82.3 -4.0 -80.25 -3.95 -77.4 M-12.1 -77.55 L-12.3 -77.55 -12.6 -77.6 -12.7 -77.6 -12.7 -77.7 -12.7 -78.45 -12.65 -82.5 -12.15 -82.45 -12.15 -78.9 -12.1 -78.85 -12.1 -77.55" fill="#d18d4b" fill-rule="evenodd" stroke="none"/>
    <path d="M-13.15 -106.25 L2.0 -106.25 2.1 -106.25 4.2 -105.85 Q5.2 -105.7 6.05 -104.5 6.8 -103.65 7.0 -102.0 L7.0 -102.1 7.05 -101.5 7.05 -101.1 7.05 -100.6 7.05 -95.8 7.05 -95.65 7.05 -95.5 7.05 -95.4 7.0 -93.8 7.5 -92.85 Q8.8 -91.1 8.8 -88.15 L8.8 -88.05 8.8 -83.2 8.8 -82.95 8.8 -82.9 Q8.7 -78.4 5.4 -77.4 L5.35 -77.4 Q0.15 -75.9 -6.9 -76.0 -13.9 -75.9 -19.15 -77.4 L-19.35 -77.45 -19.15 -78.45 -18.95 -78.4 Q-13.8 -76.9 -6.9 -77.0 0.0 -76.9 5.15 -78.4 7.85 -79.25 7.9 -82.95 L7.9 -83.2 7.9 -88.05 7.9 -88.15 Q7.9 -90.7 6.8 -92.2 6.35 -92.85 6.1 -93.65 L6.1 -93.8 6.15 -95.4 6.15 -95.5 6.15 -95.65 6.15 -95.8 6.15 -100.6 6.15 -101.1 6.15 -101.5 6.1 -101.9 Q6.0 -103.2 5.35 -103.9 4.75 -104.75 4.0 -104.9 L2.0 -105.25 -13.35 -105.25 -13.15 -106.25" fill="#ffffff" fill-rule="evenodd" stroke="none"/>
    <path d="M5.2 -97.05 L5.2 -97.8 5.2 -99.75 5.2 -99.85 5.2 -99.95 Q5.25 -102.8 3.45 -103.4 L1.15 -103.8 -13.6 -103.8 -13.4 -104.85 2.0 -104.85 3.95 -104.55 Q4.65 -104.35 5.25 -103.55 5.8 -102.9 5.9 -101.85 L5.95 -101.5 5.95 -101.1 5.95 -100.6 5.75 -95.8 5.7 -95.5 5.7 -95.4 5.3 -95.4 5.3 -95.45 5.35 -95.6 5.35 -95.9 5.35 -96.0 5.3 -96.4 5.3 -96.45 5.25 -96.85 5.2 -97.05" fill="#d0923e" fill-rule="evenodd" stroke="none"/>
    <path d="M5.7 -95.4 Q5.65 -94.75 5.75 -94.2 L5.85 -93.75 5.9 -93.55 5.95 -93.5 Q6.2 -92.65 6.7 -91.85 7.7 -90.5 7.7 -88.15 L7.7 -88.05 7.7 -86.85 7.35 -85.75 Q6.8 -84.4 5.45 -83.85 L5.15 -83.65 4.95 -83.65 2.5 -83.05 2.35 -83.0 1.7 -82.9 0.85 -82.7 0.55 -82.7 -0.5 -82.55 -0.7 -82.55 -0.8 -82.55 -0.85 -82.55 -3.15 -82.4 -3.5 -82.3 -4.25 -82.3 -5.55 -82.25 -6.75 -82.25 -6.9 -82.3 -7.0 -82.3 -7.05 -82.3 -10.6 -82.3 -12.15 -82.45 -12.65 -82.5 -15.4 -82.9 -16.35 -83.05 -17.25 -83.2 -18.0 -83.4 -17.75 -84.55 Q-13.05 -83.35 -6.9 -83.5 -0.45 -83.35 4.35 -84.7 5.9 -85.1 6.45 -86.55 6.85 -87.35 6.9 -88.55 L6.9 -88.7 Q6.9 -90.85 5.95 -92.15 5.4 -92.75 5.2 -93.5 L5.2 -93.55 5.15 -93.85 5.1 -94.1 5.05 -94.6 5.2 -94.85 5.3 -95.25 5.3 -95.4 5.7 -95.4" fill="#edac53" fill-rule="evenodd" stroke="none"/>
    <path d="M3.85 -93.2 L4.9 -94.3 5.05 -94.6 5.1 -94.1 5.15 -93.85 5.2 -93.55 5.2 -93.5 Q5.4 -92.75 5.95 -92.15 6.9 -90.85 6.9 -88.7 L6.9 -88.55 Q6.85 -87.35 6.45 -86.55 5.9 -85.1 4.35 -84.7 -0.45 -83.35 -6.9 -83.5 -13.05 -83.35 -17.75 -84.55 L-17.5 -85.6 -17.5 -85.65 -17.3 -85.55 -17.5 -85.8 -17.4 -86.2 -17.0 -86.1 Q-16.55 -85.75 -15.3 -85.4 L-13.55 -85.05 -12.1 -84.8 -10.6 -84.75 -10.1 -84.55 -10.15 -84.35 -10.1 -84.1 -10.05 -84.0 -9.45 -84.05 -9.45 -84.4 -9.85 -84.5 -8.45 -84.45 -8.1 -84.5 -8.15 -84.45 -7.1 -84.4 -7.1 -84.3 Q-7.0 -83.95 -6.15 -83.95 -5.05 -83.95 -4.6 -84.3 L-2.85 -84.3 -2.65 -84.3 -2.1 -84.35 Q0.4 -84.35 1.55 -84.95 L1.65 -85.0 1.8 -85.0 1.85 -85.0 2.1 -85.35 2.3 -85.3 Q4.75 -85.9 5.3 -86.75 L5.65 -87.75 5.65 -88.25 5.65 -88.3 5.65 -88.6 5.5 -89.6 5.55 -89.55 5.9 -89.9 5.75 -90.6 5.4 -89.85 5.4 -89.7 5.3 -89.95 4.7 -91.0 4.5 -91.4 Q4.55 -91.25 4.75 -91.3 4.75 -92.25 4.4 -91.45 L3.85 -93.2 M-13.55 -85.05 L-13.6 -84.85 -13.45 -84.4 Q-13.25 -84.15 -13.0 -84.15 -12.75 -84.15 -12.7 -84.55 L-13.55 -85.05 M6.1 -88.4 L6.15 -88.25 Q6.2 -88.1 6.4 -88.25 L6.15 -89.0 6.1 -88.4 M-16.2 -85.2 L-16.2 -85.05 -15.95 -84.6 -15.65 -85.0 -16.15 -85.25 -16.2 -85.2" fill="#f5d781" fill-rule="evenodd" stroke="none"/>
  </g>
</svg>
