<?xml version="1.0" encoding="UTF-8" standalone="no"?>
<svg xmlns:ffdec="https://www.free-decompiler.com/flash" xmlns:xlink="http://www.w3.org/1999/xlink" ffdec:objectType="shape" height="105.15px" width="112.5px" xmlns="http://www.w3.org/2000/svg">
  <g transform="matrix(1.0, 0.0, 0.0, 1.0, 107.75, 124.2)">
    <path d="M-54.4 -36.95 Q-59.05 -28.6 -68.65 -25.9 -82.05 -22.2 -92.8 -30.8 -97.3 -34.35 -98.5 -40.15 -107.95 -46.5 -107.75 -58.25 -107.65 -64.05 -103.65 -68.0 -95.9 -75.45 -85.75 -79.05 -85.15 -92.15 -75.2 -100.6 -68.2 -106.55 -58.85 -106.0 -56.5 -116.55 -45.9 -118.4 L-42.25 -118.0 Q-30.25 -128.5 -15.3 -121.2 -7.9 -117.65 -5.1 -109.95 2.5 -103.9 4.7 -94.6 5.6 -81.1 -5.9 -73.6 -8.95 -71.6 -12.2 -69.9 L-14.15 -68.95 Q-17.3 -67.5 -20.65 -66.35 -24.15 -65.05 -23.5 -61.4 -21.15 -48.25 -31.65 -40.65 -38.8 -35.5 -47.45 -38.0 L-53.05 -39.75 -53.45 -38.8 -54.4 -36.95 M-95.6 -52.0 L-95.75 -51.15 -96.4 -43.45 -96.4 -43.3 -96.35 -41.4 -96.3 -40.6 Q-95.3 -30.4 -78.95 -27.15 -65.9 -25.55 -57.8 -35.95 L-56.0 -38.45 -54.95 -40.2 -54.4 -41.2 -56.25 -44.75 Q-57.7 -48.15 -58.25 -51.8 L-58.5 -53.85 -58.6 -55.3 -58.45 -54.7 -58.25 -53.95 -57.65 -52.05 -57.2 -50.95 Q-56.05 -47.95 -54.3 -45.05 -51.3 -40.2 -43.25 -39.15 -35.2 -38.15 -29.0 -46.2 -23.65 -53.15 -25.55 -64.25 L-26.0 -66.35 -25.25 -66.65 -15.85 -70.35 -15.7 -70.4 -13.65 -71.2 Q-5.45 -74.65 -3.0 -77.9 L1.0 -83.45 Q5.55 -95.8 -3.95 -105.8 -6.45 -108.4 -10.2 -108.9 L-14.2 -109.3 -15.0 -109.3 -16.6 -109.25 -16.7 -109.25 -17.45 -109.15 Q-20.95 -108.75 -23.95 -107.25 -27.05 -105.7 -29.75 -103.0 L-31.2 -101.4 Q-32.6 -99.75 -36.1 -96.6 L-37.85 -95.05 -39.8 -93.4 -38.75 -95.3 -37.6 -97.15 Q-28.45 -111.65 -14.0 -111.3 L-12.85 -111.25 -11.5 -111.2 -11.1 -111.2 -8.1 -110.95 Q-15.15 -123.45 -29.35 -122.05 -42.0 -120.5 -45.95 -107.6 -46.55 -105.55 -48.5 -104.9 L-43.3 -116.25 Q-55.0 -115.45 -56.65 -104.65 L-56.9 -101.6 Q-56.9 -101.0 -58.9 -93.65 L-58.9 -104.15 Q-68.45 -103.25 -75.4 -97.45 -78.5 -94.9 -79.5 -93.2 L-81.4 -89.95 Q-82.25 -88.45 -83.25 -83.8 L-83.5 -80.4 Q-77.85 -82.0 -74.5 -83.15 -75.85 -81.25 -84.2 -78.15 -92.6 -75.05 -98.7 -69.6 -104.8 -64.15 -105.7 -57.25 -106.6 -50.35 -98.55 -42.7 -99.65 -60.8 -84.45 -70.55 L-83.9 -70.85 Q-81.5 -72.25 -76.45 -73.4 L-81.8 -70.4 Q-90.2 -65.2 -93.05 -59.55 -94.75 -56.2 -95.6 -52.0" fill="#515151" fill-rule="evenodd" stroke="none"/>
    <path d="M-81.8 -70.4 L-76.45 -73.4 Q-81.5 -72.25 -83.9 -70.85 L-84.45 -70.55 Q-99.65 -60.8 -98.55 -42.7 -106.6 -50.35 -105.7 -57.25 -104.8 -64.15 -98.7 -69.6 -92.6 -75.05 -84.2 -78.15 -75.85 -81.25 -74.5 -83.15 -77.85 -82.0 -83.5 -80.4 L-83.25 -83.8 Q-82.25 -88.45 -81.4 -89.95 L-79.5 -93.2 Q-78.5 -94.9 -75.4 -97.45 -68.45 -103.25 -58.9 -104.15 L-58.9 -93.65 Q-56.9 -101.0 -56.9 -101.6 L-56.65 -104.65 Q-55.0 -115.45 -43.3 -116.25 L-48.5 -104.9 Q-46.55 -105.55 -45.95 -107.6 -42.0 -120.5 -29.35 -122.05 -15.15 -123.45 -8.1 -110.95 L-11.1 -111.2 -11.5 -111.2 -12.85 -111.25 -14.0 -111.3 Q-28.45 -111.65 -37.6 -97.15 L-38.75 -95.3 -39.8 -93.4 -37.85 -95.05 -36.1 -96.6 Q-32.6 -99.75 -31.2 -101.4 L-29.75 -103.0 Q-27.05 -105.7 -23.95 -107.25 -20.95 -108.75 -17.45 -109.15 L-16.7 -109.25 -16.6 -109.25 -15.0 -109.3 -14.2 -109.3 -10.2 -108.9 Q-6.45 -108.4 -3.95 -105.8 5.55 -95.8 1.0 -83.45 L-3.0 -77.9 Q-5.45 -74.65 -13.65 -71.2 L-15.7 -70.4 -15.85 -70.35 -25.25 -66.65 -26.0 -66.35 -25.55 -64.25 Q-23.65 -53.15 -29.0 -46.2 -35.2 -38.15 -43.25 -39.15 -51.3 -40.2 -54.3 -45.05 -56.05 -47.95 -57.2 -50.95 L-57.65 -52.05 -58.25 -53.95 -58.45 -54.7 -58.6 -55.3 -58.5 -53.85 -58.25 -51.8 Q-57.7 -48.15 -56.25 -44.75 L-54.4 -41.2 -54.95 -40.2 -56.0 -38.45 -57.8 -35.95 Q-65.9 -25.55 -78.95 -27.15 -95.3 -30.4 -96.3 -40.6 L-96.35 -41.4 -96.4 -43.3 -96.4 -43.45 -95.75 -51.15 -95.6 -52.0 -95.55 -52.15 Q-95.45 -45.7 -94.1 -41.9 -92.15 -36.3 -87.9 -33.7 -85.35 -32.6 -83.55 -32.6 -74.25 -32.6 -68.05 -35.4 -64.75 -36.95 -62.9 -39.0 -61.6 -40.5 -60.95 -42.75 L-60.95 -42.9 -60.45 -44.9 -60.05 -46.85 -60.05 -50.8 -60.0 -51.15 -60.0 -51.6 -60.3 -53.15 -61.15 -58.25 Q-61.15 -63.3 -60.75 -66.15 -60.1 -70.8 -58.25 -73.1 L-57.8 -72.95 Q-57.65 -72.85 -57.65 -72.45 -59.55 -65.0 -59.55 -63.45 L-59.1 -58.3 -59.3 -58.65 Q-58.9 -57.95 -58.7 -56.85 L-58.25 -55.85 -57.55 -54.25 -56.5 -52.6 -56.45 -52.55 Q-52.95 -47.9 -44.9 -47.9 -36.4 -47.9 -31.95 -54.85 -29.1 -59.4 -29.1 -63.05 -29.1 -66.65 -32.45 -70.0 L-34.8 -72.55 -35.35 -73.3 -35.35 -73.35 -36.25 -74.1 -37.0 -74.8 Q-39.8 -77.0 -45.75 -77.4 L-46.15 -77.55 -46.3 -78.0 Q-46.3 -80.55 -40.55 -78.2 -37.75 -77.05 -35.4 -75.65 L-33.7 -74.55 -31.75 -73.1 -31.1 -72.55 -24.9 -72.65 -19.85 -74.5 -17.85 -75.35 Q-11.15 -78.4 -7.9 -82.2 -4.0 -86.7 -4.0 -93.65 -4.0 -99.1 -8.7 -103.4 -12.9 -107.3 -17.0 -107.3 -20.65 -107.3 -24.35 -105.8 L-28.05 -104.15 -30.0 -101.8 Q-32.0 -99.4 -35.15 -96.15 L-36.7 -94.6 -37.7 -93.65 Q-43.2 -88.35 -44.35 -88.35 -45.35 -88.35 -45.55 -88.9 L-45.6 -89.55 -43.55 -91.9 -40.65 -95.5 -40.3 -96.15 -39.35 -97.45 -37.85 -99.3 -35.25 -102.75 Q-32.45 -107.7 -24.65 -110.6 L-18.95 -112.5 Q-16.0 -113.45 -15.0 -114.1 -15.0 -115.2 -17.0 -116.05 -19.25 -117.05 -22.5 -116.8 L-22.55 -116.85 Q-31.05 -116.1 -36.45 -111.35 -38.55 -109.55 -39.95 -107.4 L-41.05 -105.35 -46.2 -96.75 -47.8 -94.15 -48.8 -92.6 -53.0 -86.3 Q-55.95 -82.45 -59.9 -79.85 L-60.3 -79.55 -60.15 -80.1 Q-59.3 -83.05 -59.3 -85.75 L-59.35 -87.55 -59.55 -89.9 -59.9 -91.9 Q-60.6 -95.75 -61.75 -97.35 -66.55 -101.55 -71.25 -96.15 -72.8 -94.45 -74.1 -91.95 L-75.1 -89.55 Q-75.1 -88.25 -73.2 -87.8 L-69.1 -87.25 Q-66.2 -86.8 -64.7 -85.4 L-63.5 -83.75 Q-63.1 -82.7 -63.1 -81.4 L-63.5 -79.25 -67.75 -79.1 -70.4 -78.95 Q-78.15 -78.3 -83.55 -76.5 -87.95 -75.05 -92.85 -71.65 -95.1 -70.1 -98.75 -65.9 -102.75 -61.3 -102.75 -59.6 L-102.7 -58.8 -101.75 -58.05 -100.5 -58.05 Q-99.15 -59.35 -96.45 -63.0 -93.85 -66.45 -91.75 -68.35 -85.2 -74.25 -72.1 -76.45 L-70.25 -76.75 -65.0 -76.75 Q-67.45 -75.6 -70.8 -74.8 L-72.3 -74.5 -73.55 -74.05 -77.7 -72.2 -81.8 -70.4 M-51.75 -99.4 L-51.5 -101.5 -51.15 -103.55 -50.15 -106.05 -49.5 -107.7 Q-49.5 -109.2 -50.65 -109.3 -51.9 -109.35 -52.75 -107.0 L-53.8 -102.3 -56.05 -92.65 -56.0 -92.4 Q-55.95 -91.65 -55.25 -91.65 -54.3 -91.65 -53.3 -93.95 L-52.95 -94.9 Q-52.05 -97.3 -51.75 -99.4 M-10.25 -44.15 Q-8.55 -47.0 -7.45 -49.95 L-6.85 -49.15 -2.9 -45.35 Q-4.1 -42.1 -6.1 -39.0 L-7.5 -40.5 -10.25 -44.15 M-9.05 -35.0 L-11.85 -31.95 Q-17.1 -26.7 -22.65 -23.9 L-23.2 -24.6 -26.15 -28.5 Q-22.1 -30.65 -17.8 -34.8 L-16.55 -36.05 -13.45 -39.55 -13.3 -39.7 -13.25 -39.8 -13.15 -39.9 -9.05 -35.0 M-26.55 -22.3 L-28.4 -21.75 -29.35 -21.55 -32.05 -25.45 -32.3 -25.8 -29.95 -26.65 -26.55 -22.3" fill="#d7d7d7" fill-rule="evenodd" stroke="none"/>
    <path d="M-81.8 -70.4 L-77.7 -72.2 -73.55 -74.05 -72.3 -74.5 -70.8 -74.8 Q-67.45 -75.6 -65.0 -76.75 L-70.25 -76.75 -72.1 -76.45 Q-85.2 -74.25 -91.75 -68.35 -93.85 -66.45 -96.45 -63.0 -99.15 -59.35 -100.5 -58.05 L-101.75 -58.05 -102.7 -58.8 -102.75 -59.6 Q-102.75 -61.3 -98.75 -65.9 -95.1 -70.1 -92.85 -71.65 -87.95 -75.05 -83.55 -76.5 -78.15 -78.3 -70.4 -78.95 L-67.75 -79.1 -63.5 -79.25 -63.1 -81.4 Q-63.1 -82.7 -63.5 -83.75 L-64.7 -85.4 Q-66.2 -86.8 -69.1 -87.25 L-73.2 -87.8 Q-75.1 -88.25 -75.1 -89.55 L-74.1 -91.95 Q-72.8 -94.45 -71.25 -96.15 -66.55 -101.55 -61.75 -97.35 -60.6 -95.75 -59.9 -91.9 L-59.55 -89.9 -59.35 -87.55 -59.3 -85.75 Q-59.3 -83.05 -60.15 -80.1 L-60.3 -79.55 -59.9 -79.85 Q-55.95 -82.45 -53.0 -86.3 L-48.8 -92.6 -47.8 -94.15 -46.2 -96.75 -41.05 -105.35 -39.95 -107.4 Q-38.55 -109.55 -36.45 -111.35 -31.05 -116.1 -22.55 -116.85 L-22.5 -116.8 Q-19.25 -117.05 -17.0 -116.05 -15.0 -115.2 -15.0 -114.1 -16.0 -113.45 -18.95 -112.5 L-24.65 -110.6 Q-32.45 -107.7 -35.25 -102.75 L-37.85 -99.3 -39.35 -97.45 -40.3 -96.15 -40.65 -95.5 -43.55 -91.9 -45.6 -89.55 -45.55 -88.9 Q-45.35 -88.35 -44.35 -88.35 -43.2 -88.35 -37.7 -93.65 L-36.7 -94.6 -35.15 -96.15 Q-32.0 -99.4 -30.0 -101.8 L-28.05 -104.15 -24.35 -105.8 Q-20.65 -107.3 -17.0 -107.3 -12.9 -107.3 -8.7 -103.4 -4.0 -99.1 -4.0 -93.65 -4.0 -86.7 -7.9 -82.2 -11.15 -78.4 -17.85 -75.35 L-19.85 -74.5 -24.9 -72.65 -31.1 -72.55 -31.75 -73.1 -33.7 -74.55 -35.4 -75.65 Q-37.75 -77.05 -40.55 -78.2 -46.3 -80.55 -46.3 -78.0 L-46.15 -77.55 -45.75 -77.4 Q-39.8 -77.0 -37.0 -74.8 L-36.25 -74.1 -35.35 -73.35 -35.35 -73.3 -34.8 -72.55 -32.45 -70.0 Q-29.1 -66.65 -29.1 -63.05 -29.1 -59.4 -31.95 -54.85 -36.4 -47.9 -44.9 -47.9 -52.95 -47.9 -56.45 -52.55 L-56.5 -52.6 -57.55 -54.25 -58.25 -55.85 -58.7 -56.85 Q-58.9 -57.95 -59.3 -58.65 L-59.1 -58.3 -59.55 -63.45 Q-59.55 -65.0 -57.65 -72.45 -57.65 -72.85 -57.8 -72.95 L-58.25 -73.1 Q-60.1 -70.8 -60.75 -66.15 -61.15 -63.3 -61.15 -58.25 L-60.3 -53.15 -60.0 -51.6 -60.0 -51.15 -60.05 -50.8 -60.05 -46.85 -60.45 -44.9 -60.95 -42.9 -60.95 -42.75 Q-61.6 -40.5 -62.9 -39.0 -64.75 -36.95 -68.05 -35.4 -74.25 -32.6 -83.55 -32.6 -85.35 -32.6 -87.9 -33.7 -92.15 -36.3 -94.1 -41.9 -95.45 -45.7 -95.55 -52.15 L-95.6 -52.0 Q-94.75 -56.2 -93.05 -59.55 -90.2 -65.2 -81.8 -70.4 M-51.75 -99.4 Q-52.05 -97.3 -52.95 -94.9 L-53.3 -93.95 Q-54.3 -91.65 -55.25 -91.65 -55.95 -91.65 -56.0 -92.4 L-56.05 -92.65 -53.8 -102.3 -52.75 -107.0 Q-51.9 -109.35 -50.65 -109.3 -49.5 -109.2 -49.5 -107.7 L-50.15 -106.05 -51.15 -103.55 -51.5 -101.5 -51.75 -99.4 M-34.4 -66.4 Q-34.4 -68.75 -37.6 -71.5 -40.7 -74.15 -44.55 -75.2 -48.9 -76.4 -51.55 -74.7 -54.75 -72.65 -54.75 -66.9 -54.85 -63.95 -54.0 -61.4 -52.25 -56.4 -47.25 -56.4 -41.8 -56.4 -37.65 -60.85 -34.4 -64.35 -34.4 -66.4 M-87.35 -48.75 Q-87.35 -45.5 -83.25 -43.9 -79.95 -42.65 -74.85 -42.65 -70.0 -42.65 -68.2 -46.25 -66.85 -48.95 -66.1 -57.15 -66.0 -58.25 -66.05 -61.1 L-65.85 -64.85 -64.75 -68.55 Q-63.85 -71.55 -63.85 -72.55 -63.85 -74.65 -67.5 -73.1 -71.1 -71.6 -75.6 -67.75 -87.35 -57.8 -87.35 -48.75 M-23.0 -102.05 L-25.75 -99.75 Q-27.0 -98.95 -28.05 -97.55 L-29.6 -95.55 Q-37.95 -87.1 -47.2 -83.6 -49.4 -82.8 -52.3 -81.9 -54.1 -81.2 -54.1 -80.3 L-54.05 -79.65 Q-53.85 -79.1 -52.85 -79.1 L-48.4 -80.1 Q-43.75 -81.3 -37.25 -81.9 L-34.3 -82.15 -26.0 -82.55 -23.3 -82.8 -22.5 -83.25 -17.65 -85.35 Q-13.45 -87.0 -11.55 -89.9 -10.1 -92.1 -10.1 -94.55 -10.1 -96.7 -11.55 -98.8 -13.3 -101.3 -16.5 -102.55 -20.75 -103.3 -23.0 -102.05" fill="#f0f0f0" fill-rule="evenodd" stroke="none"/>
    <path d="M-23.0 -102.05 Q-20.75 -103.3 -16.5 -102.55 -13.3 -101.3 -11.55 -98.8 -10.1 -96.7 -10.1 -94.55 -10.1 -92.1 -11.55 -89.9 -13.45 -87.0 -17.65 -85.35 L-22.5 -83.25 -23.3 -82.8 -26.0 -82.55 -34.3 -82.15 -37.25 -81.9 Q-43.75 -81.3 -48.4 -80.1 L-52.85 -79.1 Q-53.85 -79.1 -54.05 -79.65 L-54.1 -80.3 Q-54.1 -81.2 -52.3 -81.9 -49.4 -82.8 -47.2 -83.6 -37.95 -87.1 -29.6 -95.55 L-28.05 -97.55 Q-27.0 -98.95 -25.75 -99.75 L-23.0 -102.05 M-87.35 -48.75 Q-87.35 -57.8 -75.6 -67.75 -71.1 -71.6 -67.5 -73.1 -63.85 -74.65 -63.85 -72.55 -63.85 -71.55 -64.75 -68.55 L-65.85 -64.85 -66.05 -61.1 Q-66.0 -58.25 -66.1 -57.15 -66.85 -48.95 -68.2 -46.25 -70.0 -42.65 -74.85 -42.65 -79.95 -42.65 -83.25 -43.9 -87.35 -45.5 -87.35 -48.75 M-34.4 -66.4 Q-34.4 -64.35 -37.65 -60.85 -41.8 -56.4 -47.25 -56.4 -52.25 -56.4 -54.0 -61.4 -54.85 -63.95 -54.75 -66.9 -54.75 -72.65 -51.55 -74.7 -48.9 -76.4 -44.55 -75.2 -40.7 -74.15 -37.6 -71.5 -34.4 -68.75 -34.4 -66.4" fill="#fcfcfc" fill-rule="evenodd" stroke="none"/>
    <path d="M-53.45 -38.8 L-53.05 -39.75 -47.45 -38.0 Q-38.8 -35.5 -31.65 -40.65 -21.15 -48.25 -23.5 -61.4 -24.15 -65.05 -20.65 -66.35 -17.3 -67.5 -14.15 -68.95 L-10.2 -65.45 -10.15 -65.45 -9.1 -64.6 -9.05 -64.55 -7.9 -63.6 Q-5.85 -59.65 -7.25 -51.9 -8.0 -48.1 -10.25 -44.15 L-10.25 -44.1 Q-11.55 -41.95 -13.25 -39.8 L-13.3 -39.7 -13.45 -39.55 -16.55 -36.05 -17.8 -34.8 Q-22.1 -30.65 -26.15 -28.5 L-26.45 -28.35 Q-29.05 -27.1 -31.5 -26.6 -38.65 -25.2 -41.9 -25.8 L-42.15 -26.15 Q-47.25 -32.9 -53.45 -38.8 M-16.5 -53.1 Q-16.0 -52.45 -13.95 -50.85 L-11.75 -49.3 Q-10.5 -49.3 -9.5 -52.8 -8.75 -55.5 -8.75 -56.75 -8.75 -57.75 -12.1 -60.05 -15.1 -62.1 -16.1 -62.4 -17.6 -63.35 -18.9 -60.55 -20.0 -58.3 -20.0 -56.75 -20.0 -55.85 -18.7 -54.9 L-16.5 -53.1 M-31.55 -36.9 L-33.0 -35.55 Q-34.95 -34.6 -37.0 -34.15 -38.0 -33.95 -38.35 -33.1 L-36.6 -31.0 -35.15 -28.9 -35.2 -28.1 -34.0 -27.1 -32.75 -27.1 Q-29.8 -27.85 -27.55 -29.15 -24.75 -30.7 -24.75 -32.25 -24.75 -33.7 -26.45 -35.8 -28.25 -38.05 -29.6 -38.0 -30.45 -37.95 -31.55 -36.9 M-17.15 -38.1 Q-14.6 -41.05 -14.6 -43.15 -14.6 -44.15 -17.65 -47.15 -20.75 -50.25 -21.25 -49.1 L-22.75 -45.55 -24.25 -43.45 -25.4 -42.0 -21.0 -35.3 Q-19.6 -35.3 -17.15 -38.1" fill="#a8a8a8" fill-rule="evenodd" stroke="none"/>
    <path d="M-12.2 -69.9 L-8.9 -67.0 -7.8 -66.1 -2.85 -62.15 -2.75 -62.1 Q2.45 -57.5 0.05 -48.0 -2.25 -38.85 -10.45 -30.55 -18.75 -22.2 -27.9 -19.8 -35.95 -17.8 -40.45 -21.2 L-40.5 -21.25 -41.95 -22.55 -42.15 -22.8 -42.25 -22.9 -43.75 -24.95 Q-48.6 -31.35 -54.4 -36.95 L-53.45 -38.8 Q-47.25 -32.9 -42.15 -26.15 L-41.9 -25.8 Q-38.65 -25.2 -31.5 -26.6 -29.05 -27.1 -26.45 -28.35 L-29.95 -26.65 -32.3 -25.8 -34.0 -25.3 Q-38.0 -24.35 -41.05 -24.65 L-40.65 -24.1 -39.25 -22.8 Q-35.65 -20.2 -29.35 -21.55 L-28.4 -21.75 -26.55 -22.3 -22.65 -23.9 Q-17.1 -26.7 -11.85 -31.95 L-9.05 -35.0 -6.1 -39.0 Q-4.1 -42.1 -2.9 -45.35 L-1.9 -48.5 Q0.15 -56.6 -4.1 -60.6 L-6.2 -62.2 Q-5.1 -58.45 -6.45 -53.1 L-7.45 -49.95 Q-8.55 -47.0 -10.25 -44.15 -8.0 -48.1 -7.25 -51.9 -5.85 -59.65 -7.9 -63.6 L-9.05 -64.55 -9.1 -64.6 -10.15 -65.45 -10.2 -65.45 -14.15 -68.95 -12.2 -69.9" fill="#58524e" fill-rule="evenodd" stroke="none"/>
    <path d="M-7.45 -49.95 L-6.45 -53.1 Q-5.1 -58.45 -6.2 -62.2 L-4.1 -60.6 Q0.15 -56.6 -1.9 -48.5 L-2.9 -45.35 -6.85 -49.15 -7.45 -49.95 M-6.1 -39.0 L-9.05 -35.0 -13.15 -39.9 -13.25 -39.8 Q-11.55 -41.95 -10.25 -44.1 L-10.25 -44.15 -7.5 -40.5 -6.1 -39.0 M-22.65 -23.9 L-26.55 -22.3 -29.95 -26.65 -26.45 -28.35 -26.15 -28.5 -23.2 -24.6 -22.65 -23.9 M-29.35 -21.55 Q-35.65 -20.2 -39.25 -22.8 L-40.65 -24.1 -41.05 -24.65 Q-38.0 -24.35 -34.0 -25.3 L-32.3 -25.8 -32.05 -25.45 -29.35 -21.55 M-16.5 -53.1 L-18.7 -54.9 Q-20.0 -55.85 -20.0 -56.75 -20.0 -58.3 -18.9 -60.55 -17.6 -63.35 -16.1 -62.4 -15.1 -62.1 -12.1 -60.05 -8.75 -57.75 -8.75 -56.75 -8.75 -55.5 -9.5 -52.8 -10.5 -49.3 -11.75 -49.3 L-13.95 -50.85 Q-16.0 -52.45 -16.5 -53.1 M-17.15 -38.1 Q-19.6 -35.3 -21.0 -35.3 L-25.4 -42.0 -24.25 -43.45 -22.75 -45.55 -21.25 -49.1 Q-20.75 -50.25 -17.65 -47.15 -14.6 -44.15 -14.6 -43.15 -14.6 -41.05 -17.15 -38.1 M-31.55 -36.9 Q-30.45 -37.95 -29.6 -38.0 -28.25 -38.05 -26.45 -35.8 -24.75 -33.7 -24.75 -32.25 -24.75 -30.7 -27.55 -29.15 -29.8 -27.85 -32.75 -27.1 L-34.0 -27.1 -35.2 -28.1 -35.15 -28.9 -36.6 -31.0 -38.35 -33.1 Q-38.0 -33.95 -37.0 -34.15 -34.95 -34.6 -33.0 -35.55 L-31.55 -36.9" fill="#c4c4c4" fill-rule="evenodd" stroke="none"/>
  </g>
</svg>
