<?xml version="1.0" encoding="UTF-8" standalone="no"?>
<svg xmlns:ffdec="https://www.free-decompiler.com/flash" xmlns:xlink="http://www.w3.org/1999/xlink" ffdec:objectType="shape" height="87.3px" width="141.3px" xmlns="http://www.w3.org/2000/svg">
  <g transform="matrix(1.0, 0.0, 0.0, 1.0, 67.05, 117.9)">
    <path d="M31.55 -39.15 L24.85 -42.0 17.75 -45.0 17.75 -45.05 15.6 -45.9 Q10.0 -47.9 4.4 -49.1 0.9 -50.15 -3.2 -50.85 L-6.2 -51.3 -9.7 -51.55 -19.15 -51.25 Q-25.65 -50.4 -30.3 -49.0 L-38.05 -46.8 -41.6 -45.4 Q-44.7 -44.0 -47.4 -41.85 L-48.75 -40.8 Q-50.8 -40.0 -52.7 -41.1 L-56.35 -43.25 Q-58.75 -45.4 -60.5 -47.8 -63.75 -52.6 -65.55 -57.8 -69.25 -70.1 -63.75 -80.4 -59.5 -88.4 -51.2 -91.8 L-44.1 -92.15 -42.3 -91.1 Q-44.2 -85.0 -44.65 -78.85 -44.7 -76.45 -44.3 -74.4 L-43.25 -72.2 Q-42.7 -71.4 -41.75 -70.85 -40.8 -70.35 -39.65 -70.05 L-39.3 -70.0 -38.05 -70.5 -36.15 -72.0 Q-35.25 -72.95 -34.55 -74.35 -33.75 -76.05 -33.35 -77.95 -32.9 -79.15 -33.0 -80.3 -32.95 -82.3 -33.65 -83.85 -35.0 -87.2 -37.1 -90.1 L-39.95 -94.25 Q-41.65 -96.65 -42.55 -100.0 -40.75 -103.2 -37.95 -105.6 L-36.1 -107.1 Q-32.05 -110.0 -27.75 -112.3 -23.85 -114.1 -19.9 -115.25 -15.75 -116.45 -11.55 -117.0 L-3.5 -117.8 -2.9 -117.9 4.2 -117.15 8.4 -115.95 17.75 -113.0 17.75 -113.05 Q21.3 -111.95 24.75 -110.45 L31.25 -106.9 Q35.4 -104.3 39.2 -101.0 43.4 -97.45 45.8 -92.3 L46.95 -89.1 Q39.75 -83.8 32.8 -77.9 30.85 -76.45 29.9 -74.2 29.2 -72.6 29.1 -70.9 29.0 -69.5 29.45 -68.2 29.75 -66.65 30.7 -65.3 L31.65 -64.1 Q33.0 -63.05 34.5 -62.35 35.9 -61.75 37.35 -61.4 39.0 -61.3 40.45 -61.9 42.45 -62.75 43.6 -64.5 46.05 -68.2 45.95 -72.7 L45.7 -77.0 Q45.35 -78.8 45.15 -80.6 L45.5 -81.25 Q50.6 -81.8 55.45 -80.6 59.2 -79.45 62.35 -77.5 64.45 -76.25 66.4 -74.6 68.1 -73.2 69.45 -71.35 L71.9 -67.95 72.8 -65.95 73.75 -61.65 74.25 -56.75 Q74.4 -53.7 73.5 -50.45 72.5 -47.05 70.45 -44.0 67.45 -39.5 63.1 -36.45 61.15 -35.1 59.1 -34.0 57.5 -33.0 55.6 -32.25 50.2 -30.0 44.4 -30.85 L37.4 -35.75 Q49.8 -30.3 60.65 -39.65 L62.3 -40.7 Q65.45 -42.9 67.7 -45.9 L67.2 -44.8 68.8 -47.05 Q69.05 -47.8 69.45 -48.4 72.2 -54.7 71.95 -61.5 L71.1 -63.2 Q68.1 -70.85 61.5 -75.55 60.4 -76.2 59.45 -76.8 55.05 -79.15 49.65 -79.6 L48.05 -79.75 48.25 -72.05 Q48.2 -69.3 46.65 -67.25 36.0 -52.25 27.0 -69.1 L27.55 -72.1 Q31.05 -85.15 44.35 -89.8 L42.55 -92.8 40.15 -95.6 Q35.4 -100.95 29.3 -104.55 L26.45 -106.0 21.4 -108.5 18.05 -110.1 17.75 -110.2 17.75 -111.25 17.7 -110.15 10.45 -112.95 Q3.25 -115.3 -3.5 -115.0 L-4.95 -114.9 -11.7 -114.3 -21.25 -112.75 -25.05 -111.05 Q-32.95 -107.1 -39.4 -100.9 L-40.45 -99.85 -38.55 -98.0 Q-35.9 -94.95 -34.25 -91.65 -31.4 -87.15 -32.1 -81.25 -33.4 -66.35 -44.25 -69.25 -47.7 -79.5 -44.1 -90.3 L-45.5 -90.75 -47.2 -90.75 Q-54.6 -89.75 -59.4 -83.55 L-62.7 -78.5 Q-65.8 -70.95 -64.1 -62.0 L-63.45 -59.45 -63.35 -60.75 Q-63.1 -57.6 -61.45 -54.9 L-60.75 -53.7 Q-57.85 -47.6 -49.65 -43.45 -39.5 -47.1 -24.8 -50.95 -13.1 -53.4 -3.2 -52.25 3.25 -51.8 9.15 -49.95 13.35 -48.8 17.75 -46.9 L17.75 -46.85 Q24.6 -44.0 30.65 -39.7 31.05 -39.4 31.55 -39.15 M1.25 -82.7 Q-0.1 -82.8 -0.6 -83.85 L-0.7 -84.9 Q-0.55 -86.1 1.0 -86.1 L1.3 -86.1 Q3.15 -85.8 3.05 -84.85 L3.0 -84.8 Q2.9 -82.55 1.25 -82.7 M-7.35 -86.9 Q-5.75 -86.6 -6.1 -84.7 -6.15 -83.2 -7.75 -83.3 -7.9 -83.3 -8.05 -83.45 -8.95 -83.55 -9.2 -84.45 L-9.15 -85.2 Q-8.95 -86.55 -7.95 -86.85 L-7.35 -86.9" fill="#141414" fill-rule="evenodd" stroke="none"/>
    <path d="M3.3 -100.75 Q3.5 -101.1 4.1 -101.05 L4.95 -100.6 Q5.3 -100.1 5.25 -99.6 L4.75 -98.7 Q4.2 -98.3 3.85 -98.45 L3.1 -98.95 Q2.65 -99.25 2.8 -99.9 L3.3 -100.75 M-27.95 -73.25 Q-23.7 -83.3 -29.05 -92.3 L-30.65 -94.7 -29.95 -104.75 Q-16.85 -109.65 -3.5 -109.5 L2.15 -109.25 Q10.25 -108.55 17.75 -105.45 L17.75 -105.5 Q24.95 -102.5 31.25 -97.2 34.6 -94.4 37.8 -90.95 29.95 -86.9 26.15 -79.0 22.7 -71.95 25.0 -65.4 L25.4 -63.35 26.55 -62.1 27.9 -60.05 Q32.6 -54.15 40.25 -55.5 55.2 -57.85 55.65 -73.2 L56.55 -73.95 58.75 -73.7 63.8 -68.5 Q67.9 -63.6 67.8 -57.25 L67.5 -51.5 Q58.25 -36.65 42.15 -41.55 30.0 -45.35 17.75 -48.55 L17.75 -48.65 14.05 -49.55 Q5.0 -51.9 -3.3 -55.25 -10.0 -57.9 -16.85 -61.35 -25.1 -65.4 -27.75 -73.7 L-27.95 -73.25 M17.75 -78.05 L17.8 -78.15 Q18.35 -79.65 20.15 -82.1 L23.1 -85.95 Q27.5 -91.45 24.45 -95.55 21.4 -99.9 17.75 -102.6 L17.75 -102.55 Q8.55 -109.1 -3.5 -105.8 L-3.55 -105.8 -5.85 -104.4 -7.05 -96.45 Q-9.0 -95.9 -10.75 -94.75 -15.05 -91.55 -15.95 -84.5 -16.05 -83.55 -15.75 -82.75 -16.2 -82.35 -16.25 -81.9 L-15.8 -80.7 Q-15.3 -80.15 -14.75 -80.15 L-14.3 -80.2 Q-11.8 -77.5 -10.5 -74.95 L-8.05 -74.85 Q-7.75 -69.1 -7.0 -63.35 L-3.4 -60.75 Q0.4 -58.65 4.4 -57.35 11.0 -55.6 17.75 -52.85 L17.75 -52.8 18.65 -52.45 Q32.25 -47.1 46.45 -44.55 60.7 -42.0 63.85 -56.1 66.25 -66.25 57.55 -71.15 56.55 -58.1 44.0 -54.45 32.0 -50.7 23.65 -59.3 19.25 -63.85 19.0 -65.45 17.7 -67.0 17.7 -68.5 16.1 -73.45 17.7 -78.05 L17.75 -78.05 M56.55 -61.95 Q57.1 -62.4 57.9 -62.3 58.6 -62.25 59.0 -61.65 59.5 -61.15 59.4 -60.4 59.3 -59.65 58.7 -59.2 58.25 -58.8 57.55 -58.85 56.8 -58.9 56.3 -59.5 55.85 -60.05 56.0 -60.8 56.05 -61.55 56.55 -61.95 M63.45 -57.45 L63.7 -56.5 Q63.6 -56.0 63.3 -55.8 62.8 -55.5 62.25 -55.55 61.75 -55.6 61.6 -55.95 61.15 -56.3 61.3 -56.8 61.3 -57.3 61.7 -57.6 62.05 -57.95 62.55 -57.9 L63.45 -57.45 M15.85 -97.4 L14.85 -96.7 Q14.7 -95.65 15.1 -93.55 L12.85 -91.85 12.55 -91.85 Q11.15 -95.7 15.1 -98.15 L15.45 -97.8 15.85 -97.4 M8.85 -64.55 Q10.4 -63.2 11.5 -64.25 L11.65 -64.1 12.25 -62.5 12.1 -61.8 Q11.25 -61.4 10.4 -61.8 8.75 -62.15 8.3 -63.9 L8.85 -64.55 M36.4 -50.65 Q37.75 -52.75 40.15 -51.7 L40.15 -50.7 Q39.8 -47.75 36.8 -48.65 L36.05 -50.05 36.4 -50.65 M50.95 -48.1 L51.25 -47.15 50.8 -46.4 49.85 -46.2 Q49.35 -46.15 49.05 -46.6 48.75 -46.95 48.85 -47.45 48.9 -47.95 49.3 -48.25 L50.15 -48.45 50.95 -48.1 M-20.2 -102.65 Q-22.35 -103.85 -23.5 -100.65 -23.45 -100.15 -23.55 -100.0 -24.15 -98.95 -25.1 -98.05 L-26.1 -96.3 -25.5 -96.1 Q-25.6 -94.75 -25.3 -94.4 -24.55 -93.6 -21.6 -93.4 L-19.7 -91.8 -18.45 -90.9 -18.85 -90.3 Q-19.0 -89.85 -18.55 -89.4 -18.15 -89.05 -17.7 -89.05 L-16.6 -89.3 Q-16.15 -89.5 -16.1 -90.05 -16.1 -90.35 -16.25 -90.45 -15.7 -90.85 -15.1 -91.6 -14.1 -92.8 -14.5 -93.0 L-16.4 -94.6 -18.25 -96.5 Q-15.05 -97.25 -12.4 -99.35 -11.4 -100.15 -10.6 -101.5 L-11.85 -104.25 Q-16.55 -104.65 -20.2 -102.65 M-17.1 -72.15 L-15.0 -73.75 Q-13.0 -74.75 -12.8 -75.1 -12.15 -75.1 -13.05 -76.5 -13.75 -78.0 -14.65 -78.1 -15.2 -78.2 -17.55 -76.85 -18.5 -76.1 -19.25 -75.9 L-19.15 -76.15 Q-19.0 -76.55 -19.4 -77.1 L-20.45 -77.4 -21.55 -77.1 -22.0 -76.3 -21.7 -75.5 -21.65 -75.45 Q-23.1 -75.35 -23.9 -74.85 -24.55 -74.3 -24.75 -72.55 -24.95 -71.45 -24.15 -71.0 -23.3 -70.65 -23.6 -68.5 -23.0 -63.6 -18.0 -67.95 -17.9 -68.6 -18.2 -70.05 L-18.05 -69.9 Q-17.7 -69.6 -17.15 -69.5 L-16.05 -69.85 Q-15.5 -70.3 -15.5 -70.8 -15.45 -71.45 -15.8 -71.75 -16.25 -72.25 -16.9 -72.2 L-17.1 -72.15 M-50.95 -83.35 Q-51.0 -81.85 -51.2 -80.55 -52.7 -62.5 -38.2 -58.9 -43.45 -53.15 -50.7 -53.05 -53.0 -53.5 -54.1 -55.0 -64.8 -70.35 -51.9 -83.55 L-50.95 -83.35 M-53.75 -72.35 Q-52.05 -74.85 -53.35 -77.75 -57.0 -77.6 -56.6 -74.2 -56.05 -72.6 -54.65 -72.0 L-54.3 -71.9 -53.75 -72.35 M-55.0 -61.95 Q-55.55 -61.8 -55.5 -61.1 L-55.15 -60.1 Q-54.75 -59.7 -54.35 -59.7 L-53.35 -59.85 Q-52.95 -60.3 -52.95 -60.75 L-53.25 -61.75 Q-53.7 -62.2 -54.15 -62.3 -54.6 -62.4 -55.0 -61.95" fill="#3b3b3b" fill-rule="evenodd" stroke="none"/>
    <path d="M3.3 -100.75 L2.8 -99.9 Q2.65 -99.25 3.1 -98.95 L3.85 -98.45 Q4.2 -98.3 4.75 -98.7 L5.25 -99.6 Q5.3 -100.1 4.95 -100.6 L4.1 -101.05 Q3.5 -101.1 3.3 -100.75 M-7.05 -96.45 L-5.85 -104.4 -3.55 -105.8 -3.5 -105.8 Q8.55 -109.1 17.75 -102.55 L17.75 -102.6 Q21.4 -99.9 24.45 -95.55 27.5 -91.45 23.1 -85.95 L20.15 -82.1 Q18.35 -79.65 17.8 -78.15 L17.75 -78.05 17.75 -78.1 17.7 -78.05 Q16.1 -73.45 17.7 -68.5 17.7 -67.0 19.0 -65.45 19.25 -63.85 23.65 -59.3 32.0 -50.7 44.0 -54.45 56.55 -58.1 57.55 -71.15 66.25 -66.25 63.85 -56.1 60.7 -42.0 46.45 -44.55 32.25 -47.1 18.65 -52.45 L17.75 -52.8 17.75 -52.85 Q11.0 -55.6 4.4 -57.35 0.4 -58.65 -3.4 -60.75 L-7.0 -63.35 Q-7.75 -69.1 -8.05 -74.85 L-2.75 -74.3 -2.25 -74.2 0.25 -73.95 Q4.3 -77.4 7.75 -79.45 9.0 -80.3 9.45 -84.1 9.85 -88.85 6.4 -92.6 3.3 -96.0 -1.8 -96.8 L-3.5 -96.95 -7.05 -96.45 M56.55 -61.95 Q56.05 -61.55 56.0 -60.8 55.85 -60.05 56.3 -59.5 56.8 -58.9 57.55 -58.85 58.25 -58.8 58.7 -59.2 59.3 -59.65 59.4 -60.4 59.5 -61.15 59.0 -61.65 58.6 -62.25 57.9 -62.3 57.1 -62.4 56.55 -61.95 M63.45 -57.45 L62.55 -57.9 Q62.05 -57.95 61.7 -57.6 61.3 -57.3 61.3 -56.8 61.15 -56.3 61.6 -55.95 61.75 -55.6 62.25 -55.55 62.8 -55.5 63.3 -55.8 63.6 -56.0 63.7 -56.5 L63.45 -57.45 M12.85 -91.85 L12.0 -91.3 9.7 -90.0 Q9.35 -89.9 10.0 -88.55 10.75 -86.85 11.65 -86.95 12.2 -86.9 14.3 -88.05 L16.6 -89.25 17.75 -89.15 Q19.6 -89.15 20.3 -89.7 20.9 -90.15 21.05 -91.9 21.15 -93.0 20.5 -93.35 19.85 -93.8 20.0 -95.85 19.75 -98.95 17.75 -98.4 L17.75 -98.3 Q16.8 -98.15 15.85 -97.4 L15.45 -97.8 15.1 -98.15 Q11.15 -95.7 12.55 -91.85 L12.85 -91.85 M11.5 -64.25 Q12.05 -64.75 12.4 -66.05 12.5 -68.2 13.35 -68.4 14.1 -68.6 14.25 -69.8 14.4 -71.55 13.9 -72.1 13.05 -73.05 10.4 -73.25 L8.55 -74.8 6.0 -76.55 Q5.05 -76.45 4.1 -75.15 3.35 -74.1 3.6 -73.9 L5.5 -72.2 8.2 -69.3 Q7.25 -67.2 7.25 -66.15 7.95 -65.15 8.85 -64.55 L8.3 -63.9 Q8.75 -62.15 10.4 -61.8 11.25 -61.4 12.1 -61.8 L12.25 -62.5 11.65 -64.1 11.5 -64.25 M36.4 -50.65 L36.05 -50.05 36.8 -48.65 Q39.8 -47.75 40.15 -50.7 L40.15 -51.7 Q37.75 -52.75 36.4 -50.65 M50.95 -48.1 L50.15 -48.45 49.3 -48.25 Q48.9 -47.95 48.85 -47.45 48.75 -46.95 49.05 -46.6 49.35 -46.15 49.85 -46.2 L50.8 -46.4 51.25 -47.15 50.95 -48.1 M-23.55 -100.0 Q-23.75 -98.4 -24.55 -98.15 -25.35 -97.85 -25.5 -96.75 L-25.5 -96.1 -26.1 -96.3 -25.1 -98.05 Q-24.15 -98.95 -23.55 -100.0 M-18.45 -90.9 Q-17.35 -90.2 -17.05 -90.25 L-16.25 -90.45 Q-16.1 -90.35 -16.1 -90.05 -16.15 -89.5 -16.6 -89.3 L-17.7 -89.05 Q-18.15 -89.05 -18.55 -89.4 -19.0 -89.85 -18.85 -90.3 L-18.45 -90.9 M-18.25 -96.5 L-19.1 -97.4 Q-18.2 -99.5 -18.1 -100.55 L-20.2 -102.65 Q-16.55 -104.65 -11.85 -104.25 L-10.6 -101.5 Q-11.4 -100.15 -12.4 -99.35 -15.05 -97.25 -18.25 -96.5 M-15.75 -82.75 Q-15.45 -81.45 -14.55 -80.5 L-14.3 -80.2 -14.75 -80.15 Q-15.3 -80.15 -15.8 -80.7 L-16.25 -81.9 Q-16.2 -82.35 -15.75 -82.75 M-19.25 -75.9 Q-19.85 -75.4 -20.05 -75.5 L-21.65 -75.45 -21.7 -75.5 -22.0 -76.3 -21.55 -77.1 -20.45 -77.4 -19.4 -77.1 Q-19.0 -76.55 -19.15 -76.15 L-19.25 -75.9 M-18.2 -70.05 L-18.35 -71.25 -17.1 -72.15 -16.9 -72.2 Q-16.25 -72.25 -15.8 -71.75 -15.45 -71.45 -15.5 -70.8 -15.5 -70.3 -16.05 -69.85 L-17.15 -69.5 Q-17.7 -69.6 -18.05 -69.9 L-18.2 -70.05 M-55.0 -61.95 Q-54.6 -62.4 -54.15 -62.3 -53.7 -62.2 -53.25 -61.75 L-52.95 -60.75 Q-52.95 -60.3 -53.35 -59.85 L-54.35 -59.7 Q-54.75 -59.7 -55.15 -60.1 L-55.5 -61.1 Q-55.55 -61.8 -55.0 -61.95 M-53.75 -72.35 L-54.3 -71.9 -54.65 -72.0 Q-56.05 -72.6 -56.6 -74.2 -57.0 -77.6 -53.35 -77.75 -52.05 -74.85 -53.75 -72.35" fill="#484848" fill-rule="evenodd" stroke="none"/>
    <path d="M-59.4 -83.55 Q-54.6 -89.75 -47.2 -90.75 L-45.5 -90.75 -47.35 -88.15 -47.95 -88.85 Q-57.75 -86.55 -60.7 -76.45 L-59.4 -83.55 M-39.4 -100.9 Q-32.95 -107.1 -25.05 -111.05 L-21.25 -112.75 -21.55 -108.35 Q-28.1 -107.1 -33.25 -102.65 L-35.35 -100.65 -39.4 -100.9 M-11.7 -114.3 L-4.95 -114.9 Q-5.3 -113.25 -5.85 -111.75 L-12.6 -110.8 -11.7 -114.3 M10.45 -112.95 L17.7 -110.15 17.75 -109.4 17.75 -110.2 18.05 -110.1 17.75 -109.1 17.75 -109.05 Q17.4 -108.25 17.2 -107.45 L10.0 -110.15 10.45 -112.95 M21.4 -108.5 L26.45 -106.0 25.45 -103.7 21.25 -105.7 21.4 -108.5 M29.3 -104.55 Q35.4 -100.95 40.15 -95.6 L42.55 -92.8 38.9 -91.45 Q36.1 -97.65 29.85 -101.25 L28.2 -102.25 29.3 -104.55 M49.65 -79.6 Q55.05 -79.15 59.45 -76.8 60.4 -76.2 61.5 -75.55 L61.85 -72.75 59.35 -75.2 56.4 -75.1 Q54.95 -75.05 53.95 -73.9 L49.65 -79.6 M71.95 -61.5 Q72.2 -54.7 69.45 -48.4 69.05 -47.8 68.8 -47.05 L68.25 -47.35 68.95 -49.55 Q70.1 -54.35 70.1 -59.05 L70.15 -58.0 71.95 -61.5 M-5.5 -94.5 L-5.7 -92.75 -5.45 -88.25 -5.3 -86.9 Q-5.8 -88.1 -7.45 -88.25 L-7.85 -88.25 Q-10.3 -88.3 -10.7 -85.55 L-10.5 -84.1 Q-10.0 -82.7 -8.45 -82.5 L-8.1 -82.55 -5.95 -82.7 -5.95 -82.65 -5.95 -79.2 -5.8 -75.9 -7.45 -76.1 -7.75 -78.2 -8.1 -77.95 Q-8.4 -77.7 -8.3 -77.4 L-8.45 -76.8 -8.45 -76.1 -9.85 -76.3 Q-10.7 -79.45 -12.55 -81.35 L-12.9 -81.8 -13.5 -82.95 -13.5 -85.35 Q-12.85 -90.65 -9.2 -93.1 L-7.35 -93.95 -5.5 -94.5 M-18.45 -95.4 L-16.45 -93.2 Q-16.4 -92.9 -16.9 -92.35 L-19.1 -93.85 -20.05 -94.8 Q-19.25 -94.7 -18.45 -95.4 M-20.95 -95.05 L-21.1 -95.05 -22.1 -94.85 Q-22.6 -94.5 -23.05 -94.55 -24.7 -94.6 -24.7 -95.85 L-24.7 -95.95 -24.05 -96.75 Q-23.25 -97.2 -22.6 -97.65 L-21.55 -95.85 -20.95 -95.05 M-14.95 -76.0 L-14.65 -75.2 -17.5 -73.0 -19.45 -70.9 Q-19.6 -69.9 -19.1 -68.1 -21.25 -67.0 -22.15 -67.9 L-22.6 -69.25 -22.25 -70.2 -21.8 -71.0 Q-22.4 -71.85 -23.35 -72.35 L-23.7 -73.25 Q-23.6 -74.5 -21.65 -74.5 L-20.8 -74.2 Q-20.15 -73.75 -19.9 -73.75 -19.0 -73.75 -17.5 -74.8 L-14.95 -76.0" fill="#d3d3d3" fill-rule="evenodd" stroke="none"/>
    <path d="M-21.25 -112.75 L-11.7 -114.3 -12.6 -110.8 -21.55 -108.35 -21.25 -112.75 M-4.95 -114.9 L-3.5 -115.0 Q3.25 -115.3 10.45 -112.95 L10.0 -110.15 Q3.6 -112.05 -3.0 -111.9 L-3.5 -111.9 -5.85 -111.75 Q-5.3 -113.25 -4.95 -114.9 M18.05 -110.1 L21.4 -108.5 21.25 -105.7 17.75 -107.25 17.75 -108.05 17.7 -107.2 Q17.45 -107.25 17.2 -107.45 17.4 -108.25 17.75 -109.05 L17.75 -109.1 18.05 -110.1 M26.45 -106.0 L29.3 -104.55 28.2 -102.25 25.45 -103.7 26.45 -106.0 M61.5 -75.55 Q68.1 -70.85 71.1 -63.2 L71.95 -61.5 70.15 -58.0 70.1 -59.05 Q68.7 -66.25 63.25 -71.35 L61.85 -72.75 61.5 -75.55 M1.95 -87.2 L1.55 -87.25 Q-1.25 -87.9 -1.6 -85.15 L-1.5 -83.35 Q-1.0 -81.7 0.35 -81.65 1.75 -81.3 2.95 -82.35 3.8 -83.0 4.0 -84.0 4.05 -85.15 3.65 -85.9 3.3 -86.85 1.95 -87.2 M17.75 -96.95 Q18.35 -96.9 18.65 -96.5 19.2 -95.85 19.15 -95.15 L18.65 -94.3 18.25 -93.5 19.7 -92.15 20.1 -91.25 Q19.95 -90.0 18.25 -90.15 L17.75 -90.35 17.75 -90.3 17.4 -90.5 16.5 -91.0 Q15.7 -91.05 14.25 -90.1 12.55 -89.05 12.0 -89.0 11.45 -89.55 11.65 -89.9 L14.3 -91.85 Q14.2 -91.8 14.25 -91.9 16.1 -93.35 16.1 -93.75 L15.85 -96.5 16.25 -96.65 17.75 -96.9 17.75 -96.95 M-5.5 -94.5 L-5.1 -94.6 Q-5.05 -94.55 -5.0 -94.65 L-3.8 -94.7 -3.55 -94.7 -1.6 -94.55 Q2.8 -93.7 5.4 -91.2 8.45 -88.15 8.1 -84.3 7.7 -80.8 6.25 -80.25 3.0 -78.5 -0.05 -75.3 L-0.2 -75.3 -0.2 -75.35 Q-0.05 -75.7 -0.05 -76.2 L0.0 -77.5 -1.1 -77.15 -1.2 -77.0 -1.3 -76.4 -1.15 -75.45 -1.8 -75.45 Q-1.85 -75.55 -2.05 -75.65 L-4.1 -75.8 Q-3.85 -76.65 -3.95 -77.45 L-4.45 -78.0 -5.2 -76.6 -5.15 -75.85 -5.8 -75.9 -5.95 -79.2 -5.95 -82.65 -5.95 -82.7 Q-5.6 -82.7 -5.6 -82.85 -5.0 -83.2 -4.95 -84.3 L-4.95 -84.7 -5.05 -85.95 Q-5.1 -86.5 -5.3 -86.85 L-5.3 -86.9 -5.45 -88.25 -5.7 -92.75 -5.5 -94.5 M11.85 -72.05 Q13.4 -71.9 13.35 -70.55 L12.8 -69.8 11.1 -68.7 11.35 -67.9 11.65 -66.9 10.9 -65.7 Q10.0 -64.9 8.3 -66.15 L9.05 -68.8 Q9.05 -69.2 7.65 -71.05 L5.45 -73.7 Q5.4 -73.95 5.9 -74.4 L8.0 -72.85 Q9.15 -71.6 10.1 -71.55 L10.95 -71.85 11.85 -72.05 M-22.6 -97.65 L-22.2 -97.9 Q-22.05 -98.05 -22.45 -98.8 L-22.65 -99.75 Q-22.5 -100.5 -21.95 -101.0 -20.8 -101.75 -19.2 -100.65 -19.9 -98.9 -20.0 -97.9 -20.0 -97.5 -19.15 -96.25 L-18.65 -95.65 -18.45 -95.4 Q-19.25 -94.7 -20.05 -94.8 L-20.9 -95.0 -20.95 -95.05 -21.55 -95.85 -22.6 -97.65" fill="#ffffff" fill-rule="evenodd" stroke="none"/>
    <path d="M-60.75 -53.7 L-61.45 -54.9 Q-63.1 -57.6 -63.35 -60.75 L-62.2 -70.8 -60.7 -76.45 Q-57.75 -86.55 -47.95 -88.85 L-47.35 -88.15 -47.95 -84.85 Q-49.95 -74.2 -44.55 -64.8 -48.55 -67.0 -49.5 -72.6 -50.45 -80.0 -48.15 -87.75 -50.95 -86.55 -53.15 -84.15 -65.45 -72.2 -60.75 -53.7 M67.7 -45.9 Q65.45 -42.9 62.3 -40.7 L60.65 -39.65 62.7 -41.85 Q66.25 -46.1 67.5 -51.5 L67.8 -57.25 Q67.9 -63.6 63.8 -68.5 L58.75 -73.7 56.55 -73.95 55.65 -73.2 Q55.2 -57.85 40.25 -55.5 32.6 -54.15 27.9 -60.05 L26.55 -62.1 Q36.0 -52.8 47.75 -60.3 L48.45 -60.9 49.4 -62.15 Q53.2 -67.4 53.95 -73.9 54.95 -75.05 56.4 -75.1 L59.35 -75.2 61.85 -72.75 63.25 -71.35 Q68.7 -66.25 70.1 -59.05 70.1 -54.35 68.95 -49.55 L68.25 -47.35 67.7 -45.9 M17.2 -107.45 Q17.45 -107.25 17.7 -107.2 L17.75 -106.2 17.75 -107.25 21.25 -105.7 25.45 -103.7 28.2 -102.25 29.85 -101.25 Q36.1 -97.65 38.9 -91.45 L38.9 -90.75 37.3 -89.8 Q22.8 -81.15 25.0 -65.4 22.7 -71.95 26.15 -79.0 29.95 -86.9 37.8 -90.95 34.6 -94.4 31.25 -97.2 24.95 -102.5 17.75 -105.5 L17.75 -105.45 Q10.25 -108.55 2.15 -109.25 L-3.5 -109.5 Q-16.85 -109.65 -29.95 -104.75 L-34.85 -100.8 -30.65 -94.7 -29.05 -92.3 Q-23.7 -83.3 -27.95 -73.25 -33.0 -62.55 -42.8 -64.3 -43.4 -64.65 -44.15 -64.8 L-42.8 -64.45 Q-31.45 -63.65 -27.65 -76.85 -27.35 -78.35 -27.45 -80.0 -27.3 -92.25 -35.35 -100.65 L-33.25 -102.65 Q-28.1 -107.1 -21.55 -108.35 L-12.6 -110.8 -5.85 -111.75 -3.5 -111.9 -3.0 -111.9 Q3.6 -112.05 10.0 -110.15 L17.2 -107.45" fill="#1d1d1d" fill-rule="evenodd" stroke="none"/>
    <path d="M-62.7 -78.5 L-59.4 -83.55 -60.7 -76.45 -62.2 -70.8 -62.7 -78.5 M-45.5 -90.75 L-44.1 -90.3 Q-47.7 -79.5 -44.25 -69.25 L-44.45 -64.8 -44.55 -64.8 Q-49.95 -74.2 -47.95 -84.85 L-47.35 -88.15 -45.5 -90.75 M-34.25 -91.65 Q-35.9 -94.95 -38.55 -98.0 L-40.45 -99.85 -39.4 -100.9 -35.35 -100.65 Q-27.3 -92.25 -27.45 -80.0 -27.35 -78.35 -27.65 -76.85 -28.6 -83.45 -32.35 -88.8 L-34.25 -91.65 M42.55 -92.8 L44.35 -89.8 Q31.05 -85.15 27.55 -72.1 L27.0 -69.1 26.85 -70.0 25.4 -63.35 25.0 -65.4 Q22.8 -81.15 37.3 -89.8 L38.9 -90.75 38.9 -91.45 42.55 -92.8 M48.25 -72.05 L48.05 -79.75 49.65 -79.6 53.95 -73.9 Q53.2 -67.4 49.4 -62.15 L48.45 -60.9 48.25 -72.05" fill="#adadad" fill-rule="evenodd" stroke="none"/>
    <path d="M-63.35 -60.75 L-63.45 -59.45 -64.1 -62.0 Q-65.8 -70.95 -62.7 -78.5 L-62.2 -70.8 -63.35 -60.75 M-44.25 -69.25 Q-33.4 -66.35 -32.1 -81.25 -31.4 -87.15 -34.25 -91.65 L-32.35 -88.8 Q-28.6 -83.45 -27.65 -76.85 -31.45 -63.65 -42.8 -64.45 L-44.15 -64.8 -44.45 -64.8 -44.25 -69.25 M27.0 -69.1 Q36.0 -52.25 46.65 -67.25 48.2 -69.3 48.25 -72.05 L48.45 -60.9 47.75 -60.3 Q36.0 -52.8 26.55 -62.1 L25.4 -63.35 26.85 -70.0 27.0 -69.1 M-7.05 -96.45 L-3.5 -96.95 -1.8 -96.8 Q3.3 -96.0 6.4 -92.6 9.85 -88.85 9.45 -84.1 9.0 -80.3 7.75 -79.45 4.3 -77.4 0.25 -73.95 L-2.25 -74.2 -2.75 -74.3 -8.05 -74.85 -10.5 -74.95 Q-11.8 -77.5 -14.3 -80.2 L-14.55 -80.5 Q-15.45 -81.45 -15.75 -82.75 -16.05 -83.55 -15.95 -84.5 -15.05 -91.55 -10.75 -94.75 -9.0 -95.9 -7.05 -96.45 M15.85 -97.4 Q16.8 -98.15 17.75 -98.3 L17.75 -98.4 Q19.75 -98.95 20.0 -95.85 19.85 -93.8 20.5 -93.35 21.15 -93.0 21.05 -91.9 20.9 -90.15 20.3 -89.7 19.6 -89.15 17.75 -89.15 L16.6 -89.25 14.3 -88.05 Q12.2 -86.9 11.65 -86.95 10.75 -86.85 10.0 -88.55 9.35 -89.9 9.7 -90.0 L12.0 -91.3 12.85 -91.85 15.1 -93.55 Q14.7 -95.65 14.85 -96.7 L15.85 -97.4 M17.75 -96.95 L17.75 -96.9 16.25 -96.65 15.85 -96.5 16.1 -93.75 Q16.1 -93.35 14.25 -91.9 14.2 -91.8 14.3 -91.85 L11.65 -89.9 Q11.45 -89.55 12.0 -89.0 12.55 -89.05 14.25 -90.1 15.7 -91.05 16.5 -91.0 L17.4 -90.5 17.75 -90.3 17.75 -90.35 18.25 -90.15 Q19.95 -90.0 20.1 -91.25 L19.7 -92.15 18.25 -93.5 18.65 -94.3 19.15 -95.15 Q19.2 -95.85 18.65 -96.5 18.35 -96.9 17.75 -96.95 M1.95 -87.2 Q3.3 -86.85 3.65 -85.9 4.05 -85.15 4.0 -84.0 3.8 -83.0 2.95 -82.35 1.75 -81.3 0.35 -81.65 -1.0 -81.7 -1.5 -83.35 L-1.6 -85.15 Q-1.25 -87.9 1.55 -87.25 L1.95 -87.2 M1.25 -82.7 Q2.9 -82.55 3.0 -84.8 L3.05 -84.85 Q3.15 -85.8 1.3 -86.1 L1.0 -86.1 Q-0.55 -86.1 -0.7 -84.9 L-0.6 -83.85 Q-0.1 -82.8 1.25 -82.7 M8.85 -64.55 Q7.95 -65.15 7.25 -66.15 7.25 -67.2 8.2 -69.3 L5.5 -72.2 3.6 -73.9 Q3.35 -74.1 4.1 -75.15 5.05 -76.45 6.0 -76.55 L8.55 -74.8 10.4 -73.25 Q13.05 -73.05 13.9 -72.1 14.4 -71.55 14.25 -69.8 14.1 -68.6 13.35 -68.4 12.5 -68.2 12.4 -66.05 12.05 -64.75 11.5 -64.25 10.4 -63.2 8.85 -64.55 M-5.8 -75.9 L-5.15 -75.85 -5.2 -76.6 -4.45 -78.0 -3.95 -77.45 Q-3.85 -76.65 -4.1 -75.8 L-2.05 -75.65 Q-1.85 -75.55 -1.8 -75.45 L-1.15 -75.45 -1.3 -76.4 -1.2 -77.0 -1.1 -77.15 0.0 -77.5 -0.05 -76.2 Q-0.05 -75.7 -0.2 -75.35 L-0.2 -75.3 -0.05 -75.3 Q3.0 -78.5 6.25 -80.25 7.7 -80.8 8.1 -84.3 8.45 -88.15 5.4 -91.2 2.8 -93.7 -1.6 -94.55 L-3.55 -94.7 -3.8 -94.7 -5.0 -94.65 Q-5.05 -94.55 -5.1 -94.6 L-5.5 -94.5 -7.35 -93.95 -9.2 -93.1 Q-12.85 -90.65 -13.5 -85.35 L-13.5 -82.95 -12.9 -81.8 -12.55 -81.35 Q-10.7 -79.45 -9.85 -76.3 L-8.45 -76.1 -8.45 -76.8 -8.3 -77.4 Q-8.4 -77.7 -8.1 -77.95 L-7.75 -78.2 -7.45 -76.1 -5.8 -75.9 M-5.3 -86.9 L-5.3 -86.85 Q-5.1 -86.5 -5.05 -85.95 L-4.95 -84.7 -4.95 -84.3 Q-5.0 -83.2 -5.6 -82.85 -5.6 -82.7 -5.95 -82.7 L-8.1 -82.55 -8.45 -82.5 Q-10.0 -82.7 -10.5 -84.1 L-10.7 -85.55 Q-10.3 -88.3 -7.85 -88.25 L-7.45 -88.25 Q-5.8 -88.1 -5.3 -86.9 M11.85 -72.05 L10.95 -71.85 10.1 -71.55 Q9.15 -71.6 8.0 -72.85 L5.9 -74.4 Q5.4 -73.95 5.45 -73.7 L7.65 -71.05 Q9.05 -69.2 9.05 -68.8 L8.3 -66.15 Q10.0 -64.9 10.9 -65.7 L11.65 -66.9 11.35 -67.9 11.1 -68.7 12.8 -69.8 13.35 -70.55 Q13.4 -71.9 11.85 -72.05 M-18.45 -95.4 L-18.65 -95.65 -19.15 -96.25 Q-20.0 -97.5 -20.0 -97.9 -19.9 -98.9 -19.2 -100.65 -20.8 -101.75 -21.95 -101.0 -22.5 -100.5 -22.65 -99.75 L-22.45 -98.8 Q-22.05 -98.05 -22.2 -97.9 L-22.6 -97.65 Q-23.25 -97.2 -24.05 -96.75 L-24.7 -95.95 -24.7 -95.85 Q-24.7 -94.6 -23.05 -94.55 -22.6 -94.5 -22.1 -94.85 L-21.1 -95.05 -20.95 -95.05 -20.9 -95.0 -20.05 -94.8 -19.1 -93.85 -16.9 -92.35 Q-16.4 -92.9 -16.45 -93.2 L-18.45 -95.4 M-23.55 -100.0 Q-23.45 -100.15 -23.5 -100.65 -22.35 -103.85 -20.2 -102.65 L-18.1 -100.55 Q-18.2 -99.5 -19.1 -97.4 L-18.25 -96.5 -16.4 -94.6 -14.5 -93.0 Q-14.1 -92.8 -15.1 -91.6 -15.7 -90.85 -16.25 -90.45 L-17.05 -90.25 Q-17.35 -90.2 -18.45 -90.9 L-19.7 -91.8 -21.6 -93.4 Q-24.55 -93.6 -25.3 -94.4 -25.6 -94.75 -25.5 -96.1 L-25.5 -96.75 Q-25.35 -97.85 -24.55 -98.15 -23.75 -98.4 -23.55 -100.0 M-7.35 -86.9 L-7.95 -86.85 Q-8.95 -86.55 -9.15 -85.2 L-9.2 -84.45 Q-8.95 -83.55 -8.05 -83.45 -7.9 -83.3 -7.75 -83.3 -6.15 -83.2 -6.1 -84.7 -5.75 -86.6 -7.35 -86.9 M-19.25 -75.9 Q-18.5 -76.1 -17.55 -76.85 -15.2 -78.2 -14.65 -78.1 -13.75 -78.0 -13.05 -76.5 -12.15 -75.1 -12.8 -75.1 -13.0 -74.75 -15.0 -73.75 L-17.1 -72.15 -18.35 -71.25 -18.2 -70.05 Q-17.9 -68.6 -18.0 -67.95 -23.0 -63.6 -23.6 -68.5 -23.3 -70.65 -24.15 -71.0 -24.95 -71.45 -24.75 -72.55 -24.55 -74.3 -23.9 -74.85 -23.1 -75.35 -21.65 -75.45 L-20.05 -75.5 Q-19.85 -75.4 -19.25 -75.9 M-14.95 -76.0 L-17.5 -74.8 Q-19.0 -73.75 -19.9 -73.75 -20.15 -73.75 -20.8 -74.2 L-21.65 -74.5 Q-23.6 -74.5 -23.7 -73.25 L-23.35 -72.35 Q-22.4 -71.85 -21.8 -71.0 L-22.25 -70.2 -22.6 -69.25 -22.15 -67.9 Q-21.25 -67.0 -19.1 -68.1 -19.6 -69.9 -19.45 -70.9 L-17.5 -73.0 -14.65 -75.2 -14.95 -76.0" fill="#959595" fill-rule="evenodd" stroke="none"/>
    <path d="M31.55 -39.15 Q31.05 -39.4 30.65 -39.7 24.6 -44.0 17.75 -46.85 L17.75 -46.9 Q13.35 -48.8 9.15 -49.95 3.25 -51.8 -3.2 -52.25 -13.1 -53.4 -24.8 -50.95 -39.5 -47.1 -49.65 -43.45 -57.85 -47.6 -60.75 -53.7 -65.45 -72.2 -53.15 -84.15 -50.95 -86.55 -48.15 -87.75 -50.45 -80.0 -49.5 -72.6 -48.55 -67.0 -44.55 -64.8 L-44.45 -64.8 -44.15 -64.8 Q-43.4 -64.65 -42.8 -64.3 -33.0 -62.55 -27.95 -73.25 L-27.75 -73.7 Q-25.1 -65.4 -16.85 -61.35 -10.0 -57.9 -3.3 -55.25 5.0 -51.9 14.05 -49.55 L17.75 -48.65 17.75 -48.55 Q30.0 -45.35 42.15 -41.55 58.25 -36.65 67.5 -51.5 66.25 -46.1 62.7 -41.85 L60.65 -39.65 Q49.8 -30.3 37.4 -35.75 L34.2 -37.7 31.55 -39.15 M-30.65 -94.7 L-34.85 -100.8 -29.95 -104.75 -30.65 -94.7 M-50.95 -83.35 L-51.9 -83.55 Q-64.8 -70.35 -54.1 -55.0 -53.0 -53.5 -50.7 -53.05 -43.45 -53.15 -38.2 -58.9 -52.7 -62.5 -51.2 -80.55 -51.0 -81.85 -50.95 -83.35" fill="#2e2e2e" fill-rule="evenodd" stroke="none"/>
    <path d="M68.8 -47.05 L67.2 -44.8 67.7 -45.9 68.25 -47.35 68.8 -47.05" fill="#666666" fill-rule="evenodd" stroke="none"/>
  </g>
</svg>
