<?xml version="1.0" encoding="UTF-8" standalone="no"?>
<svg xmlns:ffdec="https://www.free-decompiler.com/flash" xmlns:xlink="http://www.w3.org/1999/xlink" ffdec:objectType="shape" height="26.3px" width="14.45px" xmlns="http://www.w3.org/2000/svg">
  <g transform="matrix(1.0, 0.0, 0.0, 1.0, 29.85, 74.1)">
    <path d="M-22.25 -64.45 L-28.15 -69.05 -29.35 -74.1 -15.4 -65.65 -23.3 -57.45 -16.35 -47.8 -29.85 -56.0 -22.25 -64.45 M-20.15 -61.4 L-16.25 -65.45 -28.75 -73.05 -27.75 -69.45 -21.4 -64.6 -24.25 -61.45 -29.15 -56.05 -17.7 -49.1 -24.1 -57.35 -20.15 -61.4" fill="#2fffbb" fill-rule="evenodd" stroke="none"/>
    <path d="M-24.25 -61.45 L-21.4 -64.6 -27.75 -69.45 -28.75 -73.05 -16.25 -65.45 -20.15 -61.4 -24.25 -61.45" fill="#007d55" fill-rule="evenodd" stroke="none"/>
    <path d="M-20.15 -61.4 L-24.1 -57.35 -17.7 -49.1 -29.15 -56.05 -24.25 -61.45 -20.15 -61.4" fill="#004f35" fill-rule="evenodd" stroke="none"/>
  </g>
</svg>
