<?xml version="1.0" encoding="UTF-8" standalone="no"?>
<svg xmlns:ffdec="https://www.free-decompiler.com/flash" xmlns:xlink="http://www.w3.org/1999/xlink" ffdec:objectType="shape" height="113.7px" width="94.9px" xmlns="http://www.w3.org/2000/svg">
  <g transform="matrix(1.0, 0.0, 0.0, 1.0, 0.0, 113.5)">
    <path d="M80.45 -56.2 L80.8 -56.05 80.95 -55.7 80.95 -1.8 80.9 -1.55 80.7 -1.35 79.45 -0.7 78.95 -0.45 78.45 -0.25 73.95 -0.05 Q72.65 -0.45 71.4 -1.4 L71.25 -1.55 71.2 -1.8 71.2 -55.7 71.35 -56.05 Q71.5 -56.2 71.7 -56.2 L80.45 -56.2 M72.2 -53.35 L72.2 -47.75 72.2 -43.7 72.2 -41.95 72.2 -36.35 72.2 -30.55 72.2 -24.95 72.2 -19.15 72.2 -13.55 72.2 -7.65 72.2 -2.05 72.3 -2.0 Q72.35 -1.9 72.5 -1.85 73.25 -1.35 73.95 -1.15 L78.45 -1.35 78.95 -1.55 79.45 -1.8 79.65 -1.9 79.95 -2.05 79.95 -7.65 79.95 -13.55 79.95 -19.15 79.95 -24.95 79.95 -30.55 79.95 -36.35 79.95 -41.95 79.95 -43.7 79.95 -47.75 79.95 -53.35 79.95 -55.2 72.2 -55.2 72.2 -53.35 M25.2 -81.95 L25.55 -81.8 25.7 -81.45 25.7 -27.55 25.65 -27.3 25.45 -27.1 24.2 -26.45 23.7 -26.2 23.2 -26.0 18.7 -25.8 Q17.4 -26.2 16.15 -27.15 L16.0 -27.3 15.95 -27.55 15.95 -81.45 16.1 -81.8 16.45 -81.95 25.2 -81.95 M23.2 -78.4 L18.7 -78.2 Q17.9 -78.45 16.95 -79.1 L16.95 -73.5 Q17.9 -72.85 18.7 -72.6 L23.2 -72.8 24.7 -73.5 24.7 -79.1 23.2 -78.4 M16.95 -67.7 L16.95 -62.1 Q17.9 -61.45 18.7 -61.2 L23.2 -61.4 24.7 -62.1 24.7 -67.7 23.2 -67.0 18.7 -66.8 Q17.9 -67.05 16.95 -67.7 M5.45 -55.7 L5.6 -56.05 5.95 -56.2 14.7 -56.2 15.05 -56.05 15.2 -55.7 15.2 -1.8 15.15 -1.55 14.95 -1.35 13.7 -0.7 13.2 -0.45 12.7 -0.25 8.2 -0.05 Q6.9 -0.45 5.65 -1.4 L5.5 -1.55 5.45 -1.8 5.45 -55.7 M14.2 -47.75 L14.2 -53.35 12.7 -52.65 8.2 -52.45 Q7.4 -52.7 6.45 -53.35 L6.45 -47.75 6.45 -43.7 6.45 -41.95 6.45 -36.35 6.45 -30.55 6.45 -24.95 6.45 -19.15 6.45 -13.55 6.45 -7.65 6.45 -2.05 6.55 -2.0 6.75 -1.85 Q7.5 -1.35 8.2 -1.15 L12.7 -1.35 13.2 -1.55 13.7 -1.8 13.9 -1.9 14.2 -2.05 14.2 -7.65 14.2 -13.55 14.2 -19.15 14.2 -24.95 14.2 -30.55 14.2 -36.35 14.2 -41.95 14.2 -43.7 14.2 -47.75 M23.1 -49.95 L23.2 -50.0 24.7 -50.7 24.7 -56.3 23.2 -55.6 18.7 -55.4 Q17.9 -55.65 16.95 -56.3 L16.95 -50.7 18.3 -49.95 16.95 -49.95 16.95 -44.9 16.95 -39.3 Q17.9 -38.65 18.7 -38.4 L23.2 -38.6 24.7 -39.3 24.7 -44.9 24.7 -49.95 23.7 -49.95 23.1 -49.95 M23.7 -32.9 L23.2 -32.7 18.7 -32.5 Q17.9 -32.75 16.95 -33.4 L16.95 -27.8 17.05 -27.75 17.25 -27.6 Q18.0 -27.1 18.7 -26.9 L23.2 -27.1 23.7 -27.3 24.2 -27.55 24.4 -27.65 24.7 -27.8 24.7 -33.4 23.7 -32.9 M91.3 -81.8 L91.45 -81.45 91.45 -27.55 91.4 -27.3 91.2 -27.1 89.95 -26.45 89.45 -26.2 88.95 -26.0 84.45 -25.8 Q83.15 -26.2 81.9 -27.15 L81.75 -27.3 81.7 -27.55 81.7 -81.45 81.85 -81.8 Q82.0 -81.95 82.2 -81.95 L90.95 -81.95 91.3 -81.8 M82.7 -79.1 L82.7 -73.5 Q83.65 -72.85 84.45 -72.6 L88.95 -72.8 90.45 -73.5 90.45 -79.1 88.95 -78.4 84.45 -78.2 Q83.65 -78.45 82.7 -79.1 M90.45 -67.7 L88.95 -67.0 84.45 -66.8 Q83.65 -67.05 82.7 -67.7 L82.7 -62.1 Q83.65 -61.45 84.45 -61.2 L88.95 -61.4 90.45 -62.1 90.45 -67.7 M90.45 -56.3 L90.45 -59.95 89.75 -55.95 88.95 -55.6 84.45 -55.4 Q83.65 -55.65 82.7 -56.3 L82.7 -50.7 83.55 -50.2 82.7 -50.2 82.7 -44.9 82.7 -39.3 82.7 -33.4 82.7 -27.8 82.8 -27.7 82.85 -27.65 83.0 -27.6 Q83.75 -27.1 84.45 -26.9 L88.95 -27.1 89.45 -27.3 89.95 -27.55 90.15 -27.65 90.45 -27.8 90.45 -33.4 90.45 -39.3 90.45 -44.9 90.45 -50.7 90.45 -56.3" fill="#161616" fill-rule="evenodd" stroke="none"/>
    <path d="M16.95 -67.7 Q17.9 -67.05 18.7 -66.8 L23.2 -67.0 24.7 -67.7 24.7 -62.1 23.2 -61.4 18.7 -61.2 Q17.9 -61.45 16.95 -62.1 L16.95 -67.7 M23.2 -78.4 L24.7 -79.1 24.7 -73.5 23.2 -72.8 18.7 -72.6 Q17.9 -72.85 16.95 -73.5 L16.95 -79.1 Q17.9 -78.45 18.7 -78.2 L23.2 -78.4 M8.2 -1.15 Q7.5 -1.35 6.75 -1.85 L6.85 -1.8 Q7.5 -1.4 8.2 -1.15 M18.3 -49.95 L16.95 -50.7 16.95 -56.3 Q17.9 -55.65 18.7 -55.4 L23.2 -55.6 24.7 -56.3 24.7 -50.7 23.2 -50.0 23.1 -49.95 18.3 -49.95 M24.7 -44.9 L24.7 -39.3 23.2 -38.6 18.7 -38.4 Q17.9 -38.65 16.95 -39.3 L16.95 -44.9 Q17.9 -44.25 18.7 -44.0 L23.2 -44.2 23.7 -44.4 24.7 -44.9 M18.7 -26.9 Q18.0 -27.1 17.25 -27.6 L17.35 -27.55 Q18.0 -27.15 18.7 -26.9 M73.95 -1.15 Q73.25 -1.35 72.5 -1.85 L72.6 -1.8 Q73.25 -1.4 73.95 -1.15 M90.45 -67.7 L90.45 -62.1 88.95 -61.4 84.45 -61.2 Q83.65 -61.45 82.7 -62.1 L82.7 -67.7 Q83.65 -67.05 84.45 -66.8 L88.95 -67.0 90.45 -67.7 M82.7 -79.1 Q83.65 -78.45 84.45 -78.2 L88.95 -78.4 90.45 -79.1 90.45 -73.5 88.95 -72.8 84.45 -72.6 Q83.65 -72.85 82.7 -73.5 L82.7 -79.1 M89.75 -55.95 L89.45 -54.25 Q87.45 -51.15 84.45 -50.2 L83.55 -50.2 82.7 -50.7 82.7 -56.3 Q83.65 -55.65 84.45 -55.4 L88.95 -55.6 89.75 -55.95 M83.0 -27.6 L83.1 -27.55 Q83.75 -27.15 84.45 -26.9 83.75 -27.1 83.0 -27.6" fill="#592f00" fill-rule="evenodd" stroke="none"/>
    <path d="M72.2 -53.35 Q73.15 -52.7 73.95 -52.45 L78.45 -52.65 79.95 -53.35 79.95 -47.75 78.45 -47.05 73.95 -46.85 Q73.15 -47.1 72.2 -47.75 L72.2 -53.35 M6.45 -47.75 L6.45 -53.35 Q7.4 -52.7 8.2 -52.45 L12.7 -52.65 14.2 -53.35 14.2 -47.75 12.7 -47.05 8.2 -46.85 Q7.4 -47.1 6.45 -47.75 M18.3 -49.95 L23.1 -49.95 18.7 -49.8 18.3 -49.95 M23.7 -32.9 L24.7 -33.4 24.7 -27.8 24.4 -27.65 23.7 -27.3 23.7 -32.9 M17.25 -27.6 L17.05 -27.75 16.95 -27.8 16.95 -33.4 Q17.9 -32.75 18.7 -32.5 L18.7 -26.9 Q18.0 -27.15 17.35 -27.55 L17.25 -27.6 M89.75 -55.95 L90.45 -56.3 90.45 -50.7 89.45 -50.2 89.45 -50.55 89.25 -50.35 88.85 -49.95 84.45 -49.8 83.55 -50.2 84.45 -50.2 Q87.45 -51.15 89.45 -54.25 L89.75 -55.95 M82.7 -44.9 Q83.65 -44.25 84.45 -44.0 L84.45 -38.4 Q83.65 -38.65 82.7 -39.3 L82.7 -44.9 M89.45 -44.4 L90.45 -44.9 90.45 -39.3 89.45 -38.8 89.45 -44.4 M82.7 -33.4 Q83.65 -32.75 84.45 -32.5 L84.45 -26.9 Q83.75 -27.15 83.1 -27.55 L83.0 -27.6 82.85 -27.65 82.8 -27.7 82.7 -27.8 82.7 -33.4 M89.45 -27.3 L89.45 -32.9 90.45 -33.4 90.45 -27.8 90.15 -27.65 89.95 -27.55 89.45 -27.3" fill="#954f00" fill-rule="evenodd" stroke="none"/>
    <path d="M79.95 -53.35 L78.45 -52.65 73.95 -52.45 Q73.15 -52.7 72.2 -53.35 L72.2 -55.2 79.95 -55.2 79.95 -53.35 M72.2 -47.75 Q73.15 -47.1 73.95 -46.85 L78.45 -47.05 79.95 -47.75 79.95 -43.7 72.2 -43.7 72.2 -47.75 M6.45 -47.75 Q7.4 -47.1 8.2 -46.85 L12.7 -47.05 14.2 -47.75 14.2 -43.7 6.45 -43.7 6.45 -47.75 M23.7 -49.95 L24.7 -49.95 24.7 -44.9 23.7 -44.4 23.7 -49.95 M16.95 -44.9 L16.95 -49.95 18.3 -49.95 18.7 -49.8 18.7 -44.0 Q17.9 -44.25 16.95 -44.9 M24.4 -27.65 L24.2 -27.55 23.7 -27.3 24.4 -27.65 M90.45 -56.3 L89.75 -55.95 90.45 -59.95 90.45 -56.3 M83.55 -50.2 L84.45 -49.8 88.85 -49.95 88.9 -49.95 Q87.0 -48.25 84.45 -47.9 L84.45 -44.0 Q83.65 -44.25 82.7 -44.9 L82.7 -50.2 83.55 -50.2 M89.45 -50.2 L90.45 -50.7 90.45 -44.9 89.45 -44.4 89.45 -50.2 M82.7 -39.3 Q83.65 -38.65 84.45 -38.4 L84.45 -32.5 Q83.65 -32.75 82.7 -33.4 L82.7 -39.3 M89.45 -32.9 L89.45 -38.8 90.45 -39.3 90.45 -33.4 89.45 -32.9" fill="#1f1f1f" fill-rule="evenodd" stroke="none"/>
    <path d="M14.2 -43.7 L14.2 -41.95 13.2 -41.45 13.2 -41.7 8.2 -41.7 8.2 -41.05 Q7.4 -41.3 6.45 -41.95 L6.45 -43.7 14.2 -43.7 M14.2 -36.35 L14.2 -30.55 13.2 -30.05 13.2 -35.85 14.2 -36.35 M14.2 -24.95 L14.2 -19.15 13.2 -18.65 13.2 -24.45 14.2 -24.95 M14.2 -13.55 L14.2 -7.65 13.2 -7.15 13.2 -13.05 14.2 -13.55 M13.9 -1.9 L13.7 -1.8 13.2 -1.55 13.9 -1.9 M6.45 -7.65 L6.45 -13.55 Q7.4 -12.9 8.2 -12.65 L8.2 -6.75 Q7.4 -7.0 6.45 -7.65 M6.45 -19.15 L6.45 -24.95 Q7.4 -24.3 8.2 -24.05 L8.2 -18.25 Q7.4 -18.5 6.45 -19.15 M6.45 -30.55 L6.45 -36.35 Q7.4 -35.7 8.2 -35.45 L8.2 -29.65 Q7.4 -29.9 6.45 -30.55 M23.1 -49.95 L23.7 -49.95 23.7 -44.4 23.2 -44.2 18.7 -44.0 18.7 -49.8 23.1 -49.95 M23.7 -27.3 L23.2 -27.1 23.7 -27.3 M79.95 -43.7 L79.95 -41.95 78.95 -41.45 78.95 -41.7 73.95 -41.7 73.95 -41.05 Q73.15 -41.3 72.2 -41.95 L72.2 -43.7 79.95 -43.7 M79.95 -36.35 L79.95 -30.55 78.95 -30.05 78.95 -35.85 79.95 -36.35 M79.95 -24.95 L79.95 -19.15 78.95 -18.65 78.95 -24.45 79.95 -24.95 M79.95 -13.55 L79.95 -7.65 78.95 -7.15 78.95 -13.05 79.95 -13.55 M72.2 -7.65 L72.2 -13.55 Q73.15 -12.9 73.95 -12.65 L73.95 -6.75 Q73.15 -7.0 72.2 -7.65 M72.2 -19.15 L72.2 -24.95 Q73.15 -24.3 73.95 -24.05 L73.95 -18.25 Q73.15 -18.5 72.2 -19.15 M72.2 -30.55 L72.2 -36.35 Q73.15 -35.7 73.95 -35.45 L73.95 -29.65 Q73.15 -29.9 72.2 -30.55 M84.45 -44.0 L84.45 -47.9 Q87.0 -48.25 88.9 -49.95 L88.95 -50.0 89.45 -50.2 89.45 -44.4 88.95 -44.2 84.45 -44.0 M84.45 -38.4 L88.95 -38.6 89.45 -38.8 89.45 -32.9 88.95 -32.7 84.45 -32.5 84.45 -38.4" fill="#2d2d2d" fill-rule="evenodd" stroke="none"/>
    <path d="M14.2 -41.95 L14.2 -36.35 13.2 -35.85 13.2 -41.45 14.2 -41.95 M14.2 -30.55 L14.2 -24.95 13.2 -24.45 13.2 -30.05 14.2 -30.55 M14.2 -19.15 L14.2 -13.55 13.2 -13.05 13.2 -18.65 14.2 -19.15 M14.2 -7.65 L14.2 -2.05 13.9 -1.9 13.2 -1.55 13.2 -7.15 14.2 -7.65 M6.75 -1.85 L6.55 -2.0 6.45 -2.05 6.45 -7.65 Q7.4 -7.0 8.2 -6.75 L8.2 -1.15 Q7.5 -1.4 6.85 -1.8 L6.75 -1.85 M6.45 -13.55 L6.45 -19.15 Q7.4 -18.5 8.2 -18.25 L8.2 -12.65 Q7.4 -12.9 6.45 -13.55 M6.45 -24.95 L6.45 -30.55 Q7.4 -29.9 8.2 -29.65 L8.2 -24.05 Q7.4 -24.3 6.45 -24.95 M6.45 -36.35 L6.45 -41.95 Q7.4 -41.3 8.2 -41.05 L8.2 -35.45 Q7.4 -35.7 6.45 -36.35 M18.7 -32.5 L23.2 -32.7 23.7 -32.9 23.7 -27.3 23.2 -27.1 18.7 -26.9 18.7 -32.5 M79.95 -41.95 L79.95 -36.35 78.95 -35.85 78.95 -41.45 79.95 -41.95 M79.95 -30.55 L79.95 -24.95 78.95 -24.45 78.95 -30.05 79.95 -30.55 M79.95 -19.15 L79.95 -13.55 78.95 -13.05 78.95 -18.65 79.95 -19.15 M79.95 -7.65 L79.95 -2.05 79.65 -1.9 79.45 -1.8 78.95 -1.55 78.95 -7.15 79.95 -7.65 M72.5 -1.85 Q72.35 -1.9 72.3 -2.0 L72.2 -2.05 72.2 -7.65 Q73.15 -7.0 73.95 -6.75 L73.95 -1.15 Q73.25 -1.4 72.6 -1.8 L72.5 -1.85 M72.2 -13.55 L72.2 -19.15 Q73.15 -18.5 73.95 -18.25 L73.95 -12.65 Q73.15 -12.9 72.2 -13.55 M72.2 -24.95 L72.2 -30.55 Q73.15 -29.9 73.95 -29.65 L73.95 -24.05 Q73.15 -24.3 72.2 -24.95 M72.2 -36.35 L72.2 -41.95 Q73.15 -41.3 73.95 -41.05 L73.95 -35.45 Q73.15 -35.7 72.2 -36.35 M88.85 -49.95 L89.25 -50.35 89.45 -50.55 89.45 -50.2 88.95 -50.0 88.9 -49.95 88.85 -49.95 M84.45 -44.0 L88.95 -44.2 89.45 -44.4 89.45 -38.8 88.95 -38.6 84.45 -38.4 84.45 -44.0 M84.45 -32.5 L88.95 -32.7 89.45 -32.9 89.45 -27.3 88.95 -27.1 84.45 -26.9 84.45 -32.5" fill="#c46700" fill-rule="evenodd" stroke="none"/>
    <path d="M13.2 -1.55 L12.7 -1.35 13.2 -1.55 M13.2 -41.45 L12.7 -41.25 8.2 -41.05 8.2 -41.7 13.2 -41.7 13.2 -41.45 M8.2 -29.65 L8.2 -35.45 12.7 -35.65 13.2 -35.85 13.2 -30.05 12.7 -29.85 8.2 -29.65 M13.2 -24.45 L13.2 -18.65 12.7 -18.45 8.2 -18.25 8.2 -24.05 12.7 -24.25 13.2 -24.45 M8.2 -12.65 L12.7 -12.85 13.2 -13.05 13.2 -7.15 12.7 -6.95 8.2 -6.75 8.2 -12.65 M73.95 -41.05 L73.95 -41.7 78.95 -41.7 78.95 -41.45 78.45 -41.25 73.95 -41.05 M73.95 -35.45 L78.45 -35.65 78.95 -35.85 78.95 -30.05 78.45 -29.85 73.95 -29.65 73.95 -35.45 M73.95 -24.05 L78.45 -24.25 78.95 -24.45 78.95 -18.65 78.45 -18.45 73.95 -18.25 73.95 -24.05 M73.95 -12.65 L78.45 -12.85 78.95 -13.05 78.95 -7.15 78.45 -6.95 73.95 -6.75 73.95 -12.65" fill="#373737" fill-rule="evenodd" stroke="none"/>
    <path d="M12.7 -1.35 L8.2 -1.15 8.2 -6.75 12.7 -6.95 13.2 -7.15 13.2 -1.55 12.7 -1.35 M8.2 -41.05 L12.7 -41.25 13.2 -41.45 13.2 -35.85 12.7 -35.65 8.2 -35.45 8.2 -41.05 M8.2 -29.65 L12.7 -29.85 13.2 -30.05 13.2 -24.45 12.7 -24.25 8.2 -24.05 8.2 -29.65 M13.2 -18.65 L13.2 -13.05 12.7 -12.85 8.2 -12.65 8.2 -18.25 12.7 -18.45 13.2 -18.65 M78.95 -1.55 L78.45 -1.35 73.95 -1.15 73.95 -6.75 78.45 -6.95 78.95 -7.15 78.95 -1.55 M73.95 -41.05 L78.45 -41.25 78.95 -41.45 78.95 -35.85 78.45 -35.65 73.95 -35.45 73.95 -41.05 M78.95 -30.05 L78.95 -24.45 78.45 -24.25 73.95 -24.05 73.95 -29.65 78.45 -29.85 78.95 -30.05 M73.95 -12.65 L73.95 -18.25 78.45 -18.45 78.95 -18.65 78.95 -13.05 78.45 -12.85 73.95 -12.65" fill="#fba300" fill-rule="evenodd" stroke="none"/>
    <path d="M87.0 -56.85 L86.9 -56.7 86.5 -56.25 86.25 -55.9 85.75 -55.4 85.65 -55.35 85.0 -54.95 85.0 -62.05 85.6 -62.45 86.25 -63.0 86.55 -63.35 86.85 -63.7 86.8 -59.1 87.0 -57.2 87.0 -56.85 M83.75 -54.5 L0.95 -54.5 0.95 -61.25 82.95 -61.25 83.7 -61.5 83.7 -58.85 83.7 -55.05 83.75 -54.5" fill="#641d83" fill-rule="evenodd" stroke="none"/>
    <path d="M94.05 -86.8 L94.1 -87.0 94.15 -80.95 87.15 -57.15 87.0 -56.85 87.0 -57.2 86.8 -59.1 86.85 -63.7 87.05 -64.0 94.05 -86.8" fill="#4b1663" fill-rule="evenodd" stroke="none"/>
    <path d="M6.3 -89.05 Q7.85 -94.05 12.85 -94.05 L91.2 -94.05 Q94.05 -94.05 94.75 -92.45 95.1 -86.2 94.75 -80.4 L94.3 -78.8 94.3 -78.75 88.2 -57.85 Q87.5 -55.65 86.15 -54.4 L85.3 -53.75 84.7 -53.4 1.35 -53.4 Q0.2 -53.75 0.1 -54.8 L0.1 -63.65 Q-0.2 -65.4 0.3 -67.05 L6.15 -88.4 6.3 -89.05 M94.2 -89.55 Q94.9 -93.45 90.5 -93.45 L13.65 -93.45 Q8.65 -93.45 7.1 -88.45 L1.1 -67.05 Q0.7 -65.65 0.8 -64.6 L0.85 -62.4 0.95 -61.25 0.95 -54.5 83.75 -54.5 83.95 -54.5 85.0 -54.95 85.65 -55.35 85.75 -55.4 86.25 -55.9 86.5 -56.25 86.9 -56.7 87.0 -56.85 87.15 -57.15 94.15 -80.95 94.1 -87.0 94.05 -86.8 94.15 -88.7 94.2 -89.55" fill="#280c34" fill-rule="evenodd" stroke="none"/>
    <path d="M7.7 -79.35 L7.55 -78.85 4.45 -69.2 Q3.1 -64.75 7.9 -64.75 L78.85 -64.75 Q83.65 -64.75 85.0 -69.2 L88.1 -78.85 88.25 -79.3 88.7 -80.7 89.8 -84.1 90.5 -86.3 Q91.9 -90.75 87.05 -90.75 L16.15 -90.75 Q11.3 -90.75 9.9 -86.3 L9.65 -85.5 9.25 -84.15 7.7 -79.35 M0.8 -64.6 Q0.7 -65.65 1.1 -67.05 L7.1 -88.45 Q8.65 -93.45 13.65 -93.45 L90.5 -93.45 Q94.9 -93.45 94.2 -89.55 L93.9 -88.45 93.9 -88.4 92.9 -85.15 86.65 -65.1 Q84.85 -62.05 80.95 -62.05 L4.65 -62.05 3.25 -62.15 Q2.0 -62.4 1.4 -63.15 L1.15 -63.5 0.8 -65.3 0.8 -64.6 M85.0 -54.95 L83.95 -54.5 83.75 -54.5 83.7 -55.05 83.7 -58.85 83.7 -61.5 Q84.25 -61.7 85.0 -62.05 L85.0 -54.95" fill="#8d28b9" fill-rule="evenodd" stroke="none"/>
    <path d="M94.2 -89.55 L94.15 -88.7 94.05 -86.8 87.05 -64.0 86.85 -63.7 86.55 -63.35 86.25 -63.0 85.6 -62.45 85.0 -62.05 Q84.25 -61.7 83.7 -61.5 L82.95 -61.25 0.95 -61.25 0.85 -62.4 0.8 -64.6 0.8 -65.3 1.15 -63.5 1.4 -63.15 Q2.0 -62.4 3.25 -62.15 L4.65 -62.05 80.95 -62.05 Q84.85 -62.05 86.65 -65.1 L92.9 -85.15 93.9 -88.4 93.9 -88.45 94.2 -89.55" fill="#b457db" fill-rule="evenodd" stroke="none"/>
    <path d="M88.25 -79.3 L38.15 -79.3 38.15 -79.35 7.7 -79.35 9.25 -84.15 9.65 -85.5 9.9 -86.3 Q11.3 -90.75 16.15 -90.75 L87.05 -90.75 Q91.9 -90.75 90.5 -86.3 L89.8 -84.1 88.7 -80.7 88.25 -79.3" fill="#1f1f1f" fill-rule="evenodd" stroke="none"/>
    <path d="M7.7 -79.35 L38.15 -79.35 38.15 -79.3 88.25 -79.3 88.1 -78.85 85.0 -69.2 Q83.65 -64.75 78.85 -64.75 L7.9 -64.75 Q3.1 -64.75 4.45 -69.2 L7.55 -78.85 7.7 -79.35" fill="#2c2c2c" fill-rule="evenodd" stroke="none"/>
    <path d="M21.35 -93.2 Q19.7 -95.2 18.7 -99.5 L18.85 -103.0 Q20.75 -97.6 22.0 -95.4 24.0 -91.65 28.1 -90.5 L30.2 -90.1 29.6 -89.8 29.95 -89.4 27.3 -90.1 Q25.0 -90.8 23.1 -91.75 22.3 -92.8 19.45 -97.8 19.45 -96.5 21.35 -93.2 M38.65 -96.35 L38.95 -95.9 38.3 -95.85 38.2 -94.7 35.4 -95.3 35.4 -95.4 38.3 -95.85 38.65 -96.35 M57.65 -102.3 L58.55 -102.25 57.2 -102.0 57.65 -102.3 M61.75 -102.15 L62.3 -102.15 Q61.85 -102.15 62.45 -102.1 L61.75 -102.15 M64.4 -102.05 L67.3 -101.95 66.65 -101.5 64.4 -100.95 Q62.8 -100.35 62.3 -99.75 L60.85 -97.4 60.0 -95.95 59.85 -95.75 59.8 -96.25 Q59.8 -98.7 61.1 -100.3 62.4 -101.85 64.4 -102.05 M73.8 -88.6 L73.5 -86.25 72.5 -85.6 Q72.7 -86.6 73.05 -87.2 L73.8 -88.6 M31.3 -93.15 L31.3 -93.2 33.6 -93.2 Q35.2 -93.35 35.8 -93.65 L35.6 -94.65 38.1 -93.9 Q37.45 -92.2 37.45 -91.65 L33.15 -92.35 31.7 -92.8 31.3 -92.9 31.3 -93.15 M52.55 -111.4 L52.25 -112.6 54.35 -110.85 56.55 -108.9 56.6 -108.8 57.8 -106.4 57.95 -105.6 57.95 -104.7 57.7 -103.1 57.45 -103.1 Q56.4 -103.75 55.7 -105.4 L55.1 -107.15 54.9 -107.1 54.85 -106.65 Q54.85 -104.1 54.3 -103.2 L54.0 -103.2 54.4 -107.0 Q54.35 -108.05 52.55 -111.4 M49.6 -99.7 L48.75 -99.25 Q48.05 -98.45 47.3 -96.7 46.65 -95.15 46.65 -94.65 46.65 -92.3 48.75 -92.3 L48.95 -92.3 51.5 -93.45 49.75 -91.4 Q48.6 -90.4 47.65 -90.4 46.45 -90.4 45.75 -91.4 45.05 -92.45 45.05 -94.35 45.05 -97.05 47.35 -98.7 49.25 -100.1 51.3 -100.05 L50.3 -99.9 49.6 -99.7 M40.45 -99.5 L42.1 -98.55 Q43.25 -97.35 43.25 -94.65 L42.8 -92.8 42.35 -90.95 Q42.35 -88.85 44.25 -86.15 45.85 -83.9 47.8 -83.55 L44.7 -83.8 40.4 -84.45 40.2 -84.55 39.25 -84.75 Q38.85 -85.0 38.85 -85.35 L38.9 -86.25 Q39.6 -87.75 40.85 -89.35 41.8 -90.85 41.8 -93.85 41.8 -95.0 41.0 -96.35 40.05 -97.85 39.9 -98.55 L40.45 -99.5 M48.65 -83.5 L49.8 -83.75 Q50.5 -85.85 50.9 -86.35 L51.3 -86.6 51.4 -86.55 51.6 -85.1 51.55 -84.3 51.35 -83.8 50.85 -83.75 Q51.0 -85.2 50.8 -85.25 L50.2 -83.65 Q50.95 -83.75 49.95 -83.55 L49.55 -83.5 48.65 -83.5 M58.35 -83.75 L58.2 -84.3 Q58.05 -84.8 58.05 -85.4 58.05 -86.4 58.45 -86.5 L58.85 -86.5 58.9 -86.45 59.35 -86.35 Q59.6 -86.25 60.4 -87.9 L60.55 -87.65 60.6 -86.95 Q60.5 -86.0 60.7 -85.05 L60.95 -83.9 60.8 -83.85 60.1 -85.4 60.0 -85.55 59.75 -84.6 59.9 -84.2 Q60.2 -83.8 59.95 -83.75 L58.35 -83.75 M68.1 -85.0 Q68.15 -85.5 68.75 -86.0 L69.1 -84.95 69.05 -84.95 68.35 -85.0 68.1 -85.0 M32.5 -92.05 L33.35 -91.65 Q34.2 -91.25 35.4 -90.95 L36.25 -90.9 Q34.75 -90.0 33.5 -90.05 34.2 -90.15 34.2 -90.45 34.0 -91.1 32.5 -92.05" fill="#cdcdbe" fill-rule="evenodd" stroke="none"/>
    <path d="M18.0 -103.1 Q18.0 -106.65 19.1 -109.85 19.95 -112.4 20.8 -113.05 21.7 -112.05 22.0 -109.35 L22.7 -104.65 Q24.4 -98.95 33.3 -98.95 34.1 -98.95 36.55 -100.4 39.25 -101.95 41.15 -102.25 L47.8 -103.3 Q51.0 -103.3 51.85 -104.15 52.5 -104.8 52.5 -107.1 L52.0 -109.15 Q51.45 -111.2 51.45 -112.55 51.45 -113.2 51.7 -113.35 L52.2 -113.5 Q55.1 -113.3 57.5 -109.85 59.65 -106.75 59.65 -104.15 L59.6 -102.95 Q68.85 -103.8 72.1 -101.7 75.4 -99.6 74.55 -91.15 L73.7 -82.3 73.7 -81.9 73.65 -81.65 73.7 -81.65 73.5 -80.25 Q70.65 -78.65 68.7 -78.95 68.35 -79.0 66.3 -78.25 64.15 -77.4 62.7 -77.4 61.95 -77.4 61.35 -77.85 61.0 -78.05 60.55 -78.5 L59.4 -77.1 Q58.05 -75.95 56.35 -76.0 L49.95 -75.95 45.65 -75.8 Q37.2 -75.8 34.65 -78.45 34.15 -78.95 32.65 -83.45 L31.2 -88.0 27.55 -89.35 Q23.15 -90.8 21.15 -91.9 18.95 -93.1 18.25 -97.5 18.0 -99.25 18.0 -103.1 M18.85 -103.0 L18.7 -99.5 Q19.7 -95.2 21.35 -93.2 L23.1 -91.75 Q25.0 -90.8 27.3 -90.1 L29.95 -89.4 35.0 -89.0 Q39.25 -89.65 39.25 -94.7 L39.1 -95.6 38.95 -95.9 38.65 -96.35 36.3 -97.85 34.6 -98.35 26.3 -99.85 Q23.75 -100.35 22.5 -104.0 21.75 -106.25 20.95 -112.45 L20.1 -110.65 19.3 -107.25 18.85 -103.0 M38.7 -100.6 L37.65 -100.0 35.85 -98.7 36.9 -98.65 Q37.9 -98.45 38.9 -97.45 40.1 -96.25 40.1 -94.65 40.1 -92.7 39.0 -90.8 37.3 -88.0 33.95 -88.0 L32.7 -88.15 Q32.7 -86.95 33.85 -85.55 L35.55 -83.4 37.05 -82.25 Q40.3 -81.05 45.6 -81.35 L50.65 -81.9 55.2 -82.25 60.35 -82.5 60.45 -82.4 60.8 -82.6 61.05 -82.8 61.7 -83.8 63.7 -84.15 Q65.7 -84.15 67.8 -83.3 L68.2 -83.3 68.55 -83.4 68.55 -83.45 71.35 -84.15 Q72.85 -84.7 73.5 -86.25 L73.8 -88.6 Q74.15 -89.8 74.15 -91.7 74.15 -98.7 72.9 -100.2 72.4 -100.85 71.3 -101.2 69.2 -101.8 68.9 -101.95 L67.3 -101.95 64.4 -102.05 62.3 -102.15 61.75 -102.15 58.55 -102.25 57.65 -102.3 Q51.35 -102.45 44.95 -102.15 L44.8 -102.1 38.7 -100.6 M57.95 -105.6 L57.8 -106.4 56.6 -108.8 56.55 -108.9 54.35 -110.85 52.25 -112.6 52.55 -111.4 53.35 -107.05 Q53.35 -105.8 52.55 -103.8 L52.4 -103.2 54.0 -103.2 54.3 -103.2 57.45 -103.1 57.7 -103.1 58.8 -103.05 57.95 -105.6 M61.95 -78.05 Q64.3 -77.6 66.25 -78.55 68.25 -79.5 68.25 -81.05 68.25 -81.75 67.7 -82.4 67.0 -83.3 65.8 -83.3 L62.75 -82.9 Q60.65 -81.35 60.65 -79.35 L61.95 -78.05 M72.7 -83.3 L70.1 -83.45 70.1 -83.25 68.25 -82.75 68.6 -81.05 68.5 -79.6 69.95 -79.6 71.95 -79.85 Q73.35 -80.25 73.35 -81.45 73.35 -82.75 72.7 -83.3 M60.95 -81.4 L60.8 -81.55 60.8 -81.3 60.95 -81.4 M49.8 -80.25 L45.7 -80.65 42.85 -80.65 42.6 -80.6 38.7 -80.85 38.3 -80.9 36.2 -81.55 Q34.1 -82.7 32.8 -85.55 L32.85 -84.7 Q33.75 -78.25 38.85 -76.8 41.4 -76.05 48.85 -76.55 L49.4 -76.6 Q50.3 -76.85 50.4 -77.5 L49.9 -80.25 49.5 -80.55 49.8 -80.25 M53.35 -76.4 L58.55 -76.95 Q60.4 -77.65 60.4 -80.05 60.4 -81.15 59.85 -81.5 L56.6 -81.8 56.15 -81.8 52.4 -81.45 Q50.4 -80.95 50.4 -80.15 50.4 -78.4 51.3 -77.35 52.1 -76.3 53.35 -76.4" fill="#443f33" fill-rule="evenodd" stroke="none"/>
    <path d="M38.95 -95.9 L39.1 -95.6 39.25 -94.7 Q39.25 -89.65 35.0 -89.0 L29.95 -89.4 29.6 -89.8 30.2 -90.1 28.1 -90.5 24.75 -92.95 25.35 -92.7 Q26.75 -91.65 27.8 -91.1 29.75 -90.0 32.05 -90.0 L33.5 -90.05 Q34.75 -90.0 36.25 -90.9 L35.4 -90.95 Q34.2 -91.25 33.35 -91.65 L32.5 -92.05 31.7 -92.8 33.15 -92.35 37.45 -91.65 Q37.45 -92.2 38.1 -93.9 L35.6 -94.65 34.8 -94.75 33.5 -95.65 33.65 -95.65 35.4 -95.4 35.4 -95.3 38.2 -94.7 38.3 -95.85 38.95 -95.9 M23.1 -91.75 L21.35 -93.2 Q19.45 -96.5 19.45 -97.8 22.3 -92.8 23.1 -91.75 M36.9 -98.65 L38.7 -100.6 44.8 -102.1 43.25 -101.55 Q41.6 -100.8 40.45 -99.5 L39.9 -98.55 Q40.05 -97.85 41.0 -96.35 41.8 -95.0 41.8 -93.85 41.8 -90.85 40.85 -89.35 39.6 -87.75 38.9 -86.25 L38.85 -85.35 Q38.85 -85.0 39.25 -84.75 L40.2 -84.55 40.4 -84.45 44.7 -83.8 47.8 -83.55 48.65 -83.5 49.55 -83.5 49.95 -83.55 49.95 -83.0 41.0 -81.75 Q39.55 -81.75 37.25 -83.4 34.45 -85.4 33.95 -88.0 37.3 -88.0 39.0 -90.8 40.1 -92.7 40.1 -94.65 40.1 -96.25 38.9 -97.45 37.9 -98.45 36.9 -98.65 M73.5 -86.25 Q72.85 -84.7 71.35 -84.15 L68.55 -83.45 69.05 -84.95 69.1 -84.95 69.5 -84.95 Q71.5 -85.05 72.5 -85.6 L73.5 -86.25 M67.8 -83.3 Q65.7 -84.15 63.7 -84.15 L61.7 -83.8 61.05 -82.8 60.8 -83.85 60.95 -83.9 61.6 -84.15 Q64.75 -85.1 67.95 -85.05 L68.1 -85.0 68.35 -85.0 67.8 -83.3 M60.35 -82.5 L55.2 -82.25 50.65 -81.9 50.8 -83.75 50.85 -83.75 51.35 -83.8 Q55.15 -83.95 58.35 -83.75 L59.95 -83.75 60.35 -82.5 M22.0 -99.55 L21.95 -100.1 Q21.95 -101.1 22.15 -100.6 L22.6 -99.75 Q22.8 -98.7 24.45 -97.05 26.05 -95.55 27.45 -94.85 28.35 -94.05 29.5 -93.65 L28.2 -94.7 Q29.1 -94.45 30.15 -93.8 L31.3 -93.2 31.3 -93.15 31.2 -93.2 29.65 -93.1 Q25.75 -94.75 24.0 -96.25 L23.55 -96.65 22.5 -98.5 22.0 -99.55 M57.95 -105.6 L58.8 -103.05 57.7 -103.1 57.95 -104.7 57.95 -105.6 M57.45 -103.1 L54.3 -103.2 Q54.85 -104.1 54.85 -106.65 L54.9 -107.1 55.1 -107.15 55.7 -105.4 Q56.4 -103.75 57.45 -103.1 M54.0 -103.2 L52.4 -103.2 52.55 -103.8 Q53.35 -105.8 53.35 -107.05 L52.55 -111.4 Q54.35 -108.05 54.4 -107.0 L54.0 -103.2 M49.6 -99.7 L50.3 -99.9 51.3 -100.05 52.2 -99.2 Q52.7 -98.55 52.7 -97.45 L52.65 -95.85 Q52.4 -94.35 51.5 -93.45 L48.95 -92.3 48.75 -92.3 Q46.65 -92.3 46.65 -94.65 46.65 -95.15 47.3 -96.7 48.05 -98.45 48.75 -99.25 L47.9 -97.45 47.5 -95.7 47.9 -94.95 48.6 -93.8 Q48.95 -93.45 49.7 -93.5 52.35 -94.4 52.35 -97.35 52.35 -98.4 51.95 -98.95 51.3 -99.75 49.6 -99.7 M62.75 -82.9 L65.8 -83.3 Q67.0 -83.3 67.7 -82.4 68.25 -81.75 68.25 -81.05 68.25 -79.5 66.25 -78.55 64.3 -77.6 61.95 -78.05 62.0 -80.45 62.2 -81.45 L62.75 -82.9 M70.1 -83.25 L70.1 -83.45 72.7 -83.3 72.8 -83.1 Q71.1 -82.85 70.4 -82.1 L69.9 -81.0 70.15 -80.55 Q70.65 -80.25 71.95 -79.85 L69.95 -79.6 69.5 -80.65 Q69.25 -81.3 69.25 -81.9 69.25 -82.45 69.65 -82.75 L70.1 -83.25 M63.0 -79.15 L64.35 -78.85 Q64.8 -78.85 66.25 -79.6 L68.0 -80.75 Q66.9 -82.55 64.95 -82.45 62.9 -82.4 62.9 -80.25 L63.0 -79.15 M56.15 -81.8 L56.6 -81.8 59.85 -81.5 Q60.4 -81.15 60.4 -80.05 60.4 -77.65 58.55 -76.95 L53.35 -76.4 52.15 -77.95 Q51.7 -78.8 51.7 -79.95 51.7 -80.25 53.15 -80.6 55.05 -81.05 56.15 -81.8 M59.5 -81.1 L57.65 -81.1 Q53.1 -81.35 53.1 -79.2 53.1 -77.3 56.05 -77.3 57.7 -77.3 58.75 -78.0 60.2 -78.95 59.5 -81.1" fill="#bfb7aa" fill-rule="evenodd" stroke="none"/>
    <path d="M20.1 -110.65 L20.95 -112.45 Q21.75 -106.25 22.5 -104.0 23.75 -100.35 26.3 -99.85 L34.6 -98.35 35.65 -97.25 35.05 -96.6 Q34.65 -96.3 34.0 -96.3 L28.8 -97.55 28.45 -97.5 Q28.9 -97.1 31.3 -95.8 33.7 -94.5 33.95 -94.35 L33.75 -94.1 32.95 -94.0 Q31.3 -94.0 26.5 -96.2 L26.25 -96.05 27.45 -94.85 Q26.05 -95.55 24.45 -97.05 22.8 -98.7 22.6 -99.75 L22.15 -100.6 Q21.95 -101.1 21.95 -100.1 L22.0 -99.55 Q19.2 -105.55 20.1 -110.65 M68.9 -101.95 Q69.2 -101.8 71.3 -101.2 72.4 -100.85 72.9 -100.2 74.15 -98.7 74.15 -91.7 74.15 -89.8 73.8 -88.6 L73.05 -87.2 Q72.7 -86.6 72.5 -85.6 71.5 -85.05 69.5 -84.95 69.4 -86.9 69.0 -87.6 L68.9 -87.45 Q68.1 -86.05 67.95 -85.05 64.75 -85.1 61.6 -84.15 L61.25 -88.5 Q61.25 -92.55 61.6 -95.15 L62.3 -99.75 Q62.8 -100.35 64.4 -100.95 L66.65 -101.5 68.9 -101.95 M23.55 -96.65 L24.0 -96.25 Q25.75 -94.75 29.65 -93.1 L31.35 -91.85 31.25 -91.85 31.1 -91.7 30.45 -91.7 Q26.65 -91.7 23.55 -96.65 M72.4 -95.0 Q71.65 -94.5 71.2 -93.65 L71.3 -93.1 Q71.75 -92.55 72.4 -92.55 72.85 -93.05 72.85 -94.65 L72.4 -95.0 M67.2 -94.75 Q66.85 -94.35 66.85 -93.8 66.85 -93.25 67.2 -92.85 67.5 -92.45 67.95 -92.45 68.4 -92.45 68.75 -92.85 69.05 -93.25 69.05 -93.8 L68.75 -94.75 Q68.4 -95.15 67.95 -95.15 67.5 -95.15 67.2 -94.75 M67.0 -81.65 L67.05 -80.9 66.65 -80.35 Q66.25 -79.9 65.65 -79.9 64.7 -79.9 64.5 -80.7 L64.85 -81.55 67.0 -81.65 M71.45 -82.05 L72.1 -82.25 72.8 -82.05 73.05 -81.55 72.8 -81.05 72.1 -80.85 Q71.7 -80.85 71.45 -81.05 71.15 -81.25 71.15 -81.55 L71.45 -82.05 M57.8 -78.9 L57.0 -79.05 Q57.2 -80.05 58.75 -80.8 L58.8 -80.25 Q58.2 -79.05 57.8 -78.9" fill="#eeeeea" fill-rule="evenodd" stroke="none"/>
    <path d="M18.85 -103.0 L19.3 -107.25 20.1 -110.65 Q19.2 -105.55 22.0 -99.55 L22.5 -98.5 23.55 -96.65 Q26.65 -91.7 30.45 -91.7 L31.1 -91.7 31.25 -91.85 31.35 -91.85 29.65 -93.1 31.2 -93.2 31.3 -93.15 31.3 -92.9 31.7 -92.8 32.5 -92.05 Q34.0 -91.1 34.2 -90.45 34.2 -90.15 33.5 -90.05 L32.05 -90.0 Q29.75 -90.0 27.8 -91.1 26.75 -91.65 25.35 -92.7 L24.75 -92.95 28.1 -90.5 Q24.0 -91.65 22.0 -95.4 20.75 -97.6 18.85 -103.0 M34.6 -98.35 L36.3 -97.85 38.65 -96.35 38.3 -95.85 35.4 -95.4 33.65 -95.65 33.5 -95.65 34.8 -94.75 35.6 -94.65 35.8 -93.65 Q35.2 -93.35 33.6 -93.2 L31.3 -93.2 30.15 -93.8 Q29.1 -94.45 28.2 -94.7 L29.5 -93.65 Q28.35 -94.05 27.45 -94.85 L26.25 -96.05 26.5 -96.2 Q31.3 -94.0 32.95 -94.0 L33.75 -94.1 33.95 -94.35 Q33.7 -94.5 31.3 -95.8 28.9 -97.1 28.45 -97.5 L28.8 -97.55 34.0 -96.3 Q34.65 -96.3 35.05 -96.6 L35.65 -97.25 34.6 -98.35 M44.8 -102.1 L44.95 -102.15 Q51.35 -102.45 57.65 -102.3 L57.2 -102.0 58.55 -102.25 61.75 -102.15 62.45 -102.1 Q61.85 -102.15 62.3 -102.15 L64.4 -102.05 Q62.4 -101.85 61.1 -100.3 59.8 -98.7 59.8 -96.25 L59.85 -95.75 60.0 -95.95 60.85 -97.4 62.3 -99.75 61.6 -95.15 Q61.25 -92.55 61.25 -88.5 L61.6 -84.15 60.95 -83.9 60.7 -85.05 Q60.5 -86.0 60.6 -86.95 L60.55 -87.65 60.4 -87.9 Q59.6 -86.25 59.35 -86.35 L58.9 -86.45 58.85 -86.5 58.45 -86.5 Q58.05 -86.4 58.05 -85.4 58.05 -84.8 58.2 -84.3 L58.35 -83.75 Q55.15 -83.95 51.35 -83.8 L51.55 -84.3 51.6 -85.1 51.4 -86.55 51.3 -86.6 50.9 -86.35 Q50.5 -85.85 49.8 -83.75 L48.65 -83.5 47.8 -83.55 Q45.85 -83.9 44.25 -86.15 42.35 -88.85 42.35 -90.95 L42.8 -92.8 43.25 -94.65 Q43.25 -97.35 42.1 -98.55 L40.45 -99.5 Q41.6 -100.8 43.25 -101.55 L44.8 -102.1 M67.3 -101.95 L68.9 -101.95 66.65 -101.5 67.3 -101.95 M51.3 -100.05 Q49.25 -100.1 47.35 -98.7 45.05 -97.05 45.05 -94.35 45.05 -92.45 45.75 -91.4 46.45 -90.4 47.65 -90.4 48.6 -90.4 49.75 -91.4 L51.5 -93.45 Q52.4 -94.35 52.65 -95.85 L52.7 -97.45 Q52.7 -98.55 52.2 -99.2 L51.3 -100.05 M67.95 -85.05 Q68.1 -86.05 68.9 -87.45 L69.0 -87.6 Q69.4 -86.9 69.5 -84.95 L69.1 -84.95 68.75 -86.0 Q68.15 -85.5 68.1 -85.0 L67.95 -85.05 M67.0 -81.65 L64.85 -81.55 64.5 -80.7 Q64.7 -79.9 65.65 -79.9 66.25 -79.9 66.65 -80.35 L67.05 -80.9 67.0 -81.65 M71.95 -79.85 Q70.65 -80.25 70.15 -80.55 L69.9 -81.0 70.4 -82.1 Q71.1 -82.85 72.8 -83.1 L72.7 -83.3 Q73.35 -82.75 73.35 -81.45 73.35 -80.25 71.95 -79.85 M63.0 -79.15 L62.9 -80.25 Q62.9 -82.4 64.95 -82.45 66.9 -82.55 68.0 -80.75 L66.25 -79.6 Q64.8 -78.85 64.35 -78.85 L63.0 -79.15 M71.45 -82.05 L71.15 -81.55 Q71.15 -81.25 71.45 -81.05 71.7 -80.85 72.1 -80.85 L72.8 -81.05 73.05 -81.55 72.8 -82.05 72.1 -82.25 71.45 -82.05 M59.5 -81.1 Q60.2 -78.95 58.75 -78.0 57.7 -77.3 56.05 -77.3 53.1 -77.3 53.1 -79.2 53.1 -81.35 57.65 -81.1 L59.5 -81.1 M57.8 -78.9 Q58.2 -79.05 58.8 -80.25 L58.75 -80.8 Q57.2 -80.05 57.0 -79.05 L57.8 -78.9" fill="#dcdcd1" fill-rule="evenodd" stroke="none"/>
    <path d="M48.75 -99.25 L49.6 -99.7 Q51.3 -99.75 51.95 -98.95 52.35 -98.4 52.35 -97.35 52.35 -94.4 49.7 -93.5 48.95 -93.45 48.6 -93.8 L47.9 -94.95 47.5 -95.7 47.9 -97.45 48.75 -99.25 M67.2 -94.75 Q67.5 -95.15 67.95 -95.15 68.4 -95.15 68.75 -94.75 L69.05 -93.8 Q69.05 -93.25 68.75 -92.85 68.4 -92.45 67.95 -92.45 67.5 -92.45 67.2 -92.85 66.85 -93.25 66.85 -93.8 66.85 -94.35 67.2 -94.75 M72.4 -95.0 L72.85 -94.65 Q72.85 -93.05 72.4 -92.55 71.75 -92.55 71.3 -93.1 L71.2 -93.65 Q71.65 -94.5 72.4 -95.0" fill="#000000" fill-rule="evenodd" stroke="none"/>
    <path d="M36.9 -98.65 L35.85 -98.7 37.65 -100.0 38.7 -100.6 36.9 -98.65 M68.55 -83.45 L68.55 -83.4 68.2 -83.3 67.8 -83.3 68.35 -85.0 69.05 -84.95 68.55 -83.45 M61.05 -82.8 L60.8 -82.6 60.45 -82.4 60.35 -82.5 59.95 -83.75 Q60.2 -83.8 59.9 -84.2 L59.75 -84.6 60.0 -85.55 60.1 -85.4 60.8 -83.85 61.05 -82.8 M50.65 -81.9 L45.6 -81.35 Q40.3 -81.05 37.05 -82.25 L35.55 -83.4 33.85 -85.55 Q32.7 -86.95 32.7 -88.15 L33.95 -88.0 Q34.45 -85.4 37.25 -83.4 39.55 -81.75 41.0 -81.75 L49.95 -83.0 49.95 -83.55 Q50.95 -83.75 50.2 -83.65 L50.8 -85.25 Q51.0 -85.2 50.85 -83.75 L50.8 -83.75 50.65 -81.9 M61.95 -78.05 L60.65 -79.35 Q60.65 -81.35 62.75 -82.9 L62.2 -81.45 Q62.0 -80.45 61.95 -78.05 M70.1 -83.25 L69.65 -82.75 Q69.25 -82.45 69.25 -81.9 69.25 -81.3 69.5 -80.65 L69.95 -79.6 68.5 -79.6 68.6 -81.05 68.25 -82.75 70.1 -83.25 M49.9 -80.25 L50.4 -77.5 Q50.3 -76.85 49.4 -76.6 L48.85 -76.55 Q41.4 -76.05 38.85 -76.8 33.75 -78.25 32.85 -84.7 L32.8 -85.55 Q34.1 -82.7 36.2 -81.55 L38.3 -80.9 38.7 -80.85 42.6 -80.6 42.85 -80.65 45.7 -80.65 49.8 -80.25 49.9 -80.25 M42.1 -76.7 L45.1 -77.05 48.55 -77.75 Q47.95 -78.85 47.85 -79.3 L42.2 -79.75 Q38.35 -79.95 37.6 -79.3 L39.0 -77.3 Q39.55 -76.7 42.1 -76.7 M56.15 -81.8 Q55.05 -81.05 53.15 -80.6 51.7 -80.25 51.7 -79.95 51.7 -78.8 52.15 -77.95 L53.35 -76.4 Q52.1 -76.3 51.3 -77.35 50.4 -78.4 50.4 -80.15 50.4 -80.95 52.4 -81.45 L56.15 -81.8" fill="#8f826b" fill-rule="evenodd" stroke="none"/>
    <path d="M42.1 -76.7 Q39.55 -76.7 39.0 -77.3 L37.6 -79.3 Q38.35 -79.95 42.2 -79.75 L47.85 -79.3 Q47.95 -78.85 48.55 -77.75 L45.1 -77.05 42.1 -76.7" fill="#a59a87" fill-rule="evenodd" stroke="none"/>
  </g>
</svg>
