<?xml version="1.0" encoding="UTF-8" standalone="no"?>
<svg xmlns:ffdec="https://www.free-decompiler.com/flash" xmlns:xlink="http://www.w3.org/1999/xlink" ffdec:objectType="shape" height="40.75px" width="89.75px" xmlns="http://www.w3.org/2000/svg">
  <g transform="matrix(1.0, 0.0, 0.0, 1.0, -10.4, 43.0)">
    <path d="M10.8 -4.8 L10.55 -5.15 10.4 -5.55 10.4 -5.6 Q10.35 -6.15 10.9 -6.95 L11.9 -8.1 44.9 -41.1 Q45.9 -42.25 47.45 -43.0 L50.75 -43.0 Q47.35 -42.35 45.65 -40.4 L45.25 -40.05 12.6 -7.4 11.55 -6.05 11.45 -5.6 Q11.6 -5.4 12.15 -5.3 L12.2 -5.3 13.15 -5.25 13.75 -5.25 58.5 -5.25 Q62.75 -5.3 65.65 -8.1 L98.6 -41.05 Q99.3 -41.95 99.15 -42.5 L99.1 -42.55 98.85 -42.85 98.6 -43.0 100.0 -43.0 100.05 -42.9 100.15 -42.6 Q100.25 -41.95 99.75 -41.0 L99.4 -40.45 99.35 -40.4 66.35 -7.4 Q63.15 -4.3 58.5 -4.25 L13.75 -4.25 Q11.5 -4.15 10.8 -4.8" fill="#939393" fill-rule="evenodd" stroke="none"/>
    <path d="M99.15 -42.5 Q99.3 -41.95 98.6 -41.05 L65.65 -8.1 Q62.75 -5.3 58.5 -5.25 L13.75 -5.25 13.15 -5.25 12.2 -5.3 12.15 -5.3 Q11.6 -5.4 11.45 -5.6 L11.55 -6.05 99.15 -42.5" fill="#bdbdbd" fill-rule="evenodd" stroke="none"/>
    <path d="M98.6 -43.0 L98.85 -42.85 99.1 -42.55 99.15 -42.5 11.55 -6.05 12.6 -7.4 45.25 -40.05 45.65 -40.4 Q47.35 -42.35 50.75 -43.0 L98.6 -43.0" fill="#b1b1b1" fill-rule="evenodd" stroke="none"/>
    <path d="M10.8 -4.8 Q11.5 -4.15 13.75 -4.25 L58.5 -4.25 Q63.15 -4.3 66.35 -7.4 L99.35 -40.4 99.4 -40.45 99.75 -41.0 100.0 -41.0 100.05 -40.9 100.15 -40.6 Q100.3 -39.75 99.4 -38.45 L99.35 -38.4 66.35 -5.4 Q63.15 -2.3 58.5 -2.25 L13.75 -2.25 Q10.95 -2.15 10.55 -3.15 L10.4 -3.55 10.4 -3.6 Q10.35 -4.1 10.8 -4.8" fill="#545454" fill-rule="evenodd" stroke="none"/>
  </g>
</svg>
