<?xml version="1.0" encoding="UTF-8" standalone="no"?>
<svg xmlns:ffdec="https://www.free-decompiler.com/flash" xmlns:xlink="http://www.w3.org/1999/xlink" ffdec:objectType="shape" height="13.1px" width="20.5px" xmlns="http://www.w3.org/2000/svg">
  <g transform="matrix(1.0, 0.0, 0.0, 1.0, 10.45, 134.55)">
    <path d="M-7.25 -132.8 L-7.7 -131.15 Q-7.7 -129.4 -6.45 -127.75 -4.65 -125.35 -1.0 -125.35 2.9 -125.35 5.3 -129.2 6.65 -131.35 6.95 -133.05 L6.75 -133.05 6.3 -133.1 6.3 -133.65 Q6.6 -134.05 7.05 -134.0 L7.05 -134.1 7.45 -134.15 Q8.5 -134.15 9.35 -132.6 L10.05 -130.75 Q10.05 -128.0 7.4 -125.3 4.45 -122.25 0.0 -121.45 L-2.65 -121.45 Q-6.45 -121.7 -8.7 -124.65 -10.45 -126.9 -10.45 -129.2 -10.45 -130.7 -9.7 -132.0 -8.75 -133.65 -6.8 -134.45 L-7.15 -134.3 -6.9 -134.45 Q-6.1 -134.8 -6.1 -134.0 -6.1 -133.65 -6.6 -133.15 L-7.35 -132.55 -7.25 -132.8 M7.65 -133.3 Q7.4 -131.0 5.75 -128.5 3.2 -124.7 -1.0 -124.7 -5.1 -124.7 -7.05 -127.5 -8.3 -129.3 -8.3 -131.15 L-8.15 -132.75 -8.1 -132.8 Q-8.85 -132.35 -9.4 -131.0 L-9.85 -129.1 Q-9.85 -127.15 -8.05 -125.0 -5.55 -122.1 -1.3 -122.1 2.95 -122.1 6.35 -125.15 9.45 -127.95 9.45 -130.7 L8.7 -132.15 7.65 -133.3" fill="#418200" fill-rule="evenodd" stroke="none"/>
    <path d="M7.65 -133.3 L8.7 -132.15 9.45 -130.7 Q9.45 -127.95 6.35 -125.15 2.95 -122.1 -1.3 -122.1 -5.55 -122.1 -8.05 -125.0 -9.85 -127.15 -9.85 -129.1 L-9.4 -131.0 Q-8.85 -132.35 -8.1 -132.8 L-8.15 -132.75 -8.3 -131.15 Q-8.3 -129.3 -7.05 -127.5 -5.1 -124.7 -1.0 -124.7 3.2 -124.7 5.75 -128.5 7.4 -131.0 7.65 -133.3" fill="#69d200" fill-rule="evenodd" stroke="none"/>
  </g>
</svg>
