<?xml version="1.0" encoding="UTF-8" standalone="no"?>
<svg xmlns:ffdec="https://www.free-decompiler.com/flash" xmlns:xlink="http://www.w3.org/1999/xlink" ffdec:objectType="shape" height="19.25px" width="33.6px" xmlns="http://www.w3.org/2000/svg">
  <g transform="matrix(1.0, 0.0, 0.0, 1.0, 8.55, 2.5)">
    <path d="M-1.75 13.3 L-2.55 15.1 -5.55 15.6 Q-6.35 15.6 -7.6 13.8 -8.65 12.1 -8.55 11.25 -8.45 10.55 -6.55 7.15 L-5.95 6.1 -3.45 1.5 Q-2.8 -0.2 -1.55 -1.0 -0.2 -1.85 3.5 -2.25 L3.45 -1.05 Q1.3 -0.1 0.9 0.3 L3.35 1.55 3.7 1.85 3.8 2.05 3.85 2.35 Q1.95 8.75 -0.9 15.7 L-1.9 15.7 2.45 4.25 1.4 5.6 -1.75 13.3 M2.75 1.95 L0.3 0.85 Q-0.1 0.7 -0.05 0.2 0.05 -0.4 0.65 -0.75 L1.25 -1.15 Q-0.65 -0.65 -2.15 1.3 L-5.3 7.15 -7.65 11.3 -6.85 12.55 -4.95 14.65 -3.35 14.3 1.5 3.1 2.9 2.1 2.95 2.05 2.75 1.95 M19.65 1.15 L18.2 -0.3 15.95 -1.25 16.7 -0.85 Q17.7 -0.25 17.75 0.7 17.2 1.25 15.15 1.85 L11.35 2.45 10.6 2.45 8.8 2.35 9.15 3.45 10.6 12.5 10.95 14.95 11.05 15.85 Q19.4 14.75 22.25 13.2 24.1 12.2 24.05 10.55 L23.3 8.45 19.65 1.15 M13.65 -0.95 L13.85 -2.45 15.5 -2.3 Q17.25 -2.3 19.6 -0.35 L22.15 4.35 24.45 8.65 25.05 10.5 Q25.15 12.4 22.55 14.1 18.8 16.75 10.75 16.75 L10.0 16.65 9.85 15.4 9.65 12.95 8.1 3.15 8.0 3.15 Q8.5 10.05 5.85 16.6 L4.6 16.6 Q6.9 11.0 6.95 6.75 L7.05 2.35 7.35 2.15 7.4 2.15 Q8.0 1.65 9.55 1.65 L13.15 1.3 15.0 0.95 Q16.0 0.85 16.85 0.35 15.05 -1.15 13.65 -0.95" fill="#535353" fill-rule="evenodd" stroke="none"/>
    <path d="M-2.15 1.3 Q-0.65 -0.65 1.25 -1.15 L0.65 -0.75 Q0.05 -0.4 -0.05 0.2 -0.1 0.7 0.3 0.85 L2.75 1.95 1.1 2.9 -0.45 2.25 Q-1.5 1.9 -2.15 1.3 M9.15 3.45 L8.8 2.35 10.6 2.45 11.35 2.45 15.15 1.85 Q17.2 1.25 17.75 0.7 17.7 -0.25 16.7 -0.85 L15.95 -1.25 18.2 -0.3 19.65 1.15 17.9 2.4 15.7 3.05 9.15 3.45" fill="#fdfdfd" fill-rule="evenodd" stroke="none"/>
    <path d="M-4.95 14.65 L-6.85 12.55 -7.65 11.3 -5.3 7.15 -2.15 1.3 Q-1.5 1.9 -0.45 2.25 L1.1 2.9 -4.95 14.65 M19.65 1.15 L23.3 8.45 24.05 10.55 Q24.1 12.2 22.25 13.2 19.4 14.75 11.05 15.85 L10.95 14.95 15.25 14.2 17.9 13.15 20.05 12.0 Q21.3 11.3 21.3 10.7 L19.75 6.75 17.9 2.4 19.65 1.15" fill="#a7a7a7" fill-rule="evenodd" stroke="none"/>
    <path d="M10.95 14.95 L10.6 12.5 11.45 12.55 Q15.45 12.55 17.4 11.4 18.7 10.65 18.6 9.95 18.55 9.0 15.7 3.05 L17.9 2.4 19.75 6.75 21.3 10.7 Q21.3 11.3 20.05 12.0 L17.9 13.15 15.25 14.2 10.95 14.95" fill="#c4c4c4" fill-rule="evenodd" stroke="none"/>
    <path d="M-1.75 13.3 L1.4 5.6 2.45 4.25 -1.9 15.7 -1.75 13.3 M3.35 1.55 L0.9 0.3 Q1.3 -0.1 3.45 -1.05 L3.35 1.55 M13.65 -0.95 Q15.05 -1.15 16.85 0.35 16.0 0.85 15.0 0.95 L13.15 1.3 13.65 -0.95 M5.85 16.6 Q8.5 10.05 8.0 3.15 L8.1 3.15 9.65 12.95 9.85 15.4 5.85 16.6" fill="#8f8f8f" fill-rule="evenodd" stroke="none"/>
    <path d="M2.75 1.95 L2.95 2.05 2.9 2.1 1.5 3.1 -3.35 14.3 -4.95 14.65 1.1 2.9 2.75 1.95 M10.6 12.5 L9.15 3.45 15.7 3.05 Q18.55 9.0 18.6 9.95 18.7 10.65 17.4 11.4 15.45 12.55 11.45 12.55 L10.6 12.5" fill="#eaeaea" fill-rule="evenodd" stroke="none"/>
  </g>
</svg>
