<?xml version="1.0" encoding="UTF-8" standalone="no"?>
<svg xmlns:ffdec="https://www.free-decompiler.com/flash" xmlns:xlink="http://www.w3.org/1999/xlink" ffdec:objectType="shape" height="20.65px" width="37.85px" xmlns="http://www.w3.org/2000/svg">
  <g transform="matrix(1.0, 0.0, 0.0, 1.0, 9.15, 14.9)">
    <path d="M16.4 -13.35 L16.5 -14.85 18.2 -14.7 Q20.0 -14.7 22.55 -12.75 L25.4 -8.05 28.0 -3.75 28.7 -1.9 Q28.9 0.0 26.35 1.7 22.65 4.35 14.35 4.35 L13.55 4.25 13.35 3.0 13.05 0.55 10.9 -9.25 10.8 -9.25 1.15 5.75 0.9 4.2 Q4.15 -0.5 6.4 -5.05 8.65 -9.65 10.1 -10.25 L10.15 -10.25 10.2 -10.25 10.1 -10.25 10.35 -10.45 10.45 -10.45 12.3 -10.75 16.0 -11.1 17.9 -11.45 Q18.9 -11.55 19.75 -12.05 17.8 -13.55 16.4 -13.35 M22.7 -11.25 L21.1 -12.7 18.75 -13.65 19.55 -13.25 Q20.6 -12.65 20.7 -11.7 20.15 -11.15 18.05 -10.55 L14.2 -9.95 13.45 -9.95 11.6 -10.05 12.0 -8.95 13.95 0.1 14.45 2.55 14.6 3.45 Q23.15 2.35 26.0 0.8 27.85 -0.2 27.7 -1.85 L26.8 -3.95 22.7 -11.25 M-2.05 0.9 L-2.75 2.7 -5.85 3.2 Q-6.7 3.2 -8.0 1.4 -9.2 -0.3 -9.15 -1.15 -9.1 -1.85 -7.3 -5.25 L-6.75 -6.3 -4.4 -10.9 Q-3.85 -12.6 -2.55 -13.4 -1.25 -14.25 2.55 -14.65 L2.6 -13.45 Q0.4 -12.5 0.0 -12.1 L2.6 -10.85 2.95 -10.55 3.15 -10.35 2.7 -6.65 0.9 4.2 -0.65 5.55 1.8 -8.15 0.8 -6.8 -2.05 0.9 M2.0 -10.45 L-0.6 -11.55 Q-1.0 -11.7 -0.95 -12.2 -0.9 -12.8 -0.3 -13.15 L0.25 -13.55 Q-1.65 -13.05 -3.05 -11.1 L-6.0 -5.25 -8.2 -1.1 -7.35 0.15 -5.3 2.25 -3.65 1.9 0.8 -9.3 2.15 -10.3 2.2 -10.35 2.0 -10.45" fill="#181818" fill-rule="evenodd" stroke="none"/>
    <path d="M16.4 -13.35 Q17.8 -13.55 19.75 -12.05 18.9 -11.55 17.9 -11.45 L16.0 -11.1 16.4 -13.35 M1.15 5.75 L10.8 -9.25 10.9 -9.25 13.05 0.55 13.35 3.0 1.15 5.75 M22.7 -11.25 L26.8 -3.95 27.7 -1.85 Q27.85 -0.2 26.0 0.8 23.15 2.35 14.6 3.45 L14.45 2.55 18.85 1.8 Q20.25 1.45 21.5 0.75 L23.65 -0.4 Q24.9 -1.1 24.85 -1.7 L23.05 -5.65 20.95 -10.0 Q22.1 -10.65 22.7 -11.25 M-2.05 0.9 L0.8 -6.8 1.8 -8.15 -0.65 5.55 -2.05 0.9 M2.6 -10.85 L0.0 -12.1 Q0.4 -12.5 2.6 -13.45 L2.6 -10.85 M-3.05 -11.1 Q-2.35 -10.5 -1.3 -10.15 L0.35 -9.5 -5.3 2.25 -7.35 0.15 -8.2 -1.1 -6.0 -5.25 -3.05 -11.1" fill="#303030" fill-rule="evenodd" stroke="none"/>
    <path d="M14.45 2.55 L13.95 0.1 14.8 0.15 Q18.95 0.15 20.9 -1.0 22.15 -1.75 22.05 -2.45 21.95 -3.4 18.75 -9.35 L20.95 -10.0 23.05 -5.65 24.85 -1.7 Q24.9 -1.1 23.65 -0.4 L21.5 0.75 Q20.25 1.45 18.85 1.8 L14.45 2.55 M0.35 -9.5 L2.0 -10.45 2.2 -10.35 2.15 -10.3 0.8 -9.3 -3.65 1.9 -5.3 2.25 0.35 -9.5" fill="#414141" fill-rule="evenodd" stroke="none"/>
    <path d="M13.95 0.1 L12.0 -8.95 18.75 -9.35 Q21.95 -3.4 22.05 -2.45 22.15 -1.75 20.9 -1.0 18.95 0.15 14.8 0.15 L13.95 0.1 M2.0 -10.45 L0.35 -9.5 -1.3 -10.15 Q-2.35 -10.5 -3.05 -11.1 -1.65 -13.05 0.25 -13.55 L-0.3 -13.15 Q-0.9 -12.8 -0.95 -12.2 -1.0 -11.7 -0.6 -11.55 L2.0 -10.45" fill="#565656" fill-rule="evenodd" stroke="none"/>
    <path d="M12.0 -8.95 L11.6 -10.05 13.45 -9.95 14.2 -9.95 18.05 -10.55 Q20.15 -11.15 20.7 -11.7 20.6 -12.65 19.55 -13.25 L18.75 -13.65 21.1 -12.7 22.7 -11.25 Q22.1 -10.65 20.95 -10.0 L18.75 -9.35 12.0 -8.95" fill="#767676" fill-rule="evenodd" stroke="none"/>
  </g>
</svg>
