<?xml version="1.0" encoding="UTF-8" standalone="no"?>
<svg xmlns:ffdec="https://www.free-decompiler.com/flash" xmlns:xlink="http://www.w3.org/1999/xlink" ffdec:objectType="shape" height="19.35px" width="68.2px" xmlns="http://www.w3.org/2000/svg">
  <g transform="matrix(1.0, 0.0, 0.0, 1.0, 0.0, 0.0)">
    <path d="M67.35 4.1 L67.45 3.7 67.3 3.4 66.9 3.25 39.3 5.5 39.7 6.45 67.0 4.25 67.35 4.1 M67.75 2.8 Q68.15 3.15 68.2 3.65 68.25 4.15 67.9 4.55 67.55 4.95 67.05 5.0 L39.9 7.2 40.2 9.15 40.2 9.65 40.2 9.7 Q40.2 13.75 37.35 16.55 34.5 19.35 30.5 19.35 26.5 19.35 23.7 16.55 20.8 13.75 20.8 9.7 L20.8 9.65 20.85 9.15 Q20.95 7.1 21.8 5.35 18.5 4.4 15.65 5.45 L15.2 5.55 Q15.85 7.2 15.95 9.15 L15.95 9.65 15.95 9.7 Q15.95 13.75 13.6 16.55 11.25 19.35 8.0 19.35 4.7 19.35 2.4 16.55 0.0 13.75 0.0 9.7 L0.0 9.65 0.05 9.15 Q0.15 5.45 2.4 2.8 L2.4 2.85 Q4.7 0.0 8.0 0.0 11.25 0.0 13.6 2.85 L13.6 2.8 14.2 3.6 Q14.4 3.2 14.8 3.1 18.55 1.65 22.85 3.05 L23.25 3.3 23.7 2.8 23.7 2.85 Q26.5 0.0 30.5 0.0 34.5 0.0 37.35 2.85 L37.35 2.8 38.9 4.75 66.85 2.5 67.75 2.8 M39.45 9.65 L39.15 7.25 38.9 6.5 38.6 5.75 38.2 5.05 36.8 3.35 Q34.2 0.75 30.5 0.75 26.8 0.75 24.2 3.35 L23.65 3.95 22.55 5.5 Q21.55 7.35 21.55 9.65 L21.55 9.7 Q21.55 13.4 24.2 16.0 26.8 18.6 30.5 18.6 34.2 18.6 36.8 16.0 39.45 13.4 39.45 9.7 L39.45 9.65 M22.55 9.65 Q22.55 6.35 24.9 4.05 27.2 1.75 30.5 1.75 33.8 1.75 36.1 4.05 37.15 5.1 37.75 6.35 L37.9 6.65 Q38.45 8.0 38.45 9.65 L38.45 9.7 Q38.45 13.0 36.1 15.3 33.8 17.6 30.5 17.6 27.2 17.6 24.9 15.3 22.55 13.0 22.55 9.7 L22.55 9.65 M37.7 9.65 L37.7 9.15 Q37.5 6.5 35.6 4.6 33.5 2.5 30.5 2.5 27.5 2.5 25.45 4.6 23.5 6.5 23.35 9.15 L23.3 9.65 23.3 9.7 Q23.3 12.65 25.45 14.75 L25.45 14.8 Q27.5 16.85 30.5 16.85 33.5 16.85 35.6 14.8 L35.6 14.75 Q37.7 12.65 37.7 9.7 L37.7 9.65 M22.6 3.8 Q18.6 2.45 15.05 3.8 14.85 3.85 14.75 4.05 L14.75 4.45 15.0 4.7 15.4 4.75 Q18.55 3.55 22.2 4.7 L22.75 3.9 22.6 3.8 M15.35 9.65 Q15.35 7.15 14.35 5.2 L14.0 4.55 13.15 3.35 Q11.0 0.75 8.0 0.75 4.95 0.75 2.8 3.35 0.6 5.95 0.6 9.65 L0.6 9.7 Q0.6 13.4 2.8 16.0 4.95 18.6 8.0 18.6 11.0 18.6 13.15 16.0 15.35 13.4 15.35 9.7 L15.35 9.65 M1.45 9.65 Q1.45 6.35 3.35 4.05 5.25 1.75 8.0 1.75 10.7 1.75 12.6 4.05 14.5 6.35 14.5 9.65 L14.5 9.7 Q14.5 13.0 12.6 15.3 10.7 17.6 8.0 17.6 5.25 17.6 3.35 15.3 1.45 13.0 1.45 9.7 L1.45 9.65 M13.9 9.7 L13.9 9.65 13.9 9.15 Q13.75 6.5 12.15 4.6 10.45 2.5 8.0 2.5 5.5 2.5 3.8 4.6 2.2 6.5 2.1 9.15 L2.05 9.65 2.05 9.7 Q2.05 12.65 3.8 14.75 L3.8 14.8 Q5.5 16.85 8.0 16.85 10.45 16.85 12.15 14.8 L12.15 14.75 Q13.9 12.65 13.9 9.7" fill="#563d07" fill-rule="evenodd" stroke="none"/>
    <path d="M67.35 4.1 L67.0 4.25 39.7 6.45 39.3 5.5 66.9 3.25 67.3 3.4 67.45 3.7 67.35 4.1 M21.55 9.65 L22.55 9.65 22.55 9.7 Q22.55 13.0 24.9 15.3 27.2 17.6 30.5 17.6 33.8 17.6 36.1 15.3 38.45 13.0 38.45 9.7 L38.45 9.65 39.45 9.65 39.45 9.7 Q39.45 13.4 36.8 16.0 34.2 18.6 30.5 18.6 26.8 18.6 24.2 16.0 21.55 13.4 21.55 9.7 L21.55 9.65 M22.6 3.8 L22.75 3.9 22.2 4.7 Q18.55 3.55 15.4 4.75 L15.0 4.7 14.75 4.45 14.75 4.05 Q14.85 3.85 15.05 3.8 18.6 2.45 22.6 3.8 M0.6 9.65 L1.45 9.65 1.45 9.7 Q1.45 13.0 3.35 15.3 5.25 17.6 8.0 17.6 10.7 17.6 12.6 15.3 14.5 13.0 14.5 9.7 L14.5 9.65 15.35 9.65 15.35 9.7 Q15.35 13.4 13.15 16.0 11.0 18.6 8.0 18.6 4.95 18.6 2.8 16.0 0.6 13.4 0.6 9.7 L0.6 9.65" fill="#bc8410" fill-rule="evenodd" stroke="none"/>
    <path d="M21.55 9.65 Q21.55 7.35 22.55 5.5 L23.65 3.95 24.2 3.35 Q26.8 0.75 30.5 0.75 34.2 0.75 36.8 3.35 L38.2 5.05 38.6 5.75 38.9 6.5 39.15 7.25 39.45 9.65 38.45 9.65 Q38.45 8.0 37.9 6.65 L37.75 6.35 Q37.15 5.1 36.1 4.05 33.8 1.75 30.5 1.75 27.2 1.75 24.9 4.05 22.55 6.35 22.55 9.65 L21.55 9.65 M0.6 9.65 Q0.6 5.95 2.8 3.35 4.95 0.75 8.0 0.75 11.0 0.75 13.15 3.35 L14.0 4.55 14.35 5.2 Q15.35 7.15 15.35 9.65 L14.5 9.65 Q14.5 6.35 12.6 4.05 10.7 1.75 8.0 1.75 5.25 1.75 3.35 4.05 1.45 6.35 1.45 9.65 L0.6 9.65" fill="#e9a71e" fill-rule="evenodd" stroke="none"/>
    <path d="M37.7 9.65 L37.7 9.7 Q37.7 12.65 35.6 14.75 L35.6 14.8 Q33.5 16.85 30.5 16.85 27.5 16.85 25.45 14.8 L25.45 14.75 Q23.3 12.65 23.3 9.7 L23.3 9.65 23.35 9.15 Q23.5 6.5 25.45 4.6 27.5 2.5 30.5 2.5 33.5 2.5 35.6 4.6 37.5 6.5 37.7 9.15 L37.7 9.65 M13.9 9.7 Q13.9 12.65 12.15 14.75 L12.15 14.8 Q10.45 16.85 8.0 16.85 5.5 16.85 3.8 14.8 L3.8 14.75 Q2.05 12.65 2.05 9.7 L2.05 9.65 2.1 9.15 Q2.2 6.5 3.8 4.6 5.5 2.5 8.0 2.5 10.45 2.5 12.15 4.6 13.75 6.5 13.9 9.15 L13.9 9.65 13.9 9.7" fill="#ffffff" fill-opacity="0.69411767" fill-rule="evenodd" stroke="none"/>
  </g>
</svg>
