<?xml version="1.0" encoding="UTF-8" standalone="no"?>
<svg xmlns:ffdec="https://www.free-decompiler.com/flash" xmlns:xlink="http://www.w3.org/1999/xlink" ffdec:objectType="shape" height="76.0px" width="83.5px" xmlns="http://www.w3.org/2000/svg">
  <g transform="matrix(1.0, 0.0, 0.0, 1.0, 51.25, 74.75)">
    <path d="M-37.2 -54.1 L-43.4 -47.4 -43.4 -47.45 Q-46.05 -44.05 -47.55 -40.65 L-47.55 -40.6 Q-49.75 -35.95 -49.75 -31.1 -49.75 -27.85 -48.65 -23.95 L-48.3 -22.8 -46.8 -18.15 -46.05 -16.0 Q-44.95 -13.05 -41.45 -7.55 L-39.45 -4.7 Q-38.5 -3.4 -37.55 -2.45 L-37.55 -2.4 -36.4 -1.35 Q-35.3 -0.45 -34.35 -0.3 L-34.0 -0.25 -32.7 -1.8 -31.7 -3.35 -31.75 -3.3 Q-30.3 -5.75 -25.0 -16.15 L-21.4 -23.65 -21.35 -23.7 -20.5 -25.6 -20.55 -25.45 -20.45 -25.75 -20.4 -25.85 -18.7 -29.7 -18.7 -29.65 Q-18.4 -30.45 -6.3 -38.85 L-9.1 -36.85 -10.8 -35.6 -13.1 -33.75 -14.2 -32.7 -17.3 -29.1 -7.55 -33.6 -9.9 -32.15 Q-18.15 -27.1 -19.05 -25.25 -17.9 -26.35 -15.65 -27.35 L-13.25 -28.3 -9.9 -29.05 -6.6 -29.65 -4.35 -29.65 -3.7 -29.6 Q-7.15 -28.1 -9.6 -27.35 L-10.7 -27.05 -12.75 -26.65 -15.3 -25.35 Q-17.35 -24.35 -18.25 -22.85 L-24.15 -14.5 -24.15 -14.55 -24.45 -13.85 -24.45 -13.8 Q-25.0 -12.8 -24.8 -11.8 L-20.5 -13.5 -18.55 -14.3 -18.0 -14.4 -12.4 -15.55 -17.75 -13.2 -18.55 -12.85 -18.7 -12.8 -18.75 -12.75 -18.8 -12.75 -18.85 -12.7 -19.0 -12.65 -21.25 -11.65 -25.05 -9.9 -26.15 -9.3 -26.55 -9.2 -30.15 -3.05 -28.45 -3.25 -26.2 -3.6 -22.15 -4.5 -19.95 -5.1 -17.4 -5.9 -16.55 -6.15 Q-11.7 -7.45 -3.65 -12.15 L-0.65 -13.95 Q7.85 -19.2 10.65 -21.95 L12.25 -23.25 Q16.15 -25.7 21.9 -32.7 L23.1 -34.15 Q28.9 -41.4 30.05 -45.2 L30.65 -46.55 30.35 -47.35 30.35 -47.4 30.15 -47.9 Q23.05 -67.05 16.45 -70.2 L15.65 -70.6 Q9.4 -73.45 4.1 -73.45 L0.55 -73.4 0.5 -73.45 -4.7 -73.1 Q-11.3 -72.65 -14.95 -71.05 -18.7 -69.45 -21.7 -67.5 -24.7 -65.6 -33.0 -58.05 L-37.2 -54.1 M-25.05 -2.25 L-31.15 -1.45 -31.45 -1.0 -31.5 -0.95 Q-33.2 1.4 -34.0 1.25 -36.0 1.3 -38.6 -1.35 L-38.65 -1.35 -39.5 -2.35 Q-42.4 -3.4 -44.25 -5.45 L-47.1 -9.0 -49.55 -21.55 -49.55 -21.6 -49.75 -22.4 -49.75 -22.35 -50.1 -23.5 -50.1 -23.55 Q-51.25 -27.65 -51.25 -31.1 -51.25 -36.25 -48.9 -41.25 -47.35 -44.85 -44.6 -48.35 L-41.65 -51.65 -38.0 -55.35 Q-26.1 -66.45 -22.5 -68.75 -19.4 -70.75 -15.55 -72.45 L-15.55 -72.4 Q-11.7 -74.15 -4.8 -74.6 0.0 -74.95 1.45 -74.5 10.35 -75.05 17.3 -71.65 24.25 -68.3 31.75 -47.9 L32.25 -46.6 Q30.2 -41.95 28.65 -39.4 21.0 -26.85 5.25 -15.95 -10.55 -5.1 -25.05 -2.25 M-44.9 -8.85 Q-43.6 -6.65 -41.7 -5.25 L-42.7 -6.75 -46.45 -13.2 -44.9 -8.85" fill="#464646" fill-rule="evenodd" stroke="none"/>
    <path d="M15.65 -70.6 L16.45 -70.2 Q23.05 -67.05 30.15 -47.9 L30.35 -47.4 30.35 -47.35 30.65 -46.55 30.05 -45.2 Q28.9 -41.4 23.1 -34.15 L21.9 -32.7 Q16.15 -25.7 12.25 -23.25 L10.65 -21.95 Q7.85 -19.2 -0.65 -13.95 L-3.65 -12.15 Q-11.7 -7.45 -16.55 -6.15 L-17.4 -5.9 -19.95 -5.1 -22.15 -4.5 -26.2 -3.6 -28.45 -3.25 -30.15 -3.05 -26.55 -9.2 -26.15 -9.3 -25.05 -9.9 -21.25 -11.65 -19.0 -12.65 -18.85 -12.7 -18.8 -12.75 -18.75 -12.75 -18.7 -12.8 -18.55 -12.85 -17.75 -13.2 -12.4 -15.55 -18.0 -14.4 -18.55 -14.3 -20.5 -13.5 -24.8 -11.8 Q-25.0 -12.8 -24.45 -13.8 L-24.45 -13.85 -24.15 -14.55 -24.15 -14.5 -18.25 -22.85 Q-17.35 -24.35 -15.3 -25.35 L-12.75 -26.65 -10.7 -27.05 -9.6 -27.35 Q-7.15 -28.1 -3.7 -29.6 L-4.35 -29.65 -6.6 -29.65 -9.9 -29.05 -13.25 -28.3 -15.65 -27.35 Q-17.9 -26.35 -19.05 -25.25 -18.15 -27.1 -9.9 -32.15 L-7.55 -33.6 -17.3 -29.1 -14.2 -32.7 -13.1 -33.75 -10.8 -35.6 -9.1 -36.85 -6.3 -38.85 Q-18.4 -30.45 -18.7 -29.65 L-18.7 -29.7 -20.4 -25.85 -20.45 -25.75 -20.55 -25.45 -20.5 -25.6 -21.35 -23.7 -21.4 -23.65 -25.0 -16.15 Q-30.3 -5.75 -31.75 -3.3 L-31.7 -3.35 -32.7 -1.8 -34.0 -0.25 -34.35 -0.3 Q-35.3 -0.45 -36.4 -1.35 L-37.55 -2.4 -37.55 -2.45 Q-38.5 -3.4 -39.45 -4.7 L-41.45 -7.55 Q-44.95 -13.05 -46.05 -16.0 L-46.8 -18.15 -48.3 -22.8 -48.65 -23.95 Q-49.75 -27.85 -49.75 -31.1 -49.75 -35.95 -47.55 -40.6 L-47.55 -40.65 Q-46.05 -44.05 -43.4 -47.45 L-43.4 -47.4 -37.2 -54.1 -43.55 -43.75 -46.4 -38.1 -47.6 -33.1 -48.05 -28.7 Q-48.05 -26.1 -47.05 -22.45 -44.8 -14.6 -40.05 -8.35 -38.1 -5.75 -35.7 -3.4 L-35.2 -2.95 -35.05 -2.8 -35.0 -2.85 -34.15 -3.6 -34.1 -3.6 -33.7 -4.25 -33.25 -5.0 -33.05 -5.35 Q-29.1 -13.3 -25.85 -20.9 L-25.4 -21.9 -23.7 -25.85 -21.05 -30.6 -18.75 -33.55 Q-14.15 -39.25 -10.85 -42.5 L-9.6 -43.65 -7.0 -46.05 -3.6 -48.8 -1.05 -51.2 1.5 -53.55 4.9 -55.8 Q7.4 -57.35 11.1 -58.75 L14.4 -59.9 13.95 -59.45 Q11.45 -57.95 7.45 -54.5 L2.55 -50.65 1.25 -49.25 1.65 -49.55 -1.8 -46.55 -1.6 -46.75 -5.0 -42.6 -6.65 -40.15 -7.85 -38.75 -8.65 -37.35 -7.0 -38.55 Q-5.9 -39.35 -5.1 -39.45 -5.4 -38.85 -6.6 -37.75 L-10.35 -34.5 Q-8.5 -35.65 -6.25 -36.25 -4.6 -36.6 -4.35 -35.7 -4.2 -35.1 -5.2 -34.3 L-8.2 -32.2 -2.8 -33.1 -0.4 -33.15 Q0.95 -32.75 1.1 -31.55 1.15 -30.65 0.25 -29.9 -0.1 -29.6 -1.45 -29.05 -11.45 -25.65 -16.05 -21.05 -18.7 -18.4 -18.35 -16.1 L-18.1 -15.1 -18.05 -14.95 -15.75 -15.75 -10.95 -17.3 -3.7 -20.1 -3.0 -20.2 Q-2.45 -20.1 -2.55 -19.7 L-2.9 -19.3 Q-3.75 -18.75 -5.75 -17.95 L-8.5 -16.55 -9.65 -15.65 Q-10.45 -15.1 -12.35 -14.4 L-19.5 -11.7 -19.65 -11.6 Q-20.4 -10.6 -20.7 -9.4 L-20.1 -9.1 Q-17.8 -7.95 -15.15 -8.25 -12.75 -8.55 -9.2 -10.5 -2.05 -14.3 5.45 -18.9 L11.9 -23.3 Q15.3 -25.9 17.55 -28.65 L21.15 -33.4 21.6 -33.9 24.0 -37.85 Q25.95 -41.45 26.3 -44.05 L26.45 -45.95 26.25 -45.85 25.6 -45.2 22.45 -41.6 21.6 -40.75 21.0 -40.7 Q20.65 -40.8 20.6 -41.1 L20.9 -42.0 21.5 -43.1 22.55 -44.65 23.55 -45.95 Q24.75 -47.45 25.0 -48.6 L25.15 -50.15 25.4 -52.7 25.4 -54.05 24.05 -58.2 Q23.1 -60.35 21.0 -63.4 L15.65 -70.6 M-44.9 -8.85 L-46.45 -13.2 -42.7 -6.75 -41.7 -5.25 Q-43.6 -6.65 -44.9 -8.85" fill="#8a8a8a" fill-rule="evenodd" stroke="none"/>
    <path d="M-37.2 -54.1 L-33.0 -58.05 Q-24.7 -65.6 -21.7 -67.5 -18.7 -69.45 -14.95 -71.05 -11.3 -72.65 -4.7 -73.1 L0.5 -73.45 0.55 -73.4 4.1 -73.45 Q9.4 -73.45 15.65 -70.6 L21.0 -63.4 Q23.1 -60.35 24.05 -58.2 L25.4 -54.05 25.4 -52.7 25.15 -50.15 25.0 -48.6 Q24.75 -47.45 23.55 -45.95 L22.55 -44.65 21.5 -43.1 20.9 -42.0 20.6 -41.1 Q20.65 -40.8 21.0 -40.7 L21.6 -40.75 22.45 -41.6 25.6 -45.2 26.25 -45.85 26.45 -45.95 26.3 -44.05 Q25.95 -41.45 24.0 -37.85 L21.6 -33.9 21.15 -33.4 17.55 -28.65 Q15.3 -25.9 11.9 -23.3 L5.45 -18.9 Q-2.05 -14.3 -9.2 -10.5 -12.75 -8.55 -15.15 -8.25 -17.8 -7.95 -20.1 -9.1 L-20.7 -9.4 Q-20.4 -10.6 -19.65 -11.6 L-19.5 -11.7 -12.35 -14.4 Q-10.45 -15.1 -9.65 -15.65 L-8.5 -16.55 -5.75 -17.95 Q-3.75 -18.75 -2.9 -19.3 L-2.55 -19.7 Q-2.45 -20.1 -3.0 -20.2 L-3.7 -20.1 -10.95 -17.3 -15.75 -15.75 -18.05 -14.95 -18.1 -15.1 -18.35 -16.1 Q-18.7 -18.4 -16.05 -21.05 -11.45 -25.65 -1.45 -29.05 -0.1 -29.6 0.25 -29.9 1.15 -30.65 1.1 -31.55 0.95 -32.75 -0.4 -33.15 L-2.8 -33.1 -8.2 -32.2 -5.2 -34.3 Q-4.2 -35.1 -4.35 -35.7 -4.6 -36.6 -6.25 -36.25 -8.5 -35.65 -10.35 -34.5 L-6.6 -37.75 Q-5.4 -38.85 -5.1 -39.45 -5.9 -39.35 -7.0 -38.55 L-8.65 -37.35 -7.85 -38.75 -6.65 -40.15 -5.0 -42.6 -1.6 -46.75 -1.8 -46.55 1.65 -49.55 1.25 -49.25 2.55 -50.65 7.45 -54.5 Q11.45 -57.95 13.95 -59.45 L14.4 -59.9 11.1 -58.75 Q7.4 -57.35 4.9 -55.8 L1.5 -53.55 -1.05 -51.2 -3.6 -48.8 -7.0 -46.05 -9.6 -43.65 -10.85 -42.5 Q-14.15 -39.25 -18.75 -33.55 L-21.05 -30.6 -23.7 -25.85 -25.4 -21.9 -25.85 -20.9 Q-29.1 -13.3 -33.05 -5.35 L-33.25 -5.0 -33.7 -4.25 -34.1 -3.6 -34.15 -3.6 -35.0 -2.85 -35.05 -2.8 -35.2 -2.95 -35.7 -3.4 Q-38.1 -5.75 -40.05 -8.35 -44.8 -14.6 -47.05 -22.45 -48.05 -26.1 -48.05 -28.7 L-47.6 -33.1 -46.4 -38.1 -43.55 -43.75 -37.2 -54.1 M7.15 -69.75 L-2.6 -70.65 Q-11.15 -71.0 -16.1 -68.9 -20.35 -67.15 -25.1 -62.4 L-33.1 -54.35 -34.35 -52.95 -34.4 -52.8 Q-38.2 -49.6 -40.8 -45.3 L-41.25 -44.15 -43.25 -41.4 -45.55 -37.9 Q-46.7 -35.9 -47.15 -34.1 L-47.15 -32.85 Q-47.35 -31.6 -47.15 -29.9 L-47.1 -29.7 -46.7 -29.65 -37.45 -28.05 -34.65 -27.65 -33.3 -27.65 -31.95 -27.5 -30.4 -27.05 -29.25 -26.6 -30.2 -26.05 -33.0 -25.75 Q-41.4 -26.05 -45.6 -25.95 L-46.45 -25.9 -46.25 -24.9 -43.05 -24.7 -27.5 -24.1 -26.4 -26.7 -26.15 -26.75 -26.15 -26.8 -25.85 -26.9 -25.85 -26.95 Q-25.3 -27.35 -24.85 -28.3 -19.4 -38.75 -13.3 -46.75 L-6.05 -52.65 -5.65 -53.0 -0.75 -56.7 Q5.4 -58.5 9.8 -60.9 13.35 -62.85 13.45 -65.15 13.5 -66.15 12.85 -67.15 12.25 -68.05 11.25 -68.6 9.9 -69.35 7.15 -69.75 M15.05 -41.1 L17.55 -43.35 19.05 -44.9 20.85 -47.65 Q21.75 -49.15 22.05 -50.35 22.5 -52.05 21.7 -55.2 L21.55 -56.5 21.7 -57.9 Q21.7 -59.4 19.75 -61.35 19.1 -62.0 18.7 -61.95 17.95 -61.9 17.65 -60.6 L16.7 -58.1 14.9 -55.85 Q12.7 -53.5 11.95 -52.95 L9.55 -51.25 8.15 -50.1 Q3.4 -46.25 0.7 -43.45 0.0 -42.75 0.0 -42.2 L0.25 -40.95 0.1 -39.8 Q0.25 -39.15 0.95 -39.0 L2.15 -38.95 Q1.75 -37.95 1.75 -36.65 1.85 -35.95 2.05 -35.7 2.4 -35.35 3.2 -35.35 L5.2 -35.55 Q8.8 -36.15 11.65 -38.2 13.05 -39.2 15.05 -41.1 M18.45 -34.75 Q19.1 -36.15 18.7 -36.9 L18.45 -37.4 18.65 -38.0 Q18.95 -38.6 18.5 -39.25 L17.5 -40.05 16.4 -40.1 15.75 -39.5 14.6 -38.9 12.85 -37.8 11.25 -36.55 Q9.55 -35.3 9.2 -34.85 8.55 -34.05 8.55 -33.1 8.45 -32.4 8.85 -31.95 9.25 -31.55 9.85 -31.55 10.75 -31.45 12.0 -32.1 L13.75 -33.5 Q12.9 -31.9 10.55 -29.95 L6.6 -26.8 5.05 -25.45 Q4.1 -24.25 4.1 -22.75 4.2 -22.05 4.45 -21.8 4.65 -21.55 5.55 -21.45 L7.3 -21.65 Q7.8 -21.85 8.7 -22.55 L14.35 -27.95 Q16.55 -30.35 18.45 -34.75 M-32.75 -16.75 L-32.75 -15.45 -33.1 -14.15 -33.95 -11.2 -34.25 -10.45 Q-34.45 -9.75 -34.25 -8.7 L-34.1 -8.25 -33.55 -8.3 Q-33.4 -8.35 -33.2 -8.8 L-30.8 -14.1 -30.7 -16.3 -30.5 -17.25 -29.65 -19.3 -29.35 -20.3 Q-29.25 -20.95 -29.7 -21.3 L-30.35 -21.55 -33.75 -21.7 -35.3 -21.5 -35.7 -20.95 -35.0 -20.45 Q-33.9 -20.05 -33.35 -19.0 L-32.8 -17.85 Q-32.65 -17.35 -32.75 -16.75" fill="#b4b4b4" fill-rule="evenodd" stroke="none"/>
    <path d="M7.15 -69.75 Q9.9 -69.35 11.25 -68.6 12.25 -68.05 12.85 -67.15 13.5 -66.15 13.45 -65.15 13.35 -62.85 9.8 -60.9 5.4 -58.5 -0.75 -56.7 L-5.65 -53.0 -6.05 -52.65 -13.3 -46.75 Q-19.4 -38.75 -24.85 -28.3 -25.3 -27.35 -25.85 -26.95 L-25.85 -26.9 -26.15 -26.8 -26.15 -26.75 -26.4 -26.7 -27.5 -24.1 -43.05 -24.7 -46.25 -24.9 -46.45 -25.9 -45.6 -25.95 Q-41.4 -26.05 -33.0 -25.75 L-30.2 -26.05 -29.25 -26.6 -30.4 -27.05 -31.95 -27.5 -33.3 -27.65 -34.65 -27.65 -37.45 -28.05 -46.7 -29.65 -47.1 -29.7 -47.15 -29.9 Q-47.35 -31.6 -47.15 -32.85 L-47.15 -34.1 Q-46.7 -35.9 -45.55 -37.9 L-43.25 -41.4 -41.25 -44.15 -40.8 -45.3 Q-38.2 -49.6 -34.4 -52.8 L-34.35 -52.95 -33.1 -54.35 -25.1 -62.4 Q-20.35 -67.15 -16.1 -68.9 -11.15 -71.0 -2.6 -70.65 L7.15 -69.75 M-17.4 -64.9 Q-19.2 -64.35 -22.05 -62.4 L-25.15 -60.1 -28.5 -56.0 -30.25 -53.45 -34.45 -47.15 Q-35.7 -45.0 -35.6 -43.6 -35.5 -42.8 -35.1 -42.55 L-34.1 -42.45 Q-32.1 -42.75 -28.85 -44.25 -26.0 -45.55 -24.6 -46.6 L-21.75 -49.05 Q-20.8 -49.75 -17.1 -51.5 -14.7 -52.6 -10.25 -55.2 L-3.4 -58.9 0.75 -60.65 Q1.6 -60.9 2.05 -61.3 2.75 -61.95 2.55 -62.6 2.4 -63.15 1.3 -63.6 L-5.0 -64.7 -12.5 -65.45 -17.4 -64.9 M15.05 -41.1 Q13.05 -39.2 11.65 -38.2 8.8 -36.15 5.2 -35.55 L3.2 -35.35 Q2.4 -35.35 2.05 -35.7 1.85 -35.95 1.75 -36.65 1.75 -37.95 2.15 -38.95 L0.95 -39.0 Q0.25 -39.15 0.1 -39.8 L0.25 -40.95 0.0 -42.2 Q0.0 -42.75 0.7 -43.45 3.4 -46.25 8.15 -50.1 L9.55 -51.25 11.95 -52.95 Q12.7 -53.5 14.9 -55.85 L16.7 -58.1 17.65 -60.6 Q17.95 -61.9 18.7 -61.95 19.1 -62.0 19.75 -61.35 21.7 -59.4 21.7 -57.9 L21.55 -56.5 21.7 -55.2 Q22.5 -52.05 22.05 -50.35 21.75 -49.15 20.85 -47.65 L19.05 -44.9 17.55 -43.35 15.05 -41.1 M18.85 -48.9 Q19.45 -50.4 19.45 -51.15 L19.3 -51.75 Q19.0 -52.05 18.75 -51.95 18.45 -51.85 18.35 -51.35 17.95 -49.65 16.7 -48.1 L15.8 -47.1 14.8 -46.2 12.85 -44.55 10.6 -42.8 7.8 -41.25 6.75 -40.5 Q6.3 -39.85 6.65 -39.25 7.05 -38.7 7.85 -38.95 L9.05 -39.55 11.6 -40.95 Q12.55 -41.65 15.3 -44.25 L18.05 -47.3 18.85 -48.9 M18.45 -34.75 Q16.55 -30.35 14.35 -27.95 L8.7 -22.55 Q7.8 -21.85 7.3 -21.65 L5.55 -21.45 Q4.65 -21.55 4.45 -21.8 4.2 -22.05 4.1 -22.75 4.1 -24.25 5.05 -25.45 L6.6 -26.8 10.55 -29.95 Q12.9 -31.9 13.75 -33.5 L12.0 -32.1 Q10.75 -31.45 9.85 -31.55 9.25 -31.55 8.85 -31.95 8.45 -32.4 8.55 -33.1 8.55 -34.05 9.2 -34.85 9.55 -35.3 11.25 -36.55 L12.85 -37.8 14.6 -38.9 15.75 -39.5 16.4 -40.1 17.5 -40.05 18.5 -39.25 Q18.95 -38.6 18.65 -38.0 L18.45 -37.4 18.7 -36.9 Q19.1 -36.15 18.45 -34.75 M-32.75 -16.75 Q-32.65 -17.35 -32.8 -17.85 L-33.35 -19.0 Q-33.9 -20.05 -35.0 -20.45 L-35.7 -20.95 -35.3 -21.5 -33.75 -21.7 -30.35 -21.55 -29.7 -21.3 Q-29.25 -20.95 -29.35 -20.3 L-29.65 -19.3 -30.5 -17.25 -30.7 -16.3 -30.8 -14.1 -33.2 -8.8 Q-33.4 -8.35 -33.55 -8.3 L-34.1 -8.25 -34.25 -8.7 Q-34.45 -9.75 -34.25 -10.45 L-33.95 -11.2 -33.1 -14.15 -32.75 -15.45 -32.75 -16.75" fill="#e0e0e0" fill-rule="evenodd" stroke="none"/>
    <path d="M-17.4 -64.9 L-12.5 -65.45 -5.0 -64.7 1.3 -63.6 Q2.4 -63.15 2.55 -62.6 2.75 -61.95 2.05 -61.3 1.6 -60.9 0.75 -60.65 L-3.4 -58.9 -10.25 -55.2 Q-14.7 -52.6 -17.1 -51.5 -20.8 -49.75 -21.75 -49.05 L-24.6 -46.6 Q-26.0 -45.55 -28.85 -44.25 -32.1 -42.75 -34.1 -42.45 L-35.1 -42.55 Q-35.5 -42.8 -35.6 -43.6 -35.7 -45.0 -34.45 -47.15 L-30.25 -53.45 -28.5 -56.0 -25.15 -60.1 -22.05 -62.4 Q-19.2 -64.35 -17.4 -64.9 M18.85 -48.9 L18.05 -47.3 15.3 -44.25 Q12.55 -41.65 11.6 -40.95 L9.05 -39.55 7.85 -38.95 Q7.05 -38.7 6.65 -39.25 6.3 -39.85 6.75 -40.5 L7.8 -41.25 10.6 -42.8 12.85 -44.55 14.8 -46.2 15.8 -47.1 16.7 -48.1 Q17.95 -49.65 18.35 -51.35 18.45 -51.85 18.75 -51.95 19.0 -52.05 19.3 -51.75 L19.45 -51.15 Q19.45 -50.4 18.85 -48.9" fill="#ffffff" fill-rule="evenodd" stroke="none"/>
  </g>
</svg>
