<?xml version="1.0" encoding="UTF-8" standalone="no"?>
<svg xmlns:ffdec="https://www.free-decompiler.com/flash" xmlns:xlink="http://www.w3.org/1999/xlink" ffdec:objectType="shape" height="79.3px" width="82.6px" xmlns="http://www.w3.org/2000/svg">
  <g transform="matrix(1.0, 0.0, 0.0, 1.0, 50.1, 31.5)">
    <path d="M8.05 -16.2 L12.3 -12.8 Q12.75 -9.5 12.75 -5.55 L11.25 3.55 11.05 7.05 11.15 11.95 11.25 14.0 11.3 15.15 Q11.3 17.7 6.6 33.15 7.6 26.1 8.75 22.3 9.5 19.85 9.5 17.25 8.55 5.95 8.55 4.95 L8.95 0.15 9.8 -6.75 Q9.8 -12.8 8.05 -16.2 M19.0 -0.4 L19.7 2.2 20.1 4.3 20.1 5.3 Q20.2 8.65 18.8 11.6 L17.65 13.6 17.25 14.1 17.2 14.2 16.95 12.55 Q16.8 11.15 17.0 9.85 17.3 8.0 18.15 6.25 L18.5 5.3 18.8 1.95 19.0 -0.4 M-22.65 -29.95 L-23.25 -29.75 -26.35 -29.8 Q-26.85 -30.2 -26.9 -30.7 L-27.0 -30.8 -22.65 -29.95" fill="#ffffff" fill-rule="evenodd" stroke="none"/>
    <path d="M12.3 -12.8 L15.3 -10.05 12.15 3.1 12.6 7.05 12.7 8.15 12.95 11.75 12.9 13.65 12.7 16.05 12.25 18.5 10.35 26.35 Q8.85 29.3 6.5 37.25 L6.6 33.15 Q11.3 17.7 11.3 15.15 L11.25 14.0 11.15 11.95 11.05 7.05 11.25 3.55 12.75 -5.55 Q12.75 -9.5 12.3 -12.8 M16.9 -8.4 L18.45 -6.6 19.95 -4.7 20.45 -4.0 20.85 -1.85 Q21.8 -0.1 22.5 3.15 L22.45 3.15 22.4 3.25 22.35 5.3 22.35 7.0 Q22.4 9.15 21.4 10.85 L20.2 13.65 20.05 14.05 19.1 16.25 Q18.1 18.85 17.6 21.5 L17.15 24.0 17.0 25.65 16.95 26.05 Q16.8 28.3 16.95 30.6 L16.65 32.15 16.65 32.2 16.15 33.25 15.95 32.3 14.95 28.1 14.45 25.45 14.3 24.6 13.65 22.1 14.4 19.55 15.0 17.3 15.05 17.1 15.3 14.4 15.0 10.1 14.95 8.65 14.95 8.6 Q14.7 4.15 15.4 0.95 L15.4 0.9 15.95 -1.1 16.55 -6.05 16.9 -8.4 M23.9 2.3 Q24.6 4.15 24.85 5.9 L25.0 7.5 25.0 8.15 24.35 9.05 23.3 10.6 22.2 12.65 22.4 11.9 23.55 8.0 23.9 5.3 23.9 2.3 M19.0 -0.4 L18.8 1.95 18.5 5.3 18.15 6.25 Q17.3 8.0 17.0 9.85 16.8 11.15 16.95 12.55 L17.2 14.2 17.25 14.1 17.65 13.6 18.8 11.6 Q20.2 8.65 20.1 5.3 L20.1 4.3 19.7 2.2 19.0 -0.4 M18.45 30.25 Q18.35 28.5 18.55 26.9 L18.65 26.3 18.75 25.75 19.1 24.0 19.2 23.7 19.25 23.55 19.75 21.7 19.55 23.9 19.65 26.6 19.65 26.7 19.7 27.45 Q20.0 29.8 20.8 32.15 L21.5 33.95 21.8 34.7 18.45 30.25 M-14.0 -27.4 L-14.45 -27.45 -21.6 -27.1 -28.5 -26.75 Q-29.25 -26.95 -29.75 -27.4 -31.75 -29.15 -31.6 -31.35 L-27.0 -30.8 -26.9 -30.7 Q-26.85 -30.2 -26.35 -29.8 L-23.25 -29.75 -22.65 -29.95 Q-18.4 -29.0 -14.0 -27.4 M-33.7 -31.45 L-34.5 -30.7 -34.7 -30.45 -35.5 -29.5 -37.05 -29.2 -38.0 -29.05 Q-42.75 -29.05 -45.45 -30.5 L-45.55 -30.55 -37.45 -31.5 -33.7 -31.45" fill="#d1d1d1" fill-rule="evenodd" stroke="none"/>
    <path d="M15.3 -10.05 L16.9 -8.4 16.55 -6.05 15.95 -1.1 15.4 0.9 15.1 -1.0 15.25 -5.9 Q13.6 0.6 13.5 8.4 L13.5 8.75 13.5 9.2 13.6 14.6 13.7 17.25 13.65 17.9 Q13.2 20.45 10.35 26.35 L12.25 18.5 12.7 16.05 12.9 13.65 12.95 11.75 12.7 8.15 12.6 7.05 12.15 3.1 15.3 -10.05 M20.45 -4.0 Q22.75 -0.75 23.9 2.3 L23.9 5.3 23.55 8.0 21.4 10.85 Q22.4 9.15 22.35 7.0 L22.35 5.3 22.4 3.25 22.45 3.15 22.5 3.15 Q21.8 -0.1 20.85 -1.85 L20.45 -4.0 M25.0 8.15 L25.0 8.85 23.3 10.6 24.35 9.05 25.0 8.15 M16.95 30.6 L17.3 31.9 17.45 32.5 17.65 33.7 Q17.65 35.05 16.65 36.2 L15.25 39.3 Q15.35 38.65 13.8 31.55 12.9 27.3 13.15 24.5 L13.2 23.9 Q13.35 22.85 13.65 22.1 L14.3 24.6 14.45 25.45 14.95 28.1 15.95 32.3 16.15 33.25 16.65 32.2 16.65 32.15 16.95 30.6 M22.2 23.1 L22.45 23.55 Q23.95 25.9 27.45 28.8 23.9 29.1 21.25 25.55 20.85 23.05 21.05 20.45 L22.2 23.1 M18.45 30.25 L21.8 34.7 21.5 33.95 20.8 32.15 21.65 34.05 22.75 36.05 Q24.1 38.35 26.0 40.6 L25.6 40.35 Q22.4 38.3 20.55 35.35 19.8 34.2 19.3 32.9 L18.45 30.25 M27.05 36.35 L25.7 35.85 24.9 34.65 Q22.9 31.7 21.95 28.55 L23.35 29.5 Q26.1 32.3 27.05 36.35 M-48.65 -29.65 L-48.1 -29.85 -45.55 -30.55 -45.45 -30.5 Q-42.75 -29.05 -38.0 -29.05 L-37.05 -29.2 -35.5 -29.5 -34.7 -30.45 -34.5 -30.7 -33.7 -31.45 -31.6 -31.35 Q-31.75 -29.15 -29.75 -27.4 -29.25 -26.95 -28.5 -26.75 L-21.6 -27.1 -14.45 -27.45 -14.0 -27.4 -10.2 -25.95 -10.75 -25.85 -11.45 -25.65 -12.4 -25.7 -15.4 -25.7 -22.95 -25.25 -23.4 -25.2 -29.4 -25.2 Q-30.8 -25.3 -31.6 -26.3 -32.35 -25.65 -33.25 -25.5 L-34.5 -25.15 -34.7 -25.15 -42.05 -25.65 -44.1 -27.65 -44.35 -27.7 Q-46.45 -28.3 -48.05 -29.25 L-48.65 -29.65" fill="#989898" fill-rule="evenodd" stroke="none"/>
    <path d="M25.0 8.85 Q24.8 11.3 23.75 13.65 L22.65 15.65 22.8 15.6 21.45 17.7 22.45 20.0 25.1 24.15 25.25 24.4 25.7 24.9 31.6 31.15 32.5 32.05 25.4 29.9 27.3 32.45 Q28.05 33.7 29.2 37.6 L26.5 37.05 Q30.3 43.05 31.45 47.35 25.9 43.5 21.05 38.75 L18.65 35.8 16.65 40.2 16.1 41.15 Q14.15 44.45 12.7 45.95 L12.1 45.8 12.0 44.95 Q13.35 40.55 13.35 38.0 13.35 36.65 12.6 33.3 L11.4 28.0 Q10.85 29.55 9.65 34.75 L8.35 40.8 8.15 45.4 Q8.0 47.75 7.75 47.8 6.6 46.9 5.85 44.25 4.9 41.1 4.9 36.5 L5.4 31.2 Q5.95 26.25 6.5 23.4 8.05 19.15 7.65 14.35 7.25 9.5 7.15 5.95 7.0 2.35 8.25 -4.5 L8.65 -8.15 Q8.65 -13.85 3.9 -18.9 L6.05 -17.5 Q6.95 -16.9 7.8 -16.35 L8.05 -16.2 Q9.8 -12.8 9.8 -6.75 L8.95 0.15 8.55 4.95 Q8.55 5.95 9.5 17.25 9.5 19.85 8.75 22.3 7.6 26.1 6.6 33.15 L6.5 37.25 Q8.85 29.3 10.35 26.35 13.2 20.45 13.65 17.9 L13.7 17.25 13.6 14.6 13.5 9.2 13.5 8.75 13.5 8.4 Q13.6 0.6 15.25 -5.9 L15.1 -1.0 15.4 0.9 15.4 0.95 Q14.7 4.15 14.95 8.6 L14.95 8.65 15.0 10.1 15.3 14.4 15.05 17.1 15.0 17.3 14.4 19.55 13.65 22.1 Q13.35 22.85 13.2 23.9 L13.15 24.5 Q12.9 27.3 13.8 31.55 15.35 38.65 15.25 39.3 L16.65 36.2 Q17.65 35.05 17.65 33.7 L17.45 32.5 17.3 31.9 16.95 30.6 Q16.8 28.3 16.95 26.05 L17.0 25.65 17.15 24.0 17.6 21.5 Q18.1 18.85 19.1 16.25 L20.05 14.05 20.2 13.65 21.4 10.85 23.55 8.0 22.4 11.9 22.2 12.65 23.3 10.6 25.0 8.85 M22.2 23.1 L21.05 20.45 Q20.85 23.05 21.25 25.55 23.9 29.1 27.45 28.8 23.95 25.9 22.45 23.55 L22.2 23.1 M20.8 32.15 Q20.0 29.8 19.7 27.45 L19.65 26.7 19.65 26.6 19.55 23.9 19.75 21.7 19.25 23.55 19.2 23.7 19.1 24.0 18.75 25.75 18.65 26.3 18.55 26.9 Q18.35 28.5 18.45 30.25 L19.3 32.9 Q19.8 34.2 20.55 35.35 22.4 38.3 25.6 40.35 L26.0 40.6 Q24.1 38.35 22.75 36.05 L21.65 34.05 20.8 32.15 M27.05 36.35 Q26.1 32.3 23.35 29.5 L21.95 28.55 Q22.9 31.7 24.9 34.65 L25.7 35.85 27.05 36.35 M-48.65 -29.65 L-48.05 -29.25 Q-46.45 -28.3 -44.35 -27.7 L-44.1 -27.65 -42.05 -25.65 -45.5 -26.4 Q-48.3 -27.1 -50.1 -29.05 L-48.65 -29.65 M-12.4 -25.7 L-11.45 -25.65 -10.75 -25.85 -10.2 -25.95 -9.2 -25.55 -10.75 -25.6 -12.4 -25.7" fill="#606060" fill-rule="evenodd" stroke="none"/>
  </g>
</svg>
