<?xml version="1.0" encoding="UTF-8" standalone="no"?>
<svg xmlns:ffdec="https://www.free-decompiler.com/flash" xmlns:xlink="http://www.w3.org/1999/xlink" ffdec:objectType="shape" height="63.6px" width="75.05px" xmlns="http://www.w3.org/2000/svg">
  <g transform="matrix(1.0, 0.0, 0.0, 1.0, 38.8, 5.1)">
    <path d="M26.0 5.7 L26.45 9.4 25.9 10.7 Q23.15 17.2 23.15 19.8 23.15 20.4 23.5 21.7 L24.15 24.05 24.95 28.5 25.05 29.1 Q26.05 34.55 26.05 37.9 L25.45 41.5 23.7 46.35 23.3 47.05 22.3 48.25 21.75 48.75 22.0 48.2 22.9 46.1 Q23.85 43.35 23.85 41.2 23.85 37.65 22.55 30.75 L22.15 28.5 21.25 23.25 Q21.25 17.15 24.2 10.4 L26.0 5.7 M13.25 10.6 L14.3 9.9 Q14.5 12.7 15.05 15.5 L15.9 19.2 15.8 19.85 15.4 19.8 13.25 10.6 M6.75 14.5 L7.65 17.95 8.55 21.25 Q9.75 25.75 9.75 26.4 L9.45 28.5 9.15 29.15 8.05 26.75 Q6.05 20.9 4.85 15.4 L6.7 14.5 6.75 14.5 M-19.55 20.75 L-17.95 20.9 Q-19.05 24.8 -21.0 30.0 L-21.65 29.8 -21.9 29.15 -20.4 23.9 -19.55 20.75 M-30.95 11.65 L-29.65 13.8 -28.6 15.15 -29.6 18.8 -29.9 23.8 Q-30.15 28.2 -30.75 30.1 L-31.25 31.3 -32.45 28.2 Q-33.25 25.45 -33.25 21.05 L-33.2 20.15 -32.95 18.0 -32.6 16.4 -32.35 15.65 -31.6 13.85 -30.95 11.65" fill="#ffffff" fill-rule="evenodd" stroke="none"/>
    <path d="M29.0 -2.15 L29.0 -1.35 Q29.2 3.7 29.6 6.05 L30.35 10.5 30.65 12.1 Q32.75 23.6 34.55 26.7 L34.65 30.8 34.05 28.5 Q31.85 20.55 29.3 13.65 L28.65 12.0 28.35 11.15 Q27.65 9.1 27.35 6.8 27.1 4.85 27.1 2.75 L27.15 0.25 27.15 -0.35 28.15 -1.35 29.0 -2.15 M25.5 1.2 L25.9 4.9 26.0 5.7 24.2 10.4 Q21.25 17.15 21.25 23.25 L22.15 28.5 22.55 30.75 Q23.85 37.65 23.85 41.2 23.85 43.35 22.9 46.1 L22.0 48.2 21.75 48.75 20.65 49.4 21.1 48.05 21.85 45.15 22.15 44.1 Q22.85 41.1 22.85 39.55 22.85 36.25 21.0 30.0 L20.9 29.5 20.85 29.25 20.7 28.5 20.35 25.9 20.1 22.55 Q20.1 19.6 22.0 13.25 L24.2 5.9 Q24.5 3.95 24.2 2.35 L25.5 1.2 M26.45 9.4 L26.5 10.65 26.45 11.45 27.25 14.05 24.45 21.3 Q24.1 22.2 24.1 22.95 L24.15 24.05 23.5 21.7 Q23.15 20.4 23.15 19.8 23.15 17.2 25.9 10.7 L26.45 9.4 M10.95 21.15 L12.55 25.95 13.2 28.5 13.3 29.25 13.3 30.0 Q12.8 31.25 12.7 33.85 L12.65 35.75 12.5 37.85 12.0 39.85 11.55 40.8 11.85 38.4 11.5 35.9 10.7 32.5 10.5 31.95 9.15 29.15 9.45 28.5 9.75 26.4 Q9.75 25.75 8.55 21.25 L7.65 17.95 6.75 14.5 8.55 13.5 9.3 13.05 Q9.85 16.85 10.95 21.15 M-6.1 51.5 L-6.25 51.8 -7.0 46.8 -6.1 51.5 M-6.35 40.15 L-4.25 27.95 Q-3.0 20.3 -3.0 18.7 L-3.0 18.65 -1.0 17.95 -0.8 20.75 Q-0.8 24.0 -5.5 43.05 L-5.7 41.95 Q-5.9 40.75 -6.35 40.15 M-10.8 50.6 L-10.9 50.75 -11.1 49.7 -10.8 50.6 M-35.8 20.15 L-35.65 18.95 -35.65 18.9 -35.3 17.05 -33.85 13.05 -32.05 9.25 -31.9 9.45 -30.95 11.65 -31.6 13.85 -32.35 15.65 -32.6 16.4 -32.95 18.0 -33.2 20.15 -33.25 21.05 Q-33.25 25.45 -32.45 28.2 L-31.25 31.3 -30.75 30.1 Q-30.15 28.2 -29.9 23.8 L-29.6 18.8 -28.6 15.15 -26.8 16.9 -25.85 17.65 -25.6 17.9 -26.85 23.05 -29.2 32.25 -30.2 35.9 -31.8 41.0 -31.9 40.95 -32.8 35.9 -33.55 32.25 -34.65 27.85 Q-35.4 25.1 -35.8 20.15 M21.3 4.75 L20.95 6.0 Q19.8 10.3 18.4 13.6 18.0 12.5 17.55 7.6 L17.8 7.4 21.3 4.75 M16.05 8.7 L17.1 18.4 16.4 27.0 14.45 22.85 Q12.6 18.55 12.5 16.25 L11.85 11.5 13.25 10.6 15.4 19.8 15.8 19.85 15.9 19.2 15.05 15.5 Q14.5 12.7 14.3 9.9 L16.05 8.7 M4.85 15.4 Q6.05 20.9 8.05 26.75 5.35 21.05 3.85 15.9 L4.85 15.4 M16.35 37.55 L16.4 37.0 Q16.35 36.25 16.85 36.55 L16.6 37.95 16.5 38.0 16.35 37.55 M-19.55 20.75 L-20.4 23.9 -21.9 29.15 -21.65 29.8 -21.0 30.0 Q-19.05 24.8 -17.95 20.9 L-15.0 20.95 -16.65 26.45 Q-19.75 35.8 -22.5 39.5 L-23.9 32.8 -24.25 28.95 Q-24.25 23.65 -22.95 19.8 L-22.1 20.2 -22.05 20.25 -22.0 20.25 -19.55 20.75 M-6.75 19.75 L-7.0 21.1 -10.3 41.0 -10.85 36.15 -11.15 32.5 -10.6 25.35 -10.2 20.45 -6.75 19.75" fill="#d1d1d1" fill-rule="evenodd" stroke="none"/>
    <path d="M30.2 -3.4 L30.05 -1.35 29.95 0.8 Q29.95 1.4 30.9 6.05 L31.2 7.45 32.9 15.9 33.75 20.5 34.55 26.7 Q32.75 23.6 30.65 12.1 L30.35 10.5 29.6 6.05 Q29.2 3.7 29.0 -1.35 L29.0 -2.15 30.2 -3.4 M24.2 5.9 L23.45 2.95 24.2 2.35 Q24.5 3.95 24.2 5.9 M23.05 3.3 Q22.65 5.55 21.05 10.4 18.45 18.1 18.45 23.3 18.45 24.45 19.25 28.5 L19.4 29.25 19.7 30.95 20.5 34.75 21.45 39.05 20.75 38.25 19.1 36.05 17.4 33.35 15.4 29.8 15.15 29.25 14.75 28.5 10.95 21.15 Q9.85 16.85 9.3 13.05 L11.85 11.5 12.5 16.25 Q12.6 18.55 14.45 22.85 L16.4 27.0 17.1 18.4 16.05 8.7 17.55 7.6 Q18.0 12.5 18.4 13.6 19.8 10.3 20.95 6.0 L21.3 4.75 23.05 3.3 M13.3 30.0 L15.0 36.2 14.7 38.7 14.45 39.85 13.95 41.65 Q12.65 44.6 11.15 46.7 L9.9 48.2 8.3 49.6 7.4 50.35 8.6 47.95 9.25 45.9 9.8 43.1 9.9 41.7 Q9.9 39.35 8.5 34.8 L7.6 31.95 6.65 29.25 5.05 25.15 Q3.25 20.6 2.1 16.7 L3.75 15.95 3.85 15.9 Q5.35 21.05 8.05 26.75 L9.15 29.15 10.5 31.95 10.7 32.5 11.5 35.9 11.85 38.4 11.55 40.8 12.0 39.85 12.5 37.85 12.65 35.75 12.7 33.85 Q12.8 31.25 13.3 30.0 M0.75 17.3 L1.7 20.5 1.5 20.1 1.6 21.65 Q1.55 25.65 1.15 29.25 L0.8 32.2 0.6 33.45 0.0 36.8 -0.65 40.35 -6.1 51.5 -7.0 46.8 -6.35 40.15 Q-5.9 40.75 -5.7 41.95 L-5.5 43.05 Q-0.8 24.0 -0.8 20.75 L-1.0 17.95 0.75 17.3 M-4.45 19.1 Q-5.0 24.85 -7.0 34.85 -9.4 46.8 -10.8 50.65 L-10.8 50.6 -11.1 49.7 -11.35 48.7 -14.1 37.55 -15.15 34.25 Q-15.35 33.7 -15.5 33.6 -12.85 25.55 -12.15 20.75 L-11.6 20.65 -10.4 20.45 -10.2 20.45 -10.6 25.35 -11.15 32.5 -10.85 36.15 -10.3 41.0 -7.0 21.1 -6.75 19.75 -4.45 19.1 M-13.45 20.85 L-17.95 34.9 Q-19.8 40.55 -19.8 45.4 -19.8 46.85 -19.05 49.75 L-20.35 48.2 Q-24.0 43.25 -24.95 38.25 L-25.25 34.15 -25.15 33.25 -25.2 33.35 -25.0 30.4 -24.65 28.3 -24.5 26.75 -25.1 20.95 -25.35 21.85 Q-27.05 27.65 -27.25 32.25 L-27.25 32.65 Q-27.3 34.2 -27.75 35.9 -28.25 38.0 -29.35 40.35 -31.65 45.35 -33.6 47.45 -34.95 48.9 -36.35 49.05 -34.15 46.0 -34.15 41.05 L-34.75 35.9 -35.05 33.6 -35.2 32.25 Q-36.0 25.6 -36.0 22.7 L-35.8 20.15 Q-35.4 25.1 -34.65 27.85 L-33.55 32.25 -32.8 35.9 -31.9 40.95 -31.8 41.0 -30.2 35.9 -29.2 32.25 -26.85 23.05 -25.6 17.9 Q-24.4 19.05 -22.95 19.8 -24.25 23.65 -24.25 28.95 L-23.9 32.8 -22.5 39.5 Q-19.75 35.8 -16.65 26.45 L-15.0 20.95 -13.45 20.85 M16.35 37.55 L16.5 38.0 16.6 37.95 16.85 36.55 16.95 36.6 17.5 37.25 18.85 38.55 Q18.95 42.8 20.75 45.6 L20.65 46.0 Q19.45 45.7 18.3 44.45 17.05 43.15 15.7 40.65 L16.35 37.55 M2.05 37.35 L1.75 36.6 Q2.65 32.8 3.05 29.25 L3.3 24.4 5.05 29.25 7.15 35.55 6.85 38.05 Q6.85 41.8 8.1 44.45 L7.8 45.65 6.3 44.45 Q4.35 42.35 2.05 37.35 M29.6 42.65 L26.75 42.05 27.4 39.15 29.6 42.65" fill="#989898" fill-rule="evenodd" stroke="none"/>
    <path d="M34.55 26.7 L33.75 20.5 32.9 15.9 31.2 7.45 30.9 6.05 Q29.95 1.4 29.95 0.8 L30.05 -1.35 30.2 -3.4 31.0 -4.3 31.7 -5.1 31.65 -1.35 31.6 -0.25 31.8 2.15 33.9 12.65 Q36.25 24.85 36.25 27.15 L36.25 28.5 Q36.2 33.4 35.85 36.05 35.25 40.25 33.65 41.35 32.9 40.75 33.0 37.25 33.15 32.65 32.85 31.1 L32.05 28.5 29.6 21.15 28.1 16.65 26.05 21.95 Q26.05 25.45 26.45 28.5 27.2 34.65 29.45 39.05 31.15 42.4 33.1 44.05 L31.55 44.4 29.25 44.55 Q28.0 44.55 26.4 43.55 25.65 46.85 23.55 49.0 21.3 51.3 18.7 51.05 L20.0 47.8 Q18.25 47.35 17.6 46.6 16.8 45.75 15.05 42.65 14.05 45.35 12.3 47.9 8.1 54.1 2.4 53.85 2.55 52.15 5.5 49.2 L6.9 47.45 Q6.05 47.1 5.6 46.6 4.6 45.55 2.1 40.9 L1.1 39.0 0.9 39.65 Q-0.65 44.9 -5.4 58.5 -6.15 58.1 -6.7 56.65 L-8.3 51.05 -8.65 49.3 -9.7 52.4 -10.75 54.5 Q-11.65 54.35 -12.05 52.75 L-13.55 46.65 -15.2 42.15 Q-16.5 38.1 -16.4 35.9 L-17.4 37.95 Q-18.05 39.8 -18.05 44.15 -18.05 48.6 -13.75 54.5 -13.35 55.5 -15.0 55.5 -17.45 55.5 -20.9 51.25 -24.15 47.2 -26.0 41.7 L-26.65 39.55 -26.85 38.7 -27.25 39.7 -29.4 43.9 Q-31.9 48.55 -32.9 49.6 -33.7 50.5 -35.95 50.95 L-37.9 51.3 -38.8 50.55 Q-35.8 43.85 -35.8 38.05 L-35.85 35.9 Q-35.95 34.0 -36.2 32.25 L-36.6 30.15 Q-37.4 26.55 -37.8 23.25 L-37.85 20.15 Q-37.85 19.15 -37.45 17.8 L-36.9 15.9 -36.1 13.65 -34.55 10.25 Q-33.85 8.85 -33.4 7.3 L-32.05 9.25 -33.85 13.05 -35.3 17.05 -35.65 18.9 -35.65 18.95 -35.8 20.15 -36.0 22.7 Q-36.0 25.6 -35.2 32.25 L-35.05 33.6 -34.75 35.9 -34.15 41.05 Q-34.15 46.0 -36.35 49.05 -34.95 48.9 -33.6 47.45 -31.65 45.35 -29.35 40.35 -28.25 38.0 -27.75 35.9 -27.3 34.2 -27.25 32.65 L-27.25 32.25 Q-27.05 27.65 -25.35 21.85 L-25.1 20.95 -24.5 26.75 -24.65 28.3 -25.0 30.4 -25.2 33.35 -25.15 33.25 -25.25 34.15 -24.95 38.25 Q-24.0 43.25 -20.35 48.2 L-19.05 49.75 Q-19.8 46.85 -19.8 45.4 -19.8 40.55 -17.95 34.9 L-13.45 20.85 -12.15 20.75 Q-12.85 25.55 -15.5 33.6 -15.35 33.7 -15.15 34.25 L-14.1 37.55 -11.35 48.7 -10.9 50.75 -10.8 50.6 -10.8 50.65 Q-9.4 46.8 -7.0 34.85 -5.0 24.85 -4.45 19.1 L-3.0 18.65 -3.0 18.7 Q-3.0 20.3 -4.25 27.95 L-6.35 40.15 -7.0 46.8 -6.25 51.8 -6.1 51.5 -0.65 40.35 0.0 36.8 0.6 33.45 0.8 32.2 1.15 29.25 Q1.55 25.65 1.6 21.65 L1.5 20.1 1.7 20.5 0.75 17.3 2.1 16.7 Q3.25 20.6 5.05 25.15 L6.65 29.25 7.6 31.95 8.5 34.8 Q9.9 39.35 9.9 41.7 L9.8 43.1 9.25 45.9 8.6 47.95 7.4 50.35 8.3 49.6 9.9 48.2 11.15 46.7 Q12.65 44.6 13.95 41.65 L14.45 39.85 14.7 38.7 15.0 36.2 13.3 30.0 13.3 29.25 13.2 28.5 12.55 25.95 10.95 21.15 14.75 28.5 15.15 29.25 15.4 29.8 17.4 33.35 19.1 36.05 20.75 38.25 21.45 39.05 20.5 34.75 19.7 30.95 19.4 29.25 19.25 28.5 Q18.45 24.45 18.45 23.3 18.45 18.1 21.05 10.4 22.65 5.55 23.05 3.3 L23.45 2.95 24.2 5.9 22.0 13.25 Q20.1 19.6 20.1 22.55 L20.35 25.9 20.7 28.5 20.85 29.25 20.9 29.5 21.0 30.0 Q22.85 36.25 22.85 39.55 22.85 41.1 22.15 44.1 L21.85 45.15 21.1 48.05 20.65 49.4 21.75 48.75 22.3 48.25 23.3 47.05 23.7 46.35 25.45 41.5 26.05 37.9 Q26.05 34.55 25.05 29.1 L24.95 28.5 24.15 24.05 24.1 22.95 Q24.1 22.2 24.45 21.3 L27.25 14.05 26.45 11.45 26.5 10.65 26.45 9.4 26.0 5.7 25.9 4.9 25.5 1.2 27.15 -0.35 27.15 0.25 27.1 2.75 Q27.1 4.85 27.35 6.8 27.65 9.1 28.35 11.15 L28.65 12.0 29.3 13.65 Q31.85 20.55 34.05 28.5 L34.65 30.8 34.55 26.7 M16.85 36.55 Q16.35 36.25 16.4 37.0 L16.35 37.55 15.7 40.65 Q17.05 43.15 18.3 44.45 19.45 45.7 20.65 46.0 L20.75 45.6 Q18.95 42.8 18.85 38.55 L17.5 37.25 16.95 36.6 16.85 36.55 M2.05 37.35 Q4.35 42.35 6.3 44.45 L7.8 45.65 8.1 44.45 Q6.85 41.8 6.85 38.05 L7.15 35.55 5.05 29.25 3.3 24.4 3.05 29.25 Q2.65 32.8 1.75 36.6 L2.05 37.35 M29.6 42.65 L27.4 39.15 26.75 42.05 29.6 42.65 M21.65 41.65 L21.2 40.75 21.6 42.4 21.65 41.65" fill="#606060" fill-rule="evenodd" stroke="none"/>
  </g>
</svg>
