<?xml version="1.0" encoding="UTF-8" standalone="no"?>
<svg xmlns:ffdec="https://www.free-decompiler.com/flash" xmlns:xlink="http://www.w3.org/1999/xlink" ffdec:objectType="shape" height="4.55px" width="4.05px" xmlns="http://www.w3.org/2000/svg">
  <g transform="matrix(1.0, 0.0, 0.0, 1.0, -2.8, 5.6)">
    <path d="M5.95 -4.35 L5.95 -4.3 6.25 -3.35 Q6.25 -2.6 5.85 -2.15 5.4 -1.65 4.85 -1.65 4.3 -1.65 3.85 -2.15 3.45 -2.6 3.4 -3.15 L3.4 -3.25 5.95 -4.35" fill="#cccccc" fill-rule="evenodd" stroke="none"/>
    <path d="M3.4 -3.25 Q3.45 -4.05 3.85 -4.55 4.2 -4.95 4.75 -5.0 L4.85 -5.0 5.35 -4.9 5.85 -4.55 5.85 -4.5 5.9 -4.4 5.95 -4.35 3.4 -3.25" fill="#e0e0e0" fill-rule="evenodd" stroke="none"/>
    <path d="M3.4 -3.25 L3.4 -3.15 Q3.45 -2.6 3.85 -2.15 4.3 -1.65 4.85 -1.65 5.4 -1.65 5.85 -2.15 6.25 -2.6 6.25 -3.35 L5.95 -4.3 5.95 -4.35 5.9 -4.4 5.85 -4.5 5.85 -4.55 5.35 -4.9 4.85 -5.0 4.75 -5.0 Q4.2 -4.95 3.85 -4.55 3.45 -4.05 3.4 -3.25 M6.3 -1.75 Q5.7 -1.05 4.85 -1.05 4.0 -1.05 3.4 -1.75 2.85 -2.3 2.8 -3.1 L2.8 -3.15 Q2.8 -4.3 3.4 -4.95 3.9 -5.55 4.7 -5.6 L4.85 -5.6 5.55 -5.45 6.3 -4.95 6.25 -4.95 6.35 -4.85 6.5 -4.6 Q6.85 -4.05 6.85 -3.35 6.85 -2.4 6.3 -1.75" fill="#999999" fill-rule="evenodd" stroke="none"/>
  </g>
</svg>
