<?xml version="1.0" encoding="UTF-8" standalone="no"?>
<svg xmlns:ffdec="https://www.free-decompiler.com/flash" xmlns:xlink="http://www.w3.org/1999/xlink" ffdec:objectType="shape" height="36.5px" width="36.75px" xmlns="http://www.w3.org/2000/svg">
  <g transform="matrix(1.0, 0.0, 0.0, 1.0, 17.9, 18.55)">
    <path d="M-17.0 -7.55 Q-15.75 -10.65 -11.35 -14.0 L-9.0 -15.55 -6.55 -16.4 -4.05 -17.7 Q-1.7 -18.8 1.45 -18.45 3.65 -18.2 6.9 -16.95 L10.15 -15.3 Q11.6 -14.35 13.1 -12.5 15.75 -9.35 17.6 -5.4 18.55 -3.35 18.8 -1.7 L18.75 1.75 Q18.15 6.6 16.45 9.6 13.7 14.55 7.9 16.65 2.95 18.5 -3.2 17.75 -6.5 17.4 -8.5 16.15 L-11.85 13.25 -13.75 11.75 Q-15.1 10.55 -16.25 8.2 -17.5 5.5 -17.75 3.05 L-17.9 -0.4 Q-18.0 -5.2 -17.0 -7.55 M4.05 -11.15 L-0.2 -12.6 -5.05 -12.3 -6.2 -11.7 -6.6 -11.2 -7.5 -10.55 -9.2 -9.0 Q-10.75 -7.25 -11.05 -6.1 L-11.35 -3.6 Q-11.4 -3.05 -12.0 -1.3 -12.85 1.8 -11.6 5.0 -10.4 8.2 -7.7 9.95 L-4.2 11.8 Q-2.45 12.45 0.0 12.7 L4.7 12.4 6.8 11.3 9.3 9.2 10.45 7.55 11.3 5.9 11.95 3.2 12.45 0.0 Q12.75 -2.7 12.05 -4.25 L10.4 -6.75 9.05 -8.55 Q8.3 -9.25 6.8 -9.9 L4.05 -11.15" fill="#a67e54" fill-rule="evenodd" stroke="none"/>
    <path d="M-7.15 8.9 Q-9.6 7.35 -10.75 4.5 -11.85 1.65 -11.05 -1.1 L-10.45 -3.15 -10.3 -5.35 Q-10.1 -6.5 -8.6 -8.3 L-7.0 -9.9 -5.25 -10.85 Q-2.75 -11.75 -0.55 -11.5 0.5 -11.35 2.7 -10.45 L6.05 -9.05 7.95 -8.05 9.5 -6.25 Q11.4 -3.65 11.55 -1.95 L11.4 0.2 10.95 2.95 10.45 5.2 9.55 6.9 8.15 8.9 Q7.3 9.8 5.7 10.65 L4.1 11.45 -0.15 11.65 -3.5 10.95 -5.25 10.0 -7.15 8.9 M3.85 8.9 L2.95 9.45 2.1 9.45 1.7 9.5 0.95 9.7 0.35 9.6 0.0 9.65 -0.1 9.95 0.1 10.25 0.7 10.35 2.8 10.25 3.8 10.0 4.4 9.6 4.75 9.45 5.75 9.0 6.75 8.2 6.8 8.0 6.55 7.75 6.35 7.8 6.0 7.85 5.0 8.45 4.75 8.5 3.85 8.9 M5.55 5.5 L5.1 5.85 Q4.2 6.4 2.45 6.9 L0.2 7.35 0.0 7.6 0.2 7.9 0.55 7.95 1.55 7.95 2.15 7.85 4.8 7.0 Q6.3 6.3 7.4 5.0 L7.7 4.65 8.65 3.75 9.0 2.7 8.85 2.35 8.55 2.25 8.15 2.75 7.1 3.9 6.65 4.45 5.55 5.5 M-1.75 8.85 Q-1.35 8.7 -1.25 8.15 -1.3 7.95 -1.5 7.85 L-2.45 7.85 -4.05 7.55 -5.1 7.15 -6.05 6.7 -7.15 6.1 -7.4 6.0 -7.8 6.15 -7.5 6.7 -6.85 7.15 -4.55 8.3 -3.9 8.7 -3.3 8.8 -1.75 8.85 M-5.05 3.7 L-5.5 3.6 -7.55 3.2 -8.85 2.45 -9.6 2.25 -9.9 2.45 -9.9 2.8 -8.3 3.85 Q-6.7 4.7 -5.55 4.45 L-5.05 4.2 Q-4.8 3.85 -5.05 3.7 M2.9 3.65 L1.0 3.9 0.25 4.15 -0.85 4.25 -1.65 4.45 -2.45 4.55 -3.35 4.45 -3.65 4.9 -3.5 5.4 Q-3.2 5.75 -2.45 5.75 L-1.5 5.6 -0.55 5.4 0.25 5.3 1.95 4.8 2.75 4.75 3.45 4.5 Q5.2 3.7 6.45 2.45 L6.85 1.95 7.1 1.25 7.35 1.0 7.3 0.7 Q7.2 0.55 7.0 0.55 L6.45 0.85 6.15 1.45 Q5.9 1.9 4.9 2.55 L4.45 2.85 2.9 3.65 M-4.2 -1.25 L-4.9 -1.5 Q-5.7 -1.5 -6.45 -2.0 L-7.75 -3.0 -8.5 -3.3 Q-9.0 -3.2 -9.1 -2.75 L-9.05 -2.25 Q-8.65 -1.0 -7.2 -0.55 L-4.65 -0.7 Q-4.05 -0.95 -4.2 -1.25 M-6.5 0.7 L-7.05 0.55 -7.4 0.3 -7.8 0.15 -8.15 -0.1 Q-8.4 -0.35 -8.55 -0.2 L-8.7 0.1 -8.55 0.45 -7.6 1.2 Q-6.6 1.8 -5.6 2.0 L-1.8 2.35 0.3 2.25 2.25 1.75 2.8 1.1 1.8 1.05 1.1 1.25 0.05 1.35 -4.05 1.3 -5.6 1.05 -6.5 0.7 M-6.05 -3.55 L-5.0 -3.45 -4.15 -3.3 Q-3.6 -3.2 -3.35 -3.45 -3.15 -3.55 -3.2 -3.75 L-3.45 -3.95 -4.5 -4.3 -5.7 -4.4 -6.9 -4.8 -8.0 -5.3 -8.5 -5.4 Q-8.75 -5.25 -8.65 -4.9 L-8.3 -4.5 -6.05 -3.55 M-5.95 -6.15 L-4.45 -6.25 -2.65 -6.75 -2.35 -6.95 -2.65 -7.4 -3.4 -7.5 -4.35 -7.2 -5.95 -6.95 Q-6.5 -6.95 -6.5 -6.65 -6.6 -6.4 -6.35 -6.3 L-5.95 -6.15 M5.75 0.35 L6.5 -0.15 Q7.4 -0.95 8.1 -2.0 L9.1 -3.85 9.3 -4.35 9.05 -4.8 8.55 -4.7 8.25 -4.25 Q6.95 -1.5 5.6 -0.45 L5.2 0.0 5.15 0.25 5.35 0.45 5.75 0.35 M9.55 3.95 L9.75 3.9 9.95 3.65 10.5 1.3 10.55 0.55 10.4 -3.0 10.1 -3.35 9.85 -3.15 9.8 -2.8 9.7 1.2 9.6 1.9 9.25 3.25 9.25 3.6 9.3 4.0 9.55 3.95 M-0.15 -3.85 Q-0.75 -3.7 -0.7 -3.35 -0.6 -3.05 -0.15 -3.05 L1.3 -3.2 Q3.45 -3.55 4.65 -4.5 5.45 -5.15 5.4 -5.85 L5.25 -6.25 4.8 -6.15 4.55 -5.8 3.45 -4.75 1.7 -4.15 -0.15 -3.85 M3.95 -7.45 L4.15 -7.85 3.8 -8.2 3.3 -8.05 2.9 -7.65 2.1 -7.05 1.6 -6.8 Q0.6 -6.35 -0.1 -6.35 L-1.5 -6.3 -2.3 -6.15 -2.75 -6.15 Q-3.0 -6.0 -2.9 -5.65 L-2.45 -5.3 -1.8 -5.2 -1.3 -5.3 -1.1 -5.3 0.4 -5.4 1.0 -5.5 1.5 -5.7 2.95 -6.55 3.4 -6.9 3.95 -7.45 M-5.35 -9.5 L-5.75 -9.15 -6.05 -8.6 -5.85 -8.05 Q-5.55 -7.75 -5.3 -8.05 L-5.1 -8.3 -4.65 -8.6 -3.75 -9.0 -2.9 -9.15 0.45 -9.1 1.55 -8.65 2.0 -8.65 Q2.25 -8.75 2.1 -9.0 L1.85 -9.35 Q1.25 -9.85 0.5 -10.0 L-0.3 -10.1 -1.3 -10.15 -3.5 -10.15 -4.05 -10.0 -5.35 -9.5 M6.55 -5.8 L6.15 -4.5 5.65 -3.8 4.8 -2.9 3.6 -2.0 2.9 -1.65 2.0 -1.5 0.0 -1.1 -0.5 -1.15 -0.9 -1.2 -1.2 -0.95 -1.2 -0.55 -0.5 -0.15 0.65 -0.15 1.1 -0.25 2.85 -0.6 3.55 -0.85 3.85 -1.1 4.35 -1.4 5.75 -2.55 6.45 -3.3 7.1 -4.45 7.4 -5.7 7.4 -6.1 7.1 -6.4 6.7 -6.25 Q6.55 -6.1 6.55 -5.8" fill="#ffefd4" fill-rule="evenodd" stroke="none"/>
    <path d="M6.55 -5.8 Q6.55 -6.1 6.7 -6.25 L7.1 -6.4 7.4 -6.1 7.4 -5.7 7.1 -4.45 6.45 -3.3 5.75 -2.55 4.35 -1.4 3.85 -1.1 3.55 -0.85 2.85 -0.6 1.1 -0.25 0.65 -0.15 -0.5 -0.15 -1.2 -0.55 -1.2 -0.95 -0.9 -1.2 -0.5 -1.15 0.0 -1.1 2.0 -1.5 2.9 -1.65 3.6 -2.0 4.8 -2.9 5.65 -3.8 6.15 -4.5 6.55 -5.8 M-5.35 -9.5 L-4.05 -10.0 -3.5 -10.15 -1.3 -10.15 -0.3 -10.1 0.5 -10.0 Q1.25 -9.85 1.85 -9.35 L2.1 -9.0 Q2.25 -8.75 2.0 -8.65 L1.55 -8.65 0.45 -9.1 -2.9 -9.15 -3.75 -9.0 -4.65 -8.6 -5.1 -8.3 -5.3 -8.05 Q-5.55 -7.75 -5.85 -8.05 L-6.05 -8.6 -5.75 -9.15 -5.35 -9.5 M3.95 -7.45 L3.4 -6.9 2.95 -6.55 1.5 -5.7 1.0 -5.5 0.4 -5.4 -1.1 -5.3 -1.3 -5.3 -1.8 -5.2 -2.45 -5.3 -2.9 -5.65 Q-3.0 -6.0 -2.75 -6.15 L-2.3 -6.15 -1.5 -6.3 -0.1 -6.35 Q0.6 -6.35 1.6 -6.8 L2.1 -7.05 2.9 -7.65 3.3 -8.05 3.8 -8.2 4.15 -7.85 3.95 -7.45 M-0.15 -3.85 L1.7 -4.15 3.45 -4.75 4.55 -5.8 4.8 -6.15 5.25 -6.25 5.4 -5.85 Q5.45 -5.15 4.65 -4.5 3.45 -3.55 1.3 -3.2 L-0.15 -3.05 Q-0.6 -3.05 -0.7 -3.35 -0.75 -3.7 -0.15 -3.85 M9.55 3.95 L9.3 4.0 9.25 3.6 9.25 3.25 9.6 1.9 9.7 1.2 9.8 -2.8 9.85 -3.15 10.1 -3.35 10.4 -3.0 10.55 0.55 10.5 1.3 9.95 3.65 9.75 3.9 9.55 3.95 M5.75 0.35 L5.35 0.45 5.15 0.25 5.2 0.0 5.6 -0.45 Q6.95 -1.5 8.25 -4.25 L8.55 -4.7 9.05 -4.8 9.3 -4.35 9.1 -3.85 8.1 -2.0 Q7.4 -0.95 6.5 -0.15 L5.75 0.35 M-5.95 -6.15 L-6.35 -6.3 Q-6.6 -6.4 -6.5 -6.65 -6.5 -6.95 -5.95 -6.95 L-4.35 -7.2 -3.4 -7.5 -2.65 -7.4 -2.35 -6.95 -2.65 -6.75 -4.45 -6.25 -5.95 -6.15 M-6.05 -3.55 L-8.3 -4.5 -8.65 -4.9 Q-8.75 -5.25 -8.5 -5.4 L-8.0 -5.3 -6.9 -4.8 -5.7 -4.4 -4.5 -4.3 -3.45 -3.95 -3.2 -3.75 Q-3.15 -3.55 -3.35 -3.45 -3.6 -3.2 -4.15 -3.3 L-5.0 -3.45 -6.05 -3.55 M-6.5 0.7 L-5.6 1.05 -4.05 1.3 0.05 1.35 1.1 1.25 1.8 1.05 2.8 1.1 2.25 1.75 0.3 2.25 -1.8 2.35 -5.6 2.0 Q-6.6 1.8 -7.6 1.2 L-8.55 0.45 -8.7 0.1 -8.55 -0.2 Q-8.4 -0.35 -8.15 -0.1 L-7.8 0.15 -7.4 0.3 -7.05 0.55 -6.5 0.7 M-4.2 -1.25 Q-4.05 -0.95 -4.65 -0.7 L-7.2 -0.55 Q-8.65 -1.0 -9.05 -2.25 L-9.1 -2.75 Q-9.0 -3.2 -8.5 -3.3 L-7.75 -3.0 -6.45 -2.0 Q-5.7 -1.5 -4.9 -1.5 L-4.2 -1.25 M2.9 3.65 L4.45 2.85 4.9 2.55 Q5.9 1.9 6.15 1.45 L6.45 0.85 7.0 0.55 Q7.2 0.55 7.3 0.7 L7.35 1.0 7.1 1.25 6.85 1.95 6.45 2.45 Q5.2 3.7 3.45 4.5 L2.75 4.75 1.95 4.8 0.25 5.3 -0.55 5.4 -1.5 5.6 -2.45 5.75 Q-3.2 5.75 -3.5 5.4 L-3.65 4.9 -3.35 4.45 -2.45 4.55 -1.65 4.45 -0.85 4.25 0.25 4.15 1.0 3.9 2.9 3.65 M-5.05 3.7 Q-4.8 3.85 -5.05 4.2 L-5.55 4.45 Q-6.7 4.7 -8.3 3.85 L-9.9 2.8 -9.9 2.45 -9.6 2.25 -8.85 2.45 -7.55 3.2 -5.5 3.6 -5.05 3.7 M-1.75 8.85 L-3.3 8.8 -3.9 8.7 -4.55 8.3 -6.85 7.15 -7.5 6.7 -7.8 6.15 -7.4 6.0 -7.15 6.1 -6.05 6.7 -5.1 7.15 -4.05 7.55 -2.45 7.85 -1.5 7.85 Q-1.3 7.95 -1.25 8.15 -1.35 8.7 -1.75 8.85 M5.55 5.5 L6.65 4.45 7.1 3.9 8.15 2.75 8.55 2.25 8.85 2.35 9.0 2.7 8.65 3.75 7.7 4.65 7.4 5.0 Q6.3 6.3 4.8 7.0 L2.15 7.85 1.55 7.95 0.55 7.95 0.2 7.9 0.0 7.6 0.2 7.35 2.45 6.9 Q4.2 6.4 5.1 5.85 L5.55 5.5 M3.85 8.9 L4.75 8.5 5.0 8.45 6.0 7.85 6.35 7.8 6.55 7.75 6.8 8.0 6.75 8.2 5.75 9.0 4.75 9.45 4.4 9.6 3.8 10.0 2.8 10.25 0.7 10.35 0.1 10.25 -0.1 9.95 0.0 9.65 0.35 9.6 0.95 9.7 1.7 9.5 2.1 9.45 2.95 9.45 3.85 8.9" fill="#eed8b3" fill-rule="evenodd" stroke="none"/>
    <path d="M4.05 -11.15 L6.8 -9.9 Q8.3 -9.25 9.05 -8.55 L10.4 -6.75 12.05 -4.25 Q12.75 -2.7 12.45 0.0 L11.95 3.2 11.3 5.9 10.45 7.55 9.3 9.2 6.8 11.3 4.7 12.4 0.0 12.7 Q-2.45 12.45 -4.2 11.8 L-7.7 9.95 Q-10.4 8.2 -11.6 5.0 -12.85 1.8 -12.0 -1.3 -11.4 -3.05 -11.35 -3.6 L-11.05 -6.1 Q-10.75 -7.25 -9.2 -9.0 L-7.5 -10.55 -6.6 -11.2 -6.2 -11.7 -5.05 -12.3 -0.2 -12.6 4.05 -11.15 M-7.15 8.9 L-5.25 10.0 -3.5 10.95 -0.15 11.65 4.1 11.45 5.7 10.65 Q7.3 9.8 8.15 8.9 L9.55 6.9 10.45 5.2 10.95 2.95 11.4 0.2 11.55 -1.95 Q11.4 -3.65 9.5 -6.25 L7.95 -8.05 6.05 -9.05 2.7 -10.45 Q0.5 -11.35 -0.55 -11.5 -2.75 -11.75 -5.25 -10.85 L-7.0 -9.9 -8.6 -8.3 Q-10.1 -6.5 -10.3 -5.35 L-10.45 -3.15 -11.05 -1.1 Q-11.85 1.65 -10.75 4.5 -9.6 7.35 -7.15 8.9" fill="#e7ca96" fill-rule="evenodd" stroke="none"/>
  </g>
</svg>
