<?xml version="1.0" encoding="UTF-8" standalone="no"?>
<svg xmlns:ffdec="https://www.free-decompiler.com/flash" xmlns:xlink="http://www.w3.org/1999/xlink" ffdec:objectType="shape" height="47.0px" width="47.0px" xmlns="http://www.w3.org/2000/svg">
  <g transform="matrix(1.0, 0.0, 0.0, 1.0, 0.0, 0.0)">
    <path d="M10.0 0.0 L37.0 0.0 Q47.0 0.0 47.0 10.0 L47.0 37.0 Q47.0 47.0 37.0 47.0 L10.0 47.0 Q0.0 47.0 0.0 37.0 L0.0 10.0 Q0.0 0.0 10.0 0.0 M10.0 2.5 Q2.5 2.5 2.5 10.0 L2.5 37.0 Q2.5 44.5 10.0 44.5 L37.0 44.5 Q44.5 44.5 44.5 37.0 L44.5 10.0 Q44.5 2.5 37.0 2.5 L10.0 2.5" fill="#f9ebbc" fill-rule="evenodd" stroke="none"/>
  </g>
</svg>
