<?xml version="1.0" encoding="UTF-8" standalone="no"?>
<svg xmlns:ffdec="https://www.free-decompiler.com/flash" xmlns:xlink="http://www.w3.org/1999/xlink" ffdec:objectType="shape" height="60.55px" width="72.85px" xmlns="http://www.w3.org/2000/svg">
  <g transform="matrix(1.0, 0.0, 0.0, 1.0, 36.45, 30.25)">
    <path d="M5.8 -28.4 Q3.95 -29.4 2.0 -29.5 M20.0 -27.4 Q18.55 -28.85 16.45 -29.15 M12.5 -29.1 Q10.4 -28.85 8.75 -27.75 M34.2 -0.45 L32.5 -4.05 M30.3 -7.35 L27.55 -10.25 M24.35 -12.85 L23.25 -13.5 23.65 -16.25 M23.25 -20.3 L22.75 -22.1 22.7 -22.15 22.0 -24.05 M-16.45 -28.35 Q-17.1 -28.8 -17.9 -28.85 L-21.75 -28.55 M-9.6 -29.0 L-10.0 -28.9 -9.95 -28.95 Q-11.95 -28.4 -13.3 -27.2 M-1.9 -28.8 L-2.65 -28.45 Q-4.1 -29.2 -5.7 -29.4 M-25.0 -26.35 L-26.7 -23.45 -27.1 -22.55 M-28.6 -18.55 Q-29.15 -16.55 -29.0 -14.6 M-28.15 -10.85 L-31.0 -8.2 M-33.3 -4.9 Q-34.3 -3.15 -34.9 -1.1 M-35.6 2.5 L-35.65 4.65 -35.6 6.45 M-35.6 10.5 L-35.7 12.6 -35.7 12.65 -35.5 14.65 M-33.7 18.3 L-31.25 21.45 M-5.05 29.55 L-4.15 29.45 -1.55 29.05 M-13.15 28.3 L-9.2 29.3 M-28.2 24.15 L-24.7 26.15 M-21.0 27.45 L-16.9 27.55 M31.0 21.95 L31.4 20.8 31.4 20.75 32.1 18.45 M33.55 14.7 L35.3 11.15 M35.65 7.3 L35.2 3.35 M1.75 27.35 L5.7 27.85 M9.75 27.35 Q11.65 28.15 13.55 28.55 M25.3 27.55 Q27.25 26.75 28.65 25.45 M17.55 29.0 L21.6 28.65" fill="none" stroke="#5fc5c9" stroke-linecap="round" stroke-linejoin="round" stroke-width="1.5"/>
  </g>
</svg>
