<?xml version="1.0" encoding="UTF-8" standalone="no"?>
<svg xmlns:ffdec="https://www.free-decompiler.com/flash" xmlns:xlink="http://www.w3.org/1999/xlink" ffdec:objectType="shape" height="75.4px" width="79.5px" xmlns="http://www.w3.org/2000/svg">
  <g transform="matrix(1.0, 0.0, 0.0, 1.0, 62.35, 43.75)">
    <path d="M-17.25 -39.1 L-17.15 -37.9 Q-20.3 -30.4 -21.65 -22.45 L-22.4 -19.7 -23.0 -18.25 Q-27.7 -29.9 -18.3 -39.5 L-18.25 -39.5 -18.05 -39.8 -17.3 -39.4 -17.25 -39.1 M13.2 -8.0 L12.85 -6.55 Q12.35 -15.5 8.15 -23.55 L7.8 -24.25 Q12.15 -19.5 12.8 -12.8 L13.2 -8.0 M8.8 -10.9 L8.6 -10.1 8.2 -10.3 Q6.35 -15.9 3.05 -20.4 8.2 -2.2 -0.15 13.5 2.65 0.3 0.05 -13.05 -1.9 -23.25 -7.25 -32.35 L-7.15 -32.9 -6.7 -33.05 Q-3.5 -32.0 -1.15 -29.4 L-3.1 -33.05 -3.05 -33.7 Q6.25 -28.85 8.25 -17.75 8.85 -14.4 8.8 -10.9 M-41.65 -40.55 L-37.6 -40.85 -36.0 -40.25 -36.4 -39.6 Q-42.45 -38.75 -45.8 -33.6 L-47.6 -30.65 -47.1 -32.6 Q-45.75 -38.85 -41.65 -40.55 M-33.3 -38.4 Q-38.65 -34.2 -42.95 -27.15 L-44.55 -23.95 Q-44.8 -29.2 -40.05 -33.8 -37.05 -36.75 -33.3 -38.4 M-24.85 -38.75 Q-33.4 -31.5 -32.45 -19.9 L-32.5 -19.75 Q-34.05 -20.1 -34.8 -21.65 -36.35 -24.75 -36.7 -28.4 -38.65 -25.85 -39.2 -22.75 -39.35 -22.0 -40.1 -21.65 L-40.4 -21.4 Q-40.6 -35.75 -25.5 -39.2 L-24.85 -38.75 M-9.25 -24.75 Q-7.4 -18.2 -8.55 -13.65 -9.7 -9.1 -9.7 -13.65 -9.7 -18.25 -14.25 -25.95 L-15.85 -19.5 Q-19.55 -27.9 -13.45 -34.9 -9.55 -29.05 -9.25 -24.75" fill="#ffffff" fill-rule="evenodd" stroke="none"/>
    <path d="M10.4 -25.75 L9.1 -26.35 11.25 -22.65 Q13.4 -19.45 13.8 -15.55 15.0 -3.5 11.7 8.15 L11.3 2.35 11.5 -2.4 Q12.35 -13.5 7.0 -22.65 L8.45 -17.7 Q12.3 -3.6 5.75 9.4 L7.25 3.45 Q8.45 -2.5 6.7 -7.9 7.3 0.0 5.25 7.35 2.05 18.6 -7.25 25.3 3.25 6.5 -2.45 -14.7 L-5.35 -25.05 Q-7.1 -30.95 -11.95 -32.95 -8.2 -29.45 -6.9 -20.75 -5.6 -12.1 -10.8 -3.1 -10.4 -11.3 -11.2 -14.1 L-12.4 -19.1 Q-12.8 -21.25 -13.65 -22.05 L-14.25 -20.0 -15.15 -17.05 Q-15.7 -15.55 -16.9 -14.8 L-17.95 -26.8 Q-18.15 -28.95 -17.5 -30.9 -19.4 -26.9 -20.4 -21.65 -21.2 -17.25 -24.75 -14.6 -24.3 -18.3 -25.55 -21.8 L-25.7 -22.25 -25.95 -24.5 -26.45 -25.0 Q-27.7 -32.0 -21.95 -36.55 -27.35 -35.05 -27.95 -29.0 -28.7 -20.95 -33.7 -15.35 -36.75 -17.5 -37.9 -21.6 L-39.7 -16.85 Q-42.9 -18.55 -42.55 -22.25 L-40.8 -28.1 -41.8 -26.6 Q-43.4 -23.8 -44.45 -20.6 -45.1 -18.6 -46.45 -16.85 -46.3 -18.9 -46.3 -20.9 -46.4 -31.65 -38.15 -36.9 -40.15 -36.45 -41.55 -35.25 -46.6 -30.85 -48.25 -24.15 -50.2 -16.4 -56.35 -13.85 -50.55 -17.85 -50.3 -25.4 -50.1 -32.95 -46.4 -41.1 -42.35 -43.5 -36.8 -43.7 -35.7 -43.6 -36.25 -42.2 L-36.4 -41.8 -30.25 -42.25 -29.2 -41.35 Q-29.1 -39.8 -30.4 -39.0 -24.1 -41.6 -18.25 -39.5 L-18.3 -39.5 Q-27.7 -29.9 -23.0 -18.25 L-22.4 -19.7 -21.65 -22.45 Q-20.3 -30.4 -17.15 -37.9 L-17.25 -39.1 -17.1 -39.05 Q-16.2 -38.7 -15.65 -37.45 L-15.45 -36.85 Q-11.25 -38.25 -7.05 -38.05 L-6.7 -37.7 -7.3 -35.05 Q3.55 -36.45 10.4 -25.75 M8.8 -10.9 Q8.85 -14.4 8.25 -17.75 6.25 -28.85 -3.05 -33.7 L-3.1 -33.05 -1.15 -29.4 Q-3.5 -32.0 -6.7 -33.05 L-7.15 -32.9 -7.25 -32.35 Q-1.9 -23.25 0.05 -13.05 2.65 0.3 -0.15 13.5 8.2 -2.2 3.05 -20.4 6.35 -15.9 8.2 -10.3 L8.6 -10.1 8.8 -10.9 M13.2 -8.0 L12.8 -12.8 Q12.15 -19.5 7.8 -24.25 L8.15 -23.55 Q12.35 -15.5 12.85 -6.55 L13.2 -8.0 M-33.3 -38.4 Q-37.05 -36.75 -40.05 -33.8 -44.8 -29.2 -44.55 -23.95 L-42.95 -27.15 Q-38.65 -34.2 -33.3 -38.4 M-41.65 -40.55 Q-45.75 -38.85 -47.1 -32.6 L-47.6 -30.65 -45.8 -33.6 Q-42.45 -38.75 -36.4 -39.6 L-36.0 -40.25 -37.6 -40.85 -41.65 -40.55 M-9.25 -24.75 Q-9.55 -29.05 -13.45 -34.9 -19.55 -27.9 -15.85 -19.5 L-14.25 -25.95 Q-9.7 -18.25 -9.7 -13.65 -9.7 -9.1 -8.55 -13.65 -7.4 -18.2 -9.25 -24.75 M-24.85 -38.75 L-25.5 -39.2 Q-40.6 -35.75 -40.4 -21.4 L-40.1 -21.65 Q-39.35 -22.0 -39.2 -22.75 -38.65 -25.85 -36.7 -28.4 -36.35 -24.75 -34.8 -21.65 -34.05 -20.1 -32.5 -19.75 L-32.45 -19.9 Q-33.4 -31.5 -24.85 -38.75" fill="#d1d1d1" fill-rule="evenodd" stroke="none"/>
    <path d="M11.7 8.15 Q15.0 -3.5 13.8 -15.55 13.4 -19.45 11.25 -22.65 L9.1 -26.35 10.4 -25.75 11.25 -24.7 Q14.85 -19.35 16.4 -12.85 L16.4 -11.0 Q17.1 0.8 12.1 11.2 L11.7 8.15 M-46.4 -41.1 Q-50.1 -32.95 -50.3 -25.4 -50.55 -17.85 -56.35 -13.85 -50.2 -16.4 -48.25 -24.15 -46.6 -30.85 -41.55 -35.25 -40.15 -36.45 -38.15 -36.9 -46.4 -31.65 -46.3 -20.9 -46.3 -18.9 -46.45 -16.85 -45.1 -18.6 -44.45 -20.6 -43.4 -23.8 -41.8 -26.6 L-40.8 -28.1 -42.55 -22.25 Q-42.9 -18.55 -39.7 -16.85 L-37.9 -21.6 Q-36.75 -17.5 -33.7 -15.35 -28.7 -20.95 -27.95 -29.0 -27.35 -35.05 -21.95 -36.55 -27.7 -32.0 -26.45 -25.0 L-27.15 -25.0 -28.45 -20.1 Q-29.2 -17.5 -30.6 -15.1 -32.05 -12.75 -34.4 -12.65 L-37.25 -16.75 -37.85 -16.1 -38.85 -14.85 -39.35 -14.35 -39.85 -13.9 -40.1 -13.7 -40.4 -13.65 -42.0 -17.1 -43.1 -17.15 -45.05 -15.3 -46.55 -14.3 -48.1 -13.6 -48.5 -16.6 -49.3 -17.1 Q-51.8 -15.6 -53.85 -13.6 -56.2 -11.35 -59.4 -12.3 -50.1 -20.05 -51.0 -29.25 -51.9 -38.5 -46.4 -41.1 M-25.7 -22.25 L-25.55 -21.8 Q-24.3 -18.3 -24.75 -14.6 -21.2 -17.25 -20.4 -21.65 -19.4 -26.9 -17.5 -30.9 -18.15 -28.95 -17.95 -26.8 L-16.9 -14.8 Q-15.7 -15.55 -15.15 -17.05 L-14.25 -20.0 -13.65 -22.05 Q-12.8 -21.25 -12.4 -19.1 L-11.2 -14.1 Q-10.4 -11.3 -10.8 -3.1 -5.6 -12.1 -6.9 -20.75 -8.2 -29.45 -11.95 -32.95 -7.1 -30.95 -5.35 -25.05 L-2.45 -14.7 Q3.25 6.5 -7.25 25.3 2.05 18.6 5.25 7.35 7.3 0.0 6.7 -7.9 8.45 -2.5 7.25 3.45 L5.75 9.4 Q12.3 -3.6 8.45 -17.7 L7.0 -22.65 Q12.35 -13.5 11.5 -2.4 L11.3 2.35 10.1 -6.0 Q11.15 7.75 3.3 18.85 -2.15 26.55 -11.25 29.65 -2.7 19.35 -2.75 5.8 -2.8 -7.05 -5.8 -19.55 L-5.75 -11.85 Q-5.65 -4.6 -12.45 6.35 -11.25 -1.1 -11.55 -6.25 -11.85 -11.5 -12.35 -13.2 -12.9 -14.95 -14.25 -16.25 L-14.6 -15.85 -15.65 -14.6 -16.0 -14.2 -16.65 -13.7 -17.15 -13.25 -17.35 -13.2 -17.45 -13.3 -18.05 -15.45 -18.85 -17.1 -19.85 -18.5 -20.25 -18.1 Q-21.3 -16.55 -22.5 -15.3 -24.05 -13.7 -25.95 -12.65 L-25.8 -13.35 Q-25.35 -17.75 -25.7 -22.25" fill="#989898" fill-rule="evenodd" stroke="none"/>
    <path d="M-36.8 -43.7 Q-42.35 -43.5 -46.4 -41.1 -51.9 -38.5 -51.0 -29.25 -50.1 -20.05 -59.4 -12.3 -56.2 -11.35 -53.85 -13.6 -51.8 -15.6 -49.3 -17.1 L-48.5 -16.6 -48.1 -13.6 -46.55 -14.3 -45.05 -15.3 -43.1 -17.15 -42.0 -17.1 -40.4 -13.65 -40.1 -13.7 -39.85 -13.9 -39.35 -14.35 -38.85 -14.85 -37.85 -16.1 -37.25 -16.75 -34.4 -12.65 Q-32.05 -12.75 -30.6 -15.1 -29.2 -17.5 -28.45 -20.1 L-27.15 -25.0 -26.45 -25.0 -25.95 -24.5 -25.7 -22.25 Q-25.35 -17.75 -25.8 -13.35 L-25.95 -12.65 Q-24.05 -13.7 -22.5 -15.3 -21.3 -16.55 -20.25 -18.1 L-19.85 -18.5 -18.85 -17.1 -18.05 -15.45 -17.45 -13.3 -17.35 -13.2 -17.15 -13.25 -16.65 -13.7 -16.0 -14.2 -15.65 -14.6 -14.6 -15.85 -14.25 -16.25 Q-12.9 -14.95 -12.35 -13.2 -11.85 -11.5 -11.55 -6.25 -11.25 -1.1 -12.45 6.35 -5.65 -4.6 -5.75 -11.85 L-5.8 -19.55 Q-2.8 -7.05 -2.75 5.8 -2.7 19.35 -11.25 29.65 -2.15 26.55 3.3 18.85 11.15 7.75 10.1 -6.0 L11.3 2.35 11.7 8.15 12.1 11.2 Q17.1 0.8 16.4 -11.0 L16.4 -12.85 Q18.75 -0.3 13.65 11.15 12.9 12.9 11.4 13.7 L11.3 13.2 Q10.35 9.4 10.35 7.75 7.25 18.0 -0.7 25.05 -6.6 30.35 -13.95 31.65 -4.8 20.15 -4.0 5.55 -3.55 -2.3 -4.9 -8.9 -4.9 -6.4 -6.55 -1.7 -9.15 5.6 -13.45 9.6 L-12.8 -4.05 Q-13.1 -13.2 -14.2 -14.65 L-15.8 -12.85 Q-16.3 -12.35 -16.9 -12.05 L-18.1 -11.55 -19.8 -16.6 Q-20.45 -15.3 -21.4 -14.4 L-23.5 -12.8 Q-25.2 -11.85 -27.1 -11.25 L-27.55 -11.7 -26.85 -20.8 Q-27.5 -17.55 -29.55 -14.8 -31.5 -12.15 -34.4 -11.3 L-34.85 -11.5 -35.45 -12.05 -36.0 -12.65 -36.7 -13.7 -37.3 -14.85 -38.55 -13.6 -39.2 -13.1 -39.9 -12.6 -40.5 -12.25 -41.2 -12.15 -42.55 -15.65 Q-43.35 -14.2 -44.95 -13.3 -46.2 -12.55 -47.6 -12.25 L-48.95 -12.05 -49.5 -15.15 Q-52.95 -11.85 -55.15 -11.2 -57.4 -10.6 -62.35 -11.95 -52.6 -17.65 -52.65 -30.65 -52.7 -43.7 -37.05 -43.75 L-36.8 -43.7" fill="#606060" fill-rule="evenodd" stroke="none"/>
  </g>
</svg>
