<?xml version="1.0" encoding="UTF-8" standalone="no"?>
<svg xmlns:ffdec="https://www.free-decompiler.com/flash" xmlns:xlink="http://www.w3.org/1999/xlink" ffdec:objectType="shape" height="133.8px" width="98.8px" xmlns="http://www.w3.org/2000/svg">
  <g transform="matrix(1.0, 0.0, 0.0, 1.0, 50.75, 50.9)">
    <path d="M-28.7 -25.35 Q-31.05 -28.1 -31.05 -30.4 -31.05 -32.55 -27.95 -34.95 L-27.25 -35.45 -26.05 -36.2 Q-22.5 -38.35 -18.55 -38.35 L-16.5 -37.95 -16.15 -37.75 -17.35 -37.4 -20.75 -36.1 Q-24.8 -34.1 -24.8 -30.55 L-24.35 -29.95 -24.05 -29.5 -23.2 -28.5 Q-21.3 -26.5 -19.65 -26.5 -17.65 -26.5 -16.8 -28.2 L-16.55 -28.85 -16.15 -29.85 Q-15.6 -31.35 -14.75 -32.45 L-13.15 -34.2 -11.35 -35.1 -6.8 -36.7 Q-0.8 -38.65 1.5 -38.5 L6.25 -38.55 11.2 -38.4 12.45 -38.15 12.45 -37.85 Q12.3 -37.7 12.6 -37.65 L12.35 -37.4 10.2 -36.95 9.05 -36.8 Q5.55 -36.2 0.5 -34.3 L-4.5 -32.2 -4.55 -32.15 -5.4 -31.4 -6.45 -29.75 -7.25 -27.2 -5.85 -27.05 -3.05 -28.7 Q-2.2 -29.15 -1.3 -29.55 L0.95 -30.5 3.4 -31.35 5.6 -31.75 6.3 -31.7 6.25 -31.6 5.3 -30.2 4.05 -28.95 1.85 -26.85 1.3 -26.35 3.0 -26.25 9.05 -26.3 14.2 -26.35 14.65 -25.75 11.9 -24.05 11.05 -23.55 9.1 -22.65 10.25 -21.35 9.9 -21.35 Q12.45 -17.0 12.75 -11.55 L13.0 9.1 12.8 11.45 12.3 9.65 Q11.05 4.65 11.6 -0.6 L11.65 -1.4 Q12.55 -8.95 8.65 -15.4 L8.5 -15.65 Q7.35 -17.45 5.8 -18.85 4.3 -20.25 2.45 -21.25 L2.3 -21.35 1.9 -21.35 1.75 -21.35 0.8 -21.85 Q-10.5 -27.8 -28.7 -25.35 M17.8 8.55 Q18.35 -4.3 15.25 -17.6 20.2 -12.55 21.5 5.7 22.8 23.9 22.55 26.4 L22.0 29.75 Q17.2 21.35 17.8 8.55 M14.8 39.5 L15.25 28.8 15.55 22.0 Q18.05 25.55 18.9 31.95 19.55 36.3 19.35 41.45 L19.1 55.2 Q18.55 61.7 21.2 67.05 23.75 72.3 27.75 73.25 26.45 74.15 26.45 74.7 L23.85 74.95 Q21.15 74.95 18.0 71.7 13.7 67.3 13.7 59.75 14.1 56.0 14.6 41.45 L14.8 39.5" fill="#ffffff" fill-rule="evenodd" stroke="none"/>
    <path d="M-40.35 -27.65 L-38.3 -27.6 -39.9 -29.35 Q-41.0 -30.75 -41.0 -32.75 -41.0 -34.0 -40.6 -35.1 -39.2 -39.1 -32.75 -41.35 -26.65 -43.55 -15.25 -44.45 L-4.75 -45.0 -2.6 -45.0 -2.6 -44.1 -1.6 -44.1 Q-3.5 -43.95 -7.15 -42.6 -11.55 -40.95 -12.5 -39.9 L-12.4 -39.75 -11.8 -38.95 -11.0 -38.5 -6.55 -40.55 -6.0 -40.75 Q-1.4 -42.6 4.75 -42.6 L4.95 -42.6 Q6.35 -42.4 11.35 -39.65 16.5 -36.85 17.8 -35.55 L13.95 -35.35 13.5 -34.65 Q14.05 -34.2 15.85 -33.9 L18.35 -33.65 18.65 -33.65 19.15 -33.25 17.2 -32.35 15.55 -31.6 14.45 -30.95 Q13.15 -30.15 12.75 -29.4 L12.85 -28.8 13.75 -28.75 15.55 -29.15 16.4 -29.35 17.85 -29.65 18.15 -29.7 19.15 -29.85 20.5 -30.0 Q21.65 -30.0 22.3 -29.3 L23.8 -27.05 Q22.95 -26.3 21.8 -25.9 L21.55 -25.85 20.85 -25.55 Q20.35 -25.3 19.8 -24.85 L18.25 -23.5 18.3 -23.0 18.4 -22.85 19.25 -22.75 20.4 -22.95 21.45 -23.2 22.0 -23.35 23.1 -23.55 23.65 -23.65 24.6 -23.5 25.0 -23.05 24.0 -21.8 23.5 -21.35 Q29.0 -16.25 28.85 -2.75 28.65 10.75 27.85 17.75 26.95 25.7 25.45 29.5 25.35 24.85 26.2 15.85 26.95 7.45 26.95 0.85 26.95 -9.0 24.65 -16.6 23.9 -19.05 20.85 -21.35 23.9 -9.85 23.9 8.35 23.9 13.55 23.15 28.6 L22.4 41.45 22.35 52.25 Q22.35 54.35 24.15 59.95 26.1 65.8 27.75 68.15 28.25 68.85 29.3 69.15 L34.9 69.8 Q33.5 72.2 30.65 74.2 27.7 76.3 24.65 76.95 L23.1 77.2 24.0 77.65 27.45 78.05 29.2 79.9 Q22.95 79.8 18.4 76.15 13.6 72.25 12.3 65.55 L12.95 41.45 13.25 34.0 Q14.35 24.4 14.35 20.05 14.35 16.35 13.95 12.25 13.3 14.55 12.5 31.4 L10.25 34.15 11.5 22.65 11.55 22.1 11.5 22.45 Q11.85 17.7 11.7 15.95 L10.85 8.95 10.6 7.1 10.0 2.95 9.6 0.45 9.55 0.25 8.6 -5.1 6.45 -13.35 4.95 -17.65 4.9 -17.8 4.8 -18.0 2.85 -20.3 2.7 -20.45 1.9 -21.35 2.3 -21.35 2.45 -21.25 Q4.3 -20.25 5.8 -18.85 7.35 -17.45 8.5 -15.65 L8.65 -15.4 Q12.55 -8.95 11.65 -1.4 L11.6 -0.6 Q11.05 4.65 12.3 9.65 L12.8 11.45 13.0 9.1 12.75 -11.55 Q12.45 -17.0 9.9 -21.35 L10.25 -21.35 9.1 -22.65 11.05 -23.55 11.9 -24.05 14.65 -25.75 14.2 -26.35 9.05 -26.3 3.0 -26.25 1.3 -26.35 1.85 -26.85 4.05 -28.95 5.3 -30.2 6.25 -31.6 6.3 -31.7 5.6 -31.75 3.4 -31.35 0.95 -30.5 -1.3 -29.55 Q-2.2 -29.15 -3.05 -28.7 L-5.85 -27.05 -7.25 -27.2 -6.45 -29.75 -5.4 -31.4 -4.55 -32.15 -4.5 -32.2 0.5 -34.3 Q5.55 -36.2 9.05 -36.8 L10.2 -36.95 12.35 -37.4 12.6 -37.65 Q12.3 -37.7 12.45 -37.85 L12.45 -38.15 11.2 -38.4 6.25 -38.55 1.5 -38.5 Q-0.8 -38.65 -6.8 -36.7 L-11.35 -35.1 -13.15 -34.2 -14.75 -32.45 Q-15.6 -31.35 -16.15 -29.85 L-16.55 -28.85 -16.8 -28.2 Q-17.65 -26.5 -19.65 -26.5 -21.3 -26.5 -23.2 -28.5 L-24.05 -29.5 -24.35 -29.95 -24.8 -30.55 Q-24.8 -34.1 -20.75 -36.1 L-17.35 -37.4 -16.15 -37.75 -16.5 -37.95 -18.55 -38.35 Q-22.5 -38.35 -26.05 -36.2 L-27.25 -35.45 -27.95 -34.95 Q-31.05 -32.55 -31.05 -30.4 -31.05 -28.1 -28.7 -25.35 L-31.4 -25.4 -30.95 -25.85 -30.8 -25.95 Q-31.75 -26.7 -33.6 -29.2 -35.3 -31.6 -35.65 -32.5 L-36.05 -33.55 Q-36.55 -32.65 -36.55 -31.6 L-36.2 -27.35 -40.35 -27.65 M39.4 65.4 Q30.3 66.15 27.3 62.05 24.3 57.95 25.75 37.25 27.1 64.8 33.2 62.6 33.95 63.35 38.6 63.35 L41.9 62.45 46.2 61.55 45.6 63.6 Q44.2 64.9 40.95 65.35 L40.45 65.25 39.4 65.4 M1.75 -21.35 L0.95 -21.15 0.8 -21.85 1.75 -21.35 M14.8 39.5 L14.6 41.45 Q14.1 56.0 13.7 59.75 13.7 67.3 18.0 71.7 21.15 74.95 23.85 74.95 L26.45 74.7 Q26.45 74.15 27.75 73.25 23.75 72.3 21.2 67.05 18.55 61.7 19.1 55.2 L19.35 41.45 Q19.55 36.3 18.9 31.95 18.05 25.55 15.55 22.0 L15.25 28.8 14.8 39.5 M17.8 8.55 Q17.2 21.35 22.0 29.75 L22.55 26.4 Q22.8 23.9 21.5 5.7 20.2 -12.55 15.25 -17.6 18.35 -4.3 17.8 8.55 M-44.4 -35.5 L-44.55 -36.05 Q-44.85 -39.6 -37.65 -42.4 -30.2 -45.35 -19.75 -45.5 L-19.3 -45.55 Q-19.15 -45.6 -19.15 -45.0 L-19.2 -44.15 -19.3 -44.1 Q-35.15 -43.6 -40.0 -39.9 -41.1 -39.05 -42.35 -37.2 -43.25 -35.8 -44.4 -35.5" fill="#d1d1d1" fill-rule="evenodd" stroke="none"/>
    <path d="M27.75 68.15 Q26.1 65.8 24.15 59.95 22.35 54.35 22.35 52.25 L22.4 41.45 23.15 28.6 Q23.9 13.55 23.9 8.35 23.9 -9.85 20.85 -21.35 23.9 -19.05 24.65 -16.6 26.95 -9.0 26.95 0.85 26.95 7.45 26.2 15.85 25.35 24.85 25.45 29.5 26.95 25.7 27.85 17.75 28.65 10.75 28.85 -2.75 29.0 -16.25 23.5 -21.35 L24.0 -21.8 25.0 -23.05 24.6 -23.5 23.65 -23.65 23.1 -23.55 22.0 -23.35 21.45 -23.2 20.4 -22.95 19.25 -22.75 18.4 -22.85 18.3 -23.0 18.25 -23.5 19.8 -24.85 Q20.35 -25.3 20.85 -25.55 L21.55 -25.85 21.8 -25.9 Q22.95 -26.3 23.8 -27.05 L22.3 -29.3 Q21.65 -30.0 20.5 -30.0 L19.15 -29.85 18.15 -29.7 17.85 -29.65 16.4 -29.35 15.55 -29.15 13.75 -28.75 12.85 -28.8 12.75 -29.4 Q13.15 -30.15 14.45 -30.95 L15.55 -31.6 17.2 -32.35 19.15 -33.25 18.65 -33.65 18.35 -33.65 15.85 -33.9 Q14.05 -34.2 13.5 -34.65 L13.95 -35.35 17.8 -35.55 Q16.5 -36.85 11.35 -39.65 6.35 -42.4 4.95 -42.6 L4.75 -42.6 Q-1.4 -42.6 -6.0 -40.75 L-6.55 -40.55 -11.0 -38.5 -11.8 -38.95 -12.4 -39.75 -12.5 -39.9 Q-11.55 -40.95 -7.15 -42.6 -3.5 -43.95 -1.6 -44.1 L-2.6 -44.1 -2.6 -45.0 -4.75 -45.0 -15.25 -44.45 Q-26.65 -43.55 -32.75 -41.35 -39.2 -39.1 -40.6 -35.1 -41.0 -34.0 -41.0 -32.75 -41.0 -30.75 -39.9 -29.35 L-38.3 -27.6 -40.35 -27.65 Q-41.9 -28.1 -42.9 -30.35 L-44.0 -33.25 -44.8 -31.55 Q-45.3 -29.95 -44.65 -28.1 -46.65 -28.2 -48.0 -30.25 -49.25 -32.25 -49.25 -35.05 -49.25 -40.1 -41.05 -44.1 L-39.55 -44.8 Q-31.65 -48.2 -20.5 -48.5 L-18.35 -48.55 Q-3.0 -48.55 9.4 -42.65 18.35 -38.4 21.7 -33.85 26.25 -27.65 28.2 -21.35 31.05 -15.5 31.05 -8.6 31.05 -0.4 29.3 16.9 L27.5 32.65 Q27.5 37.7 28.35 41.45 30.5 58.85 34.6 60.6 38.65 62.35 41.95 61.65 45.25 60.95 46.25 59.35 L46.2 61.55 41.9 62.45 38.6 63.35 Q33.95 63.35 33.2 62.6 27.1 64.8 25.75 37.25 24.3 57.95 27.3 62.05 30.3 66.15 39.4 65.4 38.1 66.25 35.15 67.25 L31.3 68.25 Q30.7 68.25 29.3 67.4 L27.65 66.4 27.15 66.5 27.75 68.15 M-36.2 -27.35 L-36.55 -31.6 Q-36.55 -32.65 -36.05 -33.55 L-35.65 -32.5 Q-35.3 -31.6 -33.6 -29.2 -31.75 -26.7 -30.8 -25.95 L-30.95 -25.85 -31.4 -25.4 Q-33.0 -25.4 -33.45 -25.85 L-32.65 -26.5 -35.5 -27.3 -36.2 -27.35 M1.9 -21.35 L2.7 -20.45 2.85 -20.3 4.8 -18.0 4.9 -17.8 4.95 -17.65 6.45 -13.35 8.6 -5.1 9.55 0.25 6.25 -8.75 6.2 -8.8 6.2 -8.85 5.95 -9.9 5.55 -11.45 4.4 -15.3 3.3 -18.15 1.75 -21.35 1.9 -21.35 M12.5 31.4 Q13.3 14.55 13.95 12.25 14.35 16.35 14.35 20.05 14.35 24.4 13.25 34.0 L12.5 31.4 M12.3 65.55 Q13.6 72.25 18.4 76.15 22.95 79.8 29.2 79.9 27.8 80.85 26.2 80.85 19.0 80.85 15.65 77.1 12.4 73.45 12.3 65.55 M27.45 78.05 L24.0 77.65 23.1 77.2 24.65 76.95 Q27.7 76.3 30.65 74.2 33.5 72.2 34.9 69.8 L37.9 68.5 Q36.2 72.6 34.2 74.15 31.8 76.05 26.95 76.3 L27.45 78.05 M45.6 63.6 Q45.15 64.65 42.9 67.3 40.6 70.0 39.7 70.5 L38.45 71.05 40.0 68.45 Q40.8 66.8 40.95 65.35 44.2 64.9 45.6 63.6 M-44.4 -35.5 Q-43.25 -35.8 -42.35 -37.2 -41.1 -39.05 -40.0 -39.9 -35.15 -43.6 -19.3 -44.1 L-19.2 -44.15 -19.15 -45.0 Q-19.15 -45.6 -19.3 -45.55 L-19.75 -45.5 Q-30.2 -45.35 -37.65 -42.4 -44.85 -39.6 -44.55 -36.05 L-44.4 -35.5" fill="#989898" fill-rule="evenodd" stroke="none"/>
    <path d="M27.75 68.15 L27.15 66.5 27.65 66.4 29.3 67.4 Q30.7 68.25 31.3 68.25 L35.15 67.25 Q38.1 66.25 39.4 65.4 L40.45 65.25 40.95 65.35 Q40.8 66.8 40.0 68.45 L38.45 71.05 39.7 70.5 Q40.6 70.0 42.9 67.3 45.15 64.65 45.6 63.6 L46.2 61.55 46.25 59.35 Q45.25 60.95 41.95 61.65 38.65 62.35 34.6 60.6 30.5 58.85 28.35 41.45 27.5 37.7 27.5 32.65 L29.3 16.9 Q31.05 -0.4 31.05 -8.6 31.05 -15.5 28.2 -21.35 26.25 -27.65 21.7 -33.85 18.35 -38.4 9.4 -42.65 -3.0 -48.55 -18.35 -48.55 L-20.5 -48.5 Q-31.65 -48.2 -39.55 -44.8 L-41.05 -44.1 Q-49.25 -40.1 -49.25 -35.05 -49.25 -32.25 -48.0 -30.25 -46.65 -28.2 -44.65 -28.1 -45.3 -29.95 -44.8 -31.55 L-44.0 -33.25 -42.9 -30.35 Q-41.9 -28.1 -40.35 -27.65 L-36.2 -27.35 -35.5 -27.3 -32.65 -26.5 -33.45 -25.85 Q-43.05 -25.65 -46.2 -26.85 -50.75 -28.65 -50.75 -34.9 -50.75 -40.55 -44.4 -44.05 -37.85 -47.7 -23.0 -50.05 L-21.8 -50.1 -11.35 -50.9 Q-1.75 -50.9 6.95 -46.7 13.05 -43.7 19.4 -38.3 L20.5 -37.6 23.25 -34.85 25.25 -32.9 Q30.95 -22.8 31.15 -21.9 L32.2 -16.6 32.65 -12.75 Q32.65 -6.8 31.0 11.25 29.35 29.35 29.35 31.95 L29.65 37.0 30.0 41.45 Q30.8 53.85 33.85 57.25 36.9 60.65 39.25 60.75 L40.4 60.6 40.6 60.6 Q41.5 60.45 43.4 59.15 45.75 57.5 46.35 55.75 48.15 57.5 48.05 61.3 48.05 63.9 45.9 67.0 43.5 70.4 39.8 72.25 L35.15 75.75 Q32.35 77.95 29.6 77.85 L32.2 78.9 31.7 79.6 Q30.3 81.0 27.45 82.05 25.15 82.9 24.05 82.9 17.25 82.9 13.8 77.6 10.4 72.35 10.4 62.15 10.85 56.05 11.15 41.45 11.3 38.3 11.85 34.45 L9.55 36.55 9.45 33.35 Q9.45 26.55 10.2 20.15 L10.25 19.9 10.4 18.35 9.4 9.7 8.95 6.45 8.7 4.75 Q7.55 -3.0 6.25 -8.7 L6.2 -8.8 6.25 -8.75 9.55 0.25 9.6 0.45 10.0 2.95 10.6 7.1 10.85 8.95 11.7 15.95 Q11.85 17.7 11.5 22.45 L11.55 22.1 11.5 22.65 10.25 34.15 12.5 31.4 13.25 34.0 12.95 41.45 12.3 65.55 Q12.4 73.45 15.65 77.1 19.0 80.85 26.2 80.85 27.8 80.85 29.2 79.9 L27.45 78.05 26.95 76.3 Q31.8 76.05 34.2 74.15 36.2 72.6 37.9 68.5 L34.9 69.8 29.3 69.15 Q28.25 68.85 27.75 68.15" fill="#606060" fill-rule="evenodd" stroke="none"/>
  </g>
</svg>
