<?xml version="1.0" encoding="UTF-8" standalone="no"?>
<svg xmlns:ffdec="https://www.free-decompiler.com/flash" xmlns:xlink="http://www.w3.org/1999/xlink" ffdec:objectType="shape" height="46.3px" width="74.35px" xmlns="http://www.w3.org/2000/svg">
  <g transform="matrix(1.0, 0.0, 0.0, 1.0, 49.35, 31.55)">
    <path d="M8.65 3.75 Q7.85 2.25 7.85 1.25 7.85 -0.8 9.1 -5.85 L10.35 -11.65 Q10.35 -13.25 8.4 -15.8 L8.2 -16.05 Q12.85 -12.65 16.4 -8.9 L16.05 -8.65 12.35 -5.75 Q14.0 -5.75 16.45 -6.7 L17.9 -7.25 18.45 -6.6 19.1 -5.85 16.1 -2.2 Q12.05 2.3 8.65 3.75 M-30.9 -31.3 L-24.7 -30.4 -23.2 -28.5 Q-21.3 -26.5 -19.65 -26.5 -17.6 -26.5 -16.75 -28.35 -12.35 -26.95 -7.8 -24.95 -16.8 -26.95 -28.7 -25.35 -31.05 -28.1 -31.05 -30.4 L-30.9 -31.3" fill="#ffffff" fill-rule="evenodd" stroke="none"/>
    <path d="M16.4 -8.9 L17.9 -7.25 16.45 -6.7 Q14.0 -5.75 12.35 -5.75 L16.05 -8.65 16.4 -8.9 M19.1 -5.85 L19.95 -4.7 21.0 -3.25 18.25 -1.15 18.45 -0.65 19.35 -0.5 Q20.35 -0.3 22.05 -1.5 L23.8 2.1 22.5 3.6 Q21.3 5.1 14.35 5.1 12.45 5.1 8.95 4.1 L8.65 3.75 Q12.05 2.3 16.1 -2.2 L19.1 -5.85 M-40.35 -27.65 L-38.3 -27.6 -39.9 -29.35 Q-40.55 -30.2 -40.8 -31.3 L-37.45 -31.5 -36.55 -31.5 -36.2 -27.35 -40.35 -27.65 M-35.15 -31.5 L-30.9 -31.3 -31.05 -30.4 Q-31.05 -28.1 -28.7 -25.35 L-31.4 -25.4 -30.95 -25.85 -30.8 -25.95 Q-31.75 -26.7 -33.6 -29.2 L-35.15 -31.5 M-24.7 -30.4 L-16.75 -28.35 Q-17.6 -26.5 -19.65 -26.5 -21.3 -26.5 -23.2 -28.5 L-24.7 -30.4" fill="#d1d1d1" fill-rule="evenodd" stroke="none"/>
    <path d="M21.0 -3.25 L22.05 -1.5 Q20.35 -0.3 19.35 -0.5 L18.45 -0.65 18.25 -1.15 21.0 -3.25 M23.8 2.1 L24.85 5.9 25.0 7.5 Q25.05 9.85 24.35 12.1 L22.75 12.75 20.7 9.85 Q18.95 7.7 18.3 7.55 17.9 7.75 17.75 8.35 L13.15 6.25 Q9.55 4.65 8.95 4.1 12.45 5.1 14.35 5.1 21.3 5.1 22.5 3.6 L23.8 2.1 M-43.15 -31.0 L-40.8 -31.3 Q-40.55 -30.2 -39.9 -29.35 L-38.3 -27.6 -40.35 -27.65 Q-41.9 -28.1 -42.9 -30.35 L-43.15 -31.0 M-36.55 -31.5 L-35.15 -31.5 -33.6 -29.2 Q-31.75 -26.7 -30.8 -25.95 L-30.95 -25.85 -31.4 -25.4 Q-33.0 -25.4 -33.45 -25.85 L-32.65 -26.5 -35.5 -27.3 -36.2 -27.35 -36.55 -31.5 M-47.8 -29.95 L-44.95 -30.65 Q-45.15 -29.45 -44.65 -28.1 -46.5 -28.2 -47.8 -29.95" fill="#989898" fill-rule="evenodd" stroke="none"/>
    <path d="M24.35 12.1 L23.75 13.65 23.4 14.3 22.25 14.75 Q21.6 14.75 21.3 14.45 L20.9 13.85 20.75 13.25 Q20.6 12.15 19.4 10.35 18.35 8.7 17.75 8.35 17.9 7.75 18.3 7.55 18.95 7.7 20.7 9.85 L22.75 12.75 24.35 12.1 M-43.15 -31.0 L-42.9 -30.35 Q-41.9 -28.1 -40.35 -27.65 L-36.2 -27.35 -35.5 -27.3 -32.65 -26.5 -33.45 -25.85 Q-43.05 -25.65 -46.2 -26.85 -48.25 -27.65 -49.35 -29.35 L-48.1 -29.85 -47.8 -29.95 Q-46.5 -28.2 -44.65 -28.1 -45.15 -29.45 -44.95 -30.65 L-43.15 -31.0" fill="#606060" fill-rule="evenodd" stroke="none"/>
  </g>
</svg>
