<?xml version="1.0" encoding="UTF-8" standalone="no"?>
<svg xmlns:ffdec="https://www.free-decompiler.com/flash" xmlns:xlink="http://www.w3.org/1999/xlink" ffdec:objectType="shape" height="89.3px" width="38.9px" xmlns="http://www.w3.org/2000/svg">
  <g transform="matrix(1.0, 0.0, 0.0, 1.0, -17.9, 34.2)">
    <path d="M22.3 -24.45 Q25.0 -23.9 27.4 -20.9 31.0 -16.55 31.15 -9.35 L31.1 -9.35 29.35 -9.5 Q29.05 -9.9 28.25 -11.95 26.05 -17.6 22.4 -23.05 L22.3 -24.45 M34.3 -21.4 Q32.35 -23.45 29.3 -25.6 33.15 -24.75 35.25 -23.05 37.8 -21.0 38.5 -17.3 L38.65 -12.85 Q37.9 -17.65 34.3 -21.4" fill="#ffffff" fill-rule="evenodd" stroke="none"/>
    <path d="M30.65 -28.7 Q36.2 -29.05 39.9 -26.95 44.75 -24.2 44.4 -19.4 43.2 -19.65 39.2 -22.75 35.3 -25.8 33.65 -25.95 39.2 -24.65 42.0 -15.7 43.45 -11.05 44.3 -5.8 39.75 -6.2 36.35 -12.7 L34.05 -17.35 Q32.7 -19.6 31.35 -19.95 35.95 -7.35 35.3 -7.2 34.7 -7.05 34.65 -5.65 L34.7 -4.3 Q29.9 -3.75 26.3 -9.15 24.55 -11.65 23.2 -14.6 L22.4 -23.05 Q26.05 -17.6 28.25 -11.95 29.05 -9.9 29.35 -9.5 L31.1 -9.35 31.15 -9.35 Q31.0 -16.55 27.4 -20.9 25.0 -23.9 22.3 -24.45 L22.2 -25.35 26.1 -27.0 30.65 -28.7 M24.15 -3.7 L24.2 -3.55 Q25.55 1.35 26.2 2.8 L24.65 1.7 24.15 -3.7 M34.3 -21.4 Q37.9 -17.65 38.65 -12.85 L38.5 -17.3 Q37.8 -21.0 35.25 -23.05 33.15 -24.75 29.3 -25.6 32.35 -23.45 34.3 -21.4 M45.35 -7.75 Q44.4 -9.1 44.25 -11.0 44.1 -12.3 44.55 -13.7 L48.85 -6.8 Q46.65 -5.65 45.35 -7.75" fill="#d1d1d1" fill-rule="evenodd" stroke="none"/>
    <path d="M30.65 -28.7 L33.75 -29.75 35.85 -32.05 42.0 -31.55 43.55 -30.05 Q47.15 -26.0 48.1 -21.1 49.0 -16.2 49.0 -13.45 49.05 -10.65 49.8 -8.75 50.65 -6.85 54.2 -3.7 L46.5 -3.5 Q43.05 -4.25 36.6 -8.95 35.75 -8.15 35.9 -6.25 L36.5 -4.15 36.7 -3.6 37.7 -1.5 35.55 -1.55 Q32.4 -1.9 29.35 -3.5 L25.95 -5.55 25.15 -5.2 25.05 -5.0 25.2 -0.95 25.75 1.3 26.2 2.8 Q25.55 1.35 24.2 -3.55 L24.15 -3.7 24.15 -3.8 23.2 -14.6 Q24.55 -11.65 26.3 -9.15 29.9 -3.75 34.7 -4.3 L34.65 -5.65 Q34.7 -7.05 35.3 -7.2 35.95 -7.35 31.35 -19.95 32.7 -19.6 34.05 -17.35 L36.35 -12.7 Q39.75 -6.2 44.3 -5.8 43.45 -11.05 42.0 -15.7 39.2 -24.65 33.65 -25.95 35.3 -25.8 39.2 -22.75 43.2 -19.65 44.4 -19.4 44.75 -24.2 39.9 -26.95 36.2 -29.05 30.65 -28.7 M45.35 -7.75 Q46.65 -5.65 48.85 -6.8 L44.55 -13.7 Q44.1 -12.3 44.25 -11.0 44.4 -9.1 45.35 -7.75" fill="#989898" fill-rule="evenodd" stroke="none"/>
    <path d="M26.2 2.8 L25.75 1.3 25.2 -0.95 25.05 -5.0 25.15 -5.2 25.95 -5.55 29.35 -3.5 Q32.4 -1.9 35.55 -1.55 L35.5 -1.5 Q34.95 -0.25 35.2 0.3 L33.9 0.0 Q31.6 -0.75 26.85 -3.8 27.65 5.55 27.1 6.15 L24.9 4.75 24.65 1.7 26.2 2.8 M36.5 -4.15 L35.9 -6.25 Q35.75 -8.15 36.6 -8.95 43.05 -4.25 46.5 -3.5 L54.2 -3.7 Q50.65 -6.85 49.8 -8.75 49.05 -10.65 49.0 -13.45 49.0 -16.2 48.1 -21.1 47.15 -26.0 43.55 -30.05 L42.0 -31.55 42.5 -31.5 41.9 -34.2 Q44.45 -32.5 46.3 -29.6 48.85 -25.6 49.7 -20.6 L50.95 -13.35 Q51.35 -11.1 52.8 -8.4 54.9 -4.8 56.8 -3.5 55.6 -2.55 54.65 -2.3 50.9 -1.3 44.45 -2.85 42.3 -3.35 38.85 -5.95 36.7 -7.5 36.95 -6.5 L36.5 -4.15" fill="#606060" fill-rule="evenodd" stroke="none"/>
    <path d="M38.6 -28.35 Q38.6 -26.7 37.4 -23.7 36.15 -20.75 36.0 -17.85 32.1 -6.3 32.35 0.1 32.6 6.1 32.05 7.8 31.75 8.85 30.1 10.05 29.65 4.95 29.5 -0.25 29.6 -10.7 30.0 -10.7 30.6 -19.15 35.75 -25.35 37.25 -27.2 38.6 -28.35" fill="#ffffff" fill-rule="evenodd" stroke="none"/>
    <path d="M38.6 -28.35 Q37.25 -27.2 35.75 -25.35 30.6 -19.15 30.0 -10.7 29.6 -10.7 29.5 -0.25 29.65 4.95 30.1 10.05 31.75 8.85 32.05 7.8 32.6 6.1 32.35 0.1 32.1 -6.3 36.0 -17.85 36.15 -20.75 37.4 -23.7 38.6 -26.7 38.6 -28.35 M28.5 -16.7 L27.7 -13.5 Q27.1 -10.7 27.35 -11.1 L25.0 6.2 23.75 14.9 Q23.35 16.3 22.25 18.0 L19.75 17.7 Q21.9 13.75 23.3 6.95 24.5 1.25 24.4 -1.7 L24.75 -10.95 Q24.5 -10.95 24.35 -10.65 24.2 -10.35 24.2 -9.95 L23.75 -6.8 23.45 -5.95 22.55 -5.0 21.35 -5.15 21.2 -9.2 Q21.2 -13.05 21.95 -14.45 22.55 -15.5 23.95 -15.5 24.7 -15.5 25.4 -16.15 L27.75 -19.1 Q28.55 -17.9 28.5 -16.7 M31.55 46.7 Q30.95 45.75 32.1 40.35 32.9 36.6 32.9 32.95 32.9 31.6 30.5 19.65 28.15 7.7 28.15 -1.85 28.15 -17.75 38.3 -28.5 L41.9 -28.55 Q41.35 -25.15 37.8 -15.15 34.75 -6.7 34.75 -0.45 34.75 2.05 36.55 10.8 38.45 19.8 39.75 23.05 36.1 19.2 35.2 16.75 34.55 15.0 32.95 5.95 L32.85 8.55 Q32.85 16.25 34.6 22.45 L35.35 25.25 35.7 33.7 Q34.0 43.1 31.55 46.7" fill="#d1d1d1" fill-rule="evenodd" stroke="none"/>
    <path d="M28.5 -16.7 Q30.4 -24.1 34.35 -28.5 L38.3 -28.5 Q28.15 -17.75 28.15 -1.85 28.15 7.7 30.5 19.65 32.9 31.6 32.9 32.95 32.9 36.6 32.1 40.35 30.95 45.75 31.55 46.7 28.85 50.65 23.95 53.35 30.55 46.25 30.55 33.55 30.55 28.0 29.0 13.4 27.45 -1.75 27.35 -6.65 L26.65 -0.3 26.3 4.65 Q26.3 12.45 26.75 16.65 26.65 17.35 25.65 17.5 L22.25 18.0 Q23.35 16.3 23.75 14.9 L25.0 6.2 27.35 -11.1 Q27.1 -10.7 27.7 -13.5 L28.5 -16.7 M41.9 -28.55 Q42.8 -25.05 42.55 -21.55 37.35 -11.5 36.85 2.0 36.85 4.05 38.85 14.2 L40.9 24.35 40.85 27.05 Q40.1 25.25 38.1 23.45 36.25 21.8 35.5 21.8 L34.8 21.95 34.6 22.45 Q32.85 16.25 32.85 8.55 L32.95 5.95 Q34.55 15.0 35.2 16.75 36.1 19.2 39.75 23.05 38.45 19.8 36.55 10.8 34.75 2.05 34.75 -0.45 34.75 -6.7 37.8 -15.15 41.35 -25.15 41.9 -28.55 M24.2 -9.95 L24.75 -10.95 24.4 -1.7 Q24.0 -1.85 23.75 -6.8 L24.2 -9.95" fill="#989898" fill-rule="evenodd" stroke="none"/>
    <path d="M22.25 18.0 L25.65 17.5 Q26.65 17.35 26.75 16.65 26.3 12.45 26.3 4.65 L26.65 -0.3 27.35 -6.65 Q27.45 -1.75 29.0 13.4 30.55 28.0 30.55 33.55 30.55 46.25 23.95 53.35 28.85 50.65 31.55 46.7 34.0 43.1 35.7 33.7 L35.35 25.25 34.6 22.45 34.8 21.95 35.5 21.8 Q36.25 21.8 38.1 23.45 40.1 25.25 40.85 27.05 L40.9 24.35 38.85 14.2 Q36.85 4.05 36.85 2.0 37.35 -11.5 42.55 -21.55 L38.7 -2.8 38.4 0.4 Q38.4 2.95 40.3 12.7 42.2 22.4 42.2 24.25 42.2 25.95 41.8 28.2 L41.0 31.2 36.75 24.05 37.2 31.0 Q37.2 38.5 33.45 46.4 28.85 56.2 22.0 54.95 L21.85 54.1 Q26.2 45.9 27.4 42.9 29.25 38.4 29.25 31.5 28.45 22.6 27.25 17.7 25.3 18.9 24.45 19.15 L20.2 19.4 17.9 18.85 21.1 8.1 Q24.05 -2.15 23.45 -5.95 L23.75 -6.8 Q24.0 -1.85 24.4 -1.7 24.5 1.25 23.3 6.95 21.9 13.75 19.75 17.7 L22.25 18.0" fill="#606060" fill-rule="evenodd" stroke="none"/>
  </g>
</svg>
