<?xml version="1.0" encoding="UTF-8" standalone="no"?>
<svg xmlns:ffdec="https://www.free-decompiler.com/flash" xmlns:xlink="http://www.w3.org/1999/xlink" ffdec:objectType="shape" height="9.55px" width="81.2px" xmlns="http://www.w3.org/2000/svg">
  <g transform="matrix(1.0, 0.0, 0.0, 1.0, -11.0, -4.15)">
    <path d="M62.75 8.7 L62.75 5.05 Q62.75 4.75 63.0 4.55 63.2 4.3 63.5 4.3 L65.75 4.3 66.1 4.4 66.4 4.65 67.9 6.9 67.9 5.05 68.15 4.55 Q68.35 4.3 68.65 4.3 L70.95 4.3 71.5 4.55 71.7 5.05 71.7 7.3 Q72.0 6.2 72.75 5.45 L72.8 5.45 Q74.0 4.15 76.25 4.15 78.55 4.15 79.8 5.45 L80.0 5.65 79.9 5.2 79.9 4.8 80.2 4.45 80.6 4.3 82.85 4.3 83.35 4.5 83.6 4.95 83.85 6.15 84.2 4.85 84.45 4.45 Q84.65 4.3 84.9 4.3 L87.15 4.3 87.6 4.45 87.9 4.85 88.25 6.1 88.45 4.95 88.75 4.5 Q88.95 4.3 89.2 4.3 L91.45 4.3 91.9 4.45 92.15 4.8 92.2 5.2 91.4 8.7 90.65 8.7 91.45 5.05 89.2 5.05 88.5 8.7 88.15 8.7 87.15 5.05 84.9 5.05 83.9 8.7 83.6 8.7 82.85 5.05 80.6 5.05 81.4 8.7 80.3 8.7 Q80.25 6.95 79.25 5.95 78.2 4.9 76.25 4.9 74.35 4.9 73.3 5.95 72.3 7.0 72.25 8.7 L70.95 8.7 70.95 5.05 68.65 5.05 68.65 8.7 68.2 8.7 65.75 5.05 63.5 5.05 63.5 8.7 62.75 8.7 M85.85 8.7 L86.05 7.9 86.3 8.7 85.85 8.7 M77.15 8.7 L76.9 7.75 76.25 7.5 Q75.9 7.5 75.7 7.75 L75.65 7.75 Q75.45 8.05 75.4 8.7 L74.65 8.7 Q74.7 7.7 75.1 7.25 75.5 6.75 76.25 6.75 77.0 6.75 77.45 7.25 77.85 7.7 77.9 8.7 L77.15 8.7 M65.75 8.7 L65.75 8.55 65.85 8.7 65.75 8.7 M45.4 8.7 L45.4 7.7 43.7 7.7 Q43.4 7.7 43.2 7.5 L42.95 6.95 42.95 5.05 Q42.95 4.75 43.2 4.55 43.4 4.3 43.7 4.3 L51.0 4.3 51.55 4.55 Q51.75 4.3 52.05 4.3 L58.45 4.3 Q58.75 4.3 59.0 4.55 L59.2 5.05 59.2 6.7 59.0 7.25 58.7 7.45 58.9 7.95 58.9 8.7 58.15 8.7 58.15 7.95 54.45 7.95 54.45 6.7 58.45 6.7 58.45 5.05 52.05 5.05 52.05 8.7 51.3 8.7 51.3 7.65 51.0 7.7 49.3 7.7 49.3 8.7 48.55 8.7 48.55 6.95 51.0 6.95 51.0 5.05 43.7 5.05 43.7 6.95 46.15 6.95 46.15 8.7 45.4 8.7 M36.55 8.7 L38.0 4.8 38.3 4.45 Q38.45 4.3 38.7 4.3 L41.3 4.3 41.75 4.45 42.0 4.8 43.5 8.7 42.7 8.7 41.3 5.05 38.7 5.05 37.3 8.7 36.55 8.7 M20.05 8.7 L20.05 5.05 Q20.05 4.75 20.3 4.55 20.5 4.3 20.8 4.3 L24.75 4.3 Q26.4 4.3 27.2 5.1 L27.25 5.15 27.9 6.2 27.9 5.05 28.15 4.55 Q28.35 4.3 28.65 4.3 L32.2 4.3 34.2 4.65 34.25 4.7 Q35.05 5.0 35.55 5.7 36.1 6.4 36.3 7.25 L36.3 7.2 36.5 8.7 35.75 8.7 35.55 7.4 34.95 6.15 33.9 5.35 32.2 5.05 28.65 5.05 28.65 8.7 27.9 8.7 27.1 8.7 27.35 7.45 Q27.35 6.3 26.7 5.65 26.05 5.05 24.75 5.05 L20.8 5.05 20.8 8.7 20.05 8.7 M33.35 8.7 L32.6 8.7 32.4 7.75 31.75 7.55 31.75 8.7 31.0 8.7 31.0 6.8 31.6 6.8 Q32.55 6.8 32.95 7.25 33.3 7.65 33.35 8.7 M40.45 8.7 L39.45 8.7 39.95 7.05 40.45 8.7 M24.3 7.55 L24.3 7.45 24.25 7.4 23.95 7.35 23.95 7.6 24.3 7.55 M23.2 8.35 L23.2 6.6 23.85 6.6 Q24.55 6.6 24.8 6.9 L25.05 7.5 24.75 8.1 23.8 8.35 23.2 8.35 M16.05 8.7 L16.05 5.05 Q16.05 4.75 16.3 4.55 16.5 4.3 16.8 4.3 L19.2 4.3 19.75 4.55 19.95 5.05 19.95 8.7 19.2 8.7 19.2 5.05 16.8 5.05 16.8 8.7 16.05 8.7 M11.0 8.7 L11.0 5.05 11.25 4.55 Q11.45 4.3 11.75 4.3 L14.15 4.3 14.7 4.55 14.9 5.05 14.9 8.7 14.15 8.7 14.15 5.05 11.75 5.05 11.75 8.7 11.0 8.7" fill="#afff83" fill-rule="evenodd" stroke="none"/>
    <path d="M63.5 8.7 L63.5 5.05 65.75 5.05 68.2 8.7 68.65 9.35 68.65 8.7 68.65 5.05 70.95 5.05 70.95 8.7 70.95 12.8 68.65 12.8 65.85 8.7 65.75 8.55 65.75 8.7 65.75 12.8 63.5 12.8 63.5 8.7 M72.25 8.7 Q72.3 7.0 73.3 5.95 74.35 4.9 76.25 4.9 78.2 4.9 79.25 5.95 80.25 6.95 80.3 8.7 L80.3 8.85 Q80.3 10.2 79.8 11.1 79.35 11.95 78.5 12.45 77.65 12.95 76.35 12.95 L74.15 12.5 Q73.3 12.1 72.8 11.2 72.25 10.3 72.25 8.95 L72.25 8.7 M81.4 8.7 L80.6 5.05 82.85 5.05 83.6 8.7 83.7 9.4 83.9 8.7 84.9 5.05 87.15 5.05 88.15 8.7 88.35 9.4 88.5 8.7 89.2 5.05 91.45 5.05 90.65 8.7 89.75 12.8 87.4 12.8 86.3 8.7 86.05 7.9 85.85 8.7 84.65 12.8 82.3 12.8 81.4 8.7 M77.9 8.7 Q77.85 7.7 77.45 7.25 77.0 6.75 76.25 6.75 75.5 6.75 75.1 7.25 74.7 7.7 74.65 8.7 L74.65 8.95 Q74.65 10.1 75.1 10.65 75.5 11.15 76.25 11.15 77.05 11.15 77.45 10.65 77.9 10.15 77.9 8.85 L77.9 8.7 M46.15 8.7 L46.15 6.95 43.7 6.95 43.7 5.05 51.0 5.05 51.0 6.95 48.55 6.95 48.55 8.7 48.55 12.8 46.15 12.8 46.15 8.7 M52.05 8.7 L52.05 5.05 58.45 5.05 58.45 6.7 54.45 6.7 54.45 7.95 58.15 7.95 58.15 8.7 58.15 9.5 54.45 9.5 54.45 11.05 58.6 11.05 58.6 12.8 52.05 12.8 52.05 8.7 M37.3 8.7 L38.7 5.05 41.3 5.05 42.7 8.7 44.2 12.8 41.7 12.8 41.3 11.5 38.6 11.5 38.2 12.8 35.75 12.8 37.3 8.7 M28.65 8.7 L28.65 5.05 32.2 5.05 33.9 5.35 34.95 6.15 35.55 7.4 35.75 8.7 35.75 8.9 35.5 10.85 34.7 11.95 Q34.2 12.45 33.6 12.6 L32.2 12.8 28.65 12.8 28.65 8.7 M31.0 8.7 L31.0 11.05 31.6 11.05 32.7 10.85 33.15 10.3 33.35 8.95 33.35 8.7 Q33.3 7.65 32.95 7.25 32.55 6.8 31.6 6.8 L31.0 6.8 31.0 8.7 M40.45 8.7 L39.95 7.05 39.45 8.7 39.1 9.85 40.8 9.85 40.45 8.7 M27.1 8.7 L26.65 9.25 Q25.95 9.9 24.5 9.9 L23.2 9.9 23.2 12.8 20.8 12.8 20.8 8.7 20.8 5.05 24.75 5.05 Q26.05 5.05 26.7 5.65 27.35 6.3 27.35 7.45 L27.1 8.7 M23.2 8.35 L23.8 8.35 24.75 8.1 25.05 7.5 24.8 6.9 Q24.55 6.6 23.85 6.6 L23.2 6.6 23.2 8.35 M16.8 8.7 L16.8 5.05 19.2 5.05 19.2 8.7 19.2 9.65 18.95 10.95 18.3 12.05 17.35 12.65 15.65 12.95 14.45 12.85 13.3 12.55 12.5 11.85 11.95 11.0 11.75 9.65 11.75 8.7 11.75 5.05 14.15 5.05 14.15 8.7 14.15 9.75 Q14.15 10.4 14.5 10.75 14.85 11.1 15.45 11.1 16.1 11.1 16.45 10.75 16.8 10.4 16.8 9.75 L16.8 8.7" fill="#1e5800" fill-rule="evenodd" stroke="none"/>
    <path d="M62.75 8.7 L63.5 8.7 63.5 12.8 65.75 12.8 65.75 8.7 65.85 8.7 68.65 12.8 70.95 12.8 70.95 8.7 72.25 8.7 72.25 8.95 Q72.25 10.3 72.8 11.2 73.3 12.1 74.15 12.5 L76.35 12.95 Q77.65 12.95 78.5 12.45 79.35 11.95 79.8 11.1 80.3 10.2 80.3 8.85 L80.3 8.7 81.4 8.7 82.3 12.8 84.65 12.8 85.85 8.7 86.3 8.7 87.4 12.8 89.75 12.8 90.65 8.7 91.4 8.7 90.5 12.95 90.25 13.4 89.75 13.55 87.4 13.55 86.95 13.4 86.7 13.0 86.05 10.7 85.4 13.0 85.1 13.4 84.65 13.55 82.3 13.55 81.85 13.4 81.6 12.95 80.95 10.1 80.45 11.5 80.5 11.45 Q79.9 12.5 78.9 13.1 77.9 13.7 76.35 13.7 L73.85 13.2 Q72.75 12.7 72.15 11.6 71.85 11.15 71.7 10.55 L71.7 12.8 71.5 13.35 70.95 13.55 68.65 13.55 68.3 13.45 68.05 13.25 66.5 11.0 66.5 12.8 66.3 13.35 65.75 13.55 63.5 13.55 63.0 13.35 62.75 12.8 62.75 8.7 M68.2 8.7 L68.65 8.7 68.65 9.35 68.2 8.7 M83.6 8.7 L83.9 8.7 83.7 9.4 83.6 8.7 M88.15 8.7 L88.5 8.7 88.35 9.4 88.15 8.7 M77.15 8.7 L77.9 8.7 77.9 8.85 Q77.9 10.15 77.45 10.65 77.05 11.15 76.25 11.15 75.5 11.15 75.1 10.65 74.65 10.1 74.65 8.95 L74.65 8.7 75.4 8.7 75.4 8.95 Q75.4 9.75 75.7 10.2 75.9 10.4 76.25 10.4 L76.9 10.2 76.9 10.15 77.15 8.85 77.15 8.7 M45.4 8.7 L46.15 8.7 46.15 12.8 48.55 12.8 48.55 8.7 49.3 8.7 49.3 12.8 49.1 13.35 48.55 13.55 46.15 13.55 Q45.85 13.55 45.65 13.35 L45.4 12.8 45.4 8.7 M51.3 8.7 L52.05 8.7 52.05 12.8 58.6 12.8 58.6 11.05 54.45 11.05 54.45 9.5 58.15 9.5 58.15 8.7 58.9 8.7 58.9 9.5 58.7 10.05 58.15 10.25 55.2 10.25 55.2 10.3 58.6 10.3 Q58.9 10.3 59.15 10.55 L59.35 11.05 59.35 12.8 59.15 13.35 58.6 13.55 52.05 13.55 Q51.75 13.55 51.55 13.35 L51.3 12.8 51.3 8.7 M36.55 8.7 L37.3 8.7 35.75 12.8 38.2 12.8 38.6 11.5 41.3 11.5 41.7 12.8 44.2 12.8 42.7 8.7 43.5 8.7 44.9 12.55 44.95 13.0 44.65 13.4 44.2 13.55 41.7 13.55 41.25 13.4 41.0 13.05 40.75 12.25 39.2 12.25 38.95 13.05 38.65 13.4 38.2 13.55 35.75 13.55 35.3 13.4 35.05 13.05 35.05 12.7 33.8 13.35 32.2 13.55 28.65 13.55 Q28.35 13.55 28.15 13.35 L27.9 12.8 27.9 8.7 27.15 9.8 Q26.3 10.65 24.5 10.65 L23.95 10.65 23.95 12.8 23.75 13.35 23.2 13.55 20.8 13.55 20.3 13.35 20.05 12.8 20.05 8.7 20.8 8.7 20.8 12.8 23.2 12.8 23.2 9.9 24.5 9.9 Q25.95 9.9 26.65 9.25 L27.1 8.7 27.9 8.7 28.65 8.7 28.65 12.8 32.2 12.8 33.6 12.6 Q34.2 12.45 34.7 11.95 L35.5 10.85 35.75 8.9 35.75 8.7 36.5 8.7 36.5 8.75 36.55 8.7 M33.35 8.7 L33.35 8.95 33.15 10.3 32.7 10.85 31.6 11.05 31.0 11.05 31.0 8.7 31.75 8.7 31.75 10.3 32.35 10.2 32.4 10.2 32.45 10.05 32.5 10.0 32.6 8.95 32.6 8.7 33.35 8.7 M39.45 8.7 L40.45 8.7 40.8 9.85 39.1 9.85 39.45 8.7 M16.05 8.7 L16.8 8.7 16.8 9.75 Q16.8 10.4 16.45 10.75 16.1 11.1 15.45 11.1 14.85 11.1 14.5 10.75 14.15 10.4 14.15 9.75 L14.15 8.7 14.9 8.7 14.9 9.75 15.05 10.25 15.45 10.35 15.95 10.25 16.05 9.75 16.05 8.7 M19.2 8.7 L19.95 8.7 19.95 9.65 19.65 11.25 19.65 11.2 18.85 12.55 18.85 12.6 Q18.25 13.15 17.65 13.35 L17.6 13.4 15.65 13.7 14.35 13.6 13.0 13.25 12.95 13.2 11.9 12.3 11.25 11.25 11.25 11.2 11.0 9.65 11.0 8.7 11.75 8.7 11.75 9.65 11.95 11.0 12.5 11.85 13.3 12.55 14.45 12.85 15.65 12.95 17.35 12.65 18.3 12.05 18.95 10.95 19.2 9.65 19.2 8.7" fill="#7bff33" fill-rule="evenodd" stroke="none"/>
  </g>
</svg>
