<?xml version="1.0" encoding="UTF-8" standalone="no"?>
<svg xmlns:ffdec="https://www.free-decompiler.com/flash" xmlns:xlink="http://www.w3.org/1999/xlink" ffdec:objectType="shape" height="95.5px" width="69.15px" xmlns="http://www.w3.org/2000/svg">
  <g transform="matrix(1.0, 0.0, 0.0, 1.0, -19.1, 11.45)">
    <path d="M35.75 83.7 L35.35 83.5 35.15 83.1 Q35.1 82.85 35.2 82.65 L35.5 82.3 Q42.3 78.25 45.7 70.7 42.9 73.1 38.25 74.9 L38.2 74.9 Q30.55 77.75 23.85 73.8 L23.5 73.35 Q23.4 73.05 23.55 72.8 L24.05 72.45 Q35.95 69.45 39.65 57.7 42.65 47.95 39.5 38.15 L37.8 33.1 Q38.2 42.7 30.9 50.3 26.45 54.95 20.0 56.3 L19.5 56.25 19.2 55.85 19.15 55.35 Q19.2 55.1 19.4 54.95 28.0 48.65 28.9 37.9 29.9 26.2 26.35 15.0 L26.3 14.65 28.6 1.2 28.75 0.85 28.75 0.4 Q29.4 -2.45 30.8 -4.85 32.25 -7.45 34.95 -8.5 L34.9 -8.5 Q50.65 -15.35 66.5 -6.3 82.55 2.75 87.05 21.25 89.5 31.6 87.0 42.0 81.35 64.65 61.5 77.75 49.7 85.5 35.75 83.7 M48.55 67.3 L48.6 67.3 Q45.6 77.15 38.1 82.45 L45.75 82.2 46.2 81.7 Q52.85 74.35 52.85 59.7 L52.65 55.95 52.15 51.1 51.35 47.9 Q51.8 58.4 48.55 67.3 M30.4 38.05 Q29.6 47.55 23.1 53.8 26.9 52.25 29.8 49.25 38.8 39.9 35.3 27.3 L34.65 25.2 34.55 24.95 34.5 24.8 33.65 22.6 Q31.7 17.8 27.85 14.75 31.4 26.15 30.4 38.05 M41.1 58.15 Q37.45 69.8 26.25 73.35 29.85 74.95 33.75 74.5 L32.7 74.55 34.7 73.8 Q39.8 71.55 41.05 68.6 42.3 65.65 43.75 60.8 45.15 55.95 42.65 46.3 L42.6 46.3 42.65 46.3 42.6 46.3 Q42.9 52.25 41.1 58.15 M49.45 57.3 L49.3 56.95 49.0 60.1 49.45 57.3" fill="#20150c" fill-rule="evenodd" stroke="none"/>
    <path d="M41.1 58.15 Q42.9 52.25 42.6 46.3 L42.65 46.3 42.6 46.3 42.65 46.3 Q45.15 55.95 43.75 60.8 42.3 65.65 41.05 68.6 39.8 71.55 34.7 73.8 L32.7 74.55 33.75 74.5 Q29.85 74.95 26.25 73.35 37.45 69.8 41.1 58.15 M30.4 38.05 Q31.4 26.15 27.85 14.75 31.7 17.8 33.65 22.6 L34.5 24.8 34.55 24.95 34.65 25.2 35.3 27.3 Q38.8 39.9 29.8 49.25 26.9 52.25 23.1 53.8 29.6 47.55 30.4 38.05 M48.55 67.3 Q51.8 58.4 51.35 47.9 L52.15 51.1 52.65 55.95 52.85 59.7 Q52.85 74.35 46.2 81.7 L45.75 82.2 38.1 82.45 Q45.6 77.15 48.6 67.3 L48.55 67.3 M49.45 57.3 L49.0 60.1 49.3 56.95 49.45 57.3" fill="#311e0f" fill-rule="evenodd" stroke="none"/>
  </g>
</svg>
