<?xml version="1.0" encoding="UTF-8" standalone="no"?>
<svg xmlns:ffdec="https://www.free-decompiler.com/flash" xmlns:xlink="http://www.w3.org/1999/xlink" ffdec:objectType="shape" height="18.15px" width="47.45px" xmlns="http://www.w3.org/2000/svg">
  <g transform="matrix(1.0, 0.0, 0.0, 1.0, 8.15, 13.8)">
    <path d="M39.3 -11.85 L39.25 -11.55 39.2 -11.5 39.2 -11.05 Q39.2 -9.7 37.25 -9.2 L36.3 -9.2 Q36.65 -8.45 36.95 -8.2 L36.95 -7.65 36.7 -7.55 Q36.4 -7.55 35.55 -9.15 34.7 -10.75 34.0 -10.75 L32.15 -9.0 29.4 -6.3 28.55 -5.35 25.9 -2.6 25.4 -1.95 22.9 -0.05 18.75 2.45 Q17.05 3.35 11.6 4.1 6.1 4.8 2.0 3.45 L1.95 3.45 -0.55 3.15 -3.55 3.0 Q-5.3 3.0 -5.85 3.65 -6.4 4.3 -7.05 4.3 -7.95 4.3 -8.15 2.95 -8.15 2.25 -7.55 1.4 -6.85 0.35 -5.75 0.45 -4.3 -0.6 -1.3 0.4 L-1.1 0.35 4.25 0.25 4.4 0.25 Q15.1 -0.8 19.05 -2.25 22.3 -3.4 26.0 -6.95 26.75 -7.7 27.9 -9.55 L28.05 -9.75 28.7 -10.65 30.25 -12.3 Q31.65 -13.45 33.45 -13.7 L34.6 -13.8 34.7 -13.8 36.15 -13.65 Q39.3 -13.05 39.3 -11.85 M38.55 -11.2 L38.55 -10.8 38.6 -10.8 38.55 -11.2" fill="#ffffff" fill-rule="evenodd" stroke="none"/>
  </g>
</svg>
