<?xml version="1.0" encoding="UTF-8" standalone="no"?>
<svg xmlns:ffdec="https://www.free-decompiler.com/flash" xmlns:xlink="http://www.w3.org/1999/xlink" ffdec:objectType="shape" height="8.6px" width="16.9px" xmlns="http://www.w3.org/2000/svg">
  <g transform="matrix(1.0, 0.0, 0.0, 1.0, 6.3, 9.0)">
    <path d="M6.75 -7.65 L8.05 -6.2 Q8.55 -5.3 8.9 -2.45 L9.35 -3.3 9.6 -4.55 Q9.45 -6.25 8.75 -7.2 8.15 -7.95 7.3 -8.0 L6.75 -7.65 M7.45 -9.0 Q8.3 -9.0 9.25 -8.1 10.6 -6.85 10.6 -4.6 L10.35 -3.05 9.15 -1.35 Q7.35 -1.4 6.25 -0.8 5.25 -0.6 4.15 -1.15 L3.3 -1.7 Q2.85 -0.4 0.65 -0.4 0.05 -0.4 -1.45 -2.35 L-2.5 -1.15 -3.6 -0.55 -4.45 -0.6 -4.45 -0.65 -5.85 -2.1 -6.3 -4.65 Q-6.3 -6.15 -5.45 -7.3 -4.6 -8.45 -3.45 -8.45 -2.7 -8.45 -2.05 -7.7 L-1.3 -6.65 0.8 -8.3 Q1.5 -8.3 2.2 -7.6 L3.0 -6.65 Q4.6 -8.35 5.15 -8.35 L6.3 -8.65 7.45 -9.0 M0.35 -7.2 L-0.4 -6.8 Q-0.9 -6.5 -1.0 -5.35 L-1.05 -3.5 Q-1.0 -2.85 -0.2 -2.1 L0.35 -1.55 0.15 -5.85 0.55 -5.9 0.9 -5.9 1.35 -1.5 Q2.3 -2.8 2.05 -4.7 1.85 -6.5 0.8 -7.3 L0.35 -7.2 M3.45 -4.75 Q3.65 -3.45 4.45 -2.45 L5.3 -1.6 4.95 -5.35 Q4.9 -6.05 5.5 -6.05 L5.85 -6.05 6.3 -1.8 6.85 -2.7 7.1 -3.75 Q7.25 -6.1 6.6 -6.95 5.9 -7.9 4.55 -7.1 3.25 -6.05 3.45 -4.75 M-3.95 -7.35 L-4.75 -7.0 Q-5.3 -6.75 -5.4 -6.1 L-5.5 -4.65 -5.2 -3.1 -4.35 -1.75 -4.4 -5.9 -3.85 -6.05 Q-3.5 -5.95 -3.45 -5.25 L-3.4 -1.65 Q-2.25 -2.85 -2.3 -4.6 -2.35 -6.3 -3.5 -7.45 L-3.95 -7.35" fill="#846b37" fill-rule="evenodd" stroke="none"/>
    <path d="M6.75 -7.65 L7.3 -8.0 Q8.15 -7.95 8.75 -7.2 9.45 -6.25 9.6 -4.55 L9.35 -3.3 8.9 -2.45 Q8.55 -5.3 8.05 -6.2 L6.75 -7.65 M0.35 -7.2 L0.8 -7.3 Q1.85 -6.5 2.05 -4.7 2.3 -2.8 1.35 -1.5 L0.9 -5.9 0.55 -5.9 0.15 -5.85 0.35 -1.55 -0.2 -2.1 Q-1.0 -2.85 -1.05 -3.5 L-1.0 -5.35 Q-0.9 -6.5 -0.4 -6.8 L0.35 -7.2 M3.45 -4.75 Q3.25 -6.05 4.55 -7.1 5.9 -7.9 6.6 -6.95 7.25 -6.1 7.1 -3.75 L6.85 -2.7 6.3 -1.8 5.85 -6.05 5.5 -6.05 Q4.9 -6.05 4.95 -5.35 L5.3 -1.6 4.45 -2.45 Q3.65 -3.45 3.45 -4.75 M-3.95 -7.35 L-3.5 -7.45 Q-2.35 -6.3 -2.3 -4.6 -2.25 -2.85 -3.4 -1.65 L-3.45 -5.25 Q-3.5 -5.95 -3.85 -6.05 L-4.4 -5.9 -4.35 -1.75 -5.2 -3.1 -5.5 -4.65 -5.4 -6.1 Q-5.3 -6.75 -4.75 -7.0 L-3.95 -7.35" fill="#e4dbc9" fill-rule="evenodd" stroke="none"/>
  </g>
</svg>
