<?xml version="1.0" encoding="UTF-8" standalone="no"?>
<svg xmlns:ffdec="https://www.free-decompiler.com/flash" xmlns:xlink="http://www.w3.org/1999/xlink" ffdec:objectType="shape" height="62.85px" width="37.5px" xmlns="http://www.w3.org/2000/svg">
  <g transform="matrix(1.0, 0.0, 0.0, 1.0, 20.75, 10.35)">
    <path d="M3.35 -2.05 Q3.35 -4.25 1.25 -3.45 -0.9 -2.7 -0.9 -0.95 0.05 0.1 1.4 0.1 2.65 0.1 3.35 -2.05 M2.35 -5.6 L2.75 -5.45 3.55 -3.85 3.8 -1.95 Q3.95 -1.25 3.7 -0.6 3.2 0.75 1.15 0.75 L-0.45 0.45 -0.9 0.15 -1.2 -0.2 Q-2.7 -1.75 -4.65 -2.0 L-3.55 -3.45 Q-1.65 -5.35 2.35 -5.6 M4.4 0.7 L3.9 0.65 4.3 0.65 Q4.85 -0.2 4.85 -1.6 4.85 -2.8 4.25 -4.15 L3.95 -4.75 Q6.85 -2.85 9.6 1.55 12.0 5.4 12.65 8.8 L11.85 8.95 Q11.3 8.95 10.6 7.75 L9.95 6.5 9.05 3.05 8.9 3.2 8.75 3.55 Q8.85 4.75 10.05 9.75 10.4 11.25 12.1 16.55 L12.05 16.7 13.75 26.05 13.95 30.0 13.65 34.6 Q11.45 38.75 9.35 38.75 L7.95 38.65 Q7.45 38.3 6.9 38.3 L6.7 38.3 6.35 38.15 5.05 35.7 Q3.15 31.35 3.25 30.9 L1.5 24.35 1.5 24.3 Q0.75 22.0 -2.0 18.85 -2.15 18.65 -2.35 18.65 L-3.1 18.8 -4.0 19.05 -4.0 19.0 Q-4.8 19.45 -4.8 20.1 -5.7 25.35 -6.3 33.35 L-6.4 47.5 Q-7.55 51.25 -11.75 51.25 -15.95 51.2 -18.15 46.7 L-18.15 46.65 Q-19.0 43.75 -19.35 34.15 -19.75 24.55 -17.6 17.45 -15.8 11.45 -11.65 4.3 L-14.2 9.55 -14.25 9.75 -14.2 12.2 -13.95 12.45 -13.55 12.5 Q-9.15 10.7 -5.1 7.15 -1.1 3.55 -0.75 1.0 -0.4 1.7 1.75 1.7 L2.65 1.65 2.5 1.85 1.0 4.85 Q0.0 7.2 -1.55 8.35 -4.45 10.5 -10.9 14.7 -14.6 17.2 -16.0 21.45 L-17.4 28.6 -17.4 34.5 -17.55 36.65 -17.15 41.2 Q-16.25 45.55 -13.7 45.55 -11.3 45.55 -10.4 43.95 L-9.7 41.85 -9.7 29.0 -9.2 22.35 Q-8.6 18.45 -5.9 15.85 L-5.25 15.85 Q-3.5 16.0 -2.7 16.55 -2.25 16.9 -1.75 17.6 -0.75 18.6 -0.2 19.85 L2.05 24.35 4.3 29.2 Q6.5 33.3 8.6 33.3 11.3 33.3 11.3 28.8 11.3 25.8 10.6 21.6 L9.25 14.6 Q8.65 12.1 8.1 11.0 7.75 10.3 7.7 9.15 L7.45 7.45 6.45 3.9 Q5.65 2.0 5.1 1.25 L4.4 0.7 M0.55 24.6 L0.85 25.7 Q-0.9 25.25 -3.2 26.2 L-4.8 27.0 -4.45 24.55 Q-5.0 19.4 -1.7 20.8 0.0 22.95 0.55 24.6 M2.7 32.6 L5.9 40.15 Q1.45 38.1 -1.7 39.8 -3.6 41.05 -5.15 44.65 L-5.3 33.7 -3.65 33.05 -2.95 32.75 -2.95 32.8 2.55 32.6 2.7 32.6" fill="#6c4900" fill-rule="evenodd" stroke="none"/>
    <path d="M-4.65 -2.0 Q-2.7 -1.75 -1.2 -0.2 L-0.9 0.15 -0.45 0.45 1.15 0.75 Q3.2 0.75 3.7 -0.6 3.95 -1.25 3.8 -1.95 L3.55 -3.85 2.75 -5.45 2.35 -5.6 0.45 -6.15 -0.6 -6.25 Q-2.15 -6.25 -4.05 -5.0 -7.1 -3.1 -9.75 1.15 L-9.95 1.4 Q-7.5 -2.1 -5.5 -2.05 L-5.35 -2.05 -4.65 -2.0 M12.65 8.8 Q12.0 5.4 9.6 1.55 6.85 -2.85 3.95 -4.75 L4.25 -4.15 Q4.85 -2.8 4.85 -1.6 4.85 -0.2 4.3 0.65 L3.9 0.65 4.4 0.7 4.05 1.2 Q3.5 1.8 2.5 1.85 L2.65 1.65 1.75 1.7 Q-0.4 1.7 -0.75 1.0 -1.1 3.55 -5.1 7.15 -9.15 10.7 -13.55 12.5 L-13.95 12.45 -14.2 12.2 -14.25 9.75 -14.2 9.55 -11.65 4.3 Q-15.8 11.45 -17.6 17.45 -19.75 24.55 -19.35 34.15 -19.0 43.75 -18.15 46.65 L-18.15 46.7 Q-15.95 51.2 -11.75 51.25 -7.55 51.25 -6.4 47.5 L-6.3 33.35 Q-5.7 25.35 -4.8 20.1 -4.8 19.45 -4.0 19.0 L-4.0 19.05 -3.1 18.8 -2.35 18.65 Q-2.15 18.65 -2.0 18.85 0.75 22.0 1.5 24.3 L1.5 24.35 3.25 30.9 Q3.15 31.35 5.05 35.7 L6.35 38.15 6.8 38.75 7.2 39.15 7.25 39.2 8.55 40.1 9.3 40.3 Q11.7 40.5 13.75 37.6 L13.75 37.55 Q15.75 34.8 15.75 31.05 15.75 30.05 14.6 25.0 L14.45 24.4 13.6 21.5 12.35 17.4 12.1 16.55 Q10.4 11.25 10.05 9.75 8.85 4.75 8.75 3.55 L8.9 3.2 9.05 3.05 9.95 6.5 10.15 7.25 10.4 8.05 10.45 8.25 10.5 8.4 12.35 14.55 Q13.2 12.0 12.7 9.1 L12.7 8.95 12.65 8.8 M0.55 24.6 Q0.0 22.95 -1.7 20.8 -5.0 19.4 -4.45 24.55 L-4.8 27.0 -3.2 26.2 Q-0.9 25.25 0.85 25.7 L0.55 24.6 M14.25 19.85 L15.6 24.8 Q16.75 30.05 16.75 31.05 16.75 35.1 14.55 38.15 11.9 42.0 9.3 41.9 L6.8 41.6 Q6.85 41.45 3.0 39.95 L3.0 40.45 Q3.0 42.0 2.7 42.65 2.25 43.8 0.95 43.8 L-0.7 43.5 Q-0.6 45.75 -1.25 47.05 L-1.25 47.0 Q-2.3 49.5 -5.4 48.3 -5.8 52.5 -10.9 52.5 -16.95 52.5 -19.1 47.05 -20.75 43.1 -20.75 34.0 -20.75 24.35 -18.55 17.15 -16.35 9.75 -10.6 0.6 -7.8 -3.9 -4.6 -5.85 -2.45 -7.25 -0.6 -7.25 5.25 -7.3 10.45 1.0 15.8 9.55 13.45 17.4 L14.25 19.85 M2.7 32.6 L2.55 32.6 -2.95 32.8 -2.95 32.75 -3.65 33.05 -5.3 33.7 -5.15 44.65 Q-3.6 41.05 -1.7 39.8 1.45 38.1 5.9 40.15 L2.7 32.6 M0.35 26.8 L-0.15 29.45 -0.65 31.65 2.45 31.6 1.1 26.6 0.35 26.7 0.35 26.8 M2.0 40.45 Q2.0 40.05 2.45 40.0 L-0.4 40.1 -0.3 39.8 -0.55 40.1 -0.6 40.1 -0.45 40.95 -0.6 42.45 -0.5 42.5 0.95 42.8 Q1.55 42.8 1.8 42.25 L2.0 40.45 M-5.75 6.4 Q-1.9 2.9 -1.75 0.6 L-1.9 0.5 Q-3.4 -1.05 -5.5 -1.05 -7.55 -0.95 -10.35 3.95 L-13.25 9.85 -13.25 11.25 Q-9.35 9.55 -5.75 6.4 M-5.0 28.85 L-5.3 32.7 -2.25 31.65 -1.95 31.65 -1.3 29.25 -0.55 26.75 -0.2 26.75 -0.8 26.75 Q-2.15 26.75 -2.8 27.25 L-4.75 28.85 -5.0 28.85 M-1.35 31.65 L-1.3 31.65 -1.35 31.6 -1.35 31.65 M-5.3 41.25 L-5.25 42.95 -5.3 40.9 -5.35 41.0 -5.3 41.25 M-5.3 46.3 L-5.3 46.6 -5.3 46.3 Q-5.2 46.7 -4.35 47.0 -3.2 47.4 -2.15 46.6 -1.5 45.2 -1.75 42.65 L-1.5 42.55 -1.55 42.25 -1.5 41.4 -1.15 40.9 -5.3 46.3" fill="#321f0c" fill-rule="evenodd" stroke="none"/>
    <path d="M-4.65 -2.0 L-5.35 -2.05 -5.5 -2.05 Q-7.5 -2.1 -9.95 1.4 L-9.75 1.15 Q-7.1 -3.1 -4.05 -5.0 -2.15 -6.25 -0.6 -6.25 L0.45 -6.15 2.35 -5.6 Q-1.65 -5.35 -3.55 -3.45 L-4.65 -2.0 M9.95 6.5 L10.6 7.75 Q11.3 8.95 11.85 8.95 L12.65 8.8 12.7 8.95 12.7 9.1 Q13.2 12.0 12.35 14.55 L10.5 8.4 10.45 8.25 10.4 8.05 10.15 7.25 9.95 6.5 M0.35 26.8 L0.35 26.7 1.1 26.6 2.45 31.6 -0.65 31.65 -0.15 29.45 0.35 26.8 M2.0 40.45 L1.8 42.25 Q1.55 42.8 0.95 42.8 L-0.5 42.5 -0.6 42.45 -0.45 40.95 -0.6 40.1 -0.55 40.1 -0.3 39.8 -0.4 40.1 2.45 40.0 Q2.0 40.05 2.0 40.45 M-1.35 31.65 L-1.35 31.6 -1.3 31.65 -1.35 31.65 M-5.0 28.85 L-4.75 28.85 -2.8 27.25 Q-2.15 26.75 -0.8 26.75 L-0.2 26.75 -0.55 26.75 -1.3 29.25 -1.95 31.65 -2.25 31.65 -5.3 32.7 -5.0 28.85 M-5.3 46.3 L-1.15 40.9 -1.5 41.4 -1.55 42.25 -1.5 42.55 -1.75 42.65 Q-1.5 45.2 -2.15 46.6 -3.2 47.4 -4.35 47.0 -5.2 46.7 -5.3 46.3 L-5.3 46.6 -5.3 46.3 M-5.3 41.25 L-5.35 41.0 -5.3 40.9 -5.25 42.95 -5.3 41.25" fill="#402c00" fill-rule="evenodd" stroke="none"/>
    <path d="M3.35 -2.05 Q2.65 0.1 1.4 0.1 0.05 0.1 -0.9 -0.95 -0.9 -2.7 1.25 -3.45 3.35 -4.25 3.35 -2.05 M4.4 0.7 L5.1 1.25 Q5.65 2.0 6.45 3.9 L7.45 7.45 7.7 9.15 Q7.75 10.3 8.1 11.0 8.65 12.1 9.25 14.6 L10.6 21.6 Q11.3 25.8 11.3 28.8 11.3 33.3 8.6 33.3 6.5 33.3 4.3 29.2 L2.05 24.35 -0.2 19.85 Q-0.75 18.6 -1.75 17.6 -2.25 16.9 -2.7 16.55 -3.5 16.0 -5.25 15.85 L-5.9 15.85 Q-8.6 18.45 -9.2 22.35 L-9.7 29.0 -9.7 41.85 -10.4 43.95 Q-11.3 45.55 -13.7 45.55 -16.25 45.55 -17.15 41.2 L-17.55 36.65 -17.4 34.5 -17.4 28.6 -16.0 21.45 Q-14.6 17.2 -10.9 14.7 -4.45 10.5 -1.55 8.35 0.0 7.2 1.0 4.85 L2.5 1.85 Q3.5 1.8 4.05 1.2 L4.4 0.7 M6.65 16.7 Q6.25 14.6 4.35 13.0 1.9 11.4 0.3 11.8 -1.05 12.15 -1.05 13.45 6.1 24.3 6.9 25.15 L7.65 25.2 Q8.2 25.0 8.2 23.95 8.2 22.85 7.5 20.1 L6.65 16.7" fill="#845900" fill-rule="evenodd" stroke="none"/>
    <path d="M6.65 16.7 L7.5 20.1 Q8.2 22.85 8.2 23.95 8.2 25.0 7.65 25.2 L6.9 25.15 Q6.1 24.3 -1.05 13.45 -1.05 12.15 0.3 11.8 1.9 11.4 4.35 13.0 6.25 14.6 6.65 16.7" fill="#936300" fill-rule="evenodd" stroke="none"/>
    <path d="M6.35 38.15 L6.7 38.3 6.9 38.3 Q7.45 38.3 7.95 38.65 L9.35 38.75 Q11.45 38.75 13.65 34.6 L13.95 30.0 13.75 26.05 12.05 16.7 12.1 16.55 12.35 17.4 13.6 21.5 14.45 24.4 14.6 25.0 Q15.75 30.05 15.75 31.05 15.75 34.8 13.75 37.55 L13.75 37.6 Q11.7 40.5 9.3 40.3 L8.55 40.1 7.25 39.2 7.2 39.15 6.8 38.75 6.35 38.15" fill="#74500c" fill-rule="evenodd" stroke="none"/>
    <path d="M10.5 39.1 Q8.55 38.95 9.0 37.8 11.8 36.7 12.65 33.7 14.35 33.4 14.15 35.0 13.0 38.5 10.5 39.1 M11.1 15.1 L12.7 20.6 Q12.05 22.35 10.8 21.15 L9.2 15.65 Q9.95 14.45 11.1 15.1 M11.7 24.45 Q12.65 22.6 13.65 23.95 L15.15 29.7 Q14.35 31.45 13.2 30.2 L11.7 24.45 M7.2 8.6 Q7.65 6.2 9.15 8.1 L10.25 12.35 Q10.05 13.8 8.3 12.85 L7.2 8.6 M-9.85 46.25 Q-8.45 45.9 -8.8 47.95 L-12.8 50.45 Q-14.7 50.25 -13.85 48.75 L-9.85 46.25 M-9.25 39.3 Q-8.25 37.15 -7.25 39.4 L-7.5 44.4 -9.5 44.3 -9.25 39.3 M-1.0 33.45 L-1.6 25.7 Q-0.6 23.75 0.4 25.55 L1.0 33.3 Q0.0 34.55 -1.0 33.45 M-9.25 28.2 Q-8.25 26.7 -7.25 28.2 L-7.25 33.95 Q-8.05 37.3 -9.25 33.95 L-9.25 28.2 M-4.35 26.35 Q-2.9 24.6 -2.35 26.55 L-3.1 33.8 Q-4.1 35.7 -5.1 33.6 L-4.35 26.35 M-8.35 19.85 Q-7.05 18.25 -6.35 20.1 L-7.1 25.35 Q-8.4 27.2 -9.1 25.1 L-8.35 19.85 M-11.15 -7.65 Q-11.75 -9.55 -10.3 -9.45 -7.85 -5.85 -4.9 -6.75 L-5.0 -9.6 -3.0 -9.65 -2.85 -5.55 -3.0 -5.55 Q-2.15 -4.15 -3.75 -4.0 -8.15 -3.55 -11.15 -7.65" fill="#c28614" fill-rule="evenodd" stroke="none"/>
  </g>
</svg>
