<?xml version="1.0" encoding="UTF-8" standalone="no"?>
<svg xmlns:ffdec="https://www.free-decompiler.com/flash" xmlns:xlink="http://www.w3.org/1999/xlink" ffdec:objectType="shape" height="79.95px" width="210.55px" xmlns="http://www.w3.org/2000/svg">
  <g transform="matrix(1.0, 0.0, 0.0, 1.0, -41.75, -120.75)">
    <path d="M200.35 121.45 Q202.1 123.75 206.25 127.95 L222.05 143.9 Q245.05 167.45 245.05 175.65 245.05 182.5 241.75 187.3 238.85 191.5 232.75 195.2 220.5 200.7 204.85 200.7 155.2 200.7 116.25 187.35 83.95 176.3 41.75 149.2 L41.75 146.95 Q43.95 147.1 65.95 153.35 87.7 159.55 99.0 160.2 93.25 158.4 79.4 152.2 62.85 144.8 58.75 143.2 L58.75 141.95 60.0 141.7 89.0 148.35 119.75 155.45 124.25 155.45 Q114.55 152.2 102.45 145.15 90.2 137.6 85.0 134.95 L85.25 134.2 Q90.5 135.25 106.15 139.55 150.55 143.15 161.0 138.25 185.8 126.65 200.35 121.45 M190.6 138.2 L190.0 138.05 184.2 140.3 Q178.9 142.3 173.6 143.75 157.05 148.3 138.8 148.3 L131.0 148.05 Q131.05 151.3 137.15 153.55 144.55 156.3 144.8 156.55 142.15 158.5 138.85 159.2 131.5 160.8 113.05 161.05 L113.05 160.9 113.0 161.65 Q113.0 162.75 118.2 167.7 122.65 172.0 125.0 173.75 L120.8 173.8 113.45 172.65 Q107.4 171.5 106.0 171.5 L106.0 172.05 Q114.55 178.35 123.55 181.6 137.55 186.65 161.0 188.8 L183.5 188.8 Q199.65 186.6 211.95 181.2 224.3 175.75 224.3 170.9 L224.2 169.85 224.05 169.55 198.5 173.0 174.0 173.05 Q171.6 172.85 169.2 171.85 L166.0 170.3 166.5 170.25 Q170.5 168.45 181.9 163.8 191.25 159.7 191.25 157.75 L191.1 157.0 190.75 156.8 173.5 155.65 Q172.1 154.95 170.0 154.8 L180.5 148.25 Q190.8 141.4 190.8 139.05 190.8 138.25 190.6 138.2 M200.9 168.95 L201.4 169.1 204.35 169.2 201.1 168.95 200.9 168.95" fill="#cdbb83" fill-rule="evenodd" stroke="none"/>
    <path d="M190.6 138.2 Q190.8 138.25 190.8 139.05 190.8 141.4 180.5 148.25 L170.0 154.8 Q172.1 154.95 173.5 155.65 L190.75 156.8 191.1 157.0 191.25 157.75 Q191.25 159.7 181.9 163.8 170.5 168.45 166.5 170.25 L166.0 170.3 169.2 171.85 Q171.6 172.85 174.0 173.05 L198.5 173.0 224.05 169.55 224.2 169.85 224.3 170.9 Q224.3 175.75 211.95 181.2 199.65 186.6 183.5 188.8 L161.0 188.8 Q137.55 186.65 123.55 181.6 114.55 178.35 106.0 172.05 L106.0 171.5 Q107.4 171.5 113.45 172.65 L120.8 173.8 125.0 173.75 Q122.65 172.0 118.2 167.7 113.0 162.75 113.0 161.65 L113.05 160.9 113.05 161.05 Q131.5 160.8 138.85 159.2 142.15 158.5 144.8 156.55 144.55 156.3 137.15 153.55 131.05 151.3 131.0 148.05 L138.8 148.3 Q157.05 148.3 173.6 143.75 178.9 142.3 184.2 140.3 L190.0 138.05 190.6 138.2" fill="#ddd1ac" fill-rule="evenodd" stroke="none"/>
    <path d="M232.75 195.2 Q238.85 191.5 241.75 187.3 245.05 182.5 245.05 175.65 245.05 167.45 222.05 143.9 L206.25 127.95 Q202.1 123.75 200.35 121.45 L202.2 120.8 202.35 120.75 Q211.0 126.85 233.65 150.6 247.25 164.85 252.3 170.9 251.15 180.65 249.5 182.8 246.1 187.2 240.4 191.0 236.75 193.4 232.75 195.2" fill="#b89e50" fill-rule="evenodd" stroke="none"/>
  </g>
</svg>
