<?xml version="1.0" encoding="UTF-8" standalone="no"?>
<svg xmlns:ffdec="https://www.free-decompiler.com/flash" xmlns:xlink="http://www.w3.org/1999/xlink" ffdec:objectType="shape" height="36.45px" width="30.65px" xmlns="http://www.w3.org/2000/svg">
  <g transform="matrix(1.0, 0.0, 0.0, 1.0, 22.05, 91.0)">
    <path d="M-13.1 -90.7 L-13.3 -89.4 -14.45 -81.65 -14.7 -80.2 -14.75 -79.7 -16.35 -70.15 -16.6 -69.0 -16.8 -67.9 -16.85 -67.75 Q-17.65 -64.15 -18.45 -61.95 L-17.8 -58.8 -18.1 -59.5 -18.95 -60.1 -19.45 -60.15 -20.25 -61.5 -20.8 -62.85 -22.05 -65.0 -21.45 -67.75 -21.15 -69.05 -21.15 -69.15 Q-20.8 -69.95 -19.0 -78.7 L-17.45 -86.05 -16.85 -88.8 -16.55 -90.4 -16.45 -90.75 -13.1 -90.7" fill="#8a8a8a" fill-rule="evenodd" stroke="none"/>
    <path d="M-9.8 -90.65 L-9.95 -88.75 -10.7 -82.9 -10.9 -81.65 -11.3 -79.05 -11.65 -76.8 -11.0 -73.4 -10.1 -69.1 -10.1 -68.95 -9.65 -69.05 -7.45 -69.9 -5.0 -70.9 Q-4.45 -70.7 -4.45 -70.2 L-5.7 -68.7 -6.6 -67.75 -6.8 -67.55 Q-9.15 -65.15 -10.7 -64.0 -11.5 -61.3 -13.0 -61.4 L-14.35 -62.0 Q-14.35 -61.0 -14.9 -60.0 L-15.0 -59.9 -11.65 -58.65 -8.1 -57.25 -8.4 -56.9 Q-9.05 -56.4 -11.1 -56.15 L-13.0 -55.85 -14.9 -56.35 Q-15.25 -56.35 -15.5 -56.9 L-15.75 -57.45 -17.3 -57.9 -17.8 -58.8 -18.45 -61.95 Q-17.65 -64.15 -16.85 -67.75 L-16.8 -67.9 -16.6 -69.0 -16.35 -70.15 -14.75 -79.7 -14.7 -80.2 -14.45 -81.65 -13.3 -89.4 -13.1 -90.7 -10.0 -90.7 -9.8 -90.65 M7.8 -79.05 L6.8 -78.2 6.5 -77.95 Q3.7 -75.4 3.3 -75.4 2.65 -75.4 2.45 -75.7 L2.3 -76.35 4.15 -78.15 7.95 -82.35 8.05 -81.85 8.05 -80.6 7.8 -79.05" fill="#b4b4b4" fill-rule="evenodd" stroke="none"/>
    <path d="M-7.0 -90.35 L-7.35 -89.15 -7.5 -88.45 Q-8.2 -85.7 -8.4 -81.65 L-8.55 -78.7 -8.6 -75.7 -8.45 -73.55 Q-8.2 -72.35 -7.4 -72.35 -3.95 -72.35 0.65 -78.15 L4.7 -84.15 5.0 -84.65 Q5.0 -87.35 3.45 -87.5 1.45 -87.2 0.5 -87.5 L0.75 -87.95 2.05 -90.75 2.75 -90.9 Q4.1 -90.95 5.35 -90.05 6.75 -88.95 6.75 -87.35 L6.4 -86.45 6.0 -85.3 7.55 -82.6 Q7.8 -82.65 7.95 -82.35 L4.15 -78.15 2.3 -76.35 2.45 -75.7 Q2.65 -75.4 3.3 -75.4 3.7 -75.4 6.5 -77.95 L6.8 -78.2 7.8 -79.05 7.55 -78.4 6.55 -76.1 7.55 -74.85 Q2.2 -71.7 -2.1 -68.5 L-2.5 -68.25 -3.15 -67.75 Q-13.35 -60.0 -4.65 -60.0 1.4 -60.0 4.3 -60.85 L2.9 -59.35 Q1.7 -58.15 0.6 -58.35 L0.55 -58.15 Q0.4 -58.0 0.75 -58.05 L0.25 -57.6 0.2 -57.15 Q-0.5 -56.35 -1.1 -56.3 L-4.15 -55.45 Q-6.85 -54.65 -8.6 -54.55 L-13.0 -55.85 -11.1 -56.15 Q-9.05 -56.4 -8.4 -56.9 L-8.1 -57.25 -11.65 -58.65 -15.0 -59.9 -14.9 -60.0 Q-14.35 -61.0 -14.35 -62.0 L-13.0 -61.4 Q-11.5 -61.3 -10.7 -64.0 -9.15 -65.15 -6.8 -67.55 L-6.6 -67.75 -5.7 -68.7 -4.45 -70.2 Q-4.45 -70.7 -5.0 -70.9 L-7.45 -69.9 -9.65 -69.05 -10.1 -68.95 -10.1 -69.1 -11.0 -73.4 -11.65 -76.8 -11.3 -79.05 -10.9 -81.65 -10.7 -82.9 -9.95 -88.75 -9.8 -90.65 -9.3 -90.5 -8.85 -89.8 -8.4 -88.95 -7.15 -90.35 -7.0 -90.35 M5.4 -62.25 L3.75 -62.55 -2.7 -62.6 5.05 -67.75 6.1 -68.5 8.35 -70.25 7.35 -67.0 6.05 -63.9 5.5 -62.5 5.4 -62.25" fill="#e0e0e0" fill-rule="evenodd" stroke="none"/>
    <path d="M2.05 -90.75 L0.75 -87.95 0.5 -87.5 Q1.45 -87.2 3.45 -87.5 5.0 -87.35 5.0 -84.65 L4.7 -84.15 0.65 -78.15 Q-3.95 -72.35 -7.4 -72.35 -8.2 -72.35 -8.45 -73.55 L-8.6 -75.7 -8.55 -78.7 -8.4 -81.65 Q-8.2 -85.7 -7.5 -88.45 L-7.35 -89.15 -7.0 -90.35 -6.1 -90.65 -5.05 -91.0 Q-3.9 -91.05 -2.95 -90.3 -1.95 -89.65 -1.3 -88.2 L1.05 -90.3 2.05 -90.75 M4.3 -60.85 Q1.4 -60.0 -4.65 -60.0 -13.35 -60.0 -3.15 -67.75 L-2.5 -68.25 -2.1 -68.5 Q2.2 -71.7 7.55 -74.85 L8.0 -74.4 Q8.6 -73.85 8.6 -72.7 L8.35 -70.25 6.1 -68.5 5.05 -67.75 -2.7 -62.6 3.75 -62.55 5.4 -62.25 4.7 -61.3 4.3 -60.85" fill="#ffffff" fill-rule="evenodd" stroke="none"/>
    <path d="M-20.25 -73.2 L-20.1 -73.95 Q-18.55 -72.55 -13.7 -71.45 -7.3 -69.95 -1.05 -70.35 2.2 -70.5 4.25 -71.3 5.7 -71.8 6.3 -72.6 L6.2 -71.6 Q5.75 -71.15 5.25 -71.05 4.7 -70.75 3.4 -70.4 L-1.05 -69.85 Q-3.65 -69.7 -7.05 -69.9 L-14.2 -70.85 -18.25 -72.1 Q-19.4 -72.5 -20.25 -73.2 M0.8 -75.25 L0.85 -75.25 Q3.0 -74.8 4.65 -73.8 L4.7 -73.05 3.0 -73.9 1.5 -74.5 0.65 -74.75 0.8 -75.25 M0.1 -75.4 L0.0 -74.95 -4.35 -75.75 -3.6 -76.1 0.1 -75.4 M-19.25 -75.4 L-19.15 -75.5 -19.05 -75.6 -15.7 -76.45 -15.5 -75.95 -16.0 -75.9 Q-19.15 -75.55 -19.15 -74.75 L-19.15 -74.55 -19.25 -74.6 -19.3 -75.0 -19.25 -75.4 M-14.75 -76.05 L-14.95 -76.5 -7.85 -76.55 -7.1 -76.05 -11.1 -76.1 -14.75 -76.05" fill="#ffffff" fill-rule="evenodd" stroke="none"/>
    <path d="M2.55 -88.5 L0.95 -87.15 -0.3 -85.6 -0.05 -85.95 1.15 -87.0 Q1.1 -86.8 1.95 -87.25 L4.5 -87.2 4.1 -87.85 3.15 -88.5 2.55 -88.5 M4.65 -86.55 Q4.65 -86.75 3.85 -86.85 L2.65 -86.95 Q1.55 -86.9 -0.85 -84.95 L-0.3 -86.15 Q0.1 -87.55 1.2 -88.25 2.0 -88.8 2.75 -88.85 3.55 -88.9 4.3 -88.35 5.2 -87.6 4.65 -86.55 M6.65 -71.4 Q6.6 -70.05 6.05 -68.5 5.5 -66.9 4.7 -65.75 L4.25 -63.95 Q4.0 -62.85 2.95 -62.85 L1.65 -60.45 0.6 -60.4 -0.5 -59.4 -1.2 -58.35 -2.2 -58.45 -3.75 -57.45 -6.7 -56.75 -7.05 -57.0 Q-7.1 -57.25 -7.4 -57.2 L-8.1 -56.9 -8.85 -56.65 -11.25 -57.5 -13.85 -58.3 -14.2 -58.4 -14.55 -59.0 Q-14.9 -59.35 -15.55 -59.5 L-16.2 -59.6 -16.55 -60.5 Q-16.95 -61.45 -17.6 -61.9 -17.95 -62.2 -18.3 -62.2 L-18.65 -62.05 -19.45 -64.6 Q-20.35 -64.75 -20.35 -65.4 L-20.45 -67.2 -20.75 -67.85 -21.05 -68.15 -21.15 -69.05 -20.95 -70.1 Q-20.9 -68.25 -20.65 -68.05 -20.1 -67.7 -19.95 -66.85 L-19.5 -65.25 Q-19.05 -64.95 -18.25 -62.4 L-17.4 -62.2 -16.5 -61.2 -16.1 -60.65 Q-15.6 -60.2 -15.15 -60.05 -14.4 -59.85 -13.85 -59.3 -13.45 -58.85 -13.15 -58.9 L-12.85 -58.6 -12.1 -58.0 -10.45 -57.95 -10.6 -57.95 -10.3 -58.0 -9.65 -57.7 -8.95 -57.1 -7.35 -57.75 -7.25 -57.45 -6.75 -57.3 Q-6.45 -57.3 -5.85 -57.6 L-4.5 -58.2 -4.3 -58.1 -3.75 -58.0 Q-3.35 -58.05 -2.8 -58.55 L-2.2 -59.0 Q-1.65 -59.0 -1.0 -59.5 L0.35 -60.75 1.35 -60.8 Q2.8 -63.4 3.25 -63.35 3.45 -63.35 4.1 -65.3 L4.8 -66.65 5.65 -68.65 5.9 -69.85 6.0 -70.45 Q6.5 -70.75 6.65 -71.4 M-4.55 -88.55 L-5.15 -88.6 -6.25 -88.15 -6.85 -87.55 -4.2 -87.2 Q-3.55 -86.8 -3.55 -86.9 L-2.45 -85.55 -3.25 -86.9 -4.55 -88.55 M-7.05 -86.9 Q-7.1 -88.05 -6.35 -88.5 -5.85 -88.9 -5.05 -88.95 -3.95 -89.0 -3.1 -87.5 L-2.05 -85.1 -2.0 -84.5 -2.75 -85.5 -3.9 -86.6 -5.1 -86.9 -7.05 -86.9" fill="#412314" fill-rule="evenodd" stroke="none"/>
    <path d="M1.95 -87.25 Q1.1 -86.8 1.15 -87.0 L-0.05 -85.95 -0.3 -85.6 0.95 -87.15 2.55 -88.5 1.95 -87.25 M4.95 -69.15 Q4.35 -67.95 3.5 -68.35 2.65 -68.7 2.25 -67.65 1.15 -64.65 0.6 -64.1 L0.4 -64.35 1.25 -66.15 Q1.4 -66.35 1.15 -67.0 L1.1 -67.05 -0.1 -64.05 Q-1.0 -61.65 -2.15 -61.45 L-2.65 -62.5 -3.15 -61.5 -3.85 -60.6 -4.55 -61.6 -5.1 -60.35 -5.7 -59.5 Q-6.85 -59.8 -7.15 -61.45 -7.4 -63.3 -7.7 -63.9 L-7.8 -62.75 Q-7.9 -61.85 -8.65 -60.9 L-9.4 -61.8 -9.7 -62.85 -9.85 -63.45 -10.85 -61.85 -10.85 -62.05 -11.0 -63.7 -11.2 -65.5 -11.3 -65.55 -11.25 -63.8 -10.95 -61.75 -11.3 -61.15 -12.05 -62.05 Q-12.6 -63.2 -12.5 -65.55 L-12.55 -65.9 -13.3 -65.25 -13.3 -65.8 -13.35 -67.25 -13.45 -67.85 -13.7 -66.6 -13.65 -65.5 -14.0 -68.45 -11.7 -68.65 -11.15 -68.15 Q-10.7 -67.65 -10.3 -67.75 L-9.6 -68.0 -8.95 -68.15 Q-7.45 -68.25 -6.8 -67.75 -6.1 -67.25 -6.0 -67.25 L-4.4 -68.0 Q-3.65 -68.05 -2.35 -67.45 L0.55 -68.0 Q1.3 -68.15 1.65 -68.35 L2.55 -69.15 Q4.4 -68.8 4.95 -69.15 M-14.0 -68.5 Q-15.0 -68.55 -15.5 -68.95 L-16.55 -69.8 -17.2 -70.6 -16.05 -70.25 -15.4 -69.6 Q-14.9 -69.3 -13.95 -69.1 L-14.0 -68.5 M-4.2 -87.2 L-6.85 -87.55 -6.25 -88.15 -5.15 -88.6 -4.55 -88.55 -4.2 -87.2 M-4.85 -66.65 L-5.25 -65.25 -5.15 -65.15 -4.9 -65.9 -4.85 -66.65 M-8.2 -65.7 L-8.0 -65.4 -7.85 -66.15 Q-7.75 -66.65 -7.8 -67.05 L-7.9 -67.15 -8.2 -65.7 M-9.75 -66.85 L-9.85 -66.85 -9.9 -66.45 -9.6 -63.45 -9.4 -63.45 -9.75 -66.85 M-1.95 -62.85 Q-1.6 -63.1 -1.2 -64.25 L-0.75 -65.65 -0.75 -65.7 -1.35 -64.5 -1.95 -62.85 M-3.45 -65.6 Q-3.55 -64.45 -3.95 -63.65 L-4.65 -62.3 -4.4 -62.3 Q-2.65 -64.25 -3.45 -65.6 M-14.55 -64.35 Q-14.85 -64.95 -14.95 -66.2 L-15.0 -67.75 Q-14.2 -66.4 -14.35 -64.65 L-14.4 -64.3 -14.55 -64.35 M-6.5 -61.1 L-6.25 -60.9 Q-6.1 -61.0 -6.0 -61.8 -6.0 -62.9 -6.2 -63.1 L-6.5 -61.1" fill="#9c5330" fill-rule="evenodd" stroke="none"/>
    <path d="M2.55 -88.5 L3.15 -88.5 4.1 -87.85 4.5 -87.2 1.95 -87.25 2.55 -88.5 M-20.6 -71.6 L-20.5 -72.2 Q-18.75 -70.5 -17.2 -70.6 L-16.55 -69.8 -15.5 -68.95 Q-15.0 -68.55 -14.0 -68.5 L-14.0 -68.45 -13.65 -65.5 -13.7 -66.6 -13.45 -67.85 -13.35 -67.25 -13.3 -65.8 -13.3 -65.25 -12.55 -65.9 -12.5 -65.55 Q-12.6 -63.2 -12.05 -62.05 L-11.3 -61.15 -10.95 -61.75 -11.25 -63.8 -11.3 -65.55 -11.2 -65.5 -11.0 -63.7 -10.85 -62.05 -10.85 -61.85 -9.85 -63.45 -9.7 -62.85 -9.4 -61.8 -8.65 -60.9 Q-7.9 -61.85 -7.8 -62.75 L-7.7 -63.9 Q-7.4 -63.3 -7.15 -61.45 -6.85 -59.8 -5.7 -59.5 L-5.1 -60.35 -4.55 -61.6 -3.85 -60.6 -3.15 -61.5 -2.65 -62.5 -2.15 -61.45 Q-1.0 -61.65 -0.1 -64.05 L1.1 -67.05 1.15 -67.0 Q1.4 -66.35 1.25 -66.15 L0.4 -64.35 0.6 -64.1 Q1.15 -64.65 2.25 -67.65 2.65 -68.7 3.5 -68.35 4.35 -67.95 4.95 -69.15 5.0 -69.3 5.9 -69.85 L5.65 -68.65 Q4.6 -68.25 3.95 -66.6 3.25 -64.8 2.6 -64.4 L2.9 -65.15 3.0 -65.9 3.0 -66.35 2.9 -66.4 1.85 -63.45 Q1.2 -61.8 0.15 -61.05 L0.3 -61.7 0.35 -62.4 0.25 -62.5 -0.95 -60.8 Q-1.65 -59.9 -2.6 -59.85 -2.5 -59.85 -2.55 -60.05 L-2.65 -60.8 Q-3.65 -59.65 -5.25 -59.05 L-7.25 -58.6 -7.15 -59.35 -7.25 -58.9 Q-7.35 -58.55 -7.7 -58.55 -9.9 -58.4 -10.25 -59.05 -10.3 -59.9 -10.5 -60.5 L-10.6 -60.55 Q-10.85 -59.9 -10.6 -58.95 -12.4 -58.85 -13.0 -60.15 L-14.3 -63.05 -14.4 -63.15 -14.55 -62.7 Q-14.55 -62.05 -13.1 -59.35 -14.45 -60.0 -14.9 -61.5 L-15.65 -64.55 -15.75 -64.6 -15.9 -64.45 -16.0 -63.9 -15.65 -62.35 -15.4 -61.6 -16.2 -62.85 -17.45 -65.7 -16.7 -65.95 Q-16.55 -65.55 -16.55 -66.2 L-16.8 -67.85 -17.15 -69.7 -18.8 -69.95 -20.6 -71.6 M-4.2 -87.2 L-4.55 -88.55 -3.25 -86.9 -2.45 -85.55 -3.55 -86.9 Q-3.55 -86.8 -4.2 -87.2 M-1.95 -62.85 L-1.35 -64.5 -0.75 -65.7 -0.75 -65.65 -1.2 -64.25 Q-1.6 -63.1 -1.95 -62.85 M-9.75 -66.85 L-9.4 -63.45 -9.6 -63.45 -9.9 -66.45 -9.85 -66.85 -9.75 -66.85 M-18.1 -65.35 Q-18.95 -67.2 -18.3 -69.1 L-18.3 -69.05 -17.9 -65.15 -18.1 -65.35 M-16.05 -65.35 L-16.05 -65.15 -15.9 -65.15 -15.9 -65.35 -16.05 -65.35 M-14.55 -64.35 L-14.4 -64.3 -14.35 -64.65 Q-14.2 -66.4 -15.0 -67.75 L-14.95 -66.2 Q-14.85 -64.95 -14.55 -64.35 M-0.4 -60.8 L-0.4 -60.25 -0.75 -60.25 -0.4 -60.8" fill="#7e4427" fill-rule="evenodd" stroke="none"/>
    <path d="M4.75 -80.5 L5.15 -80.8 5.3 -80.8 5.65 -80.6 5.7 -80.3 5.15 -79.85 5.05 -80.5 4.95 -80.45 4.75 -80.5 M-0.9 -79.65 L-0.6 -79.45 -0.95 -79.35 -0.9 -79.65" fill="#5aad16" fill-rule="evenodd" stroke="none"/>
    <path d="M5.65 -80.6 L5.3 -80.8 5.15 -80.8 4.75 -80.5 4.7 -80.5 2.3 -80.2 1.0 -79.95 -0.6 -79.45 -0.9 -79.65 -0.9 -79.7 1.75 -80.5 4.15 -80.9 5.15 -80.8 Q4.5 -83.05 3.5 -83.75 L2.5 -84.15 Q4.0 -84.1 4.95 -82.5 5.5 -81.6 5.65 -80.6 M-1.25 -82.2 L-0.25 -83.15 0.6 -83.75 0.1 -83.35 Q-0.5 -82.75 -0.9 -81.05 L-1.25 -82.2 M0.9 -85.0 L1.5 -84.7 0.5 -84.35 0.6 -84.65 0.9 -85.0" fill="#71d220" fill-rule="evenodd" stroke="none"/>
    <path d="M4.95 -80.45 L5.05 -80.5 5.15 -79.85 5.7 -80.3 5.65 -80.6 Q5.5 -81.6 4.95 -82.5 4.0 -84.1 2.5 -84.15 L1.6 -84.05 0.85 -83.95 0.7 -83.85 0.6 -83.75 -0.25 -83.15 -1.25 -82.2 -1.45 -82.8 0.0 -84.55 1.2 -85.6 1.8 -85.3 2.75 -84.7 4.55 -83.8 Q5.4 -83.35 5.9 -81.85 L6.3 -80.35 6.15 -79.8 5.7 -79.4 5.1 -79.85 4.95 -80.45 M0.9 -85.0 L0.6 -84.65 0.5 -84.35 1.5 -84.7 0.9 -85.0 M-1.95 -78.0 L-1.9 -78.1 -1.45 -78.25 -1.75 -77.9 -1.95 -78.0" fill="#468a0f" fill-rule="evenodd" stroke="none"/>
    <path d="M2.5 -84.15 L3.5 -83.75 Q4.5 -83.05 5.15 -80.8 L4.15 -80.9 1.75 -80.5 -0.9 -79.7 -0.9 -81.05 Q-0.5 -82.75 0.1 -83.35 L0.6 -83.75 0.7 -83.85 0.85 -83.95 1.6 -84.05 2.5 -84.15 M1.1 -83.2 L1.05 -83.15 1.0 -82.6 Q1.0 -82.0 1.8 -81.5 L1.8 -81.45 2.25 -81.4 3.1 -81.55 3.3 -81.9 3.45 -82.55 Q3.45 -83.0 2.75 -83.45 1.9 -84.0 1.1 -83.2" fill="#8bf037" fill-rule="evenodd" stroke="none"/>
    <path d="M1.1 -83.2 Q1.9 -84.0 2.75 -83.45 3.45 -83.0 3.45 -82.55 L3.3 -81.9 3.1 -81.55 2.25 -81.4 1.8 -81.45 1.8 -81.5 Q1.0 -82.0 1.0 -82.6 L1.05 -83.15 1.1 -83.2" fill="#baff80" fill-rule="evenodd" stroke="none"/>
    <path d="M4.75 -80.5 L4.95 -80.45 5.1 -79.85 Q5.3 -77.9 4.05 -76.7 3.0 -75.8 1.65 -75.75 0.55 -75.65 -0.45 -76.8 L-1.35 -78.35 -0.95 -79.35 -0.6 -79.45 Q-0.45 -78.35 0.15 -77.65 0.9 -76.75 2.2 -76.8 3.25 -76.85 4.0 -78.2 4.6 -79.3 4.7 -80.5 L4.75 -80.5 M-8.45 -80.45 L-8.35 -81.1 -8.05 -81.1 -8.1 -80.35 Q-8.15 -78.55 -7.1 -77.8 -6.35 -77.2 -5.05 -77.3 -4.5 -77.35 -4.15 -77.75 -3.6 -77.8 -3.25 -78.25 -2.9 -78.7 -2.9 -79.35 L-2.8 -79.6 -2.75 -79.65 -2.5 -79.55 -2.4 -79.35 -2.2 -78.65 -2.2 -78.6 Q-4.2 -76.2 -5.15 -76.15 -6.4 -76.05 -7.25 -76.8 -8.45 -77.95 -8.45 -80.45" fill="#cdcdcd" fill-rule="evenodd" stroke="none"/>
    <path d="M1.0 -79.95 L2.3 -80.2 2.95 -78.85 2.9 -78.3 2.8 -77.95 2.2 -77.7 1.65 -77.7 Q1.2 -77.65 0.9 -78.15 0.65 -78.5 0.65 -79.1 0.65 -79.5 0.8 -79.8 L1.0 -79.95 M-4.4 -80.4 L-3.05 -79.8 -3.0 -79.7 -2.9 -79.35 Q-2.9 -78.7 -3.25 -78.25 -3.6 -77.8 -4.15 -77.75 L-4.7 -77.85 Q-5.2 -78.15 -5.2 -79.05 L-5.0 -79.95 -4.75 -80.35 -4.4 -80.35 -4.4 -80.4" fill="#3c3c3c" fill-rule="evenodd" stroke="none"/>
    <path d="M-0.6 -79.45 L1.0 -79.95 0.8 -79.8 Q0.65 -79.5 0.65 -79.1 0.65 -78.5 0.9 -78.15 1.2 -77.65 1.65 -77.7 L2.2 -77.7 2.8 -77.95 2.9 -78.3 2.95 -78.85 2.3 -80.2 4.7 -80.5 Q4.6 -79.3 4.0 -78.2 3.25 -76.85 2.2 -76.8 0.9 -76.75 0.15 -77.65 -0.45 -78.35 -0.6 -79.45 M-8.05 -81.1 L-6.0 -80.85 -4.75 -80.35 -5.0 -79.95 -5.2 -79.05 Q-5.2 -78.15 -4.7 -77.85 L-4.15 -77.75 Q-4.5 -77.35 -5.05 -77.3 -6.35 -77.2 -7.1 -77.8 -8.15 -78.55 -8.1 -80.35 L-8.05 -81.1 M-2.8 -79.6 L-2.9 -79.35 -3.0 -79.7 -2.8 -79.6" fill="#fafafa" fill-rule="evenodd" stroke="none"/>
    <path d="M5.7 -79.4 Q5.7 -78.65 5.3 -77.65 4.6 -76.0 3.15 -75.45 L2.4 -75.25 Q1.65 -75.1 0.85 -75.25 L0.8 -75.25 0.6 -75.3 0.35 -75.4 0.1 -75.5 -0.6 -76.0 -1.25 -76.65 -1.75 -77.9 -1.45 -78.25 -1.35 -78.35 -0.45 -76.8 Q0.55 -75.65 1.65 -75.75 3.0 -75.8 4.05 -76.7 5.3 -77.9 5.1 -79.85 L5.7 -79.4 M-8.55 -77.6 L-9.0 -78.8 -9.1 -79.45 -9.1 -80.15 -8.5 -80.5 -8.45 -80.45 Q-8.45 -77.95 -7.25 -76.8 -6.4 -76.05 -5.15 -76.15 -4.2 -76.2 -2.2 -78.6 L-1.9 -78.1 -1.95 -78.0 -2.6 -76.95 -3.0 -76.45 -3.6 -76.1 -4.35 -75.75 -4.95 -75.55 -5.2 -75.55 -5.5 -75.5 -5.65 -75.5 Q-6.5 -75.65 -7.1 -76.05 L-7.85 -76.55 -8.25 -77.0 -8.55 -77.6" fill="#797979" fill-rule="evenodd" stroke="none"/>
    <path d="M-16.1 -77.2 L-17.6 -80.7 -17.4 -80.65 -17.2 -80.2 -13.75 -73.05 -16.8 -80.35 -17.05 -80.9 Q-16.9 -80.9 -17.25 -81.8 L-17.15 -81.8 -15.3 -77.35 -15.15 -76.9 -14.95 -76.5 -14.75 -76.05 -14.2 -74.65 -14.05 -74.3 -13.8 -73.65 -13.5 -73.0 Q-13.7 -72.65 -14.0 -72.65 L-14.35 -73.45 -14.7 -74.2 -14.9 -74.65 -15.5 -75.95 -15.7 -76.45 -15.9 -76.75 -16.1 -77.2 M-17.85 -81.2 L-17.9 -81.3 -17.9 -81.35 -17.85 -81.2 M0.1 -75.5 L0.35 -75.4 -0.5 -72.3 Q-0.4 -72.2 0.6 -75.25 L0.6 -75.3 0.8 -75.25 0.65 -74.75 0.25 -73.45 0.05 -72.7 -0.3 -71.9 -0.75 -72.2 -0.6 -72.85 -0.4 -73.55 0.0 -74.95 0.1 -75.4 0.1 -75.5 M-5.5 -73.85 L-5.55 -74.4 -5.65 -75.5 -5.5 -75.5 -4.95 -72.25 -5.2 -75.55 -4.95 -75.55 -4.85 -74.35 -4.85 -73.75 -4.8 -72.9 Q-4.75 -72.1 -4.85 -71.95 L-5.25 -72.0 -5.4 -72.95 -5.5 -73.85" fill="#757575" fill-rule="evenodd" stroke="none"/>
    <path d="M0.6 -75.3 L0.6 -75.25 Q-0.4 -72.2 -0.5 -72.3 L0.35 -75.4 0.6 -75.3 M-16.8 -80.35 L-13.75 -73.05 -17.2 -80.2 -16.8 -80.35 M-5.5 -75.5 L-5.2 -75.55 -4.95 -72.25 -5.5 -75.5" fill="#efefef" fill-rule="evenodd" stroke="none"/>
    <path d="M-20.1 -73.95 L-19.7 -75.7 -18.7 -76.25 Q-17.2 -76.9 -15.9 -76.75 L-15.7 -76.45 -19.05 -75.6 -19.15 -75.5 -19.25 -75.4 -19.45 -75.2 -19.6 -74.6 Q-19.6 -72.95 -13.2 -71.8 -6.9 -70.55 -0.7 -70.9 L3.75 -71.6 Q5.15 -72.05 5.15 -72.95 L5.0 -73.55 4.65 -73.8 Q3.0 -74.8 0.85 -75.25 1.65 -75.1 2.4 -75.25 3.65 -74.9 4.95 -73.95 L6.35 -72.75 6.3 -72.6 Q5.7 -71.8 4.25 -71.3 2.2 -70.5 -1.05 -70.35 -7.3 -69.95 -13.7 -71.45 -18.55 -72.55 -20.1 -73.95 M0.1 -75.5 L0.1 -75.4 -3.6 -76.1 -3.0 -76.45 -0.6 -76.0 0.1 -75.5 M-14.95 -76.5 L-15.15 -76.9 Q-11.95 -77.15 -8.25 -77.0 L-7.85 -76.55 -14.95 -76.5" fill="#f0f0f0" fill-rule="evenodd" stroke="none"/>
    <path d="M0.0 -74.95 L-0.4 -73.55 -4.85 -74.35 -4.95 -75.55 -4.35 -75.75 0.0 -74.95 M0.25 -73.45 L0.65 -74.75 1.5 -74.5 1.4 -73.15 0.25 -73.45 M3.15 -69.4 L2.1 -69.6 -0.1 -69.1 Q-1.6 -68.55 -2.1 -68.5 L-3.05 -68.7 -4.2 -68.85 -4.85 -68.6 -5.7 -68.35 -6.4 -68.7 Q-7.25 -69.15 -8.25 -69.2 L-9.45 -69.05 -10.0 -68.85 -10.9 -69.35 -11.8 -69.85 -12.7 -69.65 -14.2 -69.65 -14.2 -70.85 -7.05 -69.9 Q-3.65 -69.7 -1.05 -69.85 L3.4 -70.4 3.15 -69.4 M-16.1 -74.55 L-16.0 -75.9 -15.5 -75.95 -14.9 -74.65 -16.1 -74.55 M-14.2 -74.65 L-14.75 -76.05 -11.1 -76.1 -7.1 -76.05 Q-6.5 -75.65 -5.65 -75.5 L-5.55 -74.4 -14.2 -74.65" fill="#d2d2d2" fill-rule="evenodd" stroke="none"/>
    <path d="M3.15 -75.45 Q5.7 -74.6 6.45 -73.5 7.0 -72.65 6.65 -71.4 6.5 -70.75 6.0 -70.45 L6.0 -70.55 6.2 -71.6 6.3 -72.6 6.35 -72.75 4.95 -73.95 Q3.65 -74.9 2.4 -75.25 L3.15 -75.45 M-19.7 -75.7 L-19.6 -76.15 -19.55 -76.2 Q-18.5 -76.8 -16.1 -77.2 L-15.9 -76.75 Q-17.2 -76.9 -18.7 -76.25 L-19.7 -75.7 M-15.3 -77.35 L-8.55 -77.6 -8.25 -77.0 Q-11.95 -77.15 -15.15 -76.9 L-15.3 -77.35 M-3.0 -76.45 L-2.6 -76.95 -1.25 -76.65 -0.6 -76.0 -3.0 -76.45" fill="#6b6b6b" fill-rule="evenodd" stroke="none"/>
    <path d="M-20.95 -70.1 L-20.65 -71.45 -20.6 -71.6 -18.8 -69.95 -17.15 -69.7 -16.8 -67.85 -16.55 -66.2 Q-16.55 -65.55 -16.7 -65.95 L-17.45 -65.7 -16.2 -62.85 -15.4 -61.6 -15.65 -62.35 -16.0 -63.9 -15.9 -64.45 -15.75 -64.6 -15.65 -64.55 -14.9 -61.5 Q-14.45 -60.0 -13.1 -59.35 -14.55 -62.05 -14.55 -62.7 L-14.4 -63.15 -14.3 -63.05 -13.0 -60.15 Q-12.4 -58.85 -10.6 -58.95 -10.85 -59.9 -10.6 -60.55 L-10.5 -60.5 Q-10.3 -59.9 -10.25 -59.05 -9.9 -58.4 -7.7 -58.55 -7.35 -58.55 -7.25 -58.9 L-7.15 -59.35 -7.25 -58.6 -5.25 -59.05 Q-3.65 -59.65 -2.65 -60.8 L-2.55 -60.05 Q-2.5 -59.85 -2.6 -59.85 -1.65 -59.9 -0.95 -60.8 L0.25 -62.5 0.35 -62.4 0.3 -61.7 0.15 -61.05 Q1.2 -61.8 1.85 -63.45 L2.9 -66.4 3.0 -66.35 3.0 -65.9 2.9 -65.15 2.6 -64.4 Q3.25 -64.8 3.95 -66.6 4.6 -68.25 5.65 -68.65 L4.8 -66.65 4.1 -65.3 Q3.45 -63.35 3.25 -63.35 2.8 -63.4 1.35 -60.8 L0.35 -60.75 -1.0 -59.5 Q-1.65 -59.0 -2.2 -59.0 L-2.8 -58.55 Q-3.35 -58.05 -3.75 -58.0 L-4.3 -58.1 -4.5 -58.2 -5.85 -57.6 Q-6.45 -57.3 -6.75 -57.3 L-7.25 -57.45 -7.35 -57.75 -8.95 -57.1 -9.65 -57.7 -10.3 -58.0 -10.6 -57.95 -10.45 -57.95 -12.1 -58.0 -12.85 -58.6 -13.15 -58.9 Q-13.45 -58.85 -13.85 -59.3 -14.4 -59.85 -15.15 -60.05 -15.6 -60.2 -16.1 -60.65 L-16.5 -61.2 -17.4 -62.2 -18.25 -62.4 Q-19.05 -64.95 -19.5 -65.25 L-19.95 -66.85 Q-20.1 -67.7 -20.65 -68.05 -20.9 -68.25 -20.95 -70.1 M-20.5 -72.2 L-20.4 -72.55 -19.95 -71.95 -19.4 -71.45 -17.75 -71.1 -16.05 -70.6 -15.15 -70.1 -14.2 -69.65 -12.7 -69.65 -11.8 -69.85 -10.9 -69.35 -10.0 -68.85 -9.45 -69.05 -8.25 -69.2 Q-7.25 -69.15 -6.4 -68.7 L-5.7 -68.35 -4.85 -68.6 -4.2 -68.85 -3.05 -68.7 -2.1 -68.5 Q-1.6 -68.55 -0.1 -69.1 L2.1 -69.6 3.15 -69.4 Q4.15 -69.1 5.15 -69.8 L6.0 -70.55 6.0 -70.45 5.9 -69.85 Q5.0 -69.3 4.95 -69.15 4.4 -68.8 2.55 -69.15 L-0.35 -68.6 -2.1 -68.0 -3.2 -68.15 -4.2 -68.3 -5.75 -67.9 -6.65 -68.3 -8.25 -68.7 -9.15 -68.5 -10.1 -68.3 Q-10.65 -68.25 -10.85 -68.8 -11.05 -69.35 -11.5 -69.3 L-12.5 -69.15 -13.95 -69.1 Q-14.9 -69.3 -15.4 -69.6 L-16.05 -70.25 -17.2 -70.6 Q-18.75 -70.5 -20.5 -72.2 M-18.1 -65.35 L-17.9 -65.15 -18.3 -69.05 -18.3 -69.1 Q-18.95 -67.2 -18.1 -65.35 M-16.05 -65.35 L-15.9 -65.35 -15.9 -65.15 -16.05 -65.15 -16.05 -65.35 M-0.4 -60.8 L-0.75 -60.25 -0.4 -60.25 -0.4 -60.8" fill="#5f331d" fill-rule="evenodd" stroke="none"/>
    <path d="M-20.4 -72.55 L-20.25 -73.2 Q-19.4 -72.5 -18.25 -72.1 L-14.2 -70.85 -14.2 -69.65 -15.15 -70.1 -16.05 -70.6 -17.75 -71.1 -19.4 -71.45 -19.95 -71.95 -20.4 -72.55 M6.2 -71.6 L6.0 -70.55 5.15 -69.8 Q4.15 -69.1 3.15 -69.4 L3.4 -70.4 Q4.7 -70.75 5.25 -71.05 5.75 -71.15 6.2 -71.6 M4.7 -73.05 L4.5 -72.45 Q4.3 -72.2 3.95 -72.15 L1.4 -73.15 1.5 -74.5 3.0 -73.9 4.7 -73.05 M-18.55 -74.0 L-19.15 -74.55 -19.15 -74.75 Q-19.15 -75.55 -16.0 -75.9 L-16.1 -74.55 -18.55 -74.0" fill="#b7b7b7" fill-rule="evenodd" stroke="none"/>
    <path d="M4.7 -73.05 L4.65 -73.8 5.0 -73.55 5.15 -72.95 Q5.15 -72.05 3.75 -71.6 L-0.7 -70.9 Q-6.9 -70.55 -13.2 -71.8 -19.6 -72.95 -19.6 -74.6 L-19.45 -75.2 -19.25 -75.4 -19.3 -75.0 -19.25 -74.6 -19.15 -74.55 -18.55 -74.0 -17.75 -73.6 Q-16.5 -73.1 -15.5 -72.9 L-8.65 -71.85 0.4 -71.5 3.1 -71.9 3.95 -72.15 Q4.3 -72.2 4.5 -72.45 L4.7 -73.05" fill="#aaaaaa" fill-rule="evenodd" stroke="none"/>
    <path d="M-0.4 -73.55 L-0.6 -72.85 -4.85 -73.75 -4.85 -74.35 -0.4 -73.55 M0.05 -72.7 L0.25 -73.45 1.4 -73.15 3.95 -72.15 3.1 -71.9 0.05 -72.7 M-17.75 -73.6 L-18.55 -74.0 -16.1 -74.55 -14.9 -74.65 -14.7 -74.2 -17.75 -73.6 M-14.05 -74.3 L-14.2 -74.65 -5.55 -74.4 -5.5 -73.85 -14.05 -74.3" fill="#cb228e" fill-rule="evenodd" stroke="none"/>
    <path d="M-14.0 -68.45 L-14.0 -68.5 -13.95 -69.1 -12.5 -69.15 -11.5 -69.3 Q-11.05 -69.35 -10.85 -68.8 -10.65 -68.25 -10.1 -68.3 L-9.15 -68.5 -8.25 -68.7 -6.65 -68.3 -5.75 -67.9 -4.2 -68.3 -3.2 -68.15 -2.1 -68.0 -0.35 -68.6 2.55 -69.15 1.65 -68.35 Q1.3 -68.15 0.55 -68.0 L-2.35 -67.45 Q-3.65 -68.05 -4.4 -68.0 L-6.0 -67.25 Q-6.1 -67.25 -6.8 -67.75 -7.45 -68.25 -8.95 -68.15 L-9.6 -68.0 -10.3 -67.75 Q-10.7 -67.65 -11.15 -68.15 L-11.7 -68.65 -14.0 -68.45 M-8.2 -65.7 L-7.9 -67.15 -7.8 -67.05 Q-7.75 -66.65 -7.85 -66.15 L-8.0 -65.4 -8.2 -65.7 M-4.85 -66.65 L-4.9 -65.9 -5.15 -65.15 -5.25 -65.25 -4.85 -66.65 M-3.45 -65.6 Q-2.65 -64.25 -4.4 -62.3 L-4.65 -62.3 -3.95 -63.65 Q-3.55 -64.45 -3.45 -65.6 M-6.5 -61.1 L-6.2 -63.1 Q-6.0 -62.9 -6.0 -61.8 -6.1 -61.0 -6.25 -60.9 L-6.5 -61.1" fill="#bb6338" fill-rule="evenodd" stroke="none"/>
    <path d="M-0.6 -72.85 L-0.75 -72.2 -0.3 -71.9 0.05 -72.7 3.1 -71.9 0.4 -71.5 -2.35 -72.35 -4.8 -72.9 -4.85 -73.75 -0.6 -72.85 M-15.5 -72.9 Q-16.5 -73.1 -17.75 -73.6 L-14.7 -74.2 -14.35 -73.45 -15.5 -72.9 M-13.8 -73.65 L-14.05 -74.3 -5.5 -73.85 -5.4 -72.95 -9.45 -73.35 -13.8 -73.65" fill="#fa45b9" fill-rule="evenodd" stroke="none"/>
    <path d="M-17.6 -80.7 L-17.75 -80.8 -17.85 -81.2 -17.9 -81.35 -17.75 -81.45 -17.7 -81.55 Q-17.45 -80.9 -17.2 -81.05 L-17.45 -81.7 -17.25 -81.8 Q-16.9 -80.9 -17.05 -80.9 L-17.4 -80.65 -17.6 -80.7 M-10.15 -88.6 L-9.0 -88.5 -9.2 -88.1 -9.45 -87.7 -10.1 -87.75 -10.0 -87.95 -9.55 -88.0 Q-9.3 -88.4 -9.95 -88.4 L-10.15 -88.6 M-11.65 -86.05 L-11.25 -85.8 -11.7 -85.3 -12.3 -85.5 -11.85 -85.85 -11.65 -86.05" fill="#946607" fill-rule="evenodd" stroke="none"/>
    <path d="M-17.9 -81.3 L-18.45 -80.9 -18.55 -80.85 -18.5 -81.05 -18.4 -81.15 -17.75 -81.75 -17.55 -81.9 -16.8 -82.15 -16.6 -82.3 -16.2 -82.9 -16.0 -83.0 -15.5 -83.15 -16.0 -82.8 -16.6 -82.2 -17.15 -81.8 -17.25 -81.8 -17.45 -81.7 -17.7 -81.55 -17.75 -81.45 -17.9 -81.35 -17.9 -81.3 M-16.9 -88.65 L-16.85 -88.8 -16.0 -88.8 -15.9 -88.6 -16.9 -88.65 M-10.85 -88.7 L-10.15 -88.6 -9.95 -88.4 -10.0 -87.95 -10.1 -87.75 -11.65 -86.05 -11.85 -85.85 -12.3 -85.5 -13.3 -84.7 -13.65 -84.2 -13.85 -84.3 Q-14.15 -84.35 -14.65 -84.0 L-14.9 -83.8 -14.75 -84.05 -14.65 -84.25 -14.0 -84.4 -13.7 -84.4 -13.35 -85.15 -13.2 -85.35 Q-12.35 -85.7 -12.25 -85.8 L-12.05 -85.95 -11.65 -86.6 -11.5 -86.8 -10.9 -87.1 -10.55 -87.3 Q-10.2 -88.0 -10.2 -88.35 L-11.0 -88.45 -10.85 -88.7" fill="#029169" fill-rule="evenodd" stroke="none"/>
    <path d="M-9.95 -88.4 Q-9.3 -88.4 -9.55 -88.0 L-10.0 -87.95 -9.95 -88.4 M-17.7 -81.55 L-17.45 -81.7 -17.2 -81.05 Q-17.45 -80.9 -17.7 -81.55" fill="#f3ad1b" fill-rule="evenodd" stroke="none"/>
    <path d="M-18.5 -81.05 L-18.45 -81.35 -18.4 -81.15 -18.5 -81.05 M-17.9 -84.0 L-17.8 -84.35 -17.6 -84.0 -17.7 -83.7 -17.9 -84.0 M-17.1 -87.65 L-17.1 -87.8 -15.25 -87.15 -15.3 -86.95 -17.1 -87.65 M-17.0 -88.25 L-16.95 -88.45 -15.75 -88.25 -15.6 -87.95 -15.5 -87.9 -17.0 -88.25 M-15.2 -83.3 L-15.35 -83.2 -15.7 -83.65 -15.5 -83.75 -15.2 -83.3 M-10.55 -87.3 L-10.9 -87.1 -12.85 -87.4 -12.35 -87.65 -10.55 -87.3 M-12.05 -85.95 L-12.25 -85.8 -13.85 -86.35 -13.7 -86.55 -12.05 -85.95 M-13.7 -84.4 L-14.0 -84.4 -14.7 -84.8 -14.55 -85.0 -13.7 -84.4 M-17.2 -86.85 L-15.85 -85.9 -16.0 -85.65 -17.1 -86.5 -17.2 -86.85 M-17.25 -85.45 L-17.2 -85.6 -16.6 -85.0 -16.75 -84.75 -17.25 -85.45 M-17.2 -82.85 L-16.9 -82.9 -16.6 -82.3 -16.8 -82.15 -17.2 -82.85" fill="#03be8b" fill-rule="evenodd" stroke="none"/>
    <path d="M-18.15 -82.7 L-18.1 -83.1 -17.55 -81.9 -17.75 -81.75 -18.15 -82.7 M-17.2 -87.15 L-17.15 -87.4 -15.5 -86.55 -15.6 -86.35 -17.2 -87.15 M-17.05 -87.95 L-17.0 -88.25 -15.5 -87.9 -15.35 -87.55 -17.05 -87.95 M-11.5 -86.8 L-11.65 -86.6 -13.35 -87.0 -13.15 -87.25 -11.5 -86.8 M-13.2 -85.35 L-13.35 -85.15 -14.2 -85.65 -14.15 -85.85 -13.2 -85.35 M-14.65 -84.25 L-14.75 -84.05 -15.05 -84.25 -14.9 -84.45 -14.65 -84.25 M-17.05 -86.3 L-16.15 -85.45 -16.25 -85.35 -17.05 -86.05 -17.05 -86.3 M-17.1 -84.5 L-17.25 -84.35 -17.65 -84.85 -17.55 -85.05 -17.1 -84.5 M-16.35 -83.15 L-16.2 -83.25 -16.0 -83.0 -16.2 -82.9 -16.35 -83.15" fill="#a0fee4" fill-rule="evenodd" stroke="none"/>
    <path d="M-18.1 -83.1 L-17.9 -84.0 -17.7 -83.7 -17.85 -83.3 -17.6 -82.95 -17.2 -82.85 -16.8 -82.15 -17.55 -81.9 -18.1 -83.1 M-17.15 -87.4 L-17.1 -87.65 -15.3 -86.95 -15.5 -86.55 -17.15 -87.4 M-15.35 -83.2 L-15.5 -83.15 -16.0 -83.0 -16.2 -83.25 -15.7 -83.65 -15.35 -83.2 M-10.9 -87.1 L-11.5 -86.8 -13.15 -87.25 -12.9 -87.4 -12.85 -87.4 -10.9 -87.1 M-12.25 -85.8 Q-12.35 -85.7 -13.2 -85.35 L-14.15 -85.85 -13.85 -86.35 -12.25 -85.8 M-14.0 -84.4 L-14.65 -84.25 -14.9 -84.45 -14.7 -84.8 -14.0 -84.4 M-16.0 -85.65 L-16.15 -85.45 -17.05 -86.3 -17.1 -86.5 -16.0 -85.65 M-17.1 -84.5 L-17.55 -85.05 -17.25 -85.45 -16.75 -84.75 -17.1 -84.5" fill="#03da9e" fill-rule="evenodd" stroke="none"/>
    <path d="M-17.65 -85.2 L-17.5 -85.75 -17.25 -85.45 -17.55 -85.05 -17.65 -85.2 M-17.35 -86.55 L-17.3 -86.65 -17.1 -86.5 -17.05 -86.3 -17.35 -86.55 M-15.3 -86.95 L-13.85 -86.35 -14.15 -85.85 -15.5 -86.55 -15.3 -86.95 M-15.5 -87.9 L-15.6 -87.95 -12.9 -87.4 -13.15 -87.25 -15.5 -87.9 M-14.7 -84.8 L-14.9 -84.45 -16.15 -85.45 -16.0 -85.65 -14.7 -84.8 M-16.2 -83.25 L-17.1 -84.5 -16.75 -84.75 -15.7 -83.65 -16.2 -83.25 M-17.7 -83.7 L-17.2 -82.85 -17.6 -82.95 -17.85 -83.3 -17.7 -83.7" fill="#0598b1" fill-rule="evenodd" stroke="none"/>
    <path d="M-17.7 -84.9 L-17.65 -85.2 -17.55 -85.05 -17.65 -84.85 -17.7 -84.9 M-17.4 -86.35 L-17.35 -86.55 -17.05 -86.3 -17.05 -86.05 -17.4 -86.35 M-15.5 -87.9 L-13.15 -87.25 -13.35 -87.0 -15.35 -87.55 -15.5 -87.9 M-14.15 -85.85 L-14.2 -85.65 -15.6 -86.35 -15.5 -86.55 -14.15 -85.85 M-16.15 -85.45 L-14.9 -84.45 -15.05 -84.25 -16.25 -85.35 -16.15 -85.45 M-17.25 -84.35 L-17.1 -84.5 -16.2 -83.25 -16.35 -83.15 -17.25 -84.35" fill="#6fe6fb" fill-rule="evenodd" stroke="none"/>
    <path d="M-17.75 -84.75 L-17.7 -84.9 -17.65 -84.85 -17.75 -84.75 M-17.5 -85.95 L-17.4 -86.35 -17.05 -86.05 -17.2 -85.6 -17.5 -85.95 M-17.25 -86.9 L-17.25 -86.95 -17.2 -86.85 -17.25 -86.9 M-15.9 -88.6 L-11.0 -88.45 -12.35 -87.65 -15.75 -88.25 -15.9 -88.6 M-15.85 -85.9 L-15.6 -86.35 -14.2 -85.65 -14.55 -85.0 -15.85 -85.9 M-13.7 -86.55 L-15.25 -87.15 -15.35 -87.55 -13.35 -87.0 -13.7 -86.55 M-15.05 -84.25 L-15.5 -83.75 -16.6 -85.0 -16.25 -85.35 -15.05 -84.25 M-17.25 -84.35 L-16.35 -83.15 -16.9 -82.9 -17.6 -84.0 -17.25 -84.35" fill="#06bedf" fill-rule="evenodd" stroke="none"/>
    <path d="M-18.45 -81.35 L-18.4 -81.65 -18.15 -82.7 -17.75 -81.75 -18.4 -81.15 -18.45 -81.35 M-17.8 -84.35 L-17.8 -84.5 -17.75 -84.75 -17.65 -84.85 -17.25 -84.35 -17.6 -84.0 -17.8 -84.35 M-17.25 -86.95 L-17.2 -87.15 -15.6 -86.35 -15.85 -85.9 -17.2 -86.85 -17.25 -86.95 M-17.1 -87.8 L-17.05 -87.95 -15.35 -87.55 -15.25 -87.15 -17.1 -87.8 M-16.95 -88.45 L-16.9 -88.65 -15.9 -88.6 -15.75 -88.25 -16.95 -88.45 M-14.9 -83.8 L-15.2 -83.3 -15.5 -83.75 -15.05 -84.25 -14.75 -84.05 -14.9 -83.8 M-12.35 -87.65 L-11.0 -88.45 -10.2 -88.35 Q-10.2 -88.0 -10.55 -87.3 L-12.35 -87.65 M-11.65 -86.6 L-12.05 -85.95 -13.7 -86.55 -13.35 -87.0 -11.65 -86.6 M-13.35 -85.15 L-13.7 -84.4 -14.55 -85.0 -14.2 -85.65 -13.35 -85.15 M-17.2 -85.6 L-17.05 -86.05 -16.25 -85.35 -16.6 -85.0 -17.2 -85.6 M-16.9 -82.9 L-16.35 -83.15 -16.2 -82.9 -16.6 -82.3 -16.9 -82.9" fill="#38fcc6" fill-rule="evenodd" stroke="none"/>
    <path d="M-17.5 -85.75 L-17.5 -85.95 -17.2 -85.6 -17.25 -85.45 -17.5 -85.75 M-17.3 -86.65 L-17.25 -86.9 -17.2 -86.85 -17.1 -86.5 -17.3 -86.65 M-15.75 -88.25 L-12.35 -87.65 -12.85 -87.4 -12.9 -87.4 -15.6 -87.95 -15.75 -88.25 M-15.3 -86.95 L-15.25 -87.15 -13.7 -86.55 -13.85 -86.35 -15.3 -86.95 M-14.7 -84.8 L-16.0 -85.65 -15.85 -85.9 -14.55 -85.0 -14.7 -84.8 M-16.6 -85.0 L-15.5 -83.75 -15.7 -83.65 -16.75 -84.75 -16.6 -85.0 M-17.6 -84.0 L-16.9 -82.9 -17.2 -82.85 -17.7 -83.7 -17.6 -84.0" fill="#04788c" fill-rule="evenodd" stroke="none"/>
    <path d="M-16.0 -88.8 L-10.85 -88.7 -11.0 -88.45 -15.9 -88.6 -16.0 -88.8" fill="#035563" fill-rule="evenodd" stroke="none"/>
    <path d="M-17.05 -80.9 L-16.8 -80.35 -17.2 -80.2 -17.4 -80.65 -17.05 -80.9" fill="#bcbcbc" fill-rule="evenodd" stroke="none"/>
    <path d="M-3.7 -84.25 L-2.95 -83.55 Q-2.35 -82.8 -2.3 -81.0 L-2.45 -79.9 Q-3.45 -80.65 -5.5 -81.1 L-8.4 -81.45 Q-7.4 -84.1 -5.25 -84.55 L-3.7 -84.25 M-3.95 -83.0 Q-3.95 -83.5 -4.3 -83.8 -4.7 -84.15 -5.2 -84.15 L-6.05 -83.7 -6.4 -82.85 Q-6.4 -82.4 -6.05 -82.1 -5.7 -81.8 -5.2 -81.85 -4.7 -81.85 -4.3 -82.2 -3.95 -82.55 -3.95 -83.0 M-6.2 -85.4 L-5.8 -85.2 -5.7 -85.1 -6.65 -84.8 -6.55 -85.0 -6.2 -85.4" fill="#fefa47" fill-rule="evenodd" stroke="none"/>
    <path d="M-5.25 -84.55 Q-7.4 -84.1 -8.4 -81.45 L-5.5 -81.1 Q-3.45 -80.65 -2.45 -79.9 L-2.3 -81.0 Q-2.35 -82.8 -2.95 -83.55 L-3.7 -84.25 Q-2.65 -83.85 -1.95 -82.6 -1.1 -81.0 -1.5 -79.05 L-2.45 -79.9 -2.85 -79.65 -3.05 -79.8 -4.4 -80.4 -6.0 -80.85 -8.05 -81.1 -8.4 -81.45 -8.5 -81.45 -8.9 -81.3 Q-8.1 -84.15 -5.25 -84.55" fill="#e7c421" fill-rule="evenodd" stroke="none"/>
    <path d="M-3.95 -83.0 Q-3.95 -82.55 -4.3 -82.2 -4.7 -81.85 -5.2 -81.85 -5.7 -81.8 -6.05 -82.1 -6.4 -82.4 -6.4 -82.85 L-6.05 -83.7 -5.2 -84.15 Q-4.7 -84.15 -4.3 -83.8 -3.95 -83.5 -3.95 -83.0" fill="#ffffaf" fill-rule="evenodd" stroke="none"/>
    <path d="M-0.9 -79.7 L-0.9 -79.65 -0.95 -79.35 -1.35 -78.35 -1.45 -78.25 -1.9 -78.1 -2.2 -78.6 -2.2 -78.65 -2.4 -79.35 -2.5 -79.55 -2.0 -79.25 -2.2 -78.65 Q-1.8 -78.7 -1.5 -79.05 -1.1 -81.0 -1.95 -82.6 -2.65 -83.85 -3.7 -84.25 L-5.25 -84.55 Q-8.1 -84.15 -8.9 -81.3 L-8.75 -80.75 -8.5 -80.5 -9.1 -80.15 -9.4 -80.5 -9.5 -81.0 -9.6 -81.8 -8.15 -83.7 -7.2 -84.65 -6.2 -86.05 Q-5.6 -86.05 -5.2 -85.45 L-3.5 -84.9 -2.5 -84.15 Q-1.6 -83.4 -1.45 -82.8 L-1.25 -82.2 -0.9 -81.05 -0.9 -79.7 M-6.0 -80.85 L-4.4 -80.4 -4.4 -80.35 -4.75 -80.35 -6.0 -80.85 M-3.05 -79.8 L-2.85 -79.65 -2.75 -79.65 -2.8 -79.6 -3.0 -79.7 -3.05 -79.8 M-6.2 -85.4 L-6.55 -85.0 -6.65 -84.8 -5.7 -85.1 -5.8 -85.2 -6.2 -85.4" fill="#e7971f" fill-rule="evenodd" stroke="none"/>
    <path d="M-8.9 -81.3 L-8.5 -81.45 -8.4 -81.45 -8.05 -81.1 -8.35 -81.1 -8.45 -80.45 -8.5 -80.5 -8.75 -80.75 -8.9 -81.3 M-2.85 -79.65 L-2.45 -79.9 -1.5 -79.05 Q-1.8 -78.7 -2.2 -78.65 L-2.0 -79.25 -2.5 -79.55 -2.75 -79.65 -2.85 -79.65" fill="#e7ae1f" fill-rule="evenodd" stroke="none"/>
    <path d="M0.4 -71.5 L-8.65 -71.85 -15.5 -72.9 -14.35 -73.45 -14.0 -72.65 Q-13.7 -72.65 -13.5 -73.0 L-13.8 -73.65 -9.45 -73.35 -5.4 -72.95 -5.25 -72.0 -4.85 -71.95 Q-4.75 -72.1 -4.8 -72.9 L-2.35 -72.35 0.4 -71.5" fill="#ff80d1" fill-rule="evenodd" stroke="none"/>
  </g>
</svg>
