<?xml version="1.0" encoding="UTF-8" standalone="no"?>
<svg xmlns:ffdec="https://www.free-decompiler.com/flash" xmlns:xlink="http://www.w3.org/1999/xlink" ffdec:objectType="shape" height="44.35px" width="50.0px" xmlns="http://www.w3.org/2000/svg">
  <g transform="matrix(1.0, 0.0, 0.0, 1.0, 0.0, 7.65)">
    <path d="M42.1 9.35 Q43.1 8.75 43.5 8.65 L44.25 9.4 43.5 10.3 42.45 9.15 42.1 9.35 M32.1 15.95 L31.4 14.4 Q31.4 13.65 33.0 11.5 34.8 9.0 36.25 9.0 36.55 9.0 36.85 9.25 L37.4 9.5 39.3 9.1 39.25 9.85 Q31.6 11.8 31.6 14.45 L32.1 15.95 M38.5 14.15 Q38.0 15.0 37.65 16.05 L36.25 19.65 35.1 18.45 34.15 17.1 33.65 15.9 Q33.15 14.95 33.15 14.5 L34.1 14.5 38.5 14.15" fill="#e3502b" fill-rule="evenodd" stroke="none"/>
    <path d="M39.3 9.1 L39.55 9.05 40.2 8.9 40.25 8.85 Q41.8 8.45 42.0 9.4 L42.1 9.35 42.45 9.15 43.5 10.3 42.15 11.65 Q39.85 13.95 39.25 15.35 L38.15 18.35 Q37.1 20.75 36.1 20.75 34.6 20.75 32.85 17.6 L32.7 17.2 32.1 15.95 31.6 14.45 Q31.6 11.8 39.25 9.85 L39.3 9.1 M33.15 14.5 Q33.15 14.95 33.65 15.9 L34.15 17.1 35.1 18.45 36.25 19.65 37.65 16.05 Q38.0 15.0 38.5 14.15 39.15 13.0 40.1 12.25 37.15 12.0 34.95 13.0 33.2 13.8 33.15 14.5" fill="#952d13" fill-rule="evenodd" stroke="none"/>
    <path d="M38.5 14.15 L34.1 14.5 33.15 14.5 Q33.2 13.8 34.95 13.0 37.15 12.0 40.1 12.25 39.15 13.0 38.5 14.15" fill="#af3516" fill-rule="evenodd" stroke="none"/>
    <path d="M38.9 6.9 L38.4 6.3 38.35 3.9 Q38.1 2.75 37.1 4.8 L35.35 7.35 Q34.5 8.45 34.5 9.4 L35.15 10.1 29.6 12.8 29.9 13.55 Q30.6 13.15 30.75 14.45 L30.75 15.1 30.65 15.65 30.35 16.25 Q30.0 16.9 30.25 17.55 L29.5 18.05 28.95 16.95 Q28.6 16.1 28.6 15.5 28.6 15.0 28.9 14.55 L29.3 14.5 29.7 14.45 30.0 14.4 Q29.85 13.35 29.0 13.2 28.0 13.05 28.0 14.45 L28.0 14.7 Q26.5 15.1 26.5 16.15 L28.75 21.65 28.75 22.3 28.5 22.15 Q27.7 21.85 26.6 22.95 26.75 23.95 26.5 26.05 L26.95 28.3 Q27.3 29.65 27.75 30.2 L27.5 32.05 27.5 33.2 27.35 30.7 Q26.9 28.2 26.15 28.25 L26.4 26.7 25.25 23.9 24.7 23.0 26.0 23.1 Q26.95 23.1 27.15 21.65 L27.25 19.6 Q27.25 18.5 26.85 18.45 L26.85 18.25 26.75 17.45 Q25.85 17.6 25.05 18.6 24.35 19.45 24.35 19.8 L24.55 20.4 24.65 20.5 Q24.0 21.45 24.0 22.2 24.0 22.85 24.15 22.95 L24.2 22.95 24.1 23.95 23.75 25.45 23.1 25.6 23.25 25.0 Q23.25 21.85 21.35 22.65 22.5 21.7 23.1 19.2 24.85 17.3 25.0 15.1 L26.25 15.2 Q27.1 15.2 27.15 14.45 L27.15 14.4 Q26.65 14.95 26.1 14.95 L25.25 14.2 24.5 13.4 Q24.5 12.75 25.2 12.0 25.9 11.3 25.9 10.45 25.9 9.7 26.1 9.55 L26.2 9.55 26.25 9.6 Q26.6 9.85 26.75 10.9 L26.75 11.65 27.6 11.95 28.3 11.8 28.25 12.25 28.35 12.95 28.6 12.65 Q28.75 12.4 29.1 12.4 29.75 12.4 30.35 11.85 31.0 11.3 31.0 10.7 L30.9 10.3 30.75 10.2 Q29.4 9.95 28.7 10.9 L28.5 11.3 28.5 11.0 27.95 9.9 Q27.3 8.95 26.6 8.7 26.85 7.35 28.15 6.0 29.4 4.7 29.4 4.2 L29.35 3.75 30.25 3.9 Q31.75 3.9 32.35 3.4 32.85 2.95 32.85 2.05 L32.75 1.45 Q30.95 0.9 29.85 1.9 29.1 2.6 29.1 3.15 L29.15 3.7 28.35 3.55 Q27.15 3.55 25.75 5.7 L25.65 5.85 Q24.05 4.9 22.9 7.0 22.9 5.8 22.55 5.6 23.1 4.7 24.1 3.75 L24.1 3.9 Q24.1 4.2 24.25 4.5 24.45 5.05 25.0 5.05 L27.25 3.65 29.35 2.2 Q29.35 1.6 29.25 1.9 L26.4 2.0 25.85 2.15 26.55 1.5 30.3 1.1 Q37.95 0.65 39.5 2.45 40.85 4.2 39.25 6.4 L38.9 6.9 M4.9 26.0 L5.05 26.45 4.0 26.45 4.9 26.0 M16.55 16.1 L16.95 15.3 17.1 15.45 16.7 15.85 16.55 16.1 M21.15 11.45 L21.9 9.75 21.75 10.85 21.8 11.3 21.15 11.45 M24.55 8.15 L24.25 7.55 Q24.3 6.9 25.1 6.55 L25.3 6.5 24.55 8.15 M24.65 8.75 L25.2 9.8 Q25.5 9.5 25.75 9.5 L25.9 9.5 25.9 9.85 25.25 10.8 23.25 11.9 22.6 11.15 Q23.85 9.4 24.65 8.8 L24.65 8.75 M23.85 17.0 L23.15 18.85 22.9 19.15 Q21.75 20.85 20.5 20.65 L20.0 20.55 19.9 20.1 Q19.9 18.05 21.9 16.5 23.2 15.45 23.65 16.05 L23.85 17.0 M18.6 24.7 L19.3 23.9 19.75 23.25 19.85 23.1 20.65 23.0 20.0 23.45 18.65 24.9 18.55 25.0 19.0 25.4 18.4 24.9 18.6 24.7" fill="#cdc7c2" fill-rule="evenodd" stroke="none"/>
    <path d="M35.15 10.1 L34.5 9.4 Q34.5 8.45 35.35 7.35 L37.1 4.8 Q38.1 2.75 38.35 3.9 L38.4 6.3 38.9 6.9 36.9 9.25 35.15 10.1 M25.65 5.85 L25.75 5.7 Q27.15 3.55 28.35 3.55 L29.15 3.7 29.1 3.15 Q29.1 2.6 29.85 1.9 30.95 0.9 32.75 1.45 L32.85 2.05 Q32.85 2.95 32.35 3.4 31.75 3.9 30.25 3.9 L29.35 3.75 29.4 4.2 Q29.4 4.7 28.15 6.0 26.85 7.35 26.6 8.7 27.3 8.95 27.95 9.9 L28.5 11.0 28.5 11.3 28.3 11.8 27.6 11.95 26.75 11.65 26.75 10.9 Q26.6 9.85 26.25 9.6 L26.2 9.55 26.1 9.55 25.9 9.5 25.75 9.5 Q25.5 9.5 25.2 9.8 L24.65 8.75 24.65 8.7 24.6 8.45 24.55 8.15 25.3 6.5 25.3 6.45 25.75 6.25 25.9 6.2 Q25.9 5.6 25.75 5.9 L25.65 5.85 M24.65 20.5 L24.55 20.4 24.35 19.8 Q24.35 19.45 25.05 18.6 25.85 17.6 26.75 17.45 L26.85 18.25 26.85 18.45 Q26.45 18.35 25.65 19.2 L24.65 20.5 M28.0 14.7 L28.0 14.45 Q28.0 13.05 29.0 13.2 29.85 13.35 30.0 14.4 L29.7 14.45 29.3 14.5 28.6 14.55 28.35 14.6 28.0 14.7" fill="#e7e4e2" fill-rule="evenodd" stroke="none"/>
    <path d="M26.55 1.5 L25.85 2.15 26.4 2.0 29.25 1.9 Q29.35 1.6 29.35 2.2 L27.25 3.65 25.0 5.05 Q24.45 5.05 24.25 4.5 24.1 4.2 24.1 3.9 L24.1 3.75 Q23.1 4.7 22.55 5.6 22.2 5.35 21.55 6.05 L21.4 6.2 Q20.3 7.45 19.6 9.05 L18.85 10.5 18.8 10.25 Q20.75 6.8 21.6 4.4 22.35 2.3 26.55 1.5 M22.9 7.0 Q24.05 4.9 25.65 5.85 L25.75 5.9 Q25.9 5.6 25.9 6.2 L25.75 6.25 25.3 6.45 25.3 6.5 25.1 6.55 Q24.3 6.9 24.25 7.55 L24.55 8.15 24.6 8.45 24.65 8.7 24.65 8.75 24.65 8.8 Q23.85 9.4 22.6 11.15 L23.25 11.9 25.25 10.8 25.9 9.85 25.9 9.5 26.1 9.55 Q25.9 9.7 25.9 10.45 25.9 11.3 25.2 12.0 24.5 12.75 24.5 13.4 L25.25 14.2 26.1 14.95 Q26.65 14.95 27.15 14.4 L27.15 14.45 Q27.1 15.2 26.25 15.2 L25.0 15.1 Q24.85 17.3 23.1 19.2 22.5 21.7 21.35 22.65 23.25 21.85 23.25 25.0 L23.1 25.6 Q21.85 25.9 18.6 27.15 L17.7 27.5 17.9 27.35 17.75 27.35 Q16.6 27.35 16.35 26.9 L16.35 26.25 Q16.35 25.25 18.45 23.75 L18.5 23.7 Q17.8 23.35 17.2 23.9 L16.0 25.1 14.0 26.15 13.85 25.85 13.8 25.8 14.0 25.7 Q13.2 25.65 12.5 25.0 L11.9 24.25 Q11.9 23.7 14.0 22.7 L15.8 21.9 15.95 22.25 15.95 22.15 15.9 22.05 Q15.7 21.55 15.25 21.55 13.25 22.45 12.5 22.45 L12.65 22.3 13.85 20.7 13.9 21.05 14.15 21.3 14.75 21.4 Q16.2 21.4 17.6 20.8 L17.5 20.55 17.5 19.55 Q17.5 17.95 20.15 16.15 22.0 14.9 22.55 15.7 L22.75 14.55 Q22.75 11.45 18.3 15.7 L13.95 20.6 13.9 20.6 16.05 16.9 16.4 16.35 16.55 16.1 16.7 15.85 17.1 15.45 17.35 15.6 17.75 15.65 Q19.2 15.65 21.15 11.45 L21.8 11.3 21.75 10.85 21.9 9.75 22.1 9.3 22.8 7.4 22.9 7.05 22.9 7.0 M28.5 11.3 L28.7 10.9 Q29.4 9.95 30.75 10.2 L30.9 10.3 31.0 10.7 Q31.0 11.3 30.35 11.85 29.75 12.4 29.1 12.4 28.75 12.4 28.6 12.65 L28.35 12.95 28.25 12.25 28.3 11.8 28.5 11.3 M23.75 25.45 L24.1 23.95 24.2 22.95 24.15 22.95 Q24.0 22.85 24.0 22.2 24.0 21.45 24.65 20.5 L25.65 19.2 Q26.45 18.35 26.85 18.45 27.25 18.5 27.25 19.6 L27.15 21.65 Q26.95 23.1 26.0 23.1 L24.7 23.0 25.25 23.9 26.4 26.7 26.15 28.25 25.95 28.35 25.9 28.35 Q24.2 29.45 23.05 29.75 L23.15 29.4 23.25 29.1 23.3 29.0 23.3 28.85 Q23.85 27.05 23.85 26.0 L23.75 25.45 M27.5 33.2 L27.5 32.05 27.75 30.2 Q27.3 29.65 26.95 28.3 L26.5 26.05 Q26.75 23.95 26.6 22.95 27.7 21.85 28.5 22.15 L28.75 22.3 28.75 21.65 26.5 16.15 Q26.5 15.1 28.0 14.7 L28.35 14.6 28.6 14.55 29.3 14.5 28.9 14.55 Q28.6 15.0 28.6 15.5 28.6 16.1 28.95 16.95 L29.5 18.05 30.25 17.55 Q30.0 16.9 30.35 16.25 L30.65 15.65 30.35 18.35 Q30.15 21.85 28.55 29.3 L27.5 33.2 M30.75 15.1 L30.75 14.45 Q30.6 13.15 29.9 13.55 L29.6 12.8 35.15 10.1 36.9 9.25 34.5 11.6 31.4 14.25 Q31.2 14.25 31.05 14.45 L30.75 15.1 M23.85 17.0 L23.65 16.05 Q23.2 15.45 21.9 16.5 19.9 18.05 19.9 20.1 L20.0 20.55 20.5 20.65 Q21.75 20.85 22.9 19.15 L23.15 18.85 23.85 17.0 M18.6 24.7 L18.4 24.9 19.0 25.4 18.55 25.0 18.65 24.9 20.0 23.45 20.65 23.0 19.85 23.1 19.75 23.25 19.3 23.9 18.6 24.7" fill="#a09489" fill-rule="evenodd" stroke="none"/>
    <path d="M38.9 6.9 L39.25 6.4 Q40.85 4.2 39.5 2.45 37.95 0.65 30.3 1.1 L26.55 1.5 Q22.35 2.3 21.6 4.4 20.75 6.8 18.8 10.25 L18.65 10.5 17.3 12.7 17.15 13.0 Q13.75 18.15 11.75 20.4 L11.7 20.4 Q10.2 22.0 7.1 22.75 L4.1 23.25 3.5 23.3 3.45 23.3 1.55 23.8 3.5 24.05 3.55 24.05 6.95 23.7 7.2 23.75 7.45 23.95 7.5 24.2 7.5 24.45 7.45 24.75 7.2 24.9 Q5.8 25.5 4.9 26.0 L4.0 26.45 5.05 26.45 8.4 26.45 11.9 25.7 12.0 25.7 13.5 25.7 13.8 25.8 13.85 25.85 14.0 26.15 14.0 27.7 13.9 28.05 12.85 29.2 12.9 29.2 16.6 28.4 17.75 28.1 17.7 28.1 Q21.0 27.1 21.65 27.0 L21.95 27.0 22.2 27.2 22.25 27.5 21.25 30.95 22.55 30.95 22.65 30.9 22.65 30.85 23.85 30.2 25.1 29.75 25.4 29.75 25.65 29.9 25.7 30.0 25.85 30.1 26.0 30.4 26.45 35.4 27.25 33.9 27.5 33.3 27.5 33.25 27.5 33.2 28.55 29.3 Q30.15 21.85 30.35 18.35 L30.65 15.65 30.75 15.1 31.05 14.45 Q31.2 14.25 31.4 14.25 L34.5 11.6 36.9 9.25 38.9 6.9 M40.05 7.0 Q38.25 9.55 35.2 12.35 L31.5 15.25 31.45 15.25 31.35 18.4 Q31.15 21.95 29.55 29.5 28.5 34.5 26.9 36.5 L26.75 36.65 26.5 36.7 26.0 36.7 25.65 36.6 25.5 36.25 25.05 30.85 25.05 30.8 25.0 30.85 24.2 31.15 23.1 31.8 22.75 31.95 20.5 31.95 20.2 31.85 20.05 31.6 20.05 31.3 21.1 28.15 18.0 29.05 13.1 30.2 13.0 30.2 11.75 30.2 11.45 30.1 11.25 29.8 11.35 29.45 13.0 27.5 13.0 26.7 12.1 26.7 8.6 27.45 8.5 27.45 3.0 27.45 2.65 27.3 2.55 27.15 2.4 27.05 2.25 26.75 Q2.25 26.5 2.4 26.4 2.75 25.95 4.75 25.0 L3.6 25.05 Q1.4 25.2 0.2 24.1 L0.0 23.8 0.05 23.5 0.3 23.25 Q1.65 22.5 3.4 22.3 L3.45 22.3 4.0 22.25 6.85 21.8 Q9.6 21.1 11.0 19.75 L11.0 19.7 Q12.95 17.5 16.3 12.45 19.55 7.3 20.65 4.1 21.65 0.5 30.25 0.1 38.65 -0.35 40.3 1.85 42.15 4.1 40.05 7.0" fill="#463f39" fill-rule="evenodd" stroke="none"/>
    <path d="M22.55 5.6 Q22.9 5.8 22.9 7.0 L22.9 7.05 22.8 7.4 22.1 9.3 21.9 9.75 21.15 11.45 Q19.2 15.65 17.75 15.65 L17.35 15.6 17.1 15.45 16.95 15.3 16.55 16.1 16.4 16.35 16.05 16.9 13.9 20.6 13.95 20.6 18.3 15.7 Q22.75 11.45 22.75 14.55 L22.55 15.7 Q22.0 14.9 20.15 16.15 17.5 17.95 17.5 19.55 L17.5 20.55 17.6 20.8 Q16.2 21.4 14.75 21.4 L14.15 21.3 13.9 21.05 13.85 20.7 12.65 22.3 12.5 22.45 Q13.25 22.45 15.25 21.55 15.7 21.55 15.9 22.05 L15.95 22.15 15.95 22.25 15.8 21.9 14.0 22.7 Q11.9 23.7 11.9 24.25 L12.5 25.0 Q13.2 25.65 14.0 25.7 L13.8 25.8 13.5 25.7 12.0 25.7 11.9 25.7 8.4 26.45 5.05 26.45 4.9 26.0 Q5.8 25.5 7.2 24.9 L7.45 24.75 7.5 24.45 7.5 24.2 7.45 23.95 7.2 23.75 6.95 23.7 3.55 24.05 3.5 24.05 1.55 23.8 3.45 23.3 3.5 23.3 4.1 23.25 7.1 22.75 Q10.2 22.0 11.7 20.4 L11.75 20.4 Q13.75 18.15 17.15 13.0 L17.3 12.7 18.65 10.5 18.8 10.25 18.85 10.5 19.6 9.05 Q20.3 7.45 21.4 6.2 L21.55 6.05 Q22.2 5.35 22.55 5.6 M23.1 25.6 L23.75 25.45 23.85 26.0 Q23.85 27.05 23.3 28.85 L23.3 29.0 23.25 29.1 23.15 29.4 23.05 29.75 Q24.2 29.45 25.9 28.35 L25.95 28.35 26.15 28.25 Q26.9 28.2 27.35 30.7 L27.5 33.2 27.5 33.25 27.5 33.3 27.25 33.9 26.45 35.4 26.0 30.4 25.85 30.1 25.7 30.0 25.65 29.9 25.4 29.75 25.1 29.75 23.85 30.2 22.65 30.85 22.65 30.9 22.55 30.95 21.25 30.95 22.25 27.5 22.2 27.2 21.95 27.0 21.65 27.0 Q21.0 27.1 17.7 28.1 L17.75 28.1 16.6 28.4 12.9 29.2 12.85 29.2 13.9 28.05 14.0 27.7 14.0 26.15 16.0 25.1 17.2 23.9 Q17.8 23.35 18.5 23.7 L18.45 23.75 Q16.35 25.25 16.35 26.25 L16.35 26.9 Q16.6 27.35 17.75 27.35 L17.9 27.35 17.7 27.5 18.6 27.15 Q21.85 25.9 23.1 25.6" fill="#70645a" fill-rule="evenodd" stroke="none"/>
    <path d="M38.3 5.55 Q37.55 6.0 37.0 6.95 36.2 8.3 36.2 9.25 L36.25 9.55 Q36.3 10.1 36.8 10.1 L36.9 10.1 36.85 10.15 36.95 10.1 38.3 9.2 38.4 9.15 39.0 8.95 39.0 8.9 39.75 8.75 42.6 8.5 47.35 9.1 48.2 9.5 48.8 9.55 49.1 9.35 48.15 8.1 47.0 7.15 Q46.5 6.8 45.45 6.4 44.2 5.85 43.3 5.75 L44.1 6.15 42.5 5.55 42.15 5.5 40.65 5.25 40.65 5.1 40.35 5.0 40.15 5.0 Q39.1 5.0 38.3 5.55 M36.35 5.8 Q38.15 3.6 42.6 4.55 45.4 5.15 47.7 6.85 50.0 8.55 50.0 10.05 50.0 10.8 49.25 10.75 L44.3 10.4 Q41.8 10.4 39.9 11.0 L37.6 11.6 Q35.7 11.6 35.25 11.0 L35.15 10.45 35.15 10.2 Q35.15 7.3 36.35 5.8" fill="#83710a" fill-rule="evenodd" stroke="none"/>
    <path d="M38.3 5.55 L38.85 5.8 39.15 6.0 40.2 6.15 41.9 5.8 42.5 5.55 44.1 6.15 43.3 5.75 Q44.2 5.85 45.45 6.4 46.5 6.8 47.0 7.15 L48.15 8.1 49.1 9.35 48.8 9.55 48.2 9.5 Q47.7 8.9 45.3 8.35 L39.3 7.65 38.45 7.7 38.2 7.8 Q37.7 7.85 37.55 8.0 L36.85 8.55 Q36.3 8.95 36.25 9.55 L36.2 9.25 Q36.2 8.3 37.0 6.95 37.55 6.0 38.3 5.55 M39.75 8.75 L39.0 8.9 39.0 8.75 39.75 8.75" fill="#f1d06b" fill-rule="evenodd" stroke="none"/>
    <path d="M42.5 5.55 L41.9 5.8 40.2 6.15 39.15 6.0 38.85 5.8 38.3 5.55 Q39.1 5.0 40.15 5.0 L40.35 5.0 40.65 5.1 40.65 5.25 42.15 5.5 42.5 5.55 M36.25 9.55 Q36.3 8.95 36.85 8.55 L37.55 8.0 Q37.7 7.85 38.2 7.8 L38.45 7.7 39.3 7.65 45.3 8.35 Q47.7 8.9 48.2 9.5 L47.35 9.1 42.6 8.5 39.75 8.75 39.0 8.75 39.0 8.9 39.0 8.95 38.4 9.15 38.3 9.2 36.95 10.1 36.9 10.0 36.9 10.1 36.8 10.1 Q36.3 10.1 36.25 9.55" fill="#e2a71d" fill-rule="evenodd" stroke="none"/>
    <path d="M35.15 10.45 L34.75 11.0 Q34.3 10.7 34.3 9.7 L34.3 8.75 34.9 7.55 35.65 6.6 36.35 5.8 Q35.15 7.3 35.15 10.2 L35.15 10.45" fill="#a09489" fill-rule="evenodd" stroke="none"/>
    <path d="M28.45 -7.15 L28.1 -7.15 Q28.15 -6.1 28.85 -4.7 L30.0 -2.65 Q29.25 -2.85 28.75 -2.65 L28.55 -2.85 28.5 -2.9 Q27.15 -4.2 26.2 -4.45 L26.3 -4.4 26.4 -4.35 26.45 -4.3 26.6 -4.15 26.65 -4.15 26.7 -4.1 Q27.65 -3.0 27.6 -0.3 L27.6 0.0 27.8 0.0 28.0 0.0 31.65 0.2 32.5 0.3 33.65 0.4 34.5 0.5 Q37.65 0.9 38.55 1.65 L39.55 2.8 Q40.2 3.55 41.85 4.0 41.45 0.1 38.25 -1.7 L37.6 -2.05 37.4 -2.15 37.55 -2.0 37.65 -1.5 37.6 -1.0 37.55 -0.95 34.65 -3.5 Q31.5 -5.95 31.5 -4.3 L31.75 -3.65 31.6 -3.7 31.15 -4.8 31.1 -4.9 31.2 -4.9 30.9 -5.5 31.1 -6.25 31.5 -6.9 33.2 -5.75 33.75 -5.1 Q34.85 -5.95 35.85 -4.4 L36.5 -3.25 36.55 -3.3 37.0 -3.4 Q39.4 -3.4 41.5 0.25 42.55 2.1 43.1 4.0 43.1 5.6 42.1 5.6 40.5 5.6 39.45 4.9 L37.6 3.35 Q34.6 1.15 26.85 1.25 26.05 1.25 26.15 0.1 L26.35 -1.75 Q26.3 -2.4 25.5 -3.3 24.75 -4.25 24.75 -4.75 24.75 -6.35 27.45 -4.85 L29.05 -3.9 28.85 -4.2 Q27.15 -6.55 27.15 -6.95 L27.25 -7.65 28.45 -7.15" fill="#5e1f0f" fill-rule="evenodd" stroke="none"/>
    <path d="M37.55 -0.95 L37.6 -1.0 37.65 -1.5 37.55 -2.0 37.6 -2.05 38.25 -1.7 38.0 -1.45 37.25 0.5 Q36.65 0.5 36.3 -0.1 35.95 -0.75 35.25 -0.75 L34.7 -0.65 Q34.6 -0.5 34.5 -0.5 L34.5 0.5 33.65 0.4 33.25 -0.3 Q32.6 -1.15 31.75 -1.0 L31.65 -0.65 32.5 0.3 31.65 0.2 31.55 0.05 30.5 -1.0 Q30.2 -1.0 28.55 -2.85 L28.75 -2.65 Q29.9 -1.75 30.85 -1.75 31.5 -1.75 31.65 -2.0 L31.65 -2.2 34.0 -0.5 34.5 -0.65 34.6 -1.0 33.05 -2.95 34.25 -2.2 Q36.55 -0.75 36.85 -0.75 L37.55 -0.95 M27.8 0.0 L27.6 0.0 27.6 -0.3 27.8 0.0" fill="#e3502b" fill-rule="evenodd" stroke="none"/>
    <path d="M31.6 -3.7 L31.75 -3.65 32.55 -3.25 33.05 -2.95 34.6 -1.0 34.5 -0.65 34.0 -0.5 31.65 -2.2 31.4 -3.8 31.45 -3.8 31.5 -3.75 31.6 -3.7 M38.25 -1.7 Q41.45 0.1 41.85 4.0 40.2 3.55 39.55 2.8 L38.55 1.65 Q37.65 0.9 34.5 0.5 L34.5 -0.5 Q34.6 -0.5 34.7 -0.65 L35.25 -0.75 Q35.95 -0.75 36.3 -0.1 36.65 0.5 37.25 0.5 L38.0 -1.45 38.25 -1.7 M33.65 0.4 L32.5 0.3 31.65 -0.65 31.75 -1.0 Q32.6 -1.15 33.25 -0.3 L33.65 0.4 M31.65 0.2 L28.0 0.0 27.8 0.0 27.6 -0.3 Q27.65 -3.0 26.7 -4.1 L26.65 -4.15 26.6 -4.15 26.45 -4.3 26.4 -4.35 26.3 -4.4 26.2 -4.45 Q27.15 -4.2 28.5 -2.9 L28.55 -2.85 Q30.2 -1.0 30.5 -1.0 L31.55 0.05 31.65 0.2" fill="#af3516" fill-rule="evenodd" stroke="none"/>
    <path d="M28.75 -2.65 Q29.25 -2.85 30.0 -2.65 L28.85 -4.7 Q28.15 -6.1 28.1 -7.15 L28.45 -7.15 30.2 -5.15 30.5 -4.65 30.5 -4.75 30.65 -4.8 31.1 -4.9 31.15 -4.8 31.6 -3.7 31.5 -3.75 31.45 -3.8 31.4 -3.8 31.65 -2.2 31.65 -2.0 Q31.5 -1.75 30.85 -1.75 29.9 -1.75 28.75 -2.65 M31.75 -3.65 L31.5 -4.3 Q31.5 -5.95 34.65 -3.5 L37.55 -0.95 36.85 -0.75 Q36.55 -0.75 34.25 -2.2 L33.05 -2.95 32.55 -3.25 31.75 -3.65 M34.15 -3.7 L34.3 -3.6 34.2 -3.85 34.15 -3.7" fill="#952d13" fill-rule="evenodd" stroke="none"/>
    <path d="M32.25 4.75 Q32.25 3.2 30.2 3.25 28.1 3.3 28.1 5.75 28.1 7.0 29.25 7.0 31.0 7.0 31.75 6.05 32.25 5.4 32.25 4.75 M27.8 3.55 Q28.45 2.15 30.25 2.15 33.15 2.2 33.15 4.7 33.15 5.8 32.6 6.65 L32.25 7.1 Q31.45 7.9 30.1 7.9 27.8 7.9 27.35 6.85 L27.35 5.75 27.35 5.65 27.35 5.55 27.35 5.45 27.35 5.25 27.35 5.2 27.35 5.15 Q27.45 4.2 27.8 3.55" fill="#666666" fill-rule="evenodd" stroke="none"/>
    <path d="M32.25 4.75 Q32.25 5.4 31.75 6.05 31.0 7.0 29.25 7.0 28.1 7.0 28.1 5.75 28.1 3.3 30.2 3.25 32.25 3.2 32.25 4.75 M31.9 4.0 Q30.4 3.8 30.4 4.8 30.4 5.75 31.35 5.75 L31.9 5.65 32.0 4.8 31.9 4.0" fill="#ffffff" fill-rule="evenodd" stroke="none"/>
    <path d="M31.9 4.0 L32.0 4.8 31.9 5.65 31.35 5.75 Q30.4 5.75 30.4 4.8 30.4 3.8 31.9 4.0" fill="#333333" fill-rule="evenodd" stroke="none"/>
    <path d="M32.25 7.1 L31.65 7.8 Q30.65 8.65 29.0 8.65 27.65 8.65 27.1 7.3 26.8 6.6 26.8 5.8 26.8 5.1 27.5 3.8 28.0 2.85 28.35 2.8 28.0 3.1 27.8 3.55 27.45 4.2 27.35 5.15 L27.35 5.2 27.35 5.25 27.35 5.45 27.35 5.55 27.35 5.65 27.35 5.75 27.35 6.85 Q27.8 7.9 30.1 7.9 31.45 7.9 32.25 7.1" fill="#a09489" fill-rule="evenodd" stroke="none"/>
  </g>
</svg>
