<?xml version="1.0" encoding="UTF-8" standalone="no"?>
<svg xmlns:ffdec="https://www.free-decompiler.com/flash" xmlns:xlink="http://www.w3.org/1999/xlink" ffdec:objectType="shape" height="64.4px" width="71.9px" xmlns="http://www.w3.org/2000/svg">
  <g transform="matrix(1.0, 0.0, 0.0, 1.0, 35.95, 32.2)">
    <path d="M-18.7 -32.2 Q-17.75 -32.25 -16.9 -31.7 L-12.9 -29.15 0.9 -28.3 1.2 -28.25 Q2.75 -28.0 3.95 -27.1 L6.95 -27.95 7.1 -27.95 Q12.5 -28.9 16.05 -25.5 L17.45 -26.3 17.5 -26.3 Q23.55 -29.15 28.8 -25.05 L28.75 -25.1 Q30.4 -23.9 31.5 -22.15 L31.5 -22.1 Q33.75 -18.5 32.15 -15.1 L32.0 -14.8 32.4 -14.65 Q34.15 -13.8 34.6 -11.45 L34.6 -11.55 Q35.65 -6.5 33.5 -2.1 L33.55 -2.05 Q35.65 -0.35 35.85 2.3 L35.85 2.35 Q36.3 7.65 34.1 12.25 L34.1 12.3 31.5 18.15 Q30.1 21.45 27.55 23.1 L26.05 24.6 26.15 24.5 23.3 26.4 23.15 26.5 21.25 27.4 Q20.45 29.1 18.45 29.6 13.75 31.35 8.75 32.05 L8.65 32.05 4.45 32.2 4.4 32.2 Q-0.8 32.15 -5.6 30.3 L-5.7 30.25 -7.2 29.75 Q-10.55 29.55 -11.95 27.4 -14.95 26.7 -16.2 23.9 -19.65 22.15 -21.15 18.25 L-21.15 18.2 Q-23.55 15.5 -24.15 12.05 -25.4 10.25 -25.5 7.85 L-25.7 5.55 Q-26.15 2.9 -25.9 0.3 -27.15 1.0 -28.7 1.1 L-29.25 1.1 Q-35.8 0.5 -35.95 -6.4 -35.95 -7.35 -35.45 -8.1 L-26.65 -21.95 Q-27.0 -23.85 -26.55 -25.65 -25.25 -31.85 -18.7 -32.2 M29.9 -17.75 L29.9 -18.1 Q29.95 -20.95 27.1 -22.9 24.7 -24.6 22.1 -24.6 20.3 -24.6 18.7 -23.7 L18.7 -23.75 Q17.45 -23.1 15.45 -21.5 14.4 -23.1 12.95 -24.05 L13.0 -24.05 Q11.05 -25.4 8.75 -25.4 8.15 -25.45 6.65 -24.9 L6.7 -24.9 5.2 -24.55 Q4.85 -24.7 3.3 -23.25 L3.15 -23.5 2.15 -24.75 1.85 -24.95 0.7 -25.3 0.4 -25.35 -13.85 -26.2 -15.45 -27.45 -15.5 -27.5 Q-17.8 -29.3 -18.55 -29.2 -20.5 -29.2 -21.95 -28.2 -24.1 -26.8 -23.9 -23.8 L-23.9 -23.65 -23.45 -21.4 -23.7 -21.25 -23.8 -21.1 Q-33.1 -7.6 -32.95 -6.5 L-32.9 -5.75 Q-32.75 -4.1 -31.85 -3.1 -30.8 -1.9 -28.95 -1.9 -27.9 -1.8 -26.55 -3.2 -26.05 -3.8 -26.05 -3.95 L-25.05 -3.75 -22.15 -3.45 -22.2 -3.35 -22.25 -3.3 -22.5 -2.65 -22.55 -2.5 -22.55 -2.45 -22.85 -0.8 -22.85 0.05 -22.85 0.1 -22.85 0.2 -22.7 5.45 Q-22.5 9.0 -21.95 9.95 L-21.3 10.8 -21.3 11.65 -21.3 11.8 Q-21.25 13.0 -18.8 16.05 L-18.0 17.8 Q-17.15 19.7 -16.3 20.25 L-15.05 20.6 -14.2 21.2 -13.85 22.0 -13.8 22.05 -12.95 23.55 -12.85 23.65 Q-12.75 23.9 -9.9 24.65 L-9.95 24.95 -9.9 25.05 Q-9.25 26.25 -8.2 26.4 -6.15 26.75 2.45 29.5 L2.75 29.55 10.55 28.6 15.5 27.6 Q16.9 27.65 18.4 26.15 L18.7 25.45 18.75 25.3 18.8 25.2 19.4 24.9 19.45 24.85 Q21.15 24.75 23.0 23.25 L23.0 23.2 25.45 20.8 25.95 20.7 Q26.45 20.45 27.6 18.65 L27.65 18.6 28.65 16.5 30.85 12.1 30.8 12.15 Q32.9 7.5 33.1 4.1 L33.1 3.5 Q33.1 1.35 31.7 0.2 L30.1 -1.35 29.75 -1.75 31.2 -4.55 Q32.05 -6.5 32.1 -8.0 L32.1 -8.1 32.1 -8.95 32.1 -9.05 32.1 -9.95 32.1 -10.05 Q31.8 -12.3 30.3 -12.1 30.55 -12.3 28.95 -14.95 L28.7 -15.3 29.1 -16.2 29.15 -16.25 29.9 -17.75" fill="#ffffff" fill-rule="evenodd" stroke="none"/>
    <path d="M-23.9 -23.8 Q-24.1 -26.8 -21.95 -28.2 -20.5 -29.2 -18.55 -29.2 -17.8 -29.3 -15.5 -27.5 L-15.45 -27.45 -13.85 -26.2 0.4 -25.35 0.7 -25.3 1.85 -24.95 2.15 -24.75 3.15 -23.5 3.3 -23.25 Q4.85 -24.7 5.2 -24.55 L6.7 -24.9 6.65 -24.9 Q8.15 -25.45 8.75 -25.4 11.05 -25.4 13.0 -24.05 L12.95 -24.05 Q14.4 -23.1 15.45 -21.5 17.45 -23.1 18.7 -23.75 L18.7 -23.7 Q20.3 -24.6 22.1 -24.6 24.7 -24.6 27.1 -22.9 29.95 -20.95 29.9 -18.1 L29.9 -17.75 Q29.6 -20.2 27.1 -21.9 24.7 -23.6 22.1 -23.6 20.3 -23.6 18.7 -22.7 L18.7 -22.75 Q17.45 -22.1 15.45 -20.5 14.4 -22.1 12.95 -23.05 L13.0 -23.05 Q11.05 -24.4 8.75 -24.4 8.15 -24.45 6.65 -23.9 L6.7 -23.9 5.2 -23.55 Q4.85 -23.7 3.3 -22.25 L3.15 -22.5 2.15 -23.75 1.85 -23.95 0.7 -24.3 0.4 -24.35 -13.85 -25.2 -15.45 -26.45 -15.5 -26.5 Q-17.8 -28.3 -18.55 -28.2 -20.5 -28.2 -21.95 -27.2 -23.75 -26.05 -23.9 -23.8 M28.95 -14.95 Q30.55 -12.3 30.3 -12.1 31.8 -12.3 32.1 -10.05 L32.1 -9.95 32.1 -9.05 Q31.8 -11.3 30.3 -11.1 30.55 -11.3 28.7 -14.3 L28.95 -14.95 M30.1 -1.35 L31.7 0.2 Q33.1 1.35 33.1 3.5 L33.1 4.1 Q32.95 2.25 31.7 1.2 L29.75 -0.75 30.1 -1.35 M-22.85 0.05 L-22.85 -0.8 -22.55 -2.45 -22.15 -2.45 -22.2 -2.35 -22.25 -2.3 -22.5 -1.65 -22.55 -1.5 -22.85 0.05 M-32.9 -5.75 L-32.95 -6.5 Q-33.1 -7.6 -23.8 -21.1 L-23.7 -21.25 -23.45 -20.4 -23.7 -20.25 -23.8 -20.1 Q-32.35 -7.65 -32.9 -5.75" fill="#b1b1b1" fill-rule="evenodd" stroke="none"/>
    <path d="M-23.9 -23.8 Q-23.75 -26.05 -21.95 -27.2 -20.5 -28.2 -18.55 -28.2 -17.8 -28.3 -15.5 -26.5 L-15.45 -26.45 -13.85 -25.2 0.4 -24.35 0.7 -24.3 1.85 -23.95 2.15 -23.75 3.15 -22.5 3.3 -22.25 Q4.85 -23.7 5.2 -23.55 L6.7 -23.9 6.65 -23.9 Q8.15 -24.45 8.75 -24.4 11.05 -24.4 13.0 -23.05 L12.95 -23.05 Q14.4 -22.1 15.45 -20.5 17.45 -22.1 18.7 -22.75 L18.7 -22.7 Q20.3 -23.6 22.1 -23.6 24.7 -23.6 27.1 -21.9 29.6 -20.2 29.9 -17.75 L29.15 -16.25 29.1 -16.2 28.7 -15.3 28.95 -14.95 28.7 -14.3 Q30.55 -11.3 30.3 -11.1 31.8 -11.3 32.1 -9.05 L32.1 -8.95 32.1 -8.1 32.1 -8.0 Q32.05 -6.5 31.2 -4.55 L29.75 -1.75 30.1 -1.35 29.75 -0.75 31.7 1.2 Q32.95 2.25 33.1 4.1 32.9 7.5 30.8 12.15 L30.85 12.1 28.65 16.5 27.65 18.6 27.6 18.65 Q26.45 20.45 25.95 20.7 L25.45 20.8 23.0 23.2 23.0 23.25 Q21.15 24.75 19.45 24.85 L19.4 24.9 18.8 25.2 18.75 25.3 18.7 25.45 18.4 26.15 Q16.9 27.65 15.5 27.6 L10.55 28.6 2.75 29.55 2.45 29.5 Q-6.15 26.75 -8.2 26.4 -9.25 26.25 -9.9 25.05 L-9.95 24.95 -9.9 24.65 Q-12.75 23.9 -12.85 23.65 L-12.95 23.55 -13.8 22.05 -13.85 22.0 -14.2 21.2 -15.05 20.6 -16.3 20.25 Q-17.15 19.7 -18.0 17.8 L-18.8 16.05 Q-21.25 13.0 -21.3 11.8 L-21.3 11.65 -21.3 10.8 -21.95 9.95 Q-22.5 9.0 -22.7 5.45 L-22.85 0.2 -22.85 0.1 -22.85 0.05 -22.55 -1.5 -22.5 -1.65 -22.25 -2.3 -22.2 -2.35 -22.15 -2.45 -22.55 -2.45 -22.55 -2.5 -22.5 -2.65 -22.25 -3.3 -22.2 -3.35 -22.15 -3.45 -25.05 -3.75 -26.05 -3.95 Q-26.05 -3.8 -26.55 -3.2 -27.9 -1.8 -28.95 -1.9 -30.8 -1.9 -31.85 -3.1 -32.75 -4.1 -32.9 -5.75 -32.35 -7.65 -23.8 -20.1 L-23.7 -20.25 -23.45 -20.4 -23.7 -21.25 -23.45 -21.4 -23.9 -23.65 -23.9 -23.8" fill="#e5e5e5" fill-rule="evenodd" stroke="none"/>
  </g>
</svg>
