<?xml version="1.0" encoding="UTF-8" standalone="no"?>
<svg xmlns:ffdec="https://www.free-decompiler.com/flash" xmlns:xlink="http://www.w3.org/1999/xlink" ffdec:objectType="shape" height="74.9px" width="74.9px" xmlns="http://www.w3.org/2000/svg">
  <g transform="matrix(1.0, 0.0, 0.0, 1.0, 22.55, 18.85)">
    <path d="M14.9 -18.85 Q22.85 -18.85 29.6 -15.95 36.0 -13.25 41.35 -7.9 52.35 3.05 52.35 18.6 52.35 34.1 41.35 45.05 36.75 49.65 31.4 52.35 23.9 56.05 14.9 56.05 -0.65 56.05 -11.6 45.05 -22.55 34.1 -22.55 18.6 L-22.55 18.45 Q-22.5 3.0 -11.6 -7.9 -3.75 -15.75 6.45 -17.95 L14.9 -18.85 M10.5 53.95 L15.5 54.15 Q24.5 54.15 31.7 50.25 36.9 47.35 41.15 42.4 50.2 31.85 50.2 18.6 50.2 6.45 42.3 -3.9 32.3 -17.0 14.6 -17.0 6.0 -17.0 -2.15 -13.0 -11.45 -8.55 -15.05 -1.05 -18.0 2.05 -19.65 8.85 -20.95 14.15 -20.95 18.6 L-20.95 19.5 Q-20.75 28.75 -16.35 36.05 -11.7 43.7 -1.7 50.3 0.5 51.35 2.9 52.05 L10.5 53.95" fill="#aa6a40" fill-rule="evenodd" stroke="none"/>
    <path d="M10.5 53.95 Q23.55 53.0 32.8 44.85 L34.2 43.5 Q43.95 33.95 43.95 20.75 43.95 19.5 40.8 5.6 40.8 5.15 41.2 4.95 L41.5 4.25 38.85 1.15 31.7 -6.0 Q29.0 -8.45 24.3 -10.55 17.65 -13.45 10.6 -13.45 2.1 -13.45 -3.9 -10.15 -8.5 -7.65 -15.05 -1.05 -11.45 -8.55 -2.15 -13.0 6.0 -17.0 14.6 -17.0 32.3 -17.0 42.3 -3.9 50.2 6.45 50.2 18.6 50.2 31.85 41.15 42.4 36.9 47.35 31.7 50.25 24.5 54.15 15.5 54.15 L10.5 53.95" fill="#f1b67a" fill-rule="evenodd" stroke="none"/>
    <path d="M-15.05 -1.05 Q-8.5 -7.65 -3.9 -10.15 2.1 -13.45 10.6 -13.45 17.65 -13.45 24.3 -10.55 29.0 -8.45 31.7 -6.0 L38.85 1.15 41.5 4.25 41.2 4.95 Q40.8 5.15 40.8 5.6 43.95 19.5 43.95 20.75 43.95 33.95 34.2 43.5 L32.8 44.85 Q23.55 53.0 10.5 53.95 L2.9 52.05 Q0.5 51.35 -1.7 50.3 -11.7 43.7 -16.35 36.05 -20.75 28.75 -20.95 19.5 L-20.95 18.6 Q-20.95 14.15 -19.65 8.85 -18.0 2.05 -15.05 -1.05 M26.15 43.15 Q29.05 40.9 31.15 38.65 L31.15 38.3 Q31.15 37.65 32.0 36.1 L32.85 34.6 32.55 29.35 32.3 27.35 Q30.45 23.05 30.0 21.0 L29.85 19.95 29.9 19.3 Q28.95 17.55 28.65 14.8 L28.6 14.35 Q28.05 14.8 27.15 14.85 L26.7 13.45 24.1 16.45 Q22.15 18.25 18.85 18.25 18.3 18.25 18.25 17.85 L18.0 16.7 17.3 17.8 Q16.5 18.9 15.85 18.9 14.9 18.9 14.35 16.05 13.45 18.65 11.05 19.8 8.75 20.85 6.75 20.9 L4.95 18.75 3.9 20.6 Q3.35 21.15 0.8 21.9 -0.2 21.45 -0.5 19.75 -1.3 21.45 -3.4 22.85 -3.85 23.55 -5.25 22.6 -6.7 21.6 -7.25 20.55 L-7.7 21.25 Q-8.3 21.95 -8.85 21.95 L-10.85 19.0 -11.8 20.6 Q-11.55 26.9 -9.75 32.85 -4.5 49.95 11.9 49.95 L13.8 49.8 Q19.95 47.9 26.15 43.15" fill="#ffce9d" fill-rule="evenodd" stroke="none"/>
    <path d="M26.15 43.15 Q19.95 47.9 13.8 49.8 L11.9 49.95 Q-4.5 49.95 -9.75 32.85 -11.55 26.9 -11.8 20.6 L-10.85 19.0 -8.85 21.95 Q-8.3 21.95 -7.7 21.25 L-7.25 20.55 Q-6.7 21.6 -5.25 22.6 -3.85 23.55 -3.4 22.85 -1.3 21.45 -0.5 19.75 -0.2 21.45 0.8 21.9 3.35 21.15 3.9 20.6 L4.95 18.75 6.75 20.9 Q8.75 20.85 11.05 19.8 13.45 18.65 14.35 16.05 14.9 18.9 15.85 18.9 16.5 18.9 17.3 17.8 L18.0 16.7 18.25 17.85 Q18.3 18.25 18.85 18.25 22.15 18.25 24.1 16.45 L26.7 13.45 27.15 14.85 Q28.05 14.8 28.6 14.35 L28.65 14.8 Q28.95 17.55 29.9 19.3 L29.85 19.95 30.0 21.0 Q30.45 23.05 32.3 27.35 L32.55 29.35 32.85 34.6 32.0 36.1 Q31.15 37.65 31.15 38.3 L31.15 38.65 Q29.05 40.9 26.15 43.15" fill="#ffdfbf" fill-rule="evenodd" stroke="none"/>
  </g>
</svg>
