<?xml version="1.0" encoding="UTF-8" standalone="no"?>
<svg xmlns:ffdec="https://www.free-decompiler.com/flash" xmlns:xlink="http://www.w3.org/1999/xlink" ffdec:objectType="shape" height="66.25px" width="84.45px" xmlns="http://www.w3.org/2000/svg">
  <g transform="matrix(1.0, 0.0, 0.0, 1.0, 55.5, 52.1)">
    <path d="M25.0 -26.85 L25.05 -27.15 20.4 -28.2 Q20.2 -28.3 16.75 -30.05 L14.5 -32.0 14.25 -32.35 19.8 -29.95 20.1 -29.9 Q18.7 -35.1 5.45 -42.0 -6.1 -48.0 -8.9 -48.0 L-13.2 -47.3 -5.65 -42.0 -1.15 -38.95 -0.9 -38.8 Q-10.05 -43.15 -15.15 -48.1 -16.65 -49.55 -18.0 -49.95 L-24.05 -50.45 Q-27.9 -50.05 -29.2 -48.7 -29.1 -48.5 -26.95 -47.35 L-24.0 -45.75 -19.2 -42.9 -21.85 -43.8 -24.9 -44.7 Q-28.35 -46.55 -32.35 -48.3 -39.1 -51.3 -41.15 -51.0 -47.0 -49.25 -50.1 -44.1 -53.2 -38.95 -53.7 -36.3 -54.25 -33.65 -52.55 -31.45 L-48.65 -26.7 -48.6 -26.45 -49.2 -26.4 Q-50.85 -26.4 -53.3 -30.15 -55.5 -33.55 -55.5 -34.65 -55.5 -37.75 -50.7 -44.7 -45.6 -52.1 -42.15 -52.1 L-37.55 -51.85 Q-36.5 -51.65 -35.3 -50.9 L-34.6 -50.6 Q-32.65 -49.3 -31.65 -49.3 -24.0 -51.9 -22.75 -51.9 -21.1 -51.9 -18.95 -51.2 -17.3 -50.7 -16.55 -50.2 L-14.25 -49.1 Q-12.55 -48.3 -12.7 -48.1 L-11.35 -48.4 -8.85 -48.9 Q-5.5 -48.9 3.1 -44.5 L14.4 -38.25 18.2 -35.4 Q21.1 -33.0 22.4 -30.15 23.65 -27.3 27.1 -28.55 L25.85 -25.9 24.8 -23.85 Q24.8 -23.1 26.4 -20.75 L27.95 -18.45 27.1 -17.0 Q26.25 -15.5 26.25 -14.1 L28.95 -9.8 28.7 -8.55 28.0 -7.3 Q26.3 -4.65 26.55 0.0 26.85 5.2 26.1 7.1 L23.95 12.8 Q23.35 14.15 22.5 14.15 20.65 14.15 17.9 8.2 L19.8 9.85 21.65 11.95 22.05 12.6 24.7 8.65 Q26.0 5.8 26.1 -6.45 L27.1 -8.3 27.75 -9.8 Q27.75 -11.0 26.35 -12.4 L24.9 -13.9 26.85 -18.55 23.75 -22.8 17.8 -21.25 Q19.1 -22.1 21.95 -23.3 24.3 -24.55 25.0 -26.85 M11.9 -26.75 Q13.4 -26.25 16.65 -25.7 19.8 -25.1 20.4 -24.65 L17.95 -23.1 Q14.85 -21.25 12.1 -21.25 L3.55 -22.2 Q2.1 -22.2 -1.75 -23.5 -6.15 -24.95 -7.85 -26.45 L-11.55 -25.65 -15.05 -25.65 -24.65 -28.0 -25.95 -28.35 -22.3 -25.8 -16.85 -23.2 -19.8 -23.05 Q-26.0 -23.05 -31.8 -25.25 L-39.85 -28.55 -45.9 -30.3 Q-46.5 -30.3 -46.65 -29.7 L-46.85 -28.65 -47.3 -29.15 -47.1 -31.15 -46.65 -31.45 -45.95 -31.5 Q-45.4 -31.5 -38.15 -28.65 -30.95 -25.85 -28.05 -25.2 L-21.95 -23.95 -20.65 -23.95 -24.75 -26.5 -29.8 -30.45 -17.9 -27.6 -13.9 -26.85 -11.4 -27.1 -8.8 -27.6 -2.85 -28.6 4.25 -29.4 3.35 -29.1 -1.75 -27.8 -5.8 -26.85 Q-2.0 -25.45 2.85 -24.35 8.6 -23.0 11.9 -23.0 L15.45 -23.35 18.35 -24.4 17.05 -24.6 12.65 -25.3 10.65 -26.05 9.55 -27.0 9.35 -27.35 11.9 -26.75" fill="#606060" fill-rule="evenodd" stroke="none"/>
    <path d="M16.75 -30.05 Q20.2 -28.3 20.4 -28.2 L25.05 -27.15 25.0 -26.85 24.15 -26.2 Q22.75 -25.25 20.4 -24.65 19.8 -25.1 16.65 -25.7 13.4 -26.25 11.9 -26.75 10.15 -27.6 7.95 -28.9 6.35 -29.75 5.0 -29.6 L6.15 -29.9 Q8.1 -30.65 9.55 -31.65 10.55 -32.35 10.9 -32.35 11.4 -32.35 13.3 -31.2 15.25 -30.05 16.75 -30.05 M-41.15 -51.0 Q-39.1 -51.3 -32.35 -48.3 -28.35 -46.55 -24.9 -44.7 -16.55 -39.3 -10.6 -36.0 0.7 -29.85 7.7 -31.85 5.15 -30.9 -1.8 -30.0 L-13.4 -29.15 Q-17.7 -29.15 -24.2 -31.3 -30.25 -33.25 -39.7 -37.55 L-35.4 -34.0 -29.8 -30.45 -24.75 -26.5 -20.65 -23.95 -21.95 -23.95 -47.5 -34.6 Q-48.35 -34.6 -48.85 -33.9 -49.35 -33.2 -49.35 -32.1 -49.35 -31.45 -48.2 -29.45 L-46.9 -27.2 -47.45 -26.95 -48.65 -26.7 Q-52.35 -33.35 -52.35 -36.05 -52.35 -40.2 -50.0 -41.1 L-47.0 -41.25 -48.0 -42.1 -49.1 -43.25 Q-48.35 -44.55 -41.15 -51.0 M-19.2 -42.9 L-24.0 -45.75 -23.25 -47.3 Q-22.6 -48.05 -20.9 -48.05 -17.3 -48.05 -12.4 -44.75 L-6.65 -40.6 0.2 -36.95 Q4.8 -34.55 8.85 -32.9 -5.85 -33.35 -11.7 -37.2 L-15.4 -40.35 Q-17.35 -42.15 -19.2 -42.9 M-1.15 -38.95 L-5.65 -42.0 Q0.05 -40.2 5.0 -37.6 L14.25 -32.35 14.5 -32.0 Q11.75 -32.75 -1.15 -38.95 M16.5 -32.7 L9.25 -37.2 3.85 -40.4 Q-6.1 -44.3 -8.0 -45.5 L-8.05 -45.7 -7.4 -45.75 Q-4.55 -45.75 3.65 -41.55 12.65 -37.0 16.5 -32.7 M3.35 -29.1 L10.65 -26.05 12.65 -25.3 17.05 -24.6 4.9 -25.05 -1.75 -27.8 3.35 -29.1 M1.1 -34.75 Q0.3 -35.7 -3.4 -37.55 L-8.25 -39.85 Q-8.9 -40.15 -13.1 -43.45 -17.6 -46.55 -20.4 -46.55 -20.85 -46.55 -21.15 -46.15 L-21.5 -45.5 -9.0 -38.15 Q-2.8 -34.55 0.6 -34.55 1.6 -34.55 1.1 -34.75 M18.75 -27.15 L18.5 -28.1 17.4 -28.5 11.0 -30.55 Q10.05 -30.55 9.8 -29.7 10.9 -28.5 12.3 -28.1 L18.75 -27.15 M8.35 3.85 Q8.85 3.55 11.3 3.1 L14.05 2.7 Q15.05 2.7 18.4 3.6 L18.6 3.7 18.65 3.15 Q18.65 1.6 14.7 -0.5 L15.65 -0.45 Q16.7 -0.25 18.45 -0.8 20.3 -1.35 21.0 -2.2 19.3 -2.85 17.7 -3.95 15.75 -5.25 14.85 -6.6 16.5 -6.65 18.95 -7.9 21.45 -9.15 21.8 -10.25 19.0 -11.1 16.5 -12.4 14.65 -13.4 14.1 -13.95 15.2 -13.95 16.9 -14.8 18.7 -15.75 19.85 -17.0 L19.65 -17.3 17.25 -17.1 13.6 -17.1 10.05 -17.85 6.6 -18.5 4.15 -20.4 Q4.7 -20.05 6.8 -19.8 L9.65 -19.55 20.8 -20.75 Q22.55 -20.75 24.0 -17.15 24.0 -16.0 22.15 -15.05 L19.85 -13.9 23.4 -12.35 24.6 -11.75 Q24.6 -8.3 23.5 -7.3 22.0 -6.75 21.2 -6.2 L21.3 -5.95 22.15 -5.5 24.2 -4.85 Q24.1 -2.25 24.45 1.0 L24.2 2.05 21.65 2.2 Q20.45 2.25 20.25 2.55 21.0 4.1 22.5 5.8 L22.3 7.1 21.8 8.4 Q19.4 5.95 16.85 5.35 L12.2 4.95 10.9 5.15 Q9.7 4.75 8.35 3.85 M-3.65 -32.1 Q-6.3 -33.0 -19.55 -39.95 -33.1 -47.05 -39.5 -49.35 L-41.25 -48.7 -42.15 -48.15 Q-32.2 -44.5 -26.9 -39.8 L-34.45 -42.1 Q-41.8 -44.1 -44.35 -44.1 L-46.3 -43.75 -47.55 -43.25 Q-36.6 -38.35 -30.2 -35.75 -18.4 -30.95 -8.8 -30.95 -5.3 -30.95 -3.65 -32.1 M-35.0 -32.5 Q-39.45 -35.7 -42.95 -37.65 -46.8 -39.7 -48.55 -39.7 -49.6 -39.7 -50.0 -39.25 -50.45 -38.8 -50.45 -37.7 L-50.2 -36.0 -49.95 -35.05 -48.55 -36.2 -46.55 -36.6 -43.85 -36.1 -35.55 -32.1 Q-35.1 -32.1 -35.0 -32.5" fill="#d1d1d1" fill-rule="evenodd" stroke="none"/>
    <path d="M16.75 -30.05 Q15.25 -30.05 13.3 -31.2 11.4 -32.35 10.9 -32.35 10.55 -32.35 9.55 -31.65 8.1 -30.65 6.15 -29.9 L5.0 -29.6 Q6.35 -29.75 7.95 -28.9 10.15 -27.6 11.9 -26.75 L9.35 -27.35 9.55 -27.0 10.65 -26.05 3.35 -29.1 4.25 -29.4 -2.85 -28.6 -8.8 -27.6 -11.4 -27.1 -13.9 -26.85 -17.9 -27.6 -29.8 -30.45 -35.4 -34.0 -39.7 -37.55 Q-30.25 -33.25 -24.2 -31.3 -17.7 -29.15 -13.4 -29.15 L-1.8 -30.0 Q5.15 -30.9 7.7 -31.85 0.7 -29.85 -10.6 -36.0 -16.55 -39.3 -24.9 -44.7 L-21.85 -43.8 -19.2 -42.9 Q-17.35 -42.15 -15.4 -40.35 L-11.7 -37.2 Q-5.85 -33.35 8.85 -32.9 4.8 -34.55 0.2 -36.95 L-6.65 -40.6 -12.4 -44.75 Q-17.3 -48.05 -20.9 -48.05 -22.6 -48.05 -23.25 -47.3 L-24.0 -45.75 -26.95 -47.35 Q-29.1 -48.5 -29.2 -48.7 -27.9 -50.05 -24.05 -50.45 L-18.0 -49.95 Q-16.65 -49.55 -15.15 -48.1 -10.05 -43.15 -0.9 -38.8 L-1.15 -38.95 Q11.75 -32.75 14.5 -32.0 L16.75 -30.05 M20.4 -24.65 Q22.75 -25.25 24.15 -26.2 L25.0 -26.85 Q24.3 -24.55 21.95 -23.3 19.1 -22.1 17.8 -21.25 L23.75 -22.8 26.85 -18.55 24.9 -13.9 26.35 -12.4 Q27.75 -11.0 27.75 -9.8 L27.1 -8.3 26.1 -6.45 Q26.0 5.8 24.7 8.65 L22.05 12.6 21.65 11.95 19.8 9.85 17.9 8.2 16.15 6.75 Q14.35 5.75 11.15 5.2 L10.8 5.15 10.9 5.15 12.2 4.95 16.85 5.35 Q19.4 5.95 21.8 8.4 L22.3 7.1 22.5 5.8 Q21.0 4.1 20.25 2.55 20.45 2.25 21.65 2.2 L24.2 2.05 24.45 1.0 Q24.1 -2.25 24.2 -4.85 L22.15 -5.5 21.3 -5.95 21.2 -6.2 Q22.0 -6.75 23.5 -7.3 24.6 -8.3 24.6 -11.75 L23.4 -12.35 19.85 -13.9 22.15 -15.05 Q24.0 -16.0 24.0 -17.15 22.55 -20.75 20.8 -20.75 L9.65 -19.55 6.8 -19.8 Q4.7 -20.05 4.15 -20.4 L4.1 -20.4 Q-0.75 -23.85 -7.05 -24.85 L-22.3 -25.8 -25.95 -28.35 -24.65 -28.0 -15.05 -25.65 -11.55 -25.65 -7.85 -26.45 Q-6.15 -24.95 -1.75 -23.5 2.1 -22.2 3.55 -22.2 L12.1 -21.25 Q14.85 -21.25 17.95 -23.1 L20.4 -24.65 M-48.65 -26.7 L-52.55 -31.45 Q-54.25 -33.65 -53.7 -36.3 -53.2 -38.95 -50.1 -44.1 -47.0 -49.25 -41.15 -51.0 -48.35 -44.55 -49.1 -43.25 L-48.0 -42.1 -47.0 -41.25 -50.0 -41.1 Q-52.35 -40.2 -52.35 -36.05 -52.35 -33.35 -48.65 -26.7 M-5.65 -42.0 L-13.2 -47.3 -8.9 -48.0 Q-6.1 -48.0 5.45 -42.0 18.7 -35.1 20.1 -29.9 L19.8 -29.95 14.25 -32.35 5.0 -37.6 Q0.05 -40.2 -5.65 -42.0 M16.5 -32.7 Q12.65 -37.0 3.65 -41.55 -4.55 -45.75 -7.4 -45.75 L-8.05 -45.7 -8.0 -45.5 Q-6.1 -44.3 3.85 -40.4 L9.25 -37.2 16.5 -32.7 M17.05 -24.6 L18.35 -24.4 15.45 -23.35 11.9 -23.0 Q8.6 -23.0 2.85 -24.35 -2.0 -25.45 -5.8 -26.85 L-1.75 -27.8 4.9 -25.05 17.05 -24.6 M-46.9 -27.2 L-48.2 -29.45 Q-49.35 -31.45 -49.35 -32.1 -49.35 -33.2 -48.85 -33.9 -48.35 -34.6 -47.5 -34.6 L-21.95 -23.95 -28.05 -25.2 Q-30.95 -25.85 -38.15 -28.65 -45.4 -31.5 -45.95 -31.5 L-46.65 -31.45 -47.1 -31.15 -47.3 -29.15 -46.85 -28.65 -46.65 -29.7 Q-46.5 -30.3 -45.9 -30.3 L-39.85 -28.55 -45.1 -28.55 Q-46.25 -27.9 -46.15 -28.1 L-46.9 -27.2" fill="#989898" fill-rule="evenodd" stroke="none"/>
    <path d="M1.1 -34.75 Q1.6 -34.55 0.6 -34.55 -2.8 -34.55 -9.0 -38.15 L-21.5 -45.5 -21.15 -46.15 Q-20.85 -46.55 -20.4 -46.55 -17.6 -46.55 -13.1 -43.45 -8.9 -40.15 -8.25 -39.85 L-3.4 -37.55 Q0.3 -35.7 1.1 -34.75 M18.75 -27.15 L12.3 -28.1 Q10.9 -28.5 9.8 -29.7 10.05 -30.55 11.0 -30.55 L17.4 -28.5 18.5 -28.1 18.75 -27.15 M6.6 -18.5 L10.05 -17.85 13.6 -17.1 17.25 -17.1 19.65 -17.3 19.85 -17.0 Q18.7 -15.75 16.9 -14.8 15.2 -13.95 14.1 -13.95 14.65 -13.4 16.5 -12.4 19.0 -11.1 21.8 -10.25 21.45 -9.15 18.95 -7.9 16.5 -6.65 14.85 -6.6 15.75 -5.25 17.7 -3.95 19.3 -2.85 21.0 -2.2 20.3 -1.35 18.45 -0.8 16.7 -0.25 15.65 -0.45 L14.7 -0.5 Q18.65 1.6 18.65 3.15 L18.6 3.7 18.4 3.6 Q15.05 2.7 14.05 2.7 L11.3 3.1 Q8.85 3.55 8.35 3.85 7.85 3.05 7.85 1.9 7.85 0.05 9.1 -5.4 L10.35 -11.1 9.85 -14.1 Q8.9 -17.2 6.6 -18.5 M-3.65 -32.1 Q-5.3 -30.95 -8.8 -30.95 -18.4 -30.95 -30.2 -35.75 -36.6 -38.35 -47.55 -43.25 L-46.3 -43.75 -44.35 -44.1 Q-41.8 -44.1 -34.45 -42.1 L-26.9 -39.8 Q-32.2 -44.5 -42.15 -48.15 L-41.25 -48.7 -39.5 -49.35 Q-33.1 -47.05 -19.55 -39.95 -6.3 -33.0 -3.65 -32.1 M-35.0 -32.5 Q-35.1 -32.1 -35.55 -32.1 L-43.85 -36.1 -46.55 -36.6 -48.55 -36.2 -49.95 -35.05 -50.2 -36.0 -50.45 -37.7 Q-50.45 -38.8 -50.0 -39.25 -49.6 -39.7 -48.55 -39.7 -46.8 -39.7 -42.95 -37.65 -39.45 -35.7 -35.0 -32.5" fill="#ffffff" fill-rule="evenodd" stroke="none"/>
  </g>
</svg>
