<?xml version="1.0" encoding="UTF-8" standalone="no"?>
<svg xmlns:ffdec="https://www.free-decompiler.com/flash" xmlns:xlink="http://www.w3.org/1999/xlink" ffdec:objectType="shape" height="23.1px" width="23.55px" xmlns="http://www.w3.org/2000/svg">
  <g transform="matrix(1.0, 0.0, 0.0, 1.0, 28.45, 76.65)">
    <path d="M-6.55 -72.7 Q-5.75 -71.55 -5.3 -70.2 L-13.9 -69.75 Q-15.7 -69.55 -16.45 -68.95 L-17.95 -67.3 -19.3 -65.85 -20.35 -62.9 -20.4 -61.75 Q-20.15 -61.05 -18.95 -60.85 L-16.55 -60.95 -14.15 -61.25 -11.5 -61.0 Q-9.4 -60.9 -5.9 -62.5 -7.25 -59.2 -10.3 -56.8 L-10.8 -56.4 -11.3 -56.0 -12.2 -56.2 Q-17.7 -56.95 -25.25 -56.45 L-25.95 -56.3 -26.55 -57.05 -12.9 -56.7 Q-19.9 -58.15 -27.35 -58.25 L-28.0 -59.7 -28.35 -61.25 -26.05 -64.35 -21.9 -69.5 Q-19.8 -71.7 -18.05 -72.35 L-13.5 -72.9 -6.55 -72.7 M-14.45 -54.35 Q-16.7 -53.5 -19.15 -53.55 -22.25 -53.6 -24.45 -55.05 L-20.15 -54.9 -15.7 -54.5 -14.45 -54.35" fill="#e0e0e0" fill-rule="evenodd" stroke="none"/>
    <path d="M-9.8 -75.6 Q-8.1 -74.75 -6.85 -73.15 L-6.55 -72.7 -13.5 -72.9 -18.05 -72.35 Q-19.8 -71.7 -21.9 -69.5 L-26.05 -64.35 -28.35 -61.25 Q-28.65 -63.2 -28.2 -65.35 -27.4 -69.15 -24.7 -71.95 -22.85 -73.2 -20.0 -74.05 -15.15 -75.6 -9.8 -75.6 M-26.55 -57.05 L-27.35 -58.25 Q-19.9 -58.15 -12.9 -56.7 L-26.55 -57.05" fill="#b4b4b4" fill-rule="evenodd" stroke="none"/>
    <path d="M-24.7 -71.95 L-23.15 -73.4 Q-19.15 -76.75 -14.35 -76.65 -11.8 -76.6 -9.8 -75.6 -15.15 -75.6 -20.0 -74.05 -22.85 -73.2 -24.7 -71.95" fill="#8a8a8a" fill-rule="evenodd" stroke="none"/>
    <path d="M-5.3 -70.2 Q-4.6 -67.8 -5.2 -64.85 L-5.9 -62.5 Q-9.4 -60.9 -11.5 -61.0 L-14.15 -61.25 -16.55 -60.95 -18.95 -60.85 Q-20.15 -61.05 -20.4 -61.75 L-20.35 -62.9 -19.3 -65.85 -17.95 -67.3 -16.45 -68.95 Q-15.7 -69.55 -13.9 -69.75 L-5.3 -70.2 M-11.3 -56.0 Q-12.85 -54.95 -14.45 -54.35 L-15.7 -54.5 -20.15 -54.9 -24.45 -55.05 -25.95 -56.3 -25.25 -56.45 Q-17.7 -56.95 -12.2 -56.2 L-11.3 -56.0" fill="#ffffff" fill-rule="evenodd" stroke="none"/>
  </g>
</svg>
