<?xml version="1.0" encoding="UTF-8" standalone="no"?>
<svg xmlns:ffdec="https://www.free-decompiler.com/flash" xmlns:xlink="http://www.w3.org/1999/xlink" ffdec:objectType="shape" height="65.65px" width="54.3px" xmlns="http://www.w3.org/2000/svg">
  <g transform="matrix(1.0, 0.0, 0.0, 1.0, 27.15, 33.05)">
    <path d="M-27.15 -0.4 Q-27.15 -13.85 -20.75 -23.25 -15.25 -31.5 -8.3 -32.9 L-8.15 -32.95 Q-5.2 -33.15 -1.75 -32.95 1.55 -32.75 3.5 -32.85 13.95 -33.55 20.8 -23.6 27.15 -14.25 27.15 -0.15 27.15 7.9 22.95 18.5 22.1 20.65 20.35 23.0 L15.45 28.85 Q13.3 31.35 7.5 32.2 L1.1 32.6 0.95 32.6 0.45 32.5 Q-7.9 33.05 -12.0 31.05 -14.45 30.0 -19.6 24.35 -21.45 22.3 -24.05 15.0 -27.15 6.25 -27.15 -0.4 M-26.15 -0.4 Q-26.15 6.1 -23.1 14.65 -20.6 21.7 -18.85 23.65 -13.9 29.1 -11.6 30.15 -6.9 32.35 3.4 31.2 L0.95 31.6 7.35 31.2 Q12.7 30.4 14.7 28.15 L19.55 22.4 Q21.2 20.15 22.0 18.1 26.15 7.75 26.15 -0.15 26.15 -13.9 19.95 -23.05 13.45 -32.5 3.55 -31.85 1.6 -31.75 -1.8 -31.95 -5.2 -32.15 -8.1 -31.95 -14.7 -30.55 -19.95 -22.7 -26.15 -13.5 -26.15 -0.4" fill="#c6c6c6" fill-rule="evenodd" stroke="none"/>
    <path d="M-26.15 -0.4 Q-26.15 -13.5 -19.95 -22.7 -14.7 -30.55 -8.1 -31.95 -5.2 -32.15 -1.8 -31.95 1.6 -31.75 3.55 -31.85 13.45 -32.5 19.95 -23.05 26.15 -13.9 26.15 -0.15 26.15 7.75 22.0 18.1 21.2 20.15 19.55 22.4 L14.7 28.15 Q12.7 30.4 7.35 31.2 L0.95 31.6 3.4 31.2 Q-6.9 32.35 -11.6 30.15 -13.9 29.1 -18.85 23.65 -20.6 21.7 -23.1 14.65 -26.15 6.1 -26.15 -0.4" fill="#ffffff" fill-rule="evenodd" stroke="none"/>
    <path d="M17.7 -20.65 L17.7 -20.8 Q23.15 -12.25 23.15 -0.4 23.15 11.4 17.7 19.9 12.7 27.85 5.75 28.6 L4.65 28.6 -4.3 28.6 Q-12.3 28.7 -17.75 19.9 -23.15 11.4 -23.15 -0.4 -23.15 -12.25 -17.75 -20.8 -12.35 -29.15 -4.9 -29.4 L-4.75 -29.4 -4.3 -29.4 -2.95 -29.3 2.2 -29.3 4.3 -29.4 6.3 -29.3 6.6 -29.3 7.25 -29.0 Q13.25 -27.75 17.7 -20.65 M13.1 -23.05 L7.55 -23.05 8.95 -21.25 14.65 -21.25 13.1 -23.05 M7.1 -23.75 L12.4 -23.75 10.6 -25.1 5.75 -25.1 7.1 -23.75 M4.0 -26.65 L5.0 -25.75 9.45 -25.75 7.55 -26.65 4.0 -26.65 M11.2 -17.3 L12.4 -14.2 18.45 -14.2 17.0 -17.3 11.2 -17.3 M12.55 -13.55 Q13.25 -11.85 13.55 -10.05 L19.8 -10.05 18.65 -13.55 12.55 -13.55 M15.9 -19.5 L15.05 -20.5 9.4 -20.5 10.75 -18.0 16.7 -18.0 15.9 -19.5 M10.75 -12.0 Q9.0 -16.5 8.25 -17.7 6.8 -22.75 1.1 -25.3 -2.65 -27.05 -5.25 -27.05 -12.35 -25.15 -16.45 -18.6 -20.75 -11.65 -20.75 -0.4 L-20.4 6.7 -18.95 12.15 -17.8 14.8 -16.3 17.95 Q-14.7 21.65 -11.25 24.1 -7.85 26.35 -4.2 26.35 -1.85 26.35 1.3 24.85 5.9 21.6 8.4 17.05 12.25 9.95 12.25 -1.6 L12.05 -4.9 11.25 -9.45 10.75 -12.0 M13.7 -9.45 L14.35 -5.45 20.5 -5.45 19.95 -9.45 13.7 -9.45 M20.65 -4.9 L14.35 -4.9 14.5 -0.4 14.5 -0.3 20.8 -0.3 20.8 -0.4 20.65 -4.9 M14.2 5.25 L20.5 5.25 20.8 0.45 14.5 0.45 14.2 5.25 M17.7 15.0 L19.45 10.7 13.25 10.7 11.75 15.0 17.7 15.0 M20.35 5.95 L14.05 5.95 13.4 10.2 19.5 10.2 20.35 5.95 M3.5 26.2 L6.15 26.2 Q7.65 25.9 9.1 25.2 L4.8 25.2 3.5 26.2 M10.05 18.55 L15.9 18.55 17.45 15.6 11.4 15.6 10.05 18.55 M9.25 19.9 L7.65 22.05 13.25 22.05 15.5 19.25 9.6 19.25 9.25 19.9 M10.35 24.55 L12.55 22.7 7.25 22.7 5.45 24.55 10.35 24.55" fill="#aa4000" fill-rule="evenodd" stroke="none"/>
    <path d="M-6.7 -22.3 Q-10.4 -18.9 -12.15 -13.75 -13.45 -10.2 -14.2 -4.0 L-14.35 -2.65 -14.5 -3.65 -17.3 2.35 -17.45 -0.7 Q-17.45 -7.85 -15.0 -12.85 -12.45 -18.3 -6.55 -22.6 L-6.7 -22.3 M-5.25 -27.05 Q-5.4 -26.75 -7.1 -25.4 -8.9 -23.8 -11.0 -20.8 -14.85 -15.85 -15.75 -13.55 -18.4 -7.05 -17.75 4.45 L-20.4 6.7 -20.75 -0.4 Q-20.75 -11.65 -16.45 -18.6 -12.35 -25.15 -5.25 -27.05 M-4.3 21.35 Q-6.65 21.35 -8.45 20.3 -10.95 18.95 -13.5 15.3 L-12.0 11.85 -10.2 15.6 Q-8.35 17.8 -7.6 19.0 -7.25 19.55 -4.3 21.35 M-15.15 11.85 L-16.0 9.6 -14.2 4.3 -14.1 4.6 -13.35 7.75 -13.2 8.35 -15.15 11.85 M1.3 24.85 Q-1.85 26.35 -4.2 26.35 -7.85 26.35 -11.25 24.1 -14.7 21.65 -16.3 17.95 L-13.5 16.45 -10.4 19.25 Q-7.4 21.6 -5.95 22.05 L-2.25 23.55 1.3 24.85 M-17.8 14.8 L-18.95 12.15 -16.45 10.35 -15.45 12.8 -17.8 14.8 M-14.5 14.95 L-14.2 15.3 -15.45 15.9 -14.5 14.95 M-17.95 8.8 L-17.75 8.75 -18.25 9.05 -17.95 8.8" fill="#f7f388" fill-rule="evenodd" stroke="none"/>
    <path d="M2.2 -14.35 L2.2 -14.2 Q-11.6 -8.55 -14.2 -4.0 -13.45 -10.2 -12.15 -13.75 -10.4 -18.9 -6.7 -22.3 -4.6 -21.85 -2.4 -20.35 0.9 -18.05 2.2 -14.35 M4.3 -8.6 L4.3 -8.55 4.8 -7.1 Q-4.15 -3.65 -9.35 2.1 -12.05 5.05 -13.35 7.75 L-14.1 4.6 Q-10.7 -0.6 -6.65 -3.65 -2.25 -6.9 4.3 -8.6 M8.25 -17.7 L5.6 -14.65 Q0.9 -23.45 -4.9 -23.45 L-7.4 -22.5 Q-9.95 -21.55 -11.0 -20.8 -8.9 -23.8 -7.1 -25.4 -5.4 -26.75 -5.25 -27.05 -2.65 -27.05 1.1 -25.3 6.8 -22.75 8.25 -17.7 M7.55 -8.95 L9.15 -10.45 10.75 -12.0 11.25 -9.45 7.95 -6.6 7.55 -8.95 M5.3 -3.5 Q4.3 16.75 -7.55 16.75 -8.8 16.75 -10.2 15.6 L-12.0 11.85 -12.15 11.55 Q-9.9 7.7 -6.8 4.2 -0.8 -2.6 5.3 -3.8 L5.3 -3.5 M12.05 -4.9 L12.25 -1.6 Q12.25 9.95 8.4 17.05 5.9 21.6 1.3 24.85 L-2.25 23.55 -5.95 22.05 Q0.4 23.45 5.1 14.25 9.4 5.8 8.4 -1.7 L12.05 -4.9" fill="#f4f05b" fill-rule="evenodd" stroke="none"/>
    <path d="M2.2 -14.35 Q0.9 -18.05 -2.4 -20.35 -4.6 -21.85 -6.7 -22.3 L-6.55 -22.6 -5.25 -22.75 -4.9 -22.75 Q0.85 -22.65 5.0 -14.5 L2.2 -14.35 M4.3 -8.55 L6.95 -8.25 7.4 -6.6 4.8 -6.95 4.8 -7.1 4.3 -8.55 M7.65 -3.2 Q8.65 4.2 4.8 12.2 0.9 20.25 -4.3 21.35 -7.25 19.55 -7.6 19.0 -8.35 17.8 -10.2 15.6 -8.8 16.75 -7.55 16.75 4.3 16.75 5.3 -3.5 L7.65 -3.2" fill="#e6d831" fill-rule="evenodd" stroke="none"/>
    <path d="M4.0 -26.65 L7.55 -26.65 9.45 -25.75 5.0 -25.75 4.0 -26.65 M7.1 -23.75 L5.75 -25.1 10.6 -25.1 12.4 -23.75 7.1 -23.75 M13.1 -23.05 L14.65 -21.25 8.95 -21.25 7.55 -23.05 13.1 -23.05 M6.95 -8.25 L5.0 -14.5 Q0.85 -22.65 -4.9 -22.75 L-5.25 -22.75 -6.55 -22.6 Q-12.45 -18.3 -15.0 -12.85 -17.45 -7.85 -17.45 -0.7 L-17.3 2.35 -16.0 9.6 -15.15 11.85 -13.5 15.3 Q-10.95 18.95 -8.45 20.3 -6.65 21.35 -4.3 21.35 0.9 20.25 4.8 12.2 8.65 4.2 7.65 -3.2 L7.4 -6.6 6.95 -8.25 M5.6 -14.65 L7.55 -8.95 7.95 -6.6 8.4 -2.95 8.4 -1.7 Q9.4 5.8 5.1 14.25 0.4 23.45 -5.95 22.05 -7.4 21.6 -10.4 19.25 L-13.5 16.45 -14.2 15.3 -14.5 14.95 -15.45 12.8 -16.45 10.35 -17.75 4.45 Q-18.4 -7.05 -15.75 -13.55 -14.85 -15.85 -11.0 -20.8 -9.95 -21.55 -7.4 -22.5 L-4.9 -23.45 Q0.9 -23.45 5.6 -14.65 M10.35 24.55 L5.45 24.55 7.25 22.7 12.55 22.7 10.35 24.55 M9.25 19.9 L9.6 19.25 15.5 19.25 13.25 22.05 7.65 22.05 9.25 19.9 M10.05 18.55 L11.4 15.6 17.45 15.6 15.9 18.55 10.05 18.55 M3.5 26.2 L4.8 25.2 9.1 25.2 Q7.65 25.9 6.15 26.2 L3.5 26.2" fill="#f19914" fill-rule="evenodd" stroke="none"/>
    <path d="M-13.5 15.3 L-15.15 11.85 -13.2 8.35 -12.15 11.55 -12.0 11.85 -13.5 15.3 M-16.0 9.6 L-17.3 2.35 -14.5 -3.65 -14.35 -2.65 -14.5 -0.3 -14.2 4.3 -16.0 9.6 M-16.3 17.95 L-17.8 14.8 -15.45 12.8 -14.5 14.95 -15.45 15.9 -14.2 15.3 -13.5 16.45 -16.3 17.95 M-18.95 12.15 L-20.4 6.7 -17.75 4.45 -16.45 10.35 -18.95 12.15 M-17.95 8.8 L-18.25 9.05 -17.75 8.75 -17.95 8.8" fill="#ffffff" fill-rule="evenodd" stroke="none"/>
    <path d="M-14.2 -4.0 Q-11.6 -8.55 2.2 -14.2 3.7 -11.95 4.0 -9.45 L4.15 -9.25 4.3 -8.6 Q-2.25 -6.9 -6.65 -3.65 -10.7 -0.6 -14.1 4.6 L-14.2 4.3 -14.5 -0.3 -14.35 -2.65 -14.2 -4.0 M5.6 -14.65 L8.25 -17.7 Q9.0 -16.5 10.75 -12.0 L9.15 -10.45 7.55 -8.95 5.6 -14.65 M4.8 -7.1 L4.8 -6.95 5.3 -3.8 Q-0.8 -2.6 -6.8 4.2 -9.9 7.7 -12.15 11.55 L-13.2 8.35 -13.35 7.75 Q-12.05 5.05 -9.35 2.1 -4.15 -3.65 4.8 -7.1 M8.4 -1.7 L8.4 -2.95 7.95 -6.6 11.25 -9.45 12.05 -4.9 8.4 -1.7" fill="#fcfbcd" fill-rule="evenodd" stroke="none"/>
    <path d="M11.2 -17.3 L17.0 -17.3 18.45 -14.2 12.4 -14.2 11.2 -17.3 M15.9 -19.5 L16.7 -18.0 10.75 -18.0 9.4 -20.5 15.05 -20.5 15.9 -19.5 M20.35 5.95 L19.5 10.2 13.4 10.2 14.05 5.95 20.35 5.95 M17.7 15.0 L11.75 15.0 13.25 10.7 19.45 10.7 17.7 15.0" fill="#f9c72f" fill-rule="evenodd" stroke="none"/>
    <path d="M12.55 -13.55 L18.65 -13.55 19.8 -10.05 13.55 -10.05 Q13.25 -11.85 12.55 -13.55 M14.2 5.25 L14.5 0.45 20.8 0.45 20.5 5.25 14.2 5.25" fill="#f2efb3" fill-rule="evenodd" stroke="none"/>
    <path d="M2.2 -14.2 L2.2 -14.35 5.0 -14.5 6.95 -8.25 4.3 -8.55 4.3 -8.6 4.15 -9.25 4.0 -9.45 Q3.7 -11.95 2.2 -14.2 M4.8 -6.95 L7.4 -6.6 7.65 -3.2 5.3 -3.5 5.3 -3.8 4.8 -6.95" fill="#eade51" fill-rule="evenodd" stroke="none"/>
    <path d="M20.65 -4.9 L20.8 -0.4 20.8 -0.3 14.5 -0.3 14.5 -0.4 14.35 -4.9 20.65 -4.9 M13.7 -9.45 L19.95 -9.45 20.5 -5.45 14.35 -5.45 13.7 -9.45" fill="#fbfcd1" fill-rule="evenodd" stroke="none"/>
  </g>
</svg>
