<?xml version="1.0" encoding="UTF-8" standalone="no"?>
<svg xmlns:ffdec="https://www.free-decompiler.com/flash" xmlns:xlink="http://www.w3.org/1999/xlink" ffdec:objectType="shape" height="52.55px" width="39.9px" xmlns="http://www.w3.org/2000/svg">
  <g transform="matrix(1.0, 0.0, 0.0, 1.0, 10.45, 9.5)">
    <path d="M-9.55 -4.85 L-9.65 -5.05 -9.35 -5.65 -9.55 -4.85" fill="#64093a" fill-rule="evenodd" stroke="none"/>
    <path d="M-3.75 -9.35 L-1.7 -9.2 Q0.25 -8.7 0.6 -8.2 1.95 -7.9 5.4 -3.8 L10.75 3.0 Q11.9 4.05 16.65 11.8 22.05 20.55 23.5 22.5 L28.75 29.35 Q29.45 30.2 29.45 30.85 L29.15 32.4 Q28.35 34.15 25.7 35.7 L22.6 30.1 Q14.2 30.5 9.2 36.2 L12.65 42.65 9.1 43.05 Q7.3 43.05 6.25 42.05 4.2 40.15 1.75 33.9 -3.45 21.15 -6.75 13.55 L-9.25 5.3 Q-9.3 4.3 -9.9 2.55 -10.45 0.9 -10.45 -1.25 -10.45 -2.85 -9.65 -5.05 L-9.55 -4.85 -9.55 -4.8 -9.85 -2.35 -9.95 -0.15 Q-9.95 1.3 -9.35 1.3 -8.75 1.3 -8.7 2.3 L-8.5 4.6 Q-7.95 6.85 -5.85 11.95 L2.75 32.35 5.05 37.35 Q6.85 34.1 8.5 33.05 L11.55 30.9 15.8 28.85 18.8 27.65 21.2 27.05 Q24.2 26.9 26.0 27.75 L24.6 26.3 21.7 22.5 Q19.45 19.55 14.85 12.4 L8.95 3.15 4.85 -2.5 Q0.2 -8.15 -3.75 -9.35 M6.65 41.2 L8.0 41.75 9.4 41.65 10.7 41.25 Q8.0 41.4 7.05 40.0 6.6 39.35 6.6 38.45 6.6 36.45 11.35 32.95 16.85 28.95 22.45 28.95 24.8 28.95 25.75 29.55 26.6 30.1 26.6 31.5 L26.45 32.5 26.0 33.3 25.45 34.05 27.2 32.95 Q27.75 32.25 27.75 30.75 27.75 29.8 26.75 29.0 25.35 27.85 22.45 27.85 19.55 27.85 13.15 31.15 5.5 35.1 5.5 39.1 5.5 40.35 6.65 41.2" fill="#464646" fill-rule="evenodd" stroke="none"/>
    <path d="M6.65 41.2 Q5.5 40.35 5.5 39.1 5.5 35.1 13.15 31.15 19.55 27.85 22.45 27.85 25.35 27.85 26.75 29.0 27.75 29.8 27.75 30.75 27.75 32.25 27.2 32.95 L25.45 34.05 26.0 33.3 26.45 32.5 26.6 31.5 Q26.6 30.1 25.75 29.55 24.8 28.95 22.45 28.95 16.85 28.95 11.35 32.95 6.6 36.45 6.6 38.45 6.6 39.35 7.05 40.0 8.0 41.4 10.7 41.25 L9.4 41.65 8.0 41.75 6.65 41.2" fill="#8a8a8a" fill-rule="evenodd" stroke="none"/>
    <path d="M-3.75 -9.35 Q0.2 -8.15 4.85 -2.5 L8.95 3.15 14.85 12.4 Q19.45 19.55 21.7 22.5 L24.6 26.3 26.0 27.75 Q24.2 26.9 21.2 27.05 L18.2 23.0 18.15 23.0 Q15.25 19.6 12.05 13.65 8.3 6.75 6.0 3.55 L2.25 -1.6 Q1.55 -3.3 0.1 -4.9 -1.5 -6.65 -3.4 -7.45 L-4.75 -9.35 -3.75 -9.35 M8.5 33.05 Q6.85 34.1 5.05 37.35 L2.75 32.35 -5.85 11.95 Q-7.95 6.85 -8.5 4.6 L-8.7 2.3 Q-8.75 1.3 -9.35 1.3 -9.95 1.3 -9.95 -0.15 L-9.85 -2.35 -9.55 -4.8 -6.5 0.25 -3.55 8.9 Q-3.15 10.0 -3.35 9.3 -2.5 11.75 1.55 18.9 5.7 26.25 6.4 28.15 L8.5 33.05" fill="#b4b4b4" fill-rule="evenodd" stroke="none"/>
    <path d="M21.2 27.05 L18.8 27.65 16.2 23.5 10.25 13.2 4.5 3.95 Q0.9 -0.85 -1.5 -3.45 L-3.45 -5.85 Q-3.9 -6.45 -4.5 -6.45 L-5.45 -6.15 -5.9 -5.9 -6.15 -5.05 -6.25 -4.15 Q-6.25 -2.1 0.4 9.1 8.15 22.15 9.75 26.05 L11.55 30.9 8.5 33.05 6.4 28.15 Q5.7 26.25 1.55 18.9 -2.5 11.75 -3.35 9.3 -3.15 10.0 -3.55 8.9 L-6.5 0.25 -9.55 -4.8 -9.55 -4.85 -9.35 -5.65 Q-9.15 -6.5 -7.75 -7.85 -6.4 -9.2 -4.75 -9.35 L-3.4 -7.45 Q-1.5 -6.65 0.1 -4.9 1.55 -3.3 2.25 -1.6 L6.0 3.55 Q8.3 6.75 12.05 13.65 15.25 19.6 18.15 23.0 L18.2 23.0 21.2 27.05" fill="#e0e0e0" fill-rule="evenodd" stroke="none"/>
    <path d="M18.8 27.65 L15.8 28.85 11.55 30.9 9.75 26.05 Q8.15 22.15 0.4 9.1 -6.25 -2.1 -6.25 -4.15 L-6.15 -5.05 -5.9 -5.9 -5.45 -6.15 -4.5 -6.45 Q-3.9 -6.45 -3.45 -5.85 L-1.5 -3.45 Q0.9 -0.85 4.5 3.95 L10.25 13.2 16.2 23.5 18.8 27.65" fill="#ffffff" fill-rule="evenodd" stroke="none"/>
  </g>
</svg>
