<?xml version="1.0" encoding="UTF-8" standalone="no"?>
<svg xmlns:ffdec="https://www.free-decompiler.com/flash" xmlns:xlink="http://www.w3.org/1999/xlink" ffdec:objectType="shape" height="73.05px" width="81.7px" xmlns="http://www.w3.org/2000/svg">
  <g transform="matrix(1.0, 0.0, 0.0, 1.0, 52.1, 58.95)">
    <path d="M9.5 4.0 Q9.15 3.8 9.35 2.25 L9.95 -0.9 10.45 -5.35 10.65 -8.85 10.3 -14.55 13.25 -18.4 16.9 -18.65 14.25 -10.0 15.65 -10.15 Q15.75 -9.6 9.5 4.0 M8.2 -17.7 Q6.35 -19.8 1.4 -22.65 -1.1 -24.05 -3.25 -25.05 -3.3 -30.35 -3.9 -38.3 -3.9 -39.3 -2.6 -39.8 -1.15 -38.25 -0.65 -33.95 L-0.35 -28.9 0.25 -28.8 1.6 -28.55 Q2.25 -28.55 2.55 -29.1 L3.0 -30.05 6.0 -36.0 7.1 -25.15 12.6 -28.25 Q13.15 -28.15 13.25 -23.05 L8.2 -17.7 M-6.05 -26.0 L-8.75 -26.15 -8.95 -26.15 Q-17.35 -26.4 -30.7 -25.6 L-32.65 -25.5 -36.8 -34.05 Q-40.1 -41.6 -39.8 -45.25 -34.05 -42.55 -27.25 -36.4 L-27.25 -36.35 Q-21.4 -31.05 -19.6 -27.9 -18.0 -31.0 -17.3 -33.3 L-16.6 -38.05 -15.7 -43.9 -14.85 -45.65 Q-12.75 -40.95 -11.3 -38.7 L-9.45 -36.1 -8.95 -37.2 -8.7 -37.65 -7.3 -40.15 -6.7 -40.8 -4.9 -37.95 -6.65 -32.55 Q-6.2 -29.95 -6.05 -26.0" fill="#ffffff" fill-rule="evenodd" stroke="none"/>
    <path d="M17.35 6.55 Q13.1 5.45 9.5 4.0 15.75 -9.6 15.65 -10.15 L14.25 -10.0 16.9 -18.65 13.25 -18.4 10.3 -14.55 8.2 -17.7 13.25 -23.05 Q13.15 -28.15 12.6 -28.25 L7.1 -25.15 6.0 -36.0 3.0 -30.05 2.55 -29.1 Q2.25 -28.55 1.6 -28.55 L0.25 -28.8 -0.35 -28.9 -0.65 -33.95 Q-1.15 -38.25 -2.6 -39.8 -3.9 -39.3 -3.9 -38.3 -3.3 -30.35 -3.25 -25.05 L-6.05 -26.0 Q-6.2 -29.95 -6.65 -32.55 L-4.9 -37.95 -6.7 -40.8 -7.3 -40.15 -8.7 -37.65 -8.95 -37.2 -9.45 -36.1 -11.3 -38.7 Q-12.75 -40.95 -14.85 -45.65 L-15.7 -43.9 -16.6 -38.05 -17.3 -33.3 Q-18.0 -31.0 -19.6 -27.9 -21.4 -31.05 -27.25 -36.35 L-27.25 -36.4 Q-34.05 -42.55 -39.8 -45.25 -40.1 -41.6 -36.8 -34.05 L-32.65 -25.5 -34.9 -26.0 Q-39.7 -32.55 -41.3 -37.25 -43.0 -41.95 -41.9 -51.4 L-34.15 -48.0 Q-31.8 -46.45 -29.8 -44.35 L-26.05 -40.0 Q-23.75 -37.45 -22.15 -36.15 L-21.65 -36.2 Q-21.15 -36.35 -20.95 -37.0 -20.85 -37.25 -21.85 -39.35 -23.05 -41.85 -24.5 -43.7 L-24.75 -44.0 -25.9 -46.6 Q-26.4 -48.3 -26.2 -49.0 L-26.1 -50.25 -26.0 -52.0 -18.7 -46.0 Q-15.9 -49.05 -14.9 -49.05 L-12.65 -48.7 -10.0 -48.8 -4.25 -45.95 -3.3 -45.8 -2.35 -45.9 -0.95 -50.2 Q0.45 -48.85 2.05 -45.65 L5.25 -38.25 Q5.7 -40.45 7.05 -42.15 8.05 -43.45 9.0 -44.0 L8.0 -37.55 13.4 -39.05 Q14.0 -34.9 14.15 -34.75 14.3 -34.5 18.15 -32.5 17.0 -27.5 17.0 -26.5 17.15 -25.5 17.7 -24.6 18.75 -22.8 20.75 -22.85 L18.75 -16.7 20.5 -15.65 18.25 -11.0 18.45 -4.5 18.15 0.05 17.35 6.55 M22.75 -29.4 Q24.15 -27.05 24.15 -25.2 L23.85 -23.45 23.5 -22.5 22.9 -23.15 21.8 -24.55 Q21.2 -26.2 22.75 -29.4 M-12.05 -53.9 L-11.05 -53.5 Q-9.0 -52.3 -8.95 -51.55 L-8.8 -49.6 -9.95 -49.15 -11.15 -51.45 -12.05 -53.9 M22.35 -7.45 Q22.35 -8.9 23.1 -11.2 24.15 -14.4 26.1 -17.0 27.0 -13.6 26.0 -9.95 25.05 -6.5 23.0 -4.5 22.65 -5.45 22.4 -5.45 L22.35 -7.45" fill="#d1d1d1" fill-rule="evenodd" stroke="none"/>
    <path d="M20.75 12.85 Q20.9 11.2 19.2 8.8 L17.35 6.55 18.15 0.05 18.45 -4.5 18.25 -11.0 20.5 -15.65 18.75 -16.7 20.75 -22.85 Q18.75 -22.8 17.7 -24.6 17.15 -25.5 17.0 -26.5 17.0 -27.5 18.15 -32.5 14.3 -34.5 14.15 -34.75 14.0 -34.9 13.4 -39.05 L8.0 -37.55 9.0 -44.0 Q8.05 -43.45 7.05 -42.15 5.7 -40.45 5.25 -38.25 L2.05 -45.65 Q0.45 -48.85 -0.95 -50.2 L-2.35 -45.9 -3.3 -45.8 -4.25 -45.95 -10.0 -48.8 -12.65 -48.7 -14.9 -49.05 Q-15.9 -49.05 -18.7 -46.0 L-26.0 -52.0 -26.1 -50.25 -26.2 -49.0 Q-26.4 -48.3 -25.9 -46.6 L-24.75 -44.0 -24.5 -43.7 Q-23.05 -41.85 -21.85 -39.35 -20.85 -37.25 -20.95 -37.0 -21.15 -36.35 -21.65 -36.2 L-22.15 -36.15 Q-23.75 -37.45 -26.05 -40.0 L-29.8 -44.35 Q-31.8 -46.45 -34.15 -48.0 L-41.9 -51.4 Q-43.0 -41.95 -41.3 -37.25 -39.7 -32.55 -34.9 -26.0 L-45.05 -28.35 Q-46.65 -29.4 -49.45 -34.75 -52.35 -40.1 -49.5 -43.45 -48.0 -42.55 -47.3 -40.8 L-46.7 -38.35 -45.05 -33.85 -44.85 -34.05 -44.45 -35.0 -45.25 -41.7 -44.95 -45.5 Q-44.45 -51.0 -42.4 -53.45 -38.65 -53.5 -34.15 -51.45 L-32.65 -50.75 Q-30.75 -50.35 -29.6 -48.35 L-27.9 -45.85 -27.0 -45.7 -27.1 -48.55 Q-27.35 -50.05 -28.65 -50.75 L-27.15 -55.3 Q-26.15 -53.85 -22.85 -52.3 L-22.2 -52.0 Q-18.8 -50.55 -15.9 -50.7 L-11.65 -57.5 -8.95 -54.1 Q-7.75 -52.85 -6.7 -52.2 L-5.4 -51.5 -3.15 -51.0 -2.25 -51.0 -2.0 -51.0 Q-1.6 -51.1 -1.25 -51.45 L3.6 -46.0 4.1 -46.95 5.75 -46.95 Q6.75 -46.95 8.1 -47.45 9.8 -48.1 10.85 -49.25 10.7 -47.5 11.9 -45.6 12.95 -44.0 13.4 -44.0 14.4 -44.0 17.2 -45.2 L18.15 -38.9 22.8 -37.4 22.7 -35.4 25.45 -28.05 Q26.7 -24.15 25.85 -20.25 28.15 -16.75 28.15 -13.45 28.15 -10.15 27.3 -4.85 26.35 1.0 25.45 1.0 24.95 1.0 24.95 0.65 24.95 0.25 24.45 0.25 24.05 0.25 23.35 4.2 22.5 9.35 20.75 12.85 M22.75 -29.4 Q21.2 -26.2 21.8 -24.55 L22.9 -23.15 23.5 -22.5 23.85 -23.45 24.15 -25.2 Q24.15 -27.05 22.75 -29.4 M22.35 -7.45 L22.4 -5.45 Q22.65 -5.45 23.0 -4.5 25.05 -6.5 26.0 -9.95 27.0 -13.6 26.1 -17.0 24.15 -14.4 23.1 -11.2 22.35 -8.9 22.35 -7.45 M-12.05 -53.9 L-11.15 -51.45 -9.95 -49.15 -8.8 -49.6 -8.95 -51.55 Q-9.0 -52.3 -11.05 -53.5 L-12.05 -53.9" fill="#989898" fill-rule="evenodd" stroke="none"/>
    <path d="M-45.05 -28.35 Q-48.95 -29.05 -50.9 -32.75 -53.15 -36.95 -51.25 -42.75 L-50.2 -45.5 -49.7 -45.5 -46.9 -43.55 -46.6 -45.5 Q-46.25 -53.3 -41.65 -56.3 L-34.15 -53.2 Q-31.95 -52.35 -29.45 -52.15 L-27.75 -56.9 -26.7 -57.0 -21.35 -54.5 -16.15 -52.25 Q-15.8 -54.45 -13.9 -56.65 -12.25 -58.55 -11.05 -58.95 -9.75 -56.5 -6.6 -54.55 -5.35 -52.85 -3.55 -53.1 L-0.95 -53.6 -0.1 -53.9 -0.05 -53.8 0.25 -53.75 Q1.4 -50.15 3.05 -49.0 L2.65 -49.05 3.3 -48.85 3.6 -48.9 11.25 -50.55 Q12.75 -49.5 13.25 -47.7 L13.75 -45.5 18.0 -46.55 Q17.95 -44.8 19.1 -42.5 19.9 -40.85 20.4 -40.35 21.65 -39.1 23.6 -38.0 L24.4 -35.0 Q25.4 -31.85 27.45 -28.05 27.15 -27.05 27.25 -22.25 27.75 -20.95 28.7 -15.75 L29.6 -10.65 Q29.6 -7.45 26.9 1.9 24.2 11.35 22.4 14.1 L20.75 12.85 Q22.5 9.35 23.35 4.2 24.05 0.25 24.45 0.25 24.95 0.25 24.95 0.65 24.95 1.0 25.45 1.0 26.35 1.0 27.3 -4.85 28.15 -10.15 28.15 -13.45 28.15 -16.75 25.85 -20.25 26.7 -24.15 25.45 -28.05 L22.7 -35.4 22.8 -37.4 18.15 -38.9 17.2 -45.2 Q14.4 -44.0 13.4 -44.0 12.95 -44.0 11.9 -45.6 10.7 -47.5 10.85 -49.25 9.8 -48.1 8.1 -47.45 6.75 -46.95 5.75 -46.95 L4.1 -46.95 3.6 -46.0 -1.25 -51.45 Q-1.6 -51.1 -2.0 -51.0 L-2.25 -51.0 -3.15 -51.0 -5.4 -51.5 -6.7 -52.2 Q-7.75 -52.85 -8.95 -54.1 L-11.65 -57.5 -15.9 -50.7 Q-18.8 -50.55 -22.2 -52.0 L-22.85 -52.3 Q-26.15 -53.85 -27.15 -55.3 L-28.65 -50.75 Q-27.35 -50.05 -27.1 -48.55 L-27.0 -45.7 -27.9 -45.85 -29.6 -48.35 Q-30.75 -50.35 -32.65 -50.75 L-34.15 -51.45 Q-38.65 -53.5 -42.4 -53.45 -44.45 -51.0 -44.95 -45.5 L-45.25 -41.7 -44.45 -35.0 -44.85 -34.05 -45.05 -33.85 -46.7 -38.35 -47.3 -40.8 Q-48.0 -42.55 -49.5 -43.45 -52.35 -40.1 -49.45 -34.75 -46.65 -29.4 -45.05 -28.35" fill="#606060" fill-rule="evenodd" stroke="none"/>
  </g>
</svg>
