<?xml version="1.0" encoding="UTF-8" standalone="no"?>
<svg xmlns:ffdec="https://www.free-decompiler.com/flash" xmlns:xlink="http://www.w3.org/1999/xlink" ffdec:objectType="shape" height="41.25px" width="57.25px" xmlns="http://www.w3.org/2000/svg">
  <g transform="matrix(1.0, 0.0, 0.0, 1.0, 29.6, 19.6)">
    <path d="M24.8 -6.3 L24.75 -6.35 Q23.1 -4.85 20.45 -3.1 L20.15 -2.95 19.75 -2.7 Q16.5 -0.75 12.5 0.75 L11.2 1.25 9.8 1.7 13.55 16.4 13.8 16.35 13.9 16.65 14.55 17.45 14.5 17.55 10.6 19.15 10.4 18.35 10.05 17.75 10.05 17.9 9.2 14.7 5.7 1.65 3.3 2.45 1.05 3.05 Q-4.7 4.45 -9.75 4.95 L-15.9 5.2 -16.05 5.15 -19.2 4.75 Q-22.4 4.2 -24.6 3.3 L-24.4 3.65 Q-25.7 3.0 -26.95 2.6 L-27.65 1.8 -28.8 0.35 -29.5 -1.35 Q-30.55 -6.1 -22.5 -11.15 -14.9 -15.9 -3.2 -18.2 8.45 -20.5 17.3 -19.05 26.7 -17.4 27.55 -12.7 L27.6 -11.0 27.65 -11.0 26.9 -8.85 26.9 -9.05 26.55 -7.5 Q25.45 -7.1 24.95 -6.6 L24.8 -6.3 M7.85 -1.4 L8.8 -0.45 Q14.2 -2.25 18.4 -4.6 25.05 -8.65 24.5 -12.1 23.7 -15.5 16.05 -16.6 7.95 -17.75 -2.75 -15.6 -13.4 -13.5 -20.35 -9.4 -27.05 -5.4 -26.45 -2.0 -25.7 1.45 -18.0 2.55 L-16.15 2.8 Q-8.75 3.0 0.5 0.7 4.65 -0.35 7.35 -1.55 L7.55 -1.6 7.85 -1.4 M26.25 -11.2 L26.2 -12.4 Q25.25 -16.3 17.15 -17.7 8.45 -19.1 -2.95 -16.85 -14.35 -14.6 -21.75 -10.0 -28.75 -5.6 -28.15 -1.65 L-27.7 -0.4 -26.7 0.75 -26.7 0.8 -26.1 1.5 Q-23.75 3.05 -19.05 3.85 L-15.85 4.3 Q-8.45 4.45 0.8 2.15 L5.6 0.75 5.6 0.65 6.05 0.3 6.55 0.35 7.85 -0.15 7.45 -0.55 0.7 1.55 Q-8.75 3.95 -16.2 3.7 L-18.1 3.45 Q-26.7 2.35 -27.35 -1.8 -28.25 -5.7 -20.8 -10.2 -13.75 -14.4 -2.95 -16.5 7.95 -18.65 16.15 -17.55 24.7 -16.25 25.35 -12.25 26.25 -8.2 18.85 -3.9 14.75 -1.5 9.45 0.25 L9.65 0.8 Q15.45 -1.15 19.95 -3.9 23.85 -6.3 25.4 -8.6 L25.7 -9.4 25.7 -9.5 26.25 -11.2 M8.5 2.1 L8.6 1.6 8.3 1.25 8.1 0.75 7.0 1.2 11.35 17.45 12.35 17.05 12.2 16.95 8.5 2.1" fill="#1e3e28" fill-rule="evenodd" stroke="none"/>
    <path d="M26.25 -11.2 L25.7 -9.5 25.7 -9.4 25.4 -8.6 Q23.85 -6.3 19.95 -3.9 15.45 -1.15 9.65 0.8 L9.45 0.25 Q14.75 -1.5 18.85 -3.9 26.25 -8.2 25.35 -12.25 24.7 -16.25 16.15 -17.55 7.95 -18.65 -2.95 -16.5 -13.75 -14.4 -20.8 -10.2 -28.25 -5.7 -27.35 -1.8 -26.7 2.35 -18.1 3.45 L-16.2 3.7 Q-8.75 3.95 0.7 1.55 L7.45 -0.55 7.85 -0.15 6.55 0.35 6.05 0.3 5.6 0.65 5.6 0.75 0.8 2.15 Q-8.45 4.45 -15.85 4.3 L-19.05 3.85 Q-23.75 3.05 -26.1 1.5 L-26.7 0.8 -26.7 0.75 -27.7 -0.4 -28.15 -1.65 Q-28.75 -5.6 -21.75 -10.0 -14.35 -14.6 -2.95 -16.85 8.45 -19.1 17.15 -17.7 25.25 -16.3 26.2 -12.4 L26.25 -11.2 M8.5 2.1 L12.2 16.95 12.35 17.05 11.35 17.45 7.0 1.2 8.1 0.75 8.3 1.25 8.6 1.6 8.5 2.1" fill="#418557" fill-rule="evenodd" stroke="none"/>
    <path d="M19.75 -2.7 L20.15 -2.95 20.45 -3.1 Q23.1 -4.85 24.75 -6.35 L24.8 -6.3 19.3 11.25 Q19.2 11.5 19.25 11.7 L19.3 11.7 19.1 12.0 Q18.55 13.6 15.4 15.4 L15.45 15.4 14.7 15.85 13.8 16.3 13.8 16.35 13.55 16.4 9.8 1.7 11.2 1.25 12.5 0.75 13.3 8.6 14.7 13.1 14.8 13.05 Q16.3 12.1 16.8 10.65 L17.55 7.35 19.0 0.8 19.75 -2.7 M-24.4 3.65 L-24.6 3.3 Q-22.4 4.2 -19.2 4.75 L-16.05 5.15 -11.85 10.8 -7.2 16.4 -2.45 17.65 5.15 16.2 9.2 14.7 10.05 17.9 4.2 19.4 -3.8 20.35 -6.9 20.15 -7.7 20.0 Q-10.35 19.7 -11.6 18.95 L-12.05 18.6 -12.65 17.95 -12.75 17.65 -24.4 3.65 M-0.95 7.4 L-0.9 8.5 Q-0.65 9.85 0.5 10.7 1.7 11.45 3.05 11.15 4.45 10.9 5.2 9.75 6.05 8.55 5.75 7.2 L5.3 6.05 5.85 6.55 Q6.4 7.15 6.6 8.15 6.85 9.35 6.45 10.55 5.75 12.25 3.75 12.65 1.15 13.15 -0.05 11.55 L-0.35 11.2 -0.4 11.1 -0.4 11.0 Q-0.8 10.35 -1.2 8.4 -1.3 7.65 -0.95 7.4" fill="#b7b7b7" fill-rule="evenodd" stroke="none"/>
    <path d="M7.85 -1.4 L7.55 -1.6 7.35 -1.55 Q4.65 -0.35 0.5 0.7 -8.75 3.0 -16.15 2.8 L-18.0 2.55 Q-25.7 1.45 -26.45 -2.0 -27.05 -5.4 -20.35 -9.4 -13.4 -13.5 -2.75 -15.6 7.95 -17.75 16.05 -16.6 23.7 -15.5 24.5 -12.1 25.05 -8.65 18.4 -4.6 14.2 -2.25 8.8 -0.45 L7.85 -1.4" fill="#000000" fill-rule="evenodd" stroke="none"/>
    <path d="M24.8 -6.3 L24.95 -6.6 Q25.45 -7.1 26.55 -7.5 L20.7 11.2 20.85 11.3 20.35 12.6 20.3 12.7 20.7 11.2 20.0 13.3 18.65 14.85 16.15 16.6 14.55 17.45 13.9 16.65 13.8 16.35 13.8 16.3 14.7 15.85 15.45 15.4 15.4 15.4 Q18.55 13.6 19.1 12.0 L19.3 11.7 19.25 11.7 Q19.2 11.5 19.3 11.25 L24.8 -6.3 M-26.95 2.6 Q-25.7 3.0 -24.4 3.65 L-12.75 17.65 -12.65 17.95 -12.05 18.6 -11.6 18.95 Q-10.35 19.7 -7.7 20.0 L-6.9 20.15 -3.8 20.35 4.2 19.4 10.05 17.9 10.05 17.75 10.4 18.35 10.6 19.15 10.1 19.4 4.45 20.75 -3.4 21.65 -5.55 21.6 -7.9 21.4 -8.45 21.25 -10.3 20.9 Q-12.15 20.4 -13.05 19.55 L-14.1 18.15 -26.95 2.6" fill="#5f5f5f" fill-rule="evenodd" stroke="none"/>
    <path d="M-16.05 5.15 L-15.9 5.2 -9.75 4.95 -9.65 5.35 -7.75 9.25 Q-5.75 13.1 -4.6 12.9 -4.25 12.8 -3.95 12.35 L-0.05 11.55 Q1.15 13.15 3.75 12.65 5.75 12.25 6.45 10.55 6.85 9.35 6.6 8.15 6.4 7.15 5.85 6.55 L5.3 6.05 4.25 5.05 3.95 4.85 3.3 2.45 5.7 1.65 9.2 14.7 5.15 16.2 -2.45 17.65 -7.2 16.4 -11.85 10.8 -16.05 5.15 M12.5 0.75 Q16.5 -0.75 19.75 -2.7 L19.0 0.8 17.55 7.35 16.8 10.65 Q16.3 12.1 14.8 13.05 L14.7 13.1 13.3 8.6 12.5 0.75" fill="#dadada" fill-rule="evenodd" stroke="none"/>
    <path d="M-9.75 4.95 Q-4.7 4.45 1.05 3.05 L3.3 2.45 3.95 4.85 Q2.95 4.25 1.7 4.45 0.35 4.75 -0.45 6.0 -0.9 6.65 -0.95 7.4 -1.3 7.65 -1.2 8.4 -0.8 10.35 -0.4 11.0 L-0.4 11.1 -0.35 11.2 -0.05 11.55 -3.95 12.35 Q-4.25 12.8 -4.6 12.9 -5.75 13.1 -7.75 9.25 L-9.65 5.35 -9.75 4.95" fill="#f9f9f9" fill-rule="evenodd" stroke="none"/>
    <path d="M3.95 4.85 L4.25 5.05 5.3 6.05 5.75 7.2 Q6.05 8.55 5.2 9.75 4.45 10.9 3.05 11.15 1.7 11.45 0.5 10.7 -0.65 9.85 -0.9 8.5 L-0.95 7.4 Q-0.9 6.65 -0.45 6.0 0.35 4.75 1.7 4.45 2.95 4.25 3.95 4.85 M4.85 7.4 Q4.65 6.4 3.8 5.75 2.9 5.2 1.9 5.35 L1.25 5.65 0.75 6.0 0.3 6.5 0.0 7.4 Q-0.2 7.85 -0.05 8.35 0.1 9.35 1.0 9.95 L2.85 10.25 Q3.85 10.1 4.45 9.25 5.05 8.4 4.85 7.4" fill="#0d0d0d" fill-rule="evenodd" stroke="none"/>
    <path d="M-0.05 8.35 Q-0.2 7.85 0.0 7.4 L0.3 6.5 0.75 6.0 1.25 5.65 1.9 5.35 Q2.9 5.2 3.8 5.75 4.65 6.4 4.85 7.4 L-0.05 8.35" fill="#353535" fill-rule="evenodd" stroke="none"/>
    <path d="M4.85 7.4 Q5.05 8.4 4.45 9.25 3.85 10.1 2.85 10.25 L1.0 9.95 Q0.1 9.35 -0.05 8.35 L4.85 7.4" fill="#242424" fill-rule="evenodd" stroke="none"/>
  </g>
</svg>
