<?xml version="1.0" encoding="UTF-8" standalone="no"?>
<svg xmlns:ffdec="https://www.free-decompiler.com/flash" xmlns:xlink="http://www.w3.org/1999/xlink" ffdec:objectType="shape" height="162.45px" width="112.55px" xmlns="http://www.w3.org/2000/svg">
  <g transform="matrix(1.0, 0.0, 0.0, 1.0, 54.8, 121.7)">
    <path d="M12.0 -120.2 L11.9 -119.9 Q12.55 -119.0 14.7 -117.75 2.7 -122.05 -7.0 -118.7 L-9.5 -117.7 Q-12.8 -116.2 -15.8 -113.75 -19.15 -110.5 -22.3 -105.15 -25.8 -99.3 -29.1 -90.95 -28.4 -95.1 -26.8 -98.8 L-25.7 -101.35 -24.05 -104.9 -24.05 -105.15 Q-20.55 -111.25 -16.8 -114.85 L-16.75 -114.9 Q-4.5 -124.9 12.0 -120.2 M20.25 -115.0 L22.25 -114.0 22.1 -113.75 Q21.2 -114.4 20.25 -115.0 M3.1 -76.9 L3.75 -76.55 4.2 -76.25 4.95 -75.3 5.15 -75.0 5.85 -73.5 5.85 -72.2 5.3 -70.95 5.0 -70.3 4.4 -69.5 3.25 -68.75 2.35 -68.55 1.7 -68.5 0.2 -68.6 -1.0 -69.15 -1.95 -70.15 -2.25 -70.6 Q-2.7 -71.25 -2.75 -71.85 L-2.8 -73.05 -2.25 -74.5 -2.2 -74.55 -1.4 -76.0 -0.25 -76.75 1.1 -77.0 3.1 -76.9 M5.2 -72.95 L4.65 -74.5 4.2 -75.2 3.15 -76.05 1.55 -76.45 Q0.5 -76.45 -0.35 -75.9 L-0.8 -75.6 -1.2 -75.2 Q-2.15 -74.1 -2.1 -72.95 L-2.1 -72.65 Q-2.05 -71.75 -1.6 -71.0 L-1.05 -70.25 Q0.0 -69.15 1.55 -69.15 3.05 -69.15 4.15 -70.25 5.2 -71.4 5.2 -72.95" fill="#535353" fill-rule="evenodd" stroke="none"/>
    <path d="M14.7 -117.75 Q15.7 -117.15 17.1 -116.5 19.0 -115.6 20.25 -115.0 21.2 -114.4 22.1 -113.75 L21.1 -112.3 14.9 -104.9 11.8 -101.35 1.55 -89.4 -4.6 -82.25 -7.45 -87.35 -8.4 -88.65 -8.6 -88.7 Q-10.55 -88.7 -11.5 -83.15 L-12.45 -74.8 -12.6 -73.2 -12.95 -72.85 -12.85 -74.2 -12.7 -76.4 -12.4 -79.8 -12.4 -80.2 -12.05 -83.4 -10.9 -92.85 -10.95 -93.3 -11.25 -93.65 -11.7 -93.8 -14.2 -93.85 -13.9 -94.85 -13.65 -95.85 -10.85 -105.15 -7.6 -115.25 -7.5 -115.6 -7.5 -116.15 -7.95 -116.55 -8.5 -116.5 -8.75 -116.3 -8.9 -116.05 -12.4 -105.15 -15.4 -95.05 -15.7 -93.9 -16.5 -93.95 -16.8 -93.9 -17.0 -93.7 -19.85 -89.15 Q-22.35 -87.0 -23.55 -86.2 -24.65 -85.45 -26.1 -82.3 L-26.4 -81.65 -26.4 -81.4 -28.2 -77.55 -28.65 -76.6 -28.65 -77.5 -29.1 -80.95 -29.6 -84.5 -29.45 -88.15 -29.1 -90.95 Q-25.8 -99.3 -22.3 -105.15 -19.15 -110.5 -15.8 -113.75 -12.8 -116.2 -9.5 -117.7 L-7.0 -118.7 Q2.7 -122.05 14.7 -117.75 M10.6 -111.75 L13.05 -108.45 Q13.2 -108.2 13.5 -108.1 L14.05 -108.2 14.4 -108.7 14.3 -109.25 11.8 -112.7 11.3 -113.0 10.75 -112.85 10.45 -112.35 10.6 -111.75 M-2.1 -72.95 L-1.75 -72.85 1.0 -72.45 5.2 -72.95 Q5.2 -71.4 4.15 -70.25 3.05 -69.15 1.55 -69.15 0.0 -69.15 -1.05 -70.25 L-1.6 -71.0 Q-2.05 -71.75 -2.1 -72.65 L-2.1 -72.95" fill="#c4c4c4" fill-rule="evenodd" stroke="none"/>
    <path d="M10.6 -111.75 L10.45 -112.35 10.75 -112.85 11.3 -113.0 11.8 -112.7 14.3 -109.25 14.4 -108.7 14.05 -108.2 13.5 -108.1 Q13.2 -108.2 13.05 -108.45 L10.6 -111.75 M-15.7 -93.9 L-15.4 -95.05 -12.4 -105.15 -8.9 -116.05 -8.75 -116.3 -8.5 -116.5 -7.95 -116.55 -7.5 -116.15 -7.5 -115.6 -7.6 -115.25 -10.85 -105.15 -13.65 -95.85 -13.9 -94.85 -14.2 -93.85 -15.7 -93.9" fill="#a7a7a7" fill-rule="evenodd" stroke="none"/>
    <path d="M-4.6 -82.25 L-4.9 -81.9 -8.4 -77.95 -10.25 -75.85 -12.6 -73.2 -12.45 -74.8 -11.5 -83.15 Q-10.55 -88.7 -8.6 -88.7 L-8.4 -88.65 -7.45 -87.35 -4.6 -82.25 M-28.1 -72.7 L-28.65 -76.6 -28.2 -77.55 -26.4 -81.4 -26.4 -81.65 -26.1 -82.3 Q-24.65 -85.45 -23.55 -86.2 -22.35 -87.0 -19.85 -89.15 L-23.65 -82.35 -24.35 -81.0 -25.0 -79.6 -26.15 -77.2 -26.25 -76.9 -26.5 -76.4 -26.55 -76.4 -28.1 -72.7 M-2.1 -72.95 Q-2.15 -74.1 -1.2 -75.2 L-0.8 -75.6 -0.35 -75.9 Q0.5 -76.45 1.55 -76.45 L3.15 -76.05 4.2 -75.2 4.65 -74.5 5.2 -72.95 1.0 -72.45 -1.75 -72.85 -2.1 -72.95" fill="#eaeaea" fill-rule="evenodd" stroke="none"/>
    <path d="M-12.95 -72.85 L-14.45 -71.2 -13.95 -78.5 -12.55 -91.2 -12.4 -92.5 -14.65 -92.55 -15.95 -92.6 -16.25 -92.15 -17.25 -90.65 -17.45 -90.2 -21.85 -82.6 -22.45 -81.45 -25.6 -74.8 -27.45 -70.25 -27.55 -70.55 -28.05 -72.45 -28.1 -72.7 -26.55 -76.4 -26.5 -76.4 -26.25 -76.9 -26.15 -77.2 -25.0 -79.6 -24.35 -81.0 -23.65 -82.35 -19.85 -89.15 -17.0 -93.7 -16.8 -93.9 -16.5 -93.95 -15.7 -93.9 -14.2 -93.85 -11.7 -93.8 -11.25 -93.65 -10.95 -93.3 -10.9 -92.85 -12.05 -83.4 -12.4 -80.2 -12.4 -79.8 -12.7 -76.4 -12.85 -74.2 -12.95 -72.85 M5.0 -81.15 L5.35 -81.2 5.65 -81.15 6.5 -80.75 Q7.05 -80.25 7.4 -79.1 L6.75 -78.9 6.45 -79.75 5.9 -80.35 4.95 -80.35 4.25 -80.15 4.05 -80.85 Q4.45 -81.1 5.0 -81.15 M7.45 -66.35 L7.05 -65.3 6.45 -64.55 Q5.85 -64.0 5.3 -64.0 L4.5 -64.1 Q4.35 -64.15 4.15 -64.25 L4.4 -65.0 6.0 -64.75 6.4 -65.3 6.75 -66.5 7.45 -66.35 M-3.7 -65.1 L-4.35 -66.25 -3.7 -66.4 -3.1 -65.35 -2.9 -65.1 -2.4 -64.75 -1.15 -65.0 -1.0 -64.4 -2.9 -64.55 -3.7 -65.1 M-1.1 -80.95 L-1.3 -80.25 Q-3.05 -80.45 -3.7 -78.75 L-4.35 -78.9 -3.4 -80.6 -3.4 -80.65 Q-2.8 -81.2 -2.2 -81.2 L-1.1 -80.95 M-1.4 -78.55 L-1.1 -77.1 -1.75 -77.65 -2.25 -78.8 -1.7 -78.7 -1.4 -78.55 M4.35 -78.0 L5.0 -79.0 5.2 -78.45 5.2 -78.2 4.3 -77.4 4.15 -77.3 4.35 -78.0 M10.1 -70.75 L9.65 -71.3 10.5 -72.7 9.5 -74.1 10.0 -74.55 10.9 -73.3 11.2 -72.6 10.9 -71.95 10.1 -70.75 M8.2 -72.25 L6.9 -72.75 7.6 -72.95 8.85 -72.85 8.55 -72.35 8.2 -72.25 M4.5 -66.75 L4.5 -66.95 4.45 -67.25 4.25 -68.2 4.85 -67.6 5.35 -66.45 5.1 -66.4 4.5 -66.75 M-6.95 -74.5 L-6.5 -73.95 -7.1 -73.3 -7.3 -72.55 -7.05 -71.8 -6.7 -71.45 -6.35 -71.2 -6.85 -70.75 -7.25 -71.1 Q-7.9 -71.7 -8.0 -72.75 L-7.65 -73.45 -6.95 -74.5 M-5.1 -73.0 L-3.85 -72.55 -4.55 -72.3 -5.7 -72.45 -5.3 -72.95 -5.1 -73.0 M-2.1 -67.15 L-1.05 -68.0 -1.2 -67.15 -1.95 -66.25 -2.15 -66.8 -2.1 -67.15" fill="#546618" fill-rule="evenodd" stroke="none"/>
    <path d="M-24.25 -62.65 Q-25.4 -64.35 -26.8 -68.25 L-27.45 -70.25 -25.6 -74.8 -22.45 -81.45 -19.2 -81.35 -17.65 -81.35 -17.3 -81.35 -15.9 -81.4 -14.7 -92.05 -14.65 -92.55 -12.4 -92.5 -12.55 -91.2 -13.95 -78.5 -14.35 -79.0 -15.9 -80.9 -16.3 -75.85 -16.45 -74.6 -16.5 -73.9 -16.45 -73.85 -18.7 -70.7 -21.2 -67.15 -23.55 -63.7 -24.25 -62.65" fill="#7b932c" fill-rule="evenodd" stroke="none"/>
    <path d="M-16.7 -68.75 L-18.8 -66.55 -19.5 -65.75 -19.55 -65.75 -23.5 -61.75 -24.25 -62.65 -23.55 -63.7 -21.2 -67.15 -18.7 -70.7 -16.45 -73.85 -16.7 -68.75 M-1.3 -80.25 L-1.4 -78.55 -1.7 -78.7 -2.25 -78.8 -1.75 -77.65 -3.7 -78.75 Q-3.05 -80.45 -1.3 -80.25 M5.2 -78.2 L5.2 -78.45 5.0 -79.0 4.35 -78.0 4.25 -80.15 4.95 -80.35 5.9 -80.35 6.45 -79.75 6.75 -78.9 6.45 -78.75 5.2 -78.2 M9.65 -71.3 L8.2 -72.25 8.55 -72.35 8.85 -72.85 7.6 -72.95 Q8.75 -73.5 9.5 -74.1 L10.5 -72.7 9.65 -71.3 M4.85 -67.6 L6.0 -66.9 6.75 -66.5 6.4 -65.3 6.0 -64.75 4.4 -65.0 4.45 -65.4 4.5 -66.75 5.1 -66.4 5.35 -66.45 4.85 -67.6 M-6.5 -73.95 Q-5.8 -73.4 -5.1 -73.0 L-5.3 -72.95 -5.7 -72.45 -4.55 -72.3 -6.35 -71.2 -6.7 -71.45 -7.05 -71.8 -7.3 -72.55 -7.1 -73.3 -6.5 -73.95 M-1.2 -67.15 L-1.2 -65.55 -1.15 -65.0 -2.4 -64.75 -2.9 -65.1 -3.1 -65.35 -3.7 -66.4 Q-2.9 -66.65 -2.1 -67.15 L-2.15 -66.8 -1.95 -66.25 -1.2 -67.15" fill="#9ab641" fill-rule="evenodd" stroke="none"/>
    <path d="M-7.55 -67.5 L-7.75 -68.6 -7.65 -69.05 -6.85 -70.75 -6.35 -71.2 -4.55 -72.3 -3.85 -72.55 -5.1 -73.0 Q-5.8 -73.4 -6.5 -73.95 L-6.95 -74.5 -7.5 -75.75 -7.75 -76.35 -7.85 -76.7 Q-7.85 -77.65 -7.1 -78.45 -6.4 -79.1 -5.4 -79.05 L-4.35 -78.9 -3.7 -78.75 -1.75 -77.65 -1.1 -77.1 -1.4 -78.55 -1.3 -80.25 -1.1 -80.95 Q-0.6 -82.25 0.45 -82.8 L1.45 -83.1 1.75 -83.05 Q2.9 -82.85 4.05 -80.85 L4.25 -80.15 4.35 -78.0 4.15 -77.3 4.3 -77.4 5.2 -78.2 6.45 -78.75 6.75 -78.9 7.4 -79.1 8.55 -79.2 Q9.55 -79.15 10.2 -78.55 10.95 -77.8 10.95 -76.75 L10.6 -75.85 10.0 -74.55 9.5 -74.1 Q8.75 -73.5 7.6 -72.95 L6.9 -72.75 8.2 -72.25 9.65 -71.3 10.1 -70.75 10.65 -69.35 11.0 -68.45 Q11.0 -67.75 10.25 -67.15 L9.75 -66.8 Q8.85 -66.3 7.45 -66.35 L6.75 -66.5 6.0 -66.9 4.85 -67.6 4.25 -68.2 4.45 -67.25 4.5 -66.95 4.5 -66.75 4.45 -65.4 4.4 -65.0 4.15 -64.25 2.95 -62.7 Q2.6 -62.2 1.5 -62.2 0.15 -62.2 -1.0 -64.4 L-1.15 -65.0 -1.2 -65.55 -1.2 -67.15 -1.05 -68.0 -2.1 -67.15 Q-2.9 -66.65 -3.7 -66.4 L-4.35 -66.25 Q-6.2 -65.8 -7.15 -66.85 L-7.55 -67.5 M3.35 -77.3 L3.7 -79.15 3.5 -80.35 3.25 -80.9 Q2.75 -82.05 1.75 -82.25 L1.35 -82.3 Q0.05 -82.3 -0.45 -80.75 L-0.55 -80.3 -0.65 -79.1 -0.5 -77.45 -0.25 -76.75 -1.4 -76.0 -1.6 -76.45 Q-2.55 -77.35 -3.1 -77.65 -4.0 -78.25 -5.25 -78.25 L-6.35 -77.95 -6.65 -77.7 -6.9 -77.35 -7.05 -76.85 Q-7.05 -75.5 -6.15 -74.75 L-3.9 -73.35 -3.7 -73.25 -3.75 -73.2 -2.8 -73.05 -2.75 -71.85 -3.2 -71.85 -3.35 -71.9 Q-4.2 -71.8 -5.4 -71.0 -6.45 -70.35 -6.8 -69.55 L-7.0 -68.7 -6.85 -67.9 Q-6.45 -66.95 -4.8 -66.95 -4.0 -66.95 -3.4 -67.35 L-1.6 -68.45 -1.0 -69.15 0.2 -68.6 -0.2 -68.05 -0.55 -66.05 -0.5 -65.5 Q-0.4 -64.65 0.1 -63.9 0.75 -62.95 1.7 -62.95 2.8 -62.95 3.45 -64.65 L3.7 -65.4 Q3.9 -66.35 3.75 -67.25 L3.6 -67.8 3.65 -67.8 3.25 -68.75 4.4 -69.5 4.7 -68.85 Q5.9 -67.0 8.4 -67.0 9.3 -67.0 9.75 -67.5 10.2 -67.9 10.2 -68.35 10.2 -69.7 9.25 -70.45 L6.85 -72.05 5.85 -72.2 5.85 -73.5 6.5 -73.5 Q7.0 -73.5 7.7 -73.8 L8.55 -74.3 Q10.15 -75.3 10.15 -76.7 10.15 -78.2 8.45 -78.35 L7.95 -78.4 Q7.15 -78.4 6.5 -78.0 L6.35 -77.9 4.75 -76.9 4.2 -76.25 3.75 -76.55 3.1 -76.9 3.35 -77.3" fill="#4d0f0f" fill-rule="evenodd" stroke="none"/>
    <path d="M1.9 -81.45 L2.15 -81.7 3.25 -80.35 3.0 -78.75 2.7 -78.65 2.25 -80.3 1.85 -81.35 1.9 -81.45 M1.2 -81.3 L0.85 -80.3 0.25 -79.1 0.15 -79.1 -0.1 -80.05 0.0 -80.3 Q0.2 -80.8 1.1 -81.7 L1.2 -81.3 M9.2 -77.45 L8.35 -77.3 7.05 -77.0 6.6 -77.1 6.5 -77.2 Q7.2 -77.7 7.75 -77.8 L8.4 -77.7 9.2 -77.45 M9.15 -75.15 Q8.45 -74.4 7.85 -74.35 L7.8 -74.35 7.35 -74.7 8.1 -75.5 8.4 -75.85 Q9.1 -76.65 9.5 -76.8 L9.65 -76.75 9.75 -76.9 9.75 -76.55 Q9.75 -75.9 9.15 -75.15 M6.2 -68.7 L7.75 -68.35 9.1 -67.85 9.2 -67.7 Q9.1 -67.35 8.1 -67.35 7.3 -67.35 6.1 -68.15 L6.2 -68.7 M9.65 -68.45 L8.55 -69.4 Q7.95 -70.0 7.95 -70.5 L8.0 -70.6 Q8.85 -70.25 9.25 -69.8 9.65 -69.3 9.65 -68.45 M3.0 -65.0 Q2.9 -64.3 2.45 -63.85 L1.9 -63.55 1.8 -64.0 2.2 -65.1 2.4 -65.45 2.9 -66.1 3.0 -66.1 3.05 -65.45 3.0 -65.0 M0.4 -66.65 L0.7 -65.5 1.15 -63.95 0.9 -63.55 -0.05 -65.0 -0.05 -65.5 0.1 -66.55 0.4 -66.65 M-6.05 -77.85 L-4.95 -77.9 Q-4.05 -77.9 -3.0 -77.15 L-3.1 -76.6 -4.65 -76.95 Q-5.7 -77.05 -6.05 -77.55 L-6.05 -77.85 M-6.6 -76.8 Q-5.5 -76.6 -4.8 -74.75 L-4.95 -74.6 -5.85 -75.4 Q-6.5 -76.2 -6.6 -76.8 M-3.4 -68.25 L-3.35 -68.15 -4.65 -67.35 -6.1 -67.8 -6.0 -67.9 -5.0 -68.2 -3.75 -68.35 Q-3.05 -68.35 -3.4 -68.25 M-6.35 -68.6 L-6.5 -68.55 -6.6 -68.5 -6.6 -68.9 -6.3 -69.85 -5.15 -70.55 -4.2 -70.65 -5.2 -69.5 Q-5.95 -68.7 -6.35 -68.6" fill="#d92b2b" fill-rule="evenodd" stroke="none"/>
    <path d="M3.35 -77.3 L3.1 -76.9 1.1 -77.0 -0.25 -76.75 -0.5 -77.45 0.35 -77.55 0.15 -78.5 0.2 -78.65 0.35 -78.6 1.0 -77.55 1.25 -80.55 1.75 -80.15 2.0 -79.8 2.05 -77.55 2.95 -78.3 Q2.8 -77.4 3.35 -77.3 M4.2 -76.25 L4.75 -76.9 5.25 -76.2 6.05 -77.0 6.15 -76.85 6.2 -76.65 5.8 -75.95 5.55 -75.65 8.3 -76.9 8.2 -76.25 8.0 -75.95 Q7.85 -75.65 7.0 -75.25 L6.05 -74.7 7.2 -74.3 6.5 -73.75 6.5 -73.5 5.85 -73.5 5.15 -75.0 4.95 -75.3 4.2 -76.25 M5.85 -72.2 L6.85 -72.05 6.5 -71.25 7.55 -70.85 7.5 -70.75 Q7.8 -70.65 7.1 -70.65 L6.2 -70.7 8.55 -68.9 8.3 -68.75 7.85 -68.7 Q7.1 -68.7 5.6 -69.85 L5.75 -69.6 5.75 -68.65 Q5.35 -69.05 4.95 -69.0 L4.7 -68.85 4.4 -69.5 5.0 -70.3 5.3 -70.95 5.85 -72.2 M3.25 -68.75 L3.65 -67.8 3.6 -67.8 2.75 -67.7 2.9 -67.25 2.95 -66.55 2.8 -66.6 2.4 -67.25 2.15 -67.7 1.8 -64.75 Q1.7 -64.8 1.55 -64.9 L1.35 -65.5 Q1.15 -66.1 1.1 -67.25 L1.05 -67.7 1.05 -67.8 1.0 -67.6 0.6 -67.25 0.15 -67.0 Q0.25 -67.6 0.0 -67.85 L-0.2 -68.05 0.2 -68.6 1.7 -68.5 2.35 -68.55 3.25 -68.75 M-1.0 -69.15 L-1.6 -68.45 -2.1 -69.15 -2.9 -68.4 Q-3.0 -67.9 -3.0 -68.6 L-2.85 -69.2 -2.45 -69.7 -5.15 -68.5 -5.05 -69.15 -4.55 -69.7 -2.9 -70.65 -3.1 -70.6 Q-3.55 -70.7 -4.0 -71.05 -3.25 -71.35 -3.3 -71.8 L-3.35 -71.9 -3.2 -71.85 -2.75 -71.85 Q-2.7 -71.25 -2.25 -70.6 L-1.95 -70.15 -1.0 -69.15 M-2.8 -73.05 L-3.75 -73.2 -3.7 -73.25 -3.35 -74.1 -4.4 -74.3 -3.05 -74.6 -5.45 -76.35 -4.9 -76.55 Q-3.9 -76.4 -2.5 -75.45 L-2.45 -75.5 -2.7 -76.65 Q-1.95 -76.05 -1.6 -76.45 L-1.4 -76.0 -2.2 -74.55 -2.25 -74.5 -2.8 -73.05" fill="#791515" fill-rule="evenodd" stroke="none"/>
    <path d="M1.9 -81.45 L1.85 -81.35 2.25 -80.3 2.7 -78.65 3.0 -78.75 3.25 -80.35 2.15 -81.7 1.9 -81.45 M1.2 -81.3 L1.1 -81.7 Q0.2 -80.8 0.0 -80.3 L-0.1 -80.05 0.15 -79.1 0.25 -79.1 0.85 -80.3 1.2 -81.3 M-0.5 -77.45 L-0.65 -79.1 -0.55 -80.3 -0.45 -80.75 Q0.05 -82.3 1.35 -82.3 L1.75 -82.25 Q2.75 -82.05 3.25 -80.9 L3.5 -80.35 3.7 -79.15 3.35 -77.3 Q2.8 -77.4 2.95 -78.3 L2.05 -77.55 2.0 -79.8 1.75 -80.15 1.25 -80.55 1.0 -77.55 0.35 -78.6 0.2 -78.65 0.15 -78.5 0.35 -77.55 -0.5 -77.45 M4.75 -76.9 L6.35 -77.9 6.5 -78.0 Q7.15 -78.4 7.95 -78.4 L8.45 -78.35 Q10.15 -78.2 10.15 -76.7 10.15 -75.3 8.55 -74.3 L7.7 -73.8 Q7.0 -73.5 6.5 -73.5 L6.5 -73.75 7.2 -74.3 6.05 -74.7 7.0 -75.25 Q7.85 -75.65 8.0 -75.95 L8.2 -76.25 8.3 -76.9 5.55 -75.65 5.8 -75.95 6.2 -76.65 6.15 -76.85 6.05 -77.0 5.25 -76.2 4.75 -76.9 M6.85 -72.05 L9.25 -70.45 Q10.2 -69.7 10.2 -68.35 10.2 -67.9 9.75 -67.5 9.3 -67.0 8.4 -67.0 5.9 -67.0 4.7 -68.85 L4.95 -69.0 Q5.35 -69.05 5.75 -68.65 L5.75 -69.6 5.6 -69.85 Q7.1 -68.7 7.85 -68.7 L8.3 -68.75 8.55 -68.9 6.2 -70.7 7.1 -70.65 Q7.8 -70.65 7.5 -70.75 L7.55 -70.85 6.5 -71.25 6.85 -72.05 M3.6 -67.8 L3.75 -67.25 Q3.9 -66.35 3.7 -65.4 L3.45 -64.65 Q2.8 -62.95 1.7 -62.95 0.75 -62.95 0.1 -63.9 -0.4 -64.65 -0.5 -65.5 L-0.55 -66.05 -0.2 -68.05 0.0 -67.85 Q0.25 -67.6 0.15 -67.0 L0.6 -67.25 1.0 -67.6 1.05 -67.8 1.05 -67.7 1.1 -67.25 Q1.15 -66.1 1.35 -65.5 L1.55 -64.9 Q1.7 -64.8 1.8 -64.75 L2.15 -67.7 2.4 -67.25 2.8 -66.6 2.95 -66.55 2.9 -67.25 2.75 -67.7 3.6 -67.8 M-1.6 -68.45 L-3.4 -67.35 Q-4.0 -66.95 -4.8 -66.95 -6.45 -66.95 -6.85 -67.9 L-7.0 -68.7 -6.8 -69.55 Q-6.45 -70.35 -5.4 -71.0 -4.2 -71.8 -3.35 -71.9 L-3.3 -71.8 Q-3.25 -71.35 -4.0 -71.05 -3.55 -70.7 -3.1 -70.6 L-2.9 -70.65 -4.55 -69.7 -5.05 -69.15 -5.15 -68.5 -2.45 -69.7 -2.85 -69.2 -3.0 -68.6 Q-3.0 -67.9 -2.9 -68.4 L-2.1 -69.15 -1.6 -68.45 M-3.7 -73.25 L-3.9 -73.35 -6.15 -74.75 Q-7.05 -75.5 -7.05 -76.85 L-6.9 -77.35 -6.65 -77.7 -6.35 -77.95 -5.25 -78.25 Q-4.0 -78.25 -3.1 -77.65 -2.55 -77.35 -1.6 -76.45 -1.95 -76.05 -2.7 -76.65 L-2.45 -75.5 -2.5 -75.45 Q-3.9 -76.4 -4.9 -76.55 L-5.45 -76.35 -3.05 -74.6 -4.4 -74.3 -3.35 -74.1 -3.7 -73.25 M9.2 -77.45 L8.4 -77.7 7.75 -77.8 Q7.2 -77.7 6.5 -77.2 L6.6 -77.1 7.05 -77.0 8.35 -77.3 9.2 -77.45 M9.15 -75.15 Q9.75 -75.9 9.75 -76.55 L9.75 -76.9 9.65 -76.75 9.5 -76.8 Q9.1 -76.65 8.4 -75.85 L8.1 -75.5 7.35 -74.7 7.8 -74.35 7.85 -74.35 Q8.45 -74.4 9.15 -75.15 M9.65 -68.45 Q9.65 -69.3 9.25 -69.8 8.85 -70.25 8.0 -70.6 L7.95 -70.5 Q7.95 -70.0 8.55 -69.4 L9.65 -68.45 M6.2 -68.7 L6.1 -68.15 Q7.3 -67.35 8.1 -67.35 9.1 -67.35 9.2 -67.7 L9.1 -67.85 7.75 -68.35 6.2 -68.7 M3.0 -65.0 L3.05 -65.45 3.0 -66.1 2.9 -66.1 2.4 -65.45 2.2 -65.1 1.8 -64.0 1.9 -63.55 2.45 -63.85 Q2.9 -64.3 3.0 -65.0 M0.4 -66.65 L0.1 -66.55 -0.05 -65.5 -0.05 -65.0 0.9 -63.55 1.15 -63.95 0.7 -65.5 0.4 -66.65 M-6.05 -77.85 L-6.05 -77.55 Q-5.7 -77.05 -4.65 -76.95 L-3.1 -76.6 -3.0 -77.15 Q-4.05 -77.9 -4.95 -77.9 L-6.05 -77.85 M-6.6 -76.8 Q-6.5 -76.2 -5.85 -75.4 L-4.95 -74.6 -4.8 -74.75 Q-5.5 -76.6 -6.6 -76.8 M-3.4 -68.25 Q-3.05 -68.35 -3.75 -68.35 L-5.0 -68.2 -6.0 -67.9 -6.1 -67.8 -4.65 -67.35 -3.35 -68.15 -3.4 -68.25 M-6.35 -68.6 Q-5.95 -68.7 -5.2 -69.5 L-4.2 -70.65 -5.15 -70.55 -6.3 -69.85 -6.6 -68.9 -6.6 -68.5 -6.5 -68.55 -6.35 -68.6" fill="#981d1d" fill-rule="evenodd" stroke="none"/>
    <path d="M14.7 -117.75 Q12.55 -119.0 11.9 -119.9 L12.0 -120.2 12.1 -120.5 Q13.95 -121.6 16.25 -121.35 19.9 -121.0 26.65 -117.6 28.65 -116.6 31.55 -113.4 35.0 -109.6 35.0 -106.95 35.0 -104.8 35.9 -103.4 L37.2 -101.35 40.05 -96.55 Q44.85 -87.7 46.85 -83.5 51.3 -74.5 50.75 -75.2 51.95 -72.25 52.6 -68.9 55.1 -56.85 55.7 -52.25 57.1 -41.8 57.55 -28.6 L57.75 -16.15 Q57.75 -8.9 57.0 -5.45 56.4 -2.6 55.1 -1.65 54.45 -1.15 50.2 0.35 L47.95 1.15 47.7 2.35 Q48.0 2.7 44.05 13.5 40.1 24.25 28.95 33.0 19.1 40.65 1.55 40.75 -16.8 41.15 -29.45 29.5 -44.15 16.05 -47.25 -1.4 L-48.3 -0.8 -52.1 -2.3 -54.25 -2.95 Q-54.8 -3.5 -54.8 -7.15 -54.8 -12.8 -47.6 -40.65 -40.7 -67.2 -36.05 -75.4 L-35.9 -75.65 -34.7 -77.45 -35.1 -78.65 -36.15 -81.65 Q-35.4 -84.7 -32.5 -91.9 L-31.75 -93.8 -28.45 -101.35 -27.75 -102.4 -26.35 -103.75 -24.25 -105.65 -24.1 -105.45 Q-24.05 -105.7 -24.05 -105.45 L-24.05 -105.15 -24.05 -104.9 -25.7 -101.35 -26.8 -98.8 Q-28.4 -95.1 -29.1 -90.95 L-29.45 -88.15 -29.6 -84.5 -29.1 -80.95 -28.65 -77.5 -28.65 -76.6 -28.1 -72.7 -28.05 -72.45 -27.55 -70.55 -27.45 -70.25 -26.8 -68.25 Q-25.4 -64.35 -24.25 -62.65 L-23.5 -61.75 -19.55 -65.75 -19.5 -65.75 -18.8 -66.55 -16.7 -68.75 -16.55 -68.9 -14.5 -71.1 -14.45 -71.2 -12.95 -72.85 -12.6 -73.2 -10.25 -75.85 -8.4 -77.95 -4.9 -81.9 -4.6 -82.25 1.55 -89.4 11.8 -101.35 14.9 -104.9 21.1 -112.3 22.1 -113.75 22.25 -114.0 20.25 -115.0 Q19.0 -115.6 17.1 -116.5 15.7 -117.15 14.7 -117.75 M33.3 -106.35 Q33.3 -109.5 28.05 -114.1 22.4 -119.0 17.85 -118.4 L19.7 -117.55 22.55 -116.15 Q24.15 -115.3 24.55 -113.8 L24.6 -113.6 24.45 -113.2 23.7 -112.5 22.4 -111.3 Q17.25 -106.5 12.75 -101.35 L8.2 -95.85 6.75 -93.8 5.55 -92.15 4.85 -91.15 5.6 -87.35 6.05 -84.9 8.6 -86.65 10.3 -87.7 10.7 -87.95 15.55 -90.75 20.8 -93.5 22.15 -94.15 24.4 -95.15 26.9 -96.35 29.65 -98.3 Q31.25 -99.6 31.9 -100.65 L32.2 -101.3 32.2 -101.35 33.3 -106.35 M-7.55 -67.5 L-10.8 -65.6 -11.55 -65.15 -12.85 -64.4 -13.4 -64.05 -14.8 -63.25 -14.95 -63.15 -16.65 -62.15 -16.95 -62.0 -18.9 -60.85 Q-22.95 -58.55 -23.35 -58.45 L-29.45 -35.0 -29.95 -33.15 -30.4 -31.45 -30.6 -30.65 -31.15 -28.6 -31.25 -28.3 -31.3 -28.1 -31.65 -26.75 -32.5 -23.65 -33.2 -20.9 -33.4 -20.25 -34.45 -15.95 -34.75 -14.65 -34.95 -13.85 -34.95 -13.8 -35.25 -12.4 -35.4 -11.5 -35.65 -9.25 -35.15 -8.5 Q-30.8 -1.95 -28.85 -0.7 L-28.5 -0.5 -23.75 0.85 -22.0 1.3 -21.5 1.4 -20.85 1.55 -20.0 1.7 -16.2 2.65 -15.05 2.9 -12.05 3.25 -11.8 3.25 -8.5 3.3 -5.35 3.35 -4.45 3.35 -2.9 3.4 -1.1 3.45 -1.0 3.45 3.65 3.55 5.35 3.65 7.2 3.7 7.35 3.7 12.9 3.95 13.8 4.0 15.95 4.0 20.65 3.8 24.6 3.55 25.25 3.5 28.25 3.2 32.0 2.75 32.05 2.75 33.7 2.55 37.85 1.9 42.35 0.95 46.6 -0.45 46.7 -0.5 47.95 -0.95 48.35 -1.1 50.7 -2.0 Q53.1 -2.85 54.0 -3.7 54.65 -4.3 54.8 -5.55 L55.1 -9.25 55.75 -11.6 Q56.15 -12.7 56.15 -15.45 L55.9 -28.6 Q55.4 -39.7 54.0 -48.75 L51.7 -63.55 Q51.5 -69.0 44.8 -82.8 L41.1 -90.05 40.75 -90.65 35.15 -101.35 34.5 -102.55 34.2 -101.35 33.95 -100.65 33.1 -98.85 33.05 -98.7 Q32.15 -97.4 30.55 -96.25 L27.75 -94.65 22.85 -92.3 21.5 -91.7 19.45 -90.75 14.8 -88.55 12.85 -87.55 9.0 -85.35 6.4 -83.5 6.45 -82.35 6.45 -82.05 6.5 -80.75 5.65 -81.15 5.35 -81.2 5.0 -81.15 5.0 -81.4 5.0 -82.2 4.75 -84.0 3.55 -89.4 1.75 -87.2 -5.4 -79.05 Q-6.4 -79.1 -7.1 -78.45 -7.85 -77.65 -7.85 -76.7 L-7.75 -76.35 -18.1 -64.55 -20.95 -61.35 -19.35 -62.3 -18.85 -62.55 -16.9 -63.7 -16.65 -63.85 -14.9 -64.85 -14.75 -64.95 -13.3 -65.75 -12.85 -66.05 -11.35 -66.9 -7.65 -69.05 -7.75 -68.6 -7.55 -67.5 M-31.1 -13.0 L-31.15 -13.0 -31.25 -13.1 -31.35 -13.2 Q-32.3 -14.2 -32.3 -15.6 -32.3 -17.05 -31.25 -18.05 L-30.55 -18.6 -29.6 -19.0 -29.15 -19.05 -28.8 -19.1 -28.1 -19.0 Q-27.1 -18.85 -26.3 -18.05 L-26.0 -17.7 -25.5 -16.8 -25.3 -15.6 Q-25.3 -14.75 -25.65 -14.05 L-26.3 -13.1 -27.5 -12.3 -28.8 -12.1 Q-30.15 -12.1 -31.1 -13.0 M-26.95 -29.5 L-27.3 -29.8 -27.6 -30.1 -27.95 -30.7 Q-28.35 -31.45 -28.35 -32.3 -28.35 -33.75 -27.3 -34.75 -26.5 -35.6 -25.35 -35.75 L-24.85 -35.8 Q-23.9 -35.8 -23.15 -35.35 L-22.35 -34.75 -21.55 -33.55 -21.35 -32.3 -21.4 -31.6 Q-21.6 -30.6 -22.35 -29.8 -23.25 -28.95 -24.35 -28.8 L-24.85 -28.8 Q-26.05 -28.8 -26.95 -29.5 M-22.35 -46.1 L-22.8 -46.5 Q-23.85 -47.55 -23.85 -49.0 -23.85 -50.45 -22.8 -51.45 -22.0 -52.3 -20.9 -52.45 L-20.35 -52.5 Q-18.9 -52.5 -17.85 -51.45 -17.15 -50.75 -16.9 -49.8 L-16.85 -49.0 -16.9 -48.45 Q-17.05 -47.35 -17.85 -46.5 -18.9 -45.5 -20.35 -45.5 -21.45 -45.5 -22.35 -46.1 M40.8 2.65 L40.65 2.65 37.55 3.25 33.5 4.0 33.15 6.2 32.1 7.0 31.4 6.8 31.65 4.35 29.3 4.7 29.05 4.75 28.4 9.85 26.2 19.4 Q24.95 24.1 23.5 27.6 L21.1 32.45 18.4 36.4 Q24.8 35.2 33.2 26.9 42.3 17.85 45.35 6.0 L46.25 1.55 40.8 2.65 M27.45 8.15 L28.9 4.8 27.95 4.9 21.15 5.8 7.75 5.2 5.75 5.15 5.25 5.15 4.95 8.7 4.8 8.7 4.25 16.65 Q11.55 20.55 16.35 22.5 19.95 23.75 23.6 24.45 L25.6 17.1 27.35 8.95 27.45 8.15 M3.9 17.65 Q1.0 15.35 1.95 11.85 L3.35 8.2 3.55 5.1 -0.8 4.95 -1.15 4.95 -1.25 8.6 -2.2 8.8 -3.05 7.9 -2.95 4.9 -4.05 4.85 -10.4 4.75 -13.75 4.7 -22.1 3.1 -25.3 2.6 -25.65 2.55 -28.35 1.7 -29.3 1.15 Q-30.9 0.2 -32.25 -1.4 L-37.35 -7.7 Q-37.65 -7.4 -39.7 -6.45 L-39.75 -6.4 Q-41.85 -5.4 -42.8 -4.6 L-45.2 -2.75 -44.0 3.05 Q-41.7 12.7 -32.8 23.85 -23.9 34.95 -12.3 37.6 -0.7 40.25 5.2 39.75 11.1 39.2 14.85 37.95 17.45 36.8 20.4 31.75 L23.3 25.35 21.8 25.0 21.6 24.95 Q18.55 24.5 12.45 21.95 7.1 19.45 3.9 17.65 M-31.25 -83.6 L-31.75 -89.25 -32.5 -87.3 -34.65 -81.65 -33.35 -79.05 -33.3 -78.95 -32.9 -77.85 -32.5 -76.85 -30.5 -72.05 -29.4 -69.6 -29.35 -69.5 -28.85 -68.5 -29.15 -70.1 -29.15 -70.15 -29.85 -74.0 -30.35 -77.3 -31.15 -82.95 -31.25 -83.6 M-33.85 -75.15 L-33.9 -75.3 -35.8 -70.7 -39.3 -62.25 -39.45 -61.9 -40.1 -60.15 Q-42.35 -54.25 -44.8 -44.7 L-50.15 -21.3 -53.05 -7.05 Q-53.05 -4.95 -52.5 -4.2 -51.6 -3.0 -48.6 -3.0 L-47.6 -3.55 -47.0 -4.0 -46.9 -4.1 -45.55 -5.05 -45.45 -5.1 Q-44.0 -6.15 -42.4 -7.0 L-39.9 -8.5 -39.05 -9.15 Q-37.35 -10.5 -37.0 -11.65 L-36.95 -12.05 -36.9 -12.8 -36.8 -14.25 -36.8 -14.35 -36.65 -15.3 -36.35 -16.8 -36.15 -17.85 -35.25 -21.35 -32.7 -31.05 -32.65 -31.4 -32.5 -31.95 -31.95 -34.0 -31.9 -34.2 -31.5 -35.75 -30.9 -38.15 -30.65 -39.1 -24.95 -59.4 Q-25.55 -59.7 -25.95 -59.95 L-27.4 -61.2 -29.35 -64.85 -29.35 -64.9 -29.6 -65.4 -30.3 -66.9 -30.45 -67.25 -31.3 -69.15 -32.5 -71.9 -33.85 -75.15 M-22.1 -50.75 Q-22.85 -50.05 -22.85 -49.0 -22.85 -47.95 -22.1 -47.2 L-22.05 -47.15 Q-21.35 -46.5 -20.35 -46.5 -19.3 -46.5 -18.55 -47.2 -17.85 -47.95 -17.85 -49.0 -17.85 -50.05 -18.55 -50.75 -19.3 -51.5 -20.35 -51.5 L-21.15 -51.35 -22.1 -50.75 M-23.05 -34.05 L-23.9 -34.6 -24.85 -34.8 -25.6 -34.7 -26.6 -34.05 Q-27.35 -33.35 -27.35 -32.3 L-27.2 -31.45 -26.65 -30.55 -26.6 -30.5 Q-26.1 -30.0 -25.45 -29.85 L-24.85 -29.8 Q-23.8 -29.8 -23.05 -30.5 -22.35 -31.25 -22.35 -32.3 L-22.4 -32.75 Q-22.5 -33.5 -23.05 -34.05 M-29.9 -17.85 L-30.55 -17.35 -30.8 -17.1 Q-31.3 -16.45 -31.3 -15.6 L-31.15 -14.7 -30.85 -14.1 -30.55 -13.8 Q-29.85 -13.1 -28.8 -13.1 -27.75 -13.1 -27.0 -13.8 L-26.65 -14.3 Q-26.3 -14.85 -26.3 -15.6 L-26.55 -16.7 -27.0 -17.35 Q-27.75 -18.1 -28.8 -18.1 L-29.9 -17.85" fill="#0a0a0a" fill-rule="evenodd" stroke="none"/>
    <path d="M24.45 -113.2 L24.6 -113.6 24.55 -113.8 Q24.15 -115.3 22.55 -116.15 L19.7 -117.55 17.85 -118.4 Q22.4 -119.0 28.05 -114.1 33.3 -109.5 33.3 -106.35 L24.3 -112.85 24.45 -113.2 M8.6 -86.65 L6.05 -84.9 5.6 -87.35 4.85 -91.15 5.55 -92.15 6.0 -92.75 8.6 -86.65 M6.5 -80.75 L6.45 -82.05 6.45 -82.35 6.4 -83.5 9.0 -85.35 12.85 -87.55 14.8 -88.55 19.45 -90.75 21.5 -91.7 22.85 -92.3 27.75 -94.65 30.55 -96.25 Q32.15 -97.4 33.05 -98.7 L33.1 -98.85 33.95 -100.65 34.2 -101.35 34.5 -102.55 35.15 -101.35 40.75 -90.65 41.1 -90.05 44.8 -82.8 Q51.5 -69.0 51.7 -63.55 L54.0 -48.75 Q55.4 -39.7 55.9 -28.6 L56.15 -15.45 Q56.15 -12.7 55.75 -11.6 L55.1 -9.25 54.8 -5.55 Q54.65 -4.3 54.0 -3.7 53.1 -2.85 50.7 -2.0 L48.35 -1.1 47.95 -0.95 46.7 -0.5 46.6 -0.45 42.35 0.95 37.85 1.9 33.7 2.55 32.05 2.75 32.0 2.75 28.25 3.2 25.25 3.5 24.6 3.55 20.65 3.8 15.95 4.0 13.8 4.0 12.9 3.95 7.35 3.7 7.2 3.7 5.35 3.65 3.65 3.55 -1.0 3.45 -1.1 3.45 -2.9 3.4 -4.45 3.35 -5.35 3.35 -8.5 3.3 -11.8 3.25 -12.05 3.25 -15.05 2.9 -16.2 2.65 -20.0 1.7 -20.85 1.55 -21.5 1.4 -22.0 1.3 -23.75 0.85 -28.5 -0.5 -28.85 -0.7 Q-30.8 -1.95 -35.15 -8.5 L-35.65 -9.25 -35.4 -11.5 -35.25 -12.4 -34.95 -13.8 -34.95 -13.85 -34.75 -14.65 -34.45 -15.95 -33.4 -20.25 -33.2 -20.9 -32.5 -23.65 -31.65 -26.75 -31.3 -28.1 -31.25 -28.3 -31.15 -28.6 -30.6 -30.65 -30.4 -31.45 -29.95 -33.15 -29.45 -35.0 -23.35 -58.45 Q-22.95 -58.55 -18.9 -60.85 L-16.95 -62.0 -16.65 -62.15 -14.95 -63.15 -14.8 -63.25 -13.4 -64.05 -12.85 -64.4 -11.55 -65.15 -10.8 -65.6 -7.55 -67.5 -7.15 -66.85 Q-6.2 -65.8 -4.35 -66.25 L-3.7 -65.1 -10.05 -61.95 -8.35 -61.85 -5.2 -61.3 -2.5 -60.75 12.5 -60.35 12.9 -60.4 12.9 -65.05 7.8 -65.25 7.05 -65.3 7.45 -66.35 Q8.85 -66.3 9.75 -66.8 L10.85 -66.75 13.6 -66.7 13.75 -66.6 Q14.5 -66.15 14.5 -63.25 14.5 -59.35 13.75 -58.8 L12.15 -58.6 9.1 -58.55 -2.75 -58.75 -12.0 -59.85 -12.85 -59.95 -13.5 -60.05 -13.9 -60.1 -14.9 -59.55 -14.95 -59.5 -16.55 -58.3 -17.0 -57.95 -17.2 -57.8 -18.85 -56.35 -20.25 -54.8 -20.9 -52.45 Q-22.0 -52.3 -22.8 -51.45 -23.85 -50.45 -23.85 -49.0 -23.85 -47.55 -22.8 -46.5 L-22.35 -46.1 -23.35 -42.85 -24.55 -38.8 -24.8 -37.85 -25.35 -35.75 Q-26.5 -35.6 -27.3 -34.75 -28.35 -33.75 -28.35 -32.3 -28.35 -31.45 -27.95 -30.7 L-27.6 -30.1 -27.3 -29.8 -26.95 -29.5 -27.15 -28.6 -27.9 -25.8 -29.6 -19.0 -30.55 -18.6 -31.25 -18.05 Q-32.3 -17.05 -32.3 -15.6 -32.3 -14.2 -31.35 -13.2 L-31.25 -13.1 -31.15 -13.0 -31.1 -13.0 -31.45 -11.55 -31.75 -10.35 -32.35 -8.05 -32.5 -7.3 Q-32.5 -6.3 -29.2 -4.05 L-28.15 -3.35 Q-25.95 -1.95 -25.0 -1.75 L-13.45 -0.15 -7.9 0.3 -4.65 0.4 -4.45 0.4 -2.8 0.4 -1.0 0.4 3.8 0.25 5.6 0.2 7.55 0.1 11.45 -0.2 12.15 -0.25 20.0 -1.2 24.9 -1.95 27.25 -2.35 29.15 -2.7 29.4 -2.75 29.6 -6.2 29.6 -6.95 29.65 -7.95 29.65 -8.1 29.7 -9.1 29.7 -9.65 29.8 -11.9 30.1 -22.35 30.15 -25.55 30.2 -27.45 30.25 -28.6 30.3 -32.05 30.4 -37.35 30.45 -42.0 30.5 -47.0 30.5 -47.05 30.4 -52.1 30.1 -56.75 29.7 -62.4 28.35 -78.5 Q27.75 -80.6 26.95 -81.1 L26.15 -81.6 25.2 -82.35 Q24.7 -82.95 23.95 -84.25 L23.75 -84.55 Q22.45 -85.75 18.95 -85.75 L17.2 -85.6 Q15.3 -85.35 13.45 -84.5 L13.1 -84.35 Q10.05 -82.95 9.0 -80.55 L8.55 -79.2 7.4 -79.1 Q7.05 -80.25 6.5 -80.75 M31.95 -74.75 Q31.65 -76.35 29.75 -77.6 31.05 -68.15 31.7 -47.9 L32.1 -28.6 32.15 -16.15 32.0 -12.1 31.9 -10.05 31.9 -9.85 31.9 -9.25 31.85 -8.3 31.85 -8.1 31.8 -7.2 31.7 -5.85 31.5 -3.05 32.85 -3.05 34.6 -3.4 36.0 -3.85 37.8 -4.6 39.3 -5.4 41.3 -6.9 Q43.35 -8.75 44.8 -9.45 L45.0 -9.8 45.15 -10.55 45.2 -11.15 45.25 -12.1 45.25 -13.4 Q44.75 -20.75 43.85 -28.6 L42.7 -37.4 41.4 -45.75 40.65 -49.65 38.85 -57.55 Q36.6 -66.1 33.95 -70.1 L34.0 -68.65 33.85 -66.55 33.2 -66.5 32.25 -68.55 Q31.9 -69.5 31.9 -71.8 L31.95 -74.75 M35.15 -9.7 L35.25 -9.55 35.5 -8.9 35.5 -8.75 35.5 -8.55 35.3 -7.65 35.25 -7.55 34.75 -6.75 34.3 -7.55 33.95 -8.55 Q33.8 -9.0 33.8 -9.4 L33.75 -9.8 33.75 -10.05 33.8 -10.65 34.0 -11.1 34.3 -11.15 34.9 -10.2 35.15 -9.7 M34.7 -15.75 Q34.35 -15.75 34.15 -16.3 33.9 -16.9 33.9 -17.75 33.9 -18.6 34.15 -19.15 34.35 -19.75 34.7 -19.75 L35.3 -19.15 35.5 -17.75 35.3 -16.3 Q35.05 -15.75 34.7 -15.75 M34.25 -28.45 L34.5 -28.6 34.75 -28.75 35.6 -27.9 35.65 -26.5 Q35.65 -25.2 35.0 -24.9 34.0 -26.9 34.0 -27.65 34.0 -28.25 34.25 -28.45 M34.2 -38.25 Q34.5 -39.0 34.9 -39.0 35.3 -39.0 35.6 -38.25 L35.9 -36.5 35.6 -34.7 Q35.3 -34.0 34.9 -34.0 34.5 -34.0 34.2 -34.7 33.9 -35.45 33.9 -36.5 33.9 -37.55 34.2 -38.25 M34.8 -48.85 Q35.25 -47.8 35.25 -46.0 35.25 -43.75 35.0 -43.65 L34.2 -43.7 Q33.65 -44.35 33.65 -45.8 L33.9 -47.7 Q34.2 -48.8 34.45 -49.0 L34.8 -48.85 M34.55 -60.3 L34.75 -58.55 34.55 -56.75 Q34.3 -56.05 33.95 -56.05 33.6 -56.05 33.4 -56.75 33.15 -57.5 33.15 -58.55 33.15 -59.6 33.4 -60.3 33.6 -61.05 33.95 -61.05 34.3 -61.05 34.55 -60.3 M40.8 2.65 L46.25 1.55 45.35 6.0 Q42.3 17.85 33.2 26.9 24.8 35.2 18.4 36.4 L21.1 32.45 Q22.9 30.85 26.65 28.1 L32.0 23.3 Q37.7 17.0 40.2 6.55 L40.8 2.65 M37.55 3.25 L40.65 2.65 39.0 5.9 36.85 9.6 Q36.45 9.2 36.5 8.6 36.45 7.8 37.15 5.6 L37.15 5.25 37.55 3.25 M32.35 8.6 Q32.55 8.5 32.8 9.35 L32.7 10.8 32.1 12.45 31.5 13.0 Q31.2 12.95 31.25 12.45 31.05 11.7 31.25 10.85 31.4 9.8 31.8 9.35 32.0 8.5 32.35 8.6 M27.95 4.9 L28.9 4.8 27.45 8.15 27.95 4.9 M27.35 8.95 L25.6 17.1 23.6 24.45 Q19.95 23.75 16.35 22.5 11.55 20.55 4.25 16.65 L4.8 8.7 4.95 8.7 5.25 5.15 5.75 5.15 7.75 5.2 7.0 6.7 Q5.9 8.95 5.8 12.2 5.65 12.5 6.35 13.7 7.1 15.2 8.45 16.5 12.35 20.5 19.55 20.65 21.8 20.55 23.45 19.3 24.8 18.15 27.35 8.95 M28.05 24.65 Q28.2 23.65 28.85 23.0 L28.45 24.95 Q28.0 26.55 28.1 26.6 L27.4 26.65 28.05 24.65 M31.15 16.65 L31.1 18.1 30.65 19.55 30.05 20.1 Q29.7 20.0 29.7 19.55 29.55 18.9 29.8 18.1 29.85 17.1 30.3 16.65 30.5 15.85 30.85 16.05 31.1 15.9 31.15 16.65 M21.8 25.0 L23.3 25.35 20.4 31.75 Q17.45 36.8 14.85 37.95 11.1 39.2 5.2 39.75 -0.7 40.25 -12.3 37.6 -23.9 34.95 -32.8 23.85 -41.7 12.7 -44.0 3.05 L-45.2 -2.75 -42.8 -4.6 Q-41.85 -5.4 -39.75 -6.4 L-39.45 -3.15 Q-39.5 -2.5 -38.55 -2.15 -37.6 -1.85 -37.3 -1.5 -37.7 -1.15 -38.75 -0.35 -39.7 0.4 -39.4 2.2 -37.5 16.65 -24.1 26.85 -12.6 35.55 0.65 35.55 L6.4 35.1 17.85 32.85 20.8 27.2 Q21.25 25.7 21.8 25.0 M-25.65 2.55 L-25.3 2.6 -22.1 3.1 -25.6 3.0 -25.65 2.55 M-4.05 4.85 L-2.95 4.9 -3.05 7.9 -2.2 8.8 -1.25 8.6 -1.15 4.95 -0.8 4.95 -0.8 5.2 -1.0 7.85 -1.75 12.25 Q-2.1 12.8 -2.55 12.95 -3.2 11.95 -3.55 10.15 L-4.05 4.85 M-33.35 -79.05 L-34.65 -81.65 -32.5 -87.3 -31.75 -89.25 -31.25 -83.6 -32.5 -81.25 -32.85 -80.35 -33.35 -79.05 M-33.85 -75.15 L-32.5 -71.9 -31.3 -69.15 -30.45 -67.25 -30.3 -66.9 -29.6 -65.4 -29.35 -64.9 -29.35 -64.85 -27.4 -61.2 -25.95 -59.95 Q-25.55 -59.7 -24.95 -59.4 L-30.65 -39.1 -30.9 -38.15 -31.5 -35.75 -31.9 -34.2 -31.95 -34.0 -32.5 -31.95 -32.65 -31.4 -32.7 -31.05 -35.25 -21.35 -36.15 -17.85 -36.35 -16.8 -36.65 -15.3 -36.8 -14.35 -36.8 -14.25 -36.9 -12.8 -36.95 -12.05 -37.0 -11.65 Q-37.35 -10.5 -39.05 -9.15 L-39.9 -8.5 -42.4 -7.0 Q-44.0 -6.15 -45.45 -5.1 L-45.55 -5.05 -46.9 -4.1 -47.0 -4.0 -47.6 -3.55 -48.6 -3.0 Q-51.6 -3.0 -52.5 -4.2 -53.05 -4.95 -53.05 -7.05 L-50.15 -21.3 -44.8 -44.7 Q-42.35 -54.25 -40.1 -60.15 L-39.45 -61.9 -39.3 -62.25 -35.8 -70.7 -33.9 -75.3 -33.85 -75.15 M-32.4 -60.45 L-32.5 -60.35 -32.75 -59.25 -32.7 -58.95 -32.5 -58.15 -32.35 -57.8 -32.25 -57.5 -32.0 -56.35 -32.5 -53.65 -34.3 -46.65 -36.0 -40.7 -36.35 -39.45 Q-40.15 -26.05 -40.45 -23.9 -40.8 -21.35 -41.9 -18.8 L-42.35 -17.85 -43.2 -16.4 -43.25 -16.35 -43.4 -16.05 -44.05 -15.15 -44.15 -15.0 -46.25 -12.25 -46.3 -12.2 -47.95 -10.2 -48.0 -10.15 -47.95 -9.25 -47.8 -9.1 -47.0 -9.0 -46.05 -9.05 -46.0 -9.05 Q-42.7 -9.5 -40.35 -13.15 L-40.05 -13.7 -39.4 -14.9 -39.35 -15.05 -38.95 -15.95 -38.85 -16.2 -38.35 -17.55 Q-37.35 -20.65 -36.45 -25.7 L-34.3 -33.85 -34.1 -34.55 -33.55 -36.65 -33.2 -37.9 -33.1 -38.35 -32.5 -40.75 -31.8 -43.4 -29.95 -50.8 -29.25 -54.3 Q-29.25 -55.75 -30.05 -57.95 L-30.7 -59.45 -30.9 -59.8 -31.4 -60.35 -31.45 -60.4 -32.4 -60.45 M-29.6 1.15 L-30.25 1.5 -33.75 0.3 -33.45 -1.2 Q-29.8 0.55 -29.6 1.15" fill="#1a1a1a" fill-rule="evenodd" stroke="none"/>
    <path d="M33.3 -106.35 L32.2 -101.35 32.2 -101.3 31.7 -101.0 Q29.6 -99.9 25.95 -98.25 L20.15 -95.75 13.6 -93.1 Q12.15 -92.55 12.0 -92.55 11.2 -92.55 10.7 -93.3 9.9 -94.65 8.2 -95.85 L12.75 -101.35 Q17.25 -106.5 22.4 -111.3 L23.7 -112.5 24.45 -113.2 24.3 -112.85 33.3 -106.35 M10.3 -87.7 L8.6 -86.65 6.0 -92.75 5.55 -92.15 6.75 -93.8 Q7.3 -92.1 8.45 -90.65 9.6 -89.2 10.9 -88.5 L10.3 -87.7 M-18.1 -64.55 L-7.75 -76.35 -7.5 -75.75 -6.95 -74.5 -7.65 -73.45 -8.0 -72.75 Q-7.9 -71.7 -7.25 -71.1 L-9.55 -69.65 -11.15 -68.7 -12.85 -67.7 -13.25 -67.45 -14.7 -66.6 -14.85 -66.5 -16.6 -65.45 -16.85 -65.3 -18.1 -64.55 M-5.4 -79.05 L1.75 -87.2 1.75 -83.05 1.45 -83.1 0.45 -82.8 Q-0.6 -82.25 -1.1 -80.95 L-2.2 -81.2 Q-2.8 -81.2 -3.4 -80.65 L-3.4 -80.6 -4.35 -78.9 -5.4 -79.05 M8.55 -79.2 L9.0 -80.55 Q10.05 -82.95 13.1 -84.35 L13.45 -84.5 Q15.3 -85.35 17.2 -85.6 L18.95 -85.75 Q22.45 -85.75 23.75 -84.55 L23.95 -84.25 Q24.7 -82.95 25.2 -82.35 L26.15 -81.6 26.95 -81.1 Q27.75 -80.6 28.35 -78.5 L29.7 -62.4 30.1 -56.75 30.4 -52.1 30.5 -47.05 30.5 -47.0 30.45 -42.0 30.4 -37.35 30.3 -32.05 30.25 -28.6 30.2 -27.45 30.15 -25.55 30.1 -22.35 29.8 -11.9 29.7 -9.65 29.7 -9.1 29.65 -8.1 29.65 -7.95 29.6 -6.95 29.6 -6.2 29.4 -2.75 29.15 -2.7 27.25 -2.35 24.9 -1.95 20.0 -1.2 12.15 -0.25 11.45 -0.2 7.55 0.1 5.6 0.2 3.8 0.25 -1.0 0.4 -2.8 0.4 -4.45 0.4 -4.65 0.4 -7.9 0.3 -13.45 -0.15 -25.0 -1.75 Q-25.95 -1.95 -28.15 -3.35 L-29.2 -4.05 Q-32.5 -6.3 -32.5 -7.3 L-32.35 -8.05 -31.75 -10.35 -31.45 -11.55 -31.1 -13.0 Q-30.15 -12.1 -28.8 -12.1 L-27.5 -12.3 -26.3 -13.1 -25.65 -14.05 Q-25.3 -14.75 -25.3 -15.6 L-25.5 -16.8 -26.0 -17.7 -26.3 -18.05 Q-27.1 -18.85 -28.1 -19.0 L-28.8 -19.1 -29.15 -19.05 -29.6 -19.0 -27.9 -25.8 -27.15 -28.6 -26.95 -29.5 Q-26.05 -28.8 -24.85 -28.8 L-24.35 -28.8 Q-23.25 -28.95 -22.35 -29.8 -21.6 -30.6 -21.4 -31.6 L-21.35 -32.3 -21.55 -33.55 -22.35 -34.75 -23.15 -35.35 Q-23.9 -35.8 -24.85 -35.8 L-25.35 -35.75 -24.8 -37.85 -24.55 -38.8 -23.35 -42.85 -22.35 -46.1 Q-21.45 -45.5 -20.35 -45.5 -18.9 -45.5 -17.85 -46.5 -17.05 -47.35 -16.9 -48.45 L-16.85 -49.0 -16.9 -49.8 Q-17.15 -50.75 -17.85 -51.45 -18.9 -52.5 -20.35 -52.5 L-20.9 -52.45 -20.25 -54.8 -18.85 -56.35 -17.2 -57.8 -17.0 -57.95 -16.55 -58.3 -14.95 -59.5 -14.9 -59.55 -13.9 -60.1 -13.5 -60.05 -12.85 -59.95 -12.0 -59.85 -2.75 -58.75 9.1 -58.55 12.15 -58.6 13.75 -58.8 Q14.5 -59.35 14.5 -63.25 14.5 -66.15 13.75 -66.6 L13.6 -66.7 10.85 -66.75 9.75 -66.8 10.25 -67.15 Q11.0 -67.75 11.0 -68.45 L10.65 -69.35 10.1 -70.75 10.9 -71.95 11.2 -72.6 10.9 -73.3 10.0 -74.55 10.6 -75.85 10.95 -76.75 Q10.95 -77.8 10.2 -78.55 9.55 -79.15 8.55 -79.2 M31.95 -74.75 L31.9 -71.8 Q31.9 -69.5 32.25 -68.55 L33.2 -66.5 33.85 -66.55 34.0 -68.65 33.95 -70.1 Q36.6 -66.1 38.85 -57.55 L40.65 -49.65 41.4 -45.75 42.7 -37.4 43.85 -28.6 Q44.75 -20.75 45.25 -13.4 L45.25 -12.1 45.2 -11.15 45.15 -10.55 45.0 -9.8 44.8 -9.45 Q43.35 -8.75 41.3 -6.9 L39.3 -5.4 37.8 -4.6 36.0 -3.85 34.6 -3.4 32.85 -3.05 31.5 -3.05 31.7 -5.85 31.8 -7.2 31.85 -8.1 31.85 -8.3 31.9 -9.25 31.9 -9.85 31.9 -10.05 32.0 -12.1 32.15 -16.15 32.1 -28.6 31.7 -47.9 Q31.05 -68.15 29.75 -77.6 31.65 -76.35 31.95 -74.75 M5.55 -54.5 L-3.0 -55.25 Q-9.15 -55.25 -12.25 -53.4 L-12.5 -53.25 -13.15 -52.8 -13.5 -52.45 -14.55 -51.25 -14.9 -50.7 -15.8 -48.5 Q-16.3 -46.65 -16.3 -44.2 L-16.1 -43.0 -15.55 -42.85 -14.65 -42.8 -14.4 -42.8 -13.85 -42.8 -13.25 -42.8 -11.8 -42.85 -11.6 -42.9 -4.15 -43.8 3.15 -45.25 4.0 -45.5 Q2.15 -43.4 -0.9 -41.35 -4.2 -39.15 -8.95 -37.0 L-14.55 -34.15 Q-17.45 -32.5 -18.0 -31.25 L-18.25 -30.65 -19.2 -28.6 -19.25 -28.5 -22.6 -21.25 -23.4 -19.6 -23.5 -19.4 -24.4 -17.4 -24.8 -16.35 -25.15 -14.9 Q-25.15 -14.25 -24.25 -13.7 -22.3 -12.4 -15.9 -11.3 -8.15 -10.0 -2.15 -10.0 4.9 -10.0 11.05 -11.45 L14.2 -12.3 17.55 -13.55 21.35 -15.3 22.15 -15.75 25.2 -17.85 26.4 -19.1 Q26.15 -19.8 25.0 -20.3 L24.8 -20.3 14.0 -21.25 Q14.0 -21.85 15.25 -23.25 L19.65 -28.6 20.7 -30.0 25.6 -37.05 25.8 -37.35 Q27.25 -39.85 28.05 -42.25 L29.0 -45.55 28.25 -46.35 27.75 -46.65 27.5 -46.6 25.8 -46.25 25.45 -46.2 12.3 -44.5 12.25 -44.5 Q20.8 -57.6 23.4 -63.05 L24.05 -64.5 Q25.55 -68.15 25.6 -71.35 L25.55 -71.55 24.9 -71.8 Q24.35 -71.8 23.35 -70.5 L22.35 -69.1 18.45 -63.15 Q16.05 -59.85 13.6 -57.75 L11.65 -56.35 Q8.65 -54.5 5.55 -54.5 M34.55 -60.3 Q34.3 -61.05 33.95 -61.05 33.6 -61.05 33.4 -60.3 33.15 -59.6 33.15 -58.55 33.15 -57.5 33.4 -56.75 33.6 -56.05 33.95 -56.05 34.3 -56.05 34.55 -56.75 L34.75 -58.55 34.55 -60.3 M34.8 -48.85 L34.45 -49.0 Q34.2 -48.8 33.9 -47.7 L33.65 -45.8 Q33.65 -44.35 34.2 -43.7 L35.0 -43.65 Q35.25 -43.75 35.25 -46.0 35.25 -47.8 34.8 -48.85 M34.2 -38.25 Q33.9 -37.55 33.9 -36.5 33.9 -35.45 34.2 -34.7 34.5 -34.0 34.9 -34.0 35.3 -34.0 35.6 -34.7 L35.9 -36.5 35.6 -38.25 Q35.3 -39.0 34.9 -39.0 34.5 -39.0 34.2 -38.25 M34.25 -28.45 Q34.0 -28.25 34.0 -27.65 34.0 -26.9 35.0 -24.9 35.65 -25.2 35.65 -26.5 L35.6 -27.9 34.75 -28.75 34.5 -28.6 34.25 -28.45 M34.7 -15.75 Q35.05 -15.75 35.3 -16.3 L35.5 -17.75 35.3 -19.15 34.7 -19.75 Q34.35 -19.75 34.15 -19.15 33.9 -18.6 33.9 -17.75 33.9 -16.9 34.15 -16.3 34.35 -15.75 34.7 -15.75 M35.15 -9.7 L34.9 -10.2 34.3 -11.15 34.0 -11.1 33.8 -10.65 33.75 -10.05 33.75 -9.8 33.8 -9.4 Q33.8 -9.0 33.95 -8.55 L34.3 -7.55 34.75 -6.75 35.25 -7.55 35.3 -7.65 35.5 -8.55 35.5 -8.75 35.5 -8.9 35.25 -9.55 35.15 -9.7 M40.65 2.65 L40.8 2.65 40.2 6.55 Q37.7 17.0 32.0 23.3 L26.65 28.1 Q22.9 30.85 21.1 32.45 L23.5 27.6 23.7 28.05 Q27.05 26.9 28.25 21.3 L30.7 8.1 29.85 6.9 Q29.1 7.65 28.4 9.85 L29.05 4.75 29.3 4.7 31.65 4.35 31.4 6.8 32.1 7.0 33.15 6.2 33.5 4.0 37.55 3.25 37.15 5.25 37.15 5.6 Q36.45 7.8 36.5 8.6 36.45 9.2 36.85 9.6 L39.0 5.9 40.65 2.65 M32.35 8.6 Q32.0 8.5 31.8 9.35 31.4 9.8 31.25 10.85 31.05 11.7 31.25 12.45 31.2 12.95 31.5 13.0 L32.1 12.45 32.7 10.8 32.8 9.35 Q32.55 8.5 32.35 8.6 M27.95 4.9 L27.45 8.15 27.35 8.95 Q24.8 18.15 23.45 19.3 21.8 20.55 19.55 20.65 12.35 20.5 8.45 16.5 7.1 15.2 6.35 13.7 5.65 12.5 5.8 12.2 5.9 8.95 7.0 6.7 L7.75 5.2 21.15 5.8 27.95 4.9 M22.4 17.3 Q23.25 15.35 24.25 10.45 L20.35 10.15 12.15 9.3 9.8 9.05 Q10.45 12.15 12.1 14.55 14.9 18.9 19.75 19.0 21.4 19.0 22.4 17.3 M31.15 16.65 Q31.1 15.9 30.85 16.05 30.5 15.85 30.3 16.65 29.85 17.1 29.8 18.1 29.55 18.9 29.7 19.55 29.7 20.0 30.05 20.1 L30.65 19.55 31.1 18.1 31.15 16.65 M28.05 24.65 L27.4 26.65 28.1 26.6 Q28.0 26.55 28.45 24.95 L28.85 23.0 Q28.2 23.65 28.05 24.65 M-0.8 4.95 L3.55 5.1 3.35 8.2 1.95 11.85 Q1.0 15.35 3.9 17.65 L1.65 16.9 1.75 16.95 Q-1.35 16.8 -3.2 13.45 -4.15 11.9 -4.65 10.05 L-6.2 10.15 Q-12.3 10.15 -23.8 7.85 L-30.25 6.35 -30.2 7.0 Q-29.55 13.75 -24.05 20.5 -16.15 30.05 -0.3 30.1 15.95 30.05 20.95 25.95 L21.6 24.95 21.8 25.0 Q21.25 25.7 20.8 27.2 L17.85 32.85 6.4 35.1 0.65 35.55 Q-12.6 35.55 -24.1 26.85 -37.5 16.65 -39.4 2.2 -39.7 0.4 -38.75 -0.35 -37.7 -1.15 -37.3 -1.5 -37.6 -1.85 -38.55 -2.15 -39.5 -2.5 -39.45 -3.15 L-39.75 -6.4 -39.7 -6.45 Q-37.65 -7.4 -37.35 -7.7 L-32.25 -1.4 Q-30.9 0.2 -29.3 1.15 L-29.45 1.6 -28.35 1.7 -25.65 2.55 -25.6 3.0 -22.1 3.1 -13.75 4.7 -10.4 4.75 -4.05 4.85 -3.55 10.15 Q-3.2 11.95 -2.55 12.95 -2.1 12.8 -1.75 12.25 L-1.0 7.85 -0.8 5.2 -0.8 4.95 M-33.35 -79.05 L-32.85 -80.35 -32.5 -81.25 -31.25 -83.6 -31.15 -82.95 -30.35 -77.3 -29.85 -74.0 -29.15 -70.15 -29.15 -70.1 -28.85 -68.5 -29.35 -69.5 -29.4 -69.6 -30.5 -72.05 -32.5 -76.85 -32.9 -77.85 -33.3 -78.95 -33.35 -79.05 M-32.4 -60.45 L-31.45 -60.4 -31.4 -60.35 -30.9 -59.8 -30.7 -59.45 -30.05 -57.95 Q-29.25 -55.75 -29.25 -54.3 L-29.95 -50.8 -31.8 -43.4 -32.5 -40.75 -33.1 -38.35 -33.2 -37.9 -33.55 -36.65 -34.1 -34.55 -34.3 -33.85 -36.45 -25.7 Q-37.35 -20.65 -38.35 -17.55 L-38.85 -16.2 -38.95 -15.95 -39.35 -15.05 -39.4 -14.9 -40.05 -13.7 -40.35 -13.15 Q-42.7 -9.5 -46.0 -9.05 L-46.05 -9.05 -47.0 -9.0 -47.8 -9.1 -47.95 -9.25 -48.0 -10.15 -47.95 -10.2 -46.3 -12.2 -46.25 -12.25 -44.15 -15.0 -44.05 -15.15 -43.4 -16.05 -43.25 -16.35 -43.2 -16.4 -42.35 -17.85 -41.9 -18.8 Q-40.8 -21.35 -40.45 -23.9 -40.15 -26.05 -36.35 -39.45 L-36.0 -40.7 -34.3 -46.65 -32.5 -53.65 -32.0 -56.35 -32.25 -57.5 -32.35 -57.8 -32.5 -58.15 -32.7 -58.95 -32.75 -59.25 -32.5 -60.35 -32.4 -60.45 M-29.6 1.15 Q-29.8 0.55 -33.45 -1.2 L-33.75 0.3 -30.25 1.5 -29.6 1.15" fill="#242424" fill-rule="evenodd" stroke="none"/>
    <path d="M32.2 -101.3 L31.9 -100.65 Q31.25 -99.6 29.65 -98.3 L26.9 -96.35 24.4 -95.15 22.15 -94.15 20.8 -93.5 15.55 -90.75 10.7 -87.95 10.3 -87.7 10.9 -88.5 Q9.6 -89.2 8.45 -90.65 7.3 -92.1 6.75 -93.8 L8.2 -95.85 Q9.9 -94.65 10.7 -93.3 11.2 -92.55 12.0 -92.55 12.15 -92.55 13.6 -93.1 L20.15 -95.75 25.95 -98.25 Q29.6 -99.9 31.7 -101.0 L32.2 -101.3 M-7.65 -69.05 L-11.35 -66.9 -12.85 -66.05 -13.3 -65.75 -14.75 -64.95 -14.9 -64.85 -16.65 -63.85 -16.9 -63.7 -18.85 -62.55 -19.35 -62.3 -20.95 -61.35 -18.1 -64.55 -16.85 -65.3 -16.6 -65.45 -14.85 -66.5 -14.7 -66.6 -13.25 -67.45 -12.85 -67.7 -11.15 -68.7 -9.55 -69.65 -7.25 -71.1 -6.85 -70.75 -7.65 -69.05 M1.75 -87.2 L3.55 -89.4 4.75 -84.0 5.0 -82.2 5.0 -81.4 5.0 -81.15 Q4.45 -81.1 4.05 -80.85 2.9 -82.85 1.75 -83.05 L1.75 -87.2 M5.55 -54.5 Q8.65 -54.5 11.65 -56.35 L13.6 -57.75 Q16.05 -59.85 18.45 -63.15 L22.35 -69.1 23.35 -70.5 Q24.35 -71.8 24.9 -71.8 L25.55 -71.55 25.6 -71.35 Q25.55 -68.15 24.05 -64.5 L23.4 -63.05 Q20.8 -57.6 12.25 -44.5 L12.3 -44.5 25.45 -46.2 25.8 -46.25 27.5 -46.6 27.75 -46.65 28.25 -46.35 29.0 -45.55 28.05 -42.25 Q27.25 -39.85 25.8 -37.35 L25.6 -37.05 20.7 -30.0 19.65 -28.6 15.25 -23.25 Q14.0 -21.85 14.0 -21.25 L24.8 -20.3 25.0 -20.3 Q26.15 -19.8 26.4 -19.1 L25.2 -17.85 22.15 -15.75 21.35 -15.3 17.55 -13.55 14.2 -12.3 11.05 -11.45 Q4.9 -10.0 -2.15 -10.0 -8.15 -10.0 -15.9 -11.3 -22.3 -12.4 -24.25 -13.7 -25.15 -14.25 -25.15 -14.9 L-24.8 -16.35 -24.4 -17.4 -23.5 -19.4 -23.4 -19.6 -22.6 -21.25 -19.25 -28.5 -19.2 -28.6 -18.25 -30.65 -18.0 -31.25 Q-17.45 -32.5 -14.55 -34.15 L-8.95 -37.0 Q-4.2 -39.15 -0.9 -41.35 2.15 -43.4 4.0 -45.5 L3.15 -45.25 -4.15 -43.8 -11.6 -42.9 -11.8 -42.85 -13.25 -42.8 -13.85 -42.8 -14.4 -42.8 -14.65 -42.8 -15.55 -42.85 -16.1 -43.0 -16.3 -44.2 Q-16.3 -46.65 -15.8 -48.5 L-14.9 -50.7 -14.55 -51.25 -13.5 -52.45 -13.15 -52.8 -12.5 -53.25 -12.25 -53.4 Q-9.15 -55.25 -3.0 -55.25 L5.55 -54.5 M23.5 27.6 Q24.95 24.1 26.2 19.4 L28.4 9.85 Q29.1 7.65 29.85 6.9 L30.7 8.1 28.25 21.3 Q27.05 26.9 23.7 28.05 L23.5 27.6 M22.4 17.3 Q21.4 19.0 19.75 19.0 14.9 18.9 12.1 14.55 10.45 12.15 9.8 9.05 L12.15 9.3 20.35 10.15 24.25 10.45 Q23.25 15.35 22.4 17.3 M3.9 17.65 Q7.1 19.45 12.45 21.95 18.55 24.5 21.6 24.95 L20.95 25.95 Q15.95 30.05 -0.3 30.1 -16.15 30.05 -24.05 20.5 -29.55 13.75 -30.2 7.0 L-30.25 6.35 -23.8 7.85 Q-12.3 10.15 -6.2 10.15 L-4.65 10.05 Q-4.15 11.9 -3.2 13.45 -1.35 16.8 1.75 16.95 L1.65 16.9 3.9 17.65 M-29.3 1.15 L-28.35 1.7 -29.45 1.6 -29.3 1.15 M-22.1 -50.75 L-21.15 -51.35 -20.35 -51.5 Q-19.3 -51.5 -18.55 -50.75 -17.85 -50.05 -17.85 -49.0 -17.85 -47.95 -18.55 -47.2 -19.3 -46.5 -20.35 -46.5 -21.35 -46.5 -22.05 -47.15 L-22.1 -47.2 Q-22.85 -47.95 -22.85 -49.0 -22.85 -50.05 -22.1 -50.75 M-23.05 -34.05 Q-22.5 -33.5 -22.4 -32.75 L-22.35 -32.3 Q-22.35 -31.25 -23.05 -30.5 -23.8 -29.8 -24.85 -29.8 L-25.45 -29.85 Q-26.1 -30.0 -26.6 -30.5 L-26.65 -30.55 -27.2 -31.45 -27.35 -32.3 Q-27.35 -33.35 -26.6 -34.05 L-25.6 -34.7 -24.85 -34.8 -23.9 -34.6 -23.05 -34.05 M-29.9 -17.85 L-28.8 -18.1 Q-27.75 -18.1 -27.0 -17.35 L-26.55 -16.7 -26.3 -15.6 Q-26.3 -14.85 -26.65 -14.3 L-27.0 -13.8 Q-27.75 -13.1 -28.8 -13.1 -29.85 -13.1 -30.55 -13.8 L-30.85 -14.1 -31.15 -14.7 -31.3 -15.6 Q-31.3 -16.45 -30.8 -17.1 L-30.55 -17.35 -29.9 -17.85" fill="#2e2e2e" fill-rule="evenodd" stroke="none"/>
    <path d="M-14.45 -71.2 L-14.5 -71.1 -16.55 -68.9 -16.7 -68.75 -16.45 -73.85 -16.5 -73.9 -16.45 -74.6 -16.3 -75.85 -15.9 -80.9 -14.35 -79.0 -13.95 -78.5 -14.45 -71.2" fill="#aecd4c" fill-rule="evenodd" stroke="none"/>
    <path d="M-22.45 -81.45 L-21.85 -82.6 -17.45 -90.2 -17.25 -90.65 -16.25 -92.15 -15.95 -92.6 -14.65 -92.55 -14.7 -92.05 -15.9 -81.4 -17.3 -81.35 -17.65 -81.35 -19.2 -81.35 -22.45 -81.45" fill="#687e21" fill-rule="evenodd" stroke="none"/>
    <path d="M7.05 -65.3 L7.8 -65.25 12.9 -65.05 12.9 -60.4 12.5 -60.35 -2.5 -60.75 -5.2 -61.3 -8.35 -61.85 -10.05 -61.95 -3.7 -65.1 -2.9 -64.55 -1.0 -64.4 Q0.15 -62.2 1.5 -62.2 2.6 -62.2 2.95 -62.7 L4.15 -64.25 Q4.35 -64.15 4.5 -64.1 L5.3 -64.0 Q5.85 -64.0 6.45 -64.55 L7.05 -65.3" fill="#2a2a2a" fill-rule="evenodd" stroke="none"/>
    <path d="M-35.1 -78.65 L-34.7 -77.45 -35.9 -75.65 -36.05 -75.4 -35.1 -78.65" fill="#363636" fill-rule="evenodd" stroke="none"/>
  </g>
</svg>
