<?xml version="1.0" encoding="UTF-8" standalone="no"?>
<svg xmlns:ffdec="https://www.free-decompiler.com/flash" xmlns:xlink="http://www.w3.org/1999/xlink" ffdec:objectType="shape" height="52.05px" width="55.35px" xmlns="http://www.w3.org/2000/svg">
  <g transform="matrix(1.0, 0.0, 0.0, 1.0, 37.0, 4.3)">
    <path d="M-5.45 -4.25 L-9.45 1.45 -11.4 4.0 -12.2 4.85 -13.15 6.05 Q-16.3 8.85 -20.35 10.65 L-23.85 11.55 -29.5 12.3 Q-34.4 12.0 -35.25 14.35 -36.35 17.35 -33.35 20.3 -30.4 23.25 -26.2 22.5 -21.95 20.9 -18.55 18.4 -16.2 17.0 -14.4 16.25 L-14.05 14.5 Q-14.55 14.05 -15.05 13.95 L-16.35 13.5 -14.6 13.45 -13.8 13.65 -12.4 7.6 -12.95 15.1 -15.4 28.0 -17.95 35.75 Q-19.35 39.9 -19.35 42.05 -19.35 44.4 -18.0 45.65 -16.7 46.85 -14.65 46.85 -12.1 46.85 -10.3 44.7 -8.55 42.6 -8.15 39.45 -7.75 36.5 -6.55 32.1 L-5.4 27.7 -7.4 28.4 -8.8 28.5 -5.5 26.45 -3.7 24.25 -2.55 25.4 -0.45 27.8 0.1 28.3 -2.0 27.6 Q-1.9 28.6 -2.1 34.8 -2.1 37.75 -1.4 39.15 L-0.6 40.25 -0.65 40.35 Q-1.95 39.55 -4.6 35.5 -4.85 35.8 -5.4 35.9 -5.75 36.25 -5.75 37.65 -5.75 39.3 -3.65 40.5 -1.75 41.6 0.2 41.6 3.5 41.6 5.8 39.1 8.3 36.45 7.4 33.0 L7.4 27.65 5.85 28.55 5.4 28.7 7.3 25.95 9.1 23.2 11.5 25.65 9.65 25.2 Q9.05 25.15 9.05 27.05 L9.15 31.8 10.25 31.95 11.4 32.1 Q14.45 32.1 15.55 30.05 16.55 28.25 16.45 24.05 L14.4 25.25 13.4 25.45 Q14.15 24.7 15.2 22.75 16.5 20.35 16.5 19.15 16.5 17.85 14.9 13.75 L12.45 7.65 Q9.45 1.55 5.6 -1.0 L2.6 -2.95 0.5 -4.2 Q2.5 -3.8 4.15 -3.05 L6.55 -1.75 Q11.3 1.65 14.35 7.15 L18.35 18.0 Q18.35 27.1 16.8 30.5 14.75 34.9 9.15 33.25 10.15 36.35 7.6 39.5 4.9 42.85 0.1 42.85 L-2.7 42.5 Q-5.7 41.7 -6.9 39.85 -8.65 44.45 -9.5 45.6 -11.2 47.75 -14.85 47.75 -18.55 47.75 -19.8 45.95 -20.6 44.8 -20.6 42.15 -20.6 39.0 -18.9 33.65 -16.9 28.3 -16.5 26.65 L-14.7 17.7 Q-15.4 17.95 -16.05 18.4 L-23.55 23.0 Q-25.35 24.25 -27.75 24.1 -32.85 23.85 -35.4 19.95 -38.1 16.0 -36.25 13.55 -34.55 11.1 -32.4 11.15 L-26.55 10.8 -22.95 10.1 -21.1 9.6 Q-17.0 7.7 -13.6 4.95 L-9.45 0.5 -5.45 -4.25 M-4.25 27.65 L-5.1 30.6 -5.65 33.4 Q-3.95 31.25 -3.95 30.45 L-4.25 27.65" fill="#2c2c2c" fill-rule="evenodd" stroke="none"/>
    <path d="M0.5 -4.2 L2.6 -2.95 5.6 -1.0 Q9.45 1.55 12.45 7.65 L14.9 13.75 Q16.5 17.85 16.5 19.15 16.5 20.35 15.2 22.75 14.15 24.7 13.4 25.45 L14.4 25.25 16.45 24.05 Q16.55 28.25 15.55 30.05 14.45 32.1 11.4 32.1 L10.25 31.95 9.15 31.8 9.05 27.05 Q9.05 25.15 9.65 25.2 L11.5 25.65 9.1 23.2 7.3 25.95 5.4 28.7 5.85 28.55 7.4 27.65 7.4 33.0 Q8.3 36.45 5.8 39.1 3.5 41.6 0.2 41.6 -1.75 41.6 -3.65 40.5 -5.75 39.3 -5.75 37.65 -5.75 36.25 -5.4 35.9 -4.85 35.8 -4.6 35.5 -1.95 39.55 -0.65 40.35 L-0.6 40.25 -1.4 39.15 Q-2.1 37.75 -2.1 34.8 -1.9 28.6 -2.0 27.6 L0.1 28.3 -0.45 27.8 -2.55 25.4 -3.7 24.25 -5.5 26.45 -8.8 28.5 -7.4 28.4 -5.4 27.7 -6.55 32.1 Q-7.75 36.5 -8.15 39.45 -8.55 42.6 -10.3 44.7 -12.1 46.85 -14.65 46.85 -16.7 46.85 -18.0 45.65 -19.35 44.4 -19.35 42.05 -19.35 39.9 -17.95 35.75 L-15.4 28.0 -12.95 15.1 -12.4 7.6 -13.8 13.65 -14.6 13.45 -16.35 13.5 -15.05 13.95 Q-14.55 14.05 -14.05 14.5 L-14.4 16.25 Q-16.2 17.0 -18.55 18.4 -21.95 20.9 -26.2 22.5 -30.4 23.25 -33.35 20.3 -36.35 17.35 -35.25 14.35 -34.4 12.0 -29.5 12.3 L-23.85 11.55 -20.35 10.65 Q-16.3 8.85 -13.15 6.05 L-12.2 4.85 -11.4 4.0 -9.45 1.45 -5.45 -4.25 -2.6 -4.3 0.5 -4.2 M-0.5 -1.8 L-2.8 -1.2 -4.65 -0.2 Q-6.2 0.65 -6.55 0.95 -8.2 2.25 -9.6 4.3 L-10.9 9.8 -11.95 15.7 -12.85 21.35 -12.75 23.35 Q-12.35 25.35 -10.6 25.35 -8.0 25.35 -5.7 23.4 L-3.7 21.15 Q-3.25 22.15 -2.0 23.15 -0.4 24.5 1.4 24.5 3.25 24.5 4.65 23.7 6.3 22.8 6.3 21.2 L5.8 18.8 4.75 13.95 Q5.95 17.65 8.0 19.65 9.65 21.35 11.1 21.35 13.2 21.05 13.2 18.8 13.2 17.65 11.0 12.7 L8.65 7.8 Q6.05 2.5 4.35 0.1 2.85 -1.95 1.8 -2.05 L-0.5 -1.8 M-19.2 11.4 Q-22.1 12.6 -25.05 12.75 L-31.45 13.3 Q-33.25 13.8 -33.25 15.9 -33.25 17.9 -31.3 18.8 L-28.45 19.35 Q-24.05 19.35 -19.8 15.45 -17.95 13.8 -14.95 9.8 L-19.2 11.4 M-8.6 32.4 Q-8.6 31.0 -9.45 30.3 -10.2 29.75 -11.3 29.75 -13.45 29.75 -15.15 32.05 -17.15 34.7 -17.15 39.2 -17.15 40.55 -16.3 41.65 -15.25 42.95 -13.55 42.95 -11.9 42.95 -10.35 40.15 -8.6 36.95 -8.6 32.4 M5.3 30.05 L0.6 29.95 0.5 29.85 Q0.35 29.9 0.35 30.45 0.35 33.4 1.0 35.05 1.65 36.6 2.6 36.6 4.4 36.6 5.45 33.9 L6.3 30.5 Q6.0 30.2 5.3 30.05" fill="#5b5b5b" fill-rule="evenodd" stroke="none"/>
    <path d="M-0.5 -1.8 L1.8 -2.05 Q2.85 -1.95 4.35 0.1 6.05 2.5 8.65 7.8 L11.0 12.7 Q13.2 17.65 13.2 18.8 13.2 21.05 11.1 21.35 9.65 21.35 8.0 19.65 5.95 17.65 4.75 13.95 L5.8 18.8 6.3 21.2 Q6.3 22.8 4.65 23.7 3.25 24.5 1.4 24.5 -0.4 24.5 -2.0 23.15 -3.25 22.15 -3.7 21.15 L-5.7 23.4 Q-8.0 25.35 -10.6 25.35 -12.35 25.35 -12.75 23.35 L-12.85 21.35 -11.95 15.7 -10.9 9.8 -9.6 4.3 Q-8.2 2.25 -6.55 0.95 -6.2 0.65 -4.65 -0.2 L-2.8 -1.2 -0.5 -1.8 M-0.9 2.3 L-0.95 2.3 -0.95 3.95 -0.55 7.5 Q-3.15 4.05 -4.05 3.15 -4.55 2.65 -4.75 2.6 -7.95 5.05 -9.3 9.15 L-11.15 15.35 Q-11.7 17.5 -11.3 17.7 -10.95 17.85 -10.95 18.35 L-12.3 21.15 Q-12.3 23.15 -9.0 23.15 -7.7 23.15 -7.2 22.6 -6.65 22.1 -6.65 20.8 -6.65 19.55 -7.05 19.05 -7.45 18.6 -9.1 18.05 L-8.35 17.35 -7.65 17.3 -5.6 18.15 -4.3 18.55 Q-2.2 18.55 0.25 16.1 2.65 13.7 2.65 11.95 2.65 8.55 2.25 6.75 1.5 2.85 -0.9 2.3 M-19.2 11.4 L-14.95 9.8 Q-17.95 13.8 -19.8 15.45 -24.05 19.35 -28.45 19.35 L-31.3 18.8 Q-33.25 17.9 -33.25 15.9 -33.25 13.8 -31.45 13.3 L-25.05 12.75 Q-22.1 12.6 -19.2 11.4 M-1.4 21.65 Q-0.55 22.4 0.6 22.4 1.75 22.4 2.6 21.65 3.45 20.9 3.45 19.85 3.45 18.8 2.6 18.05 1.75 17.3 0.6 17.3 -0.55 17.3 -1.4 18.05 -2.2 18.8 -2.2 19.85 -2.2 20.9 -1.4 21.65 M-25.5 16.6 Q-25.05 16.15 -25.05 15.2 -25.05 14.05 -27.0 14.05 -28.1 14.05 -29.3 14.6 -30.45 15.1 -31.0 15.8 -29.65 17.3 -28.05 17.3 -26.15 17.3 -25.5 16.6 M-8.6 32.4 Q-8.6 36.95 -10.35 40.15 -11.9 42.95 -13.55 42.95 -15.25 42.95 -16.3 41.65 -17.15 40.55 -17.15 39.2 -17.15 34.7 -15.15 32.05 -13.45 29.75 -11.3 29.75 -10.2 29.75 -9.45 30.3 -8.6 31.0 -8.6 32.4 M2.3 6.05 L2.55 6.6 3.15 6.8 3.7 6.65 3.95 6.1 3.7 5.6 3.15 5.35 2.55 5.6 Q2.3 5.7 2.3 6.05 M6.25 10.6 L6.0 11.75 Q6.35 13.2 7.15 14.7 8.3 17.1 9.5 17.1 10.15 17.1 10.25 16.75 L10.25 15.55 Q10.4 15.05 9.15 13.15 7.65 10.95 6.25 10.6 M5.3 30.05 Q6.0 30.2 6.3 30.5 L5.45 33.9 Q4.4 36.6 2.6 36.6 1.65 36.6 1.0 35.05 0.35 33.4 0.35 30.45 0.35 29.9 0.5 29.85 L0.6 29.95 5.3 30.05" fill="#818181" fill-rule="evenodd" stroke="none"/>
    <path d="M-0.9 2.3 Q1.5 2.85 2.25 6.75 2.65 8.55 2.65 11.95 2.65 13.7 0.25 16.1 -2.2 18.55 -4.3 18.55 L-5.6 18.15 -7.65 17.3 -8.35 17.35 -9.1 18.05 Q-7.45 18.6 -7.05 19.05 -6.65 19.55 -6.65 20.8 -6.65 22.1 -7.2 22.6 -7.7 23.15 -9.0 23.15 -12.3 23.15 -12.3 21.15 L-10.95 18.35 Q-10.95 17.85 -11.3 17.7 -11.7 17.5 -11.15 15.35 L-9.3 9.15 Q-7.95 5.05 -4.75 2.6 -4.55 2.65 -4.05 3.15 -3.15 4.05 -0.55 7.5 L-0.95 3.95 -0.95 2.3 -0.9 2.3 M-25.5 16.6 Q-26.15 17.3 -28.05 17.3 -29.65 17.3 -31.0 15.8 -30.45 15.1 -29.3 14.6 -28.1 14.05 -27.0 14.05 -25.05 14.05 -25.05 15.2 -25.05 16.15 -25.5 16.6 M-1.4 21.65 Q-2.2 20.9 -2.2 19.85 -2.2 18.8 -1.4 18.05 -0.55 17.3 0.6 17.3 1.75 17.3 2.6 18.05 3.45 18.8 3.45 19.85 3.45 20.9 2.6 21.65 1.75 22.4 0.6 22.4 -0.55 22.4 -1.4 21.65 M2.3 6.05 Q2.3 5.7 2.55 5.6 L3.15 5.35 3.7 5.6 3.95 6.1 3.7 6.65 3.15 6.8 2.55 6.6 2.3 6.05 M6.25 10.6 Q7.65 10.95 9.15 13.15 10.4 15.05 10.25 15.55 L10.25 16.75 Q10.15 17.1 9.5 17.1 8.3 17.1 7.15 14.7 6.35 13.2 6.0 11.75 L6.25 10.6" fill="#aaaaaa" fill-rule="evenodd" stroke="none"/>
  </g>
</svg>
