<?xml version="1.0" encoding="UTF-8" standalone="no"?>
<svg xmlns:ffdec="https://www.free-decompiler.com/flash" xmlns:xlink="http://www.w3.org/1999/xlink" ffdec:objectType="shape" height="70.0px" width="117.65px" xmlns="http://www.w3.org/2000/svg">
  <g transform="matrix(1.0, 0.0, 0.0, 1.0, 49.95, 48.05)">
    <path d="M-28.7 -25.35 L-30.05 -27.25 -30.2 -27.25 -30.3 -27.45 Q-31.0 -28.9 -30.9 -30.1 -30.75 -32.4 -26.85 -34.85 -23.75 -36.95 -20.4 -37.45 L-18.35 -37.6 -16.9 -37.45 -16.0 -37.05 Q-18.5 -36.45 -20.5 -35.5 -24.55 -33.65 -24.7 -30.25 L-23.15 -28.25 -22.3 -27.45 -22.05 -27.25 -21.75 -27.25 Q-20.65 -26.5 -19.65 -26.5 -18.35 -26.5 -17.5 -27.25 L-17.35 -27.25 -17.15 -27.45 -16.55 -28.6 Q-15.35 -32.0 -13.15 -33.75 -12.25 -34.45 -6.95 -36.05 L-1.6 -37.45 -0.4 -37.6 0.75 -37.7 1.0 -37.7 3.7 -37.7 3.65 -37.35 6.2 -37.8 Q7.35 -37.75 7.35 -36.75 7.35 -36.1 5.1 -34.95 2.5 -33.65 0.05 -33.65 L-0.3 -33.65 -0.2 -33.7 Q-4.1 -32.25 -4.65 -31.75 -6.55 -30.55 -7.15 -27.45 L-7.2 -27.25 -7.25 -27.25 -7.25 -27.2 -5.85 -27.05 -5.55 -27.25 -5.25 -27.25 -5.1 -27.3 -5.1 -27.55 Q-5.1 -29.0 2.2 -31.55 9.45 -34.1 9.45 -32.45 9.45 -31.9 4.45 -29.2 L3.95 -28.7 2.65 -27.45 2.45 -27.25 2.25 -27.25 1.3 -26.35 3.0 -26.25 5.1 -26.25 Q5.5 -26.75 7.25 -27.15 L10.5 -27.8 Q12.15 -28.25 12.15 -27.25 L11.85 -25.5 11.85 -24.8 13.85 -25.65 Q15.8 -26.4 16.25 -26.4 17.2 -26.4 17.1 -25.45 17.1 -24.65 16.3 -22.75 L15.2 -20.25 14.5 -17.1 14.45 -16.85 14.4 -16.8 Q13.8 -15.25 12.55 -15.05 L12.0 -14.65 12.7 -14.2 19.1 -11.45 Q18.75 -10.7 16.05 -8.65 L12.35 -5.75 Q14.0 -5.75 16.45 -6.7 L18.85 -7.65 19.55 -7.55 19.65 -7.25 Q19.8 -6.25 16.1 -2.2 12.05 2.3 8.65 3.75 7.85 2.25 7.85 1.25 7.85 -0.8 9.1 -5.85 L10.35 -11.65 Q10.35 -13.25 8.4 -15.8 6.0 -18.95 1.9 -21.25 -9.6 -27.9 -28.7 -25.35" fill="#ffffff" fill-rule="evenodd" stroke="none"/>
    <path d="M-40.4 -27.45 L-38.3 -27.4 -38.3 -27.45 -39.75 -29.1 Q-40.7 -30.45 -40.5 -32.35 -40.2 -35.3 -37.55 -37.45 -35.95 -38.7 -33.55 -39.65 L-31.85 -40.3 -31.8 -40.3 Q-26.95 -41.9 -18.9 -42.7 -34.0 -42.35 -38.9 -38.95 L-39.2 -38.75 -41.25 -36.7 -41.4 -36.5 Q-42.45 -35.25 -43.55 -34.9 L-43.65 -35.45 -43.65 -35.65 Q-43.5 -37.5 -41.1 -39.05 -39.35 -40.25 -36.45 -41.25 -29.2 -43.85 -19.3 -43.95 L-18.9 -44.0 Q-18.75 -44.05 -18.75 -43.55 L-18.8 -42.75 -18.9 -42.7 -5.15 -43.55 -3.1 -43.55 -3.1 -42.7 -2.2 -42.7 -6.2 -41.8 -7.4 -41.4 -10.45 -40.2 Q-12.0 -39.5 -12.5 -38.95 L-11.8 -38.1 -11.05 -37.7 -10.4 -38.0 -6.8 -39.55 Q-3.9 -40.75 -0.3 -41.15 L0.25 -41.2 Q0.65 -41.55 1.75 -41.5 L7.65 -40.8 Q9.8 -40.9 10.35 -39.85 L10.5 -38.45 10.45 -36.9 9.45 -35.0 15.85 -34.35 Q17.4 -34.05 17.4 -33.05 17.4 -32.6 16.4 -30.6 L15.3 -28.5 15.3 -28.4 18.85 -27.8 Q20.1 -27.5 20.1 -26.9 20.1 -26.4 18.7 -23.95 L17.15 -21.15 15.3 -16.55 16.35 -16.25 Q16.85 -16.1 17.4 -15.0 17.95 -13.9 18.75 -13.75 L23.7 -13.5 24.1 -13.0 24.4 -12.6 25.05 -12.0 25.15 -11.95 Q23.5 -10.7 22.5 -8.75 L22.65 -8.2 Q22.8 -8.0 23.5 -8.0 24.65 -8.0 26.5 -10.15 25.15 -7.1 22.3 -4.4 21.05 -3.25 18.25 -1.15 L18.45 -0.65 19.35 -0.5 Q20.4 -0.3 22.15 -1.6 L25.7 -4.85 26.25 -5.5 26.1 -4.35 25.5 -1.8 24.6 0.25 23.2 2.7 Q21.3 5.1 14.35 5.1 12.45 5.1 8.95 4.1 L8.65 3.75 Q12.05 2.3 16.1 -2.2 19.8 -6.25 19.65 -7.25 L19.55 -7.55 18.85 -7.65 16.45 -6.7 Q14.0 -5.75 12.35 -5.75 L16.05 -8.65 Q18.75 -10.7 19.1 -11.45 L12.7 -14.2 12.0 -14.65 12.55 -15.05 Q13.8 -15.25 14.4 -16.8 L14.45 -16.85 14.5 -17.1 15.2 -20.25 16.3 -22.75 Q17.1 -24.65 17.1 -25.45 17.2 -26.4 16.25 -26.4 15.8 -26.4 13.85 -25.65 L11.85 -24.8 11.85 -25.5 12.15 -27.25 Q12.15 -28.25 10.5 -27.8 L7.25 -27.15 Q5.5 -26.75 5.1 -26.25 L3.0 -26.25 1.3 -26.35 2.25 -27.25 2.45 -27.25 2.65 -27.45 3.95 -28.7 4.45 -29.2 Q9.45 -31.9 9.45 -32.45 9.45 -34.1 2.2 -31.55 -5.1 -29.0 -5.1 -27.55 L-5.1 -27.3 -5.25 -27.25 -5.55 -27.25 -5.85 -27.05 -7.25 -27.2 -7.25 -27.25 -7.2 -27.25 -7.15 -27.45 Q-6.55 -30.55 -4.65 -31.75 -4.1 -32.25 -0.2 -33.7 L-0.3 -33.65 0.05 -33.65 Q2.5 -33.65 5.1 -34.95 7.35 -36.1 7.35 -36.75 7.35 -37.75 6.2 -37.8 L3.65 -37.35 3.7 -37.7 1.0 -37.7 0.75 -37.7 -0.4 -37.6 -1.6 -37.45 -6.95 -36.05 Q-12.25 -34.45 -13.15 -33.75 -15.35 -32.0 -16.55 -28.6 L-17.15 -27.45 -17.35 -27.25 -17.5 -27.25 Q-18.35 -26.5 -19.65 -26.5 -20.65 -26.5 -21.75 -27.25 L-22.05 -27.25 -22.3 -27.45 -23.15 -28.25 -24.7 -30.25 Q-24.55 -33.65 -20.5 -35.5 -18.5 -36.45 -16.0 -37.05 L-16.9 -37.45 -18.35 -37.6 -20.4 -37.45 Q-23.75 -36.95 -26.85 -34.85 -30.75 -32.4 -30.9 -30.1 -31.0 -28.9 -30.3 -27.45 L-30.2 -27.25 -30.05 -27.25 -28.7 -25.35 -31.4 -25.4 -30.95 -25.85 -30.8 -25.95 -32.05 -27.25 -32.25 -27.25 -32.4 -27.45 -33.5 -28.95 -35.25 -32.15 -35.6 -33.1 Q-36.15 -32.25 -36.25 -31.25 L-36.2 -27.45 -36.2 -27.35 -36.2 -27.25 -40.4 -27.45 M26.3 8.4 L24.25 9.75 22.55 9.75 22.5 9.25 25.0 5.0 Q26.55 2.25 27.65 1.5 L27.75 1.75 27.4 3.2 27.0 4.8 27.5 5.85 27.7 6.2 Q27.7 7.2 26.3 8.4" fill="#d1d1d1" fill-rule="evenodd" stroke="none"/>
    <path d="M-40.4 -27.45 Q-41.85 -27.9 -42.6 -30.05 L-43.4 -32.8 -44.35 -31.2 Q-45.05 -29.7 -44.6 -27.9 -46.6 -28.0 -47.7 -29.95 -48.55 -31.6 -48.4 -33.65 L-48.35 -34.5 Q-48.1 -36.4 -46.55 -38.15 -44.35 -40.6 -39.55 -42.7 -30.7 -46.6 -17.95 -46.6 L-7.2 -45.85 -5.4 -45.55 -4.3 -45.35 1.5 -43.95 2.4 -43.65 2.4 -43.35 3.0 -43.2 Q8.05 -43.2 14.3 -39.05 19.4 -35.7 22.05 -32.1 24.5 -28.6 25.05 -24.8 L25.95 -17.45 Q25.95 -15.7 24.1 -13.0 L23.7 -13.5 18.75 -13.75 Q17.95 -13.9 17.4 -15.0 16.85 -16.1 16.35 -16.25 L15.3 -16.55 17.15 -21.15 18.7 -23.95 Q20.1 -26.4 20.1 -26.9 20.1 -27.5 18.85 -27.8 L15.3 -28.4 15.3 -28.5 16.4 -30.6 Q17.4 -32.6 17.4 -33.05 17.4 -34.05 15.85 -34.35 L9.45 -35.0 10.45 -36.9 10.5 -38.45 10.35 -39.85 Q9.8 -40.9 7.65 -40.8 L1.75 -41.5 Q0.65 -41.55 0.25 -41.2 L-0.3 -41.15 Q-3.9 -40.75 -6.8 -39.55 L-10.4 -38.0 -11.05 -37.7 -11.8 -38.1 -12.5 -38.95 Q-12.0 -39.5 -10.45 -40.2 L-7.4 -41.4 -6.2 -41.8 -2.2 -42.7 -3.1 -42.7 -3.1 -43.55 -5.15 -43.55 -18.9 -42.7 -18.8 -42.75 -18.75 -43.55 Q-18.75 -44.05 -18.9 -44.0 L-19.3 -43.95 Q-29.2 -43.85 -36.45 -41.25 -39.35 -40.25 -41.1 -39.05 -43.5 -37.5 -43.65 -35.65 L-43.65 -35.45 -43.55 -34.9 Q-42.45 -35.25 -41.4 -36.5 L-41.25 -36.7 -39.2 -38.75 -38.9 -38.95 Q-34.0 -42.35 -18.9 -42.7 -26.95 -41.9 -31.8 -40.3 L-31.85 -40.3 -33.55 -39.65 Q-35.95 -38.7 -37.55 -37.45 -40.2 -35.3 -40.5 -32.35 -40.7 -30.45 -39.75 -29.1 L-38.3 -27.45 -38.3 -27.4 -40.4 -27.45 M-33.45 -25.85 L-32.65 -26.5 -35.3 -27.25 -36.2 -27.25 -36.2 -27.35 -36.2 -27.45 -36.25 -31.25 Q-36.15 -32.25 -35.6 -33.1 L-35.25 -32.15 -33.5 -28.95 -32.4 -27.45 -32.25 -27.25 -32.05 -27.25 -30.8 -25.95 -30.95 -25.85 -31.4 -25.4 Q-33.0 -25.4 -33.45 -25.85 M8.95 4.1 Q12.45 5.1 14.35 5.1 21.3 5.1 23.2 2.7 L24.6 0.25 25.5 -1.8 26.1 -4.35 26.25 -5.5 25.7 -4.85 22.15 -1.6 Q20.4 -0.3 19.35 -0.5 L18.45 -0.65 18.25 -1.15 Q21.05 -3.25 22.3 -4.4 25.15 -7.1 26.5 -10.15 24.65 -8.0 23.5 -8.0 22.8 -8.0 22.65 -8.2 L22.5 -8.75 Q23.5 -10.7 25.15 -11.95 25.3 -11.85 25.5 -11.8 L27.25 -11.8 27.85 -12.45 29.5 -12.75 29.55 -12.75 29.55 -12.7 29.5 -12.75 29.55 -12.7 29.6 -8.8 Q29.6 -0.95 28.2 3.85 L27.5 5.85 27.0 4.8 27.4 3.2 27.75 1.75 27.65 1.5 Q26.55 2.25 25.0 5.0 L22.5 9.25 22.55 9.75 24.25 9.75 26.3 8.4 Q24.85 10.85 22.75 12.75 L20.7 9.85 Q18.95 7.7 18.3 7.55 17.9 7.75 17.75 8.35 L13.15 6.25 Q9.55 4.65 8.95 4.1" fill="#989898" fill-rule="evenodd" stroke="none"/>
    <path d="M24.1 -13.0 Q25.95 -15.7 25.95 -17.45 L25.05 -24.8 Q24.5 -28.6 22.05 -32.1 19.4 -35.7 14.3 -39.05 8.05 -43.2 3.0 -43.2 L2.4 -43.35 2.4 -43.65 1.5 -43.95 -4.3 -45.35 -5.4 -45.55 -7.2 -45.85 -17.95 -46.6 Q-30.7 -46.6 -39.55 -42.7 -44.35 -40.6 -46.55 -38.15 -48.1 -36.4 -48.35 -34.5 L-48.4 -33.65 Q-48.55 -31.6 -47.7 -29.95 -46.6 -28.0 -44.6 -27.9 -45.05 -29.7 -44.35 -31.2 L-43.4 -32.8 -42.6 -30.05 Q-41.85 -27.9 -40.4 -27.45 L-36.2 -27.25 -35.3 -27.25 -32.65 -26.5 -33.45 -25.85 Q-43.05 -25.65 -46.2 -26.85 L-47.05 -27.25 -47.4 -27.25 Q-50.5 -29.3 -49.8 -34.35 L-49.3 -36.3 -46.65 -40.05 Q-45.1 -41.5 -42.7 -42.65 -36.25 -45.9 -22.25 -47.85 L-17.95 -48.05 Q-11.3 -48.05 -3.35 -46.1 L-3.0 -46.0 1.3 -44.8 2.35 -44.5 Q3.65 -44.4 6.95 -43.3 11.75 -41.75 13.95 -40.65 L18.65 -37.05 22.55 -33.15 Q25.3 -29.95 26.15 -25.25 L27.05 -17.55 Q27.05 -14.55 25.05 -12.0 L24.4 -12.6 24.1 -13.0 M29.55 -12.7 L30.85 -11.9 30.9 -9.95 Q30.9 -3.05 29.65 3.15 28.75 7.7 27.95 9.2 26.2 12.3 24.1 13.8 22.85 14.75 22.25 14.75 21.6 14.75 21.3 14.45 L20.9 13.85 20.75 13.25 Q20.6 12.15 19.4 10.35 18.35 8.7 17.75 8.35 17.9 7.75 18.3 7.55 18.95 7.7 20.7 9.85 L22.75 12.75 Q24.85 10.85 26.3 8.4 27.7 7.2 27.7 6.2 L27.5 5.85 28.2 3.85 Q29.6 -0.95 29.6 -8.8 L29.55 -12.7" fill="#606060" fill-rule="evenodd" stroke="none"/>
    <path d="M29.5 -12.75 L29.55 -12.7" fill="none" stroke="#ff0000" stroke-linecap="round" stroke-linejoin="round" stroke-width="0.05"/>
    <path d="M40.0 -20.7 Q39.1 -20.0 39.1 -19.35 L39.35 -18.55 Q39.75 -17.8 40.6 -17.8 L41.45 -18.8 Q42.25 -19.9 42.25 -20.35 L42.1 -21.05 Q41.05 -21.45 40.0 -20.7 M30.7 -21.55 Q31.15 -22.75 32.1 -22.8 35.65 -23.05 37.1 -23.9 38.3 -24.6 40.85 -24.6 L42.7 -23.7 42.75 -23.95 Q42.75 -26.0 44.55 -26.05 46.35 -26.15 46.35 -24.05 46.35 -23.05 45.95 -22.5 L46.7 -22.8 Q47.35 -23.2 47.95 -23.2 50.1 -23.2 51.15 -21.45 L51.95 -19.3 53.05 -18.45 54.35 -17.6 Q54.7 -17.2 54.7 -15.7 54.7 -14.6 54.3 -13.55 53.85 -12.5 53.85 -11.05 53.85 -9.65 53.45 -9.0 52.6 -7.75 49.95 -8.05 49.7 -8.1 48.3 -6.85 46.85 -5.6 45.45 -5.6 44.15 -5.6 43.15 -6.45 L41.75 -7.3 Q41.15 -7.3 39.95 -6.3 38.75 -5.35 37.2 -5.35 34.1 -5.35 32.95 -7.0 32.45 -7.75 32.45 -8.8 L30.7 -8.7 Q28.05 -8.7 27.75 -11.3 27.6 -12.65 28.0 -14.15 L27.25 -15.3 Q26.5 -16.25 26.5 -16.8 26.5 -19.85 30.45 -19.95 30.35 -20.65 30.7 -21.55 M33.85 -13.05 Q34.65 -13.05 35.15 -13.65 35.6 -14.2 35.6 -15.05 35.6 -17.65 33.85 -16.8 32.1 -15.95 32.1 -14.7 32.1 -13.05 33.85 -13.05 M27.95 -20.05 Q27.05 -20.05 26.9 -20.6 26.8 -20.9 26.85 -21.25 26.85 -23.2 28.3 -23.9 29.75 -24.6 29.75 -21.8 29.75 -21.1 29.35 -20.65 28.85 -20.05 27.95 -20.05 M27.7 -8.2 Q28.5 -8.1 29.0 -7.3 L28.85 -6.85 Q28.65 -6.55 27.95 -6.55 L27.0 -6.7 26.95 -6.85 26.85 -7.35 Q26.85 -8.25 27.7 -8.2 M22.4 -11.8 Q22.25 -12.05 22.35 -12.3 22.35 -13.3 23.55 -13.6 24.75 -13.85 24.75 -12.05 24.75 -11.3 23.6 -11.3 22.6 -11.3 22.4 -11.8 M35.05 -7.7 L35.35 -9.05 Q35.35 -10.75 33.95 -10.2 32.5 -9.65 32.5 -8.6 L32.7 -7.7 Q33.0 -6.85 33.6 -6.85 34.6 -6.85 35.05 -7.7 M31.35 -2.85 L31.4 -3.1 31.85 -3.85 Q32.4 -4.3 33.1 -4.05 L33.2 -3.45 Q33.2 -2.9 32.4 -2.25 L32.1 -2.05 Q31.35 -2.7 31.35 -2.85 M39.85 -2.1 Q39.85 -3.25 41.4 -3.8 42.95 -4.35 42.95 -2.3 42.95 -1.6 41.85 -1.05 L40.7 -0.6 Q40.15 -0.6 39.95 -1.3 L39.85 -2.1 M54.25 -19.2 Q54.1 -19.55 54.1 -20.3 L54.2 -21.35 Q55.0 -21.5 55.4 -21.1 55.75 -20.75 55.75 -20.2 55.75 -19.05 54.95 -19.05 L54.25 -19.2 M44.7 -10.25 Q45.2 -10.7 45.2 -11.05 L45.0 -11.95 Q43.6 -12.2 43.3 -11.95 L43.2 -11.05 43.25 -10.05 43.4 -9.95 43.95 -9.85 44.7 -10.25 M50.2 -11.9 Q49.7 -11.55 49.7 -11.2 L49.8 -10.75 49.85 -10.6 50.1 -10.4 50.6 -10.3 51.2 -10.45 51.6 -10.6 51.75 -11.8 51.6 -12.3 Q50.75 -12.3 50.2 -11.9 M45.55 -17.4 Q45.1 -17.15 45.1 -16.2 L45.2 -15.6 45.95 -15.55 Q46.6 -15.55 47.25 -16.55 46.1 -17.75 45.55 -17.4 M56.35 -10.55 Q55.55 -10.55 55.4 -11.3 L55.35 -12.1 Q55.35 -13.45 56.45 -13.45 57.5 -13.45 57.5 -12.3 L57.2 -11.25 Q56.85 -10.55 56.35 -10.55 M55.45 -1.7 Q55.45 -0.9 54.5 0.0 53.5 0.9 52.35 0.9 51.2 0.9 50.95 0.1 L50.95 -0.8 Q50.95 -3.1 53.2 -3.9 55.45 -4.7 55.45 -1.7 M39.1 2.8 L38.45 3.95 37.55 4.75 37.2 4.8 Q36.3 4.8 36.1 4.1 L36.0 3.35 36.2 2.5 Q36.55 1.85 37.55 1.55 39.1 1.1 39.1 2.8" fill="#ffffff" fill-rule="evenodd" stroke="none"/>
    <path d="M32.1 -26.1 Q32.7 -26.45 33.25 -27.55 34.3 -28.5 38.1 -28.55 L39.35 -27.6 40.6 -26.85 41.9 -27.7 Q43.1 -28.55 44.95 -28.55 47.05 -28.55 48.6 -27.35 L49.85 -26.1 54.35 -26.3 Q55.4 -25.7 55.85 -23.9 L56.3 -22.55 56.6 -22.55 56.65 -22.15 56.95 -21.95 Q58.9 -21.35 59.9 -19.95 60.6 -18.9 60.6 -17.7 L60.5 -17.2 60.2 -17.6 60.7 -16.8 61.2 -13.8 Q61.35 -12.65 62.05 -11.9 62.7 -11.25 62.7 -10.65 62.7 -9.85 61.7 -8.0 60.8 -6.2 60.95 -5.2 61.2 -3.35 59.85 -2.05 L57.6 -0.05 57.65 1.4 57.5 2.65 Q57.05 3.95 55.5 4.05 53.6 4.2 52.95 4.8 L52.25 6.05 Q51.5 6.85 48.85 6.45 46.6 6.15 46.0 7.05 45.6 7.6 44.85 7.95 47.35 7.4 47.35 10.7 47.35 11.65 46.55 12.65 45.55 13.9 43.95 13.9 42.75 13.9 42.2 12.7 L41.95 11.45 Q41.95 9.2 43.9 8.3 L42.85 8.45 Q42.1 7.7 41.2 7.7 40.5 7.7 40.05 8.45 L39.4 9.05 38.85 9.15 38.25 8.95 37.1 8.45 Q35.55 7.75 35.1 7.7 L31.75 8.05 31.35 8.05 Q29.95 7.8 29.45 6.05 29.05 4.7 28.45 3.85 L27.5 2.8 26.05 2.05 25.1 1.65 Q23.7 0.85 23.35 -0.3 23.35 0.45 22.85 1.05 22.2 1.8 20.95 1.8 19.3 1.8 18.85 0.95 18.65 0.5 18.75 -0.05 18.75 -1.8 21.05 -2.45 22.85 -2.9 23.25 -1.35 L23.45 -3.3 23.35 -4.2 Q21.55 -4.3 20.7 -6.0 L20.45 -6.45 20.05 -8.0 20.0 -8.35 19.6 -8.3 19.0 -8.9 18.6 -9.5 18.45 -9.8 Q18.8 -10.3 19.45 -10.0 L20.0 -9.5 20.0 -9.25 20.25 -10.95 20.5 -13.55 Q20.95 -14.25 20.75 -15.7 20.5 -17.1 21.25 -18.05 L25.55 -24.4 Q28.2 -27.65 30.95 -26.1 L32.1 -26.1 M40.0 -20.7 Q41.05 -21.45 42.1 -21.05 L42.25 -20.35 Q42.25 -19.9 41.45 -18.8 L40.6 -17.8 Q39.75 -17.8 39.35 -18.55 L39.1 -19.35 Q39.1 -20.0 40.0 -20.7 M30.7 -21.55 Q30.35 -20.65 30.45 -19.95 26.5 -19.85 26.5 -16.8 26.5 -16.25 27.25 -15.3 L28.0 -14.15 Q27.6 -12.65 27.75 -11.3 28.05 -8.7 30.7 -8.7 L32.45 -8.8 Q32.45 -7.75 32.95 -7.0 34.1 -5.35 37.2 -5.35 38.75 -5.35 39.95 -6.3 41.15 -7.3 41.75 -7.3 L43.15 -6.45 Q44.15 -5.6 45.45 -5.6 46.85 -5.6 48.3 -6.85 49.7 -8.1 49.95 -8.05 52.6 -7.75 53.45 -9.0 53.85 -9.65 53.85 -11.05 53.85 -12.5 54.3 -13.55 54.7 -14.6 54.7 -15.7 54.7 -17.2 54.35 -17.6 L53.05 -18.45 51.95 -19.3 51.15 -21.45 Q50.1 -23.2 47.95 -23.2 47.35 -23.2 46.7 -22.8 L45.95 -22.5 Q46.35 -23.05 46.35 -24.05 46.35 -26.15 44.55 -26.05 42.75 -26.0 42.75 -23.95 L42.7 -23.7 40.85 -24.6 Q38.3 -24.6 37.1 -23.9 35.65 -23.05 32.1 -22.8 31.15 -22.75 30.7 -21.55 M33.85 -13.05 Q32.1 -13.05 32.1 -14.7 32.1 -15.95 33.85 -16.8 35.6 -17.65 35.6 -15.05 35.6 -14.2 35.15 -13.65 34.65 -13.05 33.85 -13.05 M22.4 -11.8 Q22.6 -11.3 23.6 -11.3 24.75 -11.3 24.75 -12.05 24.75 -13.85 23.55 -13.6 22.35 -13.3 22.35 -12.3 22.25 -12.05 22.4 -11.8 M27.7 -8.2 Q26.85 -8.25 26.85 -7.35 L26.95 -6.85 27.0 -6.7 27.95 -6.55 Q28.65 -6.55 28.85 -6.85 L29.0 -7.3 Q28.5 -8.1 27.7 -8.2 M27.95 -20.05 Q28.85 -20.05 29.35 -20.65 29.75 -21.1 29.75 -21.8 29.75 -24.6 28.3 -23.9 26.85 -23.2 26.85 -21.25 26.8 -20.9 26.9 -20.6 27.05 -20.05 27.95 -20.05 M35.05 -7.7 Q34.6 -6.85 33.6 -6.85 33.0 -6.85 32.7 -7.7 L32.5 -8.6 Q32.5 -9.65 33.95 -10.2 35.35 -10.75 35.35 -9.05 L35.05 -7.7 M54.25 -19.2 L54.95 -19.05 Q55.75 -19.05 55.75 -20.2 55.75 -20.75 55.4 -21.1 55.0 -21.5 54.2 -21.35 L54.1 -20.3 Q54.1 -19.55 54.25 -19.2 M39.85 -2.1 L39.95 -1.3 Q40.15 -0.6 40.7 -0.6 L41.85 -1.05 Q42.95 -1.6 42.95 -2.3 42.95 -4.35 41.4 -3.8 39.85 -3.25 39.85 -2.1 M31.35 -2.85 Q31.35 -2.7 32.1 -2.05 L32.4 -2.25 Q33.2 -2.9 33.2 -3.45 L33.1 -4.05 Q32.4 -4.3 31.85 -3.85 L31.4 -3.1 31.35 -2.85 M45.55 -17.4 Q46.1 -17.75 47.25 -16.55 46.6 -15.55 45.95 -15.55 L45.2 -15.6 45.1 -16.2 Q45.1 -17.15 45.55 -17.4 M50.2 -11.9 Q50.75 -12.3 51.6 -12.3 L51.75 -11.8 51.6 -10.6 51.2 -10.45 50.6 -10.3 50.1 -10.4 49.85 -10.6 49.8 -10.75 49.7 -11.2 Q49.7 -11.55 50.2 -11.9 M44.7 -10.25 L43.95 -9.85 43.4 -9.95 43.25 -10.05 43.2 -11.05 43.3 -11.95 Q43.6 -12.2 45.0 -11.95 L45.2 -11.05 Q45.2 -10.7 44.7 -10.25 M55.45 -1.7 Q55.45 -4.7 53.2 -3.9 50.95 -3.1 50.95 -0.8 L50.95 0.1 Q51.2 0.9 52.35 0.9 53.5 0.9 54.5 0.0 55.45 -0.9 55.45 -1.7 M56.35 -10.55 Q56.85 -10.55 57.2 -11.25 L57.5 -12.3 Q57.5 -13.45 56.45 -13.45 55.35 -13.45 55.35 -12.1 L55.4 -11.3 Q55.55 -10.55 56.35 -10.55 M62.1 3.45 L61.2 3.95 60.25 3.2 59.75 2.45 Q59.75 0.75 61.35 0.95 62.95 1.2 62.95 2.45 62.95 2.9 62.1 3.45 M55.1 9.35 Q55.1 7.9 56.15 7.85 57.2 7.75 57.2 8.95 57.2 9.6 56.6 9.95 L55.95 10.2 55.2 10.15 55.1 9.35 M51.7 9.55 Q51.1 10.45 50.35 10.45 49.3 10.45 49.1 9.7 L49.1 8.95 Q49.1 7.5 50.65 7.15 52.2 6.8 52.2 8.3 L51.7 9.55 M49.75 13.55 Q50.4 13.85 50.5 14.2 L50.3 14.8 49.6 14.95 Q48.8 14.95 48.65 14.6 L48.6 14.15 48.7 13.3 49.75 13.55 M39.1 2.8 Q39.1 1.1 37.55 1.55 36.55 1.85 36.2 2.5 L36.0 3.35 36.1 4.1 Q36.3 4.8 37.2 4.8 L37.55 4.75 38.45 3.95 39.1 2.8 M33.35 9.8 Q33.35 8.45 34.35 8.5 35.2 8.55 35.35 9.6 L35.35 9.95 Q35.35 10.7 34.35 10.7 L33.45 10.65 33.35 9.85 33.35 9.8 M24.25 6.85 Q24.6 5.9 25.85 5.7 27.6 5.4 27.6 7.7 L27.55 9.15 Q27.25 9.95 26.1 9.95 24.85 9.95 24.35 8.85 L24.2 8.5 24.1 7.75 Q24.1 7.25 24.25 6.85 M35.75 14.95 L35.7 14.65 35.7 13.3 Q36.4 13.25 36.85 13.7 37.2 14.05 37.2 14.45 L37.1 14.95 37.1 15.0 36.45 15.15 35.9 15.05 35.75 14.95" fill="#d1d1d1" fill-rule="evenodd" stroke="none"/>
    <path d="M25.0 -26.8 Q25.9 -27.8 28.1 -27.9 30.45 -28.05 31.35 -28.85 L32.8 -30.35 Q34.0 -31.3 35.35 -31.3 L36.6 -30.7 Q37.75 -30.1 38.6 -30.1 39.6 -30.1 41.6 -31.3 43.5 -32.05 45.2 -30.3 46.0 -29.5 48.2 -29.35 L51.0 -29.05 Q51.4 -28.2 51.85 -27.9 L57.75 -27.35 Q58.3 -26.7 58.5 -25.3 L58.75 -23.3 Q58.95 -22.55 60.65 -21.2 62.25 -19.95 62.25 -19.15 L62.05 -18.0 Q62.0 -17.35 62.7 -16.55 L64.45 -14.8 Q64.95 -14.35 64.95 -13.9 L64.85 -12.2 Q64.75 -10.75 65.0 -9.95 L65.9 -7.95 Q66.45 -6.8 66.45 -6.05 66.45 -5.4 65.85 -4.4 65.2 -3.4 65.2 -2.7 L65.6 -0.75 65.95 1.3 Q65.95 2.25 65.3 2.7 64.05 3.55 63.2 4.7 L62.95 8.7 Q63.25 10.2 61.1 11.1 L58.45 11.95 57.6 14.15 Q56.85 15.95 55.25 15.95 52.95 15.95 52.35 16.65 L50.7 18.7 48.6 18.7 Q47.25 17.1 45.75 18.6 L44.1 20.45 Q42.85 20.45 42.15 19.9 L41.8 19.65 41.1 19.15 39.35 19.15 Q39.1 19.15 38.6 19.45 L37.95 19.95 36.85 19.95 36.1 18.8 Q35.45 17.9 33.7 17.9 L30.25 18.45 Q29.65 18.45 29.1 17.3 L27.85 15.7 26.65 15.25 25.35 14.75 Q24.05 14.25 23.45 13.15 L23.35 13.05 Q22.4 11.3 20.85 10.3 20.4 10.0 19.9 9.8 18.2 9.05 18.2 7.3 L18.25 6.9 18.55 5.1 Q18.7 3.8 18.1 2.8 L16.45 0.25 Q15.7 -0.9 15.7 -1.85 L15.7 -2.05 16.0 -4.5 16.2 -5.85 Q16.2 -7.1 15.8 -8.05 L15.45 -8.75 14.9 -10.0 14.75 -10.9 14.7 -11.2 Q14.7 -12.55 16.0 -13.6 17.65 -15.0 18.2 -16.3 18.6 -17.2 18.75 -19.05 19.2 -20.7 21.6 -21.8 22.9 -22.4 23.7 -24.15 L25.0 -26.8 M32.1 -26.1 L30.95 -26.1 Q28.2 -27.65 25.55 -24.4 L21.25 -18.05 Q20.5 -17.1 20.75 -15.7 20.95 -14.25 20.5 -13.55 L20.25 -10.95 20.0 -9.25 20.0 -9.5 19.45 -10.0 Q18.8 -10.3 18.45 -9.8 L18.6 -9.5 19.0 -8.9 19.6 -8.3 20.0 -8.35 20.05 -8.0 20.45 -6.45 20.7 -6.0 Q21.55 -4.3 23.35 -4.2 L23.45 -3.3 23.25 -1.35 Q22.85 -2.9 21.05 -2.45 18.75 -1.8 18.75 -0.05 18.65 0.5 18.85 0.95 19.3 1.8 20.95 1.8 22.2 1.8 22.85 1.05 23.35 0.45 23.35 -0.3 23.7 0.85 25.1 1.65 L26.05 2.05 27.5 2.8 28.45 3.85 Q29.05 4.7 29.45 6.05 29.95 7.8 31.35 8.05 L31.75 8.05 35.1 7.7 Q35.55 7.75 37.1 8.45 L38.25 8.95 38.85 9.15 39.4 9.05 40.05 8.45 Q40.5 7.7 41.2 7.7 42.1 7.7 42.85 8.45 L43.9 8.3 Q41.95 9.2 41.95 11.45 L42.2 12.7 Q42.75 13.9 43.95 13.9 45.55 13.9 46.55 12.65 47.35 11.65 47.35 10.7 47.35 7.4 44.85 7.95 45.6 7.6 46.0 7.05 46.6 6.15 48.85 6.45 51.5 6.85 52.25 6.05 L52.95 4.8 Q53.6 4.2 55.5 4.05 57.05 3.95 57.5 2.65 L57.65 1.4 57.6 -0.05 59.85 -2.05 Q61.2 -3.35 60.95 -5.2 60.8 -6.2 61.7 -8.0 62.7 -9.85 62.7 -10.65 62.7 -11.25 62.05 -11.9 61.35 -12.65 61.2 -13.8 L60.7 -16.8 60.2 -17.6 60.5 -17.2 60.6 -17.7 Q60.6 -18.9 59.9 -19.95 58.9 -21.35 56.95 -21.95 L56.65 -22.15 56.6 -22.55 56.3 -22.55 55.85 -23.9 Q55.4 -25.7 54.35 -26.3 L49.85 -26.1 48.6 -27.35 Q47.05 -28.55 44.95 -28.55 43.1 -28.55 41.9 -27.7 L40.6 -26.85 39.35 -27.6 38.1 -28.55 Q34.3 -28.5 33.25 -27.55 32.7 -26.45 32.1 -26.1 M49.75 13.55 L48.7 13.3 48.6 14.15 48.65 14.6 Q48.8 14.95 49.6 14.95 L50.3 14.8 50.5 14.2 Q50.4 13.85 49.75 13.55 M51.7 9.55 L52.2 8.3 Q52.2 6.8 50.65 7.15 49.1 7.5 49.1 8.95 L49.1 9.7 Q49.3 10.45 50.35 10.45 51.1 10.45 51.7 9.55 M55.1 9.35 L55.2 10.15 55.95 10.2 56.6 9.95 Q57.2 9.6 57.2 8.95 57.2 7.75 56.15 7.85 55.1 7.9 55.1 9.35 M62.1 3.45 Q62.95 2.9 62.95 2.45 62.95 1.2 61.35 0.95 59.75 0.75 59.75 2.45 L60.25 3.2 61.2 3.95 62.1 3.45 M35.75 14.95 L35.9 15.05 36.45 15.15 37.1 15.0 37.1 14.95 37.2 14.45 Q37.2 14.05 36.85 13.7 36.4 13.25 35.7 13.3 L35.7 14.65 35.75 14.95 M24.25 6.85 Q24.1 7.25 24.1 7.75 L24.2 8.5 24.35 8.85 Q24.85 9.95 26.1 9.95 27.25 9.95 27.55 9.15 L27.6 7.7 Q27.6 5.4 25.85 5.7 24.6 5.9 24.25 6.85 M33.35 9.8 L33.35 9.85 33.45 10.65 34.35 10.7 Q35.35 10.7 35.35 9.95 L35.35 9.6 Q35.2 8.55 34.35 8.5 33.35 8.45 33.35 9.8" fill="#989898" fill-rule="evenodd" stroke="none"/>
    <path d="M24.35 -28.05 Q25.3 -28.65 27.5 -29.05 29.6 -29.4 30.85 -30.3 L32.3 -31.7 Q33.35 -32.6 34.95 -32.6 L37.0 -32.05 38.65 -31.55 Q39.3 -31.55 40.9 -32.35 L43.1 -33.35 Q44.1 -33.3 45.3 -32.25 L46.85 -30.85 Q50.65 -30.65 51.75 -29.9 53.1 -29.1 58.1 -28.55 59.95 -27.2 59.85 -24.3 59.85 -23.6 61.25 -22.35 62.8 -21.0 63.1 -20.3 L63.6 -18.4 Q64.0 -17.15 65.25 -16.2 66.35 -15.4 66.25 -14.05 L65.95 -12.1 Q65.95 -10.9 66.85 -9.2 67.7 -7.5 67.7 -5.9 67.7 -4.65 67.1 -4.0 66.45 -3.3 66.45 -2.45 66.45 -1.65 66.85 -0.75 67.2 0.15 67.2 1.2 67.2 3.05 66.05 4.0 64.75 5.05 64.45 6.45 L64.4 9.1 Q64.3 10.7 63.0 11.7 L61.25 12.35 Q59.7 12.9 59.1 13.55 58.85 13.75 58.5 14.7 L57.85 16.2 Q57.3 17.1 55.35 17.4 L53.25 17.7 Q53.0 17.9 52.55 18.85 52.2 19.65 51.1 20.15 L48.5 19.95 47.25 19.7 Q46.65 19.7 45.75 20.85 44.85 21.95 43.85 21.95 43.15 21.95 41.95 21.3 L40.65 20.5 40.65 20.45 40.6 20.45 Q39.3 20.45 38.95 20.75 L38.35 21.4 36.6 21.4 36.25 21.25 35.5 20.6 34.8 19.7 Q33.75 18.65 29.85 19.45 29.05 19.3 28.5 18.2 27.95 17.1 27.45 16.95 L25.55 16.35 24.35 15.9 Q23.35 15.55 22.85 14.7 L22.1 13.25 Q21.6 12.25 20.95 11.95 18.3 10.85 17.5 9.8 16.8 8.85 17.0 6.95 L17.0 6.9 Q17.25 4.55 17.1 3.95 L16.45 2.95 16.15 2.6 15.55 1.9 14.95 0.95 Q14.45 -0.25 14.45 -1.7 L14.8 -4.5 14.95 -5.8 Q14.95 -6.55 14.2 -8.0 L14.1 -8.2 Q13.6 -9.3 13.5 -10.45 L13.45 -11.3 Q13.55 -12.35 14.55 -13.3 16.1 -14.75 16.95 -16.8 17.3 -17.55 17.45 -19.85 17.85 -21.9 19.6 -22.55 21.75 -23.4 22.5 -25.25 23.3 -27.4 24.35 -28.05 M25.0 -26.8 L23.7 -24.15 Q22.9 -22.4 21.6 -21.8 19.2 -20.7 18.75 -19.05 18.6 -17.2 18.2 -16.3 17.65 -15.0 16.0 -13.6 14.7 -12.55 14.7 -11.2 L14.75 -10.9 14.9 -10.0 15.45 -8.75 15.8 -8.05 Q16.2 -7.1 16.2 -5.85 L16.0 -4.5 15.7 -2.05 15.7 -1.85 Q15.7 -0.9 16.45 0.25 L18.1 2.8 Q18.7 3.8 18.55 5.1 L18.25 6.9 18.2 7.3 Q18.2 9.05 19.9 9.8 20.4 10.0 20.85 10.3 22.4 11.3 23.35 13.05 L23.45 13.15 Q24.05 14.25 25.35 14.75 L26.65 15.25 27.85 15.7 29.1 17.3 Q29.65 18.45 30.25 18.45 L33.7 17.9 Q35.45 17.9 36.1 18.8 L36.85 19.95 37.95 19.95 38.6 19.45 Q39.1 19.15 39.35 19.15 L41.1 19.15 41.8 19.65 42.15 19.9 Q42.85 20.45 44.1 20.45 L45.75 18.6 Q47.25 17.1 48.6 18.7 L50.7 18.7 52.35 16.65 Q52.95 15.95 55.25 15.95 56.85 15.95 57.6 14.15 L58.45 11.95 61.1 11.1 Q63.25 10.2 62.95 8.7 L63.2 4.7 Q64.05 3.55 65.3 2.7 65.95 2.25 65.95 1.3 L65.6 -0.75 65.2 -2.7 Q65.2 -3.4 65.85 -4.4 66.45 -5.4 66.45 -6.05 66.45 -6.8 65.9 -7.95 L65.0 -9.95 Q64.75 -10.75 64.85 -12.2 L64.95 -13.9 Q64.95 -14.35 64.45 -14.8 L62.7 -16.55 Q62.0 -17.35 62.05 -18.0 L62.25 -19.15 Q62.25 -19.95 60.65 -21.2 58.95 -22.55 58.75 -23.3 L58.5 -25.3 Q58.3 -26.7 57.75 -27.35 L51.85 -27.9 Q51.4 -28.2 51.0 -29.05 L48.2 -29.35 Q46.0 -29.5 45.2 -30.3 43.5 -32.05 41.6 -31.3 39.6 -30.1 38.6 -30.1 37.75 -30.1 36.6 -30.7 L35.35 -31.3 Q34.0 -31.3 32.8 -30.35 L31.35 -28.85 Q30.45 -28.05 28.1 -27.9 25.9 -27.8 25.0 -26.8" fill="#606060" fill-rule="evenodd" stroke="none"/>
  </g>
</svg>
