<?xml version="1.0" encoding="UTF-8" standalone="no"?>
<svg xmlns:ffdec="https://www.free-decompiler.com/flash" xmlns:xlink="http://www.w3.org/1999/xlink" ffdec:objectType="shape" height="77.65px" width="108.25px" xmlns="http://www.w3.org/2000/svg">
  <g transform="matrix(1.0, 0.0, 0.0, 1.0, 63.6, 48.5)">
    <path d="M4.1 -35.5 Q8.55 -38.75 11.15 -39.15 L11.15 -38.95 18.1 -38.2 26.75 -37.15 Q28.9 -36.65 34.35 -33.5 L22.65 -31.85 Q19.3 -31.3 15.0 -28.75 L22.55 -28.15 Q27.15 -27.9 29.75 -26.0 21.45 -21.45 20.4 -20.4 L19.85 -19.55 26.65 -18.85 26.75 -18.7 27.35 -18.25 Q20.8 -14.25 18.6 -13.35 L17.15 -12.75 17.1 -12.75 Q18.45 -11.65 20.05 -11.4 L22.5 -11.25 22.65 -11.25 16.45 -9.5 Q12.65 -8.45 12.1 -8.05 12.7 -6.8 16.35 -6.7 L23.4 -6.55 Q23.4 -6.45 23.9 -6.3 L24.75 -6.0 Q19.7 -4.2 16.0 -2.25 13.3 -0.8 12.5 0.0 L12.65 0.5 13.5 0.65 16.8 -0.05 21.5 -0.75 27.15 -0.25 Q24.6 1.65 17.75 3.15 L9.85 4.75 8.85 5.6 15.9 9.25 16.0 9.35 Q9.75 10.6 8.6 11.55 8.85 12.35 13.85 16.25 13.1 16.25 8.7 15.05 L4.25 13.85 3.35 14.25 Q5.7 17.05 9.25 20.15 L12.6 22.9 7.2 23.4 Q5.85 23.4 0.3 19.65 -5.05 16.0 -5.85 14.8 L-7.65 11.35 Q-8.9 8.85 -10.1 7.55 -9.65 7.1 -9.3 7.1 L-8.05 7.35 -5.45 7.55 Q-4.35 7.05 -4.0 6.25 L-3.3 5.1 -3.15 5.05 -1.5 6.75 2.0 10.15 2.3 10.2 2.45 9.55 1.4 8.25 2.0 8.3 2.15 7.6 Q2.15 7.25 -0.45 4.65 0.85 4.3 1.3 3.6 L1.95 2.1 Q2.3 1.15 2.55 0.95 3.15 0.3 4.7 -0.25 L6.45 -0.9 Q7.55 -1.75 7.8 -3.05 L8.8 -3.5 9.0 -4.0 7.9 -4.2 7.9 -6.15 Q8.2 -7.55 9.5 -8.6 10.65 -9.55 10.65 -11.4 L10.3 -13.35 Q9.9 -14.25 9.9 -15.05 9.9 -15.9 10.55 -16.6 11.0 -17.05 11.1 -17.85 L14.75 -19.0 14.5 -19.5 11.15 -19.05 Q11.0 -20.4 10.3 -21.8 L9.85 -22.75 13.1 -23.9 Q12.85 -24.3 11.85 -24.3 L9.5 -23.9 9.4 -24.7 9.7 -26.65 Q9.8 -28.0 8.7 -28.8 L8.55 -28.9 Q13.5 -32.0 19.85 -33.9 L17.95 -34.2 Q15.15 -34.2 10.15 -31.4 L7.65 -29.85 7.05 -31.0 6.55 -32.9 Q6.25 -33.6 4.7 -34.95 L4.1 -35.5 M-10.55 8.0 L-10.75 9.4 Q-10.75 11.3 -9.35 15.15 -8.0 19.05 -8.0 21.5 L-8.15 21.65 -11.05 19.35 -13.75 17.25 Q-14.55 18.1 -14.65 20.4 L-14.7 23.25 -14.7 23.9 -16.95 19.25 Q-17.9 16.6 -17.9 8.8 L-17.9 8.6 -17.6 8.15 -15.95 7.85 -15.9 7.85 -15.9 7.9 -15.75 8.0 -15.6 8.4 -13.65 12.5 -13.15 12.55 -13.75 10.1 -14.15 8.95 -12.7 9.35 Q-11.7 9.35 -10.8 8.25 L-10.55 8.0 M-0.2 -23.15 Q-0.95 -23.15 -1.1 -23.8 L-1.15 -23.9 -1.2 -24.7 Q-1.2 -26.05 -0.1 -26.05 L0.7 -25.75 0.95 -24.9 0.65 -23.85 Q0.3 -23.15 -0.2 -23.15 M-33.65 -38.75 L-34.05 -37.85 -34.3 -37.35 Q-34.2 -38.35 -33.65 -38.75 M-34.55 -36.9 Q-35.4 -35.75 -36.95 -35.15 -38.7 -34.5 -39.1 -32.45 -39.25 -30.15 -39.6 -29.4 -40.45 -27.35 -42.0 -25.9 -43.0 -24.95 -43.1 -23.9 L-43.05 -23.3 -43.1 -23.3 Q-44.55 -22.75 -44.55 -21.7 L-44.35 -20.8 Q-44.05 -19.95 -43.45 -19.95 -42.7 -19.95 -42.25 -20.4 -41.7 -19.3 -41.6 -18.6 -43.3 -18.95 -44.1 -20.1 -44.6 -20.85 -44.6 -21.9 L-46.35 -21.8 Q-49.0 -21.8 -49.3 -24.4 -49.45 -25.75 -49.05 -27.25 L-49.8 -28.4 Q-50.55 -29.35 -50.55 -29.9 -50.55 -32.95 -46.6 -33.05 L-46.35 -34.65 Q-45.9 -35.85 -44.95 -35.9 -41.4 -36.15 -39.95 -37.0 -38.75 -37.7 -36.2 -37.7 L-34.55 -36.9 M-40.85 -10.55 L-40.4 -10.0 -40.1 -9.65 Q-39.5 -8.95 -39.45 -8.65 L-39.4 -8.4 -39.5 -8.35 -39.85 -8.3 Q-40.75 -8.3 -40.95 -9.0 L-41.05 -9.75 -40.85 -10.55 M-53.5 -26.7 Q-52.3 -26.95 -52.3 -25.15 -52.3 -24.4 -53.45 -24.4 -54.45 -24.4 -54.65 -24.9 L-54.7 -25.4 Q-54.7 -26.4 -53.5 -26.7 M-50.2 -34.35 Q-50.2 -36.3 -48.75 -37.0 -47.3 -37.7 -47.3 -34.9 -47.3 -34.2 -47.7 -33.75 -48.2 -33.15 -49.1 -33.15 -50.0 -33.15 -50.15 -33.7 L-50.2 -34.35 M-41.45 -28.15 Q-41.45 -30.75 -43.2 -29.9 -44.95 -29.05 -44.95 -27.8 -44.95 -26.15 -43.2 -26.15 -42.4 -26.15 -41.9 -26.75 -41.45 -27.3 -41.45 -28.15 M-50.05 -19.8 L-50.1 -19.95 -50.2 -20.45 Q-50.2 -21.35 -49.35 -21.3 -48.55 -21.2 -48.05 -20.4 L-48.2 -19.95 Q-48.4 -19.65 -49.1 -19.65 L-50.05 -19.8 M-45.65 -16.2 L-45.2 -16.95 -43.95 -17.15 -43.85 -16.55 Q-43.85 -16.0 -44.65 -15.35 L-44.95 -15.15 -45.7 -15.95 -45.65 -16.2 M-25.85 -34.15 L-25.8 -34.25 Q-25.35 -35.35 -24.45 -35.4 L-20.85 -35.9 -20.4 -36.05 -19.45 -36.5 Q-18.3 -37.15 -16.0 -37.2 L-15.7 -37.2 -13.85 -36.3 -13.8 -36.55 Q-13.8 -38.6 -12.0 -38.65 L-11.05 -38.5 Q-10.2 -38.1 -10.2 -36.65 -10.2 -35.65 -10.6 -35.1 L-9.85 -35.4 Q-9.2 -35.8 -8.6 -35.8 L-8.0 -35.75 Q-6.3 -35.55 -5.4 -34.05 L-5.3 -33.85 -4.6 -31.9 -3.5 -31.05 -2.3 -30.3 -2.2 -30.2 Q-1.85 -29.8 -1.85 -28.3 L-1.9 -27.3 -2.25 -26.15 Q-2.7 -25.1 -2.7 -23.65 -2.7 -22.25 -3.1 -21.6 -3.95 -20.35 -6.6 -20.65 L-8.25 -19.45 -8.45 -19.25 Q-9.8 -18.2 -11.1 -18.2 -12.4 -18.2 -13.4 -19.05 L-14.5 -19.8 -14.8 -19.9 Q-15.4 -19.9 -16.6 -18.9 -17.8 -17.95 -19.35 -17.95 -21.05 -17.95 -22.15 -18.45 -23.1 -18.85 -23.6 -19.6 -24.1 -20.35 -24.1 -21.4 L-25.85 -21.3 Q-27.8 -21.3 -28.45 -22.65 L-28.8 -23.9 -28.85 -24.7 -28.55 -26.75 -29.3 -27.9 Q-30.0 -28.75 -30.05 -29.3 L-30.05 -29.4 -30.0 -29.85 Q-29.75 -32.45 -26.1 -32.55 L-25.85 -34.15 M-10.6 -28.15 Q-9.95 -28.15 -9.3 -29.15 L-9.65 -29.5 Q-10.55 -30.3 -11.0 -30.0 -11.45 -29.75 -11.45 -28.8 L-11.35 -28.2 -10.75 -28.15 -10.6 -28.15 M-14.3 -32.95 Q-14.3 -33.55 -14.45 -33.65 L-15.3 -33.75 Q-15.95 -33.75 -16.55 -33.3 -17.45 -32.6 -17.45 -31.95 L-17.25 -31.2 -17.2 -31.15 Q-16.8 -30.4 -15.95 -30.4 L-15.1 -31.4 Q-14.3 -32.5 -14.3 -32.95 M-1.15 -33.7 Q-0.8 -33.35 -0.8 -32.8 -0.8 -31.65 -1.6 -31.65 L-2.3 -31.8 -2.45 -32.9 -2.35 -33.95 Q-1.55 -34.1 -1.15 -33.7 M-32.95 -23.9 L-33.85 -24.05 -34.15 -24.4 -34.2 -24.9 Q-34.2 -25.9 -33.0 -26.2 -31.8 -26.45 -31.8 -24.65 L-31.85 -24.35 Q-32.05 -23.9 -32.95 -23.9 M-28.25 -36.5 Q-27.2 -37.0 -26.9 -35.65 L-26.8 -34.4 Q-26.8 -33.7 -27.2 -33.25 -27.7 -32.65 -28.6 -32.65 -29.5 -32.65 -29.65 -33.2 L-29.7 -33.85 Q-29.7 -35.55 -28.6 -36.25 -28.45 -36.4 -28.25 -36.5 M-21.2 -21.65 Q-21.2 -22.25 -21.35 -22.55 -21.7 -23.15 -22.6 -22.8 -24.05 -22.25 -24.05 -21.2 L-23.85 -20.3 Q-23.55 -19.45 -22.95 -19.45 -22.3 -19.45 -21.9 -19.8 L-21.5 -20.3 Q-21.2 -20.9 -21.2 -21.65 M-21.4 -26.25 Q-20.95 -26.8 -20.95 -27.65 -20.95 -30.25 -22.7 -29.4 -24.45 -28.55 -24.45 -27.3 -24.45 -25.65 -22.7 -25.65 -21.9 -25.65 -21.4 -26.25 M-27.55 -19.9 Q-27.55 -19.65 -27.7 -19.45 -27.9 -19.15 -28.6 -19.15 L-29.55 -19.3 -29.6 -19.45 -29.7 -19.75 -29.7 -19.95 Q-29.7 -20.55 -29.3 -20.7 L-28.85 -20.8 Q-28.05 -20.7 -27.55 -19.9 M-24.7 -16.45 L-23.45 -16.65 -23.35 -16.05 Q-23.35 -15.5 -24.15 -14.85 L-24.45 -14.65 -25.2 -15.45 -25.15 -15.7 -24.7 -16.45 M-19.0 -7.85 L-19.35 -7.8 Q-20.25 -7.8 -20.45 -8.5 L-20.55 -9.25 -20.35 -10.1 Q-20.0 -10.75 -19.0 -11.05 -17.45 -11.5 -17.45 -9.8 -17.45 -9.45 -18.1 -8.65 L-19.0 -7.85 M-6.7 -23.2 L-6.45 -23.0 -5.95 -22.9 -5.35 -23.05 -4.95 -23.2 -4.8 -24.4 Q-4.8 -25.0 -4.95 -24.9 -5.8 -24.9 -6.35 -24.5 L-6.85 -23.8 -6.75 -23.35 -6.7 -23.2 M-2.05 -12.6 Q-3.05 -11.7 -4.2 -11.7 L-5.2 -11.95 -5.6 -12.5 -5.6 -13.4 Q-5.6 -15.7 -3.35 -16.5 -1.1 -17.3 -1.1 -14.3 L-1.1 -14.15 Q-1.2 -13.4 -2.05 -12.6 M-11.35 -23.65 L-11.55 -24.55 Q-12.95 -24.8 -13.25 -24.55 L-13.35 -23.65 -13.3 -22.65 -13.15 -22.55 -12.6 -22.45 -11.85 -22.85 Q-11.35 -23.3 -11.35 -23.65 M-13.6 -14.9 Q-13.6 -14.2 -14.7 -13.65 -15.5 -13.2 -15.85 -13.2 -16.4 -13.2 -16.6 -13.9 L-16.7 -14.7 Q-16.7 -15.85 -15.15 -16.4 -13.6 -16.95 -13.6 -14.9" fill="#ffffff" fill-rule="evenodd" stroke="none"/>
    <path d="M-10.1 7.55 Q-8.9 8.85 -7.65 11.35 L-5.85 14.8 Q-5.05 16.0 0.3 19.65 5.85 23.4 7.2 23.4 L12.6 22.9 9.25 20.15 Q5.7 17.05 3.35 14.25 L4.25 13.85 8.7 15.05 Q13.1 16.25 13.85 16.25 8.85 12.35 8.6 11.55 9.75 10.6 16.0 9.35 L15.9 9.25 8.85 5.6 9.85 4.75 17.75 3.15 Q24.6 1.65 27.15 -0.25 L21.5 -0.75 16.8 -0.05 13.5 0.65 12.65 0.5 12.5 0.0 Q13.3 -0.8 16.0 -2.25 19.7 -4.2 24.75 -6.0 L23.9 -6.3 Q23.4 -6.45 23.4 -6.55 L16.35 -6.7 Q12.7 -6.8 12.1 -8.05 12.65 -8.45 16.45 -9.5 L22.65 -11.25 22.5 -11.25 20.05 -11.4 Q18.45 -11.65 17.1 -12.75 L17.15 -12.75 18.6 -13.35 Q20.8 -14.25 27.35 -18.25 L26.75 -18.7 26.65 -18.85 19.85 -19.55 20.4 -20.4 Q21.45 -21.45 29.75 -26.0 27.15 -27.9 22.55 -28.15 L15.0 -28.75 Q19.3 -31.3 22.65 -31.85 L34.35 -33.5 Q28.9 -36.65 26.75 -37.15 L18.1 -38.2 11.15 -38.95 11.15 -39.15 Q8.55 -38.75 4.1 -35.5 3.3 -36.35 3.3 -36.9 3.35 -38.35 2.95 -39.4 9.15 -42.3 16.4 -42.3 25.75 -42.3 32.05 -38.5 37.5 -35.25 37.95 -31.4 37.65 -30.65 36.2 -30.35 34.6 -30.05 30.95 -30.25 L30.8 -30.1 Q30.65 -30.0 30.65 -29.4 30.65 -29.05 31.15 -28.45 L34.5 -25.3 30.95 -24.05 Q28.6 -23.2 28.1 -22.8 28.95 -21.75 30.7 -20.65 L30.9 -20.55 28.85 -18.35 24.15 -13.9 Q24.5 -12.95 25.1 -12.7 L27.1 -11.9 26.05 -11.05 Q25.65 -10.8 25.4 -10.1 28.25 -7.3 28.65 -5.55 L26.8 -5.2 Q26.15 -5.15 25.65 -4.25 L26.5 -3.25 30.25 0.85 Q28.5 3.5 26.5 4.75 L22.85 5.65 Q19.85 6.3 18.75 7.55 19.55 8.2 21.0 8.75 L15.5 13.55 16.35 15.0 Q17.15 16.4 17.15 17.0 L16.3 18.05 13.65 20.15 15.6 23.25 Q15.6 24.65 13.1 25.4 L9.55 25.95 Q7.75 25.95 3.8 24.15 0.3 22.6 -3.5 20.35 -4.25 20.5 -4.3 21.35 L-2.65 23.15 -0.1 25.35 1.15 26.25 Q-4.1 26.0 -6.5 25.1 -8.85 23.85 -11.35 23.1 -12.25 23.2 -12.3 24.15 -12.1 25.0 -11.1 25.9 L-10.25 26.5 -15.95 25.9 Q-20.0 24.85 -20.0 20.35 -20.0 13.95 -19.3 8.8 L-18.2 8.8 -17.9 8.6 -17.9 8.8 Q-17.9 16.6 -16.95 19.25 L-14.7 23.9 -14.7 23.25 -14.65 20.4 Q-14.55 18.1 -13.75 17.25 L-11.05 19.35 -8.15 21.65 -8.0 21.5 Q-8.0 19.05 -9.35 15.15 -10.75 11.3 -10.75 9.4 L-10.55 8.0 -10.1 7.55 M7.65 -29.85 L10.15 -31.4 Q15.15 -34.2 17.95 -34.2 L19.85 -33.9 Q13.5 -32.0 8.55 -28.9 L7.65 -29.85 M9.5 -23.9 L11.85 -24.3 Q12.85 -24.3 13.1 -23.9 L9.85 -22.75 9.5 -23.9 M11.15 -19.05 L14.5 -19.5 14.75 -19.0 11.1 -17.85 11.15 -18.5 11.15 -19.05 M7.9 -4.2 L9.0 -4.0 8.8 -3.5 7.8 -3.05 7.85 -3.5 7.9 -4.2 M-0.45 4.65 Q2.15 7.25 2.15 7.6 L2.0 8.3 1.4 8.25 2.45 9.55 2.3 10.2 2.0 10.15 -1.5 6.75 -3.15 5.05 -1.2 4.8 -0.45 4.65 M-5.25 -42.7 Q1.6 -46.3 10.5 -45.25 9.75 -44.25 7.15 -43.75 3.2 -43.0 0.0 -41.6 L-0.4 -41.4 Q-3.75 -41.85 -4.8 -42.5 L-5.25 -42.7 M-6.95 -6.05 L-7.7 -6.15 -9.25 -6.2 -9.7 -6.1 -10.55 -5.55 -11.7 -4.65 Q-9.2 -5.2 -9.2 -1.9 -9.2 -1.3 -9.5 -0.65 L-10.0 0.05 Q-11.0 1.3 -12.6 1.3 -13.45 1.3 -13.95 0.7 L-14.35 0.1 -14.6 -1.15 Q-14.6 -3.4 -12.65 -4.3 L-13.7 -4.15 -14.3 -4.6 -15.35 -4.9 Q-16.05 -4.9 -16.5 -4.15 L-17.15 -3.55 -17.7 -3.45 -18.3 -3.65 -19.45 -4.15 -21.45 -4.9 -24.8 -4.55 -25.2 -4.55 Q-26.6 -4.8 -27.1 -6.55 L-28.1 -8.75 -29.05 -9.8 -30.5 -10.55 -31.45 -10.95 -31.8 -11.15 Q-32.7 -11.75 -33.05 -12.5 L-33.2 -12.9 Q-33.2 -12.15 -33.7 -11.55 -34.35 -10.8 -35.6 -10.8 -37.25 -10.8 -37.7 -11.65 L-37.8 -12.65 Q-37.8 -13.65 -37.05 -14.25 -36.5 -14.75 -35.5 -15.05 -34.7 -15.25 -34.15 -15.05 -33.5 -14.8 -33.3 -13.95 L-33.1 -15.9 -33.2 -16.8 Q-35.0 -16.9 -35.85 -18.6 L-36.1 -19.05 -36.35 -19.95 -36.5 -20.6 -36.55 -20.95 -36.95 -20.9 -37.55 -21.5 -37.95 -22.1 -38.1 -22.4 Q-37.75 -22.9 -37.1 -22.6 L-36.55 -22.1 -36.55 -21.85 -36.3 -23.55 -36.05 -26.15 Q-35.6 -26.85 -35.8 -28.3 -36.05 -29.7 -35.3 -30.65 -33.85 -32.5 -31.0 -37.0 L-30.7 -37.35 Q-28.95 -39.3 -27.2 -39.2 -26.4 -39.15 -25.6 -38.7 L-24.45 -38.7 -23.75 -39.35 -23.3 -40.15 -22.55 -40.55 Q-21.3 -41.1 -18.45 -41.15 L-18.3 -41.1 -17.2 -40.2 -16.45 -39.65 -15.95 -39.45 -14.65 -40.3 Q-13.45 -41.15 -11.6 -41.15 L-9.95 -40.95 -8.75 -40.45 -7.95 -39.95 -6.7 -38.7 -4.0 -38.85 -2.2 -38.9 Q-1.4 -38.45 -0.9 -37.25 L-0.7 -36.5 -0.25 -35.15 0.05 -35.15 0.1 -34.75 0.4 -34.55 1.95 -33.85 3.35 -32.55 Q4.05 -31.5 4.05 -30.3 L3.95 -29.8 3.65 -30.2 4.15 -29.4 4.6 -27.1 4.65 -26.4 4.7 -26.15 Q4.9 -25.15 5.5 -24.5 6.15 -23.85 6.15 -23.25 L6.1 -22.85 5.6 -21.45 5.15 -20.6 Q4.35 -19.0 4.4 -18.05 L4.4 -17.8 Q4.55 -16.65 4.1 -15.7 L3.3 -14.65 Q1.6 -13.4 1.05 -12.65 L1.1 -11.2 0.95 -9.95 Q0.5 -8.65 -1.05 -8.55 -2.95 -8.4 -3.6 -7.8 L-3.9 -7.05 -4.1 -6.75 -4.3 -6.55 Q-4.95 -5.9 -6.85 -6.05 L-6.95 -6.05 M-0.2 -23.15 Q0.3 -23.15 0.65 -23.85 L0.95 -24.9 0.7 -25.75 -0.1 -26.05 Q-1.2 -26.05 -1.2 -24.7 L-1.15 -23.9 -1.1 -23.8 Q-0.95 -23.15 -0.2 -23.15 M3.2 -10.15 Q3.2 -11.85 4.8 -11.65 6.4 -11.4 6.4 -10.15 6.4 -9.7 5.55 -9.15 4.85 -8.65 4.65 -8.65 4.3 -8.65 3.7 -9.4 L3.2 -10.15 M0.65 -3.65 Q0.65 -3.0 0.05 -2.65 -0.35 -2.4 -0.6 -2.4 L-1.35 -2.45 -1.45 -3.25 Q-1.45 -4.7 -0.4 -4.75 0.65 -4.85 0.65 -3.65 M-39.55 -4.5 L-39.95 -4.65 -41.95 -5.4 -45.3 -5.05 -45.7 -5.05 Q-47.1 -5.3 -47.6 -7.05 -48.0 -8.4 -48.6 -9.25 L-49.55 -10.3 -51.0 -11.05 -51.95 -11.45 Q-53.35 -12.25 -53.7 -13.4 -53.7 -12.65 -54.2 -12.05 -54.85 -11.3 -56.1 -11.3 -57.75 -11.3 -58.2 -12.15 L-58.3 -13.15 Q-58.3 -14.9 -56.0 -15.55 -54.2 -16.0 -53.8 -14.45 L-53.6 -16.4 -53.7 -17.3 Q-55.5 -17.4 -56.35 -19.1 L-56.6 -19.55 -57.0 -21.1 -57.05 -21.45 -57.45 -21.4 -58.05 -22.0 -58.45 -22.6 -58.6 -22.9 Q-58.25 -23.4 -57.6 -23.1 L-57.05 -22.6 -57.05 -22.35 -56.8 -24.05 -56.55 -26.65 Q-56.1 -27.35 -56.3 -28.8 -56.55 -30.2 -55.8 -31.15 L-51.5 -37.5 Q-48.85 -40.75 -46.1 -39.2 L-44.95 -39.2 Q-44.35 -39.55 -43.8 -40.65 -42.75 -41.6 -38.95 -41.65 L-37.7 -40.7 Q-36.75 -39.95 -36.45 -39.95 L-35.15 -40.8 Q-33.95 -41.65 -32.1 -41.65 L-30.25 -41.4 -32.2 -40.65 Q-33.0 -40.15 -33.65 -38.75 -34.2 -38.35 -34.3 -37.35 L-34.55 -36.9 -36.2 -37.7 Q-38.75 -37.7 -39.95 -37.0 -41.4 -36.15 -44.95 -35.9 -45.9 -35.85 -46.35 -34.65 L-46.6 -33.05 Q-50.55 -32.95 -50.55 -29.9 -50.55 -29.35 -49.8 -28.4 L-49.05 -27.25 Q-49.45 -25.75 -49.3 -24.4 -49.0 -21.8 -46.35 -21.8 L-44.6 -21.9 Q-44.6 -20.85 -44.1 -20.1 -43.3 -18.95 -41.6 -18.6 L-41.6 -18.4 -41.75 -17.1 -42.1 -14.3 Q-42.1 -12.85 -41.6 -11.65 L-41.0 -10.7 -40.85 -10.55 -41.05 -9.75 -40.95 -9.0 Q-40.75 -8.3 -39.85 -8.3 L-39.5 -8.35 -39.4 -8.4 -39.55 -5.7 -39.55 -5.65 -39.55 -4.5 M-43.05 -23.3 L-43.05 -23.05 Q-42.95 -21.9 -42.45 -20.8 L-42.35 -20.6 -42.25 -20.4 Q-42.7 -19.95 -43.45 -19.95 -44.05 -19.95 -44.35 -20.8 L-44.55 -21.7 Q-44.55 -22.75 -43.1 -23.3 L-43.05 -23.3 M-50.2 -34.35 L-50.15 -33.7 Q-50.0 -33.15 -49.1 -33.15 -48.2 -33.15 -47.7 -33.75 -47.3 -34.2 -47.3 -34.9 -47.3 -37.7 -48.75 -37.0 -50.2 -36.3 -50.2 -34.35 M-53.5 -26.7 Q-54.7 -26.4 -54.7 -25.4 L-54.65 -24.9 Q-54.45 -24.4 -53.45 -24.4 -52.3 -24.4 -52.3 -25.15 -52.3 -26.95 -53.5 -26.7 M-41.45 -28.15 Q-41.45 -27.3 -41.9 -26.75 -42.4 -26.15 -43.2 -26.15 -44.95 -26.15 -44.95 -27.8 -44.95 -29.05 -43.2 -29.9 -41.45 -30.75 -41.45 -28.15 M-45.65 -16.2 L-45.7 -15.95 -44.95 -15.15 -44.65 -15.35 Q-43.85 -16.0 -43.85 -16.55 L-43.95 -17.15 -45.2 -16.95 -45.65 -16.2 M-50.05 -19.8 L-49.1 -19.65 Q-48.4 -19.65 -48.2 -19.95 L-48.05 -20.4 Q-48.55 -21.2 -49.35 -21.3 -50.2 -21.35 -50.2 -20.45 L-50.1 -19.95 -50.05 -19.8 M-49.5 -3.95 Q-49.8 -3.15 -50.95 -3.15 -52.2 -3.15 -52.7 -4.25 L-52.85 -4.6 -52.95 -5.35 -52.8 -6.25 Q-52.45 -7.2 -51.2 -7.4 -49.45 -7.7 -49.45 -5.4 L-49.5 -3.95 M-41.7 -3.15 Q-41.7 -2.4 -42.7 -2.4 L-43.6 -2.45 -43.7 -3.25 -43.7 -3.3 Q-43.7 -4.65 -42.7 -4.6 -41.85 -4.55 -41.7 -3.5 L-41.7 -3.15 M-25.85 -34.15 L-26.1 -32.55 Q-29.75 -32.45 -30.0 -29.85 L-30.05 -29.4 -30.05 -29.3 Q-30.0 -28.75 -29.3 -27.9 L-28.55 -26.75 -28.85 -24.7 -28.8 -23.9 -28.45 -22.65 Q-27.8 -21.3 -25.85 -21.3 L-24.1 -21.4 Q-24.1 -20.35 -23.6 -19.6 -23.1 -18.85 -22.15 -18.45 -21.05 -17.95 -19.35 -17.95 -17.8 -17.95 -16.6 -18.9 -15.4 -19.9 -14.8 -19.9 L-14.5 -19.8 -13.4 -19.05 Q-12.4 -18.2 -11.1 -18.2 -9.8 -18.2 -8.45 -19.25 L-8.25 -19.45 -6.6 -20.65 Q-3.95 -20.35 -3.1 -21.6 -2.7 -22.25 -2.7 -23.65 -2.7 -25.1 -2.25 -26.15 L-1.9 -27.3 -1.85 -28.3 Q-1.85 -29.8 -2.2 -30.2 L-2.3 -30.3 -3.5 -31.05 -4.6 -31.9 -5.3 -33.85 -5.4 -34.05 Q-6.3 -35.55 -8.0 -35.75 L-8.6 -35.8 Q-9.2 -35.8 -9.85 -35.4 L-10.6 -35.1 Q-10.2 -35.65 -10.2 -36.65 -10.2 -38.1 -11.05 -38.5 L-12.0 -38.65 Q-13.8 -38.6 -13.8 -36.55 L-13.85 -36.3 -15.7 -37.2 -16.0 -37.2 Q-18.3 -37.15 -19.45 -36.5 L-20.4 -36.05 -20.85 -35.9 -24.45 -35.4 Q-25.35 -35.35 -25.8 -34.25 L-25.85 -34.15 M-14.3 -32.95 Q-14.3 -32.5 -15.1 -31.4 L-15.95 -30.4 Q-16.8 -30.4 -17.2 -31.15 L-17.25 -31.2 -17.45 -31.95 Q-17.45 -32.6 -16.55 -33.3 -15.95 -33.75 -15.3 -33.75 L-14.45 -33.65 Q-14.3 -33.55 -14.3 -32.95 M-10.6 -28.15 L-10.75 -28.15 -11.35 -28.2 -11.45 -28.8 Q-11.45 -29.75 -11.0 -30.0 -10.55 -30.3 -9.65 -29.5 L-9.3 -29.15 Q-9.95 -28.15 -10.6 -28.15 M-28.25 -36.5 Q-28.45 -36.4 -28.6 -36.25 -29.7 -35.55 -29.7 -33.85 L-29.65 -33.2 Q-29.5 -32.65 -28.6 -32.65 -27.7 -32.65 -27.2 -33.25 -26.8 -33.7 -26.8 -34.4 L-26.9 -35.65 Q-27.2 -37.0 -28.25 -36.5 M-32.95 -23.9 Q-32.05 -23.9 -31.85 -24.35 L-31.8 -24.65 Q-31.8 -26.45 -33.0 -26.2 -34.2 -25.9 -34.2 -24.9 L-34.15 -24.4 -33.85 -24.05 -32.95 -23.9 M-1.15 -33.7 Q-1.55 -34.1 -2.35 -33.95 L-2.45 -32.9 -2.3 -31.8 -1.6 -31.65 Q-0.8 -31.65 -0.8 -32.8 -0.8 -33.35 -1.15 -33.7 M-21.4 -26.25 Q-21.9 -25.65 -22.7 -25.65 -24.45 -25.65 -24.45 -27.3 -24.45 -28.55 -22.7 -29.4 -20.95 -30.25 -20.95 -27.65 -20.95 -26.8 -21.4 -26.25 M-21.2 -21.65 Q-21.2 -20.9 -21.5 -20.3 L-21.9 -19.8 Q-22.3 -19.45 -22.95 -19.45 -23.55 -19.45 -23.85 -20.3 L-24.05 -21.2 Q-24.05 -22.25 -22.6 -22.8 -21.7 -23.15 -21.35 -22.55 -21.2 -22.25 -21.2 -21.65 M-24.7 -16.45 L-25.15 -15.7 -25.2 -15.45 -24.45 -14.65 -24.15 -14.85 Q-23.35 -15.5 -23.35 -16.05 L-23.45 -16.65 -24.7 -16.45 M-27.55 -19.9 Q-28.05 -20.7 -28.85 -20.8 L-29.3 -20.7 Q-29.7 -20.55 -29.7 -19.95 L-29.7 -19.75 -29.6 -19.45 -29.55 -19.3 -28.6 -19.15 Q-27.9 -19.15 -27.7 -19.45 -27.55 -19.65 -27.55 -19.9 M-29.0 -3.45 Q-29.3 -2.65 -30.45 -2.65 -31.7 -2.65 -32.2 -3.75 L-32.25 -3.85 -32.35 -4.1 -32.45 -4.85 -32.3 -5.75 -32.2 -5.9 Q-31.85 -6.7 -30.7 -6.9 -28.95 -7.2 -28.95 -4.9 L-29.0 -3.45 M-19.0 -7.85 L-18.1 -8.65 Q-17.45 -9.45 -17.45 -9.8 -17.45 -11.5 -19.0 -11.05 -20.0 -10.75 -20.35 -10.1 L-20.55 -9.25 -20.45 -8.5 Q-20.25 -7.8 -19.35 -7.8 L-19.0 -7.85 M-22.2 -1.9 L-23.1 -1.95 -23.2 -2.75 -23.2 -2.8 Q-23.2 -4.15 -22.2 -4.1 -21.35 -4.05 -21.2 -3.0 L-21.2 -2.65 Q-21.2 -1.9 -22.2 -1.9 M-6.7 -23.2 L-6.75 -23.35 -6.85 -23.8 -6.35 -24.5 Q-5.8 -24.9 -4.95 -24.9 -4.8 -25.0 -4.8 -24.4 L-4.95 -23.2 -5.35 -23.05 -5.95 -22.9 -6.45 -23.0 -6.7 -23.2 M-2.05 -12.6 Q-1.2 -13.4 -1.1 -14.15 L-1.1 -14.3 Q-1.1 -17.3 -3.35 -16.5 -5.6 -15.7 -5.6 -13.4 L-5.6 -12.5 -5.2 -11.95 -4.2 -11.7 Q-3.05 -11.7 -2.05 -12.6 M-11.35 -23.65 Q-11.35 -23.3 -11.85 -22.85 L-12.6 -22.45 -13.15 -22.55 -13.3 -22.65 -13.35 -23.65 -13.25 -24.55 Q-12.95 -24.8 -11.55 -24.55 L-11.35 -23.65 M-13.6 -14.9 Q-13.6 -16.95 -15.15 -16.4 -16.7 -15.85 -16.7 -14.7 L-16.6 -13.9 Q-16.4 -13.2 -15.85 -13.2 -15.5 -13.2 -14.7 -13.65 -13.6 -14.2 -13.6 -14.9 M-4.85 -3.05 Q-5.45 -2.15 -6.2 -2.15 -7.25 -2.15 -7.45 -2.9 L-7.45 -3.65 Q-7.45 -5.1 -5.9 -5.45 -4.35 -5.8 -4.35 -4.3 -4.35 -3.85 -4.85 -3.05 M-6.95 2.35 Q-7.75 2.35 -7.9 2.0 L-7.95 1.55 -7.85 0.7 -7.4 0.75 -6.8 0.95 Q-6.15 1.25 -6.05 1.6 L-6.1 1.85 -6.25 2.2 -6.95 2.35 M-20.85 2.05 L-20.85 0.7 Q-20.15 0.65 -19.7 1.1 -19.35 1.45 -19.35 1.85 L-19.45 2.35 -19.45 2.4 -20.1 2.55 -20.65 2.45 -20.8 2.35 -20.85 2.05 M-14.15 8.95 L-13.75 10.1 -13.15 12.55 -13.65 12.5 -15.6 8.4 -15.75 8.0 -14.6 8.7 -14.15 8.95 M-39.85 1.35 L-39.95 1.85 -39.95 1.9 -40.6 2.05 -41.15 1.95 -41.3 1.85 -41.35 1.55 -41.35 0.2 Q-40.65 0.15 -40.2 0.6 -39.85 0.95 -39.85 1.35" fill="#d1d1d1" fill-rule="evenodd" stroke="none"/>
    <path d="M-19.3 8.8 Q-20.0 13.95 -20.0 20.35 -20.0 24.85 -15.95 25.9 L-10.25 26.5 -11.1 25.9 Q-12.1 25.0 -12.3 24.15 -12.25 23.2 -11.35 23.1 -8.85 23.85 -6.5 25.1 -4.1 26.0 1.15 26.25 L-0.1 25.35 -2.65 23.15 -4.3 21.35 Q-4.25 20.5 -3.5 20.35 0.3 22.6 3.8 24.15 7.75 25.95 9.55 25.95 L13.1 25.4 Q15.6 24.65 15.6 23.25 L13.65 20.15 16.3 18.05 17.15 17.0 Q17.15 16.4 16.35 15.0 L15.5 13.55 21.0 8.75 Q19.55 8.2 18.75 7.55 19.85 6.3 22.85 5.65 L26.5 4.75 Q28.5 3.5 30.25 0.85 L26.5 -3.25 25.65 -4.25 Q26.15 -5.15 26.8 -5.2 L28.65 -5.55 Q28.25 -7.3 25.4 -10.1 25.65 -10.8 26.05 -11.05 L27.1 -11.9 25.1 -12.7 Q24.5 -12.95 24.15 -13.9 L28.85 -18.35 30.9 -20.55 30.7 -20.65 Q28.95 -21.75 28.1 -22.8 28.6 -23.2 30.95 -24.05 L34.5 -25.3 31.15 -28.45 Q30.65 -29.05 30.65 -29.4 30.65 -30.0 30.8 -30.1 L30.95 -30.25 Q34.6 -30.05 36.2 -30.35 37.65 -30.65 37.95 -31.4 37.5 -35.25 32.05 -38.5 25.75 -42.3 16.4 -42.3 9.15 -42.3 2.95 -39.4 2.5 -40.45 1.55 -41.15 L-0.4 -41.4 0.0 -41.6 Q3.2 -43.0 7.15 -43.75 9.75 -44.25 10.5 -45.25 1.6 -46.3 -5.25 -42.7 L-5.8 -42.9 Q3.3 -46.75 13.4 -46.75 24.75 -46.75 33.75 -42.35 42.5 -38.05 42.5 -33.0 42.5 -30.55 41.9 -28.55 L41.25 -26.7 41.3 -26.05 41.3 -26.2 41.65 -26.2 Q40.1 -22.85 34.25 -18.8 29.65 -15.55 29.65 -10.5 29.65 -10.1 30.8 -3.95 L31.95 2.8 31.0 4.6 29.95 4.85 Q22.65 6.9 21.75 7.75 L20.3 11.35 Q18.8 14.55 18.65 16.75 L18.45 23.35 Q18.35 24.0 17.55 24.65 15.25 26.45 9.45 27.5 0.7 29.0 -13.5 28.0 L-17.0 28.05 Q-19.95 28.15 -21.4 26.9 -22.85 25.6 -23.95 23.6 L-25.25 20.85 -29.5 12.35 -31.0 7.4 -31.35 5.6 -31.7 3.5 -31.0 3.75 -29.1 4.35 Q-28.6 4.5 -28.05 5.6 -27.5 6.7 -26.7 6.85 -22.8 6.05 -21.75 7.1 L-21.05 8.0 -20.3 8.65 -19.95 8.8 -19.3 8.8 M-32.85 -36.75 L-31.75 -39.05 -31.55 -39.4 Q-30.65 -40.4 -28.5 -40.5 L-28.45 -40.5 Q-26.4 -40.65 -25.45 -41.25 L-25.2 -41.45 -24.15 -42.5 -23.75 -42.95 Q-22.55 -43.9 -21.2 -43.9 -21.05 -43.9 -19.95 -43.3 L-17.95 -42.7 Q-16.95 -42.7 -14.95 -43.9 -13.15 -44.6 -11.5 -43.05 L-11.35 -42.9 Q-10.55 -42.1 -8.35 -41.95 L-8.0 -41.9 -6.8 -41.8 -5.55 -41.65 Q-5.15 -40.8 -4.7 -40.5 L-2.3 -40.1 1.2 -39.95 1.75 -38.8 1.95 -37.9 2.2 -35.9 Q2.3 -35.45 3.05 -34.7 L4.1 -33.8 Q5.7 -32.55 5.7 -31.75 L5.5 -30.6 Q5.45 -29.95 6.15 -29.15 L6.4 -28.9 7.2 -28.05 7.9 -27.4 Q8.4 -26.95 8.4 -26.5 L8.3 -24.8 8.3 -23.6 Q8.3 -23.0 8.45 -22.55 L8.55 -22.35 9.35 -20.55 9.9 -18.9 9.9 -18.65 9.55 -17.35 9.3 -17.0 Q8.65 -16.0 8.65 -15.3 L9.05 -13.35 9.4 -11.3 Q9.4 -10.35 8.75 -9.9 7.5 -9.05 6.65 -7.9 L6.4 -4.45 6.4 -3.9 Q6.55 -3.2 6.15 -2.65 5.7 -2.0 4.55 -1.5 L1.9 -0.65 1.05 1.55 Q0.3 3.35 -1.3 3.35 L-1.75 3.35 Q-3.6 3.4 -4.15 4.05 L-4.2 4.05 Q-4.8 5.2 -5.85 6.1 L-7.95 6.1 Q-9.3 4.5 -10.8 6.0 L-12.45 7.85 Q-13.7 7.85 -14.4 7.3 L-14.75 7.05 -14.85 6.95 Q-15.3 6.6 -15.45 6.55 L-17.2 6.55 Q-17.45 6.55 -17.85 6.8 L-17.95 6.85 -18.6 7.35 -19.7 7.35 -20.45 6.2 Q-21.1 5.3 -22.85 5.3 L-26.3 5.85 Q-26.9 5.85 -27.45 4.7 -28.15 3.4 -28.7 3.1 L-29.9 2.65 -31.2 2.15 -31.9 1.8 -33.1 0.55 -33.2 0.45 -33.55 -0.15 Q-34.25 -1.15 -35.1 -1.85 L-35.7 -2.3 -36.65 -2.8 Q-37.6 -3.2 -38.0 -3.95 -38.35 -4.55 -38.35 -5.3 L-38.3 -5.7 -38.0 -7.5 Q-37.85 -8.65 -38.3 -9.5 L-38.45 -9.8 -39.55 -11.5 -40.1 -12.35 Q-40.85 -13.5 -40.85 -14.45 L-40.85 -14.65 -40.55 -17.1 -40.35 -18.45 Q-40.35 -19.7 -40.75 -20.65 L-41.1 -21.35 -41.65 -22.6 -41.8 -23.5 -41.85 -23.8 Q-41.85 -25.15 -40.55 -26.2 -38.9 -27.6 -38.35 -28.9 -37.95 -29.8 -37.8 -31.65 L-37.75 -31.75 Q-37.3 -33.25 -35.25 -34.25 L-34.95 -34.4 Q-33.65 -35.0 -32.85 -36.75 M-6.95 -6.05 L-6.85 -6.05 Q-4.95 -5.9 -4.3 -6.55 L-4.1 -6.75 -3.9 -7.05 -3.6 -7.8 Q-2.95 -8.4 -1.05 -8.55 0.5 -8.65 0.95 -9.95 L1.1 -11.2 1.05 -12.65 Q1.6 -13.4 3.3 -14.65 L4.1 -15.7 Q4.55 -16.65 4.4 -17.8 L4.4 -18.05 Q4.35 -19.0 5.15 -20.6 L5.6 -21.45 6.1 -22.85 6.15 -23.25 Q6.15 -23.85 5.5 -24.5 4.9 -25.15 4.7 -26.15 L4.65 -26.4 4.6 -27.1 4.15 -29.4 3.65 -30.2 3.95 -29.8 4.05 -30.3 Q4.05 -31.5 3.35 -32.55 L1.95 -33.85 0.4 -34.55 0.1 -34.75 0.05 -35.15 -0.25 -35.15 -0.7 -36.5 -0.9 -37.25 Q-1.4 -38.45 -2.2 -38.9 L-4.0 -38.85 -6.7 -38.7 -7.95 -39.95 -8.75 -40.45 -9.95 -40.95 -11.6 -41.15 Q-13.45 -41.15 -14.65 -40.3 L-15.95 -39.45 -16.45 -39.65 -17.2 -40.2 -18.3 -41.1 -18.45 -41.15 Q-21.3 -41.1 -22.55 -40.55 L-23.3 -40.15 -23.75 -39.35 -24.45 -38.7 -25.6 -38.7 Q-26.4 -39.15 -27.2 -39.2 -28.95 -39.3 -30.7 -37.35 L-31.0 -37.0 Q-33.85 -32.5 -35.3 -30.65 -36.05 -29.7 -35.8 -28.3 -35.6 -26.85 -36.05 -26.15 L-36.3 -23.55 -36.55 -21.85 -36.55 -22.1 -37.1 -22.6 Q-37.75 -22.9 -38.1 -22.4 L-37.95 -22.1 -37.55 -21.5 -36.95 -20.9 -36.55 -20.95 -36.5 -20.6 -36.35 -19.95 -36.1 -19.05 -35.85 -18.6 Q-35.0 -16.9 -33.2 -16.8 L-33.1 -15.9 -33.3 -13.95 Q-33.5 -14.8 -34.15 -15.05 -34.7 -15.25 -35.5 -15.05 -36.5 -14.75 -37.05 -14.25 -37.8 -13.65 -37.8 -12.65 L-37.7 -11.65 Q-37.25 -10.8 -35.6 -10.8 -34.35 -10.8 -33.7 -11.55 -33.2 -12.15 -33.2 -12.9 L-33.05 -12.5 Q-32.7 -11.75 -31.8 -11.15 L-31.45 -10.95 -30.5 -10.55 -29.05 -9.8 -28.1 -8.75 -27.1 -6.55 Q-26.6 -4.8 -25.2 -4.55 L-24.8 -4.55 -21.45 -4.9 -19.45 -4.15 -18.3 -3.65 -17.7 -3.45 -17.15 -3.55 -16.5 -4.15 Q-16.05 -4.9 -15.35 -4.9 L-14.3 -4.6 -13.7 -4.15 -12.65 -4.3 Q-14.6 -3.4 -14.6 -1.15 L-14.35 0.1 -13.95 0.7 Q-13.45 1.3 -12.6 1.3 -11.0 1.3 -10.0 0.05 L-9.5 -0.65 Q-9.2 -1.3 -9.2 -1.9 -9.2 -5.2 -11.7 -4.65 L-10.55 -5.55 -9.7 -6.1 -9.25 -6.2 -7.7 -6.15 -6.95 -6.05 M0.65 -3.65 Q0.65 -4.85 -0.4 -4.75 -1.45 -4.7 -1.45 -3.25 L-1.35 -2.45 -0.6 -2.4 Q-0.35 -2.4 0.05 -2.65 0.65 -3.0 0.65 -3.65 M3.2 -10.15 L3.7 -9.4 Q4.3 -8.65 4.65 -8.65 4.85 -8.65 5.55 -9.15 6.4 -9.7 6.4 -10.15 6.4 -11.4 4.8 -11.65 3.2 -11.85 3.2 -10.15 M-39.55 -4.5 Q-39.5 -3.45 -39.05 -2.8 -38.25 -1.75 -35.6 -0.65 -34.95 -0.35 -34.45 0.65 L-33.7 2.1 -33.3 2.65 -32.55 7.05 -32.95 7.35 Q-34.2 7.35 -34.9 6.8 L-35.25 6.55 -35.95 6.05 -37.7 6.05 -38.45 6.35 -39.1 6.85 -40.2 6.85 -40.95 5.7 Q-41.6 4.8 -43.35 4.8 L-46.8 5.35 Q-47.4 5.35 -47.95 4.2 -48.65 2.9 -49.2 2.6 L-50.4 2.15 -51.7 1.65 Q-53.0 1.15 -53.6 0.05 L-53.7 -0.05 Q-54.65 -1.8 -56.2 -2.8 L-57.15 -3.3 Q-58.85 -4.05 -58.85 -5.8 L-58.8 -6.2 -58.5 -8.0 Q-58.35 -9.3 -58.95 -10.3 L-60.6 -12.85 Q-61.35 -14.0 -61.35 -14.95 L-61.35 -15.15 -61.05 -17.6 -60.85 -18.95 Q-60.85 -20.2 -61.25 -21.15 L-61.6 -21.85 -62.15 -23.1 -62.3 -24.0 -62.35 -24.3 Q-62.35 -25.65 -61.05 -26.7 -59.4 -28.1 -58.85 -29.4 -58.45 -30.3 -58.3 -32.15 -57.85 -33.8 -55.45 -34.9 -54.15 -35.5 -53.35 -37.25 L-52.05 -39.9 Q-51.15 -40.9 -48.95 -41.0 -46.6 -41.15 -45.7 -41.95 L-44.25 -43.45 Q-43.05 -44.4 -41.7 -44.4 L-40.45 -43.8 Q-39.3 -43.2 -38.45 -43.2 -37.45 -43.2 -35.45 -44.4 -33.55 -45.15 -31.85 -43.4 -31.05 -42.6 -28.85 -42.45 L-26.8 -42.3 Q-27.75 -41.85 -29.05 -41.65 L-30.25 -41.4 -32.1 -41.65 Q-33.95 -41.65 -35.15 -40.8 L-36.45 -39.95 Q-36.75 -39.95 -37.7 -40.7 L-38.95 -41.65 Q-42.75 -41.6 -43.8 -40.65 -44.35 -39.55 -44.95 -39.2 L-46.1 -39.2 Q-48.85 -40.75 -51.5 -37.5 L-55.8 -31.15 Q-56.55 -30.2 -56.3 -28.8 -56.1 -27.35 -56.55 -26.65 L-56.8 -24.05 -57.05 -22.35 -57.05 -22.6 -57.6 -23.1 Q-58.25 -23.4 -58.6 -22.9 L-58.45 -22.6 -58.05 -22.0 -57.45 -21.4 -57.05 -21.45 -57.0 -21.1 -56.6 -19.55 -56.35 -19.1 Q-55.5 -17.4 -53.7 -17.3 L-53.6 -16.4 -53.8 -14.45 Q-54.2 -16.0 -56.0 -15.55 -58.3 -14.9 -58.3 -13.15 L-58.2 -12.15 Q-57.75 -11.3 -56.1 -11.3 -54.85 -11.3 -54.2 -12.05 -53.7 -12.65 -53.7 -13.4 -53.35 -12.25 -51.95 -11.45 L-51.0 -11.05 -49.55 -10.3 -48.6 -9.25 Q-48.0 -8.4 -47.6 -7.05 -47.1 -5.3 -45.7 -5.05 L-45.3 -5.05 -41.95 -5.4 -39.95 -4.65 -39.55 -4.5 M-49.5 -3.95 L-49.45 -5.4 Q-49.45 -7.7 -51.2 -7.4 -52.45 -7.2 -52.8 -6.25 L-52.95 -5.35 -52.85 -4.6 -52.7 -4.25 Q-52.2 -3.15 -50.95 -3.15 -49.8 -3.15 -49.5 -3.95 M-41.7 -3.15 L-41.7 -3.5 Q-41.85 -4.55 -42.7 -4.6 -43.7 -4.65 -43.7 -3.3 L-43.7 -3.25 -43.6 -2.45 -42.7 -2.4 Q-41.7 -2.4 -41.7 -3.15 M-29.0 -3.45 L-28.95 -4.9 Q-28.95 -7.2 -30.7 -6.9 -31.85 -6.7 -32.2 -5.9 L-32.3 -5.75 -32.45 -4.85 -32.35 -4.1 -32.25 -3.85 -32.2 -3.75 Q-31.7 -2.65 -30.45 -2.65 -29.3 -2.65 -29.0 -3.45 M-22.2 -1.9 Q-21.2 -1.9 -21.2 -2.65 L-21.2 -3.0 Q-21.35 -4.05 -22.2 -4.1 -23.2 -4.15 -23.2 -2.8 L-23.2 -2.75 -23.1 -1.95 -22.2 -1.9 M-4.85 -3.05 Q-4.35 -3.85 -4.35 -4.3 -4.35 -5.8 -5.9 -5.45 -7.45 -5.1 -7.45 -3.65 L-7.45 -2.9 Q-7.25 -2.15 -6.2 -2.15 -5.45 -2.15 -4.85 -3.05 M-20.85 2.05 L-20.8 2.35 -20.65 2.45 -20.1 2.55 -19.45 2.4 -19.45 2.35 -19.35 1.85 Q-19.35 1.45 -19.7 1.1 -20.15 0.65 -20.85 0.7 L-20.85 2.05 M-6.95 2.35 L-6.25 2.2 -6.1 1.85 -6.05 1.6 Q-6.15 1.25 -6.8 0.95 L-7.4 0.75 -7.85 0.7 -7.95 1.55 -7.9 2.0 Q-7.75 2.35 -6.95 2.35 M-39.85 1.35 Q-39.85 0.95 -40.2 0.6 -40.65 0.15 -41.35 0.2 L-41.35 1.55 -41.3 1.85 -41.15 1.95 -40.6 2.05 -39.95 1.9 -39.95 1.85 -39.85 1.35" fill="#989898" fill-rule="evenodd" stroke="none"/>
    <path d="M-10.1 7.55 L-10.55 8.0 -10.8 8.25 Q-11.7 9.35 -12.7 9.35 L-14.15 8.95 -14.6 8.7 -15.75 8.0 -15.9 7.9 -15.9 7.85 -15.95 7.85 -17.6 8.15 -17.9 8.6 -18.2 8.8 -19.3 8.8 -19.95 8.8 -20.3 8.65 -21.05 8.0 -21.75 7.1 Q-22.8 6.05 -26.7 6.85 -27.5 6.7 -28.05 5.6 -28.6 4.5 -29.1 4.35 L-31.0 3.75 -31.7 3.5 -31.35 5.6 -31.0 7.4 -29.5 12.35 -25.25 20.85 -23.95 23.6 Q-22.85 25.6 -21.4 26.9 -19.95 28.15 -17.0 28.05 L-13.5 28.0 -13.0 28.5 -13.75 29.15 -20.25 29.15 Q-26.5 24.5 -30.2 14.9 -31.4 11.8 -32.2 8.55 L-33.2 8.85 -35.1 8.2 -36.4 7.4 -36.4 7.35 -36.45 7.35 -38.1 7.65 -38.7 8.3 -40.45 8.3 -40.8 8.15 -41.55 7.5 -42.25 6.6 Q-43.3 5.55 -47.2 6.35 -48.0 6.2 -48.55 5.1 -49.1 4.0 -49.6 3.85 L-51.5 3.25 -52.7 2.8 Q-53.7 2.45 -54.2 1.6 L-54.95 0.15 Q-55.45 -0.85 -56.1 -1.15 -58.75 -2.25 -59.55 -3.3 -60.25 -4.25 -60.05 -6.15 L-60.05 -6.2 Q-59.8 -8.55 -59.95 -9.15 -60.0 -9.45 -60.6 -10.15 L-60.9 -10.5 -61.5 -11.2 -62.1 -12.15 Q-62.6 -13.35 -62.6 -14.8 L-62.25 -17.6 -62.1 -18.9 Q-62.1 -19.65 -62.85 -21.1 L-62.95 -21.3 Q-63.45 -22.4 -63.55 -23.55 L-63.6 -24.4 Q-63.5 -25.45 -62.5 -26.4 -60.95 -27.85 -60.1 -29.9 -59.75 -30.65 -59.6 -32.95 -59.2 -35.0 -57.45 -35.65 -55.3 -36.5 -54.55 -38.35 -53.75 -40.5 -52.7 -41.15 -51.75 -41.75 -49.55 -42.15 -47.45 -42.5 -46.2 -43.4 L-44.75 -44.8 Q-43.7 -45.7 -42.1 -45.7 -41.3 -45.7 -40.05 -45.15 L-38.4 -44.65 Q-37.75 -44.65 -36.15 -45.45 L-33.95 -46.45 Q-32.95 -46.4 -31.75 -45.35 L-30.2 -43.95 Q-26.65 -43.75 -25.45 -43.1 L-24.25 -44.3 Q-23.2 -45.2 -21.6 -45.2 L-19.55 -44.65 Q-18.3 -44.15 -17.9 -44.15 -17.25 -44.15 -15.65 -44.95 L-13.45 -45.95 Q-12.45 -45.9 -11.25 -44.85 L-10.1 -43.8 Q-1.5 -48.45 9.0 -48.4 L13.5 -48.5 Q21.15 -48.5 30.9 -45.35 44.65 -40.95 44.65 -33.3 44.65 -28.85 43.5 -27.4 L41.65 -26.2 41.3 -26.2 41.3 -26.05 41.25 -26.7 41.9 -28.55 Q42.5 -30.55 42.5 -33.0 42.5 -38.05 33.75 -42.35 24.75 -46.75 13.4 -46.75 3.3 -46.75 -5.8 -42.9 L-5.25 -42.7 -4.8 -42.5 Q-3.75 -41.85 -0.4 -41.4 L1.55 -41.15 Q2.5 -40.45 2.95 -39.4 3.35 -38.35 3.3 -36.9 3.3 -36.35 4.1 -35.5 L4.7 -34.95 Q6.25 -33.6 6.55 -32.9 L7.05 -31.0 7.65 -29.85 8.55 -28.9 8.7 -28.8 Q9.8 -28.0 9.7 -26.65 L9.4 -24.7 9.5 -23.9 9.85 -22.75 10.3 -21.8 Q11.0 -20.4 11.15 -19.05 L11.15 -18.5 11.1 -17.85 Q11.0 -17.05 10.55 -16.6 9.9 -15.9 9.9 -15.05 9.9 -14.25 10.3 -13.35 L10.65 -11.4 Q10.65 -9.55 9.5 -8.6 8.2 -7.55 7.9 -6.15 L7.9 -4.2 7.85 -3.5 7.8 -3.05 Q7.55 -1.75 6.45 -0.9 L4.7 -0.25 Q3.15 0.3 2.55 0.95 2.3 1.15 1.95 2.1 L1.3 3.6 Q0.85 4.3 -0.45 4.65 L-1.2 4.8 -3.15 5.05 -3.3 5.1 -4.0 6.25 Q-4.35 7.05 -5.45 7.55 L-8.05 7.35 -9.3 7.1 Q-9.65 7.1 -10.1 7.55 M-32.85 -36.75 Q-33.65 -35.0 -34.95 -34.4 L-35.25 -34.25 Q-37.3 -33.25 -37.75 -31.75 L-37.8 -31.65 Q-37.95 -29.8 -38.35 -28.9 -38.9 -27.6 -40.55 -26.2 -41.85 -25.15 -41.85 -23.8 L-41.8 -23.5 -41.65 -22.6 -41.1 -21.35 -40.75 -20.65 Q-40.35 -19.7 -40.35 -18.45 L-40.55 -17.1 -40.85 -14.65 -40.85 -14.45 Q-40.85 -13.5 -40.1 -12.35 L-39.55 -11.5 -38.45 -9.8 -38.3 -9.5 Q-37.85 -8.65 -38.0 -7.5 L-38.3 -5.7 -38.35 -5.3 Q-38.35 -4.55 -38.0 -3.95 -37.6 -3.2 -36.65 -2.8 L-35.7 -2.3 -35.1 -1.85 Q-34.25 -1.15 -33.55 -0.15 L-33.2 0.45 -33.1 0.55 -31.9 1.8 -31.2 2.15 -29.9 2.65 -28.7 3.1 Q-28.15 3.4 -27.45 4.7 -26.9 5.85 -26.3 5.85 L-22.85 5.3 Q-21.1 5.3 -20.45 6.2 L-19.7 7.35 -18.6 7.35 -17.95 6.85 -17.85 6.8 Q-17.45 6.55 -17.2 6.55 L-15.45 6.55 Q-15.3 6.6 -14.85 6.95 L-14.75 7.05 -14.4 7.3 Q-13.7 7.85 -12.45 7.85 L-10.8 6.0 Q-9.3 4.5 -7.95 6.1 L-5.85 6.1 Q-4.8 5.2 -4.2 4.05 L-4.15 4.05 Q-3.6 3.4 -1.75 3.35 L-1.3 3.35 Q0.3 3.35 1.05 1.55 L1.9 -0.65 4.55 -1.5 Q5.7 -2.0 6.15 -2.65 6.55 -3.2 6.4 -3.9 L6.4 -4.45 6.65 -7.9 Q7.5 -9.05 8.75 -9.9 9.4 -10.35 9.4 -11.3 L9.05 -13.35 8.65 -15.3 Q8.65 -16.0 9.3 -17.0 L9.55 -17.35 9.9 -18.65 9.9 -18.9 9.35 -20.55 8.55 -22.35 8.45 -22.55 Q8.3 -23.0 8.3 -23.6 L8.3 -24.8 8.4 -26.5 Q8.4 -26.95 7.9 -27.4 L7.2 -28.05 6.4 -28.9 6.15 -29.15 Q5.45 -29.95 5.5 -30.6 L5.7 -31.75 Q5.7 -32.55 4.1 -33.8 L3.05 -34.7 Q2.3 -35.45 2.2 -35.9 L1.95 -37.9 1.75 -38.8 1.2 -39.95 -2.3 -40.1 -4.7 -40.5 Q-5.15 -40.8 -5.55 -41.65 L-6.8 -41.8 -8.0 -41.9 -8.35 -41.95 Q-10.55 -42.1 -11.35 -42.9 L-11.5 -43.05 Q-13.15 -44.6 -14.95 -43.9 -16.95 -42.7 -17.95 -42.7 L-19.95 -43.3 Q-21.05 -43.9 -21.2 -43.9 -22.55 -43.9 -23.75 -42.95 L-24.15 -42.5 -25.2 -41.45 -25.45 -41.25 Q-26.4 -40.65 -28.45 -40.5 L-28.5 -40.5 Q-30.65 -40.4 -31.55 -39.4 L-31.75 -39.05 -32.85 -36.75 M-30.25 -41.4 L-29.05 -41.65 Q-27.75 -41.85 -26.8 -42.3 L-28.85 -42.45 Q-31.05 -42.6 -31.85 -43.4 -33.55 -45.15 -35.45 -44.4 -37.45 -43.2 -38.45 -43.2 -39.3 -43.2 -40.45 -43.8 L-41.7 -44.4 Q-43.05 -44.4 -44.25 -43.45 L-45.7 -41.95 Q-46.6 -41.15 -48.95 -41.0 -51.15 -40.9 -52.05 -39.9 L-53.35 -37.25 Q-54.15 -35.5 -55.45 -34.9 -57.85 -33.8 -58.3 -32.15 -58.45 -30.3 -58.85 -29.4 -59.4 -28.1 -61.05 -26.7 -62.35 -25.65 -62.35 -24.3 L-62.3 -24.0 -62.15 -23.1 -61.6 -21.85 -61.25 -21.15 Q-60.85 -20.2 -60.85 -18.95 L-61.05 -17.6 -61.35 -15.15 -61.35 -14.95 Q-61.35 -14.0 -60.6 -12.85 L-58.95 -10.3 Q-58.35 -9.3 -58.5 -8.0 L-58.8 -6.2 -58.85 -5.8 Q-58.85 -4.05 -57.15 -3.3 L-56.2 -2.8 Q-54.65 -1.8 -53.7 -0.05 L-53.6 0.05 Q-53.0 1.15 -51.7 1.65 L-50.4 2.15 -49.2 2.6 Q-48.65 2.9 -47.95 4.2 -47.4 5.35 -46.8 5.35 L-43.35 4.8 Q-41.6 4.8 -40.95 5.7 L-40.2 6.85 -39.1 6.85 -38.45 6.35 -37.7 6.05 -35.95 6.05 -35.25 6.55 -34.9 6.8 Q-34.2 7.35 -32.95 7.35 L-32.55 7.05 -33.3 2.65 -33.7 2.1 -34.45 0.65 Q-34.95 -0.35 -35.6 -0.65 -38.25 -1.75 -39.05 -2.8 -39.5 -3.45 -39.55 -4.5 L-39.55 -5.65 -39.55 -5.7 -39.4 -8.4 -39.45 -8.65 Q-39.5 -8.95 -40.1 -9.65 L-40.4 -10.0 -40.85 -10.55 -41.0 -10.7 -41.6 -11.65 Q-42.1 -12.85 -42.1 -14.3 L-41.75 -17.1 -41.6 -18.4 -41.6 -18.6 Q-41.7 -19.3 -42.25 -20.4 L-42.35 -20.6 -42.45 -20.8 Q-42.95 -21.9 -43.05 -23.05 L-43.05 -23.3 -43.1 -23.9 Q-43.0 -24.95 -42.0 -25.9 -40.45 -27.35 -39.6 -29.4 -39.25 -30.15 -39.1 -32.45 -38.7 -34.5 -36.95 -35.15 -35.4 -35.75 -34.55 -36.9 L-34.3 -37.35 -34.05 -37.85 -33.65 -38.75 Q-33.0 -40.15 -32.2 -40.65 L-30.25 -41.4" fill="#606060" fill-rule="evenodd" stroke="none"/>
  </g>
</svg>
