<?xml version="1.0" encoding="UTF-8" standalone="no"?>
<svg xmlns:ffdec="https://www.free-decompiler.com/flash" xmlns:xlink="http://www.w3.org/1999/xlink" ffdec:objectType="shape" height="324.65px" width="371.0px" xmlns="http://www.w3.org/2000/svg">
  <g transform="matrix(1.0, 0.0, 0.0, 1.0, 0.0, 0.0)">
    <path d="M1.8 317.85 Q0.0 316.65 0.0 313.65 L0.0 27.65 Q0.0 22.65 5.0 22.65 L355.0 22.65 Q357.4 22.65 358.7 23.85 359.9 24.1 360.7 24.85 361.75 25.05 362.5 25.65 L362.7 25.85 Q363.75 26.05 364.5 26.65 L364.7 26.85 Q365.9 27.1 366.7 27.85 368.35 28.2 369.2 29.45 370.0 30.65 370.0 32.65 L370.0 318.65 Q370.0 323.65 365.0 323.65 L364.25 323.65 Q369.0 323.5 369.0 318.65 L369.0 32.65 Q369.0 29.65 367.2 28.45 368.0 29.65 368.0 31.65 L368.0 317.65 Q368.0 322.65 363.0 322.65 L362.25 322.65 Q367.0 322.5 367.0 317.65 L367.0 31.65 Q367.0 28.65 365.2 27.45 366.0 28.65 366.0 30.65 L366.0 316.65 Q366.0 321.65 361.0 321.65 L360.25 321.65 Q365.0 321.5 365.0 316.65 L365.0 30.65 Q365.0 27.9 363.5 26.65 L363.2 26.45 363.35 26.65 Q364.0 27.8 364.0 29.65 L364.0 315.65 Q364.0 320.65 359.0 320.65 L358.25 320.65 Q363.0 320.5 363.0 315.65 L363.0 29.65 Q363.0 27.8 362.35 26.65 L361.5 25.65 361.2 25.45 361.35 25.65 361.75 26.65 362.0 28.65 362.0 314.65 Q362.0 319.65 357.0 319.65 L356.25 319.65 Q361.0 319.5 361.0 314.65 L361.0 28.65 360.75 26.65 360.35 25.65 359.2 24.45 359.75 25.65 359.95 26.65 360.0 27.65 360.0 313.65 Q360.0 318.65 355.0 318.65 L5.0 318.65 3.35 318.5 1.8 317.85 M310.9 31.2 L310.5 30.7 310.45 30.65 Q309.45 29.65 308.0 29.65 L303.5 29.65 Q302.05 29.65 301.0 30.65 300.0 31.7 300.0 33.15 300.0 34.6 301.0 35.6 L301.55 36.05 Q301.0 35.2 301.0 34.15 301.0 32.7 302.0 31.65 303.05 30.65 304.5 30.65 L305.4 30.65 Q304.0 30.7 303.0 31.65 302.0 32.7 302.0 34.15 302.0 35.6 303.0 36.6 L303.25 36.65 303.35 36.65 Q303.0 35.95 303.0 35.15 303.0 33.7 304.0 32.65 305.05 31.65 306.5 31.65 L307.4 31.65 Q306.0 31.7 305.0 32.65 304.0 33.7 304.0 35.15 304.0 35.95 304.35 36.65 L305.05 36.65 305.0 36.15 Q305.0 34.7 306.0 33.65 307.05 32.65 308.5 32.65 L309.4 32.65 Q308.0 32.7 307.0 33.65 306.0 34.7 306.0 36.15 L306.05 36.65 307.05 36.65 Q307.2 35.5 308.0 34.65 309.05 33.65 310.5 33.65 L311.4 33.65 Q310.0 33.7 309.0 34.65 308.2 35.5 308.05 36.65 L309.5 36.35 310.0 35.65 Q310.45 35.2 311.0 35.0 311.5 34.2 311.5 33.15 L311.5 32.95 311.5 32.65 311.45 32.5 311.45 32.35 311.1 31.5 310.9 31.2 M330.05 36.05 Q329.5 35.2 329.5 34.15 329.5 32.7 330.5 31.65 331.55 30.65 333.0 30.65 L333.9 30.65 Q332.5 30.7 331.5 31.65 330.5 32.7 330.5 34.15 330.5 35.6 331.5 36.6 L331.55 36.65 331.75 36.65 331.85 36.65 Q331.5 35.95 331.5 35.15 331.5 33.7 332.5 32.65 333.55 31.65 335.0 31.65 L335.9 31.65 Q334.5 31.7 333.5 32.65 332.5 33.7 332.5 35.15 332.5 35.95 332.85 36.65 L333.55 36.65 333.5 36.15 Q333.5 34.7 334.5 33.65 335.55 32.65 337.0 32.65 L337.9 32.65 Q336.5 32.7 335.5 33.65 334.5 34.7 334.5 36.15 L334.55 36.65 335.55 36.65 Q335.7 35.5 336.5 34.65 337.55 33.65 339.0 33.65 L339.9 33.65 Q338.5 33.7 337.5 34.65 336.7 35.5 336.55 36.65 L338.0 36.35 338.5 35.65 Q338.95 35.2 339.5 35.0 340.0 34.2 340.0 33.15 L340.0 32.8 340.0 32.75 339.65 31.55 339.4 31.2 339.0 30.7 338.95 30.65 Q337.95 29.65 336.5 29.65 L332.0 29.65 Q330.55 29.65 329.5 30.65 328.5 31.7 328.5 33.15 328.5 34.6 329.5 35.6 L330.05 36.05 M273.55 36.05 Q273.0 35.2 273.0 34.15 273.0 32.7 274.0 31.65 275.05 30.65 276.5 30.65 L277.4 30.65 Q276.0 30.7 275.0 31.65 274.0 32.7 274.0 34.15 274.0 35.6 275.0 36.6 L275.05 36.65 275.25 36.65 275.35 36.65 Q275.0 35.95 275.0 35.15 275.0 33.7 276.0 32.65 277.05 31.65 278.5 31.65 L279.4 31.65 Q278.0 31.7 277.0 32.65 276.0 33.7 276.0 35.15 276.0 35.95 276.35 36.65 L277.05 36.65 277.0 36.15 Q277.0 34.7 278.0 33.65 279.05 32.65 280.5 32.65 L281.4 32.65 Q280.0 32.7 279.0 33.65 278.0 34.7 278.0 36.15 L278.05 36.65 279.05 36.65 Q279.2 35.5 280.0 34.65 281.05 33.65 282.5 33.65 L283.4 33.65 Q282.0 33.7 281.0 34.65 280.2 35.5 280.05 36.65 L281.5 36.35 282.0 35.65 283.0 35.0 Q283.5 34.2 283.5 33.15 L283.5 32.8 283.5 32.75 283.15 31.55 282.9 31.2 282.5 30.7 282.45 30.65 Q281.45 29.65 280.0 29.65 L275.5 29.65 Q274.05 29.65 273.0 30.65 272.0 31.7 272.0 33.15 272.0 34.6 273.0 35.6 L273.55 36.05 M217.55 36.05 Q217.0 35.2 217.0 34.15 217.0 32.7 218.0 31.65 219.05 30.65 220.5 30.65 L221.4 30.65 Q220.0 30.7 219.0 31.65 218.0 32.7 218.0 34.15 218.0 35.6 219.0 36.6 L219.05 36.65 219.25 36.65 219.35 36.65 Q219.0 35.95 219.0 35.15 219.0 33.7 220.0 32.65 221.05 31.65 222.5 31.65 L223.4 31.65 Q222.0 31.7 221.0 32.65 220.0 33.7 220.0 35.15 220.0 35.95 220.35 36.65 L221.05 36.65 221.0 36.15 Q221.0 34.7 222.0 33.65 223.05 32.65 224.5 32.65 L225.4 32.65 Q224.0 32.7 223.0 33.65 222.0 34.7 222.0 36.15 L222.05 36.65 223.05 36.65 Q223.2 35.5 224.0 34.65 225.05 33.65 226.5 33.65 L227.4 33.65 Q226.0 33.7 225.0 34.65 224.2 35.5 224.05 36.65 L225.5 36.35 226.0 35.65 227.0 35.0 Q227.5 34.2 227.5 33.15 L227.5 32.95 227.5 32.65 227.45 32.5 227.4 32.3 227.2 31.75 226.9 31.2 226.5 30.7 226.45 30.65 Q225.45 29.65 224.0 29.65 L219.5 29.65 Q218.05 29.65 217.0 30.65 216.0 31.7 216.0 33.15 216.0 34.6 217.0 35.6 L217.55 36.05 M254.9 31.2 L254.5 30.7 254.45 30.65 Q253.45 29.65 252.0 29.65 L247.5 29.65 Q246.05 29.65 245.0 30.65 244.0 31.7 244.0 33.15 244.0 34.6 245.0 35.6 L245.55 36.05 Q245.0 35.2 245.0 34.15 245.0 32.7 246.0 31.65 247.05 30.65 248.5 30.65 L249.4 30.65 Q248.0 30.7 247.0 31.65 246.0 32.7 246.0 34.15 246.0 35.6 247.0 36.6 L247.05 36.65 247.25 36.65 247.35 36.65 Q247.0 35.95 247.0 35.15 247.0 33.7 248.0 32.65 249.05 31.65 250.5 31.65 L251.4 31.65 Q250.0 31.7 249.0 32.65 248.0 33.7 248.0 35.15 248.0 35.95 248.35 36.65 L249.05 36.65 249.0 36.15 Q249.0 34.7 250.0 33.65 251.05 32.65 252.5 32.65 L253.4 32.65 Q252.0 32.7 251.0 33.65 250.0 34.7 250.0 36.15 L250.05 36.65 251.05 36.65 Q251.2 35.5 252.0 34.65 253.05 33.65 254.5 33.65 L255.4 33.65 Q254.0 33.7 253.0 34.65 252.2 35.5 252.05 36.65 L253.5 36.35 254.0 35.65 Q254.45 35.2 255.0 35.0 255.5 34.2 255.5 33.15 L255.5 32.95 255.5 32.65 255.45 32.5 255.4 32.3 255.2 31.75 254.9 31.2 M161.55 36.05 Q161.0 35.2 161.0 34.15 161.0 32.7 162.0 31.65 163.05 30.65 164.5 30.65 L165.4 30.65 Q164.0 30.7 163.0 31.65 162.0 32.7 162.0 34.15 162.0 35.6 163.0 36.6 L163.25 36.65 163.35 36.65 Q163.0 35.95 163.0 35.15 163.0 33.7 164.0 32.65 165.05 31.65 166.5 31.65 L167.4 31.65 Q166.0 31.7 165.0 32.65 164.0 33.7 164.0 35.15 164.0 35.95 164.35 36.65 L165.05 36.65 165.0 36.15 Q165.0 34.7 166.0 33.65 167.05 32.65 168.5 32.65 L169.4 32.65 Q168.0 32.7 167.0 33.65 166.0 34.7 166.0 36.15 L166.05 36.65 167.05 36.65 Q167.2 35.5 168.0 34.65 169.05 33.65 170.5 33.65 L171.4 33.65 Q170.0 33.7 169.0 34.65 168.2 35.5 168.05 36.65 L169.5 36.35 170.0 35.65 171.0 35.0 Q171.5 34.2 171.5 33.15 L171.5 32.8 171.5 32.75 171.15 31.55 170.9 31.2 170.5 30.7 170.45 30.65 Q169.45 29.65 168.0 29.65 L163.5 29.65 Q162.05 29.65 161.0 30.65 160.0 31.7 160.0 33.15 160.0 34.6 161.0 35.6 L161.55 36.05 M189.55 36.05 Q189.0 35.2 189.0 34.15 189.0 32.7 190.0 31.65 191.05 30.65 192.5 30.65 L193.4 30.65 Q192.0 30.7 191.0 31.65 190.0 32.7 190.0 34.15 190.0 35.6 191.0 36.6 L191.05 36.65 191.25 36.65 191.35 36.65 Q191.0 35.95 191.0 35.15 191.0 33.7 192.0 32.65 193.05 31.65 194.5 31.65 L195.4 31.65 Q194.0 31.7 193.0 32.65 192.0 33.7 192.0 35.15 192.0 35.95 192.35 36.65 L193.05 36.65 193.0 36.15 Q193.0 34.7 194.0 33.65 195.05 32.65 196.5 32.65 L197.4 32.65 Q196.0 32.7 195.0 33.65 194.0 34.7 194.0 36.15 L194.05 36.65 195.05 36.65 Q195.2 35.5 196.0 34.65 197.05 33.65 198.5 33.65 L199.4 33.65 Q198.0 33.7 197.0 34.65 196.2 35.5 196.05 36.65 L197.5 36.35 198.0 35.65 Q198.45 35.2 199.0 35.0 199.5 34.2 199.5 33.15 L199.5 32.8 199.5 32.75 199.15 31.55 198.9 31.2 198.5 30.7 198.45 30.65 Q197.45 29.65 196.0 29.65 L191.5 29.65 Q190.05 29.65 189.0 30.65 188.0 31.7 188.0 33.15 188.0 34.6 189.0 35.6 L189.55 36.05 M105.55 36.05 Q105.0 35.2 105.0 34.15 105.0 32.7 106.0 31.65 107.05 30.65 108.5 30.65 L109.4 30.65 Q108.0 30.7 107.0 31.65 106.0 32.7 106.0 34.15 106.0 35.6 107.0 36.6 L107.05 36.65 107.25 36.65 107.35 36.65 Q107.0 35.95 107.0 35.15 107.0 33.7 108.0 32.65 109.05 31.65 110.5 31.65 L111.4 31.65 Q110.0 31.7 109.0 32.65 108.0 33.7 108.0 35.15 108.0 35.95 108.35 36.65 L109.05 36.65 109.0 36.15 Q109.0 34.7 110.0 33.65 111.05 32.65 112.5 32.65 L113.4 32.65 Q112.0 32.7 111.0 33.65 110.0 34.7 110.0 36.15 L110.05 36.65 111.05 36.65 Q111.2 35.5 112.0 34.65 113.05 33.65 114.5 33.65 L115.4 33.65 Q114.0 33.7 113.0 34.65 112.2 35.5 112.05 36.65 L113.5 36.35 114.0 35.65 115.0 35.0 Q115.5 34.2 115.5 33.15 L115.5 32.8 115.5 32.75 115.15 31.55 114.9 31.2 114.5 30.7 114.45 30.65 Q113.45 29.65 112.0 29.65 L107.5 29.65 Q106.05 29.65 105.0 30.65 104.0 31.7 104.0 33.15 104.0 34.6 105.0 35.6 L105.55 36.05 M86.9 31.2 L86.5 30.7 86.45 30.65 Q85.45 29.65 84.0 29.65 L79.5 29.65 Q78.05 29.65 77.0 30.65 76.0 31.7 76.0 33.15 76.0 34.6 77.0 35.6 L77.55 36.05 Q77.0 35.2 77.0 34.15 77.0 32.7 78.0 31.65 79.05 30.65 80.5 30.65 L81.4 30.65 Q80.0 30.7 79.0 31.65 78.0 32.7 78.0 34.15 78.0 35.6 79.0 36.6 L79.05 36.65 79.25 36.65 79.35 36.65 Q79.0 35.95 79.0 35.15 79.0 33.7 80.0 32.65 81.05 31.65 82.5 31.65 L83.4 31.65 Q82.0 31.7 81.0 32.65 80.0 33.7 80.0 35.15 80.0 35.95 80.35 36.65 L81.05 36.65 81.0 36.15 Q81.0 34.7 82.0 33.65 83.05 32.65 84.5 32.65 L85.4 32.65 Q84.0 32.7 83.0 33.65 82.0 34.7 82.0 36.15 L82.05 36.65 83.05 36.65 Q83.2 35.5 84.0 34.65 85.05 33.65 86.5 33.65 L87.4 33.65 Q86.0 33.7 85.0 34.65 84.2 35.5 84.05 36.65 L85.5 36.35 86.0 35.65 Q86.45 35.2 87.0 35.0 87.5 34.2 87.5 33.15 L87.5 32.95 87.5 32.65 87.45 32.5 87.4 32.3 87.2 31.75 86.9 31.2 M142.9 31.2 L142.5 30.7 142.45 30.65 Q141.45 29.65 140.0 29.65 L135.5 29.65 Q134.05 29.65 133.0 30.65 132.0 31.7 132.0 33.15 132.0 34.6 133.0 35.6 L133.55 36.05 Q133.0 35.2 133.0 34.15 133.0 32.7 134.0 31.65 135.05 30.65 136.5 30.65 L137.4 30.65 Q136.0 30.7 135.0 31.65 134.0 32.7 134.0 34.15 134.0 35.6 135.0 36.6 L135.05 36.65 135.25 36.65 135.35 36.65 Q135.0 35.95 135.0 35.15 135.0 33.7 136.0 32.65 137.05 31.65 138.5 31.65 L139.4 31.65 Q138.0 31.7 137.0 32.65 136.0 33.7 136.0 35.15 136.0 35.95 136.35 36.65 L137.05 36.65 137.0 36.15 Q137.0 34.7 138.0 33.65 139.05 32.65 140.5 32.65 L141.4 32.65 Q140.0 32.7 139.0 33.65 138.0 34.7 138.0 36.15 L138.05 36.65 139.05 36.65 Q139.2 35.5 140.0 34.65 141.05 33.65 142.5 33.65 L143.4 33.65 Q142.0 33.7 141.0 34.65 140.2 35.5 140.05 36.65 L141.5 36.35 142.0 35.65 Q142.45 35.2 143.0 35.0 143.5 34.2 143.5 33.15 L143.5 32.95 143.5 32.65 143.45 32.5 143.4 32.3 143.2 31.75 142.9 31.2 M49.55 36.05 Q49.0 35.2 49.0 34.15 49.0 32.7 50.0 31.65 51.05 30.65 52.5 30.65 L53.4 30.65 Q52.0 30.7 51.0 31.65 50.0 32.7 50.0 34.15 50.0 35.6 51.0 36.6 L51.25 36.65 51.35 36.65 Q51.0 35.95 51.0 35.15 51.0 33.7 52.0 32.65 53.05 31.65 54.5 31.65 L55.4 31.65 Q54.0 31.7 53.0 32.65 52.0 33.7 52.0 35.15 52.0 35.95 52.35 36.65 L53.05 36.65 53.0 36.15 Q53.0 34.7 54.0 33.65 55.05 32.65 56.5 32.65 L57.4 32.65 Q56.0 32.7 55.0 33.65 54.0 34.7 54.0 36.15 L54.05 36.65 55.05 36.65 Q55.2 35.5 56.0 34.65 57.05 33.65 58.5 33.65 L59.4 33.65 Q58.0 33.7 57.0 34.65 56.2 35.5 56.05 36.65 L57.5 36.35 58.0 35.65 Q58.45 35.2 59.0 35.0 59.5 34.2 59.5 33.15 L59.5 32.8 59.5 32.75 59.15 31.55 58.9 31.2 58.5 30.7 58.45 30.65 Q57.45 29.65 56.0 29.65 L51.5 29.65 Q50.05 29.65 49.0 30.65 48.0 31.7 48.0 33.15 48.0 34.6 49.0 35.6 L49.55 36.05 M30.9 31.2 L30.5 30.7 30.45 30.65 Q29.45 29.65 28.0 29.65 L23.5 29.65 Q22.05 29.65 21.0 30.65 20.0 31.7 20.0 33.15 20.0 34.6 21.0 35.6 L21.55 36.05 Q21.0 35.2 21.0 34.15 21.0 32.7 22.0 31.65 23.05 30.65 24.5 30.65 L25.4 30.65 Q24.0 30.7 23.0 31.65 22.0 32.7 22.0 34.15 22.0 35.6 23.0 36.6 L23.05 36.65 23.25 36.65 23.35 36.65 Q23.0 35.95 23.0 35.15 23.0 33.7 24.0 32.65 25.05 31.65 26.5 31.65 L27.4 31.65 Q26.0 31.7 25.0 32.65 24.0 33.7 24.0 35.15 24.0 35.95 24.35 36.65 L25.05 36.65 25.0 36.15 Q25.0 34.7 26.0 33.65 27.05 32.65 28.5 32.65 L29.4 32.65 Q28.0 32.7 27.0 33.65 26.0 34.7 26.0 36.15 L26.05 36.65 27.05 36.65 Q27.2 35.5 28.0 34.65 29.05 33.65 30.5 33.65 L31.4 33.65 Q30.0 33.7 29.0 34.65 28.2 35.5 28.05 36.65 L29.5 36.35 30.0 35.65 31.0 35.0 Q31.5 34.2 31.5 33.15 L31.5 32.95 31.5 32.65 31.45 32.5 31.4 32.3 31.2 31.75 30.9 31.2" fill="#ffffff" fill-rule="evenodd" stroke="none"/>
    <path d="M369.2 29.45 Q371.0 30.65 371.0 33.65 L371.0 319.65 Q371.0 324.65 366.0 324.65 L16.0 324.65 Q13.6 324.65 12.35 323.5 11.1 323.2 10.35 322.5 L10.0 322.4 Q9.0 322.1 8.35 321.5 7.1 321.2 6.35 320.5 5.1 320.2 4.35 319.5 2.65 319.1 1.8 317.85 L3.35 318.5 5.0 318.65 355.0 318.65 Q360.0 318.65 360.0 313.65 L360.0 27.65 359.95 26.65 359.75 25.65 359.2 24.45 360.35 25.65 360.75 26.65 361.0 28.65 361.0 314.65 Q361.0 319.5 356.25 319.65 L357.0 319.65 Q362.0 319.65 362.0 314.65 L362.0 28.65 361.75 26.65 361.35 25.65 361.2 25.45 361.5 25.65 362.35 26.65 Q363.0 27.8 363.0 29.65 L363.0 315.65 Q363.0 320.5 358.25 320.65 L359.0 320.65 Q364.0 320.65 364.0 315.65 L364.0 29.65 Q364.0 27.8 363.35 26.65 L363.2 26.45 363.5 26.65 Q365.0 27.9 365.0 30.65 L365.0 316.65 Q365.0 321.5 360.25 321.65 L361.0 321.65 Q366.0 321.65 366.0 316.65 L366.0 30.65 Q366.0 28.65 365.2 27.45 367.0 28.65 367.0 31.65 L367.0 317.65 Q367.0 322.5 362.25 322.65 L363.0 322.65 Q368.0 322.65 368.0 317.65 L368.0 31.65 Q368.0 29.65 367.2 28.45 369.0 29.65 369.0 32.65 L369.0 318.65 Q369.0 323.5 364.25 323.65 L365.0 323.65 Q370.0 323.65 370.0 318.65 L370.0 32.65 Q370.0 30.65 369.2 29.45 M330.05 36.05 L329.5 35.6 Q328.5 34.6 328.5 33.15 328.5 31.7 329.5 30.65 330.55 29.65 332.0 29.65 L336.5 29.65 Q337.95 29.65 338.95 30.65 L339.0 30.7 339.4 31.2 339.65 31.55 340.0 32.75 340.0 32.8 340.0 33.15 Q340.0 34.2 339.5 35.0 338.95 35.2 338.5 35.65 L338.0 36.35 336.55 36.65 Q336.7 35.5 337.5 34.65 338.5 33.7 339.9 33.65 L339.0 33.65 Q337.55 33.65 336.5 34.65 335.7 35.5 335.55 36.65 L334.55 36.65 334.5 36.15 Q334.5 34.7 335.5 33.65 336.5 32.7 337.9 32.65 L337.0 32.65 Q335.55 32.65 334.5 33.65 333.5 34.7 333.5 36.15 L333.55 36.65 332.85 36.65 Q332.5 35.95 332.5 35.15 332.5 33.7 333.5 32.65 334.5 31.7 335.9 31.65 L335.0 31.65 Q333.55 31.65 332.5 32.65 331.5 33.7 331.5 35.15 331.5 35.95 331.85 36.65 L331.75 36.65 331.55 36.65 331.5 36.6 Q330.5 35.6 330.5 34.15 330.5 32.7 331.5 31.65 332.5 30.7 333.9 30.65 L333.0 30.65 Q331.55 30.65 330.5 31.65 329.5 32.7 329.5 34.15 329.5 35.2 330.05 36.05 M310.9 31.2 L311.1 31.5 311.45 32.35 311.45 32.5 311.5 32.65 311.5 32.95 311.5 33.15 Q311.5 34.2 311.0 35.0 310.45 35.2 310.0 35.65 L309.5 36.35 308.05 36.65 Q308.2 35.5 309.0 34.65 310.0 33.7 311.4 33.65 L310.5 33.65 Q309.05 33.65 308.0 34.65 307.2 35.5 307.05 36.65 L306.05 36.65 306.0 36.15 Q306.0 34.7 307.0 33.65 308.0 32.7 309.4 32.65 L308.5 32.65 Q307.05 32.65 306.0 33.65 305.0 34.7 305.0 36.15 L305.05 36.65 304.35 36.65 Q304.0 35.95 304.0 35.15 304.0 33.7 305.0 32.65 306.0 31.7 307.4 31.65 L306.5 31.65 Q305.05 31.65 304.0 32.65 303.0 33.7 303.0 35.15 303.0 35.95 303.35 36.65 L303.25 36.65 303.0 36.6 Q302.0 35.6 302.0 34.15 302.0 32.7 303.0 31.65 304.0 30.7 305.4 30.65 L304.5 30.65 Q303.05 30.65 302.0 31.65 301.0 32.7 301.0 34.15 301.0 35.2 301.55 36.05 L301.0 35.6 Q300.0 34.6 300.0 33.15 300.0 31.7 301.0 30.65 302.05 29.65 303.5 29.65 L308.0 29.65 Q309.45 29.65 310.45 30.65 L310.5 30.7 310.9 31.2 M273.55 36.05 L273.0 35.6 Q272.0 34.6 272.0 33.15 272.0 31.7 273.0 30.65 274.05 29.65 275.5 29.65 L280.0 29.65 Q281.45 29.65 282.45 30.65 L282.5 30.7 282.9 31.2 283.15 31.55 283.5 32.75 283.5 32.8 283.5 33.15 Q283.5 34.2 283.0 35.0 L282.0 35.65 281.5 36.35 280.05 36.65 Q280.2 35.5 281.0 34.65 282.0 33.7 283.4 33.65 L282.5 33.65 Q281.05 33.65 280.0 34.65 279.2 35.5 279.05 36.65 L278.05 36.65 278.0 36.15 Q278.0 34.7 279.0 33.65 280.0 32.7 281.4 32.65 L280.5 32.65 Q279.05 32.65 278.0 33.65 277.0 34.7 277.0 36.15 L277.05 36.65 276.35 36.65 Q276.0 35.95 276.0 35.15 276.0 33.7 277.0 32.65 278.0 31.7 279.4 31.65 L278.5 31.65 Q277.05 31.65 276.0 32.65 275.0 33.7 275.0 35.15 275.0 35.95 275.35 36.65 L275.25 36.65 275.05 36.65 275.0 36.6 Q274.0 35.6 274.0 34.15 274.0 32.7 275.0 31.65 276.0 30.7 277.4 30.65 L276.5 30.65 Q275.05 30.65 274.0 31.65 273.0 32.7 273.0 34.15 273.0 35.2 273.55 36.05 M254.9 31.2 L255.2 31.75 255.4 32.3 255.45 32.5 255.5 32.65 255.5 32.95 255.5 33.15 Q255.5 34.2 255.0 35.0 254.45 35.2 254.0 35.65 L253.5 36.35 252.05 36.65 Q252.2 35.5 253.0 34.65 254.0 33.7 255.4 33.65 L254.5 33.65 Q253.05 33.65 252.0 34.65 251.2 35.5 251.05 36.65 L250.05 36.65 250.0 36.15 Q250.0 34.7 251.0 33.65 252.0 32.7 253.4 32.65 L252.5 32.65 Q251.05 32.65 250.0 33.65 249.0 34.7 249.0 36.15 L249.05 36.65 248.35 36.65 Q248.0 35.95 248.0 35.15 248.0 33.7 249.0 32.65 250.0 31.7 251.4 31.65 L250.5 31.65 Q249.05 31.65 248.0 32.65 247.0 33.7 247.0 35.15 247.0 35.95 247.35 36.65 L247.25 36.65 247.05 36.65 247.0 36.6 Q246.0 35.6 246.0 34.15 246.0 32.7 247.0 31.65 248.0 30.7 249.4 30.65 L248.5 30.65 Q247.05 30.65 246.0 31.65 245.0 32.7 245.0 34.15 245.0 35.2 245.55 36.05 L245.0 35.6 Q244.0 34.6 244.0 33.15 244.0 31.7 245.0 30.65 246.05 29.65 247.5 29.65 L252.0 29.65 Q253.45 29.65 254.45 30.65 L254.5 30.7 254.9 31.2 M217.55 36.05 L217.0 35.6 Q216.0 34.6 216.0 33.15 216.0 31.7 217.0 30.65 218.05 29.65 219.5 29.65 L224.0 29.65 Q225.45 29.65 226.45 30.65 L226.5 30.7 226.9 31.2 227.2 31.75 227.4 32.3 227.45 32.5 227.5 32.65 227.5 32.95 227.5 33.15 Q227.5 34.2 227.0 35.0 L226.0 35.65 225.5 36.35 224.05 36.65 Q224.2 35.5 225.0 34.65 226.0 33.7 227.4 33.65 L226.5 33.65 Q225.05 33.65 224.0 34.65 223.2 35.5 223.05 36.65 L222.05 36.65 222.0 36.15 Q222.0 34.7 223.0 33.65 224.0 32.7 225.4 32.65 L224.5 32.65 Q223.05 32.65 222.0 33.65 221.0 34.7 221.0 36.15 L221.05 36.65 220.35 36.65 Q220.0 35.95 220.0 35.15 220.0 33.7 221.0 32.65 222.0 31.7 223.4 31.65 L222.5 31.65 Q221.05 31.65 220.0 32.65 219.0 33.7 219.0 35.15 219.0 35.95 219.35 36.65 L219.25 36.65 219.05 36.65 219.0 36.6 Q218.0 35.6 218.0 34.15 218.0 32.7 219.0 31.65 220.0 30.7 221.4 30.65 L220.5 30.65 Q219.05 30.65 218.0 31.65 217.0 32.7 217.0 34.15 217.0 35.2 217.55 36.05 M189.55 36.05 L189.0 35.6 Q188.0 34.6 188.0 33.15 188.0 31.7 189.0 30.65 190.05 29.65 191.5 29.65 L196.0 29.65 Q197.45 29.65 198.45 30.65 L198.5 30.7 198.9 31.2 199.15 31.55 199.5 32.75 199.5 32.8 199.5 33.15 Q199.5 34.2 199.0 35.0 198.45 35.2 198.0 35.65 L197.5 36.35 196.05 36.65 Q196.2 35.5 197.0 34.65 198.0 33.7 199.4 33.65 L198.5 33.65 Q197.05 33.65 196.0 34.65 195.2 35.5 195.05 36.65 L194.05 36.65 194.0 36.15 Q194.0 34.7 195.0 33.65 196.0 32.7 197.4 32.65 L196.5 32.65 Q195.05 32.65 194.0 33.65 193.0 34.7 193.0 36.15 L193.05 36.65 192.35 36.65 Q192.0 35.95 192.0 35.15 192.0 33.7 193.0 32.65 194.0 31.7 195.4 31.65 L194.5 31.65 Q193.05 31.65 192.0 32.65 191.0 33.7 191.0 35.15 191.0 35.95 191.35 36.65 L191.25 36.65 191.05 36.65 191.0 36.6 Q190.0 35.6 190.0 34.15 190.0 32.7 191.0 31.65 192.0 30.7 193.4 30.65 L192.5 30.65 Q191.05 30.65 190.0 31.65 189.0 32.7 189.0 34.15 189.0 35.2 189.55 36.05 M161.55 36.05 L161.0 35.6 Q160.0 34.6 160.0 33.15 160.0 31.7 161.0 30.65 162.05 29.65 163.5 29.65 L168.0 29.65 Q169.45 29.65 170.45 30.65 L170.5 30.7 170.9 31.2 171.15 31.55 171.5 32.75 171.5 32.8 171.5 33.15 Q171.5 34.2 171.0 35.0 L170.0 35.65 169.5 36.35 168.05 36.65 Q168.2 35.5 169.0 34.65 170.0 33.7 171.4 33.65 L170.5 33.65 Q169.05 33.65 168.0 34.65 167.2 35.5 167.05 36.65 L166.05 36.65 166.0 36.15 Q166.0 34.7 167.0 33.65 168.0 32.7 169.4 32.65 L168.5 32.65 Q167.05 32.65 166.0 33.65 165.0 34.7 165.0 36.15 L165.05 36.65 164.35 36.65 Q164.0 35.95 164.0 35.15 164.0 33.7 165.0 32.65 166.0 31.7 167.4 31.65 L166.5 31.65 Q165.05 31.65 164.0 32.65 163.0 33.7 163.0 35.15 163.0 35.95 163.35 36.65 L163.25 36.65 163.0 36.6 Q162.0 35.6 162.0 34.15 162.0 32.7 163.0 31.65 164.0 30.7 165.4 30.65 L164.5 30.65 Q163.05 30.65 162.0 31.65 161.0 32.7 161.0 34.15 161.0 35.2 161.55 36.05 M142.9 31.2 L143.2 31.75 143.4 32.3 143.45 32.5 143.5 32.65 143.5 32.95 143.5 33.15 Q143.5 34.2 143.0 35.0 142.45 35.2 142.0 35.65 L141.5 36.35 140.05 36.65 Q140.2 35.5 141.0 34.65 142.0 33.7 143.4 33.65 L142.5 33.65 Q141.05 33.65 140.0 34.65 139.2 35.5 139.05 36.65 L138.05 36.65 138.0 36.15 Q138.0 34.7 139.0 33.65 140.0 32.7 141.4 32.65 L140.5 32.65 Q139.05 32.65 138.0 33.65 137.0 34.7 137.0 36.15 L137.05 36.65 136.35 36.65 Q136.0 35.95 136.0 35.15 136.0 33.7 137.0 32.65 138.0 31.7 139.4 31.65 L138.5 31.65 Q137.05 31.65 136.0 32.65 135.0 33.7 135.0 35.15 135.0 35.95 135.35 36.65 L135.25 36.65 135.05 36.65 135.0 36.6 Q134.0 35.6 134.0 34.15 134.0 32.7 135.0 31.65 136.0 30.7 137.4 30.65 L136.5 30.65 Q135.05 30.65 134.0 31.65 133.0 32.7 133.0 34.15 133.0 35.2 133.55 36.05 L133.0 35.6 Q132.0 34.6 132.0 33.15 132.0 31.7 133.0 30.65 134.05 29.65 135.5 29.65 L140.0 29.65 Q141.45 29.65 142.45 30.65 L142.5 30.7 142.9 31.2 M86.9 31.2 L87.2 31.75 87.4 32.3 87.45 32.5 87.5 32.65 87.5 32.95 87.5 33.15 Q87.5 34.2 87.0 35.0 86.45 35.2 86.0 35.65 L85.5 36.35 84.05 36.65 Q84.2 35.5 85.0 34.65 86.0 33.7 87.4 33.65 L86.5 33.65 Q85.05 33.65 84.0 34.65 83.2 35.5 83.05 36.65 L82.05 36.65 82.0 36.15 Q82.0 34.7 83.0 33.65 84.0 32.7 85.4 32.65 L84.5 32.65 Q83.05 32.65 82.0 33.65 81.0 34.7 81.0 36.15 L81.05 36.65 80.35 36.65 Q80.0 35.95 80.0 35.15 80.0 33.7 81.0 32.65 82.0 31.7 83.4 31.65 L82.5 31.65 Q81.05 31.65 80.0 32.65 79.0 33.7 79.0 35.15 79.0 35.95 79.35 36.65 L79.25 36.65 79.05 36.65 79.0 36.6 Q78.0 35.6 78.0 34.15 78.0 32.7 79.0 31.65 80.0 30.7 81.4 30.65 L80.5 30.65 Q79.05 30.65 78.0 31.65 77.0 32.7 77.0 34.15 77.0 35.2 77.55 36.05 L77.0 35.6 Q76.0 34.6 76.0 33.15 76.0 31.7 77.0 30.65 78.05 29.65 79.5 29.65 L84.0 29.65 Q85.45 29.65 86.45 30.65 L86.5 30.7 86.9 31.2 M105.55 36.05 L105.0 35.6 Q104.0 34.6 104.0 33.15 104.0 31.7 105.0 30.65 106.05 29.65 107.5 29.65 L112.0 29.65 Q113.45 29.65 114.45 30.65 L114.5 30.7 114.9 31.2 115.15 31.55 115.5 32.75 115.5 32.8 115.5 33.15 Q115.5 34.2 115.0 35.0 L114.0 35.65 113.5 36.35 112.05 36.65 Q112.2 35.5 113.0 34.65 114.0 33.7 115.4 33.65 L114.5 33.65 Q113.05 33.65 112.0 34.65 111.2 35.5 111.05 36.65 L110.05 36.65 110.0 36.15 Q110.0 34.7 111.0 33.65 112.0 32.7 113.4 32.65 L112.5 32.65 Q111.05 32.65 110.0 33.65 109.0 34.7 109.0 36.15 L109.05 36.65 108.35 36.65 Q108.0 35.95 108.0 35.15 108.0 33.7 109.0 32.65 110.0 31.7 111.4 31.65 L110.5 31.65 Q109.05 31.65 108.0 32.65 107.0 33.7 107.0 35.15 107.0 35.95 107.35 36.65 L107.25 36.65 107.05 36.65 107.0 36.6 Q106.0 35.6 106.0 34.15 106.0 32.7 107.0 31.65 108.0 30.7 109.4 30.65 L108.5 30.65 Q107.05 30.65 106.0 31.65 105.0 32.7 105.0 34.15 105.0 35.2 105.55 36.05 M49.55 36.05 L49.0 35.6 Q48.0 34.6 48.0 33.15 48.0 31.7 49.0 30.65 50.05 29.65 51.5 29.65 L56.0 29.65 Q57.45 29.65 58.45 30.65 L58.5 30.7 58.9 31.2 59.15 31.55 59.5 32.75 59.5 32.8 59.5 33.15 Q59.5 34.2 59.0 35.0 58.45 35.2 58.0 35.65 L57.5 36.35 56.05 36.65 Q56.2 35.5 57.0 34.65 58.0 33.7 59.4 33.65 L58.5 33.65 Q57.05 33.65 56.0 34.65 55.2 35.5 55.05 36.65 L54.05 36.65 54.0 36.15 Q54.0 34.7 55.0 33.65 56.0 32.7 57.4 32.65 L56.5 32.65 Q55.05 32.65 54.0 33.65 53.0 34.7 53.0 36.15 L53.05 36.65 52.35 36.65 Q52.0 35.95 52.0 35.15 52.0 33.7 53.0 32.65 54.0 31.7 55.4 31.65 L54.5 31.65 Q53.05 31.65 52.0 32.65 51.0 33.7 51.0 35.15 51.0 35.95 51.35 36.65 L51.25 36.65 51.0 36.6 Q50.0 35.6 50.0 34.15 50.0 32.7 51.0 31.65 52.0 30.7 53.4 30.65 L52.5 30.65 Q51.05 30.65 50.0 31.65 49.0 32.7 49.0 34.15 49.0 35.2 49.55 36.05 M30.9 31.2 L31.2 31.75 31.4 32.3 31.45 32.5 31.5 32.65 31.5 32.95 31.5 33.15 Q31.5 34.2 31.0 35.0 L30.0 35.65 29.5 36.35 28.05 36.65 Q28.2 35.5 29.0 34.65 30.0 33.7 31.4 33.65 L30.5 33.65 Q29.05 33.65 28.0 34.65 27.2 35.5 27.05 36.65 L26.05 36.65 26.0 36.15 Q26.0 34.7 27.0 33.65 28.0 32.7 29.4 32.65 L28.5 32.65 Q27.05 32.65 26.0 33.65 25.0 34.7 25.0 36.15 L25.05 36.65 24.35 36.65 Q24.0 35.95 24.0 35.15 24.0 33.7 25.0 32.65 26.0 31.7 27.4 31.65 L26.5 31.65 Q25.05 31.65 24.0 32.65 23.0 33.7 23.0 35.15 23.0 35.95 23.35 36.65 L23.25 36.65 23.05 36.65 23.0 36.6 Q22.0 35.6 22.0 34.15 22.0 32.7 23.0 31.65 24.0 30.7 25.4 30.65 L24.5 30.65 Q23.05 30.65 22.0 31.65 21.0 32.7 21.0 34.15 21.0 35.2 21.55 36.05 L21.0 35.6 Q20.0 34.6 20.0 33.15 20.0 31.7 21.0 30.65 22.05 29.65 23.5 29.65 L28.0 29.65 Q29.45 29.65 30.45 30.65 L30.5 30.7 30.9 31.2" fill="#9e9ea1" fill-rule="evenodd" stroke="none"/>
    <path d="M329.75 8.25 L330.45 6.75 330.4 6.75 Q333.15 1.4 337.1 1.5 337.55 1.5 339.3 2.45 341.0 3.4 342.4 4.95 343.8 6.5 344.6 10.85 L345.15 13.4 Q344.45 11.0 343.4 8.9 342.35 6.75 339.85 5.2 337.3 3.65 335.8 3.65 334.25 3.6 332.2 7.65 L332.2 7.7 331.6 9.0 331.55 8.35 331.0 7.85 Q330.6 7.65 330.2 7.85 L329.75 8.25 M330.0 21.2 Q330.4 26.0 332.2 29.6 334.25 33.7 337.1 33.8 337.5 33.8 337.8 34.1 L338.1 34.8 337.8 35.5 337.1 35.8 Q333.15 35.9 330.4 30.5 328.4 26.6 328.0 21.35 L328.35 22.0 Q328.65 22.3 329.1 22.25 L329.75 21.9 330.0 21.2 M300.75 8.25 L301.45 6.75 301.4 6.75 Q304.15 1.4 308.1 1.5 308.55 1.5 310.3 2.45 312.0 3.4 313.4 4.95 314.8 6.5 315.6 10.85 L316.15 13.4 Q315.45 11.0 314.4 8.9 313.35 6.75 310.85 5.2 308.3 3.65 306.8 3.65 305.25 3.6 303.2 7.65 L303.2 7.7 Q302.85 8.3 302.6 9.0 L302.55 8.35 302.0 7.85 Q301.6 7.65 301.2 7.85 L300.75 8.25 M301.0 21.2 Q301.4 26.0 303.2 29.6 305.25 33.7 308.1 33.8 308.5 33.8 308.8 34.1 L309.1 34.8 308.8 35.5 308.1 35.8 Q304.15 35.9 301.4 30.5 299.4 26.6 299.0 21.35 L299.35 22.0 Q299.65 22.3 300.1 22.25 L300.75 21.9 301.0 21.2 M272.75 8.25 L273.45 6.75 273.4 6.75 Q276.15 1.4 280.1 1.5 280.55 1.5 282.3 2.45 284.0 3.4 285.4 4.95 286.8 6.5 287.6 10.85 L288.15 13.4 Q287.45 11.0 286.4 8.9 285.35 6.75 282.85 5.2 280.3 3.65 278.8 3.65 277.25 3.6 275.2 7.65 L275.2 7.7 274.6 9.0 274.55 8.35 274.0 7.85 Q273.6 7.65 273.2 7.85 L272.75 8.25 M273.0 21.2 Q273.4 26.0 275.2 29.6 277.25 33.7 280.1 33.8 280.5 33.8 280.8 34.1 L281.1 34.8 280.8 35.5 280.1 35.8 Q276.15 35.9 273.4 30.5 271.4 26.6 271.0 21.35 271.05 21.75 271.35 22.0 271.65 22.3 272.1 22.25 L272.75 21.9 273.0 21.2 M244.75 8.25 L245.45 6.75 245.4 6.75 Q248.15 1.4 252.1 1.5 252.55 1.5 254.3 2.45 256.0 3.4 257.4 4.95 258.8 6.5 259.6 10.85 L260.15 13.4 Q259.45 11.0 258.4 8.9 257.35 6.75 254.85 5.2 252.3 3.65 250.8 3.65 249.25 3.6 247.2 7.65 L247.2 7.7 246.6 9.0 246.55 8.35 246.0 7.85 Q245.6 7.65 245.2 7.85 L244.75 8.25 M245.0 21.2 Q245.4 26.0 247.2 29.6 249.25 33.7 252.1 33.8 252.5 33.8 252.8 34.1 L253.1 34.8 252.8 35.5 252.1 35.8 Q248.15 35.9 245.4 30.5 243.4 26.6 243.0 21.35 L243.35 22.0 Q243.65 22.3 244.1 22.25 L244.75 21.9 245.0 21.2 M217.75 8.25 L218.45 6.75 218.4 6.75 Q221.15 1.4 225.1 1.5 225.55 1.5 227.3 2.45 229.0 3.4 230.4 4.95 231.8 6.5 232.6 10.85 L233.15 13.4 Q232.45 11.0 231.4 8.9 230.35 6.75 227.85 5.2 225.3 3.65 223.8 3.65 222.25 3.6 220.2 7.65 L220.2 7.7 219.6 9.0 219.55 8.35 219.0 7.85 Q218.6 7.65 218.2 7.85 L217.75 8.25 M218.0 21.2 Q218.4 26.0 220.2 29.6 222.25 33.7 225.1 33.8 225.5 33.8 225.8 34.1 L226.1 34.8 225.8 35.5 Q225.5 35.8 225.1 35.8 221.15 35.9 218.4 30.5 216.4 26.6 216.0 21.35 L216.35 22.0 Q216.65 22.3 217.1 22.25 L217.75 21.9 218.0 21.2 M189.75 8.25 L190.45 6.75 190.4 6.75 Q193.15 1.4 197.1 1.5 197.55 1.5 199.3 2.45 201.0 3.4 202.4 4.95 203.8 6.5 204.6 10.85 L205.15 13.4 Q204.45 11.0 203.4 8.9 202.35 6.75 199.85 5.2 197.3 3.65 195.8 3.65 194.25 3.6 192.2 7.65 L192.2 7.7 191.6 9.0 191.55 8.35 191.0 7.85 Q190.6 7.65 190.2 7.85 L189.75 8.25 M190.0 21.2 Q190.4 26.0 192.2 29.6 194.25 33.7 197.1 33.8 197.5 33.8 197.8 34.1 L198.1 34.8 197.8 35.5 Q197.5 35.8 197.1 35.8 193.15 35.9 190.4 30.5 188.4 26.6 188.0 21.35 188.05 21.75 188.35 22.0 188.65 22.3 189.1 22.25 L189.75 21.9 190.0 21.2 M160.75 8.25 L161.45 6.75 161.4 6.75 Q164.15 1.4 168.1 1.5 168.55 1.5 170.3 2.45 172.0 3.4 173.4 4.95 174.8 6.5 175.6 10.85 L176.15 13.4 Q175.45 11.0 174.4 8.9 173.35 6.75 170.85 5.2 168.3 3.65 166.8 3.65 165.25 3.6 163.2 7.65 L163.2 7.7 162.6 9.0 162.55 8.35 162.0 7.85 Q161.6 7.65 161.2 7.85 L160.75 8.25 M161.0 21.2 Q161.4 26.0 163.2 29.6 165.25 33.7 168.1 33.8 168.5 33.8 168.8 34.1 L169.1 34.8 168.8 35.5 168.1 35.8 Q164.15 35.9 161.4 30.5 159.4 26.6 159.0 21.35 L159.35 22.0 Q159.65 22.3 160.1 22.25 L160.75 21.9 161.0 21.2 M131.75 8.25 L132.45 6.75 132.4 6.75 Q135.15 1.4 139.1 1.5 139.55 1.5 141.3 2.45 143.0 3.4 144.4 4.95 145.8 6.5 146.6 10.85 L147.15 13.4 Q146.45 11.0 145.4 8.9 144.35 6.75 141.85 5.2 139.3 3.65 137.8 3.65 136.25 3.6 134.2 7.65 L134.2 7.7 133.6 9.0 133.55 8.35 133.0 7.85 Q132.6 7.65 132.2 7.85 L131.75 8.25 M132.0 21.2 Q132.4 26.0 134.2 29.6 136.25 33.7 139.1 33.8 139.5 33.8 139.8 34.1 L140.1 34.8 139.8 35.5 139.1 35.8 Q135.15 35.9 132.4 30.5 130.4 26.6 130.0 21.35 130.05 21.75 130.35 22.0 130.65 22.3 131.1 22.25 L131.75 21.9 132.0 21.2 M103.75 8.25 L104.45 6.75 104.4 6.75 Q107.15 1.4 111.1 1.5 111.55 1.5 113.3 2.45 115.0 3.4 116.4 4.95 117.8 6.5 118.6 10.85 L119.15 13.4 Q118.45 11.0 117.4 8.9 116.35 6.75 113.85 5.2 111.3 3.65 109.8 3.65 108.25 3.6 106.2 7.65 L106.2 7.7 105.6 9.0 105.55 8.35 105.0 7.85 Q104.6 7.65 104.2 7.85 L103.75 8.25 M104.0 21.2 Q104.4 26.0 106.2 29.6 108.25 33.7 111.1 33.8 111.5 33.8 111.8 34.1 L112.1 34.8 111.8 35.5 111.1 35.8 Q107.15 35.9 104.4 30.5 102.4 26.6 102.0 21.35 102.05 21.75 102.35 22.0 102.65 22.3 103.1 22.25 L103.75 21.9 104.0 21.2 M76.75 8.25 L77.45 6.75 77.4 6.75 Q80.15 1.4 84.1 1.5 84.55 1.5 86.3 2.45 88.0 3.4 89.4 4.95 90.8 6.5 91.6 10.85 L92.15 13.4 Q91.45 11.0 90.4 8.9 89.35 6.75 86.85 5.2 84.3 3.65 82.8 3.65 81.25 3.6 79.2 7.65 L79.2 7.7 78.6 9.0 78.55 8.35 78.0 7.85 Q77.6 7.65 77.2 7.85 L76.75 8.25 M77.0 21.2 Q77.4 26.0 79.2 29.6 81.25 33.7 84.1 33.8 84.5 33.8 84.8 34.1 L85.1 34.8 84.8 35.5 84.1 35.8 Q80.15 35.9 77.4 30.5 75.4 26.6 75.0 21.35 75.05 21.75 75.35 22.0 75.65 22.3 76.1 22.25 L76.75 21.9 77.0 21.2 M48.75 8.25 L49.45 6.75 49.4 6.75 Q52.15 1.4 56.1 1.5 56.55 1.5 58.3 2.45 60.0 3.4 61.4 4.95 62.8 6.5 63.6 10.85 L64.15 13.4 Q63.45 11.0 62.4 8.9 61.35 6.75 58.85 5.2 56.3 3.65 54.8 3.65 53.25 3.6 51.2 7.65 L51.2 7.7 50.6 9.0 50.55 8.35 50.0 7.85 Q49.6 7.65 49.2 7.85 L48.75 8.25 M49.0 21.2 Q49.4 26.0 51.2 29.6 53.25 33.7 56.1 33.8 56.5 33.8 56.8 34.1 L57.1 34.8 56.8 35.5 56.1 35.8 Q52.15 35.9 49.4 30.5 47.4 26.6 47.0 21.35 L47.35 22.0 Q47.65 22.3 48.1 22.25 L48.75 21.9 49.0 21.2 M20.75 8.25 L21.45 6.75 21.4 6.75 Q24.15 1.4 28.1 1.5 28.55 1.5 30.3 2.45 32.0 3.4 33.4 4.95 34.8 6.5 35.6 10.85 L36.15 13.4 Q35.45 11.0 34.4 8.9 33.35 6.75 30.85 5.2 28.3 3.65 26.8 3.65 25.25 3.6 23.2 7.65 L23.2 7.7 22.6 9.0 22.55 8.35 22.0 7.85 Q21.6 7.65 21.2 7.85 L20.75 8.25 M21.0 21.2 Q21.4 26.0 23.2 29.6 25.25 33.7 28.1 33.8 28.5 33.8 28.8 34.1 L29.1 34.8 28.8 35.5 28.1 35.8 Q24.15 35.9 21.4 30.5 19.4 26.6 19.0 21.35 19.05 21.75 19.35 22.0 19.65 22.3 20.1 22.25 L20.75 21.9 21.0 21.2" fill="#7b7b7b" fill-rule="evenodd" stroke="none"/>
    <path d="M331.6 9.0 L332.2 7.7 332.2 7.65 Q334.25 3.6 335.8 3.65 337.3 3.65 339.85 5.2 342.35 6.75 343.4 8.9 344.45 11.0 345.15 13.4 L344.6 10.85 Q343.8 6.5 342.4 4.95 341.0 3.4 339.3 2.45 337.55 1.5 337.1 1.5 333.15 1.4 330.4 6.75 L330.45 6.75 329.75 8.25 329.7 8.4 Q327.9 12.8 327.9 18.65 L328.0 21.3 328.0 21.35 Q328.4 26.6 330.4 30.5 333.15 35.9 337.1 35.8 L337.8 35.5 338.1 34.8 337.8 34.1 Q337.5 33.8 337.1 33.8 334.25 33.7 332.2 29.6 330.4 26.0 330.0 21.2 L330.0 21.15 329.9 18.65 Q329.9 13.2 331.55 9.15 L331.6 9.0 M340.3 30.55 Q341.05 30.65 341.7 31.05 L342.0 31.6 342.2 32.15 342.25 32.35 342.3 32.5 342.3 32.8 342.3 33.0 Q342.3 34.45 341.25 35.45 L339.8 36.9 337.1 37.3 Q332.3 37.55 329.1 31.2 326.4 26.0 326.4 18.65 326.4 11.25 329.1 6.1 332.3 -0.25 337.1 0.0 L339.65 0.4 339.9 0.45 340.85 0.95 341.25 1.3 342.8 2.9 Q344.5 4.4 346.3 9.6 348.05 14.75 347.4 22.5 L343.15 22.7 Q343.95 13.0 341.5 9.15 339.0 5.25 337.1 5.0 336.3 5.1 335.6 5.65 334.5 6.45 333.55 8.35 331.4 12.55 331.4 18.65 331.4 24.7 333.55 28.95 334.5 30.85 335.6 31.7 336.3 32.2 337.1 32.3 338.55 32.1 339.8 30.4 L339.8 30.5 340.3 30.55 M311.3 30.55 Q312.05 30.65 312.7 31.05 L313.0 31.6 313.2 32.15 313.25 32.35 313.3 32.5 313.3 32.8 313.3 33.0 Q313.3 34.45 312.25 35.45 L310.8 36.9 308.1 37.3 Q303.3 37.55 300.1 31.2 297.4 26.0 297.4 18.65 297.4 11.25 300.1 6.1 303.3 -0.25 308.1 0.0 L310.65 0.4 310.9 0.45 311.85 0.95 312.25 1.3 313.8 2.9 Q315.5 4.4 317.3 9.6 319.05 14.75 318.4 22.5 L314.15 22.7 Q314.95 13.0 312.5 9.15 310.0 5.25 308.1 5.0 307.3 5.1 306.6 5.65 305.5 6.45 304.55 8.35 302.4 12.55 302.4 18.65 302.4 24.7 304.55 28.95 305.5 30.85 306.6 31.7 307.3 32.2 308.1 32.3 309.55 32.1 310.8 30.4 L310.8 30.5 311.3 30.55 M302.6 9.0 Q302.85 8.3 303.2 7.7 L303.2 7.65 Q305.25 3.6 306.8 3.65 308.3 3.65 310.85 5.2 313.35 6.75 314.4 8.9 315.45 11.0 316.15 13.4 L315.6 10.85 Q314.8 6.5 313.4 4.95 312.0 3.4 310.3 2.45 308.55 1.5 308.1 1.5 304.15 1.4 301.4 6.75 L301.45 6.75 300.75 8.25 300.7 8.4 Q298.9 12.8 298.9 18.65 L299.0 21.3 299.0 21.35 Q299.4 26.6 301.4 30.5 304.15 35.9 308.1 35.8 L308.8 35.5 309.1 34.8 308.8 34.1 Q308.5 33.8 308.1 33.8 305.25 33.7 303.2 29.6 301.4 26.0 301.0 21.2 L301.0 21.15 300.9 18.65 Q300.9 13.2 302.55 9.15 L302.6 9.0 M283.3 30.55 Q284.05 30.65 284.7 31.05 L285.0 31.6 285.2 32.15 285.25 32.35 285.3 32.5 285.3 32.8 285.3 33.0 Q285.3 34.45 284.25 35.45 L282.8 36.9 280.1 37.3 Q275.3 37.55 272.1 31.2 269.4 26.0 269.4 18.65 269.4 11.25 272.1 6.1 275.3 -0.25 280.1 0.0 L282.65 0.4 282.9 0.45 283.85 0.95 284.25 1.3 285.8 2.9 Q287.5 4.4 289.3 9.6 291.05 14.75 290.4 22.5 L286.15 22.7 Q286.95 13.0 284.5 9.15 282.0 5.25 280.1 5.0 279.3 5.1 278.6 5.65 277.5 6.45 276.55 8.35 274.4 12.55 274.4 18.65 274.4 24.7 276.55 28.95 277.5 30.85 278.6 31.7 279.3 32.2 280.1 32.3 281.55 32.1 282.8 30.4 L282.8 30.5 283.3 30.55 M274.6 9.0 L275.2 7.7 275.2 7.65 Q277.25 3.6 278.8 3.65 280.3 3.65 282.85 5.2 285.35 6.75 286.4 8.9 287.45 11.0 288.15 13.4 L287.6 10.85 Q286.8 6.5 285.4 4.95 284.0 3.4 282.3 2.45 280.55 1.5 280.1 1.5 276.15 1.4 273.4 6.75 L273.45 6.75 272.75 8.25 272.7 8.4 Q270.9 12.8 270.9 18.65 L271.0 21.3 271.0 21.35 Q271.4 26.6 273.4 30.5 276.15 35.9 280.1 35.8 L280.8 35.5 281.1 34.8 280.8 34.1 Q280.5 33.8 280.1 33.8 277.25 33.7 275.2 29.6 273.4 26.0 273.0 21.2 L273.0 21.15 272.9 18.65 Q272.9 13.2 274.55 9.15 L274.6 9.0 M255.3 30.55 Q256.05 30.65 256.7 31.05 L257.0 31.6 257.2 32.15 257.25 32.35 257.3 32.5 257.3 32.8 257.3 33.0 Q257.3 34.45 256.25 35.45 L254.8 36.9 252.1 37.3 Q247.3 37.55 244.1 31.2 241.4 26.0 241.4 18.65 241.4 11.25 244.1 6.1 247.3 -0.25 252.1 0.0 L254.65 0.4 254.9 0.45 255.85 0.95 256.25 1.3 257.8 2.9 Q259.5 4.4 261.3 9.6 263.05 14.75 262.4 22.5 L258.15 22.7 Q258.95 13.0 256.5 9.15 254.0 5.25 252.1 5.0 251.3 5.1 250.6 5.65 249.5 6.45 248.55 8.35 246.4 12.55 246.4 18.65 246.4 24.7 248.55 28.95 249.5 30.85 250.6 31.7 251.3 32.2 252.1 32.3 253.55 32.1 254.8 30.4 L254.8 30.5 255.3 30.55 M246.6 9.0 L247.2 7.7 247.2 7.65 Q249.25 3.6 250.8 3.65 252.3 3.65 254.85 5.2 257.35 6.75 258.4 8.9 259.45 11.0 260.15 13.4 L259.6 10.85 Q258.8 6.5 257.4 4.95 256.0 3.4 254.3 2.45 252.55 1.5 252.1 1.5 248.15 1.4 245.4 6.75 L245.45 6.75 244.75 8.25 244.7 8.4 Q242.9 12.8 242.9 18.65 L243.0 21.3 243.0 21.35 Q243.4 26.6 245.4 30.5 248.15 35.9 252.1 35.8 L252.8 35.5 253.1 34.8 252.8 34.1 Q252.5 33.8 252.1 33.8 249.25 33.7 247.2 29.6 245.4 26.0 245.0 21.2 L245.0 21.15 244.9 18.65 Q244.9 13.2 246.55 9.15 L246.6 9.0 M228.3 30.55 Q229.05 30.65 229.7 31.05 L230.0 31.6 230.2 32.15 230.25 32.35 230.3 32.5 230.3 32.8 230.3 33.0 Q230.3 34.45 229.25 35.45 L227.8 36.9 225.1 37.3 Q220.3 37.55 217.1 31.2 214.4 26.0 214.4 18.65 214.4 11.25 217.1 6.1 220.3 -0.25 225.1 0.0 L227.65 0.4 227.9 0.45 228.85 0.95 229.25 1.3 230.8 2.9 Q232.5 4.4 234.3 9.6 236.05 14.75 235.4 22.5 L231.15 22.7 Q231.95 13.0 229.5 9.15 227.0 5.25 225.1 5.0 224.3 5.1 223.6 5.65 222.5 6.45 221.55 8.35 219.4 12.55 219.4 18.65 219.4 24.7 221.55 28.95 222.5 30.85 223.6 31.7 224.3 32.2 225.1 32.3 226.55 32.1 227.8 30.4 L227.8 30.5 228.3 30.55 M219.6 9.0 L220.2 7.7 220.2 7.65 Q222.25 3.6 223.8 3.65 225.3 3.65 227.85 5.2 230.35 6.75 231.4 8.9 232.45 11.0 233.15 13.4 L232.6 10.85 Q231.8 6.5 230.4 4.95 229.0 3.4 227.3 2.45 225.55 1.5 225.1 1.5 221.15 1.4 218.4 6.75 L218.45 6.75 217.75 8.25 217.7 8.4 Q215.9 12.8 215.9 18.65 L216.0 21.3 216.0 21.35 Q216.4 26.6 218.4 30.5 221.15 35.9 225.1 35.8 225.5 35.8 225.8 35.5 L226.1 34.8 225.8 34.1 Q225.5 33.8 225.1 33.8 222.25 33.7 220.2 29.6 218.4 26.0 218.0 21.2 L218.0 21.15 217.9 18.65 Q217.9 13.2 219.55 9.15 L219.6 9.0 M200.3 30.55 Q201.05 30.65 201.7 31.05 L202.0 31.6 202.2 32.15 202.25 32.35 202.3 32.5 202.3 32.8 202.3 33.0 Q202.3 34.45 201.25 35.45 L199.8 36.9 197.1 37.3 Q192.3 37.55 189.1 31.2 186.4 26.0 186.4 18.65 186.4 11.25 189.1 6.1 192.3 -0.25 197.1 0.0 198.45 -0.05 199.65 0.4 L199.9 0.45 Q200.35 0.65 200.85 0.95 L201.25 1.3 202.8 2.9 Q204.5 4.4 206.3 9.6 208.05 14.75 207.4 22.5 L203.15 22.7 Q203.95 13.0 201.5 9.15 199.0 5.25 197.1 5.0 196.3 5.1 195.6 5.65 194.5 6.45 193.55 8.35 191.4 12.55 191.4 18.65 191.4 24.7 193.55 28.95 194.5 30.85 195.6 31.7 196.3 32.2 197.1 32.3 198.55 32.1 199.8 30.4 L199.8 30.5 200.3 30.55 M191.6 9.0 L192.2 7.7 192.2 7.65 Q194.25 3.6 195.8 3.65 197.3 3.65 199.85 5.2 202.35 6.75 203.4 8.9 204.45 11.0 205.15 13.4 L204.6 10.85 Q203.8 6.5 202.4 4.95 201.0 3.4 199.3 2.45 197.55 1.5 197.1 1.5 193.15 1.4 190.4 6.75 L190.45 6.75 189.75 8.25 189.7 8.4 Q187.9 12.8 187.9 18.65 L188.0 21.3 188.0 21.35 Q188.4 26.6 190.4 30.5 193.15 35.9 197.1 35.8 197.5 35.8 197.8 35.5 L198.1 34.8 197.8 34.1 Q197.5 33.8 197.1 33.8 194.25 33.7 192.2 29.6 190.4 26.0 190.0 21.2 L190.0 21.15 189.9 18.65 Q189.9 13.2 191.55 9.15 L191.6 9.0 M162.6 9.0 L163.2 7.7 163.2 7.65 Q165.25 3.6 166.8 3.65 168.3 3.65 170.85 5.2 173.35 6.75 174.4 8.9 175.45 11.0 176.15 13.4 L175.6 10.85 Q174.8 6.5 173.4 4.95 172.0 3.4 170.3 2.45 168.55 1.5 168.1 1.5 164.15 1.4 161.4 6.75 L161.45 6.75 160.75 8.25 160.7 8.4 Q158.9 12.8 158.9 18.65 L159.0 21.3 159.0 21.35 Q159.4 26.6 161.4 30.5 164.15 35.9 168.1 35.8 L168.8 35.5 169.1 34.8 168.8 34.1 Q168.5 33.8 168.1 33.8 165.25 33.7 163.2 29.6 161.4 26.0 161.0 21.2 L161.0 21.15 160.9 18.65 Q160.9 13.2 162.55 9.15 L162.6 9.0 M171.3 30.55 Q172.05 30.65 172.7 31.05 L173.0 31.6 173.2 32.15 173.25 32.35 173.3 32.5 173.3 32.8 173.3 33.0 Q173.3 34.45 172.25 35.45 L170.8 36.9 168.1 37.3 Q163.3 37.55 160.1 31.2 157.4 26.0 157.4 18.65 157.4 11.25 160.1 6.1 163.3 -0.25 168.1 0.0 L170.65 0.4 170.9 0.45 171.85 0.95 172.25 1.3 173.8 2.9 Q175.5 4.4 177.3 9.6 179.05 14.75 178.4 22.5 L174.15 22.7 Q174.95 13.0 172.5 9.15 170.0 5.25 168.1 5.0 167.3 5.1 166.6 5.65 165.5 6.45 164.55 8.35 162.4 12.55 162.4 18.65 162.4 24.7 164.55 28.95 165.5 30.85 166.6 31.7 167.3 32.2 168.1 32.3 169.55 32.1 170.8 30.4 L170.8 30.5 171.3 30.55 M142.3 30.55 Q143.05 30.65 143.7 31.05 L144.0 31.6 144.2 32.15 144.25 32.35 144.3 32.5 144.3 32.8 144.3 33.0 Q144.3 34.45 143.25 35.45 L141.8 36.9 139.1 37.3 Q134.3 37.55 131.1 31.2 128.4 26.0 128.4 18.65 128.4 11.25 131.1 6.1 134.3 -0.25 139.1 0.0 140.45 -0.05 141.65 0.4 L141.9 0.45 142.85 0.95 143.25 1.3 144.8 2.9 Q146.5 4.4 148.3 9.6 150.05 14.75 149.4 22.5 L145.15 22.7 Q145.95 13.0 143.5 9.15 141.0 5.25 139.1 5.0 138.3 5.1 137.6 5.65 136.5 6.45 135.55 8.35 133.4 12.55 133.4 18.65 133.4 24.7 135.55 28.95 136.5 30.85 137.6 31.7 138.3 32.2 139.1 32.3 140.55 32.1 141.8 30.4 L141.8 30.5 142.3 30.55 M133.6 9.0 L134.2 7.7 134.2 7.65 Q136.25 3.6 137.8 3.65 139.3 3.65 141.85 5.2 144.35 6.75 145.4 8.9 146.45 11.0 147.15 13.4 L146.6 10.85 Q145.8 6.5 144.4 4.95 143.0 3.4 141.3 2.45 139.55 1.5 139.1 1.5 135.15 1.4 132.4 6.75 L132.45 6.75 131.75 8.25 131.7 8.4 Q129.9 12.8 129.9 18.65 L130.0 21.3 130.0 21.35 Q130.4 26.6 132.4 30.5 135.15 35.9 139.1 35.8 L139.8 35.5 140.1 34.8 139.8 34.1 Q139.5 33.8 139.1 33.8 136.25 33.7 134.2 29.6 132.4 26.0 132.0 21.2 L132.0 21.15 131.9 18.65 Q131.9 13.2 133.55 9.15 L133.6 9.0 M114.3 30.55 Q115.05 30.65 115.7 31.05 L116.0 31.6 116.2 32.15 116.25 32.35 116.3 32.5 116.3 32.8 116.3 33.0 Q116.3 34.45 115.25 35.45 L113.8 36.9 111.1 37.3 Q106.3 37.55 103.1 31.2 100.4 26.0 100.4 18.65 100.4 11.25 103.1 6.1 106.3 -0.25 111.1 0.0 L113.65 0.4 113.9 0.45 114.85 0.95 115.25 1.3 116.8 2.9 Q118.5 4.4 120.3 9.6 122.05 14.75 121.4 22.5 L117.15 22.7 Q117.95 13.0 115.5 9.15 113.0 5.25 111.1 5.0 110.3 5.1 109.6 5.65 108.5 6.45 107.55 8.35 105.4 12.55 105.4 18.65 105.4 24.7 107.55 28.95 108.5 30.85 109.6 31.7 110.3 32.2 111.1 32.3 112.55 32.1 113.8 30.4 L113.8 30.5 114.3 30.55 M105.6 9.0 L106.2 7.7 106.2 7.65 Q108.25 3.6 109.8 3.65 111.3 3.65 113.85 5.2 116.35 6.75 117.4 8.9 118.45 11.0 119.15 13.4 L118.6 10.85 Q117.8 6.5 116.4 4.95 115.0 3.4 113.3 2.45 111.55 1.5 111.1 1.5 107.15 1.4 104.4 6.75 L104.45 6.75 103.75 8.25 103.7 8.4 Q101.9 12.8 101.9 18.65 L102.0 21.3 102.0 21.35 Q102.4 26.6 104.4 30.5 107.15 35.9 111.1 35.8 L111.8 35.5 112.1 34.8 111.8 34.1 Q111.5 33.8 111.1 33.8 108.25 33.7 106.2 29.6 104.4 26.0 104.0 21.2 L104.0 21.15 103.9 18.65 Q103.9 13.2 105.55 9.15 L105.6 9.0 M87.3 30.55 Q88.05 30.65 88.7 31.05 L89.0 31.6 89.2 32.15 89.25 32.35 89.3 32.5 89.3 32.8 89.3 33.0 Q89.3 34.45 88.25 35.45 L86.8 36.9 84.1 37.3 Q79.3 37.55 76.1 31.2 73.4 26.0 73.4 18.65 73.4 11.25 76.1 6.1 79.3 -0.25 84.1 0.0 L86.65 0.4 86.9 0.45 87.85 0.95 88.25 1.3 89.8 2.9 Q91.5 4.4 93.3 9.6 95.05 14.75 94.4 22.5 L90.15 22.7 Q90.95 13.0 88.5 9.15 86.0 5.25 84.1 5.0 83.3 5.1 82.6 5.65 81.5 6.45 80.55 8.35 78.4 12.55 78.4 18.65 78.4 24.7 80.55 28.95 81.5 30.85 82.6 31.7 83.3 32.2 84.1 32.3 85.55 32.1 86.8 30.4 L86.8 30.5 87.3 30.55 M78.6 9.0 L79.2 7.7 79.2 7.65 Q81.25 3.6 82.8 3.65 84.3 3.65 86.85 5.2 89.35 6.75 90.4 8.9 91.45 11.0 92.15 13.4 L91.6 10.85 Q90.8 6.5 89.4 4.95 88.0 3.4 86.3 2.45 84.55 1.5 84.1 1.5 80.15 1.4 77.4 6.75 L77.45 6.75 76.75 8.25 76.7 8.4 Q74.9 12.8 74.9 18.65 L75.0 21.3 75.0 21.35 Q75.4 26.6 77.4 30.5 80.15 35.9 84.1 35.8 L84.8 35.5 85.1 34.8 84.8 34.1 Q84.5 33.8 84.1 33.8 81.25 33.7 79.2 29.6 77.4 26.0 77.0 21.2 L77.0 21.15 76.9 18.65 Q76.9 13.2 78.55 9.15 L78.6 9.0 M50.6 9.0 L51.2 7.7 51.2 7.65 Q53.25 3.6 54.8 3.65 56.3 3.65 58.85 5.2 61.35 6.75 62.4 8.9 63.45 11.0 64.15 13.4 L63.6 10.85 Q62.8 6.5 61.4 4.95 60.0 3.4 58.3 2.45 56.55 1.5 56.1 1.5 52.15 1.4 49.4 6.75 L49.45 6.75 48.75 8.25 48.7 8.4 Q46.9 12.8 46.9 18.65 L47.0 21.3 47.0 21.35 Q47.4 26.6 49.4 30.5 52.15 35.9 56.1 35.8 L56.8 35.5 57.1 34.8 56.8 34.1 Q56.5 33.8 56.1 33.8 53.25 33.7 51.2 29.6 49.4 26.0 49.0 21.2 L49.0 21.15 48.9 18.65 Q48.9 13.2 50.55 9.15 L50.6 9.0 M59.3 30.55 Q60.05 30.65 60.7 31.05 L61.0 31.6 61.2 32.15 61.25 32.35 61.3 32.5 61.3 32.8 61.3 33.0 Q61.3 34.45 60.25 35.45 L58.8 36.9 56.1 37.3 Q51.3 37.55 48.1 31.2 45.4 26.0 45.4 18.65 45.4 11.25 48.1 6.1 51.3 -0.25 56.1 0.0 L58.65 0.4 58.9 0.45 59.85 0.95 60.25 1.3 61.8 2.9 Q63.5 4.4 65.3 9.6 67.05 14.75 66.4 22.5 L62.15 22.7 Q62.95 13.0 60.5 9.15 58.0 5.25 56.1 5.0 55.3 5.1 54.6 5.65 53.5 6.45 52.55 8.35 50.4 12.55 50.4 18.65 50.4 24.7 52.55 28.95 53.5 30.85 54.6 31.7 55.3 32.2 56.1 32.3 57.55 32.1 58.8 30.4 L58.8 30.5 59.3 30.55 M31.3 30.55 L32.7 31.05 33.0 31.6 33.2 32.15 33.25 32.35 33.3 32.5 33.3 32.8 33.3 33.0 Q33.3 34.45 32.25 35.45 L30.8 36.9 28.1 37.3 Q23.3 37.55 20.1 31.2 17.4 26.0 17.4 18.65 17.4 11.25 20.1 6.1 23.3 -0.25 28.1 0.0 L30.65 0.4 30.9 0.45 Q31.35 0.65 31.85 0.95 L32.25 1.3 33.8 2.9 Q35.5 4.4 37.3 9.6 39.05 14.75 38.4 22.5 L34.15 22.7 Q34.95 13.0 32.5 9.15 30.0 5.25 28.1 5.0 27.3 5.1 26.6 5.65 25.5 6.45 24.55 8.35 22.4 12.55 22.4 18.65 22.4 24.7 24.55 28.95 25.5 30.85 26.6 31.7 27.3 32.2 28.1 32.3 29.55 32.1 30.8 30.4 L30.8 30.5 31.3 30.55 M22.6 9.0 L23.2 7.7 23.2 7.65 Q25.25 3.6 26.8 3.65 28.3 3.65 30.85 5.2 33.35 6.75 34.4 8.9 35.45 11.0 36.15 13.4 L35.6 10.85 Q34.8 6.5 33.4 4.95 32.0 3.4 30.3 2.45 28.55 1.5 28.1 1.5 24.15 1.4 21.4 6.75 L21.45 6.75 20.75 8.25 20.7 8.4 Q18.9 12.8 18.9 18.65 L19.0 21.3 19.0 21.35 Q19.4 26.6 21.4 30.5 24.15 35.9 28.1 35.8 L28.8 35.5 29.1 34.8 28.8 34.1 Q28.5 33.8 28.1 33.8 25.25 33.7 23.2 29.6 21.4 26.0 21.0 21.2 L21.0 21.15 20.9 18.65 Q20.9 13.2 22.55 9.15 L22.6 9.0" fill="#333333" fill-rule="evenodd" stroke="none"/>
    <path d="M329.75 8.25 L330.2 7.85 Q330.6 7.65 331.0 7.85 L331.55 8.35 331.6 9.0 331.55 9.15 Q329.9 13.2 329.9 18.65 L330.0 21.15 330.0 21.2 329.75 21.9 329.1 22.25 Q328.65 22.3 328.35 22.0 L328.0 21.35 328.0 21.3 327.9 18.65 Q327.9 12.8 329.7 8.4 L329.75 8.25 M300.75 8.25 L301.2 7.85 Q301.6 7.65 302.0 7.85 L302.55 8.35 302.6 9.0 302.55 9.15 Q300.9 13.2 300.9 18.65 L301.0 21.15 301.0 21.2 300.75 21.9 300.1 22.25 Q299.65 22.3 299.35 22.0 L299.0 21.35 299.0 21.3 298.9 18.65 Q298.9 12.8 300.7 8.4 L300.75 8.25 M272.75 8.25 L273.2 7.85 Q273.6 7.65 274.0 7.85 L274.55 8.35 274.6 9.0 274.55 9.15 Q272.9 13.2 272.9 18.65 L273.0 21.15 273.0 21.2 272.75 21.9 272.1 22.25 Q271.65 22.3 271.35 22.0 271.05 21.75 271.0 21.35 L271.0 21.3 270.9 18.65 Q270.9 12.8 272.7 8.4 L272.75 8.25 M244.75 8.25 L245.2 7.85 Q245.6 7.65 246.0 7.85 L246.55 8.35 246.6 9.0 246.55 9.15 Q244.9 13.2 244.9 18.65 L245.0 21.15 245.0 21.2 244.75 21.9 244.1 22.25 Q243.65 22.3 243.35 22.0 L243.0 21.35 243.0 21.3 242.9 18.65 Q242.9 12.8 244.7 8.4 L244.75 8.25 M217.75 8.25 L218.2 7.85 Q218.6 7.65 219.0 7.85 L219.55 8.35 219.6 9.0 219.55 9.15 Q217.9 13.2 217.9 18.65 L218.0 21.15 218.0 21.2 217.75 21.9 217.1 22.25 Q216.65 22.3 216.35 22.0 L216.0 21.35 216.0 21.3 215.9 18.65 Q215.9 12.8 217.7 8.4 L217.75 8.25 M189.75 8.25 L190.2 7.85 Q190.6 7.65 191.0 7.85 L191.55 8.35 191.6 9.0 191.55 9.15 Q189.9 13.2 189.9 18.65 L190.0 21.15 190.0 21.2 189.75 21.9 189.1 22.25 Q188.65 22.3 188.35 22.0 188.05 21.75 188.0 21.35 L188.0 21.3 187.9 18.65 Q187.9 12.8 189.7 8.4 L189.75 8.25 M160.75 8.25 L161.2 7.85 Q161.6 7.65 162.0 7.85 L162.55 8.35 162.6 9.0 162.55 9.15 Q160.9 13.2 160.9 18.65 L161.0 21.15 161.0 21.2 160.75 21.9 160.1 22.25 Q159.65 22.3 159.35 22.0 L159.0 21.35 159.0 21.3 158.9 18.65 Q158.9 12.8 160.7 8.4 L160.75 8.25 M131.75 8.25 L132.2 7.85 Q132.6 7.65 133.0 7.85 L133.55 8.35 133.6 9.0 133.55 9.15 Q131.9 13.2 131.9 18.65 L132.0 21.15 132.0 21.2 131.75 21.9 131.1 22.25 Q130.65 22.3 130.35 22.0 130.05 21.75 130.0 21.35 L130.0 21.3 129.9 18.65 Q129.9 12.8 131.7 8.4 L131.75 8.25 M103.75 8.25 L104.2 7.85 Q104.6 7.65 105.0 7.85 L105.55 8.35 105.6 9.0 105.55 9.15 Q103.9 13.2 103.9 18.65 L104.0 21.15 104.0 21.2 103.75 21.9 103.1 22.25 Q102.65 22.3 102.35 22.0 102.05 21.75 102.0 21.35 L102.0 21.3 101.9 18.65 Q101.9 12.8 103.7 8.4 L103.75 8.25 M76.75 8.25 L77.2 7.85 Q77.6 7.65 78.0 7.85 L78.55 8.35 78.6 9.0 78.55 9.15 Q76.9 13.2 76.9 18.65 L77.0 21.15 77.0 21.2 76.75 21.9 76.1 22.25 Q75.65 22.3 75.35 22.0 75.05 21.75 75.0 21.35 L75.0 21.3 74.9 18.65 Q74.9 12.8 76.7 8.4 L76.75 8.25 M48.75 8.25 L49.2 7.85 Q49.6 7.65 50.0 7.85 L50.55 8.35 50.6 9.0 50.55 9.15 Q48.9 13.2 48.9 18.65 L49.0 21.15 49.0 21.2 48.75 21.9 48.1 22.25 Q47.65 22.3 47.35 22.0 L47.0 21.35 47.0 21.3 46.9 18.65 Q46.9 12.8 48.7 8.4 L48.75 8.25 M20.75 8.25 L21.2 7.85 Q21.6 7.65 22.0 7.85 L22.55 8.35 22.6 9.0 22.55 9.15 Q20.9 13.2 20.9 18.65 L21.0 21.15 21.0 21.2 20.75 21.9 20.1 22.25 Q19.65 22.3 19.35 22.0 19.05 21.75 19.0 21.35 L19.0 21.3 18.9 18.65 Q18.9 12.8 20.7 8.4 L20.75 8.25" fill="#b6b6b6" fill-rule="evenodd" stroke="none"/>
    <path d="M340.3 30.55 L339.8 30.5 339.8 30.4 Q338.55 32.1 337.1 32.3 336.3 32.2 335.6 31.7 L335.6 22.5 340.3 22.5 340.3 30.55 M311.3 30.55 L310.8 30.5 310.8 30.4 Q309.55 32.1 308.1 32.3 307.3 32.2 306.6 31.7 L306.6 22.5 311.3 22.5 311.3 30.55 M283.3 30.55 L282.8 30.5 282.8 30.4 Q281.55 32.1 280.1 32.3 279.3 32.2 278.6 31.7 L278.6 22.5 283.3 22.5 283.3 30.55 M255.3 30.55 L254.8 30.5 254.8 30.4 Q253.55 32.1 252.1 32.3 251.3 32.2 250.6 31.7 L250.6 22.5 255.3 22.5 255.3 30.55 M228.3 30.55 L227.8 30.5 227.8 30.4 Q226.55 32.1 225.1 32.3 224.3 32.2 223.6 31.7 L223.6 22.5 228.3 22.5 228.3 30.55 M200.3 30.55 L199.8 30.5 199.8 30.4 Q198.55 32.1 197.1 32.3 196.3 32.2 195.6 31.7 L195.6 22.5 200.3 22.5 200.3 30.55 M171.3 30.55 L170.8 30.5 170.8 30.4 Q169.55 32.1 168.1 32.3 167.3 32.2 166.6 31.7 L166.6 22.5 171.3 22.5 171.3 30.55 M142.3 30.55 L141.8 30.5 141.8 30.4 Q140.55 32.1 139.1 32.3 138.3 32.2 137.6 31.7 L137.6 22.5 142.3 22.5 142.3 30.55 M114.3 30.55 L113.8 30.5 113.8 30.4 Q112.55 32.1 111.1 32.3 110.3 32.2 109.6 31.7 L109.6 22.5 114.3 22.5 114.3 30.55 M87.3 30.55 L86.8 30.5 86.8 30.4 Q85.55 32.1 84.1 32.3 83.3 32.2 82.6 31.7 L82.6 22.5 87.3 22.5 87.3 30.55 M59.3 30.55 L58.8 30.5 58.8 30.4 Q57.55 32.1 56.1 32.3 55.3 32.2 54.6 31.7 L54.6 22.5 59.3 22.5 59.3 30.55 M31.3 30.55 L30.8 30.5 30.8 30.4 Q29.55 32.1 28.1 32.3 27.3 32.2 26.6 31.7 L26.6 22.5 31.3 22.5 31.3 30.55" fill="#000000" fill-opacity="0.18039216" fill-rule="evenodd" stroke="none"/>
  </g>
</svg>
