<?xml version="1.0" encoding="UTF-8" standalone="no"?>
<svg xmlns:ffdec="https://www.free-decompiler.com/flash" xmlns:xlink="http://www.w3.org/1999/xlink" ffdec:objectType="shape" height="19.05px" width="130.4px" xmlns="http://www.w3.org/2000/svg">
  <g transform="matrix(1.0, 0.0, 0.0, 1.0, 63.7, 6.35)">
    <path d="M57.35 -3.05 Q44.65 5.4 33.0 -3.0 L32.2 -3.4 32.15 -3.45 Q18.1 -9.3 1.35 3.0 L1.05 3.1 0.7 2.95 Q-12.65 -10.0 -30.15 -1.35 L-30.25 -1.3 -30.35 -1.25 Q-41.1 4.35 -47.9 0.2 -54.4 -3.8 -56.05 -4.05 L-59.35 -3.7 Q-61.0 -3.2 -61.8 -2.2 -62.8 -1.1 -62.7 0.35 L-62.7 0.4 Q-62.55 1.85 -61.4 2.85 -60.65 3.45 -58.9 3.35 -57.9 3.15 -56.45 3.85 L-56.4 3.85 Q-40.4 12.4 -27.0 5.05 L-26.8 5.0 Q-12.6 -2.0 -2.05 10.45 -1.15 11.55 0.3 11.7 1.75 11.8 2.9 10.95 L2.9 10.9 Q17.3 -1.0 29.1 3.0 L29.25 3.05 Q44.2 13.65 60.3 3.5 L60.35 3.45 Q61.05 3.05 62.8 3.0 L63.9 2.85 63.85 2.9 Q64.35 2.75 64.7 2.4 65.7 1.3 65.7 -0.2 65.7 -1.65 64.5 -2.95 63.25 -4.25 61.45 -4.2 59.5 -4.2 57.35 -3.05 M61.45 -5.2 Q63.75 -5.25 65.25 -3.65 66.7 -2.05 66.7 -0.2 66.7 1.7 65.45 3.1 L65.4 3.1 64.1 3.85 64.05 3.85 62.95 4.0 62.9 4.0 60.85 4.35 60.8 4.35 Q44.2 14.8 28.75 3.9 17.35 0.25 3.55 11.7 L3.5 11.7 Q2.05 12.8 0.25 12.7 L0.2 12.7 Q-1.65 12.45 -2.8 11.1 -12.85 -0.8 -26.45 5.95 L-26.55 6.0 Q-40.35 13.55 -56.85 4.75 L-58.75 4.35 -58.8 4.35 Q-61.05 4.45 -62.05 3.6 -63.55 2.35 -63.7 0.45 -63.8 -1.4 -62.55 -2.85 -61.6 -4.0 -59.65 -4.65 L-55.9 -5.05 Q-54.2 -4.8 -47.4 -0.65 -40.95 3.15 -30.7 -2.2 L-30.6 -2.25 Q-12.65 -11.1 1.1 1.95 18.15 -10.4 32.5 -4.35 L33.55 -3.85 Q44.65 4.2 56.8 -3.9 L56.85 -3.95 Q59.25 -5.2 61.45 -5.2" fill="#8a6023" fill-rule="evenodd" stroke="none"/>
    <path d="M57.35 -3.05 Q59.5 -4.2 61.45 -4.2 63.25 -4.25 64.5 -2.95 65.7 -1.65 65.7 -0.2 65.7 1.3 64.7 2.4 64.35 2.75 63.85 2.9 L63.9 2.85 62.8 3.0 Q61.05 3.05 60.35 3.45 L60.3 3.5 Q44.2 13.65 29.25 3.05 L29.1 3.0 Q17.3 -1.0 2.9 10.9 L2.9 10.95 Q1.75 11.8 0.3 11.7 -1.15 11.55 -2.05 10.45 -12.6 -2.0 -26.8 5.0 L-27.0 5.05 Q-40.4 12.4 -56.4 3.85 L-56.45 3.85 Q-57.9 3.15 -58.9 3.35 -60.65 3.45 -61.4 2.85 -62.55 1.85 -62.7 0.4 L-62.7 0.35 Q-62.8 -1.1 -61.8 -2.2 -61.0 -3.2 -59.35 -3.7 L-56.05 -4.05 Q-54.4 -3.8 -47.9 0.2 -41.1 4.35 -30.35 -1.25 L-30.25 -1.3 -30.15 -1.35 Q-12.65 -10.0 0.7 2.95 L1.05 3.1 1.35 3.0 Q18.1 -9.3 32.15 -3.45 L32.2 -3.4 33.0 -3.0 Q44.65 5.4 57.35 -3.05" fill="#f5bf6b" fill-rule="evenodd" stroke="none"/>
  </g>
</svg>
