<?xml version="1.0" encoding="UTF-8" standalone="no"?>
<svg xmlns:ffdec="https://www.free-decompiler.com/flash" xmlns:xlink="http://www.w3.org/1999/xlink" ffdec:objectType="shape" height="50.3px" width="42.3px" xmlns="http://www.w3.org/2000/svg">
  <g transform="matrix(1.0, 0.0, 0.0, 1.0, 16.95, 13.0)">
    <path d="M5.35 -7.4 L5.35 -9.95 1.45 -10.0 1.45 -8.05 1.45 -2.35 1.4 2.75 0.7 2.95 Q0.15 2.85 -0.05 2.2 L-0.05 -10.5 -16.95 -11.4 -16.9 -13.0 Q-6.85 -11.5 7.45 -11.5 L17.6 -11.85 25.35 -12.8 25.3 -11.2 6.85 -9.9 6.75 2.85 6.6 2.85 6.6 10.2 Q13.55 14.0 18.05 15.75 L23.75 17.5 23.6 18.45 23.4 18.4 23.2 18.35 Q20.4 17.95 14.4 15.25 9.45 13.0 6.35 11.15 3.75 9.0 4.35 5.7 L5.4 2.45 5.35 -7.4 M21.35 29.95 L20.1 34.15 Q13.05 37.3 4.85 37.3 -1.15 37.3 -6.4 35.75 L-7.75 33.3 Q-1.65 35.4 5.6 35.4 L11.9 34.5 Q17.0 33.55 18.5 32.9 20.0 32.25 21.35 29.95" fill="#464646" fill-rule="evenodd" stroke="none"/>
    <path d="M1.45 -8.05 L1.45 -10.0 5.35 -9.95 5.35 -7.4 1.45 -8.05 M6.35 11.15 Q9.45 13.0 14.4 15.25 20.4 17.95 23.2 18.35 L22.75 19.35 Q15.6 17.75 9.7 14.35 5.6 11.95 4.4 10.4 L4.35 10.35 6.35 11.15 M8.65 16.8 Q8.65 19.15 6.0 19.15 -2.15 19.15 -7.55 15.4 -14.4 10.6 -15.25 0.55 L-14.95 0.45 -14.0 0.35 Q-9.3 0.35 -7.9 1.6 -7.05 2.4 -3.75 8.5 -0.8 14.0 4.3 15.45 L7.4 16.1 Q8.65 16.3 8.65 16.8" fill="#ffffff" fill-rule="evenodd" stroke="none"/>
    <path d="M23.4 18.4 L23.6 18.45 Q22.85 24.25 21.35 29.95 20.0 32.25 18.5 32.9 17.0 33.55 11.9 34.5 L5.6 35.4 Q-1.65 35.4 -7.75 33.3 L-9.35 30.1 -11.15 26.05 Q-3.95 30.05 4.2 30.05 L9.75 29.55 20.8 27.05 22.8 20.7 23.4 18.4 M23.75 17.5 L18.05 15.75 Q13.55 14.0 6.6 10.2 L6.6 2.85 6.75 2.85 6.85 -9.9 25.3 -11.2 25.3 -9.05 11.0 -7.1 Q9.3 -6.7 8.75 -5.7 8.3 -4.75 8.3 -2.25 8.3 -1.3 8.65 -1.05 8.85 -0.9 9.4 -0.8 8.9 -0.4 8.4 1.05 7.65 3.1 7.65 6.0 L8.25 7.3 Q9.05 8.8 10.3 10.0 14.25 13.9 20.75 13.9 22.95 13.9 24.2 12.55 L23.95 15.4 23.75 17.5 M-16.95 -11.4 L-0.05 -10.5 -0.05 2.2 Q0.15 2.85 0.7 2.95 L1.4 2.75 1.45 -2.35 1.7 -0.2 1.65 2.15 1.15 6.05 Q1.0 6.7 0.5 6.75 -0.05 6.0 -0.4 4.25 L-1.0 -0.5 -2.0 -0.55 -3.65 -0.7 Q-4.35 -0.85 -4.35 -1.05 L-3.65 -1.4 -2.0 -1.55 -1.35 -1.5 -1.6 -8.55 -11.65 -9.0 -16.95 -9.45 -16.95 -11.4 M12.4 -0.95 Q12.4 -1.2 13.0 -1.35 L14.45 -1.55 15.9 -1.35 Q16.5 -1.2 16.5 -0.95 16.5 -0.7 15.9 -0.5 L14.45 -0.35 13.0 -0.5 12.4 -0.95 M19.6 -1.95 L23.3 -1.95 23.3 -0.95 19.6 -0.95 19.6 -1.95 M-16.75 -3.05 L-14.6 -3.05 -14.6 -1.65 -16.7 -1.65 -16.75 -3.05 M-11.45 -1.55 L-10.85 -2.0 -9.4 -2.2 -7.95 -2.0 -7.35 -1.55 -7.95 -1.1 -9.4 -0.9 -10.85 -1.1 -11.45 -1.55" fill="#8a8a8a" fill-rule="evenodd" stroke="none"/>
    <path d="M5.35 -7.4 L5.4 2.45 1.65 2.15 1.7 -0.2 1.45 -2.35 1.45 -8.05 5.35 -7.4 M12.4 -0.95 L13.0 -0.5 14.45 -0.35 15.9 -0.5 Q16.5 -0.7 16.5 -0.95 16.5 -1.2 15.9 -1.35 L14.45 -1.55 13.0 -1.35 Q12.4 -1.2 12.4 -0.95 M19.6 -1.95 L19.6 -0.95 23.3 -0.95 23.3 -1.95 19.6 -1.95 M19.65 -5.8 Q22.7 -5.8 23.35 -3.45 L23.6 2.15 Q23.6 8.35 22.85 10.55 22.3 12.3 20.75 12.3 16.45 12.3 13.35 8.05 10.1 3.6 10.1 -3.15 10.1 -4.5 13.2 -5.2 L19.65 -5.8 M22.75 19.35 Q18.65 23.95 3.15 23.95 -7.15 23.95 -13.55 19.1 -14.85 14.65 -15.5 10.05 -16.35 4.25 -16.7 -1.65 L-14.6 -1.65 -14.6 -3.05 -16.75 -3.05 -16.9 -7.55 -11.45 -6.85 Q-3.3 -5.15 -2.0 -1.55 L-3.65 -1.4 -4.35 -1.05 Q-4.35 -0.85 -3.65 -0.7 L-2.0 -0.55 Q-2.0 4.0 -0.1 7.2 1.75 10.4 4.4 10.4 5.6 11.95 9.7 14.35 15.6 17.75 22.75 19.35 M8.65 16.8 Q8.65 16.3 7.4 16.1 L4.3 15.45 Q-0.8 14.0 -3.75 8.5 -7.05 2.4 -7.9 1.6 -9.3 0.35 -14.0 0.35 L-14.95 0.45 -15.25 0.55 Q-14.4 10.6 -7.55 15.4 -2.15 19.15 6.0 19.15 8.65 19.15 8.65 16.8 M-11.45 -1.55 L-10.85 -1.1 -9.4 -0.9 -7.95 -1.1 -7.35 -1.55 -7.95 -2.0 -9.4 -2.2 -10.85 -2.0 -11.45 -1.55" fill="#e0e0e0" fill-rule="evenodd" stroke="none"/>
    <path d="M5.4 2.45 L4.35 5.7 Q3.75 9.0 6.35 11.15 L4.35 10.35 4.4 10.4 Q1.75 10.4 -0.1 7.2 -2.0 4.0 -2.0 -0.55 L-1.0 -0.5 -0.4 4.25 Q-0.05 6.0 0.5 6.75 1.0 6.7 1.15 6.05 L1.65 2.15 5.4 2.45 M23.2 18.35 L23.4 18.4 22.8 20.7 20.8 27.05 9.75 29.55 4.2 30.05 Q-3.95 30.05 -11.15 26.05 -12.55 22.6 -13.55 19.1 -7.15 23.95 3.15 23.95 18.65 23.95 22.75 19.35 L23.2 18.35 M24.2 12.55 Q22.95 13.9 20.75 13.9 14.25 13.9 10.3 10.0 9.05 8.8 8.25 7.3 L7.65 6.0 Q7.65 3.1 8.4 1.05 8.9 -0.4 9.4 -0.8 8.85 -0.9 8.65 -1.05 8.3 -1.3 8.3 -2.25 8.3 -4.75 8.75 -5.7 9.3 -6.7 11.0 -7.1 L25.3 -9.05 Q25.1 1.75 24.2 12.55 M19.65 -5.8 L13.2 -5.2 Q10.1 -4.5 10.1 -3.15 10.1 3.6 13.35 8.05 16.45 12.3 20.75 12.3 22.3 12.3 22.85 10.55 23.6 8.35 23.6 2.15 L23.35 -3.45 Q22.7 -5.8 19.65 -5.8 M-2.0 -1.55 Q-3.3 -5.15 -11.45 -6.85 L-16.9 -7.55 -16.95 -9.45 -11.65 -9.0 -1.6 -8.55 -1.35 -1.5 -2.0 -1.55" fill="#b4b4b4" fill-rule="evenodd" stroke="none"/>
  </g>
</svg>
