<?xml version="1.0" encoding="UTF-8" standalone="no"?>
<svg xmlns:ffdec="https://www.free-decompiler.com/flash" xmlns:xlink="http://www.w3.org/1999/xlink" ffdec:objectType="shape" height="50.35px" width="43.95px" xmlns="http://www.w3.org/2000/svg">
  <g transform="matrix(1.0, 0.0, 0.0, 1.0, 17.25, 13.05)">
    <path d="M5.35 -7.4 L5.35 -9.95 1.45 -10.0 1.45 -8.05 1.45 -2.35 1.4 2.75 0.7 2.95 Q0.15 2.85 -0.05 2.2 L-0.05 -10.5 -17.25 -11.4 -17.25 -13.05 Q-7.15 -11.5 7.45 -11.5 L17.6 -11.85 26.7 -13.0 26.7 -11.35 6.85 -9.9 6.75 2.85 6.6 2.85 6.6 3.0 6.15 3.0 5.4 2.45 5.35 -7.4 M21.95 28.75 L19.75 34.3 20.6 33.9 Q13.35 37.3 4.85 37.3 L-0.5 37.0 -2.55 34.7 5.6 35.4 11.9 34.5 Q17.0 33.55 18.5 32.9 20.35 32.05 21.95 28.75" fill="#464646" fill-rule="evenodd" stroke="none"/>
    <path d="M1.45 -8.05 L1.45 -10.0 5.35 -9.95 5.35 -7.4 1.45 -8.05 M7.65 19.6 Q-2.15 19.15 -7.55 15.4 -14.4 10.6 -15.25 0.55 L-14.95 0.45 -14.0 0.35 Q-9.3 0.35 -8.75 1.55 -8.2 2.7 -2.65 6.25 2.95 9.75 11.5 6.75 20.0 3.7 20.45 10.6 20.85 17.45 19.15 18.75 17.45 20.0 7.65 19.6" fill="#ffffff" fill-rule="evenodd" stroke="none"/>
    <path d="M6.6 3.0 L6.6 2.85 6.75 2.85 6.85 -9.9 26.7 -11.35 26.7 -6.0 26.55 0.2 26.05 1.95 25.8 -9.15 11.0 -7.1 Q9.3 -6.7 8.75 -5.7 8.3 -4.75 8.3 -2.25 8.3 -1.3 8.65 -1.05 8.85 -0.9 9.4 -0.8 8.9 -0.4 8.4 1.05 L7.9 3.0 6.6 3.0 M-17.25 -11.4 L-0.05 -10.5 -0.05 2.2 Q0.15 2.85 0.7 2.95 L1.4 2.75 1.45 -2.35 1.7 -0.2 1.65 2.15 1.5 3.5 -0.5 3.5 -1.0 -0.5 -2.0 -0.55 -3.65 -0.7 Q-4.35 -0.85 -4.35 -1.05 L-3.65 -1.4 -2.0 -1.55 -1.35 -1.5 -1.6 -8.55 -11.65 -9.0 -17.25 -9.5 -17.25 -11.4 M12.4 -0.95 Q12.4 -1.2 13.0 -1.35 L14.45 -1.55 15.9 -1.35 Q16.5 -1.2 16.5 -0.95 16.5 -0.7 15.9 -0.5 L14.45 -0.35 13.0 -0.5 12.4 -0.95 M19.6 -1.95 L23.3 -1.95 23.3 -0.95 19.6 -0.95 19.6 -1.95 M-8.25 27.45 Q-2.35 30.05 4.2 30.05 L9.75 29.55 20.8 27.05 23.4 20.8 24.55 15.35 Q25.3 11.4 26.1 2.7 L25.85 8.8 Q25.0 16.4 23.3 23.9 L21.95 28.75 Q20.35 32.05 18.5 32.9 17.0 33.55 11.9 34.5 L5.6 35.4 -2.55 34.7 -2.55 34.65 -8.25 27.5 -8.25 27.45 M-16.9 -1.65 L-17.0 -3.05 -14.6 -3.05 -14.6 -1.65 -16.9 -1.65 M-10.85 -1.1 L-11.45 -1.55 -10.85 -2.0 -9.4 -2.2 -7.95 -2.0 -7.35 -1.55 -7.95 -1.1 -9.4 -0.9 -10.85 -1.1" fill="#8a8a8a" fill-rule="evenodd" stroke="none"/>
    <path d="M5.35 -7.4 L5.4 2.45 1.65 2.15 1.7 -0.2 1.45 -2.35 1.45 -8.05 5.35 -7.4 M12.4 -0.95 L13.0 -0.5 14.45 -0.35 15.9 -0.5 Q16.5 -0.7 16.5 -0.95 16.5 -1.2 15.9 -1.35 L14.45 -1.55 13.0 -1.35 Q12.4 -1.2 12.4 -0.95 M19.6 -1.95 L19.6 -0.95 23.3 -0.95 23.3 -1.95 19.6 -1.95 M-2.0 -0.55 Q-2.0 1.9 -1.4 4.0 L10.9 4.0 10.9 2.95 Q10.1 0.2 10.1 -3.15 10.1 -4.5 13.2 -5.2 L19.65 -5.8 Q22.7 -5.8 23.35 -3.45 L23.6 2.15 23.7 9.0 Q24.0 15.25 20.95 20.85 15.9 23.95 3.15 23.95 -6.6 23.95 -12.9 19.55 -14.8 15.15 -15.55 10.4 -16.5 4.4 -16.9 -1.65 L-14.6 -1.65 -14.6 -3.05 -17.0 -3.05 -17.2 -7.55 -11.45 -6.85 Q-3.3 -5.15 -2.0 -1.55 L-3.65 -1.4 -4.35 -1.05 Q-4.35 -0.85 -3.65 -0.7 L-2.0 -0.55 M7.9 3.0 L8.05 3.0 7.9 3.0 6.6 3.0 7.9 3.0 M7.65 19.6 Q17.45 20.0 19.15 18.75 20.85 17.45 20.45 10.6 20.0 3.7 11.5 6.75 2.95 9.75 -2.65 6.25 -8.2 2.7 -8.75 1.55 -9.3 0.35 -14.0 0.35 L-14.95 0.45 -15.25 0.55 Q-14.4 10.6 -7.55 15.4 -2.15 19.15 7.65 19.6 M-10.85 -1.1 L-9.4 -0.9 -7.95 -1.1 -7.35 -1.55 -7.95 -2.0 -9.4 -2.2 -10.85 -2.0 -11.45 -1.55 -10.85 -1.1" fill="#e0e0e0" fill-rule="evenodd" stroke="none"/>
    <path d="M5.4 2.45 L6.15 3.0 6.6 3.0 7.9 3.0 8.05 3.0 7.9 3.0 8.4 1.05 Q8.9 -0.4 9.4 -0.8 8.85 -0.9 8.65 -1.05 8.3 -1.3 8.3 -2.25 8.3 -4.75 8.75 -5.7 9.3 -6.7 11.0 -7.1 L25.8 -9.15 26.05 1.95 26.1 2.7 Q25.3 11.4 24.55 15.35 L23.4 20.8 20.8 27.05 9.75 29.55 4.2 30.05 Q-2.35 30.05 -8.25 27.45 L-9.1 26.3 Q-11.35 23.05 -12.9 19.6 L-12.9 19.55 Q-6.6 23.95 3.15 23.95 15.9 23.95 20.95 20.85 24.0 15.25 23.7 9.0 L23.6 2.15 23.35 -3.45 Q22.7 -5.8 19.65 -5.8 L13.2 -5.2 Q10.1 -4.5 10.1 -3.15 10.1 0.2 10.9 2.95 L10.9 4.0 -1.4 4.0 Q-2.0 1.9 -2.0 -0.55 L-1.0 -0.5 -0.5 3.5 1.5 3.5 1.65 2.15 5.4 2.45 M-17.2 -7.55 L-17.25 -9.5 -11.65 -9.0 -1.6 -8.55 -1.35 -1.5 -2.0 -1.55 Q-3.3 -5.15 -11.45 -6.85 L-17.2 -7.55" fill="#b4b4b4" fill-rule="evenodd" stroke="none"/>
  </g>
</svg>
