<?xml version="1.0" encoding="UTF-8" standalone="no"?>
<svg xmlns:ffdec="https://www.free-decompiler.com/flash" xmlns:xlink="http://www.w3.org/1999/xlink" ffdec:objectType="shape" height="175.2px" width="157.3px" xmlns="http://www.w3.org/2000/svg">
  <g transform="matrix(1.0, 0.0, 0.0, 1.0, 67.5, 138.8)">
    <path d="M42.2 -37.9 L42.15 -38.9 41.65 -39.75 Q41.25 -40.1 40.8 -40.1 40.3 -40.1 39.95 -39.75 39.6 -39.4 39.4 -38.75 L35.0 -37.3 32.0 -36.55 35.4 -33.5 Q35.4 -31.0 36.95 -29.25 38.5 -27.5 40.7 -27.5 38.4 -26.65 33.85 -31.25 31.6 -33.6 29.7 -36.1 L18.3 -34.55 17.55 -27.45 17.35 -29.0 16.65 -27.2 16.25 -25.7 Q16.25 -25.05 16.6 -24.2 17.05 -23.25 17.8 -22.65 L14.0 -21.0 16.1 -34.4 10.1 -34.05 -3.0 -33.75 -4.2 -33.75 Q-8.5 -34.0 -11.25 -31.0 -13.85 -27.3 -15.55 -25.95 -16.9 -24.85 -18.2 -21.95 L-18.95 -20.15 -25.35 -9.9 -13.2 -19.25 -13.2 -19.15 -13.2 -18.9 -13.2 -18.75 -15.6 -13.6 Q-16.7 -12.45 -18.35 -11.3 -21.2 -9.3 -25.2 -7.4 L-26.25 -6.9 -27.05 -6.6 -28.75 -6.15 -30.4 -6.45 Q-32.5 -7.25 -34.75 -10.05 L-34.85 -10.2 -35.05 -10.4 -37.45 -14.9 Q-38.45 -17.85 -38.25 -21.2 L-39.05 -23.6 Q-37.2 -24.6 -36.2 -24.6 -35.6 -24.6 -35.4 -22.9 L-35.25 -21.95 -34.15 -12.65 -33.25 -9.65 Q-32.35 -7.75 -31.35 -7.75 -30.7 -7.75 -30.0 -8.1 L-28.65 -9.1 Q-26.25 -9.2 -24.7 -11.3 L-21.8 -16.8 -18.9 -21.95 Q-14.5 -28.85 -7.85 -34.4 L-7.15 -35.0 Q-7.25 -35.35 -9.0 -34.6 L-10.8 -33.7 -10.3 -34.3 -12.15 -34.6 Q-15.75 -35.25 -20.7 -33.95 L-17.45 -35.75 Q-17.5 -36.0 -29.25 -32.4 L-28.1 -32.95 -22.9 -35.05 Q-21.75 -34.95 -21.05 -35.65 L-19.8 -36.0 -21.0 -36.25 Q-21.0 -37.1 -21.5 -37.95 L-20.45 -37.95 -15.25 -37.55 -8.8 -36.75 -8.55 -36.7 -3.8 -36.2 -1.3 -36.05 Q3.3 -35.85 8.45 -36.05 L10.15 -36.15 10.2 -36.15 10.8 -36.2 11.4 -36.25 14.35 -36.55 19.9 -37.4 24.05 -38.25 31.85 -40.2 43.05 -42.95 Q47.8 -43.95 49.95 -43.95 L62.25 -42.75 66.85 -41.95 Q76.3 -40.15 82.1 -37.1 L82.6 -36.85 Q81.05 -36.3 75.55 -37.4 L68.6 -38.7 68.25 -39.6 65.5 -38.9 Q62.9 -39.1 55.0 -40.8 L45.55 -42.0 45.25 -42.3 43.2 -40.7 51.25 -37.5 50.0 -37.8 Q51.75 -36.4 54.9 -34.7 58.75 -32.7 61.6 -32.1 59.25 -29.7 51.9 -32.6 46.25 -34.85 42.2 -37.9 M21.2 -18.5 L22.35 -15.5 Q23.25 -13.35 23.75 -12.7 24.05 -10.95 24.95 -9.35 25.95 -7.55 27.3 -6.9 27.9 -6.6 28.6 -6.5 29.65 -6.4 30.6 -6.9 31.6 -7.4 32.5 -8.6 34.15 -10.9 34.3 -14.55 34.3 -18.85 36.75 -21.95 L37.05 -22.3 Q39.8 -25.5 43.7 -25.5 L45.0 -25.3 Q46.45 -24.9 47.55 -23.5 L48.5 -21.95 Q49.15 -20.5 49.15 -18.75 L51.8 -12.0 Q52.85 -14.3 55.15 -21.25 L55.65 -19.6 57.5 -21.95 59.4 -25.8 Q61.45 -30.4 63.2 -31.25 64.7 -29.85 66.85 -25.25 L67.15 -24.6 Q69.3 -19.7 70.0 -19.3 70.0 -18.5 71.3 -17.95 72.55 -17.4 74.35 -17.4 L74.6 -15.75 70.85 -15.5 Q68.3 -15.5 64.95 -17.1 61.1 -18.95 60.45 -21.2 L64.8 -19.75 63.15 -27.45 64.15 -29.55 63.8 -30.45 61.75 -28.9 Q61.55 -28.75 61.3 -27.6 L59.85 -21.95 56.6 -11.25 Q54.3 -8.3 49.85 -9.8 45.85 -12.85 39.6 -15.35 L39.4 -15.45 39.55 -17.85 Q41.0 -17.55 42.8 -16.45 L45.2 -14.6 41.35 -22.85 42.65 -24.25 Q42.2 -24.95 41.2 -24.95 39.65 -24.95 38.85 -21.95 L38.8 -21.85 37.75 -15.05 37.7 -14.65 37.2 -12.15 Q36.3 -8.65 34.8 -6.9 33.35 -5.2 31.25 -5.2 29.8 -5.2 26.7 -6.5 L14.45 -13.0 13.65 -13.45 14.2 -14.65 16.85 -13.3 Q19.45 -11.8 21.15 -10.2 L19.85 -14.2 Q18.3 -18.25 17.15 -18.25 L17.45 -18.55 17.7 -19.35 Q14.45 -17.65 12.4 -14.5 L9.5 -8.85 8.45 -6.9 Q7.45 -5.3 6.4 -4.4 L6.2 -4.25 Q3.85 -2.3 -0.3 -2.3 -2.2 -2.3 -4.6 -4.55 L-6.75 -6.9 -7.05 -7.25 -7.2 -7.45 -8.5 -9.25 -9.5 -10.9 Q-12.15 -15.7 -13.1 -21.8 L-13.25 -21.0 -15.0 -24.85 -17.0 -22.65 -15.3 -25.1 Q-13.7 -27.0 -13.05 -27.0 -12.4 -27.0 -11.3 -25.85 L-10.35 -24.75 -5.45 -7.65 -4.7 -6.9 Q-3.85 -6.1 -2.6 -5.35 -0.8 -4.25 0.35 -4.25 2.25 -4.25 4.05 -6.2 L4.65 -6.9 Q6.7 -9.45 9.1 -14.75 L12.0 -18.9 Q11.9 -18.1 12.15 -17.7 L12.45 -17.5 Q13.9 -19.5 16.75 -20.95 17.85 -20.95 19.35 -19.95 L21.2 -18.5 M-7.8 -4.9 L-5.25 -2.5 -9.6 0.35 Q-13.1 2.4 -15.7 2.4 -17.7 2.4 -19.0 0.25 -20.35 -2.0 -20.35 -5.5 L-19.95 -6.9 Q-19.1 -9.05 -16.75 -11.0 L-16.6 -11.15 Q-16.6 -9.4 -16.95 -7.25 L-16.95 -6.9 Q-17.15 -4.6 -16.2 -2.15 -15.25 0.5 -13.5 1.15 -11.8 1.75 -10.35 0.0 -8.9 -1.75 -8.45 -5.55 L-7.8 -4.9 M23.2 -5.05 L24.1 -4.6 25.0 -4.3 19.55 -0.25 Q17.0 1.75 13.8 1.75 12.25 1.75 10.3 0.85 7.6 -0.35 6.55 -2.6 7.85 -3.4 9.6 -5.15 10.7 -3.1 12.7 -1.55 14.4 -0.25 15.35 -0.25 L18.0 -0.75 Q20.9 -1.7 22.7 -4.2 L23.2 -5.05 M43.55 -12.15 L46.6 -9.55 Q48.95 -7.4 49.9 -7.2 L50.2 -6.9 Q51.1 -6.0 52.5 -6.0 53.2 -6.0 54.25 -6.9 L55.2 -7.8 57.45 -9.4 Q58.4 -11.15 59.6 -18.35 61.05 -17.95 61.5 -17.35 L61.7 -16.8 61.7 -16.7 61.7 -16.55 61.7 -16.45 61.55 -15.3 61.55 -15.25 60.95 -13.5 60.85 -13.25 Q59.7 -10.9 57.1 -8.45 L55.3 -6.9 Q51.95 -4.25 49.2 -4.25 48.3 -4.25 43.65 -6.5 L42.85 -6.9 Q38.8 -8.95 38.8 -9.7 38.8 -10.7 39.35 -12.4 L46.15 -7.85 43.55 -12.15 M62.1 -12.8 L62.05 -12.8 62.25 -13.95 71.2 -11.8 69.85 -13.65 74.2 -13.7 74.45 -13.3 Q73.9 -13.3 73.7 -12.7 73.95 -12.05 74.95 -11.55 75.95 -11.05 77.35 -10.9 77.95 -11.1 79.35 -12.4 80.9 -13.8 81.55 -14.95 L83.3 -14.55 83.2 -14.3 Q81.75 -11.5 79.25 -9.95 77.15 -8.65 75.0 -8.65 74.4 -8.3 73.55 -8.65 L62.1 -12.8 M84.35 -15.8 Q83.2 -15.85 82.3 -16.25 L82.1 -16.35 79.85 -17.55 80.45 -19.3 86.55 -19.15 Q86.2 -23.95 85.55 -25.0 L83.2 -28.95 84.45 -28.6 85.75 -28.0 86.2 -27.6 Q88.35 -25.45 88.35 -19.05 88.35 -17.75 86.85 -16.7 85.55 -15.8 84.55 -15.8 L84.35 -15.8 M83.2 -30.7 L82.9 -30.05 82.05 -28.15 80.3 -23.85 Q77.5 -16.65 74.65 -15.75 L77.1 -23.15 79.25 -31.1 79.6 -28.5 Q79.8 -31.3 81.35 -32.7 82.6 -33.9 84.4 -33.9 85.25 -33.9 85.75 -33.05 L85.8 -33.0 86.0 -32.55 86.05 -32.55 87.75 -27.7 Q86.75 -29.25 85.1 -30.15 L83.35 -30.85 83.2 -30.7 M-58.5 -31.3 Q-58.05 -31.65 -56.95 -32.0 L-56.0 -32.25 -57.4 -30.75 -58.5 -31.3 M-62.35 -28.2 Q-61.85 -28.7 -61.35 -28.65 -59.65 -27.25 -59.0 -27.8 -59.65 -25.65 -60.5 -25.15 L-60.6 -25.1 -60.7 -25.05 -60.85 -25.05 -60.9 -25.05 -61.0 -25.05 Q-62.2 -25.05 -64.1 -23.25 L-64.4 -22.8 -64.9 -22.15 Q-63.65 -27.0 -62.35 -28.2 M-64.8 -20.05 L-64.5 -20.35 -64.45 -20.35 -63.25 -21.45 Q-61.8 -22.6 -60.25 -23.05 L-62.5 -19.05 Q-64.3 -15.95 -63.7 -13.35 L-58.3 -12.75 -57.85 -11.9 -57.45 -10.9 Q-59.95 -9.7 -61.2 -9.7 -62.7 -9.7 -64.1 -10.8 -65.75 -12.05 -65.75 -13.8 L-65.45 -17.45 Q-65.2 -19.45 -64.8 -20.05 M-52.55 -8.45 L-52.65 -8.5 -52.7 -8.5 Q-53.35 -8.7 -54.35 -9.2 L-52.5 -8.95 -45.7 -9.85 -44.8 -10.05 Q-40.55 -11.1 -39.35 -12.15 L-39.35 -12.05 Q-39.9 -10.05 -43.85 -8.75 L-45.7 -8.2 -49.25 -7.8 -52.55 -8.45 M-38.95 -14.65 L-39.55 -14.1 Q-40.2 -13.7 -43.3 -12.45 L-47.9 -10.65 Q-50.15 -9.85 -50.85 -9.85 -52.35 -9.85 -53.75 -10.65 -55.0 -11.35 -56.2 -12.75 L-56.3 -12.9 -57.55 -14.75 -58.4 -16.65 -58.7 -17.95 -58.75 -17.95 Q-59.1 -19.6 -59.1 -21.5 -59.1 -26.45 -56.9 -28.8 -54.95 -30.85 -50.5 -31.6 L-50.15 -31.65 -47.5 -32.3 -45.95 -32.65 -39.05 -34.4 -37.6 -34.8 -37.0 -34.95 Q-25.1 -38.0 -23.15 -38.0 L-23.7 -36.6 -25.0 -36.0 Q-30.1 -33.8 -43.35 -33.15 -47.3 -32.45 -50.15 -30.7 -55.35 -27.55 -56.75 -20.95 -56.8 -18.7 -55.2 -15.55 -53.75 -12.55 -52.65 -12.0 -49.5 -12.2 -49.8 -14.5 L-46.95 -19.4 -42.6 -23.2 -43.4 -21.95 Q-46.3 -17.05 -46.5 -15.85 -45.3 -18.7 -42.3 -21.25 L-41.45 -21.95 -39.25 -23.5 -40.3 -22.15 -40.5 -21.95 Q-42.3 -19.95 -46.9 -13.05 L-38.75 -15.5 Q-38.7 -15.05 -38.95 -14.65 M-27.0 -38.65 L-24.0 -38.55 Q-28.35 -36.85 -35.35 -35.75 L-44.3 -35.0 Q-37.25 -37.3 -32.4 -38.2 L-28.9 -38.7 -27.0 -38.65 M-37.3 -10.35 L-37.15 -9.95 -37.25 -10.55 -37.4 -11.1 -36.55 -9.6 Q-35.2 -7.75 -33.35 -6.15 L-32.35 -5.5 -32.2 -5.4 -30.5 -4.55 -30.4 -4.5 -28.75 -3.5 Q-29.55 -3.0 -30.4 -2.7 -32.95 -1.8 -36.1 -3.0 -38.35 -6.35 -37.3 -10.35" fill="#f3c405" fill-rule="evenodd" stroke="none"/>
    <path d="M8.45 -127.35 L8.0 -125.95 6.95 -123.6 5.0 -125.05 5.1 -125.2 Q5.95 -126.9 6.3 -128.5 L7.05 -128.25 8.45 -127.35 M-9.2 -128.8 L-9.05 -129.05 -7.4 -131.45 -6.85 -131.3 -8.1 -129.45 -8.5 -128.7 -9.2 -128.8 M15.65 -110.6 L16.15 -110.55 16.5 -110.1 16.5 -109.55 15.9 -108.4 15.4 -107.5 16.0 -107.2 17.4 -106.5 17.75 -106.05 17.75 -105.5 17.3 -105.1 16.75 -105.15 16.2 -105.4 14.75 -106.15 13.65 -103.9 13.15 -103.45 12.6 -103.55 12.25 -103.95 12.25 -104.55 13.4 -106.85 11.55 -107.85 11.2 -108.25 11.2 -108.8 11.7 -109.15 12.25 -109.15 14.1 -108.15 15.15 -110.2 15.55 -110.6 15.65 -110.6 M24.1 -67.0 L23.65 -66.6 23.1 -66.65 21.05 -67.55 20.05 -65.25 19.6 -64.85 19.05 -64.9 18.6 -65.3 18.7 -65.9 19.7 -68.15 17.8 -69.05 17.4 -69.45 17.35 -69.5 17.4 -70.05 Q17.55 -70.35 17.85 -70.4 L18.4 -70.45 20.35 -69.5 21.3 -71.6 21.7 -72.0 22.3 -72.0 22.6 -71.8 22.65 -71.6 22.7 -71.35 22.65 -71.05 21.7 -68.9 23.7 -68.0 23.8 -67.95 24.1 -67.6 24.1 -67.0 M51.25 -37.5 L43.2 -40.7 45.25 -42.3 45.55 -42.0 Q47.55 -40.05 54.2 -37.3 L51.25 -37.5 M-21.0 -36.25 L-19.8 -36.0 -21.05 -35.65 -21.0 -36.25 M-22.9 -35.05 L-28.1 -32.95 -25.0 -36.0 -23.7 -36.6 -22.9 -35.05 M-12.15 -34.6 L-10.3 -34.3 -10.8 -33.7 -10.95 -33.6 -16.15 -29.65 -12.15 -34.6 M-28.65 -9.1 L-30.0 -8.1 Q-30.7 -7.75 -31.35 -7.75 -32.35 -7.75 -33.25 -9.65 L-34.15 -12.65 -33.6 -14.0 Q-33.15 -11.05 -32.1 -9.55 -31.55 -9.2 -31.1 -9.2 L-30.85 -9.35 -30.55 -9.85 Q-30.6 -10.55 -32.0 -12.85 -32.85 -15.2 -30.75 -16.8 -29.8 -15.9 -28.7 -15.7 -27.4 -16.05 -27.25 -17.15 -27.15 -17.65 -27.5 -19.2 L-24.2 -21.95 Q-20.05 -25.5 -17.1 -28.55 L-18.5 -26.4 -20.6 -21.95 Q-23.95 -15.0 -25.7 -13.65 L-28.65 -9.1 M-39.05 -23.6 L-38.25 -21.2 Q-38.65 -19.55 -38.75 -15.5 L-46.9 -13.05 Q-42.3 -19.95 -40.5 -21.95 L-40.3 -22.15 -39.25 -23.5 -39.05 -23.6 M-13.2 -19.25 L-25.35 -9.9 -18.95 -20.15 -19.2 -18.35 -18.95 -18.3 -17.0 -22.65 -15.0 -24.85 -13.25 -21.0 -13.2 -19.25 M-3.0 -33.75 L10.1 -34.05 Q8.85 -32.25 8.15 -28.55 7.65 -25.9 7.65 -24.1 L7.85 -21.95 Q8.15 -19.4 9.1 -14.75 6.7 -9.45 4.65 -6.9 L4.05 -6.2 Q2.25 -4.25 0.35 -4.25 -0.8 -4.25 -2.6 -5.35 -3.85 -6.1 -4.7 -6.9 L-5.45 -7.65 Q-5.55 -10.6 -3.65 -20.5 L-3.35 -21.95 Q-1.85 -30.1 -2.0 -31.0 L-1.85 -31.35 -1.8 -32.05 Q-1.8 -32.7 -2.15 -33.15 L-3.0 -33.75 M35.4 -33.5 L32.0 -36.55 35.0 -37.3 43.75 -30.6 Q43.75 -30.25 44.1 -30.0 L44.85 -29.8 Q45.6 -29.4 50.8 -27.9 55.2 -25.85 55.2 -21.95 L55.15 -21.25 Q52.85 -14.3 51.8 -12.0 L49.15 -18.75 Q49.15 -20.5 48.5 -21.95 L47.55 -23.5 Q46.45 -24.9 45.0 -25.3 L43.25 -27.1 Q38.3 -32.0 35.4 -33.5 M2.75 -28.85 Q2.2 -28.35 2.2 -27.6 2.2 -26.85 2.75 -26.3 3.25 -25.8 3.95 -25.8 4.65 -25.8 5.2 -26.3 5.7 -26.85 5.7 -27.6 5.7 -28.35 5.2 -28.85 4.65 -29.4 3.95 -29.4 3.25 -29.4 2.75 -28.85 M23.75 -12.7 L24.05 -12.45 22.75 -18.15 28.55 -16.65 Q28.4 -14.6 28.65 -13.95 29.05 -12.85 30.75 -12.85 32.05 -12.85 32.6 -13.65 L33.25 -12.25 34.3 -14.55 Q34.15 -10.9 32.5 -8.6 31.6 -7.4 30.6 -6.9 29.65 -6.4 28.6 -6.5 27.9 -6.6 27.3 -6.9 25.95 -7.55 24.95 -9.35 24.05 -10.95 23.75 -12.7 M41.35 -22.85 L45.2 -14.6 42.8 -16.45 Q41.0 -17.55 39.55 -17.85 L41.35 -22.85 M63.15 -27.45 L64.8 -19.75 60.45 -21.2 63.15 -27.45 M74.35 -17.4 Q72.55 -17.4 71.3 -17.95 70.0 -18.5 70.0 -19.3 70.0 -25.0 66.85 -29.45 L64.5 -32.15 61.6 -34.5 66.85 -32.85 77.3 -30.15 Q76.3 -27.25 75.4 -23.3 74.65 -19.85 74.35 -17.4 M17.15 -18.25 Q18.3 -18.25 19.85 -14.2 L21.15 -10.2 Q19.45 -11.8 16.85 -13.3 L14.2 -14.65 17.15 -18.25 M2.7 -12.0 Q2.1 -12.6 1.25 -12.6 0.4 -12.6 -0.15 -12.0 -0.75 -11.45 -0.75 -10.6 -0.75 -9.75 -0.15 -9.15 0.4 -8.6 1.25 -8.6 2.1 -8.6 2.7 -9.15 3.25 -9.75 3.25 -10.6 3.25 -11.45 2.7 -12.0 M9.6 -5.15 L10.9 -6.9 11.25 -7.35 Q11.95 -8.6 13.05 -12.6 L21.1 -6.4 22.95 -5.2 22.7 -4.2 Q20.9 -1.7 18.0 -0.75 L15.35 -0.25 Q14.4 -0.25 12.7 -1.55 10.7 -3.1 9.6 -5.15 M18.1 -6.55 L18.1 -6.9 Q17.95 -7.6 17.45 -8.1 16.8 -8.75 15.9 -8.75 15.0 -8.75 14.35 -8.1 13.85 -7.6 13.75 -6.9 L13.7 -6.55 Q13.7 -5.65 14.35 -5.0 15.0 -4.35 15.9 -4.35 16.8 -4.35 17.45 -5.0 18.1 -5.65 18.1 -6.55 M39.35 -13.85 L39.35 -14.5 43.55 -12.15 46.15 -7.85 39.35 -12.4 39.35 -13.85 M49.9 -7.2 L48.5 -9.35 49.05 -9.05 50.25 -8.45 52.2 -7.75 53.65 -7.6 55.2 -7.8 54.25 -6.9 Q53.2 -6.0 52.5 -6.0 51.1 -6.0 50.2 -6.9 L49.9 -7.2 M62.25 -13.95 L62.35 -16.35 63.75 -15.6 Q66.85 -14.15 69.85 -13.65 L71.2 -11.8 62.25 -13.95 M74.2 -13.7 L76.5 -14.3 Q78.15 -15.0 78.75 -16.3 L79.5 -15.85 81.25 -15.05 79.3 -12.45 Q78.1 -11.25 77.35 -10.9 75.95 -11.05 74.95 -11.55 73.95 -12.05 73.7 -12.7 73.9 -13.3 74.45 -13.3 L74.2 -13.7 M80.45 -19.3 Q80.45 -22.4 81.55 -25.55 L82.15 -27.1 82.15 -27.05 82.4 -27.65 83.15 -28.9 83.2 -28.95 85.55 -25.0 Q86.2 -23.95 86.55 -19.15 L80.45 -19.3 M69.35 -27.85 Q69.35 -26.85 70.1 -26.1 70.8 -25.4 71.8 -25.4 72.8 -25.4 73.55 -26.1 74.25 -26.85 74.25 -27.85 74.25 -28.85 73.55 -29.55 72.8 -30.3 71.8 -30.3 70.8 -30.3 70.1 -29.55 69.35 -28.85 69.35 -27.85 M52.95 -19.95 L52.0 -19.65 Q51.6 -19.4 51.6 -19.0 51.6 -18.6 52.0 -18.3 L52.95 -18.05 53.9 -18.3 Q54.3 -18.6 54.3 -19.0 54.3 -19.4 53.9 -19.65 53.5 -19.95 52.95 -19.95 M-60.25 -23.05 L-60.15 -22.65 -59.55 -18.8 -59.5 -18.35 -59.4 -17.1 -59.3 -16.05 -58.3 -12.75 -63.7 -13.35 Q-64.3 -15.95 -62.5 -19.05 L-60.25 -23.05 M-46.95 -19.4 L-49.8 -14.5 Q-54.35 -12.3 -55.0 -16.3 -55.3 -18.3 -54.7 -20.85 -54.7 -21.85 -53.25 -22.25 -53.1 -21.0 -52.7 -20.4 -52.0 -19.4 -50.5 -19.4 L-49.65 -19.45 -48.95 -19.65 Q-48.75 -20.7 -49.0 -21.95 L-49.45 -23.5 -45.75 -24.1 -44.6 -24.0 Q-45.5 -23.25 -46.05 -21.95 L-46.15 -21.75 -46.95 -19.4 M-15.55 -6.45 Q-13.2 -5.5 -12.05 -6.9 L-11.85 -7.2 Q-11.15 -8.3 -11.15 -9.9 L-9.35 -6.9 -8.45 -5.55 Q-8.9 -1.75 -10.35 0.0 -11.8 1.75 -13.5 1.15 -15.25 0.5 -16.2 -2.15 -17.15 -4.6 -16.95 -6.9 L-16.95 -7.25 -16.85 -6.9 -16.4 -4.9 Q-15.9 -5.6 -15.55 -6.45" fill="#f8e829" fill-rule="evenodd" stroke="none"/>
    <path d="M-0.2 -137.0 L-1.9 -136.15 -3.15 -135.4 Q-5.55 -133.85 -7.4 -131.45 L-9.05 -129.05 -9.2 -128.8 -11.25 -124.4 -11.7 -122.95 -12.0 -121.8 -12.55 -118.8 -12.55 -118.75 -12.6 -118.15 -12.65 -118.0 -12.65 -117.8 -12.65 -117.65 -12.3 -113.9 -11.95 -112.8 -11.9 -112.8 -11.1 -111.25 -10.5 -110.45 -6.6 -110.95 Q-5.2 -111.3 -3.9 -111.95 L-3.55 -112.15 -3.5 -112.15 -3.45 -112.2 Q-2.5 -112.75 -1.55 -113.4 L-0.85 -113.95 Q1.4 -115.9 3.25 -118.15 L4.8 -120.15 6.4 -122.65 6.95 -123.6 8.0 -125.95 8.45 -127.35 Q9.0 -129.6 8.85 -131.7 8.7 -133.75 7.9 -135.1 L7.75 -135.35 Q7.05 -136.35 5.95 -136.95 L5.45 -137.2 2.75 -137.65 -0.2 -137.0 M-22.45 -107.75 L-22.0 -108.55 -22.0 -108.5 -20.6 -110.8 -20.65 -110.75 -11.75 -125.85 -9.9 -129.55 Q-6.95 -134.6 -2.35 -137.05 L-2.4 -137.0 -0.65 -137.9 -0.7 -137.85 Q1.25 -138.75 3.25 -138.8 L4.1 -138.75 4.15 -138.75 Q9.25 -137.95 15.45 -128.85 21.85 -119.45 30.0 -95.85 L30.05 -95.8 44.55 -45.2 44.25 -45.15 43.1 -44.8 28.6 -95.4 28.6 -95.35 Q20.55 -118.65 14.2 -128.0 11.75 -131.55 9.55 -133.75 L9.85 -131.75 Q10.1 -128.3 8.5 -124.6 L7.25 -122.15 5.8 -119.9 Q3.25 -116.25 -0.2 -113.2 -4.85 -109.35 -10.75 -109.45 L-10.95 -109.5 -11.1 -109.6 -11.55 -110.1 Q-14.2 -113.6 -13.55 -118.9 L-13.35 -120.1 -19.35 -110.0 -20.7 -107.75 -20.75 -107.65 -21.15 -107.7 -22.45 -107.75 M46.2 -3.25 Q46.45 12.85 35.65 24.5 31.3 29.2 26.15 32.05 21.1 34.85 15.3 35.85 L9.4 36.4 Q2.2 36.5 -4.1 34.15 -7.1 33.0 -9.85 31.3 -13.75 28.9 -17.2 25.4 -28.35 14.1 -28.65 -2.0 L-26.95 -2.6 Q-27.55 3.3 -24.55 11.15 -21.55 19.0 -17.7 23.05 -18.2 22.95 -15.1 25.55 -10.9 29.0 -6.4 31.0 -3.75 32.6 -0.1 33.3 3.9 34.4 7.45 34.25 L15.45 34.0 Q20.75 33.1 24.5 30.65 30.7 27.0 34.5 23.1 41.75 14.05 43.05 9.0 44.35 3.9 43.45 -4.25 L46.2 -3.25 M-24.05 -40.9 L-23.95 -41.4 -23.95 -41.5 -23.95 -41.7 -21.65 -58.3 -21.8 -60.45 Q-22.4 -65.6 -25.45 -69.25 L-25.65 -69.45 Q-30.3 -73.75 -31.6 -79.15 L-30.05 -79.2 Q-28.7 -74.25 -24.4 -70.3 L-24.3 -70.2 -23.7 -69.45 Q-20.85 -65.65 -20.25 -60.45 L-20.15 -58.2 -20.15 -58.1 -22.45 -41.5 -22.5 -41.3 -22.5 -41.1 -22.6 -40.65 -24.05 -40.9 M-31.85 -80.3 Q-33.0 -86.7 -29.85 -94.5 L-29.8 -94.55 -27.3 -99.65 -27.35 -99.55 -27.05 -100.1 -27.15 -100.0 -23.8 -105.55 -22.35 -105.25 -22.2 -105.2 -25.85 -99.2 -25.95 -99.1 -25.95 -99.0 -28.45 -93.9 Q-31.15 -87.3 -30.5 -81.75 L-30.8 -81.7 -32.0 -81.4 -31.85 -80.3" fill="#0a0a0a" fill-rule="evenodd" stroke="none"/>
    <path d="M-20.75 -107.65 L-20.7 -107.75 -19.35 -110.0 -13.35 -120.1 -13.55 -118.9 -18.55 -109.55 -19.55 -107.6 -20.75 -107.65 M8.5 -124.6 Q10.1 -128.3 9.85 -131.75 L9.55 -133.75 Q11.75 -131.55 14.2 -128.0 20.55 -118.65 28.6 -95.35 L28.6 -95.4 43.1 -44.8 36.3 -42.8 Q35.7 -44.55 34.5 -46.35 L32.1 -50.25 Q32.1 -51.2 32.85 -55.15 32.85 -56.0 31.9 -57.8 30.8 -59.75 30.65 -60.65 30.1 -63.8 29.3 -65.9 28.8 -67.25 28.45 -69.45 L28.2 -71.1 27.35 -76.4 24.95 -87.0 Q23.45 -93.25 21.8 -97.4 L20.55 -96.0 Q19.65 -94.75 19.35 -94.75 17.25 -94.75 16.55 -101.95 L16.2 -105.4 16.75 -105.15 17.3 -105.1 17.75 -105.5 17.75 -106.05 17.4 -106.5 16.0 -107.2 15.9 -108.4 16.5 -109.55 16.5 -110.1 16.15 -110.55 15.65 -110.6 15.25 -113.35 Q14.75 -113.2 14.1 -112.65 L13.8 -115.6 13.45 -116.2 12.95 -116.25 12.45 -116.05 12.3 -115.45 12.65 -112.1 Q12.7 -111.8 12.9 -111.65 L13.0 -111.6 Q11.95 -110.5 10.35 -110.5 9.55 -110.5 9.2 -112.1 L9.0 -113.75 9.4 -116.2 9.75 -119.15 Q9.75 -121.05 8.5 -124.6 M-24.05 -79.1 Q-22.0 -73.85 -16.1 -73.3 L-5.9 -72.45 Q-4.4 -72.4 -4.3 -71.55 -4.25 -70.7 -5.65 -69.9 -6.05 -69.7 -6.55 -69.45 -7.9 -68.85 -10.05 -68.1 -11.55 -67.6 -12.25 -66.7 L-13.05 -65.1 -14.2 -61.6 -14.25 -60.45 -14.3 -58.75 Q-12.85 -56.15 -12.85 -55.05 -12.85 -54.5 -13.85 -52.25 -14.9 -49.95 -14.9 -49.0 L-13.85 -47.7 Q-12.85 -46.55 -12.85 -46.05 -12.85 -45.65 -13.75 -43.7 L-14.55 -41.95 -14.65 -41.75 Q-14.65 -41.4 -13.45 -40.45 L-13.8 -40.75 -12.75 -40.25 -11.65 -39.1 -12.25 -39.55 -11.15 -38.7 -22.4 -40.6 -22.6 -40.65 -22.5 -41.1 -22.5 -41.3 -22.45 -41.5 -20.15 -58.1 -20.15 -58.2 -20.25 -60.45 Q-20.85 -65.65 -23.7 -69.45 L-24.3 -70.2 -24.4 -70.3 Q-28.7 -74.25 -30.05 -79.2 L-28.15 -79.25 -24.25 -79.15 -24.05 -79.1 M9.85 2.95 L13.5 3.6 Q14.95 3.6 19.4 1.95 L19.3 3.85 19.3 4.1 15.35 4.75 9.85 3.7 9.85 3.1 9.85 2.95 M29.45 -3.65 Q31.75 -3.7 34.1 -4.7 36.2 -5.6 37.25 -6.9 L37.65 -7.45 39.35 -6.3 37.85 7.35 Q37.9 2.95 36.7 1.05 35.55 -0.75 33.1 -0.75 L29.35 -0.4 29.45 -3.65 M25.75 24.2 L35.8 15.65 34.5 23.1 Q30.7 27.0 24.5 30.65 L25.75 24.2 M8.2 28.75 L16.35 27.6 15.45 34.0 7.45 34.25 8.2 28.75 M-0.2 28.05 L-0.1 33.3 Q-3.75 32.6 -6.4 31.0 L-8.25 24.4 -0.25 27.8 -0.2 28.05 M-22.2 -105.2 Q-21.5 -104.95 -21.05 -104.5 -25.3 -94.9 -25.2 -86.25 L-25.75 -85.8 -26.85 -84.6 -28.75 -82.7 Q-29.45 -82.1 -30.5 -81.75 -31.15 -87.3 -28.45 -93.9 L-25.95 -99.0 -25.95 -99.1 -25.85 -99.2 -22.2 -105.2 M-26.95 -2.6 Q-25.1 -3.15 -24.65 -3.95 -23.95 -5.25 -21.6 -6.8 L-21.6 -6.6 -21.9 -3.1 -21.5 -0.8 -20.95 1.1 Q-22.25 1.6 -22.65 2.1 -23.0 2.6 -23.0 3.85 -23.0 7.85 -21.1 12.25 -19.25 16.55 -17.1 17.8 L-15.1 25.55 Q-18.2 22.95 -17.7 23.05 -21.55 19.0 -24.55 11.15 -27.55 3.3 -26.95 -2.6" fill="#1c1c1c" fill-rule="evenodd" stroke="none"/>
    <path d="M-13.55 -118.9 Q-14.2 -113.6 -11.55 -110.1 L-12.4 -107.65 -12.55 -107.65 -16.7 -107.6 -19.55 -107.6 -18.55 -109.55 -13.55 -118.9 M5.8 -119.9 L7.25 -122.15 8.5 -124.6 Q9.75 -121.05 9.75 -119.15 L9.4 -116.2 9.0 -113.75 9.2 -112.1 Q9.55 -110.5 10.35 -110.5 11.95 -110.5 13.0 -111.6 L13.5 -111.45 Q13.8 -111.55 13.95 -111.8 L14.15 -112.3 14.1 -112.65 Q14.75 -113.2 15.25 -113.35 L15.65 -110.6 15.55 -110.6 15.15 -110.2 14.1 -108.15 12.25 -109.15 11.7 -109.15 11.2 -108.8 11.2 -108.25 11.55 -107.85 13.4 -106.85 12.25 -104.55 12.25 -103.95 12.6 -103.55 13.15 -103.45 13.65 -103.9 14.75 -106.15 16.2 -105.4 16.55 -101.95 Q17.25 -94.75 19.35 -94.75 19.65 -94.75 20.55 -96.0 L21.8 -97.4 Q23.45 -93.25 24.95 -87.0 L27.35 -76.4 28.2 -71.1 28.45 -69.45 Q28.8 -67.25 29.3 -65.9 30.1 -63.8 30.65 -60.65 30.8 -59.75 31.9 -57.8 32.85 -56.0 32.85 -55.15 32.1 -51.2 32.1 -50.25 L34.5 -46.35 Q35.7 -44.55 36.3 -42.8 L27.8 -40.25 14.7 -38.4 1.55 -37.35 -10.65 -38.65 -11.15 -38.7 -12.25 -39.55 -11.65 -39.1 -12.75 -40.25 -13.8 -40.75 -13.45 -40.45 Q-14.65 -41.4 -14.65 -41.75 L-14.55 -41.95 -13.75 -43.7 Q-12.85 -45.65 -12.85 -46.05 -12.85 -46.55 -13.85 -47.7 L-14.9 -49.0 Q-14.9 -49.95 -13.85 -52.25 -12.85 -54.5 -12.85 -55.05 -12.85 -56.15 -14.3 -58.75 L-14.25 -60.45 -14.2 -61.6 -13.05 -65.1 -12.25 -66.7 Q-11.55 -67.6 -10.05 -68.1 -7.9 -68.85 -6.55 -69.45 -6.05 -69.7 -5.65 -69.9 -4.25 -70.7 -4.3 -71.55 -4.4 -72.4 -5.9 -72.45 L-16.1 -73.3 Q-22.0 -73.85 -24.05 -79.1 L-21.2 -79.0 -20.8 -80.05 -20.75 -81.1 -22.35 -81.35 -23.5 -81.7 Q-24.0 -81.85 -24.15 -82.3 -24.35 -82.75 -24.05 -83.15 L-22.3 -85.75 -22.3 -85.8 -17.5 -90.3 -17.2 -90.4 -17.05 -90.3 -16.85 -89.65 -16.9 -88.8 -17.15 -86.25 Q-17.2 -84.15 -16.15 -82.6 L-15.2 -81.5 -16.0 -81.3 -17.4 -81.1 -17.55 -80.05 -17.35 -79.0 -14.45 -79.15 -11.1 -79.25 Q-7.0 -77.9 -0.05 -77.9 L5.6 -78.2 8.0 -78.55 Q10.5 -81.7 11.55 -85.8 L11.8 -86.95 11.5 -87.5 11.5 -97.05 11.75 -99.75 Q11.75 -101.75 11.3 -103.25 L7.9 -99.45 Q4.8 -96.15 3.4 -96.15 2.0 -96.15 1.75 -97.85 1.6 -98.7 1.75 -99.6 1.75 -102.05 2.45 -105.35 L4.75 -105.75 5.25 -106.8 5.35 -107.8 2.95 -107.65 3.8 -110.65 Q5.85 -117.4 5.85 -119.55 L5.8 -119.9 M15.9 -108.4 L16.0 -107.2 15.4 -107.5 15.9 -108.4 M16.15 -99.75 L15.95 -103.0 15.7 -103.45 15.15 -103.65 14.6 -103.4 14.45 -102.9 14.7 -99.65 14.9 -99.15 Q15.2 -98.9 15.5 -98.95 L16.0 -99.15 16.15 -99.75 M16.35 -84.85 L17.5 -87.15 19.5 -86.1 20.05 -86.1 20.45 -86.45 20.5 -87.0 20.1 -87.5 18.1 -88.45 19.2 -90.5 19.25 -91.05 18.85 -91.55 18.25 -91.55 17.9 -91.2 16.8 -89.15 14.9 -90.1 14.35 -90.15 13.9 -89.75 13.85 -89.2 14.2 -88.8 16.1 -87.85 15.0 -85.55 Q14.85 -85.25 14.95 -84.95 L15.3 -84.5 15.85 -84.45 16.35 -84.85 M15.0 -96.4 L15.35 -93.1 Q15.35 -92.8 15.6 -92.6 L16.2 -92.45 16.65 -92.75 Q16.9 -92.95 16.85 -93.25 L16.5 -96.55 16.2 -97.1 15.65 -97.2 15.1 -96.95 15.0 -96.4 M22.6 -71.8 L20.35 -80.3 Q18.95 -85.6 18.2 -86.6 17.35 -85.8 17.05 -85.0 L15.8 -80.5 Q15.05 -77.3 14.5 -76.0 13.4 -73.5 11.1 -71.5 L10.7 -71.5 9.9 -70.95 6.55 -69.45 4.0 -68.45 Q-3.75 -65.5 -4.45 -60.45 L-4.55 -59.35 Q-4.55 -57.6 -2.7 -56.6 -0.85 -55.6 -0.85 -53.9 -0.85 -52.7 -2.95 -51.1 -5.05 -49.55 -5.05 -48.5 L-3.8 -46.4 Q-2.55 -44.55 -2.55 -43.25 L-2.65 -41.95 -3.05 -40.5 Q-1.7 -38.75 8.5 -38.75 11.05 -38.75 18.75 -40.3 L25.5 -41.7 25.7 -41.4 26.3 -41.25 26.8 -41.5 26.9 -42.05 28.4 -42.5 30.6 -43.0 30.55 -43.3 Q30.45 -44.65 29.6 -45.25 L26.35 -47.0 Q25.8 -47.25 25.8 -48.1 L27.2 -47.5 27.75 -47.5 28.15 -47.9 28.15 -48.45 27.75 -48.9 26.3 -49.5 27.2 -50.5 Q28.55 -51.7 28.55 -52.65 L26.95 -53.7 Q25.3 -55.0 25.3 -56.85 L25.3 -61.15 Q25.45 -62.8 24.6 -65.45 L24.1 -67.0 24.1 -67.6 23.8 -67.95 23.3 -69.45 23.15 -69.8 22.7 -71.35 22.65 -71.6 22.6 -71.8 M29.35 -0.35 L29.35 -0.4 33.1 -0.75 Q35.55 -0.75 36.7 1.05 37.9 2.95 37.85 7.35 L37.1 11.5 36.05 14.9 35.8 15.65 25.75 24.2 25.75 24.1 Q27.35 19.15 28.45 10.6 29.35 3.55 29.35 -0.35 M17.15 22.9 L16.35 27.4 16.35 27.6 8.2 28.75 8.7 24.35 Q12.85 24.25 17.15 22.9 M9.85 3.7 L15.35 4.75 19.3 4.1 18.8 11.0 14.05 8.5 9.8 7.6 9.8 7.25 9.85 3.7 M-1.75 -0.7 L-1.55 3.05 -1.55 3.1 Q-8.55 4.3 -9.5 4.75 L-10.95 5.55 -11.1 3.15 Q-9.65 2.75 -7.3 1.1 L-4.1 -1.2 -2.4 -0.95 -1.75 -0.8 -1.75 -0.7 M-21.05 -104.5 L-20.75 -104.15 Q-20.25 -103.45 -19.85 -101.85 L-18.85 -97.85 -17.85 -93.25 -17.9 -92.95 -18.05 -92.65 -20.6 -90.35 -23.9 -87.4 -25.2 -86.25 Q-25.3 -94.9 -21.05 -104.5 M-13.25 -105.2 L-13.7 -103.8 -13.8 -104.3 -13.6 -104.9 -13.25 -105.2 M-20.95 1.1 L-20.85 1.2 -17.2 17.45 -17.1 17.8 Q-19.25 16.55 -21.1 12.25 -23.0 7.85 -23.0 3.85 -23.0 2.6 -22.65 2.1 -22.25 1.6 -20.95 1.1 M-9.15 19.9 Q-6.05 21.65 -3.45 22.6 L-0.45 23.45 -0.45 23.6 -0.25 27.8 -8.25 24.4 -8.35 23.95 -9.15 19.9" fill="#292929" fill-rule="evenodd" stroke="none"/>
    <path d="M-11.55 -110.1 L-11.1 -109.6 -10.95 -109.5 -10.75 -109.45 Q-4.85 -109.35 -0.2 -113.2 3.25 -116.25 5.8 -119.9 L5.85 -119.55 Q5.85 -117.4 3.8 -110.65 L2.95 -107.65 2.7 -107.65 -1.1 -107.6 -4.3 -107.7 -6.85 -107.8 -7.45 -106.8 -7.75 -105.75 -6.25 -105.5 -5.25 -105.3 -4.85 -105.0 Q-6.55 -105.45 -9.35 -105.05 L-11.25 -97.9 -12.0 -97.25 Q-12.05 -97.15 -12.25 -97.15 L-12.35 -97.25 -13.2 -100.95 -13.7 -103.8 -13.25 -105.2 -13.05 -105.3 -12.05 -105.5 -10.75 -105.75 -10.3 -106.85 Q-10.05 -107.55 -10.1 -107.8 L-12.4 -107.65 -11.55 -110.1 M2.45 -105.35 Q1.75 -102.05 1.75 -99.6 1.6 -98.7 1.75 -97.85 2.0 -96.15 3.4 -96.15 4.8 -96.15 7.9 -99.45 L11.3 -103.25 Q11.75 -101.75 11.75 -99.75 L11.5 -97.05 11.5 -87.5 11.8 -86.95 11.55 -85.8 Q10.5 -81.7 8.0 -78.55 L5.6 -78.2 -0.05 -77.9 Q-7.0 -77.9 -11.1 -79.25 L-9.8 -79.25 -5.6 -79.15 -2.35 -79.0 Q-1.95 -79.3 -1.85 -80.0 L-1.8 -81.1 -5.55 -81.75 Q-6.8 -82.2 -7.65 -83.35 L-8.95 -85.2 -6.55 -84.25 -1.3 -84.15 Q0.65 -84.15 2.95 -86.15 5.05 -88.05 5.05 -89.25 5.05 -90.45 3.8 -91.2 L1.05 -92.5 Q-2.9 -94.3 -2.75 -98.1 L-2.55 -100.3 Q-2.35 -102.0 -2.55 -102.9 L-1.0 -104.05 Q0.1 -104.75 1.35 -105.1 L2.45 -105.35 M-15.2 -81.5 L-16.15 -82.6 Q-17.2 -84.15 -17.15 -86.25 L-16.9 -88.8 -16.85 -89.65 -16.1 -86.35 -15.95 -85.8 -14.45 -82.85 -14.35 -82.25 Q-14.4 -81.85 -15.0 -81.6 L-15.2 -81.5 M18.85 -80.75 L18.65 -83.95 18.4 -84.45 Q18.2 -84.7 17.9 -84.6 L17.3 -84.4 17.2 -83.85 17.4 -80.6 17.6 -80.1 18.2 -79.9 18.7 -80.15 18.85 -80.75 M25.5 -41.7 L18.75 -40.3 Q11.05 -38.75 8.5 -38.75 -1.7 -38.75 -3.05 -40.5 L-2.65 -41.95 -2.55 -43.25 Q-2.55 -44.55 -3.8 -46.4 L-5.05 -48.5 Q-5.05 -49.55 -2.95 -51.1 -0.85 -52.7 -0.85 -53.9 -0.85 -55.6 -2.7 -56.6 -4.55 -57.6 -4.55 -59.35 L-4.45 -60.45 Q-3.75 -65.5 4.0 -68.45 L6.55 -69.45 9.9 -70.95 10.7 -71.5 11.1 -71.5 Q13.4 -73.5 14.5 -76.0 15.05 -77.3 15.8 -80.5 L17.05 -85.0 Q17.35 -85.8 18.2 -86.6 18.95 -85.6 20.35 -80.3 L22.6 -71.8 22.3 -72.0 21.7 -72.0 21.3 -71.6 20.35 -69.5 18.4 -70.45 17.85 -70.4 Q17.55 -70.35 17.4 -70.05 L17.35 -69.5 17.4 -69.45 17.8 -69.05 19.7 -68.15 18.7 -65.9 18.6 -65.3 19.05 -64.9 19.6 -64.85 20.05 -65.25 21.05 -67.55 23.1 -66.65 23.65 -66.6 24.1 -67.0 24.6 -65.45 Q25.45 -62.8 25.3 -61.15 L25.3 -56.85 Q25.3 -55.0 26.95 -53.7 L28.55 -52.65 Q28.55 -51.7 27.2 -50.5 L26.3 -49.5 25.7 -49.75 26.65 -51.85 26.65 -52.4 26.25 -52.85 25.65 -52.85 25.3 -52.45 24.35 -50.35 24.15 -50.4 24.4 -51.25 Q24.4 -54.3 12.85 -53.2 L12.5 -53.2 Q0.6 -52.05 0.6 -49.7 0.6 -49.2 1.35 -48.6 2.6 -47.6 5.35 -47.6 L12.85 -48.4 20.1 -49.35 22.3 -49.65 23.75 -49.0 22.75 -46.65 22.75 -46.05 23.15 -45.65 23.7 -45.6 24.15 -46.05 25.15 -48.4 25.8 -48.1 Q25.8 -47.25 26.35 -47.0 L29.6 -45.25 Q30.45 -44.65 30.55 -43.3 L30.6 -43.0 28.4 -42.5 26.9 -42.05 26.9 -42.1 26.5 -45.3 26.25 -45.75 25.7 -45.9 Q25.4 -45.85 25.15 -45.65 L25.05 -45.1 25.45 -41.9 25.5 -41.7 M22.7 -71.35 L23.15 -69.8 23.3 -69.45 23.8 -67.95 23.7 -68.0 21.7 -68.9 22.65 -71.05 22.7 -71.35 M18.2 -76.7 L18.7 -73.4 Q18.75 -73.1 19.0 -72.95 L19.6 -72.8 20.05 -73.1 20.2 -73.65 19.7 -76.95 19.35 -77.5 18.8 -77.6 18.3 -77.3 18.2 -76.7 M21.25 -61.65 L18.35 -63.5 Q14.85 -65.15 14.85 -66.4 L15.05 -68.5 6.95 -64.95 Q3.0 -63.25 3.0 -60.5 L3.0 -60.45 Q3.0 -59.4 3.4 -59.05 4.1 -58.35 6.85 -57.75 L15.1 -57.65 Q15.45 -58.05 18.85 -58.55 21.75 -58.95 21.8 -60.5 L22.15 -60.4 22.6 -60.7 22.75 -61.3 22.4 -64.45 22.1 -65.0 21.55 -65.1 21.05 -64.85 20.9 -64.3 21.25 -61.65 M22.1 -57.5 L22.65 -54.2 22.95 -53.75 23.55 -53.6 24.0 -53.95 24.15 -54.45 23.6 -57.75 23.25 -58.3 22.7 -58.35 22.2 -58.1 22.1 -57.5 M23.6 -43.9 Q23.6 -46.25 18.25 -45.75 L12.85 -45.55 4.95 -44.65 Q2.6 -43.95 2.6 -42.55 L2.7 -41.95 Q2.95 -41.3 3.75 -41.25 L8.25 -41.25 10.45 -41.5 14.35 -41.65 18.1 -41.75 18.1 -42.0 Q21.85 -41.9 23.05 -42.8 23.6 -43.15 23.6 -43.9 M-1.75 -0.8 L1.3 -1.05 4.6 -1.55 Q5.8 0.3 6.75 1.2 L4.8 0.25 -1.75 -0.7 -1.75 -0.8 M19.4 1.95 L23.9 -1.15 Q27.7 -3.75 29.45 -3.65 L29.35 -0.4 29.35 -0.35 Q27.3 -0.3 23.3 1.7 L19.3 3.85 19.4 1.95 M39.35 -6.3 Q41.35 -5.2 43.45 -4.25 44.35 3.9 43.05 9.0 41.75 14.05 34.5 23.1 L35.8 15.65 36.05 14.9 37.1 11.5 37.85 7.35 39.35 -6.3 M25.75 24.1 L25.75 24.2 24.5 30.65 Q20.75 33.1 15.45 34.0 L16.35 27.6 16.35 27.4 25.75 24.1 M18.7 11.7 L17.2 22.65 17.15 22.9 Q12.85 24.25 8.7 24.35 L9.8 7.6 14.05 8.5 18.8 11.0 18.7 11.7 M8.2 28.75 L7.45 34.25 Q3.9 34.4 -0.1 33.3 L-0.2 28.05 8.2 28.75 M-10.95 5.55 L-9.5 4.75 Q-8.55 4.3 -1.55 3.1 L-0.45 23.45 -3.45 22.6 Q-6.05 21.65 -9.15 19.9 L-9.25 19.45 -10.95 5.75 -10.95 5.55 M-17.1 17.8 L-17.2 17.45 -8.35 23.95 -8.25 24.4 -6.4 31.0 Q-10.9 29.0 -15.1 25.55 L-17.1 17.8" fill="#373737" fill-rule="evenodd" stroke="none"/>
    <path d="M-2.55 -102.9 Q-2.35 -102.0 -2.55 -100.3 L-2.75 -98.1 Q-2.9 -94.3 1.05 -92.5 L3.8 -91.2 Q5.05 -90.45 5.05 -89.25 5.05 -88.05 2.95 -86.15 0.65 -84.15 -1.3 -84.15 L-6.55 -84.25 -8.95 -85.2 -9.3 -85.8 -9.65 -86.95 -10.65 -90.65 -11.5 -94.5 -11.4 -94.8 -11.25 -95.1 -7.7 -98.4 -3.85 -101.8 -2.55 -102.9 M22.3 -49.65 L20.1 -49.35 12.85 -48.4 5.35 -47.6 Q2.6 -47.6 1.35 -48.6 0.6 -49.2 0.6 -49.7 0.6 -52.05 12.5 -53.2 L12.85 -53.2 Q24.4 -54.3 24.4 -51.25 L24.15 -50.4 22.4 -51.2 21.85 -51.2 21.4 -50.85 21.4 -50.3 21.8 -49.85 22.3 -49.65 M21.8 -60.5 Q21.75 -58.95 18.85 -58.55 15.45 -58.05 15.1 -57.65 L6.85 -57.75 Q4.1 -58.35 3.4 -59.05 3.0 -59.4 3.0 -60.45 L3.0 -60.5 Q3.0 -63.25 6.95 -64.95 L15.05 -68.5 14.85 -66.4 Q14.85 -65.15 18.35 -63.5 L21.25 -61.65 21.3 -61.1 Q21.35 -60.8 21.55 -60.6 L21.8 -60.5 M23.6 -43.9 Q23.6 -43.15 23.05 -42.8 21.85 -41.9 18.1 -42.0 L18.1 -41.75 14.35 -41.65 10.45 -41.5 8.25 -41.25 3.75 -41.25 Q2.95 -41.3 2.7 -41.95 L2.6 -42.55 Q2.6 -43.95 4.95 -44.65 L12.85 -45.55 18.25 -45.75 Q23.6 -46.25 23.6 -43.9 M6.75 1.2 L9.15 2.65 9.85 3.1 9.85 3.7 9.8 7.25 Q5.15 5.55 1.4 3.65 -0.2 2.85 -1.55 3.05 L-1.75 -0.7 4.8 0.25 6.75 1.2 M29.35 -0.35 Q29.35 3.55 28.45 10.6 27.35 19.15 25.75 24.1 L16.35 27.4 17.15 22.9 17.2 22.65 Q19.75 22.9 21.9 21.5 24.05 20.05 24.45 17.75 24.8 15.4 23.2 13.55 21.55 11.65 18.75 11.3 L18.8 11.0 19.3 4.1 19.3 3.85 23.3 1.7 Q27.3 -0.3 29.35 -0.35 M8.7 24.35 L8.2 28.75 -0.2 28.05 -0.25 27.8 -0.45 23.6 8.7 24.35 M-11.25 -97.9 L-9.35 -105.05 Q-6.55 -105.45 -4.85 -105.0 L-4.8 -104.75 Q-4.85 -104.35 -5.25 -103.85 L-7.85 -101.15 -11.25 -97.9 M-20.85 1.2 Q-19.65 3.9 -14.9 3.9 -13.35 3.9 -11.1 3.15 L-10.95 5.55 -10.95 5.75 Q-13.85 7.25 -18.5 7.25 L-19.3 7.25 -18.95 7.6 Q-18.6 8.1 -18.6 8.7 -18.6 10.0 -16.6 12.65 -13.95 16.15 -9.25 19.45 L-9.15 19.9 -8.35 23.95 -17.2 17.45 -20.85 1.2" fill="#3f3f3f" fill-rule="evenodd" stroke="none"/>
    <path d="M2.95 -107.65 L5.35 -107.8 5.25 -106.8 4.75 -105.75 2.45 -105.35 2.95 -107.65 M-11.1 -79.25 L-14.45 -79.15 -17.35 -79.0 -17.55 -80.05 -17.4 -81.1 -16.0 -81.3 -15.2 -81.5 Q-13.75 -80.1 -11.1 -79.25 M-16.85 -89.65 L-17.05 -90.3 -17.2 -90.4 -17.5 -90.3 -22.3 -85.8 -22.3 -85.75 -24.05 -83.15 Q-24.35 -82.75 -24.15 -82.3 -24.0 -81.85 -23.5 -81.7 L-22.35 -81.35 -20.75 -81.1 -20.8 -80.05 -21.2 -79.0 -24.05 -79.1 Q-25.1 -81.7 -25.2 -85.35 L-25.2 -86.25 -23.9 -87.4 -20.6 -90.35 -18.05 -92.65 -17.9 -92.95 -17.85 -93.25 -18.85 -97.85 -19.85 -101.85 Q-20.25 -103.45 -20.75 -104.15 L-21.05 -104.5 -19.55 -107.6 -16.7 -107.6 -12.55 -107.65 -12.4 -107.65 -13.25 -105.2 -13.6 -104.9 -13.8 -104.3 -13.7 -103.8 -14.4 -101.75 Q-16.7 -94.5 -16.85 -89.65" fill="#830db6" fill-rule="evenodd" stroke="none"/>
    <path d="M1.3 -136.65 L-0.25 -136.35 -0.25 -136.45 -0.2 -137.0 2.75 -137.65 2.75 -137.25 2.75 -136.7 2.75 -136.55 1.3 -136.65 M4.3 -135.95 L3.95 -136.15 Q4.5 -136.45 5.4 -136.75 L5.95 -136.95 Q7.05 -136.35 7.75 -135.35 L7.9 -135.1 7.25 -134.75 6.0 -134.05 4.3 -135.95 M-1.55 -113.4 Q-2.5 -112.75 -3.45 -112.2 L-3.5 -112.15 -3.55 -112.15 -3.9 -111.95 Q-5.2 -111.3 -6.6 -110.95 L-6.8 -113.5 -6.75 -114.25 Q-4.15 -114.75 -1.85 -116.55 L-1.55 -113.4 M-11.9 -112.8 L-11.95 -112.8 -12.3 -113.9 -12.65 -117.65 -12.65 -117.8 -12.65 -118.0 -12.6 -118.15 -11.2 -119.4 -11.1 -118.05 -11.05 -117.8 -11.05 -117.65 -10.35 -115.7 -10.05 -115.1 Q-11.0 -113.65 -11.9 -112.8 M2.95 -107.65 L2.45 -105.35 1.35 -105.1 Q0.1 -104.75 -1.0 -104.05 L-2.55 -102.9 -2.6 -103.05 Q-2.9 -104.05 -3.8 -104.6 L-4.85 -105.0 -5.25 -105.3 -6.25 -105.5 -7.75 -105.75 -7.45 -106.8 -6.85 -107.8 -4.3 -107.7 -1.1 -107.6 2.7 -107.65 2.95 -107.65 M16.35 -84.85 L15.85 -84.45 15.3 -84.5 14.95 -84.95 Q14.85 -85.25 15.0 -85.55 L16.1 -87.85 14.2 -88.8 13.85 -89.2 13.9 -89.75 14.35 -90.15 14.9 -90.1 16.8 -89.15 17.9 -91.2 18.25 -91.55 18.85 -91.55 19.25 -91.05 19.2 -90.5 18.1 -88.45 20.1 -87.5 20.5 -87.0 20.45 -86.45 20.05 -86.1 19.5 -86.1 17.5 -87.15 16.35 -84.85 M-8.95 -85.2 L-7.65 -83.35 Q-6.8 -82.2 -5.55 -81.75 L-1.8 -81.1 -1.85 -80.0 Q-1.95 -79.3 -2.35 -79.0 L-5.6 -79.15 -9.8 -79.25 -11.1 -79.25 Q-13.75 -80.1 -15.2 -81.5 L-15.0 -81.6 Q-14.4 -81.85 -14.35 -82.25 L-14.45 -82.85 -15.95 -85.8 -16.1 -86.35 -16.85 -89.65 Q-16.7 -94.5 -14.4 -101.75 L-13.7 -103.8 -13.2 -100.95 -12.35 -97.25 -12.25 -97.15 Q-12.05 -97.15 -12.0 -97.25 L-11.25 -97.9 -11.55 -96.75 Q-13.05 -90.95 -13.05 -87.9 -13.05 -86.55 -10.7 -85.8 L-8.95 -85.2 M25.8 -48.1 L25.15 -48.4 24.15 -46.05 23.7 -45.6 23.15 -45.65 22.75 -46.05 22.75 -46.65 23.75 -49.0 22.3 -49.65 21.8 -49.85 21.4 -50.3 21.4 -50.85 21.85 -51.2 22.4 -51.2 24.15 -50.4 24.35 -50.35 25.3 -52.45 25.65 -52.85 26.25 -52.85 26.65 -52.4 26.65 -51.85 25.7 -49.75 26.3 -49.5 27.75 -48.9 28.15 -48.45 28.15 -47.9 27.75 -47.5 27.2 -47.5 25.8 -48.1 M-12.4 -107.65 L-10.1 -107.8 Q-10.05 -107.55 -10.3 -106.85 L-10.75 -105.75 -12.05 -105.5 -13.05 -105.3 -13.25 -105.2 -12.4 -107.65" fill="#b509ff" fill-rule="evenodd" stroke="none"/>
    <path d="M-22.2 -105.2 L-20.75 -107.65 -19.55 -107.6 -21.05 -104.5 Q-21.5 -104.95 -22.2 -105.2 M-25.2 -86.25 L-25.2 -85.35 Q-25.1 -81.7 -24.05 -79.1 L-24.25 -79.15 -28.15 -79.25 -30.05 -79.2 -30.5 -81.75 Q-29.45 -82.1 -28.75 -82.7 L-26.85 -84.6 -25.75 -85.8 -25.2 -86.25" fill="#640c8a" fill-rule="evenodd" stroke="none"/>
    <path d="M-22.45 -107.75 L-21.15 -107.7 -20.75 -107.65 -22.2 -105.2 -22.35 -105.25 -23.8 -105.55 -22.45 -107.75 M-31.6 -79.15 L-31.65 -79.25 -31.85 -80.3 -32.0 -81.4 -30.8 -81.7 -30.5 -81.75 -30.05 -79.2 -31.6 -79.15" fill="#37084a" fill-rule="evenodd" stroke="none"/>
    <path d="M-4.85 -105.0 L-3.8 -104.6 Q-2.9 -104.05 -2.6 -103.05 L-2.55 -102.9 -3.85 -101.8 -7.7 -98.4 -11.25 -95.1 -11.4 -94.8 -11.5 -94.5 -10.65 -90.65 -9.65 -86.95 -9.3 -85.8 -8.95 -85.2 -10.7 -85.8 Q-13.05 -86.55 -13.05 -87.9 -13.05 -90.95 -11.55 -96.75 L-11.25 -97.9 -7.85 -101.15 -5.25 -103.85 Q-4.85 -104.35 -4.8 -104.75 L-4.85 -105.0" fill="#cd58ff" fill-rule="evenodd" stroke="none"/>
    <path d="M-3.15 -135.4 L-3.0 -134.95 Q-5.15 -133.55 -6.85 -131.3 L-7.4 -131.45 Q-5.55 -133.85 -3.15 -135.4 M8.85 -131.7 Q9.0 -129.6 8.45 -127.35 L7.05 -128.25 6.3 -128.5 6.5 -129.55 6.55 -131.3 6.55 -131.55 6.5 -132.1 7.7 -132.0 8.85 -131.7 M13.0 -111.6 L12.9 -111.65 Q12.7 -111.8 12.65 -112.1 L12.3 -115.45 12.45 -116.05 12.95 -116.25 13.45 -116.2 13.8 -115.6 14.1 -112.65 14.15 -112.3 13.95 -111.8 Q13.8 -111.55 13.5 -111.45 L13.0 -111.6 M18.2 -76.7 L18.3 -77.3 18.8 -77.6 19.35 -77.5 19.7 -76.95 20.2 -73.65 20.05 -73.1 19.6 -72.8 19.0 -72.95 Q18.75 -73.1 18.7 -73.4 L18.2 -76.7" fill="#d27900" fill-rule="evenodd" stroke="none"/>
    <path d="M6.95 -123.6 L6.4 -122.65 4.8 -120.15 3.25 -118.15 2.2 -120.7 2.7 -121.4 4.4 -123.95 5.0 -125.05 6.95 -123.6 M-11.25 -124.4 L-9.2 -128.8 -8.5 -128.7 -9.45 -126.8 -9.5 -126.7 -9.8 -126.0 -10.55 -123.65 -10.35 -124.4 -10.6 -124.45 -10.85 -124.45 -11.25 -124.4 M16.15 -99.75 L16.0 -99.15 15.5 -98.95 Q15.2 -98.9 14.9 -99.15 L14.7 -99.65 14.45 -102.9 14.6 -103.4 15.15 -103.65 15.7 -103.45 15.95 -103.0 16.15 -99.75 M21.25 -61.65 L20.9 -64.3 21.05 -64.85 21.55 -65.1 22.1 -65.0 22.4 -64.45 22.75 -61.3 22.6 -60.7 22.15 -60.4 21.8 -60.5 21.55 -60.6 Q21.35 -60.8 21.3 -61.1 L21.25 -61.65" fill="#1b9117" fill-rule="evenodd" stroke="none"/>
    <path d="M4.3 -135.95 L3.7 -136.25 Q2.6 -136.75 1.3 -136.65 L2.75 -136.55 2.75 -136.7 2.75 -137.25 2.75 -137.65 5.45 -137.2 5.95 -136.95 5.4 -136.75 Q4.5 -136.45 3.95 -136.15 L4.3 -135.95 M3.25 -118.15 Q1.4 -115.9 -0.85 -113.95 L-1.55 -113.4 -1.85 -116.55 -1.15 -117.1 -1.15 -117.15 2.2 -120.7 3.25 -118.15 M-12.6 -118.15 L-12.55 -118.75 -12.55 -118.8 -12.0 -121.8 -11.7 -122.95 -11.25 -124.4 -10.85 -124.45 -10.6 -124.45 -10.35 -124.4 -10.55 -123.65 -10.6 -123.55 -11.0 -121.7 -11.05 -121.45 -11.05 -121.2 -11.2 -119.4 -12.6 -118.15 M15.0 -96.4 L15.1 -96.95 15.65 -97.2 16.2 -97.1 16.5 -96.55 16.85 -93.25 Q16.9 -92.95 16.65 -92.75 L16.2 -92.45 15.6 -92.6 Q15.35 -92.8 15.35 -93.1 L15.0 -96.4 M22.1 -57.5 L22.2 -58.1 22.7 -58.35 23.25 -58.3 23.6 -57.75 24.15 -54.45 24.0 -53.95 23.55 -53.6 22.95 -53.75 22.65 -54.2 22.1 -57.5" fill="#3838e9" fill-rule="evenodd" stroke="none"/>
    <path d="M-0.2 -137.0 L-0.25 -136.45 -0.25 -136.35 1.3 -136.65 Q0.05 -136.55 -1.35 -135.9 L-1.55 -135.8 -2.45 -135.3 -3.0 -134.95 -3.15 -135.4 -1.9 -136.15 -0.2 -137.0 M7.9 -135.1 Q8.7 -133.75 8.85 -131.7 L7.7 -132.0 6.5 -132.1 6.0 -134.05 7.25 -134.75 7.9 -135.1 M-6.6 -110.95 L-10.5 -110.45 -11.1 -111.25 -11.9 -112.8 Q-11.0 -113.65 -10.05 -115.1 L-10.35 -115.7 -9.85 -114.8 -9.45 -114.3 -9.2 -114.1 -8.9 -114.05 -6.75 -114.25 -6.8 -113.5 -6.6 -110.95 M18.85 -80.75 L18.7 -80.15 18.2 -79.9 17.6 -80.1 17.4 -80.6 17.2 -83.85 17.3 -84.4 17.9 -84.6 Q18.2 -84.7 18.4 -84.45 L18.65 -83.95 18.85 -80.75 M25.5 -41.7 L25.45 -41.9 25.05 -45.1 25.15 -45.65 Q25.4 -45.85 25.7 -45.9 L26.25 -45.75 26.5 -45.3 26.9 -42.1 26.9 -42.05 26.8 -41.5 26.3 -41.25 25.7 -41.4 25.5 -41.7" fill="#e70505" fill-rule="evenodd" stroke="none"/>
    <path d="M-3.0 -134.95 L-2.45 -135.3 -1.55 -135.8 -1.35 -135.9 Q0.05 -136.55 1.3 -136.65 2.6 -136.75 3.7 -136.25 L4.3 -135.95 6.0 -134.05 6.5 -132.1 6.55 -131.55 6.55 -131.3 6.5 -129.55 6.3 -128.5 Q5.95 -126.9 5.1 -125.2 L5.0 -125.05 4.4 -123.95 2.7 -121.4 2.2 -120.7 -1.15 -117.15 -1.15 -117.1 -1.85 -116.55 Q-4.15 -114.75 -6.75 -114.25 L-8.9 -114.05 -9.2 -114.1 -9.45 -114.3 -9.85 -114.8 -10.35 -115.7 -11.05 -117.65 -11.05 -117.8 -11.1 -118.05 -11.2 -119.4 -11.05 -121.2 -11.05 -121.45 -11.0 -121.7 -10.6 -123.55 -10.55 -123.65 -9.8 -126.0 -9.5 -126.7 -9.45 -126.8 -8.5 -128.7 -8.1 -129.45 -6.85 -131.3 Q-5.15 -133.55 -3.0 -134.95 M4.15 -134.1 L3.1 -134.85 Q1.1 -135.65 -1.7 -134.0 -4.7 -132.25 -6.8 -128.7 -8.9 -125.1 -9.55 -121.2 -9.85 -119.4 -9.55 -117.95 L-9.15 -116.65 -8.55 -115.55 Q-5.05 -115.7 -2.15 -118.25 0.65 -120.75 2.65 -123.95 L3.1 -124.7 Q5.15 -128.2 5.05 -131.25 L4.65 -133.3 4.2 -134.0 4.15 -134.1" fill="#161754" fill-rule="evenodd" stroke="none"/>
    <path d="M4.15 -134.1 L4.2 -134.0 4.65 -133.3 5.05 -131.25 Q5.15 -128.2 3.1 -124.7 L2.65 -123.95 Q0.65 -120.75 -2.15 -118.25 -5.05 -115.7 -8.55 -115.55 L-9.15 -116.65 -9.55 -117.95 Q-8.15 -123.45 -6.65 -126.4 -2.7 -134.1 4.15 -134.1" fill="#e7a867" fill-rule="evenodd" stroke="none"/>
    <path d="M-9.55 -117.95 Q-9.85 -119.4 -9.55 -121.2 -8.9 -125.1 -6.8 -128.7 -4.7 -132.25 -1.7 -134.0 1.1 -135.65 3.1 -134.85 L4.15 -134.1 Q-2.7 -134.1 -6.65 -126.4 -8.15 -123.45 -9.55 -117.95" fill="#a46637" fill-rule="evenodd" stroke="none"/>
    <path d="M39.4 -38.75 Q39.6 -39.4 39.95 -39.75 40.3 -40.1 40.8 -40.1 41.25 -40.1 41.65 -39.75 L42.15 -38.9 42.2 -37.9 Q42.1 -36.65 41.55 -35.75 L41.05 -35.15 Q39.9 -35.45 39.4 -35.75 L39.1 -36.0 Q39.1 -37.35 39.4 -38.75 M65.5 -38.9 L68.25 -39.6 68.6 -38.7 Q68.55 -36.9 68.1 -35.8 67.6 -34.7 66.95 -34.8 L66.85 -34.8 Q66.25 -35.0 65.9 -36.15 65.45 -37.4 65.5 -38.9 M-21.5 -37.95 Q-21.0 -37.1 -21.0 -36.25 L-21.05 -35.65 Q-21.75 -34.95 -22.9 -35.05 L-23.7 -36.6 -23.15 -38.0 -22.6 -38.15 -22.2 -38.15 -21.5 -37.95 M-4.2 -33.75 L-3.0 -33.75 -2.15 -33.15 Q-1.8 -32.7 -1.8 -32.05 L-1.85 -31.35 -2.0 -31.0 -3.15 -30.8 -4.15 -30.85 -4.3 -32.15 Q-4.3 -33.15 -3.95 -33.5 L-4.2 -33.75 M28.65 -29.05 Q29.0 -29.6 29.5 -29.6 L30.4 -29.05 Q30.75 -28.55 30.75 -27.8 30.75 -27.05 30.4 -26.5 30.0 -26.0 29.5 -26.0 29.0 -26.0 28.65 -26.5 28.25 -27.05 28.25 -27.8 28.25 -28.55 28.65 -29.05 M22.95 -33.55 Q23.5 -33.55 23.9 -33.0 24.25 -32.5 24.25 -31.75 24.25 -31.0 23.9 -30.45 23.5 -29.95 22.95 -29.95 22.4 -29.95 22.05 -30.45 21.65 -31.0 21.65 -31.75 21.65 -32.5 22.05 -33.0 22.4 -33.55 22.95 -33.55 M2.75 -28.85 Q3.25 -29.4 3.95 -29.4 4.65 -29.4 5.2 -28.85 5.7 -28.35 5.7 -27.6 5.7 -26.85 5.2 -26.3 4.65 -25.8 3.95 -25.8 3.25 -25.8 2.75 -26.3 2.2 -26.85 2.2 -27.6 2.2 -28.35 2.75 -28.85 M13.3 -23.95 L13.6 -23.25 13.3 -22.55 Q13.0 -22.25 12.6 -22.25 12.2 -22.25 11.9 -22.55 11.6 -22.85 11.6 -23.25 11.6 -23.65 11.9 -23.95 L12.6 -24.25 13.3 -23.95 M2.7 -12.0 Q3.25 -11.45 3.25 -10.6 3.25 -9.75 2.7 -9.15 2.1 -8.6 1.25 -8.6 0.4 -8.6 -0.15 -9.15 -0.75 -9.75 -0.75 -10.6 -0.75 -11.45 -0.15 -12.0 0.4 -12.6 1.25 -12.6 2.1 -12.6 2.7 -12.0 M18.1 -6.55 Q18.1 -5.65 17.45 -5.0 16.8 -4.35 15.9 -4.35 15.0 -4.35 14.35 -5.0 13.7 -5.65 13.7 -6.55 L13.75 -6.9 Q13.85 -7.6 14.35 -8.1 15.0 -8.75 15.9 -8.75 16.8 -8.75 17.45 -8.1 17.95 -7.6 18.1 -6.9 L18.1 -6.55 M28.55 -16.65 Q29.45 -19.1 30.3 -19.35 31.15 -19.6 31.85 -18.55 32.5 -17.5 32.65 -15.75 L32.6 -13.65 Q32.05 -12.85 30.75 -12.85 29.05 -12.85 28.65 -13.95 28.4 -14.6 28.55 -16.65 M26.55 -22.4 L26.85 -21.95 26.95 -21.4 Q26.95 -20.8 26.55 -20.35 26.1 -19.95 25.5 -19.95 24.9 -19.95 24.5 -20.35 24.05 -20.8 24.05 -21.4 L24.15 -21.95 24.5 -22.4 Q24.9 -22.85 25.5 -22.85 L26.55 -22.4 M69.35 -27.85 Q69.35 -28.85 70.1 -29.55 70.8 -30.3 71.8 -30.3 72.8 -30.3 73.55 -29.55 74.25 -28.85 74.25 -27.85 74.25 -26.85 73.55 -26.1 72.8 -25.4 71.8 -25.4 70.8 -25.4 70.1 -26.1 69.35 -26.85 69.35 -27.85 M44.85 -29.8 L44.1 -30.0 Q43.75 -30.25 43.75 -30.6 44.1 -32.35 45.0 -32.6 L46.05 -31.35 46.2 -30.6 46.1 -29.95 46.0 -30.05 44.85 -29.8 M54.15 -30.15 Q54.65 -30.7 55.35 -30.7 56.05 -30.7 56.6 -30.15 57.1 -29.65 57.1 -28.95 57.1 -28.25 56.6 -27.7 56.05 -27.2 55.35 -27.2 54.65 -27.2 54.15 -27.7 53.6 -28.25 53.6 -28.95 53.6 -29.65 54.15 -30.15 M52.95 -19.95 Q53.5 -19.95 53.9 -19.65 54.3 -19.4 54.3 -19.0 54.3 -18.6 53.9 -18.3 L52.95 -18.05 52.0 -18.3 Q51.6 -18.6 51.6 -19.0 51.6 -19.4 52.0 -19.65 L52.95 -19.95 M-53.25 -22.25 L-52.1 -23.6 Q-51.6 -24.05 -50.85 -24.05 L-50.15 -23.95 -49.9 -23.9 -49.45 -23.5 -49.0 -21.95 Q-48.75 -20.7 -48.95 -19.65 L-49.65 -19.45 -50.5 -19.4 Q-52.0 -19.4 -52.7 -20.4 -53.1 -21.0 -53.25 -22.25 M-25.0 -27.3 Q-23.55 -28.45 -22.45 -28.85 L-23.1 -26.35 Q-24.55 -26.5 -25.0 -27.3 M-30.75 -16.8 L-30.85 -17.05 -31.0 -18.05 Q-31.0 -19.0 -30.25 -20.3 L-29.4 -20.4 -28.45 -20.1 -27.5 -19.2 Q-27.15 -17.65 -27.25 -17.15 -27.4 -16.05 -28.7 -15.7 -29.8 -15.9 -30.75 -16.8 M-4.4 -23.4 Q-3.9 -22.9 -3.9 -22.2 L-3.9 -21.95 Q-4.0 -21.4 -4.4 -21.0 -4.9 -20.5 -5.6 -20.5 -6.3 -20.5 -6.8 -21.0 -7.2 -21.4 -7.25 -21.95 L-7.3 -22.2 Q-7.3 -22.9 -6.8 -23.4 -6.3 -23.9 -5.6 -23.9 -4.9 -23.9 -4.4 -23.4 M-11.15 -9.9 Q-11.15 -8.3 -11.85 -7.2 L-12.05 -6.9 Q-13.2 -5.5 -15.55 -6.45 L-15.5 -6.9 Q-15.35 -8.1 -14.3 -9.0 -13.05 -10.1 -11.25 -10.1 L-11.15 -9.9" fill="#fffce2" fill-rule="evenodd" stroke="none"/>
    <path d="M39.4 -38.75 Q39.1 -37.35 39.1 -36.0 L39.4 -35.75 Q39.9 -35.45 41.05 -35.15 L41.55 -35.75 Q42.1 -36.65 42.2 -37.9 46.25 -34.85 51.9 -32.6 59.25 -29.7 61.6 -32.1 62.95 -32.0 63.2 -31.25 61.45 -30.4 59.4 -25.8 L57.5 -21.95 55.65 -19.6 55.15 -21.25 55.2 -21.95 Q55.2 -25.85 50.8 -27.9 45.6 -29.4 44.85 -29.8 L46.0 -30.05 46.1 -29.95 46.2 -30.6 46.05 -31.35 45.0 -32.6 Q44.1 -32.35 43.75 -30.6 L35.0 -37.3 39.4 -38.75 M45.55 -42.0 L55.0 -40.8 Q62.9 -39.1 65.5 -38.9 65.45 -37.4 65.9 -36.15 66.25 -35.0 66.85 -34.8 L66.95 -34.8 Q67.6 -34.7 68.1 -35.8 68.55 -36.9 68.6 -38.7 L75.55 -37.4 Q81.05 -36.3 82.6 -36.85 L83.25 -36.4 79.25 -31.1 77.1 -23.15 74.65 -15.75 74.6 -15.75 74.35 -17.4 Q74.65 -19.85 75.4 -23.3 76.3 -27.25 77.3 -30.15 L66.85 -32.85 61.6 -34.5 55.2 -36.9 54.2 -37.3 Q47.55 -40.05 45.55 -42.0 M-28.1 -32.95 L-29.25 -32.4 Q-41.55 -27.55 -44.6 -24.0 L-45.75 -24.1 -49.45 -23.5 -49.9 -23.9 -50.15 -23.95 -50.85 -24.05 Q-51.6 -24.05 -52.1 -23.6 L-53.25 -22.25 Q-54.7 -21.85 -54.7 -20.85 -55.3 -18.3 -55.0 -16.3 -54.35 -12.3 -49.8 -14.5 -49.5 -12.2 -52.65 -12.0 -53.75 -12.55 -55.2 -15.55 -56.8 -18.7 -56.75 -20.95 -55.35 -27.55 -50.15 -30.7 -47.3 -32.45 -43.35 -33.15 -30.1 -33.8 -25.0 -36.0 L-28.1 -32.95 M-20.7 -33.95 Q-15.75 -35.25 -12.15 -34.6 L-16.15 -29.65 -16.4 -29.35 -17.1 -28.55 Q-20.05 -25.5 -24.2 -21.95 L-27.5 -19.2 -28.45 -20.1 -29.4 -20.4 -30.25 -20.3 Q-31.0 -19.0 -31.0 -18.05 L-30.85 -17.05 -30.75 -16.8 Q-32.85 -15.2 -32.0 -12.85 -30.6 -10.55 -30.55 -9.85 L-30.85 -9.35 -31.1 -9.2 Q-31.55 -9.2 -32.1 -9.55 -33.15 -11.05 -33.6 -14.0 L-34.15 -12.65 -35.25 -21.95 -35.4 -22.9 Q-35.6 -24.6 -36.2 -24.6 -37.2 -24.6 -39.05 -23.6 L-39.25 -23.5 -41.45 -21.95 -42.3 -21.25 Q-45.3 -18.7 -46.5 -15.85 -46.3 -17.05 -43.4 -21.95 L-42.6 -23.2 -39.85 -25.4 -39.75 -25.5 -31.95 -28.75 Q-25.6 -31.4 -20.7 -33.95 M-18.95 -20.15 L-18.2 -21.95 Q-16.9 -24.85 -15.55 -25.95 -13.85 -27.3 -11.25 -31.0 -8.5 -34.0 -4.2 -33.75 L-3.95 -33.5 Q-4.3 -33.15 -4.3 -32.15 L-4.15 -30.85 -3.15 -30.8 -2.0 -31.0 Q-1.85 -30.1 -3.35 -21.95 L-3.65 -20.5 Q-5.55 -10.6 -5.45 -7.65 L-10.35 -24.75 -11.3 -25.85 Q-12.4 -27.0 -13.05 -27.0 -13.7 -27.0 -15.3 -25.1 L-17.0 -22.65 -18.95 -18.3 -19.2 -18.35 -18.95 -20.15 M10.1 -34.05 L16.1 -34.4 14.0 -21.0 17.8 -22.65 Q18.85 -22.65 19.7 -21.95 L20.2 -21.4 Q21.2 -20.2 21.2 -18.5 L19.35 -19.95 Q17.85 -20.95 16.75 -20.95 13.9 -19.5 12.45 -17.5 L12.15 -17.7 Q11.9 -18.1 12.0 -18.9 L9.1 -14.75 Q8.15 -19.4 7.85 -21.95 L7.65 -24.1 Q7.65 -25.9 8.15 -28.55 8.85 -32.25 10.1 -34.05 M17.55 -27.45 L18.3 -34.55 29.7 -36.1 Q31.6 -33.6 33.85 -31.25 38.4 -26.65 40.7 -27.5 L43.7 -25.5 Q39.8 -25.5 37.05 -22.3 L36.75 -21.95 Q34.3 -18.85 34.3 -14.55 L33.25 -12.25 32.6 -13.65 32.65 -15.75 Q32.5 -17.5 31.85 -18.55 31.15 -19.6 30.3 -19.35 29.45 -19.1 28.55 -16.65 L22.75 -18.15 20.7 -21.95 17.55 -27.45 M22.95 -33.55 Q22.4 -33.55 22.05 -33.0 21.65 -32.5 21.65 -31.75 21.65 -31.0 22.05 -30.45 22.4 -29.95 22.95 -29.95 23.5 -29.95 23.9 -30.45 24.25 -31.0 24.25 -31.75 24.25 -32.5 23.9 -33.0 23.5 -33.55 22.95 -33.55 M28.65 -29.05 Q28.25 -28.55 28.25 -27.8 28.25 -27.05 28.65 -26.5 29.0 -26.0 29.5 -26.0 30.0 -26.0 30.4 -26.5 30.75 -27.05 30.75 -27.8 30.75 -28.55 30.4 -29.05 L29.5 -29.6 Q29.0 -29.6 28.65 -29.05 M13.3 -23.95 L12.6 -24.25 11.9 -23.95 Q11.6 -23.65 11.6 -23.25 11.6 -22.85 11.9 -22.55 12.2 -22.25 12.6 -22.25 13.0 -22.25 13.3 -22.55 L13.6 -23.25 13.3 -23.95 M26.55 -22.4 L25.5 -22.85 Q24.9 -22.85 24.5 -22.4 L24.15 -21.95 24.05 -21.4 Q24.05 -20.8 24.5 -20.35 24.9 -19.95 25.5 -19.95 26.1 -19.95 26.55 -20.35 26.95 -20.8 26.95 -21.4 L26.85 -21.95 26.55 -22.4 M54.15 -30.15 Q53.6 -29.65 53.6 -28.95 53.6 -28.25 54.15 -27.7 54.65 -27.2 55.35 -27.2 56.05 -27.2 56.6 -27.7 57.1 -28.25 57.1 -28.95 57.1 -29.65 56.6 -30.15 56.05 -30.7 55.35 -30.7 54.65 -30.7 54.15 -30.15 M-58.5 -31.3 L-57.4 -30.75 -58.4 -29.15 -59.25 -30.85 Q-58.95 -30.9 -58.7 -31.1 L-58.5 -31.3 M-25.0 -27.3 Q-24.55 -26.5 -23.1 -26.35 L-22.45 -28.85 Q-23.55 -28.45 -25.0 -27.3 M-4.4 -23.4 Q-4.9 -23.9 -5.6 -23.9 -6.3 -23.9 -6.8 -23.4 -7.3 -22.9 -7.3 -22.2 L-7.25 -21.95 Q-7.2 -21.4 -6.8 -21.0 -6.3 -20.5 -5.6 -20.5 -4.9 -20.5 -4.4 -21.0 -4.0 -21.4 -3.9 -21.95 L-3.9 -22.2 Q-3.9 -22.9 -4.4 -23.4 M-11.25 -10.1 Q-13.05 -10.1 -14.3 -9.0 -15.35 -8.1 -15.5 -6.9 L-15.55 -6.45 Q-15.9 -5.6 -16.4 -4.9 L-16.85 -6.9 -16.95 -7.25 Q-16.6 -9.4 -16.6 -11.15 L-12.75 -15.15 -11.25 -10.1" fill="#faef67" fill-rule="evenodd" stroke="none"/>
    <path d="M61.6 -32.1 Q58.75 -32.7 54.9 -34.7 51.75 -36.4 50.0 -37.8 L51.25 -37.5 54.2 -37.3 55.2 -36.9 61.6 -34.5 64.5 -32.15 66.85 -29.45 Q70.0 -25.0 70.0 -19.3 69.3 -19.7 67.15 -24.6 L66.85 -25.25 Q64.7 -29.85 63.2 -31.25 62.95 -32.0 61.6 -32.1 M82.6 -36.85 L82.1 -37.1 81.6 -37.35 Q82.55 -38.25 86.2 -32.95 L86.05 -32.55 86.0 -32.55 85.8 -33.0 85.75 -33.05 Q85.25 -33.9 84.4 -33.9 82.6 -33.9 81.35 -32.7 79.8 -31.3 79.6 -28.5 L79.25 -31.1 83.25 -36.4 82.6 -36.85 M-29.25 -32.4 Q-17.5 -36.0 -17.45 -35.75 L-20.7 -33.95 Q-25.6 -31.4 -31.95 -28.75 L-39.75 -25.5 -39.85 -25.4 -42.6 -23.2 -46.95 -19.4 -46.15 -21.75 -46.05 -21.95 Q-45.5 -23.25 -44.6 -24.0 -41.55 -27.55 -29.25 -32.4 M-10.8 -33.7 L-9.0 -34.6 Q-7.25 -35.35 -7.15 -35.0 L-7.85 -34.4 Q-14.5 -28.85 -18.9 -21.95 L-21.8 -16.8 -24.7 -11.3 Q-26.25 -9.2 -28.65 -9.1 L-25.7 -13.65 Q-23.95 -15.0 -20.6 -21.95 L-18.5 -26.4 -17.1 -28.55 -16.4 -29.35 -16.15 -29.65 -10.95 -33.6 -10.8 -33.7 M-37.45 -14.9 L-35.05 -10.4 -34.85 -10.2 -34.75 -10.05 Q-32.5 -7.25 -30.4 -6.45 L-28.75 -6.15 -27.05 -6.6 -27.0 -6.6 Q-27.45 -6.0 -29.05 -5.2 -29.75 -4.85 -30.4 -4.6 L-30.5 -4.55 -32.2 -5.4 -32.35 -5.5 -33.35 -6.15 Q-35.2 -7.75 -36.55 -9.6 L-37.4 -11.1 -37.25 -10.55 -37.15 -9.95 -37.3 -10.35 Q-37.85 -11.9 -37.85 -13.75 L-37.7 -15.6 -37.45 -14.9 M-15.6 -13.6 L-13.2 -18.75 -13.2 -18.9 -13.2 -19.15 -13.2 -19.25 -13.25 -21.0 -13.1 -21.8 Q-12.15 -15.7 -9.5 -10.9 L-9.05 -10.0 -8.85 -9.8 -8.5 -9.25 -7.2 -7.45 -7.05 -7.25 -6.75 -6.9 -4.6 -4.55 -4.85 -4.55 -7.1 -4.65 -7.8 -4.9 -8.45 -5.55 -9.35 -6.9 -11.15 -9.9 -11.25 -10.1 -12.75 -15.15 -16.6 -11.15 -16.75 -11.0 -17.1 -10.75 -16.3 -12.85 -15.6 -13.6 M17.8 -22.65 Q17.05 -23.25 16.6 -24.2 16.25 -25.05 16.25 -25.7 L16.65 -27.2 17.35 -29.0 17.55 -27.45 20.7 -21.95 22.75 -18.15 24.05 -12.45 23.75 -12.7 Q23.25 -13.35 22.35 -15.5 L21.2 -18.5 Q21.2 -20.2 20.2 -21.4 L19.7 -21.95 Q18.85 -22.65 17.8 -22.65 M40.7 -27.5 Q38.5 -27.5 36.95 -29.25 35.4 -31.0 35.4 -33.5 38.3 -32.0 43.25 -27.1 L45.0 -25.3 43.7 -25.5 40.7 -27.5 M14.2 -14.65 L13.65 -13.45 14.45 -13.0 26.7 -6.5 27.3 -6.25 27.0 -6.3 22.6 -6.3 21.4 -6.2 21.1 -6.4 13.05 -12.6 Q11.95 -8.6 11.25 -7.35 L10.9 -6.9 10.05 -6.4 Q6.75 -4.4 6.4 -4.4 7.45 -5.3 8.45 -6.9 L9.5 -8.85 12.4 -14.5 Q14.45 -17.65 17.7 -19.35 L17.45 -18.55 17.15 -18.25 14.2 -14.65 M37.2 -12.15 L37.7 -14.65 37.75 -15.05 38.8 -21.85 38.85 -21.95 Q39.65 -24.95 41.2 -24.95 42.2 -24.95 42.65 -24.25 L41.35 -22.85 39.55 -17.85 39.4 -15.45 39.6 -15.35 Q45.85 -12.85 49.85 -9.8 54.3 -8.3 56.6 -11.25 L59.85 -21.95 61.3 -27.6 Q61.55 -28.75 61.75 -28.9 L63.8 -30.45 64.15 -29.55 63.15 -27.45 60.45 -21.2 Q61.1 -18.95 64.95 -17.1 68.3 -15.5 70.85 -15.5 L74.6 -15.75 74.65 -15.75 Q77.5 -16.65 80.3 -23.85 L82.05 -28.15 82.9 -30.05 83.2 -30.7 83.55 -30.45 Q85.3 -29.15 85.75 -28.0 L84.45 -28.6 83.2 -28.95 83.15 -28.9 82.4 -27.65 82.15 -27.05 82.15 -27.1 81.55 -25.55 Q80.45 -22.4 80.45 -19.3 L79.85 -17.55 82.1 -16.35 82.3 -16.25 Q83.2 -15.85 84.35 -15.8 L83.5 -14.7 83.2 -14.3 83.3 -14.55 81.55 -14.95 81.25 -15.05 79.5 -15.85 78.75 -16.3 Q78.15 -15.0 76.5 -14.3 L74.2 -13.7 69.85 -13.65 Q66.85 -14.15 63.75 -15.6 L62.35 -16.35 62.25 -13.95 62.05 -12.8 62.1 -12.8 62.2 -12.75 61.65 -12.8 Q61.25 -12.8 60.85 -13.25 L60.95 -13.5 61.55 -15.25 61.55 -15.3 61.7 -16.45 61.7 -16.55 61.7 -16.7 61.7 -16.8 61.5 -17.35 Q61.05 -17.95 59.6 -18.35 58.4 -11.15 57.45 -9.4 L55.2 -7.8 53.65 -7.6 52.2 -7.75 49.05 -9.05 48.5 -9.35 49.9 -7.2 Q48.95 -7.4 46.6 -9.55 L43.55 -12.15 39.35 -14.5 39.35 -13.85 Q37.7 -11.4 36.95 -11.15 L37.2 -12.15 M-57.4 -30.75 L-56.0 -32.25 -56.95 -32.0 Q-58.05 -31.65 -58.5 -31.3 L-58.7 -31.1 Q-58.95 -30.9 -59.25 -30.85 L-58.4 -29.15 -57.4 -30.75 M-64.4 -22.8 L-64.1 -23.25 Q-62.2 -25.05 -61.0 -25.05 L-60.9 -25.05 -60.85 -25.05 -60.7 -25.05 -60.6 -25.1 -60.5 -25.15 Q-59.65 -25.65 -59.0 -27.8 -59.65 -27.25 -61.35 -28.65 -61.85 -28.7 -62.35 -28.2 -61.4 -31.45 -50.15 -34.55 L-42.4 -36.45 -32.4 -38.2 Q-37.25 -37.3 -44.3 -35.0 L-35.35 -35.75 Q-28.35 -36.85 -24.0 -38.55 L-27.0 -38.65 Q-23.4 -38.8 -22.6 -38.15 L-23.15 -38.0 Q-25.1 -38.0 -37.0 -34.95 L-37.6 -34.8 -39.05 -34.4 -45.95 -32.65 -46.5 -32.55 -46.55 -32.55 -47.5 -32.3 -50.15 -31.65 -50.5 -31.6 Q-54.95 -30.85 -56.9 -28.8 -59.1 -26.45 -59.1 -21.5 -59.1 -19.6 -58.75 -17.95 L-58.7 -17.95 -58.4 -16.65 -57.55 -14.75 -56.3 -12.9 -56.2 -12.75 Q-55.0 -11.35 -53.75 -10.65 -52.35 -9.85 -50.85 -9.85 -50.15 -9.85 -47.9 -10.65 L-43.3 -12.45 Q-40.2 -13.7 -39.55 -14.1 L-38.95 -14.65 Q-38.95 -13.3 -39.3 -12.05 L-39.55 -11.55 -39.35 -12.05 -39.35 -12.15 Q-40.55 -11.1 -44.8 -10.05 L-45.7 -9.85 -52.5 -8.95 -54.35 -9.2 Q-53.35 -8.7 -52.7 -8.5 L-52.65 -8.5 -52.55 -8.45 -52.6 -8.45 -52.8 -8.3 Q-54.55 -8.3 -56.75 -10.65 L-57.85 -11.9 -58.3 -12.75 -59.3 -16.05 -59.4 -17.1 -59.5 -18.35 -59.55 -18.8 -60.15 -22.65 -60.25 -23.05 Q-61.8 -22.6 -63.25 -21.45 L-64.45 -20.35 -64.5 -20.35 -64.8 -20.05 -64.9 -21.0 -64.7 -22.4 -64.4 -22.8" fill="#d09304" fill-rule="evenodd" stroke="none"/>
    <path d="M23.2 -5.05 L22.7 -4.2 22.95 -5.2 23.2 -5.05" fill="#ff9fe2" fill-rule="evenodd" stroke="none"/>
    <path d="M49.05 -9.05 L52.2 -7.75 50.25 -8.45 49.05 -9.05" fill="#ea55be" fill-rule="evenodd" stroke="none"/>
    <path d="M81.25 -15.05 L81.55 -14.95 Q80.9 -13.8 79.35 -12.4 77.95 -11.1 77.35 -10.9 78.1 -11.25 79.3 -12.45 L81.25 -15.05" fill="#f681d3" fill-rule="evenodd" stroke="none"/>
    <path d="M18.75 11.3 Q21.55 11.65 23.2 13.55 24.8 15.4 24.45 17.75 24.05 20.05 21.9 21.5 19.75 22.9 17.2 22.65 L18.7 11.7 18.75 11.3 M9.8 7.25 L9.8 7.6 8.7 24.35 -0.45 23.6 -0.45 23.45 -1.55 3.1 -1.55 3.05 Q-0.2 2.85 1.4 3.65 5.15 5.55 9.8 7.25 M-10.95 5.75 L-9.25 19.45 Q-13.95 16.15 -16.6 12.65 -18.6 10.0 -18.6 8.7 -18.6 8.1 -18.95 7.6 L-19.3 7.25 -18.5 7.25 Q-13.85 7.25 -10.95 5.75" fill="#4d4d4d" fill-rule="evenodd" stroke="none"/>
    <path d="M18.75 11.3 L18.7 11.7 18.8 11.0 18.75 11.3" fill="#5858ed" fill-rule="evenodd" stroke="none"/>
    <path d="M9.15 2.65 L9.85 2.95 9.85 3.1 9.15 2.65" fill="#aa6200" fill-rule="evenodd" stroke="none"/>
    <path d="M-47.5 -32.3 L-46.55 -32.55 -46.5 -32.55 -45.95 -32.65 -47.5 -32.3 M-9.5 -10.9 L-8.5 -9.25 -8.85 -9.8 -9.05 -10.0 -9.5 -10.9" fill="#851162" fill-rule="evenodd" stroke="none"/>
    <path d="M43.1 -44.8 L44.25 -45.15 44.55 -45.2 47.8 -45.75 Q50.1 -46.05 66.85 -43.35 L69.4 -42.95 Q88.5 -39.85 89.55 -27.95 90.6 -16.05 87.55 -15.25 85.8 -14.7 84.3 -13.2 78.7 -7.7 74.55 -7.7 67.7 -7.7 61.4 -11.4 60.35 -8.85 57.85 -6.9 56.4 -5.8 54.55 -4.85 49.6 -2.35 46.2 -3.25 L43.45 -4.25 Q41.35 -5.2 39.35 -6.3 L37.65 -7.45 37.25 -6.9 Q36.2 -5.6 34.1 -4.7 31.75 -3.7 29.45 -3.65 27.7 -3.75 23.9 -1.15 L19.4 1.95 Q14.95 3.6 13.5 3.6 L9.85 2.95 9.15 2.65 6.75 1.2 Q5.8 0.3 4.6 -1.55 L1.3 -1.05 -1.75 -0.8 -2.4 -0.95 -4.1 -1.2 -7.3 1.1 Q-9.65 2.75 -11.1 3.15 -13.35 3.9 -14.9 3.9 -19.65 3.9 -20.85 1.2 L-20.95 1.1 -21.5 -0.8 -21.9 -3.1 -21.6 -6.6 -21.6 -6.8 Q-23.95 -5.25 -24.65 -3.95 -25.1 -3.15 -26.95 -2.6 L-28.65 -2.0 -32.1 -1.1 -32.6 -0.95 -33.8 -0.8 Q-36.45 -0.4 -37.45 -1.7 -38.95 -3.65 -38.9 -10.5 -40.3 -8.35 -43.65 -7.0 L-45.7 -6.3 -48.85 -5.85 Q-54.05 -5.85 -56.45 -9.55 L-57.45 -9.2 -60.85 -8.35 Q-64.65 -8.35 -65.85 -9.85 -67.5 -11.85 -67.5 -18.5 -67.5 -30.1 -56.85 -34.35 L-50.15 -36.4 -43.4 -37.85 -24.45 -40.95 -24.05 -40.9 -22.6 -40.65 -22.4 -40.6 -11.15 -38.7 -10.65 -38.65 1.55 -37.35 14.7 -38.4 27.8 -40.25 36.3 -42.8 43.1 -44.8 M82.1 -37.1 Q76.3 -40.15 66.85 -41.95 L62.25 -42.75 49.95 -43.95 Q47.8 -43.95 43.05 -42.95 L31.85 -40.2 24.05 -38.25 19.9 -37.4 14.35 -36.55 11.4 -36.25 10.8 -36.2 10.2 -36.15 10.15 -36.15 8.45 -36.05 Q3.3 -35.85 -1.3 -36.05 L-3.8 -36.2 -8.55 -36.7 -8.8 -36.75 -15.25 -37.55 -20.45 -37.95 -21.5 -37.95 -22.2 -38.15 -22.6 -38.15 Q-23.4 -38.8 -27.0 -38.65 L-28.9 -38.7 -32.4 -38.2 -42.4 -36.45 -50.15 -34.55 Q-61.4 -31.45 -62.35 -28.2 -63.65 -27.0 -64.9 -22.15 L-64.4 -22.8 -64.7 -22.4 -64.9 -21.0 -64.8 -20.05 Q-65.2 -19.45 -65.45 -17.45 L-65.75 -13.8 Q-65.75 -12.05 -64.1 -10.8 -62.7 -9.7 -61.2 -9.7 -59.95 -9.7 -57.45 -10.9 L-57.85 -11.9 -56.75 -10.65 Q-54.55 -8.3 -52.8 -8.3 L-52.6 -8.45 -52.55 -8.45 -49.25 -7.8 -45.7 -8.2 -43.85 -8.75 Q-39.9 -10.05 -39.35 -12.05 L-39.55 -11.55 -39.3 -12.05 Q-38.95 -13.3 -38.95 -14.65 -38.7 -15.05 -38.75 -15.5 -38.65 -19.55 -38.25 -21.2 -38.45 -17.85 -37.45 -14.9 L-37.7 -15.6 -37.85 -13.75 Q-37.85 -11.9 -37.3 -10.35 -38.35 -6.35 -36.1 -3.0 -32.95 -1.8 -30.4 -2.7 -29.55 -3.0 -28.75 -3.5 L-30.4 -4.5 -30.5 -4.55 -30.4 -4.6 Q-29.75 -4.85 -29.05 -5.2 -27.45 -6.0 -27.0 -6.6 L-27.05 -6.6 -26.25 -6.9 -25.2 -7.4 Q-21.2 -9.3 -18.35 -11.3 -16.7 -12.45 -15.6 -13.6 L-16.3 -12.85 -17.1 -10.75 -16.75 -11.0 Q-19.1 -9.05 -19.95 -6.9 L-20.35 -5.5 Q-20.35 -2.0 -19.0 0.25 -17.7 2.4 -15.7 2.4 -13.1 2.4 -9.6 0.35 L-5.25 -2.5 -7.8 -4.9 -7.1 -4.65 -4.85 -4.55 -4.6 -4.55 Q-2.2 -2.3 -0.3 -2.3 3.85 -2.3 6.2 -4.25 L6.4 -4.4 Q6.75 -4.4 10.05 -6.4 L10.9 -6.9 9.6 -5.15 Q7.85 -3.4 6.55 -2.6 7.6 -0.35 10.3 0.85 12.25 1.75 13.8 1.75 17.0 1.75 19.55 -0.25 L25.0 -4.3 24.1 -4.6 23.2 -5.05 22.95 -5.2 21.1 -6.4 21.4 -6.2 22.6 -6.3 27.0 -6.3 27.3 -6.25 26.7 -6.5 Q29.8 -5.2 31.25 -5.2 33.35 -5.2 34.8 -6.9 36.3 -8.65 37.2 -12.15 L36.95 -11.15 Q37.7 -11.4 39.35 -13.85 L39.35 -12.4 Q38.8 -10.7 38.8 -9.7 38.8 -8.95 42.85 -6.9 L43.65 -6.5 Q48.3 -4.25 49.2 -4.25 51.95 -4.25 55.3 -6.9 L57.1 -8.45 Q59.7 -10.9 60.85 -13.25 61.25 -12.8 61.65 -12.8 L62.2 -12.75 62.1 -12.8 73.55 -8.65 Q74.4 -8.3 75.0 -8.65 77.15 -8.65 79.25 -9.95 81.75 -11.5 83.2 -14.3 L83.5 -14.7 84.35 -15.8 84.55 -15.8 Q85.55 -15.8 86.85 -16.7 88.35 -17.75 88.35 -19.05 88.35 -25.45 86.2 -27.6 L85.75 -28.0 Q85.3 -29.15 83.55 -30.45 L83.2 -30.7 83.35 -30.85 85.1 -30.15 Q86.75 -29.25 87.75 -27.7 L86.05 -32.55 86.2 -32.95 Q82.55 -38.25 81.6 -37.35 L82.1 -37.1" fill="#8c6200" fill-rule="evenodd" stroke="none"/>
  </g>
</svg>
