<?xml version="1.0" encoding="UTF-8" standalone="no"?>
<svg xmlns:ffdec="https://www.free-decompiler.com/flash" xmlns:xlink="http://www.w3.org/1999/xlink" ffdec:objectType="shape" height="36.35px" width="34.3px" xmlns="http://www.w3.org/2000/svg">
  <g transform="matrix(1.0, 0.0, 0.0, 1.0, 15.5, 135.85)">
    <path d="M4.15 -121.1 Q6.2 -115.7 7.6 -105.65 L-0.3 -105.05 Q-2.8 -105.05 -5.4 -106.45 -4.2 -115.45 -3.4 -119.55 -2.5 -123.95 -1.6 -125.3 -1.0 -126.2 0.3 -126.2 2.2 -126.2 4.15 -121.1" fill="#ffffff" fill-rule="evenodd" stroke="none"/>
    <path d="M13.25 -102.45 L13.25 -102.4 13.2 -102.4 13.25 -102.45 M1.8 -131.5 Q6.0 -131.5 8.55 -121.15 L12.15 -106.75 12.6 -105.0 11.7 -104.75 7.85 -103.95 -0.6 -103.55 -6.25 -104.1 Q-8.1 -104.4 -10.55 -106.5 L-10.5 -107.15 Q-7.55 -131.5 1.8 -131.5 M4.15 -121.1 Q2.2 -126.2 0.3 -126.2 -1.0 -126.2 -1.6 -125.3 -2.5 -123.95 -3.4 -119.55 -4.2 -115.45 -5.4 -106.45 -2.8 -105.05 -0.3 -105.05 L7.6 -105.65 Q6.2 -115.7 4.15 -121.1" fill="#faf2ed" fill-rule="evenodd" stroke="none"/>
    <path d="M13.25 -102.45 L12.35 -102.25 12.35 -102.2 8.15 -101.55 -0.85 -101.05 -8.55 -101.9 Q-12.2 -102.8 -13.65 -104.05 L-13.25 -107.15 -12.2 -113.45 Q-10.9 -121.9 -8.5 -128.05 -6.15 -134.25 0.1 -134.45 6.3 -134.65 9.3 -127.9 11.95 -121.95 15.85 -108.45 L16.4 -106.6 16.9 -104.8 17.2 -103.8 17.1 -103.8 17.15 -103.8 13.25 -102.4 13.25 -102.45 M1.8 -131.5 Q-7.55 -131.5 -10.5 -107.15 L-10.55 -106.5 Q-8.1 -104.4 -6.25 -104.1 L-0.6 -103.55 7.85 -103.95 11.7 -104.75 12.6 -105.0 12.15 -106.75 8.55 -121.15 Q6.0 -131.5 1.8 -131.5" fill="#e1bfae" fill-rule="evenodd" stroke="none"/>
    <path d="M12.75 -124.0 Q14.55 -119.25 17.2 -109.5 L17.6 -107.85 17.7 -107.4 18.6 -103.9 18.8 -102.8 Q18.7 -102.55 13.65 -100.95 L13.55 -100.95 12.65 -100.75 8.3 -100.05 -4.4 -99.5 -8.3 -99.9 Q-11.3 -100.3 -13.45 -101.55 L-15.5 -102.85 -15.1 -104.6 -14.5 -107.5 -13.4 -113.3 Q-11.3 -124.85 -9.8 -128.55 -6.8 -135.85 -0.7 -135.85 4.6 -135.85 7.7 -132.5 10.8 -129.2 12.75 -124.0 M13.25 -102.4 L17.15 -103.8 17.1 -103.8 17.2 -103.8 16.9 -104.8 16.4 -106.6 15.85 -108.45 Q11.95 -121.95 9.3 -127.9 6.3 -134.65 0.1 -134.45 -6.15 -134.25 -8.5 -128.05 -10.9 -121.9 -12.2 -113.45 L-13.25 -107.15 -13.65 -104.05 Q-12.2 -102.8 -8.55 -101.9 L-0.85 -101.05 8.15 -101.55 12.35 -102.2 12.35 -102.25 13.25 -102.45 13.2 -102.4 13.25 -102.4" fill="#6f5342" fill-rule="evenodd" stroke="none"/>
  </g>
</svg>
