<?xml version="1.0" encoding="UTF-8" standalone="no"?>
<svg xmlns:ffdec="https://www.free-decompiler.com/flash" xmlns:xlink="http://www.w3.org/1999/xlink" ffdec:objectType="shape" height="135.0px" width="68.65px" xmlns="http://www.w3.org/2000/svg">
  <g transform="matrix(1.0, 0.0, 0.0, 1.0, 30.3, 136.15)">
    <path d="M4.2 -113.05 L4.95 -112.9 5.05 -112.75 5.2 -111.25 Q5.2 -106.75 3.1 -103.85 1.45 -101.5 -0.15 -101.5 -0.7 -101.5 -1.05 -101.85 -1.45 -102.25 -1.45 -102.95 -1.45 -104.9 0.9 -109.0 3.25 -113.05 4.2 -113.05 M-14.0 -87.05 L-4.2 -87.85 Q-2.65 -88.1 3.0 -91.65 L8.5 -95.1 9.1 -94.95 9.1 -94.6 Q9.2 -93.05 6.9 -89.95 4.5 -86.75 2.8 -86.45 3.6 -83.9 -1.2 -82.4 -5.6 -81.1 -12.9 -81.1 L-15.85 -81.2 -14.4 -87.0 -15.0 -86.9 -14.1 -87.05 -14.0 -87.05 M11.05 -50.15 L1.7 -49.45 Q-2.1 -49.45 -3.65 -50.2 -4.8 -50.75 -4.15 -53.8 -3.55 -56.9 5.7 -55.0 L10.45 -54.5 Q13.7 -50.75 11.05 -50.15 M14.85 -38.8 L14.8 -38.8 Q15.8 -37.6 15.85 -36.3 15.85 -35.05 8.15 -32.45 L12.05 -27.2 Q14.05 -24.45 14.05 -23.25 14.1 -21.6 12.7 -21.55 L9.7 -21.75 Q6.1 -20.7 3.25 -20.7 L-0.75 -21.25 Q-3.5 -21.95 -4.5 -22.95 -3.55 -23.85 -1.15 -24.55 1.75 -25.45 4.4 -25.2 L5.5 -25.15 -2.6 -31.35 Q-7.0 -34.7 -7.25 -36.2 -6.2 -36.95 -1.15 -37.65 L9.85 -38.6 8.8 -38.8 8.85 -38.8 Q7.1 -39.35 5.85 -41.3 4.7 -43.0 4.5 -44.55 L5.25 -44.65 Q10.85 -42.2 13.1 -40.45 L14.85 -38.8 M10.45 -16.3 L16.95 -17.05 Q20.4 -17.15 21.3 -16.15 L21.55 -15.5 Q21.65 -14.55 20.3 -12.8 18.9 -11.15 13.65 -10.55 L8.7 -10.3 Q-1.05 -10.15 -5.75 -11.8 -9.45 -13.05 -9.4 -14.65 L-9.15 -15.4 -8.85 -15.6 -4.75 -15.9 -0.15 -15.7 6.2 -15.55 Q8.15 -15.55 10.45 -16.3" fill="#ffffff" fill-rule="evenodd" stroke="none"/>
    <path d="M-19.0 -18.95 L-19.5 -12.55 -19.55 -12.5 -19.25 -11.9 -18.0 -7.7 Q-17.85 -4.35 -12.95 -3.8 L-3.65 -3.1 2.75 -2.5 7.0 -2.5 13.55 -3.1 13.75 -3.15 17.95 -3.5 20.7 -3.8 25.25 -10.0 33.4 -5.8 35.45 -6.25 36.6 -6.65 35.8 -10.5 35.65 -11.15 35.4 -12.45 35.45 -12.45 35.05 -13.85 35.05 -13.9 32.2 -24.0 Q30.3 -29.45 28.95 -34.85 L27.85 -38.8 Q26.7 -43.95 25.85 -49.25 24.55 -56.6 23.5 -63.95 L23.45 -64.1 23.4 -64.65 22.85 -67.7 22.65 -69.8 20.9 -90.7 19.95 -98.55 Q18.6 -106.9 15.8 -114.4 14.55 -117.9 12.95 -121.2 L10.45 -125.9 8.6 -129.05 Q7.25 -131.3 5.8 -132.65 L5.0 -133.2 Q5.5 -132.4 5.5 -131.3 L5.45 -130.7 5.1 -129.55 Q4.4 -127.95 2.85 -126.0 L-6.45 -114.8 -7.4 -113.7 -7.75 -113.45 -7.85 -113.45 -8.3 -113.5 -8.5 -113.8 -8.55 -114.15 Q-10.7 -123.95 -6.75 -130.7 L-6.35 -131.5 -7.3 -130.0 -10.05 -124.3 -11.55 -121.2 -12.05 -120.2 -23.5 -98.1 Q-29.9 -86.05 -28.55 -77.8 -27.55 -72.15 -22.9 -68.3 L-21.5 -67.25 Q-20.4 -66.45 -19.05 -65.75 L-18.95 -65.7 -18.3 -65.35 -17.7 -65.05 -17.7 -64.65 -17.7 -64.55 -17.7 -64.45 -17.75 -64.0 -17.75 -63.95 -18.25 -56.6 -18.45 -53.15 Q-18.85 -47.75 -19.7 -41.55 L-19.8 -40.85 -20.1 -38.8 -20.4 -37.5 -20.5 -36.95 -22.0 -30.35 -22.3 -29.1 -22.75 -27.45 -22.8 -27.3 Q-24.55 -21.5 -26.0 -14.6 L-26.05 -14.35 -26.05 -14.3 -26.25 -13.6 -26.25 -13.55 -26.6 -12.1 -26.6 -12.0 -26.8 -11.3 -27.65 -7.5 -26.55 -7.6 Q-25.05 -8.05 -23.55 -10.3 L-20.9 -14.2 -20.7 -15.15 -20.7 -15.2 -19.5 -22.0 -19.0 -18.95 M2.45 -133.85 L0.75 -134.45 Q-0.75 -134.7 -2.2 -134.0 -3.35 -133.45 -4.45 -132.3 L-5.35 -130.7 Q-9.0 -124.9 -7.7 -116.65 L-7.5 -115.4 -6.85 -116.15 -4.2 -119.3 1.9 -126.7 Q3.55 -128.75 4.15 -130.35 L4.25 -130.7 4.25 -131.3 Q4.15 -132.95 2.45 -133.85 M14.6 -121.2 Q21.1 -107.35 22.4 -90.8 L22.7 -87.4 23.2 -81.85 24.3 -68.8 24.4 -67.85 24.85 -64.95 24.95 -64.3 25.0 -63.95 27.35 -49.5 Q27.9 -46.15 28.6 -42.85 L29.2 -39.7 29.4 -38.8 30.4 -35.1 Q31.8 -29.8 33.65 -24.4 L36.55 -14.2 36.95 -12.75 36.95 -12.7 37.2 -11.45 37.25 -10.95 38.0 -7.3 38.3 -5.9 38.35 -5.85 36.85 -5.3 36.8 -5.35 36.6 -5.25 35.55 -4.9 33.15 -4.2 32.2 -4.65 32.25 -4.65 25.5 -7.95 22.05 -3.1 22.15 -3.1 21.4 -2.1 18.4 -1.75 16.15 -1.55 13.8 -1.4 7.95 -1.15 Q-4.55 -1.25 -16.65 -3.1 L-18.3 -3.35 -18.6 -3.4 -20.9 -12.65 -25.45 -4.95 -27.75 -5.65 -28.0 -5.7 -29.6 -6.1 -29.55 -6.2 -29.25 -7.85 -28.3 -11.8 -28.15 -12.3 -27.75 -13.9 -27.8 -13.85 -27.6 -14.6 -27.4 -15.5 Q-26.0 -22.1 -24.3 -27.65 L-23.9 -29.1 -22.2 -36.05 -21.65 -38.75 -21.65 -38.8 -21.2 -41.75 -21.1 -42.3 -20.2 -50.5 -19.75 -56.7 -19.7 -57.3 -19.55 -60.25 -19.3 -63.95 -19.3 -64.2 -19.5 -64.3 -21.85 -65.65 -23.25 -66.65 Q-28.95 -71.0 -30.0 -77.55 -31.5 -86.25 -24.85 -98.8 L-13.25 -121.2 -10.25 -127.25 -8.75 -130.5 Q-6.85 -134.7 -1.85 -135.8 L-0.35 -136.05 Q5.85 -136.85 10.15 -129.55 14.4 -122.3 14.6 -121.2" fill="#464646" fill-rule="evenodd" stroke="none"/>
    <path d="M5.1 -129.55 L5.45 -130.7 5.5 -131.3 Q5.5 -132.4 5.0 -133.2 L5.8 -132.65 Q7.25 -131.3 8.6 -129.05 L10.45 -125.9 12.95 -121.2 Q14.55 -117.9 15.8 -114.4 18.6 -106.9 19.95 -98.55 L20.9 -90.7 22.65 -69.8 22.85 -67.7 23.4 -64.65 23.45 -64.1 23.5 -63.95 Q24.55 -56.6 25.85 -49.25 26.7 -43.95 27.85 -38.8 L28.95 -34.85 Q30.3 -29.45 32.2 -24.0 L35.05 -13.9 35.05 -13.85 35.45 -12.45 35.4 -12.45 35.65 -11.15 35.8 -10.5 36.6 -6.65 35.45 -6.25 33.4 -5.8 25.25 -10.0 20.7 -3.8 17.95 -3.5 13.75 -3.15 13.55 -3.1 7.0 -2.5 2.75 -2.5 -3.65 -3.1 -12.95 -3.8 Q-17.85 -4.35 -18.0 -7.7 L-19.25 -11.9 -19.55 -12.5 -19.5 -12.55 -19.0 -18.95 -12.35 -57.6 -12.3 -57.9 -11.85 -60.75 Q-11.7 -62.7 -12.0 -63.8 -12.6 -65.65 -14.45 -67.55 -16.55 -69.7 -17.5 -72.55 L-17.8 -73.65 -4.7 -73.1 -1.65 -73.6 2.35 -74.5 Q2.8 -73.75 2.8 -72.55 2.8 -68.05 -2.35 -64.25 -6.15 -61.4 -10.0 -60.9 -10.05 -57.7 -11.2 -51.15 L-12.7 -42.75 -12.8 -41.15 -9.6 -41.5 -6.3 -41.75 -5.2 -40.6 Q-6.15 -39.75 -8.3 -38.8 -9.95 -38.15 -12.2 -37.4 L-13.85 -36.8 -14.6 -32.55 -14.6 -32.45 -14.9 -32.35 -14.55 -32.45 -13.0 -32.85 -10.85 -32.4 -8.85 -31.8 -8.7 -31.2 Q-10.4 -29.6 -13.7 -29.95 -13.65 -29.4 -17.4 -15.2 -15.45 -10.6 -15.7 -7.15 L-9.5 -6.7 9.3 -5.75 13.75 -5.55 15.9 -5.6 20.15 -5.9 27.25 -13.5 31.1 -10.1 Q31.75 -10.65 30.9 -10.6 L29.05 -15.35 29.0 -15.5 28.55 -17.3 27.65 -19.35 Q26.35 -22.05 24.9 -26.45 L21.6 -26.35 21.5 -26.0 20.95 -25.35 Q20.55 -25.35 20.25 -26.0 L19.95 -27.0 19.85 -27.3 19.95 -27.35 19.95 -27.55 Q19.95 -28.5 20.2 -29.1 20.45 -29.75 20.8 -29.75 L21.45 -29.1 21.8 -27.55 21.8 -27.4 Q23.2 -27.55 24.4 -28.65 L25.0 -30.35 Q25.45 -32.0 25.4 -34.0 L23.95 -38.8 24.0 -38.8 22.85 -42.35 19.95 -41.65 20.1 -41.15 Q20.4 -39.8 19.75 -39.05 L19.25 -39.0 18.55 -39.2 18.5 -39.8 18.3 -41.7 18.15 -41.75 Q17.85 -41.8 17.85 -42.8 17.85 -44.8 22.4 -45.05 L19.8 -57.95 Q17.65 -68.95 17.9 -73.3 L17.8 -74.5 Q17.4 -72.65 16.4 -70.25 L16.3 -69.95 16.45 -68.25 16.3 -67.3 15.7 -66.9 15.15 -67.3 15.0 -67.55 14.8 -67.35 13.9 -67.55 Q13.7 -67.7 13.7 -68.45 L14.85 -74.05 14.95 -74.45 Q13.9 -75.05 13.65 -76.0 L13.65 -77.2 14.2 -78.4 14.95 -76.25 15.15 -75.6 Q15.95 -80.45 15.95 -84.9 L15.85 -86.35 15.0 -84.35 15.55 -83.8 14.3 -80.9 13.5 -81.75 13.45 -81.65 Q11.9 -79.1 11.2 -78.6 L10.4 -79.1 Q10.1 -79.35 10.1 -79.8 L12.55 -84.65 12.5 -85.25 12.85 -85.25 Q15.15 -90.4 15.15 -92.4 13.55 -102.0 11.3 -111.5 7.8 -126.35 5.1 -129.55 M-19.5 -22.0 L-20.7 -15.2 -20.7 -15.15 -20.9 -14.2 -23.55 -10.3 Q-25.05 -8.05 -26.55 -7.6 L-27.65 -7.5 -26.8 -11.3 -26.6 -12.0 -26.6 -12.1 -26.25 -13.55 -26.25 -13.6 -26.05 -14.3 -26.05 -14.35 -26.0 -14.6 Q-24.55 -21.5 -22.8 -27.3 L-22.75 -27.45 -22.3 -29.1 -22.0 -30.35 -20.5 -36.95 -20.4 -37.5 -20.1 -38.8 -19.8 -40.85 -19.7 -41.55 Q-18.85 -47.75 -18.45 -53.15 L-18.25 -56.6 -17.75 -63.95 -17.75 -64.0 -17.7 -64.45 -17.7 -64.55 -17.7 -64.65 -17.7 -65.05 -18.3 -65.35 -18.95 -65.7 -19.05 -65.75 Q-20.4 -66.45 -21.5 -67.25 L-22.9 -68.3 Q-27.55 -72.15 -28.55 -77.8 -29.9 -86.05 -23.5 -98.1 L-12.05 -120.2 -11.55 -121.2 -10.05 -124.3 -7.3 -130.0 -6.35 -131.5 -6.75 -130.7 Q-10.7 -123.95 -8.55 -114.15 L-12.55 -102.55 -12.75 -102.45 -13.7 -102.75 -13.8 -103.7 -12.75 -106.8 Q-11.6 -110.2 -11.05 -112.85 L-10.9 -114.05 Q-15.05 -107.95 -18.7 -101.5 -25.8 -88.9 -25.8 -82.95 -25.8 -76.2 -21.2 -74.4 L-19.1 -73.85 -19.1 -73.75 Q-18.7 -70.65 -16.9 -68.3 L-13.95 -64.6 -13.35 -63.75 Q-13.1 -63.5 -13.0 -62.45 L-19.5 -22.0 M-7.75 -113.45 L-7.4 -113.7 -6.45 -114.8 -9.4 -108.0 -10.2 -106.2 -7.75 -113.45 M9.4 -109.0 Q7.8 -110.45 7.8 -112.55 L7.9 -113.3 8.7 -113.25 Q9.7 -110.35 9.7 -108.65 L9.6 -108.8 9.4 -109.0 M9.1 -105.45 L8.95 -106.1 9.0 -106.15 9.25 -106.05 Q12.0 -104.95 12.0 -103.65 L11.8 -102.9 11.25 -102.5 10.6 -101.9 Q9.95 -102.55 9.65 -103.3 L9.1 -105.45 M12.0 -95.75 L11.9 -95.55 Q11.6 -94.9 11.2 -94.9 10.8 -94.9 10.5 -95.55 10.2 -96.2 10.2 -97.15 10.2 -98.1 10.5 -98.75 10.8 -99.4 11.2 -99.4 11.6 -99.4 11.9 -98.8 L11.9 -98.75 12.2 -97.15 12.0 -95.75 M12.05 -92.4 L13.1 -90.9 Q13.45 -90.1 13.4 -87.95 L12.7 -88.3 12.0 -88.45 11.95 -88.25 Q11.5 -89.0 11.45 -91.25 L11.55 -91.8 Q11.7 -92.35 12.05 -92.4 M17.05 -57.25 L17.4 -57.4 18.1 -56.75 18.35 -55.15 18.1 -53.55 18.05 -53.45 Q17.8 -52.9 17.4 -52.9 17.0 -52.9 16.75 -53.55 16.45 -54.2 16.45 -55.15 16.45 -56.1 16.75 -56.75 L17.05 -57.25 M18.35 -50.4 L19.0 -49.75 19.25 -48.15 19.0 -46.55 Q18.7 -45.9 18.3 -45.9 17.9 -45.9 17.65 -46.55 17.45 -46.95 17.4 -47.45 L17.35 -48.15 Q17.35 -49.1 17.65 -49.75 17.9 -50.4 18.3 -50.4 L18.35 -50.4 M15.55 -62.15 Q15.55 -63.1 15.85 -63.75 16.1 -64.4 16.5 -64.4 L17.2 -63.75 17.45 -62.15 17.2 -60.55 Q16.9 -59.9 16.5 -59.9 16.1 -59.9 15.85 -60.55 15.55 -61.2 15.55 -62.15 M20.9 -34.05 L20.65 -32.8 20.05 -32.2 19.9 -32.25 Q19.6 -32.35 19.4 -32.8 19.1 -33.45 19.1 -34.35 19.05 -35.25 19.3 -35.9 19.6 -36.5 19.95 -36.5 L20.6 -35.9 20.9 -34.35 20.9 -34.05 M20.7 -20.75 L20.75 -22.05 22.05 -22.6 22.5 -18.85 22.55 -18.5 22.35 -18.4 21.25 -18.25 Q20.75 -18.6 20.7 -20.75 M-14.75 -96.25 Q-18.05 -96.4 -19.3 -97.05 -18.95 -98.05 -17.55 -99.5 L-17.4 -99.35 -17.35 -98.95 -17.7 -97.7 -17.45 -97.65 -17.15 -98.25 -14.05 -98.25 -14.75 -96.25 M-8.55 -98.35 L-6.75 -98.1 Q-5.75 -97.9 -5.45 -97.6 -6.85 -95.5 -12.95 -95.35 L-12.1 -95.4 Q-11.8 -96.3 -11.8 -97.1 L-11.6 -98.2 -8.55 -98.35 M-15.8 -92.65 L-16.45 -90.35 Q-21.1 -91.0 -21.1 -92.55 L-20.85 -93.15 -19.95 -93.0 -15.8 -92.65" fill="#8a8a8a" fill-rule="evenodd" stroke="none"/>
    <path d="M-6.45 -114.8 L2.85 -126.0 Q4.4 -127.95 5.1 -129.55 7.8 -126.35 11.3 -111.5 13.55 -102.0 15.15 -92.4 15.15 -90.4 12.85 -85.25 L12.5 -85.25 12.55 -84.65 10.1 -79.8 Q10.1 -79.35 10.4 -79.1 L11.2 -78.6 Q11.9 -79.1 13.45 -81.65 L13.5 -81.75 14.3 -80.9 15.55 -83.8 15.0 -84.35 15.85 -86.35 15.95 -84.9 Q15.95 -80.45 15.15 -75.6 L14.95 -76.25 14.2 -78.4 13.65 -77.2 13.65 -76.0 Q13.9 -75.05 14.95 -74.45 L14.85 -74.05 13.7 -68.45 Q13.7 -67.7 13.9 -67.55 L14.8 -67.35 15.0 -67.55 15.15 -67.3 15.7 -66.9 16.3 -67.3 16.45 -68.25 16.3 -69.95 16.4 -70.25 Q17.4 -72.65 17.8 -74.5 L17.9 -73.3 Q17.65 -68.95 19.8 -57.95 L22.4 -45.05 Q17.85 -44.8 17.85 -42.8 17.85 -41.8 18.15 -41.75 L18.3 -41.7 18.5 -39.8 17.25 -40.85 Q11.5 -45.35 11.05 -45.85 13.0 -46.55 16.8 -47.3 L17.4 -47.45 Q17.45 -46.95 17.65 -46.55 17.9 -45.9 18.3 -45.9 18.7 -45.9 19.0 -46.55 L19.25 -48.15 19.0 -49.75 18.35 -50.4 18.05 -53.45 18.1 -53.55 18.35 -55.15 18.1 -56.75 17.4 -57.4 17.05 -57.25 Q16.1 -59.35 14.55 -59.35 L11.6 -58.75 7.2 -57.75 11.9 -70.05 Q13.1 -73.6 13.1 -75.35 L13.05 -76.5 12.0 -76.8 Q11.35 -76.8 8.65 -71.0 L5.95 -64.95 Q5.3 -63.95 -1.95 -59.0 -8.55 -54.45 -8.55 -53.05 -8.55 -48.0 -7.1 -47.0 -5.75 -46.0 2.05 -41.6 L-6.5 -38.8 -6.55 -38.8 -8.8 -37.9 Q-11.2 -36.85 -11.2 -36.3 -11.25 -34.5 -8.35 -32.9 -3.7 -30.4 -1.75 -28.6 -7.95 -27.55 -9.05 -26.6 -10.15 -25.75 -10.25 -21.85 -10.25 -21.3 -11.7 -16.6 L-13.35 -10.4 Q-13.6 -8.85 -5.55 -8.3 1.75 -7.8 13.7 -7.8 L16.25 -7.8 18.05 -7.85 25.15 -15.3 25.0 -15.5 22.5 -18.85 22.05 -22.6 20.75 -22.05 20.7 -20.75 Q18.95 -22.4 17.45 -22.8 14.1 -23.85 14.1 -27.1 14.05 -30.1 17.6 -31.0 19.05 -31.4 19.9 -32.25 L20.05 -32.2 20.65 -32.8 20.9 -34.05 21.05 -35.45 Q21.0 -37.15 19.45 -38.8 L19.25 -39.0 19.75 -39.05 Q20.4 -39.8 20.1 -41.15 L19.95 -41.65 22.85 -42.35 24.0 -38.8 23.95 -38.8 25.4 -34.0 Q25.45 -32.0 25.0 -30.35 L24.4 -28.65 Q23.2 -27.55 21.8 -27.4 L21.8 -27.55 21.45 -29.1 20.8 -29.75 Q20.45 -29.75 20.2 -29.1 19.95 -28.5 19.95 -27.55 L19.95 -27.35 19.85 -27.3 19.95 -27.0 20.25 -26.0 Q20.55 -25.35 20.95 -25.35 L21.5 -26.0 21.6 -26.35 24.9 -26.45 Q26.35 -22.05 27.65 -19.35 L28.55 -17.3 29.0 -15.5 29.05 -15.35 30.9 -10.6 Q31.75 -10.65 31.1 -10.1 L27.25 -13.5 20.15 -5.9 15.9 -5.6 13.75 -5.55 9.3 -5.75 -9.5 -6.7 -15.7 -7.15 Q-15.45 -10.6 -17.4 -15.2 -13.65 -29.4 -13.7 -29.95 -10.4 -29.6 -8.7 -31.2 L-8.85 -31.8 -10.85 -32.4 -13.0 -32.85 -14.55 -32.45 -14.9 -32.35 -14.6 -32.45 -14.6 -32.55 -13.85 -36.8 -12.2 -37.4 Q-9.95 -38.15 -8.3 -38.8 -6.15 -39.75 -5.2 -40.6 L-6.3 -41.75 -9.6 -41.5 -12.8 -41.15 -12.7 -42.75 -11.2 -51.15 Q-10.05 -57.7 -10.0 -60.9 -6.15 -61.4 -2.35 -64.25 2.8 -68.05 2.8 -72.55 2.8 -73.75 2.35 -74.5 L-1.65 -73.6 -4.7 -73.1 -17.8 -73.65 Q-18.3 -75.8 -18.2 -78.0 L-18.15 -78.4 Q-18.05 -80.25 -17.6 -82.1 L-17.25 -83.55 -16.4 -86.3 -15.75 -88.55 -15.55 -89.15 -14.8 -92.1 -14.75 -92.35 -14.2 -94.35 -10.2 -106.2 -9.4 -108.0 -6.45 -114.8 M8.7 -113.25 Q8.1 -115.5 7.0 -117.7 5.25 -121.25 4.25 -121.25 3.0 -121.25 1.15 -116.15 -1.4 -109.1 -5.15 -104.3 -5.8 -103.5 -9.35 -102.2 L-10.3 -101.85 -11.3 -99.0 -2.45 -98.6 Q7.55 -98.6 9.1 -105.45 L9.65 -103.3 Q9.95 -102.55 10.6 -101.9 L11.25 -102.5 11.8 -102.9 12.0 -103.65 Q12.0 -104.95 9.25 -106.05 L9.4 -109.0 9.6 -108.8 9.7 -108.65 Q9.7 -110.35 8.7 -113.25 M11.9 -98.8 L11.85 -100.05 11.9 -100.2 11.3 -100.35 4.9 -95.6 Q-1.75 -90.85 -3.25 -90.7 L-13.1 -89.55 -13.65 -88.0 -14.0 -87.05 -14.1 -87.05 -15.0 -86.9 -14.4 -87.0 -15.85 -81.2 -16.3 -81.25 -16.65 -81.3 -15.6 -81.15 -15.9 -78.65 -16.05 -77.65 -11.5 -77.25 Q-0.95 -77.25 2.85 -79.0 6.65 -80.7 9.3 -86.6 12.0 -92.6 12.15 -94.75 L12.0 -95.75 12.2 -97.15 11.9 -98.75 11.9 -98.8 M12.05 -92.4 Q11.7 -92.35 11.55 -91.8 L11.45 -91.25 Q11.5 -89.0 11.95 -88.25 L12.0 -88.45 12.7 -88.3 13.4 -87.95 Q13.45 -90.1 13.1 -90.9 L12.05 -92.4 M15.55 -62.15 Q15.55 -61.2 15.85 -60.55 16.1 -59.9 16.5 -59.9 16.9 -59.9 17.2 -60.55 L17.45 -62.15 17.2 -63.75 16.5 -64.4 Q16.1 -64.4 15.85 -63.75 15.55 -63.1 15.55 -62.15 M-19.1 -73.85 L-21.2 -74.4 Q-25.8 -76.2 -25.8 -82.95 -25.8 -88.9 -18.7 -101.5 -15.05 -107.95 -10.9 -114.05 L-11.05 -112.85 Q-11.6 -110.2 -12.75 -106.8 L-13.8 -103.7 -13.7 -102.75 -12.75 -102.45 -12.55 -102.55 -14.05 -98.25 -17.15 -98.25 -17.45 -97.65 -17.7 -97.7 -17.35 -98.95 -17.4 -99.35 -17.55 -99.5 Q-18.95 -98.05 -19.3 -97.05 -18.05 -96.4 -14.75 -96.25 L-15.2 -94.85 -15.3 -94.55 -15.8 -92.65 -19.95 -93.0 -20.85 -93.15 -21.1 -92.55 Q-21.1 -91.0 -16.45 -90.35 L-16.7 -89.55 -16.85 -88.9 -18.35 -84.65 Q-19.3 -82.15 -19.35 -79.45 L-19.1 -73.85 M-2.2 -92.65 Q-1.45 -92.9 -0.8 -93.85 L-1.5 -95.15 Q-1.85 -95.5 -2.55 -95.5 L-6.3 -94.85 -9.7 -94.25 -12.7 -94.4 -13.2 -92.15 -9.95 -92.0 -2.2 -92.65 M-8.55 -98.35 L-11.6 -98.2 -11.8 -97.1 Q-11.8 -96.3 -12.1 -95.4 L-12.95 -95.35 Q-6.85 -95.5 -5.45 -97.6 -5.75 -97.9 -6.75 -98.1 L-8.55 -98.35" fill="#b4b4b4" fill-rule="evenodd" stroke="none"/>
    <path d="M18.5 -39.8 L18.55 -39.2 19.25 -39.0 19.45 -38.8 Q21.0 -37.15 21.05 -35.45 L20.9 -34.05 20.9 -34.35 20.6 -35.9 19.95 -36.5 Q19.6 -36.5 19.3 -35.9 19.05 -35.25 19.1 -34.35 19.1 -33.45 19.4 -32.8 19.6 -32.35 19.9 -32.25 19.05 -31.4 17.6 -31.0 14.05 -30.1 14.1 -27.1 14.1 -23.85 17.45 -22.8 18.95 -22.4 20.7 -20.75 20.75 -18.6 21.25 -18.25 L22.35 -18.4 22.55 -18.5 22.5 -18.85 25.0 -15.5 25.15 -15.3 18.05 -7.85 16.25 -7.8 13.7 -7.8 Q1.75 -7.8 -5.55 -8.3 -13.6 -8.85 -13.35 -10.4 L-11.7 -16.6 Q-10.25 -21.3 -10.25 -21.85 -10.15 -25.75 -9.05 -26.6 -7.95 -27.55 -1.75 -28.6 -3.7 -30.4 -8.35 -32.9 -11.25 -34.5 -11.2 -36.3 -11.2 -36.85 -8.8 -37.9 L-6.55 -38.8 -6.5 -38.8 2.05 -41.6 Q-5.75 -46.0 -7.1 -47.0 -8.55 -48.0 -8.55 -53.05 -8.55 -54.45 -1.95 -59.0 5.3 -63.95 5.95 -64.95 L8.65 -71.0 Q11.35 -76.8 12.0 -76.8 L13.05 -76.5 13.1 -75.35 Q13.1 -73.6 11.9 -70.05 L7.2 -57.75 11.6 -58.75 14.55 -59.35 Q16.1 -59.35 17.05 -57.25 L16.75 -56.75 Q16.45 -56.1 16.45 -55.15 16.45 -54.2 16.75 -53.55 17.0 -52.9 17.4 -52.9 17.8 -52.9 18.05 -53.45 L18.35 -50.4 18.3 -50.4 Q17.9 -50.4 17.65 -49.75 17.35 -49.1 17.35 -48.15 L17.4 -47.45 16.8 -47.3 Q13.0 -46.55 11.05 -45.85 11.5 -45.35 17.25 -40.85 L18.5 -39.8 M4.2 -113.05 Q3.25 -113.05 0.9 -109.0 -1.45 -104.9 -1.45 -102.95 -1.45 -102.25 -1.05 -101.85 -0.7 -101.5 -0.15 -101.5 1.45 -101.5 3.1 -103.85 5.2 -106.75 5.2 -111.25 L5.05 -112.75 4.95 -112.9 4.2 -113.05 M8.7 -113.25 L7.9 -113.3 7.8 -112.55 Q7.8 -110.45 9.4 -109.0 L9.25 -106.05 9.0 -106.15 8.95 -106.1 9.1 -105.45 Q7.55 -98.6 -2.45 -98.6 L-11.3 -99.0 -10.3 -101.85 -9.35 -102.2 Q-5.8 -103.5 -5.15 -104.3 -1.4 -109.1 1.15 -116.15 3.0 -121.25 4.25 -121.25 5.25 -121.25 7.0 -117.7 8.1 -115.5 8.7 -113.25 M-14.0 -87.05 L-13.65 -88.0 -13.1 -89.55 -3.25 -90.7 Q-1.75 -90.85 4.9 -95.6 L11.3 -100.35 11.9 -100.2 11.85 -100.05 11.9 -98.8 Q11.6 -99.4 11.2 -99.4 10.8 -99.4 10.5 -98.75 10.2 -98.1 10.2 -97.15 10.2 -96.2 10.5 -95.55 10.8 -94.9 11.2 -94.9 11.6 -94.9 11.9 -95.55 L12.0 -95.75 12.15 -94.75 Q12.0 -92.6 9.3 -86.6 6.65 -80.7 2.85 -79.0 -0.95 -77.25 -11.5 -77.25 L-16.05 -77.65 -15.9 -78.65 -15.6 -81.15 -16.65 -81.3 -16.3 -81.25 -15.85 -81.2 -12.9 -81.1 Q-5.6 -81.1 -1.2 -82.4 3.6 -83.9 2.8 -86.45 4.5 -86.75 6.9 -89.95 9.2 -93.05 9.1 -94.6 L9.1 -94.95 8.5 -95.1 3.0 -91.65 Q-2.65 -88.1 -4.2 -87.85 L-14.0 -87.05 M11.05 -50.15 Q13.7 -50.75 10.45 -54.5 L5.7 -55.0 Q-3.55 -56.9 -4.15 -53.8 -4.8 -50.75 -3.65 -50.2 -2.1 -49.45 1.7 -49.45 L11.05 -50.15 M14.85 -38.8 L13.1 -40.45 Q10.85 -42.2 5.25 -44.65 L4.5 -44.55 Q4.7 -43.0 5.85 -41.3 7.1 -39.35 8.85 -38.8 L8.8 -38.8 9.85 -38.6 -1.15 -37.65 Q-6.2 -36.95 -7.25 -36.2 -7.0 -34.7 -2.6 -31.35 L5.5 -25.15 4.4 -25.2 Q1.75 -25.45 -1.15 -24.55 -3.55 -23.85 -4.5 -22.95 -3.5 -21.95 -0.75 -21.25 L3.25 -20.7 Q6.1 -20.7 9.7 -21.75 L12.7 -21.55 Q14.1 -21.6 14.05 -23.25 14.05 -24.45 12.05 -27.2 L8.15 -32.45 Q15.85 -35.05 15.85 -36.3 15.8 -37.6 14.8 -38.8 L14.85 -38.8 M10.45 -16.3 Q8.15 -15.55 6.2 -15.55 L-0.15 -15.7 -4.75 -15.9 -8.85 -15.6 -9.15 -15.4 -9.4 -14.65 Q-9.45 -13.05 -5.75 -11.8 -1.05 -10.15 8.7 -10.3 L13.65 -10.55 Q18.9 -11.15 20.3 -12.8 21.65 -14.55 21.55 -15.5 L21.3 -16.15 Q20.4 -17.15 16.95 -17.05 L10.45 -16.3 M-2.2 -92.65 L-9.95 -92.0 -13.2 -92.15 -12.7 -94.4 -9.7 -94.25 -6.3 -94.85 -2.55 -95.5 Q-1.85 -95.5 -1.5 -95.15 L-0.8 -93.85 Q-1.45 -92.9 -2.2 -92.65" fill="#e0e0e0" fill-rule="evenodd" stroke="none"/>
    <path d="M-19.0 -18.95 L-19.5 -22.0 -13.0 -62.45 Q-13.1 -63.5 -13.35 -63.75 L-13.95 -64.6 -16.9 -68.3 Q-18.7 -70.65 -19.1 -73.75 L-19.1 -73.85 -19.35 -79.45 Q-19.3 -82.15 -18.35 -84.65 L-16.85 -88.9 -16.7 -89.55 -16.45 -90.35 -15.8 -92.65 -15.3 -94.55 -15.2 -94.85 -14.75 -96.25 -14.05 -98.25 -12.55 -102.55 -8.55 -114.15 -8.5 -113.8 -8.3 -113.5 -7.85 -113.45 -7.75 -113.45 -10.2 -106.2 -14.2 -94.35 -14.75 -92.35 -14.8 -92.1 -15.55 -89.15 -15.75 -88.55 -16.4 -86.3 -17.25 -83.55 -17.6 -82.1 Q-18.05 -80.25 -18.15 -78.4 L-18.2 -78.0 Q-18.3 -75.8 -17.8 -73.65 L-17.5 -72.55 Q-16.55 -69.7 -14.45 -67.55 -12.6 -65.65 -12.0 -63.8 -11.7 -62.7 -11.85 -60.75 L-12.3 -57.9 -12.35 -57.6 -19.0 -18.95" fill="#616161" fill-rule="evenodd" stroke="none"/>
    <path d="M2.7 -93.1 L2.65 -92.85 Q2.6 -92.6 2.7 -92.5 L1.55 -88.55 -4.85 -86.05 -10.35 -89.05 -9.1 -92.95 -8.15 -92.8 -6.05 -92.3 -1.2 -92.3 1.35 -92.9 2.7 -93.1 M1.85 -86.8 Q0.5 -82.0 0.25 -78.25 L0.2 -77.55 0.05 -73.7 -5.05 -73.05 Q-4.65 -77.15 -2.95 -84.9 L-0.15 -85.9 Q1.15 -86.4 1.85 -86.8 M-11.95 -73.75 Q-12.9 -80.2 -10.9 -86.75 L-10.15 -86.45 Q-7.75 -85.0 -7.35 -84.95 L-7.75 -82.8 -8.3 -78.55 -9.05 -73.35 -11.95 -73.75 M-8.6 -72.8 L-6.8 -84.75 Q-6.1 -84.2 -4.95 -84.2 L-3.85 -84.4 -4.2 -82.65 -4.95 -78.7 -5.4 -74.95 -5.6 -73.2 -8.55 -73.2 -8.6 -72.8 M-22.05 -94.05 L-21.25 -93.9 -20.95 -93.85 -21.1 -93.35 -23.15 -93.7 Q-23.3 -93.7 -23.65 -93.95 L-24.05 -94.35 -23.9 -94.3 -23.6 -94.3 -23.35 -94.25 -23.3 -94.25 -22.05 -94.05" fill="#e0e0e0" fill-rule="evenodd" stroke="none"/>
    <path d="M1.45 -75.15 L1.55 -73.15 -6.4 -66.05 -12.95 -72.85 Q-14.6 -83.35 -9.0 -94.75 -8.8 -95.05 -8.65 -94.95 -5.85 -93.55 3.95 -95.0 L4.3 -94.95 4.6 -94.75 3.0 -86.65 Q1.3 -78.75 1.45 -75.15 M-9.1 -92.95 L-10.35 -89.05 -4.85 -86.05 1.55 -88.55 2.25 -88.55 3.3 -93.6 3.3 -93.65 3.2 -93.6 3.15 -93.65 3.15 -93.6 Q-5.35 -92.45 -8.5 -93.5 L-9.1 -92.95 M1.85 -86.8 L1.9 -86.8 2.0 -87.15 2.0 -87.25 -2.35 -85.75 -2.45 -85.7 -2.8 -85.55 -3.0 -85.5 -4.85 -84.8 -5.15 -84.75 -5.35 -84.85 -6.85 -85.7 -7.2 -85.9 -7.45 -86.05 -7.5 -86.1 -10.6 -87.7 -10.9 -86.75 Q-12.9 -80.2 -11.95 -73.75 L-11.9 -73.35 -11.25 -72.65 -11.2 -72.65 -8.85 -70.25 -8.7 -70.1 -6.35 -67.75 -5.65 -68.3 -5.05 -68.8 -5.05 -68.85 0.05 -73.1 0.05 -73.7 0.2 -77.55 0.25 -78.25 Q0.5 -82.0 1.85 -86.8 M-27.1 -87.35 L-26.55 -86.35 -22.4 -89.25 -20.95 -93.9 -20.9 -93.95 -21.0 -93.9 -22.05 -94.05 -23.3 -94.25 -23.35 -94.25 -23.6 -94.3 -23.9 -94.3 -24.05 -94.35 -24.75 -94.45 -25.65 -94.7 -25.7 -94.7 -25.75 -94.8 -26.05 -94.4 -26.35 -93.9 Q-27.7 -91.85 -27.95 -88.95 L-27.1 -87.35 M-24.15 -75.45 Q-25.15 -74.5 -26.45 -70.2 L-29.95 -76.9 Q-29.95 -86.0 -28.65 -89.75 -27.4 -93.5 -26.25 -95.4 -25.45 -96.0 -20.05 -94.7 -23.7 -84.45 -24.15 -75.45 M-27.5 -85.95 L-28.65 -88.2 Q-30.0 -82.35 -28.9 -76.9 L-28.5 -76.15 -28.15 -75.35 -26.9 -72.9 -25.0 -75.85 Q-25.3 -77.9 -24.1 -83.0 L-22.9 -87.75 -26.9 -85.1 -27.05 -85.05 -27.5 -85.95" fill="#616161" fill-rule="evenodd" stroke="none"/>
    <path d="M1.55 -88.55 L2.7 -92.5 Q2.6 -92.6 2.65 -92.85 L2.7 -93.1 3.15 -93.6 3.15 -93.65 3.2 -93.6 3.3 -93.6 2.25 -88.55 1.55 -88.55 M-10.9 -86.75 L-10.6 -87.7 -7.5 -86.1 -7.45 -86.05 -7.2 -85.9 -6.85 -85.7 -5.35 -84.85 -5.15 -84.75 -4.85 -84.8 -3.0 -85.5 -2.8 -85.55 -2.45 -85.7 -2.35 -85.75 2.0 -87.25 2.0 -87.15 1.9 -86.8 1.85 -86.8 Q1.15 -86.4 -0.15 -85.9 L-2.95 -84.9 Q-4.65 -77.15 -5.05 -73.05 L-5.1 -72.45 -5.2 -70.8 -5.15 -69.25 -5.05 -68.85 -5.05 -68.8 -5.65 -68.3 -5.8 -70.8 -5.65 -72.6 -5.65 -72.95 -5.6 -73.2 -5.4 -74.95 -4.95 -78.7 -4.2 -82.65 -3.85 -84.4 -4.95 -84.2 Q-6.1 -84.2 -6.8 -84.75 L-8.6 -72.8 -8.65 -72.6 -8.7 -72.2 -8.7 -70.1 -8.85 -70.25 -9.25 -70.7 -9.15 -72.75 -9.1 -72.95 -9.05 -73.35 -8.3 -78.55 -7.75 -82.8 -7.35 -84.95 Q-7.75 -85.0 -10.15 -86.45 L-10.9 -86.75 M-24.05 -94.35 L-25.6 -91.85 Q-26.95 -89.55 -27.1 -87.35 L-27.95 -88.95 Q-27.7 -91.85 -26.35 -93.9 L-26.05 -94.4 -25.75 -94.8 -25.7 -94.7 -25.65 -94.7 -24.75 -94.45 -24.05 -94.35 M-27.5 -85.95 L-28.1 -81.9 -28.55 -76.55 -28.5 -76.15 -28.9 -76.9 Q-30.0 -82.35 -28.65 -88.2 L-27.5 -85.95 M-24.25 -86.0 Q-26.0 -85.15 -26.35 -83.0 -27.4 -75.5 -26.8 -79.45 L-27.15 -74.35 -26.95 -75.1 -26.65 -74.7 Q-25.65 -75.75 -25.4 -77.35 L-25.2 -80.1 -24.6 -83.0 -24.2 -85.6 -24.25 -86.0 M-28.15 -75.35 L-27.95 -75.45 -27.3 -80.25 -26.7 -84.05 Q-26.7 -84.5 -27.0 -85.05 L-27.05 -85.05 -26.9 -85.1 -22.9 -87.75 -24.1 -83.0 Q-25.3 -77.9 -25.0 -75.85 L-26.9 -72.9 -28.15 -75.35" fill="#8a8a8a" fill-rule="evenodd" stroke="none"/>
    <path d="M2.7 -93.1 L1.35 -92.9 -1.2 -92.3 -6.05 -92.3 -8.15 -92.8 -9.1 -92.95 -8.5 -93.5 Q-5.35 -92.45 3.15 -93.6 L2.7 -93.1 M3.3 -93.6 L3.2 -93.6 3.3 -93.65 3.3 -93.6 M-20.95 -93.9 L-21.0 -93.9 -20.9 -93.95 -20.95 -93.9" fill="#ffffff" fill-rule="evenodd" stroke="none"/>
    <path d="M0.05 -73.7 L0.05 -73.1 -5.05 -68.85 -5.15 -69.25 -5.2 -70.8 -5.1 -72.45 -5.05 -73.05 0.05 -73.7 M-5.65 -68.3 L-6.35 -67.75 -8.7 -70.1 -8.7 -72.2 -8.65 -72.6 -8.6 -72.8 -8.55 -73.2 -5.6 -73.2 -5.65 -72.95 -5.65 -72.6 -5.8 -70.8 -5.65 -68.3 M-8.85 -70.25 L-11.2 -72.65 -11.25 -72.65 -11.9 -73.35 -11.95 -73.75 -9.05 -73.35 -9.1 -72.95 -9.15 -72.75 -9.25 -70.7 -8.85 -70.25 M-24.05 -94.35 L-23.65 -93.95 Q-23.3 -93.7 -23.15 -93.7 L-21.1 -93.35 -20.95 -93.85 -21.25 -93.9 -22.05 -94.05 -21.0 -93.9 -20.95 -93.9 -22.4 -89.25 -26.55 -86.35 -27.1 -87.35 Q-26.95 -89.55 -25.6 -91.85 L-24.05 -94.35 M-24.25 -86.0 L-24.2 -85.6 -24.6 -83.0 -25.2 -80.1 -25.4 -77.35 Q-25.65 -75.75 -26.65 -74.7 L-26.95 -75.1 -27.15 -74.35 -26.8 -79.45 Q-27.4 -75.5 -26.35 -83.0 -26.0 -85.15 -24.25 -86.0 M-28.5 -76.15 L-28.55 -76.55 -28.1 -81.9 -27.5 -85.95 -27.05 -85.05 -27.0 -85.05 Q-26.7 -84.5 -26.7 -84.05 L-27.3 -80.25 -27.95 -75.45 -28.15 -75.35 -28.5 -76.15" fill="#b4b4b4" fill-rule="evenodd" stroke="none"/>
    <path d="M-8.8 -116.75 L-8.0 -117.3 -7.3 -115.55 -6.4 -116.6 Q-5.6 -117.8 -4.75 -117.75 L-4.7 -117.3 -4.65 -117.0 -3.4 -118.45 -5.75 -115.2 Q-6.75 -113.7 -7.2 -113.7 -7.9 -113.7 -8.3 -114.85 L-8.3 -114.95 -8.8 -116.75 M-16.65 -4.7 L-16.6 -4.7 -16.9 -3.25 -18.45 -3.35 Q-21.45 -3.45 -24.8 -4.55 -28.2 -5.7 -26.8 -5.4 L-26.7 -6.15 -26.55 -6.5 -26.7 -7.2 Q-26.85 -7.95 -26.2 -7.7 L-25.3 -7.2 -23.7 -6.35 -20.65 -5.2 -17.75 -4.75 -16.65 -4.7" fill="#464646" fill-rule="evenodd" stroke="none"/>
    <path d="M-3.4 -118.45 Q-5.0 -116.1 -12.55 -92.9 -20.15 -69.7 -7.2 -63.95 L-16.65 -4.7 -17.75 -4.75 -17.25 -8.05 -9.65 -60.15 -9.6 -60.45 -9.55 -60.75 -9.55 -60.85 -9.1 -63.8 Q-14.45 -66.0 -15.95 -72.2 L-16.1 -72.8 Q-17.8 -79.45 -15.0 -90.4 L-14.55 -92.2 -14.5 -92.3 -13.5 -95.75 -13.4 -95.95 -12.55 -98.6 Q-9.95 -106.1 -5.75 -115.2 L-3.4 -118.45 M-26.2 -7.7 Q-17.7 -36.6 -16.35 -64.05 -32.7 -72.1 -9.25 -115.6 L-9.0 -116.6 -8.9 -116.85 -8.8 -116.75 -8.3 -114.95 Q-12.95 -106.3 -16.0 -99.1 L-16.9 -96.9 Q-22.5 -83.0 -21.75 -74.7 L-21.6 -73.4 Q-20.55 -66.75 -15.0 -64.1 -15.45 -58.45 -16.15 -52.75 L-16.3 -51.45 -16.35 -50.9 -16.6 -49.2 Q-18.85 -32.45 -23.05 -15.7 L-23.45 -14.1 -25.3 -7.2 -26.2 -7.7" fill="#616161" fill-rule="evenodd" stroke="none"/>
    <path d="M-8.3 -114.95 L-8.3 -114.85 Q-7.9 -113.7 -7.2 -113.7 -6.75 -113.7 -5.75 -115.2 -9.95 -106.1 -12.55 -98.6 L-16.0 -99.1 Q-12.95 -106.3 -8.3 -114.95 M-13.5 -95.75 L-14.5 -92.3 -14.9 -92.4 Q-16.2 -92.6 -16.2 -91.75 -16.2 -91.3 -15.55 -90.75 L-15.0 -90.4 Q-17.8 -79.45 -16.1 -72.8 L-18.0 -72.85 -19.8 -73.4 Q-20.55 -73.55 -21.0 -73.95 L-21.75 -74.7 Q-22.5 -83.0 -16.9 -96.9 L-17.15 -96.2 -16.55 -96.1 -13.5 -95.75 M-9.6 -60.45 L-9.65 -60.15 -17.25 -8.05 -18.5 -8.75 -20.65 -9.8 Q-21.65 -10.45 -21.95 -11.35 L-22.4 -13.05 -23.05 -15.7 Q-18.85 -32.45 -16.6 -49.2 L-15.4 -52.25 -13.25 -56.45 Q-12.2 -58.05 -10.4 -59.55 L-9.65 -60.15 -9.55 -60.85 -9.6 -60.45" fill="#b4b4b4" fill-rule="evenodd" stroke="none"/>
    <path d="M-12.55 -98.6 L-13.4 -95.95 -13.5 -95.75 -16.55 -96.1 -17.15 -96.2 -16.9 -96.9 -16.0 -99.1 -12.55 -98.6 M-14.5 -92.3 L-14.55 -92.2 -15.0 -90.4 -15.55 -90.75 Q-16.2 -91.3 -16.2 -91.75 -16.2 -92.6 -14.9 -92.4 L-14.5 -92.3 M-16.1 -72.8 L-15.95 -72.2 Q-14.45 -66.0 -9.1 -63.8 L-9.55 -60.85 -9.65 -60.15 -10.4 -59.55 Q-12.2 -58.05 -13.25 -56.45 L-15.4 -52.25 -16.6 -49.2 -16.35 -50.9 -16.3 -51.45 -16.15 -52.75 Q-15.45 -58.45 -15.0 -64.1 -20.55 -66.75 -21.6 -73.4 L-21.75 -74.7 -21.0 -73.95 Q-20.55 -73.55 -19.8 -73.4 L-18.0 -72.85 -16.1 -72.8 M-17.25 -8.05 L-17.75 -4.75 -20.65 -5.2 -23.7 -6.35 -25.3 -7.2 -23.45 -14.1 -23.05 -15.7 -22.4 -13.05 -21.95 -11.35 Q-21.65 -10.45 -20.65 -9.8 L-18.5 -8.75 -17.25 -8.05" fill="#8a8a8a" fill-rule="evenodd" stroke="none"/>
    <path d="M-1.4 -116.35 Q4.4 -123.7 7.8 -131.6 L8.55 -130.1 8.25 -130.55 5.9 -125.2 Q3.2 -119.25 -2.8 -113.05 -6.4 -109.4 -8.85 -104.75 L-8.75 -108.0 -8.7 -108.1 -7.7 -109.1 -7.75 -109.1 Q-4.45 -112.6 -1.75 -115.95 L-1.4 -116.35 M-11.0 -107.9 L-12.5 -105.7 Q-12.65 -105.55 -12.85 -105.45 L-13.2 -105.5 -13.4 -105.8 -13.3 -106.15 -12.2 -107.7 -12.7 -117.95 -12.6 -119.85 -12.1 -121.4 Q-11.7 -122.35 -11.75 -121.8 L-11.9 -121.1 -11.55 -115.45 -11.25 -109.1 -11.1 -109.25 -8.55 -112.75 -8.5 -112.85 -8.3 -113.1 -7.6 -113.9 -7.3 -114.3 -5.1 -116.55 -11.0 -107.9" fill="#616161" fill-rule="evenodd" stroke="none"/>
    <path d="M-1.4 -116.35 L-1.75 -115.95 Q-4.45 -112.6 -7.75 -109.1 L-7.7 -109.1 -8.7 -108.1 -9.25 -108.0 -9.95 -107.8 -10.45 -107.7 -10.85 -107.75 -11.0 -107.9 -5.1 -116.55 -4.95 -116.7 -4.95 -116.75 -4.2 -117.4 -2.35 -117.4 -1.45 -116.65 -1.4 -116.35" fill="#e0e0e0" fill-rule="evenodd" stroke="none"/>
    <path d="M-11.55 -115.45 L-11.0 -116.7 Q-10.5 -117.85 -9.8 -117.6 -9.15 -117.4 -9.0 -115.95 L-8.9 -115.8 -8.75 -114.2 -8.55 -112.75 -11.1 -109.25 -11.25 -109.1 -11.55 -115.45" fill="#b4b4b4" fill-rule="evenodd" stroke="none"/>
    <path d="M-8.9 -115.8 L-8.45 -115.45 -8.45 -115.4 -7.45 -114.35 -7.3 -114.35 -7.3 -114.3 -7.6 -113.9 -8.3 -113.1 -8.5 -112.85 -8.55 -112.75 -8.75 -114.2 -8.9 -115.8" fill="#464646" fill-rule="evenodd" stroke="none"/>
  </g>
</svg>
