<?xml version="1.0" encoding="UTF-8" standalone="no"?>
<svg xmlns:ffdec="https://www.free-decompiler.com/flash" xmlns:xlink="http://www.w3.org/1999/xlink" ffdec:objectType="shape" height="81.25px" width="25.15px" xmlns="http://www.w3.org/2000/svg">
  <g transform="matrix(1.0, 0.0, 0.0, 1.0, 7.6, 89.95)">
    <path d="M9.3 -86.3 L10.45 -86.05 10.55 -85.9 11.15 -85.2 Q11.5 -84.55 11.45 -83.8 L11.5 -83.75 12.25 -82.65 12.3 -81.45 Q12.1 -80.3 10.9 -79.6 9.7 -83.5 9.3 -86.3 M-3.85 -72.4 L-4.05 -72.6 -3.75 -72.6 -3.85 -72.4 M13.2 -47.0 L13.45 -47.8 13.95 -49.85 14.0 -49.65 14.05 -48.45 Q13.9 -47.6 13.2 -47.0 M11.75 -44.15 L11.8 -44.15 12.9 -42.75 12.8 -41.75 12.7 -41.45 Q12.2 -40.45 11.2 -40.2 L10.3 -38.9 8.95 -40.45 Q10.65 -42.35 11.75 -44.15 M-2.65 -41.75 L-2.45 -42.25 -1.95 -43.1 -0.65 -44.65 0.35 -44.8 -2.65 -41.75 M7.95 -21.0 L7.95 -21.05 8.05 -21.05 7.95 -21.0 M7.3 -21.2 L7.3 -20.8 6.55 -20.55 6.3 -20.9 5.95 -21.5 7.3 -21.2 M14.65 -15.8 L14.9 -15.65 15.3 -15.4 16.4 -14.0 16.3 -13.0 16.25 -12.75 Q15.15 -14.65 13.2 -14.85 L14.65 -15.8 M5.05 -21.65 L5.5 -21.15 5.65 -20.9 5.95 -20.4 3.55 -19.75 1.65 -20.25 1.45 -19.55 2.1 -19.35 -2.3 -18.4 -2.3 -18.45 Q-2.55 -19.75 -1.65 -20.65 L-1.55 -21.9 -1.35 -22.35 -1.25 -22.5 5.05 -21.65" fill="#c4c4c4" fill-rule="evenodd" stroke="none"/>
    <path d="M5.5 -88.75 Q5.9 -88.0 5.8 -86.7 L5.8 -86.55 5.7 -85.35 Q5.35 -83.85 4.6 -82.9 L4.4 -82.65 3.05 -81.35 2.7 -81.1 2.7 -83.7 5.5 -88.75 M2.05 -82.75 L2.05 -81.1 1.9 -81.35 1.5 -81.95 2.05 -82.75 M-0.9 -87.25 L-0.95 -87.35 Q-1.1 -88.6 -0.55 -89.25 L0.05 -89.7 1.85 -89.85 -0.9 -87.25 M10.9 -79.6 L10.7 -79.55 9.95 -79.3 6.65 -78.95 6.1 -79.05 4.4 -79.7 3.7 -80.05 8.55 -82.1 8.3 -82.8 3.4 -80.75 3.85 -81.35 4.8 -82.7 5.15 -83.25 7.55 -85.55 8.0 -85.85 9.3 -86.3 Q9.7 -83.5 10.9 -79.6 M1.15 -81.45 L1.2 -81.35 1.5 -80.65 0.65 -80.85 0.7 -80.95 1.15 -81.45 M0.1 -80.25 L1.25 -79.95 -1.1 -79.15 0.1 -80.25 M-6.75 -79.1 L-7.5 -80.0 -7.55 -80.2 Q-7.8 -81.5 -6.9 -82.4 L-6.8 -83.65 -6.6 -84.1 -6.05 -84.85 Q-5.15 -85.65 -3.2 -85.1 -6.35 -82.0 -6.75 -79.1 M3.45 -74.95 L3.05 -76.25 3.05 -76.35 3.0 -77.45 3.05 -78.75 3.05 -78.95 5.25 -76.8 4.75 -76.3 3.45 -74.95 M5.7 -77.3 L3.55 -79.45 4.4 -79.25 6.2 -78.85 6.6 -78.8 8.8 -77.9 9.65 -77.4 10.05 -77.15 11.15 -75.75 11.05 -74.75 10.95 -74.45 Q10.45 -73.45 9.45 -73.2 8.9 -71.75 7.55 -71.5 L7.35 -71.4 Q6.4 -71.35 5.35 -72.25 7.7 -75.4 7.6 -76.85 L7.4 -78.05 7.2 -78.25 6.6 -78.3 5.7 -77.3 M-4.05 -72.6 L-4.35 -73.05 Q-4.65 -73.45 -4.55 -74.05 L-4.2 -75.25 -3.7 -76.1 -2.4 -77.65 Q-1.7 -78.3 -0.85 -78.6 L-0.2 -78.8 1.7 -79.25 -1.0 -74.7 -0.35 -74.3 2.3 -78.75 2.35 -78.85 2.35 -78.75 2.4 -77.45 2.4 -76.3 2.4 -75.85 2.35 -74.85 2.2 -73.8 1.55 -73.3 -1.7 -71.0 -2.2 -71.6 Q-3.25 -71.75 -3.85 -72.4 L-3.75 -72.6 -4.05 -72.6 M4.45 -53.05 L4.45 -53.4 4.2 -53.4 5.3 -54.75 4.45 -53.05 M3.8 -52.95 L3.8 -51.8 2.85 -49.6 2.8 -49.65 2.1 -50.75 1.9 -51.1 3.8 -52.95 M1.3 -50.6 L2.0 -49.9 2.15 -49.65 2.65 -48.9 2.6 -48.75 Q2.6 -48.1 2.9 -47.75 L-1.4 -48.85 -1.0 -49.1 1.3 -50.6 M-1.95 -48.6 L-2.05 -48.3 3.0 -46.95 0.2 -46.0 -0.05 -45.95 -3.65 -45.75 Q-5.4 -45.95 -5.75 -47.0 L-5.8 -47.2 -5.8 -48.3 -4.05 -48.0 Q-3.25 -48.0 -1.95 -48.6 M6.3 -48.2 Q7.5 -49.15 8.7 -51.0 L9.75 -52.85 Q11.2 -53.7 12.2 -53.05 L12.3 -52.9 12.9 -52.2 Q13.25 -51.55 13.2 -50.8 L13.25 -50.75 13.95 -49.85 13.45 -47.8 13.2 -47.0 12.45 -46.55 11.7 -46.3 8.4 -45.95 7.85 -46.05 6.15 -46.7 Q5.7 -46.9 5.45 -47.05 L10.3 -49.1 10.05 -49.8 6.3 -48.2 M4.85 -43.0 L4.8 -43.25 4.8 -43.35 4.75 -44.45 4.8 -45.75 4.8 -45.95 8.6 -42.2 9.1 -42.7 5.3 -46.45 6.15 -46.25 7.95 -45.85 8.35 -45.8 Q9.55 -45.5 10.55 -44.9 L11.4 -44.4 11.75 -44.15 Q10.65 -42.35 8.95 -40.45 L10.3 -38.9 Q9.9 -38.6 9.3 -38.5 L9.1 -38.4 Q8.05 -38.35 6.85 -39.45 7.65 -41.0 7.65 -41.85 7.65 -43.55 5.1 -43.05 L4.85 -43.0 M-0.65 -44.65 L0.9 -45.6 1.55 -45.8 3.45 -46.25 0.75 -41.7 1.15 -41.45 -0.45 -40.5 -2.1 -39.35 -2.6 -40.05 Q-2.9 -40.45 -2.8 -41.05 L-2.65 -41.75 0.35 -44.8 -0.65 -44.65 M1.65 -41.7 L4.05 -45.75 4.1 -45.85 4.1 -45.75 4.15 -44.45 4.15 -43.3 4.15 -42.85 4.15 -42.8 Q3.0 -42.45 1.65 -41.7 M10.45 -22.1 L9.85 -21.15 9.65 -20.9 8.3 -19.6 7.95 -19.35 7.95 -21.0 8.05 -21.05 7.95 -21.05 7.95 -22.45 10.45 -22.1 M7.3 -22.6 L7.3 -21.2 5.95 -21.5 5.6 -22.0 5.0 -23.2 7.3 -22.6 M7.3 -20.8 L7.3 -19.35 7.15 -19.6 6.55 -20.55 7.3 -20.8 M15.15 -24.5 L15.7 -24.3 15.8 -24.15 16.4 -23.45 Q16.75 -22.8 16.7 -22.05 L16.75 -22.0 17.5 -20.9 17.55 -19.7 Q17.35 -18.5 15.95 -17.8 L15.2 -17.55 Q13.4 -17.0 11.9 -17.2 L11.35 -17.3 9.65 -17.95 Q9.2 -18.15 8.95 -18.3 L13.8 -20.35 13.55 -21.05 8.65 -19.0 9.1 -19.6 10.05 -20.95 10.4 -21.5 10.9 -22.05 11.9 -22.05 Q15.15 -22.05 15.15 -24.45 L15.15 -24.5 M9.25 -17.25 L8.8 -17.7 9.65 -17.5 11.45 -17.1 11.85 -17.05 14.05 -16.15 14.65 -15.8 13.2 -14.85 Q15.15 -14.65 16.25 -12.75 L16.2 -12.7 Q15.7 -11.7 14.7 -11.45 14.15 -10.0 12.8 -9.75 L12.6 -9.65 Q11.35 -9.6 9.95 -11.15 L9.45 -11.8 8.75 -13.1 8.45 -13.9 Q9.65 -14.7 10.05 -15.45 L12.1 -13.45 12.6 -13.95 10.25 -16.25 10.15 -16.9 9.25 -17.25 M5.95 -20.4 L6.45 -19.6 6.75 -18.9 3.55 -19.75 5.95 -20.4 M2.1 -19.35 L6.5 -18.2 3.7 -17.25 3.45 -17.2 -0.15 -17.0 Q-1.9 -17.2 -2.25 -18.25 L-2.3 -18.4 2.1 -19.35 M-1.25 -22.5 L-0.8 -23.1 2.35 -23.3 Q4.05 -22.65 5.05 -21.65 L-1.25 -22.5 M7.65 -13.45 L7.6 -13.1 7.4 -11.8 6.95 -10.4 6.2 -9.1 Q5.65 -8.65 5.0 -8.7 4.15 -8.8 3.55 -9.25 L3.05 -9.85 Q1.55 -10.05 0.9 -11.3 L0.7 -11.7 Q5.1 -12.15 7.65 -13.45 M6.6 -17.45 L6.95 -17.5 6.95 -17.45 6.6 -17.45" fill="#eaeaea" fill-rule="evenodd" stroke="none"/>
    <path d="M2.7 -83.7 L2.7 -86.4 2.05 -86.4 2.05 -82.75 1.5 -81.95 1.05 -82.65 0.35 -83.75 -0.4 -85.35 -0.8 -86.6 -0.9 -87.25 1.85 -89.85 2.3 -89.7 4.85 -89.5 5.15 -89.25 5.5 -88.75 2.7 -83.7 M-3.2 -85.1 L-2.9 -85.05 Q-0.8 -84.25 0.25 -82.9 L0.4 -82.65 1.15 -81.45 0.7 -80.95 0.65 -80.85 -3.6 -82.0 -3.8 -81.3 0.1 -80.25 -1.1 -79.15 -1.55 -79.0 -1.8 -78.95 -5.4 -78.75 Q-6.25 -78.85 -6.75 -79.1 -6.35 -82.0 -3.2 -85.1 M5.25 -76.8 L6.85 -75.2 7.35 -75.7 5.7 -77.3 6.6 -78.3 7.2 -78.25 7.4 -78.05 7.6 -76.85 Q7.7 -75.4 5.35 -72.25 L4.7 -72.9 4.2 -73.55 3.5 -74.85 3.45 -74.95 4.75 -76.3 5.25 -76.8 M2.2 -73.8 L2.15 -73.55 1.7 -72.15 0.95 -70.85 Q0.4 -70.4 -0.25 -70.45 -1.1 -70.55 -1.7 -71.0 L1.55 -73.3 2.2 -73.8 M1.9 -51.1 L1.35 -52.35 0.95 -53.6 0.8 -54.35 Q0.65 -55.6 1.2 -56.25 L1.8 -56.7 Q2.95 -57.25 4.05 -56.7 5.45 -57.25 6.6 -56.5 L6.9 -56.25 Q7.7 -55.5 7.55 -53.7 L7.55 -53.55 7.45 -52.35 Q7.1 -50.85 6.35 -49.9 L6.15 -49.65 4.8 -48.35 4.45 -48.1 4.45 -53.05 5.3 -54.75 4.2 -53.4 3.8 -53.4 3.8 -52.95 1.9 -51.1 M3.8 -51.8 L3.8 -48.1 3.65 -48.35 2.85 -49.6 3.8 -51.8 M2.65 -48.9 L2.95 -48.35 3.25 -47.65 2.9 -47.75 Q2.6 -48.1 2.6 -48.75 L2.65 -48.9 M-1.4 -48.85 L-1.85 -49.0 -1.95 -48.6 Q-3.25 -48.0 -4.05 -48.0 L-5.8 -48.3 -5.15 -49.4 -5.05 -50.65 -4.85 -51.1 -4.3 -51.85 -1.15 -52.05 Q0.35 -51.5 1.3 -50.6 L-1.0 -49.1 -1.4 -48.85 M9.75 -52.85 L8.7 -51.0 Q7.5 -49.15 6.3 -48.2 L5.15 -47.75 5.6 -48.35 6.55 -49.7 6.9 -50.25 9.3 -52.55 9.75 -52.85 M6.85 -39.45 L6.45 -39.9 5.95 -40.55 5.25 -41.85 4.85 -43.0 5.1 -43.05 Q7.65 -43.55 7.65 -41.85 7.65 -41.0 6.85 -39.45 M1.15 -41.45 L1.4 -41.3 1.65 -41.7 Q3.0 -42.45 4.15 -42.8 L4.1 -41.85 3.9 -40.55 3.45 -39.15 2.7 -37.85 Q2.15 -37.4 1.5 -37.45 0.65 -37.55 0.05 -38.0 L-0.45 -38.6 Q-1.5 -38.75 -2.1 -39.35 L-0.45 -40.5 1.15 -41.45 M5.0 -23.2 L4.85 -23.6 4.45 -24.85 4.3 -25.6 Q4.15 -26.85 4.7 -27.5 L5.3 -27.95 Q6.45 -28.5 7.55 -27.95 L10.1 -27.75 10.4 -27.5 Q11.2 -26.75 11.05 -24.95 L11.05 -24.8 10.95 -23.6 10.45 -22.1 7.95 -22.45 7.95 -24.65 7.3 -24.65 7.3 -22.6 5.0 -23.2 M10.9 -22.05 L12.8 -23.8 13.25 -24.1 Q14.3 -24.75 15.15 -24.5 L15.15 -24.45 Q15.15 -22.05 11.9 -22.05 L10.9 -22.05 M8.45 -13.9 L8.3 -14.5 8.3 -14.6 8.25 -15.7 8.3 -17.0 8.3 -17.2 10.05 -15.45 Q9.65 -14.7 8.45 -13.9 M10.25 -16.25 L9.25 -17.25 10.15 -16.9 10.25 -16.25 M6.95 -17.45 L4.25 -12.95 4.9 -12.55 7.55 -17.0 7.6 -17.1 7.6 -17.0 7.65 -15.7 7.65 -14.55 7.65 -14.1 7.65 -13.45 Q5.1 -12.15 0.7 -11.7 L0.7 -12.3 1.05 -13.5 1.55 -14.35 2.85 -15.9 4.4 -16.85 5.05 -17.05 6.6 -17.45 6.95 -17.45" fill="#fcfcfc" fill-rule="evenodd" stroke="none"/>
  </g>
</svg>
