<?xml version="1.0" encoding="UTF-8" standalone="no"?>
<svg xmlns:ffdec="https://www.free-decompiler.com/flash" xmlns:xlink="http://www.w3.org/1999/xlink" ffdec:objectType="shape" height="59.15px" width="113.4px" xmlns="http://www.w3.org/2000/svg">
  <g transform="matrix(1.0, 0.0, 0.0, 1.0, 77.85, 85.35)">
    <path d="M21.95 -74.45 Q18.25 -76.35 11.65 -77.95 L8.9 -78.5 8.25 -78.65 7.85 -78.75 4.95 -79.35 4.5 -79.45 4.3 -79.5 -1.6 -80.15 -12.1 -80.45 -15.65 -80.35 -29.15 -78.05 -37.5 -74.15 Q-40.75 -72.6 -42.15 -70.55 -44.45 -67.25 -46.2 -50.05 L-45.15 -49.05 -42.3 -47.85 -41.4 -47.65 -39.9 -47.15 -39.95 -47.1 -29.7 -45.05 -27.35 -44.6 Q-20.3 -43.35 -13.2 -43.45 L-13.05 -43.55 -12.45 -43.5 -12.35 -43.5 1.65 -42.9 3.3 -42.9 8.9 -43.15 9.5 -43.2 14.6 -43.5 15.0 -43.55 21.05 -44.1 22.25 -44.3 22.25 -44.25 24.7 -44.6 26.55 -44.9 27.85 -45.2 29.95 -45.8 31.3 -46.25 Q32.85 -46.9 33.2 -47.2 L31.6 -64.7 Q31.15 -67.45 29.65 -69.3 27.35 -72.2 21.95 -74.45 M15.0 -35.2 L8.9 -34.85 7.4 -34.8 -0.4 -33.85 -20.55 -29.95 -30.7 -27.6 -33.4 -26.8 Q-35.65 -25.6 -37.85 -26.8 L-39.1 -27.6 Q-44.95 -31.35 -49.3 -33.55 L-52.25 -33.35 -77.55 -32.0 -77.85 -32.35 Q-77.9 -36.0 -76.75 -38.6 -75.65 -41.25 -72.6 -42.05 -69.6 -42.9 -52.05 -48.4 L-47.7 -50.7 -47.55 -52.0 Q-46.35 -65.75 -42.45 -71.45 -37.45 -78.5 -23.85 -80.8 L-18.5 -81.4 -10.45 -82.05 Q-9.0 -84.45 -6.7 -85.3 -5.95 -85.45 -4.7 -84.9 -3.5 -84.4 -2.45 -83.35 L-2.4 -83.25 -2.2 -81.75 2.95 -81.15 3.15 -81.1 7.7 -80.35 8.9 -80.15 Q19.0 -78.2 25.35 -74.55 32.35 -70.4 33.2 -65.2 L33.65 -61.65 34.35 -54.65 34.4 -48.05 35.35 -47.65 35.55 -38.65 32.35 -37.7 Q31.65 -37.45 29.4 -36.95 L26.55 -36.45 25.6 -36.3 22.3 -35.85 15.0 -35.2 M5.65 -37.25 L7.4 -36.7 7.4 -36.35 7.45 -36.35 8.9 -36.4 14.75 -36.7 15.25 -36.75 15.65 -36.75 17.6 -36.95 17.95 -36.95 21.25 -37.3 21.3 -37.3 21.5 -37.3 21.65 -37.35 24.8 -37.7 27.05 -38.05 Q30.1 -38.5 31.45 -39.2 32.4 -39.65 32.7 -40.35 L33.0 -43.6 33.25 -45.25 32.3 -44.8 28.8 -43.75 27.3 -43.45 26.9 -43.4 24.5 -43.0 21.75 -42.65 19.65 -42.4 14.7 -41.85 14.5 -41.85 8.9 -41.5 7.45 -41.5 -2.95 -41.5 -9.05 -41.75 5.65 -37.25 M-3.35 -36.75 L-1.8 -36.95 0.05 -37.15 1.4 -37.2 1.1 -37.3 Q-6.4 -40.2 -16.6 -42.05 L-20.95 -42.8 -40.65 -45.85 -41.5 -46.0 Q-44.6 -46.5 -46.35 -47.2 L-48.35 -48.5 Q-53.65 -46.25 -56.45 -45.55 L-69.95 -42.0 Q-67.35 -42.3 -63.15 -42.0 -58.75 -42.0 -54.1 -40.35 -46.6 -36.9 -41.35 -33.0 -37.85 -30.45 -36.4 -30.45 -34.25 -30.45 -25.55 -32.45 L-14.15 -34.85 -6.5 -36.25 -3.35 -36.75 M0.9 -36.15 L-11.55 -34.7 -22.25 -32.75 -36.8 -29.45 Q-37.3 -29.45 -39.3 -30.4 -41.65 -31.45 -42.65 -32.35 -53.9 -41.0 -62.0 -41.1 -70.15 -41.25 -73.45 -39.85 -76.7 -38.55 -76.9 -33.9 -76.85 -32.25 -75.85 -33.65 -75.0 -37.9 -71.85 -38.95 -67.85 -40.35 -61.45 -39.95 -54.95 -39.6 -45.8 -33.9 L-40.0 -30.0 -36.7 -27.6 -34.75 -27.6 Q-27.25 -30.2 -18.9 -32.0 L-6.55 -34.6 0.9 -36.05 2.3 -36.2 0.9 -36.15 M-3.85 -81.9 Q-3.6 -82.0 -3.6 -82.25 -5.45 -83.8 -7.65 -83.45 L-8.6 -82.6 -9.0 -82.05 -3.85 -81.9 M-75.3 -33.1 L-65.65 -33.95 Q-57.0 -34.7 -50.5 -34.2 -58.15 -39.15 -66.2 -38.75 -74.25 -38.4 -75.3 -33.1" fill="#464646" fill-rule="evenodd" stroke="none"/>
    <path d="M12.25 -77.25 Q16.15 -77.9 19.55 -72.85 21.95 -69.25 22.4 -66.5 L22.45 -65.3 Q22.15 -64.95 21.2 -64.75 19.25 -64.45 17.45 -66.75 13.15 -72.0 9.65 -75.35 10.4 -76.3 12.25 -77.25 M4.4 -63.65 Q2.25 -63.85 -9.6 -63.45 -16.45 -63.25 -22.1 -66.5 L-22.1 -67.8 -21.8 -69.2 Q-21.05 -71.85 -18.25 -74.7 -14.4 -78.75 -11.0 -79.35 -4.1 -80.5 -0.8 -78.1 1.5 -76.35 8.9 -66.6 L9.55 -65.75 8.9 -65.0 7.65 -64.45 4.95 -63.75 4.4 -63.65 M5.8 -52.1 Q5.45 -49.85 4.95 -49.0 3.35 -48.95 3.2 -50.2 2.5 -54.4 3.1 -57.9 3.5 -60.75 4.45 -62.0 L4.55 -61.85 Q5.6 -59.7 5.85 -58.0 6.3 -55.15 5.8 -52.1 M-54.1 -40.35 L-48.2 -43.1 -46.7 -43.9 -46.4 -44.0 -45.1 -44.35 -20.1 -40.85 -12.6 -39.1 -6.95 -37.7 -3.35 -36.75 -6.5 -36.25 -14.15 -34.85 -25.55 -32.45 Q-34.25 -30.45 -36.4 -30.45 -37.85 -30.45 -41.35 -33.0 -46.6 -36.9 -54.1 -40.35 M-3.85 -81.9 L-9.0 -82.05 -8.6 -82.6 -7.65 -83.45 Q-5.45 -83.8 -3.6 -82.25 -3.6 -82.0 -3.85 -81.9 M-22.75 -77.85 Q-24.05 -74.4 -26.55 -71.45 -29.35 -68.05 -32.35 -67.1 L-33.25 -67.3 Q-33.55 -67.5 -33.6 -68.2 -34.3 -72.35 -29.35 -75.65 -24.85 -78.8 -22.75 -77.85 M-12.9 -56.95 L-12.65 -57.95 Q-12.35 -58.45 -11.85 -58.5 L-10.85 -58.25 Q-10.4 -57.95 -10.3 -57.4 -10.2 -56.8 -10.55 -56.3 -10.9 -55.85 -11.4 -55.75 -11.95 -55.7 -12.35 -56.0 -12.8 -56.35 -12.9 -56.95 M-3.85 -58.75 L-2.95 -54.2 -2.95 -53.5 Q-3.0 -52.9 -3.35 -52.35 L-4.95 -52.2 Q-5.15 -52.1 -5.25 -53.15 L-5.45 -55.55 -5.4 -55.8 Q-5.25 -57.45 -4.35 -58.35 L-3.85 -58.75" fill="#e0e0e0" fill-rule="evenodd" stroke="none"/>
    <path d="M4.3 -79.5 L4.5 -79.45 4.95 -79.35 7.85 -78.75 8.25 -78.65 8.9 -78.5 11.65 -77.95 Q18.25 -76.35 21.95 -74.45 L23.6 -70.2 26.5 -62.2 Q28.5 -56.7 29.05 -53.3 29.7 -49.9 28.6 -48.6 27.4 -47.35 25.25 -47.7 23.75 -47.9 19.95 -46.85 L19.4 -46.65 15.65 -45.5 14.9 -45.25 14.9 -46.15 14.9 -46.2 14.3 -58.65 13.95 -61.65 13.1 -68.15 Q12.95 -69.0 10.3 -72.35 L8.9 -74.1 4.3 -79.5 M-29.15 -78.05 L-15.65 -80.35 Q-23.1 -76.1 -26.05 -68.45 L-26.15 -68.2 -26.6 -66.95 -27.65 -63.15 -28.05 -60.35 -29.4 -47.9 -39.3 -49.5 -39.2 -53.6 -38.65 -57.25 -37.55 -62.95 Q-36.8 -66.25 -35.15 -69.95 -34.05 -73.55 -29.15 -78.05 M-12.1 -80.45 L-1.6 -80.15 Q5.05 -76.8 8.4 -72.65 L8.9 -72.0 Q11.1 -69.05 11.7 -65.5 L11.8 -62.65 11.65 -60.3 11.65 -59.85 Q11.25 -53.25 11.25 -45.6 L8.9 -45.6 2.75 -45.75 1.2 -45.8 -2.55 -45.85 -27.5 -47.4 -26.9 -59.15 -26.55 -62.85 -25.45 -67.2 -25.0 -68.5 -23.85 -70.85 Q-20.35 -76.7 -12.1 -80.45 M12.25 -77.25 Q10.4 -76.3 9.65 -75.35 13.15 -72.0 17.45 -66.75 19.25 -64.45 21.2 -64.75 22.15 -64.95 22.45 -65.3 L22.4 -66.5 Q21.95 -69.25 19.55 -72.85 16.15 -77.9 12.25 -77.25 M5.8 -52.1 Q6.3 -55.15 5.85 -58.0 5.6 -59.7 4.55 -61.85 L4.45 -62.0 Q3.5 -60.75 3.1 -57.9 2.5 -54.4 3.2 -50.2 3.35 -48.95 4.95 -49.0 5.45 -49.85 5.8 -52.1 M4.4 -63.65 L4.95 -63.75 7.65 -64.45 8.9 -65.0 9.55 -65.75 8.9 -66.6 Q1.5 -76.35 -0.8 -78.1 -4.1 -80.5 -11.0 -79.35 -14.4 -78.75 -18.25 -74.7 -21.05 -71.85 -21.8 -69.2 L-22.1 -67.8 -22.1 -66.5 Q-16.45 -63.25 -9.6 -63.45 2.25 -63.85 4.4 -63.65 M5.65 -37.25 L-9.05 -41.75 -2.95 -41.5 7.45 -41.5 8.9 -41.5 14.5 -41.85 14.7 -41.85 19.65 -42.4 Q18.95 -40.3 17.75 -39.15 16.55 -38.1 14.85 -37.85 L14.8 -37.85 14.6 -37.8 8.9 -37.35 6.8 -37.3 5.65 -37.25 M21.75 -42.65 L24.5 -43.0 21.8 -39.45 21.75 -42.65 M26.9 -43.4 L27.3 -43.45 27.05 -40.2 26.9 -43.4 M-54.1 -40.35 Q-58.75 -42.0 -63.15 -42.0 -67.35 -42.3 -69.95 -42.0 L-56.45 -45.55 Q-53.65 -46.25 -48.35 -48.5 L-46.35 -47.2 Q-44.6 -46.5 -41.5 -46.0 L-40.65 -45.85 -20.95 -42.8 -16.6 -42.05 Q-6.4 -40.2 1.1 -37.3 L1.4 -37.2 0.05 -37.15 -1.8 -36.95 -3.35 -36.75 -6.95 -37.7 -12.6 -39.1 -20.1 -40.85 -45.1 -44.35 -46.4 -44.0 -46.7 -43.9 -48.2 -43.1 -54.1 -40.35 M0.9 -36.15 L2.3 -36.2 0.9 -36.05 -6.55 -34.6 -18.9 -32.0 Q-27.25 -30.2 -34.75 -27.6 L-36.7 -27.6 -40.0 -30.0 -45.8 -33.9 Q-54.95 -39.6 -61.45 -39.95 -67.85 -40.35 -71.85 -38.95 -75.0 -37.9 -75.85 -33.65 -76.85 -32.25 -76.9 -33.9 -76.7 -38.55 -73.45 -39.85 -70.15 -41.25 -62.0 -41.1 -53.9 -41.0 -42.65 -32.35 -41.65 -31.45 -39.3 -30.4 -37.3 -29.45 -36.8 -29.45 L-22.25 -32.75 -11.55 -34.7 0.9 -36.15 M-22.75 -77.85 Q-24.85 -78.8 -29.35 -75.65 -34.3 -72.35 -33.6 -68.2 -33.55 -67.5 -33.25 -67.3 L-32.35 -67.1 Q-29.35 -68.05 -26.55 -71.45 -24.05 -74.4 -22.75 -77.85 M-3.85 -58.75 L-4.35 -58.35 Q-5.25 -57.45 -5.4 -55.8 L-5.45 -55.55 -5.25 -53.15 Q-5.15 -52.1 -4.95 -52.2 L-3.35 -52.35 Q-3.0 -52.9 -2.95 -53.5 L-2.95 -54.2 -3.85 -58.75 M-12.9 -56.95 Q-12.8 -56.35 -12.35 -56.0 -11.95 -55.7 -11.4 -55.75 -10.9 -55.85 -10.55 -56.3 -10.2 -56.8 -10.3 -57.4 -10.4 -57.95 -10.85 -58.25 L-11.85 -58.5 Q-12.35 -58.45 -12.65 -57.95 L-12.9 -56.95" fill="#b4b4b4" fill-rule="evenodd" stroke="none"/>
    <path d="M21.95 -74.45 Q27.35 -72.2 29.65 -69.3 31.15 -67.45 31.6 -64.7 L33.2 -47.2 Q32.85 -46.9 31.3 -46.25 L29.95 -45.8 27.85 -45.2 26.55 -44.9 24.7 -44.6 22.25 -44.25 22.25 -44.3 21.05 -44.1 15.0 -43.55 14.6 -43.5 9.5 -43.2 8.9 -43.15 3.3 -42.9 1.65 -42.9 -12.35 -43.5 -12.45 -43.5 -13.05 -43.55 -13.2 -43.45 Q-20.3 -43.35 -27.35 -44.6 L-29.7 -45.05 -39.95 -47.1 -39.9 -47.15 -41.4 -47.65 -42.3 -47.85 -45.15 -49.05 -46.2 -50.05 Q-44.45 -67.25 -42.15 -70.55 -40.75 -72.6 -37.5 -74.15 L-29.15 -78.05 Q-34.05 -73.55 -35.15 -69.95 -36.8 -66.25 -37.55 -62.95 L-38.65 -57.25 -39.2 -53.6 -39.3 -49.5 -29.4 -47.9 -28.05 -60.35 -27.65 -63.15 -26.6 -66.95 -26.15 -68.2 -26.05 -68.45 Q-23.1 -76.1 -15.65 -80.35 L-12.1 -80.45 Q-20.35 -76.7 -23.85 -70.85 L-25.0 -68.5 -25.45 -67.2 -26.55 -62.85 -26.9 -59.15 -27.5 -47.4 -2.55 -45.85 1.2 -45.8 2.75 -45.75 8.9 -45.6 11.25 -45.6 Q11.25 -53.25 11.65 -59.85 L11.65 -60.3 11.8 -62.65 11.7 -65.5 Q11.1 -69.05 8.9 -72.0 L8.4 -72.65 Q5.05 -76.8 -1.6 -80.15 L4.3 -79.5 8.9 -74.1 10.3 -72.35 Q12.95 -69.0 13.1 -68.15 L13.95 -61.65 14.3 -58.65 14.9 -46.2 14.9 -46.15 14.9 -45.25 15.65 -45.5 19.4 -46.65 19.95 -46.85 Q23.75 -47.9 25.25 -47.7 27.4 -47.35 28.6 -48.6 29.7 -49.9 29.05 -53.3 28.5 -56.7 26.5 -62.2 L23.6 -70.2 21.95 -74.45 M27.3 -43.45 L28.8 -43.75 32.3 -44.8 33.25 -45.25 33.0 -43.6 32.7 -40.35 Q32.4 -39.65 31.45 -39.2 30.1 -38.5 27.05 -38.05 L24.8 -37.7 21.65 -37.35 21.5 -37.3 21.3 -37.3 21.25 -37.3 17.95 -36.95 17.6 -36.95 15.65 -36.75 15.25 -36.75 14.75 -36.7 8.9 -36.4 7.45 -36.35 7.4 -36.35 7.4 -36.7 5.65 -37.25 6.8 -37.3 8.9 -37.35 14.6 -37.8 14.8 -37.85 14.85 -37.85 Q16.55 -38.1 17.75 -39.15 18.95 -40.3 19.65 -42.4 L21.75 -42.65 21.8 -39.45 24.5 -43.0 26.9 -43.4 27.05 -40.2 27.3 -43.45 M-75.3 -33.1 Q-74.25 -38.4 -66.2 -38.75 -58.15 -39.15 -50.5 -34.2 -57.0 -34.7 -65.65 -33.95 L-75.3 -33.1" fill="#8a8a8a" fill-rule="evenodd" stroke="none"/>
  </g>
</svg>
