<?xml version="1.0" encoding="UTF-8" standalone="no"?>
<svg xmlns:ffdec="https://www.free-decompiler.com/flash" xmlns:xlink="http://www.w3.org/1999/xlink" ffdec:objectType="shape" height="47.35px" width="34.25px" xmlns="http://www.w3.org/2000/svg">
  <g transform="matrix(1.0, 0.0, 0.0, 1.0, 21.55, 112.8)">
    <path d="M-16.7 -68.3 Q-18.75 -69.95 -20.4 -72.5 L-20.4 -72.55 -18.4 -81.65 -17.8 -84.5 -16.3 -91.65 -16.1 -92.75 -15.3 -96.95 -14.7 -100.4 -14.0 -104.75 -13.15 -109.5 Q-11.4 -110.9 -9.45 -111.7 L-11.3 -103.0 -11.9 -98.9 -12.2 -96.95 -12.85 -92.75 -13.0 -91.65 -14.45 -81.65 -14.7 -80.2 Q-15.75 -73.1 -16.7 -68.3" fill="#9f3000" fill-rule="evenodd" stroke="none"/>
    <path d="M6.8 -107.1 L7.6 -105.9 8.8 -103.8 8.45 -103.65 6.6 -102.9 5.75 -103.1 5.6 -103.6 6.8 -107.1 M9.8 -101.4 Q10.7 -98.75 11.05 -95.75 L8.0 -93.5 Q7.7 -93.85 7.55 -94.35 L7.4 -94.75 8.2 -96.95 8.8 -98.55 9.8 -101.4 M10.55 -86.1 Q9.9 -82.7 8.6 -79.65 L6.5 -77.95 Q3.7 -75.4 3.3 -75.4 2.65 -75.4 2.45 -75.7 L2.3 -76.35 Q6.5 -80.4 9.0 -83.75 L10.55 -86.1 M-8.8 -65.6 Q-13.3 -65.6 -16.7 -68.3 -15.75 -73.1 -14.7 -80.2 L-14.45 -81.65 -13.0 -91.65 -12.85 -92.75 -12.2 -96.95 -11.9 -98.9 -11.3 -103.0 -9.45 -111.7 -6.5 -112.55 Q-7.35 -108.35 -7.35 -105.1 -7.35 -104.35 -4.35 -103.65 L-1.4 -102.7 Q-1.4 -101.7 -1.65 -102.0 L-4.55 -101.6 -7.1 -101.2 Q-8.65 -100.5 -9.25 -97.45 L-9.35 -96.95 -9.7 -92.75 -9.75 -91.85 -9.75 -91.65 Q-9.85 -88.9 -10.7 -82.9 L-10.9 -81.65 -11.65 -76.8 -11.45 -75.35 -11.0 -73.4 Q-10.3 -70.75 -10.1 -68.95 L-7.45 -69.9 -5.0 -70.9 Q-4.45 -70.7 -4.45 -70.2 -4.75 -69.7 -6.6 -67.75 L-6.8 -67.55 -8.8 -65.6" fill="#ca4b00" fill-rule="evenodd" stroke="none"/>
    <path d="M8.8 -103.8 L9.8 -101.4 8.8 -98.55 8.2 -96.95 7.4 -94.75 7.55 -94.35 Q7.7 -93.85 8.0 -93.5 L11.05 -95.75 Q11.35 -92.65 11.0 -89.2 L10.55 -86.1 9.0 -83.75 Q6.5 -80.4 2.3 -76.35 L2.45 -75.7 Q2.65 -75.4 3.3 -75.4 3.7 -75.4 6.5 -77.95 L8.6 -79.65 Q7.05 -76.1 4.65 -73.05 L-2.5 -68.25 -3.15 -67.75 -5.3 -66.0 -8.8 -65.6 -6.8 -67.55 -6.6 -67.75 Q-4.75 -69.7 -4.45 -70.2 -4.45 -70.7 -5.0 -70.9 L-7.45 -69.9 -10.1 -68.95 Q-10.3 -70.75 -11.0 -73.4 L-11.45 -75.35 -11.65 -76.8 -10.9 -81.65 -10.7 -82.9 Q-9.85 -88.9 -9.75 -91.65 L-9.75 -91.85 -9.7 -92.75 -9.35 -96.95 -9.25 -97.45 Q-8.65 -100.5 -7.1 -101.2 L-4.55 -101.6 -1.65 -102.0 Q-1.4 -101.7 -1.4 -102.7 L-4.35 -103.65 Q-7.35 -104.35 -7.35 -105.1 -7.35 -108.35 -6.5 -112.55 L-4.5 -112.8 Q-4.4 -109.9 -3.25 -107.75 -2.0 -105.45 -0.2 -105.45 1.6 -105.45 2.85 -107.75 L3.8 -110.25 Q5.4 -109.0 6.8 -107.1 L5.6 -103.6 5.75 -103.1 6.6 -102.9 8.45 -103.65 8.8 -103.8 M4.5 -99.75 Q-0.1 -99.75 -3.1 -96.95 -4.85 -95.3 -6.05 -92.75 L-6.5 -91.65 -7.35 -89.15 Q-8.15 -86.25 -8.4 -81.65 L-8.6 -75.7 -8.45 -73.55 Q-8.2 -72.35 -7.4 -72.35 -2.35 -72.35 5.0 -84.65 5.0 -87.35 3.45 -87.5 1.45 -87.2 0.5 -87.5 L2.95 -92.75 4.85 -96.95 5.5 -98.7 5.35 -99.35 Q5.15 -99.75 4.5 -99.75" fill="#f46800" fill-rule="evenodd" stroke="none"/>
    <path d="M4.65 -73.05 L4.15 -72.5 Q-0.15 -67.3 -5.3 -66.0 L-3.15 -67.75 -2.5 -68.25 4.65 -73.05 M-4.5 -112.8 L-3.9 -112.8 Q0.45 -112.8 3.8 -110.25 L2.85 -107.75 Q1.6 -105.45 -0.2 -105.45 -2.0 -105.45 -3.25 -107.75 -4.4 -109.9 -4.5 -112.8 M4.5 -99.75 Q5.15 -99.75 5.35 -99.35 L5.5 -98.7 4.85 -96.95 2.95 -92.75 0.5 -87.5 Q1.45 -87.2 3.45 -87.5 5.0 -87.35 5.0 -84.65 -2.35 -72.35 -7.4 -72.35 -8.2 -72.35 -8.45 -73.55 L-8.6 -75.7 -8.4 -81.65 Q-8.15 -86.25 -7.35 -89.15 L-6.5 -91.65 -6.05 -92.75 Q-4.85 -95.3 -3.1 -96.95 -0.1 -99.75 4.5 -99.75" fill="#ff8428" fill-rule="evenodd" stroke="none"/>
    <path d="M-14.0 -104.75 L-14.7 -100.4 -15.3 -96.95 -16.1 -92.75 -16.3 -91.65 -17.8 -84.5 -18.4 -81.65 -20.4 -72.55 -21.55 -74.55 -21.2 -76.15 -20.0 -81.65 -17.85 -91.65 -17.6 -92.75 -16.7 -96.95 -15.85 -101.0 -14.3 -108.6 -13.15 -109.5 -14.0 -104.75" fill="#3c1200" fill-rule="evenodd" stroke="none"/>
    <path d="M-6.25 -101.8 L-11.5 -101.65 Q-13.5 -101.85 -13.25 -103.55 -12.8 -106.4 -9.9 -108.05 -7.2 -109.55 -3.25 -109.55 -1.2 -109.55 0.6 -108.85 1.95 -108.3 2.55 -107.65 L3.65 -101.8 3.3 -101.8 2.6 -104.85 Q1.85 -107.7 0.75 -108.6 L-0.1 -107.8 Q-0.3 -107.25 -0.55 -107.25 L-4.7 -108.8 Q-6.5 -108.8 -8.15 -107.15 L-9.4 -105.6 Q-9.6 -104.6 -8.3 -103.45 L-6.25 -101.8 M-1.75 -99.5 L1.25 -99.05 3.1 -99.25 4.25 -98.55 1.0 -98.0 Q-1.05 -98.0 -4.2 -99.25 L-1.75 -99.5 M-2.1 -98.0 L-0.35 -97.85 1.5 -97.65 5.95 -97.95 Q10.4 -98.45 11.45 -99.6 L10.25 -100.65 10.05 -100.7 11.45 -100.65 Q12.45 -100.4 12.3 -99.45 12.1 -98.15 7.45 -97.65 L2.75 -97.45 -2.25 -98.0 -2.1 -98.0 M-3.15 -98.2 L-5.45 -98.55 -12.8 -99.6 -14.9 -99.4 -14.7 -100.4 -14.7 -100.45 -12.05 -100.5 -7.8 -99.35 -3.15 -98.2 M-12.9 -75.1 L-12.5 -75.4 Q-12.7 -74.7 -11.95 -74.25 L-11.9 -74.25 -11.75 -74.35 -11.85 -75.25 -12.45 -75.75 -12.95 -75.75 -13.7 -76.15 -13.35 -77.25 Q-13.0 -76.85 -12.4 -76.85 -11.8 -76.85 -10.95 -77.4 L-9.95 -78.05 -9.3 -77.8 -8.65 -77.55 Q-7.7 -77.55 -7.25 -78.9 L-6.35 -81.25 -4.9 -79.4 -4.95 -76.55 -5.1 -76.8 -5.4 -76.7 -5.75 -76.65 -6.2 -75.55 -5.4 -76.15 Q-4.7 -74.6 -4.8 -73.95 -4.9 -73.55 -6.15 -72.9 L-8.4 -71.85 -9.6 -71.35 -10.7 -70.65 -11.35 -71.25 Q-12.1 -71.75 -12.75 -71.55 L-13.25 -72.65 -14.35 -73.95 -14.1 -74.95 -13.7 -74.85 -12.9 -75.1 M-10.6 -75.7 Q-10.25 -75.95 -10.3 -76.15 -10.75 -76.1 -11.05 -75.65 L-10.6 -75.7 M-8.8 -75.45 Q-8.35 -76.15 -8.25 -76.65 -9.25 -75.9 -9.95 -74.75 L-9.55 -74.55 -8.8 -75.45 M-6.7 -74.95 L-7.85 -73.9 -9.15 -72.75 Q-8.4 -72.1 -7.55 -72.9 -7.0 -73.4 -6.6 -74.5 L-6.7 -74.95 M-10.25 -72.65 L-10.2 -73.15 -10.6 -72.55 -10.25 -72.65" fill="#66351e" fill-rule="evenodd" stroke="none"/>
    <path d="M3.35 -101.2 L4.1 -99.5 3.35 -99.75 3.35 -101.2 M-3.0 -99.95 L-5.25 -100.05 -8.5 -100.9 -5.6 -101.4 Q-5.35 -101.1 -3.0 -99.95 M-16.5 -74.75 L-16.1 -75.55 -14.85 -76.45 -14.5 -75.95 -15.3 -74.75 -16.5 -74.75 M-3.75 -74.75 L-4.05 -75.4 -4.2 -75.95 -4.0 -76.4 -3.7 -76.45 Q-2.9 -76.35 -2.65 -75.7 -2.45 -75.25 -2.55 -74.75 L-3.75 -74.75" fill="#cccccc" fill-rule="evenodd" stroke="none"/>
    <path d="M3.35 -99.75 L-3.0 -99.95 Q-5.35 -101.1 -5.6 -101.4 L-0.45 -101.6 3.35 -101.2 3.35 -99.75 M3.6 -93.6 L3.6 -93.15 Q3.5 -92.6 2.95 -92.1 L2.2 -91.3 1.75 -91.65 2.85 -92.55 3.1 -93.35 3.15 -93.55 3.6 -93.6 M3.1 -86.5 L2.8 -86.5 Q-3.4 -89.45 -0.5 -90.35 0.35 -89.4 0.4 -88.85 0.4 -87.6 3.1 -86.5 M-9.6 -94.75 L-8.85 -93.95 Q-10.5 -93.6 -10.6 -92.85 -10.7 -92.4 -10.3 -92.05 L-9.6 -91.65 Q-9.2 -91.65 -8.8 -92.05 -8.35 -92.4 -8.25 -92.85 L-8.25 -93.35 -7.75 -93.0 Q-8.3 -91.95 -8.95 -91.45 -9.5 -91.05 -9.75 -91.05 -10.45 -91.05 -10.85 -91.75 -11.35 -92.55 -11.2 -93.7 L-10.65 -95.15 Q-10.05 -95.1 -9.6 -94.75 M-16.5 -74.75 L-15.3 -74.75 -15.5 -73.7 Q-15.3 -73.15 -10.55 -67.9 L-4.15 -73.45 Q-3.85 -73.95 -3.75 -74.75 L-2.55 -74.75 Q-2.6 -73.8 -3.1 -73.0 L-10.8 -66.3 -15.65 -71.85 -16.5 -73.0 Q-16.7 -73.85 -16.5 -74.75" fill="#ffffff" fill-rule="evenodd" stroke="none"/>
    <path d="M-6.25 -101.8 L-8.3 -103.45 Q-9.6 -104.6 -9.4 -105.6 L-8.15 -107.15 Q-6.5 -108.8 -4.7 -108.8 L-0.55 -107.25 Q-0.3 -107.25 -0.1 -107.8 L0.75 -108.6 Q1.85 -107.7 2.6 -104.85 L3.3 -101.8 -0.85 -102.25 -6.25 -101.8 M3.1 -99.25 L1.25 -99.05 -1.75 -99.5 3.1 -99.25 M-14.5 -101.6 Q-11.95 -101.6 -9.25 -100.55 -4.35 -98.65 -2.1 -98.0 L-2.25 -98.0 -2.9 -98.15 -3.15 -98.2 -7.8 -99.35 -12.05 -100.5 -14.7 -100.45 -14.5 -101.6 M-10.6 -75.7 L-11.05 -75.65 Q-10.75 -76.1 -10.3 -76.15 -10.25 -75.95 -10.6 -75.7 M-6.7 -74.95 L-6.6 -74.5 Q-7.0 -73.4 -7.55 -72.9 -8.4 -72.1 -9.15 -72.75 L-7.85 -73.9 -6.7 -74.95 M-8.8 -75.45 L-9.55 -74.55 -9.95 -74.75 Q-9.25 -75.9 -8.25 -76.65 -8.35 -76.15 -8.8 -75.45 M-10.25 -72.65 L-10.6 -72.55 -10.2 -73.15 -10.25 -72.65" fill="#934d2c" fill-rule="evenodd" stroke="none"/>
    <path d="M6.9 -100.5 L8.25 -100.7 8.1 -100.5 6.05 -99.45 4.8 -98.7 4.7 -99.25 5.35 -99.95 6.9 -100.5" fill="#4c2716" fill-rule="evenodd" stroke="none"/>
    <path d="M-15.6 -95.15 L-14.75 -96.35 -14.85 -94.75 -14.2 -95.9 -12.5 -97.15 -12.45 -92.9 Q-12.05 -90.45 -10.05 -89.9 -10.8 -89.4 -11.8 -88.95 L-10.85 -89.1 -8.2 -90.1 -8.75 -89.8 Q-10.35 -88.5 -10.75 -87.0 -10.9 -86.1 -12.05 -86.1 -13.65 -86.1 -15.15 -88.25 -16.15 -89.8 -16.35 -91.4 L-16.3 -91.65 -16.1 -92.75 -15.6 -95.15 M-0.95 -93.35 Q0.2 -94.05 0.8 -93.6 L1.1 -93.0 0.8 -91.95 Q0.55 -91.65 -0.05 -91.65 L-1.0 -91.85 -2.0 -91.25 Q-2.6 -90.9 -3.45 -90.9 L-4.0 -91.0 -4.2 -91.05 Q-4.2 -90.5 -4.95 -89.9 L-6.05 -89.1 -7.8 -87.9 -9.1 -87.1 -8.2 -84.05 Q-7.45 -80.95 -7.6 -79.85 -7.7 -79.2 -7.95 -78.75 -8.2 -78.25 -8.65 -78.25 L-9.15 -78.5 -9.85 -79.15 -11.35 -78.25 Q-12.15 -77.6 -12.35 -77.6 L-11.1 -78.55 Q-9.9 -79.7 -9.7 -81.25 -9.3 -84.0 -9.45 -85.15 L-9.6 -86.9 Q-9.45 -88.0 -7.6 -89.1 L-4.9 -90.9 -5.1 -90.9 -4.8 -91.25 -3.0 -92.65 Q-1.8 -93.35 -1.0 -92.85 L-0.95 -93.35 M4.2 -96.45 L4.55 -96.15 4.8 -95.35 Q4.25 -94.15 3.65 -93.95 L1.9 -93.45 1.8 -93.9 Q2.75 -94.3 3.15 -95.45 3.55 -96.45 4.2 -96.45 M1.65 -94.75 L1.3 -94.25 -0.4 -94.4 Q-0.85 -94.25 -1.2 -94.05 L-2.25 -94.25 -3.15 -93.95 Q-3.7 -93.6 -4.0 -93.6 -7.15 -93.6 -7.4 -96.95 L-7.35 -97.05 -3.65 -95.9 Q-0.05 -94.95 1.9 -95.3 L1.65 -94.75 M0.3 -93.05 Q0.1 -93.05 0.05 -92.9 L-0.15 -92.55 -0.05 -92.15 Q-0.05 -92.05 0.15 -92.05 L0.45 -92.15 0.55 -92.55 0.55 -92.9 0.3 -93.05 M-7.65 -95.35 Q-7.2 -94.25 -6.75 -93.9 -6.05 -93.3 -4.4 -93.35 L-4.85 -92.65 Q-6.75 -92.65 -8.1 -94.05 -9.3 -95.55 -10.85 -95.55 L-11.9 -95.45 Q-12.3 -95.55 -12.2 -96.35 L-11.75 -96.95 -10.55 -97.65 Q-8.7 -98.15 -7.65 -95.35 M-2.9 -91.6 L-3.35 -91.45 -3.25 -91.3 -1.95 -91.65 Q-1.5 -91.9 -1.35 -92.3 -1.6 -92.15 -2.0 -91.9 L-2.0 -92.1 -2.1 -92.45 Q-2.25 -92.65 -2.5 -92.65 L-2.9 -92.45 -3.15 -92.1 -3.05 -91.7 -2.9 -91.6 M-14.6 -93.55 Q-14.75 -92.45 -14.35 -90.8 -15.05 -91.75 -15.2 -92.65 L-15.3 -93.95 -15.7 -92.45 Q-16.0 -90.7 -15.0 -89.1 -14.0 -87.3 -12.15 -87.3 -11.55 -87.3 -10.7 -88.05 L-9.85 -88.9 -12.0 -88.4 Q-14.0 -88.4 -14.1 -89.6 -13.9 -89.1 -13.25 -89.1 L-12.05 -89.35 -11.3 -89.6 Q-13.6 -89.9 -14.45 -92.55 L-14.55 -93.0 -14.6 -93.55 M-2.45 -84.1 L-1.0 -83.8 -0.95 -83.75 -1.55 -81.65 Q-2.2 -81.7 -2.4 -82.35 -2.75 -82.95 -2.5 -83.85 L-2.45 -84.1 M-4.95 -84.55 L-3.05 -84.2 Q-2.95 -83.5 -3.8 -82.6 L-4.85 -81.7 -5.55 -82.5 -5.45 -83.75 -5.3 -84.3 -4.95 -84.55 M-6.5 -84.45 L-6.6 -84.3 -6.55 -84.2 -6.3 -84.1 -6.05 -84.2 -5.9 -84.3 -6.0 -84.45 -6.25 -84.5 -6.5 -84.45 M-1.45 -82.9 L-1.45 -83.2 -1.6 -83.35 -1.85 -83.2 -1.95 -82.9 -1.95 -82.5 Q-1.85 -82.4 -1.75 -82.4 -1.65 -82.4 -1.55 -82.5 L-1.45 -82.9 M-5.0 -83.05 L-4.9 -82.8 Q-5.15 -82.65 -4.5 -82.65 -4.15 -82.65 -3.55 -83.4 L-3.65 -83.55 -5.0 -83.05 M-5.15 -84.55 Q-5.55 -84.1 -6.3 -84.0 -6.85 -83.85 -7.8 -85.0 L-5.15 -84.55 M-8.9 -85.5 L-9.0 -85.2 Q-8.8 -81.3 -9.15 -79.0 L-8.6 -78.95 -8.15 -78.95 -7.95 -79.0 Q-7.55 -82.4 -8.9 -85.5" fill="#981616" fill-rule="evenodd" stroke="none"/>
    <path d="M-1.2 -91.05 L0.5 -91.45 3.45 -88.6 4.4 -87.5 Q4.8 -86.8 4.65 -85.75 L3.9 -82.5 Q1.75 -85.4 -2.2 -85.7 L-5.55 -85.9 Q-7.45 -85.95 -8.7 -86.5 L-8.8 -87.1 -8.45 -87.3 -7.7 -87.35 -7.7 -87.2 -1.0 -86.15 Q3.1 -85.4 3.5 -83.2 L3.55 -83.1 3.75 -83.4 Q3.95 -84.8 1.7 -85.65 -0.4 -86.4 -6.75 -87.35 L-7.65 -87.55 Q-7.05 -87.8 -5.8 -88.9 L-4.25 -90.2 -2.15 -90.8 -4.2 -89.65 -2.6 -88.75 -2.8 -88.75 -3.2 -88.9 -3.95 -89.15 -4.85 -89.3 -5.5 -88.7 -5.7 -87.9 Q1.85 -86.05 2.8 -86.5 L3.1 -86.5 3.1 -86.4 3.6 -86.55 4.15 -87.1 Q3.75 -88.2 1.9 -89.75 0.3 -91.2 -0.1 -91.2 L-1.2 -91.05 M3.65 -85.25 L4.1 -84.35 4.1 -84.5 4.5 -86.6 Q3.95 -86.5 3.7 -86.1 L3.65 -85.25 M0.4 -83.8 L-3.9 -84.75 -8.35 -85.6 -8.45 -85.95 Q-7.55 -85.45 -3.45 -85.05 0.65 -84.7 1.4 -84.2 L0.4 -83.8" fill="#bb8217" fill-rule="evenodd" stroke="none"/>
    <path d="M-2.15 -90.8 L-1.2 -91.05 -0.1 -91.2 Q0.3 -91.2 1.9 -89.75 3.75 -88.2 4.15 -87.1 L3.6 -86.55 3.1 -86.4 3.1 -86.5 Q0.4 -87.6 0.4 -88.85 0.35 -89.4 -0.5 -90.35 -3.4 -89.45 2.8 -86.5 1.85 -86.05 -5.7 -87.9 L-5.5 -88.7 -4.85 -89.3 -3.95 -89.15 -3.2 -88.9 -2.8 -88.75 -2.6 -88.75 -4.2 -89.65 -2.15 -90.8 M3.65 -85.25 L3.7 -86.1 Q3.95 -86.5 4.5 -86.6 L4.1 -84.5 4.1 -84.35 3.65 -85.25 M-6.75 -87.35 Q-0.4 -86.4 1.7 -85.65 3.95 -84.8 3.75 -83.4 L3.55 -83.1 3.5 -83.2 Q3.1 -85.4 -1.0 -86.15 L-7.7 -87.2 -7.7 -87.35 -6.75 -87.35" fill="#e4a318" fill-rule="evenodd" stroke="none"/>
    <path d="M-0.95 -93.35 L-1.0 -92.85 Q-1.8 -93.35 -3.0 -92.65 L-4.8 -91.25 -3.6 -93.1 Q-3.2 -93.55 -2.6 -93.55 L-0.95 -93.35 M-5.1 -90.9 L-4.9 -90.9 -7.6 -89.1 Q-9.45 -88.0 -9.6 -86.9 L-9.45 -85.15 Q-9.3 -84.0 -9.7 -81.25 -9.9 -79.7 -11.1 -78.55 L-12.35 -77.6 -12.75 -77.75 -12.8 -78.2 -12.15 -78.8 Q-11.35 -79.65 -11.0 -80.95 -10.5 -82.7 -10.35 -84.75 -10.3 -86.6 -10.05 -87.1 -9.55 -88.45 -8.05 -89.35 -7.15 -89.85 -5.1 -90.9 M-2.9 -91.6 Q-2.8 -91.5 -2.65 -91.5 -2.4 -91.5 -2.25 -91.7 L-2.0 -91.9 Q-1.6 -92.15 -1.35 -92.3 -1.5 -91.9 -1.95 -91.65 L-3.25 -91.3 -3.35 -91.45 -2.9 -91.6 M-14.6 -93.55 L-14.55 -93.0 -14.45 -92.55 Q-13.6 -89.9 -11.3 -89.6 L-12.05 -89.35 -13.25 -89.1 Q-13.9 -89.1 -14.1 -89.6 -14.0 -88.4 -12.0 -88.4 L-9.85 -88.9 -10.7 -88.05 Q-11.55 -87.3 -12.15 -87.3 -14.0 -87.3 -15.0 -89.1 -16.0 -90.7 -15.7 -92.45 L-15.3 -93.95 -15.2 -92.65 Q-15.05 -91.75 -14.35 -90.8 -14.75 -92.45 -14.6 -93.55 M-5.0 -83.05 L-3.65 -83.55 -3.55 -83.4 Q-4.15 -82.65 -4.5 -82.65 -5.15 -82.65 -4.9 -82.8 L-5.0 -83.05 M-1.45 -82.9 L-1.55 -82.5 Q-1.65 -82.4 -1.75 -82.4 -1.85 -82.4 -1.95 -82.5 L-1.95 -82.9 -1.85 -83.2 -1.6 -83.35 -1.45 -83.2 -1.45 -82.9 M-6.5 -84.45 L-6.25 -84.5 -6.0 -84.45 -5.9 -84.3 -6.05 -84.2 -6.3 -84.1 -6.55 -84.2 -6.6 -84.3 -6.5 -84.45 M-8.9 -85.5 Q-7.55 -82.4 -7.95 -79.0 L-8.15 -78.95 -8.6 -78.95 -9.15 -79.0 Q-8.8 -81.3 -9.0 -85.2 L-8.9 -85.5" fill="#e34444" fill-rule="evenodd" stroke="none"/>
    <path d="M-8.45 -87.3 L-7.65 -87.55 -6.75 -87.35 -7.7 -87.35 -8.45 -87.3" fill="#592c0d" fill-rule="evenodd" stroke="none"/>
    <path d="M3.3 -101.8 L3.65 -101.8 2.55 -107.65 Q1.95 -108.3 0.6 -108.85 -1.2 -109.55 -3.25 -109.55 -7.2 -109.55 -9.9 -108.05 -12.8 -106.4 -13.25 -103.55 -13.5 -101.85 -11.5 -101.65 L-6.25 -101.8 -0.85 -102.25 3.3 -101.8 M3.35 -99.75 L4.1 -99.5 3.35 -101.2 -0.45 -101.6 -5.6 -101.4 -8.5 -100.9 -5.25 -100.05 -3.0 -99.95 3.35 -99.75 M-1.75 -99.5 L-4.2 -99.25 Q-1.05 -98.0 1.0 -98.0 L4.25 -98.55 3.1 -99.25 -1.75 -99.5 M-14.5 -101.6 L-14.4 -102.35 -14.3 -102.4 -13.1 -105.75 Q-12.5 -107.35 -11.7 -108.15 -9.65 -110.2 -2.75 -110.2 1.65 -110.2 2.65 -108.7 3.15 -107.8 4.6 -100.2 5.1 -100.85 6.2 -101.2 L7.5 -101.45 8.5 -101.2 9.6 -101.0 11.5 -101.2 Q12.9 -101.1 12.65 -99.5 12.55 -98.7 10.05 -97.45 L9.2 -97.05 Q4.7 -94.65 4.45 -94.25 4.3 -92.85 3.2 -90.1 L3.6 -89.6 5.65 -87.8 5.25 -85.05 4.7 -82.15 Q4.5 -81.7 3.75 -81.7 L2.95 -82.6 Q2.15 -83.4 1.65 -83.4 L0.7 -83.2 -0.2 -83.1 -0.55 -81.9 Q-0.85 -80.75 -1.55 -80.75 L-2.15 -81.0 -3.1 -81.95 -3.85 -81.45 -4.0 -81.05 -4.1 -79.65 Q-4.15 -78.4 -3.7 -78.05 L-2.8 -77.6 Q-2.5 -77.4 -2.3 -76.35 -2.0 -75.25 -2.15 -74.35 -2.3 -73.45 -4.25 -71.25 -6.8 -68.3 -10.95 -65.45 -14.15 -68.5 -15.85 -71.35 -17.2 -73.45 -17.05 -74.3 L-16.45 -75.55 -15.2 -77.6 Q-14.05 -79.15 -13.65 -78.75 L-12.9 -82.9 -12.7 -83.35 Q-12.65 -83.95 -14.7 -86.8 L-16.7 -89.6 -16.35 -91.4 Q-16.15 -89.8 -15.15 -88.25 -13.65 -86.1 -12.05 -86.1 -10.9 -86.1 -10.75 -87.0 -10.35 -88.5 -8.75 -89.8 L-8.2 -90.1 -10.85 -89.1 -11.8 -88.95 Q-10.8 -89.4 -10.05 -89.9 -12.05 -90.45 -12.45 -92.9 L-12.5 -97.15 -14.2 -95.9 -14.85 -94.75 -14.75 -96.35 -15.6 -95.15 -15.3 -96.95 -14.9 -99.4 -12.8 -99.6 -5.45 -98.55 -3.15 -98.2 -2.9 -98.15 -2.25 -98.0 2.75 -97.45 7.45 -97.65 Q12.1 -98.15 12.3 -99.45 12.45 -100.4 11.45 -100.65 L10.05 -100.7 10.25 -100.65 11.45 -99.6 Q10.4 -98.45 5.95 -97.95 L1.5 -97.65 -0.35 -97.85 -2.1 -98.0 Q-4.35 -98.65 -9.25 -100.55 -11.95 -101.6 -14.5 -101.6 M6.9 -100.5 L5.35 -99.95 4.7 -99.25 4.8 -98.7 6.05 -99.45 8.1 -100.5 8.25 -100.7 6.9 -100.5 M4.2 -96.45 Q3.55 -96.45 3.15 -95.45 2.75 -94.3 1.8 -93.9 L1.9 -93.45 3.65 -93.95 Q4.25 -94.15 4.8 -95.35 L4.55 -96.15 4.2 -96.45 M-12.35 -77.6 Q-12.15 -77.6 -11.35 -78.25 L-9.85 -79.15 -9.15 -78.5 -8.65 -78.25 Q-8.2 -78.25 -7.95 -78.75 -7.7 -79.2 -7.6 -79.85 -7.45 -80.95 -8.2 -84.05 L-9.1 -87.1 -7.8 -87.9 -6.05 -89.1 -4.95 -89.9 Q-4.2 -90.5 -4.2 -91.05 L-4.0 -91.0 -3.45 -90.9 Q-2.6 -90.9 -2.0 -91.25 L-1.0 -91.85 -0.05 -91.65 Q0.55 -91.65 0.8 -91.95 L1.1 -93.0 0.8 -93.6 Q0.2 -94.05 -0.95 -93.35 L-2.6 -93.55 Q-3.2 -93.55 -3.6 -93.1 L-4.8 -91.25 -5.1 -90.9 Q-7.15 -89.85 -8.05 -89.35 -9.55 -88.45 -10.05 -87.1 -10.3 -86.6 -10.35 -84.75 -10.5 -82.7 -11.0 -80.95 -11.35 -79.65 -12.15 -78.8 L-12.8 -78.2 -12.75 -77.75 -12.35 -77.6 M0.3 -93.05 L0.55 -92.9 0.55 -92.55 0.45 -92.15 0.15 -92.05 Q-0.05 -92.05 -0.05 -92.15 L-0.15 -92.55 0.05 -92.9 Q0.1 -93.05 0.3 -93.05 M1.65 -94.75 L1.9 -95.3 Q-0.05 -94.95 -3.65 -95.9 L-7.35 -97.05 -7.4 -96.95 Q-7.15 -93.6 -4.0 -93.6 -3.7 -93.6 -3.15 -93.95 L-2.25 -94.25 -1.2 -94.05 Q-0.85 -94.25 -0.4 -94.4 L1.3 -94.25 1.65 -94.75 M3.6 -93.6 L3.15 -93.55 3.1 -93.35 2.85 -92.55 1.75 -91.65 2.2 -91.3 2.95 -92.1 Q3.5 -92.6 3.6 -93.15 L3.6 -93.6 M-8.45 -87.3 L-8.8 -87.1 -8.7 -86.5 Q-7.45 -85.95 -5.55 -85.9 L-2.2 -85.7 Q1.75 -85.4 3.9 -82.5 L4.65 -85.75 Q4.8 -86.8 4.4 -87.5 L3.45 -88.6 0.5 -91.45 -1.2 -91.05 -2.15 -90.8 -4.25 -90.2 -5.8 -88.9 Q-7.05 -87.8 -7.65 -87.55 L-8.45 -87.3 M0.4 -83.8 L1.4 -84.2 Q0.65 -84.7 -3.45 -85.05 -7.55 -85.45 -8.45 -85.95 L-8.35 -85.6 -3.9 -84.75 0.4 -83.8 M-9.6 -94.75 Q-10.05 -95.1 -10.65 -95.15 L-11.2 -93.7 Q-11.35 -92.55 -10.85 -91.75 -10.45 -91.05 -9.75 -91.05 -9.5 -91.05 -8.95 -91.45 -8.3 -91.95 -7.75 -93.0 L-8.25 -93.35 -8.25 -92.85 Q-8.35 -92.4 -8.8 -92.05 -9.2 -91.65 -9.6 -91.65 L-10.3 -92.05 Q-10.7 -92.4 -10.6 -92.85 -10.5 -93.6 -8.85 -93.95 L-9.6 -94.75 M-7.65 -95.35 Q-8.7 -98.15 -10.55 -97.65 L-11.75 -96.95 -12.2 -96.35 Q-12.3 -95.55 -11.9 -95.45 L-10.85 -95.55 Q-9.3 -95.55 -8.1 -94.05 -6.75 -92.65 -4.85 -92.65 L-4.4 -93.35 Q-6.05 -93.3 -6.75 -93.9 -7.2 -94.25 -7.65 -95.35 M-2.0 -91.9 L-2.25 -91.7 Q-2.4 -91.5 -2.65 -91.5 -2.8 -91.5 -2.9 -91.6 L-3.05 -91.7 -3.15 -92.1 -2.9 -92.45 -2.5 -92.65 Q-2.25 -92.65 -2.1 -92.45 L-2.0 -92.1 -2.0 -91.9 M-15.3 -74.75 L-14.5 -75.95 -14.85 -76.45 -16.1 -75.55 -16.5 -74.75 Q-16.7 -73.85 -16.5 -73.0 L-15.65 -71.85 -10.8 -66.3 -3.1 -73.0 Q-2.6 -73.8 -2.55 -74.75 -2.45 -75.25 -2.65 -75.7 -2.9 -76.35 -3.7 -76.45 L-4.0 -76.4 -4.2 -75.95 -4.05 -75.4 -3.75 -74.75 Q-3.85 -73.95 -4.15 -73.45 L-10.55 -67.9 Q-15.3 -73.15 -15.5 -73.7 L-15.3 -74.75 M-12.9 -75.1 L-13.7 -74.85 -14.1 -74.95 -14.35 -73.95 -13.25 -72.65 -12.75 -71.55 Q-12.1 -71.75 -11.35 -71.25 L-10.7 -70.65 -9.6 -71.35 -8.4 -71.85 -6.15 -72.9 Q-4.9 -73.55 -4.8 -73.95 -4.7 -74.6 -5.4 -76.15 L-6.2 -75.55 -5.75 -76.65 -5.4 -76.7 -5.1 -76.8 -4.95 -76.55 -4.9 -79.4 -6.35 -81.25 -7.25 -78.9 Q-7.7 -77.55 -8.65 -77.55 L-9.3 -77.8 -9.95 -78.05 -10.95 -77.4 Q-11.8 -76.85 -12.4 -76.85 -13.0 -76.85 -13.35 -77.25 L-13.7 -76.15 -12.95 -75.75 -12.45 -75.75 -11.85 -75.25 -11.75 -74.35 -11.9 -74.25 -11.95 -74.25 Q-12.7 -74.7 -12.5 -75.4 L-12.9 -75.1 M-2.45 -84.1 L-2.5 -83.85 Q-2.75 -82.95 -2.4 -82.35 -2.2 -81.7 -1.55 -81.65 L-0.95 -83.75 -1.0 -83.8 -2.45 -84.1 M-4.95 -84.55 L-5.3 -84.3 -5.45 -83.75 -5.55 -82.5 -4.85 -81.7 -3.8 -82.6 Q-2.95 -83.5 -3.05 -84.2 L-4.95 -84.55 M-5.15 -84.55 L-7.8 -85.0 Q-6.85 -83.85 -6.3 -84.0 -5.55 -84.1 -5.15 -84.55" fill="#29150c" fill-rule="evenodd" stroke="none"/>
  </g>
</svg>
