<?xml version="1.0" encoding="UTF-8" standalone="no"?>
<svg xmlns:ffdec="https://www.free-decompiler.com/flash" xmlns:xlink="http://www.w3.org/1999/xlink" ffdec:objectType="shape" height="25.5px" width="56.4px" xmlns="http://www.w3.org/2000/svg">
  <g transform="matrix(1.0, 0.0, 0.0, 1.0, 50.4, 15.7)">
    <path d="M-49.1 -2.95 L-49.05 -3.05 -49.0 -3.1 -49.1 -2.95 M0.2 2.95 L-0.1 3.4 -0.85 3.65 -1.65 3.45 -2.0 2.95 -1.65 2.4 Q-1.35 2.15 -0.85 2.15 -0.45 2.1 -0.1 2.35 L0.1 2.55 0.2 2.85 0.2 2.95" fill="#191919" fill-rule="evenodd" stroke="none"/>
    <path d="M-2.85 -6.1 L-4.05 -5.8 -4.95 -5.6 -6.7 -5.1 -12.5 -3.25 -12.9 -3.2 -13.2 -3.3 Q-20.85 -9.15 -27.65 -9.8 L-27.95 -9.85 -28.1 -10.0 -28.15 -10.2 -28.1 -10.35 Q-27.8 -11.3 -27.0 -12.05 L-26.85 -12.2 -26.75 -12.3 -26.7 -12.35 -26.3 -12.7 Q-30.55 -12.9 -33.75 -11.7 L-34.1 -11.65 -34.4 -11.7 -35.15 -12.15 -35.2 -12.15 -35.25 -12.1 Q-40.75 -10.55 -45.0 -7.15 -47.35 -5.25 -49.05 -3.05 L-49.1 -2.95 Q-48.45 -2.4 -47.15 -2.6 L-47.1 -2.6 -46.95 -2.6 Q-44.85 -3.0 -42.55 -4.4 L-42.2 -4.6 Q-39.45 -6.5 -35.65 -7.8 L-35.35 -7.9 -35.0 -7.75 -34.9 -7.55 -34.95 -7.3 Q-37.3 -4.5 -35.6 -2.3 -33.9 -0.25 -29.35 1.3 -24.95 2.75 -19.4 1.45 -13.5 -0.05 -8.8 -0.25 L-1.75 -0.6 -1.65 -0.6 1.3 -0.35 2.05 -0.25 3.4 0.1 3.15 -0.25 1.85 -1.8 2.8 -1.85 Q3.35 -2.25 3.75 -2.15 L3.45 -2.15 5.9 1.35 Q4.95 1.2 4.35 1.35 L4.35 1.4 4.3 1.3 3.0 0.8 2.65 0.7 1.65 0.5 -1.05 0.25 -1.8 0.2 -8.8 0.5 Q-13.4 0.7 -19.0 2.15 -25.05 3.55 -29.85 1.9 L-29.9 1.9 Q-34.8 0.35 -36.6 -1.95 -38.25 -4.0 -36.65 -6.6 -39.35 -5.5 -41.45 -4.1 L-43.55 -2.9 Q-45.3 -2.05 -46.95 -1.85 L-47.4 -1.8 -47.65 -1.75 Q-48.8 -1.75 -49.5 -2.1 L-49.65 -2.2 -50.2 -3.3 -50.4 -3.65 -47.6 -6.95 Q-42.45 -12.05 -35.2 -13.9 L-35.05 -12.5 -35.0 -12.3 -34.85 -12.35 -33.55 -12.6 -32.95 -12.8 -32.35 -13.05 -29.85 -13.4 -28.95 -13.55 -28.2 -13.75 -27.1 -13.75 -26.55 -13.5 -27.35 -13.45 -24.95 -13.35 -24.55 -13.2 -24.5 -12.95 -24.65 -12.65 -25.2 -12.3 -25.25 -12.3 -25.55 -12.05 Q-26.5 -11.35 -26.9 -10.45 L-26.75 -10.4 Q-20.15 -9.6 -12.75 -4.0 L-7.55 -5.7 -5.1 -6.35 -4.95 -6.4 -3.55 -6.7 -4.0 -7.05 -3.9 -7.1 Q-3.6 -7.1 -2.85 -6.1 M3.75 3.65 L3.65 3.65 2.9 3.45 2.6 2.9 Q2.6 2.6 2.9 2.4 L3.35 2.2 3.65 2.15 Q4.15 2.15 4.45 2.4 L4.75 2.85 4.45 3.45 Q4.2 3.65 3.75 3.65 M-45.0 -0.2 Q-45.0 0.1 -45.3 0.4 L-46.1 0.6 -46.85 0.4 -47.25 -0.15 Q-47.25 -0.45 -46.85 -0.65 L-46.1 -0.9 -45.3 -0.65 Q-45.0 -0.5 -45.0 -0.2 M-39.35 -2.75 Q-39.35 -2.45 -39.65 -2.3 -40.05 -2.0 -40.45 -2.0 L-41.2 -2.2 Q-41.6 -2.4 -41.6 -2.7 L-41.2 -3.25 -40.45 -3.5 -39.65 -3.35 Q-39.35 -3.05 -39.35 -2.75 M-6.7 3.3 L-7.0 3.8 Q-7.3 4.1 -7.75 4.1 L-8.55 3.9 -8.85 3.4 -8.55 2.85 -7.75 2.6 -7.0 2.75 Q-6.7 3.0 -6.7 3.3 M-15.55 3.75 Q-15.55 3.45 -15.2 3.25 L-14.4 2.95 -13.65 3.15 Q-13.3 3.35 -13.3 3.65 L-13.5 4.1 -13.65 4.2 -14.4 4.45 -15.2 4.3 -15.55 3.75 M-19.8 4.5 Q-19.8 4.8 -20.15 5.0 L-20.95 5.3 -21.65 5.1 -22.05 4.6 Q-22.05 4.3 -21.65 4.05 L-20.95 3.8 -20.15 3.95 Q-19.8 4.2 -19.8 4.5 M-26.3 4.8 Q-26.3 5.1 -26.65 5.35 L-27.4 5.6 -28.2 5.45 -28.5 4.9 -28.2 4.4 -27.4 4.1 -26.65 4.3 Q-26.3 4.5 -26.3 4.8 M-34.2 4.05 L-34.35 3.95 -34.75 3.5 -34.35 2.9 -33.65 2.7 -32.85 2.85 Q-32.5 3.15 -32.5 3.45 L-32.7 3.85 -32.85 3.9 -33.65 4.2 -34.2 4.05 M-37.4 0.8 Q-37.4 1.1 -37.75 1.4 L-38.5 1.6 -39.3 1.45 -39.6 0.85 -39.3 0.4 -38.5 0.1 Q-38.05 0.1 -37.75 0.35 -37.4 0.5 -37.4 0.8" fill="#464646" fill-rule="evenodd" stroke="none"/>
    <path d="M-1.65 -0.6 L-1.75 -0.6 -8.8 -0.25 Q-13.5 -0.05 -19.4 1.45 -24.95 2.75 -29.35 1.3 -33.9 -0.25 -35.6 -2.3 -37.3 -4.5 -34.95 -7.3 L-34.9 -7.55 -35.0 -7.75 -35.35 -7.9 -35.65 -7.8 Q-39.45 -6.5 -42.2 -4.6 L-42.55 -4.4 Q-41.25 -5.95 -39.25 -7.15 -34.9 -9.75 -28.1 -10.35 L-28.15 -10.2 -28.1 -10.0 -27.95 -9.85 -27.65 -9.8 Q-20.85 -9.15 -13.2 -3.3 L-12.9 -3.2 -12.5 -3.25 -6.7 -5.1 -6.4 -4.9 Q-3.35 -2.7 -1.65 -0.6" fill="#ffffff" fill-rule="evenodd" stroke="none"/>
    <path d="M-4.05 -5.8 Q0.05 -3.1 2.05 -0.25 L1.3 -0.35 -1.65 -0.6 Q-3.35 -2.7 -6.4 -4.9 L-6.7 -5.1 -4.95 -5.6 -4.05 -5.8 M-42.55 -4.4 Q-44.85 -3.0 -46.95 -2.6 L-47.1 -2.6 -47.15 -2.6 Q-45.6 -5.1 -42.7 -7.3 -36.15 -12.3 -26.7 -12.35 L-26.75 -12.3 -26.85 -12.2 -27.0 -12.05 Q-27.8 -11.3 -28.1 -10.35 -34.9 -9.75 -39.25 -7.15 -41.25 -5.95 -42.55 -4.4" fill="#e0e0e0" fill-rule="evenodd" stroke="none"/>
    <path d="M-2.85 -6.1 L-2.75 -6.1 -1.2 -4.8 0.65 -3.05 1.85 -1.8 3.15 -0.25 3.4 0.1 2.05 -0.25 Q0.05 -3.1 -4.05 -5.8 L-2.85 -6.1 M-47.15 -2.6 Q-48.45 -2.4 -49.1 -2.95 L-49.0 -3.1 -49.05 -3.05 Q-47.35 -5.25 -45.0 -7.15 -40.75 -10.55 -35.25 -12.1 L-35.2 -12.15 -35.15 -12.15 -34.4 -11.7 -34.1 -11.65 -33.75 -11.7 Q-30.55 -12.9 -26.3 -12.7 L-26.7 -12.35 Q-36.15 -12.3 -42.7 -7.3 -45.6 -5.1 -47.15 -2.6" fill="#b4b4b4" fill-rule="evenodd" stroke="none"/>
    <path d="M-23.9 -14.7 L-25.35 -14.4 Q-23.9 -15.85 -20.0 -15.7 -15.05 -15.7 -11.15 -13.8 L-6.55 -11.5 Q-1.1 -10.25 1.15 -9.45 6.0 -7.65 6.0 -5.4 6.0 -4.25 4.85 -3.45 3.85 -2.75 2.65 -2.75 1.55 -2.75 -0.85 -3.55 L-0.9 -3.3 -0.1 0.55 Q0.6 3.65 0.6 5.3 0.6 9.75 -3.4 9.8 -4.05 9.85 -4.05 8.85 L-3.55 5.3 -3.05 1.7 Q-3.05 -4.3 -8.2 -7.0 -16.35 -10.05 -22.4 -13.15 L-21.45 -13.4 -17.1 -13.5 -13.4 -13.2 -15.15 -13.8 -12.35 -12.8 -10.15 -11.9 -10.05 -12.05 Q-12.7 -14.9 -17.4 -15.3 -20.75 -15.6 -23.9 -14.7 M-7.85 -8.0 Q-6.85 -8.0 -7.4 -8.15 -7.85 -9.85 -9.55 -10.7 -11.95 -11.85 -19.4 -13.2 L-19.4 -13.15 -13.4 -10.25 Q-8.65 -8.0 -7.85 -8.0 M0.35 -8.15 Q1.35 -7.5 1.9 -5.5 0.35 -5.35 -3.1 -6.8 -5.75 -7.95 -7.1 -9.15 -4.35 -6.6 -1.5 -4.9 0.9 -3.45 1.75 -3.45 5.1 -3.45 5.1 -5.4 5.1 -8.35 -0.3 -9.9 L-9.6 -11.45 Q-1.75 -9.6 0.35 -8.15 M0.9 -5.8 Q0.9 -7.05 -0.7 -8.1 -2.5 -9.3 -5.9 -9.95 L-4.45 -8.5 Q-3.75 -7.85 -1.8 -7.1 L0.9 -5.8 M-5.3 -6.3 L-4.65 -5.6 Q-3.4 -3.95 -2.15 1.7 L-2.65 5.45 -3.15 9.1 Q-1.35 8.4 -0.6 6.85 -0.15 6.0 -0.15 5.2 -0.15 2.4 -1.2 -0.9 -2.7 -5.4 -5.3 -6.3" fill="#464646" fill-rule="evenodd" stroke="none"/>
    <path d="M-23.9 -14.7 Q-20.75 -15.6 -17.4 -15.3 -12.7 -14.9 -10.05 -12.05 L-10.15 -11.9 -12.35 -12.8 -15.15 -13.8 -18.45 -14.4 -21.9 -14.8 -23.9 -14.7 M0.35 -8.15 Q-1.75 -9.6 -9.6 -11.45 L-0.3 -9.9 Q5.1 -8.35 5.1 -5.4 5.1 -3.45 1.75 -3.45 0.9 -3.45 -1.5 -4.9 -4.35 -6.6 -7.1 -9.15 -5.75 -7.95 -3.1 -6.8 0.35 -5.35 1.9 -5.5 1.35 -7.5 0.35 -8.15 M-7.85 -8.0 Q-8.65 -8.0 -13.4 -10.25 L-19.4 -13.15 -19.4 -13.2 Q-11.95 -11.85 -9.55 -10.7 -7.85 -9.85 -7.4 -8.15 -6.85 -8.0 -7.85 -8.0 M-5.3 -6.3 Q-2.7 -5.4 -1.2 -0.9 -0.15 2.4 -0.15 5.2 -0.15 6.0 -0.6 6.85 -1.35 8.4 -3.15 9.1 L-2.65 5.45 -2.15 1.7 Q-3.4 -3.95 -4.65 -5.6 L-5.3 -6.3" fill="#e0e0e0" fill-rule="evenodd" stroke="none"/>
  </g>
</svg>
