<?xml version="1.0" encoding="UTF-8" standalone="no"?>
<svg xmlns:ffdec="https://www.free-decompiler.com/flash" xmlns:xlink="http://www.w3.org/1999/xlink" ffdec:objectType="shape" height="72.8px" width="52.45px" xmlns="http://www.w3.org/2000/svg">
  <g transform="matrix(1.0, 0.0, 0.0, 1.0, 26.2, 36.4)">
    <path d="M-7.7 -34.65 L-11.25 -33.3 M-14.65 -31.15 L-17.6 -28.4 M-22.9 -18.1 Q-23.3 -16.1 -23.3 -14.05 M-23.05 -9.9 L-22.95 -9.2 -22.15 -6.2 M-20.45 -2.7 L-19.55 -1.3 -19.55 -1.35 -18.3 0.3 M-19.9 -25.4 L-21.75 -21.9 M8.2 -33.45 Q6.4 -34.35 4.5 -34.9 M14.65 -28.75 L12.65 -30.55 11.55 -31.4 M18.85 -22.1 L17.05 -25.7 M20.75 -14.15 L20.1 -18.2 M19.6 -6.25 Q20.3 -8.15 20.6 -10.15 M0.6 -35.6 L-3.35 -35.55 M25.45 22.75 Q25.6 21.2 24.95 19.7 L24.65 19.0 M22.95 15.4 L21.25 11.8 M19.6 8.3 L17.9 4.7 M16.25 1.1 L15.85 0.3 17.9 -2.65 M0.2 35.65 Q2.2 35.45 3.85 34.05 M6.55 31.35 L9.1 28.4 M12.4 27.3 L16.3 28.3 M20.5 28.3 Q22.55 27.7 23.8 26.35 M-20.95 10.2 L-21.95 13.95 M-23.25 17.85 L-24.7 21.55 M-25.45 25.1 Q-25.35 27.1 -23.9 28.75 M-13.05 29.8 L-10.45 28.8 -9.55 29.7 M-6.55 32.65 L-4.85 34.35 -4.75 34.4 -3.8 35.05 M-19.2 4.1 L-20.3 7.9 M-20.6 31.1 Q-18.7 31.8 -16.5 31.15" fill="none" stroke="#5fc5c9" stroke-linecap="round" stroke-linejoin="round" stroke-width="1.5"/>
  </g>
</svg>
