<?xml version="1.0" encoding="UTF-8" standalone="no"?>
<svg xmlns:ffdec="https://www.free-decompiler.com/flash" xmlns:xlink="http://www.w3.org/1999/xlink" ffdec:objectType="shape" height="177.7px" width="71.5px" xmlns="http://www.w3.org/2000/svg">
  <g transform="matrix(1.0, 0.0, 0.0, 1.0, 29.0, 143.9)">
    <path d="M1.8 -100.3 Q1.8 -99.6 1.35 -99.1 0.85 -98.65 0.15 -98.65 -0.55 -98.65 -1.0 -99.1 -1.5 -99.6 -1.5 -100.3 -1.5 -101.0 -1.0 -101.45 -0.55 -101.95 0.15 -101.95 0.85 -101.95 1.35 -101.45 L1.8 -100.3 M1.3 -74.7 Q1.3 -74.0 0.85 -73.5 0.35 -73.05 -0.35 -73.05 -1.05 -73.05 -1.5 -73.5 -2.0 -74.0 -2.0 -74.7 -2.0 -75.4 -1.5 -75.85 -1.05 -76.35 -0.35 -76.35 0.35 -76.35 0.85 -75.85 1.3 -75.4 1.3 -74.7 M1.8 -49.1 Q1.8 -48.4 1.35 -47.9 0.85 -47.45 0.15 -47.45 -0.55 -47.45 -1.0 -47.9 -1.5 -48.4 -1.5 -49.1 -1.5 -49.8 -1.0 -50.25 -0.55 -50.75 0.15 -50.75 0.85 -50.75 1.35 -50.25 L1.8 -49.1 M3.3 -23.4 Q3.3 -22.7 2.85 -22.2 2.35 -21.75 1.65 -21.75 0.95 -21.75 0.5 -22.2 0.0 -22.7 0.0 -23.4 0.0 -24.1 0.5 -24.55 0.95 -25.05 1.65 -25.05 2.35 -25.05 2.85 -24.55 L3.3 -23.4 M11.1 -5.05 L19.6 -5.95 19.75 -5.95 21.65 -2.4 21.7 0.2 Q21.7 3.85 21.3 5.4 20.85 7.2 19.7 7.2 16.95 7.2 15.0 4.65 12.8 1.75 11.1 -5.05 M7.25 -9.0 L7.25 -2.65 4.3 -2.95 4.4 -3.95 7.25 -9.0 M-14.45 -5.1 L-8.9 -3.8 Q-7.6 6.2 -2.8 10.6 1.25 14.25 8.05 14.25 9.95 14.25 9.95 12.45 9.95 11.55 8.25 11.3 5.6 10.9 2.75 7.95 -0.2 4.9 -2.2 0.25 -4.0 -3.95 -4.55 -4.3 -4.4 -4.45 -4.35 -5.45 L0.8 -5.05 1.5 -3.85 Q1.5 -0.1 3.0 2.55 4.45 5.2 6.55 5.2 9.35 8.65 13.25 10.95 16.5 12.9 21.45 14.45 19.15 17.15 15.4 18.3 11.85 19.35 5.55 19.35 -1.95 19.35 -6.8 15.5 -13.75 9.9 -14.8 -3.3 L-14.45 -5.1 M26.9 -7.15 L28.25 -14.5 29.2 -13.65 29.6 -5.7 27.05 -4.85 26.9 -7.15 M25.55 -3.45 L26.35 11.0 Q26.35 15.3 23.85 16.35 24.6 8.55 24.45 -1.6 L25.55 -3.45" fill="#c9bfb8" fill-rule="evenodd" stroke="none"/>
    <path d="M8.05 6.0 Q13.4 9.7 16.95 11.5 19.45 12.75 21.8 13.4 L21.45 14.45 Q16.5 12.9 13.25 10.95 9.35 8.65 6.55 5.2 L6.5 5.15 8.05 6.0 M-8.9 -3.8 L-7.2 -3.6 Q-5.35 -3.55 -4.55 -4.3 -4.0 -3.95 -2.2 0.25 -0.2 4.9 2.75 7.95 5.6 10.9 8.25 11.3 9.95 11.55 9.95 12.45 9.95 14.25 8.05 14.25 1.25 14.25 -2.8 10.6 -7.6 6.2 -8.9 -3.8" fill="#ede4dd" fill-rule="evenodd" stroke="none"/>
    <path d="M9.95 -5.0 L11.1 -5.05 Q12.8 1.75 15.0 4.65 16.95 7.2 19.7 7.2 20.85 7.2 21.3 5.4 21.7 3.85 21.7 0.2 L21.65 -2.4 22.5 -1.1 Q22.65 -0.9 23.5 -0.7 L23.0 5.95 Q22.35 8.8 19.75 8.8 15.5 8.8 12.1 5.75 9.05 3.1 9.05 0.85 9.05 -1.9 9.95 -5.0 M7.25 -2.65 Q6.45 1.15 6.45 2.15 L6.95 3.65 8.05 6.0 6.5 5.15 6.55 5.2 Q4.45 5.2 3.0 2.55 1.5 -0.1 1.5 -3.85 L2.45 -3.0 Q2.75 -0.1 3.35 1.6 3.9 1.35 4.3 -2.95 L7.25 -2.65 M21.8 13.4 L21.95 13.45 21.3 19.2 Q20.6 22.65 18.4 23.3 L13.3 24.85 Q9.05 26.0 6.95 26.0 -3.6 26.0 -11.45 17.25 -19.85 7.9 -20.0 -6.35 L-14.45 -5.1 -14.8 -3.3 Q-13.75 9.9 -6.8 15.5 -1.95 19.35 5.55 19.35 11.85 19.35 15.4 18.3 19.15 17.15 21.45 14.45 L21.8 13.4 M27.05 -4.85 L29.6 -5.7 29.75 -5.4 30.05 -2.25 30.3 -1.95 31.05 -5.1 31.6 -7.85 31.6 -8.35 32.1 -2.25 Q32.1 6.35 29.45 12.15 27.85 15.65 22.7 22.15 L23.85 16.35 Q26.35 15.3 26.35 11.0 L25.55 -3.45 26.0 -4.5 26.3 -4.2 Q26.4 -4.1 26.55 -4.05 L27.05 -4.85 M27.6 -0.75 L27.45 -2.15 27.1 -2.75 Q26.9 -2.75 26.75 -2.15 26.6 -1.6 26.6 -0.75 26.6 0.1 26.75 0.7 L27.1 1.25 27.45 0.7 27.6 -0.75 M27.95 6.15 L27.8 4.7 27.4 4.1 Q27.15 4.1 27.0 4.7 26.85 5.3 26.85 6.15 26.85 7.0 27.0 7.6 27.15 8.2 27.4 8.2 L27.8 7.6 27.95 6.15 M27.05 11.25 L26.65 15.3 Q27.5 16.5 27.05 11.25" fill="#9e9187" fill-rule="evenodd" stroke="none"/>
    <path d="M8.3 -5.05 L9.95 -5.0 Q9.05 -1.9 9.05 0.85 9.05 3.1 12.1 5.75 15.5 8.8 19.75 8.8 22.35 8.8 23.0 5.95 L23.5 -0.7 23.6 -0.75 23.35 12.8 Q16.2 10.25 13.65 8.7 11.2 6.8 8.2 5.0 L8.15 -2.25 8.3 -2.25 8.3 -5.05 M19.6 -5.95 L19.75 -5.95 19.6 -5.95 M21.95 13.45 L23.25 13.85 Q22.15 23.5 20.15 26.65 16.85 31.8 7.6 31.8 -8.2 31.8 -16.55 20.2 -23.1 11.05 -23.1 -0.95 L-22.65 -10.55 Q-22.15 -10.2 -21.45 -8.3 L-20.9 -7.1 -20.85 -7.1 -20.0 -6.35 Q-19.85 7.9 -11.45 17.25 -3.6 26.0 6.95 26.0 9.05 26.0 13.3 24.85 L18.4 23.3 Q20.6 22.65 21.3 19.2 L21.95 13.45 M4.1 -3.4 L4.1 -3.55 4.4 -3.95 4.3 -2.95 Q3.9 1.35 3.35 1.6 2.75 -0.1 2.45 -3.0 L3.0 -2.8 3.2 -2.35 3.55 -2.15 Q4.05 -2.35 4.1 -3.4 M33.3 -10.0 L33.85 -10.15 Q34.9 8.5 30.8 16.25 28.3 21.0 21.15 27.2 L22.7 22.15 Q27.85 15.65 29.45 12.15 32.1 6.35 32.1 -2.25 L31.6 -8.35 31.6 -7.85 31.05 -5.1 30.3 -1.95 30.05 -2.25 29.75 -5.4 30.15 -5.15 30.85 -5.65 Q31.15 -5.95 31.15 -6.6 L30.9 -8.35 33.3 -10.0 M27.6 -0.75 L27.45 0.7 27.1 1.25 26.75 0.7 Q26.6 0.1 26.6 -0.75 26.6 -1.6 26.75 -2.15 26.9 -2.75 27.1 -2.75 L27.45 -2.15 27.6 -0.75 M27.95 6.15 L27.8 7.6 27.4 8.2 Q27.15 8.2 27.0 7.6 26.85 7.0 26.85 6.15 26.85 5.3 27.0 4.7 27.15 4.1 27.4 4.1 L27.8 4.7 27.95 6.15 M27.05 11.25 Q27.5 16.5 26.65 15.3 L27.05 11.25" fill="#86786d" fill-rule="evenodd" stroke="none"/>
    <path d="M35.0 -12.1 Q35.5 -7.5 35.5 -3.1 35.5 15.8 27.05 25.25 19.45 33.8 5.9 33.8 -8.8 33.8 -17.4 21.8 -24.6 11.75 -24.6 -1.15 L-24.3 -5.8 -23.8 -11.85 -22.65 -10.55 -23.1 -0.95 Q-23.1 11.05 -16.55 20.2 -8.2 31.8 7.6 31.8 16.85 31.8 20.15 26.65 22.15 23.5 23.25 13.85 L21.95 13.45 21.8 13.4 Q19.45 12.75 16.95 11.5 13.4 9.7 8.05 6.0 L6.95 3.65 6.45 2.15 Q6.45 1.15 7.25 -2.65 L7.25 -9.0 8.3 -8.95 8.3 -5.05 8.3 -2.25 8.15 -2.25 8.2 5.0 Q11.2 6.8 13.65 8.7 16.2 10.25 23.35 12.8 L23.6 -0.75 24.45 -1.6 Q24.6 8.55 23.85 16.35 L22.7 22.15 21.15 27.2 Q28.3 21.0 30.8 16.25 34.9 8.5 33.85 -10.15 34.4 -10.75 34.6 -11.5 L35.0 -12.1 M4.1 -3.4 Q4.05 -2.35 3.55 -2.15 L3.2 -2.35 3.0 -2.8 3.8 -3.0 4.1 -3.4 M26.9 -7.15 L27.05 -4.85 26.55 -4.05 Q26.4 -4.1 26.3 -4.2 L26.0 -4.5 26.9 -7.15 M29.6 -5.7 L29.2 -13.65 30.4 -12.35 30.6 -9.55 30.9 -8.35 31.15 -6.6 Q31.15 -5.95 30.85 -5.65 L30.15 -5.15 29.75 -5.4 29.6 -5.7" fill="#403a36" fill-rule="evenodd" stroke="none"/>
    <path d="M-23.15 -21.2 L-22.95 -21.9 -22.9 -20.55 -23.15 -21.2 M8.95 -8.55 L10.05 -7.8 10.7 -6.85 11.95 -6.7 13.25 -6.8 18.8 -7.65 19.3 -6.75 9.0 -5.9 8.95 -8.55 M0.45 -5.85 L-4.35 -6.2 -4.3 -7.35 -0.15 -7.7 0.45 -5.85 M31.05 -11.65 L32.55 -10.4 31.1 -9.5 31.05 -11.65 M-21.55 -14.75 L-21.5 -10.55 Q-23.05 -12.0 -23.05 -12.7 L-22.55 -16.85 -21.55 -14.75 M-19.35 -12.95 L-18.55 -12.55 -18.55 -12.5 -19.35 -12.95 M-14.8 -9.6 L-8.0 -7.95 -8.05 -6.95 Q-11.85 -7.5 -15.7 -8.6 L-19.35 -9.8 -14.8 -9.05 -14.8 -9.6" fill="#525252" fill-rule="evenodd" stroke="none"/>
    <path d="M18.8 -7.65 L13.25 -6.8 14.4 -8.05 16.25 -11.65 16.8 -11.0 18.8 -7.65 M11.95 -6.7 L10.7 -6.85 10.05 -7.8 11.95 -6.7 M-4.3 -7.35 L-4.25 -10.1 -0.7 -10.05 -0.15 -7.7 -4.3 -7.35 M-18.55 -12.55 L-18.45 -12.5 -18.55 -12.5 -18.55 -12.55 M-14.8 -11.2 L-11.05 -10.45 -7.95 -10.1 -8.0 -7.95 -14.8 -9.6 -14.8 -11.2" fill="#666666" fill-rule="evenodd" stroke="none"/>
    <path d="M10.55 -78.8 L8.75 -74.55 7.65 -74.6 7.5 -76.9 Q7.5 -79.6 8.2 -82.95 L9.95 -90.9 9.95 -90.8 10.6 -90.7 Q11.5 -90.7 11.95 -91.75 12.5 -93.1 10.8 -95.1 11.5 -100.0 13.25 -109.15 14.4 -115.05 14.4 -118.4 L14.1 -120.65 13.1 -125.0 14.05 -127.05 Q13.55 -128.45 12.95 -131.55 11.65 -135.15 6.9 -141.0 16.0 -136.85 21.75 -112.55 25.05 -98.55 27.85 -73.25 28.75 -64.8 31.65 -47.85 35.75 -23.8 38.75 -19.65 L38.5 -19.75 35.0 -22.25 Q33.55 -22.25 33.1 -18.35 L32.65 -13.5 32.5 -13.6 29.9 -15.75 27.6 -17.25 Q27.35 -17.0 25.65 -11.5 L23.1 -3.75 Q22.2 -6.2 19.85 -10.05 17.8 -13.3 17.15 -13.95 L16.85 -14.1 Q15.5 -13.95 14.15 -11.5 12.7 -8.85 12.1 -8.55 8.6 -12.05 7.2 -12.05 6.75 -12.05 5.7 -10.2 L2.5 -5.25 4.35 -9.5 Q6.35 -13.65 8.25 -14.8 L12.75 -11.0 Q14.05 -12.45 14.75 -17.75 15.3 -21.8 15.35 -26.75 L15.35 -26.95 Q15.4 -27.2 16.0 -27.2 16.95 -27.2 20.05 -17.65 L20.75 -15.55 Q19.5 -14.15 19.7 -13.65 19.85 -13.25 21.75 -12.4 L23.35 -7.05 23.5 -7.05 24.95 -15.95 25.3 -18.05 25.75 -20.5 Q25.95 -21.35 26.55 -21.35 26.25 -21.35 25.3 -30.75 L24.1 -43.55 Q23.8 -47.3 24.0 -66.85 24.0 -78.2 20.7 -90.85 L18.6 -74.85 Q16.55 -60.8 15.75 -59.0 L14.5 -59.25 14.4 -63.65 Q14.4 -64.75 16.25 -79.0 L18.1 -95.3 18.0 -97.05 10.7 -79.15 10.55 -79.15 10.55 -78.8 M35.25 -14.9 Q35.5 -13.35 35.0 -12.1 L34.6 -11.5 35.25 -14.9 M-23.8 -11.85 L-24.05 -12.35 -24.15 -14.1 -23.15 -21.2 -22.9 -20.55 -22.55 -16.85 -23.05 -12.7 Q-23.05 -12.0 -21.5 -10.55 L-21.55 -14.75 -20.75 -13.95 -20.9 -7.1 -21.45 -8.3 Q-22.15 -10.2 -22.65 -10.55 L-23.8 -11.85 M10.85 -82.7 L11.5 -82.75 11.7 -82.95 11.5 -87.0 Q11.8 -87.2 10.8 -87.2 9.9 -87.2 10.15 -84.95 10.35 -82.7 10.85 -82.7 M33.15 -20.5 Q33.4 -23.15 31.15 -35.65 29.05 -47.4 27.75 -51.9 27.15 -51.0 27.0 -49.85 27.65 -43.0 28.5 -37.0 30.15 -25.3 32.6 -19.8 L33.15 -20.5 M8.95 -8.55 L9.0 -5.9 19.3 -6.75 19.75 -5.95 19.6 -5.95 11.1 -5.05 9.95 -5.0 8.3 -5.05 8.3 -8.95 8.95 -8.55 M0.45 -5.85 L0.8 -5.05 -4.35 -5.45 Q-4.4 -4.45 -4.55 -4.3 -5.35 -3.55 -7.2 -3.6 L-8.9 -3.8 -14.45 -5.1 -20.0 -6.35 -20.85 -7.1 -6.0 -3.85 -4.95 -4.8 -4.8 -10.1 -4.25 -10.1 -4.3 -7.35 -4.35 -6.2 0.45 -5.85 M30.4 -12.35 L31.05 -11.65 31.1 -9.5 32.55 -10.4 33.3 -10.0 30.9 -8.35 30.6 -9.55 30.4 -12.35 M-8.5 -107.4 L-5.7 -98.2 -7.1 -78.2 -8.55 -76.95 Q-9.15 -77.9 -10.05 -78.3 L-9.45 -79.65 Q-9.15 -80.5 -9.15 -81.15 L-9.2 -81.75 -9.3 -81.65 -10.65 -80.45 -11.85 -79.1 -12.8 -81.6 -12.75 -77.0 Q-14.1 -73.05 -15.2 -67.6 L-18.15 -68.35 Q-18.9 -70.7 -16.8 -74.15 -14.3 -78.2 -14.35 -81.95 L-15.0 -80.85 -15.7 -80.0 Q-13.05 -85.25 -11.2 -89.65 -9.15 -94.45 -9.15 -95.55 L-9.15 -96.1 -9.3 -96.1 -9.75 -96.5 Q-16.25 -86.6 -19.85 -80.2 L-20.75 -82.0 Q-20.25 -83.9 -20.5 -84.25 -20.85 -84.8 -20.85 -85.25 L-21.15 -86.65 Q-21.3 -87.3 -20.75 -87.35 -21.1 -87.3 -20.75 -86.9 L-18.4 -93.45 -15.25 -101.65 -15.4 -102.25 Q-18.0 -98.55 -20.2 -93.25 L-19.35 -99.35 -14.65 -108.7 Q-10.7 -116.7 -10.7 -117.35 L-10.4 -116.25 -11.05 -114.8 Q-11.65 -113.5 -12.3 -112.85 L-12.0 -112.3 -11.75 -112.25 -10.15 -115.0 -9.4 -111.25 -9.4 -111.2 Q-15.9 -93.65 -16.9 -89.9 L-16.8 -89.55 Q-15.8 -90.85 -12.8 -97.25 -9.95 -103.5 -8.5 -107.4 M-20.0 -13.35 L-19.35 -12.95 -18.55 -12.5 -18.45 -12.5 -16.0 -11.55 -14.8 -11.2 -14.8 -9.6 -14.8 -9.05 -19.35 -9.8 -15.7 -8.6 Q-11.85 -7.5 -8.05 -6.95 L-8.0 -7.95 -7.95 -10.1 -7.2 -10.1 -7.4 -5.05 -20.0 -7.85 -20.0 -13.35 M-19.75 -11.8 L-19.75 -10.8 -15.4 -9.85 -15.4 -11.0 -19.75 -11.8" fill="#1e1e1e" fill-rule="evenodd" stroke="none"/>
    <path d="M-6.0 -3.85 L-20.85 -7.1 -20.9 -7.1 -20.75 -13.95 -20.0 -13.35 -20.0 -7.85 -7.4 -5.05 -7.2 -10.1 -5.85 -10.1 -6.0 -3.85 M-19.75 -11.8 L-15.4 -11.0 -15.4 -9.85 -19.75 -10.8 -19.75 -11.8" fill="#bdbdbd" fill-rule="evenodd" stroke="none"/>
    <path d="M-4.8 -10.1 L-4.95 -4.8 -6.0 -3.85 -5.85 -10.1 -4.8 -10.1" fill="#939393" fill-rule="evenodd" stroke="none"/>
    <path d="M4.5 -139.65 L3.9 -140.0 4.35 -139.9 4.5 -139.65 M-1.2 -123.5 L0.95 -123.85 Q1.65 -124.15 2.0 -124.85 L1.45 -122.3 Q0.0 -121.7 -1.45 -121.45 L-1.2 -123.5 M2.45 -126.65 L2.45 -126.7 2.5 -126.95 2.45 -126.65 M-6.5 -132.95 Q-7.2 -131.75 -7.2 -130.45 -7.2 -128.6 -6.4 -126.45 L-7.75 -124.95 -8.35 -127.4 -8.7 -130.05 -6.5 -132.95 M-24.6 -52.8 L-23.6 -74.35 -23.4 -78.05 Q-23.8 -87.15 -20.85 -100.7 -17.1 -117.9 -10.1 -127.85 -9.5 -124.55 -8.75 -123.6 -10.65 -120.6 -14.5 -112.05 -18.6 -102.9 -19.4 -99.3 -20.75 -95.15 -21.2 -92.1 L-21.5 -87.05 -21.2 -84.45 -20.75 -82.0 -21.0 -78.1 -19.85 -80.2 -18.9 -79.3 Q-18.25 -78.75 -17.8 -78.75 -17.4 -78.75 -15.7 -80.0 L-18.4 -72.85 Q-20.75 -66.05 -20.75 -62.1 -20.75 -57.35 -19.55 -48.45 -17.7 -34.45 -17.2 -29.4 -14.5 -29.6 -14.5 -27.9 L-16.05 -21.9 Q-16.05 -21.4 -15.1 -20.85 -14.05 -20.2 -12.85 -20.2 L-11.25 -20.1 -11.05 -19.7 -11.0 -19.05 Q-11.0 -18.8 -11.75 -17.65 L-12.65 -16.5 Q-14.45 -16.5 -15.85 -17.05 L-15.5 -13.75 -16.2 -13.95 Q-20.95 -17.25 -21.15 -18.05 L-21.25 -23.65 -23.45 -42.4 -24.6 -52.8 M-5.7 -98.2 L-3.35 -112.05 -1.75 -119.9 1.0 -120.45 Q-1.85 -107.8 -2.9 -100.65 -4.8 -87.85 -4.8 -71.65 -4.95 -52.85 -4.05 -33.8 -3.7 -26.3 -2.65 -19.6 -1.8 -14.0 -1.1 -12.5 L-4.55 -12.5 Q-5.15 -16.5 -5.55 -26.2 L-6.45 -50.25 Q-9.1 -45.25 -10.1 -43.95 -11.4 -42.25 -12.95 -42.25 L-13.65 -42.4 -13.7 -42.6 -13.75 -43.25 -10.3 -51.4 Q-6.9 -60.05 -6.9 -63.1 L-7.1 -78.2 Q-5.8 -80.2 -5.25 -82.05 -4.5 -84.85 -4.5 -89.7 -4.5 -90.6 -4.85 -93.25 L-5.7 -98.2" fill="#122438" fill-rule="evenodd" stroke="none"/>
    <path d="M3.9 -140.0 Q1.65 -139.65 -0.45 -138.65 L-0.55 -138.6 -2.55 -137.2 -3.2 -136.6 -5.9 -133.85 -6.5 -132.95 -8.7 -130.05 -10.1 -127.85 Q-17.1 -117.9 -20.85 -100.7 -23.8 -87.15 -23.4 -78.05 L-23.6 -74.35 -24.6 -52.8 -25.0 -41.8 -24.5 -36.35 -23.85 -31.0 -22.95 -21.9 -23.15 -21.2 -24.15 -14.1 -24.05 -12.35 -24.15 -8.55 -24.75 -8.4 -26.0 -8.3 Q-27.9 -8.3 -28.5 -18.75 -29.0 -26.8 -29.0 -48.15 -29.0 -53.95 -27.7 -73.55 -25.95 -99.4 -23.8 -107.15 -19.2 -123.6 -11.55 -133.85 -4.05 -143.9 3.25 -143.9 11.75 -143.9 17.7 -131.15 19.6 -127.1 21.1 -121.95 L22.5 -116.8 Q23.95 -112.5 27.1 -92.05 L30.95 -64.9 Q32.25 -54.6 34.35 -41.25 36.1 -30.25 39.75 -22.5 42.65 -16.35 42.5 -15.6 42.0 -15.1 41.5 -15.0 L35.5 -19.25 35.25 -14.9 34.6 -11.5 Q34.4 -10.75 33.85 -10.15 L33.3 -10.0 32.55 -10.4 31.05 -11.65 30.4 -12.35 29.2 -13.65 28.25 -14.5 26.9 -7.15 26.0 -4.5 25.55 -3.45 24.45 -1.6 23.6 -0.75 23.5 -0.7 Q22.65 -0.9 22.5 -1.1 L21.65 -2.4 19.75 -5.95 19.3 -6.75 18.8 -7.65 16.8 -11.0 16.25 -11.65 14.4 -8.05 13.25 -6.8 11.95 -6.7 10.05 -7.8 8.95 -8.55 8.3 -8.95 7.25 -9.0 4.4 -3.95 4.1 -3.55 4.1 -3.4 3.8 -3.0 3.0 -2.8 2.45 -3.0 1.5 -3.85 0.8 -5.05 0.45 -5.85 -0.15 -7.7 -0.7 -10.05 -1.1 -12.5 Q-1.8 -14.0 -2.65 -19.6 -3.7 -26.3 -4.05 -33.8 -4.95 -52.85 -4.8 -71.65 -4.8 -87.85 -2.9 -100.65 -1.85 -107.8 1.0 -120.45 L1.05 -120.5 1.45 -122.35 1.45 -122.3 2.0 -124.85 2.45 -126.65 2.5 -126.95 2.55 -127.05 2.55 -127.2 Q3.75 -131.95 4.75 -137.3 L4.85 -139.65 4.5 -139.65 4.35 -139.9 3.9 -140.0 M-25.75 -9.75 L-25.5 -10.05 -25.3 -11.1 Q-25.3 -14.15 -25.5 -14.6 L-25.9 -15.15 Q-26.35 -17.1 -26.05 -36.7 L-26.5 -46.9 Q-26.5 -50.9 -25.2 -70.45 -23.85 -90.8 -23.1 -97.0 -21.4 -110.4 -15.55 -122.45 -7.95 -138.05 2.8 -141.0 L1.55 -141.25 Q-0.95 -141.4 -4.3 -139.0 -8.2 -136.25 -11.85 -131.0 -21.3 -117.35 -25.0 -92.9 -25.95 -86.5 -26.8 -66.35 L-27.5 -43.05 -26.55 -9.75 -25.75 -9.75 M6.9 -141.0 L5.55 -141.45 6.2 -140.0 6.5 -138.3 3.55 -125.45 Q0.25 -111.1 -1.15 -102.6 L-2.2 -101.05 -2.5 -100.3 Q-2.5 -99.65 -2.1 -99.0 L-1.7 -98.4 -2.15 -93.35 Q-2.75 -86.5 -2.8 -75.75 L-2.85 -73.85 -3.05 -71.65 -2.85 -62.9 -2.4 -49.7 Q-2.55 -48.85 -2.3 -48.05 -2.3 -33.4 -1.85 -30.8 L-0.95 -23.7 -0.85 -22.45 -0.8 -22.05 0.35 -14.4 0.8 -10.55 Q1.35 -7.2 2.5 -5.25 L5.7 -10.2 Q6.75 -12.05 7.2 -12.05 8.6 -12.05 12.1 -8.55 12.7 -8.85 14.15 -11.5 15.5 -13.95 16.85 -14.1 L17.15 -13.95 Q17.8 -13.3 19.85 -10.05 22.2 -6.2 23.1 -3.75 L25.65 -11.5 Q27.35 -17.0 27.6 -17.25 L29.9 -15.75 32.5 -13.6 32.65 -13.5 33.1 -18.35 Q33.55 -22.25 35.0 -22.25 L38.5 -19.75 38.75 -19.65 Q35.75 -23.8 31.65 -47.85 28.75 -64.8 27.85 -73.25 25.05 -98.55 21.75 -112.55 16.0 -136.85 6.9 -141.0" fill="#111111" fill-rule="evenodd" stroke="none"/>
    <path d="M-1.15 -102.6 Q0.25 -111.1 3.55 -125.45 L6.5 -138.3 6.2 -140.0 5.55 -141.45 6.9 -141.0 Q11.65 -135.15 12.95 -131.55 13.55 -128.45 14.05 -127.05 L13.1 -125.0 14.1 -120.65 14.4 -118.4 Q14.4 -115.05 13.25 -109.15 11.5 -100.0 10.8 -95.1 9.7 -95.4 9.7 -94.4 9.7 -91.65 9.95 -91.0 L9.95 -90.9 8.2 -82.95 Q7.5 -79.6 7.5 -76.9 L7.65 -74.6 8.75 -74.55 10.55 -78.8 10.55 -78.4 Q10.55 -74.85 10.95 -74.5 11.5 -74.8 11.8 -74.7 12.35 -75.55 11.95 -74.85 10.7 -68.6 7.7 -58.15 5.7 -51.3 1.85 -26.05 0.7 -26.05 -0.1 -25.35 -0.95 -24.65 -0.95 -23.7 L-1.85 -30.8 Q-2.3 -33.4 -2.3 -48.05 -1.4 -46.45 0.4 -46.45 1.3 -46.45 2.05 -47.25 2.8 -48.05 2.8 -48.85 2.8 -50.2 2.0 -51.0 1.25 -51.75 0.15 -51.75 L-0.75 -51.4 Q-1.65 -50.85 -2.4 -49.7 L-2.85 -62.9 -3.05 -71.65 -2.85 -73.85 Q-2.85 -73.15 -1.9 -72.65 -0.95 -72.15 0.4 -72.15 L0.0 -67.65 0.0 -57.3 0.65 -56.85 1.0 -56.75 Q2.05 -57.75 3.5 -66.2 4.7 -73.1 5.2 -78.65 5.9 -85.75 10.25 -106.7 L10.95 -106.8 Q11.3 -107.4 11.1 -110.7 L11.0 -112.4 Q8.35 -111.3 5.3 -104.35 0.55 -93.8 0.7 -77.15 L-0.35 -77.35 Q-1.25 -77.35 -2.8 -75.75 -2.75 -86.5 -2.15 -93.35 L-1.7 -98.4 Q-0.75 -97.65 0.4 -97.65 1.3 -97.65 2.05 -98.45 2.8 -99.25 2.8 -100.05 2.8 -101.55 1.8 -102.45 L-1.15 -102.6 M-25.75 -9.75 L-26.55 -9.75 -27.5 -43.05 -26.8 -66.35 Q-25.95 -86.5 -25.0 -92.9 -21.3 -117.35 -11.85 -131.0 -8.2 -136.25 -4.3 -139.0 -0.95 -141.4 1.55 -141.25 L2.8 -141.0 Q-7.95 -138.05 -15.55 -122.45 -21.4 -110.4 -23.1 -97.0 -23.85 -90.8 -25.2 -70.45 -26.5 -50.9 -26.5 -46.9 L-26.05 -36.7 Q-26.35 -17.1 -25.9 -15.15 L-25.5 -14.6 Q-25.3 -14.15 -25.3 -11.1 L-25.5 -10.05 -25.75 -9.75 M2.5 -5.25 Q1.35 -7.2 0.8 -10.55 L0.35 -14.4 -0.8 -22.05 Q-0.7 -21.6 -0.25 -21.25 0.3 -20.8 1.1 -20.8 L1.1 -20.75 1.0 -18.8 Q1.0 -18.1 1.6 -17.85 L2.6 -17.5 3.7 -21.7 Q4.35 -22.45 4.25 -23.9 L8.5 -39.5 8.55 -37.3 Q8.6 -30.15 9.0 -25.0 9.55 -18.75 10.5 -17.65 L11.3 -18.15 11.95 -40.9 Q12.25 -54.95 12.65 -59.0 L13.1 -58.8 13.65 -58.8 13.9 -59.5 13.55 -61.65 12.95 -63.2 12.95 -66.65 13.0 -66.65 13.0 -67.35 13.0 -67.75 Q13.2 -72.05 14.0 -77.4 L13.1 -76.5 12.25 -75.4 11.95 -79.1 11.25 -79.2 10.7 -79.15 18.0 -97.05 18.1 -95.3 16.25 -79.0 Q14.4 -64.75 14.4 -63.65 L14.5 -59.25 15.75 -59.0 Q16.55 -60.8 18.6 -74.85 L20.7 -90.85 Q24.0 -78.2 24.0 -66.85 23.8 -47.3 24.1 -43.55 L25.3 -30.75 Q26.25 -21.35 26.55 -21.35 25.95 -21.35 25.75 -20.5 L25.3 -18.05 24.95 -15.95 23.5 -7.05 23.35 -7.05 21.75 -12.4 22.7 -12.0 Q23.1 -12.15 23.25 -12.95 L22.35 -16.1 21.5 -16.35 20.75 -15.55 20.05 -17.65 Q16.95 -27.2 16.0 -27.2 15.4 -27.2 15.35 -26.95 L15.35 -26.75 Q15.3 -21.8 14.75 -17.75 14.05 -12.45 12.75 -11.0 L8.25 -14.8 Q6.35 -13.65 4.35 -9.5 L2.5 -5.25 M9.7 -103.15 L9.7 -98.8 11.0 -98.8 11.0 -103.15 9.7 -103.15 M14.15 -50.9 L14.95 -50.85 14.95 -51.6 14.7 -53.7 14.25 -55.25 Q14.7 -55.4 13.7 -55.4 12.9 -55.4 13.35 -53.15 13.8 -50.9 14.15 -50.9 M19.75 -56.55 Q19.4 -55.6 19.05 -52.2 L18.75 -48.15 Q18.75 -45.8 20.7 -33.25 22.6 -21.2 23.0 -19.75 L23.25 -19.95 Q23.5 -20.1 23.5 -21.75 L19.75 -56.55 M33.15 -20.5 L32.6 -19.8 Q30.15 -25.3 28.5 -37.0 27.65 -43.0 27.0 -49.85 27.15 -51.0 27.75 -51.9 29.05 -47.4 31.15 -35.65 33.4 -23.15 33.15 -20.5 M17.05 -35.25 L17.6 -35.35 17.7 -35.6 Q18.25 -38.2 17.2 -39.2 L16.3 -39.6 Q15.35 -39.6 15.9 -37.4 16.4 -35.25 17.05 -35.25 M15.3 -43.0 L16.15 -43.05 16.2 -43.9 Q16.2 -46.6 15.4 -47.35 L14.85 -47.5 Q14.05 -47.5 14.45 -45.25 14.85 -43.0 15.3 -43.0 M18.5 -27.4 L19.35 -27.35 19.4 -28.05 Q19.4 -30.65 18.6 -31.5 L17.95 -31.8 Q16.95 -31.8 17.55 -29.6 18.2 -27.4 18.5 -27.4 M20.35 -19.65 L21.2 -19.6 21.25 -20.3 Q21.25 -23.0 20.55 -23.75 20.3 -24.05 19.75 -24.05 L19.05 -23.95 19.1 -23.9 Q18.5 -21.65 19.3 -20.45 19.85 -19.65 20.35 -19.65 M-9.4 -111.2 L-8.5 -107.4 Q-9.95 -103.5 -12.8 -97.25 -15.8 -90.85 -16.8 -89.55 L-16.9 -89.9 Q-15.9 -93.65 -9.4 -111.2 M-10.4 -116.25 L-10.15 -115.0 -11.75 -112.25 -12.0 -112.3 -12.3 -112.85 Q-11.65 -113.5 -11.05 -114.8 L-10.4 -116.25 M-15.2 -67.6 Q-14.1 -73.05 -12.75 -77.0 L-12.15 -73.6 -11.4 -72.0 Q-11.05 -71.3 -11.05 -70.75 L-11.45 -66.75 -15.2 -67.6 M-11.85 -79.1 L-10.65 -80.45 -9.3 -81.65 -9.2 -81.75 -9.15 -81.15 Q-9.15 -80.5 -9.45 -79.65 L-10.05 -78.3 Q-9.15 -77.9 -8.55 -76.95 -9.9 -76.95 -10.85 -77.55 -11.85 -78.2 -11.85 -79.1" fill="#282828" fill-rule="evenodd" stroke="none"/>
    <path d="M0.7 -77.15 Q0.55 -93.8 5.3 -104.35 8.35 -111.3 11.0 -112.4 L11.1 -110.7 10.45 -111.2 9.75 -111.0 9.6 -107.45 Q9.6 -106.85 9.8 -106.75 L10.25 -106.7 Q5.9 -85.75 5.2 -78.65 4.7 -73.1 3.5 -66.2 2.05 -57.75 1.0 -56.75 L0.65 -56.85 0.0 -57.3 0.0 -67.65 0.4 -72.15 Q2.3 -72.75 2.3 -74.45 L2.15 -75.65 Q1.8 -76.55 0.7 -77.15 M1.85 -26.05 Q5.7 -51.3 7.7 -58.15 10.7 -68.6 11.95 -74.85 L12.15 -75.0 12.25 -75.4 13.1 -76.5 14.0 -77.4 Q13.2 -72.05 13.0 -67.75 12.95 -70.25 12.45 -71.0 12.2 -71.4 11.9 -71.2 10.95 -71.2 11.4 -68.95 11.85 -66.7 12.2 -66.7 L12.95 -66.65 12.95 -63.2 12.45 -63.15 Q12.05 -63.0 12.05 -62.35 L12.25 -60.45 12.65 -59.0 Q12.25 -54.95 11.95 -40.9 L11.3 -18.15 10.5 -17.65 Q9.55 -18.75 9.0 -25.0 8.6 -30.15 8.55 -37.3 L8.5 -39.5 4.25 -23.9 Q4.25 -24.8 3.55 -25.4 2.85 -26.05 1.85 -26.05 M3.7 -21.7 L2.6 -17.5 1.6 -17.85 Q1.0 -18.1 1.0 -18.8 L1.1 -20.75 1.9 -20.75 Q2.75 -20.75 3.7 -21.7 M19.75 -56.55 L23.5 -21.75 Q23.5 -20.1 23.25 -19.95 L23.0 -19.75 Q22.6 -21.2 20.7 -33.25 18.75 -45.8 18.75 -48.15 L19.05 -52.2 Q19.4 -55.6 19.75 -56.55" fill="#363636" fill-rule="evenodd" stroke="none"/>
    <path d="M-6.4 -126.45 L-4.7 -124.4 Q-3.6 -123.65 -1.2 -123.5 L-1.45 -121.45 Q-3.15 -121.55 -5.25 -122.8 -7.15 -123.9 -7.75 -124.95 L-6.4 -126.45 M-8.5 -107.4 Q-6.5 -111.7 -5.3 -115.15 -4.25 -118.15 -4.25 -119.15 L-4.3 -119.65 -4.55 -119.5 -7.05 -115.65 -9.4 -111.25 -10.15 -115.0 -7.3 -120.05 -8.9 -118.6 -10.4 -116.25 -10.7 -117.35 Q-10.7 -116.7 -14.65 -108.7 L-19.35 -99.35 -19.4 -99.3 Q-18.6 -102.9 -14.5 -112.05 -10.65 -120.6 -8.75 -123.6 -8.05 -122.7 -5.9 -121.45 -3.5 -120.05 -1.75 -119.9 L-3.35 -112.05 -5.7 -98.2 -8.5 -107.4 M-15.7 -80.0 L-15.0 -80.85 -14.35 -81.95 Q-14.3 -78.2 -16.8 -74.15 -18.9 -70.7 -18.15 -68.35 L-15.2 -67.6 Q-16.05 -63.4 -16.5 -59.1 L-16.95 -53.5 Q-16.95 -52.75 -16.3 -52.4 L-15.3 -52.0 Q-14.05 -55.6 -11.85 -63.35 -8.95 -73.35 -8.55 -76.95 L-7.1 -78.2 -6.9 -63.1 Q-6.9 -60.05 -10.3 -51.4 L-13.75 -43.25 -13.7 -42.6 -13.65 -42.4 -12.95 -42.25 Q-11.4 -42.25 -10.1 -43.95 -9.1 -45.25 -6.45 -50.25 L-5.55 -26.2 Q-5.15 -16.5 -4.55 -12.5 L-12.85 -13.05 Q-15.65 -13.55 -16.2 -13.95 L-15.5 -13.75 -15.85 -17.05 Q-14.45 -16.5 -12.65 -16.5 L-11.75 -17.65 Q-11.0 -18.8 -11.0 -19.05 L-11.05 -19.7 -11.25 -20.1 -12.85 -20.2 Q-14.05 -20.2 -15.1 -20.85 -16.05 -21.4 -16.05 -21.9 L-14.5 -27.9 Q-14.5 -29.6 -17.2 -29.4 -17.7 -34.45 -19.55 -48.45 -20.75 -57.35 -20.75 -62.1 -20.75 -66.05 -18.4 -72.85 L-15.7 -80.0 M-12.75 -77.0 L-12.8 -81.6 -11.85 -79.1 -12.75 -77.0 M-20.75 -82.0 L-19.85 -80.2 -21.0 -78.1 -20.75 -82.0 M-9.0 -40.4 Q-9.85 -40.0 -11.75 -37.35 -13.75 -34.55 -13.75 -33.3 L-13.6 -32.65 -13.45 -32.65 Q-12.25 -33.25 -10.65 -36.05 -9.1 -38.85 -9.0 -40.4 M-8.25 -33.95 Q-9.7 -32.85 -11.3 -29.95 -13.0 -26.8 -13.0 -24.8 -13.0 -22.9 -11.75 -22.8 L-8.05 -22.0 -9.25 -17.2 -9.05 -16.4 Q-8.3 -17.15 -6.75 -21.25 -6.75 -25.25 -11.0 -24.5 -11.0 -25.4 -9.55 -29.35 L-8.15 -33.55 -8.25 -33.95" fill="#1e3956" fill-rule="evenodd" stroke="none"/>
    <path d="M-9.4 -111.25 L-7.05 -115.65 -4.55 -119.5 -4.3 -119.65 -4.25 -119.15 Q-4.25 -118.15 -5.3 -115.15 -6.5 -111.7 -8.5 -107.4 L-9.4 -111.2 -9.4 -111.25 M-10.4 -116.25 L-8.9 -118.6 -7.3 -120.05 -10.15 -115.0 -10.4 -116.25 M-12.75 -77.0 L-11.85 -79.1 Q-11.85 -78.2 -10.85 -77.55 -9.9 -76.95 -8.55 -76.95 -8.95 -73.35 -11.85 -63.35 -14.05 -55.6 -15.3 -52.0 L-16.3 -52.4 Q-16.95 -52.75 -16.95 -53.5 L-16.5 -59.1 Q-16.05 -63.4 -15.2 -67.6 L-11.45 -66.75 -11.05 -70.75 Q-11.05 -71.3 -11.4 -72.0 L-12.15 -73.6 -12.75 -77.0 M-8.25 -33.95 L-8.15 -33.55 -9.55 -29.35 Q-11.0 -25.4 -11.0 -24.5 -6.75 -25.25 -6.75 -21.25 -8.3 -17.15 -9.05 -16.4 L-9.25 -17.2 -8.05 -22.0 -11.75 -22.8 Q-13.0 -22.9 -13.0 -24.8 -13.0 -26.8 -11.3 -29.95 -9.7 -32.85 -8.25 -33.95 M-9.0 -40.4 Q-9.1 -38.85 -10.65 -36.05 -12.25 -33.25 -13.45 -32.65 L-13.6 -32.65 -13.75 -33.3 Q-13.75 -34.55 -11.75 -37.35 -9.85 -40.0 -9.0 -40.4" fill="#2a4c72" fill-rule="evenodd" stroke="none"/>
    <path d="M3.9 -140.0 L4.5 -139.65 4.85 -139.65 4.75 -137.3 2.65 -138.55 1.4 -139.05 Q0.45 -139.05 -0.45 -138.65 1.65 -139.65 3.9 -140.0 M2.0 -124.85 Q1.65 -124.15 0.95 -123.85 L-1.2 -123.5 Q-3.6 -123.65 -4.7 -124.4 L-6.4 -126.45 Q-7.2 -128.6 -7.2 -130.45 -7.2 -131.75 -6.5 -132.95 L-5.9 -133.85 -3.2 -136.6 -3.35 -136.35 Q-4.3 -134.9 -5.1 -132.5 L-5.7 -130.15 Q-5.7 -128.15 -4.85 -126.75 -3.8 -125.0 -1.7 -125.0 -1.0 -125.0 0.45 -125.65 1.65 -126.2 2.45 -126.7 L2.45 -126.65 2.0 -124.85 M-1.45 -121.45 Q0.0 -121.7 1.45 -122.3 L1.45 -122.35 1.05 -120.5 1.0 -120.45 -1.75 -119.9 Q-3.5 -120.05 -5.9 -121.45 -8.05 -122.7 -8.75 -123.6 -9.5 -124.55 -10.1 -127.85 L-8.7 -130.05 -8.35 -127.4 -7.75 -124.95 Q-7.15 -123.9 -5.25 -122.8 -3.15 -121.55 -1.45 -121.45 M-22.95 -21.9 L-23.85 -31.0 -24.5 -36.35 -25.0 -41.8 -24.6 -52.8 -23.45 -42.4 -21.25 -23.65 -21.15 -18.05 Q-20.95 -17.25 -16.2 -13.95 -15.65 -13.55 -12.85 -13.05 L-4.55 -12.5 -1.1 -12.5 -0.7 -10.05 -4.25 -10.1 -4.8 -10.1 -5.85 -10.1 -7.2 -10.1 -7.95 -10.1 -11.05 -10.45 -14.8 -11.2 -16.0 -11.55 -18.45 -12.5 -18.55 -12.55 -19.35 -12.95 -20.0 -13.35 -20.75 -13.95 -21.55 -14.75 -22.55 -16.85 -22.9 -20.55 -22.95 -21.9" fill="#0c1928" fill-rule="evenodd" stroke="none"/>
    <path d="M-19.4 -99.3 L-19.35 -99.35 -20.2 -93.25 Q-18.0 -98.55 -15.4 -102.25 L-15.25 -101.65 -18.4 -93.45 -20.75 -86.9 Q-21.1 -87.3 -20.75 -87.35 -21.3 -87.3 -21.15 -86.65 L-20.85 -85.25 Q-20.85 -84.8 -20.5 -84.25 -20.25 -83.9 -20.75 -82.0 L-21.2 -84.45 -21.5 -87.05 -21.2 -92.1 Q-20.75 -95.15 -19.4 -99.3 M-19.85 -80.2 Q-16.25 -86.6 -9.75 -96.5 L-9.3 -96.1 -9.15 -96.1 -9.15 -95.55 Q-9.15 -94.45 -11.2 -89.65 -13.05 -85.25 -15.7 -80.0 -17.4 -78.75 -17.8 -78.75 -18.25 -78.75 -18.9 -79.3 L-19.85 -80.2 M-7.1 -78.2 L-5.7 -98.2 -4.85 -93.25 Q-4.5 -90.6 -4.5 -89.7 -4.5 -84.85 -5.25 -82.05 -5.8 -80.2 -7.1 -78.2" fill="#171717" fill-rule="evenodd" stroke="none"/>
    <path d="M-0.45 -138.65 Q0.45 -139.05 1.4 -139.05 L2.65 -138.55 4.75 -137.3 Q3.75 -131.95 2.55 -127.2 L2.55 -127.05 2.5 -126.95 2.45 -126.7 Q1.65 -126.2 0.45 -125.65 -1.0 -125.0 -1.7 -125.0 -3.8 -125.0 -4.85 -126.75 -5.7 -128.15 -5.7 -130.15 L-5.1 -132.5 Q-4.3 -134.9 -3.35 -136.35 L-3.2 -136.6 -2.55 -137.2 -0.55 -138.6 -0.45 -138.65" fill="#e7a867" fill-rule="evenodd" stroke="none"/>
    <path d="M-1.15 -102.6 L1.8 -102.45 Q2.8 -101.55 2.8 -100.05 2.8 -99.25 2.05 -98.45 1.3 -97.65 0.4 -97.65 -0.75 -97.65 -1.7 -98.4 L-2.1 -99.0 Q-2.5 -99.65 -2.5 -100.3 L-2.2 -101.05 -1.15 -102.6 M-2.8 -75.75 Q-1.25 -77.35 -0.35 -77.35 L0.7 -77.15 Q1.8 -76.55 2.15 -75.65 L2.3 -74.45 Q2.3 -72.75 0.4 -72.15 -0.95 -72.15 -1.9 -72.65 -2.85 -73.15 -2.85 -73.85 L-2.8 -75.75 M-2.4 -49.7 Q-1.65 -50.85 -0.75 -51.4 L0.15 -51.75 Q1.25 -51.75 2.0 -51.0 2.8 -50.2 2.8 -48.85 2.8 -48.05 2.05 -47.25 1.3 -46.45 0.4 -46.45 -1.4 -46.45 -2.3 -48.05 -2.55 -48.85 -2.4 -49.7 M-0.95 -23.7 Q-0.95 -24.65 -0.1 -25.35 0.7 -26.05 1.85 -26.05 2.85 -26.05 3.55 -25.4 4.25 -24.8 4.25 -23.9 4.35 -22.45 3.7 -21.7 2.75 -20.75 1.9 -20.75 L1.1 -20.75 1.1 -20.8 Q0.3 -20.8 -0.25 -21.25 -0.7 -21.6 -0.8 -22.05 L-0.85 -22.45 -0.95 -23.7 M1.8 -100.3 L1.35 -101.45 Q0.85 -101.95 0.15 -101.95 -0.55 -101.95 -1.0 -101.45 -1.5 -101.0 -1.5 -100.3 -1.5 -99.6 -1.0 -99.1 -0.55 -98.65 0.15 -98.65 0.85 -98.65 1.35 -99.1 1.8 -99.6 1.8 -100.3 M1.3 -74.7 Q1.3 -75.4 0.85 -75.85 0.35 -76.35 -0.35 -76.35 -1.05 -76.35 -1.5 -75.85 -2.0 -75.4 -2.0 -74.7 -2.0 -74.0 -1.5 -73.5 -1.05 -73.05 -0.35 -73.05 0.35 -73.05 0.85 -73.5 1.3 -74.0 1.3 -74.7 M1.8 -49.1 L1.35 -50.25 Q0.85 -50.75 0.15 -50.75 -0.55 -50.75 -1.0 -50.25 -1.5 -49.8 -1.5 -49.1 -1.5 -48.4 -1.0 -47.9 -0.55 -47.45 0.15 -47.45 0.85 -47.45 1.35 -47.9 1.8 -48.4 1.8 -49.1 M3.3 -23.4 L2.85 -24.55 Q2.35 -25.05 1.65 -25.05 0.95 -25.05 0.5 -24.55 0.0 -24.1 0.0 -23.4 0.0 -22.7 0.5 -22.2 0.95 -21.75 1.65 -21.75 2.35 -21.75 2.85 -22.2 3.3 -22.7 3.3 -23.4" fill="#6d6259" fill-rule="evenodd" stroke="none"/>
    <path d="M11.1 -110.7 Q11.3 -107.4 10.95 -106.8 L10.25 -106.7 9.8 -106.75 Q9.6 -106.85 9.6 -107.45 L9.75 -111.0 10.45 -111.2 11.1 -110.7 M11.95 -74.85 Q12.35 -75.55 11.8 -74.7 11.5 -74.8 10.95 -74.5 10.55 -74.85 10.55 -78.4 L10.55 -78.8 10.55 -79.15 10.7 -79.15 11.25 -79.2 11.95 -79.1 12.25 -75.4 12.15 -75.0 11.95 -74.85 M9.95 -90.9 L9.95 -91.0 Q9.7 -91.65 9.7 -94.4 9.7 -95.4 10.8 -95.1 12.5 -93.1 11.95 -91.75 11.5 -90.7 10.6 -90.7 L9.95 -90.8 9.95 -90.9 M9.7 -103.15 L11.0 -103.15 11.0 -98.8 9.7 -98.8 9.7 -103.15 M10.85 -82.7 Q10.35 -82.7 10.15 -84.95 9.9 -87.2 10.8 -87.2 11.8 -87.2 11.5 -87.0 L11.7 -82.95 11.5 -82.75 10.85 -82.7 M13.0 -67.75 L13.0 -67.35 13.0 -66.65 12.95 -66.65 12.2 -66.7 Q11.85 -66.7 11.4 -68.95 10.95 -71.2 11.9 -71.2 12.2 -71.4 12.45 -71.0 12.95 -70.25 13.0 -67.75 M12.95 -63.2 L13.55 -61.65 13.9 -59.5 13.65 -58.8 13.1 -58.8 12.65 -59.0 12.25 -60.45 12.05 -62.35 Q12.05 -63.0 12.45 -63.15 L12.95 -63.2 M14.15 -50.9 Q13.8 -50.9 13.35 -53.15 12.9 -55.4 13.7 -55.4 14.7 -55.4 14.25 -55.25 L14.7 -53.7 14.95 -51.6 14.95 -50.85 14.15 -50.9 M15.3 -43.0 Q14.85 -43.0 14.45 -45.25 14.05 -47.5 14.85 -47.5 L15.4 -47.35 Q16.2 -46.6 16.2 -43.9 L16.15 -43.05 15.3 -43.0 M17.05 -35.25 Q16.4 -35.25 15.9 -37.4 15.35 -39.6 16.3 -39.6 L17.2 -39.2 Q18.25 -38.2 17.7 -35.6 L17.6 -35.35 17.05 -35.25 M18.5 -27.4 Q18.2 -27.4 17.55 -29.6 16.95 -31.8 17.95 -31.8 L18.6 -31.5 Q19.4 -30.65 19.4 -28.05 L19.35 -27.35 18.5 -27.4 M20.75 -15.55 L21.5 -16.35 22.35 -16.1 23.25 -12.95 Q23.1 -12.15 22.7 -12.0 L21.75 -12.4 Q19.85 -13.25 19.7 -13.65 19.5 -14.15 20.75 -15.55 M20.35 -19.65 Q19.85 -19.65 19.3 -20.45 18.5 -21.65 19.1 -23.9 L19.05 -23.95 19.75 -24.05 Q20.3 -24.05 20.55 -23.75 21.25 -23.0 21.25 -20.3 L21.2 -19.6 20.35 -19.65" fill="#234162" fill-rule="evenodd" stroke="none"/>
  </g>
</svg>
