<?xml version="1.0" encoding="UTF-8" standalone="no"?>
<svg xmlns:ffdec="https://www.free-decompiler.com/flash" xmlns:xlink="http://www.w3.org/1999/xlink" ffdec:objectType="shape" height="9.3px" width="36.65px" xmlns="http://www.w3.org/2000/svg">
  <g transform="matrix(1.0, 0.0, 0.0, 1.0, 38.1, 0.25)">
    <path d="M-22.6 6.85 L-22.15 7.45 -22.3 8.2 Q-22.55 8.55 -22.95 8.65 L-23.7 8.5 Q-32.0 3.0 -37.0 3.4 -37.4 3.45 -37.7 3.2 L-38.1 2.5 -37.85 1.8 -37.2 1.4 Q-31.7 0.8 -22.6 6.85 M-2.65 -0.2 L-1.9 -0.1 Q-1.55 0.1 -1.45 0.55 L-1.6 1.3 -2.2 1.75 Q-8.35 3.1 -15.2 8.85 L-15.95 9.05 -16.6 8.7 -16.85 7.95 -16.5 7.3 Q-9.25 1.2 -2.65 -0.2" fill="#1a120d" fill-rule="evenodd" stroke="none"/>
  </g>
</svg>
