<?xml version="1.0" encoding="UTF-8" standalone="no"?>
<svg xmlns:ffdec="https://www.free-decompiler.com/flash" xmlns:xlink="http://www.w3.org/1999/xlink" ffdec:objectType="shape" height="71.4px" width="68.0px" xmlns="http://www.w3.org/2000/svg">
  <g transform="matrix(1.0, 0.0, 0.0, 1.0, 34.0, 35.7)">
    <path d="M-31.0 -16.4 Q-30.7 -19.25 -25.6 -21.6 -21.6 -23.45 -21.4 -23.2 -21.45 -25.0 -21.0 -26.75 L-21.0 -26.8 Q-20.0 -30.95 -17.1 -30.8 L-16.15 -31.15 -16.15 -31.1 Q-15.05 -31.75 -14.35 -31.7 L-14.1 -31.65 Q-9.5 -30.5 -6.75 -29.05 -4.65 -28.0 -1.9 -24.55 L0.75 -21.35 2.45 -20.65 4.55 -19.35 5.65 -17.25 7.25 -17.15 Q10.8 -17.0 16.65 -13.85 L16.8 -13.75 Q19.3 -11.6 20.25 -11.45 L20.3 -11.45 Q22.35 -11.65 23.2 -11.05 L23.25 -11.05 26.4 -9.2 26.45 -9.15 Q27.9 -8.2 28.1 -6.7 27.95 -5.3 27.05 -4.3 L27.0 -4.25 26.8 -4.1 27.35 -3.65 27.05 -3.3 27.0 -3.25 26.8 -3.1 Q29.9 -0.7 30.15 3.0 L27.0 14.1 26.95 14.45 26.65 15.55 26.0 17.35 26.3 17.6 26.0 18.35 28.75 20.65 28.8 20.65 Q30.95 22.95 31.15 25.3 31.0 27.5 29.15 29.85 26.85 32.7 24.45 32.6 21.5 32.6 19.1 30.7 16.85 28.95 16.6 26.85 L16.6 26.75 16.55 26.1 16.55 26.05 16.6 25.75 14.8 25.3 13.5 24.95 11.8 24.9 8.1 24.15 8.2 24.15 Q0.25 22.75 -5.4 15.65 -10.75 9.0 -11.0 1.3 L-10.45 -1.95 -10.45 -2.0 -10.15 -3.6 -10.35 -3.6 -10.15 -4.6 -11.0 -4.75 -12.85 -4.2 Q-14.8 -3.55 -16.35 -3.55 -17.15 -3.55 -17.95 -4.15 -18.2 -4.35 -18.4 -4.35 -21.85 -4.35 -23.25 -6.25 L-23.3 -6.3 Q-24.35 -7.55 -24.65 -10.35 L-24.65 -10.65 -24.7 -10.65 -24.75 -10.95 -24.7 -11.25 -24.65 -11.65 Q-28.6 -12.4 -30.0 -13.95 -30.9 -14.85 -31.0 -16.4" fill="#e5e5e5" fill-rule="evenodd" stroke="none"/>
    <path d="M-31.0 -16.4 L-31.05 -16.9 Q-31.2 -20.05 -25.6 -22.6 -21.6 -24.45 -21.4 -24.2 -21.45 -26.0 -21.0 -27.75 L-21.0 -27.8 Q-20.0 -31.95 -17.1 -31.8 L-16.15 -32.15 -16.15 -32.1 Q-15.05 -32.75 -14.35 -32.7 L-14.1 -32.65 Q-9.5 -31.5 -6.75 -30.05 -4.65 -29.0 -1.9 -25.55 L0.75 -22.35 2.45 -21.65 4.55 -20.35 5.65 -18.25 7.25 -18.15 Q10.8 -18.0 16.65 -14.85 L16.8 -14.75 Q19.3 -12.6 20.25 -12.45 L20.3 -12.45 Q22.35 -12.65 23.2 -12.05 L23.25 -12.05 26.4 -10.2 26.45 -10.15 Q28.1 -9.05 28.1 -7.25 L28.1 -6.7 Q27.9 -8.2 26.45 -9.15 L26.4 -9.2 23.25 -11.05 23.2 -11.05 Q22.35 -11.65 20.3 -11.45 L20.25 -11.45 Q19.3 -11.6 16.8 -13.75 L16.65 -13.85 Q10.8 -17.0 7.25 -17.15 L5.65 -17.25 4.55 -19.35 2.45 -20.65 0.75 -21.35 -1.9 -24.55 Q-4.65 -28.0 -6.75 -29.05 -9.5 -30.5 -14.1 -31.65 L-14.35 -31.7 Q-15.05 -31.75 -16.15 -31.1 L-16.15 -31.15 -17.1 -30.8 Q-20.0 -30.95 -21.0 -26.8 L-21.0 -26.75 Q-21.45 -25.0 -21.4 -23.2 -21.6 -23.45 -25.6 -21.6 -30.7 -19.25 -31.0 -16.4 M27.35 -3.65 Q30.15 -1.15 30.15 2.6 L30.15 2.9 30.15 3.0 Q29.9 -0.7 26.8 -3.1 L27.0 -3.25 27.05 -3.3 27.35 -3.65 M26.3 17.6 L28.75 19.65 28.8 19.65 Q31.2 22.2 31.15 24.8 L31.15 25.3 Q30.95 22.95 28.8 20.65 L28.75 20.65 26.0 18.35 26.3 17.6 M-11.0 1.3 L-11.0 0.55 -10.45 -2.95 -10.45 -3.0 -10.35 -3.6 -10.15 -3.6 -10.45 -2.0 -10.45 -1.95 -11.0 1.3 M-24.65 -10.35 L-24.7 -10.65 -24.65 -10.65 -24.65 -10.35" fill="#b1b1b1" fill-rule="evenodd" stroke="none"/>
    <path d="M28.1 -6.7 L28.1 -7.25 Q28.1 -9.05 26.45 -10.15 L26.4 -10.2 23.25 -12.05 23.2 -12.05 Q22.35 -12.65 20.3 -12.45 L20.25 -12.45 Q19.3 -12.6 16.8 -14.75 L16.65 -14.85 Q10.8 -18.0 7.25 -18.15 L5.65 -18.25 4.55 -20.35 2.45 -21.65 0.75 -22.35 -1.9 -25.55 Q-4.65 -29.0 -6.75 -30.05 -9.5 -31.5 -14.1 -32.65 L-14.35 -32.7 Q-15.05 -32.75 -16.15 -32.1 L-16.15 -32.15 -17.1 -31.8 Q-20.0 -31.95 -21.0 -27.8 L-21.0 -27.75 Q-21.45 -26.0 -21.4 -24.2 -21.6 -24.45 -25.6 -22.6 -31.2 -20.05 -31.05 -16.9 L-31.0 -16.4 Q-30.9 -14.85 -30.0 -13.95 -28.6 -12.4 -24.65 -11.65 L-24.7 -11.25 -24.75 -10.95 -24.7 -10.65 -24.65 -10.35 Q-24.35 -7.55 -23.3 -6.3 L-23.25 -6.25 Q-21.85 -4.35 -18.4 -4.35 -18.2 -4.35 -17.95 -4.15 -17.15 -3.55 -16.35 -3.55 -14.8 -3.55 -12.85 -4.2 L-11.0 -4.75 -10.15 -4.6 -10.35 -3.6 -10.45 -3.0 -10.45 -2.95 -11.0 0.55 -11.0 1.3 Q-10.75 9.0 -5.4 15.65 0.25 22.75 8.2 24.15 L8.1 24.15 11.8 24.9 13.5 24.95 14.8 25.3 16.6 25.75 16.55 26.05 16.55 26.1 16.6 26.75 16.6 26.85 Q16.85 28.95 19.1 30.7 21.5 32.6 24.45 32.6 26.85 32.7 29.15 29.85 31.0 27.5 31.15 25.3 L31.15 24.8 Q31.2 22.2 28.8 19.65 L28.75 19.65 26.3 17.6 26.0 17.35 26.65 15.55 26.95 14.45 27.0 14.1 30.15 3.0 30.15 2.9 30.15 2.6 Q30.15 -1.15 27.35 -3.65 L26.8 -4.1 27.0 -4.25 27.05 -4.3 Q27.95 -5.3 28.1 -6.7 M-15.3 -35.55 L-13.75 -35.65 Q-3.35 -33.6 2.75 -24.8 5.95 -23.75 7.75 -21.0 15.05 -20.2 20.8 -15.6 L22.1 -15.4 Q25.55 -14.85 28.35 -12.4 L28.3 -12.4 Q32.55 -8.8 30.65 -4.5 31.6 -3.15 32.35 -1.3 L32.35 -1.25 Q32.95 0.3 32.8 1.95 31.85 9.5 29.55 16.4 L30.5 17.2 Q34.1 20.25 34.0 24.85 L34.0 24.9 Q33.9 29.9 29.85 33.3 24.85 37.55 18.9 34.3 14.85 32.15 13.85 28.15 L13.8 28.15 13.75 28.1 13.65 28.1 13.15 27.95 7.4 27.3 7.35 27.25 Q-4.2 24.45 -10.45 13.6 -14.35 6.85 -13.8 -0.65 -16.4 -0.1 -19.1 -1.05 L-19.25 -1.15 -20.9 -1.8 Q-27.1 -3.45 -27.65 -9.4 L-28.95 -9.9 -28.8 -9.8 Q-33.1 -11.2 -33.85 -15.45 L-33.85 -15.4 Q-34.5 -18.55 -32.45 -20.95 L-32.4 -20.95 Q-29.1 -24.75 -24.3 -26.45 -24.0 -28.55 -23.1 -30.65 L-23.05 -30.8 Q-22.05 -33.1 -19.95 -33.75 L-19.9 -33.75 -19.85 -33.8 -15.3 -35.55" fill="#ffffff" fill-rule="evenodd" stroke="none"/>
  </g>
</svg>
