<?xml version="1.0" encoding="UTF-8" standalone="no"?>
<svg xmlns:ffdec="https://www.free-decompiler.com/flash" xmlns:xlink="http://www.w3.org/1999/xlink" ffdec:objectType="shape" height="108.25px" width="71.05px" xmlns="http://www.w3.org/2000/svg">
  <g transform="matrix(1.0, 0.0, 0.0, 1.0, 32.3, 127.5)">
    <path d="M1.1 -19.35 L-1.25 -19.25 -2.9 -19.45 1.1 -19.35" fill="#fcee45" fill-rule="evenodd" stroke="none"/>
    <path d="M3.65 -117.1 L0.75 -117.05 -0.35 -117.05 0.65 -121.2 Q1.9 -120.8 2.85 -119.0 L3.65 -117.1 M-2.2 -107.35 L1.65 -107.3 2.6 -107.3 2.0 -106.5 -0.05 -105.45 -0.2 -105.45 Q-1.4 -105.45 -2.35 -106.45 L-2.2 -107.35 M5.2 -97.7 L1.7 -97.65 -2.15 -97.7 -1.45 -98.2 4.5 -99.75 Q5.15 -99.75 5.35 -99.35 L5.5 -98.7 5.2 -97.7 M0.65 -78.15 L-8.55 -78.7 -8.4 -81.65 Q-8.2 -85.7 -7.5 -88.45 L0.75 -87.95 0.5 -87.5 Q1.45 -87.2 3.45 -87.5 5.0 -87.35 5.0 -84.65 L4.7 -84.15 0.65 -78.15 M6.1 -68.5 L5.05 -67.75 -2.7 -62.6 3.75 -62.55 Q5.55 -62.45 6.25 -61.8 4.0 -60.0 -4.65 -60.0 -13.35 -60.0 -3.15 -67.75 L-2.5 -68.25 -2.1 -68.5 2.45 -68.45 6.1 -68.5 M10.6 -58.85 L11.35 -59.05 13.5 -59.8 Q14.6 -59.8 15.05 -59.15 L10.65 -58.85 10.6 -58.85 M11.8 -39.45 L3.2 -39.25 -13.05 -40.15 -13.1 -42.45 -13.05 -44.15 Q-12.9 -48.05 -12.05 -49.7 L3.2 -48.85 10.8 -49.05 9.75 -48.1 4.65 -43.75 11.8 -39.45 M1.2 -19.35 L1.1 -19.35 -2.9 -19.45 Q-6.25 -20.3 -6.25 -25.05 L-2.15 -28.25 -2.0 -28.3 -0.5 -29.35 3.2 -29.35 Q6.95 -29.35 10.45 -29.5 L13.05 -28.9 Q20.75 -27.25 23.05 -25.8 24.35 -25.0 24.5 -24.05 16.3 -19.7 11.65 -20.15 7.3 -20.55 1.6 -25.75 L1.5 -25.2 2.2 -22.55 2.5 -20.7 Q2.5 -19.75 2.3 -19.65 L2.2 -19.6 1.8 -19.45 1.2 -19.35 M-10.95 -19.9 L-16.05 -20.5 Q-17.25 -21.7 -17.25 -23.4 -17.25 -25.1 -16.05 -26.3 -14.85 -27.5 -13.15 -27.5 -11.45 -27.5 -10.25 -26.3 -9.05 -25.1 -9.05 -23.4 -9.05 -21.7 -10.25 -20.5 L-10.95 -19.9" fill="#ffffff" fill-rule="evenodd" stroke="none"/>
    <path d="M8.3 -117.45 L3.65 -117.1 2.85 -119.0 Q1.9 -120.8 0.65 -121.2 L0.75 -121.6 0.8 -121.85 2.85 -124.9 Q4.65 -123.75 6.2 -121.45 7.55 -119.5 8.3 -117.45 M-2.15 -117.1 L-2.45 -117.1 -1.75 -118.1 -2.0 -117.75 -2.15 -117.1 M-6.65 -107.7 L-4.5 -107.5 -5.05 -104.85 -5.25 -103.85 -5.9 -101.5 -6.7 -99.35 -7.6 -99.3 -7.65 -99.3 -7.5 -100.95 -7.15 -104.7 -6.65 -107.7 M2.6 -107.3 L6.9 -107.45 5.6 -103.6 5.75 -103.1 6.6 -102.9 8.45 -103.65 10.0 -104.5 10.1 -102.75 Q10.1 -102.1 8.8 -98.55 L8.55 -97.9 5.2 -97.7 5.5 -98.7 5.35 -99.35 Q5.15 -99.75 4.5 -99.75 L-1.45 -98.2 -2.15 -97.7 -3.35 -97.8 -2.95 -101.65 -1.65 -102.0 Q-1.4 -101.7 -1.4 -102.7 L-2.8 -103.2 -2.35 -106.45 Q-1.4 -105.45 -0.2 -105.45 L-0.05 -105.45 2.0 -106.5 2.6 -107.3 M13.65 -78.7 L6.8 -78.2 Q9.35 -80.5 10.35 -80.5 L10.5 -80.5 10.65 -80.45 10.7 -80.45 10.8 -80.45 10.95 -80.4 Q12.05 -80.1 13.65 -78.7 M4.15 -78.15 L2.45 -78.15 0.65 -78.15 4.7 -84.15 5.0 -84.65 Q5.0 -87.35 3.45 -87.5 1.45 -87.2 0.5 -87.5 L0.75 -87.95 2.45 -87.95 11.65 -88.35 Q10.7 -86.05 9.0 -83.75 L8.15 -82.65 8.0 -82.45 4.15 -78.15 M-8.55 -78.7 L-11.3 -79.05 -10.9 -81.65 -10.7 -82.9 -9.95 -88.75 -7.5 -88.45 Q-8.2 -85.7 -8.4 -81.65 L-8.55 -78.7 M11.95 -68.8 L10.85 -67.75 8.25 -65.6 Q8.65 -65.4 8.55 -64.8 L12.6 -64.35 15.55 -65.3 19.75 -66.75 19.0 -62.0 19.3 -59.7 15.05 -59.15 Q14.6 -59.8 13.5 -59.8 L11.35 -59.05 10.6 -58.85 3.15 -58.65 Q-7.25 -58.65 -14.9 -60.0 -14.35 -61.0 -14.35 -62.0 L-13.0 -61.4 Q-11.5 -61.3 -10.7 -64.0 -9.15 -65.15 -6.8 -67.55 L-6.6 -67.75 -5.7 -68.7 -2.1 -68.5 -2.5 -68.25 -3.15 -67.75 Q-13.35 -60.0 -4.65 -60.0 4.0 -60.0 6.25 -61.8 5.55 -62.45 3.75 -62.55 L-2.7 -62.6 5.05 -67.75 6.1 -68.5 11.95 -68.8 M18.4 -49.7 L16.55 -48.15 Q12.75 -45.15 12.5 -44.5 L12.85 -44.15 Q15.0 -42.0 18.95 -42.0 L24.75 -42.75 25.7 -42.45 25.35 -42.3 25.25 -42.25 25.1 -42.2 24.9 -42.1 23.05 -41.05 22.45 -40.6 22.4 -40.6 11.8 -39.45 4.65 -43.75 9.75 -48.1 10.8 -49.05 10.85 -49.05 18.4 -49.7 M-13.05 -40.15 L-16.35 -40.65 -16.2 -44.15 -15.8 -50.25 -12.05 -49.7 Q-12.9 -48.05 -13.05 -44.15 L-13.1 -42.45 -13.05 -40.15 M26.25 -21.05 Q16.4 -19.35 3.2 -19.35 L1.2 -19.35 1.8 -19.45 2.2 -19.6 2.3 -19.65 Q2.5 -19.75 2.5 -20.7 L2.2 -22.55 1.5 -25.2 1.6 -25.75 Q7.3 -20.55 11.65 -20.15 16.3 -19.7 24.5 -24.05 24.35 -25.0 23.05 -25.8 20.75 -27.25 13.05 -28.9 L10.45 -29.5 20.7 -30.3 Q21.25 -29.15 23.9 -28.0 L24.2 -27.9 Q26.75 -26.85 26.75 -25.3 26.75 -22.9 26.25 -21.05 M-2.9 -19.45 L-10.95 -19.9 -10.25 -20.5 Q-9.05 -21.7 -9.05 -23.4 -9.05 -25.1 -10.25 -26.3 -11.45 -27.5 -13.15 -27.5 -14.85 -27.5 -16.05 -26.3 -17.25 -25.1 -17.25 -23.4 -17.25 -21.7 -16.05 -20.5 L-19.65 -21.05 -19.65 -21.75 -19.75 -25.5 -19.15 -30.75 -13.05 -30.15 -0.5 -29.35 -2.0 -28.3 -2.15 -28.25 -6.25 -25.05 Q-6.25 -20.3 -2.9 -19.45 M-10.1 -69.1 L-9.65 -69.05 -10.1 -68.95 -10.1 -69.1" fill="#e0e0e0" fill-rule="evenodd" stroke="none"/>
    <path d="M3.95 -126.6 L7.3 -126.85 Q8.7 -123.6 10.05 -117.7 L8.3 -117.45 Q7.55 -119.5 6.2 -121.45 4.65 -123.75 2.85 -124.9 L3.55 -126.0 3.95 -126.6 M-1.65 -117.05 L-2.15 -117.1 -2.0 -117.75 -1.75 -118.1 -1.55 -118.45 -1.2 -118.95 -1.65 -117.05 M-4.5 -107.5 L-3.45 -107.45 -4.0 -103.55 -4.2 -101.6 -4.55 -97.85 -7.7 -98.2 -7.65 -99.3 -7.6 -99.3 -6.7 -99.35 -5.9 -101.5 -5.25 -103.85 -5.05 -104.85 -4.5 -107.5 M6.9 -107.45 L11.9 -107.95 13.4 -98.5 8.55 -97.9 8.8 -98.55 Q10.1 -102.1 10.1 -102.75 L10.0 -104.5 8.45 -103.65 6.6 -102.9 5.75 -103.1 5.6 -103.6 6.9 -107.45 M-11.65 -98.85 L-11.7 -98.85 -11.9 -98.9 -11.65 -100.6 -11.65 -98.85 M-9.45 -108.1 L-7.65 -107.85 Q-8.35 -103.75 -8.65 -99.4 L-8.7 -98.65 -8.9 -98.65 -9.4 -98.7 -10.55 -98.75 -9.45 -108.1 M20.8 -79.95 L19.2 -79.6 13.65 -78.7 Q12.05 -80.1 10.95 -80.4 L10.8 -80.45 10.7 -80.45 10.65 -80.45 10.5 -80.5 10.35 -80.5 Q9.35 -80.5 6.8 -78.2 L4.15 -78.15 8.0 -82.45 8.15 -82.65 9.0 -83.75 Q10.7 -86.05 11.65 -88.35 L14.7 -88.75 15.1 -85.65 Q16.25 -85.75 18.0 -86.6 19.0 -84.0 20.65 -80.9 L20.7 -80.85 20.8 -79.95 M-11.3 -79.05 L-14.25 -79.6 -14.75 -79.7 -14.7 -80.2 -14.45 -81.65 -13.3 -89.4 -12.6 -89.25 -9.95 -88.75 -10.7 -82.9 -10.9 -81.65 -11.3 -79.05 M19.3 -59.7 L19.0 -62.0 19.75 -66.75 15.55 -65.3 12.6 -64.35 8.55 -64.8 Q8.65 -65.4 8.25 -65.6 L10.85 -67.75 11.95 -68.8 20.35 -70.0 20.6 -69.95 20.8 -70.05 22.55 -70.5 23.35 -67.75 25.35 -60.9 23.15 -60.4 19.3 -59.7 M-5.7 -68.7 L-6.6 -67.75 -6.8 -67.55 Q-9.15 -65.15 -10.7 -64.0 -11.5 -61.3 -13.0 -61.4 L-14.35 -62.0 Q-14.35 -61.0 -14.9 -60.0 L-16.8 -60.4 -18.2 -60.7 -18.45 -61.95 Q-17.65 -64.15 -16.85 -67.75 L-16.8 -67.9 -16.6 -69.0 -16.35 -70.15 -15.75 -70.05 -10.1 -69.1 -10.1 -68.95 -9.65 -69.05 -5.7 -68.7 M18.4 -49.7 L24.9 -50.8 27.85 -51.5 28.25 -48.6 26.9 -47.7 Q25.35 -46.85 24.5 -45.45 L25.25 -44.75 29.0 -44.9 29.2 -44.15 29.7 -42.25 25.7 -41.25 22.45 -40.6 23.05 -41.05 24.9 -42.1 25.1 -42.2 25.25 -42.25 25.35 -42.3 25.7 -42.45 24.75 -42.75 18.95 -42.0 Q15.0 -42.0 12.85 -44.15 L12.5 -44.5 Q12.75 -45.15 16.55 -48.15 L18.4 -49.7 M-16.35 -40.65 L-19.3 -41.25 -21.8 -41.85 -21.45 -44.15 -20.6 -49.7 -20.3 -51.2 -18.5 -50.8 -15.8 -50.25 -16.2 -44.15 -16.35 -40.65 M20.7 -30.3 L28.05 -31.55 32.0 -32.55 32.3 -30.95 Q32.9 -27.7 32.9 -24.35 L32.8 -22.55 28.95 -21.6 26.25 -21.05 Q26.75 -22.9 26.75 -25.3 26.75 -26.85 24.2 -27.9 L23.9 -28.0 Q21.25 -29.15 20.7 -30.3 M-19.65 -21.05 L-22.55 -21.6 -25.75 -22.35 Q-25.35 -29.0 -23.5 -31.8 L-23.4 -31.95 -21.7 -31.55 -13.05 -30.15 -19.15 -30.75 -19.75 -25.5 -19.65 -21.75 -19.65 -21.05 M-2.8 -103.2 L-1.4 -102.7 Q-1.4 -101.7 -1.65 -102.0 L-2.95 -101.65 -2.8 -103.2" fill="#b4b4b4" fill-rule="evenodd" stroke="none"/>
    <path d="M7.3 -126.85 L9.9 -127.2 11.85 -122.55 13.25 -118.4 11.75 -118.05 10.05 -117.7 Q8.7 -123.6 7.3 -126.85 M11.9 -107.95 L14.3 -108.4 16.05 -108.8 16.45 -107.3 17.2 -104.6 18.5 -99.8 15.1 -98.85 13.4 -98.5 11.9 -107.95 M-8.7 -98.3 L-10.6 -98.6 -10.55 -98.75 -9.4 -98.7 -8.9 -98.65 -8.7 -98.65 -8.7 -98.3 M-11.9 -98.9 L-14.85 -99.7 -14.0 -104.75 -13.25 -109.0 -10.95 -108.4 -10.85 -108.35 -11.45 -103.85 -11.65 -100.6 -11.9 -98.9 M-7.1 -117.5 L-7.55 -117.55 -7.4 -118.25 -7.35 -118.5 -7.1 -117.5 M-8.85 -117.75 L-10.3 -118.05 -11.55 -118.35 -11.05 -120.55 Q-10.1 -124.5 -8.9 -127.25 L-7.8 -127.1 Q-8.25 -124.5 -7.9 -121.5 L-8.85 -117.75 M21.0 -90.25 L22.5 -84.25 22.55 -84.05 23.45 -80.8 20.8 -79.95 20.7 -80.85 20.65 -80.9 Q19.0 -84.0 18.0 -86.6 16.25 -85.75 15.1 -85.65 L14.7 -88.75 17.45 -89.25 Q19.6 -89.7 21.0 -90.25 M-14.75 -79.7 L-18.55 -80.85 -18.4 -81.65 -17.8 -84.5 -16.55 -90.4 -13.3 -89.4 -14.45 -81.65 -14.7 -80.2 -14.75 -79.7 M25.35 -60.9 L23.35 -67.75 22.55 -70.5 25.9 -71.65 26.95 -67.75 27.05 -67.3 28.45 -61.95 25.35 -60.9 M20.8 -70.05 L20.6 -69.95 20.35 -70.0 20.65 -70.05 20.8 -70.05 M29.7 -42.25 L29.2 -44.15 29.0 -44.9 25.25 -44.75 24.5 -45.45 Q25.35 -46.85 26.9 -47.7 L28.25 -48.6 27.85 -51.5 30.85 -52.5 32.9 -44.15 33.05 -43.6 Q31.75 -42.9 29.7 -42.25 M-21.8 -41.85 Q-24.9 -42.65 -26.55 -43.6 L-26.45 -44.15 -24.65 -52.6 -20.3 -51.2 -20.6 -49.7 -21.45 -44.15 -21.8 -41.85 M32.0 -32.55 Q34.05 -33.15 35.4 -33.8 L37.6 -24.5 Q35.9 -23.5 32.8 -22.55 L32.9 -24.35 Q32.9 -27.7 32.3 -30.95 L32.0 -32.55 M-25.75 -22.35 Q-28.8 -23.25 -30.6 -24.2 L-28.85 -32.6 -28.65 -33.65 Q-26.65 -32.75 -23.4 -31.95 L-23.5 -31.8 Q-25.35 -29.0 -25.75 -22.35 M-20.65 -71.45 L-16.35 -70.15 -16.6 -69.0 -16.8 -67.9 -16.85 -67.75 Q-17.65 -64.15 -18.45 -61.95 L-18.2 -60.7 Q-21.0 -61.4 -22.65 -62.2 L-21.45 -67.75 -20.65 -71.45" fill="#8a8a8a" fill-rule="evenodd" stroke="none"/>
    <path d="M9.9 -127.2 L11.25 -127.45 12.75 -124.0 14.5 -118.85 13.25 -118.4 11.85 -122.55 9.9 -127.2 M-2.45 -117.1 L-4.45 -114.15 -4.8 -113.7 Q-4.95 -113.5 -5.2 -113.45 L-5.45 -113.4 -6.65 -107.7 -7.15 -104.7 -7.5 -100.95 -7.65 -99.3 -7.7 -98.2 -8.7 -98.3 -8.7 -98.65 -8.65 -99.4 Q-8.35 -103.75 -7.65 -107.85 L-6.7 -112.4 -6.6 -112.95 -6.15 -114.5 -7.1 -117.5 -7.35 -118.5 -7.35 -118.6 -7.9 -121.5 Q-8.25 -124.5 -7.8 -127.1 L-6.55 -126.9 Q-6.9 -124.85 -6.75 -122.55 L-6.6 -121.3 -6.5 -120.75 -5.75 -117.35 -5.55 -116.65 -5.2 -115.55 -5.15 -115.4 -5.1 -115.45 -4.05 -116.95 -3.85 -117.2 -1.2 -121.15 -0.4 -122.4 1.7 -125.5 2.05 -126.0 2.4 -126.55 2.45 -126.55 3.95 -126.6 3.55 -126.0 2.85 -124.9 0.8 -121.85 0.4 -121.25 -1.2 -118.95 -1.55 -118.45 -1.75 -118.1 -2.45 -117.1 M16.05 -108.8 L17.25 -109.2 17.45 -108.45 17.6 -107.85 19.55 -100.3 18.5 -99.8 17.2 -104.6 16.45 -107.3 16.05 -108.8 M-14.85 -99.7 L-16.0 -100.25 -15.9 -100.7 -14.3 -108.5 -14.15 -109.35 -13.25 -109.0 -14.0 -104.75 -14.85 -99.7 M-11.55 -118.35 L-12.35 -118.6 -12.2 -119.5 -11.65 -122.0 -11.25 -123.65 -10.7 -125.65 -10.25 -127.2 -10.25 -127.3 -10.15 -127.5 -8.9 -127.25 Q-10.1 -124.5 -11.05 -120.55 L-11.55 -118.35 M21.0 -90.25 L21.75 -90.55 21.8 -90.35 24.55 -81.3 23.45 -80.8 22.55 -84.05 22.5 -84.25 21.0 -90.25 M-18.55 -80.85 L-20.0 -81.55 -20.0 -81.65 -17.95 -91.15 Q-17.4 -90.8 -16.55 -90.4 L-17.8 -84.5 -18.4 -81.65 -18.55 -80.85 M25.9 -71.65 Q26.65 -71.95 27.15 -72.3 L28.4 -67.75 29.8 -62.6 28.45 -61.95 27.05 -67.3 26.95 -67.75 25.9 -71.65 M30.85 -52.5 L32.25 -53.25 34.25 -45.15 34.4 -44.6 33.05 -43.6 32.9 -44.15 30.85 -52.5 M-26.55 -43.6 L-28.05 -44.7 -26.15 -53.45 Q-25.55 -53.05 -24.65 -52.6 L-26.45 -44.15 -26.55 -43.6 M35.4 -33.8 L36.75 -34.6 37.25 -32.35 37.35 -32.0 37.75 -30.2 38.65 -25.9 38.75 -25.4 37.6 -24.5 35.4 -33.8 M-30.6 -24.2 Q-31.7 -24.75 -32.3 -25.35 L-30.3 -34.55 -28.65 -33.65 -28.85 -32.6 -30.6 -24.2 M-22.65 -62.2 L-24.05 -63.05 -23.05 -67.75 -22.05 -72.2 Q-21.5 -71.85 -20.65 -71.45 L-21.45 -67.75 -22.65 -62.2" fill="#464646" fill-rule="evenodd" stroke="none"/>
    <path d="M-0.35 -117.05 L-1.65 -117.05 -1.2 -118.95 0.4 -121.25 0.8 -121.85 0.75 -121.6 0.65 -121.2 -0.35 -117.05 M-3.45 -107.45 L-2.2 -107.35 -2.35 -106.45 -2.8 -103.2 -2.95 -101.65 -3.35 -97.8 -4.55 -97.85 -4.2 -101.6 -4.0 -103.55 -3.45 -107.45 M-10.6 -98.6 L-11.65 -98.85 -11.65 -100.6 -11.45 -103.85 -10.85 -108.35 -9.45 -108.1 -10.55 -98.75 -10.6 -98.6 M-7.55 -117.55 L-8.85 -117.75 -7.9 -121.5 -7.35 -118.6 -7.35 -118.5 -7.4 -118.25 -7.55 -117.55" fill="#616161" fill-rule="evenodd" stroke="none"/>
  </g>
</svg>
