<?xml version="1.0" encoding="UTF-8" standalone="no"?>
<svg xmlns:ffdec="https://www.free-decompiler.com/flash" xmlns:xlink="http://www.w3.org/1999/xlink" ffdec:objectType="shape" height="10.05px" width="35.2px" xmlns="http://www.w3.org/2000/svg">
  <g transform="matrix(1.0, 0.0, 0.0, 1.0, 15.85, 0.5)">
    <path d="M10.1 0.0 L10.15 0.0 9.6 0.35 8.2 2.05 8.2 2.1 8.15 2.2 8.1 2.25 7.5 3.45 7.45 3.55 7.4 3.65 7.35 3.75 7.3 3.85 7.25 3.95 7.2 4.05 7.15 4.2 7.1 4.3 7.05 4.4 7.0 4.55 6.95 4.65 6.9 4.8 6.85 4.95 6.8 5.1 6.75 5.2 6.7 5.35 6.65 5.45 6.6 5.6 Q6.45 5.95 6.65 6.35 L7.25 6.85 8.0 6.8 8.5 6.25 Q10.05 1.8 11.85 1.5 13.75 1.55 16.3 5.8 16.5 6.15 16.9 6.25 L17.65 6.15 17.7 6.1 18.15 5.5 18.0 4.75 17.55 4.0 Q15.75 1.2 14.1 0.15 L12.5 -0.4 13.4 -0.5 Q17.0 -0.2 18.5 2.05 19.35 3.4 19.35 5.3 L18.55 6.5 17.0 7.75 10.2 7.85 9.3 8.25 6.9 8.55 Q5.55 8.55 5.25 7.0 L5.25 5.45 Q5.25 3.25 6.2 2.1 7.4 0.65 10.1 0.0 M-15.55 5.5 L-15.55 5.45 Q-15.55 3.25 -13.95 1.95 -12.5 0.8 -10.45 0.8 -8.4 0.8 -7.0 2.0 -5.4 3.35 -5.4 5.7 -5.4 7.3 -5.65 7.9 -6.3 9.55 -8.6 9.55 -13.5 9.55 -14.95 7.8 L-15.25 7.25 -14.5 7.3 -13.95 6.8 -13.95 6.75 Q-12.65 3.9 -11.35 3.7 -10.0 3.8 -8.3 6.65 L-7.7 7.15 -6.95 7.0 -6.45 6.4 Q-6.4 6.0 -6.6 5.65 -9.05 1.5 -11.4 1.7 -12.3 1.65 -13.15 2.3 -14.4 3.2 -15.5 5.45 L-15.55 5.5" fill="#202d87" fill-rule="evenodd" stroke="none"/>
    <path d="M12.5 -0.4 L14.1 0.15 Q15.75 1.2 17.55 4.0 L18.0 4.75 18.15 5.5 17.7 6.1 17.65 6.15 16.9 6.25 Q16.5 6.15 16.3 5.8 13.75 1.55 11.85 1.5 10.05 1.8 8.5 6.25 L8.0 6.8 7.25 6.85 6.65 6.35 Q6.45 5.95 6.6 5.6 L6.65 5.45 6.7 5.35 6.75 5.2 6.8 5.1 6.85 4.95 6.9 4.8 6.95 4.65 7.0 4.55 7.05 4.4 7.1 4.3 7.15 4.2 7.2 4.05 7.25 3.95 7.3 3.85 7.35 3.75 7.4 3.65 7.45 3.55 7.5 3.45 8.1 2.25 8.15 2.2 8.2 2.1 8.2 2.05 9.6 0.35 10.15 0.0 10.1 0.0 Q10.85 -0.5 11.7 -0.5 L11.95 -0.5 12.5 -0.4 M-15.25 7.25 L-15.75 6.7 -15.75 5.95 -15.55 5.5 -15.5 5.45 Q-14.4 3.2 -13.15 2.3 -12.3 1.65 -11.4 1.7 -9.05 1.5 -6.6 5.65 -6.4 6.0 -6.45 6.4 L-6.95 7.0 -7.7 7.15 -8.3 6.65 Q-10.0 3.8 -11.35 3.7 -12.65 3.9 -13.95 6.75 L-13.95 6.8 -14.5 7.3 -15.25 7.25" fill="#101431" fill-rule="evenodd" stroke="none"/>
  </g>
</svg>
