<?xml version="1.0" encoding="UTF-8" standalone="no"?>
<svg xmlns:ffdec="https://www.free-decompiler.com/flash" xmlns:xlink="http://www.w3.org/1999/xlink" ffdec:objectType="shape" height="60.05px" width="40.85px" xmlns="http://www.w3.org/2000/svg">
  <g transform="matrix(1.0, 0.0, 0.0, 1.0, 10.65, 8.3)">
    <path d="M22.1 17.4 L7.4 -0.75 Q5.45 -3.3 2.75 -5.65 0.05 -8.05 -4.0 -8.3 L-0.7 -8.25 Q2.1 -8.1 4.3 -5.8 9.25 -0.8 13.3 4.25 L22.65 15.3 Q26.05 19.4 26.05 20.95 26.05 22.3 24.85 24.05 23.5 26.0 22.0 26.45 L21.9 26.45 20.4 24.3 21.65 23.0 Q22.35 21.75 21.15 20.85 19.9 20.05 18.4 20.2 L18.1 20.2 16.3 20.25 Q12.65 20.55 8.35 22.75 5.1 24.45 3.4 25.85 L2.25 26.95 2.2 27.1 1.3 28.1 Q0.7 28.75 0.7 29.4 0.7 30.65 1.9 31.3 L4.75 32.15 4.9 32.15 6.5 34.4 6.3 34.45 2.05 35.1 Q0.6 35.1 -0.9 34.3 -2.45 33.5 -3.75 30.5 -5.1 27.5 -7.55 17.15 -10.05 6.8 -10.65 0.7 -10.65 -1.95 -9.75 -3.55 L-8.1 -5.75 Q-8.6 -4.8 -9.1 -2.65 L-9.6 0.65 Q-9.6 4.1 -7.55 11.7 L-2.65 28.65 -2.25 30.6 Q-1.85 33.6 1.7 33.6 L4.0 33.05 2.35 32.7 Q-0.95 32.5 -0.95 29.85 L-0.5 28.05 1.45 25.8 2.65 24.75 2.9 24.55 4.05 23.8 Q4.95 23.2 6.05 22.65 L6.75 22.25 Q11.85 19.75 15.6 19.05 L16.95 18.85 18.15 18.8 Q22.55 18.8 22.85 21.0 23.1 23.05 22.45 24.05 L23.4 23.2 Q24.1 22.55 24.1 20.85 24.1 19.7 23.6 19.2 L22.1 17.4" fill="#3c0303" fill-rule="evenodd" stroke="none"/>
    <path d="M-4.0 -8.3 Q0.05 -8.05 2.75 -5.65 5.45 -3.3 7.4 -0.75 L22.1 17.4 Q19.3 15.9 16.3 16.6 L6.3 2.25 Q-0.2 -6.55 -3.4 -6.55 -4.35 -6.55 -5.4 -5.5 -6.75 -4.2 -6.75 -2.3 -6.75 1.6 -3.7 10.6 L-0.05 21.4 0.8 23.8 0.45 24.1 Q-1.6 25.85 -2.65 28.65 L-7.55 11.7 Q-9.6 4.1 -9.6 0.65 L-9.1 -2.65 Q-8.6 -4.8 -8.1 -5.75 -6.3 -7.9 -4.0 -8.3" fill="#830c0c" fill-rule="evenodd" stroke="none"/>
    <path d="M4.9 32.15 L4.75 32.15 1.9 31.3 Q0.7 30.65 0.7 29.4 0.7 28.75 1.3 28.1 L2.2 27.1 2.25 26.95 4.9 32.15 M18.1 20.2 L18.4 20.2 Q19.9 20.05 21.15 20.85 22.35 21.75 21.65 23.0 L20.4 24.3 18.1 20.2" fill="#510505" fill-rule="evenodd" stroke="none"/>
    <path d="M22.1 17.4 L23.6 19.2 Q24.1 19.7 24.1 20.85 24.1 22.55 23.4 23.2 L22.45 24.05 Q23.1 23.05 22.85 21.0 22.55 18.8 18.15 18.8 L16.95 18.85 15.6 19.05 Q11.85 19.75 6.75 22.25 L6.05 22.65 Q4.95 23.2 4.05 23.8 L2.9 24.55 2.65 24.75 1.45 25.8 -0.5 28.05 -0.95 29.85 Q-0.95 32.5 2.35 32.7 L4.0 33.05 1.7 33.6 Q-1.85 33.6 -2.25 30.6 L-2.65 28.65 Q-1.6 25.85 0.45 24.1 L0.8 23.8 1.5 23.1 Q2.85 21.85 4.8 20.95 8.6 18.7 13.6 17.3 L16.3 16.6 Q19.3 15.9 22.1 17.4" fill="#660707" fill-rule="evenodd" stroke="none"/>
    <path d="M13.6 17.3 L11.15 13.2 5.25 3.85 Q-0.65 -5.15 -3.5 -5.15 -4.5 -5.15 -5.05 -4.6 L-5.25 -3.9 -5.5 -2.75 Q-5.5 0.15 -3.65 3.15 -2.6 4.85 -0.7 9.0 0.45 12.15 2.8 17.0 L4.8 20.95 Q2.85 21.85 1.5 23.1 L0.8 23.8 -0.05 21.4 -3.7 10.6 Q-6.75 1.6 -6.75 -2.3 -6.75 -4.2 -5.4 -5.5 -4.35 -6.55 -3.4 -6.55 -0.2 -6.55 6.3 2.25 L16.3 16.6 13.6 17.3" fill="#a61515" fill-rule="evenodd" stroke="none"/>
    <path d="M4.8 20.95 L2.8 17.0 Q0.45 12.15 -0.7 9.0 -2.6 4.85 -3.65 3.15 -5.5 0.15 -5.5 -2.75 L-5.25 -3.9 -5.05 -4.6 Q-4.5 -5.15 -3.5 -5.15 -0.65 -5.15 5.25 3.85 L11.15 13.2 13.6 17.3 Q8.6 18.7 4.8 20.95" fill="#c91919" fill-rule="evenodd" stroke="none"/>
    <path d="M3.4 25.85 Q5.1 24.45 8.35 22.75 12.65 20.55 16.3 20.25 L17.55 22.4 18.05 23.3 18.25 23.65 20.5 27.5 22.95 31.85 23.0 31.9 Q26.1 37.65 27.3 41.15 L27.3 41.1 Q24.7 36.2 21.35 31.3 16.3 23.9 14.05 23.9 10.85 23.9 9.25 25.55 8.2 26.6 8.2 27.55 8.2 29.45 9.25 32.35 L11.15 37.15 Q11.85 39.2 14.55 43.05 L16.35 45.7 16.0 45.2 15.85 45.05 Q12.75 40.8 9.9 36.35 L5.5 29.0 5.2 28.45 4.8 27.9 3.4 25.85" fill="#de9954" fill-rule="evenodd" stroke="none"/>
    <path d="M6.3 34.45 L6.5 34.4 4.9 32.15 2.25 26.95 3.4 25.85 4.8 27.9 5.2 28.45 5.5 29.0 9.9 36.35 Q12.75 40.8 15.85 45.05 L16.0 45.2 16.35 45.7 Q19.5 49.5 22.1 49.5 L23.55 48.95 Q25.05 48.3 25.95 47.55 27.9 46.25 28.0 44.2 L27.3 41.1 27.3 41.15 Q26.1 37.65 23.0 31.9 L22.95 31.85 20.5 27.5 18.25 23.65 18.05 23.3 17.55 22.4 16.3 20.25 18.1 20.2 20.4 24.3 21.9 26.45 22.0 26.45 27.3 36.05 Q30.15 41.4 30.2 44.15 30.25 46.9 27.25 49.4 24.45 51.75 21.95 51.75 L19.15 51.3 Q18.05 50.75 14.35 45.85 L6.3 34.45" fill="#9d632f" fill-rule="evenodd" stroke="none"/>
    <path d="M22.1 37.85 Q22.1 37.0 20.15 33.75 L16.25 27.75 Q14.3 25.0 11.0 27.5 10.15 30.15 12.45 34.3 16.65 42.55 18.5 42.25 20.35 41.9 21.0 41.25 22.1 40.2 22.1 37.85 M16.35 45.7 L14.55 43.05 Q11.85 39.2 11.15 37.15 L9.25 32.35 Q8.2 29.45 8.2 27.55 8.2 26.6 9.25 25.55 10.85 23.9 14.05 23.9 16.3 23.9 21.35 31.3 24.7 36.2 27.3 41.1 L28.0 44.2 Q27.9 46.25 25.95 47.55 25.05 48.3 23.55 48.95 L22.1 49.5 Q19.5 49.5 16.35 45.7" fill="#eaa76a" fill-rule="evenodd" stroke="none"/>
    <path d="M22.1 37.85 Q22.1 40.2 21.0 41.25 20.35 41.9 18.5 42.25 16.65 42.55 12.45 34.3 10.15 30.15 11.0 27.5 14.3 25.0 16.25 27.75 L20.15 33.75 Q22.1 37.0 22.1 37.85" fill="#ecb17d" fill-rule="evenodd" stroke="none"/>
  </g>
</svg>
