<?xml version="1.0" encoding="UTF-8" standalone="no"?>
<svg xmlns:ffdec="https://www.free-decompiler.com/flash" xmlns:xlink="http://www.w3.org/1999/xlink" ffdec:objectType="shape" height="18.85px" width="25.6px" xmlns="http://www.w3.org/2000/svg">
  <g transform="matrix(1.0, 0.0, 0.0, 1.0, 27.2, 14.5)">
    <path d="M-14.4 -12.15 L-20.05 -12.3 -23.4 -11.85 Q-21.6 -13.05 -19.1 -13.35 L-16.8 -13.4 Q-10.2 -13.4 -6.0 -9.3 -2.6 -6.0 -2.6 -2.8 -2.6 -1.5 -3.55 0.1 -3.55 -4.95 -6.7 -8.55 -9.9 -12.15 -14.4 -12.15" fill="#ffffff" fill-rule="evenodd" stroke="none"/>
    <path d="M-7.25 -1.5 Q-6.45 -2.85 -6.45 -3.85 -6.45 -5.3 -7.55 -6.8 -9.35 -9.25 -13.1 -9.75 L-14.4 -12.15 Q-9.9 -12.15 -6.7 -8.55 -3.55 -4.95 -3.55 0.1 L-4.45 1.05 -4.8 1.35 -7.25 -1.5 M-17.15 -8.9 L-15.55 -9.0 Q-12.65 -9.0 -10.05 -7.3 -7.55 -5.65 -7.55 -4.0 -7.55 -2.9 -8.3 -2.15 L-11.25 -0.25 -14.4 -4.45 -17.15 -8.9" fill="#e0e0e0" fill-rule="evenodd" stroke="none"/>
    <path d="M-13.1 -9.75 L-18.2 -10.4 Q-21.7 -10.05 -22.95 -8.75 L-24.75 -10.8 -23.4 -11.85 -20.05 -12.3 -14.4 -12.15 -13.1 -9.75 M-10.85 3.35 L-12.9 1.4 Q-12.1 1.4 -10.15 0.45 -8.05 -0.6 -7.25 -1.5 L-4.8 1.35 -4.45 1.05 Q-5.15 1.8 -6.95 2.55 -9.1 3.4 -10.85 3.35 M-17.15 -8.9 L-14.4 -4.45 -11.25 -0.25 -14.45 0.15 Q-16.55 0.15 -18.95 -1.55 -21.95 -3.65 -21.95 -6.7 -21.95 -8.85 -17.15 -8.9" fill="#b4b4b4" fill-rule="evenodd" stroke="none"/>
    <path d="M-24.75 -10.8 L-22.95 -8.75 Q-21.7 -10.05 -18.2 -10.4 L-13.1 -9.75 Q-9.35 -9.25 -7.55 -6.8 -6.45 -5.3 -6.45 -3.85 -6.45 -2.85 -7.25 -1.5 -8.05 -0.6 -10.15 0.45 -12.1 1.4 -12.9 1.4 L-10.85 3.35 Q-14.2 3.7 -19.4 1.25 -26.2 -1.95 -26.2 -7.35 L-25.95 -8.8 Q-25.55 -10.15 -24.75 -10.8 M-11.25 -0.25 L-8.3 -2.15 Q-7.55 -2.9 -7.55 -4.0 -7.55 -5.65 -10.05 -7.3 -12.65 -9.0 -15.55 -9.0 L-17.15 -8.9 Q-21.95 -8.85 -21.95 -6.7 -21.95 -3.65 -18.95 -1.55 -16.55 0.15 -14.45 0.15 L-11.25 -0.25" fill="#8a8a8a" fill-rule="evenodd" stroke="none"/>
    <path d="M-24.75 -10.8 Q-25.55 -10.15 -25.95 -8.8 L-26.2 -7.35 Q-26.2 -1.95 -19.4 1.25 -14.2 3.7 -10.85 3.35 -9.1 3.4 -6.95 2.55 -5.15 1.8 -4.45 1.05 L-3.55 0.1 Q-2.6 -1.5 -2.6 -2.8 -2.6 -6.0 -6.0 -9.3 -10.2 -13.4 -16.8 -13.4 L-19.1 -13.35 Q-21.6 -13.05 -23.4 -11.85 L-24.75 -10.8 M-27.2 -7.2 Q-27.2 -11.05 -23.3 -13.1 -19.6 -15.1 -14.3 -14.2 -9.1 -13.25 -5.35 -10.05 -1.6 -6.75 -1.6 -3.0 -1.6 0.9 -5.45 2.95 -9.2 5.0 -14.45 4.05 -19.7 3.15 -23.4 -0.05 -27.2 -3.4 -27.2 -7.2" fill="#464646" fill-rule="evenodd" stroke="none"/>
  </g>
</svg>
