<?xml version="1.0" encoding="UTF-8" standalone="no"?>
<svg xmlns:ffdec="https://www.free-decompiler.com/flash" xmlns:xlink="http://www.w3.org/1999/xlink" ffdec:objectType="shape" height="185.2px" width="88.75px" xmlns="http://www.w3.org/2000/svg">
  <g transform="matrix(1.0, 0.0, 0.0, 1.0, 49.15, 136.4)">
    <path d="M18.05 -27.0 Q19.5 -27.2 20.95 -27.95 L21.0 -28.0 16.3 -22.05 Q14.6 -20.2 12.9 -19.55 11.5 -19.05 7.5 -18.6 L-3.45 -17.25 -4.0 -42.5 Q-4.0 -51.9 -3.15 -66.75 -1.65 -91.8 1.45 -104.7 L3.8 -117.8 3.95 -119.25 Q3.95 -121.7 2.05 -122.65 0.45 -123.4 -4.5 -124.15 -4.85 -126.55 -3.85 -127.3 -2.6 -128.3 -1.8 -128.3 2.35 -128.3 5.15 -124.15 8.15 -119.75 8.15 -112.8 8.15 -109.0 7.1 -103.7 5.95 -98.0 4.15 -93.45 L4.2 -92.7 Q4.35 -92.4 5.0 -92.4 5.5 -92.4 7.85 -93.75 L11.0 -95.5 Q7.15 -72.4 7.15 -71.5 L7.25 -70.6 7.45 -70.25 7.35 -70.15 8.0 -70.05 Q8.45 -70.05 10.15 -74.1 L11.65 -77.6 Q11.45 -76.7 11.85 -72.95 L11.8 -72.8 12.5 -72.7 Q13.5 -72.7 12.85 -72.85 L12.55 -77.55 Q12.0 -78.05 11.8 -77.85 L13.6 -81.85 13.75 -82.25 Q14.5 -78.0 14.5 -75.35 14.5 -67.65 13.2 -61.8 12.75 -61.8 12.75 -59.2 L10.75 -47.4 10.65 -47.3 11.25 -47.25 Q11.75 -47.25 14.05 -48.8 L14.5 -48.95 14.7 -49.3 16.9 -51.0 15.15 -45.45 14.8 -45.8 14.6 -45.85 Q14.1 -45.55 14.4 -43.25 L13.15 -39.05 13.3 -38.45 Q13.45 -38.15 14.1 -38.15 L16.55 -39.2 20.25 -40.55 Q19.3 -37.7 17.1 -33.0 15.1 -28.75 14.9 -27.8 15.85 -27.05 17.05 -26.9 L17.25 -25.5 Q17.4 -25.0 17.6 -25.05 L17.95 -25.75 18.05 -27.0 M3.05 -99.25 Q4.0 -100.35 4.2 -102.5 4.35 -104.05 4.1 -105.1 L3.45 -104.3 Q1.85 -101.25 1.85 -100.15 1.85 -99.5 2.3 -99.2 L2.75 -99.0 3.05 -99.25 M3.15 -70.25 Q6.45 -81.95 7.2 -89.35 L7.0 -89.6 6.4 -89.65 Q4.65 -89.65 2.65 -87.3 0.45 -84.65 0.25 -81.4 -0.1 -76.05 -0.95 -72.85 -1.65 -70.25 -1.65 -67.45 L-1.25 -63.0 -1.1 -61.7 -0.25 -60.75 Q0.6 -61.4 1.9 -64.15 3.2 -66.9 3.85 -69.35 L3.15 -70.25 M6.0 -39.05 Q9.9 -55.75 10.55 -62.25 10.9 -65.5 10.25 -66.55 8.75 -66.0 6.45 -62.6 2.0 -56.15 -0.3 -49.3 -1.2 -46.65 -1.55 -39.05 L-1.75 -32.0 -2.0 -28.85 Q-2.0 -25.05 -0.75 -23.75 1.95 -24.85 7.5 -33.35 12.6 -41.2 12.6 -42.35 12.6 -42.95 12.3 -43.0 L11.6 -43.0 6.0 -39.05 M12.3 -65.0 L12.25 -64.85 12.95 -64.75 Q13.95 -64.75 13.3 -64.9 L13.05 -69.4 Q12.0 -70.0 12.3 -65.0 M16.45 -33.0 L16.65 -32.9 Q16.85 -32.95 16.85 -33.6 L16.5 -35.95 16.0 -37.85 Q15.6 -36.95 15.85 -35.45 16.1 -33.95 16.45 -33.0 M5.1 -20.5 Q7.1 -20.5 10.5 -25.8 13.95 -31.2 12.5 -33.2 9.6 -32.75 6.45 -27.65 L3.85 -22.55 Q3.85 -21.7 4.35 -21.05 4.75 -20.5 5.1 -20.5 M-1.4 -116.05 L-1.35 -116.55 Q-1.35 -117.75 -2.2 -118.6 -3.05 -119.45 -4.25 -119.45 -5.45 -119.45 -6.3 -118.6 -7.15 -117.75 -7.15 -116.55 L-7.1 -116.05 -7.15 -115.55 -7.15 -115.45 -7.15 -115.15 -8.95 -111.55 Q-11.75 -104.7 -13.0 -93.0 -14.3 -80.95 -15.65 -70.75 L-16.5 -63.15 -15.4 -61.5 -14.5 -64.3 -13.75 -66.75 -13.65 -65.65 Q-14.15 -55.35 -14.1 -48.2 L-14.1 -47.95 -14.15 -47.4 -14.1 -46.9 -14.15 -46.4 -14.15 -46.3 -14.15 -45.6 -14.05 -44.9 Q-13.7 -34.25 -11.35 -31.25 L-10.55 -31.4 -10.05 -43.05 -9.2 -43.65 Q-8.4 -44.45 -8.35 -45.6 L-8.35 -46.3 -8.35 -46.4 -8.4 -46.9 -8.35 -47.4 Q-8.35 -48.6 -9.2 -49.45 L-9.8 -49.95 -9.5 -62.85 -9.25 -66.1 -8.45 -66.7 Q-7.65 -67.5 -7.6 -68.65 L-7.6 -69.35 -7.6 -69.45 -7.65 -69.95 -7.6 -70.45 Q-7.6 -71.65 -8.45 -72.5 L-8.55 -72.6 -6.35 -89.6 -6.2 -89.75 Q-5.4 -90.55 -5.35 -91.7 L-5.35 -92.4 -5.35 -92.5 -5.4 -93.0 -5.35 -93.5 Q-5.35 -94.2 -5.6 -94.75 L-2.95 -112.25 -2.2 -112.8 Q-1.4 -113.6 -1.35 -114.75 L-1.35 -115.45 -1.35 -115.55 -1.4 -116.05 M-8.55 -120.9 Q-5.5 -119.85 -0.05 -119.4 L-5.75 -81.4 Q-8.0 -62.0 -8.0 -37.6 L-7.6 -18.8 Q-9.1 -18.65 -15.4 -19.85 -15.4 -20.55 -16.3 -24.75 -16.95 -27.9 -16.5 -40.75 -16.5 -46.3 -17.0 -47.25 -17.0 -46.2 -17.2 -46.2 L-18.25 -30.3 Q-18.7 -22.9 -19.0 -21.5 L-21.2 -22.95 Q-22.05 -23.65 -22.05 -26.5 -22.05 -45.85 -21.3 -54.3 -20.65 -61.6 -16.9 -86.3 -15.85 -93.15 -12.5 -104.55 -9.25 -115.5 -8.55 -120.9 M-8.4 -23.8 L-8.35 -24.3 Q-8.35 -25.5 -9.2 -26.35 -10.05 -27.2 -11.25 -27.2 -12.45 -27.2 -13.3 -26.35 -14.15 -25.5 -14.15 -24.3 L-14.1 -23.8 -14.15 -23.3 -14.15 -23.2 -14.15 -22.5 Q-14.1 -21.35 -13.3 -20.55 -12.45 -19.7 -11.25 -19.7 -10.05 -19.7 -9.2 -20.55 -8.4 -21.35 -8.35 -22.5 L-8.35 -23.2 -8.35 -23.3 -8.4 -23.8" fill="#e2e2e2" fill-rule="evenodd" stroke="none"/>
    <path d="M22.2 4.0 L22.1 3.1 22.9 -0.8 23.3 5.0 23.5 15.95 Q23.45 20.85 22.55 26.95 L21.1 34.1 19.05 40.3 Q27.15 34.25 31.95 26.25 38.0 16.15 38.0 4.05 38.0 -1.0 37.15 -4.75 35.95 -9.75 35.65 -12.9 L36.75 -13.95 Q39.6 -2.55 39.6 5.55 39.6 22.25 28.05 35.35 16.2 48.8 0.15 48.8 -5.0 48.8 -9.85 47.7 -17.6 45.95 -21.4 41.9 L-16.85 41.95 Q-13.45 44.4 -7.2 45.5 L1.2 46.15 5.0 45.65 11.8 44.0 Q15.35 43.1 15.95 42.6 17.0 41.8 18.75 37.75 L19.3 36.75 19.45 35.7 20.65 30.95 21.85 23.9 20.1 23.5 19.9 23.4 16.25 22.25 16.0 20.85 21.95 22.6 Q22.35 14.4 22.2 4.0 M24.5 -9.05 L25.95 -9.35 26.8 1.05 Q26.8 1.65 26.15 1.95 25.4 1.7 25.1 -1.45 L25.15 -1.4 24.5 -9.05 M29.5 -10.25 L30.95 -10.7 31.45 -4.2 Q32.15 -2.1 32.15 -1.1 32.15 -0.45 31.75 -0.05 L30.9 0.65 30.35 0.35 30.15 0.05 29.5 -10.25" fill="#0e1d30" fill-rule="evenodd" stroke="none"/>
    <path d="M15.3 -1.5 L19.1 -1.5 19.1 -0.3 15.3 -0.3 15.3 -1.5 M15.5 17.7 Q20.7 18.3 21.55 13.65 21.7 7.3 22.2 4.0 22.35 14.4 21.95 22.6 L16.0 20.85 15.5 17.7 M22.1 3.1 L21.45 -8.45 24.5 -9.05 25.15 -1.4 25.1 -1.45 22.9 -0.8 22.1 3.1 M30.95 -10.7 L35.65 -12.9 Q35.95 -9.75 37.15 -4.75 38.0 -1.0 38.0 4.05 38.0 16.15 31.95 26.25 27.15 34.25 19.05 40.3 L21.1 34.1 Q27.8 26.35 30.0 21.8 33.45 14.7 33.45 4.15 L32.75 -3.1 32.1 0.65 31.05 4.6 30.9 4.5 Q30.45 3.35 30.35 0.35 L30.9 0.65 31.75 -0.05 Q32.15 -0.45 32.15 -1.1 32.15 -2.1 31.45 -4.2 L30.95 -10.7 M-16.85 41.95 L-12.95 41.15 -9.8 40.35 Q-9.8 39.9 -6.9 39.55 L-3.85 39.25 Q-1.15 39.25 2.2 40.35 5.5 41.45 6.95 41.45 8.25 41.45 12.6 40.25 17.5 38.9 18.75 37.75 17.0 41.8 15.95 42.6 15.35 43.1 11.8 44.0 L5.0 45.65 1.2 46.15 -7.2 45.5 Q-13.45 44.4 -16.85 41.95 M19.45 35.7 L18.4 31.8 20.1 23.5 21.85 23.9 20.65 30.95 19.45 35.7 M27.55 6.05 L27.35 7.75 26.9 8.45 Q26.65 8.45 26.45 7.75 L26.25 6.05 26.45 4.35 Q26.65 3.65 26.9 3.65 27.15 3.65 27.35 4.35 L27.55 6.05 M28.0 14.5 L27.8 16.3 27.25 17.0 Q26.95 17.0 26.75 16.3 26.5 15.55 26.5 14.5 26.5 13.45 26.75 12.75 26.95 12.0 27.25 12.0 27.55 12.0 27.8 12.75 L28.0 14.5 M26.3 25.7 L26.9 20.7 27.05 21.1 27.0 25.7 26.3 25.7" fill="#152a44" fill-rule="evenodd" stroke="none"/>
    <path d="M16.55 23.8 L16.25 22.25 19.9 23.4 19.45 24.65 16.55 23.8" fill="#2e5b93" fill-rule="evenodd" stroke="none"/>
    <path d="M15.3 -1.5 L15.3 -0.3 19.1 -0.3 19.1 -1.5 15.3 -1.5 M14.35 -5.95 Q17.75 -6.4 18.75 -3.75 19.65 -1.35 19.65 6.75 19.65 12.15 19.05 13.9 18.15 16.55 15.2 15.55 14.75 9.55 14.55 1.25 L14.35 -5.95 M25.95 -9.35 L29.5 -10.25 30.15 0.05 26.8 1.05 25.95 -9.35 M22.55 26.95 Q23.45 20.85 23.5 15.95 L23.3 5.0 24.05 1.85 25.0 3.1 25.85 20.4 Q25.85 22.25 25.05 24.3 24.2 26.55 22.85 27.6 L22.55 26.95 M17.2 26.85 L16.55 23.8 19.45 24.65 Q18.9 25.5 17.2 26.85" fill="#274d7d" fill-rule="evenodd" stroke="none"/>
    <path d="M15.2 15.55 Q18.15 16.55 19.05 13.9 19.65 12.15 19.65 6.75 19.65 -1.35 18.75 -3.75 17.75 -6.4 14.35 -5.95 L13.75 -7.45 21.45 -8.45 22.1 3.1 22.2 4.0 Q21.7 7.3 21.55 13.65 20.7 18.3 15.5 17.7 L15.2 15.55 M21.1 34.1 L22.55 26.95 22.85 27.6 Q24.2 26.55 25.05 24.3 25.85 22.25 25.85 20.4 L25.0 3.1 24.05 1.85 23.3 5.0 22.9 -0.8 25.1 -1.45 Q25.4 1.7 26.15 1.95 26.8 1.65 26.8 1.05 L30.15 0.05 30.35 0.35 Q30.45 3.35 30.9 4.5 L31.05 4.6 32.1 0.65 32.75 -3.1 33.45 4.15 Q33.45 14.7 30.0 21.8 27.8 26.35 21.1 34.1 M18.4 31.8 L17.2 26.85 Q18.9 25.5 19.45 24.65 L19.9 23.4 20.1 23.5 18.4 31.8 M27.55 6.05 L27.35 4.35 Q27.15 3.65 26.9 3.65 26.65 3.65 26.45 4.35 L26.25 6.05 26.45 7.75 Q26.65 8.45 26.9 8.45 L27.35 7.75 27.55 6.05 M26.3 25.7 L27.0 25.7 27.05 21.1 26.9 20.7 26.3 25.7 M28.0 14.5 L27.8 12.75 Q27.55 12.0 27.25 12.0 26.95 12.0 26.75 12.75 26.5 13.45 26.5 14.5 26.5 15.55 26.75 16.3 26.95 17.0 27.25 17.0 L27.8 16.3 28.0 14.5" fill="#1f3c60" fill-rule="evenodd" stroke="none"/>
    <path d="M32.0 -21.55 L22.55 -79.25 Q18.55 -104.2 16.45 -113.75 13.75 -126.0 10.7 -130.5 7.75 -134.9 2.45 -134.9 L-0.75 -134.5 Q-2.3 -134.15 -3.95 -133.15 -5.6 -132.15 -6.4 -130.85 L-7.7 -128.8 -9.0 -125.6 Q-9.55 -125.95 -10.45 -126.1 -8.05 -132.05 -4.75 -134.4 -2.0 -136.4 2.5 -136.4 8.35 -136.4 11.7 -131.6 15.05 -126.8 17.85 -114.45 20.0 -105.0 23.9 -80.75 L32.75 -26.3 33.2 -23.3 32.6 -22.35 32.0 -21.55 M-37.25 -26.25 Q-34.3 -49.35 -25.05 -82.35 -17.2 -110.4 -11.8 -122.65 L-10.55 -121.85 -10.5 -121.8 Q-13.35 -115.95 -14.45 -112.15 L-15.85 -107.3 Q-22.55 -90.6 -30.05 -54.8 -33.85 -36.85 -36.35 -21.8 L-37.0 -22.95 -37.25 -26.25" fill="#555555" fill-rule="evenodd" stroke="none"/>
    <path d="M-9.0 -125.6 L-7.7 -128.8 -6.4 -130.85 Q-5.6 -132.15 -3.95 -133.15 -2.3 -134.15 -0.75 -134.5 L2.45 -134.9 Q7.75 -134.9 10.7 -130.5 13.75 -126.0 16.45 -113.75 18.55 -104.2 22.55 -79.25 L32.0 -21.55 Q31.5 -21.25 26.7 -19.75 L24.3 -19.0 Q25.9 -19.7 26.85 -20.9 27.9 -22.25 27.9 -23.85 L27.7 -26.9 26.0 -33.55 Q23.45 -31.0 22.25 -31.0 L21.5 -31.05 21.0 -31.25 Q21.0 -31.9 22.35 -35.55 23.75 -39.35 23.85 -40.4 24.3 -43.75 24.85 -45.7 L25.25 -47.7 25.1 -48.95 24.0 -49.0 22.5 -48.85 Q21.5 -48.85 20.75 -50.35 L20.55 -51.45 22.25 -58.95 Q22.25 -61.7 20.0 -59.8 L19.1 -58.75 17.25 -57.5 16.45 -57.45 Q16.25 -57.5 16.25 -58.15 16.25 -61.1 17.7 -64.25 19.1 -67.4 19.1 -68.6 19.1 -70.2 17.95 -77.8 16.65 -86.15 16.45 -89.1 L16.25 -89.35 15.8 -91.3 Q13.3 -87.45 12.25 -86.75 L12.25 -88.65 Q11.45 -88.4 11.4 -93.4 L11.9 -93.55 12.35 -92.85 12.45 -90.1 14.45 -99.85 Q14.45 -102.55 13.0 -109.3 11.35 -117.15 11.25 -118.05 10.2 -127.0 6.55 -129.8 4.65 -131.2 0.45 -131.2 -1.95 -131.2 -4.0 -129.6 L-7.9 -125.95 -6.2 -124.35 Q-3.75 -122.1 -2.3 -122.15 L0.3 -122.05 Q1.5 -121.85 2.15 -121.0 2.75 -120.2 2.75 -119.1 L2.6 -117.8 2.45 -117.3 -0.45 -100.2 -1.7 -92.4 Q-3.45 -77.2 -4.2 -67.25 -5.3 -53.45 -5.3 -41.9 L-4.7 -16.35 -6.2 -16.4 Q-6.7 -29.2 -6.8 -42.0 -6.8 -63.95 -3.2 -92.65 -1.6 -105.15 1.0 -117.65 L1.25 -119.2 Q1.25 -120.2 0.85 -120.35 L-0.75 -120.5 Q-4.95 -120.65 -10.75 -123.4 L-11.0 -123.8 -11.1 -124.45 -10.5 -124.7 -9.8 -124.65 Q-9.35 -124.2 -6.85 -123.25 L-5.4 -122.8 -9.0 -125.6 M11.65 -77.6 L11.75 -77.85 11.8 -77.85 Q12.0 -78.05 12.55 -77.55 L12.85 -72.85 Q13.5 -72.7 12.5 -72.7 L11.8 -72.8 11.85 -72.95 Q11.45 -76.7 11.65 -77.6 M13.2 -61.8 Q13.6 -61.5 13.9 -56.95 14.55 -56.8 13.55 -56.8 L12.85 -56.9 12.9 -57.05 12.75 -59.2 Q12.75 -61.8 13.2 -61.8 M14.05 -48.8 L13.7 -49.05 13.3 -53.65 13.75 -53.85 14.3 -53.55 14.7 -49.3 14.5 -48.95 14.05 -48.8 M15.15 -45.45 L15.65 -41.0 Q15.35 -41.5 15.05 -40.85 14.65 -41.15 14.4 -43.25 14.1 -45.55 14.6 -45.85 L14.8 -45.8 15.15 -45.45 M17.05 -26.9 L16.85 -29.35 Q16.7 -29.85 17.0 -30.05 L17.35 -29.95 18.05 -27.0 17.95 -25.75 17.6 -25.05 Q17.4 -25.0 17.25 -25.5 L17.05 -26.9 M11.4 -96.7 L11.5 -100.65 Q11.6 -101.4 11.95 -101.5 L12.35 -101.65 12.45 -101.15 12.4 -96.7 12.0 -96.55 11.4 -96.7 M11.5 -104.65 L11.65 -108.65 Q11.75 -109.4 12.1 -109.5 L12.5 -109.65 12.6 -109.15 12.5 -104.65 12.1 -104.5 11.5 -104.65 M11.6 -80.8 Q11.2 -85.3 11.55 -85.75 11.75 -86.05 12.35 -85.45 L12.6 -80.8 12.2 -80.65 11.6 -80.8 M16.45 -33.0 Q16.1 -33.95 15.85 -35.45 15.6 -36.95 16.0 -37.85 L16.5 -35.95 16.85 -33.6 Q16.85 -32.95 16.65 -32.9 L16.45 -33.0 M12.3 -65.0 Q12.0 -70.0 13.05 -69.4 L13.3 -64.9 Q13.95 -64.75 12.95 -64.75 L12.25 -64.85 12.3 -65.0 M19.05 -17.8 Q19.15 -18.35 18.65 -19.5 18.15 -20.65 18.2 -21.4 L18.05 -22.2 18.55 -22.1 Q19.2 -22.1 19.35 -21.45 L20.05 -17.95 19.05 -17.8 M-7.1 -116.05 L-7.15 -116.55 Q-7.15 -117.75 -6.3 -118.6 -5.45 -119.45 -4.25 -119.45 -3.05 -119.45 -2.2 -118.6 -1.35 -117.75 -1.35 -116.55 L-1.4 -116.05 Q-1.55 -115.15 -2.2 -114.5 L-2.75 -114.05 Q-3.45 -113.65 -4.25 -113.65 -5.45 -113.65 -6.3 -114.5 L-6.95 -115.5 -7.1 -116.05 M-5.6 -94.75 Q-5.35 -94.2 -5.35 -93.5 L-5.4 -93.0 Q-5.55 -92.2 -6.1 -91.55 L-6.2 -91.45 Q-7.05 -90.6 -8.25 -90.6 -9.45 -90.6 -10.3 -91.45 -10.95 -92.1 -11.1 -93.0 L-11.15 -93.5 Q-11.15 -94.7 -10.3 -95.55 -9.45 -96.4 -8.25 -96.4 -7.05 -96.4 -6.2 -95.55 L-5.6 -94.75 M-8.55 -72.6 L-8.45 -72.5 Q-7.6 -71.65 -7.6 -70.45 L-7.65 -69.95 Q-7.8 -69.05 -8.45 -68.4 L-9.05 -67.9 Q-9.7 -67.55 -10.5 -67.55 -11.7 -67.55 -12.55 -68.4 -13.2 -69.05 -13.35 -69.95 L-13.4 -70.45 Q-13.4 -71.65 -12.55 -72.5 -11.7 -73.35 -10.5 -73.35 -9.4 -73.35 -8.55 -72.6 M-9.8 -49.95 L-9.2 -49.45 Q-8.35 -48.6 -8.35 -47.4 L-8.4 -46.9 Q-8.55 -46.0 -9.2 -45.35 L-10.0 -44.75 -11.25 -44.5 Q-12.45 -44.5 -13.3 -45.35 -13.95 -46.0 -14.1 -46.85 L-14.1 -46.9 -14.15 -47.4 -14.1 -47.95 Q-13.95 -48.8 -13.3 -49.45 -12.45 -50.3 -11.25 -50.3 L-9.8 -49.95 M-4.05 -118.45 L-4.4 -118.45 Q-5.1 -118.4 -5.6 -117.9 -6.15 -117.35 -6.15 -116.6 L-6.15 -116.55 Q-6.15 -115.75 -5.6 -115.2 -5.05 -114.65 -4.25 -114.65 -3.45 -114.65 -2.9 -115.2 L-2.85 -115.25 Q-2.35 -115.8 -2.35 -116.55 -2.35 -117.35 -2.9 -117.9 -3.4 -118.4 -4.05 -118.45 M-15.85 -107.3 L-20.25 -89.6 -24.75 -71.0 -27.8 -46.65 -30.1 -25.75 Q-30.1 -23.2 -29.5 -21.85 -28.75 -22.55 -28.5 -23.65 L-25.7 -37.0 Q-26.75 -18.9 -20.75 -18.9 L-19.3 -19.2 Q-17.65 -19.75 -16.8 -20.9 -16.35 -18.0 -15.85 -17.75 -14.15 -17.6 -11.6 -16.6 -19.35 -16.6 -27.75 -18.75 -34.6 -20.45 -36.35 -21.8 -33.85 -36.85 -30.05 -54.8 -22.55 -90.6 -15.85 -107.3 M-8.1 -95.4 L-8.4 -95.4 Q-9.1 -95.35 -9.6 -94.85 -10.15 -94.3 -10.15 -93.5 -10.15 -92.7 -9.6 -92.15 -9.05 -91.6 -8.25 -91.6 -7.45 -91.6 -6.9 -92.15 -6.35 -92.7 -6.35 -93.5 -6.35 -94.3 -6.9 -94.85 -7.4 -95.35 -8.1 -95.4 M-10.35 -72.35 L-10.65 -72.35 Q-11.35 -72.3 -11.85 -71.8 -12.4 -71.25 -12.4 -70.45 -12.4 -69.65 -11.85 -69.1 -11.3 -68.55 -10.5 -68.55 -9.7 -68.55 -9.15 -69.1 L-8.9 -69.35 Q-8.6 -69.85 -8.6 -70.45 L-8.7 -71.15 -9.15 -71.8 Q-9.65 -72.3 -10.35 -72.35 M-11.1 -49.3 L-11.4 -49.3 Q-12.1 -49.25 -12.6 -48.75 -13.15 -48.2 -13.15 -47.4 -13.15 -46.6 -12.6 -46.05 -12.05 -45.5 -11.25 -45.5 -10.5 -45.5 -9.95 -46.0 L-9.9 -46.05 Q-9.35 -46.6 -9.35 -47.4 -9.35 -48.15 -9.85 -48.7 L-9.9 -48.75 Q-10.4 -49.25 -11.1 -49.3 M-11.1 -26.2 L-11.4 -26.2 Q-12.1 -26.15 -12.6 -25.65 -13.15 -25.1 -13.15 -24.3 -13.15 -23.5 -12.6 -22.95 -12.05 -22.4 -11.25 -22.4 -10.45 -22.4 -9.9 -22.95 -9.35 -23.5 -9.35 -24.3 -9.35 -25.1 -9.9 -25.65 -10.4 -26.15 -11.1 -26.2 M-14.1 -23.8 L-14.15 -24.3 Q-14.15 -25.5 -13.3 -26.35 -12.45 -27.2 -11.25 -27.2 -10.05 -27.2 -9.2 -26.35 -8.35 -25.5 -8.35 -24.3 L-8.4 -23.8 Q-8.55 -22.9 -9.2 -22.25 -10.05 -21.4 -11.25 -21.4 -12.45 -21.4 -13.3 -22.25 -13.95 -22.9 -14.1 -23.8" fill="#919191" fill-rule="evenodd" stroke="none"/>
    <path d="M-4.7 -16.35 L-5.3 -41.9 Q-5.3 -53.45 -4.2 -67.25 -3.45 -77.2 -1.7 -92.4 L-0.45 -100.2 2.45 -117.3 2.6 -117.8 2.75 -119.1 Q2.75 -120.2 2.15 -121.0 1.5 -121.85 0.3 -122.05 L-2.3 -122.15 Q-3.75 -122.1 -6.2 -124.35 L-7.9 -125.95 -4.0 -129.6 Q-1.95 -131.2 0.45 -131.2 4.65 -131.2 6.55 -129.8 10.2 -127.0 11.25 -118.05 11.35 -117.15 13.0 -109.3 14.45 -102.55 14.45 -99.85 L12.45 -90.1 12.35 -92.85 11.9 -93.55 11.4 -93.4 Q11.45 -88.4 12.25 -88.65 L12.25 -86.75 Q13.3 -87.45 15.8 -91.3 L16.25 -89.35 16.45 -89.1 Q16.65 -86.15 17.95 -77.8 19.1 -70.2 19.1 -68.6 19.1 -67.4 17.7 -64.25 16.25 -61.1 16.25 -58.15 16.25 -57.5 16.45 -57.45 L17.25 -57.5 19.1 -58.75 20.0 -59.8 Q22.25 -61.7 22.25 -58.95 L20.55 -51.45 20.75 -50.35 Q21.5 -48.85 22.5 -48.85 L24.0 -49.0 25.1 -48.95 25.25 -47.7 24.85 -45.7 Q24.3 -43.75 23.85 -40.4 23.75 -39.35 22.35 -35.55 21.0 -31.9 21.0 -31.25 L21.5 -31.05 22.25 -31.0 Q23.45 -31.0 26.0 -33.55 L27.7 -26.9 27.9 -23.85 Q27.9 -22.25 26.85 -20.9 25.9 -19.7 24.3 -19.0 L21.6 -18.25 20.05 -17.95 19.35 -21.45 Q19.2 -22.1 18.55 -22.1 L18.05 -22.2 18.2 -21.4 Q18.15 -20.65 18.65 -19.5 19.15 -18.35 19.05 -17.8 10.05 -16.1 -4.7 -16.35 M11.65 -77.6 L10.15 -74.1 Q8.45 -70.05 8.0 -70.05 L7.35 -70.15 7.45 -70.25 7.25 -70.6 7.15 -71.5 Q7.15 -72.4 11.0 -95.5 L7.85 -93.75 Q5.5 -92.4 5.0 -92.4 4.35 -92.4 4.2 -92.7 L4.15 -93.45 Q5.95 -98.0 7.1 -103.7 8.15 -109.0 8.15 -112.8 8.15 -119.75 5.15 -124.15 2.35 -128.3 -1.8 -128.3 -2.6 -128.3 -3.85 -127.3 -4.85 -126.55 -4.5 -124.15 0.45 -123.4 2.05 -122.65 3.95 -121.7 3.95 -119.25 L3.8 -117.8 1.45 -104.7 Q-1.65 -91.8 -3.15 -66.75 -4.0 -51.9 -4.0 -42.5 L-3.45 -17.25 7.5 -18.6 Q11.5 -19.05 12.9 -19.55 14.6 -20.2 16.3 -22.05 L21.0 -28.0 20.95 -27.95 Q19.5 -27.2 18.05 -27.0 L17.35 -29.95 17.0 -30.05 Q16.7 -29.85 16.85 -29.35 L17.05 -26.9 Q15.85 -27.05 14.9 -27.8 15.1 -28.75 17.1 -33.0 19.3 -37.7 20.25 -40.55 L16.55 -39.2 14.1 -38.15 Q13.45 -38.15 13.3 -38.45 L13.15 -39.05 14.4 -43.25 Q14.65 -41.15 15.05 -40.85 15.35 -41.5 15.65 -41.0 L15.15 -45.45 16.9 -51.0 14.7 -49.3 14.3 -53.55 13.75 -53.85 13.3 -53.65 13.7 -49.05 14.05 -48.8 Q11.75 -47.25 11.25 -47.25 L10.65 -47.3 10.75 -47.4 12.75 -59.2 12.9 -57.05 12.85 -56.9 13.55 -56.8 Q14.55 -56.8 13.9 -56.95 13.6 -61.5 13.2 -61.8 14.5 -67.65 14.5 -75.35 14.5 -78.0 13.75 -82.25 L13.6 -81.85 11.8 -77.85 11.75 -77.85 11.65 -77.6 M11.5 -104.65 L12.1 -104.5 12.5 -104.65 12.6 -109.15 12.5 -109.65 12.1 -109.5 Q11.75 -109.4 11.65 -108.65 L11.5 -104.65 M11.4 -96.7 L12.0 -96.55 12.4 -96.7 12.45 -101.15 12.35 -101.65 11.95 -101.5 Q11.6 -101.4 11.5 -100.65 L11.4 -96.7 M11.6 -80.8 L12.2 -80.65 12.6 -80.8 12.35 -85.45 Q11.75 -86.05 11.55 -85.75 11.2 -85.3 11.6 -80.8 M-7.1 -116.05 L-6.95 -115.5 -6.3 -114.5 Q-5.45 -113.65 -4.25 -113.65 -3.45 -113.65 -2.75 -114.05 L-2.2 -114.5 Q-1.55 -115.15 -1.4 -116.05 L-1.35 -115.55 -1.35 -115.45 -1.35 -114.75 Q-1.4 -113.6 -2.2 -112.8 L-2.95 -112.25 Q-3.55 -111.95 -4.25 -111.95 -5.45 -111.95 -6.3 -112.8 -7.1 -113.6 -7.15 -114.75 L-7.15 -115.15 -7.15 -115.45 -7.15 -115.55 -7.1 -116.05 M-5.4 -93.0 L-5.35 -92.5 -5.35 -92.4 -5.35 -91.7 Q-5.4 -90.55 -6.2 -89.75 L-6.35 -89.6 Q-7.15 -88.9 -8.25 -88.9 -9.45 -88.9 -10.3 -89.75 -11.1 -90.55 -11.15 -91.7 L-11.15 -92.4 -11.15 -92.5 -11.1 -93.0 Q-10.95 -92.1 -10.3 -91.45 -9.45 -90.6 -8.25 -90.6 -7.05 -90.6 -6.2 -91.45 L-6.1 -91.55 Q-5.55 -92.2 -5.4 -93.0 M-7.65 -69.95 L-7.6 -69.45 -7.6 -69.35 -7.6 -68.65 Q-7.65 -67.5 -8.45 -66.7 L-9.25 -66.1 -10.5 -65.85 Q-11.7 -65.85 -12.55 -66.7 -13.35 -67.5 -13.4 -68.65 L-13.4 -69.35 -13.4 -69.45 -13.35 -69.95 Q-13.2 -69.05 -12.55 -68.4 -11.7 -67.55 -10.5 -67.55 -9.7 -67.55 -9.05 -67.9 L-8.45 -68.4 Q-7.8 -69.05 -7.65 -69.95 M-8.4 -46.9 L-8.35 -46.4 -8.35 -46.3 -8.35 -45.6 Q-8.4 -44.45 -9.2 -43.65 L-10.05 -43.05 -11.25 -42.8 Q-12.45 -42.8 -13.3 -43.65 -13.85 -44.2 -14.05 -44.9 L-14.15 -45.6 -14.15 -46.3 -14.15 -46.4 -14.1 -46.9 -14.1 -46.85 Q-13.95 -46.0 -13.3 -45.35 -12.45 -44.5 -11.25 -44.5 L-10.0 -44.75 -9.2 -45.35 Q-8.55 -46.0 -8.4 -46.9 M-7.6 -18.8 L-7.45 -16.4 -11.6 -16.6 Q-14.15 -17.6 -15.85 -17.75 -16.35 -18.0 -16.8 -20.9 -17.65 -19.75 -19.3 -19.2 L-20.75 -18.9 Q-26.75 -18.9 -25.7 -37.0 L-28.5 -23.65 Q-28.75 -22.55 -29.5 -21.85 -30.1 -23.2 -30.1 -25.75 L-27.8 -46.65 -24.75 -71.0 -20.25 -89.6 -15.85 -107.3 -14.45 -112.15 Q-13.35 -115.95 -10.5 -121.8 L-8.55 -120.9 Q-9.25 -115.5 -12.5 -104.55 -15.85 -93.15 -16.9 -86.3 -20.65 -61.6 -21.3 -54.3 -22.05 -45.85 -22.05 -26.5 -22.05 -23.65 -21.2 -22.95 L-19.0 -21.5 Q-18.7 -22.9 -18.25 -30.3 L-17.2 -46.2 Q-17.0 -46.2 -17.0 -47.25 -16.5 -46.3 -16.5 -40.75 -16.95 -27.9 -16.3 -24.75 -15.4 -20.55 -15.4 -19.85 -9.1 -18.65 -7.6 -18.8 M-14.1 -23.8 Q-13.95 -22.9 -13.3 -22.25 -12.45 -21.4 -11.25 -21.4 -10.05 -21.4 -9.2 -22.25 -8.55 -22.9 -8.4 -23.8 L-8.35 -23.3 -8.35 -23.2 -8.35 -22.5 Q-8.4 -21.35 -9.2 -20.55 -10.05 -19.7 -11.25 -19.7 -12.45 -19.7 -13.3 -20.55 -14.1 -21.35 -14.15 -22.5 L-14.15 -23.2 -14.15 -23.3 -14.1 -23.8" fill="#c6c6c6" fill-rule="evenodd" stroke="none"/>
    <path d="M-10.75 -123.4 Q-4.95 -120.65 -0.75 -120.5 L0.85 -120.35 Q1.25 -120.2 1.25 -119.2 L1.0 -117.65 Q-1.6 -105.15 -3.2 -92.65 -6.8 -63.95 -6.8 -42.0 -6.7 -29.2 -6.2 -16.4 L-7.45 -16.4 -7.6 -18.8 -8.0 -37.6 Q-8.0 -62.0 -5.75 -81.4 L-0.05 -119.4 Q-5.5 -119.85 -8.55 -120.9 L-10.5 -121.8 -10.55 -121.85 -10.75 -123.4 M3.05 -99.25 L2.75 -99.0 2.3 -99.2 Q1.85 -99.5 1.85 -100.15 1.85 -101.25 3.45 -104.3 L4.1 -105.1 Q4.35 -104.05 4.2 -102.5 4.0 -100.35 3.05 -99.25 M3.15 -70.25 L3.85 -69.35 Q3.2 -66.9 1.9 -64.15 0.6 -61.4 -0.25 -60.75 L-1.1 -61.7 -1.25 -63.0 -1.65 -67.45 Q-1.65 -70.25 -0.95 -72.85 -0.1 -76.05 0.25 -81.4 0.45 -84.65 2.65 -87.3 4.65 -89.65 6.4 -89.65 L7.0 -89.6 7.2 -89.35 Q6.45 -81.95 3.15 -70.25 M6.0 -39.05 L11.6 -43.0 12.3 -43.0 Q12.6 -42.95 12.6 -42.35 12.6 -41.2 7.5 -33.35 1.95 -24.85 -0.75 -23.75 -2.0 -25.05 -2.0 -28.85 L-1.75 -32.0 -1.55 -39.05 Q-1.2 -46.65 -0.3 -49.3 2.0 -56.15 6.45 -62.6 8.75 -66.0 10.25 -66.55 10.9 -65.5 10.55 -62.25 9.9 -55.75 6.0 -39.05 M5.1 -20.5 Q4.75 -20.5 4.35 -21.05 3.85 -21.7 3.85 -22.55 L6.45 -27.65 Q9.6 -32.75 12.5 -33.2 13.95 -31.2 10.5 -25.8 7.1 -20.5 5.1 -20.5 M-2.95 -112.25 L-5.6 -94.75 -6.2 -95.55 Q-7.05 -96.4 -8.25 -96.4 -9.45 -96.4 -10.3 -95.55 -11.15 -94.7 -11.15 -93.5 L-11.1 -93.0 -11.15 -92.5 -11.15 -92.4 -11.15 -91.7 Q-11.1 -90.55 -10.3 -89.75 -9.45 -88.9 -8.25 -88.9 -7.15 -88.9 -6.35 -89.6 L-8.55 -72.6 Q-9.4 -73.35 -10.5 -73.35 -11.7 -73.35 -12.55 -72.5 -13.4 -71.65 -13.4 -70.45 L-13.35 -69.95 -13.4 -69.45 -13.4 -69.35 -13.4 -68.65 Q-13.35 -67.5 -12.55 -66.7 -11.7 -65.85 -10.5 -65.85 L-9.25 -66.1 -9.5 -62.85 -9.8 -49.95 -11.25 -50.3 Q-12.45 -50.3 -13.3 -49.45 -13.95 -48.8 -14.1 -47.95 L-14.1 -48.2 Q-14.15 -55.35 -13.65 -65.65 L-13.75 -66.75 -14.5 -64.3 -15.4 -61.5 -16.5 -63.15 -15.65 -70.75 Q-14.3 -80.95 -13.0 -93.0 -11.75 -104.7 -8.95 -111.55 L-7.15 -115.15 -7.15 -114.75 Q-7.1 -113.6 -6.3 -112.8 -5.45 -111.95 -4.25 -111.95 -3.55 -111.95 -2.95 -112.25 M-10.05 -43.05 L-10.55 -31.4 -11.35 -31.25 Q-13.7 -34.25 -14.05 -44.9 -13.85 -44.2 -13.3 -43.65 -12.45 -42.8 -11.25 -42.8 L-10.05 -43.05 M-4.05 -118.45 Q-3.4 -118.4 -2.9 -117.9 -2.35 -117.35 -2.35 -116.55 -2.35 -115.8 -2.85 -115.25 L-2.9 -115.2 Q-3.45 -114.65 -4.25 -114.65 -5.05 -114.65 -5.6 -115.2 -6.15 -115.75 -6.15 -116.55 L-6.15 -116.6 Q-6.15 -117.35 -5.6 -117.9 -5.1 -118.4 -4.4 -118.45 L-4.05 -118.45 M-8.1 -95.4 Q-7.4 -95.35 -6.9 -94.85 -6.35 -94.3 -6.35 -93.5 -6.35 -92.7 -6.9 -92.15 -7.45 -91.6 -8.25 -91.6 -9.05 -91.6 -9.6 -92.15 -10.15 -92.7 -10.15 -93.5 -10.15 -94.3 -9.6 -94.85 -9.1 -95.35 -8.4 -95.4 L-8.1 -95.4 M-10.35 -72.35 Q-9.65 -72.3 -9.15 -71.8 L-8.7 -71.15 -8.6 -70.45 Q-8.6 -69.85 -8.9 -69.35 L-9.15 -69.1 Q-9.7 -68.55 -10.5 -68.55 -11.3 -68.55 -11.85 -69.1 -12.4 -69.65 -12.4 -70.45 -12.4 -71.25 -11.85 -71.8 -11.35 -72.3 -10.65 -72.35 L-10.35 -72.35 M-11.1 -49.3 Q-10.4 -49.25 -9.9 -48.75 L-9.85 -48.7 Q-9.35 -48.15 -9.35 -47.4 -9.35 -46.6 -9.9 -46.05 L-9.95 -46.0 Q-10.5 -45.5 -11.25 -45.5 -12.05 -45.5 -12.6 -46.05 -13.15 -46.6 -13.15 -47.4 -13.15 -48.2 -12.6 -48.75 -12.1 -49.25 -11.4 -49.3 L-11.1 -49.3 M-11.1 -26.2 Q-10.4 -26.15 -9.9 -25.65 -9.35 -25.1 -9.35 -24.3 -9.35 -23.5 -9.9 -22.95 -10.45 -22.4 -11.25 -22.4 -12.05 -22.4 -12.6 -22.95 -13.15 -23.5 -13.15 -24.3 -13.15 -25.1 -12.6 -25.65 -12.1 -26.15 -11.4 -26.2 L-11.1 -26.2" fill="#f8f8f8" fill-rule="evenodd" stroke="none"/>
    <path d="M-10.45 -126.1 Q-9.55 -125.95 -9.0 -125.6 L-5.4 -122.8 -6.85 -123.25 Q-9.35 -124.2 -9.8 -124.65 L-10.5 -124.7 -11.1 -124.45 -11.0 -123.8 -10.75 -123.4 -10.55 -121.85 -11.8 -122.65 -12.25 -123.1 -12.4 -124.0 Q-12.4 -124.65 -11.85 -125.15 L-10.45 -126.1" fill="#565351" fill-rule="evenodd" stroke="none"/>
    <path d="M11.85 -13.5 L17.3 -14.1 17.7 -9.4 12.5 -8.8 12.5 -13.55 11.85 -13.5 M21.25 -14.65 L23.55 -15.05 24.1 -15.15 24.1 -10.45 21.3 -9.95 21.25 -14.65 M-29.7 -15.6 L-23.3 -14.4 Q-23.8 -12.65 -23.95 -9.75 L-29.55 -10.85 -30.15 -11.0 -30.2 -11.2 -29.7 -15.6 M-22.2 -14.25 L-2.2 -12.9 10.5 -13.4 10.5 -8.65 5.7 -8.4 -2.95 -8.25 -22.0 -9.45 -22.2 -14.25 M-29.3 -3.55 L-29.25 -1.9 Q-29.25 -1.4 -32.6 11.0 -36.05 23.65 -36.65 25.15 L-37.6 25.05 -37.65 24.25 Q-37.65 22.55 -36.6 16.95 L-35.5 10.95 Q-34.5 -0.25 -33.7 -2.25 L-33.15 -1.9 -32.75 -1.15 -31.2 -2.55 Q-30.3 -3.35 -29.3 -3.55 M-17.05 7.55 L-16.15 19.35 Q-15.65 18.5 -13.75 12.25 -11.7 5.35 -9.25 0.25 -8.5 0.8 -8.5 1.95 -8.5 3.9 -9.9 10.75 L-11.75 19.75 Q-13.45 29.55 -13.95 30.95 -15.55 35.65 -19.6 35.65 -21.7 35.65 -22.45 35.0 -22.9 34.65 -22.9 33.85 L-22.2 28.1 Q-21.4 21.65 -21.1 12.8 -20.55 -1.9 -20.25 -2.8 L-19.45 -3.25 Q-18.6 -3.25 -17.8 -4.25 -17.55 -3.7 -17.15 -3.85 L-16.75 -3.6 Q-16.55 -2.7 -17.05 7.55 M6.65 18.5 L6.75 12.35 Q7.05 6.35 8.95 0.3 L9.25 -0.4 Q10.0 0.9 10.05 3.15 L10.0 8.1 Q10.0 12.25 11.8 22.4 L13.6 33.3 Q13.6 34.9 12.4 35.7 11.55 36.25 10.5 36.25 6.75 36.25 3.85 26.4 0.75 16.1 0.15 0.0 0.2 -1.05 0.6 -1.45 2.2 0.0 4.25 8.25 L6.65 18.5" fill="#cb0909" fill-rule="evenodd" stroke="none"/>
    <path d="M10.5 -13.4 L11.75 -13.5 11.85 -13.5 12.5 -13.55 12.5 -8.8 10.5 -8.65 10.5 -13.4 M17.3 -14.1 L21.25 -14.65 21.3 -9.95 17.7 -9.4 17.3 -14.1 M23.55 -15.05 L24.4 -15.25 Q27.1 -15.85 30.9 -17.2 34.8 -18.6 36.0 -19.5 36.65 -13.65 32.05 -12.3 26.25 -11.65 24.1 -10.45 L24.1 -15.15 23.55 -15.05 M-30.15 -15.7 L-29.7 -15.6 -30.2 -11.2 -30.15 -11.0 -29.55 -10.85 Q-32.85 -11.55 -35.95 -12.75 L-38.95 -14.55 Q-40.1 -15.8 -39.65 -19.5 -38.85 -18.9 -36.65 -17.9 -33.45 -16.4 -30.15 -15.7 M-23.3 -14.4 L-22.2 -14.25 -22.0 -9.45 -23.95 -9.75 Q-23.8 -12.65 -23.3 -14.4 M-24.55 1.05 L-23.0 -6.05 -13.5 -4.8 4.35 -4.55 8.6 -4.85 12.95 -5.35 13.0 -1.65 12.9 2.45 Q12.9 8.6 14.6 21.55 15.05 24.8 16.2 29.3 L17.65 34.75 Q13.5 38.15 8.8 38.15 5.25 38.15 3.35 35.85 1.9 34.05 0.85 29.9 -0.2 24.65 -1.0 21.7 -2.4 16.45 -4.6 12.65 -6.6 15.9 -7.75 21.05 L-9.3 29.5 Q-10.2 34.0 -11.7 36.05 -13.65 38.65 -17.4 38.65 -19.35 38.65 -22.9 37.55 -26.5 36.4 -28.05 35.25 L-24.55 1.05 M-37.3 -7.8 L-31.45 -6.9 -25.5 -6.25 Q-26.75 3.55 -28.5 10.1 -30.25 16.65 -34.95 28.7 -38.2 28.55 -40.55 27.8 -43.0 27.0 -43.0 26.0 L-42.3 22.3 -40.0 12.95 -38.8 4.3 -37.3 -7.8 M-29.3 -3.55 Q-30.3 -3.35 -31.2 -2.55 L-32.75 -1.15 -33.15 -1.9 -33.7 -2.25 Q-34.5 -0.25 -35.5 10.95 L-36.6 16.95 Q-37.65 22.55 -37.65 24.25 L-37.6 25.05 -36.65 25.15 Q-36.05 23.65 -32.6 11.0 -29.25 -1.4 -29.25 -1.9 L-29.3 -3.55 M-17.05 7.55 Q-16.55 -2.7 -16.75 -3.6 L-17.15 -3.85 Q-17.55 -3.7 -17.8 -4.25 -18.6 -3.25 -19.45 -3.25 L-20.25 -2.8 Q-20.55 -1.9 -21.1 12.8 -21.4 21.65 -22.2 28.1 L-22.9 33.85 Q-22.9 34.65 -22.45 35.0 -21.7 35.65 -19.6 35.65 -15.55 35.65 -13.95 30.95 -13.45 29.55 -11.75 19.75 L-9.9 10.75 Q-8.5 3.9 -8.5 1.95 -8.5 0.8 -9.25 0.25 -11.7 5.35 -13.75 12.25 -15.65 18.5 -16.15 19.35 L-17.05 7.55 M6.65 18.5 L4.25 8.25 Q2.2 0.0 0.6 -1.45 0.2 -1.05 0.15 0.0 0.75 16.1 3.85 26.4 6.75 36.25 10.5 36.25 11.55 36.25 12.4 35.7 13.6 34.9 13.6 33.3 L11.8 22.4 Q10.0 12.25 10.0 8.1 L10.05 3.15 Q10.0 0.9 9.25 -0.4 L8.95 0.3 Q7.05 6.35 6.75 12.35 L6.65 18.5" fill="#930000" fill-rule="evenodd" stroke="none"/>
    <path d="M11.85 -13.5 L11.75 -13.5 10.5 -13.4 -2.2 -12.9 -22.2 -14.25 -23.3 -14.4 -29.7 -15.6 -30.15 -15.7 -27.95 -17.2 Q-17.15 -14.85 -2.55 -14.85 L10.55 -15.35 22.5 -16.9 24.4 -15.25 23.55 -15.05 21.25 -14.65 17.3 -14.1 11.85 -13.5" fill="#ff4141" fill-rule="evenodd" stroke="none"/>
    <path d="M9.0 -7.05 L7.3 -6.95 -13.65 -7.0 Q-26.05 -7.75 -38.05 -12.15 L-35.95 -12.75 Q-32.85 -11.55 -29.55 -10.85 L-23.95 -9.75 -22.0 -9.45 -2.95 -8.25 5.7 -8.4 Q6.5 -8.4 9.3 -7.1 L9.0 -7.05" fill="#560303" fill-rule="evenodd" stroke="none"/>
    <path d="M32.0 -21.55 L32.6 -22.35 33.2 -23.3 32.75 -26.3 Q36.65 -24.5 36.85 -24.2 37.5 -23.4 37.5 -19.0 L37.45 -14.75 36.75 -13.95 35.65 -12.9 30.95 -10.7 29.5 -10.25 25.95 -9.35 24.5 -9.05 21.45 -8.45 13.75 -7.45 14.35 -5.95 14.55 1.25 Q14.75 9.55 15.2 15.55 L15.5 17.7 16.0 20.85 16.25 22.25 16.55 23.8 17.2 26.85 18.4 31.8 19.45 35.7 19.3 36.75 18.75 37.75 Q17.5 38.9 12.6 40.25 8.25 41.45 6.95 41.45 5.5 41.45 2.2 40.35 -1.15 39.25 -3.85 39.25 L-6.9 39.55 Q-9.8 39.9 -9.8 40.35 L-12.95 41.15 -16.85 41.95 -21.4 41.9 -26.55 41.1 Q-29.35 40.15 -29.8 36.85 L-29.35 33.85 -30.0 33.05 -40.7 32.55 Q-49.15 31.0 -49.15 26.7 L-47.6 20.6 Q-45.65 13.85 -44.6 8.75 -43.9 5.3 -42.95 -3.3 L-42.55 -8.65 Q-42.45 -10.3 -41.4 -12.0 -40.4 -13.65 -40.4 -13.95 L-40.75 -16.45 -41.15 -19.0 Q-41.15 -22.7 -40.35 -23.95 -39.85 -24.75 -37.25 -26.25 L-37.0 -22.95 -36.35 -21.8 Q-34.6 -20.45 -27.75 -18.75 -19.35 -16.6 -11.6 -16.6 L-7.45 -16.4 -6.2 -16.4 -4.7 -16.35 Q10.05 -16.1 19.05 -17.8 L20.05 -17.95 21.6 -18.25 24.3 -19.0 26.7 -19.75 Q31.5 -21.25 32.0 -21.55 M22.5 -16.9 L10.55 -15.35 -2.55 -14.85 Q-17.15 -14.85 -27.95 -17.2 -32.75 -17.9 -35.75 -20.0 -38.25 -21.7 -38.7 -23.6 L-39.35 -22.8 Q-39.65 -22.0 -39.65 -19.5 -40.1 -15.8 -38.95 -14.55 L-35.95 -12.75 -38.05 -12.15 -39.3 -12.95 Q-41.25 -11.5 -41.35 -8.9 -41.5 -2.2 -41.75 -0.4 L-43.55 11.5 Q-44.6 16.55 -47.55 26.6 -47.55 27.55 -46.45 28.7 -44.95 30.25 -42.4 30.7 L-35.95 31.3 -29.05 31.7 -24.05 -4.3 -24.55 1.05 -28.05 35.25 Q-28.3 38.05 -26.05 39.3 -23.95 40.5 -19.25 40.5 -14.75 40.5 -9.6 39.15 -4.5 37.75 -2.5 37.75 -0.45 37.75 2.6 38.95 L4.8 39.55 7.15 39.9 Q10.05 39.9 13.85 38.4 17.1 37.1 17.95 36.1 L17.65 34.75 16.2 29.3 Q15.05 24.8 14.6 21.55 12.9 8.6 12.9 2.45 L13.0 -1.65 12.95 -5.35 Q12.5 -6.55 10.7 -6.95 L9.0 -7.05 9.3 -7.1 Q6.5 -8.4 5.7 -8.4 L10.5 -8.65 12.5 -8.8 17.7 -9.4 21.3 -9.95 24.1 -10.45 Q26.25 -11.65 32.05 -12.3 36.65 -13.65 36.0 -19.5 36.3 -22.2 35.65 -23.1 34.8 -23.55 34.65 -23.95 35.95 -19.25 22.5 -16.9" fill="#3f0404" fill-rule="evenodd" stroke="none"/>
    <path d="M12.95 -5.35 L8.6 -4.85 4.35 -4.55 -13.5 -4.8 -23.0 -6.05 -24.55 1.05 -24.05 -4.3 -29.05 31.7 -35.95 31.3 -42.4 30.7 Q-44.95 30.25 -46.45 28.7 -47.55 27.55 -47.55 26.6 -44.6 16.55 -43.55 11.5 L-41.75 -0.4 Q-41.5 -2.2 -41.35 -8.9 -41.25 -11.5 -39.3 -12.95 L-38.05 -12.15 Q-26.05 -7.75 -13.65 -7.0 L7.3 -6.95 9.0 -7.05 10.7 -6.95 Q12.5 -6.55 12.95 -5.35 M-28.05 35.25 Q-26.5 36.4 -22.9 37.55 -19.35 38.65 -17.4 38.65 -13.65 38.65 -11.7 36.05 -10.2 34.0 -9.3 29.5 L-7.75 21.05 Q-6.6 15.9 -4.6 12.65 -2.4 16.45 -1.0 21.7 -0.2 24.65 0.85 29.9 1.9 34.05 3.35 35.85 5.25 38.15 8.8 38.15 13.5 38.15 17.65 34.75 L17.95 36.1 Q17.1 37.1 13.85 38.4 10.05 39.9 7.15 39.9 L4.8 39.55 2.6 38.95 Q-0.45 37.75 -2.5 37.75 -4.5 37.75 -9.6 39.15 -14.75 40.5 -19.25 40.5 -23.95 40.5 -26.05 39.3 -28.3 38.05 -28.05 35.25 M-37.3 -7.8 L-38.8 4.3 -40.0 12.95 -42.3 22.3 -43.0 26.0 Q-43.0 27.0 -40.55 27.8 -38.2 28.55 -34.95 28.7 -30.25 16.65 -28.5 10.1 -26.75 3.55 -25.5 -6.25 L-31.45 -6.9 -37.3 -7.8" fill="#720303" fill-rule="evenodd" stroke="none"/>
    <path d="M24.4 -15.25 L22.5 -16.9 Q35.95 -19.25 34.65 -23.95 34.8 -23.55 35.65 -23.1 36.3 -22.2 36.0 -19.5 34.8 -18.6 30.9 -17.2 27.1 -15.85 24.4 -15.25 M-27.95 -17.2 L-30.15 -15.7 Q-33.45 -16.4 -36.65 -17.9 -38.85 -18.9 -39.65 -19.5 -39.65 -22.0 -39.35 -22.8 L-38.7 -23.6 Q-38.25 -21.7 -35.75 -20.0 -32.75 -17.9 -27.95 -17.2" fill="#db0c0c" fill-rule="evenodd" stroke="none"/>
  </g>
</svg>
