<?xml version="1.0" encoding="UTF-8" standalone="no"?>
<svg xmlns:ffdec="https://www.free-decompiler.com/flash" xmlns:xlink="http://www.w3.org/1999/xlink" ffdec:objectType="shape" height="38.6px" width="43.55px" xmlns="http://www.w3.org/2000/svg">
  <g transform="matrix(1.0, 0.0, 0.0, 1.0, 22.05, 3.85)">
    <path d="M-5.3 -2.75 L-1.7 -3.6 0.0 -3.85 2.6 -3.4 5.1 -2.65 16.0 7.4 Q19.85 10.85 19.8 12.0 19.75 13.7 17.65 15.15 15.65 16.5 11.2 18.0 L11.15 18.0 0.85 19.0 -1.6 18.55 Q-3.65 17.85 -3.6 16.6 -3.45 12.75 -0.25 10.15 3.4 7.25 9.35 7.2 9.35 6.85 6.25 6.75 L-1.4 7.45 Q-2.85 7.85 -3.55 8.25 L-5.35 7.75 Q-6.5 7.25 -7.05 7.25 -8.7 7.2 -11.9 9.05 L-14.1 11.05 Q-15.95 12.55 -18.45 12.65 L-17.3 12.95 Q-16.35 13.2 -16.35 13.85 L-17.45 19.95 -16.95 18.75 Q-14.8 14.35 -13.7 12.8 -10.8 8.75 -7.15 8.9 -6.2 8.9 -5.55 10.3 -5.1 11.35 -5.15 12.45 -5.2 13.85 -6.6 16.05 L-8.7 19.65 -10.55 25.75 Q-11.3 27.85 -12.3 27.85 -15.6 27.7 -17.3 26.1 -20.7 23.15 -20.4 14.9 -20.35 13.45 -18.25 11.15 L-11.2 4.05 Q-6.1 -1.1 -5.3 -2.75 M17.65 12.0 Q17.7 10.4 10.85 4.3 3.95 -1.8 2.0 -1.85 1.4 -1.9 -0.05 0.45 -0.6 -1.35 -1.55 -1.4 L-4.5 0.7 -7.9 3.4 Q-6.95 4.3 -6.0 4.6 L-1.85 5.25 2.0 5.05 Q5.15 4.7 6.55 4.1 L13.8 8.45 12.6 8.1 Q7.0 6.45 2.05 9.15 -2.3 11.6 -2.4 14.6 -2.45 15.65 -1.7 16.05 -0.7 16.6 2.6 16.75 9.5 16.95 13.5 15.75 17.55 14.6 17.65 12.0 M5.9 20.6 L12.8 19.35 Q15.25 25.05 14.75 27.55 14.05 31.35 7.2 31.1 L3.75 30.95 3.6 23.65 4.0 20.6 5.9 20.6 M6.9 21.45 Q4.5 22.35 4.4 24.25 4.3 27.35 4.6 28.2 5.0 29.45 6.6 29.55 9.45 29.65 11.3 28.85 13.55 27.95 13.6 26.2 13.65 25.1 12.95 23.25 12.15 20.85 10.95 20.8 8.75 20.75 6.9 21.45 M1.55 31.65 Q0.55 33.35 -2.9 33.2 -6.25 33.1 -7.75 32.1 -9.5 31.0 -9.4 28.6 -9.25 23.75 -7.2 20.7 L-4.6 17.95 Q-2.7 19.45 0.35 20.85 2.55 22.25 2.4 25.7 2.25 30.4 1.55 31.65 M-13.2 13.2 L-14.15 15.25 -16.0 18.45 Q-17.55 21.2 -17.6 23.1 -17.65 23.75 -15.95 24.75 -14.1 25.75 -12.9 25.8 -6.2 14.1 -6.15 12.3 -6.1 11.3 -8.0 10.6 -10.0 9.9 -11.4 11.0 -12.5 11.85 -13.2 13.2 M0.4 29.4 Q0.8 28.55 0.95 24.55 1.0 23.3 -0.35 22.2 -1.75 21.1 -3.45 21.1 -7.9 21.05 -8.15 28.5 -8.2 29.5 -7.5 30.0 -6.4 30.9 -3.45 31.0 -0.45 31.1 0.4 29.4" fill="#de9954" fill-rule="evenodd" stroke="none"/>
    <path d="M15.25 11.95 Q15.3 10.85 14.2 9.9 12.5 8.5 8.6 8.35 5.3 8.25 2.55 10.25 0.4 11.8 -0.5 13.6 L-0.25 14.35 3.75 14.2 7.2 13.95 Q11.15 14.15 13.45 13.25 15.2 12.6 15.25 11.95 M17.65 12.0 Q17.55 14.6 13.5 15.75 9.5 16.95 2.6 16.75 -0.7 16.6 -1.7 16.05 -2.45 15.65 -2.4 14.6 -2.3 11.6 2.05 9.15 7.0 6.45 12.6 8.1 L13.8 8.45 6.55 4.1 Q5.15 4.7 2.0 5.05 L-1.85 5.25 -6.0 4.6 Q-6.95 4.3 -7.9 3.4 L-4.5 0.7 -1.55 -1.4 Q-0.6 -1.35 -0.05 0.45 1.4 -1.9 2.0 -1.85 3.95 -1.8 10.85 4.3 17.7 10.4 17.65 12.0 M6.9 21.45 Q8.75 20.75 10.95 20.8 12.15 20.85 12.95 23.25 13.65 25.1 13.6 26.2 13.55 27.95 11.3 28.85 9.45 29.65 6.6 29.55 5.0 29.45 4.6 28.2 4.3 27.35 4.4 24.25 4.5 22.35 6.9 21.45 M10.75 26.6 Q11.35 26.0 11.4 24.9 11.45 23.15 8.8 22.95 6.2 22.75 6.1 26.15 L6.35 26.45 7.75 27.3 Q9.85 27.7 10.75 26.6 M0.4 29.4 Q-0.45 31.1 -3.45 31.0 -6.4 30.9 -7.5 30.0 -8.2 29.5 -8.15 28.5 -7.9 21.05 -3.45 21.1 -1.75 21.1 -0.35 22.2 1.0 23.3 0.95 24.55 0.8 28.55 0.4 29.4 M-13.2 13.2 Q-12.5 11.85 -11.4 11.0 -10.0 9.9 -8.0 10.6 -6.1 11.3 -6.15 12.3 -6.2 14.1 -12.9 25.8 -14.1 25.75 -15.95 24.75 -17.65 23.75 -17.6 23.1 -17.55 21.2 -16.0 18.45 L-14.15 15.25 -13.2 13.2 M-3.1 28.8 Q-2.0 28.85 -1.2 28.2 -0.35 27.5 -0.3 26.5 -0.3 25.5 -1.05 24.75 -1.85 24.05 -2.95 24.0 -4.1 23.95 -4.95 24.65 -5.75 25.3 -5.75 26.3 -5.8 27.3 -5.1 28.1 -4.25 28.75 -3.1 28.8 M-10.3 14.5 Q-10.95 14.65 -12.85 17.15 -14.95 20.0 -15.0 21.65 L-14.95 22.35 -14.75 22.35 -14.0 22.35 Q-13.3 22.0 -11.45 18.95 -9.55 15.9 -9.55 15.35 -9.55 14.65 -9.8 14.5 L-10.3 14.5" fill="#eaa76a" fill-rule="evenodd" stroke="none"/>
    <path d="M15.25 11.95 Q15.2 12.6 13.45 13.25 11.15 14.15 7.2 13.95 L3.75 14.2 -0.25 14.35 -0.5 13.6 Q0.4 11.8 2.55 10.25 5.3 8.25 8.6 8.35 12.5 8.5 14.2 9.9 15.3 10.85 15.25 11.95 M10.75 26.6 Q9.85 27.7 7.75 27.3 L6.35 26.45 6.1 26.15 Q6.2 22.75 8.8 22.95 11.45 23.15 11.4 24.9 11.35 26.0 10.75 26.6 M-10.3 14.5 L-9.8 14.5 Q-9.55 14.65 -9.55 15.35 -9.55 15.9 -11.45 18.95 -13.3 22.0 -14.0 22.35 L-14.75 22.35 -14.95 22.35 -15.0 21.65 Q-14.95 20.0 -12.85 17.15 -10.95 14.65 -10.3 14.5 M-3.1 28.8 Q-4.25 28.75 -5.1 28.1 -5.8 27.3 -5.75 26.3 -5.75 25.3 -4.95 24.65 -4.1 23.95 -2.95 24.0 -1.85 24.05 -1.05 24.75 -0.3 25.5 -0.3 26.5 -0.35 27.5 -1.2 28.2 -2.0 28.85 -3.1 28.8" fill="#ecb17d" fill-rule="evenodd" stroke="none"/>
    <path d="M-5.3 -2.75 Q-6.1 -1.1 -11.2 4.05 L-18.25 11.15 Q-20.35 13.45 -20.4 14.9 -20.7 23.15 -17.3 26.1 -15.6 27.7 -12.3 27.85 -11.3 27.85 -10.55 25.75 L-8.7 19.65 -6.6 16.05 Q-5.2 13.85 -5.15 12.45 -5.1 11.35 -5.55 10.3 -6.2 8.9 -7.15 8.9 -10.8 8.75 -13.7 12.8 -14.8 14.35 -16.95 18.75 L-17.45 19.95 -16.35 13.85 Q-16.35 13.2 -17.3 12.95 L-18.45 12.65 Q-15.95 12.55 -14.1 11.05 L-11.9 9.05 Q-8.7 7.2 -7.05 7.25 -6.5 7.25 -5.35 7.75 L-3.55 8.25 Q-2.85 7.85 -1.4 7.45 L6.25 6.75 Q9.35 6.85 9.35 7.2 3.4 7.25 -0.25 10.15 -3.45 12.75 -3.6 16.6 -3.65 17.85 -1.6 18.55 L0.85 19.0 11.15 18.0 11.2 18.0 Q15.65 16.5 17.65 15.15 19.75 13.7 19.8 12.0 19.85 10.85 16.0 7.4 L5.1 -2.65 Q9.1 0.1 14.95 4.95 21.55 10.55 21.5 11.75 21.45 13.9 19.9 15.75 18.0 18.1 14.45 18.85 L16.4 24.35 Q17.0 25.85 17.0 26.7 16.8 32.65 6.4 32.3 L2.75 31.75 1.0 33.55 Q-0.2 34.25 -4.15 34.75 -7.5 34.65 -9.1 33.35 -10.7 32.05 -11.05 29.2 -15.1 30.25 -19.75 26.65 -20.8 25.8 -21.5 22.45 -22.15 19.2 -22.0 15.35 -21.9 12.4 -16.1 6.35 -10.8 0.8 -5.3 -2.75 M5.9 20.6 L4.0 20.6 3.6 23.65 3.75 30.95 7.2 31.1 Q14.05 31.35 14.75 27.55 15.25 25.05 12.8 19.35 L5.9 20.6 M1.55 31.65 Q2.25 30.4 2.4 25.7 2.55 22.25 0.35 20.85 -2.7 19.45 -4.6 17.95 L-7.2 20.7 Q-9.25 23.75 -9.4 28.6 -9.5 31.0 -7.75 32.1 -6.25 33.1 -2.9 33.2 0.55 33.35 1.55 31.65" fill="#9d632f" fill-rule="evenodd" stroke="none"/>
  </g>
</svg>
