<?xml version="1.0" encoding="UTF-8" standalone="no"?>
<svg xmlns:ffdec="https://www.free-decompiler.com/flash" xmlns:xlink="http://www.w3.org/1999/xlink" ffdec:objectType="shape" height="553.2px" width="449.55px" xmlns="http://www.w3.org/2000/svg">
  <g transform="matrix(1.0, 0.0, 0.0, 1.0, -330.95, 72.05)">
    <path d="M657.95 -72.05 L780.5 128.0 780.5 481.15 602.95 436.55 453.75 439.3 539.65 352.2 455.8 346.6 563.6 288.9 459.05 262.15 576.0 232.2 381.15 162.3 569.35 159.05 330.95 83.6 556.45 123.1 422.25 65.35 556.45 83.6 487.05 -4.9 657.95 -72.05" fill="#e5e5e5" fill-rule="evenodd" stroke="none"/>
    <path d="M533.75 58.25 Q546.3 58.25 549.85 63.1 554.55 69.55 541.9 83.9 549.55 83.9 557.45 88.75 568.75 95.7 568.75 108.75 568.75 115.95 564.05 123.6 560.2 129.85 558.1 130.5 L563.6 129.5 Q567.05 129.5 568.55 131.1 569.4 132.1 570.95 136.0 L580.4 182.35 580.75 185.15 Q580.75 188.45 577.65 190.6 573.3 193.65 563.65 193.65 557.3 193.65 555.65 180.7 553.1 190.5 547.3 190.5 545.15 190.5 543.55 189.2 L538.0 184.25 539.6 192.7 Q541.7 191.5 543.35 191.5 556.55 191.5 560.4 194.6 561.7 195.65 562.1 197.2 L562.45 199.35 574.25 245.95 574.5 247.7 Q574.8 250.35 573.2 252.35 571.75 254.15 569.4 254.7 L561.35 256.7 Q559.7 257.2 559.35 258.05 L557.9 261.55 Q556.05 265.0 551.55 269.95 558.25 270.8 563.65 276.0 569.55 281.75 569.55 289.3 569.55 297.45 563.6 303.95 557.8 310.3 548.65 312.6 L574.05 353.85 Q575.2 355.9 575.55 357.2 L575.7 359.0 Q575.7 360.65 574.5 362.0 572.15 364.55 564.4 369.1 565.35 369.35 563.1 370.05 L559.85 370.7 Q557.95 370.7 555.85 369.25 553.75 367.8 553.65 366.35 L547.5 356.45 546.05 357.35 Q553.15 368.85 553.45 369.8 L553.8 372.1 Q553.8 374.5 552.0 376.15 L542.5 382.55 Q545.8 383.55 537.95 384.15 536.05 384.15 533.95 382.7 531.85 381.25 531.75 379.8 L507.0 339.55 Q505.45 336.3 505.45 334.85 505.45 333.1 506.8 331.15 508.05 329.35 509.45 328.65 515.2 325.75 518.95 323.5 519.8 323.0 521.2 323.0 523.35 323.0 524.95 324.45 L527.4 327.0 533.55 337.0 535.0 336.05 528.1 323.95 Q527.45 322.85 527.45 321.5 527.45 319.2 529.05 317.6 L535.35 312.8 Q532.55 312.4 530.2 311.35 525.55 309.3 525.55 305.75 L525.65 304.65 525.75 304.3 533.45 293.2 Q529.35 292.45 525.2 289.9 L521.8 287.45 Q520.75 287.45 518.35 283.3 515.55 278.45 515.55 273.9 515.55 262.6 525.2 255.55 533.35 249.6 542.75 249.6 L545.7 249.45 Q547.85 249.45 547.85 250.05 547.85 250.6 548.75 250.55 L550.8 250.6 550.2 248.3 535.0 246.15 Q532.85 252.95 527.2 252.95 523.55 252.0 522.65 251.5 515.35 247.3 513.6 245.75 511.55 243.9 511.55 241.1 L511.95 238.85 512.55 237.0 534.55 199.8 525.1 201.75 522.55 202.05 Q520.5 202.05 518.3 200.15 515.9 198.1 515.85 195.55 L506.4 149.2 Q506.15 148.4 506.15 147.4 506.15 143.05 508.85 141.5 511.45 140.0 522.1 137.95 520.5 137.95 518.3 136.25 515.8 134.3 515.8 132.05 515.8 130.7 517.0 128.6 L525.5 114.05 Q516.45 114.45 508.2 108.05 498.75 100.7 498.75 89.3 498.75 77.25 508.95 67.85 519.45 58.25 533.75 58.25 M546.8 66.45 Q545.65 64.9 542.25 63.9 538.6 62.8 533.85 62.8 521.05 62.8 511.95 71.2 503.35 79.15 503.35 89.15 503.35 98.6 510.9 104.35 517.8 109.6 527.85 109.6 L534.65 108.55 539.6 107.5 541.7 108.0 Q543.15 108.7 543.15 110.1 543.15 111.65 542.4 112.6 541.4 113.8 538.8 114.65 536.2 115.5 533.45 115.25 L530.5 115.35 Q529.95 115.6 528.6 117.85 L520.9 130.9 520.8 130.95 520.7 131.75 522.85 133.5 Q526.35 135.1 533.65 135.1 546.45 135.1 555.55 126.75 564.2 118.85 564.2 108.8 564.2 100.2 557.65 94.4 550.95 88.45 540.6 88.45 537.35 88.45 532.7 89.5 L527.85 90.55 Q526.2 90.55 525.15 89.65 524.3 88.9 524.3 88.05 524.3 86.4 525.25 85.25 526.6 83.55 529.65 83.1 L534.25 82.8 536.65 82.8 Q541.5 80.15 543.1 75.95 L544.5 71.75 Q545.5 68.85 546.8 66.45 M528.6 87.05 Q528.05 88.3 527.85 89.2 L527.9 89.25 Q528.45 88.9 528.6 87.05 M547.55 136.6 L539.95 138.9 533.7 139.65 526.75 139.15 540.85 153.35 547.55 136.6 M480.25 178.55 L482.95 177.9 492.95 174.4 494.6 173.65 495.65 172.25 496.1 170.75 495.95 169.4 474.25 107.05 Q473.25 104.95 471.95 104.1 L454.2 102.75 Q451.8 104.0 450.6 105.75 L422.0 165.2 421.7 166.9 422.25 168.3 422.9 169.6 424.35 170.55 434.2 175.2 Q436.3 176.1 437.1 176.1 438.3 176.1 439.15 175.05 440.65 173.2 444.35 165.85 L473.65 167.55 Q476.85 175.65 477.85 177.2 478.65 178.55 480.25 178.55 M563.75 134.15 L554.5 135.85 553.05 136.45 552.1 137.4 542.55 161.35 523.85 142.85 523.25 142.6 522.4 142.5 Q514.75 142.5 512.05 144.8 511.15 145.55 510.9 146.4 L510.8 147.2 510.85 148.3 520.3 194.6 521.2 196.55 Q521.85 197.45 523.1 197.45 530.0 197.45 533.1 195.55 535.05 194.3 535.05 192.85 L534.45 189.25 530.55 170.45 545.4 185.25 546.1 185.6 547.05 185.75 548.0 185.65 548.45 185.3 Q548.8 185.05 549.95 182.35 L557.1 165.05 Q559.6 177.45 560.95 186.35 561.4 188.35 562.05 188.8 L564.25 189.05 565.35 188.9 574.2 187.1 Q576.1 185.85 576.1 184.45 L575.95 183.25 566.5 136.9 565.75 135.1 Q565.05 134.15 563.75 134.15 M494.45 178.7 L482.1 182.6 476.45 182.9 Q475.05 182.25 473.8 179.35 L470.4 171.9 447.15 170.55 Q444.8 176.55 442.3 178.9 440.3 180.8 437.6 180.8 L434.9 180.35 Q429.45 177.65 422.35 174.65 419.85 173.6 418.3 170.9 417.1 168.8 417.1 167.2 417.1 165.9 417.9 163.25 L446.5 103.8 Q447.65 100.55 450.3 99.15 452.05 98.2 454.2 98.2 L471.7 99.25 Q472.9 99.45 474.9 100.4 475.95 100.9 477.3 103.1 L478.55 105.55 500.25 167.9 Q500.8 170.1 500.8 171.2 500.8 173.75 499.4 175.8 497.65 178.3 494.45 178.7 M412.45 97.2 L432.5 75.2 433.05 74.2 433.25 73.1 432.8 71.5 Q432.2 70.25 431.4 69.5 L423.65 62.55 422.2 61.3 Q420.7 60.35 419.8 60.35 L418.7 60.55 418.35 60.7 Q417.35 61.5 397.25 83.6 L398.4 63.3 398.55 62.0 Q398.45 61.0 397.45 60.3 394.4 58.25 382.65 58.25 380.35 58.25 379.1 59.5 377.85 60.65 377.95 62.65 L374.3 127.5 Q374.85 128.25 374.8 129.6 374.75 130.9 375.35 131.4 377.3 133.1 391.0 133.1 L393.0 132.65 Q393.7 132.05 394.1 129.95 394.55 127.45 395.8 109.1 L413.65 133.5 Q414.75 134.4 416.05 134.4 L417.25 134.2 419.5 132.7 428.2 126.7 Q430.2 125.35 430.5 123.05 L430.2 121.8 429.9 121.3 412.45 97.2 M558.25 252.7 L560.15 252.35 567.35 250.5 568.65 250.05 Q569.4 249.2 569.9 247.75 L558.05 200.4 557.25 198.65 Q556.85 198.3 550.7 197.15 L543.8 196.05 542.7 196.65 540.9 197.95 516.45 239.3 516.15 240.55 Q517.25 244.15 522.2 246.55 524.7 247.75 527.05 248.2 528.1 248.2 528.6 247.25 529.85 244.65 532.7 241.2 L553.8 244.25 Q555.7 250.55 556.2 251.5 556.8 252.7 558.25 252.7 M418.3 97.5 L432.95 117.7 434.1 119.55 Q435.05 121.45 435.05 123.0 435.05 125.05 434.3 127.0 433.15 129.9 430.8 130.5 L421.5 137.1 Q418.4 139.0 416.9 139.0 413.9 139.0 412.5 138.35 411.0 137.65 409.3 135.3 L399.65 122.05 Q400.45 130.8 397.25 134.75 394.85 137.65 390.8 137.65 374.3 137.65 371.45 134.55 370.45 133.5 370.35 131.25 370.2 128.4 369.75 127.25 L373.45 62.45 Q373.05 58.65 375.6 56.25 378.2 53.75 382.95 53.75 396.4 53.75 400.5 56.5 403.0 58.2 403.0 62.95 L402.5 71.1 415.05 57.45 Q416.1 56.75 417.8 56.25 L420.1 55.8 422.45 56.65 Q424.9 57.65 426.05 58.55 L436.5 68.45 Q437.8 70.6 437.8 73.25 437.8 75.2 437.0 76.6 433.85 81.85 432.1 83.4 426.4 88.65 418.3 97.5 M554.55 257.6 Q554.55 257.3 553.05 256.25 552.1 255.55 547.45 254.8 L542.9 254.15 Q533.15 254.15 526.4 260.35 520.1 266.2 520.1 273.7 520.1 282.0 527.9 286.3 533.35 289.25 539.0 289.25 L542.2 288.8 545.4 288.35 Q546.95 288.35 547.9 288.9 548.9 289.5 548.9 290.6 548.9 292.25 547.15 293.15 545.55 294.05 542.95 294.05 L541.15 293.8 539.6 293.6 538.85 293.85 538.5 294.1 534.4 299.65 530.65 304.9 530.55 304.85 530.45 305.5 Q530.45 307.0 534.9 308.05 L542.15 308.95 Q550.35 308.95 557.2 304.05 564.95 298.55 564.95 290.2 564.95 283.55 560.1 278.95 554.8 273.9 546.0 273.9 L538.6 274.8 Q537.95 274.8 537.1 274.3 536.1 273.7 536.1 272.85 L536.75 271.0 Q538.2 269.2 542.15 269.2 L543.95 269.4 545.5 269.6 Q546.05 269.6 546.6 269.1 L554.3 258.25 Q554.55 258.6 554.55 257.6 M549.85 228.55 L540.95 227.3 546.9 217.2 549.85 228.55 M466.35 146.5 L454.0 145.85 461.0 131.25 466.35 146.5 M540.4 274.0 L540.15 274.05 540.2 274.4 540.4 274.0 M570.55 356.2 L545.4 315.9 Q545.1 314.75 543.95 314.3 L542.85 314.1 Q541.9 314.1 540.85 314.7 536.4 317.35 534.3 318.7 L533.15 319.55 532.45 320.15 Q532.1 320.5 532.1 321.1 532.1 321.95 533.45 324.5 L541.25 337.55 532.05 343.2 522.6 328.25 522.0 327.8 520.95 327.6 Q519.9 327.6 518.9 328.2 514.45 330.8 512.4 332.15 L511.25 333.0 510.55 333.6 Q510.2 333.95 510.2 334.55 510.2 335.95 510.85 337.15 L535.6 377.45 Q536.15 378.55 537.15 379.0 L538.3 379.3 539.1 378.85 Q540.3 377.55 547.2 374.35 548.85 373.6 549.05 371.7 L548.9 370.7 548.7 370.4 539.8 355.85 549.0 350.2 Q558.0 364.8 558.5 365.2 L559.15 365.7 560.15 365.85 561.4 365.6 569.2 360.85 Q570.6 359.7 570.9 358.25 L570.75 357.15 570.55 356.2" fill="#ffffff" fill-rule="evenodd" stroke="none"/>
    <path d="M533.75 58.25 Q519.45 58.25 508.95 67.85 498.75 77.25 498.75 89.3 498.75 100.7 508.2 108.05 516.45 114.45 525.5 114.05 L517.0 128.6 Q515.8 130.7 515.8 132.05 515.8 134.3 518.3 136.25 520.5 137.95 522.1 137.95 511.45 140.0 508.85 141.5 506.15 143.05 506.15 147.4 506.15 148.4 506.4 149.2 L515.85 195.55 Q515.9 198.1 518.3 200.15 520.5 202.05 522.55 202.05 L525.1 201.75 534.55 199.8 512.55 237.0 511.95 238.85 511.55 241.1 Q511.55 243.9 513.6 245.75 515.35 247.3 522.65 251.5 523.55 252.0 527.2 252.95 532.85 252.95 535.0 246.15 L550.2 248.3 550.8 250.6 548.75 250.55 Q547.85 250.6 547.85 250.05 547.85 249.45 545.7 249.45 L542.75 249.6 Q533.35 249.6 525.2 255.55 515.55 262.6 515.55 273.9 515.55 278.45 518.35 283.3 520.75 287.45 521.8 287.45 L525.2 289.9 Q529.35 292.45 533.45 293.2 L525.75 304.3 525.65 304.65 525.55 305.75 Q525.55 309.3 530.2 311.35 532.55 312.4 535.35 312.8 L529.05 317.6 Q527.45 319.2 527.45 321.5 527.45 322.85 528.1 323.95 L535.0 336.05 533.55 337.0 527.4 327.0 524.95 324.45 Q523.35 323.0 521.2 323.0 519.8 323.0 518.95 323.5 515.2 325.75 509.45 328.65 508.05 329.35 506.8 331.15 505.45 333.1 505.45 334.85 505.45 336.3 507.0 339.55 L531.75 379.8 Q531.85 381.25 533.95 382.7 536.05 384.15 537.95 384.15 545.8 383.55 542.5 382.55 L552.0 376.15 Q553.8 374.5 553.8 372.1 L553.45 369.8 Q553.15 368.85 546.05 357.35 L547.5 356.45 553.65 366.35 Q553.75 367.8 555.85 369.25 557.95 370.7 559.85 370.7 L563.1 370.05 Q565.35 369.35 564.4 369.1 572.15 364.55 574.5 362.0 575.7 360.65 575.7 359.0 L575.55 357.2 Q575.2 355.9 574.05 353.85 L548.65 312.6 Q557.8 310.3 563.6 303.95 569.55 297.45 569.55 289.3 569.55 281.75 563.65 276.0 558.25 270.8 551.55 269.95 556.05 265.0 557.9 261.55 L559.35 258.05 Q559.7 257.2 561.35 256.7 L569.4 254.7 Q571.75 254.15 573.2 252.35 574.8 250.35 574.5 247.7 L574.25 245.95 562.45 199.35 562.1 197.2 Q561.7 195.65 560.4 194.6 556.55 191.5 543.35 191.5 541.7 191.5 539.6 192.7 L538.0 184.25 543.55 189.2 Q545.15 190.5 547.3 190.5 553.1 190.5 555.65 180.7 557.3 193.65 563.65 193.65 573.3 193.65 577.65 190.6 580.75 188.45 580.75 185.15 L580.4 182.35 570.95 136.0 Q569.4 132.1 568.55 131.1 567.05 129.5 563.6 129.5 L558.1 130.5 Q560.2 129.85 564.05 123.6 568.75 115.95 568.75 108.75 568.75 95.7 557.45 88.75 549.55 83.9 541.9 83.9 554.55 69.55 549.85 63.1 546.3 58.25 533.75 58.25 M536.9 53.4 Q547.85 53.4 553.05 59.75 555.7 63.0 556.1 66.4 556.1 71.15 549.4 80.45 555.8 81.25 562.5 87.0 568.2 91.8 569.7 95.65 569.95 95.4 571.15 99.0 L572.3 103.05 572.75 110.1 Q572.75 113.3 571.95 115.7 L567.8 126.05 Q572.55 127.25 573.7 130.7 574.65 133.6 579.95 157.35 585.3 181.5 585.3 183.55 585.3 186.55 584.15 189.8 582.65 194.05 580.2 194.05 579.75 194.05 574.8 195.9 569.7 197.8 566.55 198.05 L575.7 233.15 Q579.1 246.5 579.1 248.3 579.1 250.3 578.5 252.1 577.5 255.0 575.15 256.5 572.35 258.3 568.8 259.65 564.45 260.75 563.5 261.35 562.6 261.9 559.1 267.6 564.4 268.75 569.05 275.25 573.9 282.15 573.9 289.65 L574.1 291.3 Q574.15 292.15 573.55 292.15 573.1 296.0 570.7 300.8 565.85 310.4 555.7 315.1 567.35 334.4 576.75 349.5 580.3 355.5 580.3 358.55 580.3 362.2 577.25 365.55 575.95 367.0 570.7 370.45 564.75 374.4 562.7 374.4 L560.9 374.75 559.05 375.1 Q558.5 375.1 556.2 377.7 553.15 381.15 549.85 383.55 545.6 386.65 542.9 387.85 540.45 388.9 538.2 388.9 533.2 388.9 529.7 384.55 526.25 380.25 521.8 372.75 L515.5 362.1 503.0 342.05 Q502.15 340.45 501.45 338.45 500.75 336.45 500.75 335.7 L501.4 332.85 Q502.35 329.7 503.65 328.3 506.35 325.5 514.45 320.45 L521.5 318.4 523.6 318.6 525.8 313.8 Q522.9 312.55 521.65 309.45 L521.0 306.45 Q521.0 304.55 522.1 302.75 L526.25 295.7 Q519.9 292.15 516.4 287.95 511.4 282.0 511.4 274.15 511.4 268.1 513.45 263.0 515.65 257.5 519.55 255.1 515.6 252.65 512.7 250.5 507.1 246.4 507.1 241.25 507.1 239.35 507.9 237.2 508.55 235.45 525.6 206.1 L517.6 205.3 Q516.25 204.7 513.3 200.85 L512.3 198.65 506.9 173.85 502.8 153.7 501.6 147.15 Q501.6 138.65 512.0 135.2 512.05 133.75 511.65 132.75 511.25 131.85 511.35 131.2 511.7 129.05 518.25 117.55 509.65 116.25 502.6 108.9 494.6 100.65 494.6 89.75 494.6 78.55 503.05 68.25 511.0 58.5 520.55 56.25 L524.55 55.05 531.85 53.9 536.9 53.4 M528.6 87.05 Q528.45 88.9 527.9 89.25 L527.85 89.2 Q528.05 88.3 528.6 87.05 M539.25 145.3 L539.9 143.55 537.8 143.85 539.25 145.3 M547.55 136.6 L540.85 153.35 526.75 139.15 533.7 139.65 539.95 138.9 547.55 136.6 M494.45 178.7 Q497.65 178.3 499.4 175.8 500.8 173.75 500.8 171.2 500.8 170.1 500.25 167.9 L478.55 105.55 477.3 103.1 Q475.95 100.9 474.9 100.4 472.9 99.45 471.7 99.25 L454.2 98.2 Q452.05 98.2 450.3 99.15 447.65 100.55 446.5 103.8 L417.9 163.25 Q417.1 165.9 417.1 167.2 417.1 168.8 418.3 170.9 419.85 173.6 422.35 174.65 429.45 177.65 434.9 180.35 L437.6 180.8 Q440.3 180.8 442.3 178.9 444.8 176.55 447.15 170.55 L470.4 171.9 473.8 179.35 Q475.05 182.25 476.45 182.9 L482.1 182.6 494.45 178.7 M500.65 180.2 Q497.5 182.1 493.45 184.0 485.25 187.75 480.55 187.75 472.05 187.75 466.75 176.25 L449.85 175.3 Q447.75 180.35 445.15 182.6 442.25 185.15 437.75 185.15 435.5 185.1 432.05 184.1 425.15 182.05 418.5 177.15 L414.2 172.8 Q412.75 170.85 412.75 167.9 412.75 165.7 413.3 163.95 414.2 161.3 417.85 153.65 L423.9 140.8 Q422.7 141.7 418.95 142.65 L414.4 143.45 Q411.25 143.45 407.7 140.7 403.95 137.85 402.7 134.05 401.65 137.2 401.0 137.2 L398.75 139.25 Q396.2 141.25 394.25 141.25 L384.95 142.2 Q373.7 142.2 369.2 138.35 365.55 135.2 365.55 128.25 L368.85 62.2 Q368.85 61.75 370.0 58.35 371.15 55.05 371.4 54.65 372.2 53.25 374.35 51.75 377.05 49.85 379.5 49.8 L387.25 49.2 391.5 49.4 395.2 49.6 Q395.95 49.7 401.45 52.0 402.4 52.0 404.75 55.0 407.05 58.0 407.25 59.35 411.45 54.6 414.55 52.8 417.1 51.3 420.05 51.3 L422.3 51.95 425.25 52.9 Q428.9 53.75 434.85 60.1 L440.1 66.25 441.3 68.4 Q442.5 70.9 442.5 72.6 L442.2 75.25 Q441.8 77.7 441.3 78.55 440.1 80.65 433.65 87.6 L424.1 97.8 436.35 114.6 Q444.6 98.7 445.95 97.2 447.8 95.1 450.35 94.35 L457.45 93.7 472.9 94.5 Q475.75 95.1 478.85 97.7 L481.05 100.85 483.0 104.0 504.5 166.5 504.9 168.2 505.3 170.65 Q505.3 175.9 504.3 175.9 L502.5 178.05 500.65 180.2 M418.3 97.5 Q426.4 88.65 432.1 83.4 433.85 81.85 437.0 76.6 437.8 75.2 437.8 73.25 437.8 70.6 436.5 68.45 L426.05 58.55 Q424.9 57.65 422.45 56.65 L420.1 55.8 417.8 56.25 Q416.1 56.75 415.05 57.45 L402.5 71.1 403.0 62.95 Q403.0 58.2 400.5 56.5 396.4 53.75 382.95 53.75 378.2 53.75 375.6 56.25 373.05 58.65 373.45 62.45 L369.75 127.25 Q370.2 128.4 370.35 131.25 370.45 133.5 371.45 134.55 374.3 137.65 390.8 137.65 394.85 137.65 397.25 134.75 400.45 130.8 399.65 122.05 L409.3 135.3 Q411.0 137.65 412.5 138.35 413.9 139.0 416.9 139.0 418.4 139.0 421.5 137.1 L430.8 130.5 Q433.15 129.9 434.3 127.0 435.05 125.05 435.05 123.0 435.05 121.45 434.1 119.55 L432.95 117.7 418.3 97.5 M540.4 274.0 L540.2 274.4 540.15 274.05 540.4 274.0" fill="#171717" fill-rule="evenodd" stroke="none"/>
    <path d="M546.8 66.45 Q545.5 68.85 544.5 71.75 L543.1 75.95 Q541.5 80.15 536.65 82.8 L534.25 82.8 529.65 83.1 Q526.6 83.55 525.25 85.25 524.3 86.4 524.3 88.05 524.3 88.9 525.15 89.65 526.2 90.55 527.85 90.55 L532.7 89.5 Q537.35 88.45 540.6 88.45 550.95 88.45 557.65 94.4 564.2 100.2 564.2 108.8 564.2 118.85 555.55 126.75 546.45 135.1 533.65 135.1 526.35 135.1 522.85 133.5 L520.7 131.75 520.8 130.95 520.9 130.9 528.6 117.85 Q529.95 115.6 530.5 115.35 L533.45 115.25 Q536.2 115.5 538.8 114.65 541.4 113.8 542.4 112.6 543.15 111.65 543.15 110.1 543.15 108.7 541.7 108.0 L539.6 107.5 534.65 108.55 527.85 109.6 Q517.8 109.6 510.9 104.35 503.35 98.6 503.35 89.15 503.35 79.15 511.95 71.2 521.05 62.8 533.85 62.8 538.6 62.8 542.25 63.9 545.65 64.9 546.8 66.45 M563.75 134.15 Q565.05 134.15 565.75 135.1 L566.5 136.9 575.95 183.25 576.1 184.45 Q576.1 185.85 574.2 187.1 L565.35 188.9 564.25 189.05 562.05 188.8 Q561.4 188.35 560.95 186.35 559.6 177.45 557.1 165.05 L549.95 182.35 Q548.8 185.05 548.45 185.3 L548.0 185.65 547.05 185.75 546.1 185.6 545.4 185.25 530.55 170.45 534.45 189.25 535.05 192.85 Q535.05 194.3 533.1 195.55 530.0 197.45 523.1 197.45 521.85 197.45 521.2 196.55 L520.3 194.6 510.85 148.3 510.8 147.2 510.9 146.4 Q511.15 145.55 512.05 144.8 514.75 142.5 522.4 142.5 L523.25 142.6 523.85 142.85 542.55 161.35 552.1 137.4 553.05 136.45 554.5 135.85 563.75 134.15 M480.25 178.55 Q478.65 178.55 477.85 177.2 476.85 175.65 473.65 167.55 L444.35 165.85 Q440.65 173.2 439.15 175.05 438.3 176.1 437.1 176.1 436.3 176.1 434.2 175.2 L424.35 170.55 422.9 169.6 422.25 168.3 421.7 166.9 422.0 165.2 450.6 105.75 Q451.8 104.0 454.2 102.75 L471.95 104.1 Q473.25 104.95 474.25 107.05 L495.95 169.4 496.1 170.75 495.65 172.25 494.6 173.65 492.95 174.4 482.95 177.9 480.25 178.55 M558.25 252.7 Q556.8 252.7 556.2 251.5 555.7 250.55 553.8 244.25 L532.7 241.2 Q529.85 244.65 528.6 247.25 528.1 248.2 527.05 248.2 524.7 247.75 522.2 246.55 517.25 244.15 516.15 240.55 L516.45 239.3 540.9 197.95 542.7 196.65 543.8 196.05 550.7 197.15 Q556.85 198.3 557.25 198.65 L558.05 200.4 569.9 247.75 Q569.4 249.2 568.65 250.05 L567.35 250.5 560.15 252.35 558.25 252.7 M412.45 97.2 L429.9 121.3 430.2 121.8 430.5 123.05 Q430.2 125.35 428.2 126.7 L419.5 132.7 417.25 134.2 416.05 134.4 Q414.75 134.4 413.65 133.5 L395.8 109.1 Q394.55 127.45 394.1 129.95 393.7 132.05 393.0 132.65 L391.0 133.1 Q377.3 133.1 375.35 131.4 374.75 130.9 374.8 129.6 374.85 128.25 374.3 127.5 L377.95 62.65 Q377.85 60.65 379.1 59.5 380.35 58.25 382.65 58.25 394.4 58.25 397.45 60.3 398.45 61.0 398.55 62.0 L398.4 63.3 397.25 83.6 Q417.35 61.5 418.35 60.7 L418.7 60.55 419.8 60.35 Q420.7 60.35 422.2 61.3 L423.65 62.55 431.4 69.5 Q432.2 70.25 432.8 71.5 L433.25 73.1 433.05 74.2 432.5 75.2 412.45 97.2 M466.35 146.5 L461.0 131.25 454.0 145.85 466.35 146.5 M549.85 228.55 L546.9 217.2 540.95 227.3 549.85 228.55 M554.55 257.6 Q554.55 258.6 554.3 258.25 L546.6 269.1 Q546.05 269.6 545.5 269.6 L543.95 269.4 542.15 269.2 Q538.2 269.2 536.75 271.0 L536.1 272.85 Q536.1 273.7 537.1 274.3 537.95 274.8 538.6 274.8 L546.0 273.9 Q554.8 273.9 560.1 278.95 564.95 283.55 564.95 290.2 564.95 298.55 557.2 304.05 550.35 308.95 542.15 308.95 L534.9 308.05 Q530.45 307.0 530.45 305.5 L530.55 304.85 530.65 304.9 534.4 299.65 538.5 294.1 538.85 293.85 539.6 293.6 541.15 293.8 542.95 294.05 Q545.55 294.05 547.15 293.15 548.9 292.25 548.9 290.6 548.9 289.5 547.9 288.9 546.95 288.35 545.4 288.35 L542.2 288.8 539.0 289.25 Q533.35 289.25 527.9 286.3 520.1 282.0 520.1 273.7 520.1 266.2 526.4 260.35 533.15 254.15 542.9 254.15 L547.45 254.8 Q552.1 255.55 553.05 256.25 554.55 257.3 554.55 257.6 M570.55 356.2 L570.75 357.15 570.9 358.25 Q570.6 359.7 569.2 360.85 L561.4 365.6 560.15 365.85 559.15 365.7 558.5 365.2 Q558.0 364.8 549.0 350.2 L539.8 355.85 548.7 370.4 548.9 370.7 549.05 371.7 Q548.85 373.6 547.2 374.35 540.3 377.55 539.1 378.85 L538.3 379.3 537.15 379.0 Q536.15 378.55 535.6 377.45 L510.85 337.15 Q510.2 335.95 510.2 334.55 510.2 333.95 510.55 333.6 L511.25 333.0 512.4 332.15 Q514.45 330.8 518.9 328.2 519.9 327.6 520.95 327.6 L522.0 327.8 522.6 328.25 532.05 343.2 541.25 337.55 533.45 324.5 Q532.1 321.95 532.1 321.1 532.1 320.5 532.45 320.15 L533.15 319.55 534.3 318.7 Q536.4 317.35 540.85 314.7 541.9 314.1 542.85 314.1 L543.95 314.3 Q545.1 314.75 545.4 315.9 L570.55 356.2" fill="#cb0909" fill-rule="evenodd" stroke="none"/>
  </g>
</svg>
