<?xml version="1.0" encoding="UTF-8" standalone="no"?>
<svg xmlns:ffdec="https://www.free-decompiler.com/flash" xmlns:xlink="http://www.w3.org/1999/xlink" ffdec:objectType="shape" height="140.4px" width="89.35px" xmlns="http://www.w3.org/2000/svg">
  <g transform="matrix(1.0, 0.0, 0.0, 1.0, 0.0, -0.05)">
    <path d="M76.8 17.3 Q85.85 21.35 86.45 21.95 86.9 22.4 86.9 23.25 86.9 24.7 81.55 29.6 L85.7 34.1 87.85 36.7 Q87.85 37.95 85.15 39.85 81.4 42.45 68.95 49.3 L72.25 53.65 73.7 55.25 76.3 55.6 Q78.8 55.6 82.05 56.9 86.15 58.55 86.5 61.0 87.05 64.8 89.35 72.3 89.35 73.8 85.5 76.2 73.65 83.75 66.95 88.35 L65.95 94.6 63.7 93.1 63.7 92.95 64.65 87.15 Q64.65 86.15 63.8 84.45 62.95 82.75 62.4 82.6 L60.3 82.3 58.65 80.55 61.4 80.9 Q66.25 81.25 65.35 86.4 L76.8 78.85 86.8 72.25 Q85.85 69.75 84.9 65.35 84.05 61.55 84.05 60.6 L83.0 60.45 79.1 59.5 74.85 58.55 Q72.3 58.35 71.75 57.55 L71.2 56.15 69.25 53.2 Q67.55 50.95 65.95 50.25 64.4 49.6 58.9 45.6 53.8 41.95 53.3 41.95 51.7 41.95 42.95 49.75 L33.95 58.15 35.15 56.75 Q37.95 53.45 38.85 51.65 L34.6 47.4 33.7 46.55 Q33.05 46.1 32.6 46.1 L26.2 49.05 24.4 49.7 Q25.55 48.95 30.9 46.35 32.45 45.65 34.8 41.75 L34.4 43.45 Q34.0 44.8 33.75 44.75 L33.75 44.65 33.7 45.3 Q33.7 45.8 34.1 46.25 34.5 46.8 35.05 46.85 36.9 49.2 38.45 50.25 39.4 50.95 39.85 50.95 40.6 50.95 40.9 50.55 L41.9 49.05 Q44.55 45.75 53.05 40.75 L49.3 36.15 48.7 35.3 Q48.35 34.75 48.35 34.15 L51.6 28.65 51.75 27.65 Q52.15 30.4 49.15 34.35 L50.25 35.65 Q52.4 39.9 59.05 44.15 64.65 47.75 66.25 47.75 67.2 47.75 75.65 42.65 83.45 37.9 85.3 36.5 83.7 34.75 80.9 32.6 L77.65 29.9 78.95 28.65 84.35 23.35 79.2 19.25 76.8 17.3 M64.7 98.15 Q63.45 99.75 64.05 101.25 L65.85 104.9 Q66.9 107.95 68.15 110.6 68.9 112.25 68.9 112.8 68.9 114.1 68.3 114.5 L66.4 115.6 Q65.6 116.2 60.65 118.4 55.85 120.8 54.8 122.65 L52.4 122.0 53.0 119.7 53.0 119.55 62.7 114.65 66.35 112.75 63.4 105.15 61.85 101.15 Q61.1 99.75 60.05 99.3 L57.55 98.05 54.7 95.6 53.15 94.15 51.65 93.25 Q50.4 92.45 49.95 92.3 L46.45 93.65 40.9 95.85 Q36.1 97.85 35.1 99.0 L34.35 100.3 34.7 98.7 35.0 97.5 26.7 89.45 Q27.55 89.7 29.0 90.95 L35.85 96.6 40.0 94.3 Q41.7 93.35 44.55 92.55 L48.0 91.55 Q49.05 91.1 49.85 91.1 50.9 91.1 53.95 93.5 56.95 95.85 57.6 95.85 L58.5 95.2 Q59.85 95.0 62.2 97.35 L62.85 96.2 64.7 98.15 M51.6 131.5 Q50.15 136.7 48.15 138.45 45.9 140.45 40.8 140.45 L36.55 139.9 Q32.25 139.2 28.85 138.1 26.7 137.4 24.65 133.3 L22.4 128.3 11.15 135.1 Q6.7 137.85 3.25 137.85 1.8 137.85 1.05 137.0 0.45 136.35 0.45 135.35 0.45 134.6 0.65 134.4 L2.25 135.15 Q4.15 135.25 6.45 134.05 13.0 130.5 22.15 125.7 L19.95 119.75 20.2 119.0 24.65 114.3 29.5 109.6 25.35 115.25 22.6 118.45 21.2 119.95 26.15 129.9 26.45 130.4 29.55 136.0 Q39.35 137.9 42.15 137.9 L45.15 137.45 Q46.6 136.8 47.25 134.75 L49.15 130.75 Q49.6 130.7 51.6 131.5 M58.65 77.5 Q57.95 79.0 58.1 79.8 L56.65 78.0 58.5 77.1 58.65 77.5" fill="#585858" fill-rule="evenodd" stroke="none"/>
    <path d="M79.2 19.25 L84.35 23.35 78.95 28.65 Q74.35 28.55 65.9 30.35 55.8 32.5 50.25 35.65 L49.15 34.35 Q52.15 30.4 51.75 27.65 L51.6 28.65 48.35 34.15 Q48.35 34.75 48.7 35.3 L49.3 36.15 Q47.65 36.6 42.7 40.1 37.15 44.0 35.05 46.85 34.5 46.8 34.1 46.25 33.7 45.8 33.7 45.3 L33.75 44.65 33.75 44.75 Q34.0 44.8 34.4 43.45 L34.8 41.75 Q32.45 45.65 30.9 46.35 25.55 48.95 24.4 49.7 L26.2 49.05 32.6 46.1 Q33.05 46.1 33.7 46.55 L34.6 47.4 Q32.3 50.45 30.3 55.45 27.8 61.7 27.8 66.75 27.8 69.6 29.6 74.25 L31.95 80.1 29.15 80.1 Q29.15 80.4 29.85 80.85 L32.85 81.5 Q34.05 83.45 36.3 86.05 38.95 89.1 40.45 89.75 33.45 90.3 32.05 91.05 36.15 91.4 42.4 91.25 L44.55 92.55 Q41.7 93.35 40.0 94.3 L35.85 96.6 29.0 90.95 Q27.55 89.7 26.7 89.45 L35.0 97.5 34.7 98.7 29.5 94.95 19.75 86.45 18.3 79.6 Q17.55 75.8 17.55 71.7 L18.1 64.45 18.8 56.95 Q19.3 54.35 20.15 52.0 L20.85 50.25 21.35 48.2 Q27.4 44.1 31.15 40.4 L36.15 35.4 37.15 34.8 Q45.2 30.95 47.45 29.65 L52.15 26.55 56.7 25.35 Q59.2 24.55 59.75 22.65 L64.95 21.25 68.8 20.45 71.0 19.75 79.2 19.25 M83.0 60.45 L84.05 60.6 Q84.05 61.55 84.9 65.35 85.85 69.75 86.8 72.25 L76.8 78.85 Q76.2 77.85 75.25 74.9 74.4 72.15 73.65 71.15 72.95 70.2 71.6 69.9 L68.45 69.4 64.95 69.1 Q59.3 69.1 53.25 72.8 47.15 76.5 45.85 76.5 44.4 76.5 43.05 75.4 41.35 74.0 41.35 71.55 41.35 69.85 44.45 66.8 47.8 63.5 52.35 61.25 52.95 60.95 58.75 59.95 L65.45 58.9 74.7 59.45 83.0 60.45 M74.6 64.95 Q74.6 61.5 66.65 60.8 59.9 60.2 58.05 61.0 55.05 62.3 51.5 64.6 46.35 68.0 46.35 70.1 46.35 71.15 47.05 71.75 47.65 72.3 48.4 72.3 50.2 72.3 51.0 71.25 L52.2 69.0 Q54.25 65.65 62.15 65.65 68.55 65.65 70.35 66.4 L72.25 67.15 73.6 66.85 Q74.6 66.3 74.6 64.95 M46.45 93.65 L50.0 95.5 Q46.85 97.75 43.0 99.2 40.2 100.25 38.95 101.8 L35.1 99.0 Q36.1 97.85 40.9 95.85 L46.45 93.65 M57.55 98.05 L60.05 99.3 Q61.1 99.75 61.85 101.15 L63.4 105.15 66.35 112.75 62.7 114.65 Q49.1 108.9 45.0 106.3 L39.85 102.4 46.9 99.55 53.15 96.75 57.55 98.05 M49.15 130.75 L47.25 134.75 Q44.9 133.4 41.25 130.45 34.0 124.65 25.35 115.25 L29.5 109.6 24.65 114.3 24.1 113.45 Q23.8 112.95 23.25 112.95 22.5 112.95 19.05 114.75 14.8 116.95 10.7 119.85 12.05 117.6 16.75 113.1 22.3 107.75 27.45 104.45 L28.2 105.75 28.15 105.75 30.9 111.15 34.0 117.15 Q38.7 124.65 49.15 130.75" fill="#dadada" fill-rule="evenodd" stroke="none"/>
    <path d="M78.95 28.65 L77.65 29.9 80.9 32.6 Q83.7 34.75 85.3 36.5 83.45 37.9 75.65 42.65 67.2 47.75 66.25 47.75 64.65 47.75 59.05 44.15 52.4 39.9 50.25 35.65 55.8 32.5 65.9 30.35 74.35 28.55 78.95 28.65 M49.3 36.15 L53.05 40.75 Q44.55 45.75 41.9 49.05 L40.9 50.55 Q40.6 50.95 39.85 50.95 39.4 50.95 38.45 50.25 36.9 49.2 35.05 46.85 37.15 44.0 42.7 40.1 47.65 36.6 49.3 36.15 M34.6 47.4 L38.85 51.65 Q37.95 53.45 35.15 56.75 L33.95 58.15 42.95 49.75 Q51.7 41.95 53.3 41.95 53.8 41.95 58.9 45.6 64.4 49.6 65.95 50.25 67.55 50.95 69.25 53.2 L71.2 56.15 71.75 57.55 Q72.3 58.35 74.85 58.55 L79.1 59.5 83.0 60.45 74.7 59.45 65.45 58.9 58.75 59.95 Q52.95 60.95 52.35 61.25 47.8 63.5 44.45 66.8 41.35 69.85 41.35 71.55 41.35 74.0 43.05 75.4 44.4 76.5 45.85 76.5 47.15 76.5 53.25 72.8 59.3 69.1 64.95 69.1 L68.45 69.4 71.6 69.9 Q72.95 70.2 73.65 71.15 74.4 72.15 75.25 74.9 76.2 77.85 76.8 78.85 L65.35 86.4 Q66.25 81.25 61.4 80.9 L58.65 80.55 60.3 82.3 62.4 82.6 Q62.95 82.75 63.8 84.45 64.65 86.15 64.65 87.15 L63.7 92.95 Q63.0 92.15 62.15 91.6 L61.3 91.1 Q60.7 91.1 60.4 91.35 L60.25 91.55 60.25 91.5 60.2 92.2 Q60.2 92.9 61.15 93.8 62.4 94.95 62.9 96.1 L62.85 96.2 62.2 97.35 Q59.85 95.0 58.5 95.2 L57.6 95.85 Q56.95 95.85 53.95 93.5 50.9 91.1 49.85 91.1 49.05 91.1 48.0 91.55 L44.55 92.55 42.4 91.25 49.4 90.65 49.1 89.5 40.45 89.75 Q38.95 89.1 36.3 86.05 34.05 83.45 32.85 81.5 L36.95 82.15 45.4 84.4 Q40.25 81.35 37.05 80.7 L31.95 80.1 29.6 74.25 Q27.8 69.6 27.8 66.75 27.8 61.7 30.3 55.45 32.3 50.45 34.6 47.4 M58.65 77.5 L58.5 77.1 56.65 78.0 58.1 79.8 Q57.95 79.0 58.65 77.5 M46.45 93.65 L49.95 92.3 Q50.4 92.45 51.65 93.25 L53.15 94.15 Q52.2 94.2 50.0 95.5 L46.45 93.65 M54.7 95.6 L57.55 98.05 53.15 96.75 54.25 96.45 54.7 95.6 M47.25 134.75 Q46.6 136.8 45.15 137.45 L42.15 137.9 Q39.35 137.9 29.55 136.0 L26.45 130.4 27.1 127.45 26.15 129.9 21.2 119.95 22.6 118.45 25.35 115.25 Q34.0 124.65 41.25 130.45 44.9 133.4 47.25 134.75 M24.65 114.3 L20.2 119.0 19.95 119.75 22.15 125.7 Q13.0 130.5 6.45 134.05 4.15 135.25 2.25 135.15 L4.9 129.3 Q8.05 123.0 10.7 119.85 14.8 116.95 19.05 114.75 22.5 112.95 23.25 112.95 23.8 112.95 24.1 113.45 L24.65 114.3" fill="#ffffff" fill-rule="evenodd" stroke="none"/>
    <path d="M76.8 17.3 L79.2 19.25 71.0 19.75 68.8 20.45 Q62.5 15.7 56.2 11.35 43.75 2.75 38.15 2.75 32.0 2.75 26.65 22.25 23.65 33.15 21.35 48.2 L20.85 50.25 20.15 52.0 Q19.3 54.35 18.8 56.95 L18.1 64.45 17.55 71.7 Q17.55 75.8 18.3 79.6 L19.75 86.45 21.4 92.05 Q23.45 97.2 27.55 100.65 L34.0 107.55 Q40.2 112.4 46.75 116.35 L53.0 119.7 52.4 122.0 52.35 122.15 Q51.5 121.8 41.45 116.45 L32.4 109.5 32.65 110.1 Q29.65 106.45 28.2 105.75 L27.45 104.45 Q22.3 107.75 16.75 113.1 12.05 117.6 10.7 119.85 8.05 123.0 4.9 129.3 L2.25 135.15 0.65 134.4 0.0 134.0 Q2.35 125.75 11.6 115.0 20.25 104.9 25.85 102.5 21.35 96.55 18.9 90.95 15.05 82.15 15.05 72.2 15.05 63.3 16.3 57.6 18.05 51.4 18.9 46.05 26.55 0.05 37.6 0.05 43.45 0.05 56.85 8.95 63.55 13.4 69.15 17.85 L76.8 17.3 M26.45 130.4 L26.15 129.9 27.1 127.45 26.45 130.4" fill="#626262" fill-rule="evenodd" stroke="none"/>
    <path d="M68.8 20.45 L64.95 21.25 59.75 22.65 Q53.25 16.2 48.0 12.4 42.3 8.3 39.45 8.3 35.75 8.3 33.2 15.7 30.55 23.35 30.55 35.0 30.55 36.35 30.95 37.0 L31.9 38.0 36.15 35.4 31.15 40.4 Q27.4 44.1 21.35 48.2 23.65 33.15 26.65 22.25 32.0 2.75 38.15 2.75 43.75 2.75 56.2 11.35 62.5 15.7 68.8 20.45 M52.15 26.55 L47.45 29.65 Q45.2 30.95 37.15 34.8 47.85 28.35 52.15 26.55 M19.75 86.45 L29.5 94.95 34.7 98.7 34.35 100.3 35.1 99.0 38.95 101.8 39.35 102.2 39.85 102.4 45.0 106.3 Q49.1 108.9 62.7 114.65 L53.0 119.55 53.0 119.7 46.75 116.35 Q40.2 112.4 34.0 107.55 L27.55 100.65 Q23.45 97.2 21.4 92.05 L19.75 86.45" fill="#c2c2c2" fill-rule="evenodd" stroke="none"/>
    <path d="M59.75 22.65 Q59.2 24.55 56.7 25.35 L52.15 26.55 Q47.85 28.35 37.15 34.8 L36.15 35.4 31.9 38.0 30.95 37.0 Q30.55 36.35 30.55 35.0 30.55 23.35 33.2 15.7 35.75 8.3 39.45 8.3 42.3 8.3 48.0 12.4 53.25 16.2 59.75 22.65 M56.0 22.45 L46.3 14.5 Q41.55 10.8 39.4 10.8 37.5 10.8 36.2 15.65 34.9 20.45 33.05 34.25 L38.4 30.25 Q42.75 27.6 56.0 22.45" fill="#dc5a9b" fill-rule="evenodd" stroke="none"/>
    <path d="M56.0 22.45 Q42.75 27.6 38.4 30.25 L33.05 34.25 Q34.9 20.45 36.2 15.65 37.5 10.8 39.4 10.8 41.55 10.8 46.3 14.5 L56.0 22.45" fill="#ff99cc" fill-rule="evenodd" stroke="none"/>
    <path d="M42.4 91.25 Q36.15 91.4 32.05 91.05 33.45 90.3 40.45 89.75 L49.1 89.5 49.4 90.65 42.4 91.25 M32.85 81.5 L29.85 80.85 Q29.15 80.4 29.15 80.1 L31.95 80.1 37.05 80.7 Q40.25 81.35 45.4 84.4 L36.95 82.15 32.85 81.5 M74.6 64.95 Q74.6 66.3 73.6 66.85 L72.25 67.15 70.35 66.4 Q68.55 65.65 62.15 65.65 54.25 65.65 52.2 69.0 L51.0 71.25 Q50.2 72.3 48.4 72.3 47.65 72.3 47.05 71.75 46.35 71.15 46.35 70.1 46.35 68.0 51.5 64.6 55.05 62.3 58.05 61.0 59.9 60.2 66.65 60.8 74.6 61.5 74.6 64.95 M50.0 95.5 Q52.2 94.2 53.15 94.15 L54.7 95.6 54.25 96.45 53.15 96.75 46.9 99.55 39.85 102.4 39.35 102.2 38.95 101.8 Q40.2 100.25 43.0 99.2 46.85 97.75 50.0 95.5" fill="#333333" fill-rule="evenodd" stroke="none"/>
    <path d="M63.7 92.95 L63.7 93.1 Q63.3 95.3 62.9 96.1 62.4 94.95 61.15 93.8 60.2 92.9 60.2 92.2 L60.25 91.5 60.25 91.55 60.4 91.35 Q60.7 91.1 61.3 91.1 L62.15 91.6 Q63.0 92.15 63.7 92.95 M41.45 116.45 L42.35 119.75 44.2 124.45 Q42.2 123.65 38.3 118.85 34.25 113.95 32.65 110.1 L32.4 109.5 41.45 116.45" fill="#990000" fill-rule="evenodd" stroke="none"/>
    <path d="M44.2 124.45 L42.35 119.75 41.45 116.45 Q51.5 121.8 52.35 122.15 L50.2 128.45 44.2 124.45" fill="#cc0000" fill-rule="evenodd" stroke="none"/>
    <path d="M63.7 93.1 L65.95 94.6 64.7 98.15 62.85 96.2 62.9 96.1 Q63.3 95.3 63.7 93.1 M54.8 122.65 Q54.55 124.25 53.2 127.75 L51.6 131.5 Q49.6 130.7 49.15 130.75 38.7 124.65 34.0 117.15 L30.9 111.15 28.15 105.75 28.2 105.75 Q29.65 106.45 32.65 110.1 34.25 113.95 38.3 118.85 42.2 123.65 44.2 124.45 L50.2 128.45 52.35 122.15 52.4 122.0 54.8 122.65" fill="#470000" fill-rule="evenodd" stroke="none"/>
  </g>
</svg>
