<?xml version="1.0" encoding="UTF-8" standalone="no"?>
<svg xmlns:ffdec="https://www.free-decompiler.com/flash" xmlns:xlink="http://www.w3.org/1999/xlink" ffdec:objectType="shape" height="50.3px" width="57.3px" xmlns="http://www.w3.org/2000/svg">
  <g transform="matrix(1.0, 0.0, 0.0, 1.0, 33.3, 3.4)">
    <path d="M1.6 -3.1 L7.3 -1.9 Q13.2 4.55 13.55 11.35 13.8 18.1 10.55 25.5 L13.9 25.2 Q14.3 29.05 15.05 31.1 L17.2 32.75 19.85 28.95 21.3 26.85 20.2 25.05 19.4 24.1 18.4 23.1 Q22.6 23.5 22.6 25.6 22.6 26.25 21.2 29.5 19.55 33.25 17.95 35.0 15.35 34.25 15.35 33.25 12.25 28.2 7.1 29.3 L4.2 22.75 3.2 23.0 3.4 30.05 1.2 31.15 4.65 31.65 4.55 33.7 Q4.5 36.15 4.6 37.95 L6.35 40.0 Q8.4 37.95 10.85 36.5 11.8 35.9 11.8 34.3 L11.65 33.25 11.4 32.75 10.6 31.4 9.8 30.45 Q12.4 31.9 13.1 32.7 13.5 33.2 13.5 34.2 9.2 41.05 6.55 42.5 L3.55 40.35 2.55 37.9 1.25 35.55 Q0.8 35.2 -2.65 34.0 -4.05 33.5 -3.75 31.05 -1.0 24.05 -1.0 23.1 L-5.65 32.45 -8.05 32.4 -5.25 34.5 Q-6.25 35.6 -7.25 37.6 -8.15 39.35 -8.25 40.05 L-7.7 42.7 -1.45 41.25 Q0.25 40.65 0.25 38.25 0.25 37.15 -0.15 35.8 L1.05 37.75 1.9 39.7 Q1.9 41.1 -2.4 43.2 -6.5 45.15 -8.45 45.15 -9.25 45.15 -11.15 40.05 L-13.5 33.3 Q-12.6 30.6 -11.35 24.05 L-10.25 17.95 Q-10.25 14.45 -12.85 12.5 -15.1 10.8 -18.95 10.6 -18.05 9.15 -18.4 8.7 -18.6 8.4 -19.15 8.25 -21.3 11.95 -22.3 13.05 -23.9 14.7 -26.2 14.7 -29.1 14.7 -30.75 13.1 -32.15 11.75 -32.15 10.0 -32.15 8.8 -30.9 7.25 -29.8 5.9 -28.35 4.95 L-24.3 2.7 -20.8 0.85 -10.25 2.8 Q-7.95 0.45 -3.2 -1.5 L1.6 -3.1 M3.65 5.25 Q3.65 3.0 2.05 1.25 0.55 -0.35 -1.05 -0.35 -3.75 -0.35 -5.65 1.95 -8.3 5.1 -8.3 11.85 -8.3 13.3 -7.55 14.7 -6.55 16.55 -4.9 16.55 -1.1 16.55 1.4 12.7 3.65 9.3 3.65 5.25 M4.8 6.15 L4.8 7.4 Q4.55 8.95 2.55 12.1 0.7 14.95 -0.6 16.2 L0.25 16.0 Q2.1 15.65 3.85 12.45 5.8 8.95 4.8 6.15 M7.3 18.15 Q8.65 16.65 8.5 15.45 L-0.25 18.25 0.75 19.25 Q1.7 20.1 2.35 20.1 5.55 20.1 7.3 18.15 M7.7 8.8 L9.4 8.1 Q9.05 3.9 8.4 2.65 7.75 1.3 4.7 -0.95 4.75 0.8 5.75 3.95 6.7 6.9 7.7 8.8 M-11.45 7.85 L-11.25 6.55 Q-11.25 5.0 -13.6 3.85 -15.6 2.9 -18.65 2.5 -17.6 6.1 -16.75 7.2 -15.25 9.25 -11.9 9.3 L-11.45 7.85 M-19.45 4.75 Q-19.45 3.8 -19.95 3.4 -20.25 3.2 -21.25 2.95 -22.3 2.7 -26.55 4.9 -30.85 7.15 -30.85 8.1 -30.85 9.85 -29.75 10.95 -28.55 12.15 -26.45 12.15 -23.8 12.15 -21.95 10.7 -19.45 8.75 -19.45 4.75 M-2.9 23.7 Q-5.45 20.35 -8.05 20.3 -9.3 20.35 -9.95 23.5 L-11.1 29.95 Q-8.9 31.0 -7.9 31.0 -6.7 31.0 -6.1 30.65 L-4.9 29.55 Q-4.6 29.25 -3.7 26.2 L-2.9 23.7 M-10.35 38.5 L-7.8 34.6 -11.25 33.4 Q-13.1 33.35 -10.35 38.5" fill="#de9954" fill-rule="evenodd" stroke="none"/>
    <path d="M-0.15 35.8 Q0.25 37.15 0.25 38.25 0.25 40.65 -1.45 41.25 L-7.7 42.7 -8.25 40.05 -6.0 37.7 -5.7 40.1 -3.05 40.45 Q-1.5 40.45 -0.6 39.55 0.1 38.85 0.1 38.0 0.1 35.85 -3.0 35.7 L-4.1 35.8 -2.95 34.9 -1.6 35.15 -0.15 35.8 M9.8 30.45 L10.6 31.4 Q9.9 31.05 8.6 31.05 7.0 31.05 6.2 32.5 5.6 33.6 5.6 34.9 5.6 36.15 6.45 36.55 L7.9 36.75 Q9.55 36.75 11.0 33.9 L11.4 32.75 11.65 33.25 11.8 34.3 Q11.8 35.9 10.85 36.5 8.4 37.95 6.35 40.0 L4.6 37.95 Q5.4 33.6 6.0 32.25 6.9 30.15 9.8 30.45 M18.4 23.1 L19.4 24.1 Q18.9 23.8 18.2 23.8 16.9 23.8 16.15 24.6 15.45 25.35 15.45 26.6 15.45 27.95 15.9 28.7 16.3 29.45 17.0 29.45 18.5 29.45 19.4 28.5 20.35 27.55 20.35 25.9 L20.2 25.05 21.3 26.85 19.85 28.95 17.2 32.75 15.05 31.1 Q15.25 25.45 15.55 24.65 15.95 23.5 18.4 23.1 M3.65 5.25 Q3.65 9.3 1.4 12.7 -1.1 16.55 -4.9 16.55 -6.55 16.55 -7.55 14.7 -8.3 13.3 -8.3 11.85 -8.3 5.1 -5.65 1.95 -3.75 -0.35 -1.05 -0.35 0.55 -0.35 2.05 1.25 3.65 3.0 3.65 5.25 M7.7 8.8 Q6.7 6.9 5.75 3.95 4.75 0.8 4.7 -0.95 7.75 1.3 8.4 2.65 9.05 3.9 9.4 8.1 L7.7 8.8 M7.3 18.15 Q5.55 20.1 2.35 20.1 1.7 20.1 0.75 19.25 L-0.25 18.25 8.5 15.45 Q8.65 16.65 7.3 18.15 M-7.05 9.85 Q-7.05 11.35 -5.95 12.15 -5.05 12.8 -3.65 12.8 -1.8 12.8 -0.25 11.25 1.6 9.4 1.6 6.3 1.6 -0.4 -2.7 3.2 -4.3 4.55 -5.7 6.65 -7.05 8.75 -7.05 9.85 M-19.45 4.75 Q-19.45 8.75 -21.95 10.7 -23.8 12.15 -26.45 12.15 -28.55 12.15 -29.75 10.95 -30.85 9.85 -30.85 8.1 -30.85 7.15 -26.55 4.9 -22.3 2.7 -21.25 2.95 -20.25 3.2 -19.95 3.4 -19.45 3.8 -19.45 4.75 M-11.45 7.85 L-11.9 9.3 Q-15.25 9.25 -16.75 7.2 -17.6 6.1 -18.65 2.5 -15.6 2.9 -13.6 3.85 -11.25 5.0 -11.25 6.55 L-11.45 7.85 M-6.3 23.25 L-7.15 23.05 Q-9.3 25.2 -9.2 28.75 L-7.95 27.85 Q-6.75 26.65 -6.5 25.85 -6.25 25.15 -6.3 23.25 M-2.9 23.7 L-3.7 26.2 Q-4.6 29.25 -4.9 29.55 L-6.1 30.65 Q-6.7 31.0 -7.9 31.0 -8.9 31.0 -11.1 29.95 L-9.95 23.5 Q-9.3 20.35 -8.05 20.3 -5.45 20.35 -2.9 23.7 M-26.85 10.15 L-25.15 10.5 Q-23.6 10.5 -22.35 9.55 -21.1 8.6 -21.1 7.3 -21.1 6.4 -23.3 6.05 L-25.8 6.0 -27.65 7.35 -29.2 8.85 Q-28.6 9.65 -26.85 10.15 M-10.35 38.5 Q-13.1 33.35 -11.25 33.4 L-7.8 34.6 -10.35 38.5" fill="#eaa76a" fill-rule="evenodd" stroke="none"/>
    <path d="M7.3 -1.9 Q11.25 -0.85 14.1 5.1 16.95 11.05 13.5 23.85 13.65 23.55 15.2 22.85 16.95 22.05 18.15 22.05 21.35 22.05 22.95 23.5 24.0 24.45 24.0 25.4 24.0 31.75 21.0 34.7 19.45 36.2 17.85 36.4 16.6 36.4 14.7 35.5 11.1 43.85 7.35 43.85 6.25 43.85 4.8 42.85 3.4 41.85 2.65 41.85 2.1 41.85 0.35 43.15 L-2.6 45.2 Q-5.75 46.9 -6.7 46.9 -8.7 46.9 -9.75 46.0 L-12.5 40.95 Q-14.8 36.35 -15.05 33.9 -15.3 31.4 -12.45 17.95 -12.45 15.25 -14.8 13.6 -16.75 12.25 -19.0 12.25 L-21.5 14.2 Q-24.4 16.1 -26.65 16.1 -30.0 16.1 -31.75 14.2 -33.3 12.55 -33.3 9.75 -33.3 7.0 -27.65 3.0 -22.4 -0.75 -20.1 -0.75 L-15.2 0.15 -11.05 1.0 Q-8.95 -0.45 -6.7 -1.7 -2.15 -4.15 1.6 -3.1 L-3.2 -1.5 Q-7.95 0.45 -10.25 2.8 L-20.8 0.85 -24.3 2.7 -28.35 4.95 Q-29.8 5.9 -30.9 7.25 -32.15 8.8 -32.15 10.0 -32.15 11.75 -30.75 13.1 -29.1 14.7 -26.2 14.7 -23.9 14.7 -22.3 13.05 -21.3 11.95 -19.15 8.25 -18.6 8.4 -18.4 8.7 -18.05 9.15 -18.95 10.6 -15.1 10.8 -12.85 12.5 -10.25 14.45 -10.25 17.95 L-11.35 24.05 Q-12.6 30.6 -13.5 33.3 L-11.15 40.05 Q-9.25 45.15 -8.45 45.15 -6.5 45.15 -2.4 43.2 1.9 41.1 1.9 39.7 L1.05 37.75 -0.15 35.8 -1.6 35.15 -2.95 34.9 -4.1 35.8 -6.0 37.7 -8.25 40.05 Q-8.15 39.35 -7.25 37.6 -6.25 35.6 -5.25 34.5 L-8.05 32.4 -5.65 32.45 -1.0 23.1 Q-1.0 24.05 -3.75 31.05 -4.05 33.5 -2.65 34.0 0.8 35.2 1.25 35.55 L2.55 37.9 3.55 40.35 6.55 42.5 Q9.2 41.05 13.5 34.2 13.5 33.2 13.1 32.7 12.4 31.9 9.8 30.45 6.9 30.15 6.0 32.25 5.4 33.6 4.6 37.95 4.5 36.15 4.55 33.7 L4.65 31.65 1.2 31.15 3.4 30.05 3.2 23.0 4.2 22.75 7.1 29.3 Q12.25 28.2 15.35 33.25 15.35 34.25 17.95 35.0 19.55 33.25 21.2 29.5 22.6 26.25 22.6 25.6 22.6 23.5 18.4 23.1 15.95 23.5 15.55 24.65 15.25 25.45 15.05 31.1 14.3 29.05 13.9 25.2 L10.55 25.5 Q13.8 18.1 13.55 11.35 13.2 4.55 7.3 -1.9 M4.8 6.15 Q5.8 8.95 3.85 12.45 2.1 15.65 0.25 16.0 L-0.6 16.2 Q0.7 14.95 2.55 12.1 4.55 8.95 4.8 7.4 L4.8 6.15 M5.2 30.2 L6.05 29.8 4.6 27.25 5.2 30.2" fill="#9d632f" fill-rule="evenodd" stroke="none"/>
    <path d="M10.6 31.4 L11.4 32.75 11.0 33.9 Q9.55 36.75 7.9 36.75 L6.45 36.55 Q5.6 36.15 5.6 34.9 5.6 33.6 6.2 32.5 7.0 31.05 8.6 31.05 9.9 31.05 10.6 31.4 M19.4 24.1 L20.2 25.05 20.35 25.9 Q20.35 27.55 19.4 28.5 18.5 29.45 17.0 29.45 16.3 29.45 15.9 28.7 15.45 27.95 15.45 26.6 15.45 25.35 16.15 24.6 16.9 23.8 18.2 23.8 18.9 23.8 19.4 24.1 M-7.05 9.85 Q-7.05 8.75 -5.7 6.65 -4.3 4.55 -2.7 3.2 1.6 -0.4 1.6 6.3 1.6 9.4 -0.25 11.25 -1.8 12.8 -3.65 12.8 -5.05 12.8 -5.95 12.15 -7.05 11.35 -7.05 9.85 M-6.3 23.25 Q-6.25 25.15 -6.5 25.85 -6.75 26.65 -7.95 27.85 L-9.2 28.75 Q-9.3 25.2 -7.15 23.05 L-6.3 23.25 M-26.85 10.15 Q-28.6 9.65 -29.2 8.85 L-27.65 7.35 -25.8 6.0 -23.3 6.05 Q-21.1 6.4 -21.1 7.3 -21.1 8.6 -22.35 9.55 -23.6 10.5 -25.15 10.5 L-26.85 10.15 M-4.1 35.8 L-3.0 35.7 Q0.1 35.85 0.1 38.0 0.1 38.85 -0.6 39.55 -1.5 40.45 -3.05 40.45 L-5.7 40.1 -6.0 37.7 -4.1 35.8" fill="#ecb17d" fill-rule="evenodd" stroke="none"/>
  </g>
</svg>
