<?xml version="1.0" encoding="UTF-8" standalone="no"?>
<svg xmlns:ffdec="https://www.free-decompiler.com/flash" xmlns:xlink="http://www.w3.org/1999/xlink" ffdec:objectType="shape" height="320.0px" width="320.0px" xmlns="http://www.w3.org/2000/svg">
  <g transform="matrix(1.0, 0.0, 0.0, 1.0, -160.0, -64.0)">
    <path d="M416.0 64.0 L480.0 64.0 480.0 128.0 416.0 128.0 416.0 64.0 M480.0 192.0 L480.0 256.0 416.0 256.0 416.0 192.0 480.0 192.0 M480.0 320.0 L480.0 384.0 416.0 384.0 416.0 320.0 480.0 320.0 M352.0 384.0 L288.0 384.0 288.0 320.0 352.0 320.0 352.0 384.0 M224.0 384.0 L160.0 384.0 160.0 320.0 224.0 320.0 224.0 256.0 288.0 256.0 288.0 192.0 352.0 192.0 352.0 256.0 416.0 256.0 416.0 320.0 352.0 320.0 352.0 256.0 288.0 256.0 288.0 320.0 224.0 320.0 224.0 384.0 M160.0 256.0 L160.0 192.0 224.0 192.0 224.0 256.0 160.0 256.0 M160.0 128.0 L160.0 64.0 224.0 64.0 224.0 128.0 288.0 128.0 288.0 192.0 224.0 192.0 224.0 128.0 160.0 128.0 M288.0 64.0 L352.0 64.0 352.0 128.0 416.0 128.0 416.0 192.0 352.0 192.0 352.0 128.0 288.0 128.0 288.0 64.0" fill="#ffffff" fill-opacity="0.24705882" fill-rule="evenodd" stroke="none"/>
    <path d="M480.0 128.0 L480.0 192.0 416.0 192.0 416.0 256.0 480.0 256.0 480.0 320.0 416.0 320.0 416.0 384.0 352.0 384.0 352.0 320.0 288.0 320.0 288.0 384.0 224.0 384.0 224.0 320.0 288.0 320.0 288.0 256.0 352.0 256.0 352.0 320.0 416.0 320.0 416.0 256.0 352.0 256.0 352.0 192.0 288.0 192.0 288.0 256.0 224.0 256.0 224.0 320.0 160.0 320.0 160.0 256.0 224.0 256.0 224.0 192.0 160.0 192.0 160.0 128.0 224.0 128.0 224.0 192.0 288.0 192.0 288.0 128.0 224.0 128.0 224.0 64.0 288.0 64.0 288.0 128.0 352.0 128.0 352.0 192.0 416.0 192.0 416.0 128.0 352.0 128.0 352.0 64.0 416.0 64.0 416.0 128.0 480.0 128.0" fill="#cccccc" fill-opacity="0.24705882" fill-rule="evenodd" stroke="none"/>
  </g>
</svg>
