<?xml version="1.0" encoding="UTF-8" standalone="no"?>
<svg xmlns:ffdec="https://www.free-decompiler.com/flash" xmlns:xlink="http://www.w3.org/1999/xlink" ffdec:objectType="shape" height="251.6px" width="83.4px" xmlns="http://www.w3.org/2000/svg">
  <g transform="matrix(1.0, 0.0, 0.0, 1.0, 48.35, 98.5)">
    <path d="M-9.45 153.1 L-9.45 13.45 Q-17.65 13.2 -25.25 10.0 L-25.4 9.95 Q-39.2 4.15 -45.35 -9.35 L-45.5 -10.5 Q-45.45 -11.1 -45.0 -11.55 -44.9 -12.3 -44.4 -13.05 -48.35 -15.6 -48.2 -21.45 L-48.2 -21.5 -48.35 -25.65 Q-48.2 -39.0 -40.15 -49.1 -37.15 -52.9 -33.15 -55.55 L-33.0 -55.65 Q-27.95 -59.05 -22.0 -60.1 L-17.45 -60.35 -17.35 -60.35 -16.5 -60.25 -15.95 -60.9 -15.95 -60.95 -14.65 -62.7 -12.25 -67.4 Q-11.6 -69.35 -10.2 -71.05 L-10.15 -71.15 -9.5 -71.95 -9.55 -71.85 -9.15 -72.35 -9.1 -72.35 Q-4.8 -76.9 3.1 -76.9 5.9 -76.9 6.25 -74.85 L6.3 -74.5 6.3 -73.0 6.05 -70.35 6.1 -70.35 Q5.45 -68.25 3.5 -67.8 L1.1 -66.1 0.75 -65.7 0.7 -65.65 -0.1 -64.7 -0.3 -64.45 -0.4 -64.3 -0.45 -64.15 Q-1.05 -63.05 -1.05 -61.85 L-0.95 -60.9 -0.95 -60.95 -0.75 -60.3 -0.2 -60.35 -0.1 -60.35 4.4 -60.1 4.45 -60.1 Q10.35 -59.05 15.4 -55.65 L15.6 -55.55 Q19.55 -52.9 22.65 -49.1 30.6 -39.0 30.8 -25.65 L30.6 -21.5 30.6 -21.45 Q30.8 -15.6 26.9 -13.05 L27.4 -11.55 27.95 -10.5 27.8 -9.35 Q21.65 4.15 7.85 9.95 L7.7 10.0 Q2.15 12.35 -3.6 13.1 L-3.6 153.1 -9.45 153.1" fill="#000000" fill-opacity="0.2509804" fill-rule="evenodd" stroke="none"/>
    <path d="M1.75 -12.2 L3.1 -12.2 3.1 145.65 -2.75 145.65 -2.75 -12.2 -1.4 -12.2 -1.4 144.3 1.75 144.3 1.75 -12.2" fill="#2e2214" fill-rule="evenodd" stroke="none"/>
    <path d="M1.75 -12.2 L1.75 144.3 -1.4 144.3 -1.4 -12.2 1.75 -12.2" fill="#725531" fill-rule="evenodd" stroke="none"/>
    <path d="M27.95 -90.55 L28.6 -91.85 Q29.25 -93.05 28.9 -94.3 28.4 -95.6 27.2 -96.25 L24.75 -96.45 Q23.45 -96.05 22.8 -94.85 L21.15 -91.55 19.7 -88.6 18.8 -86.9 17.5 -84.4 16.1 -81.75 16.2 -81.75 14.9 -79.2 14.8 -79.3 14.6 -78.9 12.4 -78.9 Q11.45 -81.75 8.65 -81.75 L6.6 -81.3 6.4 -81.1 Q5.2 -83.1 2.75 -83.1 1.85 -83.1 1.0 -82.7 L-0.05 -82.25 Q-1.7 -85.8 -5.35 -85.25 -8.7 -84.75 -10.2 -81.7 L-11.75 -82.15 Q-16.55 -82.15 -18.1 -79.3 L-18.25 -78.3 Q-20.25 -77.3 -22.0 -75.9 -29.85 -69.85 -29.85 -61.25 L-29.85 -14.65 Q-29.85 -9.05 -26.5 -4.5 -24.9 -0.4 -20.5 2.95 L-20.0 3.4 -21.65 2.4 Q-26.3 -0.5 -28.1 -3.85 L-29.3 -5.5 Q-31.7 -9.7 -31.7 -14.65 L-31.7 -61.25 Q-31.7 -70.7 -23.15 -77.3 L-23.15 -77.4 -19.85 -79.55 -19.85 -79.65 -19.65 -80.1 Q-17.85 -84.0 -11.75 -84.0 L-11.0 -83.85 Q-9.05 -86.65 -5.5 -87.1 -1.5 -87.75 0.7 -84.55 L2.75 -84.95 Q5.3 -84.95 6.95 -83.35 L8.65 -83.65 Q11.9 -83.65 13.5 -80.95 L14.45 -82.6 21.15 -95.7 21.2 -95.7 Q22.2 -97.5 24.1 -98.1 L24.35 -98.2 Q26.15 -98.9 28.15 -97.85 29.9 -96.9 30.65 -94.85 31.3 -92.9 30.3 -90.9 L30.3 -91.0 21.45 -73.75 22.2 -72.1 22.3 -70.8 Q24.85 -66.5 24.85 -61.25 L24.85 -51.2 Q28.4 -50.45 31.1 -47.75 L31.4 -47.4 Q34.55 -44.2 35.05 -40.15 L35.05 -18.4 Q34.5 -13.9 30.95 -10.65 27.65 -7.6 23.35 -7.1 L22.6 -5.5 21.55 -4.05 21.45 -3.95 Q19.4 -0.5 14.8 2.4 L14.7 2.4 13.0 3.4 13.6 2.95 Q17.9 -0.3 19.75 -4.4 L19.75 -4.5 Q21.2 -6.55 22.05 -8.9 26.45 -9.0 29.65 -12.05 33.25 -15.3 33.25 -20.05 L33.25 -38.5 Q33.25 -43.2 29.65 -46.55 L29.8 -46.45 Q26.9 -49.35 23.0 -49.6 L23.0 -61.25 Q23.0 -66.2 20.4 -70.3 L20.4 -70.6 20.3 -71.8 Q20.2 -72.45 19.4 -73.0 L19.0 -73.1 20.4 -75.75 20.55 -76.15 22.95 -80.7 23.75 -82.45 25.35 -85.5 26.35 -87.35 27.95 -90.55 M24.5 -41.15 L24.6 -41.05 Q25.8 -40.0 25.8 -38.5 L25.8 -20.05 Q25.8 -18.65 24.7 -17.65 L24.4 -17.4 23.0 -16.5 23.0 -42.05 24.5 -41.15" fill="#000000" fill-rule="evenodd" stroke="none"/>
    <path d="M26.65 -91.95 L27.0 -92.3 Q27.55 -92.8 27.55 -93.45 27.55 -94.1 27.0 -94.65 L25.9 -95.1 Q25.25 -95.1 24.7 -94.65 24.2 -94.1 24.2 -93.55 L22.8 -90.65 Q21.95 -91.0 21.15 -91.55 L22.8 -94.85 Q23.45 -96.05 24.75 -96.45 L27.2 -96.25 Q28.4 -95.6 28.9 -94.3 29.25 -93.05 28.6 -91.85 L27.95 -90.55 25.7 -90.15 26.65 -91.95 M14.6 -78.9 L14.8 -79.3 14.9 -79.2 Q15.65 -78.7 16.5 -78.3 L15.3 -75.8 15.2 -75.8 Q14.35 -76.15 13.6 -76.75 L13.9 -77.3 14.6 -78.9 M16.2 -81.75 L16.1 -81.75 17.5 -84.4 Q18.25 -83.85 19.1 -83.35 L17.8 -80.85 16.2 -81.75 M18.8 -86.9 L19.7 -88.6 19.95 -89.05 Q20.7 -88.5 21.55 -88.1 L20.4 -85.9 18.8 -86.9 M24.35 -87.35 L26.35 -87.35 25.35 -85.5 23.2 -85.25 24.35 -87.35 M21.8 -82.5 L23.75 -82.45 22.95 -80.7 20.7 -80.3 21.8 -82.5 M20.55 -76.15 L20.4 -75.75 18.15 -75.35 19.3 -77.5 21.2 -77.5 20.55 -76.15 M16.75 -72.55 L18.75 -72.55 18.25 -71.6 17.9 -70.9 15.65 -70.4 15.55 -70.4 16.7 -72.55 16.75 -72.55 M12.95 -61.15 L12.75 -60.9 Q12.2 -59.85 11.25 -59.4 L10.9 -59.2 10.05 -59.1 8.35 -59.5 Q7.6 -59.85 7.15 -60.5 L6.8 -61.35 Q6.5 -62.1 6.7 -62.85 L6.95 -63.9 7.05 -64.05 8.65 -63.15 8.65 -63.05 8.55 -62.85 Q8.35 -62.5 8.55 -61.9 L8.65 -61.65 Q8.85 -61.25 9.2 -61.1 L10.35 -61.0 10.4 -61.1 Q10.9 -61.25 11.15 -61.75 L11.45 -62.3 13.5 -62.3 12.95 -61.15 M8.4 -66.55 L8.35 -66.6 9.75 -69.2 11.35 -68.35 9.95 -65.65 Q9.2 -65.95 8.55 -66.4 L8.4 -66.55 M11.0 -71.7 L12.3 -74.25 12.65 -74.05 Q13.2 -73.7 13.9 -73.3 L13.95 -73.3 12.65 -70.9 Q11.75 -71.25 11.0 -71.7 M16.2 -67.7 L16.1 -67.4 16.0 -67.35 15.1 -65.45 12.85 -65.1 14.15 -67.6 14.55 -67.6 16.2 -67.7" fill="#c7c0be" fill-rule="evenodd" stroke="none"/>
    <path d="M24.2 -93.55 Q24.2 -94.1 24.7 -94.65 25.25 -95.1 25.9 -95.1 L27.0 -94.65 Q27.55 -94.1 27.55 -93.45 27.55 -92.8 27.0 -92.3 L26.65 -91.95 25.9 -91.75 Q25.25 -91.75 24.7 -92.3 24.2 -92.8 24.2 -93.45 L24.2 -93.55 M14.55 -52.15 Q16.0 -52.5 16.85 -53.9 17.5 -55.05 17.5 -56.15 L17.5 -56.7 17.7 -56.95 Q19.4 -58.1 20.15 -59.1 19.2 -53.15 13.15 -48.5 7.45 -44.2 -0.2 -43.45 -0.05 -44.1 0.35 -44.3 1.2 -44.6 1.85 -45.4 L2.0 -45.6 Q7.6 -46.65 12.0 -50.0 L14.55 -52.15 M19.4 -66.2 L19.2 -66.3 19.3 -66.4 19.4 -66.2 M-23.3 -70.9 L-23.15 -69.1 -25.1 -68.45 Q-24.45 -69.75 -23.3 -70.9 M-26.95 -62.4 Q-26.75 -61.55 -26.2 -61.0 L-26.95 -60.25 -27.05 -60.8 -27.05 -61.25 -26.95 -62.4" fill="#5b5b5b" fill-rule="evenodd" stroke="none"/>
    <path d="M26.65 -91.95 L25.7 -90.15 Q24.1 -90.15 22.8 -90.65 L24.2 -93.55 24.2 -93.45 Q24.2 -92.8 24.7 -92.3 25.25 -91.75 25.9 -91.75 L26.65 -91.95 M21.55 -88.1 Q22.8 -87.55 24.35 -87.35 L23.2 -85.25 Q21.7 -85.25 20.4 -85.9 L21.55 -88.1 M19.1 -83.35 Q20.4 -82.7 21.8 -82.5 L20.7 -80.3 Q19.1 -80.3 17.8 -80.85 L19.1 -83.35 M19.3 -77.5 L18.15 -75.35 17.25 -75.35 15.55 -75.75 15.3 -75.8 16.5 -78.3 Q17.8 -77.65 19.3 -77.5 M13.95 -73.3 L15.1 -72.95 16.7 -72.55 15.55 -70.4 Q14.05 -70.3 12.65 -70.9 L13.95 -73.3 M11.35 -68.35 Q12.65 -67.8 14.15 -67.6 L12.85 -65.1 Q11.35 -65.1 9.95 -65.65 L11.35 -68.35 M8.65 -63.15 Q9.2 -62.85 9.85 -62.65 L11.45 -62.3 11.15 -61.75 Q10.9 -61.25 10.4 -61.1 L10.35 -61.0 9.2 -61.1 Q8.85 -61.25 8.65 -61.65 L8.55 -61.9 Q8.35 -62.5 8.55 -62.85 L8.65 -63.05 8.65 -63.15 M27.75 -44.5 Q30.45 -41.95 30.45 -38.6 L30.2 -38.0 Q29.9 -37.65 29.55 -37.65 29.15 -37.65 28.9 -38.0 28.6 -38.25 28.6 -38.6 28.6 -41.2 26.45 -43.1 L26.45 -43.2 Q24.95 -44.65 23.0 -44.95 L22.45 -45.05 Q21.95 -45.05 21.8 -45.35 21.55 -45.7 21.55 -46.0 21.55 -46.45 21.9 -46.65 L22.55 -46.9 23.0 -46.8 Q25.7 -46.55 27.75 -44.5" fill="#fffbfa" fill-rule="evenodd" stroke="none"/>
    <path d="M24.35 -87.35 Q22.8 -87.55 21.55 -88.1 L22.8 -90.65 Q24.1 -90.15 25.7 -90.15 L24.35 -87.35 M23.2 -85.25 L21.8 -82.5 Q20.4 -82.7 19.1 -83.35 L20.4 -85.9 Q21.7 -85.25 23.2 -85.25 M20.7 -80.3 L19.3 -77.5 Q17.8 -77.65 16.5 -78.3 L17.8 -80.85 Q19.1 -80.3 20.7 -80.3 M15.3 -75.8 L15.55 -75.75 17.25 -75.35 18.15 -75.35 16.75 -72.55 16.7 -72.55 15.1 -72.95 13.95 -73.3 13.9 -73.3 15.2 -75.8 15.3 -75.8 M15.55 -70.4 L15.65 -70.4 14.15 -67.6 Q12.65 -67.8 11.35 -68.35 L12.65 -70.9 Q14.05 -70.3 15.55 -70.4 M12.85 -65.1 L11.45 -62.3 9.85 -62.65 Q9.2 -62.85 8.65 -63.15 L9.95 -65.65 Q11.35 -65.1 12.85 -65.1" fill="#e07373" fill-rule="evenodd" stroke="none"/>
    <path d="M25.7 -90.15 L27.95 -90.55 26.35 -87.35 24.35 -87.35 25.7 -90.15 M21.15 -91.55 Q21.95 -91.0 22.8 -90.65 L21.55 -88.1 Q20.7 -88.5 19.95 -89.05 L19.7 -88.6 21.15 -91.55 M14.9 -79.2 L16.2 -81.75 17.8 -80.85 16.5 -78.3 Q15.65 -78.7 14.9 -79.2 M17.5 -84.4 L18.8 -86.9 20.4 -85.9 19.1 -83.35 Q18.25 -83.85 17.5 -84.4 M23.2 -85.25 L25.35 -85.5 23.75 -82.45 21.8 -82.5 23.2 -85.25 M20.55 -76.15 L21.2 -77.5 19.3 -77.5 20.7 -80.3 22.95 -80.7 20.55 -76.15 M18.15 -75.35 L20.4 -75.75 19.0 -73.1 18.75 -72.55 16.75 -72.55 18.15 -75.35 M7.05 -64.05 L7.6 -65.0 8.3 -66.4 8.4 -66.55 8.55 -66.4 Q9.2 -65.95 9.95 -65.65 L8.65 -63.15 7.05 -64.05 M9.75 -69.2 L11.0 -71.7 Q11.75 -71.25 12.65 -70.9 L11.35 -68.35 9.75 -69.2 M12.3 -74.25 L13.6 -76.75 Q14.35 -76.15 15.2 -75.8 L13.9 -73.3 Q13.2 -73.7 12.65 -74.05 L12.3 -74.25 M17.9 -70.9 L16.2 -67.7 14.55 -67.6 14.15 -67.6 15.65 -70.4 17.9 -70.9 M12.85 -65.1 L15.1 -65.45 13.5 -62.3 11.45 -62.3 12.85 -65.1" fill="#aa4040" fill-rule="evenodd" stroke="none"/>
    <path d="M-18.25 -78.3 L-18.1 -79.3 Q-16.55 -82.15 -11.75 -82.15 L-10.2 -81.7 Q-8.7 -84.75 -5.35 -85.25 -1.7 -85.8 -0.05 -82.25 L1.0 -82.7 Q1.85 -83.1 2.75 -83.1 5.2 -83.1 6.4 -81.1 L6.6 -81.3 8.65 -81.75 Q11.45 -81.75 12.4 -78.9 L14.6 -78.9 13.9 -77.3 13.3 -77.2 Q12.85 -77.15 12.4 -76.75 L12.1 -76.5 11.75 -76.15 Q11.35 -76.15 11.1 -76.65 10.7 -77.15 10.5 -78.05 L10.25 -78.9 Q9.75 -80.0 8.45 -80.0 L8.2 -79.8 6.95 -79.45 7.05 -78.55 7.05 -78.25 7.05 -77.8 6.95 -77.3 6.8 -76.85 6.5 -76.75 Q5.55 -76.75 5.1 -77.9 L5.0 -78.25 4.8 -78.95 Q4.45 -81.2 3.25 -81.2 1.65 -81.2 0.35 -79.8 L0.25 -79.8 -0.3 -79.95 -0.4 -79.95 Q-0.95 -80.55 -1.5 -80.75 L-1.6 -80.75 -2.15 -81.5 -3.75 -83.75 -5.5 -83.75 Q-7.2 -83.65 -7.95 -81.95 -7.95 -81.75 -8.05 -81.7 -8.4 -80.3 -8.85 -79.65 L-9.05 -79.45 -10.55 -79.45 Q-11.1 -80.3 -11.75 -80.3 -16.05 -80.3 -17.0 -76.9 L-17.1 -76.55 -17.25 -75.75 Q-18.0 -73.75 -20.05 -73.85 L-20.8 -74.05 Q-21.8 -73.2 -22.0 -72.3 -22.3 -71.35 -21.8 -70.3 L-21.8 -69.3 Q-19.75 -69.5 -19.0 -68.35 L-18.65 -67.5 -18.65 -66.95 Q-18.65 -66.0 -19.5 -66.0 -20.0 -66.0 -20.6 -66.85 L-20.6 -66.95 -20.9 -67.25 Q-21.45 -67.8 -22.4 -67.8 L-23.4 -67.6 Q-24.45 -67.35 -25.1 -66.3 L-25.65 -65.1 -25.75 -64.35 Q-25.75 -63.5 -25.1 -62.55 L-25.0 -62.4 -24.6 -61.8 -22.65 -62.1 -21.0 -61.75 -20.5 -62.2 -19.6 -62.95 -19.35 -63.15 Q-17.35 -64.55 -15.2 -63.95 -13.15 -63.4 -12.7 -62.0 L-12.5 -61.1 -12.5 -61.0 Q-12.5 -59.2 -13.45 -59.2 -13.8 -59.2 -14.0 -59.5 L-14.4 -60.1 -14.55 -60.4 -15.3 -61.8 -15.85 -62.3 -17.95 -62.2 -19.0 -60.25 Q-19.75 -58.85 -20.5 -58.85 -21.45 -58.85 -21.65 -59.6 -21.8 -60.35 -23.4 -60.35 -24.45 -60.35 -25.1 -59.85 -26.1 -59.2 -26.6 -57.55 L-26.85 -55.8 Q-26.85 -54.65 -25.95 -53.75 L-25.0 -52.7 Q-25.0 -52.15 -25.75 -51.6 L-25.85 -51.5 -26.1 -51.3 -26.75 -50.35 Q-26.75 -49.45 -26.1 -48.6 L-25.65 -48.15 -25.2 -47.75 -24.9 -47.65 -24.9 -47.75 -24.7 -48.15 -23.9 -49.45 -23.8 -49.7 -22.5 -50.65 -21.75 -51.1 Q-21.15 -51.4 -21.0 -51.75 -20.9 -52.25 -21.15 -52.8 L-20.6 -53.75 Q-19.6 -55.15 -18.25 -55.5 L-15.8 -55.3 Q-12.6 -54.2 -12.6 -52.05 -12.6 -51.3 -13.35 -51.2 L-15.15 -53.0 Q-16.15 -54.0 -17.2 -54.0 -19.6 -54.0 -19.6 -51.6 -19.6 -51.2 -19.1 -50.55 L-18.65 -49.8 -18.65 -49.7 Q-18.65 -48.85 -20.0 -49.15 L-21.0 -49.25 Q-21.65 -49.15 -22.15 -48.7 L-22.3 -48.5 -22.55 -48.2 -22.55 -48.15 Q-23.3 -47.0 -23.3 -46.25 -23.3 -45.15 -21.15 -44.85 -19.1 -44.65 -19.1 -43.95 L-20.4 -41.7 Q-20.4 -40.55 -18.85 -40.3 L-18.1 -40.3 Q-17.45 -40.3 -17.0 -40.85 L-15.85 -41.5 -15.45 -41.4 -15.15 -41.05 -15.05 -40.45 Q-15.05 -40.2 -15.7 -39.45 L-16.25 -39.0 -16.85 -37.0 Q-16.85 -36.2 -15.2 -36.0 L-13.05 -35.95 Q-12.6 -35.95 -12.4 -35.55 L-12.35 -35.1 -12.85 -33.85 -12.85 -33.8 -12.9 -33.7 -13.05 -33.2 -13.05 -33.15 -12.9 -32.55 -11.6 -31.9 -10.45 -32.0 Q-10.2 -32.0 -9.45 -33.15 L-9.25 -33.4 Q-8.7 -34.2 -8.7 -34.55 -8.7 -35.0 -9.15 -35.75 L-7.75 -37.0 Q-6.45 -38.25 -6.45 -39.05 L-6.8 -41.15 -6.75 -41.5 Q-6.65 -42.05 -6.0 -42.05 -5.35 -42.05 -5.25 -41.8 -5.05 -41.5 -4.6 -41.5 -1.85 -41.5 -2.15 -43.25 L-2.15 -43.35 -2.7 -44.75 -2.8 -44.75 -2.15 -45.15 -0.65 -46.05 Q0.85 -47.1 1.3 -48.15 L1.35 -49.05 Q1.35 -50.25 0.35 -51.95 -0.65 -53.65 -2.25 -54.75 L-3.25 -54.65 Q-4.65 -54.75 -5.15 -55.2 L-5.35 -55.8 Q-5.35 -56.6 -3.75 -56.9 -2.15 -57.3 -0.85 -56.2 L1.6 -53.8 1.85 -53.35 Q2.85 -51.95 3.05 -50.2 L3.05 -50.0 3.15 -49.15 3.15 -49.05 3.15 -48.4 3.05 -48.15 2.5 -46.45 2.0 -45.6 1.85 -45.4 Q1.2 -44.6 0.35 -44.3 -0.05 -44.1 -0.2 -43.45 L-0.45 -42.25 Q-0.45 -41.85 -0.8 -41.5 -1.7 -40.45 -4.85 -39.8 -4.5 -38.9 -5.6 -37.25 L-7.0 -35.25 -7.65 -32.95 Q-7.95 -32.1 -8.5 -31.35 L-9.45 -30.6 -9.55 -30.5 Q-14.45 -30.9 -15.15 -32.2 -15.3 -32.65 -14.95 -33.4 L-14.45 -34.35 -18.1 -35.75 -18.35 -37.35 -18.25 -38.6 -18.85 -38.75 Q-21.0 -39.05 -21.8 -40.2 -22.4 -40.95 -22.3 -41.7 L-21.8 -43.35 Q-24.25 -44.0 -24.8 -44.75 L-25.0 -46.05 -26.0 -46.35 -26.1 -46.45 Q-27.05 -46.9 -27.6 -48.05 L-27.7 -48.15 -28.0 -49.15 -28.1 -50.35 -28.0 -51.3 Q-27.8 -52.15 -27.25 -52.5 L-28.0 -53.35 Q-28.35 -54.3 -28.35 -55.8 L-28.0 -58.35 -27.5 -59.5 -26.95 -60.25 -26.2 -61.0 Q-26.75 -61.55 -26.95 -62.4 L-27.25 -64.35 -27.15 -65.1 Q-26.95 -67.35 -25.1 -68.45 L-23.15 -69.1 -23.3 -70.9 -23.4 -71.35 -23.4 -72.2 -23.15 -73.6 Q-22.4 -74.7 -19.1 -75.65 L-19.0 -75.75 -18.25 -78.3 M19.0 -73.1 L19.4 -73.0 Q20.2 -72.45 20.3 -71.8 L20.4 -70.6 20.4 -70.3 Q20.4 -69.1 20.05 -68.0 L19.8 -67.4 19.3 -66.4 19.2 -66.3 19.4 -66.2 20.3 -64.9 20.8 -62.3 Q20.8 -60.4 20.2 -59.4 L20.15 -59.1 Q19.4 -58.1 17.7 -56.95 L17.5 -56.9 17.5 -56.7 17.5 -56.15 Q17.5 -55.05 16.85 -53.9 16.0 -52.5 14.55 -52.15 L13.9 -52.15 13.8 -52.15 Q12.75 -52.15 12.75 -53.0 L12.75 -53.1 12.85 -53.15 12.95 -53.25 13.4 -53.55 14.55 -54.2 Q16.1 -55.05 16.2 -55.95 L16.2 -56.05 Q16.2 -56.6 15.85 -56.95 L15.55 -57.2 15.45 -57.3 12.65 -57.7 12.55 -57.95 Q14.05 -58.75 15.2 -58.85 16.7 -59.1 17.25 -57.95 L18.1 -58.75 18.15 -58.75 Q19.5 -60.4 19.5 -62.1 19.5 -63.8 18.9 -64.45 L17.8 -65.1 15.1 -65.45 16.0 -67.35 16.1 -67.35 16.75 -67.25 16.85 -67.25 17.5 -67.15 18.0 -67.8 18.35 -68.35 18.8 -69.4 18.9 -70.3 18.65 -71.45 18.25 -71.6 18.75 -72.55 19.0 -73.1" fill="#ad8f65" fill-rule="evenodd" stroke="none"/>
    <path d="M11.0 -71.7 L11.0 -71.9 11.45 -72.85 11.65 -73.3 11.45 -74.5 9.95 -74.5 8.85 -73.85 7.6 -73.85 6.3 -75.35 6.05 -75.65 4.65 -76.1 Q2.75 -76.1 1.65 -75.45 L0.55 -74.8 Q-0.45 -74.8 -1.3 -76.85 L-1.4 -77.15 Q-2.15 -78.9 -3.2 -78.9 -5.25 -78.9 -6.45 -77.15 L-6.45 -77.05 Q-7.75 -75.35 -8.15 -75.35 -8.95 -75.35 -9.25 -76.0 L-9.7 -76.55 -10.45 -76.75 Q-12.9 -76.75 -13.35 -75.55 L-13.45 -75.0 Q-13.45 -72.3 -13.75 -72.0 L-16.25 -71.9 Q-16.6 -71.05 -17.2 -70.6 L-17.45 -69.85 -17.0 -67.35 Q-17.0 -66.6 -18.95 -65.85 L-20.8 -65.1 -21.0 -64.9 Q-21.0 -64.55 -20.4 -64.05 L-19.35 -63.15 -19.6 -62.95 -20.5 -62.2 -21.0 -61.75 -22.65 -62.1 -24.6 -61.8 -25.0 -62.4 -25.1 -62.55 Q-25.75 -63.5 -25.75 -64.35 L-25.65 -65.1 -25.1 -66.3 Q-24.45 -67.35 -23.4 -67.6 L-22.4 -67.8 Q-21.45 -67.8 -20.9 -67.25 L-20.6 -66.95 -20.6 -66.85 Q-20.0 -66.0 -19.5 -66.0 -18.65 -66.0 -18.65 -66.95 L-18.65 -67.5 -19.0 -68.35 Q-19.75 -69.5 -21.8 -69.3 L-21.8 -70.3 Q-22.3 -71.35 -22.0 -72.3 -21.8 -73.2 -20.8 -74.05 L-20.05 -73.85 Q-18.0 -73.75 -17.25 -75.75 L-17.1 -76.55 -17.0 -76.9 Q-16.05 -80.3 -11.75 -80.3 -11.1 -80.3 -10.55 -79.45 L-9.05 -79.45 -8.85 -79.65 Q-8.4 -80.3 -8.05 -81.7 -7.95 -81.75 -7.95 -81.95 -7.2 -83.65 -5.5 -83.75 L-3.75 -83.75 -2.15 -81.5 -1.6 -80.75 -1.5 -80.75 Q-0.95 -80.55 -0.4 -79.95 L-0.3 -79.95 0.25 -79.8 0.35 -79.8 Q1.65 -81.2 3.25 -81.2 4.45 -81.2 4.8 -78.95 L5.0 -78.25 5.1 -77.9 Q5.55 -76.75 6.5 -76.75 L6.8 -76.85 6.95 -77.3 7.05 -77.8 7.05 -78.25 7.05 -78.55 6.95 -79.45 8.2 -79.8 8.45 -80.0 Q9.75 -80.0 10.25 -78.9 L10.5 -78.05 Q10.7 -77.15 11.1 -76.65 11.35 -76.15 11.75 -76.15 L12.1 -76.5 12.4 -76.75 Q12.85 -77.15 13.3 -77.2 L13.9 -77.3 13.6 -76.75 12.3 -74.25 11.0 -71.7 M-12.7 -62.0 Q-10.25 -60.15 -10.25 -58.3 -10.25 -57.6 -10.85 -57.2 L-13.45 -57.1 -13.65 -56.9 Q-16.85 -56.6 -18.25 -55.5 -19.6 -55.15 -20.6 -53.75 L-21.15 -52.8 Q-20.9 -52.25 -21.0 -51.75 -21.15 -51.4 -21.75 -51.1 L-22.5 -50.65 -23.8 -49.7 -23.9 -49.45 -24.7 -48.15 -24.9 -47.75 -24.9 -47.65 -25.2 -47.75 -25.65 -48.15 -26.1 -48.6 Q-26.75 -49.45 -26.75 -50.35 L-26.1 -51.3 -25.85 -51.5 -25.75 -51.6 Q-25.0 -52.15 -25.0 -52.7 L-25.95 -53.75 Q-26.85 -54.65 -26.85 -55.8 L-26.6 -57.55 Q-26.1 -59.2 -25.1 -59.85 -24.45 -60.35 -23.4 -60.35 -21.8 -60.35 -21.65 -59.6 -21.45 -58.85 -20.5 -58.85 -19.75 -58.85 -19.0 -60.25 L-17.95 -62.2 -15.85 -62.3 -15.3 -61.8 -14.55 -60.4 -14.4 -60.1 -14.0 -59.5 Q-13.8 -59.2 -13.45 -59.2 -12.5 -59.2 -12.5 -61.0 L-12.5 -61.1 -12.7 -62.0 M-22.15 -48.7 L-22.2 -48.15 -22.2 -48.05 -22.2 -47.85 Q-22.2 -46.75 -21.9 -46.45 -21.4 -46.0 -19.6 -46.0 L-19.0 -46.0 -16.7 -45.9 -16.15 -45.15 Q-16.15 -44.75 -16.8 -44.4 L-18.2 -44.2 -18.75 -43.45 -19.4 -42.55 -19.1 -41.8 -18.75 -41.4 -18.5 -41.4 Q-17.0 -41.4 -16.25 -42.25 L-15.3 -43.1 -14.45 -42.9 -14.4 -42.45 Q-14.4 -41.85 -15.15 -41.05 L-15.45 -41.4 -15.85 -41.5 -17.0 -40.85 Q-17.45 -40.3 -18.1 -40.3 L-18.85 -40.3 Q-20.4 -40.55 -20.4 -41.7 L-19.1 -43.95 Q-19.1 -44.65 -21.15 -44.85 -23.3 -45.15 -23.3 -46.25 -23.3 -47.0 -22.55 -48.15 L-22.55 -48.2 -22.3 -48.5 -22.15 -48.7 M-12.85 -33.85 L-12.8 -33.95 Q-10.2 -34.35 -10.2 -35.75 -10.2 -36.2 -11.3 -37.25 L-12.25 -38.15 -12.4 -38.4 -10.35 -39.45 Q-9.7 -39.75 -9.25 -40.15 -8.4 -40.75 -8.4 -41.5 L-8.4 -41.7 Q-8.6 -42.15 -9.35 -42.6 -10.25 -43.1 -10.25 -43.75 L-10.2 -43.95 Q-9.55 -45.05 -2.9 -44.65 L-2.7 -44.75 -2.15 -43.35 -2.15 -43.25 Q-1.85 -41.5 -4.6 -41.5 -5.05 -41.5 -5.25 -41.8 -5.35 -42.05 -6.0 -42.05 -6.65 -42.05 -6.75 -41.5 L-6.8 -41.15 -6.45 -39.05 Q-6.45 -38.25 -7.75 -37.0 L-9.15 -35.75 Q-8.7 -35.0 -8.7 -34.55 -8.7 -34.2 -9.25 -33.4 L-9.45 -33.15 Q-10.2 -32.0 -10.45 -32.0 L-11.6 -31.9 -12.9 -32.55 -13.05 -33.15 -13.05 -33.2 -12.9 -33.7 -12.85 -33.8 -12.85 -33.85 M-2.15 -45.15 Q-1.2 -46.05 -0.95 -46.8 L-0.85 -48.15 -0.85 -48.7 Q-0.85 -50.2 -2.05 -52.25 L-3.25 -54.4 -3.25 -54.65 -2.25 -54.75 Q-0.65 -53.65 0.35 -51.95 1.35 -50.25 1.35 -49.05 L1.3 -48.15 Q0.85 -47.1 -0.65 -46.05 L-2.15 -45.15 M3.05 -50.0 Q4.75 -50.45 6.15 -53.15 L5.55 -54.4 5.65 -54.75 5.85 -54.65 Q8.75 -54.5 8.75 -52.15 L8.45 -51.3 7.9 -50.55 Q6.95 -49.25 5.85 -49.8 5.85 -49.35 6.2 -48.85 L6.3 -48.8 7.8 -48.7 8.55 -49.55 8.85 -49.8 9.6 -50.65 9.0 -49.6 10.25 -50.0 Q13.05 -50.95 13.95 -51.95 12.2 -50.95 10.05 -50.85 L9.7 -50.85 9.85 -51.0 10.15 -52.5 10.15 -53.1 10.15 -53.15 10.15 -53.45 10.4 -53.55 Q13.2 -54.4 13.2 -55.4 L12.75 -56.6 Q12.2 -57.45 12.2 -58.0 12.2 -58.45 12.65 -59.2 L13.15 -60.15 12.95 -61.15 13.5 -62.3 15.1 -65.45 17.8 -65.1 18.9 -64.45 Q19.5 -63.8 19.5 -62.1 19.5 -60.4 18.15 -58.75 L18.1 -58.75 17.25 -57.95 Q16.7 -59.1 15.2 -58.85 14.05 -58.75 12.55 -57.95 L12.65 -57.7 15.45 -57.3 15.55 -57.2 15.85 -56.95 16.2 -55.95 Q16.1 -55.05 14.55 -54.2 L13.4 -53.55 12.95 -53.25 12.85 -53.15 12.75 -53.1 12.75 -53.0 Q12.75 -52.15 13.8 -52.15 L13.9 -52.15 14.55 -52.15 12.0 -50.0 Q7.6 -46.65 2.0 -45.6 L2.5 -46.45 3.05 -48.15 3.15 -48.4 3.15 -49.05 3.15 -49.15 3.05 -50.0 M7.6 -65.0 Q5.95 -64.6 5.5 -62.5 L5.1 -62.4 Q4.75 -62.4 4.65 -62.95 L4.65 -63.6 Q4.65 -65.95 8.3 -66.4 L7.6 -65.0 M18.25 -71.6 L18.65 -71.45 18.9 -70.3 18.8 -69.4 18.35 -68.35 18.0 -67.8 17.5 -67.15 16.85 -67.25 16.75 -67.25 16.1 -67.35 16.0 -67.35 16.1 -67.4 16.2 -67.7 17.9 -70.9 18.25 -71.6 M17.5 -56.7 L17.5 -56.9 17.7 -56.95 17.5 -56.7 M18.65 -62.95 Q18.65 -64.6 17.9 -64.8 L16.6 -64.7 Q14.45 -63.9 14.45 -62.4 14.35 -61.8 14.55 -61.35 14.8 -60.35 16.1 -60.35 17.8 -60.35 18.35 -61.45 L18.65 -62.95 M9.2 -70.7 Q9.2 -69.0 8.3 -69.0 7.05 -69.0 7.05 -71.15 5.65 -71.45 4.9 -70.4 4.15 -69.4 3.8 -69.4 3.35 -69.4 3.15 -69.55 L3.05 -70.2 Q3.05 -72.55 6.15 -72.95 9.2 -73.4 9.2 -70.7 M1.85 -59.2 L1.35 -59.0 Q-0.05 -58.45 -0.45 -58.45 -1.4 -58.45 -2.7 -59.85 -4.0 -61.35 -4.6 -61.35 L-5.7 -60.8 Q-7.1 -60.8 -6.75 -61.55 -6.75 -64.45 -3.85 -62.85 L-0.95 -60.6 1.5 -61.25 1.85 -61.25 3.0 -60.9 3.0 -60.8 Q2.25 -60.7 1.85 -60.4 1.35 -60.15 1.35 -59.6 L1.85 -59.2 M-4.5 -81.05 L-4.6 -81.95 Q-4.95 -82.8 -6.05 -82.7 -7.2 -82.6 -7.55 -81.7 L-7.75 -80.7 -7.55 -79.8 Q-7.3 -79.3 -6.55 -79.3 -5.5 -79.3 -4.95 -79.95 L-4.75 -80.0 Q-4.5 -80.45 -4.5 -81.05 M-13.05 -77.95 L-13.25 -78.55 -14.2 -78.4 -14.85 -77.95 -15.3 -77.05 -15.2 -76.75 -14.85 -76.4 -13.65 -76.4 Q-13.15 -76.9 -13.05 -77.55 L-13.05 -77.95 M-21.9 -65.1 Q-21.9 -66.7 -23.2 -66.75 L-23.95 -66.6 Q-24.55 -66.3 -24.55 -65.35 L-24.55 -65.3 -24.55 -65.1 Q-24.6 -63.5 -23.15 -63.5 -22.65 -63.5 -22.3 -64.05 -21.9 -64.55 -21.9 -65.1 M-20.9 -56.45 Q-20.9 -58.75 -23.05 -58.95 -24.35 -59.0 -24.8 -58.3 -25.2 -57.85 -25.2 -56.9 L-25.1 -55.55 Q-24.6 -54.3 -23.05 -54.3 -21.8 -54.3 -21.25 -55.2 -20.9 -55.8 -20.9 -56.45 M-1.7 -69.75 Q-1.7 -69.0 -2.55 -69.0 -3.45 -69.0 -3.55 -69.3 -3.65 -69.85 -4.1 -70.2 L-5.25 -70.15 -6.15 -68.8 -6.8 -67.7 Q-7.75 -68.0 -7.75 -68.55 -7.75 -71.45 -4.65 -71.6 -1.7 -71.8 -1.7 -69.75" fill="#e5cdac" fill-rule="evenodd" stroke="none"/>
    <path d="M-19.35 -63.15 L-20.4 -64.05 Q-21.0 -64.55 -21.0 -64.9 L-20.8 -65.1 -18.95 -65.85 Q-17.0 -66.6 -17.0 -67.35 L-17.45 -69.85 -17.2 -70.6 Q-16.6 -71.05 -16.25 -71.9 L-13.75 -72.0 Q-13.45 -72.3 -13.45 -75.0 L-13.35 -75.55 Q-12.9 -76.75 -10.45 -76.75 L-9.7 -76.55 -9.25 -76.0 Q-8.95 -75.35 -8.15 -75.35 -7.75 -75.35 -6.45 -77.05 L-6.45 -77.15 Q-5.25 -78.9 -3.2 -78.9 -2.15 -78.9 -1.4 -77.15 L-1.3 -76.85 Q-0.45 -74.8 0.55 -74.8 L1.65 -75.45 Q2.75 -76.1 4.65 -76.1 L6.05 -75.65 6.3 -75.35 7.6 -73.85 8.85 -73.85 9.95 -74.5 11.45 -74.5 11.65 -73.3 11.45 -72.85 11.0 -71.9 11.0 -71.7 9.75 -69.2 8.35 -66.6 8.4 -66.55 8.3 -66.4 Q4.65 -65.95 4.65 -63.6 L4.65 -62.95 Q4.75 -62.4 5.1 -62.4 L5.5 -62.5 Q5.95 -64.6 7.6 -65.0 L7.05 -64.05 6.95 -63.9 6.7 -62.85 6.3 -62.5 6.2 -61.45 6.2 -61.0 Q6.3 -60.5 7.15 -60.5 7.6 -59.85 8.35 -59.5 L10.05 -59.1 9.85 -58.6 9.85 -58.0 Q10.05 -57.6 10.9 -57.6 11.35 -57.6 11.45 -58.6 L11.25 -59.4 Q12.2 -59.85 12.75 -60.9 L12.95 -61.15 13.15 -60.15 12.65 -59.2 Q12.2 -58.45 12.2 -58.0 12.2 -57.45 12.75 -56.6 L13.2 -55.4 Q13.2 -54.4 10.4 -53.55 L10.15 -53.45 10.15 -53.15 Q10.05 -56.05 7.05 -56.05 L5.55 -55.9 Q5.4 -55.8 5.4 -55.3 5.4 -54.95 5.65 -54.75 L5.55 -54.4 6.15 -53.15 Q4.75 -50.45 3.05 -50.0 L3.05 -50.2 Q2.85 -51.95 1.85 -53.35 L1.6 -53.8 -0.85 -56.2 Q-2.15 -57.3 -3.75 -56.9 -5.35 -56.6 -5.35 -55.8 L-5.15 -55.2 Q-4.65 -54.75 -3.25 -54.65 L-3.25 -54.4 -2.05 -52.25 Q-0.85 -50.2 -0.85 -48.7 L-0.85 -48.15 -0.95 -46.8 Q-1.2 -46.05 -2.15 -45.15 L-2.8 -44.75 -2.7 -44.75 -2.9 -44.65 Q-9.55 -45.05 -10.2 -43.95 L-10.25 -43.75 Q-10.25 -43.1 -9.35 -42.6 -8.6 -42.15 -8.4 -41.7 L-8.4 -41.5 Q-8.4 -40.75 -9.25 -40.15 -9.7 -39.75 -10.35 -39.45 L-12.4 -38.4 -12.25 -38.6 Q-12.4 -39.65 -13.35 -39.45 -14.45 -39.45 -14.45 -38.25 -14.95 -37.35 -13.05 -37.35 -12.25 -37.35 -12.25 -38.05 L-12.25 -38.15 -11.3 -37.25 Q-10.2 -36.2 -10.2 -35.75 -10.2 -34.35 -12.8 -33.95 L-12.85 -33.85 -12.35 -35.1 -12.4 -35.55 Q-12.6 -35.95 -13.05 -35.95 L-15.2 -36.0 Q-16.85 -36.2 -16.85 -37.0 L-16.25 -39.0 -15.7 -39.45 Q-15.05 -40.2 -15.05 -40.45 L-15.15 -41.05 Q-14.4 -41.85 -14.4 -42.45 L-14.45 -42.9 -15.3 -43.1 -16.25 -42.25 Q-17.0 -41.4 -18.5 -41.4 L-18.75 -41.4 -19.1 -41.8 -19.4 -42.55 -18.75 -43.45 -18.2 -44.2 -16.8 -44.4 Q-16.15 -44.75 -16.15 -45.15 L-16.7 -45.9 -19.0 -46.0 -19.6 -46.0 Q-21.4 -46.0 -21.9 -46.45 -22.2 -46.75 -22.2 -47.85 L-22.2 -48.05 -22.2 -48.15 -22.15 -48.7 Q-21.65 -49.15 -21.0 -49.25 L-20.0 -49.15 Q-18.65 -48.85 -18.65 -49.7 L-18.65 -49.8 -19.1 -50.55 Q-19.6 -51.2 -19.6 -51.6 -19.6 -54.0 -17.2 -54.0 -16.15 -54.0 -15.15 -53.0 L-13.35 -51.2 Q-12.6 -51.3 -12.6 -52.05 -12.6 -54.2 -15.8 -55.3 L-18.25 -55.5 Q-16.85 -56.6 -13.65 -56.9 L-13.45 -57.1 -10.85 -57.2 Q-10.25 -57.6 -10.25 -58.3 -10.25 -60.15 -12.7 -62.0 -13.15 -63.4 -15.2 -63.95 -17.35 -64.55 -19.35 -63.15 M15.85 -56.95 Q16.2 -56.6 16.2 -56.05 L16.2 -55.95 15.85 -56.95 M18.65 -62.95 L18.35 -61.45 Q17.8 -60.35 16.1 -60.35 14.8 -60.35 14.55 -61.35 14.35 -61.8 14.45 -62.4 14.45 -63.9 16.6 -64.7 L17.9 -64.8 Q18.65 -64.6 18.65 -62.95 M9.2 -70.7 Q9.2 -73.4 6.15 -72.95 3.05 -72.55 3.05 -70.2 L3.15 -69.55 Q3.35 -69.4 3.8 -69.4 4.15 -69.4 4.9 -70.4 5.65 -71.45 7.05 -71.15 7.05 -69.0 8.3 -69.0 9.2 -69.0 9.2 -70.7 M4.9 -66.0 Q4.9 -66.85 4.0 -67.05 3.05 -67.25 3.05 -66.2 2.7 -65.2 4.1 -65.2 4.35 -65.2 4.65 -65.45 L4.9 -66.0 M2.6 -71.15 Q2.6 -72.65 1.1 -72.85 -0.4 -73.1 -0.4 -71.7 L-0.05 -70.6 Q0.55 -69.65 1.6 -69.65 2.4 -69.65 2.6 -70.2 L2.6 -71.15 M1.85 -59.2 L1.85 -59.1 2.1 -58.95 2.85 -59.4 4.55 -59.6 5.3 -58.7 Q5.0 -57.7 5.2 -57.35 L6.2 -57.3 Q6.6 -57.3 6.6 -58.7 L6.5 -59.7 Q6.2 -60.25 5.0 -60.9 L3.0 -60.8 3.0 -60.9 1.85 -61.25 1.5 -61.25 -0.95 -60.6 -3.85 -62.85 Q-6.75 -64.45 -6.75 -61.55 -7.1 -60.8 -5.7 -60.8 L-4.6 -61.35 Q-4.0 -61.35 -2.7 -59.85 -1.4 -58.45 -0.45 -58.45 -0.05 -58.45 1.35 -59.0 L1.85 -59.2 M3.8 -56.15 Q3.8 -57.7 2.6 -58.0 L1.85 -57.95 Q1.3 -57.6 1.3 -56.55 1.0 -55.2 1.85 -54.8 L2.6 -54.75 Q3.4 -54.75 3.75 -55.2 L3.8 -56.15 M9.7 -50.85 L10.05 -50.85 Q12.2 -50.95 13.95 -51.95 13.05 -50.95 10.25 -50.0 L9.0 -49.6 9.6 -50.65 9.7 -50.85 M-13.05 -77.95 L-13.05 -77.55 Q-13.15 -76.9 -13.65 -76.4 L-14.85 -76.4 -15.2 -76.75 -15.3 -77.05 -14.85 -77.95 -14.2 -78.4 -13.25 -78.55 -13.05 -77.95 M-4.5 -81.05 Q-4.5 -80.45 -4.75 -80.0 L-4.95 -79.95 Q-5.5 -79.3 -6.55 -79.3 -7.3 -79.3 -7.55 -79.8 L-7.75 -80.7 -7.55 -81.7 Q-7.2 -82.6 -6.05 -82.7 -4.95 -82.8 -4.6 -81.95 L-4.5 -81.05 M-21.9 -65.1 Q-21.9 -64.55 -22.3 -64.05 -22.65 -63.5 -23.15 -63.5 -24.6 -63.5 -24.55 -65.1 L-24.55 -65.3 -24.55 -65.35 Q-24.55 -66.3 -23.95 -66.6 L-23.2 -66.75 Q-21.9 -66.7 -21.9 -65.1 M-20.9 -56.45 Q-20.9 -55.8 -21.25 -55.2 -21.8 -54.3 -23.05 -54.3 -24.6 -54.3 -25.1 -55.55 L-25.2 -56.9 Q-25.2 -57.85 -24.8 -58.3 -24.35 -59.0 -23.05 -58.95 -20.9 -58.75 -20.9 -56.45 M-1.7 -69.75 Q-1.7 -71.8 -4.65 -71.6 -7.75 -71.45 -7.75 -68.55 -7.75 -68.0 -6.8 -67.7 L-6.15 -68.8 -5.25 -70.15 -4.1 -70.2 Q-3.65 -69.85 -3.55 -69.3 -3.45 -69.0 -2.55 -69.0 -1.7 -69.0 -1.7 -69.75 M-3.55 -49.45 Q-3.55 -53.35 -6.0 -53.75 -8.4 -54.1 -8.4 -50.55 -8.6 -49.6 -8.4 -48.95 L-7.85 -48.15 Q-7.3 -47.75 -6.25 -47.75 -4.85 -47.75 -4.2 -48.15 -3.55 -48.6 -3.55 -49.45 M-5.05 -58.3 Q-5.05 -60.4 -6.55 -60.35 -8.15 -60.25 -8.15 -57.95 -8.15 -57.2 -7.45 -56.55 L-6.25 -56.55 Q-5.05 -56.7 -5.05 -58.3 M-8.95 -54.3 Q-8.95 -55.8 -10.35 -55.8 -11.75 -55.9 -11.75 -54.2 -12.15 -52.8 -10.45 -52.8 -9.35 -52.8 -9.05 -53.35 -8.95 -53.45 -8.95 -54.3 M-14.95 -49.7 Q-14.95 -52.05 -16.35 -52.25 -17.75 -52.35 -17.75 -50.85 L-17.55 -49.9 Q-17.1 -48.7 -15.95 -48.7 -14.95 -48.7 -14.95 -49.7 M-13.35 -65.85 Q-13.35 -67.25 -14.2 -67.5 -15.15 -67.8 -15.15 -66.3 -15.2 -65.45 -14.75 -65.1 -14.45 -64.8 -13.8 -64.8 L-13.45 -65.0 -13.45 -65.1 -13.35 -65.85 M-7.95 -63.9 Q-7.95 -65.0 -8.95 -65.0 -10.1 -65.0 -10.1 -64.05 -10.2 -62.75 -8.95 -62.75 -7.95 -62.75 -7.95 -63.9 M-0.85 -65.55 Q-0.85 -67.6 -3.1 -67.15 -5.35 -66.75 -5.35 -65.55 L-5.25 -65.1 -4.95 -64.6 -3.75 -63.7 -2.25 -63.6 Q-1.15 -64.25 -0.95 -64.6 L-0.85 -65.1 -0.85 -65.55 M-8.5 -70.8 Q-8.5 -73.2 -10.25 -73.7 -12.15 -74.05 -12.15 -71.55 -12.35 -68.65 -9.9 -68.65 -8.7 -68.65 -8.5 -69.55 L-8.5 -70.8 M-2.7 -74.05 Q-2.7 -76.3 -4.2 -76.4 -5.8 -76.5 -5.8 -73.85 -6.15 -72.45 -4.5 -72.45 -2.7 -72.45 -2.7 -74.05 M-11.1 -45.25 L-11.2 -46.15 Q-11.6 -47.45 -13.0 -47.0 L-13.35 -46.8 Q-14.75 -46.35 -14.85 -45.4 L-14.95 -45.15 Q-15.3 -43.55 -12.9 -43.55 -11.75 -43.55 -11.3 -44.2 L-11.1 -45.25 M-10.45 -40.75 Q-10.45 -41.85 -11.4 -41.7 -12.35 -41.5 -12.35 -40.95 -12.15 -39.8 -11.3 -39.8 -10.45 -39.8 -10.45 -40.75" fill="#f7e2c5" fill-rule="evenodd" stroke="none"/>
    <path d="M-12.25 -38.15 L-12.25 -38.05 Q-12.25 -37.35 -13.05 -37.35 -14.95 -37.35 -14.45 -38.25 -14.45 -39.45 -13.35 -39.45 -12.4 -39.65 -12.25 -38.6 L-12.4 -38.4 -12.25 -38.15 M11.25 -59.4 L11.45 -58.6 Q11.35 -57.6 10.9 -57.6 10.05 -57.6 9.85 -58.0 L9.85 -58.6 10.05 -59.1 10.9 -59.2 11.25 -59.4 M7.15 -60.5 Q6.3 -60.5 6.2 -61.0 L6.2 -61.45 6.3 -62.5 6.7 -62.85 Q6.5 -62.1 6.8 -61.35 L7.15 -60.5 M2.6 -71.15 L2.6 -70.2 Q2.4 -69.65 1.6 -69.65 0.55 -69.65 -0.05 -70.6 L-0.4 -71.7 Q-0.4 -73.1 1.1 -72.85 2.6 -72.65 2.6 -71.15 M4.9 -66.0 L4.65 -65.45 Q4.35 -65.2 4.1 -65.2 2.7 -65.2 3.05 -66.2 3.05 -67.25 4.0 -67.05 4.9 -66.85 4.9 -66.0 M3.8 -56.15 L3.75 -55.2 Q3.4 -54.75 2.6 -54.75 L1.85 -54.8 Q1.0 -55.2 1.3 -56.55 1.3 -57.6 1.85 -57.95 L2.6 -58.0 Q3.8 -57.7 3.8 -56.15 M6.5 -18.3 Q6.5 -16.8 5.1 -16.65 L4.75 -16.65 Q3.0 -16.65 2.85 -19.95 2.85 -23.35 4.75 -22.3 L4.9 -22.2 Q6.5 -21.2 6.5 -18.3 M-2.7 -74.05 Q-2.7 -72.45 -4.5 -72.45 -6.15 -72.45 -5.8 -73.85 -5.8 -76.5 -4.2 -76.4 -2.7 -76.3 -2.7 -74.05 M-8.5 -70.8 L-8.5 -69.55 Q-8.7 -68.65 -9.9 -68.65 -12.35 -68.65 -12.15 -71.55 -12.15 -74.05 -10.25 -73.7 -8.5 -73.2 -8.5 -70.8 M-0.85 -65.55 L-0.85 -65.1 -0.95 -64.6 Q-1.15 -64.25 -2.25 -63.6 L-3.75 -63.7 -4.95 -64.6 -5.25 -65.1 -5.35 -65.55 Q-5.35 -66.75 -3.1 -67.15 -0.85 -67.6 -0.85 -65.55 M-7.95 -63.9 Q-7.95 -62.75 -8.95 -62.75 -10.2 -62.75 -10.1 -64.05 -10.1 -65.0 -8.95 -65.0 -7.95 -65.0 -7.95 -63.9 M-13.35 -65.85 L-13.45 -65.1 -13.45 -65.0 -13.8 -64.8 Q-14.45 -64.8 -14.75 -65.1 -15.2 -65.45 -15.15 -66.3 -15.15 -67.8 -14.2 -67.5 -13.35 -67.25 -13.35 -65.85 M-14.95 -49.7 Q-14.95 -48.7 -15.95 -48.7 -17.1 -48.7 -17.55 -49.9 L-17.75 -50.85 Q-17.75 -52.35 -16.35 -52.25 -14.95 -52.05 -14.95 -49.7 M-8.95 -54.3 Q-8.95 -53.45 -9.05 -53.35 -9.35 -52.8 -10.45 -52.8 -12.15 -52.8 -11.75 -54.2 -11.75 -55.9 -10.35 -55.8 -8.95 -55.8 -8.95 -54.3 M-5.05 -58.3 Q-5.05 -56.7 -6.25 -56.55 L-7.45 -56.55 Q-8.15 -57.2 -8.15 -57.95 -8.15 -60.25 -6.55 -60.35 -5.05 -60.4 -5.05 -58.3 M-3.55 -49.45 Q-3.55 -48.6 -4.2 -48.15 -4.85 -47.75 -6.25 -47.75 -7.3 -47.75 -7.85 -48.15 L-8.4 -48.95 Q-8.6 -49.6 -8.4 -50.55 -8.4 -54.1 -6.0 -53.75 -3.55 -53.35 -3.55 -49.45 M-11.1 -45.25 L-11.3 -44.2 Q-11.75 -43.55 -12.9 -43.55 -15.3 -43.55 -14.95 -45.15 L-14.85 -45.4 Q-14.75 -46.35 -13.35 -46.8 L-13.0 -47.0 Q-11.6 -47.45 -11.2 -46.15 L-11.1 -45.25 M-10.45 -40.75 Q-10.45 -39.8 -11.3 -39.8 -12.15 -39.8 -12.35 -40.95 -12.35 -41.5 -11.4 -41.7 -10.45 -41.85 -10.45 -40.75 M-7.95 -18.3 Q-7.95 -17.65 -8.4 -17.15 -8.85 -16.65 -9.45 -16.65 L-9.6 -16.65 Q-11.1 -16.65 -11.65 -18.55 L-11.85 -20.55 Q-11.85 -23.9 -9.9 -22.5 L-9.55 -22.2 Q-7.95 -20.9 -7.95 -18.3" fill="#fff5e7" fill-rule="evenodd" stroke="none"/>
    <path d="M5.65 -54.75 Q5.4 -54.95 5.4 -55.3 5.4 -55.8 5.55 -55.9 L7.05 -56.05 Q10.05 -56.05 10.15 -53.15 L10.15 -53.1 10.15 -52.5 9.85 -51.0 9.7 -50.85 9.6 -50.65 8.85 -49.8 8.55 -49.55 7.8 -48.7 6.3 -48.8 6.2 -48.85 Q5.85 -49.35 5.85 -49.8 6.95 -49.25 7.9 -50.55 L8.45 -51.3 8.75 -52.15 Q8.75 -54.5 5.85 -54.65 L5.65 -54.75 M3.0 -60.8 L5.0 -60.9 Q6.2 -60.25 6.5 -59.7 L6.6 -58.7 Q6.6 -57.3 6.2 -57.3 L5.2 -57.35 Q5.0 -57.7 5.3 -58.7 L4.55 -59.6 2.85 -59.4 2.1 -58.95 1.85 -59.1 1.85 -59.2 1.35 -59.6 Q1.35 -60.15 1.85 -60.4 2.25 -60.7 3.0 -60.8" fill="#cdad80" fill-rule="evenodd" stroke="none"/>
    <path d="M20.15 -59.1 L20.2 -59.4 Q20.8 -60.4 20.8 -62.3 L20.3 -64.9 19.4 -66.2 19.3 -66.4 19.8 -67.4 Q21.15 -64.55 21.15 -61.25 L21.15 -55.8 Q20.5 -53.9 19.3 -52.15 17.5 -49.55 14.55 -47.3 L13.15 -46.25 Q9.2 -43.55 4.45 -42.35 L-0.8 -41.5 Q-0.45 -41.85 -0.45 -42.25 L-0.2 -43.45 Q7.45 -44.2 13.15 -48.5 19.2 -53.15 20.15 -59.1 M-28.0 -58.35 L-28.0 -61.25 Q-28.0 -67.4 -23.4 -72.2 L-23.4 -71.35 -23.3 -70.9 Q-24.45 -69.75 -25.1 -68.45 -26.95 -67.35 -27.15 -65.1 L-27.25 -64.35 -26.95 -62.4 -27.05 -61.25 -27.05 -60.8 -26.95 -60.25 -27.5 -59.5 -28.0 -58.35" fill="#fff2f0" fill-rule="evenodd" stroke="none"/>
    <path d="M-20.0 3.4 L-20.5 2.95 Q-24.9 -0.4 -26.5 -4.5 -29.85 -9.05 -29.85 -14.65 L-29.85 -61.25 Q-29.85 -69.85 -22.0 -75.9 -20.25 -77.3 -18.25 -78.3 L-19.0 -75.75 -19.1 -75.65 Q-22.4 -74.7 -23.15 -73.6 L-23.4 -72.2 Q-28.0 -67.4 -28.0 -61.25 L-28.0 -58.35 -28.35 -55.8 Q-28.35 -54.3 -28.0 -53.35 L-28.0 -51.3 -28.1 -50.35 -28.0 -49.15 -28.0 -14.65 Q-28.0 -9.65 -24.9 -5.45 L-24.8 -5.35 Q-23.2 -3.3 -20.9 -1.4 -13.65 4.3 -3.45 4.3 6.7 4.3 13.95 -1.4 16.5 -3.4 18.15 -5.5 19.3 -7.1 20.05 -8.9 L19.3 -8.9 18.1 -9.05 Q17.25 -9.35 16.7 -9.9 15.55 -11.05 15.55 -12.6 15.55 -14.2 16.7 -15.25 17.7 -16.35 19.3 -16.35 L21.15 -16.35 21.15 -42.25 19.3 -42.25 18.75 -42.25 18.1 -42.45 Q17.25 -42.7 16.7 -43.25 15.55 -44.4 15.55 -46.0 15.55 -47.55 16.7 -48.6 17.7 -49.7 19.3 -49.7 L21.15 -49.7 21.15 -55.8 21.15 -61.25 Q21.15 -64.55 19.8 -67.4 L20.05 -68.0 Q20.4 -69.1 20.4 -70.3 23.0 -66.2 23.0 -61.25 L23.0 -49.6 Q26.9 -49.35 29.8 -46.45 L29.65 -46.55 Q33.25 -43.2 33.25 -38.5 L33.25 -20.05 Q33.25 -15.3 29.65 -12.05 26.45 -9.0 22.05 -8.9 21.2 -6.55 19.75 -4.5 L19.75 -4.4 Q17.9 -0.3 13.6 2.95 L13.0 3.4 Q6.1 8.55 -3.45 8.55 -13.0 8.55 -20.0 3.4 M21.9 -47.85 L19.3 -47.85 Q18.55 -47.85 18.0 -47.3 17.4 -46.75 17.4 -46.0 17.4 -45.25 18.0 -44.65 L18.75 -44.2 19.2 -44.1 21.9 -44.1 23.0 -44.0 Q24.6 -43.75 25.8 -42.55 L25.9 -42.45 Q27.65 -40.85 27.65 -38.6 L27.65 -20.05 Q27.65 -17.8 25.9 -16.25 L25.8 -16.15 Q24.6 -14.95 23.0 -14.6 L21.9 -14.5 19.3 -14.5 Q18.55 -14.5 18.0 -13.9 17.4 -13.35 17.4 -12.6 17.4 -11.85 18.0 -11.3 L18.75 -10.85 19.3 -10.75 21.9 -10.75 22.6 -10.75 Q26.0 -11.05 28.4 -13.45 L28.5 -13.55 Q31.4 -16.25 31.4 -20.05 L31.4 -38.6 Q31.4 -42.35 28.4 -45.15 26.1 -47.45 23.0 -47.75 L21.9 -47.85 M24.5 -41.15 L23.0 -42.05 23.0 -16.5 24.4 -17.4 24.7 -17.65 Q25.8 -18.65 25.8 -20.05 L25.8 -38.5 Q25.8 -40.0 24.6 -41.05 L24.5 -41.15 M-3.45 6.1 Q-10.55 6.1 -16.25 3.6 -10.65 6.7 -3.45 6.7 3.75 6.7 9.3 3.6 3.5 6.1 -3.45 6.1" fill="#878787" fill-rule="evenodd" stroke="none"/>
    <path d="M19.3 -49.7 L19.3 -52.15 Q20.5 -53.9 21.15 -55.8 L21.15 -49.7 19.3 -49.7 M27.75 -44.5 Q25.7 -46.55 23.0 -46.8 L22.55 -46.9 21.9 -46.65 Q21.55 -46.45 21.55 -46.0 21.55 -45.7 21.8 -45.35 21.95 -45.05 22.45 -45.05 L23.0 -44.95 Q24.95 -44.65 26.45 -43.2 L26.45 -43.1 Q28.6 -41.2 28.6 -38.6 28.6 -38.25 28.9 -38.0 29.15 -37.65 29.55 -37.65 29.9 -37.65 30.2 -38.0 L30.45 -38.6 Q30.45 -41.95 27.75 -44.5 M21.9 -47.85 L23.0 -47.75 Q26.1 -47.45 28.4 -45.15 31.4 -42.35 31.4 -38.6 L31.4 -20.05 Q31.4 -16.25 28.5 -13.55 L28.4 -13.45 Q26.0 -11.05 22.6 -10.75 L21.9 -10.75 19.3 -10.75 18.75 -10.85 18.0 -11.3 Q17.4 -11.85 17.4 -12.6 17.4 -13.35 18.0 -13.9 18.55 -14.5 19.3 -14.5 L21.9 -14.5 23.0 -14.6 Q24.6 -14.95 25.8 -16.15 L25.9 -16.25 Q27.65 -17.8 27.65 -20.05 L27.65 -38.6 Q27.65 -40.85 25.9 -42.45 L25.8 -42.55 Q24.6 -43.75 23.0 -44.0 L21.9 -44.1 19.2 -44.1 18.75 -44.2 18.0 -44.65 Q17.4 -45.25 17.4 -46.0 17.4 -46.75 18.0 -47.3 18.55 -47.85 19.3 -47.85 L21.9 -47.85 M19.3 -42.25 L21.15 -42.25 21.15 -16.35 19.3 -16.35 19.3 -42.25 M18.1 -9.05 L19.3 -8.9 20.05 -8.9 Q19.3 -7.1 18.15 -5.5 16.5 -3.4 13.95 -1.4 6.7 4.3 -3.45 4.3 -13.65 4.3 -20.9 -1.4 -23.2 -3.3 -24.8 -5.35 L-24.9 -5.45 Q-28.0 -9.65 -28.0 -14.65 L-28.0 -49.15 -27.7 -48.15 -27.6 -48.05 Q-27.05 -46.9 -26.1 -46.45 L-26.1 -45.7 -26.1 -14.6 Q-26.1 -7.65 -19.5 -2.65 L-19.0 -2.25 -18.35 -1.8 -12.6 1.0 -12.15 1.2 -11.85 1.3 -11.1 1.5 -10.45 1.65 -9.25 1.95 -3.45 2.4 -3.0 2.4 -2.6 2.4 -2.15 2.4 -1.7 2.4 -1.4 2.4 -0.95 2.4 -0.1 2.3 Q3.25 1.95 6.15 0.9 L7.35 0.45 Q10.15 -0.75 12.55 -2.65 L13.2 -3.1 Q16.6 -5.8 18.1 -9.05 M-28.0 -51.3 L-28.0 -53.35 -27.25 -52.5 Q-27.8 -52.15 -28.0 -51.3" fill="#e2d8d6" fill-rule="evenodd" stroke="none"/>
    <path d="M19.3 -52.15 L19.3 -49.7 Q17.7 -49.7 16.7 -48.6 15.55 -47.55 15.55 -46.0 15.55 -44.4 16.7 -43.25 17.25 -42.7 18.1 -42.45 16.5 -39.0 12.75 -36.2 L12.65 -38.4 Q12.65 -40.85 13.15 -41.95 L13.15 -46.25 14.55 -47.3 Q17.5 -49.55 19.3 -52.15 M-18.85 -38.75 L-19.1 -35.85 -19.4 -36.0 -19.5 -36.1 Q-25.35 -40.45 -26.0 -46.35 L-25.0 -46.05 -24.8 -44.75 Q-24.25 -44.0 -21.8 -43.35 L-22.3 -41.7 Q-22.4 -40.95 -21.8 -40.2 -21.0 -39.05 -18.85 -38.75" fill="#c2ac8e" fill-rule="evenodd" stroke="none"/>
    <path d="M13.15 -46.25 L13.15 -41.95 Q12.65 -40.85 12.65 -38.4 L12.75 -36.2 12.55 -36.1 Q9.2 -33.6 5.1 -32.3 L4.75 -32.2 4.65 -32.1 4.45 -42.35 Q9.2 -43.55 13.15 -46.25 M-18.85 -38.75 L-18.25 -38.6 -18.35 -37.35 -18.1 -35.75 -14.45 -34.35 -14.95 -33.4 -19.1 -35.85 -18.85 -38.75" fill="#d4bd9e" fill-rule="evenodd" stroke="none"/>
    <path d="M12.75 -36.2 Q16.5 -39.0 18.1 -42.45 L18.75 -42.25 Q17.4 -38.0 12.85 -34.45 L12.65 -34.2 12.65 -35.0 12.75 -36.2 M-26.1 -45.7 L-26.1 -46.45 -26.0 -46.35 Q-25.35 -40.45 -19.5 -36.1 L-19.4 -36.0 -19.25 -35.85 -19.25 -35.25 Q-19.1 -34.6 -19.1 -33.95 L-19.5 -34.2 Q-25.95 -39.05 -26.1 -45.7" fill="#a37d6c" fill-rule="evenodd" stroke="none"/>
    <path d="M4.65 -32.1 Q0.95 -31.05 -3.45 -31.05 L-8.5 -31.35 Q-7.95 -32.1 -7.65 -32.95 L-7.0 -35.25 -5.6 -37.25 Q-4.5 -38.9 -4.85 -39.8 -1.7 -40.45 -0.8 -41.5 L4.45 -42.35 4.65 -32.1 M6.5 -18.3 Q6.5 -21.2 4.9 -22.2 L4.75 -22.3 Q2.85 -23.35 2.85 -19.95 3.0 -16.65 4.75 -16.65 L5.1 -16.65 Q6.5 -16.8 6.5 -18.3 M7.55 -18.45 Q7.55 -16.05 6.4 -14.25 5.95 -13.55 5.4 -13.2 L4.0 -12.8 Q2.6 -12.8 1.65 -14.25 0.45 -16.05 0.45 -18.45 0.45 -20.9 1.65 -22.6 2.6 -24.15 4.0 -24.15 L4.9 -24.0 Q5.75 -23.6 6.4 -22.6 7.55 -20.9 7.55 -18.45 M-7.4 -18.45 Q-7.4 -16.05 -8.5 -14.25 L-9.45 -13.25 Q-10.1 -12.8 -10.95 -12.8 -12.35 -12.8 -13.25 -14.25 -14.45 -16.05 -14.45 -18.45 -14.45 -20.9 -13.25 -22.6 -12.35 -24.15 -10.95 -24.15 -10.2 -24.15 -9.55 -23.7 -8.95 -23.35 -8.5 -22.6 -7.4 -20.9 -7.4 -18.45 M-7.95 -18.3 Q-7.95 -20.9 -9.55 -22.2 L-9.9 -22.5 Q-11.85 -23.9 -11.85 -20.55 L-11.65 -18.55 Q-11.1 -16.65 -9.6 -16.65 L-9.45 -16.65 Q-8.85 -16.65 -8.4 -17.15 -7.95 -17.65 -7.95 -18.3" fill="#e2ceb3" fill-rule="evenodd" stroke="none"/>
    <path d="M-9.45 -30.6 L-9.35 -29.75 -9.8 -29.85 -12.05 -30.4 Q-12.15 -30.4 -12.25 -30.5 L-17.85 -33.05 -18.6 -33.6 -18.75 -33.7 -19.1 -33.95 Q-19.1 -34.6 -19.25 -35.25 L-19.25 -35.85 -19.4 -36.0 -19.1 -35.85 -14.95 -33.4 Q-15.3 -32.65 -15.15 -32.2 -14.45 -30.9 -9.55 -30.5 L-9.45 -30.6 M4.1 -30.05 Q4.35 -30.25 4.75 -30.35 L4.75 -30.5 4.75 -32.2 5.1 -32.3 Q9.2 -33.6 12.55 -36.1 L12.75 -36.2 12.65 -35.0 12.65 -34.2 12.55 -34.2 Q10.35 -32.55 7.7 -31.35 L5.1 -30.4 4.9 -30.3 4.9 -30.35 4.75 -30.25 4.65 -30.25 4.1 -30.05" fill="#b78d7a" fill-rule="evenodd" stroke="none"/>
    <path d="M4.65 -32.1 L4.75 -32.2 4.75 -30.5 4.75 -30.35 Q4.35 -30.25 4.1 -30.05 L3.75 -29.95 -1.8 -29.2 -2.05 -29.2 -2.9 -29.2 -3.45 -29.2 -3.95 -29.2 -7.95 -29.5 -9.35 -29.75 -9.45 -30.6 -8.5 -31.35 -3.45 -31.05 Q0.95 -31.05 4.65 -32.1" fill="#c99b86" fill-rule="evenodd" stroke="none"/>
    <path d="M-7.95 -29.5 L-3.95 -29.2 -3.45 -29.2 -2.9 -29.2 -2.05 -29.2 -1.8 -29.2 3.75 -29.95 4.1 -30.05 4.65 -30.25 4.75 -30.25 4.9 -30.35 4.9 -30.3 4.9 -25.95 4.0 -26.05 Q1.65 -26.05 0.1 -23.6 -1.4 -21.45 -1.4 -18.45 -1.4 -15.5 0.1 -13.25 1.65 -10.95 4.0 -10.95 L5.5 -11.1 6.15 0.9 Q3.25 1.95 -0.1 2.3 L-0.95 2.4 -1.4 2.4 -1.7 2.4 -2.15 2.4 -2.6 2.4 -3.0 2.4 -3.45 2.4 -9.25 1.95 -9.25 -10.0 -9.35 -11.2 Q-8.05 -11.8 -6.9 -13.25 -5.5 -15.5 -5.5 -18.45 -5.5 -21.45 -6.9 -23.6 -8.05 -25.3 -9.45 -25.75 L-9.25 -29.65 -7.95 -29.5" fill="#8a4338" fill-rule="evenodd" stroke="none"/>
    <path d="M12.85 -34.45 L12.85 -33.7 13.3 -10.95 13.2 -3.1 12.55 -2.65 Q10.15 -0.75 7.35 0.45 L6.15 0.9 5.5 -11.1 Q6.9 -11.7 8.0 -13.25 9.4 -15.5 9.4 -18.45 9.4 -21.45 8.0 -23.6 6.7 -25.55 4.9 -25.95 L4.9 -30.3 5.1 -30.4 7.7 -31.35 Q10.35 -32.55 12.55 -34.2 L12.65 -34.2 12.85 -34.45 M-9.35 -29.75 L-7.95 -29.5 -9.25 -29.65 -9.45 -25.75 -10.95 -26.05 Q-13.25 -26.05 -14.85 -23.6 -16.35 -21.45 -16.35 -18.45 -16.35 -15.5 -14.85 -13.25 -13.25 -10.95 -10.95 -10.95 L-9.35 -11.2 -9.25 -10.0 -9.25 1.95 -10.45 1.65 -11.1 1.5 -11.85 1.3 -12.15 1.2 -12.6 1.0 -18.35 -1.8 -19.0 -2.25 -19.0 -3.2 -19.0 -14.85 -19.0 -28.55 -18.75 -33.7 -18.6 -33.6 -17.85 -33.05 -12.25 -30.5 Q-12.15 -30.4 -12.05 -30.4 L-9.8 -29.85 -9.35 -29.75" fill="#7b392e" fill-rule="evenodd" stroke="none"/>
    <path d="M18.75 -42.25 L19.3 -42.25 19.3 -16.35 Q17.7 -16.35 16.7 -15.25 15.55 -14.2 15.55 -12.6 15.55 -11.05 16.7 -9.9 17.25 -9.35 18.1 -9.05 16.6 -5.8 13.2 -3.1 L13.3 -10.95 12.85 -33.7 12.85 -34.45 Q17.4 -38.0 18.75 -42.25 M5.5 -11.1 L4.0 -10.95 Q1.65 -10.95 0.1 -13.25 -1.4 -15.5 -1.4 -18.45 -1.4 -21.45 0.1 -23.6 1.65 -26.05 4.0 -26.05 L4.9 -25.95 Q6.7 -25.55 8.0 -23.6 9.4 -21.45 9.4 -18.45 9.4 -15.5 8.0 -13.25 6.9 -11.7 5.5 -11.1 M7.55 -18.45 Q7.55 -20.9 6.4 -22.6 5.75 -23.6 4.9 -24.0 L4.0 -24.15 Q2.6 -24.15 1.65 -22.6 0.45 -20.9 0.45 -18.45 0.45 -16.05 1.65 -14.25 2.6 -12.8 4.0 -12.8 L5.4 -13.2 Q5.95 -13.55 6.4 -14.25 7.55 -16.05 7.55 -18.45 M-19.0 -2.25 L-19.5 -2.65 Q-26.1 -7.65 -26.1 -14.6 L-26.1 -45.7 Q-25.95 -39.05 -19.5 -34.2 L-19.1 -33.95 -18.75 -33.7 -19.0 -28.55 -19.0 -14.85 -19.0 -3.2 -19.0 -2.25 M-9.35 -11.2 L-10.95 -10.95 Q-13.25 -10.95 -14.85 -13.25 -16.35 -15.5 -16.35 -18.45 -16.35 -21.45 -14.85 -23.6 -13.25 -26.05 -10.95 -26.05 L-9.45 -25.75 Q-8.05 -25.3 -6.9 -23.6 -5.5 -21.45 -5.5 -18.45 -5.5 -15.5 -6.9 -13.25 -8.05 -11.8 -9.35 -11.2 M-7.4 -18.45 Q-7.4 -20.9 -8.5 -22.6 -8.95 -23.35 -9.55 -23.7 -10.2 -24.15 -10.95 -24.15 -12.35 -24.15 -13.25 -22.6 -14.45 -20.9 -14.45 -18.45 -14.45 -16.05 -13.25 -14.25 -12.35 -12.8 -10.95 -12.8 -10.1 -12.8 -9.45 -13.25 L-8.5 -14.25 Q-7.4 -16.05 -7.4 -18.45" fill="#6d2d23" fill-rule="evenodd" stroke="none"/>
    <path d="M-3.45 6.1 Q3.5 6.1 9.3 3.6 3.75 6.7 -3.45 6.7 -10.65 6.7 -16.25 3.6 -10.55 6.1 -3.45 6.1" fill="#a39b9a" fill-rule="evenodd" stroke="none"/>
  </g>
</svg>
