<?xml version="1.0" encoding="UTF-8" standalone="no"?>
<svg xmlns:ffdec="https://www.free-decompiler.com/flash" xmlns:xlink="http://www.w3.org/1999/xlink" ffdec:objectType="shape" height="307.5px" width="199.95px" xmlns="http://www.w3.org/2000/svg">
  <g transform="matrix(1.0, 0.0, 0.0, 1.0, 0.0, 0.0)">
    <path d="M133.2 1.6 Q133.3 1.25 134.8 0.85 L137.35 0.45 Q140.2 0.45 142.8 2.15 145.35 3.85 146.0 3.85 L147.95 3.35 Q149.15 2.95 151.5 3.35 L153.05 2.55 Q154.5 1.65 156.05 1.65 156.35 1.65 160.65 4.05 L163.65 2.7 Q163.65 2.2 165.3 1.75 L168.05 1.3 171.1 1.85 173.9 2.35 Q175.05 2.25 176.6 3.3 178.2 4.35 179.2 4.35 180.65 4.35 182.5 3.1 184.35 1.8 186.05 1.8 L187.5 2.25 188.9 2.7 189.5 2.2 Q190.3 1.7 191.45 1.6 L193.0 1.35 193.85 1.2 Q194.5 1.2 194.55 1.45 L194.5 1.7 199.95 1.35 199.95 1.75 194.35 2.2 194.05 1.95 193.9 1.65 189.15 3.25 Q188.65 3.25 187.85 2.8 187.0 2.35 186.5 2.35 183.6 2.35 182.05 3.6 180.5 4.85 178.9 4.85 178.35 4.85 176.85 3.85 175.3 2.8 174.95 2.8 L171.5 2.3 168.05 1.8 166.4 1.65 Q165.5 1.6 165.5 2.2 L160.45 4.6 155.75 2.1 Q154.7 2.1 153.6 3.0 152.55 3.85 151.75 3.85 L149.95 3.5 148.45 3.25 Q147.75 3.35 146.8 3.9 L145.95 4.4 Q145.2 4.4 142.6 2.7 139.95 0.95 137.3 0.95 134.95 0.95 133.2 1.6 M0.0 29.45 L0.0 28.95 2.55 28.55 5.2 28.1 Q5.75 28.1 7.5 28.85 9.25 29.65 12.45 29.75 14.75 29.8 17.0 30.55 L19.25 31.3 23.15 30.7 25.7 30.1 28.0 30.55 30.25 31.0 32.7 30.55 35.15 30.05 36.2 30.0 34.35 30.5 31.95 31.2 28.75 31.0 25.7 30.6 25.15 30.45 25.15 30.65 24.85 30.95 24.6 31.05 22.95 31.4 19.25 31.8 17.25 31.05 Q14.7 30.25 11.95 30.25 L8.7 30.05 Q8.25 30.0 7.0 29.35 L6.4 29.0 6.4 28.95 5.7 28.65 3.95 28.85 3.6 28.85 2.8 29.05 0.3 29.45 0.0 29.45 M0.0 6.2 L0.0 5.75 0.4 5.7 Q0.75 5.7 1.85 4.1 2.95 2.45 6.4 2.45 L9.15 3.6 Q11.8 4.75 12.25 4.75 L13.65 4.4 14.95 4.05 16.15 4.45 17.4 4.8 19.75 3.65 Q22.15 2.45 23.6 2.45 25.2 2.45 28.25 3.5 L31.15 4.55 33.4 4.5 Q34.85 4.35 34.85 3.7 34.85 3.1 35.05 3.2 L35.95 3.4 40.55 5.2 41.6 4.85 41.55 4.95 41.45 5.75 40.6 5.75 Q39.8 5.75 38.4 4.85 37.05 3.9 35.85 3.9 32.7 5.1 31.15 5.1 L28.8 4.05 26.9 3.9 Q25.55 3.85 25.55 3.25 25.55 2.65 25.0 2.75 L23.7 2.95 Q22.15 2.95 20.05 4.15 17.95 5.3 17.45 5.3 L16.4 4.95 Q15.8 4.55 15.3 4.55 L13.6 4.9 10.65 5.2 Q10.45 5.2 8.55 4.1 6.6 2.95 6.35 2.95 3.35 2.95 2.25 4.6 1.2 6.2 0.4 6.2 L0.0 6.2 M42.45 4.25 Q43.55 3.35 44.55 3.35 45.05 3.35 46.65 4.05 L49.05 5.0 50.35 4.75 51.5 4.45 52.25 4.85 53.25 5.15 54.35 4.1 Q55.5 3.05 57.7 3.05 58.5 3.05 61.25 5.0 L63.6 4.95 64.9 3.6 Q65.85 2.6 67.0 2.35 L65.95 3.3 63.55 5.65 61.25 5.5 Q60.9 5.5 59.65 4.55 L57.7 3.55 55.95 3.85 54.65 4.4 53.85 5.3 53.45 5.7 Q52.95 5.7 52.45 5.35 L51.4 4.95 49.95 5.25 49.05 5.5 46.75 4.55 Q45.15 3.85 44.6 3.85 L42.45 4.25 M67.65 2.25 L67.85 2.25 Q69.8 2.25 71.6 3.65 73.2 4.85 75.4 5.0 73.65 5.65 72.7 5.4 L71.75 4.0 Q71.35 3.55 69.45 3.3 67.75 3.05 67.75 2.75 L67.65 2.25 M76.1 5.0 L76.65 4.75 77.05 4.45 77.7 4.95 Q78.2 5.45 78.75 5.45 L81.9 5.1 Q81.7 4.5 82.2 3.5 82.8 2.35 84.05 2.35 86.8 2.35 87.1 3.5 87.35 4.6 89.1 4.6 93.55 4.6 95.0 2.7 L95.7 1.55 95.05 2.85 Q93.65 5.1 89.0 5.1 86.75 5.1 86.6 4.0 86.5 2.85 84.15 2.85 82.95 2.85 82.75 3.35 L82.65 4.4 Q82.55 5.95 78.6 5.95 78.05 5.95 77.9 5.55 L77.4 5.0 Q76.8 4.8 76.45 5.25 76.5 5.05 76.1 5.0 M96.1 0.85 Q96.5 0.25 97.0 0.0 L98.15 0.2 Q101.1 0.75 102.55 2.45 L103.9 3.95 106.4 3.55 107.9 3.1 108.15 2.25 Q108.15 1.65 108.6 1.55 L109.65 1.4 110.7 1.6 Q112.45 1.65 114.1 2.45 115.95 3.4 115.95 4.6 115.95 5.1 116.3 5.6 L116.35 5.65 Q117.55 5.45 118.85 4.0 120.35 2.3 122.0 2.3 122.5 2.3 122.8 2.85 123.1 3.45 123.95 3.7 L125.9 3.5 127.0 3.8 128.4 4.15 129.55 3.8 130.45 3.15 131.2 2.75 131.05 2.85 128.4 4.75 126.6 4.5 124.25 4.25 Q122.9 4.25 122.65 3.55 122.35 2.8 121.95 2.8 120.75 2.8 119.25 4.45 117.95 5.9 116.6 6.1 L116.2 6.1 115.95 6.05 115.65 5.95 115.25 4.85 Q114.85 4.2 114.85 3.5 114.85 3.25 112.7 2.6 L109.85 1.95 109.4 1.95 107.4 3.6 Q106.05 4.45 103.85 4.45 L102.05 2.5 Q100.1 0.55 96.75 0.55 96.35 0.55 96.1 0.85" fill="#4d4d42" fill-rule="evenodd" stroke="none"/>
    <path d="M133.2 1.6 Q134.95 0.95 137.3 0.95 139.95 0.95 142.6 2.7 145.2 4.4 145.95 4.4 L146.8 3.9 Q147.75 3.35 148.45 3.25 L149.95 3.5 151.75 3.85 Q152.55 3.85 153.6 3.0 154.7 2.1 155.75 2.1 L160.45 4.6 165.5 2.2 Q165.5 1.6 166.4 1.65 L168.05 1.8 171.5 2.3 174.95 2.8 Q175.3 2.8 176.85 3.85 178.35 4.85 178.9 4.85 180.5 4.85 182.05 3.6 183.6 2.35 186.5 2.35 187.0 2.35 187.85 2.8 188.65 3.25 189.15 3.25 L193.9 1.65 194.05 1.95 194.35 2.2 199.95 1.75 199.95 45.15 158.1 45.15 158.9 44.9 Q161.65 44.45 161.65 43.1 161.65 41.1 158.55 40.95 155.4 40.8 155.4 42.5 155.4 43.0 154.95 43.3 154.45 43.6 154.45 44.1 L154.7 45.05 154.75 45.15 146.6 45.15 146.7 45.1 147.7 44.75 Q147.75 44.05 147.2 43.6 L146.3 42.75 146.15 43.4 Q145.9 43.85 145.9 44.4 145.9 45.05 146.3 45.15 L140.8 45.15 140.85 44.35 140.55 43.35 139.9 43.3 Q139.5 43.5 139.05 44.05 L138.65 44.7 138.7 45.15 118.05 45.15 117.8 44.95 117.0 44.35 116.45 44.05 115.2 43.5 111.7 43.0 110.8 43.5 Q109.65 44.2 109.2 45.15 L106.65 45.15 106.85 43.65 102.2 43.1 Q99.7 43.1 98.8 43.95 98.4 44.35 98.3 45.15 L92.55 45.15 92.6 45.1 Q94.9 43.7 95.4 42.75 L93.2 42.3 90.95 42.05 90.15 42.2 90.1 42.75 90.6 43.55 Q86.35 42.5 84.1 43.8 L82.9 45.15 62.45 45.15 62.75 44.4 Q62.75 43.85 62.25 43.45 61.7 43.05 60.95 43.05 60.2 43.05 59.7 43.45 59.15 43.85 59.15 44.4 59.15 44.8 59.5 45.15 L48.85 45.15 48.7 45.1 49.85 44.3 51.25 43.0 Q50.9 41.95 48.1 40.9 L49.35 40.45 47.95 40.25 46.95 40.0 Q43.75 41.9 43.75 44.25 L44.2 45.15 41.45 45.15 41.35 45.05 Q40.25 43.75 38.95 43.75 34.35 43.75 33.0 45.15 L20.85 45.15 Q21.95 44.65 21.9 43.25 21.8 41.0 18.6 41.0 16.1 41.0 16.1 43.85 16.1 44.85 16.4 45.1 L16.5 45.15 0.0 45.15 0.0 31.9 Q1.0 33.1 2.2 33.1 3.1 33.1 4.25 32.3 5.35 31.5 6.05 30.4 L6.15 30.05 6.4 29.0 7.0 29.35 Q8.25 30.0 8.7 30.05 7.8 30.6 7.1 31.5 L6.5 32.45 Q6.5 34.05 7.65 35.15 9.25 36.65 12.6 36.65 14.0 36.65 15.55 35.95 17.7 34.95 17.7 33.25 17.7 32.6 16.5 31.7 14.85 30.5 11.95 30.25 14.7 30.25 17.25 31.05 L19.25 31.8 22.95 31.4 24.6 31.05 Q24.0 31.3 23.35 31.8 22.35 32.65 22.35 33.1 22.35 33.7 23.1 34.5 24.0 35.4 25.15 35.4 L27.05 34.85 Q28.25 34.2 28.25 33.35 28.25 31.85 27.65 31.3 27.1 30.75 25.85 30.75 L24.85 30.95 25.15 30.65 25.15 30.45 25.7 30.6 28.75 31.0 31.95 31.2 Q30.95 31.9 30.95 32.9 30.95 35.15 32.1 36.65 33.35 38.25 35.65 38.6 37.35 38.9 38.5 39.85 39.5 40.7 40.6 40.7 40.9 40.7 42.45 37.15 L44.0 33.15 Q44.0 32.8 43.2 31.9 L41.8 30.35 41.05 30.0 38.7 29.45 37.05 29.8 36.2 30.0 35.15 30.05 32.7 30.55 30.25 31.0 28.0 30.55 25.7 30.1 23.15 30.7 19.25 31.3 17.0 30.55 Q14.75 29.8 12.45 29.75 9.25 29.65 7.5 28.85 5.75 28.1 5.2 28.1 L2.55 28.55 0.0 28.95 0.0 6.2 0.4 6.2 Q1.2 6.2 2.25 4.6 3.35 2.95 6.35 2.95 6.6 2.95 8.55 4.1 10.45 5.2 10.65 5.2 L13.6 4.9 15.3 4.55 Q15.8 4.55 16.4 4.95 L17.45 5.3 Q17.95 5.3 20.05 4.15 22.15 2.95 23.7 2.95 L25.0 2.75 Q25.55 2.65 25.55 3.25 25.55 3.85 26.9 3.9 L28.8 4.05 31.15 5.1 Q32.7 5.1 35.85 3.9 37.05 3.9 38.4 4.85 39.8 5.75 40.6 5.75 L41.45 5.75 41.55 4.95 41.6 4.85 42.35 4.3 42.45 4.25 44.6 3.85 Q45.15 3.85 46.75 4.55 L49.05 5.5 49.95 5.25 51.4 4.95 52.45 5.35 Q52.95 5.7 53.45 5.7 L53.85 5.3 54.65 4.4 55.95 3.85 57.7 3.55 59.65 4.55 Q60.9 5.5 61.25 5.5 L63.55 5.65 65.95 3.3 67.0 2.35 67.65 2.25 67.75 2.75 Q67.75 3.05 69.45 3.3 71.35 3.55 71.75 4.0 L72.7 5.4 Q73.65 5.65 75.4 5.0 L75.9 5.0 76.1 5.0 Q76.5 5.05 76.45 5.25 76.8 4.8 77.4 5.0 L77.9 5.55 Q78.05 5.95 78.6 5.95 82.55 5.95 82.65 4.4 L82.75 3.35 Q82.95 2.85 84.15 2.85 86.5 2.85 86.6 4.0 86.75 5.1 89.0 5.1 93.65 5.1 95.05 2.85 L95.7 1.55 95.9 1.15 96.1 0.85 Q96.35 0.55 96.75 0.55 100.1 0.55 102.05 2.5 L103.85 4.45 Q106.05 4.45 107.4 3.6 L109.4 1.95 109.85 1.95 112.7 2.6 Q114.85 3.25 114.85 3.5 114.85 4.2 115.25 4.85 L115.65 5.95 115.95 6.05 116.2 6.1 116.6 6.1 Q117.95 5.9 119.25 4.45 120.75 2.8 121.95 2.8 122.35 2.8 122.65 3.55 122.9 4.25 124.25 4.25 L126.6 4.5 128.4 4.75 131.05 2.85 131.2 2.75 132.35 2.3 133.2 1.65 133.2 1.6 M0.0 29.65 L0.0 29.45 0.3 29.45 0.0 29.65 M184.45 16.65 Q180.15 16.65 180.15 20.05 180.15 20.65 180.3 20.9 L180.45 21.15 181.8 21.35 Q186.85 21.35 186.85 19.85 186.85 19.45 185.85 18.1 184.85 16.65 184.45 16.65 M178.75 8.9 Q175.95 8.9 175.8 11.25 175.7 13.55 177.8 13.55 L180.6 13.2 Q183.2 12.65 183.2 11.65 183.2 11.0 182.45 10.2 181.25 8.9 178.75 8.9 M185.4 3.05 Q184.05 2.9 183.25 3.85 L182.7 4.8 Q182.7 5.4 182.85 5.6 L183.0 5.9 184.1 6.15 185.3 6.3 186.2 6.0 Q187.0 5.5 187.0 4.6 187.0 3.65 186.35 3.3 L185.4 3.05 M191.9 5.8 Q190.7 5.8 189.2 6.8 187.65 7.8 187.65 8.7 L188.0 9.2 188.75 9.85 192.6 9.4 Q194.1 9.0 194.1 7.6 194.1 7.25 193.1 6.5 192.15 5.8 191.9 5.8 M189.0 26.1 Q188.7 25.2 187.4 24.25 L186.2 23.4 Q186.2 22.4 186.35 22.2 L186.2 22.25 185.25 24.05 Q184.45 25.45 184.45 25.8 184.45 26.4 184.75 26.65 L185.0 26.9 186.85 27.25 Q188.05 27.25 188.5 26.8 L189.0 26.1 M168.3 8.0 Q167.4 8.0 165.2 9.1 L165.15 9.55 Q165.15 11.0 167.25 12.0 168.9 12.8 170.05 12.8 172.9 12.8 172.9 11.45 172.9 9.85 172.4 9.25 171.45 8.0 168.3 8.0 M176.45 5.4 Q176.35 5.1 175.6 4.85 L174.1 4.55 Q173.25 4.55 172.05 5.6 L172.4 7.0 172.5 7.1 173.3 7.15 Q174.6 7.15 175.35 6.6 L176.45 5.4 M162.45 8.0 L162.15 7.35 Q161.85 7.05 161.45 7.05 161.05 7.05 160.75 7.35 160.45 7.6 160.45 8.0 160.45 8.4 160.75 8.7 L161.45 8.95 162.15 8.7 162.45 8.0 M169.75 4.85 Q168.3 2.85 166.35 3.2 164.4 3.5 164.4 5.65 L164.6 6.7 Q164.9 7.55 165.55 7.55 166.6 7.55 167.8 6.6 L169.75 4.85 M170.15 18.1 Q170.8 18.6 171.5 18.6 L172.1 16.95 170.75 16.8 170.1 17.05 170.15 18.1 M168.8 22.25 Q168.8 20.85 163.85 17.0 163.05 17.0 160.95 17.85 158.6 18.85 156.65 20.15 157.65 21.45 161.95 22.8 L166.15 23.9 Q167.15 23.9 166.9 23.7 L168.4 22.8 168.8 22.25 M173.2 23.6 L173.9 23.05 Q174.15 22.55 173.7 21.65 L172.45 22.6 Q172.6 23.5 173.2 23.6 M178.0 16.95 L177.7 16.25 Q177.4 15.95 177.0 15.95 176.6 15.95 176.3 16.25 176.0 16.55 176.0 16.95 176.0 17.35 176.3 17.65 L177.0 17.95 Q177.4 17.95 177.7 17.65 L178.0 16.95 M183.75 33.35 Q183.75 30.6 179.7 31.25 175.65 31.9 175.65 34.05 L176.0 35.5 Q176.8 36.8 179.15 36.8 180.6 36.8 182.25 35.45 183.75 34.2 183.75 33.35 M178.6 24.75 L174.4 25.2 Q173.1 25.7 173.1 26.85 173.1 28.15 174.2 28.6 L176.25 28.85 Q177.45 28.85 179.1 27.4 180.55 26.05 180.55 25.55 L180.4 24.95 180.2 24.9 178.6 24.75 M167.75 28.95 Q168.9 30.25 170.4 30.3 172.15 30.4 172.15 28.35 L171.95 27.5 171.75 27.2 170.75 27.0 Q170.45 27.0 169.4 27.65 L167.75 28.95 M162.2 33.4 Q161.25 33.6 159.95 34.15 L161.7 35.8 162.6 36.25 Q163.95 36.25 165.0 34.4 165.0 33.35 163.85 33.2 L162.5 33.3 162.2 33.4 M177.65 42.3 Q177.65 40.15 174.4 40.45 171.1 40.8 171.1 42.65 171.1 43.35 171.75 43.95 172.45 44.6 173.55 44.6 L176.05 44.1 Q177.65 43.45 177.65 42.3 M166.4 36.6 L166.85 37.85 Q167.35 38.8 168.05 38.8 169.05 38.8 168.8 38.6 L169.7 38.2 170.3 37.0 169.95 35.85 169.0 35.2 Q168.0 35.5 166.4 36.6 M188.8 39.4 L184.6 39.55 Q183.55 39.8 183.1 40.85 183.8 41.55 185.25 42.4 186.55 43.15 186.75 43.15 L188.75 42.4 Q190.65 41.45 190.65 40.6 L190.5 39.8 190.3 39.55 188.8 39.4 M192.45 35.25 Q193.8 37.25 195.5 37.0 197.05 36.8 197.05 35.85 197.05 35.05 196.55 34.75 195.85 34.3 193.75 34.3 193.5 34.3 192.45 35.25 M152.25 10.5 Q154.8 10.65 154.8 9.85 L154.3 8.4 152.8 8.25 151.95 8.4 151.65 8.5 151.45 9.65 Q151.65 10.4 152.25 10.5 M158.25 13.35 Q159.65 13.35 160.65 12.8 161.9 12.1 161.9 10.7 L161.75 9.9 161.55 9.5 160.3 9.2 159.3 9.1 Q158.65 9.1 156.7 10.25 154.7 11.45 154.7 11.95 L154.8 12.65 155.2 12.75 156.75 13.1 158.25 13.35 M154.05 5.3 Q154.35 6.5 155.15 6.85 L156.0 6.95 157.05 6.5 Q157.95 5.95 157.95 5.2 157.95 4.2 157.4 4.2 L156.75 4.1 154.65 4.4 154.05 5.3 M146.7 5.45 L146.25 6.15 Q145.95 7.1 146.8 7.8 147.5 8.35 148.25 8.35 149.45 8.35 150.45 7.55 151.3 6.85 151.3 6.35 151.3 5.9 150.45 5.35 149.45 4.7 148.05 4.6 L146.7 5.45 M142.15 9.25 L142.05 9.25 142.05 9.3 Q140.55 10.25 140.55 10.9 140.55 12.75 142.8 12.75 144.45 12.75 145.15 12.1 145.85 11.45 145.85 10.05 145.85 9.15 145.5 8.8 145.1 8.35 144.15 8.35 143.5 8.35 142.15 9.25 M141.2 20.3 Q139.85 20.3 138.95 20.8 137.75 21.45 137.75 22.85 L138.15 23.75 Q138.85 24.6 140.35 24.6 141.75 24.6 142.85 23.75 L143.7 22.7 Q143.7 21.85 143.0 21.1 142.25 20.3 141.2 20.3 M142.35 17.15 Q142.35 16.4 141.0 16.0 139.6 15.55 139.6 17.25 L140.2 18.35 Q140.9 19.3 141.4 19.3 L142.05 19.15 142.05 18.95 Q142.05 18.6 142.2 18.15 L142.35 17.15 M150.25 15.15 L150.0 14.5 149.3 14.2 Q148.9 14.2 148.65 14.5 148.35 14.75 148.35 15.15 148.35 15.55 148.65 15.85 L149.3 16.1 150.0 15.85 150.25 15.15 M133.5 10.1 Q139.55 10.1 142.5 6.65 143.65 5.25 143.0 4.3 142.25 3.2 139.5 3.2 137.45 3.2 134.85 4.25 131.5 5.65 131.5 7.75 131.5 10.1 133.5 10.1 M156.8 16.9 Q156.8 16.45 156.4 16.15 156.0 15.8 155.45 15.8 154.9 15.8 154.5 16.15 154.1 16.45 154.1 16.9 154.1 17.35 154.5 17.7 L155.45 18.0 156.4 17.7 Q156.8 17.35 156.8 16.9 M146.85 20.75 Q146.85 23.8 150.1 23.1 153.35 22.45 153.35 20.5 152.95 18.15 150.95 18.15 150.0 18.15 148.5 19.0 146.85 19.9 146.85 20.75 M120.9 7.45 Q120.2 7.15 121.65 8.6 L123.25 7.35 123.65 6.65 123.45 4.7 123.15 4.5 122.4 4.45 Q120.5 4.85 120.5 6.65 L120.9 7.45 M126.5 8.05 L126.4 8.05 126.15 8.4 Q126.9 7.15 125.9 8.45 125.1 9.5 125.1 9.9 125.1 11.35 126.45 11.65 127.7 11.7 129.0 10.75 L130.25 9.45 129.45 8.05 Q128.8 7.15 126.5 8.05 M125.4 15.35 Q127.1 16.75 128.55 16.1 129.7 15.55 129.7 14.6 129.7 13.95 129.3 13.4 128.75 12.65 127.75 12.65 L126.65 13.1 Q125.65 13.5 125.4 13.7 L125.4 15.35 M119.5 16.3 L117.5 17.55 117.7 18.45 117.9 18.7 119.85 18.95 121.75 19.3 122.3 18.95 122.5 17.85 Q123.2 14.6 120.15 16.0 L119.8 15.95 119.55 16.2 119.5 16.3 M123.0 13.75 L122.8 13.25 Q122.55 13.0 122.25 13.0 121.95 13.0 121.75 13.25 L121.5 13.75 121.75 14.3 Q121.95 14.5 122.25 14.5 L122.8 14.3 123.0 13.75 M131.55 17.95 L134.7 18.0 134.95 16.85 134.0 15.75 133.25 15.1 132.5 15.2 132.5 15.3 131.5 16.05 Q131.1 16.4 131.1 17.05 131.1 17.65 131.35 17.85 L131.55 17.95 M135.85 13.0 Q135.85 12.7 135.45 12.5 L134.4 12.25 133.4 12.5 Q132.95 12.7 132.95 13.0 L133.4 13.55 134.4 13.75 135.45 13.55 135.85 13.0 M127.95 20.8 Q124.85 20.8 122.9 22.9 121.25 24.65 121.25 26.65 L121.35 27.45 Q121.85 28.1 123.75 28.1 127.8 28.1 130.5 26.5 133.1 24.95 133.1 22.7 133.1 21.7 131.35 21.2 L127.95 20.8 M115.4 41.05 L115.8 41.5 116.4 41.8 117.95 42.4 121.7 43.05 Q123.35 43.05 125.85 40.85 128.2 38.8 128.2 37.9 128.2 36.65 127.65 35.75 126.85 34.35 124.95 34.35 L123.45 34.7 122.45 35.0 Q121.05 35.2 120.6 36.3 L120.3 37.35 119.35 37.15 Q118.5 37.25 117.5 39.0 L116.45 40.4 116.1 40.6 115.7 40.85 115.4 41.05 M124.05 31.3 L124.1 32.25 124.3 32.35 125.2 32.45 Q129.05 32.45 129.05 31.0 L128.85 30.25 128.65 30.1 127.75 29.95 127.3 29.75 Q127.2 29.75 125.75 30.45 L124.05 31.3 M143.95 32.0 L141.85 33.25 Q140.15 34.2 140.15 34.65 140.15 35.25 140.3 35.45 L140.4 35.7 141.8 35.9 Q142.8 35.9 143.95 35.25 145.3 34.45 145.3 33.35 145.3 32.85 144.9 32.6 L143.95 32.0 M134.9 35.35 Q135.9 37.15 136.15 37.15 L137.15 36.95 137.4 36.25 136.9 35.35 Q136.35 34.55 135.75 34.55 L135.0 34.75 134.9 35.35 M131.15 32.8 L133.5 32.85 Q134.9 32.55 134.9 30.65 134.9 29.65 134.7 29.75 133.9 29.4 132.9 29.4 132.15 29.4 131.5 30.1 130.85 30.85 130.85 31.95 130.85 32.6 131.0 32.75 L131.15 32.8 M137.75 28.95 Q141.0 31.25 144.65 30.05 148.05 28.9 148.05 26.65 148.05 26.0 147.6 25.55 147.15 25.1 146.5 25.1 146.1 25.1 144.7 26.05 L143.0 27.0 141.75 27.15 Q141.1 27.25 141.15 27.45 141.45 28.3 140.9 28.1 L140.1 27.7 Q139.0 27.45 138.6 27.7 L137.75 28.95 M127.2 43.5 L127.0 43.0 126.5 42.8 126.0 43.0 125.8 43.5 126.0 44.0 126.5 44.2 Q126.8 44.2 127.0 44.0 L127.2 43.5 M136.1 42.55 Q136.1 40.1 133.3 39.7 130.45 39.3 130.45 41.55 130.45 42.25 131.1 43.1 132.05 44.35 133.75 44.35 134.65 44.35 135.35 43.85 136.1 43.3 136.1 42.55 M147.7 39.9 Q147.7 37.15 144.3 37.65 140.85 38.1 140.85 40.65 140.85 41.25 141.2 41.5 L141.55 41.75 144.0 41.9 Q145.7 41.9 146.7 41.35 147.7 40.8 147.7 39.9 M162.6 28.45 Q162.6 26.95 161.1 26.4 L157.3 26.3 153.7 26.1 Q150.9 26.15 150.9 27.55 L150.55 28.6 Q150.15 29.1 150.15 29.6 150.15 30.8 151.4 31.7 152.75 32.65 154.65 32.65 158.8 32.65 160.95 31.1 162.6 29.9 162.6 28.45 M153.15 35.85 Q149.0 35.85 148.9 37.95 148.8 40.05 151.65 40.05 L153.55 39.8 Q155.75 39.15 155.75 37.3 155.75 36.8 155.1 36.35 154.35 35.85 153.15 35.85 M109.6 5.7 Q109.0 5.9 108.65 6.2 108.0 6.7 108.0 7.35 108.0 7.9 108.75 8.55 L108.85 8.6 109.15 8.8 Q109.95 9.3 110.85 9.3 L112.6 9.1 113.7 8.65 114.5 8.0 114.75 7.2 114.5 6.3 114.2 5.9 112.6 5.75 111.2 5.2 109.7 5.3 109.6 5.7 M116.35 9.45 L115.65 9.85 115.2 10.2 113.85 11.45 113.35 12.1 113.65 13.0 115.55 13.3 116.1 13.4 118.65 13.7 Q119.6 13.7 120.3 12.85 121.15 11.85 121.15 10.0 121.15 9.35 120.65 8.9 120.1 8.4 117.45 8.9 L117.2 9.05 Q117.5 8.4 116.4 9.35 L116.35 9.45 M112.75 4.15 Q113.9 4.5 114.8 5.0 114.35 3.05 112.35 3.05 111.8 3.05 110.0 4.1 L112.75 4.15 M106.8 9.75 L106.6 9.5 106.3 9.0 105.6 9.2 Q102.35 10.15 102.35 11.5 102.35 13.6 104.45 14.15 L106.35 14.4 106.2 13.65 106.8 12.2 107.1 11.5 107.35 10.6 106.8 9.75 M106.1 5.65 L106.25 5.75 106.35 5.6 106.1 5.65 M102.35 5.45 Q102.35 3.8 102.05 3.05 101.6 2.0 100.3 2.0 99.15 2.0 97.25 3.0 94.55 4.4 94.55 6.7 94.55 7.5 95.5 8.7 96.5 10.0 97.45 10.0 98.55 10.0 100.0 9.25 102.35 7.95 102.35 5.45 M104.9 6.6 L104.65 6.0 Q104.35 5.7 104.0 5.7 103.65 5.7 103.4 6.0 103.1 6.25 103.1 6.6 103.1 6.95 103.4 7.25 L104.0 7.5 104.65 7.25 104.9 6.6 M110.45 11.7 Q109.25 11.9 108.35 12.75 107.5 13.6 107.5 14.35 L107.5 14.45 Q107.5 14.95 107.7 15.05 L108.2 15.1 Q108.85 15.15 109.7 14.65 L110.05 14.45 Q110.75 13.8 110.75 12.85 L110.7 12.0 110.45 11.7 M114.8 15.3 L110.2 15.5 109.2 16.3 Q108.9 16.65 108.9 17.05 108.9 17.85 109.45 18.15 L109.75 18.3 110.5 18.55 111.75 18.4 112.95 18.2 113.65 18.05 114.2 17.8 114.8 17.05 114.9 16.3 114.8 15.3 M106.25 17.0 Q106.25 16.55 105.85 16.25 105.45 15.9 104.9 15.9 104.35 15.9 103.95 16.25 103.55 16.55 103.55 17.0 103.55 17.45 103.95 17.8 104.35 18.1 104.9 18.1 L105.85 17.8 Q106.25 17.45 106.25 17.0 M107.15 21.5 L107.15 21.45 107.05 20.75 Q106.6 20.9 106.3 21.2 105.8 21.75 105.8 22.45 105.8 23.9 106.6 24.8 L107.0 25.15 107.15 25.05 Q107.55 24.85 107.55 24.35 L107.3 22.3 107.15 21.5 M100.85 21.7 L101.25 24.45 Q101.55 25.1 102.85 25.1 103.8 25.1 104.1 24.5 104.1 23.35 103.45 22.4 102.7 21.4 101.65 21.4 101.05 21.4 100.95 21.55 L100.85 21.7 M111.8 19.9 Q110.7 19.7 109.75 19.9 109.05 20.05 108.7 20.45 L108.4 21.05 108.35 21.4 Q108.35 22.0 108.5 22.3 L108.6 22.55 111.6 22.75 112.25 22.65 112.3 22.45 112.35 21.05 111.8 19.9 M91.7 17.25 Q95.65 18.2 98.2 19.25 99.65 19.85 101.0 19.85 101.5 19.85 101.9 19.35 102.3 18.85 102.3 18.35 102.3 16.45 100.55 14.9 99.15 13.65 98.5 13.65 L95.95 13.4 93.4 13.1 Q87.55 13.9 86.85 14.35 L85.95 15.3 Q85.2 16.15 85.2 16.5 L85.5 17.25 Q86.05 17.85 87.25 17.55 L90.05 17.0 91.7 17.25 M111.25 25.15 L111.0 24.6 Q110.7 24.35 110.3 24.35 109.9 24.35 109.65 24.6 109.35 24.8 109.35 25.15 L109.4 25.4 109.65 25.75 Q109.9 25.95 110.3 25.95 L111.0 25.75 111.25 25.15 M116.25 23.45 L116.25 23.55 116.2 23.6 116.1 23.9 115.9 24.65 Q115.8 25.3 116.05 25.8 116.45 26.7 117.7 26.7 118.8 26.7 119.5 26.2 L120.15 25.6 Q119.75 24.55 118.55 23.85 117.7 23.3 117.3 23.3 L116.3 23.45 116.25 23.45 M114.75 25.15 L114.5 24.6 Q114.2 24.35 113.8 24.35 L113.75 24.35 Q113.4 24.35 113.15 24.6 L113.0 24.75 Q112.85 24.9 112.85 25.15 112.85 25.5 113.15 25.75 L113.8 25.95 114.5 25.75 114.75 25.15 M116.95 20.75 Q116.95 20.25 116.5 19.9 L116.05 19.65 115.5 19.55 115.4 19.55 Q114.75 19.55 114.3 19.9 113.85 20.25 113.85 20.75 113.85 21.25 114.3 21.6 L115.4 21.95 Q116.0 21.95 116.45 21.65 L116.5 21.6 116.9 21.15 116.95 20.75 M86.2 10.6 Q88.35 10.6 89.15 10.0 89.75 9.5 89.75 8.45 89.75 7.3 89.4 6.75 89.0 6.25 88.1 6.05 87.25 5.85 86.05 5.05 84.95 4.35 84.4 4.35 80.6 8.15 80.6 8.9 80.6 9.4 81.55 9.9 83.0 10.6 86.2 10.6 M99.85 12.15 Q99.85 11.8 99.35 11.55 L98.15 11.3 96.95 11.55 Q96.45 11.8 96.45 12.15 96.45 12.5 96.95 12.75 L98.15 13.0 99.35 12.75 99.85 12.15 M92.95 6.85 L91.65 6.9 90.45 7.0 Q90.1 7.85 90.1 8.85 90.1 9.45 90.25 9.65 L90.65 9.95 91.65 10.05 93.0 9.95 93.15 8.4 92.95 6.85 M86.2 20.6 Q86.95 21.05 87.45 21.1 88.15 21.2 88.8 20.7 88.6 19.9 87.9 19.55 L87.15 19.3 86.45 19.45 86.35 19.6 86.2 20.6 M82.55 19.05 Q82.1 18.6 81.1 18.1 80.05 17.6 79.55 17.6 77.2 17.6 76.4 18.2 L75.7 19.45 Q76.1 20.5 77.35 21.0 L78.7 21.3 Q79.85 21.3 81.1 20.5 L82.55 19.05 M86.2 24.0 Q86.2 23.5 85.7 23.2 85.15 22.85 84.4 22.85 83.65 22.85 83.15 23.2 82.6 23.5 82.6 24.0 82.6 24.5 83.15 24.85 L84.4 25.15 85.7 24.85 Q86.2 24.5 86.2 24.0 M85.95 13.4 L85.55 12.8 84.55 12.55 83.55 12.8 Q83.15 13.05 83.15 13.4 83.15 13.75 83.55 14.0 L84.55 14.25 85.55 14.0 85.95 13.4 M94.7 22.25 Q91.95 22.25 91.05 23.55 L90.1 24.85 Q89.45 25.8 89.45 26.4 L89.65 27.3 89.8 27.7 100.15 29.75 Q100.7 29.75 101.55 29.1 102.55 28.35 102.55 27.4 L102.5 26.4 101.65 26.15 101.65 26.5 100.35 25.0 Q99.45 23.85 97.1 22.95 95.3 22.25 94.7 22.25 M90.0 34.85 L92.0 35.3 Q93.95 35.8 94.4 36.9 L95.3 38.6 Q95.7 38.95 96.85 38.95 98.2 38.95 99.65 37.65 101.2 36.2 101.2 34.45 101.2 31.25 98.85 31.25 93.15 31.25 90.9 32.55 89.75 33.2 89.75 33.95 89.75 34.6 89.9 34.8 L90.0 34.85 M80.75 26.65 Q79.6 27.9 77.3 28.0 74.55 28.15 73.2 28.95 L75.0 29.45 77.1 29.85 79.65 30.7 83.15 31.25 Q89.85 31.25 90.1 30.15 89.05 28.7 86.7 28.4 83.35 27.95 80.75 26.65 M71.3 34.5 L73.5 36.05 Q75.3 37.1 76.0 37.1 78.4 37.1 81.0 36.0 83.55 34.95 83.55 34.0 83.55 33.0 83.3 33.45 L80.9 32.2 Q79.45 31.55 77.65 31.55 L74.55 31.8 71.3 34.5 M78.45 42.45 L80.85 42.25 Q81.9 41.55 81.9 40.95 81.9 39.95 81.6 40.3 81.6 39.95 80.4 39.9 L78.5 40.9 Q78.1 41.1 78.1 41.45 L78.3 42.25 78.45 42.45 M88.4 38.25 L88.15 37.7 87.5 37.45 Q87.15 37.45 86.9 37.7 86.6 37.9 86.6 38.25 86.6 38.6 86.9 38.85 L87.5 39.05 88.15 38.85 88.4 38.25 M86.95 36.75 Q86.2 35.6 85.25 36.2 84.4 36.7 84.4 37.45 84.4 38.1 84.7 38.15 L85.35 38.1 86.3 37.55 86.95 36.75 M103.05 40.65 Q103.05 40.15 102.4 39.8 101.75 39.4 100.8 39.4 99.85 39.4 99.2 39.8 98.55 40.15 98.55 40.65 98.55 41.15 99.2 41.55 L100.8 41.9 102.4 41.55 103.05 40.65 M112.45 34.3 Q113.25 33.4 112.75 32.8 112.4 32.35 111.4 32.1 L110.9 32.05 109.55 31.9 108.3 32.15 108.1 33.45 Q108.0 35.7 109.5 36.0 L109.8 36.05 113.6 36.3 116.3 36.45 116.55 36.45 117.0 35.85 116.8 35.3 116.1 35.0 115.6 34.85 115.0 34.65 113.8 34.45 112.45 34.3 M114.1 29.4 L114.3 30.35 114.8 31.0 115.7 31.35 115.95 31.35 116.5 31.35 Q117.6 31.25 118.1 30.8 L118.7 30.2 119.55 30.0 119.75 29.6 Q119.35 28.95 118.0 28.4 L116.9 28.05 116.25 27.95 115.75 27.9 114.9 28.0 114.65 28.05 114.45 28.05 114.15 28.65 114.1 29.4 M107.2 28.25 L107.1 27.75 106.05 27.55 Q105.05 27.55 104.35 28.2 103.65 28.85 103.65 29.8 103.65 30.75 104.35 31.4 105.05 32.05 106.05 32.05 L106.85 31.95 107.15 31.35 107.65 30.75 107.2 28.25 M118.75 32.7 L119.75 33.25 Q120.55 33.5 121.3 32.7 121.2 32.0 119.75 31.75 118.95 32.15 118.7 32.45 L118.75 32.7 M103.6 36.4 L105.55 36.45 105.8 36.1 105.85 35.4 Q105.85 33.6 104.55 33.35 L103.3 33.7 103.2 34.85 Q103.6 35.85 103.6 36.4 M106.25 40.7 L107.1 41.45 107.4 39.05 Q106.6 39.75 106.25 40.7 M111.55 38.1 L110.9 38.2 Q110.2 38.4 109.55 39.05 108.8 39.8 108.8 40.05 L109.05 40.95 109.25 41.35 Q109.9 42.55 110.85 42.55 L112.45 42.2 112.55 42.2 113.4 41.25 113.55 40.45 Q113.55 38.1 111.55 38.1 M81.8 13.7 Q81.8 12.55 80.25 11.25 78.5 9.75 76.3 9.75 73.45 9.75 72.0 10.35 L71.15 10.95 Q70.7 12.3 70.1 12.7 69.75 12.95 69.75 14.35 L70.15 14.9 71.05 15.45 80.1 14.6 Q81.8 14.5 81.8 13.7 M76.1 6.0 Q74.35 6.95 74.35 8.3 74.35 8.95 74.65 9.1 L74.9 9.15 76.1 9.25 77.95 9.05 78.15 7.25 78.0 6.25 76.1 6.0 M73.55 12.6 L73.35 12.65 73.9 12.45 73.55 12.6 M69.15 4.6 Q64.15 4.6 63.05 7.4 62.6 8.5 63.35 9.35 64.1 10.2 65.8 10.2 L70.35 9.45 Q73.3 8.6 73.3 7.6 73.3 6.8 72.55 5.95 71.4 4.6 69.15 4.6 M66.75 14.25 Q66.75 12.0 64.75 12.05 62.7 12.1 60.3 14.75 L61.6 15.9 Q62.45 16.6 62.95 16.6 64.65 16.6 65.8 15.65 66.75 14.9 66.75 14.25 M71.45 18.9 L71.0 18.3 Q70.55 18.0 69.9 18.0 69.25 18.0 68.8 18.3 68.35 18.55 68.35 18.9 68.35 19.25 68.8 19.55 L69.9 19.8 71.0 19.55 71.45 18.9 M50.05 8.3 Q50.85 9.3 52.5 9.55 53.8 9.8 54.2 9.55 53.4 11.3 55.6 12.45 L58.0 13.3 Q61.35 13.3 61.35 8.9 61.35 7.55 60.4 6.25 59.3 4.7 57.7 4.7 56.15 4.7 55.4 6.0 L54.4 8.1 53.75 7.85 53.1 6.8 Q52.75 6.35 52.25 6.35 51.7 6.35 51.25 6.65 L50.55 6.9 50.05 8.3 M36.5 6.7 Q36.65 7.65 37.4 9.1 38.3 10.75 38.95 10.75 40.6 10.75 41.85 12.4 43.15 14.0 43.7 14.0 45.25 14.0 46.8 12.45 48.65 10.6 48.65 8.0 48.65 4.75 45.1 4.75 45.05 4.75 43.05 5.7 L40.8 6.6 39.5 6.15 Q38.65 5.7 38.15 5.7 37.75 5.7 37.3 6.05 L36.5 6.7 M46.0 7.35 L45.55 6.85 Q46.25 6.95 46.4 7.3 L46.0 7.35 M55.3 14.95 Q55.3 13.5 50.6 11.15 L49.55 11.35 48.1 11.5 47.95 13.85 Q47.95 15.55 48.85 16.55 49.85 17.65 51.7 17.65 53.3 17.65 54.35 16.75 55.3 15.9 55.3 14.95 M60.65 18.5 L60.3 18.0 59.4 17.75 58.55 18.0 Q58.15 18.2 58.15 18.5 L58.55 19.05 Q58.9 19.25 59.4 19.25 L60.3 19.05 60.65 18.5 M47.4 18.25 L45.55 18.25 Q44.6 18.3 44.4 18.55 L44.45 18.7 44.25 18.8 44.8 18.85 46.45 18.6 47.45 18.35 47.4 18.25 M48.0 31.6 Q47.5 31.8 47.35 31.95 47.05 32.15 47.05 32.8 47.05 36.65 50.95 36.65 52.65 36.65 54.4 35.9 56.45 35.0 56.45 33.7 L55.8 32.85 Q54.95 32.0 53.55 31.2 L50.65 31.1 48.0 31.6 M44.5 38.15 Q45.35 38.8 46.0 38.8 46.9 38.85 46.9 37.35 L46.75 36.7 46.55 36.65 45.5 36.65 44.4 37.7 44.5 38.15 M53.75 38.95 L52.45 39.2 52.05 40.05 Q54.0 41.9 56.15 42.05 58.4 42.25 58.4 40.15 L58.35 38.85 57.05 38.55 56.7 38.6 56.55 38.6 55.7 38.55 54.35 38.7 53.75 38.85 53.75 38.95 M75.8 41.35 L75.55 39.95 Q75.0 39.1 73.05 39.1 71.2 39.1 69.75 40.0 68.5 40.75 68.5 41.4 68.5 42.25 69.65 43.25 70.85 44.25 71.9 44.25 73.15 44.25 74.4 43.4 75.8 42.5 75.8 41.35 M65.15 40.6 Q65.95 40.6 66.9 39.75 68.2 38.6 67.35 36.9 L65.6 36.65 Q64.5 36.65 63.3 37.25 62.2 37.85 62.2 38.35 L62.4 39.1 62.6 39.2 64.45 39.3 Q64.0 40.6 65.15 40.6 M62.95 31.05 L62.2 31.1 63.5 31.2 62.95 31.05 M71.95 29.55 L69.55 29.15 Q68.1 28.9 66.25 30.2 L66.2 30.25 66.1 30.35 65.95 30.45 65.9 30.5 Q65.65 30.75 65.65 31.35 65.65 32.4 66.25 33.2 67.15 34.35 69.05 34.35 70.1 34.35 70.75 33.2 71.25 32.25 71.95 29.55 M35.4 7.25 Q35.4 5.55 33.55 5.1 31.7 4.65 31.7 6.8 31.7 8.95 32.15 9.65 L32.8 10.1 Q35.4 9.5 35.4 7.25 M34.8 14.0 L34.6 13.65 34.45 13.85 35.15 15.35 Q35.8 16.35 36.3 16.35 L37.95 16.15 Q38.95 15.7 38.95 14.45 38.3 11.25 36.95 11.25 35.4 11.25 35.2 12.35 L34.8 14.0 M19.9 8.15 Q19.9 10.75 25.1 9.6 30.25 8.4 30.25 6.8 30.25 4.75 26.0 4.75 L22.65 4.95 Q19.9 5.6 19.9 8.15 M31.05 14.8 Q31.05 13.6 30.2 12.3 29.4 11.05 28.9 11.05 27.6 11.05 25.4 12.0 L23.4 12.9 Q22.9 12.9 22.2 12.45 21.5 11.95 21.0 11.95 19.45 11.95 17.85 12.65 L14.7 13.3 14.45 13.65 14.35 14.3 14.55 15.1 14.75 15.3 18.25 15.7 21.3 16.05 24.7 16.65 27.8 17.25 Q29.0 17.25 29.9 16.7 31.05 16.0 31.05 14.8 M21.9 34.9 L21.45 34.1 Q20.95 33.75 20.3 33.75 19.65 33.75 19.2 34.1 18.7 34.4 18.7 34.9 18.7 35.4 19.2 35.75 L20.3 36.05 21.45 35.75 Q21.9 35.4 21.9 34.9 M13.65 43.0 L13.2 42.5 12.15 42.3 11.1 42.5 Q10.65 42.7 10.65 43.0 L11.1 43.5 12.15 43.7 13.2 43.5 13.65 43.0 M19.65 37.5 Q18.2 38.3 18.1 38.95 18.0 39.45 18.75 39.95 L20.35 38.3 Q20.35 37.3 20.0 37.6 L19.65 37.5 M33.3 33.3 L33.7 33.0 34.15 32.9 34.1 33.05 33.3 33.3 M26.65 39.1 L26.05 39.25 26.05 39.3 Q25.1 39.7 24.4 40.35 24.5 40.9 25.0 41.3 25.95 42.05 28.95 42.05 29.7 42.05 31.15 41.3 L32.6 40.15 Q32.6 39.15 32.35 39.6 L29.05 38.8 26.65 39.1" fill="#66665b" fill-rule="evenodd" stroke="none"/>
    <path d="M0.0 31.9 L0.0 29.65 0.3 29.45 2.8 29.05 2.4 29.25 1.5 29.8 1.65 30.6 2.3 31.2 5.0 30.75 6.05 30.4 Q5.35 31.5 4.25 32.3 3.1 33.1 2.2 33.1 1.0 33.1 0.0 31.9 M191.9 5.8 Q192.15 5.8 193.1 6.5 194.1 7.25 194.1 7.6 194.1 9.0 192.6 9.4 L188.75 9.85 188.0 9.2 187.65 8.7 Q187.65 7.8 189.2 6.8 190.7 5.8 191.9 5.8 M185.4 3.05 L186.35 3.3 Q187.0 3.65 187.0 4.6 187.0 5.5 186.2 6.0 L185.3 6.3 184.1 6.15 183.0 5.9 182.85 5.6 Q182.7 5.4 182.7 4.8 L183.25 3.85 Q184.05 2.9 185.4 3.05 M178.75 8.9 Q181.25 8.9 182.45 10.2 183.2 11.0 183.2 11.65 183.2 12.65 180.6 13.2 L177.8 13.55 Q175.7 13.55 175.8 11.25 175.95 8.9 178.75 8.9 M184.45 16.65 Q184.85 16.65 185.85 18.1 186.85 19.45 186.85 19.85 186.85 21.35 181.8 21.35 L180.45 21.15 180.3 20.9 Q180.15 20.65 180.15 20.05 180.15 16.65 184.45 16.65 M183.65 17.35 L182.5 18.2 Q181.45 18.9 181.35 19.5 L181.55 19.9 183.35 20.05 Q184.45 20.05 184.75 19.1 L184.8 18.85 183.65 17.35 M189.0 26.1 L188.5 26.8 Q188.05 27.25 186.85 27.25 L185.0 26.9 184.75 26.65 Q184.45 26.4 184.45 25.8 184.45 25.45 185.25 24.05 L186.2 22.25 186.35 22.2 Q186.2 22.4 186.2 23.4 L187.4 24.25 Q188.7 25.2 189.0 26.1 M174.9 5.7 L174.7 5.05 Q174.5 4.75 174.2 4.75 L173.7 5.05 173.5 5.7 173.7 6.4 174.2 6.65 174.7 6.4 174.9 5.7 M176.45 5.4 L175.35 6.6 Q174.6 7.15 173.3 7.15 L172.5 7.1 172.4 7.0 172.05 5.6 Q173.25 4.55 174.1 4.55 L175.6 4.85 Q176.35 5.1 176.45 5.4 M168.3 8.0 Q171.45 8.0 172.4 9.25 172.9 9.85 172.9 11.45 172.9 12.8 170.05 12.8 168.9 12.8 167.25 12.0 165.15 11.0 165.15 9.55 L165.2 9.1 Q167.4 8.0 168.3 8.0 M165.6 5.7 L167.5 5.5 Q168.65 5.2 169.0 4.55 168.9 4.3 168.15 4.05 L166.65 3.85 Q166.05 3.85 165.7 4.35 L165.45 4.9 165.6 5.7 M180.6 11.6 Q179.7 9.65 178.35 10.25 L176.4 11.6 176.75 12.05 176.95 12.25 178.55 12.3 Q180.15 12.3 180.6 11.6 M169.75 4.85 L167.8 6.6 Q166.6 7.55 165.55 7.55 164.9 7.55 164.6 6.7 L164.4 5.65 Q164.4 3.5 166.35 3.2 168.3 2.85 169.75 4.85 M162.45 8.0 L162.15 8.7 161.45 8.95 160.75 8.7 Q160.45 8.4 160.45 8.0 160.45 7.6 160.75 7.35 161.05 7.05 161.45 7.05 161.85 7.05 162.15 7.35 L162.45 8.0 M171.55 9.75 Q170.3 8.6 169.45 9.3 L167.85 10.85 Q169.6 12.4 170.2 12.4 L170.9 12.15 170.9 11.75 170.35 11.05 Q171.35 11.0 171.6 10.15 L171.55 9.75 M170.15 18.1 L170.1 17.05 170.75 16.8 172.1 16.95 171.5 18.6 Q170.8 18.6 170.15 18.1 M162.95 17.5 L162.8 17.5 162.6 19.15 Q162.6 19.75 162.75 19.85 L162.85 19.85 163.75 19.4 164.5 18.8 163.95 18.2 Q163.65 17.8 162.95 17.5 M168.8 22.25 L168.4 22.8 166.9 23.7 Q167.15 23.9 166.15 23.9 L161.95 22.8 Q157.65 21.45 156.65 20.15 158.6 18.85 160.95 17.85 163.05 17.0 163.85 17.0 168.8 20.85 168.8 22.25 M159.25 20.3 Q161.2 22.45 164.8 22.45 L165.45 22.0 166.35 21.05 Q165.7 20.65 164.1 20.2 L160.1 19.6 159.35 19.75 159.3 19.9 159.25 20.3 M178.0 16.95 L177.7 17.65 Q177.4 17.95 177.0 17.95 L176.3 17.65 Q176.0 17.35 176.0 16.95 176.0 16.55 176.3 16.25 176.6 15.95 177.0 15.95 177.4 15.95 177.7 16.25 L178.0 16.95 M173.2 23.6 Q172.6 23.5 172.45 22.6 L173.7 21.65 Q174.15 22.55 173.9 23.05 L173.2 23.6 M178.2 26.45 Q177.25 25.75 176.1 25.7 174.7 25.65 174.7 27.1 174.7 27.75 175.0 27.75 L175.3 27.6 177.6 27.0 178.2 26.45 M178.6 24.75 L180.2 24.9 180.4 24.95 180.55 25.55 Q180.55 26.05 179.1 27.4 177.45 28.85 176.25 28.85 L174.2 28.6 Q173.1 28.15 173.1 26.85 173.1 25.7 174.4 25.2 L178.6 24.75 M183.75 33.35 Q183.75 34.2 182.25 35.45 180.6 36.8 179.15 36.8 176.8 36.8 176.0 35.5 L175.65 34.05 Q175.65 31.9 179.7 31.25 183.75 30.6 183.75 33.35 M181.65 31.85 L178.35 32.35 177.1 33.45 177.25 34.1 177.6 34.45 178.5 34.55 181.4 34.2 Q181.9 33.95 181.9 33.2 L181.65 31.85 M167.75 28.95 L169.4 27.65 Q170.45 27.0 170.75 27.0 L171.75 27.2 171.95 27.5 172.15 28.35 Q172.15 30.4 170.4 30.3 168.9 30.25 167.75 28.95 M162.2 33.4 L161.9 33.65 Q161.65 33.95 161.65 34.4 161.65 34.85 161.9 35.2 162.15 35.5 162.5 35.5 L163.1 35.2 163.35 34.4 163.1 33.65 Q162.85 33.3 162.5 33.3 L163.85 33.2 Q165.0 33.35 165.0 34.4 163.95 36.25 162.6 36.25 L161.7 35.8 159.95 34.15 Q161.25 33.6 162.2 33.4 M166.4 36.6 Q168.0 35.5 169.0 35.2 L169.95 35.85 170.3 37.0 169.7 38.2 168.8 38.6 Q169.05 38.8 168.05 38.8 167.35 38.8 166.85 37.85 L166.4 36.6 M177.65 42.3 Q177.65 43.45 176.05 44.1 L173.55 44.6 Q172.45 44.6 171.75 43.95 171.1 43.35 171.1 42.65 171.1 40.8 174.4 40.45 177.65 40.15 177.65 42.3 M176.5 42.15 L176.05 41.55 Q175.6 41.3 174.95 41.3 L173.85 41.55 Q173.4 41.8 173.4 42.15 173.4 42.5 173.85 42.75 L174.95 43.0 176.05 42.75 176.5 42.15 M192.45 35.25 Q193.5 34.3 193.75 34.3 195.85 34.3 196.55 34.75 197.05 35.05 197.05 35.85 197.05 36.8 195.5 37.0 193.8 37.25 192.45 35.25 M188.8 39.4 L190.3 39.55 190.5 39.8 190.65 40.6 Q190.65 41.45 188.75 42.4 L186.75 43.15 Q186.55 43.15 185.25 42.4 183.8 41.55 183.1 40.85 183.55 39.8 184.6 39.55 L188.8 39.4 M157.25 5.05 L157.05 4.55 156.45 4.35 155.9 4.55 Q155.65 4.75 155.65 5.05 L155.9 5.55 Q156.1 5.75 156.45 5.75 L157.05 5.55 157.25 5.05 M154.05 5.3 L154.65 4.4 156.75 4.1 157.4 4.2 Q157.95 4.2 157.95 5.2 157.95 5.95 157.05 6.5 L156.0 6.95 155.15 6.85 Q154.35 6.5 154.05 5.3 M158.25 13.35 L156.75 13.1 155.2 12.75 154.8 12.65 154.7 11.95 Q154.7 11.45 156.7 10.25 158.65 9.1 159.3 9.1 L160.3 9.2 161.55 9.5 161.75 9.9 161.9 10.7 Q161.9 12.1 160.65 12.8 159.65 13.35 158.25 13.35 M152.25 10.5 Q151.65 10.4 151.45 9.65 L151.65 8.5 151.95 8.4 152.8 8.25 154.3 8.4 154.8 9.85 Q154.8 10.65 152.25 10.5 M160.45 11.3 Q160.45 10.95 160.0 10.75 L158.95 10.5 157.9 10.75 Q157.45 10.95 157.45 11.3 157.45 11.65 157.9 11.9 L158.95 12.1 160.0 11.9 160.45 11.3 M148.05 4.6 Q149.45 4.7 150.45 5.35 151.3 5.9 151.3 6.35 151.3 6.85 150.45 7.55 149.45 8.35 148.25 8.35 147.5 8.35 146.8 7.8 145.95 7.1 146.25 6.15 L146.7 5.45 Q147.1 6.6 147.95 6.9 L149.4 7.15 149.7 6.9 149.75 7.05 149.75 6.45 149.2 5.6 148.05 4.6 M142.15 9.25 Q143.5 8.35 144.15 8.35 145.1 8.35 145.5 8.8 145.85 9.15 145.85 10.05 145.85 11.45 145.15 12.1 144.45 12.75 142.8 12.75 140.55 12.75 140.55 10.9 140.55 10.25 142.05 9.3 L142.05 10.8 144.05 10.8 144.05 9.25 142.15 9.25 M133.5 10.1 Q131.5 10.1 131.5 7.75 131.5 5.65 134.85 4.25 137.45 3.2 139.5 3.2 142.25 3.2 143.0 4.3 143.65 5.25 142.5 6.65 139.55 10.1 133.5 10.1 M150.25 15.15 L150.0 15.85 149.3 16.1 148.65 15.85 Q148.35 15.55 148.35 15.15 148.35 14.75 148.65 14.5 148.9 14.2 149.3 14.2 L150.0 14.5 150.25 15.15 M142.35 17.15 L142.2 18.15 Q142.05 18.6 142.05 18.95 L142.05 19.15 141.4 19.3 Q140.9 19.3 140.2 18.35 L139.6 17.25 Q139.6 15.55 141.0 16.0 142.35 16.4 142.35 17.15 M141.2 20.3 Q142.25 20.3 143.0 21.1 143.7 21.85 143.7 22.7 L142.85 23.75 Q141.75 24.6 140.35 24.6 138.85 24.6 138.15 23.75 L137.75 22.85 Q137.75 21.45 138.95 20.8 139.85 20.3 141.2 20.3 M151.55 20.0 Q151.55 19.5 151.1 19.2 150.65 18.85 150.0 18.85 149.35 18.85 148.9 19.2 148.45 19.5 148.45 20.0 148.45 20.5 148.9 20.85 L150.0 21.15 151.1 20.85 151.55 20.0 M146.85 20.75 Q146.85 19.9 148.5 19.0 150.0 18.15 150.95 18.15 152.95 18.15 153.35 20.5 153.35 22.45 150.1 23.1 146.85 23.8 146.85 20.75 M156.8 16.9 Q156.8 17.35 156.4 17.7 L155.45 18.0 154.5 17.7 Q154.1 17.35 154.1 16.9 154.1 16.45 154.5 16.15 154.9 15.8 155.45 15.8 156.0 15.8 156.4 16.15 156.8 16.45 156.8 16.9 M134.5 7.4 Q137.8 7.75 140.25 6.4 142.55 5.2 141.95 3.9 L140.55 3.6 135.5 4.95 Q134.0 5.35 134.0 6.8 134.0 7.4 134.1 7.4 L134.5 7.4 M120.5 6.65 Q120.5 4.85 122.4 4.45 L123.15 4.5 123.45 4.7 123.65 6.65 123.25 7.35 121.65 8.6 Q120.2 7.15 120.9 7.45 L121.65 7.6 122.85 6.5 123.5 5.55 Q123.25 4.9 122.1 4.9 121.9 4.9 121.45 5.25 120.9 5.8 120.5 6.65 M126.5 8.05 Q128.8 7.15 129.45 8.05 L130.25 9.45 129.0 10.75 Q127.7 11.7 126.45 11.65 125.1 11.35 125.1 9.9 125.1 9.5 125.9 8.45 126.9 7.15 126.15 8.4 L126.25 9.05 127.35 9.2 128.3 8.9 128.45 8.2 128.2 7.75 126.5 8.05 M125.4 15.35 L125.4 13.7 Q125.65 13.5 126.65 13.1 L127.75 12.65 Q128.75 12.65 129.3 13.4 129.7 13.95 129.7 14.6 129.7 15.55 128.55 16.1 127.1 16.75 125.4 15.35 M127.7 14.05 L127.4 13.85 127.0 14.0 Q126.65 14.15 126.65 14.75 L126.75 15.35 126.85 15.15 Q127.85 15.1 127.9 14.7 L127.7 14.05 M131.55 17.95 L131.35 17.85 Q131.1 17.65 131.1 17.05 131.1 16.4 131.5 16.05 L132.5 15.3 132.5 15.2 133.25 15.1 134.0 15.75 134.95 16.85 134.7 18.0 131.55 17.95 M123.0 13.75 L122.8 14.3 122.25 14.5 Q121.95 14.5 121.75 14.3 L121.5 13.75 121.75 13.25 Q121.95 13.0 122.25 13.0 122.55 13.0 122.8 13.25 L123.0 13.75 M120.15 16.0 Q123.2 14.6 122.5 17.85 L122.3 18.95 121.75 19.3 119.85 18.95 117.9 18.7 117.7 18.45 117.5 17.55 119.5 16.3 119.45 16.45 Q119.7 17.6 120.4 17.9 L121.5 16.8 120.65 16.2 120.15 16.0 M125.55 24.25 L123.0 24.6 122.8 25.0 Q122.7 25.0 122.7 25.55 122.7 26.15 122.85 26.4 L122.95 26.6 124.45 26.8 Q125.85 26.65 126.65 25.4 L125.55 24.25 M131.1 23.7 Q131.0 22.8 130.6 22.4 129.9 21.8 127.15 21.8 126.65 21.8 126.25 22.25 125.9 22.65 125.9 23.15 125.9 23.75 126.05 23.9 L126.2 24.0 127.3 24.05 131.1 23.7 M127.95 20.8 L131.35 21.2 Q133.1 21.7 133.1 22.7 133.1 24.95 130.5 26.5 127.8 28.1 123.75 28.1 121.85 28.1 121.35 27.45 L121.25 26.65 Q121.25 24.65 122.9 22.9 124.85 20.8 127.95 20.8 M135.85 13.0 L135.45 13.55 134.4 13.75 133.4 13.55 132.95 13.0 Q132.95 12.7 133.4 12.5 L134.4 12.25 135.45 12.5 Q135.85 12.7 135.85 13.0 M146.4 26.35 L144.4 26.7 Q142.85 27.2 141.35 28.45 L141.4 28.8 141.6 29.0 142.05 29.1 144.9 28.7 Q146.9 28.25 146.9 26.75 146.9 25.75 146.4 26.35 M140.45 29.25 Q140.25 28.25 139.1 28.25 L138.5 28.4 138.55 28.85 Q139.0 29.55 139.95 29.8 L140.45 29.25 M139.2 23.35 Q140.1 23.25 140.65 22.65 L141.75 21.05 141.35 20.55 139.7 20.85 138.55 22.5 138.65 23.05 Q139.0 23.3 139.2 23.35 M137.75 28.95 L138.6 27.7 Q139.0 27.45 140.1 27.7 L140.9 28.1 Q141.45 28.3 141.15 27.45 141.1 27.25 141.75 27.15 L143.0 27.0 144.7 26.05 Q146.1 25.1 146.5 25.1 147.15 25.1 147.6 25.55 148.05 26.0 148.05 26.65 148.05 28.9 144.65 30.05 141.0 31.25 137.75 28.95 M131.15 32.8 L131.0 32.75 Q130.85 32.6 130.85 31.95 130.85 30.85 131.5 30.1 132.15 29.4 132.9 29.4 133.9 29.4 134.7 29.75 134.9 29.65 134.9 30.65 134.9 32.55 133.5 32.85 L131.15 32.8 M134.9 35.35 L135.0 34.75 135.75 34.55 Q136.35 34.55 136.9 35.35 L137.4 36.25 137.15 36.95 136.15 37.15 Q135.9 37.15 134.9 35.35 M143.95 32.0 L144.9 32.6 Q145.3 32.85 145.3 33.35 145.3 34.45 143.95 35.25 142.8 35.9 141.8 35.9 L140.4 35.7 140.3 35.45 Q140.15 35.25 140.15 34.65 140.15 34.2 141.85 33.25 L143.95 32.0 M124.05 31.3 L125.75 30.45 Q127.2 29.75 127.3 29.75 L127.75 29.95 128.65 30.1 128.85 30.25 129.05 31.0 Q129.05 32.45 125.2 32.45 L124.3 32.35 124.1 32.25 124.05 31.3 M115.4 41.05 L115.7 40.85 116.1 40.6 116.45 40.4 117.5 39.0 Q118.5 37.25 119.35 37.15 L120.3 37.35 120.6 36.3 Q121.05 35.2 122.45 35.0 L123.45 34.7 124.95 34.35 Q126.85 34.35 127.65 35.75 128.2 36.65 128.2 37.9 128.2 38.8 125.85 40.85 123.35 43.05 121.7 43.05 L117.95 42.4 116.4 41.8 115.8 41.5 115.4 41.05 M126.1 35.85 L125.9 35.35 Q125.65 35.1 125.3 35.1 124.95 35.1 124.75 35.35 L124.5 35.85 124.75 36.4 125.3 36.6 125.9 36.4 126.1 35.85 M136.1 42.55 Q136.1 43.3 135.35 43.85 134.65 44.35 133.75 44.35 132.05 44.35 131.1 43.1 130.45 42.25 130.45 41.55 130.45 39.3 133.3 39.7 136.1 40.1 136.1 42.55 M127.2 43.5 L127.0 44.0 Q126.8 44.2 126.5 44.2 L126.0 44.0 125.8 43.5 126.0 43.0 126.5 42.8 127.0 43.0 127.2 43.5 M125.9 38.05 Q125.3 36.1 123.3 36.35 121.6 36.6 120.9 37.6 L121.85 38.4 123.65 38.7 Q125.6 38.7 125.9 38.05 M147.7 39.9 Q147.7 40.8 146.7 41.35 145.7 41.9 144.0 41.9 L141.55 41.75 141.2 41.5 Q140.85 41.25 140.85 40.65 140.85 38.1 144.3 37.65 147.7 37.15 147.7 39.9 M134.35 42.5 Q134.2 41.15 133.6 40.9 132.6 40.85 132.1 41.35 131.8 41.7 131.8 42.1 L131.9 42.8 132.0 42.75 133.05 42.85 133.95 42.7 134.35 42.5 M140.8 45.15 L138.7 45.15 138.65 44.7 139.05 44.05 Q139.5 43.5 139.9 43.3 L140.55 43.35 140.85 44.35 140.8 45.15 M118.05 45.15 L115.4 45.15 115.4 44.9 113.9 44.65 111.8 44.5 Q110.95 44.5 110.75 45.15 L109.2 45.15 Q109.65 44.2 110.8 43.5 L111.7 43.0 115.2 43.5 116.45 44.05 117.0 44.35 117.8 44.95 118.05 45.15 M106.65 45.15 L106.05 45.15 105.85 44.9 Q104.95 44.1 102.65 44.1 L101.35 44.3 100.65 44.75 100.75 44.95 101.05 45.15 98.3 45.15 Q98.4 44.35 98.8 43.95 99.7 43.1 102.2 43.1 L106.85 43.65 106.65 45.15 M92.55 45.15 L91.55 45.15 91.4 44.7 85.9 44.4 85.85 45.15 82.9 45.15 84.1 43.8 Q86.35 42.5 90.6 43.55 L90.1 42.75 90.15 42.2 90.95 42.05 93.2 42.3 95.4 42.75 Q94.9 43.7 92.6 45.1 L92.55 45.15 M62.45 45.15 L59.5 45.15 Q59.15 44.8 59.15 44.4 59.15 43.85 59.7 43.45 60.2 43.05 60.95 43.05 61.7 43.05 62.25 43.45 62.75 43.85 62.75 44.4 L62.45 45.15 M48.85 45.15 L44.2 45.15 43.75 44.25 Q43.75 41.9 46.95 40.0 L47.95 40.25 49.35 40.45 48.1 40.9 Q50.9 41.95 51.25 43.0 L49.85 44.3 48.7 45.1 48.85 45.15 M41.45 45.15 L40.3 45.15 40.05 45.05 37.75 44.7 35.5 45.05 35.25 45.15 33.0 45.15 Q34.35 43.75 38.95 43.75 40.25 43.75 41.35 45.05 L41.45 45.15 M20.85 45.15 L16.5 45.15 16.4 45.1 Q16.1 44.85 16.1 43.85 16.1 41.0 18.6 41.0 21.8 41.0 21.9 43.25 21.95 44.65 20.85 45.15 M162.6 28.45 Q162.6 29.9 160.95 31.1 158.8 32.65 154.65 32.65 152.75 32.65 151.4 31.7 150.15 30.8 150.15 29.6 150.15 29.1 150.55 28.6 L150.9 27.55 Q150.9 26.15 153.7 26.1 L157.3 26.3 161.1 26.4 Q162.6 26.95 162.6 28.45 M152.35 29.8 Q154.75 30.05 155.75 29.8 156.6 29.55 156.6 28.85 156.6 27.8 156.4 27.45 156.1 26.85 155.1 26.85 154.1 26.85 153.2 27.35 152.2 27.95 152.2 28.8 L152.3 29.7 152.35 29.8 M158.5 31.0 Q159.0 30.65 160.45 30.15 161.4 29.8 161.4 29.25 161.4 27.95 160.5 27.3 157.65 28.25 157.65 29.8 157.65 30.45 157.9 30.75 L158.5 31.0 M153.15 35.85 Q154.35 35.85 155.1 36.35 155.75 36.8 155.75 37.3 155.75 39.15 153.55 39.8 L151.65 40.05 Q148.8 40.05 148.9 37.95 149.0 35.85 153.15 35.85 M145.4 40.6 Q146.1 40.6 146.6 40.1 147.3 39.35 145.7 38.2 L143.35 38.75 Q142.45 38.95 142.45 39.55 142.45 40.15 142.6 40.3 L142.75 40.3 145.4 40.6 M151.35 38.55 L152.3 38.15 152.75 37.0 151.65 36.5 151.2 36.7 150.85 38.0 Q150.85 38.45 151.35 38.55 M144.45 34.15 Q144.45 33.75 144.1 33.5 L143.2 33.2 Q142.7 33.2 142.35 33.5 141.95 33.75 141.95 34.15 L142.35 34.85 143.2 35.1 144.1 34.85 144.45 34.15 M146.6 45.15 L146.3 45.15 Q145.9 45.05 145.9 44.4 145.9 43.85 146.15 43.4 L146.3 42.75 147.2 43.6 Q147.75 44.05 147.7 44.75 L146.7 45.1 146.6 45.15 M154.75 45.15 L154.7 45.05 154.45 44.1 Q154.45 43.6 154.95 43.3 155.4 43.0 155.4 42.5 155.4 40.8 158.55 40.95 161.65 41.1 161.65 43.1 161.65 44.45 158.9 44.9 L158.1 45.15 154.75 45.15 M158.2 41.35 Q156.95 41.35 156.45 42.2 156.15 42.65 156.15 43.25 156.15 43.85 156.35 43.9 L156.5 43.95 Q158.05 44.45 159.15 43.65 L160.3 42.3 Q159.35 41.35 158.2 41.35 M112.6 5.75 L114.2 5.9 114.5 6.3 114.75 7.2 114.5 8.0 113.7 8.65 112.6 9.1 110.85 9.3 Q109.95 9.3 109.15 8.8 L108.85 8.6 108.75 8.55 Q108.0 7.9 108.0 7.35 108.0 6.7 108.65 6.2 109.0 5.9 109.6 5.7 L109.4 6.15 109.75 7.85 110.45 8.0 111.5 8.1 111.95 7.8 112.15 7.5 112.6 6.3 112.6 5.75 M112.75 4.15 L110.0 4.1 Q111.8 3.05 112.35 3.05 114.35 3.05 114.8 5.0 113.9 4.5 112.75 4.15 M117.45 8.9 Q120.1 8.4 120.65 8.9 121.15 9.35 121.15 10.0 121.15 11.85 120.3 12.85 119.6 13.7 118.65 13.7 L116.1 13.4 115.55 13.3 113.65 13.0 113.35 12.1 113.85 11.45 115.2 10.2 115.65 9.85 116.35 9.45 Q115.85 9.9 115.7 10.3 L115.65 10.55 115.8 10.95 116.2 11.4 Q116.85 11.9 117.8 11.9 L119.45 11.6 Q119.9 11.2 119.9 9.65 119.9 8.65 117.45 8.9 M104.9 6.6 L104.65 7.25 104.0 7.5 103.4 7.25 Q103.1 6.95 103.1 6.6 103.1 6.25 103.4 6.0 103.65 5.7 104.0 5.7 104.35 5.7 104.65 6.0 L104.9 6.6 M102.35 5.45 Q102.35 7.95 100.0 9.25 98.55 10.0 97.45 10.0 96.5 10.0 95.5 8.7 94.55 7.5 94.55 6.7 94.55 4.4 97.25 3.0 99.15 2.0 100.3 2.0 101.6 2.0 102.05 3.05 102.35 3.8 102.35 5.45 M106.1 5.65 L106.35 5.6 106.25 5.75 106.1 5.65 M107.1 11.5 L106.8 12.2 106.2 13.65 106.35 14.4 104.45 14.15 Q102.35 13.6 102.35 11.5 102.35 10.15 105.6 9.2 L106.3 9.0 106.6 9.5 106.8 9.75 106.6 10.7 Q106.6 11.3 106.75 11.4 L106.9 11.5 107.1 11.5 M110.45 11.7 L110.7 12.0 110.75 12.85 Q110.75 13.8 110.05 14.45 L109.7 14.65 Q108.85 15.15 108.2 15.1 L107.7 15.05 Q107.5 14.95 107.5 14.45 L107.5 14.35 Q107.5 13.6 108.35 12.75 109.25 11.9 110.45 11.7 M109.8 13.25 L109.6 12.75 Q109.35 12.5 109.05 12.5 108.75 12.5 108.55 12.75 L108.3 13.25 108.55 13.8 Q108.75 14.0 109.05 14.0 L109.6 13.8 109.8 13.25 M114.8 15.3 L114.9 16.3 114.8 17.05 114.2 17.8 113.65 18.05 112.95 18.2 111.75 18.4 110.5 18.55 109.75 18.3 109.45 18.15 Q108.9 17.85 108.9 17.05 108.9 16.65 109.2 16.3 L110.2 15.5 114.8 15.3 M111.4 17.15 L111.85 17.0 Q113.1 16.5 113.25 16.2 L113.25 16.15 112.85 15.4 111.55 15.35 110.75 15.45 110.55 15.5 Q110.45 15.4 110.45 16.4 110.45 17.0 110.6 17.05 L110.9 17.05 111.4 17.15 M106.25 17.0 Q106.25 17.45 105.85 17.8 L104.9 18.1 Q104.35 18.1 103.95 17.8 103.55 17.45 103.55 17.0 103.55 16.55 103.95 16.25 104.35 15.9 104.9 15.9 105.45 15.9 105.85 16.25 106.25 16.55 106.25 17.0 M102.95 23.05 L102.75 22.55 102.15 22.3 Q101.8 22.3 101.6 22.55 101.35 22.75 101.35 23.05 L101.6 23.6 Q101.8 23.8 102.15 23.8 L102.75 23.6 102.95 23.05 M107.3 22.3 L107.55 24.35 Q107.55 24.85 107.15 25.05 L107.0 25.15 106.6 24.8 Q105.8 23.9 105.8 22.45 105.8 21.75 106.3 21.2 106.6 20.9 107.05 20.75 L107.15 21.45 107.15 21.5 107.05 21.8 107.3 22.3 M100.85 21.7 L100.95 21.55 Q101.05 21.4 101.65 21.4 102.7 21.4 103.45 22.4 104.1 23.35 104.1 24.5 103.8 25.1 102.85 25.1 101.55 25.1 101.25 24.45 L100.85 21.7 M111.8 19.9 Q110.1 19.85 109.5 20.6 109.2 20.9 109.15 21.45 L109.15 21.6 109.2 22.15 109.25 22.3 109.6 22.4 109.6 22.5 110.35 22.55 111.3 22.15 112.35 21.05 112.3 22.45 112.25 22.65 111.6 22.75 108.6 22.55 108.5 22.3 Q108.35 22.0 108.35 21.4 L108.4 21.05 108.7 20.45 Q109.05 20.05 109.75 19.9 110.7 19.7 111.8 19.9 M111.25 25.15 L111.0 25.75 110.3 25.95 Q109.9 25.95 109.65 25.75 L109.4 25.4 109.35 25.15 Q109.35 24.8 109.65 24.6 109.9 24.35 110.3 24.35 110.7 24.35 111.0 24.6 L111.25 25.15 M90.05 17.0 L87.25 17.55 Q86.05 17.85 85.5 17.25 L85.2 16.5 Q85.2 16.15 85.95 15.3 L86.85 14.35 Q87.55 13.9 93.4 13.1 L95.95 13.4 98.5 13.65 Q99.15 13.65 100.55 14.9 102.3 16.45 102.3 18.35 102.3 18.85 101.9 19.35 101.5 19.85 101.0 19.85 99.65 19.85 98.2 19.25 95.65 18.2 91.7 17.25 L93.95 16.35 Q94.65 15.95 94.65 15.25 94.65 14.6 94.25 14.4 L93.25 14.1 91.2 14.75 89.7 15.1 90.05 17.0 M116.95 20.75 L116.9 21.15 116.5 21.6 116.45 21.65 Q116.0 21.95 115.4 21.95 L114.3 21.6 Q113.85 21.25 113.85 20.75 113.85 20.25 114.3 19.9 114.75 19.55 115.4 19.55 L115.5 19.55 116.05 19.65 116.5 19.9 Q116.95 20.25 116.95 20.75 M114.75 25.15 L114.5 25.75 113.8 25.95 113.15 25.75 Q112.85 25.5 112.85 25.15 112.85 24.9 113.0 24.75 L113.15 24.6 Q113.4 24.35 113.75 24.35 L113.8 24.35 Q114.2 24.35 114.5 24.6 L114.75 25.15 M116.25 23.45 L116.3 23.45 117.3 23.3 Q117.7 23.3 118.55 23.85 119.75 24.55 120.15 25.6 L119.5 26.2 Q118.8 26.7 117.7 26.7 116.45 26.7 116.05 25.8 115.8 25.3 115.9 24.65 L116.1 23.9 116.2 23.6 116.25 23.55 116.25 23.45 M100.25 3.1 L98.3 4.0 Q99.25 3.35 97.65 3.1 97.05 3.1 96.35 4.25 L95.75 5.65 Q95.75 6.3 96.1 6.4 L96.45 6.35 98.2 6.45 Q99.7 6.45 100.3 5.4 L100.65 4.25 100.55 3.35 100.25 3.1 M92.95 6.85 L93.15 8.4 93.0 9.95 91.65 10.05 90.65 9.95 90.25 9.65 Q90.1 9.45 90.1 8.85 90.1 7.85 90.45 7.0 L91.65 6.9 92.95 6.85 M99.85 12.15 L99.35 12.75 98.15 13.0 96.95 12.75 Q96.45 12.5 96.45 12.15 96.45 11.8 96.95 11.55 L98.15 11.3 99.35 11.55 Q99.85 11.8 99.85 12.15 M86.2 10.6 Q83.0 10.6 81.55 9.9 80.6 9.4 80.6 8.9 80.6 8.15 84.4 4.35 84.95 4.35 86.05 5.05 87.25 5.85 88.1 6.05 89.0 6.25 89.4 6.75 89.75 7.3 89.75 8.45 89.75 9.5 89.15 10.0 88.35 10.6 86.2 10.6 M86.1 5.85 Q84.05 6.0 83.4 6.5 L82.95 7.15 83.9 7.8 84.5 8.5 85.0 9.05 Q86.95 9.05 87.45 7.1 L87.1 6.65 86.1 5.85 M85.95 13.4 L85.55 14.0 84.55 14.25 83.55 14.0 Q83.15 13.75 83.15 13.4 83.15 13.05 83.55 12.8 L84.55 12.55 85.55 12.8 85.95 13.4 M86.2 24.0 Q86.2 24.5 85.7 24.85 L84.4 25.15 83.15 24.85 Q82.6 24.5 82.6 24.0 82.6 23.5 83.15 23.2 83.65 22.85 84.4 22.85 85.15 22.85 85.7 23.2 86.2 23.5 86.2 24.0 M82.55 19.05 L81.1 20.5 Q79.85 21.3 78.7 21.3 L77.35 21.0 Q76.1 20.5 75.7 19.45 L76.4 18.2 Q77.2 17.6 79.55 17.6 80.05 17.6 81.1 18.1 82.1 18.6 82.55 19.05 M86.2 20.6 L86.35 19.6 86.45 19.45 87.15 19.3 87.9 19.55 Q88.6 19.9 88.8 20.7 88.15 21.2 87.45 21.1 86.95 21.05 86.2 20.6 M92.2 24.7 Q93.95 26.9 98.8 25.6 L97.05 24.2 Q95.95 23.7 95.1 23.7 L93.35 24.15 Q92.35 24.5 92.2 24.7 M96.45 15.5 L97.55 16.75 Q98.3 17.5 99.35 17.5 L100.15 17.25 100.3 16.7 Q99.5 15.8 98.5 15.25 L97.5 14.85 96.65 15.05 96.45 15.5 M94.7 22.25 Q95.3 22.25 97.1 22.95 99.45 23.85 100.35 25.0 L101.65 26.5 101.65 26.15 102.5 26.4 102.55 27.4 Q102.55 28.35 101.55 29.1 100.7 29.75 100.15 29.75 L89.8 27.7 89.65 27.3 89.45 26.4 Q89.45 25.8 90.1 24.85 L91.05 23.55 Q91.95 22.25 94.7 22.25 M95.85 37.85 L97.5 37.7 Q98.3 37.5 98.6 37.1 L97.15 35.95 96.4 36.05 95.85 36.2 95.7 37.1 95.85 37.85 M101.05 27.7 Q101.05 27.35 100.6 27.15 L99.5 26.9 98.4 27.15 Q97.95 27.35 97.95 27.7 97.95 28.05 98.4 28.3 L99.5 28.5 100.6 28.3 101.05 27.7 M90.0 34.85 L89.9 34.8 Q89.75 34.6 89.75 33.95 89.75 33.2 90.9 32.55 93.15 31.25 98.85 31.25 101.2 31.25 101.2 34.45 101.2 36.2 99.65 37.65 98.2 38.95 96.85 38.95 95.7 38.95 95.3 38.6 L94.4 36.9 Q93.95 35.8 92.0 35.3 L90.0 34.85 M93.6 35.0 L98.45 34.9 Q99.95 34.7 99.95 33.1 L99.8 32.4 99.65 32.45 Q96.4 32.5 94.55 33.2 93.2 33.75 93.2 34.2 L93.4 34.95 93.6 35.0 M80.75 26.65 Q83.35 27.95 86.7 28.4 89.05 28.7 90.1 30.15 89.85 31.25 83.15 31.25 L79.65 30.7 77.1 29.85 75.0 29.45 73.2 28.95 Q74.55 28.15 77.3 28.0 79.6 27.9 80.75 26.65 M82.95 30.75 L85.0 30.55 86.75 30.2 86.75 29.5 81.35 28.1 79.7 29.15 81.15 30.15 Q82.3 30.75 82.95 30.75 M71.3 34.5 L74.55 31.8 77.65 31.55 Q79.45 31.55 80.9 32.2 L83.3 33.45 Q83.55 33.0 83.55 34.0 83.55 34.95 81.0 36.0 78.4 37.1 76.0 37.1 75.3 37.1 73.5 36.05 L71.3 34.5 M80.45 33.3 Q80.15 34.5 80.2 34.65 L81.0 35.15 Q82.4 34.7 82.5 34.35 L81.15 33.0 Q80.55 33.0 80.5 33.15 L80.45 33.3 M86.95 36.75 L86.3 37.55 85.35 38.1 84.7 38.15 Q84.4 38.1 84.4 37.45 84.4 36.7 85.25 36.2 86.2 35.6 86.95 36.75 M88.4 38.25 L88.15 38.85 87.5 39.05 86.9 38.85 Q86.6 38.6 86.6 38.25 86.6 37.9 86.9 37.7 87.15 37.45 87.5 37.45 L88.15 37.7 88.4 38.25 M78.45 42.45 L78.3 42.25 78.1 41.45 Q78.1 41.1 78.5 40.9 L80.4 39.9 Q81.6 39.95 81.6 40.3 81.9 39.95 81.9 40.95 81.9 41.55 80.85 42.25 L78.45 42.45 M103.05 40.65 L102.4 41.55 100.8 41.9 99.2 41.55 Q98.55 41.15 98.55 40.65 98.55 40.15 99.2 39.8 99.85 39.4 100.8 39.4 101.75 39.4 102.4 39.8 103.05 40.15 103.05 40.65 M115.75 30.2 L116.65 30.45 Q118.1 30.7 118.55 29.5 118.55 28.5 118.4 28.95 117.9 28.5 117.05 28.4 L116.45 28.35 116.25 28.35 115.5 28.5 115.45 29.1 115.75 30.05 115.75 30.2 M119.0 25.5 L118.8 25.0 Q118.6 24.75 118.3 24.75 118.0 24.75 117.8 25.0 L117.6 25.5 117.8 26.05 118.3 26.25 Q118.6 26.25 118.8 26.05 L119.0 25.5 M114.1 29.4 L114.15 28.65 114.45 28.05 114.65 28.05 114.9 28.0 115.75 27.9 116.25 27.95 116.9 28.05 118.0 28.4 Q119.35 28.95 119.75 29.6 L119.55 30.0 118.7 30.2 118.1 30.8 Q117.6 31.25 116.5 31.35 L115.95 31.35 115.7 31.35 114.8 31.0 114.3 30.35 114.1 29.4 M112.45 34.3 L113.8 34.45 115.0 34.65 115.6 34.85 116.1 35.0 116.8 35.3 117.0 35.85 116.55 36.45 116.3 36.45 113.6 36.3 109.8 36.05 109.5 36.0 Q108.0 35.7 108.1 33.45 L108.3 32.15 109.55 31.9 110.9 32.05 111.4 32.1 Q112.4 32.35 112.75 32.8 113.25 33.4 112.45 34.3 M115.25 35.3 L115.0 34.9 114.95 34.85 114.3 34.75 113.65 34.9 Q113.35 35.05 113.35 35.3 L113.65 35.7 114.25 35.85 114.3 35.85 115.0 35.7 115.25 35.3 M112.0 34.25 Q111.35 33.5 110.8 33.3 L110.55 33.2 109.55 33.2 Q109.2 33.25 108.75 33.45 L108.85 34.0 109.05 34.2 Q109.95 35.0 111.05 35.0 L111.9 34.8 112.0 34.25 M118.75 32.7 L118.7 32.45 Q118.95 32.15 119.75 31.75 121.2 32.0 121.3 32.7 120.55 33.5 119.75 33.25 L118.75 32.7 M107.2 28.25 L107.65 30.75 107.15 31.35 106.85 31.95 106.05 32.05 Q105.05 32.05 104.35 31.4 103.65 30.75 103.65 29.8 103.65 28.85 104.35 28.2 105.05 27.55 106.05 27.55 L107.1 27.75 107.2 28.25 M107.25 30.1 L106.65 28.85 Q106.25 28.3 105.3 28.3 104.25 28.3 104.15 29.15 L104.9 30.2 Q105.35 30.75 106.25 30.75 L107.0 30.6 107.25 30.1 M103.6 36.4 Q103.6 35.85 103.2 34.85 L103.3 33.7 104.55 33.35 Q105.85 33.6 105.85 35.4 L105.8 36.1 105.55 36.45 103.6 36.4 M111.3 41.15 L112.7 40.3 112.3 39.75 111.75 39.25 Q110.9 38.55 111.25 39.05 L111.1 39.75 110.55 40.55 110.6 40.65 Q110.85 41.05 111.3 41.15 M111.55 38.1 Q113.55 38.1 113.55 40.45 L113.4 41.25 112.55 42.2 112.45 42.2 110.85 42.55 Q109.9 42.55 109.25 41.35 L109.05 40.95 108.8 40.05 Q108.8 39.8 109.55 39.05 110.2 38.4 110.9 38.2 L111.55 38.1 M106.25 40.7 Q106.6 39.75 107.4 39.05 L107.1 41.45 106.25 40.7 M121.6 40.35 Q121.45 39.55 120.5 39.55 118.75 39.55 117.7 40.3 L118.3 41.4 Q118.85 42.2 119.05 42.2 L120.35 41.45 Q121.45 40.7 121.6 40.35 M76.1 6.0 L78.0 6.25 78.15 7.25 77.95 9.05 76.1 9.25 74.9 9.15 74.65 9.1 Q74.35 8.95 74.35 8.3 74.35 6.95 76.1 6.0 M81.8 13.7 Q81.8 14.5 80.1 14.6 L71.05 15.45 70.15 14.9 69.75 14.35 Q69.75 12.95 70.1 12.7 70.7 12.3 71.15 10.95 L72.0 10.35 Q73.45 9.75 76.3 9.75 78.5 9.75 80.25 11.25 81.8 12.55 81.8 13.7 M73.55 12.6 L73.45 12.7 Q73.2 13.55 74.95 13.55 L77.85 13.05 Q78.8 12.65 78.8 12.2 78.8 11.2 78.3 10.85 L76.3 10.6 74.7 10.2 Q73.2 10.2 73.9 12.45 L73.35 12.65 73.55 12.6 M77.65 7.4 L77.4 6.75 Q77.1 6.45 76.7 6.45 76.3 6.45 76.05 6.75 75.75 7.0 75.75 7.4 75.75 7.8 76.05 8.1 L76.7 8.35 77.4 8.1 77.65 7.4 M69.15 4.6 Q71.4 4.6 72.55 5.95 73.3 6.8 73.3 7.6 73.3 8.6 70.35 9.45 L65.8 10.2 Q64.1 10.2 63.35 9.35 62.6 8.5 63.05 7.4 64.15 4.6 69.15 4.6 M71.4 6.25 Q70.45 5.5 69.05 5.6 67.8 5.7 67.1 6.25 L68.1 7.4 Q68.7 7.9 69.65 8.25 L70.65 7.2 71.4 6.25 M66.4 5.85 Q65.75 6.2 64.95 6.85 L64.2 7.5 Q64.2 8.1 64.4 8.15 L64.75 8.2 Q65.95 7.8 66.6 7.2 L67.0 6.6 Q67.0 6.0 66.8 5.9 L66.4 5.85 M71.45 18.9 L71.0 19.55 69.9 19.8 68.8 19.55 Q68.35 19.25 68.35 18.9 68.35 18.55 68.8 18.3 69.25 18.0 69.9 18.0 70.55 18.0 71.0 18.3 L71.45 18.9 M66.75 14.25 Q66.75 14.9 65.8 15.65 64.65 16.6 62.95 16.6 62.45 16.6 61.6 15.9 L60.3 14.75 Q62.7 12.1 64.75 12.05 66.75 12.0 66.75 14.25 M57.8 9.6 Q59.15 9.6 59.65 7.5 60.15 5.35 58.15 5.35 L57.15 6.1 Q55.85 7.1 55.55 8.3 55.75 8.75 56.8 9.25 L57.8 9.6 M63.9 15.1 Q65.9 13.35 64.1 13.15 62.65 13.45 62.25 13.95 L63.9 15.1 M50.05 8.3 L50.55 6.9 51.25 6.65 Q51.7 6.35 52.25 6.35 52.75 6.35 53.1 6.8 L53.75 7.85 54.4 8.1 55.4 6.0 Q56.15 4.7 57.7 4.7 59.3 4.7 60.4 6.25 61.35 7.55 61.35 8.9 61.35 13.3 58.0 13.3 L55.6 12.45 Q53.4 11.3 54.2 9.55 53.8 9.8 52.5 9.55 50.85 9.3 50.05 8.3 M43.1 8.75 Q45.2 8.95 46.35 8.05 47.2 7.45 47.2 6.85 L47.0 6.0 46.75 5.65 44.45 5.3 43.35 6.0 Q42.65 6.35 42.65 6.65 L42.9 8.0 43.1 8.75 M36.5 6.7 L37.3 6.05 Q37.75 5.7 38.15 5.7 38.65 5.7 39.5 6.15 L40.8 6.6 43.05 5.7 Q45.05 4.75 45.1 4.75 48.65 4.75 48.65 8.0 48.65 10.6 46.8 12.45 45.25 14.0 43.7 14.0 43.15 14.0 41.85 12.4 40.6 10.75 38.95 10.75 38.3 10.75 37.4 9.1 36.65 7.65 36.5 6.7 M43.15 11.2 L45.2 11.15 45.25 10.4 44.1 9.6 43.55 10.2 43.0 10.85 Q43.0 11.5 43.1 11.4 L43.15 11.2 M55.3 14.95 Q55.3 15.9 54.35 16.75 53.3 17.65 51.7 17.65 49.85 17.65 48.85 16.55 47.95 15.55 47.95 13.85 L48.1 11.5 49.55 11.35 50.6 11.15 Q55.3 13.5 55.3 14.95 M53.3 13.4 L50.25 13.15 Q48.35 13.45 48.35 14.7 48.35 15.3 48.6 15.5 L48.8 15.6 49.0 15.7 49.9 15.75 Q52.5 15.75 53.0 15.25 L53.3 13.4 M47.4 18.25 L47.45 18.35 46.45 18.6 44.8 18.85 44.25 18.8 44.45 18.7 44.4 18.55 Q44.6 18.3 45.55 18.25 L47.4 18.25 M60.65 18.5 L60.3 19.05 59.4 19.25 Q58.9 19.25 58.55 19.05 L58.15 18.5 Q58.15 18.2 58.55 18.0 L59.4 17.75 60.3 18.0 60.65 18.5 M55.15 32.3 L51.3 32.1 Q48.05 32.1 48.05 33.15 L48.15 33.9 48.25 33.85 Q49.55 34.5 50.85 34.5 L52.6 34.15 53.95 33.8 Q55.1 33.8 55.4 33.4 L55.15 32.3 M48.0 31.6 L50.65 31.1 53.55 31.2 Q54.95 32.0 55.8 32.85 L56.45 33.7 Q56.45 35.0 54.4 35.9 52.65 36.65 50.95 36.65 47.05 36.65 47.05 32.8 47.05 32.15 47.35 31.95 47.5 31.8 48.0 31.6 M36.2 30.0 L37.05 29.8 38.7 29.45 41.05 30.0 41.8 30.35 43.2 31.9 Q44.0 32.8 44.0 33.15 L42.45 37.15 Q40.9 40.7 40.6 40.7 39.5 40.7 38.5 39.85 37.35 38.9 35.65 38.6 33.35 38.25 32.1 36.65 30.95 35.15 30.95 32.9 30.95 31.9 31.95 31.2 L34.35 30.5 36.2 30.0 M24.85 30.95 L25.85 30.75 Q27.1 30.75 27.65 31.3 28.25 31.85 28.25 33.35 28.25 34.2 27.05 34.85 L25.15 35.4 Q24.0 35.4 23.1 34.5 22.35 33.7 22.35 33.1 22.35 32.65 23.35 31.8 24.0 31.3 24.6 31.05 L24.85 30.95 M11.95 30.25 Q14.85 30.5 16.5 31.7 17.7 32.6 17.7 33.25 17.7 34.95 15.55 35.95 14.0 36.65 12.6 36.65 9.25 36.65 7.65 35.15 6.5 34.05 6.5 32.45 L7.1 31.5 Q7.8 30.6 8.7 30.05 L11.95 30.25 M6.4 29.0 L6.15 30.05 5.0 30.75 6.05 29.7 Q5.2 28.95 3.95 28.85 L5.7 28.65 6.4 28.95 6.4 29.0 M33.1 33.25 Q33.7 34.2 35.15 34.4 L36.9 34.45 Q38.5 34.85 39.0 35.4 39.4 35.8 39.8 35.8 41.7 35.8 42.0 34.75 L42.45 32.45 Q41.45 31.8 40.15 31.3 38.35 30.6 37.05 30.6 36.55 31.55 35.85 32.1 L34.6 32.65 33.1 33.25 M44.5 38.15 L44.4 37.7 45.5 36.65 46.55 36.65 46.75 36.7 46.9 37.35 Q46.9 38.85 46.0 38.8 45.35 38.8 44.5 38.15 M50.3 43.2 Q50.3 42.75 49.55 42.45 48.8 42.1 47.7 42.1 46.6 42.1 45.85 42.45 45.1 42.75 45.1 43.2 45.1 43.65 45.85 44.0 L47.7 44.3 49.55 44.0 Q50.3 43.65 50.3 43.2 M56.55 38.6 L56.7 38.6 57.05 38.55 58.35 38.85 58.4 40.15 Q58.4 42.25 56.15 42.05 54.0 41.9 52.05 40.05 L52.45 39.2 53.75 38.95 53.65 39.55 53.95 40.45 Q54.3 41.0 55.7 40.8 L56.35 40.05 56.85 39.25 56.7 38.6 56.55 38.65 56.55 38.6 M69.25 30.05 L67.95 30.2 Q67.0 30.55 66.2 31.2 L66.7 32.05 69.2 31.9 69.9 31.0 Q69.85 30.4 69.25 30.05 M78.45 32.8 L74.85 32.95 74.6 34.2 75.05 34.95 76.55 35.0 77.55 34.45 78.85 33.4 78.45 32.8 M71.95 29.55 Q71.25 32.25 70.75 33.2 70.1 34.35 69.05 34.35 67.15 34.35 66.25 33.2 65.65 32.4 65.65 31.35 65.65 30.75 65.9 30.5 L65.95 30.45 66.1 30.35 66.2 30.25 66.25 30.2 Q68.1 28.9 69.55 29.15 L71.95 29.55 M62.95 31.05 L63.5 31.2 62.2 31.1 62.95 31.05 M65.15 40.6 Q64.0 40.6 64.45 39.3 L62.6 39.2 62.4 39.1 62.2 38.35 Q62.2 37.85 63.3 37.25 64.5 36.65 65.6 36.65 L67.35 36.9 Q68.2 38.6 66.9 39.75 65.95 40.6 65.15 40.6 M75.8 41.35 Q75.8 42.5 74.4 43.4 73.15 44.25 71.9 44.25 70.85 44.25 69.65 43.25 68.5 42.25 68.5 41.4 68.5 40.75 69.75 40.0 71.2 39.1 73.05 39.1 75.0 39.1 75.55 39.95 L75.8 41.35 M33.05 6.1 L33.05 7.45 34.9 7.45 34.9 6.1 33.05 6.1 M70.2 41.05 L71.0 41.95 73.9 42.05 74.1 40.95 Q73.9 40.3 72.85 40.3 L71.15 40.6 Q70.25 40.85 70.2 41.05 M66.5 38.0 L66.25 37.6 65.55 37.45 64.9 37.6 Q64.6 37.75 64.6 38.0 64.6 38.25 64.9 38.4 L65.55 38.55 66.25 38.4 66.5 38.0 M35.4 7.25 Q35.4 9.5 32.8 10.1 L32.15 9.65 Q31.7 8.95 31.7 6.8 31.7 4.65 33.55 5.1 35.4 5.55 35.4 7.25 M40.55 8.45 Q39.75 7.15 38.0 7.15 38.0 7.6 38.6 8.3 39.25 9.1 39.95 9.1 40.95 9.1 40.35 8.95 L40.55 8.45 M34.8 14.0 L35.2 12.35 Q35.4 11.25 36.95 11.25 38.3 11.25 38.95 14.45 38.95 15.7 37.95 16.15 L36.3 16.35 Q35.8 16.35 35.15 15.35 L34.45 13.85 34.6 13.65 34.8 14.0 M22.9 6.2 Q24.0 7.6 26.1 7.5 28.15 7.4 29.15 6.1 L28.85 5.8 25.2 5.55 Q23.2 5.55 22.9 6.2 M31.05 14.8 Q31.05 16.0 29.9 16.7 29.0 17.25 27.8 17.25 L24.7 16.65 21.3 16.05 18.25 15.7 14.75 15.3 14.55 15.1 14.35 14.3 14.45 13.65 14.7 13.3 17.85 12.65 Q19.45 11.95 21.0 11.95 21.5 11.95 22.2 12.45 22.9 12.9 23.4 12.9 L25.4 12.0 Q27.6 11.05 28.9 11.05 29.4 11.05 30.2 12.3 31.05 13.6 31.05 14.8 M19.9 8.15 Q19.9 5.6 22.65 4.95 L26.0 4.75 Q30.25 4.75 30.25 6.8 30.25 8.4 25.1 9.6 19.9 10.75 19.9 8.15 M12.65 30.95 L10.45 31.25 Q9.4 31.65 8.8 32.15 9.4 32.95 10.35 33.6 11.45 34.4 12.2 34.4 13.25 34.4 14.5 33.55 15.7 32.75 15.7 32.3 15.7 31.7 15.5 31.55 L15.3 31.3 12.65 30.95 M37.65 13.75 L37.45 13.2 Q37.2 12.95 36.85 12.95 36.5 12.95 36.3 13.2 36.05 13.4 36.05 13.75 L36.3 14.35 Q36.5 14.55 36.85 14.55 L37.45 14.35 37.65 13.75 M29.7 14.45 Q29.3 13.05 28.75 12.65 L26.9 12.35 Q25.6 12.35 25.45 13.0 L25.7 14.5 26.75 14.8 28.55 14.65 29.7 14.45 M21.9 34.9 Q21.9 35.4 21.45 35.75 L20.3 36.05 19.2 35.75 Q18.7 35.4 18.7 34.9 18.7 34.4 19.2 34.1 19.65 33.75 20.3 33.75 20.95 33.75 21.45 34.1 L21.9 34.9 M19.65 37.5 L20.0 37.6 Q20.35 37.3 20.35 38.3 L18.75 39.95 Q18.0 39.45 18.1 38.95 18.2 38.3 19.65 37.5 M13.65 43.0 L13.2 43.5 12.15 43.7 11.1 43.5 10.65 43.0 Q10.65 42.7 11.1 42.5 L12.15 42.3 13.2 42.5 13.65 43.0 M27.05 33.25 L25.6 32.35 23.95 32.15 23.9 32.6 Q24.05 33.1 24.6 33.5 25.3 34.0 26.35 34.0 L27.0 33.85 27.05 33.25 M26.65 39.1 L29.05 38.8 32.35 39.6 Q32.6 39.15 32.6 40.15 L31.15 41.3 Q29.7 42.05 28.95 42.05 25.95 42.05 25.0 41.3 24.5 40.9 24.4 40.35 25.1 39.7 26.05 39.3 L26.05 39.7 27.35 40.75 28.2 41.25 Q29.2 41.25 28.6 41.0 28.3 40.25 27.6 39.6 27.0 39.1 26.65 39.1" fill="#77776b" fill-rule="evenodd" stroke="none"/>
    <path d="M183.65 17.35 L184.8 18.85 184.75 19.1 Q184.45 20.05 183.35 20.05 L181.55 19.9 181.35 19.5 Q181.45 18.9 182.5 18.2 L183.65 17.35 M174.9 5.7 L174.7 6.4 174.2 6.65 173.7 6.4 173.5 5.7 173.7 5.05 174.2 4.75 Q174.5 4.75 174.7 5.05 L174.9 5.7 M180.6 11.6 Q180.15 12.3 178.55 12.3 L176.95 12.25 176.75 12.05 176.4 11.6 178.35 10.25 Q179.7 9.65 180.6 11.6 M165.6 5.7 L165.45 4.9 165.7 4.35 Q166.05 3.85 166.65 3.85 L168.15 4.05 Q168.9 4.3 169.0 4.55 168.65 5.2 167.5 5.5 L165.6 5.7 M171.55 9.75 L171.6 10.15 Q171.35 11.0 170.35 11.05 L170.9 11.75 170.9 12.15 170.2 12.4 Q169.6 12.4 167.85 10.85 L169.45 9.3 Q170.3 8.6 171.55 9.75 M162.95 17.5 Q163.65 17.8 163.95 18.2 L164.5 18.8 163.75 19.4 162.85 19.85 162.75 19.85 Q162.6 19.75 162.6 19.15 L162.8 17.5 162.95 17.5 M159.25 20.3 L159.3 19.9 159.35 19.75 160.1 19.6 164.1 20.2 Q165.7 20.65 166.35 21.05 L165.45 22.0 164.8 22.45 Q161.2 22.45 159.25 20.3 M178.2 26.45 L177.6 27.0 175.3 27.6 175.0 27.75 Q174.7 27.75 174.7 27.1 174.7 25.65 176.1 25.7 177.25 25.75 178.2 26.45 M181.65 31.85 L181.9 33.2 Q181.9 33.95 181.4 34.2 L178.5 34.55 177.6 34.45 177.25 34.1 177.1 33.45 178.35 32.35 181.65 31.85 M162.5 33.3 Q162.85 33.3 163.1 33.65 L163.35 34.4 163.1 35.2 162.5 35.5 Q162.15 35.5 161.9 35.2 161.65 34.85 161.65 34.4 161.65 33.95 161.9 33.65 L162.2 33.4 162.5 33.3 M176.5 42.15 L176.05 42.75 174.95 43.0 173.85 42.75 Q173.4 42.5 173.4 42.15 173.4 41.8 173.85 41.55 L174.95 41.3 Q175.6 41.3 176.05 41.55 L176.5 42.15 M157.25 5.05 L157.05 5.55 156.45 5.75 Q156.1 5.75 155.9 5.55 L155.65 5.05 Q155.65 4.75 155.9 4.55 L156.45 4.35 157.05 4.55 157.25 5.05 M160.45 11.3 L160.0 11.9 158.95 12.1 157.9 11.9 Q157.45 11.65 157.45 11.3 157.45 10.95 157.9 10.75 L158.95 10.5 160.0 10.75 Q160.45 10.95 160.45 11.3 M146.7 5.45 L148.05 4.6 149.2 5.6 149.75 6.45 149.75 7.05 149.7 6.9 149.4 7.15 147.95 6.9 Q147.1 6.6 146.7 5.45 M142.05 9.3 L142.05 9.25 142.15 9.25 144.05 9.25 144.05 10.8 142.05 10.8 142.05 9.3 M151.55 20.0 L151.1 20.85 150.0 21.15 148.9 20.85 Q148.45 20.5 148.45 20.0 148.45 19.5 148.9 19.2 149.35 18.85 150.0 18.85 150.65 18.85 151.1 19.2 151.55 19.5 151.55 20.0 M134.5 7.4 L134.1 7.4 Q134.0 7.4 134.0 6.8 134.0 5.35 135.5 4.95 L140.55 3.6 141.95 3.9 Q142.55 5.2 140.25 6.4 137.8 7.75 134.5 7.4 M120.9 7.45 L120.5 6.65 Q120.9 5.8 121.45 5.25 121.9 4.9 122.1 4.9 123.25 4.9 123.5 5.55 L122.85 6.5 121.65 7.6 120.9 7.45 M126.15 8.4 L126.4 8.05 126.5 8.05 128.2 7.75 128.45 8.2 128.3 8.9 127.35 9.2 126.25 9.05 126.15 8.4 M127.7 14.05 L127.9 14.7 Q127.85 15.1 126.85 15.15 L126.75 15.35 126.65 14.75 Q126.65 14.15 127.0 14.0 L127.4 13.85 127.7 14.05 M119.5 16.3 L119.55 16.2 119.8 15.95 120.15 16.0 120.65 16.2 121.5 16.8 120.4 17.9 Q119.7 17.6 119.45 16.45 L119.5 16.3 M131.1 23.7 L127.3 24.05 126.2 24.0 126.05 23.9 Q125.9 23.75 125.9 23.15 125.9 22.65 126.25 22.25 126.65 21.8 127.15 21.8 129.9 21.8 130.6 22.4 131.0 22.8 131.1 23.7 M125.55 24.25 L126.65 25.4 Q125.85 26.65 124.45 26.8 L122.95 26.6 122.85 26.4 Q122.7 26.15 122.7 25.55 122.7 25.0 122.8 25.0 L123.0 24.6 125.55 24.25 M139.2 23.35 Q139.0 23.3 138.65 23.05 L138.55 22.5 139.7 20.85 141.35 20.55 141.75 21.05 140.65 22.65 Q140.1 23.25 139.2 23.35 M140.45 29.25 L139.95 29.8 Q139.0 29.55 138.55 28.85 L138.5 28.4 139.1 28.25 Q140.25 28.25 140.45 29.25 M146.4 26.35 Q146.9 25.75 146.9 26.75 146.9 28.25 144.9 28.7 L142.05 29.1 141.6 29.0 141.4 28.8 141.35 28.45 Q142.85 27.2 144.4 26.7 L146.4 26.35 M126.1 35.85 L125.9 36.4 125.3 36.6 124.75 36.4 124.5 35.85 124.75 35.35 Q124.95 35.1 125.3 35.1 125.65 35.1 125.9 35.35 L126.1 35.85 M125.9 38.05 Q125.6 38.7 123.65 38.7 L121.85 38.4 120.9 37.6 Q121.6 36.6 123.3 36.35 125.3 36.1 125.9 38.05 M134.35 42.5 L133.95 42.7 133.05 42.85 132.0 42.75 131.9 42.8 131.8 42.1 Q131.8 41.7 132.1 41.35 132.6 40.85 133.6 40.9 134.2 41.15 134.35 42.5 M115.4 45.15 L110.75 45.15 Q110.95 44.5 111.8 44.5 L113.9 44.65 115.4 44.9 115.4 45.15 M106.05 45.15 L101.05 45.15 100.75 44.95 100.65 44.75 101.35 44.3 102.65 44.1 Q104.95 44.1 105.85 44.9 L106.05 45.15 M91.55 45.15 L85.85 45.15 85.9 44.4 91.4 44.7 91.55 45.15 M40.3 45.15 L35.25 45.15 35.5 45.05 37.75 44.7 40.05 45.05 40.3 45.15 M158.5 31.0 L157.9 30.75 Q157.65 30.45 157.65 29.8 157.65 28.25 160.5 27.3 161.4 27.95 161.4 29.25 161.4 29.8 160.45 30.15 159.0 30.65 158.5 31.0 M152.35 29.8 L152.3 29.7 152.2 28.8 Q152.2 27.95 153.2 27.35 154.1 26.85 155.1 26.85 156.1 26.85 156.4 27.45 156.6 27.8 156.6 28.85 156.6 29.55 155.75 29.8 154.75 30.05 152.35 29.8 M144.45 34.15 L144.1 34.85 143.2 35.1 142.35 34.85 141.95 34.15 Q141.95 33.75 142.35 33.5 142.7 33.2 143.2 33.2 L144.1 33.5 Q144.45 33.75 144.45 34.15 M151.35 38.55 Q150.85 38.45 150.85 38.0 L151.2 36.7 151.65 36.5 152.75 37.0 152.3 38.15 151.35 38.55 M145.4 40.6 L142.75 40.3 142.6 40.3 Q142.45 40.15 142.45 39.55 142.45 38.95 143.35 38.75 L145.7 38.2 Q147.3 39.35 146.6 40.1 146.1 40.6 145.4 40.6 M158.2 41.35 Q159.35 41.35 160.3 42.3 L159.15 43.65 Q158.05 44.45 156.5 43.95 L156.35 43.9 Q156.15 43.85 156.15 43.25 156.15 42.65 156.45 42.2 156.95 41.35 158.2 41.35 M109.6 5.7 L109.7 5.3 111.2 5.2 112.6 5.75 112.6 6.3 112.15 7.5 111.95 7.8 111.5 8.1 110.45 8.0 109.75 7.85 109.4 6.15 109.6 5.7 M116.35 9.45 L116.4 9.35 Q117.5 8.4 117.2 9.05 L117.45 8.9 Q119.9 8.65 119.9 9.65 119.9 11.2 119.45 11.6 L117.8 11.9 Q116.85 11.9 116.2 11.4 L115.8 10.95 115.65 10.55 115.7 10.3 Q115.85 9.9 116.35 9.45 M106.8 9.75 L107.35 10.6 107.1 11.5 106.9 11.5 106.75 11.4 Q106.6 11.3 106.6 10.7 L106.8 9.75 M109.8 13.25 L109.6 13.8 109.05 14.0 Q108.75 14.0 108.55 13.8 L108.3 13.25 108.55 12.75 Q108.75 12.5 109.05 12.5 109.35 12.5 109.6 12.75 L109.8 13.25 M111.4 17.15 L110.9 17.05 110.6 17.05 Q110.45 17.0 110.45 16.4 110.45 15.4 110.55 15.5 L110.75 15.45 111.55 15.35 112.85 15.4 113.25 16.15 113.25 16.2 Q113.1 16.5 111.85 17.0 L111.4 17.15 M102.95 23.05 L102.75 23.6 102.15 23.8 Q101.8 23.8 101.6 23.6 L101.35 23.05 Q101.35 22.75 101.6 22.55 101.8 22.3 102.15 22.3 L102.75 22.55 102.95 23.05 M107.15 21.5 L107.3 22.3 107.05 21.8 107.15 21.5 M112.35 21.05 L111.3 22.15 110.35 22.55 109.6 22.5 109.6 22.4 109.25 22.3 109.2 22.15 109.15 21.6 109.15 21.45 Q109.2 20.9 109.5 20.6 110.1 19.85 111.8 19.9 L112.35 21.05 M91.7 17.25 L90.05 17.0 89.7 15.1 91.2 14.75 93.25 14.1 94.25 14.4 Q94.65 14.6 94.65 15.25 94.65 15.95 93.95 16.35 L91.7 17.25 M100.25 3.1 L100.55 3.35 100.65 4.25 100.3 5.4 Q99.7 6.45 98.2 6.45 L96.45 6.35 96.1 6.4 Q95.75 6.3 95.75 5.65 L96.35 4.25 Q97.05 3.1 97.65 3.1 99.25 3.35 98.3 4.0 L100.25 3.1 M86.1 5.85 L87.1 6.65 87.45 7.1 Q86.95 9.05 85.0 9.05 L84.5 8.5 83.9 7.8 82.95 7.15 83.4 6.5 Q84.05 6.0 86.1 5.85 M96.45 15.5 L96.65 15.05 97.5 14.85 98.5 15.25 Q99.5 15.8 100.3 16.7 L100.15 17.25 99.35 17.5 Q98.3 17.5 97.55 16.75 L96.45 15.5 M92.2 24.7 Q92.35 24.5 93.35 24.15 L95.1 23.7 Q95.95 23.7 97.05 24.2 L98.8 25.6 Q93.95 26.9 92.2 24.7 M101.05 27.7 L100.6 28.3 99.5 28.5 98.4 28.3 Q97.95 28.05 97.95 27.7 97.95 27.35 98.4 27.15 L99.5 26.9 100.6 27.15 Q101.05 27.35 101.05 27.7 M95.85 37.85 L95.7 37.1 95.85 36.2 96.4 36.05 97.15 35.95 98.6 37.1 Q98.3 37.5 97.5 37.7 L95.85 37.85 M93.6 35.0 L93.4 34.95 93.2 34.2 Q93.2 33.75 94.55 33.2 96.4 32.5 99.65 32.45 L99.8 32.4 99.95 33.1 Q99.95 34.7 98.45 34.9 L93.6 35.0 M82.95 30.75 Q82.3 30.75 81.15 30.15 L79.7 29.15 81.35 28.1 86.75 29.5 86.75 30.2 85.0 30.55 82.95 30.75 M80.45 33.3 L80.5 33.15 Q80.55 33.0 81.15 33.0 L82.5 34.35 Q82.4 34.7 81.0 35.15 L80.2 34.65 Q80.15 34.5 80.45 33.3 M119.0 25.5 L118.8 26.05 Q118.6 26.25 118.3 26.25 L117.8 26.05 117.6 25.5 117.8 25.0 Q118.0 24.75 118.3 24.75 118.6 24.75 118.8 25.0 L119.0 25.5 M115.75 30.2 L115.75 30.05 115.45 29.1 115.5 28.5 116.25 28.35 116.45 28.35 117.05 28.4 Q117.9 28.5 118.4 28.95 118.55 28.5 118.55 29.5 118.1 30.7 116.65 30.45 L115.75 30.2 M112.0 34.25 L111.9 34.8 111.05 35.0 Q109.95 35.0 109.05 34.2 L108.85 34.0 108.75 33.45 Q109.2 33.25 109.55 33.2 L110.55 33.2 110.8 33.3 Q111.35 33.5 112.0 34.25 M115.25 35.3 L115.0 35.7 114.3 35.85 114.25 35.85 113.65 35.7 113.35 35.3 Q113.35 35.05 113.65 34.9 L114.3 34.75 114.95 34.85 115.0 34.9 115.25 35.3 M107.25 30.1 L107.0 30.6 106.25 30.75 Q105.35 30.75 104.9 30.2 L104.15 29.15 Q104.25 28.3 105.3 28.3 106.25 28.3 106.65 28.85 L107.25 30.1 M111.3 41.15 Q110.85 41.05 110.6 40.65 L110.55 40.55 111.1 39.75 111.25 39.05 Q110.9 38.55 111.75 39.25 L112.3 39.75 112.7 40.3 111.3 41.15 M121.6 40.35 Q121.45 40.7 120.35 41.45 L119.05 42.2 Q118.85 42.2 118.3 41.4 L117.7 40.3 Q118.75 39.55 120.5 39.55 121.45 39.55 121.6 40.35 M77.65 7.4 L77.4 8.1 76.7 8.35 76.05 8.1 Q75.75 7.8 75.75 7.4 75.75 7.0 76.05 6.75 76.3 6.45 76.7 6.45 77.1 6.45 77.4 6.75 L77.65 7.4 M73.9 12.45 Q73.2 10.2 74.7 10.2 L76.3 10.6 78.3 10.85 Q78.8 11.2 78.8 12.2 78.8 12.65 77.85 13.05 L74.95 13.55 Q73.2 13.55 73.45 12.7 L73.55 12.6 73.9 12.45 M66.4 5.85 L66.8 5.9 Q67.0 6.0 67.0 6.6 L66.6 7.2 Q65.95 7.8 64.75 8.2 L64.4 8.15 Q64.2 8.1 64.2 7.5 L64.95 6.85 Q65.75 6.2 66.4 5.85 M71.4 6.25 L70.65 7.2 69.65 8.25 Q68.7 7.9 68.1 7.4 L67.1 6.25 Q67.8 5.7 69.05 5.6 70.45 5.5 71.4 6.25 M63.9 15.1 L62.25 13.95 Q62.65 13.45 64.1 13.15 65.9 13.35 63.9 15.1 M57.8 9.6 L56.8 9.25 Q55.75 8.75 55.55 8.3 55.85 7.1 57.15 6.1 L58.15 5.35 Q60.15 5.35 59.65 7.5 59.15 9.6 57.8 9.6 M43.1 8.75 L42.9 8.0 42.65 6.65 Q42.65 6.35 43.35 6.0 L44.45 5.3 46.75 5.65 47.0 6.0 47.2 6.85 Q47.2 7.45 46.35 8.05 45.2 8.95 43.1 8.75 M43.15 11.2 L43.1 11.4 Q43.0 11.5 43.0 10.85 L43.55 10.2 44.1 9.6 45.25 10.4 45.2 11.15 43.15 11.2 M46.0 7.35 L46.4 7.3 Q46.25 6.95 45.55 6.85 L46.0 7.35 M53.3 13.4 L53.0 15.25 Q52.5 15.75 49.9 15.75 L49.0 15.7 48.8 15.6 48.6 15.5 Q48.35 15.3 48.35 14.7 48.35 13.45 50.25 13.15 L53.3 13.4 M55.15 32.3 L55.4 33.4 Q55.1 33.8 53.95 33.8 L52.6 34.15 50.85 34.5 Q49.55 34.5 48.25 33.85 L48.15 33.9 48.05 33.15 Q48.05 32.1 51.3 32.1 L55.15 32.3 M6.15 30.05 L6.05 30.4 5.0 30.75 2.3 31.2 1.65 30.6 1.5 29.8 2.4 29.25 2.8 29.05 3.6 28.85 3.95 28.85 Q5.2 28.95 6.05 29.7 L5.0 30.75 6.15 30.05 M33.1 33.25 L34.6 32.65 35.85 32.1 Q36.55 31.55 37.05 30.6 38.35 30.6 40.15 31.3 41.45 31.8 42.45 32.45 L42.0 34.75 Q41.7 35.8 39.8 35.8 39.4 35.8 39.0 35.4 38.5 34.85 36.9 34.45 L35.15 34.4 Q33.7 34.2 33.1 33.25 M50.3 43.2 Q50.3 43.65 49.55 44.0 L47.7 44.3 45.85 44.0 Q45.1 43.65 45.1 43.2 45.1 42.75 45.85 42.45 46.6 42.1 47.7 42.1 48.8 42.1 49.55 42.45 50.3 42.75 50.3 43.2 M53.75 38.95 L53.75 38.85 54.35 38.7 55.7 38.55 56.55 38.6 56.55 38.65 56.7 38.6 56.85 39.25 56.35 40.05 55.7 40.8 Q54.3 41.0 53.95 40.45 L53.65 39.55 53.75 38.95 M78.45 32.8 L78.85 33.4 77.55 34.45 76.55 35.0 75.05 34.95 74.6 34.2 74.85 32.95 78.45 32.8 M69.25 30.05 Q69.85 30.4 69.9 31.0 L69.2 31.9 66.7 32.05 66.2 31.2 Q67.0 30.55 67.95 30.2 L69.25 30.05 M66.5 38.0 L66.25 38.4 65.55 38.55 64.9 38.4 Q64.6 38.25 64.6 38.0 64.6 37.75 64.9 37.6 L65.55 37.45 66.25 37.6 66.5 38.0 M70.2 41.05 Q70.25 40.85 71.15 40.6 L72.85 40.3 Q73.9 40.3 74.1 40.95 L73.9 42.05 71.0 41.95 70.2 41.05 M33.05 6.1 L34.9 6.1 34.9 7.45 33.05 7.45 33.05 6.1 M40.55 8.45 L40.35 8.95 Q40.95 9.1 39.95 9.1 39.25 9.1 38.6 8.3 38.0 7.6 38.0 7.15 39.75 7.15 40.55 8.45 M22.9 6.2 Q23.2 5.55 25.2 5.55 L28.85 5.8 29.15 6.1 Q28.15 7.4 26.1 7.5 24.0 7.6 22.9 6.2 M29.7 14.45 L28.55 14.65 26.75 14.8 25.7 14.5 25.45 13.0 Q25.6 12.35 26.9 12.35 L28.75 12.65 Q29.3 13.05 29.7 14.45 M37.65 13.75 L37.45 14.35 36.85 14.55 Q36.5 14.55 36.3 14.35 L36.05 13.75 Q36.05 13.4 36.3 13.2 36.5 12.95 36.85 12.95 37.2 12.95 37.45 13.2 L37.65 13.75 M12.65 30.95 L15.3 31.3 15.5 31.55 Q15.7 31.7 15.7 32.3 15.7 32.75 14.5 33.55 13.25 34.4 12.2 34.4 11.45 34.4 10.35 33.6 9.4 32.95 8.8 32.15 9.4 31.65 10.45 31.25 L12.65 30.95 M33.3 33.3 L34.1 33.05 34.15 32.9 33.7 33.0 33.3 33.3 M27.05 33.25 L27.0 33.85 26.35 34.0 Q25.3 34.0 24.6 33.5 24.05 33.1 23.9 32.6 L23.95 32.15 25.6 32.35 27.05 33.25 M26.05 39.3 L26.05 39.25 26.65 39.1 Q27.0 39.1 27.6 39.6 28.3 40.25 28.6 41.0 29.2 41.25 28.2 41.25 L27.35 40.75 26.05 39.7 26.05 39.3" fill="#919183" fill-rule="evenodd" stroke="none"/>
    <path d="M199.95 149.15 L199.95 158.05 183.45 160.55 144.5 157.6 111.0 159.7 66.0 157.1 42.5 159.9 0.0 158.05 0.0 149.15 2.8 150.5 3.0 150.55 3.25 150.5 Q4.65 149.75 6.05 149.05 L9.5 151.4 9.7 151.45 9.9 151.45 15.2 149.65 19.25 152.15 19.5 152.2 19.7 152.15 26.5 149.3 30.05 150.75 30.3 150.8 30.5 150.75 34.55 148.5 39.85 150.4 40.15 150.4 45.75 148.85 51.65 150.25 52.0 150.2 55.5 148.0 60.25 150.7 60.5 150.75 60.75 150.7 63.55 149.3 69.6 151.65 69.95 151.6 73.5 149.95 79.3 153.0 79.5 153.05 79.75 153.0 84.6 150.15 88.4 150.95 88.7 150.95 93.1 149.25 98.9 150.55 99.2 150.55 104.05 148.6 109.9 150.1 110.2 150.1 114.45 148.4 118.2 151.5 118.45 151.6 118.7 151.6 124.5 149.45 128.55 151.2 128.9 151.25 136.5 149.3 145.15 151.05 145.4 151.05 150.0 149.65 156.6 151.7 156.8 151.7 157.0 151.65 162.0 148.8 166.55 150.95 166.8 151.0 167.05 150.9 172.5 146.6 177.9 150.55 178.15 150.65 178.4 150.6 181.8 149.2 185.4 150.65 185.6 150.65 185.85 150.6 189.7 148.15 192.85 151.45 193.1 151.6 193.4 151.6 199.95 149.15 M199.95 181.55 L199.95 191.1 197.1 189.75 196.9 189.7 196.65 189.75 193.85 191.2 190.4 188.85 190.2 188.8 190.0 188.8 184.7 190.6 180.65 188.1 180.4 188.05 180.2 188.1 173.4 190.95 169.85 189.5 169.6 189.45 169.4 189.5 165.35 191.75 160.05 189.85 159.75 189.85 154.15 191.4 148.25 190.0 147.9 190.05 144.4 192.25 139.65 189.55 139.4 189.5 139.15 189.55 136.35 190.95 130.3 188.6 129.95 188.65 126.4 190.3 120.6 187.25 120.4 187.2 120.15 187.25 115.3 190.1 111.5 189.3 111.2 189.3 106.8 191.0 101.0 189.7 100.7 189.7 95.85 191.65 90.0 190.15 89.7 190.15 85.45 191.85 81.7 188.75 81.45 188.65 81.2 188.65 75.4 190.8 71.35 189.05 71.0 189.0 63.4 190.95 54.75 189.2 54.5 189.2 49.9 190.6 43.3 188.55 43.1 188.55 42.9 188.6 37.9 191.45 33.35 189.3 33.1 189.25 32.85 189.35 27.4 193.65 22.0 189.7 21.75 189.6 21.5 189.65 18.1 191.05 14.5 189.6 14.3 189.6 14.05 189.65 10.2 192.1 7.05 188.8 6.8 188.65 6.5 188.65 0.0 191.1 0.0 181.55 31.55 177.8 89.5 178.55 118.5 181.7 154.5 177.65 199.95 181.55" fill="#958a76" fill-rule="evenodd" stroke="none"/>
    <path d="M199.95 192.15 L199.95 194.05 197.2 192.75 197.0 192.7 196.75 192.75 193.95 194.2 190.5 191.85 190.3 191.8 190.1 191.8 184.8 193.6 180.75 191.1 180.5 191.05 180.3 191.1 173.5 193.95 169.95 192.5 169.7 192.45 169.5 192.5 165.45 194.75 160.15 192.85 159.85 192.85 154.25 194.4 148.35 193.0 148.0 193.05 144.5 195.25 139.75 192.55 139.5 192.5 139.25 192.55 136.45 193.95 130.4 191.6 130.05 191.65 126.5 193.3 120.7 190.25 120.5 190.2 120.25 190.25 115.4 193.1 111.6 192.3 111.3 192.3 106.9 194.0 101.1 192.7 100.8 192.7 95.95 194.65 90.1 193.15 89.8 193.15 85.55 194.85 81.8 191.75 81.55 191.65 81.3 191.65 75.5 193.8 71.45 192.05 71.1 192.0 63.5 193.95 54.85 192.2 54.6 192.2 50.0 193.6 43.4 191.55 43.2 191.55 43.0 191.6 38.0 194.45 33.45 192.3 33.2 192.25 32.95 192.35 27.5 196.65 22.1 192.7 21.85 192.6 21.6 192.65 18.2 194.05 14.6 192.6 14.4 192.6 14.15 192.65 10.3 195.1 7.15 191.8 6.9 191.65 6.6 191.65 0.0 194.1 0.0 192.15 0.1 192.1 6.55 189.7 9.8 193.1 10.1 193.25 10.4 193.15 14.4 190.65 17.9 192.05 18.3 192.05 21.6 190.65 27.1 194.7 27.4 194.8 27.7 194.7 33.2 190.35 37.65 192.5 37.9 192.55 38.15 192.45 43.2 189.6 49.75 191.6 50.05 191.6 54.65 190.2 63.3 192.0 63.5 191.95 71.1 190.0 75.2 191.8 75.55 191.8 81.3 189.7 85.05 192.8 85.3 192.95 85.55 192.9 89.95 191.15 95.75 192.65 96.05 192.65 100.95 190.7 106.75 192.0 107.05 192.0 111.4 190.3 115.3 191.15 115.65 191.05 120.4 188.25 126.15 191.3 126.35 191.35 126.6 191.3 130.15 189.65 136.2 191.95 136.4 192.0 136.6 191.95 139.4 190.55 144.15 193.25 144.4 193.35 144.65 193.25 148.25 191.0 154.0 192.35 154.25 192.35 159.85 190.85 165.2 192.75 165.4 192.8 165.6 192.75 169.7 190.5 173.2 191.95 173.6 191.95 180.35 189.1 184.4 191.55 184.6 191.65 184.8 191.6 190.05 189.85 193.55 192.2 193.8 192.3 194.05 192.25 196.9 190.75 199.65 192.1 199.95 192.15 M0.0 148.1 L0.0 146.2 2.7 147.5 2.9 147.55 3.15 147.5 5.95 146.05 9.4 148.4 9.6 148.45 9.8 148.45 15.1 146.65 19.15 149.15 19.4 149.2 19.6 149.15 26.4 146.3 29.95 147.75 30.2 147.8 30.4 147.75 34.45 145.5 39.75 147.4 40.05 147.4 45.65 145.85 51.55 147.25 51.9 147.2 55.4 145.0 60.15 147.7 60.4 147.75 60.65 147.7 63.45 146.3 69.5 148.65 69.85 148.6 73.4 146.95 79.2 150.0 79.4 150.05 79.65 150.0 84.5 147.15 88.3 147.95 88.6 147.95 93.0 146.25 98.8 147.55 99.1 147.55 103.95 145.6 109.8 147.1 110.1 147.1 114.35 145.4 118.1 148.5 118.35 148.6 118.6 148.6 124.4 146.45 128.45 148.2 128.8 148.25 136.4 146.3 145.05 148.05 145.3 148.05 149.9 146.65 156.5 148.7 156.7 148.7 156.9 148.65 161.9 145.8 166.45 147.95 166.7 148.0 166.95 147.9 172.4 143.6 177.8 147.55 178.05 147.65 178.3 147.6 181.7 146.2 185.3 147.65 185.5 147.65 185.75 147.6 189.6 145.15 192.75 148.45 193.0 148.6 193.3 148.6 199.9 146.15 199.95 148.1 199.8 148.15 193.35 150.55 190.1 147.15 Q190.0 147.0 189.8 147.0 L189.5 147.1 185.5 149.6 182.0 148.2 181.6 148.2 178.3 149.6 172.8 145.55 172.5 145.45 172.2 145.55 166.7 149.9 162.25 147.75 162.0 147.7 161.75 147.8 Q159.25 149.2 156.7 150.65 L150.15 148.65 149.85 148.65 145.25 150.05 136.6 148.25 136.4 148.3 128.8 150.25 124.7 148.45 124.35 148.45 118.6 150.55 114.85 147.45 114.6 147.3 114.35 147.35 109.95 149.1 104.15 147.6 103.85 147.6 98.95 149.55 93.15 148.25 92.85 148.25 88.5 149.95 84.6 149.1 84.25 149.2 79.5 152.0 73.75 148.95 73.55 148.9 73.3 148.95 69.75 150.6 63.7 148.3 63.5 148.25 63.3 148.3 60.5 149.7 55.75 147.0 55.5 146.9 55.25 147.0 51.65 149.25 45.9 147.9 45.65 147.9 40.05 149.4 34.7 147.5 34.5 147.45 34.3 147.5 30.2 149.75 26.7 148.3 26.3 148.3 19.55 151.15 15.5 148.7 15.3 148.6 15.1 148.65 9.85 150.4 6.35 148.05 6.1 147.95 5.85 148.0 3.0 149.5 0.25 148.15 0.0 148.1" fill="#919182" fill-rule="evenodd" stroke="none"/>
    <path d="M199.95 148.1 L199.95 149.15 193.4 151.6 193.1 151.6 192.85 151.45 189.7 148.15 185.85 150.6 185.6 150.65 185.4 150.65 181.8 149.2 178.4 150.6 178.15 150.65 177.9 150.55 172.5 146.6 167.05 150.9 166.8 151.0 166.55 150.95 162.0 148.8 157.0 151.65 156.8 151.7 156.6 151.7 150.0 149.65 145.4 151.05 145.15 151.05 136.5 149.3 128.9 151.25 128.55 151.2 124.5 149.45 118.7 151.6 118.45 151.6 118.2 151.5 114.45 148.4 110.2 150.1 109.9 150.1 104.05 148.6 99.2 150.55 98.9 150.55 93.1 149.25 88.7 150.95 88.4 150.95 84.6 150.15 79.75 153.0 79.5 153.05 79.3 153.0 73.5 149.95 69.95 151.6 69.6 151.65 63.55 149.3 60.75 150.7 60.5 150.75 60.25 150.7 55.5 148.0 52.0 150.2 51.65 150.25 45.75 148.85 40.15 150.4 39.85 150.4 34.55 148.5 30.5 150.75 30.3 150.8 30.05 150.75 26.5 149.3 19.7 152.15 19.5 152.2 19.25 152.15 15.2 149.65 9.9 151.45 9.7 151.45 9.5 151.4 6.05 149.05 Q4.65 149.75 3.25 150.5 L3.0 150.55 2.8 150.5 0.0 149.15 0.0 148.1 0.25 148.15 3.0 149.5 5.85 148.0 6.1 147.95 6.35 148.05 9.85 150.4 15.1 148.65 15.3 148.6 15.5 148.7 19.55 151.15 26.3 148.3 26.7 148.3 30.2 149.75 34.3 147.5 34.5 147.45 34.7 147.5 40.05 149.4 45.65 147.9 45.9 147.9 51.65 149.25 55.25 147.0 55.5 146.9 55.75 147.0 60.5 149.7 63.3 148.3 63.5 148.25 63.7 148.3 69.75 150.6 73.3 148.95 73.55 148.9 73.75 148.95 79.5 152.0 84.25 149.2 84.6 149.1 88.5 149.95 92.85 148.25 93.15 148.25 98.95 149.55 103.85 147.6 104.15 147.6 109.95 149.1 114.35 147.35 114.6 147.3 114.85 147.45 118.6 150.55 124.35 148.45 124.7 148.45 128.8 150.25 136.4 148.3 136.6 148.25 145.25 150.05 149.85 148.65 150.15 148.65 156.7 150.65 Q159.25 149.2 161.75 147.8 L162.0 147.7 162.25 147.75 166.7 149.9 172.2 145.55 172.5 145.45 172.8 145.55 178.3 149.6 181.6 148.2 182.0 148.2 185.5 149.6 189.5 147.1 189.8 147.0 Q190.0 147.0 190.1 147.15 L193.35 150.55 199.8 148.15 199.95 148.1 M199.95 191.1 L199.95 192.15 199.65 192.1 196.9 190.75 194.05 192.25 193.8 192.3 193.55 192.2 190.05 189.85 184.8 191.6 184.6 191.65 184.4 191.55 180.35 189.1 173.6 191.95 173.2 191.95 169.7 190.5 165.6 192.75 165.4 192.8 165.2 192.75 159.85 190.85 154.25 192.35 154.0 192.35 148.25 191.0 144.65 193.25 144.4 193.35 144.15 193.25 139.4 190.55 136.6 191.95 136.4 192.0 136.2 191.95 130.15 189.65 126.6 191.3 126.35 191.35 126.15 191.3 120.4 188.25 115.65 191.05 115.3 191.15 111.4 190.3 107.05 192.0 106.75 192.0 100.95 190.7 96.05 192.65 95.75 192.65 89.95 191.15 85.55 192.9 85.3 192.95 85.05 192.8 81.3 189.7 75.55 191.8 75.2 191.8 71.1 190.0 63.5 191.95 63.3 192.0 54.65 190.2 50.05 191.6 49.75 191.6 43.2 189.6 38.15 192.45 37.9 192.55 37.65 192.5 33.2 190.35 27.7 194.7 27.4 194.8 27.1 194.7 21.6 190.65 18.3 192.05 17.9 192.05 14.4 190.65 10.4 193.15 10.1 193.25 9.8 193.1 6.55 189.7 0.1 192.1 0.0 192.15 0.0 191.1 6.5 188.65 6.8 188.65 7.05 188.8 10.2 192.1 14.05 189.65 14.3 189.6 14.5 189.6 18.1 191.05 21.5 189.65 21.75 189.6 22.0 189.7 27.4 193.65 32.85 189.35 33.1 189.25 33.35 189.3 37.9 191.45 42.9 188.6 43.1 188.55 43.3 188.55 49.9 190.6 54.5 189.2 54.75 189.2 63.4 190.95 71.0 189.0 71.35 189.05 75.4 190.8 81.2 188.65 81.45 188.65 81.7 188.75 85.45 191.85 89.7 190.15 90.0 190.15 95.85 191.65 100.7 189.7 101.0 189.7 106.8 191.0 111.2 189.3 111.5 189.3 115.3 190.1 120.15 187.25 120.4 187.2 120.6 187.25 126.4 190.3 129.95 188.65 130.3 188.6 136.35 190.95 139.15 189.55 139.4 189.5 139.65 189.55 144.4 192.25 147.9 190.05 148.25 190.0 154.15 191.4 159.75 189.85 160.05 189.85 165.35 191.75 169.4 189.5 169.6 189.45 169.85 189.5 173.4 190.95 180.2 188.1 180.4 188.05 180.65 188.1 184.7 190.6 190.0 188.8 190.2 188.8 190.4 188.85 193.85 191.2 196.65 189.75 196.9 189.7 197.1 189.75 199.95 191.1" fill="#797264" fill-rule="evenodd" stroke="none"/>
    <path d="M199.95 70.1 L199.95 145.1 199.7 145.15 193.25 147.55 190.0 144.15 Q189.9 144.0 189.7 144.0 L189.4 144.1 185.4 146.6 181.9 145.2 181.5 145.2 178.2 146.6 172.7 142.55 172.4 142.45 172.1 142.55 166.6 146.9 162.15 144.75 161.9 144.7 161.65 144.8 156.6 147.65 150.05 145.65 149.75 145.65 145.15 147.05 136.5 145.25 136.3 145.3 128.7 147.25 124.6 145.45 124.25 145.45 118.5 147.55 114.75 144.45 114.5 144.3 114.25 144.35 109.85 146.1 104.05 144.6 103.75 144.6 98.85 146.55 93.05 145.25 92.75 145.25 88.4 146.95 84.5 146.1 84.15 146.2 79.4 149.0 73.65 145.95 73.45 145.9 73.2 145.95 69.65 147.6 63.6 145.3 63.4 145.25 63.2 145.3 60.4 146.7 55.65 144.0 55.4 143.9 55.15 144.0 51.55 146.25 45.8 144.9 45.55 144.9 39.95 146.4 34.6 144.5 34.4 144.45 34.2 144.5 30.1 146.75 26.6 145.3 26.2 145.3 19.45 148.15 15.4 145.7 15.2 145.6 15.0 145.65 9.75 147.4 6.25 145.05 6.0 144.95 5.75 145.0 2.9 146.5 0.15 145.15 0.0 145.1 0.0 70.1 199.95 70.1 M199.95 146.1 L199.95 148.1 199.9 146.15 199.95 146.1 M199.95 194.05 L199.95 247.1 163.0 259.1 110.9 242.65 41.95 253.4 0.0 247.1 0.0 195.15 0.2 195.1 6.65 192.7 9.9 196.1 10.2 196.25 10.5 196.15 14.5 193.65 18.0 195.05 18.4 195.05 21.7 193.65 27.2 197.7 27.5 197.8 27.8 197.7 33.3 193.35 37.75 195.5 38.0 195.55 38.25 195.45 43.3 192.6 49.85 194.6 50.15 194.6 54.75 193.2 63.4 195.0 63.6 194.95 71.2 193.0 75.3 194.8 75.65 194.8 81.4 192.7 85.15 195.8 85.4 195.95 85.65 195.9 90.05 194.15 95.85 195.65 96.15 195.65 101.05 193.7 106.85 195.0 107.15 195.0 111.5 193.3 115.4 194.15 115.75 194.05 120.5 191.25 126.25 194.3 126.45 194.35 126.7 194.3 130.25 192.65 136.3 194.95 136.5 195.0 136.7 194.95 139.5 193.55 144.25 196.25 144.5 196.35 144.75 196.25 148.35 194.0 154.1 195.35 154.35 195.35 159.95 193.85 165.3 195.75 165.5 195.8 165.7 195.75 169.8 193.5 173.3 194.95 173.7 194.95 180.45 192.1 184.5 194.55 184.7 194.65 184.9 194.6 190.15 192.85 193.65 195.2 193.9 195.3 194.15 195.25 197.0 193.75 199.75 195.1 199.95 194.05 M113.4 92.8 Q113.4 98.3 124.8 102.15 136.25 106.05 152.4 106.05 168.55 106.05 179.95 102.15 191.4 98.3 191.4 92.8 191.4 87.3 179.95 83.4 168.55 79.55 152.4 79.55 136.25 79.55 124.8 83.4 113.4 87.3 113.4 92.8 M176.4 122.8 Q176.4 124.75 178.65 126.15 180.95 127.55 184.15 127.55 187.35 127.55 189.6 126.15 191.9 124.75 191.9 122.8 191.9 120.85 189.6 119.45 187.35 118.05 184.15 118.05 180.95 118.05 178.65 119.45 176.4 120.85 176.4 122.8 M76.9 83.05 Q76.9 85.1 80.6 86.55 84.35 88.05 89.65 88.05 94.95 88.05 98.65 86.55 102.4 85.1 102.4 83.05 102.4 81.0 98.65 79.5 94.95 78.05 89.65 78.05 84.35 78.05 80.6 79.5 76.9 81.0 76.9 83.05 M9.95 86.3 Q9.95 89.3 17.4 91.4 24.9 93.55 35.45 93.55 46.0 93.55 53.45 91.4 60.95 89.3 60.95 86.3 60.95 83.3 53.45 81.15 46.0 79.05 35.45 79.05 24.9 79.05 17.4 81.15 9.95 83.3 9.95 86.3 M61.4 114.3 Q61.4 115.35 62.0 116.3 57.4 116.05 52.4 116.05 34.15 116.05 21.25 119.55 8.4 123.1 8.4 128.05 8.4 133.0 21.25 136.5 34.15 140.05 52.4 140.05 70.65 140.05 83.5 136.5 96.4 133.0 96.4 128.05 96.4 125.1 91.75 122.65 96.7 122.0 100.65 120.45 107.4 117.9 107.4 114.3 107.4 110.7 100.65 108.1 93.95 105.55 84.4 105.55 74.85 105.55 68.1 108.1 61.4 110.7 61.4 114.3 M9.45 104.8 Q9.45 106.55 12.6 107.8 15.75 109.05 20.2 109.05 24.65 109.05 27.8 107.8 30.95 106.55 30.95 104.8 30.95 103.05 27.8 101.8 24.65 100.55 20.2 100.55 15.75 100.55 12.6 101.8 9.45 103.05 9.45 104.8 M111.9 128.3 Q111.9 132.35 119.5 135.2 127.15 138.05 137.9 138.05 148.65 138.05 156.25 135.2 163.9 132.35 163.9 128.3 163.9 124.25 156.25 121.4 148.65 118.55 137.9 118.55 127.15 118.55 119.5 121.4 111.9 124.25 111.9 128.3 M143.45 213.1 Q143.45 218.9 150.45 223.0 157.5 227.1 167.45 227.1 177.4 227.1 184.4 223.0 191.45 218.9 191.45 213.1 191.45 207.3 184.4 203.2 177.4 199.1 167.45 199.1 157.5 199.1 150.45 203.2 143.45 207.3 143.45 213.1 M149.45 242.6 Q149.45 244.9 153.25 246.5 157.05 248.1 162.45 248.1 167.85 248.1 171.65 246.5 175.45 244.9 175.45 242.6 175.45 240.3 171.65 238.7 167.85 237.1 162.45 237.1 157.05 237.1 153.25 238.7 149.45 240.3 149.45 242.6 M100.45 224.1 Q100.45 227.0 103.65 229.05 106.9 231.1 111.45 231.1 116.0 231.1 119.2 229.05 122.45 227.0 122.45 224.1 122.45 221.2 119.2 219.15 116.0 217.1 111.45 217.1 106.9 217.1 103.65 219.15 100.45 221.2 100.45 224.1 M34.45 211.1 Q34.45 214.4 40.15 216.75 45.85 219.1 53.95 219.1 62.05 219.1 67.75 216.75 73.45 214.4 73.45 211.1 73.45 207.8 67.75 205.45 62.05 203.1 53.95 203.1 45.85 203.1 40.15 205.45 34.45 207.8 34.45 211.1 M15.45 239.6 Q15.45 243.1 21.3 245.6 27.15 248.1 35.45 248.1 43.75 248.1 49.6 245.6 55.45 243.1 55.45 239.6 55.45 236.1 49.6 233.6 43.75 231.1 35.45 231.1 27.15 231.1 21.3 233.6 15.45 236.1 15.45 239.6 M9.45 206.6 Q9.45 208.45 11.65 209.75 13.85 211.1 16.95 211.1 20.05 211.1 22.25 209.75 24.45 208.45 24.45 206.6 24.45 204.75 22.25 203.4 20.05 202.1 16.95 202.1 13.85 202.1 11.65 203.4 9.45 204.75 9.45 206.6" fill="#668222" fill-rule="evenodd" stroke="none"/>
    <path d="M199.95 45.15 L199.95 70.1 0.0 70.1 0.0 45.15 16.5 45.15 20.85 45.15 33.0 45.15 35.25 45.15 40.3 45.15 41.45 45.15 44.2 45.15 48.85 45.15 59.5 45.15 62.45 45.15 82.9 45.15 85.85 45.15 91.55 45.15 92.55 45.15 98.3 45.15 101.05 45.15 106.05 45.15 106.65 45.15 109.2 45.15 110.75 45.15 115.4 45.15 118.05 45.15 138.7 45.15 140.8 45.15 146.3 45.15 146.6 45.15 154.75 45.15 158.1 45.15 199.95 45.15 M199.95 145.1 L199.95 146.1 199.9 146.15 193.3 148.6 193.0 148.6 192.75 148.45 189.6 145.15 185.75 147.6 185.5 147.65 185.3 147.65 181.7 146.2 178.3 147.6 178.05 147.65 177.8 147.55 172.4 143.6 166.95 147.9 166.7 148.0 166.45 147.95 161.9 145.8 156.9 148.65 156.7 148.7 156.5 148.7 149.9 146.65 145.3 148.05 145.05 148.05 136.4 146.3 128.8 148.25 128.45 148.2 124.4 146.45 118.6 148.6 118.35 148.6 118.1 148.5 114.35 145.4 110.1 147.1 109.8 147.1 103.95 145.6 99.1 147.55 98.8 147.55 93.0 146.25 88.6 147.95 88.3 147.95 84.5 147.15 79.65 150.0 79.4 150.05 79.2 150.0 73.4 146.95 69.85 148.6 69.5 148.65 63.45 146.3 60.65 147.7 60.4 147.75 60.15 147.7 55.4 145.0 51.9 147.2 51.55 147.25 45.65 145.85 40.05 147.4 39.75 147.4 34.45 145.5 30.4 147.75 30.2 147.8 29.95 147.75 26.4 146.3 19.6 149.15 19.4 149.2 19.15 149.15 15.1 146.65 9.8 148.45 9.6 148.45 9.4 148.4 5.95 146.05 3.15 147.5 2.9 147.55 2.7 147.5 0.0 146.2 0.0 145.1 0.15 145.15 2.9 146.5 5.75 145.0 6.0 144.95 6.25 145.05 9.75 147.4 15.0 145.65 15.2 145.6 15.4 145.7 19.45 148.15 26.2 145.3 26.6 145.3 30.1 146.75 34.2 144.5 34.4 144.45 34.6 144.5 39.95 146.4 45.55 144.9 45.8 144.9 51.55 146.25 55.15 144.0 55.4 143.9 55.65 144.0 60.4 146.7 63.2 145.3 63.4 145.25 63.6 145.3 69.65 147.6 73.2 145.95 73.45 145.9 73.65 145.95 79.4 149.0 84.15 146.2 84.5 146.1 88.4 146.95 92.75 145.25 93.05 145.25 98.85 146.55 103.75 144.6 104.05 144.6 109.85 146.1 114.25 144.35 114.5 144.3 114.75 144.45 118.5 147.55 124.25 145.45 124.6 145.45 128.7 147.25 136.3 145.3 136.5 145.25 145.15 147.05 149.75 145.65 150.05 145.65 156.6 147.65 161.65 144.8 161.9 144.7 162.15 144.75 166.6 146.9 172.1 142.55 172.4 142.45 172.7 142.55 178.2 146.6 181.5 145.2 181.9 145.2 185.4 146.6 189.4 144.1 189.7 144.0 Q189.9 144.0 190.0 144.15 L193.25 147.55 199.7 145.15 199.95 145.1 M199.95 247.1 L199.95 307.5 0.0 307.5 0.0 247.1 41.95 253.4 110.9 242.65 163.0 259.1 199.95 247.1 M0.0 195.15 L0.0 194.1 6.6 191.65 6.9 191.65 7.15 191.8 10.3 195.1 14.15 192.65 14.4 192.6 14.6 192.6 18.2 194.05 21.6 192.65 21.85 192.6 22.1 192.7 27.5 196.65 32.95 192.35 33.2 192.25 33.45 192.3 38.0 194.45 43.0 191.6 43.2 191.55 43.4 191.55 50.0 193.6 54.6 192.2 54.85 192.2 63.5 193.95 71.1 192.0 71.45 192.05 75.5 193.8 81.3 191.65 81.55 191.65 81.8 191.75 85.55 194.85 89.8 193.15 90.1 193.15 95.95 194.65 100.8 192.7 101.1 192.7 106.9 194.0 111.3 192.3 111.6 192.3 115.4 193.1 120.25 190.25 120.5 190.2 120.7 190.25 126.5 193.3 130.05 191.65 130.4 191.6 136.45 193.95 139.25 192.55 139.5 192.5 139.75 192.55 144.5 195.25 148.0 193.05 148.35 193.0 154.25 194.4 159.85 192.85 160.15 192.85 165.45 194.75 169.5 192.5 169.7 192.45 169.95 192.5 173.5 193.95 180.3 191.1 180.5 191.05 180.75 191.1 184.8 193.6 190.1 191.8 190.3 191.8 190.5 191.85 193.95 194.2 196.75 192.75 197.0 192.7 197.2 192.75 199.95 194.05 199.75 195.1 197.0 193.75 194.15 195.25 193.9 195.3 193.65 195.2 190.15 192.85 184.9 194.6 184.7 194.65 184.5 194.55 180.45 192.1 173.7 194.95 173.3 194.95 169.8 193.5 165.7 195.75 165.5 195.8 165.3 195.75 159.95 193.85 154.35 195.35 154.1 195.35 148.35 194.0 144.75 196.25 144.5 196.35 144.25 196.25 139.5 193.55 136.7 194.95 136.5 195.0 136.3 194.95 130.25 192.65 126.7 194.3 126.45 194.35 126.25 194.3 120.5 191.25 115.75 194.05 115.4 194.15 111.5 193.3 107.15 195.0 106.85 195.0 101.05 193.7 96.15 195.65 95.85 195.65 90.05 194.15 85.65 195.9 85.4 195.95 85.15 195.8 81.4 192.7 75.65 194.8 75.3 194.8 71.2 193.0 63.6 194.95 63.4 195.0 54.75 193.2 50.15 194.6 49.85 194.6 43.3 192.6 38.25 195.45 38.0 195.55 37.75 195.5 33.3 193.35 27.8 197.7 27.5 197.8 27.2 197.7 21.7 193.65 18.4 195.05 18.0 195.05 14.5 193.65 10.5 196.15 10.2 196.25 9.9 196.1 6.65 192.7 0.2 195.1 0.0 195.15" fill="#5d761f" fill-rule="evenodd" stroke="none"/>
    <path d="M176.4 122.8 Q176.4 120.85 178.65 119.45 180.95 118.05 184.15 118.05 187.35 118.05 189.6 119.45 191.9 120.85 191.9 122.8 191.9 124.75 189.6 126.15 187.35 127.55 184.15 127.55 180.95 127.55 178.65 126.15 176.4 124.75 176.4 122.8 M113.4 92.8 Q113.4 87.3 124.8 83.4 136.25 79.55 152.4 79.55 168.55 79.55 179.95 83.4 191.4 87.3 191.4 92.8 191.4 98.3 179.95 102.15 168.55 106.05 152.4 106.05 136.25 106.05 124.8 102.15 113.4 98.3 113.4 92.8 M76.9 83.05 Q76.9 81.0 80.6 79.5 84.35 78.05 89.65 78.05 94.95 78.05 98.65 79.5 102.4 81.0 102.4 83.05 102.4 85.1 98.65 86.55 94.95 88.05 89.65 88.05 84.35 88.05 80.6 86.55 76.9 85.1 76.9 83.05 M9.45 104.8 Q9.45 103.05 12.6 101.8 15.75 100.55 20.2 100.55 24.65 100.55 27.8 101.8 30.95 103.05 30.95 104.8 30.95 106.55 27.8 107.8 24.65 109.05 20.2 109.05 15.75 109.05 12.6 107.8 9.45 106.55 9.45 104.8 M61.4 114.3 Q61.4 110.7 68.1 108.1 74.85 105.55 84.4 105.55 93.95 105.55 100.65 108.1 107.4 110.7 107.4 114.3 107.4 117.9 100.65 120.45 96.7 122.0 91.75 122.65 96.4 125.1 96.4 128.05 96.4 133.0 83.5 136.5 70.65 140.05 52.4 140.05 34.15 140.05 21.25 136.5 8.4 133.0 8.4 128.05 8.4 123.1 21.25 119.55 34.15 116.05 52.4 116.05 57.4 116.05 62.0 116.3 61.4 115.35 61.4 114.3 M9.95 86.3 Q9.95 83.3 17.4 81.15 24.9 79.05 35.45 79.05 46.0 79.05 53.45 81.15 60.95 83.3 60.95 86.3 60.95 89.3 53.45 91.4 46.0 93.55 35.45 93.55 24.9 93.55 17.4 91.4 9.95 89.3 9.95 86.3 M9.45 206.6 Q9.45 204.75 11.65 203.4 13.85 202.1 16.95 202.1 20.05 202.1 22.25 203.4 24.45 204.75 24.45 206.6 24.45 208.45 22.25 209.75 20.05 211.1 16.95 211.1 13.85 211.1 11.65 209.75 9.45 208.45 9.45 206.6 M15.45 239.6 Q15.45 236.1 21.3 233.6 27.15 231.1 35.45 231.1 43.75 231.1 49.6 233.6 55.45 236.1 55.45 239.6 55.45 243.1 49.6 245.6 43.75 248.1 35.45 248.1 27.15 248.1 21.3 245.6 15.45 243.1 15.45 239.6 M34.45 211.1 Q34.45 207.8 40.15 205.45 45.85 203.1 53.95 203.1 62.05 203.1 67.75 205.45 73.45 207.8 73.45 211.1 73.45 214.4 67.75 216.75 62.05 219.1 53.95 219.1 45.85 219.1 40.15 216.75 34.45 214.4 34.45 211.1 M100.45 224.1 Q100.45 221.2 103.65 219.15 106.9 217.1 111.45 217.1 116.0 217.1 119.2 219.15 122.45 221.2 122.45 224.1 122.45 227.0 119.2 229.05 116.0 231.1 111.45 231.1 106.9 231.1 103.65 229.05 100.45 227.0 100.45 224.1 M149.45 242.6 Q149.45 240.3 153.25 238.7 157.05 237.1 162.45 237.1 167.85 237.1 171.65 238.7 175.45 240.3 175.45 242.6 175.45 244.9 171.65 246.5 167.85 248.1 162.45 248.1 157.05 248.1 153.25 246.5 149.45 244.9 149.45 242.6 M143.45 213.1 Q143.45 207.3 150.45 203.2 157.5 199.1 167.45 199.1 177.4 199.1 184.4 203.2 191.45 207.3 191.45 213.1 191.45 218.9 184.4 223.0 177.4 227.1 167.45 227.1 157.5 227.1 150.45 223.0 143.45 218.9 143.45 213.1 M111.9 128.3 Q111.9 124.25 119.5 121.4 127.15 118.55 137.9 118.55 148.65 118.55 156.25 121.4 163.9 124.25 163.9 128.3 163.9 132.35 156.25 135.2 148.65 138.05 137.9 138.05 127.15 138.05 119.5 135.2 111.9 132.35 111.9 128.3" fill="#6f8e23" fill-rule="evenodd" stroke="none"/>
    <path d="M199.95 158.05 L199.95 181.55 154.5 177.65 118.5 181.7 89.5 178.55 31.55 177.8 0.0 181.55 0.0 158.05 42.5 159.9 66.0 157.1 111.0 159.7 144.5 157.6 183.45 160.55 199.95 158.05" fill="#8e8471" fill-rule="evenodd" stroke="none"/>
  </g>
</svg>
