<?xml version="1.0" encoding="UTF-8" standalone="no"?>
<svg xmlns:ffdec="https://www.free-decompiler.com/flash" xmlns:xlink="http://www.w3.org/1999/xlink" ffdec:objectType="shape" height="20.25px" width="56.8px" xmlns="http://www.w3.org/2000/svg">
  <g transform="matrix(1.0, 0.0, 0.0, 1.0, -3.85, -9.15)">
    <path d="M24.95 10.9 Q36.0 9.05 42.9 11.25 48.15 12.85 48.15 14.95 43.25 13.55 38.3 12.45 28.5 10.25 20.7 11.85 L24.95 10.9 M14.15 16.95 Q24.0 15.0 30.2 17.1 34.9 18.7 34.9 20.8 30.55 19.5 26.1 18.45 17.35 16.3 10.4 17.95 L14.15 16.95 M18.9 13.65 Q29.95 11.75 36.85 13.95 42.1 15.55 42.1 17.65 L32.2 15.15 Q22.45 13.0 14.65 14.6 L18.9 13.65" fill="#b75cf3" fill-rule="evenodd" stroke="none"/>
    <path d="M21.55 11.15 L27.25 9.8 28.7 9.6 31.6 9.4 34.3 9.2 34.5 9.15 35.3 9.2 Q37.45 9.25 43.35 10.85 50.2 12.7 50.2 14.1 50.2 15.25 48.05 15.6 L44.05 14.45 Q39.5 13.0 35.0 12.5 L31.45 12.2 Q33.65 12.55 37.25 13.55 44.15 15.45 44.15 16.85 44.15 18.0 42.0 18.3 L38.0 17.2 Q33.45 15.8 28.9 15.2 23.4 14.55 17.25 14.9 L11.8 15.4 12.0 15.2 Q12.95 14.65 15.5 13.9 18.4 13.0 21.8 12.4 L24.85 12.15 23.35 12.2 17.85 12.65 18.05 12.5 Q19.0 11.95 21.55 11.15 M24.95 10.9 L20.7 11.85 Q28.5 10.25 38.3 12.45 43.25 13.55 48.15 14.95 48.15 12.85 42.9 11.25 36.0 9.05 24.95 10.9 M11.15 17.25 Q13.75 16.4 16.75 15.7 L21.2 15.2 23.4 15.15 Q25.35 15.25 30.6 16.75 36.75 18.6 36.75 20.0 36.75 21.15 34.8 21.5 L31.3 20.4 Q27.15 19.0 23.15 18.5 18.2 17.85 12.7 18.25 L7.85 18.85 8.05 18.6 Q8.85 18.05 11.15 17.25 M18.9 13.65 L14.65 14.6 Q22.45 13.0 32.2 15.15 L42.1 17.65 Q42.1 15.55 36.85 13.95 29.95 11.75 18.9 13.65 M14.15 16.95 L10.4 17.95 Q17.35 16.3 26.1 18.45 30.55 19.5 34.9 20.8 34.9 18.7 30.2 17.1 24.0 15.0 14.15 16.95" fill="#501f70" fill-rule="evenodd" stroke="none"/>
    <path d="M44.7 22.75 L45.2 24.0 38.5 27.7 38.25 26.0 44.7 22.75 M51.95 18.95 L52.3 20.25 47.5 22.95 47.05 21.5 51.95 18.95 M59.35 15.0 L59.75 15.5 58.85 15.9 58.6 15.25 59.35 15.0 M56.85 16.1 L57.05 16.9 53.85 19.25 53.4 17.85 56.85 16.1 M12.2 24.1 L11.9 25.45 Q8.4 25.0 4.7 22.95 L5.2 22.0 Q8.7 23.65 12.2 24.1 M23.0 26.0 L22.75 27.3 15.15 26.4 15.75 24.85 23.0 26.0 M34.0 27.35 L33.7 28.7 26.05 28.25 26.75 26.7 34.0 27.35" fill="#eaeaea" fill-rule="evenodd" stroke="none"/>
    <path d="M44.7 22.75 L38.25 26.0 38.5 27.7 45.2 24.0 44.7 22.75 M52.05 18.1 L52.25 18.05 52.45 18.15 52.55 18.35 53.05 20.35 53.05 20.55 52.9 20.7 47.5 23.75 47.3 23.8 47.1 23.75 47.0 23.55 46.35 21.4 46.35 21.2 46.5 21.0 52.05 18.1 M44.75 21.95 L44.95 21.9 45.15 22.0 45.25 22.15 45.95 24.05 45.95 24.3 45.8 24.45 38.4 28.55 38.15 28.6 37.95 28.5 37.85 28.3 37.5 25.85 37.55 25.65 37.7 25.5 44.75 21.95 M51.95 18.95 L47.05 21.5 47.5 22.95 52.3 20.25 51.95 18.95 M59.35 14.3 L59.55 14.3 59.75 14.4 60.6 15.4 60.65 15.6 60.6 15.8 60.45 15.95 58.8 16.75 58.65 16.75 58.45 16.7 58.35 16.55 57.8 15.15 57.75 14.95 57.85 14.8 58.0 14.7 59.35 14.3 M59.35 15.0 L58.6 15.25 58.85 15.9 59.75 15.5 59.35 15.0 M56.9 15.3 L57.1 15.25 57.3 15.35 57.4 15.5 57.8 16.9 57.8 17.1 57.65 17.3 53.85 20.1 53.65 20.15 53.45 20.1 53.35 19.9 52.7 17.75 52.7 17.55 52.85 17.35 56.9 15.3 M12.2 24.1 Q8.7 23.65 5.2 22.0 L4.7 22.95 Q8.4 25.0 11.9 25.45 L12.2 24.1 M56.85 16.1 L53.4 17.85 53.85 19.25 57.05 16.9 56.85 16.1 M23.45 25.35 L23.65 25.45 23.75 25.6 23.75 25.8 23.35 27.8 23.2 28.0 22.95 28.05 14.6 27.05 14.45 27.0 14.3 26.8 14.35 26.6 15.2 24.35 15.35 24.15 15.55 24.1 23.45 25.35 M12.65 23.45 L12.85 23.55 12.95 23.7 12.95 23.9 12.55 25.9 12.4 26.1 12.2 26.15 Q8.25 25.8 4.05 23.35 L3.9 23.15 3.9 22.9 4.75 21.4 4.95 21.25 5.2 21.25 Q8.95 23.0 12.65 23.45 M23.0 26.0 L15.75 24.85 15.15 26.4 22.75 27.3 23.0 26.0 M34.45 26.7 L34.6 26.8 34.75 26.95 34.75 27.15 34.35 29.15 34.25 29.35 34.0 29.4 25.5 28.9 25.3 28.85 25.15 28.65 25.2 28.4 26.2 26.15 26.35 26.0 26.55 25.95 34.45 26.7 M34.0 27.35 L26.75 26.7 26.05 28.25 33.7 28.7 34.0 27.35" fill="#666666" fill-rule="evenodd" stroke="none"/>
  </g>
</svg>
