<?xml version="1.0" encoding="UTF-8" standalone="no"?>
<svg xmlns:ffdec="https://www.free-decompiler.com/flash" xmlns:xlink="http://www.w3.org/1999/xlink" ffdec:objectType="shape" height="80.0px" width="4.0px" xmlns="http://www.w3.org/2000/svg">
  <g transform="matrix(1.0, 0.0, 0.0, 1.0, 0.0, 0.0)">
    <path d="M2.7 1.3 L3.0 2.0 3.0 43.5 2.7 44.2 2.0 44.5 Q1.6 44.5 1.3 44.2 1.0 43.9 1.0 43.5 L1.0 2.0 Q1.0 1.6 1.3 1.3 1.6 1.0 2.0 1.0 2.4 1.0 2.7 1.3" fill="#999999" fill-rule="evenodd" stroke="none"/>
    <path d="M3.4 0.6 Q4.0 1.15 4.0 2.0 L4.0 43.5 Q4.0 44.35 3.4 44.95 L3.0 45.25 3.0 79.0 2.7 79.7 2.0 80.0 Q1.6 80.0 1.3 79.7 1.0 79.4 1.0 79.0 L1.0 45.25 0.55 44.95 Q0.0 44.35 0.0 43.5 L0.0 2.0 Q0.0 1.15 0.55 0.6 1.15 0.0 2.0 0.0 2.85 0.0 3.4 0.6 M2.7 1.3 Q2.4 1.0 2.0 1.0 1.6 1.0 1.3 1.3 1.0 1.6 1.0 2.0 L1.0 43.5 Q1.0 43.9 1.3 44.2 1.6 44.5 2.0 44.5 L2.7 44.2 3.0 43.5 3.0 2.0 2.7 1.3" fill="#373737" fill-rule="evenodd" stroke="none"/>
  </g>
</svg>
