<?xml version="1.0" encoding="UTF-8" standalone="no"?>
<svg xmlns:ffdec="https://www.free-decompiler.com/flash" xmlns:xlink="http://www.w3.org/1999/xlink" ffdec:objectType="shape" height="92.7px" width="31.8px" xmlns="http://www.w3.org/2000/svg">
  <g transform="matrix(1.0, 0.0, 0.0, 1.0, 21.6, 108.0)">
    <path d="M0.55 -105.4 Q0.1 -104.95 -0.5 -104.95 -1.15 -104.95 -1.6 -105.4 -2.05 -105.85 -2.05 -106.45 -2.05 -107.1 -1.6 -107.55 -1.15 -108.0 -0.5 -108.0 0.1 -108.0 0.55 -107.55 1.0 -107.1 1.0 -106.45 1.0 -105.85 0.55 -105.4 M8.7 -86.0 L9.75 -85.55 Q10.2 -85.1 10.2 -84.45 10.2 -83.85 9.75 -83.4 9.3 -82.95 8.7 -82.95 8.05 -82.95 7.6 -83.4 7.15 -83.85 7.15 -84.45 7.15 -85.1 7.6 -85.55 8.05 -86.0 8.7 -86.0 M-19.55 -87.05 Q-19.35 -86.55 -19.5 -85.95 -19.6 -85.35 -20.0 -84.95 -20.2 -84.8 -20.35 -84.75 L-20.8 -84.7 -21.45 -85.3 -21.5 -85.5 -21.55 -86.4 -21.1 -87.25 -21.0 -87.4 -20.15 -87.65 -19.85 -87.5 -19.55 -87.05 M-4.0 -83.1 L-3.2 -83.5 -2.9 -83.55 Q-2.3 -83.55 -1.85 -83.1 -1.4 -82.65 -1.4 -82.0 -1.4 -81.4 -1.85 -80.95 -2.3 -80.5 -2.9 -80.5 L-3.4 -80.55 -4.0 -80.95 Q-4.45 -81.4 -4.45 -82.0 -4.45 -82.65 -4.0 -83.1 M-3.9 -61.1 Q-3.3 -61.1 -2.85 -60.65 -2.4 -60.2 -2.4 -59.55 -2.4 -58.95 -2.85 -58.5 -3.3 -58.05 -3.9 -58.05 L-4.15 -58.05 Q-4.65 -58.15 -5.0 -58.5 -5.45 -58.95 -5.45 -59.55 -5.45 -60.2 -5.0 -60.65 -4.7 -60.95 -4.25 -61.05 L-3.9 -61.1 M-3.9 -39.25 Q-3.3 -39.25 -2.85 -38.85 -2.4 -38.4 -2.4 -37.85 -2.4 -37.3 -2.85 -36.9 -3.3 -36.5 -3.85 -36.5 L-3.9 -36.5 Q-4.55 -36.5 -5.0 -36.9 -5.45 -37.3 -5.45 -37.85 L-5.0 -38.85 Q-4.55 -39.25 -3.95 -39.25 L-3.9 -39.25 M-1.45 -17.6 Q-1.0 -17.2 -1.0 -16.65 -1.0 -16.1 -1.45 -15.7 -1.8 -15.35 -2.25 -15.3 L-2.5 -15.3 Q-3.15 -15.3 -3.6 -15.7 -4.05 -16.1 -4.05 -16.65 L-3.6 -17.6 Q-3.15 -18.05 -2.5 -18.05 L-1.75 -17.85 -1.45 -17.6" fill="#ffffff" fill-rule="evenodd" stroke="none"/>
  </g>
</svg>
