<?xml version="1.0" encoding="UTF-8" standalone="no"?>
<svg xmlns:ffdec="https://www.free-decompiler.com/flash" xmlns:xlink="http://www.w3.org/1999/xlink" ffdec:objectType="shape" height="55.75px" width="103.75px" xmlns="http://www.w3.org/2000/svg">
  <g transform="matrix(1.0, 0.0, 0.0, 1.0, 47.55, 18.1)">
    <path d="M5.25 -8.25 L5.25 -10.6 1.3 -10.65 1.25 -8.85 1.25 -3.45 1.2 0.1 -0.4 0.1 -0.25 -11.15 -23.1 -12.55 -26.8 -13.65 -29.25 -14.35 -32.3 -15.55 Q-33.5 -12.2 -33.85 -9.0 L-34.2 -5.3 -34.3 -5.3 -36.25 -2.5 Q-41.05 4.45 -45.1 11.9 L-45.1 12.0 Q-46.35 13.5 -46.35 15.15 -46.2 21.0 -31.45 25.25 L-29.5 25.8 -26.1 26.6 -25.75 26.65 -22.8 27.25 -14.6 28.5 -1.2 29.45 5.2 29.55 8.75 29.55 23.55 28.7 24.4 28.6 24.65 28.55 Q26.0 28.25 26.0 27.25 L25.95 27.05 25.8 26.0 25.8 25.9 25.7 25.75 25.25 23.35 24.35 19.0 24.1 18.15 23.9 17.15 23.6 16.05 22.8 12.6 22.35 10.95 18.8 -1.15 Q19.1 -0.75 19.7 -0.8 L21.35 4.05 23.25 10.35 23.8 12.3 24.9 16.35 25.1 17.4 25.85 20.5 26.45 23.1 26.8 24.8 27.1 26.4 30.7 25.9 31.3 25.8 31.6 25.75 32.0 25.65 35.2 25.1 40.4 23.9 40.65 23.85 42.3 23.4 Q54.9 19.85 55.0 15.15 L54.95 14.55 Q54.75 13.6 54.2 12.8 L42.45 -3.35 40.8 -5.55 40.5 -5.45 Q40.05 -9.85 39.0 -14.1 L35.3 -13.65 36.05 -5.3 36.1 -5.3 36.45 -4.1 34.9 -3.65 34.65 -3.45 34.0 -11.85 33.8 -13.3 30.3 -12.45 30.45 -10.7 31.4 -1.15 29.9 -1.8 29.75 -3.05 28.8 -12.15 6.7 -10.55 6.7 -9.75 6.7 0.05 5.6 0.1 5.3 0.1 5.25 -8.25 M27.5 -1.95 L27.4 -1.9 27.5 -2.5 27.6 -1.95 27.5 -1.95 M-36.0 -4.8 Q-35.5 -9.95 -34.45 -13.3 L-34.1 -14.85 -34.15 -14.8 -34.0 -15.55 -33.4 -18.1 -32.65 -18.1 -30.85 -16.65 Q-29.85 -15.9 -28.9 -15.85 -26.05 -14.95 -20.65 -14.0 -9.75 -12.1 7.3 -12.05 L17.55 -12.4 Q24.35 -12.9 33.65 -14.6 L36.65 -15.25 Q38.15 -15.75 39.4 -16.65 L39.45 -16.75 39.5 -16.85 40.1 -16.85 40.5 -15.15 40.85 -13.75 40.85 -13.7 41.1 -12.45 42.3 -5.5 42.3 -5.45 55.25 12.3 Q55.95 13.3 56.15 14.4 L56.2 15.15 Q56.3 20.65 42.15 24.5 L34.25 26.25 Q28.0 33.3 17.8 36.0 11.45 37.65 3.5 37.65 -3.75 37.65 -10.9 35.2 -15.45 33.55 -19.9 31.0 -22.45 29.5 -24.6 27.85 L-31.3 26.35 -31.45 26.3 -31.65 26.25 -31.9 26.2 Q-47.65 21.6 -47.55 15.15 -47.55 13.2 -46.1 11.45 L-46.15 11.5 Q-41.6 3.0 -36.0 -4.8 M23.1 29.8 L5.2 30.55 Q-8.8 30.55 -21.3 28.45 -15.7 32.55 -7.9 34.05 5.1 36.5 11.4 35.1 17.7 33.7 20.3 32.7 21.75 32.15 23.1 29.8 M24.2 29.65 L23.6 31.05 29.25 27.15 27.2 27.4 Q27.2 29.15 24.65 29.6 L24.2 29.65" fill="#464646" fill-rule="evenodd" stroke="none"/>
    <path d="M1.25 -8.85 L1.3 -10.65 5.25 -10.6 5.25 -8.25 1.25 -8.85 M30.45 -10.7 L30.3 -12.45 33.8 -13.3 34.0 -11.85 30.45 -10.7 M34.7 21.55 L33.7 21.5 32.1 19.1 31.6 18.25 31.1 17.4 31.05 17.3 30.4 15.9 29.0 13.15 28.05 11.35 26.9 9.15 26.8 8.9 26.3 7.75 Q25.6 6.1 25.25 4.8 25.9 5.0 26.55 5.55 L26.85 5.9 28.05 7.65 28.4 8.35 29.9 10.4 30.3 10.85 30.3 10.9 30.45 11.05 31.7 12.45 33.4 13.55 Q34.6 14.35 35.4 14.35 L36.1 13.15 36.65 12.3 36.4 11.85 Q34.85 8.85 34.85 7.8 L34.9 7.4 Q35.2 6.5 37.25 9.1 L38.45 10.7 39.6 12.35 40.8 14.2 Q42.05 16.45 42.05 17.45 L42.0 17.9 41.9 18.0 Q41.6 18.65 40.55 19.5 L40.1 19.8 37.95 20.9 35.25 21.45 34.9 21.55 34.7 21.55 M-9.5 2.2 Q-7.75 2.2 -7.6 6.6 -7.45 8.95 -7.65 12.4 L-7.4 14.7 -6.85 16.75 Q-5.95 20.15 -5.3 21.35 L-4.05 21.35 Q-2.65 20.45 -2.1 18.9 L-1.35 16.45 -1.1 15.35 -1.15 16.1 -0.8 13.25 0.0 8.7 0.35 7.0 0.9 4.75 1.3 3.55 Q2.75 0.15 4.1 5.2 L4.2 5.75 4.25 6.5 4.5 9.1 4.5 9.25 5.0 14.95 5.0 14.5 5.9 16.85 Q7.0 19.95 9.1 19.95 10.95 19.95 12.0 16.9 L12.65 14.5 12.9 13.15 13.0 12.45 13.0 12.1 13.1 10.6 13.35 8.7 Q13.35 7.95 13.5 7.4 L13.5 2.75 Q15.05 0.2 16.35 2.15 17.25 3.5 17.5 5.25 L18.8 10.6 18.95 11.25 19.35 12.55 20.15 15.05 20.5 16.2 20.9 17.55 21.65 20.2 22.2 23.1 22.1 24.3 Q21.8 25.15 20.4 25.15 L19.95 25.15 18.45 25.6 15.1 25.6 14.55 25.7 14.15 25.6 13.4 25.6 10.6 24.1 Q10.05 24.1 8.55 25.2 L6.5 26.6 2.9 26.6 0.75 26.1 -1.95 25.55 -4.65 23.95 Q-5.5 23.95 -6.25 24.5 L-7.65 25.55 -14.6 25.55 -17.4 24.75 -17.85 24.25 -18.15 23.8 -18.1 23.6 -18.15 23.5 -18.15 22.95 -17.9 21.95 -17.55 20.65 -16.95 18.85 -16.5 16.8 -14.65 10.35 -13.0 5.1 Q-11.65 2.2 -9.5 2.2 M36.75 19.1 Q36.75 17.75 34.5 15.95 L34.4 15.9 Q32.1 14.1 32.1 15.7 L33.1 18.2 Q34.3 20.7 35.25 20.7 L35.6 20.7 Q36.75 20.5 36.75 19.1 M5.4 22.9 Q5.4 21.05 2.75 11.4 0.75 10.25 0.6 12.35 0.45 13.5 0.7 15.9 L0.3 21.65 Q0.3 22.5 0.6 23.15 1.35 24.75 4.05 24.75 5.0 24.75 5.3 23.95 L5.4 23.2 5.4 22.9 M20.2 21.35 L20.15 20.9 19.05 17.15 19.0 17.0 18.6 15.5 18.2 14.35 17.8 12.95 17.6 12.25 16.7 9.55 15.75 7.9 Q15.2 7.25 15.0 8.2 L14.8 10.45 14.85 11.45 14.9 12.95 14.9 14.0 14.85 14.65 14.85 19.4 15.2 22.1 15.3 22.3 Q15.75 23.45 17.5 23.45 20.2 23.45 20.2 21.35 M-9.6 5.2 Q-10.8 4.0 -11.4 5.65 L-11.95 8.45 Q-12.0 10.0 -12.8 12.9 L-14.05 18.75 -14.5 21.65 Q-14.5 22.45 -14.3 22.7 -13.6 23.55 -10.9 23.55 -9.15 23.55 -8.85 22.15 L-8.85 21.4 -8.85 20.6 Q-9.25 15.0 -9.6 13.15 L-9.6 5.2 M-20.35 18.45 L-20.5 19.75 -20.7 21.55 -20.3 23.25 Q-20.4 24.35 -23.1 24.35 -25.3 24.35 -26.35 23.75 L-26.95 23.3 -27.4 22.45 -27.45 22.1 -25.9 17.75 -24.85 14.9 Q-24.25 12.9 -24.15 11.7 -24.0 11.0 -23.1 10.2 -22.2 9.3 -22.1 10.65 L-22.05 13.3 Q-21.85 14.8 -21.1 16.1 -20.35 17.3 -20.35 18.45 M-30.5 7.4 Q-30.5 8.9 -31.65 11.9 L-32.5 13.85 Q-33.2 15.25 -34.0 16.1 L-34.7 16.7 -35.6 16.65 Q-36.4 16.0 -36.4 15.4 -36.4 14.25 -35.35 12.2 L-33.9 9.7 -33.45 8.9 Q-30.5 4.4 -30.5 7.4 M-22.3 18.1 L-22.3 17.95 Q-22.35 17.05 -23.2 16.55 L-23.6 16.45 Q-24.25 16.5 -24.5 18.05 -24.55 18.55 -25.5 21.05 -25.7 22.2 -23.95 22.2 -22.75 22.2 -22.4 20.3 L-22.3 18.1" fill="#e0e0e0" fill-rule="evenodd" stroke="none"/>
    <path d="M5.6 0.1 L6.7 0.05 6.7 -9.75 6.7 -10.55 28.8 -12.15 29.75 -3.05 27.5 -2.5 27.4 -1.9 27.5 -1.95 Q27.45 -1.7 27.7 -1.0 L27.8 -0.45 28.25 0.85 28.95 2.2 29.6 3.0 29.8 3.25 Q33.1 8.5 33.1 10.1 L32.75 10.7 32.5 10.5 31.1 9.35 30.1 8.15 29.45 7.2 28.0 4.4 27.5 3.45 26.85 2.45 26.75 2.35 25.55 0.6 24.9 -0.3 24.1 -1.35 23.75 -4.5 Q22.9 -6.75 19.85 -6.75 L13.3 -6.2 Q10.05 -5.5 10.1 -4.2 10.1 -2.55 10.4 -1.0 L10.3 -0.05 Q9.9 3.4 10.2 5.55 L10.3 8.45 10.2 10.7 10.05 11.85 10.05 12.2 9.95 13.1 Q9.45 16.4 8.75 16.4 7.9 16.4 7.3 12.85 L7.05 11.35 6.95 10.2 6.75 8.95 6.6 7.6 6.5 7.2 5.6 0.1 M34.65 -3.45 L34.9 -3.65 34.9 -3.5 Q34.9 -2.85 35.8 -1.5 L36.5 -0.5 37.05 0.2 37.95 1.35 39.6 3.25 40.55 4.85 41.9 7.35 42.15 7.65 Q43.7 10.05 45.15 10.05 L45.5 9.75 45.65 9.4 42.45 3.85 40.7 0.95 37.55 -3.6 37.3 -3.85 36.95 -4.25 36.45 -4.1 36.1 -5.3 36.05 -5.3 35.3 -13.65 39.0 -14.1 Q40.05 -9.85 40.5 -5.45 L40.8 -5.55 42.45 -3.35 54.2 12.8 Q54.75 13.6 54.95 14.55 L55.0 15.15 Q54.9 19.85 42.3 23.4 L40.65 23.85 40.4 23.9 35.2 25.1 32.0 25.65 31.6 25.75 31.3 25.8 30.7 25.9 27.1 26.4 26.8 24.8 26.45 23.1 25.85 20.5 25.1 17.4 24.9 16.35 23.8 12.3 23.25 10.35 21.35 4.05 19.7 -0.8 Q20.3 -0.85 21.45 0.8 21.45 0.55 21.6 0.65 L22.05 1.55 24.2 6.65 25.65 10.3 25.7 10.45 26.75 12.75 27.8 15.35 29.25 18.7 29.45 19.1 30.3 21.1 31.5 24.15 32.3 24.0 32.75 23.95 35.5 23.45 36.7 23.0 39.8 22.1 40.6 21.8 42.4 21.05 44.15 20.2 Q45.0 19.6 45.0 18.2 45.0 16.55 44.5 15.5 44.0 14.4 42.4 12.65 L41.45 11.55 40.35 9.85 40.05 9.3 38.8 7.2 37.8 5.85 37.3 5.2 35.8 1.7 35.7 1.9 Q35.25 1.7 35.1 1.1 L34.95 -0.6 Q34.25 -2.9 34.65 -3.45 M-25.75 26.65 L-26.1 26.6 -29.5 25.8 -31.45 25.25 Q-46.2 21.0 -46.35 15.15 -46.35 13.5 -45.1 12.0 L-45.1 11.9 Q-41.05 4.45 -36.25 -2.5 L-34.3 -5.3 -34.2 -5.3 -33.85 -9.0 Q-33.5 -12.2 -32.3 -15.55 L-29.25 -14.35 -26.8 -13.65 -23.1 -12.55 -0.25 -11.15 -0.4 0.1 -1.1 0.05 -1.15 0.2 Q-1.3 0.45 -1.6 0.55 L-1.3 0.4 -1.3 0.65 -1.5 5.0 Q-2.35 16.2 -3.55 16.2 -4.5 16.2 -4.8 13.9 L-5.1 10.05 -5.1 4.8 -5.35 3.35 -5.4 1.95 -5.5 0.45 -5.5 -0.35 -5.6 -0.3 -6.1 -3.7 Q-6.4 -5.0 -7.3 -6.05 -9.25 -7.0 -11.9 -7.75 L-20.0 -8.65 Q-20.35 -8.7 -22.05 -4.7 L-22.05 -4.6 -19.95 -3.4 -19.35 -3.1 -19.35 -2.8 -19.3 -4.1 -15.25 -4.1 -15.3 -2.8 -18.55 -2.8 -15.85 -1.9 Q-14.55 -1.5 -14.25 -0.75 L-14.35 -0.85 -14.55 -1.0 -14.55 -0.85 -14.8 1.05 Q-15.2 3.4 -16.35 6.1 -19.05 12.8 -19.75 12.8 L-19.9 12.8 Q-20.5 12.7 -20.35 12.1 L-20.35 11.9 Q-20.35 10.15 -19.05 5.1 L-18.8 2.8 -18.6 1.15 -18.55 0.75 -18.3 -0.05 -18.3 -0.2 -17.2 -0.05 -18.6 -0.25 -18.75 -0.35 -19.45 -0.35 -21.2 -0.55 -21.8 0.8 -23.0 3.85 -23.35 4.9 -24.4 7.4 -25.75 10.9 -26.4 12.65 -29.2 19.95 -29.9 22.7 -29.95 22.85 -30.0 23.15 -29.9 23.45 -29.5 23.9 -29.4 23.9 -27.5 25.5 -26.85 25.95 -25.75 26.65 M1.2 0.1 L1.25 -3.45 1.5 -1.4 1.5 0.1 1.2 0.1 M14.6 -1.55 L13.1 -1.7 12.5 -2.1 Q12.45 -2.35 13.1 -2.5 L14.6 -2.7 16.2 -2.5 Q16.8 -2.35 16.8 -2.1 L16.2 -1.7 14.6 -1.55 M19.9 -3.05 L23.75 -3.05 23.75 -2.1 19.95 -2.1 19.9 -3.05 M12.05 0.25 L12.0 0.35 11.95 0.05 12.05 0.25 M24.2 29.65 L24.65 29.6 Q27.2 29.15 27.2 27.4 L29.25 27.15 23.6 31.05 24.2 29.65 M23.1 29.8 Q21.75 32.15 20.3 32.7 17.7 33.7 11.4 35.1 5.1 36.5 -7.9 34.05 -15.7 32.55 -21.3 28.45 -8.8 30.55 5.2 30.55 L23.1 29.8 M-32.7 -1.45 Q-33.4 -1.6 -34.5 0.0 L-35.1 0.75 -36.6 3.1 -37.7 4.85 Q-41.85 10.6 -41.85 11.6 -41.7 12.3 -41.25 12.3 -40.45 12.3 -36.55 5.65 L-36.5 5.6 -34.7 2.65 -34.2 1.9 -32.6 -1.15 -32.7 -1.45 M-9.9 -3.3 L-8.5 -3.1 Q-7.9 -2.95 -7.8 -2.7 L-8.5 -2.25 -10.0 -2.05 -11.5 -2.25 Q-12.1 -2.45 -12.1 -2.7 -12.1 -2.95 -11.4 -3.1 L-9.9 -3.3 M-28.65 -1.5 L-29.0 -0.8 -30.5 0.85 -30.85 1.35 -34.15 6.3 -34.5 6.9 -36.0 9.3 -37.1 10.9 Q-39.2 14.5 -39.2 16.15 -39.2 20.65 -34.5 20.45 -34.5 20.65 -34.0 20.7 L-32.8 18.5 -31.45 16.0 -30.9 14.95 -29.1 11.3 -28.3 9.5 -28.2 9.4 Q-25.45 3.25 -25.45 0.5 -25.45 -1.15 -27.0 -1.3 L-27.4 -1.75 Q-28.05 -2.4 -28.65 -1.5 M-9.9 0.25 L-9.9 0.0 -9.75 0.25 -9.9 0.25" fill="#8a8a8a" fill-rule="evenodd" stroke="none"/>
    <path d="M5.25 -8.25 L5.3 0.1 5.6 0.1 6.5 7.2 6.6 7.6 6.75 8.95 6.95 10.2 7.05 11.35 7.3 12.85 Q7.9 16.4 8.75 16.4 9.45 16.4 9.95 13.1 L10.05 12.2 10.05 11.85 10.2 10.7 10.3 8.45 10.2 5.55 Q9.9 3.4 10.3 -0.05 L10.4 -1.0 Q10.1 -2.55 10.1 -4.2 10.05 -5.5 13.3 -6.2 L19.85 -6.75 Q22.9 -6.75 23.75 -4.5 L24.1 -1.35 24.9 -0.3 25.55 0.6 26.75 2.35 26.85 2.45 27.5 3.45 28.0 4.4 29.45 7.2 30.1 8.15 31.1 9.35 32.5 10.5 32.75 10.7 33.1 10.1 Q33.1 8.5 29.8 3.25 L29.6 3.0 28.95 2.2 28.25 0.85 27.8 -0.45 27.7 -1.0 Q27.45 -1.7 27.5 -1.95 L27.6 -1.95 27.5 -2.5 29.75 -3.05 29.9 -1.8 31.4 -1.15 30.45 -10.7 34.0 -11.85 34.65 -3.45 Q34.25 -2.9 34.95 -0.6 L35.1 1.1 Q35.25 1.7 35.7 1.9 L35.8 1.7 37.3 5.2 37.8 5.85 38.8 7.2 40.05 9.3 40.35 9.85 41.45 11.55 42.4 12.65 Q44.0 14.4 44.5 15.5 45.0 16.55 45.0 18.2 45.0 19.6 44.15 20.2 L42.4 21.05 40.6 21.8 39.8 22.1 36.7 23.0 35.5 23.45 32.75 23.95 32.3 24.0 31.5 24.15 30.3 21.1 29.45 19.1 29.25 18.7 27.8 15.35 26.75 12.75 25.7 10.45 25.65 10.3 24.2 6.65 22.05 1.55 21.6 0.65 Q21.45 0.55 21.45 0.8 20.3 -0.85 19.7 -0.8 19.1 -0.75 18.8 -1.15 L22.35 10.95 22.8 12.6 23.6 16.05 23.9 17.15 24.1 18.15 24.35 19.0 25.25 23.35 25.7 25.75 25.8 25.9 25.8 26.0 25.95 27.05 26.0 27.25 Q26.0 28.25 24.65 28.55 L24.4 28.6 23.55 28.7 8.75 29.55 5.2 29.55 -1.2 29.45 -14.6 28.5 -22.8 27.25 -25.75 26.65 -26.85 25.95 -27.5 25.5 -29.4 23.9 -29.5 23.9 -29.9 23.45 -30.0 23.15 -29.95 22.85 -29.9 22.7 -29.2 19.95 -26.4 12.65 -25.75 10.9 -24.4 7.4 -23.35 4.9 -23.0 3.85 -21.8 0.8 -21.2 -0.55 -19.45 -0.35 -18.75 -0.35 -18.6 -0.25 -17.2 -0.05 -18.3 -0.2 -18.3 -0.05 -18.55 0.75 -18.6 1.15 -18.8 2.8 -19.05 5.1 Q-20.35 10.15 -20.35 11.9 L-20.35 12.1 Q-20.5 12.7 -19.9 12.8 L-19.75 12.8 Q-19.05 12.8 -16.35 6.1 -15.2 3.4 -14.8 1.05 L-14.55 -0.85 -14.55 -1.0 -14.35 -0.85 -14.25 -0.75 Q-14.55 -1.5 -15.85 -1.9 L-18.55 -2.8 -15.3 -2.8 -15.25 -4.1 -19.3 -4.1 -19.35 -2.8 -19.35 -3.1 -19.95 -3.4 -22.05 -4.6 -22.05 -4.7 Q-20.35 -8.7 -20.0 -8.65 L-11.9 -7.75 Q-9.25 -7.0 -7.3 -6.05 -6.4 -5.0 -6.1 -3.7 L-5.6 -0.3 -5.5 -0.35 -5.5 0.45 -5.4 1.95 -5.35 3.35 -5.1 4.8 -5.1 10.05 -4.8 13.9 Q-4.5 16.2 -3.55 16.2 -2.35 16.2 -1.5 5.0 L-1.3 0.65 -1.3 0.4 -1.6 0.55 Q-1.3 0.45 -1.15 0.2 L-1.1 0.05 -0.4 0.1 1.2 0.1 1.5 0.1 1.5 -1.4 1.25 -3.45 1.25 -8.85 5.25 -8.25 M34.9 -3.65 L36.45 -4.1 36.95 -4.25 37.3 -3.85 37.55 -3.6 40.7 0.95 42.45 3.85 45.65 9.4 45.5 9.75 45.15 10.05 Q43.7 10.05 42.15 7.65 L41.9 7.35 40.55 4.85 39.6 3.25 37.95 1.35 37.05 0.2 36.5 -0.5 35.8 -1.5 Q34.9 -2.85 34.9 -3.5 L34.9 -3.65 M14.6 -1.55 L16.2 -1.7 16.8 -2.1 Q16.8 -2.35 16.2 -2.5 L14.6 -2.7 13.1 -2.5 Q12.45 -2.35 12.5 -2.1 L13.1 -1.7 14.6 -1.55 M19.9 -3.05 L19.95 -2.1 23.75 -2.1 23.75 -3.05 19.9 -3.05 M-9.5 2.2 Q-11.65 2.2 -13.0 5.1 L-14.65 10.35 -16.5 16.8 -16.95 18.85 -17.55 20.65 -17.9 21.95 -18.15 22.95 -18.15 23.5 -18.1 23.6 -18.15 23.8 -17.85 24.25 -17.4 24.75 -14.6 25.55 -7.65 25.55 -6.25 24.5 Q-5.5 23.95 -4.65 23.95 L-1.95 25.55 0.75 26.1 2.9 26.6 6.5 26.6 8.55 25.2 Q10.05 24.1 10.6 24.1 L13.4 25.6 14.15 25.6 14.55 25.7 15.1 25.6 18.45 25.6 19.95 25.15 20.4 25.15 Q21.8 25.15 22.1 24.3 L22.2 23.1 21.65 20.2 20.9 17.55 20.5 16.2 20.15 15.05 19.35 12.55 18.95 11.25 18.8 10.6 17.5 5.25 Q17.25 3.5 16.35 2.15 15.05 0.2 13.5 2.75 L13.5 7.4 Q13.35 7.95 13.35 8.7 L13.1 10.6 13.0 12.1 13.0 12.45 12.9 13.15 12.65 14.5 12.0 16.9 Q10.95 19.95 9.1 19.95 7.0 19.95 5.9 16.85 L5.0 14.5 5.0 14.95 4.5 9.25 4.5 9.1 4.25 6.5 4.2 5.75 4.1 5.2 Q2.75 0.15 1.3 3.55 L0.9 4.75 0.35 7.0 0.0 8.7 -0.8 13.25 -1.15 16.1 -1.1 15.35 -1.35 16.45 -2.1 18.9 Q-2.65 20.45 -4.05 21.35 L-5.3 21.35 Q-5.95 20.15 -6.85 16.75 L-7.4 14.7 -7.65 12.4 Q-7.45 8.95 -7.6 6.6 -7.75 2.2 -9.5 2.2 M34.7 21.55 L34.9 21.55 35.25 21.45 37.95 20.9 40.1 19.8 40.55 19.5 Q41.6 18.65 41.9 18.0 L42.0 17.9 42.05 17.45 Q42.05 16.45 40.8 14.2 L39.6 12.35 38.45 10.7 37.25 9.1 Q35.2 6.5 34.9 7.4 L34.85 7.8 Q34.85 8.85 36.4 11.85 L36.65 12.3 36.1 13.15 35.4 14.35 Q34.6 14.35 33.4 13.55 L31.7 12.45 30.45 11.05 30.3 10.9 30.3 10.85 29.9 10.4 28.4 8.35 28.05 7.65 26.85 5.9 26.55 5.55 Q25.9 5.0 25.25 4.8 25.6 6.1 26.3 7.75 L26.8 8.9 26.9 9.15 28.05 11.35 29.0 13.15 30.4 15.9 31.05 17.3 31.1 17.4 31.6 18.25 32.1 19.1 33.7 21.5 34.7 21.55 M12.05 0.25 L11.95 0.05 12.0 0.35 12.05 0.25 M-32.7 -1.45 L-32.6 -1.15 -34.2 1.9 -34.7 2.65 -36.5 5.6 -36.55 5.65 Q-40.45 12.3 -41.25 12.3 -41.7 12.3 -41.85 11.6 -41.85 10.6 -37.7 4.85 L-36.6 3.1 -35.1 0.75 -34.5 0.0 Q-33.4 -1.6 -32.7 -1.45 M-28.65 -1.5 Q-28.05 -2.4 -27.4 -1.75 L-27.0 -1.3 Q-25.45 -1.15 -25.45 0.5 -25.45 3.25 -28.2 9.4 L-28.3 9.5 -29.1 11.3 -30.9 14.95 -31.45 16.0 -32.8 18.5 -34.0 20.7 Q-34.5 20.65 -34.5 20.45 -39.2 20.65 -39.2 16.15 -39.2 14.5 -37.1 10.9 L-36.0 9.3 -34.5 6.9 -34.15 6.3 -30.85 1.35 -30.5 0.85 -29.0 -0.8 -28.65 -1.5 M-9.9 -3.3 L-11.4 -3.1 Q-12.1 -2.95 -12.1 -2.7 -12.1 -2.45 -11.5 -2.25 L-10.0 -2.05 -8.5 -2.25 -7.8 -2.7 Q-7.9 -2.95 -8.5 -3.1 L-9.9 -3.3 M-9.9 0.25 L-9.75 0.25 -9.9 0.0 -9.9 0.25 M-30.5 7.4 Q-30.5 4.4 -33.45 8.9 L-33.9 9.7 -35.35 12.2 Q-36.4 14.25 -36.4 15.4 -36.4 16.0 -35.6 16.65 L-34.7 16.7 -34.0 16.1 Q-33.2 15.25 -32.5 13.85 L-31.65 11.9 Q-30.5 8.9 -30.5 7.4 M-20.35 18.45 Q-20.35 17.3 -21.1 16.1 -21.85 14.8 -22.05 13.3 L-22.1 10.65 Q-22.2 9.3 -23.1 10.2 -24.0 11.0 -24.15 11.7 -24.25 12.9 -24.85 14.9 L-25.9 17.75 -27.45 22.1 -27.4 22.45 -26.95 23.3 -26.35 23.75 Q-25.3 24.35 -23.1 24.35 -20.4 24.35 -20.3 23.25 L-20.7 21.55 -20.5 19.75 -20.35 18.45" fill="#b4b4b4" fill-rule="evenodd" stroke="none"/>
    <path d="M36.75 19.1 Q36.75 20.5 35.6 20.7 L35.25 20.7 Q34.3 20.7 33.1 18.2 L32.1 15.7 Q32.1 14.1 34.4 15.9 L34.5 15.95 Q36.75 17.75 36.75 19.1 M20.2 21.35 Q20.2 23.45 17.5 23.45 15.75 23.45 15.3 22.3 L15.2 22.1 14.85 19.4 14.85 14.65 14.9 14.0 14.9 12.95 14.85 11.45 14.8 10.45 15.0 8.2 Q15.2 7.25 15.75 7.9 L16.7 9.55 17.6 12.25 17.8 12.95 18.2 14.35 18.6 15.5 19.0 17.0 19.05 17.15 20.15 20.9 20.2 21.35 M5.4 22.9 L5.4 23.2 5.3 23.95 Q5.0 24.75 4.05 24.75 1.35 24.75 0.6 23.15 0.3 22.5 0.3 21.65 L0.7 15.9 Q0.45 13.5 0.6 12.35 0.75 10.25 2.75 11.4 5.4 21.05 5.4 22.9 M-9.6 5.2 L-9.6 13.15 Q-9.25 15.0 -8.85 20.6 L-8.85 21.4 -8.85 22.15 Q-9.15 23.55 -10.9 23.55 -13.6 23.55 -14.3 22.7 -14.5 22.45 -14.5 21.65 L-14.05 18.75 -12.8 12.9 Q-12.0 10.0 -11.95 8.45 L-11.4 5.65 Q-10.8 4.0 -9.6 5.2 M-22.3 18.1 L-22.4 20.3 Q-22.75 22.2 -23.95 22.2 -25.7 22.2 -25.5 21.05 -24.55 18.55 -24.5 18.05 -24.25 16.5 -23.6 16.45 L-23.2 16.55 Q-22.35 17.05 -22.3 17.95 L-22.3 18.1" fill="#ffffff" fill-rule="evenodd" stroke="none"/>
  </g>
</svg>
