<?xml version="1.0" encoding="UTF-8" standalone="no"?>
<svg xmlns:ffdec="https://www.free-decompiler.com/flash" xmlns:xlink="http://www.w3.org/1999/xlink" ffdec:objectType="shape" height="67.1px" width="73.15px" xmlns="http://www.w3.org/2000/svg">
  <g transform="matrix(1.0, 0.0, 0.0, 1.0, 36.55, 33.6)">
    <path d="M32.2 -25.25 Q31.65 -27.25 30.4 -28.85 M27.55 -31.4 L27.15 -31.7 27.1 -31.7 Q25.6 -32.6 23.85 -32.75 M20.15 -31.45 Q18.65 -30.35 17.6 -28.75 M5.1 -18.5 Q3.45 -19.25 1.55 -19.7 M11.1 -18.6 L9.35 -16.05 8.65 -16.55 M34.9 -2.35 Q35.85 -4.1 35.85 -6.25 M35.25 -10.5 Q35.85 -12.45 35.85 -14.4 M35.3 -18.35 L34.1 -21.15 34.1 -21.1 33.65 -21.9 M15.35 -25.2 L13.25 -21.9 M-15.45 -25.65 L-17.75 -28.95 M-27.7 -31.65 Q-29.45 -30.65 -30.5 -28.9 M-35.35 -18.0 Q-35.75 -16.55 -35.8 -14.9 L-35.7 -14.15 -34.95 -11.15 -35.3 -10.35 M-31.9 -25.1 L-32.3 -23.25 -33.7 -21.6 M-35.65 -6.4 L-35.5 -5.6 -35.5 -5.65 -34.45 -2.7 M-10.45 -20.0 L-11.35 -19.8 -13.15 -22.35 M-2.6 -20.65 L-3.2 -20.8 -4.25 -20.9 -6.55 -20.65 M-20.1 -31.75 Q-21.65 -32.9 -23.8 -32.85 M-32.85 0.65 L-34.05 3.25 -34.1 3.45 -34.25 4.25 M-33.35 8.15 Q-32.45 9.9 -30.85 11.25 M-27.75 13.35 L-25.85 16.65 M-23.3 19.75 L-20.35 22.3 M-6.55 31.9 L-3.85 30.8 -3.9 30.8 -2.85 30.2 M-19.65 25.85 Q-19.2 27.7 -17.8 29.3 M-14.6 31.85 Q-12.8 32.7 -10.75 32.5 M29.9 3.3 L30.5 2.6 30.6 2.5 31.35 1.2 32.3 0.55 M23.45 8.6 Q25.25 7.7 26.85 6.4 M17.2 12.6 L17.8 10.45 19.75 10.05 M13.6 19.25 L13.4 18.95 13.4 18.9 13.25 18.6 15.4 16.15 M0.95 31.7 L4.45 32.65 4.55 32.65 5.0 32.75 M8.95 32.6 Q10.9 32.1 12.25 30.55 M14.25 27.1 Q14.95 25.1 14.8 23.15" fill="none" stroke="#5fc5c9" stroke-linecap="round" stroke-linejoin="round" stroke-width="1.5"/>
  </g>
</svg>
