<?xml version="1.0" encoding="UTF-8" standalone="no"?>
<svg xmlns:ffdec="https://www.free-decompiler.com/flash" xmlns:xlink="http://www.w3.org/1999/xlink" ffdec:objectType="shape" height="55.8px" width="66.5px" xmlns="http://www.w3.org/2000/svg">
  <g transform="matrix(1.0, 0.0, 0.0, 1.0, 33.3, 27.95)">
    <path d="M-24.5 -12.1 L-19.7 -13.9 Q-19.55 -15.15 -18.7 -16.25 -18.05 -17.0 -17.1 -17.0 -15.95 -16.95 -15.25 -17.45 L-13.55 -19.75 Q-12.6 -21.05 -10.35 -21.3 L-9.1 -21.3 Q-8.65 -21.35 -8.4 -21.65 -7.65 -22.6 -7.45 -23.4 L-7.3 -24.3 Q-5.9 -26.3 -4.75 -26.6 L-0.2 -26.75 2.3 -26.55 4.35 -26.05 6.05 -25.1 6.85 -23.95 8.25 -21.95 Q8.95 -21.15 9.95 -21.0 L11.0 -20.35 12.05 -19.55 Q12.3 -19.3 13.25 -19.15 L14.5 -18.9 15.55 -18.1 16.55 -17.2 Q18.65 -15.9 19.75 -14.55 20.85 -13.25 22.5 -12.8 L25.6 -11.2 Q26.75 -10.65 28.3 -10.7 29.75 -10.35 30.85 -8.85 32.0 -7.35 32.0 -5.95 L31.95 -3.75 Q31.85 -2.95 31.0 -1.75 30.15 -0.6 28.1 -0.9 29.4 1.7 30.65 3.25 31.25 4.25 31.25 7.5 L30.95 9.3 30.65 11.4 Q30.6 12.25 31.15 13.65 31.75 15.1 31.75 17.2 31.75 21.7 30.45 24.05 29.85 25.25 27.8 26.35 26.4 26.6 4.55 26.65 -25.55 26.65 -26.95 26.45 -29.75 26.05 -30.3 24.55 -30.6 23.85 -30.6 20.05 -30.6 19.55 -30.2 19.1 -29.85 18.6 -29.85 18.1 -29.85 17.4 -30.75 16.35 -31.7 15.25 -31.9 14.3 L-32.15 10.55 -32.25 6.8 Q-31.95 3.35 -30.8 2.5 -29.7 1.65 -29.2 0.8 L-28.7 -0.5 Q-30.15 -1.45 -31.15 -3.05 -32.2 -4.65 -32.2 -6.05 L-31.9 -7.8 Q-31.5 -9.5 -31.1 -9.5 L-30.65 -10.45 Q-29.9 -11.5 -28.0 -11.7 L-25.7 -11.9 -24.5 -12.1" fill="#ffffff" fill-rule="evenodd" stroke="none"/>
    <path d="M-24.5 -12.1 L-25.7 -11.9 -28.0 -11.7 Q-29.9 -11.5 -30.65 -10.45 L-31.1 -9.5 Q-31.5 -9.5 -31.9 -7.8 L-32.2 -6.05 Q-32.2 -4.65 -31.15 -3.05 -30.15 -1.45 -28.7 -0.5 L-29.2 0.8 Q-29.7 1.65 -30.8 2.5 -31.95 3.35 -32.25 6.8 L-32.15 10.55 -31.9 14.3 Q-31.7 15.25 -30.75 16.35 -29.85 17.4 -29.85 18.1 -29.85 18.6 -30.2 19.1 -30.6 19.55 -30.6 20.05 -30.6 23.85 -30.3 24.55 -29.75 26.05 -26.95 26.45 -25.55 26.65 4.55 26.65 26.4 26.6 27.8 26.35 29.85 25.25 30.45 24.05 31.75 21.7 31.75 17.2 31.75 15.1 31.15 13.65 30.6 12.25 30.65 11.4 L30.95 9.3 31.25 7.5 Q31.25 4.25 30.65 3.25 29.4 1.7 28.1 -0.9 30.15 -0.6 31.0 -1.75 31.85 -2.95 31.95 -3.75 L32.0 -5.95 Q32.0 -7.35 30.85 -8.85 29.75 -10.35 28.3 -10.7 26.75 -10.65 25.6 -11.2 L22.5 -12.8 Q20.85 -13.25 19.75 -14.55 18.65 -15.9 16.55 -17.2 L15.55 -18.1 14.5 -18.9 13.25 -19.15 Q12.3 -19.3 12.05 -19.55 L11.0 -20.35 9.95 -21.0 Q8.95 -21.15 8.25 -21.95 L6.85 -23.95 6.05 -25.1 4.35 -26.05 2.3 -26.55 -0.2 -26.75 -4.75 -26.6 Q-5.9 -26.3 -7.3 -24.3 L-7.45 -23.4 Q-7.65 -22.6 -8.4 -21.65 -8.65 -21.35 -9.1 -21.3 L-10.35 -21.3 Q-12.6 -21.05 -13.55 -19.75 L-15.25 -17.45 Q-15.95 -16.95 -17.1 -17.0 -18.05 -17.0 -18.7 -16.25 -19.55 -15.15 -19.7 -13.9 L-24.5 -12.1 M-29.75 -12.0 L-29.8 -12.0 -24.65 -13.1 -20.6 -14.6 Q-19.85 -18.0 -16.35 -17.95 L-16.25 -18.1 Q-13.8 -22.3 -9.25 -22.4 L-8.2 -24.7 -8.15 -24.8 Q-7.1 -26.5 -5.6 -27.05 L-5.5 -27.1 Q-2.35 -28.0 1.3 -27.95 5.5 -27.8 7.65 -24.4 L9.05 -22.85 9.0 -22.85 Q10.15 -21.85 11.5 -21.05 11.85 -20.8 12.25 -20.7 L12.3 -20.7 Q15.15 -20.05 17.2 -18.0 20.6 -14.65 24.85 -12.75 L24.9 -12.75 26.45 -12.25 Q29.1 -11.9 30.95 -10.15 33.6 -7.55 33.1 -3.95 32.6 -0.4 29.75 0.1 L31.3 2.9 Q32.45 5.15 32.0 7.7 31.45 10.55 32.2 13.35 33.1 16.8 32.75 20.45 32.4 23.75 30.1 25.85 29.15 26.7 28.1 27.05 L27.9 27.1 19.85 27.75 Q-4.2 28.05 -28.2 27.2 L-28.7 27.05 Q-29.8 26.4 -30.3 25.5 L-30.3 25.55 Q-32.55 21.9 -30.95 18.2 -34.35 12.25 -32.85 5.15 -32.55 3.75 -31.7 2.75 -30.55 1.4 -29.9 -0.15 -34.9 -4.25 -32.25 -10.0 -31.5 -11.6 -29.75 -12.0" fill="#c6c6c6" fill-rule="evenodd" stroke="none"/>
    <path d="M26.85 12.6 Q27.8 13.6 28.2 14.6 28.75 15.95 28.75 17.8 28.75 20.95 27.9 22.4 27.1 23.65 25.6 23.65 L25.0 23.6 24.3 23.45 23.75 23.35 23.4 23.35 20.55 23.2 Q20.15 22.9 19.8 22.9 19.7 22.9 19.6 23.05 L19.45 23.3 16.85 23.5 14.1 23.3 13.95 23.1 Q13.85 22.9 13.4 22.8 L13.05 23.25 Q12.95 23.35 12.8 23.4 L4.8 23.5 4.7 23.5 -3.3 23.45 -3.65 23.25 -3.9 23.1 -4.55 23.35 -5.6 23.55 Q-6.85 23.55 -7.25 23.05 L-7.4 23.2 -7.4 23.35 -10.2 23.5 -12.5 23.45 -12.8 23.3 -13.15 22.9 -13.25 22.55 -14.75 23.35 -16.7 23.65 -17.25 23.65 -18.05 23.45 -18.9 23.15 -19.4 22.75 -19.45 22.55 -19.65 22.45 -19.8 22.35 -19.95 22.05 Q-20.25 22.75 -21.3 23.1 L-24.4 23.35 -26.15 23.45 -27.1 23.25 -27.45 22.3 -27.6 20.05 -27.55 17.65 -27.25 17.1 -26.95 16.95 -26.65 16.8 -26.65 14.1 -28.4 14.0 -28.7 13.95 -29.0 13.6 -29.2 9.3 -29.25 6.3 -29.0 4.9 Q-28.75 4.55 -27.95 4.55 L-25.55 4.55 -26.45 3.6 -26.75 2.65 Q-26.75 1.7 -26.15 1.05 -25.55 0.35 -24.7 0.25 L-25.3 -0.55 -25.55 -1.5 -24.95 -3.2 Q-27.35 -2.8 -28.45 -4.0 -29.2 -4.8 -29.2 -6.05 -29.2 -7.0 -28.65 -7.8 -27.95 -8.85 -26.65 -8.85 L-24.15 -8.8 -23.35 -9.4 -22.8 -9.65 -21.65 -10.0 -20.8 -10.2 -20.0 -10.95 Q-19.5 -11.5 -18.85 -11.5 L-18.35 -11.4 -17.8 -11.3 -17.95 -12.05 -17.7 -13.1 Q-17.05 -14.4 -15.55 -14.4 L-15.1 -14.4 Q-14.65 -14.35 -14.5 -14.15 -14.5 -15.35 -13.85 -16.05 -13.05 -16.9 -11.5 -16.65 L-11.35 -17.6 Q-11.05 -18.3 -10.3 -18.3 L-9.9 -18.2 -9.5 -18.1 -9.15 -18.3 -8.2 -18.45 -7.2 -18.1 Q-6.6 -17.85 -6.55 -17.6 L-5.55 -20.75 -4.85 -22.6 Q-4.4 -23.25 -3.45 -23.5 L-0.2 -23.75 Q2.4 -23.75 3.4 -23.1 5.05 -22.05 5.25 -18.9 L9.1 -18.1 Q9.85 -17.7 10.3 -16.25 L11.8 -16.75 Q12.8 -16.75 13.55 -15.9 14.25 -15.1 14.1 -14.35 L14.45 -14.3 15.15 -14.4 Q16.15 -14.4 16.85 -13.75 17.55 -13.05 17.55 -12.05 L17.4 -11.3 17.9 -11.4 18.4 -11.5 19.15 -11.3 19.85 -10.85 20.4 -10.2 22.1 -9.75 Q23.25 -9.4 23.8 -8.7 L24.95 -6.95 26.75 -6.95 27.15 -7.45 27.7 -7.6 28.5 -7.3 28.75 -6.55 28.6 -4.25 Q28.4 -3.8 27.7 -3.8 L27.15 -4.0 26.95 -4.25 26.75 -4.45 25.3 -4.25 24.3 -4.35 23.4 -4.5 Q23.6 -4.0 24.5 -3.2 25.2 -2.55 25.2 -1.65 L24.95 -0.85 Q24.7 -0.1 24.25 0.25 25.35 0.45 25.9 1.2 26.35 1.85 26.35 2.65 L26.1 3.6 25.2 4.55 26.9 4.7 27.8 4.65 Q28.15 4.8 28.2 5.55 L28.25 8.6 28.25 11.75 28.0 12.3 27.65 12.55 26.85 12.6 M12.45 -16.15 L11.65 -16.3 11.2 -16.2 10.55 -15.85 10.75 -15.05 11.25 -15.05 11.75 -14.95 11.35 -14.2 10.95 -14.25 10.75 -14.25 10.65 -13.85 11.1 -13.8 10.75 -13.1 10.45 -13.1 10.05 -12.8 10.4 -12.5 10.2 -12.1 9.6 -12.2 Q9.35 -12.15 8.85 -11.7 L9.15 -11.75 9.95 -11.65 9.6 -11.05 9.15 -11.1 Q8.6 -11.05 8.55 -10.75 L8.9 -10.6 9.3 -10.45 9.35 -10.45 9.0 -9.95 8.5 -10.05 8.15 -9.6 8.75 -9.5 7.65 -7.35 7.85 -7.35 9.55 -10.3 9.95 -10.0 10.3 -9.75 10.45 -9.9 10.05 -10.7 9.85 -10.85 10.3 -11.65 10.5 -11.1 10.9 -10.45 11.05 -10.65 10.8 -11.5 10.5 -11.95 10.75 -12.35 Q11.1 -12.35 11.4 -11.95 L11.05 -12.85 11.0 -12.85 11.4 -13.6 12.15 -12.35 12.2 -12.55 12.2 -12.7 Q12.3 -13.05 12.0 -13.55 L11.65 -14.05 12.05 -14.75 12.6 -14.05 12.95 -13.0 Q13.65 -13.8 13.65 -14.45 L13.5 -15.0 13.35 -15.4 12.85 -15.9 12.45 -16.15 M11.4 -12.55 L11.1 -12.85 Q11.8 -11.85 11.4 -12.55 M14.95 -13.95 L14.1 -13.65 13.3 -12.7 13.55 -12.85 14.3 -12.9 14.75 -12.85 15.3 -12.6 14.8 -12.0 14.1 -12.1 13.6 -12.0 13.05 -11.75 13.25 -11.75 13.85 -11.75 14.45 -11.6 14.0 -10.95 13.35 -11.15 12.85 -11.1 12.3 -11.05 12.55 -11.0 Q13.1 -10.95 13.6 -10.45 L13.25 -10.1 12.55 -10.25 Q12.15 -10.25 11.5 -9.9 L11.75 -9.9 12.35 -9.85 13.0 -9.75 12.85 -9.5 13.4 -10.0 14.7 -11.4 14.95 -10.85 15.15 -10.3 15.4 -10.6 15.25 -11.2 15.05 -11.75 15.55 -12.35 Q15.95 -12.1 16.15 -10.4 16.4 -10.4 16.55 -10.55 L16.9 -11.2 17.05 -11.75 17.1 -12.1 17.05 -12.35 16.95 -12.8 16.55 -13.4 16.2 -13.65 15.4 -13.95 14.95 -13.95 M0.2 -18.65 L1.7 -18.45 2.6 -18.45 3.85 -18.65 4.5 -18.7 Q4.7 -18.8 4.7 -19.5 4.7 -21.4 3.0 -22.45 1.6 -23.35 -0.9 -23.35 L-3.75 -22.85 Q-4.85 -22.2 -5.3 -20.95 L-5.85 -18.55 -5.6 -18.65 -2.6 -18.85 0.2 -18.65 M-1.9 -17.5 L0.05 -17.65 1.55 -18.1 -0.2 -18.4 -2.0 -18.5 -3.15 -18.55 -4.7 -18.45 -5.75 -18.25 -6.15 -17.85 -6.3 -17.2 -5.85 -17.3 -4.15 -17.55 -1.9 -17.5 M-2.85 -14.0 L-2.3 -13.8 -1.85 -13.65 Q-0.8 -13.65 -0.4 -13.95 0.05 -14.3 0.5 -15.6 L0.5 -15.65 0.4 -15.65 -1.25 -15.05 -5.3 -14.5 -5.1 -13.95 -4.5 -14.15 -3.75 -13.95 -2.85 -14.0 M1.95 -15.95 Q1.55 -15.95 1.0 -15.25 L0.4 -14.25 -0.55 -13.6 -1.65 -13.45 -1.5 -13.15 -1.35 -13.0 Q-0.25 -13.0 0.3 -13.35 L1.35 -14.3 2.45 -14.65 3.2 -14.65 3.4 -14.85 3.4 -15.35 Q3.15 -15.95 1.95 -15.95 M2.3 -14.5 L1.9 -14.4 1.1 -13.8 1.85 -13.65 2.1 -13.1 1.85 -12.6 Q1.7 -12.4 1.35 -12.4 L0.8 -12.65 Q0.5 -12.9 0.7 -13.3 L0.75 -13.45 0.3 -13.15 0.65 -12.45 Q1.0 -12.0 1.4 -12.0 1.95 -12.0 2.25 -12.55 L2.55 -13.55 2.3 -14.5 M3.65 -15.7 L3.75 -15.15 3.5 -14.4 3.2 -13.4 3.0 -12.75 2.65 -12.0 2.2 -11.75 1.5 -11.4 1.5 -11.35 2.2 -10.8 2.45 -10.7 1.2 -11.05 0.35 -11.4 0.3 -11.4 Q1.4 -10.7 1.6 -9.65 L1.8 -9.15 2.35 -8.95 Q3.7 -8.95 4.75 -10.65 5.65 -12.1 5.65 -13.4 L5.4 -14.5 5.05 -15.2 5.0 -15.2 4.85 -14.25 4.55 -15.1 Q4.35 -15.7 3.65 -15.7 M-2.8 -16.3 L-3.8 -16.1 -5.1 -16.05 -8.55 -16.3 Q-10.8 -16.7 -10.8 -17.25 L-10.55 -17.65 -10.05 -17.95 -10.25 -17.95 -11.0 -17.75 -11.25 -17.15 Q-11.25 -16.35 -8.6 -16.05 L-5.85 -15.95 -0.45 -16.6 4.05 -17.25 Q5.9 -17.25 7.25 -16.3 8.85 -15.25 8.85 -13.45 L8.6 -12.6 8.25 -11.9 Q8.85 -12.0 9.8 -13.45 L10.05 -14.1 10.15 -14.9 Q10.15 -16.5 8.6 -17.5 7.15 -18.45 5.0 -18.45 3.65 -18.45 1.3 -17.65 L-2.8 -16.3 M9.3 -9.8 L9.15 -9.3 9.35 -9.0 9.5 -8.75 9.75 -9.05 9.3 -9.8 M6.3 -11.15 L6.2 -11.0 6.1 -10.7 6.95 -9.75 7.05 -9.55 6.85 -10.55 6.3 -11.15 M7.45 -11.4 L7.25 -11.3 7.6 -10.9 7.45 -11.4 M-2.9 -11.9 L-2.1 -12.0 -2.1 -11.8 -1.15 -10.9 -0.3 -10.05 0.3 -9.85 0.65 -9.55 -0.15 -7.85 Q-0.95 -5.95 -0.95 -5.1 L-0.8 -4.35 -0.45 -4.15 0.4 -4.65 0.45 -4.6 1.0 -4.15 1.45 -3.8 1.85 -3.8 2.1 -3.95 2.15 -4.15 1.7 -4.85 Q1.25 -5.55 1.15 -6.3 L1.2 -8.2 1.25 -9.5 Q1.25 -10.3 0.4 -10.9 L-1.45 -11.9 -1.6 -12.15 -1.95 -12.85 -2.7 -13.55 -3.15 -13.5 -3.85 -13.45 -4.35 -13.65 -4.85 -13.5 -5.1 -13.2 -4.9 -12.5 -4.25 -12.35 -4.0 -12.4 -3.95 -12.6 -3.65 -12.1 -4.85 -12.25 -6.9 -10.5 -7.55 -9.95 -7.9 -8.75 -7.8 -7.95 -7.8 -7.4 -7.7 -6.75 -6.35 -7.85 Q-5.15 -8.65 -4.25 -8.55 L-2.2 -8.75 0.35 -9.2 0.45 -9.55 0.25 -9.7 -0.25 -9.9 Q-0.4 -10.0 -0.75 -10.25 L-1.15 -10.7 -1.45 -11.1 -2.0 -11.4 -2.9 -11.9 M14.35 -5.8 L13.9 -6.5 12.1 -6.55 5.6 -6.8 3.0 -7.05 2.55 -7.1 2.65 -5.35 Q2.75 -4.6 8.45 -4.85 L15.85 -5.1 18.5 -5.15 18.85 -5.15 18.25 -5.8 17.85 -6.3 17.3 -6.4 17.1 -6.35 16.8 -6.15 16.2 -5.8 15.35 -5.4 Q15.1 -5.25 15.05 -5.25 14.65 -5.25 14.35 -5.8 M-0.55 -3.7 L-1.05 -3.9 -1.25 -4.45 -1.35 -5.0 -1.35 -5.55 -1.4 -5.9 -1.55 -5.95 -2.6 -4.85 -2.8 -3.2 -2.7 -3.2 -2.35 -3.15 -2.2 -2.5 -2.55 -2.85 -2.95 -2.45 -3.15 -1.5 -1.15 -0.25 0.15 0.5 0.8 -0.2 1.45 -0.1 2.15 -1.25 2.75 -1.5 2.55 -2.25 2.5 -2.1 2.3 -2.1 1.95 -2.25 1.7 -2.35 Q1.7 -1.95 1.25 -1.7 L1.15 -1.75 1.45 -2.25 1.7 -2.7 2.0 -2.6 2.25 -2.55 2.45 -2.6 2.45 -2.85 2.4 -3.25 2.35 -3.5 1.85 -3.35 1.45 -3.3 Q1.35 -3.3 0.95 -3.55 0.5 -3.8 0.4 -4.0 L-0.1 -3.8 -0.55 -3.7 M5.4 4.45 L5.6 4.6 Q5.9 4.35 6.3 4.25 L6.95 4.2 6.8 3.7 7.15 4.05 7.5 4.4 7.85 4.3 8.2 4.2 8.9 4.3 9.7 4.4 Q9.1 1.3 9.1 0.0 L9.35 -1.95 9.7 -3.0 9.2 -3.05 6.25 -2.1 Q5.9 -0.8 6.15 0.4 L6.0 0.5 5.55 -1.1 5.5 -2.1 4.25 -2.65 4.4 -1.9 Q4.4 -1.0 3.5 0.05 L0.1 3.5 0.1 4.2 0.5 4.2 1.95 4.25 2.9 4.2 3.3 4.2 3.6 4.25 4.0 4.25 4.45 4.2 4.9 4.25 5.4 4.45 M4.1 -2.0 L4.0 -2.6 Q3.75 -3.05 3.25 -3.05 L3.1 -3.05 3.0 -2.95 3.0 -2.75 3.15 -2.45 3.35 -2.0 3.35 -1.6 3.25 -1.2 2.9 -0.75 -0.2 2.2 Q-1.05 0.65 -2.15 0.05 L-2.95 -0.45 -3.65 -1.2 -3.75 -1.7 -3.75 -2.0 -3.4 -2.75 -3.65 -3.05 Q-4.1 -3.05 -4.35 -2.55 L-4.5 -2.0 -4.45 -1.4 -4.35 -0.95 -3.7 -0.25 -0.2 3.2 2.65 0.6 4.0 -1.15 4.1 -2.0 M9.7 -2.3 L9.45 -1.35 9.35 0.35 9.5 1.85 9.8 3.9 10.55 5.85 Q11.3 7.55 12.0 7.75 L12.3 7.7 12.45 7.6 12.2 7.65 11.5 7.2 10.85 6.35 10.3 5.0 9.95 3.8 Q9.55 2.05 9.55 0.4 9.55 -1.35 9.95 -2.25 L10.3 -2.85 10.75 -3.0 10.85 -3.05 10.6 -3.05 10.2 -2.9 9.7 -2.3 M18.85 -10.95 L18.4 -11.05 17.45 -10.8 16.9 -10.45 18.3 -10.45 18.45 -10.45 19.35 -10.35 19.8 -10.25 19.55 -10.55 19.2 -10.75 18.85 -10.95 M23.5 -8.2 L22.4 -9.25 21.0 -9.7 19.95 -9.9 17.8 -9.95 14.45 -9.65 Q12.85 -9.3 12.85 -8.75 L13.5 -7.75 15.0 -5.75 16.5 -6.6 17.35 -7.0 17.3 -7.0 17.05 -7.05 16.5 -7.0 16.05 -6.9 15.9 -7.0 15.9 -7.05 16.35 -7.3 16.7 -7.35 Q17.3 -7.35 18.0 -6.75 L19.3 -5.45 Q21.1 -3.6 22.5 -3.65 L23.4 -3.55 23.1 -4.1 22.8 -4.75 22.4 -5.8 21.6 -7.75 21.65 -7.95 Q22.05 -7.8 22.45 -7.05 L23.05 -5.85 Q23.4 -5.1 23.65 -5.05 L25.55 -4.75 26.4 -4.85 Q24.9 -6.05 24.1 -7.2 L23.5 -8.2 M13.85 -10.25 L14.2 -10.15 14.55 -10.2 14.25 -10.8 13.85 -10.25 M11.45 -7.75 L11.0 -7.25 11.25 -7.2 12.45 -8.6 12.55 -9.15 12.5 -9.1 12.1 -9.25 11.7 -9.25 10.8 -9.15 11.0 -9.15 11.65 -8.95 12.05 -8.6 12.15 -8.65 11.75 -8.15 11.05 -8.3 10.55 -8.2 9.95 -7.95 10.15 -7.95 10.9 -7.9 11.45 -7.75 M11.95 -7.2 L12.3 -7.15 11.95 -7.95 11.75 -7.5 11.95 -7.2 M17.15 -3.55 L17.1 -3.15 17.2 -2.6 16.85 -2.55 16.4 -2.7 15.8 -2.95 16.0 -2.0 16.55 -1.6 17.15 -0.9 17.2 -0.65 15.4 -1.85 Q14.15 -2.45 12.9 -2.45 L11.1 -2.25 10.15 -1.85 9.9 -1.05 9.8 0.45 Q9.8 2.3 10.1 3.55 10.65 5.9 12.3 7.05 12.3 6.7 12.45 6.4 L12.65 5.7 14.1 6.3 15.6 6.6 16.75 6.45 18.05 6.1 16.8 3.35 17.8 3.7 19.25 3.95 20.65 3.6 22.2 3.0 22.25 2.95 21.05 1.8 Q20.35 1.05 19.95 0.15 L20.15 0.35 22.2 0.05 19.05 -2.1 17.15 -3.55 M26.65 -5.9 L26.7 -5.9 26.7 -6.3 25.5 -6.3 25.9 -5.9 26.65 -5.2 26.65 -5.9 M28.15 -5.45 L28.05 -6.8 27.7 -7.0 Q27.35 -7.0 27.3 -6.45 L27.3 -5.3 Q27.2 -4.75 27.45 -4.5 L27.7 -4.45 Q27.95 -4.45 28.05 -4.6 L28.15 -5.45 M23.45 -3.05 L21.95 -3.3 21.65 -3.2 21.5 -3.1 21.85 -3.05 23.2 -2.0 22.4 -1.7 21.65 -2.25 21.15 -2.45 21.25 -2.15 21.95 -1.5 21.7 -1.4 21.9 -1.15 22.1 -1.2 Q22.1 -0.95 22.45 -0.55 L22.5 -0.8 22.5 -1.4 23.25 -1.65 23.25 -1.25 23.05 -0.4 22.7 0.45 24.0 -0.1 24.6 -0.9 24.7 -1.3 24.65 -2.0 24.5 -2.45 24.0 -3.05 23.45 -3.05 M25.9 2.5 L25.75 2.05 25.4 1.3 25.05 1.0 24.45 0.8 24.0 0.7 23.4 0.75 23.0 0.85 24.05 1.55 24.4 2.25 23.6 2.4 22.95 1.7 Q22.65 1.45 22.1 1.35 L22.3 1.55 22.7 2.0 23.1 2.5 22.55 2.6 22.8 2.9 23.15 2.8 23.0 3.55 22.8 4.1 23.3 3.6 23.65 2.75 24.45 2.6 24.3 3.4 23.75 4.3 24.25 4.45 25.1 4.2 25.55 3.6 25.75 3.2 25.9 2.5 M19.65 13.6 L20.75 13.6 21.0 13.5 21.15 12.8 Q21.65 14.1 23.2 14.95 L24.15 15.6 Q24.55 16.0 24.55 16.7 L24.3 17.3 Q24.0 17.0 24.0 16.6 L24.0 16.0 Q24.0 15.45 22.4 15.45 L21.35 15.4 Q21.0 15.45 20.9 15.7 L20.8 19.15 Q20.8 22.4 20.95 22.7 21.05 22.9 21.4 22.9 L22.4 22.85 23.7 22.75 23.75 22.65 23.85 22.6 24.25 22.8 24.8 23.05 25.55 23.15 Q27.1 23.15 27.7 21.6 28.25 20.3 28.25 17.75 28.25 15.0 27.35 13.9 L26.35 13.05 25.1 12.05 26.75 12.0 27.55 12.1 27.75 11.35 27.75 8.6 27.5 5.2 Q27.4 5.05 27.05 5.05 L26.15 5.15 24.75 5.2 24.7 5.3 24.35 5.15 24.0 4.9 23.35 4.85 Q22.05 4.85 21.4 5.85 20.75 6.95 20.6 9.35 L16.7 9.35 Q13.05 9.3 12.8 9.4 L12.8 9.5 12.6 9.55 12.5 9.5 12.45 9.4 8.85 9.35 6.95 9.45 5.15 9.55 5.05 9.7 4.7 9.4 0.7 9.35 0.7 9.4 0.65 9.35 -1.25 9.3 -3.3 9.4 -3.55 9.55 -3.7 9.8 -3.7 11.5 -3.65 12.5 -3.6 13.4 -3.45 13.55 -2.9 13.6 -2.9 18.5 -3.2 18.5 -3.4 17.4 -4.1 17.2 -4.65 17.2 -4.85 17.4 -4.95 16.6 Q-5.2 16.05 -5.5 16.0 -5.05 15.85 -4.7 15.05 -4.4 14.25 -4.4 13.2 L-4.75 11.0 -5.1 10.35 -5.3 10.2 Q-6.0 9.55 -6.6 9.55 L-10.3 9.35 -11.4 9.4 -12.45 9.45 -12.6 9.55 -12.7 9.5 -12.8 9.4 -13.3 9.4 -16.15 9.35 -20.2 9.35 Q-20.5 7.95 -20.3 6.7 L-20.15 5.45 Q-20.2 5.15 -21.05 5.1 L-24.45 5.15 -27.3 5.05 -28.5 5.25 Q-28.75 5.5 -28.7 6.45 L-28.65 9.3 -28.55 13.35 -28.4 13.5 -27.95 13.5 -27.4 13.55 -26.55 13.5 -26.2 13.25 -26.1 10.45 -26.1 17.3 -26.65 17.35 -26.95 17.55 -27.0 20.05 -27.05 21.9 -26.85 22.7 Q-26.7 22.9 -26.15 22.9 L-24.5 22.85 -22.7 22.85 -22.0 22.6 Q-21.85 22.4 -21.85 21.8 L-21.9 20.1 -22.0 17.55 -22.15 17.4 -22.7 17.3 -22.7 13.15 Q-22.55 13.55 -22.2 13.55 L-20.7 13.6 -20.0 13.6 -19.95 20.65 -19.75 21.3 -19.15 22.3 Q-18.5 23.15 -16.45 23.15 L-14.95 22.8 -13.9 22.2 -13.4 21.1 -13.3 20.05 -13.3 13.6 -12.85 13.55 -12.6 13.5 -12.35 13.55 -11.9 13.6 -11.9 18.5 -12.35 18.6 -12.6 18.6 -12.7 20.75 -12.7 22.2 -12.45 22.85 -11.75 22.95 -10.15 22.9 -7.6 22.7 -7.7 22.35 -7.6 21.7 Q-7.3 22.55 -6.65 22.85 L-5.3 23.0 Q-4.5 23.0 -3.85 22.3 L-3.7 22.05 -3.65 22.65 -3.45 22.85 0.8 22.9 4.85 22.9 4.95 22.85 5.15 22.75 5.3 22.85 5.4 22.9 8.95 22.9 11.7 22.9 12.85 22.7 13.05 21.8 12.9 19.8 Q12.9 16.7 12.65 16.65 L12.2 16.8 11.25 16.7 11.25 15.45 12.25 15.4 12.65 15.35 12.75 14.9 12.8 13.6 13.35 13.6 15.15 17.0 15.15 18.5 14.45 18.65 14.3 18.95 14.25 20.75 14.3 22.2 14.5 22.85 15.3 22.95 16.85 22.9 18.6 22.9 Q19.15 22.9 19.3 22.7 L19.45 22.05 19.4 20.75 19.35 19.7 19.3 18.75 19.15 18.6 18.6 18.5 18.6 15.75 19.65 13.6 M4.35 6.95 L4.35 5.9 4.55 5.75 4.7 5.75 4.75 5.8 4.75 7.0 4.7 7.3 4.55 7.5 4.4 7.25 4.35 6.95 M5.45 6.65 L5.4 5.25 4.7 4.75 Q3.95 4.8 3.8 5.1 3.6 5.4 3.6 6.6 3.6 7.75 3.75 8.05 3.95 8.55 4.55 8.55 L5.3 8.15 5.45 6.65 M3.4 5.75 L3.4 4.8 2.55 4.8 2.55 5.75 2.75 5.75 2.55 7.15 2.3 5.75 2.45 5.75 2.45 4.8 1.55 4.8 1.6 5.6 1.7 5.75 1.45 7.2 1.25 5.75 1.4 5.75 1.4 4.8 0.4 4.8 0.4 5.75 0.65 5.75 1.1 8.5 1.7 8.5 1.95 6.95 2.2 8.5 2.75 8.5 3.2 5.75 3.4 5.75 M8.75 5.75 L9.15 5.75 9.2 6.65 9.15 7.4 8.75 7.5 8.75 5.75 M9.9 6.65 L9.8 5.25 9.65 5.0 9.1 4.8 8.5 4.55 8.15 4.4 Q7.9 4.4 7.9 5.75 L8.15 5.75 8.15 7.5 7.9 7.5 7.9 8.5 9.0 8.5 9.7 8.2 Q9.9 7.95 9.9 6.65 M7.6 6.7 L7.55 5.3 Q7.45 4.8 7.0 4.8 6.2 4.55 5.95 5.05 L5.75 6.65 5.85 7.95 Q6.0 8.55 6.75 8.55 7.3 8.55 7.45 8.15 L7.6 6.7 M6.9 6.0 L6.85 7.4 6.7 7.5 6.5 7.3 6.45 6.6 6.5 6.05 6.7 5.75 6.85 5.75 6.85 5.8 6.9 6.0 M-1.35 5.75 L-1.05 5.75 -1.05 7.5 -1.3 7.5 -1.3 8.5 -0.2 8.5 -0.2 7.5 -0.4 7.5 -0.4 5.75 -0.05 5.75 -0.05 6.4 0.3 6.4 0.3 4.8 -1.75 4.8 -1.75 6.4 -1.35 6.4 -1.35 5.75 M5.75 13.6 L5.75 18.5 5.45 18.6 5.15 18.65 4.8 18.6 4.45 18.5 2.7 15.15 3.85 13.6 4.75 13.6 5.05 13.3 5.2 13.55 5.75 13.6 M-22.95 -3.65 Q-21.8 -3.7 -20.9 -4.3 L-19.6 -5.55 -18.4 -6.8 Q-17.75 -7.35 -17.0 -7.35 L-16.75 -7.25 -16.3 -7.05 -16.3 -7.0 -16.45 -6.9 -16.9 -7.0 -17.6 -7.05 -17.8 -7.0 -15.45 -5.75 -14.0 -7.5 Q-13.3 -8.55 -13.3 -8.75 -13.3 -9.3 -14.6 -9.6 L-18.2 -9.95 -20.3 -9.9 -21.4 -9.7 Q-22.45 -9.55 -22.85 -9.15 L-23.95 -8.2 -24.5 -7.25 -26.85 -4.85 -25.9 -4.75 -24.6 -4.8 Q-23.85 -4.9 -23.55 -5.7 L-23.0 -6.9 -22.1 -7.95 -22.05 -7.75 Q-22.05 -7.5 -22.6 -6.3 L-23.2 -4.75 -23.85 -3.55 -22.95 -3.65 M-24.6 -8.1 L-24.55 -8.2 -26.75 -8.2 -27.25 -8.05 -28.3 -7.2 -28.45 -6.7 -28.55 -6.05 -28.55 -5.7 -28.3 -4.85 -27.9 -4.35 -27.45 -3.95 -24.25 -3.8 -23.9 -4.35 -23.75 -4.6 -23.75 -4.65 -24.3 -4.45 -24.9 -4.35 -25.8 -4.25 -26.85 -4.45 -27.65 -4.75 -26.75 -5.5 -26.25 -5.95 -25.15 -7.2 -24.6 -8.1 M-24.4 -3.05 L-24.9 -2.45 -25.1 -2.0 -25.1 -1.3 -24.95 -0.9 -24.55 -0.2 -23.1 0.45 -23.55 -0.35 -23.7 -1.4 -23.6 -1.5 -22.95 -1.4 -22.85 -0.55 Q-22.45 -0.95 -22.45 -1.2 L-22.35 -1.15 -22.15 -1.45 -22.35 -1.5 -21.75 -2.1 -21.55 -2.45 -22.1 -2.25 -22.8 -1.7 -23.6 -2.0 -22.9 -2.75 -21.95 -3.1 -23.85 -3.05 -24.4 -3.05 M-7.7 -17.25 L-6.8 -16.7 -6.7 -17.05 -7.1 -17.4 -7.5 -17.8 -7.95 -17.95 -8.75 -17.95 -8.95 -17.85 -8.75 -17.8 -7.8 -17.3 -7.7 -17.25 M-5.7 -17.0 L-6.15 -16.85 -6.4 -16.65 -6.5 -16.65 -5.75 -16.4 -4.5 -16.3 -3.25 -16.4 Q-2.2 -16.65 -1.25 -17.0 L-2.7 -17.15 -5.7 -17.0 M-8.7 -14.75 L-9.0 -14.85 -9.1 -14.15 -8.7 -14.75 M-9.65 -15.2 L-10.1 -15.5 -9.85 -14.65 -9.65 -15.2 M-7.7 -12.7 L-7.85 -13.2 -8.25 -12.5 -8.3 -11.9 -8.15 -12.05 -8.05 -12.25 -7.7 -12.7 M-8.0 -13.9 L-8.15 -14.35 -8.55 -13.75 -8.8 -13.15 -8.6 -13.4 -8.0 -13.9 M-5.55 -13.5 L-5.4 -13.7 -6.2 -15.0 Q-6.35 -15.35 -6.75 -15.35 L-7.05 -15.05 -7.0 -14.15 -5.55 -13.5 M-6.15 -13.35 L-6.6 -13.55 -6.45 -12.85 Q-6.25 -12.25 -5.9 -12.2 L-5.75 -12.25 -5.6 -12.4 Q-5.95 -12.35 -6.15 -12.6 L-6.25 -13.05 -6.2 -13.3 -6.15 -13.35 M-4.35 -12.95 L-4.4 -12.7 -4.6 -12.65 -4.7 -12.7 -4.8 -12.95 -4.7 -13.15 -4.6 -13.25 -4.4 -13.15 -4.35 -12.95 M-3.15 -12.45 L-3.25 -12.65 -3.15 -12.9 -2.9 -13.0 -2.65 -12.9 -2.55 -12.65 -2.65 -12.45 Q-2.75 -12.35 -2.85 -12.35 L-2.9 -12.35 -3.15 -12.45 M-15.35 -13.95 L-15.8 -13.95 -16.65 -13.65 -17.0 -13.4 -17.35 -12.8 -17.45 -12.35 -17.5 -11.9 -17.35 -11.25 Q-17.05 -10.55 -16.55 -10.4 -16.35 -12.1 -15.95 -12.35 L-15.45 -11.75 -15.65 -11.15 -15.8 -10.6 -15.8 -10.45 -15.55 -10.3 -15.15 -11.4 -13.85 -10.0 -13.25 -9.5 -13.4 -9.75 -12.15 -9.9 -12.1 -9.9 -11.95 -9.9 -12.55 -10.15 -12.95 -10.25 -13.7 -10.1 -14.0 -10.45 -13.45 -10.9 -12.95 -11.0 -12.7 -11.05 -13.3 -11.1 -13.75 -11.15 -14.05 -11.1 -14.4 -10.95 -14.85 -11.6 -14.25 -11.75 -13.65 -11.75 -13.4 -11.75 -13.75 -12.0 -14.5 -12.1 -15.2 -12.0 -15.7 -12.6 -15.2 -12.85 -14.7 -12.9 -14.25 -12.85 -13.95 -12.85 -13.75 -12.7 -14.5 -13.65 -15.35 -13.95 M-11.75 -14.2 L-12.2 -14.95 -11.9 -15.0 -11.5 -15.1 -10.35 -14.8 -10.8 -15.7 -11.6 -16.2 -12.05 -16.3 -12.9 -16.15 -13.3 -15.9 -13.75 -15.4 -13.95 -15.0 -14.0 -14.7 -14.05 -14.25 Q-14.05 -13.75 -13.35 -13.0 L-13.05 -13.85 -12.45 -14.75 -12.1 -14.05 -12.4 -13.55 Q-12.7 -13.05 -12.6 -12.7 L-12.6 -12.35 -11.85 -13.6 -11.45 -12.95 -11.75 -12.6 -12.1 -11.45 -11.8 -11.95 Q-11.5 -12.35 -11.15 -12.35 L-10.9 -11.95 -11.25 -11.55 -11.45 -10.65 Q-11.3 -10.45 -11.2 -10.75 L-10.95 -11.05 -10.75 -11.65 -9.95 -10.3 -8.85 -8.4 -8.6 -8.4 -9.2 -9.5 -8.55 -9.6 Q-8.65 -10.1 -9.0 -10.1 L-9.4 -9.95 -9.7 -10.45 -9.45 -10.55 -8.95 -10.75 -9.2 -11.05 -9.55 -11.1 -10.0 -11.05 -10.4 -11.65 -9.55 -11.75 -9.25 -11.7 Q-9.4 -12.1 -9.85 -12.15 L-10.6 -12.1 -10.85 -12.5 -10.3 -12.85 -9.7 -12.85 -11.15 -13.1 -11.5 -13.8 -10.9 -13.8 -10.2 -13.75 -10.05 -13.75 -10.8 -14.15 -11.75 -14.2 M-9.95 -10.3 L-10.3 -10.85 -10.65 -10.4 Q-10.95 -9.95 -10.7 -9.75 L-10.35 -10.0 -9.95 -10.3 M-14.65 -10.8 L-14.75 -10.6 -14.95 -10.2 -14.5 -10.1 -14.25 -10.25 -14.65 -10.8 M-12.55 -8.65 L-12.5 -8.6 -12.25 -8.8 -11.55 -9.1 -11.25 -9.15 -12.1 -9.25 -12.5 -9.25 -12.9 -9.1 -12.95 -9.1 -12.9 -9.05 -12.8 -8.55 Q-12.45 -8.55 -12.55 -8.65 M-8.3 -6.5 L-8.3 -7.75 -13.05 -7.95 -13.3 -7.85 -13.45 -7.6 -13.8 -7.2 -14.6 -6.05 -14.9 -5.6 -15.25 -5.35 -15.45 -5.25 -15.7 -5.35 -16.15 -5.55 -17.0 -6.05 -17.95 -6.55 -18.1 -6.45 -18.75 -5.7 -19.3 -5.1 -19.45 -4.9 -20.2 -4.3 -20.95 -3.8 -17.45 -3.85 -3.15 -4.2 -3.1 -5.0 -3.05 -5.7 -3.05 -6.05 -3.2 -6.15 -3.5 -6.4 -3.65 -6.1 Q-3.9 -5.8 -4.35 -5.7 L-4.7 -5.7 -4.85 -5.8 -4.95 -6.05 -5.15 -7.1 -5.65 -7.15 -6.25 -7.3 -7.55 -6.3 -7.75 -6.25 -7.95 -6.3 -8.3 -6.5 M-18.7 -10.45 L-17.3 -10.45 -18.2 -10.95 -18.75 -11.05 -19.25 -10.95 -19.95 -10.55 -20.2 -10.25 -19.75 -10.35 -18.9 -10.45 -18.85 -10.45 -18.7 -10.45 M-16.4 -2.0 L-16.25 -2.95 -16.9 -2.7 Q-17.25 -2.55 -17.3 -2.55 L-17.6 -2.6 -17.5 -3.2 -18.0 -3.2 -20.05 -1.7 -22.65 0.05 -20.6 0.35 -20.4 0.15 Q-20.7 0.95 -21.4 1.75 L-22.7 2.95 -21.7 3.5 -19.85 3.95 -18.4 3.8 -17.2 3.35 -18.35 5.85 -17.95 6.35 -16.3 6.6 -14.6 6.4 -13.1 5.7 -13.0 5.85 -12.7 7.05 Q-11.4 6.6 -10.75 4.2 -10.25 2.4 -10.25 0.15 L-10.3 -1.35 -10.8 -2.0 -11.85 -2.3 -13.25 -2.45 Q-14.6 -2.45 -15.8 -1.9 L-17.55 -0.75 -17.65 -0.65 -17.1 -1.4 -16.4 -2.0 M-10.15 -2.3 L-10.45 -2.75 Q-10.65 -3.05 -11.0 -3.05 L-11.2 -3.05 -11.25 -3.05 -11.15 -3.0 -10.75 -2.7 -10.4 -2.25 Q-9.95 -1.2 -9.95 0.4 -9.95 1.85 -10.4 3.8 L-10.5 4.25 -10.45 4.2 -10.2 3.9 -9.9 1.85 -9.8 0.35 -9.9 -1.75 -10.15 -2.3 M-3.65 -7.7 L-4.7 -7.5 -4.6 -6.9 -4.45 -6.15 -3.9 -6.65 Q-3.65 -7.05 -3.65 -7.6 L-3.65 -7.7 M-3.35 -7.8 L-3.0 -6.85 -2.4 -6.3 Q-2.2 -6.3 -2.1 -6.6 -1.85 -6.9 -1.85 -7.5 L-2.0 -7.75 -2.1 -8.05 -3.35 -7.8 M-1.4 -7.65 L-0.95 -7.75 -0.55 -8.05 -0.3 -8.3 -1.05 -8.2 -2.0 -8.05 -1.75 -7.75 -1.4 -7.65 M-0.05 -8.8 L-3.95 -8.4 Q-5.6 -8.3 -6.05 -7.85 L-5.9 -7.7 -5.55 -7.6 -5.1 -7.65 -2.7 -8.1 -1.25 -8.35 Q0.0 -8.6 0.15 -8.9 L-0.05 -8.8 M-7.2 -11.6 L-7.45 -12.05 -7.75 -11.5 -8.05 -10.9 -7.2 -11.6 M-9.7 -9.8 L-10.2 -9.05 -9.95 -8.75 -9.75 -9.0 -9.6 -9.3 Q-9.5 -9.5 -9.7 -9.8 M-0.85 4.2 L-0.45 4.2 -0.45 3.55 -1.7 2.2 -3.3 0.6 -4.5 -0.55 -4.85 -1.75 -4.7 -2.6 -5.9 -2.1 -5.9 -1.1 -6.15 -0.3 -6.4 0.5 -6.55 0.4 Q-6.25 -0.85 -6.6 -2.1 L-9.45 -3.05 -10.15 -3.0 Q-9.55 -2.1 -9.55 0.25 L-9.8 2.5 -10.1 4.2 -8.25 4.25 -8.15 4.3 -7.95 4.4 Q-7.75 4.4 -7.6 4.2 L-7.25 3.75 -7.2 3.7 -7.25 4.2 -6.4 4.4 -6.0 4.85 -5.95 4.65 -5.85 4.45 -5.75 4.35 -4.3 4.25 -4.0 4.7 -4.0 4.65 -3.75 4.45 -3.45 4.35 -2.95 4.35 -2.6 4.2 -0.85 4.2 M-5.9 7.5 L-6.1 7.5 -6.1 8.5 -5.15 8.5 -5.15 7.5 -5.45 7.5 -5.35 7.0 -4.85 7.0 -4.75 7.5 -5.0 7.5 -5.0 8.5 -3.9 8.5 -3.9 7.5 -4.1 7.5 -4.55 4.8 -5.45 4.8 -5.9 7.5 M-7.0 6.0 L-7.05 7.4 -7.2 7.5 -7.4 7.3 -7.45 6.6 -7.45 6.05 -7.2 5.75 -7.1 5.75 -7.05 5.8 -7.0 6.0 M-6.3 6.7 L-6.4 5.3 Q-6.55 4.85 -7.2 4.7 -7.85 4.8 -8.0 5.15 L-8.15 6.65 -8.05 8.05 Q-7.85 8.55 -7.2 8.55 -6.6 8.55 -6.45 8.15 -6.3 7.85 -6.3 6.7 M-10.0 5.75 L-9.7 5.75 -9.7 7.5 -9.95 7.5 -9.95 8.5 -8.8 8.5 -8.8 7.5 -9.05 7.5 -9.05 5.75 -8.75 5.75 -8.75 6.4 -8.35 6.4 -8.35 4.8 -10.45 4.8 -10.45 6.4 -10.0 6.4 -10.0 5.75 M-2.6 5.05 Q-3.05 4.55 -3.4 4.8 -3.75 5.0 -3.75 5.75 -3.75 6.2 -3.15 6.7 L-2.6 7.25 -2.85 7.5 -3.0 7.45 -3.05 7.05 -3.65 7.05 -3.65 8.5 -3.05 8.5 -3.05 8.25 -2.55 8.55 Q-2.2 8.55 -2.05 8.3 L-1.85 7.4 Q-1.85 6.85 -2.45 6.45 L-3.05 5.9 -2.95 5.75 -2.8 5.75 -2.7 5.8 -2.65 6.1 -2.0 6.1 -2.0 4.8 -2.6 4.8 -2.6 5.05 M-5.1 5.5 L-4.9 6.6 -5.3 6.6 -5.1 5.5 M-10.95 5.6 L-11.6 6.7 Q-12.2 7.6 -12.85 7.6 L-12.7 7.7 -12.65 7.7 -12.45 7.75 -11.5 7.05 Q-10.9 6.4 -10.9 5.85 L-10.9 5.6 -10.95 5.6 M-16.35 13.6 Q-16.15 13.6 -16.15 15.6 L-16.15 18.15 -16.4 18.5 -16.55 17.3 -16.55 13.6 -16.35 13.6 M-24.0 2.4 L-24.85 2.25 -24.25 1.35 Q-23.85 1.0 -23.4 0.85 L-24.4 0.7 -24.85 0.8 -25.45 1.0 -25.8 1.3 -26.0 1.65 -26.2 2.05 -26.3 2.5 -26.15 3.2 -26.0 3.6 -25.45 4.15 -23.9 4.55 Q-25.0 3.0 -24.85 2.6 L-24.05 2.75 -23.75 3.65 -23.05 4.2 -23.2 4.0 -23.4 3.4 -23.55 2.8 Q-23.25 2.9 -22.95 2.6 L-23.5 2.5 -22.95 1.8 -22.55 1.35 Q-22.8 1.3 -23.4 1.75 L-24.0 2.4 M-22.45 3.95 L-22.55 3.45 Q-22.65 3.4 -22.8 3.3 L-22.45 3.95" fill="#311b12" fill-rule="evenodd" stroke="none"/>
    <path d="M12.45 -16.15 L12.85 -15.9 12.05 -15.1 12.45 -16.15 M13.35 -15.4 L13.5 -15.0 12.75 -14.75 13.35 -15.4 M11.65 -14.05 L12.0 -13.55 Q12.3 -13.05 12.2 -12.7 L12.2 -12.55 12.15 -12.35 11.4 -13.6 11.65 -14.05 M11.0 -12.85 L11.05 -12.85 11.4 -11.95 Q11.1 -12.35 10.75 -12.35 L10.7 -12.35 10.75 -12.4 11.0 -12.85 M10.5 -11.95 L10.8 -11.5 11.05 -10.65 10.9 -10.45 10.5 -11.1 10.3 -11.65 10.5 -11.95 M9.85 -10.85 L10.05 -10.7 10.45 -9.9 10.3 -9.75 9.95 -10.0 9.55 -10.3 9.85 -10.85 M8.75 -9.5 L8.15 -9.6 8.5 -10.05 9.0 -9.95 8.75 -9.5 M9.35 -10.45 L9.3 -10.45 8.9 -10.6 8.55 -10.75 Q8.6 -11.05 9.15 -11.1 L9.6 -11.05 9.35 -10.45 M9.95 -11.65 L9.15 -11.75 8.85 -11.7 Q9.35 -12.15 9.6 -12.2 L10.2 -12.1 9.95 -11.65 M10.4 -12.5 L10.05 -12.8 10.45 -13.1 10.75 -13.1 10.4 -12.5 M11.1 -13.8 L10.65 -13.85 10.75 -14.25 10.95 -14.25 11.35 -14.2 11.1 -13.8 M11.2 -16.2 L11.65 -16.3 11.35 -15.4 11.2 -16.2 M11.4 -12.55 Q11.8 -11.85 11.1 -12.85 L11.4 -12.55 M14.95 -13.95 L15.4 -13.95 15.0 -13.15 14.95 -13.95 M16.2 -13.65 L16.55 -13.4 15.65 -12.7 16.2 -13.65 M16.95 -12.8 L17.05 -12.35 16.2 -12.25 16.95 -12.8 M15.05 -11.75 L15.25 -11.2 15.4 -10.6 15.15 -10.3 14.95 -10.85 14.7 -11.4 15.05 -11.75 M13.0 -9.75 L12.35 -9.85 11.75 -9.9 11.5 -9.9 Q12.15 -10.25 12.55 -10.25 L13.25 -10.1 13.3 -10.1 13.0 -9.75 M13.6 -10.45 Q13.1 -10.95 12.55 -11.0 L12.3 -11.05 12.85 -11.1 13.35 -11.15 14.0 -10.95 13.6 -10.45 M14.45 -11.6 L13.85 -11.75 13.25 -11.75 13.05 -11.75 13.6 -12.0 14.1 -12.1 14.8 -12.0 14.45 -11.6 M-5.6 -18.65 L-5.85 -18.55 -5.3 -20.95 Q-4.85 -22.2 -3.75 -22.85 L-0.9 -23.35 Q1.6 -23.35 3.0 -22.45 4.7 -21.4 4.7 -19.5 4.7 -18.8 4.5 -18.7 L3.85 -18.65 2.6 -18.45 1.7 -18.45 0.2 -18.65 1.8 -19.9 2.55 -21.0 1.6 -22.1 Q0.65 -22.85 -0.15 -22.85 L-1.6 -22.4 Q-2.55 -21.95 -2.75 -21.95 L-3.45 -22.75 Q-4.25 -22.75 -5.6 -18.65 M-2.8 -16.3 L-1.85 -16.4 -0.9 -16.65 1.55 -17.25 3.65 -17.8 5.65 -17.8 7.45 -17.5 Q9.4 -16.7 9.8 -13.45 8.85 -12.0 8.25 -11.9 L8.6 -12.6 8.85 -13.45 Q8.85 -15.25 7.25 -16.3 5.9 -17.25 4.05 -17.25 L-0.45 -16.6 -5.85 -15.95 -8.6 -16.05 Q-11.25 -16.35 -11.25 -17.15 L-11.0 -17.75 -10.25 -17.95 -10.05 -17.95 -10.55 -17.65 -10.8 -17.25 Q-10.8 -16.7 -8.55 -16.3 L-5.1 -16.05 -3.8 -16.1 -2.8 -16.3 M9.3 -9.8 L9.75 -9.05 9.5 -8.75 9.35 -9.0 9.15 -9.3 9.3 -9.8 M7.45 -11.4 L7.6 -10.9 7.25 -11.3 7.45 -11.4 M6.3 -11.15 L6.85 -10.55 7.05 -9.55 6.95 -9.75 6.1 -10.7 6.2 -11.0 6.3 -11.15 M-0.55 -3.7 L-0.1 -3.8 0.4 -4.0 Q0.5 -3.8 0.95 -3.55 1.35 -3.3 1.45 -3.3 L1.85 -3.35 2.35 -3.5 2.4 -3.25 2.45 -2.85 2.45 -2.6 2.25 -2.55 2.0 -2.6 1.7 -2.7 1.45 -2.25 1.15 -1.75 1.25 -1.7 Q1.7 -1.95 1.7 -2.35 L1.95 -2.25 2.3 -2.1 2.5 -2.1 2.55 -2.25 2.75 -1.5 2.15 -1.25 1.45 -0.1 0.8 -0.2 0.15 0.5 -1.15 -0.25 -3.15 -1.5 -2.95 -2.45 -2.55 -2.85 -2.2 -2.5 -2.35 -3.15 -2.7 -3.2 -2.8 -3.2 -2.6 -4.85 -1.55 -5.95 -1.4 -5.9 -1.35 -5.55 -1.35 -5.0 -1.25 -4.45 -1.05 -3.9 -0.55 -3.7 M0.65 -2.35 L0.85 -2.55 0.55 -2.85 0.4 -2.85 0.4 -2.75 0.65 -2.35 M0.1 -0.65 L0.3 -0.65 0.35 -0.8 0.05 -1.05 0.05 -0.85 0.1 -0.65 M18.4 -11.05 L18.85 -10.95 18.45 -10.45 18.3 -10.45 18.4 -11.05 M19.55 -10.55 L19.8 -10.25 19.35 -10.35 19.55 -10.55 M22.5 -3.65 Q21.1 -3.6 19.3 -5.45 L18.0 -6.75 Q17.3 -7.35 16.7 -7.35 L16.35 -7.3 15.9 -7.05 15.9 -7.0 16.05 -6.9 16.5 -7.0 17.05 -7.05 17.3 -7.0 17.35 -7.0 16.5 -6.6 15.0 -5.75 13.5 -7.75 12.85 -8.75 Q12.85 -9.3 14.45 -9.65 L17.8 -9.95 19.95 -9.9 21.0 -9.7 22.4 -9.25 23.5 -8.2 23.45 -7.85 23.35 -7.45 Q23.35 -7.1 24.1 -6.15 L25.55 -4.75 23.65 -5.05 Q23.4 -5.1 23.05 -5.85 L22.45 -7.05 Q22.05 -7.8 21.65 -7.95 L21.6 -7.75 22.4 -5.8 22.8 -4.75 21.9 -6.2 21.1 -7.85 Q20.05 -9.65 18.85 -9.65 18.35 -9.65 18.1 -9.2 L18.0 -8.7 Q18.0 -7.8 20.15 -5.75 L22.5 -3.65 M13.75 -8.7 Q13.75 -8.05 14.2 -7.45 14.6 -6.9 15.05 -6.9 L15.25 -7.2 15.9 -8.05 16.4 -8.45 16.6 -8.65 Q16.6 -9.6 15.15 -9.5 L14.2 -9.25 Q13.75 -9.05 13.75 -8.7 M13.85 -10.25 L14.25 -10.8 14.55 -10.2 14.2 -10.15 13.85 -10.25 M11.45 -7.75 L10.9 -7.9 10.15 -7.95 9.95 -7.95 10.55 -8.2 11.05 -8.3 11.75 -8.15 11.45 -7.75 M12.15 -8.65 L12.05 -8.6 11.65 -8.95 11.0 -9.15 10.8 -9.15 11.7 -9.25 12.1 -9.25 12.5 -9.1 12.15 -8.65 M17.15 -3.55 L19.05 -2.1 22.2 0.05 20.15 0.35 19.95 0.15 Q20.35 1.05 21.05 1.8 L22.25 2.95 22.2 3.0 20.65 3.6 19.25 3.95 17.8 3.7 16.8 3.35 18.05 6.1 16.75 6.45 15.6 6.6 14.1 6.3 12.65 5.7 12.45 6.4 Q12.3 6.7 12.3 7.05 10.65 5.9 10.1 3.55 9.8 2.3 9.8 0.45 L9.9 -1.05 10.15 -1.85 11.1 -2.25 12.9 -2.45 Q14.15 -2.45 15.4 -1.85 L17.2 -0.65 17.15 -0.9 16.55 -1.6 16.0 -2.0 15.8 -2.95 16.4 -2.7 16.85 -2.55 17.2 -2.6 17.1 -3.15 17.15 -3.55 M11.95 -7.2 L11.75 -7.5 11.95 -7.95 12.3 -7.15 11.95 -7.2 M15.55 -0.75 L13.95 -1.3 12.45 -1.45 Q11.0 -1.45 10.65 -1.05 10.3 -0.75 10.3 0.55 L10.45 1.45 11.1 3.0 11.5 1.85 13.75 3.3 13.95 2.25 13.75 1.35 14.6 1.6 16.3 2.1 17.3 2.3 18.05 2.4 17.45 0.85 Q16.9 0.05 15.55 -0.75 M22.2 -8.25 L22.55 -8.25 22.55 -8.5 22.15 -8.95 21.15 -9.4 Q20.8 -9.05 21.25 -8.65 21.65 -8.25 22.2 -8.25 M23.45 -3.05 L24.0 -3.05 23.2 -2.6 23.45 -3.05 M24.5 -2.45 L24.65 -2.0 23.5 -1.9 24.5 -2.45 M24.7 -1.3 L24.6 -0.9 23.8 -1.2 24.7 -1.3 M22.5 -1.4 L22.5 -0.8 22.45 -0.55 Q22.1 -0.95 22.1 -1.2 L22.5 -1.4 M21.95 -1.5 L21.25 -2.15 21.15 -2.45 21.65 -2.25 22.4 -1.7 21.95 -1.5 M25.75 2.05 L25.9 2.5 24.75 2.4 25.75 2.05 M25.75 3.2 L25.55 3.6 24.85 3.1 25.75 3.2 M23.65 2.75 L23.3 3.6 22.8 4.1 23.0 3.55 23.15 2.8 23.65 2.7 23.65 2.75 M23.1 2.5 L22.7 2.0 22.3 1.55 22.1 1.35 Q22.65 1.45 22.95 1.7 L23.6 2.4 23.1 2.5 M25.05 1.0 L25.4 1.3 24.55 1.65 25.05 1.0 M18.6 15.75 L18.6 18.5 19.15 18.6 19.3 18.75 19.35 19.7 19.4 20.75 19.45 22.05 19.3 22.7 Q19.15 22.9 18.6 22.9 L16.85 22.9 15.3 22.95 14.5 22.85 14.3 22.2 14.25 20.75 14.3 18.95 14.45 18.65 15.15 18.5 15.15 17.0 13.35 13.6 12.8 13.6 12.75 14.9 12.65 15.35 12.25 15.4 11.25 15.45 11.25 16.7 12.2 16.8 12.65 16.65 Q12.9 16.7 12.9 19.8 L13.05 21.8 12.85 22.7 11.7 22.9 8.95 22.9 5.4 22.9 5.3 22.85 5.15 22.75 4.95 22.85 4.85 22.9 0.8 22.9 -3.45 22.85 -3.65 22.65 -3.7 22.05 -3.85 22.3 Q-4.5 23.0 -5.3 23.0 L-6.65 22.85 Q-7.3 22.55 -7.6 21.7 L-7.7 22.35 -7.6 22.7 -10.15 22.9 -11.75 22.95 -12.45 22.85 -12.7 22.2 -12.7 20.75 -12.6 18.6 -12.35 18.6 -11.9 18.5 -11.9 13.6 -12.35 13.55 -12.6 13.5 -12.85 13.55 -13.3 13.6 -13.3 20.05 -13.4 21.1 -13.9 22.2 -14.95 22.8 -16.45 23.15 Q-18.5 23.15 -19.15 22.3 L-19.75 21.3 -19.95 20.65 -20.0 13.6 -20.7 13.6 -22.2 13.55 Q-22.55 13.55 -22.7 13.15 L-22.7 17.3 -22.15 17.4 -22.0 17.55 -21.9 20.1 -21.85 21.8 Q-21.85 22.4 -22.0 22.6 L-22.7 22.85 -24.5 22.85 -26.15 22.9 Q-26.7 22.9 -26.85 22.7 L-27.05 21.9 -27.0 20.05 -26.95 17.55 -26.65 17.35 -26.1 17.3 -26.1 10.45 -26.2 13.25 -26.55 13.5 -27.4 13.55 -27.95 13.5 -28.4 13.5 -28.55 13.35 -28.65 9.3 -28.7 6.45 Q-28.75 5.5 -28.5 5.25 L-27.3 5.05 -24.45 5.15 -21.05 5.1 Q-20.2 5.15 -20.15 5.45 L-20.3 6.7 Q-20.5 7.95 -20.2 9.35 L-16.15 9.35 -13.3 9.4 -12.8 9.4 -12.7 9.5 -12.6 9.55 -12.45 9.45 -11.4 9.4 -10.3 9.35 -6.6 9.55 Q-6.0 9.55 -5.3 10.2 L-5.1 10.35 -4.75 11.0 -4.4 13.2 Q-4.4 14.25 -4.7 15.05 -5.05 15.85 -5.5 16.0 -5.2 16.05 -4.95 16.6 L-4.85 17.4 -4.65 17.2 -4.1 17.2 -3.4 17.4 -3.2 18.5 -2.9 18.5 -2.9 13.6 -3.45 13.55 -3.6 13.4 -3.65 12.5 -3.7 11.5 -3.7 9.8 -3.55 9.55 -3.3 9.4 -1.25 9.3 0.65 9.35 0.7 9.4 0.7 9.35 4.7 9.4 5.05 9.7 5.15 9.55 6.95 9.45 8.85 9.35 12.45 9.4 12.5 9.5 12.6 9.55 12.8 9.5 12.8 9.4 Q13.05 9.3 16.7 9.35 L20.6 9.35 Q20.75 6.95 21.4 5.85 22.05 4.85 23.35 4.85 L24.0 4.9 24.35 5.15 24.7 5.3 24.75 5.2 26.15 5.15 27.05 5.05 Q27.4 5.05 27.5 5.2 L27.75 8.6 27.75 11.35 27.55 12.1 26.75 12.0 25.1 12.05 26.35 13.05 27.35 13.9 Q28.25 15.0 28.25 17.75 28.25 20.3 27.7 21.6 27.1 23.15 25.55 23.15 L24.8 23.05 24.25 22.8 23.85 22.6 23.75 22.65 23.7 22.75 22.4 22.85 21.4 22.9 Q21.05 22.9 20.95 22.7 20.8 22.4 20.8 19.15 L20.9 15.7 Q21.0 15.45 21.35 15.4 L22.4 15.45 Q24.0 15.45 24.0 16.0 L24.0 16.6 Q24.0 17.0 24.3 17.3 L24.55 16.7 Q24.55 16.0 24.15 15.6 L23.2 14.95 Q21.65 14.1 21.15 12.8 L21.0 13.5 20.75 13.6 19.65 13.6 19.9 13.1 20.65 13.1 20.65 9.9 17.3 9.9 17.3 13.1 18.05 13.1 17.0 15.25 16.1 13.1 16.7 13.1 16.7 9.9 13.05 9.9 13.05 13.1 13.95 13.1 15.7 16.75 15.7 19.05 14.8 19.05 14.8 22.4 18.85 22.4 18.85 19.05 18.05 19.05 18.05 16.85 18.6 15.75 M20.25 2.95 L20.9 2.85 18.95 0.75 Q18.2 1.8 18.85 2.45 19.4 2.95 20.25 2.95 M25.1 6.8 Q24.95 6.1 24.3 5.7 23.85 5.4 23.35 5.4 22.3 5.4 21.7 6.45 21.15 7.65 21.15 9.9 21.15 11.6 21.75 12.75 22.2 13.5 23.15 14.2 L24.45 15.25 Q25.1 15.85 25.1 16.7 25.1 17.85 24.3 17.85 23.35 17.85 23.4 16.0 L21.35 16.0 21.35 22.3 23.4 22.3 23.4 21.1 Q23.75 21.95 24.45 22.35 L25.4 22.55 Q27.7 22.55 27.7 18.1 L27.4 15.4 Q27.1 14.35 26.6 13.95 L24.35 12.1 Q23.65 11.55 23.65 10.85 23.65 9.95 24.3 9.95 L24.8 10.35 25.0 11.55 27.2 11.55 27.2 5.65 25.1 5.65 25.1 6.8 M24.3 11.1 L24.4 11.45 24.3 10.5 24.25 10.55 24.2 10.85 24.3 11.1 M16.3 5.85 L17.15 5.75 15.4 4.1 14.55 2.45 14.7 4.35 14.0 4.6 Q13.3 4.85 13.45 4.95 L14.3 5.45 15.3 5.7 16.3 5.85 M11.6 4.05 L10.9 4.0 11.9 5.5 12.2 2.9 11.6 4.05 M3.6 13.1 L4.5 13.1 4.5 9.9 1.15 9.9 1.15 13.1 1.95 13.1 -0.05 15.4 -0.05 13.1 0.5 13.1 0.5 9.9 -3.15 9.9 -3.15 13.1 -2.35 13.1 -2.35 19.05 -3.15 19.05 -3.15 22.4 0.5 22.4 0.5 19.05 -0.05 19.05 -0.05 17.4 0.5 16.6 1.8 19.05 1.15 19.05 1.15 22.4 4.75 22.4 4.75 19.05 4.1 19.05 2.05 15.05 3.6 13.1 M5.75 13.6 L5.2 13.55 5.05 13.3 4.75 13.6 3.85 13.6 2.7 15.15 4.45 18.5 4.8 18.6 5.15 18.65 5.45 18.6 5.75 18.5 5.75 13.6 M5.5 13.1 L6.35 13.1 6.35 19.05 5.5 19.05 5.5 22.4 12.4 22.4 12.4 17.2 10.3 17.2 10.3 19.05 8.65 19.05 8.65 16.6 10.7 16.6 10.7 15.3 8.65 15.3 8.65 13.1 10.3 13.1 10.3 14.9 12.2 14.9 12.2 9.9 5.5 9.9 5.5 13.1 M0.5 13.6 L0.5 13.95 0.85 13.55 0.5 13.6 M17.05 13.95 L17.2 13.6 17.0 13.6 16.95 13.75 17.05 13.95 M0.65 17.9 L0.55 17.75 0.5 17.65 0.5 18.5 0.95 18.55 0.65 17.9 M-23.95 -8.2 L-22.85 -9.15 Q-22.45 -9.55 -21.4 -9.7 L-20.3 -9.9 -18.2 -9.95 -14.6 -9.6 Q-13.3 -9.3 -13.3 -8.75 -13.3 -8.55 -14.0 -7.5 L-15.45 -5.75 -17.8 -7.0 -17.6 -7.05 -16.9 -7.0 -16.45 -6.9 -16.3 -7.0 -16.3 -7.05 -16.75 -7.25 -17.0 -7.35 Q-17.75 -7.35 -18.4 -6.8 L-19.6 -5.55 -20.9 -4.3 Q-21.8 -3.7 -22.95 -3.65 L-19.85 -6.4 Q-18.4 -8.0 -18.4 -8.75 L-18.6 -9.3 Q-18.8 -9.65 -19.25 -9.65 -20.45 -9.65 -21.5 -7.85 L-22.35 -6.2 Q-22.8 -5.2 -23.2 -4.75 L-22.6 -6.3 Q-22.05 -7.5 -22.05 -7.75 L-22.1 -7.95 -23.0 -6.9 -23.55 -5.7 Q-23.85 -4.9 -24.6 -4.8 L-25.9 -4.75 -24.45 -6.3 Q-23.75 -7.1 -23.75 -7.4 L-23.85 -7.85 -23.95 -8.2 M-22.65 -8.25 Q-22.25 -8.25 -21.75 -8.6 -21.15 -9.05 -21.55 -9.4 L-23.0 -8.5 -22.95 -8.3 -22.85 -8.25 -22.65 -8.25 M-23.85 -3.05 L-23.65 -2.6 -24.4 -3.05 -23.85 -3.05 M-24.9 -2.45 L-23.95 -1.9 -25.1 -2.0 -24.9 -2.45 M-25.1 -1.3 L-24.2 -1.2 -24.95 -0.9 -25.1 -1.3 M-22.95 -1.4 L-22.45 -1.2 Q-22.45 -0.95 -22.85 -0.55 L-22.95 -1.4 M-22.35 -1.5 L-22.8 -1.7 -22.1 -2.25 -21.55 -2.45 -21.75 -2.1 -22.35 -1.5 M-7.5 -17.8 L-7.7 -17.25 -7.8 -17.3 -7.95 -17.95 -7.5 -17.8 M-8.75 -17.8 L-8.95 -17.85 -8.75 -17.95 -8.75 -17.8 M-2.7 -17.15 L-1.25 -17.0 Q-2.2 -16.65 -3.25 -16.4 L-4.5 -16.3 -5.75 -16.4 -6.5 -16.65 -6.4 -16.65 -6.15 -16.85 -5.7 -17.0 -4.35 -16.9 -2.7 -17.15 M-8.7 -14.75 L-9.1 -14.15 -9.0 -14.85 -8.7 -14.75 M-8.0 -13.9 L-8.6 -13.4 -8.8 -13.15 -8.55 -13.75 -8.15 -14.35 -8.0 -13.9 M-7.7 -12.7 L-8.05 -12.25 -8.15 -12.05 -8.3 -11.9 -8.25 -12.5 -7.85 -13.2 -7.7 -12.7 M-15.8 -13.95 L-15.35 -13.95 -15.45 -13.15 -15.8 -13.95 M-15.2 -12.0 L-14.5 -12.1 -13.75 -12.0 -13.4 -11.75 -13.65 -11.75 -14.25 -11.75 -14.85 -11.6 -15.2 -12.0 M-14.4 -10.95 L-14.05 -11.1 -13.75 -11.15 -13.3 -11.1 -12.7 -11.05 -12.95 -11.0 -13.45 -10.9 -14.0 -10.45 -14.4 -10.95 M-13.7 -10.1 L-12.95 -10.25 -12.55 -10.15 -11.95 -9.9 -12.1 -9.9 -12.15 -9.9 -13.4 -9.75 -13.7 -10.1 M-15.15 -11.4 L-15.55 -10.3 -15.8 -10.45 -15.8 -10.6 -15.65 -11.15 -15.45 -11.75 -15.15 -11.4 M-17.45 -12.35 L-17.35 -12.8 -16.65 -12.25 -17.45 -12.35 M-17.0 -13.4 L-16.65 -13.65 -16.05 -12.7 -17.0 -13.4 M-11.6 -16.2 L-11.8 -15.4 -12.05 -16.3 -11.6 -16.2 M-12.9 -16.15 L-12.5 -15.1 -13.3 -15.9 -12.9 -16.15 M-13.75 -15.4 L-13.15 -14.75 -13.95 -15.0 -13.75 -15.4 M-12.1 -14.05 L-11.85 -13.6 -12.6 -12.35 -12.6 -12.7 Q-12.7 -13.05 -12.4 -13.55 L-12.1 -14.05 M-11.45 -12.95 L-11.15 -12.35 Q-11.5 -12.35 -11.8 -11.95 L-12.1 -11.45 -11.75 -12.6 -11.45 -12.95 M-10.9 -11.95 L-10.75 -11.65 -10.95 -11.05 -11.2 -10.75 Q-11.3 -10.45 -11.45 -10.65 L-11.25 -11.55 -10.9 -11.95 M-9.2 -9.5 L-9.4 -9.95 -9.0 -10.1 Q-8.65 -10.1 -8.55 -9.6 L-9.2 -9.5 M-9.7 -10.45 L-10.0 -11.05 -9.55 -11.1 -9.2 -11.05 -8.95 -10.75 -9.45 -10.55 -9.7 -10.45 M-10.4 -11.65 L-10.6 -12.1 -9.85 -12.15 Q-9.4 -12.1 -9.25 -11.7 L-9.55 -11.75 -10.4 -11.65 M-10.85 -12.5 L-11.15 -13.1 -9.7 -12.85 -10.3 -12.85 -10.85 -12.5 M-11.5 -13.8 L-11.75 -14.2 -10.8 -14.15 -10.05 -13.75 -10.2 -13.75 -10.9 -13.8 -11.5 -13.8 M-14.65 -10.8 L-14.25 -10.25 -14.5 -10.1 -14.95 -10.2 -14.75 -10.6 -14.65 -10.8 M-9.95 -10.3 L-10.35 -10.0 -10.7 -9.75 Q-10.95 -9.95 -10.65 -10.4 L-10.3 -10.85 -9.95 -10.3 M-12.9 -9.05 L-12.95 -9.1 -12.9 -9.1 -12.5 -9.25 -12.1 -9.25 -11.25 -9.15 -11.55 -9.1 -12.25 -8.8 -12.5 -8.6 -12.55 -8.65 -12.9 -9.05 M-14.15 -8.65 Q-14.15 -9.0 -14.6 -9.25 L-15.55 -9.5 Q-17.0 -9.6 -17.0 -8.65 L-16.75 -8.35 -16.1 -7.75 -15.8 -7.25 -15.45 -6.9 Q-15.0 -6.9 -14.6 -7.45 -14.15 -8.05 -14.15 -8.65 M-18.7 -10.45 L-18.85 -10.45 -19.25 -10.95 -18.75 -11.05 -18.7 -10.45 M-19.75 -10.35 L-20.2 -10.25 -19.95 -10.55 -19.75 -10.35 M-16.4 -2.0 L-17.1 -1.4 -17.65 -0.65 -17.55 -0.75 -15.8 -1.9 Q-14.6 -2.45 -13.25 -2.45 L-11.85 -2.3 -10.8 -2.0 -10.3 -1.35 -10.25 0.15 Q-10.25 2.4 -10.75 4.2 -11.4 6.6 -12.7 7.05 L-13.0 5.85 -13.1 5.7 -14.6 6.4 -16.3 6.6 -17.95 6.35 -18.35 5.85 -17.2 3.35 -18.4 3.8 -19.85 3.95 -21.7 3.5 -22.7 2.95 -21.4 1.75 Q-20.7 0.95 -20.4 0.15 L-20.6 0.35 -22.65 0.05 -20.05 -1.7 -18.0 -3.2 -17.5 -3.2 -17.6 -2.6 -17.3 -2.55 Q-17.25 -2.55 -16.9 -2.7 L-16.25 -2.95 -16.4 -2.0 M-12.85 -1.45 Q-14.95 -1.45 -16.65 -0.45 -18.35 0.7 -18.5 2.4 L-17.7 2.3 -16.75 2.1 -14.95 1.6 -14.2 1.35 -14.35 2.25 -14.2 3.3 -11.95 1.85 -11.5 3.0 Q-11.05 2.3 -10.9 1.45 L-10.8 0.55 Q-10.8 -0.75 -11.05 -1.05 -11.4 -1.45 -12.85 -1.45 M-7.2 -11.6 L-8.05 -10.9 -7.75 -11.5 -7.45 -12.05 -7.2 -11.6 M-9.7 -9.8 Q-9.5 -9.5 -9.6 -9.3 L-9.75 -9.0 -9.95 -8.75 -10.2 -9.05 -9.7 -9.8 M-0.8 -3.2 L-0.65 -2.35 -0.2 -1.85 0.0 -2.0 Q-0.2 -2.7 -0.8 -3.2 M-0.6 -0.75 L-1.05 -1.4 -1.95 -2.1 -2.0 -2.05 -2.05 -1.8 -1.6 -1.0 Q-1.15 -0.45 -0.6 -0.55 L-0.6 -0.75 M-4.95 13.35 Q-4.95 11.3 -5.6 10.65 -6.3 9.85 -8.4 9.9 L-12.2 9.9 -12.2 13.1 -11.35 13.1 -11.35 19.05 -12.2 19.05 -12.2 22.4 -8.15 22.4 -8.15 19.05 -9.0 19.05 -9.0 16.6 -8.15 16.7 Q-7.8 16.8 -7.65 17.1 -7.3 17.7 -7.35 20.45 -7.35 21.55 -6.75 22.05 -6.25 22.45 -5.6 22.45 -4.7 22.45 -4.25 21.8 -3.75 21.1 -3.75 19.5 L-3.75 18.75 -3.85 17.75 -4.45 17.75 -4.5 18.8 Q-4.6 19.15 -4.95 19.15 L-5.2 18.95 -5.45 17.1 -5.85 16.45 Q-6.35 16.05 -7.15 16.0 L-7.0 15.95 Q-6.15 16.0 -5.55 15.25 -4.95 14.5 -4.95 13.35 M-12.35 5.5 L-11.35 4.0 -12.05 4.05 -12.65 2.9 -12.35 5.5 M-14.95 2.45 Q-15.3 3.35 -15.95 4.25 -16.65 5.15 -17.6 5.75 L-16.75 5.85 -14.95 5.45 -13.65 4.8 -15.1 4.35 -14.95 2.45 M-20.7 2.95 Q-19.85 2.95 -19.05 2.3 L-19.35 0.75 -21.35 2.85 -20.7 2.95 M-20.25 13.1 L-19.45 13.1 -19.35 20.8 -18.9 21.7 -17.95 22.35 -16.5 22.55 Q-13.8 22.55 -13.8 20.0 L-13.85 13.1 -13.0 13.1 -13.0 9.9 -16.15 9.9 -16.15 13.1 -15.55 13.1 -15.55 17.45 -15.8 18.7 Q-16.0 19.05 -16.4 19.05 L-16.9 18.7 -17.1 17.3 -17.1 13.1 -16.55 13.1 -16.55 9.9 -20.25 9.9 -20.25 13.1 M-16.35 13.6 L-16.55 13.6 -16.55 17.3 -16.4 18.5 -16.15 18.15 -16.15 15.6 Q-16.15 13.6 -16.35 13.6 M-9.0 15.4 L-9.0 13.1 -8.7 13.1 Q-7.2 13.1 -7.2 14.3 -7.2 15.5 -9.0 15.4 M-24.0 2.4 L-23.4 1.75 Q-22.8 1.3 -22.55 1.35 L-22.95 1.8 -23.5 2.5 -24.0 2.4 M-23.55 2.8 L-23.4 3.4 -23.2 4.0 -23.05 4.2 -23.75 3.65 -24.05 2.75 -23.55 2.8 M-26.0 3.6 L-26.15 3.2 -25.25 3.1 -26.0 3.6 M-26.3 2.5 L-26.2 2.05 -25.15 2.4 -26.3 2.5 M-25.8 1.3 L-25.45 1.0 -24.95 1.65 -25.8 1.3 M-22.45 3.95 L-22.8 3.3 Q-22.65 3.4 -22.55 3.45 L-22.45 3.95 M-23.25 9.9 L-22.2 9.9 -22.2 13.0 -20.75 13.0 -20.75 5.65 -28.1 5.65 -28.1 13.0 -26.7 13.0 -26.7 9.9 -25.55 9.9 -25.55 17.85 -26.5 17.85 -26.5 22.3 -22.45 22.3 -22.45 17.85 -23.25 17.85 -23.25 9.9" fill="#66351e" fill-rule="evenodd" stroke="none"/>
    <path d="M11.65 -16.3 L12.45 -16.15 12.05 -15.1 12.85 -15.9 13.35 -15.4 12.75 -14.75 13.5 -15.0 13.65 -14.45 Q13.65 -13.8 12.95 -13.0 L12.6 -14.05 12.05 -14.75 11.65 -14.05 11.4 -13.6 11.0 -12.85 10.75 -12.4 10.7 -12.35 10.75 -12.35 10.5 -11.95 10.3 -11.65 9.85 -10.85 9.55 -10.3 7.85 -7.35 7.65 -7.35 8.75 -9.5 9.0 -9.95 9.35 -10.45 9.6 -11.05 9.95 -11.65 10.2 -12.1 10.4 -12.5 10.75 -13.1 11.1 -13.8 11.35 -14.2 11.75 -14.95 11.25 -15.05 10.75 -15.05 10.55 -15.85 11.2 -16.2 11.35 -15.4 11.65 -16.3 M14.8 -12.0 L15.3 -12.6 14.75 -12.85 14.3 -12.9 13.55 -12.85 13.3 -12.7 14.1 -13.65 14.95 -13.95 15.0 -13.15 15.4 -13.95 16.2 -13.65 15.65 -12.7 16.55 -13.4 16.95 -12.8 16.2 -12.25 17.05 -12.35 17.1 -12.1 17.05 -11.75 16.9 -11.2 16.55 -10.55 Q16.4 -10.4 16.15 -10.4 15.95 -12.1 15.55 -12.35 L15.05 -11.75 14.7 -11.4 13.4 -10.0 12.85 -9.5 13.0 -9.75 13.3 -10.1 13.25 -10.1 13.6 -10.45 14.0 -10.95 14.45 -11.6 14.8 -12.0 M2.65 -5.35 L8.95 -5.65 14.35 -5.8 Q14.65 -5.25 15.05 -5.25 15.1 -5.25 15.35 -5.4 L16.2 -5.8 18.25 -5.8 18.85 -5.15 18.5 -5.15 15.85 -5.1 8.45 -4.85 Q2.75 -4.6 2.65 -5.35 M18.85 -10.95 L19.2 -10.75 19.55 -10.55 19.35 -10.35 18.45 -10.45 18.85 -10.95 M18.3 -10.45 L16.9 -10.45 17.45 -10.8 18.4 -11.05 18.3 -10.45 M12.5 -9.1 L12.55 -9.15 12.45 -8.6 11.25 -7.2 11.0 -7.25 11.45 -7.75 11.75 -8.15 12.15 -8.65 12.5 -9.1 M25.9 -5.9 L26.65 -5.9 26.65 -5.2 25.9 -5.9 M28.15 -5.45 L28.05 -4.6 Q27.95 -4.45 27.7 -4.45 L27.45 -4.5 Q27.2 -4.75 27.3 -5.3 L27.75 -5.35 28.15 -5.45 M22.4 -1.7 L23.2 -2.0 21.85 -3.05 21.5 -3.1 21.65 -3.2 21.95 -3.3 23.45 -3.05 23.2 -2.6 24.0 -3.05 24.5 -2.45 23.5 -1.9 24.65 -2.0 24.7 -1.3 23.8 -1.2 24.6 -0.9 24.0 -0.1 22.7 0.45 23.05 -0.4 23.25 -1.25 23.25 -1.65 22.5 -1.4 22.1 -1.2 21.9 -1.15 21.7 -1.4 21.95 -1.5 22.4 -1.7 M25.9 2.5 L25.75 3.2 24.85 3.1 25.55 3.6 25.1 4.2 24.25 4.45 23.75 4.3 24.3 3.4 24.45 2.6 23.65 2.75 23.65 2.7 23.15 2.8 22.8 2.9 22.55 2.6 23.1 2.5 23.6 2.4 24.4 2.25 24.05 1.55 23.0 0.85 23.4 0.75 24.0 0.7 24.45 0.8 25.05 1.0 24.55 1.65 25.4 1.3 25.75 2.05 24.75 2.4 25.9 2.5 M-28.3 -7.2 L-26.3 -7.65 -24.6 -8.1 -25.15 -7.2 Q-26.2 -6.65 -27.35 -6.65 L-28.45 -6.7 -28.3 -7.2 M-26.25 -5.95 L-26.75 -5.5 -28.55 -5.7 -28.55 -6.05 -27.35 -5.95 -26.25 -5.95 M-27.65 -4.75 L-26.85 -4.45 -25.8 -4.25 -24.9 -4.35 -23.9 -4.35 -24.25 -3.8 -27.45 -3.95 -27.9 -4.35 -28.3 -4.85 -28.35 -5.0 -27.65 -4.75 M-24.4 -3.05 L-23.65 -2.6 -23.85 -3.05 -21.95 -3.1 -22.9 -2.75 -23.6 -2.0 -22.8 -1.7 -22.35 -1.5 -22.15 -1.45 -22.35 -1.15 -22.45 -1.2 -22.95 -1.4 -23.6 -1.5 -23.7 -1.4 -23.55 -0.35 -23.1 0.45 -24.55 -0.2 -24.95 -0.9 -24.2 -1.2 -25.1 -1.3 -25.1 -2.0 -23.95 -1.9 -24.9 -2.45 -24.4 -3.05 M-7.5 -17.8 L-7.1 -17.4 -6.7 -17.05 -6.8 -16.7 -7.7 -17.25 -7.5 -17.8 M-7.8 -17.3 L-8.75 -17.8 -8.75 -17.95 -7.95 -17.95 -7.8 -17.3 M-9.65 -15.2 L-9.85 -14.65 -10.1 -15.5 -9.65 -15.2 M-15.8 -13.95 L-15.45 -13.15 -15.35 -13.95 -14.5 -13.65 -13.75 -12.7 -13.95 -12.85 -14.25 -12.85 -14.7 -12.9 -15.2 -12.85 -15.7 -12.6 -15.2 -12.0 -14.85 -11.6 -14.4 -10.95 -14.0 -10.45 -13.7 -10.1 -13.4 -9.75 -13.25 -9.5 -13.85 -10.0 -15.15 -11.4 -15.45 -11.75 -15.95 -12.35 Q-16.35 -12.1 -16.55 -10.4 -17.05 -10.55 -17.35 -11.25 L-17.5 -11.9 -17.45 -12.35 -16.65 -12.25 -17.35 -12.8 -17.0 -13.4 -16.05 -12.7 -16.65 -13.65 -15.8 -13.95 M-11.6 -16.2 L-10.8 -15.7 -10.35 -14.8 -11.5 -15.1 -11.9 -15.0 -12.2 -14.95 -11.75 -14.2 -11.5 -13.8 -11.15 -13.1 -10.85 -12.5 -10.6 -12.1 -10.4 -11.65 -10.0 -11.05 -9.7 -10.45 -9.4 -9.95 -9.2 -9.5 -8.6 -8.4 -8.85 -8.4 -9.95 -10.3 -10.75 -11.65 -10.9 -11.95 -11.15 -12.35 -11.45 -12.95 -11.85 -13.6 -12.1 -14.05 -12.45 -14.75 -13.05 -13.85 -13.35 -13.0 Q-14.05 -13.75 -14.05 -14.25 L-14.0 -14.7 -13.95 -15.0 -13.15 -14.75 -13.75 -15.4 -13.3 -15.9 -12.5 -15.1 -12.9 -16.15 -12.05 -16.3 -11.8 -15.4 -11.6 -16.2 M-12.9 -9.05 L-12.55 -8.65 Q-12.45 -8.55 -12.8 -8.55 L-12.9 -9.05 M-13.45 -7.6 L-10.85 -7.05 -8.3 -6.5 -7.95 -6.3 -7.75 -6.25 -7.55 -6.3 -6.05 -6.0 -4.95 -6.05 -4.85 -5.8 -4.7 -5.7 -9.05 -6.35 -10.45 -6.9 -12.2 -7.1 -13.8 -7.2 -13.45 -7.6 M-4.35 -5.7 Q-3.9 -5.8 -3.65 -6.1 L-3.2 -6.15 -3.05 -6.05 -3.05 -5.7 -4.35 -5.7 M-3.1 -5.0 L-3.15 -4.2 -17.45 -3.85 -20.95 -3.8 -20.2 -4.3 -19.45 -4.9 -4.6 -4.85 -3.1 -5.0 M-19.3 -5.1 L-18.75 -5.7 -18.2 -5.8 -17.0 -6.05 -16.15 -5.55 -17.7 -5.35 -19.3 -5.1 M-14.9 -5.6 L-14.6 -6.05 -13.65 -5.95 -12.45 -5.75 -14.9 -5.6 M-18.75 -11.05 L-18.2 -10.95 -17.3 -10.45 -18.7 -10.45 -18.75 -11.05 M-18.85 -10.45 L-18.9 -10.45 -19.75 -10.35 -19.95 -10.55 -19.25 -10.95 -18.85 -10.45 M-25.45 1.0 L-24.85 0.8 -24.4 0.7 -23.4 0.85 Q-23.85 1.0 -24.25 1.35 L-24.85 2.25 -24.0 2.4 -23.5 2.5 -22.95 2.6 Q-23.25 2.9 -23.55 2.8 L-24.05 2.75 -24.85 2.6 Q-25.0 3.0 -23.9 4.55 L-25.45 4.15 -26.0 3.6 -25.25 3.1 -26.15 3.2 -26.3 2.5 -25.15 2.4 -26.2 2.05 -26.0 1.65 -25.8 1.3 -24.95 1.65 -25.45 1.0" fill="#bd9e5e" fill-rule="evenodd" stroke="none"/>
    <path d="M-5.6 -18.65 Q-4.25 -22.75 -3.45 -22.75 L-2.75 -21.95 Q-2.55 -21.95 -1.6 -22.4 L-0.15 -22.85 Q0.65 -22.85 1.6 -22.1 L2.55 -21.0 1.8 -19.9 0.2 -18.65 -2.6 -18.85 -5.6 -18.65 M9.8 -13.45 Q9.4 -16.7 7.45 -17.5 L5.65 -17.8 3.65 -17.8 1.55 -17.25 -0.9 -16.65 -1.85 -16.4 -2.8 -16.3 1.3 -17.65 Q3.65 -18.45 5.0 -18.45 7.15 -18.45 8.6 -17.5 10.15 -16.5 10.15 -14.9 L10.05 -14.1 9.8 -13.45 M0.1 -0.65 L0.05 -0.85 0.05 -1.05 0.35 -0.8 0.3 -0.65 0.1 -0.65 M0.65 -2.35 L0.4 -2.75 0.4 -2.85 0.55 -2.85 0.85 -2.55 0.65 -2.35 M23.5 -8.2 L24.1 -7.2 Q24.9 -6.05 26.4 -4.85 L25.55 -4.75 24.1 -6.15 Q23.35 -7.1 23.35 -7.45 L23.45 -7.85 23.5 -8.2 M22.8 -4.75 L23.1 -4.1 23.4 -3.55 22.5 -3.65 20.15 -5.75 Q18.0 -7.8 18.0 -8.7 L18.1 -9.2 Q18.35 -9.65 18.85 -9.65 20.05 -9.65 21.1 -7.85 L21.9 -6.2 22.8 -4.75 M13.75 -8.7 Q13.75 -9.05 14.2 -9.25 L15.15 -9.5 Q16.6 -9.6 16.6 -8.65 L16.4 -8.45 15.9 -8.05 15.25 -7.2 15.05 -6.9 Q14.6 -6.9 14.2 -7.45 13.75 -8.05 13.75 -8.7 M15.55 -0.75 Q16.9 0.05 17.45 0.85 L18.05 2.4 17.3 2.3 16.3 2.1 14.6 1.6 13.75 1.35 13.95 2.25 13.75 3.3 11.5 1.85 11.1 3.0 10.45 1.45 10.3 0.55 Q10.3 -0.75 10.65 -1.05 11.0 -1.45 12.45 -1.45 L13.95 -1.3 15.55 -0.75 M22.2 -8.25 Q21.65 -8.25 21.25 -8.65 20.8 -9.05 21.15 -9.4 L22.15 -8.95 22.55 -8.5 22.55 -8.25 22.2 -8.25 M20.25 2.95 Q19.4 2.95 18.85 2.45 18.2 1.8 18.95 0.75 L20.9 2.85 20.25 2.95 M11.6 4.05 L12.2 2.9 11.9 5.5 10.9 4.0 11.6 4.05 M16.3 5.85 L15.3 5.7 14.3 5.45 13.45 4.95 Q13.3 4.85 14.0 4.6 L14.7 4.35 14.55 2.45 15.4 4.1 17.15 5.75 16.3 5.85 M-23.95 -8.2 L-23.85 -7.85 -23.75 -7.4 Q-23.75 -7.1 -24.45 -6.3 L-25.9 -4.75 -26.85 -4.85 -24.5 -7.25 -23.95 -8.2 M-23.2 -4.75 Q-22.8 -5.2 -22.35 -6.2 L-21.5 -7.85 Q-20.45 -9.65 -19.25 -9.65 -18.8 -9.65 -18.6 -9.3 L-18.4 -8.75 Q-18.4 -8.0 -19.85 -6.4 L-22.95 -3.65 -23.85 -3.55 -23.2 -4.75 M-22.65 -8.25 L-22.85 -8.25 -22.95 -8.3 -23.0 -8.5 -21.55 -9.4 Q-21.15 -9.05 -21.75 -8.6 -22.25 -8.25 -22.65 -8.25 M-2.7 -17.15 L-4.35 -16.9 -5.7 -17.0 -2.7 -17.15 M-14.15 -8.65 Q-14.15 -8.05 -14.6 -7.45 -15.0 -6.9 -15.45 -6.9 L-15.8 -7.25 -16.1 -7.75 -16.75 -8.35 -17.0 -8.65 Q-17.0 -9.6 -15.55 -9.5 L-14.6 -9.25 Q-14.15 -9.0 -14.15 -8.65 M-12.85 -1.45 Q-11.4 -1.45 -11.05 -1.05 -10.8 -0.75 -10.8 0.55 L-10.9 1.45 Q-11.05 2.3 -11.5 3.0 L-11.95 1.85 -14.2 3.3 -14.35 2.25 -14.2 1.35 -14.95 1.6 -16.75 2.1 -17.7 2.3 -18.5 2.4 Q-18.35 0.7 -16.65 -0.45 -14.95 -1.45 -12.85 -1.45 M-0.6 -0.75 L-0.6 -0.55 Q-1.15 -0.45 -1.6 -1.0 L-2.05 -1.8 -2.0 -2.05 -1.95 -2.1 -1.05 -1.4 -0.6 -0.75 M-0.8 -3.2 Q-0.2 -2.7 0.0 -2.0 L-0.2 -1.85 -0.65 -2.35 -0.8 -3.2 M-14.95 2.45 L-15.1 4.35 -13.65 4.8 -14.95 5.45 -16.75 5.85 -17.6 5.75 Q-16.65 5.15 -15.95 4.25 -15.3 3.35 -14.95 2.45 M-12.35 5.5 L-12.65 2.9 -12.05 4.05 -11.35 4.0 -12.35 5.5 M-20.7 2.95 L-21.35 2.85 -19.35 0.75 -19.05 2.3 Q-19.85 2.95 -20.7 2.95" fill="#934d2c" fill-rule="evenodd" stroke="none"/>
    <path d="M1.95 -15.95 Q3.15 -15.95 3.4 -15.35 L3.4 -14.85 3.2 -14.65 2.45 -14.65 1.35 -14.3 0.3 -13.35 Q-0.25 -13.0 -1.35 -13.0 L-1.5 -13.15 -1.65 -13.45 -0.55 -13.6 0.4 -14.25 1.0 -15.25 Q1.55 -15.95 1.95 -15.95 M-2.85 -14.0 L-3.75 -13.95 -4.5 -14.15 -5.1 -13.95 -5.3 -14.5 -1.25 -15.05 0.4 -15.65 0.5 -15.65 0.5 -15.6 Q0.05 -14.3 -0.4 -13.95 -0.8 -13.65 -1.85 -13.65 L-2.3 -13.8 -2.85 -14.0 M3.65 -15.7 Q4.35 -15.7 4.55 -15.1 L4.85 -14.25 5.0 -15.2 5.05 -15.2 5.4 -14.5 5.65 -13.4 Q5.65 -12.1 4.75 -10.65 3.7 -8.95 2.35 -8.95 L1.8 -9.15 1.6 -9.65 Q1.4 -10.7 0.3 -11.4 L0.35 -11.4 1.2 -11.05 2.45 -10.7 2.2 -10.8 1.5 -11.35 1.5 -11.4 2.2 -11.75 2.65 -12.0 3.0 -12.75 3.2 -13.4 3.5 -14.4 3.75 -15.15 3.65 -15.7 M5.15 -12.8 L5.1 -13.75 4.7 -12.65 4.25 -11.8 4.65 -13.55 Q4.4 -12.6 3.75 -11.9 3.15 -11.25 2.2 -11.05 L3.4 -10.8 3.95 -11.15 Q3.6 -10.35 2.55 -10.35 L1.35 -10.7 Q1.85 -9.65 2.85 -9.65 3.7 -9.65 4.45 -10.8 5.15 -11.85 5.15 -12.8 M1.85 -3.8 L1.45 -3.8 1.0 -4.15 0.45 -4.6 0.4 -4.65 -0.45 -4.15 -0.8 -4.35 -0.95 -5.1 Q-0.95 -5.95 -0.15 -7.85 L0.65 -9.55 0.3 -9.85 -0.3 -10.05 -1.15 -10.9 -2.1 -11.8 -2.1 -12.0 -2.9 -11.9 -3.05 -11.95 -3.65 -12.1 -3.95 -12.6 -4.0 -12.4 -4.25 -12.35 -4.9 -12.5 -5.1 -13.2 -4.85 -13.5 -4.35 -13.65 -3.85 -13.45 -3.85 -13.15 -2.5 -13.05 Q-1.85 -12.85 -1.75 -12.1 L-1.6 -12.15 -1.45 -11.9 -1.5 -11.9 -1.55 -11.75 -0.05 -10.8 Q0.95 -10.15 0.95 -9.5 L0.7 -8.55 0.5 -5.95 Q0.5 -5.35 0.8 -4.75 1.2 -3.9 1.85 -3.8 M-0.45 -4.6 Q0.05 -4.6 0.05 -5.0 L0.05 -6.4 0.25 -7.7 0.4 -8.55 -0.3 -6.8 -0.8 -5.15 Q-0.8 -4.6 -0.45 -4.6 M0.5 4.2 L0.1 4.2 0.1 3.5 3.5 0.05 Q4.4 -1.0 4.4 -1.9 L4.25 -2.65 5.5 -2.1 5.55 -1.1 6.0 0.5 6.15 0.4 Q5.9 -0.8 6.25 -2.1 L9.2 -3.05 9.7 -3.0 9.35 -1.95 9.1 0.0 Q9.1 1.3 9.7 4.4 L8.9 4.3 8.2 4.2 7.85 4.3 7.5 4.4 7.15 4.05 6.8 3.7 6.95 4.2 6.3 4.25 Q5.9 4.35 5.6 4.6 L5.4 4.45 4.9 0.75 Q3.85 0.75 2.3 2.1 1.0 3.25 0.5 4.2 M8.1 -1.95 L8.0 -2.0 7.65 -0.45 7.55 0.65 Q7.55 1.4 7.9 2.7 L8.4 4.1 8.1 -1.95 M-5.55 -13.5 L-7.0 -14.15 -7.05 -15.05 -6.75 -15.35 Q-6.35 -15.35 -6.2 -15.0 L-5.4 -13.7 -5.55 -13.5 M-4.35 -12.95 L-4.4 -13.15 -4.6 -13.25 -4.7 -13.15 -4.8 -12.95 -4.7 -12.7 -4.6 -12.65 -4.4 -12.7 -4.35 -12.95 M-3.15 -12.45 L-3.55 -12.75 -3.6 -12.7 -3.6 -12.75 -3.65 -12.6 -3.4 -12.35 -2.95 -12.1 -2.65 -12.15 -2.45 -12.25 -2.85 -12.35 Q-2.75 -12.35 -2.65 -12.45 L-2.55 -12.65 -2.65 -12.9 -2.9 -13.0 -3.15 -12.9 -3.25 -12.65 -3.15 -12.45 M-4.1 -7.0 L-4.1 -7.15 -4.25 -7.25 -4.35 -7.15 -4.4 -7.0 -4.35 -6.75 -4.25 -6.7 -4.1 -6.75 -4.1 -7.0 M-3.65 -7.7 L-3.65 -7.6 Q-3.65 -7.05 -3.9 -6.65 L-4.45 -6.15 -4.6 -6.9 -4.7 -7.5 -3.65 -7.7 M-2.25 -7.05 L-2.25 -7.15 -2.55 -7.3 -2.95 -7.4 -3.05 -7.35 -3.05 -7.3 -2.55 -6.8 Q-2.45 -6.8 -2.35 -6.9 -2.25 -6.9 -2.25 -7.05 M-1.4 -7.65 L-1.75 -7.75 -2.0 -8.05 -1.05 -8.2 -0.3 -8.3 -0.55 -8.05 -0.95 -7.75 -1.4 -7.65 M-3.35 -7.8 L-2.1 -8.05 -2.0 -7.75 -1.85 -7.5 Q-1.85 -6.9 -2.1 -6.6 -2.2 -6.3 -2.4 -6.3 L-3.0 -6.85 -3.35 -7.8 M-1.15 -7.85 L-1.2 -7.95 -1.35 -7.95 -1.45 -7.95 -1.5 -7.85 -1.45 -7.8 -1.35 -7.75 -1.2 -7.8 -1.15 -7.85 M-8.5 -1.95 L-8.75 4.1 -8.2 2.6 Q-7.9 1.7 -7.9 0.65 L-7.95 -0.2 -8.15 -1.5 -8.3 -1.85 -8.5 -1.95 M-5.75 4.35 L-5.85 4.45 -5.95 4.65 -6.0 4.85 -6.4 4.4 -7.25 4.2 -7.2 3.7 -7.25 3.75 -7.6 4.2 Q-7.75 4.4 -7.95 4.4 L-8.15 4.3 -8.25 4.25 -10.1 4.2 -9.8 2.5 -9.55 0.25 Q-9.55 -2.1 -10.15 -3.0 L-9.45 -3.05 -6.6 -2.1 Q-6.25 -0.85 -6.55 0.4 L-6.4 0.5 -6.15 -0.3 -5.9 -1.1 -5.9 -2.1 -4.7 -2.6 -4.85 -1.75 -4.5 -0.55 -3.3 0.6 -1.7 2.2 -0.45 3.55 -0.45 4.2 -0.85 4.2 Q-1.35 3.3 -2.7 2.1 -4.25 0.75 -5.3 0.75 L-5.75 4.35" fill="#981616" fill-rule="evenodd" stroke="none"/>
    <path d="M-0.2 -18.4 L1.55 -18.1 0.05 -17.65 -1.9 -17.5 -1.1 -17.8 -0.2 -18.4 M-5.85 -17.3 L-6.3 -17.2 -6.15 -17.85 -5.75 -18.25 -5.85 -17.3 M3.35 -2.0 L3.15 -2.45 3.0 -2.75 3.0 -2.95 3.1 -3.05 3.25 -3.05 Q3.75 -3.05 4.0 -2.6 L4.1 -2.0 3.35 -2.0 M-4.5 -2.0 L-4.35 -2.55 Q-4.1 -3.05 -3.65 -3.05 L-3.4 -2.75 -3.75 -2.0 -4.5 -2.0 M9.8 3.9 L9.95 3.8 10.3 5.0 10.85 6.35 11.5 7.2 12.2 7.65 12.45 7.6 12.3 7.7 12.0 7.75 Q11.3 7.55 10.55 5.85 L9.8 3.9 M9.95 -2.25 L9.7 -2.3 10.2 -2.9 10.6 -3.05 10.85 -3.05 10.75 -3.0 10.3 -2.85 9.95 -2.25 M27.0 15.9 L27.1 16.95 27.15 18.05 Q27.15 20.0 26.7 21.0 26.25 22.05 25.4 22.05 24.9 22.05 24.2 21.35 L23.5 20.6 23.0 20.8 Q22.8 21.1 22.9 21.75 L21.85 21.75 21.85 16.5 22.9 16.5 Q23.05 17.7 23.4 18.15 L24.25 18.45 Q25.1 18.45 25.4 17.9 25.7 17.35 25.55 15.9 L27.0 15.9 M11.85 21.8 L6.05 21.8 6.05 19.6 6.7 19.45 6.85 19.15 6.85 15.9 10.15 15.9 10.15 16.1 8.9 16.15 8.3 16.2 Q8.15 16.3 8.15 16.6 L8.1 17.85 Q8.1 19.25 8.25 19.45 L9.45 19.6 10.75 19.3 10.85 17.75 11.85 17.75 11.85 21.8 M4.2 19.6 L4.2 21.8 1.7 21.8 1.7 19.6 2.2 19.5 2.3 18.95 1.8 17.75 1.2 16.7 Q1.05 16.45 0.75 16.45 -0.2 16.45 -0.45 17.15 L-0.55 18.25 -0.45 19.45 0.0 19.6 0.0 21.8 -2.6 21.8 -2.6 19.6 -2.0 19.45 -1.85 19.15 -1.85 15.9 1.95 15.9 2.0 16.15 2.85 17.75 3.7 19.45 Q3.75 19.5 3.95 19.55 L4.2 19.6 M17.55 16.6 L17.5 17.95 Q17.5 19.45 17.65 19.55 L17.95 19.55 18.3 19.6 18.3 21.8 15.35 21.8 15.35 19.6 16.05 19.55 Q16.25 19.45 16.25 18.0 L16.25 16.7 15.85 15.9 17.9 15.9 17.55 16.6 M-10.15 -2.3 L-10.4 -2.25 -10.75 -2.7 -11.15 -3.0 -11.25 -3.05 -11.2 -3.05 -11.0 -3.05 Q-10.65 -3.05 -10.45 -2.75 L-10.15 -2.3 M-10.4 3.8 L-10.2 3.9 -10.45 4.2 -10.5 4.25 -10.4 3.8 M-10.95 5.6 L-10.9 5.6 -10.9 5.85 Q-10.9 6.4 -11.5 7.05 L-12.45 7.75 -12.65 7.7 -12.7 7.7 -12.85 7.6 Q-12.2 7.6 -11.6 6.7 L-10.95 5.6 M-14.35 15.9 L-14.35 20.0 Q-14.35 21.2 -15.05 21.7 L-16.65 22.05 -18.25 21.6 Q-18.8 21.05 -18.9 19.85 L-18.9 15.9 -17.65 15.9 Q-17.7 18.2 -17.4 18.95 -17.15 19.6 -16.4 19.6 L-15.75 19.5 Q-15.45 19.35 -15.3 18.9 L-15.1 18.1 -15.05 17.55 Q-15.05 15.9 -14.35 15.9 M-8.9 16.1 Q-9.3 16.1 -9.4 16.25 L-9.55 17.85 Q-9.55 19.45 -9.35 19.55 L-9.05 19.55 -8.65 19.6 -8.65 21.8 -11.65 21.8 -11.65 19.6 -10.95 19.45 -10.8 19.15 -10.8 15.9 -7.7 15.9 -7.7 16.15 -7.6 16.3 -8.25 16.2 -8.9 16.1 M-4.25 19.5 Q-4.2 20.55 -4.55 21.25 -4.9 21.95 -5.6 21.95 -6.45 21.95 -6.75 20.55 L-6.85 18.85 -6.8 17.55 Q-6.85 16.95 -7.15 16.6 L-7.25 16.5 Q-6.25 16.7 -6.05 17.05 L-5.85 18.7 -5.5 19.55 -4.7 19.75 -4.25 19.5 M-23.75 15.9 Q-23.75 17.2 -23.9 18.0 L-23.65 18.25 -23.0 18.4 -23.0 21.75 -25.95 21.75 -25.95 18.4 -25.2 18.25 -25.05 18.0 -24.85 16.9 Q-24.55 15.9 -23.75 15.9" fill="#cccccc" fill-rule="evenodd" stroke="none"/>
    <path d="M-1.9 -17.5 L-4.15 -17.55 -5.85 -17.3 -5.75 -18.25 -4.7 -18.45 -3.15 -18.55 -2.0 -18.5 -0.2 -18.4 -1.1 -17.8 -1.9 -17.5 M2.3 -14.5 L2.55 -13.55 2.25 -12.55 Q1.95 -12.0 1.4 -12.0 1.0 -12.0 0.65 -12.45 L0.3 -13.15 0.75 -13.45 0.7 -13.3 Q0.5 -12.9 0.8 -12.65 L1.35 -12.4 Q1.7 -12.4 1.85 -12.6 L2.1 -13.1 1.85 -13.65 1.1 -13.8 1.9 -14.4 2.3 -14.5 M3.35 -2.0 L4.1 -2.0 4.0 -1.15 2.65 0.6 -0.2 3.2 -3.7 -0.25 -4.35 -0.95 -4.45 -1.4 -4.5 -2.0 -3.75 -2.0 -3.75 -1.7 -3.65 -1.2 -2.95 -0.45 -2.15 0.05 Q-1.05 0.65 -0.2 2.2 L2.9 -0.75 3.25 -1.2 3.35 -1.6 3.35 -2.0 M9.8 3.9 L9.5 1.85 9.35 0.35 9.45 -1.35 9.7 -2.3 9.95 -2.25 Q9.55 -1.35 9.55 0.4 9.55 2.05 9.95 3.8 L9.8 3.9 M18.6 15.75 L18.05 16.85 18.05 19.05 18.85 19.05 18.85 22.4 14.8 22.4 14.8 19.05 15.7 19.05 15.7 16.75 13.95 13.1 13.05 13.1 13.05 9.9 16.7 9.9 16.7 13.1 16.1 13.1 17.0 15.25 18.05 13.1 17.3 13.1 17.3 9.9 20.65 9.9 20.65 13.1 19.9 13.1 19.65 13.6 18.6 15.75 M25.1 6.8 L25.1 5.65 27.2 5.65 27.2 11.55 25.0 11.55 24.8 10.35 24.3 9.95 Q23.65 9.95 23.65 10.85 23.65 11.55 24.35 12.1 L26.6 13.95 Q27.1 14.35 27.4 15.4 L27.7 18.1 Q27.7 22.55 25.4 22.55 L24.45 22.35 Q23.75 21.95 23.4 21.1 L23.4 22.3 21.35 22.3 21.35 16.0 23.4 16.0 Q23.35 17.85 24.3 17.85 25.1 17.85 25.1 16.7 25.1 15.85 24.45 15.25 L23.15 14.2 Q22.2 13.5 21.75 12.75 21.15 11.6 21.15 9.9 21.15 7.65 21.7 6.45 22.3 5.4 23.35 5.4 23.85 5.4 24.3 5.7 24.95 6.1 25.1 6.8 M27.0 15.9 L25.55 15.9 Q25.7 17.35 25.4 17.9 25.1 18.45 24.25 18.45 L23.4 18.15 Q23.05 17.7 22.9 16.5 L21.85 16.5 21.85 21.75 22.9 21.75 Q22.8 21.1 23.0 20.8 L23.5 20.6 24.2 21.35 Q24.9 22.05 25.4 22.05 26.25 22.05 26.7 21.0 27.15 20.0 27.15 18.05 L27.1 16.95 27.0 15.9 M3.6 13.1 L2.05 15.05 4.1 19.05 4.75 19.05 4.75 22.4 1.15 22.4 1.15 19.05 1.8 19.05 0.5 16.6 -0.05 17.4 -0.05 19.05 0.5 19.05 0.5 22.4 -3.15 22.4 -3.15 19.05 -2.35 19.05 -2.35 13.1 -3.15 13.1 -3.15 9.9 0.5 9.9 0.5 13.1 -0.05 13.1 -0.05 15.4 1.95 13.1 1.15 13.1 1.15 9.9 4.5 9.9 4.5 13.1 3.6 13.1 M11.85 21.8 L11.85 17.75 10.85 17.75 10.75 19.3 9.45 19.6 8.25 19.45 Q8.1 19.25 8.1 17.85 L8.15 16.6 Q8.15 16.3 8.3 16.2 L8.9 16.15 10.15 16.1 10.15 15.9 6.85 15.9 6.85 19.15 6.7 19.45 6.05 19.6 6.05 21.8 11.85 21.8 M5.5 13.1 L5.5 9.9 12.2 9.9 12.2 14.9 10.3 14.9 10.3 13.1 8.65 13.1 8.65 15.3 10.7 15.3 10.7 16.6 8.65 16.6 8.65 19.05 10.3 19.05 10.3 17.2 12.4 17.2 12.4 22.4 5.5 22.4 5.5 19.05 6.35 19.05 6.35 13.1 5.5 13.1 M4.2 19.6 L3.95 19.55 Q3.75 19.5 3.7 19.45 L2.85 17.75 2.0 16.15 1.95 15.9 -1.85 15.9 -1.85 19.15 -2.0 19.45 -2.6 19.6 -2.6 21.8 0.0 21.8 0.0 19.6 -0.45 19.45 -0.55 18.25 -0.45 17.15 Q-0.2 16.45 0.75 16.45 1.05 16.45 1.2 16.7 L1.8 17.75 2.3 18.95 2.2 19.5 1.7 19.6 1.7 21.8 4.2 21.8 4.2 19.6 M17.55 16.6 L17.9 15.9 15.85 15.9 16.25 16.7 16.25 18.0 Q16.25 19.45 16.05 19.55 L15.35 19.6 15.35 21.8 18.3 21.8 18.3 19.6 17.95 19.55 17.65 19.55 Q17.5 19.45 17.5 17.95 L17.55 16.6 M-6.15 -13.35 L-6.2 -13.3 -6.25 -13.05 -6.15 -12.6 Q-5.95 -12.35 -5.6 -12.4 L-5.75 -12.25 -5.9 -12.2 Q-6.25 -12.25 -6.45 -12.85 L-6.6 -13.55 -6.15 -13.35 M-10.4 -2.25 L-10.15 -2.3 -9.9 -1.75 -9.8 0.35 -9.9 1.85 -10.2 3.9 -10.4 3.8 Q-9.95 1.85 -9.95 0.4 -9.95 -1.2 -10.4 -2.25 M-6.7 -9.2 L-6.85 -9.25 -4.35 -11.6 -2.55 -11.05 -6.7 -9.2 M-4.95 13.35 Q-4.95 14.5 -5.55 15.25 -6.15 16.0 -7.0 15.95 L-7.15 16.0 Q-6.35 16.05 -5.85 16.45 L-5.45 17.1 -5.2 18.95 -4.95 19.15 Q-4.6 19.15 -4.5 18.8 L-4.45 17.75 -3.85 17.75 -3.75 18.75 -3.75 19.5 Q-3.75 21.1 -4.25 21.8 -4.7 22.45 -5.6 22.45 -6.25 22.45 -6.75 22.05 -7.35 21.55 -7.35 20.45 -7.3 17.7 -7.65 17.1 -7.8 16.8 -8.15 16.7 L-9.0 16.6 -9.0 19.05 -8.15 19.05 -8.15 22.4 -12.2 22.4 -12.2 19.05 -11.35 19.05 -11.35 13.1 -12.2 13.1 -12.2 9.9 -8.4 9.9 Q-6.3 9.85 -5.6 10.65 -4.95 11.3 -4.95 13.35 M-20.25 13.1 L-20.25 9.9 -16.55 9.9 -16.55 13.1 -17.1 13.1 -17.1 17.3 -16.9 18.7 -16.4 19.05 Q-16.0 19.05 -15.8 18.7 L-15.55 17.45 -15.55 13.1 -16.15 13.1 -16.15 9.9 -13.0 9.9 -13.0 13.1 -13.85 13.1 -13.8 20.0 Q-13.8 22.55 -16.5 22.55 L-17.95 22.35 -18.9 21.7 -19.35 20.8 -19.45 13.1 -20.25 13.1 M-14.35 15.9 Q-15.05 15.9 -15.05 17.55 L-15.1 18.1 -15.3 18.9 Q-15.45 19.35 -15.75 19.5 L-16.4 19.6 Q-17.15 19.6 -17.4 18.95 -17.7 18.2 -17.65 15.9 L-18.9 15.9 -18.9 19.85 Q-18.8 21.05 -18.25 21.6 L-16.65 22.05 -15.05 21.7 Q-14.35 21.2 -14.35 20.0 L-14.35 15.9 M-8.9 16.1 L-8.25 16.2 -7.6 16.3 -7.7 16.15 -7.7 15.9 -10.8 15.9 -10.8 19.15 -10.95 19.45 -11.65 19.6 -11.65 21.8 -8.65 21.8 -8.65 19.6 -9.05 19.55 -9.35 19.55 Q-9.55 19.45 -9.55 17.85 L-9.4 16.25 Q-9.3 16.1 -8.9 16.1 M-9.0 15.4 Q-7.2 15.5 -7.2 14.3 -7.2 13.1 -8.7 13.1 L-9.0 13.1 -9.0 15.4 M-4.25 19.5 L-4.7 19.75 -5.5 19.55 -5.85 18.7 -6.05 17.05 Q-6.25 16.7 -7.25 16.5 L-7.15 16.6 Q-6.85 16.95 -6.8 17.55 L-6.85 18.85 -6.75 20.55 Q-6.45 21.95 -5.6 21.95 -4.9 21.95 -4.55 21.25 -4.2 20.55 -4.25 19.5 M-23.25 9.9 L-23.25 17.85 -22.45 17.85 -22.45 22.3 -26.5 22.3 -26.5 17.85 -25.55 17.85 -25.55 9.9 -26.7 9.9 -26.7 13.0 -28.1 13.0 -28.1 5.65 -20.75 5.65 -20.75 13.0 -22.2 13.0 -22.2 9.9 -23.25 9.9 M-23.75 15.9 Q-24.55 15.9 -24.85 16.9 L-25.05 18.0 -25.2 18.25 -25.95 18.4 -25.95 21.75 -23.0 21.75 -23.0 18.4 -23.65 18.25 -23.9 18.0 Q-23.75 17.2 -23.75 15.9" fill="#ffffff" fill-rule="evenodd" stroke="none"/>
    <path d="M5.15 -12.8 Q5.15 -11.85 4.45 -10.8 3.7 -9.65 2.85 -9.65 1.85 -9.65 1.35 -10.7 L2.55 -10.35 Q3.6 -10.35 3.95 -11.15 L3.4 -10.8 2.2 -11.05 Q3.15 -11.25 3.75 -11.9 4.4 -12.6 4.65 -13.55 L4.25 -11.8 4.7 -12.65 5.1 -13.75 5.15 -12.8 M1.85 -3.8 Q1.2 -3.9 0.8 -4.75 0.5 -5.35 0.5 -5.95 L0.7 -8.55 0.95 -9.5 Q0.95 -10.15 -0.05 -10.8 L-1.55 -11.75 -1.5 -11.9 -1.45 -11.9 0.4 -10.9 Q1.25 -10.3 1.25 -9.5 L1.2 -8.2 1.15 -6.3 Q1.25 -5.55 1.7 -4.85 L2.15 -4.15 2.1 -3.95 1.85 -3.8 M-1.6 -12.15 L-1.75 -12.1 Q-1.85 -12.85 -2.5 -13.05 L-3.85 -13.15 -3.85 -13.45 -3.15 -13.5 -2.7 -13.55 -1.95 -12.85 -1.6 -12.15 M-0.45 -4.6 Q-0.8 -4.6 -0.8 -5.15 L-0.3 -6.8 0.4 -8.55 0.25 -7.7 0.05 -6.4 0.05 -5.0 Q0.05 -4.6 -0.45 -4.6 M0.5 4.2 Q1.0 3.25 2.3 2.1 3.85 0.75 4.9 0.75 L5.4 4.45 4.9 4.25 4.45 4.2 4.0 4.25 3.6 4.25 3.3 4.2 2.9 4.2 1.95 4.25 0.5 4.2 M8.1 -1.95 L8.4 4.1 7.9 2.7 Q7.55 1.4 7.55 0.65 L7.65 -0.45 8.0 -2.0 8.1 -1.95 M-2.85 -12.35 L-2.45 -12.25 -2.65 -12.15 -2.95 -12.1 -3.4 -12.35 -3.65 -12.6 -3.6 -12.75 -3.6 -12.7 -3.55 -12.75 -3.15 -12.45 -2.9 -12.35 -2.85 -12.35 M-4.1 -7.0 L-4.1 -6.75 -4.25 -6.7 -4.35 -6.75 -4.4 -7.0 -4.35 -7.15 -4.25 -7.25 -4.1 -7.15 -4.1 -7.0 M-2.25 -7.05 Q-2.25 -6.9 -2.35 -6.9 -2.45 -6.8 -2.55 -6.8 L-3.05 -7.3 -3.05 -7.35 -2.95 -7.4 -2.55 -7.3 -2.25 -7.15 -2.25 -7.05 M-1.15 -7.85 L-1.2 -7.8 -1.35 -7.75 -1.45 -7.8 -1.5 -7.85 -1.45 -7.95 -1.35 -7.95 -1.2 -7.95 -1.15 -7.85 M-8.5 -1.95 L-8.3 -1.85 -8.15 -1.5 -7.95 -0.2 -7.9 0.65 Q-7.9 1.7 -8.2 2.6 L-8.75 4.1 -8.5 -1.95 M-0.85 4.2 L-2.6 4.2 -2.95 4.35 -3.45 4.35 -3.75 4.45 -4.0 4.65 -4.0 4.7 -4.3 4.25 -5.75 4.35 -5.3 0.75 Q-4.25 0.75 -2.7 2.1 -1.35 3.3 -0.85 4.2" fill="#e34444" fill-rule="evenodd" stroke="none"/>
    <path d="M-3.65 -12.1 L-3.05 -11.95 -2.9 -11.9 -2.0 -11.4 -1.45 -11.1 -1.15 -10.7 -0.75 -10.25 Q-0.4 -10.0 -0.25 -9.9 L-0.95 -9.75 -2.15 -9.55 -3.15 -9.4 -6.4 -8.65 Q-7.1 -8.3 -7.6 -7.35 L-7.45 -7.2 -6.9 -7.95 -6.45 -8.45 -3.45 -9.0 -0.9 -9.45 -0.35 -9.6 -0.2 -9.75 0.25 -9.7 0.45 -9.55 0.35 -9.2 -2.2 -8.75 -4.25 -8.55 Q-5.15 -8.65 -6.35 -7.85 L-7.7 -6.75 -7.8 -7.4 -7.8 -7.95 -7.9 -8.75 -7.55 -9.95 -6.9 -10.5 -4.85 -12.25 -3.65 -12.1 M-6.7 -9.2 L-6.85 -8.85 -1.35 -10.05 -1.5 -10.5 -1.75 -10.9 -3.1 -10.55 -2.1 -11.15 -3.1 -11.75 -4.5 -12.1 -5.9 -11.05 -7.45 -9.55 -7.0 -9.1 -6.85 -9.25 -6.7 -9.2 M-0.05 -8.8 L0.15 -8.9 Q0.0 -8.6 -1.25 -8.35 L-2.7 -8.1 -5.1 -7.65 -5.55 -7.6 -5.9 -7.7 -6.05 -7.85 Q-5.6 -8.3 -3.95 -8.4 L-0.05 -8.8 M-7.55 -8.1 L-7.2 -8.95 -7.7 -9.25 -7.7 -8.65 -7.65 -7.95 -7.55 -8.1" fill="#bb8217" fill-rule="evenodd" stroke="none"/>
    <path d="M2.65 -5.35 L2.55 -7.1 3.0 -7.05 5.6 -6.8 12.1 -6.55 13.9 -6.5 14.35 -5.8 8.95 -5.65 2.65 -5.35 M16.2 -5.8 L16.8 -6.15 17.1 -6.35 17.3 -6.4 17.85 -6.3 18.25 -5.8 16.2 -5.8 M25.9 -5.9 L25.5 -6.3 26.7 -6.3 26.7 -5.9 26.65 -5.9 25.9 -5.9 M27.3 -5.3 L27.3 -6.45 Q27.35 -7.0 27.7 -7.0 L28.05 -6.8 28.15 -5.45 27.75 -5.35 27.3 -5.3 M-28.3 -7.2 L-27.25 -8.05 -26.75 -8.2 -24.55 -8.2 -24.6 -8.1 -26.3 -7.65 -28.3 -7.2 M-25.15 -7.2 L-26.25 -5.95 -27.35 -5.95 -28.55 -6.05 -28.45 -6.7 -27.35 -6.65 Q-26.2 -6.65 -25.15 -7.2 M-26.75 -5.5 L-27.65 -4.75 -28.35 -5.0 -28.3 -4.85 -28.55 -5.7 -26.75 -5.5 M-24.9 -4.35 L-24.3 -4.45 -23.75 -4.65 -23.75 -4.6 -23.9 -4.35 -24.9 -4.35 M-13.45 -7.6 L-13.3 -7.85 -13.05 -7.95 -8.3 -7.75 -8.3 -6.5 -10.85 -7.05 -13.45 -7.6 M-7.55 -6.3 L-6.25 -7.3 -5.65 -7.15 -5.15 -7.1 -4.95 -6.05 -6.05 -6.0 -7.55 -6.3 M-4.7 -5.7 L-4.35 -5.7 -3.05 -5.7 -3.1 -5.0 -4.6 -4.85 -19.45 -4.9 -19.3 -5.1 -17.7 -5.35 -16.15 -5.55 -15.7 -5.35 -15.45 -5.25 -15.25 -5.35 -14.9 -5.6 -12.45 -5.75 -13.65 -5.95 -14.6 -6.05 -13.8 -7.2 -12.2 -7.1 -10.45 -6.9 -9.05 -6.35 -4.7 -5.7 M-3.65 -6.1 L-3.5 -6.4 -3.2 -6.15 -3.65 -6.1 M-18.75 -5.7 L-18.1 -6.45 -17.95 -6.55 -17.0 -6.05 -18.2 -5.8 -18.75 -5.7" fill="#d2bd90" fill-rule="evenodd" stroke="none"/>
    <path d="M24.3 11.1 L24.2 10.85 24.25 10.55 24.3 10.5 24.4 11.45 24.3 11.1 M0.5 13.6 L0.85 13.55 0.5 13.95 0.5 13.6 M0.65 17.9 L0.95 18.55 0.5 18.5 0.5 17.65 0.55 17.75 0.65 17.9 M17.05 13.95 L16.95 13.75 17.0 13.6 17.2 13.6 17.05 13.95" fill="#000000" fill-rule="evenodd" stroke="none"/>
    <path d="M6.9 6.0 L6.85 5.8 6.85 5.75 6.7 5.75 6.5 6.05 6.45 6.6 6.5 7.3 6.7 7.5 6.85 7.4 6.9 6.0 M7.6 6.7 L7.45 8.15 Q7.3 8.55 6.75 8.55 6.0 8.55 5.85 7.95 L5.75 6.65 5.95 5.05 Q6.2 4.55 7.0 4.8 7.45 4.8 7.55 5.3 L7.6 6.7 M9.9 6.65 Q9.9 7.95 9.7 8.2 L9.0 8.5 7.9 8.5 7.9 7.5 8.15 7.5 8.15 5.75 7.9 5.75 Q7.9 4.4 8.15 4.4 L8.5 4.55 9.1 4.8 9.65 5.0 9.8 5.25 9.9 6.65 M8.75 5.75 L8.75 7.5 9.15 7.4 9.2 6.65 9.15 5.75 8.75 5.75 M3.4 5.75 L3.2 5.75 2.75 8.5 2.2 8.5 1.95 6.95 1.7 8.5 1.1 8.5 0.65 5.75 0.4 5.75 0.4 4.8 1.4 4.8 1.4 5.75 1.25 5.75 1.45 7.2 1.7 5.75 1.6 5.6 1.55 4.8 2.45 4.8 2.45 5.75 2.3 5.75 2.55 7.15 2.75 5.75 2.55 5.75 2.55 4.8 3.4 4.8 3.4 5.75 M5.45 6.65 L5.3 8.15 4.55 8.55 Q3.95 8.55 3.75 8.05 3.6 7.75 3.6 6.6 3.6 5.4 3.8 5.1 3.95 4.8 4.7 4.75 L5.4 5.25 5.45 6.65 M4.35 6.95 L4.4 7.25 4.55 7.5 4.7 7.3 4.75 7.0 4.75 5.8 4.7 5.75 4.55 5.75 4.35 5.9 4.35 6.95 M-1.35 5.75 L-1.35 6.4 -1.75 6.4 -1.75 4.8 0.3 4.8 0.3 6.4 -0.05 6.4 -0.05 5.75 -0.4 5.75 -0.4 7.5 -0.2 7.5 -0.2 8.5 -1.3 8.5 -1.3 7.5 -1.05 7.5 -1.05 5.75 -1.35 5.75 M-6.85 -9.25 L-7.0 -9.1 -7.45 -9.55 -5.9 -11.05 -4.5 -12.1 -3.1 -11.75 -2.1 -11.15 -3.1 -10.55 -1.75 -10.9 -1.5 -10.5 -1.35 -10.05 -6.85 -8.85 -6.7 -9.2 -2.55 -11.05 -4.35 -11.6 -6.85 -9.25 M-0.2 -9.75 L-0.35 -9.6 -0.9 -9.45 -3.45 -9.0 -6.45 -8.45 -6.9 -7.95 -7.45 -7.2 -7.6 -7.35 Q-7.1 -8.3 -6.4 -8.65 L-3.15 -9.4 -2.15 -9.55 -0.95 -9.75 -0.2 -9.75 M-7.55 -8.1 L-7.65 -7.95 -7.7 -8.65 -7.7 -9.25 -7.2 -8.95 -7.55 -8.1 M-2.6 5.05 L-2.6 4.8 -2.0 4.8 -2.0 6.1 -2.65 6.1 -2.7 5.8 -2.8 5.75 -2.95 5.75 -3.05 5.9 -2.45 6.45 Q-1.85 6.85 -1.85 7.4 L-2.05 8.3 Q-2.2 8.55 -2.55 8.55 L-3.05 8.25 -3.05 8.5 -3.65 8.5 -3.65 7.05 -3.05 7.05 -3.0 7.45 -2.85 7.5 -2.6 7.25 -3.15 6.7 Q-3.75 6.2 -3.75 5.75 -3.75 5.0 -3.4 4.8 -3.05 4.55 -2.6 5.05 M-10.0 5.75 L-10.0 6.4 -10.45 6.4 -10.45 4.8 -8.35 4.8 -8.35 6.4 -8.75 6.4 -8.75 5.75 -9.05 5.75 -9.05 7.5 -8.8 7.5 -8.8 8.5 -9.95 8.5 -9.95 7.5 -9.7 7.5 -9.7 5.75 -10.0 5.75 M-6.3 6.7 Q-6.3 7.85 -6.45 8.15 -6.6 8.55 -7.2 8.55 -7.85 8.55 -8.05 8.05 L-8.15 6.65 -8.0 5.15 Q-7.85 4.8 -7.2 4.7 -6.55 4.85 -6.4 5.3 L-6.3 6.7 M-7.0 6.0 L-7.05 5.8 -7.1 5.75 -7.2 5.75 -7.45 6.05 -7.45 6.6 -7.4 7.3 -7.2 7.5 -7.05 7.4 -7.0 6.0 M-5.9 7.5 L-5.45 4.8 -4.55 4.8 -4.1 7.5 -3.9 7.5 -3.9 8.5 -5.0 8.5 -5.0 7.5 -4.75 7.5 -4.85 7.0 -5.35 7.0 -5.45 7.5 -5.15 7.5 -5.15 8.5 -6.1 8.5 -6.1 7.5 -5.9 7.5 M-5.1 5.5 L-5.3 6.6 -4.9 6.6 -5.1 5.5" fill="#e4a318" fill-rule="evenodd" stroke="none"/>
    <path d="M-0.25 -9.9 L0.25 -9.7 -0.2 -9.75 -0.95 -9.75 -0.25 -9.9" fill="#592c0d" fill-rule="evenodd" stroke="none"/>
  </g>
</svg>
