<?xml version="1.0" encoding="UTF-8" standalone="no"?>
<svg xmlns:ffdec="https://www.free-decompiler.com/flash" xmlns:xlink="http://www.w3.org/1999/xlink" ffdec:objectType="shape" height="59.05px" width="54.7px" xmlns="http://www.w3.org/2000/svg">
  <g transform="matrix(1.0, 0.0, 0.0, 1.0, -9.9, 53.3)">
    <path d="M50.45 -35.25 L52.7 -34.95 55.65 -34.35 Q54.85 -32.95 54.9 -31.15 L54.6 -30.1 54.15 -29.55 40.2 -28.45 37.4 -28.4 37.0 -28.35 Q36.6 -28.55 36.75 -29.15 37.25 -31.95 42.45 -33.9 L42.7 -34.05 Q46.4 -35.45 50.45 -35.25 M51.5 -40.55 L53.5 -39.4 Q54.15 -38.8 54.25 -38.0 53.55 -37.55 51.5 -36.85 L42.8 -34.35 42.2 -34.25 34.15 -32.2 32.45 -31.85 31.95 -31.75 31.5 -31.8 Q31.2 -32.0 31.5 -31.95 L31.55 -32.5 Q33.1 -40.95 37.45 -44.05 40.05 -46.0 45.3 -46.35 L45.65 -46.1 45.6 -45.15 44.45 -42.25 44.45 -42.2 49.05 -41.3 51.5 -40.55 M35.85 -21.8 L35.95 -21.8 37.3 -22.0 37.8 -22.05 41.7 -22.45 46.9 -22.9 51.35 -24.0 51.8 -24.05 55.25 -24.5 55.8 -24.3 57.2 -23.45 Q58.2 -22.75 58.1 -22.3 L57.75 -21.45 Q57.15 -20.45 55.5 -19.15 53.0 -17.15 50.3 -16.75 51.5 -15.3 53.85 -13.05 L54.2 -12.65 Q55.1 -11.9 55.0 -11.55 54.75 -10.05 51.1 -11.05 49.25 -11.6 43.3 -15.45 36.9 -19.7 35.85 -21.8 M32.25 -13.75 Q34.3 -13.45 38.55 -9.65 43.3 -5.5 42.8 -2.9 L42.35 -2.25 Q41.75 -1.8 40.85 -2.05 37.65 -2.85 34.45 -7.75 31.6 -12.25 32.25 -13.75 M45.25 -6.3 Q43.15 -6.9 42.4 -9.15 41.8 -11.3 42.5 -12.6 L43.8 -12.4 Q44.55 -12.2 46.8 -10.5 49.15 -8.5 48.95 -7.6 48.6 -5.4 45.25 -6.3" fill="#ffffff" fill-rule="evenodd" stroke="none"/>
    <path d="M28.85 -28.5 Q29.85 -34.3 31.6 -40.9 32.0 -43.45 32.45 -44.25 L34.85 -48.5 Q36.0 -50.6 40.05 -49.5 L45.35 -47.7 48.0 -46.65 50.3 -45.75 50.45 -45.75 48.55 -44.55 48.55 -44.45 Q49.05 -43.0 50.3 -42.3 51.0 -41.9 52.0 -41.75 54.05 -41.45 55.0 -40.75 L55.8 -39.9 56.9 -37.95 58.25 -34.55 58.65 -33.65 59.15 -32.15 58.7 -31.2 57.3 -30.1 Q55.8 -28.65 55.65 -28.05 L59.25 -27.25 59.35 -27.3 59.9 -22.1 59.5 -20.95 Q58.9 -19.5 57.15 -18.25 55.95 -17.45 54.8 -17.05 55.75 -16.25 57.2 -15.85 L58.7 -15.45 Q57.8 -13.05 56.45 -11.0 53.65 -6.1 48.35 -2.95 42.15 1.05 38.4 0.05 35.45 -0.75 34.45 -1.75 32.8 -3.45 31.6 -8.35 30.9 -11.1 29.55 -13.7 28.9 -15.05 28.5 -18.2 L28.5 -19.35 28.6 -19.65 29.75 -22.4 Q30.4 -19.15 32.6 -16.65 34.8 -14.2 37.9 -13.35 L39.9 -13.05 40.95 -13.25 35.35 -17.8 Q32.4 -20.55 31.65 -24.1 32.45 -24.65 36.35 -24.9 L38.8 -25.1 43.35 -25.7 42.05 -26.7 40.35 -27.3 39.8 -27.5 35.85 -28.15 32.9 -28.0 33.7 -29.05 33.65 -29.25 32.25 -29.0 31.4 -28.8 30.65 -28.55 28.95 -28.25 28.85 -28.5 M28.4 -48.05 L29.25 -48.45 Q28.0 -46.95 23.3 -37.5 L23.7 -42.15 Q24.45 -46.15 25.6 -46.9 27.1 -47.3 28.4 -48.05 M24.1 -28.15 Q24.0 -27.5 23.75 -27.45 L23.2 -27.45 Q19.65 -30.45 18.7 -32.8 17.95 -34.85 18.6 -38.1 18.8 -39.0 19.25 -39.05 20.05 -39.3 20.5 -39.65 20.3 -35.9 22.3 -31.9 24.2 -28.6 24.1 -28.15 M51.5 -40.55 L49.05 -41.3 44.45 -42.2 44.45 -42.25 45.6 -45.15 45.65 -46.1 45.3 -46.35 Q40.05 -46.0 37.45 -44.05 33.1 -40.95 31.55 -32.5 L31.5 -31.95 Q31.2 -32.0 31.5 -31.8 L31.95 -31.75 32.45 -31.85 34.15 -32.2 42.2 -34.25 42.8 -34.35 51.5 -36.85 Q53.55 -37.55 54.25 -38.0 54.15 -38.8 53.5 -39.4 L51.5 -40.55 M50.45 -35.25 Q46.4 -35.45 42.7 -34.05 L42.45 -33.9 Q37.25 -31.95 36.75 -29.15 36.6 -28.55 37.0 -28.35 L37.4 -28.4 40.2 -28.45 54.15 -29.55 54.6 -30.1 54.9 -31.15 Q54.85 -32.95 55.65 -34.35 L52.7 -34.95 50.45 -35.25 M20.75 -20.3 Q21.35 -20.15 21.35 -19.8 L21.25 -18.95 18.6 -13.65 Q18.25 -11.55 18.85 -9.45 18.7 -8.55 18.25 -9.0 17.05 -9.7 16.4 -11.55 15.7 -13.0 15.9 -13.95 16.35 -16.5 17.9 -18.55 19.55 -20.6 20.75 -20.3 M16.4 -22.9 L17.5 -22.15 Q18.0 -21.55 17.8 -20.95 17.8 -20.35 17.2 -20.1 L15.9 -19.95 Q15.15 -20.15 14.75 -20.75 14.3 -21.3 14.4 -21.9 14.5 -22.45 15.1 -22.75 L16.4 -22.9 M35.85 -21.8 Q36.9 -19.7 43.3 -15.45 49.25 -11.6 51.1 -11.05 54.75 -10.05 55.0 -11.55 55.1 -11.9 54.2 -12.65 L53.85 -13.05 Q51.5 -15.3 50.3 -16.75 53.0 -17.15 55.5 -19.15 57.15 -20.45 57.75 -21.45 L58.1 -22.3 Q58.2 -22.75 57.2 -23.45 L55.8 -24.3 55.25 -24.5 51.8 -24.05 51.35 -24.0 46.9 -22.9 41.7 -22.45 37.8 -22.05 37.3 -22.0 35.95 -21.8 35.85 -21.8 M27.5 -14.25 L27.8 -13.95 Q28.8 -12.45 29.35 -8.9 30.0 -3.55 30.55 -1.85 L27.4 -1.75 27.2 -1.7 26.0 -2.15 Q22.8 -3.25 23.2 -5.25 25.05 -10.25 26.2 -12.45 27.05 -14.2 27.5 -14.25 M32.25 -13.75 Q31.6 -12.25 34.45 -7.75 37.65 -2.85 40.85 -2.05 41.75 -1.8 42.35 -2.25 L42.8 -2.9 Q43.3 -5.5 38.55 -9.65 34.3 -13.45 32.25 -13.75 M45.25 -6.3 Q48.6 -5.4 48.95 -7.6 49.15 -8.5 46.8 -10.5 44.55 -12.2 43.8 -12.4 L42.5 -12.6 Q41.8 -11.3 42.4 -9.15 43.15 -6.9 45.25 -6.3" fill="#d1d1d1" fill-rule="evenodd" stroke="none"/>
    <path d="M28.5 -19.35 L28.5 -18.2 Q28.9 -15.05 29.55 -13.7 30.9 -11.1 31.6 -8.35 32.8 -3.45 34.45 -1.75 35.45 -0.75 38.4 0.05 42.15 1.05 48.35 -2.95 53.65 -6.1 56.45 -11.0 57.8 -13.05 58.7 -15.45 L57.2 -15.85 Q55.75 -16.25 54.8 -17.05 55.95 -17.45 57.15 -18.25 58.9 -19.5 59.5 -20.95 L59.9 -22.1 59.35 -27.3 59.25 -27.25 55.65 -28.05 Q55.8 -28.65 57.3 -30.1 L58.7 -31.2 59.15 -32.15 58.65 -33.65 58.25 -34.55 56.9 -37.95 55.8 -39.9 55.0 -40.75 Q54.05 -41.45 52.0 -41.75 51.0 -41.9 50.3 -42.3 49.05 -43.0 48.55 -44.45 L48.55 -44.55 50.45 -45.75 50.3 -45.75 48.0 -46.65 45.35 -47.7 40.05 -49.5 Q36.0 -50.6 34.85 -48.5 L32.45 -44.25 Q32.0 -43.45 31.6 -40.9 29.85 -34.3 28.85 -28.5 28.6 -30.55 29.0 -36.15 L29.35 -43.1 29.35 -43.25 Q28.4 -41.95 27.4 -39.6 26.65 -37.65 26.4 -36.05 25.05 -29.0 26.35 -27.0 L25.45 -27.45 24.65 -27.5 Q24.55 -26.85 26.15 -25.3 L23.2 -25.35 21.25 -25.45 17.55 -27.7 17.0 -27.55 Q17.7 -26.15 19.55 -24.45 22.3 -22.15 25.1 -22.0 L23.45 -18.9 22.35 -16.6 22.15 -14.8 22.3 -13.35 22.35 -13.1 25.0 -16.95 26.65 -19.75 27.15 -20.55 26.85 -19.1 26.8 -18.2 27.0 -17.8 27.1 -17.65 27.4 -17.4 Q27.9 -17.45 28.5 -19.35 M28.95 -28.25 L30.65 -28.55 31.4 -28.8 32.25 -29.0 33.65 -29.25 33.7 -29.05 32.9 -28.0 35.85 -28.15 39.8 -27.5 40.35 -27.3 42.05 -26.7 43.35 -25.7 38.8 -25.1 36.35 -24.9 Q32.45 -24.65 31.65 -24.1 32.4 -20.55 35.35 -17.8 L40.95 -13.25 39.9 -13.05 37.9 -13.35 Q34.8 -14.2 32.6 -16.65 30.4 -19.15 29.75 -22.4 L28.6 -19.65 Q28.1 -20.6 28.45 -23.35 L28.45 -23.4 Q29.15 -27.05 28.95 -28.25 M28.4 -48.05 Q27.1 -47.3 25.6 -46.9 24.45 -46.15 23.7 -42.15 L23.3 -37.5 Q28.0 -46.95 29.25 -48.45 L28.4 -48.05 M24.1 -28.15 Q24.2 -28.6 22.3 -31.9 20.3 -35.9 20.5 -39.65 20.05 -39.3 19.25 -39.05 18.8 -39.0 18.6 -38.1 17.95 -34.85 18.7 -32.8 19.65 -30.45 23.2 -27.45 L23.75 -27.45 Q24.0 -27.5 24.1 -28.15 M18.95 -44.55 L18.65 -44.15 18.6 -43.95 18.95 -44.55 M53.9 -46.45 L55.0 -45.55 Q56.75 -44.15 58.1 -42.4 L59.05 -41.05 59.85 -39.8 Q61.1 -37.8 61.9 -35.5 L62.8 -31.9 63.1 -30.0 Q63.55 -26.15 63.0 -21.55 L62.6 -18.25 Q62.15 -15.75 60.15 -11.95 L58.55 -9.1 Q56.7 -6.05 54.4 -3.65 44.85 6.5 32.55 3.25 L27.95 1.75 26.3 1.05 Q17.7 -2.85 13.95 -10.4 9.85 -18.5 11.8 -29.35 12.55 -33.75 15.9 -39.35 16.05 -38.8 18.4 -43.6 15.4 -39.1 15.85 -40.2 16.35 -41.7 17.4 -43.1 20.5 -47.7 26.85 -49.4 33.7 -51.5 36.15 -51.8 39.3 -52.35 44.55 -51.0 48.3 -50.0 51.25 -48.25 L53.9 -46.45 M16.4 -22.9 L15.1 -22.75 Q14.5 -22.45 14.4 -21.9 14.3 -21.3 14.75 -20.75 15.15 -20.15 15.9 -19.95 L17.2 -20.1 Q17.8 -20.35 17.8 -20.95 18.0 -21.55 17.5 -22.15 L16.4 -22.9 M20.75 -20.3 Q19.55 -20.6 17.9 -18.55 16.35 -16.5 15.9 -13.95 15.7 -13.0 16.4 -11.55 17.05 -9.7 18.25 -9.0 18.7 -8.55 18.85 -9.45 18.25 -11.55 18.6 -13.65 L21.25 -18.95 21.35 -19.8 Q21.35 -20.15 20.75 -20.3 M27.5 -14.25 Q27.05 -14.2 26.2 -12.45 25.05 -10.25 23.2 -5.25 22.8 -3.25 26.0 -2.15 L27.2 -1.7 27.4 -1.75 30.55 -1.85 Q30.0 -3.55 29.35 -8.9 28.8 -12.45 27.8 -13.95 L27.5 -14.25" fill="#989898" fill-rule="evenodd" stroke="none"/>
    <path d="M28.5 -19.35 Q27.9 -17.45 27.4 -17.4 L27.1 -17.65 27.0 -17.8 26.8 -18.2 26.85 -19.1 27.15 -20.55 26.65 -19.75 25.0 -16.95 22.35 -13.1 22.3 -13.35 22.15 -14.8 22.35 -16.6 23.45 -18.9 25.1 -22.0 Q22.3 -22.15 19.55 -24.45 17.7 -26.15 17.0 -27.55 L17.55 -27.7 21.25 -25.45 23.2 -25.35 26.15 -25.3 Q24.55 -26.85 24.65 -27.5 L25.45 -27.45 26.35 -27.0 Q25.05 -29.0 26.4 -36.05 26.65 -37.65 27.4 -39.6 28.4 -41.95 29.35 -43.25 L29.35 -43.1 29.0 -36.15 Q28.6 -30.55 28.85 -28.5 L28.95 -28.25 Q29.15 -27.05 28.45 -23.4 L28.45 -23.35 Q28.1 -20.6 28.6 -19.65 L28.5 -19.35 M53.9 -46.45 L51.25 -48.25 Q48.3 -50.0 44.55 -51.0 39.3 -52.35 36.15 -51.8 33.7 -51.5 26.85 -49.4 20.5 -47.7 17.4 -43.1 16.35 -41.7 15.85 -40.2 15.4 -39.1 18.4 -43.6 16.05 -38.8 15.9 -39.35 12.55 -33.75 11.8 -29.35 9.85 -18.5 13.95 -10.4 17.7 -2.85 26.3 1.05 L27.95 1.75 32.55 3.25 Q44.85 6.5 54.4 -3.65 56.7 -6.05 58.55 -9.1 L60.15 -11.95 Q62.15 -15.75 62.6 -18.25 L63.0 -21.55 Q63.55 -26.15 63.1 -30.0 L62.8 -31.9 61.9 -35.5 Q61.1 -37.8 59.85 -39.8 L59.05 -41.05 58.1 -42.4 Q56.75 -44.15 55.0 -45.55 L53.9 -46.45 M62.9 -36.1 L64.0 -31.95 64.2 -30.85 Q64.7 -27.85 64.55 -24.8 L64.6 -24.05 64.35 -21.6 63.55 -17.1 Q62.35 -11.7 59.95 -7.45 57.05 -2.45 52.65 0.9 43.6 7.95 31.25 4.7 L28.4 3.85 26.55 3.15 26.55 3.1 Q15.25 -1.8 11.6 -14.1 9.0 -22.5 10.35 -29.8 13.2 -45.4 24.9 -50.75 34.4 -55.15 46.6 -51.95 50.25 -51.0 53.3 -49.05 L53.35 -49.0 55.95 -47.0 56.65 -46.35 59.45 -43.0 61.0 -40.35 62.05 -38.3 62.9 -36.1" fill="#606060" fill-rule="evenodd" stroke="none"/>
  </g>
</svg>
