<?xml version="1.0" encoding="UTF-8" standalone="no"?>
<svg xmlns:ffdec="https://www.free-decompiler.com/flash" xmlns:xlink="http://www.w3.org/1999/xlink" ffdec:objectType="shape" height="70.45px" width="73.3px" xmlns="http://www.w3.org/2000/svg">
  <g transform="matrix(1.0, 0.0, 0.0, 1.0, 36.65, 35.2)">
    <path d="M16.55 -31.45 L12.8 -32.75 M8.75 -33.65 L6.1 -34.05 4.7 -34.2 M35.25 -7.95 L35.25 -8.2 34.8 -12.15 M33.75 -15.9 L32.05 -19.45 M34.6 0.15 L34.2 -1.75 34.2 -1.8 Q33.95 -2.85 34.1 -3.8 M29.65 -22.7 L26.85 -25.45 M23.55 -27.8 L20.15 -29.75 M32.25 23.25 L33.6 21.05 34.15 19.85 M35.4 16.15 L35.9 12.2 M35.75 8.15 L35.25 4.15 M3.25 34.3 L7.25 34.05 M11.15 33.8 L15.1 33.15 M26.2 28.6 L28.5 27.05 29.5 26.25 M18.95 32.05 L22.65 30.55 M-7.25 -34.0 L-11.25 -33.3 M-15.05 -32.3 L-18.75 -30.85 M-22.2 -29.0 L-25.55 -26.75 M-28.55 -24.15 L-31.1 -21.4 -31.3 -21.1 M-33.55 -17.8 Q-34.5 -16.05 -35.1 -14.15 M-35.85 -10.2 L-35.9 -7.85 -35.75 -6.0 M-34.6 -2.1 L-34.5 -1.55 -34.2 1.95 M-34.2 6.0 L-34.2 6.9 -34.3 7.55 -34.35 7.6 -34.95 9.8 M-35.15 13.8 Q-35.0 15.65 -34.4 17.5 L-34.3 17.8 M-27.65 27.6 L-24.35 29.85 M-4.65 34.45 L-1.95 34.5 -0.75 34.5 M-12.75 33.6 L-8.75 34.2 M-20.6 31.55 L-19.7 31.85 -19.75 31.85 -16.75 32.75 M-32.7 21.45 L-30.45 24.8 M0.7 -34.45 L-3.25 -34.4" fill="none" stroke="#5fc5c9" stroke-linecap="round" stroke-linejoin="round" stroke-width="1.5"/>
  </g>
</svg>
