<?xml version="1.0" encoding="UTF-8" standalone="no"?>
<svg xmlns:ffdec="https://www.free-decompiler.com/flash" xmlns:xlink="http://www.w3.org/1999/xlink" ffdec:objectType="shape" height="60.7px" width="39.5px" xmlns="http://www.w3.org/2000/svg">
  <g transform="matrix(1.0, 0.0, 0.0, 1.0, 9.0, 9.45)">
    <path d="M-1.85 5.85 Q-3.75 1.9 -3.75 0.45 -3.75 -4.35 -0.85 -2.25 L1.6 0.25 1.7 1.25 Q1.7 3.2 0.3 4.55 -0.65 5.5 -1.85 5.85 M6.0 19.6 L7.2 19.45 Q9.15 19.45 10.5 20.8 11.9 22.2 11.9 24.15 11.9 26.05 10.55 27.4 L8.05 23.2 6.0 19.6 M15.85 37.1 L16.5 37.05 Q18.45 37.05 19.8 38.4 L20.1 38.75 Q20.8 41.45 20.55 42.55 20.3 43.75 19.1 42.35 17.85 40.95 15.95 37.3 L15.85 37.1 M17.45 31.2 L16.8 29.7 17.45 31.25 17.45 31.2" fill="#7cf1ff" fill-rule="evenodd" stroke="none"/>
    <path d="M-7.6 0.2 Q-7.3 -1.1 -6.35 -2.1 -4.95 -3.45 -3.0 -3.45 -1.05 -3.45 0.3 -2.1 1.35 -1.05 1.6 0.25 L-0.85 -2.25 Q-3.75 -4.35 -3.75 0.45 -3.75 1.9 -1.85 5.85 L-3.0 5.95 -4.35 5.8 -7.6 0.2 M16.8 29.7 L16.7 28.65 Q16.7 27.1 17.55 25.95 L20.8 33.35 Q19.25 33.15 18.05 31.95 L17.45 31.25 16.8 29.7 M10.4 11.7 Q9.0 11.4 7.95 10.35 6.6 9.0 6.6 7.05 6.6 6.25 6.85 5.55 L10.4 11.7 M4.05 20.65 Q4.9 19.85 6.0 19.6 L8.05 23.2 10.55 27.4 10.5 27.45 8.4 28.7 8.35 28.7 4.05 20.65 M13.3 38.25 Q14.4 37.25 15.85 37.1 L15.95 37.3 Q17.85 40.95 19.1 42.35 20.3 43.75 20.55 42.55 20.8 41.45 20.1 38.75 21.2 40.0 21.2 41.75 21.2 43.7 19.8 45.05 19.0 45.85 18.05 46.2 16.05 43.4 13.3 38.25" fill="#36cdde" fill-rule="evenodd" stroke="none"/>
    <path d="M20.85 24.0 L21.8 25.8 24.75 31.9 24.7 31.95 Q23.35 33.35 21.4 33.35 L20.8 33.35 17.55 25.95 18.05 25.3 Q19.25 24.15 20.85 24.0 M13.65 11.15 Q12.6 11.75 11.3 11.75 L10.4 11.7 6.85 5.55 Q7.15 4.5 7.95 3.7 L8.4 3.35 9.55 4.9 13.65 11.15" fill="#1ea6b5" fill-rule="evenodd" stroke="none"/>
    <path d="M3.15 21.7 L3.85 20.8 4.05 20.65 8.35 28.7 7.2 28.85 7.15 28.85 4.2 23.55 3.15 21.7 M-4.35 5.8 Q-5.45 5.45 -6.35 4.55 -7.7 3.2 -7.7 1.25 L-7.6 0.2 -4.35 5.8 M20.85 24.0 L21.4 23.95 22.65 24.1 22.35 23.55 25.75 30.5 24.75 31.9 21.8 25.8 20.85 24.0 M14.8 10.2 L14.6 10.35 13.65 11.15 9.55 4.9 8.4 3.35 Q9.05 2.8 9.8 2.6 L14.8 10.2 M18.05 46.2 L16.5 46.45 16.35 46.45 12.6 39.1 13.15 38.4 13.3 38.25 Q16.05 43.4 18.05 46.2" fill="#0a373d" fill-rule="evenodd" stroke="none"/>
    <path d="M-7.6 0.2 L-7.95 -0.4 -9.0 -2.2 Q-8.4 -4.55 -7.65 -5.7 L-6.3 -7.55 Q-1.2 -7.5 6.85 5.55 6.6 6.25 6.6 7.05 6.6 9.0 7.95 10.35 9.0 11.4 10.4 11.7 L15.7 22.05 17.55 25.95 Q16.7 27.1 16.7 28.65 L16.8 29.7 16.6 29.15 15.85 27.4 9.7 14.4 6.85 9.2 3.85 3.9 1.6 0.25 Q1.35 -1.05 0.3 -2.1 -1.05 -3.45 -3.0 -3.45 -4.95 -3.45 -6.35 -2.1 -7.3 -1.1 -7.6 0.2 M4.05 20.65 L-4.35 5.8 -3.0 5.95 -1.85 5.85 0.65 10.55 5.45 18.65 6.0 19.6 Q4.9 19.85 4.05 20.65 M10.55 27.4 L10.75 27.7 13.1 31.75 15.85 37.1 Q14.4 37.25 13.3 38.25 L11.15 34.1 9.1 30.1 8.4 28.7 10.5 27.45 10.55 27.4 M20.1 38.75 L19.95 38.05 19.8 37.6 17.85 32.25 17.45 31.2 17.45 31.25 18.05 31.95 Q19.25 33.15 20.8 33.35 24.05 40.95 26.45 48.25 24.2 49.55 21.6 49.6 20.4 49.6 18.05 46.2 19.0 45.85 19.8 45.05 21.2 43.7 21.2 41.75 21.2 40.0 20.1 38.75" fill="#3c3c3c" fill-rule="evenodd" stroke="none"/>
    <path d="M17.55 25.95 L15.7 22.05 10.4 11.7 11.3 11.75 Q12.6 11.75 13.65 11.15 17.0 16.55 20.85 24.0 19.25 24.15 18.05 25.3 L17.55 25.95 M6.85 5.55 Q-1.2 -7.5 -6.3 -7.55 L-2.9 -9.45 Q-1.4 -8.9 1.4 -5.7 L8.4 3.35 7.95 3.7 Q7.15 4.5 6.85 5.55 M20.8 33.35 L21.4 33.35 Q23.35 33.35 24.7 31.95 L24.75 31.9 Q28.75 40.6 28.95 44.65 27.85 46.95 26.45 48.25 24.05 40.95 20.8 33.35" fill="#313131" fill-rule="evenodd" stroke="none"/>
    <path d="M-9.0 -2.2 L-7.95 -0.4 -7.6 0.2 -7.7 1.25 Q-7.7 3.2 -6.35 4.55 -5.45 5.45 -4.35 5.8 L4.05 20.65 3.85 20.8 3.15 21.7 Q-0.5 15.2 -5.35 7.45 -8.9 1.35 -9.0 -2.2 M22.35 23.55 L22.65 24.1 21.4 23.95 20.85 24.0 Q17.0 16.55 13.65 11.15 L14.6 10.35 14.8 10.2 17.35 14.5 17.55 14.8 17.7 15.05 22.35 23.55 M24.75 31.9 L25.75 30.5 25.9 30.85 26.6 32.45 Q30.5 41.3 30.5 44.95 30.5 48.7 26.7 50.35 L22.75 51.25 Q20.5 51.25 19.25 50.35 17.95 49.4 16.35 46.5 L16.35 46.45 16.5 46.45 18.05 46.2 Q20.4 49.6 21.6 49.6 24.2 49.55 26.45 48.25 27.85 46.95 28.95 44.65 28.75 40.6 24.75 31.9 M8.4 3.35 L1.4 -5.7 Q-1.4 -8.9 -2.9 -9.45 1.8 -8.8 9.8 2.6 9.05 2.8 8.4 3.35 M8.4 28.7 L9.1 30.1 11.15 34.1 13.3 38.25 13.15 38.4 12.6 39.1 7.35 29.15 7.15 28.85 7.2 28.85 8.35 28.7 8.4 28.7" fill="#101010" fill-rule="evenodd" stroke="none"/>
    <path d="M1.6 0.25 L3.85 3.9 6.85 9.2 9.7 14.4 15.85 27.4 16.6 29.15 16.8 29.7 17.45 31.2 17.85 32.25 19.8 37.6 19.95 38.05 20.1 38.75 19.8 38.4 Q18.45 37.05 16.5 37.05 L15.85 37.1 13.1 31.75 10.75 27.7 10.55 27.4 Q11.9 26.05 11.9 24.15 11.9 22.2 10.5 20.8 9.15 19.45 7.2 19.45 L6.0 19.6 5.45 18.65 0.65 10.55 -1.85 5.85 Q-0.65 5.5 0.3 4.55 1.7 3.2 1.7 1.25 L1.6 0.25" fill="#4a4a4a" fill-rule="evenodd" stroke="none"/>
  </g>
</svg>
