<?xml version="1.0" encoding="UTF-8" standalone="no"?>
<svg xmlns:ffdec="https://www.free-decompiler.com/flash" xmlns:xlink="http://www.w3.org/1999/xlink" ffdec:objectType="shape" height="14.8px" width="64.0px" xmlns="http://www.w3.org/2000/svg">
  <g transform="matrix(1.0, 0.0, 0.0, 1.0, 0.4, 0.8)">
    <path d="M56.5 0.0 Q59.2 0.0 61.1 1.9 63.0 3.8 63.0 6.5 63.0 9.2 61.1 11.1 59.2 13.0 56.5 13.0 L6.5 13.0 Q3.8 13.0 1.9 11.1 0.0 9.2 0.0 6.5 0.0 3.8 1.9 1.9 3.8 0.0 6.5 0.0 L56.5 0.0 M6.5 1.0 Q4.2 1.0 2.6 2.6 1.0 4.2 1.0 6.5 1.0 8.8 2.6 10.4 4.2 12.0 6.5 12.0 L56.5 12.0 Q58.8 12.0 60.4 10.4 62.0 8.8 62.0 6.5 62.0 4.2 60.4 2.6 58.8 1.0 56.5 1.0 L6.5 1.0" fill="#545454" fill-rule="evenodd" stroke="none"/>
    <path d="M56.5 0.0 L6.5 0.0 Q3.8 0.0 1.9 1.9 0.0 3.8 0.0 6.5 0.0 9.2 1.9 11.1 3.8 13.0 6.5 13.0 L56.5 13.0 Q59.2 13.0 61.1 11.1 63.0 9.2 63.0 6.5 63.0 3.8 61.1 1.9 59.2 0.0 56.5 0.0 M-0.4 -0.8 L63.6 -0.8 63.6 14.0 -0.4 14.0 -0.4 -0.8" fill="#4f4f4f" fill-rule="evenodd" stroke="none"/>
  </g>
</svg>
