<?xml version="1.0" encoding="UTF-8" standalone="no"?>
<svg xmlns:ffdec="https://www.free-decompiler.com/flash" xmlns:xlink="http://www.w3.org/1999/xlink" ffdec:objectType="shape" height="9.9px" width="9.8px" xmlns="http://www.w3.org/2000/svg">
  <g transform="matrix(1.0, 0.0, 0.0, 1.0, 0.0, 0.0)">
    <path d="M5.6 0.7 L5.5 0.7 4.9 0.75 4.3 0.7 4.25 0.7 4.3 0.65 4.9 0.6 5.5 0.65 5.6 0.7 M4.4 1.05 L4.9 1.1 5.25 1.1 5.35 1.7 4.95 1.75 4.85 1.75 4.75 1.75 4.6 1.75 4.4 1.7 4.4 1.05 M7.8 4.05 Q7.8 4.75 7.1 5.3 6.4 5.8 5.4 5.8 4.4 5.8 3.7 5.3 3.0 4.75 3.0 4.05 3.0 3.35 3.7 2.85 4.4 2.3 5.4 2.3 6.4 2.3 7.1 2.85 7.8 3.35 7.8 4.05 M5.45 3.55 L5.3 3.15 4.85 2.95 4.45 3.15 4.25 3.55 4.45 4.0 4.85 4.15 5.3 4.0 5.45 3.55 M6.85 3.45 L6.75 3.25 Q6.6 3.1 6.5 3.1 L6.25 3.25 6.15 3.45 6.25 3.75 6.5 3.8 6.75 3.75 6.85 3.45" fill="#ffcb15" fill-rule="evenodd" stroke="none"/>
    <path d="M4.2 1.0 L4.4 1.05 4.4 1.7 4.3 1.7 4.2 1.65 4.2 1.0 M5.25 1.1 L5.6 1.0 5.65 0.7 5.65 1.65 5.5 1.7 5.35 1.7 5.25 1.1 M5.95 1.85 L5.95 1.8 Q7.1 2.05 7.95 2.9 9.25 4.2 9.25 6.0 9.2 6.4 8.05 6.75 L5.35 7.1 5.6 7.1 4.9 7.15 4.1 7.1 4.05 7.1 1.75 6.75 Q0.65 6.4 0.6 6.0 0.6 4.2 1.85 2.9 2.75 2.05 3.9 1.8 L3.95 1.85 4.2 2.0 4.3 2.05 Q1.8 3.2 1.9 4.85 1.95 6.45 4.6 6.7 7.2 6.95 8.25 5.75 9.3 4.5 7.95 3.3 6.55 2.05 5.6 2.0 L5.95 1.85 M5.65 8.05 L5.65 9.05 Q4.9 9.7 4.2 9.05 L4.2 8.05 Q5.0 8.4 5.65 8.05" fill="#df8600" fill-rule="evenodd" stroke="none"/>
    <path d="M4.9 0.0 L5.35 0.05 5.9 0.2 Q6.15 0.35 6.2 0.65 L6.2 1.25 Q7.45 1.55 8.4 2.55 9.8 3.95 9.8 6.0 9.9 6.85 8.25 7.3 L6.2 7.7 6.2 9.3 Q5.05 10.5 3.6 9.3 L3.6 7.7 1.6 7.3 Q-0.05 6.85 0.0 6.0 0.0 3.95 1.45 2.55 2.4 1.55 3.6 1.25 L3.6 0.7 3.7 0.4 3.95 0.2 4.4 0.05 4.9 0.0 M5.65 0.7 L5.6 0.7 5.5 0.65 4.9 0.6 4.3 0.65 4.25 0.7 4.2 0.7 4.2 1.0 4.2 1.65 3.95 1.85 3.9 1.8 Q2.75 2.05 1.85 2.9 0.6 4.2 0.6 6.0 0.65 6.4 1.75 6.75 L4.05 7.1 4.1 7.1 4.9 7.15 5.6 7.1 5.35 7.1 8.05 6.75 Q9.2 6.4 9.25 6.0 9.25 4.2 7.95 2.9 7.1 2.05 5.95 1.8 L5.95 1.85 5.65 1.65 5.65 0.7 M4.2 8.05 L4.2 9.05 Q4.9 9.7 5.65 9.05 L5.65 8.05 5.65 7.45 4.2 7.45 4.2 8.05" fill="#8a4400" fill-rule="evenodd" stroke="none"/>
    <path d="M5.6 0.7 L5.65 0.7 5.6 1.0 5.25 1.1 4.9 1.1 4.4 1.05 4.2 1.0 4.2 0.7 4.25 0.7 4.3 0.7 4.9 0.75 5.5 0.7 5.6 0.7 M6.85 3.45 L6.75 3.75 6.5 3.8 6.25 3.75 6.15 3.45 6.25 3.25 6.5 3.1 Q6.6 3.1 6.75 3.25 L6.85 3.45 M5.45 3.55 L5.3 4.0 4.85 4.15 4.45 4.0 4.25 3.55 4.45 3.15 4.85 2.95 5.3 3.15 5.45 3.55" fill="#ffeaa3" fill-rule="evenodd" stroke="none"/>
    <path d="M7.8 4.05 Q7.8 3.35 7.1 2.85 6.4 2.3 5.4 2.3 4.4 2.3 3.7 2.85 3.0 3.35 3.0 4.05 3.0 4.75 3.7 5.3 4.4 5.8 5.4 5.8 6.4 5.8 7.1 5.3 7.8 4.75 7.8 4.05 M5.6 2.0 Q6.55 2.05 7.95 3.3 9.3 4.5 8.25 5.75 7.2 6.95 4.6 6.7 1.95 6.45 1.9 4.85 1.8 3.2 4.3 2.05 L5.6 2.0" fill="#efa90a" fill-rule="evenodd" stroke="none"/>
    <path d="M5.65 1.65 L5.95 1.85 5.6 2.0 4.3 2.05 4.2 2.0 3.95 1.85 4.2 1.65 4.3 1.7 4.4 1.7 4.6 1.75 4.75 1.75 4.85 1.75 4.95 1.75 5.35 1.7 5.5 1.7 5.65 1.65 M4.2 8.05 L4.2 7.45 5.65 7.45 5.65 8.05 Q5.0 8.4 4.2 8.05" fill="#b56500" fill-rule="evenodd" stroke="none"/>
  </g>
</svg>
