<?xml version="1.0" encoding="UTF-8" standalone="no"?>
<svg xmlns:ffdec="https://www.free-decompiler.com/flash" xmlns:xlink="http://www.w3.org/1999/xlink" ffdec:objectType="shape" height="65.8px" width="55.45px" xmlns="http://www.w3.org/2000/svg">
  <g transform="matrix(1.0, 0.0, 0.0, 1.0, 27.7, 32.9)">
    <path d="M8.8 24.8 Q7.65 23.9 6.9 25.8 L6.05 27.9 5.35 29.85 Q4.7 31.6 2.05 31.85 -0.6 32.1 -2.0 30.55 -3.45 28.95 -3.3 26.25 -8.2 27.6 -12.95 25.3 -19.1 22.35 -19.1 14.55 L-18.6 4.25 -17.95 -3.5 Q-22.25 -4.2 -24.55 -6.55 -26.7 -8.75 -26.7 -12.0 -26.7 -14.05 -25.25 -16.1 -23.7 -18.3 -22.35 -18.65 -21.0 -19.0 -19.2 -20.7 L-16.85 -22.85 -14.95 -23.4 -12.65 -23.7 -10.8 -23.5 Q-10.65 -24.65 -9.2 -27.0 L-8.55 -28.05 Q-4.25 -31.85 1.5 -31.9 3.4 -31.55 3.8 -31.2 4.15 -30.85 5.3 -30.3 6.4 -29.8 7.7 -28.2 L10.1 -25.55 Q10.6 -25.15 14.45 -23.5 18.05 -21.6 18.05 -19.35 L18.1 -17.05 21.75 -12.95 Q26.75 -6.85 26.75 0.0 26.75 2.75 25.9 6.9 24.8 12.4 23.2 12.4 L19.8 16.0 Q18.85 16.7 17.95 17.1 17.5 17.5 17.5 19.5 17.5 20.55 18.3 22.45 L19.1 24.45 Q19.1 26.25 17.2 28.4 15.15 30.7 13.15 30.7 8.8 30.7 8.8 24.8" fill="#ffffff" fill-rule="evenodd" stroke="none"/>
    <path d="M13.15 31.7 Q8.35 31.8 7.85 26.1 L7.85 26.2 6.95 28.35 6.9 28.45 6.3 30.2 Q5.55 32.55 2.15 32.85 -1.05 33.15 -2.75 31.25 -4.1 29.75 -4.3 27.55 -8.9 28.4 -13.35 26.2 -20.1 23.0 -20.1 14.55 L-19.6 4.2 -19.05 -2.7 Q-23.05 -3.55 -25.25 -5.85 -27.7 -8.35 -27.7 -12.0 -27.7 -14.35 -26.05 -16.65 -24.25 -19.25 -22.6 -19.6 -21.45 -19.95 -19.9 -21.4 L-19.85 -21.4 -17.4 -23.65 -17.45 -23.65 Q-16.75 -24.2 -15.05 -24.4 L-15.1 -24.4 -12.75 -24.7 -12.65 -24.7 -11.55 -24.65 -10.05 -27.5 -9.35 -28.6 -9.2 -28.8 Q-4.6 -32.85 1.5 -32.9 L1.7 -32.85 Q4.0 -32.45 4.45 -31.95 L4.5 -31.9 5.75 -31.2 Q7.0 -30.65 8.5 -28.8 L8.5 -28.85 10.75 -26.3 Q11.2 -26.0 14.85 -24.4 L14.95 -24.35 Q19.2 -22.15 19.05 -19.35 19.05 -17.75 18.8 -17.75 L18.95 -17.6 22.5 -13.6 22.55 -13.55 Q27.75 -7.2 27.75 0.0 27.75 2.85 26.9 7.1 25.7 13.05 23.65 13.4 L20.4 16.8 18.6 17.9 18.5 19.5 Q18.55 20.4 19.25 22.05 L19.25 22.1 20.1 24.45 Q20.15 26.55 17.95 29.05 L17.95 29.1 Q15.55 31.75 13.15 31.7 M8.8 24.8 Q8.8 30.7 13.15 30.7 15.15 30.7 17.2 28.4 19.1 26.25 19.1 24.45 L18.3 22.45 Q17.5 20.55 17.5 19.5 17.5 17.5 17.95 17.1 18.85 16.7 19.8 16.0 L23.2 12.4 Q24.8 12.4 25.9 6.9 26.75 2.75 26.75 0.0 26.75 -6.85 21.75 -12.95 L18.1 -17.05 18.05 -19.35 Q18.05 -21.6 14.45 -23.5 10.6 -25.15 10.1 -25.55 L7.7 -28.2 Q6.4 -29.8 5.3 -30.3 4.15 -30.85 3.8 -31.2 3.4 -31.55 1.5 -31.9 -4.25 -31.85 -8.55 -28.05 L-9.2 -27.0 Q-10.65 -24.65 -10.8 -23.5 L-12.65 -23.7 -14.95 -23.4 -16.85 -22.85 -19.2 -20.7 Q-21.0 -19.0 -22.35 -18.65 -23.7 -18.3 -25.25 -16.1 -26.7 -14.05 -26.7 -12.0 -26.7 -8.75 -24.55 -6.55 -22.25 -4.2 -17.95 -3.5 L-18.6 4.25 -19.1 14.55 Q-19.1 22.35 -12.95 25.3 -8.2 27.6 -3.3 26.25 -3.45 28.95 -2.0 30.55 -0.6 32.1 2.05 31.85 4.7 31.6 5.35 29.85 L6.05 27.9 6.9 25.8 Q7.65 23.9 8.8 24.8" fill="#c6c6c6" fill-rule="evenodd" stroke="none"/>
    <path d="M3.0 -26.4 L0.25 -23.65 Q-0.8 -22.6 -2.15 -22.6 L-4.15 -23.1 -7.85 -23.85 -7.85 -24.05 Q-7.5 -25.45 -5.5 -27.0 -3.15 -28.9 -0.6 -28.9 L0.75 -28.6 2.6 -28.0 2.9 -27.9 3.0 -27.85 3.0 -27.8 3.2 -27.45 3.3 -26.75 3.0 -26.4 M8.0 -21.4 L10.15 -22.1 11.1 -21.9 12.2 -21.15 12.55 -20.6 13.2 -20.35 14.5 -19.8 Q15.05 -19.4 15.05 -18.85 L14.8 -17.45 Q14.4 -16.7 13.05 -16.15 L12.35 -16.5 Q14.5 -17.3 14.5 -18.8 L14.35 -19.4 14.2 -19.6 12.9 -19.7 12.35 -18.65 Q11.65 -17.5 10.95 -17.3 L10.75 -17.7 10.8 -17.9 11.5 -18.7 11.7 -19.45 Q12.05 -21.5 10.15 -21.5 9.1 -21.5 8.6 -20.75 L7.35 -18.0 6.45 -20.85 Q6.0 -21.8 4.8 -21.8 4.25 -21.8 3.75 -21.4 3.2 -20.95 3.2 -20.35 3.2 -19.05 4.35 -17.9 L3.7 -17.85 2.3 -19.4 Q1.4 -20.3 0.55 -20.3 -0.45 -20.3 -0.95 -19.8 L-1.3 -19.0 Q-1.3 -18.5 0.15 -17.45 L-0.7 -17.25 -1.5 -18.45 -1.8 -19.05 Q-1.8 -19.8 -1.3 -20.3 -0.65 -20.9 0.55 -20.9 L1.8 -20.65 2.7 -20.2 Q2.7 -21.25 3.35 -21.85 3.9 -22.4 4.8 -22.4 L6.5 -21.95 6.95 -21.5 7.1 -21.25 7.4 -20.5 7.5 -20.55 7.5 -20.65 8.0 -21.4 M2.8 -27.05 L1.45 -27.75 -0.8 -28.25 Q-3.8 -28.25 -7.0 -24.9 L-7.2 -24.55 -4.25 -23.65 -2.3 -23.2 Q-0.6 -23.2 0.75 -24.65 L2.8 -27.05" fill="#2a6411" fill-rule="evenodd" stroke="none"/>
    <path d="M3.3 -26.75 L3.2 -27.45 4.1 -27.05 3.8 -26.55 3.3 -26.75 M7.1 -21.25 L7.55 -21.35 7.5 -20.65 7.5 -20.55 7.4 -20.5 7.1 -21.25" fill="#79441b" fill-rule="evenodd" stroke="none"/>
    <path d="M3.0 -27.85 Q7.8 -26.45 8.0 -21.4 L7.5 -20.65 7.55 -21.35 Q7.45 -22.9 6.75 -24.3 5.85 -26.25 4.1 -27.05 L3.2 -27.45 3.0 -27.8 3.0 -27.85 M6.5 -21.95 Q6.35 -23.8 4.8 -25.15 4.0 -25.95 3.0 -26.4 L3.3 -26.75 3.8 -26.55 Q5.05 -26.05 6.05 -24.6 7.05 -23.05 6.95 -21.5 L6.5 -21.95" fill="#543116" fill-rule="evenodd" stroke="none"/>
    <path d="M3.8 -26.55 L4.1 -27.05 Q5.85 -26.25 6.75 -24.3 7.45 -22.9 7.55 -21.35 L7.1 -21.25 6.95 -21.5 Q7.05 -23.05 6.05 -24.6 5.05 -26.05 3.8 -26.55" fill="#b1662d" fill-rule="evenodd" stroke="none"/>
    <path d="M-7.0 -24.9 Q-3.8 -28.25 -0.8 -28.25 L1.45 -27.75 2.8 -27.05 -2.05 -26.1 -7.0 -24.9 M7.75 -17.7 Q7.8 -18.8 8.25 -19.55 8.95 -20.85 10.5 -20.85 11.25 -20.85 11.55 -20.15 L11.7 -19.45 11.5 -18.7 10.8 -17.9 10.5 -17.55 10.1 -17.25 7.75 -17.7 M4.7 -17.9 L3.9 -19.0 Q3.75 -19.4 3.75 -20.45 3.75 -21.05 4.5 -21.25 L5.25 -21.35 Q6.65 -21.35 7.05 -17.9 L6.25 -17.8 4.7 -17.9 M12.7 -17.15 L12.5 -17.3 12.4 -17.4 13.5 -18.7 13.9 -18.3 12.7 -17.15 M10.95 -20.0 L10.05 -20.25 Q8.7 -20.25 8.3 -18.5 L8.15 -18.35 8.5 -18.3 10.25 -19.35 10.2 -18.3 10.35 -18.0 Q10.95 -18.9 10.95 -20.0 M5.35 -19.65 L6.25 -19.1 6.45 -19.1 6.45 -19.35 Q5.55 -20.45 5.05 -20.6 L4.75 -20.35 4.4 -19.7 4.5 -18.9 4.75 -18.7 5.35 -19.65 M0.7 -17.55 L-0.25 -18.85 -0.15 -19.2 0.45 -19.5 Q0.85 -19.5 1.75 -19.0 L3.5 -17.85 0.7 -17.55 M1.0 -18.3 Q1.0 -18.7 1.65 -18.55 L2.25 -18.4 1.05 -19.0 Q0.55 -18.9 0.4 -18.5 L0.55 -18.15 0.85 -17.95 1.05 -17.9 1.0 -18.3 M20.15 5.0 L19.7 4.4 22.35 3.0 22.45 3.1 22.55 3.6 22.3 4.75 21.65 5.25 21.7 4.4 21.65 3.95 20.15 5.0 M11.8 2.1 L12.35 1.6 15.95 4.1 14.8 4.75 Q14.55 4.15 13.45 3.3 L11.8 2.1 M-1.4 -25.65 L-1.7 -25.25 -2.35 -24.9 Q-2.1 -25.45 -1.4 -25.65 M-0.2 -27.55 L-2.0 -27.45 Q-3.25 -27.15 -3.95 -26.45 L-1.8 -26.95 0.55 -27.45 -0.2 -27.55 M-3.9 -25.45 Q-3.65 -25.45 -4.1 -25.15 L-4.75 -24.75 -4.65 -25.0 -3.9 -25.45 M0.9 -26.2 Q-0.65 -24.65 -1.4 -24.4 L-0.2 -25.4 0.9 -26.2" fill="#57bb2b" fill-rule="evenodd" stroke="none"/>
    <path d="M11.7 -19.45 L11.55 -20.15 Q11.25 -20.85 10.5 -20.85 8.95 -20.85 8.25 -19.55 7.8 -18.8 7.75 -17.7 L6.25 -17.8 7.05 -17.9 Q6.65 -21.35 5.25 -21.35 L4.5 -21.25 Q3.75 -21.05 3.75 -20.45 3.75 -19.4 3.9 -19.0 L4.7 -17.9 4.35 -17.9 Q3.2 -19.05 3.2 -20.35 3.2 -20.95 3.75 -21.4 4.25 -21.8 4.8 -21.8 6.0 -21.8 6.45 -20.85 L7.35 -18.0 8.6 -20.75 Q9.1 -21.5 10.15 -21.5 12.05 -21.5 11.7 -19.45 M10.1 -17.25 L10.5 -17.55 10.8 -17.9 10.75 -17.7 10.95 -17.3 Q11.65 -17.5 12.35 -18.65 L12.9 -19.7 14.2 -19.6 14.35 -19.4 14.5 -18.8 Q14.5 -17.3 12.35 -16.5 L10.1 -17.25 M12.7 -17.15 L13.9 -18.3 13.5 -18.7 12.4 -17.4 12.5 -17.3 12.7 -17.15 M3.5 -17.85 L1.75 -19.0 Q0.85 -19.5 0.45 -19.5 L-0.15 -19.2 -0.25 -18.85 0.7 -17.55 0.15 -17.45 Q-1.3 -18.5 -1.3 -19.0 L-0.95 -19.8 Q-0.45 -20.3 0.55 -20.3 1.4 -20.3 2.3 -19.4 L3.7 -17.85 3.5 -17.85" fill="#3d9816" fill-rule="evenodd" stroke="none"/>
    <path d="M2.8 -27.05 L0.75 -24.65 Q-0.6 -23.2 -2.3 -23.2 L-4.25 -23.65 -7.2 -24.55 -7.0 -24.9 -2.05 -26.1 2.8 -27.05 M10.95 -20.0 Q10.95 -18.9 10.35 -18.0 L10.2 -18.3 10.25 -19.35 8.5 -18.3 8.15 -18.35 8.3 -18.5 Q8.7 -20.25 10.05 -20.25 L10.95 -20.0 M5.35 -19.65 L4.75 -18.7 4.5 -18.9 4.4 -19.7 4.75 -20.35 5.05 -20.6 Q5.55 -20.45 6.45 -19.35 L6.45 -19.1 6.25 -19.1 5.35 -19.65 M1.0 -18.3 L1.05 -17.9 0.85 -17.95 0.55 -18.15 0.4 -18.5 Q0.55 -18.9 1.05 -19.0 L2.25 -18.4 1.65 -18.55 Q1.0 -18.7 1.0 -18.3 M21.65 5.25 L20.15 5.0 21.65 3.95 21.7 4.4 21.65 5.25 M14.8 4.75 L13.65 5.05 Q13.0 5.15 13.0 4.75 L12.25 4.2 11.5 3.35 11.55 2.7 11.8 2.1 13.45 3.3 Q14.55 4.15 14.8 4.75 M-1.4 -25.65 Q-2.1 -25.45 -2.35 -24.9 L-1.7 -25.25 -1.4 -25.65 M-0.2 -27.55 L0.55 -27.45 -1.8 -26.95 -3.95 -26.45 Q-3.25 -27.15 -2.0 -27.45 L-0.2 -27.55 M-3.9 -25.45 L-4.65 -25.0 -4.75 -24.75 -4.1 -25.15 Q-3.65 -25.45 -3.9 -25.45 M0.9 -26.2 L-0.2 -25.4 -1.4 -24.4 Q-0.65 -24.65 0.9 -26.2" fill="#6ce536" fill-rule="evenodd" stroke="none"/>
    <path d="M20.55 1.5 L20.95 -0.8 Q21.05 -2.0 20.3 -3.5 L18.1 -9.0 Q16.45 -12.5 13.95 -14.1 L11.95 -14.7 10.5 -14.95 7.95 -14.7 Q6.75 -14.4 3.7 -12.9 0.3 -11.35 -0.9 -10.25 L-2.5 -8.7 Q-5.5 -8.45 -7.7 -9.2 -6.3 -11.7 -4.65 -13.0 L-1.4 -15.15 0.35 -16.2 Q2.05 -17.0 3.55 -17.15 L3.75 -17.15 3.9 -17.2 4.6 -17.25 9.95 -16.55 Q13.15 -15.75 15.35 -14.1 17.15 -12.2 19.5 -7.95 22.2 -3.0 22.2 -0.45 L22.0 2.45 Q21.3 2.85 20.55 3.2 L20.55 1.55 20.55 1.5 M17.5 9.75 L18.8 8.1 18.85 8.0 19.05 7.8 19.8 6.5 19.8 6.45 19.85 6.25 20.95 7.0 19.9 9.5 17.5 9.75 M20.15 10.15 L20.05 10.5 19.95 10.65 19.1 11.05 19.45 10.45 20.15 10.15 M16.75 14.1 L16.55 14.3 16.6 13.4 Q16.45 13.2 16.45 13.55 L16.4 13.9 15.25 13.9 15.3 14.45 15.95 14.75 15.3 15.35 Q14.85 15.8 14.7 16.45 L14.0 16.95 14.2 16.05 14.1 15.75 14.0 15.25 Q14.0 14.85 14.65 13.9 L16.55 11.35 16.6 11.35 19.05 11.05 16.75 14.1" fill="#b33744" fill-rule="evenodd" stroke="none"/>
    <path d="M-2.5 -8.7 L-0.9 -10.25 Q0.3 -11.35 3.7 -12.9 6.75 -14.4 7.95 -14.7 L10.5 -14.95 11.95 -14.7 13.95 -14.1 Q16.45 -12.5 18.1 -9.0 L20.3 -3.5 Q21.05 -2.0 20.95 -0.8 L20.55 1.5 Q19.95 -0.45 19.3 -1.05 L19.3 -0.75 19.6 3.7 19.05 4.05 18.95 4.05 18.9 4.4 Q18.9 5.05 19.4 5.75 L18.8 8.1 17.5 9.75 17.4 9.75 18.25 7.0 Q18.7 4.75 18.4 3.2 L18.3 3.2 Q18.9 1.6 18.15 -1.95 17.35 -5.65 15.75 -8.4 L13.9 -11.75 Q13.2 -12.6 11.5 -12.6 8.0 -11.65 6.45 -10.85 L5.85 -10.95 2.15 -10.25 Q-1.7 -9.35 -2.95 -8.3 L-2.5 -8.7 M16.6 11.35 L17.1 10.45 19.45 10.45 19.1 11.05 19.05 11.05 16.6 11.35" fill="#c64451" fill-rule="evenodd" stroke="none"/>
    <path d="M13.05 -16.15 Q23.75 -9.75 23.75 0.0 23.75 6.5 20.75 10.6 L17.8 13.7 14.7 16.45 Q14.85 15.8 15.3 15.35 L15.95 14.75 Q16.45 14.95 16.55 14.6 L16.55 14.3 16.75 14.1 17.65 13.3 19.95 10.65 20.05 10.5 20.4 9.95 20.25 10.05 20.15 10.15 19.45 10.45 17.1 10.45 13.2 9.95 8.5 9.1 5.65 9.55 3.15 10.05 2.6 10.05 Q3.45 9.4 4.95 9.0 L8.55 8.55 13.25 9.15 17.4 9.75 17.5 9.75 19.9 9.5 Q21.25 8.85 21.65 8.0 L22.4 5.65 22.1 5.85 21.35 6.0 20.35 5.7 Q19.45 5.25 19.0 4.3 L19.05 4.05 19.6 3.7 20.4 3.3 20.55 3.2 Q21.3 2.85 22.0 2.45 L22.95 2.3 23.0 2.3 23.1 0.55 Q23.1 -5.15 20.0 -9.45 L15.35 -14.1 Q13.15 -15.75 9.95 -16.55 L4.6 -17.25 3.9 -17.2 3.75 -17.15 3.55 -17.15 -2.1 -16.35 Q-5.75 -15.25 -9.2 -11.8 L-11.1 -9.7 -11.35 -10.45 -10.85 -11.05 -10.4 -11.55 -9.15 -12.7 -8.7 -13.15 -8.05 -13.7 -7.4 -14.2 -4.05 -15.75 -0.7 -17.25 0.15 -17.45 0.7 -17.55 3.5 -17.85 3.7 -17.85 4.35 -17.9 4.7 -17.9 6.25 -17.8 7.75 -17.7 10.1 -17.25 12.35 -16.5 13.05 -16.15 M14.3 2.2 L16.75 4.05 Q15.55 5.5 14.0 5.5 L11.95 5.05 Q10.85 4.5 10.85 3.35 L11.1 2.5 Q11.45 1.65 11.95 1.15 L11.9 1.15 12.35 0.75 14.3 2.2 M21.65 5.25 L22.3 4.75 22.55 3.6 22.45 3.1 22.35 3.0 19.7 4.4 20.15 5.0 21.65 5.25 M14.8 4.75 L15.95 4.1 12.35 1.6 11.8 2.1 11.55 2.7 11.5 3.35 12.25 4.2 13.0 4.75 Q13.0 5.15 13.65 5.05 L14.8 4.75 M14.2 16.05 L14.0 16.95 13.7 17.15 13.6 17.2 13.3 16.6 14.2 16.05" fill="#72232b" fill-rule="evenodd" stroke="none"/>
    <path d="M22.0 2.45 L22.2 -0.45 Q22.2 -3.0 19.5 -7.95 17.15 -12.2 15.35 -14.1 L20.0 -9.45 Q23.1 -5.15 23.1 0.55 L23.0 2.3 22.95 2.3 22.0 2.45 M3.55 -17.15 Q2.05 -17.0 0.35 -16.2 L-1.4 -15.15 -4.65 -13.0 Q-6.3 -11.7 -7.7 -9.2 -9.0 -10.35 -9.15 -11.05 L-9.2 -11.8 Q-5.75 -15.25 -2.1 -16.35 L3.55 -17.15 M19.4 5.75 Q18.9 5.05 18.9 4.4 L18.95 4.05 19.05 4.05 19.0 4.3 Q19.45 5.25 20.35 5.7 L21.35 6.0 22.1 5.85 22.4 5.65 21.65 8.0 Q21.25 8.85 19.9 9.5 L20.95 7.0 19.85 6.25 19.4 5.85 19.4 5.75 M20.15 10.15 L20.25 10.05 20.4 9.95 20.05 10.5 20.15 10.15 M19.95 10.65 L17.65 13.3 16.75 14.1 19.05 11.05 19.1 11.05 19.95 10.65" fill="#942e38" fill-rule="evenodd" stroke="none"/>
    <path d="M20.55 1.5 L20.55 1.55 20.4 3.3 19.6 3.7 19.3 -0.75 19.3 -1.05 Q19.95 -0.45 20.55 1.5 M-2.95 -8.3 Q-1.7 -9.35 2.15 -10.25 L5.85 -10.95 6.45 -10.85 3.4 -8.85 1.35 -7.0 1.3 -6.95 -5.4 -4.95 -5.35 -5.0 -4.35 -6.75 -3.0 -8.2 -2.95 -8.3 M18.4 3.2 Q18.7 4.75 18.25 7.0 L17.4 9.75 13.25 9.15 13.3 8.85 15.15 8.35 Q16.1 7.8 16.05 6.15 L16.35 6.25 16.6 7.05 17.55 5.1 18.4 3.2 M18.8 8.1 L19.4 5.75 19.4 5.85 19.85 6.25 19.8 6.45 19.8 6.5 19.05 7.8 18.85 8.0 18.8 8.1 M16.75 4.05 L16.15 5.15 Q15.4 6.0 13.85 6.35 12.15 6.35 11.1 5.45 10.15 4.65 10.15 3.5 10.15 2.25 11.9 1.15 L11.95 1.15 Q11.45 1.65 11.1 2.5 L10.85 3.35 Q10.85 4.5 11.95 5.05 L14.0 5.5 Q15.55 5.5 16.75 4.05 M12.8 10.85 L15.85 11.35 13.05 13.85 11.65 14.65 11.6 14.65 12.15 12.65 12.7 10.85 12.8 10.85" fill="#d76c4b" fill-rule="evenodd" stroke="none"/>
    <path d="M18.3 3.2 L18.4 3.2 17.55 5.1 16.6 7.05 16.35 6.25 16.05 6.15 Q16.1 7.8 15.15 8.35 L13.3 8.85 13.85 6.35 Q15.4 6.0 16.15 5.15 L16.75 4.05 14.3 2.2 Q13.1 -1.55 9.75 -4.35 6.45 -7.15 3.4 -7.15 L1.35 -7.0 3.4 -8.85 6.45 -10.85 Q10.55 -11.15 14.35 -6.15 17.8 -1.6 18.3 3.2 M4.4 -8.6 Q5.75 -7.95 6.75 -7.95 L7.05 -8.0 7.05 -8.2 6.8 -8.85 5.3 -9.05 Q4.6 -9.0 4.4 -8.6 M16.0 -6.7 L15.85 -6.35 15.5 -6.25 15.15 -6.35 Q15.0 -6.5 15.0 -6.7 L15.15 -7.0 15.5 -7.15 15.85 -7.0 16.0 -6.7 M10.45 -11.45 L10.75 -11.65 11.35 -11.75 11.95 -11.5 Q12.2 -11.25 12.5 -11.25 L13.2 -10.6 14.25 -9.15 14.2 -8.8 Q13.8 -9.15 13.2 -9.3 12.5 -9.45 10.45 -11.45 M10.4 -6.15 Q10.35 -5.85 12.05 -4.25 L13.75 -2.7 15.15 -0.15 16.15 1.5 16.35 1.3 16.5 1.1 16.55 0.65 Q16.55 -0.7 14.8 -3.1 12.75 -6.05 10.4 -6.15 M12.8 10.85 L13.2 9.95 17.1 10.45 16.6 11.35 16.55 11.35 15.85 11.35 12.8 10.85" fill="#dc7d62" fill-rule="evenodd" stroke="none"/>
    <path d="M4.4 -8.6 Q4.6 -9.0 5.3 -9.05 L6.8 -8.85 7.05 -8.2 7.05 -8.0 6.75 -7.95 Q5.75 -7.95 4.4 -8.6 M1.3 -6.95 L1.35 -7.0 3.4 -7.15 Q6.45 -7.15 9.75 -4.35 13.1 -1.55 14.3 2.2 L12.35 0.75 11.9 1.15 Q10.15 2.25 10.15 3.5 10.15 4.65 11.1 5.45 12.15 6.35 13.85 6.35 L13.3 8.85 11.1 8.65 Q9.2 8.35 8.7 7.95 8.95 3.95 6.9 1.45 4.95 -0.9 2.05 -0.9 L-1.0 -0.4 Q-1.0 -2.65 -0.55 -4.05 -0.05 -5.75 1.3 -6.95 M9.3 -0.75 Q8.7 -2.15 6.9 -3.1 5.1 -4.0 2.95 -4.0 L2.25 -3.85 1.85 -3.7 1.9 -3.1 2.45 -2.65 Q4.55 -2.8 6.15 -1.35 7.8 0.15 8.65 0.15 9.1 0.15 9.2 -0.15 L9.3 -0.75 M10.4 -6.15 Q12.75 -6.05 14.8 -3.1 16.55 -0.7 16.55 0.65 L16.5 1.1 16.35 1.3 16.15 1.5 15.15 -0.15 13.75 -2.7 12.05 -4.25 Q10.35 -5.85 10.4 -6.15 M13.2 9.95 L12.8 10.85 12.7 10.85 8.15 10.05 8.5 9.1 13.2 9.95 M10.15 4.55 L10.0 4.25 9.7 4.15 9.4 4.25 9.3 4.55 9.4 4.85 9.7 4.95 10.0 4.85 10.15 4.55" fill="#eda766" fill-rule="evenodd" stroke="none"/>
    <path d="M9.3 -0.75 L9.2 -0.15 Q9.1 0.15 8.65 0.15 7.8 0.15 6.15 -1.35 4.55 -2.8 2.45 -2.65 L1.9 -3.1 1.85 -3.7 2.25 -3.85 2.95 -4.0 Q5.1 -4.0 6.9 -3.1 8.7 -2.15 9.3 -0.75 M8.5 9.1 L8.15 10.05 8.1 10.05 4.4 10.15 3.15 10.05 5.65 9.55 8.5 9.1 M10.15 4.55 L10.0 4.85 9.7 4.95 9.4 4.85 9.3 4.55 9.4 4.25 9.7 4.15 10.0 4.25 10.15 4.55 M8.7 7.95 Q7.4 7.35 6.05 4.95 4.9 2.9 3.05 2.6 L0.5 2.1 Q-0.7 1.55 -1.0 -0.4 L2.05 -0.9 Q4.95 -0.9 6.9 1.45 8.95 3.95 8.7 7.95" fill="#ffd369" fill-rule="evenodd" stroke="none"/>
    <path d="M6.45 -10.85 Q8.0 -11.65 11.5 -12.6 13.2 -12.6 13.9 -11.75 L15.75 -8.4 Q17.35 -5.65 18.15 -1.95 18.9 1.6 18.3 3.2 17.8 -1.6 14.35 -6.15 10.55 -11.15 6.45 -10.85 M10.45 -11.45 Q12.5 -9.45 13.2 -9.3 13.8 -9.15 14.2 -8.8 L14.25 -9.15 13.2 -10.6 12.5 -11.25 Q12.2 -11.25 11.95 -11.5 L11.35 -11.75 10.75 -11.65 10.45 -11.45 M16.0 -6.7 L15.85 -7.0 15.5 -7.15 15.15 -7.0 15.0 -6.7 Q15.0 -6.5 15.15 -6.35 L15.5 -6.25 15.85 -6.35 16.0 -6.7" fill="#cb5460" fill-rule="evenodd" stroke="none"/>
    <path d="M20.55 1.55 L20.55 3.2 20.4 3.3 20.55 1.55 M-7.7 -9.2 Q-5.5 -8.45 -2.5 -8.7 L-2.95 -8.3 -3.0 -8.2 -4.35 -6.75 -5.35 -5.0 -7.55 -5.45 Q-8.6 -5.75 -9.0 -6.15 L-9.05 -5.95 -9.05 -6.15 -7.7 -9.2 M16.55 14.3 L16.55 14.6 Q16.45 14.95 15.95 14.75 L15.3 14.45 15.25 13.9 16.4 13.9 16.45 13.55 Q16.45 13.2 16.6 13.4 L16.55 14.3 M15.85 11.35 L16.55 11.35 14.65 13.9 Q14.0 14.85 14.0 15.25 L14.1 15.75 14.2 16.05 13.3 16.6 13.15 16.7 12.4 15.8 11.65 14.65 13.05 13.85 15.85 11.35" fill="#c95f37" fill-rule="evenodd" stroke="none"/>
    <path d="M8.7 7.95 Q9.2 8.35 11.1 8.65 L13.3 8.85 13.25 9.15 8.55 8.55 8.7 7.95 M8.15 10.05 L12.7 10.85 12.15 12.65 11.6 14.65 9.4 15.75 9.3 15.85 8.1 13.9 Q7.35 12.65 7.35 12.3 7.35 11.9 7.7 10.95 L8.1 10.05 8.15 10.05 M-1.0 -0.4 L-2.2 -0.25 -4.45 -0.55 -6.5 -0.95 -5.4 -4.95 1.3 -6.95 Q-0.05 -5.75 -0.55 -4.05 -1.0 -2.65 -1.0 -0.4 M-7.5 5.45 Q-4.6 8.45 0.35 11.85 L-0.05 17.1 -0.85 16.6 -2.5 15.5 Q-4.3 14.05 -5.7 11.75 -7.85 8.3 -7.5 5.45 M3.65 13.85 L8.65 16.05 5.8 16.9 2.75 17.5 3.65 13.85 M13.7 17.15 L13.5 21.45 13.2 21.65 Q12.9 21.35 12.9 20.5 L13.05 17.55 13.6 17.2 13.7 17.15 M13.5 25.15 L13.1 25.25 Q12.75 25.0 12.75 24.25 L13.05 23.8 Q13.5 23.35 14.2 23.1 L14.0 24.15 13.5 25.15" fill="#ea9747" fill-rule="evenodd" stroke="none"/>
    <path d="M8.7 7.95 L8.55 8.55 4.95 9.0 Q3.45 9.4 2.6 10.05 L3.15 10.05 4.4 10.15 8.1 10.05 7.7 10.95 Q7.35 11.9 7.35 12.3 7.35 12.65 8.1 13.9 L9.3 15.85 8.65 16.05 3.65 13.85 3.7 13.1 3.7 13.0 3.45 12.45 3.05 11.9 2.1 17.5 1.25 22.6 Q0.9 22.3 0.9 21.35 L1.05 17.2 1.25 14.35 1.55 11.35 0.75 11.55 0.45 11.65 0.35 11.85 Q-4.6 8.45 -7.5 5.45 L-7.3 2.2 -6.5 -0.95 -4.45 -0.55 -2.2 -0.25 -1.0 -0.4 Q-0.7 1.55 0.5 2.1 L3.05 2.6 Q4.9 2.9 6.05 4.95 7.4 7.35 8.7 7.95 M2.45 24.75 L1.85 25.45 Q1.55 25.75 1.6 26.35 1.9 26.55 1.25 26.55 L0.75 26.2 0.75 25.35 Q0.75 25.05 1.0 24.9 L2.0 24.2 2.45 24.75" fill="#fcc243" fill-rule="evenodd" stroke="none"/>
    <path d="M-6.5 -0.95 L-7.3 2.2 -7.5 5.45 -11.1 1.2 -10.65 -1.3 -10.2 -2.7 -9.45 -2.0 -6.5 -0.95 M0.75 11.55 L1.55 11.35 1.25 14.35 1.05 17.2 0.9 21.35 Q0.9 22.3 1.25 22.6 L2.1 17.5 3.05 11.9 3.45 12.45 3.7 13.0 3.45 13.0 Q3.1 13.0 2.5 15.5 1.9 18.1 1.9 20.2 1.9 22.4 2.15 23.05 L3.1 24.6 3.2 25.2 1.9 26.65 1.25 27.8 0.65 26.55 0.25 25.25 0.25 24.8 0.75 11.55 M8.65 16.05 L9.3 15.85 9.4 15.75 10.35 16.6 8.65 16.05 M2.55 20.35 L2.6 18.55 6.55 20.25 5.0 20.85 2.55 20.35 M2.45 24.75 L2.0 24.2 1.0 24.9 Q0.75 25.05 0.75 25.35 L0.75 26.2 1.25 26.55 Q1.9 26.55 1.6 26.35 1.55 25.75 1.85 25.45 L2.45 24.75 M-2.5 15.5 L-0.85 16.6 -0.05 17.1 -0.15 19.5 -3.55 17.7 Q-7.2 15.65 -9.0 13.9 L-9.0 13.85 -10.35 9.15 -6.8 12.3 -2.5 15.5" fill="#f8b11f" fill-rule="evenodd" stroke="none"/>
    <path d="M14.7 16.45 L14.5 19.5 Q14.5 22.4 15.25 23.3 L15.95 24.3 15.5 24.9 14.85 25.65 14.4 27.15 Q14.2 27.6 13.7 27.6 11.8 27.6 11.8 24.8 L11.95 18.25 12.6 17.85 12.35 23.65 12.35 24.1 Q12.4 26.25 12.7 26.7 L13.5 27.05 Q13.75 27.05 14.0 26.85 L14.3 26.45 14.3 25.25 Q14.35 24.95 14.85 24.7 L15.4 24.25 14.95 23.5 14.0 22.4 13.95 20.65 Q13.9 18.65 14.0 16.95 L14.7 16.45 M2.65 22.3 Q2.7 23.8 3.5 24.35 4.2 24.9 4.2 25.45 L3.7 26.15 3.0 27.0 Q2.8 27.45 2.75 28.4 2.6 29.1 1.75 29.1 0.45 29.1 -0.05 28.0 L-0.3 26.05 -0.2 22.9 -0.2 22.25 -0.2 20.65 -0.15 19.5 -0.05 17.1 0.35 11.85 0.45 11.65 0.75 11.55 0.25 24.8 0.25 25.25 Q0.05 26.75 0.6 27.65 L1.55 28.5 2.2 27.35 2.35 26.55 Q2.5 26.05 3.1 25.75 L3.6 25.35 3.4 24.8 3.1 24.6 2.15 23.05 Q1.9 22.4 1.9 20.2 1.9 18.1 2.5 15.5 3.1 13.0 3.45 13.0 L3.7 13.0 3.7 13.1 3.65 13.85 2.75 17.5 2.6 18.55 2.55 20.35 2.6 21.25 2.6 21.65 2.65 22.3" fill="#915700" fill-rule="evenodd" stroke="none"/>
    <path d="M14.0 16.95 Q13.9 18.65 13.95 20.65 L14.0 22.4 14.95 23.5 15.05 24.0 14.2 24.9 13.2 26.45 Q12.65 25.95 12.35 24.1 L12.35 23.65 12.6 17.85 13.05 17.55 12.9 20.5 Q12.9 21.35 13.2 21.65 L13.5 21.45 13.7 17.15 14.0 16.95 M9.4 15.75 L11.6 14.65 11.65 14.65 12.4 15.8 13.15 16.7 6.55 20.25 2.6 18.55 2.75 17.5 5.8 16.9 8.65 16.05 10.35 16.6 9.4 15.75 M2.6 21.25 L2.55 20.35 5.0 20.85 3.9 21.2 2.6 21.25 M13.5 25.15 L14.0 24.15 14.2 23.1 Q13.5 23.35 13.05 23.8 L12.75 24.25 Q12.75 25.0 13.1 25.25 L13.5 25.15 M-10.2 -2.75 L-9.05 -5.95 -9.0 -6.15 Q-8.6 -5.75 -7.55 -5.45 L-5.35 -5.0 -5.4 -4.95 -6.5 -0.95 -9.45 -2.0 -10.2 -2.7 -10.2 -2.75 M-7.5 5.45 Q-7.85 8.3 -5.7 11.75 -4.3 14.05 -2.5 15.5 L-6.8 12.3 -10.35 9.15 -11.2 4.55 -11.1 1.2 -7.5 5.45 M-9.0 13.9 Q-7.2 15.65 -3.55 17.7 L-0.15 19.5 -0.2 20.65 Q-6.55 18.95 -9.0 13.9" fill="#e0862b" fill-rule="evenodd" stroke="none"/>
    <path d="M14.95 23.5 L15.4 24.25 14.85 24.7 Q14.35 24.95 14.3 25.25 L14.3 26.45 14.0 26.85 Q13.75 27.05 13.5 27.05 L12.7 26.7 Q12.4 26.25 12.35 24.1 12.65 25.95 13.2 26.45 L14.2 24.9 15.05 24.0 14.95 23.5 M2.6 21.65 L2.6 21.25 3.9 21.2 2.6 21.65 M-10.2 -2.75 Q-11.1 -3.45 -11.85 -5.4 L-12.45 -7.4 -12.35 -7.8 -11.1 -9.7 -10.7 -8.3 -9.05 -6.15 -9.05 -5.95 -10.2 -2.75 M-13.85 -4.45 L-12.55 -1.5 -11.1 1.2 -11.2 4.55 -10.35 9.15 -14.9 3.85 Q-15.2 -0.8 -13.85 -4.45 M-15.0 6.8 L-13.3 9.4 -9.0 13.85 -9.0 13.9 Q-6.55 18.95 -0.2 20.65 L-0.2 22.25 -2.95 22.6 Q-4.45 22.25 -8.75 19.1 -13.45 15.65 -15.4 13.1 L-15.0 6.8 M-7.75 22.8 Q-10.75 23.0 -12.7 21.35 -14.5 19.75 -15.2 16.95 L-15.2 16.9 -11.75 19.9 -7.75 22.8" fill="#c87517" fill-rule="evenodd" stroke="none"/>
    <path d="M11.95 18.25 Q8.1 20.15 6.25 21.15 L2.65 22.3 2.6 21.65 3.9 21.2 5.0 20.85 6.55 20.25 13.15 16.7 13.3 16.6 13.6 17.2 13.05 17.55 12.6 17.85 11.95 18.25 M-0.2 22.9 L-4.4 23.3 -7.5 23.5 Q-10.0 23.5 -12.2 22.25 -16.1 19.95 -16.1 14.55 L-15.65 6.45 -15.55 0.85 Q-15.2 -3.9 -13.6 -6.9 L-13.15 -7.8 -12.0 -9.65 -11.4 -10.35 -11.35 -10.45 -11.1 -9.7 -12.35 -7.8 Q-12.9 -7.4 -13.25 -6.25 L-13.85 -4.45 Q-15.2 -0.8 -14.9 3.85 L-15.0 6.8 -15.4 13.1 -15.4 14.6 -15.2 16.95 Q-14.5 19.75 -12.7 21.35 -10.75 23.0 -7.75 22.8 L-2.95 22.6 -0.2 22.25 -0.2 22.9" fill="#662e13" fill-rule="evenodd" stroke="none"/>
    <path d="M3.1 24.6 L3.4 24.8 3.6 25.35 3.1 25.75 Q2.5 26.05 2.35 26.55 L2.2 27.35 1.55 28.5 0.6 27.65 Q0.05 26.75 0.25 25.25 L0.65 26.55 1.25 27.8 1.9 26.65 3.2 25.2 3.1 24.6 M-12.35 -7.8 L-12.45 -7.4 -11.85 -5.4 Q-11.1 -3.45 -10.2 -2.75 L-10.2 -2.7 -10.65 -1.3 -11.1 1.2 -12.55 -1.5 -13.85 -4.45 -13.25 -6.25 Q-12.9 -7.4 -12.35 -7.8 M-15.0 6.8 L-14.9 3.85 -10.35 9.15 -9.0 13.85 -13.3 9.4 -15.0 6.8 M-15.2 16.95 L-15.4 14.6 -15.4 13.1 Q-13.45 15.65 -8.75 19.1 -4.45 22.25 -2.95 22.6 L-7.75 22.8 -11.75 19.9 -15.2 16.9 -15.2 16.95" fill="#e49c07" fill-rule="evenodd" stroke="none"/>
    <path d="M-13.6 -6.9 L-16.5 -6.45 Q-19.35 -6.45 -21.35 -7.75 -23.7 -9.3 -23.7 -12.0 -23.7 -13.65 -22.0 -15.05 -20.35 -16.4 -18.55 -16.4 -17.85 -16.4 -16.95 -17.6 L-15.15 -19.95 Q-14.2 -20.55 -13.65 -20.65 L-12.65 -20.7 Q-10.35 -20.7 -8.75 -18.05 -7.55 -16.05 -7.4 -14.2 L-8.05 -13.7 Q-7.6 -16.35 -9.55 -18.35 -11.2 -20.05 -13.0 -20.05 L-14.5 -19.6 Q-15.9 -18.65 -16.7 -16.25 L-15.85 -16.05 -15.5 -15.9 Q-13.95 -15.35 -12.55 -14.2 -11.1 -13.0 -10.4 -11.55 L-10.85 -11.05 Q-14.15 -15.7 -17.95 -15.7 -20.7 -15.7 -22.1 -14.0 -23.0 -12.9 -23.0 -12.0 -23.0 -10.2 -21.55 -8.8 -19.75 -7.1 -16.4 -7.1 -15.5 -7.1 -13.15 -7.8 L-13.6 -6.9" fill="#91b1ae" fill-rule="evenodd" stroke="none"/>
    <path d="M-13.15 -7.8 Q-15.5 -7.1 -16.4 -7.1 -19.75 -7.1 -21.55 -8.8 -23.0 -10.2 -23.0 -12.0 -23.0 -12.9 -22.1 -14.0 -20.7 -15.7 -17.95 -15.7 -14.15 -15.7 -10.85 -11.05 L-11.35 -10.45 -11.4 -10.35 Q-12.2 -12.9 -14.55 -14.1 -16.05 -14.8 -17.4 -14.8 -19.55 -14.8 -20.7 -14.05 -21.8 -13.35 -21.8 -12.2 -21.8 -7.95 -16.2 -7.95 L-14.35 -8.5 -12.0 -9.65 -13.15 -7.8 M-15.85 -16.05 L-16.7 -16.25 Q-15.9 -18.65 -14.5 -19.6 L-13.0 -20.05 Q-11.2 -20.05 -9.55 -18.35 -7.6 -16.35 -8.05 -13.7 L-8.7 -13.15 Q-8.0 -15.65 -9.9 -17.6 -11.4 -19.1 -12.5 -19.1 -13.45 -19.1 -14.65 -17.85 -15.55 -16.85 -15.85 -16.05" fill="#ecfffd" fill-rule="evenodd" stroke="none"/>
    <path d="M-10.4 -11.55 Q-11.1 -13.0 -12.55 -14.2 -13.95 -15.35 -15.5 -15.9 -15.1 -17.25 -14.15 -18.0 -13.35 -18.6 -12.5 -18.6 -10.85 -18.6 -9.85 -16.75 -8.8 -14.85 -9.15 -12.7 L-10.4 -11.55 M-12.75 -11.85 L-11.6 -10.2 Q-13.15 -9.35 -14.05 -9.0 -15.55 -8.35 -16.85 -8.35 -19.05 -8.35 -20.2 -9.25 -21.45 -10.15 -21.45 -11.9 -21.45 -13.2 -20.45 -13.85 -19.55 -14.5 -17.85 -14.5 -16.2 -14.5 -14.65 -13.6 -13.25 -12.8 -12.75 -11.85" fill="#b9cdcb" fill-rule="evenodd" stroke="none"/>
    <path d="M-15.5 -15.9 L-15.85 -16.05 Q-15.55 -16.85 -14.65 -17.85 -13.45 -19.1 -12.5 -19.1 -11.4 -19.1 -9.9 -17.6 -8.0 -15.65 -8.7 -13.15 L-9.15 -12.7 Q-8.8 -14.85 -9.85 -16.75 -10.85 -18.6 -12.5 -18.6 -13.35 -18.6 -14.15 -18.0 -15.1 -17.25 -15.5 -15.9 M-12.75 -11.85 Q-13.25 -12.8 -14.65 -13.6 -16.2 -14.5 -17.85 -14.5 -19.55 -14.5 -20.45 -13.85 -21.45 -13.2 -21.45 -11.9 -21.45 -10.15 -20.2 -9.25 -19.05 -8.35 -16.85 -8.35 -15.55 -8.35 -14.05 -9.0 -13.15 -9.35 -11.6 -10.2 L-12.75 -11.85 M-12.0 -9.65 L-14.35 -8.5 -16.2 -7.95 Q-21.8 -7.95 -21.8 -12.2 -21.8 -13.35 -20.7 -14.05 -19.55 -14.8 -17.4 -14.8 -16.05 -14.8 -14.55 -14.1 -12.2 -12.9 -11.4 -10.35 L-12.0 -9.65" fill="#cee2e0" fill-rule="evenodd" stroke="none"/>
    <path d="M-9.05 -6.15 L-10.7 -8.3 -11.1 -9.7 -9.2 -11.8 -9.15 -11.05 Q-9.0 -10.35 -7.7 -9.2 L-9.05 -6.15" fill="#ae5227" fill-rule="evenodd" stroke="none"/>
  </g>
</svg>
