<?xml version="1.0" encoding="UTF-8" standalone="no"?>
<svg xmlns:ffdec="https://www.free-decompiler.com/flash" xmlns:xlink="http://www.w3.org/1999/xlink" ffdec:objectType="shape" height="71.3px" width="76.95px" xmlns="http://www.w3.org/2000/svg">
  <g transform="matrix(1.0, 0.0, 0.0, 1.0, 27.1, 42.9)">
    <path d="M41.6 -40.6 L40.6 -41.95 40.55 -42.1 40.65 -42.3 40.7 -42.3 40.5 -42.9 40.85 -42.9 Q45.95 -39.25 48.5 -32.0 50.4 -28.45 49.6 -24.25 48.75 -20.0 49.8 -18.45 46.45 -19.0 44.65 -22.0 L43.3 -24.25 43.8 -26.1 Q44.35 -24.6 45.2 -23.25 46.65 -21.1 48.6 -19.4 47.75 -21.35 48.3 -23.95 48.8 -26.6 48.35 -28.45 47.85 -30.35 46.8 -32.65 L44.8 -36.75 42.55 -39.8 41.6 -40.6 M42.55 -21.95 L43.15 -23.7 Q43.6 -22.55 44.35 -21.3 L47.3 -17.15 47.0 -16.85 Q45.2 -16.85 41.4 -19.4 L41.75 -20.15 41.95 -20.65 43.65 -19.65 42.55 -21.95" fill="#606060" fill-rule="evenodd" stroke="none"/>
    <path d="M41.6 -40.6 L42.55 -39.8 44.8 -36.75 46.8 -32.65 Q47.85 -30.35 48.35 -28.45 48.8 -26.6 48.3 -23.95 47.75 -21.35 48.6 -19.4 46.65 -21.1 45.2 -23.25 44.35 -24.6 43.8 -26.1 L43.85 -26.35 Q45.5 -34.0 41.95 -40.0 L41.6 -40.6 M41.95 -20.65 L42.45 -21.8 42.55 -21.95 43.65 -19.65 41.95 -20.65" fill="#989898" fill-rule="evenodd" stroke="none"/>
    <path d="M-23.05 19.75 L-22.1 20.2 -22.05 20.25 -22.0 20.25 -11.6 20.65 -10.4 20.45 Q-3.55 19.4 3.75 15.95 5.25 15.25 6.7 14.5 12.1 11.6 17.8 7.4 25.3 1.95 30.85 -4.1 L31.2 -2.65 31.85 1.35 31.95 3.25 30.85 4.75 Q26.7 5.0 23.2 7.1 22.15 7.65 21.55 8.7 20.8 9.95 20.3 11.35 19.6 13.35 19.15 15.4 L18.75 18.5 18.5 22.35 18.35 24.0 Q16.55 25.65 13.9 26.3 L8.5 27.35 0.25 28.35 -7.15 28.4 -13.5 28.0 -16.75 27.25 -17.5 26.55 Q-20.75 23.35 -23.05 19.75" fill="url(#gradient0)" fill-rule="evenodd" stroke="none"/>
    <path d="M-23.05 19.75 Q-20.75 23.35 -17.5 26.55 L-16.75 27.25 -17.95 26.95 -20.9 25.85 Q-24.75 21.5 -27.1 16.65 L-26.8 16.9 -25.85 17.65 -23.05 19.75" fill="#8e7c71" fill-opacity="0.69411767" fill-rule="evenodd" stroke="none"/>
  </g>
  <defs>
    <linearGradient gradientTransform="matrix(-0.0031, -0.0193, 0.0379, -0.006, 1.5, 2.75)" gradientUnits="userSpaceOnUse" id="gradient0" spreadMethod="pad" x1="-819.2" x2="819.2">
      <stop offset="0.0" stop-color="#b9a99b" stop-opacity="0.29803923"/>
      <stop offset="1.0" stop-color="#ebe8e0"/>
    </linearGradient>
  </defs>
</svg>
