<?xml version="1.0" encoding="UTF-8" standalone="no"?>
<svg xmlns:ffdec="https://www.free-decompiler.com/flash" xmlns:xlink="http://www.w3.org/1999/xlink" ffdec:objectType="shape" height="83.1px" width="83.1px" xmlns="http://www.w3.org/2000/svg">
  <g transform="matrix(1.0, 0.0, 0.0, 1.0, 45.0, 55.05)">
    <path d="M-43.0 -13.15 L-43.0 -13.45 -42.95 -14.75 Q-42.7 -24.4 -38.05 -32.65 L-38.1 -32.65 -37.35 -33.95 -37.3 -33.95 -36.65 -35.05 Q-32.75 -41.1 -29.25 -43.4 L-28.15 -44.35 Q-23.75 -49.3 -14.9 -51.55 -9.15 -53.0 -3.45 -53.0 16.05 -53.0 27.2 -38.45 36.05 -26.9 36.05 -13.45 36.05 1.3 25.9 13.05 L21.65 17.3 20.5 18.3 Q16.8 21.25 12.6 23.1 5.75 26.05 -2.45 26.05 L-6.7 25.95 Q5.6 25.05 14.4 18.75 17.6 16.45 20.35 13.4 23.05 10.4 25.0 7.1 L25.6 6.05 Q28.6 0.45 29.5 -6.1 L29.3 -6.9 Q28.5 -10.4 27.2 -13.45 26.2 -15.7 21.5 -20.5 L20.95 -20.4 Q10.45 -26.85 6.3 -28.75 1.85 -30.7 -4.1 -32.55 -11.7 -34.85 -15.6 -34.85 L-19.75 -34.75 -20.0 -33.2 -20.4 -30.5 -20.25 -30.65 -20.05 -30.65 -20.65 -28.7 -20.9 -27.2 -21.4 -21.25 Q-21.4 -19.6 -21.7 -18.35 -21.8 -17.7 -22.45 -17.2 L-22.45 -17.15 Q-23.15 -16.75 -23.55 -16.6 -25.05 -15.9 -26.75 -15.9 -28.15 -15.9 -28.85 -20.3 L-29.25 -24.7 -29.05 -31.45 -28.9 -33.65 -29.4 -33.5 -31.2 -32.6 -32.55 -32.0 -34.7 -29.15 Q-35.65 -27.65 -36.35 -25.3 L-37.6 -21.5 Q-39.5 -16.8 -42.4 -13.85 L-43.0 -13.15" fill="#e7a867" fill-rule="evenodd" stroke="none"/>
    <path d="M-6.7 25.95 L-2.45 26.05 Q5.75 26.05 12.6 23.1 16.8 21.25 20.5 18.3 L21.65 17.3 25.9 13.05 Q36.05 1.3 36.05 -13.45 36.05 -26.9 27.2 -38.45 16.05 -53.0 -3.45 -53.0 -9.15 -53.0 -14.9 -51.55 -23.75 -49.3 -28.15 -44.35 L-29.25 -43.4 Q-32.75 -41.1 -36.65 -35.05 L-37.3 -33.95 -37.35 -33.95 -38.1 -32.65 -38.05 -32.65 Q-42.7 -24.4 -42.95 -14.75 L-43.0 -13.45 -43.0 -13.15 -42.95 -12.25 Q-42.75 -3.0 -38.7 4.9 -32.6 16.8 -18.55 23.2 -14.9 24.6 -11.75 25.25 L-6.7 25.95 M-3.45 -55.05 Q13.75 -55.05 25.95 -42.85 38.1 -30.7 38.1 -13.5 38.1 3.7 25.95 15.9 L22.95 18.65 19.2 21.45 Q15.6 23.85 11.65 25.4 4.65 28.05 -3.45 28.05 -20.65 28.05 -32.8 15.9 -45.0 3.7 -45.0 -13.5 -45.0 -16.4 -44.65 -19.2 -43.35 -29.3 -37.45 -37.45 L-36.75 -38.35 -32.8 -42.85 Q-20.65 -55.05 -3.45 -55.05" fill="#a46637" fill-rule="evenodd" stroke="none"/>
    <path d="M-43.0 -13.15 L-42.4 -13.85 Q-39.5 -16.8 -37.6 -21.5 L-36.35 -25.3 Q-35.65 -27.65 -34.7 -29.15 L-32.55 -32.0 -31.2 -32.6 -29.4 -33.5 -28.9 -33.65 -29.05 -31.45 -29.25 -24.7 -28.85 -20.3 Q-28.15 -15.9 -26.75 -15.9 -25.05 -15.9 -23.55 -16.6 -23.15 -16.75 -22.45 -17.15 L-22.45 -17.2 Q-21.8 -17.7 -21.7 -18.35 -21.4 -19.6 -21.4 -21.25 L-20.9 -27.2 -20.65 -28.7 -20.05 -30.65 -20.25 -30.65 -20.4 -30.5 -20.0 -33.2 -19.75 -34.75 -15.6 -34.85 Q-11.7 -34.85 -4.1 -32.55 1.85 -30.7 6.3 -28.75 10.45 -26.85 20.95 -20.4 L21.5 -20.5 Q26.2 -15.7 27.2 -13.45 28.5 -10.4 29.3 -6.9 L29.5 -6.1 Q28.6 0.45 25.6 6.05 L25.0 7.1 Q23.05 10.4 20.35 13.4 17.6 16.45 14.4 18.75 5.6 25.05 -6.7 25.95 L-11.75 25.25 Q-14.9 24.6 -18.55 23.2 -32.6 16.8 -38.7 4.9 -42.75 -3.0 -42.95 -12.25 L-43.0 -13.15 M-26.6 8.5 Q-18.9 17.7 -6.95 19.6 5.8 21.8 13.55 11.8 L16.3 7.8 14.25 2.5 Q11.05 -5.45 9.8 -9.85 10.1 -6.2 8.3 0.65 6.45 7.7 4.9 7.7 0.75 7.7 0.75 5.25 L1.55 1.15 2.5 -3.7 2.7 -9.2 Q2.7 -19.25 1.65 -24.7 L0.75 -28.3 0.3 -28.3 -2.1 -28.8 -1.5 -24.95 -0.4 -18.25 Q-0.4 -13.4 -1.75 -9.75 -2.95 -6.4 -4.35 -6.4 -8.6 -6.4 -8.95 -9.4 -8.5 -13.2 -8.5 -14.85 -8.5 -22.5 -10.0 -28.3 L-10.6 -30.35 -12.1 -30.75 -13.2 -31.0 -14.45 -27.45 Q-15.35 -24.3 -15.35 -20.1 -15.35 -15.6 -14.55 -9.7 L-13.8 -4.6 Q-13.8 -4.05 -15.4 -2.85 -17.1 -1.55 -18.2 -1.55 -19.75 -1.55 -21.05 -4.75 -22.55 -8.6 -22.4 -15.0 L-25.55 -13.15 -25.55 -13.3 -26.35 -13.45 -27.9 -10.7 Q-29.55 -7.8 -30.25 -7.15 -31.35 -6.05 -33.2 -5.35 -31.95 2.05 -26.6 8.5 M14.0 -21.3 Q14.0 -19.05 17.6 -7.95 L18.25 -6.1 Q18.85 -9.3 17.0 -16.25 L15.7 -20.7 14.05 -21.8 14.0 -21.3" fill="#f4bb83" fill-rule="evenodd" stroke="none"/>
    <path d="M14.0 -21.3 L14.05 -21.8 15.7 -20.7 17.0 -16.25 Q18.85 -9.3 18.25 -6.1 L17.6 -7.95 Q14.0 -19.05 14.0 -21.3 M-26.6 8.5 Q-31.95 2.05 -33.2 -5.35 -31.35 -6.05 -30.25 -7.15 -29.55 -7.8 -27.9 -10.7 L-26.35 -13.45 -25.55 -13.3 -25.55 -13.15 -22.4 -15.0 Q-22.55 -8.6 -21.05 -4.75 -19.75 -1.55 -18.2 -1.55 -17.1 -1.55 -15.4 -2.85 -13.8 -4.05 -13.8 -4.6 L-14.55 -9.7 Q-15.35 -15.6 -15.35 -20.1 -15.35 -24.3 -14.45 -27.45 L-13.2 -31.0 -12.1 -30.75 -10.6 -30.35 -10.0 -28.3 Q-8.5 -22.5 -8.5 -14.85 -8.5 -13.2 -8.95 -9.4 -8.6 -6.4 -4.35 -6.4 -2.95 -6.4 -1.75 -9.75 -0.4 -13.4 -0.4 -18.25 L-1.5 -24.95 -2.1 -28.8 0.3 -28.3 0.75 -28.3 1.65 -24.7 Q2.7 -19.25 2.7 -9.2 L2.5 -3.7 1.55 1.15 0.75 5.25 Q0.75 7.7 4.9 7.7 6.45 7.7 8.3 0.65 10.1 -6.2 9.8 -9.85 11.05 -5.45 14.25 2.5 L16.3 7.8 13.55 11.8 Q5.8 21.8 -6.95 19.6 -18.9 17.7 -26.6 8.5" fill="#f5c89d" fill-rule="evenodd" stroke="none"/>
  </g>
</svg>
