<?xml version="1.0" encoding="UTF-8" standalone="no"?>
<svg xmlns:ffdec="https://www.free-decompiler.com/flash" xmlns:xlink="http://www.w3.org/1999/xlink" ffdec:objectType="shape" height="125.95px" width="62.1px" xmlns="http://www.w3.org/2000/svg">
  <g transform="matrix(1.0, 0.0, 0.0, 1.0, 27.7, 135.85)">
    <path d="M20.05 -27.1 L20.45 -22.1 18.05 -21.15 17.5 -27.85 20.05 -27.1 M17.3 -30.65 L16.9 -35.85 Q19.0 -33.85 19.0 -32.1 19.0 -30.65 17.35 -30.65 L17.3 -30.65 M15.35 -55.0 L15.0 -59.2 15.05 -59.15 Q15.5 -58.45 15.5 -56.65 L15.35 -55.0 M6.1 -73.95 L6.1 -68.5 3.6 -66.75 3.65 -72.4 6.1 -73.95 M6.05 -61.95 L6.05 -61.65 Q5.2 -61.05 3.6 -60.65 L3.6 -62.55 3.75 -62.55 Q5.35 -62.45 6.05 -61.95 M6.05 -57.35 L6.0 -44.9 4.65 -43.75 6.0 -42.95 6.0 -33.7 3.5 -34.55 3.6 -56.55 6.05 -57.35 M6.0 -30.65 L5.95 -22.35 3.5 -24.1 3.5 -31.3 6.0 -30.65 M3.65 -82.45 L3.65 -87.45 Q5.0 -87.15 5.0 -84.65 L3.65 -82.45 M-1.7 -112.65 L-2.15 -107.25 -2.95 -108.3 -4.0 -110.7 -1.7 -112.65 M-3.05 -96.6 L-5.05 -72.95 Q-6.3 -72.35 -7.4 -72.35 L-7.6 -72.35 -6.0 -91.6 Q-4.8 -94.7 -3.05 -96.6 M-5.65 -65.7 L-6.15 -60.05 Q-8.15 -60.3 -8.55 -61.15 -8.8 -61.7 -8.45 -62.5 -7.85 -63.75 -5.65 -65.7 M-6.7 -53.3 L-7.95 -38.4 -10.4 -38.95 -9.3 -52.1 -6.7 -53.3 M-9.15 -24.35 L-9.35 -21.75 -10.25 -20.5 Q-11.05 -19.7 -12.05 -19.4 L-11.4 -27.1 Q-10.8 -26.85 -10.25 -26.3 -9.4 -25.45 -9.15 -24.35 M-4.05 -111.85 L-4.2 -111.7 -4.2 -111.85 -4.05 -111.85" fill="#ffffff" fill-rule="evenodd" stroke="none"/>
    <path d="M3.75 -124.05 L4.6 -123.35 3.75 -122.15 3.75 -124.05 M5.55 -122.35 L5.6 -122.3 5.4 -122.15 5.55 -122.35 M16.95 -65.75 L18.25 -49.55 16.55 -48.15 15.95 -47.65 15.35 -55.0 15.5 -56.65 Q15.5 -58.45 15.05 -59.15 L15.0 -59.2 14.55 -64.95 15.55 -65.3 16.95 -65.75 M18.85 -42.0 L20.05 -27.1 17.5 -27.85 17.3 -30.65 17.35 -30.65 Q19.0 -30.65 19.0 -32.1 19.0 -33.85 16.9 -35.85 L16.35 -42.25 18.85 -42.0 M20.45 -22.1 L21.0 -15.65 18.5 -15.3 18.05 -21.15 20.45 -22.1 M14.0 -71.5 L13.4 -78.9 15.4 -77.05 Q15.4 -74.55 14.7 -72.9 L14.0 -71.5 M3.7 -93.7 L6.15 -91.05 6.15 -81.1 5.6 -80.5 3.65 -78.05 3.65 -82.45 5.0 -84.65 Q5.0 -87.15 3.65 -87.45 L3.7 -93.7 M6.1 -77.6 L6.1 -73.95 3.65 -72.4 3.65 -75.55 6.1 -77.6 M6.1 -68.5 L6.05 -61.95 Q5.35 -62.45 3.75 -62.55 L3.6 -62.55 3.6 -66.75 6.1 -68.5 M6.05 -61.65 L6.05 -57.35 3.6 -56.55 3.6 -60.65 Q5.2 -61.05 6.05 -61.65 M6.0 -44.9 L6.0 -42.95 4.65 -43.75 6.0 -44.9 M6.0 -33.7 L6.0 -30.65 3.5 -31.3 3.5 -34.55 6.0 -33.7 M5.95 -22.35 L5.95 -17.1 5.8 -16.45 Q5.5 -15.7 3.45 -15.5 L3.5 -24.1 5.95 -22.35 M-4.1 -114.25 L-3.8 -114.5 Q-2.9 -115.3 -1.35 -117.2 L-1.55 -114.75 -4.05 -111.85 -4.2 -111.85 -4.2 -111.7 -4.3 -111.55 -4.1 -114.25 M-2.15 -107.25 L-2.5 -103.15 -4.35 -103.65 -4.95 -103.8 -4.4 -110.45 -4.0 -110.7 -2.95 -108.3 -2.15 -107.25 M-2.65 -101.7 L-3.05 -96.6 Q-4.8 -94.7 -6.0 -91.6 L-5.15 -101.55 -4.55 -101.6 -2.65 -101.7 M-5.05 -72.95 L-5.25 -70.75 -7.45 -69.9 -7.85 -69.75 -7.6 -72.35 -7.4 -72.35 Q-6.3 -72.35 -5.05 -72.95 M-5.4 -69.0 L-5.65 -65.7 Q-7.85 -63.75 -8.45 -62.5 L-8.15 -66.2 -6.8 -67.55 -5.4 -69.0 M-6.15 -60.05 L-6.7 -53.3 -9.3 -52.1 -8.9 -56.6 -8.4 -56.9 -8.1 -57.25 -8.85 -57.6 -8.55 -61.15 Q-8.15 -60.3 -6.15 -60.05 M-7.95 -38.4 L-8.35 -33.7 -10.8 -34.35 -10.4 -38.95 -7.95 -38.4 M-8.7 -29.9 L-9.15 -24.35 Q-9.4 -25.45 -10.25 -26.3 -10.8 -26.85 -11.4 -27.1 L-11.15 -30.05 -8.7 -29.9 M-9.35 -21.75 L-9.75 -17.4 -9.95 -17.15 Q-10.5 -16.6 -11.35 -16.6 L-12.3 -16.65 -12.05 -19.4 Q-11.05 -19.7 -10.25 -20.5 L-9.35 -21.75" fill="#e0e0e0" fill-rule="evenodd" stroke="none"/>
    <path d="M3.75 -125.4 Q5.0 -128.0 5.35 -129.75 L5.8 -129.3 6.25 -128.75 6.25 -126.2 4.75 -123.65 4.6 -123.35 3.75 -124.05 3.75 -125.4 M6.25 -123.4 L6.25 -122.5 5.6 -122.3 5.55 -122.35 6.25 -123.4 M18.1 -86.4 L20.35 -81.35 Q20.9 -79.65 20.9 -76.7 20.9 -74.45 20.4 -72.65 L17.75 -86.3 18.1 -86.4 M20.9 -70.1 L22.4 -71.1 24.9 -62.45 27.65 -48.1 26.9 -47.7 25.4 -46.6 20.9 -70.1 M12.85 -86.1 L14.9 -85.8 15.35 -85.7 16.95 -65.75 15.55 -65.3 14.55 -64.95 14.0 -71.5 14.7 -72.9 Q15.4 -74.55 15.4 -77.05 L13.4 -78.9 12.85 -86.1 M18.25 -49.55 L18.85 -42.0 16.35 -42.25 15.95 -47.65 16.55 -48.15 18.25 -49.55 M21.0 -15.65 L21.25 -12.6 20.35 -12.05 18.8 -11.85 18.5 -15.3 21.0 -15.65 M6.15 -81.1 L6.1 -77.6 3.65 -75.55 3.65 -78.05 5.6 -80.5 6.15 -81.1 M5.95 -17.1 L5.95 -11.5 3.45 -11.5 3.45 -15.5 Q5.5 -15.7 5.8 -16.45 L5.95 -17.1 M25.75 -44.75 L28.25 -44.85 32.7 -21.8 Q32.25 -19.35 30.95 -17.85 L25.75 -44.75 M-7.85 -117.1 L-7.65 -116.7 -8.05 -114.4 -8.4 -115.35 -7.85 -117.1 M-24.6 -17.2 Q-25.85 -17.95 -25.85 -18.6 -25.85 -28.25 -23.5 -31.8 L-21.85 -33.45 -24.6 -17.2 M-21.3 -36.55 L-22.1 -40.25 Q-21.9 -40.95 -20.6 -49.7 -19.75 -55.1 -17.7 -57.7 L-21.3 -36.55 M-17.65 -58.1 L-18.45 -61.95 Q-16.6 -67.2 -14.7 -80.2 L-11.3 -103.0 Q-10.25 -108.9 -8.95 -113.5 L-8.4 -112.35 -17.65 -58.1 M-2.5 -103.15 L-2.65 -101.7 -4.55 -101.6 -5.15 -101.55 -4.95 -103.8 -4.35 -103.65 -2.5 -103.15 M-5.25 -70.75 L-5.4 -69.0 -6.8 -67.55 -8.15 -66.2 -7.85 -69.75 -7.45 -69.9 -5.25 -70.75 M-8.35 -33.7 L-8.7 -29.9 -11.15 -30.05 -10.8 -34.35 -8.35 -33.7 M-9.75 -17.4 L-10.1 -12.85 -12.55 -13.55 -12.3 -16.65 -11.35 -16.6 Q-10.5 -16.6 -9.95 -17.15 L-9.75 -17.4 M-8.9 -56.6 L-8.85 -57.6 -8.1 -57.25 -8.4 -56.9 -8.9 -56.6" fill="#b4b4b4" fill-rule="evenodd" stroke="none"/>
    <path d="M5.35 -129.75 L5.5 -131.3 Q5.5 -132.4 5.0 -133.2 L6.05 -132.45 6.25 -132.25 6.25 -128.75 5.8 -129.3 5.35 -129.75 M4.6 -123.35 L4.75 -123.65 6.25 -126.2 6.25 -123.4 5.55 -122.35 5.4 -122.15 3.75 -119.9 3.75 -122.15 4.6 -123.35 M9.5 -127.45 L11.2 -123.1 9.85 -123.2 9.5 -127.45 M20.4 -72.65 Q20.9 -74.45 20.9 -76.7 20.9 -79.65 20.35 -81.35 L18.1 -86.4 19.7 -87.45 20.05 -87.65 24.9 -62.45 22.4 -71.1 20.9 -70.1 20.4 -72.65 M21.25 -12.6 L21.25 -12.2 20.35 -12.05 21.25 -12.6 M25.75 -44.75 L25.4 -46.6 26.9 -47.7 27.65 -48.1 28.25 -44.85 25.75 -44.75 M30.95 -17.85 Q32.25 -19.35 32.7 -21.8 L34.15 -14.4 31.7 -13.9 30.95 -17.85 M-8.1 -129.0 L-7.0 -130.8 -6.3 -131.65 Q-9.2 -126.25 -8.5 -118.6 L-7.85 -117.1 -8.4 -115.35 -8.05 -114.4 -8.4 -112.35 -8.95 -113.5 Q-10.25 -108.9 -11.3 -103.0 L-14.7 -80.2 Q-16.6 -67.2 -18.45 -61.95 L-17.65 -58.1 -17.7 -57.7 Q-19.75 -55.1 -20.6 -49.7 -21.9 -40.95 -22.1 -40.25 L-21.3 -36.55 -21.85 -33.45 -23.5 -31.8 Q-25.85 -28.25 -25.85 -18.6 -25.85 -17.95 -24.6 -17.2 L-25.0 -14.9 -27.4 -15.4 -8.1 -129.0 M-1.55 -114.75 L-1.7 -112.65 -4.0 -110.7 -4.4 -110.45 -4.3 -111.55 -4.2 -111.7 -4.05 -111.85 -1.55 -114.75 M-10.1 -12.85 L-10.15 -12.5 -12.6 -12.85 -12.55 -13.55 -10.1 -12.85" fill="#8a8a8a" fill-rule="evenodd" stroke="none"/>
    <path d="M6.25 -132.25 L6.05 -132.45 5.0 -133.2 Q5.5 -132.4 5.5 -131.3 L5.35 -129.75 Q5.0 -128.0 3.75 -125.4 L3.75 -128.8 4.2 -130.6 4.25 -131.3 Q4.2 -132.1 3.75 -132.75 L3.75 -135.1 Q5.1 -134.65 6.25 -133.8 L6.25 -132.25 M0.25 -135.8 L0.15 -134.5 -1.35 -134.35 -2.45 -133.9 -2.3 -135.7 -0.7 -135.85 0.25 -135.8 M9.5 -127.45 L9.25 -130.65 Q10.9 -128.4 12.2 -125.45 L12.75 -118.6 11.8 -121.4 10.0 -121.7 9.85 -123.2 11.2 -123.1 9.5 -127.45 M5.6 -122.3 L6.25 -122.5 6.25 -120.9 Q4.8 -120.15 3.75 -118.7 L3.75 -119.9 5.4 -122.15 5.6 -122.3 M18.1 -86.4 L17.75 -86.3 17.5 -87.75 19.75 -89.15 20.05 -87.65 19.7 -87.45 18.1 -86.4 M12.85 -86.1 L12.7 -87.65 14.5 -87.35 15.25 -87.3 15.35 -85.7 14.9 -85.8 12.85 -86.1 M21.25 -12.2 L21.4 -10.45 18.9 -10.25 18.8 -11.85 20.35 -12.05 21.25 -12.2 M3.7 -93.7 L3.7 -96.75 4.25 -95.65 6.15 -92.7 6.15 -91.05 3.7 -93.7 M5.95 -11.5 L5.95 -9.9 3.45 -9.9 3.45 -11.5 5.95 -11.5 M31.7 -13.9 L34.15 -14.4 34.4 -13.0 32.0 -12.4 31.7 -13.9 M-7.85 -117.1 L-8.5 -118.6 Q-9.2 -126.25 -6.3 -131.65 L-7.0 -130.8 -8.1 -129.0 -7.5 -132.5 Q-6.2 -134.15 -4.55 -134.95 L-5.25 -130.85 Q-7.6 -126.3 -7.1 -120.05 L-7.65 -116.7 -7.85 -117.1 M-27.4 -15.4 L-25.0 -14.9 -25.3 -12.95 -27.7 -13.6 -27.4 -15.4 M-4.1 -114.25 L-3.95 -116.0 -3.3 -116.65 Q-2.45 -117.65 -1.75 -118.8 L-1.1 -119.75 -1.35 -117.2 Q-2.9 -115.3 -3.8 -114.5 L-4.1 -114.25 M-10.15 -12.5 L-10.3 -10.7 -12.75 -10.95 -12.6 -12.85 -10.15 -12.5" fill="#464646" fill-rule="evenodd" stroke="none"/>
    <path d="M-4.05 -111.85 L-4.2 -111.7 -4.2 -111.85 -4.05 -111.85" fill="#49f1cb" fill-rule="evenodd" stroke="none"/>
    <path d="M5.55 -122.35 L5.6 -122.3 5.4 -122.15 5.55 -122.35 M4.6 -123.35 L3.0 -121.1 2.5 -120.35 2.45 -120.25 2.3 -120.0 2.1 -119.7 1.8 -119.3 1.45 -118.85 0.5 -117.5 0.35 -117.25 Q-2.5 -113.4 -4.05 -111.85 L-4.2 -111.85 -4.2 -111.7 Q-5.1 -110.9 -5.55 -110.9 -6.15 -110.9 -6.7 -111.55 L-6.2 -114.15 -5.65 -113.5 -5.6 -113.45 -5.2 -113.45 -4.3 -114.05 -3.8 -114.5 Q-2.65 -115.5 -0.5 -118.25 L1.25 -120.8 1.9 -121.9 3.25 -124.4 4.6 -123.35" fill="#e0e0e0" fill-rule="evenodd" stroke="none"/>
    <path d="M3.25 -124.4 L3.55 -125.05 Q4.95 -127.9 5.35 -129.75 L5.8 -129.3 6.8 -127.95 6.3 -126.35 4.75 -123.65 4.6 -123.35 3.25 -124.4 M-6.7 -111.55 Q-7.3 -112.25 -7.8 -113.65 L-8.4 -115.35 -7.85 -117.1 -6.7 -114.9 -6.2 -114.15 -6.7 -111.55" fill="#b4b4b4" fill-rule="evenodd" stroke="none"/>
    <path d="M8.7 -129.1 L6.45 -123.75 5.55 -122.35 5.4 -122.15 2.8 -118.7 0.65 -115.75 -0.95 -113.55 Q-2.4 -111.8 -4.0 -110.7 -5.15 -109.95 -6.4 -109.5 L-6.95 -110.15 Q-8.25 -111.8 -8.95 -113.5 -9.1 -113.1 -11.2 -119.8 L-11.05 -120.55 Q-9.35 -127.6 -7.0 -130.8 L-6.3 -131.65 Q-9.2 -126.25 -8.5 -118.6 L-7.85 -117.1 -8.4 -115.35 -7.8 -113.65 Q-7.3 -112.25 -6.7 -111.55 -6.15 -110.9 -5.55 -110.9 -5.1 -110.9 -4.2 -111.7 L-4.05 -111.85 Q-2.5 -113.4 0.35 -117.25 L0.5 -117.5 1.45 -118.85 1.8 -119.3 2.1 -119.7 2.3 -120.0 2.45 -120.25 2.5 -120.35 3.0 -121.1 4.6 -123.35 4.75 -123.65 6.3 -126.35 6.8 -127.95 5.8 -129.3 5.35 -129.75 5.5 -131.3 Q5.5 -132.4 5.0 -133.2 L6.05 -132.45 7.95 -130.2 8.25 -130.3 Q8.6 -130.15 8.6 -129.65 L8.7 -129.1" fill="#8a8a8a" fill-rule="evenodd" stroke="none"/>
    <path d="M9.3 -130.6 Q8.95 -128.65 8.8 -128.9 L8.7 -129.1 8.6 -129.65 Q8.6 -130.15 8.25 -130.3 L7.95 -130.2 6.05 -132.45 5.0 -133.2 Q5.5 -132.4 5.5 -131.3 L5.35 -129.75 Q4.95 -127.9 3.55 -125.05 L3.25 -124.4 1.9 -121.9 1.25 -120.8 -0.5 -118.25 Q-2.65 -115.5 -3.8 -114.5 L-4.3 -114.05 -5.2 -113.45 -5.6 -113.45 -5.65 -113.5 -6.2 -114.15 -6.7 -114.9 -7.85 -117.1 -8.5 -118.6 Q-9.2 -126.25 -6.3 -131.65 L-7.0 -130.8 Q-9.35 -127.6 -11.05 -120.55 L-11.2 -119.8 -11.75 -121.5 Q-10.7 -126.4 -9.8 -128.55 -6.8 -135.85 -0.7 -135.85 4.6 -135.85 7.7 -132.5 L9.3 -130.6 M2.45 -133.85 L0.9 -134.4 -1.35 -134.35 Q-2.95 -133.9 -4.45 -132.3 -7.8 -127.1 -7.05 -119.45 L-7.0 -118.95 Q-6.8 -117.35 -5.75 -115.85 L-5.15 -115.05 -3.95 -116.0 -3.3 -116.65 Q-2.45 -117.65 -1.75 -118.8 L-0.45 -120.8 0.15 -121.8 2.05 -125.15 2.55 -126.05 Q3.95 -128.85 4.2 -130.6 L4.25 -131.3 Q4.15 -132.95 2.45 -133.85" fill="#464646" fill-rule="evenodd" stroke="none"/>
  </g>
</svg>
