<?xml version="1.0" encoding="UTF-8" standalone="no"?>
<svg xmlns:ffdec="https://www.free-decompiler.com/flash" xmlns:xlink="http://www.w3.org/1999/xlink" ffdec:objectType="shape" height="88.4px" width="88.3px" xmlns="http://www.w3.org/2000/svg">
  <g transform="matrix(1.0, 0.0, 0.0, 1.0, 46.15, 60.2)">
    <path d="M-29.8 -47.7 L-29.0 -48.45 -28.9 -48.15 -29.8 -47.7" fill="#eaa76a" fill-rule="evenodd" stroke="none"/>
    <path d="M-2.1 26.1 Q15.5 26.05 27.75 13.9 40.05 1.9 40.05 -14.9 40.05 -33.3 27.7 -45.8 15.55 -58.05 -2.1 -58.05 -8.2 -58.05 -14.6 -56.45 -24.25 -53.95 -29.0 -48.45 L-29.8 -47.7 Q-33.05 -45.8 -37.45 -39.1 -44.15 -28.5 -44.15 -16.05 -44.15 -6.8 -40.4 2.4 -33.8 18.3 -18.4 23.05 -16.95 23.5 -14.0 24.7 -10.8 25.65 -6.25 25.95 L-2.1 26.1 M42.15 -16.05 Q42.15 2.35 29.2 15.25 16.25 28.2 -2.1 28.2 -20.35 28.2 -33.25 15.25 -46.15 2.35 -46.15 -16.05 -46.15 -34.35 -33.25 -47.25 -20.35 -60.2 -2.1 -60.2 16.25 -60.2 29.2 -47.25 42.15 -34.35 42.15 -16.05" fill="#644124" fill-rule="evenodd" stroke="none"/>
    <path d="M2.25 -32.05 Q7.7 -29.55 11.1 -29.55 L15.05 -29.8 Q18.75 -30.0 19.75 -29.75 L21.1 -29.1 Q24.4 -21.85 24.4 -13.9 24.4 0.0 14.75 11.05 4.8 22.3 -10.0 23.25 -11.9 22.25 -15.0 21.05 -24.3 17.5 -25.55 16.6 -27.2 15.4 -29.7 11.45 -32.4 7.2 -32.4 5.25 -32.4 0.35 -28.45 -3.65 -22.85 -9.25 -20.4 -14.65 L-18.4 -19.6 -16.25 -24.55 Q-15.8 -25.35 -15.3 -27.0 L-14.4 -29.65 Q-13.85 -30.95 -10.9 -32.8 -8.05 -34.55 -6.75 -34.55 -3.25 -34.55 2.25 -32.05" fill="#cd8f52" fill-rule="evenodd" stroke="none"/>
    <path d="M2.25 -32.05 Q-3.25 -34.55 -6.75 -34.55 -8.05 -34.55 -10.9 -32.8 -13.85 -30.95 -14.4 -29.65 L-15.3 -27.0 Q-15.8 -25.35 -16.25 -24.55 L-18.4 -19.6 -20.4 -14.65 Q-22.85 -9.25 -28.45 -3.65 -32.4 0.35 -32.4 5.25 -32.4 7.2 -29.7 11.45 -27.2 15.4 -25.55 16.6 -24.3 17.5 -15.0 21.05 -11.9 22.25 -10.0 23.25 4.8 22.3 14.75 11.05 24.4 0.0 24.4 -13.9 24.4 -21.85 21.1 -29.1 L19.75 -29.75 Q18.75 -30.0 15.05 -29.8 L11.1 -29.55 Q7.7 -29.55 2.25 -32.05 M-29.0 -48.45 Q-25.4 -50.6 -19.85 -52.45 -12.65 -54.85 -7.0 -54.85 9.8 -54.85 21.65 -43.05 33.45 -31.25 33.45 -14.45 33.45 0.25 25.1 10.3 16.15 20.85 -2.15 25.8 L-2.1 26.1 -6.25 25.95 Q-10.8 25.65 -14.0 24.7 -16.95 23.5 -18.4 23.05 -33.8 18.3 -40.4 2.4 -44.15 -6.8 -44.15 -16.05 -44.15 -28.5 -37.45 -39.1 -33.05 -45.8 -29.8 -47.7 L-28.9 -48.15 -29.0 -48.45" fill="#c38145" fill-rule="evenodd" stroke="none"/>
    <path d="M-29.0 -48.45 Q-24.25 -53.95 -14.6 -56.45 -8.2 -58.05 -2.1 -58.05 15.55 -58.05 27.7 -45.8 40.05 -33.3 40.05 -14.9 40.05 1.9 27.75 13.9 15.5 26.05 -2.1 26.1 L-2.15 25.8 Q16.15 20.85 25.1 10.3 33.45 0.25 33.45 -14.45 33.45 -31.25 21.65 -43.05 9.8 -54.85 -7.0 -54.85 -12.65 -54.85 -19.85 -52.45 -25.4 -50.6 -29.0 -48.45" fill="#ac6f3e" fill-rule="evenodd" stroke="none"/>
  </g>
</svg>
