<?xml version="1.0" encoding="UTF-8" standalone="no"?>
<svg xmlns:ffdec="https://www.free-decompiler.com/flash" xmlns:xlink="http://www.w3.org/1999/xlink" ffdec:objectType="shape" height="21.05px" width="20.55px" xmlns="http://www.w3.org/2000/svg">
  <g transform="matrix(1.0, 0.0, 0.0, 1.0, -20.55, 30.2)">
    <path d="M28.6 -25.2 L28.85 -25.35 Q30.15 -25.95 30.8 -25.95 32.45 -25.95 33.05 -25.35 33.95 -24.45 32.35 -22.15 28.65 -17.9 28.35 -17.0 28.55 -16.8 30.45 -15.7 L33.0 -13.65 32.35 -12.9 32.05 -12.9 30.5 -13.9 30.3 -10.85 29.75 -10.3 29.7 -10.2 29.9 -13.95 29.75 -13.85 29.7 -14.05 28.9 -14.3 27.1 -13.25 22.95 -13.8 24.9 -15.8 21.6 -17.25 22.75 -18.45 22.1 -19.7 22.3 -20.25 Q22.75 -21.35 23.3 -21.9 L25.05 -21.3 25.7 -21.95 26.4 -21.25 25.8 -20.75 Q22.75 -18.15 22.75 -17.4 22.75 -16.75 22.95 -16.75 L23.4 -16.8 Q24.9 -17.15 27.65 -19.65 L27.85 -19.8 27.9 -19.8 27.9 -19.85 Q30.45 -22.15 30.85 -23.35 L30.75 -23.7 Q29.5 -23.5 27.45 -22.05 L26.95 -24.35 28.0 -24.95 28.55 -24.8 28.6 -25.2 M31.8 -29.75 L31.15 -29.15 29.05 -27.65 31.35 -30.05 31.45 -30.2 31.8 -29.75" fill="#e0e0e0" fill-rule="evenodd" stroke="none"/>
    <path d="M32.35 -12.9 L33.0 -13.65 30.45 -15.7 Q28.55 -16.8 28.35 -17.0 28.65 -17.9 32.35 -22.15 33.95 -24.45 33.05 -25.35 32.45 -25.95 30.8 -25.95 30.15 -25.95 28.85 -25.35 L28.6 -25.2 28.7 -27.3 29.05 -27.65 31.15 -29.15 31.8 -29.75 33.75 -26.95 33.55 -24.45 35.4 -24.7 33.4 -19.4 35.85 -21.1 35.85 -21.05 Q35.75 -19.9 34.5 -18.4 L32.9 -16.5 34.85 -15.5 35.9 -15.0 35.75 -15.0 36.85 -13.55 36.2 -12.75 32.35 -12.9 M28.0 -24.95 L26.95 -24.35 26.75 -25.3 28.0 -24.95 M23.3 -21.9 Q22.75 -21.35 22.3 -20.25 L22.1 -19.7 20.55 -22.85 23.3 -21.9 M29.7 -10.2 L29.75 -10.3 30.3 -10.85 30.2 -9.15 29.6 -9.2 29.7 -10.2" fill="#b4b4b4" fill-rule="evenodd" stroke="none"/>
    <path d="M27.45 -22.05 Q29.5 -23.5 30.75 -23.7 L30.85 -23.35 Q30.45 -22.15 27.9 -19.85 L27.45 -22.05 M27.85 -19.8 L27.65 -19.65 Q24.9 -17.15 23.4 -16.8 L22.95 -16.75 Q22.75 -16.75 22.75 -17.4 22.75 -18.15 25.8 -20.75 L26.4 -21.25 27.85 -19.8 M27.1 -13.25 L28.9 -14.3 29.7 -14.05 29.75 -13.85 28.2 -13.15 27.1 -13.25" fill="#ffffff" fill-rule="evenodd" stroke="none"/>
    <path d="M36.2 -12.75 L36.85 -13.55 37.4 -12.75 36.2 -12.75 M35.9 -15.0 L34.85 -15.5 32.9 -16.5 34.5 -18.4 Q35.75 -19.9 35.85 -21.05 L35.85 -21.1 35.9 -21.15 36.4 -20.4 40.2 -21.15 39.9 -19.6 38.25 -17.3 39.2 -16.0 39.25 -15.95 35.9 -15.0" fill="#8a8a8a" fill-rule="evenodd" stroke="none"/>
    <path d="M39.9 -19.6 L40.2 -21.15 41.1 -21.35 39.9 -19.6" fill="#464646" fill-rule="evenodd" stroke="none"/>
  </g>
</svg>
