<?xml version="1.0" encoding="UTF-8" standalone="no"?>
<svg xmlns:ffdec="https://www.free-decompiler.com/flash" xmlns:xlink="http://www.w3.org/1999/xlink" ffdec:objectType="shape" height="36.55px" width="36.6px" xmlns="http://www.w3.org/2000/svg">
  <g transform="matrix(1.0, 0.0, 0.0, 1.0, 18.3, 36.55)">
    <path d="M11.6 -6.6 Q6.8 -1.75 0.0 -1.75 -6.8 -1.75 -11.65 -6.6 -16.45 -11.4 -16.45 -18.25 -16.45 -25.05 -11.65 -29.9 -6.8 -34.7 0.0 -34.7 6.8 -34.7 11.6 -29.9 16.45 -25.05 16.45 -18.25 16.45 -11.4 11.6 -6.6 M15.45 -18.25 Q15.45 -24.65 10.9 -29.2 6.4 -33.7 0.0 -33.7 -6.4 -33.7 -10.95 -29.2 -15.45 -24.65 -15.45 -18.25 -15.45 -11.8 -10.95 -7.3 -6.4 -2.75 0.0 -2.75 6.4 -2.75 10.9 -7.3 15.45 -11.8 15.45 -18.25" fill="#a39c96" fill-rule="evenodd" stroke="none"/>
    <path d="M11.6 -6.6 Q16.45 -11.4 16.45 -18.25 16.45 -25.05 11.6 -29.9 6.8 -34.7 0.0 -34.7 -6.8 -34.7 -11.65 -29.9 -16.45 -25.05 -16.45 -18.25 -16.45 -11.4 -11.65 -6.6 -6.8 -1.75 0.0 -1.75 6.8 -1.75 11.6 -6.6 M17.3 -18.25 Q17.3 -11.1 12.2 -6.1 7.15 -1.0 0.0 -1.0 -7.15 -1.0 -12.25 -6.1 -17.3 -11.1 -17.3 -18.25 -17.3 -25.45 -12.25 -30.5 -7.15 -35.55 0.0 -35.55 7.15 -35.55 12.2 -30.5 17.3 -25.45 17.3 -18.25" fill="#ebe6e0" fill-rule="evenodd" stroke="none"/>
    <path d="M17.3 -18.25 Q17.3 -25.45 12.2 -30.5 7.15 -35.55 0.0 -35.55 -7.15 -35.55 -12.25 -30.5 -17.3 -25.45 -17.3 -18.25 -17.3 -11.1 -12.25 -6.1 -7.15 -1.0 0.0 -1.0 7.15 -1.0 12.2 -6.1 17.3 -11.1 17.3 -18.25 M12.9 -5.4 Q7.55 0.0 0.0 0.0 -7.55 0.0 -12.95 -5.4 -18.3 -10.7 -18.3 -18.25 -18.3 -25.85 -12.95 -31.2 -7.55 -36.55 0.0 -36.55 7.55 -36.55 12.9 -31.2 18.3 -25.85 18.3 -18.25 18.3 -10.7 12.9 -5.4" fill="#b0a8a2" fill-rule="evenodd" stroke="none"/>
  </g>
</svg>
