<?xml version="1.0" encoding="UTF-8" standalone="no"?>
<svg xmlns:ffdec="https://www.free-decompiler.com/flash" xmlns:xlink="http://www.w3.org/1999/xlink" ffdec:objectType="shape" height="30.2px" width="8.85px" xmlns="http://www.w3.org/2000/svg">
  <g transform="matrix(1.0, 0.0, 0.0, 1.0, 7.05, 21.2)">
    <path d="M-3.15 -0.55 Q-2.6 0.4 -1.85 3.45 -1.05 6.5 -1.05 7.65 -1.05 8.35 -1.7 8.6 L-5.65 9.0 -6.7 9.0 Q-7.05 8.9 -7.05 8.25 L-6.7 1.0 Q-6.45 0.65 -5.9 0.65 L-6.65 -0.75 Q-7.05 -1.4 -7.05 -2.0 L-5.75 -5.6 -5.95 -16.45 -5.95 -21.2 -5.4 -21.2 -5.5 -17.9 Q-5.2 -10.3 -5.2 -3.45 L-4.05 -3.65 -3.95 -2.95 -5.3 -2.7 -5.0 2.3 -3.65 2.2 -3.85 -2.55 -3.15 -0.55 M-6.15 -1.2 Q-6.0 -1.25 -5.8 -3.05 -5.85 -3.0 -6.2 -2.9 -6.5 -2.65 -6.5 -2.05 L-6.4 -1.3 -6.15 -1.2 M-3.0 5.7 Q-2.6 6.0 -2.6 6.4 -2.6 6.8 -3.0 7.1 L-4.05 7.4 -5.05 7.1 -5.5 6.4 -5.05 5.7 Q-4.65 5.4 -4.05 5.4 L-3.0 5.7 M-3.05 1.25 Q-3.25 2.5 -3.8 3.2 L-4.65 4.05 -5.55 3.15 -5.7 2.35 -5.85 1.25 Q-6.2 3.6 -6.35 8.15 -6.25 8.25 -6.3 8.3 L-5.65 8.35 Q-1.65 8.35 -1.65 7.4 L-2.05 4.6 Q-2.5 2.1 -3.05 1.25" fill="#333333" fill-rule="evenodd" stroke="none"/>
    <path d="M-5.4 -21.2 L-4.35 -21.2 -4.15 -17.05 Q-3.95 -12.8 -4.05 -3.65 L-5.2 -3.45 Q-5.2 -10.3 -5.5 -17.9 L-5.4 -21.2 M-6.15 -1.2 L-6.4 -1.3 -6.5 -2.05 Q-6.5 -2.65 -6.2 -2.9 -5.85 -3.0 -5.8 -3.05 -6.0 -1.25 -6.15 -1.2" fill="#6e6e6e" fill-rule="evenodd" stroke="none"/>
    <path d="M-3.95 -2.95 L-3.85 -2.55 -3.65 2.2 -5.0 2.3 -5.3 -2.7 -3.95 -2.95 M-3.05 1.25 Q-2.5 2.1 -2.05 4.6 L-1.65 7.4 Q-1.65 8.35 -5.65 8.35 L-6.3 8.3 Q-6.25 8.25 -6.35 8.15 -6.2 3.6 -5.85 1.25 L-5.7 2.35 -5.55 3.15 -4.65 4.05 -3.8 3.2 Q-3.25 2.5 -3.05 1.25 M-3.0 5.7 L-4.05 5.4 Q-4.65 5.4 -5.05 5.7 L-5.5 6.4 -5.05 7.1 -4.05 7.4 -3.0 7.1 Q-2.6 6.8 -2.6 6.4 -2.6 6.0 -3.0 5.7" fill="#8c8c8c" fill-rule="evenodd" stroke="none"/>
    <path d="M-4.35 -21.2 L1.8 -21.2 1.8 -0.55 -2.75 -0.55 -3.15 -0.55 -3.85 -2.55 -3.95 -2.95 -4.05 -3.65 Q-3.95 -12.8 -4.15 -17.05 L-4.35 -21.2" fill="#464646" fill-rule="evenodd" stroke="none"/>
  </g>
</svg>
