<?xml version="1.0" encoding="UTF-8" standalone="no"?>
<svg xmlns:ffdec="https://www.free-decompiler.com/flash" xmlns:xlink="http://www.w3.org/1999/xlink" ffdec:objectType="shape" height="49.2px" width="46.15px" xmlns="http://www.w3.org/2000/svg">
  <g transform="matrix(1.0, 0.0, 0.0, 1.0, 17.0, 9.2)">
    <path d="M-1.35 2.1 L-1.6 1.0 Q-2.55 -3.55 -2.55 -8.05 L-2.4 -9.0 -1.55 -9.2 Q7.35 -9.2 10.6 -7.35 13.3 -5.8 13.3 -2.0 L12.65 -0.25 11.75 2.1 11.25 3.55 10.35 6.15 10.1 6.9 9.95 7.65 9.9 7.9 9.85 8.0 8.85 15.95 8.7 16.05 6.95 17.05 8.4 5.3 Q8.45 4.4 8.8 3.3 L9.3 1.8 9.9 0.35 11.25 -2.25 Q11.25 -5.3 8.15 -5.95 L-0.35 -7.15 1.0 1.75 1.2 3.25 1.3 4.0 1.3 6.1 1.15 7.7 0.25 13.3 -0.05 14.45 -1.4 20.75 -1.15 20.85 -1.5 22.65 -2.15 23.3 -2.8 23.95 -3.0 24.15 -2.65 21.15 -2.05 19.1 -1.9 17.6 Q-1.5 15.85 -1.2 13.3 L-0.8 9.25 -0.75 8.3 -0.75 8.2 -0.75 6.7 -1.1 3.6 -1.35 2.1" fill="#a46637" fill-rule="evenodd" stroke="none"/>
    <path d="M-1.5 22.65 L-1.15 20.85 -1.4 20.75 -0.05 14.45 0.25 13.3 1.15 7.7 1.3 6.1 1.3 4.0 1.2 3.25 1.0 1.75 -0.35 -7.15 8.15 -5.95 Q11.25 -5.3 11.25 -2.25 L9.9 0.35 9.3 1.8 8.8 3.3 Q8.45 4.4 8.4 5.3 L6.95 17.05 0.15 21.35 -1.3 22.45 -1.5 22.65" fill="#e7a867" fill-rule="evenodd" stroke="none"/>
    <path d="M-1.1 3.6 L-0.75 6.7 Q-4.3 7.95 -6.15 11.05 L-6.6 11.95 -7.2 13.45 -7.45 14.15 Q-9.45 13.0 -11.05 10.1 L-11.9 8.3 -10.45 7.3 -9.75 6.85 Q-5.75 4.45 -1.1 3.6 M10.35 6.15 L11.25 3.55 Q16.4 4.25 20.25 5.95 17.35 9.8 15.4 11.25 L15.45 10.5 Q15.55 7.15 10.35 6.15" fill="#378c4f" fill-rule="evenodd" stroke="none"/>
    <path d="M20.25 5.95 L20.9 6.2 21.75 6.65 23.0 7.3 Q23.55 8.6 23.55 10.1 23.55 12.6 21.65 14.0 19.75 15.35 13.85 17.25 7.9 19.05 5.4 20.15 4.7 20.45 1.35 22.3 L2.25 21.7 Q4.0 20.55 6.75 18.95 L8.85 17.7 9.45 17.35 10.3 16.85 Q13.15 15.0 14.45 13.3 15.2 12.25 15.4 11.25 17.35 9.8 20.25 5.95 M-7.2 13.45 Q-8.15 16.25 -8.35 20.95 L-8.45 24.15 -8.4 27.25 -9.2 23.85 Q-9.95 20.55 -10.8 18.75 L-13.6 13.25 -14.3 10.75 -13.35 9.6 -13.2 9.45 -11.9 8.3 -11.05 10.1 Q-9.45 13.0 -7.45 14.15 L-7.2 13.45" fill="#59cb79" fill-rule="evenodd" stroke="none"/>
    <path d="M-1.35 2.1 L-1.1 3.6 Q-5.75 4.45 -9.75 6.85 L-10.45 7.3 -11.9 8.3 -13.2 9.45 -13.35 9.6 -14.3 10.75 Q-16.25 13.6 -14.6 16.8 -11.6 22.6 -10.85 24.55 -10.25 26.05 -8.1 34.6 -7.95 31.7 -8.25 30.15 L-8.4 27.25 -8.45 24.15 -8.35 20.95 Q-8.15 16.25 -7.2 13.45 L-6.6 11.95 -6.15 11.05 Q-4.3 7.95 -0.75 6.7 L-0.75 8.2 -0.75 8.3 -1.55 8.7 -2.3 9.15 -2.4 9.25 -2.7 9.5 -3.6 10.2 -3.6 10.25 Q-4.6 11.2 -5.25 12.6 -6.95 16.1 -6.95 24.15 L-6.8 29.85 -6.8 30.0 Q-5.75 27.5 -3.85 25.15 L-3.45 24.65 -3.0 24.15 -2.8 23.95 -2.15 23.3 -1.5 22.65 -1.3 22.45 0.15 21.35 6.95 17.05 8.7 16.05 8.85 15.95 9.05 15.85 9.25 15.75 11.3 14.3 12.45 13.3 Q13.9 11.85 13.95 10.5 13.9 9.75 13.4 9.15 12.45 8.1 9.95 7.65 L10.1 6.9 10.35 6.15 Q15.55 7.15 15.45 10.5 L15.4 11.25 Q15.2 12.25 14.45 13.3 13.15 15.0 10.3 16.85 L9.45 17.35 8.85 17.7 6.75 18.95 Q4.0 20.55 2.25 21.7 L1.35 22.3 -0.3 23.55 Q-2.45 25.55 -3.85 27.65 -4.85 29.2 -5.5 30.85 -6.3 32.9 -6.65 35.55 L-6.65 35.65 -6.75 36.35 -3.85 32.25 Q-0.2 27.5 3.45 25.1 8.9 21.3 16.05 20.05 L17.0 19.9 Q24.1 18.75 26.05 16.65 L26.05 16.7 Q27.8 14.6 27.6 12.0 27.35 9.7 23.0 7.3 L21.75 6.65 20.9 6.2 20.25 5.95 Q16.4 4.25 11.25 3.55 L11.75 2.1 Q18.05 3.0 22.45 5.3 29.0 8.6 29.1 11.9 29.35 15.1 27.2 17.65 25.1 20.15 17.25 21.4 L16.05 21.6 Q9.4 22.85 4.3 26.35 1.0 28.55 -2.35 32.8 -4.7 35.7 -7.0 39.55 L-7.15 39.8 -7.65 40.0 -7.7 40.0 -7.8 40.0 -8.25 39.8 -8.45 39.35 Q-11.5 26.95 -12.25 25.1 L-15.95 17.5 Q-19.4 11.2 -11.25 6.05 -6.7 3.1 -1.35 2.1" fill="#164a25" fill-rule="evenodd" stroke="none"/>
    <path d="M23.0 7.3 Q27.35 9.7 27.6 12.0 27.8 14.6 26.05 16.7 L26.05 16.65 Q24.1 18.75 17.0 19.9 L16.05 20.05 Q8.9 21.3 3.45 25.1 -0.2 27.5 -3.85 32.25 L-6.75 36.35 -6.65 35.65 -6.65 35.55 Q-6.3 32.9 -5.5 30.85 -4.85 29.2 -3.85 27.65 -2.45 25.55 -0.3 23.55 L1.35 22.3 Q4.7 20.45 5.4 20.15 7.9 19.05 13.85 17.25 19.75 15.35 21.65 14.0 23.55 12.6 23.55 10.1 23.55 8.6 23.0 7.3 M-8.4 27.25 L-8.25 30.15 Q-7.95 31.7 -8.1 34.6 -10.25 26.05 -10.85 24.55 -11.6 22.6 -14.6 16.8 -16.25 13.6 -14.3 10.75 L-13.6 13.25 -10.8 18.75 Q-9.95 20.55 -9.2 23.85 L-8.4 27.25" fill="#7ce99b" fill-rule="evenodd" stroke="none"/>
    <path d="M-0.75 8.3 L-0.8 9.25 -1.2 13.3 Q-1.5 15.85 -1.9 17.6 L-2.05 19.1 -2.65 21.15 -3.0 24.15 -3.45 24.65 -3.2 21.55 -3.2 16.85 -3.5 11.6 -3.6 10.25 -3.6 10.2 -2.7 9.5 -2.4 9.25 -2.3 9.15 -1.55 8.7 -0.75 8.3 M8.85 15.95 L9.85 8.0 9.9 7.9 9.95 7.65 Q12.45 8.1 13.4 9.15 13.9 9.75 13.95 10.5 13.9 11.85 12.45 13.3 L11.3 14.3 9.25 15.75 9.05 15.85 8.85 15.95" fill="#351f0d" fill-rule="evenodd" stroke="none"/>
    <path d="M-3.6 10.25 L-3.5 11.6 -3.2 16.85 -3.2 21.55 -3.45 24.65 -3.85 25.15 Q-5.75 27.5 -6.8 30.0 L-6.8 29.85 -6.95 24.15 Q-6.95 16.1 -5.25 12.6 -4.6 11.2 -3.6 10.25" fill="#482b13" fill-rule="evenodd" stroke="none"/>
  </g>
</svg>
