<?xml version="1.0" encoding="UTF-8" standalone="no"?>
<svg xmlns:ffdec="https://www.free-decompiler.com/flash" xmlns:xlink="http://www.w3.org/1999/xlink" ffdec:objectType="shape" height="67.15px" width="26.35px" xmlns="http://www.w3.org/2000/svg">
  <g transform="matrix(1.0, 0.0, 0.0, 1.0, 11.3, 4.65)">
    <path d="M-7.15 0.45 L-3.15 -2.35 -0.6 -3.65 1.25 -4.35 1.25 -3.0 1.85 -3.05 2.35 -3.1 4.3 -3.0 4.4 -2.95 Q7.15 -0.65 6.65 1.65 6.4 3.0 7.15 4.15 7.95 5.3 7.9 6.2 7.75 7.4 8.3 10.1 8.7 12.35 8.2 14.1 8.1 14.7 9.15 16.5 10.3 18.25 10.3 18.75 L9.85 20.75 Q9.55 22.2 9.8 22.8 10.9 25.05 10.75 27.5 10.55 29.85 11.4 31.3 12.25 33.05 11.55 35.65 10.75 38.25 11.25 39.5 11.65 40.4 11.7 41.75 L11.75 43.65 Q11.85 44.7 12.85 46.15 13.75 47.45 13.8 48.3 L13.25 52.85 12.6 56.3 10.05 59.15 Q7.65 61.4 6.45 60.95 L5.7 60.3 Q5.4 59.65 4.9 59.45 L3.9 59.4 3.25 59.75 1.75 59.15 Q1.25 58.6 1.05 57.45 0.9 56.4 0.35 56.25 -1.85 55.4 -1.75 54.25 -1.55 52.45 -2.75 51.0 -3.65 49.75 -3.25 48.2 -2.6 46.5 -2.5 45.7 -2.3 44.75 -3.2 42.85 -4.1 41.2 -3.65 39.95 -3.05 38.3 -4.1 36.75 -5.25 35.1 -5.0 34.05 -4.65 32.15 -5.75 30.8 -7.25 29.1 -7.45 28.25 -7.7 27.1 -6.85 25.45 -5.95 24.0 -6.5 23.1 -8.85 19.45 -7.95 17.15 -7.1 15.2 -8.65 13.9 -10.25 12.55 -9.8 11.3 L-8.55 9.7 -7.6 8.35 -8.55 7.45 -9.8 5.9 -9.65 5.8 -9.5 5.7 -8.6 5.0 -7.6 3.95 -7.45 3.6 -7.75 3.3 -7.55 2.95 -7.0 2.0 -6.9 0.25 -7.15 0.45 M4.55 -1.7 Q3.85 -2.0 3.1 -2.35 L2.4 -0.35 2.65 -0.05 2.85 0.1 3.05 0.15 3.25 -0.25 3.8 -0.45 4.35 -0.7 4.55 -1.7 M1.85 0.9 Q-0.85 1.5 -2.65 3.05 -4.25 4.35 -4.85 6.25 -5.3 7.55 -3.5 8.95 -1.7 10.35 -2.4 12.35 L-3.3 12.95 Q-4.15 13.2 -4.2 13.5 -4.75 15.0 -4.6 16.35 -4.3 18.85 -1.85 19.8 L-0.35 19.85 Q0.4 21.1 -0.1 22.55 -0.45 23.5 -1.3 24.85 -1.85 27.1 -0.2 28.35 1.3 29.65 1.0 30.45 0.65 31.45 -0.65 32.7 -1.95 33.9 -2.15 34.45 -2.4 35.15 -1.8 36.05 -0.9 37.45 1.6 38.2 1.9 39.7 1.7 45.9 L0.9 47.65 Q0.8 48.85 3.1 49.95 L2.35 52.1 Q2.35 54.2 5.1 55.2 6.95 55.9 8.65 54.2 9.6 53.15 10.15 51.65 10.85 49.7 9.45 46.75 8.15 43.75 9.75 39.05 10.7 36.4 8.35 33.05 6.0 29.6 6.65 27.9 L8.3 24.9 Q9.75 20.8 7.2 17.9 L5.5 15.95 Q4.95 14.65 5.45 13.0 6.7 10.8 6.9 8.95 7.6 5.15 3.55 4.65 L3.95 3.7 4.6 2.7 Q4.55 2.0 1.85 0.9 M-2.05 29.85 Q-1.35 27.9 -2.6 27.0 -3.95 26.05 -4.6 27.9 L-4.7 28.65 Q-4.6 29.6 -3.25 30.1 L-2.5 30.3 -2.05 29.85 M-2.85 22.2 L-3.85 22.9 Q-4.0 23.4 -3.4 24.2 L-2.8 23.7 -2.65 23.15 -2.85 22.2 M-5.3 12.05 Q-4.45 9.5 -5.55 9.15 -6.6 8.75 -7.2 10.7 L-7.25 11.7 Q-7.05 12.5 -6.3 12.8 -5.6 13.0 -5.3 12.05" fill="#d8d8d8" fill-rule="evenodd" stroke="none"/>
    <path d="M4.55 -1.7 L4.35 -0.7 3.8 -0.45 3.25 -0.25 3.05 0.15 2.85 0.1 2.65 -0.05 2.4 -0.35 3.1 -2.35 Q3.85 -2.0 4.55 -1.7 M1.85 0.9 Q4.55 2.0 4.6 2.7 L3.95 3.7 3.55 4.65 Q7.6 5.15 6.9 8.95 6.7 10.8 5.45 13.0 4.95 14.65 5.5 15.95 L7.2 17.9 Q9.75 20.8 8.3 24.9 L6.65 27.9 Q6.0 29.6 8.35 33.05 10.7 36.4 9.75 39.05 8.15 43.75 9.45 46.75 10.85 49.7 10.15 51.65 9.6 53.15 8.65 54.2 6.95 55.9 5.1 55.2 2.35 54.2 2.35 52.1 L3.1 49.95 Q0.8 48.85 0.9 47.65 L1.7 45.9 Q1.9 39.7 1.6 38.2 -0.9 37.45 -1.8 36.05 -2.4 35.15 -2.15 34.45 -1.95 33.9 -0.65 32.7 0.65 31.45 1.0 30.45 1.3 29.65 -0.2 28.35 -1.85 27.1 -1.3 24.85 -0.45 23.5 -0.1 22.55 0.4 21.1 -0.35 19.85 L-1.85 19.8 Q-4.3 18.85 -4.6 16.35 -4.75 15.0 -4.2 13.5 -4.15 13.2 -3.3 12.95 L-2.4 12.35 Q-1.7 10.35 -3.5 8.95 -5.3 7.55 -4.85 6.25 -4.25 4.35 -2.65 3.05 -0.85 1.5 1.85 0.9 M-5.3 12.05 Q-5.6 13.0 -6.3 12.8 -7.05 12.5 -7.25 11.7 L-7.2 10.7 Q-6.6 8.75 -5.55 9.15 -4.45 9.5 -5.3 12.05 M-2.85 22.2 L-2.65 23.15 -2.8 23.7 -3.4 24.2 Q-4.0 23.4 -3.85 22.9 L-2.85 22.2 M-2.05 29.85 L-2.5 30.3 -3.25 30.1 Q-4.6 29.6 -4.7 28.65 L-4.6 27.9 Q-3.95 26.05 -2.6 27.0 -1.35 27.9 -2.05 29.85" fill="#f7f7f7" fill-rule="evenodd" stroke="none"/>
    <path d="M3.65 -4.6 Q5.65 -4.45 6.75 -2.7 L7.3 -0.35 7.8 2.25 Q8.95 3.5 9.15 5.2 9.3 6.4 8.95 7.45 8.85 7.75 9.5 9.6 10.3 11.45 10.2 12.2 10.0 13.2 10.55 14.85 L11.35 17.4 11.1 19.9 Q10.75 21.45 11.2 22.2 11.95 23.3 12.4 24.8 12.95 26.45 12.6 27.25 12.1 28.8 12.65 31.95 13.15 35.05 12.45 36.85 11.8 38.75 12.85 41.85 L14.75 46.95 Q15.3 48.4 14.85 52.25 L14.05 56.35 Q9.35 63.55 6.05 62.3 5.35 62.05 4.95 61.4 L4.6 60.8 3.8 61.0 2.1 60.8 Q0.8 60.35 -0.9 58.1 L-2.75 55.3 -3.05 54.15 -2.95 52.9 Q-3.0 52.0 -3.45 51.5 L-4.3 50.6 Q-5.05 49.6 -4.6 48.35 L-3.8 46.4 Q-3.75 45.8 -4.4 44.15 L-5.05 41.95 -4.5 39.95 Q-4.15 38.75 -5.05 37.65 -5.75 36.65 -5.9 35.3 L-5.85 33.25 Q-5.85 32.35 -7.25 31.0 -8.7 29.55 -8.55 28.35 L-8.2 26.0 -7.65 24.5 -8.55 22.4 Q-9.45 19.95 -9.1 17.5 -8.9 15.7 -10.2 14.05 -11.3 12.5 -10.75 10.9 -10.45 9.9 -9.4 8.35 L-11.25 6.5 -11.1 5.5 -10.6 4.3 -9.3 2.5 -9.15 3.05 -8.6 5.0 -9.5 5.7 -9.65 5.8 -9.8 5.9 -8.55 7.45 -7.6 8.35 -8.55 9.7 -9.8 11.3 Q-10.25 12.55 -8.65 13.9 -7.1 15.2 -7.95 17.15 -8.85 19.45 -6.5 23.1 -5.95 24.0 -6.85 25.45 -7.7 27.1 -7.45 28.25 -7.25 29.1 -5.75 30.8 -4.65 32.15 -5.0 34.05 -5.25 35.1 -4.1 36.75 -3.05 38.3 -3.65 39.95 -4.1 41.2 -3.2 42.85 -2.3 44.75 -2.5 45.7 -2.6 46.5 -3.25 48.2 -3.65 49.75 -2.75 51.0 -1.55 52.45 -1.75 54.25 -1.85 55.4 0.35 56.25 0.9 56.4 1.05 57.45 1.25 58.6 1.75 59.15 L3.25 59.75 3.9 59.4 4.9 59.45 Q5.4 59.65 5.7 60.3 L6.45 60.95 Q7.65 61.4 10.05 59.15 L12.6 56.3 13.25 52.85 13.8 48.3 Q13.75 47.45 12.85 46.15 11.85 44.7 11.75 43.65 L11.7 41.75 Q11.65 40.4 11.25 39.5 10.75 38.25 11.55 35.65 12.25 33.05 11.4 31.3 10.55 29.85 10.75 27.5 10.9 25.05 9.8 22.8 9.55 22.2 9.85 20.75 L10.3 18.75 Q10.3 18.25 9.15 16.5 8.1 14.7 8.2 14.1 8.7 12.35 8.3 10.1 7.75 7.4 7.9 6.2 7.95 5.3 7.15 4.15 6.4 3.0 6.65 1.65 7.15 -0.65 4.4 -2.95 L4.3 -3.0 3.65 -4.6" fill="#707070" fill-rule="evenodd" stroke="none"/>
    <path d="M1.25 -4.35 L2.5 -4.6 3.65 -4.6 4.3 -3.0 2.35 -3.1 1.85 -3.05 1.25 -3.0 1.25 -4.35 M-9.3 2.5 L-8.5 1.65 -8.3 1.45 -7.15 0.45 -6.9 0.25 -7.0 2.0 -7.55 2.95 -7.75 3.3 -7.45 3.6 -7.6 3.95 -8.6 5.0 -9.15 3.05 -9.3 2.5" fill="#9d9d9d" fill-rule="evenodd" stroke="none"/>
  </g>
</svg>
