<?xml version="1.0" encoding="UTF-8" standalone="no"?>
<svg xmlns:ffdec="https://www.free-decompiler.com/flash" xmlns:xlink="http://www.w3.org/1999/xlink" ffdec:objectType="shape" height="95.9px" width="67.15px" xmlns="http://www.w3.org/2000/svg">
  <g transform="matrix(1.0, 0.0, 0.0, 1.0, 29.35, 98.05)">
    <path d="M16.9 -34.85 L16.95 -34.3 16.65 -33.85 12.9 -30.2 Q16.0 -29.9 17.8 -29.0 L18.1 -27.05 19.8 -27.25 Q20.2 -26.5 20.2 -25.4 20.2 -23.6 19.0 -21.15 L18.1 -27.05 13.65 -26.65 Q12.4 -27.5 10.1 -28.15 -0.35 -31.0 -2.2 -31.75 2.0 -32.3 5.2 -36.85 7.65 -40.35 7.65 -41.85 7.65 -43.55 5.1 -43.05 2.75 -42.55 -0.45 -40.5 -8.55 -35.4 -8.55 -30.6 -8.55 -28.85 -3.6 -26.45 L-11.15 -26.95 -11.35 -24.1 -11.7 -24.4 -11.65 -27.0 -11.15 -26.95 -10.75 -33.4 -10.0 -35.0 Q-5.4 -38.9 0.35 -44.8 L-9.05 -43.4 -10.3 -43.6 -10.1 -51.4 -11.1 -51.5 -10.8 -62.35 -9.95 -62.25 -9.95 -61.75 -10.1 -51.4 -7.6 -51.15 -7.7 -50.7 Q-7.7 -49.25 -6.35 -48.55 -5.35 -48.0 -4.05 -48.0 -3.0 -48.0 -1.0 -49.1 0.3 -49.8 1.6 -50.85 L1.75 -50.85 3.35 -50.85 Q2.6 -49.2 2.6 -48.75 2.6 -47.35 3.95 -47.35 6.35 -47.35 8.7 -51.0 L8.75 -51.0 14.15 -51.45 Q13.9 -49.3 13.45 -47.8 12.3 -44.2 8.95 -40.45 10.95 -37.65 16.9 -34.85 M-12.05 -14.7 L-12.4 -10.55 Q-12.9 -11.2 -12.9 -12.0 -12.9 -13.55 -12.05 -14.7 M-4.15 -94.7 Q-0.2 -94.55 6.15 -94.55 4.05 -91.8 -2.7 -85.6 -6.8 -81.8 -6.8 -78.35 L-6.7 -76.25 -5.45 -75.95 Q-1.15 -78.7 0.7 -80.95 4.05 -84.95 8.2 -94.6 L10.3 -94.65 10.4 -93.0 9.55 -89.65 9.3 -89.75 9.15 -89.7 9.1 -88.95 Q9.1 -85.05 11.45 -77.75 L11.7 -74.15 12.55 -74.2 Q14.05 -68.4 14.15 -63.4 L12.7 -63.2 12.5 -63.05 12.45 -63.2 11.7 -74.15 6.6 -74.1 Q7.65 -75.85 7.6 -76.85 L7.4 -78.05 7.2 -78.25 6.6 -78.3 4.75 -76.3 2.6 -74.1 -8.7 -74.8 -8.95 -77.55 Q-8.95 -83.25 -8.05 -87.0 -6.9 -91.75 -4.15 -94.7 M14.2 -52.05 L12.6 -62.25 12.9 -62.15 14.25 -61.95 14.35 -56.15 14.2 -52.05 M-10.0 -65.9 L-9.95 -63.75 -10.7 -63.9 Q-10.65 -64.8 -10.0 -65.9" fill="#e0e0e0" fill-rule="evenodd" stroke="none"/>
    <path d="M31.4 -76.5 L29.1 -75.95 29.0 -71.9 27.65 -70.35 26.35 -69.15 23.3 -66.95 22.1 -66.2 22.15 -65.8 22.15 -65.7 22.15 -65.6 23.2 -57.85 23.8 -53.3 Q22.2 -52.8 19.85 -52.35 L19.2 -52.2 19.2 -52.3 Q19.2 -55.95 18.05 -62.85 L18.15 -62.75 18.6 -62.75 Q19.2 -62.85 20.3 -63.55 L21.8 -64.65 21.7 -65.05 21.25 -65.4 19.0 -64.55 Q17.95 -64.05 17.95 -63.45 L17.0 -68.55 15.9 -74.35 22.45 -74.9 Q23.15 -74.2 23.95 -74.2 24.95 -74.2 26.15 -75.45 L27.0 -75.6 29.1 -75.95 29.0 -80.65 29.05 -81.65 28.8 -83.45 Q28.3 -90.15 26.95 -96.85 L27.2 -97.0 27.3 -96.85 Q32.75 -86.95 32.05 -79.65 31.9 -78.0 31.4 -76.5 M15.3 -44.8 L15.5 -43.65 14.6 -43.6 15.3 -44.8 M23.8 -27.85 Q27.45 -28.5 29.5 -29.25 L29.65 -28.8 33.5 -16.05 33.5 -16.0 33.7 -15.35 33.7 -15.3 34.0 -14.45 34.15 -13.75 34.2 -13.65 Q35.15 -10.95 36.0 -6.7 L33.95 -6.1 Q28.5 -4.65 23.55 -3.85 L21.75 -3.55 21.3 -6.55 23.4 -7.15 Q28.2 -8.85 30.3 -13.1 L25.0 -14.4 19.95 -15.15 19.55 -17.75 22.95 -20.55 Q24.9 -22.6 24.9 -25.5 24.9 -26.55 23.85 -27.8 L23.8 -27.85 M-12.7 -7.4 L-13.0 -4.0 Q-21.75 -4.75 -27.6 -6.9 L-27.3 -9.0 -27.15 -10.2 -27.2 -10.2 -26.95 -11.65 -26.95 -11.7 -26.85 -12.45 -24.95 -22.05 -23.25 -29.15 Q-21.2 -28.45 -17.65 -27.85 L-16.75 -27.7 -16.9 -24.9 Q-16.9 -22.85 -16.25 -22.1 L-14.25 -19.8 -13.7 -19.15 Q-16.85 -19.45 -19.25 -18.55 -21.85 -17.55 -21.85 -15.55 -21.85 -11.15 -18.05 -9.2 -16.0 -8.15 -12.7 -7.4 M-14.9 -52.05 L-16.4 -52.35 -19.7 -53.1 -18.85 -62.55 -18.85 -63.15 -18.55 -66.25 -18.35 -76.35 -14.55 -75.6 -13.1 -75.35 -12.75 -74.45 -11.55 -70.9 Q-11.55 -68.4 -13.4 -61.15 -14.45 -57.1 -14.9 -52.05 M-10.45 -94.25 L-10.45 -95.2 -7.25 -94.9 -10.45 -94.25 M-18.1 -64.3 Q-18.1 -63.8 -17.4 -63.45 -16.75 -63.1 -15.8 -63.1 -14.85 -63.1 -14.15 -63.45 -13.8 -63.65 -13.6 -63.9 L-14.6 -64.3 Q-16.35 -65.1 -17.2 -64.95 -18.1 -64.8 -18.1 -64.3" fill="#8a8a8a" fill-rule="evenodd" stroke="none"/>
    <path d="M13.65 -26.65 L3.0 -26.35 -3.6 -26.45 Q-8.55 -28.85 -8.55 -30.6 -8.55 -35.4 -0.45 -40.5 2.75 -42.55 5.1 -43.05 7.65 -43.55 7.65 -41.85 7.65 -40.35 5.2 -36.85 2.0 -32.3 -2.2 -31.75 -0.35 -31.0 10.1 -28.15 12.4 -27.5 13.65 -26.65 M6.15 -94.55 L8.2 -94.6 Q4.05 -84.95 0.7 -80.95 -1.15 -78.7 -5.45 -75.95 L-6.7 -76.25 -6.8 -78.35 Q-6.8 -81.8 -2.7 -85.6 4.05 -91.8 6.15 -94.55 M2.6 -74.1 L4.75 -76.3 6.6 -78.3 7.2 -78.25 7.4 -78.05 7.6 -76.85 Q7.65 -75.85 6.6 -74.1 L6.25 -74.1 2.6 -74.1 M-7.6 -51.15 L1.6 -50.85 Q0.3 -49.8 -1.0 -49.1 -3.0 -48.0 -4.05 -48.0 -5.35 -48.0 -6.35 -48.55 -7.7 -49.25 -7.7 -50.7 L-7.6 -51.15 M3.35 -50.85 L8.75 -51.0 8.7 -51.0 Q6.35 -47.35 3.95 -47.35 2.6 -47.35 2.6 -48.75 2.6 -49.2 3.35 -50.85" fill="#ffffff" fill-rule="evenodd" stroke="none"/>
    <path d="M19.2 -52.2 L14.3 -51.45 15.3 -44.8 14.6 -43.6 15.5 -43.65 16.9 -34.85 Q10.95 -37.65 8.95 -40.45 12.3 -44.2 13.45 -47.8 13.9 -49.3 14.15 -51.45 L14.3 -51.45 14.2 -52.05 14.35 -56.15 14.25 -61.95 16.0 -62.2 16.55 -62.75 Q16.5 -63.05 15.75 -63.25 L14.15 -63.4 Q14.05 -68.4 12.55 -74.2 L15.9 -74.35 17.0 -68.55 17.95 -63.45 18.05 -62.85 Q19.2 -55.95 19.2 -52.3 L19.2 -52.2 M16.95 -34.3 L17.8 -29.0 Q16.0 -29.9 12.9 -30.2 L16.65 -33.85 16.95 -34.3 M19.8 -27.25 L23.55 -27.85 23.8 -27.85 23.85 -27.8 Q24.9 -26.55 24.9 -25.5 24.9 -22.6 22.95 -20.55 L19.55 -17.75 19.0 -21.15 Q20.2 -23.6 20.2 -25.4 20.2 -26.5 19.8 -27.25 M21.3 -6.55 L19.95 -15.15 25.0 -14.4 30.3 -13.1 Q28.2 -8.85 23.4 -7.15 L21.3 -6.55 M-11.35 -24.1 L-12.05 -14.7 Q-12.9 -13.55 -12.9 -12.0 -12.9 -11.2 -12.4 -10.55 L-12.7 -7.4 Q-16.0 -8.15 -18.05 -9.2 -21.85 -11.15 -21.85 -15.55 -21.85 -17.55 -19.25 -18.55 -16.85 -19.45 -13.7 -19.15 L-14.25 -19.8 -16.25 -22.1 Q-16.9 -22.85 -16.9 -24.9 L-16.75 -27.7 -11.65 -27.0 -11.7 -24.4 -11.35 -24.1 M-10.75 -33.4 L-10.3 -43.6 -9.05 -43.4 0.35 -44.8 Q-5.4 -38.9 -10.0 -35.0 L-10.75 -33.4 M-11.1 -51.5 L-14.9 -52.05 Q-14.45 -57.1 -13.4 -61.15 -11.55 -68.4 -11.55 -70.9 L-12.75 -74.45 -13.1 -75.35 -10.15 -74.95 -10.45 -94.25 -7.25 -94.9 -4.15 -94.7 Q-6.9 -91.75 -8.05 -87.0 -8.95 -83.25 -8.95 -77.55 L-8.7 -74.8 -10.15 -74.95 -10.0 -65.9 Q-10.65 -64.8 -10.7 -63.9 L-11.6 -63.75 Q-12.05 -63.55 -12.1 -63.2 L-11.75 -62.6 -10.8 -62.35 -11.1 -51.5 M10.4 -93.0 L11.45 -77.75 Q9.1 -85.05 9.1 -88.95 L9.15 -89.7 9.3 -89.75 9.55 -89.65 10.4 -93.0 M22.45 -74.9 L26.15 -75.45 Q24.95 -74.2 23.95 -74.2 23.15 -74.2 22.45 -74.9 M29.0 -80.65 L28.8 -83.45 29.05 -81.65 29.0 -80.65" fill="#b4b4b4" fill-rule="evenodd" stroke="none"/>
    <path d="M27.3 -96.85 L28.45 -98.05 Q34.4 -87.4 33.55 -79.5 L33.15 -77.05 31.4 -76.5 Q31.9 -78.0 32.05 -79.65 32.75 -86.95 27.3 -96.85 M29.0 -71.9 L28.9 -69.45 28.1 -68.7 26.75 -67.5 23.75 -65.45 23.85 -64.9 24.7 -58.05 25.25 -53.8 23.8 -53.3 23.2 -57.85 22.15 -65.6 22.15 -65.7 22.15 -65.8 22.1 -66.2 23.3 -66.95 26.35 -69.15 27.65 -70.35 29.0 -71.9 M29.5 -29.25 L30.85 -29.85 31.05 -29.25 34.7 -17.55 35.05 -16.4 35.3 -15.65 35.2 -15.7 35.65 -14.05 37.45 -7.25 37.75 -5.8 37.8 -5.65 36.3 -5.15 36.3 -5.2 30.45 -3.55 22.0 -2.15 21.75 -3.55 23.55 -3.85 Q28.5 -4.65 33.95 -6.1 L36.0 -6.7 Q35.15 -10.95 34.2 -13.65 L34.15 -13.75 34.0 -14.45 33.7 -15.3 33.7 -15.35 33.5 -16.0 33.5 -16.05 29.65 -28.8 29.5 -29.25 M-13.0 -4.0 L-13.15 -2.6 -17.95 -3.3 Q-23.75 -4.4 -27.75 -5.7 L-28.45 -5.85 -29.3 -6.1 -29.3 -6.2 -29.3 -6.25 -29.15 -7.15 -29.15 -7.55 -28.9 -9.15 -28.7 -10.35 -28.7 -10.4 -28.45 -11.9 -28.2 -13.6 -26.45 -22.35 -24.75 -29.8 -23.25 -29.15 -24.95 -22.05 -26.85 -12.45 -26.95 -11.7 -26.95 -11.65 -27.2 -10.2 -27.15 -10.2 -27.3 -9.0 -27.6 -6.9 Q-21.75 -4.75 -13.0 -4.0 M-19.7 -53.1 L-21.2 -53.6 -20.4 -62.65 -20.35 -63.35 -20.05 -66.3 -19.85 -74.35 -19.8 -76.75 -18.35 -76.35 -18.55 -66.25 -18.85 -63.15 -18.85 -62.55 -19.7 -53.1" fill="#464646" fill-rule="evenodd" stroke="none"/>
  </g>
</svg>
