<?xml version="1.0" encoding="UTF-8" standalone="no"?>
<svg xmlns:ffdec="https://www.free-decompiler.com/flash" xmlns:xlink="http://www.w3.org/1999/xlink" ffdec:objectType="shape" height="36.8px" width="72.35px" xmlns="http://www.w3.org/2000/svg">
  <g transform="matrix(1.0, 0.0, 0.0, 1.0, 36.15, 51.15)">
    <path d="M33.35 -20.45 Q30.7 -21.65 25.6 -22.65 15.0 -24.65 0.0 -24.65 -15.0 -24.65 -25.6 -22.65 -30.7 -21.65 -33.3 -20.45 -32.5 -32.2 -23.65 -41.2 -17.25 -47.35 -9.15 -49.5 -4.8 -50.65 0.0 -50.65 4.8 -50.65 9.15 -49.5 17.25 -47.35 23.65 -41.2 32.5 -32.2 33.35 -20.45" fill="#ffffff" fill-opacity="0.32941177" fill-rule="evenodd" stroke="none"/>
    <path d="M33.35 -20.45 L33.4 -18.05 33.4 -17.7 Q33.35 -19.9 23.65 -21.5 13.85 -23.05 0.0 -23.05 -13.85 -23.05 -23.65 -21.5 -33.35 -19.9 -33.4 -17.7 L-33.4 -18.05 -33.3 -20.45 Q-30.7 -21.65 -25.6 -22.65 -15.0 -24.65 0.0 -24.65 15.0 -24.65 25.6 -22.65 30.7 -21.65 33.35 -20.45" fill="#f3f3f3" fill-rule="evenodd" stroke="none"/>
    <path d="M33.3 -14.9 L33.25 -14.9 31.1 -15.7 25.6 -17.05 Q15.0 -19.05 0.0 -19.05 -15.0 -19.05 -25.6 -17.05 L-31.05 -15.7 -33.2 -14.9 -33.25 -14.9 Q-36.15 -16.2 -36.15 -17.7 -36.15 -19.15 -33.3 -20.45 L-33.4 -18.05 -33.4 -17.7 Q-33.35 -19.9 -23.65 -21.5 -13.85 -23.05 0.0 -23.05 13.85 -23.05 23.65 -21.5 33.35 -19.9 33.4 -17.7 L33.4 -18.05 33.35 -20.45 Q36.2 -19.15 36.2 -17.7 36.2 -16.2 33.3 -14.9" fill="#b1b1b1" fill-rule="evenodd" stroke="none"/>
    <path d="M23.65 -41.2 Q17.25 -47.35 9.15 -49.5 4.8 -50.65 0.0 -50.65 -4.8 -50.65 -9.15 -49.5 -17.25 -47.35 -23.65 -41.2" fill="none" stroke="#000000" stroke-linecap="round" stroke-linejoin="round" stroke-width="1.0"/>
    <path d="M-33.25 -14.9 L-33.2 -14.9 -31.05 -15.7 -25.6 -17.05 Q-15.0 -19.05 0.0 -19.05 15.0 -19.05 25.6 -17.05 L31.1 -15.7 33.25 -14.9 33.3 -14.9 33.3 -14.85 33.25 -14.9 M-33.25 -14.9 L-33.25 -14.85 -33.2 -14.9 M-33.3 -20.45 Q-30.7 -21.65 -25.6 -22.65 -15.0 -24.65 0.0 -24.65 15.0 -24.65 25.6 -22.65 30.7 -21.65 33.35 -20.45 32.5 -32.2 23.65 -41.2 M-23.65 -41.2 Q-32.5 -32.2 -33.3 -20.45" fill="none" stroke="#707070" stroke-linecap="round" stroke-linejoin="round" stroke-width="1.0"/>
  </g>
</svg>
