<?xml version="1.0" encoding="UTF-8" standalone="no"?>
<svg xmlns:ffdec="https://www.free-decompiler.com/flash" xmlns:xlink="http://www.w3.org/1999/xlink" ffdec:objectType="shape" height="118.0px" width="9.9px" xmlns="http://www.w3.org/2000/svg">
  <g transform="matrix(1.0, 0.0, 0.0, 1.0, 4.95, 59.0)">
    <path d="M-4.95 -5.15 L-4.95 -57.85 Q-4.95 -58.45 -3.2 -58.75 L-2.35 -58.85 -0.5 -59.0 0.0 -59.0 1.35 -58.95 3.25 -58.75 Q4.95 -58.45 4.95 -57.85 L4.95 -5.15 4.05 -12.2 4.05 -57.55 4.05 -57.75 3.15 -57.9 1.35 -58.1 0.0 -58.15 -0.5 -58.15 -2.35 -58.0 -3.1 -57.9 -4.05 -57.75 -4.05 -57.55 -4.05 -12.2 -4.95 -5.15" fill="#000000" fill-rule="evenodd" stroke="none"/>
    <path d="M4.05 -57.55 L4.05 -12.2 4.05 57.8 3.15 57.9 1.35 58.1 1.35 -57.15 3.15 -57.35 4.05 -57.55" fill="#9bcf66" fill-rule="evenodd" stroke="none"/>
    <path d="M-4.05 -12.2 L-4.05 -57.55 -3.15 -57.35 -2.35 -57.25 -2.35 58.05 -3.1 57.9 -4.05 57.8 -4.05 -12.2 M-0.5 -57.15 L0.0 -57.15 1.35 -57.15 1.35 58.1 0.0 58.1 -0.5 58.1 -0.5 -57.15" fill="#baf082" fill-rule="evenodd" stroke="none"/>
    <path d="M-0.5 -57.15 L-0.5 58.1 -2.35 58.05 -2.35 -57.25 -0.5 -57.15" fill="#e7ffd0" fill-rule="evenodd" stroke="none"/>
    <path d="M-4.95 -5.15 L-4.05 -12.2 -4.05 57.8 -3.1 57.9 -2.35 58.05 -0.5 58.1 0.0 58.1 1.35 58.1 3.15 57.9 4.05 57.8 4.05 -12.2 4.95 -5.15 4.95 57.85 4.95 57.95 Q4.95 58.55 3.25 58.75 L1.35 59.0 0.0 59.0 -0.5 59.0 -2.35 58.9 -3.2 58.75 Q-4.95 58.55 -4.95 57.95 L-4.95 57.85 -4.95 -5.15 M-4.05 -57.55 L-4.05 -57.75 -3.1 -57.9 -2.35 -58.0 -0.5 -58.15 0.0 -58.15 1.35 -58.1 3.15 -57.9 4.05 -57.75 4.05 -57.55 3.15 -57.35 1.35 -57.15 0.0 -57.15 -0.5 -57.15 -2.35 -57.25 -3.15 -57.35 -4.05 -57.55" fill="#5e8535" fill-rule="evenodd" stroke="none"/>
  </g>
</svg>
