<?xml version="1.0" encoding="UTF-8" standalone="no"?>
<svg xmlns:ffdec="https://www.free-decompiler.com/flash" xmlns:xlink="http://www.w3.org/1999/xlink" ffdec:objectType="shape" height="125.95px" width="65.65px" xmlns="http://www.w3.org/2000/svg">
  <g transform="matrix(1.0, 0.0, 0.0, 1.0, 30.3, 136.1)">
    <path d="M4.2 -113.05 L4.95 -112.9 5.05 -112.75 5.2 -111.25 Q5.2 -106.75 3.1 -103.85 1.45 -101.5 -0.15 -101.5 -0.7 -101.5 -1.05 -101.85 -1.45 -102.25 -1.45 -102.95 -1.45 -104.9 0.9 -109.0 3.25 -113.05 4.2 -113.05 M-14.0 -87.05 L-4.2 -87.85 Q-2.65 -88.1 3.0 -91.65 L8.5 -95.1 9.1 -94.95 9.1 -94.6 Q9.2 -93.05 6.9 -89.95 4.5 -86.75 2.8 -86.45 3.6 -83.9 -1.2 -82.4 -5.6 -81.1 -12.9 -81.1 L-15.65 -81.15 -15.85 -81.2 -15.8 -81.25 -19.8 -83.2 -18.05 -87.15 -14.45 -87.0 -14.1 -87.05 -14.0 -87.05 M11.05 -50.15 L1.7 -49.45 Q-2.1 -49.45 -3.65 -50.2 -4.8 -50.75 -4.15 -53.8 -3.55 -56.9 5.7 -55.0 L10.45 -54.5 Q13.7 -50.75 11.05 -50.15 M10.55 -42.1 L13.1 -40.45 14.85 -38.8 14.8 -38.8 Q15.8 -37.6 15.85 -36.3 15.85 -35.05 8.15 -32.45 L12.05 -27.2 Q14.05 -24.45 14.05 -23.25 14.1 -21.6 12.7 -21.55 L9.7 -21.75 Q6.1 -20.7 3.25 -20.7 L-0.75 -21.25 Q-3.5 -21.95 -4.5 -22.95 -3.55 -23.85 -1.15 -24.55 1.75 -25.45 4.4 -25.2 L5.5 -25.15 -2.6 -31.35 Q-7.0 -34.7 -7.25 -36.2 -6.2 -36.95 -1.15 -37.65 L9.85 -38.6 8.8 -38.8 8.85 -38.8 Q7.1 -39.35 5.85 -41.3 L5.35 -42.1 Q4.65 -43.35 4.5 -44.55 L5.25 -44.65 10.55 -42.1 M10.45 -16.3 L16.95 -17.05 Q20.4 -17.15 21.3 -16.15 L21.55 -15.5 21.55 -15.0 17.15 -13.05 -1.0 -13.05 Q-2.1 -13.2 -8.5 -15.65 L-4.75 -15.9 -0.15 -15.7 6.2 -15.55 Q8.15 -15.55 10.45 -16.3" fill="#ffffff" fill-rule="evenodd" stroke="none"/>
    <path d="M17.4 -11.95 L17.35 -11.95 8.45 -11.6 -6.45 -12.1 -6.65 -12.1 -12.75 -13.05 -12.65 -13.35 -11.7 -16.6 Q-10.25 -21.3 -10.25 -21.85 -10.15 -25.75 -9.05 -26.6 -7.95 -27.55 -1.75 -28.6 -3.7 -30.4 -8.35 -32.9 -11.25 -34.5 -11.2 -36.3 -11.2 -36.85 -8.8 -37.9 L-6.55 -38.8 -6.5 -38.8 2.05 -41.6 1.2 -42.1 Q-5.85 -46.05 -7.1 -47.0 -8.55 -48.0 -8.55 -53.05 -8.55 -54.45 -1.95 -59.0 5.3 -63.95 5.95 -64.95 L8.65 -71.0 Q11.35 -76.8 12.0 -76.8 L13.05 -76.5 13.1 -75.35 Q13.1 -73.6 11.9 -70.05 L7.2 -57.75 11.6 -58.75 14.55 -59.35 Q16.1 -59.35 17.05 -57.25 L16.75 -56.75 Q16.45 -56.1 16.45 -55.15 16.45 -54.2 16.75 -53.55 17.0 -52.9 17.4 -52.9 17.8 -52.9 18.05 -53.45 L18.35 -50.4 18.3 -50.4 Q17.9 -50.4 17.65 -49.75 17.35 -49.1 17.35 -48.15 L17.4 -47.45 16.8 -47.3 Q13.0 -46.55 11.05 -45.85 L15.65 -42.1 17.25 -40.85 18.5 -39.8 18.55 -39.2 19.25 -39.0 19.45 -38.8 Q21.0 -37.15 21.05 -35.45 L20.9 -34.05 20.9 -34.35 20.6 -35.9 19.95 -36.5 Q19.6 -36.5 19.3 -35.9 19.05 -35.25 19.1 -34.35 19.1 -33.45 19.4 -32.8 19.6 -32.35 19.9 -32.25 19.05 -31.4 17.6 -31.0 14.05 -30.1 14.1 -27.1 14.1 -23.85 17.45 -22.8 18.95 -22.4 20.7 -20.75 20.75 -18.6 21.25 -18.25 L22.35 -18.4 22.55 -18.5 22.5 -18.85 23.35 -17.8 22.8 -18.45 23.0 -16.65 Q23.05 -15.2 22.25 -14.25 21.5 -13.4 17.4 -11.95 M4.2 -113.05 Q3.25 -113.05 0.9 -109.0 -1.45 -104.9 -1.45 -102.95 -1.45 -102.25 -1.05 -101.85 -0.7 -101.5 -0.15 -101.5 1.45 -101.5 3.1 -103.85 5.2 -106.75 5.2 -111.25 L5.05 -112.75 4.95 -112.9 4.2 -113.05 M8.7 -113.25 L7.9 -113.3 7.8 -112.55 Q7.8 -110.45 9.4 -109.0 L9.25 -106.05 9.0 -106.15 8.95 -106.1 9.1 -105.45 Q7.55 -98.6 -2.45 -98.6 -8.0 -98.6 -12.4 -99.75 -14.1 -101.0 -10.3 -101.85 L-9.35 -102.2 Q-5.8 -103.5 -5.15 -104.3 -1.4 -109.1 1.15 -116.15 3.0 -121.25 4.25 -121.25 5.25 -121.25 7.0 -117.7 8.1 -115.5 8.7 -113.25 M12.0 -95.75 L12.15 -94.75 Q12.0 -92.6 9.3 -86.6 6.65 -80.7 2.85 -79.0 -0.95 -77.25 -11.5 -77.25 L-16.05 -77.65 -23.65 -82.0 -21.55 -87.95 -13.1 -89.55 -3.25 -90.7 Q-1.75 -90.85 4.9 -95.6 L11.3 -100.35 11.9 -100.2 11.85 -100.05 11.9 -98.8 Q11.6 -99.4 11.2 -99.4 10.8 -99.4 10.5 -98.75 10.2 -98.1 10.2 -97.15 10.2 -96.2 10.5 -95.55 10.8 -94.9 11.2 -94.9 11.6 -94.9 11.9 -95.55 L12.0 -95.75 M-14.0 -87.05 L-14.1 -87.05 -14.45 -87.0 -18.05 -87.15 -19.8 -83.2 -15.8 -81.25 -15.85 -81.2 -15.65 -81.15 -12.9 -81.1 Q-5.6 -81.1 -1.2 -82.4 3.6 -83.9 2.8 -86.45 4.5 -86.75 6.9 -89.95 9.2 -93.05 9.1 -94.6 L9.1 -94.95 8.5 -95.1 3.0 -91.65 Q-2.65 -88.1 -4.2 -87.85 L-14.0 -87.05 M11.05 -50.15 Q13.7 -50.75 10.45 -54.5 L5.7 -55.0 Q-3.55 -56.9 -4.15 -53.8 -4.8 -50.75 -3.65 -50.2 -2.1 -49.45 1.7 -49.45 L11.05 -50.15 M10.55 -42.1 L5.25 -44.65 4.5 -44.55 Q4.65 -43.35 5.35 -42.1 L5.85 -41.3 Q7.1 -39.35 8.85 -38.8 L8.8 -38.8 9.85 -38.6 -1.15 -37.65 Q-6.2 -36.95 -7.25 -36.2 -7.0 -34.7 -2.6 -31.35 L5.5 -25.15 4.4 -25.2 Q1.75 -25.45 -1.15 -24.55 -3.55 -23.85 -4.5 -22.95 -3.5 -21.95 -0.75 -21.25 L3.25 -20.7 Q6.1 -20.7 9.7 -21.75 L12.7 -21.55 Q14.1 -21.6 14.05 -23.25 14.05 -24.45 12.05 -27.2 L8.15 -32.45 Q15.85 -35.05 15.85 -36.3 15.8 -37.6 14.8 -38.8 L14.85 -38.8 13.1 -40.45 10.55 -42.1 M10.45 -16.3 Q8.15 -15.55 6.2 -15.55 L-0.15 -15.7 -4.75 -15.9 -8.5 -15.65 Q-2.1 -13.2 -1.0 -13.05 L17.15 -13.05 21.55 -15.0 21.55 -15.5 21.3 -16.15 Q20.4 -17.15 16.95 -17.05 L10.45 -16.3 M-2.2 -92.65 L-9.95 -92.0 -13.2 -92.15 Q-22.65 -95.55 -12.7 -94.4 L-9.7 -94.25 -6.3 -94.85 -2.55 -95.5 Q-1.85 -95.5 -1.5 -95.15 L-0.8 -93.85 Q-1.45 -92.9 -2.2 -92.65" fill="#e0e0e0" fill-rule="evenodd" stroke="none"/>
    <path d="M29.65 -13.7 L27.45 -13.35 27.25 -13.5 27.05 -13.25 22.6 -12.6 19.65 -12.2 18.7 -12.1 17.4 -11.95 Q21.5 -13.4 22.25 -14.25 23.05 -15.2 23.0 -16.65 L22.8 -18.45 23.35 -17.8 22.5 -18.85 22.05 -22.6 20.75 -22.05 20.7 -20.75 Q18.95 -22.4 17.45 -22.8 14.1 -23.85 14.1 -27.1 14.05 -30.1 17.6 -31.0 19.05 -31.4 19.9 -32.25 L20.05 -32.2 20.65 -32.8 20.9 -34.05 21.05 -35.45 Q21.0 -37.15 19.45 -38.8 L19.25 -39.0 19.75 -39.05 Q20.4 -39.8 20.1 -41.15 L19.95 -41.65 21.95 -42.1 22.85 -42.35 22.95 -42.1 24.0 -38.8 23.95 -38.8 25.4 -34.0 Q25.45 -32.0 25.0 -30.35 L24.4 -28.65 Q23.2 -27.55 21.8 -27.4 L21.8 -27.55 21.45 -29.1 20.8 -29.75 Q20.45 -29.75 20.2 -29.1 19.95 -28.5 19.95 -27.55 L19.95 -27.35 19.85 -27.3 19.95 -27.0 20.25 -26.0 Q20.55 -25.35 20.95 -25.35 L21.5 -26.0 21.6 -26.35 24.9 -26.45 Q26.35 -22.05 27.65 -19.35 L28.55 -17.3 29.0 -15.5 29.05 -15.35 29.65 -13.7 M-8.55 -114.15 L-8.5 -113.8 -8.3 -113.5 -7.85 -113.45 -7.75 -113.45 -10.2 -106.2 -9.4 -108.0 -6.45 -114.8 2.85 -126.0 Q4.4 -127.95 5.1 -129.55 7.8 -126.35 11.3 -111.5 13.55 -102.0 15.15 -92.4 15.15 -90.4 12.85 -85.25 L12.5 -85.25 12.55 -84.65 10.1 -79.8 Q10.1 -79.35 10.4 -79.1 L11.2 -78.6 Q11.9 -79.1 13.45 -81.65 L13.5 -81.75 14.3 -80.9 15.55 -83.8 15.0 -84.35 15.85 -86.35 15.95 -84.9 Q15.95 -80.45 15.15 -75.6 L14.95 -76.25 14.2 -78.4 13.65 -77.2 13.65 -76.0 Q13.9 -75.05 14.95 -74.45 L14.85 -74.05 13.7 -68.45 Q13.7 -67.7 13.9 -67.55 L14.8 -67.35 15.0 -67.55 15.15 -67.3 15.7 -66.9 16.3 -67.3 16.45 -68.25 16.3 -69.95 16.4 -70.25 Q17.4 -72.65 17.8 -74.5 L17.9 -73.3 Q17.65 -68.95 19.8 -57.95 L22.4 -45.05 Q17.85 -44.8 17.85 -42.8 L17.9 -42.1 18.15 -41.75 18.3 -41.7 18.5 -39.8 17.25 -40.85 15.65 -42.1 11.05 -45.85 Q13.0 -46.55 16.8 -47.3 L17.4 -47.45 Q17.45 -46.95 17.65 -46.55 17.9 -45.9 18.3 -45.9 18.7 -45.9 19.0 -46.55 L19.25 -48.15 19.0 -49.75 18.35 -50.4 18.05 -53.45 18.1 -53.55 18.35 -55.15 18.1 -56.75 17.4 -57.4 17.05 -57.25 Q16.1 -59.35 14.55 -59.35 L11.6 -58.75 7.2 -57.75 11.9 -70.05 Q13.1 -73.6 13.1 -75.35 L13.05 -76.5 12.0 -76.8 Q11.35 -76.8 8.65 -71.0 L5.95 -64.95 Q5.3 -63.95 -1.95 -59.0 -8.55 -54.45 -8.55 -53.05 -8.55 -48.0 -7.1 -47.0 -5.85 -46.05 1.2 -42.1 L2.05 -41.6 -6.5 -38.8 -6.55 -38.8 -8.8 -37.9 Q-11.2 -36.85 -11.2 -36.3 -11.25 -34.5 -8.35 -32.9 -3.7 -30.4 -1.75 -28.6 -7.95 -27.55 -9.05 -26.6 -10.15 -25.75 -10.25 -21.85 -10.25 -21.3 -11.7 -16.6 L-12.65 -13.35 -12.6 -13.65 Q-14.6 -14.5 -15.15 -15.5 L-16.65 -18.05 Q-13.65 -29.45 -13.7 -29.95 -10.4 -29.6 -8.7 -31.2 L-8.85 -31.8 -10.85 -32.4 -13.0 -32.85 -14.55 -32.45 -14.9 -32.35 -14.6 -32.45 -14.6 -32.55 -13.85 -36.8 -12.2 -37.4 Q-9.95 -38.15 -8.3 -38.8 -6.15 -39.75 -5.2 -40.6 L-6.3 -41.75 -9.6 -41.5 -12.8 -41.15 -12.75 -42.1 -12.7 -42.75 -11.2 -51.15 Q-10.05 -57.7 -10.0 -60.9 -6.15 -61.4 -2.35 -64.25 2.8 -68.05 2.8 -72.55 2.8 -73.75 2.35 -74.5 L-1.65 -73.6 -4.7 -73.1 Q-13.3 -73.1 -19.05 -73.45 L-19.1 -73.75 -19.1 -73.85 -21.2 -74.4 Q-25.8 -76.2 -25.8 -82.95 -25.8 -88.9 -18.7 -101.5 -15.05 -107.95 -10.9 -114.05 L-11.05 -112.85 Q-11.6 -110.2 -12.75 -106.8 L-13.8 -103.7 -13.7 -102.75 -12.75 -102.45 -12.55 -102.55 -8.55 -114.15 M8.7 -113.25 Q8.1 -115.5 7.0 -117.7 5.25 -121.25 4.25 -121.25 3.0 -121.25 1.15 -116.15 -1.4 -109.1 -5.15 -104.3 -5.8 -103.5 -9.35 -102.2 L-10.3 -101.85 Q-14.1 -101.0 -12.4 -99.75 -8.0 -98.6 -2.45 -98.6 7.55 -98.6 9.1 -105.45 L9.65 -103.3 Q9.95 -102.55 10.6 -101.9 L11.25 -102.5 11.8 -102.9 12.0 -103.65 Q12.0 -104.95 9.25 -106.05 L9.4 -109.0 9.6 -108.8 9.7 -108.65 Q9.7 -110.35 8.7 -113.25 M11.9 -98.8 L11.85 -100.05 11.9 -100.2 11.3 -100.35 4.9 -95.6 Q-1.75 -90.85 -3.25 -90.7 L-13.1 -89.55 -21.55 -87.95 -23.65 -82.0 -16.05 -77.65 -11.5 -77.25 Q-0.95 -77.25 2.85 -79.0 6.65 -80.7 9.3 -86.6 12.0 -92.6 12.15 -94.75 L12.0 -95.75 12.2 -97.15 11.9 -98.75 11.9 -98.8 M12.05 -92.4 Q11.7 -92.35 11.55 -91.8 L11.45 -91.25 Q11.5 -89.0 11.95 -88.25 L12.0 -88.45 12.7 -88.3 13.4 -87.95 Q13.45 -90.1 13.1 -90.9 L12.05 -92.4 M15.55 -62.15 Q15.55 -61.2 15.85 -60.55 16.1 -59.9 16.5 -59.9 16.9 -59.9 17.2 -60.55 L17.45 -62.15 17.2 -63.75 16.5 -64.4 Q16.1 -64.4 15.85 -63.75 15.55 -63.1 15.55 -62.15 M-11.6 -98.2 L-17.4 -98.55 -17.35 -98.95 -17.4 -99.35 -17.55 -99.5 Q-18.95 -98.05 -19.3 -97.05 -18.05 -96.4 -12.1 -95.4 L-12.95 -95.35 Q-6.85 -95.5 -5.45 -97.6 -5.75 -97.9 -6.75 -98.1 L-8.55 -98.35 -11.6 -98.2 M-2.2 -92.65 Q-1.45 -92.9 -0.8 -93.85 L-1.5 -95.15 Q-1.85 -95.5 -2.55 -95.5 L-6.3 -94.85 -9.7 -94.25 -12.7 -94.4 Q-22.65 -95.55 -13.2 -92.15 L-9.95 -92.0 -2.2 -92.65 M-16.1 -91.85 L-19.95 -93.0 -20.85 -93.15 -21.1 -92.55 Q-21.1 -91.0 -16.45 -90.35 -13.75 -91.0 -16.1 -91.85" fill="#b4b4b4" fill-rule="evenodd" stroke="none"/>
    <path d="M5.1 -129.55 L5.45 -130.7 5.5 -131.3 Q5.5 -132.4 5.0 -133.2 L5.8 -132.65 Q7.25 -131.3 8.6 -129.05 L10.45 -125.9 12.95 -121.2 Q14.55 -117.9 15.8 -114.4 18.6 -106.9 19.95 -98.55 L20.9 -90.7 22.65 -69.8 22.85 -67.7 23.4 -64.65 23.45 -64.1 23.5 -63.95 Q24.55 -56.6 25.85 -49.25 L27.15 -42.1 27.7 -39.45 28.8 -34.65 29.55 -31.35 Q30.45 -27.4 31.6 -23.55 L33.75 -14.65 Q32.4 -14.2 29.65 -13.7 L29.05 -15.35 29.0 -15.5 28.55 -17.3 27.65 -19.35 Q26.35 -22.05 24.9 -26.45 L21.6 -26.35 21.5 -26.0 20.95 -25.35 Q20.55 -25.35 20.25 -26.0 L19.95 -27.0 19.85 -27.3 19.95 -27.35 19.95 -27.55 Q19.95 -28.5 20.2 -29.1 20.45 -29.75 20.8 -29.75 L21.45 -29.1 21.8 -27.55 21.8 -27.4 Q23.2 -27.55 24.4 -28.65 L25.0 -30.35 Q25.45 -32.0 25.4 -34.0 L23.95 -38.8 24.0 -38.8 22.95 -42.1 22.85 -42.35 21.95 -42.1 19.95 -41.65 20.1 -41.15 Q20.4 -39.8 19.75 -39.05 L19.25 -39.0 18.55 -39.2 18.5 -39.8 18.3 -41.7 18.15 -41.75 17.9 -42.1 17.85 -42.8 Q17.85 -44.8 22.4 -45.05 L19.8 -57.95 Q17.65 -68.95 17.9 -73.3 L17.8 -74.5 Q17.4 -72.65 16.4 -70.25 L16.3 -69.95 16.45 -68.25 16.3 -67.3 15.7 -66.9 15.15 -67.3 15.0 -67.55 14.8 -67.35 13.9 -67.55 Q13.7 -67.7 13.7 -68.45 L14.85 -74.05 14.95 -74.45 Q13.9 -75.05 13.65 -76.0 L13.65 -77.2 14.2 -78.4 14.95 -76.25 15.15 -75.6 Q15.95 -80.45 15.95 -84.9 L15.85 -86.35 15.0 -84.35 15.55 -83.8 14.3 -80.9 13.5 -81.75 13.45 -81.65 Q11.9 -79.1 11.2 -78.6 L10.4 -79.1 Q10.1 -79.35 10.1 -79.8 L12.55 -84.65 12.5 -85.25 12.85 -85.25 Q15.15 -90.4 15.15 -92.4 13.55 -102.0 11.3 -111.5 7.8 -126.35 5.1 -129.55 M27.45 -13.35 L27.05 -13.25 27.25 -13.5 27.45 -13.35 M-12.75 -13.05 L-16.8 -13.75 -20.85 -14.45 -24.8 -15.25 -22.75 -25.2 -22.35 -26.9 -22.3 -27.0 -21.6 -29.45 -21.95 -28.7 Q-20.95 -33.3 -20.1 -38.8 L-19.8 -40.85 -19.7 -41.55 -19.6 -42.1 Q-18.85 -48.0 -18.45 -53.15 L-18.25 -56.6 -17.75 -63.95 -17.75 -64.0 -17.7 -64.45 -17.7 -64.55 -17.7 -64.65 -17.7 -65.05 -18.3 -65.35 -18.95 -65.7 -19.05 -65.75 Q-20.4 -66.45 -21.5 -67.25 L-22.9 -68.3 Q-27.55 -72.15 -28.55 -77.8 -29.9 -86.05 -23.5 -98.1 L-12.05 -120.2 -11.55 -121.2 -10.05 -124.3 -7.3 -130.0 -6.35 -131.5 -6.75 -130.7 Q-10.7 -123.95 -8.55 -114.15 L-12.55 -102.55 -12.75 -102.45 -13.7 -102.75 -13.8 -103.7 -12.75 -106.8 Q-11.6 -110.2 -11.05 -112.85 L-10.9 -114.05 Q-15.05 -107.95 -18.7 -101.5 -25.8 -88.9 -25.8 -82.95 -25.8 -76.2 -21.2 -74.4 L-19.1 -73.85 -19.1 -73.75 -19.05 -73.45 Q-13.3 -73.1 -4.7 -73.1 L-1.65 -73.6 2.35 -74.5 Q2.8 -73.75 2.8 -72.55 2.8 -68.05 -2.35 -64.25 -6.15 -61.4 -10.0 -60.9 -10.05 -57.7 -11.2 -51.15 L-12.7 -42.75 -12.75 -42.1 -12.8 -41.15 -9.6 -41.5 -6.3 -41.75 -5.2 -40.6 Q-6.15 -39.75 -8.3 -38.8 -9.95 -38.15 -12.2 -37.4 L-13.85 -36.8 -14.6 -32.55 -14.6 -32.45 -14.9 -32.35 -14.55 -32.45 -13.0 -32.85 -10.85 -32.4 -8.85 -31.8 -8.7 -31.2 Q-10.4 -29.6 -13.7 -29.95 -13.65 -29.45 -16.65 -18.05 L-15.15 -15.5 Q-14.6 -14.5 -12.6 -13.65 L-12.65 -13.35 -12.75 -13.05 M-7.75 -113.45 L-7.4 -113.7 -6.45 -114.8 -9.4 -108.0 -10.2 -106.2 -7.75 -113.45 M9.4 -109.0 Q7.8 -110.45 7.8 -112.55 L7.9 -113.3 8.7 -113.25 Q9.7 -110.35 9.7 -108.65 L9.6 -108.8 9.4 -109.0 M9.1 -105.45 L8.95 -106.1 9.0 -106.15 9.25 -106.05 Q12.0 -104.95 12.0 -103.65 L11.8 -102.9 11.25 -102.5 10.6 -101.9 Q9.95 -102.55 9.65 -103.3 L9.1 -105.45 M12.0 -95.75 L11.9 -95.55 Q11.6 -94.9 11.2 -94.9 10.8 -94.9 10.5 -95.55 10.2 -96.2 10.2 -97.15 10.2 -98.1 10.5 -98.75 10.8 -99.4 11.2 -99.4 11.6 -99.4 11.9 -98.8 L11.9 -98.75 12.2 -97.15 12.0 -95.75 M12.05 -92.4 L13.1 -90.9 Q13.45 -90.1 13.4 -87.95 L12.7 -88.3 12.0 -88.45 11.95 -88.25 Q11.5 -89.0 11.45 -91.25 L11.55 -91.8 Q11.7 -92.35 12.05 -92.4 M17.05 -57.25 L17.4 -57.4 18.1 -56.75 18.35 -55.15 18.1 -53.55 18.05 -53.45 Q17.8 -52.9 17.4 -52.9 17.0 -52.9 16.75 -53.55 16.45 -54.2 16.45 -55.15 16.45 -56.1 16.75 -56.75 L17.05 -57.25 M18.35 -50.4 L19.0 -49.75 19.25 -48.15 19.0 -46.55 Q18.7 -45.9 18.3 -45.9 17.9 -45.9 17.65 -46.55 17.45 -46.95 17.4 -47.45 L17.35 -48.15 Q17.35 -49.1 17.65 -49.75 17.9 -50.4 18.3 -50.4 L18.35 -50.4 M15.55 -62.15 Q15.55 -63.1 15.85 -63.75 16.1 -64.4 16.5 -64.4 L17.2 -63.75 17.45 -62.15 17.2 -60.55 Q16.9 -59.9 16.5 -59.9 16.1 -59.9 15.85 -60.55 15.55 -61.2 15.55 -62.15 M19.9 -32.25 Q19.6 -32.35 19.4 -32.8 19.1 -33.45 19.1 -34.35 19.05 -35.25 19.3 -35.9 19.6 -36.5 19.95 -36.5 L20.6 -35.9 20.9 -34.35 20.9 -34.05 20.65 -32.8 20.05 -32.2 19.9 -32.25 M20.7 -20.75 L20.75 -22.05 22.05 -22.6 22.5 -18.85 22.55 -18.5 22.35 -18.4 21.25 -18.25 Q20.75 -18.6 20.7 -20.75 M-11.6 -98.2 L-8.55 -98.35 -6.75 -98.1 Q-5.75 -97.9 -5.45 -97.6 -6.85 -95.5 -12.95 -95.35 L-12.1 -95.4 Q-18.05 -96.4 -19.3 -97.05 -18.95 -98.05 -17.55 -99.5 L-17.4 -99.35 -17.35 -98.95 -17.4 -98.55 -11.6 -98.2 M-16.1 -91.85 Q-13.75 -91.0 -16.45 -90.35 -21.1 -91.0 -21.1 -92.55 L-20.85 -93.15 -19.95 -93.0 -16.1 -91.85" fill="#8a8a8a" fill-rule="evenodd" stroke="none"/>
    <path d="M29.65 -13.7 Q32.4 -14.2 33.75 -14.65 L31.6 -23.55 Q30.45 -27.4 29.55 -31.35 L28.8 -34.65 27.7 -39.45 27.15 -42.1 25.85 -49.25 Q24.55 -56.6 23.5 -63.95 L23.45 -64.1 23.4 -64.65 22.85 -67.7 22.65 -69.8 20.9 -90.7 19.95 -98.55 Q18.6 -106.9 15.8 -114.4 14.55 -117.9 12.95 -121.2 L10.45 -125.9 8.6 -129.05 Q7.25 -131.3 5.8 -132.65 L5.0 -133.2 Q5.5 -132.4 5.5 -131.3 L5.45 -130.7 5.1 -129.55 Q4.4 -127.95 2.85 -126.0 L-6.45 -114.8 -7.4 -113.7 -7.75 -113.45 -7.85 -113.45 -8.3 -113.5 -8.5 -113.8 -8.55 -114.15 Q-10.7 -123.95 -6.75 -130.7 L-6.35 -131.5 -7.3 -130.0 -10.05 -124.3 -11.55 -121.2 -12.05 -120.2 -23.5 -98.1 Q-29.9 -86.05 -28.55 -77.8 -27.55 -72.15 -22.9 -68.3 L-21.5 -67.25 Q-20.4 -66.45 -19.05 -65.75 L-18.95 -65.7 -18.3 -65.35 -17.7 -65.05 -17.7 -64.65 -17.7 -64.55 -17.7 -64.45 -17.75 -64.0 -17.75 -63.95 -18.25 -56.6 -18.45 -53.15 Q-18.85 -48.0 -19.6 -42.1 L-19.7 -41.55 -19.8 -40.85 -20.1 -38.8 Q-20.95 -33.3 -21.95 -28.7 L-21.6 -29.45 -22.3 -27.0 -22.35 -26.9 -22.75 -25.2 -24.8 -15.25 -20.85 -14.45 -16.8 -13.75 -12.75 -13.05 -6.65 -12.1 -6.45 -12.1 8.45 -11.6 17.35 -11.95 17.4 -11.95 18.7 -12.1 19.65 -12.2 22.6 -12.6 27.05 -13.25 27.45 -13.35 29.65 -13.7 M2.45 -133.85 L0.75 -134.45 Q-0.75 -134.7 -2.2 -134.0 -3.35 -133.45 -4.45 -132.3 L-5.35 -130.7 Q-9.0 -124.9 -7.7 -116.65 L-7.5 -115.4 -6.85 -116.15 -4.2 -119.3 1.9 -126.7 Q3.55 -128.75 4.15 -130.35 L4.25 -130.7 4.25 -131.3 Q4.15 -132.95 2.45 -133.85 M-21.55 -39.3 L-21.1 -42.3 -20.2 -50.5 -19.75 -56.7 -19.7 -57.3 -19.55 -60.25 -19.3 -63.95 -19.3 -64.2 -19.5 -64.3 -21.85 -65.65 -23.25 -66.65 Q-28.95 -71.0 -30.0 -77.55 -31.5 -86.25 -24.85 -98.8 L-13.25 -121.2 -10.25 -127.25 -8.75 -130.5 Q-7.35 -133.65 -4.15 -135.05 L-1.85 -135.8 -0.35 -136.05 Q2.55 -136.4 5.0 -135.05 7.85 -133.45 10.15 -129.55 14.4 -122.3 14.6 -121.2 21.1 -107.35 22.4 -90.8 L22.7 -87.4 23.2 -81.85 24.3 -68.8 24.4 -67.85 24.85 -64.95 24.95 -64.3 25.0 -63.95 27.35 -49.5 Q27.9 -46.15 28.6 -42.85 L28.75 -42.1 29.0 -40.75 29.1 -40.3 29.15 -40.05 29.2 -39.7 29.25 -39.45 29.4 -38.8 30.25 -34.95 Q31.45 -29.45 33.05 -23.95 L35.15 -15.3 35.35 -14.15 33.95 -13.65 30.1 -12.6 28.65 -12.25 25.4 -11.5 23.6 -11.15 20.85 -10.75 7.0 -10.15 -13.15 -11.3 -13.4 -11.35 -16.2 -11.7 -19.45 -12.25 -20.85 -12.55 -20.95 -12.55 -21.85 -12.75 -25.1 -13.65 -26.6 -13.9 -26.55 -14.15 -26.3 -15.65 -23.85 -27.25 Q-22.65 -32.4 -21.65 -38.75 L-21.65 -38.8 -21.55 -39.3" fill="#464646" fill-rule="evenodd" stroke="none"/>
  </g>
</svg>
