<?xml version="1.0" encoding="UTF-8" standalone="no"?>
<svg xmlns:ffdec="https://www.free-decompiler.com/flash" xmlns:xlink="http://www.w3.org/1999/xlink" ffdec:objectType="shape" height="26.1px" width="29.1px" xmlns="http://www.w3.org/2000/svg">
  <g transform="matrix(1.0, 0.0, 0.0, 1.0, -14.5, 40.9)">
    <path d="M29.3 -40.9 Q36.75 -40.9 40.15 -37.75 43.65 -34.7 43.6 -28.15 43.65 -23.65 41.05 -19.85 37.7 -14.85 31.6 -14.8 25.05 -14.8 19.65 -21.9 15.05 -27.95 15.05 -32.25 L15.1 -33.4 15.2 -33.95 Q14.95 -34.8 14.5 -35.25 L14.5 -36.2 15.55 -35.15 Q16.55 -37.85 19.6 -39.25 L14.5 -39.25 14.5 -40.0 21.65 -40.0 22.55 -40.25 29.3 -40.9 M22.85 -39.05 Q17.0 -37.7 16.35 -33.25 L16.3 -32.25 Q16.35 -28.25 20.65 -22.65 25.65 -16.1 31.6 -16.05 37.0 -16.05 40.0 -20.55 42.35 -24.05 42.35 -28.15 42.35 -34.0 39.3 -36.8 36.15 -39.65 29.3 -39.65 L22.85 -39.05" fill="#616161" fill-rule="evenodd" stroke="none"/>
  </g>
</svg>
