<?xml version="1.0" encoding="UTF-8" standalone="no"?>
<svg xmlns:ffdec="https://www.free-decompiler.com/flash" xmlns:xlink="http://www.w3.org/1999/xlink" ffdec:objectType="shape" height="148.5px" width="96.85px" xmlns="http://www.w3.org/2000/svg">
  <g transform="matrix(1.0, 0.0, 0.0, 1.0, 25.85, 127.5)">
    <path d="M-12.5 -51.1 L-12.25 -49.2 -12.0 -47.7 -11.6 -45.0 -14.4 -44.45 -14.45 -44.8 -14.7 -46.2 -15.0 -48.2 Q-21.6 -89.2 -18.35 -126.75 L-16.35 -126.7 Q-18.4 -91.1 -12.5 -51.1 M-10.4 -51.1 L-10.3 -51.2 9.75 -54.35 23.25 -55.8 Q39.1 -39.75 46.5 -21.85 27.9 -15.15 -6.1 -29.0 -6.15 -44.3 -10.4 -51.1 M69.15 4.4 L69.45 6.15 Q38.45 3.55 -2.25 11.0 -4.05 -12.85 -7.65 -23.2 1.5 -19.1 9.75 -16.8 L16.85 -15.15 Q46.35 -7.35 69.15 4.4 M9.3 -14.45 L9.3 -14.55 9.25 -14.6 9.15 -14.8 8.4 -15.1 8.4 -15.05 Q8.0 -15.05 7.9 -14.7 7.7 -14.4 8.05 -14.2 L8.35 -14.05 8.95 -14.05 9.3 -14.45 M18.05 -11.25 L18.45 -11.3 18.6 -11.6 18.65 -11.8 18.4 -12.25 18.25 -12.45 18.0 -12.5 17.95 -12.45 17.65 -12.4 17.45 -12.25 Q17.4 -11.75 17.5 -11.55 L17.65 -11.45 Q17.85 -11.25 18.05 -11.25 M13.85 -24.95 Q13.9 -24.7 14.25 -24.55 L14.65 -24.45 Q14.95 -24.45 15.0 -24.65 L15.15 -24.9 15.3 -25.3 15.4 -25.85 15.15 -26.2 14.75 -26.25 14.65 -26.25 14.4 -26.15 14.25 -25.9 14.0 -25.45 13.85 -24.95 M15.55 -30.9 L15.75 -30.3 Q16.0 -30.0 16.4 -30.0 L16.9 -30.05 17.2 -30.3 17.2 -30.65 17.15 -31.4 17.0 -31.65 16.45 -31.75 16.4 -31.75 16.0 -31.5 15.65 -31.2 15.55 -30.9 M3.55 -28.9 Q3.55 -28.5 3.7 -28.2 3.85 -27.8 4.25 -27.8 L4.4 -27.8 4.7 -28.1 4.75 -28.3 4.75 -29.05 4.7 -29.25 Q4.65 -29.5 4.15 -29.65 L4.05 -29.55 3.65 -29.35 3.55 -28.9 M8.25 -34.8 Q7.8 -34.25 7.85 -33.8 L8.1 -33.2 8.25 -32.95 8.7 -32.45 Q9.0 -32.2 9.45 -32.2 L10.2 -32.5 Q10.5 -32.9 10.6 -33.45 L10.5 -34.45 10.05 -35.3 9.25 -35.4 8.65 -35.25 8.25 -34.8 M7.95 -41.75 L8.05 -42.15 7.95 -42.4 7.55 -42.55 7.0 -42.4 Q6.85 -42.2 6.95 -41.85 6.95 -41.65 7.1 -41.6 L7.25 -41.55 7.5 -41.55 7.95 -41.75 M35.55 -30.35 L35.25 -30.15 Q34.85 -29.95 34.75 -29.35 L34.85 -28.9 35.9 -28.8 Q36.15 -28.9 36.3 -29.1 L37.2 -30.2 37.5 -30.85 37.3 -31.5 36.65 -31.55 36.0 -31.1 35.65 -30.65 35.55 -30.35 M22.15 -26.45 L21.65 -26.75 21.25 -27.0 21.1 -26.95 20.5 -26.9 20.35 -26.5 20.45 -26.1 Q20.75 -25.5 21.0 -25.25 L21.35 -24.95 22.1 -24.85 22.6 -25.0 22.7 -25.6 22.65 -25.8 22.65 -26.05 22.5 -26.3 22.15 -26.45 M28.7 -32.05 L28.9 -32.25 Q29.05 -32.0 29.35 -31.9 29.65 -31.8 29.85 -32.1 L29.85 -32.55 29.7 -33.0 29.55 -33.35 29.15 -33.5 28.75 -33.65 28.6 -33.55 Q28.4 -33.55 28.25 -33.3 L28.05 -32.95 28.0 -32.4 28.3 -32.05 28.7 -32.05 M17.7 -39.3 L17.6 -38.9 17.55 -38.2 Q17.55 -37.8 17.85 -37.6 L18.8 -37.5 19.3 -37.5 19.75 -37.9 20.3 -38.9 20.45 -40.05 Q20.25 -40.9 19.6 -40.9 19.1 -40.95 18.5 -40.35 17.85 -39.7 17.7 -39.3 M29.45 -43.35 Q29.25 -43.8 28.9 -43.7 L28.75 -43.65 28.4 -43.35 28.35 -42.9 Q28.35 -42.45 28.5 -42.25 28.65 -42.1 28.9 -42.1 L29.3 -42.25 Q29.7 -42.55 29.6 -42.9 L29.5 -43.1 29.45 -43.35 M23.3 -50.4 L23.1 -50.95 Q22.75 -51.4 22.25 -51.15 L21.7 -50.7 21.8 -49.6 22.15 -49.2 22.5 -49.0 Q23.0 -48.8 23.2 -49.3 23.1 -49.5 23.3 -49.6 L23.5 -49.9 23.3 -50.4 M12.8 -49.7 L12.7 -50.2 11.95 -51.05 10.75 -51.75 10.05 -51.7 Q9.6 -51.35 9.9 -50.65 L10.2 -50.05 10.55 -49.55 11.2 -48.95 11.75 -48.45 12.25 -48.5 12.55 -48.85 12.65 -49.4 12.8 -49.7 M2.7 -50.95 L2.65 -50.9 2.6 -50.75 2.65 -50.6 2.8 -50.45 3.05 -50.4 3.15 -50.4 3.45 -50.55 3.5 -50.7 3.35 -51.1 3.15 -51.15 3.1 -51.1 2.7 -50.95 M11.9 -10.5 L11.3 -10.6 Q10.35 -10.6 10.1 -10.2 L-1.45 -8.5 -1.8 -8.3 -1.9 -7.95 0.0 8.2 0.2 8.55 0.55 8.65 11.0 7.1 11.4 7.2 Q11.9 7.3 12.3 6.95 L12.35 6.9 16.6 6.25 16.95 6.05 17.05 5.7 16.45 0.65 17.0 0.7 17.55 0.65 17.95 0.3 Q18.05 -0.2 17.65 -1.1 L17.35 -1.85 16.95 -2.45 16.45 -2.65 16.1 -2.6 15.15 -10.45 14.95 -10.8 14.6 -10.9 11.9 -10.5 M51.95 1.15 L52.2 1.15 52.4 0.95 52.7 0.75 52.8 0.25 52.75 -0.2 52.25 -0.45 51.95 -0.35 Q51.8 -0.35 51.8 -0.1 L51.45 0.65 51.55 0.9 51.65 1.05 51.95 1.15 M43.2 -2.6 L43.3 -2.25 43.55 -1.8 44.4 -1.3 Q44.95 -1.2 45.1 -1.6 L45.2 -1.95 45.25 -2.3 45.0 -3.0 Q44.7 -3.35 44.1 -3.35 L43.35 -3.1 43.2 -2.6 M40.5 -24.15 Q40.0 -23.9 40.1 -23.4 40.1 -23.0 40.55 -22.55 L40.9 -22.3 41.25 -22.25 42.1 -22.35 42.55 -22.95 42.6 -23.7 Q42.6 -24.45 42.3 -24.65 L41.8 -24.8 41.3 -24.65 41.0 -24.4 40.5 -24.15 M34.35 -5.65 L34.45 -5.8 34.5 -6.0 34.75 -6.35 34.85 -6.75 34.6 -7.1 33.85 -7.35 33.5 -7.3 33.3 -7.15 33.15 -6.95 33.1 -6.75 33.2 -6.25 33.3 -6.1 33.35 -5.75 33.55 -5.5 33.8 -5.4 Q34.1 -5.4 34.35 -5.65 M30.8 -3.5 Q30.7 -3.85 30.35 -3.75 L30.25 -3.7 Q30.05 -3.75 29.9 -3.5 L29.85 -3.0 29.85 -1.6 29.95 -1.25 Q30.1 -0.9 30.6 -0.9 30.95 -0.95 31.2 -1.4 L31.25 -1.6 31.1 -2.6 30.8 -3.5 M24.25 -6.4 L23.95 -6.3 23.85 -6.15 23.75 -5.8 23.85 -5.6 Q24.15 -5.3 24.35 -5.4 L24.4 -5.4 24.75 -5.85 24.85 -6.05 24.7 -6.15 24.6 -6.3 24.25 -6.4 M30.75 -23.85 L30.5 -23.95 30.45 -23.85 30.1 -23.75 30.05 -23.55 30.05 -23.25 30.1 -23.1 30.2 -23.0 30.8 -22.9 30.85 -23.0 30.95 -23.05 31.05 -23.15 31.05 -23.5 31.0 -23.7 30.75 -23.85 M-0.9 -39.75 Q-0.5 -39.45 -0.25 -39.75 L-0.05 -40.15 -0.05 -40.5 -0.15 -40.95 -0.55 -41.25 -0.6 -41.2 -1.05 -40.85 -1.1 -40.55 -1.1 -40.2 -1.05 -39.95 -0.9 -39.75 M-5.4 -47.95 L-5.8 -47.55 -5.9 -47.05 -5.85 -46.65 -5.45 -46.25 -4.8 -46.0 -4.4 -46.1 -3.65 -46.3 -3.45 -47.15 -3.5 -47.65 Q-3.55 -47.85 -4.05 -47.95 L-4.7 -48.1 -5.4 -47.95 M-3.4 -34.3 L-3.8 -34.2 -4.0 -33.8 -4.3 -33.3 -4.35 -32.45 -4.25 -31.65 -3.8 -31.4 Q-3.15 -31.3 -2.6 -31.7 -2.0 -32.15 -2.0 -32.8 L-2.3 -33.65 Q-2.5 -34.25 -2.9 -34.3 L-3.4 -34.3 M-0.55 -12.05 L-0.35 -12.35 -0.35 -13.1 -0.45 -13.45 -0.75 -13.7 -1.15 -13.75 -1.65 -13.6 -1.95 -12.95 -2.1 -12.25 -2.0 -11.75 Q-1.8 -11.5 -1.4 -11.5 L-1.15 -11.55 Q-0.9 -11.6 -0.55 -12.05 M25.65 3.1 L25.7 2.65 Q25.8 2.15 25.55 1.75 L25.25 1.4 24.6 1.35 Q24.05 1.45 23.95 1.7 L23.4 1.75 Q23.0 1.85 22.9 2.0 L22.8 2.45 Q22.7 3.05 22.9 3.45 L23.35 3.9 Q23.9 4.35 24.5 4.2 L25.15 3.85 25.5 3.45 25.65 3.1 M31.0 5.7 L31.55 5.7 31.75 5.55 31.85 5.1 31.4 4.5 30.9 4.4 30.8 4.45 Q30.4 4.55 30.35 4.75 L30.5 5.3 30.75 5.6 31.0 5.7 M39.6 1.7 L39.1 1.65 38.55 1.55 38.0 1.05 37.3 0.9 Q36.4 0.9 36.0 1.25 L35.8 1.5 35.35 1.85 35.15 2.45 35.45 2.95 36.0 3.0 39.05 2.95 39.65 2.85 39.95 2.25 Q39.95 1.9 39.6 1.7" fill="#775633" fill-rule="evenodd" stroke="none"/>
    <path d="M-12.25 -49.2 L-10.4 -51.1 Q-7.4 -39.85 -7.0 -28.2 L-7.6 -27.35 Q-8.85 -37.5 -11.0 -47.15 L-11.3 -47.6 -11.85 -47.75 -12.0 -47.7 -12.25 -49.2 M-11.9 -44.45 Q-10.1 -35.65 -9.0 -26.4 L-8.85 -26.05 -8.55 -25.8 -8.1 -25.6 -7.65 -23.2 Q-4.65 -5.75 -3.5 12.5 L-4.6 14.5 Q-6.4 17.4 -8.9 19.05 L-10.8 19.35 -11.1 14.5 Q-12.9 -11.05 -17.1 -36.55 L-16.85 -36.6 -16.2 -37.6 Q-11.2 -12.2 -9.9 14.5 L-9.85 15.75 Q-8.6 15.9 -7.4 14.5 L-5.9 11.85 Q-7.6 -15.9 -13.25 -42.35 L-11.9 -44.45 M-19.75 -36.05 Q-27.45 -76.5 -24.05 -112.45 L-18.35 -126.75 Q-21.6 -89.2 -15.0 -48.2 L-14.7 -46.2 -14.45 -44.8 -14.4 -44.45 -19.75 -36.05" fill="#5d4123" fill-rule="evenodd" stroke="none"/>
    <path d="M45.7 -21.1 Q30.85 -14.9 9.75 -20.7 1.55 -22.95 -7.55 -27.0 L-7.6 -27.35 -7.0 -28.2 Q1.8 -24.25 9.75 -21.95 30.7 -15.9 45.7 -21.1 M-11.6 -45.0 L-11.9 -44.45 -13.25 -42.35 Q-7.6 -15.9 -5.9 11.85 L-7.4 14.5 Q-8.6 15.9 -9.85 15.75 L-9.9 14.5 Q-11.2 -12.2 -16.2 -37.6 L-16.85 -36.6 -17.1 -36.55 -18.6 -36.25 -19.75 -36.05 -14.4 -44.45 -11.6 -45.0 M69.4 6.2 Q66.7 10.5 61.8 10.75 L61.75 10.75 Q26.4 12.85 -8.9 19.05 -6.4 17.4 -4.6 14.5 L-3.5 12.5 9.75 10.2 Q44.2 4.7 69.4 6.2 M-16.2 -37.6 L-13.25 -42.35 -16.2 -37.6" fill="#4a341c" fill-rule="evenodd" stroke="none"/>
    <path d="M-8.1 -25.6 Q1.3 -21.4 9.75 -19.1 32.1 -13.05 47.6 -20.25 52.45 -22.5 56.65 -26.1 L56.7 -26.1 Q60.0 -28.65 62.95 -31.9 L63.3 -29.8 Q60.0 -26.25 56.5 -23.55 52.95 -20.5 48.85 -18.4 35.55 -11.65 16.85 -15.15 L9.75 -16.8 Q1.5 -19.1 -7.65 -23.2 L-8.1 -25.6" fill="#543b21" fill-rule="evenodd" stroke="none"/>
    <path d="M-12.5 -51.1 L-11.15 -52.45 -10.8 -52.6 9.75 -55.85 22.25 -57.2 61.5 -58.5 61.9 -58.35 62.2 -57.95 Q65.35 -47.15 66.2 -36.3 L66.05 -35.8 64.45 -33.7 64.4 -33.6 64.2 -33.4 71.0 6.15 70.9 6.65 Q67.75 12.0 61.85 12.25 25.25 14.45 -11.35 21.0 L-11.75 20.95 -12.1 20.7 -12.25 20.3 -12.6 14.5 Q-14.4 -10.85 -18.6 -36.25 L-17.1 -36.55 Q-12.9 -11.05 -11.1 14.5 L-10.8 19.35 -8.9 19.05 Q26.4 12.85 61.75 10.75 L61.8 10.75 Q66.7 10.5 69.4 6.2 L69.45 6.15 69.15 4.4 63.3 -29.8 62.95 -31.9 Q60.0 -28.65 56.7 -26.1 L56.65 -26.1 Q52.45 -22.5 47.6 -20.25 32.1 -13.05 9.75 -19.1 1.3 -21.4 -8.1 -25.6 L-8.55 -25.8 -8.85 -26.05 -9.0 -26.4 Q-10.1 -35.65 -11.9 -44.45 L-11.6 -45.0 -12.0 -47.7 -11.85 -47.75 -11.3 -47.6 -11.0 -47.15 Q-8.85 -37.5 -7.6 -27.35 L-7.55 -27.0 Q1.55 -22.95 9.75 -20.7 30.85 -14.9 45.7 -21.1 L46.7 -21.55 52.55 -24.8 55.75 -27.25 55.75 -27.3 Q59.15 -29.9 62.15 -33.3 L62.8 -34.0 63.25 -34.6 64.7 -36.45 Q63.85 -46.75 60.9 -57.0 L23.25 -55.8 9.75 -54.35 -10.3 -51.2 -10.4 -51.1 -12.25 -49.2 -12.5 -51.1" fill="#312212" fill-rule="evenodd" stroke="none"/>
    <path d="M52.55 -24.8 L46.7 -21.55 45.7 -21.1 Q30.7 -15.9 9.75 -21.95 1.8 -24.25 -7.0 -28.2 -7.4 -39.85 -10.4 -51.1 -6.15 -44.3 -6.1 -29.0 27.9 -15.15 46.5 -21.85 49.75 -23.0 52.55 -24.8 M69.45 6.15 L69.4 6.2 Q44.2 4.7 9.75 10.2 L-3.5 12.5 Q-4.65 -5.75 -7.65 -23.2 -4.05 -12.85 -2.25 11.0 38.45 3.55 69.45 6.15" fill="#85613a" fill-rule="evenodd" stroke="none"/>
    <path d="M23.25 -55.8 L60.9 -57.0 Q63.85 -46.75 64.7 -36.45 L63.25 -34.6 62.8 -34.0 62.15 -33.3 Q59.15 -29.9 55.75 -27.3 L55.75 -27.25 52.55 -24.8 Q49.75 -23.0 46.5 -21.85 39.1 -39.75 23.25 -55.8 M63.3 -29.8 L69.15 4.4 Q46.35 -7.35 16.85 -15.15 35.55 -11.65 48.85 -18.4 52.95 -20.5 56.5 -23.55 60.0 -26.25 63.3 -29.8 M2.7 -50.95 L3.1 -51.1 3.15 -51.15 3.35 -51.1 3.5 -50.7 3.45 -50.55 3.15 -50.4 3.05 -50.4 2.8 -50.45 2.65 -50.6 2.6 -50.75 2.65 -50.9 2.7 -50.95 M12.8 -49.7 L12.65 -49.4 12.55 -48.85 12.25 -48.5 11.75 -48.45 11.2 -48.95 10.55 -49.55 10.2 -50.05 9.9 -50.65 Q9.6 -51.35 10.05 -51.7 L10.75 -51.75 11.95 -51.05 12.7 -50.2 12.8 -49.7 M23.3 -50.4 L23.5 -49.9 23.3 -49.6 Q23.1 -49.5 23.2 -49.3 23.0 -48.8 22.5 -49.0 L22.15 -49.2 21.8 -49.6 21.7 -50.7 22.25 -51.15 Q22.75 -51.4 23.1 -50.95 L23.3 -50.4 M29.45 -43.35 L29.5 -43.1 29.6 -42.9 Q29.7 -42.55 29.3 -42.25 L28.9 -42.1 Q28.65 -42.1 28.5 -42.25 28.35 -42.45 28.35 -42.9 L28.4 -43.35 28.75 -43.65 28.9 -43.7 Q29.25 -43.8 29.45 -43.35 M17.7 -39.3 Q17.85 -39.7 18.5 -40.35 19.1 -40.95 19.6 -40.9 20.25 -40.9 20.45 -40.05 L20.3 -38.9 19.75 -37.9 19.3 -37.5 18.8 -37.5 17.85 -37.6 Q17.55 -37.8 17.55 -38.2 L17.6 -38.9 17.7 -39.3 M28.7 -32.05 L28.3 -32.05 28.0 -32.4 28.05 -32.95 28.25 -33.3 Q28.4 -33.55 28.6 -33.55 L28.75 -33.65 29.15 -33.5 29.55 -33.35 29.7 -33.0 29.85 -32.55 29.85 -32.1 Q29.65 -31.8 29.35 -31.9 29.05 -32.0 28.9 -32.25 L28.7 -32.05 M22.15 -26.45 L22.5 -26.3 22.65 -26.05 22.65 -25.8 22.7 -25.6 22.6 -25.0 22.1 -24.85 21.35 -24.95 21.0 -25.25 Q20.75 -25.5 20.45 -26.1 L20.35 -26.5 20.5 -26.9 21.1 -26.95 21.25 -27.0 21.65 -26.75 22.15 -26.45 M35.55 -30.35 L35.65 -30.65 36.0 -31.1 36.65 -31.55 37.3 -31.5 37.5 -30.85 37.2 -30.2 36.3 -29.1 Q36.15 -28.9 35.9 -28.8 L34.85 -28.9 34.75 -29.35 Q34.85 -29.95 35.25 -30.15 L35.55 -30.35 M7.95 -41.75 L7.5 -41.55 7.25 -41.55 7.1 -41.6 Q6.95 -41.65 6.95 -41.85 6.85 -42.2 7.0 -42.4 L7.55 -42.55 7.95 -42.4 8.05 -42.15 7.95 -41.75 M8.25 -34.8 L8.65 -35.25 9.25 -35.4 10.05 -35.3 10.5 -34.45 10.6 -33.45 Q10.5 -32.9 10.2 -32.5 L9.45 -32.2 Q9.0 -32.2 8.7 -32.45 L8.25 -32.95 8.1 -33.2 7.85 -33.8 Q7.8 -34.25 8.25 -34.8 M3.55 -28.9 L3.65 -29.35 4.05 -29.55 4.15 -29.65 Q4.65 -29.5 4.7 -29.25 L4.75 -29.05 4.75 -28.3 4.7 -28.1 4.4 -27.8 4.25 -27.8 Q3.85 -27.8 3.7 -28.2 3.55 -28.5 3.55 -28.9 M15.55 -30.9 L15.65 -31.2 16.0 -31.5 16.4 -31.75 16.45 -31.75 17.0 -31.65 17.15 -31.4 17.2 -30.65 17.2 -30.3 16.9 -30.05 16.4 -30.0 Q16.0 -30.0 15.75 -30.3 L15.55 -30.9 M13.85 -24.95 L14.0 -25.45 14.25 -25.9 14.4 -26.15 14.65 -26.25 14.75 -26.25 15.15 -26.2 15.4 -25.85 15.3 -25.3 15.15 -24.9 15.0 -24.65 Q14.95 -24.45 14.65 -24.45 L14.25 -24.55 Q13.9 -24.7 13.85 -24.95 M18.05 -11.25 Q17.85 -11.25 17.65 -11.45 L17.5 -11.55 Q17.4 -11.75 17.45 -12.25 L17.65 -12.4 17.95 -12.45 18.0 -12.5 18.25 -12.45 18.4 -12.25 18.65 -11.8 18.6 -11.6 18.45 -11.3 18.05 -11.25 M9.3 -14.45 L8.95 -14.05 8.35 -14.05 8.05 -14.2 Q7.7 -14.4 7.9 -14.7 8.0 -15.05 8.4 -15.05 L8.4 -15.1 9.15 -14.8 9.25 -14.6 9.3 -14.55 9.3 -14.45 M10.1 -10.2 Q10.35 -10.6 11.3 -10.6 L11.9 -10.5 10.1 -10.2 M16.1 -2.6 L16.45 -2.65 16.95 -2.45 17.35 -1.85 17.65 -1.1 Q18.05 -0.2 17.95 0.3 L17.55 0.65 17.0 0.7 16.45 0.65 16.1 -2.6 M12.35 6.9 L12.3 6.95 Q11.9 7.3 11.4 7.2 L11.0 7.1 12.35 6.9 M30.75 -23.85 L31.0 -23.7 31.05 -23.5 31.05 -23.15 30.95 -23.05 30.85 -23.0 30.8 -22.9 30.2 -23.0 30.1 -23.1 30.05 -23.25 30.05 -23.55 30.1 -23.75 30.45 -23.85 30.5 -23.95 30.75 -23.85 M24.25 -6.4 L24.6 -6.3 24.7 -6.15 24.85 -6.05 24.75 -5.85 24.4 -5.4 24.35 -5.4 Q24.15 -5.3 23.85 -5.6 L23.75 -5.8 23.85 -6.15 23.95 -6.3 24.25 -6.4 M30.8 -3.5 L31.1 -2.6 31.25 -1.6 31.2 -1.4 Q30.95 -0.95 30.6 -0.9 30.1 -0.9 29.95 -1.25 L29.85 -1.6 29.85 -3.0 29.9 -3.5 Q30.05 -3.75 30.25 -3.7 L30.35 -3.75 Q30.7 -3.85 30.8 -3.5 M34.35 -5.65 Q34.1 -5.4 33.8 -5.4 L33.55 -5.5 33.35 -5.75 33.3 -6.1 33.2 -6.25 33.1 -6.75 33.15 -6.95 33.3 -7.15 33.5 -7.3 33.85 -7.35 34.6 -7.1 34.85 -6.75 34.75 -6.35 34.5 -6.0 34.45 -5.8 34.35 -5.65 M40.5 -24.15 L41.0 -24.4 41.3 -24.65 41.8 -24.8 42.3 -24.65 Q42.6 -24.45 42.6 -23.7 L42.55 -22.95 42.1 -22.35 41.25 -22.25 40.9 -22.3 40.55 -22.55 Q40.1 -23.0 40.1 -23.4 40.0 -23.9 40.5 -24.15 M43.2 -2.6 L43.35 -3.1 44.1 -3.35 Q44.7 -3.35 45.0 -3.0 L45.25 -2.3 45.2 -1.95 45.1 -1.6 Q44.95 -1.2 44.4 -1.3 L43.55 -1.8 43.3 -2.25 43.2 -2.6 M51.95 1.15 L51.65 1.05 51.55 0.9 51.45 0.65 51.8 -0.1 Q51.8 -0.35 51.95 -0.35 L52.25 -0.45 52.75 -0.2 52.8 0.25 52.7 0.75 52.4 0.95 52.2 1.15 51.95 1.15 M-5.4 -47.95 L-4.7 -48.1 -4.05 -47.95 Q-3.55 -47.85 -3.5 -47.65 L-3.45 -47.15 -3.65 -46.3 -4.4 -46.1 -4.8 -46.0 -5.45 -46.25 -5.85 -46.65 -5.9 -47.05 -5.8 -47.55 -5.4 -47.95 M-0.9 -39.75 L-1.05 -39.95 -1.1 -40.2 -1.1 -40.55 -1.05 -40.85 -0.6 -41.2 -0.55 -41.25 -0.15 -40.95 -0.05 -40.5 -0.05 -40.15 -0.25 -39.75 Q-0.5 -39.45 -0.9 -39.75 M-3.4 -34.3 L-2.9 -34.3 Q-2.5 -34.25 -2.3 -33.65 L-2.0 -32.8 Q-2.0 -32.15 -2.6 -31.7 -3.15 -31.3 -3.8 -31.4 L-4.25 -31.65 -4.35 -32.45 -4.3 -33.3 -4.0 -33.8 -3.8 -34.2 -3.4 -34.3 M-0.55 -12.05 Q-0.9 -11.6 -1.15 -11.55 L-1.4 -11.5 Q-1.8 -11.5 -2.0 -11.75 L-2.1 -12.25 -1.95 -12.95 -1.65 -13.6 -1.15 -13.75 -0.75 -13.7 -0.45 -13.45 -0.35 -13.1 -0.35 -12.35 -0.55 -12.05 M39.6 1.7 Q39.95 1.9 39.95 2.25 L39.65 2.85 39.05 2.95 36.0 3.0 35.45 2.95 35.15 2.45 35.35 1.85 35.8 1.5 36.0 1.25 Q36.4 0.9 37.3 0.9 L38.0 1.05 38.55 1.55 39.1 1.65 39.6 1.7 M31.0 5.7 L30.75 5.6 30.5 5.3 30.35 4.75 Q30.4 4.55 30.8 4.45 L30.9 4.4 31.4 4.5 31.85 5.1 31.75 5.55 31.55 5.7 31.0 5.7 M25.65 3.1 L25.5 3.45 25.15 3.85 24.5 4.2 Q23.9 4.35 23.35 3.9 L22.9 3.45 Q22.7 3.05 22.8 2.45 L22.9 2.0 Q23.0 1.85 23.4 1.75 L23.95 1.7 Q24.05 1.45 24.6 1.35 L25.25 1.4 25.55 1.75 Q25.8 2.15 25.7 2.65 L25.65 3.1" fill="#6d5030" fill-rule="evenodd" stroke="none"/>
    <path d="M1.6 -91.8 L1.75 -91.7 1.8 -91.45 -1.3 -79.7 -1.45 -79.45 Q-1.6 -79.35 -1.7 -79.35 L-12.3 -79.95 -12.5 -80.05 -12.55 -80.3 -9.45 -92.05 -9.3 -92.3 -9.0 -92.4 1.6 -91.8 M11.9 -10.5 L14.6 -10.9 14.95 -10.8 15.15 -10.45 16.1 -2.6 16.45 0.65 17.05 5.7 16.95 6.05 16.6 6.25 12.35 6.9 11.0 7.1 0.55 8.65 0.2 8.55 0.0 8.2 -1.9 -7.95 -1.8 -8.3 -1.45 -8.5 10.1 -10.2 11.9 -10.5 M1.05 -91.15 L-8.85 -91.7 -11.75 -80.65 -1.85 -80.1 1.05 -91.15 M14.25 -9.85 L-0.85 -7.55 0.95 7.6 16.05 5.3 14.25 -9.85" fill="#4a4a4a" fill-rule="evenodd" stroke="none"/>
    <path d="M13.65 -8.9 L0.05 -6.9 0.45 -3.5 1.1 -4.05 1.35 -4.2 1.4 -4.35 Q2.95 -6.15 3.8 -6.5 4.2 -6.7 4.6 -6.5 L4.85 -6.35 5.75 -6.9 6.5 -6.9 7.05 -6.3 7.2 -4.95 7.05 -4.05 7.2 -3.95 7.2 -4.0 9.3 -3.15 Q12.0 -2.05 14.4 -1.55 L14.55 -1.5 13.65 -8.9 M3.3 -4.95 L2.15 -3.75 2.25 -3.75 3.6 -4.0 3.65 -4.0 3.7 -4.05 4.3 -4.8 4.2 -5.6 3.35 -5.0 3.3 -5.05 3.3 -4.95 M5.9 -3.5 Q6.35 -5.15 6.05 -5.95 5.3 -5.65 3.8 -3.8 L3.65 -3.75 Q2.7 -3.75 1.95 -3.35 1.15 -3.0 0.6 -2.1 L1.7 6.95 5.05 6.45 2.35 1.1 4.3 4.1 Q6.35 4.1 8.95 2.5 L12.75 2.7 14.3 0.55 14.65 -0.45 14.2 -0.55 13.35 -0.75 12.4 -1.0 Q9.65 -1.8 6.45 -3.2 L5.9 -3.5 M6.05 -1.5 L7.7 -1.3 7.1 -0.75 6.2 -0.85 6.05 -1.5 M7.65 -6.9 L12.55 -7.65 12.8 -5.5 10.6 -5.15 10.45 -6.3 7.65 -6.9 M0.45 -90.55 L-8.5 -91.05 -9.15 -88.55 -8.6 -88.9 -8.45 -88.9 -8.3 -89.0 Q-6.9 -90.15 -6.3 -90.2 L-5.8 -90.15 -5.7 -90.0 -4.95 -90.25 -4.5 -90.1 Q-4.25 -90.0 -4.3 -89.65 L-4.55 -88.65 -4.9 -88.05 -4.8 -87.9 -4.8 -87.95 -3.75 -87.1 -1.0 -85.2 -0.95 -85.2 0.45 -90.55 M-7.0 -89.25 L-8.0 -88.5 -7.05 -88.5 -6.4 -88.9 -6.3 -89.55 -6.95 -89.25 -6.95 -89.3 -7.05 -89.25 -7.0 -89.25 M-5.8 -87.8 Q-5.05 -88.9 -5.0 -89.55 L-7.0 -88.3 -7.1 -88.3 Q-8.35 -88.6 -9.4 -87.55 L-11.15 -81.0 -8.95 -80.9 -9.15 -85.05 -8.8 -82.6 Q-7.55 -82.35 -5.45 -83.05 L-3.15 -82.4 Q-2.25 -83.0 -1.65 -83.75 L-1.15 -84.4 -1.45 -84.55 Q-3.35 -85.6 -5.45 -87.55 L-5.8 -87.8 M-3.8 -90.0 L-0.55 -89.8 -0.95 -88.25 -2.4 -88.35 -2.2 -89.2 -3.8 -90.0 M-2.3 -84.25 L-1.85 -84.15 -2.05 -83.9 -2.3 -84.25 M-2.2 -80.5 L-1.55 -82.9 -2.9 -81.8 -3.2 -81.65 -3.5 -81.7 -5.6 -82.3 -8.3 -81.8 -8.25 -81.05 -8.3 -80.85 -2.2 -80.5 M-6.25 -86.4 L-5.2 -86.0 -5.75 -85.7 -6.3 -85.85 -6.25 -86.4 M1.05 -91.15 L-1.85 -80.1 -11.75 -80.65 -8.85 -91.7 1.05 -91.15 M15.3 4.95 L14.9 1.6 13.5 3.4 13.1 3.65 12.65 3.75 9.15 3.55 Q7.4 4.5 5.9 4.9 L5.5 5.0 5.95 6.0 6.05 6.3 15.3 4.95 M13.0 0.1 L13.8 0.1 13.6 0.5 13.0 0.1 M14.25 -9.85 L16.05 5.3 0.95 7.6 -0.85 -7.55 14.25 -9.85" fill="#a8a8a8" fill-rule="evenodd" stroke="none"/>
    <path d="M13.65 -8.9 L14.55 -1.5 14.4 -1.55 Q12.0 -2.05 9.3 -3.15 L7.2 -4.0 7.2 -3.95 7.05 -4.05 7.2 -4.95 7.05 -6.3 6.5 -6.9 5.75 -6.9 4.85 -6.35 4.6 -6.5 Q4.2 -6.7 3.8 -6.5 2.95 -6.15 1.4 -4.35 L1.35 -4.2 1.1 -4.05 0.45 -3.5 0.05 -6.9 13.65 -8.9 M3.3 -4.95 L3.3 -5.05 3.35 -5.0 3.3 -4.95 M7.65 -6.9 L10.45 -6.3 10.6 -5.15 12.8 -5.5 12.55 -7.65 7.65 -6.9 M0.45 -90.55 L-0.95 -85.2 -1.0 -85.2 -3.75 -87.1 -4.8 -87.95 -4.8 -87.9 -4.9 -88.05 -4.55 -88.65 -4.3 -89.65 Q-4.25 -90.0 -4.5 -90.1 L-4.95 -90.25 -5.7 -90.0 -5.8 -90.15 -6.3 -90.2 Q-6.9 -90.15 -8.3 -89.0 L-8.45 -88.9 -8.6 -88.9 -9.15 -88.55 -8.5 -91.05 0.45 -90.55 M-6.95 -89.25 L-7.0 -89.25 -7.05 -89.25 -6.95 -89.3 -6.95 -89.25 M-3.8 -90.0 L-2.2 -89.2 -2.4 -88.35 -0.95 -88.25 -0.55 -89.8 -3.8 -90.0 M-2.2 -80.5 L-8.3 -80.85 -8.25 -81.05 -8.3 -81.8 -5.6 -82.3 -3.5 -81.7 -3.2 -81.65 -2.9 -81.8 -1.55 -82.9 -2.2 -80.5 M15.3 4.95 L6.05 6.3 5.95 6.0 5.5 5.0 5.9 4.9 Q7.4 4.5 9.15 3.55 L12.65 3.75 13.1 3.65 13.5 3.4 14.9 1.6 15.3 4.95" fill="#e57721" fill-rule="evenodd" stroke="none"/>
    <path d="M3.35 -5.0 L4.2 -5.6 4.3 -4.8 3.7 -4.05 3.65 -4.0 3.6 -4.0 2.25 -3.75 2.15 -3.75 3.3 -4.95 3.35 -5.0 M5.9 -3.5 L6.45 -3.2 Q9.65 -1.8 12.4 -1.0 L13.35 -0.75 14.2 -0.55 14.65 -0.45 14.3 0.55 12.75 2.7 8.95 2.5 Q6.35 4.1 4.3 4.1 L2.35 1.1 5.05 6.45 1.7 6.95 0.6 -2.1 Q1.15 -3.0 1.95 -3.35 2.7 -3.75 3.65 -3.75 L3.8 -3.8 Q5.3 -5.65 6.05 -5.95 6.35 -5.15 5.9 -3.5 M6.05 -1.5 L6.2 -0.85 7.1 -0.75 7.7 -1.3 6.05 -1.5 M-7.0 -89.25 L-6.95 -89.25 -6.3 -89.55 -6.4 -88.9 -7.05 -88.5 -8.0 -88.5 -7.0 -89.25 M-5.8 -87.8 L-5.45 -87.55 Q-3.35 -85.6 -1.45 -84.55 L-1.15 -84.4 -1.65 -83.75 Q-2.25 -83.0 -3.15 -82.4 L-5.45 -83.05 Q-7.55 -82.35 -8.8 -82.6 L-9.15 -85.05 -8.95 -80.9 -11.15 -81.0 -9.4 -87.55 Q-8.35 -88.6 -7.1 -88.3 L-7.0 -88.3 -5.0 -89.55 Q-5.05 -88.9 -5.8 -87.8 M-2.3 -84.25 L-2.05 -83.9 -1.85 -84.15 -2.3 -84.25 M-6.25 -86.4 L-6.3 -85.85 -5.75 -85.7 -5.2 -86.0 -6.25 -86.4 M13.0 0.1 L13.6 0.5 13.8 0.1 13.0 0.1" fill="#3e415f" fill-rule="evenodd" stroke="none"/>
    <path d="M-12.5 -51.1 L-12.25 -49.2 -12.0 -47.7 -11.6 -45.0 -11.9 -44.45 -13.25 -42.35 -16.2 -37.6 -16.85 -36.6 -17.1 -36.55 -18.6 -36.25 -19.75 -36.05 Q-27.45 -76.5 -24.05 -112.45 L-18.35 -126.75 -16.35 -126.7 Q-18.4 -91.1 -12.5 -51.1 Z" fill="none" stroke="#312212" stroke-linecap="round" stroke-linejoin="round" stroke-width="1.5"/>
  </g>
</svg>
