<?xml version="1.0" encoding="UTF-8" standalone="no"?>
<svg xmlns:ffdec="https://www.free-decompiler.com/flash" xmlns:xlink="http://www.w3.org/1999/xlink" ffdec:objectType="shape" height="63.65px" width="22.55px" xmlns="http://www.w3.org/2000/svg">
  <g transform="matrix(1.0, 0.0, 0.0, 1.0, 8.25, 2.05)">
    <path d="M14.1 44.4 Q14.15 45.5 11.45 46.45 8.75 47.5 4.8 47.85 L-2.0 47.6 Q-4.85 47.05 -4.9 45.95 -5.0 44.85 -2.35 43.85 0.4 42.85 4.35 42.55 8.3 42.2 11.1 42.7 14.0 43.3 14.1 44.4" fill="#050b17" fill-rule="evenodd" stroke="none"/>
    <path d="M8.5 58.5 L7.6 59.25 6.45 59.55 Q5.65 59.55 4.4 58.85 3.2 58.15 2.45 58.15 1.5 58.15 1.0 54.9 0.55 52.1 -0.15 43.0 L6.55 42.1 8.5 58.5" fill="#d59d6b" fill-rule="evenodd" stroke="none"/>
    <path d="M8.9 41.9 L9.95 56.0 8.5 58.5 6.55 42.1 8.9 41.9" fill="#c68758" fill-rule="evenodd" stroke="none"/>
    <path d="M8.9 41.9 L11.05 42.85 11.95 56.2 11.95 57.2 11.2 57.4 9.35 59.5 Q7.35 61.6 6.05 61.6 4.45 61.6 2.05 59.95 0.1 58.7 -0.85 57.55 L-0.9 57.35 Q-1.0 55.1 -2.2 44.0 L-0.15 43.0 Q0.55 52.1 1.0 54.9 1.5 58.15 2.45 58.15 3.2 58.15 4.4 58.85 5.65 59.55 6.45 59.55 L7.6 59.25 8.5 58.5 9.95 56.0 8.9 41.9" fill="#7e4d2d" fill-rule="evenodd" stroke="none"/>
    <path d="M-3.35 -1.55 L2.45 -2.05 3.1 -2.0 Q3.8 1.4 6.15 22.2 6.55 26.45 7.6 33.25 7.4 33.15 3.0 34.4 L0.15 35.2 -0.8 34.95 -0.95 34.95 -1.5 35.05 -1.6 33.75 -1.5 33.75 -1.35 33.75 Q-0.7 33.65 -0.2 33.0 L-0.2 32.95 Q0.25 32.4 0.35 31.6 L0.45 31.1 Q0.45 30.0 -0.2 29.25 -0.6 28.55 -1.3 28.5 L-1.5 28.5 -1.85 28.55 -2.05 28.65 Q-2.8 21.6 -3.35 -1.55 M3.7 17.6 L3.45 9.15 Q2.85 2.5 0.5 1.6 -0.2 2.2 -0.55 3.3 -1.05 4.35 -1.0 5.5 -0.2 15.45 1.5 30.55 L2.65 32.5 4.7 31.45 5.1 30.6 3.7 17.6" fill="#11254b" fill-rule="evenodd" stroke="none"/>
    <path d="M4.9 -1.8 Q6.35 -1.5 7.1 -0.4 13.05 33.55 14.3 43.2 L13.95 44.65 13.75 44.55 13.5 44.9 Q13.0 45.4 12.5 45.3 12.0 45.15 11.85 43.85 L10.8 43.45 Q9.1 42.7 5.15 42.85 1.4 42.85 -1.7 44.4 L-3.35 45.15 -3.15 46.35 Q-3.15 46.95 -3.85 46.95 -5.35 46.95 -5.85 45.6 -5.45 40.5 -8.25 0.9 -8.0 0.2 -6.9 -0.35 L-6.0 -0.85 -6.0 -0.65 -4.55 33.05 -4.5 33.2 -4.5 34.95 -4.45 38.6 -4.4 41.65 -4.35 43.9 Q0.05 41.8 5.0 41.5 9.45 41.2 12.3 42.35 L11.65 38.4 11.3 36.2 10.6 31.7 Q9.7 28.15 4.9 -1.7 L4.9 -1.8" fill="#050b17" fill-rule="evenodd" stroke="none"/>
    <path d="M3.1 -2.0 L4.9 -1.8 4.9 -1.7 Q9.7 28.15 10.6 31.7 L11.3 36.2 5.4 35.75 1.3 36.7 0.85 35.85 0.15 35.2 3.0 34.4 Q7.4 33.15 7.6 33.25 6.55 26.45 6.15 22.2 3.8 1.4 3.1 -2.0 M-6.0 -0.65 L-3.35 -1.55 Q-2.8 21.6 -2.05 28.65 -2.55 28.8 -2.9 29.25 -3.4 30.0 -3.4 31.1 -3.45 32.2 -2.9 33.0 -2.4 33.7 -1.6 33.75 L-1.5 35.05 Q-2.15 35.2 -2.65 35.85 -3.3 36.8 -3.35 38.15 L-4.45 38.6 -4.5 34.95 -4.5 33.2 -4.55 33.05 -6.0 -0.65 M-4.4 41.65 L-3.5 40.85 -2.9 40.35 -2.65 40.7 Q-1.95 41.7 -0.95 41.7 0.1 41.6 0.75 40.7 L0.85 40.6 Q1.5 39.75 1.55 38.5 L1.95 38.4 7.95 37.75 10.7 38.15 11.65 38.4 12.3 42.35 Q9.45 41.2 5.0 41.5 0.05 41.8 -4.35 43.9 L-4.4 41.65" fill="#0e1e3c" fill-rule="evenodd" stroke="none"/>
    <path d="M3.7 17.6 L5.1 30.6 4.7 31.45 2.65 32.5 1.5 30.55 Q-0.2 15.45 -1.0 5.5 -1.05 4.35 -0.55 3.3 -0.2 2.2 0.5 1.6 2.85 2.5 3.45 9.15 L3.7 17.6" fill="#132a55" fill-rule="evenodd" stroke="none"/>
    <path d="M1.3 36.7 L5.4 35.75 11.3 36.2 11.65 38.4 10.7 38.15 7.95 37.75 1.95 38.4 1.55 38.5 1.55 38.3 1.3 36.7 M-3.35 38.15 L-3.35 38.3 Q-3.45 39.05 -3.15 39.75 L-2.9 40.35 -3.5 40.85 -4.4 41.65 -4.45 38.6 -3.35 38.15" fill="#071020" fill-rule="evenodd" stroke="none"/>
    <path d="M0.15 35.2 L0.85 35.85 1.3 36.7 1.55 38.3 1.55 38.5 Q1.5 39.75 0.85 40.6 L0.75 40.7 Q0.1 41.6 -0.95 41.7 -1.95 41.7 -2.65 40.7 L-2.9 40.35 -3.15 39.75 Q-3.45 39.05 -3.35 38.3 L-3.35 38.15 Q-3.3 36.8 -2.65 35.85 -2.15 35.2 -1.5 35.05 L-0.95 34.95 -0.8 34.95 0.15 35.2 M-0.2 31.25 L-0.2 31.1 -0.25 30.8 Q-0.3 30.25 -0.6 29.85 -0.9 29.45 -1.3 29.4 L-1.5 29.35 -1.8 29.35 -2.0 29.45 -2.45 29.8 -2.5 29.85 Q-2.85 30.35 -2.85 31.1 L-2.8 31.6 -2.45 32.4 -1.7 32.95 -1.55 32.95 -1.5 32.95 -0.6 32.4 Q-0.25 31.95 -0.2 31.25 M-2.05 28.65 L-1.85 28.55 -1.5 28.5 -1.3 28.5 Q-0.6 28.55 -0.2 29.25 0.45 30.0 0.45 31.1 L0.35 31.6 Q0.25 32.4 -0.2 32.95 L-0.2 33.0 Q-0.7 33.65 -1.35 33.75 L-1.5 33.75 -1.6 33.75 Q-2.4 33.7 -2.9 33.0 -3.45 32.2 -3.4 31.1 -3.4 30.0 -2.9 29.25 -2.55 28.8 -2.05 28.65 M0.75 38.05 L0.45 36.95 0.35 36.8 0.3 36.75 0.25 36.65 Q-0.1 36.15 -0.65 36.1 L-0.95 36.0 Q-1.65 35.95 -2.1 36.6 L-2.15 36.65 Q-2.55 37.15 -2.6 37.9 L-2.6 38.3 -2.6 38.35 Q-2.6 39.2 -2.15 39.85 L-2.1 39.9 Q-1.65 40.55 -0.95 40.6 -0.15 40.6 0.25 39.9 L0.75 38.75 0.75 38.3 0.75 38.05" fill="#823e00" fill-rule="evenodd" stroke="none"/>
    <path d="M-2.8 31.6 L-2.85 31.1 Q-2.85 30.35 -2.5 29.85 L-2.45 29.8 -2.0 29.45 -1.8 29.35 -1.5 29.35 -1.3 29.4 Q-0.9 29.45 -0.6 29.85 -0.3 30.25 -0.25 30.8 L-0.2 31.1 -0.2 31.25 -1.8 31.5 -2.8 31.6 M-2.6 38.35 L-2.6 38.3 -2.6 37.9 Q-2.55 37.15 -2.15 36.65 L-2.1 36.6 Q-1.65 35.95 -0.95 36.0 L-0.65 36.1 Q-0.1 36.15 0.25 36.65 L0.3 36.75 0.35 36.8 0.45 36.95 0.75 38.05 -1.4 38.45 -2.2 38.3 -2.6 38.35" fill="#ffe500" fill-rule="evenodd" stroke="none"/>
    <path d="M-0.2 31.25 Q-0.25 31.95 -0.6 32.4 L-1.5 32.95 -1.55 32.95 -1.7 32.95 -2.45 32.4 -2.8 31.6 -1.8 31.5 -0.2 31.25 M0.75 38.05 L0.75 38.3 0.75 38.75 0.25 39.9 Q-0.15 40.6 -0.95 40.6 -1.65 40.55 -2.1 39.9 L-2.15 39.85 Q-2.6 39.2 -2.6 38.35 L-2.2 38.3 -1.4 38.45 0.75 38.05" fill="#f0a100" fill-rule="evenodd" stroke="none"/>
  </g>
</svg>
