<?xml version="1.0" encoding="UTF-8" standalone="no"?>
<svg xmlns:ffdec="https://www.free-decompiler.com/flash" xmlns:xlink="http://www.w3.org/1999/xlink" ffdec:objectType="shape" height="20.55px" width="18.4px" xmlns="http://www.w3.org/2000/svg">
  <g transform="matrix(1.0, 0.0, 0.0, 1.0, 0.85, -0.75)">
    <path d="M5.3 6.0 Q8.45 2.6 12.55 3.6 L12.05 4.05 11.85 4.2 11.75 4.35 11.6 4.5 11.45 4.65 11.3 4.8 8.65 9.05 7.7 10.55 7.65 10.7 7.4 11.05 6.75 12.15 6.55 12.7 6.6 12.65 6.05 14.35 5.1 18.1 Q4.5 19.5 3.05 19.5 2.35 19.5 1.8 18.85 1.0 17.85 1.0 15.6 1.0 12.35 3.4 8.5 4.3 7.0 5.3 6.0" fill="#cccccc" fill-rule="evenodd" stroke="none"/>
    <path d="M15.25 0.9 L14.6 0.85 Q12.15 1.25 9.45 2.55 5.9 4.25 5.3 6.0 4.3 7.0 3.4 8.5 1.0 12.35 1.0 15.6 1.0 17.85 1.8 18.85 2.35 19.5 3.05 19.5 4.5 19.5 5.1 18.1 L6.05 14.35 6.6 12.65 7.4 11.05 7.65 10.7 7.7 10.55 8.65 9.05 Q11.85 4.5 16.25 4.45 L16.35 4.5 Q10.3 7.6 8.15 14.3 L6.55 19.25 Q5.55 21.3 3.4 21.3 1.95 21.3 1.0 20.55 -0.85 19.2 -0.85 15.65 -0.85 11.1 3.45 6.1 8.05 0.75 13.1 0.75 L15.25 0.9" fill="#666666" fill-rule="evenodd" stroke="none"/>
    <path d="M15.25 0.9 L16.9 1.35 17.35 1.6 17.55 2.25 Q17.55 3.15 16.9 4.2 L16.9 4.25 16.35 4.5 16.25 4.45 Q11.85 4.5 8.65 9.05 L11.3 4.8 11.45 4.65 11.6 4.5 11.75 4.35 11.85 4.2 12.05 4.05 12.55 3.6 Q8.45 2.6 5.3 6.0 5.9 4.25 9.45 2.55 12.15 1.25 14.6 0.85 L15.25 0.9 M6.6 12.65 L6.55 12.7 6.75 12.15 7.4 11.05 6.6 12.65" fill="#a8a8a8" fill-rule="evenodd" stroke="none"/>
  </g>
</svg>
