<?xml version="1.0" encoding="UTF-8" standalone="no"?>
<svg xmlns:ffdec="https://www.free-decompiler.com/flash" xmlns:xlink="http://www.w3.org/1999/xlink" ffdec:objectType="shape" height="13.25px" width="17.95px" xmlns="http://www.w3.org/2000/svg">
  <g transform="matrix(1.0, 0.0, 0.0, 1.0, 9.75, 132.15)">
    <path d="M6.25 -128.05 L6.7 -130.45 6.7 -130.65 6.4 -132.15 7.1 -131.15 8.2 -129.4 8.1 -128.95 8.0 -128.5 7.35 -126.75 7.05 -126.15 7.0 -126.2 6.1 -127.65 6.25 -128.05 M-9.0 -122.5 L-9.15 -123.0 -9.6 -124.65 -9.65 -124.9 -9.75 -125.7 -9.65 -126.0 -8.65 -128.25 -8.15 -125.15 -8.0 -124.5 -7.95 -124.25 -8.2 -123.75 -8.5 -123.25 -9.0 -122.5" fill="#8a8a8a" fill-rule="evenodd" stroke="none"/>
    <path d="M6.25 -128.05 L6.1 -127.65 7.0 -126.2 7.05 -126.15 7.35 -126.75 Q6.5 -125.05 4.9 -123.1 1.25 -118.85 -3.55 -118.9 -7.5 -118.85 -9.0 -122.5 L-8.5 -123.25 -8.2 -123.75 -7.95 -124.25 Q-7.0 -120.45 -3.55 -120.4 0.55 -120.45 3.75 -124.1 L3.75 -124.05 Q5.55 -126.2 6.25 -128.05" fill="#b4b4b4" fill-rule="evenodd" stroke="none"/>
  </g>
</svg>
