<?xml version="1.0" encoding="UTF-8" standalone="no"?>
<svg xmlns:ffdec="https://www.free-decompiler.com/flash" xmlns:xlink="http://www.w3.org/1999/xlink" ffdec:objectType="shape" height="35.2px" width="29.1px" xmlns="http://www.w3.org/2000/svg">
  <g transform="matrix(1.0, 0.0, 0.0, 1.0, 17.25, 97.05)">
    <path d="M9.75 -95.15 L9.75 -95.1 Q11.4 -93.2 11.4 -90.45 11.4 -87.75 9.75 -85.8 8.1 -83.85 5.75 -83.85 3.4 -83.85 1.75 -85.8 0.1 -87.75 0.1 -90.45 0.1 -93.2 1.75 -95.15 3.4 -97.05 5.75 -97.05 8.1 -97.05 9.75 -95.15 M6.0 -86.75 Q6.5 -86.2 7.2 -86.2 7.95 -86.2 8.45 -86.75 8.95 -87.35 8.95 -88.25 8.95 -89.1 8.45 -89.7 7.95 -90.25 7.2 -90.25 6.45 -90.25 5.95 -89.7 5.45 -89.1 5.45 -88.25 5.45 -87.4 5.95 -86.8 L6.0 -86.75 M11.75 -63.85 L9.4 -65.4 2.65 -65.1 1.15 -65.0 -2.7 -64.85 -9.6 -65.4 Q-12.8 -67.85 -13.65 -70.15 -4.35 -73.25 -2.15 -73.7 1.75 -74.6 4.75 -73.65 7.8 -72.7 9.35 -70.4 10.8 -68.3 11.75 -63.85 M-15.6 -91.2 L-15.85 -90.45 -15.6 -89.7 -15.55 -89.65 Q-15.25 -89.3 -14.9 -89.3 L-14.2 -89.7 Q-13.9 -90.0 -13.9 -90.45 -13.9 -90.9 -14.2 -91.2 L-14.2 -91.25 Q-14.5 -91.6 -14.9 -91.6 -15.25 -91.6 -15.55 -91.25 L-15.6 -91.2 M-16.3 -86.8 Q-17.25 -87.95 -17.25 -89.55 -17.25 -91.15 -16.3 -92.25 L-15.6 -92.85 Q-14.85 -93.4 -13.95 -93.4 -12.6 -93.4 -11.6 -92.25 -10.65 -91.15 -10.65 -89.55 -10.65 -87.95 -11.6 -86.8 -12.6 -85.7 -13.95 -85.7 -14.85 -85.7 -15.6 -86.2 L-16.3 -86.8" fill="#e5e5e5" fill-rule="evenodd" stroke="none"/>
    <path d="M2.65 -65.1 L9.4 -65.4 11.75 -63.85 11.85 -61.85 Q9.35 -63.85 8.15 -64.2 L4.05 -64.95 2.65 -65.1 M-13.65 -70.15 Q-12.8 -67.85 -9.6 -65.4 L-2.7 -64.85 -4.85 -64.4 Q-9.6 -63.35 -10.55 -63.7 -11.8 -64.05 -13.15 -66.75 L-14.65 -69.55 -13.65 -70.15" fill="#868686" fill-rule="evenodd" stroke="none"/>
  </g>
</svg>
