<?xml version="1.0" encoding="UTF-8" standalone="no"?>
<svg xmlns:ffdec="https://www.free-decompiler.com/flash" xmlns:xlink="http://www.w3.org/1999/xlink" ffdec:objectType="shape" height="194.4px" width="68.35px" xmlns="http://www.w3.org/2000/svg">
  <g transform="matrix(1.0, 0.0, 0.0, 1.0, 2.05, 42.15)">
    <path d="M28.05 -19.05 Q38.45 0.55 34.25 22.4 L33.7 22.6 Q31.7 2.9 21.9 -14.3 23.25 -17.35 26.55 -18.6 L28.05 -19.05 M32.4 29.7 Q31.05 43.4 33.8 56.4 36.35 68.5 42.7 78.85 48.15 87.65 52.0 97.3 56.55 108.5 55.95 120.7 55.3 133.35 47.75 143.35 L46.2 145.4 45.35 144.5 Q47.4 138.0 47.85 131.1 48.4 123.7 46.6 116.85 L46.0 114.85 43.85 117.15 Q40.7 104.1 36.35 91.4 32.65 80.5 30.2 69.5 28.0 59.85 28.2 49.85 26.25 64.35 28.65 78.7 L27.85 79.3 Q24.25 72.05 24.7 64.05 25.25 53.5 28.15 43.4 L32.0 30.55 32.4 29.7" fill="#d1d1d1" fill-rule="evenodd" stroke="none"/>
    <path d="M10.85 -25.8 L11.3 -26.8 12.6 -28.7 Q14.7 -31.45 18.0 -32.45 28.85 -27.15 33.55 -15.55 40.25 1.2 36.4 18.55 32.55 35.95 35.35 52.45 38.05 69.05 45.75 80.7 53.4 92.45 57.05 103.1 61.0 114.55 58.55 126.15 56.0 138.35 47.3 147.2 43.25 151.4 37.6 151.0 42.5 147.3 43.85 141.3 46.4 129.95 40.45 120.15 L40.3 121.0 Q40.15 121.85 40.45 122.6 42.15 127.8 42.35 133.0 L41.2 133.6 Q35.45 135.75 29.55 134.7 34.25 130.0 35.8 120.55 37.4 111.1 34.7 102.85 32.05 94.5 27.65 87.55 23.2 80.6 21.5 67.65 19.95 55.55 24.3 44.2 28.85 32.05 29.1 19.05 29.3 5.8 20.3 -4.1 11.6 -13.8 10.85 -25.8 M28.05 -19.05 L26.55 -18.6 Q23.25 -17.35 21.9 -14.3 31.7 2.9 33.7 22.6 L34.25 22.4 Q38.45 0.55 28.05 -19.05 M24.25 4.25 L25.15 6.6 Q27.1 11.55 27.4 16.85 L27.5 21.3 Q27.5 31.0 23.35 39.8 L23.85 35.25 Q25.8 19.8 24.25 4.25 M32.4 29.7 L32.0 30.55 28.15 43.4 Q25.25 53.5 24.7 64.05 24.25 72.05 27.85 79.3 L28.65 78.7 Q26.25 64.35 28.2 49.85 28.0 59.85 30.2 69.5 32.65 80.5 36.35 91.4 40.7 104.1 43.85 117.15 L46.0 114.85 46.6 116.85 Q48.4 123.7 47.85 131.1 47.4 138.0 45.35 144.5 L46.2 145.4 47.75 143.35 Q55.3 133.35 55.95 120.7 56.55 108.5 52.0 97.3 48.15 87.65 42.7 78.85 36.35 68.5 33.8 56.4 31.05 43.4 32.4 29.7 M21.1 86.25 L20.5 82.3 Q20.0 79.0 19.85 75.6 L22.95 82.45 21.1 86.25 M60.85 109.8 L60.3 107.6 Q66.75 119.15 64.8 132.4 64.55 134.45 63.35 136.0 63.0 132.95 61.65 130.05 L60.25 127.05 Q62.2 119.8 61.25 112.4 L60.85 109.8" fill="#989898" fill-rule="evenodd" stroke="none"/>
    <path d="M27.6 -26.5 Q35.55 -17.5 37.9 -5.75 40.3 6.45 38.15 18.6 36.05 30.25 35.85 42.2 35.8 52.6 39.0 62.4 42.5 73.25 48.65 83.0 55.0 93.3 60.5 104.05 66.35 115.25 66.3 127.7 66.3 132.85 64.1 137.6 L63.0 137.8 59.8 128.85 Q56.65 146.95 39.4 151.9 L36.05 152.2 35.8 151.4 Q43.35 144.85 42.25 134.95 34.9 138.8 27.45 135.3 42.1 114.95 29.25 92.7 26.7 88.15 23.75 83.9 L24.05 84.4 21.4 89.0 Q15.6 71.15 19.25 52.4 21.0 43.0 22.35 33.7 24.25 19.2 21.8 5.05 20.85 -0.65 17.2 -5.1 11.15 -12.55 9.5 -21.8 9.15 -24.2 10.1 -26.45 14.2 -35.7 21.75 -31.45 25.1 -29.5 27.6 -26.5 M10.85 -25.8 Q11.6 -13.8 20.3 -4.1 29.3 5.8 29.1 19.05 28.85 32.05 24.3 44.2 19.95 55.55 21.5 67.65 23.2 80.6 27.65 87.55 32.05 94.5 34.7 102.85 37.4 111.1 35.8 120.55 34.25 130.0 29.55 134.7 35.45 135.75 41.2 133.6 L42.35 133.0 Q42.15 127.8 40.45 122.6 40.15 121.85 40.3 121.0 L40.45 120.15 Q46.4 129.95 43.85 141.3 42.5 147.3 37.6 151.0 43.25 151.4 47.3 147.2 56.0 138.35 58.55 126.15 61.0 114.55 57.05 103.1 53.4 92.45 45.75 80.7 38.05 69.05 35.35 52.45 32.55 35.95 36.4 18.55 40.25 1.2 33.55 -15.55 28.85 -27.15 18.0 -32.45 14.7 -31.45 12.6 -28.7 L11.3 -26.8 10.85 -25.8 M24.25 4.25 Q25.8 19.8 23.85 35.25 L23.35 39.8 Q27.5 31.0 27.5 21.3 L27.4 16.85 Q27.1 11.55 25.15 6.6 L24.25 4.25 M21.1 86.25 L22.95 82.45 19.85 75.6 Q20.0 79.0 20.5 82.3 L21.1 86.25 M60.85 109.8 L61.25 112.4 Q62.2 119.8 60.25 127.05 L61.65 130.05 Q63.0 132.95 63.35 136.0 64.55 134.45 64.8 132.4 66.75 119.15 60.3 107.6 L60.85 109.8" fill="#606060" fill-rule="evenodd" stroke="none"/>
    <path d="M22.15 -29.2 L21.95 -28.95 20.2 -27.9 Q21.0 -28.05 20.9 -27.0 20.8 -26.3 20.45 -26.25 L19.7 -26.3 Q16.1 -26.15 15.75 -28.35 15.35 -30.55 18.2 -30.55 21.0 -29.85 22.15 -29.2 M21.1 -35.35 L20.95 -35.2 17.55 -33.7 14.95 -33.4 Q12.0 -33.4 11.65 -35.1 L13.75 -36.85 15.65 -37.15 Q19.4 -37.15 21.1 -35.35 M19.85 -20.75 Q19.55 -21.15 19.65 -21.8 19.7 -22.4 20.05 -22.85 20.4 -23.25 20.9 -23.25 21.35 -23.25 21.6 -22.85 21.9 -22.4 21.85 -21.8 21.8 -21.15 21.4 -20.75 21.05 -20.3 20.55 -20.3 L19.85 -20.75" fill="#ffffff" fill-rule="evenodd" stroke="none"/>
    <path d="M25.35 -28.4 L24.2 -27.35 Q23.05 -26.45 22.8 -24.35 22.65 -23.25 23.9 -20.85 L25.05 -18.6 24.8 -17.8 Q24.2 -17.1 22.0 -17.1 19.15 -17.1 15.0 -24.8 10.45 -33.3 6.5 -35.0 7.55 -36.85 10.6 -37.75 L15.85 -38.45 Q24.8 -38.45 24.55 -35.9 24.45 -34.85 21.6 -33.0 25.45 -29.6 25.35 -28.4 M21.1 -35.35 Q19.4 -37.15 15.65 -37.15 L13.75 -36.85 11.65 -35.1 Q12.0 -33.4 14.95 -33.4 L17.55 -33.7 20.95 -35.2 21.1 -35.35 M22.15 -29.2 Q21.0 -29.85 18.2 -30.55 15.35 -30.55 15.75 -28.35 16.1 -26.15 19.7 -26.3 L20.45 -26.25 Q20.8 -26.3 20.9 -27.0 21.0 -28.05 20.2 -27.9 L21.95 -28.95 22.15 -29.2 M19.85 -20.75 L20.55 -20.3 Q21.05 -20.3 21.4 -20.75 21.8 -21.15 21.85 -21.8 21.9 -22.4 21.6 -22.85 21.35 -23.25 20.9 -23.25 20.4 -23.25 20.05 -22.85 19.7 -22.4 19.65 -21.8 19.55 -21.15 19.85 -20.75" fill="#d1d1d1" fill-rule="evenodd" stroke="none"/>
    <path d="M25.35 -28.4 Q25.45 -29.6 21.6 -33.0 24.45 -34.85 24.55 -35.9 24.8 -38.45 15.85 -38.45 L10.6 -37.75 Q7.55 -36.85 6.5 -35.0 10.45 -33.3 15.0 -24.8 19.15 -17.1 22.0 -17.1 24.2 -17.1 24.8 -17.8 L25.05 -18.6 23.9 -20.85 Q22.65 -23.25 22.8 -24.35 23.05 -26.45 24.2 -27.35 L25.35 -28.4 M6.95 -40.15 L12.9 -40.75 Q23.4 -40.75 26.55 -33.95 28.6 -29.6 27.65 -20.95 27.3 -17.65 25.2 -15.55 22.2 -12.55 16.05 -12.55 7.65 -12.55 3.35 -16.35 -1.25 -20.35 -0.45 -28.15 0.05 -32.5 0.95 -33.8 L3.7 -37.15 Q5.35 -39.55 6.95 -40.15" fill="#989898" fill-rule="evenodd" stroke="none"/>
    <path d="M2.15 -37.4 Q6.05 -40.95 9.5 -42.05 23.65 -43.05 27.85 -35.35 30.35 -30.8 29.35 -21.65 28.75 -16.6 25.0 -13.65 21.2 -10.7 15.05 -10.7 2.75 -10.7 -0.7 -18.85 -2.7 -23.45 -1.75 -32.1 -1.55 -34.0 2.15 -37.4 M6.95 -40.15 Q5.35 -39.55 3.7 -37.15 L0.95 -33.8 Q0.05 -32.5 -0.45 -28.15 -1.25 -20.35 3.35 -16.35 7.65 -12.55 16.05 -12.55 22.2 -12.55 25.2 -15.55 27.3 -17.65 27.65 -20.95 28.6 -29.6 26.55 -33.95 23.4 -40.75 12.9 -40.75 L6.95 -40.15" fill="#606060" fill-rule="evenodd" stroke="none"/>
  </g>
</svg>
