<?xml version="1.0" encoding="UTF-8" standalone="no"?>
<svg xmlns:ffdec="https://www.free-decompiler.com/flash" xmlns:xlink="http://www.w3.org/1999/xlink" ffdec:objectType="shape" height="65.0px" width="96.9px" xmlns="http://www.w3.org/2000/svg">
  <g transform="matrix(1.0, 0.0, 0.0, 1.0, 50.75, 50.25)">
    <path d="M27.9 -27.8 L29.75 -29.45 31.5 -29.75 Q35.1 -29.75 36.9 -28.0 L36.75 -27.85 Q35.15 -27.3 33.65 -26.45 L31.25 -26.15 Q28.45 -26.15 27.9 -27.8 M39.0 -15.1 L38.7 -14.1 Q38.4 -13.7 37.95 -13.7 37.5 -13.7 37.2 -14.1 36.9 -14.5 36.9 -15.1 36.9 -15.7 37.2 -16.1 37.5 -16.5 37.95 -16.5 38.4 -16.5 38.7 -16.1 L39.0 -15.1 M38.55 -22.15 L38.35 -21.9 36.8 -20.9 Q37.55 -21.05 37.55 -20.05 37.55 -19.4 37.25 -19.35 L36.5 -19.4 Q33.1 -19.25 32.5 -21.35 31.95 -23.45 34.65 -23.45 37.35 -22.8 38.55 -22.15" fill="#ffffff" fill-rule="evenodd" stroke="none"/>
    <path d="M23.05 -27.7 Q23.85 -29.45 26.65 -30.3 L31.6 -30.95 Q40.15 -30.95 40.15 -28.55 40.15 -27.55 37.65 -25.8 41.65 -22.55 41.65 -21.4 L40.65 -20.4 Q39.65 -19.55 39.65 -17.55 39.65 -16.5 41.05 -14.2 L42.4 -12.05 42.25 -11.3 Q41.75 -10.65 39.65 -10.65 36.95 -10.65 32.2 -17.95 26.95 -26.05 23.05 -27.7 M27.9 -27.8 Q28.45 -26.15 31.25 -26.15 L33.65 -26.45 Q35.15 -27.3 36.75 -27.85 L36.9 -28.0 Q35.1 -29.75 31.5 -29.75 L29.75 -29.45 27.9 -27.8 M38.55 -22.15 Q37.35 -22.8 34.65 -23.45 31.95 -23.45 32.5 -21.35 33.1 -19.25 36.5 -19.4 L37.25 -19.35 Q37.55 -19.4 37.55 -20.05 37.55 -21.05 36.8 -20.9 L38.35 -21.9 38.55 -22.15 M39.0 -15.1 L38.7 -16.1 Q38.4 -16.5 37.95 -16.5 37.5 -16.5 37.2 -16.1 36.9 -15.7 36.9 -15.1 36.9 -14.5 37.2 -14.1 37.5 -13.7 37.95 -13.7 38.4 -13.7 38.7 -14.1 L39.0 -15.1" fill="#d1d1d1" fill-rule="evenodd" stroke="none"/>
    <path d="M28.55 -33.15 Q38.55 -33.15 42.25 -26.7 44.65 -22.55 44.65 -14.3 44.65 -11.15 42.85 -9.15 40.3 -6.3 34.45 -6.3 26.45 -6.3 21.95 -9.9 17.15 -13.75 17.15 -21.15 17.15 -25.3 17.85 -26.55 L20.15 -29.75 Q21.45 -32.0 22.95 -32.6 L28.55 -33.15 M23.05 -27.7 Q26.95 -26.05 32.2 -17.95 36.95 -10.65 39.65 -10.65 41.75 -10.65 42.25 -11.3 L42.4 -12.05 41.05 -14.2 Q39.65 -16.5 39.65 -17.55 39.65 -19.55 40.65 -20.4 L41.65 -21.4 Q41.65 -22.55 37.65 -25.8 40.15 -27.55 40.15 -28.55 40.15 -30.95 31.6 -30.95 L26.65 -30.3 Q23.85 -29.45 23.05 -27.7" fill="#989898" fill-rule="evenodd" stroke="none"/>
    <path d="M28.55 -33.15 L22.95 -32.6 Q21.45 -32.0 20.15 -29.75 L17.85 -26.55 Q17.15 -25.3 17.15 -21.15 17.15 -13.75 21.95 -9.9 26.45 -6.3 34.45 -6.3 40.3 -6.3 42.85 -9.15 44.65 -11.15 44.65 -14.3 44.65 -22.55 42.25 -26.7 38.55 -33.15 28.55 -33.15 M15.5 -24.9 Q15.5 -26.75 18.65 -29.95 21.95 -33.35 25.15 -34.4 38.55 -35.35 43.35 -28.0 46.15 -23.7 46.15 -14.95 46.15 -10.15 42.85 -7.35 39.55 -4.55 33.7 -4.55 22.0 -4.55 17.85 -12.3 15.5 -16.7 15.5 -24.9" fill="#606060" fill-rule="evenodd" stroke="none"/>
    <path d="M8.65 3.75 Q7.85 2.25 7.85 1.25 7.85 -0.8 9.1 -5.85 L10.35 -11.65 Q10.35 -13.25 8.4 -15.8 6.0 -18.95 1.9 -21.25 -9.6 -27.9 -28.7 -25.35 -31.05 -28.1 -31.05 -30.4 -31.05 -32.8 -27.25 -35.45 -23.15 -38.35 -18.55 -38.35 -17.05 -38.35 -16.15 -37.75 -18.7 -37.1 -20.75 -36.1 -24.8 -34.1 -24.8 -30.55 L-23.2 -28.5 Q-21.3 -26.5 -19.65 -26.5 -17.35 -26.5 -16.55 -28.85 -15.4 -32.35 -13.15 -34.2 -12.25 -34.95 -6.8 -36.7 -0.8 -38.65 1.5 -38.5 L6.25 -38.55 12.45 -38.15 12.45 -37.85 Q12.3 -37.7 12.6 -37.65 12.35 -37.2 10.2 -36.95 6.45 -36.55 0.5 -34.3 L-4.55 -32.15 Q-6.55 -30.75 -7.25 -27.2 L-5.85 -27.05 Q-2.65 -29.15 0.95 -30.5 4.1 -31.75 5.6 -31.75 L6.3 -31.7 6.25 -31.6 Q6.15 -31.0 4.05 -28.95 L1.3 -26.35 3.0 -26.25 14.2 -26.35 14.65 -25.75 11.9 -24.05 Q9.7 -22.8 9.1 -22.65 10.85 -20.2 13.1 -19.85 L16.4 -19.5 16.35 -18.85 14.65 -17.05 Q13.1 -15.5 12.0 -14.65 L12.7 -14.2 19.1 -11.45 Q18.75 -10.7 16.05 -8.65 L12.35 -5.75 Q14.0 -5.75 16.45 -6.7 L18.85 -7.65 19.55 -7.55 19.65 -7.25 Q19.8 -6.25 16.1 -2.2 12.05 2.3 8.65 3.75" fill="#ffffff" fill-rule="evenodd" stroke="none"/>
    <path d="M-36.2 -27.35 L-40.35 -27.65 -38.3 -27.6 -39.9 -29.35 Q-41.0 -30.75 -41.0 -32.75 -41.0 -38.45 -32.75 -41.35 -24.05 -44.5 -4.75 -45.0 L-2.6 -45.0 -2.6 -44.1 -1.6 -44.1 Q-3.5 -43.95 -7.15 -42.6 -11.55 -40.95 -12.5 -39.9 L-11.8 -38.95 -11.0 -38.5 -6.55 -40.55 Q-1.75 -42.6 4.75 -42.6 6.05 -42.6 11.35 -39.65 16.5 -36.85 17.8 -35.55 L13.95 -35.35 13.5 -34.65 Q14.35 -33.95 18.35 -33.65 L18.65 -33.65 19.15 -33.25 15.55 -31.6 Q13.3 -30.45 12.75 -29.4 L12.85 -28.8 13.75 -28.75 16.4 -29.35 20.5 -30.0 Q21.65 -30.0 22.3 -29.3 L23.8 -27.05 Q22.9 -26.25 21.55 -25.85 20.15 -25.4 18.25 -23.5 L18.3 -23.0 18.4 -22.85 19.25 -22.75 21.45 -23.2 23.65 -23.65 24.6 -23.5 25.0 -23.05 Q24.7 -22.35 22.7 -20.7 L20.25 -18.8 Q20.55 -17.95 21.15 -17.95 L25.75 -18.25 26.6 -18.1 27.0 -14.25 Q27.0 -13.25 25.55 -12.25 23.6 -10.95 22.5 -8.75 L22.65 -8.2 Q22.8 -8.0 23.5 -8.0 24.65 -8.0 26.5 -10.15 25.15 -7.1 22.3 -4.4 21.05 -3.25 18.25 -1.15 L18.45 -0.65 19.35 -0.5 Q20.4 -0.3 22.15 -1.6 L25.7 -4.85 26.25 -5.5 26.1 -4.35 25.5 -1.8 24.6 0.25 23.2 2.7 Q21.3 5.1 14.35 5.1 12.45 5.1 8.95 4.1 L8.65 3.75 Q12.05 2.3 16.1 -2.2 19.8 -6.25 19.65 -7.25 L19.55 -7.55 18.85 -7.65 16.45 -6.7 Q14.0 -5.75 12.35 -5.75 L16.05 -8.65 Q18.75 -10.7 19.1 -11.45 L12.7 -14.2 12.0 -14.65 Q13.1 -15.5 14.65 -17.05 L16.35 -18.85 16.4 -19.5 13.1 -19.85 Q10.85 -20.2 9.1 -22.65 9.7 -22.8 11.9 -24.05 L14.65 -25.75 14.2 -26.35 3.0 -26.25 1.3 -26.35 4.05 -28.95 Q6.15 -31.0 6.25 -31.6 L6.3 -31.7 5.6 -31.75 Q4.1 -31.75 0.95 -30.5 -2.65 -29.15 -5.85 -27.05 L-7.25 -27.2 Q-6.55 -30.75 -4.55 -32.15 L0.5 -34.3 Q6.45 -36.55 10.2 -36.95 12.35 -37.2 12.6 -37.65 12.3 -37.7 12.45 -37.85 L12.45 -38.15 6.25 -38.55 1.5 -38.5 Q-0.8 -38.65 -6.8 -36.7 -12.25 -34.95 -13.15 -34.2 -15.4 -32.35 -16.55 -28.85 -17.35 -26.5 -19.65 -26.5 -21.3 -26.5 -23.2 -28.5 L-24.8 -30.55 Q-24.8 -34.1 -20.75 -36.1 -18.7 -37.1 -16.15 -37.75 -17.05 -38.35 -18.55 -38.35 -23.15 -38.35 -27.25 -35.45 -31.05 -32.8 -31.05 -30.4 -31.05 -28.1 -28.7 -25.35 L-31.4 -25.4 -30.95 -25.85 -30.8 -25.95 Q-31.75 -26.7 -33.6 -29.2 -35.3 -31.6 -35.65 -32.5 L-36.05 -33.55 Q-36.55 -32.65 -36.55 -31.6 L-36.2 -27.35 M27.5 5.85 L27.7 6.2 Q27.7 7.2 26.3 8.4 L24.25 9.75 22.55 9.75 22.5 9.25 25.0 5.0 Q26.55 2.25 27.65 1.5 L27.75 1.75 27.4 3.2 27.0 4.8 27.5 5.85 M-44.4 -35.5 L-44.55 -36.05 Q-44.85 -39.6 -37.65 -42.4 -30.2 -45.35 -19.75 -45.5 L-19.3 -45.55 Q-19.15 -45.6 -19.15 -45.0 L-19.2 -44.15 -19.3 -44.1 Q-35.15 -43.6 -40.0 -39.9 -41.1 -39.05 -42.35 -37.2 -43.25 -35.8 -44.4 -35.5" fill="#d1d1d1" fill-rule="evenodd" stroke="none"/>
    <path d="M-33.45 -25.85 L-32.65 -26.5 -35.5 -27.3 -36.2 -27.35 -36.55 -31.6 Q-36.55 -32.65 -36.05 -33.55 L-35.65 -32.5 Q-35.3 -31.6 -33.6 -29.2 -31.75 -26.7 -30.8 -25.95 L-30.95 -25.85 -31.4 -25.4 Q-33.0 -25.4 -33.45 -25.85 M-40.35 -27.65 Q-41.9 -28.1 -42.9 -30.35 L-44.0 -33.25 -44.8 -31.55 Q-45.3 -29.95 -44.65 -28.1 -46.65 -28.2 -48.0 -30.25 -49.25 -32.25 -49.25 -35.05 -49.25 -40.1 -41.05 -44.1 -32.0 -48.55 -18.35 -48.55 -3.0 -48.55 9.4 -42.65 18.35 -38.4 21.7 -33.85 27.25 -26.3 27.1 -17.95 29.6 -15.2 29.6 -8.8 29.6 -0.95 28.2 3.85 L27.5 5.85 27.0 4.8 27.4 3.2 27.75 1.75 27.65 1.5 Q26.55 2.25 25.0 5.0 L22.5 9.25 22.55 9.75 24.25 9.75 26.3 8.4 Q24.85 10.85 22.75 12.75 L20.7 9.85 Q18.95 7.7 18.3 7.55 17.9 7.75 17.75 8.35 L13.15 6.25 Q9.55 4.65 8.95 4.1 12.45 5.1 14.35 5.1 21.3 5.1 23.2 2.7 L24.6 0.25 25.5 -1.8 26.1 -4.35 26.25 -5.5 25.7 -4.85 22.15 -1.6 Q20.4 -0.3 19.35 -0.5 L18.45 -0.65 18.25 -1.15 Q21.05 -3.25 22.3 -4.4 25.15 -7.1 26.5 -10.15 24.65 -8.0 23.5 -8.0 22.8 -8.0 22.65 -8.2 L22.5 -8.75 Q23.6 -10.95 25.55 -12.25 27.0 -13.25 27.0 -14.25 L26.6 -18.1 25.75 -18.25 21.15 -17.95 Q20.55 -17.95 20.25 -18.8 L22.7 -20.7 Q24.7 -22.35 25.0 -23.05 L24.6 -23.5 23.65 -23.65 21.45 -23.2 19.25 -22.75 18.4 -22.85 18.3 -23.0 18.25 -23.5 Q20.15 -25.4 21.55 -25.85 22.9 -26.25 23.8 -27.05 L22.3 -29.3 Q21.65 -30.0 20.5 -30.0 L16.4 -29.35 13.75 -28.75 12.85 -28.8 12.75 -29.4 Q13.3 -30.45 15.55 -31.6 L19.15 -33.25 18.65 -33.65 18.35 -33.65 Q14.35 -33.95 13.5 -34.65 L13.95 -35.35 17.8 -35.55 Q16.5 -36.85 11.35 -39.65 6.05 -42.6 4.75 -42.6 -1.75 -42.6 -6.55 -40.55 L-11.0 -38.5 -11.8 -38.95 -12.5 -39.9 Q-11.55 -40.95 -7.15 -42.6 -3.5 -43.95 -1.6 -44.1 L-2.6 -44.1 -2.6 -45.0 -4.75 -45.0 Q-24.05 -44.5 -32.75 -41.35 -41.0 -38.45 -41.0 -32.75 -41.0 -30.75 -39.9 -29.35 L-38.3 -27.6 -40.35 -27.65 M-44.4 -35.5 Q-43.25 -35.8 -42.35 -37.2 -41.1 -39.05 -40.0 -39.9 -35.15 -43.6 -19.3 -44.1 L-19.2 -44.15 -19.15 -45.0 Q-19.15 -45.6 -19.3 -45.55 L-19.75 -45.5 Q-30.2 -45.35 -37.65 -42.4 -44.85 -39.6 -44.55 -36.05 L-44.4 -35.5" fill="#989898" fill-rule="evenodd" stroke="none"/>
    <path d="M-33.45 -25.85 Q-43.05 -25.65 -46.2 -26.85 -50.75 -28.65 -50.75 -34.9 -50.75 -40.55 -44.4 -44.05 -37.85 -47.7 -23.0 -50.05 L-18.4 -50.25 Q-10.15 -50.25 -0.15 -47.25 11.25 -43.8 20.5 -37.6 24.4 -35.0 26.15 -29.1 27.9 -23.2 27.85 -18.55 30.9 -14.2 30.9 -9.95 30.9 -3.05 29.65 3.15 28.75 7.7 27.95 9.2 26.2 12.3 24.1 13.8 22.85 14.75 22.25 14.75 21.6 14.75 21.3 14.45 L20.9 13.85 20.75 13.25 Q20.6 12.15 19.4 10.35 18.35 8.7 17.75 8.35 17.9 7.75 18.3 7.55 18.95 7.7 20.7 9.85 L22.75 12.75 Q24.85 10.85 26.3 8.4 27.7 7.2 27.7 6.2 L27.5 5.85 28.2 3.85 Q29.6 -0.95 29.6 -8.8 29.6 -15.2 27.1 -17.95 27.25 -26.3 21.7 -33.85 18.35 -38.4 9.4 -42.65 -3.0 -48.55 -18.35 -48.55 -32.0 -48.55 -41.05 -44.1 -49.25 -40.1 -49.25 -35.05 -49.25 -32.25 -48.0 -30.25 -46.65 -28.2 -44.65 -28.1 -45.3 -29.95 -44.8 -31.55 L-44.0 -33.25 -42.9 -30.35 Q-41.9 -28.1 -40.35 -27.65 L-36.2 -27.35 -35.5 -27.3 -32.65 -26.5 -33.45 -25.85" fill="#606060" fill-rule="evenodd" stroke="none"/>
  </g>
</svg>
