<?xml version="1.0" encoding="UTF-8" standalone="no"?>
<svg xmlns:ffdec="https://www.free-decompiler.com/flash" xmlns:xlink="http://www.w3.org/1999/xlink" ffdec:objectType="shape" height="169.45px" width="108.0px" xmlns="http://www.w3.org/2000/svg">
  <g transform="matrix(1.0, 0.0, 0.0, 1.0, 32.15, 20.15)">
    <path d="M4.8 9.4 Q6.45 8.55 7.5 8.55 L8.25 8.75 8.6 9.4 Q4.9 12.15 2.2 12.95 L-7.2 14.65 Q-8.4 14.85 -14.45 17.45 L-18.45 17.45 -18.45 16.65 Q-11.1 13.4 -4.8 12.55 L0.25 11.75 Q2.65 11.15 4.8 9.4" fill="#ffffff" fill-rule="evenodd" stroke="none"/>
    <path d="M42.05 23.55 L43.4 28.25 Q44.05 30.85 44.1 33.45 L43.25 33.45 42.05 29.6 42.05 23.55 M-15.3 11.3 L-10.9 10.0 -9.8 10.2 -15.3 11.3" fill="#ebe8e0" fill-rule="evenodd" stroke="none"/>
    <path d="M-18.45 11.1 Q-12.3 9.1 -10.6 8.8 L-10.45 8.85 -10.5 9.35 -10.9 10.0 -15.3 11.3 -18.45 12.35 -18.45 11.1 M4.75 9.3 L4.8 9.4 Q2.65 11.15 0.25 11.75 L-4.8 12.55 Q-11.1 13.4 -18.45 16.65 L-18.45 15.2 Q-13.85 13.35 -7.65 11.95 3.2 9.6 4.1 8.95 L4.75 9.3 M38.2 23.45 L38.1 23.25 Q36.75 19.45 36.75 17.35 36.75 15.65 37.55 14.9 L37.75 19.55 Q37.9 21.8 38.5 21.8 38.75 21.8 39.5 23.45 L38.2 23.45 M48.8 61.3 L50.4 65.85 Q52.65 71.8 52.7 76.75 L48.8 76.75 48.8 74.45 48.85 73.9 48.8 73.95 48.8 71.95 49.0 72.05 49.0 70.65 48.8 69.55 48.8 61.3 M43.25 33.45 L42.05 33.45 42.05 29.6 43.25 33.45" fill="#97877d" fill-rule="evenodd" stroke="none"/>
    <path d="M-9.05 10.05 L-6.9 9.65 Q1.2 8.3 5.9 8.35 L6.2 8.25 4.75 9.3 4.1 8.95 Q3.2 9.6 -7.65 11.95 -13.85 13.35 -18.45 15.2 L-18.45 12.35 -15.3 11.3 -9.8 10.2 -9.55 10.2 -9.05 10.05" fill="#cbc8c0" fill-rule="evenodd" stroke="none"/>
    <path d="M32.6 -9.4 L32.75 -9.5 32.9 -10.35 Q32.9 -12.55 23.6 -12.65 18.4 -12.7 14.2 -11.35 L10.1 -9.85 Q2.45 -9.1 0.75 -7.75 L1.4 -7.0 12.75 -8.95 23.85 -10.7 32.4 -9.35 32.6 -9.4 M-18.45 7.0 Q-14.9 3.75 -11.2 -0.45 -6.0 -3.95 0.95 -4.8 L7.75 -5.25 4.85 -5.65 2.2 -5.95 -1.45 -5.7 -5.25 -5.0 -1.2 -9.6 Q0.25 -11.45 3.6 -11.85 6.95 -12.25 12.95 -14.0 18.95 -15.75 25.25 -15.7 30.35 -15.65 34.2 -13.75 37.45 -12.1 37.45 -10.75 35.6 -7.7 34.45 -7.95 35.75 -7.25 35.75 -3.05 35.75 -2.6 29.25 0.05 22.05 3.0 19.5 5.95 L19.35 5.65 19.05 5.4 Q18.4 8.15 15.4 10.05 L13.3 11.05 12.75 11.3 Q10.05 12.35 0.3 14.4 -6.65 15.85 -11.35 17.45 L-14.45 17.45 Q-8.4 14.85 -7.2 14.65 L2.2 12.95 Q4.9 12.15 8.6 9.4 L8.25 8.75 7.5 8.55 Q6.45 8.55 4.8 9.4 L4.75 9.3 6.2 8.25 5.9 8.35 Q1.2 8.3 -6.9 9.65 L-9.05 10.05 0.95 7.1 Q0.95 7.7 3.1 7.55 L6.0 7.3 Q13.45 7.35 24.65 1.95 30.25 -0.7 34.95 -3.3 32.9 -3.8 27.2 -3.4 L25.1 -3.75 Q20.4 -3.75 13.95 -0.75 7.3 2.4 -0.25 2.65 L1.5 3.2 -10.6 8.8 Q-12.3 9.1 -18.45 11.1 L-18.45 7.0 M-8.65 4.7 Q-7.05 2.55 -4.5 1.45 L-0.4 0.95 3.95 0.25 Q15.7 -5.1 18.25 -5.45 L28.15 -5.05 28.8 -5.1 29.0 -5.35 29.45 -6.0 Q28.7 -7.25 18.55 -7.35 14.25 -7.4 10.25 -5.05 5.5 -2.3 4.95 -2.2 L-4.1 -0.8 Q-10.75 1.1 -11.0 6.15 -11.15 6.4 -10.15 6.45 L-8.65 4.7 M39.75 -13.6 L42.4 -11.55 Q42.4 -11.1 42.2 -10.95 L41.25 -10.85 Q40.6 -10.9 38.1 -12.6 35.65 -14.35 35.65 -14.7 35.65 -15.35 35.9 -15.5 L36.4 -15.6 Q37.2 -15.45 39.75 -13.6 M31.95 3.2 Q34.55 0.3 36.75 -1.15 40.3 -3.7 44.1 -3.65 50.85 -3.6 53.8 -0.6 55.0 0.6 56.65 3.15 L57.8 4.95 57.75 5.05 57.3 8.2 56.65 7.2 Q50.45 -2.1 44.1 -2.15 L42.8 -1.9 41.7 -1.45 Q45.9 -1.9 51.2 3.95 53.35 6.3 54.75 8.4 L55.95 10.4 56.65 11.95 56.8 12.35 57.05 13.15 59.3 20.1 Q59.8 21.8 59.8 24.7 59.8 29.0 58.65 34.2 L57.85 37.35 Q57.1 40.0 56.65 42.35 55.9 46.15 55.9 49.2 L56.65 54.1 57.35 58.35 Q58.6 65.7 58.8 70.45 L58.85 72.25 58.6 76.75 56.8 76.75 57.25 71.2 57.2 70.45 56.65 67.05 55.95 62.95 Q54.55 55.7 54.55 50.8 54.55 47.15 55.85 34.2 L56.65 25.85 56.75 24.9 56.65 22.0 Q56.3 17.15 54.8 13.1 L54.0 11.35 53.6 10.4 52.35 8.4 Q48.1 2.3 40.3 2.2 38.6 2.2 37.0 2.85 35.15 3.55 34.55 4.8 L34.65 5.2 38.6 5.25 38.4 6.1 Q38.85 6.6 43.15 8.3 45.3 9.1 47.0 10.35 L50.0 13.05 50.1 13.2 Q54.9 19.15 54.9 27.2 54.9 29.85 54.1 34.2 L52.6 40.8 Q50.25 50.0 50.25 52.25 50.25 54.55 52.5 63.05 54.75 71.6 54.75 73.9 L54.5 76.75 52.7 76.75 Q52.65 71.8 50.4 65.85 L48.8 61.3 48.8 33.45 47.9 33.45 47.9 32.2 Q47.9 22.5 44.6 16.15 L42.6 13.0 Q40.75 10.8 38.65 10.25 L37.7 10.1 37.55 10.25 Q36.6 11.1 36.6 11.3 L37.65 12.7 37.85 12.95 39.75 15.45 40.5 18.2 41.3 21.35 42.05 23.45 39.5 23.45 Q38.75 21.8 38.5 21.8 37.9 21.8 37.75 19.55 L37.55 14.9 Q36.75 15.65 36.75 17.35 36.75 19.45 38.1 23.25 L38.2 23.45 34.5 23.45 34.35 23.1 Q32.35 17.5 32.25 12.9 L32.25 12.5 32.4 10.4 32.45 10.2 32.5 8.2 32.5 8.0 31.95 3.2 M44.8 -10.6 L45.05 -10.95 45.55 -11.15 46.15 -10.95 46.35 -10.55 46.15 -10.15 45.55 -10.0 Q45.25 -10.0 45.05 -10.15 L44.8 -10.6 M49.95 35.9 L50.25 34.2 Q50.95 29.05 50.35 25.65 L47.6 14.25 46.15 13.9 Q45.55 13.9 45.5 14.1 L45.45 14.65 49.65 25.15 Q50.5 27.4 50.5 30.0 L50.0 32.75 49.7 34.2 49.5 35.35 Q49.5 35.95 49.65 35.95 L49.95 35.9 M47.65 14.25 L51.25 25.55 52.6 30.1 52.5 32.25 52.55 32.15 53.1 27.6 Q53.1 24.7 51.55 20.25 49.95 15.4 47.65 14.25" fill="#201608" fill-rule="evenodd" stroke="none"/>
    <path d="M-5.25 -5.0 L-1.45 -5.7 2.2 -5.95 4.85 -5.65 7.75 -5.25 0.95 -4.8 Q-6.0 -3.95 -11.2 -0.45 -14.9 3.75 -18.45 7.0 L-18.45 5.95 -18.4 5.9 Q-15.45 1.1 -14.05 -0.5 -12.65 -2.15 -12.5 -3.25 -12.0 -7.4 -9.1 -10.85 -6.6 -13.85 -0.7 -16.05 4.8 -18.05 11.0 -18.65 L22.95 -19.85 30.25 -20.15 Q34.0 -20.1 38.65 -17.6 41.1 -16.4 44.1 -14.65 46.4 -13.8 48.05 -12.5 49.95 -10.95 53.4 -6.7 L54.7 -4.7 55.25 -3.45 Q55.9 -2.15 56.75 -1.15 57.55 -0.2 59.25 1.2 L61.9 3.9 Q62.9 5.2 64.55 8.5 L65.5 10.5 66.4 13.45 Q66.7 15.05 66.7 19.3 L66.45 26.8 Q66.2 30.05 64.55 36.55 62.9 43.0 62.95 51.7 L63.0 67.45 63.2 70.45 Q63.5 73.5 64.6 76.75 L62.8 76.75 Q61.95 73.75 61.7 70.45 61.55 68.95 61.55 64.55 L61.5 51.85 Q61.5 43.6 62.2 39.25 62.95 34.9 64.2 30.1 65.45 25.25 64.95 20.25 64.45 15.25 63.95 13.5 L63.0 10.25 Q62.55 8.7 61.1 6.25 59.65 3.75 57.55 1.75 55.4 -0.3 50.75 -3.8 46.1 -7.3 43.15 -7.5 L39.4 -7.4 Q38.55 -7.15 36.25 -5.95 L36.0 -6.1 35.65 -6.45 36.7 -7.0 Q37.3 -7.4 37.3 -8.05 37.3 -8.7 40.8 -8.85 L45.1 -8.85 52.3 -5.4 46.75 -11.5 Q45.75 -12.4 41.6 -13.95 40.9 -14.25 35.85 -17.05 33.4 -18.4 28.75 -18.45 18.5 -18.55 0.4 -15.2 -4.65 -13.2 -7.25 -10.9 -10.65 -7.7 -11.05 -2.95 L-11.25 -2.65 -11.9 -2.05 -5.25 -5.0 M1.5 3.2 L-0.25 2.65 Q7.3 2.4 13.95 -0.75 20.4 -3.75 25.1 -3.75 L27.2 -3.4 28.35 -2.55 28.15 -2.55 26.45 -2.75 Q24.95 -2.85 24.95 -2.25 L14.3 0.6 3.55 3.35 1.5 3.2 M-11.35 17.45 Q-6.65 15.85 0.3 14.4 10.05 12.35 12.75 11.3 L13.3 11.05 15.4 10.05 Q18.4 8.15 19.05 5.4 L19.35 5.65 19.5 5.95 Q19.3 8.2 17.55 10.05 16.0 11.65 13.3 12.85 10.8 14.05 7.4 14.95 10.4 15.5 13.3 15.05 18.9 14.25 23.9 10.1 L24.25 9.8 Q28.25 6.4 31.1 2.1 L31.6 2.2 31.95 3.2 32.5 8.0 32.5 8.2 32.45 10.2 32.4 10.4 32.25 12.5 32.25 12.9 Q32.35 17.5 34.35 23.1 L34.5 23.45 33.05 23.45 Q31.5 17.25 31.35 14.3 L31.35 12.9 31.25 10.2 31.2 8.2 31.1 3.95 30.75 4.9 Q30.05 7.5 27.85 8.85 L27.8 8.8 27.7 8.6 26.4 10.15 Q24.4 12.15 22.15 13.25 20.05 14.2 14.0 15.65 L13.3 15.75 -3.45 17.95 -5.7 18.05 -5.7 17.45 -11.35 17.45 M58.6 76.75 L58.85 72.25 58.8 70.45 Q58.6 65.7 57.35 58.35 L56.65 54.1 55.9 49.2 Q55.9 46.15 56.65 42.35 57.1 40.0 57.85 37.35 L58.65 34.2 Q59.8 29.0 59.8 24.7 59.8 21.8 59.3 20.1 L57.05 13.15 56.8 12.35 56.7 11.95 56.55 11.4 Q56.45 10.85 56.6 10.8 L56.65 10.85 Q58.0 11.75 59.0 13.15 61.3 16.8 61.3 24.25 61.3 28.45 60.1 34.2 L59.25 37.65 Q57.25 45.55 57.25 49.15 L58.75 58.3 Q59.95 65.9 60.15 70.45 L60.2 72.2 60.05 76.75 58.6 76.75" fill="#0d0903" fill-rule="evenodd" stroke="none"/>
    <path d="M-5.25 -5.0 L-11.9 -2.05 -11.25 -2.65 -11.05 -2.95 Q-10.65 -7.7 -7.25 -10.9 -4.65 -13.2 0.4 -15.2 18.5 -18.55 28.75 -18.45 33.4 -18.4 35.85 -17.05 40.9 -14.25 41.6 -13.95 45.75 -12.4 46.75 -11.5 L52.3 -5.4 45.1 -8.85 40.8 -8.85 Q37.3 -8.7 37.3 -8.05 37.3 -7.4 36.7 -7.0 L35.65 -6.45 36.0 -6.1 36.25 -5.95 Q38.55 -7.15 39.4 -7.4 L43.15 -7.5 Q46.1 -7.3 50.75 -3.8 55.4 -0.3 57.55 1.75 59.65 3.75 61.1 6.25 62.55 8.7 63.0 10.25 L63.95 13.5 Q64.45 15.25 64.95 20.25 65.45 25.25 64.2 30.1 62.95 34.9 62.2 39.25 61.5 43.6 61.5 51.85 L61.55 64.55 Q61.55 68.95 61.7 70.45 61.95 73.75 62.8 76.75 L60.05 76.75 60.2 72.2 60.15 70.45 Q59.95 65.9 58.75 58.3 L57.25 49.15 Q57.25 45.55 59.25 37.65 L60.1 34.2 Q61.3 28.45 61.3 24.25 61.3 16.8 59.0 13.15 58.0 11.75 56.65 10.85 L56.6 10.8 Q56.45 10.85 56.55 11.4 L56.7 11.95 56.8 12.35 56.65 11.95 55.95 10.4 54.75 8.4 Q53.35 6.3 51.2 3.95 45.9 -1.9 41.7 -1.45 L42.8 -1.9 44.1 -2.15 Q50.45 -2.1 56.65 7.2 L57.3 8.2 57.75 5.05 57.8 4.95 56.65 3.15 Q55.0 0.6 53.8 -0.6 50.85 -3.6 44.1 -3.65 40.3 -3.7 36.75 -1.15 34.55 0.3 31.95 3.2 L31.6 2.2 31.1 2.1 Q28.25 6.4 24.25 9.8 L23.9 10.1 Q18.9 14.25 13.3 15.05 10.4 15.5 7.4 14.95 10.8 14.05 13.3 12.85 16.0 11.65 17.55 10.05 19.3 8.2 19.5 5.95 22.05 3.0 29.25 0.05 35.75 -2.6 35.75 -3.05 35.75 -7.25 34.45 -7.95 35.6 -7.7 37.45 -10.75 37.45 -12.1 34.2 -13.75 30.35 -15.65 25.25 -15.7 18.95 -15.75 12.95 -14.0 6.95 -12.25 3.6 -11.85 0.25 -11.45 -1.2 -9.6 L-5.25 -5.0 M39.75 -13.6 Q37.2 -15.45 36.4 -15.6 L35.9 -15.5 Q35.65 -15.35 35.65 -14.7 35.65 -14.35 38.1 -12.6 40.6 -10.9 41.25 -10.85 L42.2 -10.95 Q42.4 -11.1 42.4 -11.55 L39.75 -13.6 M44.8 -10.6 L45.05 -10.15 Q45.25 -10.0 45.55 -10.0 L46.15 -10.15 46.35 -10.55 46.15 -10.95 45.55 -11.15 45.05 -10.95 44.8 -10.6 M47.65 14.25 Q49.95 15.4 51.55 20.25 53.1 24.7 53.1 27.6 L52.55 32.15 52.5 32.25 52.6 30.1 51.25 25.55 47.65 14.25" fill="#150f05" fill-rule="evenodd" stroke="none"/>
    <path d="M32.6 -9.4 L32.4 -9.35 23.85 -10.7 12.75 -8.95 1.4 -7.0 0.75 -7.75 Q2.45 -9.1 10.1 -9.85 L14.2 -11.35 Q18.4 -12.7 23.6 -12.65 32.9 -12.55 32.9 -10.35 L32.75 -9.5 32.6 -9.4 M-10.6 8.8 L1.5 3.2 3.55 3.35 14.3 0.6 24.95 -2.25 Q24.95 -2.85 26.45 -2.75 L28.15 -2.55 28.35 -2.55 27.2 -3.4 Q32.9 -3.8 34.95 -3.3 30.25 -0.7 24.65 1.95 13.45 7.35 6.0 7.3 L3.1 7.55 Q0.95 7.7 0.95 7.1 L-9.05 10.05 -9.55 10.2 -9.8 10.2 -10.9 10.0 -10.5 9.35 -10.45 8.85 -10.6 8.8 M-8.65 4.7 L-10.15 6.45 Q-11.15 6.4 -11.0 6.15 -10.75 1.1 -4.1 -0.8 L4.95 -2.2 Q5.5 -2.3 10.25 -5.05 14.25 -7.4 18.55 -7.35 28.7 -7.25 29.45 -6.0 L29.0 -5.35 28.8 -5.1 28.15 -5.05 18.25 -5.45 Q15.7 -5.1 3.95 0.25 L-0.4 0.95 -4.5 1.45 Q-7.05 2.55 -8.65 4.7 M42.05 23.45 L41.3 21.35 40.5 18.2 39.75 15.45 37.85 12.95 37.65 12.7 36.6 11.3 Q36.6 11.1 37.55 10.25 L37.7 10.1 38.65 10.25 Q40.75 10.8 42.6 13.0 L44.6 16.15 Q47.9 22.5 47.9 32.2 L47.9 33.45 44.1 33.45 Q44.05 30.85 43.4 28.25 L42.05 23.55 42.05 23.45 M54.5 76.75 L54.75 73.9 Q54.75 71.6 52.5 63.05 50.25 54.55 50.25 52.25 50.25 50.0 52.6 40.8 L54.1 34.2 Q54.9 29.85 54.9 27.2 54.9 19.15 50.1 13.2 L50.0 13.05 47.0 10.35 Q45.3 9.1 43.15 8.3 38.85 6.6 38.4 6.1 L38.6 5.25 34.65 5.2 34.55 4.8 Q35.15 3.55 37.0 2.85 38.6 2.2 40.3 2.2 48.1 2.3 52.35 8.4 L53.6 10.4 54.0 11.35 54.8 13.1 Q56.3 17.15 56.65 22.0 L56.75 24.9 56.65 25.85 55.85 34.2 Q54.55 47.15 54.55 50.8 54.55 55.7 55.95 62.95 L56.65 67.05 57.2 70.45 57.25 71.2 56.8 76.75 54.5 76.75 M49.95 35.9 L49.65 35.95 Q49.5 35.95 49.5 35.35 L49.7 34.2 50.0 32.75 50.5 30.0 Q50.5 27.4 49.65 25.15 L45.45 14.65 45.5 14.1 Q45.55 13.9 46.15 13.9 L47.6 14.25 50.35 25.65 Q50.95 29.05 50.25 34.2 L49.95 35.9" fill="#31220e" fill-rule="evenodd" stroke="none"/>
    <path d="M-9.05 10.05 L1.15 7.0 Q2.65 7.5 8.35 6.9 16.05 6.15 21.1 3.15 L22.0 3.4 20.0 5.95 Q16.15 10.0 13.9 11.0 12.0 11.85 2.9 13.9 -10.85 17.05 -16.1 19.55 -21.1 21.9 -27.45 28.2 L-28.85 31.7 -29.25 32.55 -29.35 30.65 Q-29.35 29.2 -27.3 25.3 L-24.85 20.65 -24.85 21.4 Q-25.3 21.55 -24.3 21.55 L-17.7 18.9 Q-10.75 15.85 -7.55 14.85 L0.35 13.35 Q3.55 12.85 8.95 9.25 L8.6 8.6 7.8 8.4 Q7.1 8.4 5.05 9.25 L5.0 9.15 6.5 8.1 Q-4.35 9.0 -9.05 10.05 M1.7 3.05 L-10.6 8.8 -18.6 11.2 Q-18.8 10.0 -16.15 6.25 L-12.2 1.05 -6.85 -0.3 -9.85 2.5 -11.0 6.2 -11.05 6.4 -10.35 6.45 Q-9.85 6.45 -9.75 6.15 L-9.45 5.2 Q-8.55 3.35 -3.75 1.2 L0.3 0.6 Q3.3 0.25 4.35 -0.65 L11.15 0.3 Q2.9 2.85 0.05 2.6 L1.7 3.05 M-10.9 10.0 L-9.8 10.2 -14.85 11.25 Q-11.3 10.4 -10.9 10.0 M40.85 14.2 Q40.8 14.9 42.85 21.55 44.95 28.25 44.9 29.05 L44.4 33.6 44.8 33.6 Q43.25 41.55 41.4 48.65 40.55 52.1 40.55 54.5 40.55 57.85 42.15 61.4 43.55 64.55 44.9 65.45 L44.0 65.35 42.85 65.0 Q40.4 59.7 40.4 56.15 40.4 51.75 41.75 42.55 L43.05 32.05 Q43.05 25.0 38.8 12.6 L40.85 14.2 M46.85 30.4 L47.2 27.25 Q45.3 19.2 43.95 16.5 L47.2 19.15 47.25 19.25 Q48.35 22.8 48.65 26.3 L48.75 27.8 Q48.75 30.3 47.6 37.35 46.4 44.4 46.4 46.25 46.4 47.8 48.45 52.4 51.15 58.5 52.5 63.2 53.0 64.95 52.65 72.5 L52.15 80.45 52.2 81.3 52.45 81.5 Q54.9 79.95 54.9 70.85 54.9 63.95 54.1 59.65 L52.3 52.8 Q49.75 43.2 49.7 21.5 L51.55 23.55 51.8 27.65 51.0 39.4 Q51.0 43.95 51.5 45.6 L55.1 56.85 Q56.45 61.7 56.1 70.35 55.75 79.65 55.95 80.85 L55.2 78.7 Q52.6 87.6 51.95 94.35 51.45 99.75 52.25 102.0 L52.4 103.15 Q51.4 102.15 50.25 99.05 48.9 95.45 48.9 92.55 L51.0 69.35 Q51.0 63.35 48.0 57.95 44.95 52.6 44.95 51.3 44.95 49.45 45.75 41.8 L46.85 30.4 M53.55 26.0 L55.6 28.85 56.65 33.6 56.85 34.4 Q57.35 36.5 57.35 40.75 L57.05 45.3 56.65 47.3 Q56.15 49.15 55.4 49.8 L55.25 49.65 Q55.1 49.2 54.7 40.25 54.3 30.5 53.55 26.0 M32.45 8.75 L35.5 10.6 Q35.5 12.45 36.45 15.15 L37.85 19.75 39.45 26.05 Q40.85 32.65 40.2 36.05 39.55 30.7 37.25 24.25 35.55 19.4 35.85 14.9 L35.6 15.35 35.25 16.5 Q36.05 22.2 36.75 25.55 37.1 27.15 37.1 28.95 L36.7 33.5 Q36.7 31.0 32.45 8.8 L32.45 8.75 M65.85 127.0 L65.3 130.6 65.2 131.4 64.5 129.8 Q63.9 128.5 63.9 126.2 63.9 119.7 66.1 109.55 68.25 99.45 68.25 95.1 68.25 90.1 64.1 81.95 59.95 73.8 59.95 73.5 L59.55 71.9 Q59.2 70.95 59.2 70.45 L59.15 70.25 Q59.15 69.65 59.3 69.6 L59.55 69.55 60.25 70.45 Q63.1 74.25 66.6 81.75 71.55 92.4 71.55 99.25 71.55 101.5 68.55 112.45 L65.5 123.1 Q65.5 124.1 65.85 127.0 M38.15 51.85 L38.8 58.9 38.1 54.25 38.15 51.85 M59.65 84.8 Q60.75 90.4 60.75 94.6 60.75 97.9 60.15 99.45 L59.4 101.1 Q58.5 101.1 58.5 100.1 L58.1 90.9 57.35 85.05 Q56.95 79.95 57.95 75.6 L59.65 84.8 M43.65 88.7 L45.15 95.85 Q46.0 99.3 48.3 103.5 L49.8 105.55 Q50.9 106.95 51.0 107.95 51.2 109.3 51.45 109.5 L52.9 110.25 Q53.5 111.7 54.5 118.3 54.5 119.2 52.4 126.5 50.3 133.8 50.3 137.65 L52.05 144.5 51.05 143.65 51.0 143.05 50.3 141.0 49.65 139.2 Q49.3 138.05 49.3 137.45 49.3 133.4 50.9 126.65 52.5 119.95 52.5 118.25 52.5 113.7 49.8 108.4 46.8 103.25 46.1 101.3 44.3 96.05 43.65 97.8 43.1 97.4 42.7 96.1 L42.2 94.35 43.65 88.7" fill="#201608" fill-rule="evenodd" stroke="none"/>
    <path d="M12.75 0.5 L8.2 2.1 1.7 3.05 0.05 2.6 Q2.9 2.85 11.15 0.3 L12.75 0.5 M-10.6 8.8 L-10.45 8.85 -10.55 9.4 -10.9 10.0 Q-11.3 10.4 -14.85 11.25 L-15.35 11.35 Q-22.05 14.55 -22.7 15.35 L-26.05 19.4 -24.8 18.55 Q-21.3 15.35 -9.0 12.0 1.8 9.05 5.0 9.15 L5.05 9.25 Q3.75 10.85 1.45 11.5 L-4.0 12.45 Q-13.9 14.0 -24.5 19.7 -28.35 21.75 -29.6 23.75 -30.9 25.85 -30.9 30.35 L-30.6 32.85 -30.25 34.8 Q-30.2 34.35 -29.8 34.25 -29.35 36.25 -25.45 38.35 -23.5 39.45 -21.45 40.15 L-21.9 38.4 Q-24.65 35.0 -25.0 34.25 L-26.3 29.7 -27.35 31.4 Q-27.2 30.45 -27.45 28.2 -21.1 21.9 -16.1 19.55 -10.85 17.05 2.9 13.9 12.0 11.85 13.9 11.0 16.15 10.0 20.0 5.95 20.05 8.15 17.2 10.55 14.15 13.1 9.45 14.4 L7.7 14.85 10.8 15.1 Q16.5 15.1 20.8 12.45 L28.05 6.45 29.5 7.25 Q25.1 12.3 20.9 13.8 18.2 14.8 6.6 16.6 L-3.35 17.95 Q-9.6 17.95 -17.15 21.3 -20.35 22.7 -21.15 24.3 -21.55 25.1 -21.55 27.7 L-21.5 30.3 Q-23.9 29.95 -24.35 28.4 L-24.45 26.6 -25.45 28.1 Q-24.85 32.65 -22.55 36.3 -19.7 40.85 -19.15 42.45 L-19.35 42.85 -20.0 42.95 Q-21.55 42.95 -29.7 37.8 -30.75 37.1 -31.4 35.2 -32.15 33.1 -32.15 30.2 -32.15 24.65 -29.25 21.3 L-27.25 19.05 Q-26.35 17.9 -26.35 16.6 L-26.9 15.05 Q-27.1 13.75 -25.45 12.15 -24.8 11.5 -23.3 10.55 L-21.95 9.75 Q-20.45 9.4 -19.8 8.0 L-18.75 5.45 -17.3 3.8 -15.9 2.4 -17.6 5.15 Q-19.0 7.6 -19.05 8.15 -19.2 9.35 -20.05 10.1 -20.6 10.6 -21.75 11.15 -24.9 12.7 -25.35 14.75 L-25.2 15.15 -18.6 11.2 -10.6 8.8 M44.8 33.6 L44.95 30.05 Q44.95 24.65 44.55 23.35 L43.25 18.65 Q44.45 22.6 46.15 26.75 47.0 28.85 46.85 30.4 L45.75 41.8 Q44.95 49.45 44.95 51.3 44.95 52.6 48.0 57.95 51.0 63.35 51.0 69.35 L48.9 92.55 Q48.9 95.45 50.25 99.05 51.4 102.15 52.4 103.15 L52.25 102.0 Q51.45 99.75 51.95 94.35 52.6 87.6 55.2 78.7 L55.95 80.85 Q55.75 79.65 56.1 70.35 56.45 61.7 55.1 56.85 L51.5 45.6 Q51.0 43.95 51.0 39.4 L51.8 27.65 51.55 23.55 52.4 24.6 Q52.65 28.4 52.05 39.85 52.05 42.25 54.8 51.65 56.0 55.7 56.65 59.6 57.55 64.8 57.55 69.75 L57.55 70.45 Q57.5 73.95 57.05 77.0 56.55 80.05 55.95 80.85 55.8 82.95 55.05 83.2 54.45 83.4 54.45 87.25 54.45 87.85 55.8 91.6 57.35 95.8 57.95 101.55 L58.75 110.95 61.85 101.35 Q62.2 99.55 62.2 94.7 L62.15 91.4 61.1 84.65 Q60.6 81.35 59.75 80.55 L60.05 80.45 Q61.75 81.45 63.7 88.0 65.65 94.65 65.65 99.55 L63.1 111.9 Q60.5 123.35 60.5 127.85 60.5 134.65 63.15 140.85 65.2 145.75 67.15 147.1 L66.45 145.35 Q64.45 138.9 65.3 130.6 L65.85 127.0 Q69.7 113.35 72.8 105.55 74.35 101.7 74.35 99.05 74.35 93.25 71.7 87.65 70.5 85.15 65.85 77.85 63.25 73.85 61.6 70.45 60.6 68.45 59.95 66.7 57.3 59.55 57.3 51.2 57.3 46.05 57.95 44.05 58.55 42.05 58.55 40.1 58.25 35.3 57.65 32.75 59.05 36.3 59.4 39.35 59.65 41.35 59.5 42.45 L59.25 44.65 58.7 48.1 58.3 51.35 Q58.3 59.05 63.7 70.45 L67.1 77.05 Q71.7 85.45 73.1 88.65 75.85 94.95 75.85 99.85 75.85 103.0 74.4 106.65 L71.2 113.65 Q66.5 124.15 66.5 137.5 66.5 140.35 68.05 145.8 L68.35 146.95 Q69.2 149.55 68.35 149.3 65.75 147.6 63.95 145.2 59.45 139.1 59.45 127.9 59.45 118.95 62.0 110.1 64.55 101.2 64.55 99.5 64.55 97.4 64.05 94.8 L63.4 92.0 Q63.65 99.0 62.8 103.4 61.7 108.85 58.3 115.3 57.15 113.85 56.3 104.75 55.4 95.05 53.7 91.65 L53.35 96.95 Q53.35 101.55 54.25 104.95 L55.1 107.5 54.55 108.1 53.95 108.55 54.9 112.5 Q55.8 116.35 55.8 119.2 55.8 122.1 53.75 127.4 51.65 132.7 51.4 137.75 L51.65 139.85 52.65 143.25 52.95 143.9 Q53.8 145.8 52.95 146.2 51.4 145.1 49.6 143.2 45.5 138.8 45.5 135.35 L47.4 129.0 Q49.25 122.8 49.25 120.45 49.25 116.4 44.85 108.35 40.4 100.35 40.4 98.35 40.4 94.6 42.95 86.75 45.95 77.6 47.05 66.75 45.7 67.7 44.75 67.7 42.25 67.7 40.05 64.85 37.1 61.1 37.1 54.05 37.1 50.55 38.2 42.8 L39.3 33.95 Q39.15 30.2 37.7 28.8 37.8 33.6 36.6 37.75 34.9 43.75 30.85 45.5 L30.5 45.45 30.65 45.1 Q31.0 43.1 32.8 39.1 34.3 35.8 34.3 32.0 34.3 30.95 33.7 27.75 32.7 22.4 31.35 8.2 L32.45 8.75 32.45 8.8 Q32.25 15.8 33.65 22.4 35.15 29.3 35.15 32.05 L34.5 36.9 33.5 41.0 32.95 42.35 Q36.7 36.15 36.7 33.5 L37.1 28.95 Q37.1 27.15 36.75 25.55 36.05 22.2 35.25 16.5 L35.6 15.35 35.85 14.9 Q35.55 19.4 37.25 24.25 39.55 30.7 40.2 36.05 40.35 37.4 39.4 43.8 L38.15 51.85 38.1 54.25 38.8 58.9 40.4 62.75 42.85 65.0 44.0 65.35 44.9 65.45 Q43.55 64.55 42.15 61.4 40.55 57.85 40.55 54.5 40.55 52.1 41.4 48.65 43.25 41.55 44.8 33.6 M42.2 58.9 Q43.45 63.9 46.1 64.6 L47.0 64.85 45.35 58.65 Q43.7 52.95 43.7 52.2 L44.0 41.5 Q41.4 47.35 41.4 51.55 41.4 55.55 42.2 58.9 M52.9 110.25 L52.15 108.45 51.9 107.1 51.95 106.45 51.25 106.5 Q51.15 106.5 50.2 103.5 L48.55 98.15 47.8 94.6 Q47.45 92.6 47.45 91.85 L49.25 72.3 43.65 88.7 42.2 94.35 41.75 97.65 Q45.8 107.45 49.1 112.8 50.4 114.9 50.4 118.2 50.4 123.1 48.6 129.5 L46.75 135.0 Q46.15 136.45 47.2 138.55 48.25 140.65 51.0 143.65 L51.05 143.65 52.05 144.5 50.3 137.65 Q50.3 133.8 52.4 126.5 54.5 119.2 54.5 118.3 53.5 111.7 52.9 110.25" fill="#0d0903" fill-rule="evenodd" stroke="none"/>
    <path d="M-9.8 10.2 L-9.05 10.05 Q-4.35 9.0 6.5 8.1 L5.0 9.15 Q1.8 9.05 -9.0 12.0 -21.3 15.35 -24.8 18.55 L-26.05 19.4 -22.7 15.35 Q-22.05 14.55 -15.35 11.35 L-14.85 11.25 -9.8 10.2 M-12.2 1.05 L-16.15 6.25 Q-18.8 10.0 -18.6 11.2 L-25.2 15.15 -25.35 14.75 Q-24.9 12.7 -21.75 11.15 -20.6 10.6 -20.05 10.1 -19.2 9.35 -19.05 8.15 -19.0 7.6 -17.6 5.15 L-15.9 2.4 -15.8 2.35 -12.2 1.05 M28.05 6.45 L20.8 12.45 Q16.5 15.1 10.8 15.1 L7.7 14.85 9.45 14.4 Q14.15 13.1 17.2 10.55 20.05 8.15 20.0 5.95 L22.0 3.4 28.05 6.45 M-27.45 28.2 Q-27.2 30.45 -27.35 31.4 L-26.3 29.7 -25.0 34.25 Q-24.65 35.0 -21.9 38.4 L-21.45 40.15 Q-23.5 39.45 -25.45 38.35 -29.35 36.25 -29.8 34.25 -30.2 34.35 -30.25 34.8 L-30.6 32.85 -30.9 30.35 Q-30.9 25.85 -29.6 23.75 -28.35 21.75 -24.5 19.7 L-24.85 20.65 -27.3 25.3 Q-29.35 29.2 -29.35 30.65 L-29.25 32.55 -28.85 31.7 -27.45 28.2 M44.8 33.6 L44.4 33.6 44.9 29.05 Q44.95 28.25 42.85 21.55 40.8 14.9 40.85 14.2 L43.95 16.5 Q45.3 19.2 47.2 27.25 L46.85 30.4 Q47.0 28.85 46.15 26.75 44.45 22.6 43.25 18.65 L44.55 23.35 Q44.95 24.65 44.95 30.05 L44.8 33.6 M55.95 80.85 Q56.55 80.05 57.05 77.0 57.5 73.95 57.55 70.45 L57.55 69.75 Q57.55 64.8 56.65 59.6 56.0 55.7 54.8 51.65 52.05 42.25 52.05 39.85 52.65 28.4 52.4 24.6 L53.55 26.0 Q54.3 30.5 54.7 40.25 55.1 49.2 55.25 49.65 L55.4 49.8 Q56.15 49.15 56.65 47.3 L57.05 45.3 57.35 40.75 Q57.35 36.5 56.85 34.4 L56.65 33.6 55.6 28.85 56.55 30.3 56.65 30.55 57.65 32.75 Q58.25 35.3 58.55 40.1 58.55 42.05 57.95 44.05 57.3 46.05 57.3 51.2 57.3 59.55 59.95 66.7 60.6 68.45 61.6 70.45 63.25 73.85 65.85 77.85 70.5 85.15 71.7 87.65 74.35 93.25 74.35 99.05 74.35 101.7 72.8 105.55 69.7 113.35 65.85 127.0 65.5 124.1 65.5 123.1 L68.55 112.45 Q71.55 101.5 71.55 99.25 71.55 92.4 66.6 81.75 63.1 74.25 60.25 70.45 L59.55 69.55 59.3 69.6 Q59.15 69.65 59.15 70.25 L59.2 70.45 Q59.2 70.95 59.55 71.9 L59.95 73.5 Q59.95 73.8 64.1 81.95 68.25 90.1 68.25 95.1 68.25 99.45 66.1 109.55 63.9 119.7 63.9 126.2 63.9 128.5 64.5 129.8 L65.2 131.4 65.3 130.6 Q64.45 138.9 66.45 145.35 L67.15 147.1 Q65.2 145.75 63.15 140.85 60.5 134.65 60.5 127.85 60.5 123.35 63.1 111.9 L65.65 99.55 Q65.65 94.65 63.7 88.0 61.75 81.45 60.05 80.45 L59.75 80.55 Q60.6 81.35 61.1 84.65 L62.15 91.4 62.2 94.7 Q62.2 99.55 61.85 101.35 L58.75 110.95 57.95 101.55 Q57.35 95.8 55.8 91.6 54.45 87.85 54.45 87.25 54.45 83.4 55.05 83.2 55.8 82.95 55.95 80.85 M59.65 84.8 L57.95 75.6 Q56.95 79.95 57.35 85.05 L58.1 90.9 58.5 100.1 Q58.5 101.1 59.4 101.1 L60.15 99.45 Q60.75 97.9 60.75 94.6 60.75 90.4 59.65 84.8 M43.65 88.7 L49.25 72.3 47.45 91.85 Q47.45 92.6 47.8 94.6 L48.55 98.15 50.2 103.5 Q51.15 106.5 51.25 106.5 L51.95 106.45 51.9 107.1 52.15 108.45 52.9 110.25 51.45 109.5 Q51.2 109.3 51.0 107.95 50.9 106.95 49.8 105.55 L48.3 103.5 Q46.0 99.3 45.15 95.85 L43.65 88.7" fill="#150f05" fill-rule="evenodd" stroke="none"/>
    <path d="M-9.05 10.05 L-9.8 10.2 -10.9 10.0 -10.55 9.4 -10.45 8.85 -10.6 8.8 1.7 3.05 8.2 2.1 12.75 0.5 16.7 1.7 21.1 3.15 Q16.05 6.15 8.35 6.9 2.65 7.5 1.15 7.0 L-9.05 10.05 M4.35 -0.65 Q3.3 0.25 0.3 0.6 L-3.75 1.2 Q-8.55 3.35 -9.45 5.2 L-9.75 6.15 Q-9.85 6.45 -10.35 6.45 L-11.05 6.4 -11.0 6.2 -9.85 2.5 -6.85 -0.3 4.35 -0.65 M-24.5 19.7 Q-13.9 14.0 -4.0 12.45 L1.45 11.5 Q3.75 10.85 5.05 9.25 7.1 8.4 7.8 8.4 L8.6 8.6 8.95 9.25 Q3.55 12.85 0.35 13.35 L-7.55 14.85 Q-10.75 15.85 -17.7 18.9 L-24.3 21.55 Q-25.3 21.55 -24.85 21.4 L-24.85 20.65 -24.5 19.7 M38.8 12.6 Q43.05 25.0 43.05 32.05 L41.75 42.55 Q40.4 51.75 40.4 56.15 40.4 59.7 42.85 65.0 L40.4 62.75 38.8 58.9 38.15 51.85 39.4 43.8 Q40.35 37.4 40.2 36.05 40.85 32.65 39.45 26.05 L37.85 19.75 36.45 15.15 Q35.5 12.45 35.5 10.6 L38.8 12.6 M49.7 21.5 Q49.75 43.2 52.3 52.8 L54.1 59.65 Q54.9 63.95 54.9 70.85 54.9 79.95 52.45 81.5 L52.2 81.3 52.15 80.45 52.65 72.5 Q53.0 64.95 52.5 63.2 51.15 58.5 48.45 52.4 46.4 47.8 46.4 46.25 46.4 44.4 47.6 37.35 48.75 30.3 48.75 27.8 L48.65 26.3 Q48.35 22.8 47.25 19.25 L47.2 19.15 49.7 21.5 M32.45 8.8 Q36.7 31.0 36.7 33.5 36.7 36.15 32.95 42.35 L33.5 41.0 34.5 36.9 35.15 32.05 Q35.15 29.3 33.65 22.4 32.25 15.8 32.45 8.8 M51.05 143.65 L51.0 143.65 Q48.25 140.65 47.2 138.55 46.15 136.45 46.75 135.0 L48.6 129.5 Q50.4 123.1 50.4 118.2 50.4 114.9 49.1 112.8 45.8 107.45 41.75 97.65 L42.2 94.35 42.7 96.1 Q43.1 97.4 43.65 97.8 44.3 96.05 46.1 101.3 46.8 103.25 49.8 108.4 52.5 113.7 52.5 118.25 52.5 119.95 50.9 126.65 49.3 133.4 49.3 137.45 49.3 138.05 49.65 139.2 L50.3 141.0 51.0 143.05 51.05 143.65" fill="#31220e" fill-rule="evenodd" stroke="none"/>
  </g>
</svg>
