<?xml version="1.0" encoding="UTF-8" standalone="no"?>
<svg xmlns:ffdec="https://www.free-decompiler.com/flash" xmlns:xlink="http://www.w3.org/1999/xlink" ffdec:objectType="shape" height="90.5px" width="90.6px" xmlns="http://www.w3.org/2000/svg">
  <g transform="matrix(1.0, 0.0, 0.0, 1.0, 2.45, 90.9)">
    <path d="M84.5 -89.75 Q85.35 -89.55 86.05 -88.85 L86.1 -88.8 5.05 -7.75 4.95 -7.85 3.55 -8.8 84.5 -89.75" fill="#82441c" fill-rule="evenodd" stroke="none"/>
    <path d="M3.55 -8.8 L1.9 -9.1 1.2 -9.05 80.4 -88.25 80.5 -88.3 80.9 -88.85 Q81.9 -89.85 83.4 -89.9 L83.5 -89.9 84.5 -89.75 3.55 -8.8 M86.1 -88.8 Q86.75 -88.15 87.0 -87.3 L5.95 -6.25 5.05 -7.75 86.1 -88.8" fill="#6f3814" fill-rule="evenodd" stroke="none"/>
    <path d="M87.0 -87.3 L87.15 -86.25 Q87.15 -84.75 86.05 -83.65 L85.7 -83.35 85.65 -83.3 6.1 -3.75 6.2 -4.75 5.95 -6.25 87.0 -87.3" fill="#5f2d0d" fill-rule="evenodd" stroke="none"/>
    <path d="M86.75 -82.95 L86.3 -82.55 4.95 -1.2 4.6 -1.05 4.3 -1.15 Q3.25 -0.4 1.9 -0.4 0.1 -0.4 -1.2 -1.7 -2.45 -2.95 -2.45 -4.75 -2.45 -6.15 -1.7 -7.15 L-1.75 -7.3 -1.6 -7.65 79.65 -88.85 80.2 -89.55 Q81.55 -90.9 83.5 -90.9 L84.35 -90.8 85.25 -90.55 86.75 -89.55 86.8 -89.5 87.8 -88.1 88.1 -87.15 88.15 -86.25 Q88.15 -84.35 86.75 -82.95 M84.5 -89.75 L83.5 -89.9 83.4 -89.9 Q81.9 -89.85 80.9 -88.85 L80.5 -88.3 80.4 -88.25 1.2 -9.05 1.9 -9.1 3.55 -8.8 4.95 -7.85 5.05 -7.75 5.95 -6.25 6.2 -4.75 6.1 -3.75 85.65 -83.3 85.7 -83.35 86.05 -83.65 Q87.15 -84.75 87.15 -86.25 L87.0 -87.3 Q86.75 -88.15 86.1 -88.8 L86.05 -88.85 Q85.35 -89.55 84.5 -89.75 M1.55 -5.35 L2.05 -5.45 Q2.35 -5.4 2.5 -5.15 L2.6 -4.75 2.5 -4.3 1.95 -3.95 1.85 -3.95 1.4 -4.0 0.75 -4.65 0.65 -5.05 Q0.6 -5.6 0.9 -5.85 L0.95 -5.9 Q1.3 -6.2 1.95 -6.2 L2.0 -6.2 Q2.7 -6.1 3.0 -5.7 L3.25 -4.75 3.0 -3.8 2.15 -3.25 1.85 -3.2 Q1.05 -3.15 0.45 -3.7 -0.2 -4.2 -0.15 -5.05 L-0.1 -5.45 Q0.0 -6.0 0.4 -6.35 L0.4 -6.4 1.7 -6.95 1.85 -6.95 Q2.7 -6.95 3.3 -6.35 L3.45 -6.15 4.0 -4.95 4.0 -4.25 3.5 -3.3 3.45 -3.25 2.7 -2.7 1.95 -2.55 Q0.85 -2.5 0.05 -3.15 -0.8 -3.85 -0.9 -4.95 L-0.7 -6.05 -0.05 -6.8 -0.05 -6.85 Q0.8 -7.65 1.95 -7.6 L2.3 -7.55 Q3.25 -7.45 3.9 -6.75 L4.0 -6.65 Q4.6 -5.95 4.75 -5.0 L4.75 -4.75 Q4.75 -3.65 4.05 -2.8 L4.0 -2.75 3.25 -2.15 1.9 -1.9 Q0.6 -1.9 -0.5 -2.75 -1.6 -3.55 -1.6 -4.95 -1.65 -5.85 -1.2 -6.55 L-0.65 -7.35 0.1 -7.9 Q0.85 -8.35 1.85 -8.35 L2.95 -8.2 4.4 -7.3 4.5 -7.2 5.35 -5.65 5.45 -4.75 Q5.5 -3.35 4.6 -2.25 L4.5 -2.2 3.8 -1.6 Q2.95 -1.1 1.8 -1.15 0.1 -1.2 -1.05 -2.25 L-1.55 -2.75 -0.95 -1.95 Q0.25 -0.8 1.9 -0.8 3.1 -0.8 4.05 -1.4 L4.7 -1.95 5.55 -3.2 5.85 -4.75 5.7 -5.95 4.8 -7.5 4.7 -7.6 Q4.05 -8.25 3.25 -8.5 L1.9 -8.75 0.75 -8.55 Q0.05 -8.4 -0.5 -7.95 L-0.95 -7.6 -1.05 -7.45 -1.3 -7.15 -1.4 -7.0 -1.5 -6.85 Q-1.95 -6.05 -1.95 -5.05 -1.95 -3.5 -0.85 -2.5 0.25 -1.55 1.85 -1.5 L3.55 -1.85 4.25 -2.45 4.35 -2.5 Q5.1 -3.5 5.1 -4.75 L5.05 -5.35 Q4.9 -6.25 4.25 -6.95 L4.15 -7.05 Q3.5 -7.7 2.65 -7.9 L1.85 -8.0 Q0.45 -8.0 -0.35 -7.1 L-0.4 -7.1 -0.95 -6.3 -1.25 -4.95 Q-1.2 -3.75 -0.25 -3.0 0.7 -2.25 1.9 -2.25 L3.0 -2.45 3.75 -2.95 3.8 -3.0 Q4.35 -3.75 4.35 -4.65 L4.35 -4.75 Q4.35 -5.75 3.75 -6.4 L3.65 -6.5 Q2.95 -7.25 2.0 -7.25 L1.95 -7.25 Q0.95 -7.3 0.2 -6.6 L0.2 -6.55 -0.4 -5.75 -0.5 -4.95 Q-0.45 -4.0 0.25 -3.4 0.95 -2.85 1.9 -2.9 L2.45 -3.0 3.2 -3.5 3.25 -3.55 3.3 -3.55 Q3.75 -4.05 3.6 -4.9 L3.25 -5.9 3.05 -6.1 Q2.55 -6.6 1.85 -6.6 L1.25 -6.5 Q0.9 -6.4 0.65 -6.15 L0.65 -6.1 Q0.25 -5.75 0.2 -5.15 L0.2 -5.05 Q0.2 -4.35 0.65 -3.95 1.15 -3.55 1.8 -3.55 L1.85 -3.55 2.75 -4.05 2.9 -4.7 2.7 -5.4 1.95 -5.85 1.2 -5.65 1.2 -5.6 1.0 -5.1 Q1.05 -4.4 1.85 -4.3 L2.2 -4.6 2.2 -4.75 2.2 -4.85 1.95 -5.1 1.8 -5.05 1.8 -5.0 1.7 -4.85 1.65 -4.75 1.5 -4.7 1.4 -4.75 1.35 -4.9 1.5 -5.3 1.55 -5.35" fill="#432008" fill-rule="evenodd" stroke="none"/>
    <path d="M1.55 -5.35 L1.5 -5.3 1.35 -4.9 1.4 -4.75 1.5 -4.7 1.65 -4.75 1.7 -4.85 1.8 -5.0 1.8 -5.05 1.95 -5.1 2.2 -4.85 2.2 -4.75 2.2 -4.6 1.85 -4.3 Q1.05 -4.4 1.0 -5.1 L1.2 -5.6 1.2 -5.65 1.95 -5.85 2.7 -5.4 2.9 -4.7 2.75 -4.05 1.85 -3.55 1.8 -3.55 Q1.15 -3.55 0.65 -3.95 0.2 -4.35 0.2 -5.05 L0.2 -5.15 Q0.25 -5.75 0.65 -6.1 L0.65 -6.15 Q0.9 -6.4 1.25 -6.5 L1.85 -6.6 Q2.55 -6.6 3.05 -6.1 L3.25 -5.9 3.6 -4.9 Q3.75 -4.05 3.3 -3.55 L3.25 -3.55 3.2 -3.5 2.45 -3.0 1.9 -2.9 Q0.95 -2.85 0.25 -3.4 -0.45 -4.0 -0.5 -4.95 L-0.4 -5.75 0.2 -6.55 0.2 -6.6 Q0.95 -7.3 1.95 -7.25 L2.0 -7.25 Q2.95 -7.25 3.65 -6.5 L3.75 -6.4 Q4.35 -5.75 4.35 -4.75 L4.35 -4.65 Q4.35 -3.75 3.8 -3.0 L3.75 -2.95 3.0 -2.45 1.9 -2.25 Q0.7 -2.25 -0.25 -3.0 -1.2 -3.75 -1.25 -4.95 L-0.95 -6.3 -0.4 -7.1 -0.35 -7.1 Q0.45 -8.0 1.85 -8.0 L2.65 -7.9 Q3.5 -7.7 4.15 -7.05 L4.25 -6.95 Q4.9 -6.25 5.05 -5.35 L5.1 -4.75 Q5.1 -3.5 4.35 -2.5 L4.25 -2.45 3.55 -1.85 1.85 -1.5 Q0.25 -1.55 -0.85 -2.5 -1.95 -3.5 -1.95 -5.05 -1.95 -6.05 -1.5 -6.85 L-1.4 -7.0 -1.3 -7.15 -1.05 -7.45 -0.95 -7.6 -0.5 -7.95 Q0.05 -8.4 0.75 -8.55 L1.9 -8.75 3.25 -8.5 Q4.05 -8.25 4.7 -7.6 L4.8 -7.5 5.7 -5.95 5.85 -4.75 5.55 -3.2 4.7 -1.95 4.05 -1.4 Q3.1 -0.8 1.9 -0.8 0.25 -0.8 -0.95 -1.95 L-1.55 -2.75 -1.05 -2.25 Q0.1 -1.2 1.8 -1.15 2.95 -1.1 3.8 -1.6 L4.5 -2.2 4.6 -2.25 Q5.5 -3.35 5.45 -4.75 L5.35 -5.65 4.5 -7.2 4.4 -7.3 2.95 -8.2 1.85 -8.35 Q0.85 -8.35 0.1 -7.9 L-0.65 -7.35 -1.2 -6.55 Q-1.65 -5.85 -1.6 -4.95 -1.6 -3.55 -0.5 -2.75 0.6 -1.9 1.9 -1.9 L3.25 -2.15 4.0 -2.75 4.05 -2.8 Q4.75 -3.65 4.75 -4.75 L4.75 -5.0 Q4.6 -5.95 4.0 -6.65 L3.9 -6.75 Q3.25 -7.45 2.3 -7.55 L1.95 -7.6 Q0.8 -7.65 -0.05 -6.85 L-0.05 -6.8 -0.7 -6.05 -0.9 -4.95 Q-0.8 -3.85 0.05 -3.15 0.85 -2.5 1.95 -2.55 L2.7 -2.7 3.45 -3.25 3.5 -3.3 4.0 -4.25 4.0 -4.95 3.45 -6.15 3.3 -6.35 Q2.7 -6.95 1.85 -6.95 L1.7 -6.95 0.4 -6.4 0.4 -6.35 Q0.0 -6.0 -0.1 -5.45 L-0.15 -5.05 Q-0.2 -4.2 0.45 -3.7 1.05 -3.15 1.85 -3.2 L2.15 -3.25 3.0 -3.8 3.25 -4.75 3.0 -5.7 Q2.7 -6.1 2.0 -6.2 L1.95 -6.2 Q1.3 -6.2 0.95 -5.9 L0.9 -5.85 Q0.6 -5.6 0.65 -5.05 L0.75 -4.65 1.4 -4.0 1.85 -3.95 1.95 -3.95 2.5 -4.3 2.6 -4.75 2.5 -5.15 Q2.35 -5.4 2.05 -5.45 L1.55 -5.35" fill="#291305" fill-rule="evenodd" stroke="none"/>
  </g>
</svg>
