<?xml version="1.0" encoding="UTF-8" standalone="no"?>
<svg xmlns:ffdec="https://www.free-decompiler.com/flash" xmlns:xlink="http://www.w3.org/1999/xlink" ffdec:objectType="shape" height="91.55px" width="91.6px" xmlns="http://www.w3.org/2000/svg">
  <g transform="matrix(1.0, 0.0, 0.0, 1.0, 35.75, 80.05)">
    <path d="M-30.3 -12.15 Q-32.15 -15.4 -33.25 -18.8 -34.7 -23.05 -35.3 -27.4 -35.8 -30.8 -35.75 -34.35 L-35.1 -41.55 Q-34.6 -45.0 -33.55 -48.35 -32.55 -51.6 -31.05 -54.65 L-27.6 -60.7 -24.7 -64.45 Q-21.35 -68.25 -17.4 -71.2 -14.05 -73.75 -10.25 -75.4 -6.5 -77.1 -2.55 -78.2 1.45 -79.3 5.65 -79.6 L12.35 -80.05 Q16.9 -79.95 21.3 -78.85 25.6 -77.75 29.6 -75.9 33.7 -73.95 37.15 -71.3 40.85 -68.45 43.95 -65.0 47.0 -61.75 49.35 -57.7 L52.4 -51.9 Q54.3 -47.75 55.05 -43.5 L55.15 -43.0 54.3 -43.05 53.0 -43.0 53.1 -42.35 Q49.95 -56.65 39.2 -66.85 27.3 -78.05 12.3 -78.05 -3.05 -78.05 -18.3 -68.0 -23.6 -62.75 -26.35 -59.15 -30.55 -50.6 -31.75 -47.15 -33.55 -42.05 -33.55 -32.05 -33.55 -28.65 -32.9 -25.3 L-32.9 -25.2 -32.75 -24.5 -32.2 -22.3 -32.05 -21.9 -31.25 -19.35 -30.6 -17.55 -28.2 -12.35 -28.05 -12.1 -29.0 -12.45 -30.6 -12.7 -30.3 -12.15" fill="#a46637" fill-rule="evenodd" stroke="none"/>
    <path d="M-28.2 -12.35 L-30.6 -17.55 -30.35 -16.95 -31.55 -21.8 -32.2 -27.05 Q-32.2 -28.55 -31.3 -30.35 -30.1 -32.65 -28.3 -33.05 L-25.8 -33.05 -24.9 -32.85 -23.45 -32.7 -23.35 -32.6 -21.35 -32.45 -18.85 -31.85 -17.25 -31.7 Q-16.7 -31.25 -15.9 -31.15 L-13.05 -31.05 -11.7 -31.2 -10.2 -31.4 -8.95 -31.1 -5.8 -30.8 Q-3.7 -30.8 -3.25 -31.3 L0.0 -31.3 2.7 -31.55 2.7 -31.65 5.2 -31.8 8.0 -31.95 9.5 -32.2 10.85 -32.5 12.55 -32.8 15.75 -32.9 Q18.35 -32.0 19.2 -29.85 19.8 -27.4 20.35 -26.35 L21.7 -22.8 Q21.9 -21.85 22.85 -20.95 23.8 -20.0 25.05 -19.55 L28.05 -19.55 Q31.35 -22.05 33.65 -25.75 L37.0 -31.8 Q38.1 -33.7 41.35 -38.0 L43.65 -41.1 46.05 -41.7 45.95 -42.3 46.2 -40.15 46.05 -40.1 Q42.1 -37.55 39.4 -29.9 36.4 -21.35 35.9 -20.75 L35.85 -20.7 35.6 -20.4 Q31.1 -15.2 26.45 -13.15 23.6 -11.85 20.2 -11.65 L19.05 -11.65 19.0 -11.65 19.0 -13.65 Q18.55 -15.2 18.2 -17.4 L17.65 -21.15 17.1 -24.95 Q16.7 -27.2 16.1 -28.5 L13.7 -28.45 12.65 -28.35 12.55 -28.25 8.5 -27.3 3.6 -26.5 -3.2 -26.5 -4.2 -26.35 -4.3 -26.25 -6.25 -26.15 -14.4 -26.15 -16.75 -26.65 -19.5 -26.55 -21.25 -26.35 Q-21.25 -22.65 -19.45 -16.15 L-18.05 -10.6 -18.2 -10.55 -19.65 -10.45 -19.8 -10.45 -20.0 -10.45 Q-24.65 -10.45 -28.2 -12.35" fill="#f4bb83" fill-rule="evenodd" stroke="none"/>
    <path d="M-18.05 -10.6 L-19.45 -16.15 Q-21.25 -22.65 -21.25 -26.35 L-19.5 -26.55 -16.75 -26.65 -14.4 -26.15 -6.25 -26.15 -4.3 -26.25 -4.2 -26.35 -3.2 -26.5 3.6 -26.5 8.5 -27.3 12.55 -28.25 12.65 -28.35 13.7 -28.45 16.1 -28.5 Q16.7 -27.2 17.1 -24.95 L17.65 -21.15 18.2 -17.4 Q18.55 -15.2 19.0 -13.65 L19.0 -11.65 Q16.3 -11.65 8.65 -13.45 1.05 -15.25 -1.55 -15.25 -8.5 -15.25 -12.3 -12.85 -15.15 -11.05 -18.05 -10.6" fill="#f5c89d" fill-rule="evenodd" stroke="none"/>
    <path d="M-30.6 -17.55 L-31.25 -19.35 -32.05 -21.9 -32.2 -22.3 -32.75 -24.5 -32.9 -25.2 -32.9 -25.3 Q-33.55 -28.65 -33.55 -32.05 -33.55 -42.05 -31.75 -47.15 -30.55 -50.6 -26.35 -59.15 -23.6 -62.75 -18.3 -68.0 -3.05 -78.05 12.3 -78.05 27.3 -78.05 39.2 -66.85 49.95 -56.65 53.1 -42.35 L53.4 -40.95 49.25 -41.15 Q47.3 -40.75 46.2 -40.15 L45.95 -42.3 46.05 -41.7 43.65 -41.1 41.35 -38.0 Q38.1 -33.7 37.0 -31.8 L33.65 -25.75 Q31.35 -22.05 28.05 -19.55 L25.05 -19.55 Q23.8 -20.0 22.85 -20.95 21.9 -21.85 21.7 -22.8 L20.35 -26.35 Q19.8 -27.4 19.2 -29.85 18.35 -32.0 15.75 -32.9 L12.55 -32.8 10.85 -32.5 9.5 -32.2 8.0 -31.95 5.2 -31.8 2.7 -31.65 2.7 -31.55 0.0 -31.3 -3.25 -31.3 Q-3.7 -30.8 -5.8 -30.8 L-8.95 -31.1 -10.2 -31.4 -11.7 -31.2 -13.05 -31.05 -15.9 -31.15 Q-16.7 -31.25 -17.25 -31.7 L-18.85 -31.85 -21.35 -32.45 -23.35 -32.6 -23.45 -32.7 -24.9 -32.85 -25.8 -33.05 -28.3 -33.05 Q-30.1 -32.65 -31.3 -30.35 -32.2 -28.55 -32.2 -27.05 L-31.55 -21.8 -30.35 -16.95 -30.6 -17.55" fill="#e7a867" fill-rule="evenodd" stroke="none"/>
    <path d="M19.2 -9.95 L19.4 -6.5 19.6 -2.85 19.45 0.5 18.7 0.95 Q15.7 2.85 12.05 4.1 L8.35 4.7 5.55 4.7 5.3 4.65 2.45 4.6 Q-2.35 3.5 -6.15 1.8 -10.55 -0.15 -12.65 -2.5 L-14.8 -4.85 -16.55 -7.1 -17.4 -8.6 -11.9 -9.95 Q-3.35 -12.45 0.1 -12.45 L10.2 -11.2 19.2 -9.95" fill="#c99c6f" fill-rule="evenodd" stroke="none"/>
    <path d="M19.0 -11.65 L19.05 -11.65 19.25 -10.55 19.4 -9.95 19.55 -9.95 19.2 -9.95 10.2 -11.2 0.1 -12.45 Q-3.35 -12.45 -11.9 -9.95 L-17.4 -8.6 -17.5 -8.95 -18.05 -10.3 -18.2 -10.55 -18.05 -10.6 Q-15.15 -11.05 -12.3 -12.85 -8.5 -15.25 -1.55 -15.25 1.05 -15.25 8.65 -13.45 16.3 -11.65 19.0 -11.65 M35.6 -20.4 L35.85 -20.7 35.9 -20.75 35.6 -20.05 35.6 -20.4" fill="#dfb286" fill-rule="evenodd" stroke="none"/>
    <path d="M19.55 -9.95 L19.95 -9.95 Q23.15 -9.95 27.6 -11.7 31.65 -13.35 33.5 -15.05 37.3 -17.6 39.95 -24.85 42.6 -32.15 46.7 -35.0 L46.7 -34.8 Q47.7 -27.75 45.0 -19.8 42.3 -12.0 36.7 -5.4 23.95 9.75 6.7 9.3 L0.0 8.6 Q-4.6 7.7 -7.15 6.2 -11.0 5.2 -17.4 -0.15 -21.95 -3.95 -24.0 -6.35 L-24.65 -7.15 -25.15 -7.9 -25.25 -8.05 -19.2 -8.35 -19.05 -8.35 -18.5 -8.45 -17.7 -8.55 -17.4 -8.6 -16.55 -7.1 -14.8 -4.85 -12.65 -2.5 Q-10.55 -0.15 -6.15 1.8 -2.35 3.5 2.45 4.6 L5.3 4.65 5.55 4.7 8.35 4.7 12.05 4.1 Q15.7 2.85 18.7 0.95 L19.45 0.5 19.6 -2.85 19.4 -6.5 19.2 -9.95 19.55 -9.95" fill="#b38559" fill-rule="evenodd" stroke="none"/>
    <path d="M-28.05 -12.1 L-28.2 -12.35 Q-24.65 -10.45 -20.0 -10.45 L-19.8 -10.45 -19.65 -10.45 -18.2 -10.55 -18.05 -10.3 -17.5 -8.95 -17.4 -8.6 -17.7 -8.55 -18.5 -8.45 -19.05 -8.35 -19.2 -8.35 -25.25 -8.05 -28.05 -12.1 M19.05 -11.65 L20.2 -11.65 Q23.6 -11.85 26.45 -13.15 31.1 -15.2 35.6 -20.4 L35.6 -20.05 35.9 -20.75 Q36.4 -21.35 39.4 -29.9 42.1 -37.55 46.05 -40.1 L46.2 -40.1 46.7 -35.0 Q42.6 -32.15 39.95 -24.85 37.3 -17.6 33.5 -15.05 31.65 -13.35 27.6 -11.7 23.15 -9.95 19.95 -9.95 L19.55 -9.95 19.4 -9.95 19.25 -10.55 19.05 -11.65" fill="#d3a06e" fill-rule="evenodd" stroke="none"/>
    <path d="M55.15 -43.0 L55.55 -40.05 55.55 -39.8 55.6 -39.5 55.85 -34.35 Q55.8 -29.7 55.05 -25.2 54.3 -20.85 52.45 -16.75 L50.5 -12.8 Q48.45 -8.75 45.55 -5.35 42.5 -1.75 38.95 1.25 35.4 4.2 31.55 6.3 27.7 8.35 23.45 9.65 19.15 10.85 14.65 11.3 L7.3 11.45 Q2.45 11.3 -1.95 9.9 L-7.65 8.05 -11.05 6.4 -16.95 2.75 Q-20.85 0.05 -24.1 -3.55 L-26.45 -6.35 -27.45 -7.75 -27.9 -8.4 -25.15 -7.9 -24.65 -7.15 -24.0 -6.35 Q-21.95 -3.95 -17.4 -0.15 -11.0 5.2 -7.15 6.2 -4.6 7.7 0.0 8.6 L6.7 9.3 Q15.5 11.1 27.05 5.8 38.6 0.5 44.05 -6.6 49.5 -13.7 51.7 -19.85 53.9 -26.0 53.8 -36.3 L53.4 -40.95 53.1 -42.35 53.0 -43.0 54.3 -43.05 55.15 -43.0" fill="#80542f" fill-rule="evenodd" stroke="none"/>
    <path d="M46.2 -40.15 Q47.3 -40.75 49.25 -41.15 L53.4 -40.95 53.8 -36.3 46.7 -34.8 46.7 -35.0 46.2 -40.1 46.2 -40.15" fill="#c28b55" fill-rule="evenodd" stroke="none"/>
    <path d="M46.05 -40.1 L46.2 -40.15 46.2 -40.1 46.05 -40.1" fill="#cb9361" fill-rule="evenodd" stroke="none"/>
    <path d="M6.7 9.3 Q23.95 9.75 36.7 -5.4 42.3 -12.0 45.0 -19.8 47.7 -27.75 46.7 -34.8 L53.8 -36.3 Q53.9 -26.0 51.7 -19.85 49.5 -13.7 44.05 -6.6 38.6 0.5 27.05 5.8 15.5 11.1 6.7 9.3" fill="#9d6f45" fill-rule="evenodd" stroke="none"/>
    <path d="M-27.45 -7.75 L-29.55 -10.85 -30.1 -11.8 -30.3 -12.15 -30.6 -12.7 -29.0 -12.45 -28.05 -12.1 -25.25 -8.05 -25.15 -7.9 -27.9 -8.4 -27.45 -7.75" fill="#8c5e37" fill-rule="evenodd" stroke="none"/>
  </g>
</svg>
