<?xml version="1.0" encoding="UTF-8" standalone="no"?>
<svg xmlns:ffdec="https://www.free-decompiler.com/flash" xmlns:xlink="http://www.w3.org/1999/xlink" ffdec:objectType="shape" height="25.8px" width="82.8px" xmlns="http://www.w3.org/2000/svg">
  <g transform="matrix(1.0, 0.0, 0.0, 1.0, 44.25, 65.25)">
    <path d="M-42.2 -64.75 L-41.5 -65.25 -41.25 -65.0 -41.0 -64.75 Q-39.8 -63.05 -38.85 -63.05 L-38.75 -63.05 -37.45 -62.5 Q-34.75 -61.65 -30.85 -61.25 L-24.25 -60.2 -17.65 -59.5 -14.35 -59.1 3.15 -58.0 17.35 -57.65 24.75 -57.9 31.35 -58.65 Q34.2 -59.0 35.05 -59.7 L34.4 -59.3 34.75 -59.3 Q36.15 -59.3 38.3 -60.7 L38.55 -60.6 38.5 -50.9 38.35 -50.9 38.5 -50.55 38.55 -49.8 38.35 -48.75 38.5 -48.15 38.5 -43.7 38.4 -43.55 Q33.95 -41.35 30.85 -40.7 L11.35 -39.45 11.15 -39.45 9.75 -39.5 -15.15 -40.5 Q-26.35 -41.55 -33.1 -43.65 -39.0 -45.4 -43.4 -47.3 -44.05 -48.1 -44.25 -49.0 L-44.25 -49.05 -42.95 -56.85 Q-42.4 -60.9 -42.2 -64.75 M37.05 -57.15 L37.0 -58.6 34.35 -57.7 28.6 -57.0 15.55 -56.35 -17.3 -57.9 Q-28.25 -59.2 -36.75 -61.3 -38.5 -62.05 -40.4 -62.6 L-40.75 -60.45 Q-41.55 -55.1 -42.75 -49.6 -41.65 -48.75 -38.35 -47.35 L-32.45 -45.4 -21.1 -43.1 -7.1 -41.55 -4.95 -41.45 Q4.1 -41.1 13.9 -41.0 L27.45 -42.05 Q35.1 -42.6 37.4 -45.0 37.05 -51.05 37.05 -57.15" fill="#464646" fill-rule="evenodd" stroke="none"/>
    <path d="M-36.75 -61.3 Q-28.25 -59.2 -17.3 -57.9 L15.55 -56.35 28.6 -57.0 34.35 -57.7 34.15 -57.0 33.75 -56.65 28.6 -54.95 16.15 -53.6 -19.35 -55.8 -30.05 -57.6 -33.95 -58.75 Q-36.55 -60.2 -36.75 -61.3" fill="#ffffff" fill-rule="evenodd" stroke="none"/>
    <path d="M34.35 -57.7 L37.0 -58.6 37.05 -57.15 33.15 -56.15 33.75 -56.65 34.15 -57.0 34.35 -57.7 M13.9 -41.0 Q4.1 -41.1 -4.95 -41.45 L-7.1 -41.55 -21.1 -43.1 Q-21.2 -44.1 -20.5 -49.5 -19.8 -55.15 -19.35 -55.8 L16.15 -53.6 13.9 -41.0 M-40.75 -60.45 L-40.4 -62.6 Q-38.5 -62.05 -36.75 -61.3 -36.55 -60.2 -33.95 -58.75 -37.05 -59.0 -40.75 -60.45" fill="#e0e0e0" fill-rule="evenodd" stroke="none"/>
    <path d="M27.45 -42.05 L13.9 -41.0 16.15 -53.6 28.6 -54.95 28.0 -47.3 27.45 -42.05 M-21.1 -43.1 L-32.45 -45.4 Q-31.05 -51.5 -30.05 -57.6 L-19.35 -55.8 Q-19.8 -55.15 -20.5 -49.5 -21.2 -44.1 -21.1 -43.1" fill="#b4b4b4" fill-rule="evenodd" stroke="none"/>
    <path d="M37.05 -57.15 Q37.05 -51.05 37.4 -45.0 35.1 -42.6 27.45 -42.05 L28.0 -47.3 28.6 -54.95 33.75 -56.65 33.15 -56.15 37.05 -57.15 M-32.45 -45.4 L-38.35 -47.35 Q-41.65 -48.75 -42.75 -49.6 -41.55 -55.1 -40.75 -60.45 -37.05 -59.0 -33.95 -58.75 L-30.05 -57.6 Q-31.05 -51.5 -32.45 -45.4" fill="#8a8a8a" fill-rule="evenodd" stroke="none"/>
  </g>
</svg>
