<?xml version="1.0" encoding="UTF-8" standalone="no"?>
<svg xmlns:ffdec="https://www.free-decompiler.com/flash" xmlns:xlink="http://www.w3.org/1999/xlink" ffdec:objectType="shape" height="58.2px" width="78.3px" xmlns="http://www.w3.org/2000/svg">
  <g transform="matrix(1.0, 0.0, 0.0, 1.0, 18.7, -26.1)">
    <path d="M45.75 71.6 L47.55 69.0 47.7 69.0 48.4 69.0 48.65 69.05 48.6 69.0 48.65 69.0 49.15 69.1 Q52.65 69.75 54.05 73.55 55.65 76.9 56.45 80.4 58.1 74.6 58.1 68.3 58.1 51.45 46.1 39.55 34.05 27.6 17.1 27.6 6.15 27.6 -3.4 32.45 -17.0 39.2 -17.2 45.4 L-17.2 45.45 Q-17.2 46.4 -16.85 46.9 L-15.9 47.15 Q-11.2 43.4 -7.0 42.35 L-6.95 42.35 -6.05 42.1 0.1 42.5 Q1.35 42.95 2.55 43.75 L4.0 46.8 3.05 45.95 Q-4.4 39.95 -15.1 48.45 L-15.5 48.6 Q-17.15 48.8 -17.9 47.9 -18.7 47.15 -18.7 45.4 -18.7 38.4 -4.05 31.1 L-4.1 31.1 Q5.75 26.1 17.1 26.1 34.65 26.1 47.15 38.5 59.6 50.85 59.6 68.3 59.6 76.5 56.85 83.85 L56.55 84.2 56.05 84.3 55.65 84.1 55.4 83.65 Q54.9 78.75 52.7 74.2 L52.65 74.1 Q51.5 70.9 48.4 70.5 L48.35 70.5 Q47.4 70.35 45.75 71.6" fill="#201810" fill-rule="evenodd" stroke="none"/>
    <path d="M39.65 67.15 L41.4 69.05 43.75 69.05 Q45.7 68.2 46.25 66.7 L46.75 64.15 47.45 59.0 Q47.45 56.4 45.35 51.25 43.3 46.35 41.6 44.35 L38.65 40.65 Q36.85 38.4 35.1 37.0 30.0 32.85 20.1 31.25 L16.5 31.25 5.15 32.65 Q1.85 33.2 1.1 33.95 -0.25 34.4 -1.0 34.9 -2.45 35.9 -2.45 37.3 -2.45 38.1 -1.6 38.85 -0.65 39.75 1.05 40.2 2.75 40.6 4.8 41.7 6.15 42.45 8.45 42.45 L12.2 41.05 Q15.55 39.65 19.3 39.65 L21.55 40.1 24.3 40.5 25.5 40.85 Q26.9 41.3 28.3 42.1 37.25 47.2 35.4 57.7 35.2 58.75 35.45 59.85 35.75 61.25 36.75 62.7 L36.9 62.85 37.3 63.4 Q38.4 64.7 39.15 66.15 L35.3 63.2 Q33.65 60.75 33.8 58.25 L33.9 57.45 Q35.55 48.0 27.55 43.4 L26.95 43.1 Q25.05 42.15 23.05 41.8 L22.55 41.4 20.65 40.05 Q15.65 40.15 10.05 43.5 L7.9 44.9 7.85 44.9 Q6.3 46.05 5.4 46.1 L4.05 44.85 3.15 44.15 Q-0.15 40.95 -2.15 41.25 L-9.9 41.5 -11.3 41.35 -11.5 40.9 Q-11.5 38.4 -4.9 34.95 1.1 31.8 6.65 30.6 L9.85 29.95 14.6 29.4 23.3 29.8 25.9 30.5 29.65 31.8 33.45 33.35 Q35.7 34.3 37.05 35.3 41.7 38.65 44.4 43.4 50.4 54.05 50.4 59.6 L50.0 65.15 Q49.75 67.25 47.75 68.8 L47.45 69.05 Q45.65 69.45 42.9 72.0 41.95 72.6 41.45 72.4 L41.3 72.3 Q40.85 71.8 40.65 70.55 40.35 68.75 39.65 67.15" fill="#35291c" fill-rule="evenodd" stroke="none"/>
    <path d="M39.65 67.15 Q40.35 68.75 40.65 70.55 40.85 71.8 41.3 72.3 L41.45 72.4 Q41.95 72.6 42.9 72.0 45.65 69.45 47.45 69.05 L47.75 68.8 Q49.75 67.25 50.0 65.15 L50.4 59.6 Q50.4 54.05 44.4 43.4 41.7 38.65 37.05 35.3 35.7 34.3 33.45 33.35 L29.65 31.8 25.9 30.5 23.3 29.8 14.6 29.4 9.85 29.95 6.65 30.6 Q1.1 31.8 -4.9 34.95 -11.5 38.4 -11.5 40.9 L-11.3 41.35 -9.9 41.5 -2.15 41.25 Q-0.15 40.95 3.15 44.15 L4.05 44.85 5.4 46.1 Q6.3 46.05 7.85 44.9 L7.9 44.9 10.05 43.5 Q15.65 40.15 20.65 40.05 L22.55 41.4 23.05 41.8 Q16.9 40.8 9.7 45.5 L8.75 46.15 Q6.35 47.9 4.9 47.55 L4.55 47.35 4.0 46.85 4.0 46.8 2.55 43.75 Q1.35 42.95 0.1 42.5 L-6.05 42.1 -6.95 42.35 -7.0 42.35 Q-11.2 43.4 -15.9 47.15 L-16.85 46.9 Q-17.2 46.4 -17.2 45.45 L-17.2 45.4 Q-17.0 39.2 -3.4 32.45 6.15 27.6 17.1 27.6 34.05 27.6 46.1 39.55 58.1 51.45 58.1 68.3 58.1 74.6 56.45 80.4 55.65 76.9 54.05 73.55 52.65 69.75 49.15 69.1 L48.65 69.0 48.6 69.0 48.65 69.05 48.4 69.0 47.7 69.0 47.55 69.0 45.75 71.6 43.85 73.15 43.75 73.25 Q41.85 74.45 40.7 73.7 40.35 73.55 40.1 73.2 39.4 72.45 39.15 70.8 38.55 67.15 36.15 64.35 L35.3 63.2 39.15 66.15 39.65 67.15" fill="#271f15" fill-rule="evenodd" stroke="none"/>
    <path d="M39.15 66.15 Q38.4 64.7 37.3 63.4 L36.9 62.85 36.75 62.7 Q35.75 61.25 35.45 59.85 35.2 58.75 35.4 57.7 37.25 47.2 28.3 42.1 26.9 41.3 25.5 40.85 L24.3 40.5 21.55 40.1 19.3 39.65 Q15.55 39.65 12.2 41.05 L8.45 42.45 Q6.15 42.45 4.8 41.7 2.75 40.6 1.05 40.2 -0.65 39.75 -1.6 38.85 -2.45 38.1 -2.45 37.3 -2.45 35.9 -1.0 34.9 -0.25 34.4 1.1 33.95 1.85 33.2 5.15 32.65 L16.5 31.25 20.1 31.25 Q30.0 32.85 35.1 37.0 36.85 38.4 38.65 40.65 L41.6 44.35 Q43.3 46.35 45.35 51.25 47.45 56.4 47.45 59.0 L46.75 64.15 46.25 66.7 Q45.7 68.2 43.75 69.05 L41.4 69.05 39.65 67.15 39.15 66.15" fill="#413323" fill-rule="evenodd" stroke="none"/>
  </g>
</svg>
