<?xml version="1.0" encoding="UTF-8" standalone="no"?>
<svg xmlns:ffdec="https://www.free-decompiler.com/flash" xmlns:xlink="http://www.w3.org/1999/xlink" ffdec:objectType="shape" height="35.75px" width="34.75px" xmlns="http://www.w3.org/2000/svg">
  <g transform="matrix(1.0, 0.0, 0.0, 1.0, 16.8, 17.75)">
    <path d="M-13.75 4.85 L-13.7 4.65 Q-13.55 3.2 -12.6 2.2 -11.7 1.25 -10.65 1.25 L-10.0 1.35 -9.25 1.85 -7.15 5.0 Q-5.0 7.95 -3.2 8.4 L-3.25 8.4 -0.05 9.5 Q0.85 10.05 0.85 11.25 0.75 11.7 -2.8 13.85 -6.4 15.95 -6.95 16.0 L-7.9 15.65 -9.9 14.75 -10.25 14.7 -10.55 14.9 -10.6 15.3 -10.4 15.6 -8.25 16.6 -6.95 17.0 Q-6.45 17.05 -3.75 15.55 L-3.5 15.75 -2.3 16.7 -2.15 16.85 1.45 17.25 Q3.7 17.25 6.05 16.15 L6.0 16.15 9.4 14.35 Q12.5 12.8 13.25 11.65 L13.3 11.5 13.55 10.4 13.55 10.35 13.65 9.9 15.7 5.55 16.85 2.65 Q16.85 1.4 15.9 -0.3 14.8 -2.2 13.95 -2.1 L13.65 -2.05 15.1 -2.8 Q16.5 -3.75 16.45 -5.05 16.55 -6.5 14.25 -7.45 L16.3 -8.8 Q17.35 -9.85 17.35 -11.1 17.35 -12.95 16.0 -13.65 L16.0 -13.6 Q14.75 -14.35 11.7 -14.45 L11.7 -14.65 11.4 -14.95 11.05 -14.95 9.75 -14.4 9.6 -14.3 9.55 -14.3 Q8.45 -13.3 8.45 -11.75 8.45 -9.3 8.75 -8.3 8.9 -7.75 9.35 -7.1 7.75 -5.95 5.9 -5.7 L6.65 -6.05 6.7 -6.05 Q8.4 -7.15 8.35 -8.75 8.35 -12.8 4.2 -12.85 L0.0 -12.25 Q-2.05 -12.25 -4.9 -13.85 -7.75 -15.6 -8.95 -15.05 L-9.25 -14.8 -9.25 -14.4 -9.0 -14.15 -8.6 -14.1 -8.1 -14.15 -9.15 -12.4 -9.65 -10.8 -9.65 -10.6 -10.5 -11.5 Q-12.55 -13.5 -15.15 -13.5 -16.05 -13.55 -16.8 -12.2 L-16.8 -17.75 17.95 -17.75 17.95 18.0 -16.8 18.0 -16.8 4.45 Q-16.5 5.2 -15.95 5.4 L-15.9 5.45 -14.6 5.35 -14.5 5.75 -14.55 5.9 -14.3 6.4 -14.45 5.9 -13.95 7.25 -13.95 7.2 -13.05 8.8 -12.7 9.0 -12.35 8.9 -12.15 8.55 -12.25 8.2 -13.05 6.8 -13.35 6.05 -12.25 5.0 -11.65 4.65 -10.2 4.65 -9.7 5.1 -8.4 7.1 -7.1 9.05 -6.65 9.55 Q-6.1 10.05 -5.15 10.25 L-3.5 10.5 Q-3.0 10.6 -2.85 10.75 -2.45 11.05 -2.6 11.4 L-3.35 11.9 -4.65 12.6 -4.85 12.9 -4.6 13.15 -4.2 13.1 -3.25 12.8 Q-2.4 12.6 -2.05 12.15 -1.8 11.85 -1.8 11.0 -1.8 10.65 -1.95 10.4 L-2.6 9.8 -3.75 9.4 -5.1 9.15 Q-6.1 8.8 -7.15 6.9 L-8.95 4.25 -9.65 3.65 -10.85 3.45 -12.55 3.75 -13.6 4.7 -13.75 4.85 M-16.8 -9.25 Q-16.0 -12.4 -15.15 -12.5 -12.95 -12.5 -11.2 -10.8 -9.95 -9.6 -9.9 -9.2 L-10.25 -8.35 -10.3 -8.8 Q-10.45 -9.6 -11.15 -10.2 L-12.85 -10.95 -14.25 -11.05 -14.65 -10.85 -14.7 -10.4 -13.95 -10.2 -12.6 -9.9 -11.8 -9.5 Q-11.4 -9.1 -11.4 -8.7 -12.1 -8.45 -12.05 -8.05 -12.05 -7.6 -11.55 -7.6 -11.4 -7.55 -10.8 -7.8 -11.15 -7.5 -11.6 -7.15 L-11.6 -7.1 -12.0 -6.8 -12.1 -6.75 -12.2 -6.7 -12.5 -6.5 -12.6 -6.45 -16.15 -6.6 -16.8 -6.95 -16.8 -9.25 M-16.8 -5.75 L-16.5 -5.65 -13.8 -5.35 -15.65 -2.9 -16.8 -0.4 -16.8 -5.75 M7.1 -7.85 L6.15 -6.9 Q4.7 -6.1 2.2 -6.05 L2.15 -6.05 0.8 -6.25 0.5 -6.2 0.3 -6.05 Q-4.7 -6.9 -7.05 -8.55 -8.6 -9.65 -8.65 -10.8 L-8.25 -12.0 -7.15 -13.75 -7.1 -13.9 -5.4 -13.0 -3.45 -12.05 -4.2 -12.25 -5.9 -12.3 Q-6.85 -12.15 -7.25 -11.3 -7.5 -10.7 -7.1 -10.55 -6.85 -10.5 -6.55 -10.8 L-6.2 -11.3 -5.2 -11.45 -2.55 -10.65 0.05 -9.6 1.2 -9.35 4.8 -9.85 6.15 -9.6 6.3 -8.6 Q6.4 -7.85 6.85 -7.85 L7.1 -7.85 M-2.15 -11.55 L0.0 -11.25 0.15 -11.25 4.2 -11.85 Q6.3 -11.8 7.0 -10.45 L6.7 -10.7 Q5.9 -11.4 4.45 -11.0 L2.15 -10.4 0.35 -10.6 -1.35 -11.25 -2.15 -11.55 M-13.3 1.5 Q-14.45 2.7 -14.65 4.3 L-14.85 4.35 -15.55 4.5 Q-16.15 4.1 -16.15 1.8 -16.15 -0.15 -14.8 -2.4 -13.65 -4.4 -12.1 -5.6 L-12.05 -5.65 -11.8 -5.8 -11.65 -5.85 -11.6 -5.9 -8.75 -6.6 Q-1.85 -6.6 -1.8 -1.7 -1.8 -0.9 -2.65 0.55 L-8.2 -0.25 -8.3 -0.25 Q-9.0 -0.15 -9.25 0.55 L-9.3 0.65 -9.4 0.55 -9.5 0.5 -10.65 0.25 Q-12.1 0.25 -13.3 1.5 M-6.55 -5.45 Q-9.65 -5.45 -11.3 -4.6 L-12.65 -3.45 -13.0 -2.95 -13.4 -2.55 -13.65 -2.05 -13.9 -1.6 -14.15 -1.4 -14.3 -1.2 Q-14.3 -0.85 -13.9 -0.85 -13.6 -0.85 -13.2 -1.15 L-12.75 -1.75 -11.4 -3.1 -10.85 -3.35 -9.8 -3.85 -7.8 -4.15 Q-5.75 -4.35 -4.8 -3.7 L-3.4 -2.7 -3.0 -2.5 -2.55 -2.6 Q-2.3 -2.9 -2.65 -3.25 L-3.2 -3.75 -3.7 -4.35 -4.1 -4.5 Q-4.5 -4.6 -5.05 -5.15 L-6.55 -5.45 M-8.75 -7.6 L-9.65 -7.5 Q-9.0 -8.25 -8.9 -8.9 L-7.6 -7.75 -7.65 -7.75 -7.35 -7.55 -8.75 -7.6 M-2.95 -1.75 L-2.95 -1.9 Q-3.05 -2.2 -3.35 -2.1 L-3.8 -1.85 -4.65 -1.55 Q-4.85 -1.35 -4.65 -1.15 L-4.4 -1.0 -3.25 -1.2 -3.05 -1.35 -2.95 -1.75 M-0.65 -1.9 Q-0.65 0.05 0.1 1.1 L-0.6 0.95 -1.6 0.75 Q-0.8 -0.8 -0.8 -1.7 -0.75 -4.1 -2.05 -5.5 L0.0 -5.1 -0.65 -1.9 M12.95 -13.35 L12.85 -13.35 11.85 -13.2 10.4 -12.75 9.6 -12.2 Q9.45 -12.0 9.45 -11.5 L9.45 -11.75 Q9.45 -12.8 10.1 -13.45 L12.95 -13.35 M9.45 -11.4 Q9.55 -10.05 9.9 -9.6 L10.35 -9.25 Q10.7 -9.15 10.8 -9.5 L10.6 -10.1 Q10.3 -10.6 10.5 -11.65 L12.05 -12.1 13.1 -12.2 13.65 -11.85 14.3 -11.75 Q14.6 -11.95 14.25 -12.55 L13.7 -13.15 13.35 -13.3 13.25 -13.35 15.5 -12.75 Q16.35 -12.25 16.35 -11.1 16.35 -10.25 15.6 -9.5 14.6 -8.5 12.75 -7.95 L12.55 -7.9 10.3 -7.5 Q9.85 -8.05 9.7 -8.55 9.45 -9.4 9.45 -11.4 M2.05 -5.05 Q6.6 -3.75 10.25 -6.5 L12.75 -6.95 Q15.35 -6.15 15.45 -5.05 15.4 -4.25 14.55 -3.65 L11.35 -2.2 11.25 -2.15 7.85 -0.15 7.85 -0.1 Q5.35 1.4 3.15 1.4 0.35 1.35 0.35 -1.9 0.35 -2.9 1.05 -5.0 L2.05 -5.05 M9.45 2.5 L10.15 2.15 10.85 1.9 11.55 1.75 11.85 1.65 12.5 1.55 13.3 1.55 13.55 1.6 13.65 1.8 13.7 2.3 13.9 2.55 13.85 2.85 Q13.85 3.3 14.25 3.45 L14.75 3.4 14.9 3.0 14.85 2.0 14.65 1.45 14.6 1.15 14.25 0.95 13.85 0.6 13.4 0.5 12.55 0.5 11.55 0.65 11.05 0.8 10.3 0.9 10.0 1.05 9.7 1.15 9.0 1.6 Q8.6 1.7 8.55 1.85 L8.4 2.15 8.15 2.35 7.9 2.65 7.6 2.9 Q7.4 3.1 7.6 3.35 7.7 3.65 8.0 3.55 L8.35 3.35 9.45 2.5 M2.15 -3.3 Q1.3 -2.8 1.15 -1.95 0.9 -1.0 1.55 -0.3 L1.85 -0.1 Q2.1 0.0 2.2 -0.2 L2.1 -0.7 Q1.95 -1.0 1.95 -1.35 L2.0 -1.7 Q2.15 -2.3 2.75 -2.55 L3.7 -2.7 7.55 -2.55 8.35 -2.6 8.9 -2.9 10.95 -3.9 13.15 -4.25 14.1 -4.35 Q14.45 -4.75 13.9 -5.2 L13.0 -5.4 11.6 -5.3 10.75 -5.05 9.1 -4.25 8.2 -3.8 6.5 -3.6 4.4 -3.65 Q2.9 -3.75 2.15 -3.3 M-2.3 14.7 Q1.25 12.55 1.8 11.6 L1.9 11.6 2.25 11.45 2.35 11.3 2.4 11.25 3.15 9.6 3.2 9.55 4.1 7.8 5.2 5.8 5.8 5.5 6.9 5.25 Q7.65 5.3 9.75 6.65 12.1 8.15 12.7 9.65 L12.55 10.2 12.35 11.1 Q11.65 12.1 8.95 13.45 L8.9 13.5 5.6 15.25 Q3.5 16.25 1.45 16.25 L-1.45 16.1 Q-1.8 15.5 -2.8 15.0 L-2.3 14.7 M9.55 7.5 Q8.7 6.6 7.15 6.5 L6.35 6.55 5.9 6.9 Q5.4 7.1 5.15 7.25 4.4 7.6 3.95 8.4 L3.65 9.0 3.0 10.95 Q2.3 12.8 0.55 13.65 0.1 13.9 0.0 14.05 -0.2 14.35 -0.05 14.65 L0.4 15.05 1.1 14.8 Q3.1 13.6 3.8 12.25 L4.4 10.7 5.0 9.1 5.55 8.4 6.45 7.95 7.0 7.65 8.45 7.8 9.0 8.2 9.4 9.0 9.8 9.45 10.3 9.4 10.3 8.85 9.55 7.5 M14.8 5.15 L13.25 8.5 Q12.4 7.15 10.3 5.8 7.85 4.2 6.9 4.25 L5.4 4.6 5.35 4.6 5.3 4.6 5.3 4.5 5.25 4.15 Q5.95 2.3 9.6 0.5 12.75 -1.05 13.95 -1.1 L15.05 0.2 Q15.85 1.6 15.85 2.65 L14.8 5.15 M3.1 5.85 L3.05 5.45 2.65 4.75 1.65 3.8 Q1.05 3.4 -0.3 3.3 L-1.45 3.25 -2.15 3.05 Q-3.65 2.75 -5.85 3.0 L-6.15 3.1 -6.35 3.4 Q-6.35 3.6 -5.95 3.7 L-3.85 3.85 -2.5 4.15 -1.9 4.35 0.25 4.55 0.85 4.7 1.25 5.1 1.65 5.6 1.9 6.1 2.0 6.85 2.15 7.35 2.85 7.6 Q3.3 7.25 3.3 6.7 L3.1 5.85 M-6.35 4.4 L-8.45 1.25 -8.35 1.1 -8.3 0.9 -8.2 0.75 -2.5 1.6 -2.4 1.6 -0.8 1.9 Q3.0 2.75 4.25 4.3 L4.3 4.7 4.35 5.2 4.35 5.25 3.2 7.35 3.2 7.3 2.25 9.15 1.75 10.3 Q1.45 9.2 0.45 8.65 L0.5 8.65 Q-0.1 8.25 -2.95 7.45 -4.5 6.95 -6.35 4.4 M5.45 2.05 L4.55 3.2 3.5 2.4 5.45 2.05" fill="#7e3c25" fill-rule="evenodd" stroke="none"/>
    <path d="M-10.25 -8.35 L-10.6 -7.95 -10.75 -7.85 -10.8 -7.8 Q-11.4 -7.55 -11.55 -7.6 -12.05 -7.6 -12.05 -8.05 -12.1 -8.45 -11.4 -8.7 -11.4 -9.1 -11.8 -9.5 L-12.6 -9.9 -13.95 -10.2 -14.7 -10.4 -14.65 -10.85 -14.25 -11.05 -12.85 -10.95 -11.15 -10.2 Q-10.45 -9.6 -10.3 -8.8 L-10.25 -8.35 M-14.5 5.75 L-14.45 5.9 -14.3 6.4 -14.55 5.9 -14.5 5.75 M-13.35 6.05 L-13.65 5.05 -13.75 4.85 -13.6 4.7 -12.55 3.75 -10.85 3.45 -9.65 3.65 -8.95 4.25 -7.15 6.9 Q-6.1 8.8 -5.1 9.15 L-3.75 9.4 -2.6 9.8 -1.95 10.4 Q-1.8 10.65 -1.8 11.0 -1.8 11.85 -2.05 12.15 -2.4 12.6 -3.25 12.8 L-4.2 13.1 -4.6 13.15 -4.85 12.9 -4.65 12.6 -3.35 11.9 -2.6 11.4 Q-2.45 11.05 -2.85 10.75 -3.0 10.6 -3.5 10.5 L-5.15 10.25 Q-6.1 10.05 -6.65 9.55 L-7.1 9.05 -8.4 7.1 -9.7 5.1 -10.2 4.65 -11.65 4.65 -12.25 5.0 -13.35 6.05 M-3.45 -12.05 L-3.35 -12.0 -2.25 -11.6 -2.15 -11.55 -1.35 -11.25 0.35 -10.6 2.15 -10.4 4.45 -11.0 Q5.9 -11.4 6.7 -10.7 L7.0 -10.45 7.05 -10.4 7.2 -9.95 7.35 -9.0 7.35 -8.8 7.35 -8.75 7.1 -7.85 6.85 -7.85 Q6.4 -7.85 6.3 -8.6 L6.15 -9.6 4.8 -9.85 1.2 -9.35 0.05 -9.6 -2.55 -10.65 -5.2 -11.45 -6.2 -11.3 -6.55 -10.8 Q-6.85 -10.5 -7.1 -10.55 -7.5 -10.7 -7.25 -11.3 -6.85 -12.15 -5.9 -12.3 L-4.2 -12.25 -3.45 -12.05 M-6.55 -5.45 L-5.05 -5.15 Q-4.5 -4.6 -4.1 -4.5 L-3.7 -4.35 -3.2 -3.75 -2.65 -3.25 Q-2.3 -2.9 -2.55 -2.6 L-3.0 -2.5 -3.4 -2.7 -4.8 -3.7 Q-5.75 -4.35 -7.8 -4.15 L-9.8 -3.85 -10.85 -3.35 -11.4 -3.1 -12.75 -1.75 -13.2 -1.15 Q-13.6 -0.85 -13.9 -0.85 -14.3 -0.85 -14.3 -1.2 L-14.15 -1.4 -13.9 -1.6 -13.65 -2.05 -13.4 -2.55 -13.0 -2.95 -12.65 -3.45 -11.3 -4.6 Q-9.65 -5.45 -6.55 -5.45 M-2.95 -1.75 L-3.05 -1.35 -3.25 -1.2 -4.4 -1.0 -4.65 -1.15 Q-4.85 -1.35 -4.65 -1.55 L-3.8 -1.85 -3.35 -2.1 Q-3.05 -2.2 -2.95 -1.9 L-2.95 -1.75 M9.45 -11.5 Q9.45 -12.0 9.6 -12.2 L10.4 -12.75 11.85 -13.2 12.85 -13.35 12.95 -13.35 13.25 -13.35 13.35 -13.3 13.7 -13.15 14.25 -12.55 Q14.6 -11.95 14.3 -11.75 L13.65 -11.85 13.1 -12.2 12.05 -12.1 10.5 -11.65 Q10.3 -10.6 10.6 -10.1 L10.8 -9.5 Q10.7 -9.15 10.35 -9.25 L9.9 -9.6 Q9.55 -10.05 9.45 -11.4 L9.45 -11.5 M2.15 -3.3 Q2.9 -3.75 4.4 -3.65 L6.5 -3.6 8.2 -3.8 9.1 -4.25 10.75 -5.05 11.6 -5.3 13.0 -5.4 13.9 -5.2 Q14.45 -4.75 14.1 -4.35 L13.15 -4.25 10.95 -3.9 8.9 -2.9 8.35 -2.6 7.55 -2.55 3.7 -2.7 2.75 -2.55 Q2.15 -2.3 2.0 -1.7 L1.95 -1.35 Q1.95 -1.0 2.1 -0.7 L2.2 -0.2 Q2.1 0.0 1.85 -0.1 L1.55 -0.3 Q0.9 -1.0 1.15 -1.95 1.3 -2.8 2.15 -3.3 M9.45 2.5 L8.35 3.35 8.0 3.55 Q7.7 3.65 7.6 3.35 7.4 3.1 7.6 2.9 L7.9 2.65 8.15 2.35 8.4 2.15 8.55 1.85 Q8.6 1.7 9.0 1.6 L9.7 1.15 10.0 1.05 10.3 0.9 11.05 0.8 11.55 0.65 12.55 0.5 13.4 0.5 13.85 0.6 14.25 0.95 14.6 1.15 14.65 1.45 14.85 2.0 14.9 3.0 14.75 3.4 14.25 3.45 Q13.85 3.3 13.85 2.85 L13.9 2.55 13.7 2.3 13.65 1.8 13.55 1.6 13.3 1.55 12.5 1.55 11.85 1.65 11.55 1.75 10.85 1.9 10.15 2.15 9.45 2.5 M9.55 7.5 L10.3 8.85 10.3 9.4 9.8 9.45 9.4 9.0 9.0 8.2 8.45 7.8 7.0 7.65 6.45 7.95 5.55 8.4 5.0 9.1 4.4 10.7 3.8 12.25 Q3.1 13.6 1.1 14.8 L0.4 15.05 -0.05 14.65 Q-0.2 14.35 0.0 14.05 0.1 13.9 0.55 13.65 2.3 12.8 3.0 10.95 L3.65 9.0 3.95 8.4 Q4.4 7.6 5.15 7.25 5.4 7.1 5.9 6.9 L6.35 6.55 7.15 6.5 Q8.7 6.6 9.55 7.5 M3.1 5.85 L3.3 6.7 Q3.3 7.25 2.85 7.6 L2.15 7.35 2.0 6.85 1.9 6.1 1.65 5.6 1.25 5.1 0.85 4.7 0.25 4.55 -1.9 4.35 -2.5 4.15 -3.85 3.85 -5.95 3.7 Q-6.35 3.6 -6.35 3.4 L-6.15 3.1 -5.85 3.0 Q-3.65 2.75 -2.15 3.05 L-1.45 3.25 -0.3 3.3 Q1.05 3.4 1.65 3.8 L2.65 4.75 3.05 5.45 3.1 5.85" fill="#95492e" fill-rule="evenodd" stroke="none"/>
    <path d="M-16.8 -12.2 Q-16.05 -13.55 -15.15 -13.5 -12.55 -13.5 -10.5 -11.5 L-9.65 -10.6 -9.65 -10.8 -9.15 -12.4 -8.1 -14.15 -8.6 -14.1 -9.0 -14.15 -9.25 -14.4 -9.25 -14.8 -8.95 -15.05 Q-7.75 -15.6 -4.9 -13.85 -2.05 -12.25 0.0 -12.25 L4.2 -12.85 Q8.35 -12.8 8.35 -8.75 8.4 -7.15 6.7 -6.05 L6.65 -6.05 5.9 -5.7 Q7.75 -5.95 9.35 -7.1 8.9 -7.75 8.75 -8.3 8.45 -9.3 8.45 -11.75 8.45 -13.3 9.55 -14.3 L9.6 -14.3 9.75 -14.4 11.05 -14.95 11.4 -14.95 11.7 -14.65 11.7 -14.45 Q14.75 -14.35 16.0 -13.6 L16.0 -13.65 Q17.35 -12.95 17.35 -11.1 17.35 -9.85 16.3 -8.8 L14.25 -7.45 Q16.55 -6.5 16.45 -5.05 16.5 -3.75 15.1 -2.8 L13.65 -2.05 13.95 -2.1 Q14.8 -2.2 15.9 -0.3 16.85 1.4 16.85 2.65 L15.7 5.55 13.65 9.9 13.55 10.35 13.55 10.4 13.3 11.5 13.25 11.65 Q12.5 12.8 9.4 14.35 L6.0 16.15 6.05 16.15 Q3.7 17.25 1.45 17.25 L-2.15 16.85 -2.3 16.7 -3.5 15.75 -3.75 15.55 Q-6.45 17.05 -6.95 17.0 L-8.25 16.6 -10.4 15.6 -10.6 15.3 -10.55 14.9 -10.25 14.7 -9.9 14.75 -7.9 15.65 -6.95 16.0 Q-6.4 15.95 -2.8 13.85 0.75 11.7 0.85 11.25 0.85 10.05 -0.05 9.5 L-3.25 8.4 -3.2 8.4 Q-5.0 7.95 -7.15 5.0 L-9.25 1.85 -10.0 1.35 -10.65 1.25 Q-11.7 1.25 -12.6 2.2 -13.55 3.2 -13.7 4.65 L-13.75 4.85 -13.65 5.05 -13.35 6.05 -13.05 6.8 -12.25 8.2 -12.15 8.55 -12.35 8.9 -12.7 9.0 -13.05 8.8 -13.95 7.2 -13.95 7.25 -14.45 5.9 -14.5 5.75 -14.6 5.35 -15.9 5.45 -15.95 5.4 Q-16.5 5.2 -16.8 4.45 L-16.8 -0.4 -15.65 -2.9 -13.8 -5.35 -16.5 -5.65 -16.8 -5.75 -16.8 -6.95 -16.15 -6.6 -12.6 -6.45 -12.5 -6.5 -12.2 -6.7 -12.1 -6.75 -12.0 -6.8 -11.6 -7.1 -11.6 -7.15 Q-11.15 -7.5 -10.8 -7.8 L-10.75 -7.85 -10.6 -7.95 -10.25 -8.35 -9.9 -9.2 Q-9.95 -9.6 -11.2 -10.8 -12.95 -12.5 -15.15 -12.5 -16.0 -12.4 -16.8 -9.25 L-16.8 -12.2 M-3.45 -12.05 L-5.4 -13.0 -7.1 -13.9 -7.15 -13.75 -8.25 -12.0 -8.65 -10.8 Q-8.6 -9.65 -7.05 -8.55 -4.7 -6.9 0.3 -6.05 L0.5 -6.2 0.8 -6.25 2.15 -6.05 2.2 -6.05 Q4.7 -6.1 6.15 -6.9 L7.1 -7.85 7.35 -8.75 7.35 -8.8 7.35 -9.0 7.2 -9.95 7.05 -10.4 7.0 -10.45 Q6.3 -11.8 4.2 -11.85 L0.15 -11.25 0.0 -11.25 -2.15 -11.55 -2.25 -11.6 -3.35 -12.0 -3.45 -12.05 M-13.3 1.5 Q-12.1 0.25 -10.65 0.25 L-9.5 0.5 -9.4 0.55 -9.3 0.65 -9.25 0.55 Q-9.0 -0.15 -8.3 -0.25 L-8.2 -0.25 -2.65 0.55 Q-1.8 -0.9 -1.8 -1.7 -1.85 -6.6 -8.75 -6.6 L-11.6 -5.9 -11.65 -5.85 -11.8 -5.8 -12.05 -5.65 -12.1 -5.6 Q-13.65 -4.4 -14.8 -2.4 -16.15 -0.15 -16.15 1.8 -16.15 4.1 -15.55 4.5 L-14.85 4.35 -14.65 4.3 Q-14.45 2.7 -13.3 1.5 M-8.75 -7.6 L-7.35 -7.55 -7.65 -7.75 -7.6 -7.75 -8.9 -8.9 Q-9.0 -8.25 -9.65 -7.5 L-8.75 -7.6 M-0.65 -1.9 L0.0 -5.1 -2.05 -5.5 Q-0.75 -4.1 -0.8 -1.7 -0.8 -0.8 -1.6 0.75 L-0.6 0.95 0.1 1.1 Q-0.65 0.05 -0.65 -1.9 M12.95 -13.35 L10.1 -13.45 Q9.45 -12.8 9.45 -11.75 L9.45 -11.5 9.45 -11.4 Q9.45 -9.4 9.7 -8.55 9.85 -8.05 10.3 -7.5 L12.55 -7.9 12.75 -7.95 Q14.6 -8.5 15.6 -9.5 16.35 -10.25 16.35 -11.1 16.35 -12.25 15.5 -12.75 L13.25 -13.35 12.95 -13.35 M2.05 -5.05 L1.05 -5.0 Q0.35 -2.9 0.35 -1.9 0.35 1.35 3.15 1.4 5.35 1.4 7.85 -0.1 L7.85 -0.15 11.25 -2.15 11.35 -2.2 14.55 -3.65 Q15.4 -4.25 15.45 -5.05 15.35 -6.15 12.75 -6.95 L10.25 -6.5 Q6.6 -3.75 2.05 -5.05 M-2.3 14.7 L-2.8 15.0 Q-1.8 15.5 -1.45 16.1 L1.45 16.25 Q3.5 16.25 5.6 15.25 L8.9 13.5 8.95 13.45 Q11.65 12.1 12.35 11.1 L12.55 10.2 12.7 9.65 Q12.1 8.15 9.75 6.65 7.65 5.3 6.9 5.25 L5.8 5.5 5.2 5.8 4.1 7.8 3.2 9.55 3.15 9.6 2.4 11.25 2.35 11.3 2.25 11.45 1.9 11.6 1.8 11.6 Q1.25 12.55 -2.3 14.7 M14.8 5.15 L15.85 2.65 Q15.85 1.6 15.05 0.2 L13.95 -1.1 Q12.75 -1.05 9.6 0.5 5.95 2.3 5.25 4.15 L5.3 4.5 5.3 4.6 5.35 4.6 5.4 4.6 6.9 4.25 Q7.85 4.2 10.3 5.8 12.4 7.15 13.25 8.5 L14.8 5.15 M5.45 2.05 L3.5 2.4 4.55 3.2 5.45 2.05 M-6.35 4.4 Q-4.5 6.95 -2.95 7.45 -0.1 8.25 0.5 8.65 L0.45 8.65 Q1.45 9.2 1.75 10.3 L2.25 9.15 3.2 7.3 3.2 7.35 4.35 5.25 4.35 5.2 4.3 4.7 4.25 4.3 Q3.0 2.75 -0.8 1.9 L-2.4 1.6 -2.5 1.6 -8.2 0.75 -8.3 0.9 -8.35 1.1 -8.45 1.25 -6.35 4.4" fill="#6b311c" fill-rule="evenodd" stroke="none"/>
  </g>
</svg>
