<?xml version="1.0" encoding="UTF-8" standalone="no"?>
<svg xmlns:ffdec="https://www.free-decompiler.com/flash" xmlns:xlink="http://www.w3.org/1999/xlink" ffdec:objectType="shape" height="40.0px" width="51.8px" xmlns="http://www.w3.org/2000/svg">
  <g transform="matrix(1.0, 0.0, 0.0, 1.0, 27.6, 3.15)">
    <path d="M4.05 -3.1 Q6.75 -2.85 9.4 -0.7 L12.25 1.95 15.2 4.8 16.8 5.25 Q18.5 5.9 19.85 6.95 24.2 10.2 24.2 16.65 24.2 18.45 23.3 19.9 22.25 21.6 20.4 21.6 L18.85 21.0 Q17.75 20.45 17.5 20.05 19.05 29.35 12.1 30.1 10.3 29.4 8.6 28.1 7.05 26.9 6.3 25.65 6.35 29.0 5.1 32.95 3.8 36.85 -1.1 36.85 -6.05 36.8 -7.9 33.3 -9.25 30.7 -9.25 27.65 -8.6 22.5 -8.75 21.05 -9.1 17.6 -9.7 15.7 -10.35 13.8 -10.85 14.0 L-16.05 16.35 Q-20.75 18.55 -22.75 18.25 -24.75 17.9 -26.15 16.35 -27.6 14.8 -27.6 12.4 -27.6 8.65 -25.3 6.6 -23.45 5.0 -19.2 3.75 L-11.2 1.55 -9.15 0.05 Q-5.85 -2.4 -2.7 -2.95 L-5.1 -0.75 -7.3 1.25 -8.65 2.4 -10.0 2.95 -13.25 3.8 -12.25 5.55 Q-11.55 6.9 -12.05 7.2 -11.9 6.75 -12.55 6.15 L-13.5 5.0 Q-14.4 4.1 -15.65 4.1 -18.3 4.1 -22.25 6.35 -26.25 8.55 -26.45 11.85 -26.65 15.1 -23.55 16.25 -20.45 17.35 -17.7 15.6 -15.0 13.85 -13.2 11.05 L-13.2 11.0 -13.3 12.4 -10.9 12.0 Q-9.85 11.7 -8.55 14.35 L-7.2 12.45 -7.55 15.95 Q-7.75 18.25 -7.3 19.75 L-6.7 19.1 -4.85 17.65 -5.1 17.95 Q-6.0 18.9 -6.85 21.2 L-7.7 24.3 Q-7.7 29.4 -6.7 31.95 -5.8 34.25 -4.05 35.1 -3.05 35.6 -1.7 35.6 0.3 35.6 1.7 34.4 4.5 32.0 4.5 25.35 4.5 20.15 2.9 18.55 2.15 17.8 -1.4 16.9 L2.75 16.8 Q1.9 14.1 0.85 13.0 L-1.05 11.3 Q1.6 12.05 2.85 13.95 4.0 15.85 5.6 17.3 L6.1 15.0 6.1 15.05 Q5.95 16.75 6.55 19.95 7.3 23.95 8.7 25.45 10.45 28.15 12.55 28.15 13.75 28.15 14.9 26.55 16.0 25.0 16.0 23.6 16.0 18.3 13.55 15.4 12.6 14.25 9.6 12.45 L10.95 12.55 Q7.7 9.5 6.1 9.95 L6.2 9.85 6.85 9.4 7.8 9.25 Q9.1 9.25 14.1 11.9 L14.25 11.35 15.15 9.45 15.15 9.4 15.15 9.45 14.8 12.35 15.4 14.7 16.5 17.95 Q17.15 18.8 18.05 19.1 L19.2 19.3 Q20.85 19.3 21.75 18.3 22.5 17.5 22.5 16.4 22.5 9.8 19.1 8.15 15.7 6.5 14.15 6.25 L12.55 5.85 Q12.8 5.2 13.6 4.85 L10.05 2.0 4.2 -3.0 4.05 -3.1" fill="#aa6a40" fill-rule="evenodd" stroke="none"/>
    <path d="M-2.7 -2.95 L0.7 -3.15 4.05 -3.1 4.2 -3.0 10.05 2.0 13.6 4.85 Q12.8 5.2 12.55 5.85 L14.15 6.25 Q15.7 6.5 19.1 8.15 22.5 9.8 22.5 16.4 22.5 17.5 21.75 18.3 20.85 19.3 19.2 19.3 L18.05 19.1 Q17.15 18.8 16.5 17.95 L20.0 17.7 Q21.65 17.1 21.65 16.0 21.65 13.85 20.8 11.45 19.65 8.25 17.75 8.25 L16.6 8.7 Q15.55 9.2 15.15 9.45 L15.15 9.4 15.15 9.45 14.25 11.35 14.1 11.9 Q9.1 9.25 7.8 9.25 L6.85 9.4 6.2 9.85 6.1 9.95 Q7.7 9.5 10.95 12.55 L9.6 12.45 Q12.6 14.25 13.55 15.4 16.0 18.3 16.0 23.6 16.0 25.0 14.9 26.55 13.75 28.15 12.55 28.15 10.45 28.15 8.7 25.45 L10.25 26.5 11.65 27.2 Q12.65 27.2 13.3 25.5 13.9 24.0 13.9 22.3 13.9 19.9 12.3 16.35 10.6 12.65 9.15 12.65 L7.6 13.7 6.1 15.05 6.1 15.0 5.6 17.3 Q4.0 15.85 2.85 13.95 1.6 12.05 -1.05 11.3 L0.85 13.0 Q1.9 14.1 2.75 16.8 L-1.4 16.9 Q2.15 17.8 2.9 18.55 4.5 20.15 4.5 25.35 4.5 32.0 1.7 34.4 0.3 35.6 -1.7 35.6 -3.05 35.6 -4.05 35.1 L-3.45 35.15 -1.2 34.7 0.85 33.5 Q1.85 32.55 2.8 29.85 3.6 27.6 3.6 26.9 L3.15 23.9 2.65 21.75 1.85 19.85 0.7 18.35 Q-1.0 17.4 -1.7 17.15 L-2.25 16.95 Q-4.0 17.15 -5.1 17.95 L-4.85 17.65 -6.7 19.1 -7.3 19.75 Q-7.75 18.25 -7.55 15.95 L-7.2 12.45 -8.55 14.35 Q-9.85 11.7 -10.9 12.0 L-13.3 12.4 -13.2 11.0 Q-12.05 9.5 -12.05 7.2 -11.55 6.9 -12.25 5.55 L-13.25 3.8 -10.0 2.95 -8.65 2.4 -7.3 1.25 -5.1 -0.75 -2.7 -2.95 M-4.55 10.05 L0.75 10.0 Q4.0 10.0 6.7 7.95 9.35 5.95 9.35 3.7 L6.35 0.5 Q4.4 -1.75 2.05 -2.0 -0.35 -2.3 -4.65 0.45 -8.95 3.25 -8.95 4.15 -8.95 4.8 -7.05 7.4 -5.15 10.05 -4.55 10.05" fill="#f1b67a" fill-rule="evenodd" stroke="none"/>
    <path d="M-12.05 7.2 Q-12.05 9.5 -13.2 11.0 L-13.2 11.05 Q-15.0 13.85 -17.7 15.6 -20.45 17.35 -23.55 16.25 -26.65 15.1 -26.45 11.85 -26.25 8.55 -22.25 6.35 -18.3 4.1 -15.65 4.1 -14.4 4.1 -13.5 5.0 L-12.55 6.15 Q-11.9 6.75 -12.05 7.2 M-5.1 17.95 Q-4.0 17.15 -2.25 16.95 L-1.7 17.15 Q-1.0 17.4 0.7 18.35 L1.85 19.85 2.65 21.75 3.15 23.9 3.6 26.9 Q3.6 27.6 2.8 29.85 1.85 32.55 0.85 33.5 L-1.2 34.7 -3.45 35.15 -4.05 35.1 Q-5.8 34.25 -6.7 31.95 -7.7 29.4 -7.7 24.3 L-6.85 21.2 Q-6.0 18.9 -5.1 17.95 M6.1 15.05 L7.6 13.7 9.15 12.65 Q10.6 12.65 12.3 16.35 13.9 19.9 13.9 22.3 13.9 24.0 13.3 25.5 12.65 27.2 11.65 27.2 L10.25 26.5 8.7 25.45 Q7.3 23.95 6.55 19.95 5.95 16.75 6.1 15.05 M15.15 9.45 Q15.55 9.2 16.6 8.7 L17.75 8.25 Q19.65 8.25 20.8 11.45 21.65 13.85 21.65 16.0 21.65 17.1 20.0 17.7 L16.5 17.95 15.4 14.7 14.8 12.35 15.15 9.45 M-4.55 10.05 Q-5.15 10.05 -7.05 7.4 -8.95 4.8 -8.95 4.15 -8.95 3.25 -4.65 0.45 -0.35 -2.3 2.05 -2.0 4.4 -1.75 6.35 0.5 L9.35 3.7 Q9.35 5.95 6.7 7.95 4.0 10.0 0.75 10.0 L-4.55 10.05 M9.05 22.9 Q10.0 24.4 10.8 24.4 11.6 24.4 12.05 23.85 12.45 23.4 12.45 22.8 12.45 16.4 10.2 15.6 9.35 15.3 8.65 16.2 7.95 17.1 7.95 18.6 7.95 21.1 9.05 22.9 M17.35 15.05 Q18.0 15.85 18.5 15.85 L19.4 15.8 20.1 15.5 20.2 14.3 Q20.2 12.05 17.7 11.15 L16.55 12.45 Q16.55 14.0 17.35 15.05 M-5.25 22.25 Q-6.15 23.4 -6.15 24.1 L-6.3 26.6 -6.1 28.85 Q-5.85 30.7 -5.4 31.2 L-4.35 31.9 -3.2 32.3 Q-1.55 32.3 -0.5 30.3 0.6 28.25 0.6 24.85 0.6 22.75 -0.2 21.55 -0.85 20.55 -1.75 20.55 L-2.95 20.7 -4.1 21.0 -5.25 22.25 M-16.7 7.0 L-17.1 6.7 -17.5 6.4 -18.35 6.25 Q-19.6 6.25 -21.45 7.25 -24.1 8.7 -24.1 11.2 L-24.25 12.95 -23.35 14.1 Q-22.15 14.85 -21.5 14.85 L-19.85 14.65 -18.15 14.25 -16.35 12.55 Q-15.0 11.0 -15.0 10.05 L-15.3 8.45 Q-15.65 7.4 -15.95 7.15 L-16.7 7.0" fill="#ffce9d" fill-rule="evenodd" stroke="none"/>
    <path d="M9.05 22.9 Q7.95 21.1 7.95 18.6 7.95 17.1 8.65 16.2 9.35 15.3 10.2 15.6 12.45 16.4 12.45 22.8 12.45 23.4 12.05 23.85 11.6 24.4 10.8 24.4 10.0 24.4 9.05 22.9 M17.35 15.05 Q16.55 14.0 16.55 12.45 L17.7 11.15 Q20.2 12.05 20.2 14.3 L20.1 15.5 19.4 15.8 18.5 15.85 Q18.0 15.85 17.35 15.05 M-16.7 7.0 L-15.95 7.15 Q-15.65 7.4 -15.3 8.45 L-15.0 10.05 Q-15.0 11.0 -16.35 12.55 L-18.15 14.25 -19.85 14.65 -21.5 14.85 Q-22.15 14.85 -23.35 14.1 L-24.25 12.95 -24.1 11.2 Q-24.1 8.7 -21.45 7.25 -19.6 6.25 -18.35 6.25 L-17.5 6.4 -17.1 6.7 -16.7 7.0 M-5.25 22.25 L-4.1 21.0 -2.95 20.7 -1.75 20.55 Q-0.85 20.55 -0.2 21.55 0.6 22.75 0.6 24.85 0.6 28.25 -0.5 30.3 -1.55 32.3 -3.2 32.3 L-4.35 31.9 -5.4 31.2 Q-5.85 30.7 -6.1 28.85 L-6.3 26.6 -6.15 24.1 Q-6.15 23.4 -5.25 22.25" fill="#ffdfbf" fill-rule="evenodd" stroke="none"/>
  </g>
</svg>
