<?xml version="1.0" encoding="UTF-8" standalone="no"?>
<svg xmlns:ffdec="https://www.free-decompiler.com/flash" xmlns:xlink="http://www.w3.org/1999/xlink" ffdec:objectType="shape" height="38.6px" width="43.55px" xmlns="http://www.w3.org/2000/svg">
  <g transform="matrix(1.0, 0.0, 0.0, 1.0, 22.2, 3.65)">
    <path d="M-5.45 -2.55 Q-6.25 -0.9 -11.35 4.25 L-18.4 11.35 Q-20.5 13.65 -20.55 15.1 -20.85 23.35 -17.45 26.3 -15.75 27.9 -12.45 28.05 -11.45 28.05 -10.7 25.95 L-8.85 19.85 -6.75 16.25 Q-5.35 14.05 -5.3 12.65 -5.25 11.55 -5.7 10.5 -6.35 9.1 -7.3 9.1 -10.95 8.95 -13.85 13.0 -14.95 14.55 -17.1 18.95 L-17.6 20.15 Q-16.55 15.2 -16.5 14.05 -16.5 13.4 -17.45 13.15 L-18.6 12.85 Q-16.1 12.75 -14.25 11.25 L-12.05 9.25 Q-8.85 7.4 -7.2 7.45 L-5.5 7.95 -3.7 8.45 -1.55 7.65 6.1 6.95 Q9.2 7.05 9.2 7.4 3.25 7.45 -0.4 10.35 -3.6 12.95 -3.75 16.8 -3.8 18.05 -1.75 18.75 L0.7 19.2 Q4.55 19.35 11.0 18.2 L11.05 18.2 Q15.5 16.7 17.5 15.35 19.6 13.9 19.65 12.2 19.7 11.05 15.85 7.6 L4.95 -2.45 Q8.95 0.3 14.8 5.15 21.4 10.75 21.35 11.95 21.3 14.1 19.75 15.95 17.85 18.3 14.3 19.05 L16.25 24.55 Q16.85 26.05 16.85 26.9 16.65 32.85 6.25 32.5 L2.6 31.95 0.85 33.75 Q-0.35 34.45 -4.3 34.95 -7.65 34.85 -9.25 33.55 -10.85 32.25 -11.2 29.4 -15.25 30.45 -19.9 26.85 -20.95 26.0 -21.65 22.65 -22.3 19.4 -22.15 15.55 -22.05 12.6 -16.25 6.55 -10.95 1.0 -5.45 -2.55 M5.75 20.8 L3.85 20.8 3.45 23.85 3.6 31.15 7.05 31.3 Q13.9 31.55 14.6 27.75 15.1 25.25 12.65 19.55 L5.75 20.8 M1.4 31.85 Q2.1 30.6 2.25 25.9 2.4 22.45 0.2 21.05 -2.85 19.65 -4.75 18.15 L-7.35 20.9 Q-9.4 23.95 -9.55 28.8 -9.65 31.2 -7.9 32.3 -6.4 33.3 -3.05 33.4 0.4 33.55 1.4 31.85" fill="#aa6a40" fill-rule="evenodd" stroke="none"/>
    <path d="M-5.45 -2.55 L-1.85 -3.4 -0.15 -3.65 2.45 -3.2 4.95 -2.45 15.85 7.6 Q19.7 11.05 19.65 12.2 19.6 13.9 17.5 15.35 15.5 16.7 11.05 18.2 L11.0 18.2 Q4.55 19.35 0.7 19.2 L-1.75 18.75 Q-3.8 18.05 -3.75 16.8 -3.6 12.95 -0.4 10.35 3.25 7.45 9.2 7.4 9.2 7.05 6.1 6.95 L-1.55 7.65 -3.7 8.45 -5.5 7.95 -7.2 7.45 Q-8.85 7.4 -12.05 9.25 L-14.25 11.25 Q-16.1 12.75 -18.6 12.85 L-17.45 13.15 Q-16.5 13.4 -16.5 14.05 -16.55 15.2 -17.6 20.15 L-17.1 18.95 Q-14.95 14.55 -13.85 13.0 -10.95 8.95 -7.3 9.1 -6.35 9.1 -5.7 10.5 -5.25 11.55 -5.3 12.65 -5.35 14.05 -6.75 16.25 L-8.85 19.85 -10.7 25.95 Q-11.45 28.05 -12.45 28.05 -15.75 27.9 -17.45 26.3 -20.85 23.35 -20.55 15.1 -20.5 13.65 -18.4 11.35 L-11.35 4.25 Q-6.25 -0.9 -5.45 -2.55 M17.5 12.2 Q17.55 10.6 10.7 4.5 3.8 -1.6 1.85 -1.65 1.25 -1.7 -0.2 0.65 -0.75 -1.15 -1.7 -1.2 L-4.65 0.9 -8.05 3.6 Q-7.1 4.5 -6.15 4.8 L-2.0 5.45 1.85 5.25 6.4 4.3 13.65 8.65 12.45 8.3 Q6.85 6.65 1.9 9.35 -2.45 11.8 -2.55 14.8 -2.6 15.85 -1.85 16.25 -0.85 16.8 2.45 16.95 9.35 17.15 13.35 15.95 17.4 14.8 17.5 12.2 M5.75 20.8 L12.65 19.55 Q15.1 25.25 14.6 27.75 13.9 31.55 7.05 31.3 L3.6 31.15 3.45 23.85 3.85 20.8 5.75 20.8 M6.75 21.65 Q4.35 22.55 4.25 24.45 4.15 27.55 4.45 28.4 4.85 29.65 6.45 29.75 9.3 29.85 11.15 29.05 13.4 28.15 13.45 26.4 13.5 25.3 12.8 23.45 12.0 21.05 10.8 21.0 8.6 20.95 6.75 21.65 M0.25 29.6 Q0.65 28.75 0.8 24.75 0.85 23.5 -0.5 22.4 -1.9 21.3 -3.6 21.3 -8.05 21.25 -8.3 28.7 -8.35 29.7 -7.65 30.2 -6.55 31.1 -3.6 31.2 -0.6 31.3 0.25 29.6 M1.4 31.85 Q0.4 33.55 -3.05 33.4 -6.4 33.3 -7.9 32.3 -9.65 31.2 -9.55 28.8 -9.4 23.95 -7.35 20.9 L-4.75 18.15 Q-2.85 19.65 0.2 21.05 2.4 22.45 2.25 25.9 2.1 30.6 1.4 31.85 M-13.35 13.4 L-14.3 15.45 -16.15 18.65 Q-17.7 21.4 -17.75 23.3 -17.8 23.95 -16.1 24.95 -14.25 25.95 -13.05 26.0 -6.35 14.3 -6.3 12.5 -6.25 11.5 -8.15 10.8 -10.15 10.1 -11.55 11.2 -12.65 12.05 -13.35 13.4" fill="#f1b67a" fill-rule="evenodd" stroke="none"/>
    <path d="M15.1 12.15 Q15.15 11.05 14.05 10.1 12.35 8.7 8.45 8.55 5.15 8.45 2.4 10.45 0.25 12.0 -0.65 13.8 L-0.4 14.55 3.6 14.4 7.05 14.15 Q11.0 14.35 13.3 13.45 15.05 12.8 15.1 12.15 M17.5 12.2 Q17.4 14.8 13.35 15.95 9.35 17.15 2.45 16.95 -0.85 16.8 -1.85 16.25 -2.6 15.85 -2.55 14.8 -2.45 11.8 1.9 9.35 6.85 6.65 12.45 8.3 L13.65 8.65 6.4 4.3 1.85 5.25 -2.0 5.45 -6.15 4.8 Q-7.1 4.5 -8.05 3.6 L-4.65 0.9 -1.7 -1.2 Q-0.75 -1.15 -0.2 0.65 1.25 -1.7 1.85 -1.65 3.8 -1.6 10.7 4.5 17.55 10.6 17.5 12.2 M6.75 21.65 Q8.6 20.95 10.8 21.0 12.0 21.05 12.8 23.45 13.5 25.3 13.45 26.4 13.4 28.15 11.15 29.05 9.3 29.85 6.45 29.75 4.85 29.65 4.45 28.4 4.15 27.55 4.25 24.45 4.35 22.55 6.75 21.65 M10.6 26.8 Q11.2 26.2 11.25 25.1 11.3 23.35 8.65 23.15 6.05 22.95 5.95 26.35 L6.2 26.65 7.6 27.5 Q9.7 27.9 10.6 26.8 M0.25 29.6 Q-0.6 31.3 -3.6 31.2 -6.55 31.1 -7.65 30.2 -8.35 29.7 -8.3 28.7 -8.05 21.25 -3.6 21.3 -1.9 21.3 -0.5 22.4 0.85 23.5 0.8 24.75 0.65 28.75 0.25 29.6 M-13.35 13.4 Q-12.65 12.05 -11.55 11.2 -10.15 10.1 -8.15 10.8 -6.25 11.5 -6.3 12.5 -6.35 14.3 -13.05 26.0 -14.25 25.95 -16.1 24.95 -17.8 23.95 -17.75 23.3 -17.7 21.4 -16.15 18.65 L-14.3 15.45 -13.35 13.4 M-3.25 29.0 Q-2.15 29.05 -1.35 28.4 -0.5 27.7 -0.45 26.7 -0.45 25.7 -1.2 24.95 -2.0 24.25 -3.1 24.2 -4.25 24.15 -5.1 24.85 -5.9 25.5 -5.9 26.5 -5.95 27.5 -5.25 28.3 -4.4 28.95 -3.25 29.0 M-10.45 14.7 Q-11.1 14.85 -13.0 17.35 -15.1 20.2 -15.15 21.85 L-15.1 22.55 -14.9 22.55 -14.15 22.55 Q-13.45 22.2 -11.6 19.15 -9.7 16.1 -9.7 15.55 -9.7 14.85 -9.95 14.7 L-10.45 14.7" fill="#ffce9d" fill-rule="evenodd" stroke="none"/>
    <path d="M15.1 12.15 Q15.05 12.8 13.3 13.45 11.0 14.35 7.05 14.15 L3.6 14.4 -0.4 14.55 -0.65 13.8 Q0.25 12.0 2.4 10.45 5.15 8.45 8.45 8.55 12.35 8.7 14.05 10.1 15.15 11.05 15.1 12.15 M10.6 26.8 Q9.7 27.9 7.6 27.5 L6.2 26.65 5.95 26.35 Q6.05 22.95 8.65 23.15 11.3 23.35 11.25 25.1 11.2 26.2 10.6 26.8 M-10.45 14.7 L-9.95 14.7 Q-9.7 14.85 -9.7 15.55 -9.7 16.1 -11.6 19.15 -13.45 22.2 -14.15 22.55 L-14.9 22.55 -15.1 22.55 -15.15 21.85 Q-15.1 20.2 -13.0 17.35 -11.1 14.85 -10.45 14.7 M-3.25 29.0 Q-4.4 28.95 -5.25 28.3 -5.95 27.5 -5.9 26.5 -5.9 25.5 -5.1 24.85 -4.25 24.15 -3.1 24.2 -2.0 24.25 -1.2 24.95 -0.45 25.7 -0.45 26.7 -0.5 27.7 -1.35 28.4 -2.15 29.05 -3.25 29.0" fill="#ffdfbf" fill-rule="evenodd" stroke="none"/>
  </g>
</svg>
