<?xml version="1.0" encoding="UTF-8" standalone="no"?>
<svg xmlns:ffdec="https://www.free-decompiler.com/flash" xmlns:xlink="http://www.w3.org/1999/xlink" ffdec:objectType="shape" height="68.15px" width="60.4px" xmlns="http://www.w3.org/2000/svg">
  <g transform="matrix(1.0, 0.0, 0.0, 1.0, 22.85, 67.15)">
    <path d="M25.2 -36.45 L25.2 -36.35 25.2 -36.2 25.3 -35.95 24.55 -35.9 Q20.5 -35.4 17.55 -31.0 15.9 -28.5 15.05 -25.45 L15.05 -25.4 14.75 -24.05 14.5 -22.8 Q14.3 -21.4 14.25 -19.9 L14.2 -18.9 14.25 -17.8 Q14.35 -15.0 15.0 -12.5 L15.05 -12.4 15.1 -12.15 15.2 -11.85 15.4 -11.2 15.45 -11.05 Q16.25 -8.8 17.55 -6.85 19.25 -4.25 21.35 -3.0 22.75 -2.15 24.3 -1.9 L24.55 -1.9 24.7 -1.8 24.75 -1.85 25.5 -1.85 26.05 -1.85 25.8 -1.75 25.2 -1.35 23.65 -1.55 22.4 -1.9 Q19.45 -3.1 17.15 -6.55 15.9 -8.4 15.15 -10.45 13.7 -14.25 13.7 -18.9 13.7 -20.95 14.0 -22.85 14.2 -24.3 14.55 -25.55 L15.3 -31.4 15.45 -36.35 15.45 -36.95 15.45 -37.4 15.45 -38.3 Q15.1 -44.95 11.8 -50.55 L11.9 -50.65 11.95 -50.8 11.85 -50.85 11.8 -50.85 11.65 -50.9 11.6 -50.9 11.55 -51.0 Q9.25 -54.65 5.6 -57.9 L5.6 -57.85 5.1 -58.3 5.0 -58.4 Q-0.4 -63.05 -7.0 -65.0 L-7.6 -65.05 -7.8 -65.1 -8.0 -65.1 -8.05 -65.1 -8.6 -65.15 -12.2 -65.1 -12.8 -65.05 -13.95 -65.0 -11.15 -65.6 -7.0 -65.45 -3.8 -64.3 Q1.15 -62.3 5.35 -58.7 L5.45 -58.6 6.0 -58.1 Q9.65 -54.9 12.0 -51.15 L12.0 -51.05 11.9 -50.9 12.0 -50.8 12.15 -50.75 12.25 -50.75 14.5 -45.9 15.35 -42.85 15.65 -41.15 15.75 -40.2 15.8 -40.2 15.95 -38.3 15.95 -37.4 15.95 -36.95 15.95 -36.35 15.8 -31.35 15.5 -28.2 Q16.15 -29.85 17.15 -31.3 20.2 -35.9 24.5 -36.4 L25.2 -36.45 M27.85 -31.7 L26.95 -31.55 Q26.3 -31.4 25.7 -31.05 L25.6 -31.05 25.35 -30.95 25.35 -30.9 Q23.65 -30.0 22.35 -28.0 19.85 -24.2 19.85 -18.9 19.85 -13.6 22.35 -9.85 L22.35 -9.8 Q23.65 -7.85 25.35 -6.85 L25.65 -6.65 26.95 -6.25 27.85 -6.1 25.75 -6.1 25.45 -6.2 25.05 -6.45 25.1 -6.4 Q23.35 -7.45 21.95 -9.55 21.0 -10.95 20.4 -12.55 19.35 -15.4 19.35 -18.9 19.35 -24.4 21.95 -28.3 L21.95 -28.25 Q23.35 -30.4 25.1 -31.35 L25.05 -31.35 25.45 -31.5 25.5 -31.55 25.8 -31.7 27.85 -31.7" fill="#ffffff" fill-rule="evenodd" stroke="none"/>
    <path d="M21.3 -50.85 L21.5 -50.55 12.25 -50.75 12.15 -50.75 12.0 -50.8 11.9 -50.9 12.0 -51.05 12.15 -51.1 21.3 -50.85 M11.2 -49.75 L11.0 -50.15 11.5 -50.85 11.6 -50.9 11.65 -50.9 11.8 -50.85 11.85 -50.85 11.95 -50.8 11.9 -50.65 11.8 -50.55 11.2 -49.75 M27.85 -14.8 L27.45 -14.9 27.4 -14.9 27.25 -15.0 Q26.7 -15.35 26.25 -16.0 25.45 -17.25 25.45 -18.9 25.45 -20.55 26.25 -21.75 L26.25 -21.8 27.25 -22.75 27.45 -22.85 27.85 -23.0 27.85 -22.95 28.25 -23.05 29.0 -22.9 29.5 -22.65 30.35 -21.75 Q31.15 -20.55 31.15 -18.9 31.15 -17.25 30.35 -16.0 L29.5 -15.1 29.5 -15.05 28.95 -14.85 28.25 -14.75 27.85 -14.8 M28.25 -15.25 L28.8 -15.3 28.85 -15.35 29.25 -15.5 29.2 -15.5 29.95 -16.25 Q30.65 -17.35 30.65 -18.9 30.65 -20.45 29.95 -21.5 L29.25 -22.2 29.2 -22.25 28.8 -22.45 28.85 -22.45 28.25 -22.55 28.0 -22.5 27.95 -22.5 27.65 -22.4 27.5 -22.35 27.5 -22.3 Q27.0 -22.05 26.65 -21.5 25.95 -20.45 25.95 -18.9 25.95 -17.35 26.65 -16.25 L26.65 -16.3 Q27.0 -15.75 27.5 -15.45 L27.6 -15.35 27.95 -15.3 28.0 -15.25 28.25 -15.25" fill="#4a4a4a" fill-rule="evenodd" stroke="none"/>
    <path d="M16.95 -14.95 L17.1 -14.35 Q17.6 -12.2 18.65 -10.4 L18.8 -10.15 19.15 -9.55 19.3 -9.35 19.9 -8.55 20.5 -7.85 21.1 -7.3 21.15 -7.25 Q22.95 -5.7 25.2 -5.6 L28.45 -5.6 30.35 -5.9 30.85 -6.1 31.95 -6.7 Q33.4 -7.65 34.65 -9.55 L34.7 -9.6 33.25 -6.95 32.95 -6.5 32.85 -6.4 31.55 -4.8 Q29.25 -2.5 26.45 -2.15 L26.1 -1.95 26.05 -1.85 25.5 -1.85 24.75 -1.85 24.7 -1.8 24.55 -1.9 24.3 -1.9 Q22.75 -2.15 21.35 -3.0 20.05 -4.45 19.05 -7.1 L17.9 -10.8 17.25 -13.25 17.25 -13.3 16.95 -14.85 16.95 -14.95 M25.2 -1.35 Q23.05 0.0 20.5 0.0 L19.45 -0.05 Q17.45 -0.3 15.7 -1.45 L15.45 -1.6 14.0 -2.8 13.15 -3.65 13.2 -3.65 11.8 -5.45 Q8.05 -11.0 8.05 -18.9 8.05 -24.25 9.75 -28.5 L9.85 -28.7 Q10.55 -30.55 11.65 -32.15 L11.8 -32.35 13.7 -34.75 13.65 -34.25 Q13.55 -31.0 13.05 -27.9 12.4 -28.65 11.05 -28.65 L10.85 -28.65 10.5 -28.15 Q9.45 -26.6 9.1 -24.8 L8.5 -22.15 8.4 -20.15 Q8.4 -17.25 8.55 -16.0 8.8 -14.1 9.75 -11.6 10.55 -9.35 12.9 -6.1 L15.0 -3.05 15.0 -2.9 16.1 -2.65 Q16.4 -2.65 17.7 -3.5 L18.1 -3.15 Q19.75 -1.8 21.45 -1.65 L25.0 -1.35 25.2 -1.35 M13.75 -10.25 Q12.2 -14.1 12.2 -18.9 12.2 -20.9 12.45 -22.7 L12.55 -23.2 13.2 -26.0 Q14.1 -30.4 14.2 -35.25 L14.3 -35.3 14.4 -35.5 14.45 -35.7 14.45 -36.35 14.45 -37.4 14.45 -38.3 Q14.1 -44.5 11.25 -49.7 L11.25 -49.75 11.2 -49.75 11.8 -50.55 Q15.1 -44.95 15.45 -38.3 L15.45 -37.4 15.45 -36.95 15.45 -36.35 15.3 -31.4 14.55 -25.55 Q14.2 -24.3 14.0 -22.85 13.7 -20.95 13.7 -18.9 13.7 -14.25 15.15 -10.45 L13.75 -10.25 M-7.6 -64.5 L-15.8 -64.2 -15.9 -64.2 -19.25 -63.9 -13.95 -65.0 -12.8 -65.05 -12.2 -65.1 -8.6 -65.15 -8.05 -65.1 -8.0 -65.1 -7.8 -65.1 -7.6 -65.05 -7.6 -64.5 M20.4 -12.55 Q21.0 -10.95 21.95 -9.55 23.35 -7.45 25.1 -6.4 L25.05 -6.45 25.45 -6.2 25.75 -6.1 25.2 -6.1 Q21.9 -6.25 19.55 -9.85 18.75 -11.0 18.25 -12.35 L18.95 -12.35 20.0 -12.5 20.4 -12.55" fill="#8a8a8a" fill-rule="evenodd" stroke="none"/>
    <path d="M21.5 -50.55 L21.55 -50.55 23.35 -46.9 15.15 -46.0 14.5 -45.9 12.25 -50.75 21.5 -50.55 M24.3 -43.95 L24.7 -42.35 15.65 -41.15 15.35 -42.85 24.3 -43.95 M24.85 -41.5 L25.2 -38.3 25.2 -37.4 25.2 -36.7 25.2 -36.45 24.5 -36.4 Q20.2 -35.9 17.15 -31.3 16.15 -29.85 15.5 -28.2 L15.8 -31.35 15.95 -36.35 15.95 -36.95 15.95 -37.4 15.95 -38.3 15.8 -40.2 21.95 -41.15 24.85 -41.5 M27.05 -35.55 Q28.25 -35.3 29.4 -34.65 L26.85 -32.2 25.2 -32.2 Q23.6 -32.15 22.2 -31.3 L27.05 -35.55 M30.7 -33.75 Q32.05 -32.65 33.2 -30.95 L33.05 -31.15 32.55 -30.65 32.0 -31.05 30.4 -31.85 30.4 -31.8 29.05 -32.15 30.7 -33.75 M33.75 -30.1 L34.65 -28.3 33.45 -29.8 33.75 -30.1 M19.15 -28.3 Q17.45 -25.75 16.9 -22.55 L14.25 -19.9 Q14.3 -21.4 14.5 -22.8 L14.75 -24.05 19.15 -28.3 M16.6 -20.1 L16.55 -18.9 Q16.55 -16.85 16.95 -15.0 L16.95 -14.95 15.05 -12.6 15.0 -12.5 Q14.35 -15.0 14.25 -17.8 L16.6 -20.1 M13.05 -27.9 L12.7 -26.1 12.05 -23.35 11.95 -22.8 11.95 -22.75 Q11.7 -20.9 11.7 -18.9 11.7 -11.65 15.15 -6.55 16.4 -4.7 17.7 -3.5 16.4 -2.65 16.1 -2.65 L15.0 -2.9 15.0 -3.05 12.9 -6.1 Q10.55 -9.35 9.75 -11.6 8.8 -14.1 8.55 -16.0 8.4 -17.25 8.4 -20.15 L8.5 -22.15 9.1 -24.8 Q9.45 -26.6 10.5 -28.15 L10.85 -28.65 11.05 -28.65 Q12.4 -28.65 13.05 -27.9 M11.0 -50.15 Q8.9 -53.75 5.6 -56.8 L4.9 -57.5 Q-0.4 -62.4 -7.0 -64.45 L-7.6 -64.5 -7.6 -65.05 -7.0 -65.0 Q-0.4 -63.05 5.0 -58.4 L5.1 -58.3 5.6 -57.85 5.6 -57.9 Q9.25 -54.65 11.55 -51.0 L11.6 -50.9 11.5 -50.85 11.0 -50.15 M-11.15 -65.6 L-8.35 -66.15 -8.1 -66.2 -7.85 -66.25 -7.0 -66.45 Q-1.55 -66.3 3.3 -64.7 L-3.8 -64.3 -7.0 -65.45 -11.15 -65.6 M25.8 -31.7 L25.5 -31.55 25.45 -31.5 25.05 -31.35 25.1 -31.35 Q23.35 -30.4 21.95 -28.25 L21.95 -28.3 Q19.35 -24.4 19.35 -18.9 19.35 -15.4 20.4 -12.55 L20.0 -12.5 18.95 -12.35 18.25 -12.35 Q17.05 -15.25 17.05 -18.9 17.05 -24.2 19.55 -28.0 21.9 -31.55 25.2 -31.7 L25.8 -31.7 M11.5 -25.6 Q10.25 -25.1 9.7 -22.2 9.3 -20.2 9.3 -17.95 L10.0 -14.15 Q10.95 -10.35 12.05 -10.35 12.3 -10.35 12.25 -10.45 L12.3 -10.65 11.4 -13.8 Q10.5 -16.75 10.5 -17.95 10.5 -20.3 11.05 -22.8 L11.55 -25.3 11.5 -25.6 M17.25 -13.25 L17.9 -10.8 19.05 -7.1 Q20.05 -4.45 21.35 -3.0 19.25 -4.25 17.55 -6.85 16.25 -8.8 15.45 -11.05 L17.25 -13.25 M28.25 -15.25 L28.0 -15.25 27.95 -15.3 27.6 -15.35 27.5 -15.45 Q27.0 -15.75 26.65 -16.3 L26.65 -16.25 Q25.95 -17.35 25.95 -18.9 25.95 -20.45 26.65 -21.5 27.0 -22.05 27.5 -22.3 L27.5 -22.35 27.65 -22.4 27.95 -22.5 28.0 -22.5 28.25 -22.55 28.85 -22.45 28.8 -22.45 29.2 -22.25 29.25 -22.2 29.95 -21.5 Q30.65 -20.45 30.65 -18.9 30.65 -17.35 29.95 -16.25 L29.2 -15.5 29.25 -15.5 28.85 -15.35 28.8 -15.3 28.25 -15.25" fill="#b4b4b4" fill-rule="evenodd" stroke="none"/>
    <path d="M3.3 -64.7 L5.0 -64.15 Q10.7 -61.95 15.45 -57.75 19.0 -54.55 21.3 -50.85 L12.15 -51.1 12.0 -51.05 12.0 -51.15 Q9.65 -54.9 6.0 -58.1 L5.45 -58.6 5.35 -58.7 Q1.15 -62.3 -3.8 -64.3 L3.3 -64.7 M23.35 -46.9 L23.4 -46.7 23.45 -46.65 23.75 -45.75 24.2 -44.3 24.3 -43.95 15.35 -42.85 14.5 -45.9 15.15 -46.0 23.35 -46.9 M24.7 -42.35 L24.85 -41.5 21.95 -41.15 15.8 -40.2 15.75 -40.2 15.65 -41.15 24.7 -42.35 M25.3 -35.95 L25.35 -35.85 Q25.5 -35.7 25.7 -35.7 L26.45 -35.65 27.05 -35.55 22.2 -31.3 21.65 -30.95 21.1 -30.5 19.9 -29.25 19.55 -28.8 19.5 -28.75 19.45 -28.65 19.45 -28.6 19.2 -28.35 19.15 -28.3 14.75 -24.05 15.05 -25.4 15.05 -25.45 Q15.9 -28.5 17.55 -31.0 20.5 -35.4 24.55 -35.9 L25.3 -35.95 M29.4 -34.65 L30.7 -33.75 29.05 -32.15 28.3 -32.2 26.85 -32.2 29.4 -34.65 M33.2 -30.95 L33.25 -30.85 33.75 -30.1 33.45 -29.8 33.0 -30.25 32.55 -30.65 33.05 -31.15 33.2 -30.95 M16.9 -22.55 L16.7 -21.4 16.6 -20.4 16.6 -20.15 16.6 -20.1 14.25 -17.8 14.2 -18.9 14.25 -19.9 16.9 -22.55 M27.85 -6.1 L26.95 -6.25 25.65 -6.65 25.35 -6.85 Q23.65 -7.85 22.35 -9.8 L22.35 -9.85 Q19.85 -13.6 19.85 -18.9 19.85 -24.2 22.35 -28.0 23.65 -30.0 25.35 -30.9 L25.35 -30.95 25.6 -31.05 25.7 -31.05 Q26.3 -31.4 26.95 -31.55 L27.85 -31.7 28.3 -31.7 30.25 -31.35 31.7 -30.65 Q33.05 -29.7 34.25 -28.0 L35.15 -26.5 35.3 -26.35 Q36.55 -22.95 36.55 -18.9 36.55 -14.85 34.75 -10.65 L34.25 -9.85 34.25 -9.8 Q33.1 -8.05 31.7 -7.1 L31.65 -7.1 30.2 -6.4 30.2 -6.35 28.45 -6.1 27.85 -6.1 M11.5 -25.6 L11.55 -25.3 11.05 -22.8 Q10.5 -20.3 10.5 -17.95 10.5 -16.75 11.4 -13.8 L12.3 -10.65 12.25 -10.45 Q12.3 -10.35 12.05 -10.35 10.95 -10.35 10.0 -14.15 L9.3 -17.95 Q9.3 -20.2 9.7 -22.2 10.25 -25.1 11.5 -25.6 M15.0 -12.5 L15.05 -12.6 16.95 -14.95 16.95 -14.85 17.25 -13.3 17.25 -13.25 15.45 -11.05 15.4 -11.2 15.2 -11.85 15.1 -12.15 15.05 -12.4 15.0 -12.5 M27.85 -14.8 L28.25 -14.75 28.95 -14.85 29.5 -15.05 29.5 -15.1 30.35 -16.0 Q31.15 -17.25 31.15 -18.9 31.15 -20.55 30.35 -21.75 L29.5 -22.65 29.0 -22.9 28.25 -23.05 27.85 -22.95 27.85 -23.0 27.45 -22.85 27.25 -22.75 26.25 -21.8 26.25 -21.75 Q25.45 -20.55 25.45 -18.9 25.45 -17.25 26.25 -16.0 26.7 -15.35 27.25 -15.0 L27.4 -14.9 27.45 -14.9 27.85 -14.8" fill="#e0e0e0" fill-rule="evenodd" stroke="none"/>
    <path d="M21.3 -50.85 Q19.0 -54.55 15.45 -57.75 10.7 -61.95 5.0 -64.15 L3.3 -64.7 Q-1.55 -66.3 -7.0 -66.45 L-7.85 -66.25 -8.1 -66.2 -8.35 -66.15 -11.15 -65.6 -13.95 -65.0 -19.25 -63.9 -15.9 -64.2 -15.8 -64.2 -7.6 -64.5 -7.0 -64.45 Q-0.4 -62.4 4.9 -57.5 L5.6 -56.8 Q8.9 -53.75 11.0 -50.15 L11.2 -49.75 11.25 -49.75 11.25 -49.7 Q14.1 -44.5 14.45 -38.3 L14.45 -37.4 14.45 -36.35 14.45 -35.7 14.4 -35.5 14.3 -35.3 14.2 -35.25 Q14.1 -30.4 13.2 -26.0 L12.55 -23.2 12.45 -22.7 Q12.2 -20.9 12.2 -18.9 12.2 -14.1 13.75 -10.25 14.5 -8.45 15.55 -6.85 L15.55 -6.8 Q18.4 -2.45 22.4 -1.9 L23.65 -1.55 25.2 -1.35 25.8 -1.75 26.05 -1.85 26.1 -1.95 26.45 -2.15 Q29.25 -2.5 31.55 -4.8 L32.85 -6.4 32.95 -6.5 33.25 -6.95 34.7 -9.6 34.65 -9.55 Q33.4 -7.65 31.95 -6.7 L30.85 -6.1 30.35 -5.9 28.45 -5.6 25.2 -5.6 Q22.95 -5.7 21.15 -7.25 L21.1 -7.3 20.5 -7.85 19.9 -8.55 19.3 -9.35 19.15 -9.55 18.8 -10.15 18.65 -10.4 Q17.6 -12.2 17.1 -14.35 L16.95 -14.95 16.95 -15.0 Q16.55 -16.85 16.55 -18.9 L16.6 -20.1 16.6 -20.15 16.6 -20.4 16.7 -21.4 16.9 -22.55 Q17.45 -25.75 19.15 -28.3 L19.2 -28.35 19.45 -28.6 19.45 -28.65 19.5 -28.75 19.55 -28.8 19.9 -29.25 21.1 -30.5 21.65 -30.95 22.2 -31.3 Q23.6 -32.15 25.2 -32.2 L26.85 -32.2 28.3 -32.2 29.05 -32.15 30.4 -31.8 30.4 -31.85 32.0 -31.05 32.55 -30.65 33.0 -30.25 33.45 -29.8 34.65 -28.3 33.75 -30.1 33.25 -30.85 33.2 -30.95 Q32.05 -32.65 30.7 -33.75 L29.4 -34.65 Q28.25 -35.3 27.05 -35.55 L26.45 -35.65 25.7 -35.7 Q25.5 -35.7 25.35 -35.85 L25.3 -35.95 25.2 -36.2 25.2 -36.35 25.2 -36.45 25.2 -36.7 25.2 -37.4 25.2 -38.3 24.85 -41.5 24.7 -42.35 24.3 -43.95 24.2 -44.3 23.75 -45.75 23.45 -46.65 23.4 -46.7 23.35 -46.9 21.55 -50.55 21.5 -50.55 21.3 -50.85 M13.05 -27.9 Q13.55 -31.0 13.65 -34.25 L13.7 -34.75 11.8 -32.35 11.65 -32.15 Q10.55 -30.55 9.85 -28.7 L9.75 -28.5 Q8.05 -24.25 8.05 -18.9 8.05 -11.0 11.8 -5.45 L13.2 -3.65 13.15 -3.65 14.0 -2.8 15.45 -1.6 15.7 -1.45 Q17.45 -0.3 19.45 -0.05 L20.5 0.0 Q23.05 0.0 25.2 -1.35 L25.0 -1.35 21.45 -1.65 Q19.75 -1.8 18.1 -3.15 L17.7 -3.5 Q16.4 -4.7 15.15 -6.55 11.7 -11.65 11.7 -18.9 11.7 -20.9 11.95 -22.75 L11.95 -22.8 12.05 -23.35 12.7 -26.1 13.05 -27.9 M5.45 -64.8 Q11.3 -62.55 16.2 -58.25 20.0 -54.8 22.4 -50.85 25.85 -45.15 26.2 -38.3 L26.2 -37.4 26.2 -36.7 26.2 -36.65 26.55 -36.65 Q30.9 -36.15 34.1 -31.4 35.65 -29.1 36.5 -26.3 37.55 -22.9 37.55 -18.9 37.55 -11.6 34.1 -6.4 30.95 -1.65 26.6 -1.15 L26.4 -0.95 Q23.7 1.0 20.5 1.0 14.9 1.05 10.95 -4.9 7.05 -10.7 7.05 -18.9 7.05 -27.1 10.95 -32.9 L13.45 -35.9 13.45 -36.35 13.45 -37.4 13.45 -38.3 Q13.1 -44.3 10.3 -49.4 8.2 -53.1 4.8 -56.35 L4.1 -57.05 Q-0.9 -61.6 -7.0 -63.65 -11.2 -64.15 -15.9 -63.45 L-16.8 -63.3 -16.85 -63.3 -19.55 -62.95 -22.85 -63.05 -18.6 -64.75 -14.65 -65.8 Q-12.05 -66.55 -10.05 -66.7 L-7.0 -67.15 Q-0.35 -67.0 5.45 -64.8 M27.85 -31.7 L25.8 -31.7 25.2 -31.7 Q21.9 -31.55 19.55 -28.0 17.05 -24.2 17.05 -18.9 17.05 -15.25 18.25 -12.35 18.75 -11.0 19.55 -9.85 21.9 -6.25 25.2 -6.1 L25.75 -6.1 27.85 -6.1 28.45 -6.1 30.2 -6.35 30.2 -6.4 31.65 -7.1 31.7 -7.1 Q33.1 -8.05 34.25 -9.8 L34.25 -9.85 34.75 -10.65 Q36.55 -14.85 36.55 -18.9 36.55 -22.95 35.3 -26.35 L35.15 -26.5 34.25 -28.0 Q33.05 -29.7 31.7 -30.65 L30.25 -31.35 28.3 -31.7 27.85 -31.7" fill="#464646" fill-rule="evenodd" stroke="none"/>
    <path d="M22.4 -1.9 Q18.4 -2.45 15.55 -6.8 L15.55 -6.85 Q14.5 -8.45 13.75 -10.25 L15.15 -10.45 Q15.9 -8.4 17.15 -6.55 19.45 -3.1 22.4 -1.9" fill="#646464" fill-rule="evenodd" stroke="none"/>
  </g>
</svg>
