<?xml version="1.0" encoding="UTF-8" standalone="no"?>
<svg xmlns:ffdec="https://www.free-decompiler.com/flash" xmlns:xlink="http://www.w3.org/1999/xlink" ffdec:objectType="shape" height="36.95px" width="19.95px" xmlns="http://www.w3.org/2000/svg">
  <g transform="matrix(1.0, 0.0, 0.0, 1.0, -7.05, 35.95)">
    <path d="M24.95 -1.2 Q22.9 0.0 20.5 0.0 L19.45 -0.05 Q17.45 -0.3 15.7 -1.45 L15.45 -1.6 14.0 -2.8 13.15 -3.65 13.2 -3.65 11.8 -5.45 Q8.05 -11.0 8.05 -18.9 8.05 -24.25 9.75 -28.5 L9.85 -28.7 Q10.55 -30.55 11.65 -32.15 L11.8 -32.35 13.65 -34.7 13.7 -34.75 13.65 -34.35 13.65 -34.25 Q13.55 -31.0 13.05 -27.9 12.4 -28.65 11.05 -28.65 L10.85 -28.65 10.5 -28.15 Q9.45 -26.6 9.1 -24.8 L8.5 -22.15 8.4 -20.15 Q8.4 -17.25 8.55 -16.0 8.8 -14.1 9.75 -11.6 10.55 -9.35 12.9 -6.1 L15.0 -3.05 15.0 -2.9 16.1 -2.65 Q16.4 -2.65 17.7 -3.5 L18.1 -3.15 Q19.75 -1.8 21.45 -1.65 L24.15 -1.4 25.0 -1.35 25.2 -1.35 24.95 -1.2" fill="#8a8a8a" fill-rule="evenodd" stroke="none"/>
    <path d="M17.7 -3.5 Q16.4 -2.65 16.1 -2.65 L15.0 -2.9 15.0 -3.05 12.9 -6.1 Q10.55 -9.35 9.75 -11.6 8.8 -14.1 8.55 -16.0 8.4 -17.25 8.4 -20.15 L8.5 -22.15 9.1 -24.8 Q9.45 -26.6 10.5 -28.15 L10.85 -28.65 11.05 -28.65 Q12.4 -28.65 13.05 -27.9 L12.7 -26.1 12.05 -23.35 11.95 -22.8 11.95 -22.75 Q11.7 -20.9 11.7 -18.9 11.7 -11.65 15.15 -6.55 16.4 -4.7 17.7 -3.5 M11.5 -25.6 Q10.25 -25.1 9.7 -22.2 9.3 -20.2 9.3 -17.95 L10.0 -14.15 Q10.95 -10.35 12.05 -10.35 12.3 -10.35 12.25 -10.45 L12.3 -10.65 11.4 -13.8 Q10.5 -16.75 10.5 -17.95 10.5 -20.3 11.05 -22.8 L11.55 -25.3 11.5 -25.6" fill="#b4b4b4" fill-rule="evenodd" stroke="none"/>
    <path d="M11.5 -25.6 L11.55 -25.3 11.05 -22.8 Q10.5 -20.3 10.5 -17.95 10.5 -16.75 11.4 -13.8 L12.3 -10.65 12.25 -10.45 Q12.3 -10.35 12.05 -10.35 10.95 -10.35 10.0 -14.15 L9.3 -17.95 Q9.3 -20.2 9.7 -22.2 10.25 -25.1 11.5 -25.6" fill="#e0e0e0" fill-rule="evenodd" stroke="none"/>
    <path d="M13.65 -34.7 L11.8 -32.35 11.65 -32.15 Q10.55 -30.55 9.85 -28.7 L9.75 -28.5 Q8.05 -24.25 8.05 -18.9 8.05 -11.0 11.8 -5.45 L13.2 -3.65 13.15 -3.65 14.0 -2.8 15.45 -1.6 15.7 -1.45 Q17.45 -0.3 19.45 -0.05 L20.5 0.0 Q22.9 0.0 24.95 -1.2 L27.0 -1.2 26.6 -1.15 26.4 -0.95 Q23.7 1.0 20.5 1.0 14.9 1.05 10.95 -4.9 7.05 -10.7 7.05 -18.9 7.05 -27.1 10.95 -32.9 L13.45 -35.9 13.45 -35.95 13.75 -35.35 13.65 -35.05 13.65 -34.7" fill="#464646" fill-rule="evenodd" stroke="none"/>
  </g>
</svg>
