<?xml version="1.0" encoding="UTF-8" standalone="no"?>
<svg xmlns:ffdec="https://www.free-decompiler.com/flash" xmlns:xlink="http://www.w3.org/1999/xlink" ffdec:objectType="shape" height="33.15px" width="46.95px" xmlns="http://www.w3.org/2000/svg">
  <g transform="matrix(1.0, 0.0, 0.0, 1.0, 0.0, 0.0)">
    <path d="M0.55 16.6 Q0.5 9.75 7.5 5.05 14.05 0.4 23.5 0.4 32.85 0.4 39.55 5.05 46.45 9.75 46.35 16.6 46.45 23.4 39.55 28.2 32.85 32.75 23.5 32.75 14.05 32.75 7.5 28.2 0.5 23.4 0.55 16.6" fill="#68061a" fill-rule="evenodd" stroke="none"/>
    <path d="M45.85 12.9 L41.7 14.0 41.85 14.4 46.0 13.35 Q46.35 14.9 46.35 16.6 L46.25 18.6 42.1 19.7 41.9 18.85 39.55 10.75 39.2 10.4 37.1 11.2 36.5 11.1 34.5 11.7 34.25 11.85 34.4 13.1 33.6 12.7 32.1 12.35 32.4 11.85 32.85 10.75 32.9 9.35 32.5 8.0 Q32.1 7.1 31.1 6.65 L30.25 6.3 29.25 6.35 28.85 5.7 28.4 4.8 27.6 3.75 32.65 2.4 34.65 2.4 Q37.25 3.45 39.55 5.05 L39.65 5.1 33.0 6.85 33.15 7.3 40.15 5.45 Q44.6 8.7 45.85 12.9 M45.8 20.55 L45.1 22.15 41.4 23.15 41.85 22.6 42.1 22.15 42.3 21.45 45.8 20.55 M43.8 24.25 L42.25 26.0 31.8 28.8 26.65 28.8 43.8 24.25 M38.85 28.7 L38.65 28.8 38.35 28.8 38.85 28.7 M20.1 28.8 L14.6 28.8 37.3 22.75 37.75 23.25 Q38.2 23.65 38.75 23.85 L20.1 28.8 M8.3 28.75 L7.5 28.2 Q5.1 26.55 3.55 24.7 L7.0 23.75 6.9 23.3 3.25 24.3 2.7 23.6 2.7 15.6 12.85 12.9 12.7 12.45 2.7 15.15 2.7 10.4 22.95 5.0 22.85 5.4 22.85 5.45 22.95 5.6 23.35 6.1 24.45 5.9 24.45 5.65 24.3 5.15 24.2 4.9 24.2 4.85 24.4 4.6 25.75 4.25 26.5 4.8 26.95 5.55 27.75 6.85 26.45 7.45 26.05 7.95 25.5 9.05 24.9 8.15 24.1 7.45 Q23.75 7.2 23.2 7.1 L22.15 7.25 19.65 7.95 18.6 7.05 18.3 6.95 16.65 7.1 14.2 7.75 13.95 7.95 13.95 8.3 16.1 16.25 16.45 16.25 Q18.5 15.9 20.25 15.05 L20.6 14.85 21.05 14.15 21.35 14.8 21.7 14.7 23.95 14.1 23.95 13.85 23.5 11.85 24.3 11.7 24.0 11.95 24.0 12.05 23.95 12.95 24.2 13.3 24.95 13.9 25.9 13.65 26.3 12.85 26.35 12.6 26.3 12.4 26.25 12.2 27.7 13.1 28.3 13.4 28.9 13.65 29.1 14.5 27.9 13.9 26.35 13.85 23.9 14.5 23.6 14.7 23.9 16.2 Q23.45 15.5 22.55 15.3 L21.15 15.5 Q20.1 15.6 19.35 16.4 L19.35 16.35 18.85 17.9 18.55 17.3 Q18.2 16.65 17.45 16.4 L17.05 16.4 15.75 16.65 15.1 14.75 14.75 14.7 12.75 15.4 12.45 15.45 12.95 18.05 12.5 17.1 Q12.05 16.35 11.3 16.2 L9.45 16.25 Q8.85 16.35 8.4 16.65 7.5 17.3 7.25 18.1 L7.15 18.75 7.25 20.3 8.45 24.75 8.75 25.6 Q9.1 26.6 10.1 27.05 L11.8 27.35 13.0 26.95 Q13.8 26.6 14.25 25.85 L14.45 25.1 14.6 24.05 15.2 26.05 15.45 26.35 15.65 26.35 18.0 25.55 18.1 25.65 18.35 25.65 20.6 24.85 20.25 23.1 21.4 24.1 Q22.1 24.5 22.9 24.4 L24.05 24.05 25.05 23.2 25.1 23.1 25.45 22.15 25.9 23.45 26.25 23.5 28.6 22.75 28.55 22.45 27.65 18.65 28.0 18.75 30.1 18.1 31.15 21.75 31.35 22.1 31.6 22.1 33.9 21.3 33.85 21.0 32.95 17.25 33.3 17.35 35.4 16.7 36.0 18.8 Q36.2 19.45 36.65 19.95 L36.75 20.05 36.5 20.3 36.6 21.2 8.3 28.75 M3.65 8.4 L5.55 6.55 20.9 2.4 26.1 2.4 3.65 8.4 M9.75 3.65 Q11.0 2.95 12.35 2.4 L14.35 2.4 9.75 3.65 M25.65 11.45 L26.05 11.8 25.4 11.45 25.65 11.45 M13.6 20.65 L13.6 20.5 13.95 21.85 11.5 22.45 11.25 22.6 11.0 21.4 11.15 21.45 13.6 20.65" fill="#68061a" fill-rule="evenodd" stroke="none"/>
    <path d="M45.85 12.9 L46.0 13.35 41.85 14.4 41.7 14.0 45.85 12.9 M46.25 18.6 L45.8 20.55 42.3 21.45 42.15 20.0 42.15 19.95 42.1 19.7 46.25 18.6 M45.1 22.15 L43.8 24.25 26.65 28.8 15.5 31.8 12.55 30.85 20.1 28.8 38.75 23.85 39.1 24.0 40.7 23.65 41.4 23.15 45.1 22.15 M42.25 26.0 L39.55 28.2 38.85 28.7 38.35 28.8 23.65 32.75 23.5 32.75 18.45 32.4 31.8 28.8 42.25 26.0 M14.6 28.8 L10.45 29.95 8.3 28.75 36.6 21.2 36.65 21.45 37.0 22.25 37.3 22.75 14.6 28.8 M3.55 24.7 L3.25 24.3 6.9 23.3 7.0 23.75 3.55 24.7 M2.7 15.6 L0.55 16.15 0.6 15.7 2.7 15.15 12.7 12.45 12.85 12.9 2.7 15.6 M2.7 10.4 L2.1 10.55 3.65 8.4 26.1 2.4 30.7 1.2 33.8 2.1 32.65 2.4 27.6 3.75 27.5 3.7 Q26.7 3.05 25.65 2.85 L24.45 3.0 Q23.55 3.3 23.2 4.05 L23.0 4.7 22.95 5.0 2.7 10.4 M5.55 6.55 L7.5 5.05 9.75 3.65 14.35 2.4 21.7 0.45 23.5 0.4 27.5 0.65 20.9 2.4 5.55 6.55 M39.65 5.1 L40.15 5.45 33.15 7.3 33.0 6.85 39.65 5.1 M25.75 4.25 L24.4 4.6 24.7 4.2 25.75 4.25" fill="#b70004" fill-rule="evenodd" stroke="none"/>
    <path d="M42.1 19.7 L42.15 19.95 42.15 20.0 42.3 21.45 42.1 22.15 41.85 22.6 41.4 23.15 40.7 23.65 39.1 24.0 38.75 23.85 Q38.2 23.65 37.75 23.25 L37.3 22.75 37.0 22.25 36.65 21.45 36.6 21.2 36.5 20.3 36.75 20.05 36.65 19.95 Q36.2 19.45 36.0 18.8 L35.4 16.7 33.3 17.35 32.95 17.25 33.85 21.0 33.9 21.3 31.6 22.1 31.35 22.1 31.15 21.75 30.1 18.1 28.0 18.75 27.65 18.65 28.55 22.45 28.6 22.75 26.25 23.5 25.9 23.45 25.45 22.15 25.1 23.1 25.05 23.2 24.05 24.05 22.9 24.4 Q22.1 24.5 21.4 24.1 L20.25 23.1 20.6 24.85 18.35 25.65 18.1 25.65 18.0 25.55 15.65 26.35 15.45 26.35 15.2 26.05 14.6 24.05 14.45 25.1 14.25 25.85 Q13.8 26.6 13.0 26.95 L11.8 27.35 10.1 27.05 Q9.1 26.6 8.75 25.6 L8.45 24.75 7.25 20.3 7.15 18.75 7.25 18.1 Q7.5 17.3 8.4 16.65 8.85 16.35 9.45 16.25 L11.3 16.2 Q12.05 16.35 12.5 17.1 L12.95 18.05 12.45 15.45 12.75 15.4 14.75 14.7 15.1 14.75 15.75 16.65 17.05 16.4 17.45 16.4 Q18.2 16.65 18.55 17.3 L18.85 17.9 19.35 16.35 19.35 16.4 Q20.1 15.6 21.15 15.5 L22.55 15.3 Q23.45 15.5 23.9 16.2 L23.6 14.7 23.9 14.5 26.35 13.85 27.9 13.9 29.1 14.5 28.9 13.65 28.3 13.4 27.7 13.1 26.25 12.2 26.3 12.4 26.35 12.6 26.3 12.85 25.9 13.65 24.95 13.9 24.2 13.3 23.95 12.95 24.0 12.05 24.0 11.95 24.3 11.7 23.5 11.85 23.95 13.85 23.95 14.1 21.7 14.7 21.35 14.8 21.05 14.15 20.6 14.85 20.25 15.05 Q18.5 15.9 16.45 16.25 L16.1 16.25 13.95 8.3 13.95 7.95 14.2 7.75 16.65 7.1 18.3 6.95 18.6 7.05 19.65 7.95 22.15 7.25 23.2 7.1 Q23.75 7.2 24.1 7.45 L24.9 8.15 25.5 9.05 26.05 7.95 26.45 7.45 27.75 6.85 26.95 5.55 26.5 4.8 25.75 4.25 24.7 4.2 24.4 4.6 24.2 4.85 24.2 4.9 24.3 5.15 24.45 5.65 24.45 5.9 23.35 6.1 22.95 5.6 22.85 5.45 22.85 5.4 22.95 5.0 23.0 4.7 23.2 4.05 Q23.55 3.3 24.45 3.0 L25.65 2.85 Q26.7 3.05 27.5 3.7 L27.6 3.75 28.4 4.8 28.85 5.7 29.25 6.35 30.25 6.3 31.1 6.65 Q32.1 7.1 32.5 8.0 L32.9 9.35 32.85 10.75 32.4 11.85 32.1 12.35 33.6 12.7 34.4 13.1 34.25 11.85 34.5 11.7 36.5 11.1 37.1 11.2 39.2 10.4 39.55 10.75 41.9 18.85 42.1 19.7 M35.6 16.0 L36.15 18.1 Q36.75 20.25 38.15 19.85 L39.4 19.55 39.85 21.35 Q40.0 21.85 39.7 21.95 39.35 22.05 39.2 21.45 L38.8 20.0 36.85 20.55 37.05 21.4 Q37.45 22.8 38.35 23.25 L40.05 23.4 Q41.0 23.15 41.5 22.4 42.1 21.5 41.7 20.1 L40.35 14.8 39.3 10.8 37.25 11.4 38.3 15.35 38.8 17.35 Q38.95 17.9 38.7 17.95 38.35 18.05 38.2 17.45 L37.65 15.5 36.6 11.5 34.6 12.1 35.6 16.0 M28.3 7.2 Q26.5 7.35 26.1 8.65 25.6 10.0 26.15 11.1 26.65 12.2 27.9 12.8 L27.85 12.8 30.35 12.95 Q31.7 12.5 32.25 11.25 32.85 10.0 32.45 8.8 32.05 7.4 30.95 6.95 L29.05 6.9 28.85 6.55 28.0 5.05 Q27.25 3.9 26.15 3.4 L24.15 3.5 Q23.25 4.05 23.3 5.3 L23.35 5.3 23.3 5.45 23.45 5.55 23.6 5.6 24.1 5.55 Q23.7 5.4 23.75 4.8 23.85 4.3 24.45 3.85 L25.95 3.9 Q26.8 4.35 27.4 5.15 L28.2 6.8 28.25 7.0 28.3 7.2 M24.9 11.8 L24.4 12.2 24.3 12.85 24.7 13.3 25.3 13.4 25.8 13.0 25.85 12.45 25.45 11.95 24.9 11.8 M23.1 9.6 L23.6 11.45 25.55 10.9 25.2 9.55 Q24.85 8.25 23.95 7.75 L22.25 7.65 19.95 8.25 21.6 14.4 23.55 13.9 22.45 9.8 Q22.35 9.3 22.7 9.25 23.0 9.15 23.1 9.6 M25.65 11.45 L25.4 11.45 26.05 11.8 25.65 11.45 M27.05 18.2 L26.6 16.55 Q26.5 16.0 26.9 15.9 27.25 15.8 27.35 16.3 L27.8 18.0 27.9 18.25 29.9 17.75 29.85 17.45 29.5 16.25 Q29.1 14.8 28.15 14.35 L26.45 14.25 23.95 14.9 25.0 18.7 26.15 23.05 28.2 22.55 27.05 18.2 M35.1 16.15 L34.8 14.8 Q34.4 13.4 33.45 12.95 L31.7 12.85 29.3 13.5 30.3 17.35 31.45 21.65 33.5 21.05 32.35 16.85 31.9 15.1 Q31.75 14.55 32.15 14.45 32.5 14.4 32.65 14.9 L33.1 16.65 33.2 16.85 35.2 16.3 35.1 16.15 M24.4 18.85 L24.1 17.7 Q23.75 16.35 22.8 15.85 L21.2 15.65 Q20.2 15.9 19.7 16.65 19.05 17.5 19.45 18.9 L19.75 20.05 20.2 21.8 Q20.6 23.25 21.6 23.7 L23.35 23.8 Q24.3 23.55 24.7 22.9 25.25 22.0 24.85 20.6 L24.65 19.8 22.7 20.3 23.1 21.7 Q23.2 22.2 22.9 22.35 22.55 22.45 22.45 21.9 L21.9 19.9 24.5 19.2 24.4 18.85 M22.0 17.55 L22.25 18.55 21.6 18.8 21.35 17.75 Q21.2 17.25 21.55 17.15 21.85 17.0 22.0 17.55 M10.65 22.4 L9.65 18.8 Q9.55 18.25 9.9 18.15 10.25 18.1 10.4 18.6 L11.0 21.0 13.2 20.4 12.75 18.75 Q12.4 17.35 11.5 16.75 L9.55 16.55 Q8.45 16.8 7.85 17.65 7.2 18.65 7.65 20.15 L8.4 23.0 8.8 24.6 Q9.2 26.2 10.25 26.65 L12.25 26.8 Q13.45 26.5 13.9 25.65 14.4 24.6 13.9 22.65 L13.8 22.25 11.6 22.85 12.0 24.35 Q12.15 25.05 11.8 25.15 11.4 25.25 11.2 24.6 L10.65 22.4 M19.5 8.85 Q19.2 7.7 18.45 7.4 L16.75 7.5 14.3 8.15 16.3 15.85 19.25 15.05 Q21.0 14.55 20.6 13.1 L19.5 8.85 M16.9 8.9 Q17.25 8.85 17.35 9.3 L18.4 13.3 Q18.6 13.85 18.25 13.95 17.9 14.05 17.7 13.5 L16.65 9.5 Q16.55 9.0 16.9 8.9 M19.1 20.25 L18.6 18.55 Q18.05 16.5 16.7 16.85 L15.45 17.2 14.85 15.1 12.8 15.65 14.35 21.45 15.5 25.9 17.6 25.35 16.4 20.9 16.0 19.4 Q15.85 18.85 16.15 18.8 16.5 18.7 16.6 19.25 L17.0 20.75 18.2 25.2 20.25 24.65 19.1 20.25 M13.6 20.65 L11.15 21.45 11.0 21.4 11.25 22.6 11.5 22.45 13.95 21.85 13.6 20.5 13.6 20.65" fill="#3f030f" fill-rule="evenodd" stroke="none"/>
    <path d="M40.35 14.8 L41.7 20.1 Q42.1 21.5 41.5 22.4 41.0 23.15 40.05 23.4 L38.35 23.25 Q37.45 22.8 37.05 21.4 L36.85 20.55 38.8 20.0 39.2 21.45 Q39.35 22.05 39.7 21.95 40.0 21.85 39.85 21.35 L39.4 19.55 38.15 19.85 Q36.75 20.25 36.15 18.1 L35.6 16.0 37.65 15.5 38.2 17.45 Q38.35 18.05 38.7 17.95 38.95 17.9 38.8 17.35 L38.3 15.35 40.35 14.8 M27.8 18.0 L29.85 17.45 29.9 17.75 27.9 18.25 27.8 18.0 M25.0 18.7 L27.05 18.2 28.2 22.55 26.15 23.05 25.0 18.7 M35.1 16.15 L35.2 16.3 33.2 16.85 33.1 16.65 35.1 16.15 M32.35 16.85 L33.5 21.05 31.45 21.65 30.3 17.35 32.35 16.85 M24.4 18.85 L24.5 19.2 21.9 19.9 22.45 21.9 Q22.55 22.45 22.9 22.35 23.2 22.2 23.1 21.7 L22.7 20.3 24.65 19.8 24.85 20.6 Q25.25 22.0 24.7 22.9 24.3 23.55 23.35 23.8 L21.6 23.7 Q20.6 23.25 20.2 21.8 L19.75 20.05 24.4 18.85 M10.65 22.4 L11.2 24.6 Q11.4 25.25 11.8 25.15 12.15 25.05 12.0 24.35 L11.6 22.85 13.8 22.25 13.9 22.65 Q14.4 24.6 13.9 25.65 13.45 26.5 12.25 26.8 L10.25 26.65 Q9.2 26.2 8.8 24.6 L8.4 23.0 10.65 22.4 M19.1 20.25 L20.25 24.65 18.2 25.2 17.0 20.75 19.1 20.25 M16.4 20.9 L17.6 25.35 15.5 25.9 14.35 21.45 16.4 20.9" fill="#f2f2f2" fill-rule="evenodd" stroke="none"/>
    <path d="M35.6 16.0 L34.6 12.1 36.6 11.5 37.65 15.5 35.6 16.0 M38.3 15.35 L37.25 11.4 39.3 10.8 40.35 14.8 38.3 15.35 M23.1 9.6 Q23.0 9.15 22.7 9.25 22.35 9.3 22.45 9.8 L23.55 13.9 21.6 14.4 19.95 8.25 22.25 7.65 23.95 7.75 Q24.85 8.25 25.2 9.55 L25.55 10.9 23.6 11.45 23.1 9.6 M24.9 11.8 L25.45 11.95 25.85 12.45 25.8 13.0 25.3 13.4 24.7 13.3 24.3 12.85 24.4 12.2 24.9 11.8 M27.8 18.0 L27.35 16.3 Q27.25 15.8 26.9 15.9 26.5 16.0 26.6 16.55 L27.05 18.2 25.0 18.7 23.95 14.9 26.45 14.25 28.15 14.35 Q29.1 14.8 29.5 16.25 L29.85 17.45 27.8 18.0 M30.3 17.35 L29.3 13.5 31.7 12.85 33.45 12.95 Q34.4 13.4 34.8 14.8 L35.1 16.15 33.1 16.65 32.65 14.9 Q32.5 14.4 32.15 14.45 31.75 14.55 31.9 15.1 L32.35 16.85 30.3 17.35 M22.0 17.55 Q21.85 17.0 21.55 17.15 21.2 17.25 21.35 17.75 L21.6 18.8 22.25 18.55 22.0 17.55 M19.75 20.05 L19.45 18.9 Q19.05 17.5 19.7 16.65 20.2 15.9 21.2 15.65 L22.8 15.85 Q23.75 16.35 24.1 17.7 L24.4 18.85 19.75 20.05 M16.9 8.9 Q16.55 9.0 16.65 9.5 L17.7 13.5 Q17.9 14.05 18.25 13.95 18.6 13.85 18.4 13.3 L17.35 9.3 Q17.25 8.85 16.9 8.9 M19.5 8.85 L20.6 13.1 Q21.0 14.55 19.25 15.05 L16.3 15.85 14.3 8.15 16.75 7.5 18.45 7.4 Q19.2 7.7 19.5 8.85 M8.4 23.0 L7.65 20.15 Q7.2 18.65 7.85 17.65 8.45 16.8 9.55 16.55 L11.5 16.75 Q12.4 17.35 12.75 18.75 L13.2 20.4 11.0 21.0 10.4 18.6 Q10.25 18.1 9.9 18.15 9.55 18.25 9.65 18.8 L10.65 22.4 8.4 23.0 M14.35 21.45 L12.8 15.65 14.85 15.1 15.45 17.2 16.7 16.85 Q18.05 16.5 18.6 18.55 L19.1 20.25 17.0 20.75 16.6 19.25 Q16.5 18.7 16.15 18.8 15.85 18.85 16.0 19.4 L16.4 20.9 14.35 21.45" fill="#ffffff" fill-rule="evenodd" stroke="none"/>
    <path d="M30.75 8.5 L30.75 8.85 30.4 9.25 Q30.05 9.4 29.3 8.8 29.05 8.0 29.8 7.95 L30.35 8.15 30.75 8.5 M28.1 8.35 Q28.4 8.4 28.55 8.85 L28.5 9.35 28.0 10.05 27.95 10.65 28.0 10.7 27.95 10.8 27.95 10.9 27.75 11.1 Q27.45 11.25 27.25 10.85 L27.0 10.4 27.0 9.4 27.45 8.65 Q27.8 8.3 28.1 8.35" fill="#ffa4a6" fill-rule="evenodd" stroke="none"/>
    <path d="M30.75 8.5 L30.35 8.15 29.8 7.95 Q29.05 8.0 29.3 8.8 30.05 9.4 30.4 9.25 L30.75 8.85 30.75 8.5 M30.6 7.6 Q31.25 7.8 31.45 8.5 L31.6 9.1 Q31.55 9.7 30.85 9.8 L29.65 9.8 Q29.1 9.6 29.2 10.15 29.3 10.7 28.95 10.7 L28.65 10.8 28.8 11.1 28.95 11.45 29.05 11.65 28.7 11.95 Q28.15 12.15 27.55 11.65 26.9 11.15 26.65 10.5 L26.5 9.6 Q26.55 8.9 27.25 8.4 L28.45 7.8 29.1 7.65 30.6 7.6 M28.1 8.35 Q27.8 8.3 27.45 8.65 L27.0 9.4 27.0 10.4 27.25 10.85 Q27.45 11.25 27.75 11.1 L27.95 10.9 27.95 10.8 28.0 10.7 27.95 10.65 28.0 10.05 28.5 9.35 28.55 8.85 Q28.4 8.4 28.1 8.35" fill="#ff0006" fill-rule="evenodd" stroke="none"/>
    <path d="M30.6 7.6 L29.1 7.65 28.45 7.8 27.25 8.4 Q26.55 8.9 26.5 9.6 L26.65 10.5 Q26.9 11.15 27.55 11.65 28.15 12.15 28.7 11.95 L29.05 11.65 28.95 11.45 28.8 11.1 28.65 10.8 28.95 10.7 Q29.3 10.7 29.2 10.15 29.1 9.6 29.65 9.8 L30.85 9.8 Q31.55 9.7 31.6 9.1 L31.45 8.5 Q31.25 7.8 30.6 7.6 M29.05 6.9 L30.95 6.95 Q32.05 7.4 32.45 8.8 32.85 10.0 32.25 11.25 31.7 12.5 30.35 12.95 L27.85 12.8 27.9 12.8 Q26.65 12.2 26.15 11.1 25.6 10.0 26.1 8.65 26.5 7.35 28.3 7.2 L28.45 7.15 29.05 6.9" fill="#bb0004" fill-rule="evenodd" stroke="none"/>
    <path d="M28.3 7.2 L28.25 7.0 28.2 6.8 27.4 5.15 Q26.8 4.35 25.95 3.9 L24.45 3.85 Q23.85 4.3 23.75 4.8 23.7 5.4 24.1 5.55 L23.6 5.6 23.45 5.55 23.3 5.45 23.35 5.3 23.3 5.3 Q23.25 4.05 24.15 3.5 L26.15 3.4 Q27.25 3.9 28.0 5.05 L28.85 6.55 29.05 6.9 28.45 7.15 28.3 7.2" fill="#21b424" fill-rule="evenodd" stroke="none"/>
    <path d="M38.5 6.85 Q32.2 2.55 23.5 2.55 14.75 2.55 8.55 6.85 2.6 10.9 2.55 16.6 2.6 22.3 8.55 26.4 14.75 30.65 23.5 30.65 32.2 30.65 38.5 26.4 44.35 22.3 44.45 16.6 44.35 10.9 38.5 6.85 M23.5 0.0 Q33.1 0.0 39.95 4.75 47.05 9.6 46.95 16.6 47.05 23.55 39.95 28.5 33.1 33.15 23.5 33.15 13.85 33.15 7.1 28.5 -0.05 23.55 0.0 16.6 -0.05 9.6 7.1 4.75 13.85 0.0 23.5 0.0" fill="#ffffff" fill-rule="evenodd" stroke="none"/>
  </g>
</svg>
