<?xml version="1.0" encoding="UTF-8" standalone="no"?>
<svg xmlns:ffdec="https://www.free-decompiler.com/flash" xmlns:xlink="http://www.w3.org/1999/xlink" ffdec:objectType="shape" height="77.6px" width="58.1px" xmlns="http://www.w3.org/2000/svg">
  <g transform="matrix(1.0, 0.0, 0.0, 1.0, 30.5, 126.0)">
    <path d="M-21.5 -58.65 Q-18.25 -56.5 -11.65 -56.35 L-11.6 -56.35 -11.5 -56.35 -8.1 -56.05 -8.1 -56.0 -6.1 -55.9 0.4 -55.65 3.25 -55.65 8.15 -55.7 8.55 -55.7 9.0 -55.75 17.05 -56.25 18.7 -56.4 18.75 -56.45 20.35 -56.65 21.55 -56.8 25.4 -57.6 27.2 -58.0 27.45 -57.75 27.6 -57.35 27.6 -53.05 27.6 -52.85 27.45 -52.5 26.3 -51.4 25.9 -51.2 Q24.7 -50.6 22.6 -50.1 L21.75 -49.9 21.35 -49.85 20.8 -49.7 20.1 -49.6 19.3 -49.45 17.85 -49.25 16.35 -49.05 15.9 -49.0 15.0 -48.9 14.15 -48.8 13.85 -48.8 9.7 -48.55 9.35 -48.5 8.0 -48.45 7.7 -48.45 6.3 -48.4 3.25 -48.4 1.25 -48.4 1.0 -48.4 -0.5 -48.45 -1.5 -48.45 -5.45 -48.65 -6.7 -48.75 -7.1 -48.8 -7.75 -48.85 -12.1 -49.35 -13.5 -49.6 -13.7 -49.6 -14.2 -49.7 -17.5 -50.5 -18.5 -50.85 -19.85 -51.5 Q-21.1 -52.25 -21.05 -53.2 L-21.65 -58.35 -21.65 -58.4 -21.6 -58.5 -21.5 -58.65 M12.8 -50.25 L19.85 -51.1 Q24.75 -51.95 26.0 -53.0 L26.05 -53.05 26.05 -53.1 26.1 -53.15 26.1 -56.3 25.95 -56.25 21.8 -55.3 21.75 -55.3 20.6 -55.15 20.55 -55.15 8.2 -54.2 3.25 -54.15 -11.65 -54.85 -11.8 -54.85 -12.05 -54.9 -12.4 -54.9 -14.0 -55.15 -15.15 -55.3 -15.2 -55.3 Q-18.35 -55.8 -20.0 -56.45 L-19.55 -53.4 -19.55 -53.3 -19.5 -53.2 Q-19.3 -52.85 -18.55 -52.5 -16.95 -51.7 -13.25 -51.1 L-3.8 -50.05 -2.7 -50.0 3.25 -49.9 Q6.65 -49.9 9.7 -50.05 L12.8 -50.25" fill="#0c1b16" fill-rule="evenodd" stroke="none"/>
    <path d="M-3.8 -50.05 L-13.25 -51.1 Q-16.95 -51.7 -18.55 -52.5 -19.3 -52.85 -19.5 -53.2 L-19.55 -53.3 -19.55 -53.4 -20.0 -56.45 Q-18.35 -55.8 -15.2 -55.3 L-15.15 -55.3 -14.0 -55.15 -12.4 -54.9 -12.05 -54.9 -11.8 -54.85 -11.65 -54.85 3.25 -54.15 8.2 -54.2 20.55 -55.15 20.6 -55.15 21.75 -55.3 21.8 -55.3 25.95 -56.25 26.1 -56.3 26.1 -53.15 26.05 -53.1 26.05 -53.05 26.0 -53.0 Q24.75 -51.95 19.85 -51.1 L12.8 -50.25 18.5 -53.05 18.7 -53.2 18.9 -53.4 Q19.1 -53.85 18.55 -54.05 L17.7 -54.05 11.05 -53.2 -0.05 -52.55 -2.4 -52.6 -3.25 -52.55 -3.6 -51.85 -3.8 -50.05" fill="#17352c" fill-rule="evenodd" stroke="none"/>
    <path d="M10.55 -111.55 Q11.35 -112.3 12.35 -112.45 14.95 -112.6 17.45 -107.85 18.9 -105.1 19.8 -101.6 20.55 -98.6 20.9 -94.95 21.25 -91.45 21.05 -88.35 20.85 -84.8 19.95 -81.8 L19.85 -81.55 Q18.4 -76.7 16.65 -74.05 L14.9 -75.3 15.45 -74.85 15.65 -75.8 16.5 -79.4 16.8 -81.55 Q17.15 -85.2 16.85 -90.85 L16.3 -99.0 Q15.75 -103.5 14.5 -106.85 L13.85 -108.2 13.0 -109.1 10.85 -111.2 10.55 -111.55 M-11.3 -102.0 Q-13.85 -99.05 -16.0 -95.7 -14.95 -102.0 -13.7 -106.75 L-11.95 -112.5 -11.35 -114.05 -9.65 -117.6 -9.45 -117.95 -9.35 -118.15 -8.7 -118.95 -8.65 -119.05 -8.25 -119.65 -8.15 -119.8 -8.05 -119.9 Q-6.2 -122.35 -3.05 -123.8 1.75 -125.5 6.35 -122.85 6.55 -119.9 4.25 -116.7 L3.7 -118.7 Q2.65 -120.7 -0.55 -121.0 L-2.85 -120.9 Q-5.65 -120.25 -7.35 -117.45 -8.2 -116.15 -8.8 -114.05 L-9.25 -112.5 -9.4 -112.0 -9.65 -111.0 -10.55 -106.75 -11.3 -102.0" fill="#f1b67a" fill-rule="evenodd" stroke="none"/>
    <path d="M14.9 -75.3 L14.35 -75.75 Q12.2 -77.8 10.6 -80.9 L10.25 -81.55 Q7.85 -86.5 7.15 -93.65 6.4 -101.35 8.1 -106.9 8.8 -109.3 9.75 -110.65 L10.55 -111.55 10.85 -111.2 13.0 -109.1 13.85 -108.2 14.5 -106.85 Q15.75 -103.5 16.3 -99.0 L16.85 -90.85 Q17.15 -85.2 16.8 -81.55 L16.5 -79.4 15.65 -75.8 15.45 -74.85 14.9 -75.3 M4.25 -116.7 L4.25 -116.65 3.05 -115.15 3.05 -115.2 1.95 -114.05 0.25 -112.5 -2.05 -110.65 Q-6.45 -107.4 -10.15 -103.3 L-11.3 -102.0 -10.55 -106.75 -9.65 -111.0 -9.4 -112.0 -9.25 -112.5 -8.8 -114.05 Q-8.2 -116.15 -7.35 -117.45 -5.65 -120.25 -2.85 -120.9 L-0.55 -121.0 Q2.65 -120.7 3.7 -118.7 L4.25 -116.7" fill="#ffce9d" fill-rule="evenodd" stroke="none"/>
    <path d="M12.8 -50.25 L9.7 -50.05 Q6.65 -49.9 3.25 -49.9 L-2.7 -50.0 -3.8 -50.05 -3.6 -51.85 -3.25 -52.55 -2.4 -52.6 -0.05 -52.55 11.05 -53.2 17.7 -54.05 18.55 -54.05 Q19.1 -53.85 18.9 -53.4 L18.7 -53.2 18.5 -53.05 12.8 -50.25" fill="#1e463a" fill-rule="evenodd" stroke="none"/>
    <path d="M-21.5 -58.65 L-22.65 -59.5 -24.55 -61.2 Q-26.2 -62.85 -27.4 -64.7 L-29.0 -67.8 Q-30.5 -71.35 -30.5 -75.55 -30.5 -78.7 -29.65 -81.55 L-29.35 -82.45 -29.35 -82.4 -29.25 -82.65 -29.25 -82.7 Q-24.85 -95.6 -18.45 -106.75 L-15.0 -112.5 -14.0 -114.05 -10.85 -118.6 -10.75 -118.75 -10.7 -118.75 -10.7 -118.8 -9.9 -120.0 -9.3 -120.75 -9.25 -120.8 Q-7.2 -123.6 -3.6 -125.15 L-3.55 -125.2 Q2.1 -127.25 7.45 -124.0 L7.55 -123.9 Q10.95 -121.85 14.25 -117.5 L16.6 -114.05 17.45 -112.5 Q19.9 -107.9 21.15 -102.3 22.05 -99.0 22.4 -95.1 22.75 -91.35 22.55 -88.1 L22.85 -81.55 Q23.45 -74.35 25.2 -67.8 L26.05 -64.7 27.0 -61.85 27.05 -61.75 Q27.6 -59.55 27.2 -58.0 L25.4 -57.6 Q26.2 -58.95 25.6 -61.4 L24.5 -64.7 23.65 -67.8 Q22.6 -71.8 22.0 -76.0 L21.95 -76.3 21.45 -80.35 21.4 -81.35 21.05 -80.3 20.95 -79.95 20.95 -79.9 Q19.35 -75.1 17.45 -72.6 L17.05 -72.3 16.5 -72.35 15.8 -72.75 12.5 -75.45 12.15 -75.85 11.9 -76.15 11.5 -76.65 10.8 -77.65 Q9.95 -78.85 9.25 -80.2 L8.65 -81.4 8.55 -81.55 8.55 -81.6 Q6.3 -86.6 5.65 -93.5 4.9 -101.55 6.65 -107.35 7.65 -110.75 9.15 -112.4 L9.15 -112.35 9.3 -112.5 10.4 -113.4 Q11.25 -113.9 12.2 -113.95 13.9 -114.2 15.5 -112.9 L14.85 -114.05 13.05 -116.6 Q10.5 -119.95 7.9 -121.85 L7.65 -120.05 6.6 -117.5 4.05 -114.05 2.55 -112.5 -1.15 -109.45 Q-9.2 -103.45 -14.9 -94.7 L-15.15 -94.25 -16.55 -92.0 -16.7 -91.75 -16.75 -91.7 -16.75 -91.65 -21.3 -83.35 -22.15 -81.55 -22.4 -81.0 -22.35 -81.55 Q-21.75 -85.65 -18.15 -92.2 L-16.35 -102.0 -15.25 -106.75 -13.95 -111.35 -15.4 -109.0 -16.0 -108.05 -16.55 -107.05 -16.75 -106.75 -17.2 -105.95 -17.4 -105.65 -17.55 -105.35 -18.35 -103.95 -18.65 -103.4 -18.95 -102.75 -19.25 -102.2 -25.55 -88.5 -25.9 -87.55 -26.35 -86.35 -26.4 -86.2 -27.65 -82.65 -27.85 -82.2 -27.95 -81.95 -28.55 -79.85 -28.7 -79.15 -28.7 -79.05 -29.0 -75.55 Q-29.0 -71.35 -27.4 -67.8 L-25.6 -64.7 -23.5 -62.25 Q-18.8 -57.6 -12.05 -56.4 L-11.9 -56.4 -11.65 -56.35 Q-18.25 -56.5 -21.5 -58.65 M14.9 -75.3 L16.65 -74.05 Q18.4 -76.7 19.85 -81.55 L19.95 -81.8 Q20.85 -84.8 21.05 -88.35 21.25 -91.45 20.9 -94.95 20.55 -98.6 19.8 -101.6 18.9 -105.1 17.45 -107.85 14.95 -112.6 12.35 -112.45 11.35 -112.3 10.55 -111.55 L9.75 -110.65 Q8.8 -109.3 8.1 -106.9 6.4 -101.35 7.15 -93.65 7.85 -86.5 10.25 -81.55 L10.6 -80.9 Q12.2 -77.8 14.35 -75.75 L14.9 -75.3 M-11.3 -102.0 L-10.15 -103.3 Q-6.45 -107.4 -2.05 -110.65 L0.25 -112.5 1.95 -114.05 3.05 -115.2 3.05 -115.15 4.25 -116.65 4.25 -116.7 Q6.55 -119.9 6.35 -122.85 1.75 -125.5 -3.05 -123.8 -6.2 -122.35 -8.05 -119.9 L-8.15 -119.8 -8.25 -119.65 -8.65 -119.05 -8.7 -118.95 -9.35 -118.15 -9.45 -117.95 -9.65 -117.6 -11.35 -114.05 -11.95 -112.5 -13.7 -106.75 Q-14.95 -102.0 -16.0 -95.7 -13.85 -99.05 -11.3 -102.0" fill="#121212" fill-rule="evenodd" stroke="none"/>
    <path d="M-26.4 -86.2 L-26.35 -86.35 -25.9 -87.55 -16.4 -102.0 -16.35 -102.0 -18.15 -92.2 Q-21.75 -85.65 -22.35 -81.55 L-22.4 -81.0 -22.15 -81.55 -21.3 -83.35 -16.75 -91.65 -16.75 -91.7 -16.7 -91.75 -16.55 -92.0 -15.15 -94.25 -14.9 -94.7 Q-9.2 -103.45 -1.15 -109.45 L2.55 -112.5 4.05 -114.05 6.6 -117.5 6.55 -117.15 6.2 -115.45 5.95 -114.05 5.65 -112.5 5.45 -111.05 Q5.35 -110.4 5.65 -110.15 L6.55 -110.2 7.1 -110.95 8.1 -112.5 9.0 -113.55 9.15 -112.5 9.15 -112.4 Q7.65 -110.75 6.65 -107.35 4.9 -101.55 5.65 -93.5 6.3 -86.6 8.55 -81.6 L8.55 -81.55 8.65 -81.4 9.25 -80.2 Q9.95 -78.85 10.8 -77.65 L11.5 -76.65 11.9 -76.15 12.15 -75.85 12.5 -75.45 15.8 -72.75 16.5 -72.35 17.05 -72.3 17.45 -72.6 Q19.35 -75.1 20.95 -79.9 L20.75 -75.65 20.45 -72.95 20.5 -70.2 Q20.6 -68.65 20.8 -67.8 L20.85 -67.65 Q21.2 -66.25 22.1 -65.6 22.15 -65.2 21.7 -64.7 L21.2 -64.25 Q20.25 -63.5 20.3 -62.9 20.4 -62.0 22.0 -61.8 20.9 -59.55 19.75 -58.7 18.75 -57.95 17.0 -57.7 L12.6 -57.3 6.25 -57.05 Q0.45 -56.95 -2.9 -57.25 -7.9 -57.75 -11.7 -59.3 L-12.65 -59.55 -12.75 -59.5 -13.5 -59.75 -15.65 -60.55 Q-18.45 -61.85 -20.45 -64.7 L-21.5 -66.4 -22.15 -67.8 Q-23.3 -70.45 -24.15 -74.35 L-24.55 -75.25 -26.05 -75.2 -26.9 -73.8 Q-27.85 -77.25 -27.3 -81.55 L-27.15 -82.75 -26.4 -86.2 M9.7 -59.85 L9.8 -59.85 8.45 -60.6 7.2 -61.35 5.65 -63.45 4.6 -64.7 3.5 -65.85 Q2.9 -66.55 3.2 -66.95 L4.4 -66.85 Q6.5 -65.6 8.7 -64.7 11.45 -63.55 14.45 -62.95 14.4 -63.4 15.15 -63.25 L17.05 -62.75 17.0 -64.7 16.8 -67.05 16.7 -67.8 Q16.25 -70.05 15.25 -71.7 14.45 -73.05 12.55 -74.8 10.2 -77.0 9.6 -77.75 L7.4 -81.1 7.2 -81.55 Q4.95 -85.9 3.85 -90.6 L2.85 -95.7 2.05 -99.1 Q1.55 -101.1 1.4 -102.5 1.05 -106.65 2.85 -109.2 -0.3 -107.95 -4.7 -103.45 L-8.65 -99.55 -13.4 -94.55 Q-15.95 -91.65 -17.4 -89.0 L-19.15 -85.4 -20.45 -81.55 -20.7 -80.15 Q-21.35 -75.2 -18.0 -68.9 L-17.4 -67.8 -16.15 -65.9 -15.1 -64.7 -14.2 -63.95 -12.1 -62.8 -11.3 -62.45 -11.85 -64.7 -11.9 -65.75 -11.75 -66.25 Q-11.4 -66.6 -10.8 -65.9 L-9.8 -64.7 Q-6.55 -61.05 -2.85 -59.75 L-1.25 -59.5 4.2 -59.35 9.7 -59.85" fill="#2e2e2e" fill-rule="evenodd" stroke="none"/>
    <path d="M-11.65 -56.35 L-11.9 -56.4 -12.05 -56.4 Q-18.8 -57.6 -23.5 -62.25 L-25.6 -64.7 -27.4 -67.8 Q-29.0 -71.35 -29.0 -75.55 L-28.7 -79.05 -28.7 -79.15 -28.55 -79.85 -27.95 -81.95 -27.85 -82.2 -27.65 -82.65 -26.4 -86.2 -27.15 -82.75 -27.3 -81.55 Q-27.85 -77.25 -26.9 -73.8 L-26.05 -75.2 -24.55 -75.25 -24.15 -74.35 Q-23.3 -70.45 -22.15 -67.8 L-21.5 -66.4 -20.45 -64.7 Q-18.45 -61.85 -15.65 -60.55 L-13.5 -59.75 -12.75 -59.5 -12.65 -59.55 -11.7 -59.3 Q-7.9 -57.75 -2.9 -57.25 0.45 -56.95 6.25 -57.05 L12.6 -57.3 17.0 -57.7 Q18.75 -57.95 19.75 -58.7 20.9 -59.55 22.0 -61.8 20.4 -62.0 20.3 -62.9 20.25 -63.5 21.2 -64.25 L21.7 -64.7 Q22.15 -65.2 22.1 -65.6 21.2 -66.25 20.85 -67.65 L20.8 -67.8 Q20.6 -68.65 20.5 -70.2 L20.45 -72.95 20.75 -75.65 20.95 -79.9 20.95 -79.95 21.05 -80.3 21.4 -81.35 21.45 -80.35 21.95 -76.3 22.0 -76.0 Q22.6 -71.8 23.65 -67.8 L24.5 -64.7 25.6 -61.4 Q26.2 -58.95 25.4 -57.6 L21.55 -56.8 20.35 -56.65 18.75 -56.45 18.7 -56.4 17.05 -56.25 9.0 -55.75 8.55 -55.7 8.15 -55.7 3.25 -55.65 0.4 -55.65 -6.1 -55.9 -8.1 -56.0 -8.1 -56.05 -11.5 -56.35 -11.6 -56.35 -11.65 -56.35 M-25.9 -87.55 L-25.55 -88.5 -19.25 -102.2 -18.95 -102.75 -18.65 -103.4 -18.35 -103.95 -17.55 -105.35 -17.4 -105.65 -17.2 -105.95 -16.75 -106.75 -16.55 -107.05 -16.0 -108.05 -15.4 -109.0 -13.95 -111.35 -15.25 -106.75 -16.35 -102.0 -16.4 -102.0 -25.9 -87.55 M6.6 -117.5 L7.65 -120.05 7.9 -121.85 Q10.5 -119.95 13.05 -116.6 L14.85 -114.05 15.5 -112.9 Q13.9 -114.2 12.2 -113.95 11.25 -113.9 10.4 -113.4 L9.3 -112.5 9.15 -112.35 9.15 -112.4 9.15 -112.5 9.0 -113.55 8.1 -112.5 7.1 -110.95 6.55 -110.2 5.65 -110.15 Q5.35 -110.4 5.45 -111.05 L5.65 -112.5 5.95 -114.05 6.2 -115.45 6.55 -117.15 6.6 -117.5" fill="#1e1e1e" fill-rule="evenodd" stroke="none"/>
    <path d="M9.7 -59.85 L4.2 -59.35 -1.25 -59.5 -2.85 -59.75 Q-6.55 -61.05 -9.8 -64.7 L-10.8 -65.9 Q-11.4 -66.6 -11.75 -66.25 L-11.9 -65.75 -11.85 -64.7 -11.3 -62.45 -12.1 -62.8 -14.2 -63.95 -15.1 -64.7 -16.15 -65.9 -17.4 -67.8 -18.0 -68.9 Q-21.35 -75.2 -20.7 -80.15 L-20.45 -81.55 -19.15 -85.4 -17.4 -89.0 Q-15.95 -91.65 -13.4 -94.55 L-8.65 -99.55 -4.7 -103.45 Q-0.3 -107.95 2.85 -109.2 1.05 -106.65 1.4 -102.5 1.55 -101.1 2.05 -99.1 L2.85 -95.7 3.85 -90.6 Q4.95 -85.9 7.2 -81.55 L7.4 -81.1 9.6 -77.75 Q10.2 -77.0 12.55 -74.8 14.45 -73.05 15.25 -71.7 16.25 -70.05 16.7 -67.8 L16.8 -67.05 17.0 -64.7 17.05 -62.75 15.15 -63.25 Q14.4 -63.4 14.45 -62.95 11.45 -63.55 8.7 -64.7 6.5 -65.6 4.4 -66.85 L3.2 -66.95 Q2.9 -66.55 3.5 -65.85 L4.6 -64.7 5.65 -63.45 7.2 -61.35 8.45 -60.6 9.8 -59.85 9.7 -59.85 M-15.65 -75.9 Q-15.3 -75.75 -14.85 -76.35 L-12.55 -79.85 -10.55 -76.85 Q-9.75 -75.55 -9.15 -75.05 L-7.6 -74.05 -5.85 -73.1 -4.5 -73.0 Q-4.3 -73.2 -4.3 -73.75 L-4.35 -76.7 Q-4.3 -78.4 -3.8 -79.55 -0.3 -76.9 1.75 -75.7 4.95 -73.8 7.85 -73.05 L8.55 -73.1 Q9.0 -73.35 8.7 -73.85 L8.15 -74.5 Q4.7 -77.55 2.4 -81.55 L1.4 -83.35 Q0.75 -84.55 0.35 -85.9 0.0 -87.1 -0.2 -90.35 L-0.35 -99.35 -0.55 -100.05 Q-0.85 -100.25 -1.45 -99.65 L-3.65 -96.55 Q-3.95 -99.55 -2.65 -102.4 -2.45 -102.7 -2.55 -102.9 -2.65 -103.2 -3.1 -103.1 L-3.55 -102.65 Q-4.75 -100.55 -5.55 -99.65 L-6.8 -98.35 -8.2 -97.1 Q-10.3 -95.15 -12.45 -91.85 -13.95 -89.6 -14.4 -88.0 L-15.0 -85.3 -15.5 -81.55 -15.9 -76.6 -15.65 -75.9" fill="#3d3d3d" fill-rule="evenodd" stroke="none"/>
    <path d="M-15.65 -75.9 L-15.9 -76.6 -15.5 -81.55 -15.0 -85.3 -14.4 -88.0 Q-13.95 -89.6 -12.45 -91.85 -10.3 -95.15 -8.2 -97.1 L-6.8 -98.35 -5.55 -99.65 Q-4.75 -100.55 -3.55 -102.65 L-3.1 -103.1 Q-2.65 -103.2 -2.55 -102.9 -2.45 -102.7 -2.65 -102.4 -3.95 -99.55 -3.65 -96.55 L-1.45 -99.65 Q-0.85 -100.25 -0.55 -100.05 L-0.35 -99.35 -0.2 -90.35 Q0.0 -87.1 0.35 -85.9 0.75 -84.55 1.4 -83.35 L2.4 -81.55 Q4.7 -77.55 8.15 -74.5 L8.7 -73.85 Q9.0 -73.35 8.55 -73.1 L7.85 -73.05 Q4.95 -73.8 1.75 -75.7 -0.3 -76.9 -3.8 -79.55 -4.3 -78.4 -4.35 -76.7 L-4.3 -73.75 Q-4.3 -73.2 -4.5 -73.0 L-5.85 -73.1 -7.6 -74.05 -9.15 -75.05 Q-9.75 -75.55 -10.55 -76.85 L-12.55 -79.85 -14.85 -76.35 Q-15.3 -75.75 -15.65 -75.9" fill="#4d4d4d" fill-rule="evenodd" stroke="none"/>
  </g>
</svg>
