<?xml version="1.0" encoding="UTF-8" standalone="no"?>
<svg xmlns:ffdec="https://www.free-decompiler.com/flash" xmlns:xlink="http://www.w3.org/1999/xlink" ffdec:objectType="shape" height="6.6px" width="6.35px" xmlns="http://www.w3.org/2000/svg">
  <g transform="matrix(1.0, 0.0, 0.0, 1.0, 3.15, 3.2)">
    <path d="M0.75 -2.25 L0.05 -2.1 -0.7 -2.3 -1.5 -2.6 -2.4 -1.9 Q-2.4 -1.4 -2.0 -1.0 -1.6 -0.65 -1.0 -0.65 -0.4 -0.65 0.05 -0.15 0.5 0.3 0.5 1.0 L-0.75 2.3 -0.35 2.75 Q0.35 2.75 0.9 2.2 L1.4 1.5 1.4 0.5 Q0.95 -0.3 0.95 -0.9 L1.15 -0.95 2.75 -0.9 2.6 -1.95 2.35 -2.6 1.75 -2.9 1.05 -2.7 0.75 -2.25 M-2.8 -3.15 L0.3 -3.1 2.9 -3.15 Q3.2 -3.25 3.2 -2.25 3.2 -0.65 2.8 -0.15 L1.75 -0.25 Q3.7 1.95 -0.05 3.4 L-0.8 3.15 -1.4 2.4 -0.3 0.75 -0.4 0.5 Q-1.2 -0.6 -2.3 -0.9 -3.15 -1.1 -3.15 -1.4 L-2.95 -2.4 -2.8 -3.15" fill="#b89d5d" fill-rule="evenodd" stroke="none"/>
    <path d="M1.15 -0.95 Q0.8 -1.55 0.75 -2.25 L1.05 -2.7 1.75 -2.9 1.25 -2.25 Q1.9 -1.8 2.6 -1.95 L2.75 -0.9 1.15 -0.95 M-0.7 -2.3 L-1.0 -0.65 Q-1.6 -0.65 -2.0 -1.0 -2.4 -1.4 -2.4 -1.9 L-1.8 -1.4 Q-1.55 -1.45 -1.45 -1.9 -1.35 -2.35 -1.5 -2.6 L-0.7 -2.3 M0.5 1.0 L1.4 0.5 1.4 1.5 0.9 2.2 1.15 1.55 0.65 1.2 -0.35 2.75 -0.75 2.3 0.5 1.0" fill="#f7e4b6" fill-rule="evenodd" stroke="none"/>
    <path d="M0.75 -2.25 Q0.8 -1.55 1.15 -0.95 L0.95 -0.9 Q0.95 -0.3 1.4 0.5 L0.5 1.0 Q0.5 0.3 0.05 -0.15 -0.4 -0.65 -1.0 -0.65 L-0.7 -2.3 0.05 -2.1 0.75 -2.25" fill="#e2cd9a" fill-rule="evenodd" stroke="none"/>
    <path d="M2.6 -1.95 Q1.9 -1.8 1.25 -2.25 L1.75 -2.9 2.35 -2.6 2.6 -1.95 M-0.35 2.75 L0.65 1.2 1.15 1.55 0.9 2.2 Q0.35 2.75 -0.35 2.75 M-2.4 -1.9 L-1.5 -2.6 Q-1.35 -2.35 -1.45 -1.9 -1.55 -1.45 -1.8 -1.4 L-2.4 -1.9" fill="#fff2d2" fill-rule="evenodd" stroke="none"/>
  </g>
</svg>
