<?xml version="1.0" encoding="UTF-8" standalone="no"?>
<svg xmlns:ffdec="https://www.free-decompiler.com/flash" xmlns:xlink="http://www.w3.org/1999/xlink" ffdec:objectType="shape" height="13.35px" width="52.7px" xmlns="http://www.w3.org/2000/svg">
  <g transform="matrix(1.0, 0.0, 0.0, 1.0, 23.25, 46.95)">
    <path d="M-8.05 -39.95 L-7.6 -40.1 -5.85 -40.95 -3.45 -41.75 0.5 -41.95 0.9 -42.0 2.65 -42.05 16.5 -43.0 21.85 -43.1 22.05 -43.1 20.4 -42.65 10.5 -41.15 6.25 -40.85 2.95 -40.45 -8.05 -39.95" fill="#ffffff" fill-rule="evenodd" stroke="none"/>
    <path d="M-7.6 -40.1 L-14.05 -41.1 Q-20.4 -42.2 -20.45 -42.85 L-20.45 -42.95 -20.8 -43.1 -20.45 -43.05 -3.45 -41.75 -5.85 -40.95 -7.6 -40.1 M11.4 -37.75 Q11.05 -37.1 9.45 -37.05 L7.65 -36.9 5.75 -36.7 -1.95 -36.65 -2.05 -37.0 11.4 -37.75" fill="#e0e0e0" fill-rule="evenodd" stroke="none"/>
    <path d="M27.15 -43.9 L27.0 -43.85 Q24.7 -42.95 22.35 -42.7 22.35 -42.2 21.55 -41.85 21.0 -41.4 18.7 -40.5 L15.55 -39.3 15.45 -39.25 15.0 -39.2 16.4 -39.25 21.1 -39.55 25.25 -39.7 Q25.8 -39.7 25.7 -39.25 25.75 -38.5 22.35 -37.75 L11.9 -36.55 8.1 -36.3 3.25 -35.75 -4.15 -35.35 -8.75 -35.75 -8.8 -36.5 Q-8.45 -37.1 -5.95 -37.3 L-5.9 -37.45 -5.8 -37.7 Q-5.8 -38.05 -7.55 -38.1 -9.45 -38.25 -9.5 -38.75 L-8.05 -39.95 2.95 -40.45 6.25 -40.85 10.5 -41.15 20.4 -42.65 22.05 -43.1 21.85 -43.1 16.5 -43.0 20.9 -43.65 Q25.3 -44.3 27.3 -45.1 L27.15 -43.9 M11.4 -37.75 L-2.05 -37.0 -1.95 -36.65 5.75 -36.7 7.65 -36.9 9.45 -37.05 Q11.05 -37.1 11.4 -37.75" fill="#b4b4b4" fill-rule="evenodd" stroke="none"/>
    <path d="M-20.45 -42.85 L-20.5 -42.6 -21.75 -43.45 Q-21.6 -40.2 -22.2 -36.35 L-21.5 -36.55 -21.0 -36.5 0.55 -34.85 0.95 -34.9 2.0 -34.95 Q12.95 -35.3 20.6 -36.55 27.5 -37.7 27.7 -38.4 27.05 -41.25 27.15 -43.9 L27.3 -45.1 Q25.3 -44.3 20.9 -43.65 L16.5 -43.0 2.65 -42.05 0.9 -42.0 0.5 -41.95 -3.45 -41.75 -20.45 -43.05 -20.8 -43.1 -20.45 -42.95 -20.45 -42.85 M-10.95 -34.3 L-21.4 -35.35 Q-23.0 -35.35 -23.15 -36.0 -23.4 -36.7 -23.1 -38.75 L-22.5 -44.6 -21.8 -44.95 -21.75 -44.95 -21.5 -44.85 -20.65 -43.95 0.45 -43.2 0.85 -43.2 2.55 -43.3 Q13.25 -43.65 20.75 -44.85 27.05 -45.9 26.95 -46.3 26.85 -46.7 27.4 -46.85 L27.6 -46.95 28.0 -46.85 28.0 -46.8 28.35 -44.5 29.1 -40.75 29.45 -37.9 Q29.45 -37.05 21.25 -35.55 13.05 -34.05 2.05 -33.7 L1.0 -33.65 0.6 -33.6 -10.95 -34.3" fill="#464646" fill-rule="evenodd" stroke="none"/>
    <path d="M-8.05 -39.95 L-9.5 -38.75 Q-9.45 -38.25 -7.55 -38.1 -5.8 -38.05 -5.8 -37.7 L-5.9 -37.45 -5.95 -37.3 Q-8.45 -37.1 -8.8 -36.5 L-8.75 -35.75 -4.15 -35.35 3.25 -35.75 8.1 -36.3 11.9 -36.55 22.35 -37.75 Q25.75 -38.5 25.7 -39.25 25.8 -39.7 25.25 -39.7 L21.1 -39.55 16.4 -39.25 15.0 -39.2 15.45 -39.25 15.55 -39.3 18.7 -40.5 Q21.0 -41.4 21.55 -41.85 22.35 -42.2 22.35 -42.7 24.7 -42.95 27.0 -43.85 L27.15 -43.9 Q27.05 -41.25 27.7 -38.4 27.5 -37.7 20.6 -36.55 12.95 -35.3 2.0 -34.95 L0.95 -34.9 0.55 -34.85 -21.0 -36.5 -21.5 -36.55 -22.2 -36.35 Q-21.6 -40.2 -21.75 -43.45 L-20.5 -42.6 -20.45 -42.85 Q-20.4 -42.2 -14.05 -41.1 L-7.6 -40.1 -8.05 -39.95" fill="#8a8a8a" fill-rule="evenodd" stroke="none"/>
  </g>
</svg>
