<?xml version="1.0" encoding="UTF-8" standalone="no"?>
<svg xmlns:ffdec="https://www.free-decompiler.com/flash" xmlns:xlink="http://www.w3.org/1999/xlink" ffdec:objectType="shape" height="92.6px" width="92.65px" xmlns="http://www.w3.org/2000/svg">
  <g transform="matrix(1.0, 0.0, 0.0, 1.0, 20.7, 93.05)">
    <path d="M-14.45 -11.25 L-15.25 -11.3 -16.45 -11.15 62.3 -89.9 62.4 -90.0 62.9 -90.7 Q64.25 -92.05 66.25 -92.05 L66.35 -92.05 -14.45 -11.25 M69.15 -91.05 L69.55 -90.7 70.7 -88.95 -10.25 -8.0 -11.45 -9.75 -11.8 -10.05 69.15 -91.05" fill="#485833" fill-rule="evenodd" stroke="none"/>
    <path d="M70.25 -83.3 L69.8 -82.85 -11.6 -1.45 -11.95 -1.3 -12.2 -1.35 Q-13.5 -0.45 -15.25 -0.45 -17.5 -0.45 -19.1 -2.0 -20.7 -3.6 -20.7 -5.85 -20.7 -7.6 -19.75 -8.9 L-19.8 -9.05 -19.65 -9.4 61.55 -90.55 62.2 -91.4 Q63.85 -93.05 66.25 -93.05 L67.3 -92.95 Q68.7 -92.7 69.85 -91.75 L70.25 -91.4 71.45 -89.7 Q71.95 -88.6 71.95 -87.3 71.95 -84.95 70.25 -83.3 M66.35 -92.05 L66.25 -92.05 Q64.25 -92.05 62.9 -90.7 L62.4 -90.0 62.3 -89.9 -16.45 -11.15 -15.25 -11.3 -14.45 -11.25 Q-12.95 -11.05 -11.8 -10.05 L-11.45 -9.75 -10.25 -8.0 Q-9.85 -7.0 -9.85 -5.85 L-10.0 -4.4 69.1 -83.55 69.55 -84.0 Q70.95 -85.35 70.95 -87.3 L70.7 -88.95 69.55 -90.7 69.15 -91.05 Q67.95 -92.0 66.35 -92.05 M-15.7 -6.6 L-15.15 -6.7 -15.1 -6.7 Q-14.4 -6.6 -14.4 -5.85 -14.35 -5.45 -14.65 -5.15 -14.85 -4.95 -15.2 -4.85 L-15.3 -4.85 -15.8 -4.9 -16.75 -5.85 -16.8 -6.25 -16.6 -7.1 -16.4 -7.35 -15.15 -7.7 -15.1 -7.7 -14.4 -7.45 Q-13.6 -7.05 -13.55 -5.85 -13.5 -5.0 -14.0 -4.5 -14.35 -4.2 -14.85 -4.0 L-15.3 -3.9 Q-16.35 -3.85 -17.1 -4.5 -17.85 -5.15 -17.85 -6.25 L-17.75 -6.85 -17.3 -7.75 -17.1 -7.95 Q-16.4 -8.65 -15.3 -8.65 -14.45 -8.6 -13.75 -8.1 L-13.5 -7.9 Q-12.8 -7.15 -12.65 -6.1 L-12.6 -5.65 Q-12.6 -4.6 -13.3 -3.95 L-13.35 -3.85 Q-13.75 -3.5 -14.2 -3.3 L-15.2 -3.1 Q-16.6 -3.0 -17.6 -3.85 -18.65 -4.7 -18.75 -6.1 -18.8 -6.9 -18.45 -7.55 L-17.85 -8.3 -17.7 -8.5 Q-17.1 -9.05 -16.4 -9.25 L-15.2 -9.45 -15.15 -9.45 Q-14.05 -9.4 -13.15 -8.7 L-12.75 -8.35 Q-12.0 -7.6 -11.75 -6.5 L-11.7 -5.85 Q-11.65 -4.4 -12.6 -3.35 L-12.7 -3.2 -13.5 -2.65 Q-14.25 -2.25 -15.25 -2.25 -16.9 -2.3 -18.25 -3.35 -19.6 -4.4 -19.65 -6.1 L-19.65 -6.15 Q-19.7 -7.3 -19.15 -8.2 L-18.55 -9.0 -18.45 -9.1 Q-17.25 -10.35 -15.35 -10.35 L-15.3 -10.35 Q-13.7 -10.35 -12.5 -9.4 L-12.1 -9.05 Q-11.35 -8.25 -11.0 -7.3 -10.75 -6.65 -10.75 -5.9 -10.75 -4.05 -11.95 -2.65 L-12.0 -2.55 -12.8 -1.95 Q-13.9 -1.25 -15.35 -1.3 -17.5 -1.4 -19.0 -2.7 L-19.6 -3.35 -18.8 -2.35 Q-17.35 -0.85 -15.25 -0.85 -13.7 -0.85 -12.5 -1.65 L-11.75 -2.35 Q-11.15 -2.95 -10.8 -3.65 -10.3 -4.65 -10.3 -5.85 -10.3 -6.85 -10.6 -7.65 -11.0 -8.65 -11.75 -9.4 L-12.15 -9.75 Q-13.3 -10.75 -14.85 -10.8 L-15.25 -10.85 -17.15 -10.5 -18.25 -9.9 -18.8 -9.4 -18.95 -9.25 -19.3 -8.85 -19.4 -8.7 -19.5 -8.55 Q-20.05 -7.5 -20.05 -6.25 -20.1 -4.3 -18.7 -3.05 -17.3 -1.85 -15.35 -1.75 -14.05 -1.7 -13.1 -2.25 L-12.35 -2.9 -12.3 -2.95 Q-11.2 -4.25 -11.2 -5.9 L-11.35 -6.95 Q-11.65 -7.95 -12.4 -8.75 L-12.8 -9.1 Q-13.9 -9.9 -15.3 -9.9 L-15.8 -9.85 Q-17.2 -9.75 -18.15 -8.8 L-18.25 -8.7 -18.8 -7.9 Q-19.25 -7.1 -19.2 -6.15 -19.15 -4.6 -17.95 -3.7 -16.75 -2.75 -15.25 -2.7 L-13.85 -2.95 -13.0 -3.5 -12.95 -3.6 Q-12.1 -4.6 -12.15 -5.85 L-12.15 -6.1 Q-12.3 -7.25 -13.05 -8.05 L-13.45 -8.4 Q-14.25 -8.95 -15.2 -9.0 -16.45 -9.05 -17.4 -8.15 L-17.55 -8.0 -18.15 -7.2 -18.3 -6.15 Q-18.2 -4.95 -17.3 -4.2 -16.4 -3.45 -15.25 -3.55 L-14.55 -3.65 Q-14.05 -3.85 -13.65 -4.15 L-13.6 -4.25 Q-13.2 -4.65 -13.1 -5.2 L-13.1 -6.05 Q-13.2 -6.95 -13.8 -7.6 L-14.05 -7.8 -15.3 -8.2 Q-16.2 -8.2 -16.8 -7.6 L-16.95 -7.4 -17.4 -6.45 -17.4 -6.25 Q-17.4 -5.35 -16.8 -4.85 -16.2 -4.35 -15.4 -4.35 L-15.25 -4.35 Q-14.65 -4.5 -14.35 -4.85 -14.0 -5.2 -14.0 -5.8 -14.05 -6.8 -14.75 -7.1 L-15.2 -7.25 -16.15 -6.95 -16.3 -6.75 -16.35 -6.25 Q-16.35 -5.4 -15.35 -5.3 L-15.0 -5.5 -14.85 -5.85 Q-14.85 -6.2 -15.15 -6.25 L-15.2 -6.25 -15.4 -6.25 -15.45 -6.0 -15.45 -5.95 -15.55 -5.85 -15.7 -5.8 -15.85 -5.85 -15.9 -6.05 -15.85 -6.35 -15.7 -6.6" fill="#252c1c" fill-rule="evenodd" stroke="none"/>
    <path d="M70.7 -88.95 L70.95 -87.3 Q70.95 -85.35 69.55 -84.0 L69.1 -83.55 -10.0 -4.4 -9.85 -5.85 Q-9.85 -7.0 -10.25 -8.0 L70.7 -88.95" fill="#404f2c" fill-rule="evenodd" stroke="none"/>
    <path d="M66.35 -92.05 Q67.95 -92.0 69.15 -91.05 L-11.8 -10.05 Q-12.95 -11.05 -14.45 -11.25 L66.35 -92.05" fill="#4d5f35" fill-rule="evenodd" stroke="none"/>
    <path d="M-15.7 -6.6 L-15.85 -6.35 -15.9 -6.05 -15.85 -5.85 -15.7 -5.8 -15.55 -5.85 -15.45 -5.95 -15.45 -6.0 -15.4 -6.25 -15.2 -6.25 -15.15 -6.25 Q-14.85 -6.2 -14.85 -5.85 L-15.0 -5.5 -15.35 -5.3 Q-16.35 -5.4 -16.35 -6.25 L-16.3 -6.75 -16.15 -6.95 -15.2 -7.25 -14.75 -7.1 Q-14.05 -6.8 -14.0 -5.8 -14.0 -5.2 -14.35 -4.85 -14.65 -4.5 -15.25 -4.35 L-15.4 -4.35 Q-16.2 -4.35 -16.8 -4.85 -17.4 -5.35 -17.4 -6.25 L-17.4 -6.45 -16.95 -7.4 -16.8 -7.6 Q-16.2 -8.2 -15.3 -8.2 L-14.05 -7.8 -13.8 -7.6 Q-13.2 -6.95 -13.1 -6.05 L-13.1 -5.2 Q-13.2 -4.65 -13.6 -4.25 L-13.65 -4.15 Q-14.05 -3.85 -14.55 -3.65 L-15.25 -3.55 Q-16.4 -3.45 -17.3 -4.2 -18.2 -4.95 -18.3 -6.15 L-18.15 -7.2 -17.55 -8.0 -17.4 -8.15 Q-16.45 -9.05 -15.2 -9.0 -14.25 -8.95 -13.45 -8.4 L-13.05 -8.05 Q-12.3 -7.25 -12.15 -6.1 L-12.15 -5.85 Q-12.1 -4.6 -12.95 -3.6 L-13.0 -3.5 -13.85 -2.95 -15.25 -2.7 Q-16.75 -2.75 -17.95 -3.7 -19.15 -4.6 -19.2 -6.15 -19.25 -7.1 -18.8 -7.9 L-18.25 -8.7 -18.15 -8.8 Q-17.2 -9.75 -15.8 -9.85 L-15.3 -9.9 Q-13.9 -9.9 -12.8 -9.1 L-12.4 -8.75 Q-11.65 -7.95 -11.35 -6.95 L-11.2 -5.9 Q-11.2 -4.25 -12.3 -2.95 L-12.35 -2.9 -13.1 -2.25 Q-14.05 -1.7 -15.35 -1.75 -17.3 -1.85 -18.7 -3.05 -20.1 -4.3 -20.05 -6.25 -20.05 -7.5 -19.5 -8.55 L-19.4 -8.7 -19.3 -8.85 -18.95 -9.25 -18.8 -9.4 -18.25 -9.9 -17.15 -10.5 -15.25 -10.85 -14.85 -10.8 Q-13.3 -10.75 -12.15 -9.75 L-11.75 -9.4 Q-11.0 -8.65 -10.6 -7.65 -10.3 -6.85 -10.3 -5.85 -10.3 -4.65 -10.8 -3.65 -11.15 -2.95 -11.75 -2.35 L-12.5 -1.65 Q-13.7 -0.85 -15.25 -0.85 -17.35 -0.85 -18.8 -2.35 L-19.6 -3.35 -19.0 -2.7 Q-17.5 -1.4 -15.35 -1.3 -13.9 -1.25 -12.8 -1.95 L-12.0 -2.55 -11.95 -2.65 Q-10.75 -4.05 -10.75 -5.9 -10.75 -6.65 -11.0 -7.3 -11.35 -8.25 -12.1 -9.05 L-12.5 -9.4 Q-13.7 -10.35 -15.3 -10.35 L-15.35 -10.35 Q-17.25 -10.35 -18.45 -9.1 L-18.55 -9.0 -19.15 -8.2 Q-19.7 -7.3 -19.65 -6.15 L-19.65 -6.1 Q-19.6 -4.4 -18.25 -3.35 -16.9 -2.3 -15.25 -2.25 -14.25 -2.25 -13.5 -2.65 L-12.7 -3.2 -12.6 -3.35 Q-11.65 -4.4 -11.7 -5.85 L-11.75 -6.5 Q-12.0 -7.6 -12.75 -8.35 L-13.15 -8.7 Q-14.05 -9.4 -15.15 -9.45 L-15.2 -9.45 -16.4 -9.25 Q-17.1 -9.05 -17.7 -8.5 L-17.85 -8.3 -18.45 -7.55 Q-18.8 -6.9 -18.75 -6.1 -18.65 -4.7 -17.6 -3.85 -16.6 -3.0 -15.2 -3.1 L-14.2 -3.3 Q-13.75 -3.5 -13.35 -3.85 L-13.3 -3.95 Q-12.6 -4.6 -12.6 -5.65 L-12.65 -6.1 Q-12.8 -7.15 -13.5 -7.9 L-13.75 -8.1 Q-14.45 -8.6 -15.3 -8.65 -16.4 -8.65 -17.1 -7.95 L-17.3 -7.75 -17.75 -6.85 -17.85 -6.25 Q-17.85 -5.15 -17.1 -4.5 -16.35 -3.85 -15.3 -3.9 L-14.85 -4.0 Q-14.35 -4.2 -14.0 -4.5 -13.5 -5.0 -13.55 -5.85 -13.6 -7.05 -14.4 -7.45 L-15.1 -7.7 -15.15 -7.7 -16.4 -7.35 -16.6 -7.1 -16.8 -6.25 -16.75 -5.85 -15.8 -4.9 -15.3 -4.85 -15.2 -4.85 Q-14.85 -4.95 -14.65 -5.15 -14.35 -5.45 -14.4 -5.85 -14.4 -6.6 -15.1 -6.7 L-15.15 -6.7 -15.7 -6.6" fill="#354125" fill-rule="evenodd" stroke="none"/>
  </g>
</svg>
