<?xml version="1.0" encoding="UTF-8" standalone="no"?>
<svg xmlns:ffdec="https://www.free-decompiler.com/flash" xmlns:xlink="http://www.w3.org/1999/xlink" ffdec:objectType="shape" height="4.95px" width="40.3px" xmlns="http://www.w3.org/2000/svg">
  <g transform="matrix(1.0, 0.0, 0.0, 1.0, 35.55, 5.9)">
    <path d="M-33.85 -1.25 Q-34.2 -1.0 -34.6 -1.0 L-34.9 -1.05 -35.3 -1.3 -35.55 -2.05 -35.2 -2.75 Q-31.85 -5.85 -27.25 -5.55 L-23.2 -4.7 -22.65 -4.2 Q-22.45 -3.8 -22.6 -3.4 L-22.7 -3.2 -23.1 -2.85 -23.85 -2.8 Q-29.85 -4.85 -33.85 -1.25 M4.2 -2.85 L4.7 -2.25 4.6 -1.5 4.45 -1.3 4.0 -1.0 3.2 -1.1 Q-4.65 -5.6 -10.6 -2.85 L-11.4 -2.8 -11.5 -2.85 -11.95 -3.3 -12.0 -4.1 -11.45 -4.65 Q-4.65 -7.9 4.2 -2.85" fill="#48413c" fill-rule="evenodd" stroke="none"/>
  </g>
</svg>
