<?xml version="1.0" encoding="UTF-8" standalone="no"?>
<svg xmlns:ffdec="https://www.free-decompiler.com/flash" xmlns:xlink="http://www.w3.org/1999/xlink" ffdec:objectType="shape" height="8.8px" width="40.25px" xmlns="http://www.w3.org/2000/svg">
  <g transform="matrix(1.0, 0.0, 0.0, 1.0, 35.55, 10.5)">
    <path d="M-35.05 -1.85 L-35.1 -1.9 Q-35.4 -2.1 -35.5 -2.45 -35.65 -2.9 -35.4 -3.25 L-34.8 -3.7 Q-29.75 -5.15 -24.45 -9.75 L-23.7 -10.0 -23.05 -9.65 Q-22.75 -9.35 -22.8 -8.9 L-22.8 -8.8 -23.15 -8.25 Q-28.85 -3.25 -34.25 -1.75 L-35.05 -1.85 M4.0 -3.7 L4.6 -3.2 4.65 -2.45 4.15 -1.85 3.5 -1.75 3.4 -1.8 Q-4.55 -4.3 -11.8 -8.65 L-12.15 -8.95 -12.25 -9.25 -12.15 -10.0 -11.55 -10.45 -10.75 -10.35 Q-3.75 -6.1 4.0 -3.7" fill="#48413c" fill-rule="evenodd" stroke="none"/>
  </g>
</svg>
