<?xml version="1.0" encoding="UTF-8" standalone="no"?>
<svg xmlns:ffdec="https://www.free-decompiler.com/flash" xmlns:xlink="http://www.w3.org/1999/xlink" ffdec:objectType="shape" height="9.1px" width="38.5px" xmlns="http://www.w3.org/2000/svg">
  <g transform="matrix(1.0, 0.0, 0.0, 1.0, 35.55, 7.6)">
    <path d="M-35.5 -2.45 Q-35.65 -2.9 -35.4 -3.25 L-34.8 -3.7 Q-29.25 -5.3 -22.55 -1.6 L-22.1 -1.0 Q-22.0 -0.65 -22.15 -0.25 L-22.3 -0.1 -22.75 0.2 -23.5 0.15 Q-29.35 -3.1 -34.25 -1.75 L-34.75 -1.75 -35.05 -1.85 -35.5 -2.45 M2.4 -6.4 L2.9 -5.8 Q3.05 -5.4 2.85 -5.05 L2.25 -4.55 1.9 -4.5 1.5 -4.6 Q-4.95 -7.75 -11.5 1.1 L-12.15 1.5 -12.9 1.3 -13.3 0.65 -13.1 -0.1 Q-5.35 -10.55 2.4 -6.4" fill="#48413c" fill-rule="evenodd" stroke="none"/>
  </g>
</svg>
