<?xml version="1.0" encoding="UTF-8" standalone="no"?>
<svg xmlns:ffdec="https://www.free-decompiler.com/flash" xmlns:xlink="http://www.w3.org/1999/xlink" ffdec:objectType="shape" height="11.75px" width="36.5px" xmlns="http://www.w3.org/2000/svg">
  <g transform="matrix(1.0, 0.0, 0.0, 1.0, 35.55, 9.75)">
    <path d="M-34.6 -1.75 L-35.05 -1.85 -35.5 -2.45 Q-35.65 -2.9 -35.4 -3.25 L-34.8 -3.7 Q-29.15 -5.35 -22.4 0.25 -22.1 0.5 -22.05 0.9 -22.0 1.3 -22.25 1.65 L-22.75 2.0 -22.95 2.0 -23.7 1.8 Q-29.45 -3.05 -34.25 -1.75 L-34.6 -1.75 M0.45 -7.85 L0.95 -7.25 0.8 -6.5 0.2 -6.0 -0.55 -6.15 Q-4.35 -8.4 -7.35 -7.45 -10.4 -6.45 -12.65 -2.25 L-13.25 -1.8 -13.85 -1.8 -14.0 -1.85 -14.5 -2.45 -14.4 -3.2 Q-11.65 -8.3 -7.95 -9.4 -4.2 -10.6 0.45 -7.85" fill="#48413c" fill-rule="evenodd" stroke="none"/>
  </g>
</svg>
