<?xml version="1.0" encoding="UTF-8" standalone="no"?>
<svg xmlns:ffdec="https://www.free-decompiler.com/flash" xmlns:xlink="http://www.w3.org/1999/xlink" ffdec:objectType="shape" height="281.6px" width="281.5px" xmlns="http://www.w3.org/2000/svg">
  <g transform="matrix(1.0, 0.0, 0.0, 1.0, 140.75, 210.8)">
    <path d="M10.25 70.7 L5.15 70.75 3.45 70.75 -0.05 70.75 -2.2 70.75 -5.2 70.75 -10.4 70.75 -10.4 70.8 -11.4 70.8 -11.4 70.3 -22.25 69.1 -22.4 69.1 -31.3 67.5 -31.65 67.4 -32.4 67.25 -32.6 67.2 -45.7 63.5 Q-50.5 61.9 -55.1 59.95 L-55.2 59.9 -55.4 59.85 -56.35 59.45 -56.5 59.35 -57.7 58.8 Q-64.65 55.7 -71.2 51.75 L-72.55 50.95 -77.6 47.7 -77.95 47.45 -79.4 46.45 Q-86.95 41.2 -94.0 34.75 L-95.75 33.15 -96.5 32.45 -97.5 31.5 -97.65 31.35 -98.1 30.9 -99.55 29.5 Q-108.25 20.8 -115.1 11.35 L-116.25 9.7 -116.45 9.45 -117.15 8.45 -118.0 7.2 Q-123.1 -0.45 -127.1 -8.55 -130.3 -15.15 -132.8 -22.05 L-133.15 -23.05 Q-135.6 -30.15 -137.3 -37.55 L-137.5 -38.55 -137.9 -40.5 -138.05 -41.35 Q-140.0 -51.15 -140.55 -61.45 L-140.65 -63.45 -140.7 -65.9 -140.75 -70.05 Q-140.75 -78.2 -139.95 -86.05 L-138.1 -98.5 -137.3 -102.55 Q-135.3 -111.3 -132.25 -119.55 L-131.7 -120.95 -131.5 -121.4 -131.15 -122.3 -129.65 -125.95 -129.5 -126.3 -128.95 -127.55 -128.9 -127.6 -128.8 -127.85 -126.2 -133.3 -125.85 -133.95 -124.85 -135.9 -124.25 -137.05 Q-119.4 -145.85 -113.15 -154.05 L-112.7 -154.55 -111.65 -155.95 -111.2 -156.55 -110.0 -158.05 -103.9 -165.05 -101.05 -168.05 -100.8 -168.25 -99.55 -169.55 -98.8 -170.25 -93.95 -174.9 -93.25 -175.55 -92.5 -176.15 -90.4 -178.0 -89.4 -178.85 -88.35 -179.7 -87.55 -180.35 -86.05 -181.6 -85.5 -182.05 -84.45 -182.8 -83.45 -183.55 -77.45 -187.85 -77.2 -188.05 -77.15 -188.05 -77.0 -188.15 -76.35 -188.6 -75.25 -189.3 -74.85 -189.6 -73.35 -190.55 -68.3 -193.55 -67.35 -194.05 -67.3 -194.05 Q-53.25 -201.9 -37.6 -206.05 L-31.8 -207.45 -31.4 -207.55 -31.05 -207.6 -15.65 -210.0 -14.95 -210.1 -5.75 -210.7 -4.45 -210.75 -3.65 -210.75 1.5 -210.8 4.45 -210.75 17.3 -209.85 Q24.5 -209.05 31.4 -207.55 L37.6 -206.05 Q52.65 -202.05 66.35 -194.6 L66.45 -194.55 68.3 -193.55 71.4 -191.7 72.6 -191.0 73.35 -190.55 74.75 -189.65 77.2 -188.05 77.6 -187.75 Q81.6 -185.1 85.5 -182.05 L93.25 -175.55 98.15 -170.95 98.5 -170.6 100.8 -168.25 101.05 -168.05 103.9 -165.05 110.0 -158.05 111.2 -156.55 111.8 -155.75 112.75 -154.55 113.15 -154.05 Q119.4 -145.85 124.25 -137.05 L126.1 -133.55 127.5 -130.7 127.75 -130.2 128.0 -129.65 128.2 -129.15 128.25 -129.15 128.75 -128.05 129.8 -125.7 129.95 -125.3 130.05 -125.05 130.7 -123.5 131.85 -120.55 132.25 -119.55 Q135.3 -111.3 137.3 -102.55 L138.15 -98.5 139.8 -87.35 139.9 -86.5 139.95 -86.05 140.0 -85.8 Q140.75 -78.1 140.75 -70.05 L140.75 -67.05 140.7 -65.25 140.65 -64.25 140.6 -63.45 140.1 -55.6 140.0 -54.35 139.8 -52.3 137.7 -39.35 137.3 -37.55 137.0 -36.2 136.0 -32.2 133.15 -23.05 132.95 -22.4 132.8 -22.05 Q130.35 -15.15 127.1 -8.55 L124.6 -3.65 118.9 5.9 117.15 8.45 116.45 9.45 113.4 13.65 112.85 14.4 105.5 23.25 99.55 29.5 98.05 31.0 89.05 39.1 79.4 46.45 79.05 46.7 78.5 47.05 77.95 47.45 77.65 47.7 72.55 50.95 71.15 51.8 61.45 57.1 60.6 57.5 59.75 57.9 59.35 58.1 55.1 59.95 50.9 61.65 49.4 62.25 48.3 62.65 47.8 62.8 Q40.4 65.4 32.7 67.2 L31.65 67.4 31.4 67.45 24.3 68.8 12.1 70.25 11.25 70.35 11.25 70.8 10.25 70.8 10.25 70.7" fill="url(#gradient0)" fill-rule="evenodd" stroke="none"/>
  </g>
  <defs>
    <linearGradient gradientTransform="matrix(0.0413, -0.0535, 0.1359, 0.1048, 127.0, -222.05)" gradientUnits="userSpaceOnUse" id="gradient0" spreadMethod="pad" x1="-819.2" x2="819.2">
      <stop offset="0.0" stop-color="#ffffff" stop-opacity="0.0"/>
      <stop offset="0.5098039215686274" stop-color="#ffffff" stop-opacity="0.8"/>
      <stop offset="1.0" stop-color="#ffffff" stop-opacity="0.0"/>
    </linearGradient>
  </defs>
</svg>
