<?xml version="1.0" encoding="UTF-8" standalone="no"?>
<svg xmlns:ffdec="https://www.free-decompiler.com/flash" xmlns:xlink="http://www.w3.org/1999/xlink" ffdec:objectType="shape" height="133.05px" width="66.3px" xmlns="http://www.w3.org/2000/svg">
  <g transform="matrix(1.0, 0.0, 0.0, 1.0, 30.3, 127.35)">
    <path d="M-10.05 -126.95 L-10.2 -126.35 -10.0 -127.3 -9.95 -127.35 -10.05 -126.95" fill="#aa6a40" fill-rule="evenodd" stroke="none"/>
    <path d="M3.0 -100.15 L0.45 -100.1 -1.95 -100.1 -6.0 -100.2 -9.8 -100.35 -12.0 -100.5 -14.8 -100.85 -17.3 -101.2 -21.25 -102.2 -23.4 -98.0 -18.7 -97.05 -17.35 -96.85 -15.6 -96.65 -13.05 -96.45 -10.4 -96.25 -6.1 -96.1 -1.85 -96.05 0.7 -96.05 3.0 -96.1 7.05 -96.25 10.5 -96.45 13.4 -96.75 Q19.35 -97.3 20.2 -98.0 L19.2 -101.85 14.9 -101.05 6.8 -100.25 3.0 -100.15 M35.15 -19.65 L35.5 -18.4 35.8 -17.1 36.0 -15.1 Q35.85 -13.35 33.85 -11.6 L31.7 -9.8 31.55 -9.45 31.65 -6.25 Q31.45 -3.85 29.65 -2.55 L27.85 -1.45 Q27.1 0.2 25.05 1.05 L20.95 1.6 19.7 1.7 17.8 1.95 15.25 2.2 Q13.75 2.25 13.05 3.15 L11.95 4.45 9.4 5.15 0.2 5.5 -1.1 3.45 Q-6.25 3.45 -8.0 4.6 -9.75 5.7 -10.5 5.7 -11.75 5.7 -13.45 4.9 -16.2 3.65 -17.9 1.05 L-17.75 0.35 Q-18.8 0.25 -22.05 -1.35 -25.7 -3.1 -25.7 -4.1 -25.7 -4.75 -26.3 -5.25 L-27.65 -6.1 -28.7 -7.25 Q-29.0 -8.0 -28.85 -8.8 L-26.5 -19.05 -26.6 -19.1 -26.15 -20.95 -25.4 -23.75 -24.9 -25.35 -24.25 -27.65 -22.8 -33.15 -22.0 -36.55 -21.65 -38.5 -21.2 -41.75 -20.75 -45.0 -20.65 -46.05 -20.6 -46.35 -20.15 -50.7 -19.75 -56.7 -19.4 -62.6 -19.4 -63.3 -19.35 -63.3 -19.3 -63.9 -19.3 -63.95 -19.3 -64.2 -20.25 -64.7 -21.8 -65.6 -23.25 -66.65 Q-26.05 -68.8 -27.75 -71.5 -29.45 -74.25 -30.0 -77.55 -31.45 -85.85 -25.45 -97.65 L-24.85 -98.8 -24.25 -99.95 -22.9 -102.45 -22.8 -102.65 -22.0 -104.15 -20.0 -103.4 -16.4 -102.6 -16.0 -102.55 -15.65 -102.5 -15.6 -102.5 -11.55 -102.0 -10.1 -101.9 -6.25 -101.7 -6.25 -101.75 -0.05 -101.6 8.25 -101.85 9.55 -101.95 13.45 -102.35 14.3 -102.5 14.35 -102.5 18.15 -103.15 18.8 -103.3 18.9 -103.35 19.4 -103.55 19.55 -103.6 20.1 -103.95 20.35 -104.2 20.4 -104.25 20.4 -104.2 20.75 -102.65 20.8 -102.45 21.75 -96.9 22.4 -90.8 22.7 -87.4 22.85 -85.8 22.9 -85.2 23.05 -83.45 23.1 -82.75 23.15 -82.5 23.2 -81.8 23.2 -81.7 24.4 -67.85 24.85 -64.95 24.95 -64.3 25.0 -64.2 25.0 -64.15 25.0 -63.95 25.35 -61.9 25.95 -58.0 26.25 -56.1 26.95 -51.85 Q28.95 -40.9 30.7 -33.85 31.8 -29.75 33.3 -25.5 L33.65 -24.4 33.8 -23.9 34.7 -21.15 35.15 -19.65 M14.65 -95.4 L12.1 -95.1 9.15 -94.85 8.05 -94.8 3.5 -94.6 -1.1 -94.55 -7.9 -94.6 -14.15 -95.1 -21.6 -96.05 -24.15 -96.75 -27.7 -87.35 Q-28.75 -83.95 -28.75 -80.85 -28.75 -73.3 -23.2 -68.4 -21.6 -67.0 -19.45 -65.7 L-17.7 -64.65 -17.7 -63.1 -17.6 -63.1 -18.1 -61.95 Q-17.9 -62.2 -17.75 -62.1 -16.95 -61.65 -19.55 -45.4 -20.2 -41.25 -21.0 -37.05 L-22.4 -29.65 -24.95 -18.6 -27.75 -7.75 -27.05 -6.95 -25.35 -6.05 -21.9 -22.85 Q-22.2 -22.3 -20.7 -28.95 L-18.3 -39.25 -20.7 -26.45 -21.85 -19.9 -22.2 -17.95 -24.6 -4.3 -20.1 -1.85 -17.7 -0.5 -16.6 -4.9 -16.15 -6.9 -15.6 -11.55 -15.15 -14.05 -11.55 -40.05 -11.1 -40.35 -11.25 -38.25 -11.65 -32.65 -11.9 -29.8 -12.65 -23.2 -12.9 -21.35 -13.35 -18.4 -13.65 -16.45 -16.85 1.2 Q-16.35 2.5 -15.7 2.85 L-13.45 3.6 -11.0 4.1 Q-9.15 4.1 -6.85 2.8 -6.45 2.4 -5.85 2.25 L-5.4 2.15 -1.5 1.95 -0.75 1.95 Q-0.85 1.75 -0.6 1.95 L-0.4 2.25 0.6 4.1 9.55 4.0 Q10.6 3.65 11.35 3.0 L12.45 1.35 12.45 1.3 Q12.85 0.35 12.85 -0.65 L11.0 -15.5 10.75 -17.5 10.4 -20.45 10.2 -22.2 9.6 -27.45 9.25 -30.8 9.1 -32.55 8.7 -37.35 8.5 -39.55 8.6 -39.6 8.75 -38.65 8.8 -38.5 9.7 -32.7 10.15 -29.55 11.2 -22.25 11.45 -20.5 11.55 -19.7 11.8 -17.55 12.05 -15.55 12.65 -10.8 Q13.85 -1.65 13.7 1.2 L17.0 0.4 19.6 0.3 21.9 -0.15 26.45 -1.65 21.3 -20.3 20.45 -24.1 19.9 -27.25 19.9 -27.3 16.55 -43.6 21.7 -25.15 22.45 -21.55 23.15 -18.65 23.65 -16.75 24.15 -14.7 27.3 -3.05 30.6 -5.95 Q30.4 -10.05 28.7 -17.65 L28.5 -18.55 28.25 -19.55 26.6 -26.6 23.2 -46.7 28.55 -21.95 29.05 -19.75 29.5 -17.8 31.2 -10.85 35.15 -15.1 33.8 -18.9 30.9 -27.45 29.85 -30.85 27.55 -40.3 Q25.9 -48.35 24.65 -58.65 L24.7 -58.6 23.45 -64.5 23.35 -64.75 23.4 -64.7 20.25 -96.45 17.5 -95.7 14.65 -95.4" fill="#464646" fill-rule="evenodd" stroke="none"/>
    <path d="M6.8 -100.25 L14.9 -101.05 19.2 -101.85 20.2 -98.0 Q19.35 -97.3 13.4 -96.75 L12.65 -100.7 9.8 -100.45 10.5 -96.45 7.05 -96.25 6.8 -100.25 M-10.4 -96.25 L-13.05 -96.45 -12.5 -98.4 -12.0 -100.5 -9.8 -100.35 -10.4 -96.25 M-15.6 -96.65 L-17.35 -96.85 -16.1 -101.0 -17.3 -101.2 -14.8 -100.85 -15.6 -96.65 M-18.7 -97.05 L-23.4 -98.0 -21.25 -102.2 -17.3 -101.2 -18.7 -97.05 M19.0 -64.3 L17.9 -73.65 17.8 -74.5 16.45 -70.85 14.8 -67.35 14.35 -67.55 Q13.85 -67.9 13.7 -68.45 14.55 -71.2 15.3 -75.95 16.15 -81.65 15.95 -85.25 L15.7 -85.65 13.1 -81.3 11.2 -78.6 10.55 -79.2 10.1 -79.8 Q10.1 -80.7 11.65 -83.35 L13.85 -87.3 14.75 -89.3 Q15.15 -91.0 14.65 -95.4 L17.5 -95.7 20.25 -96.45 23.4 -64.7 23.35 -64.75 23.45 -64.5 24.7 -58.6 24.65 -58.65 Q25.9 -48.35 27.55 -40.3 L29.85 -30.85 30.9 -27.45 33.8 -18.9 35.15 -15.1 31.2 -10.85 29.5 -17.8 29.05 -19.75 28.55 -21.95 23.2 -46.7 26.6 -26.6 26.45 -25.6 Q25.75 -28.05 25.3 -31.0 L25.25 -31.45 24.45 -37.4 23.9 -41.4 Q23.3 -44.65 22.4 -51.4 21.45 -57.4 19.85 -61.25 L19.3 -62.4 19.05 -64.2 19.45 -64.2 Q20.3 -64.2 20.95 -64.65 L22.75 -66.1 Q23.1 -66.95 22.1 -66.95 21.8 -66.95 21.0 -66.35 L19.0 -64.3 M-21.6 -96.05 Q-22.55 -94.1 -24.25 -88.45 L-25.8 -82.95 Q-25.8 -76.3 -21.2 -74.4 -18.0 -73.1 -7.25 -73.1 L-3.3 -73.3 2.35 -74.5 Q2.95 -74.35 2.95 -72.75 2.95 -70.25 2.05 -68.9 0.3 -66.45 -6.35 -61.9 -6.6 -62.4 -7.2 -62.6 L-10.05 -63.0 -10.8 -62.95 -10.9 -61.55 -7.95 -61.3 -8.95 -61.1 -8.7 -61.1 -10.85 -60.55 -10.9 -60.55 -11.6 -60.35 -14.25 -58.1 Q-16.8 -55.85 -17.25 -53.2 L-18.75 -44.4 Q-19.75 -38.3 -21.75 -30.05 L-24.0 -20.4 -24.4 -18.5 -27.05 -6.95 -27.75 -7.75 -24.95 -18.6 -22.4 -29.65 -21.0 -37.05 Q-20.2 -41.25 -19.55 -45.4 -16.95 -61.65 -17.75 -62.1 -17.9 -62.2 -18.1 -61.95 L-17.6 -63.1 -17.7 -63.1 -17.7 -64.65 -19.45 -65.7 Q-21.6 -67.0 -23.2 -68.4 -28.75 -73.3 -28.75 -80.85 -28.75 -83.95 -27.7 -87.35 L-24.15 -96.75 -21.6 -96.05 M-5.4 2.15 Q-4.5 -7.35 -4.45 -15.25 L-4.45 -15.55 -4.45 -17.55 -4.4 -20.55 -4.4 -22.3 -4.4 -22.95 -4.4 -23.05 -4.35 -28.0 -4.35 -30.05 -4.3 -33.05 -4.25 -36.65 -4.25 -39.8 -4.2 -44.3 -3.5 -40.05 -3.0 -36.85 -2.35 -32.45 -2.3 -31.25 -2.2 -28.85 -2.2 -28.45 -2.1 -23.85 -2.05 -22.2 -2.0 -20.45 -1.9 -17.45 -1.85 -15.45 -1.5 1.95 -5.4 2.15 M11.35 3.0 L9.7 -15.45 9.6 -16.5 9.55 -17.45 9.4 -20.45 9.35 -22.2 8.85 -31.4 8.8 -32.5 8.5 -38.45 8.5 -38.8 8.25 -43.25 8.1 -46.15 Q8.35 -46.95 9.25 -42.8 L11.05 -33.05 11.3 -31.45 12.1 -26.75 12.8 -22.35 13.1 -20.6 13.6 -17.65 13.9 -15.65 14.4 -12.65 15.8 -5.25 Q16.3 -2.1 17.0 0.4 L13.7 1.2 Q13.85 -1.65 12.65 -10.8 L12.05 -15.55 11.8 -17.55 11.55 -19.7 11.45 -20.5 11.2 -22.25 10.15 -29.55 9.7 -32.7 8.8 -38.5 8.75 -38.65 8.6 -39.6 8.5 -39.55 8.7 -37.35 9.1 -32.55 9.25 -30.8 9.6 -27.45 10.2 -22.2 10.4 -20.45 10.75 -17.5 11.0 -15.5 12.85 -0.65 Q12.85 0.35 12.45 1.3 L12.45 1.35 11.35 3.0 M9.45 -63.5 L11.4 -63.55 Q11.75 -63.55 11.85 -63.35 L11.8 -62.1 8.8 -61.85 7.05 -62.2 Q6.6 -62.45 6.65 -62.75 L7.25 -63.25 8.55 -63.5 9.45 -63.5 M1.7 -61.5 Q1.7 -62.1 2.3 -62.5 2.85 -62.95 3.65 -62.95 L5.85 -62.9 5.8 -61.45 2.15 -61.45 1.7 -61.5 M13.4 -63.75 Q13.4 -64.2 14.05 -64.5 L15.5 -64.8 17.0 -64.5 Q17.6 -64.2 17.6 -63.75 17.6 -63.3 17.0 -63.0 L15.5 -62.7 14.05 -63.0 Q13.4 -63.3 13.4 -63.75 M-18.9 -91.25 Q-18.45 -92.05 -17.75 -92.2 L-15.55 -92.45 Q-15.45 -92.15 -15.5 -91.65 L-15.55 -91.2 Q-18.4 -91.0 -18.9 -91.25 M-4.15 -62.6 L-2.55 -62.85 -0.95 -62.6 Q-0.3 -62.4 -0.3 -62.05 -0.3 -61.7 -0.95 -61.45 L-2.55 -61.25 -4.15 -61.45 -4.8 -62.05 -4.15 -62.6 M-16.55 -63.9 L-17.05 -63.25 Q-16.5 -62.85 -14.8 -62.35 L-12.65 -61.85 -12.4 -62.65 -14.4 -63.75 -16.55 -63.9" fill="#8a8a8a" fill-rule="evenodd" stroke="none"/>
    <path d="M3.0 -100.15 L6.8 -100.25 7.05 -96.25 3.0 -96.1 3.0 -100.15 M13.4 -96.75 L10.5 -96.45 9.8 -100.45 12.65 -100.7 13.4 -96.75 M0.7 -96.05 L-1.85 -96.05 -1.95 -100.1 0.45 -100.1 0.7 -96.05 M-6.1 -96.1 L-10.4 -96.25 -9.8 -100.35 -6.0 -100.2 -6.1 -96.1 M-13.05 -96.45 L-15.6 -96.65 -14.8 -100.85 -12.0 -100.5 -12.5 -98.4 -13.05 -96.45 M-17.35 -96.85 L-18.7 -97.05 -17.3 -101.2 -16.1 -101.0 -17.35 -96.85 M14.65 -95.4 Q15.15 -91.0 14.75 -89.3 L13.85 -87.3 11.65 -83.35 Q10.1 -80.7 10.1 -79.8 L10.55 -79.2 11.2 -78.6 13.1 -81.3 15.7 -85.65 15.95 -85.25 Q16.15 -81.65 15.3 -75.95 14.55 -71.2 13.7 -68.45 13.85 -67.9 14.35 -67.55 L14.8 -67.35 16.45 -70.85 17.8 -74.5 17.9 -73.65 19.0 -64.3 18.85 -64.25 19.05 -64.2 19.3 -62.4 19.85 -61.25 Q21.45 -57.4 22.4 -51.4 23.3 -44.65 23.9 -41.4 L24.45 -37.4 25.25 -31.45 25.3 -31.0 Q25.75 -28.05 26.45 -25.6 L26.0 -25.15 25.0 -29.6 22.2 -42.15 21.6 -44.75 Q18.5 -58.1 18.9 -55.2 19.15 -52.75 18.4 -52.8 L18.75 -44.6 21.7 -25.15 16.55 -43.6 19.9 -27.3 19.9 -27.25 20.45 -24.1 18.65 -31.65 16.15 -41.65 14.75 -46.6 Q12.2 -55.0 12.9 -46.2 L13.1 -44.2 13.5 -40.2 14.25 -34.35 14.95 -29.1 15.6 -24.7 15.9 -22.55 15.9 -22.4 16.05 -20.85 16.4 -17.85 16.65 -15.9 16.9 -14.15 Q17.65 -8.8 19.6 0.3 L17.0 0.4 Q16.3 -2.1 15.8 -5.25 L14.4 -12.65 13.9 -15.65 13.6 -17.65 13.1 -20.6 12.8 -22.35 12.1 -26.75 11.3 -31.45 11.05 -33.05 9.25 -42.8 Q8.35 -46.95 8.1 -46.15 L8.25 -43.25 8.5 -38.8 8.5 -38.45 8.8 -32.5 8.85 -31.4 9.35 -22.2 9.4 -20.45 9.55 -17.45 9.6 -16.5 9.7 -15.45 11.35 3.0 Q10.6 3.65 9.55 4.0 L8.85 -1.15 8.85 -1.2 7.05 -15.35 6.8 -17.35 6.45 -20.35 6.25 -22.1 4.9 -36.05 4.75 -38.0 Q3.85 -48.0 3.35 -49.35 L3.35 -49.45 Q2.2 -52.45 0.7 -52.45 -0.4 -52.45 -0.8 -52.05 -1.55 -51.4 -1.8 -49.65 L-1.95 -47.3 -1.85 -44.15 -1.7 -40.6 -1.55 -37.1 -1.45 -33.8 -1.3 -30.45 -1.05 -24.15 -1.0 -22.15 -0.9 -20.4 -0.8 -17.4 -0.75 -16.35 -0.7 -15.4 Q-0.3 -6.6 -0.4 2.25 L-0.6 1.95 Q-0.85 1.75 -0.75 1.95 L-1.5 1.95 -1.85 -15.45 -1.9 -17.45 -2.0 -20.45 -2.05 -22.2 -2.1 -23.85 -2.2 -28.45 -2.2 -28.85 -2.3 -31.25 -2.35 -32.45 -3.0 -36.85 -3.5 -40.05 -4.2 -44.3 -4.25 -39.8 -4.25 -36.65 -4.3 -33.05 -4.35 -30.05 -4.35 -28.0 -4.4 -23.05 -4.4 -22.95 -4.4 -22.3 -4.4 -20.55 -4.45 -17.55 -4.45 -15.55 -4.45 -15.25 Q-4.5 -7.35 -5.4 2.15 L-5.85 2.25 Q-6.45 2.4 -6.85 2.8 L-7.55 -22.65 -7.3 -26.95 -7.05 -31.6 -6.85 -35.55 -6.8 -36.2 -6.7 -38.9 -6.7 -40.0 -6.7 -40.05 -6.7 -41.25 -6.9 -47.25 Q-7.2 -51.15 -7.75 -53.6 L-8.55 -52.6 -9.35 -50.15 -10.9 -41.3 -11.1 -40.35 -11.55 -40.05 -15.15 -14.05 -15.6 -11.55 -16.15 -6.9 -16.6 -4.9 -17.7 -0.5 -20.1 -1.85 -13.95 -43.55 -13.95 -51.3 -14.25 -51.9 -15.05 -51.9 -15.85 -50.3 -16.1 -49.85 -16.15 -49.7 -16.95 -44.9 Q-17.7 -40.75 -18.3 -39.25 L-20.7 -28.95 Q-22.2 -22.3 -21.9 -22.85 L-25.35 -6.05 -27.05 -6.95 -24.4 -18.5 -24.0 -20.4 -21.75 -30.05 Q-19.75 -38.3 -18.75 -44.4 L-17.25 -53.2 Q-16.8 -55.85 -14.25 -58.1 L-11.6 -60.35 -10.9 -60.55 -10.85 -60.55 -8.7 -61.1 -8.95 -61.1 -7.95 -61.3 -6.9 -61.5 -6.35 -61.9 Q0.3 -66.45 2.05 -68.9 2.95 -70.25 2.95 -72.75 2.95 -74.35 2.35 -74.5 L-3.3 -73.3 -7.25 -73.1 Q-18.0 -73.1 -21.2 -74.4 -25.8 -76.3 -25.8 -82.95 L-24.25 -88.45 Q-22.55 -94.1 -21.6 -96.05 L-14.15 -95.1 -7.9 -94.6 -14.95 -94.35 -19.9 -94.0 -20.05 -93.95 Q-19.1 -93.5 -15.65 -92.85 L-7.65 -92.0 Q-4.05 -92.0 -3.05 -92.5 L-1.1 -94.55 3.5 -94.6 -1.25 -91.5 Q-2.2 -90.85 -6.3 -90.2 L-18.05 -88.65 Q-19.4 -88.15 -19.8 -86.8 -20.15 -85.6 -20.15 -82.25 -20.15 -78.95 -17.05 -77.9 L-9.85 -77.25 Q2.55 -77.25 6.7 -81.75 8.45 -83.65 9.75 -87.35 L12.1 -95.1 14.65 -95.4 M9.45 -63.5 L11.45 -68.5 13.1 -75.35 Q13.0 -76.7 12.0 -76.8 9.15 -73.8 7.4 -68.3 6.0 -63.9 3.65 -62.95 2.85 -62.95 2.3 -62.5 1.7 -62.1 1.7 -61.5 L1.2 -61.0 1.1 -61.0 1.15 -60.95 1.4 -60.9 Q0.45 -60.05 0.45 -58.45 -0.05 -56.9 0.7 -55.8 2.45 -53.35 10.9 -53.2 L11.1 -53.2 Q21.9 -53.05 11.65 -59.05 L8.4 -60.85 8.8 -61.85 11.8 -62.1 11.85 -63.35 Q11.75 -63.55 11.4 -63.55 L9.45 -63.5 M13.4 -63.75 Q13.4 -63.3 14.05 -63.0 L15.5 -62.7 17.0 -63.0 Q17.6 -63.3 17.6 -63.75 17.6 -64.2 17.0 -64.5 L15.5 -64.8 14.05 -64.5 Q13.4 -64.2 13.4 -63.75 M-18.9 -91.25 Q-18.4 -91.0 -15.55 -91.2 L-15.5 -91.65 Q-15.45 -92.15 -15.55 -92.45 L-17.75 -92.2 Q-18.45 -92.05 -18.9 -91.25 M-4.15 -62.6 L-4.8 -62.05 -4.15 -61.45 -2.55 -61.25 -0.95 -61.45 Q-0.3 -61.7 -0.3 -62.05 -0.3 -62.4 -0.95 -62.6 L-2.55 -62.85 -4.15 -62.6" fill="#b4b4b4" fill-rule="evenodd" stroke="none"/>
    <path d="M0.45 -100.1 L3.0 -100.15 3.0 -96.1 0.7 -96.05 0.45 -100.1 M-1.85 -96.05 L-6.1 -96.1 -6.0 -100.2 -1.95 -100.1 -1.85 -96.05 M12.1 -95.1 L9.75 -87.35 Q8.45 -83.65 6.7 -81.75 2.55 -77.25 -9.85 -77.25 L-17.05 -77.9 Q-20.15 -78.95 -20.15 -82.25 -20.15 -85.6 -19.8 -86.8 -19.4 -88.15 -18.05 -88.65 L-6.3 -90.2 Q-2.2 -90.85 -1.25 -91.5 L3.5 -94.6 8.05 -94.8 -2.3 -88.35 Q-3.2 -87.85 -7.3 -87.6 L-15.1 -86.65 Q-17.8 -85.8 -17.8 -83.4 -17.8 -81.6 -16.65 -81.25 L-13.1 -81.1 Q-4.8 -81.1 -1.1 -82.55 6.2 -85.45 9.15 -94.85 L12.1 -95.1 M-1.1 -94.55 L-3.05 -92.5 Q-4.05 -92.0 -7.65 -92.0 L-15.65 -92.85 Q-19.1 -93.5 -20.05 -93.95 L-19.9 -94.0 -14.95 -94.35 -7.9 -94.6 -1.1 -94.55 M-18.3 -39.25 Q-17.7 -40.75 -16.95 -44.9 L-16.15 -49.7 -16.1 -49.85 -15.85 -50.3 -15.05 -51.9 -14.25 -51.9 -13.95 -51.3 -13.95 -43.55 -20.1 -1.85 -24.6 -4.3 -22.2 -17.95 -21.85 -19.9 -20.7 -26.45 -18.3 -39.25 M-11.1 -40.35 L-10.9 -41.3 -9.35 -50.15 -8.55 -52.6 -7.75 -53.6 Q-7.2 -51.15 -6.9 -47.25 L-6.7 -41.25 -6.7 -40.05 -6.7 -40.0 -6.7 -38.9 -6.8 -36.2 -6.85 -35.55 -7.05 -31.6 -7.3 -26.95 -7.55 -22.65 -6.85 2.8 Q-9.15 4.1 -11.0 4.1 L-13.45 3.6 -15.7 2.85 Q-16.35 2.5 -16.85 1.2 L-13.65 -16.45 -13.35 -18.4 -12.9 -21.35 -12.65 -23.2 -11.9 -29.8 -11.65 -32.65 -11.25 -38.25 -11.1 -40.35 M-0.4 2.25 Q-0.3 -6.6 -0.7 -15.4 L-0.75 -16.35 -0.8 -17.4 -0.9 -20.4 -1.0 -22.15 -1.05 -24.15 -1.3 -30.45 -1.45 -33.8 -1.55 -37.1 -1.7 -40.6 -1.85 -44.15 -1.95 -47.3 -1.8 -49.65 Q-1.55 -51.4 -0.8 -52.05 -0.4 -52.45 0.7 -52.45 2.2 -52.45 3.35 -49.45 L3.35 -49.35 Q3.85 -48.0 4.75 -38.0 L4.9 -36.05 6.25 -22.1 6.45 -20.35 6.8 -17.35 7.05 -15.35 8.85 -1.2 8.85 -1.15 9.55 4.0 0.6 4.1 -0.4 2.25 M19.6 0.3 Q17.65 -8.8 16.9 -14.15 L16.65 -15.9 16.4 -17.85 16.05 -20.85 15.9 -22.4 15.9 -22.55 15.6 -24.7 14.95 -29.1 14.25 -34.35 13.5 -40.2 13.1 -44.2 12.9 -46.2 Q12.2 -55.0 14.75 -46.6 L16.15 -41.65 18.65 -31.65 20.45 -24.1 21.3 -20.3 19.55 -22.65 Q18.9 -22.6 18.75 -22.15 L18.6 -21.1 18.55 -18.7 18.55 -18.05 18.65 -16.1 Q18.8 -12.4 19.6 -9.25 L21.9 -0.15 19.6 0.3 M21.7 -25.15 L18.75 -44.6 18.4 -52.8 Q19.15 -52.75 18.9 -55.2 18.5 -58.1 21.6 -44.75 L22.2 -42.15 25.0 -29.6 26.0 -25.15 26.45 -25.6 26.6 -26.6 28.25 -19.55 28.5 -18.55 28.7 -17.65 Q30.4 -10.05 30.6 -5.95 L27.3 -3.05 24.15 -14.7 23.65 -16.75 23.15 -18.65 22.45 -21.55 21.7 -25.15 M3.65 -62.95 Q6.0 -63.9 7.4 -68.3 9.15 -73.8 12.0 -76.8 13.0 -76.7 13.1 -75.35 L11.45 -68.5 9.45 -63.5 8.55 -63.5 7.25 -63.25 6.65 -62.75 Q6.6 -62.45 7.05 -62.2 L8.8 -61.85 8.4 -60.85 11.65 -59.05 Q21.9 -53.05 11.1 -53.2 L10.9 -53.2 Q2.45 -53.35 0.7 -55.8 -0.05 -56.9 0.45 -58.45 0.45 -60.05 1.4 -60.9 L1.15 -60.95 1.1 -61.0 1.2 -61.0 1.7 -61.5 2.15 -61.45 5.8 -61.45 5.85 -62.9 3.65 -62.95 M1.25 -43.15 L1.15 -42.25 1.1 -41.55 1.1 -41.35 1.1 -37.5 1.2 -28.35 1.25 -24.7 1.35 -22.1 1.4 -20.35 1.6 -17.35 1.65 -17.05 2.15 -15.35 2.2 -15.1 2.8 -11.05 3.4 -4.45 Q3.5 -3.2 3.95 -1.3 L4.55 0.85 Q5.25 0.6 5.45 -0.3 L5.55 -2.7 4.95 -15.35 4.85 -17.35 4.7 -19.15 4.65 -20.35 4.5 -22.1 4.25 -25.3 4.2 -26.05 Q3.6 -32.9 2.85 -37.75 L1.55 -44.2 1.25 -43.15 M26.8 -15.2 L27.35 -11.4 28.5 -8.3 28.95 -7.65 Q29.45 -7.1 29.9 -7.5 L28.85 -13.7 28.0 -17.5 27.4 -19.4 26.7 -20.95 26.5 -18.45 26.6 -17.25 26.8 -15.2 M-8.2 -38.9 L-8.35 -38.15 -9.25 -33.25 -9.55 -31.65 -9.75 -30.4 -11.15 -21.15 -11.55 -18.2 -11.8 -16.2 -13.4 -0.7 -12.7 0.3 -12.35 0.6 Q-11.3 0.6 -10.6 -6.95 L-9.95 -16.0 -9.85 -17.6 -9.8 -18.0 -9.35 -20.95 -9.1 -22.65 -8.7 -25.95 -8.55 -27.0 -7.95 -32.25 Q-7.55 -36.6 -7.8 -38.0 L-8.2 -38.9" fill="#e0e0e0" fill-rule="evenodd" stroke="none"/>
    <path d="M8.05 -94.8 L9.15 -94.85 Q6.2 -85.45 -1.1 -82.55 -4.8 -81.1 -13.1 -81.1 L-16.65 -81.25 Q-17.8 -81.6 -17.8 -83.4 -17.8 -85.8 -15.1 -86.65 L-7.3 -87.6 Q-3.2 -87.85 -2.3 -88.35 L8.05 -94.8 M1.25 -43.15 L1.55 -44.2 2.85 -37.75 Q3.6 -32.9 4.2 -26.05 L4.25 -25.3 4.5 -22.1 4.65 -20.35 4.7 -19.15 4.85 -17.35 4.95 -15.35 5.55 -2.7 5.45 -0.3 Q5.25 0.6 4.55 0.85 L3.95 -1.3 Q3.5 -3.2 3.4 -4.45 L2.8 -11.05 2.2 -15.1 2.15 -15.35 1.65 -17.05 1.6 -17.35 1.4 -20.35 1.35 -22.1 1.25 -24.7 1.2 -28.35 1.1 -37.5 1.1 -41.35 1.1 -41.55 1.15 -42.25 1.25 -43.15 M21.9 -0.15 L19.6 -9.25 Q18.8 -12.4 18.65 -16.1 L18.55 -18.05 18.55 -18.7 18.6 -21.1 18.75 -22.15 Q18.9 -22.6 19.55 -22.65 L21.3 -20.3 26.45 -1.65 21.9 -0.15 M26.8 -15.2 L26.6 -17.25 26.5 -18.45 26.7 -20.95 27.4 -19.4 28.0 -17.5 28.85 -13.7 29.9 -7.5 Q29.45 -7.1 28.95 -7.65 L28.5 -8.3 27.35 -11.4 26.8 -15.2 M-8.2 -38.9 L-7.8 -38.0 Q-7.55 -36.6 -7.95 -32.25 L-8.55 -27.0 -8.7 -25.95 -9.1 -22.65 -9.35 -20.95 -9.8 -18.0 -9.85 -17.6 -9.95 -16.0 -10.6 -6.95 Q-11.3 0.6 -12.35 0.6 L-12.7 0.3 -13.4 -0.7 -11.8 -16.2 -11.55 -18.2 -11.15 -21.15 -9.75 -30.4 -9.55 -31.65 -9.25 -33.25 -8.35 -38.15 -8.2 -38.9" fill="#ffffff" fill-rule="evenodd" stroke="none"/>
    <path d="M-6.35 -61.9 L-6.9 -61.5 -7.95 -61.3 -10.9 -61.55 -10.8 -62.95 -10.05 -63.0 -7.2 -62.6 Q-6.6 -62.4 -6.35 -61.9 M19.05 -64.2 L18.85 -64.25 19.0 -64.3 21.0 -66.35 Q21.8 -66.95 22.1 -66.95 23.1 -66.95 22.75 -66.1 L20.95 -64.65 Q20.3 -64.2 19.45 -64.2 L19.05 -64.2 M-16.55 -63.9 L-14.4 -63.75 -12.4 -62.65 -12.65 -61.85 -14.8 -62.35 Q-16.5 -62.85 -17.05 -63.25 L-16.55 -63.9" fill="#616161" fill-rule="evenodd" stroke="none"/>
  </g>
</svg>
