<?xml version="1.0" encoding="UTF-8" standalone="no"?>
<svg xmlns:ffdec="https://www.free-decompiler.com/flash" xmlns:xlink="http://www.w3.org/1999/xlink" ffdec:objectType="shape" height="94.0px" width="36.35px" xmlns="http://www.w3.org/2000/svg">
  <g transform="matrix(1.0, 0.0, 0.0, 1.0, 18.25, 51.1)">
    <path d="M18.1 33.5 L18.1 33.65 18.05 34.2 18.0 34.55 18.0 34.75 Q17.45 36.85 15.3 38.65 L15.2 38.7 14.6 39.15 14.55 39.15 12.6 40.3 12.5 40.35 12.45 40.35 8.2 41.95 8.15 41.95 6.45 42.35 6.35 42.35 2.35 42.8 -0.05 42.9 -2.25 42.85 -7.4 42.15 -7.45 42.1 -8.0 42.0 -8.1 41.95 -12.45 40.35 -12.5 40.35 -14.7 39.1 -14.8 39.05 -15.2 38.75 Q-17.6 36.9 -18.0 34.7 L-18.15 33.5 -18.15 30.15 -18.15 29.45 Q-18.05 27.05 -15.95 25.1 L-15.9 25.05 -15.35 24.6 Q-13.05 1.65 -15.95 -20.3 -17.65 -21.9 -18.0 -23.7 L-18.15 -24.9 -18.15 -28.25 -18.15 -28.95 Q-18.05 -31.35 -15.95 -33.3 L-15.9 -33.35 -15.25 -33.9 -15.2 -33.95 -12.5 -35.6 -12.45 -35.6 -9.65 -36.7 -6.65 -37.45 -4.5 -48.45 Q-4.6 -49.75 -2.8 -50.55 L-2.85 -50.55 -2.5 -50.65 Q-1.5 -51.15 -0.1 -51.1 L0.0 -51.1 2.25 -50.8 2.7 -50.6 Q4.45 -49.75 4.4 -48.45 L6.6 -37.45 9.6 -36.7 12.3 -35.6 12.6 -35.45 15.3 -33.75 15.8 -33.35 15.85 -33.3 Q18.1 -31.2 18.1 -28.65 L18.1 -28.55 18.1 -24.9 18.1 -24.75 18.05 -24.2 18.0 -23.85 18.0 -23.65 Q17.55 -21.9 15.9 -20.25 12.45 2.15 15.2 24.55 L15.25 24.6 15.3 24.65 15.8 25.05 15.85 25.1 Q18.1 27.2 18.1 29.75 L18.1 29.85 18.1 33.5" fill="#000000" fill-rule="evenodd" stroke="none"/>
    <path d="M2.7 -48.1 L2.75 -47.7 2.2 -47.4 2.1 -47.35 1.5 -47.1 0.2 -46.95 -0.05 -46.95 -0.25 -46.95 -0.6 -46.95 -1.65 -47.15 -2.25 -47.35 -2.5 -47.45 -2.85 -47.7 -2.8 -48.1 -2.0 -48.1 -1.6 -47.7 -1.5 -47.7 -0.6 -47.5 -0.25 -47.5 -0.15 -47.5 0.15 -47.5 1.2 -47.7 1.4 -47.75 1.75 -48.1 2.7 -48.1 M16.3 -29.1 L16.35 -28.65 16.35 -28.55 16.35 -28.35 16.0 -26.95 Q15.6 -26.0 14.7 -25.15 L14.65 -25.1 14.0 -24.6 13.45 -24.2 13.0 -23.9 12.1 -23.4 11.75 -23.2 11.65 -23.15 9.8 -22.4 7.9 -21.8 6.8 -21.55 6.2 -21.4 2.25 -20.85 -0.05 -20.8 -2.2 -20.85 -6.9 -21.45 -7.2 -21.55 -7.85 -21.7 -9.75 -22.3 -11.7 -23.15 -12.05 -23.35 -13.05 -23.9 -14.2 -24.65 -14.6 -24.95 -14.8 -25.15 Q-15.7 -26.0 -16.05 -26.95 L-16.4 -28.0 -16.4 -28.3 -16.4 -28.55 -16.4 -28.65 -16.35 -29.15 -16.25 -28.65 -16.0 -27.95 Q-15.6 -26.95 -14.7 -26.05 L-14.2 -25.6 -12.05 -24.2 -12.0 -24.2 -11.6 -24.0 -11.4 -23.9 -9.65 -23.15 -7.85 -22.55 -7.2 -22.4 -7.15 -22.4 -6.95 -22.35 -2.2 -21.65 -0.05 -21.6 2.25 -21.65 6.2 -22.2 6.85 -22.3 7.15 -22.4 7.9 -22.6 9.75 -23.2 11.3 -23.9 11.5 -24.0 11.9 -24.2 12.1 -24.3 14.0 -25.55 14.65 -26.1 Q15.5 -27.0 15.95 -27.95 L16.2 -28.65 16.3 -29.1 M7.45 -31.65 L7.45 -30.95 7.15 -30.55 6.3 -29.85 5.5 -29.4 4.5 -28.9 4.15 -28.8 3.8 -28.65 3.75 -28.65 2.5 -28.35 0.95 -28.15 0.1 -28.15 -0.05 -28.15 -0.25 -28.15 -0.75 -28.15 -1.35 -28.2 -3.0 -28.45 -3.65 -28.6 -3.75 -28.65 -4.25 -28.8 -5.0 -29.1 -5.6 -29.4 Q-6.3 -29.75 -6.8 -30.15 L-7.2 -30.55 -7.5 -30.95 -7.5 -31.65 -6.55 -31.65 -6.4 -31.3 Q-6.05 -30.65 -5.0 -30.1 L-4.9 -30.05 -4.6 -29.9 -3.55 -29.5 -2.95 -29.35 -2.55 -29.25 -1.3 -29.05 -0.25 -29.0 -0.05 -29.0 0.9 -29.05 2.15 -29.2 2.5 -29.25 3.7 -29.55 4.55 -29.9 4.6 -29.9 Q5.65 -30.4 6.1 -31.0 L6.35 -31.3 6.5 -31.65 7.45 -31.65 M16.2 29.75 L16.3 29.3 16.35 29.75 16.35 29.85 16.35 30.05 16.0 31.45 14.7 33.25 14.65 33.3 14.0 33.8 13.45 34.2 13.0 34.5 12.1 35.0 11.65 35.25 7.9 36.6 6.2 37.0 2.25 37.55 -0.05 37.6 -2.2 37.55 -7.2 36.85 -7.85 36.7 -11.7 35.25 -12.05 35.05 -13.05 34.5 -14.2 33.75 -14.6 33.45 -14.8 33.25 Q-15.7 32.4 -16.05 31.45 L-16.4 30.4 -16.4 30.1 -16.4 29.85 -16.4 29.75 -16.35 29.25 -16.25 29.75 -16.0 30.45 -14.7 32.35 -14.2 32.8 -12.05 34.2 -12.0 34.2 -11.6 34.4 -11.4 34.5 -7.85 35.85 -7.2 36.0 -2.2 36.75 -0.05 36.8 2.25 36.75 6.2 36.2 7.9 35.8 Q9.7 35.3 11.3 34.5 L11.5 34.4 11.9 34.2 12.1 34.1 14.0 32.85 14.65 32.3 15.95 30.45 16.2 29.75" fill="#ffffbd" fill-rule="evenodd" stroke="none"/>
    <path d="M0.85 -29.8 L-0.05 -29.75 -0.25 -29.75 -1.3 -29.8 -0.6 -46.95 -0.25 -46.95 -0.05 -46.95 0.2 -46.95 0.85 -29.8 M-2.8 -48.1 L-2.75 -48.35 -2.55 -48.7 -2.35 -48.85 -2.1 -49.0 -0.05 -49.35 1.95 -49.0 2.0 -49.0 2.45 -48.7 2.65 -48.35 2.7 -48.1 1.75 -48.1 1.75 -48.2 1.2 -48.7 -0.15 -48.9 -1.5 -48.7 -2.05 -48.2 -2.0 -48.1 -2.8 -48.1 M2.25 -17.3 L-0.05 -17.25 -2.2 -17.3 -2.2 -20.85 -0.05 -20.8 2.25 -20.85 2.25 -17.3 M6.5 -31.65 L6.6 -32.25 6.6 -32.3 6.55 -32.6 6.5 -32.8 7.35 -32.8 7.4 -32.6 7.45 -32.25 7.45 -31.65 6.5 -31.65 M-7.5 -31.65 L-7.5 -32.25 -7.5 -32.6 -7.45 -32.8 -6.55 -32.8 -6.65 -32.6 -6.65 -32.3 -6.65 -32.25 -6.6 -31.8 -6.55 -31.65 -7.5 -31.65 M11.9 -24.2 L11.5 -24.0 11.3 -23.9 9.75 -23.2 7.9 -22.6 7.15 -22.4 6.85 -22.3 6.2 -22.2 2.25 -21.65 -0.05 -21.6 -2.2 -21.65 -6.95 -22.35 -7.15 -22.4 -7.2 -22.4 -7.85 -22.55 -9.65 -23.15 -11.4 -23.9 -11.6 -24.0 -12.0 -24.2 11.9 -24.2 M-1.9 -11.2 Q-1.9 -12.0 -1.45 -12.6 -0.8 -13.05 -0.1 -13.1 0.6 -13.05 1.1 -12.55 1.6 -11.95 1.65 -11.15 1.35 4.9 1.65 21.45 L1.65 22.2 1.7 25.8 1.8 29.75 1.85 32.2 Q1.9 32.95 1.3 33.65 L0.0 34.2 -1.45 33.65 Q-2.0 32.95 -1.95 32.2 L-1.9 29.75 -1.9 25.8 -1.85 22.2 -1.85 21.45 Q-1.8 4.9 -1.9 -11.2 M11.9 34.2 L11.5 34.4 11.3 34.5 Q9.7 35.3 7.9 35.8 L6.2 36.2 2.25 36.75 -0.05 36.8 -2.2 36.75 -7.2 36.0 -7.85 35.85 -11.4 34.5 -11.6 34.4 -12.0 34.2 -10.5 34.2 -7.1 35.35 -6.95 35.35 -1.95 36.05 -0.05 36.1 1.9 36.05 6.5 35.45 6.9 35.3 10.45 34.2 11.9 34.2 M-2.2 37.55 L-0.05 37.6 2.25 37.55 2.25 41.1 -0.05 41.15 -2.2 41.1 -2.2 37.55" fill="#feff66" fill-rule="evenodd" stroke="none"/>
    <path d="M3.6 -30.3 L0.85 -29.8 0.2 -46.95 1.5 -47.1 3.6 -30.3 M-1.3 -29.8 L-3.45 -30.25 -1.65 -47.15 -0.6 -46.95 -1.3 -29.8 M7.9 -18.25 L6.55 -17.9 6.2 -17.85 2.25 -17.3 2.25 -20.85 6.2 -21.4 6.8 -21.55 7.9 -21.8 7.9 -18.25 M-2.2 -17.3 L-6.7 -17.9 -7.2 -18.0 -7.85 -18.15 -7.85 -21.7 -7.2 -21.55 -6.9 -21.45 -2.2 -20.85 -2.2 -17.3 M-8.25 -28.65 Q-8.2 -27.3 -6.8 -26.3 L-5.75 -25.65 -5.0 -25.3 Q-4.05 -24.9 -3.0 -24.65 L-0.05 -24.35 2.5 -24.6 4.5 -25.1 5.7 -25.65 6.3 -26.0 Q8.05 -27.15 8.2 -28.65 L16.2 -28.65 15.95 -27.95 Q15.5 -27.0 14.65 -26.1 L14.0 -25.55 12.1 -24.3 11.9 -24.2 -12.0 -24.2 -12.05 -24.2 -14.2 -25.6 -14.7 -26.05 Q-15.6 -26.95 -16.0 -27.95 L-16.25 -28.65 -8.25 -28.65 M6.5 -32.8 L6.5 -32.85 6.2 -34.3 Q7.1 -33.65 7.35 -32.8 L6.5 -32.8 M2.5 -25.35 L-0.05 -25.1 -3.0 -25.4 -3.0 -28.45 -1.35 -28.2 -0.75 -28.15 -0.25 -28.15 -0.05 -28.15 0.1 -28.15 0.95 -28.15 2.5 -28.35 2.5 -25.35 M-7.45 -32.8 Q-7.2 -33.65 -6.25 -34.3 L-6.55 -32.8 -7.45 -32.8 M6.9 34.55 L6.5 34.65 1.9 35.3 0.0 35.35 -1.95 35.3 -6.95 34.6 -6.9 34.2 -6.7 29.75 -6.5 25.8 -6.4 22.7 -6.4 21.9 Q-5.8 3.0 -6.65 -15.25 -4.4 -14.65 -1.9 -14.6 L-0.1 -14.55 1.7 -14.55 6.4 -15.25 Q5.3 3.15 6.15 21.9 L6.2 22.7 6.35 25.8 6.55 29.75 6.9 34.2 6.9 34.55 M-1.9 -11.2 Q-1.8 4.9 -1.85 21.45 L-1.85 22.2 -1.9 25.8 -1.9 29.75 -1.95 32.2 Q-2.0 32.95 -1.45 33.65 L0.0 34.2 1.3 33.65 Q1.9 32.95 1.85 32.2 L1.8 29.75 1.7 25.8 1.65 22.2 1.65 21.45 Q1.35 4.9 1.65 -11.15 1.6 -11.95 1.1 -12.55 0.6 -13.05 -0.1 -13.1 -0.8 -13.05 -1.45 -12.6 -1.9 -12.0 -1.9 -11.2 M16.2 29.75 L15.95 30.45 14.65 32.3 14.0 32.85 12.1 34.1 11.9 34.2 10.45 34.2 10.55 34.15 10.6 34.15 12.75 32.9 Q14.55 31.4 14.8 29.75 L16.2 29.75 M-12.0 34.2 L-12.05 34.2 -14.2 32.8 -14.7 32.35 -16.0 30.45 -16.25 29.75 -14.9 29.75 Q-14.75 31.5 -12.85 32.9 L-10.7 34.15 -10.65 34.15 -10.5 34.2 -12.0 34.2 M-7.85 36.7 L-7.2 36.85 -2.2 37.55 -2.2 41.1 -7.2 40.4 -7.85 40.25 -7.85 36.7 M2.25 37.55 L6.2 37.0 7.9 36.6 7.9 40.15 6.2 40.55 2.25 41.1 2.25 37.55" fill="#e0dc56" fill-rule="evenodd" stroke="none"/>
    <path d="M4.45 -30.7 L4.25 -30.6 3.6 -30.3 1.5 -47.1 2.1 -47.35 2.2 -47.4 4.45 -30.7 M-3.45 -30.25 L-4.3 -30.6 -4.8 -30.85 -2.5 -47.45 -2.25 -47.35 -1.65 -47.15 -3.45 -30.25 M14.0 -32.6 L14.65 -32.0 Q15.85 -30.85 16.2 -29.5 L16.3 -29.1 16.2 -28.65 8.2 -28.65 8.2 -28.8 8.2 -32.25 8.15 -32.6 14.0 -32.6 M12.1 -19.85 L11.65 -19.65 11.65 -19.6 10.25 -19.0 7.9 -18.25 7.9 -21.8 9.8 -22.4 11.65 -23.15 11.75 -23.2 12.1 -23.4 12.1 -19.85 M-7.85 -18.15 L-10.35 -19.0 -11.7 -19.6 -11.75 -19.65 -12.05 -19.8 -12.05 -23.35 -11.7 -23.15 -9.75 -22.3 -7.85 -21.7 -7.85 -18.15 M-16.35 -29.15 L-16.3 -29.5 Q-15.95 -30.95 -14.6 -32.15 L-14.05 -32.6 -8.25 -32.6 -8.25 -32.25 -8.25 -28.8 -8.25 -28.65 -16.25 -28.65 -16.35 -29.15 M4.5 -25.9 L2.5 -25.35 2.5 -28.35 3.75 -28.65 3.8 -28.65 4.15 -28.8 4.5 -28.9 4.5 -25.9 M-3.0 -25.4 L-5.0 -26.1 -5.0 -29.1 -4.25 -28.8 -3.75 -28.65 -3.65 -28.6 -3.0 -28.45 -3.0 -25.4 M10.55 33.25 Q10.3 33.25 10.2 33.4 L8.15 34.2 6.9 34.55 6.9 34.2 6.55 29.75 6.35 25.8 6.2 22.7 6.15 21.9 Q5.3 3.15 6.4 -15.25 L1.7 -14.55 -0.1 -14.55 -1.9 -14.6 Q-4.4 -14.65 -6.65 -15.25 -5.8 3.0 -6.4 21.9 L-6.4 22.7 -6.5 25.8 -6.7 29.75 -6.9 34.2 -6.95 34.6 Q-6.95 34.4 -7.1 34.55 L-8.15 34.2 -10.35 33.4 -10.6 33.25 -10.3 29.75 -10.0 25.8 -9.85 23.65 -9.8 22.8 Q-8.7 3.0 -10.2 -15.8 L-8.6 -15.75 -6.65 -15.25 -6.7 -17.15 -2.2 -16.55 -0.05 -16.5 2.25 -16.6 6.2 -17.05 6.5 -17.1 6.4 -15.25 8.3 -15.8 8.25 -15.7 10.0 -15.75 Q8.2 3.35 9.6 22.75 L9.65 23.6 9.8 25.8 10.2 29.75 10.55 33.25 M16.3 29.3 L16.2 29.75 14.8 29.75 14.8 29.3 14.35 26.15 14.65 26.4 Q15.85 27.55 16.2 28.9 L16.3 29.3 M-16.25 29.75 L-16.35 29.25 -16.3 28.9 Q-15.95 27.45 -14.6 26.25 L-14.55 26.2 -14.9 29.25 -14.9 29.75 -16.25 29.75 M-12.05 35.05 L-11.7 35.25 -7.85 36.7 -7.85 40.25 -11.7 38.8 -11.75 38.75 -12.05 38.6 -12.05 35.05 M7.9 36.6 L11.65 35.25 12.1 35.0 12.1 38.55 11.65 38.75 11.65 38.8 7.9 40.15 7.9 36.6" fill="#c5b548" fill-rule="evenodd" stroke="none"/>
    <path d="M2.75 -47.7 L5.75 -32.7 5.75 -32.65 5.8 -32.6 5.85 -32.3 5.85 -32.25 5.7 -31.65 4.45 -30.7 2.2 -47.4 2.75 -47.7 M-4.8 -30.85 L-5.1 -31.05 -5.75 -31.65 -5.9 -32.25 -5.9 -32.3 -5.85 -32.55 -5.85 -32.6 -5.8 -32.7 -5.35 -35.0 -5.35 -35.05 -2.85 -47.7 -2.5 -47.45 -4.8 -30.85 M8.15 -32.6 Q8.0 -34.2 6.0 -35.3 L5.95 -35.75 7.9 -35.3 11.65 -34.0 14.0 -32.6 8.15 -32.6 M14.65 -21.55 L14.2 -21.1 14.0 -21.0 Q13.35 -20.5 12.55 -20.05 L12.1 -19.85 12.1 -23.4 13.0 -23.9 13.45 -24.2 14.0 -24.6 14.65 -25.1 14.65 -21.55 M-12.05 -19.8 L-12.65 -20.1 -14.2 -21.1 -14.35 -21.2 -14.6 -21.4 -14.6 -24.95 -14.2 -24.65 -13.05 -23.9 -12.05 -23.35 -12.05 -19.8 M-14.05 -32.6 L-12.05 -33.8 -11.75 -34.0 Q-9.95 -34.85 -7.85 -35.35 L-6.1 -35.75 -6.0 -35.75 -6.1 -35.3 Q-8.1 -34.2 -8.25 -32.6 L-14.05 -32.6 M6.3 -26.9 L5.35 -26.3 4.5 -25.9 4.5 -28.9 5.5 -29.4 6.3 -29.85 6.3 -26.9 M-5.0 -26.1 L-5.4 -26.3 Q-6.3 -26.75 -6.8 -27.25 L-6.8 -30.15 Q-6.3 -29.75 -5.6 -29.4 L-5.0 -29.1 -5.0 -26.1 M12.7 31.95 L10.55 33.25 10.2 29.75 9.8 25.8 9.65 23.6 9.6 22.75 Q8.2 3.35 10.0 -15.75 L8.25 -15.7 8.3 -15.8 6.4 -15.25 6.5 -17.1 7.9 -17.45 10.2 -18.15 10.0 -15.75 Q11.2 -15.55 12.0 -14.7 10.0 4.35 11.75 23.65 L11.85 24.5 11.95 25.8 12.45 29.75 12.7 31.95 M-10.6 33.25 L-12.75 31.95 -12.5 29.75 -12.15 25.8 -12.05 24.6 -11.95 23.7 Q-10.45 3.95 -12.2 -14.85 -11.4 -15.65 -10.2 -15.8 L-10.3 -18.2 Q-9.15 -17.75 -7.85 -17.4 L-7.2 -17.25 -6.7 -17.15 -6.65 -15.25 -8.6 -15.75 -10.2 -15.8 Q-8.7 3.0 -9.8 22.8 L-9.85 23.65 -10.0 25.8 -10.3 29.75 -10.6 33.25 M-14.6 33.45 L-14.2 33.75 -13.05 34.5 -12.05 35.05 -12.05 38.6 -14.2 37.3 -14.6 37.0 -14.6 33.45 M12.1 35.0 L13.0 34.5 13.45 34.2 14.0 33.8 14.65 33.3 14.65 36.85 14.0 37.4 12.1 38.55 12.1 35.0" fill="#a78c39" fill-rule="evenodd" stroke="none"/>
    <path d="M16.35 -28.35 L16.35 -24.9 16.25 -24.2 16.2 -23.9 Q15.9 -22.9 15.15 -22.0 L14.65 -21.55 14.65 -25.1 14.7 -25.15 Q15.6 -26.0 16.0 -26.95 L16.35 -28.35 M-14.6 -21.4 L-15.15 -22.0 Q-16.0 -22.9 -16.25 -23.9 L-16.4 -24.9 -16.4 -28.0 -16.05 -26.95 Q-15.7 -26.0 -14.8 -25.15 L-14.6 -24.95 -14.6 -21.4 M7.45 -30.95 L7.45 -28.8 7.4 -28.65 Q7.3 -27.7 6.3 -26.9 L6.3 -29.85 7.15 -30.55 7.45 -30.95 M-6.8 -27.25 Q-7.4 -27.9 -7.5 -28.65 L-7.5 -28.8 -7.5 -30.95 -7.2 -30.55 -6.8 -30.15 -6.8 -27.25 M10.2 -18.15 L12.0 -18.95 11.95 -18.95 12.1 -19.0 12.45 -19.15 12.0 -14.7 Q11.2 -15.55 10.0 -15.75 L10.2 -18.15 M13.2 -12.0 Q11.25 6.1 13.4 24.55 L13.5 25.45 13.55 25.8 14.0 29.25 14.0 29.75 Q13.85 31.0 12.7 31.95 L12.45 29.75 11.95 25.8 11.85 24.5 11.75 23.65 Q10.0 4.35 12.0 -14.7 L12.45 -14.1 13.2 -12.0 M-12.75 31.95 Q-14.0 30.9 -14.1 29.75 L-14.15 29.25 -13.75 25.8 -13.7 25.6 -13.6 24.6 Q-11.75 5.65 -13.5 -12.15 L-12.8 -14.05 -12.2 -14.85 -12.55 -19.2 -12.05 -18.95 -10.3 -18.2 -10.2 -15.8 Q-11.4 -15.65 -12.2 -14.85 -10.45 3.95 -11.95 23.7 L-12.05 24.6 -12.15 25.8 -12.5 29.75 -12.75 31.95 M-16.4 30.4 L-16.05 31.45 Q-15.7 32.4 -14.8 33.25 L-14.6 33.45 -14.6 37.0 Q-15.9 35.8 -16.25 34.5 L-16.4 33.5 -16.4 30.4 M14.65 33.3 L14.7 33.25 16.0 31.45 16.35 30.05 16.35 33.5 16.25 34.2 16.2 34.5 Q15.85 35.75 14.65 36.85 L14.65 33.3" fill="#8b652b" fill-rule="evenodd" stroke="none"/>
    <path d="M12.45 -19.15 L14.0 -20.1 14.05 -20.1 13.2 -12.0 12.45 -14.1 12.0 -14.7 12.45 -19.15 M-13.5 -12.15 L-14.25 -20.2 -14.2 -20.15 -12.55 -19.2 -12.2 -14.85 -12.8 -14.05 -13.5 -12.15" fill="#715225" fill-rule="evenodd" stroke="none"/>
    <path d="M17.1 33.5 L17.05 34.2 17.0 34.5 Q16.55 36.3 14.65 37.85 L14.0 38.3 12.1 39.4 11.95 39.45 12.0 39.45 7.9 40.95 6.2 41.35 2.25 41.8 -0.05 41.9 -2.2 41.85 -7.2 41.15 -7.85 41.0 -12.05 39.45 -14.2 38.25 -14.6 37.95 Q-16.65 36.35 -17.05 34.5 L-17.15 33.5 -17.15 29.85 -17.15 29.75 Q-17.15 27.6 -15.25 25.8 L-14.6 25.25 -14.4 25.15 Q-12.0 1.65 -15.0 -20.8 -16.7 -22.25 -17.05 -23.9 L-17.15 -24.9 -17.15 -28.55 -17.15 -28.65 Q-17.15 -30.8 -15.25 -32.6 L-14.6 -33.15 -12.05 -34.7 -9.35 -35.75 -5.85 -36.55 -3.5 -48.4 Q-3.5 -49.15 -2.4 -49.65 L-2.2 -49.7 -0.05 -50.1 1.9 -49.85 2.25 -49.7 Q3.35 -49.15 3.4 -48.4 L5.75 -36.55 9.3 -35.75 12.0 -34.65 12.1 -34.6 14.65 -33.0 15.15 -32.6 Q17.05 -30.8 17.1 -28.65 L17.1 -28.55 17.1 -24.9 17.05 -24.2 17.0 -23.9 Q16.6 -22.25 14.95 -20.75 11.4 2.15 14.25 25.1 L14.65 25.4 15.15 25.8 Q17.05 27.6 17.1 29.75 L17.1 29.85 17.1 33.5 M2.75 -47.7 L2.7 -48.1 2.65 -48.35 2.45 -48.7 2.0 -49.0 1.95 -49.0 -0.05 -49.35 -2.1 -49.0 -2.35 -48.85 -2.55 -48.7 -2.75 -48.35 -2.8 -48.1 -2.85 -47.7 -5.35 -35.05 -5.35 -35.0 -5.8 -32.7 -5.85 -32.6 -5.85 -32.55 -5.9 -32.3 -5.9 -32.25 -5.75 -31.65 -5.1 -31.05 -4.8 -30.85 -4.3 -30.6 -3.45 -30.25 -1.3 -29.8 -0.25 -29.75 -0.05 -29.75 0.85 -29.8 3.6 -30.3 4.25 -30.6 4.45 -30.7 5.7 -31.65 5.85 -32.25 5.85 -32.3 5.8 -32.6 5.75 -32.65 5.75 -32.7 2.75 -47.7 M1.75 -48.1 L1.4 -47.75 1.2 -47.7 0.15 -47.5 -0.15 -47.5 -0.25 -47.5 -0.6 -47.5 -1.5 -47.7 -1.6 -47.7 -2.0 -48.1 -2.05 -48.2 -1.5 -48.7 -0.15 -48.9 1.2 -48.7 1.75 -48.2 1.75 -48.1 M14.0 -32.6 L11.65 -34.0 7.9 -35.3 5.95 -35.75 6.0 -35.3 Q8.0 -34.2 8.15 -32.6 L8.2 -32.25 8.2 -28.8 8.2 -28.65 Q8.05 -27.15 6.3 -26.0 L5.7 -25.65 4.5 -25.1 2.5 -24.6 -0.05 -24.35 -3.0 -24.65 Q-4.05 -24.9 -5.0 -25.3 L-5.75 -25.65 -6.8 -26.3 Q-8.2 -27.3 -8.25 -28.65 L-8.25 -28.8 -8.25 -32.25 -8.25 -32.6 Q-8.1 -34.2 -6.1 -35.3 L-6.0 -35.75 -6.1 -35.75 -7.85 -35.35 Q-9.95 -34.85 -11.75 -34.0 L-12.05 -33.8 -14.05 -32.6 -14.6 -32.15 Q-15.95 -30.95 -16.3 -29.5 L-16.35 -29.15 -16.4 -28.65 -16.4 -28.55 -16.4 -28.3 -16.4 -28.0 -16.4 -24.9 -16.25 -23.9 Q-16.0 -22.9 -15.15 -22.0 L-14.6 -21.4 -14.35 -21.2 -14.2 -21.1 -12.65 -20.1 -12.05 -19.8 -11.75 -19.65 -11.7 -19.6 -10.35 -19.0 -7.85 -18.15 -7.2 -18.0 -6.7 -17.9 -2.2 -17.3 -0.05 -17.25 2.25 -17.3 6.2 -17.85 6.55 -17.9 7.9 -18.25 10.25 -19.0 11.65 -19.6 11.65 -19.65 12.1 -19.85 12.55 -20.05 Q13.35 -20.5 14.0 -21.0 L14.2 -21.1 14.65 -21.55 15.15 -22.0 Q15.9 -22.9 16.2 -23.9 L16.25 -24.2 16.35 -24.9 16.35 -28.35 16.35 -28.55 16.35 -28.65 16.3 -29.1 16.2 -29.5 Q15.85 -30.85 14.65 -32.0 L14.0 -32.6 M6.5 -32.8 L6.55 -32.6 6.6 -32.3 6.6 -32.25 6.5 -31.65 6.35 -31.3 6.1 -31.0 Q5.65 -30.4 4.6 -29.9 L4.55 -29.9 3.7 -29.55 2.5 -29.25 2.15 -29.2 0.9 -29.05 -0.05 -29.0 -0.25 -29.0 -1.3 -29.05 -2.55 -29.25 -2.95 -29.35 -3.55 -29.5 -4.6 -29.9 -4.9 -30.05 -5.0 -30.1 Q-6.05 -30.65 -6.4 -31.3 L-6.55 -31.65 -6.6 -31.8 -6.65 -32.25 -6.65 -32.3 -6.65 -32.6 -6.55 -32.8 -6.25 -34.3 Q-7.2 -33.65 -7.45 -32.8 L-7.5 -32.6 -7.5 -32.25 -7.5 -31.65 -7.5 -30.95 -7.5 -28.8 -7.5 -28.65 Q-7.4 -27.9 -6.8 -27.25 -6.3 -26.75 -5.4 -26.3 L-5.0 -26.1 -3.0 -25.4 -0.05 -25.1 2.5 -25.35 4.5 -25.9 5.35 -26.3 6.3 -26.9 Q7.3 -27.7 7.4 -28.65 L7.45 -28.8 7.45 -30.95 7.45 -31.65 7.45 -32.25 7.4 -32.6 7.35 -32.8 Q7.1 -33.65 6.2 -34.3 L6.5 -32.85 6.5 -32.8 M12.45 -19.15 L12.1 -19.0 11.95 -18.95 12.0 -18.95 10.2 -18.15 7.9 -17.45 6.5 -17.1 6.2 -17.05 2.25 -16.6 -0.05 -16.5 -2.2 -16.55 -6.7 -17.15 -7.2 -17.25 -7.85 -17.4 Q-9.15 -17.75 -10.3 -18.2 L-12.05 -18.95 -12.55 -19.2 -14.2 -20.15 -14.25 -20.2 -13.5 -12.15 Q-11.75 5.65 -13.6 24.6 L-13.7 25.6 -13.75 25.8 -14.15 29.25 -14.1 29.75 Q-14.0 30.9 -12.75 31.95 L-10.6 33.25 -10.35 33.4 -8.15 34.2 -7.1 34.55 Q-6.95 34.4 -6.95 34.6 L-1.95 35.3 0.0 35.35 1.9 35.3 6.5 34.65 6.9 34.55 8.15 34.2 10.2 33.4 Q10.3 33.25 10.55 33.25 L12.7 31.95 Q13.85 31.0 14.0 29.75 L14.0 29.25 13.55 25.8 13.5 25.45 13.4 24.55 Q11.25 6.1 13.2 -12.0 L14.05 -20.1 14.0 -20.1 12.45 -19.15 M-16.35 29.25 L-16.4 29.75 -16.4 29.85 -16.4 30.1 -16.4 30.4 -16.4 33.5 -16.25 34.5 Q-15.9 35.8 -14.6 37.0 L-14.2 37.3 -12.05 38.6 -11.75 38.75 -11.7 38.8 -7.85 40.25 -7.2 40.4 -2.2 41.1 -0.05 41.15 2.25 41.1 6.2 40.55 7.9 40.15 11.65 38.8 11.65 38.75 12.1 38.55 14.0 37.4 14.65 36.85 Q15.85 35.75 16.2 34.5 L16.25 34.2 16.35 33.5 16.35 30.05 16.35 29.85 16.35 29.75 16.3 29.3 16.2 28.9 Q15.85 27.55 14.65 26.4 L14.35 26.15 14.8 29.3 14.8 29.75 Q14.55 31.4 12.75 32.9 L10.6 34.15 10.55 34.15 10.45 34.2 6.9 35.3 6.5 35.45 1.9 36.05 -0.05 36.1 -1.95 36.05 -6.95 35.35 -7.1 35.35 -10.5 34.2 -10.65 34.15 -10.7 34.15 -12.85 32.9 Q-14.75 31.5 -14.9 29.75 L-14.9 29.25 -14.55 26.2 -14.6 26.25 Q-15.95 27.45 -16.3 28.9 L-16.35 29.25" fill="#574020" fill-rule="evenodd" stroke="none"/>
  </g>
</svg>
