<?xml version="1.0" encoding="UTF-8" standalone="no"?>
<svg xmlns:ffdec="https://www.free-decompiler.com/flash" xmlns:xlink="http://www.w3.org/1999/xlink" ffdec:objectType="shape" height="55.4px" width="34.25px" xmlns="http://www.w3.org/2000/svg">
  <g transform="matrix(1.0, 0.0, 0.0, 1.0, 9.4, 5.25)">
    <path d="M-0.1 -5.25 Q-4.05 -1.65 -5.85 4.15 L-6.55 7.05 -7.7 13.85 -7.85 14.85 -7.9 14.8 -7.95 15.45 -8.0 16.5 -8.6 24.6 Q-8.6 33.2 -1.15 41.3 6.0 49.05 12.7 49.05 14.55 49.05 16.2 47.35 17.95 45.6 17.95 43.45 17.95 40.0 15.2 37.85 14.1 37.0 9.15 34.6 5.0 32.55 3.1 30.3 0.35 27.05 0.35 21.7 L0.75 17.45 0.85 16.75 0.8 16.75 0.85 16.55 -2.3 16.7 -1.4 16.3 -0.5 15.85 0.75 15.55 4.45 16.75 6.85 17.45 Q13.15 19.35 15.25 19.35 17.0 19.35 19.7 18.05 23.65 16.2 23.65 13.15 23.65 11.3 21.75 9.7 19.9 8.15 17.85 8.15 17.25 8.15 16.35 8.85 L15.6 9.5 Q17.85 10.7 17.85 10.85 17.85 11.85 15.8 11.05 13.05 9.9 11.1 8.25 8.4 6.05 8.15 1.9 L9.15 2.45 Q9.75 3.2 10.75 6.25 11.35 8.05 13.75 8.5 14.2 8.1 14.2 6.25 14.2 2.8 11.7 -0.7 9.2 -4.15 6.15 -5.1 10.45 -5.45 13.85 -0.15 16.65 4.15 16.65 7.0 18.85 5.8 21.9 8.2 24.85 10.5 24.85 12.95 L24.5 15.05 23.9 16.65 22.8 17.95 Q21.95 19.15 21.65 20.4 21.1 22.8 20.25 24.25 19.8 24.95 17.8 26.15 L16.1 26.9 14.8 28.65 Q10.35 30.9 4.45 28.9 L3.4 28.5 Q4.95 31.55 8.4 33.05 14.8 35.8 16.85 37.55 19.45 39.7 19.45 43.25 19.45 46.3 17.6 48.2 15.7 50.15 12.6 50.15 6.15 50.15 -1.25 42.75 -9.4 34.65 -9.4 25.25 L-9.05 20.65 Q-8.75 18.15 -8.75 16.4 L-8.45 13.55 -8.15 10.2 -7.75 6.95 Q-6.95 1.7 -4.8 -1.25 -3.2 -3.45 -0.1 -5.25 M8.25 19.3 Q7.65 19.3 7.65 20.25 L7.8 21.2 Q6.95 20.0 6.7 18.75 L2.15 17.0 Q1.75 22.55 2.55 26.0 L3.5 26.55 4.2 26.9 Q6.1 27.8 8.35 28.0 16.65 28.0 16.25 20.7 L11.8 20.0 8.25 19.3 M20.05 19.65 L19.8 19.95 Q17.8 20.35 17.3 22.7 16.6 25.8 16.1 26.35 L17.05 25.85 17.8 25.2 Q19.9 22.9 20.05 19.65" fill="#535353" fill-rule="evenodd" stroke="none"/>
    <path d="M3.4 -2.9 Q5.8 -2.4 6.25 -1.2 6.85 -0.15 8.05 3.7 9.2 7.25 9.6 7.75 L12.8 10.15 15.35 11.7 16.1 12.3 16.4 13.2 16.05 15.35 15.45 17.2 15.35 17.45 14.6 17.55 Q10.05 17.55 4.6 15.35 L1.35 13.85 Q-1.15 12.4 -3.75 11.45 -5.1 10.65 -5.1 7.5 L-5.1 7.2 Q-5.0 -1.2 0.2 -3.0 L3.4 -2.9 M10.1 9.1 Q4.65 5.45 2.65 3.2 2.2 2.7 0.2 2.7 -1.5 2.7 -2.3 4.0 -3.15 5.3 -2.45 7.5 L-2.0 8.6 -1.45 10.0 2.5 11.95 4.85 13.15 7.3 14.5 Q10.25 15.85 13.4 15.85 L14.55 15.35 Q15.2 14.8 15.2 13.95 15.2 12.55 10.1 9.1 M4.8 22.75 L6.35 22.5 Q11.55 22.5 12.9 25.55 L8.25 26.4 Q4.95 26.4 4.0 25.1 4.3 24.55 4.0 22.95 L4.8 22.75 M17.5 12.9 Q17.5 12.3 18.95 11.15 L21.4 11.2 18.05 15.75 17.9 15.75 17.65 14.65 17.5 12.9 M9.45 44.65 Q7.55 40.85 6.1 40.35 3.35 39.45 0.45 36.6 -3.5 32.75 -4.95 27.4 L-5.8 21.75 -6.0 21.9 -6.2 22.15 -6.3 22.95 Q-6.3 29.4 -2.55 36.3 2.2 44.95 9.45 44.65 M15.3 43.45 Q15.3 47.0 12.4 47.0 4.4 47.0 -1.5 39.35 -7.4 31.7 -7.4 21.2 L-7.15 17.95 -6.5 16.65 -6.0 15.9 -5.85 15.95 -5.25 16.75 Q-4.4 18.45 -3.5 23.15 -2.3 29.55 0.45 32.15 5.15 36.6 11.4 39.4 15.3 41.15 15.3 43.45" fill="#e9e9e9" fill-rule="evenodd" stroke="none"/>
    <path d="M10.1 9.1 Q15.2 12.55 15.2 13.95 15.2 14.8 14.55 15.35 L13.4 15.85 Q10.25 15.85 7.3 14.5 L4.85 13.15 2.5 11.95 -1.45 10.0 -2.0 8.6 -2.45 7.5 Q-3.15 5.3 -2.3 4.0 -1.5 2.7 0.2 2.7 2.2 2.7 2.65 3.2 4.65 5.45 10.1 9.1 M9.45 44.65 Q2.2 44.95 -2.55 36.3 -6.3 29.4 -6.3 22.95 L-6.2 22.15 -6.0 21.9 -5.8 21.75 -4.95 27.4 Q-3.5 32.75 0.45 36.6 3.35 39.45 6.1 40.35 7.55 40.85 9.45 44.65" fill="#fcfcfc" fill-rule="evenodd" stroke="none"/>
    <path d="M6.15 -5.1 Q9.2 -4.15 11.7 -0.7 14.2 2.8 14.2 6.25 14.2 8.1 13.75 8.5 11.35 8.05 10.75 6.25 9.75 3.2 9.15 2.45 L8.15 1.9 Q8.4 6.05 11.1 8.25 13.05 9.9 15.8 11.05 17.85 11.85 17.85 10.85 17.85 10.7 15.6 9.5 L16.35 8.85 Q17.25 8.15 17.85 8.15 19.9 8.15 21.75 9.7 23.65 11.3 23.65 13.15 23.65 16.2 19.7 18.05 17.0 19.35 15.25 19.35 13.15 19.35 6.85 17.45 L4.45 16.75 0.75 15.55 -0.5 15.85 -1.4 16.3 -2.3 16.7 0.85 16.55 0.8 16.75 0.85 16.75 0.75 17.45 0.35 21.7 Q0.35 27.05 3.1 30.3 5.0 32.55 9.15 34.6 14.1 37.0 15.2 37.85 17.95 40.0 17.95 43.45 17.95 45.6 16.2 47.35 14.55 49.05 12.7 49.05 6.0 49.05 -1.15 41.3 -8.6 33.2 -8.6 24.6 L-8.0 16.5 -7.95 15.45 -7.9 14.8 -7.85 14.85 -7.7 13.85 -6.55 7.05 -5.85 4.15 Q-4.05 -1.65 -0.1 -5.25 L6.15 -5.1 M3.4 -2.9 L0.2 -3.0 Q-5.0 -1.2 -5.1 7.2 L-5.1 7.5 Q-5.1 10.65 -3.75 11.45 -1.15 12.4 1.35 13.85 L4.6 15.35 Q10.05 17.55 14.6 17.55 L15.35 17.45 15.45 17.2 16.05 15.35 16.4 13.2 16.1 12.3 15.35 11.7 12.8 10.15 9.6 7.75 Q9.2 7.25 8.05 3.7 6.85 -0.15 6.25 -1.2 5.8 -2.4 3.4 -2.9 M4.8 22.75 L4.0 22.95 Q4.3 24.55 4.0 25.1 4.95 26.4 8.25 26.4 L12.9 25.55 Q11.55 22.5 6.35 22.5 L4.8 22.75 M8.25 19.3 L11.8 20.0 16.25 20.7 Q16.65 28.0 8.35 28.0 6.1 27.8 4.2 26.9 L3.5 26.55 2.55 26.0 Q1.75 22.55 2.15 17.0 L6.7 18.75 Q6.95 20.0 7.8 21.2 L7.65 20.25 Q7.65 19.3 8.25 19.3 M17.5 12.9 L17.65 14.65 17.9 15.75 18.05 15.75 21.4 11.2 18.95 11.15 Q17.5 12.3 17.5 12.9 M20.05 19.65 Q19.9 22.9 17.8 25.2 L17.05 25.85 16.1 26.35 Q16.6 25.8 17.3 22.7 17.8 20.35 19.8 19.95 L20.05 19.65 M15.3 43.45 Q15.3 41.15 11.4 39.4 5.15 36.6 0.45 32.15 -2.3 29.55 -3.5 23.15 -4.4 18.45 -5.25 16.75 L-5.85 15.95 -6.0 15.9 -6.5 16.65 -7.15 17.95 -7.4 21.2 Q-7.4 31.7 -1.5 39.35 4.4 47.0 12.4 47.0 15.3 47.0 15.3 43.45" fill="#c5c5c5" fill-rule="evenodd" stroke="none"/>
  </g>
</svg>
