<?xml version="1.0" encoding="UTF-8" standalone="no"?>
<svg xmlns:ffdec="https://www.free-decompiler.com/flash" xmlns:xlink="http://www.w3.org/1999/xlink" ffdec:objectType="shape" height="79.2px" width="79.15px" xmlns="http://www.w3.org/2000/svg">
  <g transform="matrix(1.0, 0.0, 0.0, 1.0, 23.75, 65.8)">
    <path d="M28.1 -39.7 Q35.1 -30.4 33.3 -18.5 32.75 -14.9 31.15 -11.85 L28.7 -7.3 Q30.65 -7.1 32.2 -8.0 33.3 -8.55 33.85 -9.4 L35.15 -11.2 Q31.5 0.55 21.35 7.75 -2.3 13.85 -12.8 -9.25 -5.55 -25.1 10.65 -32.4 15.5 -34.6 19.95 -37.65 L23.75 -40.35 Q26.05 -40.6 28.1 -39.7" fill="#efd4a5" fill-rule="evenodd" stroke="none"/>
    <path d="M-17.3 -8.1 L-17.5 -8.45 -18.1 -9.55 -18.35 -10.05 -18.4 -10.25 Q-19.6 -12.7 -20.35 -15.3 -21.65 -19.65 -21.9 -24.4 L-21.95 -26.25 -21.9 -28.05 Q-21.55 -33.9 -19.8 -38.95 -17.95 -44.45 -14.1 -49.25 L-14.05 -49.25 -10.5 -53.25 -7.25 -56.1 -5.35 -57.5 -4.25 -58.25 Q4.85 -63.9 15.7 -63.9 L15.8 -63.9 Q31.45 -63.9 42.45 -52.95 53.5 -41.8 53.5 -26.25 53.5 -13.2 45.8 -3.35 L42.45 0.4 41.8 1.15 41.85 1.0 Q32.05 10.35 18.9 11.35 25.8 8.75 30.95 5.3 36.1 1.85 40.25 -3.55 L41.65 -5.9 Q40.6 -7.1 40.5 -10.15 L37.75 -9.55 Q38.5 -10.05 38.25 -17.0 L38.15 -24.0 Q38.15 -27.5 35.35 -35.5 L34.25 -36.5 Q27.9 -42.15 26.15 -42.15 24.85 -42.15 18.3 -38.45 11.2 -34.4 9.85 -34.0 3.55 -32.05 0.5 -30.25 -1.75 -28.9 -4.8 -25.9 -8.35 -22.45 -12.15 -16.6 L-17.3 -8.1" fill="#d29e70" fill-rule="evenodd" stroke="none"/>
    <path d="M18.9 11.35 Q32.05 10.35 41.85 1.0 L41.8 1.15 42.45 0.4 45.8 -3.35 Q53.5 -13.2 53.5 -26.25 53.5 -41.8 42.45 -52.95 31.45 -63.9 15.8 -63.9 L15.7 -63.9 Q4.85 -63.9 -4.25 -58.25 L-5.35 -57.5 -7.25 -56.1 -10.5 -53.25 -14.05 -49.25 -14.1 -49.25 Q-17.95 -44.45 -19.8 -38.95 -21.55 -33.9 -21.9 -28.05 L-21.95 -26.25 -21.9 -24.4 Q-21.65 -19.65 -20.35 -15.3 -19.6 -12.7 -18.4 -10.25 L-18.35 -10.05 -18.1 -9.55 -17.5 -8.45 -17.3 -8.1 -16.45 -6.65 -16.3 -6.45 -14.7 -4.05 Q-12.95 -1.75 -10.8 0.4 -6.55 4.65 -1.4 7.4 1.35 8.7 4.3 9.8 9.2 11.3 14.7 11.45 L15.8 11.45 18.9 11.35 M15.8 -65.8 Q32.15 -65.8 43.85 -54.15 55.4 -42.7 55.4 -26.25 55.4 -12.5 47.2 -2.1 L43.85 1.75 43.25 2.3 43.2 2.4 Q31.7 13.4 15.8 13.4 L15.55 13.4 15.45 13.4 11.6 13.15 10.05 13.0 Q6.75 12.5 3.7 11.55 0.5 10.45 -2.4 9.05 -7.7 6.25 -12.2 1.75 -23.1 -9.15 -23.7 -24.4 L-23.75 -26.25 -23.7 -28.15 Q-23.1 -40.8 -15.55 -50.5 L-11.9 -54.65 -11.7 -54.8 -11.7 -54.85 Q-0.4 -65.8 15.8 -65.8" fill="#aa6a40" fill-rule="evenodd" stroke="none"/>
    <path d="M18.9 11.35 L15.8 11.45 14.7 11.45 Q9.2 11.3 4.3 9.8 1.35 8.7 -1.4 7.4 -6.55 4.65 -10.8 0.4 -12.95 -1.75 -14.7 -4.05 L-16.3 -6.45 -16.45 -6.65 -17.3 -8.1 -12.15 -16.6 Q-8.35 -22.45 -4.8 -25.9 -1.75 -28.9 0.5 -30.25 3.55 -32.05 9.85 -34.0 11.2 -34.4 18.3 -38.45 24.85 -42.15 26.15 -42.15 27.9 -42.15 34.25 -36.5 L35.35 -35.5 Q38.15 -27.5 38.15 -24.0 L38.25 -17.0 Q38.5 -10.05 37.75 -9.55 L40.5 -10.15 Q40.6 -7.1 41.65 -5.9 L40.25 -3.55 Q36.1 1.85 30.95 5.3 25.8 8.75 18.9 11.35 M28.1 -39.7 Q26.05 -40.6 23.75 -40.35 L19.95 -37.65 Q15.5 -34.6 10.65 -32.4 -5.55 -25.1 -12.8 -9.25 -2.3 13.85 21.35 7.75 31.5 0.55 35.15 -11.2 L33.85 -9.4 Q33.3 -8.55 32.2 -8.0 30.65 -7.1 28.7 -7.3 L31.15 -11.85 Q32.75 -14.9 33.3 -18.5 35.1 -30.4 28.1 -39.7" fill="#e6c293" fill-rule="evenodd" stroke="none"/>
  </g>
</svg>
