<?xml version="1.0" encoding="UTF-8" standalone="no"?>
<svg xmlns:ffdec="https://www.free-decompiler.com/flash" xmlns:xlink="http://www.w3.org/1999/xlink" ffdec:objectType="shape" height="583.3px" width="100.05px" xmlns="http://www.w3.org/2000/svg">
  <g transform="matrix(1.0, 0.0, 0.0, 1.0, 0.0, 333.3)">
    <path d="M100.0 70.25 L100.0 72.25 89.9 72.25 89.9 107.45 100.0 107.45 100.0 177.35 66.9 177.35 66.9 203.5 100.0 203.5 100.0 205.5 66.9 205.5 66.9 218.55 100.0 218.55 100.0 250.0 0.0 250.0 0.0 248.95 21.9 248.95 21.9 205.5 0.0 205.5 0.0 203.5 5.9 203.5 5.9 177.35 0.0 177.35 0.0 107.45 30.9 107.45 30.9 72.25 0.0 72.25 0.0 -24.8 0.05 -24.8 0.05 9.95 0.05 11.3 0.05 13.6 0.05 19.2 0.05 24.25 0.15 23.5 0.15 23.3 0.2 23.5 1.0 27.15 1.0 70.25 17.4 70.25 17.4 44.75 19.4 45.5 19.4 70.25 64.4 70.25 64.4 43.5 66.4 44.45 66.4 70.25 100.0 70.25 M37.6 78.0 Q36.9 78.75 36.9 79.8 36.9 80.85 37.6 81.55 38.35 82.3 39.4 82.3 40.45 82.3 41.15 81.55 41.9 80.85 41.9 79.8 41.9 78.75 41.15 78.0 40.45 77.3 39.4 77.3 38.35 77.3 37.6 78.0 M60.4 82.3 Q60.4 81.25 59.65 80.5 58.95 79.8 57.9 79.8 56.85 79.8 56.1 80.5 55.4 81.25 55.4 82.3 55.4 83.35 56.1 84.05 56.85 84.85 57.9 84.85 58.95 84.85 59.65 84.05 60.4 83.35 60.4 82.3 M60.4 90.85 L32.9 90.85 32.9 154.2 60.4 154.2 60.4 90.85 M75.4 109.45 L62.4 109.45 62.4 128.55 75.4 128.55 75.4 109.45 M62.4 130.55 L62.4 154.2 75.4 154.2 75.4 130.55 62.4 130.55 M1.0 133.1 L1.0 175.35 17.9 175.35 17.9 133.1 1.0 133.1 M19.9 133.1 L19.9 154.2 30.9 154.2 30.9 133.1 19.9 133.1 M30.9 109.45 L1.0 109.45 1.0 131.05 30.9 131.05 30.9 109.45 M19.9 156.2 L19.9 175.35 75.4 175.35 75.4 156.2 19.9 156.2 M21.9 177.35 L7.9 177.35 7.9 203.5 21.9 203.5 21.9 177.35 M46.4 180.8 Q45.55 180.8 44.95 181.35 44.4 182.0 44.4 182.85 44.4 183.7 44.95 184.25 45.55 184.85 46.4 184.85 47.25 184.85 47.8 184.25 48.4 183.7 48.4 182.85 48.4 182.0 47.8 181.35 47.25 180.8 46.4 180.8 M77.4 175.35 L98.4 175.35 98.4 109.45 77.4 109.45 77.4 175.35 M62.4 90.85 L62.4 107.45 87.9 107.45 87.9 90.85 62.4 90.85 M97.9 220.6 L51.0 220.6 51.0 248.95 97.9 248.95 97.9 220.6 M39.0 204.7 Q39.0 203.35 38.0 202.35 37.05 201.4 35.7 201.4 34.35 201.4 33.35 202.35 32.4 203.35 32.4 204.7 32.4 206.05 33.35 207.0 34.35 208.0 35.7 208.0 37.05 208.0 38.0 207.0 39.0 206.05 39.0 204.7 M49.0 220.6 L23.9 220.6 23.9 248.95 49.0 248.95 49.0 220.6" fill="#ffffff" fill-rule="evenodd" stroke="none"/>
    <path d="M0.05 9.95 L0.25 9.0 0.05 11.3 0.05 9.95" fill="#023031" fill-rule="evenodd" stroke="none"/>
    <path d="M100.05 22.0 L100.05 27.15 100.0 27.35 Q99.15 30.55 97.45 33.45 95.05 37.6 91.95 40.4 L88.25 43.15 Q81.95 47.0 73.5 46.45 L72.5 46.35 68.4 45.25 66.4 44.45 64.4 43.5 Q55.75 38.95 52.25 30.05 L51.55 28.05 Q50.85 25.75 50.45 23.3 50.2 25.75 49.45 28.05 L48.7 30.05 48.1 31.35 Q44.5 38.7 38.65 42.45 L36.65 43.6 Q31.2 46.4 24.0 46.3 L20.2 45.7 19.4 45.5 17.4 44.75 Q9.15 41.75 4.7 35.25 3.55 33.5 2.65 31.55 1.65 29.45 1.0 27.15 L0.2 23.5 0.15 23.3 0.15 23.5 0.05 24.25 0.05 19.2 0.15 18.3 0.85 21.5 1.0 22.1 1.45 23.5 Q5.4 35.35 17.4 39.75 L19.4 40.45 20.2 40.65 24.0 41.25 Q31.2 41.35 36.65 38.6 L38.65 37.45 Q42.9 34.65 46.0 30.05 L47.2 28.05 48.1 26.35 Q50.0 22.6 50.45 18.3 51.15 22.65 52.8 26.35 53.7 28.3 54.9 30.05 58.4 35.25 64.4 38.5 L66.4 39.45 68.4 40.25 72.5 41.3 Q76.35 41.65 79.8 41.15 85.5 40.3 89.95 37.05 L91.95 35.35 Q95.05 32.55 97.45 28.45 98.75 26.25 99.55 23.8 L100.0 22.2 100.05 22.0" fill="#d3d3d3" fill-rule="evenodd" stroke="none"/>
    <path d="M100.0 27.35 L100.0 70.25 66.4 70.25 66.4 44.45 68.4 45.25 72.5 46.35 73.5 46.45 Q81.95 47.0 88.25 43.15 L91.95 40.4 Q95.05 37.6 97.45 33.45 99.15 30.55 100.0 27.35 M19.9 133.1 L30.9 133.1 30.9 154.2 19.9 154.2 19.9 133.1 M88.95 224.15 Q88.4 224.75 88.4 225.6 88.4 226.45 88.95 227.0 89.55 227.6 90.4 227.6 91.25 227.6 91.8 227.0 92.4 226.45 92.4 225.6 92.4 224.75 91.8 224.15 91.25 223.6 90.4 223.6 89.55 223.6 88.95 224.15 M97.9 220.6 L97.9 248.95 51.0 248.95 51.0 220.6 97.9 220.6 M73.1 238.85 Q73.9 238.05 73.9 236.9 73.9 235.75 73.1 234.95 72.3 234.15 71.15 234.15 70.0 234.15 69.2 234.95 68.4 235.75 68.4 236.9 68.4 238.05 69.2 238.85 70.0 239.65 71.15 239.65 72.3 239.65 73.1 238.85" fill="#f9f9f9" fill-rule="evenodd" stroke="none"/>
    <path d="M100.0 72.25 L100.0 107.45 89.9 107.45 89.9 72.25 100.0 72.25 M100.0 205.5 L100.0 218.55 66.9 218.55 66.9 205.5 100.0 205.5 M0.0 248.95 L0.0 205.5 21.9 205.5 21.9 248.95 0.0 248.95 M0.0 107.45 L0.0 72.25 30.9 72.25 30.9 107.45 0.0 107.45 M19.4 45.5 L20.2 45.7 24.0 46.3 Q31.2 46.4 36.65 43.6 L38.65 42.45 Q44.5 38.7 48.1 31.35 L48.7 30.05 49.45 28.05 Q50.2 25.75 50.45 23.3 50.85 25.75 51.55 28.05 L52.25 30.05 Q55.75 38.95 64.4 43.5 L64.4 70.25 19.4 70.25 19.4 45.5 M13.8 93.75 Q14.4 93.2 14.4 92.35 14.4 91.5 13.8 90.9 13.25 90.35 12.4 90.35 11.55 90.35 10.95 90.9 10.4 91.5 10.4 92.35 10.4 93.2 10.95 93.75 11.55 94.4 12.4 94.4 13.25 94.4 13.8 93.75 M37.6 78.0 Q38.35 77.3 39.4 77.3 40.45 77.3 41.15 78.0 41.9 78.75 41.9 79.8 41.9 80.85 41.15 81.55 40.45 82.3 39.4 82.3 38.35 82.3 37.6 81.55 36.9 80.85 36.9 79.8 36.9 78.75 37.6 78.0 M54.9 63.7 Q54.9 63.1 54.45 62.65 54.0 62.2 53.4 62.2 52.8 62.2 52.35 62.65 51.9 63.1 51.9 63.7 51.9 64.3 52.35 64.75 52.8 65.25 53.4 65.25 54.0 65.25 54.45 64.75 54.9 64.3 54.9 63.7 M60.4 82.3 Q60.4 83.35 59.65 84.05 58.95 84.85 57.9 84.85 56.85 84.85 56.1 84.05 55.4 83.35 55.4 82.3 55.4 81.25 56.1 80.5 56.85 79.8 57.9 79.8 58.95 79.8 59.65 80.5 60.4 81.25 60.4 82.3 M50.4 109.95 Q51.0 109.95 51.45 110.4 51.9 110.85 51.9 111.45 L51.45 112.5 50.4 112.95 Q49.8 112.95 49.35 112.5 48.9 112.05 48.9 111.45 48.9 110.85 49.35 110.4 49.8 109.95 50.4 109.95 M42.4 144.15 Q41.35 144.15 40.6 143.4 39.9 142.7 39.9 141.6 39.9 140.55 40.6 139.8 41.35 139.1 42.4 139.1 43.45 139.1 44.15 139.8 44.9 140.55 44.9 141.6 44.9 142.7 44.15 143.4 43.45 144.15 42.4 144.15 M62.4 130.55 L75.4 130.55 75.4 154.2 62.4 154.2 62.4 130.55 M21.1 121.7 Q20.3 122.5 19.15 122.5 18.0 122.5 17.2 121.7 16.4 120.9 16.4 119.75 16.4 118.6 17.2 117.8 18.0 117.0 19.15 117.0 20.3 117.0 21.1 117.8 21.9 118.6 21.9 119.75 21.9 120.9 21.1 121.7 M28.65 160.2 Q28.15 160.2 27.75 160.55 27.4 160.95 27.4 161.45 27.4 161.95 27.75 162.35 28.15 162.75 28.65 162.75 29.15 162.75 29.5 162.35 29.9 161.95 29.9 161.45 29.9 160.95 29.5 160.55 29.15 160.2 28.65 160.2 M19.9 156.2 L75.4 156.2 75.4 175.35 19.9 175.35 19.9 156.2 M61.6 171.45 Q62.4 170.65 62.4 169.5 62.4 168.35 61.6 167.55 60.8 166.75 59.65 166.75 58.5 166.75 57.7 167.55 56.9 168.35 56.9 169.5 56.9 170.65 57.7 171.45 58.5 172.3 59.65 172.3 60.8 172.3 61.6 171.45 M46.4 180.8 Q47.25 180.8 47.8 181.35 48.4 182.0 48.4 182.85 48.4 183.7 47.8 184.25 47.25 184.85 46.4 184.85 45.55 184.85 44.95 184.25 44.4 183.7 44.4 182.85 44.4 182.0 44.95 181.35 45.55 180.8 46.4 180.8 M78.4 194.15 Q78.4 193.0 79.2 192.2 80.0 191.4 81.15 191.4 82.3 191.4 83.1 192.2 83.9 193.0 83.9 194.15 83.9 195.3 83.1 196.1 82.3 196.9 81.15 196.9 80.0 196.9 79.2 196.1 78.4 195.3 78.4 194.15 M77.4 175.35 L77.4 109.45 98.4 109.45 98.4 175.35 77.4 175.35 M82.45 136.65 Q81.9 137.25 81.9 138.1 81.9 138.95 82.45 139.5 83.05 140.1 83.9 140.1 84.75 140.1 85.3 139.5 85.9 138.95 85.9 138.1 85.9 137.25 85.3 136.65 84.75 136.1 83.9 136.1 83.05 136.1 82.45 136.65 M62.4 90.85 L87.9 90.85 87.9 107.45 62.4 107.45 62.4 90.85 M88.95 224.15 Q89.55 223.6 90.4 223.6 91.25 223.6 91.8 224.15 92.4 224.75 92.4 225.6 92.4 226.45 91.8 227.0 91.25 227.6 90.4 227.6 89.55 227.6 88.95 227.0 88.4 226.45 88.4 225.6 88.4 224.75 88.95 224.15 M73.1 238.85 Q72.3 239.65 71.15 239.65 70.0 239.65 69.2 238.85 68.4 238.05 68.4 236.9 68.4 235.75 69.2 234.95 70.0 234.15 71.15 234.15 72.3 234.15 73.1 234.95 73.9 235.75 73.9 236.9 73.9 238.05 73.1 238.85 M39.0 204.7 Q39.0 206.05 38.0 207.0 37.05 208.0 35.7 208.0 34.35 208.0 33.35 207.0 32.4 206.05 32.4 204.7 32.4 203.35 33.35 202.35 34.35 201.4 35.7 201.4 37.05 201.4 38.0 202.35 39.0 203.35 39.0 204.7 M11.15 230.65 Q10.0 230.65 9.2 231.45 8.4 232.25 8.4 233.4 8.4 234.55 9.2 235.35 10.0 236.15 11.15 236.15 12.3 236.15 13.1 235.35 13.9 234.55 13.9 233.4 13.9 232.25 13.1 231.45 12.3 230.65 11.15 230.65 M38.9 235.15 Q38.9 236.2 38.15 236.9 37.45 237.65 36.4 237.65 35.35 237.65 34.6 236.9 33.9 236.2 33.9 235.15 33.9 234.1 34.6 233.35 35.35 232.65 36.4 232.65 37.45 232.65 38.15 233.35 38.9 234.1 38.9 235.15" fill="#f0f0f0" fill-rule="evenodd" stroke="none"/>
    <path d="M100.0 177.35 L100.0 203.5 66.9 203.5 66.9 177.35 100.0 177.35 M0.0 203.5 L0.0 177.35 5.9 177.35 5.9 203.5 0.0 203.5 M1.0 27.15 Q1.65 29.45 2.65 31.55 3.55 33.5 4.7 35.25 9.15 41.75 17.4 44.75 L17.4 70.25 1.0 70.25 1.0 27.15 M13.8 93.75 Q13.25 94.4 12.4 94.4 11.55 94.4 10.95 93.75 10.4 93.2 10.4 92.35 10.4 91.5 10.95 90.9 11.55 90.35 12.4 90.35 13.25 90.35 13.8 90.9 14.4 91.5 14.4 92.35 14.4 93.2 13.8 93.75 M54.9 63.7 Q54.9 64.3 54.45 64.75 54.0 65.25 53.4 65.25 52.8 65.25 52.35 64.75 51.9 64.3 51.9 63.7 51.9 63.1 52.35 62.65 52.8 62.2 53.4 62.2 54.0 62.2 54.45 62.65 54.9 63.1 54.9 63.7 M60.4 90.85 L60.4 154.2 32.9 154.2 32.9 90.85 60.4 90.85 M42.4 144.15 Q43.45 144.15 44.15 143.4 44.9 142.7 44.9 141.6 44.9 140.55 44.15 139.8 43.45 139.1 42.4 139.1 41.35 139.1 40.6 139.8 39.9 140.55 39.9 141.6 39.9 142.7 40.6 143.4 41.35 144.15 42.4 144.15 M50.4 109.95 Q49.8 109.95 49.35 110.4 48.9 110.85 48.9 111.45 48.9 112.05 49.35 112.5 49.8 112.95 50.4 112.95 L51.45 112.5 51.9 111.45 Q51.9 110.85 51.45 110.4 51.0 109.95 50.4 109.95 M28.65 160.2 Q29.15 160.2 29.5 160.55 29.9 160.95 29.9 161.45 29.9 161.95 29.5 162.35 29.15 162.75 28.65 162.75 28.15 162.75 27.75 162.35 27.4 161.95 27.4 161.45 27.4 160.95 27.75 160.55 28.15 160.2 28.65 160.2 M61.6 171.45 Q60.8 172.3 59.65 172.3 58.5 172.3 57.7 171.45 56.9 170.65 56.9 169.5 56.9 168.35 57.7 167.55 58.5 166.75 59.65 166.75 60.8 166.75 61.6 167.55 62.4 168.35 62.4 169.5 62.4 170.65 61.6 171.45 M78.4 194.15 Q78.4 195.3 79.2 196.1 80.0 196.9 81.15 196.9 82.3 196.9 83.1 196.1 83.9 195.3 83.9 194.15 83.9 193.0 83.1 192.2 82.3 191.4 81.15 191.4 80.0 191.4 79.2 192.2 78.4 193.0 78.4 194.15 M82.45 136.65 Q83.05 136.1 83.9 136.1 84.75 136.1 85.3 136.65 85.9 137.25 85.9 138.1 85.9 138.95 85.3 139.5 84.75 140.1 83.9 140.1 83.05 140.1 82.45 139.5 81.9 138.95 81.9 138.1 81.9 137.25 82.45 136.65 M11.15 230.65 Q12.3 230.65 13.1 231.45 13.9 232.25 13.9 233.4 13.9 234.55 13.1 235.35 12.3 236.15 11.15 236.15 10.0 236.15 9.2 235.35 8.4 234.55 8.4 233.4 8.4 232.25 9.2 231.45 10.0 230.65 11.15 230.65 M38.9 235.15 Q38.9 234.1 38.15 233.35 37.45 232.65 36.4 232.65 35.35 232.65 34.6 233.35 33.9 234.1 33.9 235.15 33.9 236.2 34.6 236.9 35.35 237.65 36.4 237.65 37.45 237.65 38.15 236.9 38.9 236.2 38.9 235.15 M49.0 220.6 L49.0 248.95 23.9 248.95 23.9 220.6 49.0 220.6" fill="#e5e5e5" fill-rule="evenodd" stroke="none"/>
    <path d="M75.4 109.45 L75.4 128.55 62.4 128.55 62.4 109.45 75.4 109.45 M1.0 133.1 L17.9 133.1 17.9 175.35 1.0 175.35 1.0 133.1" fill="#ebebeb" fill-rule="evenodd" stroke="none"/>
    <path d="M21.1 121.7 Q21.9 120.9 21.9 119.75 21.9 118.6 21.1 117.8 20.3 117.0 19.15 117.0 18.0 117.0 17.2 117.8 16.4 118.6 16.4 119.75 16.4 120.9 17.2 121.7 18.0 122.5 19.15 122.5 20.3 122.5 21.1 121.7 M30.9 109.45 L30.9 131.05 1.0 131.05 1.0 109.45 30.9 109.45 M21.9 177.35 L21.9 203.5 7.9 203.5 7.9 177.35 21.9 177.35" fill="#f5f5f5" fill-rule="evenodd" stroke="none"/>
    <path d="M0.05 -24.8 L0.05 -333.3 100.05 -333.3 100.05 13.5 100.0 13.8 99.85 15.0 Q99.45 18.6 98.25 21.8 L97.45 23.8 95.05 28.0 91.95 31.8 89.95 33.65 Q83.05 39.45 73.5 38.6 L72.5 38.5 Q69.2 37.75 66.4 36.5 L64.4 35.45 Q60.55 33.3 57.65 30.05 54.75 26.75 52.8 22.3 L51.85 19.85 Q49.85 14.3 50.55 9.0 50.0 10.6 49.5 14.7 48.75 21.8 44.75 27.7 L44.5 28.05 43.0 30.05 Q41.0 32.45 38.65 34.15 L36.65 35.5 Q30.45 39.2 22.2 38.2 L19.4 37.7 17.4 37.15 Q10.85 34.85 5.95 28.65 3.95 26.15 2.65 23.5 L1.75 21.5 1.0 19.3 Q0.2 16.55 0.05 13.6 L0.05 11.3 0.25 9.0 0.05 9.95 0.05 -24.8 M94.8 23.65 L95.6 21.8 96.85 17.95 Q94.4 11.95 88.55 16.1 84.15 19.15 79.35 21.15 L77.15 21.8 Q74.85 22.25 72.5 21.85 L72.5 21.8 70.5 21.15 66.4 18.4 65.6 17.75 64.4 16.8 Q63.5 16.15 62.6 15.75 L60.5 15.15 Q58.05 14.75 55.4 15.85 55.25 16.45 55.4 17.0 57.45 25.1 62.7 30.05 L64.4 31.5 66.4 32.9 Q69.15 34.6 72.5 35.75 L72.5 35.65 73.5 35.85 Q83.8 37.2 89.95 30.95 L91.95 28.6 Q93.45 26.5 94.75 23.8 L94.8 23.65 M41.5 14.05 L38.65 15.55 36.65 16.65 29.0 20.7 27.2 21.5 25.1 22.05 Q21.85 22.5 19.4 20.85 L17.7 19.35 17.4 19.05 Q13.25 14.5 7.55 15.1 L5.6 15.4 Q5.0 18.5 6.15 21.5 L7.1 23.5 9.1 26.45 Q11.95 29.85 15.5 32.35 L17.4 33.6 19.4 34.6 Q24.05 36.55 29.5 35.55 33.55 34.95 36.65 33.15 L38.65 31.75 40.55 30.05 42.2 28.05 Q43.6 26.05 44.6 23.45 L46.55 17.65 46.55 17.3 Q46.4 15.65 45.0 14.65 L44.65 14.45 42.45 14.0 41.5 14.05" fill="#d41b1b" fill-rule="evenodd" stroke="none"/>
    <path d="M89.15 19.65 L85.85 21.8 Q83.4 23.1 80.8 23.8 77.3 24.75 73.5 24.55 L72.5 24.45 72.5 24.4 Q69.15 24.25 66.4 22.95 65.35 22.45 64.4 21.8 L61.35 19.0 60.85 18.6 Q59.3 19.85 60.6 22.1 62.2 24.85 64.4 26.85 L66.4 28.35 Q67.95 29.35 69.75 30.05 71.05 30.55 72.5 30.85 L72.5 30.7 73.5 30.95 Q81.0 32.35 87.6 28.0 89.0 27.05 89.95 25.9 91.5 24.05 91.85 21.8 92.05 20.65 91.9 19.4 90.45 18.65 89.15 19.65 M94.8 23.65 L94.75 23.8 Q93.45 26.5 91.95 28.6 L89.95 30.95 Q83.8 37.2 73.5 35.85 L72.5 35.65 72.5 35.75 Q69.15 34.6 66.4 32.9 L64.4 31.5 62.7 30.05 Q57.45 25.1 55.4 17.0 55.25 16.45 55.4 15.85 58.05 14.75 60.5 15.15 L62.6 15.75 Q63.5 16.15 64.4 16.8 L65.6 17.75 66.4 18.4 70.5 21.15 72.5 21.8 72.5 21.85 Q74.85 22.25 77.15 21.8 L79.35 21.15 Q84.15 19.15 88.55 16.1 94.4 11.95 96.85 17.95 L95.6 21.8 94.8 23.65 M41.5 14.05 L42.45 14.0 44.65 14.45 45.0 14.65 Q46.4 15.65 46.55 17.3 L46.55 17.65 44.6 23.45 Q43.6 26.05 42.2 28.05 L40.55 30.05 38.65 31.75 36.65 33.15 Q33.55 34.95 29.5 35.55 24.05 36.55 19.4 34.6 L17.4 33.6 15.5 32.35 Q11.95 29.85 9.1 26.45 L7.1 23.5 6.15 21.5 Q5.0 18.5 5.6 15.4 L7.55 15.1 Q13.25 14.5 17.4 19.05 L17.7 19.35 19.4 20.85 Q21.85 22.5 25.1 22.05 L27.2 21.5 29.0 20.7 36.65 16.65 38.65 15.55 41.5 14.05 M30.35 23.5 Q26.4 24.6 22.2 24.4 L19.4 24.0 17.95 23.5 17.4 23.25 16.0 22.45 Q12.8 20.2 9.95 18.8 10.4 21.45 11.6 23.5 13.5 27.0 17.4 28.9 L19.4 29.75 20.95 30.2 Q28.4 32.2 36.1 28.25 L36.65 27.95 38.65 26.55 Q42.05 23.6 41.65 19.1 40.2 18.35 38.8 19.3 L38.65 19.4 36.65 20.75 35.3 21.5 Q32.9 22.8 30.35 23.5" fill="#e84646" fill-rule="evenodd" stroke="none"/>
    <path d="M89.35 23.8 Q90.45 22.35 90.05 21.8 89.7 21.35 88.3 21.5 L78.2 27.4 Q84.25 30.2 89.1 24.1 L89.35 23.8 M89.15 19.65 Q90.45 18.65 91.9 19.4 92.05 20.65 91.85 21.8 91.5 24.05 89.95 25.9 89.0 27.05 87.6 28.0 81.0 32.35 73.5 30.95 L72.5 30.7 72.5 30.85 Q71.05 30.55 69.75 30.05 67.95 29.35 66.4 28.35 L64.4 26.85 Q62.2 24.85 60.6 22.1 59.3 19.85 60.85 18.6 L61.35 19.0 64.4 21.8 Q65.35 22.45 66.4 22.95 69.15 24.25 72.5 24.4 L72.5 24.45 73.5 24.55 Q77.3 24.75 80.8 23.8 83.4 23.1 85.85 21.8 L89.15 19.65 M74.55 26.25 L73.5 25.85 72.5 25.75 72.5 25.6 Q71.25 25.6 70.45 26.1 69.6 26.55 69.6 27.15 69.6 27.75 70.45 28.2 L72.5 28.65 72.5 28.8 73.5 28.7 74.55 28.35 Q75.4 27.9 75.4 27.3 75.4 26.7 74.55 26.25 M30.35 23.5 Q32.9 22.8 35.3 21.5 L36.65 20.75 38.65 19.4 38.8 19.3 Q40.2 18.35 41.65 19.1 42.05 23.6 38.65 26.55 L36.65 27.95 36.1 28.25 Q28.4 32.2 20.95 30.2 L19.4 29.75 17.4 28.9 Q13.5 27.0 11.6 23.5 10.4 21.45 9.95 18.8 12.8 20.2 16.0 22.45 L17.4 23.25 17.95 23.5 19.4 24.0 22.2 24.4 Q26.4 24.6 30.35 23.5 M20.2 28.2 L22.25 28.65 24.3 28.2 Q25.15 27.7 25.15 27.0 25.15 26.3 24.3 25.8 23.45 25.3 22.25 25.3 21.05 25.3 20.2 25.8 19.55 26.2 19.4 26.7 L19.35 27.0 19.4 27.35 20.2 28.2 M36.65 26.5 L38.65 24.9 Q40.15 23.25 39.5 21.05 33.75 24.1 27.95 27.1 L28.8 27.9 31.5 28.1 Q33.85 27.85 36.0 26.8 L36.65 26.5" fill="#ec6868" fill-rule="evenodd" stroke="none"/>
    <path d="M89.35 23.8 L89.1 24.1 Q84.25 30.2 78.2 27.4 L88.3 21.5 Q89.7 21.35 90.05 21.8 90.45 22.35 89.35 23.8 M74.55 26.25 Q75.4 26.7 75.4 27.3 75.4 27.9 74.55 28.35 L73.5 28.7 72.5 28.8 72.5 28.65 70.45 28.2 Q69.6 27.75 69.6 27.15 69.6 26.55 70.45 26.1 71.25 25.6 72.5 25.6 L72.5 25.75 73.5 25.85 74.55 26.25 M20.2 28.2 L19.4 27.35 19.35 27.0 19.4 26.7 Q19.55 26.2 20.2 25.8 21.05 25.3 22.25 25.3 23.45 25.3 24.3 25.8 25.15 26.3 25.15 27.0 25.15 27.7 24.3 28.2 L22.25 28.65 20.2 28.2 M36.65 26.5 L36.0 26.8 Q33.85 27.85 31.5 28.1 L28.8 27.9 27.95 27.1 Q33.75 24.1 39.5 21.05 40.15 23.25 38.65 24.9 L36.65 26.5" fill="#f08c8c" fill-rule="evenodd" stroke="none"/>
    <path d="M100.05 13.5 L100.05 22.0 100.0 22.2 99.55 23.8 Q98.75 26.25 97.45 28.45 95.05 32.55 91.95 35.35 L89.95 37.05 Q85.5 40.3 79.8 41.15 76.35 41.65 72.5 41.3 L68.4 40.25 66.4 39.45 64.4 38.5 Q58.4 35.25 54.9 30.05 53.7 28.3 52.8 26.35 51.15 22.65 50.45 18.3 50.0 22.6 48.1 26.35 L47.2 28.05 46.0 30.05 Q42.9 34.65 38.65 37.45 L36.65 38.6 Q31.2 41.35 24.0 41.25 L20.2 40.65 19.4 40.45 17.4 39.75 Q5.4 35.35 1.45 23.5 L1.0 22.1 0.85 21.5 0.15 18.3 0.05 19.2 0.05 13.6 Q0.2 16.55 1.0 19.3 L1.75 21.5 2.65 23.5 Q3.95 26.15 5.95 28.65 10.85 34.85 17.4 37.15 L19.4 37.7 22.2 38.2 Q30.45 39.2 36.65 35.5 L38.65 34.15 Q41.0 32.45 43.0 30.05 L44.5 28.05 44.75 27.7 Q48.75 21.8 49.5 14.7 50.0 10.6 50.55 9.0 49.85 14.3 51.85 19.85 L52.8 22.3 Q54.75 26.75 57.65 30.05 60.55 33.3 64.4 35.45 L66.4 36.5 Q69.2 37.75 72.5 38.5 L73.5 38.6 Q83.05 39.45 89.95 33.65 L91.95 31.8 95.05 28.0 97.45 23.8 98.25 21.8 Q99.45 18.6 99.85 15.0 L100.0 13.8 100.05 13.5" fill="#6b0e0e" fill-rule="evenodd" stroke="none"/>
  </g>
</svg>
