<?xml version="1.0" encoding="UTF-8" standalone="no"?>
<svg xmlns:ffdec="https://www.free-decompiler.com/flash" xmlns:xlink="http://www.w3.org/1999/xlink" ffdec:objectType="shape" height="573.4px" width="100.0px" xmlns="http://www.w3.org/2000/svg">
  <g transform="matrix(1.0, 0.0, 0.0, 1.0, 0.0, 323.4)">
    <path d="M100.0 84.95 L100.0 250.0 50.9 250.0 50.9 115.6 51.0 115.5 51.4 106.95 51.45 105.9 Q51.75 100.25 52.75 96.65 53.0 95.7 53.4 94.75 54.05 92.95 55.05 91.35 57.3 87.65 61.15 84.95 L100.0 84.95 M45.9 250.0 L0.0 250.0 0.0 84.95 31.95 84.95 Q34.6 86.2 36.5 87.85 38.25 89.35 39.65 91.35 L41.6 94.75 Q42.95 97.65 43.75 101.25 L44.7 106.95 45.9 115.45 45.9 250.0" fill="#2ea85e" fill-rule="evenodd" stroke="none"/>
    <path d="M100.0 70.95 L100.0 77.25 0.0 77.25 0.0 70.95 100.0 70.95" fill="#188745" fill-rule="evenodd" stroke="none"/>
    <path d="M100.0 77.25 L100.0 84.95 61.15 84.95 Q57.3 87.65 55.05 91.35 54.05 92.95 53.4 94.75 53.0 95.7 52.75 96.65 51.75 100.25 51.45 105.9 L51.4 106.95 51.0 115.5 50.9 115.6 50.9 250.0 45.9 250.0 45.9 115.45 44.7 106.95 43.75 101.25 Q42.95 97.65 41.6 94.75 L39.65 91.35 Q38.25 89.35 36.5 87.85 34.6 86.2 31.95 84.95 L0.0 84.95 0.0 77.25 100.0 77.25" fill="#239751" fill-rule="evenodd" stroke="none"/>
    <path d="M0.0 67.7 L0.0 -323.4 100.0 -323.4 100.0 67.7 0.0 67.7" fill="#e9e9e9" fill-rule="evenodd" stroke="none"/>
    <path d="M100.0 67.7 L100.0 70.95 0.0 70.95 0.0 67.7 100.0 67.7" fill="#80173b" fill-rule="evenodd" stroke="none"/>
    <path d="M95.95 33.8 L100.0 33.8 100.0 39.8 64.25 39.8 64.25 49.65 100.0 49.65 100.0 52.4 64.25 52.4 64.25 62.25 100.0 62.25 100.0 68.25 0.0 68.25 0.0 62.25 36.25 62.25 36.25 53.35 36.0 52.7 35.3 52.4 0.0 52.4 0.0 49.65 36.25 49.65 36.25 40.75 36.0 40.1 35.3 39.8 0.0 39.8 0.0 33.8 4.75 33.8 4.75 12.15 4.45 11.5 Q4.15 11.2 3.8 11.2 L0.0 11.2 0.0 8.4 17.15 8.4 17.15 -0.25 16.85 -0.9 16.2 -1.2 0.0 -1.2 0.0 -7.3 100.0 -7.3 100.0 -1.2 83.45 -1.2 83.45 8.4 100.0 8.4 100.0 11.2 95.95 11.2 95.95 33.8 M19.95 33.8 L30.15 33.8 30.15 -0.25 29.9 -0.9 29.25 -1.2 19.95 -1.2 19.95 33.8 M70.3 33.8 L80.65 33.8 80.65 -0.25 80.35 -0.9 79.7 -1.2 70.3 -1.2 70.3 33.8 M33.0 -1.2 L33.0 8.4 67.5 8.4 67.5 -0.25 67.2 -0.9 Q66.95 -1.2 66.55 -1.2 L33.0 -1.2 M93.15 20.8 L93.15 12.15 92.85 11.5 Q92.55 11.2 92.2 11.2 L83.45 11.2 83.45 20.8 93.15 20.8 M83.45 33.8 L93.15 33.8 93.15 24.55 92.85 23.85 Q92.55 23.6 92.2 23.6 L83.45 23.6 83.45 33.8 M57.9 20.8 L67.5 20.8 67.5 12.15 67.2 11.5 Q66.95 11.2 66.55 11.2 L57.9 11.2 57.9 20.8 M57.9 33.8 L67.5 33.8 67.5 24.55 67.2 23.85 66.55 23.6 57.9 23.6 57.9 33.8 M45.45 33.8 L55.1 33.8 55.1 12.15 54.85 11.5 Q54.55 11.2 54.15 11.2 L45.45 11.2 45.45 33.8 M33.0 20.8 L42.65 20.8 42.65 12.15 42.4 11.5 Q42.1 11.2 41.8 11.2 L33.0 11.2 33.0 20.8 M33.0 33.8 L42.65 33.8 42.65 24.55 42.4 23.85 Q42.1 23.6 41.8 23.6 L33.0 23.6 33.0 33.8 M51.65 49.65 L61.4 49.65 61.4 40.75 61.15 40.1 Q60.85 39.8 60.5 39.8 L51.65 39.8 51.65 49.65 M39.05 49.65 L48.85 49.65 48.85 40.75 48.55 40.1 Q48.3 39.8 47.9 39.8 L39.05 39.8 39.05 49.65 M7.55 20.8 L17.15 20.8 17.15 12.15 Q17.15 11.75 16.85 11.5 L16.2 11.2 7.55 11.2 7.55 20.8 M7.55 33.8 L17.15 33.8 17.15 24.55 16.85 23.85 16.2 23.6 7.55 23.6 7.55 33.8 M39.05 62.25 L48.85 62.25 48.85 53.35 48.55 52.7 Q48.3 52.4 47.9 52.4 L39.05 52.4 39.05 62.25 M51.65 62.25 L61.4 62.25 61.4 53.35 61.15 52.7 Q60.85 52.4 60.5 52.4 L51.65 52.4 51.65 62.25" fill="#bd2257" fill-rule="evenodd" stroke="none"/>
  </g>
</svg>
