<?xml version="1.0" encoding="UTF-8" standalone="no"?>
<svg xmlns:ffdec="https://www.free-decompiler.com/flash" xmlns:xlink="http://www.w3.org/1999/xlink" ffdec:objectType="shape" height="570.4px" width="100.0px" xmlns="http://www.w3.org/2000/svg">
  <g transform="matrix(1.0, 0.0, 0.0, 1.0, 0.0, 323.4)">
    <path d="M0.0 -321.45 L0.0 -323.4 100.0 -323.4 100.0 -321.45 0.0 -321.45 M100.0 -312.25 L100.0 -303.1 0.0 -303.1 0.0 -312.25 100.0 -312.25 M100.0 -270.6 L100.0 -265.8 0.0 -265.8 0.0 -270.6 100.0 -270.6 M100.0 -257.9 L100.0 -249.55 0.0 -249.55 0.0 -257.9 100.0 -257.9 M100.0 -247.0 L100.0 -244.8 0.0 -244.8 0.0 -247.0 100.0 -247.0 M100.0 -234.3 L100.0 -223.85 0.0 -223.85 0.0 -234.3 100.0 -234.3 M100.0 -186.8 L100.0 -181.3 0.0 -181.3 0.0 -186.8 100.0 -186.8 M100.0 -172.3 L100.0 -162.8 0.0 -162.8 0.0 -172.3 100.0 -172.3 M100.0 -127.75 L100.0 -123.8 0.0 -123.8 0.0 -127.75 100.0 -127.75 M100.0 -110.3 L100.0 -97.25 0.0 -97.25 0.0 -110.3 100.0 -110.3 M100.0 -60.75 L100.0 -55.8 0.0 -55.8 0.0 -60.75 100.0 -60.75 M100.0 -44.25 L100.0 -37.0 0.0 -37.0 0.0 -44.25 100.0 -44.25 M100.0 0.0 L100.0 2.2 0.0 2.2 0.0 0.0 100.0 0.0 M100.0 12.7 L100.0 23.15 0.0 23.15 0.0 12.7 100.0 12.7 M100.0 60.2 L100.0 65.7 0.0 65.7 0.0 60.2 100.0 60.2 M100.0 74.7 L100.0 84.2 0.0 84.2 0.0 74.7 100.0 74.7 M100.0 119.25 L100.0 123.2 0.0 123.2 0.0 119.25 100.0 119.25 M100.0 136.7 L100.0 149.75 0.0 149.75 0.0 136.7 100.0 136.7 M100.0 186.25 L100.0 191.2 0.0 191.2 0.0 186.25 100.0 186.25 M100.0 202.75 L100.0 210.0 0.0 210.0 0.0 202.75 100.0 202.75" fill="#60301a" fill-rule="evenodd" stroke="none"/>
    <path d="M100.0 -321.45 L100.0 -312.25 0.0 -312.25 0.0 -321.45 100.0 -321.45 M100.0 -265.8 L100.0 -257.9 0.0 -257.9 0.0 -265.8 100.0 -265.8 M100.0 -244.8 L100.0 -234.3 0.0 -234.3 0.0 -244.8 100.0 -244.8 M100.0 -181.3 L100.0 -172.3 0.0 -172.3 0.0 -181.3 100.0 -181.3 M100.0 -123.8 L100.0 -110.3 0.0 -110.3 0.0 -123.8 100.0 -123.8 M100.0 -55.8 L100.0 -44.25 0.0 -44.25 0.0 -55.8 100.0 -55.8 M100.0 2.2 L100.0 12.7 0.0 12.7 0.0 2.2 100.0 2.2 M100.0 65.7 L100.0 74.7 0.0 74.7 0.0 65.7 100.0 65.7 M100.0 123.2 L100.0 136.7 0.0 136.7 0.0 123.2 100.0 123.2 M100.0 191.2 L100.0 202.75 0.0 202.75 0.0 191.2 100.0 191.2" fill="#71381e" fill-rule="evenodd" stroke="none"/>
    <path d="M100.0 -303.1 L100.0 -298.65 0.0 -298.65 0.0 -303.1 100.0 -303.1 M100.0 -249.55 L100.0 -247.0 0.0 -247.0 0.0 -249.55 100.0 -249.55 M100.0 -223.85 L100.0 -218.8 0.0 -218.8 0.0 -223.85 100.0 -223.85 M100.0 -162.8 L100.0 -157.75 0.0 -157.75 0.0 -162.8 100.0 -162.8 M100.0 -97.25 L100.0 -92.75 0.0 -92.75 0.0 -97.25 100.0 -97.25 M100.0 -37.0 L100.0 -28.75 0.0 -28.75 0.0 -37.0 100.0 -37.0 M100.0 23.15 L100.0 28.2 0.0 28.2 0.0 23.15 100.0 23.15 M100.0 84.2 L100.0 89.25 0.0 89.25 0.0 84.2 100.0 84.2 M100.0 149.75 L100.0 154.25 0.0 154.25 0.0 149.75 100.0 149.75 M100.0 210.0 L100.0 218.25 0.0 218.25 0.0 210.0 100.0 210.0" fill="#4f2815" fill-rule="evenodd" stroke="none"/>
    <path d="M100.0 -277.9 L100.0 -270.6 0.0 -270.6 0.0 -277.9 100.0 -277.9 M100.0 -195.1 L100.0 -186.8 0.0 -186.8 0.0 -195.1 100.0 -195.1 M100.0 -133.8 L100.0 -127.75 0.0 -127.75 0.0 -133.8 100.0 -133.8 M100.0 -66.25 L100.0 -60.75 0.0 -60.75 0.0 -66.25 100.0 -66.25 M100.0 -5.0 L100.0 0.0 0.0 0.0 0.0 -5.0 100.0 -5.0 M100.0 51.9 L100.0 60.2 0.0 60.2 0.0 51.9 100.0 51.9 M100.0 113.2 L100.0 119.25 0.0 119.25 0.0 113.2 100.0 113.2 M100.0 180.75 L100.0 186.25 0.0 186.25 0.0 180.75 100.0 180.75 M100.0 242.0 L100.0 247.0 0.0 247.0 0.0 242.0 100.0 242.0" fill="#6f401e" fill-rule="evenodd" stroke="none"/>
    <path d="M100.0 -298.65 L100.0 -294.3 0.0 -294.3 0.0 -298.65 100.0 -298.65 M100.0 -284.2 L100.0 -277.9 0.0 -277.9 0.0 -284.2 100.0 -284.2 M100.0 -218.8 L100.0 -213.8 0.0 -213.8 0.0 -218.8 100.0 -218.8 M100.0 -202.3 L100.0 -195.1 0.0 -195.1 0.0 -202.3 100.0 -202.3 M100.0 -157.75 L100.0 -154.8 0.0 -154.8 0.0 -157.75 100.0 -157.75 M100.0 -143.3 L100.0 -133.8 0.0 -133.8 0.0 -143.3 100.0 -143.3 M100.0 -92.75 L100.0 -87.3 0.0 -87.3 0.0 -92.75 100.0 -92.75 M100.0 -76.8 L100.0 -66.25 0.0 -66.25 0.0 -76.8 100.0 -76.8 M100.0 -28.75 L100.0 -24.75 0.0 -24.75 0.0 -28.75 100.0 -28.75 M100.0 -12.75 L100.0 -5.0 0.0 -5.0 0.0 -12.75 100.0 -12.75 M100.0 28.2 L100.0 33.2 0.0 33.2 0.0 28.2 100.0 28.2 M100.0 44.7 L100.0 51.9 0.0 51.9 0.0 44.7 100.0 44.7 M100.0 89.25 L100.0 92.2 0.0 92.2 0.0 89.25 100.0 89.25 M100.0 103.7 L100.0 113.2 0.0 113.2 0.0 103.7 100.0 103.7 M100.0 154.25 L100.0 159.7 0.0 159.7 0.0 154.25 100.0 154.25 M100.0 170.2 L100.0 180.75 0.0 180.75 0.0 170.2 100.0 170.2 M100.0 218.25 L100.0 222.25 0.0 222.25 0.0 218.25 100.0 218.25 M100.0 234.25 L100.0 242.0 0.0 242.0 0.0 234.25 100.0 234.25" fill="#804922" fill-rule="evenodd" stroke="none"/>
    <path d="M100.0 -294.3 L100.0 -284.2 0.0 -284.2 0.0 -294.3 100.0 -294.3 M100.0 -213.8 L100.0 -202.3 0.0 -202.3 0.0 -213.8 100.0 -213.8 M100.0 -154.8 L100.0 -143.3 0.0 -143.3 0.0 -154.8 100.0 -154.8 M100.0 -87.3 L100.0 -76.8 0.0 -76.8 0.0 -87.3 100.0 -87.3 M100.0 -24.75 L100.0 -12.75 0.0 -12.75 0.0 -24.75 100.0 -24.75 M100.0 33.2 L100.0 44.7 0.0 44.7 0.0 33.2 100.0 33.2 M100.0 92.2 L100.0 103.7 0.0 103.7 0.0 92.2 100.0 92.2 M100.0 159.7 L100.0 170.2 0.0 170.2 0.0 159.7 100.0 159.7 M100.0 222.25 L100.0 234.25 0.0 234.25 0.0 222.25 100.0 222.25" fill="#915426" fill-rule="evenodd" stroke="none"/>
  </g>
</svg>
