<?xml version="1.0" encoding="UTF-8" standalone="no"?>
<svg xmlns:ffdec="https://www.free-decompiler.com/flash" xmlns:xlink="http://www.w3.org/1999/xlink" ffdec:objectType="shape" height="573.4px" width="100.0px" xmlns="http://www.w3.org/2000/svg">
  <g transform="matrix(1.0, 0.0, 0.0, 1.0, 0.0, 323.4)">
    <path d="M0.0 -284.8 L0.0 -323.4 26.9 -323.4 26.9 -284.8 0.0 -284.8 M53.9 -323.4 L75.9 -323.4 75.9 -284.8 53.9 -284.8 53.9 -323.4 M100.0 -284.8 L100.0 -246.55 86.85 -246.55 86.8 -246.5 81.65 -246.5 81.7 -246.55 75.9 -246.55 75.9 -219.25 53.9 -219.25 53.9 -246.55 26.9 -246.55 26.9 -219.25 0.0 -219.25 0.0 -246.55 26.9 -246.55 26.9 -284.8 53.9 -284.8 53.9 -246.55 75.9 -246.55 75.9 -284.8 100.0 -284.8 M100.0 -219.25 L100.0 -188.1 75.9 -188.1 75.9 -158.95 53.9 -158.95 53.9 -188.1 75.9 -188.1 75.9 -219.25 100.0 -219.25 M100.0 -158.95 L100.0 -124.7 75.9 -124.7 75.9 -95.55 53.9 -95.55 53.9 -124.7 26.9 -124.7 26.9 -158.95 0.0 -158.95 0.0 -188.1 26.9 -188.1 26.9 -158.95 53.9 -158.95 53.9 -124.7 75.9 -124.7 75.9 -158.95 100.0 -158.95 M100.0 -95.55 L100.0 -66.4 75.9 -66.4 75.9 -32.2 53.9 -32.2 53.9 -66.4 26.9 -66.4 26.9 -95.55 0.0 -95.55 0.0 -124.7 26.9 -124.7 26.9 -95.55 53.9 -95.55 53.9 -66.4 75.9 -66.4 75.9 -95.55 100.0 -95.55 M100.0 -32.2 L100.0 1.7 81.65 1.75 81.7 1.7 75.9 1.7 75.9 -32.2 100.0 -32.2 M100.0 29.0 L100.0 60.15 75.9 60.15 75.9 89.3 53.9 89.3 53.9 60.15 75.9 60.15 75.9 29.0 53.9 29.0 53.9 1.7 52.8 1.7 52.75 1.75 50.0 1.75 50.0 1.7 26.9 1.7 26.9 -32.2 0.0 -32.2 0.0 -66.4 26.9 -66.4 26.9 -32.2 53.9 -32.2 53.9 1.7 75.9 1.7 75.9 29.0 100.0 29.0 M100.0 89.3 L100.0 123.55 75.9 123.55 75.9 152.7 53.9 152.7 53.9 123.55 26.9 123.55 26.9 152.7 53.9 152.7 53.9 181.85 26.9 181.85 26.9 152.7 0.0 152.7 0.0 123.55 26.9 123.55 26.9 89.3 0.0 89.3 0.0 60.15 26.9 60.15 26.9 89.3 53.9 89.3 53.9 123.55 75.9 123.55 75.9 89.3 100.0 89.3 M100.0 152.7 L100.0 181.85 75.9 181.85 75.9 152.7 100.0 152.7 M100.0 216.0 L100.0 249.95 86.85 249.95 86.8 250.0 81.65 250.0 81.7 249.95 75.9 249.95 75.9 216.0 100.0 216.0 M52.8 249.95 L52.75 250.0 50.0 250.0 50.0 249.95 26.9 249.95 26.9 216.0 0.0 216.0 0.0 181.85 26.9 181.85 26.9 216.0 53.9 216.0 53.9 181.85 75.9 181.85 75.9 216.0 53.9 216.0 53.9 248.65 52.65 249.95 52.8 249.95 M0.0 29.0 L0.0 1.7 26.9 1.7 26.9 29.0 0.0 29.0 M26.9 -219.25 L53.9 -219.25 53.9 -188.1 26.9 -188.1 26.9 -219.25 M53.9 29.0 L53.9 60.15 26.9 60.15 26.9 29.0 53.9 29.0 M86.85 249.95 L90.9 245.55 86.7 249.95 86.85 249.95" fill="#3f194f" fill-rule="evenodd" stroke="none"/>
    <path d="M26.9 -284.8 L26.9 -323.4 53.9 -323.4 53.9 -284.8 26.9 -284.8 M75.9 -323.4 L100.0 -323.4 100.0 -284.8 75.9 -284.8 75.9 -323.4 M100.0 -246.55 L100.0 -219.25 75.9 -219.25 75.9 -246.55 81.7 -246.55 81.65 -246.5 86.8 -246.5 86.85 -246.55 100.0 -246.55 M100.0 -188.1 L100.0 -158.95 75.9 -158.95 75.9 -188.1 100.0 -188.1 M100.0 -124.7 L100.0 -95.55 75.9 -95.55 75.9 -124.7 100.0 -124.7 M100.0 -66.4 L100.0 -32.2 75.9 -32.2 75.9 -66.4 100.0 -66.4 M100.0 1.7 L100.0 29.0 75.9 29.0 75.9 1.7 81.7 1.7 81.65 1.75 100.0 1.7 M100.0 60.15 L100.0 89.3 75.9 89.3 75.9 60.15 100.0 60.15 M100.0 123.55 L100.0 152.7 75.9 152.7 75.9 123.55 100.0 123.55 M100.0 181.85 L100.0 216.0 75.9 216.0 75.9 181.85 100.0 181.85 M26.9 -219.25 L26.9 -246.55 53.9 -246.55 53.9 -219.25 26.9 -219.25 M53.9 -188.1 L53.9 -158.95 26.9 -158.95 26.9 -188.1 53.9 -188.1 M26.9 -124.7 L53.9 -124.7 53.9 -95.55 26.9 -95.55 26.9 -124.7 M26.9 -66.4 L53.9 -66.4 53.9 -32.2 26.9 -32.2 26.9 -66.4 M26.9 1.7 L50.0 1.7 50.0 1.75 52.75 1.75 52.8 1.7 53.9 1.7 53.9 29.0 26.9 29.0 26.9 1.7 M26.9 89.3 L26.9 60.15 53.9 60.15 53.9 89.3 26.9 89.3 M26.9 181.85 L53.9 181.85 53.9 216.0 26.9 216.0 26.9 181.85 M53.9 152.7 L26.9 152.7 26.9 123.55 53.9 123.55 53.9 152.7" fill="#76219a" fill-rule="evenodd" stroke="none"/>
    <path d="M0.0 -284.8 L26.9 -284.8 26.9 -246.55 0.0 -246.55 0.0 -284.8 M75.9 249.95 L53.9 249.95 53.9 248.75 56.15 246.35 53.9 248.65 53.9 216.0 75.9 216.0 75.9 249.95 M26.9 249.95 L0.0 249.95 0.0 216.0 26.9 216.0 26.9 249.95 M0.0 181.85 L0.0 152.7 26.9 152.7 26.9 181.85 0.0 181.85 M0.0 123.55 L0.0 89.3 26.9 89.3 26.9 123.55 0.0 123.55 M0.0 60.15 L0.0 29.0 26.9 29.0 26.9 60.15 0.0 60.15 M0.0 1.7 L0.0 -32.2 26.9 -32.2 26.9 1.7 0.0 1.7 M0.0 -66.4 L0.0 -95.55 26.9 -95.55 26.9 -66.4 0.0 -66.4 M0.0 -124.7 L0.0 -158.95 26.9 -158.95 26.9 -124.7 0.0 -124.7 M0.0 -188.1 L0.0 -219.25 26.9 -219.25 26.9 -188.1 0.0 -188.1 M53.9 -284.8 L75.9 -284.8 75.9 -246.55 53.9 -246.55 53.9 -284.8 M53.9 -219.25 L75.9 -219.25 75.9 -188.1 53.9 -188.1 53.9 -219.25 M53.9 -158.95 L75.9 -158.95 75.9 -124.7 53.9 -124.7 53.9 -158.95 M53.9 -95.55 L75.9 -95.55 75.9 -66.4 53.9 -66.4 53.9 -95.55 M53.9 -32.2 L75.9 -32.2 75.9 1.7 53.9 1.7 53.9 -32.2 M53.9 29.0 L75.9 29.0 75.9 60.15 53.9 60.15 53.9 29.0 M53.9 89.3 L75.9 89.3 75.9 123.55 53.9 123.55 53.9 89.3 M53.9 181.85 L53.9 152.7 75.9 152.7 75.9 181.85 53.9 181.85" fill="#171717" fill-rule="evenodd" stroke="none"/>
    <path d="M53.9 249.95 L52.8 249.95 53.9 248.75 53.9 249.95" fill="#cb3929" fill-rule="evenodd" stroke="none"/>
  </g>
</svg>
