<?xml version="1.0" encoding="UTF-8" standalone="no"?>
<svg xmlns:ffdec="https://www.free-decompiler.com/flash" xmlns:xlink="http://www.w3.org/1999/xlink" ffdec:objectType="shape" height="100.65px" width="69.7px" xmlns="http://www.w3.org/2000/svg">
  <g transform="matrix(1.0, 0.0, 0.0, 1.0, 30.75, 112.15)">
    <path d="M7.25 -81.4 L21.7 -87.1 21.95 -86.1 7.55 -80.45 11.25 -76.7 22.25 -81.1 22.25 -84.95 23.25 -81.2 23.25 -81.1 23.3 -81.1 23.6 -79.85 23.25 -80.0 23.25 -76.25 24.7 -75.65 25.05 -74.4 23.25 -75.15 23.25 -72.5 25.8 -71.45 26.15 -70.2 23.25 -71.4 23.25 -69.0 25.6 -68.05 26.5 -68.9 26.75 -67.85 26.3 -67.4 27.3 -65.05 27.5 -65.05 27.75 -64.05 27.3 -64.05 26.35 -61.65 27.4 -60.6 27.55 -60.35 27.75 -60.25 28.05 -59.95 28.05 -60.0 28.2 -60.2 28.25 -60.4 28.5 -61.05 28.9 -59.5 28.8 -59.2 29.05 -58.95 29.55 -57.05 28.1 -58.5 23.25 -56.45 23.25 -53.8 29.7 -56.5 29.95 -55.5 23.25 -52.7 23.25 -48.85 30.85 -52.05 31.1 -51.1 23.25 -47.75 23.25 -44.0 23.2 -43.75 23.25 -43.5 23.25 -42.65 27.1 -44.25 27.35 -44.3 27.55 -44.45 32.25 -46.4 32.5 -45.45 27.95 -43.55 27.7 -43.5 27.5 -43.35 23.05 -41.5 23.0 -41.45 19.65 -39.9 34.4 -34.4 34.85 -36.15 35.35 -34.2 35.25 -33.8 35.7 -32.7 36.95 -27.6 34.6 -32.85 31.2 -29.15 31.05 -29.05 35.85 -18.45 35.9 -18.3 38.9 -18.35 38.95 -17.7 38.95 -17.35 35.95 -17.3 34.9 -14.55 33.75 -14.3 34.85 -17.25 31.0 -17.15 29.65 -13.5 28.5 -13.35 29.95 -17.1 27.25 -17.05 25.7 -12.9 23.55 -12.55 22.2 -13.8 19.85 -12.7 19.85 -12.55 19.9 -12.0 18.9 -11.9 18.85 -12.5 18.85 -12.65 18.75 -12.7 18.5 -12.9 18.25 -12.9 16.45 -13.65 14.8 -11.85 15.3 -11.65 13.25 -11.6 13.4 -11.75 11.25 -16.6 8.55 -16.5 10.75 -11.5 9.7 -11.5 7.5 -16.45 3.65 -16.35 5.85 -11.5 4.75 -11.5 2.6 -16.3 1.95 -16.3 1.7 -16.35 1.45 -16.3 -2.65 -16.15 -0.6 -11.6 -1.7 -11.65 -3.5 -15.65 -6.35 -12.0 -7.55 -12.1 -4.0 -16.6 -10.25 -23.15 -26.7 -20.95 -27.1 -15.35 -28.15 -15.6 -27.7 -21.15 -30.75 -23.5 -30.55 -24.6 -27.45 -22.25 -26.1 -27.15 -26.25 -27.25 -29.45 -29.8 -29.25 -30.9 -25.8 -28.15 -24.8 -31.8 -24.75 -31.95 Q-24.85 -31.95 -24.95 -32.05 L-28.4 -34.75 -28.2 -35.85 -24.5 -32.95 -23.8 -35.35 -23.75 -35.55 Q-23.85 -35.55 -23.95 -35.65 L-27.65 -38.55 -27.25 -40.3 -25.4 -41.4 -25.7 -43.95 -26.45 -44.15 -26.25 -45.1 -25.45 -44.9 -23.9 -46.95 -25.1 -49.05 -25.55 -48.45 -25.05 -50.9 -24.8 -50.45 -19.6 -51.05 -19.55 -51.15 -18.9 -53.6 -24.6 -53.0 -24.35 -54.0 -18.6 -54.65 -17.65 -58.15 -17.6 -58.25 -17.65 -58.25 -23.6 -57.6 -23.4 -58.65 -17.3 -59.3 -17.25 -59.4 -17.15 -59.85 -17.0 -60.1 -17.0 -60.35 -15.95 -64.55 -22.3 -63.75 -22.05 -64.8 -15.95 -65.55 -15.6 -67.1 -21.1 -69.4 -20.85 -70.4 -15.5 -68.15 -15.5 -73.25 -19.85 -75.1 -19.65 -76.1 -15.6 -74.4 -15.5 -74.35 -15.5 -78.2 -18.85 -79.6 -18.65 -80.6 -15.5 -79.3 -15.5 -81.95 -18.1 -83.05 -17.9 -84.0 -15.5 -83.05 -15.5 -85.45 -17.4 -86.25 -16.85 -88.85 -16.2 -89.55 -16.75 -89.55 -16.55 -90.55 -16.2 -90.55 -16.5 -90.85 -16.25 -92.0 -15.5 -91.25 -15.5 -93.4 -16.0 -93.2 -15.8 -94.35 -15.5 -94.45 -15.5 -96.1 -14.5 -101.75 -7.0 -98.7 -4.3 -101.35 -13.9 -105.25 -13.75 -106.3 -3.55 -102.15 -0.35 -105.35 -0.15 -104.2 -2.85 -101.4 1.75 -90.55 6.65 -90.55 6.85 -90.35 8.05 -89.2 7.25 -81.4 M-2.85 -78.6 L0.8 -74.95 6.9 -89.55 1.75 -89.55 -2.85 -78.6 M12.2 -76.0 L12.05 -75.95 14.7 -73.25 22.25 -76.25 22.25 -80.0 12.2 -76.0 M10.55 -76.05 L6.85 -79.75 0.95 -65.05 6.1 -65.05 10.55 -76.05 M12.1 -65.05 L14.75 -65.05 16.7 -69.9 14.8 -71.8 12.1 -65.05 M22.25 -71.4 L18.2 -69.8 19.95 -68.05 22.25 -68.95 22.25 -71.4 M15.5 -72.5 L17.4 -70.6 22.25 -72.5 22.25 -75.15 15.5 -72.5 M6.75 -86.7 L1.45 -73.95 1.4 -73.9 1.4 -73.85 0.95 -67.75 6.15 -80.75 6.75 -86.7 M14.85 -57.25 L16.75 -59.15 16.6 -59.6 16.6 -59.85 16.4 -60.05 14.75 -64.05 12.1 -64.05 13.55 -60.45 13.6 -60.2 13.75 -60.0 14.85 -57.25 M19.35 -64.05 L19.95 -62.45 21.55 -64.05 19.35 -64.05 M21.55 -65.05 L20.0 -66.6 19.35 -65.05 21.55 -65.05 M19.15 -61.65 L18.25 -64.05 15.85 -64.05 17.35 -60.4 17.35 -60.15 17.5 -59.95 17.8 -60.2 18.0 -60.35 18.15 -60.6 19.15 -61.65 M22.25 -53.8 L22.25 -56.45 17.45 -58.45 15.55 -56.6 22.25 -53.8 M22.25 -57.55 L22.25 -59.8 22.3 -59.95 19.9 -60.95 18.9 -59.9 18.65 -59.75 18.55 -59.55 18.2 -59.2 22.25 -57.55 M0.4 -62.6 L-0.1 -60.15 -0.2 -59.9 -0.2 -59.65 -1.15 -54.55 -1.15 -54.5 0.85 -38.9 0.95 -39.05 1.15 -39.25 1.2 -39.5 3.45 -43.75 3.65 -43.95 3.7 -44.2 6.05 -48.6 1.65 -59.55 1.6 -59.85 1.45 -60.05 1.4 -60.1 0.4 -62.6 M11.4 -53.8 L14.1 -56.5 12.85 -59.55 12.85 -59.6 12.8 -59.85 12.65 -60.05 11.05 -64.05 7.2 -64.05 8.7 -60.4 8.7 -60.15 8.85 -59.95 11.4 -53.8 M2.4 -60.45 L2.4 -60.4 2.4 -60.15 2.6 -59.9 6.9 -49.3 10.5 -52.95 10.65 -53.05 7.95 -59.55 7.95 -59.85 7.75 -60.05 6.1 -64.05 0.9 -64.05 2.4 -60.45 M7.2 -65.05 L11.0 -65.05 14.0 -72.6 11.35 -75.25 7.2 -65.05 M19.2 -67.4 L17.5 -69.1 15.85 -65.05 18.25 -65.05 19.2 -67.4 M22.25 -47.75 L11.3 -52.35 11.2 -52.25 7.65 -48.7 17.9 -44.45 18.1 -44.3 18.35 -44.25 22.25 -42.65 22.25 -43.5 22.35 -43.75 22.25 -44.0 22.25 -47.75 M22.25 -52.7 L14.75 -55.8 12.1 -53.1 22.25 -48.85 22.25 -52.7 M3.6 -32.75 L7.45 -29.15 7.6 -29.25 18.05 -33.75 18.3 -33.8 18.25 -33.95 18.05 -39.2 3.6 -32.75 M2.1 -29.9 L1.9 -29.7 1.9 -29.45 -2.6 -17.15 1.4 -17.3 1.65 -17.25 1.85 -17.3 2.55 -17.3 2.8 -17.9 2.95 -18.15 3.0 -18.4 6.7 -28.4 2.85 -32.05 2.1 -29.9 M-9.3 -23.7 L-3.55 -17.6 0.95 -29.8 1.1 -30.05 1.15 -30.25 2.05 -32.9 1.2 -34.75 1.15 -35.0 0.95 -35.2 0.45 -36.3 -9.3 -23.7 M4.95 -44.0 L5.0 -44.1 5.15 -44.8 4.6 -43.75 4.4 -43.55 4.35 -43.3 2.1 -39.05 1.9 -38.85 1.85 -38.6 1.1 -37.25 1.85 -35.65 1.9 -35.45 2.1 -35.2 2.5 -34.4 4.85 -43.6 4.85 -43.65 5.0 -43.85 4.95 -44.0 M17.95 -43.35 L17.75 -43.5 17.5 -43.55 6.95 -47.9 5.95 -43.85 5.8 -43.6 5.8 -43.35 3.35 -33.75 17.65 -40.1 17.9 -40.15 18.1 -40.3 21.5 -41.85 17.95 -43.35 M27.0 -26.15 L27.1 -26.3 29.6 -28.95 19.3 -32.75 19.4 -29.0 27.0 -26.15 M34.85 -18.3 L30.35 -28.25 27.85 -25.6 27.7 -25.5 30.85 -18.45 30.9 -18.15 34.85 -18.3 M30.35 -29.7 L30.45 -29.8 33.85 -33.5 22.7 -37.65 22.6 -37.7 19.05 -39.0 19.25 -34.0 19.25 -33.85 30.35 -29.7 M20.65 -61.7 L22.25 -61.05 22.25 -63.35 20.65 -61.7 M23.25 -61.05 L24.9 -61.7 23.25 -63.35 23.25 -61.05 M23.25 -59.95 L23.25 -59.8 23.25 -57.55 27.35 -59.25 27.05 -59.55 26.95 -59.75 26.7 -59.9 25.65 -60.95 23.25 -59.95 M23.95 -65.05 L26.2 -65.05 25.55 -66.6 23.95 -65.05 M23.95 -64.05 L25.55 -62.45 26.2 -64.05 23.95 -64.05 M22.25 -67.9 L20.7 -67.3 22.25 -65.75 22.25 -67.9 M24.8 -67.3 L23.3 -67.85 23.25 -67.9 23.25 -65.75 24.8 -67.3 M18.3 -32.75 L8.2 -28.45 11.0 -25.8 11.15 -25.9 18.25 -28.9 18.4 -28.95 18.3 -32.75 M13.8 -21.7 L12.5 -18.05 12.3 -17.85 12.3 -17.6 14.55 -17.65 14.7 -17.6 14.85 -17.9 15.0 -18.1 15.0 -18.4 15.65 -20.1 Q15.55 -20.15 15.55 -20.15 L13.8 -21.7 M19.6 -21.75 L21.95 -20.9 23.6 -22.7 19.55 -24.15 19.6 -21.75 M16.2 -20.9 L16.3 -20.75 18.6 -21.7 18.55 -24.15 14.5 -22.4 16.2 -20.9 M18.65 -20.65 L17.1 -20.0 18.6 -18.6 18.7 -18.45 18.65 -20.65 M3.95 -18.05 L3.75 -17.85 3.75 -17.6 3.65 -17.35 7.5 -17.5 7.65 -17.95 7.8 -18.1 7.8 -18.4 10.25 -25.1 7.5 -27.65 3.95 -18.05 M24.2 -23.55 L24.35 -23.45 26.2 -25.4 19.45 -27.9 19.5 -25.4 19.45 -25.2 19.7 -25.15 24.2 -23.55 M11.75 -25.05 L13.75 -23.15 18.55 -25.2 18.5 -25.4 18.45 -27.9 11.75 -25.05 M11.55 -18.4 L13.05 -22.45 11.05 -24.35 8.75 -18.05 8.6 -17.85 8.55 -17.55 8.55 -17.5 11.2 -17.6 11.35 -17.85 11.5 -18.15 11.55 -18.4 M18.05 -17.75 L17.9 -17.85 16.4 -19.3 15.95 -18.05 15.8 -17.85 15.8 -17.7 18.05 -17.75 M14.1 -12.55 L15.75 -14.35 14.75 -16.65 14.55 -16.65 12.3 -16.6 14.1 -12.55 M16.45 -15.2 L16.45 -15.15 18.05 -16.75 15.8 -16.7 16.45 -15.2 M27.05 -18.45 L27.1 -18.2 27.25 -18.05 29.9 -18.15 26.95 -24.7 25.1 -22.8 27.05 -18.45 M22.7 -17.9 L22.6 -18.0 21.95 -19.45 20.45 -17.9 20.4 -17.8 22.7 -17.9 M22.1 -15.3 L22.7 -16.9 20.45 -16.85 22.1 -15.3 M24.65 -12.9 L26.15 -17.0 23.9 -16.95 23.8 -16.95 22.9 -14.55 24.65 -12.9 M26.2 -18.0 L26.15 -18.05 24.4 -22.0 22.7 -20.25 23.5 -18.45 23.55 -18.2 23.7 -18.0 23.75 -17.9 23.9 -17.95 26.2 -18.0 M19.65 -20.7 L19.7 -18.5 19.75 -18.6 21.2 -20.1 19.65 -20.7 M19.8 -16.05 L19.85 -13.8 21.45 -14.5 19.8 -16.05 M17.2 -14.45 L18.65 -13.85 18.85 -13.7 18.8 -16.05 17.2 -14.45 M-12.7 -112.15 L-0.55 -107.15 -0.45 -106.0 -12.9 -111.1 -12.7 -112.15 M-14.5 -78.2 L-14.5 -74.35 -4.3 -78.65 -7.0 -81.35 -14.5 -78.2 M-14.5 -85.45 L-14.5 -83.05 -10.4 -84.75 -12.1 -86.45 -14.5 -85.45 M-14.5 -79.3 L-7.75 -82.1 -9.65 -84.0 -14.45 -82.0 -14.5 -81.95 -14.5 -79.3 M-10.45 -89.55 L-11.4 -87.15 -9.7 -85.45 -8.05 -89.55 -10.45 -89.55 M-12.2 -87.95 L-11.55 -89.55 -13.8 -89.55 -12.2 -87.95 M-12.85 -87.2 L-14.5 -88.85 -14.5 -86.55 -12.85 -87.2 M-14.5 -91.25 L-12.95 -92.8 -14.5 -93.4 -14.5 -91.25 M-13.8 -90.55 L-11.55 -90.55 -12.2 -92.1 -13.8 -90.55 M-15.5 -88.85 L-17.15 -87.2 -15.5 -86.55 -15.5 -88.85 M-14.5 -96.9 L-14.5 -94.5 -12.15 -93.55 -10.45 -95.25 -14.5 -96.9 M-7.05 -82.8 L-4.3 -89.55 -6.95 -89.55 -8.95 -84.7 -7.05 -82.8 M-3.2 -90.55 L0.65 -90.55 -3.6 -100.7 -6.3 -97.95 -3.2 -90.55 M-4.25 -90.55 L-7.05 -97.2 -8.95 -95.35 -6.95 -90.55 -4.25 -90.55 M-8.05 -90.55 L-9.75 -94.55 -11.45 -92.85 -10.45 -90.55 -8.05 -90.55 M-9.65 -96.05 L-7.8 -97.9 -14.5 -100.65 -14.5 -98.0 -9.65 -96.05 M-3.6 -79.35 L0.65 -89.55 -3.2 -89.55 -6.3 -82.05 -3.6 -79.35 M0.1 -74.25 L-3.55 -77.9 -14.5 -73.25 -14.5 -68.15 0.1 -74.25 M-14.55 -67.05 L-14.95 -65.4 -0.25 -65.05 0.35 -73.3 -14.55 -67.05 M-9.4 -59.85 L-15.05 -64.05 -16.05 -60.1 -16.2 -59.85 -16.2 -59.6 -16.3 -59.15 -16.35 -59.05 -7.0 -51.95 -2.4 -54.6 -9.0 -59.55 -9.15 -59.75 Q-9.3 -59.75 -9.4 -59.85 M-22.85 -35.3 L-22.85 -35.1 -23.55 -32.75 -16.3 -33.75 -17.65 -36.05 -22.85 -35.3 M-14.4 -41.9 L-14.95 -46.25 -17.05 -45.05 -16.75 -42.5 -14.4 -41.9 M-16.8 -36.55 L-15.5 -34.2 -11.05 -39.95 -13.6 -40.7 -16.8 -36.55 M-14.65 -40.95 L-17.0 -41.55 -18.5 -39.5 -17.35 -37.5 -14.65 -40.95 M-18.0 -41.85 L-20.2 -42.45 -19.05 -40.45 -18.0 -41.85 M-18.95 -49.75 L-19.6 -47.4 -17.55 -45.9 -15.45 -47.1 -18.95 -49.75 M-18.5 -45.4 L-19.85 -46.35 -20.45 -44.25 -18.5 -45.4 M-18.0 -44.55 L-19.95 -43.4 -17.8 -42.8 -18.0 -44.55 M-10.8 -40.9 L-11.7 -48.1 -14.0 -46.8 -13.35 -41.65 -10.8 -40.9 M-14.95 -33.3 L-13.05 -29.95 -6.25 -38.65 -10.0 -39.7 -14.95 -33.3 M-9.75 -40.6 L-6.0 -39.6 -7.45 -50.55 -10.75 -48.65 -9.75 -40.6 M-20.5 -47.65 L-19.9 -50.0 -24.25 -49.5 -23.0 -47.4 -20.5 -47.65 M-2.05 -53.65 L-6.5 -51.1 -4.95 -39.35 -0.05 -37.95 -2.05 -53.65 M-13.8 -64.35 L-8.8 -60.65 -8.6 -60.45 -8.4 -60.35 -2.0 -55.5 -1.2 -59.8 -1.05 -60.05 -1.05 -60.1 -1.1 -60.35 -0.35 -64.05 -13.8 -64.35 M-11.25 -49.5 L-7.95 -51.4 -16.65 -58.0 -17.65 -54.4 -11.25 -49.5 M-14.5 -47.65 L-12.2 -48.95 -17.95 -53.35 -18.6 -50.9 -18.65 -50.8 -14.5 -47.65 M-13.9 -29.5 L-15.8 -32.8 -23.85 -31.7 -23.85 -31.5 -24.85 -27.95 -13.9 -29.5 M-25.15 -26.9 L-26.5 -22.0 -10.8 -24.1 -13.35 -28.55 -25.15 -26.9 M-21.1 -42.0 L-21.7 -39.7 -19.9 -39.95 -21.1 -42.0 M-24.45 -41.95 L-22.5 -43.05 -24.65 -43.65 -24.45 -41.95 M-24.05 -41.05 L-22.6 -39.95 -22.0 -42.25 -24.05 -41.05 M-24.8 -40.4 L-24.95 -40.55 -27.0 -39.35 -23.5 -36.6 -22.9 -38.95 -23.05 -39.05 -24.8 -40.4 M-20.8 -46.6 L-22.5 -46.45 -21.4 -44.5 -20.8 -46.6 M-23.35 -46.0 L-24.4 -44.6 -22.25 -44.05 -23.35 -46.0 M-12.5 -29.05 L-9.95 -24.55 -0.25 -37.0 -5.2 -38.35 -12.5 -29.05 M-21.95 -38.7 L-22.55 -36.35 -18.2 -37.0 -19.35 -39.0 -21.95 -38.7" fill="#b4b4b4" fill-rule="evenodd" stroke="none"/>
  </g>
</svg>
