<?xml version="1.0" encoding="UTF-8" standalone="no"?>
<svg xmlns:ffdec="https://www.free-decompiler.com/flash" xmlns:xlink="http://www.w3.org/1999/xlink" ffdec:objectType="shape" height="48.05px" width="53.0px" xmlns="http://www.w3.org/2000/svg">
  <g transform="matrix(1.0, 0.0, 0.0, 1.0, 29.25, 32.95)">
    <path d="M5.35 -5.5 Q6.3 -5.5 7.0 -5.9 7.65 -6.3 7.65 -6.9 10.05 -6.75 12.25 -7.7 14.4 -8.65 14.8 -10.2 15.15 -11.8 13.5 -13.05 11.9 -14.3 8.95 -14.55 L9.05 -15.85 Q12.5 -15.5 14.45 -13.7 16.45 -11.9 16.05 -9.65 L15.7 -8.65 14.65 -7.2 13.0 -6.05 Q10.35 -4.65 7.4 -4.9 L3.65 -4.2 0.75 -3.9 -7.7 -4.0 -12.15 15.1 -12.15 11.2 -9.75 1.4 -9.55 -0.15 -9.0 -4.8 0.5 -5.25 5.15 -5.45 5.35 -5.5 M-21.6 5.3 L-21.25 4.2 -20.75 2.65 -20.65 2.45 -21.6 5.3 M-20.25 1.15 L-20.25 1.1 -19.95 0.2 -20.25 1.15" fill="#25282c" fill-rule="evenodd" stroke="none"/>
    <path d="M7.4 -4.9 Q10.35 -4.65 13.0 -6.05 L14.65 -7.2 14.9 -6.95 Q17.5 -4.25 17.5 -1.55 17.5 -0.3 13.95 3.2 L12.6 4.6 9.95 5.8 11.35 2.7 Q12.5 0.2 12.5 -1.1 12.5 -2.15 10.9 -3.3 9.35 -4.45 7.4 -4.9 M-5.2 -0.1 L-5.35 0.05 -3.55 4.1 -9.95 12.45 -11.0 13.8 -9.85 9.9 -8.25 4.9 -7.85 1.95 Q-7.6 0.05 -6.5 -0.35 L-5.1 -0.25 -5.2 -0.1 M-23.1 7.55 L-21.0 -8.2 Q-20.9 -11.15 -22.95 -11.4 L-25.9 -6.7 Q-25.7 -9.95 -25.95 -11.35 -26.15 -12.55 -22.8 -13.9 L-19.5 -12.3 -17.8 -11.6 -20.25 -3.4 -20.45 -2.65 -20.5 -2.45 -20.55 -2.15 -23.0 7.7 -23.25 8.7 -23.2 8.4 -23.05 7.5 -23.1 7.55" fill="#616b76" fill-rule="evenodd" stroke="none"/>
    <path d="M-23.2 8.4 L-23.25 8.25 -23.1 7.55 -23.05 7.5 -23.2 8.4" fill="#353940" fill-rule="evenodd" stroke="none"/>
    <path d="M9.05 -15.85 L9.2 -17.5 Q14.9 -16.15 17.9 -13.15 21.2 -9.9 22.05 -5.6 22.9 -1.35 19.35 0.9 L16.8 2.45 13.15 4.3 12.55 4.6 12.6 4.6 13.95 3.2 Q17.5 -0.3 17.5 -1.55 17.5 -4.25 14.9 -6.95 L14.65 -7.2 15.7 -8.65 16.05 -9.65 Q16.45 -11.9 14.45 -13.7 12.5 -15.5 9.05 -15.85 M-10.55 -17.85 L-10.25 -16.35 -13.3 -15.7 -14.35 -15.35 -16.95 -14.15 -17.0 -14.1 -17.0 -14.05 -17.05 -14.05 -17.05 -14.0 -17.8 -11.6 -19.5 -12.3 -22.8 -13.9 -22.15 -14.15 -21.55 -14.4 -21.45 -14.45 -19.5 -15.1 -13.3 -17.05 -10.55 -17.85" fill="#515962" fill-rule="evenodd" stroke="none"/>
    <path d="M-12.15 15.1 L-7.7 -4.0 0.75 -3.9 3.65 -4.2 7.4 -4.9 Q9.35 -4.45 10.9 -3.3 12.5 -2.15 12.5 -1.1 12.5 0.2 11.35 2.7 L9.95 5.8 3.9 8.75 3.1 8.4 Q2.45 3.8 0.45 -0.3 -0.8 -2.15 -2.45 -2.15 -3.4 -2.15 -5.2 -0.1 L-5.1 -0.25 -6.5 -0.35 Q-7.6 0.05 -7.85 1.95 L-8.25 4.9 -9.85 9.9 -11.0 13.8 -9.95 12.45 -10.6 13.3 -11.0 13.8 -12.15 15.1" fill="#737e8a" fill-rule="evenodd" stroke="none"/>
    <path d="M7.65 -6.9 Q8.5 -10.9 8.95 -14.55 11.9 -14.3 13.5 -13.05 15.15 -11.8 14.8 -10.2 14.4 -8.65 12.25 -7.7 10.05 -6.75 7.65 -6.9 M-10.25 -15.3 Q-10.1 -14.0 -11.0 -11.25 L-12.1 -8.55 Q-12.35 -8.45 -12.2 -8.2 L-13.15 -5.75 -13.3 -5.65 Q-15.8 -4.25 -18.1 -1.0 -20.4 2.25 -21.35 4.75 L-21.35 4.8 -21.95 6.45 -22.0 6.5 -21.6 5.3 -20.65 2.45 -20.25 1.15 -19.95 0.2 -19.9 0.15 -19.75 -0.3 -18.85 -3.4 -18.8 -3.55 -18.2 -6.05 -17.45 -10.05 Q-17.15 -11.4 -16.25 -12.6 -15.7 -13.4 -13.3 -14.3 L-10.25 -15.3 M-27.65 -2.8 L-21.95 -9.45 Q-21.95 -4.75 -27.65 -2.8 M0.3 2.25 Q0.65 3.0 0.8 4.1 L-5.15 8.4 -2.3 4.5 -4.05 0.55 Q-3.1 -0.55 -2.1 -0.55 L-1.2 0.1 -0.45 0.95 Q0.0 1.5 0.3 2.25" fill="#40474f" fill-rule="evenodd" stroke="none"/>
    <path d="M9.2 -17.5 L9.3 -19.6 Q16.65 -17.4 20.0 -13.6 23.75 -9.35 23.75 -1.8 23.75 0.3 14.5 4.9 8.3 7.95 4.2 10.2 L3.65 10.5 1.8 10.0 1.4 6.0 -10.6 13.3 -9.95 12.45 -3.55 4.1 -5.35 0.05 -5.2 -0.1 Q-3.4 -2.15 -2.45 -2.15 -0.8 -2.15 0.45 -0.3 2.45 3.8 3.1 8.4 L3.9 8.75 9.95 5.8 12.6 4.6 12.55 4.6 13.15 4.3 16.8 2.45 19.35 0.9 Q22.9 -1.35 22.05 -5.6 21.2 -9.9 17.9 -13.15 14.9 -16.15 9.2 -17.5 M-10.8 -19.15 L-10.55 -17.85 -13.3 -17.05 -19.5 -15.1 -21.45 -14.45 -21.55 -14.4 -22.15 -14.15 -22.8 -13.9 Q-26.15 -12.55 -25.95 -11.35 -25.7 -9.95 -25.9 -6.7 L-22.95 -11.4 Q-20.9 -11.15 -21.0 -8.2 L-23.1 7.55 -23.25 8.25 -23.2 8.4 -23.25 8.7 -23.0 7.7 -23.15 8.45 -23.0 8.65 Q-22.6 8.25 -21.9 6.35 L-21.35 4.8 -21.35 4.75 Q-20.4 2.25 -18.1 -1.0 -15.8 -4.25 -13.3 -5.65 L-13.15 -5.75 -14.35 -2.55 Q-16.05 -1.2 -17.8 1.5 L-19.75 4.55 -23.4 11.85 -24.2 11.65 -24.05 -3.0 -28.55 -0.4 -29.25 -1.75 Q-27.35 -4.45 -27.3 -6.95 -27.25 -8.6 -27.65 -11.05 -27.5 -12.95 -24.45 -14.55 L-19.5 -16.55 -15.75 -17.75 -10.8 -19.15 M-27.65 -2.8 Q-21.95 -4.75 -21.95 -9.45 L-27.65 -2.8 M0.3 2.25 Q0.0 1.5 -0.45 0.95 L-1.2 0.1 -2.1 -0.55 Q-3.1 -0.55 -4.05 0.55 L-2.3 4.5 -5.15 8.4 0.8 4.1 Q0.65 3.0 0.3 2.25" fill="#2d333a" fill-rule="evenodd" stroke="none"/>
    <path d="M-10.25 -16.35 L-10.25 -15.3 -13.3 -14.3 Q-15.7 -13.4 -16.25 -12.6 -17.15 -11.4 -17.45 -10.05 L-18.2 -6.05 -18.8 -3.55 -18.85 -3.4 -19.75 -0.3 -19.9 0.15 -19.95 0.2 -20.25 1.1 -20.25 1.15 -20.65 2.45 -20.75 2.65 -21.25 4.2 -21.6 5.3 -22.0 6.5 -21.95 6.45 -21.35 4.8 -21.9 6.35 Q-22.6 8.25 -23.0 8.65 L-23.15 8.45 -23.0 7.7 -20.55 -2.15 -20.5 -2.45 -20.45 -2.65 -20.25 -3.4 -17.8 -11.6 -17.05 -14.0 -17.05 -14.05 -17.0 -14.05 -17.0 -14.1 -16.95 -14.15 -14.35 -15.35 -13.3 -15.7 -10.25 -16.35" fill="#333941" fill-rule="evenodd" stroke="none"/>
    <path d="M5.35 -5.5 L8.15 -29.15 4.85 -30.2 1.4 -30.9 -2.25 -30.5 -11.5 -27.3 Q-8.9 -21.45 -8.2 -15.9 -8.3 -11.85 -10.5 -6.75 L-10.55 -6.6 Q-11.8 -3.75 -13.7 -0.5 L-14.5 -2.2 -14.35 -2.55 -13.15 -5.75 -12.2 -8.2 Q-12.35 -8.45 -12.1 -8.55 L-11.0 -11.25 Q-10.1 -14.0 -10.25 -15.3 L-10.25 -16.35 -10.55 -17.85 -10.8 -19.15 -11.85 -23.25 -13.15 -25.8 Q-13.9 -27.1 -13.9 -27.65 -13.9 -29.5 -7.05 -31.35 -1.1 -32.95 1.9 -32.95 6.75 -32.95 8.35 -31.35 9.75 -29.95 9.75 -25.8 L9.3 -19.6 9.2 -17.5 9.05 -15.85 8.95 -14.55 Q8.5 -10.9 7.65 -6.9 7.65 -6.3 7.0 -5.9 6.3 -5.5 5.35 -5.5" fill="#a46637" fill-rule="evenodd" stroke="none"/>
    <path d="M-8.2 -15.9 Q-8.9 -21.45 -11.5 -27.3 L-2.25 -30.5 1.4 -30.9 4.85 -30.2 8.15 -29.15 5.35 -5.5 5.15 -5.45 0.5 -5.25 0.55 -5.65 0.75 -6.7 0.9 -7.85 1.05 -8.55 1.25 -9.45 1.4 -10.5 0.0 -11.85 Q-4.8 -16.25 -8.2 -15.9" fill="#e7a867" fill-rule="evenodd" stroke="none"/>
    <path d="M-13.7 -0.5 Q-11.8 -3.75 -10.55 -6.6 L-10.5 -6.75 Q-8.3 -11.85 -8.2 -15.9 -4.8 -16.25 0.0 -11.85 L1.4 -10.5 1.25 -9.45 1.05 -8.55 0.9 -7.85 0.75 -6.7 0.55 -5.65 0.5 -5.25 -9.0 -4.8 -9.55 -0.15 -9.75 1.4 Q-11.8 1.4 -13.7 -0.5" fill="#f4bb83" fill-rule="evenodd" stroke="none"/>
  </g>
</svg>
