<?xml version="1.0" encoding="UTF-8" standalone="no"?>
<svg xmlns:ffdec="https://www.free-decompiler.com/flash" xmlns:xlink="http://www.w3.org/1999/xlink" ffdec:objectType="shape" height="52.7px" width="51.25px" xmlns="http://www.w3.org/2000/svg">
  <g transform="matrix(1.0, 0.0, 0.0, 1.0, 29.1, 136.15)">
    <path d="M4.95 -112.9 L5.05 -112.75 5.2 -111.25 Q5.2 -106.75 3.1 -103.85 1.45 -101.5 -0.15 -101.5 -0.7 -101.5 -1.05 -101.85 -1.45 -102.25 -1.45 -102.95 -1.45 -104.9 0.9 -109.0 3.25 -113.05 4.2 -113.05 L4.95 -112.9 M-14.0 -87.05 L-4.2 -87.85 Q-2.65 -88.1 3.0 -91.65 L8.5 -95.1 9.1 -94.95 9.1 -94.6 Q9.2 -93.05 6.9 -89.95 4.5 -86.75 2.8 -86.45 3.1 -85.45 2.6 -84.65 L2.55 -84.55 -3.25 -83.5 -3.25 -83.45 -15.25 -83.45 -14.9 -84.95 -14.4 -87.0 -15.0 -86.9 -14.1 -87.05 -14.0 -87.05" fill="#ffffff" fill-rule="evenodd" stroke="none"/>
    <path d="M8.7 -113.25 L7.9 -113.3 7.8 -112.55 Q7.8 -110.45 9.4 -109.0 L9.25 -106.05 9.0 -106.15 8.95 -106.1 9.1 -105.45 Q7.55 -98.6 -2.45 -98.6 L-11.3 -99.0 -10.3 -101.85 -9.35 -102.2 Q-5.8 -103.5 -5.15 -104.3 -1.4 -109.1 1.15 -116.15 3.0 -121.25 4.25 -121.25 5.25 -121.25 7.0 -117.7 8.1 -115.5 8.7 -113.25 M4.95 -112.9 L4.2 -113.05 Q3.25 -113.05 0.9 -109.0 -1.45 -104.9 -1.45 -102.95 -1.45 -102.25 -1.05 -101.85 -0.7 -101.5 -0.15 -101.5 1.45 -101.5 3.1 -103.85 5.2 -106.75 5.2 -111.25 L5.05 -112.75 4.95 -112.9 M-14.0 -87.05 L-13.65 -88.0 -13.1 -89.55 -3.25 -90.7 Q-1.75 -90.85 4.9 -95.6 L11.3 -100.35 11.9 -100.2 11.85 -100.05 11.9 -98.8 Q11.6 -99.4 11.2 -99.4 10.8 -99.4 10.5 -98.75 10.2 -98.1 10.2 -97.15 10.2 -96.2 10.5 -95.55 10.8 -94.9 11.2 -94.9 11.6 -94.9 11.9 -95.55 L12.0 -95.75 12.15 -94.75 Q12.0 -92.6 9.3 -86.6 L9.15 -86.2 2.55 -84.55 2.6 -84.65 Q3.1 -85.45 2.8 -86.45 4.5 -86.75 6.9 -89.95 9.2 -93.05 9.1 -94.6 L9.1 -94.95 8.5 -95.1 3.0 -91.65 Q-2.65 -88.1 -4.2 -87.85 L-14.0 -87.05 M-2.2 -92.65 L-9.95 -92.0 -13.2 -92.15 -12.7 -94.4 -9.7 -94.25 -6.3 -94.85 -2.55 -95.5 Q-1.85 -95.5 -1.5 -95.15 L-0.8 -93.85 Q-1.45 -92.9 -2.2 -92.65" fill="#e0e0e0" fill-rule="evenodd" stroke="none"/>
    <path d="M-6.45 -114.8 L2.85 -126.0 Q4.4 -127.95 5.1 -129.55 7.8 -126.35 11.3 -111.5 13.55 -102.0 15.15 -92.4 15.15 -91.0 14.0 -87.95 11.75 -86.9 9.3 -86.25 L9.15 -86.2 9.3 -86.6 Q12.0 -92.6 12.15 -94.75 L12.0 -95.75 12.2 -97.15 11.9 -98.75 11.9 -98.8 11.85 -100.05 11.9 -100.2 11.3 -100.35 4.9 -95.6 Q-1.75 -90.85 -3.25 -90.7 L-13.1 -89.55 -13.65 -88.0 -14.0 -87.05 -14.1 -87.05 -15.0 -86.9 -14.4 -87.0 -14.9 -84.95 -15.25 -83.45 -17.25 -83.45 -17.25 -83.55 -16.75 -85.2 -16.4 -86.3 -15.75 -88.55 -15.55 -89.15 -14.8 -92.1 -14.75 -92.35 -14.2 -94.35 -10.2 -106.2 -9.4 -108.0 -6.45 -114.8 M8.7 -113.25 Q8.1 -115.5 7.0 -117.7 5.25 -121.25 4.25 -121.25 3.0 -121.25 1.15 -116.15 -1.4 -109.1 -5.15 -104.3 -5.8 -103.5 -9.35 -102.2 L-10.3 -101.85 -11.3 -99.0 -2.45 -98.6 Q7.55 -98.6 9.1 -105.45 L9.65 -103.3 Q9.95 -102.55 10.6 -101.9 L11.25 -102.5 11.8 -102.9 12.0 -103.65 Q12.0 -104.95 9.25 -106.05 L9.4 -109.0 9.6 -108.8 9.7 -108.65 Q9.7 -110.35 8.7 -113.25 M12.05 -92.4 Q11.7 -92.35 11.55 -91.8 L11.45 -91.25 Q11.5 -89.0 11.95 -88.25 L12.0 -88.45 12.7 -88.3 13.4 -87.95 Q13.45 -90.1 13.1 -90.9 L12.05 -92.4 M-25.35 -86.45 L-24.85 -88.15 Q-23.25 -93.45 -18.7 -101.5 -15.05 -107.95 -10.9 -114.05 L-11.05 -112.85 Q-11.6 -110.2 -12.75 -106.8 L-13.8 -103.7 -13.7 -102.75 -12.75 -102.45 -12.55 -102.55 -14.05 -98.25 -17.15 -98.25 -17.45 -97.65 -17.7 -97.7 -17.35 -98.95 -17.4 -99.35 -17.55 -99.5 Q-18.95 -98.05 -19.3 -97.05 -18.05 -96.4 -14.75 -96.25 L-15.2 -94.85 -15.3 -94.55 -15.8 -92.65 -19.95 -93.0 -20.85 -93.15 -21.1 -92.55 Q-21.1 -91.0 -16.45 -90.35 L-16.7 -89.55 -16.85 -88.9 -18.05 -85.45 -18.35 -84.65 -18.75 -83.45 -19.9 -83.45 -20.9 -84.0 -25.35 -86.45 M-2.2 -92.65 Q-1.45 -92.9 -0.8 -93.85 L-1.5 -95.15 Q-1.85 -95.5 -2.55 -95.5 L-6.3 -94.85 -9.7 -94.25 -12.7 -94.4 -13.2 -92.15 -9.95 -92.0 -2.2 -92.65 M-8.55 -98.35 L-11.6 -98.2 -11.8 -97.1 Q-11.8 -96.3 -12.1 -95.4 L-12.95 -95.35 Q-6.85 -95.5 -5.45 -97.6 -5.75 -97.9 -6.75 -98.1 L-8.55 -98.35" fill="#b4b4b4" fill-rule="evenodd" stroke="none"/>
    <path d="M5.1 -129.55 L5.45 -130.7 5.5 -131.3 Q5.5 -132.4 5.0 -133.2 L5.8 -132.65 Q7.25 -131.3 8.6 -129.05 L10.45 -125.9 12.95 -121.2 Q14.55 -117.9 15.8 -114.4 18.6 -106.9 19.95 -98.55 L20.75 -92.5 18.65 -90.85 14.0 -87.95 Q15.15 -91.0 15.15 -92.4 13.55 -102.0 11.3 -111.5 7.8 -126.35 5.1 -129.55 M-27.75 -87.75 L-27.15 -89.65 Q-25.9 -93.6 -23.5 -98.1 L-12.05 -120.2 -11.55 -121.2 -10.05 -124.3 -7.3 -130.0 -6.35 -131.5 -6.75 -130.7 Q-10.7 -123.95 -8.55 -114.15 L-12.55 -102.55 -12.75 -102.45 -13.7 -102.75 -13.8 -103.7 -12.75 -106.8 Q-11.6 -110.2 -11.05 -112.85 L-10.9 -114.05 Q-15.05 -107.95 -18.7 -101.5 -23.25 -93.45 -24.85 -88.15 L-25.35 -86.45 -27.75 -87.75 M-7.75 -113.45 L-7.4 -113.7 -6.45 -114.8 -9.4 -108.0 -10.2 -106.2 -7.75 -113.45 M9.4 -109.0 Q7.8 -110.45 7.8 -112.55 L7.9 -113.3 8.7 -113.25 Q9.7 -110.35 9.7 -108.65 L9.6 -108.8 9.4 -109.0 M9.1 -105.45 L8.95 -106.1 9.0 -106.15 9.25 -106.05 Q12.0 -104.95 12.0 -103.65 L11.8 -102.9 11.25 -102.5 10.6 -101.9 Q9.95 -102.55 9.65 -103.3 L9.1 -105.45 M12.0 -95.75 L11.9 -95.55 Q11.6 -94.9 11.2 -94.9 10.8 -94.9 10.5 -95.55 10.2 -96.2 10.2 -97.15 10.2 -98.1 10.5 -98.75 10.8 -99.4 11.2 -99.4 11.6 -99.4 11.9 -98.8 L11.9 -98.75 12.2 -97.15 12.0 -95.75 M12.05 -92.4 L13.1 -90.9 Q13.45 -90.1 13.4 -87.95 L12.7 -88.3 12.0 -88.45 11.95 -88.25 Q11.5 -89.0 11.45 -91.25 L11.55 -91.8 Q11.7 -92.35 12.05 -92.4 M-14.75 -96.25 Q-18.05 -96.4 -19.3 -97.05 -18.95 -98.05 -17.55 -99.5 L-17.4 -99.35 -17.35 -98.95 -17.7 -97.7 -17.45 -97.65 -17.15 -98.25 -14.05 -98.25 -14.75 -96.25 M-8.55 -98.35 L-6.75 -98.1 Q-5.75 -97.9 -5.45 -97.6 -6.85 -95.5 -12.95 -95.35 L-12.1 -95.4 Q-11.8 -96.3 -11.8 -97.1 L-11.6 -98.2 -8.55 -98.35 M-15.8 -92.65 L-16.45 -90.35 Q-21.1 -91.0 -21.1 -92.55 L-20.85 -93.15 -19.95 -93.0 -15.8 -92.65" fill="#8a8a8a" fill-rule="evenodd" stroke="none"/>
    <path d="M-8.55 -114.15 L-8.5 -113.8 -8.3 -113.5 -7.85 -113.45 -7.75 -113.45 -10.2 -106.2 -14.2 -94.35 -14.75 -92.35 -14.8 -92.1 -15.55 -89.15 -15.75 -88.55 -16.4 -86.3 -16.75 -85.2 -17.25 -83.55 -17.25 -83.45 -18.75 -83.45 -18.35 -84.65 -18.05 -85.45 -16.85 -88.9 -16.7 -89.55 -16.45 -90.35 -15.8 -92.65 -15.3 -94.55 -15.2 -94.85 -14.75 -96.25 -14.05 -98.25 -12.55 -102.55 -8.55 -114.15" fill="#616161" fill-rule="evenodd" stroke="none"/>
    <path d="M20.75 -92.5 L19.95 -98.55 Q18.6 -106.9 15.8 -114.4 14.55 -117.9 12.95 -121.2 L10.45 -125.9 8.6 -129.05 Q7.25 -131.3 5.8 -132.65 L5.0 -133.2 Q5.5 -132.4 5.5 -131.3 L5.45 -130.7 5.1 -129.55 Q4.4 -127.95 2.85 -126.0 L-6.45 -114.8 -7.4 -113.7 -7.75 -113.45 -7.85 -113.45 -8.3 -113.5 -8.5 -113.8 -8.55 -114.15 Q-10.7 -123.95 -6.75 -130.7 L-6.35 -131.5 -7.3 -130.0 -10.05 -124.3 -11.55 -121.2 -12.05 -120.2 -23.5 -98.1 Q-25.9 -93.6 -27.15 -89.65 L-27.75 -87.75 -29.1 -88.45 -28.45 -90.55 Q-27.15 -94.45 -24.85 -98.8 L-13.25 -121.2 -10.25 -127.25 -8.75 -130.5 Q-6.85 -134.7 -1.85 -135.8 L-0.35 -136.05 Q5.85 -136.85 10.15 -129.55 14.4 -122.3 14.6 -121.2 20.55 -108.55 22.15 -93.65 L20.75 -92.5 M2.45 -133.85 L0.75 -134.45 Q-0.75 -134.7 -2.2 -134.0 -3.35 -133.45 -4.45 -132.3 L-5.35 -130.7 Q-9.0 -124.9 -7.7 -116.65 L-7.5 -115.4 -6.85 -116.15 -4.2 -119.3 1.9 -126.7 Q3.55 -128.75 4.15 -130.35 L4.25 -130.7 4.25 -131.3 Q4.15 -132.95 2.45 -133.85" fill="#464646" fill-rule="evenodd" stroke="none"/>
  </g>
</svg>
