<?xml version="1.0" encoding="UTF-8" standalone="no"?>
<svg xmlns:ffdec="https://www.free-decompiler.com/flash" xmlns:xlink="http://www.w3.org/1999/xlink" ffdec:objectType="shape" height="52.95px" width="50.75px" xmlns="http://www.w3.org/2000/svg">
  <g transform="matrix(1.0, 0.0, 0.0, 1.0, 19.6, 136.65)">
    <path d="M-3.7 -121.5 L-2.45 -121.65 Q-3.55 -120.9 -3.55 -120.35 L-3.6 -120.05 -3.75 -121.0 -3.7 -121.5 M1.75 -121.0 Q1.75 -119.9 0.95 -119.1 0.15 -118.3 -1.0 -118.3 -2.15 -118.3 -2.95 -119.1 L-3.55 -119.95 -2.85 -120.0 1.6 -121.9 1.75 -121.0 M5.45 -111.9 Q5.45 -110.55 2.25 -107.3 -1.85 -103.15 -6.85 -102.3 L-7.0 -102.7 -7.2 -103.65 Q-7.2 -105.2 -3.75 -108.85 0.2 -112.95 3.45 -112.95 L5.1 -112.85 5.3 -112.65 5.45 -111.9 M-4.65 -83.7 L-1.9 -86.75 Q6.5 -94.75 7.7 -96.2 L8.55 -96.05 Q7.25 -90.2 2.9 -84.0 L2.7 -83.7 -4.65 -83.7" fill="#ffffff" fill-rule="evenodd" stroke="none"/>
    <path d="M-5.9 -122.5 L-5.5 -122.15 Q-4.8 -121.55 -3.7 -121.5 L-3.75 -121.0 -3.6 -120.05 -3.55 -120.35 Q-3.55 -120.9 -2.45 -121.65 L-2.0 -121.75 Q-0.55 -122.15 0.8 -123.05 L1.05 -123.25 Q2.5 -124.3 3.8 -126.0 4.9 -123.45 4.9 -118.7 4.9 -117.25 1.75 -116.55 L-4.15 -116.0 -6.9 -116.15 -6.95 -117.25 Q-6.95 -120.0 -5.9 -122.5 M1.75 -121.0 L1.6 -121.9 -2.85 -120.0 -3.55 -119.95 -2.95 -119.1 Q-2.15 -118.3 -1.0 -118.3 0.15 -118.3 0.95 -119.1 1.75 -119.9 1.75 -121.0 M5.45 -111.9 L5.3 -112.65 5.1 -112.85 3.45 -112.95 Q0.2 -112.95 -3.75 -108.85 -7.2 -105.2 -7.2 -103.65 L-7.0 -102.7 -6.85 -102.3 Q-1.85 -103.15 2.25 -107.3 5.45 -110.55 5.45 -111.9 M-8.65 -83.7 Q-8.35 -86.65 -7.7 -88.5 -6.3 -92.5 -1.3 -98.35 L-9.45 -98.7 Q-10.3 -99.4 -10.3 -106.1 -10.3 -108.45 -8.95 -109.85 -7.5 -111.35 -4.0 -112.35 -0.5 -113.35 4.9 -116.0 5.85 -116.0 6.8 -113.4 7.7 -110.9 7.7 -108.45 7.7 -105.3 4.65 -101.15 1.55 -96.95 1.55 -95.55 1.55 -94.55 2.05 -95.0 3.95 -95.1 7.95 -99.7 L10.2 -102.35 10.6 -101.9 11.25 -102.5 11.8 -102.9 12.0 -103.65 11.8 -104.35 12.45 -105.2 12.6 -104.8 11.7 -99.1 11.2 -99.4 Q10.8 -99.4 10.5 -98.75 10.2 -98.1 10.2 -97.15 10.2 -96.2 10.5 -95.55 10.65 -95.2 10.9 -95.0 L10.75 -94.5 Q9.7 -89.75 9.3 -88.9 L9.2 -89.0 9.55 -89.7 9.3 -89.75 9.15 -89.65 9.1 -88.95 Q9.1 -87.65 9.7 -84.35 L4.8 -83.7 2.7 -83.7 2.9 -84.0 Q7.25 -90.2 8.55 -96.05 L7.7 -96.2 Q6.5 -94.75 -1.9 -86.75 L-4.65 -83.7 -8.65 -83.7 M24.75 -87.65 L22.3 -86.85 21.0 -90.35 Q19.2 -95.6 19.3 -97.05 L20.2 -98.1 Q21.7 -96.9 23.3 -92.7 24.45 -89.65 24.75 -87.65" fill="#e0e0e0" fill-rule="evenodd" stroke="none"/>
    <path d="M5.35 -128.65 L6.6 -126.35 Q8.05 -122.65 10.4 -106.7 10.45 -107.2 11.75 -109.5 13.25 -112.15 14.25 -112.95 L14.65 -112.6 14.7 -112.7 14.7 -112.05 13.6 -100.45 12.65 -91.55 12.05 -92.4 Q11.7 -92.35 11.55 -91.8 L11.45 -91.25 Q11.5 -89.0 11.95 -88.25 L12.0 -88.45 12.6 -88.35 12.85 -87.2 13.3 -88.0 13.4 -87.95 13.4 -88.25 13.8 -89.25 Q14.75 -91.7 15.35 -95.75 15.15 -99.1 15.25 -101.45 15.35 -105.95 17.5 -105.95 20.85 -105.95 25.25 -94.2 L27.15 -88.9 24.75 -87.65 Q24.45 -89.65 23.3 -92.7 21.7 -96.9 20.2 -98.1 L19.3 -97.05 Q19.2 -95.6 21.0 -90.35 L22.3 -86.85 22.1 -86.8 18.55 -85.9 17.55 -89.9 Q16.6 -88.35 15.7 -85.3 L13.9 -84.95 13.1 -85.35 12.5 -85.25 12.55 -84.75 9.7 -84.35 Q9.1 -87.65 9.1 -88.95 L9.15 -89.65 9.3 -89.75 9.55 -89.7 9.2 -89.0 9.3 -88.9 Q9.7 -89.75 10.75 -94.5 L10.9 -95.0 Q11.0 -94.9 11.2 -94.9 11.6 -94.9 11.9 -95.55 L12.2 -97.15 11.9 -98.75 11.7 -99.1 12.6 -104.8 12.45 -105.2 11.8 -104.35 Q11.2 -105.3 9.0 -106.15 L8.95 -106.1 9.65 -103.3 10.2 -102.35 7.95 -99.7 Q3.95 -95.1 2.05 -95.0 1.55 -94.55 1.55 -95.55 1.55 -96.95 4.65 -101.15 7.7 -105.3 7.7 -108.45 7.7 -110.9 6.8 -113.4 5.85 -116.0 4.9 -116.0 -0.5 -113.35 -4.0 -112.35 -7.5 -111.35 -8.95 -109.85 -10.3 -108.45 -10.3 -106.1 -10.3 -99.4 -9.45 -98.7 L-1.3 -98.35 Q-6.3 -92.5 -7.7 -88.5 -8.35 -86.65 -8.65 -83.7 L-9.3 -83.7 Q-11.95 -84.25 -14.4 -85.15 L-14.4 -86.25 -14.45 -92.4 Q-14.45 -94.3 -13.35 -94.65 L-8.35 -94.5 -7.05 -95.0 -10.45 -97.35 Q-12.55 -98.75 -12.55 -99.4 -12.55 -103.85 -11.9 -107.55 -10.95 -112.95 -8.9 -113.75 L-10.2 -116.95 Q-9.4 -122.7 -7.05 -126.4 L-7.0 -125.6 Q-6.85 -123.55 -5.9 -122.5 -6.95 -120.0 -6.95 -117.25 L-6.9 -116.15 -4.15 -116.0 1.75 -116.55 Q4.9 -117.25 4.9 -118.7 4.9 -123.45 3.8 -126.0 L4.75 -127.45 5.35 -128.65 M7.9 -113.3 L7.8 -112.55 Q7.8 -110.3 9.6 -108.8 L9.7 -108.65 Q9.7 -110.35 8.7 -113.25 L7.9 -113.3" fill="#b4b4b4" fill-rule="evenodd" stroke="none"/>
    <path d="M5.35 -128.65 Q6.1 -130.4 5.7 -131.7 5.45 -133.0 4.25 -133.85 5.4 -133.25 6.25 -132.3 L7.1 -131.15 Q9.2 -127.9 10.1 -125.85 L11.65 -123.1 14.95 -117.45 Q19.15 -110.25 25.7 -99.6 28.4 -95.15 30.0 -91.2 28.75 -89.9 27.15 -88.9 L25.25 -94.2 Q20.85 -105.95 17.5 -105.95 15.35 -105.95 15.25 -101.45 15.15 -99.1 15.35 -95.75 14.75 -91.7 13.8 -89.25 L13.4 -88.25 13.4 -87.95 13.3 -88.0 12.85 -87.2 12.6 -88.35 12.0 -88.45 11.95 -88.25 Q11.5 -89.0 11.45 -91.25 L11.55 -91.8 Q11.7 -92.35 12.05 -92.4 L12.65 -91.55 13.6 -100.45 14.7 -112.05 14.7 -112.7 14.65 -112.6 14.25 -112.95 Q13.25 -112.15 11.75 -109.5 10.45 -107.2 10.4 -106.7 8.05 -122.65 6.6 -126.35 L5.35 -128.65 M-18.1 -86.95 L-18.1 -89.35 -18.05 -90.65 Q-17.6 -106.9 -11.9 -120.9 L-10.7 -123.7 -9.65 -126.0 -7.85 -130.0 -7.75 -130.2 Q-6.05 -133.95 -2.8 -134.9 L-4.55 -133.45 Q-7.2 -130.6 -7.05 -126.4 -9.4 -122.7 -10.2 -116.95 L-8.9 -113.75 Q-10.95 -112.95 -11.9 -107.55 -12.55 -103.85 -12.55 -99.4 -12.55 -98.75 -10.45 -97.35 L-7.05 -95.0 -8.35 -94.5 -13.35 -94.65 Q-14.45 -94.3 -14.45 -92.4 L-14.4 -86.25 -14.4 -85.15 -18.1 -86.95 M7.9 -113.3 L8.7 -113.25 Q9.7 -110.35 9.7 -108.65 L9.6 -108.8 Q7.8 -110.3 7.8 -112.55 L7.9 -113.3 M10.9 -95.0 Q10.65 -95.2 10.5 -95.55 10.2 -96.2 10.2 -97.15 10.2 -98.1 10.5 -98.75 10.8 -99.4 11.2 -99.4 L11.7 -99.1 11.9 -98.75 12.2 -97.15 11.9 -95.55 Q11.6 -94.9 11.2 -94.9 11.0 -94.9 10.9 -95.0 M11.8 -104.35 L12.0 -103.65 11.8 -102.9 11.25 -102.5 10.6 -101.9 10.2 -102.35 9.65 -103.3 8.95 -106.1 9.0 -106.15 Q11.2 -105.3 11.8 -104.35 M18.55 -85.9 L15.7 -85.3 Q16.6 -88.35 17.55 -89.9 L18.55 -85.9 M13.9 -84.95 L12.55 -84.75 12.5 -85.25 13.1 -85.35 13.9 -84.95" fill="#8a8a8a" fill-rule="evenodd" stroke="none"/>
    <path d="M30.0 -91.2 Q28.4 -95.15 25.7 -99.6 19.15 -110.25 14.95 -117.45 L11.65 -123.1 10.1 -125.85 Q9.2 -127.9 7.1 -131.15 L6.25 -132.3 Q5.4 -133.25 4.25 -133.85 5.45 -133.0 5.7 -131.7 6.1 -130.4 5.35 -128.65 L4.75 -127.45 3.8 -126.0 Q2.5 -124.3 1.05 -123.25 L0.8 -123.05 Q-0.55 -122.15 -2.0 -121.75 L-2.45 -121.65 -3.7 -121.5 Q-4.8 -121.55 -5.5 -122.15 L-5.9 -122.5 Q-6.85 -123.55 -7.0 -125.6 L-7.05 -126.4 Q-7.2 -130.6 -4.55 -133.45 L-2.8 -134.9 Q-6.05 -133.95 -7.75 -130.2 L-7.85 -130.0 -9.65 -126.0 -10.7 -123.7 -11.9 -120.9 Q-17.6 -106.9 -18.05 -90.65 L-18.1 -89.35 -18.1 -86.95 -19.6 -87.8 -19.6 -89.35 Q-19.35 -108.35 -12.05 -124.3 L-8.6 -131.35 Q-5.5 -137.55 0.5 -136.5 6.45 -135.5 8.7 -131.7 L9.55 -130.25 11.8 -125.85 12.55 -124.55 Q17.2 -116.35 27.05 -100.35 29.55 -96.25 31.15 -92.55 L30.0 -91.2 M4.5 -131.4 Q4.1 -132.7 2.4 -133.5 -1.25 -135.25 -3.6 -132.6 -5.3 -130.7 -5.7 -128.25 -5.9 -127.05 -5.75 -125.7 L-5.3 -123.85 -4.75 -123.15 Q-4.1 -122.7 -3.0 -122.8 L-2.35 -122.95 Q-1.45 -123.2 -0.6 -123.65 1.45 -124.8 3.1 -127.15 L3.7 -128.1 3.65 -128.1 4.35 -129.7 4.5 -131.4" fill="#464646" fill-rule="evenodd" stroke="none"/>
  </g>
</svg>
