<?xml version="1.0" encoding="UTF-8" standalone="no"?>
<svg xmlns:ffdec="https://www.free-decompiler.com/flash" xmlns:xlink="http://www.w3.org/1999/xlink" ffdec:objectType="shape" height="88.7px" width="127.4px" xmlns="http://www.w3.org/2000/svg">
  <g transform="matrix(1.0, 0.0, 0.0, 1.0, 0.4, 93.3)">
    <path d="M37.1 -29.4 L37.15 -29.4 37.15 -29.35 37.1 -29.4 M32.05 -16.1 L32.1 -16.1 32.1 -16.05 32.05 -16.1 M112.15 -29.4 L112.2 -29.4 112.2 -29.35 112.15 -29.4 M107.15 -16.05 L107.1 -16.1 107.15 -16.1 107.15 -16.05" fill="#e7a87e" fill-rule="evenodd" stroke="none"/>
    <path d="M77.3 -77.1 L117.9 -77.1 114.6 -65.45 6.35 -65.45 9.7 -77.1 49.5 -77.1 50.15 -75.35 50.65 -74.45 Q51.4 -73.1 52.5 -71.7 56.55 -66.75 60.25 -66.55 64.05 -66.75 71.0 -71.7 L74.55 -74.45 75.55 -75.35 77.3 -77.1 M1.2 -62.35 L5.4 -77.1 8.65 -77.1 5.25 -65.05 5.25 -64.75 5.4 -64.55 5.7 -64.45 114.95 -64.45 115.25 -64.55 115.45 -64.8 118.95 -77.1 121.45 -77.1 117.25 -62.35 1.2 -62.35" fill="#f6f6f6" fill-rule="evenodd" stroke="none"/>
    <path d="M117.85 -61.25 L115.4 -58.5 3.55 -58.5 1.0 -61.35 94.5 -61.25 95.3 -61.25 96.0 -61.25 98.15 -61.25 98.3 -61.25 99.8 -61.25 103.3 -61.25 105.1 -61.25 107.25 -61.25 108.35 -61.25 113.95 -61.25 117.85 -61.25 M26.6 -20.95 Q28.4 -22.95 29.4 -24.85 L29.9 -24.85 30.05 -24.85 Q32.95 -24.9 35.0 -25.8 L35.2 -22.05 35.2 -21.65 Q33.05 -20.65 30.05 -20.6 L29.9 -20.6 26.6 -20.95 M29.75 -25.55 L30.25 -26.8 Q32.15 -26.85 33.6 -27.35 L33.85 -27.45 Q35.0 -27.9 35.3 -28.5 L35.7 -28.95 Q36.05 -29.65 35.9 -30.3 L35.65 -30.9 37.1 -29.4 37.15 -29.35 37.25 -28.85 37.25 -28.55 37.15 -28.35 Q36.95 -27.75 36.2 -27.2 35.85 -26.9 35.35 -26.7 L35.3 -26.7 35.2 -26.65 Q33.05 -25.6 30.05 -25.55 L29.9 -25.55 29.75 -25.55 M26.05 -27.4 L25.45 -26.25 24.6 -26.65 24.55 -26.65 24.4 -26.7 23.6 -27.15 22.6 -28.2 22.55 -28.8 22.55 -28.85 Q22.6 -30.15 24.55 -31.1 L24.15 -30.3 Q24.0 -29.6 24.35 -28.95 L24.4 -28.85 Q24.45 -28.05 25.9 -27.45 L26.05 -27.4 M17.8 -6.3 L17.85 -9.0 17.8 -11.45 Q20.15 -10.6 23.25 -10.6 L23.45 -10.6 Q26.95 -10.65 29.5 -11.75 L29.7 -7.15 29.7 -6.7 Q27.1 -5.45 23.45 -5.4 L23.25 -5.4 Q20.2 -5.4 17.8 -6.3 M101.65 -20.95 Q103.45 -22.95 104.45 -24.85 L104.95 -24.85 105.1 -24.85 Q108.0 -24.9 110.05 -25.8 L110.25 -22.05 110.25 -21.65 Q108.1 -20.65 105.1 -20.6 L104.95 -20.6 101.65 -20.95 M104.8 -25.55 L105.3 -26.8 108.65 -27.35 108.9 -27.45 Q110.05 -27.9 110.35 -28.5 L110.75 -28.95 Q111.1 -29.65 110.95 -30.3 L110.7 -30.9 Q111.85 -30.2 112.15 -29.4 L112.2 -29.35 112.3 -28.85 112.3 -28.55 112.2 -28.35 Q112.0 -27.75 111.25 -27.2 L110.4 -26.7 110.35 -26.7 110.25 -26.65 Q108.1 -25.6 105.1 -25.55 L104.95 -25.55 104.8 -25.55 M99.6 -31.1 L99.2 -30.3 Q99.05 -29.6 99.4 -28.95 L99.45 -28.85 Q99.5 -28.05 100.95 -27.45 L101.1 -27.4 100.5 -26.25 99.65 -26.65 99.6 -26.65 99.45 -26.7 Q99.0 -26.9 98.65 -27.15 98.05 -27.6 97.65 -28.2 L97.6 -28.8 97.6 -28.85 Q97.65 -30.15 99.6 -31.1 M92.85 -11.45 Q95.2 -10.6 98.3 -10.6 L98.5 -10.6 Q102.0 -10.65 104.55 -11.75 L104.75 -7.15 104.75 -6.7 Q102.15 -5.45 98.5 -5.4 L98.3 -5.4 Q95.25 -5.4 92.85 -6.3 L92.9 -9.0 92.85 -11.45" fill="#a3a3a3" fill-rule="evenodd" stroke="none"/>
    <path d="M30.25 -26.8 L30.6 -28.3 30.85 -30.2 33.45 -28.4 34.7 -28.2 35.3 -28.5 Q35.0 -27.9 33.85 -27.45 L33.6 -27.35 Q32.15 -26.85 30.25 -26.8 M26.4 -28.25 L26.05 -27.4 25.9 -27.45 Q24.45 -28.05 24.4 -28.85 24.75 -28.35 25.4 -28.2 L26.4 -28.25 M25.05 -25.7 L23.25 -23.5 22.6 -24.15 22.55 -26.9 22.55 -27.25 23.1 -26.75 23.6 -26.4 24.1 -26.15 24.4 -26.0 25.05 -25.7 M37.1 -27.15 L37.25 -27.25 37.25 -23.95 Q37.25 -23.25 36.85 -22.95 L36.85 -22.9 35.9 -22.1 35.55 -21.9 35.5 -21.9 35.2 -21.65 35.2 -22.05 35.0 -25.8 35.05 -25.8 35.05 -25.85 35.1 -25.85 35.2 -25.9 35.4 -26.0 35.65 -26.15 35.6 -26.15 36.25 -26.45 37.1 -27.15 M14.3 -13.5 L14.95 -12.9 15.55 -12.45 16.2 -12.15 16.55 -11.95 17.8 -11.45 17.85 -9.0 17.8 -6.3 16.8 -6.7 16.3 -6.95 Q14.6 -7.85 14.35 -9.05 L14.35 -9.1 14.3 -13.1 14.3 -13.5 M29.5 -11.75 L29.55 -11.75 29.55 -11.8 29.6 -11.8 29.7 -11.85 29.95 -11.95 30.25 -12.15 30.2 -12.15 31.0 -12.55 32.05 -13.4 32.2 -13.5 32.2 -9.45 Q32.2 -8.65 31.75 -8.25 L31.75 -8.2 30.55 -7.2 30.15 -6.95 30.1 -6.95 29.7 -6.7 29.7 -7.15 29.5 -11.75 M105.3 -26.8 L105.65 -28.3 105.9 -30.2 108.5 -28.4 Q109.1 -28.0 109.75 -28.2 110.05 -28.25 110.35 -28.5 110.05 -27.9 108.9 -27.45 L108.65 -27.35 105.3 -26.8 M99.45 -28.85 Q99.8 -28.35 100.45 -28.2 L101.45 -28.25 101.1 -27.4 100.95 -27.45 Q99.5 -28.05 99.45 -28.85 M112.15 -27.15 L112.3 -27.25 112.3 -23.95 Q112.3 -23.25 111.9 -22.95 L111.9 -22.9 110.95 -22.1 110.6 -21.9 110.55 -21.9 110.25 -21.65 110.25 -22.05 110.05 -25.8 110.1 -25.8 110.1 -25.85 110.15 -25.85 110.25 -25.9 110.45 -26.0 110.7 -26.15 110.65 -26.15 111.3 -26.45 112.15 -27.15 M97.65 -24.15 L97.6 -26.9 97.6 -27.25 98.15 -26.75 98.65 -26.4 99.15 -26.15 99.45 -26.0 100.1 -25.7 98.3 -23.5 97.65 -24.15 M89.35 -13.5 L90.0 -12.9 90.6 -12.45 91.25 -12.15 91.6 -11.95 92.85 -11.45 92.9 -9.0 92.85 -6.3 Q92.35 -6.45 91.85 -6.7 L91.35 -6.95 Q89.65 -7.85 89.4 -9.05 L89.4 -9.1 89.35 -13.1 89.35 -13.5 M104.55 -11.75 L104.6 -11.75 104.6 -11.8 104.65 -11.8 104.75 -11.85 105.0 -11.95 105.3 -12.15 105.25 -12.15 Q105.7 -12.3 106.05 -12.55 L107.1 -13.4 107.25 -13.5 107.25 -9.45 Q107.25 -8.65 106.8 -8.25 L106.8 -8.2 105.6 -7.2 105.2 -6.95 105.15 -6.95 104.75 -6.7 104.75 -7.15 104.55 -11.75" fill="#7b7b7b" fill-rule="evenodd" stroke="none"/>
    <path d="M17.8 -11.45 L16.55 -11.95 16.2 -12.15 15.55 -12.45 14.95 -12.9 14.3 -13.5 Q14.15 -14.25 14.35 -14.65 14.85 -13.9 15.6 -13.4 L16.55 -12.85 Q16.7 -12.75 16.75 -12.75 L16.8 -12.75 Q19.45 -11.45 23.25 -11.45 L23.45 -11.45 Q27.1 -11.5 29.7 -12.75 L29.85 -12.8 29.9 -12.85 30.95 -13.45 Q31.85 -14.1 32.1 -14.85 L32.1 -13.9 32.05 -13.4 31.0 -12.55 30.2 -12.15 30.25 -12.15 29.95 -11.95 29.7 -11.85 29.6 -11.8 29.55 -11.8 29.55 -11.75 29.5 -11.75 Q26.95 -10.65 23.45 -10.6 L23.25 -10.6 Q20.15 -10.6 17.8 -11.45 M89.4 -14.65 Q89.9 -13.9 90.65 -13.4 91.05 -13.1 91.6 -12.85 L91.8 -12.75 91.85 -12.75 Q94.5 -11.45 98.3 -11.45 L98.5 -11.45 Q102.15 -11.5 104.75 -12.75 L104.9 -12.8 104.95 -12.85 106.0 -13.45 Q106.9 -14.1 107.15 -14.85 L107.15 -13.9 107.1 -13.4 106.05 -12.55 Q105.7 -12.3 105.25 -12.15 L105.3 -12.15 105.0 -11.95 104.75 -11.85 104.65 -11.8 104.6 -11.8 104.6 -11.75 104.55 -11.75 Q102.0 -10.65 98.5 -10.6 L98.3 -10.6 Q95.2 -10.6 92.85 -11.45 L91.6 -11.95 91.25 -12.15 90.6 -12.45 90.0 -12.9 89.35 -13.5 Q89.2 -14.25 89.4 -14.65" fill="#ffffff" fill-rule="evenodd" stroke="none"/>
    <path d="M16.75 -18.2 L16.25 -17.25 Q16.05 -16.35 16.5 -15.55 L16.55 -15.45 Q16.6 -14.45 18.35 -13.75 L18.7 -13.65 Q20.6 -12.95 23.25 -12.95 L23.45 -12.95 Q25.95 -13.0 27.75 -13.65 L28.1 -13.75 28.05 -13.75 Q29.45 -14.3 29.85 -15.0 L30.3 -15.6 Q30.75 -16.4 30.55 -17.25 L30.25 -17.95 Q31.7 -17.1 32.05 -16.1 L32.1 -16.05 32.2 -15.45 32.2 -15.1 32.1 -14.85 Q31.85 -14.1 30.95 -13.45 L29.9 -12.85 29.85 -12.8 29.7 -12.75 Q27.1 -11.5 23.45 -11.45 L23.25 -11.45 Q19.45 -11.45 16.8 -12.75 L16.75 -12.75 Q16.7 -12.75 16.55 -12.85 L15.6 -13.4 Q14.85 -13.9 14.35 -14.65 L14.3 -15.4 14.3 -15.45 Q14.35 -17.05 16.75 -18.2 M23.2 -17.85 L23.35 -17.95 23.45 -17.85 23.2 -17.85 M91.8 -18.2 L91.3 -17.25 Q91.1 -16.35 91.55 -15.55 L91.6 -15.45 Q91.65 -14.45 93.4 -13.75 L93.75 -13.65 Q95.65 -12.95 98.3 -12.95 L98.5 -12.95 Q101.0 -13.0 102.8 -13.65 L103.15 -13.75 103.1 -13.75 Q104.5 -14.3 104.9 -15.0 L105.35 -15.6 Q105.8 -16.4 105.6 -17.25 L105.3 -17.95 Q106.75 -17.1 107.1 -16.1 L107.15 -16.05 107.25 -15.45 107.25 -15.1 107.15 -14.85 Q106.9 -14.1 106.0 -13.45 L104.95 -12.85 104.9 -12.8 104.75 -12.75 Q102.15 -11.5 98.5 -11.45 L98.3 -11.45 Q94.5 -11.45 91.85 -12.75 L91.8 -12.75 91.6 -12.85 Q91.05 -13.1 90.65 -13.4 89.9 -13.9 89.4 -14.65 L89.35 -15.4 89.35 -15.45 Q89.4 -17.05 91.8 -18.2 M98.25 -17.85 L98.4 -17.95 98.5 -17.85 98.25 -17.85" fill="#dedede" fill-rule="evenodd" stroke="none"/>
    <path d="M16.55 -15.45 Q17.0 -14.85 17.75 -14.65 18.55 -14.4 19.3 -14.9 21.45 -16.35 23.2 -17.85 L23.45 -17.85 27.6 -14.9 Q28.3 -14.4 29.1 -14.65 L29.85 -15.0 Q29.45 -14.3 28.05 -13.75 L28.1 -13.75 27.75 -13.65 Q25.95 -13.0 23.45 -12.95 L23.25 -12.95 Q20.6 -12.95 18.7 -13.65 L18.35 -13.75 Q16.6 -14.45 16.55 -15.45 M91.6 -15.45 L92.8 -14.65 Q93.6 -14.4 94.35 -14.9 L98.25 -17.85 98.5 -17.85 Q100.35 -16.4 102.65 -14.9 103.35 -14.4 104.15 -14.65 L104.9 -15.0 Q104.5 -14.3 103.1 -13.75 L103.15 -13.75 102.8 -13.65 Q101.0 -13.0 98.5 -12.95 L98.3 -12.95 Q95.65 -12.95 93.75 -13.65 L93.4 -13.75 Q91.65 -14.45 91.6 -15.45" fill="#bdbdbd" fill-rule="evenodd" stroke="none"/>
    <path d="M125.8 -92.3 L9.75 -92.3 5.4 -77.1 1.2 -62.35 1.0 -61.35 3.55 -58.5 1.95 -58.6 -0.4 -61.45 8.85 -93.3 127.0 -93.3 127.0 -88.5 118.85 -60.95 116.9 -58.6 115.4 -58.5 117.85 -61.25 126.0 -89.2 125.8 -92.3 M18.7 -19.65 L17.15 -18.6 16.75 -18.2 Q14.35 -17.05 14.3 -15.45 L14.3 -15.4 14.35 -14.65 Q14.15 -14.25 14.3 -13.5 L14.3 -13.1 14.35 -9.1 14.35 -9.05 Q14.6 -7.85 16.3 -6.95 L16.8 -6.7 17.8 -6.3 Q20.2 -5.4 23.25 -5.4 L23.45 -5.4 Q27.1 -5.45 29.7 -6.7 L30.1 -6.95 30.15 -6.95 30.55 -7.2 31.75 -8.2 31.75 -8.25 Q32.2 -8.65 32.2 -9.45 L32.2 -13.5 32.05 -13.4 32.1 -13.9 32.1 -14.85 32.2 -15.1 32.2 -15.45 32.1 -16.05 32.1 -16.1 32.05 -16.1 Q31.7 -17.1 30.25 -17.95 L29.65 -18.6 28.05 -19.65 30.0 -18.95 Q33.0 -17.55 32.95 -15.45 L32.9 -14.95 32.9 -9.45 Q32.9 -8.25 32.25 -7.6 L32.2 -7.6 30.95 -6.55 29.95 -5.95 28.2 -5.25 27.25 -5.05 23.45 -4.6 23.25 -4.6 23.15 -4.6 22.3 -4.6 21.45 -4.7 21.45 -4.65 20.85 -4.75 19.9 -4.95 Q18.1 -5.2 16.55 -5.95 13.95 -7.3 13.65 -8.7 L13.65 -16.15 Q14.05 -17.95 17.15 -19.2 L18.7 -19.65 M27.3 -20.2 L26.45 -20.8 26.6 -20.95 29.9 -20.6 30.05 -20.6 Q33.05 -20.65 35.2 -21.65 L35.5 -21.9 35.55 -21.9 35.9 -22.1 36.85 -22.9 36.85 -22.95 Q37.25 -23.25 37.25 -23.95 L37.25 -27.25 37.1 -27.15 37.15 -27.6 37.15 -28.35 37.25 -28.55 37.25 -28.85 37.15 -29.35 37.15 -29.4 37.1 -29.4 35.65 -30.9 35.15 -31.45 33.85 -32.3 35.45 -31.7 Q37.9 -30.55 37.85 -28.85 L37.8 -28.45 37.8 -23.95 Q37.8 -22.95 37.3 -22.4 L37.25 -22.4 36.2 -21.55 35.4 -21.05 33.95 -20.5 33.2 -20.3 30.05 -19.95 29.9 -19.95 29.8 -19.95 29.1 -19.95 28.4 -20.05 28.4 -20.0 27.95 -20.05 27.3 -20.2 M26.05 -32.25 L26.1 -32.25 24.9 -31.45 24.55 -31.1 Q22.6 -30.15 22.55 -28.85 L22.55 -28.8 22.6 -28.2 Q22.45 -27.85 22.55 -27.25 L22.55 -26.9 22.6 -24.15 22.0 -24.8 22.0 -29.4 Q22.35 -30.9 24.9 -31.9 L26.05 -32.25 M93.75 -19.65 L92.2 -18.6 91.8 -18.2 Q89.4 -17.05 89.35 -15.45 L89.35 -15.4 89.4 -14.65 Q89.2 -14.25 89.35 -13.5 L89.35 -13.1 89.4 -9.1 89.4 -9.05 Q89.65 -7.85 91.35 -6.95 L91.85 -6.7 Q92.35 -6.45 92.85 -6.3 95.25 -5.4 98.3 -5.4 L98.5 -5.4 Q102.15 -5.45 104.75 -6.7 L105.15 -6.95 105.2 -6.95 105.6 -7.2 106.8 -8.2 106.8 -8.25 Q107.25 -8.65 107.25 -9.45 L107.25 -13.5 107.1 -13.4 107.15 -13.9 107.15 -14.85 107.25 -15.1 107.25 -15.45 107.15 -16.05 107.15 -16.1 107.1 -16.1 Q106.75 -17.1 105.3 -17.95 L104.7 -18.6 103.1 -19.65 105.05 -18.95 Q108.05 -17.55 108.0 -15.45 L107.95 -14.95 107.95 -9.45 Q107.95 -8.25 107.3 -7.6 L107.25 -7.6 106.0 -6.55 105.0 -5.95 103.25 -5.25 102.3 -5.05 98.5 -4.6 98.3 -4.6 98.2 -4.6 97.35 -4.6 96.5 -4.7 96.5 -4.65 95.9 -4.75 94.95 -4.95 Q93.15 -5.2 91.6 -5.95 89.0 -7.3 88.7 -8.7 L88.7 -16.15 Q89.1 -17.95 92.2 -19.2 L93.75 -19.65 M102.35 -20.2 L101.5 -20.8 101.65 -20.95 104.95 -20.6 105.1 -20.6 Q108.1 -20.65 110.25 -21.65 L110.55 -21.9 110.6 -21.9 110.95 -22.1 111.9 -22.9 111.9 -22.95 Q112.3 -23.25 112.3 -23.95 L112.3 -27.25 112.15 -27.15 112.2 -27.6 112.2 -28.35 112.3 -28.55 112.3 -28.85 112.2 -29.35 112.2 -29.4 112.15 -29.4 Q111.85 -30.2 110.7 -30.9 L110.2 -31.45 108.9 -32.3 110.5 -31.7 Q112.95 -30.55 112.9 -28.85 L112.85 -28.45 112.85 -23.95 Q112.85 -22.95 112.35 -22.4 L112.3 -22.4 111.25 -21.55 110.45 -21.05 109.0 -20.5 108.25 -20.3 105.1 -19.95 104.95 -19.95 104.85 -19.95 104.15 -19.95 103.45 -20.05 103.45 -20.0 103.0 -20.05 102.35 -20.2 M101.15 -32.25 L99.95 -31.45 99.6 -31.1 Q97.65 -30.15 97.6 -28.85 L97.6 -28.8 97.65 -28.2 Q97.5 -27.85 97.6 -27.25 L97.6 -26.9 97.65 -24.15 97.05 -24.8 97.05 -29.4 Q97.4 -30.9 99.95 -31.9 L101.1 -32.25 101.15 -32.25" fill="#4a4a4a" fill-rule="evenodd" stroke="none"/>
    <path d="M15.45 -52.3 L16.6 -52.3 Q15.95 -51.1 15.6 -49.9 14.85 -47.75 15.2 -45.75 15.95 -41.35 21.65 -37.85 24.15 -36.3 25.6 -34.7 L26.95 -32.85 27.35 -32.05 27.6 -31.25 27.7 -30.25 27.7 -30.2 27.65 -29.1 27.05 -27.1 26.45 -25.95 26.05 -25.35 25.45 -24.45 25.0 -23.95 24.75 -23.2 Q24.75 -22.75 25.1 -22.45 L25.45 -22.2 25.8 -22.15 Q26.2 -22.15 26.5 -22.5 L28.25 -24.9 28.6 -25.6 29.15 -26.8 Q29.8 -28.55 29.75 -30.25 L29.75 -30.65 29.55 -31.75 29.35 -32.5 Q28.85 -34.05 27.7 -35.5 L24.75 -38.3 23.6 -39.15 22.65 -39.75 Q18.25 -42.45 17.4 -45.75 16.95 -47.45 17.5 -49.25 17.95 -50.75 19.0 -52.3 L20.25 -52.3 Q19.0 -50.55 18.45 -48.95 17.3 -44.45 22.7 -41.0 L23.25 -41.4 24.15 -42.1 Q26.3 -44.15 26.55 -46.4 26.7 -47.55 26.3 -48.8 L26.25 -48.9 24.2 -52.3 25.5 -52.3 26.7 -50.35 Q27.35 -49.1 27.6 -47.85 L27.7 -46.6 27.6 -45.75 27.4 -44.85 Q26.95 -43.6 25.95 -42.45 L25.1 -41.55 25.05 -41.5 24.75 -41.25 Q24.4 -41.0 24.35 -40.55 24.3 -40.1 24.55 -39.75 24.8 -39.35 25.2 -39.3 25.6 -39.25 25.95 -39.5 L26.05 -39.55 26.4 -39.95 26.45 -40.0 26.7 -40.2 Q29.2 -42.7 29.65 -45.5 L29.65 -45.75 29.7 -46.45 Q29.75 -47.6 29.45 -48.75 L29.05 -50.05 28.45 -51.4 27.95 -52.3 29.15 -52.3 30.0 -50.4 30.05 -50.25 30.7 -47.9 30.8 -45.65 30.65 -44.65 Q29.95 -41.7 27.1 -39.1 L26.45 -38.5 26.35 -38.45 26.6 -38.25 Q28.6 -36.45 29.7 -34.5 30.55 -33.0 30.75 -31.35 L30.85 -30.2 30.6 -28.3 30.25 -26.8 29.75 -25.55 29.4 -24.85 Q28.4 -22.95 26.6 -20.95 L26.45 -20.8 27.3 -20.2 28.05 -19.65 29.65 -18.6 30.25 -17.95 30.55 -17.25 Q30.75 -16.4 30.3 -15.6 L29.85 -15.0 29.1 -14.65 Q28.3 -14.4 27.6 -14.9 L23.45 -17.85 23.35 -17.95 23.2 -17.85 Q21.45 -16.35 19.3 -14.9 18.55 -14.4 17.75 -14.65 17.0 -14.85 16.55 -15.45 L16.5 -15.55 Q16.05 -16.35 16.25 -17.25 L16.75 -18.2 17.15 -18.6 18.7 -19.65 20.1 -20.75 Q16.25 -24.6 15.5 -28.15 13.9 -33.7 19.1 -38.3 12.35 -43.5 14.65 -50.25 14.9 -51.25 15.45 -52.3 M90.5 -52.3 L91.65 -52.3 Q91.0 -51.1 90.65 -49.9 89.9 -47.75 90.25 -45.75 91.0 -41.35 96.7 -37.85 99.2 -36.3 100.65 -34.7 L102.0 -32.85 102.4 -32.05 102.65 -31.25 102.75 -30.25 102.75 -30.2 102.7 -29.1 102.1 -27.1 101.5 -25.95 101.1 -25.35 100.5 -24.45 100.05 -23.95 Q99.8 -23.65 99.8 -23.2 99.8 -22.75 100.15 -22.45 L100.5 -22.2 100.85 -22.15 Q101.25 -22.15 101.55 -22.5 L103.3 -24.9 103.65 -25.6 104.2 -26.8 Q104.85 -28.55 104.8 -30.25 L104.8 -30.65 104.6 -31.75 104.4 -32.5 Q103.9 -34.05 102.75 -35.5 L99.8 -38.3 98.65 -39.15 97.7 -39.75 Q93.3 -42.45 92.45 -45.75 92.0 -47.45 92.55 -49.25 93.0 -50.75 94.05 -52.3 L95.3 -52.3 Q94.05 -50.55 93.5 -48.95 92.35 -44.45 97.75 -41.0 L98.3 -41.4 99.2 -42.1 Q101.35 -44.15 101.6 -46.4 101.75 -47.55 101.35 -48.8 L101.3 -48.9 99.25 -52.3 100.55 -52.3 101.75 -50.35 Q102.4 -49.1 102.65 -47.85 L102.75 -46.6 102.65 -45.75 102.45 -44.85 Q102.0 -43.6 101.0 -42.45 L100.15 -41.55 100.1 -41.5 99.8 -41.25 Q99.45 -41.0 99.4 -40.55 99.35 -40.1 99.6 -39.75 99.85 -39.35 100.25 -39.3 L101.0 -39.5 101.1 -39.55 101.45 -39.95 101.5 -40.0 101.75 -40.2 Q104.25 -42.7 104.7 -45.5 L104.7 -45.75 104.75 -46.45 104.55 -48.75 104.1 -50.05 103.5 -51.4 103.0 -52.3 104.2 -52.3 105.05 -50.4 105.1 -50.25 105.75 -47.9 105.8 -45.65 105.65 -44.65 Q105.0 -41.7 102.15 -39.1 L101.5 -38.5 101.4 -38.45 101.65 -38.25 Q103.65 -36.45 104.75 -34.5 105.6 -33.0 105.8 -31.35 L105.9 -30.2 105.65 -28.3 105.3 -26.8 104.8 -25.55 104.45 -24.85 Q103.45 -22.95 101.65 -20.95 L101.5 -20.8 102.35 -20.2 103.1 -19.65 104.7 -18.6 105.3 -17.95 105.6 -17.25 Q105.8 -16.4 105.35 -15.6 L104.9 -15.0 104.15 -14.65 Q103.35 -14.4 102.65 -14.9 100.35 -16.4 98.5 -17.85 L98.4 -17.95 98.25 -17.85 94.35 -14.9 Q93.6 -14.4 92.8 -14.65 L91.6 -15.45 91.55 -15.55 Q91.1 -16.35 91.3 -17.25 L91.8 -18.2 92.2 -18.6 93.75 -19.65 95.15 -20.75 Q91.3 -24.6 90.55 -28.15 88.95 -33.7 94.15 -38.3 87.4 -43.5 89.7 -50.25 L90.5 -52.3 M26.1 -32.25 L26.05 -32.25 Q25.1 -34.15 22.75 -35.85 18.7 -32.75 19.35 -29.25 19.95 -27.15 22.0 -24.8 L22.6 -24.15 23.25 -23.5 25.05 -25.7 25.45 -26.25 26.05 -27.4 26.4 -28.25 26.65 -29.1 26.7 -29.5 26.4 -31.4 26.1 -32.25 M18.25 -31.0 Q18.35 -32.2 19.0 -33.35 19.6 -34.4 20.65 -35.45 L20.95 -36.2 20.7 -36.95 Q20.4 -37.35 20.0 -37.35 19.6 -37.35 19.3 -37.0 17.45 -35.25 16.7 -33.35 16.25 -32.2 16.15 -31.0 16.0 -29.05 16.95 -26.95 L17.0 -26.7 17.7 -25.35 Q20.4 -20.85 28.1 -15.8 L28.85 -15.65 29.45 -16.15 29.6 -17.0 29.15 -17.65 24.65 -20.95 22.0 -23.3 20.25 -25.35 19.2 -26.95 18.85 -27.65 Q18.1 -29.35 18.25 -31.0 M19.85 -19.2 L17.65 -17.65 Q17.3 -17.4 17.25 -16.95 17.15 -16.55 17.4 -16.15 17.6 -15.75 18.0 -15.65 L18.75 -15.8 20.95 -17.4 21.4 -18.1 21.25 -18.9 20.6 -19.35 19.85 -19.2 M101.75 -29.5 L101.45 -31.4 101.15 -32.25 101.1 -32.25 Q100.15 -34.15 97.8 -35.85 93.75 -32.75 94.4 -29.25 95.0 -27.15 97.05 -24.8 L97.65 -24.15 98.3 -23.5 100.1 -25.7 100.5 -26.25 101.1 -27.4 101.45 -28.25 101.7 -29.1 101.75 -29.5 M93.3 -31.0 Q93.4 -32.2 94.05 -33.35 94.65 -34.4 95.7 -35.45 L96.0 -36.2 95.75 -36.95 Q95.45 -37.35 95.05 -37.35 94.65 -37.35 94.35 -37.0 92.5 -35.25 91.75 -33.35 91.3 -32.2 91.2 -31.0 91.05 -29.05 92.0 -26.95 L92.05 -26.7 92.75 -25.35 Q95.45 -20.85 103.15 -15.8 L103.9 -15.65 104.5 -16.15 104.65 -17.0 104.2 -17.65 Q101.65 -19.35 99.7 -20.95 L97.05 -23.3 95.3 -25.35 94.25 -26.95 93.9 -27.65 Q93.15 -29.35 93.3 -31.0 M94.9 -19.2 L92.7 -17.65 Q92.35 -17.4 92.3 -16.95 92.2 -16.55 92.45 -16.15 92.65 -15.75 93.05 -15.65 L93.8 -15.8 96.0 -17.4 96.45 -18.1 96.3 -18.9 95.65 -19.35 94.9 -19.2" fill="#cb2792" fill-rule="evenodd" stroke="none"/>
    <path d="M15.2 -45.75 L17.4 -45.75 Q18.25 -42.45 22.65 -39.75 L23.6 -39.15 24.75 -38.3 27.7 -35.5 25.6 -35.5 25.6 -34.7 Q24.15 -36.3 21.65 -37.85 15.95 -41.35 15.2 -45.75 M27.6 -45.75 L29.65 -45.75 29.65 -45.5 Q29.2 -42.7 26.7 -40.2 L26.45 -40.0 26.4 -39.95 26.05 -39.55 25.95 -39.5 Q25.6 -39.25 25.2 -39.3 24.8 -39.35 24.55 -39.75 24.3 -40.1 24.35 -40.55 24.4 -41.0 24.75 -41.25 L25.05 -41.5 25.1 -41.55 25.95 -42.45 Q26.95 -43.6 27.4 -44.85 L27.6 -45.75 M29.75 -30.25 Q29.8 -28.55 29.15 -26.8 L28.6 -25.6 28.25 -24.9 26.5 -22.5 Q26.2 -22.15 25.8 -22.15 L25.45 -22.2 25.1 -22.45 Q24.75 -22.75 24.75 -23.2 L25.0 -23.95 25.45 -24.45 26.05 -25.35 26.45 -25.95 27.05 -27.1 27.65 -29.1 27.7 -30.2 27.7 -30.25 29.75 -30.25 M16.15 -31.0 Q16.25 -32.2 16.7 -33.35 17.45 -35.25 19.3 -37.0 19.6 -37.35 20.0 -37.35 20.4 -37.35 20.7 -36.95 L20.95 -36.2 20.65 -35.45 Q19.6 -34.4 19.0 -33.35 18.35 -32.2 18.25 -31.0 L16.15 -31.0 M20.25 -25.35 L22.0 -23.3 24.65 -20.95 29.15 -17.65 29.6 -17.0 29.45 -16.15 28.85 -15.65 28.1 -15.8 Q20.4 -20.85 17.7 -25.35 L20.25 -25.35 M19.85 -19.2 L20.6 -19.35 21.25 -18.9 21.4 -18.1 20.95 -17.4 18.75 -15.8 18.0 -15.65 Q17.6 -15.75 17.4 -16.15 17.15 -16.55 17.25 -16.95 17.3 -17.4 17.65 -17.65 L19.85 -19.2 M90.25 -45.75 L92.45 -45.75 Q93.3 -42.45 97.7 -39.75 L98.65 -39.15 99.8 -38.3 102.75 -35.5 100.65 -35.5 100.65 -34.7 Q99.2 -36.3 96.7 -37.85 91.0 -41.35 90.25 -45.75 M102.65 -45.75 L104.7 -45.75 104.7 -45.5 Q104.25 -42.7 101.75 -40.2 L101.5 -40.0 101.45 -39.95 101.1 -39.55 101.0 -39.5 100.25 -39.3 Q99.85 -39.35 99.6 -39.75 99.35 -40.1 99.4 -40.55 99.45 -41.0 99.8 -41.25 L100.1 -41.5 100.15 -41.55 101.0 -42.45 Q102.0 -43.6 102.45 -44.85 L102.65 -45.75 M102.75 -30.25 L104.8 -30.25 Q104.85 -28.55 104.2 -26.8 L103.65 -25.6 103.3 -24.9 101.55 -22.5 Q101.25 -22.15 100.85 -22.15 L100.5 -22.2 100.15 -22.45 Q99.8 -22.75 99.8 -23.2 99.8 -23.65 100.05 -23.95 L100.5 -24.45 101.1 -25.35 101.5 -25.95 102.1 -27.1 102.7 -29.1 102.75 -30.2 102.75 -30.25 M91.2 -31.0 Q91.3 -32.2 91.75 -33.35 92.5 -35.25 94.35 -37.0 94.65 -37.35 95.05 -37.35 95.45 -37.35 95.75 -36.95 L96.0 -36.2 95.7 -35.45 Q94.65 -34.4 94.05 -33.35 93.4 -32.2 93.3 -31.0 L91.2 -31.0 M95.3 -25.35 L97.05 -23.3 99.7 -20.95 Q101.65 -19.35 104.2 -17.65 L104.65 -17.0 104.5 -16.15 103.9 -15.65 103.15 -15.8 Q95.45 -20.85 92.75 -25.35 L95.3 -25.35 M94.9 -19.2 L95.65 -19.35 96.3 -18.9 96.45 -18.1 96.0 -17.4 93.8 -15.8 93.05 -15.65 Q92.65 -15.75 92.45 -16.15 92.2 -16.55 92.3 -16.95 92.35 -17.4 92.7 -17.65 L94.9 -19.2" fill="#ff70cd" fill-rule="evenodd" stroke="none"/>
    <path d="M16.6 -52.3 L19.0 -52.3 Q17.95 -50.75 17.5 -49.25 16.95 -47.45 17.4 -45.75 L15.2 -45.75 Q14.85 -47.75 15.6 -49.9 15.95 -51.1 16.6 -52.3 M25.5 -52.3 L27.95 -52.3 28.45 -51.4 29.05 -50.05 29.45 -48.75 Q29.75 -47.6 29.7 -46.45 L29.65 -45.75 27.6 -45.75 27.7 -46.6 27.6 -47.85 Q27.35 -49.1 26.7 -50.35 L25.5 -52.3 M91.65 -52.3 L94.05 -52.3 Q93.0 -50.75 92.55 -49.25 92.0 -47.45 92.45 -45.75 L90.25 -45.75 Q89.9 -47.75 90.65 -49.9 91.0 -51.1 91.65 -52.3 M100.55 -52.3 L103.0 -52.3 103.5 -51.4 104.1 -50.05 104.55 -48.75 104.75 -46.45 104.7 -45.75 102.65 -45.75 102.75 -46.6 102.65 -47.85 Q102.4 -49.1 101.75 -50.35 L100.55 -52.3" fill="#f751bd" fill-rule="evenodd" stroke="none"/>
    <path d="M25.6 -34.7 L25.6 -35.5 27.7 -35.5 Q28.85 -34.05 29.35 -32.5 L29.55 -31.75 29.75 -30.65 29.75 -30.25 27.7 -30.25 27.6 -31.25 27.35 -32.05 26.95 -32.85 25.6 -34.7 M16.15 -31.0 L18.25 -31.0 Q18.1 -29.35 18.85 -27.65 L19.2 -26.95 20.25 -25.35 17.7 -25.35 17.0 -26.7 16.95 -26.95 Q16.0 -29.05 16.15 -31.0 M102.75 -35.5 Q103.9 -34.05 104.4 -32.5 L104.6 -31.75 104.8 -30.65 104.8 -30.25 102.75 -30.25 102.65 -31.25 102.4 -32.05 102.0 -32.85 100.65 -34.7 100.65 -35.5 102.75 -35.5 M91.2 -31.0 L93.3 -31.0 Q93.15 -29.35 93.9 -27.65 L94.25 -26.95 95.3 -25.35 92.75 -25.35 92.05 -26.7 92.0 -26.95 Q91.05 -29.05 91.2 -31.0" fill="#ffa3df" fill-rule="evenodd" stroke="none"/>
    <path d="M22.8 -52.3 L23.7 -52.3 Q24.45 -50.5 26.25 -48.9 L26.3 -48.8 Q26.7 -47.55 26.55 -46.4 25.15 -45.05 24.5 -43.55 L24.15 -42.1 23.25 -41.4 Q23.25 -44.7 26.5 -47.6 23.65 -49.8 22.8 -52.3 M31.95 -52.3 L33.0 -52.3 31.4 -50.25 31.35 -50.2 31.1 -50.0 30.8 -49.45 Q30.75 -49.05 30.95 -48.8 31.15 -48.45 31.5 -48.4 L32.1 -48.55 32.5 -48.95 32.5 -49.0 Q34.2 -50.55 34.85 -52.3 L35.8 -52.3 Q35.05 -49.85 32.45 -47.7 36.9 -43.85 35.9 -39.4 35.45 -36.45 32.5 -33.25 L33.85 -32.3 35.15 -31.45 35.65 -30.9 35.9 -30.3 Q36.05 -29.65 35.7 -28.95 L35.3 -28.5 34.7 -28.2 33.45 -28.4 30.85 -30.2 30.75 -31.35 33.85 -29.15 34.5 -29.0 35.0 -29.4 35.1 -30.1 34.75 -30.65 Q31.7 -32.65 29.7 -34.5 28.6 -36.45 26.6 -38.25 L26.55 -38.3 26.45 -38.5 27.1 -39.1 Q27.9 -37.35 29.9 -35.45 32.2 -37.9 32.7 -40.05 32.95 -42.5 30.65 -44.65 L30.8 -45.65 31.8 -44.65 Q33.05 -43.3 33.45 -41.8 L33.55 -41.0 Q33.65 -38.55 31.35 -35.8 L31.1 -35.2 Q31.1 -34.85 31.4 -34.6 31.65 -34.35 32.0 -34.35 L32.55 -34.65 Q35.35 -37.95 35.25 -41.0 L35.05 -42.2 Q34.7 -43.8 33.55 -45.3 L30.7 -47.9 30.05 -50.25 Q31.3 -51.25 31.95 -52.3 M97.85 -52.3 L98.75 -52.3 Q99.5 -50.5 101.3 -48.9 L101.35 -48.8 Q101.75 -47.55 101.6 -46.4 100.2 -45.05 99.55 -43.55 L99.2 -42.1 98.3 -41.4 Q98.3 -44.7 101.55 -47.6 98.7 -49.8 97.85 -52.3 M107.0 -52.3 L108.05 -52.3 106.45 -50.25 106.4 -50.2 106.15 -50.0 105.85 -49.45 Q105.8 -49.05 106.0 -48.8 106.2 -48.45 106.55 -48.4 L107.15 -48.55 107.55 -48.95 107.55 -49.0 Q109.25 -50.55 109.9 -52.3 L110.85 -52.3 Q110.1 -49.85 107.5 -47.7 111.95 -43.85 110.95 -39.4 110.5 -36.45 107.55 -33.25 L108.9 -32.3 110.2 -31.45 110.7 -30.9 110.95 -30.3 Q111.1 -29.65 110.75 -28.95 L110.35 -28.5 Q110.05 -28.25 109.75 -28.2 109.1 -28.0 108.5 -28.4 L105.9 -30.2 105.8 -31.35 Q107.2 -30.25 108.9 -29.15 L109.55 -29.0 110.05 -29.4 110.15 -30.1 109.8 -30.65 Q106.75 -32.65 104.75 -34.5 103.65 -36.45 101.65 -38.25 L101.6 -38.3 101.5 -38.5 102.15 -39.1 Q102.95 -37.35 104.95 -35.45 107.25 -37.9 107.75 -40.05 108.0 -42.5 105.65 -44.65 L105.8 -45.65 106.85 -44.65 Q108.1 -43.3 108.5 -41.8 L108.6 -41.0 Q108.7 -38.55 106.4 -35.8 L106.15 -35.2 Q106.15 -34.85 106.45 -34.6 106.7 -34.35 107.05 -34.35 107.35 -34.35 107.6 -34.65 110.4 -37.95 110.3 -41.0 L110.1 -42.2 Q109.75 -43.8 108.6 -45.3 107.5 -46.65 105.75 -47.9 L105.1 -50.25 Q106.35 -51.25 107.0 -52.3 M26.1 -32.25 L26.4 -31.4 25.3 -30.65 24.95 -30.1 Q24.9 -29.75 25.1 -29.4 L25.6 -29.0 26.2 -29.15 26.7 -29.5 26.65 -29.1 26.4 -28.25 25.4 -28.2 Q24.75 -28.35 24.4 -28.85 L24.35 -28.95 Q24.0 -29.6 24.15 -30.3 L24.55 -31.1 24.9 -31.45 26.1 -32.25 M101.45 -31.4 L100.35 -30.65 100.0 -30.1 100.15 -29.4 100.65 -29.0 101.25 -29.15 101.75 -29.5 101.7 -29.1 101.45 -28.25 100.45 -28.2 Q99.8 -28.35 99.45 -28.85 L99.4 -28.95 Q99.05 -29.6 99.2 -30.3 L99.6 -31.1 99.95 -31.45 101.15 -32.25 101.45 -31.4" fill="#9a1f6f" fill-rule="evenodd" stroke="none"/>
    <path d="M23.7 -52.3 L24.2 -52.3 26.25 -48.9 Q24.45 -50.5 23.7 -52.3 M33.0 -52.3 L34.85 -52.3 Q34.2 -50.55 32.5 -49.0 L32.5 -48.95 32.1 -48.55 31.5 -48.4 Q31.15 -48.45 30.95 -48.8 30.75 -49.05 30.8 -49.45 L31.1 -50.0 31.35 -50.2 31.4 -50.25 33.0 -52.3 M98.75 -52.3 L99.25 -52.3 101.3 -48.9 Q99.5 -50.5 98.75 -52.3 M108.05 -52.3 L109.9 -52.3 Q109.25 -50.55 107.55 -49.0 L107.55 -48.95 107.15 -48.55 106.55 -48.4 Q106.2 -48.45 106.0 -48.8 105.8 -49.05 105.85 -49.45 L106.15 -50.0 106.4 -50.2 106.45 -50.25 108.05 -52.3 M30.75 -31.35 Q30.55 -33.0 29.7 -34.5 31.7 -32.65 34.75 -30.65 L35.1 -30.1 35.0 -29.4 34.5 -29.0 33.85 -29.15 30.75 -31.35 M26.6 -38.25 L26.35 -38.45 26.45 -38.5 26.55 -38.3 26.6 -38.25 M30.8 -45.65 L30.7 -47.9 33.55 -45.3 Q34.7 -43.8 35.05 -42.2 L35.25 -41.0 Q35.35 -37.95 32.55 -34.65 L32.0 -34.35 Q31.65 -34.35 31.4 -34.6 31.1 -34.85 31.1 -35.2 L31.35 -35.8 Q33.65 -38.55 33.55 -41.0 L33.45 -41.8 Q33.05 -43.3 31.8 -44.65 L30.8 -45.65 M26.55 -46.4 Q26.3 -44.15 24.15 -42.1 L24.5 -43.55 Q25.15 -45.05 26.55 -46.4 M26.4 -31.4 L26.7 -29.5 26.2 -29.15 25.6 -29.0 25.1 -29.4 Q24.9 -29.75 24.95 -30.1 L25.3 -30.65 26.4 -31.4 M105.8 -31.35 Q105.6 -33.0 104.75 -34.5 106.75 -32.65 109.8 -30.65 L110.15 -30.1 110.05 -29.4 109.55 -29.0 108.9 -29.15 Q107.2 -30.25 105.8 -31.35 M101.65 -38.25 L101.4 -38.45 101.5 -38.5 101.6 -38.3 101.65 -38.25 M105.8 -45.65 L105.75 -47.9 Q107.5 -46.65 108.6 -45.3 109.75 -43.8 110.1 -42.2 L110.3 -41.0 Q110.4 -37.95 107.6 -34.65 107.35 -34.35 107.05 -34.35 106.7 -34.35 106.45 -34.6 106.15 -34.85 106.15 -35.2 L106.4 -35.8 Q108.7 -38.55 108.6 -41.0 L108.5 -41.8 Q108.1 -43.3 106.85 -44.65 L105.8 -45.65 M101.6 -46.4 Q101.35 -44.15 99.2 -42.1 L99.55 -43.55 Q100.2 -45.05 101.6 -46.4 M101.75 -29.5 L101.25 -29.15 100.65 -29.0 100.15 -29.4 100.0 -30.1 100.35 -30.65 101.45 -31.4 101.75 -29.5" fill="#af2880" fill-rule="evenodd" stroke="none"/>
    <path d="M29.4 -24.85 L29.75 -25.55 29.9 -25.55 30.05 -25.55 Q33.05 -25.6 35.2 -26.65 L35.3 -26.7 35.35 -26.7 Q35.85 -26.9 36.2 -27.2 36.95 -27.75 37.15 -28.35 L37.15 -27.6 37.1 -27.15 36.25 -26.45 35.6 -26.15 35.65 -26.15 35.4 -26.0 35.2 -25.9 35.1 -25.85 35.05 -25.85 35.05 -25.8 35.0 -25.8 Q32.95 -24.9 30.05 -24.85 L29.9 -24.85 29.4 -24.85 M25.45 -26.25 L25.05 -25.7 24.4 -26.0 24.1 -26.15 23.6 -26.4 23.1 -26.75 22.55 -27.25 Q22.45 -27.85 22.6 -28.2 L23.6 -27.15 24.4 -26.7 24.55 -26.65 24.6 -26.65 25.45 -26.25 M104.45 -24.85 L104.8 -25.55 104.95 -25.55 105.1 -25.55 Q108.1 -25.6 110.25 -26.65 L110.35 -26.7 110.4 -26.7 111.25 -27.2 Q112.0 -27.75 112.2 -28.35 L112.2 -27.6 112.15 -27.15 111.3 -26.45 110.65 -26.15 110.7 -26.15 110.45 -26.0 110.25 -25.9 110.15 -25.85 110.1 -25.85 110.1 -25.8 110.05 -25.8 Q108.0 -24.9 105.1 -24.85 L104.95 -24.85 104.45 -24.85 M97.6 -27.25 Q97.5 -27.85 97.65 -28.2 98.05 -27.6 98.65 -27.15 99.0 -26.9 99.45 -26.7 L99.6 -26.65 99.65 -26.65 100.5 -26.25 100.1 -25.7 99.45 -26.0 99.15 -26.15 98.65 -26.4 98.15 -26.75 97.6 -27.25" fill="#d0d0d0" fill-rule="evenodd" stroke="none"/>
    <path d="M49.35 -77.55 Q49.0 -78.85 49.1 -80.1 L49.25 -81.35 49.3 -81.6 49.35 -81.85 49.4 -82.1 49.45 -82.2 49.45 -82.25 49.5 -82.3 49.8 -83.35 Q51.3 -85.65 53.5 -86.8 56.35 -88.4 60.2 -88.4 L62.4 -88.05 62.45 -88.05 64.35 -87.3 64.3 -87.25 66.25 -86.7 68.5 -87.25 68.55 -87.3 70.85 -88.05 70.9 -88.05 73.3 -88.4 Q77.15 -88.4 79.1 -86.8 80.6 -85.65 80.7 -83.35 L80.4 -82.3 80.35 -82.25 80.35 -82.2 80.3 -82.1 80.25 -81.85 80.2 -81.6 80.05 -81.35 79.5 -80.1 77.7 -77.55 49.35 -77.55" fill="#b81414" fill-rule="evenodd" stroke="none"/>
    <path d="M77.7 -77.55 L79.5 -80.1 80.05 -81.35 80.2 -81.6 80.25 -81.85 80.3 -82.1 80.35 -82.2 80.35 -82.25 80.4 -82.3 80.7 -83.35 Q80.6 -85.65 79.1 -86.8 77.15 -88.4 73.3 -88.4 L70.9 -88.05 70.85 -88.05 68.55 -87.3 68.5 -87.25 66.25 -86.7 64.3 -87.25 64.35 -87.3 62.45 -88.05 62.4 -88.05 60.2 -88.4 Q56.35 -88.4 53.5 -86.8 51.3 -85.65 49.8 -83.35 L49.5 -82.3 49.45 -82.25 49.45 -82.2 49.4 -82.1 49.35 -81.85 49.3 -81.6 49.25 -81.35 49.1 -80.1 Q49.0 -78.85 49.35 -77.55 L49.45 -77.15 49.5 -77.1 9.7 -77.1 13.3 -89.7 121.5 -89.7 117.9 -77.1 77.3 -77.1 77.35 -77.15 77.7 -77.55 M5.4 -77.1 L9.75 -92.3 125.8 -92.3 121.45 -77.1 118.95 -77.1 122.65 -90.05 122.65 -90.35 122.45 -90.6 122.15 -90.7 12.9 -90.7 12.6 -90.6 12.45 -90.3 8.65 -77.1 5.4 -77.1" fill="#e2e2e2" fill-rule="evenodd" stroke="none"/>
    <path d="M49.35 -77.55 L77.7 -77.55 77.35 -77.15 77.3 -77.1 75.55 -75.35 74.55 -74.45 71.0 -71.7 Q64.05 -66.75 60.25 -66.55 56.55 -66.75 52.5 -71.7 51.4 -73.1 50.65 -74.45 L50.15 -75.35 49.5 -77.1 49.45 -77.15 49.35 -77.55" fill="#d41b1b" fill-rule="evenodd" stroke="none"/>
    <path d="M117.9 -77.1 L121.5 -89.7 13.3 -89.7 9.7 -77.1 6.35 -65.45 114.6 -65.45 117.9 -77.1 M8.65 -77.1 L12.45 -90.3 12.6 -90.6 12.9 -90.7 122.15 -90.7 122.45 -90.6 122.65 -90.35 122.65 -90.05 118.95 -77.1 115.45 -64.8 115.25 -64.55 114.95 -64.45 5.7 -64.45 5.4 -64.55 5.25 -64.75 5.25 -65.05 8.65 -77.1" fill="#f367c2" fill-rule="evenodd" stroke="none"/>
    <path d="M115.4 -58.5 L116.9 -58.6 111.65 -52.3 110.85 -52.3 109.9 -52.3 108.05 -52.3 107.0 -52.3 104.2 -52.3 103.0 -52.3 100.55 -52.3 99.25 -52.3 98.75 -52.3 97.85 -52.3 95.3 -52.3 94.05 -52.3 91.65 -52.3 90.5 -52.3 35.8 -52.3 34.85 -52.3 33.0 -52.3 31.95 -52.3 29.15 -52.3 27.95 -52.3 25.5 -52.3 24.2 -52.3 23.7 -52.3 22.8 -52.3 20.25 -52.3 19.0 -52.3 16.6 -52.3 15.45 -52.3 7.15 -52.3 1.95 -58.6 3.55 -58.5 115.4 -58.5 M113.3 -56.1 L114.45 -57.4 4.5 -57.4 5.65 -56.1 8.15 -53.3 110.7 -53.2 110.8 -53.3 113.3 -56.1" fill="#5c0505" fill-rule="evenodd" stroke="none"/>
    <path d="M5.65 -56.1 L113.3 -56.1 110.8 -53.3 110.7 -53.2 8.15 -53.3 5.65 -56.1" fill="#d11919" fill-rule="evenodd" stroke="none"/>
    <path d="M5.65 -56.1 L4.5 -57.4 114.45 -57.4 113.3 -56.1 5.65 -56.1" fill="#ff2b2b" fill-rule="evenodd" stroke="none"/>
    <path d="M125.8 -92.3 L126.0 -89.2 117.85 -61.25 113.95 -61.25 108.35 -61.25 107.25 -61.25 105.1 -61.25 103.3 -61.25 99.8 -61.25 98.3 -61.25 98.15 -61.25 96.0 -61.25 95.3 -61.25 94.5 -61.25 1.0 -61.35 1.2 -62.35 117.25 -62.35 121.45 -77.1 125.8 -92.3" fill="#fafafa" fill-rule="evenodd" stroke="none"/>
  </g>
</svg>
