<?xml version="1.0" encoding="UTF-8" standalone="no"?>
<svg xmlns:ffdec="https://www.free-decompiler.com/flash" xmlns:xlink="http://www.w3.org/1999/xlink" ffdec:objectType="shape" height="61.85px" width="40.65px" xmlns="http://www.w3.org/2000/svg">
  <g transform="matrix(1.0, 0.0, 0.0, 1.0, 10.5, 9.4)">
    <path d="M3.0 3.45 L3.65 4.3 5.45 6.9 7.8 11.05 Q5.1 12.05 2.8 14.15 L1.65 12.05 0.7 9.85 Q-0.3 7.25 -0.45 5.25 1.15 4.1 3.0 3.45 M12.6 30.25 L11.5 28.0 11.5 27.95 10.0 26.0 Q9.35 25.05 8.05 22.5 L8.0 22.4 Q9.95 20.85 12.2 20.05 L14.8 24.85 15.35 25.85 15.4 25.95 16.5 27.85 Q14.45 28.7 12.6 30.25 M20.8 35.95 L21.6 38.15 21.6 39.1 Q21.45 39.6 20.6 39.6 19.05 39.6 17.35 37.85 18.95 36.65 20.8 35.95" fill="#1bba96" fill-rule="evenodd" stroke="none"/>
    <path d="M3.0 3.45 Q3.85 3.1 4.75 2.9 L6.8 6.05 9.55 10.5 7.8 11.05 5.45 6.9 3.65 4.3 3.0 3.45 M-0.45 5.25 Q-0.3 7.25 0.7 9.85 L1.65 12.05 2.8 14.15 1.15 15.85 -1.15 11.0 -1.4 10.5 -2.8 7.2 -0.45 5.25 M12.2 20.05 L14.7 19.3 18.8 27.05 16.5 27.85 15.4 25.95 15.35 25.85 14.8 24.85 12.2 20.05 M8.0 22.4 L8.05 22.5 Q9.35 25.05 10.0 26.0 L11.5 27.95 11.5 28.0 12.6 30.25 10.9 31.85 6.15 24.05 8.0 22.4 M15.55 39.3 L17.35 37.85 Q19.05 39.6 20.6 39.6 21.45 39.6 21.6 39.1 L21.6 38.15 20.8 35.95 Q21.55 35.6 22.35 35.4 25.5 41.65 25.5 42.9 25.5 43.85 25.1 44.6 24.5 45.75 23.1 45.75 20.6 45.75 16.65 40.7 L15.55 39.3" fill="#17a484" fill-rule="evenodd" stroke="none"/>
    <path d="M-4.8 9.4 L-2.8 7.2 -1.4 10.5 -1.15 11.0 1.15 15.85 -0.15 17.4 -1.65 14.85 -3.15 12.25 -4.8 9.4 M4.75 2.9 L6.55 2.6 10.7 10.25 10.65 10.25 9.55 10.5 6.8 6.05 4.75 2.9 M14.7 19.3 L15.5 19.2 19.65 26.85 18.8 27.05 14.7 19.3 M6.15 24.05 L10.9 31.85 9.4 33.6 4.75 25.7 Q5.4 24.8 6.15 24.05 M13.85 41.15 L15.55 39.3 16.65 40.7 Q20.6 45.75 23.1 45.75 24.5 45.75 25.1 44.6 25.5 43.85 25.5 42.9 25.5 41.65 22.35 35.4 L24.05 35.05 Q28.6 43.55 28.65 45.2 28.65 47.6 26.95 49.3 25.3 50.95 22.9 50.95 20.45 50.95 18.8 49.3 L14.6 42.45 13.85 41.15" fill="#148e72" fill-rule="evenodd" stroke="none"/>
    <path d="M6.55 2.6 L8.15 2.45 12.25 10.05 10.7 10.25 6.55 2.6 M15.5 19.2 L17.1 19.05 21.2 26.65 19.65 26.85 15.5 19.2 M24.05 35.05 L25.65 34.9 Q30.2 43.4 30.15 45.2 30.15 48.2 28.0 50.35 25.9 52.45 22.9 52.45 19.85 52.45 17.75 50.35 L13.3 43.2 12.85 42.4 13.85 41.15 14.6 42.45 18.8 49.3 Q20.45 50.95 22.9 50.95 25.3 50.95 26.95 49.3 28.65 47.6 28.65 45.2 28.6 43.55 24.05 35.05 M4.75 25.7 L9.4 33.6 8.45 34.95 3.75 27.0 Q4.2 26.3 4.75 25.7 M-1.1 18.75 L-2.95 15.6 -4.45 13.05 -6.6 9.3 -5.75 10.75 -4.8 9.4 -3.15 12.25 -1.65 14.85 -0.15 17.4 -1.1 18.75" fill="#0c5343" fill-rule="evenodd" stroke="none"/>
    <path d="M6.55 2.6 L4.15 -1.85 4.1 -1.9 Q2.7 -5.35 0.65 -6.95 -2.7 -9.65 -4.95 -9.15 -2.3 -9.9 0.65 -8.2 L0.6 -8.2 Q3.9 -6.45 5.5 -2.45 L8.15 2.45 6.55 2.6 M-8.5 -6.95 Q-9.3 -5.85 -9.6 -3.65 -10.05 -0.55 -8.05 3.15 L-8.05 3.2 -7.4 4.55 -4.8 9.4 -5.75 10.75 -6.6 9.3 -8.45 5.85 -8.45 5.8 -8.65 5.35 -8.75 5.2 -9.45 3.75 Q-11.1 -0.2 -10.1 -3.8 -9.55 -5.7 -8.5 -6.95 M10.7 10.25 L12.25 10.05 17.1 19.05 15.5 19.2 10.65 10.25 10.7 10.25 M19.65 26.85 L21.2 26.65 25.1 33.9 25.65 34.9 24.05 35.05 23.8 34.6 19.65 26.85 M8.45 34.95 L9.4 33.6 13.85 41.15 12.85 42.4 8.45 34.95 M4.75 25.7 Q4.2 26.3 3.75 27.0 L-1.1 18.75 -0.15 17.4 4.75 25.7" fill="#746b58" fill-rule="evenodd" stroke="none"/>
    <path d="M-4.95 -9.15 Q-2.7 -9.65 0.65 -6.95 2.7 -5.35 4.1 -1.9 L4.15 -1.85 6.55 2.6 4.75 2.9 2.45 -0.5 Q0.2 -3.65 -1.25 -5.0 -4.05 -5.1 -4.75 -3.25 L-5.0 -0.5 -4.35 2.95 -2.8 7.2 -4.8 9.4 -7.4 4.55 -8.05 3.2 -8.05 3.15 Q-10.05 -0.55 -9.6 -3.65 -9.3 -5.85 -8.5 -6.95 L-7.7 -7.75 Q-7.0 -8.6 -5.9 -8.85 L-4.95 -9.15 M10.65 10.25 L15.5 19.2 14.7 19.3 12.0 14.6 9.55 10.5 10.65 10.25 M18.8 27.05 L19.65 26.85 23.8 34.6 24.05 35.05 22.35 35.4 22.2 35.1 21.7 34.15 Q20.75 31.2 18.8 27.05 M1.15 15.85 L3.75 20.35 4.05 20.75 6.15 24.05 Q5.4 24.8 4.75 25.7 L-0.15 17.4 1.15 15.85 M9.4 33.6 L10.9 31.85 11.45 32.75 13.05 35.2 Q13.4 36.4 15.55 39.3 L13.85 41.15 9.4 33.6" fill="#d8c8a9" fill-rule="evenodd" stroke="none"/>
    <path d="M-2.8 7.2 L-4.35 2.95 -5.0 -0.5 -4.75 -3.25 Q-4.05 -5.1 -1.25 -5.0 0.2 -3.65 2.45 -0.5 L4.75 2.9 Q3.85 3.1 3.0 3.45 -0.5 -0.8 -0.5 4.55 L-0.45 5.25 -2.8 7.2 M7.8 11.05 L9.55 10.5 12.0 14.6 14.7 19.3 12.2 20.05 9.6 14.9 7.8 11.05 M1.15 15.85 L2.8 14.15 5.9 18.9 8.0 22.4 6.15 24.05 4.05 20.75 3.75 20.35 1.15 15.85 M10.9 31.85 L12.6 30.25 13.85 32.85 Q15.7 36.15 17.35 37.85 L15.55 39.3 Q13.4 36.4 13.05 35.2 L11.45 32.75 10.9 31.85 M20.8 35.95 L19.8 34.0 17.85 30.5 16.5 27.85 18.8 27.05 Q20.75 31.2 21.7 34.15 L22.2 35.1 22.35 35.4 Q21.55 35.6 20.8 35.95" fill="#e4d9c5" fill-rule="evenodd" stroke="none"/>
    <path d="M2.8 14.15 Q5.1 12.05 7.8 11.05 L9.6 14.9 12.2 20.05 Q9.95 20.85 8.0 22.4 L5.9 18.9 2.8 14.15 M12.6 30.25 Q14.45 28.7 16.5 27.85 L17.85 30.5 19.8 34.0 20.8 35.95 Q18.95 36.65 17.35 37.85 15.7 36.15 13.85 32.85 L12.6 30.25 M-0.45 5.25 L-0.5 4.55 Q-0.5 -0.8 3.0 3.45 1.15 4.1 -0.45 5.25" fill="#f1ebe0" fill-rule="evenodd" stroke="none"/>
  </g>
</svg>
