<?xml version="1.0" encoding="UTF-8" standalone="no"?>
<svg xmlns:ffdec="https://www.free-decompiler.com/flash" xmlns:xlink="http://www.w3.org/1999/xlink" ffdec:objectType="shape" height="27.95px" width="59.7px" xmlns="http://www.w3.org/2000/svg">
  <g transform="matrix(1.0, 0.0, 0.0, 1.0, 23.35, 32.15)">
    <path d="M17.35 -25.2 Q17.3 -24.5 18.1 -23.6 L18.7 -23.1 19.65 -23.05 Q21.1 -23.2 22.4 -24.1 L23.1 -24.9 Q23.3 -25.3 23.15 -25.75 L22.55 -26.45 21.05 -26.55 18.75 -26.5 Q18.25 -26.45 17.85 -26.1 17.45 -25.75 17.35 -25.2 M5.7 -14.45 L5.75 -14.9 5.8 -15.1 Q6.15 -16.35 7.35 -16.85 L8.15 -17.15 Q8.65 -17.45 8.55 -17.9 L8.15 -18.45 7.75 -19.0 Q7.7 -19.25 8.05 -19.7 9.0 -21.1 10.5 -22.4 11.65 -23.35 12.35 -23.55 L13.95 -23.75 15.6 -23.65 Q16.35 -23.65 16.4 -24.1 L16.1 -24.75 Q15.95 -25.05 16.4 -25.7 17.75 -27.2 19.35 -27.7 21.3 -28.3 22.8 -27.2 23.55 -26.7 23.95 -25.85 24.3 -24.95 24.1 -24.05 23.9 -23.35 23.55 -23.05 23.1 -22.6 22.35 -22.45 21.65 -22.35 21.45 -22.05 21.25 -21.8 21.35 -21.15 21.8 -19.45 21.5 -18.75 L21.2 -18.2 21.8 -18.75 19.95 -16.95 Q18.3 -15.5 17.1 -15.35 L16.35 -15.1 Q16.1 -14.9 16.0 -14.3 L15.5 -12.65 14.45 -11.3 13.35 -9.95 13.35 -9.85 Q12.3 -9.15 11.4 -9.15 10.6 -9.15 9.2 -9.85 6.65 -11.2 6.05 -12.5 5.7 -13.3 5.7 -14.45 M28.0 -26.9 L27.35 -26.55 26.85 -26.2 25.9 -26.05 Q25.35 -26.15 25.1 -26.6 24.9 -27.05 25.1 -27.7 L25.35 -28.25 26.0 -28.65 27.35 -28.9 28.1 -28.65 28.35 -28.0 Q28.35 -27.2 28.0 -26.9 M0.35 -27.8 Q0.65 -27.85 1.15 -28.2 L2.1 -28.25 2.9 -28.05 Q3.45 -27.65 3.3 -27.1 L2.95 -26.25 2.6 -25.95 0.45 -25.75 Q0.1 -25.85 -0.05 -26.1 L-0.3 -26.85 Q-0.4 -27.35 -0.15 -27.6 L0.35 -27.8 M-19.7 -7.35 L-19.25 -7.4 -19.25 -7.45 -19.15 -7.4 -19.7 -7.35 M12.25 -15.8 L11.0 -16.1 Q9.85 -16.2 8.95 -15.6 7.95 -14.9 7.85 -13.85 7.7 -12.65 8.65 -12.0 9.25 -11.55 10.75 -11.65 L11.75 -11.9 Q13.05 -12.4 13.2 -13.7 L13.05 -14.9 12.25 -15.8 M16.0 -22.5 L13.75 -22.55 Q12.55 -22.25 11.75 -21.4 11.05 -20.65 11.0 -19.9 11.0 -18.8 11.8 -18.5 L13.1 -18.55 14.35 -18.8 Q15.9 -19.1 16.55 -19.7 17.05 -20.1 17.2 -20.7 17.4 -21.35 17.05 -21.85 L16.0 -22.5 M16.25 -12.8 L16.6 -13.2 16.55 -13.3 16.7 -13.3 16.25 -12.8 M-2.65 -21.35 L-2.55 -20.75 -1.9 -19.8 Q-1.5 -19.5 -0.7 -19.5 L0.3 -19.5 2.55 -20.35 2.9 -20.55 3.55 -21.05 3.7 -21.8 3.6 -22.2 3.35 -22.45 Q2.75 -23.0 1.95 -23.15 L1.3 -23.2 -0.6 -23.1 -1.0 -23.0 -1.5 -22.55 -2.05 -22.25 -2.6 -21.65 -2.65 -21.35 M-0.25 -17.95 L0.1 -17.3 Q0.65 -16.65 0.6 -15.7 0.55 -14.85 0.05 -14.1 -0.55 -13.1 -2.6 -12.0 -3.85 -11.3 -4.75 -11.05 L-7.1 -11.25 -8.0 -11.5 -8.3 -11.15 -8.25 -10.65 -7.5 -9.95 Q-8.5 -9.6 -10.4 -9.2 L-14.8 -8.4 -19.2 -8.55 Q-19.05 -9.85 -18.4 -10.75 L-17.6 -11.6 -16.75 -12.4 Q-15.7 -13.45 -14.05 -15.85 L-11.5 -18.3 Q-8.9 -20.45 -5.85 -22.05 -1.5 -24.4 1.9 -24.15 3.95 -23.95 4.65 -22.8 5.15 -22.05 4.95 -21.1 4.75 -20.15 4.05 -19.5 2.85 -18.3 0.7 -18.4 -0.2 -18.4 -0.25 -17.95 M-9.2 -12.7 Q-9.35 -13.35 -10.05 -13.7 L-11.4 -13.95 Q-13.15 -13.95 -14.55 -12.85 L-15.1 -12.05 -15.05 -11.35 -14.75 -10.8 -14.0 -10.45 Q-11.8 -9.9 -10.3 -10.75 -8.9 -11.55 -9.2 -12.7 M-3.15 -14.4 L-1.85 -14.8 -1.6 -15.05 Q-1.3 -15.2 -1.15 -15.5 L-1.05 -16.05 -1.2 -16.75 -1.8 -17.25 Q-3.15 -17.95 -4.7 -17.65 L-6.5 -17.1 -7.35 -16.75 Q-7.55 -16.6 -7.8 -16.5 L-8.25 -16.05 -8.25 -15.45 -8.05 -15.05 -8.0 -14.65 -7.75 -14.3 -7.4 -14.05 -7.1 -13.95 -6.85 -13.8 Q-6.3 -13.45 -5.8 -13.45 L-5.25 -13.55 Q-4.65 -13.65 -4.35 -13.9 L-3.95 -14.15 -3.55 -14.2 -3.15 -14.4" fill="#7ad04c" fill-rule="evenodd" stroke="none"/>
    <path d="M35.35 -30.85 L35.35 -28.85 11.9 -5.4 11.9 -7.45 11.95 -7.45 12.3 -7.55 14.1 -9.1 17.05 -12.1 18.35 -13.1 20.55 -15.3 Q23.5 -18.35 25.1 -20.45 L26.1 -21.65 27.3 -22.6 28.45 -23.6 29.75 -25.2 31.9 -27.15 33.1 -28.45 34.2 -29.5 35.35 -30.85 M3.2 -14.55 L3.2 -13.1 Q0.0 -10.75 -3.85 -8.75 -6.9 -7.15 -12.4 -6.25 L-12.45 -6.8 -12.4 -6.65 -11.8 -7.4 -11.2 -7.75 -8.75 -8.45 Q-6.5 -9.05 -2.65 -10.9 L-2.2 -11.1 1.3 -13.05 3.2 -14.55" fill="#4c9325" fill-rule="evenodd" stroke="none"/>
    <path d="M9.6 -24.75 L9.7 -24.35 Q12.75 -26.6 16.45 -28.5 22.05 -31.45 35.85 -32.15 L36.1 -32.1 36.3 -31.9 36.35 -31.65 36.35 -28.65 36.2 -28.3 12.25 -4.35 12.05 -4.2 11.75 -4.2 Q4.65 -6.5 3.5 -10.75 L3.25 -11.9 Q0.2 -9.7 -3.4 -7.85 -9.05 -4.9 -22.8 -4.2 L-23.05 -4.25 -23.25 -4.45 -23.35 -4.7 -23.35 -7.2 -23.25 -7.5 Q-12.5 -22.1 0.8 -31.55 L1.05 -31.65 1.25 -31.6 Q8.35 -29.35 9.55 -25.1 L9.6 -24.75 M35.35 -30.85 L35.35 -31.1 33.8 -31.0 Q21.95 -30.25 16.9 -27.6 13.0 -25.6 9.85 -23.25 L8.75 -22.4 7.3 -21.15 6.05 -19.95 6.05 -20.0 5.3 -19.05 Q4.35 -17.65 4.2 -16.15 L4.2 -15.75 4.2 -15.15 4.2 -13.15 4.2 -12.25 Q4.25 -11.65 4.45 -11.0 L4.45 -11.05 Q5.55 -7.35 11.8 -5.25 L11.9 -5.4 35.35 -28.85 35.35 -30.85 M3.2 -15.0 L3.2 -15.05 3.2 -16.25 Q3.25 -17.15 3.65 -18.05 4.3 -19.7 5.9 -21.25 L6.65 -21.9 8.8 -23.7 8.65 -24.6 8.6 -24.75 8.6 -24.8 Q7.45 -28.5 1.2 -30.6 -5.15 -26.05 -10.9 -20.35 L-10.95 -20.3 Q-16.9 -14.4 -22.2 -7.2 L-22.35 -7.0 -22.35 -5.2 -13.35 -6.1 -12.4 -6.25 Q-6.9 -7.15 -3.85 -8.75 0.0 -10.75 3.2 -13.1 L3.2 -14.55 3.2 -15.0" fill="#387218" fill-rule="evenodd" stroke="none"/>
    <path d="M35.35 -31.1 L35.35 -30.85 34.2 -29.5 33.1 -28.45 31.9 -27.15 29.75 -25.2 28.45 -23.6 27.3 -22.6 26.1 -21.65 25.1 -20.45 Q23.5 -18.35 20.55 -15.3 L18.35 -13.1 17.05 -12.1 14.1 -9.1 12.3 -7.55 11.95 -7.45 11.9 -7.45 11.9 -5.4 11.8 -5.25 Q5.55 -7.35 4.45 -11.05 L4.45 -11.0 Q4.25 -11.65 4.2 -12.25 L4.2 -13.15 4.4 -12.8 4.85 -12.1 5.45 -11.3 Q6.0 -10.75 6.7 -10.2 8.65 -8.75 11.9 -7.7 L35.35 -31.1 M3.2 -15.0 L3.2 -14.55 1.3 -13.05 -2.2 -11.1 -2.65 -10.9 Q-6.5 -9.05 -8.75 -8.45 L-11.2 -7.75 -11.8 -7.4 -12.4 -6.65 -12.45 -6.8 -12.4 -6.25 -13.35 -6.1 -22.35 -5.2 -22.35 -7.0 -22.2 -7.2 -20.15 -7.35 -19.7 -7.35 -19.15 -7.4 -13.45 -8.05 -12.85 -8.15 -12.1 -8.25 -9.7 -8.75 -8.85 -8.95 Q-5.7 -9.75 -3.65 -10.8 L-0.25 -12.65 0.2 -12.95 3.2 -15.0" fill="#5daf31" fill-rule="evenodd" stroke="none"/>
    <path d="M17.35 -25.2 Q17.45 -25.75 17.85 -26.1 18.25 -26.45 18.75 -26.5 L21.05 -26.55 22.55 -26.45 23.15 -25.75 Q23.3 -25.3 23.1 -24.9 L22.4 -24.1 Q21.1 -23.2 19.65 -23.05 L18.7 -23.1 18.1 -23.6 Q17.3 -24.5 17.35 -25.2 M16.0 -22.5 L17.05 -21.85 Q17.4 -21.35 17.2 -20.7 17.05 -20.1 16.55 -19.7 15.9 -19.1 14.35 -18.8 L13.1 -18.55 11.8 -18.5 Q11.0 -18.8 11.0 -19.9 11.05 -20.65 11.75 -21.4 12.55 -22.25 13.75 -22.55 L16.0 -22.5 M12.25 -15.8 L13.05 -14.9 13.2 -13.7 Q13.05 -12.4 11.75 -11.9 L10.75 -11.65 Q9.25 -11.55 8.65 -12.0 7.7 -12.65 7.85 -13.85 7.95 -14.9 8.95 -15.6 9.85 -16.2 11.0 -16.1 L12.25 -15.8 M-2.65 -21.35 L-2.6 -21.65 -2.05 -22.25 -1.5 -22.55 -1.0 -23.0 -0.6 -23.1 1.3 -23.2 1.95 -23.15 Q2.75 -23.0 3.35 -22.45 L3.6 -22.2 3.7 -21.8 3.55 -21.05 2.9 -20.55 2.55 -20.35 0.3 -19.5 -0.7 -19.5 Q-1.5 -19.5 -1.9 -19.8 L-2.55 -20.75 -2.65 -21.35 M-3.15 -14.4 L-3.55 -14.2 -3.95 -14.15 -4.35 -13.9 Q-4.65 -13.65 -5.25 -13.55 L-5.8 -13.45 Q-6.3 -13.45 -6.85 -13.8 L-7.1 -13.95 -7.4 -14.05 -7.75 -14.3 -8.0 -14.65 -8.05 -15.05 -8.25 -15.45 -8.25 -16.05 -7.8 -16.5 Q-7.55 -16.6 -7.35 -16.75 L-6.5 -17.1 -4.7 -17.65 Q-3.15 -17.95 -1.8 -17.25 L-1.2 -16.75 -1.05 -16.05 -1.15 -15.5 Q-1.3 -15.2 -1.6 -15.05 L-1.85 -14.8 -3.15 -14.4 M-9.2 -12.7 Q-8.9 -11.55 -10.3 -10.75 -11.8 -9.9 -14.0 -10.45 L-14.75 -10.8 -15.05 -11.35 -15.1 -12.05 -14.55 -12.85 Q-13.15 -13.95 -11.4 -13.95 L-10.05 -13.7 Q-9.35 -13.35 -9.2 -12.7" fill="#90e761" fill-rule="evenodd" stroke="none"/>
    <path d="M5.7 -14.45 Q5.7 -13.3 6.05 -12.5 6.65 -11.2 9.2 -9.85 10.6 -9.15 11.4 -9.15 12.3 -9.15 13.35 -9.85 L13.35 -9.95 14.45 -11.3 15.5 -12.65 16.0 -14.3 Q16.1 -14.9 16.35 -15.1 L17.1 -15.35 Q18.3 -15.5 19.95 -16.95 L21.8 -18.75 21.2 -18.2 21.5 -18.75 Q21.8 -19.45 21.35 -21.15 21.25 -21.8 21.45 -22.05 21.65 -22.35 22.35 -22.45 23.1 -22.6 23.55 -23.05 23.9 -23.35 24.1 -24.05 24.3 -24.95 23.95 -25.85 23.55 -26.7 22.8 -27.2 21.3 -28.3 19.35 -27.7 17.75 -27.2 16.4 -25.7 15.95 -25.05 16.1 -24.75 L16.4 -24.1 Q16.35 -23.65 15.6 -23.65 L13.95 -23.75 12.35 -23.55 Q11.65 -23.35 10.5 -22.4 9.0 -21.1 8.05 -19.7 7.7 -19.25 7.75 -19.0 L8.15 -18.45 8.55 -17.9 Q8.65 -17.45 8.15 -17.15 L7.35 -16.85 Q6.15 -16.35 5.8 -15.1 L5.75 -14.9 5.7 -14.45 M28.0 -26.9 Q28.35 -27.2 28.35 -28.0 L28.1 -28.65 27.35 -28.9 26.0 -28.65 25.35 -28.25 25.1 -27.7 Q24.9 -27.05 25.1 -26.6 25.35 -26.15 25.9 -26.05 L26.85 -26.2 27.35 -26.55 28.0 -26.9 M4.2 -13.15 L4.2 -15.15 4.2 -15.75 4.2 -16.15 Q4.35 -17.65 5.3 -19.05 L6.05 -20.0 6.05 -19.95 7.3 -21.15 8.75 -22.4 9.85 -23.25 Q13.0 -25.6 16.9 -27.6 21.95 -30.25 33.8 -31.0 L35.35 -31.1 11.9 -7.7 Q8.65 -8.75 6.7 -10.2 6.0 -10.75 5.45 -11.3 L4.85 -12.1 4.4 -12.8 4.2 -13.15 M0.35 -27.8 L-0.15 -27.6 Q-0.4 -27.35 -0.3 -26.85 L-0.05 -26.1 Q0.1 -25.85 0.45 -25.75 L2.6 -25.95 2.95 -26.25 3.3 -27.1 Q3.45 -27.65 2.9 -28.05 L2.1 -28.25 1.15 -28.2 Q0.65 -27.85 0.35 -27.8 M-22.2 -7.2 Q-16.9 -14.4 -10.95 -20.3 L-10.9 -20.35 Q-5.15 -26.05 1.2 -30.6 7.45 -28.5 8.6 -24.8 L8.6 -24.75 8.65 -24.6 8.8 -23.7 6.65 -21.9 5.9 -21.25 Q4.3 -19.7 3.65 -18.05 3.25 -17.15 3.2 -16.25 L3.2 -15.05 3.2 -15.0 0.2 -12.95 -0.25 -12.65 -3.65 -10.8 Q-5.7 -9.75 -8.85 -8.95 L-9.7 -8.75 -12.1 -8.25 -12.85 -8.15 -13.45 -8.05 -19.15 -7.4 -19.25 -7.45 -19.25 -7.4 -19.7 -7.35 -20.15 -7.35 -22.2 -7.2 M16.25 -12.8 L16.7 -13.3 16.55 -13.3 16.6 -13.2 16.25 -12.8 M-0.25 -17.95 Q-0.2 -18.4 0.7 -18.4 2.85 -18.3 4.05 -19.5 4.75 -20.15 4.95 -21.1 5.15 -22.05 4.65 -22.8 3.95 -23.95 1.9 -24.15 -1.5 -24.4 -5.85 -22.05 -8.9 -20.45 -11.5 -18.3 L-14.05 -15.85 Q-15.7 -13.45 -16.75 -12.4 L-17.6 -11.6 -18.4 -10.75 Q-19.05 -9.85 -19.2 -8.55 L-14.8 -8.4 -10.4 -9.2 Q-8.5 -9.6 -7.5 -9.95 L-8.25 -10.65 -8.3 -11.15 -8.0 -11.5 -7.1 -11.25 -4.75 -11.05 Q-3.85 -11.3 -2.6 -12.0 -0.55 -13.1 0.05 -14.1 0.55 -14.85 0.6 -15.7 0.65 -16.65 0.1 -17.3 L-0.25 -17.95" fill="#6abd3e" fill-rule="evenodd" stroke="none"/>
  </g>
</svg>
