<?xml version="1.0" encoding="UTF-8" standalone="no"?>
<svg xmlns:ffdec="https://www.free-decompiler.com/flash" xmlns:xlink="http://www.w3.org/1999/xlink" ffdec:objectType="shape" height="110.9px" width="97.8px" xmlns="http://www.w3.org/2000/svg">
  <g transform="matrix(1.0, 0.0, 0.0, 1.0, 51.35, 95.45)">
    <path d="M17.75 8.35 Q17.9 7.75 18.3 7.55 18.55 7.6 19.0 8.0 L19.0 8.15 19.25 8.2 Q20.4 8.55 20.9 9.9 L21.0 10.15 21.1 10.35 21.15 10.45 21.75 11.9 22.35 13.25 24.05 6.85 24.05 6.7 24.95 2.1 26.1 -3.35 26.55 -5.05 27.4 -7.6 28.4 -10.15 29.15 -11.75 Q31.45 -16.2 34.4 -20.4 36.95 -24.0 38.95 -27.85 42.2 -34.15 43.7 -41.05 44.95 -46.8 44.9 -52.55 44.9 -56.95 44.25 -61.35 43.8 -64.65 42.8 -67.7 41.5 -71.6 39.3 -74.9 36.55 -79.15 32.75 -82.75 29.7 -85.6 25.95 -87.5 21.6 -89.7 17.0 -90.9 L2.5 -93.55 Q-4.4 -94.4 -11.3 -93.3 L-19.35 -91.25 Q-24.9 -89.5 -29.65 -86.1 -34.55 -82.45 -38.15 -77.45 -41.75 -72.5 -44.15 -66.65 L-47.4 -57.75 Q-48.85 -53.25 -49.4 -48.6 -49.9 -43.9 -49.65 -39.2 L-49.4 -36.2 -49.25 -34.8 -49.2 -34.6 -49.15 -34.35 -49.15 -34.2 -49.0 -32.65 Q-48.7 -31.35 -48.0 -30.25 -46.65 -28.2 -44.65 -28.1 -45.3 -29.95 -44.8 -31.55 L-44.0 -33.25 -42.9 -30.35 Q-41.9 -28.1 -40.35 -27.65 L-36.2 -27.35 -35.5 -27.3 -32.65 -26.5 -33.45 -25.85 Q-43.05 -25.65 -46.2 -26.85 -50.15 -28.4 -50.65 -33.4 -51.65 -38.3 -51.2 -43.45 -50.8 -48.3 -49.9 -53.15 -48.95 -58.35 -47.1 -63.35 L-43.8 -71.2 Q-42.0 -74.95 -39.4 -78.35 -36.95 -81.5 -34.05 -84.25 -30.1 -87.85 -25.45 -90.55 -21.0 -93.15 -16.15 -94.3 L-7.6 -95.35 -5.1 -95.4 4.8 -94.9 15.25 -92.85 Q20.5 -91.6 25.4 -89.35 30.15 -87.2 34.0 -83.75 38.3 -79.85 41.15 -74.7 44.05 -69.4 45.35 -63.5 46.6 -57.95 46.45 -52.15 46.35 -46.6 45.3 -41.35 44.15 -35.7 41.8 -30.5 39.4 -25.1 36.0 -20.2 32.65 -15.25 30.5 -9.85 28.3 -4.45 27.05 1.2 L25.05 10.15 Q24.35 13.45 23.6 15.05 L22.2 15.45 Q19.75 14.0 19.2 11.15 L18.9 9.6 17.75 8.35" fill="#606060" fill-rule="evenodd" stroke="none"/>
    <path d="M8.95 4.1 L12.25 4.75 15.0 5.1 Q18.85 5.1 20.1 3.95 21.85 2.3 23.7 -4.15 L22.9 -3.95 22.1 -3.4 Q21.25 -2.1 20.45 -1.6 L19.5 -0.95 Q22.65 -8.35 32.1 -22.05 41.55 -37.4 41.8 -48.35 L39.1 -40.95 Q37.7 -37.6 37.5 -37.65 40.15 -46.6 41.0 -52.45 L41.2 -54.0 Q41.65 -58.75 41.25 -61.55 40.05 -66.45 39.85 -65.15 L38.65 -58.7 Q38.05 -55.85 37.15 -54.55 37.05 -55.5 37.65 -58.3 38.4 -61.75 38.4 -69.3 38.4 -70.15 36.25 -73.4 33.85 -76.9 32.4 -78.15 31.45 -78.0 31.75 -75.45 L32.0 -72.15 31.75 -69.9 31.5 -68.4 Q30.85 -73.0 29.25 -77.9 27.65 -82.65 26.6 -79.8 25.9 -84.3 19.45 -86.35 17.35 -85.5 16.75 -84.65 L16.45 -84.95 16.8 -87.25 9.15 -88.45 3.2 -87.7 -4.0 -85.65 -1.2 -87.05 1.35 -88.25 -0.25 -88.05 Q-5.05 -87.95 -10.6 -85.8 -15.65 -83.8 -20.3 -80.55 L-18.8 -82.0 Q-14.35 -86.5 -9.3 -88.75 L-1.7 -91.8 Q-5.9 -91.9 -12.6 -87.95 -20.95 -83.05 -26.95 -74.6 L-31.25 -69.2 Q-34.8 -64.7 -39.0 -54.8 -38.2 -65.15 -28.9 -77.05 -25.5 -81.35 -21.9 -84.65 -18.7 -87.55 -17.45 -87.9 L-17.85 -87.85 Q-31.55 -80.05 -37.15 -66.95 -41.75 -56.1 -41.75 -38.7 -41.75 -31.9 -38.3 -27.6 L-40.35 -27.65 Q-41.9 -28.1 -42.9 -30.35 L-44.0 -33.25 -44.8 -31.55 Q-45.3 -29.95 -44.65 -28.1 -46.65 -28.2 -48.0 -30.25 -48.7 -31.35 -49.0 -32.65 L-49.15 -34.2 -49.15 -34.35 -49.2 -34.6 -49.25 -34.8 -49.4 -36.2 -49.65 -39.2 Q-49.9 -43.9 -49.4 -48.6 -48.85 -53.25 -47.4 -57.75 L-44.15 -66.65 Q-41.75 -72.5 -38.15 -77.45 -34.55 -82.45 -29.65 -86.1 -24.9 -89.5 -19.35 -91.25 L-11.3 -93.3 Q-4.4 -94.4 2.5 -93.55 L17.0 -90.9 Q21.6 -89.7 25.95 -87.5 29.7 -85.6 32.75 -82.75 36.55 -79.15 39.3 -74.9 41.5 -71.6 42.8 -67.7 43.8 -64.65 44.25 -61.35 44.9 -56.95 44.9 -52.55 44.95 -46.8 43.7 -41.05 42.2 -34.15 38.95 -27.85 36.95 -24.0 34.4 -20.4 31.45 -16.2 29.15 -11.75 L28.4 -10.15 27.4 -7.6 26.55 -5.05 26.1 -3.35 24.95 2.1 24.05 6.7 24.05 6.85 22.35 13.25 21.75 11.9 21.15 10.45 21.1 10.35 21.0 10.15 20.9 9.9 Q20.4 8.55 19.25 8.2 L19.0 8.15 19.0 8.0 Q18.55 7.6 18.3 7.55 17.9 7.75 17.75 8.35 L13.15 6.25 Q9.55 4.65 8.95 4.1 M-36.2 -27.35 L-36.55 -31.6 -35.75 -37.4 -35.5 -37.05 -35.35 -36.3 Q-35.95 -33.1 -34.45 -30.5 L-30.8 -25.95 -31.4 -25.4 Q-33.0 -25.4 -33.45 -25.85 L-32.65 -26.5 -35.5 -27.3 -36.2 -27.35 M18.45 -4.95 L18.4 -5.4 18.45 -4.95 M-36.8 -74.55 Q-42.15 -67.7 -44.45 -59.4 -46.3 -52.6 -46.3 -43.8 L-46.3 -42.85 -46.15 -40.8 Q-45.9 -38.25 -45.1 -38.25 -44.65 -38.25 -44.65 -39.0 L-44.8 -41.9 -44.9 -43.55 -44.65 -49.3 Q-44.65 -55.2 -42.55 -61.95 -40.35 -68.85 -36.65 -74.4 L-36.8 -74.55" fill="#989898" fill-rule="evenodd" stroke="none"/>
    <path d="M-40.35 -27.65 L-38.3 -27.6 Q-41.75 -31.9 -41.75 -38.7 -41.75 -56.1 -37.15 -66.95 -31.55 -80.05 -17.85 -87.85 L-17.45 -87.9 Q-18.7 -87.55 -21.9 -84.65 -25.5 -81.35 -28.9 -77.05 -38.2 -65.15 -39.0 -54.8 -34.8 -64.7 -31.25 -69.2 L-26.95 -74.6 Q-20.95 -83.05 -12.6 -87.95 -5.9 -91.9 -1.7 -91.8 L-9.3 -88.75 Q-14.35 -86.5 -18.8 -82.0 L-20.3 -80.55 Q-15.65 -83.8 -10.6 -85.8 -5.05 -87.95 -0.25 -88.05 L1.35 -88.25 -1.2 -87.05 -4.0 -85.65 3.2 -87.7 9.15 -88.45 16.8 -87.25 16.45 -84.95 16.75 -84.65 Q17.35 -85.5 19.45 -86.35 25.9 -84.3 26.6 -79.8 27.65 -82.65 29.25 -77.9 30.85 -73.0 31.5 -68.4 L31.75 -69.9 32.0 -72.15 31.75 -75.45 Q31.45 -78.0 32.4 -78.15 33.85 -76.9 36.25 -73.4 38.4 -70.15 38.4 -69.3 38.4 -61.75 37.65 -58.3 37.05 -55.5 37.15 -54.55 38.05 -55.85 38.65 -58.7 L39.85 -65.15 Q40.05 -66.45 41.25 -61.55 41.65 -58.75 41.2 -54.0 L41.0 -52.45 Q40.15 -46.6 37.5 -37.65 37.7 -37.6 39.1 -40.95 L41.8 -48.35 Q41.55 -37.4 32.1 -22.05 22.65 -8.35 19.5 -0.95 L20.45 -1.6 Q21.25 -2.1 22.1 -3.4 L22.9 -3.95 23.7 -4.15 Q21.85 2.3 20.1 3.95 18.85 5.1 15.0 5.1 L12.25 4.75 8.95 4.1 8.65 3.75 Q12.75 1.65 15.9 -1.7 17.5 -3.45 18.45 -4.95 L18.45 -4.85 20.25 -7.1 Q21.7 -9.15 21.65 -10.0 L21.5 -10.2 19.2 -8.55 18.1 -7.3 Q18.1 -7.1 16.35 -6.6 L13.3 -5.8 12.35 -5.75 Q14.05 -6.6 17.0 -9.35 18.55 -9.35 29.85 -23.8 32.15 -26.75 34.5 -33.5 36.75 -40.0 37.05 -44.05 L37.05 -49.95 36.95 -51.25 Q35.2 -41.75 27.2 -27.15 19.8 -13.75 16.95 -12.35 L13.85 -10.95 Q15.25 -17.45 19.2 -21.95 25.7 -29.3 28.35 -34.95 32.2 -43.25 33.9 -47.8 35.7 -52.65 35.7 -55.15 L35.35 -58.2 35.2 -59.05 Q35.2 -57.7 32.5 -49.8 29.9 -42.25 29.2 -41.05 L29.1 -40.95 29.0 -41.6 30.45 -45.65 Q32.1 -51.05 33.05 -58.05 L33.0 -58.05 Q33.0 -63.8 32.5 -66.2 L30.75 -55.25 Q29.2 -46.75 28.1 -44.55 24.0 -35.2 21.35 -29.8 16.4 -19.8 13.65 -19.8 9.4 -17.7 9.65 -18.8 9.65 -20.35 10.35 -22.1 10.95 -23.9 13.9 -27.6 L17.55 -32.5 20.45 -37.65 23.2 -42.65 24.95 -46.0 26.65 -50.5 Q28.25 -54.7 28.35 -55.75 L29.15 -62.7 29.65 -67.75 29.5 -71.2 Q29.2 -72.45 28.1 -74.1 L27.25 -74.8 26.4 -63.75 Q26.0 -59.4 24.9 -55.45 L24.45 -54.7 Q24.2 -54.6 24.1 -55.1 L25.55 -68.4 Q25.55 -76.1 25.15 -77.65 L23.25 -79.75 23.45 -74.3 Q23.45 -62.9 22.15 -58.35 L15.0 -40.95 Q13.45 -37.3 10.5 -32.9 6.1 -26.25 3.0 -26.25 L1.3 -26.35 Q13.2 -37.45 18.25 -51.05 22.25 -61.8 22.25 -75.35 22.25 -77.4 21.25 -80.2 20.0 -83.5 18.55 -83.5 16.7 -83.5 15.3 -75.7 L12.6 -62.05 9.25 -53.8 4.8 -43.45 -3.3 -28.55 Q-3.3 -27.85 -4.75 -27.45 L-7.25 -27.2 Q-0.95 -39.15 4.65 -51.2 15.8 -75.05 15.65 -83.75 L15.55 -82.8 15.1 -84.55 10.5 -73.05 Q5.8 -61.85 -1.15 -51.0 L4.6 -62.35 Q9.55 -73.2 13.05 -85.6 L10.05 -85.95 Q-0.6 -85.95 -9.8 -79.45 -12.6 -77.5 -16.0 -74.35 L-20.1 -70.7 -20.25 -70.55 Q-20.45 -70.5 -20.45 -71.15 -20.45 -72.3 -7.8 -82.65 -23.1 -75.35 -28.95 -63.1 -32.9 -54.9 -32.9 -42.8 -32.9 -37.1 -32.35 -33.85 L-31.65 -31.2 -31.05 -28.65 Q-30.5 -27.25 -28.7 -25.35 L-31.4 -25.4 -30.8 -25.95 -34.45 -30.5 Q-35.95 -33.1 -35.35 -36.3 L-35.5 -37.05 -35.75 -37.4 -36.55 -31.6 -36.2 -27.35 -40.35 -27.65 M-27.0 -46.1 Q-27.0 -58.8 -17.2 -69.35 -9.25 -78.0 1.25 -81.8 1.8 -81.75 1.9 -81.4 -10.7 -74.05 -15.05 -69.05 -21.75 -61.3 -21.75 -48.55 -21.75 -45.95 -21.0 -41.3 -20.15 -36.3 -19.35 -35.1 L-19.05 -34.95 -13.25 -49.85 Q-7.0 -64.3 -1.8 -69.45 1.1 -72.3 5.45 -78.65 8.7 -83.45 10.45 -83.95 L10.85 -83.4 Q1.05 -71.05 -7.5 -49.65 L-12.85 -35.85 Q-15.35 -29.7 -16.75 -28.25 -21.4 -23.55 -24.45 -31.0 -27.0 -37.2 -27.0 -46.1 M14.4 -84.8 L14.5 -85.3 Q14.55 -85.95 14.4 -84.8 M-36.8 -74.55 L-36.65 -74.4 Q-40.35 -68.85 -42.55 -61.95 -44.65 -55.2 -44.65 -49.3 L-44.9 -43.55 -44.8 -41.9 -44.65 -39.0 Q-44.65 -38.25 -45.1 -38.25 -45.9 -38.25 -46.15 -40.8 L-46.3 -42.85 -46.3 -43.8 Q-46.3 -52.6 -44.45 -59.4 -42.15 -67.7 -36.8 -74.55 M-19.1 -78.4 Q-24.8 -76.9 -31.55 -65.15 -38.75 -52.6 -38.75 -41.55 -38.75 -40.35 -38.25 -39.85 -38.05 -47.85 -33.0 -59.3 -26.8 -73.4 -19.1 -78.4" fill="#d1d1d1" fill-rule="evenodd" stroke="none"/>
    <path d="M-28.7 -25.35 Q-30.5 -27.25 -31.05 -28.65 L-31.65 -31.2 -32.35 -33.85 Q-32.9 -37.1 -32.9 -42.8 -32.9 -54.9 -28.95 -63.1 -23.1 -75.35 -7.8 -82.65 -20.45 -72.3 -20.45 -71.15 -20.45 -70.5 -20.25 -70.55 L-20.1 -70.7 -16.0 -74.35 Q-12.6 -77.5 -9.8 -79.45 -0.6 -85.95 10.05 -85.95 L13.05 -85.6 Q9.55 -73.2 4.6 -62.35 L-1.15 -51.0 Q5.8 -61.85 10.5 -73.05 L15.1 -84.55 15.55 -82.8 15.65 -83.75 Q15.8 -75.05 4.65 -51.2 -0.95 -39.15 -7.25 -27.2 L-4.75 -27.45 Q-3.3 -27.85 -3.3 -28.55 L4.8 -43.45 9.25 -53.8 12.6 -62.05 15.3 -75.7 Q16.7 -83.5 18.55 -83.5 20.0 -83.5 21.25 -80.2 22.25 -77.4 22.25 -75.35 22.25 -61.8 18.25 -51.05 13.2 -37.45 1.3 -26.35 L3.0 -26.25 Q6.1 -26.25 10.5 -32.9 13.45 -37.3 15.0 -40.95 L22.15 -58.35 Q23.45 -62.9 23.45 -74.3 L23.25 -79.75 25.15 -77.65 Q25.55 -76.1 25.55 -68.4 L24.1 -55.1 Q24.2 -54.6 24.45 -54.7 L24.9 -55.45 Q26.0 -59.4 26.4 -63.75 L27.25 -74.8 28.1 -74.1 Q29.2 -72.45 29.5 -71.2 L29.65 -67.75 29.15 -62.7 28.35 -55.75 Q28.25 -54.7 26.65 -50.5 L24.95 -46.0 23.2 -42.65 20.45 -37.65 17.55 -32.5 13.9 -27.6 Q10.95 -23.9 10.35 -22.1 9.65 -20.35 9.65 -18.8 9.4 -17.7 13.65 -19.8 16.4 -19.8 21.35 -29.8 24.0 -35.2 28.1 -44.55 29.2 -46.75 30.75 -55.25 L32.5 -66.2 Q33.0 -63.8 33.0 -58.05 L33.05 -58.05 Q32.1 -51.05 30.45 -45.65 L29.0 -41.6 29.1 -40.95 29.2 -41.05 Q29.9 -42.25 32.5 -49.8 35.2 -57.7 35.2 -59.05 L35.35 -58.2 35.7 -55.15 Q35.7 -52.65 33.9 -47.8 32.2 -43.25 28.35 -34.95 25.7 -29.3 19.2 -21.95 15.25 -17.45 13.85 -10.95 L16.95 -12.35 Q19.8 -13.75 27.2 -27.15 35.2 -41.75 36.95 -51.25 L37.05 -49.95 37.05 -44.05 Q36.75 -40.0 34.5 -33.5 32.15 -26.75 29.85 -23.8 18.55 -9.35 17.0 -9.35 14.05 -6.6 12.35 -5.75 L13.3 -5.8 16.35 -6.6 Q18.1 -7.1 18.1 -7.3 L19.2 -8.55 21.5 -10.2 21.65 -10.0 Q21.7 -9.15 20.25 -7.1 L18.45 -4.85 18.45 -4.95 Q17.5 -3.45 15.9 -1.7 12.75 1.65 8.65 3.75 7.85 2.25 7.85 1.25 7.85 -0.8 9.1 -5.85 L10.35 -11.65 Q10.35 -13.25 8.4 -15.8 6.0 -18.95 1.9 -21.25 -9.6 -27.9 -28.7 -25.35 M14.4 -84.8 Q14.55 -85.95 14.5 -85.3 L14.4 -84.8 M-27.0 -46.1 Q-27.0 -37.2 -24.45 -31.0 -21.4 -23.55 -16.75 -28.25 -15.35 -29.7 -12.85 -35.85 L-7.5 -49.65 Q1.05 -71.05 10.85 -83.4 L10.45 -83.95 Q8.7 -83.45 5.45 -78.65 1.1 -72.3 -1.8 -69.45 -7.0 -64.3 -13.25 -49.85 L-19.05 -34.95 -19.35 -35.1 Q-20.15 -36.3 -21.0 -41.3 -21.75 -45.95 -21.75 -48.55 -21.75 -61.3 -15.05 -69.05 -10.7 -74.05 1.9 -81.4 1.8 -81.75 1.25 -81.8 -9.25 -78.0 -17.2 -69.35 -27.0 -58.8 -27.0 -46.1 M18.45 -4.95 L18.4 -5.4 18.45 -4.95 M-19.1 -78.4 Q-26.8 -73.4 -33.0 -59.3 -38.05 -47.85 -38.25 -39.85 -38.75 -40.35 -38.75 -41.55 -38.75 -52.6 -31.55 -65.15 -24.8 -76.9 -19.1 -78.4" fill="#ffffff" fill-rule="evenodd" stroke="none"/>
  </g>
</svg>
