<?xml version="1.0" encoding="UTF-8" standalone="no"?>
<svg xmlns:ffdec="https://www.free-decompiler.com/flash" xmlns:xlink="http://www.w3.org/1999/xlink" ffdec:objectType="shape" height="46.95px" width="74.35px" xmlns="http://www.w3.org/2000/svg">
  <g transform="matrix(1.0, 0.0, 0.0, 1.0, 49.35, 31.55)">
    <path d="M8.65 3.75 Q7.85 2.25 7.85 1.25 7.85 -0.8 9.1 -5.85 L10.35 -11.65 Q10.35 -13.25 8.4 -15.8 L8.2 -16.05 Q11.35 -13.8 13.95 -11.35 L13.85 -10.95 14.2 -11.1 16.4 -8.95 15.25 -7.8 12.35 -5.75 13.3 -5.8 15.25 -6.25 16.2 -6.6 Q17.8 -6.95 17.75 -7.3 L17.8 -7.35 18.45 -6.6 19.05 -5.9 18.25 -4.8 18.25 -4.9 Q17.35 -3.2 15.85 -1.7 L15.25 -0.9 15.25 -1.0 Q12.35 1.85 8.65 3.75 M-24.15 -30.25 Q-21.15 -23.8 -16.75 -28.25 L-16.65 -28.3 Q-12.35 -26.95 -7.8 -24.95 -16.8 -26.95 -28.7 -25.35 -30.5 -27.25 -31.05 -28.65 L-31.65 -31.2 -31.65 -31.35 -24.15 -30.25" fill="#ffffff" fill-rule="evenodd" stroke="none"/>
    <path d="M13.95 -11.35 L14.2 -11.1 13.85 -10.95 13.95 -11.35 M16.4 -8.95 L17.8 -7.35 17.75 -7.3 Q17.8 -6.95 16.2 -6.6 L15.25 -6.25 13.3 -5.8 12.35 -5.75 15.25 -7.8 16.4 -8.95 M19.05 -5.9 L19.95 -4.7 20.35 -4.15 19.4 -0.85 20.35 -1.6 21.4 -2.6 22.5 -0.7 22.05 0.65 22.1 0.65 Q21.05 3.05 20.1 3.95 18.85 5.1 15.0 5.1 L12.25 4.75 8.95 4.1 8.65 3.75 Q12.35 1.85 15.25 -1.0 L15.25 -0.9 15.85 -1.7 Q17.35 -3.2 18.25 -4.9 L18.25 -4.8 19.05 -5.9 M-36.2 -27.35 L-40.35 -27.65 -38.3 -27.6 Q-39.65 -29.25 -40.45 -31.3 L-37.45 -31.5 -36.55 -31.5 -36.2 -27.35 M-16.65 -28.3 L-16.75 -28.25 Q-21.15 -23.8 -24.15 -30.25 -20.45 -29.55 -16.65 -28.3 M-31.65 -31.35 L-31.65 -31.2 -31.05 -28.65 Q-30.5 -27.25 -28.7 -25.35 L-31.4 -25.4 -30.8 -25.95 -34.45 -30.5 -34.95 -31.5 -31.65 -31.35" fill="#d1d1d1" fill-rule="evenodd" stroke="none"/>
    <path d="M20.35 -4.15 L21.4 -2.6 20.35 -1.6 19.4 -0.85 20.35 -4.15 M22.5 -0.7 Q23.9 1.9 24.55 4.35 L24.05 6.7 24.05 6.85 22.35 13.25 21.75 11.9 21.15 10.45 21.1 10.35 21.0 10.15 20.9 9.9 Q20.4 8.55 19.25 8.2 L19.0 8.15 19.0 8.0 Q18.55 7.6 18.3 7.55 17.9 7.75 17.75 8.35 L13.15 6.25 Q9.55 4.65 8.95 4.1 L12.25 4.75 15.0 5.1 Q18.85 5.1 20.1 3.95 21.05 3.05 22.1 0.65 L22.05 0.65 22.5 -0.7 M-33.45 -25.85 L-32.65 -26.5 -35.5 -27.3 -36.2 -27.35 -36.55 -31.5 -34.95 -31.5 -34.45 -30.5 -30.8 -25.95 -31.4 -25.4 Q-33.0 -25.4 -33.45 -25.85 M-40.35 -27.65 Q-41.9 -28.1 -42.9 -30.35 L-43.15 -31.0 -40.45 -31.3 Q-39.65 -29.25 -38.3 -27.6 L-40.35 -27.65 M-44.95 -30.65 Q-45.15 -29.45 -44.65 -28.1 -46.5 -28.2 -47.8 -29.95 L-44.95 -30.65" fill="#989898" fill-rule="evenodd" stroke="none"/>
    <path d="M24.55 4.35 L24.85 5.9 25.0 7.5 Q25.1 10.3 24.05 12.95 23.3 14.35 22.1 15.4 19.75 13.95 19.2 11.15 L18.9 9.6 17.75 8.35 Q17.9 7.75 18.3 7.55 18.55 7.6 19.0 8.0 L19.0 8.15 19.25 8.2 Q20.4 8.55 20.9 9.9 L21.0 10.15 21.1 10.35 21.15 10.45 21.75 11.9 22.35 13.25 24.05 6.85 24.05 6.7 24.55 4.35 M-33.45 -25.85 Q-43.05 -25.65 -46.2 -26.85 -48.25 -27.65 -49.35 -29.35 L-48.1 -29.85 -47.8 -29.95 Q-46.5 -28.2 -44.65 -28.1 -45.15 -29.45 -44.95 -30.65 L-43.15 -31.0 -42.9 -30.35 Q-41.9 -28.1 -40.35 -27.65 L-36.2 -27.35 -35.5 -27.3 -32.65 -26.5 -33.45 -25.85" fill="#606060" fill-rule="evenodd" stroke="none"/>
  </g>
</svg>
