<?xml version="1.0" encoding="UTF-8" standalone="no"?>
<svg xmlns:ffdec="https://www.free-decompiler.com/flash" xmlns:xlink="http://www.w3.org/1999/xlink" ffdec:objectType="shape" height="27.3px" width="27.25px" xmlns="http://www.w3.org/2000/svg">
  <g transform="matrix(1.0, 0.0, 0.0, 1.0, -4.7, -45.2)">
    <path d="M8.65 49.15 L9.85 48.15 9.85 48.1 Q12.5 45.95 15.8 45.45 L18.3 45.2 21.5 45.6 Q24.8 46.25 27.35 48.6 L27.4 48.6 27.95 49.15 Q31.95 53.2 31.95 58.85 31.95 64.5 27.95 68.45 L28.05 68.4 27.4 69.05 27.35 69.1 Q24.8 71.35 21.55 72.2 L21.5 72.2 18.3 72.5 15.8 72.3 Q12.45 71.7 9.85 69.55 L8.65 68.45 Q4.7 64.5 4.7 58.85 4.7 53.2 8.65 49.15 M21.3 46.55 L18.3 46.2 15.95 46.4 Q12.9 46.9 10.45 48.9 L9.35 49.85 Q5.7 53.6 5.7 58.85 5.7 64.1 9.35 67.75 L10.45 68.75 Q12.9 70.75 15.95 71.3 L18.3 71.5 21.3 71.2 Q24.35 70.45 26.7 68.3 L27.25 67.75 Q30.95 64.1 30.95 58.85 30.95 53.6 27.25 49.85 L26.7 49.35 Q24.35 47.2 21.3 46.55" fill="#ffcc23" fill-rule="evenodd" stroke="none"/>
    <path d="M15.95 46.4 L18.3 46.2 21.3 46.55 21.3 71.2 18.3 71.5 15.95 71.3 15.95 46.4" fill="#663e21" fill-rule="evenodd" stroke="none"/>
    <path d="M21.3 46.55 Q24.35 47.2 26.7 49.35 L26.7 68.3 Q24.35 70.45 21.3 71.2 L21.3 46.55 M15.95 71.3 Q12.9 70.75 10.45 68.75 L10.45 48.9 Q12.9 46.9 15.95 46.4 L15.95 71.3" fill="#543117" fill-rule="evenodd" stroke="none"/>
    <path d="M26.7 49.35 L27.25 49.85 Q30.95 53.6 30.95 58.85 30.95 64.1 27.25 67.75 L26.7 68.3 26.7 49.35 M10.45 68.75 L9.35 67.75 Q5.7 64.1 5.7 58.85 5.7 53.6 9.35 49.85 L10.45 48.9 10.45 68.75" fill="#42240e" fill-rule="evenodd" stroke="none"/>
    <path d="M23.4 57.45 L23.4 57.6 23.1 58.5 22.1 59.2 21.25 59.65 21.0 59.7 19.1 59.95 16.7 59.6 14.5 58.95 14.45 58.95 11.95 57.95 11.2 57.65 10.9 57.55 10.75 57.5 10.6 57.5 10.3 57.0 10.35 57.0 11.35 57.25 11.55 57.3 11.95 57.45 13.4 58.0 13.35 58.0 13.8 58.2 14.25 58.35 14.55 58.5 14.6 58.55 14.6 58.5 15.2 58.7 15.25 58.7 16.85 59.15 16.9 59.15 17.55 59.35 19.1 59.5 Q20.45 59.5 21.4 59.1 L21.85 58.85 23.1 57.9 23.1 57.85 23.2 57.8 23.25 57.75 23.4 57.45" fill="#1c1c1c" fill-rule="evenodd" stroke="none"/>
    <path d="M25.95 55.35 Q25.55 55.7 25.05 57.25 L25.5 57.85 26.05 57.9 26.95 57.2 27.4 56.2 27.25 55.05 26.95 54.95 Q26.35 54.9 25.95 55.35 M24.25 57.9 L24.4 57.7 24.5 57.3 24.55 57.2 Q25.15 55.4 25.65 55.0 26.15 54.35 27.0 54.5 L27.45 54.7 27.5 54.7 28.15 55.35 28.35 56.65 Q28.35 57.35 27.8 57.95 L26.65 58.8 26.6 58.8 Q25.9 59.0 25.5 58.55 L25.55 58.55 25.35 58.4 25.25 58.25 25.15 58.2 25.05 58.05 25.0 58.0 24.8 57.8 24.8 57.9 24.7 58.1 25.3 58.75 25.5 58.9 26.25 59.15 Q27.15 59.15 27.8 58.3 28.45 57.45 28.45 56.55 28.45 55.35 27.65 54.35 26.85 53.35 26.05 53.35 25.25 53.35 24.7 54.35 24.1 55.3 22.7 54.6 L22.1 54.45 22.15 54.5 22.05 54.45 20.15 54.25 18.15 54.35 15.65 54.7 11.45 54.7 10.75 54.8 9.15 55.4 Q8.05 56.2 8.0 57.05 8.0 57.85 8.7 57.85 L9.55 57.75 9.65 57.75 9.9 57.7 9.95 57.7 11.0 58.35 11.2 58.45 10.7 58.3 Q12.1 59.15 12.5 60.15 L13.4 62.0 13.4 62.05 Q13.75 62.6 14.25 62.95 L14.4 63.0 Q16.15 64.1 18.2 64.1 20.15 63.85 21.55 62.65 L21.6 62.65 21.9 62.35 23.4 60.25 24.0 58.65 24.05 58.65 24.2 58.2 24.2 58.05 24.25 57.9 M25.0 59.1 L24.5 58.6 24.45 58.75 Q23.8 60.95 22.25 62.65 L22.1 62.8 Q23.25 63.45 23.2 64.3 L23.2 65.1 Q23.25 66.1 21.65 66.85 20.2 67.45 18.2 67.45 16.2 67.45 14.7 66.85 13.15 66.1 13.2 65.1 L13.2 64.3 Q13.2 63.65 13.8 63.15 L13.05 62.25 Q12.6 61.65 12.1 60.35 11.6 59.15 9.6 58.2 L8.7 58.3 Q7.55 58.3 7.55 57.05 7.55 56.2 8.45 55.4 L9.05 55.1 Q11.35 54.05 13.85 54.45 L16.3 54.35 17.85 54.1 20.2 53.9 Q21.6 53.85 22.85 54.35 24.0 54.8 24.55 53.85 25.1 52.9 26.1 52.9 27.0 52.9 28.0 54.05 28.9 55.2 28.9 56.55 28.9 57.65 28.2 58.6 27.35 59.6 26.25 59.6 25.7 59.6 25.25 59.25 L25.25 59.3 25.05 59.15 25.0 59.1 M23.4 57.45 L23.55 56.7 Q23.55 56.0 22.7 55.55 L22.05 55.3 22.0 55.3 Q21.25 54.95 20.15 54.95 L17.65 55.05 16.3 55.2 13.85 55.05 13.3 55.0 15.65 54.95 17.1 54.75 18.05 54.55 20.15 54.5 22.15 54.85 22.9 55.15 22.95 55.15 23.05 55.2 Q24.0 55.8 23.95 56.75 L23.95 56.8 23.85 57.55 23.6 57.9 23.6 57.95 23.55 58.1 23.4 58.25 23.1 58.5 23.4 57.6 23.4 57.45 M8.95 57.1 L10.3 57.0 10.6 57.5 10.3 57.45 8.85 57.6 8.65 57.6 8.6 57.5 8.55 57.45 Q8.5 57.35 8.6 57.3 L8.6 57.2 8.7 57.15 8.95 57.1 M27.9 56.65 L27.85 56.15 27.85 56.2 Q27.85 56.85 27.35 57.45 L26.15 58.3 26.1 58.3 26.05 58.35 26.5 58.35 27.45 57.7 27.9 56.65 M22.75 64.65 L22.75 64.3 Q22.7 63.65 21.8 63.1 20.3 64.3 18.25 64.55 L18.2 64.55 Q16.05 64.55 14.15 63.45 13.65 63.85 13.65 64.3 L13.65 65.1 13.7 65.25 Q13.8 65.95 14.9 66.4 16.3 67.0 18.2 67.0 20.1 67.0 21.45 66.4 22.6 65.95 22.75 65.25 L22.75 65.1 22.75 64.65" fill="#666666" fill-rule="evenodd" stroke="none"/>
    <path d="M25.35 58.4 L25.55 58.55 25.5 58.55 Q25.9 59.0 26.6 58.8 L26.65 58.8 27.8 57.95 Q28.35 57.35 28.35 56.65 L28.15 55.35 27.5 54.7 27.45 54.7 27.0 54.5 Q26.15 54.35 25.65 55.0 25.15 55.4 24.55 57.2 L24.5 57.3 24.4 57.7 24.25 57.9 24.15 57.8 24.35 56.55 Q24.35 55.55 22.7 54.6 24.1 55.3 24.7 54.35 25.25 53.35 26.05 53.35 26.85 53.35 27.65 54.35 28.45 55.35 28.45 56.55 28.45 57.45 27.8 58.3 27.15 59.15 26.25 59.15 L25.5 58.9 25.3 58.75 25.35 58.4" fill="#e9e9e9" fill-rule="evenodd" stroke="none"/>
    <path d="M24.25 57.9 L24.2 58.05 24.2 58.2 24.05 58.65 24.0 58.65 23.4 60.25 21.9 62.35 21.6 62.65 21.55 62.65 Q20.15 63.85 18.2 64.1 16.15 64.1 14.4 63.0 L14.25 62.95 Q13.75 62.6 13.4 62.05 L13.4 62.0 12.5 60.15 Q12.1 59.15 10.7 58.3 L11.2 58.45 11.0 58.35 9.95 57.7 Q10.75 57.7 12.4 58.5 L12.45 58.55 12.55 58.7 12.55 58.8 12.5 58.85 12.45 58.9 14.0 60.75 15.05 62.15 Q15.85 63.0 17.4 63.3 L18.0 63.35 Q20.55 63.35 22.4 60.9 L23.75 58.65 24.15 57.8 24.25 57.9 M25.3 58.75 L24.7 58.1 24.8 57.9 24.8 57.8 25.0 58.0 25.05 58.05 25.15 58.2 25.25 58.25 25.35 58.4 25.3 58.75 M13.3 55.0 L13.85 55.05 16.3 55.2 17.65 55.05 20.15 54.95 Q21.25 54.95 22.0 55.3 L22.05 55.3 22.7 55.55 Q23.55 56.0 23.55 56.7 L23.4 57.45 23.25 57.75 23.2 57.8 23.1 57.85 22.9 57.5 22.7 57.3 21.7 56.65 20.95 56.35 20.9 56.35 19.55 56.0 16.35 55.8 Q13.9 55.9 11.55 57.3 L11.35 57.25 10.35 57.0 10.3 57.0 8.95 57.1 Q9.25 56.2 9.5 55.95 9.85 55.65 10.45 55.4 L11.05 55.35 Q12.1 54.9 13.3 55.0 M27.9 56.65 L27.45 57.7 26.5 58.35 26.05 58.35 26.1 58.3 26.15 58.3 27.35 57.45 Q27.85 56.85 27.85 56.2 L27.85 56.15 27.9 56.65 M13.65 65.1 L13.65 64.3 Q13.65 63.85 14.15 63.45 16.05 64.55 18.2 64.55 L18.25 64.55 Q20.3 64.3 21.8 63.1 22.7 63.65 22.75 64.3 L22.75 64.65 20.65 64.65 19.95 64.7 13.65 65.1 M22.75 65.25 Q22.6 65.95 21.45 66.4 20.1 67.0 18.2 67.0 16.3 67.0 14.9 66.4 13.8 65.95 13.7 65.25 L14.8 65.85 Q16.25 66.45 18.2 66.45 20.15 66.45 21.55 65.85 L22.75 65.25" fill="#adadad" fill-rule="evenodd" stroke="none"/>
    <path d="M9.95 57.7 L9.9 57.7 9.65 57.75 9.55 57.75 8.7 57.85 Q8.0 57.85 8.0 57.05 8.05 56.2 9.15 55.4 L10.75 54.8 11.45 54.7 9.7 55.4 Q8.9 56.0 8.6 56.9 L8.6 57.2 8.6 57.3 Q8.5 57.35 8.55 57.45 L8.6 57.5 8.65 57.6 8.85 57.6 10.3 57.45 10.6 57.5 10.75 57.5 10.9 57.55 11.2 57.65 11.95 57.95 14.45 58.95 14.5 58.95 16.7 59.6 19.1 59.95 21.0 59.7 21.25 59.65 22.1 59.2 23.1 58.5 23.4 58.25 23.55 58.1 23.6 57.95 23.6 57.9 23.85 57.55 23.95 56.8 23.95 56.75 Q24.0 55.8 23.05 55.2 L22.95 55.15 22.9 55.15 22.15 54.85 20.15 54.5 18.05 54.55 17.55 54.6 17.15 54.7 17.65 54.55 17.7 54.55 18.15 54.35 20.15 54.25 22.05 54.45 22.15 54.5 22.1 54.45 22.7 54.6 Q24.35 55.55 24.35 56.55 L24.15 57.8 23.75 58.65 23.65 58.75 23.6 58.8 23.45 58.95 22.0 59.9 20.2 60.6 18.45 60.6 16.25 60.35 14.2 59.75 13.85 59.6 13.25 59.25 12.55 58.9 12.5 58.85 12.55 58.8 12.55 58.7 12.45 58.55 12.4 58.5 Q10.75 57.7 9.95 57.7" fill="#ffffff" fill-rule="evenodd" stroke="none"/>
    <path d="M11.45 54.7 L15.65 54.7 18.15 54.35 17.7 54.55 17.65 54.55 17.15 54.7 17.55 54.6 18.05 54.55 17.1 54.75 15.65 54.95 13.3 55.0 Q12.1 54.9 11.05 55.35 L10.45 55.4 Q9.85 55.65 9.5 55.95 9.25 56.2 8.95 57.1 L8.7 57.15 8.6 57.2 8.6 56.9 Q8.9 56.0 9.7 55.4 L11.45 54.7 M12.5 58.85 L12.55 58.9 13.25 59.25 13.85 59.6 14.2 59.75 16.25 60.35 18.45 60.6 20.2 60.6 22.0 59.9 23.45 58.95 23.6 58.8 23.65 58.75 23.75 58.65 22.4 60.9 Q20.55 63.35 18.0 63.35 L17.4 63.3 Q15.85 63.0 15.05 62.15 L14.0 60.75 12.45 58.9 12.5 58.85 M22.75 64.65 L22.75 65.1 22.75 65.25 21.55 65.85 Q20.15 66.45 18.2 66.45 16.25 66.45 14.8 65.85 L13.7 65.25 13.65 65.1 19.95 64.7 20.65 64.65 22.75 64.65" fill="#d9d9d9" fill-rule="evenodd" stroke="none"/>
    <path d="M25.95 55.35 Q26.35 54.9 26.95 54.95 L27.25 55.05 27.4 56.2 26.95 57.2 26.05 57.9 25.5 57.85 25.05 57.25 Q25.55 55.7 25.95 55.35 M14.0 53.7 L16.2 53.6 17.75 53.35 20.2 53.15 Q21.75 53.1 23.15 53.65 L23.9 53.5 Q24.7 52.15 26.1 52.15 27.3 52.1 28.6 53.55 L28.6 53.6 Q29.65 54.95 29.65 56.55 29.65 57.9 28.8 59.05 L28.8 59.1 Q27.7 60.35 26.25 60.35 L25.05 60.05 24.85 59.9 24.85 59.95 Q24.25 61.4 23.25 62.7 24.05 63.4 23.95 64.3 L23.95 64.35 23.95 65.1 Q24.1 66.55 22.0 67.55 L21.95 67.55 18.2 68.2 14.45 67.55 14.4 67.55 Q12.3 66.5 12.45 65.1 L12.45 64.3 Q12.45 63.7 12.8 63.15 L12.45 62.7 11.4 60.65 Q11.0 59.75 9.5 59.0 L8.7 59.05 Q6.8 59.1 6.8 57.05 6.75 55.9 7.95 54.85 L8.1 54.75 8.75 54.4 8.75 54.45 Q11.25 53.25 14.0 53.7 M25.05 59.15 L25.25 59.3 25.25 59.25 Q25.7 59.6 26.25 59.6 27.35 59.6 28.2 58.6 28.9 57.65 28.9 56.55 28.9 55.2 28.0 54.05 27.0 52.9 26.1 52.9 25.1 52.9 24.55 53.85 24.0 54.8 22.85 54.35 21.6 53.85 20.2 53.9 L17.85 54.1 16.3 54.35 13.85 54.45 Q11.35 54.05 9.05 55.1 L8.45 55.4 Q7.55 56.2 7.55 57.05 7.55 58.3 8.7 58.3 L9.6 58.2 Q11.6 59.15 12.1 60.35 12.6 61.65 13.05 62.25 L13.8 63.15 Q13.2 63.65 13.2 64.3 L13.2 65.1 Q13.15 66.1 14.7 66.85 16.2 67.45 18.2 67.45 20.2 67.45 21.65 66.85 23.25 66.1 23.2 65.1 L23.2 64.3 Q23.25 63.45 22.1 62.8 L22.25 62.65 Q23.8 60.95 24.45 58.75 L24.5 58.6 25.0 59.1 24.85 59.15 25.05 59.15 M11.55 57.3 Q13.9 55.9 16.35 55.8 L19.55 56.0 20.9 56.35 20.95 56.35 21.7 56.65 22.7 57.3 22.9 57.5 23.1 57.85 23.1 57.9 21.85 58.85 21.4 59.1 Q20.45 59.5 19.1 59.5 L17.55 59.35 16.9 59.15 16.85 59.15 15.25 58.7 15.2 58.7 14.6 58.5 14.6 58.55 14.55 58.5 14.25 58.35 13.8 58.2 13.35 58.0 13.4 58.0 11.95 57.45 11.55 57.3 M26.5 55.85 L26.45 55.95 Q26.2 56.2 25.9 57.15 L25.95 57.15 26.4 56.75 26.65 56.2 26.65 55.75 26.5 55.85 M26.1 57.4 L25.95 57.2 25.9 57.2 25.85 57.25 26.1 57.4" fill="#42240e" fill-rule="evenodd" stroke="none"/>
  </g>
</svg>
