<?xml version="1.0" encoding="UTF-8" standalone="no"?>
<svg xmlns:ffdec="https://www.free-decompiler.com/flash" xmlns:xlink="http://www.w3.org/1999/xlink" ffdec:objectType="shape" height="42.2px" width="41.6px" xmlns="http://www.w3.org/2000/svg">
  <g transform="matrix(1.0, 0.0, 0.0, 1.0, 14.9, 28.1)">
    <path d="M9.95 -3.85 L10.5 -6.3 11.4 -10.9 10.5 -14.0 10.05 -14.95 10.0 -15.0 9.3 -16.8 6.9 -18.8 5.3 -20.0 Q-2.35 -25.9 -9.5 -26.7 L-14.9 -27.1 -12.85 -27.75 -6.6 -28.0 Q-1.8 -27.75 1.0 -26.9 L3.75 -26.15 14.25 -22.05 Q18.55 -14.1 18.55 -3.2 18.55 2.4 17.35 6.55 L14.95 5.85 12.15 5.15 Q11.15 5.0 9.5 4.0 9.95 1.15 9.95 -2.7 L9.95 -3.85" fill="url(#gradient0)" fill-rule="evenodd" stroke="none"/>
    <path d="M14.25 -22.05 L14.9 -21.8 Q19.95 -17.5 22.65 -12.95 L24.5 -8.7 24.7 -4.65 Q24.7 4.7 20.75 12.85 20.15 8.3 17.35 6.55 18.55 2.4 18.55 -3.2 18.55 -14.1 14.25 -22.05" fill="url(#gradient1)" fill-rule="evenodd" stroke="none"/>
    <path d="M9.5 4.0 Q8.8 3.95 8.75 3.15 L8.7 1.45 9.95 -3.85 9.95 -2.7 Q9.95 1.15 9.5 4.0" fill="#b9a99b" fill-opacity="0.29803923" fill-rule="evenodd" stroke="none"/>
    <path d="M24.5 -8.7 L24.55 -9.65 26.4 -6.65 26.6 -7.55 26.7 -4.65 Q26.7 5.6 22.4 14.1 L20.85 13.05 20.75 12.85 Q24.7 4.7 24.7 -4.65 L24.5 -8.7" fill="#8e7c71" fill-opacity="0.69411767" fill-rule="evenodd" stroke="none"/>
  </g>
  <defs>
    <linearGradient gradientTransform="matrix(0.0, -0.0122, 0.0293, 0.0, 8.3, -12.75)" gradientUnits="userSpaceOnUse" id="gradient0" spreadMethod="pad" x1="-819.2" x2="819.2">
      <stop offset="0.0" stop-color="#b9a99b" stop-opacity="0.4"/>
      <stop offset="1.0" stop-color="#ebe8e0"/>
    </linearGradient>
    <linearGradient gradientTransform="matrix(0.0029, -0.008, 0.0328, 0.0121, 50.9, 6.95)" gradientUnits="userSpaceOnUse" id="gradient1" spreadMethod="pad" x1="-819.2" x2="819.2">
      <stop offset="0.0" stop-color="#8e7c71" stop-opacity="0.4"/>
      <stop offset="1.0" stop-color="#cbc8c0"/>
    </linearGradient>
  </defs>
</svg>
