<?xml version="1.0" encoding="UTF-8" standalone="no"?>
<svg xmlns:ffdec="https://www.free-decompiler.com/flash" xmlns:xlink="http://www.w3.org/1999/xlink" ffdec:objectType="shape" height="47.85px" width="78.65px" xmlns="http://www.w3.org/2000/svg">
  <g transform="matrix(1.0, 0.0, 0.0, 1.0, 50.7, 53.15)">
    <path d="M-39.5 -28.15 L-42.85 -27.8 Q-48.55 -27.8 -50.1 -32.85 -51.9 -38.45 -48.5 -44.85 -46.75 -48.3 -44.5 -50.75 -42.15 -53.4 -40.3 -53.15 L-38.5 -52.45 Q-37.55 -51.95 -34.75 -51.6 L-29.9 -51.1 -27.85 -51.05 -23.3 -51.35 -18.55 -51.75 Q-7.1 -51.75 1.8 -47.4 4.7 -46.0 9.0 -43.25 L16.0 -38.95 Q19.4 -37.05 20.7 -34.45 L21.3 -32.1 Q21.3 -31.6 20.95 -31.05 20.55 -30.5 20.55 -30.0 L22.85 -27.9 26.0 -24.8 27.2 -22.45 Q27.95 -20.5 27.95 -19.35 27.95 -18.4 25.8 -18.3 26.45 -15.35 26.75 -11.2 27.05 -7.1 26.8 -6.5 L25.6 -5.3 24.75 -5.75 24.7 -8.25 24.0 -9.4 23.9 -9.95 24.05 -12.2 Q24.2 -13.2 24.8 -13.2 25.4 -13.2 25.4 -13.65 L25.25 -14.9 24.8 -16.75 24.35 -18.65 Q24.35 -19.4 25.05 -19.55 L26.45 -19.8 22.5 -26.55 20.55 -27.95 Q19.2 -29.0 19.2 -30.3 19.2 -30.8 19.6 -31.35 L19.95 -32.45 Q19.95 -36.85 1.65 -46.1 L0.7 -46.5 0.15 -46.75 -7.95 -49.6 -13.15 -50.15 -17.8 -50.45 -27.85 -49.75 -34.95 -50.8 Q-37.7 -51.15 -38.9 -51.7 L-40.05 -52.25 Q-42.1 -52.55 -44.2 -50.15 -45.9 -48.2 -47.6 -44.75 -50.35 -39.25 -49.2 -34.65 -45.2 -28.45 -39.5 -28.15" fill="#606060" fill-rule="evenodd" stroke="none"/>
    <path d="M24.0 -9.4 L21.15 -13.05 16.9 -18.0 Q16.05 -20.55 17.0 -20.95 L19.05 -21.15 16.35 -25.55 17.3 -26.1 19.4 -26.4 17.9 -28.4 15.2 -31.2 Q12.65 -33.05 3.35 -33.05 L-9.0 -31.65 -13.5 -30.3 Q-16.35 -29.15 -17.4 -28.2 L-17.8 -28.3 -17.95 -28.5 Q-16.9 -32.1 -6.55 -33.75 3.45 -35.35 10.7 -33.6 L6.8 -34.65 1.95 -35.25 Q-2.8 -35.25 -19.4 -31.55 L-19.6 -31.5 Q-18.3 -32.1 -17.3 -33.75 L-14.85 -37.65 Q-14.05 -37.3 -12.45 -34.7 L-10.95 -36.4 -10.2 -36.8 -9.0 -35.35 -7.65 -35.55 -7.6 -35.9 Q-7.3 -36.95 -6.45 -37.8 -4.35 -36.05 -3.7 -36.05 L-3.65 -35.9 -3.65 -36.5 Q-3.65 -37.55 -4.8 -39.7 L-4.7 -40.25 -4.5 -40.1 Q-3.35 -39.8 -2.1 -38.4 -0.8 -37.0 0.15 -36.75 0.35 -37.5 0.15 -37.5 L0.75 -38.1 3.45 -37.05 -0.35 -42.35 -0.3 -42.75 4.95 -38.7 7.85 -36.25 8.1 -36.05 Q4.5 -42.05 0.8 -44.75 L-4.75 -47.75 -6.95 -48.3 -4.95 -46.15 -5.0 -45.65 -9.2 -47.9 Q-12.6 -49.45 -16.3 -49.5 L-16.15 -49.45 -16.1 -48.85 -16.15 -48.25 -16.2 -48.4 -21.6 -48.6 -21.0 -47.85 -21.05 -47.3 -24.6 -47.4 -27.85 -47.6 -29.15 -48.15 -30.05 -48.5 -32.5 -49.2 -34.45 -49.75 Q-34.9 -49.9 -35.55 -50.3 L-33.9 -47.7 -31.1 -42.95 -30.75 -42.1 Q-32.35 -42.3 -35.3 -47.25 -37.8 -51.4 -40.35 -51.7 -40.75 -51.75 -42.0 -50.4 L-43.45 -48.5 Q-45.55 -43.65 -44.0 -38.0 -41.45 -32.3 -41.3 -31.0 L-40.9 -30.75 Q-41.6 -37.25 -41.5 -41.1 L-41.2 -42.0 Q-40.5 -40.5 -39.65 -36.65 -38.5 -31.45 -37.3 -28.05 L-39.5 -28.15 Q-45.2 -28.45 -49.2 -34.65 -50.35 -39.25 -47.6 -44.75 -45.9 -48.2 -44.2 -50.15 -42.1 -52.55 -40.05 -52.25 L-38.9 -51.7 Q-37.7 -51.15 -34.95 -50.8 L-27.85 -49.75 -17.8 -50.45 -13.15 -50.15 -7.95 -49.6 0.15 -46.75 0.7 -46.5 1.6 -46.0 1.65 -46.1 Q19.95 -36.85 19.95 -32.45 L19.6 -31.35 Q19.2 -30.8 19.2 -30.3 19.2 -29.0 20.55 -27.95 L22.5 -26.55 26.45 -19.8 25.05 -19.55 Q24.35 -19.4 24.35 -18.65 L24.8 -16.75 25.25 -14.9 25.4 -13.65 Q25.4 -13.2 24.8 -13.2 24.2 -13.2 24.05 -12.2 L23.9 -9.95 24.0 -9.4 M11.3 -35.65 L9.1 -38.85 6.5 -41.9 7.0 -41.15 9.85 -37.0 10.9 -35.55 11.3 -35.65 M17.25 -21.8 Q17.8 -21.75 16.8 -21.75 L14.6 -22.95 10.3 -25.6 Q8.65 -26.55 7.15 -27.1 L5.55 -27.65 5.6 -28.1 Q5.7 -28.4 6.35 -28.4 8.15 -28.4 11.85 -26.05 15.25 -23.9 17.25 -21.8 M-21.9 -30.8 L-22.2 -30.7 -22.55 -30.65 -21.9 -30.8 M14.1 -34.95 L13.6 -36.25 12.55 -37.6 12.35 -37.1 Q13.0 -35.8 14.1 -34.95 M14.7 -27.05 Q14.15 -27.2 12.25 -28.35 10.4 -29.45 10.2 -29.75 L10.35 -29.9 10.75 -30.1 13.0 -28.7 Q14.3 -27.65 14.7 -27.05" fill="#989898" fill-rule="evenodd" stroke="none"/>
    <path d="M16.9 -18.0 Q10.05 -24.05 1.5 -26.05 L-11.35 -27.3 -8.45 -29.4 Q-7.7 -30.05 -7.7 -30.35 -7.7 -31.35 -7.8 -30.6 L-14.1 -28.8 -16.6 -27.75 -17.4 -28.2 Q-16.35 -29.15 -13.5 -30.3 L-9.0 -31.65 3.35 -33.05 Q12.65 -33.05 15.2 -31.2 L17.9 -28.4 19.4 -26.4 17.3 -26.1 16.35 -25.55 19.05 -21.15 17.0 -20.95 Q16.05 -20.55 16.9 -18.0 M-27.85 -29.2 L-27.85 -29.85 -27.85 -30.15 -27.9 -30.15 -28.5 -31.55 Q-29.45 -34.35 -30.75 -37.15 L-33.65 -42.75 Q-37.1 -48.6 -40.35 -50.65 L-40.95 -50.5 -41.25 -49.9 -41.35 -49.5 -41.25 -49.55 Q-38.55 -48.6 -37.1 -44.2 -36.1 -41.35 -33.55 -28.45 L-37.3 -28.05 Q-38.5 -31.45 -39.65 -36.65 -40.5 -40.5 -41.2 -42.0 L-41.5 -41.1 Q-41.6 -37.25 -40.9 -30.75 L-41.3 -31.0 Q-41.45 -32.3 -44.0 -38.0 -45.55 -43.65 -43.45 -48.5 L-42.0 -50.4 Q-40.75 -51.75 -40.35 -51.7 -37.8 -51.4 -35.3 -47.25 -32.35 -42.3 -30.75 -42.1 L-31.1 -42.95 -33.9 -47.7 -35.55 -50.3 Q-34.9 -49.9 -34.45 -49.75 L-32.5 -49.2 -30.05 -48.5 -29.15 -48.15 -27.85 -47.6 -24.6 -47.4 -21.05 -47.3 -21.0 -47.85 -21.6 -48.6 -16.2 -48.4 -16.15 -48.25 -16.1 -48.85 -16.15 -49.45 -16.3 -49.5 Q-12.6 -49.45 -9.2 -47.9 L-5.0 -45.65 -4.95 -46.15 -6.95 -48.3 -4.75 -47.75 0.8 -44.75 Q4.5 -42.05 8.1 -36.05 L7.85 -36.25 4.95 -38.7 -0.3 -42.75 -0.35 -42.35 3.45 -37.05 0.75 -38.1 0.15 -37.5 Q0.35 -37.5 0.15 -36.75 -0.8 -37.0 -2.1 -38.4 -3.35 -39.8 -4.5 -40.1 L-4.7 -40.25 -4.8 -39.7 Q-3.65 -37.55 -3.65 -36.5 L-3.65 -35.9 -3.7 -36.05 Q-4.35 -36.05 -6.45 -37.8 -7.3 -36.95 -7.6 -35.9 L-7.65 -35.55 -9.0 -35.35 -10.2 -36.8 -10.95 -36.4 -12.45 -34.7 Q-14.05 -37.3 -14.85 -37.65 L-17.3 -33.75 Q-18.3 -32.1 -19.6 -31.5 L-20.95 -31.1 Q-24.0 -35.85 -27.85 -44.1 -29.15 -46.3 -30.15 -47.1 -30.7 -47.55 -31.15 -47.6 -31.75 -47.7 -31.55 -47.3 L-30.25 -45.15 Q-29.7 -44.15 -28.75 -40.15 L-27.85 -36.35 -27.35 -35.5 Q-24.8 -30.8 -25.35 -30.8 -25.95 -30.8 -25.75 -30.5 L-25.4 -29.8 -27.85 -29.2 M0.7 -46.5 L1.65 -46.1 1.6 -46.0 0.7 -46.5 M11.3 -35.65 L10.9 -35.55 9.85 -37.0 7.0 -41.15 6.5 -41.9 9.1 -38.85 11.3 -35.65 M1.45 -29.7 L0.75 -30.25 0.3 -30.2 Q0.7 -29.55 1.35 -29.55 L1.45 -29.7 M17.25 -21.8 Q15.25 -23.9 11.85 -26.05 8.15 -28.4 6.35 -28.4 5.7 -28.4 5.6 -28.1 L5.55 -27.65 7.15 -27.1 Q8.65 -26.55 10.3 -25.6 L14.6 -22.95 16.8 -21.75 Q17.8 -21.75 17.25 -21.8 M14.1 -34.95 Q13.0 -35.8 12.35 -37.1 L12.55 -37.6 13.6 -36.25 14.1 -34.95 M14.7 -27.05 Q14.3 -27.65 13.0 -28.7 L10.75 -30.1 10.35 -29.9 10.2 -29.75 Q10.4 -29.45 12.25 -28.35 14.15 -27.2 14.7 -27.05 M-36.2 -36.5 L-37.8 -39.8 -39.1 -42.55 -38.85 -40.6 Q-38.55 -37.75 -37.6 -36.5 L-36.7 -35.95 Q-36.2 -35.9 -36.15 -36.15 L-36.2 -36.5 M-1.55 -30.5 Q-2.5 -31.25 -4.3 -31.1 -6.2 -30.9 -6.65 -29.75 L-6.45 -29.3 -6.25 -29.2 -5.7 -29.15 -3.6 -29.65 Q-1.95 -30.2 -1.55 -30.5 M-8.2 -37.0 Q-9.65 -40.1 -12.2 -40.65 -9.3 -37.6 -8.25 -36.9 L-8.2 -37.0 M-8.65 -41.7 Q-8.8 -43.9 -11.05 -45.95 -12.85 -47.6 -13.4 -47.6 L-13.95 -47.55 -13.9 -47.4 -13.95 -47.15 -13.1 -46.05 -12.15 -44.7 -19.4 -45.75 -20.15 -45.55 -20.25 -45.25 -17.9 -43.05 -17.95 -43.05 Q-18.3 -43.1 -21.1 -44.3 -23.8 -45.45 -24.05 -45.45 L-24.65 -45.3 -24.65 -44.8 -24.1 -43.9 -23.1 -42.6 Q-23.8 -42.8 -24.6 -43.55 -25.2 -44.15 -26.0 -44.15 L-26.6 -44.0 -26.55 -43.5 -18.75 -37.2 -18.4 -37.2 -18.3 -37.75 Q-18.3 -38.3 -20.9 -41.9 L-19.4 -41.45 -17.3 -40.35 Q-15.5 -39.45 -13.75 -39.45 L-13.7 -39.4 -13.7 -40.1 -15.3 -43.8 -8.9 -41.55 -8.4 -41.6 -8.65 -41.7 M-3.5 -40.55 Q-3.5 -41.45 -4.95 -43.0 -6.55 -44.75 -8.85 -45.95 L-8.4 -45.0 Q-5.45 -40.4 -3.55 -40.4 L-3.5 -40.55 M-2.05 -41.25 Q-2.25 -42.25 -2.85 -43.25 L-3.95 -44.4 -4.05 -44.1 -2.15 -41.15 -2.05 -41.25 M-41.7 -47.15 L-42.2 -46.55 Q-42.55 -45.9 -42.5 -44.75 -42.5 -43.65 -42.15 -42.9 L-42.05 -43.05 -41.75 -45.05 -41.7 -47.15" fill="#d1d1d1" fill-rule="evenodd" stroke="none"/>
    <path d="M-11.35 -27.3 L-13.5 -27.35 -16.6 -27.75 -14.1 -28.8 -7.8 -30.6 Q-7.7 -31.35 -7.7 -30.35 -7.7 -30.05 -8.45 -29.4 L-11.35 -27.3 M-28.8 -29.75 L-31.25 -29.05 -33.55 -28.45 Q-36.1 -41.35 -37.1 -44.2 -38.55 -48.6 -41.25 -49.55 L-41.35 -49.5 -41.25 -49.9 -40.95 -50.5 -40.35 -50.65 Q-37.1 -48.6 -33.65 -42.75 L-30.75 -37.15 Q-29.45 -34.35 -28.5 -31.55 L-27.9 -30.15 -28.8 -29.75 M1.45 -29.7 L1.35 -29.55 Q0.7 -29.55 0.3 -30.2 L0.75 -30.25 1.45 -29.7 M-20.95 -31.1 L-21.9 -30.8 -22.55 -30.65 -22.2 -30.7 -25.4 -29.8 -25.75 -30.5 Q-25.95 -30.8 -25.35 -30.8 -24.8 -30.8 -27.35 -35.5 L-27.85 -36.35 -28.75 -40.15 Q-29.7 -44.15 -30.25 -45.15 L-31.55 -47.3 Q-31.75 -47.7 -31.15 -47.6 -30.7 -47.55 -30.15 -47.1 -29.15 -46.3 -27.85 -44.1 -24.0 -35.85 -20.95 -31.1 M-41.7 -47.15 L-41.75 -45.05 -42.05 -43.05 -42.15 -42.9 Q-42.5 -43.65 -42.5 -44.75 -42.55 -45.9 -42.2 -46.55 L-41.7 -47.15 M-2.05 -41.25 L-2.15 -41.15 -4.05 -44.1 -3.95 -44.4 -2.85 -43.25 Q-2.25 -42.25 -2.05 -41.25 M-3.5 -40.55 L-3.55 -40.4 Q-5.45 -40.4 -8.4 -45.0 L-8.85 -45.95 Q-6.55 -44.75 -4.95 -43.0 -3.5 -41.45 -3.5 -40.55 M-8.65 -41.7 L-8.4 -41.6 -8.9 -41.55 -15.3 -43.8 -13.7 -40.1 -13.7 -39.4 -13.75 -39.45 Q-15.5 -39.45 -17.3 -40.35 L-19.4 -41.45 -20.9 -41.9 Q-18.3 -38.3 -18.3 -37.75 L-18.4 -37.2 -18.75 -37.2 -26.55 -43.5 -26.6 -44.0 -26.0 -44.15 Q-25.2 -44.15 -24.6 -43.55 -23.8 -42.8 -23.1 -42.6 L-24.1 -43.9 -24.65 -44.8 -24.65 -45.3 -24.05 -45.45 Q-23.8 -45.45 -21.1 -44.3 -18.3 -43.1 -17.95 -43.05 L-17.9 -43.05 -20.25 -45.25 -20.15 -45.55 -19.4 -45.75 -12.15 -44.7 -13.1 -46.05 -13.95 -47.15 -13.9 -47.4 -13.95 -47.55 -13.4 -47.6 Q-12.85 -47.6 -11.05 -45.95 -8.8 -43.9 -8.65 -41.7 M-8.2 -37.0 L-8.25 -36.9 Q-9.3 -37.6 -12.2 -40.65 -9.65 -40.1 -8.2 -37.0 M-1.55 -30.5 Q-1.95 -30.2 -3.6 -29.65 L-5.7 -29.15 -6.25 -29.2 -6.45 -29.3 -6.65 -29.75 Q-6.2 -30.9 -4.3 -31.1 -2.5 -31.25 -1.55 -30.5 M-36.2 -36.5 L-36.15 -36.15 Q-36.2 -35.9 -36.7 -35.95 L-37.6 -36.5 Q-38.55 -37.75 -38.85 -40.6 L-39.1 -42.55 -37.8 -39.8 -36.2 -36.5" fill="#ffffff" fill-rule="evenodd" stroke="none"/>
    <path d="M-17.95 -28.5 L-25.95 -29.15 -27.85 -28.95 -27.85 -29.2 -25.4 -29.8 -22.2 -30.7 -21.9 -30.8 -20.95 -31.1 -19.6 -31.5 -19.4 -31.55 Q-2.8 -35.25 1.95 -35.25 L6.8 -34.65 10.7 -33.6 Q3.45 -35.35 -6.55 -33.75 -16.9 -32.1 -17.95 -28.5 M-27.85 -29.85 L-28.8 -29.75 -27.9 -30.15 -27.85 -30.15 -27.85 -29.85" fill="#d1d1d1" fill-opacity="0.5019608" fill-rule="evenodd" stroke="none"/>
  </g>
</svg>
