<?xml version="1.0" encoding="UTF-8" standalone="no"?>
<svg xmlns:ffdec="https://www.free-decompiler.com/flash" xmlns:xlink="http://www.w3.org/1999/xlink" ffdec:objectType="shape" height="110.45px" width="60.55px" xmlns="http://www.w3.org/2000/svg">
  <g transform="matrix(1.0, 0.0, 0.0, 1.0, 26.85, 101.45)">
    <path d="M6.15 -97.85 L6.35 -97.95 7.3 -98.3 Q7.8 -98.4 7.7 -97.85 L6.75 -97.05 4.6 -95.6 3.55 -94.85 Q1.1 -93.05 0.3 -92.25 L-4.05 -87.55 -4.75 -86.5 -5.9 -84.5 -6.75 -82.6 -8.2 -78.65 -8.45 -77.75 -8.85 -76.75 Q-9.1 -75.75 -8.8 -74.6 L-8.7 -74.3 Q-7.05 -69.1 -7.05 -63.25 L-7.45 -41.5 -7.35 -34.05 -7.15 -27.75 -7.2 -20.2 -7.1 -18.65 -6.55 -17.75 Q-6.4 -16.25 -4.05 -15.55 L-4.1 -15.55 Q-3.95 -11.3 -4.05 -3.65 L-5.2 -3.45 -5.35 -14.55 -5.25 -14.5 -4.85 -15.05 -8.25 -16.8 -8.4 -56.6 Q-7.65 -68.15 -9.9 -76.45 L-9.95 -76.55 -9.85 -76.95 -9.25 -78.7 -9.0 -79.45 -8.7 -80.35 -8.65 -80.45 -8.55 -80.75 -8.65 -80.55 -8.35 -81.55 -7.05 -84.35 -5.45 -87.4 -5.35 -87.5 -5.3 -87.55 Q-2.75 -90.95 0.0 -93.3 L3.15 -95.8 4.7 -96.95 5.1 -97.2 Q5.65 -97.35 6.1 -97.8 L6.15 -97.85 M4.8 -100.65 L5.6 -100.25 Q6.0 -99.85 6.05 -99.3 6.0 -98.75 5.6 -98.35 5.2 -97.95 4.65 -97.9 L3.85 -98.2 3.7 -98.35 Q3.3 -98.75 3.3 -99.3 3.3 -99.85 3.65 -100.25 L3.7 -100.3 Q4.1 -100.65 4.65 -100.65 L4.8 -100.65 M20.25 -84.5 L20.75 -82.7 17.55 -81.75 15.65 -81.3 11.3 -80.3 3.55 -78.3 3.45 -79.05 3.15 -79.75 8.2 -81.15 15.6 -83.3 17.0 -83.75 20.25 -84.5 M1.45 -80.65 L2.35 -80.55 2.6 -80.2 0.7 -80.1 0.75 -80.35 1.45 -80.65 M2.4 -77.25 L3.3 -77.6 3.25 -77.15 2.5 -76.7 1.75 -76.55 1.6 -76.8 2.4 -77.25 M33.25 -24.65 L31.5 -23.85 29.05 -28.7 26.5 -34.4 22.6 -42.85 22.6 -43.05 22.45 -46.75 25.9 -39.7 30.95 -29.6 33.25 -24.65 M21.5 -50.75 L21.4 -50.75 21.25 -51.4 21.55 -51.45 21.9 -50.85 22.05 -50.5 21.45 -50.65 21.5 -50.75 M11.8 -41.65 Q11.75 -41.1 11.35 -40.7 L11.2 -40.55 10.4 -40.25 Q9.85 -40.3 9.45 -40.7 9.05 -41.1 9.05 -41.65 9.05 -42.2 9.4 -42.6 L9.45 -42.65 Q9.85 -43.0 10.4 -43.0 L10.45 -43.0 Q10.95 -43.0 11.35 -42.6 11.75 -42.2 11.8 -41.65 M12.8 -3.45 L12.8 -1.3 2.15 -1.55 2.1 -1.8 Q1.4 -5.75 1.5 -10.1 L1.6 -12.75 1.8 -14.75 1.85 -15.4 2.0 -15.45 12.7 -15.55 12.8 -15.3 12.8 -14.1 12.7 -14.1 10.55 -14.15 10.55 -14.1 3.55 -13.95 3.55 -2.95 5.0 -2.85 9.65 -2.75 11.05 -2.85 11.15 -3.45 12.3 -3.45 12.8 -3.45 M10.2 -8.75 L10.2 -7.4 10.2 -7.35 4.55 -7.4 4.55 -8.75 10.2 -8.75 M-24.55 -97.7 Q-24.0 -97.7 -23.6 -97.3 -23.2 -96.9 -23.15 -96.35 -23.2 -95.8 -23.6 -95.4 -24.0 -95.0 -24.55 -94.95 L-24.8 -95.0 -25.5 -95.4 Q-25.9 -95.8 -25.9 -96.35 -25.9 -96.9 -25.55 -97.3 L-25.5 -97.35 -25.2 -97.55 -24.55 -97.7 M-26.65 -79.55 L-26.6 -79.85 -25.85 -82.85 -25.6 -83.95 -25.35 -82.8 -25.0 -81.45 -25.65 -78.5 -25.75 -77.35 Q-25.75 -74.35 -24.15 -72.0 L-22.6 -69.5 -21.1 -66.7 Q-18.55 -62.45 -18.0 -61.0 -17.25 -59.05 -17.25 -56.05 -17.25 -53.85 -17.75 -49.7 L-17.8 -49.35 -18.3 -45.65 -18.1 -44.5 -18.6 -43.0 -18.65 -42.85 -20.0 -37.6 -20.9 -34.75 -22.3 -30.05 Q-23.6 -25.75 -23.75 -24.45 L-23.75 -23.85 -23.8 -20.95 Q-23.8 -19.6 -22.55 -17.7 L-21.3 -15.55 -21.3 -15.5 -21.4 -14.55 -21.85 -11.95 -22.35 -9.5 -23.35 -4.95 -23.5 -4.3 -24.0 -4.05 -24.3 -4.25 -24.4 -4.85 -24.35 -5.3 -23.95 -7.45 -23.9 -7.5 Q-23.5 -9.1 -23.5 -10.4 L-23.5 -10.55 -23.0 -12.85 -22.6 -14.75 -22.55 -15.05 -23.3 -16.05 -23.45 -16.25 Q-24.45 -17.5 -24.65 -18.05 -25.05 -19.15 -25.05 -21.1 L-25.05 -24.45 Q-25.0 -27.45 -23.55 -31.1 -21.6 -36.1 -21.05 -38.75 L-20.7 -40.4 -20.05 -43.45 -19.95 -43.45 -19.25 -47.45 Q-18.35 -53.15 -18.35 -56.1 -18.35 -59.0 -19.4 -61.05 L-22.6 -66.8 Q-24.05 -69.7 -25.85 -72.5 -26.85 -74.4 -26.85 -77.35 L-26.65 -79.55 M-6.5 -2.05 Q-6.5 -2.65 -6.2 -2.9 -5.85 -3.0 -5.8 -3.05 -6.0 -1.25 -6.15 -1.2 L-6.4 -1.3 -6.5 -2.05" fill="#6e6e6e" fill-rule="evenodd" stroke="none"/>
    <path d="M2.7 -78.85 L2.8 -78.0 -2.05 -77.0 -2.15 -77.55 -2.35 -78.1 2.35 -79.65 2.7 -78.85 M0.05 -71.45 L-0.6 -71.4 -1.8 -71.4 -3.0 -71.4 -3.65 -71.45 -3.7 -71.6 -3.6 -73.25 Q-3.5 -76.6 -3.2 -78.5 L-3.05 -77.4 -2.9 -76.6 -2.0 -75.7 -1.6 -75.7 Q-0.9 -76.2 -0.7 -76.6 L-0.65 -76.85 -0.25 -76.95 -0.2 -76.8 -0.1 -76.0 0.1 -71.6 0.05 -71.45 M18.35 -53.5 L18.85 -53.8 20.6 -50.75 18.9 -50.75 17.85 -53.3 18.35 -53.5 M18.6 -50.05 L18.75 -48.95 18.85 -48.5 18.9 -48.15 Q19.1 -47.75 19.8 -47.25 L20.2 -47.25 20.5 -47.45 21.1 -48.15 21.25 -48.95 21.3 -49.05 21.4 -50.05 21.6 -48.5 21.85 -44.45 21.9 -43.15 21.9 -43.1 21.85 -43.0 21.2 -42.95 20.0 -42.95 18.8 -42.95 18.5 -42.95 18.15 -43.0 18.1 -43.15 18.15 -43.95 18.4 -48.3 18.45 -48.7 18.55 -49.6 18.6 -50.05 M21.05 -44.9 L20.8 -45.45 20.6 -45.6 20.0 -45.85 19.4 -45.6 Q18.95 -45.3 18.95 -44.9 18.95 -44.5 19.4 -44.2 19.65 -44.0 20.0 -43.95 20.35 -44.0 20.6 -44.2 L21.05 -44.9 M19.4 -50.3 L20.65 -50.3 20.55 -49.0 20.0 -49.05 19.45 -49.0 19.4 -50.3 M-1.8 -72.4 Q-1.45 -72.45 -1.2 -72.65 -0.75 -72.95 -0.75 -73.35 -0.75 -73.75 -1.2 -74.05 L-1.8 -74.3 -2.4 -74.05 -2.85 -73.35 -2.4 -72.65 -1.8 -72.4 M-3.85 -2.55 L-3.65 2.2 -5.0 2.3 -5.3 -2.7 -3.95 -2.95 -3.85 -2.55 M-3.05 1.25 Q-2.5 2.1 -2.05 4.6 L-1.65 7.4 Q-1.65 8.35 -5.65 8.35 L-6.3 8.3 Q-6.25 8.25 -6.35 8.15 -6.2 3.6 -5.85 1.25 L-5.7 2.35 -5.55 3.15 -4.65 4.05 -3.8 3.2 Q-3.25 2.5 -3.05 1.25 M-3.0 5.7 L-4.05 5.4 Q-4.65 5.4 -5.05 5.7 L-5.5 6.4 -5.05 7.1 -4.05 7.4 -3.0 7.1 Q-2.6 6.8 -2.6 6.4 -2.6 6.0 -3.0 5.7" fill="#8c8c8c" fill-rule="evenodd" stroke="none"/>
    <path d="M5.1 -97.2 L4.65 -97.15 Q3.8 -97.15 3.15 -97.8 2.5 -98.45 2.55 -99.3 2.5 -100.15 3.15 -100.8 3.7 -101.3 4.35 -101.4 L4.65 -101.4 Q5.5 -101.45 6.15 -100.8 L6.75 -99.65 6.8 -99.3 Q6.8 -98.45 6.15 -97.85 L6.1 -97.8 Q5.65 -97.35 5.1 -97.2 M4.8 -100.65 L4.65 -100.65 Q4.1 -100.65 3.7 -100.3 L3.65 -100.25 Q3.3 -99.85 3.3 -99.3 3.3 -98.75 3.7 -98.35 L3.85 -98.2 4.65 -97.9 Q5.2 -97.95 5.6 -98.35 6.0 -98.75 6.05 -99.3 6.0 -99.85 5.6 -100.25 L4.8 -100.65 M20.75 -82.7 L20.9 -82.15 16.3 -80.95 15.7 -80.8 12.25 -79.95 5.75 -78.3 5.0 -77.85 2.6 -76.15 1.3 -76.2 0.9 -76.3 0.6 -76.35 0.6 -76.2 0.8 -71.5 Q0.8 -70.85 0.45 -70.75 L-0.6 -70.75 -1.8 -70.75 -3.0 -70.75 -4.05 -70.75 -4.2 -70.85 -4.4 -71.5 -4.05 -78.75 Q-3.8 -79.1 -3.25 -79.1 L-3.25 -79.2 -0.8 -79.2 -0.9 -79.4 -0.75 -79.6 0.15 -80.45 Q0.65 -81.0 1.25 -81.15 L5.05 -80.8 7.35 -81.45 15.5 -83.85 15.6 -83.85 20.1 -85.05 20.25 -84.5 17.0 -83.75 15.6 -83.3 8.2 -81.15 3.15 -79.75 3.45 -79.05 3.55 -78.3 11.3 -80.3 15.65 -81.3 17.55 -81.75 20.75 -82.7 M1.45 -80.65 L0.75 -80.35 0.7 -80.1 2.6 -80.2 2.35 -80.55 1.45 -80.65 M2.7 -78.85 L2.35 -79.65 -2.35 -78.1 -2.15 -77.55 -2.05 -77.0 2.8 -78.0 2.7 -78.85 M2.4 -77.25 L1.6 -76.8 1.75 -76.55 2.5 -76.7 3.25 -77.15 3.3 -77.6 2.4 -77.25 M0.05 -71.45 L0.1 -71.6 -0.1 -76.0 -0.2 -76.8 -0.25 -76.95 -0.65 -76.85 -0.7 -76.6 Q-0.9 -76.2 -1.6 -75.7 L-2.0 -75.7 -2.9 -76.6 -3.05 -77.4 -3.2 -78.5 Q-3.5 -76.6 -3.6 -73.25 L-3.7 -71.6 -3.65 -71.45 -3.0 -71.4 -1.8 -71.4 -0.6 -71.4 0.05 -71.45 M31.5 -23.85 L31.0 -23.6 28.8 -28.1 27.6 -30.65 22.25 -42.3 21.2 -42.3 20.0 -42.3 18.8 -42.3 17.75 -42.3 Q17.4 -42.4 17.4 -43.05 L17.7 -48.9 Q17.45 -49.4 17.6 -50.1 L17.75 -51.2 17.7 -51.45 18.1 -51.6 17.25 -53.35 19.25 -54.35 20.1 -52.6 20.4 -52.7 20.6 -52.6 21.55 -52.0 22.4 -51.1 Q22.55 -47.85 22.65 -47.6 L22.85 -47.15 25.3 -42.15 30.3 -31.95 33.7 -24.9 33.25 -24.65 30.95 -29.6 25.9 -39.7 22.45 -46.75 22.6 -43.05 22.6 -42.85 26.5 -34.4 29.05 -28.7 31.5 -23.85 M18.35 -53.5 L17.85 -53.3 18.9 -50.75 20.6 -50.75 18.85 -53.8 18.35 -53.5 M18.6 -50.05 L18.55 -49.6 18.45 -48.7 18.4 -48.3 18.15 -43.95 18.1 -43.15 18.15 -43.0 18.5 -42.95 18.8 -42.95 20.0 -42.95 21.2 -42.95 21.85 -43.0 21.9 -43.1 21.9 -43.15 21.85 -44.45 21.6 -48.5 21.4 -50.05 21.3 -49.05 21.25 -48.95 21.1 -48.15 20.5 -47.45 20.2 -47.25 19.8 -47.25 Q19.1 -47.75 18.9 -48.15 L18.85 -48.5 18.75 -48.95 18.6 -50.05 M21.5 -50.75 L21.45 -50.65 22.05 -50.5 21.9 -50.85 21.55 -51.45 21.25 -51.4 21.4 -50.75 21.5 -50.75 M19.4 -50.3 L19.45 -49.0 20.0 -49.05 20.55 -49.0 20.65 -50.3 19.4 -50.3 M21.05 -44.9 L20.6 -44.2 Q20.35 -44.0 20.0 -43.95 19.65 -44.0 19.4 -44.2 18.95 -44.5 18.95 -44.9 18.95 -45.3 19.4 -45.6 L20.0 -45.85 20.6 -45.6 20.8 -45.45 21.05 -44.9 M10.0 -43.4 L10.2 -43.45 Q11.95 -44.15 12.6 -41.65 12.65 -41.0 12.15 -40.55 L11.4 -39.9 10.2 -39.55 Q9.35 -39.7 8.65 -40.9 8.0 -42.0 9.15 -42.9 L10.0 -43.4 M11.8 -41.65 Q11.75 -42.2 11.35 -42.6 10.95 -43.0 10.45 -43.0 L10.4 -43.0 Q9.85 -43.0 9.45 -42.65 L9.4 -42.6 Q9.05 -42.2 9.05 -41.65 9.05 -41.1 9.45 -40.7 9.85 -40.3 10.4 -40.25 L11.2 -40.55 11.35 -40.7 Q11.75 -41.1 11.8 -41.65 M12.8 -3.45 L13.8 -3.45 13.8 -1.3 13.65 -0.8 13.3 -0.4 13.25 -0.4 12.8 -0.3 2.15 -0.55 Q1.75 -0.55 1.5 -0.8 L1.2 -1.35 1.1 -1.8 Q0.4 -5.75 0.5 -10.05 L0.6 -12.8 0.8 -14.75 0.85 -15.5 1.15 -16.1 Q1.4 -16.45 2.0 -16.45 L12.7 -16.55 13.25 -16.4 13.55 -16.05 13.6 -16.0 13.75 -15.6 13.8 -15.3 13.8 -14.1 12.8 -14.1 12.8 -15.3 12.7 -15.55 2.0 -15.45 1.85 -15.4 1.8 -14.75 1.6 -12.75 1.5 -10.1 Q1.4 -5.75 2.1 -1.8 L2.15 -1.55 12.8 -1.3 12.8 -3.45 M10.55 -14.1 L10.2 -13.8 10.2 -13.1 4.55 -12.95 4.55 -9.75 10.2 -9.75 10.2 -8.75 4.55 -8.75 4.55 -7.4 10.2 -7.35 9.9 -6.35 4.55 -6.4 4.55 -3.85 5.0 -3.85 9.65 -3.75 9.8 -3.75 9.85 -3.75 11.15 -3.45 11.05 -2.85 9.65 -2.75 5.0 -2.85 3.55 -2.95 3.55 -13.95 10.55 -14.1 M-24.55 -97.7 L-25.2 -97.55 -25.5 -97.35 -25.55 -97.3 Q-25.9 -96.9 -25.9 -96.35 -25.9 -95.8 -25.5 -95.4 L-24.8 -95.0 -24.55 -94.95 Q-24.0 -95.0 -23.6 -95.4 -23.2 -95.8 -23.15 -96.35 -23.2 -96.9 -23.6 -97.3 -24.0 -97.7 -24.55 -97.7 M-24.85 -98.45 L-24.55 -98.45 Q-23.7 -98.5 -23.05 -97.85 -22.4 -97.2 -22.4 -96.35 -22.4 -95.5 -23.05 -94.9 L-23.1 -94.85 Q-23.7 -94.2 -24.55 -94.2 L-24.6 -94.2 Q-25.45 -94.25 -26.05 -94.85 -26.7 -95.5 -26.65 -96.35 -26.7 -97.2 -26.05 -97.85 -25.5 -98.4 -24.85 -98.45 M-1.8 -72.4 L-2.4 -72.65 -2.85 -73.35 -2.4 -74.05 -1.8 -74.3 -1.2 -74.05 Q-0.75 -73.75 -0.75 -73.35 -0.75 -72.95 -1.2 -72.65 -1.45 -72.45 -1.8 -72.4" fill="#121212" fill-rule="evenodd" stroke="none"/>
    <path d="M6.75 -97.05 L4.55 -95.1 3.75 -94.4 1.85 -92.9 -3.25 -87.85 -3.5 -87.55 -5.9 -84.15 -6.75 -82.6 -5.9 -84.5 -4.75 -86.5 -4.05 -87.55 0.3 -92.25 Q1.1 -93.05 3.55 -94.85 L4.6 -95.6 6.75 -97.05 M0.9 -76.3 L0.6 -76.2 0.6 -76.35 0.9 -76.3 M0.35 -41.2 L0.6 -41.05 1.15 -40.8 0.35 -41.15 0.35 -41.2 M-1.15 -45.45 L-1.2 -45.65 -1.15 -45.65 -1.15 -45.45" fill="#e0e0e0" fill-rule="evenodd" stroke="none"/>
    <path d="M-6.55 -17.75 L-3.5 -15.45 -3.0 -0.55 -3.15 -0.55 -3.0 -0.3 -3.0 -0.2 Q-2.5 0.85 -1.85 3.45 -1.05 6.5 -1.05 7.65 -1.05 8.35 -1.7 8.6 L-5.65 9.0 -6.7 9.0 Q-7.05 8.9 -7.05 8.25 L-6.7 1.0 Q-6.45 0.65 -5.9 0.65 L-6.65 -0.75 Q-7.05 -1.4 -7.05 -2.0 L-5.75 -5.6 -5.9 -14.85 -8.95 -16.4 -8.95 -57.05 Q-8.55 -65.65 -10.25 -76.4 -10.4 -76.8 -9.0 -79.7 L-9.0 -79.45 -9.25 -78.7 -9.85 -76.95 -9.95 -76.55 -9.9 -76.45 Q-7.65 -68.15 -8.4 -56.6 L-8.25 -16.8 -4.85 -15.05 -5.25 -14.5 -5.35 -14.55 -5.2 -3.45 -4.05 -3.65 Q-3.95 -11.3 -4.1 -15.55 L-4.05 -15.55 Q-6.4 -16.25 -6.55 -17.75 M-6.5 -2.05 L-6.4 -1.3 -6.15 -1.2 Q-6.0 -1.25 -5.8 -3.05 -5.85 -3.0 -6.2 -2.9 -6.5 -2.65 -6.5 -2.05 M-3.85 -2.55 L-3.95 -2.95 -5.3 -2.7 -5.0 2.3 -3.65 2.2 -3.85 -2.55 M-3.0 5.7 Q-2.6 6.0 -2.6 6.4 -2.6 6.8 -3.0 7.1 L-4.05 7.4 -5.05 7.1 -5.5 6.4 -5.05 5.7 Q-4.65 5.4 -4.05 5.4 L-3.0 5.7 M-3.05 1.25 Q-3.25 2.5 -3.8 3.2 L-4.65 4.05 -5.55 3.15 -5.7 2.35 -5.85 1.25 Q-6.2 3.6 -6.35 8.15 -6.25 8.25 -6.3 8.3 L-5.65 8.35 Q-1.65 8.35 -1.65 7.4 L-2.05 4.6 Q-2.5 2.1 -3.05 1.25" fill="#464646" fill-rule="evenodd" stroke="none"/>
  </g>
</svg>
