<?xml version="1.0" encoding="UTF-8" standalone="no"?>
<svg xmlns:ffdec="https://www.free-decompiler.com/flash" xmlns:xlink="http://www.w3.org/1999/xlink" ffdec:objectType="shape" height="14.5px" width="16.5px" xmlns="http://www.w3.org/2000/svg">
  <g transform="matrix(1.0, 0.0, 0.0, 1.0, 23.25, 12.25)">
    <path d="M-22.45 -10.45 L-15.9 -9.25 -8.75 -7.9 -8.55 -4.8 -8.55 1.25 -22.5 -10.2 -22.45 -10.45" fill="#b4b4b4" fill-rule="evenodd" stroke="none"/>
    <path d="M-15.9 -9.25 L-14.65 -10.2 -7.65 -8.9 -8.75 -7.9 -15.9 -9.25" fill="#ffffff" fill-rule="evenodd" stroke="none"/>
    <path d="M-22.45 -10.45 L-21.4 -11.45 -14.65 -10.2 -15.9 -9.25 -22.45 -10.45 M-7.5 -6.05 L-7.5 0.4 -8.55 1.35 -8.55 1.25 -8.55 -4.8 -7.5 -6.05" fill="#e0e0e0" fill-rule="evenodd" stroke="none"/>
    <path d="M-8.55 1.35 L-22.5 -1.15 -22.5 -10.2 -8.55 1.25 -8.55 1.35" fill="#8a8a8a" fill-rule="evenodd" stroke="none"/>
    <path d="M-14.65 -10.2 L-21.4 -11.45 -22.45 -10.45 -22.5 -10.2 -22.5 -1.15 -8.55 1.35 -7.5 0.4 -7.5 -6.05 -7.65 -8.9 -14.65 -10.2 M-23.25 -10.7 L-21.6 -12.25 -7.05 -9.55 -6.75 0.75 -8.4 2.25 -23.25 -0.55 -23.25 -10.7" fill="#464646" fill-rule="evenodd" stroke="none"/>
    <path d="M-7.65 -8.9 L-7.5 -6.05 -8.55 -4.8 -8.75 -7.9 -7.65 -8.9" fill="#c5c5c5" fill-rule="evenodd" stroke="none"/>
  </g>
</svg>
