<?xml version="1.0" encoding="UTF-8" standalone="no"?>
<svg xmlns:ffdec="https://www.free-decompiler.com/flash" xmlns:xlink="http://www.w3.org/1999/xlink" ffdec:objectType="shape" height="7.4px" width="7.2px" xmlns="http://www.w3.org/2000/svg">
  <g transform="matrix(1.0, 0.0, 0.0, 1.0, 0.0, 0.0)">
    <path d="M4.15 0.7 L4.15 1.5 3.5 1.4 Q2.55 1.4 1.9 2.1 L1.35 2.8 1.15 3.0 0.85 3.0 0.65 2.8 0.65 2.5 Q0.85 2.0 1.35 1.55 2.25 0.6 3.5 0.65 L4.15 0.7 M5.8 3.35 L6.55 3.35 6.6 3.7 Q6.6 4.95 5.7 5.9 4.75 6.8 3.5 6.8 L3.25 6.7 3.15 6.4 3.25 6.15 3.5 6.05 Q4.45 6.0 5.15 5.35 5.8 4.65 5.85 3.7 L5.8 3.35" fill="#afafaf" fill-rule="evenodd" stroke="none"/>
    <path d="M4.15 0.7 Q5.0 0.85 5.7 1.55 6.45 2.3 6.55 3.35 L5.8 3.35 Q5.7 2.65 5.15 2.1 4.7 1.65 4.15 1.5 L4.15 0.7" fill="#d2d2d2" fill-rule="evenodd" stroke="none"/>
    <path d="M6.55 3.35 Q6.45 2.3 5.7 1.55 5.0 0.85 4.15 0.7 L3.5 0.65 Q2.25 0.6 1.35 1.55 0.85 2.0 0.65 2.5 L0.65 2.8 0.85 3.0 1.15 3.0 1.35 2.8 1.9 2.1 Q2.55 1.4 3.5 1.4 L4.15 1.5 Q4.7 1.65 5.15 2.1 5.7 2.65 5.8 3.35 L5.85 3.7 Q5.8 4.65 5.15 5.35 4.45 6.0 3.5 6.05 L3.25 6.15 3.15 6.4 3.25 6.7 3.5 6.8 Q4.75 6.8 5.7 5.9 6.6 4.95 6.6 3.7 L6.55 3.35 M0.9 1.1 Q2.0 0.0 3.5 0.0 5.0 0.0 6.1 1.1 7.2 2.2 7.2 3.7 7.2 5.2 6.1 6.3 5.0 7.4 3.5 7.4 3.1 7.4 2.8 7.1 2.5 6.8 2.5 6.4 2.5 6.0 2.8 5.7 3.1 5.4 3.5 5.4 4.2 5.4 4.7 4.9 5.2 4.4 5.2 3.7 5.2 3.0 4.7 2.5 4.2 2.0 3.5 2.0 2.8 2.0 2.3 2.5 L1.95 3.05 1.35 3.6 0.6 3.6 0.1 3.0 Q-0.1 2.6 0.1 2.25 0.35 1.65 0.9 1.1" fill="#5d5d5d" fill-rule="evenodd" stroke="none"/>
  </g>
</svg>
