<?xml version="1.0" encoding="UTF-8" standalone="no"?>
<svg xmlns:ffdec="https://www.free-decompiler.com/flash" xmlns:xlink="http://www.w3.org/1999/xlink" ffdec:objectType="shape" height="71.1px" width="72.05px" xmlns="http://www.w3.org/2000/svg">
  <g transform="matrix(1.0, 0.0, 0.0, 1.0, 36.0, 35.55)">
    <path d="M20.1 -18.2 L20.1 -18.6 Q20.1 -24.85 15.9 -28.7 11.55 -32.55 7.65 -32.45 3.75 -32.4 2.0 -31.75 L2.05 -31.75 0.45 -31.2 -0.45 -31.75 -2.75 -32.3 -2.55 -35.3 -2.35 -35.25 Q-1.2 -35.05 -0.45 -34.1 L-0.4 -34.05 0.8 -34.5 0.8 -34.45 0.95 -34.55 Q3.0 -35.4 7.6 -35.45 12.5 -35.7 17.9 -30.95 L17.95 -30.9 Q23.1 -26.2 23.1 -18.6 L23.1 -18.45 Q28.85 -17.15 32.25 -12.7 L32.3 -12.7 Q36.05 -8.0 36.05 -1.15 36.3 3.9 30.55 10.1 29.85 17.0 27.6 20.3 L27.55 20.35 Q23.95 26.45 14.55 26.45 L9.1 26.0 9.65 23.0 14.55 23.45 Q22.1 23.45 25.05 18.7 27.1 15.6 27.65 8.75 32.85 3.45 33.05 -0.7 L33.05 -1.15 Q33.05 -6.9 29.9 -10.85 26.45 -15.3 20.0 -15.9 L19.85 -15.9 20.1 -18.2 M-3.0 -32.3 L-4.8 -32.55 -6.1 -32.55 Q-12.9 -32.55 -16.8 -28.05 -20.15 -24.25 -20.0 -18.45 L-19.8 -15.9 -19.9 -15.85 Q-22.9 -15.55 -26.35 -13.6 -33.0 -10.0 -33.0 -2.95 L-33.0 -2.35 Q-32.85 3.25 -30.2 6.6 L-30.25 6.6 -28.45 8.5 -27.95 9.15 Q-27.95 15.35 -24.2 19.35 -20.4 23.45 -14.25 23.45 -9.05 23.45 -6.65 21.6 L-7.0 22.85 -7.1 23.2 Q-8.25 26.35 -8.2 27.3 L-8.15 27.85 Q-7.95 30.0 -5.85 31.3 -3.95 32.55 -0.75 32.55 3.45 32.5 5.05 29.0 5.75 27.3 6.25 25.0 7.35 25.65 9.1 26.0 L7.85 30.15 7.8 30.25 Q5.4 35.4 -0.7 35.55 L-0.75 35.55 Q-4.95 35.55 -7.4 33.85 L-7.5 33.8 Q-11.2 31.5 -11.2 27.45 L-11.15 26.3 -14.25 26.45 Q-21.75 26.45 -26.4 21.4 -30.6 16.95 -30.9 10.3 L-32.6 8.45 -32.9 8.05 Q-36.0 3.95 -36.0 -2.95 -36.05 -11.75 -27.75 -16.25 -25.3 -17.65 -23.0 -18.3 -23.3 -25.4 -19.05 -30.0 L-19.05 -30.05 Q-14.35 -35.55 -6.1 -35.55 L-4.8 -35.55 -2.95 -35.35 -2.85 -35.3 -3.1 -32.35 -3.0 -32.3 M7.6 22.25 L6.7 22.4 6.8 21.5 6.95 21.7 7.15 21.95 7.6 22.25 M0.0 -33.95 L-0.35 -34.0 -0.2 -33.75 0.0 -33.95" fill="#ffffff" fill-rule="evenodd" stroke="none"/>
    <path d="M-2.75 -32.3 L-0.45 -31.75 0.45 -31.2 2.05 -31.75 2.0 -31.75 Q3.75 -32.4 7.65 -32.45 11.55 -32.55 15.9 -28.7 20.1 -24.85 20.1 -18.6 L20.1 -18.2 Q19.9 -24.05 15.9 -27.7 11.55 -31.55 7.65 -31.45 3.75 -31.4 2.0 -30.75 L2.05 -30.75 0.45 -30.2 -0.45 -30.75 -2.95 -31.35 -2.85 -31.3 -4.8 -31.55 -6.1 -31.55 Q-12.9 -31.55 -16.8 -27.05 -19.85 -23.6 -20.0 -18.45 -20.15 -24.25 -16.8 -28.05 -12.9 -32.55 -6.1 -32.55 L-4.8 -32.55 -3.0 -32.3 -2.85 -32.3 -2.95 -32.35 -2.75 -32.3 M20.0 -15.9 Q26.45 -15.3 29.9 -10.85 33.05 -6.9 33.05 -1.15 L33.05 -0.7 Q32.9 -6.1 29.9 -9.85 26.4 -14.35 19.85 -14.9 L20.0 -15.9 M-33.0 -2.35 L-33.0 -2.95 Q-33.0 -10.0 -26.35 -13.6 -22.9 -15.55 -19.9 -15.85 L-19.8 -14.9 Q-22.85 -14.6 -26.35 -12.6 -32.8 -9.1 -33.0 -2.35 M-7.0 22.85 L-6.65 22.6 -7.1 24.2 -8.15 27.85 -8.2 27.3 Q-8.25 26.35 -7.1 23.2 L-7.0 22.85" fill="#b1b1b1" fill-rule="evenodd" stroke="none"/>
    <path d="M-20.0 -18.45 Q-19.85 -23.6 -16.8 -27.05 -12.9 -31.55 -6.1 -31.55 L-4.8 -31.55 -2.85 -31.3 -2.95 -31.35 -0.45 -30.75 0.45 -30.2 2.05 -30.75 2.0 -30.75 Q3.75 -31.4 7.65 -31.45 11.55 -31.55 15.9 -27.7 19.9 -24.05 20.1 -18.2 L19.85 -15.9 20.0 -15.9 19.85 -14.9 Q26.4 -14.35 29.9 -9.85 32.9 -6.1 33.05 -0.7 32.85 3.45 27.65 8.75 27.1 15.6 25.05 18.7 22.1 23.45 14.55 23.45 L9.65 23.0 Q8.35 22.7 7.6 22.25 L7.15 21.95 6.95 21.7 6.8 21.5 6.7 22.4 6.65 22.75 6.6 23.05 6.25 25.0 Q5.75 27.3 5.05 29.0 3.45 32.5 -0.75 32.55 -3.95 32.55 -5.85 31.3 -7.95 30.0 -8.15 27.85 L-7.1 24.2 -6.65 22.6 -7.0 22.85 -6.65 21.6 Q-9.05 23.45 -14.25 23.45 -20.4 23.45 -24.2 19.35 -27.95 15.35 -27.95 9.15 L-28.45 8.5 -30.25 6.6 -30.2 6.6 Q-32.85 3.25 -33.0 -2.35 -32.8 -9.1 -26.35 -12.6 -22.85 -14.6 -19.8 -14.9 L-19.9 -15.85 -19.8 -15.9 -20.0 -18.45" fill="#e5e5e5" fill-rule="evenodd" stroke="none"/>
  </g>
</svg>
