<?xml version="1.0" encoding="UTF-8" standalone="no"?>
<svg xmlns:ffdec="https://www.free-decompiler.com/flash" xmlns:xlink="http://www.w3.org/1999/xlink" ffdec:objectType="shape" height="10.1px" width="55.95px" xmlns="http://www.w3.org/2000/svg">
  <g transform="matrix(1.0, 0.0, 0.0, 1.0, 24.0, -27.45)">
    <path d="M26.5 28.65 L26.6 28.55 27.65 28.6 31.3 28.4 31.95 28.45 30.35 29.8 30.2 29.9 Q25.0 34.0 17.8 35.9 11.45 37.55 3.5 37.55 -3.75 37.55 -10.9 35.1 -15.45 33.45 -19.9 30.9 L-21.8 29.75 -24.0 28.2 -21.55 27.85 -20.9 27.85 -21.8 27.95 -19.9 29.3 Q-14.7 32.65 -7.9 33.95 5.1 36.4 11.4 35.0 17.7 33.6 20.3 32.6 21.8 32.0 23.15 29.4 L23.7 28.35 23.4 28.3 23.15 28.3 23.85 28.2 25.2 28.5 24.65 28.45 23.6 30.95 25.0 30.1 27.1 28.7 26.5 28.65" fill="#464646" fill-rule="evenodd" stroke="none"/>
    <path d="M-20.9 27.85 L-16.5 27.45 Q-15.5 27.45 -10.4 28.8 -5.25 30.15 0.75 30.15 6.7 30.15 12.4 29.0 L18.45 27.8 23.15 28.3 23.4 28.3 23.7 28.35 23.15 29.4 Q21.8 32.0 20.3 32.6 17.7 33.6 11.4 35.0 5.1 36.4 -7.9 33.95 -14.7 32.65 -19.9 29.3 L-21.8 27.95 -20.9 27.85 M25.2 28.5 L26.5 28.65 27.1 28.7 25.0 30.1 23.6 30.95 24.65 28.45 25.2 28.5" fill="#8a8a8a" fill-rule="evenodd" stroke="none"/>
  </g>
</svg>
