<?xml version="1.0" encoding="UTF-8" standalone="no"?>
<svg xmlns:ffdec="https://www.free-decompiler.com/flash" xmlns:xlink="http://www.w3.org/1999/xlink" ffdec:objectType="shape" height="50.15px" width="18.4px" xmlns="http://www.w3.org/2000/svg">
  <g transform="matrix(1.0, 0.0, 0.0, 1.0, -9.6, 13.1)">
    <path d="M21.9 -5.3 L21.95 -1.95 19.6 -1.95 19.6 -0.95 21.95 -0.95 Q21.95 6.1 21.55 12.15 L21.0 12.3 20.9 12.3 20.75 12.3 20.65 12.3 20.15 12.3 14.9 9.85 14.25 9.15 14.3 -0.35 14.45 -0.35 15.9 -0.5 Q16.5 -0.7 16.5 -0.95 16.5 -1.2 15.9 -1.35 L14.45 -1.55 14.25 -1.55 14.0 -5.35 18.5 -5.8 18.65 -5.8 18.85 -5.8 19.0 -5.8 19.65 -5.8 21.9 -5.3 M20.9 18.9 L20.65 21.05 Q17.75 22.65 12.65 23.4 L13.65 16.4 Q17.1 17.9 20.9 18.9 M27.95 0.95 Q28.2 12.45 27.05 20.8 26.5 21.35 25.75 21.6 L25.5 21.1 Q26.4 17.5 26.75 12.65 L27.1 3.55 Q27.5 1.7 27.95 0.95" fill="#e0e0e0" fill-rule="evenodd" stroke="none"/>
    <path d="M21.8 -8.65 L21.9 -5.3 19.65 -5.8 19.0 -5.8 18.85 -5.8 18.65 -5.8 18.5 -5.8 14.0 -5.35 13.75 -7.55 21.8 -8.65 M21.55 12.15 L21.55 12.2 21.45 13.9 20.75 13.9 Q16.95 13.9 14.05 12.6 L14.25 9.2 14.25 9.15 14.9 9.85 20.15 12.3 20.65 12.3 20.75 12.3 20.9 12.3 21.0 12.3 21.55 12.15 M20.65 21.05 L19.5 27.35 14.85 28.45 14.75 28.45 13.8 28.7 11.55 29.2 12.65 23.4 Q17.75 22.65 20.65 21.05 M27.85 -1.65 L27.95 0.95 Q27.5 1.7 27.1 3.55 L26.95 -1.35 27.25 -1.5 27.85 -1.65 M27.05 20.8 L26.6 23.75 23.9 26.55 25.5 21.1 25.75 21.6 Q26.5 21.35 27.05 20.8 M24.85 11.15 Q25.2 2.4 24.45 -8.95 L25.8 -9.15 26.05 1.95 26.1 2.7 Q25.55 8.7 24.85 11.15" fill="#b4b4b4" fill-rule="evenodd" stroke="none"/>
    <path d="M21.05 17.85 L20.9 18.9 Q17.1 17.9 13.65 16.4 L13.8 15.0 14.4 15.25 Q18.45 17.05 21.05 17.85" fill="#ffffff" fill-rule="evenodd" stroke="none"/>
    <path d="M21.75 -10.9 L21.8 -8.65 13.75 -7.55 13.4 -10.3 21.75 -10.9 M21.95 -1.95 L21.95 -0.95 19.6 -0.95 19.6 -1.95 21.95 -1.95 M21.45 13.9 L21.15 16.8 18.05 15.75 Q16.2 15.05 13.9 13.95 L14.05 12.6 Q16.95 13.9 20.75 13.9 L21.45 13.9 M19.5 27.35 L17.85 33.15 11.9 34.5 10.2 34.8 11.55 29.2 13.8 28.7 14.75 28.45 14.85 28.45 19.5 27.35 M14.3 -0.35 L14.25 -1.55 14.45 -1.55 15.9 -1.35 Q16.5 -1.2 16.5 -0.95 16.5 -0.7 15.9 -0.5 L14.45 -0.35 14.3 -0.35 M24.3 -11.1 L24.6 -11.15 27.35 -11.4 27.85 -1.65 27.25 -1.5 26.95 -1.35 26.05 1.95 25.8 -9.15 24.45 -8.95 24.3 -11.1 M26.6 23.75 L25.45 28.85 21.85 31.15 23.9 26.55 26.6 23.75 M23.1 25.85 Q23.85 22.6 24.3 18.6 L24.95 18.75 23.15 25.7 23.1 25.85 M24.4 17.65 L24.85 11.15 Q25.55 8.7 26.1 2.7 L25.75 10.4 25.1 17.75 24.4 17.65" fill="#8a8a8a" fill-rule="evenodd" stroke="none"/>
    <path d="M13.4 -10.3 L13.2 -11.6 17.6 -11.85 21.65 -12.25 21.75 -10.9 13.4 -10.3 M21.15 16.8 L21.05 17.85 Q18.45 17.05 14.4 15.25 L13.8 15.0 13.9 13.95 Q16.2 15.05 18.05 15.75 L21.15 16.8 M17.85 33.15 L17.0 35.35 Q13.5 36.55 9.75 37.0 L9.6 37.05 10.2 34.8 11.9 34.5 17.85 33.15 M24.3 -11.1 L24.2 -12.6 27.2 -13.1 27.35 -11.4 24.6 -11.15 24.3 -11.1 M25.45 28.85 L24.5 31.75 20.1 34.15 Q21.95 30.85 23.1 25.85 L23.15 25.7 24.95 18.75 24.3 18.6 24.4 17.65 25.1 17.75 25.75 10.4 26.1 2.7 26.05 1.95 26.95 -1.35 27.1 3.55 26.75 12.65 Q26.4 17.5 25.5 21.1 L23.9 26.55 21.85 31.15 25.45 28.85" fill="#464646" fill-rule="evenodd" stroke="none"/>
  </g>
</svg>
