<?xml version="1.0" encoding="UTF-8" standalone="no"?>
<svg xmlns:ffdec="https://www.free-decompiler.com/flash" xmlns:xlink="http://www.w3.org/1999/xlink" ffdec:objectType="shape" height="95.15px" width="85.05px" xmlns="http://www.w3.org/2000/svg">
  <g transform="matrix(1.0, 0.0, 0.0, 1.0, 36.4, 58.4)">
    <path d="M-18.0 -11.7 L-18.45 -11.6 Q-17.35 -5.55 -21.75 -1.0 -19.4 7.2 -20.9 16.0 -21.15 17.4 -20.35 18.85 -19.4 20.65 -19.3 22.65 L-20.0 23.0 Q-25.15 14.6 -23.2 4.35 -23.0 3.3 -23.55 2.25 L-24.25 1.15 Q-20.15 -4.55 -20.75 -11.05 L-25.75 -9.4 -28.4 -11.5 Q-28.55 -15.0 -27.7 -18.35 L-27.5 -19.05 -28.25 -20.35 Q-24.9 -23.8 -24.05 -28.4 L-24.55 -29.25 Q-20.6 -34.5 -15.25 -38.1 L-15.7 -39.6 Q-12.15 -39.75 -11.45 -43.6 L-11.25 -44.75 Q-8.0 -44.45 -5.8 -46.7 -5.0 -47.5 -4.9 -48.55 1.45 -47.9 4.6 -53.65 5.05 -54.4 5.95 -54.0 L8.35 -52.8 7.85 -52.1 5.6 -52.75 5.1 -51.25 Q11.35 -49.9 18.15 -51.7 L21.25 -51.65 Q16.95 -52.0 14.9 -48.6 L14.35 -48.0 Q7.6 -48.25 2.4 -44.1 1.0 -43.0 -1.0 -43.05 L-1.55 -41.4 Q-2.25 -39.9 -3.35 -38.95 -4.75 -37.85 -6.7 -37.7 L-6.95 -37.7 -8.0 -37.55 -8.4 -37.3 -8.35 -36.9 -8.25 -35.7 -8.35 -33.1 Q-9.15 -27.15 -15.05 -24.75 L-14.4 -19.1 Q-19.2 -16.8 -18.05 -11.75 L-18.0 -11.7 M20.9 -38.6 L21.2 -39.9 21.7 -41.65 23.85 -48.8 24.4 -49.75 Q27.15 -46.8 24.65 -42.2 L24.05 -40.95 23.4 -39.25 23.35 -39.1 20.9 -38.6 M17.25 -45.9 L18.25 -45.55 17.5 -40.75 17.05 -42.65 Q16.9 -43.65 17.05 -44.6 L17.25 -45.9 M7.5 -45.05 L8.75 -43.05 9.6 -41.1 Q10.1 -39.55 10.25 -37.8 L10.35 -36.0 10.35 -35.2 Q7.95 -35.9 7.1 -38.05 6.6 -39.3 6.6 -40.9 L6.6 -41.7 6.8 -42.95 Q7.0 -44.0 7.5 -45.05 M1.05 -36.95 L0.9 -37.75 0.75 -38.9 2.0 -37.9 2.95 -36.1 3.3 -34.45 Q3.5 -33.0 3.05 -31.9 L2.25 -32.65 1.7 -34.55 1.05 -36.95 M-15.5 -27.1 L-16.15 -27.3 -16.75 -27.1 -17.05 -26.65 -16.75 -26.2 -16.15 -26.0 -15.5 -26.2 -15.25 -26.65 -15.5 -27.1 M-14.2 -35.15 Q-14.45 -35.5 -14.8 -35.5 L-15.4 -35.15 -15.65 -34.4 -15.55 -33.9 -15.4 -33.6 Q-15.15 -33.3 -14.8 -33.3 -14.45 -33.3 -14.2 -33.6 -13.95 -33.95 -13.95 -34.4 L-14.1 -35.05 -14.2 -35.15 M-6.9 -34.6 L-2.55 -21.8 -3.65 -21.6 -4.6 -23.15 Q-6.75 -28.1 -7.05 -33.35 L-7.1 -34.4 -6.9 -34.6 M-23.5 -16.95 L-23.1 -17.05 Q-20.9 -18.5 -22.25 -20.5 -24.4 -20.05 -24.5 -17.65 L-24.0 -17.05 -23.5 -16.95 M-21.8 -7.9 L-23.0 -4.5 -24.5 -3.3 -24.7 -4.25 Q-24.6 -7.55 -22.15 -9.4 L-21.8 -7.9 M-7.65 -16.5 Q-9.6 -16.05 -11.15 -17.75 L-10.5 -18.65 Q-8.7 -18.6 -7.55 -17.1 L-7.65 -16.5" fill="#ffffff" fill-rule="evenodd" stroke="none"/>
    <path d="M-33.65 -8.4 Q-32.6 -9.4 -32.7 -10.7 L-33.05 -14.15 -29.95 -19.2 -30.55 -21.65 Q-27.5 -23.5 -25.9 -26.2 -24.9 -28.9 -26.0 -32.7 -21.85 -33.55 -20.45 -36.45 -20.3 -37.85 -20.75 -39.95 -20.25 -41.0 -19.25 -41.55 -16.85 -42.65 -14.5 -42.95 L-14.6 -43.85 -14.0 -48.05 -9.6 -46.5 -9.15 -48.1 Q-8.4 -50.65 -6.95 -52.65 -3.35 -51.15 -0.3 -51.45 2.55 -52.7 4.85 -55.75 7.35 -55.75 9.65 -54.15 10.9 -53.35 12.45 -53.3 L15.0 -55.8 16.5 -55.9 17.85 -54.8 Q19.9 -53.3 22.35 -52.4 23.55 -52.5 24.45 -53.2 L25.05 -53.7 25.75 -54.3 28.15 -51.4 30.05 -51.45 32.95 -49.8 Q32.45 -45.75 30.25 -42.65 L29.2 -41.35 27.65 -39.55 27.45 -39.3 23.35 -39.1 23.4 -39.25 24.05 -40.95 24.65 -42.2 Q27.15 -46.8 24.4 -49.75 L23.85 -48.8 21.7 -41.65 21.2 -39.9 20.9 -38.6 20.4 -38.5 20.45 -40.05 20.4 -42.0 20.35 -45.3 20.15 -46.3 19.85 -46.55 19.35 -46.9 Q19.7 -44.3 19.25 -42.25 L18.6 -40.45 Q17.5 -38.25 15.2 -36.85 L14.05 -36.25 Q11.5 -35.05 9.15 -33.55 L6.05 -31.35 5.2 -33.75 2.85 -28.35 1.75 -30.7 1.3 -31.55 0.8 -32.5 0.7 -32.6 0.45 -32.7 Q1.55 -27.6 -1.05 -22.85 -4.15 -17.1 -6.7 -11.2 L-18.05 -11.75 Q-19.2 -16.8 -14.4 -19.1 L-15.05 -24.75 Q-9.15 -27.15 -8.35 -33.1 L-8.25 -35.7 -8.35 -36.9 -8.4 -37.3 -8.0 -37.55 -6.95 -37.7 -6.7 -37.7 Q-4.75 -37.85 -3.35 -38.95 -2.25 -39.9 -1.55 -41.4 L-1.0 -43.05 Q1.0 -43.0 2.4 -44.1 7.6 -48.25 14.35 -48.0 L14.9 -48.6 Q16.95 -52.0 21.25 -51.65 L18.15 -51.7 Q11.35 -49.9 5.1 -51.25 L5.6 -52.75 7.85 -52.1 8.35 -52.8 5.95 -54.0 Q5.05 -54.4 4.6 -53.65 1.45 -47.9 -4.9 -48.55 -5.0 -47.5 -5.8 -46.7 -8.0 -44.45 -11.25 -44.75 L-11.45 -43.6 Q-12.15 -39.75 -15.7 -39.6 L-15.25 -38.1 Q-20.6 -34.5 -24.55 -29.25 L-24.05 -28.4 Q-24.9 -23.8 -28.25 -20.35 L-27.5 -19.05 -27.7 -18.35 Q-28.55 -15.0 -28.4 -11.5 L-25.75 -9.4 -20.75 -11.05 Q-20.15 -4.55 -24.25 1.15 L-23.55 2.25 Q-23.0 3.3 -23.2 4.35 -25.15 14.6 -20.0 23.0 L-19.3 22.65 Q-19.4 20.65 -20.35 18.85 -21.15 17.4 -20.9 16.0 -19.4 7.2 -21.75 -1.0 -17.35 -5.55 -18.45 -11.6 L-18.0 -11.7 -17.15 -8.75 -15.25 -9.25 Q-11.75 -10.7 -8.55 -9.0 -12.65 -5.85 -17.55 -5.6 L-20.5 -0.35 -20.4 0.6 Q-14.95 -4.25 -8.45 -3.35 L-8.8 -1.95 -18.6 4.1 -17.55 6.0 Q-18.05 7.75 -19.0 9.4 -21.8 14.5 -18.15 18.8 L-17.6 18.15 Q-14.35 13.05 -9.5 10.7 L-11.25 13.25 -10.8 13.8 Q-11.7 18.45 -16.3 21.45 L-16.0 22.75 -17.1 24.35 -14.9 28.75 -13.95 27.9 -12.0 26.05 Q-11.05 25.05 -9.7 24.85 L-9.45 25.7 -10.6 27.65 -10.9 28.15 Q-12.0 29.65 -13.55 30.5 L-17.1 27.25 -17.2 27.15 -19.45 24.5 -19.9 23.75 -20.65 22.2 Q-22.05 18.85 -24.5 17.4 -25.75 16.6 -27.25 16.35 L-29.5 16.2 -28.5 14.65 -23.55 16.0 -24.1 14.65 Q-25.05 12.4 -26.75 10.75 L-31.45 11.4 -32.15 9.75 -31.15 9.8 -29.75 9.6 -29.15 9.5 -27.85 9.05 -27.85 9.0 -27.7 8.0 -30.45 7.95 -31.6 6.85 -31.3 5.4 -30.6 5.45 -30.5 5.5 -28.6 5.5 Q-27.35 5.35 -26.15 4.8 L-26.1 3.1 -26.95 2.8 -29.0 2.3 -31.0 2.2 -31.45 2.25 -31.3 1.25 Q-31.05 -3.8 -33.65 -8.4 M38.6 -47.6 Q38.1 -44.4 35.55 -42.2 L33.0 -40.0 32.25 -40.8 Q34.6 -45.15 38.5 -47.65 L38.6 -47.6 M37.45 -39.45 Q37.45 -42.3 40.65 -43.1 L41.4 -42.6 Q41.1 -40.5 39.25 -39.15 L37.45 -39.45 M1.05 -36.95 L1.7 -34.55 2.25 -32.65 3.05 -31.9 Q3.5 -33.0 3.3 -34.45 L2.95 -36.1 2.0 -37.9 0.75 -38.9 0.9 -37.75 1.05 -36.95 M7.5 -45.05 Q7.0 -44.0 6.8 -42.95 L6.6 -41.7 6.6 -40.9 Q6.6 -39.3 7.1 -38.05 7.95 -35.9 10.35 -35.2 L10.35 -36.0 10.25 -37.8 Q10.1 -39.55 9.6 -41.1 L8.75 -43.05 7.5 -45.05 M17.25 -45.9 L17.05 -44.6 Q16.9 -43.65 17.05 -42.65 L17.5 -40.75 18.25 -45.55 17.25 -45.9 M-14.2 -35.15 L-14.1 -35.05 -13.95 -34.4 Q-13.95 -33.95 -14.2 -33.6 -14.45 -33.3 -14.8 -33.3 -15.15 -33.3 -15.4 -33.6 L-15.55 -33.9 -15.65 -34.4 -15.4 -35.15 -14.8 -35.5 Q-14.45 -35.5 -14.2 -35.15 M-15.5 -27.1 L-15.25 -26.65 -15.5 -26.2 -16.15 -26.0 -16.75 -26.2 -17.05 -26.65 -16.75 -27.1 -16.15 -27.3 -15.5 -27.1 M-6.9 -34.6 L-7.1 -34.4 -7.05 -33.35 Q-6.75 -28.1 -4.6 -23.15 L-3.65 -21.6 -2.55 -21.8 -6.9 -34.6 M-23.5 -16.95 L-24.0 -17.05 -24.5 -17.65 Q-24.4 -20.05 -22.25 -20.5 -20.9 -18.5 -23.1 -17.05 L-23.5 -16.95 M-31.65 -10.65 L-30.95 -10.45 Q-30.55 -10.45 -30.25 -10.65 L-30.15 -10.7 -29.95 -11.25 -30.0 -11.5 -30.25 -11.8 -30.95 -12.05 -31.65 -11.8 -31.95 -11.25 -31.65 -10.65 M-21.8 -7.9 L-22.15 -9.4 Q-24.6 -7.55 -24.7 -4.25 L-24.5 -3.3 -23.0 -4.5 -21.8 -7.9 M-30.3 -3.45 L-29.75 -3.05 -29.3 -3.4 -29.1 -3.65 -28.85 -4.2 -28.75 -5.8 -30.5 -5.65 -30.3 -3.45 M-7.65 -16.5 L-7.55 -17.1 Q-8.7 -18.6 -10.5 -18.65 L-11.15 -17.75 Q-9.6 -16.05 -7.65 -16.5" fill="#d1d1d1" fill-rule="evenodd" stroke="none"/>
    <path d="M-33.65 -8.4 Q-31.05 -3.8 -31.3 1.25 L-31.45 2.25 -31.0 2.2 -29.0 2.3 -26.95 2.8 -26.1 3.1 -26.15 4.8 Q-27.35 5.35 -28.6 5.5 L-30.5 5.5 -30.6 5.45 -31.3 5.4 -31.6 6.85 -30.45 7.95 -27.7 8.0 -27.85 9.0 -27.85 9.05 -29.15 9.5 -29.75 9.6 -31.15 9.8 -32.15 9.75 -31.45 11.4 -26.75 10.75 Q-25.05 12.4 -24.1 14.65 L-23.55 16.0 -28.5 14.65 -29.5 16.2 -27.25 16.35 Q-25.75 16.6 -24.5 17.4 -22.05 18.85 -20.65 22.2 L-19.9 23.75 -19.45 24.5 -17.2 27.15 -17.1 27.25 -13.55 30.5 Q-12.0 29.65 -10.9 28.15 L-10.6 27.65 -9.45 25.7 -9.7 24.85 Q-11.05 25.05 -12.0 26.05 L-13.95 27.9 -14.9 28.75 -17.1 24.35 -16.0 22.75 -16.3 21.45 Q-11.7 18.45 -10.8 13.8 L-11.25 13.25 -9.5 10.7 Q-14.35 13.05 -17.6 18.15 L-18.15 18.8 Q-21.8 14.5 -19.0 9.4 -18.05 7.75 -17.55 6.0 L-18.6 4.1 -8.8 -1.95 -8.45 -3.35 Q-14.95 -4.25 -20.4 0.6 L-20.5 -0.35 -17.55 -5.6 Q-12.65 -5.85 -8.55 -9.0 -11.75 -10.7 -15.25 -9.25 L-17.15 -8.75 -18.0 -11.7 -18.05 -11.75 -6.7 -11.2 Q-4.15 -17.1 -1.05 -22.85 1.55 -27.6 0.45 -32.7 L0.7 -32.6 0.8 -32.5 1.3 -31.55 1.75 -30.7 2.85 -28.35 5.2 -33.75 6.05 -31.35 9.15 -33.55 Q11.5 -35.05 14.05 -36.25 L15.2 -36.85 Q17.5 -38.25 18.6 -40.45 L19.25 -42.25 Q19.7 -44.3 19.35 -46.9 L19.85 -46.55 20.15 -46.3 20.35 -45.3 20.4 -42.0 20.45 -40.05 20.4 -38.5 20.9 -38.6 23.35 -39.1 27.45 -39.3 27.65 -39.55 29.2 -41.35 30.25 -42.65 Q32.45 -45.75 32.95 -49.8 L30.05 -51.45 33.35 -51.9 35.05 -47.55 42.75 -48.05 43.75 -44.8 47.05 -43.75 Q46.05 -37.2 40.4 -32.3 L39.7 -33.1 Q36.0 -36.9 31.1 -37.9 L30.8 -37.95 26.5 -38.15 25.3 -37.9 Q21.5 -38.15 17.15 -36.3 14.3 -35.1 11.25 -33.0 L8.85 -31.25 Q-0.4 -24.15 -4.7 -12.05 -8.8 -0.4 -7.45 11.95 -6.8 17.7 -4.45 22.85 L-2.7 28.5 -2.75 28.5 Q-5.85 32.3 -10.0 35.25 L-12.35 33.65 Q-14.95 31.8 -17.25 33.4 L-18.55 31.95 Q-19.4 30.8 -21.0 30.15 L-24.75 31.85 -26.7 29.75 Q-27.05 27.7 -26.75 26.3 L-29.1 24.25 Q-29.9 23.7 -30.2 23.65 -29.85 21.95 -30.1 18.7 L-32.85 16.1 -32.3 13.35 -34.4 11.35 -33.4 5.8 -35.4 2.75 -34.25 0.95 Q-31.9 -2.75 -34.9 -6.5 L-33.65 -8.4 M37.45 -39.45 L39.25 -39.15 Q41.1 -40.5 41.4 -42.6 L40.65 -43.1 Q37.45 -42.3 37.45 -39.45 M38.6 -47.6 L38.5 -47.65 Q34.6 -45.15 32.25 -40.8 L33.0 -40.0 35.55 -42.2 Q38.1 -44.4 38.6 -47.6 M-31.65 -10.65 L-31.95 -11.25 -31.65 -11.8 -30.95 -12.05 -30.25 -11.8 -30.0 -11.5 -29.95 -11.25 -30.15 -10.7 -30.25 -10.65 Q-30.55 -10.45 -30.95 -10.45 L-31.65 -10.65 M-30.3 -3.45 L-30.5 -5.65 -28.75 -5.8 -28.85 -4.2 -29.1 -3.65 -29.3 -3.4 -29.75 -3.05 -30.3 -3.45" fill="#989898" fill-rule="evenodd" stroke="none"/>
    <path d="M30.05 -51.45 L28.15 -51.4 25.75 -54.3 25.05 -53.7 24.45 -53.2 Q23.55 -52.5 22.35 -52.4 19.9 -53.3 17.85 -54.8 L16.5 -55.9 15.0 -55.8 12.45 -53.3 Q10.9 -53.35 9.65 -54.15 7.35 -55.75 4.85 -55.75 2.55 -52.7 -0.3 -51.45 -3.35 -51.15 -6.95 -52.65 -8.4 -50.65 -9.15 -48.1 L-9.6 -46.5 -14.0 -48.05 -14.6 -43.85 -14.5 -42.95 Q-16.85 -42.65 -19.25 -41.55 -20.25 -41.0 -20.75 -39.95 -20.3 -37.85 -20.45 -36.45 -21.85 -33.55 -26.0 -32.7 -24.9 -28.9 -25.9 -26.2 -27.5 -23.5 -30.55 -21.65 L-29.95 -19.2 -33.05 -14.15 -32.7 -10.7 Q-32.6 -9.4 -33.65 -8.4 L-34.9 -6.5 Q-31.9 -2.75 -34.25 0.95 L-35.4 2.75 -33.4 5.8 -34.4 11.35 -32.3 13.35 -32.85 16.1 -30.1 18.7 Q-29.85 21.95 -30.2 23.65 -29.9 23.7 -29.1 24.25 L-26.75 26.3 Q-27.05 27.7 -26.7 29.75 L-24.75 31.85 -21.0 30.15 Q-19.4 30.8 -18.55 31.95 L-17.25 33.4 Q-14.95 31.8 -12.35 33.65 L-10.0 35.25 Q-5.85 32.3 -2.75 28.5 L-2.7 28.5 -4.45 22.85 -4.0 23.75 -4.5 22.7 -1.3 28.35 -2.7 30.4 Q-5.05 33.5 -8.3 35.8 L-9.6 36.75 -14.65 33.6 -17.0 34.7 -17.6 34.65 -20.8 31.5 -25.1 32.95 -27.45 30.7 -27.75 27.1 Q-28.35 26.35 -29.1 25.9 L-29.75 25.65 -30.3 25.4 -32.0 24.5 -31.65 23.75 Q-30.75 21.55 -30.85 19.3 -31.65 18.1 -33.75 16.45 L-33.8 14.0 Q-33.7 13.1 -34.85 11.95 -36.0 10.75 -35.5 9.35 L-34.5 6.4 Q-35.5 5.35 -36.15 3.9 L-36.3 3.3 -36.4 2.6 -34.0 -1.8 Q-36.4 -6.15 -36.25 -6.45 -35.5 -9.25 -34.0 -10.25 -34.95 -12.55 -34.8 -13.65 -34.7 -14.75 -33.75 -16.0 L-31.3 -19.0 -32.55 -22.55 -30.15 -23.9 Q-28.4 -24.8 -27.25 -26.2 L-27.15 -27.65 Q-26.3 -30.5 -27.2 -33.0 L-22.05 -36.6 -21.9 -41.7 -21.75 -42.0 -15.75 -44.45 Q-15.8 -46.3 -15.3 -47.9 L-14.85 -48.65 -14.3 -49.25 Q-12.8 -49.75 -11.45 -48.9 L-10.9 -48.6 -10.5 -48.25 -8.05 -53.55 -7.3 -53.95 Q-3.75 -52.55 -0.5 -52.2 2.3 -53.7 4.8 -56.3 5.3 -56.8 6.15 -56.55 9.4 -56.0 12.2 -54.5 L15.9 -58.4 17.0 -57.0 23.4 -53.3 25.4 -55.2 26.15 -55.15 28.5 -52.2 33.65 -52.75 35.95 -49.05 43.15 -48.9 44.3 -45.55 48.65 -45.1 Q48.7 -41.5 46.65 -38.5 44.0 -34.55 40.65 -31.4 L40.55 -30.35 40.5 -30.2 36.65 -33.75 Q33.6 -36.25 31.6 -36.9 L27.6 -37.7 25.3 -37.9 26.5 -38.15 30.8 -37.95 31.1 -37.9 Q36.0 -36.9 39.7 -33.1 L40.4 -32.3 Q46.05 -37.2 47.05 -43.75 L43.75 -44.8 42.75 -48.05 35.05 -47.55 33.35 -51.9 30.05 -51.45" fill="#606060" fill-rule="evenodd" stroke="none"/>
    <path d="M-1.3 28.35 L-4.5 22.7 -4.0 23.75 -4.45 22.85 Q-6.8 17.7 -7.45 11.95 -8.8 -0.4 -4.7 -12.05 -0.4 -24.15 8.85 -31.25 L11.25 -33.0 Q20.9 -30.05 27.45 -21.7 29.6 -18.95 31.15 -16.1 L31.05 -15.9 Q30.35 -14.45 29.95 -12.9 29.65 -11.7 29.65 -10.5 29.65 -9.2 29.95 -7.9 L31.2 -2.65 31.85 1.35 31.95 3.25 30.85 4.75 Q26.7 5.0 23.2 7.1 22.15 7.65 21.55 8.7 20.8 9.95 20.3 11.35 19.6 13.35 19.15 15.4 L18.75 18.5 18.5 22.35 18.35 24.0 Q16.55 25.65 13.9 26.3 L8.5 27.35 0.25 28.35 -1.3 28.35" fill="#b9a99b" fill-opacity="0.29803923" fill-rule="evenodd" stroke="none"/>
    <path d="M11.25 -33.0 Q14.3 -35.1 17.15 -36.3 22.1 -34.7 27.0 -31.75 33.7 -27.8 38.1 -21.65 L34.05 -19.15 Q31.8 -17.9 31.15 -16.1 29.6 -18.95 27.45 -21.7 20.9 -30.05 11.25 -33.0" fill="#b9a99b" fill-opacity="0.4" fill-rule="evenodd" stroke="none"/>
    <path d="M25.3 -37.9 L27.6 -37.7 Q35.6 -34.05 41.35 -26.5 L41.6 -26.15 Q41.45 -25.35 40.6 -24.2 39.75 -23.05 38.1 -21.65 33.7 -27.8 27.0 -31.75 22.1 -34.7 17.15 -36.3 21.5 -38.15 25.3 -37.9" fill="#8e7c71" fill-opacity="0.4" fill-rule="evenodd" stroke="none"/>
    <path d="M27.6 -37.7 L31.6 -36.9 Q33.6 -36.25 36.65 -33.75 L40.5 -30.2 40.55 -30.35 42.5 -28.2 42.4 -28.0 41.6 -26.15 41.35 -26.5 Q35.6 -34.05 27.6 -37.7" fill="#8e7c71" fill-opacity="0.69411767" fill-rule="evenodd" stroke="none"/>
  </g>
</svg>
