<?xml version="1.0" encoding="UTF-8" standalone="no"?>
<svg xmlns:ffdec="https://www.free-decompiler.com/flash" xmlns:xlink="http://www.w3.org/1999/xlink" ffdec:objectType="shape" height="45.85px" width="84.55px" xmlns="http://www.w3.org/2000/svg">
  <g transform="matrix(1.0, 0.0, 0.0, 1.0, 37.85, 15.4)">
    <path d="M9.6 -9.8 L9.6 -6.55 Q9.1 -6.25 8.85 -5.75 8.5 -4.85 8.55 -2.45 8.55 -1.55 8.85 -1.3 L9.55 -1.1 Q9.1 -0.7 8.6 0.75 8.25 1.95 8.15 3.45 L8.75 7.25 9.35 11.15 9.55 12.45 9.8 13.9 11.4 23.7 12.0 27.55 12.75 27.35 12.95 28.75 12.3 28.95 10.0 29.5 9.25 23.7 8.8 23.7 8.35 20.7 8.9 20.65 8.05 13.95 8.1 14.05 8.6 15.15 8.3 12.85 8.15 11.55 8.0 10.3 7.85 9.25 7.2 3.5 7.1 3.5 7.1 2.5 7.2 2.5 7.25 -8.85 7.25 -9.65 9.6 -9.8 M17.35 -8.15 L17.25 -10.4 20.3 -10.65 20.35 -8.55 17.35 -8.15 M23.5 -6.35 L26.05 -7.0 26.3 -3.9 23.7 -3.3 23.7 -3.4 23.5 -6.35 M31.4 -8.55 L34.8 -9.7 34.85 -9.45 35.2 -6.65 31.65 -5.45 31.4 -8.55 M34.2 3.4 L35.85 2.9 37.05 5.55 37.1 5.7 35.3 6.2 34.2 3.4 M36.4 2.75 L37.75 2.3 39.3 5.0 Q38.65 5.15 38.05 5.4 L36.4 2.75 M36.4 8.9 L39.3 14.65 40.85 14.05 42.2 16.75 40.65 17.35 42.25 20.45 42.1 20.5 Q39.7 16.7 36.65 9.55 L36.4 8.9 M43.05 13.2 L44.05 12.8 44.9 14.05 45.75 15.35 44.7 15.75 43.05 13.2 M40.4 23.55 L39.95 22.6 40.4 22.2 36.0 13.45 34.95 11.15 34.95 11.1 33.2 6.4 31.7 2.0 30.8 -0.6 31.8 1.7 33.25 5.1 35.15 9.25 36.35 11.75 38.6 16.2 41.2 20.75 Q41.8 21.7 41.8 22.25 41.8 23.1 40.4 23.55 M32.3 20.05 L30.1 20.6 29.5 18.35 29.3 17.7 30.95 17.3 31.05 17.45 32.3 20.05 M29.15 20.85 L27.8 21.2 29.9 27.55 28.45 28.15 27.1 28.55 26.75 27.6 Q28.05 27.55 29.05 26.95 L28.5 25.35 27.35 21.4 26.7 18.7 26.2 16.45 26.8 18.3 28.3 17.95 28.75 19.45 29.15 20.85 M-6.35 26.8 L-6.55 28.55 -9.5 28.0 -8.8 22.7 -11.2 22.3 -10.45 19.7 -10.35 19.35 -8.4 19.7 -8.2 18.25 -8.05 21.05 -7.85 23.55 Q-7.45 26.1 -6.35 26.8 M-19.0 20.65 L-20.2 20.35 -19.25 17.45 -18.15 17.75 -19.0 20.65 M-20.65 20.2 L-21.1 20.1 -22.7 25.1 -22.9 25.25 -22.95 25.25 -25.85 25.2 -25.3 23.45 -24.35 23.5 -23.9 22.6 -22.95 20.25 -20.25 13.8 -17.5 7.25 -15.3 1.9 -15.5 2.75 -16.25 5.1 -16.15 5.1 -16.95 8.0 -17.2 7.95 -20.15 17.2 -19.7 17.35 -20.65 20.2 M-29.4 17.45 L-30.7 17.0 -29.3 14.3 -28.1 14.7 -29.4 17.45 M-31.55 16.65 L-32.1 16.45 -34.05 20.35 -34.25 20.3 -35.85 19.6 -36.8 19.05 -35.8 17.1 -34.35 18.05 -27.1 3.4 -27.3 1.0 -29.65 4.7 -29.35 4.1 -30.15 3.75 -28.75 1.15 -28.7 1.1 -28.0 1.4 -26.4 -1.8 -25.35 -6.9 -26.6 -7.45 -26.65 -7.45 -26.55 -8.0 -26.55 -8.1 -26.55 -8.3 -26.4 -9.3 -26.2 -10.5 -24.7 -9.9 -23.85 -13.95 -22.7 -13.45 -21.05 -12.85 -21.55 -10.55 -22.55 -10.7 -22.75 -8.85 -23.1 -6.35 Q-23.15 -5.8 -22.6 -5.65 L-22.55 -5.65 -22.8 -4.4 -22.8 -4.35 -22.9 -4.3 -22.95 -4.3 Q-23.7 -3.65 -23.8 -2.3 L-23.85 -0.3 -23.8 -0.3 -25.15 2.45 -24.75 2.55 -25.9 5.35 -26.5 5.15 -30.75 13.75 -30.1 14.0 -31.55 16.65 M-36.1 14.85 L-37.1 14.4 -35.35 11.85 -34.45 12.25 -36.1 14.85 M-16.9 -9.85 L-16.8 -11.5 -16.6 -11.5 -13.8 -11.15 -13.95 -9.4 -16.9 -9.85 M-5.9 -8.7 L-5.9 -10.6 -4.4 -10.5 -2.9 -10.45 -2.9 -8.5 -4.5 -8.6 -5.9 -8.7 M0.25 -4.25 L1.4 -4.2 1.4 -1.2 -2.25 -1.4 -1.7 -1.65 -0.25 -1.8 0.3 -1.75 0.25 -4.25 M6.75 9.75 L7.0 10.7 6.9 10.7 6.75 9.75 M2.7 -2.55 L2.75 -2.4 2.9 -1.15 2.7 -1.15 2.7 -2.55 M12.3 -1.45 L12.6 -1.6 13.85 -1.8 14.7 -1.7 12.3 -1.45 M20.6 -1.2 L18.3 -1.2 18.25 -2.15 20.6 -2.15 20.6 -1.2 M27.25 8.25 L26.7 8.4 26.7 8.25 25.9 5.45 26.15 5.4 26.6 6.7 27.25 8.25 M25.35 8.65 L24.75 8.8 24.3 5.8 24.65 5.7 25.05 7.45 25.35 8.65 M-19.35 -4.75 L-19.3 -4.95 -18.45 -4.5 -19.35 -4.75 M-17.35 -3.8 L-16.95 -3.4 -16.95 -3.35 -17.4 -3.05 -17.35 -3.8 M-24.5 2.65 L-23.75 2.95 -24.4 5.5 -24.45 5.75 -24.5 5.85 -25.4 5.5 -24.5 2.65 M-15.3 2.05 L-15.3 2.15 -15.3 1.9 -15.3 2.05 M-15.85 5.2 L-15.5 5.25 -15.95 8.25 -16.5 8.15 -15.85 5.2 M-5.9 -1.2 L-5.9 -1.8 -8.05 -2.1 -7.85 -2.2 -6.6 -2.4 -5.4 -2.2 Q-4.9 -2.05 -4.85 -1.8 L-5.4 -1.35 -5.9 -1.2 M-11.05 -2.65 L-13.5 -3.2 -11.05 -3.2 -11.05 -2.65 M-9.15 9.55 L-9.1 8.35 -8.95 9.6 -9.15 9.55" fill="#8a8a8a" fill-rule="evenodd" stroke="none"/>
    <path d="M6.1 -4.15 L6.6 -4.2 6.6 -11.15 7.75 -11.15 9.6 -11.15 9.6 -9.8 7.25 -9.65 7.25 -8.85 7.2 2.5 7.1 2.5 7.1 3.5 7.2 3.5 7.85 9.25 8.0 10.3 8.15 11.55 8.3 12.85 8.6 15.15 8.1 14.05 8.05 13.95 7.65 10.65 7.0 10.7 6.75 9.75 6.4 7.65 7.3 7.65 6.6 2.3 6.6 -1.15 6.1 -1.15 6.1 -4.15 M17.25 -10.4 L17.25 -11.55 17.85 -11.65 20.25 -11.95 20.3 -10.65 17.25 -10.4 M26.05 -7.0 L27.25 -7.3 27.5 -4.25 26.3 -3.9 26.05 -7.0 M27.55 -11.75 L27.45 -13.2 29.7 -13.7 30.45 -13.85 30.85 -8.35 31.4 -8.55 31.65 -5.45 31.05 -5.25 31.35 -1.1 33.7 3.55 34.2 3.4 35.3 6.2 35.4 6.5 36.15 8.35 36.4 8.9 36.65 9.55 Q39.7 16.7 42.1 20.5 L42.25 20.45 43.05 22.05 42.85 22.65 Q42.85 23.65 40.85 24.4 L40.4 23.55 Q41.8 23.1 41.8 22.25 41.8 21.7 41.2 20.75 L38.6 16.2 36.35 11.75 35.15 9.25 33.25 5.1 31.8 1.7 30.8 -0.6 30.8 -0.65 30.65 -0.95 30.65 -1.05 30.0 -10.95 29.85 -12.4 27.55 -11.75 M34.8 -9.7 L36.15 -10.2 36.35 -8.8 36.45 -8.1 36.6 -7.15 35.2 -6.65 34.85 -9.45 34.8 -9.7 M37.75 2.3 L39.05 1.9 40.45 4.6 39.3 5.0 37.75 2.3 M44.05 12.8 L45.05 12.35 46.7 14.95 45.75 15.35 44.9 14.05 44.05 12.8 M30.1 20.6 L29.15 20.85 28.75 19.45 28.3 17.95 29.3 17.7 29.5 18.35 30.1 20.6 M29.9 27.55 L30.25 28.55 29.65 28.8 28.55 29.2 27.9 29.35 27.25 29.45 27.4 29.45 27.1 28.55 28.45 28.15 29.9 27.55 M12.95 28.75 L13.05 29.75 12.0 30.0 10.1 30.45 10.0 29.5 12.3 28.95 12.95 28.75 M-6.55 28.55 L-6.75 29.9 -7.0 29.8 -9.6 29.0 -9.5 28.0 -6.55 28.55 M-20.2 20.35 L-20.65 20.2 -19.7 17.35 -19.25 17.45 -20.2 20.35 M-22.7 25.1 L-23.5 27.7 -23.55 27.65 -23.3 26.25 -26.05 25.8 -25.85 25.2 -22.95 25.25 -22.9 25.25 -22.7 25.1 M-30.7 17.0 L-31.55 16.65 -30.1 14.0 -29.3 14.3 -30.7 17.0 M-34.05 20.35 L-34.45 21.15 -37.0 19.5 -36.8 19.05 -35.85 19.6 -34.25 20.3 -34.05 20.35 M-37.1 14.4 L-37.85 14.05 -36.15 11.5 -35.35 11.85 -37.1 14.4 M-30.15 3.75 L-31.1 3.4 -29.7 0.75 -28.7 1.1 -28.75 1.15 -30.15 3.75 M-26.65 -7.45 L-27.9 -7.95 -27.85 -8.1 -27.6 -9.6 -27.35 -11.0 -26.2 -10.5 -26.4 -9.3 -26.55 -8.3 -26.55 -8.1 -26.55 -8.0 -26.65 -7.45 M-23.85 -13.95 L-23.55 -15.35 -23.55 -15.4 -22.95 -15.05 -22.4 -14.95 -22.25 -14.9 -22.2 -14.85 -20.7 -14.35 -21.05 -12.85 -22.7 -13.45 -23.85 -13.95 M-16.8 -11.5 L-16.65 -13.35 -15.55 -13.1 -13.7 -12.75 -13.8 -11.15 -16.6 -11.5 -16.8 -11.5 M-5.9 -10.6 L-5.9 -11.7 -2.9 -11.5 -2.9 -10.45 -4.4 -10.5 -5.9 -10.6 M1.4 -4.2 L2.7 -4.15 2.7 -2.55 2.7 -1.15 1.4 -1.2 1.4 -4.2 M26.7 8.4 L25.35 8.65 25.05 7.45 24.65 5.7 25.9 5.45 26.7 8.25 26.7 8.4 M27.4 29.45 L27.9 29.35 27.4 29.4 27.4 29.45 M-24.75 2.55 L-24.5 2.65 -25.4 5.5 -25.9 5.35 -24.75 2.55 M-15.3 2.15 L-15.5 2.75 -15.3 1.9 -15.3 2.15 M-16.15 5.1 L-15.85 5.2 -16.5 8.15 -16.95 8.0 -16.15 5.1" fill="#464646" fill-rule="evenodd" stroke="none"/>
    <path d="M9.6 -6.55 L9.6 -4.3 10.7 -4.4 Q10.1 -3.9 10.1 -3.3 L10.2 -1.3 9.6 -1.25 9.6 1.95 10.3 7.55 11.3 7.5 11.55 10.5 10.7 10.55 11.9 20.5 12.45 20.5 12.7 23.5 12.3 23.5 12.75 27.35 12.0 27.55 11.4 23.7 9.8 13.9 9.55 12.45 9.35 11.15 8.75 7.25 8.15 3.45 Q8.25 1.95 8.6 0.75 9.1 -0.7 9.55 -1.1 L8.85 -1.3 Q8.55 -1.55 8.55 -2.45 8.5 -4.85 8.85 -5.75 9.1 -6.25 9.6 -6.55 M17.45 -5.85 L17.35 -8.15 20.35 -8.55 20.45 -5.7 23.5 -6.35 23.7 -3.4 23.7 -3.3 21.55 -2.85 21.45 -3.6 Q20.75 -5.85 18.2 -5.85 L17.45 -5.85 M35.85 2.9 L36.4 2.75 38.05 5.4 37.1 5.7 37.05 5.55 35.85 2.9 M40.85 14.05 L43.05 13.2 44.7 15.75 42.2 16.75 40.85 14.05 M39.95 22.6 L37.8 18.35 36.5 18.75 35.35 16.1 35.35 16.0 36.45 15.65 32.1 7.1 32.05 7.1 Q30.5 2.65 29.85 -0.7 L29.85 -0.75 30.65 -1.05 30.6 -0.9 30.65 -0.95 30.8 -0.65 30.8 -0.6 31.7 2.0 33.2 6.4 34.95 11.1 34.95 11.15 36.0 13.45 40.4 22.2 39.95 22.6 M34.25 19.45 L32.3 20.05 31.05 17.45 30.95 17.3 33.1 16.65 33.5 17.65 34.25 19.45 M26.75 27.6 L26.15 25.75 26.75 25.8 26.15 22.95 25.7 20.75 24.85 16.6 23.95 12.35 23.45 9.75 22.9 7.05 22.7 6.1 24.3 5.8 24.75 8.8 23.7 9.0 26.2 16.45 26.7 18.7 27.35 21.4 28.5 25.35 29.05 26.95 Q28.05 27.55 26.75 27.6 M8.8 23.7 L6.0 23.75 5.85 22.5 5.7 20.7 8.35 20.7 8.8 23.7 M-6.0 24.15 L-6.35 26.8 Q-7.45 26.1 -7.85 23.55 L-8.05 21.05 -8.2 18.25 -8.2 18.2 -7.6 13.8 -6.35 21.95 -6.2 23.1 -6.0 24.15 M-11.2 22.3 L-13.45 21.9 -12.35 19.0 -10.35 19.35 -10.45 19.7 -11.2 22.3 M-17.6 21.0 L-19.0 20.65 -18.15 17.75 -16.8 18.1 -16.95 18.75 -17.4 20.3 -17.6 21.0 M-25.3 23.45 L-23.95 19.25 -24.2 19.2 -23.05 16.4 -16.95 1.55 -15.3 1.9 -15.25 1.9 -15.3 2.05 -15.3 1.9 -17.5 7.25 -20.25 13.8 -22.95 20.25 -23.9 22.6 -24.35 23.5 -25.3 23.45 M-28.05 17.95 L-29.4 17.45 -28.1 14.7 -26.6 15.25 -27.0 15.95 -28.05 17.95 M-35.8 17.1 L-34.95 15.35 -36.1 14.85 -34.45 12.25 -33.6 12.6 -29.65 4.7 -27.3 1.0 -27.1 3.4 -34.35 18.05 -35.8 17.1 M-21.55 -10.55 L-21.9 -8.8 -17.1 -7.25 -16.9 -9.85 -13.95 -9.4 -14.05 -7.65 -14.95 -7.75 -15.0 -7.75 Q-15.3 -7.8 -16.7 -3.8 L-17.55 -0.95 -17.4 -3.05 -16.95 -3.35 -16.95 -3.4 -17.35 -3.8 -17.35 -4.15 -18.45 -4.5 -19.3 -4.95 -19.35 -4.75 -22.5 -5.85 -22.55 -5.65 -22.6 -5.65 Q-23.15 -5.8 -23.1 -6.35 L-22.75 -8.85 -22.55 -10.7 -21.55 -10.55 M-5.9 -6.2 L-5.9 -8.7 -4.5 -8.6 -2.9 -8.5 -2.9 -4.85 Q-4.15 -5.6 -5.9 -6.2 M-2.3 -4.45 L0.25 -4.25 0.3 -1.75 -0.25 -1.8 -0.25 -1.9 Q-0.8 -3.35 -2.3 -4.45 M6.4 7.65 L6.75 9.75 6.9 10.7 5.05 10.7 5.05 9.95 4.95 7.65 6.4 7.65 M30.05 7.6 L27.25 8.25 26.6 6.7 26.15 5.4 29.15 4.75 30.05 7.6 M2.35 10.65 L1.4 10.6 0.85 7.55 2.65 7.65 2.35 10.65 M-23.8 -0.3 L-23.85 -0.3 -23.8 -2.3 Q-23.7 -3.65 -22.95 -4.3 L-22.9 -4.3 -22.8 -4.35 -23.55 -0.8 -23.8 -0.3 M-23.75 2.95 L-19.6 4.2 -20.15 5.05 -20.85 5.9 -20.9 6.0 -21.0 6.1 -21.05 6.2 -21.15 6.3 -21.2 6.35 -21.5 6.8 -24.5 5.85 -24.45 5.75 -24.4 5.5 -23.75 2.95 M-18.6 2.7 L-17.95 0.7 -18.0 0.95 -18.05 1.25 -18.05 1.3 -18.1 1.4 -18.6 2.7 M-15.5 5.25 L-14.5 5.5 -14.95 8.5 -15.95 8.25 -15.5 5.25 M-9.6 6.45 L-8.9 6.55 -8.3 9.7 -8.95 9.6 -9.1 8.35 -9.15 9.55 -10.25 9.4 -10.1 8.6 -9.6 6.45" fill="#b4b4b4" fill-rule="evenodd" stroke="none"/>
    <path d="M10.7 -4.4 L17.45 -5.2 17.45 -5.85 18.2 -5.85 Q20.75 -5.85 21.45 -3.6 L21.55 -2.85 20.55 -2.65 20.6 -2.15 18.25 -2.15 18.3 -1.2 20.6 -1.2 20.65 0.0 22.7 6.0 22.7 6.1 22.9 7.05 23.45 9.75 23.95 12.35 24.85 16.6 25.7 20.75 26.15 22.95 26.75 25.8 26.15 25.75 24.8 21.8 23.4 22.1 22.8 19.15 23.85 18.95 21.05 10.55 21.0 10.45 20.35 7.3 Q20.35 4.55 20.05 3.75 L18.9 4.25 17.65 0.55 17.55 -2.1 14.7 -1.7 13.85 -1.8 12.6 -1.6 12.3 -1.45 10.2 -1.3 10.1 -3.3 Q10.1 -3.9 10.7 -4.4 M27.25 -7.3 L27.85 -7.5 27.7 -10.05 30.0 -10.95 30.65 -1.05 29.85 -0.75 29.85 -0.7 Q30.5 2.65 32.05 7.1 L30.05 7.6 29.15 4.75 30.75 4.35 28.4 -0.3 28.1 -4.4 27.5 -4.25 27.25 -7.3 M36.5 18.75 L34.25 19.45 33.5 17.65 33.1 16.65 35.3 16.0 35.35 16.0 35.35 16.1 36.5 18.75 M19.95 22.65 L15.2 23.25 16.55 20.95 16.35 20.1 18.95 19.75 19.35 21.3 19.65 22.55 19.95 22.65 M14.5 23.35 L12.7 23.5 12.45 20.5 14.05 20.35 14.5 23.15 14.5 23.35 M6.0 23.75 L5.2 23.75 4.85 20.7 5.7 20.7 5.85 22.5 6.0 23.75 M4.85 23.75 L3.9 23.75 2.7 20.7 4.1 20.7 4.85 23.75 M-4.1 23.3 L-5.85 23.1 -6.0 24.15 -6.2 23.1 -6.35 21.95 -7.6 13.8 -7.6 13.75 -7.25 10.95 -7.15 11.3 -6.45 14.0 -6.4 14.2 -6.2 14.95 -5.35 18.25 -5.25 18.65 -5.25 18.7 -5.45 20.1 -4.85 20.15 -4.2 22.85 -4.1 23.3 M-13.45 21.9 L-14.85 21.6 -13.9 18.7 -12.35 19.0 -13.45 21.9 M-16.85 21.15 L-17.6 21.0 -17.4 20.3 -16.95 18.75 -16.8 18.1 -16.0 18.25 -16.35 19.5 -16.45 19.75 -16.85 21.15 M-24.2 19.2 L-28.05 17.95 -27.0 15.95 -26.6 15.25 -23.05 16.4 -20.1 7.2 -21.5 6.8 -21.2 6.35 -21.15 6.3 -21.05 6.2 -21.0 6.1 -20.9 6.0 -20.85 5.9 -20.15 5.05 -19.6 4.2 -19.55 4.2 -19.15 4.35 -18.65 2.75 -18.6 2.7 -18.1 1.4 -18.05 1.3 -18.05 1.25 -18.0 0.95 -17.95 0.7 -17.95 0.6 -17.95 0.55 -17.6 -0.6 -17.55 -0.95 -16.7 -3.8 Q-15.3 -7.8 -15.0 -7.75 L-14.95 -7.75 -14.05 -7.65 -14.15 -6.45 -5.9 -4.85 -5.9 -6.2 Q-4.15 -5.6 -2.9 -4.85 L-2.9 -4.5 -2.3 -4.45 Q-0.8 -3.35 -0.25 -1.9 L-0.25 -1.8 -1.7 -1.65 -2.25 -1.4 -2.9 -1.45 -2.9 0.85 -2.9 0.95 -3.45 4.95 -4.0 3.55 -4.1 3.55 -5.4 1.25 -5.5 1.15 -5.9 0.9 -5.9 0.85 -5.9 0.75 -5.9 -1.2 -5.4 -1.35 -4.85 -1.8 Q-4.9 -2.05 -5.4 -2.2 L-6.6 -2.4 -7.85 -2.2 -8.05 -2.1 -11.05 -2.65 -11.05 -3.2 -13.5 -3.2 -14.35 -3.4 -14.6 -0.25 -14.6 -0.05 -15.25 1.9 -15.3 1.9 -16.95 1.55 -23.05 16.4 -24.2 19.2 M2.7 -4.15 L6.1 -4.15 6.1 -1.15 2.9 -1.15 2.75 -2.4 2.7 -2.55 2.7 -4.15 M30.65 -1.05 L30.65 -0.95 30.6 -0.9 30.65 -1.05 M16.5 10.05 L14.45 10.25 14.3 9.25 13.95 7.25 15.8 7.1 16.5 10.05 M12.8 10.4 L11.55 10.5 11.3 7.5 12.6 7.4 12.55 7.85 12.8 10.4 M2.65 7.65 L4.95 7.65 5.05 9.95 5.05 10.7 3.8 10.7 3.75 10.2 3.75 10.7 2.35 10.65 2.65 7.65 M0.85 7.55 L1.4 10.6 -1.3 10.45 -2.5 7.35 0.85 7.55 M-14.5 5.5 L-12.3 5.95 -13.15 8.85 -14.95 8.5 -14.5 5.5 M-9.9 6.4 L-9.6 6.45 -10.1 8.6 -10.25 9.4 -10.85 9.3 -9.9 6.4 M-8.9 6.55 L-8.35 6.65 -7.55 9.8 -8.3 9.7 -8.9 6.55" fill="#e0e0e0" fill-rule="evenodd" stroke="none"/>
    <path d="M27.7 -10.05 L27.55 -11.7 27.55 -11.75 29.85 -12.4 30.0 -10.95 27.7 -10.05 M23.4 22.1 L19.95 22.65 19.65 22.55 19.35 21.3 18.95 19.75 22.8 19.15 23.4 22.1 M15.2 23.25 L14.5 23.35 14.5 23.15 14.05 20.35 16.35 20.1 16.55 20.95 15.2 23.25 M5.2 23.75 L4.85 23.75 4.1 20.7 4.85 20.7 5.2 23.75 M3.9 23.75 L-4.1 23.3 -4.2 22.85 -4.85 20.15 2.7 20.7 3.9 23.75 M-14.85 21.6 L-16.85 21.15 -16.45 19.75 -16.35 19.5 -16.0 18.25 -13.9 18.7 -14.85 21.6 M18.9 4.25 L20.05 3.75 Q20.35 4.55 20.35 7.3 L21.0 10.45 20.65 9.5 16.5 10.05 15.8 7.1 19.7 6.6 18.9 4.25 M14.45 10.25 L12.8 10.4 12.55 7.85 12.6 7.4 13.95 7.25 14.3 9.25 14.45 10.25 M-1.3 10.45 L-4.15 10.2 -5.25 18.65 -5.35 18.25 -6.2 14.95 -6.4 14.2 -6.45 14.0 -7.15 11.3 -7.25 10.95 -7.1 9.85 -7.55 9.8 -8.35 6.65 -6.7 6.85 -5.9 0.9 -5.5 1.15 -5.4 1.25 -4.1 3.55 -4.0 3.55 -3.45 4.95 -3.75 7.2 -2.5 7.35 -1.3 10.45 M3.75 10.7 L3.75 10.2 3.8 10.7 3.75 10.7 M-12.3 5.95 L-9.9 6.4 -10.85 9.3 -13.15 8.85 -12.3 5.95" fill="#ffffff" fill-rule="evenodd" stroke="none"/>
  </g>
</svg>
