<?xml version="1.0" encoding="UTF-8" standalone="no"?>
<svg xmlns:ffdec="https://www.free-decompiler.com/flash" xmlns:xlink="http://www.w3.org/1999/xlink" ffdec:objectType="shape" height="107.35px" width="105.25px" xmlns="http://www.w3.org/2000/svg">
  <g transform="matrix(1.0, 0.0, 0.0, 1.0, 50.0, 60.0)">
    <path d="M12.95 -29.05 L14.6 -29.05 14.65 -29.0 15.0 -28.7 15.65 -28.25 22.0 -22.75 23.75 -20.8 Q32.2 -11.1 32.7 0.95 L32.7 1.55 Q36.0 -2.0 36.95 -6.95 L36.95 -7.0 36.95 -7.1 37.9 -13.9 Q39.0 -10.6 38.5 -7.1 L40.0 -3.2 40.95 0.8 41.35 3.55 41.9 2.2 Q45.4 -6.75 43.05 -14.4 L42.7 -15.4 42.65 -15.5 40.8 -21.0 40.25 -22.5 39.55 -24.35 38.95 -25.05 40.0 -23.85 Q41.55 -21.9 42.7 -19.5 L44.0 -16.25 Q47.6 -14.55 51.3 -10.8 L51.25 -12.55 Q50.8 -17.85 47.15 -23.3 L47.1 -23.4 47.05 -23.45 46.0 -24.95 44.2 -27.65 44.05 -27.95 43.85 -28.3 43.7 -28.5 42.6 -30.35 44.0 -29.05 Q48.15 -25.1 53.2 -22.45 L52.6 -23.85 Q50.3 -29.0 46.2 -33.05 L44.5 -34.85 44.1 -35.25 48.45 -34.6 46.75 -36.3 Q43.45 -39.4 39.75 -41.75 L41.05 -41.4 41.1 -41.4 Q47.35 -39.25 50.6 -34.1 L50.7 -33.55 50.55 -33.25 50.4 -33.1 Q50.15 -32.9 49.9 -32.95 L48.25 -33.1 Q53.05 -27.95 55.25 -21.2 L55.2 -20.65 54.75 -20.3 54.2 -20.3 49.55 -22.3 Q53.5 -15.55 52.7 -9.0 L52.45 -8.5 51.9 -8.35 Q51.6 -8.35 51.4 -8.6 47.95 -12.3 44.65 -14.25 47.45 -4.65 41.45 6.85 L41.05 7.2 40.6 7.25 40.15 7.0 40.0 6.5 39.85 3.65 39.2 -0.3 37.9 -4.6 Q36.4 0.35 32.45 3.9 L31.95 4.1 31.4 3.85 31.2 3.35 Q31.6 -12.6 17.9 -24.5 L13.1 -28.25 12.8 -28.7 Q12.7 -28.9 12.75 -29.05 L12.95 -29.05 M-33.25 -49.1 L-34.8 -47.75 Q-35.8 -47.55 -36.2 -47.2 L-36.55 -46.1 -37.9 -44.7 -39.85 -43.55 Q-40.2 -43.25 -40.2 -42.25 L-40.2 -42.0 Q-40.3 -41.25 -41.1 -40.85 L-41.2 -40.8 -42.8 -39.6 Q-44.05 -38.6 -44.05 -38.25 L-43.5 -37.35 -44.1 -36.25 -44.65 -36.9 Q-45.05 -37.6 -45.1 -38.35 -45.1 -39.05 -44.4 -39.7 L-42.45 -41.35 Q-41.5 -42.15 -41.3 -43.0 -41.15 -43.9 -40.65 -44.35 L-38.95 -45.35 Q-37.85 -46.0 -37.5 -46.85 L-36.35 -48.25 Q-35.2 -49.2 -33.85 -49.1 L-33.25 -49.1" fill="#351e07" fill-rule="evenodd" stroke="none"/>
    <path d="M14.65 -29.0 Q14.65 -31.6 17.65 -32.65 L21.55 -32.35 Q23.45 -32.7 23.95 -34.9 L24.2 -35.8 24.3 -36.1 32.3 -36.1 28.85 -40.5 32.2 -40.55 34.3 -40.3 32.65 -42.8 31.95 -43.85 39.75 -41.75 Q43.45 -39.4 46.75 -36.3 L48.45 -34.6 44.1 -35.25 44.5 -34.85 43.05 -35.1 44.75 -31.5 44.25 -31.0 42.9 -31.05 43.95 -30.15 Q48.05 -26.65 52.6 -23.85 L53.2 -22.45 Q48.15 -25.1 44.0 -29.05 L42.6 -30.35 43.7 -28.5 41.4 -31.15 38.35 -31.05 39.85 -28.75 38.8 -28.2 37.8 -27.7 Q29.75 -23.6 21.35 -26.65 L23.95 -25.25 Q26.0 -24.15 26.35 -21.9 L26.0 -21.5 22.0 -22.75 15.65 -28.25 15.0 -28.7 14.65 -29.0 M-34.8 -47.75 L-36.15 -46.5 -36.55 -46.1 -36.2 -47.2 Q-35.8 -47.55 -34.8 -47.75 M-37.9 -44.7 L-40.2 -42.0 -40.2 -42.25 Q-40.2 -43.25 -39.85 -43.55 L-37.9 -44.7 M-41.1 -40.85 L-43.5 -37.35 -44.05 -38.25 Q-44.05 -38.6 -42.8 -39.6 L-41.2 -40.8 -41.1 -40.85" fill="#41250a" fill-rule="evenodd" stroke="none"/>
    <path d="M32.1 -40.55 L27.0 -41.4 29.4 -38.1 22.85 -38.1 21.9 -33.65 21.05 -33.65 20.95 -33.65 16.05 -33.75 14.2 -31.1 12.75 -29.05 Q12.7 -28.9 12.8 -28.7 L13.1 -28.25 17.9 -24.5 Q31.6 -12.6 31.2 3.35 L31.4 3.85 31.95 4.1 32.45 3.9 Q36.4 0.35 37.9 -4.6 L39.2 -0.3 38.05 2.9 36.8 5.5 Q33.8 11.25 27.3 17.95 L21.75 23.3 Q19.35 24.75 13.8 26.65 L6.0 28.9 5.85 28.4 Q19.7 22.6 27.0 11.85 L27.3 11.4 Q29.0 8.8 30.3 6.0 L30.15 5.05 29.95 2.9 29.9 2.8 29.45 -1.7 Q28.8 -5.4 26.65 -10.7 24.65 -15.55 20.7 -19.7 L15.55 -23.7 Q11.0 -27.35 11.0 -28.3 11.0 -29.25 12.3 -32.0 13.95 -35.5 15.8 -35.5 L17.5 -35.2 18.9 -34.9 Q19.1 -34.9 19.7 -36.0 L20.5 -37.55 Q21.2 -38.95 21.85 -39.1 L24.3 -39.1 19.95 -43.45 Q7.35 -54.5 -8.65 -54.5 -14.7 -54.5 -22.35 -51.9 -27.55 -50.15 -31.05 -48.15 L-31.95 -47.6 -32.1 -47.55 -31.95 -47.65 -31.15 -48.55 Q-26.1 -53.7 -16.75 -56.15 -9.9 -58.0 -3.45 -58.0 13.3 -58.0 26.4 -46.5 29.6 -43.7 32.1 -40.55" fill="#e7a867" fill-rule="evenodd" stroke="none"/>
    <path d="M-19.25 28.35 L-20.9 27.65 Q-34.9 21.75 -42.0 9.3 -48.0 -1.15 -48.0 -13.45 -48.0 -25.3 -42.15 -35.45 L-41.45 -36.65 -40.75 -37.75 Q-37.5 -42.75 -32.8 -46.95 L-32.1 -47.55 -31.95 -47.6 -31.05 -48.15 Q-27.55 -50.15 -22.35 -51.9 -14.7 -54.5 -8.65 -54.5 7.35 -54.5 19.95 -43.45 L24.3 -39.1 21.85 -39.1 Q21.2 -38.95 20.5 -37.55 L19.7 -36.0 Q19.1 -34.9 18.9 -34.9 L17.5 -35.2 15.8 -35.5 Q13.95 -35.5 12.3 -32.0 11.0 -29.25 11.0 -28.3 11.0 -27.35 15.55 -23.7 L20.7 -19.7 Q24.65 -15.55 26.65 -10.7 28.8 -5.4 29.45 -1.7 L29.9 2.8 29.95 2.9 30.15 5.05 30.3 6.0 Q29.0 8.8 27.3 11.4 L27.0 11.85 Q19.7 22.6 5.85 28.4 L3.6 23.3 3.15 23.15 5.0 22.5 Q14.55 16.45 19.5 8.0 24.45 -0.35 24.45 -10.3 L24.25 -14.8 24.2 -15.15 24.35 -13.15 23.75 -14.2 21.85 -15.7 19.75 -17.0 Q19.8 -15.45 18.1 -13.1 16.5 -10.9 15.65 -10.9 14.8 -10.9 14.3 -12.15 L13.75 -13.75 11.1 -16.75 4.05 -22.65 Q1.35 -24.75 -6.7 -27.05 -15.65 -29.55 -26.4 -30.8 L-30.75 -30.8 -32.45 -30.5 -33.1 -30.35 -33.15 -30.35 Q-37.65 -22.95 -37.65 -12.85 L-37.2 -7.9 -36.3 -2.85 Q-35.4 2.0 -32.4 7.2 -27.25 15.95 -18.45 21.1 -12.15 24.8 -7.1 25.2 L-9.15 26.05 -9.45 26.2 -12.4 27.85 Q-13.25 28.55 -14.3 28.45 L-16.25 27.95 -17.45 27.95 -19.25 28.35" fill="#f4bb83" fill-rule="evenodd" stroke="none"/>
    <path d="M-7.1 25.2 Q-12.15 24.8 -18.45 21.1 -27.25 15.95 -32.4 7.2 -35.4 2.0 -36.3 -2.85 L-37.2 -7.9 -37.65 -12.85 Q-37.65 -22.95 -33.15 -30.35 L-33.1 -30.35 -32.45 -30.5 -30.75 -30.8 -26.4 -30.8 Q-15.65 -29.55 -6.7 -27.05 1.35 -24.75 4.05 -22.65 L11.1 -16.75 13.75 -13.75 14.3 -12.15 Q14.8 -10.9 15.65 -10.9 16.5 -10.9 18.1 -13.1 19.8 -15.45 19.75 -17.0 L21.85 -15.7 23.75 -14.2 24.35 -13.15 24.2 -15.15 24.25 -14.8 24.45 -10.3 Q24.45 -0.35 19.5 8.0 14.55 16.45 5.0 22.5 L3.15 23.15 Q1.05 22.55 -4.1 24.15 L-7.1 25.2" fill="#f5c89d" fill-rule="evenodd" stroke="none"/>
    <path d="M32.2 -40.55 L32.1 -40.55 Q29.6 -43.7 26.4 -46.5 13.3 -58.0 -3.45 -58.0 -9.9 -58.0 -16.75 -56.15 -26.1 -53.7 -31.15 -48.55 L-31.95 -47.65 -32.1 -47.55 -32.8 -46.95 Q-37.5 -42.75 -40.75 -37.75 L-41.45 -36.65 -42.15 -35.45 Q-48.0 -25.3 -48.0 -13.45 -48.0 -1.15 -42.0 9.3 -34.9 21.75 -20.9 27.65 L-19.25 28.35 -21.25 29.65 -26.75 26.6 -31.6 23.6 -33.15 22.35 Q-41.3 15.35 -45.6 6.45 -50.0 -2.75 -50.0 -13.45 -50.0 -26.1 -44.1 -36.25 L-43.5 -37.35 -41.1 -40.85 Q-40.3 -41.25 -40.2 -42.0 L-37.9 -44.7 -36.55 -46.1 -36.15 -46.5 -34.8 -47.75 -33.25 -49.1 Q-20.55 -60.0 -3.45 -60.0 15.75 -60.0 29.4 -46.35 L32.65 -42.8 34.3 -40.3 32.2 -40.55 M21.75 23.3 L27.3 17.95 Q33.8 11.25 36.8 5.5 L38.05 2.9 39.2 -0.3 39.85 3.65 Q36.85 10.6 29.45 19.4 L27.55 20.45 25.45 21.55 21.75 23.3" fill="#a46637" fill-rule="evenodd" stroke="none"/>
    <path d="M-33.15 22.35 L-31.6 23.6 Q-33.25 25.1 -33.55 28.2 -33.85 31.3 -33.3 35.75 -32.25 40.15 -29.3 40.15 -27.65 40.15 -25.5 39.25 L-21.85 37.45 Q-23.2 35.65 -23.05 33.85 -22.95 30.8 -21.25 29.65 L-19.25 28.35 -17.45 27.95 -16.25 27.95 -14.3 28.45 Q-13.25 28.55 -12.4 27.85 L-9.45 26.2 -9.15 26.05 -7.1 25.2 -4.1 24.15 Q1.05 22.55 3.15 23.15 L3.6 23.3 5.85 28.4 6.0 28.9 6.55 30.85 6.8 34.1 6.65 37.2 6.05 39.4 Q5.1 42.15 2.95 44.8 0.75 47.45 -3.6 47.35 -8.0 47.2 -11.4 44.2 -14.85 41.15 -15.7 38.9 L-19.9 38.9 -20.4 38.8 Q-20.9 38.8 -25.65 40.5 L-30.35 42.15 Q-33.0 42.15 -34.5 38.7 -35.8 35.7 -35.8 31.1 -34.7 24.0 -33.15 22.35 M4.45 31.2 Q3.2 24.6 1.5 24.6 -7.75 24.6 -12.2 29.7 -13.8 31.5 -14.45 33.35 L-14.85 34.85 -14.85 34.9 Q-14.85 36.95 -11.8 40.85 -7.85 45.9 -2.75 45.9 0.55 45.9 3.0 40.9 L4.45 37.35 4.65 36.55 4.95 34.7 4.95 34.2 4.45 31.2 M-19.85 37.25 Q-17.7 38.3 -16.05 37.25 -16.65 33.25 -14.7 29.8 -17.55 28.45 -20.45 30.45 -22.4 33.85 -19.85 37.25" fill="#620404" fill-rule="evenodd" stroke="none"/>
    <path d="M-31.6 23.6 L-26.75 26.6 -21.25 29.65 Q-22.95 30.8 -23.05 33.85 -23.2 35.65 -21.85 37.45 L-25.5 39.25 Q-27.65 40.15 -29.3 40.15 -32.25 40.15 -33.3 35.75 -33.85 31.3 -33.55 28.2 -33.25 25.1 -31.6 23.6 M-14.45 33.35 L-11.3 37.4 Q-7.0 42.3 -4.4 42.3 L-1.4 42.05 Q1.75 39.7 4.2 36.1 L4.2 36.05 2.0 37.8 Q0.55 38.95 -0.95 39.2 L-1.95 39.15 -2.2 38.75 Q-2.2 38.35 -0.95 37.6 L1.1 36.15 3.35 33.25 4.45 31.2 4.95 34.2 4.95 34.7 4.65 36.55 4.45 37.35 3.0 40.9 Q0.55 45.9 -2.75 45.9 -7.85 45.9 -11.8 40.85 -14.85 36.95 -14.85 34.9 L-14.85 34.85 -14.45 33.35 M-29.9 28.8 Q-31.75 28.0 -32.05 29.05 L-32.4 31.05 -32.2 32.6 Q-31.6 33.95 -29.35 33.65 L-29.25 33.55 Q-26.9 33.7 -25.15 32.95 -23.7 32.35 -23.7 31.85 L-26.5 30.3 -29.9 28.8 M-23.75 34.5 Q-27.4 35.9 -31.1 35.35 L-29.6 37.25 -29.25 37.5 Q-25.65 38.45 -23.75 34.5 M-17.55 29.85 Q-21.0 31.05 -19.35 35.05 L-18.55 35.35 -18.35 35.2 -17.85 34.5 Q-16.0 32.7 -16.0 30.45 L-16.3 30.1 -17.55 29.85 M-19.85 37.25 Q-22.4 33.85 -20.45 30.45 -17.55 28.45 -14.7 29.8 -16.65 33.25 -16.05 37.25 -17.7 38.3 -19.85 37.25" fill="#8c0505" fill-rule="evenodd" stroke="none"/>
    <path d="M4.45 31.2 L3.35 33.25 1.1 36.15 -0.95 37.6 Q-2.2 38.35 -2.2 38.75 L-1.95 39.15 -0.95 39.2 Q0.55 38.95 2.0 37.8 L4.2 36.05 4.2 36.1 Q1.75 39.7 -1.4 42.05 L-4.4 42.3 Q-7.0 42.3 -11.3 37.4 L-14.45 33.35 Q-13.8 31.5 -12.2 29.7 -7.75 24.6 1.5 24.6 3.2 24.6 4.45 31.2 M-29.9 28.8 L-26.5 30.3 -23.7 31.85 Q-23.7 32.35 -25.15 32.95 -26.9 33.7 -29.25 33.55 L-29.35 33.65 Q-31.6 33.95 -32.2 32.6 L-32.4 31.05 -32.05 29.05 Q-31.75 28.0 -29.9 28.8 M-23.75 34.5 Q-25.65 38.45 -29.25 37.5 L-29.6 37.25 -31.1 35.35 Q-27.4 35.9 -23.75 34.5 M-0.4 26.1 Q-5.15 26.25 -9.1 28.8 -12.95 31.3 -11.0 35.4 -8.7 40.3 -2.0 41.0 -5.25 38.65 -5.9 36.6 -2.05 35.45 2.1 30.35 L-4.7 31.85 Q-4.05 30.3 -3.05 29.35 L-0.3 26.65 Q0.0 26.3 -0.4 26.1 M-17.55 29.85 L-16.3 30.1 -16.0 30.45 Q-16.0 32.7 -17.85 34.5 L-18.35 35.2 -18.55 35.35 -19.35 35.05 Q-21.0 31.05 -17.55 29.85" fill="#b60a0a" fill-rule="evenodd" stroke="none"/>
    <path d="M-0.4 26.1 Q0.0 26.3 -0.3 26.65 L-3.05 29.35 Q-4.05 30.3 -4.7 31.85 L2.1 30.35 Q-2.05 35.45 -5.9 36.6 -5.25 38.65 -2.0 41.0 -8.7 40.3 -11.0 35.4 -12.95 31.3 -9.1 28.8 -5.15 26.25 -0.4 26.1" fill="#d21717" fill-rule="evenodd" stroke="none"/>
    <path d="M6.0 28.9 L13.8 26.65 Q19.35 24.75 21.75 23.3 L25.45 21.55 27.55 20.45 29.45 19.4 29.4 20.8 29.4 25.8 Q28.8 27.25 26.7 29.3 24.55 31.3 20.25 34.1 15.9 36.9 6.05 39.4 L6.65 37.2 10.2 36.5 Q17.1 34.8 21.65 31.2 L24.8 28.6 27.75 25.7 27.9 25.35 27.3 21.8 22.7 24.35 Q21.35 25.05 19.7 25.9 15.05 28.25 9.75 29.9 L6.55 30.85 6.0 28.9" fill="#2c525f" fill-rule="evenodd" stroke="none"/>
    <path d="M22.7 24.35 L27.3 21.8 27.9 25.35 27.75 25.7 24.8 28.6 21.65 31.2 Q17.1 34.8 10.2 36.5 L6.65 37.2 6.8 34.1 6.55 30.85 9.75 29.9 9.75 32.05 10.0 34.55 11.7 34.05 Q17.05 32.65 20.45 30.45 L23.2 28.65 23.8 28.2 23.65 27.65 22.85 24.95 22.7 24.35" fill="#6f9ebd" fill-rule="evenodd" stroke="none"/>
    <path d="M22.7 24.35 L22.85 24.95 23.65 27.65 23.8 28.2 23.2 28.65 20.45 30.45 Q17.05 32.65 11.7 34.05 L10.0 34.55 9.75 32.05 9.75 29.9 Q15.05 28.25 19.7 25.9 21.35 25.05 22.7 24.35" fill="#8dbfe0" fill-rule="evenodd" stroke="none"/>
    <path d="M32.1 -40.55 L32.2 -40.55 28.85 -40.5 32.3 -36.1 24.3 -36.1 24.2 -35.8 23.95 -34.9 Q23.45 -32.7 21.55 -32.35 L17.65 -32.65 Q14.65 -31.6 14.65 -29.0 L14.6 -29.05 12.95 -29.05 14.1 -30.9 14.2 -31.1 16.05 -33.75 20.95 -33.65 21.0 -33.65 21.05 -33.65 21.9 -33.65 22.85 -38.1 29.4 -38.1 27.0 -41.4 32.1 -40.55 M23.75 -20.8 L26.9 -17.9 Q27.05 -17.75 27.3 -17.7 L27.8 -17.75 28.1 -18.1 28.2 -18.55 27.65 -21.8 30.1 -18.45 31.9 -14.95 Q33.1 -12.55 33.25 -12.55 33.65 -12.55 33.65 -14.35 L33.35 -17.3 32.9 -20.3 31.85 -23.25 31.3 -23.2 31.3 -23.25 Q34.6 -23.4 38.35 -25.75 L39.3 -23.95 40.4 -21.8 40.8 -21.0 42.65 -15.5 42.7 -15.4 43.05 -14.4 Q45.4 -6.75 41.9 2.2 L41.5 -1.05 41.05 -3.95 40.6 -6.6 39.95 -10.0 Q38.35 -15.9 36.45 -20.05 34.55 -24.15 34.55 -21.8 L35.25 -18.35 Q35.95 -14.95 35.95 -11.65 L35.55 -7.6 35.05 -4.2 Q34.35 -2.0 32.75 0.8 L32.7 0.95 Q32.2 -11.1 23.75 -20.8 M51.25 -12.55 L49.4 -14.85 45.35 -19.55 41.8 -24.5 39.9 -26.85 40.9 -27.65 40.95 -27.65 44.75 -25.7 46.6 -24.05 46.0 -24.95 47.05 -23.45 47.1 -23.4 47.15 -23.3 Q50.8 -17.85 51.25 -12.55 M42.9 -8.2 L42.9 -9.05 42.55 -12.5 42.0 -16.8 40.55 -20.6 39.15 -23.15 Q37.45 -25.8 37.45 -23.55 37.45 -21.45 38.85 -19.05 40.45 -16.3 40.8 -13.8 L41.05 -11.95 Q41.9 -5.25 42.25 -4.25 L42.35 -4.1 42.65 -4.2 42.9 -8.2 M36.8 -16.05 L36.95 -15.7 36.9 -15.75 36.8 -16.05 M33.45 -10.9 Q33.05 -10.9 32.3 -12.2 L31.45 -13.8 30.3 -15.25 29.35 -15.3 Q29.35 -14.9 31.45 -9.55 L32.3 -6.1 33.0 -3.85 Q33.7 -3.85 34.65 -10.65 L34.55 -11.15 34.25 -11.2 34.15 -11.05 33.45 -10.9" fill="#5c3814" fill-rule="evenodd" stroke="none"/>
    <path d="M21.05 -33.65 L21.0 -33.65 20.95 -33.65 21.05 -33.65 M14.2 -31.1 L14.1 -30.9 12.95 -29.05 12.75 -29.05 14.2 -31.1 M22.0 -22.75 L26.0 -21.5 26.35 -21.9 Q26.0 -24.15 23.95 -25.25 L21.35 -26.65 Q29.75 -23.6 37.8 -27.7 L38.8 -28.2 39.85 -28.75 38.35 -31.05 41.4 -31.15 43.7 -28.5 43.85 -28.3 44.05 -27.95 44.2 -27.65 46.0 -24.95 46.6 -24.05 44.75 -25.7 40.95 -27.65 40.9 -27.65 39.9 -26.85 41.8 -24.5 45.35 -19.55 49.4 -14.85 51.25 -12.55 51.3 -10.8 Q47.6 -14.55 44.0 -16.25 L42.7 -19.5 Q41.55 -21.9 40.0 -23.85 L38.95 -25.05 39.55 -24.35 40.25 -22.5 40.8 -21.0 40.4 -21.8 39.3 -23.95 38.35 -25.75 Q34.6 -23.4 31.3 -23.25 L31.3 -23.2 31.85 -23.25 32.9 -20.3 33.35 -17.3 33.65 -14.35 Q33.65 -12.55 33.25 -12.55 33.1 -12.55 31.9 -14.95 L30.1 -18.45 27.65 -21.8 28.2 -18.55 28.1 -18.1 27.8 -17.75 27.3 -17.7 Q27.05 -17.75 26.9 -17.9 L23.75 -20.8 22.0 -22.75 M52.6 -23.85 Q48.05 -26.65 43.95 -30.15 L42.9 -31.05 44.25 -31.0 44.75 -31.5 43.05 -35.1 44.5 -34.85 46.2 -33.05 Q50.3 -29.0 52.6 -23.85 M36.8 -16.05 L36.9 -15.75 36.95 -15.7 36.8 -16.05 M32.7 0.95 L32.75 0.8 Q34.35 -2.0 35.05 -4.2 L35.55 -7.6 35.95 -11.65 Q35.95 -14.95 35.25 -18.35 L34.55 -21.8 Q34.55 -24.15 36.45 -20.05 38.35 -15.9 39.95 -10.0 L40.6 -6.6 41.05 -3.95 41.5 -1.05 41.9 2.2 41.35 3.55 40.95 0.8 40.0 -3.2 38.5 -7.1 Q39.0 -10.6 37.9 -13.9 L36.95 -7.1 36.95 -7.0 36.95 -6.95 Q36.0 -2.0 32.7 1.55 L32.7 0.95" fill="#4d2e0f" fill-rule="evenodd" stroke="none"/>
    <path d="M42.9 -8.2 L42.65 -4.2 42.35 -4.1 42.25 -4.25 Q41.9 -5.25 41.05 -11.95 L40.8 -13.8 Q40.45 -16.3 38.85 -19.05 37.45 -21.45 37.45 -23.55 37.45 -25.8 39.15 -23.15 L40.55 -20.6 42.0 -16.8 42.55 -12.5 42.9 -9.05 42.9 -8.2 M33.45 -10.9 L34.15 -11.05 34.25 -11.2 34.55 -11.15 34.65 -10.65 Q33.7 -3.85 33.0 -3.85 L32.3 -6.1 31.45 -9.55 Q29.35 -14.9 29.35 -15.3 L30.3 -15.25 31.45 -13.8 32.3 -12.2 Q33.05 -10.9 33.45 -10.9" fill="#6d4216" fill-rule="evenodd" stroke="none"/>
  </g>
</svg>
