<?xml version="1.0" encoding="UTF-8" standalone="no"?>
<svg xmlns:ffdec="https://www.free-decompiler.com/flash" xmlns:xlink="http://www.w3.org/1999/xlink" ffdec:objectType="shape" height="17.85px" width="22.8px" xmlns="http://www.w3.org/2000/svg">
  <g transform="matrix(1.0, 0.0, 0.0, 1.0, 8.6, 0.75)">
    <path d="M7.0 7.75 Q5.2 8.25 3.3 9.05 L1.15 10.1 0.55 8.9 Q-0.85 6.35 -3.7 2.1 L-1.4 0.95 Q0.15 0.25 1.6 -0.1 3.5 2.4 6.6 7.15 L7.0 7.75" fill="#ffffff" fill-rule="evenodd" stroke="none"/>
    <path d="M8.7 7.35 L7.0 7.75 6.6 7.15 Q3.5 2.4 1.6 -0.1 L3.05 -0.45 7.9 6.3 8.7 7.35 M1.15 10.1 Q-0.7 11.15 -2.15 12.35 L-3.65 8.5 -5.45 3.25 -3.7 2.1 Q-0.85 6.35 0.55 8.9 L1.15 10.1" fill="#e0e0e0" fill-rule="evenodd" stroke="none"/>
    <path d="M11.95 7.05 L11.8 7.05 8.7 7.35 7.9 6.3 3.05 -0.45 5.75 -0.75 5.9 -0.75 6.15 -0.4 10.25 4.85 11.7 6.75 11.95 7.05 M-2.15 12.35 L-3.9 13.95 -5.0 15.4 -5.2 14.75 -7.45 7.35 -7.95 5.65 -7.45 5.05 -5.45 3.25 -3.65 8.5 -2.15 12.35" fill="#b4b4b4" fill-rule="evenodd" stroke="none"/>
    <path d="M5.9 -0.75 L7.6 -0.55 9.8 2.1 12.1 4.8 14.2 7.35 11.95 7.05 11.7 6.75 10.25 4.85 6.15 -0.4 5.9 -0.75 M-5.0 15.4 L-5.75 17.1 -8.6 6.6 -7.95 5.65 -7.45 7.35 -5.2 14.75 -5.0 15.4" fill="#464646" fill-rule="evenodd" stroke="none"/>
  </g>
</svg>
