<?xml version="1.0" encoding="UTF-8" standalone="no"?>
<svg xmlns:ffdec="https://www.free-decompiler.com/flash" xmlns:xlink="http://www.w3.org/1999/xlink" ffdec:objectType="shape" height="27.65px" width="64.1px" xmlns="http://www.w3.org/2000/svg">
  <g transform="matrix(1.0, 0.0, 0.0, 1.0, 55.1, 2.1)">
    <path d="M-11.55 0.2 L-17.9 -0.3 -23.05 -0.55 -31.05 -0.2 -43.55 2.1 Q-49.35 3.95 -51.85 6.25 -53.6 7.8 -53.6 9.35 L-53.3 12.5 Q-52.5 11.75 -49.55 10.15 -45.8 8.1 -43.55 7.8 L-31.05 5.7 Q-20.6 5.3 -11.55 6.05 L-2.8 7.7 Q2.3 9.15 4.65 10.45 6.15 11.25 7.25 12.5 L7.5 9.45 Q7.5 7.7 5.95 6.25 3.55 4.0 -2.8 2.0 L-11.55 0.2 M3.2 21.4 Q-3.7 25.55 -21.55 25.55 -43.8 25.55 -50.85 20.55 -53.65 18.55 -54.55 15.45 -55.1 13.5 -55.1 9.5 -55.1 5.3 -47.6 1.95 -38.55 -2.1 -23.05 -2.1 -9.8 -2.1 -0.65 1.05 9.0 4.4 9.0 9.55 9.0 17.85 3.2 21.4 M-53.1 15.65 Q-51.7 18.6 -45.9 20.75 -37.25 24.0 -21.55 24.0 -8.2 24.0 0.0 20.7 6.0 18.3 7.0 15.65 6.3 12.75 0.35 10.05 -8.2 6.15 -23.05 6.15 -37.05 6.15 -45.65 9.8 -52.15 12.55 -53.1 15.65" fill="#464646" fill-rule="evenodd" stroke="none"/>
    <path d="M-2.8 2.0 Q3.55 4.0 5.95 6.25 7.5 7.7 7.5 9.45 L7.25 12.5 Q6.15 11.25 4.65 10.45 2.3 9.15 -2.8 7.7 L-2.8 2.0 M-43.55 2.1 L-43.55 7.8 Q-45.8 8.1 -49.55 10.15 -52.5 11.75 -53.3 12.5 L-53.6 9.35 Q-53.6 7.8 -51.85 6.25 -49.35 3.95 -43.55 2.1 M-53.1 15.65 Q-52.15 12.55 -45.65 9.8 -37.05 6.15 -23.05 6.15 -8.2 6.15 0.35 10.05 6.3 12.75 7.0 15.65 L-53.1 15.65" fill="#8a8a8a" fill-rule="evenodd" stroke="none"/>
    <path d="M-31.05 -0.2 L-31.05 5.7 -43.55 7.8 -43.55 2.1 -31.05 -0.2 M-11.55 6.05 L-11.55 0.2 -2.8 2.0 -2.8 7.7 -11.55 6.05" fill="#b4b4b4" fill-rule="evenodd" stroke="none"/>
    <path d="M-31.05 -0.2 L-23.05 -0.55 -17.9 -0.3 -11.55 0.2 -11.55 6.05 Q-20.6 5.3 -31.05 5.7 L-31.05 -0.2" fill="#e0e0e0" fill-rule="evenodd" stroke="none"/>
    <path d="M7.0 15.65 Q6.0 18.3 0.0 20.7 -8.2 24.0 -21.55 24.0 -37.25 24.0 -45.9 20.75 -51.7 18.6 -53.1 15.65 L7.0 15.65" fill="#616161" fill-rule="evenodd" stroke="none"/>
  </g>
</svg>
