<?xml version="1.0" encoding="UTF-8" standalone="no"?>
<svg xmlns:ffdec="https://www.free-decompiler.com/flash" xmlns:xlink="http://www.w3.org/1999/xlink" ffdec:objectType="shape" height="30.35px" width="9.8px" xmlns="http://www.w3.org/2000/svg">
  <g transform="matrix(1.0, 0.0, 0.0, 1.0, -8.7, -27.15)">
    <path d="M11.25 27.9 L9.4 28.3 9.75 30.85 12.95 45.0 13.65 44.75 14.4 44.7 12.75 36.0 12.7 35.6 12.2 32.75 11.8 30.45 11.25 27.9 M13.8 38.5 L14.45 42.5 16.5 45.75 16.35 47.1 16.3 47.2 16.2 47.45 15.9 48.25 15.85 48.55 Q16.3 48.45 16.65 48.7 L16.75 48.8 18.5 55.85 Q18.6 56.45 18.25 56.65 L17.2 56.8 16.05 57.05 14.85 57.25 13.85 57.5 Q13.5 57.45 13.4 56.85 L12.3 49.65 12.45 49.5 Q12.65 49.2 13.05 49.15 L12.2 48.1 12.05 47.95 11.65 47.45 11.45 47.1 11.35 46.75 11.6 45.35 11.85 43.95 11.95 43.1 11.9 43.0 10.65 36.9 9.6 32.4 9.35 31.1 8.85 28.4 8.7 27.7 8.8 27.7 11.7 27.15 11.8 27.8 12.6 31.8 13.5 36.8 13.8 38.5 M12.95 45.75 L14.25 50.6 15.35 50.35 14.6 45.45 13.75 45.5 12.95 45.75 M12.05 45.75 Q11.8 46.05 11.9 46.6 L12.05 47.1 12.15 47.35 12.45 47.4 12.5 47.1 12.35 45.5 12.05 45.75 M15.9 45.8 Q15.8 45.2 15.45 45.05 L15.0 45.0 Q15.6 46.7 15.75 46.7 L16.0 46.55 15.9 45.8 M15.95 51.1 L15.3 52.15 14.9 52.25 13.8 51.5 13.55 50.75 13.2 49.7 13.3 50.8 Q13.45 53.05 14.05 56.6 L14.15 56.75 14.7 56.65 15.9 56.45 17.05 56.2 17.75 56.0 Q17.7 55.95 17.8 55.85 L16.2 50.0 15.9 49.2 16.0 50.25 15.95 51.1" fill="#121212" fill-rule="evenodd" stroke="none"/>
    <path d="M11.25 27.9 L11.8 30.45 12.2 32.75 12.7 35.6 12.75 36.0 14.4 44.7 13.65 44.75 12.95 45.0 9.75 30.85 9.4 28.3 11.25 27.9 M12.05 45.75 L12.35 45.5 12.5 47.1 12.45 47.4 12.15 47.35 12.05 47.1 11.9 46.6 Q11.8 46.05 12.05 45.75 M15.9 45.8 L16.0 46.55 15.75 46.7 Q15.6 46.7 15.0 45.0 L15.45 45.05 Q15.8 45.2 15.9 45.8" fill="#6e6e6e" fill-rule="evenodd" stroke="none"/>
    <path d="M12.95 45.75 L13.75 45.5 14.6 45.45 15.35 50.35 14.25 50.6 12.95 45.75 M16.55 54.3 L16.0 53.7 15.35 53.6 Q15.0 53.7 14.8 54.0 14.4 54.3 14.5 54.65 L15.1 55.35 15.75 55.45 16.3 55.05 16.55 54.3 M15.95 51.1 L16.0 50.25 15.9 49.2 16.2 50.0 17.8 55.85 Q17.7 55.95 17.75 56.0 L17.05 56.2 15.9 56.45 14.7 56.65 14.15 56.75 14.05 56.6 Q13.45 53.05 13.3 50.8 L13.2 49.7 13.55 50.75 13.8 51.5 14.9 52.25 15.3 52.15 15.95 51.1" fill="#8c8c8c" fill-rule="evenodd" stroke="none"/>
    <path d="M16.55 54.3 L16.3 55.05 15.75 55.45 15.1 55.35 14.5 54.65 Q14.4 54.3 14.8 54.0 15.0 53.7 15.35 53.6 L16.0 53.7 16.55 54.3" fill="#333333" fill-rule="evenodd" stroke="none"/>
    <path d="M13.5 36.8 L13.6 36.9 13.8 38.5 13.5 36.8 M10.65 36.9 L10.0 34.95 9.35 32.8 9.3 32.65 9.35 32.7 9.35 32.45 9.35 31.1 9.6 32.4 10.65 36.9" fill="#e0e0e0" fill-rule="evenodd" stroke="none"/>
    <path d="M15.9 48.25 L17.45 48.3 16.65 48.7 Q16.3 48.45 15.85 48.55 L15.9 48.25 M12.45 49.5 L12.2 48.1 13.05 49.15 Q12.65 49.2 12.45 49.5" fill="#8a8a8a" fill-rule="evenodd" stroke="none"/>
  </g>
</svg>
