<?xml version="1.0" encoding="UTF-8" standalone="no"?>
<svg xmlns:ffdec="https://www.free-decompiler.com/flash" xmlns:xlink="http://www.w3.org/1999/xlink" ffdec:objectType="shape" height="169.8px" width="109.15px" xmlns="http://www.w3.org/2000/svg">
  <g transform="matrix(1.0, 0.0, 0.0, 1.0, 50.7, 135.85)">
    <path d="M4.55 -130.45 L4.5 -131.4 Q4.1 -132.7 2.4 -133.5 -1.25 -135.25 -3.6 -132.6 -6.15 -129.8 -5.75 -125.7 -5.65 -124.4 -5.15 -123.65 L-4.75 -123.15 Q-4.3 -122.85 -3.65 -122.8 L-2.35 -122.95 Q-0.2 -123.6 1.6 -125.35 2.75 -126.5 3.7 -128.1 L3.65 -128.1 Q4.4 -129.4 4.55 -130.45 M2.75 -124.75 L1.05 -123.25 Q-0.4 -122.2 -2.0 -121.75 L-2.45 -121.65 -4.15 -121.55 Q-4.95 -121.65 -5.5 -122.15 L-5.8 -122.4 Q-6.8 -123.4 -7.0 -125.6 -7.4 -129.75 -5.15 -132.7 L-7.0 -130.8 Q-9.35 -127.6 -11.05 -120.55 L-14.0 -104.75 Q-16.05 -92.3 -17.8 -84.5 L-23.55 -57.8 -23.6 -57.8 -24.8 -52.3 -25.65 -48.05 -28.15 -34.2 Q-29.75 -25.15 -31.85 -17.5 L-32.35 -15.75 -34.35 -9.4 Q-35.3 -6.0 -38.25 -1.1 L-49.45 16.2 Q-48.9 17.5 -46.65 18.9 -44.8 20.05 -43.25 20.5 -36.3 8.7 -34.45 4.7 L-30.75 -4.9 Q-30.75 -1.45 -35.7 9.25 -40.25 19.1 -43.0 22.85 -41.25 24.3 -37.45 25.45 -33.65 26.55 -30.45 26.55 -28.4 26.55 -24.75 14.85 -22.65 8.25 -17.55 -10.7 L-16.75 -13.5 -17.25 -11.5 Q-20.45 1.8 -23.15 10.85 -25.6 19.5 -29.15 29.05 -26.85 29.95 -23.6 29.95 L-19.35 29.65 Q-15.7 29.4 -14.5 29.65 L-2.85 31.9 2.5 32.6 Q9.5 32.6 15.05 31.2 L20.25 29.8 25.2 30.35 30.1 30.95 31.95 30.9 Q33.2 30.9 37.6 28.7 37.6 28.0 37.0 26.15 L36.35 24.5 33.6 15.4 30.85 6.8 Q30.0 3.7 28.95 -2.05 L29.05 -8.15 30.0 -2.8 38.35 27.05 Q47.4 25.25 49.6 24.45 51.15 23.85 51.15 22.65 L37.4 -5.65 37.25 -6.1 37.25 -6.2 Q36.65 -9.25 35.25 -13.25 L34.8 -14.55 Q34.1 -16.55 34.7 -20.25 L36.65 -14.9 37.05 -13.75 41.45 -1.4 Q45.8 10.9 51.5 20.7 54.1 20.55 55.9 18.55 57.25 17.05 57.25 16.4 L52.95 9.25 47.45 0.4 Q44.9 -3.9 44.15 -6.8 L41.7 -15.1 39.05 -24.0 35.25 -36.4 32.65 -44.95 Q31.4 -49.4 31.05 -51.25 L31.05 -51.35 29.7 -56.6 29.4 -57.4 29.5 -57.4 21.3 -88.55 19.7 -87.45 18.1 -86.4 16.3 -85.9 14.9 -85.8 Q13.0 -85.9 10.8 -86.8 9.9 -87.3 6.85 -90.35 L3.5 -93.95 Q2.2 -96.45 1.05 -99.25 0.1 -102.55 -0.4 -105.6 -1.05 -111.95 0.45 -115.35 1.9 -118.8 2.9 -120.15 L5.6 -122.3 8.95 -123.25 11.2 -123.1 Q9.0 -129.85 6.05 -132.45 L4.95 -133.25 5.7 -131.7 Q6.0 -130.7 5.65 -129.45 L4.75 -127.45 2.75 -124.75 M12.75 -124.0 Q14.7 -118.85 17.6 -107.85 20.45 -96.9 21.8 -90.35 29.4 -65.4 35.05 -42.0 L35.6 -40.1 38.35 -31.95 42.65 -18.2 Q46.15 -6.55 47.65 -3.55 51.9 5.1 55.65 11.6 L58.45 16.35 Q58.45 18.0 57.55 19.05 L54.15 21.3 Q53.5 21.65 51.6 24.25 50.25 26.15 47.35 26.35 41.7 26.8 37.85 29.7 34.2 32.4 30.9 32.4 L24.85 31.75 Q22.0 31.0 20.25 31.0 L14.2 32.5 Q8.55 33.95 1.85 33.95 -7.2 33.95 -11.4 32.45 L-16.05 30.55 -23.7 31.6 -27.1 30.9 Q-29.35 30.25 -30.35 29.5 L-30.0 27.8 -40.1 25.9 Q-42.7 25.25 -43.6 22.95 L-44.15 21.3 -45.05 20.65 -48.7 17.85 -50.7 16.2 -41.9 2.25 Q-36.4 -6.65 -34.2 -16.25 L-32.85 -22.25 -32.65 -23.8 -21.2 -76.15 Q-14.8 -105.6 -13.4 -113.3 -11.3 -124.85 -9.8 -128.55 -6.8 -135.85 -0.7 -135.85 4.6 -135.85 7.7 -132.5 10.8 -129.2 12.75 -124.0 M9.45 -121.75 L7.7 -121.5 6.4 -121.0 Q4.8 -120.2 3.65 -118.6 2.5 -117.05 1.8 -114.7 0.45 -110.5 1.1 -105.6 1.35 -103.75 1.9 -101.75 L2.55 -99.5 Q3.3 -97.45 4.25 -95.65 5.9 -92.6 8.25 -90.4 L11.25 -88.25 Q12.9 -87.45 14.5 -87.35 L16.8 -87.55 Q19.25 -88.25 20.85 -90.35 L16.9 -104.8 11.8 -121.4 9.45 -121.75" fill="#464646" fill-rule="evenodd" stroke="none"/>
    <path d="M-4.65 -120.0 L-4.05 -119.95 -3.55 -119.95 -3.45 -119.95 -2.85 -120.0 1.7 -121.95 3.9 -123.95 Q5.45 -125.65 6.9 -127.85 L5.8 -129.3 5.65 -129.45 Q6.0 -130.7 5.7 -131.7 L4.95 -133.25 6.05 -132.45 Q9.0 -129.85 11.2 -123.1 L8.95 -123.25 7.5 -126.8 Q6.65 -125.4 4.5 -123.45 L3.9 -122.9 1.2 -120.8 Q-0.85 -119.45 -2.7 -119.05 L-4.0 -118.95 -4.9 -119.0 Q-6.05 -119.2 -6.9 -119.8 -9.45 -113.35 -11.3 -103.0 L-14.7 -80.2 Q-16.6 -67.2 -18.45 -61.95 L-17.6 -57.85 -17.8 -57.55 -18.15 -57.55 -20.5 -55.4 Q-21.45 -54.45 -19.75 -53.45 L-18.7 -52.9 -15.55 -53.05 Q-12.6 -53.05 -12.75 -52.1 -12.15 -51.3 -13.35 -47.95 L-15.65 -41.6 -16.4 -39.35 -21.3 -25.15 -24.25 -17.05 -25.1 -14.95 -25.9 -13.1 -26.15 -12.75 Q-27.7 -10.4 -28.7 -7.55 -29.9 -4.25 -32.05 4.3 -32.25 5.5 -34.75 10.9 -37.3 16.35 -40.4 22.4 -37.6 23.85 -31.55 24.45 -31.05 24.45 -26.0 12.5 -20.8 0.35 -17.55 -10.7 -22.65 8.25 -24.75 14.85 -28.4 26.55 -30.45 26.55 -33.65 26.55 -37.45 25.45 -41.25 24.3 -43.0 22.85 -40.25 19.1 -35.7 9.25 -30.75 -1.45 -30.75 -4.9 L-34.45 4.7 Q-36.3 8.7 -43.25 20.5 -44.8 20.05 -46.65 18.9 -48.9 17.5 -49.45 16.2 L-38.25 -1.1 Q-35.3 -6.0 -34.35 -9.4 L-32.35 -15.75 -31.85 -17.5 Q-29.75 -25.15 -28.15 -34.2 L-25.65 -48.05 -24.8 -52.3 -23.6 -57.8 -23.55 -57.8 -17.8 -84.5 Q-16.05 -92.3 -14.0 -104.75 L-11.05 -120.55 Q-9.35 -127.6 -7.0 -130.8 L-5.15 -132.7 Q-7.4 -129.75 -7.0 -125.6 -6.8 -123.4 -5.8 -122.4 L-6.45 -120.9 Q-5.7 -120.15 -4.65 -120.0 M18.1 -86.4 L19.7 -87.45 21.3 -88.55 29.5 -57.4 29.4 -57.4 29.7 -56.6 31.05 -51.35 31.05 -51.25 Q31.4 -49.4 32.65 -44.95 L35.25 -36.4 39.05 -24.0 41.7 -15.1 44.15 -6.8 Q44.9 -3.9 47.45 0.4 L52.95 9.25 57.25 16.4 Q57.25 17.05 55.9 18.55 54.1 20.55 51.5 20.7 45.8 10.9 41.45 -1.4 L37.05 -13.75 36.65 -14.9 34.7 -20.25 32.9 -23.95 26.25 -36.65 28.2 -36.55 Q29.15 -36.55 29.3 -38.1 29.4 -39.45 28.95 -41.6 L28.8 -44.9 28.8 -44.95 Q28.9 -45.9 28.2 -49.25 L27.0 -54.6 23.6 -53.9 25.45 -55.35 26.55 -56.7 25.35 -60.85 Q22.4 -70.9 22.4 -71.1 L20.6 -69.95 20.0 -70.05 Q19.65 -70.2 19.65 -70.85 L20.3 -72.4 Q20.9 -74.25 20.9 -76.7 20.9 -79.65 20.35 -81.35 L18.1 -86.4 M37.4 -5.65 L51.15 22.65 Q51.15 23.85 49.6 24.45 47.4 25.25 38.35 27.05 L30.0 -2.8 37.1 15.3 Q41.0 24.6 42.65 24.6 L47.0 23.9 49.35 22.75 42.7 9.0 Q40.65 4.2 37.4 -5.65 M28.95 -2.05 Q30.0 3.7 30.85 6.8 L33.6 15.4 36.35 24.5 37.0 26.15 Q37.6 28.0 37.6 28.7 33.2 30.9 31.95 30.9 L30.1 30.95 25.2 30.35 20.25 29.8 15.05 31.2 Q9.5 32.6 2.5 32.6 L-2.85 31.9 -14.5 29.65 Q-15.7 29.4 -19.35 29.65 L-23.6 29.95 Q-26.85 29.95 -29.15 29.05 -25.6 19.5 -23.15 10.85 -20.45 1.8 -17.25 -11.5 L-16.75 -13.5 -17.15 -11.5 Q-20.65 5.6 -22.4 12.6 -25.25 24.3 -27.65 28.45 L-23.2 29.0 Q-18.25 29.0 -16.0 25.4 -12.85 20.15 -12.35 5.5 -11.25 15.05 -11.1 19.55 L-10.9 23.3 -10.3 25.7 -9.25 28.3 Q-7.75 29.85 -1.2 30.65 L7.55 31.2 11.0 30.95 Q9.65 22.8 7.25 -9.9 L7.1 -11.5 6.95 -13.45 7.3 -11.5 7.55 -9.9 13.95 29.5 23.0 28.05 27.5 28.85 32.25 29.55 Q33.9 29.55 35.2 28.7 32.55 21.9 30.65 11.2 29.3 3.4 28.85 -2.45 L28.95 -2.05 M-16.5 -14.55 L-16.75 -13.5 -16.7 -13.85 -16.5 -14.55 -16.5 -14.7 -16.5 -14.55 M55.1 15.35 L42.0 -5.2 Q47.45 6.35 51.45 15.9 52.5 18.0 53.2 17.8 53.8 17.65 55.1 15.35 M-34.75 -0.7 L-35.0 -3.65 -47.15 15.35 -43.8 17.6 -34.75 -0.7" fill="#8a8a8a" fill-rule="evenodd" stroke="none"/>
    <path d="M3.9 -123.95 L2.75 -124.75 4.75 -127.45 5.65 -129.45 5.8 -129.3 6.9 -127.85 Q5.45 -125.65 3.9 -123.95 M-4.15 -121.55 L-4.65 -120.0 Q-5.7 -120.15 -6.45 -120.9 L-5.8 -122.4 -5.5 -122.15 Q-4.95 -121.65 -4.15 -121.55 M8.95 -123.25 L5.6 -122.3 4.5 -123.45 Q6.65 -125.4 7.5 -126.8 L8.95 -123.25 M10.8 -86.8 Q13.0 -85.9 14.9 -85.8 L16.3 -85.9 18.1 -86.4 20.35 -81.35 Q20.9 -79.65 20.9 -76.7 20.9 -74.25 20.3 -72.4 L19.65 -70.85 Q19.65 -70.2 20.0 -70.05 L20.6 -69.95 22.4 -71.1 Q22.4 -70.9 25.35 -60.85 L26.55 -56.7 25.45 -55.35 23.6 -53.9 27.0 -54.6 28.2 -49.25 Q28.9 -45.9 28.8 -44.95 L28.8 -44.9 28.95 -41.6 Q29.4 -39.45 29.3 -38.1 29.15 -36.55 28.2 -36.55 L26.25 -36.65 32.9 -23.95 34.7 -20.25 Q34.1 -16.55 34.8 -14.55 L35.25 -13.25 Q36.65 -9.25 37.25 -6.2 L37.25 -6.1 37.4 -5.65 Q40.65 4.2 42.7 9.0 L49.35 22.75 47.0 23.9 42.65 24.6 Q41.0 24.6 37.1 15.3 L30.0 -2.8 29.05 -8.15 28.95 -2.05 28.85 -2.45 Q29.3 3.4 30.65 11.2 32.55 21.9 35.2 28.7 33.9 29.55 32.25 29.55 L27.5 28.85 23.0 28.05 13.95 29.5 7.55 -9.9 7.3 -11.5 6.95 -13.45 7.1 -11.5 7.25 -9.9 Q9.65 22.8 11.0 30.95 L7.55 31.2 -1.2 30.65 Q-7.75 29.85 -9.25 28.3 L-10.3 25.7 -10.9 23.3 -11.1 19.55 Q-11.25 15.05 -12.35 5.5 -12.85 20.15 -16.0 25.4 -18.25 29.0 -23.2 29.0 L-27.65 28.45 Q-25.25 24.3 -22.4 12.6 -20.65 5.6 -17.15 -11.5 L-16.75 -13.5 -16.5 -14.55 -16.65 -13.5 -16.95 -11.45 Q-20.3 10.9 -21.6 16.65 -22.05 18.5 -25.15 27.15 L-24.1 27.45 Q-19.35 29.35 -16.05 17.2 -14.4 10.85 -12.55 1.35 L-12.4 1.8 Q-10.5 8.4 -9.7 15.6 L-8.65 24.15 Q-7.85 27.4 -5.45 28.55 -2.75 29.8 3.9 29.8 L7.2 29.55 5.95 16.85 Q5.0 5.9 5.0 -0.5 5.0 -3.75 5.5 -8.0 L5.75 -9.9 6.0 -11.5 Q6.45 -14.2 7.1 -15.5 L8.3 -11.5 8.75 -9.9 11.5 0.2 Q14.9 13.4 15.05 27.1 17.2 26.95 18.25 26.25 19.1 25.75 20.15 24.0 L22.35 26.0 32.4 27.3 28.75 9.9 Q26.2 -2.3 26.1 -5.95 26.9 -4.75 25.6 -10.6 L25.55 -10.95 25.15 -12.8 24.75 -14.45 24.05 -17.35 23.7 -18.85 22.85 -23.2 22.3 -26.2 21.75 -29.15 21.35 -31.3 21.05 -33.05 Q19.65 -40.15 19.0 -41.0 L20.45 -41.6 21.8 -42.3 Q24.2 -43.8 24.2 -45.8 24.2 -48.45 22.0 -50.85 L20.2 -52.8 18.5 -54.5 Q17.2 -55.75 19.4 -58.2 L19.5 -58.2 19.0 -62.0 19.75 -66.75 15.55 -65.3 12.6 -64.35 8.55 -64.8 Q8.65 -65.4 8.25 -65.6 13.2 -69.3 14.7 -72.9 15.4 -74.55 15.4 -77.05 12.05 -80.5 10.35 -80.5 9.3 -80.5 6.5 -77.95 3.7 -75.4 3.3 -75.4 2.65 -75.4 2.45 -75.7 L2.3 -76.35 5.6 -80.5 10.8 -86.8 M-16.75 -13.5 L-17.55 -10.7 Q-20.8 0.35 -26.0 12.5 -31.05 24.45 -31.55 24.45 -37.6 23.85 -40.4 22.4 -37.3 16.35 -34.75 10.9 -32.25 5.5 -32.05 4.3 -29.9 -4.25 -28.7 -7.55 -27.7 -10.4 -26.15 -12.75 L-25.9 -13.1 -25.1 -14.95 -24.25 -17.05 -21.3 -25.15 -16.4 -39.35 -15.65 -41.6 -13.35 -47.95 Q-12.15 -51.3 -12.75 -52.1 -12.6 -53.05 -15.55 -53.05 L-18.7 -52.9 -19.75 -53.45 Q-21.45 -54.45 -20.5 -55.4 L-18.15 -57.55 -17.8 -57.55 -17.6 -57.85 -18.45 -61.95 Q-16.6 -67.2 -14.7 -80.2 L-11.3 -103.0 Q-9.45 -113.35 -6.9 -119.8 -6.05 -119.2 -4.9 -119.0 L-5.2 -118.05 Q-7.35 -110.35 -7.35 -105.1 -7.35 -104.35 -4.35 -103.65 L-1.4 -102.7 Q-1.4 -101.7 -1.65 -102.0 L-4.55 -101.6 -7.1 -101.2 Q-9.7 -100.0 -9.75 -91.85 -9.8 -89.15 -10.7 -82.9 L-11.65 -76.8 -11.0 -73.4 Q-10.3 -70.75 -10.1 -68.95 L-7.45 -69.9 -5.0 -70.9 Q-4.45 -70.7 -4.45 -70.2 -4.6 -69.9 -9.5 -65.95 L-14.35 -62.0 Q-14.35 -60.95 -15.0 -59.9 L-11.65 -58.65 -8.7 -57.55 Q-2.25 -56.3 -0.55 -55.25 L-0.5 -55.25 1.7 -53.7 Q-3.35 -50.35 -5.7 -45.2 L-7.5 -41.6 -8.95 -38.65 -11.05 -34.4 -12.9 -30.65 -13.15 -30.15 -14.45 -27.3 -16.05 -23.1 -16.7 -21.35 Q-17.4 -19.55 -18.25 -17.7 L-19.4 -15.35 -20.05 -14.05 -20.75 -12.75 -21.05 -12.1 Q-22.75 -8.7 -22.75 -7.1 -22.75 -4.0 -26.0 1.0 -32.8 11.8 -38.2 22.0 L-32.7 22.85 Q-23.4 0.2 -17.95 -11.6 L-17.0 -13.55 -16.55 -14.55 -16.5 -14.7 -16.5 -14.55 -16.5 -14.7 -16.5 -14.55 -16.7 -13.85 -16.75 -13.5 M45.2 21.1 Q45.45 20.1 41.95 11.3 37.95 1.5 31.55 -12.3 L31.15 -13.15 31.35 -12.25 Q32.7 -5.2 36.85 7.05 41.85 21.8 44.05 21.8 L44.95 21.6 45.2 21.1 M55.1 15.35 Q53.8 17.65 53.2 17.8 52.5 18.0 51.45 15.9 47.45 6.35 42.0 -5.2 L55.1 15.35 M-34.75 -0.7 L-43.8 17.6 -47.15 15.35 -35.0 -3.65 -34.75 -0.7" fill="#b4b4b4" fill-rule="evenodd" stroke="none"/>
    <path d="M2.75 -124.75 L3.9 -123.95 1.7 -121.95 -2.85 -120.0 -3.45 -119.95 -3.55 -119.95 -4.05 -119.95 -4.65 -120.0 -4.15 -121.55 -2.45 -121.65 -2.0 -121.75 Q-0.4 -122.2 1.05 -123.25 L2.75 -124.75 M5.6 -122.3 L2.9 -120.15 1.2 -120.8 3.9 -122.9 4.5 -123.45 5.6 -122.3 M-0.4 -105.6 Q0.1 -102.55 1.05 -99.25 -4.55 -97.65 -7.05 -88.45 -8.6 -82.65 -8.6 -75.7 L-8.45 -73.55 Q-8.2 -72.35 -7.4 -72.35 -2.35 -72.35 5.0 -84.65 5.0 -87.35 3.45 -87.5 1.45 -87.2 0.5 -87.5 L3.5 -93.95 6.85 -90.35 Q9.9 -87.3 10.8 -86.8 L5.6 -80.5 2.3 -76.35 2.45 -75.7 Q2.65 -75.4 3.3 -75.4 3.7 -75.4 6.5 -77.95 9.3 -80.5 10.35 -80.5 12.05 -80.5 15.4 -77.05 15.4 -74.55 14.7 -72.9 13.2 -69.3 8.25 -65.6 8.65 -65.4 8.55 -64.8 L12.6 -64.35 15.55 -65.3 19.75 -66.75 19.0 -62.0 19.5 -58.2 19.4 -58.2 Q17.2 -55.75 18.5 -54.5 L20.2 -52.8 22.0 -50.85 Q24.2 -48.45 24.2 -45.8 24.2 -43.8 21.8 -42.3 L20.45 -41.6 19.0 -41.0 Q19.65 -40.15 21.05 -33.05 L21.35 -31.3 21.75 -29.15 22.3 -26.2 22.85 -23.2 23.7 -18.85 24.05 -17.35 24.75 -14.45 25.15 -12.8 25.55 -10.95 25.6 -10.6 Q26.9 -4.75 26.1 -5.95 26.2 -2.3 28.75 9.9 L32.4 27.3 22.35 26.0 20.15 24.0 Q19.1 25.75 18.25 26.25 17.2 26.95 15.05 27.1 14.9 13.4 11.5 0.2 L8.75 -9.9 8.3 -11.5 7.1 -15.5 Q6.45 -14.2 6.0 -11.5 L5.75 -9.9 5.5 -8.0 Q5.0 -3.75 5.0 -0.5 5.0 5.9 5.95 16.85 L7.2 29.55 3.9 29.8 Q-2.75 29.8 -5.45 28.55 -7.85 27.4 -8.65 24.15 L-9.7 15.6 Q-10.5 8.4 -12.4 1.8 L-12.55 1.35 Q-14.4 10.85 -16.05 17.2 -19.35 29.35 -24.1 27.45 L-25.15 27.15 Q-22.05 18.5 -21.6 16.65 -20.3 10.9 -16.95 -11.45 L-16.65 -13.5 -16.5 -14.55 -16.5 -14.7 -16.55 -14.55 -17.0 -13.55 -17.95 -11.6 Q-23.4 0.2 -32.7 22.85 L-38.2 22.0 Q-32.8 11.8 -26.0 1.0 -22.75 -4.0 -22.75 -7.1 -22.75 -8.7 -21.05 -12.1 L-20.75 -12.75 -20.05 -14.05 -19.4 -15.35 -18.25 -17.7 Q-17.4 -19.55 -16.7 -21.35 L-16.05 -23.1 -14.45 -27.3 -13.15 -30.15 -12.9 -30.65 -11.05 -34.4 -8.95 -38.65 -7.5 -41.6 -5.7 -45.2 Q-3.35 -50.35 1.7 -53.7 L-0.5 -55.25 -0.55 -55.25 Q-2.25 -56.3 -8.7 -57.55 L-11.65 -58.65 -15.0 -59.9 Q-14.35 -60.95 -14.35 -62.0 L-9.5 -65.95 Q-4.6 -69.9 -4.45 -70.2 -4.45 -70.7 -5.0 -70.9 L-7.45 -69.9 -10.1 -68.95 Q-10.3 -70.75 -11.0 -73.4 L-11.65 -76.8 -10.7 -82.9 Q-9.8 -89.15 -9.75 -91.85 -9.7 -100.0 -7.1 -101.2 L-4.55 -101.6 -1.65 -102.0 Q-1.4 -101.7 -1.4 -102.7 L-4.35 -103.65 Q-7.35 -104.35 -7.35 -105.1 -7.35 -110.35 -5.2 -118.05 L-4.9 -119.0 -4.0 -118.95 -2.7 -119.05 -3.45 -117.6 Q-5.45 -112.5 -2.95 -108.3 L-1.6 -106.7 -0.4 -105.6 M12.3 -75.85 L11.95 -76.4 10.55 -76.55 Q3.1 -72.4 -2.5 -68.25 -13.65 -60.0 -4.65 -60.0 L2.7 -60.5 3.6 -60.7 Q5.4 -61.1 6.25 -61.8 5.55 -62.45 3.75 -62.55 L-2.7 -62.6 Q12.4 -72.15 12.4 -75.1 L12.3 -75.85 M16.4 5.1 L13.0 -9.95 12.85 -10.55 12.95 -9.95 13.25 -7.4 Q13.55 -4.7 14.25 -1.4 L14.9 2.05 Q14.9 8.5 15.5 12.3 L17.3 25.2 19.65 21.25 16.4 5.1 M7.7 -51.55 Q9.2 -50.15 10.4 -50.05 5.5 -46.9 0.95 -41.6 -0.75 -39.2 -1.2 -36.25 L-1.35 -35.35 Q-1.55 -33.35 -3.2 -31.4 L-4.4 -30.2 -4.65 -30.0 Q-6.75 -28.2 -9.2 -24.55 L-11.55 -20.8 -12.35 -19.35 -13.65 -16.85 -14.1 -15.9 -13.85 -15.95 -14.3 -14.0 -14.45 -13.15 -14.7 -11.15 -15.65 -3.25 Q-15.7 -1.05 -17.85 7.15 -20.05 15.45 -23.15 25.15 L-20.5 25.15 -12.35 -0.05 -8.35 15.05 -5.85 25.4 -0.8 26.45 Q-0.7 -1.35 0.15 -10.0 L0.3 -11.5 0.35 -11.6 Q0.6 -13.8 1.15 -15.4 2.5 -19.5 5.35 -19.5 8.85 -19.5 10.85 -16.35 L11.5 -15.1 12.05 -13.55 11.7 -15.1 11.1 -17.25 Q12.9 -16.35 14.25 -15.1 15.8 -13.65 16.65 -11.7 L17.25 -10.15 17.65 -7.9 17.9 -2.3 Q18.0 1.3 18.65 3.5 L20.45 10.9 Q22.15 18.2 23.55 23.25 L24.35 23.55 24.2 0.5 Q22.4 -6.0 22.4 -7.2 L21.8 -10.45 21.35 -12.2 21.25 -12.6 20.45 -15.55 19.65 -18.35 18.75 -21.4 16.7 -28.05 15.85 -30.65 15.8 -30.8 Q14.5 -34.55 13.3 -36.5 L10.8 -40.1 9.75 -41.6 8.95 -42.75 Q11.4 -43.2 13.25 -43.8 15.35 -44.5 16.6 -45.4 18.0 -46.45 18.0 -47.5 L17.7 -49.05 Q16.95 -50.75 14.7 -52.5 L14.4 -52.75 Q12.5 -54.1 10.0 -55.25 L5.1 -57.05 4.6 -57.2 4.7 -56.9 5.2 -55.25 Q6.1 -53.05 7.7 -51.55 M45.2 21.1 L44.95 21.6 44.05 21.8 Q41.85 21.8 36.85 7.05 32.7 -5.2 31.35 -12.25 L31.15 -13.15 31.55 -12.3 Q37.95 1.5 41.95 11.3 45.45 20.1 45.2 21.1 M3.7 7.8 L3.75 17.05 Q3.7 19.6 5.6 26.2 L3.7 7.8 M-14.3 -15.3 L-14.3 -15.4 -14.7 -14.7 Q-14.1 -14.7 -14.3 -15.3" fill="#e0e0e0" fill-rule="evenodd" stroke="none"/>
    <path d="M2.9 -120.15 Q1.9 -118.8 0.45 -115.35 -1.05 -111.95 -0.4 -105.6 L-1.6 -106.7 -2.95 -108.3 Q-5.45 -112.5 -3.45 -117.6 L-2.7 -119.05 Q-0.85 -119.45 1.2 -120.8 L2.9 -120.15 M1.05 -99.25 Q2.2 -96.45 3.5 -93.95 L0.5 -87.5 Q1.45 -87.2 3.45 -87.5 5.0 -87.35 5.0 -84.65 -2.35 -72.35 -7.4 -72.35 -8.2 -72.35 -8.45 -73.55 L-8.6 -75.7 Q-8.6 -82.65 -7.05 -88.45 -4.55 -97.65 1.05 -99.25 M12.3 -75.85 L12.4 -75.1 Q12.4 -72.15 -2.7 -62.6 L3.75 -62.55 Q5.55 -62.45 6.25 -61.8 5.4 -61.1 3.6 -60.7 L2.7 -60.5 -4.65 -60.0 Q-13.65 -60.0 -2.5 -68.25 3.1 -72.4 10.55 -76.55 L11.95 -76.4 12.3 -75.85 M7.7 -51.55 Q6.1 -53.05 5.2 -55.25 L4.7 -56.9 4.6 -57.2 5.1 -57.05 10.0 -55.25 Q12.5 -54.1 14.4 -52.75 L14.7 -52.5 Q16.95 -50.75 17.7 -49.05 L18.0 -47.5 Q18.0 -46.45 16.6 -45.4 15.35 -44.5 13.25 -43.8 11.4 -43.2 8.95 -42.75 L9.75 -41.6 10.8 -40.1 13.3 -36.5 Q14.5 -34.55 15.8 -30.8 L15.85 -30.65 16.7 -28.05 18.75 -21.4 19.65 -18.35 20.45 -15.55 21.25 -12.6 21.35 -12.2 21.8 -10.45 22.4 -7.2 Q22.4 -6.0 24.2 0.5 L24.35 23.55 23.55 23.25 Q22.15 18.2 20.45 10.9 L18.65 3.5 Q18.0 1.3 17.9 -2.3 L17.65 -7.9 17.25 -10.15 16.65 -11.7 Q15.8 -13.65 14.25 -15.1 12.9 -16.35 11.1 -17.25 L11.7 -15.1 12.05 -13.55 11.5 -15.1 10.85 -16.35 Q8.85 -19.5 5.35 -19.5 2.5 -19.5 1.15 -15.4 0.6 -13.8 0.35 -11.6 L0.3 -11.5 0.15 -10.0 Q-0.7 -1.35 -0.8 26.45 L-5.85 25.4 -8.35 15.05 -12.35 -0.05 -20.5 25.15 -23.15 25.15 Q-20.05 15.45 -17.85 7.15 -15.7 -1.05 -15.65 -3.25 L-14.7 -11.15 -14.45 -13.15 -14.3 -14.0 -13.85 -15.95 -14.1 -15.9 -13.65 -16.85 -12.35 -19.35 -11.55 -20.8 -9.2 -24.55 Q-6.75 -28.2 -4.65 -30.0 L-4.4 -30.2 -3.2 -31.4 Q-1.55 -33.35 -1.35 -35.35 L-1.2 -36.25 Q-0.75 -39.2 0.95 -41.6 5.5 -46.9 10.4 -50.05 9.2 -50.15 7.7 -51.55 M16.4 5.1 L19.65 21.25 17.3 25.2 15.5 12.3 Q14.9 8.5 14.9 2.05 L14.25 -1.4 Q13.55 -4.7 13.25 -7.4 L12.95 -9.95 12.85 -10.55 13.0 -9.95 16.4 5.1 M3.7 7.8 L5.6 26.2 Q3.7 19.6 3.75 17.05 L3.7 7.8 M-14.3 -15.3 Q-14.1 -14.7 -14.7 -14.7 L-14.3 -15.4 -14.3 -15.3" fill="#ffffff" fill-rule="evenodd" stroke="none"/>
  </g>
</svg>
