<?xml version="1.0" encoding="UTF-8" standalone="no"?>
<svg xmlns:ffdec="https://www.free-decompiler.com/flash" xmlns:xlink="http://www.w3.org/1999/xlink" ffdec:objectType="shape" height="44.3px" width="69.05px" xmlns="http://www.w3.org/2000/svg">
  <g transform="matrix(1.0, 0.0, 0.0, 1.0, 69.6, 41.7)">
    <path d="M-47.1 -40.4 Q-44.75 -42.5 -43.0 -41.25 L-42.8 -41.1 Q-41.65 -40.4 -39.8 -39.85 L-39.0 -39.65 -35.5 -39.1 -21.0 -38.5 -11.9 -36.65 Q-10.2 -36.1 -7.7 -34.75 -5.25 -33.4 -2.75 -30.65 L-2.7 -30.6 -2.65 -30.55 -2.45 -30.3 -1.95 -29.65 Q-2.3 -24.9 -3.8 -24.9 -4.3 -24.9 -5.05 -26.6 -6.0 -28.65 -7.3 -29.5 L-8.4 -29.5 Q-9.0 -28.9 -9.85 -28.9 -10.7 -28.9 -11.15 -30.7 -11.6 -32.5 -12.95 -32.5 -14.5 -32.5 -16.1 -31.5 -17.75 -30.5 -18.5 -29.1 L-20.6 -23.65 Q-21.95 -19.7 -22.6 -18.65 L-22.65 -18.6 -24.65 -14.85 Q-25.45 -13.6 -26.6 -12.85 -25.75 -16.1 -25.35 -19.3 -24.9 -23.0 -25.9 -28.0 L-28.15 -24.85 -29.6 -22.95 -30.95 -20.95 -33.7 -16.4 -36.35 -12.9 Q-37.85 -11.3 -39.5 -9.85 L-43.0 -7.15 Q-43.1 -11.85 -41.8 -16.35 -41.15 -18.5 -40.65 -20.7 -40.35 -22.1 -40.65 -23.55 L-41.15 -24.65 -41.7 -24.65 Q-43.35 -23.4 -44.2 -21.3 L-46.0 -17.0 Q-48.25 -11.25 -53.2 -7.7 -55.25 -6.15 -60.95 -4.05 L-61.05 -4.05 -64.15 -2.95 -64.2 -3.4 -63.9 -5.25 -64.05 -5.2 -64.25 -5.15 -64.45 -5.1 -64.5 -5.1 -64.45 -5.15 -63.8 -6.2 -63.85 -6.65 -62.9 -9.85 -60.45 -19.4 Q-59.95 -21.45 -59.6 -23.45 -58.85 -27.6 -56.35 -30.95 L-53.8 -33.6 Q-51.8 -35.15 -48.5 -39.0 L-47.1 -40.4 M-61.9 -7.05 L-60.5 -9.2 Q-58.1 -14.05 -57.2 -19.25 -56.5 -23.1 -55.3 -26.7 L-54.5 -28.3 -52.75 -30.4 -49.9 -33.9 Q-55.2 -31.8 -56.95 -26.25 -57.8 -23.5 -58.2 -20.4 L-58.95 -16.75 Q-60.4 -11.65 -63.05 -7.3 -62.75 -7.15 -62.55 -6.85 L-62.3 -6.5 -61.9 -7.05 M-49.15 -17.6 L-46.5 -23.15 -46.4 -23.35 -43.9 -27.25 -39.55 -28.0 Q-38.35 -28.0 -37.65 -25.85 L-37.5 -25.45 -37.7 -22.1 Q-37.9 -22.95 -37.9 -22.05 L-37.9 -21.95 -37.85 -22.0 -38.7 -19.0 -39.9 -14.5 -39.3 -14.35 -38.15 -15.8 Q-35.3 -19.35 -34.15 -22.6 L-30.55 -27.1 -26.25 -31.65 -20.65 -33.85 Q-17.85 -34.95 -17.75 -36.05 L-18.95 -36.35 -22.3 -36.35 -29.4 -33.2 -29.25 -33.3 Q-26.5 -36.05 -26.75 -36.55 -27.0 -37.05 -27.9 -37.05 L-30.1 -37.0 -32.2 -36.2 -34.9 -35.65 -37.45 -34.3 -39.9 -32.65 -41.05 -31.9 -39.5 -33.85 Q-37.65 -35.95 -37.65 -36.3 L-38.05 -36.65 -38.2 -36.75 -41.4 -36.55 -42.9 -36.1 -43.1 -36.05 -44.5 -35.4 -46.35 -34.05 Q-47.25 -33.05 -48.15 -29.5 L-49.0 -26.5 Q-49.7 -25.5 -50.55 -22.7 -51.45 -19.95 -52.15 -19.15 -52.85 -18.35 -53.45 -16.3 -54.1 -14.25 -55.4 -12.15 L-55.35 -11.6 -54.5 -11.1 -52.6 -12.8 Q-50.65 -14.55 -49.15 -17.6 M-7.0 -32.75 Q-7.0 -34.1 -9.3 -34.7 -11.65 -35.3 -15.8 -32.65 -10.95 -34.6 -10.5 -33.15 -10.05 -31.75 -8.6 -31.75 -7.0 -31.75 -7.0 -32.75" fill="#d1d1d1" fill-rule="evenodd" stroke="none"/>
    <path d="M-2.45 -30.3 Q-1.0 -28.55 -1.45 -28.15 -1.1 -27.6 -0.9 -26.9 -1.0 -26.0 -1.45 -24.45 -3.05 -19.15 -6.75 -16.0 -5.85 -20.15 -5.45 -24.35 L-5.7 -23.9 -6.45 -24.6 -8.4 -26.6 Q-10.45 -28.45 -11.0 -27.6 L-11.85 -26.2 -11.95 -26.15 -12.55 -27.85 Q-13.75 -31.8 -15.1 -29.2 -17.2 -25.15 -18.85 -20.75 -19.6 -18.75 -20.8 -16.85 -24.05 -11.75 -29.65 -9.75 -28.95 -11.1 -28.6 -12.45 L-27.95 -15.45 Q-27.55 -18.3 -26.5 -21.0 -26.4 -21.35 -26.6 -21.75 -27.9 -22.4 -28.85 -21.25 -31.05 -18.65 -32.45 -15.5 L-33.7 -12.75 Q-35.5 -8.95 -38.9 -6.85 -41.75 -5.0 -45.0 -4.25 -44.65 -6.35 -44.95 -8.55 L-45.35 -9.9 -45.9 -10.6 Q-46.95 -10.45 -47.85 -9.5 L-49.05 -8.25 -53.45 -4.45 -53.9 -4.15 -58.55 -1.5 Q-59.55 -0.9 -60.65 -0.65 -62.05 -0.15 -63.5 0.2 L-67.65 0.75 -65.4 -3.0 -65.45 -3.0 -65.0 -3.95 -64.95 -3.95 -64.5 -5.1 -64.45 -5.1 -64.25 -5.15 -64.05 -5.2 -63.9 -5.25 -64.2 -3.4 -64.15 -2.95 -61.05 -4.05 -60.95 -4.05 Q-55.25 -6.15 -53.2 -7.7 -48.25 -11.25 -46.0 -17.0 L-44.2 -21.3 Q-43.35 -23.4 -41.7 -24.65 L-41.15 -24.65 -40.65 -23.55 Q-40.35 -22.1 -40.65 -20.7 -41.15 -18.5 -41.8 -16.35 -43.1 -11.85 -43.0 -7.15 L-39.5 -9.85 Q-37.85 -11.3 -36.35 -12.9 L-33.7 -16.4 -30.95 -20.95 -29.6 -22.95 -28.15 -24.85 -25.9 -28.0 Q-24.9 -23.0 -25.35 -19.3 -25.75 -16.1 -26.6 -12.85 -25.45 -13.6 -24.65 -14.85 L-22.65 -18.6 -22.6 -18.65 Q-21.95 -19.7 -20.6 -23.65 L-18.5 -29.1 Q-17.75 -30.5 -16.1 -31.5 -14.5 -32.5 -12.95 -32.5 -11.6 -32.5 -11.15 -30.7 -10.7 -28.9 -9.85 -28.9 -9.0 -28.9 -8.4 -29.5 L-7.3 -29.5 Q-6.0 -28.65 -5.05 -26.6 -4.3 -24.9 -3.8 -24.9 -2.3 -24.9 -1.95 -29.65 L-2.45 -30.3 M-63.85 -6.65 L-63.8 -6.2 -64.45 -5.15 -63.85 -6.65" fill="#989898" fill-rule="evenodd" stroke="none"/>
    <path d="M-0.9 -26.9 L-0.75 -26.3 -0.55 -26.9 -0.55 -24.15 Q-0.8 -21.95 -1.8 -19.8 L-1.8 -20.0 Q-3.45 -16.25 -7.25 -14.25 L-8.8 -14.35 Q-8.3 -20.65 -8.35 -24.4 L-9.85 -26.3 -10.2 -25.9 -10.2 -25.85 -12.8 -21.6 -13.0 -24.25 Q-13.25 -25.35 -14.25 -26.05 L-14.35 -26.1 -15.65 -23.25 -17.55 -18.7 -18.0 -17.85 -20.15 -15.15 -23.7 -11.45 -24.95 -10.55 -27.2 -8.95 Q-29.45 -7.5 -31.85 -7.95 L-32.1 -8.7 -31.65 -10.1 -30.4 -12.8 -30.2 -13.3 -29.4 -17.35 -29.15 -18.25 -30.3 -15.8 -31.05 -14.1 Q-31.8 -12.1 -33.1 -10.3 L-33.8 -9.35 -36.15 -6.85 Q-40.6 -2.9 -46.5 -2.15 L-47.3 -3.45 -47.1 -4.4 -46.85 -5.8 -46.85 -6.95 -47.0 -7.35 -49.5 -5.35 -55.2 -1.1 Q-57.6 0.4 -60.2 1.4 L-61.7 1.95 -68.2 2.4 Q-69.2 2.3 -69.6 1.45 L-69.0 -0.35 -66.65 -4.9 Q-64.4 -9.15 -63.2 -13.9 L-62.35 -18.2 Q-61.8 -22.35 -60.6 -26.35 -59.25 -31.0 -55.1 -35.15 -51.05 -39.25 -47.1 -40.4 L-48.5 -39.0 Q-51.8 -35.15 -53.8 -33.6 L-56.35 -30.95 Q-58.85 -27.6 -59.6 -23.45 -59.95 -21.45 -60.45 -19.4 L-62.9 -9.85 -63.85 -6.65 -64.45 -5.15 -64.5 -5.1 -64.95 -3.95 -65.0 -3.95 -65.45 -3.0 -65.4 -3.0 -67.65 0.75 -63.5 0.2 Q-62.05 -0.15 -60.65 -0.65 -59.55 -0.9 -58.55 -1.5 L-53.9 -4.15 -53.45 -4.45 -49.05 -8.25 -47.85 -9.5 Q-46.95 -10.45 -45.9 -10.6 L-45.35 -9.9 -44.95 -8.55 Q-44.65 -6.35 -45.0 -4.25 -41.75 -5.0 -38.9 -6.85 -35.5 -8.95 -33.7 -12.75 L-32.45 -15.5 Q-31.05 -18.65 -28.85 -21.25 -27.9 -22.4 -26.6 -21.75 -26.4 -21.35 -26.5 -21.0 -27.55 -18.3 -27.95 -15.45 L-28.6 -12.45 Q-28.95 -11.1 -29.65 -9.75 -24.05 -11.75 -20.8 -16.85 -19.6 -18.75 -18.85 -20.75 -17.2 -25.15 -15.1 -29.2 -13.75 -31.8 -12.55 -27.85 L-11.95 -26.15 -11.85 -26.2 -11.0 -27.6 Q-10.45 -28.45 -8.4 -26.6 L-6.45 -24.6 -5.7 -23.9 -5.45 -24.35 Q-5.85 -20.15 -6.75 -16.0 -3.05 -19.15 -1.45 -24.45 -1.0 -26.0 -0.9 -26.9" fill="#606060" fill-rule="evenodd" stroke="none"/>
    <path d="M-61.9 -7.05 L-62.3 -6.5 -62.55 -6.85 Q-62.75 -7.15 -63.05 -7.3 -60.4 -11.65 -58.95 -16.75 L-58.2 -20.4 Q-57.8 -23.5 -56.95 -26.25 -55.2 -31.8 -49.9 -33.9 L-52.75 -30.4 -54.5 -28.3 -55.3 -26.7 Q-56.5 -23.1 -57.2 -19.25 -58.1 -14.05 -60.5 -9.2 L-61.9 -7.05 M-49.15 -17.6 Q-50.65 -14.55 -52.6 -12.8 L-54.5 -11.1 -55.35 -11.6 -55.4 -12.15 Q-54.1 -14.25 -53.45 -16.3 -52.85 -18.35 -52.15 -19.15 -51.45 -19.95 -50.55 -22.7 -49.7 -25.5 -49.0 -26.5 L-48.15 -29.5 Q-47.25 -33.05 -46.35 -34.05 L-44.5 -35.4 -43.1 -36.05 -42.9 -36.1 -41.4 -36.55 -38.2 -36.75 -38.05 -36.65 -37.65 -36.3 Q-37.65 -35.95 -39.5 -33.85 L-41.05 -31.9 -39.9 -32.65 -37.45 -34.3 -34.9 -35.65 -32.2 -36.2 -30.1 -37.0 -27.9 -37.05 Q-27.0 -37.05 -26.75 -36.55 -26.5 -36.05 -29.25 -33.3 L-29.4 -33.2 -22.3 -36.35 -18.95 -36.35 -17.75 -36.05 Q-17.85 -34.95 -20.65 -33.85 L-26.25 -31.65 -30.55 -27.1 -34.15 -22.6 Q-35.3 -19.35 -38.15 -15.8 L-39.3 -14.35 -39.9 -14.5 -38.7 -19.0 -37.85 -22.0 -37.9 -21.95 -37.9 -22.05 Q-37.9 -22.95 -37.7 -22.1 L-37.5 -25.45 -37.65 -25.85 Q-38.35 -28.0 -39.55 -28.0 L-43.9 -27.25 -46.4 -23.35 -46.5 -23.15 -49.15 -17.6 M-7.0 -32.75 Q-7.0 -31.75 -8.6 -31.75 -10.05 -31.75 -10.5 -33.15 -10.95 -34.6 -15.8 -32.65 -11.65 -35.3 -9.3 -34.7 -7.0 -34.1 -7.0 -32.75" fill="#ffffff" fill-rule="evenodd" stroke="none"/>
  </g>
</svg>
