<?xml version="1.0" encoding="UTF-8" standalone="no"?>
<svg xmlns:ffdec="https://www.free-decompiler.com/flash" xmlns:xlink="http://www.w3.org/1999/xlink" ffdec:objectType="shape" height="27.8px" width="23.7px" xmlns="http://www.w3.org/2000/svg">
  <g transform="matrix(1.0, 0.0, 0.0, 1.0, -30.4, 12.65)">
    <path d="M50.7 -3.15 Q48.15 -7.95 43.9 -10.05 39.75 -12.1 36.3 -10.3 L36.3 -10.25 Q32.85 -8.45 32.1 -3.95 31.35 0.8 33.9 5.6 36.35 10.4 40.65 12.5 44.8 14.55 48.3 12.8 51.7 10.95 52.4 6.4 53.15 1.65 50.7 -3.15 M53.9 6.65 Q53.05 11.95 49.0 14.1 L49.0 14.15 Q44.9 16.25 40.0 13.85 35.25 11.6 32.55 6.3 29.75 1.0 30.6 -4.2 31.45 -9.55 35.6 -11.6 39.65 -13.8 44.55 -11.4 49.25 -9.15 52.05 -3.85 54.75 1.45 53.9 6.6 L53.9 6.65" fill="#0b0b0b" fill-rule="evenodd" stroke="none"/>
    <path d="M50.7 -3.15 Q53.15 1.65 52.4 6.4 51.7 10.95 48.3 12.8 44.8 14.55 40.65 12.5 36.35 10.4 33.9 5.6 31.35 0.8 32.1 -3.95 32.85 -8.45 36.3 -10.25 L36.3 -10.3 Q39.75 -12.1 43.9 -10.05 48.15 -7.95 50.7 -3.15" fill="#232323" fill-rule="evenodd" stroke="none"/>
  </g>
</svg>
