<?xml version="1.0" encoding="UTF-8" standalone="no"?>
<svg xmlns:ffdec="https://www.free-decompiler.com/flash" xmlns:xlink="http://www.w3.org/1999/xlink" ffdec:objectType="shape" height="74.5px" width="103.25px" xmlns="http://www.w3.org/2000/svg">
  <g transform="matrix(1.0, 0.0, 0.0, 1.0, 300.2, 34.6)">
    <path d="M-270.3 -12.15 L-270.35 -10.95 Q-270.3 -9.45 -269.45 -8.25 -268.65 -7.15 -267.5 -6.6 L-266.0 -6.1 Q-263.85 -5.7 -262.1 -7.0 -260.3 -8.2 -259.95 -10.35 -259.65 -12.55 -260.85 -14.25 -262.1 -16.05 -264.3 -16.45 -266.4 -16.8 -268.2 -15.55 -270.0 -14.35 -270.3 -12.15 M-287.55 -0.7 Q-287.85 2.85 -285.75 9.9 -283.7 17.0 -277.55 21.6 -273.5 24.6 -272.6 21.15 -272.25 19.35 -272.6 15.8 L-272.85 13.85 -274.25 2.4 -274.5 -0.75 -274.35 -7.6 -274.25 -8.5 Q-274.2 -14.4 -277.55 -14.2 -281.25 -13.9 -284.15 -8.95 -287.15 -4.05 -287.55 -0.7 M-267.45 27.95 Q-277.5 27.45 -284.6 20.45 -291.45 13.35 -291.5 3.45 -291.35 -6.7 -284.7 -13.8 -278.1 -21.25 -265.1 -22.35 -252.2 -23.5 -239.45 -12.1 L-238.7 -11.4 Q-232.05 -5.2 -230.45 0.15 -229.25 4.05 -231.0 7.55 -232.25 9.95 -234.2 12.3 L-237.2 15.35 Q-240.2 18.2 -244.5 20.9 L-245.7 21.5 -246.3 21.9 Q-257.45 28.35 -267.45 27.95" fill="#0e84ed" fill-rule="evenodd" stroke="none"/>
    <path d="M-287.55 -0.7 Q-287.15 -4.05 -284.15 -8.95 -281.25 -13.9 -277.55 -14.2 -274.2 -14.4 -274.25 -8.5 L-274.35 -7.6 -274.5 -0.75 -274.25 2.4 -272.85 13.85 -272.6 15.8 Q-272.25 19.35 -272.6 21.15 -273.5 24.6 -277.55 21.6 -283.7 17.0 -285.75 9.9 -287.85 2.85 -287.55 -0.7 M-270.3 -12.15 Q-270.0 -14.35 -268.2 -15.55 -266.4 -16.8 -264.3 -16.45 -262.1 -16.05 -260.85 -14.25 -259.65 -12.55 -259.95 -10.35 -260.3 -8.2 -262.1 -7.0 -263.85 -5.7 -266.0 -6.1 L-267.5 -6.6 Q-268.65 -7.15 -269.45 -8.25 -270.3 -9.45 -270.35 -10.95 L-270.3 -12.15" fill="#3ca4ff" fill-rule="evenodd" stroke="none"/>
    <path d="M-285.9 26.9 Q-298.05 16.8 -297.95 2.25 -297.9 -12.3 -285.8 -22.65 -274.1 -33.3 -254.4 -32.25 -234.8 -31.2 -220.35 -17.5 -206.3 -4.15 -205.1 5.15 -204.2 14.25 -220.8 25.95 -237.95 37.8 -255.65 37.5 -273.5 37.25 -285.9 26.9 M-285.15 -19.8 Q-294.75 -10.65 -294.9 2.4 -295.05 15.15 -285.05 24.2 -274.85 33.2 -260.45 33.5 -250.85 33.65 -241.4 28.95 -236.85 26.7 -232.2 23.25 L-231.8 22.95 -231.05 22.35 Q-218.85 12.45 -219.6 4.7 -220.2 -1.75 -227.3 -10.35 -229.35 -12.85 -231.9 -15.3 L-236.4 -19.5 Q-246.6 -27.55 -259.55 -28.35 -275.6 -29.25 -285.15 -19.8 M-204.2 12.3 Q-203.0 10.4 -202.85 8.15 L-202.95 5.25 -203.0 3.65 -199.7 2.75 -200.7 4.85 -198.9 6.75 -200.9 8.4 -199.8 11.1 -201.9 13.4 -204.2 12.3" fill="#064e8d" fill-rule="evenodd" stroke="none"/>
    <path d="M-285.9 26.9 Q-273.5 37.25 -255.65 37.5 -237.95 37.8 -220.8 25.95 -204.2 14.25 -205.1 5.15 -206.3 -4.15 -220.35 -17.5 -234.8 -31.2 -254.4 -32.25 -274.1 -33.3 -285.8 -22.65 -297.9 -12.3 -297.95 2.25 -298.05 16.8 -285.9 26.9 M-287.3 -24.4 Q-274.95 -35.7 -254.3 -34.5 -233.9 -33.45 -218.85 -19.3 -208.85 -9.7 -205.05 -2.1 L-203.3 2.6 -201.15 1.35 Q-199.65 0.5 -198.8 1.85 L-198.5 5.25 -197.25 5.9 -196.95 7.7 -199.25 8.7 -198.35 12.2 -200.0 13.05 -199.55 15.15 -205.25 14.25 -205.05 13.65 Q-208.95 20.3 -219.6 27.9 -237.35 40.1 -255.6 39.9 -274.4 39.6 -287.3 28.85 -300.3 17.9 -300.2 2.25 -300.0 -13.3 -287.3 -24.4 M-204.2 12.3 L-201.9 13.4 -199.8 11.1 -200.9 8.4 -198.9 6.75 -200.7 4.85 -199.7 2.75 -203.0 3.65 -202.95 5.25 -202.85 8.15 Q-203.0 10.4 -204.2 12.3" fill="#063055" fill-rule="evenodd" stroke="none"/>
    <path d="M-285.15 -19.8 Q-275.6 -29.25 -259.55 -28.35 -246.6 -27.55 -236.4 -19.5 L-231.9 -15.3 Q-229.35 -12.85 -227.3 -10.35 -220.2 -1.75 -219.6 4.7 -218.85 12.45 -231.05 22.35 L-231.8 22.95 -232.2 23.25 Q-236.85 26.7 -241.4 28.95 -250.85 33.65 -260.45 33.5 -274.85 33.2 -285.05 24.2 -295.05 15.15 -294.9 2.4 -294.75 -10.65 -285.15 -19.8 M-267.45 27.95 Q-257.45 28.35 -246.3 21.9 L-245.7 21.5 -244.5 20.9 Q-240.2 18.2 -237.2 15.35 L-234.2 12.3 Q-232.25 9.95 -231.0 7.55 -229.25 4.05 -230.45 0.15 -232.05 -5.2 -238.7 -11.4 L-239.45 -12.1 Q-252.2 -23.5 -265.1 -22.35 -278.1 -21.25 -284.7 -13.8 -291.35 -6.7 -291.5 3.45 -291.45 13.35 -284.6 20.45 -277.5 27.45 -267.45 27.95" fill="#0065bf" fill-rule="evenodd" stroke="none"/>
  </g>
</svg>
