<?xml version="1.0" encoding="UTF-8" standalone="no"?>
<svg xmlns:ffdec="https://www.free-decompiler.com/flash" xmlns:xlink="http://www.w3.org/1999/xlink" ffdec:objectType="shape" height="10.75px" width="11.7px" xmlns="http://www.w3.org/2000/svg">
  <g transform="matrix(1.0, 0.0, 0.0, 1.0, 12.3, 3.45)">
    <path d="M-4.9 0.4 Q-3.75 1.8 -3.25 3.75 L-9.95 4.35 Q-9.95 2.35 -9.0 0.75 L-9.0 0.7 Q-8.25 -0.75 -7.05 -1.0 -5.95 -0.95 -4.9 0.35 L-4.9 0.4" fill="#a86d4a" fill-rule="evenodd" stroke="none"/>
    <path d="M-7.1 -3.4 Q-4.55 -3.7 -2.6 -1.2 -0.95 0.8 -0.65 3.8 L-0.6 4.05 -0.6 4.7 Q-0.55 5.4 -1.0 5.95 -1.5 6.55 -2.2 6.6 L-10.2 7.3 -11.4 6.95 -12.05 5.9 -12.25 4.85 Q-12.5 1.75 -11.2 -0.55 -9.6 -3.3 -7.1 -3.4 M-4.9 0.4 L-4.9 0.35 Q-5.95 -0.95 -7.05 -1.0 -8.25 -0.75 -9.0 0.7 L-9.0 0.75 Q-9.95 2.35 -9.95 4.35 L-3.25 3.75 Q-3.75 1.8 -4.9 0.4" fill="#20150f" fill-rule="evenodd" stroke="none"/>
  </g>
</svg>
