<?xml version="1.0" encoding="UTF-8" standalone="no"?>
<svg xmlns:ffdec="https://www.free-decompiler.com/flash" xmlns:xlink="http://www.w3.org/1999/xlink" ffdec:objectType="shape" height="10.35px" width="13.15px" xmlns="http://www.w3.org/2000/svg">
  <g transform="matrix(1.0, 0.0, 0.0, 1.0, 14.85, 5.15)">
    <path d="M-12.65 -4.6 Q-10.95 -5.25 -8.35 -5.15 L-5.75 -4.7 -5.75 -4.75 Q-4.65 -4.4 -3.8 -3.75 L-3.85 -3.75 -2.7 -2.6 -2.7 -2.65 Q-1.65 -1.25 -1.7 0.25 -1.65 2.6 -3.95 4.2 L-4.0 4.2 Q-6.0 5.55 -8.8 5.1 -11.65 4.6 -13.05 2.35 -14.5 0.05 -14.75 -1.2 -15.0 -2.5 -14.7 -3.2 -14.4 -3.95 -12.65 -4.6 M-8.85 -2.15 Q-10.3 -2.35 -11.35 -1.75 -12.4 -1.15 -12.25 -0.15 -12.15 0.8 -11.35 1.35 L-11.3 1.35 Q-10.15 2.25 -8.5 2.3 -6.8 2.3 -5.65 1.5 -4.85 0.95 -4.75 0.15 -4.75 -0.25 -5.1 -0.6 L-5.15 -0.65 -5.6 -1.1 -6.65 -1.6 -6.7 -1.65 -8.85 -2.15" fill="#20150f" fill-rule="evenodd" stroke="none"/>
    <path d="M-8.85 -2.15 L-6.7 -1.65 -6.65 -1.6 -5.6 -1.1 -5.15 -0.65 -5.1 -0.6 Q-4.75 -0.25 -4.75 0.15 -4.85 0.95 -5.65 1.5 -6.8 2.3 -8.5 2.3 -10.15 2.25 -11.3 1.35 L-11.35 1.35 Q-12.15 0.8 -12.25 -0.15 -12.4 -1.15 -11.35 -1.75 -10.3 -2.35 -8.85 -2.15" fill="#a86d4a" fill-rule="evenodd" stroke="none"/>
  </g>
</svg>
