<?xml version="1.0" encoding="UTF-8" standalone="no"?>
<svg xmlns:ffdec="https://www.free-decompiler.com/flash" xmlns:xlink="http://www.w3.org/1999/xlink" ffdec:objectType="shape" height="31.0px" width="40.95px" xmlns="http://www.w3.org/2000/svg">
  <g transform="matrix(1.0, 0.0, 0.0, 1.0, 18.65, 28.2)">
    <path d="M7.8 -24.85 L7.45 -24.55 6.45 -23.7 4.75 -22.7 3.0 -22.0 Q0.95 -21.15 -2.9 -18.8 L-4.7 -17.55 Q-5.9 -16.55 -6.5 -15.1 L-6.7 -14.65 -6.8 -14.0 -6.8 -14.4 Q-8.75 -12.8 -9.65 -12.35 L-10.0 -12.15 Q-10.25 -11.9 -9.95 -11.8 L-9.65 -11.8 Q-8.55 -12.2 -6.8 -13.35 L-6.65 -13.45 Q-6.5 -13.05 -5.6 -12.7 L-4.7 -12.4 Q-3.85 -12.45 -2.6 -13.25 -1.7 -13.85 -1.25 -13.8 -1.55 -13.2 -1.05 -12.65 L-0.1 -12.15 Q1.65 -11.6 3.4 -11.6 4.95 -11.6 6.25 -12.15 L6.3 -12.1 7.05 -11.5 8.7 -10.55 10.4 -9.9 11.2 -9.6 Q11.5 -9.6 11.5 -9.85 L11.3 -10.1 10.7 -10.45 8.95 -11.3 7.2 -12.7 7.25 -12.75 Q8.55 -13.7 9.1 -14.85 L11.15 -14.35 12.45 -14.3 14.0 -14.65 15.5 -15.0 16.15 -15.2 16.3 -15.45 16.2 -15.75 15.7 -15.75 15.1 -15.7 13.6 -15.5 12.15 -15.25 Q10.95 -15.2 9.4 -15.85 L9.45 -16.15 9.5 -16.4 9.4 -17.85 9.25 -18.4 9.8 -18.5 13.05 -19.55 13.7 -19.85 14.65 -20.45 15.25 -20.9 15.3 -20.95 15.8 -21.35 16.0 -21.55 15.85 -21.75 15.6 -21.85 15.15 -21.65 14.7 -21.3 13.0 -20.25 Q11.85 -19.65 10.3 -19.4 L9.05 -19.3 8.9 -20.0 Q8.6 -21.3 8.65 -22.1 L8.65 -22.25 9.0 -22.3 10.05 -22.6 11.55 -23.4 11.75 -23.6 Q11.85 -23.85 11.55 -23.95 L11.05 -23.9 9.2 -23.2 8.75 -23.15 9.4 -24.75 9.55 -25.35 15.1 -25.5 Q17.25 -25.2 18.1 -24.45 19.3 -23.35 19.3 -20.8 19.45 -15.25 16.6 -10.55 L15.35 -8.85 Q13.3 -6.75 10.45 -7.05 L8.5 -7.55 5.45 -8.85 3.45 -9.75 1.85 -10.1 0.25 -10.5 -0.95 -11.25 Q-1.7 -11.75 -2.2 -11.85 L-4.7 -11.5 Q-7.1 -10.8 -12.05 -10.4 L-10.2 -12.85 Q-6.2 -17.15 -1.1 -20.7 L1.9 -22.55 5.3 -23.85 7.65 -24.75 7.8 -24.85 M-10.8 -13.75 L-10.35 -14.15 -10.8 -13.65 -10.8 -13.75 M3.1 -17.65 L3.85 -17.65 5.05 -18.65 Q5.8 -19.75 5.55 -20.55 L5.25 -20.8 4.5 -20.75 Q4.0 -20.6 3.4 -20.05 L2.6 -19.2 Q2.25 -18.65 2.55 -18.3 L2.7 -18.05 2.7 -17.9 Q2.75 -17.65 3.1 -17.65 M-1.85 -15.2 L-3.0 -15.65 Q-3.6 -15.95 -2.75 -17.05 -2.0 -18.15 2.75 -20.5 L7.55 -22.9 Q6.7 -20.85 6.6 -19.9 6.35 -18.9 6.4 -17.7 6.4 -16.55 5.9 -15.65 5.35 -14.8 4.4 -14.55 L2.8 -14.3 1.5 -14.45 -1.0 -14.9 -1.85 -15.2" fill="#ff6d7d" fill-rule="evenodd" stroke="none"/>
    <path d="M-3.8 -3.1 L-3.7 -3.15 -3.7 -3.1 -3.8 -3.1" fill="#d91e32" fill-rule="evenodd" stroke="none"/>
    <path d="M20.05 -7.35 L17.5 -2.8 17.4 -2.65 17.35 -3.9 17.4 -4.0 17.75 -4.25 17.9 -4.45 18.0 -4.7 18.05 -4.95 17.7 -5.3 17.55 -5.25 17.3 -5.1 17.2 -7.45 16.65 -6.85 18.35 -9.05 19.7 -11.3 19.75 -11.35 19.8 -9.9 19.5 -9.95 19.4 -9.9 19.15 -9.7 18.95 -9.4 18.85 -9.3 18.8 -9.1 Q18.6 -8.85 18.7 -8.5 18.9 -8.3 19.05 -8.35 L19.2 -8.4 19.9 -8.95 20.05 -7.35 M5.6 -0.15 L5.45 -0.2 Q1.1 -1.45 -1.15 -2.5 L-1.2 -8.35 Q1.05 -7.35 5.35 -6.05 L5.9 -5.85 5.4 -6.0 5.6 -0.15 M-4.45 -3.95 L-7.0 -3.15 -6.4 -3.35 -6.8 -9.1 -4.8 -9.65 -4.45 -3.95 M-13.25 -2.2 L-13.5 -2.15 -16.25 -0.95 -16.4 -4.35 -16.35 -4.35 -15.35 -4.6 -15.1 -4.75 Q-14.75 -5.0 -15.0 -5.4 -15.2 -5.7 -15.55 -5.7 L-16.45 -5.45 -16.45 -6.55 -16.25 -6.65 -16.15 -6.65 -16.1 -6.7 -15.85 -6.8 -15.4 -7.05 -15.25 -7.1 -14.95 -7.25 -14.85 -7.3 -14.75 -7.35 -13.85 -7.7 -13.45 -2.15 -13.25 -2.2 M4.45 -2.5 L4.1 -3.1 3.5 -3.5 3.05 -3.65 2.4 -3.75 Q2.1 -3.5 2.35 -3.3 L2.5 -3.15 2.6 -3.0 3.1 -2.5 Q3.6 -2.05 4.1 -2.15 L4.45 -2.5" fill="#d91e1e" fill-rule="evenodd" stroke="none"/>
    <path d="M21.3 -19.15 L21.3 -19.3 21.3 -19.8 21.3 -19.9 21.1 -21.55 21.05 -21.6 Q19.95 -26.55 15.05 -27.1 9.9 -27.7 4.55 -25.4 1.55 -24.1 -2.9 -20.6 L-3.0 -20.55 -10.2 -14.3 -10.25 -14.2 -10.35 -14.15 -10.8 -13.75 -11.0 -13.55 -13.0 -11.65 -17.15 -7.35 -17.6 -6.1 -17.55 -0.3 -16.55 -0.8 -16.6 -0.8 -16.25 -0.95 -13.5 -2.15 -13.25 -2.2 -13.15 -2.25 -12.8 -2.3 -10.9 -2.45 Q-9.55 -2.5 -7.35 -3.05 L-7.0 -3.15 -4.45 -3.95 -3.7 -4.2 -3.35 -4.2 -3.1 -4.0 Q-2.75 -3.4 -1.7 -2.8 L-1.15 -2.5 Q1.1 -1.45 5.45 -0.2 L5.6 -0.15 Q7.0 0.35 7.65 0.75 12.85 3.8 17.4 -2.65 L17.5 -2.8 20.05 -7.35 Q21.05 -9.75 21.25 -11.85 L21.25 -13.5 21.25 -14.5 21.3 -19.15 M-3.8 -3.1 L-6.55 -2.25 Q-9.55 -1.5 -12.6 -1.25 -14.35 -0.85 -16.1 0.1 -17.95 1.05 -18.3 0.7 L-18.4 0.6 Q-18.75 0.35 -18.55 -0.2 L-18.6 -6.45 -18.5 -7.1 -18.4 -7.3 -18.35 -7.3 Q-17.5 -8.9 -11.7 -14.3 -1.4 -23.95 4.15 -26.3 9.8 -28.7 15.15 -28.1 20.75 -27.45 22.05 -21.8 L22.3 -19.95 22.3 -19.8 22.3 -19.3 22.25 -13.55 22.25 -11.8 Q21.9 -7.55 18.35 -2.25 13.2 5.25 7.15 1.6 L4.65 0.5 Q0.45 -0.6 -1.95 -1.85 -3.15 -2.5 -3.7 -3.1 L-3.7 -3.15 -3.8 -3.1" fill="#a61616" fill-rule="evenodd" stroke="none"/>
    <path d="M17.4 -2.65 Q12.85 3.8 7.65 0.75 7.0 0.35 5.6 -0.15 L5.4 -6.0 5.9 -5.85 7.1 -5.25 7.15 -5.2 Q7.9 -4.75 8.65 -4.45 L8.95 -4.35 9.0 -4.35 9.3 -4.25 9.6 -4.15 9.75 -4.15 9.9 -4.1 Q14.2 -3.95 16.65 -6.85 L17.2 -7.45 17.3 -5.1 17.25 -5.1 16.65 -4.65 16.45 -4.4 16.4 -4.1 16.5 -3.85 16.7 -3.75 17.3 -3.85 17.35 -3.9 17.4 -2.65 M-7.0 -3.15 L-7.35 -3.05 Q-9.55 -2.5 -10.9 -2.45 L-12.8 -2.3 -13.15 -2.25 -13.25 -2.2 -13.45 -2.15 -13.85 -7.7 -12.5 -8.05 -12.35 -8.05 -12.2 -8.1 Q-9.6 -8.4 -6.95 -9.05 L-6.8 -9.1 -6.4 -3.35 -7.0 -3.15 M9.55 -1.8 Q9.25 -1.5 9.45 -1.15 L10.0 -0.65 10.6 -0.65 Q11.4 -0.7 12.25 -1.3 L12.55 -1.6 Q12.75 -1.85 12.55 -2.05 L12.25 -2.35 11.8 -2.45 10.8 -2.4 9.95 -2.05 9.55 -1.8 M-7.6 -4.45 L-7.6 -4.7 -7.8 -4.95 -8.35 -5.1 -9.5 -4.7 -9.75 -4.4 -9.8 -3.95 -9.75 -3.8 -9.45 -3.65 -8.4 -3.8 -8.1 -3.9 -7.85 -4.05 -7.6 -4.45" fill="#f33535" fill-rule="evenodd" stroke="none"/>
    <path d="M21.25 -14.5 L21.25 -13.5 21.25 -11.85 Q21.05 -9.75 20.05 -7.35 L19.9 -8.95 19.9 -9.05 20.0 -9.5 19.85 -9.9 19.8 -9.9 19.75 -11.35 20.2 -12.25 20.45 -12.75 20.5 -12.8 20.85 -13.55 20.95 -13.7 21.25 -14.5 M-1.15 -2.5 L-1.7 -2.8 Q-2.75 -3.4 -3.1 -4.0 L-3.35 -4.2 -3.7 -4.2 -4.45 -3.95 -4.8 -9.65 -4.4 -9.8 -4.0 -9.95 -3.7 -10.05 -3.6 -9.9 -1.65 -8.6 -1.55 -8.55 -1.2 -8.4 -1.2 -8.35 -1.15 -2.5 M-16.25 -0.95 L-16.6 -0.8 -16.55 -0.8 -17.55 -0.3 -17.6 -6.1 -17.45 -6.1 -17.4 -6.1 -16.45 -6.55 -16.45 -5.45 -16.8 -5.35 -16.85 -5.35 -17.1 -5.15 -17.15 -4.8 -17.0 -4.7 -16.4 -4.35 -16.25 -0.95" fill="#bb1919" fill-rule="evenodd" stroke="none"/>
    <path d="M9.55 -25.35 L9.4 -24.75 8.75 -23.15 9.2 -23.2 11.05 -23.9 11.55 -23.95 Q11.85 -23.85 11.75 -23.6 L11.55 -23.4 10.05 -22.6 9.0 -22.3 8.65 -22.25 8.65 -22.1 Q8.6 -21.3 8.9 -20.0 L9.05 -19.3 10.3 -19.4 Q11.85 -19.65 13.0 -20.25 L14.7 -21.3 15.15 -21.65 15.6 -21.85 15.85 -21.75 16.0 -21.55 15.8 -21.35 15.3 -20.95 15.25 -20.9 14.65 -20.45 13.7 -19.85 13.05 -19.55 9.8 -18.5 9.25 -18.4 9.4 -17.85 9.5 -16.4 9.45 -16.15 9.4 -15.85 Q10.95 -15.2 12.15 -15.25 L13.6 -15.5 15.1 -15.7 15.7 -15.75 16.2 -15.75 16.3 -15.45 16.15 -15.2 15.5 -15.0 14.0 -14.65 12.45 -14.3 11.15 -14.35 9.1 -14.85 Q8.55 -13.7 7.25 -12.75 L7.2 -12.7 8.95 -11.3 10.7 -10.45 11.3 -10.1 11.5 -9.85 Q11.5 -9.6 11.2 -9.6 L10.4 -9.9 8.7 -10.55 7.05 -11.5 6.3 -12.1 6.25 -12.15 Q4.95 -11.6 3.4 -11.6 1.65 -11.6 -0.1 -12.15 L-1.05 -12.65 Q-1.55 -13.2 -1.25 -13.8 -1.7 -13.85 -2.6 -13.25 -3.85 -12.45 -4.7 -12.4 L-5.6 -12.7 Q-6.5 -13.05 -6.65 -13.45 L-6.8 -13.35 Q-8.55 -12.2 -9.65 -11.8 L-9.95 -11.8 Q-10.25 -11.9 -10.0 -12.15 L-9.65 -12.35 Q-8.75 -12.8 -6.8 -14.4 L-6.8 -14.0 -6.7 -14.65 -6.5 -15.1 Q-5.9 -16.55 -4.7 -17.55 L-2.9 -18.8 Q0.95 -21.15 3.0 -22.0 L4.75 -22.7 6.45 -23.7 7.45 -24.55 7.8 -24.85 8.35 -25.3 8.4 -25.3 8.5 -25.35 9.15 -25.65 9.55 -25.5 9.55 -25.35 M7.7 -21.15 L7.35 -21.0 7.35 -20.75 7.35 -20.2 7.5 -19.85 7.85 -19.75 7.9 -19.75 8.05 -19.95 8.1 -20.15 8.15 -20.65 8.05 -21.0 7.7 -21.2 7.7 -21.15 M8.35 -24.1 L8.15 -24.15 7.85 -24.05 7.85 -23.9 Q7.75 -23.55 7.9 -23.25 L7.95 -23.05 8.2 -23.0 8.35 -23.3 8.4 -23.45 8.55 -23.8 8.35 -24.1 M3.1 -17.65 Q2.75 -17.65 2.7 -17.9 L2.7 -18.05 2.55 -18.3 Q2.25 -18.65 2.6 -19.2 L3.4 -20.05 Q4.0 -20.6 4.5 -20.75 L5.25 -20.8 5.55 -20.55 Q5.8 -19.75 5.05 -18.65 L3.85 -17.65 3.1 -17.65 M-1.85 -15.2 L-1.0 -14.9 1.5 -14.45 2.8 -14.3 4.4 -14.55 Q5.35 -14.8 5.9 -15.65 6.4 -16.55 6.4 -17.7 6.35 -18.9 6.6 -19.9 6.7 -20.85 7.55 -22.9 L2.75 -20.5 Q-2.0 -18.15 -2.75 -17.05 -3.6 -15.95 -3.0 -15.65 L-1.85 -15.2 M7.6 -16.7 L7.6 -16.4 7.5 -16.15 7.4 -16.1 7.25 -15.6 Q7.1 -15.2 7.4 -15.2 L7.7 -15.35 8.0 -16.05 8.05 -16.15 8.15 -16.6 8.3 -17.85 8.25 -18.2 8.0 -18.35 7.8 -18.25 Q7.65 -18.15 7.65 -17.85 L7.7 -17.45 7.6 -16.7 M3.8 -13.0 L4.5 -12.85 4.8 -13.0 5.15 -13.1 Q5.5 -13.2 5.7 -13.4 L5.85 -13.55 5.85 -13.8 Q5.7 -14.0 5.4 -14.0 L4.4 -13.7 4.05 -13.5 3.8 -13.4 3.7 -13.15 3.8 -13.0 M2.05 -13.35 L1.9 -13.4 1.55 -13.55 1.25 -13.55 1.05 -13.45 1.0 -13.35 1.1 -13.15 1.2 -13.0 1.65 -12.9 1.9 -12.85 2.1 -12.95 2.15 -13.15 2.05 -13.35 M3.15 -21.55 L2.9 -21.4 2.8 -21.3 2.8 -21.1 2.9 -21.0 3.2 -21.0 3.35 -21.15 3.5 -21.15 3.8 -21.3 3.8 -21.55 3.7 -21.6 3.15 -21.55 M-3.45 -14.5 L-4.0 -14.45 -3.95 -14.4 -4.2 -14.35 -4.25 -14.05 -4.2 -13.95 Q-4.2 -13.85 -4.0 -13.85 L-3.75 -13.8 -3.65 -13.85 -3.45 -13.85 -3.15 -13.95 -3.05 -14.15 -3.05 -14.25 -3.15 -14.35 -3.3 -14.45 -3.45 -14.5 M-5.0 -14.95 L-4.75 -14.8 -4.5 -14.7 -4.35 -14.85 -4.4 -15.1 -4.4 -15.75 -3.85 -16.55 -3.95 -16.95 -4.55 -16.6 -4.7 -16.45 -4.8 -16.25 -5.0 -16.05 -5.05 -15.85 -5.05 -15.3 -5.0 -14.95 M-2.3 -18.25 L-1.7 -18.35 -0.85 -18.75 -0.6 -19.1 -0.85 -19.25 -1.75 -19.05 -1.85 -18.9 -2.1 -18.8 -2.25 -18.5 -2.3 -18.25" fill="#ff8a96" fill-rule="evenodd" stroke="none"/>
    <path d="M20.1 -14.3 L20.05 -14.15 20.2 -12.25 19.75 -11.35 19.7 -11.3 18.35 -9.05 16.65 -6.85 Q14.2 -3.95 9.9 -4.1 L9.75 -4.15 9.6 -4.15 9.3 -4.25 9.0 -4.35 8.95 -4.35 8.65 -4.45 Q7.9 -4.75 7.15 -5.2 L7.1 -5.25 5.9 -5.85 5.35 -6.05 Q1.05 -7.35 -1.2 -8.35 L-1.2 -8.4 -1.55 -8.55 -1.65 -8.6 -3.6 -9.9 -3.7 -10.05 -4.0 -9.95 -4.4 -9.8 -4.8 -9.65 -6.8 -9.1 -6.95 -9.05 Q-9.6 -8.4 -12.2 -8.1 L-12.35 -8.05 -12.5 -8.05 -13.85 -7.7 -14.75 -7.35 -14.85 -7.95 -14.95 -8.4 -12.2 -9.15 -7.1 -10.05 -4.9 -10.7 -3.7 -11.1 -3.35 -11.1 -3.2 -11.0 -3.1 -10.9 Q-2.7 -10.25 -1.0 -9.35 0.7 -8.45 2.75 -7.95 L6.3 -6.8 6.5 -6.7 7.65 -6.05 Q12.9 -2.95 17.5 -9.6 19.15 -12.1 20.1 -14.3" fill="#ff8086" fill-rule="evenodd" stroke="none"/>
    <path d="M21.3 -19.15 L21.25 -14.5 20.95 -13.7 20.85 -13.55 20.5 -12.8 20.45 -12.75 20.2 -12.25 20.05 -14.15 20.1 -14.3 20.1 -14.35 20.75 -15.95 20.75 -16.05 20.85 -16.4 21.25 -18.6 21.3 -19.15 M-17.6 -6.1 L-17.15 -7.35 -16.6 -7.6 -16.55 -7.6 -14.95 -8.4 -14.85 -7.95 -14.75 -7.35 -14.85 -7.3 -14.95 -7.25 -15.25 -7.1 -15.4 -7.05 -15.85 -6.8 -16.1 -6.7 -16.15 -6.65 -16.25 -6.65 -16.45 -6.55 -17.4 -6.1 -17.45 -6.1 -17.6 -6.1" fill="#fa7279" fill-rule="evenodd" stroke="none"/>
    <path d="M7.8 -24.85 L7.65 -24.75 5.3 -23.85 1.9 -22.55 -1.1 -20.7 Q-6.2 -17.15 -10.2 -12.85 L-12.05 -10.4 Q-7.1 -10.8 -4.7 -11.5 L-2.2 -11.85 Q-1.7 -11.75 -0.95 -11.25 L0.25 -10.5 1.85 -10.1 3.45 -9.75 5.45 -8.85 8.5 -7.55 10.45 -7.05 Q13.3 -6.75 15.35 -8.85 L16.6 -10.55 Q19.45 -15.25 19.3 -20.8 19.3 -23.35 18.1 -24.45 17.25 -25.2 15.1 -25.5 L9.55 -25.35 9.55 -25.5 9.15 -25.65 8.5 -25.35 8.4 -25.3 8.35 -25.3 7.8 -24.85 M-10.35 -14.15 L-10.25 -14.2 -10.2 -14.3 -3.0 -20.55 -2.9 -20.6 Q1.55 -24.1 4.55 -25.4 9.9 -27.7 15.05 -27.1 19.95 -26.55 21.05 -21.6 L21.1 -21.55 21.3 -19.9 21.3 -19.8 21.3 -19.3 21.3 -19.15 21.25 -18.6 20.85 -16.4 20.75 -16.05 20.75 -15.95 20.1 -14.35 20.1 -14.3 Q19.15 -12.1 17.5 -9.6 12.9 -2.95 7.65 -6.05 L6.5 -6.7 6.3 -6.8 2.75 -7.95 Q0.7 -8.45 -1.0 -9.35 -2.7 -10.25 -3.1 -10.9 L-3.2 -11.0 -3.35 -11.1 -3.7 -11.1 -4.9 -10.7 -7.1 -10.05 -12.2 -9.15 -14.95 -8.4 -16.55 -7.6 -16.6 -7.6 -17.15 -7.35 -13.0 -11.65 -11.0 -13.55 -10.8 -13.75 -10.8 -13.65 -10.35 -14.15" fill="#f95058" fill-rule="evenodd" stroke="none"/>
    <path d="M8.35 -24.1 L8.55 -23.8 8.4 -23.45 8.35 -23.3 8.2 -23.0 7.95 -23.05 7.9 -23.25 Q7.75 -23.55 7.85 -23.9 L7.85 -24.05 8.15 -24.15 8.35 -24.1 M7.7 -21.15 L7.7 -21.2 8.05 -21.0 8.15 -20.65 8.1 -20.15 8.05 -19.95 7.9 -19.75 7.85 -19.75 7.5 -19.85 7.35 -20.2 7.35 -20.75 7.35 -21.0 7.7 -21.15 M3.15 -21.55 L3.7 -21.6 3.8 -21.55 3.8 -21.3 3.5 -21.15 3.35 -21.15 3.2 -21.0 2.9 -21.0 2.8 -21.1 2.8 -21.3 2.9 -21.4 3.15 -21.55 M2.05 -13.35 L2.15 -13.15 2.1 -12.95 1.9 -12.85 1.65 -12.9 1.2 -13.0 1.1 -13.15 1.0 -13.35 1.05 -13.45 1.25 -13.55 1.55 -13.55 1.9 -13.4 2.05 -13.35 M3.8 -13.0 L3.7 -13.15 3.8 -13.4 4.05 -13.5 4.4 -13.7 5.4 -14.0 Q5.7 -14.0 5.85 -13.8 L5.85 -13.55 5.7 -13.4 Q5.5 -13.2 5.15 -13.1 L4.8 -13.0 4.5 -12.85 3.8 -13.0 M7.6 -16.7 L7.7 -17.45 7.65 -17.85 Q7.65 -18.15 7.8 -18.25 L8.0 -18.35 8.25 -18.2 8.3 -17.85 8.15 -16.6 8.05 -16.15 8.0 -16.05 7.7 -15.35 7.4 -15.2 Q7.1 -15.2 7.25 -15.6 L7.4 -16.1 7.5 -16.15 7.6 -16.4 7.6 -16.7 M-2.3 -18.25 L-2.25 -18.5 -2.1 -18.8 -1.85 -18.9 -1.75 -19.05 -0.85 -19.25 -0.6 -19.1 -0.85 -18.75 -1.7 -18.35 -2.3 -18.25 M-5.0 -14.95 L-5.05 -15.3 -5.05 -15.85 -5.0 -16.05 -4.8 -16.25 -4.7 -16.45 -4.55 -16.6 -3.95 -16.95 -3.85 -16.55 -4.4 -15.75 -4.4 -15.1 -4.35 -14.85 -4.5 -14.7 -4.75 -14.8 -5.0 -14.95 M-3.45 -14.5 L-3.3 -14.45 -3.15 -14.35 -3.05 -14.25 -3.05 -14.15 -3.15 -13.95 -3.45 -13.85 -3.65 -13.85 -3.75 -13.8 -4.0 -13.85 Q-4.2 -13.85 -4.2 -13.95 L-4.25 -14.05 -4.2 -14.35 -3.95 -14.4 -4.0 -14.45 -3.45 -14.5" fill="#ffb6bd" fill-rule="evenodd" stroke="none"/>
    <path d="M4.45 -2.5 L4.1 -2.15 Q3.6 -2.05 3.1 -2.5 L2.6 -3.0 2.5 -3.15 2.35 -3.3 Q2.1 -3.5 2.4 -3.75 L3.05 -3.65 3.5 -3.5 4.1 -3.1 4.45 -2.5 M9.55 -1.8 L9.95 -2.05 10.8 -2.4 11.8 -2.45 12.25 -2.35 12.55 -2.05 Q12.75 -1.85 12.55 -1.6 L12.25 -1.3 Q11.4 -0.7 10.6 -0.65 L10.0 -0.65 9.45 -1.15 Q9.25 -1.5 9.55 -1.8 M19.9 -8.95 L19.2 -8.4 19.05 -8.35 Q18.9 -8.3 18.7 -8.5 18.6 -8.85 18.8 -9.1 L18.85 -9.3 18.95 -9.4 19.15 -9.7 19.4 -9.9 19.5 -9.95 19.8 -9.9 19.85 -9.9 20.0 -9.5 19.9 -9.05 19.9 -8.95 M17.3 -5.1 L17.55 -5.25 17.7 -5.3 18.05 -4.95 18.0 -4.7 17.9 -4.45 17.75 -4.25 17.4 -4.0 17.35 -3.9 17.3 -3.85 16.7 -3.75 16.5 -3.85 16.4 -4.1 16.45 -4.4 16.65 -4.65 17.25 -5.1 17.3 -5.1 M-16.45 -5.45 L-15.55 -5.7 Q-15.2 -5.7 -15.0 -5.4 -14.75 -5.0 -15.1 -4.75 L-15.35 -4.6 -16.35 -4.35 -16.4 -4.35 -17.0 -4.7 -17.15 -4.8 -17.1 -5.15 -16.85 -5.35 -16.8 -5.35 -16.45 -5.45 M-7.6 -4.45 L-7.85 -4.05 -8.1 -3.9 -8.4 -3.8 -9.45 -3.65 -9.75 -3.8 -9.8 -3.95 -9.75 -4.4 -9.5 -4.7 -8.35 -5.1 -7.8 -4.95 -7.6 -4.7 -7.6 -4.45" fill="#ffc672" fill-rule="evenodd" stroke="none"/>
  </g>
</svg>
