<?xml version="1.0" encoding="UTF-8" standalone="no"?>
<svg xmlns:ffdec="https://www.free-decompiler.com/flash" xmlns:xlink="http://www.w3.org/1999/xlink" ffdec:objectType="shape" height="21.7px" width="21.95px" xmlns="http://www.w3.org/2000/svg">
  <g transform="matrix(1.0, 0.0, 0.0, 1.0, 14.05, 12.3)">
    <path d="M3.2 -8.35 L3.0 -8.55 3.2 -8.35 M3.75 -8.8 L3.0 -8.55 Q0.95 -10.3 -2.2 -10.3 -4.8 -10.3 -6.55 -8.8 L-6.95 -8.45 -6.95 -8.4 -7.1 -8.25 Q-8.65 -6.55 -8.65 -4.2 -8.65 -2.9 -7.6 -1.05 L-6.1 1.1 -4.75 2.2 -4.3 2.45 -4.6 2.3 -4.65 2.85 -4.65 3.05 -6.6 1.6 -8.2 -0.7 Q-9.35 -2.8 -9.35 -4.2 L-9.15 -5.9 -9.0 -6.45 -8.6 -7.35 -8.15 -8.05 -8.0 -8.3 -7.45 -8.95 -7.3 -9.1 -7.2 -9.15 -7.1 -9.25 -6.8 -9.5 -6.75 -9.55 -5.35 -10.35 -4.8 -10.6 -2.2 -11.0 Q1.45 -11.0 3.75 -8.8 M1.05 2.35 L1.8 2.35 1.9 2.5 1.75 2.7 1.15 2.7 0.25 2.6 0.2 2.35 1.05 2.35 M-4.25 1.25 L-4.65 0.9 Q-4.65 0.45 -4.05 0.75 L-3.2 1.35 -3.4 1.55 -4.25 1.25 M-7.7 -4.8 L-7.7 -4.7 -7.7 -4.15 -7.95 -4.1 -8.25 -5.1 -8.25 -5.35 -8.0 -5.4 -7.75 -5.05 -7.7 -4.8 M-6.7 -2.1 L-6.75 -1.85 Q-7.05 -1.9 -7.25 -2.3 L-7.5 -3.0 Q-7.5 -3.95 -6.7 -2.1 M-5.35 -0.05 L-5.4 0.05 -5.5 0.1 -6.2 -0.4 -6.55 -1.1 -6.45 -1.3 -5.75 -0.65 -5.35 -0.05 M-0.6 2.3 L-0.9 2.5 -1.35 2.4 Q-2.25 2.35 -2.25 2.05 L-1.4 1.95 Q-0.6 2.1 -0.6 2.3" fill="#671b2e" fill-rule="evenodd" stroke="none"/>
    <path d="M-0.9 -8.3 L-0.85 -8.3 -0.95 -7.95 -0.95 -7.85 Q-0.95 -7.3 -0.6 -6.85 L0.05 -6.35 -0.3 -6.05 -0.85 -6.6 -1.2 -7.55 -0.95 -8.25 -0.9 -8.3 M-6.05 -8.3 Q-5.45 -8.3 -5.45 -7.8 -5.45 -7.3 -5.95 -7.3 -6.4 -7.3 -6.4 -7.55 -6.4 -8.3 -6.05 -8.3 M-7.1 -8.25 L-7.2 -7.4 Q-7.2 -4.5 -4.8 -2.45 L-4.65 -2.75 Q-4.55 -2.95 -4.2 -2.95 L-3.8 -2.65 -3.8 -2.05 -3.4 -1.7 -3.15 -1.6 -3.2 -1.5 -3.2 -1.45 -4.05 0.75 Q-4.65 0.45 -4.65 0.9 L-4.25 1.25 -4.55 2.15 -4.55 2.3 -4.75 2.2 -6.1 1.1 -7.6 -1.05 Q-8.65 -2.9 -8.65 -4.2 -8.65 -6.55 -7.1 -8.25 M-5.2 -4.6 Q-4.7 -4.6 -4.7 -4.15 -4.7 -3.6 -5.3 -3.6 -5.75 -3.6 -5.75 -4.0 -5.75 -4.6 -5.2 -4.6 M-7.7 -4.8 Q-7.65 -4.65 -7.4 -4.65 L-7.15 -4.85 -6.95 -5.15 -6.95 -5.35 -7.25 -5.5 Q-7.75 -5.5 -7.75 -5.05 L-8.0 -5.4 -8.25 -5.35 -8.25 -5.1 -7.95 -4.1 -7.7 -4.15 -7.7 -4.7 -7.7 -4.8 M-7.65 -4.0 L-8.0 -3.75 Q-8.0 -3.45 -7.6 -3.45 L-7.45 -3.7 -7.45 -3.85 -7.65 -4.0 M-5.5 -2.4 L-5.95 -1.95 Q-5.95 -1.6 -5.55 -1.6 -5.2 -1.6 -5.2 -2.0 L-5.2 -2.2 Q-5.25 -2.4 -5.5 -2.4 M-5.35 -0.05 L-5.75 -0.65 -6.45 -1.3 -6.55 -1.1 -6.2 -0.4 -5.5 0.1 -5.4 0.05 -5.35 -0.05 M-6.7 -2.1 Q-7.5 -3.95 -7.5 -3.0 L-7.25 -2.3 Q-7.05 -1.9 -6.75 -1.85 L-6.7 -2.1 M-2.15 -3.7 L-2.45 -3.15 Q-3.35 -3.15 -3.9 -3.9 -4.3 -4.45 -4.3 -4.95 L-4.1 -5.65 -4.15 -5.45 -4.15 -5.2 -3.7 -4.25 Q-3.15 -3.7 -2.3 -3.7 L-2.15 -3.7 M-4.05 -3.85 L-3.85 -3.6 -3.9 -3.4 -4.2 -3.35 -4.4 -3.4 -4.4 -3.65 -4.05 -3.85 M-4.25 -1.15 L-4.5 -0.95 -4.45 -0.7 -4.2 -0.7 -4.1 -0.9 -4.25 -1.15" fill="#982744" fill-rule="evenodd" stroke="none"/>
    <path d="M2.4 -8.15 L2.4 -8.05 2.35 -7.55 2.2 -7.2 2.05 -6.95 Q1.55 -6.25 0.8 -6.25 L0.05 -6.35 -0.6 -6.85 Q-0.95 -7.3 -0.95 -7.85 L-0.95 -7.95 -0.85 -8.3 -0.9 -8.3 -0.7 -8.75 Q-0.25 -9.4 0.7 -9.4 2.3 -9.4 2.4 -8.15 M0.55 -8.9 Q-0.5 -8.9 -0.5 -8.05 -0.5 -7.15 0.4 -7.15 1.55 -7.15 1.55 -8.25 1.55 -8.9 0.55 -8.9 M-0.05 -1.8 L1.45 -2.15 1.5 -1.9 Q1.3 -1.1 0.85 -1.1 0.1 -1.1 0.0 -1.6 L-0.05 -1.8 M3.1 -3.35 L3.45 -3.75 3.6 -3.7 4.05 -3.25 3.8 -2.85 Q3.5 -2.5 3.15 -2.5 L2.85 -2.85 2.75 -3.0 3.1 -3.35 M4.2 -5.8 L4.5 -5.9 4.85 -5.6 4.7 -5.2 Q4.5 -4.9 4.2 -4.95 L4.1 -5.0 4.05 -4.8 4.2 -5.8 M-0.75 -5.6 L-0.75 -5.45 Q-0.75 -4.9 -1.1 -4.4 -1.5 -3.75 -2.15 -3.7 L-2.3 -3.7 Q-3.15 -3.7 -3.7 -4.25 L-4.15 -5.2 -4.15 -5.45 -4.1 -5.65 Q-3.9 -7.05 -2.35 -7.05 -0.85 -7.05 -0.75 -5.6 M-2.45 -6.6 Q-3.45 -6.6 -3.45 -5.25 -3.45 -4.55 -2.55 -4.55 -2.05 -4.55 -1.7 -5.0 -1.4 -5.35 -1.4 -5.65 -1.4 -6.6 -2.45 -6.6" fill="#cccccc" fill-rule="evenodd" stroke="none"/>
    <path d="M2.35 -7.55 L2.4 -8.05 2.4 -8.15 3.0 -8.55 3.2 -8.35 3.3 -8.25 4.8 -6.3 4.55 -6.35 4.15 -6.3 3.95 -6.8 Q3.65 -7.2 3.65 -6.7 L3.75 -6.1 3.65 -5.9 3.8 -5.7 Q3.75 -4.65 2.65 -3.55 1.35 -2.3 -0.05 -2.25 L-1.3 -2.2 Q-1.65 -2.3 -1.65 -2.0 L-1.45 -1.8 -0.45 -1.8 -0.45 -1.6 Q-0.45 -0.7 0.8 -0.7 1.9 -0.7 1.9 -1.9 L1.8 -2.3 2.4 -2.7 Q2.65 -2.1 3.25 -2.1 3.8 -2.1 4.15 -2.55 L4.45 -3.25 4.2 -3.85 3.75 -4.2 3.6 -4.0 3.95 -4.55 4.3 -4.55 Q5.15 -4.55 5.25 -5.3 L5.45 -4.35 Q5.5 -2.85 5.1 -1.35 L4.7 -1.1 4.0 -0.8 3.45 -0.4 1.65 -0.2 -0.35 -0.65 Q-0.45 -0.4 -0.9 -0.4 -1.4 -0.4 -1.4 -0.9 L-1.4 -0.95 -3.15 -1.65 -3.0 -1.9 -2.45 -3.15 Q-1.65 -3.15 -1.0 -3.95 -0.45 -4.6 -0.45 -5.15 L-0.45 -5.45 -0.25 -5.65 0.25 -5.95 Q1.75 -5.95 2.2 -6.4 2.5 -6.65 2.5 -7.5 L2.4 -7.85 2.35 -7.55 M-2.2 6.8 L-1.5 6.15 -0.95 5.6 Q0.45 4.25 -0.35 5.75 L-1.65 7.75 Q-2.15 8.25 -2.7 8.25 -3.25 8.25 -3.25 7.85 -3.25 7.6 -2.85 7.3 L-2.2 6.8 M-2.7 -1.15 Q-2.4 -1.15 -2.4 -0.8 L-2.45 -0.55 -2.75 -0.5 Q-3.05 -0.5 -3.05 -0.85 L-2.7 -1.15 M-1.95 0.4 Q-1.75 0.4 -1.7 0.55 L-1.65 0.7 Q-1.65 1.0 -1.85 1.0 L-2.25 0.7 -1.95 0.4" fill="#e6deda" fill-rule="evenodd" stroke="none"/>
    <path d="M-2.45 -3.15 L-3.0 -1.9 -3.15 -1.65 -3.15 -1.6 -3.4 -1.7 -3.8 -2.05 -3.8 -2.65 -4.2 -2.95 Q-4.55 -2.95 -4.65 -2.75 L-4.8 -2.45 Q-7.2 -4.5 -7.2 -7.4 L-7.1 -8.25 -6.95 -8.4 -6.95 -8.45 -6.55 -8.8 Q-4.8 -10.3 -2.2 -10.3 0.95 -10.3 3.0 -8.55 L2.4 -8.15 Q2.3 -9.4 0.7 -9.4 -0.25 -9.4 -0.7 -8.75 L-0.9 -8.3 -0.95 -8.25 -1.2 -7.55 -0.85 -6.6 -0.3 -6.05 -0.65 -5.7 -0.75 -5.6 Q-0.85 -7.05 -2.35 -7.05 -3.9 -7.05 -4.1 -5.65 L-4.3 -4.95 Q-4.3 -4.45 -3.9 -3.9 -3.35 -3.15 -2.45 -3.15 M-6.05 -8.3 Q-6.4 -8.3 -6.4 -7.55 -6.4 -7.3 -5.95 -7.3 -5.45 -7.3 -5.45 -7.8 -5.45 -8.3 -6.05 -8.3 M-5.2 -4.6 Q-5.75 -4.6 -5.75 -4.0 -5.75 -3.6 -5.3 -3.6 -4.7 -3.6 -4.7 -4.15 -4.7 -4.6 -5.2 -4.6 M-7.75 -5.05 Q-7.75 -5.5 -7.25 -5.5 L-6.95 -5.35 -6.95 -5.15 -7.15 -4.85 -7.4 -4.65 Q-7.65 -4.65 -7.7 -4.8 L-7.75 -5.05 M-7.65 -4.0 L-7.45 -3.85 -7.45 -3.7 -7.6 -3.45 Q-8.0 -3.45 -8.0 -3.75 L-7.65 -4.0 M-5.5 -2.4 Q-5.25 -2.4 -5.2 -2.2 L-5.2 -2.0 Q-5.2 -1.6 -5.55 -1.6 -5.95 -1.6 -5.95 -1.95 L-5.5 -2.4 M-4.05 -3.85 L-4.4 -3.65 -4.4 -3.4 -4.2 -3.35 -3.9 -3.4 -3.85 -3.6 -4.05 -3.85 M-4.25 -1.15 L-4.1 -0.9 -4.2 -0.7 -4.45 -0.7 -4.5 -0.95 -4.25 -1.15" fill="#c03256" fill-rule="evenodd" stroke="none"/>
    <path d="M2.35 -7.55 L2.4 -7.85 2.5 -7.5 Q2.5 -6.65 2.2 -6.4 1.75 -5.95 0.25 -5.95 L-0.25 -5.65 -0.45 -5.45 -0.45 -5.15 Q-0.45 -4.6 -1.0 -3.95 -1.65 -3.15 -2.45 -3.15 L-2.15 -3.7 Q-1.5 -3.75 -1.1 -4.4 -0.75 -4.9 -0.75 -5.45 L-0.75 -5.6 -0.65 -5.7 -0.3 -6.05 0.05 -6.35 0.8 -6.25 Q1.55 -6.25 2.05 -6.95 L2.2 -7.2 2.35 -7.55 M-3.15 -1.65 L-1.4 -0.95 -1.4 -0.9 Q-1.4 -0.4 -0.9 -0.4 -0.45 -0.4 -0.35 -0.65 L1.65 -0.2 3.45 -0.4 4.0 -0.8 4.7 -1.1 5.1 -1.35 5.05 -1.05 4.95 -0.8 4.9 -0.65 Q4.25 1.15 3.5 1.65 L3.55 1.65 Q1.6 3.4 -0.05 3.4 -2.4 3.4 -4.2 2.5 L-4.3 2.45 -4.75 2.2 -4.55 2.3 -4.55 2.15 -4.25 1.25 -3.4 1.55 -3.2 1.35 -4.05 0.75 -3.2 -1.45 -3.2 -1.5 -3.15 -1.6 -3.15 -1.65 M-1.55 4.0 L-0.05 4.1 0.25 4.1 0.45 4.85 Q0.45 6.1 -0.15 7.2 -1.15 9.0 -3.5 9.0 L-4.0 8.65 -4.15 8.1 Q-4.15 7.6 -2.7 7.0 L-2.2 6.8 -2.85 7.3 Q-3.25 7.6 -3.25 7.85 -3.25 8.25 -2.7 8.25 -2.15 8.25 -1.65 7.75 L-0.35 5.75 Q0.45 4.25 -0.95 5.6 L-1.5 6.15 Q-1.25 5.7 -1.25 5.15 L-1.45 4.25 -1.55 4.0 M4.0 2.15 L4.4 1.75 6.75 2.1 7.15 2.75 6.85 3.4 Q6.35 3.9 5.3 3.9 4.15 3.9 3.55 3.3 L3.2 2.8 4.0 2.15 M1.05 2.35 L0.2 2.35 0.25 2.6 1.15 2.7 1.75 2.7 1.9 2.5 1.8 2.35 1.05 2.35 M0.85 4.85 L0.7 4.05 1.6 3.8 Q1.75 4.7 2.6 5.1 3.65 5.6 3.65 6.15 L3.25 6.8 Q2.7 7.25 2.0 7.25 L1.9 7.25 1.75 7.15 1.4 6.9 1.0 6.0 0.8 5.5 0.85 4.85 M-1.95 0.4 L-2.25 0.7 -1.85 1.0 Q-1.65 1.0 -1.65 0.7 L-1.7 0.55 Q-1.75 0.4 -1.95 0.4 M-2.7 -1.15 L-3.05 -0.85 Q-3.05 -0.5 -2.75 -0.5 L-2.45 -0.55 -2.4 -0.8 Q-2.4 -1.15 -2.7 -1.15 M-0.6 2.3 Q-0.6 2.1 -1.4 1.95 L-2.25 2.05 Q-2.25 2.35 -1.35 2.4 L-0.9 2.5 -0.6 2.3" fill="#c7c0bd" fill-rule="evenodd" stroke="none"/>
    <path d="M5.1 -1.35 Q5.5 -2.85 5.45 -4.35 L5.25 -5.3 Q5.15 -4.55 4.3 -4.55 L3.95 -4.55 3.6 -4.0 3.75 -4.2 4.2 -3.85 4.45 -3.25 4.15 -2.55 Q3.8 -2.1 3.25 -2.1 2.65 -2.1 2.4 -2.7 L1.8 -2.3 1.9 -1.9 Q1.9 -0.7 0.8 -0.7 -0.45 -0.7 -0.45 -1.6 L-0.45 -1.8 -1.45 -1.8 -1.65 -2.0 Q-1.65 -2.3 -1.3 -2.2 L-0.05 -2.25 Q1.35 -2.3 2.65 -3.55 3.75 -4.65 3.8 -5.7 L3.65 -5.9 3.75 -6.1 3.65 -6.7 Q3.65 -7.2 3.95 -6.8 L4.15 -6.3 4.55 -6.35 4.8 -6.3 3.3 -8.25 3.2 -8.35 3.0 -8.55 3.75 -8.8 3.8 -8.75 4.05 -8.5 Q6.0 -6.35 6.0 -3.1 L5.95 -1.8 5.95 -1.75 Q5.6 0.0 4.8 1.25 L4.95 1.45 6.35 1.35 Q7.9 1.35 7.9 2.55 7.9 3.4 7.25 4.0 6.5 4.7 5.25 4.7 4.1 4.7 3.4 4.05 2.85 3.55 2.8 3.1 L2.15 3.5 1.65 3.75 2.0 3.6 2.05 3.65 Q2.35 4.25 2.8 4.45 4.25 5.0 4.25 5.75 4.25 6.4 3.85 7.05 3.3 7.9 2.3 7.9 1.4 7.9 0.85 7.3 L0.5 6.7 0.05 7.6 Q-0.9 9.45 -2.25 9.4 L-3.6 9.4 Q-4.55 9.05 -4.55 8.15 -4.55 7.15 -3.1 6.65 -1.65 6.2 -1.65 5.15 -1.65 4.6 -2.0 4.2 L-2.25 3.9 -1.55 4.0 -4.25 3.25 -4.65 3.05 -4.65 2.85 -4.6 2.3 -4.3 2.45 -4.2 2.5 Q-2.4 3.4 -0.05 3.4 1.6 3.4 3.55 1.65 L3.5 1.65 Q4.25 1.15 4.9 -0.65 L4.95 -0.8 5.05 -1.05 5.1 -1.35 M4.2 -5.8 L4.05 -4.8 4.1 -5.0 4.2 -4.95 Q4.5 -4.9 4.7 -5.2 L4.85 -5.6 4.5 -5.9 4.2 -5.8 M3.1 -3.35 L2.75 -3.0 2.85 -2.85 3.15 -2.5 Q3.5 -2.5 3.8 -2.85 L4.05 -3.25 3.6 -3.7 3.45 -3.75 3.1 -3.35 M-0.05 -1.8 L0.0 -1.6 Q0.1 -1.1 0.85 -1.1 1.3 -1.1 1.5 -1.9 L1.45 -2.15 -0.05 -1.8 M-2.2 6.8 L-2.7 7.0 Q-4.15 7.6 -4.15 8.1 L-4.0 8.65 -3.5 9.0 Q-1.15 9.0 -0.15 7.2 0.45 6.1 0.45 4.85 L0.25 4.1 -0.05 4.1 -1.55 4.0 -1.45 4.25 -1.25 5.15 Q-1.25 5.7 -1.5 6.15 L-2.2 6.8 M4.0 2.15 L3.2 2.8 3.55 3.3 Q4.15 3.9 5.3 3.9 6.35 3.9 6.85 3.4 L7.15 2.75 6.75 2.1 4.4 1.75 4.0 2.15 M0.85 4.85 L0.8 5.5 1.0 6.0 1.4 6.9 1.75 7.15 1.9 7.25 2.0 7.25 Q2.7 7.25 3.25 6.8 L3.65 6.15 Q3.65 5.6 2.6 5.1 1.75 4.7 1.6 3.8 L0.7 4.05 0.85 4.85" fill="#8e8886" fill-rule="evenodd" stroke="none"/>
    <path d="M0.55 -8.9 Q1.55 -8.9 1.55 -8.25 1.55 -7.15 0.4 -7.15 -0.5 -7.15 -0.5 -8.05 -0.5 -8.9 0.55 -8.9 M-2.45 -6.6 Q-1.4 -6.6 -1.4 -5.65 -1.4 -5.35 -1.7 -5.0 -2.05 -4.55 -2.55 -4.55 -3.45 -4.55 -3.45 -5.25 -3.45 -6.6 -2.45 -6.6" fill="#333333" fill-rule="evenodd" stroke="none"/>
    <path d="M-8.0 -8.3 L-9.3 -8.85 Q-10.7 -9.35 -10.7 -10.0 L-10.35 -10.55 Q-9.9 -10.95 -9.25 -10.85 L-8.0 -9.8 -7.3 -9.1 -7.45 -8.95 -8.0 -8.3 M-6.75 -9.55 L-6.75 -9.65 -7.0 -10.75 Q-6.9 -11.85 -5.7 -11.85 -5.35 -11.85 -5.35 -11.15 L-5.35 -10.35 -6.75 -9.55 M-9.0 -6.45 Q-10.1 -6.4 -11.1 -5.75 -12.2 -5.1 -12.95 -5.1 -13.65 -5.1 -13.65 -5.85 -13.65 -6.45 -13.1 -7.1 -12.3 -7.9 -10.95 -7.9 L-9.05 -7.6 -8.6 -7.35 -9.0 -6.45" fill="#5aa75a" fill-rule="evenodd" stroke="none"/>
    <path d="M-7.3 -9.1 L-8.0 -9.8 -9.25 -10.85 Q-9.9 -10.95 -10.35 -10.55 L-10.7 -10.0 Q-10.7 -9.35 -9.3 -8.85 L-8.0 -8.3 -8.15 -8.05 -8.6 -7.35 -9.05 -7.6 -10.95 -7.9 Q-12.3 -7.9 -13.1 -7.1 -13.65 -6.45 -13.65 -5.85 -13.65 -5.1 -12.95 -5.1 -12.2 -5.1 -11.1 -5.75 -10.1 -6.4 -9.0 -6.45 L-9.15 -5.9 -9.85 -5.8 -10.8 -5.4 -11.65 -4.95 -12.8 -4.65 Q-13.85 -4.65 -14.05 -5.3 L-14.05 -6.1 Q-14.05 -7.15 -13.6 -7.7 -12.8 -8.6 -10.55 -8.6 L-9.2 -8.4 -9.95 -8.55 -10.25 -8.8 Q-11.15 -9.55 -11.15 -10.25 -11.15 -11.45 -9.55 -11.45 -8.55 -11.45 -7.6 -10.45 L-7.6 -10.5 -7.25 -11.55 Q-6.75 -12.3 -5.7 -12.3 -4.75 -12.3 -4.75 -10.95 L-4.8 -10.6 -5.35 -10.35 -5.35 -11.15 Q-5.35 -11.85 -5.7 -11.85 -6.9 -11.85 -7.0 -10.75 L-6.75 -9.65 -6.75 -9.55 -6.8 -9.5 -7.1 -9.25 -7.2 -9.15 -7.3 -9.1" fill="#388238" fill-rule="evenodd" stroke="none"/>
  </g>
</svg>
