<?xml version="1.0" encoding="UTF-8" standalone="no"?>
<svg xmlns:ffdec="https://www.free-decompiler.com/flash" xmlns:xlink="http://www.w3.org/1999/xlink" ffdec:objectType="shape" height="52.9px" width="72.1px" xmlns="http://www.w3.org/2000/svg">
  <g transform="matrix(1.0, 0.0, 0.0, 1.0, 36.05, 26.45)">
    <path d="M36.05 -0.25 L36.0 0.6 Q34.4 8.1 33.45 15.7 L33.25 16.85 33.25 16.9 Q32.5 19.85 30.1 21.25 L28.95 21.65 24.9 22.1 25.0 22.1 -9.8 26.25 Q-12.45 26.85 -14.85 25.75 L-15.0 25.65 -30.45 16.7 -30.45 16.75 Q-32.8 15.3 -33.4 12.9 L-35.3 6.4 -35.3 6.45 Q-37.1 0.95 -34.6 -4.05 L-34.6 -4.0 Q-34.0 -5.35 -32.85 -6.1 L-32.4 -6.4 Q-31.7 -11.0 -29.15 -14.35 L-29.1 -14.4 -28.1 -15.55 -28.05 -15.6 Q-26.45 -17.3 -24.3 -17.9 L-23.95 -19.05 -23.9 -19.15 Q-23.55 -21.05 -22.15 -22.0 L-22.05 -22.05 Q-18.15 -25.0 -13.65 -26.1 -10.1 -27.0 -7.2 -25.55 12.5 -16.0 32.0 -6.05 L32.1 -6.0 Q35.85 -4.15 36.05 -0.25 M33.05 0.45 L33.05 -0.05 Q33.1 -2.0 30.9 -3.45 L30.8 -3.55 -8.4 -23.05 -8.45 -23.05 -9.1 -23.35 -12.9 -22.95 -12.9 -23.0 Q-16.05 -22.55 -19.25 -20.55 -20.95 -20.3 -21.1 -18.6 -21.3 -17.0 -22.35 -15.25 L-23.35 -15.1 -23.4 -15.1 Q-24.9 -14.75 -26.85 -12.6 L-26.85 -12.65 Q-28.15 -11.4 -28.9 -8.05 L-29.6 -5.05 -31.15 -3.95 -31.3 -3.8 Q-33.0 -2.15 -33.0 1.25 L-33.0 1.75 Q-32.9 3.65 -32.3 5.45 -31.6 7.35 -31.5 8.6 L-31.15 11.1 Q-30.9 12.2 -30.25 13.05 L-30.2 13.05 Q-29.75 13.65 -22.6 17.85 L-15.55 21.95 -15.55 21.9 -14.4 22.6 -14.35 22.65 Q-12.8 23.45 -11.9 23.4 L7.95 21.1 27.5 18.75 Q29.65 18.95 30.5 15.3 L30.5 15.25 30.8 12.45 30.8 12.4 31.55 7.8 32.45 2.9 32.5 2.8 33.05 0.45" fill="#ffffff" fill-rule="evenodd" stroke="none"/>
    <path d="M-33.0 1.75 L-33.0 1.25 Q-33.0 -2.15 -31.3 -3.8 L-31.15 -3.95 -29.6 -5.05 -28.9 -8.05 Q-28.15 -11.4 -26.85 -12.65 L-26.85 -12.6 Q-24.9 -14.75 -23.4 -15.1 L-23.35 -15.1 -22.35 -15.25 Q-21.3 -17.0 -21.1 -18.6 -20.95 -20.3 -19.25 -20.55 -16.05 -22.55 -12.9 -23.0 L-12.9 -22.95 -9.1 -23.35 -8.45 -23.05 -8.4 -23.05 30.8 -3.55 30.9 -3.45 Q33.1 -2.0 33.05 -0.05 L33.05 0.45 Q32.8 -1.2 30.9 -2.45 L30.8 -2.55 -8.4 -22.05 -8.45 -22.05 -9.1 -22.35 -12.9 -21.95 -12.9 -22.0 Q-16.05 -21.55 -19.25 -19.55 -20.95 -19.3 -21.1 -17.6 -21.3 -16.0 -22.35 -14.25 L-23.35 -14.1 -23.4 -14.1 Q-24.9 -13.75 -26.85 -11.6 L-26.85 -11.65 Q-28.15 -10.4 -28.9 -7.05 L-29.6 -4.05 -31.15 -2.95 -31.3 -2.8 Q-32.85 -1.25 -33.0 1.75" fill="#b1b1b1" fill-rule="evenodd" stroke="none"/>
    <path d="M-33.0 1.75 Q-32.85 -1.25 -31.3 -2.8 L-31.15 -2.95 -29.6 -4.05 -28.9 -7.05 Q-28.15 -10.4 -26.85 -11.65 L-26.85 -11.6 Q-24.9 -13.75 -23.4 -14.1 L-23.35 -14.1 -22.35 -14.25 Q-21.3 -16.0 -21.1 -17.6 -20.95 -19.3 -19.25 -19.55 -16.05 -21.55 -12.9 -22.0 L-12.9 -21.95 -9.1 -22.35 -8.45 -22.05 -8.4 -22.05 30.8 -2.55 30.9 -2.45 Q32.8 -1.2 33.05 0.45 L32.5 2.8 32.45 2.9 31.55 7.8 30.8 12.4 30.8 12.45 30.5 15.25 30.5 15.3 Q29.65 18.95 27.5 18.75 L7.95 21.1 -11.9 23.4 Q-12.8 23.45 -14.35 22.65 L-14.4 22.6 -15.55 21.9 -15.55 21.95 -22.6 17.85 Q-29.75 13.65 -30.2 13.05 L-30.25 13.05 Q-30.9 12.2 -31.15 11.1 L-31.5 8.6 Q-31.6 7.35 -32.3 5.45 -32.9 3.65 -33.0 1.75" fill="#e5e5e5" fill-rule="evenodd" stroke="none"/>
  </g>
</svg>
