<?xml version="1.0" encoding="UTF-8" standalone="no"?>
<svg xmlns:ffdec="https://www.free-decompiler.com/flash" xmlns:xlink="http://www.w3.org/1999/xlink" ffdec:objectType="shape" height="135.5px" width="68.75px" xmlns="http://www.w3.org/2000/svg">
  <g transform="matrix(1.0, 0.0, 0.0, 1.0, 30.1, 136.65)">
    <path d="M5.3 -112.65 L5.45 -111.9 Q5.45 -110.55 2.25 -107.3 -1.85 -103.15 -6.85 -102.3 L-7.0 -102.7 -7.2 -103.65 Q-7.2 -105.2 -3.75 -108.85 0.2 -112.95 3.45 -112.95 L5.1 -112.85 5.3 -112.65 M1.75 -121.0 Q1.75 -119.9 0.95 -119.1 0.15 -118.3 -1.0 -118.3 -2.15 -118.3 -2.95 -119.1 L-3.55 -119.95 -2.85 -120.0 1.6 -121.9 1.75 -121.0 M8.55 -96.05 Q7.25 -90.2 2.9 -84.0 -1.4 -77.8 -5.45 -75.95 L-6.55 -76.25 -6.8 -78.35 Q-6.8 -82.15 -1.9 -86.75 6.5 -94.75 7.7 -96.2 L8.55 -96.05 M6.6 -78.3 L7.2 -78.25 Q7.6 -78.2 7.6 -76.5 7.2 -74.45 3.6 -70.1 L7.6 -69.65 9.5 -69.7 Q10.6 -69.65 10.8 -68.95 11.4 -66.65 10.7 -61.7 L11.3 -62.45 11.5 -61.0 Q11.5 -56.55 9.3 -52.15 6.9 -47.4 3.95 -47.35 L3.15 -47.7 Q2.6 -47.75 2.6 -48.75 L4.75 -53.25 5.3 -54.75 Q-1.55 -48.0 -4.05 -48.0 -5.95 -48.0 -6.95 -49.0 -7.7 -49.75 -7.7 -50.7 -7.7 -51.55 -7.15 -52.0 -4.2 -54.55 -0.05 -58.85 L-5.3 -58.25 Q-7.9 -58.25 -7.9 -60.5 -7.9 -66.6 -1.4 -71.3 L3.45 -74.7 Q5.95 -76.6 6.6 -78.3 M5.6 -37.85 Q1.4 -32.85 -2.2 -31.8 -0.2 -30.9 9.0 -28.7 15.15 -27.25 15.25 -24.9 15.25 -22.25 12.25 -22.25 7.2 -22.25 -0.65 -25.3 -8.65 -28.4 -8.55 -30.65 -8.5 -34.1 -2.7 -38.55 L-2.4 -38.8 Q3.05 -43.2 5.25 -43.2 9.5 -43.2 6.2 -38.55 L6.15 -38.55 5.6 -37.85 M10.25 -16.6 Q10.25 -14.15 5.25 -12.75 1.15 -11.65 -4.15 -11.65 -7.15 -11.65 -8.15 -12.15 -9.0 -12.6 -8.95 -13.7 -8.95 -15.15 -7.25 -15.55 L3.95 -16.95 7.7 -17.75 Q8.25 -18.0 10.05 -17.25 L10.15 -17.35 10.25 -16.6" fill="#ffffff" fill-rule="evenodd" stroke="none"/>
    <path d="M-7.05 -126.4 Q-7.2 -130.6 -4.55 -133.45 L-2.8 -134.9 Q-6.05 -133.95 -7.75 -130.2 L-7.85 -130.0 -9.65 -126.0 -10.7 -123.7 -11.9 -120.9 Q-17.6 -106.9 -18.05 -90.65 L-18.1 -89.35 -18.2 -82.9 -18.5 -67.4 -18.55 -66.25 -18.85 -63.15 -18.85 -62.55 -19.05 -60.0 -19.2 -58.3 -20.3 -47.65 -21.4 -38.55 -21.85 -36.4 -22.5 -33.15 Q-23.65 -27.8 -25.25 -22.25 L-27.6 -11.9 -27.6 -11.85 -27.8 -11.05 -27.9 -10.4 -27.85 -10.4 -28.0 -9.15 -28.3 -7.55 -15.95 -4.55 -13.2 -3.85 -3.75 -3.1 2.7 -2.5 7.05 -2.5 33.8 -5.85 36.85 -6.65 35.8 -10.55 34.75 -13.9 34.7 -14.0 34.2 -15.55 34.2 -15.6 34.0 -16.25 34.0 -16.3 29.75 -28.9 Q28.1 -33.35 26.6 -38.55 L25.65 -42.9 Q24.0 -51.05 23.2 -57.85 L22.15 -65.6 22.15 -65.7 22.15 -65.8 22.1 -66.2 23.3 -66.95 24.6 -67.8 26.45 -69.2 27.65 -70.35 Q31.5 -74.35 32.05 -79.65 32.85 -87.95 25.7 -99.6 19.15 -110.25 14.95 -117.45 L11.65 -123.1 10.1 -125.85 Q9.2 -127.9 7.1 -131.15 L6.25 -132.3 Q5.4 -133.25 4.25 -133.85 5.45 -133.0 5.7 -131.7 6.1 -130.4 5.35 -128.65 L4.75 -127.45 3.8 -126.0 Q2.5 -124.3 1.05 -123.25 L0.8 -123.05 Q-0.55 -122.15 -2.0 -121.75 L-2.45 -121.65 -3.7 -121.5 Q-4.8 -121.55 -5.5 -122.15 L-5.9 -122.5 Q-6.85 -123.55 -7.0 -125.6 L-7.05 -126.4 M9.55 -130.25 L11.8 -125.85 12.55 -124.55 Q17.2 -116.35 27.05 -100.35 34.5 -88.25 33.55 -79.5 32.9 -73.25 28.1 -68.7 L26.85 -67.6 25.05 -66.25 23.75 -65.45 24.7 -58.05 Q25.5 -51.25 27.1 -43.2 L28.15 -38.55 31.15 -29.35 Q33.4 -23.55 35.55 -16.65 L35.8 -15.9 35.75 -15.95 36.2 -14.3 37.3 -10.95 38.3 -7.35 38.65 -5.9 38.65 -5.85 37.15 -5.35 37.1 -5.35 35.95 -4.95 33.55 -4.2 21.65 -2.1 18.65 -1.8 16.35 -1.55 13.95 -1.4 8.0 -1.15 Q-4.65 -1.25 -16.95 -3.1 L-18.6 -3.35 -18.9 -3.45 -25.8 -5.0 -25.55 -5.45 -25.85 -5.0 -28.15 -5.7 -28.55 -5.8 -30.1 -6.35 -30.1 -6.4 -29.85 -8.05 -29.65 -9.3 -29.4 -10.55 -29.4 -10.6 -29.15 -11.75 -29.1 -12.1 -26.8 -22.55 Q-25.2 -28.05 -24.05 -33.35 L-23.8 -34.7 -22.95 -38.55 -22.9 -38.55 -22.75 -39.85 -21.85 -47.8 -21.15 -54.25 -20.55 -60.55 -20.55 -60.95 -20.4 -62.65 -20.35 -63.35 -20.05 -66.3 -19.85 -75.1 -19.7 -82.95 -19.6 -89.35 Q-19.35 -108.35 -12.05 -124.3 L-8.6 -131.35 Q-5.5 -137.55 0.5 -136.5 6.45 -135.5 8.7 -131.7 L9.55 -130.25 M4.5 -131.4 Q4.1 -132.7 2.4 -133.5 -1.25 -135.25 -3.6 -132.6 -5.3 -130.7 -5.7 -128.25 -5.9 -127.05 -5.75 -125.7 L-5.3 -123.85 -4.75 -123.15 Q-4.1 -122.7 -3.0 -122.8 L-2.35 -122.95 Q-1.45 -123.2 -0.6 -123.65 1.45 -124.8 3.1 -127.15 L3.7 -128.1 3.65 -128.1 4.35 -129.7 4.5 -131.4" fill="#464646" fill-rule="evenodd" stroke="none"/>
    <path d="M5.35 -128.65 Q6.1 -130.4 5.7 -131.7 5.45 -133.0 4.25 -133.85 5.4 -133.25 6.25 -132.3 L7.1 -131.15 Q9.2 -127.9 10.1 -125.85 L11.65 -123.1 14.95 -117.45 Q19.15 -110.25 25.7 -99.6 32.85 -87.95 32.05 -79.65 31.5 -74.35 27.65 -70.35 L26.45 -69.2 24.6 -67.8 23.3 -66.95 22.1 -66.2 22.15 -65.8 22.15 -65.7 22.15 -65.6 23.2 -57.85 Q24.0 -51.05 25.65 -42.9 L26.6 -38.55 Q28.1 -33.35 29.75 -28.9 L34.0 -16.3 34.0 -16.25 34.2 -15.6 34.2 -15.55 34.7 -14.0 34.75 -13.9 35.8 -10.55 36.85 -6.65 33.8 -5.85 7.05 -2.5 2.7 -2.5 -3.75 -3.1 -13.2 -3.85 -15.95 -4.55 -28.3 -7.55 -28.0 -9.15 -27.85 -10.4 -27.9 -10.4 -27.8 -11.05 -27.6 -11.85 -27.6 -11.9 -25.25 -22.25 Q-23.65 -27.8 -22.5 -33.15 L-21.85 -36.4 -21.4 -38.55 -20.3 -47.65 -19.2 -58.3 -19.05 -60.0 -18.85 -62.55 -18.85 -63.15 -18.55 -66.25 -18.5 -67.4 -18.2 -82.9 -18.1 -89.35 -18.05 -90.65 Q-17.6 -106.9 -11.9 -120.9 L-10.7 -123.7 -9.65 -126.0 -7.85 -130.0 -7.75 -130.2 Q-6.05 -133.95 -2.8 -134.9 L-4.55 -133.45 Q-7.2 -130.6 -7.05 -126.4 -9.4 -122.7 -10.2 -116.95 L-8.9 -113.75 Q-10.95 -112.95 -11.9 -107.55 -12.55 -103.85 -12.55 -99.4 -12.55 -98.75 -10.45 -97.35 L-7.05 -95.0 -8.35 -94.5 -13.35 -94.65 Q-14.45 -94.3 -14.45 -92.4 L-14.4 -86.25 -14.15 -78.4 Q-13.95 -75.85 -12.7 -73.9 -11.55 -72.1 -11.55 -70.9 -11.55 -67.65 -13.4 -61.7 -15.1 -56.35 -15.25 -46.55 L-15.3 -43.8 Q-15.3 -41.65 -14.05 -40.1 -12.85 -38.6 -11.15 -38.55 L-11.05 -38.55 Q-16.65 -36.4 -17.05 -25.05 -17.15 -23.3 -16.6 -22.45 L-13.9 -19.35 Q-22.1 -19.65 -22.25 -15.8 -22.5 -11.45 -21.0 -10.3 -20.55 -9.9 -15.3 -8.6 -8.8 -6.85 0.55 -6.1 L10.65 -5.7 13.85 -5.8 13.85 -5.6 16.05 -5.65 20.4 -5.95 31.4 -10.2 Q32.05 -10.75 31.2 -10.7 L30.4 -12.5 29.9 -13.9 29.3 -15.5 28.55 -19.65 25.4 -17.7 Q22.15 -15.75 21.7 -15.75 L18.1 -15.35 18.0 -16.6 23.4 -21.3 Q25.15 -23.05 25.05 -25.2 25.0 -27.2 24.4 -27.75 22.85 -29.0 20.85 -31.1 21.85 -32.25 22.5 -33.85 L22.95 -35.35 Q22.9 -37.1 22.15 -38.55 21.45 -40.15 20.0 -41.5 L18.3 -42.85 Q16.35 -44.0 14.6 -43.6 L16.45 -46.55 17.4 -47.7 17.35 -48.15 Q17.35 -49.1 17.65 -49.75 17.9 -50.4 18.3 -50.4 L18.9 -49.95 19.2 -52.15 Q19.2 -55.7 17.15 -70.5 15.3 -84.15 15.4 -84.05 L15.65 -85.1 Q16.55 -88.3 17.55 -89.9 19.9 -80.25 20.7 -78.05 22.1 -74.2 23.95 -74.2 25.4 -74.2 27.2 -76.75 29.05 -79.35 29.05 -81.65 29.05 -84.05 25.25 -94.2 20.85 -105.95 17.5 -105.95 15.35 -105.95 15.25 -101.45 15.15 -99.1 15.35 -95.75 14.75 -91.7 13.8 -89.25 L13.4 -88.25 13.4 -87.95 13.3 -88.0 Q13.15 -87.75 13.25 -93.0 13.35 -98.4 13.6 -100.45 L14.7 -112.05 14.7 -112.7 14.65 -112.6 14.25 -112.95 Q13.25 -112.15 11.75 -109.5 10.45 -107.2 10.4 -106.7 8.05 -122.65 6.6 -126.35 L5.35 -128.65" fill="#8a8a8a" fill-rule="evenodd" stroke="none"/>
    <path d="M5.35 -128.65 L6.6 -126.35 Q8.05 -122.65 10.4 -106.7 10.45 -107.2 11.75 -109.5 13.25 -112.15 14.25 -112.95 L14.65 -112.6 14.7 -112.7 14.7 -112.05 13.6 -100.45 Q13.35 -98.4 13.25 -93.0 13.15 -87.75 13.3 -88.0 L13.4 -87.95 13.4 -88.25 13.8 -89.25 Q14.75 -91.7 15.35 -95.75 15.15 -99.1 15.25 -101.45 15.35 -105.95 17.5 -105.95 20.85 -105.95 25.25 -94.2 29.05 -84.05 29.05 -81.65 29.05 -79.35 27.2 -76.75 25.4 -74.2 23.95 -74.2 22.1 -74.2 20.7 -78.05 19.9 -80.25 17.55 -89.9 16.55 -88.3 15.65 -85.1 L15.4 -84.05 Q15.3 -84.15 17.15 -70.5 19.2 -55.7 19.2 -52.15 L18.9 -49.95 18.3 -50.4 Q17.9 -50.4 17.65 -49.75 17.35 -49.1 17.35 -48.15 L17.4 -47.7 16.45 -46.55 14.6 -43.6 Q16.35 -44.0 18.3 -42.85 L20.0 -41.5 Q21.45 -40.15 22.15 -38.55 22.9 -37.1 22.95 -35.35 L22.5 -33.85 Q21.85 -32.25 20.85 -31.1 22.85 -29.0 24.4 -27.75 25.0 -27.2 25.05 -25.2 25.15 -23.05 23.4 -21.3 L18.0 -16.6 18.1 -15.35 21.7 -15.75 Q22.15 -15.75 25.4 -17.7 L28.55 -19.65 29.3 -15.5 29.9 -13.9 30.4 -12.5 31.2 -10.7 Q32.05 -10.75 31.4 -10.2 L20.4 -5.95 16.05 -5.65 13.85 -5.6 13.85 -5.8 10.65 -5.7 0.55 -6.1 Q-8.8 -6.85 -15.3 -8.6 -20.55 -9.9 -21.0 -10.3 -22.5 -11.45 -22.25 -15.8 -22.1 -19.65 -13.9 -19.35 L-16.6 -22.45 Q-17.15 -23.3 -17.05 -25.05 -16.65 -36.4 -11.05 -38.55 L-11.15 -38.55 Q-12.85 -38.6 -14.05 -40.1 -15.3 -41.65 -15.3 -43.8 L-15.25 -46.55 Q-15.1 -56.35 -13.4 -61.7 -11.55 -67.65 -11.55 -70.9 -11.55 -72.1 -12.7 -73.9 -13.95 -75.85 -14.15 -78.4 L-14.4 -86.25 -14.45 -92.4 Q-14.45 -94.3 -13.35 -94.65 L-8.35 -94.5 -7.05 -95.0 -10.45 -97.35 Q-12.55 -98.75 -12.55 -99.4 -12.55 -103.85 -11.9 -107.55 -10.95 -112.95 -8.9 -113.75 L-10.2 -116.95 Q-9.4 -122.7 -7.05 -126.4 L-7.0 -125.6 Q-6.85 -123.55 -5.9 -122.5 -6.95 -120.0 -6.95 -117.25 L-6.9 -116.15 -4.15 -116.0 1.75 -116.55 Q4.9 -117.25 4.9 -118.7 4.9 -123.45 3.8 -126.0 L4.75 -127.45 5.35 -128.65 M20.25 -26.25 L20.25 -26.35 20.1 -26.9 Q19.7 -27.9 18.8 -28.3 16.2 -29.05 14.1 -30.0 L12.95 -30.3 16.1 -33.25 17.2 -34.7 Q15.5 -35.4 13.8 -36.4 11.85 -37.5 10.55 -38.55 L10.6 -38.55 8.95 -40.35 Q10.6 -42.0 11.85 -44.35 L12.8 -46.55 Q14.35 -49.9 14.35 -54.95 14.35 -71.95 11.9 -75.0 11.55 -75.45 10.95 -83.75 10.3 -92.4 10.75 -94.5 11.55 -99.3 11.7 -99.1 L12.6 -104.8 12.45 -105.2 11.8 -104.35 10.2 -102.25 7.95 -99.7 Q3.95 -95.1 2.05 -95.0 1.55 -94.55 1.55 -95.55 1.55 -96.95 4.65 -101.15 7.7 -105.3 7.7 -108.45 7.7 -110.9 6.8 -113.4 5.85 -116.0 4.9 -116.0 -0.5 -113.35 -4.0 -112.35 -7.5 -111.35 -8.95 -109.85 -10.3 -108.45 -10.3 -106.1 -10.3 -99.4 -9.45 -98.7 L-1.3 -98.35 Q-6.3 -92.5 -7.7 -88.5 -8.95 -85.0 -8.95 -77.55 -8.95 -74.65 -8.45 -73.85 -7.45 -72.35 -3.75 -72.6 L-7.45 -69.4 Q-10.5 -66.75 -10.55 -66.4 -10.95 -62.3 -11.3 -46.55 L-11.3 -46.0 Q-11.3 -44.55 -10.7 -44.0 -10.1 -43.4 -8.75 -43.4 L0.35 -44.8 Q-1.95 -41.7 -5.8 -38.55 L-5.85 -38.55 -6.5 -38.0 Q-10.35 -35.2 -10.8 -34.1 -11.65 -32.35 -11.85 -24.6 -11.85 -23.85 -8.0 -23.5 L6.95 -21.7 7.1 -21.55 8.1 -21.25 Q5.0 -20.05 0.55 -19.3 L-6.25 -18.2 Q-13.1 -16.9 -13.25 -12.2 -13.35 -9.9 -8.8 -9.15 L2.5 -8.65 9.15 -8.9 17.0 -9.8 Q17.2 -8.85 17.15 -10.15 17.1 -12.4 16.35 -13.8 15.55 -15.15 14.5 -15.1 L13.35 -15.05 17.8 -19.85 Q20.4 -22.9 20.35 -25.55 L20.25 -26.25 M24.8 -86.5 Q24.8 -88.7 23.3 -92.7 21.7 -96.9 20.2 -98.1 L19.3 -97.05 Q19.2 -95.6 21.0 -90.35 22.65 -85.5 23.45 -84.25 L24.4 -85.0 Q24.8 -85.8 24.8 -86.5" fill="#b4b4b4" fill-rule="evenodd" stroke="none"/>
    <path d="M-5.9 -122.5 L-5.5 -122.15 Q-4.8 -121.55 -3.7 -121.5 L-2.45 -121.65 -2.0 -121.75 Q-0.55 -122.15 0.8 -123.05 L1.05 -123.25 Q2.5 -124.3 3.8 -126.0 4.9 -123.45 4.9 -118.7 4.9 -117.25 1.75 -116.55 L-4.15 -116.0 -6.9 -116.15 -6.95 -117.25 Q-6.95 -120.0 -5.9 -122.5 M20.25 -26.25 L20.35 -25.55 Q20.4 -22.9 17.8 -19.85 L13.35 -15.05 14.5 -15.1 Q15.55 -15.15 16.35 -13.8 17.1 -12.4 17.15 -10.15 17.2 -8.85 17.0 -9.8 L9.15 -8.9 2.5 -8.65 -8.8 -9.15 Q-13.35 -9.9 -13.25 -12.2 -13.1 -16.9 -6.25 -18.2 L0.55 -19.3 Q5.0 -20.05 8.1 -21.25 L7.1 -21.55 6.95 -21.7 -8.0 -23.5 Q-11.85 -23.85 -11.85 -24.6 -11.65 -32.35 -10.8 -34.1 -10.35 -35.2 -6.5 -38.0 L-5.85 -38.55 -5.8 -38.55 Q-1.95 -41.7 0.35 -44.8 L-8.75 -43.4 Q-10.1 -43.4 -10.7 -44.0 -11.3 -44.55 -11.3 -46.0 L-11.3 -46.55 Q-10.95 -62.3 -10.55 -66.4 -10.5 -66.75 -7.45 -69.4 L-3.75 -72.6 Q-7.45 -72.35 -8.45 -73.85 -8.95 -74.65 -8.95 -77.55 -8.95 -85.0 -7.7 -88.5 -6.3 -92.5 -1.3 -98.35 L-9.45 -98.7 Q-10.3 -99.4 -10.3 -106.1 -10.3 -108.45 -8.95 -109.85 -7.5 -111.35 -4.0 -112.35 -0.5 -113.35 4.9 -116.0 5.85 -116.0 6.8 -113.4 7.7 -110.9 7.7 -108.45 7.7 -105.3 4.65 -101.15 1.55 -96.95 1.55 -95.55 1.55 -94.55 2.05 -95.0 3.95 -95.1 7.95 -99.7 L10.2 -102.25 11.8 -104.35 12.45 -105.2 12.6 -104.8 11.7 -99.1 Q11.55 -99.3 10.75 -94.5 10.3 -92.4 10.95 -83.75 11.55 -75.45 11.9 -75.0 14.35 -71.95 14.35 -54.95 14.35 -49.9 12.8 -46.55 L11.85 -44.35 Q10.6 -42.0 8.95 -40.35 L10.6 -38.55 10.55 -38.55 Q11.85 -37.5 13.8 -36.4 15.5 -35.4 17.2 -34.7 L16.1 -33.25 12.95 -30.3 14.1 -30.0 Q16.2 -29.05 18.8 -28.3 19.7 -27.9 20.1 -26.9 L20.25 -26.35 20.25 -26.25 M1.75 -121.0 L1.6 -121.9 -2.85 -120.0 -3.55 -119.95 -2.95 -119.1 Q-2.15 -118.3 -1.0 -118.3 0.15 -118.3 0.95 -119.1 1.75 -119.9 1.75 -121.0 M5.3 -112.65 L5.1 -112.85 3.45 -112.95 Q0.2 -112.95 -3.75 -108.85 -7.2 -105.2 -7.2 -103.65 L-7.0 -102.7 -6.85 -102.3 Q-1.85 -103.15 2.25 -107.3 5.45 -110.55 5.45 -111.9 L5.3 -112.65 M24.8 -86.5 Q24.8 -85.8 24.4 -85.0 L23.45 -84.25 Q22.65 -85.5 21.0 -90.35 19.2 -95.6 19.3 -97.05 L20.2 -98.1 Q21.7 -96.9 23.3 -92.7 24.8 -88.7 24.8 -86.5 M10.25 -16.6 L10.15 -17.35 10.05 -17.25 Q8.25 -18.0 7.7 -17.75 L3.95 -16.95 -7.25 -15.55 Q-8.95 -15.15 -8.95 -13.7 -9.0 -12.6 -8.15 -12.15 -7.15 -11.65 -4.15 -11.65 1.15 -11.65 5.25 -12.75 10.25 -14.15 10.25 -16.6 M5.6 -37.85 L6.15 -38.55 6.2 -38.55 Q9.5 -43.2 5.25 -43.2 3.05 -43.2 -2.4 -38.8 L-2.7 -38.55 Q-8.5 -34.1 -8.55 -30.65 -8.65 -28.4 -0.65 -25.3 7.2 -22.25 12.25 -22.25 15.25 -22.25 15.25 -24.9 15.15 -27.25 9.0 -28.7 -0.2 -30.9 -2.2 -31.8 1.4 -32.85 5.6 -37.85 M6.6 -78.3 Q5.95 -76.6 3.45 -74.7 L-1.4 -71.3 Q-7.9 -66.6 -7.9 -60.5 -7.9 -58.25 -5.3 -58.25 L-0.05 -58.85 Q-4.2 -54.55 -7.15 -52.0 -7.7 -51.55 -7.7 -50.7 -7.7 -49.75 -6.95 -49.0 -5.95 -48.0 -4.05 -48.0 -1.55 -48.0 5.3 -54.75 L4.75 -53.25 2.6 -48.75 Q2.6 -47.75 3.15 -47.7 L3.95 -47.35 Q6.9 -47.4 9.3 -52.15 11.5 -56.55 11.5 -61.0 L11.3 -62.45 10.7 -61.7 Q11.4 -66.65 10.8 -68.95 10.6 -69.65 9.5 -69.7 L7.6 -69.65 3.6 -70.1 Q7.2 -74.45 7.6 -76.5 7.6 -78.2 7.2 -78.25 L6.6 -78.3 M8.55 -96.05 L7.7 -96.2 Q6.5 -94.75 -1.9 -86.75 -6.8 -82.15 -6.8 -78.35 L-6.55 -76.25 -5.45 -75.95 Q-1.4 -77.8 2.9 -84.0 7.25 -90.2 8.55 -96.05" fill="#e0e0e0" fill-rule="evenodd" stroke="none"/>
  </g>
</svg>
