<?xml version="1.0" encoding="UTF-8" standalone="no"?>
<svg xmlns:ffdec="https://www.free-decompiler.com/flash" xmlns:xlink="http://www.w3.org/1999/xlink" ffdec:objectType="shape" height="46.4px" width="77.5px" xmlns="http://www.w3.org/2000/svg">
  <g transform="matrix(1.0, 0.0, 0.0, 1.0, 49.4, 31.65)">
    <path d="M8.65 3.75 Q7.85 2.25 7.85 1.25 7.85 -0.8 9.1 -5.85 L10.35 -11.65 Q10.35 -13.25 8.4 -15.8 L7.55 -16.85 7.85 -16.65 7.9 -16.45 Q12.85 -12.95 16.55 -9.0 L16.05 -8.65 12.35 -5.75 Q14.0 -5.75 16.45 -6.7 L18.05 -7.3 19.15 -5.95 16.1 -2.2 Q12.05 2.3 8.65 3.75 M-24.8 -30.5 L-23.2 -28.5 Q-21.3 -26.5 -19.65 -26.5 -17.55 -26.5 -16.7 -28.45 -12.0 -27.0 -7.15 -24.8 -16.35 -27.0 -28.7 -25.35 -31.05 -28.1 -31.05 -30.4 L-30.9 -31.4 -24.8 -30.5" fill="#ffffff" fill-rule="evenodd" stroke="none"/>
    <path d="M8.65 3.75 Q12.05 2.3 16.1 -2.2 L19.15 -5.95 20.05 -4.8 21.1 -3.35 18.25 -1.15 18.45 -0.65 19.35 -0.5 Q20.4 -0.3 22.15 -1.6 L22.25 -1.65 24.05 1.35 23.2 2.7 Q21.3 5.1 14.35 5.1 12.45 5.1 8.95 4.1 L8.65 3.75 M18.05 -7.3 L16.45 -6.7 Q14.0 -5.75 12.35 -5.75 L16.05 -8.65 16.55 -9.0 18.05 -7.3 M26.3 8.4 L24.25 9.75 22.55 9.75 22.5 9.25 25.0 5.0 25.35 4.4 Q25.85 5.95 27.1 7.6 L26.3 8.4 M-40.35 -27.65 L-38.3 -27.6 -39.9 -29.35 Q-40.6 -30.25 -40.85 -31.4 L-37.35 -31.6 -36.55 -31.6 -36.2 -27.35 -40.35 -27.65 M-16.7 -28.45 Q-17.55 -26.5 -19.65 -26.5 -21.3 -26.5 -23.2 -28.5 L-24.8 -30.5 Q-20.8 -29.75 -16.7 -28.45 M-30.9 -31.4 L-31.05 -30.4 Q-31.05 -28.1 -28.7 -25.35 L-31.4 -25.4 -30.95 -25.85 -30.8 -25.95 Q-31.75 -26.7 -33.6 -29.2 L-35.2 -31.6 -30.9 -31.4" fill="#d1d1d1" fill-rule="evenodd" stroke="none"/>
    <path d="M22.25 -1.65 L22.15 -1.6 Q20.4 -0.3 19.35 -0.5 L18.45 -0.65 18.25 -1.15 21.1 -3.35 22.25 -1.65 M24.05 1.35 L25.35 4.4 25.0 5.0 22.5 9.25 22.55 9.75 24.25 9.75 26.3 8.4 Q24.85 10.85 22.75 12.75 L20.7 9.85 Q18.95 7.7 18.3 7.55 17.9 7.75 17.75 8.35 L13.15 6.25 Q9.55 4.65 8.95 4.1 12.45 5.1 14.35 5.1 21.3 5.1 23.2 2.7 L24.05 1.35 M-40.35 -27.65 Q-41.9 -28.1 -42.9 -30.35 L-43.2 -31.1 -40.85 -31.4 Q-40.6 -30.25 -39.9 -29.35 L-38.3 -27.6 -40.35 -27.65 M-44.95 -30.75 Q-45.15 -29.5 -44.65 -28.1 -46.55 -28.2 -47.8 -30.0 L-44.95 -30.75 M-33.45 -25.85 L-32.65 -26.5 -35.5 -27.3 -36.2 -27.35 -36.55 -31.6 -35.2 -31.6 -33.6 -29.2 Q-31.75 -26.7 -30.8 -25.95 L-30.95 -25.85 -31.4 -25.4 Q-33.0 -25.4 -33.45 -25.85" fill="#989898" fill-rule="evenodd" stroke="none"/>
    <path d="M17.75 8.35 Q17.9 7.75 18.3 7.55 18.95 7.7 20.7 9.85 L22.75 12.75 Q24.85 10.85 26.3 8.4 L27.1 7.6 28.1 8.9 27.95 9.2 Q26.2 12.3 24.1 13.8 22.85 14.75 22.25 14.75 21.6 14.75 21.3 14.45 L20.9 13.85 20.75 13.25 Q20.6 12.15 19.4 10.35 18.35 8.7 17.75 8.35 M-43.2 -31.1 L-42.9 -30.35 Q-41.9 -28.1 -40.35 -27.65 L-36.2 -27.35 -35.5 -27.3 -32.65 -26.5 -33.45 -25.85 Q-43.05 -25.65 -46.2 -26.85 -48.25 -27.65 -49.4 -29.4 L-47.8 -30.0 Q-46.55 -28.2 -44.65 -28.1 -45.15 -29.5 -44.95 -30.75 L-43.2 -31.1" fill="#606060" fill-rule="evenodd" stroke="none"/>
  </g>
</svg>
