<?xml version="1.0" encoding="UTF-8" standalone="no"?>
<svg xmlns:ffdec="https://www.free-decompiler.com/flash" xmlns:xlink="http://www.w3.org/1999/xlink" ffdec:objectType="shape" height="33.05px" width="64.0px" xmlns="http://www.w3.org/2000/svg">
  <g transform="matrix(1.0, 0.0, 0.0, 1.0, 32.05, 3.9)">
    <path d="M-16.4 20.6 L-15.9 20.55 -14.65 20.65 -14.7 23.25 -14.7 23.9 -16.4 20.6 M-9.75 20.4 L-9.0 20.25 -8.1 20.1 -8.0 21.5 -8.15 21.65 -9.75 20.4 M-1.8 18.2 L-0.25 17.55 0.9 17.15 4.1 15.75 4.4 15.6 4.5 15.55 9.25 20.15 12.6 22.9 7.2 23.4 Q5.85 23.4 0.3 19.65 L-1.8 18.2 M6.65 14.5 L7.3 14.2 9.6 12.9 9.75 12.85 13.85 16.25 Q13.1 16.25 8.7 15.05 L6.65 14.5 M15.05 9.55 L15.2 9.45 15.65 9.15 15.9 9.25 16.0 9.35 15.05 9.55" fill="#ffffff" fill-rule="evenodd" stroke="none"/>
    <path d="M15.65 9.15 L19.2 6.5 19.85 6.0 21.65 4.65 22.45 4.0 23.4 3.2 25.2 1.65 26.7 0.25 27.5 -0.5 28.35 -1.3 30.25 0.85 Q28.5 3.5 26.5 4.75 L22.85 5.65 Q19.85 6.3 18.75 7.55 19.55 8.2 21.0 8.75 L15.5 13.55 16.35 15.0 Q17.15 16.4 17.15 17.0 L16.3 18.05 13.65 20.15 15.6 23.25 Q15.6 24.65 13.1 25.4 L9.55 25.95 Q7.75 25.95 3.8 24.15 0.3 22.6 -3.5 20.35 -4.25 20.5 -4.3 21.35 L-2.65 23.15 -0.1 25.35 1.15 26.25 Q-4.1 26.0 -6.5 25.1 -8.85 23.85 -11.35 23.1 -12.25 23.2 -12.3 24.15 -12.1 25.0 -11.1 25.9 L-10.25 26.5 -15.95 25.9 Q-20.0 24.85 -20.0 20.35 L-20.0 20.2 -16.4 20.6 -14.7 23.9 -14.7 23.25 -14.65 20.65 -12.9 20.7 -10.2 20.45 -9.75 20.4 -8.15 21.65 -8.0 21.5 -8.1 20.1 -6.6 19.75 -5.05 19.3 -4.5 19.15 -1.8 18.2 0.3 19.65 Q5.85 23.4 7.2 23.4 L12.6 22.9 9.25 20.15 4.5 15.55 6.65 14.5 8.7 15.05 Q13.1 16.25 13.85 16.25 L9.75 12.85 12.4 11.3 12.6 11.2 13.95 10.3 14.8 9.75 15.05 9.55 16.0 9.35 15.9 9.25 15.65 9.15" fill="#d1d1d1" fill-rule="evenodd" stroke="none"/>
    <path d="M28.35 -1.3 L29.75 -2.75 30.35 -3.4 30.8 -3.9 31.95 2.8 31.0 4.6 29.95 4.85 Q22.65 6.9 21.75 7.75 L20.3 11.35 Q18.8 14.55 18.65 16.75 L18.45 23.35 Q18.35 24.0 17.55 24.65 15.25 26.45 9.45 27.5 0.7 29.0 -13.5 28.0 L-17.0 28.05 Q-19.95 28.15 -21.4 26.9 -22.85 25.6 -23.95 23.6 L-25.25 20.85 -27.8 15.8 -25.75 17.55 -25.65 17.65 Q-23.85 18.75 -22.05 19.5 L-20.4 20.05 -20.15 20.15 -20.0 20.2 -20.0 20.35 Q-20.0 24.85 -15.95 25.9 L-10.25 26.5 -11.1 25.9 Q-12.1 25.0 -12.3 24.15 -12.25 23.2 -11.35 23.1 -8.85 23.85 -6.5 25.1 -4.1 26.0 1.15 26.25 L-0.1 25.35 -2.65 23.15 -4.3 21.35 Q-4.25 20.5 -3.5 20.35 0.3 22.6 3.8 24.15 7.75 25.95 9.55 25.95 L13.1 25.4 Q15.6 24.65 15.6 23.25 L13.65 20.15 16.3 18.05 17.15 17.0 Q17.15 16.4 16.35 15.0 L15.5 13.55 21.0 8.75 Q19.55 8.2 18.75 7.55 19.85 6.3 22.85 5.65 L26.5 4.75 Q28.5 3.5 30.25 0.85 L28.35 -1.3" fill="#989898" fill-rule="evenodd" stroke="none"/>
    <path d="M-13.5 28.0 L-13.0 28.5 -13.75 29.15 -20.25 29.15 Q-26.5 24.5 -30.2 14.9 L-32.05 9.1 -31.4 10.45 -31.2 10.85 -28.55 14.9 -28.55 14.95 -27.8 15.8 -25.25 20.85 -23.95 23.6 Q-22.85 25.6 -21.4 26.9 -19.95 28.15 -17.0 28.05 L-13.5 28.0" fill="#606060" fill-rule="evenodd" stroke="none"/>
  </g>
</svg>
