<?xml version="1.0" encoding="UTF-8" standalone="no"?>
<svg xmlns:ffdec="https://www.free-decompiler.com/flash" xmlns:xlink="http://www.w3.org/1999/xlink" ffdec:objectType="shape" height="81.9px" width="76.85px" xmlns="http://www.w3.org/2000/svg">
  <g transform="matrix(1.0, 0.0, 0.0, 1.0, 55.2, 31.85)">
    <path d="M9.85 -15.0 L11.25 -11.4 Q12.9 -5.65 13.05 -4.1 L13.05 1.5 Q13.05 6.9 12.6 10.55 12.1 15.0 10.65 20.0 9.55 23.6 5.6 30.85 1.5 38.45 0.25 38.45 L0.0 38.35 -0.05 37.9 4.4 29.6 Q8.85 20.45 8.85 15.9 L8.8 15.0 8.0 16.15 Q7.35 17.1 6.85 17.1 L6.5 17.0 6.5 16.0 Q7.65 11.75 8.05 7.6 L8.35 -0.55 8.35 -5.8 Q8.2 -7.85 7.1 -11.95 L5.1 -18.25 5.1 -18.35 5.9 -17.8 7.65 -16.65 9.85 -15.0 M0.15 -14.3 Q1.1 -11.6 1.5 -8.95 L1.75 -3.75 Q1.3 4.2 0.2 4.2 -0.5 4.2 -0.35 2.25 L-0.1 -1.55 0.15 -5.2 0.0 -9.25 -0.25 -11.3 -0.5 -13.2 0.15 -14.3 M-22.05 -30.05 L-15.4 -28.15 -14.85 -27.3 Q-12.65 -24.2 -10.5 -20.55 -6.3 -13.4 -6.3 -10.3 -6.3 -9.8 -6.8 -9.8 -7.1 -9.8 -8.85 -13.35 L-11.6 -18.75 Q-12.85 -20.8 -14.85 -23.05 L-19.0 -27.5 Q-20.05 -28.55 -22.05 -30.05 M-40.25 -22.65 Q-40.25 -22.05 -40.8 -22.05 -41.35 -22.05 -42.45 -23.35 L-43.8 -25.15 -45.55 -26.75 Q-46.1 -27.25 -46.1 -28.1 -46.1 -29.25 -43.15 -26.65 -40.25 -24.0 -40.25 -22.65 M-29.5 -23.4 L-29.3 -23.25 -29.15 -23.2 -29.55 -23.45 -29.5 -23.4 M-23.05 -18.35 L-23.15 -18.05 -23.3 -18.0 Q-23.85 -18.0 -28.2 -21.3 -28.65 -21.5 -30.2 -22.8 -31.85 -24.2 -31.85 -24.55 -30.3 -26.8 -29.3 -25.85 L-26.7 -23.3 -24.7 -20.9 Q-23.05 -18.8 -23.05 -18.35" fill="#ffffff" fill-rule="evenodd" stroke="none"/>
    <path d="M-3.2 -23.05 L-1.9 -22.4 0.6 -21.05 5.1 -18.35 5.1 -18.25 7.1 -11.95 Q8.2 -7.85 8.35 -5.8 L8.35 -0.55 8.05 7.6 Q7.65 11.75 6.5 16.0 L6.5 17.0 6.85 17.1 Q7.35 17.1 8.0 16.15 L8.8 15.0 8.85 15.9 Q8.85 20.45 4.4 29.6 L-0.05 37.9 0.0 38.35 0.25 38.45 Q1.5 38.45 5.6 30.85 9.55 23.6 10.65 20.0 12.1 15.0 12.6 10.55 13.05 6.9 13.05 1.5 L13.05 -4.1 Q12.9 -5.65 11.25 -11.4 L9.85 -15.0 15.6 -9.9 Q16.85 -2.85 15.75 5.9 14.05 19.4 9.9 27.95 5.75 36.5 0.55 41.35 L-6.7 47.9 Q-0.9 39.9 0.95 30.1 L1.3 28.15 1.7 26.85 1.65 26.95 Q4.4 17.4 4.9 7.45 5.5 -3.35 2.65 -13.8 2.0 -16.3 0.25 -18.3 3.1 -9.75 2.85 -0.65 2.55 8.45 -1.4 11.25 -0.45 3.8 -2.35 -2.3 -0.95 -14.85 -3.2 -23.05 M0.15 -14.3 L-0.5 -13.2 -0.25 -11.3 0.0 -9.25 0.15 -5.2 -0.1 -1.55 -0.35 2.25 Q-0.5 4.2 0.2 4.2 1.3 4.2 1.75 -3.75 L1.5 -8.95 Q1.1 -11.6 0.15 -14.3 M-49.35 -29.75 L-48.25 -30.15 -46.75 -30.6 -41.65 -27.45 Q-38.55 -22.5 -35.9 -17.15 L-34.45 -13.8 -42.2 -21.4 -46.7 -25.9 Q-48.45 -27.8 -49.35 -29.75 M-44.0 -31.2 L-37.6 -31.8 -35.35 -31.8 -34.35 -29.5 -36.6 -29.65 Q-40.6 -29.9 -44.0 -31.2 M-26.6 -31.0 L-22.05 -30.05 Q-20.05 -28.55 -19.0 -27.5 L-14.85 -23.05 Q-12.85 -20.8 -11.6 -18.75 L-8.85 -13.35 Q-7.1 -9.8 -6.8 -9.8 -6.3 -9.8 -6.3 -10.3 -6.3 -13.4 -10.5 -20.55 -12.65 -24.2 -14.85 -27.3 L-15.4 -28.15 -10.3 -26.25 Q-5.0 -16.45 -5.0 -5.1 L-7.55 -9.5 Q-11.2 -15.35 -14.85 -19.8 -19.9 -26.35 -24.95 -29.85 L-26.6 -31.0 M-7.75 -25.15 L-5.55 -24.15 -4.4 -23.6 Q-3.0 -16.4 -3.4 -11.55 -4.7 -20.5 -7.75 -25.15 M-40.25 -22.65 Q-40.25 -24.0 -43.15 -26.65 -46.1 -29.25 -46.1 -28.1 -46.1 -27.25 -45.55 -26.75 L-43.8 -25.15 -42.45 -23.35 Q-41.35 -22.05 -40.8 -22.05 -40.25 -22.05 -40.25 -22.65 M-31.95 -26.5 L-32.0 -29.6 Q-23.9 -24.1 -19.9 -14.5 -30.05 -19.55 -39.05 -26.7 L-31.95 -26.5 M-23.05 -18.35 Q-23.05 -18.8 -24.7 -20.9 L-26.7 -23.3 -29.3 -25.85 Q-30.3 -26.8 -31.85 -24.55 -31.85 -24.2 -30.2 -22.8 -28.65 -21.5 -28.2 -21.3 -23.85 -18.0 -23.3 -18.0 L-23.15 -18.05 -23.05 -18.35 M-29.5 -23.4 L-29.55 -23.45 -29.15 -23.2 -29.3 -23.25 -29.5 -23.4" fill="#d1d1d1" fill-rule="evenodd" stroke="none"/>
    <path d="M-3.2 -23.05 Q-0.95 -14.85 -2.35 -2.3 L-3.4 -4.55 -5.25 1.15 Q-5.85 -9.1 -14.0 -15.95 L-14.85 -16.6 Q-17.15 -18.45 -19.8 -19.5 -17.7 -15.45 -18.2 -11.45 -25.6 -17.75 -34.65 -18.5 L-31.5 -7.9 -33.45 -10.3 -38.0 -14.8 -45.0 -20.3 Q-49.7 -24.0 -50.6 -28.0 L-50.85 -29.05 -49.35 -29.75 Q-48.45 -27.8 -46.7 -25.9 L-42.2 -21.4 -34.45 -13.8 -35.9 -17.15 Q-38.55 -22.5 -41.65 -27.45 L-46.75 -30.6 -44.0 -31.2 Q-40.6 -29.9 -36.6 -29.65 L-34.35 -29.5 -35.35 -31.8 -26.6 -31.0 -24.95 -29.85 Q-19.9 -26.35 -14.85 -19.8 -11.2 -15.35 -7.55 -9.5 L-5.0 -5.1 Q-5.0 -16.45 -10.3 -26.25 L-7.75 -25.15 Q-4.7 -20.5 -3.4 -11.55 -3.0 -16.4 -4.4 -23.6 L-3.2 -23.05 M-1.4 11.25 Q2.55 8.45 2.85 -0.65 3.1 -9.75 0.25 -18.3 2.0 -16.3 2.65 -13.8 5.5 -3.35 4.9 7.45 4.4 17.4 1.65 26.95 L-0.05 30.35 Q-3.4 33.7 -6.2 33.4 0.25 26.2 1.35 16.4 L1.65 10.4 -1.4 11.25 M-6.7 47.9 L0.55 41.35 Q5.75 36.5 9.9 27.95 14.05 19.4 15.75 5.9 16.85 -2.85 15.6 -9.9 L18.3 -6.9 19.5 -5.35 19.65 -4.65 Q21.4 7.15 17.4 17.3 13.35 27.45 8.45 35.95 3.05 45.4 -7.15 48.7 L-6.7 47.9 M-53.9 -26.95 L-53.4 -27.4 -51.7 -28.55 Q-51.15 -23.7 -47.85 -19.05 -46.15 -16.5 -45.05 -13.35 -52.3 -15.65 -53.6 -24.05 L-53.9 -26.95 M-31.95 -26.5 L-39.05 -26.7 Q-30.05 -19.55 -19.9 -14.5 -23.9 -24.1 -32.0 -29.6 L-31.95 -26.5" fill="#989898" fill-rule="evenodd" stroke="none"/>
    <path d="M-2.35 -2.3 Q-0.45 3.8 -1.4 11.25 L1.65 10.4 1.35 16.4 Q0.25 26.2 -6.2 33.4 -3.4 33.7 -0.05 30.35 L1.65 26.95 1.7 26.85 1.3 28.15 0.95 30.1 Q-0.9 39.9 -6.7 47.9 L-7.15 48.7 Q3.05 45.4 8.45 35.95 13.35 27.45 17.4 17.3 21.4 7.15 19.65 -4.65 L19.5 -5.35 19.8 -5.0 21.35 -2.7 Q22.4 6.3 19.45 15.2 13.5 33.2 5.8 41.6 -1.9 49.95 -9.1 50.05 -3.4 41.4 -0.55 32.5 L-1.5 33.15 Q-3.2 34.4 -5.15 34.55 L-7.55 34.35 -4.9 30.0 Q1.05 21.7 0.4 11.7 L-3.15 12.8 Q-1.25 5.5 -3.15 -1.8 L-3.65 -0.35 -4.4 1.8 Q-4.8 2.8 -5.5 3.35 -6.0 3.85 -6.75 3.65 L-6.75 0.6 Q-7.15 -9.3 -14.85 -15.0 L-17.8 -17.0 Q-15.9 -12.35 -16.65 -9.15 -25.2 -14.55 -33.45 -17.7 -32.0 -14.2 -31.05 -10.5 L-30.2 -6.25 Q-30.35 -5.95 -30.6 -5.8 L-30.8 -5.8 Q-35.9 -11.35 -41.6 -16.05 L-46.6 -20.0 Q-45.9 -16.05 -43.65 -12.7 -49.9 -12.3 -53.05 -18.9 -54.7 -22.35 -55.2 -25.6 L-54.6 -26.3 -53.9 -26.95 -53.6 -24.05 Q-52.3 -15.65 -45.05 -13.35 -46.15 -16.5 -47.85 -19.05 -51.15 -23.7 -51.7 -28.55 L-50.85 -29.05 -50.6 -28.0 Q-49.7 -24.0 -45.0 -20.3 L-38.0 -14.8 -33.45 -10.3 -31.5 -7.9 -34.65 -18.5 Q-25.6 -17.75 -18.2 -11.45 -17.7 -15.45 -19.8 -19.5 -17.15 -18.45 -14.85 -16.6 L-14.0 -15.95 Q-5.85 -9.1 -5.25 1.15 L-3.4 -4.55 -2.35 -2.3" fill="#606060" fill-rule="evenodd" stroke="none"/>
  </g>
</svg>
