<?xml version="1.0" encoding="UTF-8" standalone="no"?>
<svg xmlns:ffdec="https://www.free-decompiler.com/flash" xmlns:xlink="http://www.w3.org/1999/xlink" ffdec:objectType="shape" height="23.3px" width="17.05px" xmlns="http://www.w3.org/2000/svg">
  <g transform="matrix(1.0, 0.0, 0.0, 1.0, -11.15, 16.6)">
    <path d="M19.7 -16.6 L19.1 -13.25 18.4 -8.4 19.1 -7.45 20.1 -6.65 22.7 -4.55 22.35 -3.4 21.8 -3.4 19.35 -4.2 19.1 -3.7 19.05 -3.55 19.1 -3.25 19.7 -1.1 19.6 -1.1 19.1 -1.1 18.85 -1.15 18.55 -1.0 19.1 1.0 19.2 1.35 19.3 2.0 19.3 2.15 19.3 2.25 19.25 2.35 19.1 2.4 18.9 2.5 18.65 2.2 Q16.95 2.3 14.85 1.6 L12.8 1.0 12.75 0.35 15.95 -0.05 15.1 -3.35 16.9 -4.45 Q16.85 -5.5 16.1 -7.4 L17.15 -9.3 19.7 -16.6 M19.75 -8.0 L19.7 -8.65 22.9 -8.05 23.3 -7.35 22.4 -7.25 19.75 -8.0" fill="#ffffff" fill-rule="evenodd" stroke="none"/>
    <path d="M19.3 2.0 L19.2 1.35 19.1 1.0 18.55 -1.0 18.85 -1.15 19.1 -1.1 19.6 -1.1 19.7 -1.1 19.1 -3.25 19.05 -3.55 19.1 -3.7 19.35 -4.2 21.8 -3.4 22.35 -3.4 22.7 -4.55 20.1 -6.65 19.1 -7.45 18.4 -8.4 19.1 -13.25 19.7 -16.6 27.45 -14.05 Q23.4 -7.1 23.9 -4.7 L24.4 -2.7 24.05 -2.55 23.6 -2.4 22.35 -2.35 22.4 -1.5 22.65 -0.8 23.15 -0.1 23.8 0.65 23.3 0.9 20.95 -0.5 21.2 0.6 21.55 1.5 22.05 2.4 22.45 3.05 21.25 2.75 20.35 2.25 Q19.65 1.85 19.3 2.0 M19.75 -8.0 L22.4 -7.25 23.3 -7.35 22.9 -8.05 19.7 -8.65 19.75 -8.0" fill="#d1d1d1" fill-rule="evenodd" stroke="none"/>
    <path d="M19.3 2.0 Q19.65 1.85 20.35 2.25 L21.25 2.75 22.45 3.05 22.05 2.4 21.55 1.5 21.2 0.6 20.95 -0.5 23.3 0.9 23.8 0.65 23.15 -0.1 22.65 -0.8 22.4 -1.5 22.35 -2.35 23.6 -2.4 24.05 -2.55 24.4 -2.7 23.9 -4.7 Q23.4 -7.1 27.45 -14.05 L27.9 -13.75 Q25.25 -5.6 25.75 -3.05 L26.15 -1.4 25.3 -0.15 26.05 2.7 25.65 3.1 24.9 3.3 Q24.6 4.3 24.8 5.4 22.85 4.45 21.5 4.05 L19.65 3.8 18.2 3.35 18.2 3.55 15.6 3.0 12.6 2.65 12.95 2.65 12.8 1.0 14.85 1.6 Q16.95 2.3 18.65 2.2 L18.9 2.5 19.1 2.4 19.25 2.35 19.3 2.25 19.3 2.15 19.3 2.0" fill="#989898" fill-rule="evenodd" stroke="none"/>
    <path d="M27.9 -13.75 L28.2 -13.5 Q26.3 -5.15 26.8 -3.05 27.3 -1.1 26.15 0.5 L26.6 2.05 26.75 3.55 25.5 3.95 25.25 4.4 25.8 6.7 25.0 6.45 22.1 5.55 21.55 5.3 Q17.45 4.85 15.75 3.9 12.8 3.85 12.35 3.35 11.9 2.85 11.15 2.65 L12.6 2.65 15.6 3.0 18.2 3.55 18.2 3.35 19.65 3.8 21.5 4.05 Q22.85 4.45 24.8 5.4 24.6 4.3 24.9 3.3 L25.65 3.1 26.05 2.7 25.3 -0.15 26.15 -1.4 25.75 -3.05 Q25.25 -5.6 27.9 -13.75" fill="#606060" fill-rule="evenodd" stroke="none"/>
  </g>
</svg>
