<?xml version="1.0" encoding="UTF-8" standalone="no"?>
<svg xmlns:ffdec="https://www.free-decompiler.com/flash" xmlns:xlink="http://www.w3.org/1999/xlink" ffdec:objectType="shape" height="11.4px" width="13.55px" xmlns="http://www.w3.org/2000/svg">
  <g transform="matrix(1.0, 0.0, 0.0, 1.0, -3.05, 4.4)">
    <path d="M15.85 -2.9 L16.45 -2.2 16.6 -1.2 Q16.15 2.3 14.1 4.65 11.75 7.4 8.85 6.95 5.9 6.75 4.15 3.5 2.75 0.7 3.15 -2.8 3.2 -3.55 3.85 -3.95 4.45 -4.5 5.15 -4.4 L14.95 -3.3 15.85 -2.9 M12.15 2.55 Q13.25 1.25 13.85 -0.5 L5.65 -1.45 Q5.8 0.4 6.6 1.9 7.6 3.75 9.2 4.15 10.75 4.1 12.15 2.55" fill="#3a2011" fill-rule="evenodd" stroke="none"/>
    <path d="M12.15 2.55 Q10.75 4.1 9.2 4.15 7.6 3.75 6.6 1.9 5.8 0.4 5.65 -1.45 L13.85 -0.5 Q13.25 1.25 12.15 2.55" fill="#ddb388" fill-rule="evenodd" stroke="none"/>
  </g>
</svg>
