<?xml version="1.0" encoding="UTF-8" standalone="no"?>
<svg xmlns:ffdec="https://www.free-decompiler.com/flash" xmlns:xlink="http://www.w3.org/1999/xlink" ffdec:objectType="shape" height="11.3px" width="14.0px" xmlns="http://www.w3.org/2000/svg">
  <g transform="matrix(1.0, 0.0, 0.0, 1.0, -2.75, 5.75)">
    <path d="M9.75 -2.75 Q11.4 -2.55 12.65 -0.75 13.65 0.7 14.1 2.55 L5.5 2.55 Q5.9 0.7 6.9 -0.75 8.15 -2.55 9.75 -2.75" fill="#ddb388" fill-rule="evenodd" stroke="none"/>
    <path d="M9.75 -2.75 Q8.15 -2.55 6.9 -0.75 5.9 0.7 5.5 2.55 L14.1 2.55 Q13.65 0.7 12.65 -0.75 11.4 -2.55 9.75 -2.75 M14.9 -2.7 Q16.7 -0.05 16.75 3.6 L16.55 4.55 15.8 5.3 14.85 5.55 4.65 5.55 Q3.9 5.55 3.35 4.95 2.75 4.4 2.75 3.65 2.75 0.0 4.55 -2.7 6.7 -5.85 9.7 -5.75 12.8 -5.85 14.9 -2.7" fill="#3a2011" fill-rule="evenodd" stroke="none"/>
  </g>
</svg>
