<?xml version="1.0" encoding="UTF-8" standalone="no"?>
<svg xmlns:ffdec="https://www.free-decompiler.com/flash" xmlns:xlink="http://www.w3.org/1999/xlink" ffdec:objectType="shape" height="100.9px" width="17.4px" xmlns="http://www.w3.org/2000/svg">
  <g transform="matrix(1.0, 0.0, 0.0, 1.0, 18.8, 115.4)">
    <path d="M-4.05 -114.4 L-4.0 -114.45 -4.05 -114.4 M-6.8 -95.0 L-6.75 -95.05 -6.8 -95.0 M-9.4 -75.6 L-9.35 -75.65 -9.4 -75.6 M-12.15 -56.2 L-12.1 -56.25 -12.15 -56.2 M-14.85 -36.8 L-14.8 -36.85 -14.85 -36.8 M-17.55 -17.4 L-17.5 -17.45 -17.55 -17.4" fill="#aaaaaa" fill-rule="evenodd" stroke="none"/>
    <path d="M-4.7 -114.85 Q-4.15 -115.4 -3.35 -115.4 -2.55 -115.4 -2.0 -114.85 -1.4 -114.25 -1.4 -113.45 -1.4 -112.65 -1.95 -112.1 L-2.0 -112.05 Q-2.55 -111.5 -3.35 -111.5 -4.15 -111.5 -4.75 -112.1 -5.3 -112.65 -5.3 -113.45 -5.3 -114.25 -4.75 -114.8 L-4.7 -114.85 M-4.25 -112.6 Q-3.85 -112.2 -3.35 -112.2 -2.8 -112.2 -2.5 -112.55 L-2.45 -112.6 Q-2.1 -112.9 -2.1 -113.45 -2.1 -113.95 -2.5 -114.35 -2.8 -114.7 -3.35 -114.7 L-4.2 -114.35 -4.25 -114.3 Q-4.6 -114.0 -4.6 -113.45 -4.6 -112.9 -4.25 -112.6 M-4.75 -95.45 Q-4.15 -94.85 -4.15 -94.05 -4.15 -93.25 -4.7 -92.7 L-4.75 -92.65 Q-5.3 -92.1 -6.1 -92.1 -6.9 -92.1 -7.5 -92.7 -8.05 -93.25 -8.05 -94.05 -8.05 -94.85 -7.5 -95.4 L-7.45 -95.45 Q-6.9 -96.0 -6.1 -96.0 -5.3 -96.0 -4.75 -95.45 M-6.1 -95.3 Q-6.65 -95.3 -6.95 -94.95 L-7.0 -94.9 -7.35 -94.05 Q-7.35 -93.5 -7.0 -93.2 -6.6 -92.8 -6.1 -92.8 -5.55 -92.8 -5.25 -93.15 L-5.2 -93.2 Q-4.85 -93.5 -4.85 -94.05 -4.85 -94.55 -5.25 -94.95 -5.55 -95.3 -6.1 -95.3 M-10.1 -76.0 L-10.05 -76.05 Q-9.5 -76.6 -8.7 -76.6 -7.9 -76.6 -7.35 -76.05 -6.75 -75.45 -6.75 -74.65 -6.75 -73.85 -7.3 -73.3 L-7.35 -73.25 Q-7.9 -72.7 -8.7 -72.7 -9.5 -72.7 -10.1 -73.3 -10.65 -73.85 -10.65 -74.65 -10.65 -75.45 -10.1 -76.0 M-9.95 -74.65 Q-9.95 -74.1 -9.6 -73.8 -9.2 -73.4 -8.7 -73.4 -8.15 -73.4 -7.85 -73.75 L-7.8 -73.8 Q-7.45 -74.1 -7.45 -74.65 -7.45 -75.15 -7.85 -75.55 -8.15 -75.9 -8.7 -75.9 -9.25 -75.9 -9.55 -75.55 L-9.6 -75.5 Q-9.95 -75.2 -9.95 -74.65 M-11.45 -56.5 Q-12.0 -56.5 -12.3 -56.15 L-12.35 -56.1 -12.7 -55.25 Q-12.7 -54.7 -12.35 -54.4 -11.95 -54.0 -11.45 -54.0 -10.9 -54.0 -10.6 -54.35 L-10.55 -54.4 Q-10.2 -54.7 -10.2 -55.25 -10.2 -55.75 -10.6 -56.15 -10.9 -56.5 -11.45 -56.5 M-12.8 -56.65 Q-12.25 -57.2 -11.45 -57.2 -10.65 -57.2 -10.1 -56.65 -9.5 -56.05 -9.5 -55.25 -9.5 -54.45 -10.05 -53.9 L-10.1 -53.85 Q-10.65 -53.3 -11.45 -53.3 -12.25 -53.3 -12.85 -53.9 -13.4 -54.45 -13.4 -55.25 -13.4 -56.05 -12.85 -56.6 L-12.8 -56.65 M-15.5 -37.25 Q-14.95 -37.8 -14.15 -37.8 -13.35 -37.8 -12.8 -37.25 -12.2 -36.65 -12.2 -35.85 -12.2 -35.05 -12.75 -34.5 L-12.8 -34.45 Q-13.35 -33.9 -14.15 -33.9 -14.95 -33.9 -15.55 -34.5 -16.1 -35.05 -16.1 -35.85 -16.1 -36.65 -15.55 -37.2 L-15.5 -37.25 M-13.3 -36.75 Q-13.6 -37.1 -14.15 -37.1 L-15.0 -36.75 -15.05 -36.7 -15.4 -35.85 Q-15.4 -35.3 -15.05 -35.0 -14.65 -34.6 -14.15 -34.6 -13.6 -34.6 -13.3 -34.95 L-13.25 -35.0 Q-12.9 -35.3 -12.9 -35.85 -12.9 -36.35 -13.3 -36.75 M-17.7 -17.35 L-17.75 -17.3 Q-18.1 -17.0 -18.1 -16.45 -18.1 -15.9 -17.75 -15.6 -17.35 -15.2 -16.85 -15.2 -16.3 -15.2 -16.0 -15.55 L-15.95 -15.6 Q-15.6 -15.9 -15.6 -16.45 -15.6 -16.95 -16.0 -17.35 -16.3 -17.7 -16.85 -17.7 -17.4 -17.7 -17.7 -17.35 M-16.85 -18.4 Q-16.05 -18.4 -15.5 -17.85 -14.9 -17.25 -14.9 -16.45 -14.9 -15.65 -15.45 -15.1 L-15.5 -15.05 Q-16.05 -14.5 -16.85 -14.5 -17.65 -14.5 -18.25 -15.1 -18.8 -15.65 -18.8 -16.45 -18.8 -17.25 -18.25 -17.8 L-18.2 -17.85 Q-17.65 -18.4 -16.85 -18.4" fill="#b4b4b4" fill-rule="evenodd" stroke="none"/>
    <path d="M-4.25 -112.6 Q-4.6 -112.9 -4.6 -113.45 -4.6 -114.0 -4.25 -114.3 L-4.2 -114.35 -3.35 -114.7 Q-2.8 -114.7 -2.5 -114.35 -2.1 -113.95 -2.1 -113.45 -2.1 -112.9 -2.45 -112.6 L-2.5 -112.55 Q-2.8 -112.2 -3.35 -112.2 -3.85 -112.2 -4.25 -112.6 M-4.05 -114.4 L-4.0 -114.45 -4.05 -114.4 M-6.1 -95.3 Q-5.55 -95.3 -5.25 -94.95 -4.85 -94.55 -4.85 -94.05 -4.85 -93.5 -5.2 -93.2 L-5.25 -93.15 Q-5.55 -92.8 -6.1 -92.8 -6.6 -92.8 -7.0 -93.2 -7.35 -93.5 -7.35 -94.05 L-7.0 -94.9 -6.95 -94.95 Q-6.65 -95.3 -6.1 -95.3 M-6.8 -95.0 L-6.75 -95.05 -6.8 -95.0 M-9.4 -75.6 L-9.35 -75.65 -9.4 -75.6 M-11.45 -56.5 Q-10.9 -56.5 -10.6 -56.15 -10.2 -55.75 -10.2 -55.25 -10.2 -54.7 -10.55 -54.4 L-10.6 -54.35 Q-10.9 -54.0 -11.45 -54.0 -11.95 -54.0 -12.35 -54.4 -12.7 -54.7 -12.7 -55.25 L-12.35 -56.1 -12.3 -56.15 Q-12.0 -56.5 -11.45 -56.5 M-9.95 -74.65 Q-9.95 -75.2 -9.6 -75.5 L-9.55 -75.55 Q-9.25 -75.9 -8.7 -75.9 -8.15 -75.9 -7.85 -75.55 -7.45 -75.15 -7.45 -74.65 -7.45 -74.1 -7.8 -73.8 L-7.85 -73.75 Q-8.15 -73.4 -8.7 -73.4 -9.2 -73.4 -9.6 -73.8 -9.95 -74.1 -9.95 -74.65 M-12.15 -56.2 L-12.1 -56.25 -12.15 -56.2 M-13.3 -36.75 Q-12.9 -36.35 -12.9 -35.85 -12.9 -35.3 -13.25 -35.0 L-13.3 -34.95 Q-13.6 -34.6 -14.15 -34.6 -14.65 -34.6 -15.05 -35.0 -15.4 -35.3 -15.4 -35.85 L-15.05 -36.7 -15.0 -36.75 -14.15 -37.1 Q-13.6 -37.1 -13.3 -36.75 M-17.55 -17.4 L-17.5 -17.45 -17.55 -17.4 M-14.85 -36.8 L-14.8 -36.85 -14.85 -36.8 M-17.7 -17.35 Q-17.4 -17.7 -16.85 -17.7 -16.3 -17.7 -16.0 -17.35 -15.6 -16.95 -15.6 -16.45 -15.6 -15.9 -15.95 -15.6 L-16.0 -15.55 Q-16.3 -15.2 -16.85 -15.2 -17.35 -15.2 -17.75 -15.6 -18.1 -15.9 -18.1 -16.45 -18.1 -17.0 -17.75 -17.3 L-17.7 -17.35" fill="#ffffff" fill-rule="evenodd" stroke="none"/>
  </g>
</svg>
