<?xml version="1.0" encoding="UTF-8" standalone="no"?>
<svg xmlns:ffdec="https://www.free-decompiler.com/flash" xmlns:xlink="http://www.w3.org/1999/xlink" ffdec:objectType="shape" height="412.85px" width="412.85px" xmlns="http://www.w3.org/2000/svg">
  <g transform="matrix(1.0, 0.0, 0.0, 1.0, 6.0, 6.0)">
    <path d="M398.95 193.4 L398.55 194.0 398.65 200.4 398.8 201.05 Q399.0 201.4 399.65 201.4 L400.5 201.15 400.65 200.4 400.5 193.25 399.55 192.95 398.95 193.4 M397.95 179.75 L397.8 179.95 398.25 187.05 398.4 187.7 Q398.5 188.0 399.15 188.0 L399.7 187.7 400.25 186.95 399.75 180.45 399.55 179.85 Q399.3 179.55 398.65 179.55 L397.95 179.75 M397.2 166.3 Q396.9 166.3 396.65 166.65 L396.15 167.4 397.05 173.8 397.2 174.4 Q397.35 174.65 398.0 174.65 L398.85 174.5 399.05 174.3 398.15 167.1 398.0 166.55 397.2 166.3 M394.35 153.5 L393.7 154.3 395.0 160.6 395.15 161.15 Q395.3 161.4 395.95 161.4 L396.75 161.2 396.95 161.0 395.65 153.85 Q394.65 153.35 394.35 153.5 M390.85 140.55 L390.25 141.35 392.05 147.55 392.2 148.1 392.9 148.35 Q393.55 148.35 393.8 148.05 L394.05 147.45 392.15 140.75 390.85 140.55 M386.15 127.55 L385.95 127.65 Q385.9 128.2 386.2 129.2 L388.1 134.75 388.3 135.25 389.05 135.45 Q389.7 135.45 389.9 135.1 L390.1 134.5 387.8 128.0 387.65 127.6 Q387.55 127.4 386.9 127.4 L386.15 127.55 M376.2 103.3 L375.5 103.15 Q374.85 103.15 374.7 103.4 L374.45 104.05 374.55 104.6 377.65 110.3 377.85 110.65 378.6 110.8 Q379.25 110.8 379.4 110.4 L379.5 109.75 376.3 103.6 376.2 103.3 M385.05 122.8 L385.2 122.65 385.2 121.5 382.5 115.65 382.35 115.25 381.6 115.05 Q380.9 115.05 380.75 115.3 L380.6 116.15 Q382.15 121.7 384.3 122.95 L385.05 122.8 M367.55 91.85 L367.45 92.6 Q367.45 93.6 367.6 93.15 L371.05 98.6 371.2 98.95 371.9 99.05 372.75 98.9 372.9 98.1 372.75 97.55 369.25 92.05 367.6 91.8 367.55 91.85 M361.35 80.7 L360.75 80.6 359.85 80.8 359.6 81.5 359.8 82.2 363.7 87.45 363.85 87.75 364.55 87.85 365.25 87.75 365.35 87.65 Q365.5 87.85 365.5 86.85 L365.45 86.2 365.35 86.3 361.4 81.0 361.35 80.7 M338.3 56.4 L338.3 55.2 333.6 50.75 332.85 50.5 332.25 50.7 Q331.9 50.9 331.9 51.55 331.9 52.55 332.25 52.25 L336.9 56.65 337.05 56.85 337.65 56.9 338.3 56.4 M346.85 66.9 L347.45 66.95 348.1 66.5 348.2 65.3 343.75 60.55 343.65 60.35 343.05 60.25 342.15 60.4 Q342.0 60.5 342.0 61.25 342.0 62.25 342.3 61.95 L346.75 66.65 346.85 66.9 M351.15 71.1 L351.4 71.8 355.55 76.75 355.7 77.0 356.4 77.1 357.1 77.0 357.2 76.9 357.3 76.0 357.2 75.4 357.1 75.5 352.9 70.5 Q351.85 70.5 351.15 71.1 M328.55 46.35 L328.3 46.15 323.95 42.45 Q323.2 41.8 322.6 41.8 L321.9 41.9 321.95 41.95 321.7 42.9 322.1 43.6 326.3 47.25 Q327.0 47.9 327.55 47.9 L328.45 47.85 Q328.65 48.0 328.65 47.05 L328.55 46.35 M406.85 196.75 L406.85 200.4 406.85 202.9 406.75 208.05 406.55 212.2 405.9 221.45 405.1 228.65 Q396.6 296.2 346.4 346.4 285.95 406.85 200.45 406.85 114.9 406.85 54.45 346.4 4.25 296.2 -4.25 228.65 L-5.0 221.45 -5.7 212.2 -5.85 208.05 -5.95 202.9 -6.0 200.4 -5.95 196.75 Q-4.7 113.65 54.45 54.45 114.9 -6.0 200.45 -6.0 285.95 -6.0 346.4 54.45 405.55 113.65 406.85 196.75 M172.6 397.75 L172.35 396.95 171.75 396.8 165.35 395.85 Q164.2 395.85 164.2 396.85 164.2 397.5 164.45 397.65 L165.0 397.8 171.5 398.8 172.3 398.3 172.6 397.75 M185.9 399.0 L185.3 398.15 178.75 397.6 178.05 397.7 Q177.65 397.85 177.65 398.5 177.65 399.15 177.95 399.4 L178.55 399.6 185.15 400.15 Q186.0 399.45 185.9 399.0 M198.85 400.65 L199.55 400.6 199.4 399.45 198.9 398.65 192.3 398.5 191.65 398.65 Q191.25 398.85 191.25 399.5 191.25 400.1 191.4 400.25 L191.55 400.45 198.85 400.65 M211.95 398.75 L212.05 398.45 Q211.75 398.3 204.9 398.6 L204.25 398.8 Q203.9 399.0 203.9 399.65 203.9 400.35 204.15 400.5 L204.95 400.6 212.1 400.35 212.35 399.35 Q211.8 399.05 211.95 398.75 M225.75 398.45 L225.6 397.65 225.4 397.4 218.25 397.95 217.65 398.2 Q217.3 398.4 217.3 399.05 L217.5 399.8 217.65 399.95 224.85 399.35 225.45 399.25 Q225.75 399.1 225.75 398.45 M301.3 372.05 L301.25 371.75 Q300.85 371.75 295.0 375.3 L294.65 375.4 Q294.5 375.5 294.5 376.1 294.5 376.4 294.8 376.6 L295.6 377.15 301.65 373.75 302.0 373.65 302.1 372.95 302.05 372.25 301.95 372.1 301.3 372.05 M313.35 364.75 L312.5 364.6 Q311.9 364.6 311.2 365.15 L306.55 368.35 306.2 368.5 306.1 369.2 Q306.1 370.2 306.2 370.05 L306.25 370.15 307.05 370.2 Q308.05 370.2 307.6 370.05 L313.1 366.4 313.5 365.55 313.35 364.75 M270.2 388.35 L271.25 388.4 277.35 386.0 277.8 385.85 Q278.0 385.75 278.0 385.1 L277.75 384.25 277.0 384.05 270.55 386.55 Q269.8 387.25 270.2 388.35 M283.0 381.35 Q282.75 382.1 282.8 382.4 L283.45 383.25 289.7 380.35 290.15 380.2 290.3 379.4 290.05 378.55 289.2 378.45 283.0 381.35 M257.8 390.75 Q256.95 391.5 257.3 392.6 L258.35 392.65 264.55 390.75 265.05 390.65 265.3 389.9 Q265.3 389.2 265.1 389.0 L264.35 388.8 257.8 390.75 M251.85 392.7 L251.05 392.6 244.75 394.1 244.25 394.3 Q244.0 394.45 244.0 395.1 244.0 396.05 245.2 396.05 L251.55 394.55 252.05 394.35 252.3 393.5 Q252.3 392.85 251.85 392.7 M238.9 395.7 L238.7 395.5 231.55 396.45 231.0 396.7 Q230.7 396.95 230.7 397.6 230.7 398.2 230.9 398.35 L231.1 398.45 238.3 397.45 238.85 397.3 239.1 396.5 238.9 395.7 M158.45 394.55 L152.05 393.15 Q151.1 393.7 151.15 394.15 L151.6 395.1 158.05 396.5 Q159.25 396.5 159.25 395.5 L159.0 394.7 158.45 394.55 M139.0 389.5 L138.0 389.55 137.75 389.9 137.7 390.55 Q137.7 391.2 137.9 391.3 L138.4 391.4 145.1 393.35 145.75 393.25 145.95 392.3 Q145.8 391.7 145.25 391.4 L139.0 389.5 M125.0 385.95 Q125.15 386.55 125.65 386.85 L132.1 389.25 132.85 389.1 133.1 388.2 132.4 387.25 126.4 385.0 125.3 385.0 125.0 385.95 M113.7 379.4 L112.95 379.45 Q112.7 380.05 112.85 380.65 L113.15 381.3 119.55 384.2 120.3 384.1 120.6 383.2 Q120.45 382.6 119.95 382.25 L115.0 379.8 113.7 379.4 M100.85 373.5 Q100.5 374.1 101.2 374.85 106.9 378.1 107.3 378.2 L107.95 378.15 Q108.35 378.0 108.35 377.35 L108.2 376.55 107.85 376.35 102.2 373.15 Q102.65 373.05 101.65 373.05 101.15 373.05 100.85 373.5 M89.35 367.45 L89.65 367.6 95.7 371.35 96.5 371.2 96.65 370.35 96.55 369.65 96.2 369.5 91.6 366.3 Q90.85 365.8 90.25 365.8 L89.4 365.9 Q89.25 366.0 89.25 366.75 L89.35 367.45 M73.2 355.2 L73.1 355.3 73.75 355.4 74.65 355.3 Q74.85 355.55 74.85 354.55 L74.75 353.85 74.5 353.65 Q69.5 349.25 68.85 349.1 L68.15 349.2 67.9 350.15 68.25 350.85 73.2 355.2 M79.95 358.05 L78.55 357.95 78.3 358.95 84.4 363.7 85.25 363.55 Q85.45 363.75 85.45 362.75 L85.35 362.05 85.05 361.9 79.95 358.05 M32.9 309.3 L32.85 309.35 32.75 310.1 Q32.75 311.1 32.9 310.65 L36.65 316.05 36.8 316.35 37.5 316.45 38.2 316.35 38.35 316.25 38.45 315.4 38.35 314.75 38.25 314.85 34.55 309.55 33.7 309.15 32.9 309.3 M30.7 305.1 L30.85 304.1 27.35 298.1 27.2 297.8 26.5 297.65 Q25.85 297.65 25.7 297.9 L25.5 298.55 25.6 299.1 29.0 304.8 29.15 305.15 29.85 305.25 30.7 305.1 M60.25 340.6 L60.15 340.4 59.55 340.3 Q59.0 340.3 58.9 340.8 L58.85 342.0 63.05 346.15 63.2 346.35 63.8 346.4 64.65 346.3 64.75 345.4 64.6 344.7 64.45 344.7 60.25 340.6 M51.1 330.9 L51.05 330.65 50.45 330.55 49.6 330.75 Q49.5 330.85 49.35 331.5 L49.6 332.2 54.05 337.1 54.15 337.35 54.75 337.4 55.65 337.3 55.75 336.45 55.65 335.75 55.5 335.75 51.1 330.9 M42.45 320.2 L41.85 320.1 40.95 320.3 40.7 321.0 Q41.45 324.0 43.7 325.9 45.25 327.2 45.9 327.2 L46.6 327.1 46.7 327.0 46.8 326.1 46.7 325.5 46.6 325.6 42.5 320.5 42.45 320.2 M20.1 285.5 L19.35 285.7 19.15 285.85 Q19.1 286.45 19.55 287.4 L22.2 292.85 22.4 293.2 23.15 293.35 Q23.8 293.35 23.95 292.95 L24.05 292.3 21.0 286.1 20.85 285.7 20.1 285.5 M15.95 279.75 Q16.7 280.8 17.2 281.1 L18.05 280.85 18.2 280.05 15.6 273.65 14.55 273.45 Q14.2 273.5 13.65 274.0 14.55 277.7 15.95 279.75 M9.25 260.85 L9.2 261.6 11.25 267.8 11.45 268.3 Q11.6 268.5 12.2 268.5 L13.05 268.3 13.25 267.5 11.1 261.0 10.9 260.55 10.05 260.35 Q9.4 260.35 9.25 260.85 M9.25 254.7 L7.6 248.0 Q7.25 247.25 6.45 247.3 5.65 247.35 5.65 248.25 5.65 253.05 6.8 254.8 7.35 255.6 8.1 255.6 L9.0 255.3 9.25 254.7 M4.9 234.8 Q3.9 234.25 3.6 234.4 L2.95 235.15 4.15 241.55 4.3 242.1 5.1 242.35 Q6.1 242.35 6.1 241.15 L4.9 234.8 M1.9 220.95 L1.2 221.65 1.9 228.15 2.05 228.75 2.85 229.0 3.7 228.85 3.9 228.65 3.2 221.45 Q2.35 220.75 1.9 220.95 M2.25 207.45 L1.3 207.15 0.7 207.6 0.3 208.2 0.6 214.65 0.75 215.3 Q0.85 215.6 1.5 215.6 L2.35 215.45 2.6 215.25 2.25 207.45 M2.25 194.65 L1.05 193.95 0.25 194.6 0.2 200.8 0.3 201.9 0.6 202.15 1.2 202.2 1.95 202.05 2.15 201.9 2.25 194.65 M1.85 180.4 L1.05 180.9 0.55 187.5 1.2 188.3 1.7 188.55 2.4 188.45 2.5 188.3 3.05 181.1 Q2.3 180.35 1.85 180.4 M3.6 166.55 L2.8 166.8 2.65 167.35 1.75 173.85 Q2.55 174.95 2.85 174.95 L3.65 174.7 3.75 174.1 4.65 167.65 4.25 166.9 Q4.0 166.55 3.6 166.55 M5.5 153.45 L5.35 153.75 4.55 156.95 3.9 160.7 Q3.9 161.45 4.05 161.55 L4.9 161.65 5.7 161.4 5.85 160.85 7.15 154.55 Q7.15 153.35 6.2 153.35 L5.5 153.45 M8.9 140.45 L8.65 140.9 6.85 147.2 Q7.45 148.5 7.95 148.5 L8.7 148.25 8.8 147.7 10.6 141.15 10.5 140.45 9.7 140.25 8.9 140.45 M13.05 128.05 L10.75 134.65 10.85 135.35 11.85 135.6 12.7 134.9 14.95 128.4 14.85 127.7 13.7 127.65 Q13.25 127.8 13.05 128.05 M19.0 115.25 Q18.5 115.35 18.3 115.6 L15.55 122.0 15.65 122.7 16.6 123.0 Q17.75 122.4 18.65 120.0 L20.25 116.1 20.15 115.35 19.0 115.25 M21.3 109.7 L21.4 110.35 Q21.6 110.75 22.25 110.75 L23.0 110.6 23.2 110.2 26.4 104.15 25.6 103.45 24.55 103.5 21.3 109.7 M49.7 71.05 L49.6 70.35 47.95 70.45 44.15 74.8 Q43.5 75.55 43.5 76.15 43.5 77.15 43.65 76.85 L43.65 76.95 44.4 77.05 45.1 76.95 45.3 76.7 49.05 72.15 49.7 71.05 M58.8 61.85 L58.85 61.25 Q58.85 60.7 58.35 60.6 L57.15 60.55 52.65 65.3 52.35 66.0 52.55 66.65 Q52.75 66.95 53.4 66.95 54.4 66.95 54.1 66.65 L58.6 61.95 58.8 61.85 M68.85 50.75 L68.0 50.6 Q67.4 50.6 66.65 51.3 L62.45 55.35 62.15 56.05 62.3 56.7 Q62.5 57.05 63.15 57.05 64.15 57.05 63.85 56.8 L68.65 52.35 68.9 52.25 68.95 51.65 68.85 50.75 M29.7 98.85 L29.8 98.5 32.95 93.45 33.45 92.5 33.3 91.7 32.45 91.55 31.75 91.65 31.65 91.95 28.1 97.45 28.55 98.6 29.0 98.95 29.7 98.85 M39.4 80.9 L35.6 86.2 35.45 86.2 35.6 87.6 35.65 87.7 36.4 87.75 37.65 87.55 41.2 81.55 41.1 80.7 40.05 80.5 39.4 80.9 M79.05 42.05 L77.65 42.15 Q74.55 44.05 73.05 45.65 72.2 46.6 72.2 46.95 72.2 47.55 72.35 47.7 L72.45 47.9 73.35 48.0 Q74.35 48.0 73.85 47.8 L78.9 43.7 79.15 43.55 79.25 42.85 79.15 42.15 79.05 42.05 M89.95 34.05 Q90.1 33.9 89.1 33.9 88.5 33.9 87.8 34.45 L83.2 37.85 82.9 37.9 82.8 38.5 Q82.8 39.5 83.0 39.55 L83.85 39.65 Q84.85 39.65 84.4 39.45 L89.7 35.7 90.1 34.85 89.95 34.05 M100.55 26.6 Q99.95 26.6 99.2 27.1 L94.45 30.1 Q94.2 30.2 94.1 30.25 L94.0 30.95 Q94.0 31.95 94.1 31.8 L94.15 31.9 94.95 31.95 Q95.95 31.95 95.5 31.8 L101.0 28.4 101.4 28.3 101.5 27.6 101.4 26.75 100.55 26.6 M106.2 23.25 L106.15 24.35 106.8 25.1 112.85 22.0 113.3 21.85 113.45 21.05 113.2 20.2 112.35 20.1 Q111.95 20.2 106.2 23.25 M125.35 14.6 L124.25 14.6 118.25 17.2 117.85 17.4 Q117.7 17.55 117.7 18.15 117.7 18.85 117.95 19.0 L118.7 19.1 125.0 16.45 Q125.75 15.7 125.35 14.6 M137.55 11.85 L137.85 10.85 Q137.8 10.5 137.35 9.9 L130.8 12.05 130.35 12.25 130.15 13.0 Q130.15 13.65 130.5 13.85 L131.15 14.05 137.55 11.85 M143.15 8.15 Q142.95 8.3 142.95 8.95 L143.15 9.75 143.85 9.85 150.4 8.15 150.9 7.95 151.15 7.1 Q151.15 6.45 150.7 6.3 L149.9 6.2 143.65 7.9 143.15 8.15 M163.45 5.4 Q164.8 3.45 163.3 3.45 158.4 3.45 156.7 4.45 155.95 4.9 155.95 5.6 L156.15 6.4 156.35 6.6 163.45 5.4 M176.6 3.5 Q177.3 2.6 177.15 2.2 L176.4 1.5 169.95 2.3 169.4 2.55 Q169.1 2.8 169.1 3.45 L169.3 4.2 169.5 4.3 176.6 3.5 M190.4 1.2 L189.85 0.45 183.4 0.85 182.8 1.1 Q182.45 1.3 182.45 1.95 L182.65 2.7 182.8 2.85 190.65 2.4 190.4 1.2 M204.85 2.2 Q205.4 0.9 205.15 0.6 L200.45 0.2 196.5 0.4 Q195.85 0.55 195.85 1.3 L196.05 2.05 196.2 2.2 204.85 2.2 M217.55 2.85 Q218.3 2.05 218.25 1.65 L217.7 0.85 211.2 0.45 210.55 0.6 Q210.15 0.75 210.15 1.4 210.15 2.0 210.3 2.2 L210.4 2.4 217.55 2.85 M231.75 3.2 L231.2 2.35 224.7 1.55 224.0 1.65 Q223.6 1.8 223.6 2.45 223.6 3.1 223.9 3.35 L224.5 3.55 230.9 4.35 Q231.85 3.65 231.75 3.2 M244.05 6.65 Q245.25 6.65 245.25 5.65 L245.15 4.95 244.85 4.85 241.6 4.1 237.9 3.5 237.05 3.65 236.95 4.5 Q236.95 5.15 237.2 5.3 L237.75 5.45 244.05 6.65 M258.1 9.8 Q258.4 8.4 257.6 7.95 L251.3 6.25 250.55 6.35 Q250.1 6.5 250.1 7.15 L250.3 8.0 250.8 8.2 257.05 9.85 258.1 9.8 M276.3 16.5 L281.3 18.8 Q282.05 19.15 282.6 19.15 L283.3 19.1 Q283.75 17.75 283.05 17.25 L276.7 14.55 276.0 14.65 275.65 15.6 Q275.8 16.2 276.3 16.5 M264.25 10.0 L263.25 10.05 263.0 10.4 262.95 11.05 Q262.95 11.7 263.15 11.8 L263.65 11.9 270.15 14.1 270.9 13.95 271.15 13.05 Q270.9 12.45 270.45 12.1 L264.25 10.0 M311.25 34.0 L311.1 34.05 311.05 34.1 310.95 34.85 311.05 35.55 311.35 35.7 317.1 39.6 317.95 39.45 Q318.15 39.65 318.15 38.65 L318.05 37.95 317.75 37.8 312.5 34.05 Q312.95 33.9 311.95 33.9 L311.25 34.0 M299.8 28.35 L300.15 28.45 306.2 32.0 307.0 31.85 307.15 31.0 307.05 30.3 306.7 30.15 301.2 26.75 299.95 27.2 Q299.7 27.35 299.7 27.65 L299.8 28.35 M288.1 21.4 L288.4 22.05 294.55 25.15 295.2 25.1 Q295.6 24.95 295.6 24.3 L295.45 23.5 295.1 23.3 Q292.6 22.0 290.25 20.6 289.5 20.15 288.95 20.15 L288.2 20.2 Q287.95 20.8 288.1 21.4 M324.3 357.35 L324.2 356.7 324.1 356.6 322.7 356.7 317.55 360.65 317.25 360.7 317.15 361.3 Q317.15 362.3 317.35 362.35 L318.2 362.45 Q319.2 362.45 318.75 362.25 L323.95 358.25 324.2 358.05 324.3 357.35 M333.65 347.65 L332.95 347.9 328.0 352.25 327.65 352.95 327.9 353.9 328.8 354.0 Q329.8 354.0 329.3 353.75 L334.3 349.4 Q334.3 348.5 333.65 347.65 M353.2 329.7 L353.1 328.8 351.45 328.9 347.2 333.75 346.9 334.45 347.1 335.1 Q347.3 335.4 347.95 335.4 348.95 335.4 348.65 335.1 L352.55 330.95 353.2 329.7 M343.1 338.45 Q342.85 338.4 342.05 339.15 L338.05 343.1 337.75 343.8 337.9 344.45 Q338.1 344.8 338.75 344.8 339.75 344.8 339.45 344.55 L343.6 340.55 344.1 339.45 Q344.1 338.8 343.75 338.6 L343.1 338.45 M361.6 318.35 L360.6 318.15 Q359.95 318.45 355.95 323.6 L355.75 323.7 355.7 324.3 Q355.7 325.3 355.85 325.0 L355.85 325.1 356.6 325.2 357.3 325.1 357.5 324.85 361.1 320.5 Q361.7 319.8 361.7 319.25 L361.6 318.35 M369.3 307.3 L368.45 307.2 367.75 307.3 367.6 307.6 Q364.0 312.95 363.85 313.5 L364.0 314.3 364.05 314.4 364.8 314.5 369.45 308.15 369.4 307.45 369.3 307.3 M376.45 296.8 L375.65 296.1 374.6 296.15 Q371.3 301.8 371.2 302.35 L371.35 303.15 371.4 303.25 372.2 303.3 372.9 303.2 373.0 302.85 376.45 296.8 M381.45 283.9 Q380.95 284.0 380.75 284.25 L377.75 290.45 377.85 291.1 Q378.05 291.5 378.7 291.5 L379.45 291.35 379.65 290.95 382.7 284.75 382.6 284.0 381.45 283.9 M387.8 271.55 Q386.5 271.2 386.0 271.9 L383.5 278.35 383.6 279.05 384.55 279.35 385.45 278.7 387.9 272.25 387.8 271.55 M392.25 259.5 L392.15 258.8 390.95 258.85 Q390.5 259.0 390.3 259.25 L388.25 265.8 388.35 266.5 389.35 266.75 390.2 266.05 392.25 259.5 M393.9 245.8 L393.7 246.0 392.2 252.55 392.3 253.35 Q392.45 253.8 393.1 253.8 L393.95 253.55 394.15 253.05 395.65 246.8 Q395.65 245.6 394.7 245.6 L393.9 245.8 M397.1 232.75 Q396.9 232.75 396.15 233.2 L395.1 239.55 Q395.1 240.7 396.05 240.7 L396.85 240.45 397.05 239.9 398.15 233.5 Q397.5 232.7 397.1 232.75 M399.75 219.3 Q399.55 218.9 398.9 218.9 398.2 218.9 398.0 219.8 L397.1 226.25 Q397.9 227.35 398.2 227.35 L399.0 227.1 399.1 226.5 399.8 220.0 399.75 219.3 M399.65 205.4 Q399.0 205.4 398.8 205.75 L398.6 206.4 398.3 212.85 398.9 213.6 399.45 213.9 Q400.1 213.9 400.2 213.6 L400.3 212.95 400.6 206.45 400.55 205.75 400.3 205.5 399.65 205.4" fill="#e9e9e9" fill-rule="evenodd" stroke="none"/>
  </g>
</svg>
