<?xml version="1.0" encoding="UTF-8" standalone="no"?>
<svg xmlns:ffdec="https://www.free-decompiler.com/flash" xmlns:xlink="http://www.w3.org/1999/xlink" ffdec:objectType="shape" height="87.75px" width="86.65px" xmlns="http://www.w3.org/2000/svg">
  <g transform="matrix(1.0, 0.0, 0.0, 1.0, 40.0, 55.05)">
    <path d="M-2.3 16.85 L0.4 16.9 0.75 17.05 0.9 17.4 2.2 21.8 2.3 21.9 2.3 21.95 2.45 22.5 2.2 22.0 4.35 26.95 5.35 29.0 5.5 29.35 5.35 29.85 5.05 30.15 Q2.9 31.0 0.8 29.5 L0.15 32.2 -0.1 32.6 -0.5 32.7 Q-3.6 32.25 -6.15 29.3 L-7.55 31.8 -7.85 32.15 -8.35 32.1 Q-11.25 30.05 -13.45 26.95 L-18.4 31.0 Q-19.85 29.25 -20.2 27.0 L-20.5 28.4 -20.7 28.75 -21.1 28.9 -21.5 28.85 Q-23.75 27.55 -24.35 24.9 L-26.6 26.0 -27.05 26.05 -27.4 25.8 Q-29.5 22.9 -29.55 19.0 L-32.3 19.4 -32.75 19.3 -33.05 18.9 Q-34.0 15.2 -33.75 11.5 L-37.3 10.45 -37.65 10.2 -37.8 9.8 Q-37.65 5.9 -36.4 3.15 L-34.9 3.15 Q-36.25 5.65 -36.45 9.3 L-32.85 10.4 -32.7 10.45 -32.6 10.45 -32.5 10.65 Q-32.3 10.85 -32.35 11.1 L-32.4 11.25 Q-32.65 14.65 -31.9 17.95 L-28.95 17.55 -28.6 17.65 Q-28.35 17.7 -28.25 17.85 L-28.2 18.25 Q-28.35 21.9 -26.65 24.55 L-24.15 23.3 -23.75 23.25 -23.35 23.45 -23.15 23.8 Q-22.9 25.9 -21.6 27.15 L-20.15 23.95 -18.0 28.85 -13.6 25.35 -13.55 25.25 -13.45 25.25 -13.25 25.25 Q-13.0 25.2 -12.85 25.5 L-12.8 25.65 Q-10.8 28.45 -8.25 30.4 L-6.7 27.6 -6.4 27.4 -6.1 27.3 -5.8 27.55 Q-3.55 30.5 -0.85 31.15 L-0.05 28.1 0.15 27.7 Q0.25 27.5 0.5 27.5 0.65 27.5 0.85 27.65 2.35 29.05 3.9 28.9 L3.0 26.35 1.55 23.6 -3.1 17.9 -2.3 16.85 M-18.75 14.6 L-16.65 16.85 Q-16.5 17.05 -16.5 17.3 L-16.5 17.45 -18.45 20.05 -18.2 20.15 -17.8 20.2 -17.55 20.2 -15.55 20.0 Q-16.2 18.8 -16.45 17.35 L-15.45 16.0 Q-15.25 18.2 -14.0 20.1 L-13.8 20.6 -13.95 21.05 -14.35 21.35 -18.1 21.7 -18.45 21.65 -18.5 21.65 -19.35 21.45 -19.4 21.4 -19.5 21.5 -19.35 22.2 -20.05 21.9 -20.05 14.6 -18.75 14.6" fill="#726f64" fill-rule="evenodd" stroke="none"/>
    <path d="M-34.9 3.15 L-24.95 3.15 -24.95 7.55 -19.6 7.55 -20.7 9.75 -18.15 11.95 -17.9 12.35 -18.0 12.8 -18.9 14.4 -18.75 14.6 -20.05 14.6 -20.05 21.9 -19.35 22.2 -19.5 21.5 -19.4 21.4 -19.35 21.45 -18.5 21.65 -18.45 21.65 -18.1 21.7 -14.35 21.35 -13.95 21.05 -13.8 20.6 -14.0 20.1 Q-15.25 18.2 -15.45 16.0 L-13.45 13.25 -13.4 13.2 -13.35 13.25 -10.65 16.55 -10.6 16.6 -7.35 12.2 -6.6 14.75 -3.65 14.35 -3.25 14.45 -3.05 14.9 -2.55 16.9 -2.3 16.85 -3.1 17.9 1.55 23.6 3.0 26.35 3.9 28.9 Q2.35 29.05 0.85 27.65 0.65 27.5 0.5 27.5 0.25 27.5 0.15 27.7 L-0.05 28.1 -0.85 31.15 Q-3.55 30.5 -5.8 27.55 L-6.1 27.3 -6.4 27.4 -6.7 27.6 -8.25 30.4 Q-10.8 28.45 -12.8 25.65 L-12.85 25.5 Q-13.0 25.2 -13.25 25.25 L-13.45 25.25 -13.55 25.25 -13.6 25.35 -18.0 28.85 -20.15 23.95 -21.6 27.15 Q-22.9 25.9 -23.15 23.8 L-23.35 23.45 -23.75 23.25 -24.15 23.3 -26.65 24.55 Q-28.35 21.9 -28.2 18.25 L-28.25 17.85 Q-28.35 17.7 -28.6 17.65 L-28.95 17.55 -31.9 17.95 Q-32.65 14.65 -32.4 11.25 L-32.35 11.1 Q-32.3 10.85 -32.5 10.65 L-32.6 10.45 -32.7 10.45 -32.85 10.4 -36.45 9.3 Q-36.25 5.65 -34.9 3.15 M-16.5 17.45 L-16.45 17.35 Q-16.2 18.8 -15.55 20.0 L-17.55 20.2 -17.8 20.2 -18.2 20.15 -18.45 20.05 -16.5 17.45" fill="#a39f90" fill-rule="evenodd" stroke="none"/>
    <path d="M-33.95 -28.85 L-33.75 -29.35 Q-33.6 -29.9 -33.85 -29.85 L-33.95 -28.85 M-1.7 25.95 Q5.0 27.1 12.45 24.9 20.0 22.7 26.3 17.55 41.05 5.55 41.05 -14.45 41.05 -18.55 39.45 -24.05 37.35 -31.15 33.45 -36.9 22.5 -53.0 1.55 -53.0 -5.55 -53.0 -15.9 -49.0 -26.85 -44.8 -26.85 -41.05 -26.85 -39.0 -28.25 -36.75 L-31.5 -32.45 Q-36.55 -25.75 -37.75 -17.6 L-37.9 -15.25 -37.95 -11.7 Q-38.2 -2.45 -31.8 7.6 -24.7 18.75 -13.55 23.2 -9.9 24.6 -6.75 25.25 L-1.7 25.95 M43.1 -13.5 Q43.1 3.7 30.95 15.9 18.75 28.05 1.55 28.05 -15.65 28.05 -27.8 15.9 -40.0 3.7 -40.0 -13.5 -40.0 -30.7 -27.8 -42.85 -15.65 -55.05 1.55 -55.05 18.75 -55.05 30.95 -42.85 43.1 -30.7 43.1 -13.5" fill="#a46637" fill-rule="evenodd" stroke="none"/>
    <path d="M-37.75 -17.6 Q-36.55 -25.75 -31.5 -32.45 L-28.25 -36.75 Q-26.85 -39.0 -26.85 -41.05 -26.85 -44.8 -15.9 -49.0 -5.55 -53.0 1.55 -53.0 22.5 -53.0 33.45 -36.9 37.35 -31.15 39.45 -24.05 41.05 -18.55 41.05 -14.45 41.05 5.55 26.3 17.55 20.0 22.7 12.45 24.9 5.0 27.1 -1.7 25.95 8.45 25.1 18.45 19.6 34.2 10.95 34.2 -4.45 32.5 -9.9 31.85 -11.05 L29.55 -9.05 Q29.35 -8.8 29.1 -8.8 25.95 -10.6 25.8 -10.6 25.25 -10.6 25.05 -11.2 L24.6 -13.15 23.55 -13.4 21.15 -12.6 19.4 -12.2 16.75 -12.4 16.6 -12.6 Q16.45 -12.75 16.45 -13.35 L17.5 -14.7 17.85 -15.0 2.35 -17.15 -17.25 -18.85 -28.85 -18.5 -37.75 -17.6" fill="#e7a867" fill-rule="evenodd" stroke="none"/>
    <path d="M-1.7 25.95 L-6.75 25.25 Q-9.9 24.6 -13.55 23.2 -24.7 18.75 -31.8 7.6 -38.2 -2.45 -37.95 -11.7 L-37.9 -15.25 -37.75 -17.6 -28.85 -18.5 -17.25 -18.85 2.35 -17.15 17.85 -15.0 17.5 -14.7 16.45 -13.35 Q16.45 -12.75 16.6 -12.6 L16.75 -12.4 19.4 -12.2 21.15 -12.6 23.55 -13.4 24.6 -13.15 25.05 -11.2 Q25.25 -10.6 25.8 -10.6 25.95 -10.6 29.1 -8.8 29.35 -8.8 29.55 -9.05 L31.85 -11.05 Q32.5 -9.9 34.2 -4.45 34.2 10.95 18.45 19.6 8.45 25.1 -1.7 25.95 M-23.2 -13.4 L-27.9 -13.05 Q-27.95 -8.4 -27.45 -3.75 -26.9 1.65 -24.45 6.6 -21.85 11.75 -16.95 15.05 -12.6 17.95 -7.65 20.05 -1.65 22.7 4.7 20.85 10.25 19.1 14.45 14.9 19.5 9.85 22.75 3.6 25.4 -1.45 26.15 -7.1 L22.0 -8.5 Q16.65 -10.15 11.05 -10.65 L-0.05 -12.35 -12.0 -12.7 -23.2 -13.4" fill="#f4bb83" fill-rule="evenodd" stroke="none"/>
    <path d="M-23.2 -13.4 L-12.0 -12.7 -0.05 -12.35 11.05 -10.65 Q16.65 -10.15 22.0 -8.5 L26.15 -7.1 Q25.4 -1.45 22.75 3.6 19.5 9.85 14.45 14.9 10.25 19.1 4.7 20.85 -1.65 22.7 -7.65 20.05 -12.6 17.95 -16.95 15.05 -21.85 11.75 -24.45 6.6 -26.9 1.65 -27.45 -3.75 -27.95 -8.4 -27.9 -13.05 L-23.2 -13.4" fill="#f5c89d" fill-rule="evenodd" stroke="none"/>
    <path d="M30.4 -6.4 L30.45 -6.65 29.55 -6.35 29.1 -6.3 Q28.85 -6.4 28.7 -6.6 L28.55 -7.0 Q28.5 -8.8 28.9 -10.85 27.55 -10.0 26.8 -8.1 L26.45 -7.7 25.9 -7.65 Q25.6 -7.75 25.45 -8.0 24.25 -9.9 24.8 -12.45 21.0 -10.5 17.2 -12.05 16.9 -12.15 16.8 -12.4 L16.75 -12.9 17.0 -13.35 Q19.5 -15.2 20.6 -17.05 L23.95 -16.35 21.9 -16.35 21.15 -15.25 20.25 -14.15 19.05 -13.05 Q22.0 -12.45 24.95 -14.3 L25.65 -14.8 26.1 -14.95 26.55 -14.8 26.85 -14.4 26.85 -14.2 26.8 -13.9 Q26.0 -11.9 26.25 -10.3 27.55 -12.3 29.7 -12.85 L30.2 -12.8 30.6 -12.45 30.65 -11.95 Q30.15 -9.85 30.1 -8.1 L30.8 -8.35 32.45 -8.95 34.85 -9.9 35.2 -9.95 35.55 -9.8 Q38.25 -7.8 38.95 -4.65 L40.8 -6.4 41.3 -7.0 41.55 -7.35 41.95 -7.95 42.25 -9.0 Q42.3 -9.75 41.75 -10.3 L41.85 -10.25 39.15 -12.2 Q42.6 -10.85 43.8 -9.55 L43.8 -9.5 Q46.45 -5.95 46.65 0.1 L46.5 0.55 46.1 0.85 42.1 2.0 Q42.4 6.15 41.35 10.25 L41.0 10.7 40.5 10.8 37.45 10.4 Q37.4 14.75 35.05 17.95 L34.65 18.25 34.15 18.2 31.65 16.95 Q30.95 19.9 28.45 21.35 L28.0 21.45 27.55 21.25 27.35 20.85 Q26.8 18.1 25.85 15.35 L26.1 15.75 26.55 16.5 26.55 16.45 28.55 19.45 Q30.0 18.1 30.3 15.75 L30.5 15.35 Q30.7 15.15 30.95 15.1 L31.4 15.2 34.2 16.55 Q36.1 13.6 35.9 9.55 L36.0 9.1 36.35 8.85 36.75 8.75 40.05 9.2 Q40.9 5.5 40.6 1.7 L40.55 1.55 40.7 1.05 40.85 0.85 40.95 0.8 41.1 0.75 45.15 -0.45 Q44.9 -4.6 43.35 -7.4 L43.3 -7.25 Q42.25 -5.25 38.85 -2.65 38.65 -2.5 38.35 -2.5 38.05 -2.5 37.9 -2.7 L37.65 -3.15 Q37.35 -6.4 35.0 -8.35 L32.1 -7.2 32.0 -6.85 30.4 -6.4" fill="#726f64" fill-rule="evenodd" stroke="none"/>
    <path d="M30.4 -6.4 L32.0 -6.85 32.1 -7.2 35.0 -8.35 Q37.35 -6.4 37.65 -3.15 L37.9 -2.7 Q38.05 -2.5 38.35 -2.5 38.65 -2.5 38.85 -2.65 42.25 -5.25 43.3 -7.25 L43.35 -7.4 Q44.9 -4.6 45.15 -0.45 L41.1 0.75 40.95 0.8 40.85 0.85 40.7 1.05 40.55 1.55 40.6 1.7 Q40.9 5.5 40.05 9.2 L36.75 8.75 36.35 8.85 36.0 9.1 35.9 9.55 Q36.1 13.6 34.2 16.55 L31.4 15.2 30.95 15.1 Q30.7 15.15 30.5 15.35 L30.3 15.75 Q30.0 18.1 28.55 19.45 L26.55 16.45 26.55 16.5 26.1 15.75 26.05 14.15 26.2 13.75 Q26.35 13.5 26.5 13.5 26.7 13.5 28.3 14.65 L28.25 11.95 Q28.3 9.95 29.2 9.95 30.15 9.95 32.95 11.35 L33.45 9.7 33.55 8.0 Q33.05 6.85 33.35 6.35 33.85 5.5 37.95 5.75 L38.75 5.7 Q38.85 3.85 39.2 2.15 L39.45 -0.4 Q37.8 0.05 36.75 1.0 L35.95 1.0 35.55 -3.6 Q35.15 -6.6 34.05 -6.6 33.25 -6.6 32.65 -6.15 L31.9 -5.75 31.8 -5.75 31.75 -5.55 31.45 -5.05 28.5 -3.2 28.3 -3.05 27.55 -3.15 26.1 -3.15 26.15 -3.25 26.45 -3.65 30.35 -6.15 30.4 -6.35 30.4 -6.4 M39.15 -12.2 L41.85 -10.25 41.75 -10.3 Q42.3 -9.75 42.25 -9.0 L41.95 -7.95 41.55 -7.35 41.3 -7.0 40.8 -6.4 Q38.0 -9.3 36.35 -10.45 34.9 -11.45 31.85 -12.55 L26.85 -14.05 26.85 -14.2 26.85 -14.4 26.55 -14.8 26.1 -14.95 25.65 -14.8 24.95 -14.3 21.3 -14.3 20.25 -14.15 21.15 -15.25 21.9 -16.35 23.95 -16.35 31.2 -14.7 Q36.05 -13.45 39.15 -12.2" fill="#a39f90" fill-rule="evenodd" stroke="none"/>
    <path d="M26.1 15.75 L25.85 15.35 25.55 15.15 25.6 14.7 25.25 13.75 27.2 12.05 Q27.0 10.8 27.1 10.1 27.2 8.75 30.25 8.75 L31.85 9.05 32.65 9.05 32.9 8.6 Q32.9 8.05 31.2 4.65 32.45 4.0 34.3 3.85 L35.7 3.5 Q35.7 3.05 34.4 1.8 L32.35 0.4 33.65 -0.35 Q34.45 -0.8 34.45 -1.15 34.45 -1.75 32.25 -2.5 30.5 -3.15 28.5 -3.2 L31.45 -5.05 31.75 -5.55 31.8 -5.75 31.9 -5.75 32.65 -6.15 Q33.25 -6.6 34.05 -6.6 35.15 -6.6 35.55 -3.6 L35.95 1.0 36.75 1.0 Q37.8 0.05 39.45 -0.4 L39.2 2.15 Q38.85 3.85 38.75 5.7 L37.95 5.75 Q33.85 5.5 33.35 6.35 33.05 6.85 33.55 8.0 L33.45 9.7 32.95 11.35 Q30.15 9.95 29.2 9.95 28.3 9.95 28.25 11.95 L28.3 14.65 Q26.7 13.5 26.5 13.5 26.35 13.5 26.2 13.75 L26.05 14.15 26.1 15.75 M40.8 -6.4 L38.95 -4.65 Q38.25 -7.8 35.55 -9.8 L35.2 -9.95 34.85 -9.9 32.45 -8.95 30.8 -8.35 30.1 -8.1 Q30.15 -9.85 30.65 -11.95 L30.6 -12.45 30.2 -12.8 29.7 -12.85 Q27.55 -12.3 26.25 -10.3 26.0 -11.9 26.8 -13.9 L26.85 -14.2 26.85 -14.05 31.85 -12.55 Q34.9 -11.45 36.35 -10.45 38.0 -9.3 40.8 -6.4 M24.95 -14.3 Q22.0 -12.45 19.05 -13.05 L20.25 -14.15 21.3 -14.3 24.95 -14.3 M26.1 -3.15 L27.55 -3.15 28.3 -3.05 28.35 -3.05 27.85 -2.75 29.15 -0.05 29.2 0.4 28.95 0.85 26.15 3.25 27.1 5.0 27.2 5.45 27.05 5.85 24.5 8.65 Q24.25 9.65 24.85 12.55 L24.95 13.05 22.95 8.85 22.85 8.45 23.05 8.0 25.55 5.25 24.55 3.45 24.45 2.95 Q24.5 2.65 24.7 2.5 L27.55 0.05 26.2 -2.7 26.1 -3.15" fill="#ccc8bb" fill-rule="evenodd" stroke="none"/>
    <path d="M28.3 -3.05 L28.5 -3.2 Q30.5 -3.15 32.25 -2.5 34.45 -1.75 34.45 -1.15 34.45 -0.8 33.65 -0.35 L32.35 0.4 34.4 1.8 Q35.7 3.05 35.7 3.5 L34.3 3.85 Q32.45 4.0 31.2 4.65 32.9 8.05 32.9 8.6 L32.65 9.05 31.85 9.05 30.25 8.75 Q27.2 8.75 27.1 10.1 27.0 10.8 27.2 12.05 L25.25 13.75 25.0 13.15 24.95 13.15 24.95 13.05 24.85 12.55 Q24.25 9.65 24.5 8.65 L27.05 5.85 27.2 5.45 27.1 5.0 26.15 3.25 28.95 0.85 29.2 0.4 29.15 -0.05 27.85 -2.75 28.35 -3.05 28.3 -3.05" fill="#eeede8" fill-rule="evenodd" stroke="none"/>
  </g>
</svg>
