<?xml version="1.0" encoding="UTF-8" standalone="no"?>
<svg xmlns:ffdec="https://www.free-decompiler.com/flash" xmlns:xlink="http://www.w3.org/1999/xlink" ffdec:objectType="shape" height="18.25px" width="20.75px" xmlns="http://www.w3.org/2000/svg">
  <g transform="matrix(1.0, 0.0, 0.0, 1.0, 7.45, 3.3)">
    <path d="M4.05 -0.7 L3.3 -0.1 Q3.4 -0.75 3.85 -0.9 L4.05 -0.7 M5.05 -0.35 L5.7 -1.05 5.8 -0.95 5.65 -0.35 5.05 -0.35 6.05 0.4 5.8 0.75 5.4 0.8 4.8 0.6 5.05 -0.35 M4.2 9.6 L5.15 8.85 Q6.45 8.2 7.45 8.3 L4.2 9.6 M5.65 10.6 Q6.7 10.1 7.6 9.9 L8.5 9.8 6.75 10.6 4.8 11.3 5.65 10.6 M3.5 4.35 Q3.4 4.15 3.7 4.1 L3.95 4.15 3.9 4.55 3.5 4.35 M0.65 1.25 Q0.65 0.95 0.05 0.95 L-0.85 1.15 -1.15 1.2 1.4 -0.25 0.45 0.4 0.75 1.3 0.6 1.9 0.65 1.25 M3.05 1.15 L2.5 0.4 Q1.8 1.45 1.55 0.5 2.5 -0.25 3.35 0.95 L3.05 1.15 M1.6 4.65 Q1.75 3.55 2.65 2.8 3.6 2.0 4.7 2.0 5.8 2.0 6.45 2.8 7.15 3.55 7.0 4.65 6.85 5.75 5.9 6.55 5.0 7.3 3.9 7.3 2.8 7.3 2.1 6.55 1.45 5.75 1.6 4.65 M3.5 2.55 Q1.3 5.2 2.5 6.1 3.0 6.55 4.1 6.5 L5.25 6.3 6.15 5.75 Q6.4 4.1 5.9 3.9 L4.8 3.95 4.8 3.8 Q6.05 3.5 5.15 3.1 L3.5 2.55 M-1.35 0.95 L-1.9 1.8 Q-1.25 2.25 -1.7 3.7 L-1.9 3.55 Q-1.95 2.8 -2.3 1.5 L-1.35 0.95 M4.05 -0.3 L4.5 0.4 Q4.25 1.05 4.05 -0.3" fill="#b19c8d" fill-rule="evenodd" stroke="none"/>
    <path d="M4.05 -0.7 L3.85 -0.9 Q3.4 -0.75 3.3 -0.1 L4.05 -0.7 M7.55 -1.35 Q7.45 0.55 8.5 3.85 L11.1 11.05 Q7.2 11.6 4.15 12.9 L-0.2 7.3 Q-4.5 1.65 -4.35 1.25 L-0.4 -0.65 2.15 -1.35 4.5 -1.65 7.35 -1.5 7.5 -1.5 7.55 -1.35 M5.05 -0.35 L5.65 -0.35 5.8 -0.95 5.7 -1.05 5.05 -0.35 4.8 0.6 5.4 0.8 5.8 0.75 6.05 0.4 5.05 -0.35 M3.5 2.55 L5.15 3.1 Q6.05 3.5 4.8 3.8 L4.8 3.95 5.9 3.9 Q6.4 4.1 6.15 5.75 L5.25 6.3 4.1 6.5 Q3.0 6.55 2.5 6.1 1.3 5.2 3.5 2.55 M1.6 4.65 Q1.45 5.75 2.1 6.55 2.8 7.3 3.9 7.3 5.0 7.3 5.9 6.55 6.85 5.75 7.0 4.65 7.15 3.55 6.45 2.8 5.8 2.0 4.7 2.0 3.6 2.0 2.65 2.8 1.75 3.55 1.6 4.65 M3.05 1.15 L3.35 0.95 Q2.5 -0.25 1.55 0.5 1.8 1.45 2.5 0.4 L3.05 1.15 M0.65 1.25 L0.6 1.9 0.75 1.3 0.45 0.4 1.4 -0.25 -1.15 1.2 -0.85 1.15 0.05 0.95 Q0.65 0.95 0.65 1.25 M3.5 4.35 L3.9 4.55 3.95 4.15 3.7 4.1 Q3.4 4.15 3.5 4.35 M5.65 10.6 L4.8 11.3 6.75 10.6 8.5 9.8 7.6 9.9 Q6.7 10.1 5.65 10.6 M4.2 9.6 L7.45 8.3 Q6.45 8.2 5.15 8.85 L4.2 9.6 M4.05 -0.3 Q4.25 1.05 4.5 0.4 L4.05 -0.3 M-1.35 0.95 L-2.3 1.5 Q-1.95 2.8 -1.9 3.55 L-1.7 3.7 Q-1.25 2.25 -1.9 1.8 L-1.35 0.95" fill="#3f362c" fill-rule="evenodd" stroke="none"/>
    <path d="M7.35 -1.5 L4.5 -1.65 2.15 -1.35 -0.4 -0.65 -4.35 1.25 Q-4.5 1.65 -0.2 7.3 L4.15 12.9 Q7.2 11.6 11.1 11.05 L8.5 3.85 Q7.45 0.55 7.55 -1.35 8.1 -0.75 8.45 0.65 10.05 6.85 11.3 9.3 11.75 10.25 11.55 11.45 11.4 12.5 4.05 13.65 2.8 13.65 -0.65 9.1 L-5.9 1.6 Q-4.35 0.35 -1.0 -1.0 2.15 -2.3 3.25 -2.3 6.25 -2.3 7.25 -1.6 L7.35 -1.5" fill="#efb429" fill-rule="evenodd" stroke="none"/>
    <path d="M7.35 -1.5 L7.25 -1.6 Q6.25 -2.3 3.25 -2.3 2.15 -2.3 -1.0 -1.0 -4.35 0.35 -5.9 1.6 L-0.65 9.1 Q2.8 13.65 4.05 13.65 11.4 12.5 11.55 11.45 11.75 10.25 11.3 9.3 10.05 6.85 8.45 0.65 8.1 -0.75 7.55 -1.35 L7.5 -1.5 7.35 -1.5 M-7.45 2.0 L-7.45 1.75 -5.35 0.15 Q-2.6 -1.4 -0.05 -2.3 3.65 -3.85 7.7 -3.05 L10.05 2.9 13.3 11.7 3.1 14.95 -7.45 2.0" fill="#564e34" fill-rule="evenodd" stroke="none"/>
  </g>
</svg>
