<?xml version="1.0" encoding="UTF-8" standalone="no"?>
<svg xmlns:ffdec="https://www.free-decompiler.com/flash" xmlns:xlink="http://www.w3.org/1999/xlink" ffdec:objectType="shape" height="235.95px" width="171.75px" xmlns="http://www.w3.org/2000/svg">
  <g transform="matrix(1.0, 0.0, 0.0, 1.0, 84.0, 19.1)">
    <path d="M-81.7 164.45 L-79.0 -1.5 -78.85 -1.8 -78.55 -2.0 -78.2 -1.9 Q-55.45 12.4 -32.65 5.75 L-32.25 5.75 Q-4.4 19.3 23.45 15.05 L23.75 15.1 Q53.1 29.2 82.45 24.85 L82.7 24.9 83.25 23.8 Q83.6 22.6 83.8 63.0 84.0 100.85 82.25 183.15 L80.75 184.0 79.9 184.85 76.75 186.7 75.6 187.35 70.15 190.25 68.7 191.0 64.7 192.9 63.4 193.5 58.6 195.6 56.7 196.35 51.85 198.2 50.85 198.55 45.65 200.2 45.0 200.4 38.75 202.1 38.05 202.25 37.6 202.35 36.35 202.65 Q12.9 207.8 -10.2 203.25 L-11.2 203.05 Q-17.05 201.85 -22.8 200.05 L-23.4 199.9 -24.05 199.65 -24.05 199.7 -25.4 199.25 -25.45 199.2 -27.95 198.3 -27.95 198.35 -30.05 197.55 -31.3 197.05 -31.3 197.1 -31.4 197.05 -31.4 197.0 -32.85 196.45 Q-44.25 191.8 -55.55 184.8 L-57.15 183.8 -62.55 180.2 -63.8 179.35 -70.9 174.15 -72.35 173.0 -80.05 166.7 -80.05 166.35 Q-80.05 165.75 -81.1 164.45 L-81.7 163.8 -81.7 164.45 M81.55 183.9 L82.2 184.9 82.0 184.6 81.75 184.5 81.9 184.45 81.55 183.9 M69.6 28.2 L69.25 28.25 68.85 28.25 61.6 28.3 61.25 28.25 Q46.65 27.35 30.6 19.75 L28.7 18.85 28.4 18.7 23.45 16.1 Q-3.6 23.1 -32.55 6.75 -53.0 16.4 -78.0 -0.6 L-78.7 49.65 -80.25 163.95 Q-73.6 169.55 -66.85 174.35 L-64.2 176.25 -56.3 181.4 -54.1 182.75 -53.5 183.1 Q-43.2 189.2 -32.8 193.4 18.8 214.3 72.05 187.85 L79.0 184.2 80.15 183.55 80.7 137.7 80.7 137.8 82.0 25.95 Q75.95 27.75 69.6 28.2" fill="#000000" fill-rule="evenodd" stroke="none"/>
    <path d="M-54.1 182.75 L-56.3 181.4 -57.75 178.3 -58.5 176.75 Q-56.95 179.55 -54.1 182.75" fill="#003399" fill-rule="evenodd" stroke="none"/>
    <path d="M76.75 34.6 Q76.75 41.65 74.75 49.5 L74.75 76.5 Q75.25 80.25 75.25 87.85 75.25 101.9 74.4 116.9 73.45 133.25 71.75 145.05 L70.8 159.35 Q70.2 168.2 67.95 173.65 61.4 189.55 33.5 195.75 L32.6 195.3 Q32.25 194.95 32.25 194.1 32.25 193.5 35.45 189.2 L43.1 178.55 Q55.15 160.65 60.3 143.8 64.5 130.0 66.2 118.0 67.75 107.05 67.75 93.35 67.75 86.45 66.75 72.15 65.75 57.9 65.75 51.25 65.75 42.55 71.25 34.3 73.5 31.0 75.05 30.8 76.75 30.6 76.75 34.6 M-66.7 22.6 Q-70.8 30.2 -71.25 34.25 L-72.45 43.7 Q-73.25 49.65 -73.35 53.75 L-73.5 54.0 -74.5 54.25 Q-76.4 54.25 -76.75 41.5 L-76.75 28.6 Q-76.75 21.05 -76.25 11.55 -76.25 2.8 -73.35 8.0 -70.75 12.85 -66.45 14.15 -62.75 14.55 -62.75 14.85 -62.75 15.3 -66.7 22.6" fill="#f5ec8a" fill-rule="evenodd" stroke="none"/>
    <path d="M28.4 18.7 Q28.25 18.95 28.25 19.5 28.25 21.65 34.5 27.25 41.7 33.75 48.0 33.75 50.5 33.75 63.55 30.0 L69.6 28.2 Q75.95 27.75 82.0 25.95 L80.7 137.8 Q79.3 147.85 77.0 160.65 L72.05 187.85 Q18.8 214.3 -32.8 193.4 L-32.75 192.75 -43.55 186.65 Q-48.45 183.75 -52.1 181.05 -54.5 179.05 -56.45 173.75 -57.55 170.7 -58.9 169.4 L-58.5 165.75 Q-57.75 159.25 -57.75 156.6 -56.8 151.8 -56.9 147.1 -57.0 140.3 -59.75 138.3 -59.8 135.55 -61.15 135.25 -62.5 134.95 -62.25 138.3 L-62.25 152.25 -64.85 164.9 Q-68.45 160.0 -70.45 153.5 L-73.75 139.8 -73.75 113.25 Q-73.1 110.2 -73.55 105.2 L-74.25 96.8 -74.5 88.25 -74.75 79.55 Q-74.75 68.6 -76.25 62.3 -76.85 56.65 -77.4 53.75 -77.85 51.3 -78.7 49.65 L-78.0 -0.6 Q-53.0 16.4 -32.55 6.75 -3.6 23.1 23.45 16.1 L28.4 18.7 M76.75 34.6 Q76.75 30.6 75.05 30.8 73.5 31.0 71.25 34.3 65.75 42.55 65.75 51.25 65.75 57.9 66.75 72.15 67.75 86.45 67.75 93.35 67.75 107.05 66.2 118.0 64.5 130.0 60.3 143.8 55.15 160.65 43.1 178.55 L35.45 189.2 Q32.25 193.5 32.25 194.1 32.25 194.95 32.6 195.3 L33.5 195.75 Q61.4 189.55 67.95 173.65 70.2 168.2 70.8 159.35 L71.75 145.05 Q73.45 133.25 74.4 116.9 75.25 101.9 75.25 87.85 75.25 80.25 74.75 76.5 L74.75 49.5 Q76.75 41.65 76.75 34.6 M13.5 19.75 L0.05 19.5 -19.2 14.65 Q-29.75 12.05 -29.75 12.75 -29.75 13.5 -28.5 15.9 -27.0 18.8 -24.85 21.3 -18.55 28.75 -10.5 28.75 -1.2 28.75 7.5 25.25 14.75 22.3 14.75 20.85 14.75 20.1 14.35 19.95 L13.5 19.75 M-38.25 12.35 Q-38.25 11.6 -38.35 11.55 L-38.5 11.5 Q-40.2 11.35 -43.05 11.55 L-46.25 12.0 -59.85 12.0 -61.6 11.5 Q-62.35 11.35 -63.1 11.5 L-63.15 11.65 -63.25 12.75 -59.75 16.3 Q-56.25 19.85 -56.25 23.75 -56.25 24.7 -57.5 29.35 -58.75 34.05 -58.75 36.3 L-60.3 42.4 -61.75 49.1 -61.7 50.2 -60.5 51.25 Q-58.25 47.85 -55.65 42.1 L-51.25 32.05 Q-49.75 28.65 -43.8 20.25 L-38.25 12.35 M-66.7 22.6 Q-62.75 15.3 -62.75 14.85 -62.75 14.55 -66.45 14.15 -70.75 12.85 -73.35 8.0 -76.25 2.8 -76.25 11.55 -76.75 21.05 -76.75 28.6 L-76.75 41.5 Q-76.4 54.25 -74.5 54.25 L-73.5 54.0 -73.35 53.75 Q-73.25 49.65 -72.45 43.7 L-71.25 34.25 Q-70.8 30.2 -66.7 22.6" fill="#f2e441" fill-rule="evenodd" stroke="none"/>
    <path d="M28.4 18.7 L28.7 18.85 30.6 19.75 Q46.65 27.35 61.25 28.25 L61.6 28.3 68.85 28.25 69.25 28.25 69.6 28.2 63.55 30.0 Q50.5 33.75 48.0 33.75 41.7 33.75 34.5 27.25 28.25 21.65 28.25 19.5 28.25 18.95 28.4 18.7 M80.7 137.8 L80.7 137.7 80.15 183.55 79.0 184.2 72.05 187.85 77.0 160.65 Q79.3 147.85 80.7 137.8 M-32.8 193.4 Q-43.2 189.2 -53.5 183.1 L-54.1 182.75 Q-56.95 179.55 -58.5 176.75 L-57.75 178.3 -56.3 181.4 -64.2 176.25 -66.85 174.35 Q-73.6 169.55 -80.25 163.95 L-78.7 49.65 Q-77.85 51.3 -77.4 53.75 -76.85 56.65 -76.25 62.3 -74.75 68.6 -74.75 79.55 L-74.5 88.25 -74.25 96.8 -73.55 105.2 Q-73.1 110.2 -73.75 113.25 L-73.75 139.8 -70.45 153.5 Q-68.45 160.0 -64.85 164.9 L-62.25 152.25 -62.25 138.3 Q-62.5 134.95 -61.15 135.25 -59.8 135.55 -59.75 138.3 -57.0 140.3 -56.9 147.1 -56.8 151.8 -57.75 156.6 -57.75 159.25 -58.5 165.75 L-58.9 169.4 Q-57.55 170.7 -56.45 173.75 -54.5 179.05 -52.1 181.05 -48.45 183.75 -43.55 186.65 L-32.75 192.75 -32.8 193.4 M13.5 19.75 L14.35 19.95 Q14.75 20.1 14.75 20.85 14.75 22.3 7.5 25.25 -1.2 28.75 -10.5 28.75 -18.55 28.75 -24.85 21.3 -27.0 18.8 -28.5 15.9 -29.75 13.5 -29.75 12.75 -29.75 12.05 -19.2 14.65 L0.05 19.5 13.5 19.75 M-38.25 12.35 L-43.8 20.25 Q-49.75 28.65 -51.25 32.05 L-55.65 42.1 Q-58.25 47.85 -60.5 51.25 L-61.7 50.2 -61.75 49.1 -60.3 42.4 -58.75 36.3 Q-58.75 34.05 -57.5 29.35 -56.25 24.7 -56.25 23.75 -56.25 19.85 -59.75 16.3 L-63.25 12.75 -63.15 11.65 -63.1 11.5 Q-62.35 11.35 -61.6 11.5 L-59.85 12.0 -46.25 12.0 -43.05 11.55 Q-40.2 11.35 -38.5 11.5 L-38.35 11.55 Q-38.25 11.6 -38.25 12.35" fill="#d4b745" fill-rule="evenodd" stroke="none"/>
    <path d="M-70.9 174.15 L-63.8 179.35 -64.3 180.75 -64.3 186.55 -64.3 189.3 -68.65 186.1 -68.05 186.55 -68.05 184.65 Q-67.75 182.5 -67.75 181.0 -67.75 178.2 -69.3 178.25 L-69.3 185.6 -72.0 183.55 -71.55 179.8 -70.9 174.15 M-55.55 184.8 Q-44.25 191.8 -32.85 196.45 L-33.75 200.25 -34.7 206.1 Q-39.9 203.9 -45.05 201.2 L-45.05 193.85 Q-45.4 193.5 -45.75 193.35 -46.2 194.3 -46.3 195.9 L-46.3 198.75 -46.3 200.5 -55.3 195.3 -55.3 190.15 -55.55 189.6 -55.55 184.8 M-30.05 197.55 L-27.95 198.35 Q-28.6 199.1 -29.0 201.1 L-30.05 205.85 -30.05 197.55 M-25.4 199.25 L-24.05 199.7 -24.05 203.1 Q-24.0 205.9 -24.5 207.75 -24.95 206.7 -25.1 201.5 L-25.4 199.25 M-10.2 203.25 Q12.9 207.8 36.35 202.65 L36.35 213.1 32.1 213.95 32.1 211.55 32.1 207.3 Q31.95 204.7 30.85 204.75 L30.85 214.2 25.1 215.05 25.1 214.9 Q25.1 210.5 24.5 210.5 23.85 210.5 23.85 214.9 L23.85 215.2 Q14.0 216.25 4.2 215.65 L4.1 215.6 4.1 213.8 4.1 210.25 Q4.0 208.1 3.5 207.15 3.0 207.95 2.9 210.2 L2.85 213.8 2.85 215.55 -0.9 215.2 -0.3 215.25 -0.3 212.35 -1.0 211.85 Q-1.85 212.55 -1.55 214.6 L-1.55 215.1 -3.15 214.9 -2.8 214.75 -2.8 212.75 -3.7 207.55 Q-4.25 204.35 -4.75 204.35 L-5.55 204.5 -6.0 207.9 -6.5 211.0 -7.0 210.1 Q-7.4 209.35 -8.1 209.35 -8.65 209.35 -9.15 210.15 L-9.75 211.25 Q-9.85 210.9 -10.05 210.9 L-10.0 206.1 -10.2 203.25 M38.75 202.1 L45.0 200.4 44.35 200.6 44.15 203.1 44.1 208.05 43.9 211.15 43.35 211.3 43.35 207.85 Q43.25 207.65 42.75 207.35 42.15 208.1 42.1 211.65 L39.6 212.3 39.6 201.9 38.75 202.1 M51.85 198.2 L56.7 196.35 56.75 197.55 57.35 203.1 57.4 206.45 52.1 208.45 52.1 205.15 51.85 198.2 M64.7 192.9 L68.7 191.0 68.65 192.0 68.6 196.4 68.65 200.9 68.7 201.3 64.1 203.55 64.1 200.55 64.7 194.75 64.7 192.9" fill="#9db6c6" fill-rule="evenodd" stroke="none"/>
    <path d="M-80.05 166.7 L-72.35 173.0 -70.9 174.15 -71.55 179.8 -72.0 183.55 -73.4 182.45 -82.0 175.2 -81.75 165.25 -80.05 166.7 M-63.8 179.35 L-62.55 180.2 -57.15 183.8 -55.55 184.8 -55.55 189.6 -55.3 190.15 -55.3 195.3 -56.75 194.35 -57.55 193.85 -57.55 190.35 -58.25 189.85 Q-58.7 190.5 -58.8 192.1 L-58.8 193.05 -58.15 193.45 -63.05 190.15 -64.3 189.3 -64.3 186.55 -64.3 180.75 -63.8 179.35 M-32.85 196.45 L-31.4 197.0 -31.4 197.05 -31.3 197.1 -31.3 197.05 -30.05 197.55 -30.05 205.85 -29.0 201.1 Q-28.6 199.1 -27.95 198.35 L-27.95 198.3 -25.45 199.2 -25.4 199.25 -25.1 201.5 Q-24.95 206.7 -24.5 207.75 -24.0 205.9 -24.05 203.1 L-24.05 199.7 -24.05 199.65 -23.4 199.9 -22.8 200.05 Q-17.05 201.85 -11.2 203.05 L-10.2 203.25 -10.0 206.1 -10.05 210.9 Q-9.85 210.9 -9.75 211.25 L-9.15 210.15 Q-8.65 209.35 -8.1 209.35 -7.4 209.35 -7.0 210.1 L-6.5 211.0 -6.0 207.9 -5.55 204.5 -4.75 204.35 Q-4.25 204.35 -3.7 207.55 L-2.8 212.75 -2.8 214.75 -3.15 214.9 -3.7 214.85 Q-11.3 213.75 -18.85 211.7 L-18.85 211.5 Q-18.75 209.4 -20.55 209.5 L-20.55 211.2 -23.65 210.25 -23.9 210.15 -24.8 209.9 -24.8 209.85 -29.85 208.05 -30.55 207.8 Q-31.85 207.3 -33.1 206.75 L-34.7 206.1 -33.75 200.25 -32.85 196.45 M36.35 202.65 L37.6 202.35 38.05 202.25 38.75 202.1 39.6 201.9 39.6 212.3 38.7 212.55 38.35 212.6 37.65 212.8 37.35 212.85 36.35 213.1 36.35 202.65 M45.0 200.4 L45.65 200.2 50.85 198.55 51.85 198.2 52.1 205.15 52.1 208.45 52.1 208.5 50.85 208.95 50.85 208.9 49.85 209.25 49.85 207.4 49.85 203.75 Q49.75 201.55 49.25 200.4 48.75 201.55 48.65 203.7 L48.6 207.4 48.6 209.7 45.35 210.75 43.9 211.15 44.1 208.05 44.15 203.1 44.35 200.6 45.0 200.4 M56.7 196.35 L58.6 195.6 63.4 193.5 64.7 192.9 64.7 194.75 64.1 200.55 64.1 203.55 63.7 203.7 62.55 204.25 61.1 204.85 61.1 203.55 61.1 200.45 Q61.0 198.65 60.5 197.65 60.0 198.6 59.9 200.4 L59.85 203.55 59.85 205.4 58.6 205.95 58.3 206.05 57.4 206.45 57.35 203.1 56.75 197.55 56.7 196.35 M68.7 191.0 L70.15 190.25 75.6 187.35 76.75 186.7 79.9 184.85 80.15 184.7 80.0 195.05 76.8 196.9 Q76.65 197.0 76.55 197.05 L75.6 197.6 73.1 199.0 73.1 191.85 Q73.0 191.65 72.5 191.35 71.2 192.3 71.35 195.25 L71.8 199.7 69.55 200.85 68.7 201.3 68.65 200.9 68.6 196.4 68.65 192.0 68.7 191.0" fill="#84a4b8" fill-rule="evenodd" stroke="none"/>
    <path d="M-81.7 164.45 L-81.7 163.8 -81.1 164.45 Q-80.05 165.75 -80.05 166.35 L-80.05 166.7 -81.75 165.25 -82.0 175.2 -73.4 182.45 -72.0 183.55 -69.3 185.6 -69.3 178.25 Q-67.75 178.2 -67.75 181.0 -67.75 182.5 -68.05 184.65 L-68.05 186.55 -68.65 186.1 -64.3 189.3 -63.05 190.15 -58.15 193.45 -58.8 193.05 -58.8 192.1 Q-58.7 190.5 -58.25 189.85 L-57.55 190.35 -57.55 193.85 -56.75 194.35 -55.3 195.3 -46.3 200.5 -46.3 198.75 -46.3 195.9 Q-46.2 194.3 -45.75 193.35 -45.4 193.5 -45.05 193.85 L-45.05 201.2 Q-39.9 203.9 -34.7 206.1 L-33.1 206.75 Q-31.85 207.3 -30.55 207.8 L-29.85 208.05 -24.8 209.85 -24.8 209.9 -23.9 210.15 -23.65 210.25 -20.55 211.2 -20.55 209.5 Q-18.75 209.4 -18.85 211.5 L-18.85 211.7 Q-11.3 213.75 -3.7 214.85 L-3.15 214.9 -1.55 215.1 -1.55 214.6 Q-1.85 212.55 -1.0 211.85 L-0.3 212.35 -0.3 215.25 -0.9 215.2 2.85 215.55 2.85 213.8 2.9 210.2 Q3.0 207.95 3.5 207.15 4.0 208.1 4.1 210.25 L4.1 213.8 4.1 215.6 3.75 215.35 Q3.25 215.75 3.15 216.6 -21.15 214.75 -45.05 202.3 -45.15 199.05 -45.8 201.35 L-45.9 201.85 Q-64.5 192.0 -82.8 175.8 L-82.95 175.6 -84.0 175.9 -82.75 164.35 -83.0 164.0 -82.9 163.65 -81.7 164.95 -81.7 164.45 M79.9 184.85 L80.75 184.0 82.25 183.15 82.25 183.9 81.55 183.9 81.9 184.45 81.75 184.5 82.0 184.6 82.2 184.9 82.2 186.2 Q82.25 190.2 83.25 194.3 81.0 195.45 80.95 195.55 L80.75 195.75 73.35 200.0 73.3 199.9 73.35 199.6 Q73.25 199.4 72.75 199.1 L72.35 199.15 Q72.1 199.25 72.1 199.65 L72.1 200.0 71.55 200.95 Q37.6 218.75 4.35 216.65 L4.35 215.85 4.2 215.65 Q14.0 216.25 23.85 215.2 L23.85 214.9 Q23.85 210.5 24.5 210.5 25.1 210.5 25.1 214.9 L25.1 215.05 30.85 214.2 30.85 204.75 Q31.95 204.7 32.1 207.3 L32.1 211.55 32.1 213.95 36.35 213.1 37.35 212.85 37.65 212.8 38.35 212.6 38.7 212.55 39.6 212.3 42.1 211.65 Q42.15 208.1 42.75 207.35 43.25 207.65 43.35 207.85 L43.35 211.3 43.9 211.15 45.35 210.75 48.6 209.7 48.6 207.4 48.65 203.7 Q48.75 201.55 49.25 200.4 49.75 201.55 49.85 203.75 L49.85 207.4 49.85 209.25 50.85 208.9 50.85 208.95 52.1 208.5 52.1 208.45 57.4 206.45 58.3 206.05 58.6 205.95 59.85 205.4 59.85 203.55 59.9 200.4 Q60.0 198.6 60.5 197.65 61.0 198.65 61.1 200.45 L61.1 203.55 61.1 204.85 62.55 204.25 63.7 203.7 64.1 203.55 68.7 201.3 69.55 200.85 71.8 199.7 71.35 195.25 Q71.2 192.3 72.5 191.35 73.0 191.65 73.1 191.85 L73.1 199.0 75.6 197.6 76.55 197.05 Q76.65 197.0 76.8 196.9 L80.0 195.05 80.15 184.7 79.9 184.85" fill="#18405a" fill-rule="evenodd" stroke="none"/>
    <path d="M-11.75 111.05 Q-18.85 119.3 -29.05 118.0 -39.2 116.55 -46.4 106.4 -53.55 96.2 -53.55 83.2 -53.55 70.2 -46.4 62.0 L-46.05 61.65 Q-51.15 63.85 -53.45 64.0 -59.7 64.65 -61.25 61.35 L-61.25 61.3 Q-62.85 59.55 -62.9 52.6 L-62.9 52.55 Q-63.7 45.3 -50.2 37.45 -37.75 29.9 -22.55 37.65 -6.75 45.8 -7.35 48.9 -7.1 51.05 -7.8 53.4 L-7.85 53.55 Q-8.95 56.7 -12.05 58.0 L-12.25 58.1 Q-14.3 59.3 -24.4 56.05 L-26.9 55.55 Q-18.1 57.55 -11.75 66.65 -6.95 73.45 -5.35 81.55 -3.65 74.9 0.65 70.0 7.85 61.7 17.95 63.15 15.15 62.1 12.55 62.0 2.6 62.0 0.75 60.25 L0.65 60.2 Q-1.9 58.35 -2.75 55.5 L-2.75 55.45 Q-3.55 52.85 -3.2 50.85 -3.9 46.7 13.0 43.45 27.95 40.55 40.3 51.8 53.0 63.3 52.3 69.9 52.15 77.1 50.4 78.6 L50.35 78.65 Q48.5 82.35 41.65 79.35 L41.75 79.35 Q39.9 78.65 36.2 76.0 42.5 85.7 42.5 97.85 42.5 110.85 35.3 119.05 28.2 127.3 18.0 126.0 7.85 124.55 0.65 114.4 -4.15 107.6 -5.7 99.55 -7.45 106.15 -11.75 111.05 M-23.0 87.65 Q-23.0 83.2 -24.7 80.05 -26.35 76.9 -28.75 76.9 -31.15 76.9 -32.85 80.05 -34.5 83.2 -34.5 87.65 -34.5 92.1 -32.85 95.25 -31.15 98.4 -28.75 98.4 -26.35 98.4 -24.7 95.25 -23.0 92.1 -23.0 87.65 M40.45 171.0 L40.35 171.1 Q21.85 183.7 -4.0 179.5 -29.55 175.4 -47.6 157.2 L-47.65 157.2 Q-53.05 151.85 -56.8 146.2 L-56.85 146.15 Q-61.8 138.65 -64.1 130.7 L-64.15 130.65 Q-66.15 123.65 -66.15 116.2 -66.15 111.95 -65.4 108.05 L-65.35 107.9 Q-64.95 105.25 -62.65 103.9 L-62.85 104.0 Q-60.95 102.6 -58.4 103.05 -56.45 103.35 -54.8 104.9 -37.65 121.1 -4.6 126.4 28.25 131.7 49.15 121.7 51.0 120.5 53.55 121.15 55.45 121.5 57.0 123.2 L57.1 123.35 Q58.3 124.7 58.75 126.7 L58.75 126.95 Q59.35 130.95 59.35 135.15 59.35 138.5 59.0 141.7 L59.0 141.75 Q57.1 155.5 47.4 165.25 L47.35 165.3 Q44.2 168.25 40.45 171.0 M25.05 95.4 Q25.05 90.85 23.5 87.6 21.95 84.4 19.8 84.4 17.65 84.4 16.1 87.6 14.55 90.85 14.55 95.4 14.55 99.95 16.1 103.15 17.65 106.4 19.8 106.4 21.95 106.4 23.5 103.15 25.05 99.95 25.05 95.4" fill="#ffffff" fill-rule="evenodd" stroke="none"/>
    <path d="M30.3 66.25 Q20.65 58.0 12.55 58.0 4.55 58.0 3.0 56.95 1.55 55.9 1.05 54.3 0.55 52.6 0.75 51.25 0.9 49.85 13.75 47.35 26.8 44.9 37.6 54.75 48.4 64.55 48.3 69.8 48.2 74.95 47.3 76.05 46.45 77.05 43.25 75.65 40.05 74.35 30.3 66.25 M38.1 167.75 Q20.8 179.45 -3.4 175.55 -27.65 171.65 -44.8 154.35 -49.9 149.3 -53.5 143.95 -58.1 136.95 -60.3 129.55 -62.15 123.1 -62.15 116.2 -62.15 112.25 -61.45 108.65 -61.35 107.75 -60.6 107.3 -59.95 106.85 -59.1 107.0 -58.25 107.15 -57.55 107.8 -39.7 124.8 -5.25 130.35 29.25 135.9 51.05 125.2 L52.6 125.05 Q53.4 125.2 54.05 125.9 54.6 126.55 54.8 127.5 55.35 131.25 55.35 135.15 55.35 138.25 55.0 141.2 53.3 153.6 44.55 162.4 41.65 165.2 38.1 167.75 M32.8 115.2 L32.9 115.1 Q27.05 122.65 18.7 121.15 10.35 119.95 4.6 110.55 L4.6 110.65 Q-0.55 102.35 -0.55 91.7 -0.55 81.2 4.6 74.5 10.35 66.95 18.7 68.5 27.05 69.65 32.8 79.05 L32.9 79.05 Q38.0 87.4 38.0 97.9 38.0 108.55 32.8 115.2 M29.9 96.6 Q29.9 88.65 26.15 82.5 L26.15 82.55 Q23.0 77.45 18.7 76.6 14.4 76.05 11.25 80.15 L11.35 80.1 Q7.55 85.05 7.55 93.0 7.55 100.9 11.25 107.05 L11.35 107.05 Q14.4 112.2 18.7 113.05 23.0 113.6 26.15 109.45 29.9 104.5 29.9 96.6 M50.5 134.8 L50.5 134.4 50.4 131.2 Q28.35 140.6 -5.25 135.2 -38.6 129.8 -57.15 114.15 L-57.3 117.0 -57.3 117.25 -57.2 118.3 Q-57.15 121.45 -56.55 124.65 L-56.5 124.9 -54.85 131.0 -54.8 131.25 -54.7 131.5 -54.2 132.8 Q-51.95 138.5 -47.9 143.95 -45.65 147.05 -42.8 150.0 L-41.65 151.1 Q-25.85 167.05 -3.4 170.7 19.05 174.3 34.95 163.45 L35.55 163.05 39.3 160.15 39.65 159.8 Q47.0 153.0 49.35 143.75 L49.75 142.2 Q50.4 138.65 50.5 134.8 M-17.9 88.9 Q-17.9 80.95 -21.65 74.8 L-21.65 74.85 Q-24.8 69.75 -29.1 68.9 -33.4 68.35 -36.55 72.45 L-36.45 72.4 Q-40.3 77.35 -40.3 85.3 -40.3 93.2 -36.55 99.35 L-36.45 99.35 Q-33.4 104.5 -29.1 105.35 -24.8 105.9 -21.65 101.75 -17.9 96.8 -17.9 88.9 M-15.0 107.45 L-14.9 107.4 Q-20.75 114.95 -29.1 113.45 -37.45 112.25 -43.2 102.8 L-43.2 102.9 Q-48.4 94.65 -48.4 84.0 -48.4 73.5 -43.2 66.75 -37.45 59.25 -29.1 60.8 -20.75 61.95 -15.0 71.3 L-14.9 71.35 Q-9.8 79.7 -9.8 90.2 -9.8 100.85 -15.0 107.45 M-40.95 54.75 Q-50.65 59.7 -53.9 60.0 -57.05 60.35 -57.95 59.05 -58.85 57.7 -58.9 52.5 -59.0 47.2 -48.2 40.9 -37.45 34.55 -24.4 41.2 -11.5 47.85 -11.35 49.3 -11.2 50.7 -11.65 52.25 -12.15 53.7 -13.6 54.3 -15.15 54.85 -23.2 52.25 -31.3 49.65 -40.95 54.75" fill="#18405a" fill-rule="evenodd" stroke="none"/>
    <path d="M-57.2 118.3 L-57.3 117.25 -57.3 117.0 -57.15 114.15 Q-38.6 129.8 -5.25 135.2 28.35 140.6 50.4 131.2 L50.5 134.4 50.5 134.8 Q44.5 137.8 40.1 139.05 32.65 141.15 19.55 141.65 0.4 142.1 -11.9 139.4 -22.45 137.05 -38.35 129.85 -45.3 126.65 -49.35 124.15 -53.9 121.45 -57.2 118.3 M49.75 142.2 L49.35 143.75 Q42.85 150.8 27.55 153.55 39.7 155.6 39.65 159.8 L39.3 160.15 35.55 163.05 34.95 163.45 Q19.05 174.3 -3.4 170.7 -25.85 167.05 -41.65 151.1 L-42.8 150.0 Q-45.65 147.05 -47.9 143.95 -43.9 142.1 -33.45 143.95 -43.85 141.85 -54.2 132.8 L-54.7 131.5 -54.8 131.25 -54.85 131.0 -56.5 124.9 -56.55 124.65 -54.45 126.55 Q-43.75 137.5 -27.25 143.0 L-18.3 146.75 -34.7 150.15 Q-28.85 157.1 -17.1 162.15 -5.35 167.0 7.2 167.6 19.75 168.05 33.0 160.4 32.0 160.25 28.05 157.5 24.0 154.65 14.1 152.4 22.1 150.9 26.65 150.55 31.1 150.2 37.9 147.5 44.75 144.7 47.15 143.5 L49.75 142.2" fill="#e5e5e5" fill-rule="evenodd" stroke="none"/>
    <path d="M50.5 134.8 Q50.4 138.65 49.75 142.2 L47.15 143.5 Q44.75 144.7 37.9 147.5 31.1 150.2 26.65 150.55 22.1 150.9 14.1 152.4 24.0 154.65 28.05 157.5 32.0 160.25 33.0 160.4 19.75 168.05 7.2 167.6 -5.35 167.0 -17.1 162.15 -28.85 157.1 -34.7 150.15 L-18.3 146.75 -27.25 143.0 Q-43.75 137.5 -54.45 126.55 L-56.55 124.65 Q-57.15 121.45 -57.2 118.3 -53.9 121.45 -49.35 124.15 -45.3 126.65 -38.35 129.85 -22.45 137.05 -11.9 139.4 0.4 142.1 19.55 141.65 32.65 141.15 40.1 139.05 44.5 137.8 50.5 134.8" fill="#ffffff" fill-rule="evenodd" stroke="none"/>
    <path d="M49.35 143.75 Q47.0 153.0 39.65 159.8 39.7 155.6 27.55 153.55 42.85 150.8 49.35 143.75 M-47.9 143.95 Q-51.95 138.5 -54.2 132.8 -43.85 141.85 -33.45 143.95 -43.9 142.1 -47.9 143.95" fill="#878685" fill-rule="evenodd" stroke="none"/>
    <path d="M22.55 0.35 Q23.25 -0.35 24.1 -0.7 L26.0 -1.1 Q27.85 -1.1 29.3 0.2 27.15 -2.1 24.25 -2.1 22.85 -2.1 21.65 -1.55 20.4 -1.05 19.4 0.0 L18.8 0.65 Q16.5 3.45 16.5 7.4 16.5 10.55 17.95 12.95 L18.35 13.6 18.65 13.95 18.8 14.15 Q21.05 16.9 24.25 16.9 27.4 16.9 29.65 14.15 L29.7 14.15 Q30.7 12.85 31.3 11.4 L31.4 11.25 31.4 11.2 32.35 11.25 32.35 11.6 Q31.65 13.3 30.45 14.8 27.9 17.9 24.25 17.9 20.65 17.9 18.05 14.8 15.5 11.75 15.5 7.4 15.5 3.05 18.0 0.0 L18.05 0.0 Q20.65 -3.1 24.25 -3.1 27.85 -3.1 30.45 0.0 L31.45 1.4 29.25 1.6 Q27.85 -0.1 26.0 -0.1 23.95 -0.1 22.5 1.95 21.0 4.1 21.0 7.15 21.0 10.15 22.5 12.3 L22.5 12.35 Q23.95 14.4 26.0 14.4 28.05 14.4 29.5 12.35 L29.5 12.3 30.15 11.2 30.3 11.05 31.05 11.15 31.1 11.25 31.1 11.4 31.05 11.6 30.3 12.9 Q28.55 15.4 26.0 15.4 L25.95 15.4 25.85 15.4 25.35 15.35 22.7 14.05 22.25 13.6 22.25 13.55 22.2 13.55 21.75 12.95 21.7 12.9 21.6 12.75 Q20.0 10.4 20.0 7.15 20.0 3.8 21.7 1.4 L21.7 1.35 22.55 0.35 M77.8 9.6 L78.2 9.25 78.5 8.95 Q79.85 7.9 81.5 7.9 83.35 7.9 84.8 9.2 82.65 6.9 79.75 6.9 77.4 6.9 75.55 8.4 74.85 8.9 74.3 9.65 72.0 12.45 72.0 16.4 72.0 17.85 72.3 19.15 L72.35 19.25 72.7 20.45 73.1 21.35 74.3 23.15 Q76.55 25.9 79.75 25.9 82.9 25.9 85.15 23.15 L85.2 23.15 Q86.15 21.95 86.75 20.6 L87.75 20.75 Q87.1 22.35 85.95 23.8 83.4 26.9 79.75 26.9 76.15 26.9 73.55 23.8 71.0 20.75 71.0 16.4 71.0 12.05 73.5 9.0 L73.55 9.0 Q76.15 5.9 79.75 5.9 83.35 5.9 85.95 9.0 L86.9 10.3 86.5 10.3 84.65 10.5 Q83.3 8.9 81.5 8.9 79.45 8.9 78.0 10.95 76.5 13.1 76.5 16.15 76.5 19.15 78.0 21.3 L78.0 21.35 Q79.45 23.4 81.5 23.4 83.55 23.4 85.0 21.35 L85.0 21.3 85.65 20.25 86.6 20.55 86.55 20.6 85.8 21.9 Q84.05 24.4 81.5 24.4 78.95 24.4 77.2 21.9 L77.0 21.6 76.9 21.4 76.0 19.55 Q75.5 18.0 75.5 16.15 75.5 12.8 77.2 10.4 L77.2 10.35 77.8 9.6 M-66.2 -4.6 L-66.1 -4.75 -65.7 -4.75 -65.15 -4.75 -65.15 -4.4 Q-65.85 -2.7 -67.05 -1.2 -69.6 1.9 -73.25 1.9 -76.85 1.9 -79.45 -1.2 -82.0 -4.25 -82.0 -8.6 -82.0 -12.95 -79.5 -16.0 L-79.45 -16.0 Q-76.85 -19.1 -73.25 -19.1 -69.65 -19.1 -67.05 -16.0 L-65.8 -14.1 -67.05 -14.5 -68.5 -14.65 Q-69.8 -16.1 -71.5 -16.1 -73.55 -16.1 -75.0 -14.05 -76.5 -11.9 -76.5 -8.85 -76.5 -5.85 -75.0 -3.7 L-75.0 -3.65 Q-73.55 -1.6 -71.5 -1.6 -69.45 -1.6 -68.0 -3.65 L-68.0 -3.7 -67.35 -4.8 -66.4 -4.75 -66.4 -4.6 -66.45 -4.4 Q-66.75 -3.7 -67.2 -3.1 L-67.95 -2.2 -69.7 -0.95 -69.85 -0.85 -70.9 -0.6 -71.5 -0.6 -71.55 -0.6 Q-73.35 -0.6 -74.75 -1.9 L-75.8 -3.1 -75.95 -3.35 Q-77.5 -5.65 -77.5 -8.85 -77.5 -12.2 -75.8 -14.6 L-75.8 -14.65 -74.8 -15.8 Q-73.65 -16.85 -72.25 -17.05 L-71.5 -17.1 Q-69.65 -17.1 -68.2 -15.8 -70.35 -18.1 -73.25 -18.1 L-75.0 -17.85 Q-76.35 -17.5 -77.55 -16.55 L-78.7 -15.35 Q-81.0 -12.55 -81.0 -8.6 -81.0 -6.55 -80.35 -4.8 L-80.4 -4.8 -79.9 -3.7 -78.9 -2.1 -78.85 -2.0 -78.7 -1.85 Q-78.0 -1.0 -77.15 -0.4 -75.4 0.9 -73.25 0.9 L-71.85 0.75 -71.8 0.75 Q-69.55 0.25 -67.85 -1.85 L-67.8 -1.85 -67.75 -1.95 -67.3 -2.55 -66.2 -4.6 M-25.7 1.9 L-25.6 1.75 -25.6 1.7 -24.65 1.75 -24.65 2.1 Q-25.35 3.8 -26.55 5.3 -29.1 8.4 -32.75 8.4 -36.35 8.4 -38.95 5.3 -41.5 2.25 -41.5 -2.1 -41.5 -6.45 -39.0 -9.5 L-38.95 -9.5 Q-36.35 -12.6 -32.75 -12.6 -29.15 -12.6 -26.55 -9.5 L-25.6 -8.2 -26.15 -8.3 -28.25 -8.4 Q-29.45 -9.6 -31.0 -9.6 -33.05 -9.6 -34.5 -7.55 -36.0 -5.4 -36.0 -2.35 -36.0 0.65 -34.5 2.8 L-34.5 2.85 Q-33.05 4.9 -31.0 4.9 -28.95 4.9 -27.5 2.85 L-27.5 2.8 -26.85 1.7 -26.75 1.6 -25.95 1.65 -25.9 1.75 -25.9 1.9 -25.95 2.1 -26.7 3.4 Q-28.45 5.9 -31.0 5.9 -32.85 5.9 -34.25 4.6 L-34.3 4.55 -34.6 4.25 -35.05 3.7 -35.3 3.4 -35.85 2.55 Q-37.0 0.45 -37.0 -2.35 -37.0 -5.7 -35.3 -8.1 L-35.3 -8.15 -35.1 -8.4 Q-34.2 -9.55 -33.15 -10.1 L-31.0 -10.6 Q-29.15 -10.6 -27.7 -9.3 -29.85 -11.6 -32.75 -11.6 -34.7 -11.6 -36.35 -10.55 L-38.2 -8.85 -38.25 -8.8 Q-40.5 -6.05 -40.5 -2.1 -40.5 0.05 -39.8 1.85 L-39.75 2.05 -39.7 2.2 -38.85 3.8 -38.25 4.6 -38.2 4.65 Q-35.95 7.4 -32.75 7.4 -29.6 7.4 -27.35 4.65 L-27.3 4.65 -25.7 1.9" fill="#18405a" fill-rule="evenodd" stroke="none"/>
    <path d="M19.4 0.0 Q20.4 -1.05 21.65 -1.55 22.85 -2.1 24.25 -2.1 27.15 -2.1 29.3 0.2 27.85 -1.1 26.0 -1.1 L24.1 -0.7 Q23.25 -0.35 22.55 0.35 L21.5 0.35 19.4 0.0 M21.6 12.75 L21.7 12.9 21.75 12.95 22.2 13.55 22.25 13.55 18.35 13.6 17.95 12.95 17.9 12.85 17.45 12.0 21.3 12.3 21.6 12.75 M74.3 9.65 Q74.85 8.9 75.55 8.4 77.4 6.9 79.75 6.9 82.65 6.9 84.8 9.2 83.35 7.9 81.5 7.9 79.85 7.9 78.5 8.95 L78.2 9.25 77.8 9.6 77.45 10.05 74.25 9.7 74.3 9.65 M76.0 19.55 L76.9 21.4 73.1 21.35 72.7 20.45 72.35 19.25 72.3 19.15 74.4 19.3 76.0 19.55 M-78.85 -2.0 L-78.9 -2.1 -79.9 -3.7 -80.4 -4.8 -80.35 -4.8 -79.4 -4.5 -75.95 -3.35 -75.8 -3.1 -74.75 -1.9 -76.75 -1.85 -78.85 -2.0 M-77.55 -16.55 Q-76.35 -17.5 -75.0 -17.85 L-73.25 -18.1 Q-70.35 -18.1 -68.2 -15.8 -69.65 -17.1 -71.5 -17.1 L-72.25 -17.05 Q-73.65 -16.85 -74.8 -15.8 L-75.3 -15.8 Q-76.25 -16.05 -77.05 -16.45 L-77.55 -16.55 M-38.25 4.6 L-38.85 3.8 -39.7 2.2 -39.75 2.05 -39.8 1.85 -37.1 2.2 -35.85 2.55 -35.3 3.4 -35.05 3.7 -35.2 3.7 Q-37.35 3.55 -38.55 4.15 L-38.25 4.6 M-38.25 -8.8 L-38.2 -8.85 -36.35 -10.55 Q-34.7 -11.6 -32.75 -11.6 -29.85 -11.6 -27.7 -9.3 -29.15 -10.6 -31.0 -10.6 L-33.15 -10.1 Q-34.2 -9.55 -35.1 -8.4 L-37.65 -8.75 -38.25 -8.8" fill="#84a4b8" fill-rule="evenodd" stroke="none"/>
    <path d="M19.4 0.0 L21.5 0.35 22.55 0.35 21.7 1.35 21.7 1.4 Q20.0 3.8 20.0 7.15 20.0 10.4 21.6 12.75 L21.3 12.3 17.45 12.0 17.9 12.85 17.95 12.95 Q16.5 10.55 16.5 7.4 16.5 3.45 18.8 0.65 L19.4 0.0 M77.8 9.6 L77.2 10.35 77.2 10.4 Q75.5 12.8 75.5 16.15 75.5 18.0 76.0 19.55 L74.4 19.3 72.3 19.15 Q72.0 17.85 72.0 16.4 72.0 12.45 74.3 9.65 L74.25 9.7 77.45 10.05 77.8 9.6 M-80.35 -4.8 Q-81.0 -6.55 -81.0 -8.6 -81.0 -12.55 -78.7 -15.35 L-77.55 -16.55 -77.05 -16.45 Q-76.25 -16.05 -75.3 -15.8 L-74.8 -15.8 -75.8 -14.65 -75.8 -14.6 Q-77.5 -12.2 -77.5 -8.85 -77.5 -5.65 -75.95 -3.35 L-79.4 -4.5 -80.35 -4.8 M-39.8 1.85 Q-40.5 0.05 -40.5 -2.1 -40.5 -6.05 -38.25 -8.8 L-37.65 -8.75 -35.1 -8.4 -35.3 -8.15 -35.3 -8.1 Q-37.0 -5.7 -37.0 -2.35 -37.0 0.45 -35.85 2.55 L-37.1 2.2 -39.8 1.85" fill="#9db6c6" fill-rule="evenodd" stroke="none"/>
    <path d="M22.25 13.55 L22.25 13.6 22.7 14.05 25.35 15.35 25.85 15.4 25.95 15.4 26.0 15.4 Q28.55 15.4 30.3 12.9 L31.05 11.6 31.1 11.4 31.3 11.4 Q30.7 12.85 29.7 14.15 L29.65 14.15 Q27.4 16.9 24.25 16.9 21.05 16.9 18.8 14.15 L18.65 13.95 18.35 13.6 22.25 13.55 M76.9 21.4 L77.0 21.6 77.2 21.9 Q78.95 24.4 81.5 24.4 84.05 24.4 85.8 21.9 L86.55 20.6 86.6 20.55 86.75 20.6 Q86.15 21.95 85.2 23.15 L85.15 23.15 Q82.9 25.9 79.75 25.9 76.55 25.9 74.3 23.15 L73.1 21.35 76.9 21.4 M-66.2 -4.6 L-67.3 -2.55 -67.75 -1.95 -67.8 -1.85 -67.85 -1.85 Q-69.55 0.25 -71.8 0.75 L-71.85 0.75 -73.25 0.9 Q-75.4 0.9 -77.15 -0.4 -78.0 -1.0 -78.7 -1.85 L-78.85 -2.0 -76.75 -1.85 -74.75 -1.9 Q-73.35 -0.6 -71.55 -0.6 L-71.5 -0.6 -70.9 -0.6 -69.85 -0.85 -69.7 -0.95 -67.95 -2.2 -67.2 -3.1 Q-66.75 -3.7 -66.45 -4.4 L-66.4 -4.6 -66.2 -4.6 M-25.7 1.9 L-27.3 4.65 -27.35 4.65 Q-29.6 7.4 -32.75 7.4 -35.95 7.4 -38.2 4.65 L-38.25 4.6 -38.55 4.15 Q-37.35 3.55 -35.2 3.7 L-35.05 3.7 -34.6 4.25 -34.3 4.55 -34.25 4.6 Q-32.85 5.9 -31.0 5.9 -28.45 5.9 -26.7 3.4 L-25.95 2.1 -25.9 1.9 -25.7 1.9" fill="#607f93" fill-rule="evenodd" stroke="none"/>
  </g>
</svg>
