<?xml version="1.0" encoding="UTF-8" standalone="no"?>
<svg xmlns:ffdec="https://www.free-decompiler.com/flash" xmlns:xlink="http://www.w3.org/1999/xlink" ffdec:objectType="shape" height="64.5px" width="207.5px" xmlns="http://www.w3.org/2000/svg">
  <g transform="matrix(1.0, 0.0, 0.0, 1.0, 3.75, 3.75)">
    <path d="M189.0 -3.0 Q202.8 -3.0 203.0 10.55 L203.0 46.0 Q203.0 60.0 189.0 60.0 L11.0 60.0 Q-3.0 60.0 -3.0 46.0 L-3.0 10.55 Q-2.8 -3.0 11.0 -3.0 L189.0 -3.0" fill="#ffffff" fill-rule="evenodd" stroke="none"/>
    <path d="M4.75 -1.3 Q2.85 -0.6 1.5 0.6 L0.95 0.8 Q0.65 0.8 0.45 0.55 L0.25 0.0 0.5 -0.5 Q2.05 -1.9 4.2 -2.7 L4.75 -2.7 5.15 -2.3 5.15 -1.7 4.75 -1.3 M11.0 -2.25 L8.5 -2.1 7.95 -2.25 7.65 -2.75 7.8 -3.3 8.3 -3.6 11.0 -3.75 12.3 -3.75 12.85 -3.55 13.05 -3.0 12.85 -2.5 12.3 -2.25 11.0 -2.25 M20.5 -2.25 L16.5 -2.25 Q16.2 -2.25 16.0 -2.5 15.75 -2.7 15.75 -3.0 L16.0 -3.55 16.5 -3.75 20.5 -3.75 21.05 -3.55 21.25 -3.0 21.05 -2.5 Q20.8 -2.25 20.5 -2.25 M28.65 -2.25 L24.65 -2.25 Q24.35 -2.25 24.15 -2.5 23.9 -2.7 23.9 -3.0 L24.15 -3.55 24.65 -3.75 28.65 -3.75 29.2 -3.55 29.4 -3.0 29.2 -2.5 28.65 -2.25 M36.8 -2.25 L32.8 -2.25 Q32.5 -2.25 32.3 -2.5 32.05 -2.7 32.05 -3.0 L32.3 -3.55 32.8 -3.75 36.8 -3.75 37.35 -3.55 37.55 -3.0 37.35 -2.5 36.8 -2.25 M44.95 -2.25 L40.95 -2.25 Q40.65 -2.25 40.45 -2.5 40.2 -2.7 40.2 -3.0 L40.45 -3.55 40.95 -3.75 44.95 -3.75 45.5 -3.55 45.7 -3.0 45.5 -2.5 44.95 -2.25 M53.1 -2.25 L49.1 -2.25 Q48.8 -2.25 48.6 -2.5 48.35 -2.7 48.35 -3.0 L48.6 -3.55 Q48.8 -3.75 49.1 -3.75 L53.1 -3.75 53.65 -3.55 53.85 -3.0 Q53.85 -2.7 53.65 -2.5 53.4 -2.25 53.1 -2.25 M61.25 -2.25 L57.25 -2.25 Q56.95 -2.25 56.75 -2.5 56.5 -2.7 56.5 -3.0 L56.75 -3.55 57.25 -3.75 61.25 -3.75 61.8 -3.55 62.0 -3.0 61.8 -2.5 61.25 -2.25 M69.4 -2.25 L65.4 -2.25 Q65.1 -2.25 64.9 -2.5 64.65 -2.7 64.65 -3.0 L64.9 -3.55 65.4 -3.75 69.4 -3.75 69.95 -3.55 70.15 -3.0 69.95 -2.5 69.4 -2.25 M77.55 -2.25 L73.55 -2.25 Q73.25 -2.25 73.05 -2.5 72.8 -2.7 72.8 -3.0 L73.05 -3.55 73.55 -3.75 77.55 -3.75 78.1 -3.55 78.3 -3.0 78.1 -2.5 Q77.85 -2.25 77.55 -2.25 M85.7 -2.25 L81.0 -2.25 80.5 -2.45 80.25 -3.0 80.5 -3.5 81.0 -3.75 85.7 -3.75 86.25 -3.55 86.45 -3.0 86.25 -2.5 85.7 -2.25 M93.85 -2.25 L89.85 -2.25 Q89.55 -2.25 89.35 -2.5 89.1 -2.7 89.1 -3.0 L89.35 -3.55 89.85 -3.75 93.85 -3.75 94.4 -3.55 94.6 -3.0 94.4 -2.5 Q94.15 -2.25 93.85 -2.25 M102.0 -2.25 L98.0 -2.25 Q97.7 -2.25 97.5 -2.5 97.25 -2.7 97.25 -3.0 L97.5 -3.55 98.0 -3.75 102.0 -3.75 102.55 -3.55 102.75 -3.0 102.55 -2.5 Q102.3 -2.25 102.0 -2.25 M202.25 18.9 L202.45 18.35 203.0 18.15 203.5 18.35 203.75 18.9 203.75 22.9 203.5 23.4 203.0 23.65 202.45 23.4 202.25 22.9 202.25 18.9 M200.75 3.55 L200.75 3.0 201.1 2.55 201.7 2.55 202.1 2.9 Q202.95 4.65 203.35 6.85 L203.25 7.4 202.8 7.7 202.2 7.6 201.9 7.15 Q201.55 5.15 200.75 3.55 M202.25 11.0 L202.25 10.9 202.45 10.35 203.0 10.15 203.5 10.35 203.75 10.9 203.75 11.0 203.75 14.9 203.5 15.4 203.0 15.65 202.45 15.4 202.25 14.9 202.25 11.0 M195.25 -1.3 L194.85 -1.7 194.85 -2.3 195.25 -2.7 195.8 -2.7 Q197.95 -1.9 199.5 -0.5 L199.75 0.0 199.55 0.55 199.05 0.8 198.5 0.6 Q197.15 -0.6 195.25 -1.3 M189.0 -2.25 L187.7 -2.25 Q187.4 -2.25 187.15 -2.5 L186.95 -3.0 187.15 -3.55 187.7 -3.75 189.0 -3.75 191.7 -3.6 192.2 -3.3 192.35 -2.75 192.05 -2.25 191.5 -2.1 189.0 -2.25 M179.5 -2.25 Q179.2 -2.25 178.95 -2.5 L178.75 -3.0 178.95 -3.55 179.5 -3.75 183.5 -3.75 184.0 -3.55 184.25 -3.0 184.0 -2.5 Q183.8 -2.25 183.5 -2.25 L179.5 -2.25 M171.35 -2.25 Q171.05 -2.25 170.8 -2.5 L170.6 -3.0 170.8 -3.55 171.35 -3.75 175.35 -3.75 175.85 -3.55 176.1 -3.0 175.85 -2.5 Q175.65 -2.25 175.35 -2.25 L171.35 -2.25 M163.2 -2.25 Q162.9 -2.25 162.65 -2.5 L162.45 -3.0 162.65 -3.55 163.2 -3.75 167.2 -3.75 167.7 -3.55 167.95 -3.0 167.7 -2.5 Q167.5 -2.25 167.2 -2.25 L163.2 -2.25 M155.05 -2.25 Q154.75 -2.25 154.5 -2.5 L154.3 -3.0 154.5 -3.55 155.05 -3.75 159.05 -3.75 159.55 -3.55 159.8 -3.0 159.55 -2.5 Q159.35 -2.25 159.05 -2.25 L155.05 -2.25 M146.9 -2.25 L146.35 -2.5 Q146.15 -2.7 146.15 -3.0 L146.35 -3.55 146.9 -3.75 150.9 -3.75 151.4 -3.55 151.65 -3.0 151.4 -2.5 Q151.2 -2.25 150.9 -2.25 L146.9 -2.25 M138.75 -2.25 Q138.45 -2.25 138.2 -2.5 L138.0 -3.0 138.2 -3.55 138.75 -3.75 142.75 -3.75 143.25 -3.55 143.5 -3.0 143.25 -2.5 Q143.05 -2.25 142.75 -2.25 L138.75 -2.25 M130.6 -2.25 L130.05 -2.5 129.85 -3.0 130.05 -3.55 130.6 -3.75 134.6 -3.75 135.1 -3.55 135.35 -3.0 135.1 -2.5 Q134.9 -2.25 134.6 -2.25 L130.6 -2.25 M122.45 -2.25 Q122.15 -2.25 121.9 -2.5 L121.7 -3.0 121.9 -3.55 122.45 -3.75 126.45 -3.75 126.95 -3.55 127.2 -3.0 126.95 -2.5 Q126.75 -2.25 126.45 -2.25 L122.45 -2.25 M114.3 -2.25 Q114.0 -2.25 113.75 -2.5 L113.55 -3.0 113.75 -3.55 114.3 -3.75 118.3 -3.75 118.8 -3.55 119.05 -3.0 118.8 -2.5 Q118.6 -2.25 118.3 -2.25 L114.3 -2.25 M106.15 -2.25 Q105.85 -2.25 105.6 -2.5 L105.4 -3.0 105.6 -3.55 106.15 -3.75 110.15 -3.75 110.65 -3.55 110.9 -3.0 110.65 -2.5 Q110.45 -2.25 110.15 -2.25 L106.15 -2.25 M202.25 30.5 L202.25 26.5 202.35 26.5 202.45 26.35 203.0 26.15 203.5 26.35 203.65 26.5 203.75 26.5 203.75 30.5 203.65 30.5 203.5 30.65 Q203.3 30.85 203.0 30.85 L202.45 30.65 202.35 30.5 202.25 30.5 M202.25 38.1 L202.25 34.1 202.45 33.6 Q202.7 33.35 203.0 33.35 203.3 33.35 203.5 33.6 L203.75 34.1 203.75 38.1 203.5 38.65 Q203.3 38.85 203.0 38.85 L202.45 38.65 202.25 38.1 M202.25 46.0 L202.25 42.1 202.45 41.6 Q202.7 41.35 203.0 41.35 203.3 41.35 203.5 41.6 L203.75 42.1 203.75 46.0 203.75 46.1 203.5 46.65 Q203.3 46.85 203.0 46.85 L202.45 46.65 202.25 46.1 202.25 46.0 M200.75 53.45 Q201.55 51.85 201.9 49.85 L202.2 49.4 202.8 49.3 203.25 49.6 203.35 50.15 Q202.95 52.35 202.1 54.1 L201.7 54.45 201.1 54.45 200.75 54.0 200.75 53.45 M195.25 58.3 Q197.15 57.6 198.5 56.4 L199.05 56.2 199.55 56.45 199.75 57.0 199.5 57.5 Q197.95 58.9 195.8 59.7 L195.25 59.7 194.85 59.3 194.85 58.7 195.25 58.3 M189.0 59.25 L191.5 59.1 192.05 59.25 192.35 59.75 192.2 60.3 191.7 60.6 189.0 60.75 187.7 60.75 187.15 60.55 186.95 60.0 187.15 59.5 Q187.4 59.25 187.7 59.25 L189.0 59.25 M179.5 59.25 L183.5 59.25 Q183.8 59.25 184.0 59.5 L184.25 60.0 184.0 60.55 Q183.8 60.75 183.5 60.75 L179.5 60.75 178.95 60.55 178.75 60.0 178.95 59.5 Q179.2 59.25 179.5 59.25 M171.35 59.25 L175.35 59.25 175.85 59.5 176.1 60.0 175.85 60.55 175.35 60.75 171.35 60.75 170.8 60.55 170.6 60.0 170.8 59.5 Q171.05 59.25 171.35 59.25 M163.2 59.25 L167.2 59.25 Q167.5 59.25 167.7 59.5 L167.95 60.0 167.7 60.55 167.2 60.75 163.2 60.75 Q162.9 60.75 162.65 60.55 L162.45 60.0 162.65 59.5 Q162.9 59.25 163.2 59.25 M114.3 59.25 L118.3 59.25 Q118.6 59.25 118.8 59.5 L119.05 60.0 118.8 60.55 Q118.6 60.75 118.3 60.75 L114.3 60.75 113.75 60.55 113.55 60.0 113.75 59.5 Q114.0 59.25 114.3 59.25 M106.15 59.25 L110.15 59.25 110.65 59.5 110.9 60.0 110.65 60.55 110.15 60.75 106.15 60.75 105.6 60.55 105.4 60.0 105.6 59.5 Q105.85 59.25 106.15 59.25 M85.7 59.25 L86.25 59.5 86.45 60.0 86.25 60.55 85.7 60.75 81.7 60.75 Q81.4 60.75 81.2 60.55 L80.95 60.0 Q80.95 59.7 81.2 59.5 81.4 59.25 81.7 59.25 L85.7 59.25 M93.85 59.25 Q94.15 59.25 94.4 59.5 L94.6 60.0 94.4 60.55 93.85 60.75 89.85 60.75 Q89.55 60.75 89.35 60.55 L89.1 60.0 89.35 59.5 Q89.55 59.25 89.85 59.25 L93.85 59.25 M102.0 59.25 Q102.3 59.25 102.55 59.5 L102.75 60.0 102.55 60.55 102.0 60.75 98.0 60.75 97.5 60.55 97.25 60.0 Q97.25 59.7 97.5 59.5 97.7 59.25 98.0 59.25 L102.0 59.25 M155.05 59.25 L159.05 59.25 159.55 59.5 159.8 60.0 159.55 60.55 159.05 60.75 155.05 60.75 154.5 60.55 154.3 60.0 154.5 59.5 Q154.75 59.25 155.05 59.25 M146.9 59.25 L150.9 59.25 Q151.2 59.25 151.4 59.5 L151.65 60.0 151.4 60.55 Q151.2 60.75 150.9 60.75 L146.9 60.75 146.35 60.55 146.15 60.0 146.35 59.5 146.9 59.25 M138.75 59.25 L142.75 59.25 143.25 59.5 143.5 60.0 143.25 60.55 142.75 60.75 138.75 60.75 138.2 60.55 138.0 60.0 138.2 59.5 Q138.45 59.25 138.75 59.25 M130.6 59.25 L134.6 59.25 Q134.9 59.25 135.1 59.5 L135.35 60.0 135.1 60.55 134.6 60.75 130.6 60.75 Q130.3 60.75 130.05 60.55 L129.85 60.0 130.05 59.5 130.6 59.25 M122.45 59.25 L126.45 59.25 126.95 59.5 127.2 60.0 126.95 60.55 126.45 60.75 122.45 60.75 121.9 60.55 121.7 60.0 121.9 59.5 Q122.15 59.25 122.45 59.25 M53.1 59.25 Q53.4 59.25 53.65 59.5 L53.85 60.0 53.65 60.55 53.1 60.75 49.1 60.75 Q48.8 60.75 48.6 60.55 L48.35 60.0 Q48.35 59.7 48.6 59.5 48.8 59.25 49.1 59.25 L53.1 59.25 M69.4 59.25 L69.95 59.5 70.15 60.0 69.95 60.55 69.4 60.75 65.4 60.75 64.9 60.55 64.65 60.0 Q64.65 59.7 64.9 59.5 65.1 59.25 65.4 59.25 L69.4 59.25 M61.25 59.25 L61.8 59.5 62.0 60.0 61.8 60.55 Q61.55 60.75 61.25 60.75 L57.25 60.75 Q56.95 60.75 56.75 60.55 L56.5 60.0 56.75 59.5 Q56.95 59.25 57.25 59.25 L61.25 59.25 M77.55 59.25 Q77.85 59.25 78.1 59.5 L78.3 60.0 78.1 60.55 77.55 60.75 73.55 60.75 Q73.25 60.75 73.05 60.55 L72.8 60.0 73.05 59.5 Q73.25 59.25 73.55 59.25 L77.55 59.25 M4.75 58.3 L5.15 58.7 5.15 59.3 4.75 59.7 4.2 59.7 Q2.05 58.9 0.5 57.5 L0.25 57.0 0.45 56.45 Q0.65 56.2 0.95 56.2 L1.5 56.4 Q2.85 57.6 4.75 58.3 M11.0 59.25 L12.3 59.25 12.85 59.5 13.05 60.0 12.85 60.55 12.3 60.75 11.0 60.75 8.3 60.6 7.8 60.3 7.65 59.75 7.95 59.25 8.5 59.1 11.0 59.25 M28.65 59.25 L29.2 59.5 29.4 60.0 29.2 60.55 Q28.95 60.75 28.65 60.75 L24.65 60.75 Q24.35 60.75 24.15 60.55 L23.9 60.0 24.15 59.5 Q24.35 59.25 24.65 59.25 L28.65 59.25 M20.5 59.25 Q20.8 59.25 21.05 59.5 L21.25 60.0 21.05 60.55 20.5 60.75 16.5 60.75 16.0 60.55 15.75 60.0 Q15.75 59.7 16.0 59.5 16.2 59.25 16.5 59.25 L20.5 59.25 M44.95 59.25 L45.5 59.5 45.7 60.0 45.5 60.55 44.95 60.75 40.95 60.75 Q40.65 60.75 40.45 60.55 L40.2 60.0 40.45 59.5 Q40.65 59.25 40.95 59.25 L44.95 59.25 M36.8 59.25 L37.35 59.5 37.55 60.0 37.35 60.55 36.8 60.75 32.8 60.75 32.3 60.55 32.05 60.0 Q32.05 59.7 32.3 59.5 32.5 59.25 32.8 59.25 L36.8 59.25 M-0.75 3.55 Q-1.55 5.15 -1.9 7.15 L-2.2 7.6 -2.8 7.7 -3.25 7.4 -3.35 6.85 Q-2.95 4.65 -2.1 2.9 -2.0 2.65 -1.7 2.55 L-1.1 2.55 -0.75 3.0 -0.75 3.55 M-2.25 11.0 L-2.25 14.9 -2.45 15.4 -3.0 15.65 -3.5 15.4 -3.75 14.9 -3.75 11.0 -3.75 10.9 -3.5 10.35 -3.0 10.15 -2.45 10.35 -2.25 10.9 -2.25 11.0 M-2.25 18.9 L-2.25 22.9 -2.45 23.4 -3.0 23.65 -3.5 23.4 -3.75 22.9 -3.75 18.9 -3.5 18.35 -3.0 18.15 -2.45 18.35 -2.25 18.9 M-0.75 53.45 L-0.75 54.0 -1.1 54.45 -1.7 54.45 -2.1 54.1 Q-2.95 52.35 -3.35 50.15 L-3.25 49.6 Q-3.1 49.35 -2.8 49.3 L-2.2 49.4 Q-2.0 49.55 -1.9 49.85 -1.55 51.85 -0.75 53.45 M-2.25 46.0 L-2.25 46.1 -2.45 46.65 Q-2.7 46.85 -3.0 46.85 -3.3 46.85 -3.5 46.65 L-3.75 46.1 -3.75 46.0 -3.75 42.1 -3.5 41.6 Q-3.3 41.35 -3.0 41.35 -2.7 41.35 -2.45 41.6 L-2.25 42.1 -2.25 46.0 M-2.25 38.1 L-2.45 38.65 Q-2.7 38.85 -3.0 38.85 -3.3 38.85 -3.5 38.65 L-3.75 38.1 -3.75 34.1 -3.5 33.6 Q-3.3 33.35 -3.0 33.35 -2.7 33.35 -2.45 33.6 L-2.25 34.1 -2.25 38.1 M-2.25 30.5 L-2.35 30.5 -2.45 30.65 Q-2.7 30.85 -3.0 30.85 -3.3 30.85 -3.5 30.65 L-3.6 30.5 -3.75 30.5 -3.75 26.5 -3.6 26.5 -3.5 26.35 -3.0 26.15 -2.45 26.35 -2.35 26.5 -2.25 26.5 -2.25 30.5" fill="#32868a" fill-rule="evenodd" stroke="none"/>
  </g>
</svg>
