<?xml version="1.0" encoding="UTF-8" standalone="no"?>
<svg xmlns:ffdec="https://www.free-decompiler.com/flash" xmlns:xlink="http://www.w3.org/1999/xlink" ffdec:objectType="shape" height="36.9px" width="36.3px" xmlns="http://www.w3.org/2000/svg">
  <g transform="matrix(1.0, 0.0, 0.0, 1.0, 0.15, -0.35)">
    <path d="M0.35 14.55 L6.7 13.1 4.7 8.5 10.2 8.7 9.65 1.0 15.3 6.25 18.5 0.85 20.95 6.25 26.6 1.0 26.05 8.7 32.3 7.55 29.55 13.1 35.65 14.6 30.8 18.65 35.15 22.4 29.55 24.15 32.05 29.75 26.05 28.55 25.8 34.85 20.95 31.0 18.15 36.75 15.3 31.0 10.45 34.4 10.2 28.55 4.2 29.7 6.7 24.15 1.45 22.25 6.3 18.65 0.35 14.55" fill="#ffff27" fill-rule="evenodd" stroke="none"/>
    <path d="M0.35 14.55 L6.7 13.1 4.7 8.5 10.2 8.7 9.65 1.0 15.3 6.25 18.5 0.85 20.95 6.25 26.6 1.0 26.05 8.7 32.3 7.55 29.55 13.1 35.65 14.6 30.8 18.65 35.15 22.4 29.55 24.15 32.05 29.75 26.05 28.55 25.8 34.85 20.95 31.0 18.15 36.75 15.3 31.0 10.45 34.4 10.2 28.55 4.2 29.7 6.7 24.15 1.45 22.25 6.3 18.65 0.35 14.55 Z" fill="none" stroke="#897a3d" stroke-linecap="round" stroke-linejoin="round" stroke-width="1.0"/>
  </g>
</svg>
