<?xml version="1.0" encoding="UTF-8" standalone="no"?>
<svg xmlns:ffdec="https://www.free-decompiler.com/flash" xmlns:xlink="http://www.w3.org/1999/xlink" ffdec:objectType="shape" height="37.5px" width="36.55px" xmlns="http://www.w3.org/2000/svg">
  <g transform="matrix(1.0, 0.0, 0.0, 1.0, 0.25, 0.5)">
    <path d="M0.25 14.55 L6.7 13.1 4.45 8.15 10.2 8.7 9.75 1.25 15.3 6.25 18.4 0.0 20.95 6.25 26.5 1.25 26.05 8.7 32.9 7.1 29.55 13.1 35.4 14.65 30.8 18.65 35.8 22.65 29.55 24.15 31.8 29.55 26.05 28.55 26.1 35.5 20.95 31.0 18.15 36.5 15.3 31.0 10.2 34.9 10.2 28.55 4.5 29.45 6.7 24.15 1.1 22.4 6.1 18.65 0.25 14.55" fill="#ffff3b" fill-rule="evenodd" stroke="none"/>
    <path d="M0.25 14.55 L6.7 13.1 4.45 8.15 10.2 8.7 9.75 1.25 15.3 6.25 18.4 0.0 20.95 6.25 26.5 1.25 26.05 8.7 32.9 7.1 29.55 13.1 35.4 14.65 30.8 18.65 35.8 22.65 29.55 24.15 31.8 29.55 26.05 28.55 26.1 35.5 20.95 31.0 18.15 36.5 15.3 31.0 10.2 34.9 10.2 28.55 4.5 29.45 6.7 24.15 1.1 22.4 6.1 18.65 0.25 14.55 Z" fill="none" stroke="#897a3d" stroke-linecap="round" stroke-linejoin="round" stroke-width="1.0"/>
  </g>
</svg>
