<?xml version="1.0" encoding="UTF-8" standalone="no"?>
<svg xmlns:ffdec="https://www.free-decompiler.com/flash" xmlns:xlink="http://www.w3.org/1999/xlink" ffdec:objectType="shape" height="39.4px" width="38.0px" xmlns="http://www.w3.org/2000/svg">
  <g transform="matrix(1.0, 0.0, 0.0, 1.0, 0.4, 2.15)">
    <path d="M0.1 14.5 L6.7 13.1 3.9 7.4 10.2 8.7 9.95 1.65 15.3 6.25 18.25 -1.65 20.95 6.25 26.3 1.65 26.05 8.7 34.15 6.25 29.55 13.1 34.8 14.7 30.8 18.65 37.1 23.05 29.55 24.15 31.2 29.1 26.05 28.55 26.65 36.75 20.95 31.0 18.15 36.0 15.3 31.0 9.65 35.9 10.2 28.55 5.05 28.95 6.7 24.15 0.35 22.6 5.65 18.65 0.1 14.5" fill="#ffff61" fill-rule="evenodd" stroke="none"/>
    <path d="M0.1 14.5 L6.7 13.1 3.9 7.4 10.2 8.7 9.95 1.65 15.3 6.25 18.25 -1.65 20.95 6.25 26.3 1.65 26.05 8.7 34.15 6.25 29.55 13.1 34.8 14.7 30.8 18.65 37.1 23.05 29.55 24.15 31.2 29.1 26.05 28.55 26.65 36.75 20.95 31.0 18.15 36.0 15.3 31.0 9.65 35.9 10.2 28.55 5.05 28.95 6.7 24.15 0.35 22.6 5.65 18.65 0.1 14.5 Z" fill="none" stroke="#897a3d" stroke-linecap="round" stroke-linejoin="round" stroke-width="1.0"/>
  </g>
</svg>
