<?xml version="1.0" encoding="UTF-8" standalone="no"?>
<svg xmlns:ffdec="https://www.free-decompiler.com/flash" xmlns:xlink="http://www.w3.org/1999/xlink" ffdec:objectType="shape" height="40.9px" width="38.75px" xmlns="http://www.w3.org/2000/svg">
  <g transform="matrix(1.0, 0.0, 0.0, 1.0, 0.5, 3.0)">
    <path d="M26.2 1.85 L26.05 8.7 34.75 5.8 29.55 13.1 34.5 14.75 30.8 18.65 37.75 23.25 29.55 24.15 30.9 28.85 26.05 28.55 26.95 37.4 20.95 31.0 18.15 35.75 15.3 31.0 9.4 36.4 10.2 28.55 5.35 28.7 6.7 24.15 0.0 22.75 5.45 18.65 0.0 14.5 6.7 13.1 3.6 7.05 10.2 8.7 10.05 1.85 15.3 6.25 18.15 -2.5 20.95 6.25 26.2 1.85" fill="#ffff75" fill-rule="evenodd" stroke="none"/>
    <path d="M26.2 1.85 L26.05 8.7 34.75 5.8 29.55 13.1 34.5 14.75 30.8 18.65 37.75 23.25 29.55 24.15 30.9 28.85 26.05 28.55 26.95 37.4 20.95 31.0 18.15 35.75 15.3 31.0 9.4 36.4 10.2 28.55 5.35 28.7 6.7 24.15 0.0 22.75 5.45 18.65 0.0 14.5 6.7 13.1 3.6 7.05 10.2 8.7 10.05 1.85 15.3 6.25 18.15 -2.5 20.95 6.25 26.2 1.85 Z" fill="none" stroke="#897a3d" stroke-linecap="round" stroke-linejoin="round" stroke-width="1.0"/>
  </g>
</svg>
