<?xml version="1.0" encoding="UTF-8" standalone="no"?>
<svg xmlns:ffdec="https://www.free-decompiler.com/flash" xmlns:xlink="http://www.w3.org/1999/xlink" ffdec:objectType="shape" height="52.0px" width="52.0px" xmlns="http://www.w3.org/2000/svg">
  <g transform="matrix(1.0, 0.0, 0.0, 1.0, 26.0, 52.0)">
    <path d="M22.9 -26.0 Q22.9 -35.5 16.2 -42.2 9.5 -48.9 0.0 -48.9 -9.55 -48.9 -16.25 -42.2 L-19.1 -38.8 Q-22.6 -33.7 -22.9 -27.3 L-22.95 -26.0 Q-22.95 -16.5 -16.25 -9.8 -9.55 -3.05 0.0 -3.05 9.5 -3.05 16.2 -9.8 22.9 -16.5 22.9 -26.0 M23.9 -26.0 Q23.9 -16.1 16.9 -9.1 9.9 -2.05 0.0 -2.05 -9.95 -2.05 -16.95 -9.1 -23.95 -16.1 -23.95 -26.0 L-23.9 -27.3 -23.55 -30.55 Q-22.75 -35.0 -20.3 -38.8 -18.9 -40.95 -16.95 -42.9 -9.95 -49.9 0.0 -49.9 9.9 -49.9 16.9 -42.9 23.9 -35.9 23.9 -26.0" fill="#384629" fill-rule="evenodd" stroke="none"/>
    <path d="M23.9 -26.0 Q23.9 -35.9 16.9 -42.9 9.9 -49.9 0.0 -49.9 -9.95 -49.9 -16.95 -42.9 -18.9 -40.95 -20.3 -38.8 -22.75 -35.0 -23.55 -30.55 L-23.9 -27.3 -23.95 -26.0 Q-23.95 -16.1 -16.95 -9.1 -9.95 -2.05 0.0 -2.05 9.9 -2.05 16.9 -9.1 23.9 -16.1 23.9 -26.0 M25.0 -26.0 Q25.0 -15.65 17.65 -8.35 10.35 -1.0 0.0 -1.0 -10.35 -1.0 -17.7 -8.35 -25.0 -15.65 -25.0 -26.0 L-24.95 -27.3 -24.6 -30.55 Q-24.25 -32.65 -23.55 -34.6 -22.75 -36.8 -21.55 -38.8 -20.0 -41.35 -17.7 -43.65 -10.35 -51.0 0.0 -51.0 10.35 -51.0 17.65 -43.65 25.0 -36.35 25.0 -26.0" fill="#4c5d37" fill-rule="evenodd" stroke="none"/>
    <path d="M25.0 -26.0 Q25.0 -36.35 17.65 -43.65 10.35 -51.0 0.0 -51.0 -10.35 -51.0 -17.7 -43.65 -20.0 -41.35 -21.55 -38.8 -22.75 -36.8 -23.55 -34.6 -24.25 -32.65 -24.6 -30.55 L-24.95 -27.3 -25.0 -26.0 Q-25.0 -15.65 -17.7 -8.35 -10.35 -1.0 0.0 -1.0 10.35 -1.0 17.65 -8.35 25.0 -15.65 25.0 -26.0 M18.35 -7.65 Q10.75 0.0 0.0 0.0 -10.75 0.0 -18.4 -7.65 -26.0 -15.25 -26.0 -26.0 L-25.95 -27.3 -25.6 -30.55 Q-25.05 -34.05 -23.55 -37.15 L-22.7 -38.8 Q-21.0 -41.75 -18.4 -44.35 -10.75 -52.0 0.0 -52.0 10.75 -52.0 18.35 -44.35 26.0 -36.75 26.0 -26.0 26.0 -15.25 18.35 -7.65" fill="#252c1c" fill-rule="evenodd" stroke="none"/>
  </g>
</svg>
