<?xml version="1.0" encoding="UTF-8" standalone="no"?>
<svg xmlns:ffdec="https://www.free-decompiler.com/flash" xmlns:xlink="http://www.w3.org/1999/xlink" ffdec:objectType="shape" height="100.85px" width="31.8px" xmlns="http://www.w3.org/2000/svg">
  <g transform="matrix(1.0, 0.0, 0.0, 1.0, 21.6, 108.0)">
    <path d="M0.55 -105.4 Q0.1 -104.95 -0.5 -104.95 -1.15 -104.95 -1.6 -105.4 -2.05 -105.85 -2.05 -106.45 -2.05 -107.1 -1.6 -107.55 -1.15 -108.0 -0.5 -108.0 0.1 -108.0 0.55 -107.55 1.0 -107.1 1.0 -106.45 1.0 -105.85 0.55 -105.4 M8.7 -86.0 L9.75 -85.55 Q10.2 -85.1 10.2 -84.45 10.2 -83.85 9.75 -83.4 9.3 -82.95 8.7 -82.95 8.05 -82.95 7.6 -83.4 7.15 -83.85 7.15 -84.45 7.15 -85.1 7.6 -85.55 8.05 -86.0 8.7 -86.0 M-19.55 -87.05 Q-19.35 -86.55 -19.5 -85.95 -19.6 -85.35 -20.0 -84.95 -20.2 -84.8 -20.35 -84.75 L-20.8 -84.7 -21.45 -85.3 -21.5 -85.5 -21.55 -86.4 -21.1 -87.25 -21.0 -87.4 -20.15 -87.65 -19.85 -87.5 -19.55 -87.05 M-4.0 -83.1 L-3.2 -83.5 -2.9 -83.55 Q-2.3 -83.55 -1.85 -83.1 -1.4 -82.65 -1.4 -82.0 -1.4 -81.4 -1.85 -80.95 -2.3 -80.5 -2.9 -80.5 L-3.4 -80.55 -4.0 -80.95 Q-4.45 -81.4 -4.45 -82.0 -4.45 -82.65 -4.0 -83.1 M-3.9 -59.1 Q-3.3 -59.1 -2.85 -58.65 -2.4 -58.2 -2.4 -57.55 -2.4 -56.95 -2.85 -56.5 -3.3 -56.05 -3.9 -56.05 L-4.15 -56.05 Q-4.65 -56.15 -5.0 -56.5 -5.45 -56.95 -5.45 -57.55 -5.45 -58.2 -5.0 -58.65 -4.7 -58.95 -4.25 -59.05 L-3.9 -59.1 M-3.9 -34.65 Q-3.3 -34.65 -2.85 -34.2 -2.4 -33.75 -2.4 -33.1 -2.4 -32.5 -2.85 -32.05 -3.3 -31.6 -3.85 -31.6 L-3.9 -31.6 Q-4.55 -31.6 -5.0 -32.05 -5.45 -32.5 -5.45 -33.1 -5.45 -33.75 -5.0 -34.2 -4.55 -34.65 -3.95 -34.65 L-3.9 -34.65 M-1.45 -9.75 Q-1.0 -9.3 -1.0 -8.65 -1.0 -8.05 -1.45 -7.6 -1.8 -7.25 -2.25 -7.15 L-2.5 -7.15 Q-3.15 -7.15 -3.6 -7.6 -4.05 -8.05 -4.05 -8.65 -4.05 -9.3 -3.6 -9.75 -3.15 -10.2 -2.5 -10.2 L-1.75 -10.0 -1.45 -9.75" fill="#ffffff" fill-rule="evenodd" stroke="none"/>
  </g>
</svg>
