<?xml version="1.0" encoding="UTF-8" standalone="no"?>
<svg xmlns:ffdec="https://www.free-decompiler.com/flash" xmlns:xlink="http://www.w3.org/1999/xlink" ffdec:objectType="shape" height="99.5px" width="6.45px" xmlns="http://www.w3.org/2000/svg">
  <g transform="matrix(1.0, 0.0, 0.0, 1.0, 2.9, 120.25)">
    <path d="M2.55 -117.55 Q2.55 -116.85 2.1 -116.35 1.6 -115.9 0.9 -115.9 0.2 -115.9 -0.25 -116.35 -0.75 -116.85 -0.75 -117.55 -0.75 -118.25 -0.25 -118.7 0.2 -119.2 0.9 -119.2 1.6 -119.2 2.1 -118.7 2.55 -118.25 2.55 -117.55 M1.8 -97.8 Q1.8 -97.1 1.35 -96.6 0.85 -96.15 0.15 -96.15 -0.55 -96.15 -1.0 -96.6 -1.5 -97.1 -1.5 -97.8 -1.5 -98.5 -1.0 -98.95 -0.55 -99.45 0.15 -99.45 0.85 -99.45 1.35 -98.95 L1.8 -97.8 M1.3 -74.45 Q1.3 -73.75 0.85 -73.25 0.35 -72.8 -0.35 -72.8 -1.05 -72.8 -1.5 -73.25 -2.0 -73.75 -2.0 -74.45 -2.0 -75.15 -1.5 -75.6 -1.05 -76.1 -0.35 -76.1 0.35 -76.1 0.85 -75.6 1.3 -75.15 1.3 -74.45 M1.8 -49.1 Q1.8 -48.4 1.35 -47.9 0.85 -47.45 0.15 -47.45 -0.55 -47.45 -1.0 -47.9 -1.5 -48.4 -1.5 -49.1 -1.5 -49.8 -1.0 -50.25 -0.55 -50.75 0.15 -50.75 0.85 -50.75 1.35 -50.25 L1.8 -49.1 M2.3 -23.4 Q2.3 -22.7 1.85 -22.2 1.35 -21.75 0.65 -21.75 -0.05 -21.75 -0.5 -22.2 -1.0 -22.7 -1.0 -23.4 -1.0 -24.1 -0.5 -24.55 -0.05 -25.05 0.65 -25.05 1.35 -25.05 1.85 -24.55 L2.3 -23.4" fill="#ffffff" fill-rule="evenodd" stroke="none"/>
    <path d="M-0.95 -115.65 L-1.35 -116.25 Q-1.75 -116.9 -1.75 -117.55 L-1.45 -118.3 -0.4 -119.85 2.55 -119.7 Q3.55 -118.8 3.55 -117.3 3.55 -116.5 2.8 -115.7 2.05 -114.9 1.15 -114.9 0.0 -114.9 -0.95 -115.65 M2.55 -117.55 Q2.55 -118.25 2.1 -118.7 1.6 -119.2 0.9 -119.2 0.2 -119.2 -0.25 -118.7 -0.75 -118.25 -0.75 -117.55 -0.75 -116.85 -0.25 -116.35 0.2 -115.9 0.9 -115.9 1.6 -115.9 2.1 -116.35 2.55 -116.85 2.55 -117.55 M-1.7 -95.9 L-2.1 -96.5 Q-2.5 -97.15 -2.5 -97.8 L-2.2 -98.55 -1.15 -100.1 1.8 -99.95 Q2.8 -99.05 2.8 -97.55 2.8 -96.75 2.05 -95.95 1.3 -95.15 0.4 -95.15 -0.75 -95.15 -1.7 -95.9 M0.4 -71.9 Q-0.95 -71.9 -1.9 -72.4 -2.85 -72.9 -2.85 -73.6 L-2.8 -75.5 Q-1.25 -77.1 -0.35 -77.1 L0.7 -76.9 Q1.8 -76.3 2.15 -75.4 L2.3 -74.2 Q2.3 -72.5 0.4 -71.9 M1.8 -49.1 L1.35 -50.25 Q0.85 -50.75 0.15 -50.75 -0.55 -50.75 -1.0 -50.25 -1.5 -49.8 -1.5 -49.1 -1.5 -48.4 -1.0 -47.9 -0.55 -47.45 0.15 -47.45 0.85 -47.45 1.35 -47.9 1.8 -48.4 1.8 -49.1 M1.3 -74.45 Q1.3 -75.15 0.85 -75.6 0.35 -76.1 -0.35 -76.1 -1.05 -76.1 -1.5 -75.6 -2.0 -75.15 -2.0 -74.45 -2.0 -73.75 -1.5 -73.25 -1.05 -72.8 -0.35 -72.8 0.35 -72.8 0.85 -73.25 1.3 -73.75 1.3 -74.45 M1.8 -97.8 L1.35 -98.95 Q0.85 -99.45 0.15 -99.45 -0.55 -99.45 -1.0 -98.95 -1.5 -98.5 -1.5 -97.8 -1.5 -97.1 -1.0 -96.6 -0.55 -96.15 0.15 -96.15 0.85 -96.15 1.35 -96.6 1.8 -97.1 1.8 -97.8 M3.25 -23.9 Q3.35 -22.45 2.7 -21.7 1.75 -20.75 0.9 -20.75 L0.1 -20.75 0.1 -20.8 Q-0.7 -20.8 -1.25 -21.25 -1.7 -21.6 -1.8 -22.05 L-1.85 -22.45 -1.95 -23.7 Q-1.95 -24.65 -1.1 -25.35 -0.3 -26.05 0.85 -26.05 1.85 -26.05 2.55 -25.4 3.25 -24.8 3.25 -23.9 M-2.3 -48.05 Q-2.55 -48.85 -2.4 -49.7 -1.65 -50.85 -0.75 -51.4 L0.15 -51.75 Q1.25 -51.75 2.0 -51.0 2.8 -50.2 2.8 -48.85 2.8 -48.05 2.05 -47.25 1.3 -46.45 0.4 -46.45 -1.4 -46.45 -2.3 -48.05 M2.3 -23.4 L1.85 -24.55 Q1.35 -25.05 0.65 -25.05 -0.05 -25.05 -0.5 -24.55 -1.0 -24.1 -1.0 -23.4 -1.0 -22.7 -0.5 -22.2 -0.05 -21.75 0.65 -21.75 1.35 -21.75 1.85 -22.2 2.3 -22.7 2.3 -23.4" fill="#8a8a8a" fill-rule="evenodd" stroke="none"/>
  </g>
</svg>
