<?xml version="1.0" encoding="UTF-8" standalone="no"?>
<svg xmlns:ffdec="https://www.free-decompiler.com/flash" xmlns:xlink="http://www.w3.org/1999/xlink" ffdec:objectType="shape" height="65.15px" width="71.75px" xmlns="http://www.w3.org/2000/svg">
  <g transform="matrix(1.0, 0.0, 0.0, 1.0, 35.85, 32.55)">
    <path d="M2.05 -11.65 Q2.2 -12.55 3.0 -14.0 5.0 -17.35 10.6 -22.55 L10.6 -22.6 13.45 -25.75 13.5 -25.8 Q16.4 -28.6 18.9 -28.55 20.75 -28.55 22.3 -27.45 L24.85 -24.95 24.8 -25.05 Q32.65 -17.85 33.1 -14.7 32.7 -11.25 25.95 -5.85 23.45 -3.9 20.05 -0.45 18.1 1.5 16.3 1.45 13.85 1.45 12.25 -0.25 L9.55 2.35 10.1 2.85 9.55 3.35 26.35 19.45 26.4 19.5 Q27.4 20.6 27.55 22.05 27.35 24.75 24.8 27.15 22.15 29.65 19.45 29.6 18.25 29.6 17.4 29.05 L0.0 12.45 -16.6 28.5 Q-17.9 29.6 -19.4 29.6 -21.35 29.65 -24.0 27.7 -27.25 25.4 -27.45 22.1 -27.4 21.05 -26.9 20.25 L-26.85 20.2 Q-26.5 19.6 -9.55 3.35 L-10.05 2.85 -9.55 2.35 -12.1 -0.15 -13.1 0.75 -13.15 0.8 Q-14.1 1.35 -16.35 1.35 -18.25 1.4 -20.95 -0.8 -23.4 -2.85 -27.8 -7.9 L-27.75 -7.8 -31.45 -11.3 -31.5 -11.35 Q-32.8 -12.65 -32.95 -14.7 L-32.65 -16.2 -32.6 -16.25 -32.0 -17.6 -31.85 -17.8 -23.6 -26.2 -21.45 -28.05 -18.15 -28.5 -18.1 -28.5 Q-15.35 -28.7 -12.5 -25.15 -10.55 -22.7 -5.45 -17.85 -2.35 -14.85 -2.0 -12.85 L-2.4 -11.3 -2.4 -11.25 Q-2.8 -10.15 -3.35 -9.25 L-2.95 -8.9 -3.35 -8.25 0.05 -4.95 3.25 -8.05 2.8 -8.6 3.25 -9.05 Q2.1 -10.25 2.05 -11.65" fill="#e5e5e5" fill-rule="evenodd" stroke="none"/>
    <path d="M2.05 -11.65 L2.0 -12.0 Q1.8 -12.9 3.0 -15.0 5.0 -18.35 10.6 -23.55 L10.6 -23.6 13.45 -26.75 13.5 -26.8 Q16.4 -29.6 18.9 -29.55 20.75 -29.55 22.3 -28.45 L24.85 -25.95 24.8 -26.05 Q33.25 -18.3 33.1 -15.25 L33.1 -14.7 Q32.65 -17.85 24.8 -25.05 L24.85 -24.95 22.3 -27.45 Q20.75 -28.55 18.9 -28.55 16.4 -28.6 13.5 -25.8 L13.45 -25.75 10.6 -22.6 10.6 -22.55 Q5.0 -17.35 3.0 -14.0 2.2 -12.55 2.05 -11.65 M10.1 2.85 L26.35 18.45 26.4 18.5 Q27.55 19.75 27.55 21.45 L27.55 22.05 Q27.4 20.6 26.4 19.5 L26.35 19.45 9.55 3.35 10.1 2.85 M-27.45 22.1 L-27.5 21.5 Q-27.5 20.2 -26.9 19.25 L-26.85 19.2 -10.05 2.85 -9.55 3.35 Q-26.5 19.6 -26.85 20.2 L-26.9 20.25 Q-27.4 21.05 -27.45 22.1 M-32.95 -14.7 L-33.0 -15.3 -32.65 -17.2 -32.6 -17.25 -32.0 -18.6 -31.85 -18.8 -23.6 -27.2 -21.45 -29.05 -18.15 -29.5 -18.1 -29.5 Q-15.35 -29.7 -12.5 -26.15 -10.55 -23.7 -5.45 -18.85 -1.9 -15.45 -2.0 -13.3 L-2.0 -12.85 Q-2.35 -14.85 -5.45 -17.85 -10.55 -22.7 -12.5 -25.15 -15.35 -28.7 -18.1 -28.5 L-18.15 -28.5 -21.45 -28.05 -23.6 -26.2 -31.85 -17.8 -32.0 -17.6 -32.6 -16.25 -32.65 -16.2 -32.95 -14.7 M-2.95 -8.9 L0.05 -5.95 2.8 -8.6 3.25 -8.05 0.05 -4.95 -3.35 -8.25 -2.95 -8.9" fill="#b1b1b1" fill-rule="evenodd" stroke="none"/>
    <path d="M33.1 -14.7 L33.1 -15.25 Q33.25 -18.3 24.8 -26.05 L24.85 -25.95 22.3 -28.45 Q20.75 -29.55 18.9 -29.55 16.4 -29.6 13.5 -26.8 L13.45 -26.75 10.6 -23.6 10.6 -23.55 Q5.0 -18.35 3.0 -15.0 1.8 -12.9 2.0 -12.0 L2.05 -11.65 Q2.1 -10.25 3.25 -9.05 L2.8 -8.6 0.05 -5.95 -2.95 -8.9 -3.35 -9.25 Q-2.8 -10.15 -2.4 -11.25 L-2.4 -11.3 -2.0 -12.85 -2.0 -13.3 Q-1.9 -15.45 -5.45 -18.85 -10.55 -23.7 -12.5 -26.15 -15.35 -29.7 -18.1 -29.5 L-18.15 -29.5 -21.45 -29.05 -23.6 -27.2 -31.85 -18.8 -32.0 -18.6 -32.6 -17.25 -32.65 -17.2 -33.0 -15.3 -32.95 -14.7 Q-32.8 -12.65 -31.5 -11.35 L-31.45 -11.3 -27.75 -7.8 -27.8 -7.9 Q-23.4 -2.85 -20.95 -0.8 -18.25 1.4 -16.35 1.35 -14.1 1.35 -13.15 0.8 L-13.1 0.75 -12.1 -0.15 -9.55 2.35 -10.05 2.85 -26.85 19.2 -26.9 19.25 Q-27.5 20.2 -27.5 21.5 L-27.45 22.1 Q-27.25 25.4 -24.0 27.7 -21.35 29.65 -19.4 29.6 -17.9 29.6 -16.6 28.5 L0.0 12.45 17.4 29.05 Q18.25 29.6 19.45 29.6 22.15 29.65 24.8 27.15 27.35 24.75 27.55 22.05 L27.55 21.45 Q27.55 19.75 26.4 18.5 L26.35 18.45 10.1 2.85 9.55 2.35 12.25 -0.25 Q13.85 1.45 16.3 1.45 18.1 1.5 20.05 -0.45 23.45 -3.9 25.95 -5.85 32.7 -11.25 33.1 -14.7 M-3.3 -21.25 Q-0.95 -19.2 0.2 -16.45 L1.1 -17.75 1.15 -17.8 Q4.5 -22.0 8.45 -25.75 L8.5 -25.75 12.25 -29.45 Q17.4 -34.7 23.8 -31.0 L24.0 -30.85 26.25 -29.0 26.3 -29.0 Q30.55 -25.1 34.5 -20.05 L34.55 -20.0 Q36.0 -18.2 35.9 -15.5 L35.9 -15.45 Q35.7 -10.1 31.15 -6.25 26.5 -2.4 22.2 1.75 L22.2 1.8 Q19.25 4.55 16.25 4.6 L28.45 16.4 Q30.75 18.65 30.55 21.6 30.3 27.35 25.25 30.85 L25.2 30.85 Q22.55 32.6 19.45 32.6 L18.65 32.5 Q16.9 32.0 15.75 31.0 7.65 24.05 0.0 16.65 L-15.4 31.0 -15.45 31.05 Q-16.5 32.0 -18.1 32.35 L-17.85 32.3 -21.8 32.15 Q-25.75 30.8 -28.3 27.5 -31.05 24.0 -30.15 19.8 L-30.1 19.65 Q-29.85 18.25 -28.8 17.25 L-15.9 4.4 -16.25 4.4 Q-17.6 4.5 -19.15 3.75 L-19.25 3.7 Q-24.9 0.5 -29.1 -4.7 L-29.15 -4.75 -30.8 -6.35 -30.85 -6.4 Q-36.25 -10.15 -35.8 -16.35 -35.65 -18.95 -33.95 -20.7 L-33.9 -20.75 -25.05 -30.0 Q-23.25 -31.9 -20.7 -32.3 -15.55 -33.4 -11.85 -29.55 -7.75 -25.2 -3.3 -21.25 M1.2 -11.2 L0.1 -10.15 0.1 -10.1 1.0 -9.2 1.2 -11.2 M0.15 -8.25 L-0.25 -9.1 -0.5 -8.35 -0.75 -9.35 -2.0 -8.1 0.25 -8.1 0.15 -8.25" fill="#ffffff" fill-rule="evenodd" stroke="none"/>
  </g>
</svg>
