<?xml version="1.0" encoding="UTF-8" standalone="no"?>
<svg xmlns:ffdec="https://www.free-decompiler.com/flash" xmlns:xlink="http://www.w3.org/1999/xlink" ffdec:objectType="shape" height="86.95px" width="88.95px" xmlns="http://www.w3.org/2000/svg">
  <g transform="matrix(1.0, 0.0, 0.0, 1.0, 35.95, 63.7)">
    <path d="M3.6 21.1 Q23.35 22.85 36.6 9.8 39.85 6.6 42.25 3.0 46.65 -3.55 48.2 -11.4 49.0 -15.65 49.0 -20.25 49.0 -39.1 35.3 -51.05 23.15 -61.7 7.5 -61.7 0.6 -61.7 -7.8 -58.25 -14.4 -55.6 -18.85 -52.3 -23.0 -49.05 -24.6 -47.1 -29.3 -41.2 -32.55 -30.85 L-32.95 -29.6 -33.15 -28.65 -33.15 -28.6 -33.2 -28.45 -33.15 -28.5 -33.25 -28.05 -33.35 -27.75 -33.5 -26.85 Q-33.95 -23.65 -33.95 -20.25 -34.0 -3.05 -21.85 9.05 -17.1 13.8 -11.5 16.75 L-11.55 16.7 -8.45 18.15 -3.0 19.7 3.6 21.1 M46.7 -1.2 Q43.55 5.1 38.2 10.45 25.5 23.2 7.5 23.25 0.45 23.2 -5.85 21.25 -9.3 20.15 -12.45 18.5 -18.3 15.4 -23.25 10.45 -36.0 -2.25 -35.95 -20.25 -35.95 -23.65 -35.5 -26.85 L-34.65 -31.15 -32.65 -37.25 Q-30.5 -42.35 -26.9 -46.85 L-23.65 -50.6 -23.5 -50.8 Q-23.35 -51.1 -23.0 -51.2 -10.35 -63.7 7.5 -63.7 25.5 -63.7 38.2 -51.0 50.95 -38.25 51.0 -20.25 50.95 -11.15 47.7 -3.4 L47.65 -3.25 47.0 -1.8 46.7 -1.2" fill="#aa6a40" fill-rule="evenodd" stroke="none"/>
    <path d="M-33.15 -28.5 L-33.2 -28.45 -33.15 -28.6 -33.15 -28.65 -32.95 -29.6 -32.55 -30.85 Q-29.3 -41.2 -24.6 -47.1 -23.0 -49.05 -18.85 -52.3 -14.4 -55.6 -7.8 -58.25 0.6 -61.7 7.5 -61.7 23.15 -61.7 35.3 -51.05 49.0 -39.1 49.0 -20.25 49.0 -15.65 48.2 -11.4 46.65 -3.55 42.25 3.0 39.85 6.6 36.6 9.8 23.35 22.85 3.6 21.1 19.75 20.35 30.85 9.5 L31.6 8.75 Q35.4 4.25 37.85 -1.1 L36.9 -3.15 Q35.7 -6.2 35.3 -8.65 35.2 -9.35 35.25 -10.9 35.15 -12.2 33.95 -12.9 L30.0 -14.65 Q28.9 -15.15 28.9 -16.7 L29.35 -19.5 29.9 -22.0 30.05 -24.55 30.15 -25.7 30.1 -25.2 Q25.45 -27.75 19.35 -29.75 L16.3 -30.4 4.95 -32.5 -5.7 -33.5 Q-10.7 -33.7 -17.3 -33.55 L-26.25 -32.6 Q-29.55 -32.0 -30.4 -31.4 L-32.7 -29.1 -33.15 -28.5" fill="#f1b67a" fill-rule="evenodd" stroke="none"/>
    <path d="M3.6 21.1 L-3.0 19.7 -8.45 18.15 -11.55 16.7 -11.5 16.75 Q-17.1 13.8 -21.85 9.05 -34.0 -3.05 -33.95 -20.25 -33.95 -23.65 -33.5 -26.85 L-33.35 -27.75 -33.25 -28.05 -33.15 -28.5 -32.7 -29.1 -30.4 -31.4 Q-29.55 -32.0 -26.25 -32.6 L-17.3 -33.55 Q-10.7 -33.7 -5.7 -33.5 L4.95 -32.5 16.3 -30.4 19.35 -29.75 Q25.45 -27.75 30.1 -25.2 L30.15 -25.7 30.05 -24.55 29.9 -22.0 29.35 -19.5 28.9 -16.7 Q28.9 -15.15 30.0 -14.65 L33.95 -12.9 Q35.15 -12.2 35.25 -10.9 35.2 -9.35 35.3 -8.65 35.7 -6.2 36.9 -3.15 L37.85 -1.1 Q35.4 4.25 31.6 8.75 L30.85 9.5 Q19.75 20.35 3.6 21.1 M46.7 -1.2 L47.0 -1.8 47.65 -3.25 47.7 -3.4 49.25 -1.15 49.25 0.65 49.3 0.8 48.65 0.95 47.35 -0.4 46.7 -1.2 M-22.7 -29.5 Q-23.75 -26.95 -24.3 -24.3 L-24.55 -22.95 Q-20.1 -23.55 -16.5 -21.1 -13.95 -19.4 -10.95 -19.95 -8.9 -22.25 -6.15 -22.75 L5.35 -23.35 Q12.65 -23.15 19.65 -20.7 L26.9 -18.2 27.1 -17.75 26.65 -18.85 Q27.1 -20.2 26.8 -21.7 L26.1 -25.05 18.65 -27.8 12.6 -29.55 Q6.65 -30.95 0.4 -31.1 L-16.5 -31.3 -21.8 -31.15 -22.7 -29.5 M27.45 -10.0 Q28.35 -11.1 28.65 -12.4 L27.3 -12.75 25.3 -13.0 21.5 -13.4 20.0 -13.8 18.8 -13.75 Q18.15 -9.75 17.05 -7.75 15.15 -4.25 8.7 -2.3 L5.2 -2.1 1.8 -2.1 -3.1 -2.1 Q-7.5 -2.8 -8.8 -5.95 -10.1 -9.15 -9.6 -11.95 -9.55 -12.6 -10.25 -12.85 L-11.25 -13.15 -12.3 -13.1 Q-12.9 -9.5 -13.85 -7.7 -15.5 -4.45 -20.5 -2.9 L-21.0 -2.9 -21.1 -3.2 Q-20.45 -1.35 -19.75 -0.5 -18.4 3.3 -11.95 9.8 -5.55 16.3 3.15 15.8 8.7 15.05 14.0 12.5 28.75 5.55 31.85 -6.2 30.35 -5.4 28.45 -5.4 25.35 -5.4 23.6 -7.05 26.2 -8.5 27.45 -10.0" fill="#ffce9d" fill-rule="evenodd" stroke="none"/>
    <path d="M-22.7 -29.5 L-21.8 -31.15 -16.5 -31.3 0.4 -31.1 Q6.65 -30.95 12.6 -29.55 L18.65 -27.8 26.1 -25.05 26.8 -21.7 Q27.1 -20.2 26.65 -18.85 L27.1 -17.75 26.9 -18.2 19.65 -20.7 Q12.65 -23.15 5.35 -23.35 L-6.15 -22.75 Q-8.9 -22.25 -10.95 -19.95 -13.95 -19.4 -16.5 -21.1 -20.1 -23.55 -24.55 -22.95 L-24.3 -24.3 Q-23.75 -26.95 -22.7 -29.5 M27.45 -10.0 Q26.2 -8.5 23.6 -7.05 25.35 -5.4 28.45 -5.4 30.35 -5.4 31.85 -6.2 28.75 5.55 14.0 12.5 8.7 15.05 3.15 15.8 -5.55 16.3 -11.95 9.8 -18.4 3.3 -19.75 -0.5 -20.45 -1.35 -21.1 -3.2 L-21.0 -2.9 -20.5 -2.9 Q-15.5 -4.45 -13.85 -7.7 -12.9 -9.5 -12.3 -13.1 L-11.25 -13.15 -10.25 -12.85 Q-9.55 -12.6 -9.6 -11.95 -10.1 -9.15 -8.8 -5.95 -7.5 -2.8 -3.1 -2.1 L1.8 -2.1 5.2 -2.1 8.7 -2.3 Q15.15 -4.25 17.05 -7.75 18.15 -9.75 18.8 -13.75 L20.0 -13.8 21.5 -13.4 25.3 -13.0 27.3 -12.75 28.65 -12.4 Q28.35 -11.1 27.45 -10.0" fill="#ffdfbf" fill-rule="evenodd" stroke="none"/>
    <path d="M42.75 -18.2 Q41.9 -17.8 42.35 -14.55 L43.0 -11.3 45.15 -7.5 46.85 -4.55 Q47.8 -2.45 47.6 -0.8 47.4 1.4 45.6 4.35 50.8 -1.6 51.55 -6.3 52.15 -9.8 50.3 -13.8 47.3 -20.35 42.75 -18.2 M51.9 -2.5 Q49.8 3.95 45.4 6.0 43.4 6.95 42.7 6.8 L42.4 6.45 Q42.25 6.2 44.5 2.65 46.65 -1.4 45.45 -3.8 L44.35 -5.55 43.3 -7.35 Q41.9 -10.4 41.45 -12.2 40.8 -15.25 41.6 -18.1 42.05 -19.6 43.2 -20.1 45.3 -21.1 47.45 -20.1 L49.3 -18.5 Q50.65 -17.5 51.6 -15.2 52.45 -12.95 52.6 -11.6 L53.0 -7.5 Q52.8 -5.1 51.9 -2.5" fill="#25170d" fill-rule="evenodd" stroke="none"/>
    <path d="M42.75 -18.2 Q47.3 -20.35 50.3 -13.8 52.15 -9.8 51.55 -6.3 50.8 -1.6 45.6 4.35 47.4 1.4 47.6 -0.8 47.8 -2.45 46.85 -4.55 L45.15 -7.5 43.0 -11.3 42.35 -14.55 Q41.9 -17.8 42.75 -18.2" fill="#311f11" fill-rule="evenodd" stroke="none"/>
  </g>
</svg>
