<?xml version="1.0" encoding="UTF-8" standalone="no"?>
<svg xmlns:ffdec="https://www.free-decompiler.com/flash" xmlns:xlink="http://www.w3.org/1999/xlink" ffdec:objectType="shape" height="26.4px" width="66.1px" xmlns="http://www.w3.org/2000/svg">
  <g transform="matrix(1.0, 0.0, 0.0, 1.0, 34.2, 13.25)">
    <path d="M31.9 -13.25 L31.9 -6.9 29.9 -6.9 29.9 -3.0 26.0 -3.0 26.0 3.05 29.9 3.05 29.9 6.95 31.9 6.95 31.9 13.15 5.2 13.15 Q7.0 12.15 8.6 10.55 13.0 6.15 13.0 -0.1 13.0 -6.35 8.6 -10.8 L5.4 -13.25 31.9 -13.25 M-9.4 13.15 L-34.2 13.15 -34.2 -13.25 -9.6 -13.25 -12.75 -10.8 Q-17.2 -6.35 -17.2 -0.1 -17.2 6.15 -12.75 10.55 -11.2 12.15 -9.4 13.15" fill="url(#gradient0)" fill-rule="evenodd" stroke="none"/>
  </g>
  <defs>
    <linearGradient gradientTransform="matrix(-1.0E-4, -0.0326, 0.069, -3.0E-4, -6.55, 45.1)" gradientUnits="userSpaceOnUse" id="gradient0" spreadMethod="pad" x1="-819.2" x2="819.2">
      <stop offset="0.0" stop-color="#f5daaf"/>
      <stop offset="1.0" stop-color="#a87342"/>
    </linearGradient>
  </defs>
</svg>
