<?xml version="1.0" encoding="UTF-8" standalone="no"?>
<svg xmlns:ffdec="https://www.free-decompiler.com/flash" xmlns:xlink="http://www.w3.org/1999/xlink" ffdec:objectType="shape" height="17.85px" width="17.85px" xmlns="http://www.w3.org/2000/svg">
  <g transform="matrix(1.0, 0.0, 0.0, 1.0, 0.5, 0.5)">
    <path d="M11.1 8.2 L16.85 13.95 13.95 16.85 8.2 11.1 2.85 16.45 0.0 13.6 5.35 8.25 0.35 3.25 3.25 0.35 8.25 5.35 13.6 0.0 16.45 2.85 11.1 8.2" fill="#cc0000" fill-rule="evenodd" stroke="none"/>
    <path d="M11.1 8.2 L16.85 13.95 13.95 16.85 8.2 11.1 2.85 16.45 0.0 13.6 5.35 8.25 0.35 3.25 3.25 0.35 8.25 5.35 13.6 0.0 16.45 2.85 11.1 8.2 Z" fill="none" stroke="#ffffff" stroke-linecap="round" stroke-linejoin="round" stroke-width="1.0"/>
  </g>
</svg>
