<?xml version="1.0" encoding="UTF-8" standalone="no"?>
<svg xmlns:ffdec="https://www.free-decompiler.com/flash" xmlns:xlink="http://www.w3.org/1999/xlink" ffdec:objectType="shape" height="32.35px" width="25.15px" xmlns="http://www.w3.org/2000/svg">
  <g transform="matrix(1.0, 0.0, 0.0, 1.0, -11.1, -8.0)">
    <path d="M20.35 25.2 L21.3 25.1 21.75 25.2 21.8 25.2 22.4 25.2 23.05 24.8 23.45 24.5 23.65 24.55 23.7 24.55 24.0 24.6 24.75 24.65 24.85 24.65 24.9 24.65 25.4 24.55 25.8 24.4 Q26.15 24.2 26.35 24.15 L26.65 24.05 27.35 24.2 27.9 24.3 28.25 24.3 28.8 24.15 29.3 23.95 30.15 24.05 30.8 24.2 31.05 24.2 31.2 24.25 31.55 24.35 31.9 24.4 32.3 24.5 32.9 24.55 33.5 24.35 33.65 24.9 33.65 25.0 32.85 24.9 32.55 24.9 31.9 24.85 31.05 24.8 31.0 24.8 29.4 24.85 26.7 25.0 26.55 25.05 25.85 25.1 25.35 25.15 25.15 25.2 24.65 25.25 22.8 25.55 22.4 25.6 21.65 25.75 20.3 26.0 20.3 25.6 20.3 25.25 20.35 25.2" fill="#d2d2d2" fill-rule="evenodd" stroke="none"/>
    <path d="M15.15 27.0 L15.35 24.65 15.7 24.45 15.75 24.4 15.95 22.65 16.5 22.45 16.55 22.4 16.6 22.35 17.25 20.65 17.85 20.6 17.95 20.55 18.6 19.65 18.95 19.05 19.6 18.95 19.75 18.95 20.2 18.6 20.65 18.1 21.15 18.1 21.25 18.05 21.3 18.05 21.35 17.95 21.6 17.75 22.3 17.35 22.6 17.25 22.7 17.2 23.15 17.45 23.25 17.45 23.35 17.45 23.6 17.2 24.05 16.95 24.3 16.85 25.45 17.15 25.5 17.15 25.6 17.15 25.9 16.85 26.05 16.9 26.55 17.1 27.65 17.3 27.7 17.3 28.25 17.2 28.35 17.25 28.15 17.35 Q27.9 17.6 27.8 18.0 L27.85 18.0 27.85 18.25 27.7 18.15 27.65 18.15 26.9 17.75 26.4 17.8 26.1 17.8 26.0 17.8 25.8 17.8 25.65 17.8 25.55 17.7 25.6 17.8 25.4 17.9 25.35 17.9 25.25 17.7 24.05 17.8 23.8 17.85 23.6 17.9 23.55 17.9 23.35 18.35 23.25 18.65 23.2 18.95 23.0 19.1 22.9 19.0 22.85 18.75 23.0 18.1 22.7 18.15 22.6 18.15 22.5 18.1 21.75 18.25 21.45 18.7 21.35 18.85 21.15 19.2 20.85 19.75 20.55 20.35 20.5 20.4 Q20.15 21.2 20.1 20.9 L20.05 20.75 Q20.2 20.2 20.5 19.7 L20.75 19.2 21.0 18.65 21.1 18.5 21.15 18.45 20.75 18.65 20.55 18.75 20.45 18.85 20.35 19.0 20.3 19.15 20.0 19.65 19.65 20.25 19.3 21.3 19.3 21.35 19.3 21.8 19.1 21.95 19.0 21.9 18.95 21.55 18.95 21.45 Q18.9 20.95 19.35 20.05 L18.9 20.65 18.75 21.2 18.75 21.25 18.45 21.65 18.05 22.3 17.85 22.7 17.8 22.75 18.25 22.8 18.5 23.05 18.25 24.15 18.0 25.35 Q16.55 25.5 16.0 26.0 L15.55 26.6 15.15 27.0 M29.6 17.75 L30.0 17.7 30.5 18.15 31.35 18.8 31.4 18.9 31.5 18.9 32.1 18.85 33.15 20.35 33.2 20.4 33.25 20.4 33.8 20.45 34.15 21.65 34.15 21.7 34.4 22.1 34.55 22.15 34.85 22.25 35.4 23.75 34.7 23.55 34.7 23.35 34.15 22.6 34.0 22.25 33.9 21.95 33.6 21.5 33.25 21.25 33.1 21.05 33.3 21.7 33.35 22.35 33.05 21.8 32.85 21.1 32.5 20.5 32.15 19.8 31.5 19.3 31.2 19.05 31.35 19.35 Q31.4 19.65 31.2 19.55 L31.35 19.7 Q31.4 20.2 31.05 19.75 L30.45 18.9 30.1 18.55 30.05 18.55 29.75 18.45 29.75 18.4 29.6 17.75 M35.6 24.5 L35.6 24.55 35.65 24.65 35.7 24.9 35.7 24.95 35.2 24.65 Q34.5 24.25 34.2 24.3 L33.5 24.35 32.9 24.55 32.3 24.5 31.9 24.4 31.55 24.35 31.2 24.25 31.05 24.2 30.8 24.2 30.15 24.05 29.3 23.95 28.8 24.15 28.25 24.3 27.9 24.3 27.35 24.2 26.65 24.05 26.35 24.15 Q26.15 24.2 25.8 24.4 L25.4 24.55 24.9 24.65 24.85 24.65 24.75 24.65 24.0 24.6 23.7 24.55 23.65 24.55 23.45 24.5 23.05 24.8 22.4 25.2 21.8 25.2 21.75 25.2 21.3 25.1 20.35 25.2 19.9 25.25 19.55 25.5 19.45 25.6 18.65 26.0 18.1 26.2 18.0 26.2 16.2 26.65 15.85 27.05 15.2 27.75 15.2 27.35 16.6 26.1 17.6 26.0 17.75 26.0 18.05 25.95 18.1 25.95 18.15 25.9 18.35 25.8 18.4 25.8 18.7 25.75 18.9 25.65 19.0 25.55 19.3 25.4 19.4 25.35 19.5 25.15 19.8 24.9 20.5 24.85 21.35 24.75 21.5 24.75 21.8 24.8 21.95 24.85 22.35 24.85 Q22.65 24.8 22.95 24.55 L23.25 24.15 24.1 24.25 24.2 24.3 24.8 24.35 24.9 24.35 25.6 24.15 26.1 23.95 26.3 23.9 26.4 23.8 26.65 23.7 27.35 23.85 28.25 23.95 28.5 23.9 28.85 23.75 29.35 23.65 29.85 23.7 30.2 23.75 30.45 23.8 30.95 23.95 31.05 23.95 31.25 24.0 31.9 24.1 32.0 24.15 32.65 24.2 32.85 24.2 32.85 24.25 33.0 24.15 34.15 24.0 34.85 24.1 34.95 24.2 35.15 24.25 35.35 24.4 35.6 24.5 M30.8 18.9 L30.6 18.55 30.5 18.55 30.55 18.6 30.8 18.9 M16.9 24.4 L17.05 24.85 Q17.25 25.2 17.2 24.85 17.1 24.15 17.3 23.3 L17.45 22.5 17.45 22.45 17.05 23.35 16.9 24.4 M19.0 22.4 L19.0 22.5 18.95 22.4 19.0 22.4" fill="#5f331d" fill-rule="evenodd" stroke="none"/>
    <path d="M15.65 22.65 L15.65 22.55 15.7 22.5 15.7 22.4 16.35 22.15 16.4 22.05 16.5 21.7 16.7 21.15 16.9 20.45 17.0 20.4 17.1 20.35 17.7 20.3 18.15 19.7 18.55 19.05 18.7 18.8 18.75 18.75 18.85 18.7 19.55 18.65 19.7 18.55 20.4 17.85 20.5 17.85 20.55 17.8 21.0 17.8 21.35 17.5 22.1 17.15 22.3 17.05 22.7 16.9 23.0 17.05 23.15 17.1 23.45 16.85 23.85 16.65 24.25 16.5 24.35 16.5 24.5 16.55 24.85 16.65 25.3 16.75 25.45 16.8 25.55 16.75 25.85 16.55 25.9 16.5 26.0 16.5 26.15 16.55 26.7 16.75 27.65 17.0 28.2 16.9 28.25 16.9 28.35 16.95 28.8 17.05 29.45 17.45 30.05 17.3 30.2 17.35 30.25 17.4 31.55 18.6 32.15 18.55 32.25 18.55 32.3 18.55 33.35 20.05 34.0 20.2 34.1 20.25 34.1 20.3 34.65 21.95 35.05 22.0 35.05 22.05 35.15 22.1 36.05 25.05 35.7 24.9 35.65 24.65 35.6 24.55 35.6 24.5 35.4 23.75 34.85 22.25 34.55 22.15 34.4 22.1 34.15 21.7 34.15 21.65 33.8 20.45 33.25 20.4 33.2 20.4 33.15 20.35 32.1 18.85 31.5 18.9 31.4 18.9 31.35 18.8 30.5 18.15 30.0 17.7 29.6 17.75 29.5 17.65 28.8 17.15 28.75 17.15 28.35 17.25 28.25 17.2 27.7 17.3 27.65 17.3 26.55 17.1 26.05 16.9 25.9 16.85 25.6 17.15 25.5 17.15 25.45 17.15 24.3 16.85 24.05 16.95 23.6 17.2 23.35 17.45 23.25 17.45 23.15 17.45 22.7 17.2 22.6 17.25 22.3 17.35 21.6 17.75 21.35 17.95 21.3 18.05 21.25 18.05 21.15 18.1 20.65 18.1 20.2 18.6 19.75 18.95 19.6 18.95 18.95 19.05 18.6 19.65 17.95 20.55 17.85 20.6 17.25 20.65 16.6 22.35 16.55 22.4 16.5 22.45 15.95 22.65 15.75 24.4 15.7 24.45 15.35 24.65 15.15 27.0 15.2 27.35 15.2 27.75 15.2 27.9 14.95 28.25 Q14.8 26.4 15.05 24.55 L15.05 24.45 15.15 24.4 15.45 24.3 15.65 22.65 M25.6 18.15 L25.75 18.2 26.0 18.25 26.0 18.3 26.3 18.5 26.35 18.55 26.45 18.6 26.55 19.25 26.5 19.5 26.2 19.65 26.15 19.7 25.6 19.75 25.15 19.4 25.15 19.35 25.1 19.1 25.1 18.75 25.4 18.3 25.4 18.25 25.55 18.2 25.6 18.15 M29.45 18.35 L29.45 18.4 29.2 18.75 29.05 18.85 28.95 18.9 28.9 18.9 28.8 18.9 28.35 18.6 28.2 18.35 28.2 18.3 28.2 18.05 28.2 18.0 Q28.2 17.8 28.35 17.65 L28.4 17.65 28.8 17.6 Q29.05 17.6 29.25 17.85 L29.45 18.35 M28.8 20.4 L28.95 20.95 28.75 21.4 28.75 21.45 28.65 21.45 28.35 21.5 28.3 21.5 27.85 21.2 27.7 20.7 27.7 20.65 27.8 20.3 27.85 20.2 27.9 20.2 28.0 20.15 28.3 20.15 28.3 20.2 28.8 20.4" fill="#412314" fill-rule="evenodd" stroke="none"/>
    <path d="M28.35 17.25 L28.75 17.15 28.8 17.15 29.5 17.65 29.6 17.75 29.75 18.4 29.75 18.45 29.6 18.4 29.45 18.35 29.25 17.85 Q29.05 17.6 28.8 17.6 L28.4 17.65 28.35 17.65 Q28.2 17.8 28.2 18.0 L28.2 18.05 28.2 18.3 28.15 18.3 28.1 18.25 28.05 18.3 28.0 18.3 27.85 18.25 27.95 18.55 28.15 18.8 28.25 18.95 28.0 18.9 27.8 19.2 27.7 19.5 27.6 19.55 27.35 19.3 27.3 19.2 27.15 18.9 27.05 18.55 Q26.9 18.25 26.7 18.3 L26.4 17.95 26.1 17.8 26.4 17.8 26.9 17.75 27.65 18.15 27.7 18.15 27.85 18.25 27.85 18.0 27.8 18.0 Q27.9 17.6 28.15 17.35 L28.35 17.25 M35.4 23.75 L35.6 24.5 35.35 24.4 35.15 24.25 34.95 24.2 34.85 24.1 34.7 23.75 34.7 23.65 34.4 23.65 33.35 23.75 32.95 23.7 32.45 22.3 Q31.9 20.95 31.55 21.0 L31.4 21.15 31.95 22.5 Q32.05 23.25 31.7 22.5 L30.95 21.0 30.55 20.2 30.55 20.15 Q29.85 19.3 29.4 19.4 L29.1 20.1 28.65 19.3 28.55 19.15 28.75 19.2 29.45 19.05 29.75 18.5 29.75 18.45 30.05 18.55 30.1 18.55 30.45 18.9 31.05 19.75 Q31.4 20.2 31.35 19.7 L31.2 19.55 Q31.4 19.65 31.35 19.35 L31.2 19.05 31.5 19.3 32.15 19.8 32.5 20.5 32.85 21.1 33.05 21.8 33.35 22.35 33.3 21.7 33.1 21.05 33.25 21.25 33.6 21.5 33.9 21.95 34.0 22.25 34.15 22.6 34.7 23.35 34.7 23.55 35.4 23.75 M25.65 17.8 L25.6 17.8 25.55 17.7 25.65 17.8 M25.35 17.9 L25.25 17.9 25.0 18.05 Q24.75 18.25 24.65 18.6 L24.65 18.65 24.65 19.0 24.8 19.5 Q24.5 19.2 24.3 19.25 L24.1 19.5 23.85 20.1 23.6 21.0 23.2 20.6 23.0 20.4 22.95 20.25 22.85 19.85 22.65 19.6 22.5 19.55 Q22.25 19.6 22.1 19.8 L21.8 20.45 21.7 20.9 21.55 22.7 21.2 22.45 21.0 22.3 21.0 22.65 21.0 22.95 21.0 23.15 21.0 23.45 20.95 23.8 20.9 23.95 20.75 23.85 20.75 23.8 20.7 23.5 20.7 23.15 20.7 22.45 20.55 23.2 20.5 23.6 20.5 23.9 20.5 23.95 20.5 24.45 20.1 24.45 19.3 24.9 19.1 25.05 19.05 25.05 18.85 25.2 18.25 25.5 18.0 25.55 18.05 25.95 17.75 26.0 17.6 26.0 16.6 26.1 15.2 27.35 15.15 27.0 15.55 26.6 16.0 26.0 Q16.55 25.5 18.0 25.35 L18.25 24.15 18.5 23.05 18.25 22.8 17.8 22.75 17.85 22.7 18.05 22.3 18.45 21.65 18.75 21.25 18.75 21.2 18.9 20.65 19.35 20.05 Q18.9 20.95 18.95 21.45 L18.95 21.55 19.0 21.9 19.1 21.95 19.3 21.8 19.3 21.35 19.3 21.3 19.65 20.25 20.0 19.65 20.3 19.15 20.35 19.0 20.45 18.85 20.55 18.75 20.75 18.65 21.15 18.45 21.1 18.5 21.0 18.65 20.75 19.2 20.5 19.7 Q20.2 20.2 20.05 20.75 L20.1 20.9 Q20.15 21.2 20.5 20.4 L20.55 20.35 20.85 19.75 21.15 19.2 21.35 18.85 21.45 18.7 21.75 18.25 22.5 18.1 22.6 18.15 22.7 18.15 23.0 18.1 22.85 18.75 22.9 19.0 23.0 19.1 23.2 18.95 23.25 18.65 23.35 18.35 23.55 17.9 23.6 17.9 23.8 17.85 24.05 17.8 25.25 17.7 25.35 17.9 M25.4 20.6 L25.4 20.8 25.3 21.15 25.25 21.2 25.15 20.9 25.2 20.1 25.2 20.0 25.4 20.1 25.5 20.15 25.4 20.6 M22.45 22.2 L22.45 22.0 22.45 21.1 22.45 21.05 22.6 20.3 22.8 19.95 22.8 20.05 22.8 20.35 22.8 20.65 22.75 21.15 22.7 21.25 22.7 21.7 22.7 21.9 22.6 22.35 22.45 22.2 M23.7 23.15 L23.6 23.1 23.55 22.95 23.65 21.95 23.7 21.85 23.8 21.1 23.85 20.95 23.95 20.95 23.95 21.0 23.9 21.25 23.85 21.8 23.8 22.15 23.7 23.15 M29.55 20.4 L29.65 20.25 30.2 21.05 30.5 22.0 Q30.55 22.5 30.0 21.35 L29.75 20.8 29.55 20.4 M30.8 18.9 L30.55 18.6 30.5 18.55 30.6 18.55 30.8 18.9 M16.9 24.4 L17.05 23.35 17.45 22.45 17.45 22.5 17.3 23.3 Q17.1 24.15 17.2 24.85 17.25 25.2 17.05 24.85 L16.9 24.4 M19.55 23.5 Q19.7 24.55 19.85 23.35 L19.9 23.15 20.0 22.55 20.15 21.95 20.1 21.85 20.0 21.8 19.7 22.6 19.7 22.7 19.55 23.5 M19.0 22.4 L18.95 22.4 19.0 22.5 19.0 22.4 M18.35 25.8 L18.7 25.7 18.9 25.65 18.7 25.75 18.4 25.8 18.35 25.8" fill="#7e4427" fill-rule="evenodd" stroke="none"/>
    <path d="M16.65 29.25 L16.5 29.2 16.5 29.15 16.2 28.75 Q16.1 28.4 16.7 28.0 17.1 27.75 17.8 27.5 L18.35 27.3 18.55 27.25 18.8 27.15 18.9 27.1 Q20.85 26.55 23.45 26.15 L24.0 26.05 25.45 25.85 25.9 25.8 26.95 25.7 27.6 25.65 29.3 25.55 31.15 25.5 32.05 25.5 32.4 25.55 33.0 25.6 34.35 25.85 Q35.0 26.1 35.05 26.45 L34.7 27.1 34.65 27.05 34.7 27.0 34.65 26.95 34.7 26.75 34.65 26.65 34.7 26.5 Q34.7 26.3 34.25 26.2 L34.1 26.1 33.45 26.0 33.25 26.0 32.6 25.9 32.05 25.85 31.4 25.85 31.3 25.85 29.5 25.9 27.3 26.0 26.85 26.05 26.05 26.15 25.5 26.2 22.5 26.65 20.5 27.05 19.4 27.35 19.35 27.35 19.0 27.45 18.35 27.65 18.3 27.7 17.7 27.9 17.6 27.9 17.6 27.95 17.1 28.2 17.0 28.2 16.85 28.3 16.6 28.55 16.5 28.65 16.4 28.9 16.5 29.1 16.5 29.15 16.65 29.25" fill="#aaaaaa" fill-rule="evenodd" stroke="none"/>
    <path d="M20.35 25.2 L20.3 25.25 20.3 25.6 20.3 26.0 19.65 26.2 19.05 26.35 18.5 26.55 18.1 26.65 18.0 26.7 17.95 26.75 16.15 27.45 15.25 28.1 15.2 27.75 15.85 27.05 16.2 26.65 18.0 26.2 18.1 26.2 18.65 26.0 19.45 25.6 19.55 25.5 19.9 25.25 20.35 25.2 M33.65 25.0 L33.65 24.9 33.5 24.35 34.2 24.3 Q34.5 24.25 35.2 24.65 L35.7 24.95 35.8 25.6 34.75 25.15 33.65 25.0 M16.6 28.55 L16.85 28.3 17.0 28.2 17.65 28.35 17.5 29.2 16.85 29.05 16.55 28.7 16.55 28.65 16.6 28.55 M34.1 26.1 L34.25 26.2 Q34.7 26.3 34.7 26.5 L34.65 26.65 33.9 27.2 33.5 26.4 34.1 26.1" fill="#b7b7b7" fill-rule="evenodd" stroke="none"/>
    <path d="M20.3 26.0 L21.65 25.75 22.4 25.6 22.8 25.55 24.65 25.25 25.15 25.2 25.35 25.15 25.85 25.1 26.55 25.05 26.7 25.0 29.4 24.85 31.0 24.8 31.05 24.8 31.9 24.85 32.55 24.9 32.85 24.9 33.65 25.0 34.75 25.15 35.8 25.6 35.9 26.3 Q35.8 25.75 34.65 25.55 L32.8 25.2 32.75 25.2 32.15 25.15 31.0 25.15 29.6 25.15 28.95 25.15 28.2 25.2 26.8 25.3 26.15 25.4 25.9 25.4 25.4 25.45 23.05 25.8 22.45 25.9 21.8 26.05 18.45 26.9 18.05 27.0 17.9 27.1 Q16.95 27.45 16.35 27.8 15.35 28.25 15.35 28.8 L15.25 28.1 16.15 27.45 17.95 26.75 18.0 26.7 18.1 26.65 18.5 26.55 19.05 26.35 19.65 26.2 20.3 26.0 M16.65 29.25 L16.5 29.15 16.5 29.1 16.4 28.9 16.5 28.65 16.6 28.55 16.55 28.65 16.55 28.7 16.85 29.05 17.5 29.2 17.5 29.45 17.05 29.35 17.0 29.35 16.8 29.3 16.65 29.25 M34.65 26.65 L34.7 26.75 34.65 26.95 34.7 27.0 34.65 27.05 34.7 27.1 34.05 27.5 33.9 27.2 34.65 26.65" fill="#ffffff" fill-rule="evenodd" stroke="none"/>
    <path d="M34.7 27.1 L35.05 26.45 Q35.0 26.1 34.35 25.85 L33.0 25.6 32.4 25.55 32.05 25.5 31.15 25.5 29.3 25.55 27.6 25.65 26.95 25.7 25.9 25.8 25.45 25.85 24.0 26.05 23.45 26.15 Q20.85 26.55 18.9 27.1 L18.8 27.15 18.55 27.25 18.35 27.3 17.8 27.5 Q17.1 27.75 16.7 28.0 16.1 28.4 16.2 28.75 L16.5 29.15 16.5 29.2 16.65 29.25 16.8 29.3 17.0 29.35 17.05 29.35 17.5 29.45 17.45 29.8 16.55 29.6 16.55 29.55 15.55 29.15 15.45 29.05 15.35 28.95 15.35 28.8 Q15.35 28.25 16.35 27.8 16.95 27.45 17.9 27.1 L18.05 27.0 18.45 26.9 21.8 26.05 22.45 25.9 23.05 25.8 25.4 25.45 25.9 25.4 26.15 25.4 26.8 25.3 28.2 25.2 28.95 25.15 29.6 25.15 31.0 25.15 32.15 25.15 32.75 25.2 32.8 25.2 34.65 25.55 Q35.8 25.75 35.9 26.3 35.95 26.85 34.7 27.45 L34.15 27.7 34.05 27.5 34.7 27.1" fill="#f0f0f0" fill-rule="evenodd" stroke="none"/>
    <path d="M20.5 24.45 L21.2 24.3 21.5 24.3 21.95 24.35 22.0 24.35 22.2 24.4 22.6 24.15 Q22.85 23.85 23.05 23.8 L23.35 23.85 23.4 23.85 23.7 23.9 24.3 24.0 25.35 23.9 25.5 23.85 25.8 23.7 25.9 23.6 26.25 23.35 26.4 23.3 27.1 23.5 27.7 23.75 28.4 23.5 28.8 23.4 29.05 23.35 30.55 23.45 30.85 23.5 31.5 23.55 31.55 23.55 32.95 23.8 33.0 24.15 32.85 24.25 32.85 24.2 32.65 24.2 32.0 24.15 31.9 24.1 31.25 24.0 31.05 23.95 30.95 23.95 30.45 23.8 30.2 23.75 29.85 23.7 29.35 23.65 28.85 23.75 28.5 23.9 28.25 23.95 27.35 23.85 26.65 23.7 26.4 23.8 26.3 23.9 26.1 23.95 25.6 24.15 24.9 24.35 24.8 24.35 24.2 24.3 24.1 24.25 23.25 24.15 22.95 24.55 Q22.65 24.8 22.35 24.85 L21.95 24.85 21.8 24.8 21.5 24.75 21.35 24.75 20.5 24.85 20.5 24.45 M24.9 22.65 L24.85 22.4 25.0 22.2 25.1 22.35 25.15 22.65 25.15 23.3 25.0 23.15 24.9 22.65 M28.8 20.4 L28.3 20.2 28.3 20.15 28.0 20.15 27.9 20.2 27.85 20.2 27.8 20.3 27.7 20.65 27.7 20.7 27.85 21.2 28.3 21.5 28.35 21.5 28.65 21.45 28.75 21.45 28.75 21.4 28.95 20.95 28.8 20.4 M28.5 22.15 L28.4 21.9 28.3 21.85 28.2 21.85 27.65 21.35 27.4 20.95 27.35 20.65 27.35 20.5 27.55 20.0 27.6 19.95 27.65 19.95 28.35 19.75 Q28.75 19.85 29.05 20.3 L29.3 21.05 29.3 21.2 29.05 21.7 29.0 21.7 28.7 21.85 28.5 22.15 M26.4 20.55 Q26.35 20.8 26.25 20.2 L26.2 20.15 26.4 20.05 26.45 20.05 26.5 20.05 26.5 20.1 26.5 20.3 26.4 20.55 M27.4 22.85 L27.25 22.6 27.2 22.5 27.2 22.45 27.1 22.05 27.1 21.95 27.2 21.9 27.4 22.3 27.45 22.5 27.45 22.55 27.45 22.8 27.4 22.85" fill="#bb6338" fill-rule="evenodd" stroke="none"/>
    <path d="M25.6 18.15 L25.55 18.2 25.4 18.25 25.4 18.3 25.1 18.75 25.1 19.1 25.15 19.35 25.15 19.4 25.6 19.75 26.15 19.7 26.2 19.65 26.5 19.5 26.55 19.25 26.45 18.6 26.35 18.55 26.3 18.5 26.0 18.3 26.0 18.25 25.75 18.2 25.6 18.15 M25.65 17.8 L25.8 17.8 26.0 17.8 26.1 17.8 26.4 17.95 26.7 18.3 Q26.9 18.25 27.05 18.55 L27.15 18.9 27.3 19.2 27.35 19.3 27.6 19.55 27.7 19.5 27.8 19.2 28.0 18.9 28.25 18.95 28.15 18.8 27.95 18.55 27.85 18.25 28.0 18.3 28.05 18.3 28.1 18.25 28.15 18.3 28.2 18.3 28.2 18.35 28.35 18.6 28.8 18.9 28.9 18.9 28.95 18.9 29.05 18.85 29.2 18.75 29.45 18.4 29.45 18.35 29.6 18.4 29.75 18.45 29.75 18.5 29.45 19.05 28.75 19.2 28.55 19.15 28.65 19.3 29.1 20.1 29.4 19.4 Q29.85 19.3 30.55 20.15 L30.55 20.2 30.95 21.0 31.7 22.5 Q32.05 23.25 31.95 22.5 L31.4 21.15 31.55 21.0 Q31.9 20.95 32.45 22.3 L32.95 23.7 33.35 23.75 34.4 23.65 34.7 23.65 34.7 23.75 34.85 24.1 34.15 24.0 33.0 24.15 32.95 23.8 31.55 23.55 31.5 23.55 30.85 23.5 30.55 23.45 29.05 23.35 28.8 23.4 28.4 23.5 27.7 23.75 27.1 23.5 26.4 23.3 26.25 23.35 25.9 23.6 25.8 23.7 25.5 23.85 25.35 23.9 24.3 24.0 23.7 23.9 23.4 23.85 23.35 23.85 23.05 23.8 Q22.85 23.85 22.6 24.15 L22.2 24.4 22.0 24.35 21.95 24.35 21.5 24.3 21.2 24.3 20.5 24.45 20.5 23.95 20.5 23.9 20.5 23.6 20.55 23.2 20.7 22.45 20.7 23.15 20.7 23.5 20.75 23.8 20.75 23.85 20.9 23.95 20.95 23.8 21.0 23.45 21.0 23.15 21.0 22.95 21.0 22.65 21.0 22.3 21.2 22.45 21.55 22.7 21.7 20.9 21.8 20.45 22.1 19.8 Q22.25 19.6 22.5 19.55 L22.65 19.6 22.85 19.85 22.95 20.25 23.0 20.4 23.2 20.6 23.6 21.0 23.85 20.1 24.1 19.5 24.3 19.25 Q24.5 19.2 24.8 19.5 L24.65 19.0 24.65 18.65 24.65 18.6 Q24.75 18.25 25.0 18.05 L25.25 17.9 25.35 17.9 25.4 17.9 25.6 17.8 25.65 17.8 M18.05 25.95 L18.0 25.55 18.25 25.5 18.85 25.2 19.05 25.05 19.1 25.05 19.3 24.9 20.1 24.45 20.5 24.45 20.5 24.85 19.8 24.9 19.5 25.15 19.4 25.35 19.3 25.4 19.0 25.55 18.9 25.65 18.7 25.7 18.35 25.8 18.15 25.9 18.1 25.95 18.05 25.95 M23.7 23.15 L23.8 22.15 23.85 21.8 23.9 21.25 23.95 21.0 23.95 20.95 23.85 20.95 23.8 21.1 23.7 21.85 23.65 21.95 23.55 22.95 23.6 23.1 23.7 23.15 M22.45 22.2 L22.6 22.35 22.7 21.9 22.7 21.7 22.7 21.25 22.75 21.15 22.8 20.65 22.8 20.35 22.8 20.05 22.8 19.95 22.6 20.3 22.45 21.05 22.45 21.1 22.45 22.0 22.45 22.2 M25.4 20.6 L25.5 20.15 25.4 20.1 25.2 20.0 25.2 20.1 25.15 20.9 25.25 21.2 25.3 21.15 25.4 20.8 25.4 20.6 M24.9 22.65 L25.0 23.15 25.15 23.3 25.15 22.65 25.1 22.35 25.0 22.2 24.85 22.4 24.9 22.65 M29.55 20.4 L29.75 20.8 30.0 21.35 Q30.55 22.5 30.5 22.0 L30.2 21.05 29.65 20.25 29.55 20.4 M27.4 22.85 L27.45 22.8 27.45 22.55 27.45 22.5 27.4 22.3 27.2 21.9 27.1 21.95 27.1 22.05 27.2 22.45 27.2 22.5 27.25 22.6 27.4 22.85 M26.4 20.55 L26.5 20.3 26.5 20.1 26.5 20.05 26.45 20.05 26.4 20.05 26.2 20.15 26.25 20.2 Q26.35 20.8 26.4 20.55 M28.5 22.15 L28.7 21.85 29.0 21.7 29.05 21.7 29.3 21.2 29.3 21.05 29.05 20.3 Q28.75 19.85 28.35 19.75 L27.65 19.95 27.6 19.95 27.55 20.0 27.35 20.5 27.35 20.65 27.4 20.95 27.65 21.35 28.2 21.85 28.3 21.85 28.4 21.9 28.5 22.15 M19.55 23.5 L19.7 22.7 19.7 22.6 20.0 21.8 20.1 21.85 20.15 21.95 20.0 22.55 19.9 23.15 19.85 23.35 Q19.7 24.55 19.55 23.5" fill="#9c5330" fill-rule="evenodd" stroke="none"/>
    <path d="M15.65 22.65 L14.15 22.4 14.1 22.2 Q14.45 20.65 15.65 19.65 L12.55 19.0 Q11.65 18.7 11.1 17.95 13.2 14.95 16.6 14.55 L15.15 13.4 Q14.0 12.45 13.4 11.15 L13.3 10.75 Q16.25 9.7 19.4 10.35 21.35 10.85 22.85 12.25 24.3 9.0 27.9 8.0 28.4 8.75 28.4 9.7 L28.0 12.85 Q29.4 12.0 31.05 12.2 L31.1 12.25 Q31.0 14.7 29.3 16.45 L28.8 17.05 28.35 16.95 28.7 16.5 Q30.2 14.75 30.65 12.45 L29.85 12.65 Q28.7 12.85 27.9 13.35 L27.05 15.65 26.75 16.65 26.7 16.75 26.15 16.55 26.85 14.3 26.9 14.15 27.25 13.45 27.3 13.3 27.75 11.5 Q27.95 10.0 27.6 8.55 25.95 9.4 24.65 10.6 23.7 11.5 23.2 12.6 L23.85 13.4 24.9 15.25 25.0 15.6 25.3 16.75 24.85 16.65 24.75 16.35 Q24.45 15.15 23.75 14.15 L22.95 13.15 22.6 12.8 Q21.2 11.4 18.8 10.85 L16.05 10.75 13.95 11.0 15.35 12.8 Q15.95 13.45 16.7 13.95 L16.8 13.95 17.15 14.15 17.7 14.5 Q19.75 14.45 21.35 15.5 L22.4 16.35 23.0 17.05 22.7 16.9 22.3 17.05 21.0 16.0 Q20.3 15.55 19.4 15.25 L18.6 15.05 17.2 15.0 Q15.9 15.1 14.65 15.75 13.05 16.6 11.75 17.85 13.0 18.7 14.5 19.0 L16.35 19.1 16.45 19.1 17.15 19.05 17.4 19.05 18.55 19.05 18.15 19.7 16.2 19.7 Q15.45 20.3 14.9 21.25 L14.45 21.95 16.4 22.05 16.35 22.15 15.7 22.4 15.7 22.5 15.65 22.55 15.65 22.65" fill="#384f0b" fill-rule="evenodd" stroke="none"/>
    <path d="M18.3 27.7 L18.35 27.65 18.35 28.25 18.35 28.4 18.3 29.25 18.35 29.3 18.9 29.65 18.95 29.8 19.0 29.95 18.95 30.25 18.8 30.9 18.4 31.65 Q18.6 33.7 19.1 35.6 L19.15 35.9 19.25 35.85 20.45 36.7 20.55 37.7 20.3 37.4 Q17.85 35.0 17.85 31.55 L17.95 30.15 17.95 29.85 18.0 29.55 18.05 29.25 18.15 28.4 18.3 27.7 M26.05 26.15 L26.85 26.05 26.45 26.3 26.15 26.35 26.05 26.15 M31.3 25.85 L31.4 25.85 32.05 25.85 32.6 25.9 33.0 26.6 33.4 27.35 33.55 27.7 33.65 27.9 33.8 28.25 Q34.45 29.95 34.45 31.55 L34.45 32.45 33.75 32.0 33.2 31.25 33.15 30.55 33.8 30.3 33.55 29.85 33.5 29.3 33.3 28.4 33.2 28.1 33.15 27.85 33.05 27.5 32.95 27.3 32.2 27.05 32.0 26.9 31.6 26.55 31.3 25.85 M21.95 38.7 L22.05 38.6 22.55 38.65 Q22.5 38.55 22.6 38.5 22.55 38.25 23.05 38.2 L22.65 37.65 Q22.45 36.9 23.55 37.9 L24.7 39.0 25.0 38.8 25.75 38.15 26.1 37.55 26.1 36.95 26.35 36.85 26.6 37.85 26.85 38.2 27.45 38.25 Q28.8 37.85 29.25 36.95 L30.0 35.75 Q30.55 35.6 30.7 35.9 L29.75 37.15 30.1 37.15 30.4 37.05 30.5 37.1 30.45 37.15 30.7 36.95 32.65 35.4 Q33.05 35.05 32.9 34.7 L32.8 33.9 33.0 33.8 33.4 34.2 33.4 34.7 34.15 33.9 Q33.6 35.9 32.05 37.4 29.6 39.85 26.15 39.85 23.85 39.85 21.95 38.7 M31.8 29.15 L31.95 28.95 32.05 28.8 32.35 28.55 32.5 28.65 32.6 28.95 32.65 29.05 32.4 29.25 31.8 29.15 M29.4 30.2 L29.45 30.1 Q29.95 29.95 30.2 30.55 30.25 31.05 29.75 31.3 L29.15 31.15 29.0 30.95 Q28.9 30.6 29.4 30.2 M22.25 29.2 L22.2 29.4 22.05 29.6 21.95 29.7 21.85 29.75 21.6 29.8 21.45 29.3 22.0 28.85 22.25 29.2 M24.05 29.4 L24.15 29.25 24.15 29.1 24.4 29.25 24.6 29.5 24.65 29.7 24.5 29.8 Q24.25 29.85 24.15 29.7 L24.1 29.55 24.05 29.45 24.05 29.4 M25.15 31.4 L25.2 31.55 24.8 31.8 24.55 31.8 24.4 31.6 Q24.35 31.2 24.8 30.95 L25.15 31.4 M23.25 32.25 L23.45 32.4 23.35 32.55 23.1 32.6 23.0 32.65 22.9 32.4 23.25 32.25 M21.25 32.45 L20.9 32.8 Q20.55 33.0 20.5 32.8 L20.4 32.7 Q20.3 32.35 20.7 32.15 21.05 32.1 21.25 32.45 M20.65 33.6 L20.8 33.7 20.8 34.0 20.35 34.2 20.35 34.05 Q20.2 33.8 20.65 33.6 M29.85 33.95 L29.6 34.3 29.2 34.2 29.3 33.85 29.75 33.8 29.85 33.95 M26.25 34.7 L27.0 34.15 27.15 34.4 27.1 34.55 26.8 34.85 26.4 34.85 26.25 34.7 M22.95 38.4 Q22.8 38.45 22.9 38.6 22.9 38.8 23.1 38.7 L23.35 38.7 23.45 38.6 23.6 38.4 23.45 38.25 23.1 38.35 22.95 38.4" fill="#a55f12" fill-rule="evenodd" stroke="none"/>
    <path d="M19.4 27.35 L20.5 27.05 20.0 27.9 20.75 28.45 20.85 28.5 20.95 28.55 21.5 28.65 21.75 28.65 22.65 28.4 22.95 28.0 22.5 26.65 25.5 26.2 26.05 26.15 26.15 26.35 26.45 26.3 26.85 26.05 27.3 26.0 27.3 26.05 26.75 26.8 27.3 27.05 28.45 27.15 29.1 26.9 29.5 25.9 31.3 25.85 31.6 26.55 32.0 26.9 32.2 27.05 32.95 27.3 33.05 27.5 33.15 27.85 33.2 28.1 33.3 28.4 33.5 29.3 32.95 28.95 32.6 29.45 32.75 30.3 33.1 30.35 33.55 29.85 33.8 30.3 33.15 30.55 33.2 31.25 33.75 32.0 34.45 32.45 34.25 33.55 34.2 33.15 Q33.95 32.4 33.35 32.05 L32.8 32.4 33.4 34.15 34.25 33.6 34.15 33.9 33.4 34.7 33.4 34.2 33.0 33.8 32.8 33.9 32.9 34.7 Q33.05 35.05 32.65 35.4 L30.7 36.95 30.45 37.15 30.5 37.1 30.4 37.05 30.1 37.15 29.75 37.15 30.7 35.9 Q30.55 35.6 30.0 35.75 L29.25 36.95 Q28.8 37.85 27.45 38.25 L26.85 38.2 26.6 37.85 26.35 36.85 26.1 36.95 26.1 37.55 25.75 38.15 25.0 38.8 24.7 39.0 23.55 37.9 Q22.45 36.9 22.65 37.65 L23.05 38.2 Q22.55 38.25 22.6 38.5 22.5 38.55 22.55 38.65 L22.05 38.6 21.95 38.7 20.55 37.7 20.45 36.7 19.25 35.85 19.15 35.9 19.1 35.6 Q18.6 33.7 18.4 31.65 L18.8 30.9 18.95 30.25 19.0 29.95 18.95 29.8 18.9 29.65 18.35 29.3 18.3 29.25 18.35 28.4 18.35 28.25 18.7 28.95 19.65 28.3 19.65 27.7 19.4 27.35 M21.15 31.95 L21.15 29.9 19.7 29.45 19.6 29.7 19.45 30.0 19.35 30.3 Q19.05 31.3 20.0 31.85 L21.15 31.95 M19.65 34.15 L19.4 34.35 20.1 36.05 21.1 35.7 21.1 35.3 Q20.95 34.55 20.0 34.3 L19.65 34.15 M19.85 32.1 L19.5 32.05 19.0 32.15 19.25 33.35 20.3 33.0 19.85 32.1 M31.2 26.45 L30.7 26.05 30.2 26.15 29.95 27.55 30.3 28.3 30.45 28.6 30.6 28.85 30.8 29.15 30.85 29.2 31.75 28.95 31.8 28.9 31.9 28.5 32.0 28.2 32.0 27.85 31.75 27.0 31.7 26.95 31.5 26.5 31.2 26.45 M31.8 29.15 L32.4 29.25 32.65 29.05 32.6 28.95 32.5 28.65 32.35 28.55 32.05 28.8 31.95 28.95 31.8 29.15 M30.6 30.7 L30.2 31.3 30.65 31.75 31.25 32.45 32.5 31.9 32.05 30.15 31.7 29.75 30.6 30.7 M30.3 35.3 L31.15 35.85 31.85 35.55 32.7 34.3 31.45 33.05 30.5 33.4 29.9 34.9 30.3 35.3 M29.45 28.0 L28.9 27.65 28.75 27.55 27.7 27.75 27.65 27.85 27.2 28.8 27.25 28.9 27.5 29.15 27.7 29.4 28.0 29.7 28.05 29.75 29.05 30.3 29.4 30.2 Q28.9 30.6 29.0 30.95 L29.15 31.15 29.75 31.3 Q30.25 31.05 30.2 30.55 29.95 29.95 29.45 30.1 L30.0 29.8 30.3 29.25 30.1 28.95 29.95 28.7 29.8 28.4 29.45 28.0 M25.95 27.3 L25.6 26.95 25.3 26.95 25.05 26.85 24.35 27.0 24.05 27.55 23.65 27.75 23.9 28.3 Q24.15 28.75 24.55 29.0 L25.1 28.95 25.65 28.65 26.15 28.3 26.45 27.85 25.95 27.3 M25.65 31.2 L26.15 31.45 26.7 31.25 27.05 30.9 27.3 30.4 27.65 29.95 26.55 28.95 26.55 29.0 26.15 29.35 26.1 29.35 25.15 29.65 24.7 30.25 25.65 31.2 M22.25 29.2 L22.0 28.85 21.45 29.3 21.6 29.8 21.85 29.75 21.95 29.7 22.05 29.6 22.2 29.4 22.25 29.2 M23.3 31.7 L24.15 30.9 24.05 30.2 23.8 29.9 23.5 29.6 23.1 29.35 23.05 29.25 22.95 29.35 22.5 29.65 22.2 30.0 22.0 30.35 Q21.65 31.05 22.25 31.85 L23.3 31.7 M23.25 32.25 L22.9 32.4 23.0 32.65 23.1 32.6 23.35 32.55 23.45 32.4 23.25 32.25 M25.15 31.4 L24.8 30.95 Q24.35 31.2 24.4 31.6 L24.55 31.8 24.8 31.8 25.2 31.55 25.15 31.4 M24.05 29.4 L24.05 29.45 24.1 29.55 24.15 29.7 Q24.25 29.85 24.5 29.8 L24.65 29.7 24.6 29.5 24.4 29.25 24.15 29.1 24.15 29.25 24.05 29.4 M24.15 33.4 L25.35 34.5 25.75 34.85 Q27.05 33.1 25.45 32.4 L24.2 32.1 23.8 32.6 23.95 32.95 24.15 33.4 M20.65 33.6 Q20.2 33.8 20.35 34.05 L20.35 34.2 20.8 34.0 20.8 33.7 20.65 33.6 M21.25 32.45 Q21.05 32.1 20.7 32.15 20.3 32.35 20.4 32.7 L20.5 32.8 Q20.55 33.0 20.9 32.8 L21.25 32.45 M21.85 32.55 L21.25 33.05 Q21.0 34.6 22.5 35.6 L24.1 34.6 Q23.8 33.7 23.05 33.15 L21.85 32.55 M21.35 36.2 L21.15 36.65 Q20.8 37.45 21.55 37.95 L22.5 37.8 22.45 37.55 Q22.45 36.8 22.1 36.15 L21.35 36.2 M23.35 36.15 L22.9 36.85 24.0 37.75 24.95 38.0 25.6 36.9 Q26.1 36.2 25.85 35.6 L24.55 35.0 23.75 35.35 23.35 36.15 M28.3 34.25 L29.85 32.35 29.15 31.4 28.4 31.15 27.9 31.45 27.35 31.8 27.1 32.05 27.85 34.25 28.3 34.25 M29.85 33.95 L29.75 33.8 29.3 33.85 29.2 34.2 29.6 34.3 29.85 33.95 M27.8 34.85 L26.6 35.35 Q25.95 36.75 27.0 37.9 29.8 37.25 29.1 35.4 L28.9 34.9 27.8 34.85 M26.25 34.7 L26.4 34.85 26.8 34.85 27.1 34.55 27.15 34.4 27.0 34.15 26.25 34.7 M22.95 38.4 L23.1 38.35 23.45 38.25 23.6 38.4 23.45 38.6 23.35 38.7 23.1 38.7 Q22.9 38.8 22.9 38.6 22.8 38.45 22.95 38.4" fill="#c87315" fill-rule="evenodd" stroke="none"/>
    <path d="M18.35 27.65 L19.0 27.45 19.35 27.35 19.4 27.35 19.65 27.7 19.65 28.3 18.7 28.95 18.35 28.25 18.35 27.65 M34.25 33.6 L33.4 34.15 32.8 32.4 33.35 32.05 Q33.95 32.4 34.2 33.15 L34.25 33.55 34.25 33.6 M33.55 29.85 L33.1 30.35 32.75 30.3 32.6 29.45 32.95 28.95 33.5 29.3 33.55 29.85 M21.15 31.95 L20.0 31.85 Q19.05 31.3 19.35 30.3 L19.45 30.0 19.6 29.7 19.7 29.45 21.15 29.9 21.15 31.95 M20.2 30.95 L20.45 30.7 20.7 30.35 20.3 30.05 20.05 30.0 19.95 30.0 Q19.7 30.1 19.5 30.3 L19.45 30.3 19.5 30.7 19.7 30.95 20.2 30.95 M19.85 32.1 L20.3 33.0 19.25 33.35 19.0 32.15 19.5 32.05 19.85 32.1 M19.65 34.15 L20.0 34.3 Q20.95 34.55 21.1 35.3 L21.1 35.7 20.1 36.05 19.4 34.35 19.65 34.15 M31.2 26.45 L31.1 26.45 Q30.7 26.9 30.75 27.25 30.8 27.6 31.4 27.9 L31.55 27.75 31.7 27.0 31.7 26.95 31.75 27.0 32.0 27.85 32.0 28.2 31.9 28.5 31.8 28.9 31.75 28.95 30.85 29.2 30.8 29.15 30.6 28.85 30.45 28.6 30.3 28.3 29.95 27.55 30.2 26.15 30.7 26.05 31.2 26.45 M33.15 32.7 Q33.0 32.85 33.15 33.05 L33.3 33.15 33.5 33.15 33.8 33.05 33.85 32.75 33.75 32.55 33.4 32.5 33.15 32.7 M30.3 35.3 L29.9 34.9 30.5 33.4 31.45 33.05 32.7 34.3 31.85 35.55 31.15 35.85 30.3 35.3 M31.3 33.9 L31.0 33.8 30.55 34.6 31.5 34.55 31.4 33.95 Q31.4 33.8 31.3 33.9 M21.6 33.3 L21.5 33.75 Q21.3 34.2 21.85 34.7 L22.15 34.9 23.0 34.5 Q22.95 33.8 22.45 33.4 L21.6 33.3 M21.85 32.55 L23.05 33.15 Q23.8 33.7 24.1 34.6 L22.5 35.6 Q21.0 34.6 21.25 33.05 L21.85 32.55 M21.35 36.2 L22.1 36.15 Q22.45 36.8 22.45 37.55 L22.5 37.8 21.55 37.95 Q20.8 37.45 21.15 36.65 L21.35 36.2 M23.35 36.15 L23.65 36.8 24.5 36.9 24.8 36.65 24.5 35.7 23.9 35.8 23.35 36.15 23.75 35.35 24.55 35.0 25.85 35.6 Q26.1 36.2 25.6 36.9 L24.95 38.0 24.0 37.75 22.9 36.85 23.35 36.15 M27.8 34.85 L28.9 34.9 29.1 35.4 Q29.8 37.25 27.0 37.9 25.95 36.75 26.6 35.35 L27.8 34.85 M26.9 36.15 L27.0 36.6 28.55 36.1 28.4 35.5 28.05 35.45 27.7 35.5 26.9 36.15" fill="#dc993f" fill-rule="evenodd" stroke="none"/>
    <path d="M20.5 27.05 L22.5 26.65 22.95 28.0 22.65 28.4 21.75 28.65 21.5 28.65 20.95 28.55 20.85 28.5 20.75 28.45 20.0 27.9 20.5 27.05 M27.3 26.0 L29.5 25.9 29.1 26.9 28.45 27.15 27.3 27.05 26.75 26.8 27.3 26.05 27.3 26.0 M20.2 30.95 L19.7 30.95 19.5 30.7 19.45 30.3 19.5 30.3 Q19.7 30.1 19.95 30.0 L20.05 30.0 20.3 30.05 20.7 30.35 20.45 30.7 20.2 30.95 M31.7 26.95 L31.7 27.0 31.55 27.75 31.4 27.9 Q30.8 27.6 30.75 27.25 30.7 26.9 31.1 26.45 L31.2 26.45 31.5 26.5 31.7 26.95 M31.6 30.8 L31.1 30.9 30.8 31.55 31.15 31.8 31.4 31.85 31.5 31.65 31.8 31.15 31.6 30.8 M30.6 30.7 L31.7 29.75 32.05 30.15 32.5 31.9 31.25 32.45 30.65 31.75 30.2 31.3 30.6 30.7 M33.15 32.7 L33.4 32.5 33.75 32.55 33.85 32.75 33.8 33.05 33.5 33.15 33.3 33.15 33.15 33.05 Q33.0 32.85 33.15 32.7 M31.3 33.9 Q31.4 33.8 31.4 33.95 L31.5 34.55 30.55 34.6 31.0 33.8 31.3 33.9 M28.25 26.3 L27.45 26.65 27.45 26.75 27.6 26.9 27.9 27.1 28.3 26.9 28.25 26.3 M29.4 30.2 L29.05 30.3 28.05 29.75 28.0 29.7 27.7 29.4 27.5 29.15 27.25 28.9 27.2 28.8 27.65 27.85 27.7 27.75 28.75 27.55 28.9 27.65 29.45 28.0 29.8 28.4 29.95 28.7 30.1 28.95 30.3 29.25 30.0 29.8 29.45 30.1 29.4 30.2 M29.45 28.0 L28.85 27.9 28.3 28.35 28.25 28.95 29.4 29.6 29.7 29.45 29.7 29.4 29.45 28.0 M25.95 27.3 L26.45 27.85 26.15 28.3 25.65 28.65 25.1 28.95 24.55 29.0 Q24.15 28.75 23.9 28.3 L23.65 27.75 24.05 27.55 24.35 27.0 25.05 26.85 25.3 26.95 25.0 28.2 25.0 28.4 25.3 28.4 25.85 28.25 25.95 27.3 M25.65 31.2 L24.7 30.25 25.15 29.65 26.1 29.35 26.15 29.35 26.55 29.0 26.55 28.95 27.65 29.95 27.3 30.4 27.05 30.9 26.7 31.25 26.15 31.45 25.65 31.2 M25.75 29.65 L25.75 29.7 25.45 29.9 25.65 30.65 26.65 30.65 26.8 30.4 26.75 30.05 26.7 29.9 26.65 29.55 26.6 29.3 25.75 29.65 M21.75 26.95 L21.35 27.25 21.35 27.55 21.5 27.75 22.0 27.75 22.35 27.45 22.5 27.2 22.15 27.05 21.75 26.95 M23.3 31.7 L22.25 31.85 Q21.65 31.05 22.0 30.35 L22.2 30.0 22.5 29.65 22.95 29.35 23.05 29.25 23.1 29.35 23.5 29.6 23.8 29.9 24.05 30.2 24.15 30.9 23.3 31.7 M22.7 30.75 L23.05 30.7 23.45 30.3 23.45 30.25 23.35 29.9 23.3 29.8 23.1 29.95 22.55 30.2 22.55 30.45 22.7 30.75 M23.95 32.95 L23.8 32.6 24.2 32.1 25.45 32.4 Q27.05 33.1 25.75 34.85 L25.35 34.5 24.15 33.4 24.65 33.6 25.4 33.35 25.35 33.0 25.0 32.6 24.1 32.65 23.95 32.95 M21.6 33.3 L22.45 33.4 Q22.95 33.8 23.0 34.5 L22.15 34.9 21.85 34.7 Q21.3 34.2 21.5 33.75 L21.6 33.3 M23.35 36.15 L23.9 35.8 24.5 35.7 24.8 36.65 24.5 36.9 23.65 36.8 23.35 36.15 M28.3 34.25 L27.85 34.25 27.1 32.05 27.35 31.8 27.9 31.45 28.4 31.15 29.15 31.4 29.85 32.35 28.3 34.25 M28.2 32.05 L27.85 32.35 27.85 32.7 28.05 33.0 28.6 33.05 28.9 32.75 29.0 32.3 28.8 32.0 28.2 32.05 M26.9 36.15 L27.7 35.5 28.05 35.45 28.4 35.5 28.55 36.1 27.0 36.6 26.9 36.15" fill="#e6b559" fill-rule="evenodd" stroke="none"/>
    <path d="M31.6 30.8 L31.8 31.15 31.5 31.65 31.4 31.85 31.15 31.8 30.8 31.55 31.1 30.9 31.6 30.8 M28.25 26.3 L28.3 26.9 27.9 27.1 27.6 26.9 27.45 26.75 27.45 26.65 28.25 26.3 M29.45 28.0 L29.7 29.4 29.7 29.45 29.4 29.6 28.25 28.95 28.3 28.35 28.85 27.9 29.45 28.0 M25.3 26.95 L25.6 26.95 25.95 27.3 25.85 28.25 25.3 28.4 25.0 28.4 25.0 28.2 25.3 26.95 M25.75 29.65 L26.6 29.3 26.65 29.55 26.7 29.9 26.75 30.05 26.8 30.4 26.65 30.65 25.65 30.65 25.45 29.9 25.75 29.7 25.75 29.65 M21.75 26.95 L22.15 27.05 22.5 27.2 22.35 27.45 22.0 27.75 21.5 27.75 21.35 27.55 21.35 27.25 21.75 26.95 M22.7 30.75 L22.55 30.45 22.55 30.2 23.1 29.95 23.3 29.8 23.35 29.9 23.45 30.25 23.45 30.3 23.05 30.7 22.7 30.75 M23.95 32.95 L24.1 32.65 25.0 32.6 25.35 33.0 25.4 33.35 24.65 33.6 24.15 33.4 23.95 32.95 M28.2 32.05 L28.8 32.0 29.0 32.3 28.9 32.75 28.6 33.05 28.05 33.0 27.85 32.7 27.85 32.35 28.2 32.05" fill="#f7d691" fill-rule="evenodd" stroke="none"/>
    <path d="M24.9 15.25 L23.85 13.4 Q24.4 10.8 27.0 9.45 L27.15 9.6 Q25.8 11.45 25.0 13.7 L24.9 15.25 M23.85 16.65 L22.65 15.0 22.15 14.45 21.6 13.9 Q19.9 12.3 17.6 11.7 L14.65 11.25 Q16.95 10.8 18.35 11.2 19.5 11.3 21.5 12.75 L22.4 13.4 22.8 13.8 23.7 14.95 24.3 16.05 24.5 16.55 24.35 16.5 24.25 16.5 23.85 16.65 M21.35 17.5 L21.0 17.8 20.55 17.8 20.5 17.85 20.4 17.85 17.45 17.1 Q15.05 17.05 12.85 17.8 L12.75 17.6 Q15.35 15.15 18.7 16.15 19.3 16.3 19.85 16.6 L19.95 16.65 20.15 16.7 21.35 17.5" fill="#97db14" fill-rule="evenodd" stroke="none"/>
    <path d="M14.5 19.0 Q13.0 18.7 11.75 17.85 13.05 16.6 14.65 15.75 15.9 15.1 17.2 15.0 L18.6 15.05 19.4 15.25 Q20.3 15.55 21.0 16.0 L21.75 16.75 22.1 17.15 21.35 17.5 20.15 16.7 19.95 16.65 19.85 16.6 Q19.3 16.3 18.7 16.15 15.35 15.15 12.75 17.6 L12.85 17.8 Q15.05 17.05 17.45 17.1 L20.4 17.85 19.7 18.55 17.55 18.5 15.7 18.75 14.5 19.0 M15.35 12.8 L13.95 11.0 16.05 10.75 18.8 10.85 Q21.2 11.4 22.6 12.8 L22.95 13.15 23.75 14.15 Q24.45 15.15 24.75 16.35 L24.85 16.65 24.5 16.55 24.3 16.05 23.7 14.95 22.8 13.8 22.4 13.4 21.5 12.75 Q19.5 11.3 18.35 11.2 16.95 10.8 14.65 11.25 L17.6 11.7 Q19.9 12.3 21.6 13.9 L22.15 14.45 22.65 15.0 23.85 16.65 23.45 16.85 23.15 16.3 22.65 15.8 22.05 15.2 21.3 14.65 Q20.1 13.95 17.25 13.0 L15.85 12.75 15.35 12.8 M25.3 16.75 L25.0 15.6 24.9 15.25 25.0 13.7 Q25.8 11.45 27.15 9.6 L27.0 9.45 Q24.4 10.8 23.85 13.4 L23.2 12.6 Q23.7 11.5 24.65 10.6 25.95 9.4 27.6 8.55 27.95 10.0 27.75 11.5 L27.15 12.6 26.3 14.3 26.3 14.4 25.55 16.75 25.45 16.8 25.3 16.75 M27.85 16.05 L28.3 15.35 28.85 14.8 29.3 14.0 Q29.7 13.2 29.85 13.25 L30.0 13.3 29.75 14.25 Q28.35 16.15 27.95 16.05 L27.85 16.05 M16.5 21.7 L16.4 21.7 15.5 21.65 15.5 21.4 16.35 21.2 16.7 21.15 16.5 21.7" fill="#71a40e" fill-rule="evenodd" stroke="none"/>
    <path d="M16.4 22.05 L14.45 21.95 14.9 21.25 Q15.45 20.3 16.2 19.7 L18.15 19.7 17.7 20.3 17.1 20.35 17.0 20.4 16.9 20.45 16.7 21.15 16.35 21.2 15.5 21.4 15.5 21.65 16.4 21.7 16.5 21.7 16.4 22.05 M18.55 19.05 L17.4 19.05 17.15 19.05 16.45 19.1 16.35 19.1 14.5 19.0 15.7 18.75 17.55 18.5 19.7 18.55 19.55 18.65 18.85 18.7 18.75 18.75 18.7 18.8 18.55 19.05 M21.0 16.0 L22.3 17.05 22.1 17.15 21.75 16.75 21.0 16.0 M23.0 17.05 L22.4 16.35 21.35 15.5 Q19.75 14.45 17.7 14.5 L17.15 14.15 16.8 13.95 16.7 13.95 Q15.95 13.45 15.35 12.8 L15.85 12.75 17.25 13.0 Q20.1 13.95 21.3 14.65 L22.05 15.2 22.65 15.8 23.15 16.3 23.45 16.85 23.15 17.1 23.0 17.05 M27.75 11.5 L27.3 13.3 27.25 13.45 26.9 14.15 26.85 14.3 26.15 16.55 26.0 16.5 25.9 16.5 25.85 16.55 25.55 16.75 26.3 14.4 26.3 14.3 27.15 12.6 27.75 11.5 M26.7 16.75 L26.75 16.65 27.05 15.65 27.9 13.35 Q28.7 12.85 29.85 12.65 L30.65 12.45 Q30.2 14.75 28.7 16.5 L28.35 16.95 28.25 16.9 28.2 16.9 27.65 17.0 26.7 16.75 M27.85 16.05 L27.95 16.05 Q28.35 16.15 29.75 14.25 L30.0 13.3 29.85 13.25 Q29.7 13.2 29.3 14.0 L28.85 14.8 28.3 15.35 27.85 16.05" fill="#58800b" fill-rule="evenodd" stroke="none"/>
    <path d="M34.3 28.05 Q35.0 29.85 35.0 31.55 35.0 35.2 32.4 37.8 L32.2 38.0 Q30.8 39.3 29.1 39.9 L26.15 40.35 Q22.5 40.35 19.95 37.8 17.35 35.2 17.35 31.55 L17.4 30.1 17.45 29.8 17.5 29.45 17.5 29.2 17.65 28.35 17.7 27.9 18.3 27.7 18.15 28.4 18.05 29.25 18.0 29.55 17.95 29.85 17.95 30.15 17.85 31.55 Q17.85 35.0 20.3 37.4 L20.55 37.7 21.95 38.7 Q23.85 39.85 26.15 39.85 29.6 39.85 32.05 37.4 33.6 35.9 34.15 33.9 L34.25 33.6 34.25 33.55 34.45 32.45 34.45 31.55 Q34.45 29.95 33.8 28.25 L33.65 27.9 33.55 27.7 33.4 27.35 33.0 26.6 32.6 25.9 33.25 26.0 33.5 26.4 33.9 27.2 34.05 27.5 34.15 27.7 34.3 28.05" fill="#663907" fill-rule="evenodd" stroke="none"/>
    <path d="M17.0 28.2 L17.1 28.2 17.6 27.95 17.6 27.9 17.7 27.9 17.65 28.35 17.0 28.2 M33.25 26.0 L33.45 26.0 34.1 26.1 33.5 26.4 33.25 26.0" fill="#797979" fill-rule="evenodd" stroke="none"/>
    <path d="M36.05 25.05 L36.1 25.15 36.15 25.5 36.2 25.95 36.25 26.2 36.25 26.25 36.25 26.4 35.9 27.05 Q35.4 27.55 34.3 28.05 L34.15 27.7 34.7 27.45 Q35.95 26.85 35.9 26.3 L35.8 25.6 35.7 24.95 35.7 24.9 36.05 25.05 M17.4 30.1 Q15.9 29.85 15.3 29.35 L15.0 28.85 15.0 28.8 14.95 28.25 15.2 27.9 15.2 27.75 15.25 28.1 15.35 28.8 15.35 28.95 15.45 29.05 15.55 29.15 16.55 29.55 16.55 29.6 17.45 29.8 17.4 30.1" fill="#4d4b4b" fill-rule="evenodd" stroke="none"/>
  </g>
</svg>
