<?xml version="1.0" encoding="UTF-8" standalone="no"?>
<svg xmlns:ffdec="https://www.free-decompiler.com/flash" xmlns:xlink="http://www.w3.org/1999/xlink" ffdec:objectType="shape" height="33.8px" width="23.95px" xmlns="http://www.w3.org/2000/svg">
  <g transform="matrix(1.0, 0.0, 0.0, 1.0, -12.55, -5.6)">
    <path d="M18.1 17.4 L18.05 17.35 16.15 15.75 14.6 14.4 Q12.4 12.45 12.55 11.45 L12.6 11.4 12.8 11.15 12.85 11.15 Q14.5 10.35 16.55 10.5 18.6 10.55 20.7 11.25 L20.85 11.3 21.35 8.95 21.35 8.9 Q21.9 7.0 23.3 5.7 L23.4 5.65 23.5 5.6 23.6 5.6 23.85 5.7 Q25.45 6.9 26.7 8.75 28.15 10.5 28.4 11.95 L28.4 12.0 28.45 12.35 27.7 12.55 27.65 12.1 Q27.4 10.8 26.15 9.15 L24.6 7.35 24.7 7.55 Q25.85 10.4 25.75 13.25 L25.25 13.85 24.9 14.6 24.95 14.25 25.0 12.9 24.7 13.75 24.55 14.1 24.85 14.75 24.6 15.4 24.5 15.75 24.4 16.1 24.3 16.3 24.3 16.25 24.3 16.1 24.35 15.75 24.3 15.4 24.15 14.95 23.65 14.1 22.65 13.05 21.5 12.35 20.8 12.05 20.5 11.95 Q18.45 11.3 16.55 11.2 L14.55 11.35 Q13.4 11.4 13.4 11.85 L13.4 11.95 13.35 11.95 Q13.65 12.6 15.1 13.85 L17.25 15.75 18.5 16.8 18.7 17.0 19.4 17.45 19.5 17.45 20.85 17.95 21.65 18.1 22.45 18.1 Q23.25 17.95 23.75 17.35 L23.8 17.35 23.9 17.2 24.05 16.95 24.05 16.9 24.15 16.75 24.0 17.35 24.05 17.45 24.0 17.55 24.15 17.7 24.35 17.8 24.15 18.05 23.7 18.4 Q22.85 19.0 21.5 18.8 L20.15 18.5 18.8 17.9 18.7 17.85 18.1 17.4 M27.9 14.9 L27.65 15.25 27.65 15.2 27.35 15.7 27.35 15.75 26.85 16.25 27.0 15.75 27.0 15.65 27.1 15.25 27.9 14.9 M23.5 8.1 Q22.9 7.55 22.9 8.1 L22.95 8.3 23.25 8.35 23.5 8.25 23.5 8.1 M21.95 9.55 L21.6 11.55 22.3 11.95 21.9 10.35 21.95 9.55 M24.15 9.55 Q24.15 9.1 23.35 9.05 22.55 8.95 22.55 9.45 22.55 9.9 23.45 9.9 24.15 9.9 24.15 9.55 M24.6 11.45 Q24.6 10.9 23.55 10.65 22.45 10.3 22.45 10.85 23.9 12.0 24.2 12.0 L24.6 11.45 M23.45 12.75 L23.95 13.3 24.05 13.3 24.3 13.2 24.4 13.0 Q24.05 12.65 23.75 12.65 L23.45 12.75" fill="#205917" fill-rule="evenodd" stroke="none"/>
    <path d="M23.9 17.2 L23.8 17.35 23.75 17.35 Q23.25 17.95 22.45 18.1 L21.65 18.1 20.85 17.95 19.5 17.45 19.4 17.45 18.7 17.0 18.5 16.8 17.25 15.75 15.1 13.85 Q13.65 12.6 13.35 11.95 L13.4 11.95 13.95 12.0 15.6 13.85 17.2 15.45 17.65 15.75 Q18.5 16.25 19.5 16.55 L20.75 16.75 21.85 16.85 21.9 16.85 22.85 16.55 22.9 16.5 23.0 16.4 23.0 16.35 23.25 16.6 23.45 16.75 23.5 16.8 23.75 17.1 23.9 17.2 M14.55 11.35 L16.55 11.2 Q18.45 11.3 20.5 11.95 L20.8 12.05 21.5 12.35 22.65 13.05 23.65 14.1 24.15 14.95 24.3 15.4 24.35 15.75 24.3 16.1 24.3 16.25 24.2 16.55 23.8 16.15 23.75 16.1 23.4 15.75 23.15 15.55 23.4 15.5 23.45 15.45 Q23.65 14.65 22.0 13.55 L21.75 13.45 20.85 12.95 18.15 11.85 16.45 11.85 16.05 11.7 14.75 11.4 14.55 11.35 M24.85 14.75 L24.55 14.1 24.7 13.75 25.0 12.9 24.95 14.25 24.9 14.6 24.85 14.75 M25.75 13.25 Q25.85 10.4 24.7 7.55 L24.6 7.35 26.15 9.15 Q27.4 10.8 27.65 12.1 L27.7 12.55 27.6 12.6 27.15 12.7 27.25 12.35 Q27.25 11.9 26.65 12.25 26.0 12.65 26.0 13.05 L25.75 13.25 M21.95 9.55 L21.9 10.35 22.3 11.95 21.6 11.55 21.95 9.55 M26.9 10.75 Q25.85 10.95 25.85 11.6 L25.9 11.75 26.1 11.9 26.75 11.45 26.95 10.95 26.9 10.75 M26.2 9.8 Q25.75 9.65 25.65 10.1 L25.9 10.45 26.25 9.95 26.2 9.8" fill="#39a12a" fill-rule="evenodd" stroke="none"/>
    <path d="M23.5 8.1 L23.5 8.25 23.25 8.35 22.95 8.3 22.9 8.1 Q22.9 7.55 23.5 8.1 M24.6 11.45 L24.2 12.0 Q23.9 12.0 22.45 10.85 22.45 10.3 23.55 10.65 24.6 10.9 24.6 11.45 M24.15 9.55 Q24.15 9.9 23.45 9.9 22.55 9.9 22.55 9.45 22.55 8.95 23.35 9.05 24.15 9.1 24.15 9.55 M23.45 12.75 L23.75 12.65 Q24.05 12.65 24.4 13.0 L24.3 13.2 24.05 13.3 23.95 13.3 23.45 12.75 M19.9 14.75 Q20.65 14.75 20.65 15.3 L20.45 15.7 20.35 15.75 19.35 15.85 18.85 15.75 18.7 15.65 18.7 15.35 Q18.7 15.05 18.85 14.9 L19.9 14.75 M18.65 14.0 L18.4 14.65 17.25 14.85 Q16.85 14.85 16.95 14.45 16.95 13.95 17.8 13.8 18.65 13.55 18.65 14.0 M16.85 13.35 L16.7 13.55 16.3 13.7 Q15.75 13.7 15.9 13.45 15.9 13.05 16.4 13.05 16.85 13.05 16.85 13.35" fill="#56d444" fill-rule="evenodd" stroke="none"/>
    <path d="M26.2 9.8 L26.25 9.95 25.9 10.45 25.65 10.1 Q25.75 9.65 26.2 9.8 M26.9 10.75 L26.95 10.95 26.75 11.45 26.1 11.9 25.9 11.75 25.85 11.6 Q25.85 10.95 26.9 10.75 M26.0 13.05 Q26.0 12.65 26.65 12.25 27.25 11.9 27.25 12.35 L27.15 12.7 26.85 12.75 26.05 13.05 26.0 13.05 M16.45 11.85 L18.15 11.85 20.85 12.95 21.75 13.45 22.0 13.55 Q23.65 14.65 23.45 15.45 L23.4 15.5 23.15 15.55 23.1 15.45 22.55 15.05 21.2 14.0 18.85 12.7 16.45 11.85 M19.9 14.75 L18.85 14.9 Q18.7 15.05 18.7 15.35 L18.7 15.65 18.85 15.75 19.35 15.85 20.35 15.75 20.45 15.7 20.65 15.3 Q20.65 14.75 19.9 14.75 M13.95 12.0 Q16.55 12.4 18.85 13.5 L21.9 15.45 22.15 15.6 22.35 15.75 22.85 16.25 23.0 16.4 22.9 16.5 22.85 16.55 21.9 16.85 21.85 16.85 20.75 16.75 19.5 16.55 Q18.5 16.25 17.65 15.75 L17.2 15.45 15.6 13.85 13.95 12.0 M16.85 13.35 Q16.85 13.05 16.4 13.05 15.9 13.05 15.9 13.45 15.75 13.7 16.3 13.7 L16.7 13.55 16.85 13.35 M18.65 14.0 Q18.65 13.55 17.8 13.8 16.95 13.95 16.95 14.45 16.85 14.85 17.25 14.85 L18.4 14.65 18.65 14.0" fill="#42bb31" fill-rule="evenodd" stroke="none"/>
    <path d="M24.35 17.8 L24.15 17.7 24.0 17.55 24.05 17.45 24.0 17.35 24.15 16.75 24.3 16.35 24.3 16.3 24.4 16.1 24.5 15.75 24.6 15.4 24.85 14.75 24.9 14.6 25.25 13.85 25.75 13.25 26.0 13.05 26.05 13.05 26.85 12.75 27.15 12.7 27.6 12.6 27.7 12.55 28.45 12.35 28.7 11.8 28.7 11.65 Q29.15 10.9 30.15 11.45 31.15 11.95 30.8 13.1 30.7 14.4 30.2 15.0 L30.15 15.0 29.6 15.45 Q29.15 15.5 28.9 15.15 L28.4 14.8 27.9 14.9 27.1 15.25 27.0 15.65 27.0 15.75 26.85 16.25 26.8 16.35 26.55 17.25 26.25 17.85 26.05 18.05 25.5 18.1 25.85 17.85 26.6 14.7 27.35 14.35 28.2 14.1 28.45 14.1 28.5 14.15 28.55 14.1 Q29.1 14.25 29.45 14.7 L29.65 14.5 Q30.05 14.05 30.1 13.05 L30.1 13.0 30.1 12.95 Q30.3 12.4 29.85 12.1 L29.35 12.05 29.3 12.25 29.2 12.5 29.05 12.75 28.9 12.9 28.45 13.1 27.75 13.3 27.65 13.3 26.95 13.45 26.45 13.6 25.85 14.25 25.75 14.35 25.0 16.45 25.0 16.5 24.7 17.3 24.7 17.35 24.55 17.7 24.9 18.05 24.35 17.8" fill="#624e1d" fill-rule="evenodd" stroke="none"/>
    <path d="M29.2 12.5 L29.3 12.25 29.35 12.05 29.85 12.1 Q30.3 12.4 30.1 12.95 L30.1 13.0 29.55 12.7 29.2 12.5 M28.55 14.1 L28.5 14.15 28.45 14.1 28.2 14.1 27.35 14.35 26.6 14.7 25.75 14.35 25.85 14.25 26.45 13.6 26.95 13.45 27.65 13.3 27.75 13.3 28.45 13.1 28.9 12.9 Q29.35 13.3 28.8 13.85 L28.55 14.1" fill="#9f9738" fill-rule="evenodd" stroke="none"/>
    <path d="M30.1 13.0 L30.1 13.05 Q30.05 14.05 29.65 14.5 L29.45 14.7 Q29.1 14.25 28.55 14.1 L28.8 13.85 Q29.35 13.3 28.9 12.9 L29.05 12.75 29.2 12.5 29.55 12.7 30.1 13.0 M26.6 14.7 L25.85 17.85 25.5 18.1 24.9 18.05 24.55 17.7 24.7 17.35 24.7 17.3 25.0 16.5 25.0 16.45 25.75 14.35 26.6 14.7" fill="#7e7828" fill-rule="evenodd" stroke="none"/>
    <path d="M18.1 17.4 L18.7 17.85 Q17.65 18.6 16.65 19.7 L15.15 21.6 Q14.55 22.55 13.75 26.0 L13.65 26.7 Q13.45 27.9 13.7 29.35 14.05 31.55 15.35 34.15 L15.4 34.2 15.65 34.6 15.95 34.9 16.6 35.6 Q19.9 38.65 24.55 38.65 29.2 38.65 32.5 35.6 L33.2 34.9 33.8 34.15 33.95 33.95 34.0 33.85 35.25 31.0 35.5 30.0 35.45 30.0 Q36.05 26.9 34.85 23.3 L34.45 22.5 Q33.7 21.05 32.5 19.7 30.05 17.1 26.95 16.4 L26.8 16.35 26.85 16.25 27.35 15.75 27.35 15.7 27.55 15.75 Q30.65 16.6 33.05 19.2 35.1 21.45 35.95 24.2 37.45 29.7 34.9 33.85 L33.0 36.15 Q29.5 39.4 24.55 39.4 19.6 39.4 16.1 36.15 L14.2 33.85 Q11.75 28.85 13.15 24.1 14.0 21.45 16.1 19.15 L16.1 19.2 Q17.05 18.15 18.1 17.4" fill="#8c3f01" fill-rule="evenodd" stroke="none"/>
    <path d="M18.8 17.9 L20.15 18.5 19.75 18.85 19.5 19.3 19.05 19.2 Q18.3 19.2 18.3 20.05 L18.3 20.35 18.9 20.7 18.85 21.15 18.95 21.45 19.1 21.85 19.1 22.05 18.95 22.25 18.9 22.45 18.85 22.45 18.6 22.85 18.25 23.95 18.0 24.85 Q18.0 25.4 18.3 25.7 18.75 26.1 19.6 25.9 L20.3 25.9 20.6 26.25 Q20.85 26.85 20.65 27.85 L20.55 28.9 Q20.7 29.95 21.75 30.1 L23.0 29.9 24.2 29.85 24.3 29.9 24.3 29.6 24.3 29.8 24.25 30.15 24.55 30.1 25.3 30.8 Q25.85 31.55 26.55 31.4 L27.15 31.0 27.9 29.65 Q28.15 28.75 28.35 28.6 28.7 28.3 29.7 28.35 30.5 28.25 30.75 27.4 L30.9 26.7 31.65 26.15 32.5 25.7 Q32.95 25.3 32.95 24.0 L32.9 22.85 32.95 22.85 32.9 22.75 32.9 22.55 32.8 22.5 32.45 21.8 31.55 20.45 30.55 19.85 29.7 19.1 28.55 17.75 Q27.85 17.25 27.25 17.3 L27.4 17.85 26.95 18.45 Q26.3 18.95 25.5 18.95 24.4 18.95 23.7 18.4 L24.15 18.05 24.15 18.1 Q24.5 18.6 25.25 18.6 L25.65 18.55 26.15 18.25 26.3 18.15 26.7 17.55 26.65 17.35 26.55 17.25 26.8 16.35 26.95 16.4 27.1 16.55 Q27.65 16.95 28.45 16.9 L31.95 19.75 32.9 20.5 33.25 21.05 33.7 22.55 33.8 22.7 34.4 24.95 34.45 25.55 34.25 26.1 34.3 27.2 Q34.3 28.05 33.85 28.7 L33.2 29.55 32.95 30.65 Q32.75 31.4 32.2 31.95 31.6 32.5 30.8 32.6 L29.9 32.7 28.75 33.2 27.55 33.5 26.65 33.55 25.8 34.1 25.05 34.0 24.65 34.35 23.15 34.3 23.1 34.25 22.65 34.5 22.15 34.5 22.2 34.5 Q21.6 34.45 21.2 33.95 L20.65 33.25 19.65 32.95 Q18.95 32.9 18.7 32.65 L18.35 31.9 18.1 31.1 17.45 30.35 16.95 29.55 17.0 28.95 17.05 28.35 16.55 27.15 Q16.05 26.45 16.3 25.95 L16.5 25.35 16.2 24.75 Q15.85 24.25 16.05 23.15 L16.3 22.4 16.3 22.35 16.15 22.0 16.05 21.45 17.15 19.85 18.15 18.45 18.8 17.9 M17.95 22.7 L18.4 22.65 18.55 22.35 18.1 22.0 Q17.6 21.95 17.6 22.35 17.6 22.65 17.95 22.7 M19.2 27.05 L19.15 27.05 19.15 27.1 19.15 27.3 19.1 27.4 19.05 27.55 19.2 27.9 19.35 27.95 19.8 27.95 19.85 27.95 20.0 27.8 20.05 27.55 20.05 27.5 19.95 27.3 19.95 27.15 19.9 27.05 19.7 26.85 19.45 26.85 19.4 26.9 Q19.4 26.75 19.25 26.9 L19.2 27.05 M14.75 25.25 L14.7 25.0 14.75 25.0 14.75 24.85 14.85 24.8 15.0 24.8 15.05 24.75 15.15 24.75 15.3 24.8 15.6 24.95 15.65 25.1 15.65 25.2 15.55 25.2 15.55 25.3 15.5 25.45 15.35 25.55 15.3 25.6 15.15 25.6 14.75 25.4 14.75 25.35 14.75 25.25 M14.9 27.8 L15.0 27.7 15.15 27.65 15.35 27.65 15.35 27.6 15.7 27.65 15.85 27.8 Q16.15 28.1 15.9 28.4 L15.85 28.45 15.7 28.75 15.3 28.75 15.05 28.6 14.95 28.5 14.7 27.95 14.8 27.95 14.8 27.85 14.9 27.8 M19.15 29.6 L19.1 29.55 19.0 29.5 18.85 29.5 18.8 29.55 18.65 29.6 18.55 29.75 18.6 29.9 18.65 29.95 18.65 30.0 18.7 30.05 18.75 30.05 18.8 30.1 19.0 30.1 19.1 30.05 19.15 29.9 19.25 29.85 19.2 29.7 19.15 29.6 M20.4 34.3 L20.3 34.25 20.15 34.1 20.15 33.95 20.2 33.9 20.25 33.8 20.3 33.75 20.4 33.75 20.4 33.7 20.6 33.75 20.65 33.8 20.7 33.95 20.7 34.0 20.7 34.05 20.7 34.2 20.55 34.35 20.4 34.3 M17.6 33.35 L17.45 33.35 17.2 33.3 17.1 33.1 17.05 32.85 17.1 32.65 17.2 32.45 17.4 32.35 17.7 32.4 17.85 32.5 17.95 32.95 17.9 33.1 17.7 33.3 17.6 33.35 M31.35 31.05 L31.55 30.95 31.65 30.7 31.55 30.45 31.5 30.45 31.45 30.35 31.35 30.3 31.15 30.25 31.1 30.3 30.95 30.3 30.95 30.4 30.85 30.4 30.85 30.7 30.85 30.95 30.9 31.0 31.0 31.05 31.35 31.05 M32.2 27.25 L32.15 27.3 31.95 27.35 31.85 27.4 31.8 27.5 31.75 27.55 31.7 27.65 31.7 27.75 31.65 27.85 31.7 28.1 31.75 28.25 31.9 28.3 32.3 28.3 32.5 28.15 32.55 27.8 32.5 27.55 32.45 27.4 32.35 27.35 32.2 27.25 M33.75 29.45 L34.0 29.35 34.3 29.4 34.4 29.45 34.5 29.85 34.35 30.15 34.1 30.35 33.85 30.35 33.7 30.25 Q33.5 30.0 33.6 29.75 L33.65 29.7 Q33.6 29.65 33.7 29.55 L33.75 29.45 M32.5 32.85 L32.55 32.9 32.55 33.15 32.55 33.25 32.4 33.35 32.2 33.35 32.05 33.3 32.0 33.2 32.0 33.1 31.95 32.95 32.0 32.8 32.1 32.7 32.2 32.7 32.25 32.6 32.4 32.7 32.5 32.8 32.5 32.85 M29.3 29.3 L29.25 29.4 29.15 29.4 29.05 29.45 29.0 29.5 Q28.85 29.5 28.95 29.6 L28.85 29.65 28.9 29.9 28.9 30.0 29.0 30.2 29.2 30.4 29.6 30.35 29.8 29.95 29.75 29.7 29.65 29.55 29.6 29.45 29.3 29.3 M25.0 32.0 Q25.0 31.3 24.5 31.35 23.95 31.35 23.95 31.8 23.95 32.35 24.45 32.35 25.0 32.35 25.0 32.0 M24.25 33.95 L24.2 34.05 24.3 33.95 24.25 33.95 M27.95 32.35 L28.1 32.2 28.15 32.2 28.1 32.1 28.1 32.05 28.1 31.95 28.0 31.95 28.0 31.8 27.95 31.75 27.8 31.7 27.75 31.7 27.6 31.75 27.6 31.85 27.5 31.9 27.55 32.1 27.55 32.15 27.6 32.2 27.65 32.3 27.7 32.3 27.95 32.35 M21.35 31.9 L21.45 32.15 21.55 32.3 22.0 32.35 22.05 32.35 22.4 32.1 22.45 32.1 22.45 31.55 22.4 31.35 22.35 31.3 22.3 31.15 21.95 30.9 21.9 31.0 Q21.75 30.9 21.55 31.1 L21.4 31.2 21.3 31.25 21.3 31.85 21.35 31.9 M29.05 33.9 L29.2 33.95 29.25 34.0 29.25 34.2 29.3 34.3 29.35 34.55 29.3 34.55 29.15 34.7 29.15 34.75 28.95 34.8 29.0 34.85 28.65 34.75 28.55 34.55 28.55 34.45 28.5 34.3 28.55 34.15 28.6 34.05 28.7 33.95 29.0 33.95 29.05 33.9 M25.85 34.75 L25.5 35.05 Q24.9 35.05 24.95 34.75 24.95 34.4 25.4 34.35 25.85 34.35 25.85 34.75" fill="#f9a800" fill-rule="evenodd" stroke="none"/>
    <path d="M18.7 17.85 L18.8 17.9 18.15 18.45 17.15 19.85 16.05 21.45 16.15 22.0 16.3 22.35 16.3 22.4 16.05 23.15 Q15.85 24.25 16.2 24.75 L16.5 25.35 16.3 25.95 Q16.05 26.45 16.55 27.15 L17.05 28.35 17.0 28.95 16.95 29.55 17.45 30.35 18.1 31.1 18.35 31.9 18.7 32.65 Q18.95 32.9 19.65 32.95 L20.65 33.25 21.2 33.95 Q21.6 34.45 22.2 34.5 L22.15 34.5 22.65 34.5 23.1 34.25 23.15 34.3 24.65 34.35 25.05 34.0 25.8 34.1 26.65 33.55 27.55 33.5 28.75 33.2 29.9 32.7 30.8 32.6 Q31.6 32.5 32.2 31.95 32.75 31.4 32.95 30.65 L33.2 29.55 33.85 28.7 Q34.3 28.05 34.3 27.2 L34.25 26.1 34.45 25.55 34.4 24.95 33.8 22.7 33.7 22.55 33.25 21.05 32.9 20.5 31.95 19.75 28.45 16.9 Q27.65 16.95 27.1 16.55 L26.95 16.4 Q30.05 17.1 32.5 19.7 33.7 21.05 34.45 22.5 L34.85 23.3 Q36.05 26.9 35.45 30.0 L35.2 30.25 34.7 30.5 34.65 30.8 34.65 30.85 34.5 31.25 34.45 31.3 34.45 31.45 33.85 32.65 Q33.75 32.55 33.75 32.75 L33.25 33.35 33.0 33.95 32.75 34.25 32.65 34.35 31.9 34.35 31.0 34.45 28.7 35.8 27.9 35.65 27.25 35.5 Q26.7 35.5 26.0 35.9 25.85 35.95 25.75 36.1 L24.35 36.15 23.5 35.8 22.85 36.0 22.1 36.25 Q21.35 36.25 20.95 35.9 L20.3 35.4 19.65 35.2 19.1 34.5 17.4 34.4 Q17.0 34.05 16.9 33.55 L16.8 33.4 Q16.8 32.95 16.4 32.7 L15.95 32.45 Q15.5 32.2 15.4 31.7 L15.4 31.4 15.45 30.65 15.25 30.0 14.9 29.65 14.25 29.15 14.0 28.9 13.85 28.5 13.8 27.35 13.65 26.7 13.75 26.0 Q14.55 22.55 15.15 21.6 L16.65 19.7 Q17.65 18.6 18.7 17.85 M24.15 18.05 L24.35 17.8 24.9 18.05 25.5 18.1 26.05 18.05 26.25 17.85 26.55 17.25 26.65 17.35 26.7 17.55 26.3 18.15 26.15 18.25 25.65 18.55 25.25 18.6 Q24.5 18.6 24.15 18.1 L24.15 18.05 M14.9 27.8 L14.8 27.85 14.8 27.95 14.7 27.95 14.95 28.5 15.05 28.6 15.3 28.75 15.7 28.75 15.85 28.45 15.9 28.4 Q16.15 28.1 15.85 27.8 L15.7 27.65 15.35 27.6 15.35 27.65 15.15 27.65 15.0 27.7 14.9 27.8 M14.75 25.25 L14.75 25.35 14.75 25.4 15.15 25.6 15.3 25.6 15.35 25.55 15.5 25.45 15.55 25.3 15.55 25.2 15.65 25.2 15.65 25.1 15.6 24.95 15.3 24.8 15.15 24.75 15.05 24.75 15.0 24.8 14.85 24.8 14.75 24.85 14.75 25.0 14.7 25.0 14.75 25.25 M17.6 33.35 L17.7 33.3 17.9 33.1 17.95 32.95 17.85 32.5 17.7 32.4 17.4 32.35 17.2 32.45 17.1 32.65 17.05 32.85 17.1 33.1 17.2 33.3 17.45 33.35 17.6 33.35 M20.4 34.3 L20.55 34.35 20.7 34.2 20.7 34.05 20.7 34.0 20.7 33.95 20.65 33.8 20.6 33.75 20.4 33.7 20.4 33.75 20.3 33.75 20.25 33.8 20.2 33.9 20.15 33.95 20.15 34.1 20.3 34.25 20.4 34.3 M32.5 32.85 L32.5 32.8 32.4 32.7 32.25 32.6 32.2 32.7 32.1 32.7 32.0 32.8 31.95 32.95 32.0 33.1 32.0 33.2 32.05 33.3 32.2 33.35 32.4 33.35 32.55 33.25 32.55 33.15 32.55 32.9 32.5 32.85 M33.75 29.45 L33.7 29.55 Q33.6 29.65 33.65 29.7 L33.6 29.75 Q33.5 30.0 33.7 30.25 L33.85 30.35 34.1 30.35 34.35 30.15 34.5 29.85 34.4 29.45 34.3 29.4 34.0 29.35 33.75 29.45 M24.25 33.95 L24.3 33.95 24.2 34.05 24.25 33.95 M25.85 34.75 Q25.85 34.35 25.4 34.35 24.95 34.4 24.95 34.75 24.9 35.05 25.5 35.05 L25.85 34.75 M29.05 33.9 L29.0 33.95 28.7 33.95 28.6 34.05 28.55 34.15 28.5 34.3 28.55 34.45 28.55 34.55 28.65 34.75 29.0 34.85 28.95 34.8 29.15 34.75 29.15 34.7 29.3 34.55 29.35 34.55 29.3 34.3 29.25 34.2 29.25 34.0 29.2 33.95 29.05 33.9" fill="#e58d00" fill-rule="evenodd" stroke="none"/>
    <path d="M20.15 18.5 L21.5 18.8 Q22.85 19.0 23.7 18.4 24.4 18.95 25.5 18.95 26.3 18.95 26.95 18.45 L27.4 17.85 27.25 17.3 Q27.85 17.25 28.55 17.75 L29.7 19.1 30.55 19.85 31.55 20.45 32.45 21.8 32.8 22.5 32.9 22.55 32.9 22.75 32.95 22.85 32.9 22.85 32.95 24.0 Q32.95 25.3 32.5 25.7 L31.65 26.15 30.9 26.7 30.75 27.4 Q30.5 28.25 29.7 28.35 28.7 28.3 28.35 28.6 28.15 28.75 27.9 29.65 L27.15 31.0 26.55 31.4 Q25.85 31.55 25.3 30.8 L24.55 30.1 24.25 30.15 24.3 29.8 24.3 29.6 24.3 29.9 24.2 29.85 23.0 29.9 21.75 30.1 Q20.7 29.95 20.55 28.9 L20.65 27.85 Q20.85 26.85 20.6 26.25 L20.3 25.9 19.6 25.9 Q18.75 26.1 18.3 25.7 18.0 25.4 18.0 24.85 L18.25 23.95 18.6 22.85 18.85 22.45 18.9 22.45 18.95 22.25 19.1 22.05 19.1 21.85 18.95 21.45 18.85 21.15 18.9 20.7 18.3 20.35 18.3 20.05 Q18.3 19.2 19.05 19.2 L19.5 19.3 19.75 18.85 20.15 18.5 M30.95 22.7 L30.95 22.55 Q30.95 22.1 30.45 22.1 30.1 22.1 29.95 22.45 L29.8 22.4 29.65 22.35 Q28.95 22.05 28.85 21.7 L28.7 21.05 Q28.5 20.7 27.75 20.7 L27.25 20.65 27.35 20.65 27.75 20.15 Q27.75 19.65 27.2 19.65 26.6 19.65 26.6 20.3 L26.6 20.35 25.95 19.75 24.25 19.65 24.3 19.25 Q24.3 18.65 23.75 18.8 23.25 19.05 23.25 19.45 L23.25 19.55 22.9 19.5 21.9 19.5 Q20.75 20.8 20.75 21.05 L20.95 21.45 21.1 22.0 20.75 22.8 Q20.5 22.95 20.6 23.3 20.6 23.75 20.9 24.05 L21.85 24.9 22.0 25.75 22.0 26.65 Q22.05 27.2 22.4 27.6 22.75 28.05 23.25 28.1 L24.0 28.05 24.7 28.05 25.3 28.35 26.4 28.4 Q27.0 28.2 27.3 27.7 L27.95 26.8 28.55 26.6 29.15 26.5 Q29.9 26.3 30.05 25.7 L30.15 25.05 30.45 24.25 Q30.6 23.8 30.25 23.35 L30.0 23.05 30.0 22.65 30.3 22.65 30.95 22.7 M20.8 21.8 Q20.8 21.25 20.35 21.4 19.9 21.5 19.9 21.75 19.85 22.15 20.45 22.15 L20.8 21.8 M21.15 19.45 L20.8 19.15 Q20.4 19.15 20.4 19.45 L20.8 19.75 21.15 19.45 M30.05 21.05 Q30.05 20.6 29.65 20.6 29.25 20.6 29.25 21.05 L29.25 21.2 Q29.3 21.45 29.65 21.45 30.05 21.45 30.05 21.05 M28.85 18.9 Q28.85 18.55 28.4 18.65 27.95 18.65 27.95 19.0 27.95 19.3 28.3 19.3 28.85 19.3 28.85 18.9 M31.4 23.15 L31.25 23.25 31.15 23.5 31.25 23.7 31.3 23.85 31.4 24.0 31.45 24.1 31.6 24.15 31.95 24.15 32.0 24.1 32.15 24.0 32.15 23.9 32.15 23.45 32.1 23.4 32.05 23.25 31.85 23.1 31.6 23.0 31.65 23.05 31.4 23.15 M19.6 23.35 L19.75 23.35 19.8 23.3 19.85 23.25 19.9 23.2 19.95 23.0 19.85 22.9 19.65 22.85 19.55 22.85 19.45 22.95 19.4 23.05 19.4 23.2 19.4 23.25 19.45 23.3 19.55 23.35 19.6 23.35 M19.8 20.5 L19.8 20.25 19.75 20.2 19.65 20.15 19.45 20.15 19.3 20.2 19.3 20.3 19.25 20.35 19.25 20.5 19.25 20.55 19.3 20.6 19.35 20.6 19.4 20.65 19.6 20.65 19.65 20.6 19.7 20.6 19.8 20.5 M17.95 22.7 Q17.6 22.65 17.6 22.35 17.6 21.95 18.1 22.0 L18.55 22.35 18.4 22.65 17.95 22.7 M20.0 24.25 L19.8 24.1 19.3 24.05 19.25 24.05 18.95 24.15 18.9 24.25 18.8 24.3 18.8 24.4 18.75 24.45 18.85 24.85 18.85 24.9 19.2 25.15 19.65 25.15 19.8 25.0 19.8 24.9 19.9 24.85 20.05 24.4 20.05 24.3 20.0 24.25 M19.2 27.05 L19.25 26.9 Q19.4 26.75 19.4 26.9 L19.45 26.85 19.7 26.85 19.9 27.05 19.95 27.15 19.95 27.3 20.05 27.5 20.05 27.55 20.0 27.8 19.85 27.95 19.8 27.95 19.35 27.95 19.2 27.9 19.05 27.55 19.1 27.4 19.15 27.3 19.15 27.1 19.15 27.05 19.2 27.05 M19.15 29.6 L19.2 29.7 19.25 29.85 19.15 29.9 19.1 30.05 19.0 30.1 18.8 30.1 18.75 30.05 18.7 30.05 18.65 30.0 18.65 29.95 18.6 29.9 18.55 29.75 18.65 29.6 18.8 29.55 18.85 29.5 19.0 29.5 19.1 29.55 19.15 29.6 M32.2 27.25 L32.35 27.35 32.45 27.4 32.5 27.55 32.55 27.8 32.5 28.15 32.3 28.3 31.9 28.3 31.75 28.25 31.7 28.1 31.65 27.85 31.7 27.75 31.7 27.65 31.75 27.55 31.8 27.5 31.85 27.4 31.95 27.35 32.15 27.3 32.2 27.25 M31.35 31.05 L31.0 31.05 30.9 31.0 30.85 30.95 30.85 30.7 30.85 30.4 30.95 30.4 30.95 30.3 31.1 30.3 31.15 30.25 31.35 30.3 31.45 30.35 31.5 30.45 31.55 30.45 31.65 30.7 31.55 30.95 31.35 31.05 M29.4 27.4 L29.4 27.45 29.45 27.5 29.45 27.55 29.55 27.6 29.75 27.6 29.9 27.5 29.95 27.45 30.0 27.3 29.95 27.2 29.9 27.2 29.85 27.05 29.8 27.0 29.65 26.95 29.6 26.95 29.45 27.0 29.45 27.1 29.4 27.1 29.4 27.4 M28.2 27.8 L28.25 27.7 28.25 27.6 28.25 27.5 28.2 27.5 28.05 27.35 28.0 27.45 27.95 27.45 27.85 27.5 27.8 27.6 27.8 27.7 27.8 27.75 27.85 27.75 27.85 27.8 28.05 27.9 28.2 27.8 M25.85 29.85 L25.95 30.0 26.05 30.1 26.2 30.25 26.65 30.35 26.85 30.3 26.9 30.25 26.95 29.8 26.95 29.75 26.7 29.35 26.5 29.25 26.15 29.25 26.1 29.3 26.0 29.3 25.9 29.4 25.85 29.85 M29.3 29.3 L29.6 29.45 29.65 29.55 29.75 29.7 29.8 29.95 29.6 30.35 29.2 30.4 29.0 30.2 28.9 30.0 28.9 29.9 28.85 29.65 28.95 29.6 Q28.85 29.5 29.0 29.5 L29.05 29.45 29.15 29.4 29.25 29.4 29.3 29.3 M24.75 29.0 L24.7 29.0 24.65 29.05 24.55 29.25 24.65 29.35 24.65 29.4 24.75 29.55 24.85 29.6 25.05 29.6 25.2 29.5 25.25 29.4 25.25 29.2 25.2 29.1 25.2 29.05 25.15 29.0 25.1 29.0 24.95 28.85 24.9 28.95 24.8 28.95 24.75 29.0 M21.35 28.45 L21.3 28.5 21.25 28.65 21.25 28.95 21.3 29.1 21.45 29.25 22.05 29.35 22.25 29.2 22.3 29.15 22.25 28.7 22.15 28.55 22.1 28.45 22.0 28.4 21.55 28.35 21.5 28.35 21.35 28.45 M23.4 29.15 L23.4 29.05 23.35 28.9 23.3 28.85 23.25 28.75 23.2 28.7 23.1 28.65 22.95 28.6 22.95 28.7 22.8 28.7 22.8 28.8 22.75 28.85 22.75 28.95 22.8 29.1 22.85 29.15 22.85 29.2 22.9 29.25 22.95 29.25 23.2 29.35 23.2 29.3 23.35 29.15 23.4 29.15 M21.45 25.55 L21.4 25.55 21.4 25.45 21.35 25.45 21.25 25.35 21.1 25.3 21.1 25.4 Q20.95 25.25 20.95 25.4 L20.95 25.55 20.85 25.5 20.85 25.6 20.85 25.8 20.85 25.85 21.0 26.0 21.3 26.0 21.45 25.85 21.5 25.9 21.45 25.55 M25.0 32.0 Q25.0 32.35 24.45 32.35 23.95 32.35 23.95 31.8 23.95 31.35 24.5 31.35 25.0 31.3 25.0 32.0 M21.35 31.9 L21.3 31.85 21.3 31.25 21.4 31.2 21.55 31.1 Q21.75 30.9 21.9 31.0 L21.95 30.9 22.3 31.15 22.35 31.3 22.4 31.35 22.45 31.55 22.45 32.1 22.4 32.1 22.05 32.35 22.0 32.35 21.55 32.3 21.45 32.15 21.35 31.9 M27.95 32.35 L27.7 32.3 27.65 32.3 27.6 32.2 27.55 32.15 27.55 32.1 27.5 31.9 27.6 31.85 27.6 31.75 27.75 31.7 27.8 31.7 27.95 31.75 28.0 31.8 28.0 31.95 28.1 31.95 28.1 32.05 28.1 32.1 28.15 32.2 28.1 32.2 27.95 32.35" fill="#fcc21a" fill-rule="evenodd" stroke="none"/>
    <path d="M24.15 16.75 L24.05 16.9 24.05 16.95 23.9 17.2 23.75 17.1 23.5 16.8 23.45 16.75 23.25 16.6 23.0 16.35 23.0 16.4 22.85 16.25 22.35 15.75 22.15 15.6 21.9 15.45 18.85 13.5 Q16.55 12.4 13.95 12.0 L13.4 11.95 13.4 11.85 Q13.4 11.4 14.55 11.35 L14.75 11.4 16.05 11.7 16.45 11.85 18.85 12.7 21.2 14.0 22.55 15.05 23.1 15.45 23.15 15.55 23.4 15.75 23.75 16.1 23.8 16.15 24.2 16.55 24.3 16.25 24.3 16.3 24.3 16.35 24.15 16.75" fill="#2c8320" fill-rule="evenodd" stroke="none"/>
    <path d="M30.95 22.7 L30.3 22.65 30.0 22.65 30.0 23.05 30.25 23.35 Q30.6 23.8 30.45 24.25 L30.15 25.05 30.05 25.7 Q29.9 26.3 29.15 26.5 L28.55 26.6 27.95 26.8 27.3 27.7 Q27.0 28.2 26.4 28.4 L25.3 28.35 24.7 28.05 24.0 28.05 23.25 28.1 Q22.75 28.05 22.4 27.6 22.05 27.2 22.0 26.65 L22.0 25.75 21.85 24.9 20.9 24.05 Q20.6 23.75 20.6 23.3 20.5 22.95 20.75 22.8 L21.1 22.0 20.95 21.45 20.75 21.05 Q20.75 20.8 21.9 19.5 L22.9 19.5 23.25 19.55 23.25 19.45 Q23.25 19.05 23.75 18.8 24.3 18.65 24.3 19.25 L24.25 19.65 25.95 19.75 26.6 20.35 26.6 20.3 Q26.6 19.65 27.2 19.65 27.75 19.65 27.75 20.15 L27.35 20.65 27.25 20.65 27.75 20.7 Q28.5 20.7 28.7 21.05 L28.85 21.7 Q28.95 22.05 29.65 22.35 L29.8 22.4 29.95 22.45 Q30.1 22.1 30.45 22.1 30.95 22.1 30.95 22.55 L30.95 22.7 M23.45 21.55 L23.1 21.15 Q22.75 21.1 22.75 21.55 L23.15 21.9 23.35 21.8 23.45 21.55 M25.0 21.05 Q24.35 20.9 24.35 21.3 24.45 21.85 24.7 21.85 25.1 21.85 25.1 21.55 L25.0 21.05 M21.15 19.45 L20.8 19.75 20.4 19.45 Q20.4 19.15 20.8 19.15 L21.15 19.45 M20.8 21.8 L20.45 22.15 Q19.85 22.15 19.9 21.75 19.9 21.5 20.35 21.4 20.8 21.25 20.8 21.8 M24.25 23.85 Q24.25 23.3 23.75 23.25 23.25 23.15 23.25 23.55 L23.4 23.9 23.85 24.3 Q24.25 24.3 24.25 23.85 M28.85 18.9 Q28.85 19.3 28.3 19.3 27.95 19.3 27.95 19.0 27.95 18.65 28.4 18.65 28.85 18.55 28.85 18.9 M30.05 21.05 Q30.05 21.45 29.65 21.45 29.3 21.45 29.25 21.2 L29.25 21.05 Q29.25 20.6 29.65 20.6 30.05 20.6 30.05 21.05 M27.05 24.3 L27.0 24.45 27.1 24.8 27.25 24.9 27.65 24.85 27.85 24.75 27.95 24.6 28.0 24.5 28.0 24.25 27.95 24.1 27.9 24.05 27.55 23.95 27.5 24.0 27.2 24.1 27.15 24.15 27.1 24.25 27.05 24.3 M25.65 24.2 L25.75 24.05 25.75 23.6 Q25.2 23.6 25.2 23.85 25.2 24.2 25.5 24.2 L25.65 24.2 M26.55 22.5 Q26.55 22.05 25.9 22.0 L25.9 22.35 25.95 22.65 26.25 22.9 26.55 22.5 M28.1 22.5 Q28.1 22.05 27.7 22.05 27.3 22.05 27.3 22.4 27.3 22.85 27.75 22.85 L28.1 22.5 M31.4 23.15 L31.65 23.05 31.6 23.0 31.85 23.1 32.05 23.25 32.1 23.4 32.15 23.45 32.15 23.9 32.15 24.0 32.0 24.1 31.95 24.15 31.6 24.15 31.45 24.1 31.4 24.0 31.3 23.85 31.25 23.7 31.15 23.5 31.25 23.25 31.4 23.15 M19.8 20.5 L19.7 20.6 19.65 20.6 19.6 20.65 19.4 20.65 19.35 20.6 19.3 20.6 19.25 20.55 19.25 20.5 19.25 20.35 19.3 20.3 19.3 20.2 19.45 20.15 19.65 20.15 19.75 20.2 19.8 20.25 19.8 20.5 M19.6 23.35 L19.55 23.35 19.45 23.3 19.4 23.25 19.4 23.2 19.4 23.05 19.45 22.95 19.55 22.85 19.65 22.85 19.85 22.9 19.95 23.0 19.9 23.2 19.85 23.25 19.8 23.3 19.75 23.35 19.6 23.35 M20.0 24.25 L20.05 24.3 20.05 24.4 19.9 24.85 19.8 24.9 19.8 25.0 19.65 25.15 19.2 25.15 18.85 24.9 18.85 24.85 18.75 24.45 18.8 24.4 18.8 24.3 18.9 24.25 18.95 24.15 19.25 24.05 19.3 24.05 19.8 24.1 20.0 24.25 M28.2 27.8 L28.05 27.9 27.85 27.8 27.85 27.75 27.8 27.75 27.8 27.7 27.8 27.6 27.85 27.5 27.95 27.45 28.0 27.45 28.05 27.35 28.2 27.5 28.25 27.5 28.25 27.6 28.25 27.7 28.2 27.8 M29.4 27.4 L29.4 27.1 29.45 27.1 29.45 27.0 29.6 26.95 29.65 26.95 29.8 27.0 29.85 27.05 29.9 27.2 29.95 27.2 30.0 27.3 29.95 27.45 29.9 27.5 29.75 27.6 29.55 27.6 29.45 27.55 29.45 27.5 29.4 27.45 29.4 27.4 M25.35 26.1 L25.35 25.85 25.35 25.75 25.25 25.65 25.05 25.6 25.0 25.65 Q24.85 25.5 24.85 25.65 L24.85 25.8 24.75 25.75 24.75 25.85 24.7 26.0 24.8 26.2 24.85 26.25 25.2 26.25 25.35 26.1 M25.85 29.85 L25.9 29.4 26.0 29.3 26.1 29.3 26.15 29.25 26.5 29.25 26.7 29.35 26.95 29.75 26.95 29.8 26.9 30.25 26.85 30.3 26.65 30.35 26.2 30.25 26.05 30.1 25.95 30.0 25.85 29.85 M23.05 25.2 L22.9 25.25 22.9 25.35 22.85 25.4 22.8 25.65 22.85 25.7 22.9 25.8 22.95 25.8 23.2 25.85 23.35 25.7 23.4 25.7 23.35 25.45 23.35 25.4 23.3 25.3 23.25 25.3 23.1 25.15 23.05 25.2 M21.45 25.55 L21.5 25.9 21.45 25.85 21.3 26.0 21.0 26.0 20.85 25.85 20.85 25.8 20.85 25.6 20.85 25.5 20.95 25.55 20.95 25.4 Q20.95 25.25 21.1 25.4 L21.1 25.3 21.25 25.35 21.35 25.45 21.4 25.45 21.4 25.55 21.45 25.55 M23.4 29.15 L23.35 29.15 23.2 29.3 23.2 29.35 22.95 29.25 22.9 29.25 22.85 29.2 22.85 29.15 22.8 29.1 22.75 28.95 22.75 28.85 22.8 28.8 22.8 28.7 22.95 28.7 22.95 28.6 23.1 28.65 23.2 28.7 23.25 28.75 23.3 28.85 23.35 28.9 23.4 29.05 23.4 29.15 M21.35 28.45 L21.5 28.35 21.55 28.35 22.0 28.4 22.1 28.45 22.15 28.55 22.25 28.7 22.3 29.15 22.25 29.2 22.05 29.35 21.45 29.25 21.3 29.1 21.25 28.95 21.25 28.65 21.3 28.5 21.35 28.45 M24.75 29.0 L24.8 28.95 24.9 28.95 24.95 28.85 25.1 29.0 25.15 29.0 25.2 29.05 25.2 29.1 25.25 29.2 25.25 29.4 25.2 29.5 25.05 29.6 24.85 29.6 24.75 29.55 24.65 29.4 24.65 29.35 24.55 29.25 24.65 29.05 24.7 29.0 24.75 29.0" fill="#ffdb35" fill-rule="evenodd" stroke="none"/>
    <path d="M25.0 21.05 L25.1 21.55 Q25.1 21.85 24.7 21.85 24.45 21.85 24.35 21.3 24.35 20.9 25.0 21.05 M23.45 21.55 L23.35 21.8 23.15 21.9 22.75 21.55 Q22.75 21.1 23.1 21.15 L23.45 21.55 M24.25 23.85 Q24.25 24.3 23.85 24.3 L23.4 23.9 23.25 23.55 Q23.25 23.15 23.75 23.25 24.25 23.3 24.25 23.85 M28.1 22.5 L27.75 22.85 Q27.3 22.85 27.3 22.4 27.3 22.05 27.7 22.05 28.1 22.05 28.1 22.5 M26.55 22.5 L26.25 22.9 25.95 22.65 25.9 22.35 25.9 22.0 Q26.55 22.05 26.55 22.5 M25.65 24.2 L25.5 24.2 Q25.2 24.2 25.2 23.85 25.2 23.6 25.75 23.6 L25.75 24.05 25.65 24.2 M27.05 24.3 L27.1 24.25 27.15 24.15 27.2 24.1 27.5 24.0 27.55 23.95 27.9 24.05 27.95 24.1 28.0 24.25 28.0 24.5 27.95 24.6 27.85 24.75 27.65 24.85 27.25 24.9 27.1 24.8 27.0 24.45 27.05 24.3 M25.35 26.1 L25.2 26.25 24.85 26.25 24.8 26.2 24.7 26.0 24.75 25.85 24.75 25.75 24.85 25.8 24.85 25.65 Q24.85 25.5 25.0 25.65 L25.05 25.6 25.25 25.65 25.35 25.75 25.35 25.85 25.35 26.1 M23.05 25.2 L23.1 25.15 23.25 25.3 23.3 25.3 23.35 25.4 23.35 25.45 23.4 25.7 23.35 25.7 23.2 25.85 22.95 25.8 22.9 25.8 22.85 25.7 22.8 25.65 22.85 25.4 22.9 25.35 22.9 25.25 23.05 25.2" fill="#fff3bf" fill-rule="evenodd" stroke="none"/>
    <path d="M35.45 30.0 L35.5 30.0 35.25 31.0 34.0 33.85 33.95 33.95 33.8 34.15 33.2 34.9 32.5 35.6 Q29.2 38.65 24.55 38.65 19.9 38.65 16.6 35.6 L15.95 34.9 15.65 34.6 15.4 34.2 15.35 34.15 Q14.05 31.55 13.7 29.35 13.45 27.9 13.65 26.7 L13.8 27.35 13.85 28.5 14.0 28.9 14.25 29.15 14.9 29.65 15.25 30.0 15.45 30.65 15.4 31.4 15.4 31.7 Q15.5 32.2 15.95 32.45 L16.4 32.7 Q16.8 32.95 16.8 33.4 L16.9 33.55 Q17.0 34.05 17.4 34.4 L19.1 34.5 19.65 35.2 20.3 35.4 20.95 35.9 Q21.35 36.25 22.1 36.25 L22.85 36.0 23.5 35.8 24.35 36.15 25.75 36.1 Q25.85 35.95 26.0 35.9 26.7 35.5 27.25 35.5 L27.9 35.65 28.7 35.8 31.0 34.45 31.9 34.35 32.65 34.35 32.75 34.25 33.0 33.95 33.25 33.35 33.75 32.75 Q33.75 32.55 33.85 32.65 L34.45 31.45 34.45 31.3 34.5 31.25 34.65 30.85 34.65 30.8 34.7 30.5 35.2 30.25 35.45 30.0" fill="#d27300" fill-rule="evenodd" stroke="none"/>
  </g>
</svg>
