<?xml version="1.0" encoding="UTF-8" standalone="no"?>
<svg xmlns:ffdec="https://www.free-decompiler.com/flash" xmlns:xlink="http://www.w3.org/1999/xlink" ffdec:objectType="shape" height="41.55px" width="21.0px" xmlns="http://www.w3.org/2000/svg">
  <g transform="matrix(1.0, 0.0, 0.0, 1.0, 8.25, 2.0)">
    <path d="M-2.5 27.45 L1.0 26.7 4.45 26.45 6.6 26.65 8.2 27.05 8.4 27.1 7.3 18.2 4.85 -1.7 4.85 -1.8 Q6.35 -1.6 6.55 -1.2 L10.2 27.6 10.3 27.7 Q11.1 28.0 11.6 28.7 L12.75 37.8 12.35 38.5 11.7 38.6 Q11.25 38.0 10.25 37.65 8.5 36.95 4.25 37.0 0.3 37.0 -2.7 38.2 L-5.0 39.55 Q-5.75 39.4 -5.85 37.95 L-6.35 29.85 -5.8 29.05 -5.55 28.85 -8.25 0.2 Q-8.1 -0.2 -7.0 -0.55 L-6.7 -0.55 -3.8 27.8 -2.5 27.45 M-1.5 28.55 L-2.95 28.95 Q-3.35 28.9 -4.45 29.6 L-4.55 29.7 -4.15 37.1 Q-1.05 35.95 4.1 35.75 L10.75 36.25 9.8 28.85 8.15 28.35 6.8 28.15 5.25 28.0 4.3 28.0 2.75 28.0 0.65 28.2 -1.5 28.55" fill="#521210" fill-rule="evenodd" stroke="none"/>
    <path d="M1.0 26.7 Q-0.6 14.3 -1.25 4.25 -1.2 3.35 -0.7 2.4 L0.35 1.0 Q2.75 1.8 3.2 7.35 3.4 10.35 3.25 14.6 L4.45 26.45 1.0 26.7 M-1.5 28.55 L0.65 28.2 Q0.8 32.6 0.4 33.25 0.95 33.35 -0.25 33.4 L-1.1 33.3 -1.25 33.15 -1.5 28.55 M2.75 28.0 L4.3 28.0 4.3 31.3 Q4.05 32.95 3.7 33.25 L2.85 32.25 2.75 28.0 M5.25 28.0 L6.8 28.15 7.0 33.15 6.3 33.7 5.45 33.4 5.25 28.0" fill="#d52d28" fill-rule="evenodd" stroke="none"/>
    <path d="M-4.05 -1.4 L2.4 -2.0 3.05 -1.95 Q3.7 0.85 5.7 18.55 L6.6 26.65 4.45 26.45 3.25 14.6 Q3.4 10.35 3.2 7.35 2.75 1.8 0.35 1.0 L-0.7 2.4 Q-1.2 3.35 -1.25 4.25 -0.6 14.3 1.0 26.7 L-2.5 27.45 -2.85 25.05 Q-3.45 19.7 -4.05 -1.4 M-2.95 28.95 L-1.5 28.55 -1.25 33.15 -1.1 33.3 -0.25 33.4 Q0.95 33.35 0.4 33.25 0.8 32.6 0.65 28.2 L2.75 28.0 2.85 32.25 3.7 33.25 Q4.05 32.95 4.3 31.3 L4.3 28.0 5.25 28.0 5.45 33.4 6.3 33.7 7.0 33.15 6.8 28.15 8.15 28.35 Q8.05 29.1 8.4 34.6 L3.65 34.35 -2.1 34.65 -2.95 28.95" fill="#b52522" fill-rule="evenodd" stroke="none"/>
    <path d="M-4.05 -1.4 Q-3.45 19.7 -2.85 25.05 L-2.5 27.45 -3.8 27.8 -6.7 -0.55 -7.0 -0.55 -4.05 -1.4 M6.6 26.65 L5.7 18.55 Q3.7 0.85 3.05 -1.95 L4.85 -1.8 4.85 -1.7 7.3 18.2 8.4 27.1 8.2 27.05 6.6 26.65 M8.15 28.35 L9.8 28.85 10.75 36.25 4.1 35.75 Q-1.05 35.95 -4.15 37.1 L-4.55 29.7 -4.45 29.6 Q-3.35 28.9 -2.95 28.95 L-2.1 34.65 3.65 34.35 8.4 34.6 Q8.05 29.1 8.15 28.35" fill="#96201d" fill-rule="evenodd" stroke="none"/>
  </g>
</svg>
