<?xml version="1.0" encoding="UTF-8" standalone="no"?>
<svg xmlns:ffdec="https://www.free-decompiler.com/flash" xmlns:xlink="http://www.w3.org/1999/xlink" ffdec:objectType="shape" height="66.6px" width="86.75px" xmlns="http://www.w3.org/2000/svg">
  <g transform="matrix(1.0, 0.0, 0.0, 1.0, 51.1, 52.5)">
    <path d="M16.35 -31.7 L16.0 -31.65 Q15.8 -31.55 15.8 -30.9 15.8 -30.35 16.5 -29.85 17.45 -29.15 19.2 -29.15 20.65 -29.15 22.05 -29.65 23.05 -30.05 24.05 -30.65 L23.1 -31.7 22.05 -32.85 20.85 -34.35 22.1 -33.8 22.95 -33.3 26.5 -29.9 27.8 -25.35 Q28.3 -23.0 32.85 -22.1 30.95 -20.85 26.45 -22.35 L28.85 -20.7 29.0 -20.6 30.7 -19.0 Q28.45 -18.95 26.8 -20.2 L26.0 -20.95 Q25.15 -21.25 25.8 -21.2 L24.1 -23.35 23.75 -23.1 23.75 -23.15 22.05 -22.75 21.35 -22.65 16.85 -22.25 Q18.6 -22.5 21.35 -23.35 L22.8 -24.05 22.05 -23.85 Q18.4 -23.15 16.2 -25.9 14.85 -27.65 12.45 -31.75 L11.6 -32.3 10.75 -32.75 10.65 -32.8 7.15 -34.55 1.95 -33.4 Q3.1 -32.6 4.3 -30.9 L6.15 -28.0 Q8.5 -24.85 12.45 -26.25 14.55 -27.6 14.9 -27.25 15.25 -27.1 14.9 -26.75 L13.45 -25.85 Q11.3 -24.65 9.95 -24.55 11.0 -24.3 10.3 -24.0 L9.7 -23.85 8.55 -23.8 Q7.95 -23.8 5.75 -24.7 3.6 -25.6 2.2 -26.55 L1.8 -26.85 -1.6 -29.5 Q-2.3 -29.95 -3.35 -29.95 -4.25 -29.95 -8.1 -28.05 L-8.65 -27.8 -10.7 -26.8 Q-13.4 -25.65 -14.45 -25.65 -20.05 -25.65 -22.75 -29.65 L-24.95 -32.45 Q-26.5 -33.7 -29.2 -33.7 -30.05 -33.7 -30.4 -33.0 -30.8 -32.2 -30.8 -30.0 L-30.65 -29.15 -30.5 -28.9 -29.7 -28.85 -29.1 -28.95 -29.15 -29.15 -29.2 -30.7 -28.95 -32.4 Q-28.2 -32.2 -26.4 -31.05 L-24.45 -29.7 -31.75 -28.25 -32.05 -32.75 Q-32.05 -35.3 -30.4 -36.6 -29.05 -37.65 -27.05 -37.65 -25.05 -37.65 -20.6 -32.55 -16.15 -27.5 -13.65 -27.5 L-9.3 -28.1 Q-8.1 -28.45 -6.85 -28.95 L-3.55 -30.45 Q-1.45 -30.45 3.35 -27.15 7.8 -24.05 9.8 -24.55 L8.75 -24.8 8.6 -24.85 Q6.85 -25.3 5.9 -26.4 L5.7 -26.65 4.25 -29.3 Q3.7 -30.35 1.9 -31.8 -0.35 -33.65 -2.25 -33.65 L-4.0 -32.95 Q-5.5 -32.35 -8.5 -32.3 L-8.5 -32.45 -12.0 -34.25 Q-16.1 -36.4 -18.75 -38.45 L-24.25 -42.6 -26.75 -43.15 -29.25 -43.4 Q-31.1 -43.4 -32.5 -41.95 L-34.4 -39.65 Q-35.3 -38.75 -35.65 -35.65 -35.9 -32.0 -36.2 -30.4 -37.05 -33.45 -37.05 -34.95 -37.05 -37.2 -34.8 -40.55 -32.15 -44.5 -28.95 -44.5 -23.35 -44.5 -18.3 -41.3 -13.3 -38.15 -12.1 -38.15 -9.1 -38.15 -5.7 -40.05 L-0.95 -43.3 -4.8 -42.05 Q-8.1 -41.05 -9.05 -41.05 -12.6 -41.05 -16.1 -45.05 L-14.25 -44.25 -13.3 -44.25 -14.9 -45.5 -17.45 -47.9 Q-8.95 -50.4 -8.0 -50.4 -1.55 -50.4 1.6 -47.75 L3.95 -45.45 Q5.45 -44.1 7.1 -43.45 8.85 -41.0 9.65 -40.3 10.7 -39.3 14.35 -37.75 L14.75 -37.05 12.75 -36.65 10.05 -36.4 Q8.25 -36.4 6.1 -37.3 3.75 -38.25 2.75 -39.65 L2.9 -40.2 Q2.25 -40.4 3.25 -40.4 4.1 -40.4 5.45 -39.2 6.85 -37.9 8.9 -37.7 L9.35 -37.7 10.9 -37.9 8.9 -39.65 6.95 -41.5 6.9 -41.6 5.4 -42.5 3.7 -42.9 2.05 -43.2 Q-8.15 -36.85 -11.8 -36.85 L-14.9 -37.35 -15.9 -37.8 -12.65 -35.25 Q-10.1 -33.65 -8.05 -33.65 L-5.1 -34.2 -3.0 -34.75 -1.4 -34.55 0.35 -34.25 2.35 -34.85 7.25 -35.45 Q10.65 -35.45 13.4 -32.15 L17.05 -26.75 13.25 -34.55 13.55 -34.9 Q14.7 -34.5 16.35 -31.7 M23.8 -28.3 Q24.7 -26.6 25.65 -25.45 L24.35 -28.8 23.95 -28.7 23.8 -28.3 M21.05 -27.2 L19.35 -27.55 19.35 -27.0 19.85 -26.6 20.6 -26.5 Q21.6 -26.5 21.4 -27.0 L21.05 -27.2 M6.85 -43.75 L5.5 -45.35 5.5 -45.4 Q10.45 -46.25 14.05 -43.05 16.5 -40.85 17.25 -38.35 17.9 -36.1 18.65 -34.7 19.8 -32.75 21.85 -30.95 L20.1 -30.5 Q18.65 -31.9 17.35 -34.7 L15.2 -39.25 Q12.5 -44.3 6.85 -43.75 M14.35 -37.75 L15.0 -37.4 14.8 -37.1 14.35 -37.75 M24.25 -9.55 Q23.1 -12.9 22.05 -14.9 L21.35 -16.15 Q18.35 -20.6 16.4 -20.95 L16.5 -21.0 Q19.1 -21.35 19.75 -20.6 20.1 -19.45 20.55 -19.0 L22.05 -17.65 Q22.95 -17.0 23.95 -16.5 25.0 -15.75 24.8 -13.2 L24.65 -7.75 24.6 -7.75 24.5 -8.7 24.4 -9.35 24.25 -9.55 M-36.25 -47.15 L-37.0 -45.9 -37.2 -44.85 Q-37.2 -44.2 -37.35 -44.15 L-37.7 -44.2 -38.45 -40.0 -38.15 -36.35 -37.35 -30.95 -37.3 -30.55 -38.55 -32.6 Q-39.35 -34.75 -39.35 -39.95 -39.35 -41.75 -38.55 -45.0 L-37.3 -46.2 -36.25 -47.15 M-38.5 -45.05 Q-39.35 -47.9 -39.7 -48.35 -40.3 -49.0 -42.45 -49.0 -43.55 -49.0 -44.65 -48.15 L-44.95 -47.95 Q-45.5 -47.35 -46.45 -47.0 -46.85 -45.8 -47.85 -45.25 -48.65 -44.85 -48.9 -42.85 -46.25 -43.35 -45.35 -42.5 L-44.95 -42.0 Q-43.15 -40.6 -41.65 -36.75 L-40.05 -31.95 -39.15 -29.25 -39.9 -29.3 Q-40.5 -29.15 -41.75 -29.7 L-42.9 -30.25 Q-42.7 -30.25 -42.55 -30.4 -42.65 -31.65 -44.95 -34.65 L-45.05 -35.0 Q-46.7 -39.1 -48.25 -39.1 -48.85 -39.1 -48.85 -37.05 L-48.65 -32.45 Q-49.65 -35.2 -50.45 -40.2 -50.45 -43.2 -48.45 -46.85 -46.8 -49.85 -44.95 -50.65 L-42.25 -50.95 Q-37.8 -50.95 -36.4 -48.85 L-37.6 -47.05 -38.5 -45.05 M-48.2 -37.8 L-46.85 -35.95 -45.5 -33.95 -47.0 -30.35 Q-47.65 -31.2 -48.0 -33.25 -48.3 -35.3 -48.2 -37.8 M2.05 -44.85 Q1.3 -45.2 -1.9 -47.05 -4.95 -48.7 -6.1 -48.7 L-11.95 -48.1 Q-13.8 -47.55 -13.8 -46.55 -13.8 -45.25 -11.65 -43.75 -9.55 -42.4 -8.3 -42.5 L2.05 -44.85 M-8.25 -32.0 Q-8.45 -31.65 -8.5 -32.25 -8.15 -32.2 -8.25 -32.0" fill="#989898" fill-rule="evenodd" stroke="none"/>
    <path d="M30.7 -19.0 L29.0 -20.6 28.85 -20.7 26.45 -22.35 Q30.95 -20.85 32.85 -22.1 28.3 -23.0 27.8 -25.35 L26.5 -29.9 22.95 -33.3 22.1 -33.8 20.85 -34.35 22.05 -32.85 23.1 -31.7 24.05 -30.65 Q23.05 -30.05 22.05 -29.65 20.65 -29.15 19.2 -29.15 17.45 -29.15 16.5 -29.85 15.8 -30.35 15.8 -30.9 15.8 -31.55 16.0 -31.65 L16.35 -31.7 Q16.85 -31.4 18.1 -31.0 L20.1 -30.5 21.85 -30.95 Q19.8 -32.75 18.65 -34.7 17.9 -36.1 17.25 -38.35 16.5 -40.85 14.05 -43.05 10.45 -46.25 5.5 -45.4 L5.5 -45.35 6.85 -43.75 7.1 -43.45 Q5.45 -44.1 3.95 -45.45 L1.6 -47.75 Q-1.55 -50.4 -8.0 -50.4 -8.95 -50.4 -17.45 -47.9 L-14.9 -45.5 -13.3 -44.25 -14.25 -44.25 -16.1 -45.05 Q-21.75 -51.35 -27.95 -51.35 -30.1 -51.35 -32.1 -50.6 -35.1 -49.5 -36.25 -47.15 L-37.3 -46.2 -38.55 -45.0 -38.5 -45.05 -37.6 -47.05 -36.4 -48.85 Q-37.8 -50.95 -42.25 -50.95 L-44.95 -50.65 Q-46.8 -49.85 -48.45 -46.85 -50.45 -43.2 -50.45 -40.2 -49.65 -35.2 -48.65 -32.45 L-48.85 -37.05 Q-48.85 -39.1 -48.25 -39.1 -46.7 -39.1 -45.05 -35.0 L-44.95 -34.65 Q-42.65 -31.65 -42.55 -30.4 -42.7 -30.25 -42.9 -30.25 L-43.4 -30.6 -44.95 -32.55 -45.1 -32.95 -45.95 -30.45 -46.7 -28.5 Q-47.5 -28.95 -48.95 -31.65 -51.1 -35.6 -51.1 -40.15 -51.1 -44.2 -48.45 -48.25 -46.65 -51.1 -44.95 -51.85 L-42.35 -52.2 Q-41.2 -52.2 -38.25 -51.0 L-35.45 -49.8 Q-34.65 -50.45 -33.3 -51.15 -30.6 -52.5 -27.3 -52.5 -22.35 -52.5 -20.05 -50.85 L-17.6 -49.2 Q-16.6 -49.2 -13.9 -50.35 -11.15 -51.55 -7.8 -51.55 L-3.95 -50.9 -0.7 -50.15 Q0.5 -49.95 2.0 -48.9 L4.2 -46.85 Q4.5 -46.45 8.3 -46.15 L12.65 -45.7 Q13.75 -45.35 15.05 -44.3 L16.4 -43.05 Q17.0 -42.4 17.8 -39.95 18.5 -37.7 19.15 -37.2 23.0 -35.1 25.05 -33.3 L26.55 -31.75 Q28.05 -30.3 28.35 -26.75 28.6 -23.25 34.95 -22.1 L34.1 -21.2 33.8 -20.95 33.05 -20.3 35.2 -20.7 Q35.65 -21.3 35.65 -20.3 35.45 -18.85 34.3 -17.55 32.0 -15.0 27.15 -15.4 L27.25 -13.85 26.7 -4.25 24.65 -7.75 24.8 -13.2 Q25.0 -15.75 23.95 -16.5 22.95 -17.0 22.05 -17.65 L20.55 -19.0 Q20.1 -19.45 19.75 -20.6 19.1 -21.35 16.5 -21.0 L15.9 -20.95 14.85 -20.9 13.6 -21.0 11.45 -21.8 9.65 -22.5 Q6.5 -22.45 5.05 -23.15 3.35 -23.95 0.95 -26.0 L-0.6 -27.3 Q-1.95 -28.2 -3.4 -28.7 L-4.85 -28.05 -5.15 -27.9 -6.95 -27.0 -7.65 -26.5 -7.75 -26.4 Q-10.7 -24.4 -14.5 -24.4 -18.45 -24.4 -19.5 -25.05 -20.55 -25.7 -24.45 -29.7 L-26.4 -31.05 Q-28.2 -32.2 -28.95 -32.4 L-29.2 -30.7 -29.15 -29.15 -29.1 -28.95 -29.7 -28.85 -30.5 -28.9 -30.65 -29.15 -30.8 -30.0 Q-30.8 -32.2 -30.4 -33.0 -30.05 -33.7 -29.2 -33.7 -26.5 -33.7 -24.95 -32.45 L-22.75 -29.65 Q-20.05 -25.65 -14.45 -25.65 -13.4 -25.65 -10.7 -26.8 L-8.65 -27.8 -8.1 -28.05 Q-4.25 -29.95 -3.35 -29.95 -2.3 -29.95 -1.6 -29.5 L1.8 -26.85 2.2 -26.55 Q3.6 -25.6 5.75 -24.7 7.95 -23.8 8.55 -23.8 L9.7 -23.85 10.3 -24.0 Q11.0 -24.3 9.95 -24.55 11.3 -24.65 13.45 -25.85 L14.9 -26.75 14.6 -25.65 Q14.25 -25.0 13.8 -25.0 L11.25 -23.25 10.85 -23.05 12.75 -22.65 13.1 -22.6 16.85 -22.25 21.35 -22.65 22.05 -22.75 23.75 -23.15 23.75 -23.1 22.05 -22.35 Q21.0 -21.9 19.85 -21.55 L22.05 -19.15 Q24.7 -16.85 28.25 -16.35 31.55 -16.35 32.95 -18.3 L33.55 -19.1 30.7 -19.0 M-48.2 -37.8 Q-48.3 -35.3 -48.0 -33.25 -47.65 -31.2 -47.0 -30.35 L-45.5 -33.95 -46.85 -35.95 -48.2 -37.8" fill="#606060" fill-rule="evenodd" stroke="none"/>
    <path d="M16.35 -31.7 Q14.7 -34.5 13.55 -34.9 L13.25 -34.55 17.05 -26.75 13.4 -32.15 Q10.65 -35.45 7.25 -35.45 L2.35 -34.85 0.35 -34.25 -1.4 -34.55 -3.0 -34.75 -5.1 -34.2 -8.05 -33.65 Q-10.1 -33.65 -12.65 -35.25 L-15.9 -37.8 -14.9 -37.35 -11.8 -36.85 Q-8.15 -36.85 2.05 -43.2 L8.9 -37.7 Q6.85 -37.9 5.45 -39.2 4.1 -40.4 3.25 -40.4 2.25 -40.4 2.9 -40.2 L2.75 -39.65 Q3.75 -38.25 6.1 -37.3 8.25 -36.4 10.05 -36.4 L12.75 -36.65 14.75 -37.05 16.0 -35.15 16.1 -35.25 16.25 -35.5 16.25 -36.2 Q13.55 -42.1 10.85 -42.1 10.2 -42.1 10.1 -41.75 L10.05 -41.0 Q10.15 -40.6 14.35 -37.75 10.7 -39.3 9.65 -40.3 8.85 -41.0 7.1 -43.45 L6.85 -43.75 Q12.5 -44.3 15.2 -39.25 L17.35 -34.7 Q18.65 -31.9 20.1 -30.5 L18.1 -31.0 Q16.85 -31.4 16.35 -31.7 M-16.1 -45.05 Q-12.6 -41.05 -9.05 -41.05 -8.1 -41.05 -4.8 -42.05 L-0.95 -43.3 -5.7 -40.05 Q-9.1 -38.15 -12.1 -38.15 -13.3 -38.15 -18.3 -41.3 -23.35 -44.5 -28.95 -44.5 -32.15 -44.5 -34.8 -40.55 -37.05 -37.2 -37.05 -34.95 -37.05 -33.45 -36.2 -30.4 -35.9 -32.0 -35.65 -35.65 -35.3 -38.75 -34.4 -39.65 L-32.5 -41.95 Q-31.1 -43.4 -29.25 -43.4 L-26.75 -43.15 -24.25 -42.6 Q-28.8 -43.4 -32.1 -39.85 -35.75 -35.9 -35.6 -28.3 -37.25 -28.45 -39.9 -29.3 L-39.15 -29.25 -40.05 -31.95 -41.65 -36.75 Q-43.15 -40.6 -44.95 -42.0 L-45.35 -42.5 Q-46.25 -43.35 -48.9 -42.85 -48.65 -44.85 -47.85 -45.25 -46.85 -45.8 -46.45 -47.0 -45.5 -47.35 -44.95 -47.95 L-44.65 -48.15 Q-43.55 -49.0 -42.45 -49.0 -40.3 -49.0 -39.7 -48.35 -39.35 -47.9 -38.5 -45.05 L-38.55 -45.0 Q-39.35 -41.75 -39.35 -39.95 -39.35 -34.75 -38.55 -32.6 L-37.3 -30.55 -37.35 -30.95 -38.15 -36.35 -38.45 -40.0 -37.7 -44.2 -37.35 -44.15 Q-37.2 -44.2 -37.2 -44.85 L-37.0 -45.9 -36.25 -47.15 Q-35.1 -49.5 -32.1 -50.6 -30.1 -51.35 -27.95 -51.35 -21.75 -51.35 -16.1 -45.05 M5.9 -26.4 Q6.85 -25.3 8.6 -24.85 L8.75 -24.8 9.8 -24.55 Q7.8 -24.05 3.35 -27.15 -1.45 -30.45 -3.55 -30.45 L-6.85 -28.95 Q-8.1 -28.45 -9.3 -28.1 L-13.65 -27.5 Q-16.15 -27.5 -20.6 -32.55 -25.05 -37.65 -27.05 -37.65 -29.05 -37.65 -30.4 -36.6 -32.05 -35.3 -32.05 -32.75 L-31.75 -28.25 -32.85 -28.3 -33.1 -30.3 Q-33.5 -34.0 -31.95 -36.4 -30.2 -39.05 -26.65 -39.05 -25.35 -39.05 -23.8 -37.45 L-20.75 -33.95 Q-16.15 -28.85 -10.45 -28.85 -9.95 -28.85 -7.1 -30.15 -4.25 -31.5 -3.75 -31.5 -2.05 -31.5 3.15 -28.15 L5.9 -26.4 M12.45 -26.25 Q8.5 -24.85 6.15 -28.0 L4.3 -30.9 Q3.1 -32.6 1.95 -33.4 L7.15 -34.55 10.65 -32.8 7.05 -33.4 Q5.6 -33.4 4.4 -32.35 7.15 -31.4 9.05 -29.8 L12.45 -26.25 M21.35 -23.35 Q18.6 -22.5 16.85 -22.25 L13.1 -22.6 12.75 -22.65 10.85 -23.05 11.25 -23.25 13.8 -25.0 Q14.75 -24.5 17.05 -23.85 L19.8 -23.25 21.35 -23.35 M23.75 -23.1 L24.1 -23.35 25.8 -21.2 Q25.15 -21.25 26.0 -20.95 L26.8 -20.2 Q28.45 -18.95 30.7 -19.0 L33.55 -19.1 32.95 -18.3 Q31.55 -16.35 28.25 -16.35 24.7 -16.85 22.05 -19.15 L19.85 -21.55 Q21.0 -21.9 22.05 -22.35 L23.75 -23.1 M21.05 -27.2 L21.4 -27.0 Q21.6 -26.5 20.6 -26.5 L19.85 -26.6 19.35 -27.0 19.35 -27.55 21.05 -27.2 M23.8 -28.3 L23.95 -28.7 24.35 -28.8 25.65 -25.45 Q24.7 -26.6 23.8 -28.3 M14.35 -37.75 Q12.75 -39.95 14.0 -38.3 L14.35 -37.75 M2.75 -36.35 Q0.75 -37.95 -1.3 -37.95 -3.4 -37.95 -8.3 -36.1 L-7.95 -35.5 -4.55 -36.1 -1.3 -36.75 0.5 -36.3 2.3 -35.85 Q2.9 -35.85 2.9 -36.0 L2.75 -36.35 M16.5 -21.0 L16.4 -20.95 Q18.35 -20.6 21.35 -16.15 L22.05 -14.9 Q23.1 -12.9 24.25 -9.55 L24.2 -9.55 22.05 -12.3 18.35 -16.45 15.7 -19.0 13.6 -21.0 14.85 -20.9 15.9 -20.95 16.5 -21.0 M0.95 -26.0 L-3.85 -26.25 -7.65 -26.5 -6.95 -27.0 -5.15 -27.9 -4.85 -28.05 -3.4 -28.7 Q-1.95 -28.2 -0.6 -27.3 L0.95 -26.0 M-41.5 -42.3 Q-43.0 -44.4 -44.95 -45.25 L-45.6 -45.65 Q-47.1 -46.25 -48.5 -44.05 L-48.1 -43.65 Q-46.45 -44.5 -45.65 -44.5 -45.25 -44.5 -44.95 -44.1 -44.4 -43.8 -43.9 -43.15 L-40.2 -37.55 Q-39.75 -38.15 -39.75 -39.65 -39.75 -42.95 -40.75 -45.15 -41.75 -47.4 -43.35 -47.4 L-44.95 -46.95 -45.05 -46.85 -44.95 -46.65 Q-43.2 -46.2 -42.05 -44.1 L-40.85 -41.3 -41.5 -42.3 M2.05 -44.85 L-8.3 -42.5 Q-9.55 -42.4 -11.65 -43.75 -13.8 -45.25 -13.8 -46.55 -13.8 -47.55 -11.95 -48.1 L-6.1 -48.7 Q-4.95 -48.7 -1.9 -47.05 1.3 -45.2 2.05 -44.85 M-12.05 -40.35 Q-12.05 -41.5 -14.6 -43.15 L-17.75 -45.5 -22.85 -48.9 Q-25.85 -50.55 -29.15 -50.1 -32.2 -49.7 -34.95 -46.15 -37.6 -42.7 -37.6 -39.6 L-37.5 -38.85 -36.95 -38.85 Q-35.7 -39.7 -33.9 -43.75 -31.5 -47.4 -26.4 -47.4 -22.8 -47.4 -18.1 -43.75 -13.4 -40.15 -12.55 -40.15 L-12.0 -40.2 -12.05 -40.35 M-1.65 -46.1 Q-3.3 -47.45 -7.15 -47.35 -11.1 -47.3 -11.1 -45.6 L-10.95 -45.0 -10.5 -45.05 -5.35 -45.5 -1.7 -45.65 -1.65 -46.1" fill="#d1d1d1" fill-rule="evenodd" stroke="none"/>
    <path d="M2.05 -43.2 L3.7 -42.9 5.4 -42.5 6.9 -41.6 6.95 -41.5 8.9 -39.65 10.9 -37.9 9.35 -37.7 8.9 -37.7 2.05 -43.2 M14.75 -37.05 L14.35 -37.75 14.8 -37.1 15.0 -37.4 14.35 -37.75 Q10.15 -40.6 10.05 -41.0 L10.1 -41.75 Q10.2 -42.1 10.85 -42.1 13.55 -42.1 16.25 -36.2 L16.25 -35.5 16.1 -35.25 16.0 -35.15 14.75 -37.05 M-24.25 -42.6 L-18.75 -38.45 Q-16.1 -36.4 -12.0 -34.25 L-8.5 -32.45 -8.5 -32.3 Q-5.5 -32.35 -4.0 -32.95 L-2.25 -33.65 Q-0.35 -33.65 1.9 -31.8 3.7 -30.35 4.25 -29.3 L5.7 -26.65 5.9 -26.4 3.15 -28.15 Q-2.05 -31.5 -3.75 -31.5 -4.25 -31.5 -7.1 -30.15 -9.95 -28.85 -10.45 -28.85 -16.15 -28.85 -20.75 -33.95 L-23.8 -37.45 Q-25.35 -39.05 -26.65 -39.05 -30.2 -39.05 -31.95 -36.4 -33.5 -34.0 -33.1 -30.3 L-32.85 -28.3 -35.6 -28.3 Q-35.75 -35.9 -32.1 -39.85 -28.8 -43.4 -24.25 -42.6 M14.9 -26.75 Q15.25 -27.1 14.9 -27.25 14.55 -27.6 12.45 -26.25 L9.05 -29.8 Q7.15 -31.4 4.4 -32.35 5.6 -33.4 7.05 -33.4 L10.65 -32.8 10.75 -32.75 11.6 -32.3 12.45 -31.75 Q14.85 -27.65 16.2 -25.9 18.4 -23.15 22.05 -23.85 L22.8 -24.05 21.35 -23.35 19.8 -23.25 17.05 -23.85 Q14.75 -24.5 13.8 -25.0 14.25 -25.0 14.6 -25.65 L14.9 -26.75 M14.35 -37.75 L14.0 -38.3 Q12.75 -39.95 14.35 -37.75 M2.75 -36.35 L2.9 -36.0 Q2.9 -35.85 2.3 -35.85 L0.5 -36.3 -1.3 -36.75 -4.55 -36.1 -7.95 -35.5 -8.3 -36.1 Q-3.4 -37.95 -1.3 -37.95 0.75 -37.95 2.75 -36.35 M-41.5 -42.3 L-40.85 -41.3 -42.05 -44.1 Q-43.2 -46.2 -44.95 -46.65 L-45.05 -46.85 -44.95 -46.95 -43.35 -47.4 Q-41.75 -47.4 -40.75 -45.15 -39.75 -42.95 -39.75 -39.65 -39.75 -38.15 -40.2 -37.55 L-43.9 -43.15 Q-44.4 -43.8 -44.95 -44.1 -45.25 -44.5 -45.65 -44.5 -46.45 -44.5 -48.1 -43.65 L-48.5 -44.05 Q-47.1 -46.25 -45.6 -45.65 L-44.95 -45.25 Q-43.0 -44.4 -41.5 -42.3 M-1.65 -46.1 L-1.7 -45.65 -5.35 -45.5 -10.5 -45.05 -10.95 -45.0 -11.1 -45.6 Q-11.1 -47.3 -7.15 -47.35 -3.3 -47.45 -1.65 -46.1 M-12.05 -40.35 L-12.0 -40.2 -12.55 -40.15 Q-13.4 -40.15 -18.1 -43.75 -22.8 -47.4 -26.4 -47.4 -31.5 -47.4 -33.9 -43.75 -35.7 -39.7 -36.95 -38.85 L-37.5 -38.85 -37.6 -39.6 Q-37.6 -42.7 -34.95 -46.15 -32.2 -49.7 -29.15 -50.1 -25.85 -50.55 -22.85 -48.9 L-17.75 -45.5 -14.6 -43.15 Q-12.05 -41.5 -12.05 -40.35 M-8.25 -32.0 Q-8.15 -32.2 -8.5 -32.25 -8.45 -31.65 -8.25 -32.0" fill="#ffffff" fill-rule="evenodd" stroke="none"/>
    <path d="M17.35 6.55 L14.95 5.85 12.15 5.15 Q11.15 5.0 9.5 4.0 9.95 1.15 9.95 -2.7 L9.95 -3.85 10.5 -6.3 11.4 -10.9 10.5 -14.0 10.05 -14.95 10.0 -15.0 9.3 -16.8 6.9 -18.8 5.3 -20.0 Q-1.45 -25.2 -7.75 -26.4 L-7.65 -26.5 -3.85 -26.25 0.95 -26.0 Q3.35 -23.95 5.05 -23.15 6.5 -22.45 9.65 -22.5 L11.45 -21.8 13.6 -21.0 15.7 -19.0 Q18.55 -12.05 18.55 -3.2 18.55 2.4 17.35 6.55" fill="url(#gradient0)" fill-rule="evenodd" stroke="none"/>
    <path d="M20.75 12.85 Q20.15 8.3 17.35 6.55 18.55 2.4 18.55 -3.2 18.55 -12.05 15.7 -19.0 L18.35 -16.45 22.05 -12.3 24.2 -9.55 24.5 -8.7 24.6 -7.75 24.7 -4.65 24.65 -2.2 Q24.15 5.75 20.75 12.85" fill="url(#gradient1)" fill-rule="evenodd" stroke="none"/>
    <path d="M9.5 4.0 Q8.8 3.95 8.75 3.15 L8.7 1.45 9.95 -3.85 9.95 -2.7 Q9.95 1.15 9.5 4.0" fill="#b9a99b" fill-opacity="0.29803923" fill-rule="evenodd" stroke="none"/>
    <path d="M26.7 -4.25 L26.65 -2.2 Q26.2 6.6 22.4 14.1 L20.85 13.05 20.75 12.85 Q24.15 5.75 24.65 -2.2 L24.7 -4.65 24.6 -7.75 24.65 -7.75 26.7 -4.25" fill="#8e7c71" fill-opacity="0.69411767" fill-rule="evenodd" stroke="none"/>
  </g>
  <defs>
    <linearGradient gradientTransform="matrix(0.0, -0.0122, 0.0293, 0.0, 8.3, -12.75)" gradientUnits="userSpaceOnUse" id="gradient0" spreadMethod="pad" x1="-819.2" x2="819.2">
      <stop offset="0.0" stop-color="#b9a99b" stop-opacity="0.4"/>
      <stop offset="1.0" stop-color="#ebe8e0"/>
    </linearGradient>
    <linearGradient gradientTransform="matrix(0.0029, -0.008, 0.0328, 0.0121, 50.9, 6.95)" gradientUnits="userSpaceOnUse" id="gradient1" spreadMethod="pad" x1="-819.2" x2="819.2">
      <stop offset="0.0" stop-color="#8e7c71" stop-opacity="0.4"/>
      <stop offset="1.0" stop-color="#cbc8c0"/>
    </linearGradient>
  </defs>
</svg>
