<?xml version="1.0" encoding="UTF-8" standalone="no"?>
<svg xmlns:ffdec="https://www.free-decompiler.com/flash" xmlns:xlink="http://www.w3.org/1999/xlink" ffdec:objectType="shape" height="80.95px" width="91.8px" xmlns="http://www.w3.org/2000/svg">
  <g transform="matrix(1.0, 0.0, 0.0, 1.0, 51.45, 81.4)">
    <path d="M-30.8 -54.05 L-30.95 -53.65 -33.7 -39.95 Q-34.6 -41.1 -35.25 -43.4 L-35.75 -46.2 -34.7 -49.4 Q-33.2 -52.75 -30.8 -54.05 M5.5 -21.1 L2.6 -23.35 -4.5 -18.25 -1.85 -27.1 -8.45 -32.95 -2.1 -32.95 0.05 -32.9 Q1.35 -35.5 1.7 -37.65 L1.75 -37.9 3.1 -41.7 5.7 -32.8 6.5 -32.75 Q6.5 -27.9 5.85 -23.3 L5.5 -21.1 M7.75 -27.25 L7.45 -26.3 7.3 -26.9 7.75 -27.25" fill="#e0e0e0" fill-rule="evenodd" stroke="none"/>
    <path d="M33.0 -45.6 Q33.85 -44.05 33.85 -42.4 L20.8 -37.9 Q20.55 -20.1 19.5 -7.0 19.2 -5.1 14.1 -4.45 L0.65 -3.9 Q-25.15 -3.9 -43.1 -8.3 L-42.55 -12.05 Q-30.6 -9.15 -23.9 -8.35 L-1.7 -7.4 Q6.7 -7.4 16.75 -8.95 16.9 -27.4 17.45 -35.85 17.75 -40.05 18.0 -40.6 L18.8 -41.3 24.75 -43.05 Q30.15 -44.5 33.0 -45.6 M-24.15 -67.05 L-24.3 -66.8 -29.1 -58.2 -30.8 -54.05 Q-33.2 -52.75 -34.7 -49.4 L-35.75 -46.2 -35.25 -43.4 Q-34.6 -41.1 -33.7 -39.95 L-35.15 -32.65 -37.0 -22.9 -37.05 -22.25 -37.3 -17.65 Q-38.6 -20.0 -39.45 -24.3 -40.4 -29.2 -40.4 -35.4 -40.4 -49.9 -33.55 -59.3 -28.85 -65.75 -24.15 -67.05 M6.5 -32.75 L11.15 -32.55 11.3 -30.0 7.75 -27.25 7.3 -26.9 7.45 -26.3 9.45 -17.9 5.5 -21.1 5.85 -23.3 Q6.5 -27.9 6.5 -32.75 M-17.85 -78.2 L-17.6 -76.95 Q-17.45 -75.7 -17.8 -74.35 L-18.15 -73.2 -18.35 -73.8 -19.05 -76.5 -19.35 -77.75 -19.35 -78.05 -19.35 -78.1 Q-19.3 -78.85 -18.9 -78.95 -18.55 -79.05 -18.05 -78.45 L-18.0 -78.35 -17.85 -78.2" fill="#b4b4b4" fill-rule="evenodd" stroke="none"/>
    <path d="M-42.55 -12.05 L-43.1 -8.3 Q-25.15 -3.9 0.65 -3.9 L14.1 -4.45 Q19.2 -5.1 19.5 -7.0 20.55 -20.1 20.8 -37.9 L33.85 -42.4 Q33.85 -44.05 33.0 -45.6 L35.55 -46.85 37.85 -48.45 Q37.85 -49.45 37.35 -50.1 L38.1 -49.25 38.6 -48.35 38.8 -47.4 Q38.8 -43.35 36.15 -41.5 32.9 -39.3 21.6 -36.55 L21.45 -6.85 20.65 -5.5 19.7 -4.15 Q18.85 -3.55 13.95 -2.95 L-5.55 -1.85 -12.85 -2.05 -24.05 -2.55 Q-22.55 -2.3 -26.5 -2.75 L-33.0 -3.8 Q-40.35 -5.3 -46.05 -7.85 -47.25 -8.35 -48.7 -11.4 -50.25 -14.55 -49.9 -16.05 L-46.25 -13.95 -42.55 -12.05 M-37.5 -12.1 L-45.0 -14.5 Q-43.45 -42.35 -38.5 -55.85 -35.5 -64.0 -27.85 -72.7 -25.1 -74.25 -21.8 -75.55 L-20.6 -71.35 -24.15 -67.05 Q-28.85 -65.75 -33.55 -59.3 -40.4 -49.9 -40.4 -35.4 -40.4 -29.2 -39.45 -24.3 -38.6 -20.0 -37.3 -17.65 L-37.5 -12.1 M-21.65 -79.75 L-16.95 -80.85 -14.75 -71.1 -15.25 -70.75 Q-16.85 -69.85 -19.0 -70.25 L-21.65 -79.75 M-12.15 -78.4 L-14.75 -76.75 -15.0 -77.7 -12.15 -78.4 M-37.0 -22.9 Q-37.05 -22.5 -36.15 -21.6 L-37.05 -22.25 -37.0 -22.9 M11.15 -32.55 L14.15 -32.35 11.3 -30.0 11.15 -32.55 M-17.85 -78.2 L-18.0 -78.35 -18.05 -78.45 Q-18.55 -79.05 -18.9 -78.95 -19.3 -78.85 -19.35 -78.1 L-19.35 -78.05 -19.35 -77.75 -19.05 -76.5 -18.35 -73.8 -18.15 -73.2 -17.8 -74.35 Q-17.45 -75.7 -17.6 -76.95 L-17.85 -78.2" fill="#8a8a8a" fill-rule="evenodd" stroke="none"/>
    <path d="M33.0 -45.6 Q30.15 -44.5 24.75 -43.05 L18.8 -41.3 18.0 -40.6 Q17.75 -40.05 17.45 -35.85 16.9 -27.4 16.75 -8.95 6.7 -7.4 -1.7 -7.4 L-23.9 -8.35 Q-30.6 -9.15 -42.55 -12.05 L-46.25 -13.95 -49.9 -16.05 Q-50.25 -14.55 -48.7 -11.4 -47.25 -8.35 -46.05 -7.85 -40.35 -5.3 -33.0 -3.8 L-26.5 -2.75 Q-22.55 -2.3 -24.05 -2.55 L-12.85 -2.05 -5.55 -1.85 13.95 -2.95 Q18.85 -3.55 19.7 -4.15 L20.65 -5.5 21.45 -6.85 21.6 -36.55 Q32.9 -39.3 36.15 -41.5 38.8 -43.35 38.8 -47.4 L38.6 -48.35 38.1 -49.25 37.35 -50.1 Q37.85 -49.45 37.85 -48.45 L35.55 -46.85 33.0 -45.6 M-37.5 -12.1 L-31.35 -10.85 -21.7 -9.65 Q-2.85 -8.9 4.7 -9.1 L15.5 -10.2 15.35 -31.5 Q15.35 -40.75 18.5 -42.85 20.8 -44.4 30.15 -46.3 L35.95 -48.75 36.5 -48.75 36.5 -52.1 Q40.35 -50.45 40.35 -47.0 40.35 -44.05 37.75 -41.5 33.45 -37.25 23.1 -35.95 22.05 -27.05 22.75 -16.65 23.35 -8.05 22.65 -5.95 21.5 -2.5 15.65 -1.4 L-5.4 -0.45 Q-36.8 -0.45 -46.95 -6.65 -50.35 -8.75 -51.2 -11.5 L-51.45 -14.8 Q-51.45 -15.95 -50.9 -18.0 L-49.3 -18.0 -45.0 -14.5 -37.5 -12.1 M-27.85 -72.7 L-22.2 -76.95 -22.9 -79.35 -21.65 -79.75 -19.0 -70.25 -20.35 -70.45 -20.6 -71.35 -21.8 -75.55 Q-25.1 -74.25 -27.85 -72.7 M-16.95 -80.85 L-16.0 -81.4 -15.3 -78.9 -7.05 -80.3 -12.15 -78.4 -15.0 -77.7 -14.75 -76.75 -13.55 -72.4 -14.75 -71.1 -16.95 -80.85" fill="#464646" fill-rule="evenodd" stroke="none"/>
  </g>
</svg>
