<?xml version="1.0" encoding="UTF-8" standalone="no"?>
<svg xmlns:ffdec="https://www.free-decompiler.com/flash" xmlns:xlink="http://www.w3.org/1999/xlink" ffdec:objectType="shape" height="127.0px" width="203.05px" xmlns="http://www.w3.org/2000/svg">
  <g transform="matrix(1.0, 0.0, 0.0, 1.0, 1.0, 1.0)">
    <path d="M197.7 45.95 Q201.0 53.8 201.05 62.5 201.0 66.8 200.2 70.95 196.1 91.45 171.6 106.7 142.15 125.0 100.5 125.0 58.85 125.0 29.45 106.7 4.9 91.45 0.8 70.95 0.0 66.8 0.0 62.5 0.0 53.8 3.3 45.95 9.85 30.45 29.45 18.3 58.85 0.0 100.5 0.0 142.15 0.0 171.6 18.3 191.15 30.45 197.7 45.95" fill="#fdf8f2" fill-rule="evenodd" stroke="none"/>
    <path d="M197.7 45.95 Q201.0 53.8 201.05 62.5 201.0 66.8 200.2 70.95 196.1 91.45 171.6 106.7 142.15 125.0 100.5 125.0 58.85 125.0 29.45 106.7 4.9 91.45 0.8 70.95 0.0 66.8 0.0 62.5 0.0 53.8 3.3 45.95 9.85 30.45 29.45 18.3 58.85 0.0 100.5 0.0 142.15 0.0 171.6 18.3 191.15 30.45 197.7 45.95 Z" fill="none" stroke="#9a806d" stroke-linecap="round" stroke-linejoin="round" stroke-width="2.0"/>
  </g>
</svg>
