<?xml version="1.0" encoding="UTF-8" standalone="no"?>
<svg xmlns:ffdec="https://www.free-decompiler.com/flash" xmlns:xlink="http://www.w3.org/1999/xlink" ffdec:objectType="shape" height="27.3px" width="66.15px" xmlns="http://www.w3.org/2000/svg">
  <g transform="matrix(1.0, 0.0, 0.0, 1.0, -69.05, 13.1)">
    <path d="M70.6 -11.0 Q70.7 -12.9 72.6 -13.05 L72.8 -13.1 72.95 -13.1 80.55 -13.1 83.45 -12.75 85.2 -12.15 Q87.4 -11.25 89.2 -9.4 L89.15 -9.4 Q92.9 -5.7 92.9 -0.45 92.9 4.35 89.7 7.9 L89.15 8.45 Q87.35 10.25 85.2 11.2 L85.2 11.25 Q83.05 12.15 80.55 12.15 L72.95 12.15 Q70.55 12.15 70.55 9.7 L70.55 -10.65 70.6 -11.0 M88.1 6.9 Q91.4 3.6 91.4 -0.95 91.4 -5.6 88.1 -8.85 86.5 -10.5 84.6 -11.3 82.75 -12.1 80.55 -12.1 L72.95 -12.1 Q72.05 -12.1 72.05 -11.15 L72.05 9.2 Q72.05 10.15 72.95 10.15 L80.55 10.15 Q82.75 10.15 84.6 9.35 86.5 8.5 88.1 6.9 M82.75 2.95 L83.25 2.5 Q84.45 1.3 84.45 -0.45 84.45 -2.2 83.3 -3.45 L83.25 -3.5 Q81.9 -4.7 80.25 -4.7 L78.95 -4.7 78.95 -2.7 78.95 3.8 80.25 3.8 80.35 3.8 81.0 3.75 82.75 2.95 M77.95 4.8 L77.6 4.65 77.45 4.3 77.45 -6.2 77.6 -6.55 77.95 -6.7 80.25 -6.7 Q82.55 -6.7 84.3 -5.05 85.95 -3.35 85.95 -0.95 85.95 1.4 84.3 3.05 82.55 4.8 80.25 4.8 L77.95 4.8 M99.45 -10.95 L99.65 -11.45 99.65 -11.5 Q100.3 -13.0 101.5 -13.1 L101.6 -13.1 106.85 -13.1 106.95 -13.1 107.0 -13.1 Q108.3 -13.0 108.9 -11.45 L116.8 7.65 116.8 7.7 Q117.45 9.7 115.45 10.5 L115.35 10.55 115.4 10.55 112.1 11.95 112.05 11.95 Q109.85 12.7 108.95 10.55 L108.2 8.8 100.4 8.8 99.65 10.55 99.55 10.8 98.4 12.0 96.5 11.95 96.4 11.95 93.1 10.55 93.15 10.55 92.65 10.3 Q91.25 9.5 91.7 7.75 L91.75 7.65 99.45 -10.95 M112.8 -8.9 Q112.8 -10.05 114.1 -10.8 L117.2 -12.6 Q118.2 -13.25 119.05 -12.95 119.9 -12.75 120.55 -11.7 L124.0 -5.6 124.15 -5.85 126.6 -10.05 127.55 -11.7 Q128.8 -13.85 130.85 -12.6 L133.95 -10.8 Q135.0 -10.2 135.15 -9.3 135.4 -8.5 134.8 -7.5 L134.75 -7.45 128.2 3.9 128.2 9.8 128.2 10.1 128.2 10.25 Q128.05 11.75 126.7 12.1 L125.8 12.2 122.2 12.2 Q119.8 12.2 119.8 9.8 L119.8 3.95 113.25 -7.5 Q112.8 -8.25 112.8 -8.9 M133.2 -10.0 L130.1 -11.8 Q129.3 -12.25 128.85 -11.45 L124.45 -3.85 124.2 -3.6 123.85 -3.6 123.6 -3.85 119.25 -11.45 118.65 -12.0 118.0 -11.8 117.95 -11.8 114.85 -10.0 Q114.05 -9.55 114.55 -8.75 L121.25 2.9 121.3 3.15 121.3 9.3 Q121.3 10.2 122.2 10.2 L125.8 10.2 Q126.6 10.2 126.7 9.55 L126.7 9.3 126.7 3.1 126.8 2.85 133.5 -8.75 133.7 -9.5 133.2 -10.0 M106.65 0.65 L106.7 1.0 106.5 1.25 106.2 1.35 102.35 1.35 102.05 1.25 101.9 1.0 101.9 0.65 103.8 -4.0 104.05 -4.25 104.45 -4.25 104.7 -4.0 106.65 0.65 M114.8 8.65 L114.85 8.65 Q115.55 8.35 115.4 7.65 L107.5 -11.4 106.8 -12.1 101.75 -12.1 Q101.3 -12.0 101.0 -11.4 L93.15 7.65 Q92.95 8.35 93.7 8.65 L96.95 10.05 Q97.85 10.35 98.25 9.45 L99.25 7.1 99.45 6.9 99.7 6.8 108.85 6.8 109.15 6.9 109.3 7.1 110.3 9.45 Q110.65 10.3 111.55 10.05 L111.5 10.05 114.8 8.65 M103.85 0.35 L104.7 0.35 104.25 -0.7 103.85 0.35" fill="#333333" fill-rule="evenodd" stroke="none"/>
    <path d="M88.1 6.9 Q86.5 8.5 84.6 9.35 82.75 10.15 80.55 10.15 L72.95 10.15 Q72.05 10.15 72.05 9.2 L72.05 -11.15 Q72.05 -12.1 72.95 -12.1 L80.55 -12.1 Q82.75 -12.1 84.6 -11.3 86.5 -10.5 88.1 -8.85 91.4 -5.6 91.4 -0.95 91.4 3.6 88.1 6.9 M77.95 4.8 L80.25 4.8 Q82.55 4.8 84.3 3.05 85.95 1.4 85.95 -0.95 85.95 -3.35 84.3 -5.05 82.55 -6.7 80.25 -6.7 L77.95 -6.7 77.6 -6.55 77.45 -6.2 77.45 4.3 77.6 4.65 77.95 4.8 M114.8 8.65 L111.5 10.05 111.55 10.05 Q110.65 10.3 110.3 9.45 L109.3 7.1 109.15 6.9 108.85 6.8 99.7 6.8 99.45 6.9 99.25 7.1 98.25 9.45 Q97.85 10.35 96.95 10.05 L93.7 8.65 Q92.95 8.35 93.15 7.65 L101.0 -11.4 Q101.3 -12.0 101.75 -12.1 L106.8 -12.1 107.5 -11.4 115.4 7.65 Q115.55 8.35 114.85 8.65 L114.8 8.65 M106.65 0.65 L104.7 -4.0 104.45 -4.25 104.05 -4.25 103.8 -4.0 101.9 0.65 101.9 1.0 102.05 1.25 102.35 1.35 106.2 1.35 106.5 1.25 106.7 1.0 106.65 0.65 M133.2 -10.0 L133.7 -9.5 133.5 -8.75 126.8 2.85 126.7 3.1 126.7 9.3 126.7 9.55 Q126.6 10.2 125.8 10.2 L122.2 10.2 Q121.3 10.2 121.3 9.3 L121.3 3.15 121.25 2.9 114.55 -8.75 Q114.05 -9.55 114.85 -10.0 L117.95 -11.8 118.0 -11.8 118.65 -12.0 119.25 -11.45 123.6 -3.85 123.85 -3.6 124.2 -3.6 124.45 -3.85 128.85 -11.45 Q129.3 -12.25 130.1 -11.8 L133.2 -10.0" fill="#ffffff" fill-rule="evenodd" stroke="none"/>
    <path d="M89.7 7.9 L87.65 10.45 Q85.85 12.25 83.7 13.2 L83.7 13.25 Q81.55 14.15 79.05 14.15 L71.45 14.15 Q69.05 14.15 69.05 11.7 L69.05 -8.65 Q69.05 -10.6 70.6 -11.0 L70.55 -10.65 70.55 9.7 Q70.55 12.15 72.95 12.15 L80.55 12.15 Q83.05 12.15 85.2 11.25 L85.2 11.2 Q87.35 10.25 89.15 8.45 L89.7 7.9 M78.95 -2.7 L78.95 -4.7 80.25 -4.7 Q81.9 -4.7 83.25 -3.5 L83.3 -3.45 Q84.45 -2.2 84.45 -0.45 84.45 1.3 83.25 2.5 L82.75 2.95 82.95 1.55 Q82.95 -0.2 81.8 -1.45 L81.75 -1.5 Q80.5 -2.65 78.95 -2.7 M98.4 12.0 L98.15 12.55 Q97.2 14.7 95.0 13.95 L94.9 13.95 91.6 12.55 91.65 12.55 Q89.65 11.75 90.2 9.75 L90.25 9.65 98.15 -9.45 98.15 -9.5 Q98.65 -10.65 99.45 -10.95 L91.75 7.65 91.7 7.75 Q91.25 9.5 92.65 10.3 L93.15 10.55 93.1 10.55 96.4 11.95 96.5 11.95 98.4 12.0 M115.45 10.5 Q115.5 11.9 113.85 12.55 L113.9 12.55 110.6 13.95 110.55 13.95 Q108.35 14.7 107.45 12.55 L106.7 10.8 99.55 10.8 99.65 10.55 100.4 8.8 108.2 8.8 108.95 10.55 Q109.85 12.7 112.05 11.95 L112.1 11.95 115.4 10.55 115.35 10.55 115.45 10.5 M124.15 -5.85 L124.15 -5.9 126.35 -9.7 126.6 -10.05 124.15 -5.85 M126.7 12.1 L126.7 12.25 Q126.5 14.2 124.3 14.2 L120.7 14.2 Q118.3 14.2 118.3 11.8 L118.3 5.95 111.75 -5.5 Q110.55 -7.65 112.6 -8.8 L112.8 -8.9 Q112.8 -8.25 113.25 -7.5 L119.8 3.95 119.8 9.8 Q119.8 12.2 122.2 12.2 L125.8 12.2 126.7 12.1 M103.85 0.35 L104.25 -0.7 104.7 0.35 103.85 0.35" fill="#958573" fill-rule="evenodd" stroke="none"/>
  </g>
</svg>
