<?xml version="1.0" encoding="UTF-8" standalone="no"?>
<svg xmlns:ffdec="https://www.free-decompiler.com/flash" xmlns:xlink="http://www.w3.org/1999/xlink" ffdec:objectType="shape" height="16.6px" width="13.75px" xmlns="http://www.w3.org/2000/svg">
  <g transform="matrix(1.0, 0.0, 0.0, 1.0, 5.4, 2.65)">
    <path d="M2.75 -0.05 L2.6 -0.15 2.25 -0.4 2.1 -0.5 1.25 -0.85 Q-1.2 -2.0 -2.55 -1.4 -3.85 -0.7 -4.35 1.6 L-4.4 1.65 -4.4 1.9 -4.5 2.65 -4.55 2.9 -4.6 2.9 -4.55 3.1 -4.55 3.15 -4.6 3.75 -4.65 4.05 -4.55 4.8 -4.25 6.6 -4.25 6.95 -4.2 6.95 -3.65 8.45 -3.3 9.35 -2.95 10.05 -2.5 10.8 -2.3 11.0 -1.95 11.4 -1.9 11.45 -0.7 12.35 -0.55 12.4 -0.3 12.55 -0.15 12.55 0.3 12.7 0.4 12.7 0.5 12.8 0.55 12.75 Q2.55 13.35 4.55 12.45 L4.65 12.35 4.7 12.35 Q6.65 11.25 7.25 9.05 L7.35 8.9 Q7.7 7.75 7.5 6.6 L6.95 4.9 6.9 4.85 Q6.15 3.35 5.2 2.1 L4.9 1.75 3.3 0.25 2.9 0.05 2.75 -0.05 M1.3 -1.75 L2.1 -1.3 2.3 -1.2 Q2.55 -1.05 2.75 -0.95 L2.95 -0.75 3.15 -0.7 3.45 -0.5 5.3 1.2 5.65 1.6 Q6.75 3.0 7.65 4.7 L7.65 4.75 Q8.1 5.65 8.2 6.65 8.5 7.95 8.15 9.3 L8.05 9.5 Q7.35 11.95 5.1 13.1 L5.0 13.2 4.95 13.3 Q2.7 14.4 0.45 13.7 L0.35 13.7 0.25 13.65 0.2 13.65 -0.3 13.45 -0.55 13.4 Q-0.7 13.25 -0.8 13.2 L-0.95 13.15 -2.3 12.1 -2.25 12.05 -2.4 12.15 -2.8 11.6 -2.9 11.35 -3.55 10.6 -3.9 9.8 -4.4 8.8 -4.95 7.05 -5.05 6.7 Q-5.35 5.75 -5.3 4.65 L-5.4 3.8 -5.35 3.4 -5.35 3.35 -5.35 2.85 -5.3 2.65 -5.35 2.55 -5.35 2.5 -5.4 2.15 -5.2 1.3 -5.15 1.1 -5.1 0.95 Q-4.55 -1.65 -3.15 -2.35 -1.55 -3.15 1.3 -1.75" fill="#383838" fill-rule="evenodd" stroke="none"/>
    <path d="M1.25 -0.85 Q1.15 -0.6 1.3 -0.5 L0.65 -0.75 1.25 -0.85 M2.5 0.2 L2.75 -0.05 2.9 0.05 3.3 0.25 2.75 0.35 2.7 0.4 2.5 0.2 M-4.35 1.6 L-3.95 1.2 -3.85 1.15 -3.95 1.75 -4.35 1.6 M6.3 4.55 L5.5 3.2 5.4 2.85 Q5.15 2.4 4.75 2.3 L4.15 1.65 4.9 1.75 5.2 2.1 Q6.15 3.35 6.9 4.85 L6.95 4.9 6.65 4.7 6.3 4.55 M7.05 6.5 L7.5 6.6 Q7.7 7.75 7.35 8.9 L7.3 8.9 6.95 8.95 7.0 8.85 7.05 8.6 7.05 8.4 Q7.25 7.45 7.05 6.5 M-4.05 5.8 L-3.9 6.6 -4.0 6.7 -4.25 6.95 -4.25 6.6 -4.05 5.8 M-3.3 8.35 L-3.0 8.9 -3.3 9.35 -3.65 8.45 -3.3 8.35 M-2.5 10.8 L-2.5 10.65 -2.4 10.1 -1.65 11.1 -1.95 11.4 -2.3 11.0 -2.5 10.8 M0.15 12.3 L0.5 12.35 0.85 12.5 0.55 12.75 0.5 12.8 0.4 12.7 0.3 12.7 -0.15 12.55 0.15 12.3 M-4.55 4.8 L-4.65 4.05 -4.6 3.75 -4.25 3.7 -4.15 4.0 -4.2 4.05 -4.2 4.55 -4.55 4.8" fill="#069797" fill-rule="evenodd" stroke="none"/>
    <path d="M1.25 -0.85 L0.65 -0.75 Q-1.3 -1.55 -2.45 -1.05 -3.4 -0.4 -3.85 1.15 L-3.95 1.2 -4.35 1.6 Q-3.85 -0.7 -2.55 -1.4 -1.2 -2.0 1.25 -0.85 M6.3 4.55 L6.65 4.7 6.95 4.9 7.5 6.6 7.05 6.5 6.55 5.05 6.3 4.55 M4.9 1.75 L4.15 1.65 2.75 0.35 3.3 0.25 4.9 1.75 M6.95 8.95 L7.3 8.9 7.35 8.9 7.25 9.05 Q6.65 11.25 4.7 12.35 L4.65 12.35 4.55 12.45 Q2.55 13.35 0.55 12.75 L0.85 12.5 Q2.65 12.9 4.3 12.0 L4.4 12.0 4.45 11.9 Q6.25 10.95 6.9 9.0 L6.95 8.9 6.95 8.95 M-3.0 8.9 L-2.55 9.8 -2.4 10.1 -2.5 10.65 -2.5 10.8 -2.95 10.05 -3.3 9.35 -3.0 8.9 M-4.2 4.55 L-4.05 5.8 -4.25 6.6 -4.55 4.8 -4.2 4.55" fill="#e449ba" fill-rule="evenodd" stroke="none"/>
    <path d="M0.65 -0.75 L1.3 -0.5 1.4 -0.15 1.6 0.2 2.45 0.3 2.5 0.2 2.7 0.4 2.2 0.7 1.95 0.45 1.75 0.35 0.3 -0.45 Q0.15 -0.55 -0.05 -0.6 L0.65 -0.75 M5.5 3.2 L6.3 4.55 5.15 4.35 5.05 4.2 5.0 4.05 5.45 3.35 5.5 3.2 M4.15 1.65 L4.75 2.3 Q4.45 2.2 4.1 2.45 L4.0 2.45 3.35 1.7 4.15 1.65 M5.55 5.7 L5.85 5.85 Q6.1 5.9 6.55 6.25 L7.05 6.5 Q7.25 7.45 7.05 8.4 L7.05 8.6 7.0 8.85 6.95 8.95 6.95 8.9 Q6.35 9.05 5.9 9.4 5.0 10.0 4.65 10.75 L3.9 11.6 2.95 11.75 Q2.1 11.7 1.55 12.05 L0.85 12.5 0.5 12.35 0.15 12.3 0.2 11.95 0.0 11.45 Q-0.55 10.45 -1.4 10.9 L-1.65 11.1 -2.4 10.1 -2.05 9.5 -1.35 9.6 -0.25 10.15 2.7 10.2 2.75 10.15 2.8 10.1 3.2 9.95 3.2 10.0 Q3.25 9.9 3.3 9.95 L3.3 9.9 Q4.5 9.3 5.05 8.2 L5.3 8.5 6.15 8.6 Q6.65 8.3 6.75 7.8 L6.55 7.05 Q6.1 6.3 5.5 6.45 L5.55 5.7 M-3.5 5.5 L-3.25 6.4 -3.9 6.6 -4.05 5.8 -3.9 5.7 -3.5 5.5 M-2.65 7.65 L-2.4 8.1 -2.35 8.15 -2.3 8.25 -3.0 8.9 -3.3 8.35 -3.25 8.4 -2.65 7.65 M-3.45 1.1 L-3.65 2.1 -3.95 1.75 -3.85 1.15 -3.6 1.15 -3.45 1.1 M-3.7 3.4 L-3.75 3.65 -3.7 3.95 -3.75 4.25 -4.2 4.55 -4.2 4.05 -4.15 4.0 -4.25 3.7 -4.05 3.6 -3.7 3.4" fill="#09dfdf" fill-rule="evenodd" stroke="none"/>
    <path d="M1.3 -0.5 L2.5 0.2 2.45 0.3 1.6 0.2 1.4 -0.15 1.3 -0.5 M4.75 2.3 L5.5 3.2 5.45 3.35 5.0 4.05 4.0 2.45 4.1 2.45 Q4.45 2.2 4.75 2.3 M-3.9 6.6 L-3.25 6.4 -2.65 7.65 -3.25 8.4 -3.3 8.35 -3.7 7.05 -3.9 6.6 M-1.65 11.1 L-1.4 10.9 Q-0.55 10.45 0.0 11.45 L0.2 11.95 0.15 12.3 -1.65 11.1 M5.05 8.2 L5.35 7.45 5.5 6.45 Q6.1 6.3 6.55 7.05 L6.75 7.8 Q6.65 8.3 6.15 8.6 L5.3 8.5 5.05 8.2 M-3.7 3.35 L-3.7 3.4 -4.05 3.6 -4.25 3.7 -3.95 1.75 -3.65 2.1 -3.7 3.35" fill="#fef105" fill-rule="evenodd" stroke="none"/>
    <path d="M1.3 -0.5 Q1.15 -0.6 1.25 -0.85 L2.1 -0.5 2.25 -0.4 2.6 -0.15 2.75 -0.05 2.5 0.2 1.3 -0.5 M4.75 2.3 Q5.15 2.4 5.4 2.85 L5.5 3.2 4.75 2.3 M-0.15 12.55 L-0.3 12.55 -0.55 12.4 -0.7 12.35 -1.9 11.45 -1.95 11.4 -1.65 11.1 0.15 12.3 -0.15 12.55 M-4.25 6.95 L-4.0 6.7 -3.9 6.6 -3.7 7.05 -3.3 8.35 -3.65 8.45 -4.2 6.95 -4.25 6.95 M-4.35 1.6 L-3.95 1.75 -4.25 3.7 -4.6 3.75 -4.55 3.15 -4.55 3.1 -4.6 2.9 -4.55 2.9 -4.5 2.65 -4.4 1.9 -4.4 1.65 -4.35 1.6" fill="#c19600" fill-rule="evenodd" stroke="none"/>
    <path d="M-3.85 1.15 Q-3.4 -0.4 -2.45 -1.05 -1.3 -1.55 0.65 -0.75 L-0.05 -0.6 -2.3 -0.7 Q-3.05 -0.3 -3.45 1.1 L-3.6 1.15 -3.85 1.15 M2.2 0.7 L2.7 0.4 2.75 0.35 4.15 1.65 3.35 1.7 2.2 0.7 M5.15 4.35 L6.3 4.55 6.55 5.05 7.05 6.5 6.55 6.25 Q6.1 5.9 5.85 5.85 L5.55 5.7 5.15 4.35 M-2.3 8.25 Q-1.45 9.7 0.1 10.25 L2.7 10.2 -0.25 10.15 -1.35 9.6 -2.05 9.5 -2.4 10.1 -2.55 9.8 -3.0 8.9 -2.3 8.25 M-3.75 4.25 L-3.5 5.5 -3.9 5.7 -4.05 5.8 -4.2 4.55 -3.75 4.25 M0.85 12.5 L1.55 12.05 Q2.1 11.7 2.95 11.75 L3.9 11.6 4.65 10.75 Q5.0 10.0 5.9 9.4 6.35 9.05 6.95 8.9 L6.9 9.0 Q6.25 10.95 4.45 11.9 L4.4 12.0 4.3 12.0 Q2.65 12.9 0.85 12.5" fill="#ff9bee" fill-rule="evenodd" stroke="none"/>
    <path d="M-0.05 -0.6 Q0.15 -0.55 0.3 -0.45 L1.75 0.35 1.95 0.45 2.2 0.7 1.7 1.05 1.2 0.55 -0.4 -0.2 -0.05 -0.6 M2.8 10.1 Q4.1 9.45 4.4 7.75 L4.65 6.55 Q4.85 5.95 5.3 5.7 L5.55 5.7 5.5 6.45 5.3 6.65 Q4.45 7.15 5.0 8.1 L5.05 8.2 Q4.5 9.3 3.3 9.9 L3.3 9.95 Q3.25 9.9 3.2 10.0 L3.2 9.95 2.8 10.1 M5.15 4.35 L4.55 4.65 Q4.05 4.85 3.7 5.35 4.0 4.3 3.5 3.3 L3.4 3.1 2.7 2.0 3.0 1.85 3.35 1.7 4.0 2.45 Q3.3 2.9 3.7 3.6 3.75 3.85 3.95 3.95 4.35 4.4 4.85 4.15 4.9 4.05 5.0 4.05 L5.05 4.2 5.15 4.35 M3.2 6.45 L3.2 6.65 3.1 7.6 2.6 8.7 1.7 9.15 0.6 9.05 -0.2 8.65 Q-0.55 8.35 -0.85 8.2 -1.65 7.9 -2.2 8.2 L-2.3 8.25 -2.35 8.15 -2.4 8.1 -2.65 7.65 -2.6 7.55 Q-2.5 7.15 -2.65 6.8 -2.9 6.45 -3.25 6.4 L-3.5 5.5 -2.75 5.3 -2.3 6.35 Q-1.6 7.4 -0.4 7.8 L0.45 7.85 0.5 7.85 Q0.95 8.3 1.4 8.05 L1.9 7.6 2.05 7.45 3.2 6.45 M-3.15 3.95 L-3.5 4.1 -3.75 4.25 -3.7 3.95 -3.75 3.65 -3.7 3.4 -3.7 3.35 -3.5 2.9 -3.5 2.3 -3.65 2.1 -3.45 1.1 -2.9 1.15 -3.2 2.8 -3.2 2.9 -3.15 3.95" fill="#45f8f8" fill-rule="evenodd" stroke="none"/>
    <path d="M4.0 2.45 L5.0 4.05 Q4.9 4.05 4.85 4.15 4.35 4.4 3.95 3.95 3.75 3.85 3.7 3.6 3.3 2.9 4.0 2.45 M5.05 8.2 L5.0 8.1 Q4.45 7.15 5.3 6.65 L5.5 6.45 5.35 7.45 5.05 8.2 M1.9 7.6 L1.4 8.05 Q0.95 8.3 0.5 7.85 L0.8 7.95 1.9 7.6 M-3.25 6.4 Q-2.9 6.45 -2.65 6.8 -2.5 7.15 -2.6 7.55 L-2.65 7.65 -3.25 6.4 M-3.65 2.1 L-3.5 2.3 -3.5 2.9 -3.7 3.35 -3.65 2.1" fill="#fcff79" fill-rule="evenodd" stroke="none"/>
    <path d="M2.7 2.0 L3.4 3.1 3.5 3.3 Q4.0 4.3 3.7 5.35 L3.6 5.6 3.2 6.45 2.05 7.45 1.9 7.6 2.05 7.2 2.05 6.35 Q1.4 5.25 0.4 5.8 L-0.15 6.3 0.0 7.15 0.4 7.8 0.45 7.85 -0.4 7.8 Q-1.6 7.4 -2.3 6.35 L-2.75 5.3 -1.7 5.25 Q-0.65 5.4 0.25 4.95 1.1 4.5 1.6 3.35 L2.7 2.0 M1.7 1.05 L0.9 1.9 0.3 3.05 -0.65 3.9 -2.0 3.95 -3.15 3.95 -3.2 2.9 -3.2 2.8 -2.9 1.15 -1.7 0.85 -0.55 -0.05 -0.4 -0.2 1.2 0.55 1.7 1.05 M-0.2 2.2 L-0.4 1.6 Q-0.8 0.95 -1.5 1.35 -2.2 1.75 -1.8 2.55 L-1.45 3.0 -0.4 2.85 -0.2 2.2" fill="#a2fdfd" fill-rule="evenodd" stroke="none"/>
    <path d="M0.5 7.85 L0.45 7.85 0.4 7.8 0.0 7.15 -0.15 6.3 0.4 5.8 Q1.4 5.25 2.05 6.35 L2.05 7.2 1.9 7.6 0.8 7.95 0.5 7.85 M-0.2 2.2 L-0.4 2.85 -1.45 3.0 -1.8 2.55 Q-2.2 1.75 -1.5 1.35 -0.8 0.95 -0.4 1.6 L-0.2 2.2" fill="#fdffb8" fill-rule="evenodd" stroke="none"/>
    <path d="M3.7 5.35 L3.65 5.7 3.2 6.45 3.6 5.6 3.7 5.35 M1.7 1.05 Q2.3 1.45 2.7 2.0 L1.6 3.35 Q1.1 4.5 0.25 4.95 -0.65 5.4 -1.7 5.25 L-2.75 5.3 -3.15 3.95 -2.0 3.95 -0.65 3.9 0.3 3.05 0.9 1.9 1.7 1.05 M-0.4 -0.2 L-0.55 -0.05 -1.7 0.85 -2.9 1.15 Q-2.6 0.2 -2.0 -0.25 L-0.4 -0.2" fill="#ffdffa" fill-rule="evenodd" stroke="none"/>
    <path d="M5.55 5.7 L5.3 5.7 Q4.85 5.95 4.65 6.55 L4.4 7.75 Q4.1 9.45 2.8 10.1 L2.75 10.15 2.7 10.2 0.1 10.25 Q-1.45 9.7 -2.3 8.25 L-2.2 8.2 Q-1.65 7.9 -0.85 8.2 -0.55 8.35 -0.2 8.65 L0.6 9.05 1.7 9.15 2.6 8.7 3.1 7.6 3.2 6.65 3.2 6.45 3.65 5.7 3.7 5.35 Q4.05 4.85 4.55 4.65 L5.15 4.35 5.55 5.7 M3.35 1.7 L3.0 1.85 2.7 2.0 Q2.3 1.45 1.7 1.05 L2.2 0.7 3.35 1.7 M-2.75 5.3 L-3.5 5.5 -3.75 4.25 -3.5 4.1 -3.15 3.95 -2.75 5.3 M-0.05 -0.6 L-0.4 -0.2 -2.0 -0.25 Q-2.6 0.2 -2.9 1.15 L-3.45 1.1 Q-3.05 -0.3 -2.3 -0.7 L-0.05 -0.6" fill="#ffc1f4" fill-rule="evenodd" stroke="none"/>
  </g>
</svg>
