<?xml version="1.0" encoding="UTF-8" standalone="no"?>
<svg xmlns:ffdec="https://www.free-decompiler.com/flash" xmlns:xlink="http://www.w3.org/1999/xlink" ffdec:objectType="shape" height="39.8px" width="41.9px" xmlns="http://www.w3.org/2000/svg">
  <g transform="matrix(1.0, 0.0, 0.0, 1.0, 21.0, 3.2)">
    <path d="M1.45 7.8 Q1.8 13.6 -3.75 14.7 -5.05 15.35 -6.85 12.2 L-6.4 9.1 Q-6.05 7.1 -5.05 5.35 -3.7 2.9 -1.8 2.5 -0.75 2.3 0.3 3.9 1.3 5.6 1.45 7.8 M-4.25 28.15 L-5.95 30.45 -6.7 30.9 Q-7.25 26.0 -4.9 24.8 L-3.95 24.95 Q-4.0 27.45 -4.25 28.15" fill="#ffffff" fill-rule="evenodd" stroke="none"/>
    <path d="M-16.95 8.85 L-15.85 8.5 -12.05 8.3 Q-9.75 8.85 -9.6 12.0 L-11.55 12.7 -13.8 13.4 -14.4 11.95 -16.45 9.45 -16.95 8.85 M7.4 32.25 Q5.35 29.65 3.65 25.7 L5.8 25.35 8.65 25.15 10.65 29.05 10.1 29.9 8.75 31.0 7.4 32.25 M17.2 18.6 Q14.8 18.6 14.15 17.2 14.75 15.6 15.95 14.75 L16.6 15.25 16.9 15.6 17.15 18.45 17.2 18.6 M3.05 -1.4 Q3.9 -1.35 4.8 -0.9 L6.5 0.25 Q8.85 2.35 9.65 6.45 9.9 7.6 8.2 8.1 L5.55 4.7 Q3.55 1.8 3.15 -0.25 L3.05 -1.4 M1.45 7.8 Q1.3 5.6 0.3 3.9 -0.75 2.3 -1.8 2.5 -3.7 2.9 -5.05 5.35 -6.05 7.1 -6.4 9.1 L-6.85 12.2 Q-5.05 15.35 -3.75 14.7 1.8 13.6 1.45 7.8 M3.35 5.8 Q4.5 11.5 1.15 15.5 -1.2 18.25 -3.5 18.75 -4.85 19.0 -6.3 17.35 -7.45 16.0 -7.75 14.55 L-8.65 8.45 Q-8.95 6.9 -7.45 4.3 -5.5 0.95 -1.95 0.25 -0.05 -0.15 1.7 2.2 3.0 4.1 3.35 5.8 M6.0 17.1 L10.35 14.75 Q11.3 17.0 8.45 19.0 6.45 20.45 4.95 20.75 L3.7 20.6 Q2.4 20.35 1.7 19.6 2.15 19.2 6.0 17.1 M8.0 33.0 L8.2 32.7 8.0 33.0 M-4.15 22.75 L-0.35 24.9 Q-0.8 25.75 -1.85 29.95 -2.6 32.85 -3.9 33.1 L-6.55 32.95 -8.6 32.3 Q-7.85 25.85 -6.7 22.65 L-6.45 21.95 -5.7 22.05 -4.15 22.75 M-4.25 28.15 Q-4.0 27.45 -3.95 24.95 L-4.9 24.8 Q-7.25 26.0 -6.7 30.9 L-5.95 30.45 -4.25 28.15" fill="#e0e0e0" fill-rule="evenodd" stroke="none"/>
    <path d="M-0.6 -2.95 L0.35 -3.1 2.2 -3.2 5.5 -2.9 6.2 -2.05 Q9.0 1.35 11.05 5.5 12.65 8.85 13.1 10.95 13.45 12.7 12.7 16.1 14.15 15.1 14.65 12.85 15.75 12.75 16.85 13.35 L16.95 14.0 16.9 15.45 16.9 15.6 16.6 15.25 15.95 14.75 Q14.75 15.6 14.15 17.2 14.8 18.6 17.2 18.6 L17.7 20.2 17.85 20.5 10.7 20.05 10.7 19.15 10.6 19.05 7.9 23.65 9.05 23.4 Q9.75 23.5 10.25 24.55 10.8 25.5 11.1 27.2 L11.25 29.25 10.1 29.9 10.65 29.05 8.65 25.15 5.8 25.35 3.65 25.7 Q5.35 29.65 7.4 32.25 L6.5 33.2 1.55 25.9 1.55 24.4 -2.2 33.35 -3.9 33.6 -7.15 33.6 -10.35 33.8 -9.1 27.6 -8.55 23.9 Q-8.35 21.6 -8.5 20.75 -9.2 17.35 -11.65 16.75 L-12.8 16.6 -13.5 14.3 -13.8 13.4 -11.55 12.7 -9.6 12.0 Q-9.75 8.85 -12.05 8.3 L-15.85 8.5 -16.95 8.85 -17.65 7.95 -17.8 7.75 Q-14.6 6.55 -11.8 5.85 -8.8 1.3 -0.6 -2.9 L-0.6 -2.95 M3.05 -1.4 L3.15 -0.25 Q3.55 1.8 5.55 4.7 L8.2 8.1 Q9.9 7.6 9.65 6.45 8.85 2.35 6.5 0.25 L4.8 -0.9 Q3.9 -1.35 3.05 -1.4 M5.25 12.1 L5.3 11.7 Q5.95 8.05 4.55 5.75 5.45 8.9 3.6 13.05 2.45 15.8 1.1 17.4 L2.85 16.8 2.9 16.75 Q4.55 15.1 5.25 12.1 M6.0 17.1 Q2.15 19.2 1.7 19.6 2.4 20.35 3.7 20.6 L4.95 20.75 Q6.45 20.45 8.45 19.0 11.3 17.0 10.35 14.75 L6.0 17.1 M3.35 5.8 Q3.0 4.1 1.7 2.2 -0.05 -0.15 -1.95 0.25 -5.5 0.95 -7.45 4.3 -8.95 6.9 -8.65 8.45 L-7.75 14.55 Q-7.45 16.0 -6.3 17.35 -4.85 19.0 -3.5 18.75 -1.2 18.25 1.15 15.5 4.5 11.5 3.35 5.8 M-4.15 22.75 L-5.7 22.05 -6.45 21.95 -6.7 22.65 Q-7.85 25.85 -8.6 32.3 L-6.55 32.95 -3.9 33.1 Q-2.6 32.85 -1.85 29.95 -0.8 25.75 -0.35 24.9 L-4.15 22.75" fill="#b4b4b4" fill-rule="evenodd" stroke="none"/>
    <path d="M5.5 -2.9 L6.45 -2.45 Q10.9 -0.8 15.25 10.9 16.95 11.6 18.35 12.55 L18.3 13.1 18.35 14.5 Q18.5 17.25 19.35 19.5 L19.95 20.85 20.9 22.3 18.4 22.15 Q12.9 21.85 10.85 22.3 L12.7 25.4 Q12.45 26.05 12.35 26.9 L12.3 29.25 12.35 30.25 10.85 31.4 10.15 32.05 Q8.5 33.7 7.6 34.9 L6.55 36.6 3.9 33.0 Q2.5 30.8 1.25 28.25 L-1.4 34.55 -1.75 34.6 -4.6 35.15 -8.05 35.55 -10.75 35.6 -10.85 35.65 -12.1 35.85 -11.9 33.4 -10.65 25.9 -10.6 25.25 Q-10.4 22.95 -10.95 20.2 L-11.5 18.4 -14.0 18.7 -14.3 16.9 Q-14.9 14.65 -16.2 12.5 L-16.7 11.75 -18.5 9.45 -19.5 8.4 -21.0 7.15 -12.8 3.95 -12.75 3.85 Q-11.5 1.9 -8.2 -0.3 -5.1 -2.4 -1.1 -2.9 L-0.6 -2.95 -0.6 -2.9 Q-8.8 1.3 -11.8 5.85 -14.6 6.55 -17.8 7.75 L-17.65 7.95 -16.95 8.85 -16.45 9.45 -14.4 11.95 -13.8 13.4 -13.5 14.3 -12.8 16.6 -11.65 16.75 Q-9.2 17.35 -8.5 20.75 -8.35 21.6 -8.55 23.9 L-9.1 27.6 -10.35 33.8 -7.15 33.6 -3.9 33.6 -2.2 33.35 1.55 24.4 1.55 25.9 6.5 33.2 7.4 32.25 8.75 31.0 10.1 29.9 11.25 29.25 11.1 27.2 Q10.8 25.5 10.25 24.55 9.75 23.5 9.05 23.4 L7.9 23.65 10.6 19.05 10.7 19.15 10.7 20.05 17.85 20.5 17.7 20.2 17.2 18.6 17.15 18.45 16.9 15.6 16.9 15.45 16.95 14.0 16.85 13.35 Q15.75 12.75 14.65 12.85 14.15 15.1 12.7 16.1 13.45 12.7 13.1 10.95 12.65 8.85 11.05 5.5 9.0 1.35 6.2 -2.05 L5.5 -2.9 M5.25 12.1 Q4.55 15.1 2.9 16.75 L2.85 16.8 1.1 17.4 Q2.45 15.8 3.6 13.05 5.45 8.9 4.55 5.75 5.95 8.05 5.3 11.7 L5.25 12.1 M8.0 33.0 L8.2 32.7 8.0 33.0" fill="#464646" fill-rule="evenodd" stroke="none"/>
  </g>
</svg>
