<?xml version="1.0" encoding="UTF-8" standalone="no"?>
<svg xmlns:ffdec="https://www.free-decompiler.com/flash" xmlns:xlink="http://www.w3.org/1999/xlink" ffdec:objectType="shape" height="57.5px" width="53.55px" xmlns="http://www.w3.org/2000/svg">
  <g transform="matrix(1.0, 0.0, 0.0, 1.0, 27.95, 94.05)">
    <path d="M-2.15 -82.4 L4.0 -94.05 6.4 -89.8 Q6.25 -86.15 4.85 -84.45 L4.1 -83.75 Q2.8 -83.75 1.95 -82.75 L-1.6 -82.4 -2.15 -82.4 M2.15 -77.65 L2.35 -77.5 -4.3 -77.5 Q-2.7 -78.3 -1.45 -78.3 1.05 -78.3 2.15 -77.65 M3.75 -56.75 L-1.6 -52.8 -3.3 -51.6 10.1 -50.5 Q16.3 -50.15 16.3 -47.05 16.3 -43.8 12.5 -42.9 L10.3 -42.75 9.7 -46.3 0.4 -42.75 Q-4.85 -43.2 -8.15 -44.35 -12.55 -45.9 -12.55 -48.35 -12.55 -49.5 -11.75 -52.5 L-2.65 -52.25 -2.9 -56.4 3.75 -56.75 M-0.45 -36.65 L-11.5 -37.25 -7.8 -38.6 Q-1.65 -40.4 -0.45 -36.65" fill="#ffffff" fill-rule="evenodd" stroke="none"/>
    <path d="M-2.15 -82.4 L-1.6 -82.4 1.95 -82.75 1.9 -82.75 Q1.0 -81.7 1.05 -80.25 1.05 -78.8 1.95 -77.8 L2.15 -77.65 Q1.05 -78.3 -1.45 -78.3 -2.7 -78.3 -4.3 -77.5 L-4.75 -77.5 -2.15 -82.4 M4.1 -83.75 L4.85 -84.45 Q6.25 -86.15 6.4 -89.8 L8.5 -86.05 6.25 -82.9 Q5.35 -83.75 4.15 -83.75 L4.1 -83.75 M7.45 -77.5 L6.25 -77.5 6.45 -77.8 7.1 -78.75 7.95 -78.85 7.45 -77.5 M3.75 -56.75 Q8.25 -57.25 12.95 -58.5 L11.8 -58.0 Q5.05 -55.15 4.15 -54.45 5.35 -53.5 8.65 -53.25 L14.75 -52.9 15.6 -52.8 Q20.2 -52.15 21.65 -49.55 17.95 -44.15 10.75 -40.1 L10.3 -42.75 12.5 -42.9 Q16.3 -43.8 16.3 -47.05 16.3 -50.15 10.1 -50.5 L-3.3 -51.6 -1.6 -52.8 3.75 -56.75 M-9.6 -84.45 L-8.5 -80.7 -8.95 -80.85 Q-11.05 -81.5 -11.45 -81.85 L-9.6 -84.45 M-7.6 -77.5 L-7.55 -77.25 -7.8 -77.25 -7.6 -77.5 M-14.1 -43.55 Q-16.85 -46.75 -16.85 -49.35 -16.85 -50.5 -15.75 -52.8 L-15.15 -53.95 -13.45 -56.9 -13.5 -57.3 -11.9 -56.8 -11.9 -52.5 -11.75 -52.5 Q-12.55 -49.5 -12.55 -48.35 -12.55 -45.9 -8.15 -44.35 -4.85 -43.2 0.4 -42.75 L-0.5 -42.45 1.55 -36.9 -0.45 -36.65 Q-1.65 -40.4 -7.8 -38.6 L-11.5 -37.25 -14.35 -37.85 -14.25 -38.5 Q-11.05 -39.25 -10.3 -39.9 L-13.6 -43.0 -13.55 -43.4 -14.1 -43.55" fill="#e0e0e0" fill-rule="evenodd" stroke="none"/>
    <path d="M8.5 -86.05 L10.45 -82.7 10.5 -82.35 10.65 -82.3 13.3 -77.6 13.2 -77.5 7.45 -77.5 7.95 -78.85 7.1 -78.75 7.4 -80.25 Q7.35 -81.7 6.4 -82.75 L6.25 -82.9 8.5 -86.05 M21.65 -49.55 Q20.2 -52.15 15.6 -52.8 L14.75 -52.9 8.65 -53.25 Q5.35 -53.5 4.15 -54.45 5.05 -55.15 11.8 -58.0 L12.95 -58.5 Q17.7 -59.8 22.55 -61.85 L20.95 -59.85 18.3 -57.45 Q18.35 -57.3 19.05 -57.05 L20.5 -56.75 Q22.6 -56.75 25.1 -57.75 24.2 -53.35 21.65 -49.55 M-11.5 -91.25 L-9.6 -84.45 -11.45 -81.85 Q-11.05 -81.5 -8.95 -80.85 L-8.5 -80.7 -7.6 -77.5 -7.8 -77.25 -13.2 -77.25 -13.0 -77.55 Q-12.1 -78.55 -11.85 -80.0 -11.6 -81.45 -12.2 -82.5 -12.8 -83.5 -13.8 -83.5 -14.85 -83.5 -15.7 -82.5 L-13.95 -86.55 -11.5 -91.25 M-20.85 -44.35 Q-22.85 -46.85 -22.85 -47.3 -22.85 -49.0 -22.0 -52.8 L-20.25 -59.8 Q-17.0 -58.4 -13.5 -57.3 L-13.45 -56.9 -15.15 -53.95 -15.75 -52.8 Q-16.85 -50.5 -16.85 -49.35 -16.85 -46.75 -14.1 -43.55 L-20.55 -45.5 -20.85 -44.35 M-14.25 -38.5 L-13.6 -43.0 -10.3 -39.9 Q-11.05 -39.25 -14.25 -38.5" fill="#b4b4b4" fill-rule="evenodd" stroke="none"/>
    <path d="M10.45 -82.7 L10.65 -82.3 10.5 -82.35 10.45 -82.7 M13.3 -77.6 L13.35 -77.5 13.2 -77.5 13.3 -77.6 M22.55 -61.85 L25.6 -63.25 Q25.65 -60.4 25.1 -57.75 22.6 -56.75 20.5 -56.75 L19.05 -57.05 Q18.35 -57.3 18.3 -57.45 L20.95 -59.85 22.55 -61.85 M-17.85 -84.1 L-12.25 -93.8 -11.5 -91.25 -13.95 -86.55 -15.7 -82.5 -15.75 -82.5 Q-16.6 -81.45 -16.8 -80.0 -17.05 -78.55 -16.5 -77.55 L-16.3 -77.25 -19.45 -77.25 -17.85 -84.1 M-20.25 -59.8 L-22.0 -52.8 Q-22.85 -49.0 -22.85 -47.3 -22.85 -46.85 -20.85 -44.35 L-22.15 -40.1 Q-24.9 -41.05 -27.05 -43.9 L-25.1 -52.8 -23.2 -61.1 -20.25 -59.8" fill="#8a8a8a" fill-rule="evenodd" stroke="none"/>
    <path d="M-19.45 -77.25 L-20.95 -77.25 -20.4 -79.65 -17.85 -84.1 -19.45 -77.25 M-23.2 -61.1 L-25.1 -52.8 -27.05 -43.9 -27.95 -45.2 -26.3 -52.8 -24.35 -61.65 -23.2 -61.1" fill="#464646" fill-rule="evenodd" stroke="none"/>
  </g>
</svg>
