<?xml version="1.0" encoding="UTF-8" standalone="no"?>
<svg xmlns:ffdec="https://www.free-decompiler.com/flash" xmlns:xlink="http://www.w3.org/1999/xlink" ffdec:objectType="shape" height="110.35px" width="65.8px" xmlns="http://www.w3.org/2000/svg">
  <g transform="matrix(1.0, 0.0, 0.0, 1.0, 30.6, 104.65)">
    <path d="M18.05 -62.85 L17.95 -63.45 Q17.95 -64.05 19.0 -64.55 L21.25 -65.4 21.7 -65.05 21.8 -64.65 20.3 -63.55 Q19.2 -62.85 18.6 -62.75 L18.15 -62.75 18.05 -62.85 M-17.2 -64.95 Q-16.35 -65.1 -14.6 -64.3 L-13.6 -63.9 Q-13.8 -63.65 -14.15 -63.45 -14.85 -63.1 -15.8 -63.1 -16.75 -63.1 -17.4 -63.45 -18.1 -63.8 -18.1 -64.3 -18.1 -64.8 -17.2 -64.95" fill="#616161" fill-rule="evenodd" stroke="none"/>
    <path d="M5.75 -100.1 Q5.75 -98.95 6.1 -96.05 L2.85 -96.05 2.65 -100.1 5.75 -100.1 M10.05 -96.15 L9.25 -100.2 13.35 -100.4 14.55 -96.35 10.05 -96.15 M14.95 -100.55 L18.45 -101.0 21.15 -101.4 21.45 -101.45 21.9 -101.55 22.2 -101.6 23.85 -102.2 26.0 -98.0 Q22.85 -97.05 16.15 -96.45 L14.95 -100.55 M15.25 -94.9 Q14.8 -91.7 13.35 -88.1 L12.85 -87.2 Q12.6 -88.4 12.6 -89.65 L13.0 -94.75 15.25 -94.9 M14.15 -63.4 L15.75 -63.25 Q16.5 -63.05 16.55 -62.75 L16.0 -62.2 14.25 -61.95 12.9 -62.15 Q12.25 -62.35 12.2 -62.65 L12.7 -63.2 14.15 -63.4 M-10.8 -62.35 L-11.75 -62.6 -12.1 -63.2 Q-12.05 -63.55 -11.6 -63.75 L-10.7 -63.9 -7.55 -63.15 -7.75 -62.25 -10.8 -62.35 M-7.25 -94.9 Q-9.4 -94.15 -12.8 -94.15 -14.45 -94.15 -14.45 -92.4 L-14.35 -85.8 -14.15 -78.4 Q-14.05 -77.5 -12.75 -74.45 L-11.55 -70.9 Q-11.55 -68.4 -13.4 -61.15 -15.3 -53.9 -15.3 -43.55 L-14.8 -41.3 Q-13.9 -39.05 -11.95 -38.75 L-11.1 -38.7 Q-13.65 -37.55 -15.2 -34.2 -16.9 -30.45 -16.9 -24.9 L-16.8 -23.65 Q-16.7 -22.6 -16.25 -22.1 L-15.95 -21.75 Q-6.85 -20.35 3.95 -20.35 L5.8 -20.35 19.0 -21.1 23.9 -21.75 24.7 -23.65 24.9 -25.5 Q24.9 -26.55 23.85 -27.8 L20.8 -31.0 Q22.1 -32.1 22.7 -33.75 L23.0 -35.3 Q23.0 -38.05 20.25 -40.5 17.45 -43.0 17.45 -43.3 17.45 -43.9 16.55 -43.85 L14.6 -43.6 Q16.45 -46.9 18.5 -49.35 19.2 -50.2 19.2 -52.3 19.2 -55.95 18.05 -62.85 L18.15 -62.75 18.6 -62.75 Q19.2 -62.85 20.3 -63.55 L21.8 -64.65 21.7 -65.05 21.25 -65.4 19.0 -64.55 Q17.95 -64.05 17.95 -63.45 L17.0 -68.55 Q14.8 -79.8 14.8 -80.65 16.5 -87.65 17.1 -89.0 L17.55 -89.9 20.45 -78.7 Q21.95 -74.2 23.95 -74.2 25.4 -74.2 27.2 -76.75 29.05 -79.35 29.05 -81.65 29.05 -83.0 27.95 -86.75 26.65 -91.25 24.55 -96.1 L27.2 -97.0 27.3 -96.85 Q32.75 -86.95 32.05 -79.65 31.5 -74.35 27.65 -70.35 L26.35 -69.15 23.3 -66.95 22.1 -66.2 22.15 -65.8 22.15 -65.7 22.15 -65.6 23.2 -57.85 Q23.85 -52.3 25.1 -45.8 L25.3 -44.75 25.6 -43.3 25.55 -43.3 25.65 -42.9 Q26.4 -39.5 27.3 -36.25 28.4 -32.3 29.65 -28.8 L30.9 -24.9 31.4 -23.25 32.25 -20.45 Q26.6 -19.05 20.15 -18.25 L16.85 -17.9 3.95 -17.35 -6.1 -17.65 -17.45 -19.0 -25.25 -20.7 -24.95 -22.05 -24.55 -23.55 -24.15 -25.2 Q-23.2 -29.2 -22.5 -33.15 L-22.45 -33.4 -21.9 -36.25 -21.6 -37.95 -20.8 -43.3 -20.75 -43.3 -20.3 -47.65 -19.85 -51.85 -18.85 -62.55 -18.85 -63.15 -18.55 -66.25 -18.25 -81.8 -18.1 -89.35 -18.05 -90.65 -17.7 -96.3 -17.7 -96.5 -15.6 -95.95 -13.85 -95.6 -7.25 -94.9 M-7.3 -96.4 L-11.4 -96.8 -11.0 -100.85 -7.25 -100.45 -7.3 -96.4 M-13.2 -97.05 L-17.6 -98.0 -16.6 -101.85 -14.6 -101.35 -14.25 -101.3 -12.8 -101.1 -13.2 -97.05 M8.45 -63.05 L10.1 -62.8 Q10.75 -62.55 10.75 -62.2 10.75 -61.85 10.1 -61.6 L8.45 -61.35 6.85 -61.6 Q6.15 -61.85 6.15 -62.2 L6.85 -62.8 8.45 -63.05 M4.0 -62.7 L4.65 -62.15 Q4.65 -61.8 4.0 -61.55 L2.4 -61.35 0.8 -61.55 Q0.15 -61.8 0.15 -62.15 0.15 -62.5 0.8 -62.7 L2.4 -62.95 4.0 -62.7 M-5.3 -63.05 L-3.7 -63.3 -2.1 -63.05 Q-1.45 -62.8 -1.45 -62.45 -1.45 -62.1 -2.1 -61.85 L-3.7 -61.6 -5.3 -61.85 Q-5.95 -62.1 -5.95 -62.45 -5.95 -62.8 -5.3 -63.05 M-17.2 -64.95 Q-18.1 -64.8 -18.1 -64.3 -18.1 -63.8 -17.4 -63.45 -16.75 -63.1 -15.8 -63.1 -14.85 -63.1 -14.15 -63.45 -13.8 -63.65 -13.6 -63.9 L-14.6 -64.3 Q-16.35 -65.1 -17.2 -64.95" fill="#8a8a8a" fill-rule="evenodd" stroke="none"/>
    <path d="M5.75 -100.1 L9.25 -100.2 10.05 -96.15 6.1 -96.05 Q5.75 -98.95 5.75 -100.1 M13.35 -100.4 L14.95 -100.55 16.15 -96.45 14.55 -96.35 13.35 -100.4 M19.55 -95.3 Q19.75 -94.1 21.4 -89.5 22.95 -85.15 23.25 -84.6 L23.45 -84.25 24.5 -85.3 24.8 -86.5 Q24.8 -88.05 24.4 -89.4 L22.05 -95.6 23.8 -95.95 24.55 -96.1 Q26.65 -91.25 27.95 -86.75 29.05 -83.0 29.05 -81.65 29.05 -79.35 27.2 -76.75 25.4 -74.2 23.95 -74.2 21.95 -74.2 20.45 -78.7 L17.55 -89.9 17.1 -89.0 Q16.5 -87.65 14.8 -80.65 14.8 -79.8 17.0 -68.55 L17.95 -63.45 18.05 -62.85 Q19.2 -55.95 19.2 -52.3 19.2 -50.2 18.5 -49.35 16.45 -46.9 14.6 -43.6 L16.55 -43.85 Q17.45 -43.9 17.45 -43.3 17.45 -43.0 20.25 -40.5 23.0 -38.05 23.0 -35.3 L22.7 -33.75 Q22.1 -32.1 20.8 -31.0 L23.85 -27.8 Q24.9 -26.55 24.9 -25.5 L24.7 -23.65 23.9 -21.75 19.0 -21.1 5.8 -20.35 3.95 -20.35 Q-6.85 -20.35 -15.95 -21.75 L-16.25 -22.1 Q-16.7 -22.6 -16.8 -23.65 L-16.9 -24.9 Q-16.9 -30.45 -15.2 -34.2 -13.65 -37.55 -11.1 -38.7 L-11.95 -38.75 Q-13.9 -39.05 -14.8 -41.3 L-15.3 -43.55 Q-15.3 -53.9 -13.4 -61.15 -11.55 -68.4 -11.55 -70.9 L-12.75 -74.45 Q-14.05 -77.5 -14.15 -78.4 L-14.35 -85.8 -14.45 -92.4 Q-14.45 -94.15 -12.8 -94.15 -9.4 -94.15 -7.25 -94.9 L-4.15 -94.7 Q-6.9 -91.75 -8.05 -87.0 -8.95 -83.25 -8.95 -77.55 -8.95 -73.8 -7.75 -73.05 L-3.75 -72.6 -4.0 -72.3 Q-4.5 -71.55 -7.65 -68.75 -10.6 -65.85 -10.7 -63.9 L-11.6 -63.75 Q-12.05 -63.55 -12.1 -63.2 L-11.75 -62.6 -10.8 -62.35 -11.3 -46.3 Q-11.3 -44.85 -10.9 -44.15 -10.35 -43.3 -9.05 -43.4 L0.35 -44.8 Q-5.4 -38.9 -10.0 -35.0 -11.7 -32.8 -11.7 -24.4 -11.7 -23.7 -4.05 -22.85 L1.85 -22.1 3.95 -22.1 9.65 -22.2 11.9 -22.05 14.0 -22.4 19.75 -22.95 20.2 -25.4 Q20.2 -27.05 19.2 -28.05 17.45 -29.75 12.9 -30.2 L16.65 -33.85 17.2 -34.7 Q11.0 -37.55 8.95 -40.45 12.3 -44.2 13.45 -47.8 14.35 -50.75 14.35 -56.15 L14.25 -61.95 16.0 -62.2 16.55 -62.75 Q16.5 -63.05 15.75 -63.25 L14.15 -63.4 Q14.05 -69.8 11.55 -77.45 9.1 -84.95 9.1 -88.95 L9.15 -89.7 9.3 -89.75 9.55 -89.65 10.8 -94.65 13.0 -94.75 12.6 -89.65 Q12.6 -88.4 12.85 -87.2 L13.35 -88.1 Q14.8 -91.7 15.25 -94.9 L19.55 -95.3 M2.85 -96.05 L-0.2 -96.1 -0.2 -100.1 2.65 -100.1 2.85 -96.05 M-3.55 -96.2 L-7.3 -96.4 -7.25 -100.45 -3.85 -100.25 Q-3.55 -97.85 -3.55 -96.2 M-11.4 -96.8 L-13.2 -97.05 -12.8 -101.1 -11.0 -100.85 -11.4 -96.8" fill="#b4b4b4" fill-rule="evenodd" stroke="none"/>
    <path d="M22.05 -95.6 L24.4 -89.4 Q24.8 -88.05 24.8 -86.5 L24.5 -85.3 23.45 -84.25 23.25 -84.6 Q22.95 -85.15 21.4 -89.5 19.75 -94.1 19.55 -95.3 L22.05 -95.6 M10.8 -94.65 L9.55 -89.65 9.3 -89.75 9.15 -89.7 9.1 -88.95 Q9.1 -84.95 11.55 -77.45 14.05 -69.8 14.15 -63.4 L12.7 -63.2 12.2 -62.65 Q12.25 -62.35 12.9 -62.15 L14.25 -61.95 14.35 -56.15 Q14.35 -50.75 13.45 -47.8 12.3 -44.2 8.95 -40.45 11.0 -37.55 17.2 -34.7 L16.65 -33.85 12.9 -30.2 Q17.45 -29.75 19.2 -28.05 20.2 -27.05 20.2 -25.4 L19.75 -22.95 14.0 -22.4 Q15.15 -23.0 15.15 -24.45 15.15 -26.75 10.1 -28.15 -0.35 -31.0 -2.2 -31.75 2.0 -32.3 5.2 -36.85 7.65 -40.35 7.65 -41.85 7.65 -43.55 5.1 -43.05 2.75 -42.55 -0.45 -40.5 -8.55 -35.4 -8.55 -30.6 -8.55 -28.35 -0.55 -25.15 5.45 -22.75 9.65 -22.2 L3.95 -22.1 1.85 -22.1 -4.05 -22.85 Q-11.7 -23.7 -11.7 -24.4 -11.7 -32.8 -10.0 -35.0 -5.4 -38.9 0.35 -44.8 L-9.05 -43.4 Q-10.35 -43.3 -10.9 -44.15 -11.3 -44.85 -11.3 -46.3 L-10.8 -62.35 -7.75 -62.25 Q-8.05 -58.9 -6.75 -58.45 -6.1 -58.25 -6.6 -60.2 -4.5 -55.7 -6.25 -53.3 -7.7 -51.4 -7.7 -50.7 -7.7 -49.25 -6.35 -48.55 -5.35 -48.0 -4.05 -48.0 -3.0 -48.0 -1.0 -49.1 2.3 -50.9 5.3 -54.75 L3.95 -52.1 Q2.6 -49.35 2.6 -48.75 2.6 -47.35 3.95 -47.35 6.35 -47.35 8.7 -51.0 11.5 -55.25 11.5 -61.25 L11.8 -62.2 Q11.85 -62.45 11.3 -62.45 L10.8 -62.35 11.1 -65.5 Q11.1 -68.9 10.4 -69.45 L8.15 -69.6 3.6 -70.1 Q7.7 -74.95 7.6 -76.85 L7.4 -78.05 7.2 -78.25 6.6 -78.3 4.75 -76.3 Q2.75 -74.1 1.55 -73.3 -2.75 -70.45 -3.95 -69.2 -6.3 -66.85 -7.5 -63.0 L-7.55 -63.15 -10.7 -63.9 Q-10.6 -65.85 -7.65 -68.75 -4.5 -71.55 -4.0 -72.3 L-3.75 -72.6 -7.75 -73.05 Q-8.95 -73.8 -8.95 -77.55 -8.95 -83.25 -8.05 -87.0 -6.9 -91.75 -4.15 -94.7 -0.2 -94.55 6.15 -94.55 4.05 -91.8 -2.7 -85.6 -6.8 -81.8 -6.8 -78.35 L-6.7 -76.25 -5.45 -75.95 Q-1.15 -78.7 0.7 -80.95 4.05 -84.95 8.2 -94.6 L10.8 -94.65 M-0.2 -96.1 L-3.55 -96.2 Q-3.55 -97.85 -3.85 -100.25 L-0.2 -100.1 -0.2 -96.1" fill="#e0e0e0" fill-rule="evenodd" stroke="none"/>
    <path d="M14.0 -22.4 L11.9 -22.05 9.65 -22.2 Q5.45 -22.75 -0.55 -25.15 -8.55 -28.35 -8.55 -30.6 -8.55 -35.4 -0.45 -40.5 2.75 -42.55 5.1 -43.05 7.65 -43.55 7.65 -41.85 7.65 -40.35 5.2 -36.85 2.0 -32.3 -2.2 -31.75 -0.35 -31.0 10.1 -28.15 15.15 -26.75 15.15 -24.45 15.15 -23.0 14.0 -22.4 M6.15 -94.55 L8.2 -94.6 Q4.05 -84.95 0.7 -80.95 -1.15 -78.7 -5.45 -75.95 L-6.7 -76.25 -6.8 -78.35 Q-6.8 -81.8 -2.7 -85.6 4.05 -91.8 6.15 -94.55 M-7.55 -63.15 L-7.5 -63.0 Q-6.3 -66.85 -3.95 -69.2 -2.75 -70.45 1.55 -73.3 2.75 -74.1 4.75 -76.3 L6.6 -78.3 7.2 -78.25 7.4 -78.05 7.6 -76.85 Q7.7 -74.95 3.6 -70.1 L8.15 -69.6 10.4 -69.45 Q11.1 -68.9 11.1 -65.5 L10.8 -62.35 11.3 -62.45 Q11.85 -62.45 11.8 -62.2 L11.5 -61.25 Q11.5 -55.25 8.7 -51.0 6.35 -47.35 3.95 -47.35 2.6 -47.35 2.6 -48.75 2.6 -49.35 3.95 -52.1 L5.3 -54.75 Q2.3 -50.9 -1.0 -49.1 -3.0 -48.0 -4.05 -48.0 -5.35 -48.0 -6.35 -48.55 -7.7 -49.25 -7.7 -50.7 -7.7 -51.4 -6.25 -53.3 -4.5 -55.7 -6.6 -60.2 -6.1 -58.25 -6.75 -58.45 -8.05 -58.9 -7.75 -62.25 L-7.55 -63.15 M4.0 -62.7 L2.4 -62.95 0.8 -62.7 Q0.15 -62.5 0.15 -62.15 0.15 -61.8 0.8 -61.55 L2.4 -61.35 4.0 -61.55 Q4.65 -61.8 4.65 -62.15 L4.0 -62.7 M8.45 -63.05 L6.85 -62.8 6.15 -62.2 Q6.15 -61.85 6.85 -61.6 L8.45 -61.35 10.1 -61.6 Q10.75 -61.85 10.75 -62.2 10.75 -62.55 10.1 -62.8 L8.45 -63.05 M-5.3 -63.05 Q-5.95 -62.8 -5.95 -62.45 -5.95 -62.1 -5.3 -61.85 L-3.7 -61.6 -2.1 -61.85 Q-1.45 -62.1 -1.45 -62.45 -1.45 -62.8 -2.1 -63.05 L-3.7 -63.3 -5.3 -63.05" fill="#ffffff" fill-rule="evenodd" stroke="none"/>
    <path d="M9.25 -100.2 L5.75 -100.1 2.65 -100.1 -0.2 -100.1 -3.85 -100.25 -7.25 -100.45 -11.0 -100.85 -12.8 -101.1 -14.25 -101.3 -14.6 -101.35 -16.6 -101.85 -17.6 -98.0 -13.2 -97.05 -11.4 -96.8 -7.3 -96.4 -3.55 -96.2 -0.2 -96.1 2.85 -96.05 6.1 -96.05 10.05 -96.15 14.55 -96.35 16.15 -96.45 Q22.85 -97.05 26.0 -98.0 L23.85 -102.2 22.2 -101.6 21.9 -101.55 21.45 -101.45 21.15 -101.4 18.45 -101.0 14.95 -100.55 13.35 -100.4 9.25 -100.2 M28.45 -98.05 Q34.4 -87.4 33.55 -79.5 32.9 -73.25 28.1 -68.7 L26.75 -67.5 23.75 -65.45 23.85 -64.9 24.7 -58.05 Q25.3 -52.75 26.45 -46.7 L26.7 -45.25 27.1 -43.3 27.05 -43.3 27.1 -43.2 28.9 -36.25 31.05 -29.25 32.4 -25.25 32.9 -23.65 33.75 -20.85 34.3 -19.0 32.8 -18.6 Q25.9 -16.8 17.85 -16.0 L14.5 -15.7 3.95 -15.35 -10.55 -16.05 -20.8 -17.65 -25.65 -18.8 -27.1 -19.25 -26.7 -21.1 -26.45 -22.35 -26.05 -23.95 -25.7 -25.6 -24.45 -31.25 -24.05 -33.35 -23.5 -36.25 -22.35 -43.3 -22.3 -43.3 -21.85 -47.8 -20.4 -62.65 -20.35 -63.35 -20.05 -66.3 -19.85 -74.35 -19.7 -83.0 -19.6 -89.35 Q-19.55 -93.75 -19.1 -97.95 L-18.3 -103.8 -18.15 -104.65 -17.45 -103.95 -16.95 -103.6 -16.8 -103.55 -16.7 -103.5 -16.25 -103.35 Q-14.75 -102.85 -11.75 -102.5 L-11.7 -102.5 4.9 -101.6 7.35 -101.65 8.85 -101.75 8.85 -101.7 14.15 -102.0 18.2 -102.5 18.25 -102.5 20.3 -102.8 21.8 -103.1 22.05 -103.15 23.05 -103.45 23.65 -103.9 24.3 -104.4 24.45 -104.6 27.05 -100.35 28.45 -98.05 M19.55 -95.3 L15.25 -94.9 13.0 -94.75 10.8 -94.65 8.2 -94.6 6.15 -94.55 Q-0.2 -94.55 -4.15 -94.7 L-7.25 -94.9 -13.85 -95.6 -15.6 -95.95 -17.7 -96.5 -17.7 -96.3 -18.05 -90.65 -18.1 -89.35 -18.25 -81.8 -18.55 -66.25 -18.85 -63.15 -18.85 -62.55 -19.85 -51.85 -20.3 -47.65 -20.75 -43.3 -20.8 -43.3 -21.6 -37.95 -21.9 -36.25 -22.45 -33.4 -22.5 -33.15 Q-23.2 -29.2 -24.15 -25.2 L-24.55 -23.55 -24.95 -22.05 -25.25 -20.7 -17.45 -19.0 -6.1 -17.65 3.95 -17.35 16.85 -17.9 20.15 -18.25 Q26.6 -19.05 32.25 -20.45 L31.4 -23.25 30.9 -24.9 29.65 -28.8 Q28.4 -32.3 27.3 -36.25 26.4 -39.5 25.65 -42.9 L25.55 -43.3 25.6 -43.3 25.3 -44.75 25.1 -45.8 Q23.85 -52.3 23.2 -57.85 L22.15 -65.6 22.15 -65.7 22.15 -65.8 22.1 -66.2 23.3 -66.95 26.35 -69.15 27.65 -70.35 Q31.5 -74.35 32.05 -79.65 32.75 -86.95 27.3 -96.85 L27.2 -97.0 24.55 -96.1 23.8 -95.95 22.05 -95.6 19.55 -95.3" fill="#464646" fill-rule="evenodd" stroke="none"/>
    <path d="M14.55 -60.5 Q15.6 -60.8 16.6 -61.4 L17.85 -62.15 18.3 -62.4 18.85 -61.25 Q20.45 -57.4 21.4 -51.4 22.3 -44.65 22.9 -41.4 L24.25 -31.45 Q24.7 -28.2 25.45 -25.6 L25.0 -25.15 Q17.3 -59.7 17.9 -55.2 18.15 -52.75 17.4 -52.8 L17.75 -44.6 20.7 -25.15 15.55 -43.6 17.2 -36.8 19.45 -24.1 Q6.8 -78.15 14.9 -22.4 L15.9 -14.15 Q16.65 -8.8 18.6 0.3 L16.0 0.4 Q15.3 -2.1 14.8 -5.25 L13.4 -12.65 10.3 -31.45 Q7.6 -47.7 7.1 -46.15 L8.6 -16.5 10.35 3.0 Q9.6 3.65 8.55 4.0 5.45 -18.1 3.9 -36.05 2.9 -47.9 2.35 -49.35 1.25 -52.45 -0.3 -52.45 -1.4 -52.45 -1.8 -52.05 -2.95 -51.0 -2.95 -47.3 L-2.45 -33.8 -1.75 -16.35 Q-1.3 -7.05 -1.4 2.25 L-1.6 1.95 Q-1.85 1.75 -1.75 1.95 L-2.5 1.95 -3.35 -32.45 -5.2 -44.3 -5.45 -15.25 Q-5.5 -7.35 -6.4 2.15 L-6.85 2.25 Q-7.45 2.4 -7.85 2.8 L-8.55 -22.65 Q-7.7 -36.9 -7.7 -40.05 -7.75 -49.2 -8.75 -53.6 -9.7 -53.05 -10.35 -50.15 L-12.1 -40.35 -12.55 -40.05 -16.15 -14.05 -16.6 -11.55 -17.15 -6.9 -17.6 -4.9 -18.7 -0.5 -21.1 -1.85 -14.95 -43.55 -14.95 -51.3 -15.25 -51.9 -16.05 -51.9 -16.85 -50.3 -17.1 -49.85 -17.15 -49.7 -17.75 -45.85 -18.35 -43.2 -19.3 -39.25 -21.7 -28.95 Q-23.2 -22.3 -22.9 -22.85 L-26.35 -6.05 -29.05 -7.95 Q-25.55 -22.2 -24.0 -29.75 L-20.65 -47.65 -20.4 -48.35 Q-17.8 -55.8 -15.25 -58.1 -12.75 -60.35 -13.2 -60.9 L-13.3 -61.3 -12.7 -61.85 -11.1 -61.75 -11.15 -60.85 Q-11.15 -58.4 -9.9 -57.55 -8.45 -56.6 -1.85 -55.05 2.5 -53.65 6.5 -55.05 10.3 -56.45 11.85 -57.35 14.55 -58.85 14.55 -60.5" fill="#b4b4b4" fill-rule="evenodd" stroke="none"/>
    <path d="M14.55 -60.5 Q14.55 -58.85 11.85 -57.35 10.3 -56.45 6.5 -55.05 2.5 -53.65 -1.85 -55.05 -8.45 -56.6 -9.9 -57.55 -11.15 -58.4 -11.15 -60.85 L-11.1 -61.75 -10.45 -61.45 -9.7 -61.1 -7.65 -60.85 Q-6.5 -59.25 -5.55 -58.4 6.95 -55.75 10.15 -59.5 10.95 -64.2 12.55 -62.7 L14.55 -60.5 M-19.3 -39.25 L-18.35 -43.2 -17.75 -45.85 -17.15 -49.7 -17.1 -49.85 -16.85 -50.3 -16.05 -51.9 -15.25 -51.9 -14.95 -51.3 -14.95 -43.55 -21.1 -1.85 -25.6 -4.3 -21.7 -26.45 -19.3 -39.25 M-12.1 -40.35 L-10.35 -50.15 Q-9.7 -53.05 -8.75 -53.6 -7.75 -49.2 -7.7 -40.05 -7.7 -36.9 -8.55 -22.65 L-7.85 2.8 Q-10.15 4.1 -12.0 4.1 L-14.45 3.6 -16.7 2.85 Q-17.35 2.5 -17.85 1.2 -14.7 -15.35 -13.65 -23.2 -12.9 -28.9 -12.1 -40.35 M-1.4 2.25 Q-1.3 -7.05 -1.75 -16.35 L-2.45 -33.8 -2.95 -47.3 Q-2.95 -51.0 -1.8 -52.05 -1.4 -52.45 -0.3 -52.45 1.25 -52.45 2.35 -49.35 2.9 -47.9 3.9 -36.05 5.45 -18.1 8.55 4.0 L-0.4 4.1 -1.4 2.25 M18.6 0.3 Q16.65 -8.8 15.9 -14.15 L14.9 -22.4 Q6.8 -78.15 19.45 -24.1 L20.3 -20.3 18.55 -22.65 Q17.9 -22.6 17.75 -22.15 17.55 -21.55 17.55 -18.7 17.55 -13.45 18.6 -9.25 L20.9 -0.15 18.6 0.3 M20.7 -25.15 L17.75 -44.6 17.4 -52.8 Q18.15 -52.75 17.9 -55.2 17.3 -59.7 25.0 -25.15 L25.45 -25.6 25.6 -26.6 27.5 -18.55 Q29.4 -10.3 29.6 -5.95 L26.3 -3.05 23.15 -14.7 Q20.75 -24.1 20.7 -25.15 M0.25 -43.15 L0.1 -41.55 Q0.1 -20.7 0.65 -17.05 L1.2 -15.1 1.8 -11.05 2.4 -4.45 Q2.5 -3.2 2.95 -1.3 L3.55 0.85 Q4.25 0.6 4.45 -0.3 L4.55 -2.7 3.7 -19.15 Q2.5 -36.9 0.55 -44.2 L0.25 -43.15 M25.8 -15.2 L26.35 -11.4 27.5 -8.3 27.95 -7.65 Q28.45 -7.1 28.9 -7.5 L27.85 -13.7 Q27.0 -18.6 25.7 -20.95 L25.5 -18.45 25.8 -15.2 M-9.2 -38.9 Q-12.5 -23.05 -14.4 -0.7 L-13.7 0.3 -13.35 0.6 Q-12.3 0.6 -11.6 -6.95 L-10.85 -17.6 -9.55 -27.0 Q-8.45 -35.85 -8.8 -38.0 L-9.2 -38.9" fill="#e0e0e0" fill-rule="evenodd" stroke="none"/>
    <path d="M-13.3 -61.3 L-13.2 -60.9 Q-12.75 -60.35 -15.25 -58.1 -17.8 -55.8 -20.4 -48.35 L-20.65 -47.65 -24.0 -29.75 Q-25.55 -22.2 -29.05 -7.95 L-29.9 -8.9 Q-29.75 -12.8 -25.9 -31.8 -20.85 -56.55 -19.1 -61.95 L-18.6 -63.1 Q-18.4 -62.65 -16.6 -62.3 L-14.3 -61.35 -13.6 -61.35 -13.3 -61.3 M-6.4 2.15 Q-5.5 -7.35 -5.45 -15.25 L-5.2 -44.3 -3.35 -32.45 -2.5 1.95 -6.4 2.15 M10.35 3.0 L8.6 -16.5 7.1 -46.15 Q7.6 -47.7 10.3 -31.45 L13.4 -12.65 14.8 -5.25 Q15.3 -2.1 16.0 0.4 L12.7 1.2 Q12.85 -1.65 11.65 -10.8 L10.55 -19.7 7.6 -39.6 7.5 -39.55 7.7 -37.35 Q7.8 -34.7 8.6 -27.45 9.65 -18.0 11.85 -0.65 11.85 0.35 11.45 1.3 L11.45 1.35 10.35 3.0 M25.45 -25.6 Q24.7 -28.2 24.25 -31.45 L22.9 -41.4 Q22.3 -44.65 21.4 -51.4 20.45 -57.4 18.85 -61.25 L18.3 -62.4 Q22.0 -64.45 22.35 -64.75 L23.7 -58.6 23.65 -58.65 Q31.8 -21.95 33.7 -16.15 L34.15 -15.1 30.2 -10.85 27.55 -21.95 22.2 -46.7 25.6 -26.6 25.45 -25.6" fill="#8a8a8a" fill-rule="evenodd" stroke="none"/>
    <path d="M-29.05 -7.95 L-26.35 -6.05 -22.9 -22.85 Q-23.2 -22.3 -21.7 -28.95 L-19.3 -39.25 -21.7 -26.45 -25.6 -4.3 -21.1 -1.85 -18.7 -0.5 -17.6 -4.9 -17.15 -6.9 -16.6 -11.55 -16.15 -14.05 -12.55 -40.05 -12.1 -40.35 Q-12.9 -28.9 -13.65 -23.2 -14.7 -15.35 -17.85 1.2 -17.35 2.5 -16.7 2.85 L-14.45 3.6 -12.0 4.1 Q-10.15 4.1 -7.85 2.8 -7.45 2.4 -6.85 2.25 L-6.4 2.15 -2.5 1.95 -1.75 1.95 Q-1.85 1.75 -1.6 1.95 L-1.4 2.25 -0.4 4.1 8.55 4.0 Q9.6 3.65 10.35 3.0 L11.45 1.35 11.45 1.3 Q11.85 0.35 11.85 -0.65 9.65 -18.0 8.6 -27.45 7.8 -34.7 7.7 -37.35 L7.5 -39.55 7.6 -39.6 10.55 -19.7 11.65 -10.8 Q12.85 -1.65 12.7 1.2 L16.0 0.4 18.6 0.3 20.9 -0.15 25.45 -1.65 20.3 -20.3 19.45 -24.1 17.2 -36.8 15.55 -43.6 20.7 -25.15 Q20.75 -24.1 23.15 -14.7 L26.3 -3.05 29.6 -5.95 Q29.4 -10.3 27.5 -18.55 L25.6 -26.6 22.2 -46.7 27.55 -21.95 30.2 -10.85 34.15 -15.1 33.7 -16.15 Q31.8 -21.95 23.65 -58.65 L23.7 -58.6 22.35 -64.75 Q22.5 -64.6 23.15 -64.75 L23.75 -64.95 Q30.15 -37.75 32.8 -27.4 35.45 -17.05 35.15 -15.2 34.85 -13.35 32.85 -11.6 L30.7 -9.8 Q30.55 -9.75 30.55 -9.45 L30.65 -6.25 Q30.45 -3.85 28.65 -2.55 L26.85 -1.45 Q26.1 0.2 24.05 1.05 L19.95 1.6 18.7 1.7 16.8 1.95 14.25 2.2 Q12.75 2.25 12.05 3.15 L10.95 4.45 Q10.25 4.95 8.4 5.15 L-0.8 5.5 -2.1 3.45 Q-7.25 3.45 -9.0 4.6 -10.75 5.7 -11.5 5.7 -12.75 5.7 -14.45 4.9 -17.2 3.65 -18.9 1.05 L-18.75 0.35 Q-19.8 0.25 -23.05 -1.35 -26.7 -3.1 -26.7 -4.1 -26.7 -4.75 -27.3 -5.25 L-28.65 -6.1 Q-29.4 -6.55 -30.0 -8.0 -30.6 -9.35 -30.6 -10.45 L-28.5 -22.4 -20.4 -63.3 -20.0 -63.3 -18.6 -63.1 -19.1 -61.95 Q-20.85 -56.55 -25.9 -31.8 -29.75 -12.8 -29.9 -8.9 L-29.05 -7.95" fill="#464646" fill-rule="evenodd" stroke="none"/>
    <path d="M20.9 -0.15 L18.6 -9.25 Q17.55 -13.45 17.55 -18.7 17.55 -21.55 17.75 -22.15 17.9 -22.6 18.55 -22.65 L20.3 -20.3 25.45 -1.65 20.9 -0.15 M0.25 -43.15 L0.55 -44.2 Q2.5 -36.9 3.7 -19.15 L4.55 -2.7 4.45 -0.3 Q4.25 0.6 3.55 0.85 L2.95 -1.3 Q2.5 -3.2 2.4 -4.45 L1.8 -11.05 1.2 -15.1 0.65 -17.05 Q0.1 -20.7 0.1 -41.55 L0.25 -43.15 M25.8 -15.2 L25.5 -18.45 25.7 -20.95 Q27.0 -18.6 27.85 -13.7 L28.9 -7.5 Q28.45 -7.1 27.95 -7.65 L27.5 -8.3 26.35 -11.4 25.8 -15.2 M-9.2 -38.9 L-8.8 -38.0 Q-8.45 -35.85 -9.55 -27.0 L-10.85 -17.6 -11.6 -6.95 Q-12.3 0.6 -13.35 0.6 L-13.7 0.3 -14.4 -0.7 Q-12.5 -23.05 -9.2 -38.9" fill="#ffffff" fill-rule="evenodd" stroke="none"/>
  </g>
</svg>
