<?xml version="1.0" encoding="UTF-8" standalone="no"?>
<svg xmlns:ffdec="https://www.free-decompiler.com/flash" xmlns:xlink="http://www.w3.org/1999/xlink" ffdec:objectType="shape" height="51.85px" width="17.25px" xmlns="http://www.w3.org/2000/svg">
  <g transform="matrix(1.0, 0.0, 0.0, 1.0, 20.05, 39.0)">
    <path d="M-6.25 0.3 L-6.95 0.4 -6.95 -3.85 -6.95 -4.35 -6.85 -14.9 -6.25 0.3 M-8.15 2.55 L-8.25 1.8 Q-8.25 1.2 -7.95 0.95 L-7.55 0.8 Q-7.75 2.6 -7.9 2.65 L-8.15 2.55" fill="#6e6e6e" fill-rule="evenodd" stroke="none"/>
    <path d="M-5.5 2.95 L-4.7 3.7 Q-4.2 4.75 -3.6 7.3 -2.8 10.35 -2.8 11.5 -2.8 12.2 -3.45 12.45 L-7.4 12.85 -8.45 12.85 Q-8.8 12.75 -8.8 12.1 L-8.45 4.85 Q-8.2 4.5 -7.65 4.5 L-8.4 3.1 Q-8.8 2.45 -8.8 1.85 L-7.5 -1.75 -7.5 -3.85 -7.5 -4.35 -7.2 -32.5 -7.15 -31.9 -7.2 -25.65 -7.2 -25.4 -7.2 -25.1 -6.85 -14.9 -6.95 -4.35 -6.95 -3.85 -6.95 0.4 -6.25 0.3 -6.25 0.7 -6.2 1.05 -7.05 1.15 -6.75 6.15 -5.4 6.05 -5.5 2.95 M-8.15 2.55 L-7.9 2.65 Q-7.75 2.6 -7.55 0.8 L-7.95 0.95 Q-8.25 1.2 -8.25 1.8 L-8.15 2.55 M-7.45 6.2 L-7.6 5.1 Q-7.95 7.45 -8.1 12.0 L-8.05 12.15 -7.4 12.2 Q-3.4 12.2 -3.4 11.25 L-3.8 8.45 Q-4.25 5.95 -4.8 5.1 -5.0 6.35 -5.55 7.05 L-6.4 7.9 -7.3 7.0 -7.45 6.2 M-6.8 10.95 L-7.25 10.25 -6.8 9.55 Q-6.4 9.25 -5.8 9.25 -5.2 9.25 -4.75 9.55 -4.35 9.85 -4.35 10.25 L-4.75 10.95 -5.8 11.25 -6.8 10.95" fill="#333333" fill-rule="evenodd" stroke="none"/>
    <path d="M-5.5 2.95 L-5.4 6.05 -6.75 6.15 -7.05 1.15 -6.2 1.05 Q-6.1 2.2 -5.5 2.95 M-6.8 10.95 L-5.8 11.25 -4.75 10.95 -4.35 10.25 Q-4.35 9.85 -4.75 9.55 -5.2 9.25 -5.8 9.25 -6.4 9.25 -6.8 9.55 L-7.25 10.25 -6.8 10.95 M-7.45 6.2 L-7.3 7.0 -6.4 7.9 -5.55 7.05 Q-5.0 6.35 -4.8 5.1 -4.25 5.95 -3.8 8.45 L-3.4 11.25 Q-3.4 12.2 -7.4 12.2 L-8.05 12.15 -8.1 12.0 Q-7.95 7.45 -7.6 5.1 L-7.45 6.2" fill="#8c8c8c" fill-rule="evenodd" stroke="none"/>
    <path d="M-19.95 -39.0 L-19.8 -39.0 -20.0 -37.55 -20.05 -37.55 -19.95 -39.0" fill="#471a5b" fill-rule="evenodd" stroke="none"/>
  </g>
</svg>
