<?xml version="1.0" encoding="UTF-8" standalone="no"?>
<svg xmlns:ffdec="https://www.free-decompiler.com/flash" xmlns:xlink="http://www.w3.org/1999/xlink" ffdec:objectType="shape" height="26.4px" width="28.7px" xmlns="http://www.w3.org/2000/svg">
  <g transform="matrix(1.0, 0.0, 0.0, 1.0, 11.95, 1.6)">
    <path d="M2.2 0.05 L6.05 -1.3 5.15 0.7 Q4.25 2.45 3.4 3.0 L2.8 2.45 Q2.3 1.65 2.2 0.05" fill="#e0e0e0" fill-rule="evenodd" stroke="none"/>
    <path d="M6.05 -1.3 L6.4 -1.6 7.7 -0.2 7.75 0.25 7.5 0.1 7.75 0.35 Q9.6 4.75 14.15 5.3 13.05 6.55 12.45 8.35 L11.75 10.7 11.65 12.85 11.65 13.9 Q11.1 13.7 10.6 13.65 8.05 13.35 7.05 15.25 6.0 17.1 3.1 19.4 1.7 20.45 0.25 22.45 L-0.15 21.1 Q-0.2 20.65 -0.75 19.85 -0.85 19.35 -1.25 19.35 L-1.45 19.4 -1.2 18.9 Q-0.5 17.65 -0.5 16.8 L-1.05 13.3 -1.5 11.9 Q-2.6 9.4 -5.05 8.85 L-5.9 8.65 -6.6 8.65 -6.75 8.65 -6.8 8.65 -6.7 8.3 Q-6.7 7.75 -8.85 5.9 L-9.6 5.3 Q-7.15 2.1 -5.05 1.1 -3.75 0.5 -2.35 0.35 L2.2 0.05 Q2.3 1.65 2.8 2.45 L3.4 3.0 Q4.25 2.45 5.15 0.7 L6.05 -1.3" fill="#b4b4b4" fill-rule="evenodd" stroke="none"/>
    <path d="M7.7 -0.2 L8.85 0.9 16.75 4.35 15.7 5.45 15.45 5.75 Q12.9 8.85 12.9 11.55 L13.15 14.5 13.15 14.65 13.25 15.8 12.2 15.1 Q9.85 13.55 7.25 16.4 L0.2 24.25 -0.3 24.8 -0.7 23.8 -1.9 20.25 -1.65 19.7 -1.45 19.4 -1.25 19.35 Q-0.85 19.35 -0.75 19.85 -0.2 20.65 -0.15 21.1 L0.25 22.45 Q1.7 20.45 3.1 19.4 6.0 17.1 7.05 15.25 8.05 13.35 10.6 13.65 11.1 13.7 11.65 13.9 L11.65 12.85 11.75 10.7 12.45 8.35 Q13.05 6.55 14.15 5.3 9.6 4.75 7.75 0.35 L7.5 0.1 7.75 0.25 7.7 -0.2 M-6.6 8.65 L-6.8 8.7 -7.1 8.75 -7.25 8.7 Q-8.2 8.7 -8.8 8.0 L-10.4 6.45 Q-11.1 5.95 -11.95 5.55 L-11.7 5.2 Q-8.5 0.85 -3.0 -0.75 L-2.3 -0.55 -2.35 0.35 Q-3.75 0.5 -5.05 1.1 -7.15 2.1 -9.6 5.3 L-8.85 5.9 Q-6.7 7.75 -6.7 8.3 L-6.8 8.65 -6.75 8.65 -6.6 8.65" fill="#464646" fill-rule="evenodd" stroke="none"/>
  </g>
</svg>
