<?xml version="1.0" encoding="UTF-8" standalone="no"?>
<svg xmlns:ffdec="https://www.free-decompiler.com/flash" xmlns:xlink="http://www.w3.org/1999/xlink" ffdec:objectType="shape" height="131.35px" width="61.3px" xmlns="http://www.w3.org/2000/svg">
  <g transform="matrix(1.0, 0.0, 0.0, 1.0, 28.3, 137.7)">
    <path d="M-8.45 -42.35 L-8.3 -42.3 -8.45 -42.15 -8.45 -42.35" fill="#59311e" fill-rule="evenodd" stroke="none"/>
    <path d="M14.5 -60.15 L14.6 -59.55 14.6 -59.3 14.55 -59.05 14.55 -59.1 14.5 -60.15" fill="#8b4d2e" fill-rule="evenodd" stroke="none"/>
    <path d="M2.25 -95.55 Q1.5 -86.6 1.1 -77.75 L1.75 -64.6 Q-0.5 -63.5 -2.15 -62.9 L-2.9 -77.65 -2.9 -77.85 Q-2.25 -92.3 -0.65 -106.95 L2.25 -107.5 Q2.0 -105.55 2.0 -101.65 2.0 -98.55 2.25 -95.55 M2.1 -57.35 L2.45 -50.25 2.4 -50.25 2.25 -50.15 2.45 -50.05 2.85 -42.05 -1.15 -42.3 -1.75 -55.0 1.45 -57.0 2.1 -57.35 M3.05 -38.35 L3.25 -34.35 3.25 -34.15 3.15 -31.4 Q1.0 -30.35 0.65 -28.3 L0.65 -25.75 2.95 -25.75 2.45 -12.5 -1.55 -12.85 -0.75 -34.2 -0.9 -37.55 3.05 -38.35 M-5.1 -104.15 L-5.75 -98.8 -5.75 -98.55 -5.8 -101.0 Q-5.75 -102.75 -5.3 -103.8 L-5.1 -104.15 M-8.25 -49.25 L-8.35 -45.6 Q-8.8 -46.45 -8.8 -47.45 -8.8 -48.3 -8.25 -49.25 M15.1 -47.05 L15.25 -44.0 14.25 -43.55 Q12.95 -43.05 11.3 -42.7 L11.05 -48.05 12.35 -47.8 15.1 -47.05 M15.4 -40.75 L15.7 -34.9 12.75 -33.8 11.75 -33.6 11.45 -40.2 15.4 -40.75 M16.05 -27.25 L16.55 -16.5 14.75 -15.0 Q14.45 -14.25 13.05 -13.65 L12.7 -13.5 12.1 -26.55 12.5 -26.65 16.05 -27.25 M10.7 -55.45 L10.4 -61.6 13.75 -62.9 13.75 -62.4 13.6 -61.75 14.1 -60.85 14.5 -60.15 14.55 -59.1 Q14.05 -57.7 10.7 -55.45" fill="#ffffff" fill-rule="evenodd" stroke="none"/>
    <path d="M3.9 -112.1 L2.25 -95.55 Q2.0 -98.55 2.0 -101.65 2.0 -105.55 2.25 -107.5 L-0.65 -106.95 -0.1 -111.95 3.9 -112.1 M1.75 -64.6 L2.1 -57.35 1.45 -57.0 -1.75 -55.0 -2.15 -62.9 Q-0.5 -63.5 1.75 -64.6 M2.45 -50.25 L2.45 -50.05 2.25 -50.15 2.4 -50.25 2.45 -50.25 M2.85 -42.05 L3.05 -38.35 -0.9 -37.55 -1.15 -42.3 2.85 -42.05 M3.15 -31.4 L2.95 -25.75 0.65 -25.75 0.65 -28.3 Q1.0 -30.35 3.15 -31.4 M2.45 -12.5 L2.3 -8.3 -1.7 -8.5 -1.55 -12.85 2.45 -12.5 M-4.05 -111.85 L-5.1 -104.15 -5.3 -103.8 Q-5.75 -102.75 -5.8 -101.0 L-5.75 -98.55 Q-6.75 -89.85 -7.25 -81.2 L-8.05 -55.95 Q-10.9 -56.7 -11.95 -57.8 L-12.0 -57.85 -11.25 -81.3 -11.25 -81.35 Q-10.4 -96.1 -8.2 -111.05 L-8.0 -111.3 -4.05 -111.85 M-8.1 -54.35 L-8.25 -49.25 Q-8.8 -48.3 -8.8 -47.45 -8.8 -46.45 -8.35 -45.6 L-8.45 -42.35 Q-10.75 -43.35 -12.4 -45.5 L-12.2 -51.7 -10.5 -52.9 -8.1 -54.35 M-8.45 -42.15 L-8.7 -35.7 -8.7 -35.5 -11.55 -9.85 -12.75 -10.25 Q-13.65 -10.65 -13.9 -11.7 L-14.0 -13.15 Q-14.0 -14.8 -12.55 -21.75 L-11.55 -27.55 -11.9 -28.5 Q-11.9 -29.4 -11.5 -30.05 L-13.25 -30.7 -12.55 -40.2 -10.35 -40.7 -8.45 -42.15 M25.6 -89.05 Q25.4 -92.35 23.6 -99.15 L21.6 -106.65 Q21.6 -108.4 22.65 -107.5 23.6 -106.7 24.0 -105.55 L25.5 -102.0 26.6 -98.4 27.5 -94.75 29.7 -87.25 Q30.85 -83.4 30.85 -80.1 30.85 -78.7 29.35 -73.9 L28.7 -71.9 Q28.0 -78.15 26.75 -84.75 L26.8 -84.6 25.6 -89.05 M25.15 -51.1 L26.25 -43.9 26.25 -43.95 30.25 -23.3 Q29.1 -27.2 27.05 -38.5 25.1 -49.15 25.1 -50.55 L25.15 -51.1 M22.85 -40.3 L22.3 -43.2 22.3 -43.3 22.15 -44.3 Q22.7 -43.7 22.85 -42.3 L22.85 -40.3 M21.55 -48.15 L21.3 -49.95 22.5 -49.5 21.55 -48.15 M20.5 -55.1 L18.65 -67.55 19.25 -67.55 Q21.0 -63.0 21.0 -58.5 21.0 -56.2 20.5 -55.1 M14.15 -66.65 L14.5 -60.15 14.1 -60.85 13.6 -61.75 13.75 -62.4 13.75 -62.9 10.4 -61.6 9.7 -76.7 Q11.1 -73.3 12.6 -71.45 L13.75 -70.25 12.35 -66.25 14.15 -66.65 M14.55 -59.05 L14.9 -51.45 14.35 -51.25 14.25 -51.05 14.95 -50.9 15.1 -47.05 12.35 -47.8 11.05 -48.05 10.7 -55.45 Q14.05 -57.7 14.55 -59.1 L14.55 -59.05 M15.25 -44.0 L15.4 -40.75 11.45 -40.2 11.3 -42.7 Q12.95 -43.05 14.25 -43.55 L15.25 -44.0 M15.7 -34.9 L15.95 -29.8 14.25 -28.85 15.95 -29.45 16.05 -27.25 12.5 -26.65 12.1 -26.55 11.75 -33.6 12.75 -33.8 15.7 -34.9 M16.55 -16.5 L16.85 -10.5 Q15.25 -9.6 12.95 -9.0 L12.7 -13.5 13.05 -13.65 Q14.45 -14.25 14.75 -15.0 L16.55 -16.5" fill="#e0e0e0" fill-rule="evenodd" stroke="none"/>
    <path d="M-12.8 -126.45 Q-8.05 -136.0 0.75 -136.2 5.0 -136.25 8.35 -134.05 10.05 -132.95 11.85 -130.35 L5.7 -125.5 3.9 -112.1 -0.1 -111.95 1.65 -125.6 -2.5 -125.85 Q-2.65 -121.05 -4.05 -111.9 L-4.05 -111.85 -8.0 -111.3 -8.2 -111.05 Q-6.8 -120.65 -5.6 -125.85 L-9.15 -126.1 Q-14.05 -106.5 -16.4 -83.3 -16.6 -60.0 -19.7 -37.7 L-19.7 -37.65 -24.4 -8.6 -25.95 -8.9 -25.9 -8.9 -28.3 -9.55 -23.65 -38.3 -23.65 -38.25 Q-20.6 -60.4 -20.4 -83.5 L-20.4 -83.7 Q-18.5 -102.65 -14.35 -122.05 L-14.35 -122.1 -13.0 -125.95 -12.8 -126.45 M2.3 -8.3 L2.25 -6.4 -1.75 -6.35 -1.7 -8.5 2.3 -8.3 M-8.05 -55.95 L-8.1 -54.35 -10.5 -52.9 -12.2 -51.7 -12.0 -57.85 -11.95 -57.8 Q-10.9 -56.7 -8.05 -55.95 M-11.55 -9.85 L-11.9 -6.75 -15.9 -7.1 -13.25 -30.7 -11.5 -30.05 Q-11.9 -29.4 -11.9 -28.5 L-11.55 -27.55 -12.55 -21.75 Q-14.0 -14.8 -14.0 -13.15 L-13.9 -11.7 Q-13.65 -10.65 -12.75 -10.25 L-11.55 -9.85 M-12.55 -40.2 L-12.4 -45.5 Q-10.75 -43.35 -8.45 -42.35 L-8.45 -42.15 -10.35 -40.7 -12.55 -40.2 M28.7 -71.9 L29.35 -73.9 Q30.85 -78.7 30.85 -80.1 30.85 -83.4 29.7 -87.25 L27.5 -94.75 26.6 -98.4 25.5 -102.0 24.0 -105.55 Q23.6 -106.7 22.65 -107.5 21.6 -108.4 21.6 -106.65 L23.6 -99.15 Q25.4 -92.35 25.6 -89.05 L17.15 -120.45 Q20.1 -114.6 24.9 -106.9 L30.65 -85.65 30.7 -85.5 Q32.2 -77.45 32.9 -69.9 L31.6 -68.1 Q30.2 -66.4 29.3 -64.5 L28.7 -71.85 28.7 -71.9 M18.65 -67.55 L18.25 -70.25 Q20.2 -72.15 21.0 -78.25 L21.05 -78.6 25.15 -51.1 25.1 -50.55 Q25.1 -49.15 27.05 -38.5 29.1 -27.2 30.25 -23.3 L33.0 -9.35 30.9 -8.6 28.8 -10.15 22.85 -40.3 22.85 -42.3 Q22.7 -43.7 22.15 -44.3 L21.55 -48.15 22.5 -49.5 21.3 -49.95 20.5 -55.1 Q21.0 -56.2 21.0 -58.5 21.0 -63.0 19.25 -67.55 L18.65 -67.55 M13.75 -70.25 L14.0 -70.05 14.15 -66.65 12.35 -66.25 13.75 -70.25 M14.9 -51.45 L14.95 -50.9 14.25 -51.05 14.35 -51.25 14.9 -51.45 M15.95 -29.8 L15.95 -29.45 14.25 -28.85 15.95 -29.8 M16.85 -10.5 L16.95 -8.2 15.9 -7.1 13.05 -6.9 12.95 -9.0 Q15.25 -9.6 16.85 -10.5" fill="#b4b4b4" fill-rule="evenodd" stroke="none"/>
    <path d="M-12.8 -126.45 L-13.45 -126.2 -12.65 -129.7 Q-7.65 -137.6 0.75 -137.7 5.4 -137.75 9.15 -135.3 11.3 -133.95 13.65 -130.35 L11.85 -130.35 Q10.05 -132.95 8.35 -134.05 5.0 -136.25 0.75 -136.2 -8.05 -136.0 -12.8 -126.45" fill="#464646" fill-rule="evenodd" stroke="none"/>
  </g>
</svg>
