<?xml version="1.0" encoding="UTF-8" standalone="no"?>
<svg xmlns:ffdec="https://www.free-decompiler.com/flash" xmlns:xlink="http://www.w3.org/1999/xlink" ffdec:objectType="shape" height="8.2px" width="10.75px" xmlns="http://www.w3.org/2000/svg">
  <g transform="matrix(1.0, 0.0, 0.0, 1.0, -8.25, -6.35)">
    <path d="M18.25 12.5 Q17.5 13.3 16.1 13.85 14.3 14.55 12.55 14.55 9.8 14.55 8.25 13.4 L9.4 10.0 Q10.1 7.8 11.5 7.25 L13.55 10.05 Q15.95 12.7 18.25 12.5" fill="#989898" fill-rule="evenodd" stroke="none"/>
    <path d="M8.25 13.4 Q8.95 6.35 11.3 6.35 12.2 6.35 12.5 6.9 L12.9 8.2 Q13.8 10.5 18.9 12.5 19.3 12.85 18.25 12.5 15.95 12.7 13.55 10.05 L11.5 7.25 Q10.1 7.8 9.4 10.0 L8.25 13.4" fill="#606060" fill-rule="evenodd" stroke="none"/>
  </g>
</svg>
