<?xml version="1.0" encoding="UTF-8" standalone="no"?>
<svg xmlns:ffdec="https://www.free-decompiler.com/flash" xmlns:xlink="http://www.w3.org/1999/xlink" ffdec:objectType="shape" height="72.15px" width="58.0px" xmlns="http://www.w3.org/2000/svg">
  <g transform="matrix(1.0, 0.0, 0.0, 1.0, 29.0, 36.05)">
    <path d="M6.95 -34.55 L6.55 -34.35 3.45 -35.15 M19.85 -28.25 Q19.45 -30.3 18.15 -31.85 M15.05 -34.15 L14.25 -34.5 14.2 -34.55 Q12.6 -35.2 11.05 -35.3 M24.6 -0.15 Q26.15 -1.55 27.05 -3.25 M28.2 -7.15 Q28.4 -9.0 28.05 -11.1 M26.95 -14.95 Q26.05 -16.7 24.65 -18.15 M21.35 -20.85 L20.3 -21.8 Q19.95 -23.1 19.9 -24.35 M-26.15 -3.25 L-24.4 -1.1 -24.6 0.2 M-28.25 -10.6 L-28.25 -10.0 -27.75 -6.8 M-25.65 -18.15 Q-26.95 -16.45 -27.6 -14.55 M-19.95 -23.35 Q-21.6 -22.3 -23.05 -21.0 M-12.65 -26.4 L-16.5 -25.2 M-6.95 -31.45 L-9.6 -28.4 M-24.7 4.2 L-24.35 6.9 -24.15 8.4 M-24.4 12.5 L-25.35 15.25 -25.35 15.3 -25.75 16.3 M-25.9 20.2 L-25.2 21.8 -25.2 21.75 -24.15 23.65 M-9.0 34.6 L-5.0 35.1 M-16.4 32.35 Q-14.7 33.3 -12.75 33.9 M-22.05 26.95 L-19.6 29.9 M23.9 7.6 L24.45 3.6 M26.8 14.8 Q26.3 12.9 24.85 11.25 M25.55 22.7 L26.55 19.7 26.8 18.75 M21.7 29.25 Q23.05 27.85 24.05 26.05 M14.85 33.4 Q16.85 32.75 18.5 31.75 M7.0 34.95 L11.0 34.3 M-1.0 35.35 L3.0 35.3 M0.05 -34.95 Q-1.95 -34.6 -3.75 -33.65" fill="none" stroke="#5fc5c9" stroke-linecap="round" stroke-linejoin="round" stroke-width="1.5"/>
  </g>
</svg>
