<?xml version="1.0" encoding="UTF-8" standalone="no"?>
<svg xmlns:ffdec="https://www.free-decompiler.com/flash" xmlns:xlink="http://www.w3.org/1999/xlink" ffdec:objectType="shape" height="5.15px" width="39.3px" xmlns="http://www.w3.org/2000/svg">
  <g transform="matrix(1.0, 0.0, 0.0, 1.0, 8.8, 16.8)">
    <path d="M29.15 -15.05 L29.2 -14.7 25.1 -15.25 20.15 -15.65 15.7 -14.9 13.45 -14.4 13.45 -14.85 Q19.55 -17.0 22.8 -16.8 24.7 -16.75 29.15 -15.05 M8.3 -14.0 L8.2 -13.6 6.0 -14.0 1.55 -14.7 -3.45 -14.15 -7.5 -13.6 -7.45 -13.9 Q-3.05 -15.75 -1.2 -15.8 2.1 -16.05 8.3 -14.0" fill="#462809" fill-rule="evenodd" stroke="none"/>
    <path d="M13.45 -14.85 L13.45 -14.4 15.7 -14.9 20.15 -15.65 25.1 -15.25 29.2 -14.7 29.15 -15.05 29.75 -14.4 30.5 -12.85 Q29.2 -14.0 25.6 -14.8 L22.2 -15.3 20.75 -15.0 18.65 -14.8 16.95 -14.2 16.0 -14.1 Q14.75 -13.95 12.85 -13.1 12.6 -13.45 12.7 -13.9 L13.45 -14.85 M8.3 -14.0 L8.95 -13.1 Q9.15 -12.65 8.9 -12.3 L5.7 -13.25 4.75 -13.3 3.0 -13.9 0.95 -14.05 -0.55 -14.3 -3.9 -13.75 Q-7.5 -12.9 -8.8 -11.7 -8.6 -12.5 -8.0 -13.3 L-7.45 -13.9 -7.5 -13.6 -3.45 -14.15 1.55 -14.7 6.0 -14.0 8.2 -13.6 8.3 -14.0" fill="#392108" fill-rule="evenodd" stroke="none"/>
    <path d="M12.85 -13.1 Q14.75 -13.95 16.0 -14.1 L16.95 -14.2 18.65 -14.8 20.75 -15.0 22.2 -15.3 25.6 -14.8 Q29.2 -14.0 30.5 -12.85 29.75 -12.6 26.95 -13.55 23.9 -14.55 20.8 -14.0 L15.6 -13.0 12.85 -13.1 M-8.8 -11.7 Q-7.5 -12.9 -3.9 -13.75 L-0.55 -14.3 0.95 -14.05 3.0 -13.9 4.75 -13.3 5.7 -13.25 8.9 -12.3 6.1 -12.1 0.9 -13.05 Q-2.2 -13.5 -5.25 -12.45 -8.05 -11.45 -8.8 -11.7" fill="#2a1805" fill-rule="evenodd" stroke="none"/>
  </g>
</svg>
