<?xml version="1.0" encoding="UTF-8" standalone="no"?>
<svg xmlns:ffdec="https://www.free-decompiler.com/flash" xmlns:xlink="http://www.w3.org/1999/xlink" ffdec:objectType="shape" height="15.2px" width="38.6px" xmlns="http://www.w3.org/2000/svg">
  <g transform="matrix(1.0, 0.0, 0.0, 1.0, 8.65, 26.25)">
    <path d="M0.55 -26.15 L0.9 -25.9 Q0.6 -25.4 -0.8 -24.35 -2.3 -23.15 -3.95 -21.15 -5.0 -19.9 -6.45 -16.85 L-8.4 -13.25 -8.65 -13.45 Q-7.5 -18.1 -6.45 -19.65 -4.7 -22.4 0.55 -26.15 M15.75 -24.4 Q22.15 -23.4 24.95 -21.7 26.6 -20.7 29.65 -17.1 L29.5 -16.75 26.2 -19.15 22.05 -21.95 Q19.65 -23.0 17.8 -23.35 16.1 -23.7 15.6 -24.0 L15.75 -24.4" fill="#462809" fill-rule="evenodd" stroke="none"/>
    <path d="M-8.65 -13.45 L-8.4 -13.25 -6.45 -16.85 Q-5.0 -19.9 -3.95 -21.15 -2.3 -23.15 -0.8 -24.35 0.6 -25.4 0.9 -25.9 L0.55 -26.15 1.75 -26.2 2.35 -25.65 -0.3 -23.65 -0.95 -22.9 -2.45 -21.9 -3.75 -20.25 Q-4.45 -19.4 -4.85 -19.3 L-6.4 -16.2 Q-7.85 -12.8 -7.65 -11.05 L-8.5 -12.6 -8.65 -13.45 M29.8 -14.5 Q29.25 -16.15 26.4 -18.55 L23.65 -20.6 Q23.25 -20.55 22.25 -21.0 L20.35 -21.85 18.55 -22.15 Q18.4 -22.15 17.7 -22.55 L14.4 -23.2 Q14.35 -23.6 14.75 -23.95 15.15 -24.3 15.75 -24.4 L15.6 -24.0 Q16.1 -23.7 17.8 -23.35 19.65 -23.0 22.05 -21.95 L26.2 -19.15 29.5 -16.75 29.65 -17.1 29.9 -16.25 Q30.05 -15.3 29.8 -14.5" fill="#392108" fill-rule="evenodd" stroke="none"/>
    <path d="M-7.65 -11.05 Q-7.85 -12.8 -6.4 -16.2 L-4.85 -19.3 Q-4.45 -19.4 -3.75 -20.25 L-2.45 -21.9 -0.95 -22.9 -0.3 -23.65 2.35 -25.65 Q2.15 -24.65 0.85 -23.35 L-2.95 -19.65 Q-5.25 -17.45 -6.15 -14.4 -7.0 -11.55 -7.65 -11.05 M29.8 -14.5 Q29.1 -14.65 27.0 -16.85 24.85 -19.15 21.85 -20.15 L16.8 -21.7 Q15.05 -22.35 14.4 -23.2 L17.7 -22.55 Q18.4 -22.15 18.55 -22.15 L20.35 -21.85 22.25 -21.0 Q23.25 -20.55 23.65 -20.6 L26.4 -18.55 Q29.25 -16.15 29.8 -14.5" fill="#2a1805" fill-rule="evenodd" stroke="none"/>
  </g>
</svg>
