<?xml version="1.0" encoding="UTF-8" standalone="no"?>
<svg xmlns:ffdec="https://www.free-decompiler.com/flash" xmlns:xlink="http://www.w3.org/1999/xlink" ffdec:objectType="shape" height="126.25px" width="76.6px" xmlns="http://www.w3.org/2000/svg">
  <g transform="matrix(1.0, 0.0, 0.0, 1.0, 34.85, 135.85)">
    <path d="M17.6 -107.85 Q20.45 -96.9 21.8 -90.35 31.0 -60.25 37.25 -32.35 L39.8 -20.55 39.95 -19.65 41.75 -9.6 -34.85 -9.6 -34.0 -16.0 -33.3 -19.65 -33.15 -20.55 -32.65 -23.8 -21.2 -76.15 Q-14.8 -105.6 -13.4 -113.3 -11.3 -124.85 -9.8 -128.55 -6.8 -135.85 -0.7 -135.85 4.6 -135.85 7.7 -132.5 10.8 -129.2 12.75 -124.0 14.7 -118.85 17.6 -107.85" fill="#ff0000" fill-opacity="0.0" fill-rule="evenodd" stroke="none"/>
  </g>
</svg>
