<?xml version="1.0" encoding="UTF-8" standalone="no"?>
<svg xmlns:ffdec="https://www.free-decompiler.com/flash" xmlns:xlink="http://www.w3.org/1999/xlink" ffdec:objectType="shape" height="80.05px" width="85.55px" xmlns="http://www.w3.org/2000/svg">
  <g transform="matrix(1.0, 0.0, 0.0, 1.0, 46.15, 63.05)">
    <path d="M-25.0 -58.8 L-25.0 -58.75 Q-39.05 -56.6 -39.05 -51.3 -39.0 -50.6 -38.5 -50.05 L-36.5 -50.05 -33.3 -51.0 Q-31.15 -51.5 -30.65 -52.0 -20.45 -55.9 0.3 -52.25 L2.6 -52.25 3.1 -52.05 6.25 -50.95 Q9.8 -49.8 11.35 -49.8 12.25 -49.8 12.5 -50.2 L12.6 -51.0 Q12.6 -53.0 2.7 -55.4 -4.6 -57.2 -15.25 -58.8 L-25.0 -58.8 M13.3 -54.75 L14.75 -53.65 Q17.85 -51.35 17.85 -50.75 17.85 -49.0 14.5 -48.2 L13.3 -47.9 7.05 -49.7 -7.05 -50.5 -6.95 -50.1 -6.5 -49.55 -5.25 -49.35 5.35 -47.3 Q10.05 -46.15 10.9 -44.9 L10.6 -44.75 -0.4 -44.75 -0.75 -44.8 -9.7 -44.8 Q-19.8 -45.8 -26.65 -45.25 -39.0 -44.3 -42.05 -41.3 L-41.6 -41.7 Q-41.65 -42.8 -41.85 -43.45 L-39.9 -47.0 -35.05 -50.0 Q-38.7 -49.2 -38.05 -49.1 -38.9 -48.9 -40.6 -47.9 L-40.4 -48.05 Q-40.8 -48.45 -40.95 -49.2 L-41.05 -51.35 -40.55 -53.55 Q-40.45 -53.9 -40.65 -54.35 L-39.15 -56.15 -39.15 -56.2 Q-36.65 -59.25 -23.35 -61.2 -10.4 -63.05 13.3 -54.75 M34.6 -40.05 L34.4 -39.0 34.0 -38.8 31.75 -40.2 Q30.6 -41.05 30.6 -42.0 30.6 -43.95 32.6 -42.65 34.6 -41.3 34.6 -40.05 M18.3 -43.7 L18.35 -43.75 Q18.2 -44.4 18.2 -45.0 L18.15 -45.0 18.6 -47.45 Q20.0 -48.95 22.1 -48.05 L25.8 -46.75 Q27.1 -46.45 27.15 -43.95 27.3 -41.55 26.4 -38.6 L26.25 -38.15 Q25.75 -36.85 24.8 -36.4 L22.7 -36.35 Q20.45 -37.05 19.05 -38.1 L18.4 -38.65 Q17.65 -39.45 17.3 -40.4 16.95 -41.45 16.9 -42.65 L16.9 -43.45 17.2 -42.75 17.9 -41.7 18.2 -40.2 Q18.4 -39.55 18.7 -39.65 L19.25 -39.2 19.45 -39.0 19.5 -38.95 Q20.1 -38.2 21.35 -38.45 21.95 -38.5 22.15 -38.75 L22.3 -39.15 22.15 -39.3 20.2 -40.95 20.0 -41.1 19.7 -41.25 19.35 -41.75 Q18.75 -42.3 18.55 -42.95 L18.55 -43.0 18.3 -43.65 18.25 -43.7 18.3 -43.7 M22.95 -49.6 L24.5 -49.0 Q25.5 -48.45 25.55 -48.05 L25.4 -47.8 23.8 -48.1 22.5 -49.05 22.5 -49.45 22.95 -49.6 M25.45 -42.55 L24.5 -44.75 22.95 -44.5 Q20.7 -44.25 19.85 -43.65 20.0 -42.8 20.45 -42.05 21.2 -40.8 22.35 -40.0 24.1 -39.35 25.05 -40.0 26.1 -40.65 25.45 -42.55 M15.85 0.85 L15.95 0.5 15.95 -8.0 16.25 -11.55 16.7 -15.15 16.7 -25.15 16.8 -25.35 16.8 -33.6 17.25 -33.65 17.75 -33.55 18.25 -33.4 19.1 -33.05 19.35 -32.95 Q22.6 -32.05 24.25 -32.1 L24.9 -24.35 Q25.05 -20.45 26.85 -9.1 L28.65 2.2 Q28.65 2.7 28.15 2.7 25.5 2.7 24.4 -0.05 23.85 -1.45 23.8 -2.95 L23.8 -10.0 Q23.45 -11.45 23.15 -14.2 L23.15 -7.2 22.5 -2.7 22.05 -1.1 21.7 -0.25 Q20.3 2.65 16.7 4.7 L15.8 4.7 15.85 0.85 M23.15 -24.9 L23.15 -29.1 Q23.15 -30.5 22.85 -31.15 L20.7 -31.65 19.25 -31.75 18.05 -31.6 18.05 -14.25 17.75 -10.55 17.55 -6.85 17.0 -3.4 16.55 0.7 16.65 2.25 16.9 2.3 Q17.6 2.3 19.05 -0.1 L20.9 -3.6 21.2 -4.4 21.95 -7.8 22.15 -9.8 22.15 -15.4 Q22.9 -17.6 23.05 -20.2 L23.15 -24.9 M34.35 -36.5 L34.25 -36.05 Q34.15 -35.8 33.75 -35.8 32.7 -35.8 31.65 -36.9 L30.85 -37.9 Q30.85 -39.9 34.35 -36.5 M36.75 8.7 Q36.8 9.35 36.4 9.35 L35.1 9.1 34.75 9.1 29.25 8.1 Q28.6 9.3 27.0 10.8 L25.25 12.25 Q24.65 12.25 24.45 10.55 L24.35 8.85 Q24.35 7.4 24.75 5.55 L32.0 6.0 31.15 3.0 29.7 -13.3 29.1 -17.1 Q28.6 -20.35 28.6 -21.25 L28.4 -25.8 33.8 -2.65 34.7 1.65 34.8 1.95 36.75 8.7 M27.15 -0.4 L26.4 -5.25 25.55 -10.05 Q25.2 -11.45 24.9 -14.95 L24.85 -17.4 Q24.65 -18.75 23.85 -19.35 L23.55 -14.1 23.85 -10.35 24.3 -6.9 25.25 -3.25 Q25.45 -1.85 26.85 0.3 27.1 0.3 27.15 0.15 L27.15 -0.4 M-21.0 -52.3 L-21.0 -52.25 -25.15 -51.45 Q-26.05 -51.3 -26.05 -50.8 L-26.05 -50.75 -22.9 -51.1 -20.9 -51.0 -13.05 -51.7 Q-13.35 -51.75 -13.3 -51.8 L-14.0 -52.3 -21.0 -52.3 M-24.0 -49.55 L-24.0 -49.5 Q-30.1 -49.35 -35.5 -47.5 -40.3 -45.9 -40.3 -44.8 L-40.25 -44.35 -40.25 -44.4 -39.95 -44.15 -39.35 -44.05 -31.6 -45.55 -22.65 -47.5 -14.0 -47.55 Q-13.3 -47.75 -13.3 -48.4 -13.3 -48.9 -14.05 -49.15 L-15.5 -49.55 -24.0 -49.55 M-42.55 -46.9 L-42.4 -46.6 -42.45 -46.4 -42.55 -46.9 M-43.6 -39.1 L-43.95 -38.55 -44.15 -39.65 -44.0 -38.75 -43.9 -38.65 -43.6 -39.1 M-0.55 -46.5 Q-1.1 -47.65 -3.05 -47.75 L-8.3 -47.7 Q-8.8 -47.65 -8.8 -47.15 -9.25 -46.8 -8.55 -46.45 L-1.25 -45.8 -0.75 -46.1 -0.55 -46.5" fill="#b4b4b4" fill-rule="evenodd" stroke="none"/>
    <path d="M-25.0 -58.8 L-15.25 -58.8 Q-4.6 -57.2 2.7 -55.4 12.6 -53.0 12.6 -51.0 L12.5 -50.2 Q12.25 -49.8 11.35 -49.8 9.8 -49.8 6.25 -50.95 L3.1 -52.05 2.6 -52.25 0.3 -52.25 Q-20.45 -55.9 -30.65 -52.0 -31.15 -51.5 -33.3 -51.0 L-36.5 -50.05 -38.5 -50.05 Q-39.0 -50.6 -39.05 -51.3 -39.05 -56.6 -25.0 -58.75 L-25.0 -58.8 M25.45 -42.55 Q26.1 -40.65 25.05 -40.0 24.1 -39.35 22.35 -40.0 21.2 -40.8 20.45 -42.05 20.0 -42.8 19.85 -43.65 20.7 -44.25 22.95 -44.5 L24.5 -44.75 25.45 -42.55 M23.15 -24.9 L23.05 -20.2 Q22.9 -17.6 22.15 -15.4 L22.15 -9.8 21.95 -7.8 21.2 -4.4 20.9 -3.6 19.05 -0.1 Q17.6 2.3 16.9 2.3 L16.65 2.25 16.55 0.7 17.0 -3.4 17.55 -6.85 17.75 -10.55 18.05 -14.25 18.05 -31.6 19.25 -31.75 20.7 -31.65 22.85 -31.15 Q23.15 -30.5 23.15 -29.1 L23.15 -24.9 M21.5 -29.55 Q20.15 -29.9 19.55 -29.2 19.1 -28.8 19.0 -27.95 L19.05 -24.15 19.0 -23.05 19.0 -20.75 19.05 -18.55 19.05 -14.4 19.0 -12.25 Q19.0 -10.95 19.45 -10.3 L20.05 -14.1 20.75 -18.45 22.05 -27.95 Q22.05 -29.4 21.5 -29.55 M27.15 -0.4 L27.15 0.15 Q27.1 0.3 26.85 0.3 25.45 -1.85 25.25 -3.25 L24.3 -6.9 23.85 -10.35 23.55 -14.1 23.85 -19.35 Q24.65 -18.75 24.85 -17.4 L24.9 -14.95 Q25.2 -11.45 25.55 -10.05 L26.4 -5.25 27.15 -0.4 M-28.25 -57.05 Q-29.25 -57.0 -32.2 -55.4 -35.3 -53.75 -35.3 -52.9 L-35.25 -52.25 -34.35 -52.05 -32.7 -52.35 Q-32.35 -52.45 -30.75 -53.25 L-25.8 -53.8 Q-21.2 -54.2 -20.15 -54.75 L-12.0 -54.8 -11.3 -55.55 Q-11.7 -56.0 -14.0 -56.5 L-16.75 -57.05 -28.25 -57.05 M-0.05 -54.55 Q-0.95 -55.6 -4.1 -55.9 L-8.5 -56.0 -8.55 -55.2 Q-8.55 -54.65 -8.35 -54.45 -8.0 -54.1 -6.75 -53.8 L-0.75 -53.8 -0.05 -54.55 M-24.0 -49.55 L-15.5 -49.55 -14.05 -49.15 Q-13.3 -48.9 -13.3 -48.4 -13.3 -47.75 -14.0 -47.55 L-22.65 -47.5 -31.6 -45.55 -39.35 -44.05 -39.95 -44.15 -40.25 -44.4 -40.25 -44.35 -40.3 -44.8 Q-40.3 -45.9 -35.5 -47.5 -30.1 -49.35 -24.0 -49.5 L-24.0 -49.55 M-0.55 -46.5 L-0.75 -46.1 -1.25 -45.8 -8.55 -46.45 Q-9.25 -46.8 -8.8 -47.15 -8.8 -47.65 -8.3 -47.7 L-3.05 -47.75 Q-1.1 -47.65 -0.55 -46.5 M-27.75 -48.0 Q-34.3 -48.15 -34.3 -46.65 L-34.15 -46.05 -33.75 -45.8 -29.05 -46.65 Q-27.55 -46.9 -27.55 -47.5 L-27.65 -47.9 -27.75 -48.0" fill="#e0e0e0" fill-rule="evenodd" stroke="none"/>
    <path d="M-9.7 -44.8 L-0.75 -44.8 -0.4 -44.75 10.6 -44.75 10.9 -44.9 Q10.05 -46.15 5.35 -47.3 L-5.25 -49.35 -6.5 -49.55 -6.95 -50.1 -7.05 -50.5 7.05 -49.7 13.3 -47.9 14.5 -48.2 Q17.85 -49.0 17.85 -50.75 17.85 -51.35 14.75 -53.65 L13.3 -54.75 13.25 -54.75 13.9 -54.5 15.8 -53.85 17.7 -53.15 Q17.95 -53.05 18.3 -52.9 L21.25 -51.65 Q19.15 -51.0 17.1 -48.5 14.7 -45.55 14.55 -41.9 L14.55 -41.0 12.4 -41.4 1.75 -43.3 -9.7 -44.8 M-40.65 -54.35 Q-40.45 -53.9 -40.55 -53.55 L-41.05 -51.35 -40.95 -49.2 Q-40.8 -48.45 -40.4 -48.05 L-40.6 -47.9 -42.0 -47.1 -42.05 -47.05 -42.1 -47.0 -42.25 -46.95 -42.4 -46.55 -42.4 -46.6 -42.55 -46.9 Q-42.8 -48.4 -42.55 -49.85 L-41.35 -53.25 -40.65 -54.35 M-39.9 -47.0 L-41.85 -43.45 Q-41.65 -42.8 -41.6 -41.7 L-42.05 -41.3 -42.6 -40.6 -42.65 -40.55 -43.6 -39.1 -43.9 -38.65 -44.0 -38.75 -44.15 -39.65 -42.95 -44.75 -42.9 -44.8 -42.75 -45.0 -39.9 -47.0 M28.3 -43.7 Q28.55 -40.4 27.15 -37.9 L26.8 -37.35 26.45 -36.85 25.9 -36.25 24.9 -35.5 Q23.6 -34.75 21.95 -34.85 18.95 -35.0 17.15 -36.95 L16.25 -38.15 16.1 -38.45 15.8 -39.2 15.6 -40.8 15.65 -41.75 Q15.95 -44.6 17.45 -47.1 18.95 -49.6 21.55 -50.55 L23.05 -50.8 Q24.65 -50.85 26.0 -49.5 L26.4 -49.05 Q28.0 -47.05 28.3 -43.7 M34.6 -40.05 Q34.6 -41.3 32.6 -42.65 30.6 -43.95 30.6 -42.0 30.6 -41.05 31.75 -40.2 L34.0 -38.8 34.4 -39.0 34.6 -40.05 M36.65 -37.5 Q35.8 -38.1 34.85 -38.0 L36.9 -35.25 36.7 -33.0 Q34.7 -35.3 28.6 -37.4 29.6 -39.9 29.3 -43.25 29.05 -46.05 28.15 -47.95 35.45 -43.25 36.65 -37.5 M19.25 -39.2 L18.7 -39.65 Q18.4 -39.55 18.2 -40.2 L17.9 -41.7 17.2 -42.75 16.9 -43.45 16.9 -42.65 Q16.95 -41.45 17.3 -40.4 17.65 -39.45 18.4 -38.65 L19.05 -38.1 Q20.45 -37.05 22.7 -36.35 L24.8 -36.4 Q25.75 -36.85 26.25 -38.15 L26.4 -38.6 Q27.3 -41.55 27.15 -43.95 27.1 -46.45 25.8 -46.75 L22.1 -48.05 Q20.0 -48.95 18.6 -47.45 L18.15 -45.0 18.2 -45.0 Q18.2 -44.4 18.35 -43.75 L18.3 -43.7 17.65 -44.35 17.45 -44.35 17.85 -42.65 18.0 -41.95 18.2 -41.2 18.25 -41.1 18.65 -40.1 19.25 -39.2 M18.3 -43.65 L18.55 -43.0 18.55 -42.95 Q18.75 -42.3 19.35 -41.75 L19.7 -41.25 20.0 -41.1 20.2 -40.95 22.15 -39.3 22.3 -39.15 22.15 -38.75 Q21.95 -38.5 21.35 -38.45 20.1 -38.2 19.5 -38.95 L19.45 -39.0 Q19.85 -38.65 20.3 -38.75 L20.6 -39.15 19.95 -39.8 Q19.0 -40.9 18.65 -41.8 L18.35 -43.45 18.3 -43.65 M22.95 -49.6 L22.5 -49.45 22.5 -49.05 23.8 -48.1 25.4 -47.8 25.55 -48.05 Q25.5 -48.45 24.5 -49.0 L22.95 -49.6 M15.85 0.85 L16.25 -36.35 16.6 -35.95 Q18.75 -33.6 22.15 -33.25 23.75 -33.15 25.15 -33.75 L29.95 4.0 22.8 1.65 15.8 5.4 15.8 4.7 16.7 4.7 Q20.3 2.65 21.7 -0.25 L22.05 -1.1 22.5 -2.7 23.15 -7.2 23.15 -14.2 Q23.45 -11.45 23.8 -10.0 L23.8 -2.95 Q23.85 -1.45 24.4 -0.05 25.5 2.7 28.15 2.7 28.65 2.7 28.65 2.2 L26.85 -9.1 Q25.05 -20.45 24.9 -24.35 L24.25 -32.1 Q22.6 -32.05 19.35 -32.95 L19.1 -33.05 18.25 -33.4 17.75 -33.55 17.25 -33.65 16.8 -33.6 16.8 -25.35 16.7 -25.15 16.7 -15.15 16.25 -11.55 15.95 -8.0 15.95 0.5 15.85 0.85 M24.4 14.4 L23.2 3.55 30.95 5.3 26.15 -34.3 27.45 -35.5 38.25 11.0 30.8 9.15 24.4 14.4 M34.35 -36.5 Q30.85 -39.9 30.85 -37.9 L31.65 -36.9 Q32.7 -35.8 33.75 -35.8 34.15 -35.8 34.25 -36.05 L34.35 -36.5 M36.75 8.7 L34.8 1.95 34.7 1.65 33.8 -2.65 28.4 -25.8 28.6 -21.25 Q28.6 -20.35 29.1 -17.1 L29.7 -13.3 31.15 3.0 32.0 6.0 24.75 5.55 Q24.35 7.4 24.35 8.85 L24.45 10.55 Q24.65 12.25 25.25 12.25 L27.0 10.8 Q28.6 9.3 29.25 8.1 L34.75 9.1 35.1 9.1 36.4 9.35 Q36.8 9.35 36.75 8.7 M-21.0 -52.3 L-14.0 -52.3 -13.3 -51.8 Q-13.35 -51.75 -13.05 -51.7 L-20.9 -51.0 -22.9 -51.1 -26.05 -50.75 -26.05 -50.8 Q-26.05 -51.3 -25.15 -51.45 L-21.0 -52.25 -21.0 -52.3" fill="#8a8a8a" fill-rule="evenodd" stroke="none"/>
    <path d="M13.3 -54.75 Q-10.4 -63.05 -23.35 -61.2 -36.65 -59.25 -39.15 -56.2 L-39.15 -56.15 -40.65 -54.35 -41.35 -53.25 -42.55 -49.85 Q-42.8 -48.4 -42.55 -46.9 L-42.45 -46.4 -42.4 -46.6 -42.4 -46.55 -42.25 -46.95 -42.1 -47.0 -42.05 -47.05 -42.0 -47.1 -40.6 -47.9 Q-38.9 -48.9 -38.05 -49.1 -38.7 -49.2 -35.05 -50.0 L-39.9 -47.0 -42.75 -45.0 -42.9 -44.8 -42.95 -44.75 -44.15 -39.65 -43.95 -38.55 -43.6 -39.1 -42.65 -40.55 -42.6 -40.6 -42.05 -41.3 Q-39.0 -44.3 -26.65 -45.25 -19.8 -45.8 -9.7 -44.8 L1.75 -43.3 12.4 -41.4 14.55 -41.0 14.55 -41.9 Q14.7 -45.55 17.1 -48.5 19.15 -51.0 21.25 -51.65 L18.3 -52.9 Q17.95 -53.05 17.7 -53.15 L15.8 -53.85 13.9 -54.5 13.25 -54.75 13.3 -54.75 M28.3 -43.7 Q28.0 -47.05 26.4 -49.05 L26.0 -49.5 Q24.65 -50.85 23.05 -50.8 L21.55 -50.55 Q18.95 -49.6 17.45 -47.1 15.95 -44.6 15.65 -41.75 L15.6 -40.8 15.8 -39.2 16.1 -38.45 16.25 -38.15 17.15 -36.95 Q18.95 -35.0 21.95 -34.85 23.6 -34.75 24.9 -35.5 L25.9 -36.25 26.45 -36.85 26.8 -37.35 27.15 -37.9 Q28.55 -40.4 28.3 -43.7 M36.65 -37.5 Q35.45 -43.25 28.15 -47.95 29.05 -46.05 29.3 -43.25 29.6 -39.9 28.6 -37.4 34.7 -35.3 36.7 -33.0 L36.9 -35.25 34.85 -38.0 Q35.8 -38.1 36.65 -37.5 M19.25 -39.2 L18.65 -40.1 18.25 -41.1 18.2 -41.2 18.0 -41.95 17.85 -42.65 17.45 -44.35 17.65 -44.35 18.3 -43.7 18.25 -43.7 18.3 -43.65 18.35 -43.45 18.65 -41.8 Q19.0 -40.9 19.95 -39.8 L20.6 -39.15 20.3 -38.75 Q19.85 -38.65 19.45 -39.0 L19.25 -39.2 M24.4 14.4 L30.8 9.15 38.25 11.0 27.45 -35.5 26.15 -34.3 30.95 5.3 23.2 3.55 24.4 14.4 M15.8 4.7 L15.8 5.4 22.8 1.65 29.95 4.0 25.15 -33.75 Q23.75 -33.15 22.15 -33.25 18.75 -33.6 16.6 -35.95 L16.25 -36.35 15.85 0.85 15.8 4.7 M-41.4 -39.75 L-41.4 -39.7 -44.75 -34.35 Q-44.85 -34.1 -45.1 -34.0 L-45.65 -34.0 -46.05 -34.3 -46.15 -34.8 Q-43.05 -53.75 -40.35 -57.1 L-40.3 -57.1 Q-37.7 -60.65 -23.55 -62.7 -9.7 -64.75 16.3 -55.25 42.85 -45.6 37.6 -30.6 L37.3 -30.2 36.85 -30.1 Q36.55 -30.15 36.4 -30.3 L36.15 -30.75 Q35.8 -33.4 28.5 -35.9 L39.4 12.45 30.7 11.15 23.75 17.0 22.15 3.55 14.85 7.5 14.95 -38.6 15.0 -38.6 14.75 -39.45 12.1 -39.95 Q-13.3 -44.85 -26.55 -43.75 -39.35 -42.75 -41.4 -39.75" fill="#464646" fill-rule="evenodd" stroke="none"/>
    <path d="M21.5 -29.55 Q22.05 -29.4 22.05 -27.95 L20.75 -18.45 20.05 -14.1 19.45 -10.3 Q19.0 -10.95 19.0 -12.25 L19.05 -14.4 19.05 -18.55 19.0 -20.75 19.0 -23.05 19.05 -24.15 19.0 -27.95 Q19.1 -28.8 19.55 -29.2 20.15 -29.9 21.5 -29.55 M-28.25 -57.05 L-16.75 -57.05 -14.0 -56.5 Q-11.7 -56.0 -11.3 -55.55 L-12.0 -54.8 -20.15 -54.75 Q-21.2 -54.2 -25.8 -53.8 L-30.75 -53.25 Q-32.35 -52.45 -32.7 -52.35 L-34.35 -52.05 -35.25 -52.25 -35.3 -52.9 Q-35.3 -53.75 -32.2 -55.4 -29.25 -57.0 -28.25 -57.05 M-0.05 -54.55 L-0.75 -53.8 -6.75 -53.8 Q-8.0 -54.1 -8.35 -54.45 -8.55 -54.65 -8.55 -55.2 L-8.5 -56.0 -4.1 -55.9 Q-0.95 -55.6 -0.05 -54.55 M-27.75 -48.0 L-27.65 -47.9 -27.55 -47.5 Q-27.55 -46.9 -29.05 -46.65 L-33.75 -45.8 -34.15 -46.05 -34.3 -46.65 Q-34.3 -48.15 -27.75 -48.0" fill="#ffffff" fill-rule="evenodd" stroke="none"/>
  </g>
</svg>
