<?xml version="1.0" encoding="UTF-8" standalone="no"?>
<svg xmlns:ffdec="https://www.free-decompiler.com/flash" xmlns:xlink="http://www.w3.org/1999/xlink" ffdec:objectType="shape" height="72.4px" width="89.65px" xmlns="http://www.w3.org/2000/svg">
  <g transform="matrix(1.0, 0.0, 0.0, 1.0, 50.25, 49.4)">
    <path d="M28.75 -40.35 L29.3 -37.25 29.35 -36.8 Q35.65 -41.8 32.9 -45.7 32.0 -44.95 31.0 -44.95 L32.4 -46.5 Q32.85 -48.35 31.3 -48.75 29.5 -47.4 25.0 -45.45 L26.75 -44.05 27.9 -42.5 28.75 -40.35 M-32.05 -34.2 Q-23.5 -33.5 -9.7 -35.25 -1.85 -37.2 13.0 -42.1 L18.55 -44.0 Q20.25 -45.55 22.0 -45.85 L23.65 -45.9 Q29.2 -48.05 31.05 -49.4 33.3 -48.7 33.35 -46.55 34.75 -46.5 34.25 -41.65 34.0 -39.25 29.35 -35.65 29.35 -32.9 28.3 -30.75 L39.4 18.45 30.7 17.15 23.75 23.0 22.2 9.5 14.85 13.5 14.95 -26.9 Q-2.9 -17.6 -9.7 -17.05 -22.6 -14.05 -31.05 -15.35 -45.15 -17.5 -47.35 -19.9 -49.55 -22.35 -49.6 -22.95 L-49.85 -24.35 -49.6 -24.05 Q-50.25 -27.25 -50.25 -33.8 -49.65 -34.95 -49.15 -36.6 -48.65 -38.3 -46.85 -39.0 -45.1 -39.65 -44.9 -36.6 -43.65 -35.1 -32.05 -34.2 M28.3 -37.7 L27.95 -39.75 27.15 -41.9 26.0 -43.5 Q24.85 -44.65 23.5 -44.8 L21.55 -44.55 Q20.15 -44.05 19.05 -43.05 L17.45 -41.1 Q15.95 -38.6 15.65 -35.75 15.4 -33.95 16.15 -32.45 L16.25 -32.2 17.15 -30.95 Q18.95 -29.0 21.95 -28.85 23.6 -28.75 24.9 -29.5 L25.9 -30.25 26.45 -30.85 26.8 -31.35 Q27.8 -32.9 28.15 -34.75 L28.3 -36.0 28.3 -37.7 M19.25 -33.2 Q18.7 -33.8 18.25 -35.1 L18.2 -35.2 18.0 -35.95 17.85 -36.65 17.45 -38.35 17.65 -38.35 18.3 -37.7 18.25 -37.7 18.3 -37.65 18.35 -37.45 18.65 -35.8 Q19.1 -34.65 20.6 -33.15 L20.3 -32.75 Q19.85 -32.65 19.45 -33.0 L19.25 -33.2 M15.8 10.7 L15.8 11.4 22.8 7.65 29.95 10.0 25.15 -27.75 Q23.75 -27.15 22.15 -27.25 18.75 -27.6 16.6 -29.95 L16.25 -30.35 15.85 6.85 15.8 10.7 M24.4 20.4 L30.8 15.15 38.25 17.0 27.45 -29.5 26.15 -28.3 30.95 11.3 23.2 9.55 24.4 20.4 M-46.75 -30.05 L-47.75 -30.6 Q-49.05 -29.4 -48.95 -28.1 L-48.1 -24.7 -47.45 -23.6 -46.8 -22.65 -46.1 -21.8 -46.1 -21.75 Q-43.85 -18.7 -30.5 -16.75 -22.4 -15.6 -9.7 -18.35 5.5 -22.35 10.4 -25.85 L11.3 -26.1 14.95 -28.1 14.95 -32.6 15.0 -32.6 Q14.5 -34.05 14.55 -35.9 14.7 -39.4 16.95 -42.25 L14.95 -41.55 Q1.95 -36.9 -3.2 -35.45 L-9.7 -33.75 -15.0 -33.15 Q-25.4 -32.15 -32.3 -32.7 -43.95 -33.6 -45.85 -35.35 L-47.25 -36.35 Q-47.5 -37.0 -48.25 -35.5 -49.0 -33.95 -48.85 -33.5 L-48.65 -32.95 -45.95 -30.95 -41.3 -27.95 Q-45.0 -28.75 -44.25 -28.85 -45.15 -29.05 -46.75 -30.05 M7.45 -25.3 L7.4 -25.3 7.45 -25.35 7.8 -25.45 7.45 -25.3 M-48.45 -31.4 L-48.5 -31.35 -48.45 -31.25 -48.45 -31.4" fill="#464646" fill-rule="evenodd" stroke="none"/>
    <path d="M27.9 -42.5 L30.1 -44.05 30.45 -43.9 30.55 -42.85 Q30.45 -41.75 28.75 -40.35 L27.9 -42.5 M30.65 -46.4 Q26.8 -42.55 26.95 -44.55 L27.85 -45.65 Q29.0 -46.9 30.1 -47.05 L30.6 -46.85 30.65 -46.4 M22.95 -43.6 L24.5 -43.0 Q25.5 -42.45 25.55 -42.05 L25.4 -41.8 23.8 -42.1 22.5 -43.05 22.5 -43.45 22.95 -43.6 M25.45 -36.55 L24.5 -38.75 22.95 -38.5 Q20.7 -38.25 19.85 -37.65 20.0 -36.8 20.45 -36.05 21.2 -34.8 22.35 -34.0 24.1 -33.35 25.05 -34.0 26.1 -34.65 25.45 -36.55 M18.3 -37.7 L18.35 -37.75 Q18.2 -38.4 18.2 -39.0 L18.15 -39.0 18.6 -41.45 Q20.0 -42.95 22.1 -42.05 L25.8 -40.75 26.35 -40.5 27.0 -39.25 27.15 -37.95 27.0 -35.1 26.75 -33.75 26.4 -32.6 25.75 -31.25 Q25.35 -30.7 24.8 -30.4 L22.7 -30.35 Q19.95 -31.2 18.4 -32.65 16.95 -34.2 16.9 -36.65 L16.9 -37.45 17.2 -36.75 17.9 -35.7 Q18.15 -33.5 18.7 -33.65 L19.25 -33.2 19.45 -33.0 19.5 -32.95 Q20.1 -32.2 21.35 -32.45 21.95 -32.5 22.15 -32.75 L22.3 -33.15 20.2 -34.95 20.0 -35.1 19.7 -35.25 19.35 -35.75 Q18.75 -36.3 18.55 -36.95 L18.55 -37.0 18.3 -37.65 18.25 -37.7 18.3 -37.7 M15.85 6.85 L15.95 6.5 15.95 -2.0 16.25 -5.55 16.7 -9.15 16.7 -19.15 16.8 -19.35 16.8 -27.6 17.25 -27.65 17.8 -27.55 18.25 -27.4 19.1 -27.05 19.35 -26.95 Q22.6 -26.05 24.25 -26.1 L24.9 -18.35 Q25.05 -14.45 26.85 -3.1 L28.65 8.2 Q28.65 8.7 28.15 8.7 25.5 8.7 24.4 5.95 23.85 4.55 23.8 3.05 L23.8 -4.0 Q23.45 -5.45 23.15 -8.2 L23.15 -1.2 22.5 3.35 22.05 4.9 21.75 5.7 Q20.35 8.65 16.7 10.7 L15.8 10.7 15.85 6.85 M23.15 -18.9 L23.15 -23.1 Q23.15 -24.5 22.85 -25.15 L20.7 -25.65 19.25 -25.75 18.05 -25.6 18.05 -8.25 17.75 -4.55 17.55 -0.85 17.0 2.6 16.55 6.7 16.65 8.25 16.9 8.3 Q17.6 8.3 19.05 5.9 L20.9 2.4 21.25 1.5 21.9 -1.75 22.15 -3.8 22.15 -9.4 Q22.9 -11.6 23.05 -14.2 L23.15 -18.9 M-15.0 -33.15 L-12.3 -33.15 -9.7 -33.5 -1.5 -35.8 4.5 -36.55 Q6.4 -36.05 6.15 -35.0 5.8 -33.5 0.05 -31.85 -5.2 -30.1 -9.7 -28.8 L-10.9 -28.6 -12.2 -28.4 -12.7 -27.85 -12.85 -27.45 -9.7 -27.35 Q-3.45 -28.1 1.55 -29.65 5.05 -30.7 8.1 -32.25 L9.3 -32.1 Q12.5 -31.75 11.7 -27.9 9.2 -26.3 6.7 -25.05 4.15 -23.8 -0.05 -22.5 L-9.7 -19.5 -15.05 -18.6 -17.6 -18.55 -25.5 -17.6 -28.1 -17.6 Q-36.25 -18.65 -41.65 -20.6 -44.3 -21.55 -46.85 -23.95 L-47.25 -24.3 -47.25 -24.4 -47.6 -26.6 -47.3 -28.75 -46.55 -29.9 -46.75 -30.05 Q-45.15 -29.05 -44.25 -28.85 -45.0 -28.75 -41.3 -27.95 L-45.95 -30.95 Q-47.6 -33.95 -46.7 -32.6 -47.35 -35.15 -45.85 -35.35 -43.95 -33.6 -32.3 -32.7 -25.4 -32.15 -15.0 -33.15 M-31.95 -19.15 L-22.0 -19.15 -9.7 -21.2 Q-6.3 -22.3 -3.45 -23.35 6.9 -27.0 7.1 -29.0 L7.05 -29.8 Q6.85 -30.2 5.95 -30.1 4.35 -29.9 0.65 -28.3 L-2.65 -26.8 -3.25 -26.5 -5.55 -26.2 -9.7 -25.05 Q-28.05 -22.45 -37.05 -25.95 -37.5 -26.45 -39.65 -26.95 -40.95 -27.25 -42.8 -27.9 L-44.85 -27.9 Q-45.4 -27.35 -45.55 -26.65 -46.05 -21.35 -31.95 -19.2 L-31.95 -19.15 M36.75 14.7 Q36.8 15.35 36.4 15.35 L35.1 15.1 34.75 15.1 29.25 14.1 Q28.6 15.3 27.0 16.8 L25.25 18.25 Q24.65 18.25 24.45 16.55 L24.35 14.85 Q24.35 13.4 24.75 11.55 L32.0 12.0 31.15 9.0 29.7 -7.3 29.1 -11.1 Q28.6 -14.35 28.6 -15.25 L28.4 -19.8 33.8 3.35 34.7 7.65 34.8 7.95 36.75 14.7 M27.15 5.6 L26.4 0.75 25.55 -4.05 Q25.2 -5.45 24.9 -8.95 L24.85 -11.4 Q24.65 -12.75 23.85 -13.35 L23.55 -8.1 23.85 -4.35 24.3 -0.9 25.25 2.75 Q25.45 4.15 26.85 6.3 27.1 6.3 27.15 6.15 L27.15 5.6 M-30.0 -28.4 L-21.35 -28.4 -19.9 -28.8 Q-19.05 -29.05 -19.0 -29.55 -18.95 -30.2 -19.65 -30.4 L-28.45 -30.45 -37.4 -32.4 -45.15 -33.9 -45.75 -33.8 -46.05 -33.55 -46.05 -33.6 -46.15 -33.15 Q-46.25 -32.05 -41.55 -30.45 -36.25 -28.6 -30.0 -28.45 L-30.0 -28.4 M-27.25 -25.65 L-20.15 -25.65 -19.35 -26.15 -19.05 -26.25 -27.0 -26.95 -29.05 -26.85 -32.25 -27.2 -32.25 -27.15 Q-32.3 -26.65 -31.4 -26.5 L-27.25 -25.7 -27.25 -25.65 M-5.85 -31.95 L-6.05 -32.3 Q-6.15 -32.6 -6.5 -32.55 L-9.7 -32.1 -14.0 -31.5 Q-14.75 -31.15 -14.35 -30.8 -14.4 -30.3 -13.9 -30.25 -13.15 -30.15 -9.7 -30.2 L-8.55 -30.35 Q-6.55 -30.7 -5.85 -31.95" fill="#b4b4b4" fill-rule="evenodd" stroke="none"/>
    <path d="M27.9 -42.5 L26.75 -44.05 25.0 -45.45 Q29.5 -47.4 31.3 -48.75 32.85 -48.35 32.4 -46.5 L31.0 -44.95 Q32.0 -44.95 32.9 -45.7 35.65 -41.8 29.35 -36.8 L29.3 -37.25 28.75 -40.35 Q30.45 -41.75 30.55 -42.85 L30.45 -43.9 30.1 -44.05 27.9 -42.5 M30.65 -46.4 L30.6 -46.85 30.1 -47.05 Q29.0 -46.9 27.85 -45.65 L26.95 -44.55 Q26.8 -42.55 30.65 -46.4 M28.3 -37.7 L28.3 -36.0 28.15 -34.75 Q27.8 -32.9 26.8 -31.35 L26.45 -30.85 25.9 -30.25 24.9 -29.5 Q23.6 -28.75 21.95 -28.85 18.95 -29.0 17.15 -30.95 L16.25 -32.2 16.15 -32.45 Q15.4 -33.95 15.65 -35.75 15.95 -38.6 17.45 -41.1 L19.05 -43.05 Q20.15 -44.05 21.55 -44.55 L23.5 -44.8 Q24.85 -44.65 26.0 -43.5 L27.15 -41.9 27.95 -39.75 28.3 -37.7 M22.95 -43.6 L22.5 -43.45 22.5 -43.05 23.8 -42.1 25.4 -41.8 25.55 -42.05 Q25.5 -42.45 24.5 -43.0 L22.95 -43.6 M19.25 -33.2 L18.7 -33.65 Q18.15 -33.5 17.9 -35.7 L17.2 -36.75 16.9 -37.45 16.9 -36.65 Q16.95 -34.2 18.4 -32.65 19.95 -31.2 22.7 -30.35 L24.8 -30.4 Q25.35 -30.7 25.75 -31.25 L26.4 -32.6 26.75 -33.75 27.0 -35.1 27.15 -37.95 27.0 -39.25 26.35 -40.5 25.8 -40.75 22.1 -42.05 Q20.0 -42.95 18.6 -41.45 L18.15 -39.0 18.2 -39.0 Q18.2 -38.4 18.35 -37.75 L18.3 -37.7 17.65 -38.35 17.45 -38.35 17.85 -36.65 18.0 -35.95 18.2 -35.2 18.25 -35.1 Q18.7 -33.8 19.25 -33.2 M18.3 -37.65 L18.55 -37.0 18.55 -36.95 Q18.75 -36.3 19.35 -35.75 L19.7 -35.25 20.0 -35.1 20.2 -34.95 22.3 -33.15 22.15 -32.75 Q21.95 -32.5 21.35 -32.45 20.1 -32.2 19.5 -32.95 L19.45 -33.0 Q19.85 -32.65 20.3 -32.75 L20.6 -33.15 Q19.1 -34.65 18.65 -35.8 L18.35 -37.45 18.3 -37.65 M15.85 6.85 L16.25 -30.35 16.6 -29.95 Q18.75 -27.6 22.15 -27.25 23.75 -27.15 25.15 -27.75 L29.95 10.0 22.8 7.65 15.8 11.4 15.8 10.7 16.7 10.7 Q20.35 8.65 21.75 5.7 L22.05 4.9 22.5 3.35 23.15 -1.2 23.15 -8.2 Q23.45 -5.45 23.8 -4.0 L23.8 3.05 Q23.85 4.55 24.4 5.95 25.5 8.7 28.15 8.7 28.65 8.7 28.65 8.2 L26.85 -3.1 Q25.05 -14.45 24.9 -18.35 L24.25 -26.1 Q22.6 -26.05 19.35 -26.95 L19.1 -27.05 18.25 -27.4 17.8 -27.55 17.25 -27.65 16.8 -27.6 16.8 -19.35 16.7 -19.15 16.7 -9.15 16.25 -5.55 15.95 -2.0 15.95 6.5 15.85 6.85 M-15.0 -33.15 L-9.7 -33.75 -3.2 -35.45 Q1.95 -36.9 14.95 -41.55 L16.95 -42.25 Q14.7 -39.4 14.55 -35.9 14.5 -34.05 15.0 -32.6 L14.95 -32.6 14.95 -28.1 11.3 -26.1 10.4 -25.85 Q5.5 -22.35 -9.7 -18.35 -22.4 -15.6 -30.5 -16.75 -43.85 -18.7 -46.1 -21.75 L-46.1 -21.8 -46.8 -22.65 -47.45 -23.6 -48.1 -24.7 -48.95 -28.1 Q-49.05 -29.4 -47.75 -30.6 L-46.75 -30.05 -46.55 -29.9 -47.3 -28.75 -47.6 -26.6 -47.25 -24.4 -47.25 -24.3 -46.85 -23.95 Q-44.3 -21.55 -41.65 -20.6 -36.25 -18.65 -28.1 -17.6 L-25.5 -17.6 -17.6 -18.55 -15.05 -18.6 -9.7 -19.5 -0.05 -22.5 Q4.15 -23.8 6.7 -25.05 9.2 -26.3 11.7 -27.9 12.5 -31.75 9.3 -32.1 L8.1 -32.25 Q5.05 -30.7 1.55 -29.65 -3.45 -28.1 -9.7 -27.35 L-12.85 -27.45 -12.7 -27.85 -12.2 -28.4 -10.9 -28.6 -9.7 -28.8 Q-5.2 -30.1 0.05 -31.85 5.8 -33.5 6.15 -35.0 6.4 -36.05 4.5 -36.55 L-1.5 -35.8 -9.7 -33.5 -12.3 -33.15 -15.0 -33.15 M24.4 20.4 L23.2 9.55 30.95 11.3 26.15 -28.3 27.45 -29.5 38.25 17.0 30.8 15.15 24.4 20.4 M-45.95 -30.95 L-48.65 -32.95 -48.85 -33.5 Q-49.0 -33.95 -48.25 -35.5 -47.5 -37.0 -47.25 -36.35 L-45.85 -35.35 Q-47.35 -35.15 -46.7 -32.6 -47.6 -33.95 -45.95 -30.95 M7.45 -25.3 L7.8 -25.45 7.45 -25.35 7.4 -25.3 7.45 -25.3 M36.75 14.7 L34.8 7.95 34.7 7.65 33.8 3.35 28.4 -19.8 28.6 -15.25 Q28.6 -14.35 29.1 -11.1 L29.7 -7.3 31.15 9.0 32.0 12.0 24.75 11.55 Q24.35 13.4 24.35 14.85 L24.45 16.55 Q24.65 18.25 25.25 18.25 L27.0 16.8 Q28.6 15.3 29.25 14.1 L34.75 15.1 35.1 15.1 36.4 15.35 Q36.8 15.35 36.75 14.7 M-48.45 -31.4 L-48.45 -31.25 -48.5 -31.35 -48.45 -31.4 M-27.25 -25.65 L-27.25 -25.7 -31.4 -26.5 Q-32.3 -26.65 -32.25 -27.15 L-32.25 -27.2 -29.05 -26.85 -27.0 -26.95 -19.05 -26.25 -19.35 -26.15 -20.15 -25.65 -27.25 -25.65" fill="#8a8a8a" fill-rule="evenodd" stroke="none"/>
    <path d="M25.45 -36.55 Q26.1 -34.65 25.05 -34.0 24.1 -33.35 22.35 -34.0 21.2 -34.8 20.45 -36.05 20.0 -36.8 19.85 -37.65 20.7 -38.25 22.95 -38.5 L24.5 -38.75 25.45 -36.55 M23.15 -18.9 L23.05 -14.2 Q22.9 -11.6 22.15 -9.4 L22.15 -3.8 21.9 -1.75 21.25 1.5 20.9 2.4 19.05 5.9 Q17.6 8.3 16.9 8.3 L16.65 8.25 16.55 6.7 17.0 2.6 17.55 -0.85 17.75 -4.55 18.05 -8.25 18.05 -25.6 19.25 -25.75 20.7 -25.65 22.85 -25.15 Q23.15 -24.5 23.15 -23.1 L23.15 -18.9 M-31.95 -19.15 L-31.95 -19.2 Q-46.05 -21.35 -45.55 -26.65 -45.4 -27.35 -44.85 -27.9 L-42.8 -27.9 Q-40.95 -27.25 -39.65 -26.95 -37.5 -26.45 -37.05 -25.95 -28.05 -22.45 -9.7 -25.05 L-5.55 -26.2 -3.25 -26.5 -2.65 -26.8 0.65 -28.3 Q4.35 -29.9 5.95 -30.1 6.85 -30.2 7.05 -29.8 L7.1 -29.0 Q6.9 -27.0 -3.45 -23.35 -6.3 -22.3 -9.7 -21.2 L-22.0 -19.15 -31.95 -19.15 M21.5 -23.55 Q20.15 -23.9 19.55 -23.2 19.1 -22.8 19.0 -21.95 L19.05 -18.15 19.0 -17.2 19.0 -14.75 19.05 -12.55 19.05 -8.4 19.0 -6.25 Q19.0 -4.95 19.45 -4.3 L20.1 -8.15 20.75 -12.4 22.05 -21.95 Q22.05 -23.4 21.5 -23.55 M27.15 5.6 L27.15 6.15 Q27.1 6.3 26.85 6.3 25.45 4.15 25.25 2.75 L24.3 -0.9 23.85 -4.35 23.55 -8.1 23.85 -13.35 Q24.65 -12.75 24.85 -11.4 L24.9 -8.95 Q25.2 -5.45 25.55 -4.05 L26.4 0.75 27.15 5.6 M-30.0 -28.4 L-30.0 -28.45 Q-36.25 -28.6 -41.55 -30.45 -46.25 -32.05 -46.15 -33.15 L-46.05 -33.6 -46.05 -33.55 -45.75 -33.8 -45.15 -33.9 -37.4 -32.4 -28.45 -30.45 -19.65 -30.4 Q-18.95 -30.2 -19.0 -29.55 -19.05 -29.05 -19.9 -28.8 L-21.35 -28.4 -30.0 -28.4 M-35.1 -20.9 L-23.4 -20.9 -20.55 -21.45 Q-18.15 -21.95 -17.7 -22.4 L-18.35 -23.15 -26.6 -23.2 Q-27.6 -23.75 -32.3 -24.15 L-37.3 -24.7 -39.2 -25.6 -40.8 -25.9 -41.75 -25.7 -41.85 -25.05 Q-41.9 -24.2 -38.95 -22.55 -36.1 -20.95 -35.1 -20.9 M-5.85 -31.95 Q-6.55 -30.7 -8.55 -30.35 L-9.7 -30.2 Q-13.15 -30.15 -13.9 -30.25 -14.4 -30.3 -14.35 -30.8 -14.75 -31.15 -14.0 -31.5 L-9.7 -32.1 -6.5 -32.55 Q-6.15 -32.6 -6.05 -32.3 L-5.85 -31.95 M-33.7 -29.95 L-33.6 -30.05 -33.45 -30.45 Q-33.4 -31.05 -34.9 -31.3 L-39.6 -32.15 Q-39.75 -32.05 -40.0 -31.9 L-40.25 -31.3 Q-40.4 -29.8 -33.7 -29.95 M-6.15 -23.85 L-6.8 -24.5 -9.7 -24.15 -12.9 -24.15 -14.6 -23.5 -14.85 -22.75 -14.9 -21.95 -10.4 -22.05 -9.7 -22.1 Q-7.05 -22.8 -6.15 -23.85" fill="#e0e0e0" fill-rule="evenodd" stroke="none"/>
    <path d="M21.5 -23.55 Q22.05 -23.4 22.05 -21.95 L20.75 -12.4 20.1 -8.15 19.45 -4.3 Q19.0 -4.95 19.0 -6.25 L19.05 -8.4 19.05 -12.55 19.0 -14.75 19.0 -17.2 19.05 -18.15 19.0 -21.95 Q19.1 -22.8 19.55 -23.2 20.15 -23.9 21.5 -23.55 M-35.1 -20.9 Q-36.1 -20.95 -38.95 -22.55 -41.9 -24.2 -41.85 -25.05 L-41.75 -25.7 -40.8 -25.9 -39.2 -25.6 -37.3 -24.7 -32.3 -24.15 Q-27.6 -23.75 -26.6 -23.2 L-18.35 -23.15 -17.7 -22.4 Q-18.15 -21.95 -20.55 -21.45 L-23.4 -20.9 -35.1 -20.9 M-6.15 -23.85 Q-7.05 -22.8 -9.7 -22.1 L-10.4 -22.05 -14.9 -21.95 -14.85 -22.75 -14.6 -23.5 -12.9 -24.15 -9.7 -24.15 -6.8 -24.5 -6.15 -23.85 M-33.7 -29.95 Q-40.4 -29.8 -40.25 -31.3 L-40.0 -31.9 Q-39.75 -32.05 -39.6 -32.15 L-34.9 -31.3 Q-33.4 -31.05 -33.45 -30.45 L-33.6 -30.05 -33.7 -29.95" fill="#ffffff" fill-rule="evenodd" stroke="none"/>
  </g>
</svg>
