<?xml version="1.0" encoding="UTF-8" standalone="no"?>
<svg xmlns:ffdec="https://www.free-decompiler.com/flash" xmlns:xlink="http://www.w3.org/1999/xlink" ffdec:objectType="shape" height="61.65px" width="89.6px" xmlns="http://www.w3.org/2000/svg">
  <g transform="matrix(1.0, 0.0, 0.0, 1.0, 50.2, 43.2)">
    <path d="M20.4 -33.35 L20.45 -32.85 20.3 -32.75 Q19.85 -32.65 19.45 -33.0 L19.25 -33.2 Q18.7 -33.8 18.25 -35.1 L18.2 -35.2 18.0 -35.95 17.85 -36.65 17.45 -38.35 17.65 -38.35 18.3 -37.7 18.25 -37.7 18.3 -37.65 18.35 -37.45 18.65 -35.8 Q19.05 -34.75 20.4 -33.35 M17.75 -30.35 Q16.65 -30.75 15.7 -32.75 L14.85 -35.3 Q14.85 -38.45 16.95 -40.2 15.9 -38.1 15.65 -35.75 15.4 -33.95 16.15 -32.45 L16.25 -32.2 17.15 -30.95 17.75 -30.35 M1.95 -37.05 L3.0 -38.05 Q4.55 -39.05 6.9 -38.7 L1.95 -37.05 M-7.3 -18.95 L-7.75 -17.65 -7.8 -17.3 -9.7 -17.05 Q-16.35 -15.55 -21.8 -15.1 -23.0 -15.75 -23.8 -16.45 -17.65 -16.65 -9.7 -18.35 L-7.3 -18.95 M12.7 -25.85 Q13.75 -26.9 14.65 -26.9 L14.9 -26.9 12.65 -25.7 12.7 -25.85 M16.15 -18.7 L14.95 -18.35 14.95 -26.9 16.2 -26.65 16.15 -18.7 M26.9 9.0 L26.45 10.3 23.2 9.55 23.55 12.6 22.6 13.0 22.2 9.5 15.4 13.2 14.85 12.95 14.9 4.15 15.9 3.0 15.85 6.85 15.8 10.7 15.8 11.4 22.8 7.65 26.9 9.0 M29.65 -20.05 L29.7 -20.05 Q30.25 -20.05 30.65 -19.65 L30.9 -19.3 31.0 -18.75 31.0 -18.7 Q31.0 -18.15 30.65 -17.75 L30.25 -17.45 29.65 -20.05 M25.7 -23.45 L26.0 -23.5 Q26.6 -23.5 26.75 -23.1 L26.85 -22.35 27.45 -17.85 28.75 -6.65 Q28.3 -6.85 27.7 -7.6 L25.7 -23.45 M32.0 15.45 L38.25 17.0 37.3 12.95 38.15 12.9 39.4 18.45 31.25 17.25 Q31.5 16.2 32.0 15.45 M-47.9 -30.45 Q-49.05 -29.3 -48.95 -28.1 L-48.1 -24.7 -47.7 -23.95 Q-48.55 -23.5 -49.7 -23.45 L-49.85 -24.35 -49.6 -24.05 Q-50.1 -26.65 -50.2 -31.45 L-48.45 -30.75 -47.9 -30.45 M-33.7 -32.8 Q-32.55 -33.85 -31.35 -34.15 L-28.6 -34.0 Q-27.15 -33.55 -26.45 -32.5 L-32.3 -32.7 -33.7 -32.8 M-13.2 -33.3 L-12.7 -34.05 Q-12.05 -34.6 -11.1 -34.6 -10.15 -34.6 -9.5 -34.05 L-9.3 -33.85 -9.7 -33.75 -13.2 -33.3" fill="#464646" fill-rule="evenodd" stroke="none"/>
    <path d="M29.1 -40.6 Q28.75 -41.05 28.75 -41.6 28.75 -42.25 29.25 -42.7 29.7 -43.2 30.4 -43.2 L30.55 -43.2 30.55 -42.85 Q30.45 -41.85 29.1 -40.6 M18.55 -41.15 L19.35 -41.5 22.4 -41.6 Q23.8 -41.0 23.8 -39.3 23.8 -38.9 23.2 -38.6 L23.0 -38.5 22.95 -38.5 Q20.7 -38.25 19.85 -37.65 19.95 -36.95 20.3 -36.35 L20.2 -34.95 20.0 -35.1 19.7 -35.25 19.35 -35.75 Q18.75 -36.3 18.55 -36.95 L18.55 -37.0 18.3 -37.65 18.25 -37.7 18.3 -37.7 18.35 -37.75 Q18.2 -38.4 18.2 -39.0 L18.15 -39.0 18.55 -41.15 M20.45 -32.4 L20.2 -31.35 18.4 -32.65 Q16.95 -34.2 16.9 -36.65 L16.9 -37.45 17.2 -36.75 17.9 -35.7 Q18.15 -33.5 18.7 -33.65 L19.25 -33.2 19.45 -33.0 19.5 -32.95 Q19.85 -32.5 20.45 -32.4 M26.95 -34.7 Q26.6 -34.3 26.2 -34.3 25.85 -34.3 25.6 -34.6 25.9 -35.3 25.45 -36.55 L25.3 -36.9 25.45 -37.1 Q25.75 -37.6 26.2 -37.6 L27.0 -37.1 27.2 -36.75 27.0 -35.1 26.95 -34.7 M21.1 -25.6 L21.1 -25.7 Q21.1 -26.1 21.4 -26.4 L21.45 -26.4 23.0 -26.15 23.1 -25.7 22.9 -25.05 22.85 -25.15 21.1 -25.6 M11.1 -31.4 L9.75 -31.3 6.65 -31.55 8.1 -32.25 9.3 -32.1 Q10.45 -31.95 11.1 -31.4 M2.85 -32.75 Q1.2 -33.55 1.2 -34.35 1.2 -35.4 1.5 -36.15 L4.5 -36.55 Q6.4 -36.05 6.15 -35.0 5.9 -33.9 2.85 -32.75 M1.45 -25.2 Q1.45 -23.5 0.3 -22.6 L-0.05 -22.5 -3.25 -21.5 -5.45 -20.8 -9.7 -19.5 -15.05 -18.6 -17.6 -18.55 -24.95 -17.65 -25.5 -19.15 -22.0 -19.15 -9.7 -21.2 Q-6.3 -22.3 -3.45 -23.35 L1.45 -25.2 M-22.6 -23.95 L-22.0 -24.1 -17.35 -24.2 -22.6 -23.95 M-14.15 -24.5 L-11.8 -25.6 -8.3 -27.5 -1.9 -28.7 Q-0.75 -28.55 0.0 -28.0 L-2.65 -26.8 -3.25 -26.5 -5.55 -26.2 -9.7 -25.05 -14.15 -24.5 M16.8 -26.4 L18.05 -25.35 18.05 -20.0 17.25 -19.3 16.7 -18.95 16.7 -19.15 16.8 -19.35 16.8 -26.4 M18.05 -9.35 L17.95 -9.45 Q17.55 -10.0 17.55 -10.75 17.55 -11.5 17.95 -12.0 L18.05 -12.15 18.05 -9.35 M22.15 -7.6 L22.5 -7.65 23.15 -7.6 23.15 -1.2 22.5 3.35 22.05 4.9 21.75 5.7 Q20.35 8.65 16.7 10.7 L15.8 10.7 15.85 6.85 15.95 6.5 15.95 2.95 17.1 1.8 17.0 2.6 16.55 6.7 16.65 8.25 16.9 8.3 Q17.6 8.3 19.05 5.9 L20.9 2.4 21.25 1.5 21.9 -1.75 22.15 -3.8 22.15 -7.6 M23.25 -7.6 L23.6 -7.55 23.85 -4.35 24.15 -2.0 23.95 -0.1 25.25 2.65 25.25 2.75 Q25.4 3.9 26.4 5.55 26.95 7.25 26.95 8.3 L26.95 8.55 Q25.25 8.05 24.4 5.95 23.85 4.55 23.8 3.05 L23.8 -4.0 23.25 -7.6 M25.25 11.6 L24.7 12.0 24.75 11.55 25.25 11.6 M29.0 -17.55 L28.8 -17.75 28.5 -18.25 28.45 -19.0 28.55 -19.3 29.0 -17.55 M25.45 -12.75 L24.5 -13.8 23.1 -14.9 23.15 -18.9 23.15 -21.25 Q23.75 -22.35 24.5 -22.75 L24.55 -22.75 24.9 -18.35 Q24.95 -16.45 25.45 -12.75 M30.25 -1.35 L30.4 -1.15 31.5 0.2 33.15 1.7 33.55 2.3 33.8 3.35 33.95 4.0 33.35 5.9 Q32.5 7.75 31.1 8.55 L30.25 -1.35 M27.25 16.6 L27.0 16.8 25.7 18.0 25.2 17.65 Q24.85 17.25 24.85 16.65 24.85 16.05 25.2 15.65 25.55 15.25 26.05 15.25 26.55 15.25 26.9 15.65 L27.25 16.6 M36.35 13.05 L36.75 14.7 Q36.8 15.35 36.4 15.35 L35.1 15.1 34.75 15.1 32.6 14.7 Q33.95 13.35 36.35 13.05 M-47.15 -24.25 L-47.25 -24.3 -47.25 -24.4 -47.6 -26.6 -47.3 -28.75 -46.7 -29.7 Q-45.55 -28.85 -45.55 -27.95 -45.55 -25.6 -47.0 -24.4 L-47.15 -24.25 M-40.15 -27.05 L-39.15 -27.75 Q-37.8 -28.5 -36.9 -29.2 L-30.0 -28.45 -30.0 -28.4 -26.1 -28.4 Q-26.5 -27.45 -27.4 -26.95 L-29.05 -26.85 -32.25 -27.2 -32.25 -27.15 Q-32.3 -26.65 -31.4 -26.5 L-29.95 -26.25 -32.45 -25.6 -33.15 -24.8 Q-35.3 -25.25 -37.05 -25.95 -37.5 -26.45 -39.65 -26.95 L-40.15 -27.05 M-34.65 -31.8 L-33.7 -32.8 -32.3 -32.7 -26.45 -32.5 Q-25.9 -31.65 -25.8 -30.4 L-28.45 -30.45 -34.65 -31.8 M-9.1 -33.65 Q-8.85 -33.25 -8.85 -32.7 L-8.9 -32.2 -9.7 -32.1 -13.05 -31.75 -13.35 -32.7 -13.3 -33.15 -12.3 -33.15 -9.7 -33.5 -9.1 -33.65 M-22.45 -26.55 L-21.9 -27.05 Q-21.05 -27.7 -20.0 -27.7 -19.35 -27.7 -19.05 -27.4 L-18.7 -26.75 Q-18.65 -26.55 -19.05 -26.3 L-19.1 -26.25 -22.45 -26.55 M-19.15 -26.2 L-19.4 -26.05 -19.35 -26.15 -19.15 -26.2 M-20.65 -25.65 L-22.25 -25.3 -22.5 -25.1 Q-22.8 -25.0 -22.8 -25.65 L-20.65 -25.65" fill="#b4b4b4" fill-rule="evenodd" stroke="none"/>
    <path d="M30.55 -43.2 Q31.15 -43.15 31.6 -42.7 32.05 -42.25 32.05 -41.6 32.05 -40.95 31.6 -40.45 31.1 -40.0 30.4 -40.0 29.7 -40.0 29.25 -40.45 L29.1 -40.6 Q30.45 -41.85 30.55 -42.85 L30.55 -43.2 M20.2 -34.95 L20.2 -34.9 20.4 -33.35 Q19.05 -34.75 18.65 -35.8 L18.35 -37.45 18.3 -37.65 18.55 -37.0 18.55 -36.95 Q18.75 -36.3 19.35 -35.75 L19.7 -35.25 20.0 -35.1 20.2 -34.95 M20.45 -32.85 L20.45 -32.8 20.45 -32.4 Q19.85 -32.5 19.5 -32.95 L19.45 -33.0 Q19.85 -32.65 20.3 -32.75 L20.45 -32.85 M20.2 -31.35 Q19.7 -30.3 18.25 -30.3 L17.75 -30.35 17.15 -30.95 16.25 -32.2 16.15 -32.45 Q15.4 -33.95 15.65 -35.75 15.9 -38.1 16.95 -40.2 L18.55 -41.15 18.15 -39.0 18.2 -39.0 Q18.2 -38.4 18.35 -37.75 L18.3 -37.7 17.65 -38.35 17.45 -38.35 17.85 -36.65 18.0 -35.95 18.2 -35.2 18.25 -35.1 Q18.7 -33.8 19.25 -33.2 L18.7 -33.65 Q18.15 -33.5 17.9 -35.7 L17.2 -36.75 16.9 -37.45 16.9 -36.65 Q16.95 -34.2 18.4 -32.65 L20.2 -31.35 M27.2 -36.75 L27.3 -35.95 27.0 -34.75 26.95 -34.7 27.0 -35.1 27.2 -36.75 M21.45 -26.4 Q21.7 -26.7 22.1 -26.7 L22.8 -26.4 23.0 -26.15 21.45 -26.4 M6.9 -38.7 L7.0 -38.7 Q9.3 -38.35 11.0 -36.95 12.8 -35.4 12.8 -33.4 12.8 -32.05 11.75 -31.6 L11.1 -31.4 Q10.45 -31.95 9.3 -32.1 L8.1 -32.25 6.65 -31.55 Q4.85 -31.85 3.4 -32.5 L2.85 -32.75 Q5.9 -33.9 6.15 -35.0 6.4 -36.05 4.5 -36.55 L1.5 -36.15 1.95 -37.05 6.9 -38.7 M0.3 -22.6 Q-0.5 -22.0 -1.8 -21.8 L-3.25 -21.5 -0.05 -22.5 0.3 -22.6 M-5.45 -20.8 Q-6.45 -20.4 -6.85 -19.85 L-7.3 -18.95 -9.7 -18.35 Q-17.65 -16.65 -23.8 -16.45 L-24.95 -17.65 -17.6 -18.55 -15.05 -18.6 -9.7 -19.5 -5.45 -20.8 M-8.3 -27.5 L-6.5 -28.4 -1.9 -28.7 -8.3 -27.5 M16.2 -26.65 L16.8 -26.4 16.8 -19.35 16.7 -19.15 16.7 -18.95 16.15 -18.7 16.2 -26.65 M23.15 -7.6 L23.25 -7.6 23.8 -4.0 23.8 3.05 Q23.85 4.55 24.4 5.95 25.25 8.05 26.95 8.55 L26.9 9.0 22.8 7.65 15.8 11.4 15.8 10.7 16.7 10.7 Q20.35 8.65 21.75 5.7 L22.05 4.9 22.5 3.35 23.15 -1.2 23.15 -7.6 M26.45 10.3 L25.25 11.6 24.75 11.55 24.7 12.0 24.2 12.25 Q23.85 12.45 23.55 12.6 L23.2 9.55 26.45 10.3 M15.9 3.0 L15.95 2.95 15.95 6.5 15.85 6.85 15.9 3.0 M30.25 -17.45 L29.7 -17.35 29.0 -17.55 28.55 -19.3 28.8 -19.65 Q29.15 -20.05 29.65 -20.05 L30.25 -17.45 M28.5 -18.25 L28.4 -18.7 28.45 -19.0 28.5 -18.25 M26.75 -23.1 L26.8 -23.0 26.85 -22.35 26.75 -23.1 M27.45 -17.85 L28.95 -6.9 28.95 -6.75 28.85 -6.65 28.75 -6.65 27.45 -17.85 M27.7 -7.6 L27.2 -8.3 Q26.15 -9.9 25.85 -11.55 L25.45 -12.75 Q24.95 -16.45 24.9 -18.35 L24.55 -22.75 25.05 -23.2 Q25.3 -23.4 25.7 -23.45 L27.7 -7.6 M31.1 8.55 L30.65 8.75 29.35 -2.5 30.25 -1.35 31.1 8.55 M33.55 2.3 Q33.95 2.95 33.95 3.65 L33.95 4.0 33.8 3.35 33.55 2.3 M25.7 18.0 L27.0 16.8 27.25 16.6 27.25 16.65 Q27.25 17.25 26.9 17.65 26.55 18.05 26.05 18.05 L25.7 18.0 M32.6 14.7 L34.75 15.1 35.1 15.1 36.4 15.35 Q36.8 15.35 36.75 14.7 L36.35 13.05 36.95 12.95 37.3 12.95 38.25 17.0 32.0 15.45 32.6 14.7 M-46.7 -29.7 L-47.3 -28.75 -47.6 -26.6 -47.25 -24.4 -47.25 -24.3 -47.15 -24.25 -47.7 -23.95 -48.1 -24.7 -48.95 -28.1 Q-49.05 -29.3 -47.9 -30.45 L-46.7 -29.7 M-27.4 -26.95 Q-27.85 -26.7 -28.45 -26.6 L-29.95 -26.25 -31.4 -26.5 Q-32.3 -26.65 -32.25 -27.15 L-32.25 -27.2 -29.05 -26.85 -27.4 -26.95 M-9.3 -33.85 L-9.1 -33.65 -9.7 -33.5 -12.3 -33.15 -13.3 -33.15 -13.2 -33.3 -9.7 -33.75 -9.3 -33.85 M-19.1 -26.25 L-19.15 -26.2 -19.35 -26.15 -19.4 -26.05 -20.65 -25.65 -22.8 -25.65 -22.45 -26.55 -19.1 -26.25" fill="#8a8a8a" fill-rule="evenodd" stroke="none"/>
    <path d="M23.0 -38.5 L21.1 -37.6 Q20.5 -37.3 20.3 -36.35 19.95 -36.95 19.85 -37.65 20.7 -38.25 22.95 -38.5 L23.0 -38.5 M25.6 -34.6 L25.45 -34.75 Q25.1 -35.25 25.1 -35.95 L25.3 -36.9 25.45 -36.55 Q25.9 -35.3 25.6 -34.6 M22.9 -25.05 L22.8 -25.0 Q22.5 -24.7 22.1 -24.7 21.7 -24.7 21.4 -25.0 L21.1 -25.6 22.85 -25.15 22.9 -25.05 M0.0 -28.0 L0.05 -28.0 Q1.45 -27.1 1.45 -25.2 L-3.45 -23.35 Q-6.3 -22.3 -9.7 -21.2 L-22.0 -19.15 -25.5 -19.15 -25.55 -19.5 -25.4 -20.9 -23.4 -20.9 -20.55 -21.45 Q-18.15 -21.95 -17.7 -22.4 L-18.35 -23.15 -24.05 -23.15 -22.6 -23.95 -17.35 -24.2 -15.5 -24.2 Q-14.95 -24.2 -14.15 -24.5 L-9.7 -25.05 -5.55 -26.2 -3.25 -26.5 -2.65 -26.8 0.0 -28.0 M18.05 -25.35 L18.25 -25.05 Q18.95 -23.9 18.95 -22.75 18.95 -21.1 18.05 -20.0 L18.05 -25.35 M18.05 -12.15 Q18.4 -12.55 18.9 -12.55 L19.05 -12.55 19.05 -8.95 18.9 -8.95 Q18.4 -8.95 18.05 -9.35 L18.05 -12.15 M17.1 1.8 L19.45 -0.4 20.1 -4.75 Q20.5 -7.4 22.15 -7.6 L22.15 -3.8 21.9 -1.75 21.25 1.5 20.9 2.4 19.05 5.9 Q17.6 8.3 16.9 8.3 L16.65 8.25 16.55 6.7 17.0 2.6 17.1 1.8 M23.6 -7.55 Q25.35 -7.2 25.05 -5.4 24.4 -3.5 24.15 -2.0 L23.85 -4.35 23.6 -7.55 M25.25 2.65 L25.45 3.15 26.4 5.55 Q25.4 3.9 25.25 2.75 L25.25 2.65 M23.1 -14.9 L22.65 -15.4 Q21.95 -16.45 21.95 -17.6 L22.55 -19.85 23.15 -21.25 23.15 -18.9 23.1 -14.9 M-41.1 -25.85 Q-40.9 -26.5 -40.15 -27.05 L-39.65 -26.95 Q-37.5 -26.45 -37.05 -25.95 -35.3 -25.25 -33.15 -24.8 L-33.55 -24.25 -37.3 -24.7 -39.2 -25.6 -40.8 -25.9 -41.1 -25.85 M-36.9 -29.2 L-36.1 -29.95 -33.7 -29.95 -33.6 -30.05 -33.45 -30.45 Q-33.4 -31.05 -34.9 -31.3 L-35.05 -31.3 -34.65 -31.8 -28.45 -30.45 -25.8 -30.4 -25.8 -30.1 Q-25.8 -29.1 -26.1 -28.4 L-30.0 -28.4 -30.0 -28.45 -36.9 -29.2 M-36.85 -21.45 L-37.4 -21.45 Q-40.25 -21.45 -40.9 -22.5 L-41.15 -24.0 -38.95 -22.55 Q-37.75 -21.85 -36.85 -21.45 M-8.9 -32.2 L-9.5 -31.35 Q-10.15 -30.8 -11.1 -30.8 -12.05 -30.8 -12.7 -31.35 L-13.05 -31.75 -9.7 -32.1 -8.9 -32.2 M-6.15 -23.85 L-6.8 -24.5 -9.7 -24.15 -12.9 -24.15 -14.6 -23.5 -14.85 -22.75 -14.9 -21.95 -10.4 -22.05 -9.7 -22.1 Q-7.05 -22.8 -6.15 -23.85" fill="#e0e0e0" fill-rule="evenodd" stroke="none"/>
    <path d="M-25.4 -20.9 Q-25.1 -22.35 -24.05 -23.15 L-18.35 -23.15 -17.7 -22.4 Q-18.15 -21.95 -20.55 -21.45 L-23.4 -20.9 -25.4 -20.9 M19.05 -12.55 Q19.5 -12.5 19.85 -12.0 20.25 -11.5 20.25 -10.75 20.25 -10.0 19.85 -9.45 L19.05 -8.95 19.05 -12.55 M-41.15 -24.0 L-41.2 -25.35 -41.1 -25.85 -40.8 -25.9 -39.2 -25.6 -37.3 -24.7 -33.55 -24.25 -34.45 -22.55 Q-34.95 -21.6 -36.85 -21.45 -37.75 -21.85 -38.95 -22.55 L-41.15 -24.0 M-36.1 -29.95 L-35.75 -30.4 -35.05 -31.3 -34.9 -31.3 Q-33.4 -31.05 -33.45 -30.45 L-33.6 -30.05 -33.7 -29.95 -36.1 -29.95 M-6.15 -23.85 Q-7.05 -22.8 -9.7 -22.1 L-10.4 -22.05 -14.9 -21.95 -14.85 -22.75 -14.6 -23.5 -12.9 -24.15 -9.7 -24.15 -6.8 -24.5 -6.15 -23.85" fill="#ffffff" fill-rule="evenodd" stroke="none"/>
  </g>
</svg>
