<?xml version="1.0" encoding="UTF-8" standalone="no"?>
<svg xmlns:ffdec="https://www.free-decompiler.com/flash" xmlns:xlink="http://www.w3.org/1999/xlink" ffdec:objectType="shape" height="51.65px" width="80.8px" xmlns="http://www.w3.org/2000/svg">
  <g transform="matrix(1.0, 0.0, 0.0, 1.0, 50.1, 40.2)">
    <path d="M12.7 -25.85 L12.9 -25.85 12.65 -25.7 12.7 -25.85 M16.15 -21.0 L15.8 -20.8 14.95 -20.45 14.95 -25.5 16.2 -24.95 16.15 -21.0 M26.05 -20.65 L26.95 -21.55 27.85 -14.25 26.75 -14.95 26.05 -20.65 M23.75 7.95 Q23.45 9.3 22.25 10.2 L22.2 9.5 18.6 11.45 Q17.3 11.45 16.65 10.95 L22.8 7.65 23.75 7.95 M-48.95 -28.35 L-48.95 -28.1 -48.35 -25.8 -48.45 -25.75 Q-49.05 -25.35 -49.8 -25.3 L-50.1 -28.6 -48.95 -28.35 M-11.05 -18.05 L-11.05 -17.7 -11.15 -16.75 -16.15 -15.8 -18.55 -16.45 -19.4 -16.75 -11.05 -18.05" fill="#464646" fill-rule="evenodd" stroke="none"/>
    <path d="M21.45 -39.2 L21.15 -38.5 Q20.85 -38.2 20.4 -38.2 19.95 -38.2 19.65 -38.5 19.35 -38.8 19.35 -39.2 19.35 -39.6 19.65 -39.9 L20.4 -40.2 21.15 -39.9 21.45 -39.2 M5.9 -34.5 Q4.85 -35.35 4.85 -35.7 4.85 -36.15 5.1 -36.35 6.35 -35.85 6.15 -35.0 L5.9 -34.5 M17.0 -35.7 L18.15 -34.15 18.5 -32.55 18.4 -32.65 Q17.25 -33.9 17.0 -35.7 M16.8 -24.5 Q17.6 -23.75 17.5 -22.8 17.4 -22.1 16.8 -21.5 L16.8 -24.5 M23.15 -3.3 L23.05 -3.15 Q22.75 -2.8 22.35 -2.8 L22.05 -2.85 22.15 -3.8 22.15 -5.35 22.35 -5.4 Q22.75 -5.4 23.05 -5.0 L23.15 -4.85 23.15 -3.3 M16.35 10.7 L16.0 10.15 15.95 8.65 Q15.95 6.6 16.65 5.4 L16.55 6.7 16.65 8.25 16.9 8.3 Q17.6 8.3 19.05 5.9 L20.35 3.65 Q21.4 3.7 22.25 4.3 L22.05 4.9 21.75 5.7 Q20.35 8.65 16.7 10.7 L16.35 10.7 M-3.3 -23.4 Q-4.15 -22.7 -5.8 -22.4 L-6.35 -22.3 -3.45 -23.35 -3.3 -23.4 M-33.15 -31.5 Q-32.4 -32.1 -31.1 -32.1 -28.3 -32.1 -28.15 -30.45 L-28.45 -30.45 -33.15 -31.5 M-28.85 -28.4 Q-29.8 -27.45 -31.9 -27.45 L-33.75 -27.7 -33.9 -28.4 -33.95 -28.7 -30.0 -28.45 -30.0 -28.4 -28.85 -28.4 M-37.7 -26.35 L-37.3 -26.35 Q-36.2 -26.2 -35.75 -25.5 L-37.05 -25.95 -37.7 -26.35 M-22.1 -17.95 Q-23.05 -18.55 -23.05 -19.05 L-23.05 -19.15 -22.0 -19.15 -13.15 -20.55 Q-11.95 -20.05 -11.4 -19.15 L-15.05 -18.6 -17.6 -18.55 -22.1 -17.95" fill="#b4b4b4" fill-rule="evenodd" stroke="none"/>
    <path d="M5.1 -36.35 L5.5 -36.55 Q8.05 -36.55 9.25 -35.6 10.1 -34.9 10.1 -33.9 L10.0 -33.15 Q9.75 -32.8 9.1 -32.8 8.2 -32.8 6.5 -34.05 L5.9 -34.5 6.15 -35.0 Q6.35 -35.85 5.1 -36.35 M18.5 -32.55 L18.45 -32.3 18.1 -32.05 Q16.15 -33.15 15.95 -34.95 16.1 -35.85 16.7 -35.95 L17.0 -35.7 Q17.25 -33.9 18.4 -32.65 L18.5 -32.55 M16.2 -24.95 L16.3 -24.9 16.8 -24.5 16.8 -21.5 16.15 -21.0 16.2 -24.95 M26.95 -21.55 L28.0 -14.15 27.85 -14.25 26.95 -21.55 M26.75 -14.95 Q25.15 -16.1 25.0 -17.1 L24.95 -17.35 Q24.95 -18.15 25.35 -19.3 L26.05 -20.65 26.75 -14.95 M23.15 -4.85 L23.35 -4.1 23.15 -3.3 23.15 -4.85 M29.95 2.25 L29.95 2.2 Q30.65 3.05 30.7 4.35 30.75 5.4 30.4 6.0 L29.95 2.25 M22.25 4.3 L22.55 4.5 Q23.8 5.55 23.8 7.15 L23.75 7.95 22.8 7.65 16.65 10.95 16.35 10.7 16.7 10.7 Q20.35 8.65 21.75 5.7 L22.05 4.9 22.25 4.3 M-48.35 -25.8 L-48.95 -28.1 -48.95 -28.35 -48.45 -28.1 Q-47.8 -27.65 -47.8 -26.95 -47.8 -26.3 -48.35 -25.8 M-11.4 -19.15 Q-11.15 -18.7 -11.05 -18.05 L-19.4 -16.75 Q-21.2 -17.4 -22.1 -17.95 L-17.6 -18.55 -15.05 -18.6 -11.4 -19.15" fill="#8a8a8a" fill-rule="evenodd" stroke="none"/>
    <path d="M22.05 -2.85 L21.65 -3.15 Q21.35 -3.55 21.35 -4.1 21.35 -4.65 21.65 -5.0 L22.15 -5.35 22.15 -3.8 22.05 -2.85 M16.65 5.4 Q17.6 3.75 19.9 3.65 L20.35 3.65 19.05 5.9 Q17.6 8.3 16.9 8.3 L16.65 8.25 16.55 6.7 16.65 5.4 M-9.7 -24.15 L-8.95 -24.8 -2.85 -26.05 -2.55 -25.95 -2.45 -25.2 Q-2.45 -24.1 -3.3 -23.4 L-3.45 -23.35 -6.35 -22.3 -9.5 -22.15 Q-7.0 -22.85 -6.15 -23.85 L-6.8 -24.5 -9.7 -24.15 M-28.15 -30.45 L-28.2 -29.75 Q-28.35 -28.95 -28.85 -28.4 L-30.0 -28.4 -30.0 -28.45 -33.95 -28.7 -34.05 -29.6 -34.0 -29.95 -33.7 -29.95 -33.6 -30.05 -33.45 -30.45 -33.7 -30.9 -33.3 -31.4 -33.15 -31.5 -28.45 -30.45 -28.15 -30.45 M-35.75 -25.5 L-35.55 -24.5 -35.55 -24.45 -37.3 -24.7 -38.9 -25.5 Q-38.65 -26.35 -37.7 -26.35 L-37.05 -25.95 -35.75 -25.5 M-23.05 -19.15 Q-22.95 -21.55 -17.05 -21.3 -14.6 -21.2 -13.15 -20.55 L-22.0 -19.15 -23.05 -19.15" fill="#e0e0e0" fill-rule="evenodd" stroke="none"/>
    <path d="M-9.5 -22.15 L-9.55 -22.15 -9.8 -22.35 -9.9 -23.15 -9.7 -24.15 -6.8 -24.5 -6.15 -23.85 Q-7.0 -22.85 -9.5 -22.15 M-34.0 -29.95 L-33.7 -30.9 -33.45 -30.45 -33.6 -30.05 -33.7 -29.95 -34.0 -29.95 M-35.55 -24.45 L-35.65 -23.65 Q-35.8 -23.1 -36.5 -22.8 L-38.5 -22.8 Q-38.95 -23.4 -39.05 -24.65 L-38.9 -25.5 -37.3 -24.7 -35.55 -24.45" fill="#ffffff" fill-rule="evenodd" stroke="none"/>
  </g>
</svg>
