<?xml version="1.0" encoding="UTF-8" standalone="no"?>
<svg xmlns:ffdec="https://www.free-decompiler.com/flash" xmlns:xlink="http://www.w3.org/1999/xlink" ffdec:objectType="shape" height="42.2px" width="65.95px" xmlns="http://www.w3.org/2000/svg">
  <g transform="matrix(1.0, 0.0, 0.0, 1.0, 32.4, 10.55)">
    <path d="M-31.05 -10.5 L-30.9 -10.5 -30.7 -10.25 -30.65 -9.0 -30.85 -8.15 Q-30.85 -7.9 -31.0 -7.9 L-31.25 -7.95 -31.35 -8.25 -31.4 -8.65 -31.35 -8.95 -31.25 -9.15 -31.25 -9.75 -31.15 -10.3 -31.05 -10.5 M-31.95 -0.95 L-32.0 -0.65 Q-32.1 -0.4 -32.3 -0.5 L-32.4 -0.85 -32.3 -3.0 -32.0 -4.5 -31.65 -4.9 -31.6 -4.15 -31.6 -3.45 -31.8 -2.9 -31.95 -0.95 M-23.85 -9.5 L-23.75 -10.1 Q-23.5 -10.55 -22.9 -10.55 -22.45 -10.55 -21.95 -10.2 L-21.1 -9.15 -20.85 -8.5 Q-20.55 -7.25 -21.0 -6.5 -21.35 -6.05 -21.6 -6.2 L-21.95 -6.7 -22.95 -7.65 -23.8 -8.65 -23.85 -9.5 M-26.5 -9.75 L-25.45 -9.7 -24.4 -9.15 -24.05 -8.5 -24.0 -8.2 Q-24.0 -7.9 -24.35 -7.8 -25.0 -8.35 -25.5 -8.4 L-25.95 -8.45 -26.5 -8.8 -26.8 -9.15 -26.85 -9.45 -26.8 -9.7 -26.5 -9.75 M-21.85 -8.55 L-22.0 -8.8 -22.2 -9.0 -22.8 -9.25 -22.6 -9.15 -22.5 -8.95 -21.9 -8.5 -21.85 -8.55 M-25.6 -9.25 L-25.55 -9.2 -25.35 -9.2 -25.65 -9.4 -25.75 -9.3 -25.6 -9.25 M-27.3 -0.2 L-27.0 -0.25 -26.8 -0.05 -26.4 0.1 -26.2 0.6 -26.35 3.1 -26.6 4.3 Q-26.95 5.0 -27.4 5.2 -28.1 5.55 -28.55 5.05 -28.9 5.7 -29.6 5.3 -30.15 4.9 -29.85 3.85 -29.55 2.9 -28.85 2.1 L-27.8 0.8 -27.3 -0.2 M-13.6 -7.6 L-14.5 -7.5 -15.45 -6.95 -16.25 -6.3 -16.7 -5.35 -15.7 -5.9 -15.15 -6.05 -14.1 -6.45 -13.9 -6.8 -13.6 -7.6 M-14.65 -5.9 L-15.55 -5.5 Q-16.25 -5.15 -16.75 -4.4 -16.95 -4.1 -17.1 -4.1 L-17.4 -4.45 -17.35 -4.9 Q-17.8 -4.9 -17.9 -5.35 L-17.75 -6.1 Q-17.35 -7.15 -16.4 -7.9 -15.5 -8.7 -14.35 -8.85 -13.25 -8.95 -12.8 -8.35 -12.3 -7.55 -13.1 -6.75 L-14.65 -5.9 M-8.55 -7.75 L-6.85 -7.45 -6.25 -6.8 Q-6.05 -6.35 -6.25 -5.95 L-6.75 -5.4 -8.2 -5.1 -9.8 -5.25 -11.35 -5.1 -11.85 -5.05 Q-12.15 -5.05 -12.25 -5.35 L-11.95 -5.9 -11.3 -6.65 Q-10.45 -7.55 -8.55 -7.75 M-7.2 -6.1 L-7.1 -6.2 -7.25 -6.45 -7.65 -6.7 -10.05 -6.35 -9.05 -6.1 -8.7 -6.05 -7.75 -6.0 -7.2 -6.1 M-10.8 9.45 L-10.75 8.4 -10.45 7.25 -9.95 6.2 -9.5 5.25 -9.05 4.45 Q-8.9 4.55 -8.9 4.25 L-8.8 4.0 -8.65 3.95 -7.75 3.9 -7.1 4.45 -6.65 5.1 -5.95 6.65 -5.45 7.4 Q-4.6 8.25 -4.85 9.4 L-4.95 9.65 -5.25 9.85 Q-6.7 10.35 -7.8 9.4 L-8.1 10.05 -8.45 10.45 -9.0 10.45 -10.0 10.4 -10.6 9.8 -10.8 9.45 M-7.55 7.9 L-7.15 8.45 -6.55 8.9 Q-6.1 9.1 -5.8 8.9 -5.9 8.4 -6.45 7.6 L-7.2 6.35 -7.35 5.65 Q-7.5 5.2 -7.8 5.1 L-7.8 6.55 -7.55 7.9 M-8.7 8.35 L-8.8 7.9 -8.9 6.95 -8.9 5.95 -9.5 7.35 -9.9 8.65 -9.65 9.35 -9.2 9.4 -8.9 9.1 -8.85 8.7 -8.7 8.35 M-8.45 15.55 L-8.75 14.0 -8.65 13.1 -8.25 11.75 -7.95 11.35 Q-7.6 11.1 -7.15 11.35 L-6.6 11.9 Q-5.85 12.8 -5.55 13.9 -5.2 15.2 -5.6 16.1 L-5.95 16.55 -6.4 16.55 Q-7.9 16.35 -8.45 15.55 M-15.4 2.85 L-15.35 3.55 -15.2 3.9 -15.3 4.45 -15.4 4.75 -15.75 4.85 -16.05 4.6 -16.1 4.3 -16.3 4.1 -16.35 3.85 -16.4 2.95 -16.4 2.35 -15.95 1.95 Q-15.6 1.95 -15.5 2.3 L-15.4 2.85 M-14.1 8.85 L-13.95 9.45 -14.15 10.1 -14.45 10.35 -14.65 10.15 -15.1 9.35 -15.2 8.7 -15.35 8.0 -15.35 7.45 Q-15.15 7.15 -14.95 7.2 -14.8 7.2 -14.6 7.4 L-14.3 8.0 -14.15 8.45 -14.1 8.85 M-13.5 16.0 L-13.65 15.5 -13.6 14.2 -13.65 13.95 -13.45 13.75 -13.25 13.9 -13.2 15.2 -13.1 15.65 -13.15 16.0 -13.4 16.15 -13.5 16.0 M-11.1 20.55 L-11.4 20.4 -11.5 20.2 -12.05 19.6 -12.45 19.0 -12.05 18.6 -10.85 19.6 Q-10.5 19.95 -10.55 20.15 -10.55 20.65 -11.1 20.55 M-6.75 15.75 L-6.55 15.7 -6.35 15.35 -6.5 14.9 -6.9 13.8 -7.2 13.4 Q-7.3 13.0 -7.5 12.95 L-7.85 14.0 Q-8.15 14.65 -7.85 15.1 L-7.6 15.65 -6.75 15.75 M-10.15 21.8 Q-10.25 21.25 -9.7 21.15 -9.35 21.1 -8.75 21.5 L-6.65 22.95 Q-6.4 23.4 -6.9 23.7 L-7.75 23.75 -8.5 23.25 -9.75 22.3 -10.15 21.8 M0.25 19.1 L0.3 19.1 Q0.55 19.1 0.55 19.45 L0.35 19.9 -0.45 21.1 -1.05 21.85 -1.45 21.95 Q-1.75 21.85 -1.65 21.5 L-1.45 21.05 -0.65 19.8 Q-0.05 19.1 0.25 19.1 M-3.05 22.2 L-2.6 22.25 -2.4 22.5 Q-2.3 22.75 -2.55 23.1 L-3.05 23.5 -4.1 24.45 -4.45 24.75 -4.85 24.8 Q-5.2 24.65 -5.1 24.2 L-4.7 23.65 -3.8 22.85 -3.4 22.55 -3.05 22.2 M-22.05 4.4 L-22.1 4.85 -22.4 5.05 -22.6 4.7 -22.65 4.15 -22.55 3.75 -22.5 2.7 -22.45 2.35 -22.2 2.05 -22.1 2.0 Q-21.7 2.1 -21.7 2.35 L-21.75 2.75 -21.75 3.2 -21.85 3.6 -21.85 4.0 -22.05 4.4 M-22.35 9.05 Q-22.6 9.4 -22.95 9.4 L-23.5 9.1 -23.65 8.25 -23.5 6.6 -23.1 6.05 -22.6 5.95 -22.25 6.2 Q-22.0 6.45 -22.1 6.85 L-22.25 8.2 -22.35 9.05 M-27.25 2.05 L-27.55 2.65 -27.55 3.1 -27.8 3.85 -28.1 4.7 -27.95 4.85 -27.75 4.8 -27.35 4.65 Q-27.0 4.45 -27.3 4.25 L-27.2 3.95 -26.95 1.5 -27.25 2.05 M-29.55 4.25 L-29.15 4.5 -28.7 3.5 -28.25 2.7 -28.1 2.1 -27.8 1.6 -28.45 2.0 -29.1 3.05 -29.35 3.65 -29.55 3.9 -29.55 4.25 M-28.3 10.2 L-28.55 10.6 -29.05 10.75 -29.6 10.75 -29.9 10.7 -30.0 10.3 -30.0 9.3 -29.75 8.35 -29.8 7.15 -29.55 6.65 Q-29.35 6.45 -29.05 6.5 -28.8 6.55 -28.65 6.9 -28.35 7.25 -28.2 7.75 L-28.1 9.1 -28.15 9.75 -28.3 10.2 M-29.4 10.1 L-28.85 10.15 -28.85 9.7 -28.75 9.6 -28.7 9.4 -28.8 8.35 -28.95 8.15 -29.05 8.25 -29.15 8.5 -29.25 8.75 -29.35 9.25 -29.4 10.1 M-23.6 13.2 L-23.75 13.4 -24.15 13.45 -24.65 13.15 -24.75 12.7 -24.7 12.25 -24.35 11.2 Q-24.05 10.7 -23.65 10.75 L-23.25 11.0 -23.3 11.7 -23.3 12.2 -23.6 13.2 M-26.45 14.4 L-25.75 14.2 Q-25.4 14.15 -25.1 14.5 -24.8 14.9 -25.05 15.2 L-25.35 15.5 -26.75 16.1 -27.2 16.15 -27.55 15.8 Q-27.7 15.55 -27.5 15.25 L-27.3 14.95 -26.95 14.65 -26.45 14.4 M21.9 5.95 L22.3 6.15 Q22.55 6.4 22.3 6.6 L21.85 6.8 21.4 6.9 20.85 6.8 19.8 6.75 Q19.1 6.85 18.8 6.4 18.65 6.05 18.9 5.7 19.2 5.45 19.8 5.45 L21.45 5.75 21.9 5.95 M25.05 7.45 L24.4 7.45 Q23.95 7.35 23.9 7.0 23.8 6.75 24.0 6.55 24.15 6.3 24.45 6.3 L24.5 6.2 25.35 6.35 Q25.65 6.45 25.8 6.65 L25.65 7.25 25.05 7.45 M20.4 24.25 Q20.1 24.15 20.1 23.85 L20.2 23.3 20.5 22.3 20.8 21.0 21.05 20.35 Q21.25 20.0 21.6 20.1 22.2 20.2 22.1 20.85 L21.85 21.75 21.5 23.0 20.9 24.05 Q20.7 24.35 20.4 24.25 M15.4 5.5 L13.1 4.55 12.75 4.15 Q12.75 3.75 13.2 3.75 L13.8 4.0 14.3 4.35 15.05 4.65 15.65 4.8 16.15 5.2 15.85 5.55 15.4 5.5 M8.75 1.5 L9.45 1.65 10.65 2.6 10.85 2.85 11.3 3.1 Q11.4 3.45 11.0 3.45 L10.55 3.15 8.9 2.8 8.4 2.6 Q8.1 2.2 8.25 1.95 8.35 1.5 8.75 1.5 M0.65 14.8 L0.65 13.75 0.75 12.4 0.85 12.1 Q0.95 11.95 1.15 11.95 L1.45 12.35 1.55 14.85 1.5 15.3 1.15 15.6 0.75 15.3 0.65 14.8 M4.35 11.85 L5.0 12.05 5.55 12.5 6.0 12.65 7.2 13.6 7.45 14.0 7.15 14.3 6.65 14.25 6.05 14.05 Q4.6 13.55 4.15 13.05 L3.85 12.6 3.95 12.05 4.35 11.85 M13.25 17.25 L12.85 17.5 12.3 17.4 9.6 16.0 Q9.4 15.7 9.5 15.45 9.55 15.1 10.05 15.1 L10.7 15.4 12.8 16.6 13.15 16.85 13.25 17.25 M16.45 18.0 L17.35 18.3 17.8 18.5 18.25 18.85 19.25 19.45 19.35 19.9 19.05 20.2 18.75 20.1 17.3 19.65 16.6 19.25 15.85 18.9 Q15.5 18.55 15.7 18.15 15.95 17.9 16.45 18.0 M19.35 28.95 L18.75 29.9 18.55 30.35 17.8 31.5 17.6 31.65 17.3 31.6 17.15 31.3 17.45 30.6 18.65 27.95 Q18.95 27.2 19.3 27.15 19.6 27.15 19.75 27.4 L19.9 27.95 19.35 28.95" fill="#b4b4b4" fill-rule="evenodd" stroke="none"/>
    <path d="M32.3 6.35 Q32.3 7.1 31.7 7.65 L31.65 7.65 Q31.1 8.2 30.25 8.25 29.4 8.25 28.8 7.65 28.2 7.15 28.25 6.35 28.25 5.55 28.8 5.0 L28.75 5.05 Q29.4 4.45 30.25 4.5 31.1 4.45 31.7 5.0 32.25 5.55 32.3 6.35 M31.15 16.95 Q31.15 17.7 30.55 18.25 L30.5 18.25 Q29.95 18.8 29.1 18.85 28.25 18.85 27.65 18.25 27.05 17.75 27.1 16.95 27.1 16.15 27.65 15.6 L27.6 15.65 Q28.25 15.05 29.1 15.1 29.95 15.05 30.55 15.6 31.1 16.15 31.15 16.95 M28.8 26.95 Q28.8 27.7 28.2 28.25 L28.15 28.25 Q27.6 28.8 26.75 28.85 25.9 28.85 25.3 28.25 24.7 27.75 24.75 26.95 24.75 26.15 25.3 25.6 L25.25 25.65 Q25.9 25.05 26.75 25.1 27.6 25.05 28.2 25.6 28.75 26.15 28.8 26.95" fill="#e0e0e0" fill-rule="evenodd" stroke="none"/>
    <path d="M32.3 6.35 Q32.25 5.55 31.7 5.0 31.1 4.45 30.25 4.5 29.4 4.45 28.75 5.05 L28.8 5.0 Q28.25 5.55 28.25 6.35 28.2 7.15 28.8 7.65 29.4 8.25 30.25 8.25 31.1 8.2 31.65 7.65 L31.7 7.65 Q32.3 7.1 32.3 6.35 M32.5 8.6 L32.55 8.55 Q31.6 9.5 30.25 9.5 28.9 9.45 27.95 8.55 27.0 7.65 27.0 6.35 26.95 5.05 27.9 4.1 L27.95 4.1 Q28.9 3.25 30.25 3.25 31.6 3.25 32.55 4.1 33.55 5.05 33.55 6.35 33.5 7.7 32.5 8.6 M31.15 16.95 Q31.1 16.15 30.55 15.6 29.95 15.05 29.1 15.1 28.25 15.05 27.6 15.65 L27.65 15.6 Q27.1 16.15 27.1 16.95 27.05 17.75 27.65 18.25 28.25 18.85 29.1 18.85 29.95 18.8 30.5 18.25 L30.55 18.25 Q31.15 17.7 31.15 16.95 M29.0 29.2 L29.05 29.15 Q28.1 30.1 26.75 30.1 25.4 30.05 24.45 29.15 23.5 28.25 23.5 26.95 23.45 25.65 24.4 24.7 L24.45 24.7 Q25.4 23.85 26.75 23.85 28.1 23.85 29.05 24.7 30.05 25.65 30.05 26.95 30.0 28.3 29.0 29.2 M31.35 19.2 L31.4 19.15 Q30.45 20.1 29.1 20.1 27.75 20.05 26.8 19.15 25.85 18.25 25.85 16.95 25.8 15.65 26.75 14.7 L26.8 14.7 Q27.75 13.85 29.1 13.85 30.45 13.85 31.4 14.7 32.4 15.65 32.4 16.95 32.35 18.3 31.35 19.2 M28.8 26.95 Q28.75 26.15 28.2 25.6 27.6 25.05 26.75 25.1 25.9 25.05 25.25 25.65 L25.3 25.6 Q24.75 26.15 24.75 26.95 24.7 27.75 25.3 28.25 25.9 28.85 26.75 28.85 27.6 28.8 28.15 28.25 L28.2 28.25 Q28.8 27.7 28.8 26.95" fill="#616161" fill-rule="evenodd" stroke="none"/>
  </g>
</svg>
