<?xml version="1.0" encoding="UTF-8" standalone="no"?>
<svg xmlns:ffdec="https://www.free-decompiler.com/flash" xmlns:xlink="http://www.w3.org/1999/xlink" ffdec:objectType="shape" height="4.25px" width="5.5px" xmlns="http://www.w3.org/2000/svg">
  <g transform="matrix(1.0, 0.0, 0.0, 1.0, 2.9, 2.05)">
    <path d="M1.9 -0.15 Q1.75 -0.4 1.75 -0.65 1.35 -1.1 0.95 -1.1 L0.15 -1.25 -2.1 -0.75 -2.35 -0.65 -1.2 0.75 Q-0.1 1.75 1.1 1.75 L1.75 1.4 2.1 0.65 1.9 -0.15 M1.75 2.2 L0.6 2.2 Q-2.9 0.4 -2.9 -0.85 2.6 -3.9 2.6 0.65 L2.6 1.4 1.75 2.2" fill="#5f2b03" fill-rule="evenodd" stroke="none"/>
    <path d="M1.9 -0.15 L2.1 0.65 1.75 1.4 1.1 1.75 Q-0.1 1.75 -1.2 0.75 L-2.35 -0.65 -2.1 -0.75 0.15 0.45 1.9 -0.15" fill="#cc6c02" fill-rule="evenodd" stroke="none"/>
    <path d="M-2.1 -0.75 L0.15 -1.25 0.95 -1.1 Q1.35 -1.1 1.75 -0.65 1.75 -0.4 1.9 -0.15 L0.15 0.45 -2.1 -0.75" fill="#ffed0f" fill-rule="evenodd" stroke="none"/>
  </g>
</svg>
