<?xml version="1.0" encoding="UTF-8" standalone="no"?>
<svg xmlns:ffdec="https://www.free-decompiler.com/flash" xmlns:xlink="http://www.w3.org/1999/xlink" ffdec:objectType="shape" height="22.2px" width="82.3px" xmlns="http://www.w3.org/2000/svg">
  <g transform="matrix(1.0, 0.0, 0.0, 1.0, 37.9, 22.35)">
    <path d="M5.7 -1.75 L5.7 -2.85 5.8 -5.5 6.0 -8.8 6.25 -10.0 6.6 -10.1 Q6.8 -9.95 6.85 -10.35 L7.6 -9.2 Q7.85 -9.9 8.25 -10.0 L8.6 -8.8 8.95 -5.9 9.0 -5.5 9.1 -3.1 9.15 -1.75 5.7 -1.75 M15.2 -2.05 L15.2 -3.7 15.2 -5.85 15.05 -7.9 Q15.05 -8.6 15.35 -9.1 L16.05 -9.8 16.45 -9.2 16.95 -7.8 17.25 -6.0 17.4 -3.9 17.4 -2.2 15.2 -2.05 M22.85 -3.05 L22.85 -8.9 24.9 -8.9 24.9 -3.45 22.45 -2.95 22.85 -3.05 M-16.8 -3.8 L-16.65 -5.0 -16.2 -7.8 -16.15 -7.95 -16.15 -8.05 -15.6 -9.35 -15.4 -9.25 Q-15.2 -8.95 -15.1 -7.75 L-15.2 -4.7 -15.3 -3.45 -16.8 -3.8 M-11.5 -2.75 L-11.35 -4.0 -11.05 -7.05 -10.65 -9.7 -10.45 -9.7 Q-9.7 -9.15 -9.3 -9.15 L-9.25 -2.4 -11.5 -2.75 M-3.6 -1.95 L-3.6 -3.05 -3.6 -4.7 -3.6 -6.05 -3.4 -8.5 -2.95 -9.3 -2.6 -9.25 Q-2.25 -9.0 -1.85 -9.1 L-1.55 -9.15 -1.3 -9.15 -1.15 -5.8 -1.1 -2.9 -1.1 -1.95 -3.6 -1.95" fill="#ffffff" fill-rule="evenodd" stroke="none"/>
    <path d="M9.15 -1.75 L9.1 -3.1 9.0 -5.5 8.95 -5.9 8.6 -8.8 8.25 -10.0 Q7.85 -9.9 7.6 -9.2 L6.85 -10.35 Q6.8 -9.95 6.6 -10.1 L6.25 -10.0 6.0 -8.8 5.8 -5.5 5.7 -2.85 5.7 -1.75 0.65 -1.85 -1.1 -1.95 -1.1 -2.9 -1.15 -5.8 -1.3 -9.15 -1.55 -9.15 -1.85 -9.1 Q-2.25 -9.0 -2.6 -9.25 L-2.95 -9.3 -3.4 -8.5 -3.6 -6.05 -3.6 -4.7 -3.6 -3.05 -3.6 -1.95 -4.75 -2.0 -9.25 -2.4 -9.3 -9.15 Q-9.7 -9.15 -10.45 -9.7 L-10.65 -9.7 -11.05 -7.05 -11.35 -4.0 -11.5 -2.75 -15.3 -3.45 -15.2 -4.7 -15.1 -7.75 Q-15.2 -8.95 -15.4 -9.25 L-15.6 -9.35 -16.15 -8.05 -16.15 -7.95 -16.2 -7.8 -16.65 -5.0 -16.8 -3.8 -21.35 -4.9 -20.95 -6.1 -20.8 -7.1 -20.8 -7.7 -20.8 -7.85 -20.85 -8.9 -20.95 -9.95 Q-20.95 -11.3 -18.25 -11.55 L-16.85 -11.65 -16.75 -11.65 Q-9.35 -9.95 -6.65 -9.95 L-4.75 -10.0 0.65 -10.25 11.3 -10.75 24.1 -11.55 30.6 -12.4 31.5 -12.2 31.65 -12.15 31.6 -12.15 31.8 -12.05 32.15 -8.9 32.35 -6.7 32.5 -5.0 24.9 -3.45 24.9 -8.9 22.85 -8.9 22.85 -3.05 17.4 -2.2 17.4 -3.9 17.25 -6.0 16.95 -7.8 16.45 -9.2 16.05 -9.8 15.35 -9.1 Q15.05 -8.6 15.05 -7.9 L15.2 -5.85 15.2 -3.7 15.2 -2.05 9.15 -1.75" fill="#e0e0e0" fill-rule="evenodd" stroke="none"/>
    <path d="M32.5 -5.0 L32.35 -6.7 32.15 -8.9 31.8 -12.05 31.6 -12.15 31.65 -12.15 31.5 -12.2 30.6 -12.4 24.1 -11.55 11.3 -10.75 0.65 -10.25 -4.75 -10.0 -6.65 -9.95 Q-9.35 -9.95 -16.75 -11.65 L-16.85 -11.65 -18.25 -11.55 Q-20.95 -11.3 -20.95 -9.95 L-20.85 -8.9 -20.8 -7.85 -20.8 -7.7 -20.8 -7.1 -20.95 -6.1 -21.35 -4.9 -25.0 -5.75 Q-27.05 -6.3 -29.25 -7.45 L-29.15 -8.7 -29.35 -11.2 -29.4 -11.5 Q-29.25 -13.55 -28.1 -14.25 L-26.5 -14.65 -15.2 -13.9 4.75 -12.5 4.75 -12.1 19.6 -13.1 28.45 -14.05 36.9 -15.3 37.25 -14.0 37.8 -11.3 37.9 -10.85 38.4 -8.75 38.7 -7.5 32.5 -5.0" fill="#b4b4b4" fill-rule="evenodd" stroke="none"/>
    <path d="M41.4 -20.85 L41.35 -20.8 41.9 -21.2 42.05 -21.3 42.2 -21.45 42.55 -18.6 42.7 -16.8 42.75 -16.3 42.85 -13.0 42.85 -12.65 42.8 -10.7 Q42.7 -9.3 42.45 -9.1 40.9 -8.7 38.7 -7.5 L38.4 -8.75 37.9 -10.85 37.8 -11.3 37.25 -14.0 36.9 -15.3 28.45 -14.05 19.6 -13.1 4.75 -12.1 4.75 -12.5 -15.2 -13.9 -26.5 -14.65 -28.1 -14.25 Q-29.25 -13.55 -29.4 -11.5 L-29.35 -11.2 -29.15 -8.7 -29.25 -7.45 -33.3 -8.6 Q-35.9 -9.55 -36.0 -11.65 L-36.0 -11.8 -35.9 -13.75 -35.85 -14.95 -35.75 -17.3 -35.75 -19.0 -35.8 -20.4 -35.75 -20.35 -34.95 -19.9 Q-30.5 -17.5 -19.5 -16.15 L3.7 -14.8 22.6 -15.8 Q36.0 -17.35 41.4 -20.85" fill="#8a8a8a" fill-rule="evenodd" stroke="none"/>
    <path d="M5.7 -1.75 L9.15 -1.75 15.2 -2.05 17.4 -2.2 22.85 -3.05 22.45 -2.95 24.9 -3.45 32.5 -5.0 38.7 -7.5 Q40.9 -8.7 42.45 -9.1 42.7 -9.3 42.8 -10.7 L42.85 -12.65 42.85 -13.0 42.75 -16.3 42.7 -16.8 42.55 -18.6 42.2 -21.45 42.05 -21.3 41.9 -21.2 41.35 -20.8 41.4 -20.85 42.75 -22.1 43.15 -22.35 43.65 -19.15 43.95 -16.9 44.25 -13.7 44.4 -11.5 44.4 -9.8 Q44.4 -8.5 39.45 -6.1 33.3 -3.1 24.3 -1.6 L9.75 -0.6 2.3 -0.35 0.65 -0.45 -4.75 -1.0 -14.05 -2.4 Q-37.9 -6.45 -37.9 -11.25 L-37.8 -12.65 -37.6 -14.65 -37.25 -18.05 -37.05 -19.5 -36.9 -21.0 -37.3 -21.75 -35.95 -20.8 -34.95 -19.9 -35.75 -20.35 -35.8 -20.4 -35.75 -19.0 -35.75 -17.3 -35.85 -14.95 -35.9 -13.75 -36.0 -11.8 -36.0 -11.65 Q-35.9 -9.55 -33.3 -8.6 L-29.25 -7.45 Q-27.05 -6.3 -25.0 -5.75 L-21.35 -4.9 -16.8 -3.8 -15.3 -3.45 -11.5 -2.75 -9.25 -2.4 -4.75 -2.0 -3.6 -1.95 -1.1 -1.95 0.65 -1.85 5.7 -1.75" fill="#464646" fill-rule="evenodd" stroke="none"/>
  </g>
</svg>
