<?xml version="1.0" encoding="UTF-8" standalone="no"?>
<svg xmlns:ffdec="https://www.free-decompiler.com/flash" xmlns:xlink="http://www.w3.org/1999/xlink" ffdec:objectType="shape" height="24.65px" width="39.65px" xmlns="http://www.w3.org/2000/svg">
  <g transform="matrix(1.0, 0.0, 0.0, 1.0, 19.8, 142.1)">
    <path d="M-12.85 -124.55 L-13.2 -124.5 Q-13.55 -124.5 -13.75 -124.8 L-14.0 -125.65 -13.75 -126.45 -13.2 -126.8 -12.6 -126.45 -12.4 -125.75 -12.4 -125.65 -12.6 -124.8 -12.85 -124.55 M-15.55 -129.2 L-15.35 -129.85 -14.85 -130.15 Q-14.55 -130.15 -14.35 -129.85 L-14.15 -129.2 -14.35 -128.5 Q-14.55 -128.25 -14.85 -128.25 -15.15 -128.25 -15.35 -128.5 L-15.55 -129.2 M-16.2 -124.0 L-15.8 -123.85 -15.65 -123.45 Q-15.65 -123.2 -15.8 -123.05 -15.95 -122.9 -16.2 -122.9 -16.45 -122.9 -16.6 -123.05 L-16.75 -123.45 -16.6 -123.85 -16.2 -124.0 M-11.35 -135.25 L-11.7 -135.4 -11.85 -135.75 -11.7 -136.1 -11.35 -136.25 -11.0 -136.1 -10.85 -135.75 -11.0 -135.4 -11.35 -135.25 M-12.3 -133.85 Q-11.9 -133.85 -11.6 -133.5 -11.3 -133.15 -11.3 -132.65 -11.3 -132.15 -11.6 -131.8 -11.9 -131.45 -12.3 -131.45 -12.7 -131.45 -13.0 -131.8 L-13.3 -132.65 -13.0 -133.5 Q-12.7 -133.85 -12.3 -133.85" fill="#e0e0e0" fill-rule="evenodd" stroke="none"/>
    <path d="M16.5 -133.8 L15.65 -133.6 10.65 -136.75 Q5.2 -139.9 2.4 -139.9 -2.75 -139.9 -6.6 -136.85 -10.45 -133.75 -10.9 -128.85 L-11.0 -127.5 -10.7 -125.95 -10.45 -125.25 -9.9 -124.15 -10.8 -123.6 -11.6 -123.1 -12.35 -122.65 -13.85 -121.8 -14.4 -121.5 Q-17.5 -119.75 -18.55 -119.4 L-18.75 -120.35 Q-17.9 -130.15 -13.85 -135.55 -9.8 -141.0 -1.6 -140.9 6.6 -140.85 12.05 -138.0 14.35 -136.75 16.75 -134.0 L16.5 -133.8 M17.05 -133.35 Q17.8 -131.95 18.25 -129.25 L18.65 -125.9 Q18.65 -123.5 17.75 -122.45 17.25 -121.9 16.15 -121.6 L15.85 -122.3 Q15.0 -124.2 12.9 -130.15 L13.3 -130.25 Q15.3 -130.95 15.55 -131.5 15.95 -132.5 17.05 -133.35 M-12.3 -133.85 Q-12.7 -133.85 -13.0 -133.5 L-13.3 -132.65 -13.0 -131.8 Q-12.7 -131.45 -12.3 -131.45 -11.9 -131.45 -11.6 -131.8 -11.3 -132.15 -11.3 -132.65 -11.3 -133.15 -11.6 -133.5 -11.9 -133.85 -12.3 -133.85 M-11.35 -135.25 L-11.0 -135.4 -10.85 -135.75 -11.0 -136.1 -11.35 -136.25 -11.7 -136.1 -11.85 -135.75 -11.7 -135.4 -11.35 -135.25 M-16.2 -124.0 L-16.6 -123.85 -16.75 -123.45 -16.6 -123.05 Q-16.45 -122.9 -16.2 -122.9 -15.95 -122.9 -15.8 -123.05 -15.65 -123.2 -15.65 -123.45 L-15.8 -123.85 -16.2 -124.0 M-15.55 -129.2 L-15.35 -128.5 Q-15.15 -128.25 -14.85 -128.25 -14.55 -128.25 -14.35 -128.5 L-14.15 -129.2 -14.35 -129.85 Q-14.55 -130.15 -14.85 -130.15 L-15.35 -129.85 -15.55 -129.2 M-12.85 -124.55 L-12.6 -124.8 -12.4 -125.65 -12.4 -125.75 -12.6 -126.45 -13.2 -126.8 -13.75 -126.45 -14.0 -125.65 -13.75 -124.8 Q-13.55 -124.5 -13.2 -124.5 L-12.85 -124.55" fill="#b4b4b4" fill-rule="evenodd" stroke="none"/>
    <path d="M17.05 -133.35 Q15.95 -132.5 15.55 -131.5 15.3 -130.95 13.3 -130.25 L12.9 -130.15 Q15.0 -124.2 15.85 -122.3 L16.15 -121.6 Q17.25 -121.9 17.75 -122.45 18.65 -123.5 18.65 -125.9 L18.25 -129.25 Q17.8 -131.95 17.05 -133.35 M16.5 -133.8 L16.75 -134.0 Q14.35 -136.75 12.05 -138.0 6.6 -140.85 -1.6 -140.9 -9.8 -141.0 -13.85 -135.55 -17.9 -130.15 -18.75 -120.35 L-18.55 -119.4 Q-17.5 -119.75 -14.4 -121.5 L-13.85 -121.8 -12.35 -122.65 -11.6 -123.1 -10.8 -123.6 -9.9 -124.15 -10.45 -125.25 -10.7 -125.95 -11.0 -127.5 -10.9 -128.85 Q-10.45 -133.75 -6.6 -136.85 -2.75 -139.9 2.4 -139.9 5.2 -139.9 10.65 -136.75 L15.65 -133.6 16.5 -133.8 M16.45 -120.4 Q15.2 -120.7 14.25 -123.2 L12.3 -129.3 Q11.5 -131.5 10.4 -133.2 L10.05 -133.65 Q6.75 -138.25 1.05 -138.25 -4.4 -138.25 -7.45 -134.25 -9.4 -131.7 -9.7 -128.95 L-9.75 -127.95 Q-9.75 -125.2 -9.3 -125.0 -8.3 -124.6 -8.1 -124.25 L-10.45 -122.45 -11.3 -121.9 -12.5 -121.15 -14.35 -120.1 Q-16.3 -118.95 -18.75 -117.65 -19.15 -117.05 -19.5 -118.4 L-19.8 -120.35 Q-19.8 -125.85 -16.85 -132.15 -12.2 -142.1 -2.85 -142.1 9.6 -142.1 15.3 -137.1 19.85 -133.15 19.85 -126.3 19.85 -124.2 19.35 -122.75 18.6 -120.4 16.7 -120.4 L16.45 -120.4" fill="#464646" fill-rule="evenodd" stroke="none"/>
  </g>
</svg>
