<?xml version="1.0" encoding="UTF-8" standalone="no"?>
<svg xmlns:ffdec="https://www.free-decompiler.com/flash" xmlns:xlink="http://www.w3.org/1999/xlink" ffdec:objectType="shape" height="45.55px" width="17.5px" xmlns="http://www.w3.org/2000/svg">
  <g transform="matrix(1.0, 0.0, 0.0, 1.0, 5.5, -16.1)">
    <path d="M7.75 53.0 Q7.75 49.6 6.75 43.95 5.65 37.4 5.45 34.75 L4.8 30.1 4.0 25.55 3.3 22.95 Q2.55 21.3 1.3 22.2 0.5 22.75 0.6 24.25 L0.85 26.7 Q0.85 28.95 1.35 34.35 L1.95 41.25 Q2.0 44.3 2.95 48.55 L3.4 52.4 Q4.1 55.8 6.05 55.8 7.3 55.8 7.65 54.55 L7.75 53.0 M-2.2 18.25 Q0.75 17.2 4.7 17.2 L4.95 17.2 9.35 58.5 8.5 58.9 Q8.15 59.1 7.85 59.25 L5.55 60.0 5.05 60.05 3.3 60.05 3.05 60.05 -2.2 18.25 M3.05 36.4 L3.0 35.8 3.05 35.8 3.1 36.45 3.05 36.4" fill="#e0e0e0" fill-rule="evenodd" stroke="none"/>
    <path d="M5.85 16.15 L8.35 16.15 9.05 23.5 11.15 43.25 Q12.5 56.55 11.7 58.75 11.3 59.8 9.55 60.65 L8.05 61.2 Q5.4 62.0 3.2 61.3 L1.75 60.65 Q0.0 59.6 -0.6 57.45 -1.15 55.45 -3.5 37.8 -5.9 20.15 -5.45 18.6 L-2.3 17.7 3.1 16.3 4.85 16.2 5.85 16.15 M4.95 17.2 L4.7 17.2 Q0.75 17.2 -2.2 18.25 L-2.75 18.45 -3.75 19.0 Q-0.85 50.3 0.35 54.6 L1.55 59.4 2.15 59.8 3.05 60.05 3.3 60.05 5.05 60.05 5.55 60.0 7.85 59.25 Q8.15 59.1 8.5 58.9 L9.35 58.5 9.55 58.4 Q10.2 59.0 10.35 53.5 10.5 48.0 7.05 17.25 L4.95 17.2" fill="#464646" fill-rule="evenodd" stroke="none"/>
    <path d="M4.95 17.2 L7.05 17.25 Q10.5 48.0 10.35 53.5 10.2 59.0 9.55 58.4 L9.35 58.5 4.95 17.2 M3.05 60.05 L2.15 59.8 1.55 59.4 0.35 54.6 Q-0.85 50.3 -3.75 19.0 L-2.75 18.45 -2.2 18.25 3.05 60.05" fill="#b4b4b4" fill-rule="evenodd" stroke="none"/>
    <path d="M7.75 53.0 L7.65 54.55 Q7.3 55.8 6.05 55.8 4.1 55.8 3.4 52.4 L2.95 48.55 Q2.0 44.3 1.95 41.25 L1.35 34.35 Q0.85 28.95 0.85 26.7 L0.6 24.25 Q0.5 22.75 1.3 22.2 2.55 21.3 3.3 22.95 L4.0 25.55 4.8 30.1 5.45 34.75 Q5.65 37.4 6.75 43.95 7.75 49.6 7.75 53.0 M3.05 36.4 L3.1 36.45 3.05 35.8 3.0 35.8 3.05 36.4" fill="#ffffff" fill-rule="evenodd" stroke="none"/>
  </g>
</svg>
