<?xml version="1.0" encoding="UTF-8" standalone="no"?>
<svg xmlns:ffdec="https://www.free-decompiler.com/flash" xmlns:xlink="http://www.w3.org/1999/xlink" ffdec:objectType="shape" height="190.2px" width="131.85px" xmlns="http://www.w3.org/2000/svg">
  <g transform="matrix(1.0, 0.0, 0.0, 1.0, 34.85, 155.25)">
    <path d="M4.45 -135.3 L5.75 -135.05 Q7.95 -134.55 8.4 -133.25 L8.45 -133.05 Q8.6 -132.4 8.3 -131.5 L7.4 -130.85 7.7 -131.95 7.8 -133.0 7.8 -133.1 Q7.7 -134.6 5.35 -134.7 L4.75 -134.75 4.0 -134.7 3.75 -134.65 Q1.85 -134.3 -0.45 -132.65 L-0.6 -132.5 Q-3.3 -130.5 -4.3 -127.35 L-4.7 -125.75 -4.95 -123.65 -7.35 -121.9 -7.75 -121.75 -7.65 -122.35 -6.9 -125.35 Q-6.2 -127.3 -5.1 -129.1 L-4.15 -130.5 Q-2.1 -133.35 0.45 -134.5 L2.45 -135.15 2.6 -135.15 4.45 -135.3" fill="#9d632f" fill-rule="evenodd" stroke="none"/>
    <path d="M-4.95 -123.65 L-4.7 -125.75 -4.3 -127.35 Q-3.3 -130.5 -0.6 -132.5 L-0.45 -132.65 Q1.85 -134.3 3.75 -134.65 L4.0 -134.7 4.75 -134.75 5.35 -134.7 Q7.7 -134.6 7.8 -133.1 L7.8 -133.0 7.7 -131.95 7.4 -130.85 1.8 -127.6 0.7 -127.0 -4.95 -123.65" fill="#de9954" fill-rule="evenodd" stroke="none"/>
    <path d="M32.55 -13.1 L32.8 -13.05 33.25 -13.0 Q34.65 -12.4 36.1 -10.95 L37.25 -7.85 Q37.25 -6.0 36.85 -3.85 36.45 -1.95 36.05 -1.05 L35.45 -0.55 Q34.9 -0.15 33.85 0.15 L32.15 0.45 30.85 0.55 30.75 2.75 30.75 2.9 30.55 4.6 28.85 6.4 27.2 7.4 27.1 7.45 26.0 7.95 25.25 8.25 23.5 8.05 22.5 7.3 22.0 6.85 21.3 6.5 20.15 6.75 19.3 8.85 18.5 9.95 17.95 10.2 17.35 10.35 14.2 10.5 12.15 9.8 10.6 8.9 10.4 8.35 Q10.4 7.65 9.95 7.2 9.45 6.7 8.8 6.7 L7.6 6.55 6.3 7.5 5.35 7.9 5.2 7.95 4.05 7.65 3.3 7.2 2.3 6.35 1.45 5.55 -0.05 4.1 -1.0 2.45 Q-1.7 0.5 -1.45 -0.85 L-0.8 -3.2 Q-0.8 -3.7 -1.65 -5.45 L-1.85 -5.8 -1.85 -5.85 -2.45 -7.05 Q-2.9 -8.35 -2.85 -9.25 L-2.65 -9.8 -0.55 -9.7 -0.05 -8.5 1.15 -6.2 1.4 -5.85 1.7 -5.45 2.3 -4.6 Q3.2 -3.65 4.65 -2.9 L5.85 -1.9 6.65 -1.1 6.8 -0.9 7.65 0.6 8.1 1.9 8.95 2.75 9.3 3.0 7.7 2.8 7.7 2.75 7.65 2.3 Q6.65 -0.15 6.15 -0.6 L3.9 -2.6 2.6 -3.4 4.45 0.7 Q5.25 2.0 7.35 2.75 L7.5 2.8 Q5.9 2.85 4.55 3.8 11.45 5.5 13.35 6.4 13.45 7.2 13.45 6.2 L13.45 5.6 13.4 5.75 Q12.45 4.25 10.8 3.55 L11.6 3.75 13.6 4.05 18.65 3.3 18.2 2.75 Q16.0 1.65 15.75 1.65 L13.4 1.85 Q11.65 2.15 10.85 2.6 L10.4 3.35 9.85 3.15 10.2 2.75 10.45 2.25 10.75 1.75 Q11.0 1.5 12.95 1.2 L15.65 0.9 Q16.95 0.9 17.55 1.35 L18.4 2.1 19.2 3.1 19.65 2.75 20.55 1.75 Q21.05 0.5 21.5 0.0 L22.75 -1.1 22.8 -1.1 23.7 -1.65 23.9 -1.75 25.2 -2.3 Q26.65 -2.6 27.75 -2.3 29.25 -2.65 29.55 -2.95 L29.55 -3.3 29.4 -5.85 29.65 -9.25 30.3 -11.1 30.8 -11.7 30.95 -11.85 32.55 -13.1 M2.7 0.4 Q3.2 0.85 3.2 -0.15 L2.3 -3.0 1.3 -5.2 1.2 -5.45 Q-0.85 -9.55 -2.0 -9.55 L-2.3 -9.25 -2.35 -8.5 -2.1 -7.45 -1.8 -7.05 0.4 -2.4 Q-1.05 -0.2 -1.05 0.6 -1.05 1.3 -0.1 2.75 L0.6 3.8 2.3 5.7 Q3.55 6.8 4.95 7.2 L6.1 6.9 6.8 6.35 Q5.65 6.05 3.15 3.65 L2.3 2.8 2.3 2.75 Q0.2 0.4 0.4 -1.5 L0.5 -2.1 1.25 -0.75 Q1.7 -0.05 2.3 0.25 L2.7 0.4 M21.25 1.65 L21.0 2.6 Q27.75 0.7 28.1 -1.35 L27.1 -1.8 Q26.05 -1.7 24.1 -0.65 22.05 0.5 21.25 1.65 M34.95 -5.0 L35.0 -2.75 Q34.95 -2.3 32.6 -0.85 L33.65 -0.65 Q35.75 -1.45 36.35 -3.05 36.7 -4.05 36.7 -6.95 36.7 -12.35 32.75 -12.35 29.95 -12.35 29.95 -6.25 L30.15 -3.55 30.85 -4.3 Q32.05 -5.6 31.95 -8.05 L32.35 -9.7 Q33.8 -9.8 34.35 -9.3 35.1 -8.5 34.95 -5.9 L34.95 -5.0 M34.15 -8.5 L34.1 -8.95 32.65 -8.8 32.6 -7.6 Q32.8 -5.3 33.05 -5.05 33.25 -4.85 33.95 -4.65 L34.2 -7.7 34.15 -8.5 M27.1 2.5 L27.5 2.75 27.75 3.0 28.15 2.75 30.75 0.1 33.1 -2.6 33.65 -3.9 Q30.95 -3.9 29.05 -2.0 27.1 -0.15 27.1 2.5 M30.05 1.75 L29.4 2.75 26.95 4.35 Q24.15 5.85 22.15 6.3 L22.55 6.65 23.3 7.2 24.5 7.55 Q26.1 7.55 28.2 5.55 29.75 4.0 30.05 2.75 L30.05 1.75 M26.2 1.65 L25.25 1.55 Q24.95 1.75 24.85 1.9 L24.65 2.75 Q24.65 3.4 24.9 3.6 L25.25 3.85 26.35 3.55 26.85 2.75 26.9 2.65 Q26.65 1.95 26.2 1.65 M24.75 4.0 Q24.5 2.95 23.95 2.75 L23.65 2.7 23.3 2.75 19.8 3.8 Q16.25 5.0 16.25 5.55 L16.3 6.35 16.5 6.5 Q17.65 6.9 20.9 5.8 24.05 4.8 24.75 4.0 M10.25 7.2 L10.4 7.7 Q11.2 8.95 12.35 9.4 L14.5 9.75 17.8 9.35 19.3 7.1 18.15 7.45 10.25 7.2 M15.8 4.7 L13.8 4.7 13.8 6.7 15.8 6.7 15.8 4.7 M3.65 3.25 L3.95 3.6 4.55 2.75 4.95 2.3 3.95 1.2 2.75 1.15 2.3 1.2 1.75 1.15 3.65 3.25" fill="#282828" fill-rule="evenodd" stroke="none"/>
    <path d="M8.3 -131.5 L6.7 -129.95 4.0 -127.55 3.6 -127.35 0.3 -125.3 -2.35 -123.6 -7.95 -120.1 Q-9.6 -119.3 -9.75 -119.55 L-9.85 -120.0 -9.9 -120.25 Q-9.6 -120.8 -8.0 -126.2 L-7.7 -126.95 -5.9 -130.75 -5.45 -131.4 -3.65 -133.45 Q-1.25 -134.9 0.8 -135.25 L0.95 -135.25 Q2.2 -135.5 4.45 -135.3 L2.6 -135.15 2.45 -135.15 0.45 -134.5 Q-2.1 -133.35 -4.15 -130.5 L-5.1 -129.1 Q-6.2 -127.3 -6.9 -125.35 L-7.65 -122.35 -7.75 -121.75 -7.35 -121.9 -4.95 -123.65 0.7 -127.0 1.8 -127.6 7.4 -130.85 8.3 -131.5 M-22.25 -30.8 L-22.5 -29.35 -22.75 -27.75 -22.75 -27.65 -22.6 -27.35 Q-22.4 -27.0 -21.65 -26.75 L-20.3 -26.3 -18.0 -25.75 -16.65 -25.45 -5.15 -23.25 3.9 -22.6 Q13.05 -22.6 21.65 -25.0 L23.2 -25.45 27.5 -26.95 30.9 -28.65 30.0 -34.4 31.3 -35.0 34.0 -36.45 35.25 -30.65 35.4 -30.05 Q29.1 -23.95 12.6 -22.1 L-9.25 -22.8 Q-14.85 -23.8 -19.85 -25.45 L-20.3 -25.6 -21.6 -26.05 -23.55 -27.1 Q-26.7 -29.1 -27.0 -31.5 L-27.0 -31.6 -26.9 -32.6 -22.25 -30.8 M36.4 -25.7 L37.8 -18.0 37.25 -16.45 37.15 -15.95 35.8 -15.1 34.6 -14.1 34.4 -14.0 32.8 -13.05 32.55 -13.1 32.0 -17.55 31.7 -21.1 32.35 -21.55 32.8 -14.15 Q33.9 -15.0 35.45 -15.75 36.4 -16.45 36.4 -18.1 L35.9 -19.45 Q35.35 -21.05 35.35 -23.75 35.35 -24.55 35.7 -24.85 L36.4 -25.7 M-30.05 -17.9 L-30.05 -18.2 -29.05 -27.05 -28.15 -24.95 -27.75 -23.8 Q-27.75 -21.4 -28.3 -20.35 -28.85 -19.35 -28.85 -18.4 -28.85 -17.9 -27.15 -16.3 L-27.15 -15.5 -28.45 -16.35 -30.05 -17.9 M-28.45 -28.15 L-27.95 -30.95 -27.7 -28.2 -27.0 -26.55 -27.55 -27.0 -27.7 -25.65 Q-28.2 -26.1 -27.7 -28.2 L-28.45 -28.15 M0.8 -17.75 L0.7 -9.65 -0.05 -9.65 -0.55 -9.7 -2.65 -9.8 -3.3 -9.8 -4.2 -9.85 -7.6 -10.2 -7.55 -11.15 -2.55 -10.5 -0.65 -10.5 -0.45 -17.75 -0.35 -17.75 0.8 -17.75 M7.35 -17.75 L7.5 -17.75 7.55 -10.55 16.45 -11.1 22.7 -11.85 Q24.2 -12.65 24.2 -14.75 L23.9 -19.45 26.05 -19.6 26.65 -13.4 26.8 -11.65 26.65 -11.6 25.4 -11.3 22.75 -10.95 21.2 -10.75 20.05 -10.65 18.8 -10.5 10.65 -9.8 8.85 -9.65 7.6 -9.65 7.25 -9.65 6.8 -17.75 7.35 -17.75 M-11.8 -11.95 L-11.85 -10.95 -23.65 -13.9 -23.9 -14.0 -24.7 -14.3 -24.7 -15.1 Q-22.6 -14.3 -18.4 -13.3 -14.55 -12.35 -11.8 -11.95" fill="#0c0c0c" fill-rule="evenodd" stroke="none"/>
    <path d="M35.2 -24.8 Q35.65 -25.9 35.8 -25.9 L36.4 -25.7 35.7 -24.85 Q35.35 -24.55 35.35 -23.75 35.35 -21.05 35.9 -19.45 L36.4 -18.1 Q36.4 -16.45 35.45 -15.75 33.9 -15.0 32.8 -14.15 L32.35 -21.55 31.7 -21.1 Q31.6 -21.75 32.35 -22.15 L32.35 -21.55 34.55 -23.05 Q35.4 -23.6 34.45 -23.65 L34.8 -24.1 35.2 -24.8 M-29.05 -27.05 L-28.85 -27.8 -28.45 -28.15 -27.7 -28.2 Q-28.2 -26.1 -27.7 -25.65 L-27.55 -27.0 -27.0 -26.55 Q-27.15 -24.95 -26.95 -24.7 L-27.7 -24.6 -26.45 -23.75 -27.3 -23.25 -27.15 -16.3 Q-28.85 -17.9 -28.85 -18.4 -28.85 -19.35 -28.3 -20.35 -27.75 -21.4 -27.75 -23.8 L-28.15 -24.95 -29.05 -27.05 M0.2 -18.45 L0.8 -17.75 -0.35 -17.75 -0.4 -18.5 0.2 -18.45 M6.8 -18.55 L6.9 -18.55 7.4 -18.5 7.35 -17.75 6.8 -17.75 6.8 -18.55 M7.5 -17.75 L8.7 -17.8 8.65 -14.75 Q8.65 -12.95 8.9 -12.25 9.2 -11.35 10.1 -11.35 14.2 -11.35 18.25 -12.2 L22.3 -13.2 22.3 -19.1 22.25 -19.1 23.9 -19.45 23.6 -20.0 25.25 -20.3 26.05 -19.6 23.9 -19.45 24.2 -14.75 Q24.2 -12.65 22.7 -11.85 L16.45 -11.1 7.55 -10.55 7.5 -17.75 M-23.75 -18.05 L-24.7 -18.3 -24.7 -20.25 -23.5 -20.0 -23.75 -18.05 M-11.75 -12.95 L-11.8 -11.95 Q-14.55 -12.35 -18.4 -13.3 -22.6 -14.3 -24.7 -15.1 L-24.7 -15.4 -19.5 -14.4 -19.5 -14.9 -11.75 -12.95 M-7.55 -11.15 L-7.5 -12.1 Q-4.0 -11.75 -2.75 -12.1 -2.6 -12.85 -2.4 -17.8 L-0.45 -17.75 -0.65 -10.5 -2.55 -10.5 -7.55 -11.15" fill="#1b1b1b" fill-rule="evenodd" stroke="none"/>
    <path d="M8.7 -17.8 L22.25 -19.1 22.3 -19.1 22.3 -13.2 18.25 -12.2 Q14.2 -11.35 10.1 -11.35 9.2 -11.35 8.9 -12.25 8.65 -12.95 8.65 -14.75 L8.7 -17.8 M-23.5 -20.0 L-11.6 -17.55 -11.75 -12.95 -19.5 -14.9 -19.5 -17.0 -23.75 -18.05 -23.5 -20.0 M-7.5 -12.1 L-7.35 -18.15 -2.5 -17.8 -2.4 -17.8 Q-2.6 -12.85 -2.75 -12.1 -4.0 -11.75 -7.5 -12.1" fill="#2e2e2e" fill-rule="evenodd" stroke="none"/>
    <path d="M7.55 -18.5 L9.7 -18.55 8.7 -17.8 7.5 -17.75 7.35 -17.75 7.4 -18.5 7.55 -18.5 M22.25 -19.1 L21.35 -19.65 23.6 -20.0 23.9 -19.45 22.25 -19.1 M34.45 -23.65 Q35.4 -23.6 34.55 -23.05 L32.35 -21.55 32.35 -22.15 34.45 -23.65 M-26.45 -23.75 L-27.7 -24.6 -26.95 -24.7 -25.95 -24.05 -26.45 -23.75 M-3.8 -18.6 L-0.75 -18.5 -0.4 -18.5 -0.35 -17.75 -0.45 -17.75 -2.4 -17.8 -2.5 -17.8 -4.15 -18.65 -3.8 -18.6" fill="#3c3c3c" fill-rule="evenodd" stroke="none"/>
    <path d="M-2.0 -9.55 L2.7 0.4 2.3 0.25 Q1.7 -0.05 1.25 -0.75 L0.5 -2.1 0.4 -1.5 Q0.2 0.4 2.3 2.75 L2.3 2.8 3.15 3.65 Q5.65 6.05 6.8 6.35 L6.1 6.9 4.95 7.2 Q3.55 6.8 2.3 5.7 L0.6 3.8 -0.1 2.75 Q-1.05 1.3 -1.05 0.6 -1.05 -0.2 0.4 -2.4 L-1.8 -7.05 -2.1 -7.45 -2.35 -8.5 -2.3 -9.25 -2.0 -9.55 M7.5 2.8 L7.35 2.75 Q5.25 2.0 4.45 0.7 L2.6 -3.4 3.9 -2.6 Q3.9 -0.55 5.0 0.9 6.1 2.3 7.65 2.3 L7.7 2.75 7.7 2.8 7.65 2.85 7.5 2.8 M27.1 -1.8 L28.1 -1.35 Q27.75 0.7 21.0 2.6 L21.25 1.65 Q25.95 0.3 27.1 -1.8 M31.95 -8.05 Q32.05 -5.6 30.85 -4.3 L30.15 -3.55 29.95 -6.25 Q29.95 -12.35 32.75 -12.35 36.7 -12.35 36.7 -6.95 36.7 -4.05 36.35 -3.05 35.75 -1.45 33.65 -0.65 L32.6 -0.85 Q34.95 -2.3 35.0 -2.75 L34.95 -5.0 35.25 -4.2 Q35.8 -4.6 35.8 -5.7 L35.55 -7.55 34.95 -5.9 Q35.1 -8.5 34.35 -9.3 33.8 -9.8 32.35 -9.7 L32.5 -9.85 32.6 -10.6 32.55 -11.4 32.45 -11.6 31.45 -10.7 Q30.5 -9.3 30.45 -6.6 L30.9 -5.95 Q31.8 -6.25 31.9 -7.0 L31.95 -8.05 M33.65 -3.9 L33.1 -2.6 30.75 0.1 28.15 2.75 27.75 3.0 27.5 2.75 27.1 2.5 30.3 -0.5 33.65 -3.9 M30.05 1.75 L30.05 2.75 Q29.75 4.0 28.2 5.55 26.1 7.55 24.5 7.55 L23.3 7.2 22.55 6.65 22.15 6.3 Q24.15 5.85 26.95 4.35 L29.4 2.75 30.05 1.75 M29.2 4.3 L28.35 4.25 26.55 4.95 Q25.2 5.65 24.85 6.4 L25.25 6.45 Q26.95 6.3 29.2 4.3 M24.75 4.0 Q24.05 4.8 20.9 5.8 17.65 6.9 16.5 6.5 L19.75 5.2 Q22.75 4.2 24.75 4.0 M18.2 2.75 L18.65 3.3 13.6 4.05 11.6 3.75 10.8 3.55 10.35 3.4 10.4 3.35 10.85 2.6 11.4 2.75 15.15 3.6 16.4 3.4 18.2 2.75 M12.7 8.1 L12.75 9.15 16.85 9.4 Q17.85 9.4 17.6 9.2 L17.4 8.9 15.9 8.4 13.95 8.05 12.7 8.1 M10.25 7.2 L18.15 7.45 19.3 7.1 17.8 9.35 14.5 9.75 12.35 9.4 Q11.2 8.95 10.4 7.7 L10.25 7.2 M0.35 2.1 L0.6 2.45 0.85 2.75 2.3 4.55 Q4.55 7.05 4.65 5.8 L2.3 3.7 1.15 2.75 0.35 2.1" fill="#7e7e7e" fill-rule="evenodd" stroke="none"/>
    <path d="M9.3 3.0 L9.45 3.05 9.85 3.15 10.4 3.35 10.35 3.4 10.8 3.55 Q12.45 4.25 13.4 5.75 L13.45 5.6 13.45 6.2 Q13.45 7.2 13.35 6.4 11.45 5.5 4.55 3.8 5.9 2.85 7.5 2.8 L7.65 2.85 7.7 2.8 9.3 3.0 M-2.0 -9.55 Q-0.85 -9.55 1.2 -5.45 L1.3 -5.2 2.3 -3.0 3.2 -0.15 Q3.2 0.85 2.7 0.4 L-2.0 -9.55 M3.9 -2.6 L6.15 -0.6 Q6.65 -0.15 7.65 2.3 6.1 2.3 5.0 0.9 3.9 -0.55 3.9 -2.6 M27.1 -1.8 Q25.95 0.3 21.25 1.65 22.05 0.5 24.1 -0.65 26.05 -1.7 27.1 -1.8 M34.95 -5.0 L34.95 -5.9 35.55 -7.55 35.8 -5.7 Q35.8 -4.6 35.25 -4.2 L34.95 -5.0 M32.35 -9.7 L31.95 -8.05 31.9 -7.0 Q31.8 -6.25 30.9 -5.95 L30.45 -6.6 Q30.5 -9.3 31.45 -10.7 L32.45 -11.6 32.55 -11.4 32.6 -10.6 32.5 -9.85 32.35 -9.7 M27.1 2.5 Q27.1 -0.15 29.05 -2.0 30.95 -3.9 33.65 -3.9 L30.3 -0.5 27.1 2.5 M29.2 4.3 Q26.95 6.3 25.25 6.45 L24.85 6.4 Q25.2 5.65 26.55 4.95 L28.35 4.25 29.2 4.3 M16.5 6.5 L16.3 6.35 16.25 5.55 Q16.25 5.0 19.8 3.8 L23.3 2.75 23.65 2.7 23.95 2.75 Q24.5 2.95 24.75 4.0 22.75 4.2 19.75 5.2 L16.5 6.5 M10.85 2.6 Q11.65 2.15 13.4 1.85 L15.75 1.65 Q16.0 1.65 18.2 2.75 L16.4 3.4 15.15 3.6 11.4 2.75 10.85 2.6 M12.7 8.1 L13.95 8.05 15.9 8.4 17.4 8.9 17.6 9.2 Q17.85 9.4 16.85 9.4 L12.75 9.15 12.7 8.1 M0.35 2.1 L1.15 2.75 2.3 3.7 4.65 5.8 Q4.55 7.05 2.3 4.55 L0.85 2.75 0.6 2.45 0.35 2.1" fill="#cccccc" fill-rule="evenodd" stroke="none"/>
    <path d="M29.6 -22.65 L29.65 -22.7 29.7 -20.4 29.6 -22.65" fill="#4e4e4e" fill-rule="evenodd" stroke="none"/>
    <path d="M-24.95 -24.6 L-22.6 -24.15 -19.6 -23.55 -12.75 -22.15 -9.75 -21.55 -7.3 -21.05 -7.3 -19.95 -7.35 -19.0 -7.35 -18.15 -7.5 -12.1 -7.55 -11.15 -7.6 -10.2 Q-7.65 -9.4 -8.7 -8.75 -9.85 -8.1 -11.2 -8.4 L-12.9 -8.85 -13.5 -9.0 -14.3 -9.2 -18.5 -10.25 -20.9 -10.85 -21.1 -10.9 -21.55 -11.05 -24.05 -11.65 -24.1 -11.65 -24.6 -11.8 -25.55 -12.1 -26.8 -13.0 -27.1 -13.7 -27.15 -15.5 -27.15 -16.3 -27.3 -23.25 -26.45 -23.75 -25.95 -24.05 -24.95 -24.6 M-23.5 -20.0 L-24.7 -20.25 -24.7 -18.3 -23.75 -18.05 -19.5 -17.0 -19.5 -14.9 -19.5 -14.4 -24.7 -15.4 -24.7 -15.1 -24.7 -14.3 -23.9 -13.95 -23.65 -13.9 -11.85 -10.95 -11.8 -11.95 -11.75 -12.95 -11.6 -17.55 -23.5 -20.0 M-26.25 -22.95 L-26.45 -12.8 -25.55 -12.55 -25.45 -21.25 -10.75 -17.95 -11.1 -10.0 -14.35 -9.85 -9.5 -8.7 -8.3 -9.6 -7.95 -20.3 -22.7 -23.3 Q-25.0 -23.75 -26.25 -22.95 M-25.15 -16.45 L-20.25 -15.25 -20.25 -16.4 -25.15 -17.45 -25.15 -16.45" fill="#545454" fill-rule="evenodd" stroke="none"/>
    <path d="M-9.5 -8.7 L-14.35 -9.85 -11.1 -10.0 -10.75 -17.95 -25.45 -21.25 -25.55 -12.55 -26.45 -12.8 -26.25 -22.95 -9.2 -19.2 -9.5 -8.7 M-25.15 -16.45 L-25.15 -17.45 -20.25 -16.4 -20.25 -15.25 -25.15 -16.45" fill="#bdbdbd" fill-rule="evenodd" stroke="none"/>
    <path d="M-9.2 -19.2 L-26.25 -22.95 Q-25.0 -23.75 -22.7 -23.3 L-7.95 -20.3 -9.2 -19.2" fill="#eeeeee" fill-rule="evenodd" stroke="none"/>
    <path d="M-9.5 -8.7 L-9.2 -19.2 -7.95 -20.3 -8.3 -9.6 -9.5 -8.7" fill="#939393" fill-rule="evenodd" stroke="none"/>
    <path d="M14.65 -145.75 Q15.65 -145.5 16.3 -145.1 17.65 -144.3 17.9 -142.7 L17.95 -142.0 Q17.95 -140.75 16.95 -137.2 L16.75 -136.6 16.3 -135.0 15.6 -131.8 15.5 -130.35 15.65 -129.95 16.15 -128.95 17.45 -126.8 17.5 -126.7 Q18.0 -125.9 19.9 -125.6 L21.15 -125.35 21.75 -125.3 Q22.45 -124.2 24.1 -123.6 L25.85 -123.2 25.75 -120.75 26.7 -119.35 31.0 -113.1 Q29.8 -110.95 29.8 -109.95 29.8 -109.3 30.75 -107.55 L31.65 -105.95 Q30.95 -105.35 31.65 -102.25 L32.5 -99.25 Q31.25 -96.75 31.25 -95.2 L31.65 -92.75 31.85 -90.55 31.1 -89.65 Q30.6 -89.25 30.6 -88.2 L30.75 -85.0 30.05 -84.65 Q28.75 -83.55 28.4 -82.0 L28.3 -80.6 Q28.3 -77.95 28.85 -74.65 L29.25 -72.45 Q30.4 -66.8 32.95 -59.35 L38.95 -41.8 Q38.7 -41.2 36.5 -38.9 L34.0 -36.45 31.3 -35.0 30.0 -34.4 18.15 -30.5 Q7.35 -27.7 -4.25 -27.7 L-13.7 -28.8 Q-19.65 -29.8 -22.25 -30.8 L-26.9 -32.6 Q-29.35 -34.05 -30.95 -34.35 L-29.95 -39.3 -29.25 -37.15 -29.7 -36.0 -26.1 -34.55 Q-22.85 -33.25 -21.55 -32.4 -20.5 -43.5 -20.5 -46.3 L-20.8 -52.0 -21.1 -61.2 -21.0 -63.8 -21.0 -64.6 -22.0 -78.15 Q-22.0 -82.75 -21.5 -88.2 -21.45 -92.45 -23.75 -97.55 L-24.75 -100.95 Q-25.5 -103.55 -25.5 -104.4 L-25.35 -105.9 Q-24.9 -107.8 -23.25 -110.55 L-18.25 -116.5 -17.6 -117.2 -14.4 -121.2 -14.5 -123.35 -14.55 -123.75 -23.6 -112.9 Q-29.9 -106.35 -32.35 -99.6 -33.65 -96.2 -33.65 -93.8 -33.65 -88.15 -28.5 -75.1 -23.4 -62.05 -23.4 -57.05 -24.6 -49.3 -25.65 -46.0 L-26.15 -46.75 -26.65 -47.95 Q-24.65 -54.8 -24.65 -55.7 L-25.55 -61.5 Q-26.8 -67.8 -28.3 -70.9 -31.65 -77.75 -33.0 -81.7 L-34.15 -86.0 Q-34.85 -89.1 -34.85 -92.25 -34.85 -99.5 -31.3 -104.95 -29.5 -107.8 -21.4 -117.75 L-17.05 -122.7 Q-14.55 -125.55 -14.55 -126.15 -14.55 -127.25 -15.65 -129.8 -16.65 -132.05 -17.6 -133.45 -19.25 -132.25 -21.2 -131.85 L-23.45 -131.65 Q-25.7 -136.65 -11.5 -141.8 -6.0 -143.8 -1.4 -144.9 L0.5 -145.35 2.2 -145.7 8.15 -146.35 8.65 -146.35 9.15 -146.35 14.65 -145.75 M8.35 -124.25 L8.5 -124.35 10.8 -125.7 Q12.75 -126.85 13.25 -127.0 13.8 -126.55 14.85 -126.5 L15.75 -126.55 15.1 -127.1 Q14.45 -127.45 14.1 -128.25 L13.8 -129.15 13.6 -131.05 13.65 -132.05 13.85 -133.15 14.2 -134.25 15.0 -137.1 15.6 -139.1 16.5 -142.15 Q14.85 -143.95 9.9 -145.0 L9.3 -145.0 8.3 -144.95 1.4 -144.15 -0.3 -143.8 -0.65 -143.75 -2.2 -143.35 Q-6.55 -142.35 -9.05 -141.1 L-18.6 -136.45 Q-17.05 -135.55 -14.9 -131.9 -12.9 -128.35 -12.8 -126.75 L-12.75 -126.4 -12.9 -124.35 -13.1 -122.85 -13.1 -122.8 -13.35 -121.85 -10.55 -126.4 Q-8.35 -129.75 -6.25 -131.9 L-3.4 -134.4 Q-1.25 -135.9 1.65 -136.25 L3.35 -136.4 3.7 -136.4 5.15 -136.25 6.35 -135.95 Q7.15 -135.7 7.9 -135.25 9.5 -134.25 9.5 -133.35 9.5 -130.75 7.25 -128.9 L6.7 -128.4 4.65 -126.7 2.85 -125.15 2.2 -124.55 -0.15 -122.35 -0.75 -121.8 -0.85 -120.55 Q-2.2 -114.2 -2.4 -109.2 -2.45 -107.9 -4.4 -106.15 -12.6 -98.8 -16.45 -92.6 L-16.85 -92.0 -17.4 -91.0 Q-20.9 -84.8 -20.9 -78.2 L-19.8 -64.05 -19.25 -54.55 -18.8 -47.65 -18.95 -44.0 Q-19.1 -41.1 -19.6 -36.3 L-20.05 -31.65 Q-20.05 -31.0 -19.25 -30.85 L-15.8 -30.4 -8.8 -29.75 -3.65 -29.5 Q12.05 -29.5 23.35 -33.15 34.6 -36.75 37.75 -42.8 L31.05 -58.7 Q29.5 -63.4 28.45 -70.6 L28.4 -71.1 28.05 -73.35 27.4 -79.6 Q26.8 -78.95 25.15 -78.55 L22.1 -76.7 18.6 -76.3 17.35 -76.0 Q16.4 -75.75 15.75 -76.4 L15.35 -77.0 14.4 -77.3 Q12.25 -77.35 11.0 -78.05 L10.25 -78.6 8.55 -80.6 8.35 -80.85 8.15 -81.0 Q7.1 -82.0 6.1 -83.65 L5.2 -85.45 4.75 -86.7 4.05 -89.25 2.7 -94.75 2.55 -95.5 2.25 -96.7 1.2 -101.95 0.45 -105.6 1.35 -109.7 2.0 -112.25 2.25 -113.3 2.6 -114.75 3.15 -116.4 3.2 -116.65 3.9 -119.1 Q5.5 -122.9 8.35 -124.25 M8.3 -131.5 Q8.6 -132.4 8.45 -133.05 L8.4 -133.25 Q7.95 -134.55 5.75 -135.05 L4.45 -135.3 Q2.2 -135.5 0.95 -135.25 L0.8 -135.25 Q-1.25 -134.9 -3.65 -133.45 L-5.45 -131.4 -5.95 -130.85 -7.85 -128.7 -8.45 -127.9 Q-10.45 -125.4 -11.85 -122.65 -13.6 -119.3 -15.15 -114.4 -17.0 -108.6 -18.6 -100.6 L-19.3 -96.8 -19.6 -95.3 -19.2 -96.3 -18.2 -98.65 -16.0 -103.65 Q-12.45 -111.1 -4.85 -119.3 L0.15 -124.35 1.95 -126.0 2.3 -126.3 3.3 -127.1 4.0 -127.55 6.7 -129.95 8.3 -131.5 M15.1 -125.2 L15.0 -125.25 Q13.5 -125.75 11.25 -124.65 L10.95 -124.5 9.05 -123.55 Q7.85 -123.0 7.5 -123.0 L5.1 -116.8 4.35 -114.85 3.25 -112.15 2.85 -111.05 2.25 -109.55 1.95 -108.05 Q1.8 -106.6 1.8 -104.1 L1.85 -104.05 4.4 -92.45 Q5.85 -86.05 6.0 -85.85 6.2 -86.2 6.65 -85.7 L7.1 -85.15 7.6 -84.0 8.7 -81.8 Q9.5 -80.45 10.45 -79.6 11.55 -78.65 12.9 -78.4 14.85 -78.75 17.0 -77.3 L22.0 -78.2 Q23.2 -79.5 25.0 -80.15 L26.95 -80.55 Q27.15 -83.4 28.5 -84.95 L29.75 -85.9 29.5 -87.7 29.25 -89.45 Q29.3 -89.75 29.9 -90.3 L30.6 -91.0 Q30.8 -91.45 30.0 -93.8 29.6 -96.65 31.5 -100.05 L29.5 -105.0 30.5 -106.75 28.75 -110.1 29.7 -112.9 28.3 -114.55 Q26.85 -115.95 26.8 -116.2 27.1 -117.35 26.9 -117.55 L25.75 -118.4 25.5 -118.6 Q24.85 -119.05 24.85 -119.65 L25.0 -122.35 22.3 -122.55 Q21.95 -122.8 21.55 -123.0 L21.5 -123.05 Q21.15 -123.5 21.25 -124.25 L20.05 -123.8 19.8 -123.75 Q18.45 -123.55 17.55 -124.65 16.65 -125.75 15.1 -125.2 M15.15 -80.45 Q14.25 -80.8 12.1 -82.3 9.95 -83.85 9.5 -84.55 9.0 -85.35 8.45 -86.6 7.0 -89.85 5.35 -96.05 L4.05 -101.45 3.6 -103.7 3.5 -104.1 Q3.5 -107.55 4.0 -110.35 L4.2 -111.5 5.2 -114.95 Q5.85 -116.75 6.8 -118.15 L8.1 -119.85 Q9.55 -121.45 11.1 -122.25 L12.1 -122.7 14.7 -123.2 14.75 -123.2 17.75 -123.0 18.75 -122.4 19.8 -121.65 Q22.3 -119.75 24.15 -117.0 28.5 -110.35 28.5 -98.8 28.5 -80.35 16.6 -80.35 L15.15 -80.45 M15.45 -81.85 Q20.45 -80.7 23.85 -85.7 27.1 -90.5 27.1 -98.1 27.1 -109.75 23.05 -116.15 L22.85 -116.45 Q21.0 -119.25 18.75 -120.6 L17.8 -121.1 16.3 -121.6 14.2 -121.85 13.35 -121.8 11.6 -121.25 10.85 -120.75 10.35 -120.4 10.1 -120.2 Q8.65 -118.9 7.4 -116.6 6.0 -114.0 5.45 -111.65 L5.15 -110.3 5.05 -109.15 5.0 -104.35 Q5.15 -99.5 6.25 -95.2 L6.7 -93.65 Q9.25 -85.35 15.45 -81.85 M-18.8 -134.5 L-19.95 -135.35 -21.8 -133.65 -18.8 -134.5 M-24.45 -104.55 L-23.6 -101.2 -23.65 -101.1 -23.4 -100.25 -23.35 -100.35 -21.3 -92.85 Q-19.65 -104.35 -22.6 -102.15 L-20.5 -107.3 Q-17.1 -115.9 -19.15 -113.35 L-19.4 -113.05 -23.05 -108.05 Q-24.6 -105.85 -24.45 -104.55 M-2.85 -118.4 L-2.4 -120.3 Q-9.8 -111.85 -12.85 -106.4 L-17.65 -96.45 -18.2 -95.35 -20.05 -89.2 -17.9 -92.3 -16.85 -93.8 Q-11.9 -100.7 -6.4 -106.85 -2.6 -111.15 -2.6 -114.0 L-2.85 -118.4" fill="#4d4d4d" fill-rule="evenodd" stroke="none"/>
    <path d="M-9.05 -141.1 Q-6.55 -142.35 -2.2 -143.35 L-0.65 -143.75 -0.3 -143.8 1.4 -144.15 8.3 -144.95 9.3 -145.0 9.9 -145.0 Q14.85 -143.95 16.5 -142.15 L15.6 -139.1 15.0 -137.1 14.2 -134.25 13.85 -133.15 13.65 -132.05 13.6 -131.05 13.8 -129.15 14.1 -128.25 Q14.45 -127.45 15.1 -127.1 L15.75 -126.55 14.85 -126.5 Q13.8 -126.55 13.25 -127.0 12.75 -126.85 10.8 -125.7 L8.5 -124.35 8.35 -124.25 10.45 -127.65 Q8.35 -126.75 7.7 -126.85 L7.3 -127.0 7.25 -126.9 6.4 -126.15 4.2 -124.3 3.35 -123.6 -0.35 -120.55 -0.95 -120.1 -0.85 -120.55 -0.75 -121.8 -0.15 -122.35 2.2 -124.55 2.85 -125.15 4.65 -126.7 6.7 -128.4 7.25 -128.9 Q9.5 -130.75 9.5 -133.35 9.5 -134.25 7.9 -135.25 7.15 -135.7 6.35 -135.95 L5.15 -136.25 3.7 -136.4 3.35 -136.4 1.65 -136.25 Q-1.25 -135.9 -3.4 -134.4 L-6.25 -131.9 Q-8.35 -129.75 -10.55 -126.4 L-13.35 -121.85 -13.1 -122.8 -13.1 -122.85 -12.9 -124.35 -12.75 -126.4 -12.8 -126.75 Q-10.6 -130.05 -10.0 -132.0 -9.2 -134.7 -9.05 -141.1 M14.4 -77.3 L15.35 -77.0 15.75 -76.4 14.8 -76.65 14.4 -77.3 M17.35 -76.0 L18.6 -76.3 22.1 -76.7 25.15 -78.55 Q26.8 -78.95 27.4 -79.6 L28.05 -73.35 28.4 -71.1 28.45 -70.6 Q29.5 -63.4 31.05 -58.7 L31.3 -57.95 Q29.05 -61.65 27.7 -65.3 L26.6 -68.6 26.05 -70.35 24.65 -75.05 Q22.9 -74.3 21.65 -74.3 L19.65 -74.4 18.25 -74.7 17.35 -76.0 M-23.6 -112.9 L-14.55 -123.75 -14.5 -123.35 -14.4 -121.2 -17.6 -117.2 -18.25 -116.5 -23.25 -110.55 Q-23.45 -110.25 -23.55 -111.55 L-23.6 -112.9" fill="#7d7d7d" fill-rule="evenodd" stroke="none"/>
    <path d="M14.65 -145.75 L7.3 -152.35 Q5.7 -153.7 4.9 -153.75 L3.55 -151.3 0.9 -146.15 0.5 -145.35 -1.4 -144.9 -0.45 -146.8 -0.45 -146.85 Q3.9 -155.45 4.9 -155.25 6.1 -155.3 8.25 -153.5 L20.15 -142.7 Q23.0 -140.0 24.9 -136.95 L24.9 -136.9 26.65 -133.75 26.85 -133.2 26.8 -132.95 Q34.3 -140.8 36.8 -147.6 L38.3 -151.9 38.35 -152.05 Q39.2 -153.75 41.85 -153.75 44.15 -153.85 55.9 -145.1 L64.9 -137.75 68.4 -134.5 Q72.85 -130.15 75.9 -125.95 80.45 -119.7 84.9 -111.0 87.85 -105.2 90.7 -98.35 L92.6 -93.65 Q97.05 -82.55 97.0 -79.2 97.0 -77.55 95.95 -76.1 94.6 -74.3 92.45 -74.3 90.2 -74.25 88.55 -77.05 L83.65 -87.9 83.75 -87.55 Q86.2 -79.3 86.2 -73.65 86.2 -71.55 84.4 -69.95 82.65 -68.45 80.25 -68.45 77.8 -68.45 77.0 -70.05 L75.8 -74.15 Q74.85 -77.55 72.8 -81.15 74.15 -76.45 74.15 -71.7 74.15 -68.8 72.55 -68.05 L72.55 -68.0 Q71.2 -67.3 70.1 -67.35 L69.95 -67.35 69.9 -67.35 Q68.95 -67.45 68.2 -67.9 L67.75 -68.2 67.7 -68.2 Q66.85 -68.9 64.9 -73.45 L64.95 -73.45 63.7 -76.15 Q64.1 -73.9 64.1 -72.3 64.1 -68.55 63.35 -66.5 62.65 -64.45 60.4 -64.45 58.3 -64.35 56.65 -67.1 L53.55 -73.05 54.05 -70.9 54.6 -67.95 Q54.6 -66.9 53.7 -65.25 L53.7 -65.2 Q52.4 -62.9 50.45 -62.95 48.4 -62.8 45.4 -67.95 L41.7 -74.4 41.95 -70.3 Q42.0 -67.75 38.75 -64.95 L38.45 -64.8 Q33.8 -63.7 32.2 -68.7 L30.4 -74.35 29.25 -72.45 28.85 -74.65 29.95 -76.6 30.4 -76.95 30.95 -76.9 31.35 -76.45 33.65 -69.15 Q34.75 -65.6 37.9 -66.25 40.4 -68.4 40.45 -70.3 L40.1 -75.0 Q39.7 -78.3 40.35 -78.35 L40.9 -78.4 41.3 -78.05 42.25 -76.4 46.7 -68.7 Q49.1 -64.6 50.45 -64.45 51.6 -64.5 52.4 -65.95 53.1 -67.2 53.1 -67.95 L52.6 -70.55 Q51.85 -73.35 51.65 -75.1 L51.5 -77.2 51.65 -77.7 Q51.8 -77.95 52.05 -78.0 L52.55 -77.95 52.95 -77.6 Q56.9 -69.6 57.95 -67.85 L57.95 -67.9 Q59.1 -66.05 60.4 -65.95 61.55 -65.95 61.95 -67.0 62.6 -68.85 62.6 -72.3 62.6 -75.0 61.3 -79.55 L60.5 -82.15 60.45 -82.3 60.5 -82.85 60.85 -83.2 60.95 -83.25 61.4 -83.25 61.8 -82.9 Q64.35 -78.4 66.3 -74.05 68.05 -70.0 68.7 -69.35 69.25 -68.9 70.05 -68.85 70.85 -68.85 71.85 -69.35 72.65 -69.9 72.65 -71.7 72.65 -78.35 69.85 -84.95 L69.45 -85.95 69.0 -86.95 Q68.85 -87.25 68.95 -87.5 L69.25 -87.95 69.8 -88.0 70.0 -87.95 70.25 -87.75 Q75.5 -80.8 77.25 -74.55 L78.35 -70.7 78.3 -70.75 Q78.8 -69.95 80.25 -69.95 82.05 -69.95 83.4 -71.1 84.7 -72.25 84.7 -73.65 84.7 -79.1 82.3 -87.1 79.8 -95.25 76.2 -101.5 L76.15 -102.05 76.45 -102.5 76.5 -102.55 77.0 -102.65 77.45 -102.35 77.5 -102.25 78.65 -100.65 Q81.55 -96.25 85.0 -88.5 89.0 -79.3 89.85 -77.8 91.0 -75.85 92.45 -75.8 93.9 -75.8 94.75 -77.0 95.5 -78.05 95.5 -79.2 95.45 -83.1 89.3 -97.75 82.2 -114.75 74.7 -125.05 68.1 -134.1 55.0 -143.9 43.95 -152.15 41.85 -152.25 40.6 -152.25 40.0 -151.7 L39.75 -151.45 39.75 -151.4 39.55 -150.85 38.2 -147.05 38.2 -147.1 Q34.8 -137.8 22.45 -126.7 L21.15 -125.35 19.9 -125.6 Q18.0 -125.9 17.5 -126.7 L17.45 -126.8 18.7 -127.6 20.0 -128.55 20.95 -129.4 21.55 -130.0 21.6 -130.05 25.1 -133.5 23.65 -136.15 23.6 -136.2 Q21.8 -139.05 19.1 -141.6 L17.9 -142.7 Q17.65 -144.3 16.3 -145.1 15.65 -145.5 14.65 -145.75 M8.35 -124.25 Q5.5 -122.9 3.9 -119.1 L3.2 -116.65 3.15 -116.4 2.6 -114.75 2.25 -113.3 2.0 -112.25 1.35 -109.7 0.45 -105.6 1.2 -101.95 2.25 -96.7 2.55 -95.5 2.7 -94.75 4.05 -89.25 4.75 -86.7 5.2 -85.45 6.1 -83.65 Q7.1 -82.0 8.15 -81.0 L8.35 -80.85 8.55 -80.6 10.25 -78.6 11.0 -78.05 Q12.25 -77.35 14.4 -77.3 L14.8 -76.65 15.75 -76.4 Q16.4 -75.75 17.35 -76.0 L18.25 -74.7 19.65 -74.4 21.65 -74.3 Q22.9 -74.3 24.65 -75.05 L26.05 -70.35 26.6 -68.6 27.7 -65.3 Q29.05 -61.65 31.3 -57.95 L31.05 -58.7 37.75 -42.8 Q34.6 -36.75 23.35 -33.15 12.05 -29.5 -3.65 -29.5 L-8.8 -29.75 -15.8 -30.4 -19.25 -30.85 Q-20.05 -31.0 -20.05 -31.65 L-19.6 -36.3 Q-19.1 -41.1 -18.95 -44.0 L-18.8 -47.65 -19.25 -54.55 -19.8 -64.05 -20.9 -78.2 Q-20.9 -84.8 -17.4 -91.0 L-16.85 -92.0 -16.45 -92.6 Q-12.6 -98.8 -4.4 -106.15 -2.45 -107.9 -2.4 -109.2 -2.2 -114.2 -0.85 -120.55 L-0.95 -120.1 -0.35 -120.55 3.35 -123.6 4.2 -124.3 6.4 -126.15 7.25 -126.9 7.3 -127.0 7.7 -126.85 Q8.35 -126.75 10.45 -127.65 L8.35 -124.25 M-12.8 -126.75 Q-12.9 -128.35 -14.9 -131.9 -17.05 -135.55 -18.6 -136.45 L-9.05 -141.1 Q-9.2 -134.7 -10.0 -132.0 -10.6 -130.05 -12.8 -126.75 M-13.15 -86.8 L2.05 -87.75 1.9 -88.15 1.35 -89.75 Q0.3 -92.7 -0.05 -94.4 -0.6 -97.45 -1.05 -105.4 L-8.0 -97.95 -9.85 -96.0 -11.3 -94.25 -11.95 -93.4 -14.85 -88.8 -15.75 -87.25 -16.1 -86.65 -14.7 -86.7 -14.8 -85.4 -14.75 -85.25 -14.5 -84.75 -13.65 -85.0 -13.15 -86.8 M13.3 -44.95 L12.25 -51.95 Q11.6 -57.2 11.6 -66.25 11.6 -70.3 11.9 -74.6 L10.3 -75.4 Q9.25 -75.95 8.55 -76.55 6.45 -78.3 5.4 -80.8 L4.55 -83.3 3.7 -85.95 -17.6 -83.85 -18.45 -80.25 -18.8 -76.9 Q-18.0 -68.05 -18.0 -59.6 L-18.1 -56.4 -17.85 -55.85 -17.75 -54.05 Q-18.1 -53.7 -18.1 -52.0 -18.1 -50.1 -17.5 -49.75 L-17.4 -48.3 -17.9 -48.2 -18.05 -47.5 Q-18.05 -43.95 -17.85 -43.7 L-17.1 -43.85 -17.0 -42.4 -17.55 -42.35 Q-17.85 -42.25 -17.85 -41.6 L-17.6 -39.45 Q-17.35 -38.1 -17.1 -37.95 L-17.2 -36.4 Q-17.65 -36.1 -17.45 -33.85 L-17.45 -33.7 -17.3 -32.2 Q-17.75 -32.05 -16.75 -32.05 L-16.0 -32.15 -15.9 -32.3 -15.95 -33.45 -11.95 -33.05 -9.95 -33.0 -8.65 -31.3 -7.35 -33.0 1.7 -33.4 9.75 -34.0 9.8 -34.0 11.35 -32.7 12.0 -32.0 Q13.4 -34.55 13.75 -34.9 L14.4 -35.6 15.95 -37.45 16.15 -35.6 19.25 -36.4 20.1 -33.7 Q20.25 -33.25 20.5 -33.25 21.15 -33.25 21.25 -33.5 L21.4 -33.9 20.7 -36.85 Q21.9 -37.0 24.25 -38.0 26.65 -39.0 28.05 -39.95 L31.15 -38.25 Q31.55 -40.2 32.9 -42.6 34.0 -44.5 34.0 -46.85 34.0 -48.8 32.95 -50.1 31.8 -51.5 30.0 -51.5 28.35 -51.5 27.3 -48.3 26.05 -52.05 23.05 -65.75 L22.7 -67.25 21.45 -72.95 20.5 -72.25 18.0 -72.3 16.35 -72.3 16.35 -72.8 16.05 -73.25 15.6 -73.35 Q15.35 -73.35 15.15 -73.15 L15.0 -73.0 14.9 -72.65 13.6 -73.0 13.6 -68.8 Q13.4 -65.75 14.15 -56.3 L15.2 -44.9 13.95 -45.0 13.3 -44.95 M-25.65 -46.0 Q-24.6 -49.3 -23.4 -57.05 -23.4 -62.05 -28.5 -75.1 -33.65 -88.15 -33.65 -93.8 -33.65 -96.2 -32.35 -99.6 -29.9 -106.35 -23.6 -112.9 L-23.55 -111.55 Q-23.45 -110.25 -23.25 -110.55 -24.9 -107.8 -25.35 -105.9 L-25.5 -104.4 Q-25.5 -103.55 -24.75 -100.95 L-25.1 -99.55 -25.3 -97.6 -25.25 -96.8 -24.45 -96.8 Q-23.85 -96.8 -23.75 -97.15 L-23.75 -97.55 Q-21.45 -92.45 -21.5 -88.2 -22.0 -82.75 -22.0 -78.15 L-21.0 -64.6 -21.05 -64.8 -21.6 -65.0 Q-22.05 -64.75 -22.1 -64.1 L-21.1 -61.2 -20.8 -52.0 -20.5 -46.3 Q-20.5 -43.5 -21.55 -32.4 -22.85 -33.25 -26.1 -34.55 L-29.7 -36.0 -29.25 -37.15 -29.05 -35.8 Q-27.4 -37.45 -25.75 -38.5 -25.05 -38.5 -24.55 -38.8 -24.1 -39.1 -24.1 -39.55 -22.75 -40.95 -22.15 -41.95 -21.35 -43.35 -21.35 -44.9 -21.35 -45.55 -21.65 -46.05 L-22.35 -46.9 -22.4 -47.45 Q-22.5 -48.0 -22.8 -48.0 L-23.15 -47.2 Q-24.15 -47.1 -25.65 -46.0 M-18.8 -134.5 L-21.8 -133.65 -19.95 -135.35 -18.8 -134.5 M-24.25 -94.65 L-24.85 -95.3 Q-25.2 -95.3 -25.45 -94.65 L-25.7 -93.05 -25.45 -91.45 Q-25.2 -90.8 -24.85 -90.8 -24.5 -90.8 -24.25 -91.45 -24.0 -92.1 -24.0 -93.05 -24.0 -94.0 -24.25 -94.65 M-24.25 -87.55 L-23.5 -87.6 Q-22.75 -87.8 -22.5 -88.25 -24.6 -90.45 -25.7 -91.05 L-29.95 -92.3 -31.65 -92.3 -29.35 -89.55 Q-28.8 -89.1 -25.75 -87.8 L-25.6 -85.15 -24.9 -84.75 -24.25 -85.0 -24.25 -87.55 M-24.1 -83.0 L-25.1 -83.15 Q-25.55 -83.05 -25.55 -82.4 -25.55 -79.85 -25.1 -79.05 -24.95 -78.7 -24.55 -78.7 L-23.85 -78.85 -23.75 -79.0 -24.1 -83.0 M-27.5 -84.75 Q-28.2 -82.55 -26.9 -75.9 -25.7 -69.8 -25.05 -69.0 -25.5 -70.4 -25.95 -74.85 L-26.6 -84.75 -27.5 -84.75 M-23.5 -71.0 L-23.5 -70.8 Q-23.6 -71.4 -23.6 -70.4 L-23.15 -68.4 Q-22.65 -67.15 -22.0 -66.6 L-21.6 -66.7 Q-21.45 -66.85 -21.45 -67.5 -21.45 -68.55 -21.8 -69.65 -22.25 -71.1 -22.9 -71.1 L-23.5 -71.0 M-23.8 -77.35 Q-24.85 -77.2 -24.85 -76.3 -24.85 -73.15 -24.5 -72.85 L-23.4 -72.7 -22.9 -72.9 -22.8 -73.6 Q-22.8 -77.45 -23.8 -77.35" fill="#9f9f9f" fill-rule="evenodd" stroke="none"/>
    <path d="M83.25 -107.9 L86.4 -100.5 89.6 -92.65 Q91.35 -88.25 92.35 -83.65 92.55 -82.85 92.4 -81.95 L91.9 -80.05 90.05 -85.15 87.1 -93.7 82.9 -106.3 Q82.7 -106.95 82.9 -107.6 L83.25 -107.9 M20.0 -128.55 L18.7 -127.6 17.45 -126.8 16.15 -128.95 15.65 -129.95 Q15.9 -130.8 15.6 -131.8 L16.3 -135.0 20.0 -128.55 M21.15 -125.35 L22.45 -126.7 Q34.8 -137.8 38.2 -147.1 L38.2 -147.05 39.55 -150.85 Q39.95 -150.0 39.8 -149.05 L39.6 -147.35 Q39.35 -145.5 38.35 -143.85 35.95 -139.9 32.95 -136.25 L28.85 -131.3 27.75 -130.05 27.1 -129.35 25.3 -127.45 25.55 -126.7 26.3 -125.15 26.6 -124.7 Q27.85 -123.05 28.65 -121.2 L26.7 -119.35 25.75 -120.75 25.85 -123.2 24.1 -123.6 Q22.45 -124.2 21.75 -125.3 L21.15 -125.35 M76.5 -102.55 L76.45 -102.5 76.15 -102.05 76.2 -101.5 Q79.8 -95.25 82.3 -87.1 84.7 -79.1 84.7 -73.65 84.7 -72.25 83.4 -71.1 82.05 -69.95 80.25 -69.95 78.8 -69.95 78.3 -70.75 L78.35 -70.7 77.25 -74.55 Q75.5 -80.8 70.25 -87.75 L70.0 -87.95 Q67.95 -90.45 65.35 -92.4 67.0 -89.0 69.25 -86.2 L69.45 -85.95 69.85 -84.95 Q72.65 -78.35 72.65 -71.7 72.65 -69.9 71.85 -69.35 70.85 -68.85 70.05 -68.85 69.25 -68.9 68.7 -69.35 68.05 -70.0 66.3 -74.05 64.35 -78.4 61.8 -82.9 L61.4 -83.25 60.95 -83.25 58.7 -86.0 Q57.55 -87.05 56.35 -86.55 L58.1 -84.45 Q59.9 -82.15 61.3 -79.55 62.6 -75.0 62.6 -72.3 62.6 -68.85 61.95 -67.0 61.55 -65.95 60.4 -65.95 59.1 -66.05 57.95 -67.9 L57.95 -67.85 Q56.9 -69.6 52.95 -77.6 L52.55 -77.95 52.05 -78.0 Q51.8 -77.95 51.65 -77.7 L51.5 -77.2 51.65 -75.1 Q51.85 -73.35 52.6 -70.55 L53.1 -67.95 Q53.1 -67.2 52.4 -65.95 51.6 -64.5 50.45 -64.45 49.1 -64.6 46.7 -68.7 L42.25 -76.4 Q41.6 -80.45 39.25 -83.85 L38.5 -84.95 37.75 -86.1 38.4 -85.7 Q39.1 -85.2 40.0 -85.4 L40.35 -85.45 41.2 -86.4 Q41.8 -87.25 41.7 -88.05 L41.1 -87.35 40.75 -87.1 37.8 -87.2 37.6 -87.4 36.5 -88.8 Q36.2 -89.35 36.05 -89.95 35.85 -90.65 35.9 -91.3 L36.15 -92.6 37.25 -95.4 37.4 -95.75 Q38.5 -98.9 36.7 -101.75 33.75 -106.6 33.9 -112.15 L34.0 -114.0 34.45 -116.9 34.8 -118.75 Q35.35 -121.15 36.2 -123.5 L36.9 -125.7 Q37.45 -127.45 38.5 -128.65 L40.15 -130.35 39.55 -130.55 41.5 -130.25 Q42.6 -130.25 43.35 -131.15 L44.6 -132.85 45.0 -133.75 47.65 -131.55 52.45 -132.05 Q53.05 -132.1 53.55 -132.55 53.95 -133.0 54.15 -133.6 L54.45 -135.0 54.4 -135.9 Q60.8 -128.65 66.1 -120.3 L69.5 -115.0 Q72.15 -111.1 74.15 -107.0 L76.5 -102.55 M0.5 -145.35 L0.9 -146.15 3.55 -151.3 3.5 -151.05 3.4 -149.55 Q3.2 -147.95 2.55 -146.5 L2.2 -145.7 0.5 -145.35 M8.15 -146.35 L8.05 -146.5 Q7.75 -147.1 8.1 -147.75 L8.9 -147.1 9.15 -146.35 8.65 -146.35 8.15 -146.35 M7.9 -150.8 Q8.35 -150.7 8.25 -150.25 L7.6 -149.2 7.05 -148.85 6.15 -149.0 6.2 -149.75 7.9 -150.8 M38.35 -131.15 L38.5 -131.05 38.1 -130.7 37.55 -130.05 38.35 -131.15 M37.25 -136.15 L42.25 -136.15 42.65 -135.8 41.6 -134.7 40.75 -134.25 37.6 -134.3 36.5 -135.75 37.25 -136.15 M12.9 -78.4 Q11.55 -78.65 10.45 -79.6 9.5 -80.45 8.7 -81.8 L7.6 -84.0 7.1 -85.15 6.65 -85.7 Q6.2 -86.2 6.0 -85.85 5.85 -86.05 4.4 -92.45 L1.85 -104.05 1.8 -104.1 Q1.8 -106.6 1.95 -108.05 L2.25 -109.55 2.85 -111.05 3.25 -112.15 4.35 -114.85 5.1 -116.8 7.5 -123.0 Q7.85 -123.0 9.05 -123.55 L10.95 -124.5 11.25 -124.65 Q13.5 -125.75 15.0 -125.25 L15.1 -125.2 16.55 -123.65 17.0 -123.35 Q17.35 -123.15 17.75 -123.0 L14.75 -123.2 14.7 -123.2 12.1 -122.7 11.1 -122.25 Q9.55 -121.45 8.1 -119.85 L6.8 -118.15 Q5.85 -116.75 5.2 -114.95 L4.2 -111.5 4.0 -110.35 Q3.5 -107.55 3.5 -104.1 L3.6 -103.7 4.05 -101.45 5.35 -96.05 Q7.0 -89.85 8.45 -86.6 9.0 -85.35 9.5 -84.55 9.95 -83.85 12.1 -82.3 14.25 -80.8 15.15 -80.45 14.65 -80.5 12.9 -78.4 M44.5 -125.0 L39.5 -121.75 39.6 -121.05 41.2 -121.3 Q42.05 -121.2 42.75 -121.65 44.1 -122.45 44.85 -123.9 45.3 -124.7 44.5 -125.0 M45.1 -121.75 L42.0 -118.65 40.5 -118.55 38.6 -119.65 38.45 -120.35 38.3 -120.5 38.0 -120.8 37.5 -120.65 37.5 -119.5 Q37.95 -118.5 38.95 -118.05 40.45 -117.25 42.25 -117.6 43.0 -117.7 43.55 -118.2 44.95 -119.6 45.35 -121.4 L45.1 -121.75 M44.25 -112.75 Q43.5 -112.45 43.5 -111.75 43.45 -110.8 43.05 -110.3 L41.0 -109.65 40.0 -110.15 39.25 -109.8 Q39.0 -108.9 39.6 -108.35 40.25 -107.65 41.1 -107.8 43.25 -107.7 44.45 -109.45 45.05 -110.25 44.7 -111.3 L44.25 -112.75 M46.6 -108.9 L45.75 -107.35 44.2 -105.25 Q43.0 -103.85 41.0 -103.9 40.4 -104.1 39.9 -104.4 L39.35 -104.75 38.65 -105.3 Q37.1 -106.6 36.5 -108.75 L36.15 -108.3 Q36.1 -107.25 36.4 -106.6 37.15 -105.0 38.3 -103.9 L39.15 -103.2 Q39.7 -102.85 40.4 -102.65 L42.85 -102.7 Q43.75 -102.9 44.45 -103.6 46.2 -105.45 46.85 -107.75 47.1 -108.55 46.6 -108.9 M78.4 -107.75 L78.3 -107.65 76.2 -110.35 Q74.15 -113.2 72.5 -116.6 L68.45 -125.55 68.45 -125.9 Q73.95 -120.35 76.35 -112.85 L77.7 -109.4 78.4 -107.75 M46.25 -148.75 Q46.9 -148.65 46.75 -148.15 46.5 -147.3 45.85 -146.95 L45.0 -146.55 43.65 -146.7 43.75 -147.6 46.25 -148.75 M48.35 -142.8 Q48.5 -140.65 47.4 -138.7 46.9 -137.8 46.0 -137.55 L42.7 -138.15 Q42.0 -138.4 41.6 -139.1 41.35 -139.5 41.4 -140.05 L41.65 -140.7 41.7 -140.7 42.1 -140.55 42.55 -140.25 Q42.8 -139.9 43.35 -139.55 L45.5 -139.5 Q46.45 -140.75 46.75 -141.95 47.0 -142.95 46.45 -143.85 46.05 -144.55 46.55 -145.3 47.25 -145.3 47.75 -144.55 L48.2 -143.45 48.35 -142.8 M55.0 -130.55 L51.4 -126.9 Q51.9 -126.5 52.55 -126.2 53.45 -125.95 53.95 -126.45 L54.85 -127.45 Q56.55 -129.15 55.0 -130.55 M47.0 -128.75 L45.7 -128.45 44.1 -128.05 Q42.55 -127.35 42.75 -125.95 L44.2 -126.25 46.65 -127.75 Q47.3 -128.2 47.0 -128.75 M57.6 -127.15 L55.6 -124.05 53.55 -124.15 52.45 -124.6 52.55 -123.5 Q53.25 -123.05 54.1 -123.0 55.45 -122.8 56.55 -123.6 58.45 -125.05 57.6 -127.15 M51.6 -120.5 Q49.55 -119.95 47.65 -119.1 46.85 -118.65 47.05 -117.9 L47.2 -117.8 49.05 -117.7 Q50.55 -118.25 51.65 -119.35 52.35 -120.1 51.6 -120.5 M58.85 -117.2 L58.4 -118.65 57.7 -118.25 56.0 -116.0 53.75 -116.0 52.75 -116.6 51.1 -116.55 50.95 -116.25 50.6 -114.9 Q50.45 -114.2 50.75 -113.6 51.55 -112.95 52.75 -112.85 54.45 -112.4 56.05 -113.35 58.25 -114.75 58.85 -117.2 M59.6 -116.5 L58.35 -113.2 Q58.0 -112.3 57.2 -111.75 55.6 -110.7 53.65 -110.8 52.3 -110.8 51.6 -111.8 L50.3 -113.55 49.5 -114.55 Q49.45 -113.85 49.55 -113.2 49.7 -111.65 50.9 -110.75 53.3 -109.1 56.15 -109.7 57.1 -109.95 57.7 -110.55 L58.55 -111.55 59.8 -113.8 Q60.3 -115.25 59.6 -116.5 M61.1 -108.75 L58.35 -107.3 Q57.5 -106.95 57.65 -106.15 L59.0 -105.9 60.05 -106.6 Q61.25 -107.4 61.1 -108.75 M56.0 -102.75 L53.35 -99.6 52.75 -99.6 52.6 -99.8 51.35 -101.2 Q50.9 -101.65 50.4 -101.4 L50.4 -101.3 50.7 -100.0 Q50.95 -98.55 52.25 -98.0 L54.2 -98.1 55.6 -100.45 56.35 -102.3 Q56.5 -102.75 56.0 -102.75 M48.25 -101.15 L44.9 -100.5 45.65 -99.15 47.25 -99.05 48.2 -100.1 48.6 -100.8 Q48.85 -101.35 48.25 -101.15 M67.35 -101.4 L67.1 -103.65 66.4 -104.05 65.85 -104.0 Q66.5 -101.35 65.85 -98.65 L65.5 -97.6 Q64.95 -96.4 63.8 -96.5 62.15 -96.65 61.2 -97.75 59.8 -99.5 58.85 -101.65 L58.2 -101.05 Q58.65 -98.5 60.55 -96.5 62.05 -94.95 64.4 -95.05 66.15 -95.45 66.65 -97.15 67.3 -99.2 67.35 -101.4 M71.1 -72.9 L70.85 -74.85 70.15 -77.8 Q68.8 -82.95 67.05 -88.05 66.7 -89.05 65.8 -89.3 L64.55 -89.2 63.5 -88.45 Q63.05 -87.95 63.15 -87.3 64.2 -80.5 66.95 -74.35 67.8 -72.55 69.55 -71.5 70.25 -71.0 70.85 -71.7 L71.1 -72.9 M82.1 -76.55 Q82.0 -80.1 81.3 -83.4 L80.35 -87.45 79.6 -90.35 78.2 -94.9 76.9 -98.0 Q76.4 -98.95 75.35 -99.05 74.05 -98.65 73.65 -97.2 73.4 -96.4 73.5 -95.5 73.95 -90.9 74.65 -86.25 75.5 -80.75 77.25 -75.55 78.0 -73.35 79.55 -71.5 80.4 -70.5 81.85 -70.9 L82.1 -76.55 M66.0 -105.7 L65.65 -109.95 63.6 -103.5 62.45 -103.5 61.85 -103.05 62.55 -102.1 Q63.2 -101.3 64.3 -101.45 65.2 -102.1 65.45 -103.05 L66.0 -105.7 M63.35 -121.0 Q61.5 -120.9 60.4 -119.9 L60.9 -119.15 62.5 -119.05 63.7 -120.25 Q64.05 -121.0 63.35 -121.0 M57.5 -93.65 L57.7 -94.9 57.45 -95.25 Q56.1 -94.95 55.15 -93.55 L53.05 -93.75 52.9 -94.05 52.0 -94.15 52.1 -92.35 52.9 -92.0 56.1 -92.35 Q56.55 -92.45 57.0 -92.8 L57.35 -93.2 57.85 -91.45 Q57.6 -90.35 56.55 -90.05 L53.5 -89.65 Q52.05 -89.8 51.15 -90.85 49.65 -92.65 48.6 -94.75 L48.1 -94.75 Q48.3 -93.55 48.9 -92.35 49.55 -91.15 50.5 -90.15 51.4 -89.2 52.6 -88.75 53.8 -88.4 55.05 -88.75 56.1 -88.7 57.0 -89.3 L58.2 -90.55 Q59.2 -92.45 57.5 -93.65 M41.65 -92.5 L40.15 -95.55 Q39.75 -95.05 39.8 -94.1 L40.05 -92.7 Q40.45 -91.65 41.6 -91.05 L41.75 -91.0 43.65 -91.2 45.35 -92.8 45.0 -94.35 44.75 -94.1 Q44.0 -92.6 42.6 -92.45 L41.65 -92.5 M47.5 -84.9 Q47.15 -84.95 46.9 -85.1 44.95 -85.65 44.6 -87.75 L44.1 -87.75 Q43.9 -86.7 44.3 -85.95 44.8 -85.0 45.55 -84.45 46.7 -83.4 48.2 -83.7 49.95 -84.2 50.45 -86.05 L50.5 -87.6 49.9 -86.7 49.1 -85.6 Q48.55 -84.9 47.5 -84.9 M51.85 -68.7 L51.45 -70.35 Q50.15 -74.6 47.35 -78.15 L46.15 -79.75 Q45.5 -80.75 44.45 -80.65 L44.1 -80.4 Q43.95 -79.65 44.15 -79.0 45.3 -75.3 46.85 -71.8 47.9 -69.4 49.8 -67.65 50.45 -67.05 51.25 -67.4 L51.85 -68.7 M49.1 -89.25 L47.9 -88.1 46.9 -88.05 45.7 -88.7 45.5 -88.4 Q45.45 -87.5 46.2 -87.0 47.25 -86.25 48.3 -86.8 49.35 -87.35 49.55 -88.75 49.6 -89.2 49.1 -89.25 M61.1 -70.7 Q61.05 -77.2 56.95 -82.15 56.3 -82.95 55.2 -82.95 54.2 -82.15 54.3 -80.75 54.5 -78.65 55.0 -76.6 55.75 -73.25 57.55 -70.25 58.15 -69.2 59.1 -68.4 L60.85 -68.3 61.1 -70.7 M34.75 -79.9 Q36.55 -79.8 37.15 -78.1 37.95 -75.6 38.05 -73.15 L37.95 -71.75 37.85 -70.75 36.55 -70.6 Q35.8 -70.9 35.35 -71.55 34.45 -73.0 34.15 -74.55 L33.55 -78.55 33.55 -79.2 34.1 -79.65 34.75 -79.9 M-7.7 -42.75 Q-8.35 -48.2 -9.15 -64.85 L-10.95 -72.55 Q-12.15 -77.95 -12.2 -81.0 L-12.2 -81.25 2.1 -81.25 2.15 -79.25 2.05 -77.2 1.1 -71.4 -0.25 -66.15 5.25 -72.25 6.8 -69.9 Q7.4 -68.6 7.4 -67.8 7.15 -61.4 7.35 -58.85 L8.55 -46.45 Q8.55 -45.05 8.2 -43.95 L6.6 -44.0 Q5.85 -44.8 4.6 -47.95 L3.0 -51.75 3.0 -39.5 Q3.85 -36.9 1.1 -36.45 L-3.4 -36.45 Q-2.65 -37.2 -2.0 -38.5 -1.45 -39.6 -1.45 -39.85 -1.45 -41.2 -2.1 -42.3 -3.05 -43.95 -5.05 -43.95 L-6.1 -43.55 -7.7 -42.75 M23.1 -42.35 L21.45 -43.45 20.2 -44.8 Q19.85 -45.65 19.3 -49.25 L17.9 -56.45 Q16.8 -62.3 16.8 -63.6 16.8 -64.6 17.3 -65.25 18.4 -64.3 20.05 -57.5 21.9 -49.7 22.7 -48.05 21.8 -46.6 21.8 -45.1 21.8 -44.4 22.3 -43.5 L23.1 -42.35 M-18.2 -95.35 L-17.65 -96.45 -12.85 -106.4 Q-9.8 -111.85 -2.4 -120.3 L-2.85 -118.4 Q-3.5 -116.65 -8.85 -108.35 -14.3 -99.95 -17.55 -96.1 L-18.2 -95.35 M-9.25 -90.5 L-9.95 -91.2 -3.8 -98.65 Q-7.55 -90.8 -9.25 -90.5 M-16.0 -79.15 L-15.7 -77.5 -16.45 -77.35 -16.75 -77.0 -16.65 -78.05 -16.3 -80.0 -16.0 -79.15 M-15.4 -75.8 Q-12.6 -51.75 -11.95 -43.95 -13.3 -43.95 -14.25 -43.4 -15.25 -42.9 -15.25 -42.2 L-15.15 -56.5 Q-15.25 -67.6 -16.1 -69.55 -15.9 -71.35 -16.3 -71.65 L-16.45 -73.2 -15.75 -73.45 -15.4 -75.8" fill="#e9e9e9" fill-rule="evenodd" stroke="none"/>
    <path d="M20.95 -129.4 L20.0 -128.55 16.3 -135.0 16.75 -136.6 16.95 -137.2 19.7 -132.1 20.95 -129.4 M39.75 -151.4 L39.75 -151.45 40.0 -151.7 39.75 -151.4 M78.65 -100.65 L77.5 -102.25 77.45 -102.35 77.0 -102.65 76.5 -102.55 74.15 -107.0 Q72.15 -111.1 69.5 -115.0 L66.1 -120.3 Q60.8 -128.65 54.4 -135.9 L54.45 -135.0 54.15 -133.6 Q53.95 -133.0 53.55 -132.55 53.05 -132.1 52.45 -132.05 L47.65 -131.55 45.0 -133.75 44.6 -132.85 43.35 -131.15 Q42.6 -130.25 41.5 -130.25 L39.55 -130.55 40.15 -130.35 38.5 -128.65 Q37.45 -127.45 36.9 -125.7 L36.2 -123.5 Q35.35 -121.15 34.8 -118.75 L34.45 -116.9 34.0 -114.0 33.9 -112.15 Q33.75 -106.6 36.7 -101.75 38.5 -98.9 37.4 -95.75 L37.25 -95.4 36.15 -92.6 35.9 -91.3 Q35.85 -90.65 36.05 -89.95 36.2 -89.35 36.5 -88.8 L37.6 -87.4 37.8 -87.2 40.75 -87.1 41.1 -87.35 41.7 -88.05 Q41.8 -87.25 41.2 -86.4 L40.35 -85.45 40.0 -85.4 Q39.1 -85.2 38.4 -85.7 L37.75 -86.1 38.5 -84.95 39.25 -83.85 Q41.6 -80.45 42.25 -76.4 L41.3 -78.05 40.9 -78.4 40.35 -78.35 Q39.7 -78.3 40.1 -75.0 L40.45 -70.3 Q40.4 -68.4 37.9 -66.25 34.75 -65.6 33.65 -69.15 L31.35 -76.45 30.95 -76.9 30.4 -76.95 29.95 -76.6 28.85 -74.65 Q28.3 -77.95 28.3 -80.6 L28.4 -82.0 Q28.75 -83.55 30.05 -84.65 L30.75 -85.0 30.6 -88.2 Q30.6 -89.25 31.1 -89.65 L31.85 -90.55 31.65 -92.75 31.25 -95.2 Q31.25 -96.75 32.5 -99.25 L31.65 -102.25 Q30.95 -105.35 31.65 -105.95 L30.75 -107.55 Q29.8 -109.3 29.8 -109.95 29.8 -110.95 31.0 -113.1 L26.7 -119.35 28.65 -121.2 30.8 -123.9 31.9 -125.35 33.85 -128.2 Q35.65 -131.05 38.1 -133.15 L40.5 -131.75 41.6 -132.0 42.4 -132.3 Q43.25 -132.9 43.45 -134.05 43.75 -135.6 44.85 -136.4 L48.2 -133.15 51.25 -133.0 Q52.3 -133.35 52.75 -134.1 L53.35 -135.15 52.75 -139.0 Q56.15 -137.25 58.8 -134.2 61.5 -131.15 63.65 -127.45 65.8 -123.8 68.1 -120.1 L72.5 -113.05 75.7 -107.3 78.5 -101.05 78.65 -100.65 M70.0 -87.95 L69.8 -88.0 69.25 -87.95 68.95 -87.5 Q68.85 -87.25 69.0 -86.95 L69.45 -85.95 69.25 -86.2 Q67.0 -89.0 65.35 -92.4 67.95 -90.45 70.0 -87.95 M60.95 -83.25 L60.85 -83.2 60.5 -82.85 60.45 -82.3 60.5 -82.15 61.3 -79.55 Q59.9 -82.15 58.1 -84.45 L56.35 -86.55 Q57.55 -87.05 58.7 -86.0 L60.95 -83.25 M38.35 -131.15 L37.55 -130.05 38.1 -130.7 38.5 -131.05 38.35 -131.15 M15.6 -131.8 Q15.9 -130.8 15.65 -129.95 L15.5 -130.35 15.6 -131.8 M15.1 -125.2 Q16.65 -125.75 17.55 -124.65 18.45 -123.55 19.8 -123.75 L20.05 -123.8 21.25 -124.25 Q21.15 -123.5 21.5 -123.05 L21.55 -123.0 Q21.95 -122.8 22.3 -122.55 L25.0 -122.35 24.85 -119.65 Q24.85 -119.05 25.5 -118.6 L25.75 -118.4 26.9 -117.55 Q27.1 -117.35 26.8 -116.2 26.85 -115.95 28.3 -114.55 L29.7 -112.9 28.75 -110.1 30.5 -106.75 29.5 -105.0 31.5 -100.05 Q29.6 -96.65 30.0 -93.8 30.8 -91.45 30.6 -91.0 L29.9 -90.3 Q29.3 -89.75 29.25 -89.45 L29.5 -87.7 29.75 -85.9 28.5 -84.95 Q27.15 -83.4 26.95 -80.55 L25.0 -80.15 Q23.2 -79.5 22.0 -78.2 L17.0 -77.3 Q14.85 -78.75 12.9 -78.4 14.65 -80.5 15.15 -80.45 L16.6 -80.35 Q28.5 -80.35 28.5 -98.8 28.5 -110.35 24.15 -117.0 22.3 -119.75 19.8 -121.65 L18.75 -122.4 17.75 -123.0 Q17.35 -123.15 17.0 -123.35 L16.55 -123.65 15.1 -125.2 M45.1 -121.75 L45.35 -121.4 Q44.95 -119.6 43.55 -118.2 43.0 -117.7 42.25 -117.6 40.45 -117.25 38.95 -118.05 37.95 -118.5 37.5 -119.5 L37.5 -120.65 38.0 -120.8 38.3 -120.5 38.45 -120.35 38.6 -119.65 40.5 -118.55 42.0 -118.65 45.1 -121.75 M46.6 -108.9 Q47.1 -108.55 46.85 -107.75 46.2 -105.45 44.45 -103.6 43.75 -102.9 42.85 -102.7 L40.4 -102.65 Q39.7 -102.85 39.15 -103.2 L38.3 -103.9 Q37.15 -105.0 36.4 -106.6 36.1 -107.25 36.15 -108.3 L36.5 -108.75 Q37.1 -106.6 38.65 -105.3 L39.35 -104.75 39.9 -104.4 Q40.4 -104.1 41.0 -103.9 43.0 -103.85 44.2 -105.25 L45.75 -107.35 46.6 -108.9 M57.6 -127.15 Q58.45 -125.05 56.55 -123.6 55.45 -122.8 54.1 -123.0 53.25 -123.05 52.55 -123.5 L52.45 -124.6 53.55 -124.15 55.6 -124.05 57.6 -127.15 M59.6 -116.5 Q60.3 -115.25 59.8 -113.8 L58.55 -111.55 57.7 -110.55 Q57.1 -109.95 56.15 -109.7 53.3 -109.1 50.9 -110.75 49.7 -111.65 49.55 -113.2 49.45 -113.85 49.5 -114.55 L50.3 -113.55 51.6 -111.8 Q52.3 -110.8 53.65 -110.8 55.6 -110.7 57.2 -111.75 58.0 -112.3 58.35 -113.2 L59.6 -116.5 M67.35 -101.4 Q67.3 -99.2 66.65 -97.15 66.15 -95.45 64.4 -95.05 62.05 -94.95 60.55 -96.5 58.65 -98.5 58.2 -101.05 L58.85 -101.65 Q59.8 -99.5 61.2 -97.75 62.15 -96.65 63.8 -96.5 64.95 -96.4 65.5 -97.6 L65.85 -98.65 Q66.5 -101.35 65.85 -104.0 L66.4 -104.05 67.1 -103.65 67.35 -101.4 M57.35 -93.2 L57.35 -93.5 57.5 -93.65 Q59.2 -92.45 58.2 -90.55 L57.0 -89.3 Q56.1 -88.7 55.05 -88.75 53.8 -88.4 52.6 -88.75 51.4 -89.2 50.5 -90.15 49.55 -91.15 48.9 -92.35 48.3 -93.55 48.1 -94.75 L48.6 -94.75 Q49.65 -92.65 51.15 -90.85 52.05 -89.8 53.5 -89.65 L56.55 -90.05 Q57.6 -90.35 57.85 -91.45 L57.35 -93.2 M47.5 -84.9 Q48.55 -84.9 49.1 -85.6 L49.9 -86.7 50.5 -87.6 50.45 -86.05 Q49.95 -84.2 48.2 -83.7 46.7 -83.4 45.55 -84.45 44.8 -85.0 44.3 -85.95 43.9 -86.7 44.1 -87.75 L44.6 -87.75 Q44.95 -85.65 46.9 -85.1 47.15 -84.95 47.5 -84.9 M34.75 -79.9 L34.1 -79.65 33.55 -79.2 33.55 -78.55 34.15 -74.55 Q34.45 -73.0 35.35 -71.55 35.8 -70.9 36.55 -70.6 L37.85 -70.75 37.95 -71.75 38.05 -73.15 Q37.95 -75.6 37.15 -78.1 36.55 -79.8 34.75 -79.9 M-8.0 -97.95 L-1.05 -105.4 Q-0.6 -97.45 -0.05 -94.4 0.3 -92.7 1.35 -89.75 L1.9 -88.15 2.05 -87.75 -13.15 -86.8 Q-12.55 -88.65 -13.2 -89.0 L-14.0 -88.8 -14.35 -87.75 -14.7 -86.7 -16.1 -86.65 -15.75 -87.25 -14.85 -88.8 -11.95 -93.4 -11.3 -94.25 -9.85 -96.0 -9.8 -95.5 Q-9.7 -95.25 -9.05 -95.25 L-7.85 -96.05 Q-6.7 -96.95 -6.1 -97.9 L-6.4 -98.35 -6.25 -98.4 -6.85 -98.5 -7.55 -98.4 -8.0 -97.95 M-11.3 -94.25 L-12.8 -91.45 -13.05 -90.8 -12.65 -90.45 -12.4 -90.35 -11.8 -90.45 -10.15 -93.45 -10.3 -94.2 -10.25 -94.25 -11.3 -94.25 M-18.0 -59.6 Q-18.0 -68.05 -18.8 -76.9 L-18.45 -80.25 -17.6 -83.85 3.7 -85.95 4.55 -83.3 5.4 -80.8 Q6.45 -78.3 8.55 -76.55 9.25 -75.95 10.3 -75.4 L11.9 -74.6 Q11.6 -70.3 11.6 -66.25 11.6 -57.2 12.25 -51.95 L13.3 -44.95 11.8 -43.7 10.55 -42.45 8.2 -43.95 Q8.55 -45.05 8.55 -46.45 L7.35 -58.85 Q7.15 -61.4 7.4 -67.8 7.4 -68.6 6.8 -69.9 L5.25 -72.25 -0.25 -66.15 1.1 -71.4 2.05 -77.2 2.15 -79.25 2.1 -81.25 -12.2 -81.25 -12.2 -81.0 Q-12.15 -77.95 -10.95 -72.55 L-9.15 -64.85 Q-8.35 -48.2 -7.7 -42.75 L-8.65 -41.85 -10.55 -43.5 -11.95 -43.95 Q-12.6 -51.75 -15.4 -75.8 -15.25 -77.15 -15.7 -77.5 L-16.0 -79.15 -15.95 -79.85 -15.7 -79.0 -14.6 -79.1 Q-14.3 -79.4 -14.3 -82.5 L-14.3 -83.3 -15.85 -80.8 -15.65 -82.85 -15.95 -81.3 -16.0 -80.6 -16.3 -80.0 -16.65 -78.05 -16.75 -77.0 -17.15 -74.0 -16.85 -73.5 -16.45 -73.2 -16.3 -71.65 Q-16.8 -72.1 -17.15 -71.9 -17.7 -71.55 -17.7 -68.2 -17.7 -67.55 -17.4 -67.45 L-16.85 -67.4 -16.25 -67.55 -16.1 -69.55 Q-15.25 -67.6 -15.15 -56.5 L-15.25 -42.2 -15.25 -42.15 Q-15.8 -40.95 -15.8 -40.15 -15.3 -38.2 -14.2 -36.75 -13.6 -35.8 -13.1 -35.8 L-9.95 -33.0 -11.95 -33.05 -15.95 -33.45 Q-15.95 -36.1 -16.35 -36.4 L-17.2 -36.4 -17.1 -37.95 -16.5 -37.95 Q-16.25 -38.05 -16.25 -38.7 L-16.45 -40.85 Q-16.7 -42.25 -17.0 -42.4 L-17.1 -43.85 Q-16.0 -44.7 -16.05 -46.15 -16.15 -47.65 -17.4 -48.3 L-17.5 -49.75 -16.85 -50.05 Q-16.6 -50.25 -16.6 -52.0 -16.6 -53.7 -16.8 -53.85 L-17.75 -54.05 -17.85 -55.85 -16.8 -55.65 Q-16.55 -55.9 -16.55 -59.3 L-16.6 -59.85 -17.25 -60.1 -18.0 -59.6 M15.2 -44.9 L14.15 -56.3 Q13.4 -65.75 13.6 -68.8 L13.6 -73.0 14.9 -72.65 14.85 -70.95 14.95 -68.9 15.6 -68.7 16.3 -68.9 16.35 -72.3 18.0 -72.3 20.5 -72.25 21.45 -72.95 22.7 -67.25 23.05 -65.75 Q26.05 -52.05 27.3 -48.3 L26.3 -48.45 24.6 -48.85 Q23.5 -48.85 22.7 -48.05 21.9 -49.7 20.05 -57.5 18.4 -64.3 17.3 -65.25 16.8 -64.6 16.8 -63.6 16.8 -62.3 17.9 -56.45 L19.3 -49.25 Q19.85 -45.65 20.2 -44.8 L21.45 -43.45 23.1 -42.35 Q23.5 -41.95 25.4 -41.1 L28.05 -39.95 Q26.65 -39.0 24.25 -38.0 21.9 -37.0 20.7 -36.85 L20.65 -37.35 Q20.55 -37.65 19.9 -37.65 L19.2 -37.5 19.2 -37.35 19.25 -36.4 16.15 -35.6 15.95 -37.45 Q17.75 -39.1 17.75 -41.15 L17.05 -42.75 Q16.2 -44.15 15.2 -44.9 M9.75 -34.0 L1.7 -33.4 -7.35 -33.0 -3.45 -36.45 -3.4 -36.45 1.1 -36.45 Q3.85 -36.9 3.0 -39.5 L3.0 -51.75 4.6 -47.95 Q5.85 -44.8 6.6 -44.0 3.95 -42.6 3.95 -40.4 3.95 -39.05 5.95 -37.15 L9.75 -34.0 M16.4 -67.0 L15.7 -67.2 15.0 -66.95 Q14.85 -62.8 15.45 -62.45 15.8 -62.3 16.6 -62.95 L16.4 -67.0 M16.55 -51.05 Q16.85 -50.85 17.1 -50.7 L17.8 -50.85 17.9 -51.0 Q18.65 -57.2 16.0 -54.35 16.0 -51.9 16.55 -51.05 M16.35 -56.7 Q17.35 -56.7 17.15 -56.95 L16.75 -60.6 Q16.6 -61.2 16.05 -61.2 L15.4 -61.05 15.4 -60.9 Q15.55 -58.0 15.8 -57.2 15.95 -56.7 16.35 -56.7 M20.05 -39.3 L20.05 -39.7 Q20.1 -43.35 19.0 -43.55 17.95 -43.75 17.95 -42.75 17.95 -40.6 18.55 -39.7 18.9 -39.1 19.4 -39.1 20.0 -39.1 20.05 -39.3 M18.8 -44.9 L18.85 -45.75 Q18.85 -49.55 17.85 -49.4 16.85 -49.3 16.85 -48.4 16.85 -44.85 17.95 -44.85 L18.8 -44.9 M-24.45 -104.55 Q-24.6 -105.85 -23.05 -108.05 L-19.4 -113.05 -19.15 -113.35 Q-17.1 -115.9 -20.5 -107.3 L-22.6 -102.15 Q-19.65 -104.35 -21.3 -92.85 L-23.35 -100.35 -23.4 -100.25 -23.65 -101.1 -23.6 -101.2 -24.45 -104.55 M-2.85 -118.4 L-2.6 -114.0 Q-2.6 -111.15 -6.4 -106.85 -11.9 -100.7 -16.85 -93.8 L-17.9 -92.3 -20.05 -89.2 -18.2 -95.35 -17.55 -96.1 Q-14.3 -99.95 -8.85 -108.35 -3.5 -116.65 -2.85 -118.4 M-9.25 -90.5 Q-7.55 -90.8 -3.8 -98.65 L-9.95 -91.2 -9.25 -90.5 M-24.25 -87.55 L-24.3 -88.4 -24.65 -89.2 -25.1 -89.35 -25.5 -88.9 -25.75 -87.8 Q-28.8 -89.1 -29.35 -89.55 L-31.65 -92.3 -29.95 -92.3 -25.7 -91.05 Q-24.6 -90.45 -22.5 -88.25 -22.75 -87.8 -23.5 -87.6 L-24.25 -87.55 M-27.5 -84.75 L-26.6 -84.75 -25.95 -74.85 Q-25.5 -70.4 -25.05 -69.0 -25.7 -69.8 -26.9 -75.9 -28.2 -82.55 -27.5 -84.75 M-16.55 -62.2 L-16.35 -63.8 -16.55 -65.4 Q-16.8 -66.05 -17.15 -66.05 -17.5 -66.05 -17.7 -65.4 L-17.95 -63.8 -17.7 -62.2 Q-17.5 -61.55 -17.15 -61.55 -16.8 -61.55 -16.55 -62.2 M-23.15 -47.2 L-22.8 -48.0 Q-22.5 -48.0 -22.4 -47.45 L-22.35 -46.9 -23.15 -47.2 M-24.1 -39.55 Q-24.1 -39.1 -24.55 -38.8 -25.05 -38.5 -25.75 -38.5 L-24.15 -39.55 -24.1 -39.55" fill="#c8c8c8" fill-rule="evenodd" stroke="none"/>
    <path d="M-16.0 -103.65 L-18.2 -98.65 -19.2 -96.3 -19.6 -95.3 -19.3 -96.8 -18.6 -100.6 Q-17.0 -108.6 -15.15 -114.4 -13.6 -119.3 -11.85 -122.65 -10.45 -125.4 -8.45 -127.9 L-7.85 -128.7 -5.95 -130.85 -5.45 -131.4 -5.9 -130.75 -7.7 -126.95 -8.0 -126.2 Q-9.6 -120.8 -9.9 -120.25 L-9.85 -120.0 -9.75 -119.55 Q-9.6 -119.3 -7.95 -120.1 -14.35 -108.8 -16.0 -103.65 M5.05 -109.15 L5.15 -110.3 5.45 -111.65 Q6.0 -114.0 7.4 -116.6 8.65 -118.9 10.1 -120.2 L10.35 -120.4 10.85 -120.75 11.6 -121.25 13.35 -121.8 14.2 -121.85 16.3 -121.6 17.8 -121.1 18.75 -120.6 Q21.0 -119.25 22.85 -116.45 L23.05 -116.15 Q27.1 -109.75 27.1 -98.1 27.1 -90.5 23.85 -85.7 20.45 -80.7 15.45 -81.85 17.45 -83.6 19.35 -84.65 20.2 -85.65 19.9 -90.15 19.9 -90.65 20.25 -91.85 L20.6 -93.6 Q20.6 -94.8 18.4 -106.6 L17.6 -111.6 16.8 -114.6 Q16.2 -116.3 15.4 -117.0 L15.3 -117.05 15.2 -117.1 15.15 -117.15 14.25 -117.4 13.45 -117.35 11.65 -116.9 Q10.55 -116.5 9.55 -115.75 L8.4 -114.85 8.3 -114.7 6.85 -113.15 6.2 -112.2 5.35 -110.3 5.05 -109.15 M30.0 -34.4 L30.9 -28.65 27.5 -26.95 23.2 -25.45 21.65 -25.0 Q13.05 -22.6 3.9 -22.6 L-5.15 -23.25 -16.65 -25.45 -18.0 -25.75 -20.3 -26.3 -21.65 -26.75 Q-22.4 -27.0 -22.6 -27.35 L-22.75 -27.65 -22.75 -27.75 -22.5 -29.35 -22.25 -30.8 Q-19.65 -29.8 -13.7 -28.8 L-4.25 -27.7 Q7.35 -27.7 18.15 -30.5 L30.0 -34.4" fill="#171717" fill-rule="evenodd" stroke="none"/>
    <path d="M4.0 -127.55 L3.3 -127.1 2.3 -126.3 1.95 -126.0 0.15 -124.35 -4.85 -119.3 Q-12.45 -111.1 -16.0 -103.65 -14.35 -108.8 -7.95 -120.1 L-2.35 -123.6 0.3 -125.3 3.6 -127.35 4.0 -127.55 M5.05 -109.15 L5.35 -110.3 6.2 -112.2 6.85 -113.15 8.3 -114.7 8.4 -114.85 9.55 -115.75 Q10.55 -116.5 11.65 -116.9 L13.45 -117.35 14.25 -117.4 15.15 -117.15 15.2 -117.1 15.3 -117.05 15.4 -117.0 Q16.2 -116.3 16.8 -114.6 L17.6 -111.6 18.4 -106.6 Q20.6 -94.8 20.6 -93.6 L20.25 -91.85 Q19.9 -90.65 19.9 -90.15 20.2 -85.65 19.35 -84.65 17.45 -83.6 15.45 -81.85 9.25 -85.35 6.7 -93.65 L6.25 -95.2 Q5.15 -99.5 5.0 -104.35 L5.05 -109.15" fill="#2a2a2a" fill-rule="evenodd" stroke="none"/>
    <path d="M13.3 -44.95 L13.95 -45.0 15.2 -44.9 15.95 -37.45 14.4 -35.6 13.3 -44.95 M27.3 -48.3 Q28.35 -51.5 30.0 -51.5 31.8 -51.5 32.95 -50.1 34.0 -48.8 34.0 -46.85 34.0 -44.5 32.9 -42.6 31.55 -40.2 31.15 -38.25 L28.05 -39.95 28.85 -40.45 Q29.2 -40.7 29.2 -41.3 29.2 -42.3 27.3 -48.3 M13.75 -34.9 Q13.4 -34.55 12.0 -32.0 L11.35 -32.7 9.8 -34.0 13.75 -34.9 M-7.35 -33.0 L-8.65 -31.3 -9.95 -33.0 -7.35 -33.0 M7.25 -9.65 L7.6 -9.65 7.65 -6.35 Q7.2 -6.9 7.2 -8.05 L7.25 -9.65 M21.2 -10.75 L22.75 -10.95 22.75 -8.05 21.35 -7.65 21.2 -10.75 M6.8 -1.1 L7.65 -1.1 7.65 0.6 6.8 -0.9 6.8 -1.1 M26.8 -4.9 L27.8 -5.3 27.75 -2.3 Q26.65 -2.6 25.2 -2.3 25.2 -3.1 24.45 -4.05 L25.6 -4.45 25.7 -4.25 26.2 -3.95 26.6 -4.35 26.8 -4.9 M23.65 -3.8 L24.45 -4.05 23.9 -1.75 23.7 -1.65 23.65 -3.8 M22.75 -2.7 L22.8 -1.75 22.75 -1.1 21.5 0.0 21.45 -3.15 22.75 -3.5 22.75 -2.7 M32.15 0.45 L31.9 2.75 31.4 6.15 30.35 6.65 30.55 4.6 30.75 2.9 30.75 2.75 30.85 0.55 32.15 0.45 M26.2 1.65 L26.55 2.75 26.65 2.9 26.85 2.75 26.35 3.55 25.25 3.85 25.25 1.55 26.2 1.65 M25.25 8.5 L25.25 8.25 26.0 7.95 26.0 8.35 25.25 8.5 M21.3 6.5 L22.0 6.85 Q21.6 9.05 21.15 9.65 L21.1 9.65 21.3 6.5 M22.3 18.95 Q23.7 18.45 24.55 16.8 25.5 14.9 25.25 12.5 L26.75 12.0 26.0 17.55 26.15 14.5 26.1 13.7 26.0 13.65 25.75 13.65 25.35 17.9 26.0 17.85 25.9 18.45 23.75 21.05 21.75 23.35 21.15 23.55 22.3 18.95 M17.35 10.35 L15.15 10.75 14.2 10.5 17.35 10.35 M27.1 7.45 L27.2 7.4 27.1 7.85 27.1 7.45 M16.95 19.55 L16.15 24.9 9.9 25.1 10.15 21.45 14.4 20.55 Q16.3 20.0 16.95 19.55 M7.0 21.75 L6.8 25.3 0.15 25.5 -0.45 21.7 2.3 21.85 7.0 21.75 M-3.55 21.2 L-3.4 25.05 -6.15 24.7 -8.9 24.5 -10.1 23.8 -10.75 17.8 Q-6.15 21.0 -3.55 21.2 M3.65 3.25 L1.75 1.15 2.3 1.2 2.75 1.15 3.95 1.2 Q3.75 1.85 3.7 2.75 L3.65 3.25 M3.3 7.2 L2.3 6.5 1.4 5.7 -0.05 4.1 1.45 5.55 2.3 6.35 3.3 7.2 M5.35 7.9 L5.5 8.1 5.2 7.95 5.35 7.9 M-22.35 -46.9 L-21.65 -46.05 Q-21.35 -45.55 -21.35 -44.9 -21.35 -43.35 -22.15 -41.95 -22.75 -40.95 -24.1 -39.55 L-24.15 -39.55 -23.45 -41.4 Q-22.8 -43.25 -22.35 -46.9 M-25.75 -38.5 Q-27.4 -37.45 -29.05 -35.8 L-29.25 -37.15 -25.65 -46.0 Q-24.15 -47.1 -23.15 -47.2 L-26.9 -40.75 Q-26.85 -40.0 -26.35 -39.2 L-25.75 -38.5 M-23.9 -13.95 L-24.7 -14.3 -23.9 -14.0 -23.9 -13.95 M-20.9 -10.85 L-18.5 -10.25 -18.8 -9.0 -19.0 -9.1 -19.1 -9.25 -19.2 -9.6 -20.9 -10.85 M-24.15 5.1 L-24.7 2.75 -25.25 0.0 -25.9 -5.45 -25.9 -7.65 -24.3 -6.8 -24.3 -5.45 -24.2 2.75 -24.15 5.1 M-19.65 -4.8 L-19.85 -2.9 Q-19.85 -0.3 -19.35 1.8 L-19.1 2.75 -17.4 8.9 Q-19.6 8.15 -20.55 5.8 L-21.1 3.6 -21.2 -5.45 -19.65 -4.8 M-14.8 13.4 L-14.15 14.35 -13.55 21.25 Q-15.05 19.9 -17.75 16.5 L-20.55 12.8 -20.65 11.75 -14.8 13.4" fill="#96201d" fill-rule="evenodd" stroke="none"/>
    <path d="M14.4 -35.6 L13.75 -34.9 9.8 -34.0 9.75 -34.0 5.95 -37.15 Q3.95 -39.05 3.95 -40.4 3.95 -42.6 6.6 -44.0 L8.05 -43.5 8.2 -43.95 10.55 -42.45 11.8 -43.7 13.3 -44.95 14.4 -35.6 M22.7 -48.05 Q23.5 -48.85 24.6 -48.85 L26.3 -48.45 27.3 -48.3 Q29.2 -42.3 29.2 -41.3 29.2 -40.7 28.85 -40.45 L28.05 -39.95 25.4 -41.1 Q23.5 -41.95 23.1 -42.35 L23.4 -42.65 24.1 -43.75 22.7 -48.05 M15.2 -44.9 Q16.2 -44.15 17.05 -42.75 L17.75 -41.15 Q17.75 -39.1 15.95 -37.45 L15.2 -44.9 M1.15 -8.15 L1.35 -15.85 Q2.9 -15.25 4.75 -14.95 L4.65 -5.45 1.7 -5.45 1.4 -5.85 1.15 -8.15 M26.65 -11.6 L26.8 -11.65 26.65 -13.4 26.55 -18.65 27.45 -19.1 27.75 -11.05 Q27.75 -9.85 26.7 -9.45 L26.65 -11.6 M10.75 1.75 L10.75 -1.3 18.4 -2.45 18.4 2.1 17.55 1.35 Q16.95 0.9 15.65 0.9 L12.95 1.2 Q11.0 1.5 10.75 1.75 M24.45 -4.05 Q25.2 -3.1 25.2 -2.3 L23.9 -1.75 24.45 -4.05 M25.25 1.55 L25.25 3.85 24.9 3.6 Q24.65 3.4 24.65 2.75 L24.85 1.9 Q24.95 1.75 25.25 1.55 M23.45 9.05 L23.5 8.05 25.25 8.25 25.25 8.5 23.45 9.05 M23.1 13.1 L25.25 12.5 Q25.5 14.9 24.55 16.8 23.7 18.45 22.3 18.95 L23.1 13.1 M12.05 11.15 L10.55 11.25 10.55 10.3 12.05 11.15 M15.8 4.7 L15.8 6.7 13.8 6.7 13.8 4.7 15.8 4.7 M-0.05 4.1 L1.4 5.7 2.3 6.5 3.3 7.2 4.05 7.65 5.85 9.4 7.5 10.85 7.45 11.5 1.25 11.5 -0.85 9.55 -1.0 2.45 -0.05 4.1 M-0.65 16.1 L2.3 16.7 4.4 16.85 6.1 16.55 7.3 15.5 7.0 21.75 2.3 21.85 -0.45 21.7 -0.65 16.1 M17.35 16.3 L16.95 19.55 Q16.3 20.0 14.4 20.55 L10.15 21.45 10.25 15.1 13.8 14.8 17.35 16.3 M-11.95 -43.95 L-10.55 -43.5 -8.65 -41.85 -7.7 -42.75 Q-6.9 -37.15 -6.45 -36.95 -5.25 -37.4 -3.45 -36.45 L-7.35 -33.0 -9.95 -33.0 -13.1 -35.8 Q-12.4 -36.9 -12.1 -40.1 L-11.95 -43.95 M-14.2 -36.75 Q-15.3 -38.2 -15.8 -40.15 -15.8 -40.95 -15.25 -42.15 L-14.8 -39.45 -14.2 -36.75 M-23.15 -47.2 L-22.35 -46.9 Q-22.8 -43.25 -23.45 -41.4 L-24.15 -39.55 -25.75 -38.5 -26.35 -39.2 Q-26.85 -40.0 -26.9 -40.75 L-23.15 -47.2 M-18.5 -10.25 L-14.3 -9.2 -14.3 -9.0 -16.35 -9.0 -16.35 -8.2 -18.8 -9.0 -18.5 -10.25 M-11.2 -8.4 Q-9.85 -8.1 -8.7 -8.75 -7.65 -9.4 -7.6 -10.2 L-4.2 -9.85 -4.15 -5.75 -8.25 -6.3 Q-6.7 -6.65 -6.55 -7.1 -6.65 -7.35 -7.1 -7.6 L-8.35 -7.95 Q-9.65 -7.95 -10.15 -7.1 L-9.55 -6.5 -11.3 -6.9 -11.2 -8.4 M-19.65 -4.8 L-14.5 -3.15 -14.5 2.75 -14.4 9.65 -17.4 8.9 -19.1 2.75 -19.35 1.8 Q-19.85 -0.3 -19.85 -2.9 L-19.65 -4.8 M-14.8 13.4 L-14.5 13.6 Q-14.2 13.9 -14.15 14.35 L-14.8 13.4 M-10.75 17.8 L-11.1 14.25 -3.6 15.1 -3.55 21.2 Q-6.15 21.0 -10.75 17.8 M-6.2 -1.6 L-4.05 -1.3 -4.05 3.6 -4.35 2.75 -6.2 -1.6 M-8.45 10.75 L-8.65 10.7 -11.45 10.35 -11.45 6.05 -10.3 8.1 -9.7 8.95 -8.55 10.6 -8.45 10.75" fill="#b52522" fill-rule="evenodd" stroke="none"/>
    <path d="M-7.7 -42.75 L-6.1 -43.55 -5.05 -43.95 Q-3.05 -43.95 -2.1 -42.3 -1.45 -41.2 -1.45 -39.85 -1.45 -39.6 -2.0 -38.5 -2.65 -37.2 -3.4 -36.45 L-3.45 -36.45 Q-5.25 -37.4 -6.45 -36.95 -6.9 -37.15 -7.7 -42.75 M6.6 -44.0 L8.2 -43.95 8.05 -43.5 6.6 -44.0 M23.1 -42.35 L22.3 -43.5 Q21.8 -44.4 21.8 -45.1 21.8 -46.6 22.7 -48.05 L24.1 -43.75 23.4 -42.65 23.1 -42.35 M1.35 -15.85 L1.45 -18.6 4.9 -18.55 4.75 -14.95 Q2.9 -15.25 1.35 -15.85 M26.55 -18.65 Q26.55 -21.35 27.3 -21.65 L27.45 -19.1 26.55 -18.65 M-0.85 9.55 L1.25 11.5 -0.8 11.45 -0.85 9.55 M7.5 10.85 L5.85 9.4 4.05 7.65 5.2 7.95 5.5 8.1 7.55 9.55 7.5 10.85 M7.3 15.5 L6.1 16.55 4.4 16.85 2.3 16.7 -0.65 16.1 -0.65 15.3 2.3 15.35 7.3 15.3 7.3 15.5 M16.25 14.55 L17.5 15.1 17.35 16.3 13.8 14.8 13.85 14.8 16.25 14.55 M-15.25 -42.2 Q-15.25 -42.9 -14.25 -43.4 -13.3 -43.95 -11.95 -43.95 L-12.1 -40.1 Q-12.4 -36.9 -13.1 -35.8 -13.6 -35.8 -14.2 -36.75 L-14.8 -39.45 -15.25 -42.15 -15.25 -42.2 M-6.2 -1.6 L-4.35 2.75 -4.05 3.6 -3.9 11.25 -8.45 10.75 -8.55 10.6 -9.7 8.95 -10.3 8.1 -11.45 6.05 -11.45 -2.4 -6.2 -1.6" fill="#d52d28" fill-rule="evenodd" stroke="none"/>
    <path d="M30.8 -11.7 L30.05 -24.85 30.15 -24.95 32.55 -26.15 Q33.65 -26.65 34.9 -28.35 L35.2 -24.8 34.8 -24.1 34.7 -24.95 30.95 -23.2 30.95 -11.85 30.8 -11.7 M33.95 13.9 Q33.55 15.65 32.45 17.5 L30.4 20.5 28.5 21.25 28.75 20.0 Q33.4 12.85 34.3 8.85 L34.65 8.55 33.95 13.9 M24.15 27.45 L17.8 31.75 18.65 27.7 18.8 27.55 19.75 27.3 19.1 28.95 22.05 26.85 24.4 26.25 24.15 27.45 M14.25 33.3 L9.2 34.65 9.4 32.45 14.75 31.2 14.25 33.3 M6.05 34.95 L0.2 34.85 0.1 32.85 6.2 33.05 6.05 34.95 M-2.9 34.3 L-8.7 32.3 -9.1 30.15 -3.0 32.3 -2.9 34.3 M-12.2 30.4 L-17.3 26.3 -13.95 27.15 -12.6 28.1 -12.2 30.4 M-23.0 19.25 L-27.95 8.5 -26.15 9.5 -23.4 15.5 -23.0 19.25 M-29.5 2.7 Q-29.8 2.2 -29.7 1.75 L-29.65 1.6 Q-28.85 -0.1 -28.95 -2.2 L-28.1 2.75 -27.75 4.35 -29.5 2.75 -29.5 2.7 M17.55 -21.55 L17.55 -19.85 10.65 -19.0 10.65 -21.0 17.55 -21.55 M20.7 -20.2 L20.45 -22.1 27.1 -23.95 27.3 -21.65 Q26.55 -21.35 26.55 -18.65 L26.65 -13.4 26.05 -19.6 25.25 -20.3 25.25 -20.95 20.7 -20.2 M7.6 -20.75 L7.55 -18.6 6.9 -18.55 6.8 -18.55 Q5.85 -7.55 5.85 -5.45 L4.65 -5.45 4.75 -14.95 4.9 -18.55 1.45 -18.6 1.35 -15.85 1.15 -8.15 1.15 -6.2 -0.05 -8.5 -0.05 -9.65 0.7 -9.65 0.8 -17.75 0.2 -18.45 0.2 -19.35 -0.7 -19.4 -0.55 -21.0 3.25 -20.8 7.6 -20.75 M25.4 -11.3 L26.65 -11.6 26.7 -9.45 25.5 -8.95 25.4 -11.3 M25.6 -4.45 L26.8 -4.9 26.6 -4.35 26.2 -3.95 25.7 -4.25 25.6 -4.45 M22.95 -3.55 L23.65 -3.8 23.7 -1.65 22.8 -1.1 22.8 -1.75 22.75 -2.7 22.95 -3.55 M23.5 8.05 L23.45 9.05 22.4 9.35 22.5 7.3 23.5 8.05 M22.1 13.3 L23.1 13.1 22.3 18.95 21.15 23.55 20.2 23.75 Q21.15 20.45 21.8 16.35 L20.5 16.0 20.6 14.95 21.95 15.3 22.1 13.3 M7.55 8.35 L7.55 9.55 5.5 8.1 5.35 7.9 6.3 7.5 7.55 8.35 M16.25 14.55 L17.6 14.25 17.5 15.1 16.25 14.55 M3.95 1.2 L4.95 2.3 4.55 2.75 3.95 3.6 3.65 3.25 3.7 2.75 Q3.75 1.85 3.95 1.2 M-26.65 -47.95 L-26.15 -46.75 -25.65 -46.0 -29.25 -37.15 -29.95 -39.3 -26.65 -47.95 M-27.0 -26.55 L-26.65 -28.75 -26.65 -28.8 Q-25.75 -27.3 -24.8 -26.9 L-24.25 -26.65 -22.35 -25.7 -22.6 -24.15 -24.95 -24.6 -27.0 -26.55 M-19.5 -24.55 Q-13.35 -22.5 -12.7 -22.55 L-12.75 -22.15 -19.6 -23.55 -19.5 -24.55 M-9.7 -22.0 L-3.65 -21.25 -3.75 -19.65 -7.3 -19.95 -7.3 -21.05 -9.75 -21.55 -9.7 -22.0" fill="#521210" fill-rule="evenodd" stroke="none"/>
    <path d="M31.7 -21.1 L32.0 -17.55 32.55 -13.1 30.95 -11.85 30.95 -23.2 34.7 -24.95 34.8 -24.1 34.45 -23.65 32.35 -22.15 Q31.6 -21.75 31.7 -21.1 M32.8 -13.05 L34.4 -14.0 34.6 -14.1 33.25 -13.0 32.8 -13.05 M10.65 -19.0 L17.55 -19.85 17.6 -19.3 10.65 -18.65 10.65 -19.0 M20.75 -19.6 L20.7 -20.2 25.25 -20.95 25.25 -20.3 23.6 -20.0 21.35 -19.65 20.75 -19.6 M-0.7 -19.4 L0.2 -19.35 0.2 -18.45 -0.4 -18.5 -0.75 -18.5 -0.7 -19.4 M-0.05 -9.65 L-0.05 -8.5 -0.55 -9.7 -0.05 -9.65 M1.15 -6.2 L1.15 -8.15 1.4 -5.85 1.15 -6.2 M5.85 -5.45 Q5.85 -7.55 6.8 -18.55 L6.8 -17.75 7.25 -9.65 7.2 -8.05 Q7.2 -6.9 7.65 -6.35 7.65 -5.5 5.85 -5.45 M6.9 -18.55 L7.55 -18.6 7.55 -18.5 7.4 -18.5 6.9 -18.55 M10.65 -9.8 L18.8 -10.5 19.05 -8.6 Q19.05 -8.15 18.6 -7.65 L18.25 -7.65 18.3 -6.9 17.1 -6.6 17.1 -6.7 16.85 -6.65 14.3 -6.1 14.35 -6.2 11.5 -5.8 Q11.05 -6.2 10.8 -7.9 10.65 -8.85 10.65 -9.8 M22.75 -10.95 L25.4 -11.3 25.5 -8.95 22.75 -8.05 22.75 -10.95 M6.8 -1.1 L6.8 -0.9 6.65 -1.1 6.8 -1.1 M22.95 -3.55 L22.75 -2.7 22.75 -3.5 22.95 -3.55 M22.8 -1.75 L22.8 -1.1 22.75 -1.1 22.8 -1.75 M34.15 -8.5 L34.2 -7.7 33.95 -4.65 Q33.25 -4.85 33.05 -5.05 32.8 -5.3 32.6 -7.6 L34.15 -8.5 M31.4 6.15 L31.9 2.75 32.15 0.45 33.85 0.15 Q34.9 -0.15 35.45 -0.55 35.7 1.45 35.4 2.75 35.1 3.95 34.4 4.55 32.35 5.45 31.4 6.15 M30.15 10.7 L34.3 8.85 Q33.4 12.85 28.75 20.0 L29.95 11.3 30.15 10.7 M26.85 2.75 L26.65 2.9 26.55 2.75 26.2 1.65 Q26.65 1.95 26.9 2.65 L26.85 2.75 M22.5 7.3 L22.4 9.35 21.15 9.65 Q21.6 9.05 22.0 6.85 L22.5 7.3 M26.0 8.35 L26.0 7.95 27.1 7.45 27.1 7.85 26.0 8.35 M26.0 17.55 L26.0 17.8 26.0 17.85 25.35 17.9 25.75 13.65 26.0 13.65 26.1 13.7 26.15 14.5 26.0 17.55 M20.6 14.95 Q20.7 14.15 21.4 13.65 21.75 13.4 22.1 13.3 L21.95 15.3 20.6 14.95 M20.5 16.0 L21.8 16.35 Q21.15 20.45 20.2 23.75 L19.45 23.85 Q20.0 23.7 20.5 16.1 L20.5 16.0 M21.75 23.35 L23.75 21.05 25.9 18.45 Q25.6 20.3 25.0 21.2 24.05 22.75 21.75 23.35 M19.75 27.3 L22.05 26.85 19.1 28.95 19.75 27.3 M10.6 8.9 L12.15 9.8 14.2 10.5 15.15 10.75 12.05 11.15 10.55 10.3 10.6 8.9 M6.3 7.5 L7.6 6.55 7.55 8.35 6.3 7.5 M9.4 32.45 L9.65 28.35 15.45 28.05 14.75 31.2 9.4 32.45 M6.2 33.05 L0.1 32.85 -0.1 28.75 6.2 29.35 6.2 33.05 M-3.0 32.25 L-3.0 32.3 -9.1 30.15 -9.1 30.1 -9.5 27.9 -9.1 27.95 -3.35 28.8 -3.0 32.25 M-27.0 -26.55 L-24.95 -24.6 -25.95 -24.05 -26.95 -24.7 Q-27.15 -24.95 -27.0 -26.55 M-27.1 -13.7 L-27.85 -14.55 Q-28.55 -15.55 -28.45 -16.35 L-27.15 -15.5 -27.1 -13.7 M-29.2 -4.3 L-29.1 -9.7 -25.9 -7.65 -25.9 -5.45 -25.25 0.0 -24.7 2.75 -24.15 5.1 -24.05 6.35 -27.75 4.35 -28.1 2.75 -28.95 -2.2 -29.2 -4.3 M-24.15 -11.5 L-24.6 -11.8 -24.1 -11.65 -24.1 -11.55 -24.15 -11.5 M-21.1 -10.9 L-20.9 -10.85 -19.2 -9.6 -19.1 -9.25 -19.0 -9.1 -19.25 -9.2 Q-20.4 -9.7 -20.85 -10.3 L-21.1 -10.9 M-7.35 -19.0 L-7.3 -19.95 -3.75 -19.65 -3.8 -18.6 -4.15 -18.65 -7.35 -19.0 M-14.3 -9.0 L-14.3 -7.6 -16.35 -8.2 -16.35 -9.0 -14.3 -9.0 M-9.55 -6.5 L-10.15 -7.1 Q-9.65 -7.95 -8.35 -7.95 L-7.1 -7.6 Q-6.65 -7.35 -6.55 -7.1 -6.7 -6.65 -8.25 -6.3 L-9.55 -6.5 M-10.1 23.8 L-8.9 24.5 Q-10.0 24.35 -10.1 23.8 M-13.55 21.25 L-13.25 23.75 -19.0 22.25 -19.55 21.65 -20.55 12.8 -17.75 16.5 Q-15.05 19.9 -13.55 21.25 M-13.95 27.15 Q-13.15 27.3 -12.8 27.7 L-12.6 28.1 -13.95 27.15 M-26.15 9.5 L-23.85 10.5 -23.4 15.5 -26.15 9.5" fill="#791a17" fill-rule="evenodd" stroke="none"/>
    <path d="M17.6 -19.3 L20.75 -19.6 21.35 -19.65 22.25 -19.1 8.7 -17.8 9.7 -18.55 10.65 -18.65 17.6 -19.3 M-7.35 -18.15 L-7.35 -19.0 -4.15 -18.65 -2.5 -17.8 -7.35 -18.15" fill="#616161" fill-rule="evenodd" stroke="none"/>
    <path d="M34.6 -14.1 L35.8 -15.1 36.1 -10.95 Q34.65 -12.4 33.25 -13.0 L34.6 -14.1 M17.55 -19.85 L17.55 -21.55 20.45 -22.1 20.7 -20.2 20.75 -19.6 17.6 -19.3 17.55 -19.85 M10.65 -21.0 L10.65 -19.0 10.65 -18.65 9.7 -18.55 7.55 -18.5 7.55 -18.6 7.6 -20.75 10.65 -21.0 M-0.55 -21.0 L-0.7 -19.4 -0.75 -18.5 -3.8 -18.6 -3.75 -19.65 -3.65 -21.25 -0.55 -21.0 M7.65 -6.35 L8.15 -6.2 7.5 -4.75 6.8 -1.1 6.65 -1.1 5.85 -1.9 5.85 -5.45 Q7.65 -5.5 7.65 -6.35 M14.3 -6.1 L14.2 -5.95 13.3 -5.6 11.3 -5.8 11.5 -5.8 14.35 -6.2 14.3 -6.1 M18.6 -7.65 L20.35 -7.65 20.35 -6.35 17.1 -6.35 17.1 -6.6 18.3 -6.9 18.25 -7.65 18.6 -7.65 M27.1 -23.95 L29.5 -24.75 29.6 -22.65 27.3 -21.65 27.1 -23.95 M25.5 -8.95 L25.45 -7.6 23.55 -6.9 22.95 -3.55 22.75 -3.5 22.75 -8.05 25.5 -8.95 M36.05 -1.05 L35.8 2.25 35.75 2.75 34.3 8.85 30.15 10.7 31.4 6.15 Q32.35 5.45 34.4 4.55 35.1 3.95 35.4 2.75 35.7 1.45 35.45 -0.55 L36.05 -1.05 M32.6 -7.6 L32.65 -8.8 34.1 -8.95 34.15 -8.5 32.6 -7.6 M21.15 9.65 L22.4 9.35 22.1 13.3 Q21.75 13.4 21.4 13.65 20.7 14.15 20.6 14.95 L12.05 11.15 15.15 10.75 16.25 10.95 18.1 11.1 19.8 10.6 21.15 9.65 M25.9 18.45 L28.15 15.0 Q29.8 12.25 29.95 11.3 L28.75 20.0 25.7 23.8 Q23.95 25.75 22.05 26.85 L19.75 27.3 20.9 24.4 21.75 23.35 Q24.05 22.75 25.0 21.2 25.6 20.3 25.9 18.45 M26.0 8.35 L27.1 7.85 27.1 9.85 26.55 10.45 Q26.2 10.2 26.0 8.35 M20.5 16.1 Q20.0 23.7 19.45 23.85 L20.2 23.75 18.8 27.55 18.65 27.7 Q17.85 29.4 16.8 30.25 16.0 30.9 14.75 31.2 L15.45 28.05 9.65 28.35 9.4 32.45 6.2 33.05 6.2 29.35 -0.1 28.75 0.1 32.85 -3.0 32.25 -3.35 28.8 -9.1 27.95 -9.5 27.9 -9.1 30.1 -12.6 28.1 -12.8 27.7 Q-13.15 27.3 -13.95 27.15 L-15.95 25.35 -19.0 22.25 -13.25 23.75 -13.55 21.25 -10.1 23.8 Q-10.0 24.35 -8.9 24.5 L-6.35 25.35 -2.75 26.35 3.6 27.85 10.85 26.9 16.25 25.5 Q18.4 25.0 19.1 22.05 19.7 18.2 20.45 16.0 L20.5 16.1 M10.55 10.3 L7.55 8.35 7.6 6.55 8.8 6.7 10.4 8.35 10.6 8.9 10.55 10.3 M-24.75 -100.95 L-23.75 -97.55 -23.75 -97.15 Q-23.85 -96.8 -24.45 -96.8 L-25.25 -96.8 -25.3 -97.6 -25.1 -99.55 -24.75 -100.95 M-21.0 -64.6 L-21.0 -63.8 -21.1 -61.2 -22.1 -64.1 Q-22.05 -64.75 -21.6 -65.0 L-21.05 -64.8 -21.0 -64.6 M-24.25 -94.65 Q-24.0 -94.0 -24.0 -93.05 -24.0 -92.1 -24.25 -91.45 -24.5 -90.8 -24.85 -90.8 -25.2 -90.8 -25.45 -91.45 L-25.7 -93.05 -25.45 -94.65 Q-25.2 -95.3 -24.85 -95.3 L-24.25 -94.65 M-25.75 -87.8 L-25.5 -88.9 -25.1 -89.35 -24.65 -89.2 -24.3 -88.4 -24.25 -87.55 -24.25 -85.0 -24.9 -84.75 -25.6 -85.15 -25.75 -87.8 M-24.1 -83.0 L-23.75 -79.0 -23.85 -78.85 -24.55 -78.7 Q-24.95 -78.7 -25.1 -79.05 -25.55 -79.85 -25.55 -82.4 -25.55 -83.05 -25.1 -83.15 L-24.1 -83.0 M-23.8 -77.35 Q-22.8 -77.45 -22.8 -73.6 L-22.9 -72.9 -23.4 -72.7 -24.5 -72.85 Q-24.85 -73.15 -24.85 -76.3 -24.85 -77.2 -23.8 -77.35 M-23.5 -71.0 L-22.9 -71.1 Q-22.25 -71.1 -21.8 -69.65 -21.45 -68.55 -21.45 -67.5 -21.45 -66.85 -21.6 -66.7 L-22.0 -66.6 Q-22.65 -67.15 -23.15 -68.4 L-23.6 -70.4 Q-23.6 -71.4 -23.5 -70.8 L-23.5 -71.0 M-22.6 -24.15 L-22.35 -25.7 -19.5 -24.55 -19.6 -23.55 -22.6 -24.15 M-12.7 -22.55 L-9.7 -22.0 -9.75 -21.55 -12.75 -22.15 -12.7 -22.55 M-27.1 -13.7 L-26.8 -13.0 -25.55 -12.1 -24.6 -11.8 -24.15 -11.5 -25.25 -9.85 -25.35 -9.6 Q-25.9 -8.5 -25.9 -7.65 L-29.1 -9.7 -29.2 -4.3 -29.55 -11.05 Q-29.1 -16.0 -28.45 -16.35 -28.55 -15.55 -27.85 -14.55 L-27.1 -13.7 M-24.1 -11.65 L-24.05 -11.65 -24.1 -11.55 -24.1 -11.65 M-21.55 -11.05 L-21.1 -10.9 -20.85 -10.3 Q-20.4 -9.7 -19.25 -9.2 L-19.0 -9.1 Q-19.3 -8.95 -19.9 -9.1 -20.65 -9.25 -21.85 -9.85 L-21.55 -11.05 M-13.5 -9.0 L-12.9 -8.85 -12.9 -7.25 -16.35 -7.25 -16.35 -8.2 -14.3 -7.6 -14.3 -9.0 -13.5 -9.0 M-1.85 -5.85 L-3.1 -6.1 Q-3.8 -6.3 -3.9 -6.5 L-3.75 -6.7 -2.45 -7.05 -1.85 -5.85 M-19.55 21.65 L-23.4 15.5 -23.85 10.5 -26.15 9.5 -27.75 4.35 -24.05 6.35 -24.15 5.1 -20.55 12.8 -19.55 21.65" fill="#b53084" fill-rule="evenodd" stroke="none"/>
    <path d="M-8.0 -97.95 L-7.55 -98.4 -6.85 -98.5 -6.25 -98.4 -6.4 -98.35 -6.1 -97.9 Q-6.7 -96.95 -7.85 -96.05 L-9.05 -95.25 Q-9.7 -95.25 -9.8 -95.5 L-9.85 -96.0 -8.0 -97.95 M-11.3 -94.25 L-10.25 -94.25 -10.3 -94.2 -10.15 -93.45 -11.8 -90.45 -12.4 -90.35 -12.65 -90.45 -13.05 -90.8 -12.8 -91.45 -11.3 -94.25 M-14.7 -86.7 L-14.35 -87.75 -14.0 -88.8 -13.2 -89.0 Q-12.55 -88.65 -13.15 -86.8 L-13.65 -85.0 -14.5 -84.75 -14.75 -85.25 -14.8 -85.4 -14.7 -86.7 M14.9 -72.65 L15.0 -73.0 15.15 -73.15 Q15.35 -73.35 15.6 -73.35 L16.05 -73.25 16.35 -72.8 16.35 -72.3 16.3 -68.9 15.6 -68.7 14.95 -68.9 14.85 -70.95 14.9 -72.65 M20.7 -36.85 L21.4 -33.9 21.25 -33.5 Q21.15 -33.25 20.5 -33.25 20.25 -33.25 20.1 -33.7 L19.25 -36.4 19.2 -37.35 19.2 -37.5 19.9 -37.65 Q20.55 -37.65 20.65 -37.35 L20.7 -36.85 M-15.95 -33.45 L-15.9 -32.3 -16.0 -32.15 -16.75 -32.05 Q-17.75 -32.05 -17.3 -32.2 L-17.45 -33.7 -17.45 -33.85 Q-17.65 -36.1 -17.2 -36.4 L-16.35 -36.4 Q-15.95 -36.1 -15.95 -33.45 M-17.1 -37.95 Q-17.35 -38.1 -17.6 -39.45 L-17.85 -41.6 Q-17.85 -42.25 -17.55 -42.35 L-17.0 -42.4 Q-16.7 -42.25 -16.45 -40.85 L-16.25 -38.7 Q-16.25 -38.05 -16.5 -37.95 L-17.1 -37.95 M-17.1 -43.85 L-17.85 -43.7 Q-18.05 -43.95 -18.05 -47.5 L-17.9 -48.2 -17.4 -48.3 Q-16.15 -47.65 -16.05 -46.15 -16.0 -44.7 -17.1 -43.85 M-17.5 -49.75 Q-18.1 -50.1 -18.1 -52.0 -18.1 -53.7 -17.75 -54.05 L-16.8 -53.85 Q-16.6 -53.7 -16.6 -52.0 -16.6 -50.25 -16.85 -50.05 L-17.5 -49.75 M-17.85 -55.85 L-18.1 -56.4 -18.0 -59.6 -17.25 -60.1 -16.6 -59.85 -16.55 -59.3 Q-16.55 -55.9 -16.8 -55.65 L-17.85 -55.85 M16.4 -67.0 L16.6 -62.95 Q15.8 -62.3 15.45 -62.45 14.85 -62.8 15.0 -66.95 L15.7 -67.2 16.4 -67.0 M16.35 -56.7 Q15.95 -56.7 15.8 -57.2 15.55 -58.0 15.4 -60.9 L15.4 -61.05 16.05 -61.2 Q16.6 -61.2 16.75 -60.6 L17.15 -56.95 Q17.35 -56.7 16.35 -56.7 M16.55 -51.05 Q16.0 -51.9 16.0 -54.35 18.65 -57.2 17.9 -51.0 L17.8 -50.85 17.1 -50.7 Q16.85 -50.85 16.55 -51.05 M18.8 -44.9 L17.95 -44.85 Q16.85 -44.85 16.85 -48.4 16.85 -49.3 17.85 -49.4 18.85 -49.55 18.85 -45.75 L18.8 -44.9 M20.05 -39.3 Q20.0 -39.1 19.4 -39.1 18.9 -39.1 18.55 -39.7 17.95 -40.6 17.95 -42.75 17.95 -43.75 19.0 -43.55 20.1 -43.35 20.05 -39.7 L20.05 -39.3 M7.6 -9.65 L8.85 -9.65 Q8.75 -9.65 8.75 -8.65 8.75 -7.9 9.45 -3.25 10.2 1.4 10.45 2.25 L10.2 2.75 9.85 3.15 9.45 3.05 9.3 3.0 8.95 2.75 8.1 1.9 7.65 0.6 7.65 -1.1 6.8 -1.1 7.5 -4.75 8.15 -6.2 7.65 -6.35 7.6 -9.65 M20.05 -10.65 L21.2 -10.75 21.35 -7.65 22.75 -8.05 22.75 -3.5 21.45 -3.15 21.5 0.0 Q21.05 0.5 20.55 1.75 20.6 -8.05 20.05 -10.65 M29.7 -20.4 L29.65 -9.25 29.4 -5.85 29.55 -3.3 29.55 -2.95 Q29.25 -2.65 27.75 -2.3 L27.8 -5.3 26.8 -4.9 26.7 -9.45 Q27.75 -9.85 27.75 -11.05 L27.45 -19.1 29.7 -20.4 M25.45 -7.6 L25.6 -4.45 24.45 -4.05 23.65 -3.8 23.55 -6.9 25.45 -7.6 M30.55 4.6 L30.35 6.65 31.4 6.15 30.15 10.7 29.95 11.3 Q29.8 12.25 28.15 15.0 L25.9 18.45 26.0 17.85 26.0 17.8 26.0 17.55 26.75 12.0 25.25 12.5 25.25 8.5 26.0 8.35 Q26.2 10.2 26.55 10.45 L27.1 9.85 27.1 7.85 27.2 7.4 28.85 6.4 30.55 4.6 M21.3 6.5 L21.1 9.65 21.15 9.65 19.8 10.6 18.1 11.1 16.25 10.95 15.15 10.75 17.35 10.35 17.95 10.2 18.5 9.95 19.3 8.85 20.15 6.75 21.3 6.5 M20.25 15.95 L20.45 16.0 Q19.7 18.2 19.1 22.05 18.4 25.0 16.25 25.5 L10.85 26.9 3.6 27.85 -2.75 26.35 -6.35 25.35 -8.9 24.5 -6.15 24.7 -3.4 25.05 -3.55 21.2 -0.45 21.7 0.15 25.5 6.8 25.3 7.0 21.75 10.15 21.45 9.9 25.1 16.15 24.9 16.95 19.55 18.25 18.65 19.9 17.0 20.25 15.95 M20.9 24.4 L21.15 23.55 21.75 23.35 20.9 24.4 M8.8 6.7 Q9.45 6.7 9.95 7.2 10.4 7.65 10.4 8.35 L8.8 6.7 M-16.3 -80.0 L-16.0 -80.6 -15.95 -81.3 -15.65 -82.85 -15.85 -80.8 -14.3 -83.3 -14.3 -82.5 Q-14.3 -79.4 -14.6 -79.1 L-15.7 -79.0 -15.95 -79.85 -16.0 -79.15 -16.3 -80.0 M-15.7 -77.5 Q-15.25 -77.15 -15.4 -75.8 L-15.75 -73.45 -16.45 -73.2 -16.85 -73.5 -17.15 -74.0 -16.75 -77.0 -16.45 -77.35 -15.7 -77.5 M-16.1 -69.55 L-16.25 -67.55 -16.85 -67.4 -17.4 -67.45 Q-17.7 -67.55 -17.7 -68.2 -17.7 -71.55 -17.15 -71.9 -16.8 -72.1 -16.3 -71.65 -15.9 -71.35 -16.1 -69.55 M-16.55 -62.2 Q-16.8 -61.55 -17.15 -61.55 -17.5 -61.55 -17.7 -62.2 L-17.95 -63.8 -17.7 -65.4 Q-17.5 -66.05 -17.15 -66.05 -16.8 -66.05 -16.55 -65.4 L-16.35 -63.8 -16.55 -62.2 M-23.65 -13.9 L-23.9 -13.95 -23.9 -14.0 -23.65 -13.9 M-25.9 -7.65 Q-25.9 -8.5 -25.35 -9.6 L-25.25 -9.85 -24.15 -11.5 -24.1 -11.55 -24.05 -11.65 -21.55 -11.05 -21.85 -9.85 Q-20.65 -9.25 -19.9 -9.1 -19.3 -8.95 -19.0 -9.1 L-18.8 -9.0 -19.65 -4.8 -21.2 -5.45 -21.1 3.6 -20.55 5.8 Q-19.6 8.15 -17.4 8.9 L-14.8 13.4 -20.65 11.75 -20.55 12.8 -24.15 5.1 -24.2 2.75 -24.3 -5.45 -24.3 -6.8 -25.9 -7.65 M-14.15 14.35 L-10.75 17.8 -10.1 23.8 -13.55 21.25 -14.15 14.35 M-3.3 -9.8 L-2.65 -9.8 -2.85 -9.25 -3.3 -9.8 M-1.85 -5.8 L-1.65 -5.45 Q-0.8 -3.7 -0.8 -3.2 L-1.45 -0.85 -1.8 -5.45 -1.85 -5.8" fill="#e25cb1" fill-rule="evenodd" stroke="none"/>
    <path d="M8.85 -9.65 L10.65 -9.8 Q10.65 -8.85 10.8 -7.9 11.05 -6.2 11.5 -5.8 L11.3 -5.8 13.3 -5.6 14.2 -5.95 14.3 -6.1 16.85 -6.65 17.1 -6.7 17.1 -6.6 17.1 -6.35 20.35 -6.35 20.35 -7.65 18.6 -7.65 Q19.05 -8.15 19.05 -8.6 L18.8 -10.5 20.05 -10.65 Q20.6 -8.05 20.55 1.75 L19.65 2.75 19.2 3.1 18.4 2.1 18.4 -2.45 10.75 -1.3 10.75 1.75 10.45 2.25 Q10.2 1.4 9.45 -3.25 8.75 -7.9 8.75 -8.65 8.75 -9.65 8.85 -9.65 M4.65 -2.9 Q3.2 -3.65 2.3 -4.6 L1.7 -5.45 4.65 -5.45 4.65 -2.9 M27.45 -19.1 L27.3 -21.65 29.6 -22.65 29.7 -20.4 27.45 -19.1 M23.45 9.05 L25.25 8.5 25.25 12.5 23.1 13.1 23.45 9.05 M7.55 9.55 L11.5 11.85 16.25 14.55 13.85 14.8 13.8 14.8 10.25 15.1 10.15 21.45 7.0 21.75 7.3 15.5 7.3 15.3 2.3 15.35 -0.65 15.3 -0.65 16.1 -0.45 21.7 -3.55 21.2 -3.6 15.1 -11.1 14.25 -10.75 17.8 -14.15 14.35 Q-14.2 13.9 -14.5 13.6 L-14.8 13.4 -17.4 8.9 -14.4 9.65 -14.5 2.75 -14.5 -3.15 -19.65 -4.8 -18.8 -9.0 -16.35 -8.2 -16.35 -7.25 -12.9 -7.25 -12.9 -8.85 -11.2 -8.4 -11.3 -6.9 -9.55 -6.5 -8.25 -6.3 -4.15 -5.75 -4.2 -9.85 -3.3 -9.8 -2.85 -9.25 Q-2.9 -8.35 -2.45 -7.05 L-3.75 -6.7 -3.9 -6.5 Q-3.8 -6.3 -3.1 -6.1 L-1.85 -5.85 -1.85 -5.8 -1.8 -5.45 -1.45 -0.85 Q-1.7 0.5 -1.0 2.45 L-0.85 9.55 -0.8 11.45 1.25 11.5 7.45 11.5 7.5 10.85 7.55 9.55 M17.5 15.1 L20.25 15.95 19.9 17.0 18.25 18.65 16.95 19.55 17.35 16.3 17.5 15.1 M-14.3 -9.2 L-13.5 -9.0 -14.3 -9.0 -14.3 -9.2 M-4.05 3.6 L-4.05 -1.3 -6.2 -1.6 -11.45 -2.4 -11.45 6.05 -11.45 10.35 -8.65 10.7 -8.45 10.75 -3.9 11.25 -4.05 3.6" fill="#ff73cc" fill-rule="evenodd" stroke="none"/>
    <path d="M-27.0 -31.6 L-27.0 -31.5 Q-26.7 -29.1 -23.55 -27.1 L-21.6 -26.05 -20.3 -25.6 -19.85 -25.45 Q-14.85 -23.8 -9.25 -22.8 L12.6 -22.1 Q29.1 -23.95 35.4 -30.05 L35.5 -29.4 35.9 -26.9 35.8 -25.9 Q35.65 -25.9 35.2 -24.8 L34.9 -28.35 Q33.65 -26.65 32.55 -26.15 L30.15 -24.95 30.05 -24.85 30.8 -11.7 30.3 -11.1 29.65 -9.25 29.7 -20.4 29.65 -22.7 29.6 -22.65 29.5 -24.75 27.1 -23.95 20.45 -22.1 17.55 -21.55 10.65 -21.0 7.6 -20.75 3.25 -20.8 -0.55 -21.0 -3.65 -21.25 -9.7 -22.0 -12.7 -22.55 Q-13.35 -22.5 -19.5 -24.55 L-22.35 -25.7 -24.25 -26.65 -24.8 -26.9 Q-25.75 -27.3 -26.65 -28.8 L-26.65 -28.75 -27.0 -26.55 -27.7 -28.2 -27.95 -30.95 -27.0 -31.6 M37.15 -15.95 Q36.95 -15.0 37.05 -13.8 L37.35 -9.35 37.45 -5.8 37.45 -4.8 36.15 2.75 35.7 4.95 33.95 13.9 34.65 8.55 34.3 8.85 35.75 2.75 35.8 2.25 36.05 -1.05 Q36.45 -1.95 36.85 -3.85 37.25 -6.0 37.25 -7.85 L36.1 -10.95 35.8 -15.1 37.15 -15.95 M30.4 20.5 Q29.5 22.2 27.6 24.15 L24.15 27.45 24.4 26.25 22.05 26.85 Q23.95 25.75 25.7 23.8 L28.75 20.0 28.5 21.25 30.4 20.5 M17.8 31.75 L14.25 33.35 14.25 33.3 14.75 31.2 Q16.0 30.9 16.8 30.25 17.85 29.4 18.65 27.7 L17.8 31.75 M9.2 34.65 L6.05 34.95 6.2 33.05 9.4 32.45 9.2 34.65 M0.2 34.85 L-2.9 34.3 -3.0 32.3 -3.0 32.25 0.1 32.85 0.2 34.85 M-8.7 32.3 Q-10.45 31.45 -12.2 30.4 L-12.6 28.1 -9.1 30.1 -9.1 30.15 -8.7 32.3 M-17.3 26.3 L-18.15 25.35 -21.9 20.9 -23.0 19.25 -23.4 15.5 -19.55 21.65 -19.0 22.25 -15.95 25.35 -13.95 27.15 -17.3 26.3 M-27.95 8.5 Q-28.8 6.75 -29.5 2.75 L-29.5 2.7 -29.5 2.75 -27.75 4.35 -26.15 9.5 -27.95 8.5 M-29.7 1.75 L-29.95 0.15 -30.65 -5.45 -30.9 -11.05 -30.45 -14.6 -30.05 -17.9 -28.45 -16.35 Q-29.1 -16.0 -29.55 -11.05 L-29.2 -4.3 -28.95 -2.2 Q-28.85 -0.1 -29.65 1.6 L-29.7 1.75 M4.65 -5.45 L5.85 -5.45 5.85 -1.9 4.65 -2.9 4.65 -5.45 M26.7 -9.45 L26.8 -4.9 25.6 -4.45 25.45 -7.6 25.5 -8.95 26.7 -9.45 M23.65 -3.8 L22.95 -3.55 23.55 -6.9 23.65 -3.8 M22.4 9.35 L23.45 9.05 23.1 13.1 22.1 13.3 22.4 9.35 M20.5 16.0 L20.5 16.1 20.45 16.0 20.25 15.95 17.5 15.1 17.6 14.25 16.25 14.55 11.5 11.85 7.55 9.55 7.55 8.35 10.55 10.3 10.55 11.25 12.05 11.15 20.6 14.95 20.5 16.0 M20.2 23.75 L21.15 23.55 20.9 24.4 19.75 27.3 18.8 27.55 20.2 23.75" fill="#4f0d37" fill-rule="evenodd" stroke="none"/>
    <path d="M83.25 -107.9 L82.9 -107.6 Q82.7 -106.95 82.9 -106.3 L87.1 -93.7 90.05 -85.15 91.9 -80.05 92.4 -81.95 Q92.55 -82.85 92.35 -83.65 91.35 -88.25 89.6 -92.65 L86.4 -100.5 83.25 -107.9 M3.55 -151.3 L4.9 -153.75 Q5.7 -153.7 7.3 -152.35 L14.65 -145.75 9.15 -146.35 8.9 -147.1 8.1 -147.75 Q7.75 -147.1 8.05 -146.5 L8.15 -146.35 2.2 -145.7 2.55 -146.5 Q3.2 -147.95 3.4 -149.55 L3.5 -151.05 3.55 -151.3 M17.9 -142.7 L19.1 -141.6 Q21.8 -139.05 23.6 -136.2 L23.65 -136.15 25.1 -133.5 21.6 -130.05 21.55 -130.0 20.95 -129.4 19.7 -132.1 16.95 -137.2 Q17.95 -140.75 17.95 -142.0 L17.9 -142.7 M39.55 -150.85 L39.75 -151.4 40.0 -151.7 Q40.6 -152.25 41.85 -152.25 43.95 -152.15 55.0 -143.9 68.1 -134.1 74.7 -125.05 82.2 -114.75 89.3 -97.75 95.45 -83.1 95.5 -79.2 95.5 -78.05 94.75 -77.0 93.9 -75.8 92.45 -75.8 91.0 -75.85 89.85 -77.8 89.0 -79.3 85.0 -88.5 81.55 -96.25 78.65 -100.65 L78.5 -101.05 75.7 -107.3 72.5 -113.05 68.1 -120.1 Q65.8 -123.8 63.65 -127.45 61.5 -131.15 58.8 -134.2 56.15 -137.25 52.75 -139.0 L53.35 -135.15 52.75 -134.1 Q52.3 -133.35 51.25 -133.0 L48.2 -133.15 44.85 -136.4 Q43.75 -135.6 43.45 -134.05 43.25 -132.9 42.4 -132.3 L41.6 -132.0 40.5 -131.75 38.1 -133.15 Q35.65 -131.05 33.85 -128.2 L31.9 -125.35 30.8 -123.9 28.65 -121.2 Q27.85 -123.05 26.6 -124.7 L26.3 -125.15 25.55 -126.7 25.3 -127.45 27.1 -129.35 27.75 -130.05 28.85 -131.3 32.95 -136.25 Q35.95 -139.9 38.35 -143.85 39.35 -145.5 39.6 -147.35 L39.8 -149.05 Q39.95 -150.0 39.55 -150.85 M7.9 -150.8 L6.2 -149.75 6.15 -149.0 7.05 -148.85 7.6 -149.2 8.25 -150.25 Q8.35 -150.7 7.9 -150.8 M37.25 -136.15 L36.5 -135.75 37.6 -134.3 40.75 -134.25 41.6 -134.7 42.65 -135.8 42.25 -136.15 37.25 -136.15 M44.5 -125.0 Q45.3 -124.7 44.85 -123.9 44.1 -122.45 42.75 -121.65 42.05 -121.2 41.2 -121.3 L39.6 -121.05 39.5 -121.75 44.5 -125.0 M44.25 -112.75 L44.7 -111.3 Q45.05 -110.25 44.45 -109.45 43.25 -107.7 41.1 -107.8 40.25 -107.65 39.6 -108.35 39.0 -108.9 39.25 -109.8 L40.0 -110.15 41.0 -109.65 43.05 -110.3 Q43.45 -110.8 43.5 -111.75 43.5 -112.45 44.25 -112.75 M48.35 -142.8 L48.2 -143.45 47.75 -144.55 Q47.25 -145.3 46.55 -145.3 46.05 -144.55 46.45 -143.85 47.0 -142.95 46.75 -141.95 46.45 -140.75 45.5 -139.5 L43.35 -139.55 Q42.8 -139.9 42.55 -140.25 L42.1 -140.55 41.7 -140.7 41.65 -140.7 41.4 -140.05 Q41.35 -139.5 41.6 -139.1 42.0 -138.4 42.7 -138.15 L46.0 -137.55 Q46.9 -137.8 47.4 -138.7 48.5 -140.65 48.35 -142.8 M46.25 -148.75 L43.75 -147.6 43.65 -146.7 45.0 -146.55 45.85 -146.95 Q46.5 -147.3 46.75 -148.15 46.9 -148.65 46.25 -148.75 M78.4 -107.75 L77.7 -109.4 76.35 -112.85 Q73.95 -120.35 68.45 -125.9 L68.45 -125.55 72.5 -116.6 Q74.15 -113.2 76.2 -110.35 L78.3 -107.65 78.4 -107.75 M47.0 -128.75 Q47.3 -128.2 46.65 -127.75 L44.2 -126.25 42.75 -125.95 Q42.55 -127.35 44.1 -128.05 L45.7 -128.45 47.0 -128.75 M55.0 -130.55 Q56.55 -129.15 54.85 -127.45 L53.95 -126.45 Q53.45 -125.95 52.55 -126.2 51.9 -126.5 51.4 -126.9 L55.0 -130.55 M58.85 -117.2 Q58.25 -114.75 56.05 -113.35 54.45 -112.4 52.75 -112.85 51.55 -112.95 50.75 -113.6 50.45 -114.2 50.6 -114.9 L50.95 -116.25 51.1 -116.55 52.75 -116.6 53.75 -116.0 56.0 -116.0 57.7 -118.25 58.4 -118.65 58.85 -117.2 M51.6 -120.5 Q52.35 -120.1 51.65 -119.35 50.55 -118.25 49.05 -117.7 L47.2 -117.8 47.05 -117.9 Q46.85 -118.65 47.65 -119.1 49.55 -119.95 51.6 -120.5 M48.25 -101.15 Q48.85 -101.35 48.6 -100.8 L48.2 -100.1 47.25 -99.05 45.65 -99.15 44.9 -100.5 48.25 -101.15 M56.0 -102.75 Q56.5 -102.75 56.35 -102.3 L55.6 -100.45 54.2 -98.1 52.25 -98.0 Q50.95 -98.55 50.7 -100.0 L50.4 -101.3 50.4 -101.4 Q50.9 -101.65 51.35 -101.2 L52.6 -99.8 52.75 -99.6 53.35 -99.6 56.0 -102.75 M61.1 -108.75 Q61.25 -107.4 60.05 -106.6 L59.0 -105.9 57.65 -106.15 Q57.5 -106.95 58.35 -107.3 L61.1 -108.75 M63.35 -121.0 Q64.05 -121.0 63.7 -120.25 L62.5 -119.05 60.9 -119.15 60.4 -119.9 Q61.5 -120.9 63.35 -121.0 M66.0 -105.7 L65.45 -103.05 Q65.2 -102.1 64.3 -101.45 63.2 -101.3 62.55 -102.1 L61.85 -103.05 62.45 -103.5 63.6 -103.5 65.65 -109.95 66.0 -105.7 M82.1 -76.55 L81.85 -70.9 Q80.4 -70.5 79.55 -71.5 78.0 -73.35 77.25 -75.55 75.5 -80.75 74.65 -86.25 73.95 -90.9 73.5 -95.5 73.4 -96.4 73.65 -97.2 74.05 -98.65 75.35 -99.05 76.4 -98.95 76.9 -98.0 L78.2 -94.9 79.6 -90.35 80.35 -87.45 81.3 -83.4 Q82.0 -80.1 82.1 -76.55 M71.1 -72.9 L70.85 -71.7 Q70.25 -71.0 69.55 -71.5 67.8 -72.55 66.95 -74.35 64.2 -80.5 63.15 -87.3 63.05 -87.95 63.5 -88.45 L64.55 -89.2 65.8 -89.3 Q66.7 -89.05 67.05 -88.05 68.8 -82.95 70.15 -77.8 L70.85 -74.85 71.1 -72.9 M57.5 -93.65 L57.35 -93.5 57.35 -93.2 57.0 -92.8 Q56.55 -92.45 56.1 -92.35 L52.9 -92.0 52.1 -92.35 52.0 -94.15 52.9 -94.05 53.05 -93.75 55.15 -93.55 Q56.1 -94.95 57.45 -95.25 L57.7 -94.9 57.5 -93.65 M41.65 -92.5 L42.6 -92.45 Q44.0 -92.6 44.75 -94.1 L45.0 -94.35 45.35 -92.8 43.65 -91.2 41.75 -91.0 41.6 -91.05 Q40.45 -91.65 40.05 -92.7 L39.8 -94.1 Q39.75 -95.05 40.15 -95.55 L41.65 -92.5 M49.1 -89.25 Q49.6 -89.2 49.55 -88.75 49.35 -87.35 48.3 -86.8 47.25 -86.25 46.2 -87.0 45.45 -87.5 45.5 -88.4 L45.7 -88.7 46.9 -88.05 47.9 -88.1 49.1 -89.25 M51.85 -68.7 L51.25 -67.4 Q50.45 -67.05 49.8 -67.65 47.9 -69.4 46.85 -71.8 45.3 -75.3 44.15 -79.0 43.95 -79.65 44.1 -80.4 L44.45 -80.65 Q45.5 -80.75 46.15 -79.75 L47.35 -78.15 Q50.15 -74.6 51.45 -70.35 L51.85 -68.7 M61.1 -70.7 L60.85 -68.3 59.1 -68.4 Q58.15 -69.2 57.55 -70.25 55.75 -73.25 55.0 -76.6 54.5 -78.65 54.3 -80.75 54.2 -82.15 55.2 -82.95 56.3 -82.95 56.95 -82.15 61.05 -77.2 61.1 -70.7" fill="#f9f9f9" fill-rule="evenodd" stroke="none"/>
  </g>
</svg>
