<?xml version="1.0" encoding="UTF-8" standalone="no"?>
<svg xmlns:ffdec="https://www.free-decompiler.com/flash" xmlns:xlink="http://www.w3.org/1999/xlink" ffdec:objectType="shape" height="12.65px" width="19.85px" xmlns="http://www.w3.org/2000/svg">
  <g transform="matrix(1.0, 0.0, 0.0, 1.0, 9.2, -2.55)">
    <path d="M4.65 12.55 L3.55 12.55 3.65 12.45 Q3.95 12.15 4.25 12.0 L4.65 12.45 4.65 12.55 M1.1 12.65 L-4.25 13.5 -3.5 11.2 -3.15 10.2 Q-2.55 8.2 -2.55 6.45 L-2.85 3.2 1.2 2.65 2.25 2.6 3.1 6.1 3.1 7.75 3.0 10.1 Q2.75 11.25 1.1 12.65" fill="#ffffff" fill-rule="evenodd" stroke="none"/>
    <path d="M6.1 12.6 L4.65 12.55 4.65 12.45 4.25 12.0 Q3.95 12.15 3.65 12.45 L3.55 12.55 1.2 12.65 1.1 12.65 Q2.75 11.25 3.0 10.1 L3.1 7.75 3.1 6.1 2.25 2.6 4.05 2.55 Q4.2 5.0 5.15 8.25 L6.1 12.6 M-4.25 13.5 L-6.35 14.1 -6.5 13.15 -6.5 12.85 -5.95 8.65 -5.65 6.95 -5.45 4.6 -5.4 3.8 -2.85 3.2 -2.55 6.45 Q-2.55 8.2 -3.15 10.2 L-3.5 11.2 -4.25 13.5" fill="#e0e0e0" fill-rule="evenodd" stroke="none"/>
    <path d="M8.8 12.9 L6.1 12.6 5.15 8.25 Q4.2 5.0 4.05 2.55 L6.2 2.6 7.35 7.15 8.8 12.9 M-6.35 14.1 L-7.8 14.6 -7.45 9.3 -7.35 6.55 -7.15 4.35 -5.4 3.8 -5.45 4.6 -5.65 6.95 -5.95 8.65 -6.5 12.85 -6.5 13.15 -6.35 14.1" fill="#b4b4b4" fill-rule="evenodd" stroke="none"/>
    <path d="M6.2 2.6 L8.25 2.8 9.15 6.3 10.65 13.25 8.8 12.9 7.35 7.15 6.2 2.6 M-7.8 14.6 L-9.2 15.2 -8.75 7.45 -8.7 4.95 -7.15 4.35 -7.35 6.55 -7.45 9.3 -7.8 14.6" fill="#464646" fill-rule="evenodd" stroke="none"/>
  </g>
</svg>
