<?xml version="1.0" encoding="UTF-8" standalone="no"?>
<svg xmlns:ffdec="https://www.free-decompiler.com/flash" xmlns:xlink="http://www.w3.org/1999/xlink" ffdec:objectType="shape" height="76.55px" width="65.5px" xmlns="http://www.w3.org/2000/svg">
  <g transform="matrix(1.0, 0.0, 0.0, 1.0, 29.55, 110.95)">
    <path d="M0.75 -101.05 L0.9 -101.3 1.1 -101.05 0.75 -101.05 M5.0 -95.95 L6.25 -94.4 6.2 -94.3 6.4 -92.1 1.7 -84.7 -3.8 -92.25 -3.25 -94.4 -1.9 -96.6 -0.85 -96.7 2.6 -96.4 5.0 -95.95 M3.8 -109.6 L4.3 -107.05 -5.05 -106.7 -4.7 -109.3 3.8 -109.6 M2.7 -77.1 Q3.2 -76.2 2.1 -74.65 L2.0 -74.5 Q-3.25 -74.3 -8.5 -74.4 L-6.2 -76.4 -5.35 -76.9 2.7 -77.1 M13.9 -49.85 L9.35 -45.4 Q6.35 -47.9 3.5 -50.75 L5.65 -50.75 10.1 -50.5 13.9 -49.85 M10.7 -34.6 L3.8 -34.4 3.15 -35.05 2.8 -34.65 Q2.2 -35.4 1.95 -36.15 L3.15 -35.05 6.8 -38.5 8.35 -37.35 Q10.7 -35.3 10.7 -34.65 L10.7 -34.6 M-0.15 -34.4 L-8.65 -34.95 -9.3 -35.65 -10.05 -35.05 -15.1 -35.55 -11.05 -37.45 -9.3 -35.65 -5.25 -39.1 Q-0.15 -39.7 -0.15 -34.5 L-0.15 -34.4 M-12.0 -51.55 L-9.65 -51.35 -12.5 -48.95 -12.0 -51.55 M-8.95 -51.25 L2.8 -50.75 Q0.05 -47.85 -3.1 -45.35 L-8.95 -51.25" fill="#ffffff" fill-rule="evenodd" stroke="none"/>
    <path d="M1.1 -101.05 L5.0 -95.95 2.6 -96.4 -0.85 -96.7 -1.9 -96.6 0.75 -101.05 1.1 -101.05 M6.25 -94.4 L7.1 -93.3 10.3 -98.65 10.95 -95.25 Q10.95 -91.95 10.15 -89.4 L7.1 -93.3 6.4 -92.1 6.2 -94.3 6.25 -94.4 M-3.8 -92.25 L-4.25 -92.85 -7.95 -87.25 Q-5.75 -91.25 -5.45 -94.4 L-4.25 -92.85 -3.25 -94.4 -3.8 -92.25 M3.8 -109.6 L7.65 -109.9 8.25 -107.35 4.3 -107.05 3.8 -109.6 M2.0 -74.5 L2.1 -74.65 Q3.2 -76.2 2.7 -77.1 L7.4 -77.35 5.4 -74.65 2.0 -74.5 M-5.35 -76.9 L-6.2 -76.4 -8.5 -74.4 -9.75 -74.45 -8.0 -76.95 -5.35 -76.9 M13.9 -49.85 L10.1 -50.5 5.65 -50.75 15.3 -51.35 13.9 -49.85 M22.35 -47.0 L22.0 -46.65 16.05 -51.45 19.2 -51.8 Q22.25 -50.3 22.35 -47.0 M18.55 -35.35 L16.4 -35.1 Q16.05 -35.4 15.75 -35.65 L18.55 -35.35 M15.7 -35.65 L15.0 -35.0 10.7 -34.6 10.7 -34.65 Q10.7 -35.3 8.35 -37.35 L6.8 -38.5 9.35 -41.1 12.25 -38.6 Q11.55 -38.15 11.55 -37.7 11.55 -36.45 13.85 -35.95 L15.7 -35.65 M2.8 -34.65 L2.45 -34.4 -0.15 -34.4 -0.15 -34.5 Q-0.15 -39.7 -5.25 -39.1 L-3.1 -41.05 1.95 -36.15 Q2.2 -35.4 2.8 -34.65 M-15.1 -35.55 L-20.3 -36.3 Q-19.35 -37.55 -16.6 -38.05 L-12.55 -38.95 -11.05 -37.45 -15.1 -35.55 M-7.9 -109.25 L-4.7 -109.3 -5.05 -106.7 -8.35 -106.7 -7.9 -109.25 M-16.1 -52.0 L-12.0 -51.55 -12.5 -48.95 -15.65 -46.45 -16.45 -47.25 Q-16.85 -48.35 -16.85 -49.35 -16.85 -50.3 -16.1 -52.0" fill="#e0e0e0" fill-rule="evenodd" stroke="none"/>
    <path d="M10.3 -98.65 L12.35 -102.25 Q13.75 -100.4 15.25 -98.65 L15.4 -97.25 Q15.4 -95.3 13.75 -90.5 L12.3 -86.65 10.15 -89.4 Q10.95 -91.95 10.95 -95.25 L10.3 -98.65 M-7.95 -87.25 L-9.7 -84.7 -12.75 -88.9 -10.3 -93.25 Q-10.75 -93.95 -12.5 -95.35 L-13.55 -96.6 -10.5 -101.25 -8.8 -98.95 Q-8.5 -98.0 -7.45 -97.1 L-5.45 -94.4 Q-5.75 -91.25 -7.95 -87.25 M8.25 -107.35 L7.65 -109.9 12.25 -110.4 12.6 -109.15 12.95 -107.85 8.25 -107.35 M13.6 -77.95 L12.45 -76.7 10.95 -75.1 5.4 -74.65 7.4 -77.35 13.6 -77.95 M18.85 -76.1 L20.95 -77.35 21.15 -76.45 18.85 -76.1 M22.35 -47.0 Q22.25 -50.3 19.2 -51.8 L26.8 -52.85 27.05 -52.0 22.35 -47.0 M31.95 -37.35 L29.0 -36.9 28.3 -37.4 27.6 -36.65 18.55 -35.35 15.75 -35.65 15.7 -35.7 15.7 -35.65 13.85 -35.95 Q11.55 -36.45 11.55 -37.7 11.55 -38.15 12.25 -38.6 L15.7 -35.7 22.0 -42.35 23.95 -40.75 22.9 -39.65 Q23.15 -38.95 24.1 -38.95 L26.25 -39.0 28.3 -37.4 30.75 -40.1 31.95 -37.35 M-20.3 -36.3 L-21.25 -36.5 -21.95 -37.25 -22.65 -36.75 -24.75 -37.1 Q-24.45 -38.55 -23.85 -39.15 L-23.75 -39.2 -21.95 -37.25 -15.65 -42.15 -12.55 -38.95 -16.6 -38.05 Q-19.35 -37.55 -20.3 -36.3 M-12.3 -106.75 L-12.15 -109.35 -7.9 -109.25 -8.35 -106.7 -12.3 -106.75 M-15.05 -74.7 L-13.7 -77.15 -8.0 -76.95 -9.75 -74.45 -15.05 -74.7 M-16.45 -47.25 L-21.55 -52.8 -16.1 -52.0 Q-16.85 -50.3 -16.85 -49.35 -16.85 -48.35 -16.45 -47.25" fill="#b4b4b4" fill-rule="evenodd" stroke="none"/>
    <path d="M15.25 -98.65 L18.55 -94.8 19.4 -96.25 20.35 -92.6 18.55 -94.8 13.15 -85.65 12.3 -86.65 13.75 -90.5 Q15.4 -95.3 15.4 -97.25 L15.25 -98.65 M-12.75 -88.9 L-15.8 -93.2 -13.55 -96.6 -12.5 -95.35 Q-10.75 -93.95 -10.3 -93.25 L-12.75 -88.9 M12.25 -110.4 L15.55 -110.8 16.25 -108.25 12.95 -107.85 12.6 -109.15 12.25 -110.4 M23.8 -79.45 L24.45 -77.0 21.15 -76.45 20.95 -77.35 18.85 -76.1 10.95 -75.1 12.45 -76.7 13.6 -77.95 23.8 -79.45 M26.8 -52.85 L27.95 -53.05 27.05 -52.0 26.8 -52.85 M30.7 -53.45 L31.35 -51.05 28.65 -53.15 30.7 -53.45 M34.6 -37.85 L31.95 -37.35 30.75 -40.1 33.35 -43.0 34.0 -40.4 34.6 -37.85 M-24.75 -37.1 L-28.35 -37.75 -27.25 -43.1 -23.75 -39.2 -23.85 -39.15 Q-24.45 -38.55 -24.75 -37.1 M23.95 -40.75 L26.25 -39.0 24.1 -38.95 Q23.15 -38.95 22.9 -39.65 L23.95 -40.75 M-12.65 -109.35 L-12.15 -109.35 -12.3 -106.75 -13.05 -106.8 -12.65 -109.35 M-15.85 -93.2 L-15.8 -93.15 -15.85 -93.05 -15.85 -93.2 M-19.35 -77.55 L-13.7 -77.15 -15.05 -74.7 -19.9 -75.1 -19.35 -77.55 M-25.0 -53.4 L-22.2 -52.9 -25.7 -50.3 -25.0 -53.4" fill="#8a8a8a" fill-rule="evenodd" stroke="none"/>
    <path d="M19.4 -96.25 L20.15 -97.65 21.7 -90.95 20.35 -92.6 19.4 -96.25 M15.55 -110.8 L16.8 -110.95 17.45 -108.45 16.25 -108.25 15.55 -110.8 M24.45 -77.0 L23.8 -79.45 25.0 -79.7 25.7 -77.25 24.45 -77.0 M30.7 -53.45 L32.15 -53.7 33.15 -49.7 31.35 -51.05 30.7 -53.45 M33.35 -43.0 L34.5 -44.25 35.95 -38.1 34.6 -37.85 34.0 -40.4 33.35 -43.0 M-28.35 -37.75 L-29.55 -38.0 -28.2 -44.1 -28.15 -44.15 -27.25 -43.1 -28.35 -37.75 M-12.65 -109.35 L-13.05 -106.8 -14.65 -106.85 -14.15 -109.4 -12.65 -109.35 M-15.85 -93.2 L-15.85 -93.05 -18.3 -89.5 -17.15 -94.95 -15.85 -93.2 M-19.35 -77.55 L-19.9 -75.1 -21.4 -75.25 -21.2 -76.15 -20.85 -77.7 -19.35 -77.55 M-25.0 -53.4 L-25.7 -50.3 -27.1 -49.25 -26.15 -53.6 -25.0 -53.4" fill="#464646" fill-rule="evenodd" stroke="none"/>
  </g>
</svg>
