<?xml version="1.0" encoding="UTF-8" standalone="no"?>
<svg xmlns:ffdec="https://www.free-decompiler.com/flash" xmlns:xlink="http://www.w3.org/1999/xlink" ffdec:objectType="shape" height="13.85px" width="13.2px" xmlns="http://www.w3.org/2000/svg">
  <g transform="matrix(1.0, 0.0, 0.0, 1.0, -0.25, -0.6)">
    <path d="M1.7 1.3 L2.15 1.5 1.95 1.4 1.8 1.35 1.7 1.3 2.9 3.2 Q3.95 5.9 5.75 9.0 5.6 6.6 5.95 4.55 6.6 5.9 7.1 5.9 7.85 3.4 11.6 1.55 L10.65 1.95 11.3 1.6 11.6 1.5 11.6 1.55 8.8 5.15 Q8.3 5.95 7.55 9.2 L6.55 7.15 6.45 12.2 Q5.3 11.0 4.25 8.75 L2.95 5.3 1.7 1.3" fill="#3c291e" fill-rule="evenodd" stroke="none"/>
    <path d="M11.6 1.5 L13.45 0.6 Q9.1 5.85 8.3 10.6 7.5 15.35 6.4 14.25 1.85 8.05 0.25 0.6 L1.7 1.3 2.95 5.3 4.25 8.75 Q5.3 11.0 6.45 12.2 L6.55 7.15 7.55 9.2 Q8.3 5.95 8.8 5.15 L11.6 1.55 11.6 1.5" fill="#2a1d15" fill-rule="evenodd" stroke="none"/>
    <path d="M2.15 1.5 Q3.85 2.1 4.4 1.1 6.95 3.1 9.15 2.6 L9.3 2.55 10.65 1.95 11.6 1.55 Q7.85 3.4 7.1 5.9 6.6 5.9 5.95 4.55 5.6 6.6 5.75 9.0 3.95 5.9 2.9 3.2 L1.7 1.3 1.8 1.35 1.95 1.4 2.15 1.5 M11.6 1.5 L11.6 1.55 11.6 1.5" fill="#483123" fill-rule="evenodd" stroke="none"/>
  </g>
</svg>
