<?xml version="1.0" encoding="UTF-8" standalone="no"?>
<svg xmlns:ffdec="https://www.free-decompiler.com/flash" xmlns:xlink="http://www.w3.org/1999/xlink" ffdec:objectType="shape" height="73.75px" width="26.9px" xmlns="http://www.w3.org/2000/svg">
  <g transform="matrix(1.0, 0.0, 0.0, 1.0, 23.5, 129.9)">
    <path d="M-1.7 -126.85 L0.4 -126.55 1.2 -128.8 2.5 -128.0 1.95 -126.45 3.4 -126.45 2.85 -124.9 1.4 -124.95 0.5 -122.25 1.95 -122.2 1.5 -120.7 0.05 -120.8 -1.8 -114.45 -3.3 -114.65 -1.45 -120.95 -3.65 -121.35 -4.65 -121.55 -6.5 -122.1 -8.45 -115.9 -9.85 -116.4 -7.9 -122.55 -9.4 -123.15 -11.25 -116.95 -12.6 -117.6 -10.8 -123.8 -11.35 -124.05 -10.8 -125.45 -10.35 -125.25 -9.7 -127.25 -7.7 -128.6 -6.05 -128.0 -5.5 -129.55 -3.75 -129.9 -4.65 -127.55 -2.7 -127.05 -1.7 -126.85 M-3.25 -125.6 L-5.15 -126.1 -6.05 -123.55 -4.15 -123.0 -3.15 -122.8 -1.0 -122.4 -0.1 -125.1 -2.25 -125.4 -3.25 -125.6 M-7.45 -124.0 L-6.55 -126.55 -8.15 -127.15 -8.95 -124.6 -7.45 -124.0 M-3.55 -113.65 L-2.05 -113.45 -3.6 -107.25 -2.15 -107.15 -2.45 -105.65 -3.9 -105.75 -4.45 -103.05 -3.05 -103.0 -3.4 -101.5 -4.75 -101.6 -5.85 -95.4 -7.35 -95.45 -6.25 -101.75 -9.0 -102.3 -10.0 -102.55 -11.8 -103.1 -13.25 -96.3 -14.7 -96.7 -13.2 -103.65 -14.55 -104.2 -16.1 -97.1 -17.5 -97.6 -15.9 -104.85 -17.15 -105.45 -16.75 -106.95 Q-16.15 -106.6 -15.55 -106.3 L-14.9 -108.95 -16.0 -109.55 -15.6 -111.0 -14.55 -110.45 -12.9 -116.6 -11.5 -116.0 -13.15 -109.8 -11.85 -109.2 -10.15 -115.4 -8.7 -114.9 -10.45 -108.7 -8.6 -108.15 -7.65 -107.9 -5.1 -107.4 -3.55 -113.65 M-13.25 -84.35 L-12.85 -87.05 -14.85 -87.45 -15.25 -84.8 -13.25 -84.35 M-16.3 -87.85 L-17.7 -88.3 -18.15 -85.65 -16.7 -85.2 -16.3 -87.85 M-6.0 -94.4 L-6.85 -88.1 -5.3 -88.2 -5.4 -86.7 -7.0 -86.6 -7.3 -83.85 -5.6 -83.95 -5.65 -82.45 -7.45 -82.35 -8.0 -75.35 -9.5 -75.3 -8.95 -82.35 -12.45 -82.65 -13.45 -82.85 -15.45 -83.3 -16.35 -76.15 -17.8 -76.5 -16.9 -83.7 -18.35 -84.15 -19.35 -77.0 -20.85 -77.5 -19.8 -84.7 -21.3 -85.35 -21.05 -86.85 -19.6 -86.2 -19.15 -88.85 -20.6 -89.5 -20.35 -91.0 -18.9 -90.4 -17.7 -96.6 -16.3 -96.1 -17.45 -89.85 -16.05 -89.35 -14.9 -95.7 -13.45 -95.3 -14.6 -88.95 -12.65 -88.55 -11.65 -88.35 -8.35 -88.1 -7.5 -94.45 -6.0 -94.4 M-9.65 -104.0 L-8.65 -103.75 -5.95 -103.25 -5.4 -105.9 -8.0 -106.4 -9.0 -106.65 -10.8 -107.25 -11.45 -104.55 -9.65 -104.0 M-13.55 -108.3 L-14.2 -105.65 -12.85 -105.1 -12.2 -107.75 -13.55 -108.3 M-17.9 -75.5 L-16.45 -75.15 -17.05 -68.7 -14.75 -68.25 -13.75 -68.1 -9.8 -67.9 -9.55 -74.3 -8.05 -74.35 -8.3 -68.0 -5.7 -68.35 -5.6 -66.85 -8.3 -66.5 -8.35 -63.75 -5.45 -64.1 -5.35 -62.6 -8.35 -62.25 -8.3 -56.25 -8.3 -56.2 -9.8 -56.15 -9.8 -56.2 -9.85 -62.15 -14.0 -62.35 -15.0 -62.5 -17.45 -62.95 -17.7 -57.15 -19.15 -57.5 -18.9 -63.3 -20.7 -63.85 -21.05 -58.4 -21.1 -58.15 -21.8 -58.45 -22.5 -58.8 -22.15 -64.4 -23.5 -64.9 -23.4 -66.5 -22.05 -65.9 -21.8 -68.65 -23.2 -69.2 -23.1 -70.75 -21.65 -70.15 -20.95 -76.5 -19.5 -76.0 -20.2 -69.65 -18.5 -69.1 -17.9 -75.5 M-13.8 -66.6 L-14.8 -66.75 -17.15 -67.2 -17.35 -64.45 -14.95 -64.0 -13.95 -63.85 -9.85 -63.65 -9.8 -66.4 -13.8 -66.6 M-20.35 -68.1 L-20.55 -65.4 -18.8 -64.85 -18.65 -67.6 -20.35 -68.1 M-11.85 -86.85 L-12.25 -84.2 -8.8 -83.85 -8.55 -86.6 -11.85 -86.85" fill="#b4b4b4" fill-rule="evenodd" stroke="none"/>
  </g>
</svg>
