<?xml version="1.0" encoding="UTF-8" standalone="no"?>
<svg xmlns:ffdec="https://www.free-decompiler.com/flash" xmlns:xlink="http://www.w3.org/1999/xlink" ffdec:objectType="shape" height="49.3px" width="61.8px" xmlns="http://www.w3.org/2000/svg">
  <g transform="matrix(1.0, 0.0, 0.0, 1.0, 28.2, 53.6)">
    <path d="M6.45 -38.7 L5.55 -38.7 5.9 -39.85 3.3 -41.85 6.55 -42.2 6.7 -42.8 7.55 -42.5 7.65 -41.85 Q7.65 -40.8 6.45 -38.7 M10.2 -15.75 Q9.8 -14.65 7.95 -13.65 4.15 -11.5 -4.35 -11.45 L-6.85 -12.6 -5.7 -13.8 -6.15 -14.85 -2.15 -15.95 -1.55 -16.05 -0.5 -15.0 -0.7 -16.25 6.2 -17.4 5.0 -14.45 7.5 -16.15 8.0 -15.4 10.2 -15.75 M4.65 -23.3 Q3.4 -23.65 2.15 -24.1 L3.3 -25.3 4.65 -23.3 M-4.6 -37.45 L-4.2 -37.45 -4.7 -36.35 -3.05 -35.9 -1.55 -33.7 -4.0 -32.6 -5.65 -33.05 -5.75 -31.85 -7.95 -33.2 Q-7.05 -35.3 -4.6 -37.45 M-8.3 -32.3 L-8.15 -31.95 -8.4 -31.8 -8.3 -32.3" fill="#ffffff" fill-rule="evenodd" stroke="none"/>
    <path d="M12.95 -36.95 L13.2 -36.25 12.85 -36.1 12.4 -37.3 12.95 -36.95 M11.0 -38.3 L10.9 -38.2 7.45 -37.0 8.05 -38.8 6.45 -38.7 Q7.65 -40.8 7.65 -41.85 L7.55 -42.5 8.65 -42.1 6.35 -45.2 7.6 -45.4 6.95 -47.0 7.75 -49.55 10.1 -48.25 10.75 -46.65 11.8 -47.35 12.1 -44.7 Q10.9 -42.6 8.95 -40.45 9.7 -39.4 11.0 -38.3 M19.8 -23.0 L18.0 -25.2 18.45 -25.55 20.0 -23.65 19.8 -23.0 M18.85 -20.9 L18.75 -20.7 Q17.8 -18.85 16.4 -17.4 L15.15 -17.65 18.85 -20.9 M10.2 -15.75 L12.75 -16.2 9.8 -12.25 10.75 -10.85 7.2 -10.0 8.2 -8.55 2.8 -8.45 1.95 -9.05 1.9 -8.45 1.3 -8.45 1.35 -9.1 -0.1 -8.45 -1.1 -8.45 -5.6 -9.15 -3.6 -11.1 -4.35 -11.45 Q4.15 -11.5 7.95 -13.65 9.8 -14.65 10.2 -15.75 M4.65 -23.3 L5.5 -22.0 5.45 -21.55 0.5 -22.3 0.5 -22.5 2.15 -24.1 Q3.4 -23.65 4.65 -23.3 M5.35 -20.2 L5.25 -19.5 7.1 -19.7 6.2 -17.4 -0.7 -16.25 -1.15 -18.65 5.35 -20.2 M-4.6 -37.45 Q-7.05 -35.3 -7.95 -33.2 L-9.0 -33.85 -8.3 -32.3 -8.4 -31.8 -8.7 -31.7 -8.75 -28.45 -11.05 -30.85 -11.35 -30.7 Q-10.95 -33.8 -10.0 -35.0 L-7.2 -37.45 -4.6 -37.45 M-6.15 -14.85 L-7.35 -17.4 -6.9 -17.55 -6.2 -17.65 -3.3 -16.55 -2.65 -17.2 -1.55 -16.05 -2.15 -15.95 -6.15 -14.85" fill="#e0e0e0" fill-rule="evenodd" stroke="none"/>
    <path d="M24.9 -25.5 Q24.9 -22.6 22.95 -20.55 L17.8 -16.35 Q17.85 -15.15 18.45 -15.15 L22.5 -14.85 22.0 -12.5 21.1 -12.7 18.25 -8.85 17.6 -13.7 15.95 -14.05 17.95 -17.05 16.4 -17.4 Q17.8 -18.85 18.75 -20.7 L18.85 -20.9 19.2 -21.2 21.0 -21.45 19.8 -23.0 20.0 -23.65 21.45 -21.85 22.15 -23.5 24.9 -25.5 M22.9 -14.75 L25.0 -14.4 30.3 -13.1 Q29.3 -11.1 27.75 -9.65 L27.5 -9.7 25.9 -11.7 24.75 -10.25 22.9 -14.75 M12.1 -44.7 L12.2 -43.5 13.15 -45.35 13.7 -45.0 16.35 -47.0 16.25 -46.25 14.6 -43.6 15.75 -43.7 16.75 -43.1 14.9 -41.5 16.6 -40.6 13.25 -39.15 12.0 -39.3 12.95 -36.95 12.4 -37.3 11.65 -39.15 11.0 -38.3 Q9.7 -39.4 8.95 -40.45 10.9 -42.6 12.1 -44.7 M-1.1 -8.45 L-0.1 -8.45 -0.35 -8.35 -1.1 -8.45 M1.3 -8.45 L1.9 -8.45 1.65 -5.75 1.1 -5.8 1.3 -8.45 M2.8 -8.45 L8.2 -8.55 8.8 -7.7 3.45 -8.0 2.8 -8.45 M5.45 -21.55 L5.35 -20.2 -1.15 -18.65 -1.5 -20.55 0.25 -20.0 0.5 -22.3 5.45 -21.55 M-11.35 -30.7 L-12.1 -30.4 -12.2 -32.85 -14.0 -32.05 -13.15 -35.6 -12.3 -36.5 -13.55 -36.8 -13.2 -37.15 -12.15 -36.9 -12.45 -37.9 -11.1 -38.7 -11.95 -38.75 -12.25 -38.8 -11.35 -41.55 -10.25 -39.95 -8.85 -42.0 -8.2 -41.05 -5.0 -41.95 -6.65 -39.1 -6.3 -38.65 -7.95 -37.45 -7.2 -37.45 -10.0 -35.0 Q-10.95 -33.8 -11.35 -30.7 M-16.4 -22.3 L-13.25 -25.0 -13.7 -20.15 -12.2 -19.45 -14.75 -16.85 -12.2 -15.7 -16.95 -13.2 -18.8 -13.3 -16.7 -8.95 -17.1 -8.75 -17.25 -8.8 -19.3 -13.05 -20.35 -11.55 -20.65 -11.4 Q-21.85 -13.1 -21.85 -15.55 -21.85 -17.55 -19.25 -18.55 -16.85 -19.45 -13.7 -19.15 L-14.25 -19.8 -16.25 -22.1 -16.4 -22.3 M-6.2 -17.65 L-6.9 -17.55 -7.35 -17.4 -7.75 -18.25 -6.2 -17.65" fill="#b4b4b4" fill-rule="evenodd" stroke="none"/>
    <path d="M27.65 -35.0 L27.2 -34.35 26.7 -34.75 23.9 -33.1 24.8 -36.3 23.85 -36.9 25.8 -38.35 24.2 -39.4 26.3 -40.1 27.3 -36.25 27.65 -35.0 M28.5 -32.3 L28.35 -32.25 28.35 -32.7 28.5 -32.3 M24.9 -25.5 L26.5 -26.65 26.45 -23.8 29.8 -25.05 29.8 -23.4 31.6 -22.7 32.2 -20.65 29.95 -19.7 30.0 -18.8 26.95 -18.95 31.5 -15.6 29.85 -14.8 31.45 -12.8 31.4 -8.85 27.75 -9.65 Q29.3 -11.1 30.3 -13.1 L25.0 -14.4 22.9 -14.75 22.6 -15.45 22.5 -14.85 18.45 -15.15 Q17.85 -15.15 17.8 -16.35 L22.95 -20.55 Q24.9 -22.6 24.9 -25.5 M16.25 -46.25 L15.75 -43.7 14.6 -43.6 16.25 -46.25 M1.1 -5.8 L1.65 -5.75 1.5 -4.3 0.95 -4.35 1.1 -5.8 M-20.35 -47.1 L-20.3 -47.65 -19.85 -51.85 -19.75 -52.9 -19.2 -51.0 -19.9 -49.4 -18.7 -49.15 -20.35 -47.1 M-21.05 -41.4 L-20.8 -43.3 -20.75 -43.3 -20.4 -46.4 -19.15 -46.8 -19.0 -46.15 -15.8 -45.7 -18.5 -43.75 -18.2 -42.65 -20.6 -42.85 -20.05 -41.0 -21.05 -41.4 M-13.55 -36.8 L-15.45 -37.35 -15.35 -37.7 -13.2 -37.15 -13.55 -36.8 M-12.45 -37.9 L-12.5 -38.1 -12.25 -38.8 -11.95 -38.75 -11.1 -38.7 -12.45 -37.9 M-25.6 -19.0 L-24.95 -22.05 -23.8 -26.8 -22.5 -26.2 -21.4 -23.95 -19.9 -25.1 -19.0 -19.55 -17.7 -22.25 -16.9 -21.85 -16.4 -22.3 -16.25 -22.1 -14.25 -19.8 -13.7 -19.15 Q-16.85 -19.45 -19.25 -18.55 -21.85 -17.55 -21.85 -15.55 -21.85 -13.1 -20.65 -11.4 L-25.3 -9.45 -24.55 -12.2 -26.9 -11.95 -26.85 -12.45 -25.85 -17.6 -24.0 -17.15 -25.6 -19.0 M-17.1 -8.75 L-17.2 -8.7 -17.25 -8.8 -17.1 -8.75" fill="#8a8a8a" fill-rule="evenodd" stroke="none"/>
    <path d="M27.65 -35.0 L27.3 -36.25 26.3 -40.1 27.7 -40.55 27.8 -40.5 28.9 -36.25 30.55 -30.75 29.9 -31.2 29.45 -32.85 28.5 -32.3 28.35 -32.7 28.35 -36.1 27.65 -35.0 M32.2 -20.65 L31.6 -22.7 33.4 -22.0 33.6 -21.3 32.2 -20.65 M-19.75 -52.9 L-19.85 -51.85 -20.3 -47.65 -20.35 -47.1 -21.1 -46.2 -20.4 -46.4 -20.75 -43.3 -20.8 -43.3 -21.05 -41.4 -22.55 -42.0 -22.35 -43.3 -22.3 -43.3 -21.85 -47.8 -21.3 -52.9 -19.95 -53.6 -19.75 -52.9 M-25.6 -19.0 L-26.85 -20.45 -26.6 -21.65 -25.9 -21.8 -26.35 -22.7 -25.25 -27.55 -23.8 -26.8 -24.95 -22.05 -25.6 -19.0 M-26.9 -11.95 L-28.2 -11.85 -27.8 -13.45 -28.15 -13.7 -27.55 -16.9 -27.1 -17.0 -26.9 -17.9 -25.85 -17.6 -26.85 -12.45 -26.9 -11.95" fill="#464646" fill-rule="evenodd" stroke="none"/>
  </g>
</svg>
