<?xml version="1.0" encoding="UTF-8" standalone="no"?>
<svg xmlns:ffdec="https://www.free-decompiler.com/flash" xmlns:xlink="http://www.w3.org/1999/xlink" ffdec:objectType="shape" height="63.6px" width="23.35px" xmlns="http://www.w3.org/2000/svg">
  <g transform="matrix(1.0, 0.0, 0.0, 1.0, 8.0, 2.0)">
    <path d="M10.65 48.6 L9.5 49.45 Q7.45 50.7 3.7 50.7 1.65 50.7 0.05 49.95 -1.25 49.35 -1.25 48.95 L-1.25 48.8 4.9 49.45 10.65 48.6" fill="#8f0000" fill-rule="evenodd" stroke="none"/>
    <path d="M13.45 47.35 L13.25 48.95 11.65 49.9 9.45 50.9 7.15 51.55 3.0 51.7 0.55 51.45 -1.35 50.85 Q-2.05 50.85 -2.55 49.9 -3.0 49.15 -3.05 48.15 L-2.45 48.4 -1.25 48.8 -1.25 48.95 Q-1.25 49.35 0.05 49.95 1.65 50.7 3.7 50.7 7.45 50.7 9.5 49.45 L10.65 48.6 12.05 48.05 13.45 47.35" fill="#460000" fill-rule="evenodd" stroke="none"/>
    <path d="M11.65 49.9 L11.95 54.95 12.0 55.9 Q12.0 57.4 11.2 57.4 L9.35 59.5 Q7.35 61.6 6.05 61.6 4.45 61.6 2.05 59.95 0.1 58.7 -0.85 57.55 L-0.9 57.35 -1.35 50.85 0.55 51.45 1.1 54.95 1.45 56.55 Q1.85 58.15 2.45 58.15 3.2 58.15 4.4 58.85 5.65 59.55 6.45 59.55 L7.6 59.25 8.5 58.5 Q9.45 58.05 9.8 57.2 10.1 56.45 10.05 54.95 L9.45 50.9 11.65 49.9" fill="#9d632f" fill-rule="evenodd" stroke="none"/>
    <path d="M7.15 51.55 L7.8 54.95 8.5 58.5 7.6 59.25 6.45 59.55 Q5.65 59.55 4.4 58.85 3.2 58.15 2.45 58.15 1.85 58.15 1.45 56.55 L1.1 54.95 0.55 51.45 3.0 51.7 7.15 51.55" fill="#eaa76a" fill-rule="evenodd" stroke="none"/>
    <path d="M8.5 58.5 L7.8 54.95 7.15 51.55 9.45 50.9 10.05 54.95 Q10.1 56.45 9.8 57.2 9.45 58.05 8.5 58.5" fill="#de9954" fill-rule="evenodd" stroke="none"/>
    <path d="M3.05 -2.0 L4.85 -1.7 4.85 -1.6 Q7.3 14.6 10.8 31.15 L12.05 36.9 13.6 43.8 13.7 44.05 13.85 44.55 Q13.75 45.7 11.5 46.65 L11.45 46.7 Q10.05 47.3 8.35 47.6 L5.95 47.9 4.85 47.95 Q0.9 48.05 -1.95 47.0 -4.2 46.15 -4.35 45.0 L-4.3 44.8 -4.3 36.9 -4.45 31.15 Q-4.9 15.8 -6.55 0.15 L-6.85 0.15 -4.0 -1.1 Q-2.3 22.4 -2.25 28.5 L-2.1 36.65 -1.55 44.1 Q4.65 46.75 11.85 44.1 L8.8 31.35 Q8.2 29.1 6.15 17.15 L3.25 -0.7 3.05 -2.0" fill="#c6c6c6" fill-rule="evenodd" stroke="none"/>
    <path d="M4.85 -1.7 Q6.35 -1.35 6.55 -0.8 8.95 15.3 12.4 31.15 L13.7 36.9 15.35 44.05 15.35 44.5 Q15.5 46.1 13.45 47.35 L12.05 48.05 10.65 48.6 4.9 49.45 -1.25 48.8 -2.45 48.4 -3.05 48.15 Q-5.9 46.95 -5.85 45.05 L-5.85 44.8 -5.85 36.9 -5.95 31.15 Q-6.35 16.25 -8.0 1.35 -7.85 0.8 -6.85 0.15 L-6.55 0.15 Q-4.9 15.8 -4.45 31.15 L-4.3 36.9 -4.3 44.8 -4.35 45.0 Q-4.2 46.15 -1.95 47.0 0.9 48.05 4.85 47.95 L5.95 47.9 8.35 47.6 Q10.05 47.3 11.45 46.7 L11.5 46.65 Q13.75 45.7 13.85 44.55 L13.7 44.05 13.6 43.8 12.05 36.9 10.8 31.15 Q7.3 14.6 4.85 -1.6 L4.85 -1.7" fill="#555555" fill-rule="evenodd" stroke="none"/>
    <path d="M-4.0 -1.1 Q0.7 -2.15 3.05 -2.0 L3.25 -0.7 6.15 17.15 Q8.2 29.1 8.8 31.35 L11.85 44.1 Q4.65 46.75 -1.55 44.1 L-2.1 36.65 -2.25 28.5 Q-2.3 22.4 -4.0 -1.1 M-0.85 7.3 L0.7 43.45 Q6.15 44.85 9.4 42.55 L4.95 20.4 Q3.5 13.85 3.2 8.75 2.9 3.65 0.55 2.5 -0.25 2.3 -0.5 3.85 L-0.85 7.3" fill="#e2e2e2" fill-rule="evenodd" stroke="none"/>
    <path d="M-0.85 7.3 L-0.5 3.85 Q-0.25 2.3 0.55 2.5 2.9 3.65 3.2 8.75 3.5 13.85 4.95 20.4 L9.4 42.55 Q6.15 44.85 0.7 43.45 L-0.85 7.3" fill="#f8f8f8" fill-rule="evenodd" stroke="none"/>
  </g>
</svg>
