<?xml version="1.0" encoding="UTF-8" standalone="no"?>
<svg xmlns:ffdec="https://www.free-decompiler.com/flash" xmlns:xlink="http://www.w3.org/1999/xlink" ffdec:objectType="shape" height="84.7px" width="81.5px" xmlns="http://www.w3.org/2000/svg">
  <g transform="matrix(1.0, 0.0, 0.0, 1.0, 37.8, 96.9)">
    <path d="M22.3 -96.7 L23.05 -93.75 20.65 -93.5 19.95 -96.4 22.3 -96.7 M23.7 -91.2 L24.6 -87.75 22.95 -86.05 22.3 -86.8 21.75 -89.1 23.7 -91.2 M5.3 -95.3 L5.45 -92.3 3.0 -92.2 2.9 -95.2 5.3 -95.3 M-5.95 -91.95 L-10.55 -91.95 -15.95 -92.0 -13.7 -94.6 -13.3 -94.95 -10.55 -94.95 -4.5 -95.0 -5.95 -91.95 M-20.95 -92.1 L-23.6 -92.2 -23.05 -95.15 -16.25 -94.95 -17.05 -94.4 Q-18.2 -93.55 -20.7 -92.25 L-20.95 -92.1 M3.0 -87.2 L3.0 -89.0 3.0 -90.0 3.35 -89.75 Q3.8 -89.35 3.8 -88.7 3.8 -88.1 3.4 -87.65 L3.0 -87.2 M0.6 -76.6 L0.85 -77.3 1.75 -79.8 2.5 -78.9 Q2.85 -78.4 2.8 -77.8 2.75 -77.2 2.25 -76.75 L1.15 -76.45 0.6 -76.6 M5.85 -86.7 L6.45 -78.45 3.4 -82.25 Q3.0 -82.7 3.05 -83.25 3.1 -83.85 3.5 -84.25 L5.85 -86.7 M5.6 -71.8 L-1.5 -71.55 -0.15 -74.6 6.25 -74.85 5.6 -71.8 M-22.45 -71.65 L-27.25 -71.85 -26.7 -74.8 -21.5 -74.6 -21.9 -73.8 -22.45 -71.65 M-20.7 -87.55 L-18.55 -89.6 -16.75 -87.75 -17.5 -87.05 -18.95 -85.65 -20.7 -87.55 M-15.1 -86.0 L-13.4 -84.2 -13.0 -83.45 -14.9 -81.85 -17.9 -79.1 -19.85 -76.95 -20.25 -77.8 -19.9 -78.9 -16.5 -83.1 -17.45 -84.1 -15.1 -86.0 M-22.55 -85.7 L-21.15 -84.2 -21.05 -84.1 -21.15 -84.05 -24.0 -81.6 -24.7 -80.5 -24.95 -79.7 Q-25.05 -78.85 -24.25 -78.6 L-23.95 -78.75 -25.35 -77.0 Q-25.75 -76.5 -26.35 -76.45 L-26.45 -76.45 -25.55 -81.45 -24.25 -83.1 -24.7 -83.55 -22.55 -85.7 M-18.7 -35.95 Q-19.4 -34.1 -18.6 -32.95 L-27.8 -33.5 -26.55 -36.45 -18.7 -35.95 M-15.25 -30.9 L-14.95 -30.7 Q-15.75 -30.45 -16.45 -29.85 L-15.95 -30.6 -15.25 -30.9 M-18.05 -27.25 Q-18.55 -25.05 -16.95 -23.2 L-16.4 -22.5 -17.75 -20.65 -22.15 -19.6 -19.1 -23.85 -23.0 -28.5 Q-23.4 -28.95 -23.35 -29.55 L-22.8 -30.6 -21.7 -30.95 Q-21.1 -30.9 -20.7 -30.4 L-18.05 -27.25 M-29.5 -25.55 L-29.5 -25.5 Q-29.5 -25.0 -29.8 -24.55 L-33.55 -19.3 Q-33.9 -18.8 -34.5 -18.7 -35.1 -18.65 -35.6 -18.95 L-35.45 -19.8 Q-32.75 -22.85 -29.5 -25.55 M-28.3 -26.55 L-27.45 -27.35 Q-26.7 -28.1 -26.4 -28.95 L-23.85 -25.9 Q-23.5 -25.5 -23.5 -25.0 -23.5 -24.5 -23.8 -24.05 L-27.55 -18.8 -28.0 -18.4 -28.8 -18.2 Q-29.25 -18.2 -29.6 -18.5 -30.15 -18.85 -30.2 -19.45 -30.3 -20.1 -29.95 -20.55 L-26.85 -24.85 -28.3 -26.55 M-33.1 -16.6 L-35.35 -14.9 -36.05 -13.9 -36.3 -13.95 -35.9 -16.95 -33.1 -16.6" fill="#b4b4b4" fill-rule="evenodd" stroke="none"/>
    <path d="M22.3 -96.7 L23.8 -96.9 24.55 -93.95 23.05 -93.75 22.3 -96.7 M20.65 -93.5 L19.15 -93.3 18.45 -96.25 19.95 -96.4 20.65 -93.5 M24.6 -87.75 L23.7 -91.2 24.0 -91.5 Q24.4 -91.95 25.05 -91.95 L25.8 -89.05 24.6 -87.75 M21.75 -89.1 L22.3 -86.8 22.6 -85.65 21.8 -84.85 23.2 -83.15 24.45 -78.2 23.9 -78.2 Q23.3 -78.25 22.9 -78.75 L22.7 -78.95 20.5 -87.85 21.75 -89.1 M26.0 -86.75 L26.3 -87.1 27.4 -82.9 25.9 -84.75 Q25.5 -85.2 25.55 -85.75 25.6 -86.35 26.0 -86.75 M25.6 -73.6 L24.1 -73.4 23.35 -76.3 24.85 -76.5 25.6 -73.6 M27.4 -76.9 L28.85 -77.15 29.6 -74.2 28.1 -74.0 27.65 -75.85 27.4 -76.9 M5.3 -95.3 L6.8 -95.35 6.95 -92.35 5.45 -92.3 5.3 -95.3 M-23.6 -92.2 L-25.15 -92.25 -24.55 -95.2 -23.05 -95.15 -23.6 -92.2 M5.85 -86.7 L7.25 -88.15 7.5 -84.1 6.55 -83.1 7.7 -81.7 8.1 -76.6 7.65 -77.0 6.45 -78.45 5.85 -86.7 M6.75 -74.85 L8.25 -74.95 8.5 -71.95 7.0 -71.9 7.0 -72.2 6.75 -74.85 M-27.25 -71.85 L-28.75 -71.9 -28.25 -74.9 -26.7 -74.8 -27.25 -71.85 M34.0 -39.6 L34.7 -36.7 33.25 -36.35 32.5 -39.25 34.0 -39.6 M37.5 -37.45 L36.75 -40.35 38.2 -40.8 38.95 -37.9 37.5 -37.45 M38.1 -35.2 L38.9 -34.8 Q39.35 -34.45 39.4 -33.8 39.45 -33.2 39.05 -32.7 L38.8 -32.4 38.1 -35.2 M36.45 -29.65 L35.25 -28.2 34.35 -31.85 35.55 -33.25 36.45 -29.65 M40.05 -27.5 L39.05 -31.4 40.25 -32.85 42.5 -24.1 40.05 -27.5 M11.6 -33.3 L11.15 -36.3 12.65 -36.4 13.1 -33.4 11.6 -33.3 M11.95 -30.8 L12.25 -30.55 Q12.7 -30.2 12.75 -29.55 12.8 -28.95 12.4 -28.45 L12.3 -28.3 11.95 -30.8 M12.65 -25.8 L13.95 -27.35 15.25 -18.9 13.3 -21.6 12.65 -25.8 M14.65 -13.05 L14.2 -16.05 15.7 -16.15 16.2 -13.2 14.65 -13.05 M38.3 -22.15 L37.9 -21.7 Q37.45 -21.4 36.95 -21.45 L35.35 -27.85 37.75 -24.55 38.3 -22.15 M39.45 -17.6 L38.0 -17.1 37.3 -20.05 38.7 -20.5 39.45 -17.6 M41.55 -21.7 L42.9 -22.55 43.7 -19.45 42.3 -18.75 41.55 -21.7 M-25.1 -84.0 L-26.4 -85.35 -25.75 -89.05 -24.45 -87.7 -25.1 -84.0 M-26.45 -76.45 Q-27.0 -76.45 -27.45 -76.8 L-27.85 -77.25 -27.55 -79.0 -25.55 -81.45 -26.45 -76.45 M-34.35 -27.1 L-35.65 -28.65 -35.1 -32.35 -34.5 -31.9 -33.75 -31.05 -34.35 -27.1 M-35.6 -18.95 L-35.6 -19.0 Q-36.15 -19.35 -36.2 -19.95 -36.3 -20.6 -35.95 -21.05 L-35.1 -22.25 -35.45 -19.8 -35.6 -18.95 M-33.3 -34.05 L-34.8 -34.25 -34.35 -37.25 -32.85 -37.05 -33.3 -34.05 M-35.9 -16.95 L-36.3 -13.95 -37.8 -14.15 -37.35 -17.15 -35.9 -16.95" fill="#464646" fill-rule="evenodd" stroke="none"/>
    <path d="M-4.4 -82.75 L-2.95 -82.9 Q-1.4 -82.6 -1.15 -81.4 -1.05 -80.85 -1.35 -79.95 L-1.55 -79.1 -4.1 -82.25 -4.4 -82.75 M-4.7 -71.5 L-10.55 -71.45 -15.9 -71.5 -14.5 -73.75 -13.85 -74.45 -10.55 -74.45 -3.2 -74.5 -4.4 -72.0 -4.7 -71.5 M7.7 -36.05 L7.25 -33.95 6.9 -33.0 Q0.65 -32.7 -6.15 -32.7 L-10.6 -34.2 Q-12.0 -34.7 -12.35 -35.45 L-12.45 -35.75 -6.8 -35.7 Q0.85 -35.7 7.7 -36.05 M0.25 -26.6 L3.5 -25.75 1.85 -23.85 4.95 -19.55 5.2 -18.45 Q5.1 -17.85 4.6 -17.45 L3.45 -17.2 Q2.85 -17.3 2.5 -17.8 L-1.25 -23.05 -1.55 -24.0 Q-1.55 -24.55 -1.2 -24.9 L0.25 -26.6 M8.5 -23.85 L11.6 -19.55 11.85 -18.45 Q11.75 -17.85 11.25 -17.45 L10.1 -17.2 Q9.5 -17.3 9.15 -17.8 L5.4 -23.05 Q5.1 -23.5 5.1 -24.0 5.1 -24.55 5.45 -24.9 L5.6 -25.1 Q7.25 -24.55 8.5 -23.85 M11.2 -15.8 L10.6 -15.2 Q9.1 -13.75 5.7 -12.7 L4.8 -12.4 -6.8 -12.2 -32.15 -13.45 -31.7 -13.6 -27.45 -14.3 -23.15 -14.75 -19.35 -15.45 Q-13.4 -15.2 -6.8 -15.2 L11.2 -15.8 M-9.0 -79.7 L-6.7 -81.65 -4.25 -78.65 Q-3.9 -78.15 -3.95 -77.55 -4.0 -76.95 -4.5 -76.5 -5.0 -76.15 -5.6 -76.2 -6.2 -76.25 -6.6 -76.75 L-9.0 -79.7 M-13.2 -25.05 L-13.25 -25.2 Q-13.4 -25.85 -13.0 -26.5 L-11.95 -27.45 -11.5 -27.6 -9.2 -24.9 Q-8.85 -24.5 -8.85 -24.0 -8.85 -23.5 -9.15 -23.05 L-9.55 -22.45 -10.4 -22.9 -11.55 -23.4 -12.25 -23.8 -12.2 -23.85 -13.2 -25.05 M-4.75 -27.55 L-1.3 -26.95 -4.15 -23.6 -1.05 -19.3 Q-0.7 -18.8 -0.8 -18.2 -0.9 -17.6 -1.4 -17.2 L-2.55 -16.95 Q-3.15 -17.05 -3.5 -17.55 L-7.25 -22.8 -7.55 -23.75 Q-7.55 -24.3 -7.2 -24.65 L-4.75 -27.55 M-12.9 -17.8 Q-13.25 -17.3 -13.85 -17.2 L-14.25 -17.2 -12.9 -17.8" fill="#ffffff" fill-rule="evenodd" stroke="none"/>
    <path d="M3.0 -92.2 L-5.95 -91.95 -4.5 -95.0 2.9 -95.2 3.0 -92.2 M3.0 -90.0 L3.0 -89.0 3.0 -87.2 -0.95 -83.1 1.75 -79.8 0.85 -77.3 0.6 -76.6 0.15 -77.0 -1.55 -79.1 -1.35 -79.95 Q-1.05 -80.85 -1.15 -81.4 -1.4 -82.6 -2.95 -82.9 L-4.4 -82.75 -4.45 -83.25 -4.0 -84.25 1.25 -89.75 Q1.65 -90.2 2.3 -90.2 L3.0 -90.0 M6.75 -74.85 L7.0 -72.2 7.0 -71.9 5.6 -71.8 6.25 -74.85 6.75 -74.85 M-1.5 -71.55 L-4.7 -71.5 -4.4 -72.0 -3.2 -74.5 -0.15 -74.6 -1.5 -71.55 M-15.9 -71.5 L-22.45 -71.65 -21.9 -73.8 -21.5 -74.6 -13.85 -74.45 -14.5 -73.75 -15.9 -71.5 M6.9 -33.0 L7.25 -33.95 7.7 -36.05 11.15 -36.3 11.6 -33.3 6.9 -33.0 M-12.45 -35.75 L-12.35 -35.45 Q-12.0 -34.7 -10.6 -34.2 L-6.15 -32.7 -6.8 -32.7 Q-12.95 -32.7 -18.6 -32.95 -19.4 -34.1 -18.7 -35.95 L-12.45 -35.75 M3.5 -25.75 L0.25 -26.6 3.45 -30.4 Q3.85 -30.9 4.5 -30.95 L5.6 -30.55 Q6.05 -30.2 6.1 -29.55 6.15 -28.95 5.75 -28.45 L3.5 -25.75 M8.5 -23.85 Q7.25 -24.55 5.6 -25.1 L10.1 -30.4 Q10.5 -30.9 11.15 -30.95 L11.95 -30.8 12.3 -28.3 8.5 -23.85 M12.65 -25.8 L13.3 -21.6 12.05 -23.3 Q11.75 -23.75 11.75 -24.25 11.75 -24.75 12.1 -25.15 L12.65 -25.8 M11.2 -15.8 L14.2 -16.05 14.65 -13.05 4.8 -12.4 5.7 -12.7 Q9.1 -13.75 10.6 -15.2 L11.2 -15.8 M-9.0 -79.7 L-10.85 -82.0 Q-11.25 -82.45 -11.2 -83.0 -11.15 -83.6 -10.75 -84.0 L-5.5 -89.5 Q-5.1 -89.95 -4.45 -89.95 -3.85 -89.95 -3.4 -89.5 -2.95 -89.1 -2.95 -88.45 -2.95 -87.85 -3.35 -87.4 L-7.7 -82.85 -6.7 -81.65 -9.0 -79.7 M-13.0 -83.45 L-13.0 -83.25 Q-13.0 -82.7 -13.35 -82.25 L-17.6 -77.0 Q-18.0 -76.5 -18.6 -76.45 -19.2 -76.4 -19.7 -76.8 L-19.85 -76.95 -17.9 -79.1 -14.9 -81.85 -13.0 -83.45 M-13.2 -25.05 L-16.15 -28.5 Q-16.55 -28.95 -16.5 -29.55 L-16.45 -29.85 Q-15.75 -30.45 -14.95 -30.7 L-15.25 -30.9 -14.85 -30.95 Q-14.25 -30.9 -13.85 -30.4 L-11.5 -27.6 -11.95 -27.45 -13.0 -26.5 Q-13.4 -25.85 -13.25 -25.2 L-13.2 -25.05 M-18.05 -27.25 L-16.05 -24.9 Q-15.7 -24.5 -15.7 -24.0 -15.7 -23.5 -16.0 -23.05 L-16.4 -22.5 -16.95 -23.2 Q-18.55 -25.05 -18.05 -27.25 M-17.75 -20.65 L-19.8 -17.8 -20.75 -17.2 Q-21.4 -17.15 -21.85 -17.5 -22.4 -17.85 -22.45 -18.45 -22.55 -19.1 -22.2 -19.55 L-22.15 -19.6 -17.75 -20.65 M-1.3 -26.95 L-4.75 -27.55 -2.55 -30.15 Q-2.15 -30.65 -1.5 -30.7 -0.9 -30.75 -0.4 -30.3 0.05 -29.95 0.1 -29.3 0.15 -28.7 -0.25 -28.2 L-1.3 -26.95 M-28.0 -18.4 Q-28.25 -18.25 -28.5 -18.2 L-28.8 -18.2 -28.0 -18.4 M-19.35 -15.45 L-23.15 -14.75 -27.45 -14.3 -31.7 -13.6 -32.15 -13.45 -36.05 -13.9 -35.35 -14.9 -33.1 -16.6 -19.35 -15.45 M-12.25 -23.8 L-11.55 -23.4 -10.4 -22.9 -9.55 -22.45 -12.9 -17.8 -14.25 -17.2 Q-14.65 -17.25 -14.95 -17.5 -15.5 -17.85 -15.55 -18.45 -15.65 -19.1 -15.3 -19.55 L-12.25 -23.8" fill="#e0e0e0" fill-rule="evenodd" stroke="none"/>
    <path d="M22.3 -86.8 L22.95 -86.05 22.6 -85.65 22.3 -86.8 M24.45 -78.2 L23.2 -83.15 25.25 -80.65 Q25.6 -80.15 25.55 -79.55 L25.0 -78.5 24.45 -78.2 M25.6 -73.6 L24.85 -76.5 27.4 -76.9 27.65 -75.85 28.1 -74.0 25.6 -73.6 M-15.95 -92.0 L-20.95 -92.1 -20.7 -92.25 Q-18.2 -93.55 -17.05 -94.4 L-16.25 -94.95 -13.3 -94.95 -13.7 -94.6 -15.95 -92.0 M34.0 -39.6 L36.75 -40.35 37.5 -37.45 34.7 -36.7 34.0 -39.6 M38.1 -35.2 L38.8 -32.4 36.45 -29.65 35.55 -33.25 36.75 -34.65 Q37.15 -35.15 37.8 -35.2 L38.1 -35.2 M40.05 -27.5 L38.8 -29.3 Q38.5 -29.75 38.5 -30.25 38.5 -30.8 38.85 -31.15 L39.05 -31.4 40.05 -27.5 M38.3 -22.15 L37.75 -24.55 38.25 -23.8 38.5 -22.7 38.3 -22.15 M39.45 -17.6 L38.7 -20.5 41.55 -21.7 42.3 -18.75 39.45 -17.6 M-20.7 -87.55 L-20.85 -87.65 Q-21.25 -88.15 -21.25 -88.75 -21.25 -89.35 -20.75 -89.8 -20.3 -90.2 -19.7 -90.2 -19.1 -90.2 -18.65 -89.7 L-18.55 -89.6 -20.7 -87.55 M-16.75 -87.75 L-15.1 -86.0 -17.45 -84.1 -18.95 -85.65 -17.5 -87.05 -16.75 -87.75 M-25.1 -84.0 L-24.45 -87.7 -22.55 -85.7 -24.7 -83.55 -25.1 -84.0 M-21.05 -84.1 Q-20.75 -83.75 -20.75 -83.25 -20.75 -82.7 -21.1 -82.25 L-23.95 -78.75 -24.25 -78.6 Q-25.05 -78.85 -24.95 -79.7 L-24.7 -80.5 -24.0 -81.6 -21.15 -84.05 -21.05 -84.1 M-26.55 -36.45 L-27.8 -33.5 -33.3 -34.05 -32.85 -37.05 -26.55 -36.45 M-34.35 -27.1 L-33.75 -31.05 -29.85 -26.4 Q-29.55 -26.05 -29.5 -25.55 -32.75 -22.85 -35.45 -19.8 L-35.1 -22.25 -32.85 -25.35 -34.35 -27.1 M-28.3 -26.55 L-30.8 -29.5 Q-31.2 -29.95 -31.15 -30.55 -31.1 -31.2 -30.6 -31.6 L-29.5 -31.95 Q-28.9 -31.9 -28.5 -31.4 L-26.4 -28.95 Q-26.7 -28.1 -27.45 -27.35 L-28.3 -26.55" fill="#8a8a8a" fill-rule="evenodd" stroke="none"/>
  </g>
</svg>
