<?xml version="1.0" encoding="UTF-8" standalone="no"?>
<svg xmlns:ffdec="https://www.free-decompiler.com/flash" xmlns:xlink="http://www.w3.org/1999/xlink" ffdec:objectType="shape" height="153.55px" width="97.45px" xmlns="http://www.w3.org/2000/svg">
  <g transform="matrix(1.0, 0.0, 0.0, 1.0, 49.4, 31.65)">
    <path d="M8.4 -15.85 L12.7 -12.75 12.7 -12.7 12.75 -11.55 13.0 9.1 12.8 11.45 12.3 9.65 Q11.05 4.65 11.6 -0.6 L11.65 -1.4 Q12.55 -8.95 8.65 -15.4 L8.5 -15.65 8.4 -15.85 M15.0 -10.55 L19.2 -5.9 Q20.95 14.85 21.8 22.6 L21.75 26.15 21.4 29.6 Q17.9 23.5 16.8 12.85 16.1 8.45 15.75 3.25 15.3 -3.4 15.0 -10.55 M16.8 24.2 Q17.95 27.15 18.65 31.9 L19.1 35.7 19.3 49.15 19.35 86.4 19.35 90.4 19.1 94.2 Q18.55 100.7 21.2 106.05 23.75 111.3 27.75 112.25 26.45 113.15 26.45 113.7 L23.85 113.95 Q21.15 113.95 18.0 110.7 13.7 106.3 13.7 98.75 L14.6 90.4 14.7 86.4 14.85 49.15 15.05 35.7 15.25 28.8 15.55 22.0 16.8 24.2 M-30.9 -31.4 L-24.8 -30.5 -23.2 -28.5 Q-21.3 -26.5 -19.65 -26.5 -17.55 -26.5 -16.7 -28.45 -12.0 -27.0 -7.15 -24.8 -16.35 -27.0 -28.7 -25.35 -31.05 -28.1 -31.05 -30.4 L-30.9 -31.4" fill="#ffffff" fill-rule="evenodd" stroke="none"/>
    <path d="M12.7 -12.7 L15.0 -10.55 Q15.3 -3.4 15.75 3.25 16.1 8.45 16.8 12.85 17.9 23.5 21.4 29.6 L21.75 26.15 21.8 22.6 Q20.95 14.85 19.2 -5.9 L20.05 -4.8 21.95 -2.1 22.0 7.65 22.4 28.4 22.35 35.7 22.4 49.15 22.4 90.4 22.35 91.25 Q22.35 93.35 24.15 98.95 26.1 104.8 27.75 107.15 28.25 107.85 29.3 108.15 L34.9 108.8 Q33.5 111.2 30.65 113.2 27.7 115.3 24.65 115.95 L23.1 116.2 24.0 116.65 27.45 117.05 29.2 118.9 Q22.95 118.8 18.4 115.15 13.6 111.25 12.3 104.55 L12.85 86.4 13.25 34.0 Q14.35 24.4 14.35 20.05 14.35 16.35 13.95 12.25 13.3 14.55 12.5 31.4 L10.25 34.15 11.5 22.65 11.55 22.1 11.5 22.45 Q11.85 17.7 11.7 15.95 L10.85 8.95 10.6 7.1 10.0 2.95 9.6 0.45 9.55 0.25 8.6 -5.1 6.45 -13.35 5.0 -17.65 4.9 -17.8 4.8 -18.0 4.35 -18.6 7.55 -16.4 8.4 -15.85 8.5 -15.65 8.65 -15.4 Q12.55 -8.95 11.65 -1.4 L11.6 -0.6 Q11.05 4.65 12.3 9.65 L12.8 11.45 13.0 9.1 12.75 -11.55 12.7 -12.7 M46.2 100.55 L45.6 102.6 Q44.2 103.9 40.95 104.35 L40.45 104.25 39.4 104.4 Q32.75 103.65 31.2 102.45 29.5 101.1 26.1 94.0 31.1 98.55 33.2 101.6 33.95 102.35 38.6 102.35 L41.9 101.45 46.2 100.55 M16.8 24.2 L15.55 22.0 15.25 28.8 15.05 35.7 14.85 49.15 14.7 86.4 14.6 90.4 13.7 98.75 Q13.7 106.3 18.0 110.7 21.15 113.95 23.85 113.95 L26.45 113.7 Q26.45 113.15 27.75 112.25 23.75 111.3 21.2 106.05 18.55 100.7 19.1 94.2 L19.35 90.4 19.35 86.4 19.3 49.15 19.1 35.7 18.65 31.9 Q17.95 27.15 16.8 24.2 M-40.35 -27.65 L-38.3 -27.6 -39.9 -29.35 Q-40.6 -30.25 -40.85 -31.4 L-37.35 -31.6 -36.55 -31.6 -36.2 -27.35 -40.35 -27.65 M-35.2 -31.6 L-30.9 -31.4 -31.05 -30.4 Q-31.05 -28.1 -28.7 -25.35 L-31.4 -25.4 -30.95 -25.85 -30.8 -25.95 Q-31.75 -26.7 -33.6 -29.2 L-35.2 -31.6 M-24.8 -30.5 Q-20.8 -29.75 -16.7 -28.45 -17.55 -26.5 -19.65 -26.5 -21.3 -26.5 -23.2 -28.5 L-24.8 -30.5" fill="#d1d1d1" fill-rule="evenodd" stroke="none"/>
    <path d="M21.95 -2.1 L22.4 -1.2 22.85 -0.3 Q25.6 17.75 26.65 32.45 L26.75 35.7 Q27.0 66.9 27.65 86.4 27.95 88.75 28.35 90.4 30.75 101.2 40.15 101.2 L43.1 100.7 Q45.25 99.95 46.25 98.35 L46.2 100.55 41.9 101.45 38.6 102.35 Q33.95 102.35 33.2 101.6 31.1 98.55 26.1 94.0 29.5 101.1 31.2 102.45 32.75 103.65 39.4 104.4 38.1 105.25 35.15 106.25 L31.3 107.25 Q30.7 107.25 29.3 106.4 L27.65 105.4 27.15 105.5 27.75 107.15 Q26.1 104.8 24.15 98.95 22.35 93.35 22.35 91.25 L22.4 90.4 22.4 49.15 22.35 35.7 22.4 28.4 22.0 7.65 21.95 -2.1 M6.2 -8.8 L6.2 -8.85 5.95 -9.9 5.55 -11.45 4.4 -15.3 3.3 -18.2 2.65 -19.75 4.35 -18.6 4.8 -18.0 4.9 -17.8 5.0 -17.65 6.45 -13.35 8.6 -5.1 9.55 0.25 6.25 -8.75 6.2 -8.8 M12.5 31.4 Q13.3 14.55 13.95 12.25 14.35 16.35 14.35 20.05 14.35 24.4 13.25 34.0 L12.5 31.4 M12.3 104.55 Q13.6 111.25 18.4 115.15 22.95 118.8 29.2 118.9 27.8 119.85 26.2 119.85 19.0 119.85 15.65 116.1 12.4 112.45 12.3 104.55 M27.45 117.05 L24.0 116.65 23.1 116.2 24.65 115.95 Q27.7 115.3 30.65 113.2 33.5 111.2 34.9 108.8 L37.9 107.5 Q36.2 111.6 34.2 113.15 31.8 115.05 26.95 115.3 L27.45 117.05 M45.6 102.6 Q45.15 103.65 42.9 106.3 40.6 109.0 39.7 109.5 L38.45 110.05 40.0 107.45 Q40.8 105.8 40.95 104.35 44.2 103.9 45.6 102.6 M-43.2 -31.1 L-40.85 -31.4 Q-40.6 -30.25 -39.9 -29.35 L-38.3 -27.6 -40.35 -27.65 Q-41.9 -28.1 -42.9 -30.35 L-43.2 -31.1 M-36.55 -31.6 L-35.2 -31.6 -33.6 -29.2 Q-31.75 -26.7 -30.8 -25.95 L-30.95 -25.85 -31.4 -25.4 Q-33.0 -25.4 -33.45 -25.85 L-32.65 -26.5 -35.5 -27.3 -36.2 -27.35 -36.55 -31.6 M-47.8 -30.0 L-44.95 -30.75 Q-45.15 -29.5 -44.65 -28.1 -46.55 -28.2 -47.8 -30.0" fill="#989898" fill-rule="evenodd" stroke="none"/>
    <path d="M22.4 -1.2 L23.8 1.5 Q24.65 2.35 25.95 11.75 L27.8 27.0 28.45 35.7 28.85 64.5 29.2 86.4 Q29.6 91.3 30.25 92.3 31.65 94.6 33.6 97.15 36.9 99.65 39.25 99.75 L40.4 99.6 40.6 99.6 Q41.5 99.45 43.4 98.15 45.75 96.5 46.35 94.75 48.15 96.5 48.05 100.3 48.05 102.9 45.9 106.0 43.5 109.4 39.8 111.25 L35.15 114.75 Q32.35 116.95 29.6 116.85 L32.2 117.9 31.7 118.6 Q30.3 120.0 27.45 121.05 25.15 121.9 24.05 121.9 17.25 121.9 13.8 116.6 10.4 111.35 10.4 101.15 L11.15 90.4 11.2 86.4 11.25 49.15 11.35 35.7 11.35 34.75 9.55 36.55 9.45 33.35 Q9.45 26.55 10.2 20.15 L10.25 19.9 10.4 18.35 9.4 9.7 8.95 6.45 8.7 4.75 Q7.55 -3.0 6.25 -8.7 L6.2 -8.8 6.25 -8.75 9.55 0.25 9.6 0.45 10.0 2.95 10.6 7.1 10.85 8.95 11.7 15.95 Q11.85 17.7 11.5 22.45 L11.55 22.1 11.5 22.65 10.25 34.15 12.5 31.4 13.25 34.0 12.85 86.4 12.3 104.55 Q12.4 112.45 15.65 116.1 19.0 119.85 26.2 119.85 27.8 119.85 29.2 118.9 L27.45 117.05 26.95 115.3 Q31.8 115.05 34.2 113.15 36.2 111.6 37.9 107.5 L34.9 108.8 29.3 108.15 Q28.25 107.85 27.75 107.15 L27.15 105.5 27.65 105.4 29.3 106.4 Q30.7 107.25 31.3 107.25 L35.15 106.25 Q38.1 105.25 39.4 104.4 L40.45 104.25 40.95 104.35 Q40.8 105.8 40.0 107.45 L38.45 110.05 39.7 109.5 Q40.6 109.0 42.9 106.3 45.15 103.65 45.6 102.6 L46.2 100.55 46.25 98.35 Q45.25 99.95 43.1 100.7 L40.15 101.2 Q30.75 101.2 28.35 90.4 27.95 88.75 27.65 86.4 27.0 66.9 26.75 35.7 L26.65 32.45 Q25.6 17.75 22.85 -0.3 L22.4 -1.2 M-43.2 -31.1 L-42.9 -30.35 Q-41.9 -28.1 -40.35 -27.65 L-36.2 -27.35 -35.5 -27.3 -32.65 -26.5 -33.45 -25.85 Q-43.05 -25.65 -46.2 -26.85 -48.25 -27.65 -49.4 -29.4 L-47.8 -30.0 Q-46.55 -28.2 -44.65 -28.1 -45.15 -29.5 -44.95 -30.75 L-43.2 -31.1" fill="#606060" fill-rule="evenodd" stroke="none"/>
  </g>
</svg>
