<?xml version="1.0" encoding="UTF-8" standalone="no"?>
<svg xmlns:ffdec="https://www.free-decompiler.com/flash" xmlns:xlink="http://www.w3.org/1999/xlink" ffdec:objectType="shape" height="61.65px" width="19.4px" xmlns="http://www.w3.org/2000/svg">
  <g transform="matrix(1.0, 0.0, 0.0, 1.0, 7.45, 0.05)">
    <path d="M8.5 58.5 L9.95 56.0 4.45 0.15 5.55 -0.05 Q6.3 4.55 8.35 25.25 10.9 51.75 11.95 56.2 L11.95 57.2 11.2 57.4 9.35 59.5 Q7.35 61.6 6.05 61.6 4.45 61.6 2.05 59.95 0.1 58.7 -0.85 57.55 L-0.9 57.35 Q-1.05 53.7 -4.2 28.7 L-7.45 2.4 -5.7 2.05 Q-2.25 25.75 0.1 48.65 0.75 54.9 1.1 56.4 1.5 58.15 2.45 58.15 3.2 58.15 4.4 58.85 5.65 59.55 6.45 59.55 L7.6 59.25 8.5 58.5" fill="#9d632f" fill-rule="evenodd" stroke="none"/>
    <path d="M8.5 58.5 Q8.1 56.55 5.05 31.55 2.25 9.15 1.4 0.7 L4.45 0.15 9.95 56.0 8.5 58.5" fill="#de9954" fill-rule="evenodd" stroke="none"/>
    <path d="M1.4 0.7 Q2.25 9.15 5.05 31.55 8.1 56.55 8.5 58.5 L7.6 59.25 6.45 59.55 Q5.65 59.55 4.4 58.85 3.2 58.15 2.45 58.15 1.5 58.15 1.1 56.4 0.75 54.9 0.1 48.65 -2.25 25.75 -5.7 2.05 L1.4 0.7" fill="#eaa76a" fill-rule="evenodd" stroke="none"/>
  </g>
</svg>
