<?xml version="1.0" encoding="UTF-8" standalone="no"?>
<svg xmlns:ffdec="https://www.free-decompiler.com/flash" xmlns:xlink="http://www.w3.org/1999/xlink" ffdec:objectType="shape" height="65.75px" width="96.3px" xmlns="http://www.w3.org/2000/svg">
  <g transform="matrix(1.0, 0.0, 0.0, 1.0, 63.6, 51.25)">
    <path d="M-47.8 -24.85 L-48.35 -25.1 -49.7 -25.4 -51.25 -23.7 -53.15 -21.4 Q-54.8 -22.0 -55.1 -22.6 -55.95 -24.15 -56.3 -29.1 -56.95 -29.65 -57.6 -27.45 L-58.3 -24.3 Q-58.3 -22.45 -57.55 -18.85 -56.8 -15.3 -56.8 -13.25 -56.8 -9.0 -58.8 -4.55 -60.95 0.15 -63.25 0.05 L-63.6 0.0 Q-63.1 -1.25 -62.35 -4.0 -61.6 -6.8 -61.95 -10.2 L-63.55 -24.45 Q-63.55 -36.1 -48.0 -44.05 -33.85 -51.25 -16.6 -51.25 -8.8 -49.15 -7.5 -48.5 -7.15 -48.3 -4.5 -48.5 L-1.2 -48.75 Q7.0 -48.75 12.5 -46.3 17.95 -43.85 23.1 -38.75 28.2 -33.65 30.45 -26.45 32.65 -19.25 32.7 -15.3 32.75 -11.35 32.15 -7.95 31.55 -4.55 31.2 -3.95 L30.15 -3.0 29.15 -3.05 28.65 -3.95 28.6 -4.05 28.6 -3.85 Q28.6 -0.8 27.8 2.1 L26.55 6.15 25.25 10.8 Q23.95 14.5 22.65 14.5 21.8 14.5 20.6 12.2 19.0 9.2 17.45 7.8 L19.65 8.35 19.9 8.65 22.65 13.45 Q25.1 9.95 25.35 8.05 25.65 5.55 26.35 4.05 L27.65 -3.35 27.55 -4.6 27.55 -5.3 24.4 -2.55 21.15 0.1 20.35 -1.5 19.65 -3.15 Q14.45 2.75 11.35 2.75 10.75 2.75 10.4 1.75 L9.6 -0.3 9.35 -0.8 8.8 -2.1 Q6.95 0.7 3.25 3.55 0.25 5.9 -1.7 6.75 -1.9 2.6 -1.4 -1.7 -3.4 0.4 -6.55 2.75 -10.2 5.45 -13.05 5.45 -11.05 1.75 -10.05 -3.85 -9.25 -8.35 -9.35 -10.95 -9.45 -13.6 -11.0 -18.55 -12.6 -23.5 -13.95 -24.1 -17.0 -27.2 -23.0 -28.45 -25.15 -28.45 -26.7 -27.25 -28.5 -25.85 -28.7 -23.3 L-28.55 -22.7 Q-28.5 -22.15 -28.95 -22.2 L-29.35 -22.9 Q-29.5 -29.45 -21.8 -29.45 -16.75 -29.45 -12.9 -25.1 -8.3 -19.9 -8.3 -10.55 -8.3 -9.0 -9.5 -3.35 -10.7 2.45 -11.45 4.35 -8.3 3.15 -5.6 0.8 -1.95 -2.35 -0.7 -6.55 L-0.5 -8.2 Q-0.05 -7.0 -0.05 -6.0 -0.05 -5.35 -0.2 -4.65 -0.55 -3.35 -1.1 5.5 1.65 4.25 3.95 2.1 8.35 -2.1 9.0 -8.8 L10.35 -3.6 11.9 1.7 Q16.0 -0.7 16.6 -1.65 17.95 -3.7 19.35 -12.05 L21.3 -1.4 Q24.8 -2.15 27.2 -8.15 L29.45 -5.25 30.0 -4.15 30.95 -7.1 Q31.7 -10.2 31.7 -13.85 31.7 -28.45 21.15 -38.4 11.3 -47.75 -1.5 -47.75 L-3.7 -47.65 -5.2 -47.45 Q6.1 -46.65 16.9 -36.65 28.05 -26.35 26.7 -16.45 27.0 -24.45 16.8 -35.0 6.3 -45.95 -3.35 -46.15 L-3.55 -46.15 -7.75 -46.55 Q-11.5 -46.55 -17.55 -44.7 L-24.7 -42.6 Q-23.2 -44.25 -19.3 -45.4 L-8.25 -47.85 -15.1 -49.65 -15.05 -48.1 Q-16.25 -49.25 -18.45 -50.4 L-20.35 -50.35 Q-19.75 -49.6 -19.5 -48.55 L-19.5 -48.3 Q-20.35 -48.8 -21.1 -49.6 L-21.8 -50.25 Q-24.6 -50.25 -24.8 -49.7 L-23.8 -47.45 -23.3 -45.75 -25.9 -47.75 Q-27.8 -49.25 -28.6 -49.25 L-35.8 -48.1 -38.2 -46.75 -34.25 -40.35 Q-34.25 -39.7 -34.45 -39.8 L-34.65 -40.05 Q-35.75 -41.15 -36.45 -42.45 -37.0 -43.4 -38.3 -44.45 -40.1 -45.85 -41.85 -45.85 -42.85 -45.85 -44.5 -44.7 -43.15 -44.4 -41.7 -43.65 -40.2 -42.85 -39.85 -42.25 L-39.7 -42.2 -40.3 -42.2 Q-41.85 -42.2 -43.35 -42.9 L-45.15 -43.6 -48.2 -42.95 Q-50.65 -42.05 -51.9 -40.35 L-53.45 -38.9 -49.45 -39.8 Q-47.1 -39.8 -44.5 -38.85 -40.9 -37.5 -40.5 -35.0 L-40.95 -34.75 Q-44.5 -38.5 -49.5 -38.5 -55.6 -38.5 -59.5 -33.25 -62.75 -28.85 -62.75 -24.05 -61.65 -16.0 -60.85 -8.15 -60.95 -3.65 -61.4 -2.25 -57.85 -7.25 -57.85 -13.95 -57.85 -15.75 -59.25 -24.5 -59.25 -28.6 -56.8 -30.8 -54.6 -32.8 -50.95 -32.8 -48.95 -32.8 -47.1 -31.75 L-42.85 -28.65 Q-44.2 -28.3 -46.55 -30.35 -48.65 -32.15 -51.45 -31.3 -55.0 -30.35 -55.0 -29.35 L-54.7 -25.9 Q-54.4 -23.35 -53.4 -22.6 L-51.2 -25.0 -49.55 -26.5 Q-49.4 -26.5 -48.8 -25.95 L-47.8 -24.85 M-36.45 -23.25 Q-37.25 -24.7 -37.7 -27.15 -37.75 -32.7 -35.4 -35.5 -32.95 -38.5 -27.6 -38.65 L-25.15 -38.55 -27.75 -37.65 Q-32.25 -37.45 -34.6 -34.9 -36.75 -32.55 -36.75 -28.45 -36.35 -23.75 -36.45 -23.25" fill="#606060" fill-rule="evenodd" stroke="none"/>
    <path d="M13.65 5.85 L9.2 3.95 Q9.45 2.9 9.1 0.4 10.15 3.0 10.55 3.55 10.95 4.15 11.7 4.15 L13.7 3.65 Q15.8 2.75 16.85 0.6 L18.35 2.1 19.95 3.45 22.7 0.75 23.6 2.1 23.9 3.25 Q23.9 5.4 21.55 6.3 L22.8 8.9 20.95 8.55 19.9 8.65 19.65 8.35 Q19.25 8.1 16.25 6.8 L12.8 5.4 13.65 5.85 M-30.85 -22.4 L-32.6 -22.2 -32.75 -25.25 Q-32.75 -30.15 -30.95 -32.15 -28.95 -34.45 -23.7 -34.45 -16.35 -34.45 -10.35 -28.2 -4.15 -21.75 -4.15 -13.5 L-4.25 -4.75 -3.8 -5.25 Q-3.5 -5.85 -3.1 -8.15 -2.6 -10.85 -2.6 -12.95 -2.6 -23.2 -9.35 -29.9 -16.25 -36.8 -27.15 -36.8 -30.3 -36.8 -32.6 -34.25 -35.2 -31.4 -35.2 -26.6 L-34.8 -24.0 -34.4 -22.2 -35.85 -22.5 Q-36.45 -22.8 -36.45 -23.25 -36.35 -23.75 -36.75 -28.45 -36.75 -32.55 -34.6 -34.9 -32.25 -37.45 -27.75 -37.65 -24.7 -37.6 -21.2 -36.5 L-13.45 -33.75 -14.2 -34.45 Q-15.3 -35.3 -19.15 -36.85 -23.55 -38.7 -25.15 -38.55 L-27.6 -38.65 Q-26.35 -39.3 -22.95 -40.2 L-14.45 -39.2 -14.05 -39.65 Q-15.4 -41.15 -21.55 -42.6 L-18.0 -43.2 -15.25 -43.45 -6.3 -42.6 Q-8.05 -43.85 -11.45 -45.35 L-3.55 -46.15 -3.35 -46.15 Q6.3 -45.95 16.8 -35.0 27.0 -24.45 26.7 -16.45 27.6 -10.6 25.9 -7.2 24.65 -4.65 22.5 -4.05 20.75 -15.5 15.35 -27.55 L13.4 -29.95 Q11.45 -31.9 10.25 -32.05 L11.3 -30.6 Q14.6 -27.0 16.6 -19.55 18.1 -13.95 18.1 -10.6 18.1 -5.25 16.25 -3.0 15.2 -1.75 12.9 -1.15 10.85 -7.3 8.2 -17.1 6.25 -23.65 4.75 -23.2 L5.2 -21.75 7.75 -12.2 Q8.1 -10.95 8.1 -8.4 8.1 -2.75 0.5 2.45 1.5 -3.65 0.65 -10.0 -0.05 -15.4 -1.15 -16.6 -0.4 -8.3 -2.5 -4.35 -3.75 -2.0 -7.4 0.2 L-6.8 -1.45 Q-6.3 -4.35 -6.3 -5.0 -6.3 -17.05 -8.15 -21.7 -12.0 -31.35 -24.75 -31.35 -27.35 -31.35 -29.25 -29.1 -31.05 -27.0 -31.05 -24.4 L-30.85 -22.4 M-38.15 -26.15 L-39.1 -25.45 Q-40.85 -30.7 -43.0 -33.3 -45.75 -36.65 -49.8 -36.65 -53.95 -36.65 -57.2 -34.1 -61.7 -30.65 -61.7 -23.5 -60.75 -12.85 -60.85 -8.15 -61.65 -16.0 -62.75 -24.05 -62.75 -28.85 -59.5 -33.25 -55.6 -38.5 -49.5 -38.5 -44.5 -38.5 -40.95 -34.75 -39.7 -33.1 -38.8 -29.65 -38.15 -27.05 -38.15 -26.15 M-40.4 -25.1 L-41.75 -25.1 Q-42.25 -27.6 -42.85 -28.65 L-47.1 -31.75 Q-48.95 -32.8 -50.95 -32.8 -54.6 -32.8 -56.8 -30.8 -59.25 -28.6 -59.25 -24.5 -57.85 -15.75 -57.85 -13.95 -57.85 -7.25 -61.4 -2.25 -59.05 -8.6 -59.2 -11.65 -59.35 -14.75 -60.25 -22.25 -61.05 -28.55 -57.7 -31.85 -54.9 -34.6 -50.6 -34.6 -47.1 -34.6 -44.35 -32.1 -41.65 -29.55 -40.4 -25.1 M-44.2 -25.55 L-45.85 -25.95 Q-47.35 -28.8 -49.7 -28.8 L-50.85 -28.45 Q-51.95 -28.05 -52.65 -27.35 L-52.95 -26.85 Q-53.35 -26.4 -53.6 -26.85 -53.05 -28.05 -51.9 -29.4 L-50.5 -30.6 Q-45.45 -27.95 -44.2 -25.55 M14.45 -12.6 L14.0 -12.6 Q14.2 -22.15 8.35 -31.3 3.0 -39.75 -2.45 -40.85 L-1.2 -40.15 2.1 -36.95 Q4.65 -34.2 4.8 -33.25 L3.6 -34.05 Q-3.7 -39.15 -9.9 -41.3 -13.65 -42.6 -16.05 -42.6 L-14.5 -42.05 Q-13.05 -41.5 -9.8 -39.4 -6.15 -37.05 -5.8 -36.1 -7.8 -36.8 -20.1 -39.25 L-20.85 -39.2 -20.95 -38.95 Q-11.3 -36.7 -4.85 -28.95 3.35 -19.1 3.2 -3.05 L3.85 -4.4 Q5.35 -9.65 5.35 -11.9 5.35 -20.05 2.3 -26.0 0.9 -28.75 -3.0 -33.2 3.15 -30.2 6.6 -26.25 7.8 -24.9 10.9 -19.75 12.0 -17.9 12.4 -12.4 12.75 -7.4 14.3 -5.9 14.6 -8.0 14.45 -12.6 M24.85 -9.05 Q26.35 -15.2 23.25 -22.5 20.55 -28.95 14.95 -34.9 9.65 -40.5 3.95 -43.45 -1.95 -46.45 -5.65 -45.25 3.8 -42.05 9.8 -37.2 14.6 -33.35 16.95 -28.7 21.15 -20.45 22.35 -14.65 23.1 -10.8 24.85 -9.05 M29.3 -9.05 Q29.9 -23.6 21.9 -33.7 15.45 -41.9 4.6 -45.95 18.85 -42.95 26.05 -28.9 28.85 -23.4 29.7 -17.65 30.5 -12.3 29.3 -9.05 M-36.8 -35.25 L-36.7 -35.1 -37.35 -35.0 Q-37.75 -35.0 -38.45 -35.6 L-41.35 -38.3 Q-42.15 -39.05 -43.85 -39.85 -46.1 -40.85 -47.9 -40.9 L-48.55 -41.35 Q-46.15 -42.15 -45.0 -42.15 -42.25 -42.15 -40.0 -40.55 -37.3 -38.65 -36.8 -35.25 M-17.55 -47.15 L-17.85 -47.05 -18.55 -48.6 -17.85 -47.9 -17.55 -47.15 M-20.65 -45.3 L-20.8 -45.2 Q-21.2 -45.4 -22.25 -47.25 L-22.7 -48.8 -21.65 -47.35 Q-20.8 -46.05 -20.65 -45.3 M-29.1 -46.55 L-28.35 -45.05 -27.4 -43.45 Q-27.1 -43.8 -27.05 -44.4 L-28.05 -45.55 -29.1 -46.55 M-25.65 -42.55 L-26.9 -42.45 Q-27.95 -42.6 -29.05 -43.9 L-28.7 -42.3 Q-28.95 -40.6 -29.85 -41.0 L-30.25 -41.05 -30.6 -41.65 -30.5 -39.65 Q-31.7 -40.35 -33.55 -43.05 -35.5 -45.95 -35.6 -47.6 -35.15 -47.55 -32.8 -46.5 L-30.0 -45.1 -30.35 -47.7 Q-29.0 -47.85 -27.45 -46.45 -25.6 -44.85 -25.65 -42.55 M-29.8 -42.8 Q-29.85 -43.55 -31.1 -44.4 L-30.05 -43.0 -29.8 -42.8 M-30.95 -41.8 L-32.0 -44.7 Q-32.6 -45.7 -33.8 -45.5 -33.2 -44.3 -32.1 -43.05 L-30.95 -41.8 M-35.2 -38.35 L-35.3 -38.2 -36.25 -39.6 Q-37.25 -41.1 -39.15 -43.05 L-40.65 -44.3 Q-38.35 -43.9 -36.7 -41.85 -35.35 -40.05 -35.2 -38.35 M26.25 0.0 L25.75 2.55 24.7 0.45 25.9 -0.95 26.25 0.0" fill="#d1d1d1" fill-rule="evenodd" stroke="none"/>
    <path d="M17.45 7.8 L13.65 5.85 12.8 5.4 16.25 6.8 Q19.25 8.1 19.65 8.35 L17.45 7.8 M9.1 0.4 L9.35 -0.8 9.6 -0.3 10.4 1.75 Q10.75 2.75 11.35 2.75 14.45 2.75 19.65 -3.15 L20.35 -1.5 21.15 0.1 24.4 -2.55 27.55 -5.3 27.55 -4.6 27.65 -3.35 26.35 4.05 Q25.65 5.55 25.35 8.05 25.1 9.95 22.65 13.45 L19.9 8.65 20.95 8.55 22.8 8.9 21.55 6.3 Q23.9 5.4 23.9 3.25 L23.6 2.1 22.7 0.75 19.95 3.45 18.35 2.1 16.85 0.6 Q15.8 2.75 13.7 3.65 L11.7 4.15 Q10.95 4.15 10.55 3.55 10.15 3.0 9.1 0.4 M-13.95 -24.1 Q-16.9 -24.9 -19.3 -24.9 L-24.45 -24.55 Q-26.5 -24.2 -28.7 -23.3 -28.5 -25.85 -26.7 -27.25 -25.15 -28.45 -23.0 -28.45 -17.0 -27.2 -13.95 -24.1 M-29.35 -22.9 L-30.85 -22.4 -31.05 -24.4 Q-31.05 -27.0 -29.25 -29.1 -27.35 -31.35 -24.75 -31.35 -12.0 -31.35 -8.15 -21.7 -6.3 -17.05 -6.3 -5.0 -6.3 -4.35 -6.8 -1.45 L-7.4 0.2 Q-3.75 -2.0 -2.5 -4.35 -0.4 -8.3 -1.15 -16.6 -0.05 -15.4 0.65 -10.0 1.5 -3.65 0.5 2.45 8.1 -2.75 8.1 -8.4 8.1 -10.95 7.75 -12.2 L5.2 -21.75 4.75 -23.2 Q6.25 -23.65 8.2 -17.1 10.85 -7.3 12.9 -1.15 15.2 -1.75 16.25 -3.0 18.1 -5.25 18.1 -10.6 18.1 -13.95 16.6 -19.55 14.6 -27.0 11.3 -30.6 L10.25 -32.05 Q11.45 -31.9 13.4 -29.95 L15.35 -27.55 Q20.75 -15.5 22.5 -4.05 24.65 -4.65 25.9 -7.2 27.6 -10.6 26.7 -16.45 28.05 -26.35 16.9 -36.65 6.1 -46.65 -5.2 -47.45 L-3.7 -47.65 -1.5 -47.75 Q11.3 -47.75 21.15 -38.4 31.7 -28.45 31.7 -13.85 31.7 -10.2 30.95 -7.1 L30.0 -4.15 29.45 -5.25 27.2 -8.15 Q24.8 -2.15 21.3 -1.4 L19.35 -12.05 Q17.95 -3.7 16.6 -1.65 16.0 -0.7 11.9 1.7 L10.35 -3.6 9.0 -8.8 Q8.35 -2.1 3.95 2.1 1.65 4.25 -1.1 5.5 -0.55 -3.35 -0.2 -4.65 -0.05 -5.35 -0.05 -6.0 -0.05 -7.0 -0.5 -8.2 L-0.7 -6.55 Q-1.95 -2.35 -5.6 0.8 -8.3 3.15 -11.45 4.35 -10.7 2.45 -9.5 -3.35 -8.3 -9.0 -8.3 -10.55 -8.3 -19.9 -12.9 -25.1 -16.75 -29.45 -21.8 -29.45 -29.5 -29.45 -29.35 -22.9 M-37.7 -27.15 L-38.15 -26.15 Q-38.15 -27.05 -38.8 -29.65 -39.7 -33.1 -40.95 -34.75 L-40.5 -35.0 Q-40.9 -37.5 -44.5 -38.85 -47.1 -39.8 -49.45 -39.8 L-53.45 -38.9 -51.9 -40.35 Q-50.65 -42.05 -48.2 -42.95 L-45.15 -43.6 -43.35 -42.9 Q-41.85 -42.2 -40.3 -42.2 L-39.7 -42.2 -39.85 -42.25 Q-40.2 -42.85 -41.7 -43.65 -43.15 -44.4 -44.5 -44.7 -42.85 -45.85 -41.85 -45.85 -40.1 -45.85 -38.3 -44.45 -37.0 -43.4 -36.45 -42.45 -35.75 -41.15 -34.65 -40.05 L-34.45 -39.8 Q-34.25 -39.7 -34.25 -40.35 L-38.2 -46.75 -35.8 -48.1 -28.6 -49.25 Q-27.8 -49.25 -25.9 -47.75 L-23.3 -45.75 -23.8 -47.45 -24.8 -49.7 Q-24.6 -50.25 -21.8 -50.25 L-21.1 -49.6 Q-20.35 -48.8 -19.5 -48.3 L-19.5 -48.55 Q-19.75 -49.6 -20.35 -50.35 L-18.45 -50.4 Q-16.25 -49.25 -15.05 -48.1 L-15.1 -49.65 -8.25 -47.85 -19.3 -45.4 Q-23.2 -44.25 -24.7 -42.6 L-17.55 -44.7 Q-11.5 -46.55 -7.75 -46.55 L-3.55 -46.15 -11.45 -45.35 Q-8.05 -43.85 -6.3 -42.6 L-15.25 -43.45 -18.0 -43.2 -21.55 -42.6 Q-15.4 -41.15 -14.05 -39.65 L-14.45 -39.2 -22.95 -40.2 Q-26.35 -39.3 -27.6 -38.65 -32.95 -38.5 -35.4 -35.5 -37.75 -32.7 -37.7 -27.15 M-41.75 -25.1 L-44.2 -25.55 Q-45.45 -27.95 -50.5 -30.6 L-51.9 -29.4 Q-53.05 -28.05 -53.6 -26.85 -53.35 -26.4 -52.95 -26.85 L-52.65 -27.35 Q-51.95 -28.05 -50.85 -28.45 L-49.7 -28.8 Q-47.35 -28.8 -45.85 -25.95 L-46.6 -25.4 Q-47.45 -24.85 -47.8 -24.85 L-48.8 -25.95 Q-49.4 -26.5 -49.55 -26.5 L-51.2 -25.0 -53.4 -22.6 Q-54.4 -23.35 -54.7 -25.9 L-55.0 -29.35 Q-55.0 -30.35 -51.45 -31.3 -48.65 -32.15 -46.55 -30.35 -44.2 -28.3 -42.85 -28.65 -42.25 -27.6 -41.75 -25.1 M-36.8 -35.25 Q-37.3 -38.65 -40.0 -40.55 -42.25 -42.15 -45.0 -42.15 -46.15 -42.15 -48.55 -41.35 L-47.9 -40.9 Q-46.1 -40.85 -43.85 -39.85 -42.15 -39.05 -41.35 -38.3 L-38.45 -35.6 Q-37.75 -35.0 -37.35 -35.0 L-36.7 -35.1 -36.8 -35.25 M29.3 -9.05 Q30.5 -12.3 29.7 -17.65 28.85 -23.4 26.05 -28.9 18.85 -42.95 4.6 -45.95 15.45 -41.9 21.9 -33.7 29.9 -23.6 29.3 -9.05 M-17.55 -47.15 L-17.85 -47.9 -18.55 -48.6 -17.85 -47.05 -17.55 -47.15 M-25.15 -38.55 Q-23.55 -38.7 -19.15 -36.85 -15.3 -35.3 -14.2 -34.45 L-13.45 -33.75 -21.2 -36.5 Q-24.7 -37.6 -27.75 -37.65 L-25.15 -38.55 M-20.65 -45.3 Q-20.8 -46.05 -21.65 -47.35 L-22.7 -48.8 -22.25 -47.25 Q-21.2 -45.4 -20.8 -45.2 L-20.65 -45.3 M-25.65 -42.55 Q-25.6 -44.85 -27.45 -46.45 -29.0 -47.85 -30.35 -47.7 L-30.0 -45.1 -32.8 -46.5 Q-35.15 -47.55 -35.6 -47.6 -35.5 -45.95 -33.55 -43.05 -31.7 -40.35 -30.5 -39.65 L-30.6 -41.65 -30.25 -41.05 -29.85 -41.0 Q-28.95 -40.6 -28.7 -42.3 L-29.05 -43.9 Q-27.95 -42.6 -26.9 -42.45 L-25.65 -42.55 M-35.2 -38.35 Q-35.35 -40.05 -36.7 -41.85 -38.35 -43.9 -40.65 -44.3 L-39.15 -43.05 Q-37.25 -41.1 -36.25 -39.6 L-35.3 -38.2 -35.2 -38.35 M26.25 0.0 L25.9 -0.95 24.7 0.45 25.75 2.55 26.25 0.0" fill="#989898" fill-rule="evenodd" stroke="none"/>
    <path d="M-32.6 -22.2 L-34.4 -22.2 -34.8 -24.0 -35.2 -26.6 Q-35.2 -31.4 -32.6 -34.25 -30.3 -36.8 -27.15 -36.8 -16.25 -36.8 -9.35 -29.9 -2.6 -23.2 -2.6 -12.95 -2.6 -10.85 -3.1 -8.15 -3.5 -5.85 -3.8 -5.25 L-4.25 -4.75 -4.15 -13.5 Q-4.15 -21.75 -10.35 -28.2 -16.35 -34.45 -23.7 -34.45 -28.95 -34.45 -30.95 -32.15 -32.75 -30.15 -32.75 -25.25 L-32.6 -22.2 M-39.1 -25.45 Q-39.65 -25.2 -40.4 -25.1 -41.65 -29.55 -44.35 -32.1 -47.1 -34.6 -50.6 -34.6 -54.9 -34.6 -57.7 -31.85 -61.05 -28.55 -60.25 -22.25 -59.35 -14.75 -59.2 -11.65 -59.05 -8.6 -61.4 -2.25 -60.95 -3.65 -60.85 -8.15 -60.75 -12.85 -61.7 -23.5 -61.7 -30.65 -57.2 -34.1 -53.95 -36.65 -49.8 -36.65 -45.75 -36.65 -43.0 -33.3 -40.85 -30.7 -39.1 -25.45 M14.45 -12.6 Q14.6 -8.0 14.3 -5.9 12.75 -7.4 12.4 -12.4 12.0 -17.9 10.9 -19.75 7.8 -24.9 6.6 -26.25 3.15 -30.2 -3.0 -33.2 0.9 -28.75 2.3 -26.0 5.35 -20.05 5.35 -11.9 5.35 -9.65 3.85 -4.4 L3.2 -3.05 Q3.35 -19.1 -4.85 -28.95 -11.3 -36.7 -20.95 -38.95 L-20.85 -39.2 -20.1 -39.25 Q-7.8 -36.8 -5.8 -36.1 -6.15 -37.05 -9.8 -39.4 -13.05 -41.5 -14.5 -42.05 L-16.05 -42.6 Q-13.65 -42.6 -9.9 -41.3 -3.7 -39.15 3.6 -34.05 L4.8 -33.25 Q4.65 -34.2 2.1 -36.95 L-1.2 -40.15 -2.45 -40.85 Q3.0 -39.75 8.35 -31.3 14.2 -22.15 14.0 -12.6 L14.45 -12.6 M24.85 -9.05 Q23.1 -10.8 22.35 -14.65 21.15 -20.45 16.95 -28.7 14.6 -33.35 9.8 -37.2 3.8 -42.05 -5.65 -45.25 -1.95 -46.45 3.95 -43.45 9.65 -40.5 14.95 -34.9 20.55 -28.95 23.25 -22.5 26.35 -15.2 24.85 -9.05 M-29.1 -46.55 L-28.05 -45.55 -27.05 -44.4 Q-27.1 -43.8 -27.4 -43.45 L-28.35 -45.05 -29.1 -46.55 M-29.8 -42.8 L-30.05 -43.0 -31.1 -44.4 Q-29.85 -43.55 -29.8 -42.8 M-30.95 -41.8 L-32.1 -43.05 Q-33.2 -44.3 -33.8 -45.5 -32.6 -45.7 -32.0 -44.7 L-30.95 -41.8" fill="#ffffff" fill-rule="evenodd" stroke="none"/>
  </g>
</svg>
