<?xml version="1.0" encoding="UTF-8" standalone="no"?>
<svg xmlns:ffdec="https://www.free-decompiler.com/flash" xmlns:xlink="http://www.w3.org/1999/xlink" ffdec:objectType="shape" height="25.5px" width="49.0px" xmlns="http://www.w3.org/2000/svg">
  <g transform="matrix(1.0, 0.0, 0.0, 1.0, 35.85, -24.0)">
    <path d="M-32.35 44.55 L-29.8 45.0 7.1 45.0 8.1 44.95 8.1 47.0 -32.35 47.0 -32.35 44.55" fill="#9e4912" fill-rule="evenodd" stroke="none"/>
    <path d="M12.15 40.25 L12.15 43.5 Q12.15 45.75 11.15 47.0 10.1 48.2 8.1 48.45 L7.1 48.5 -29.8 48.5 -32.35 48.05 Q-33.25 47.7 -33.8 47.0 -34.85 45.75 -34.85 43.5 L-34.85 40.25 Q-34.75 43.55 -32.35 44.55 L-32.35 47.0 8.1 47.0 8.1 44.95 Q12.05 44.5 12.15 40.25" fill="#77370e" fill-rule="evenodd" stroke="none"/>
    <path d="M12.15 36.5 L12.15 38.0 -5.6 38.0 -2.95 36.5 12.15 36.5 M-34.85 38.0 L-34.85 36.5 -22.25 36.5 -22.25 38.0 -34.85 38.0 M-34.85 34.5 L-34.85 30.0 -34.8 29.5 Q-34.6 25.0 -29.8 25.0 L7.1 25.0 Q11.9 25.0 12.15 29.5 L12.15 30.0 12.15 34.5 -1.4 34.5 -11.25 28.8 -11.25 34.5 -12.3 34.5 -22.25 28.8 -22.25 34.5 -34.85 34.5 M-16.25 38.0 L-13.45 36.5 -11.25 36.5 -11.25 38.0 -16.25 38.0" fill="#e9a101" fill-rule="evenodd" stroke="none"/>
    <path d="M12.15 34.5 L12.15 36.5 -2.95 36.5 -0.45 35.05 -1.4 34.5 12.15 34.5 M12.15 38.0 L12.15 40.25 Q12.05 44.5 8.1 44.95 L7.1 45.0 -29.8 45.0 -32.35 44.55 Q-34.75 43.55 -34.85 40.25 L-34.85 38.0 -22.25 38.0 -22.25 41.25 -16.25 38.0 -11.25 38.0 -11.25 41.25 -5.6 38.0 12.15 38.0 M-34.85 36.5 L-34.85 34.5 -22.25 34.5 -22.25 36.5 -34.85 36.5 M-13.45 36.5 L-11.25 35.3 -11.25 36.5 -13.45 36.5 M-11.25 34.5 L-11.25 35.1 -12.3 34.5 -11.25 34.5" fill="#eeaa11" fill-rule="evenodd" stroke="none"/>
    <path d="M-1.4 34.5 L-0.45 35.05 -2.95 36.5 -5.6 38.0 -11.25 41.25 -11.25 38.0 -11.25 36.5 -11.25 35.3 -13.45 36.5 -16.25 38.0 -22.25 41.25 -22.25 38.0 -22.25 36.5 -22.25 34.5 -22.25 28.8 -12.3 34.5 -11.25 35.1 -11.25 34.5 -11.25 28.8 -1.4 34.5" fill="#fffa40" fill-rule="evenodd" stroke="none"/>
    <path d="M12.15 36.5 L12.15 34.5 12.15 30.0 12.15 29.5 Q11.9 25.0 7.1 25.0 L-29.8 25.0 Q-34.6 25.0 -34.8 29.5 L-34.85 30.0 -34.85 34.5 -34.85 36.5 -34.85 38.0 -34.85 40.25 -34.85 43.5 Q-34.85 45.75 -33.8 47.0 -33.25 47.7 -32.35 48.05 L-29.8 48.5 7.1 48.5 8.1 48.45 Q10.1 48.2 11.15 47.0 12.15 45.75 12.15 43.5 L12.15 40.25 12.15 38.0 12.15 36.5 M13.15 29.45 L13.15 29.5 13.15 30.0 13.15 43.5 Q13.15 46.15 11.95 47.65 L11.9 47.65 Q10.65 49.15 8.25 49.45 L8.2 49.45 7.1 49.5 -29.8 49.5 -32.75 49.0 -32.7 49.0 Q-33.85 48.55 -34.55 47.65 -35.85 46.15 -35.85 43.5 L-35.85 30.0 -35.8 29.45 Q-35.55 24.0 -29.8 24.0 L7.1 24.0 Q12.9 24.0 13.15 29.45" fill="#000000" fill-rule="evenodd" stroke="none"/>
  </g>
</svg>
