<?xml version="1.0" encoding="UTF-8" standalone="no"?>
<svg xmlns:ffdec="https://www.free-decompiler.com/flash" xmlns:xlink="http://www.w3.org/1999/xlink" ffdec:objectType="shape" height="16.05px" width="25.15px" xmlns="http://www.w3.org/2000/svg">
  <g transform="matrix(1.0, 0.0, 0.0, 1.0, 9.55, 15.6)">
    <path d="M11.0 -11.05 Q15.6 -6.45 15.6 -0.05 L15.5 0.3 15.2 0.45 14.9 0.4 14.65 0.15 Q13.95 -1.5 10.9 -4.25 7.85 -7.05 1.75 -5.3 -5.05 -3.5 -7.8 -6.35 -10.65 -9.3 -8.8 -12.8 L-8.6 -13.0 Q-4.8 -15.6 0.05 -15.6 6.5 -15.6 11.0 -11.05 M0.05 -14.6 Q-4.45 -14.6 -7.95 -12.25 -9.4 -9.45 -7.1 -7.05 -4.65 -4.6 1.5 -6.25 8.25 -8.15 11.6 -5.0 L14.5 -2.0 Q13.9 -6.75 10.3 -10.35 6.1 -14.6 0.05 -14.6" fill="#832c3a" fill-rule="evenodd" stroke="none"/>
  </g>
</svg>
