<?xml version="1.0" encoding="UTF-8" standalone="no"?>
<svg xmlns:ffdec="https://www.free-decompiler.com/flash" xmlns:xlink="http://www.w3.org/1999/xlink" ffdec:objectType="shape" height="15.95px" width="25.1px" xmlns="http://www.w3.org/2000/svg">
  <g transform="matrix(1.0, 0.0, 0.0, 1.0, 15.55, 0.4)">
    <path d="M-14.35 2.2 L-14.35 2.25 Q-13.7 6.8 -10.3 10.25 -6.0 14.55 0.05 14.55 4.5 14.55 8.0 12.25 9.4 9.35 7.1 6.95 4.65 4.5 -1.45 6.2 -8.25 8.05 -11.6 4.95 L-14.35 2.05 -14.35 2.2 M-15.55 0.1 L-15.45 -0.2 -15.15 -0.4 -14.8 -0.35 -14.6 -0.1 Q-13.85 1.5 -10.9 4.2 -7.85 6.95 -1.7 5.25 5.05 3.4 7.8 6.25 10.65 9.2 8.85 12.8 L8.7 13.0 Q4.9 15.55 0.05 15.55 -6.4 15.55 -11.0 10.95 -14.65 7.3 -15.35 2.4 L-15.55 0.1" fill="#832c3a" fill-rule="evenodd" stroke="none"/>
  </g>
</svg>
