<?xml version="1.0" encoding="UTF-8" standalone="no"?>
<svg xmlns:ffdec="https://www.free-decompiler.com/flash" xmlns:xlink="http://www.w3.org/1999/xlink" ffdec:objectType="shape" height="118.25px" width="343.45px" xmlns="http://www.w3.org/2000/svg">
  <g transform="matrix(1.0, 0.0, 0.0, 1.0, 171.7, 118.25)">
    <path d="M-13.5 -1.4 L0.65 -1.65 5.65 -1.7 52.75 -2.5 60.85 -10.3 63.7 -13.1 83.35 -32.15 87.4 -36.05 106.5 -54.55 53.1 -1.0 -13.5 -1.4" fill="#4e4e4e" fill-rule="evenodd" stroke="none"/>
    <path d="M134.4 -105.55 L168.8 -117.25 169.35 -117.25 156.6 -104.7 155.25 -103.3 Q153.95 -104.05 151.15 -103.9 L145.8 -104.1 145.3 -103.8 144.75 -103.65 Q144.1 -103.4 143.9 -102.3 143.65 -101.55 143.9 -100.7 144.4 -99.4 146.15 -98.85 L149.5 -98.45 150.25 -98.4 145.8 -94.0 106.5 -54.55 87.4 -36.05 85.75 -37.8 Q83.05 -40.05 79.45 -39.65 77.6 -39.35 76.95 -38.25 76.5 -37.35 77.0 -36.3 77.55 -35.25 78.55 -34.95 L80.5 -34.6 82.0 -33.55 83.3 -32.2 83.35 -32.15 63.7 -13.1 63.8 -14.6 Q63.9 -18.8 63.65 -23.0 63.55 -24.95 63.1 -25.85 L62.15 -26.95 Q61.5 -27.35 60.8 -27.3 60.05 -27.25 59.4 -26.8 58.75 -26.3 58.45 -25.6 58.1 -24.85 58.1 -23.5 L58.0 -13.85 Q58.0 -12.8 58.15 -12.3 58.4 -11.5 59.05 -10.95 59.75 -10.4 60.55 -10.35 L60.85 -10.3 52.75 -2.5 5.65 -1.7 6.35 -1.75 5.85 -3.0 Q5.2 -4.8 5.7 -6.5 L6.15 -7.65 Q6.4 -8.35 6.25 -8.9 6.0 -10.15 3.8 -10.7 3.9 -10.45 3.35 -10.45 1.75 -10.35 0.85 -8.75 0.15 -7.55 0.15 -5.65 0.1 -3.65 0.65 -1.65 L-13.5 -1.4 -143.6 -1.15 -168.75 -1.0 -135.0 -12.75 -133.9 -12.15 -132.75 -12.2 Q-132.15 -12.45 -131.8 -12.9 -131.4 -13.45 -131.4 -14.0 L-90.3 -28.35 -89.65 -27.3 -89.25 -27.0 -88.9 -26.95 -87.4 -26.95 -86.95 -27.0 -86.45 -27.45 Q-85.85 -28.05 -85.75 -28.5 L-85.7 -29.55 -85.7 -29.95 -73.85 -34.05 -73.4 -33.3 -73.1 -32.55 -72.75 -31.8 Q-72.4 -31.35 -71.5 -31.25 -70.1 -31.05 -69.5 -31.6 -68.9 -32.2 -68.9 -33.75 L-69.1 -35.25 -69.3 -35.65 -58.45 -39.4 -57.3 -37.85 -57.2 -37.7 Q-56.0 -36.6 -53.95 -35.7 L-53.3 -35.1 -52.05 -34.95 -51.95 -34.95 Q-45.25 -32.8 -31.95 -32.5 L-32.05 -31.95 Q-31.85 -30.8 -29.7 -30.35 L-27.55 -30.25 -26.45 -30.6 -24.9 -30.75 -17.95 -30.75 Q-17.2 -31.7 -16.9 -32.5 L30.65 -32.5 37.75 -37.5 -23.8 -37.5 Q-41.1 -37.5 -47.45 -41.05 L-47.65 -41.2 -48.55 -41.8 -48.55 -42.45 -48.55 -42.9 -41.85 -45.2 -42.15 -44.95 -36.3 -44.95 -8.9 -44.95 -7.95 -44.05 -7.1 -43.15 -10.35 -39.9 -1.45 -39.9 3.6 -44.95 32.75 -44.95 Q32.7 -44.0 32.9 -43.45 33.15 -42.65 34.7 -41.35 L36.9 -39.15 Q38.35 -37.95 39.75 -38.3 L40.55 -38.65 Q41.1 -38.75 41.4 -39.3 L41.7 -40.4 40.95 -42.45 Q40.55 -41.9 39.8 -42.35 L38.95 -43.3 37.55 -44.7 37.35 -44.95 41.45 -44.95 45.65 -49.15 7.8 -49.15 8.15 -49.5 9.7 -49.6 10.75 -50.5 13.3 -51.9 15.2 -52.9 41.0 -52.9 50.9 -62.75 53.1 -62.45 Q55.3 -65.8 57.95 -68.4 59.65 -70.1 60.15 -71.0 L60.8 -72.7 61.65 -73.55 61.0 -73.55 Q61.2 -74.7 60.9 -75.25 60.4 -76.15 58.75 -76.45 56.6 -76.75 55.75 -75.7 L55.0 -74.2 54.45 -73.55 46.35 -73.55 40.25 -73.55 52.05 -77.55 56.2 -77.55 58.35 -79.7 68.8 -83.25 65.85 -80.3 63.3 -77.75 73.8 -77.75 81.9 -85.85 84.7 -88.65 128.3 -103.45 128.7 -102.45 Q129.5 -101.4 132.0 -101.5 132.8 -102.05 133.45 -103.6 L134.4 -105.55 M84.1 -74.8 L85.5 -75.25 Q86.0 -75.6 86.45 -76.9 86.95 -78.2 86.6 -78.9 86.1 -79.75 84.85 -79.75 L83.8 -79.7 82.8 -79.75 82.75 -79.45 81.5 -79.25 Q80.85 -78.9 80.55 -78.25 80.15 -77.45 80.3 -76.55 80.6 -75.45 81.85 -75.0 L84.1 -74.8 M35.1 -69.3 L46.9 -69.3 42.95 -65.35 35.4 -65.35 35.6 -65.6 Q36.1 -66.2 36.25 -66.95 36.4 -67.75 36.05 -68.35 L35.1 -69.3 M28.15 -65.35 L24.0 -65.35 24.75 -66.05 27.95 -69.3 29.6 -69.3 29.05 -68.9 Q28.45 -68.4 28.2 -67.3 27.85 -66.1 28.15 -65.35 M10.35 -61.1 L10.85 -61.1 6.9 -57.15 -1.05 -57.15 -7.7 -57.15 3.65 -61.1 10.35 -61.1 M-13.35 -52.9 L2.65 -52.9 -1.1 -49.15 -4.1 -49.15 -4.4 -49.3 -6.45 -50.65 -8.65 -51.7 -11.1 -51.95 Q-12.4 -51.75 -13.2 -50.9 -13.9 -50.15 -13.9 -49.15 L-24.15 -49.15 -30.6 -49.15 -19.85 -52.9 -13.35 -52.9 M77.4 -51.55 L78.3 -49.35 78.65 -47.85 79.0 -46.35 Q79.3 -45.6 79.95 -45.15 80.65 -44.7 81.35 -44.9 82.2 -45.2 82.75 -46.95 L83.3 -49.2 Q83.6 -50.7 83.4 -51.4 L82.7 -53.05 82.45 -54.1 82.15 -55.1 Q81.85 -55.8 81.2 -56.2 L79.8 -56.65 Q79.55 -56.45 79.0 -56.35 L78.1 -56.1 Q77.4 -55.65 77.3 -54.1 77.2 -52.35 77.4 -51.55 M61.8 -52.5 L60.3 -52.15 Q59.95 -51.95 59.15 -51.15 L58.4 -50.05 Q58.25 -49.65 58.35 -48.5 L58.75 -46.0 61.55 -46.1 62.75 -47.05 Q63.45 -47.65 64.0 -47.7 L64.35 -48.35 Q65.45 -49.5 65.3 -50.65 65.15 -51.7 63.95 -52.35 L61.75 -52.75 61.8 -52.5 M20.7 -57.15 Q20.7 -57.75 20.2 -58.25 19.65 -58.75 18.8 -58.9 L17.3 -58.45 17.0 -58.3 19.75 -61.1 38.7 -61.1 34.75 -57.15 20.7 -57.15 M20.0 -19.8 Q20.85 -20.35 21.25 -21.3 21.7 -22.3 21.5 -23.3 L20.75 -25.4 Q20.55 -26.0 20.45 -27.85 20.35 -29.3 19.85 -30.2 19.0 -31.5 17.8 -31.35 L16.6 -31.0 Q15.3 -30.2 15.2 -27.15 15.2 -23.3 16.1 -21.6 16.7 -20.65 17.4 -20.2 18.25 -19.7 20.0 -19.8 M36.8 -17.15 L35.7 -16.75 Q33.5 -15.85 33.0 -14.3 L32.6 -12.75 31.3 -10.75 29.55 -7.9 28.95 -6.45 Q28.7 -4.9 29.85 -3.75 31.2 -2.4 33.05 -2.75 33.7 -3.85 36.0 -6.2 38.0 -8.3 38.6 -9.85 L39.25 -12.15 39.7 -14.15 Q39.75 -15.3 38.85 -16.25 37.95 -17.15 36.8 -17.15 M93.05 -63.2 L94.8 -62.05 98.1 -62.2 Q98.85 -62.65 99.15 -63.55 99.45 -64.4 99.1 -65.2 98.65 -66.05 96.9 -67.0 L88.8 -70.75 Q88.85 -70.4 87.9 -70.4 87.0 -70.35 86.6 -68.9 86.0 -67.35 86.4 -66.35 86.75 -65.45 87.85 -64.95 L89.9 -64.3 Q91.95 -63.85 93.05 -63.2 M113.8 -84.05 Q113.55 -83.45 113.8 -82.7 114.05 -82.05 114.6 -81.6 115.5 -80.95 117.2 -80.75 121.4 -80.35 124.6 -81.8 126.3 -82.55 127.65 -83.85 129.5 -85.6 129.2 -87.3 129.05 -88.1 128.35 -88.65 127.6 -89.15 126.8 -89.1 125.65 -88.95 124.75 -88.35 123.3 -87.15 122.45 -86.7 121.3 -86.05 119.05 -85.85 L115.45 -85.35 Q114.2 -84.9 113.8 -84.05 M-118.3 -9.25 L-120.4 -6.35 -121.65 -3.85 -122.6 -2.25 -123.15 -1.2 -116.25 -1.2 -116.2 -1.25 -115.45 -2.75 -114.85 -4.15 Q-113.55 -6.9 -111.35 -8.95 -110.25 -10.2 -110.1 -10.55 -109.8 -11.45 -110.35 -12.3 -110.9 -13.2 -111.8 -13.45 -113.45 -14.0 -115.35 -12.65 L-116.9 -11.05 -118.3 -9.25 M-97.05 -8.1 Q-95.15 -7.3 -94.05 -7.7 -93.05 -8.1 -92.65 -9.0 -92.15 -10.1 -92.65 -11.25 -93.1 -12.4 -94.6 -13.1 L-97.2 -14.0 -97.2 -13.75 -98.55 -13.45 Q-99.25 -13.1 -99.55 -12.5 L-99.7 -11.25 -99.55 -10.2 Q-99.15 -9.0 -97.05 -8.1 M-35.45 -20.0 L-36.4 -21.0 -37.7 -21.8 -39.15 -23.5 -40.35 -25.4 Q-41.9 -27.4 -44.15 -27.95 -44.05 -27.9 -44.2 -27.8 L-44.45 -27.75 Q-45.55 -27.9 -46.3 -26.8 -46.9 -25.85 -46.8 -24.65 -46.8 -23.45 -46.15 -22.5 -45.3 -21.4 -44.2 -21.55 -44.0 -20.2 -42.05 -18.25 -40.55 -16.9 -39.75 -16.65 -38.95 -16.4 -37.9 -16.65 -36.6 -16.9 -35.8 -17.75 -34.9 -18.9 -35.45 -20.0 M-73.2 -13.2 Q-74.3 -12.9 -74.65 -12.5 -75.05 -11.95 -74.85 -10.65 -74.75 -9.45 -74.15 -9.05 L-72.95 -8.8 -65.95 -9.0 Q-65.9 -9.55 -65.15 -9.75 L-62.55 -10.55 Q-61.9 -10.85 -61.55 -11.45 -61.15 -12.1 -61.35 -12.7 -61.65 -13.4 -62.9 -13.9 L-67.15 -14.5 Q-67.15 -14.1 -67.9 -14.0 L-73.2 -13.2 M-9.45 -18.35 L-8.55 -19.4 -7.8 -20.65 -6.5 -22.2 -5.25 -23.8 Q-3.9 -26.0 -5.05 -27.6 -5.7 -28.4 -7.15 -28.7 -7.05 -28.45 -7.6 -28.45 -8.35 -28.5 -9.35 -27.6 -11.85 -25.1 -13.15 -22.05 -13.8 -20.7 -13.6 -19.7 -13.35 -18.35 -11.9 -17.9 -10.7 -17.45 -9.45 -18.35 M-35.85 -6.9 Q-37.7 -7.25 -38.95 -6.05 L-40.25 -4.35 -42.1 -1.35 -34.8 -1.4 -34.4 -2.05 Q-33.65 -3.0 -33.5 -3.55 -33.15 -4.65 -33.95 -5.65 -34.7 -6.65 -35.85 -6.9" fill="#383838" fill-rule="evenodd" stroke="none"/>
    <path d="M91.15 -103.75 L105.55 -108.55 105.5 -108.4 Q105.25 -107.7 105.25 -106.75 L105.25 -100.85 Q105.25 -99.0 105.85 -98.35 106.65 -97.45 109.0 -97.55 109.9 -98.25 110.3 -99.3 110.65 -100.2 110.55 -102.25 110.4 -104.25 110.8 -105.15 L111.4 -106.45 Q111.7 -107.3 111.45 -108.2 111.25 -109.2 110.5 -109.9 L110.25 -110.1 131.6 -117.25 168.8 -117.25 134.4 -105.55 133.45 -103.6 Q132.8 -102.05 132.0 -101.5 129.5 -101.4 128.7 -102.45 L128.3 -103.45 84.7 -88.65 86.3 -90.25 76.05 -90.25 76.55 -90.6 77.7 -91.0 78.25 -91.7 Q78.45 -92.15 78.3 -92.55 78.0 -93.3 76.8 -93.8 L75.3 -94.4 73.6 -95.65 Q72.6 -96.4 71.8 -96.45 71.75 -96.3 71.3 -96.2 70.5 -96.1 70.0 -95.45 69.45 -94.75 69.55 -94.0 L69.85 -93.1 70.3 -92.25 70.95 -90.8 71.5 -90.25 56.75 -90.25 Q56.6 -90.95 55.7 -91.85 L88.0 -102.65 90.0 -102.55 91.1 -103.65 91.15 -103.7 91.15 -103.75 M-145.65 -24.6 L-108.35 -37.1 -107.45 -36.85 -102.2 -35.9 -96.95 -35.75 -95.85 -36.65 -94.95 -37.65 Q-94.55 -38.8 -95.55 -39.7 -96.3 -40.35 -97.65 -40.6 L-97.75 -40.6 -47.5 -57.4 -49.05 -55.85 -61.6 -43.35 Q-65.55 -41.95 -71.65 -40.6 -72.4 -41.35 -73.15 -41.45 -73.15 -41.2 -73.95 -41.1 -74.75 -41.0 -75.1 -40.1 L-75.15 -39.9 -84.0 -38.35 -83.0 -32.5 -74.15 -34.8 -74.1 -34.35 -73.9 -34.1 -69.35 -35.65 -69.65 -36.1 Q-64.45 -37.7 -58.55 -39.65 L-58.45 -39.4 -69.3 -35.65 -69.1 -35.25 -68.9 -33.75 Q-68.9 -32.2 -69.5 -31.6 -70.1 -31.05 -71.5 -31.25 -72.4 -31.35 -72.75 -31.8 L-73.1 -32.55 -73.4 -33.3 -73.85 -34.05 -85.7 -29.95 -85.7 -29.55 -85.75 -28.5 Q-85.85 -28.05 -86.45 -27.45 L-86.95 -27.0 -87.4 -26.95 -88.9 -26.95 -89.25 -27.0 -89.65 -27.3 -90.3 -28.35 -131.4 -14.0 Q-131.4 -13.45 -131.8 -12.9 -132.15 -12.45 -132.75 -12.2 L-133.9 -12.15 -135.0 -12.75 -168.75 -1.0 -169.25 -1.0 -159.2 -11.05 -158.9 -11.0 -153.95 -10.0 Q-151.15 -9.7 -149.05 -10.45 -147.75 -10.85 -147.5 -11.65 -147.25 -12.3 -147.7 -13.0 -148.1 -13.65 -148.8 -13.95 L-151.7 -14.35 Q-152.85 -14.45 -155.05 -15.25 L-145.65 -24.6 M-31.7 -62.65 L-8.9 -70.3 -10.15 -69.05 -26.35 -52.9 -19.85 -52.9 -30.6 -49.15 -37.95 -49.15 -41.85 -45.2 -48.55 -42.9 -48.55 -42.45 -48.55 -41.8 -49.5 -42.55 -48.55 -42.9 -48.55 -45.4 -48.4 -46.0 -33.15 -61.25 -31.7 -62.65 M0.8 -73.55 L12.8 -77.55 14.8 -77.55 27.3 -77.55 23.3 -73.55 3.0 -73.55 0.8 -73.55 M25.5 -81.8 L34.65 -84.85 33.75 -83.95 33.35 -83.55 32.8 -83.75 Q32.8 -83.45 32.25 -83.45 31.05 -83.45 30.5 -82.2 L30.35 -81.8 27.35 -81.8 25.5 -81.8 M134.4 -105.55 L134.65 -106.0 135.85 -107.35 Q136.6 -108.15 136.7 -108.85 L136.8 -110.5 137.45 -112.35 Q137.8 -113.6 136.95 -114.7 136.1 -115.85 134.8 -115.85 134.8 -115.65 134.35 -115.65 133.3 -115.8 132.25 -114.15 131.35 -112.9 131.15 -112.05 L130.85 -110.35 130.3 -109.4 129.55 -108.6 Q128.6 -107.3 128.3 -105.0 L128.3 -103.45 134.4 -105.55 M68.8 -83.25 L58.35 -79.7 60.45 -81.8 40.45 -81.8 44.65 -86.0 71.55 -86.0 68.8 -83.25 M52.05 -77.55 L40.25 -73.55 32.2 -73.55 33.45 -74.75 34.55 -74.35 Q36.65 -73.85 38.25 -75.2 38.95 -75.8 39.25 -76.7 L39.35 -77.55 52.05 -77.55 M54.45 -73.55 L55.0 -74.2 55.75 -75.7 Q56.6 -76.75 58.75 -76.45 60.4 -76.15 60.9 -75.25 61.2 -74.7 61.0 -73.55 L54.45 -73.55 M60.8 -72.7 L60.15 -71.0 Q59.65 -70.1 57.95 -68.4 55.3 -65.8 53.1 -62.45 L50.9 -62.75 60.8 -72.7 M15.2 -52.9 L13.3 -51.9 10.75 -50.5 9.7 -49.6 8.15 -49.5 11.55 -52.9 15.2 -52.9 M37.35 -44.95 L37.55 -44.7 38.95 -43.3 39.8 -42.35 Q40.55 -41.9 40.95 -42.45 L41.7 -40.4 41.4 -39.3 Q41.1 -38.75 40.55 -38.65 L39.75 -38.3 Q38.35 -37.95 36.9 -39.15 L34.7 -41.35 Q33.15 -42.65 32.9 -43.45 32.7 -44.0 32.75 -44.95 L37.35 -44.95 M-7.1 -43.15 L-7.95 -44.05 -8.9 -44.95 -5.3 -44.95 -7.1 -43.15 M-16.9 -32.5 Q-17.2 -31.7 -17.95 -30.75 L-24.9 -30.75 -26.45 -30.6 -27.55 -30.25 -29.7 -30.35 Q-31.85 -30.8 -32.05 -31.95 L-31.95 -32.5 -28.25 -32.5 -16.9 -32.5 M-51.95 -34.95 L-52.05 -34.95 -53.3 -35.1 -53.95 -35.7 -51.95 -34.95 M0.65 -1.65 Q0.1 -3.65 0.15 -5.65 0.15 -7.55 0.85 -8.75 1.75 -10.35 3.35 -10.45 3.9 -10.45 3.8 -10.7 6.0 -10.15 6.25 -8.9 6.4 -8.35 6.15 -7.65 L5.7 -6.5 Q5.2 -4.8 5.85 -3.0 L6.35 -1.75 5.65 -1.7 0.65 -1.65 M60.85 -10.3 L60.55 -10.35 Q59.75 -10.4 59.05 -10.95 58.4 -11.5 58.15 -12.3 58.0 -12.8 58.0 -13.85 L58.1 -23.5 Q58.1 -24.85 58.45 -25.6 58.75 -26.3 59.4 -26.8 60.05 -27.25 60.8 -27.3 61.5 -27.35 62.15 -26.95 L63.1 -25.85 Q63.55 -24.95 63.65 -23.0 63.9 -18.8 63.8 -14.6 L63.7 -13.1 60.85 -10.3 M83.35 -32.15 L83.3 -32.2 82.0 -33.55 80.5 -34.6 78.55 -34.95 Q77.55 -35.25 77.0 -36.3 76.5 -37.35 76.95 -38.25 77.6 -39.35 79.45 -39.65 83.05 -40.05 85.75 -37.8 L87.4 -36.05 83.35 -32.15 M150.25 -98.4 L149.5 -98.45 146.15 -98.85 Q144.4 -99.4 143.9 -100.7 143.65 -101.55 143.9 -102.3 144.1 -103.4 144.75 -103.65 L145.3 -103.8 145.8 -104.1 151.15 -103.9 Q153.95 -104.05 155.25 -103.3 L150.25 -98.4 M84.1 -74.8 L81.85 -75.0 Q80.6 -75.45 80.3 -76.55 80.15 -77.45 80.55 -78.25 80.85 -78.9 81.5 -79.25 L82.75 -79.45 82.8 -79.75 83.8 -79.7 84.85 -79.75 Q86.1 -79.75 86.6 -78.9 86.95 -78.2 86.45 -76.9 86.0 -75.6 85.5 -75.25 L84.1 -74.8 M35.1 -69.3 L36.05 -68.35 Q36.4 -67.75 36.25 -66.95 36.1 -66.2 35.6 -65.6 L35.4 -65.35 28.15 -65.35 Q27.85 -66.1 28.2 -67.3 28.45 -68.4 29.05 -68.9 L29.6 -69.3 34.05 -69.3 35.1 -69.3 M-4.1 -49.15 L-13.9 -49.15 Q-13.9 -50.15 -13.2 -50.9 -12.4 -51.75 -11.1 -51.95 L-8.65 -51.7 -6.45 -50.65 -4.4 -49.3 -4.1 -49.15 M61.8 -52.5 L61.75 -52.75 63.95 -52.35 Q65.15 -51.7 65.3 -50.65 65.45 -49.5 64.35 -48.35 L64.0 -47.7 Q63.45 -47.65 62.75 -47.05 L61.55 -46.1 58.75 -46.0 58.35 -48.5 Q58.25 -49.65 58.4 -50.05 L59.15 -51.15 Q59.95 -51.95 60.3 -52.15 L61.8 -52.5 M77.4 -51.55 Q77.2 -52.35 77.3 -54.1 77.4 -55.65 78.1 -56.1 L79.0 -56.35 Q79.55 -56.45 79.8 -56.65 L81.2 -56.2 Q81.85 -55.8 82.15 -55.1 L82.45 -54.1 82.7 -53.05 83.4 -51.4 Q83.6 -50.7 83.3 -49.2 L82.75 -46.95 Q82.2 -45.2 81.35 -44.9 80.65 -44.7 79.95 -45.15 79.3 -45.6 79.0 -46.35 L78.65 -47.85 78.3 -49.35 77.4 -51.55 M4.0 -69.3 L19.05 -69.3 15.1 -65.35 6.65 -65.35 Q7.05 -65.9 6.95 -66.45 6.9 -67.25 5.7 -68.05 L4.0 -69.3 M0.5 -65.35 L-3.35 -65.35 -1.75 -66.9 -1.4 -66.7 0.15 -65.55 0.5 -65.35 M17.0 -58.3 L17.3 -58.45 18.8 -58.9 Q19.65 -58.75 20.2 -58.25 20.7 -57.75 20.7 -57.15 L15.8 -57.15 17.0 -58.3 M3.65 -61.1 L-7.7 -57.15 -11.55 -57.15 -7.6 -61.1 3.65 -61.1 M20.0 -19.8 Q18.25 -19.7 17.4 -20.2 16.7 -20.65 16.1 -21.6 15.2 -23.3 15.2 -27.15 15.3 -30.2 16.6 -31.0 L17.8 -31.35 Q19.0 -31.5 19.85 -30.2 20.35 -29.3 20.45 -27.85 20.55 -26.0 20.75 -25.4 L21.5 -23.3 Q21.7 -22.3 21.25 -21.3 20.85 -20.35 20.0 -19.8 M36.8 -17.15 Q37.95 -17.15 38.85 -16.25 39.75 -15.3 39.7 -14.15 L39.25 -12.15 38.6 -9.85 Q38.0 -8.3 36.0 -6.2 33.7 -3.85 33.05 -2.75 31.2 -2.4 29.85 -3.75 28.7 -4.9 28.95 -6.45 L29.55 -7.9 31.3 -10.75 32.6 -12.75 33.0 -14.3 Q33.5 -15.85 35.7 -16.75 L36.8 -17.15 M113.8 -84.05 Q114.2 -84.9 115.45 -85.35 L119.05 -85.85 Q121.3 -86.05 122.45 -86.7 123.3 -87.15 124.75 -88.35 125.65 -88.95 126.8 -89.1 127.6 -89.15 128.35 -88.65 129.05 -88.1 129.2 -87.3 129.5 -85.6 127.65 -83.85 126.3 -82.55 124.6 -81.8 121.4 -80.35 117.2 -80.75 115.5 -80.95 114.6 -81.6 114.05 -82.05 113.8 -82.7 113.55 -83.45 113.8 -84.05 M93.05 -63.2 Q91.95 -63.85 89.9 -64.3 L87.85 -64.95 Q86.75 -65.45 86.4 -66.35 86.0 -67.35 86.6 -68.9 87.0 -70.35 87.9 -70.4 88.85 -70.4 88.8 -70.75 L96.9 -67.0 Q98.65 -66.05 99.1 -65.2 99.45 -64.4 99.15 -63.55 98.85 -62.65 98.1 -62.2 L94.8 -62.05 93.05 -63.2 M-135.0 -12.8 L-131.4 -14.05 Q-131.4 -14.6 -131.7 -15.15 L-132.5 -16.05 -133.1 -17.05 -133.2 -18.25 -133.8 -19.4 -135.8 -22.05 -136.75 -22.9 Q-137.45 -23.15 -138.7 -22.45 L-138.1 -18.55 -137.55 -17.2 -137.0 -16.35 -136.95 -15.3 Q-136.9 -14.45 -135.5 -13.15 L-135.0 -12.8 M-118.3 -9.25 L-116.9 -11.05 -115.35 -12.65 Q-113.45 -14.0 -111.8 -13.45 -110.9 -13.2 -110.35 -12.3 -109.8 -11.45 -110.1 -10.55 -110.25 -10.2 -111.35 -8.95 -113.55 -6.9 -114.85 -4.15 L-115.45 -2.75 -116.2 -1.25 -116.25 -1.2 -123.15 -1.2 -122.6 -2.25 -121.65 -3.85 -120.4 -6.35 -118.3 -9.25 M-90.3 -28.35 L-85.7 -29.95 -85.8 -31.2 Q-86.05 -31.8 -86.8 -32.25 L-88.2 -32.7 -88.2 -32.45 Q-89.2 -32.45 -89.65 -32.1 L-90.0 -31.75 Q-90.5 -31.05 -90.5 -29.8 L-90.3 -28.35 M-111.55 -29.5 Q-112.45 -29.65 -113.3 -28.45 -114.9 -26.05 -114.25 -23.3 -113.95 -21.95 -113.1 -21.65 L-111.95 -21.55 Q-110.5 -21.75 -110.15 -22.55 -109.95 -23.0 -109.85 -23.9 L-109.05 -24.85 -107.7 -25.9 Q-107.0 -26.5 -107.0 -27.35 -107.05 -28.4 -108.45 -29.1 -109.7 -29.75 -111.2 -29.75 -110.95 -29.65 -111.25 -29.5 L-111.55 -29.5 M-97.05 -8.1 Q-99.15 -9.0 -99.55 -10.2 L-99.7 -11.25 -99.55 -12.5 Q-99.25 -13.1 -98.55 -13.45 L-97.2 -13.75 -97.2 -14.0 -94.6 -13.1 Q-93.1 -12.4 -92.65 -11.25 -92.15 -10.1 -92.65 -9.0 -93.05 -8.1 -94.05 -7.7 -95.15 -7.3 -97.05 -8.1 M-35.45 -20.0 Q-34.9 -18.9 -35.8 -17.75 -36.6 -16.9 -37.9 -16.65 -38.95 -16.4 -39.75 -16.65 -40.55 -16.9 -42.05 -18.25 -44.0 -20.2 -44.2 -21.55 -45.3 -21.4 -46.15 -22.5 -46.8 -23.45 -46.8 -24.65 -46.9 -25.85 -46.3 -26.8 -45.55 -27.9 -44.45 -27.75 L-44.2 -27.8 Q-44.05 -27.9 -44.15 -27.95 -41.9 -27.4 -40.35 -25.4 L-39.15 -23.5 -37.7 -21.8 -36.4 -21.0 -35.45 -20.0 M-73.2 -13.2 L-67.9 -14.0 Q-67.15 -14.1 -67.15 -14.5 L-62.9 -13.9 Q-61.65 -13.4 -61.35 -12.7 -61.15 -12.1 -61.55 -11.45 -61.9 -10.85 -62.55 -10.55 L-65.15 -9.75 Q-65.9 -9.55 -65.95 -9.0 L-72.95 -8.8 -74.15 -9.05 Q-74.75 -9.45 -74.85 -10.65 -75.05 -11.95 -74.65 -12.5 -74.3 -12.9 -73.2 -13.2 M-9.45 -18.35 Q-10.7 -17.45 -11.9 -17.9 -13.35 -18.35 -13.6 -19.7 -13.8 -20.7 -13.15 -22.05 -11.85 -25.1 -9.35 -27.6 -8.35 -28.5 -7.6 -28.45 -7.05 -28.45 -7.15 -28.7 -5.7 -28.4 -5.05 -27.6 -3.9 -26.0 -5.25 -23.8 L-6.5 -22.2 -7.8 -20.65 -8.55 -19.4 -9.45 -18.35 M-35.85 -6.9 Q-34.7 -6.65 -33.95 -5.65 -33.15 -4.65 -33.5 -3.55 -33.65 -3.0 -34.4 -2.05 L-34.8 -1.4 -42.1 -1.35 -40.25 -4.35 -38.95 -6.05 Q-37.7 -7.25 -35.85 -6.9" fill="#323232" fill-rule="evenodd" stroke="none"/>
    <path d="M91.15 -103.75 Q91.5 -104.45 91.5 -105.2 91.45 -106.2 90.65 -108.1 90.45 -108.9 90.55 -111.55 90.75 -113.8 90.3 -114.95 L89.35 -116.4 Q88.65 -117.0 87.8 -117.05 86.55 -117.05 85.8 -115.95 85.25 -115.15 85.25 -113.1 L85.25 -108.55 Q85.25 -105.75 86.0 -104.4 86.6 -103.35 87.7 -102.8 L88.0 -102.65 55.7 -91.85 Q54.55 -93.1 53.55 -93.5 L52.05 -94.15 51.55 -94.85 51.05 -95.55 Q50.5 -96.3 48.8 -96.7 48.85 -96.45 48.3 -96.45 47.25 -96.6 46.6 -95.5 46.1 -94.6 46.35 -93.5 46.7 -91.45 48.4 -90.25 L18.5 -90.25 17.5 -91.2 Q16.55 -92.05 15.8 -92.35 L11.8 -92.55 Q9.7 -92.35 8.65 -91.7 7.85 -91.25 7.7 -90.6 L7.65 -90.25 1.05 -90.25 -11.45 -77.75 -0.95 -77.75 7.3 -86.0 15.6 -86.0 15.75 -85.85 17.4 -84.3 Q18.5 -83.65 19.7 -83.95 21.0 -84.4 21.25 -85.65 L21.3 -86.0 35.75 -86.0 34.65 -84.85 25.5 -81.8 9.95 -81.8 5.7 -77.55 12.8 -77.55 0.8 -73.55 -5.7 -73.55 -8.9 -70.3 -31.7 -62.65 -29.1 -65.35 -41.1 -65.35 -41.35 -65.6 Q-42.9 -66.85 -44.15 -66.4 -44.25 -66.15 -45.1 -66.05 -45.7 -65.95 -46.1 -65.35 L-56.0 -65.35 -59.1 -62.2 Q-59.45 -62.8 -60.15 -63.1 -60.75 -63.45 -62.15 -63.65 -62.15 -63.4 -62.6 -63.4 -63.85 -63.35 -65.3 -62.0 L-66.45 -60.9 -67.7 -59.95 -68.3 -59.6 Q-68.6 -59.2 -68.4 -58.95 -67.85 -58.95 -67.15 -58.25 L-65.9 -57.3 -64.9 -57.2 Q-63.15 -57.4 -62.1 -58.0 -61.45 -58.3 -60.75 -58.85 L-59.45 -59.95 -59.2 -60.3 -44.65 -60.3 -47.5 -57.4 -97.75 -40.6 -100.3 -40.9 -103.0 -41.25 Q-105.1 -41.6 -107.15 -42.8 -106.95 -42.5 -107.4 -42.4 L-107.9 -42.4 Q-109.15 -42.4 -109.5 -40.35 -109.9 -38.25 -109.0 -37.45 L-108.35 -37.1 -145.65 -24.6 -135.85 -34.4 -135.65 -34.4 -128.85 -34.3 -122.5 -34.85 Q-121.15 -35.35 -120.65 -35.95 -119.8 -36.9 -120.15 -37.95 -120.45 -38.75 -121.7 -39.25 L-125.2 -40.1 -128.85 -40.2 -130.1 -40.2 -100.9 -69.4 -101.0 -67.0 Q-101.0 -65.15 -100.7 -64.25 -100.2 -62.8 -98.85 -61.9 -97.45 -61.05 -95.95 -61.25 L-94.9 -62.35 Q-94.15 -63.0 -93.95 -63.45 -93.75 -64.05 -94.05 -64.9 L-94.75 -66.3 Q-95.25 -67.4 -95.35 -70.15 -95.5 -72.7 -96.2 -73.85 L-96.3 -74.0 -53.05 -117.25 -48.5 -117.25 Q-48.75 -114.9 -48.45 -110.1 L-48.15 -108.25 Q-47.8 -107.3 -46.9 -106.75 -46.05 -106.15 -45.05 -106.2 -44.35 -106.25 -43.75 -106.65 -43.1 -107.05 -42.95 -107.7 -42.85 -108.3 -43.15 -109.15 L-43.65 -110.55 -43.65 -112.1 -43.45 -113.7 Q-43.35 -114.55 -43.55 -116.45 L-43.65 -117.25 131.6 -117.25 110.25 -110.1 Q109.6 -110.6 108.8 -110.55 L107.45 -110.2 Q106.0 -109.6 105.55 -108.55 L91.15 -103.75 M88.0 -102.65 L89.55 -103.2 91.15 -103.7 91.1 -103.65 90.0 -102.55 88.0 -102.65 M110.25 -110.1 L110.5 -109.9 Q111.25 -109.2 111.45 -108.2 111.7 -107.3 111.4 -106.45 L110.8 -105.15 Q110.4 -104.25 110.55 -102.25 110.65 -100.2 110.3 -99.3 109.9 -98.25 109.0 -97.55 106.65 -97.45 105.85 -98.35 105.25 -99.0 105.25 -100.85 L105.25 -106.75 Q105.25 -107.7 105.5 -108.4 L105.55 -108.55 110.25 -110.1 M128.3 -103.45 L128.3 -105.0 Q128.6 -107.3 129.55 -108.6 L130.3 -109.4 130.85 -110.35 131.15 -112.05 Q131.35 -112.9 132.25 -114.15 133.3 -115.8 134.35 -115.65 134.8 -115.65 134.8 -115.85 136.1 -115.85 136.95 -114.7 137.8 -113.6 137.45 -112.35 L136.8 -110.5 136.7 -108.85 Q136.6 -108.15 135.85 -107.35 L134.65 -106.0 134.4 -105.55 128.3 -103.45 M66.1 -104.55 L65.35 -106.0 63.1 -108.7 Q61.85 -110.3 60.8 -110.4 58.75 -109.55 57.3 -108.15 L58.2 -107.3 58.8 -106.1 60.05 -104.6 61.45 -103.25 62.5 -102.3 63.75 -102.05 65.0 -101.95 65.8 -103.2 Q66.2 -103.95 66.1 -104.55 M49.7 -111.6 L47.35 -109.2 Q45.95 -107.8 45.7 -106.85 45.45 -106.1 45.7 -105.4 45.95 -104.65 46.6 -104.35 L47.45 -104.15 48.35 -104.15 49.1 -104.2 50.0 -104.8 52.05 -106.5 Q53.35 -107.1 53.65 -107.35 54.2 -107.85 54.45 -108.75 54.7 -110.3 54.0 -111.35 53.2 -112.55 51.75 -112.65 L51.65 -112.45 51.3 -112.45 Q50.55 -112.55 49.7 -111.6 M29.4 -109.85 L30.75 -109.75 32.4 -109.75 33.7 -109.9 Q34.5 -110.15 34.65 -110.75 34.9 -111.55 33.95 -112.6 31.35 -115.7 28.8 -115.95 L28.35 -115.55 27.65 -115.5 26.55 -114.65 Q26.25 -114.1 26.25 -113.25 26.15 -112.45 26.55 -111.75 26.9 -111.1 27.85 -110.55 28.7 -110.05 29.4 -109.85 M2.25 -100.2 L4.7 -100.05 Q5.75 -100.55 5.65 -102.1 5.5 -103.15 4.75 -104.25 L3.45 -106.3 2.75 -107.7 Q2.1 -108.5 0.15 -108.7 L-0.1 -108.65 -0.15 -108.45 -1.4 -108.25 -2.3 -107.3 Q-2.85 -106.05 -2.0 -104.8 L-0.9 -103.6 0.2 -101.6 Q0.8 -100.85 2.25 -100.2 M71.5 -90.25 L70.95 -90.8 70.3 -92.25 69.85 -93.1 69.55 -94.0 Q69.45 -94.75 70.0 -95.45 70.5 -96.1 71.3 -96.2 71.75 -96.3 71.8 -96.45 72.6 -96.4 73.6 -95.65 L75.3 -94.4 76.8 -93.8 Q78.0 -93.3 78.3 -92.55 78.45 -92.15 78.25 -91.7 L77.7 -91.0 76.55 -90.6 76.05 -90.25 71.5 -90.25 M50.8 -90.25 L55.7 -91.85 Q56.6 -90.95 56.75 -90.25 L52.2 -90.25 50.8 -90.25 M30.35 -81.8 L30.5 -82.2 Q31.05 -83.45 32.25 -83.45 32.8 -83.45 32.8 -83.75 L33.35 -83.55 31.55 -81.8 30.35 -81.8 M39.35 -77.55 L39.25 -76.7 Q38.95 -75.8 38.25 -75.2 36.65 -73.85 34.55 -74.35 L33.45 -74.75 36.2 -77.55 39.35 -77.55 M4.0 -69.3 L5.7 -68.05 Q6.9 -67.25 6.95 -66.45 7.05 -65.9 6.65 -65.35 L0.5 -65.35 0.15 -65.55 -1.4 -66.7 -1.75 -66.9 0.6 -69.3 4.0 -69.3 M-159.2 -11.05 L-155.05 -15.25 Q-152.85 -14.45 -151.7 -14.35 L-148.8 -13.95 Q-148.1 -13.65 -147.7 -13.0 -147.25 -12.3 -147.5 -11.65 -147.75 -10.85 -149.05 -10.45 -151.15 -9.7 -153.95 -10.0 L-158.9 -11.0 -159.2 -11.05 M-73.55 -76.6 L-73.5 -77.45 Q-73.7 -78.2 -74.75 -78.7 -76.7 -79.65 -80.15 -79.45 -80.2 -79.1 -80.9 -79.1 -82.1 -78.95 -82.35 -77.7 -82.55 -76.65 -81.8 -75.7 L-81.3 -75.25 -80.6 -75.15 -77.85 -75.05 -76.35 -74.9 -74.95 -74.6 Q-74.35 -74.65 -73.95 -75.35 L-73.55 -76.6 M-8.9 -114.9 Q-8.85 -115.45 -9.35 -115.9 -9.85 -116.3 -10.4 -116.15 L-11.45 -115.5 -13.15 -114.05 -14.4 -113.25 -15.65 -111.6 Q-16.5 -110.0 -16.5 -109.25 -16.5 -108.2 -15.6 -107.45 -14.75 -106.7 -13.7 -106.75 -12.65 -106.75 -11.8 -107.5 -11.0 -108.25 -10.75 -109.3 L-10.35 -110.85 -9.55 -111.9 Q-9.05 -112.55 -9.0 -113.05 L-9.1 -113.9 -8.9 -114.9 M-60.2 -103.05 L-60.45 -102.2 -60.6 -101.3 Q-60.75 -100.85 -62.05 -99.8 L-63.5 -98.0 -64.25 -95.85 -64.45 -93.25 -64.45 -90.7 -64.3 -88.4 Q-63.95 -87.4 -62.95 -86.95 L-60.95 -86.85 Q-59.35 -88.35 -59.65 -92.25 L-59.75 -95.15 Q-59.65 -96.75 -58.9 -97.8 L-58.05 -98.9 Q-57.6 -99.55 -57.55 -100.15 L-57.65 -101.05 -57.65 -102.0 -57.35 -102.7 Q-57.15 -103.1 -57.25 -103.4 -57.45 -104.1 -58.65 -103.9 -59.85 -103.7 -60.2 -103.05 M-79.8 -57.4 L-79.05 -58.3 -78.55 -59.35 -77.6 -60.85 -76.6 -62.3 -75.3 -64.8 -74.0 -66.1 Q-73.2 -66.9 -72.9 -67.5 -72.65 -68.15 -72.85 -68.65 -73.2 -69.5 -74.2 -69.3 -76.85 -69.55 -78.75 -67.65 L-80.7 -64.7 Q-81.85 -62.55 -82.7 -61.7 L-83.8 -60.6 Q-84.4 -59.95 -84.45 -59.3 -84.5 -58.4 -83.65 -57.75 -82.9 -57.1 -81.85 -57.0 -80.5 -56.9 -79.8 -57.4 M-135.0 -12.8 L-135.5 -13.15 Q-136.9 -14.45 -136.95 -15.3 L-137.0 -16.35 -137.55 -17.2 -138.1 -18.55 -138.7 -22.45 Q-137.45 -23.15 -136.75 -22.9 L-135.8 -22.05 -133.8 -19.4 -133.2 -18.25 -133.1 -17.05 -132.5 -16.05 -131.7 -15.15 Q-131.4 -14.6 -131.4 -14.05 L-135.0 -12.8 M-97.75 -40.6 L-97.65 -40.6 Q-96.3 -40.35 -95.55 -39.7 -94.55 -38.8 -94.95 -37.65 L-95.85 -36.65 -96.95 -35.75 -102.2 -35.9 -107.45 -36.85 -108.35 -37.1 -97.75 -40.6 M-90.3 -28.35 L-90.5 -29.8 Q-90.5 -31.05 -90.0 -31.75 L-89.65 -32.1 Q-89.2 -32.45 -88.2 -32.45 L-88.2 -32.7 -86.8 -32.25 Q-86.05 -31.8 -85.8 -31.2 L-85.7 -29.95 -90.3 -28.35 M-75.15 -39.9 L-75.1 -40.1 Q-74.75 -41.0 -73.95 -41.1 -73.15 -41.2 -73.15 -41.45 -72.4 -41.35 -71.65 -40.6 L-75.15 -39.9 M-111.55 -29.5 L-111.25 -29.5 Q-110.95 -29.65 -111.2 -29.75 -109.7 -29.75 -108.45 -29.1 -107.05 -28.4 -107.0 -27.35 -107.0 -26.5 -107.7 -25.9 L-109.05 -24.85 -109.85 -23.9 Q-109.95 -23.0 -110.15 -22.55 -110.5 -21.75 -111.95 -21.55 L-113.1 -21.65 Q-113.95 -21.95 -114.25 -23.3 -114.9 -26.05 -113.3 -28.45 -112.45 -29.65 -111.55 -29.5 M-22.15 -77.55 L-22.2 -77.15 Q-22.3 -76.65 -22.75 -75.8 L-23.4 -74.5 -23.35 -72.65 Q-23.15 -71.05 -22.6 -70.3 -22.2 -69.8 -21.5 -69.6 L-20.25 -69.55 -19.25 -70.95 -18.7 -72.95 -18.05 -74.4 Q-17.65 -75.25 -17.7 -75.85 L-17.85 -77.2 -17.45 -78.1 Q-17.05 -78.7 -17.0 -79.0 L-14.8 -79.65 Q-14.75 -83.9 -20.55 -88.65 L-32.95 -85.2 Q-29.0 -80.7 -28.85 -75.65 L-22.15 -77.55 M-8.2 -83.85 Q-7.65 -84.3 -5.9 -84.75 -4.25 -85.15 -3.8 -85.95 -3.45 -86.55 -3.5 -87.25 -3.6 -87.95 -4.05 -88.5 -4.75 -89.5 -6.4 -89.75 L-9.15 -89.65 Q-9.25 -89.4 -9.65 -89.35 L-10.35 -89.3 Q-10.9 -89.2 -11.35 -88.0 L-12.15 -85.7 Q-12.45 -84.1 -11.4 -83.45 L-10.05 -83.05 -9.25 -83.05 Q-9.0 -83.15 -8.7 -83.4 L-8.2 -83.85 M-27.5 -96.2 Q-27.95 -96.9 -29.2 -97.2 -29.15 -96.8 -29.85 -96.9 -32.35 -97.45 -35.65 -95.4 L-36.55 -94.55 -36.75 -93.6 Q-36.75 -91.95 -36.05 -91.3 -35.3 -90.6 -33.35 -90.7 L-31.7 -90.95 Q-31.6 -91.0 -30.4 -91.8 L-29.15 -92.6 -28.05 -93.5 Q-26.75 -94.95 -27.5 -96.2 M-48.4 -46.0 L-48.55 -45.4 -48.55 -42.9 -49.5 -42.55 -50.55 -43.9 -48.4 -46.0 M-43.7 -82.9 Q-45.2 -84.4 -46.15 -84.45 -45.95 -84.25 -46.45 -84.25 -47.1 -84.25 -47.6 -83.85 -48.15 -83.45 -48.3 -82.85 L-48.4 -81.9 -48.4 -81.0 Q-48.4 -80.3 -48.7 -79.35 L-49.3 -77.7 Q-49.9 -75.5 -48.8 -74.45 -48.05 -73.75 -45.9 -73.75 -43.9 -76.65 -43.7 -78.5 L-43.45 -79.65 -42.85 -80.4 Q-42.45 -81.0 -42.85 -81.75 L-43.7 -82.9 M-69.65 -36.1 L-69.35 -35.65 -73.9 -34.1 -74.1 -34.35 -74.15 -34.8 -69.65 -36.1" fill="#2b2b2b" fill-rule="evenodd" stroke="none"/>
    <path d="M131.6 -117.25 L-43.65 -117.25 -48.5 -117.25 -53.05 -117.25 -96.3 -74.0 -100.9 -69.4 -130.1 -40.2 -135.85 -34.4 -145.65 -24.6 -155.05 -15.25 -159.2 -11.05 -169.25 -1.0 -168.75 -1.0 -143.6 -1.15 -13.5 -1.4 53.1 -1.0 106.5 -54.55 145.8 -94.0 150.25 -98.4 155.25 -103.3 156.6 -104.7 169.35 -117.25 168.8 -117.25 131.6 -117.25 M171.75 -118.25 L157.3 -104.0 146.5 -93.3 53.5 0.0 -143.6 -0.15 -171.7 0.0 -53.45 -118.25 171.75 -118.25" fill="#151515" fill-rule="evenodd" stroke="none"/>
    <path d="M88.0 -102.65 L87.7 -102.8 Q86.6 -103.35 86.0 -104.4 85.25 -105.75 85.25 -108.55 L85.25 -113.1 Q85.25 -115.15 85.8 -115.95 86.55 -117.05 87.8 -117.05 88.65 -117.0 89.35 -116.4 L90.3 -114.95 Q90.75 -113.8 90.55 -111.55 90.45 -108.9 90.65 -108.1 91.45 -106.2 91.5 -105.2 91.5 -104.45 91.15 -103.75 L91.15 -103.7 89.55 -103.2 88.0 -102.65 M105.55 -108.55 Q106.0 -109.6 107.45 -110.2 L108.8 -110.55 Q109.6 -110.6 110.25 -110.1 L105.55 -108.55 M-43.65 -117.25 L-43.55 -116.45 Q-43.35 -114.55 -43.45 -113.7 L-43.65 -112.1 -43.65 -110.55 -43.15 -109.15 Q-42.85 -108.3 -42.95 -107.7 -43.1 -107.05 -43.75 -106.65 -44.35 -106.25 -45.05 -106.2 -46.05 -106.15 -46.9 -106.75 -47.8 -107.3 -48.15 -108.25 L-48.45 -110.1 Q-48.75 -114.9 -48.5 -117.25 L-43.65 -117.25 M-96.3 -74.0 L-96.2 -73.85 Q-95.5 -72.7 -95.35 -70.15 -95.25 -67.4 -94.75 -66.3 L-94.05 -64.9 Q-93.75 -64.05 -93.95 -63.45 -94.15 -63.0 -94.9 -62.35 L-95.95 -61.25 Q-97.45 -61.05 -98.85 -61.9 -100.2 -62.8 -100.7 -64.25 -101.0 -65.15 -101.0 -67.0 L-100.9 -69.4 -96.3 -74.0 M-130.1 -40.2 L-128.85 -40.2 -125.2 -40.1 -121.7 -39.25 Q-120.45 -38.75 -120.15 -37.95 -119.8 -36.9 -120.65 -35.95 -121.15 -35.35 -122.5 -34.85 L-128.85 -34.3 -135.65 -34.4 -135.85 -34.4 -130.1 -40.2 M-108.35 -37.1 L-109.0 -37.45 Q-109.9 -38.25 -109.5 -40.35 -109.15 -42.4 -107.9 -42.4 L-107.4 -42.4 Q-106.95 -42.5 -107.15 -42.8 -105.1 -41.6 -103.0 -41.25 L-100.3 -40.9 -97.75 -40.6 -108.35 -37.1 M-59.2 -60.3 L-59.45 -59.95 -60.75 -58.85 Q-61.45 -58.3 -62.1 -58.0 -63.15 -57.4 -64.9 -57.2 L-65.9 -57.3 -67.15 -58.25 Q-67.85 -58.95 -68.4 -58.95 -68.6 -59.2 -68.3 -59.6 L-67.7 -59.95 -66.45 -60.9 -65.3 -62.0 Q-63.85 -63.35 -62.6 -63.4 -62.15 -63.4 -62.15 -63.65 -60.75 -63.45 -60.15 -63.1 -59.45 -62.8 -59.1 -62.2 L-61.05 -60.3 -59.2 -60.3 M-46.1 -65.35 Q-45.7 -65.95 -45.1 -66.05 -44.25 -66.15 -44.15 -66.4 -42.9 -66.85 -41.35 -65.6 L-41.1 -65.35 -46.1 -65.35 M21.3 -86.0 L21.25 -85.65 Q21.0 -84.4 19.7 -83.95 18.5 -83.65 17.4 -84.3 L15.75 -85.85 15.6 -86.0 21.3 -86.0 M7.65 -90.25 L7.7 -90.6 Q7.85 -91.25 8.65 -91.7 9.7 -92.35 11.8 -92.55 L15.8 -92.35 Q16.55 -92.05 17.5 -91.2 L18.5 -90.25 7.65 -90.25 M48.4 -90.25 Q46.7 -91.45 46.35 -93.5 46.1 -94.6 46.6 -95.5 47.25 -96.6 48.3 -96.45 48.85 -96.45 48.8 -96.7 50.5 -96.3 51.05 -95.55 L51.55 -94.85 52.05 -94.15 53.55 -93.5 Q54.55 -93.1 55.7 -91.85 L50.8 -90.25 48.4 -90.25 M2.25 -100.2 Q0.8 -100.85 0.2 -101.6 L-0.9 -103.6 -2.0 -104.8 Q-2.85 -106.05 -2.3 -107.3 L-1.4 -108.25 -0.15 -108.45 -0.1 -108.65 0.15 -108.7 Q2.1 -108.5 2.75 -107.7 L3.45 -106.3 4.75 -104.25 Q5.5 -103.15 5.65 -102.1 5.75 -100.55 4.7 -100.05 L2.25 -100.2 M29.4 -109.85 Q28.7 -110.05 27.85 -110.55 26.9 -111.1 26.55 -111.75 26.15 -112.45 26.25 -113.25 26.25 -114.1 26.55 -114.65 L27.65 -115.5 28.35 -115.55 28.8 -115.95 Q31.35 -115.7 33.95 -112.6 34.9 -111.55 34.65 -110.75 34.5 -110.15 33.7 -109.9 L32.4 -109.75 30.75 -109.75 29.4 -109.85 M49.7 -111.6 Q50.55 -112.55 51.3 -112.45 L51.65 -112.45 51.75 -112.65 Q53.2 -112.55 54.0 -111.35 54.7 -110.3 54.45 -108.75 54.2 -107.85 53.65 -107.35 53.35 -107.1 52.05 -106.5 L50.0 -104.8 49.1 -104.2 48.35 -104.15 47.45 -104.15 46.6 -104.35 Q45.95 -104.65 45.7 -105.4 45.45 -106.1 45.7 -106.85 45.95 -107.8 47.35 -109.2 L49.7 -111.6 M66.1 -104.55 Q66.2 -103.95 65.8 -103.2 L65.0 -101.95 63.75 -102.05 62.5 -102.3 61.45 -103.25 60.05 -104.6 58.8 -106.1 58.2 -107.3 57.3 -108.15 Q58.75 -109.55 60.8 -110.4 61.85 -110.3 63.1 -108.7 L65.35 -106.0 66.1 -104.55 M-60.2 -103.05 Q-59.85 -103.7 -58.65 -103.9 -57.45 -104.1 -57.25 -103.4 -57.15 -103.1 -57.35 -102.7 L-57.65 -102.0 -57.65 -101.05 -57.55 -100.15 Q-57.6 -99.55 -58.05 -98.9 L-58.9 -97.8 Q-59.65 -96.75 -59.75 -95.15 L-59.65 -92.25 Q-59.35 -88.35 -60.95 -86.85 L-62.95 -86.95 Q-63.95 -87.4 -64.3 -88.4 L-64.45 -90.7 -64.45 -93.25 -64.25 -95.85 -63.5 -98.0 -62.05 -99.8 Q-60.75 -100.85 -60.6 -101.3 L-60.45 -102.2 -60.2 -103.05 M-8.9 -114.9 L-9.1 -113.9 -9.0 -113.05 Q-9.05 -112.55 -9.55 -111.9 L-10.35 -110.85 -10.75 -109.3 Q-11.0 -108.25 -11.8 -107.5 -12.65 -106.75 -13.7 -106.75 -14.75 -106.7 -15.6 -107.45 -16.5 -108.2 -16.5 -109.25 -16.5 -110.0 -15.65 -111.6 L-14.4 -113.25 -13.15 -114.05 -11.45 -115.5 -10.4 -116.15 Q-9.85 -116.3 -9.35 -115.9 -8.85 -115.45 -8.9 -114.9 M-73.55 -76.6 L-73.95 -75.35 Q-74.35 -74.65 -74.95 -74.6 L-76.35 -74.9 -77.85 -75.05 -80.6 -75.15 -81.3 -75.25 -81.8 -75.7 Q-82.55 -76.65 -82.35 -77.7 -82.1 -78.95 -80.9 -79.1 -80.2 -79.1 -80.15 -79.45 -76.7 -79.65 -74.75 -78.7 -73.7 -78.2 -73.5 -77.45 L-73.55 -76.6 M-79.8 -57.4 Q-80.5 -56.9 -81.85 -57.0 -82.9 -57.1 -83.65 -57.75 -84.5 -58.4 -84.45 -59.3 -84.4 -59.95 -83.8 -60.6 L-82.7 -61.7 Q-81.85 -62.55 -80.7 -64.7 L-78.75 -67.65 Q-76.85 -69.55 -74.2 -69.3 -73.2 -69.5 -72.85 -68.65 -72.65 -68.15 -72.9 -67.5 -73.2 -66.9 -74.0 -66.1 L-75.3 -64.8 -76.6 -62.3 -77.6 -60.85 -78.55 -59.35 -79.05 -58.3 -79.8 -57.4 M-8.2 -83.85 L-8.7 -83.4 Q-9.0 -83.15 -9.25 -83.05 L-10.05 -83.05 -11.4 -83.45 Q-12.45 -84.1 -12.15 -85.7 L-11.35 -88.0 Q-10.9 -89.2 -10.35 -89.3 L-9.65 -89.35 Q-9.25 -89.4 -9.15 -89.65 L-6.4 -89.75 Q-4.75 -89.5 -4.05 -88.5 -3.6 -87.95 -3.5 -87.25 -3.45 -86.55 -3.8 -85.95 -4.25 -85.15 -5.9 -84.75 -7.65 -84.3 -8.2 -83.85 M-17.0 -79.0 Q-17.05 -78.7 -17.45 -78.1 L-17.85 -77.2 -17.7 -75.85 Q-17.65 -75.25 -18.05 -74.4 L-18.7 -72.95 -19.25 -70.95 -20.25 -69.55 -21.5 -69.6 Q-22.2 -69.8 -22.6 -70.3 -23.15 -71.05 -23.35 -72.65 L-23.4 -74.5 -22.75 -75.8 Q-22.3 -76.65 -22.2 -77.15 L-22.15 -77.55 -17.0 -79.0 M-27.5 -96.2 Q-26.75 -94.95 -28.05 -93.5 L-29.15 -92.6 -30.4 -91.8 Q-31.6 -91.0 -31.7 -90.95 L-33.35 -90.7 Q-35.3 -90.6 -36.05 -91.3 -36.75 -91.95 -36.75 -93.6 L-36.55 -94.55 -35.65 -95.4 Q-32.35 -97.45 -29.85 -96.9 -29.15 -96.8 -29.2 -97.2 -27.95 -96.9 -27.5 -96.2 M-43.7 -82.9 L-42.85 -81.75 Q-42.45 -81.0 -42.85 -80.4 L-43.45 -79.65 -43.7 -78.5 Q-43.9 -76.65 -45.9 -73.75 -48.05 -73.75 -48.8 -74.45 -49.9 -75.5 -49.3 -77.7 L-48.7 -79.35 Q-48.4 -80.3 -48.4 -81.0 L-48.4 -81.9 -48.3 -82.85 Q-48.15 -83.45 -47.6 -83.85 -47.1 -84.25 -46.45 -84.25 -45.95 -84.25 -46.15 -84.45 -45.2 -84.4 -43.7 -82.9" fill="#272727" fill-rule="evenodd" stroke="none"/>
    <path d="M81.9 -85.85 L73.8 -77.75 63.3 -77.75 65.85 -80.3 81.9 -85.85 M46.35 -73.55 L54.45 -73.55 61.0 -73.55 61.65 -73.55 60.8 -72.7 50.9 -62.75 41.0 -52.9 15.2 -52.9 11.55 -52.9 8.15 -49.5 7.8 -49.15 45.65 -49.15 41.45 -44.95 37.35 -44.95 32.75 -44.95 3.6 -44.95 -1.45 -39.9 -10.35 -39.9 -7.1 -43.15 -5.3 -44.95 -8.9 -44.95 -36.3 -44.95 -24.15 -49.15 -13.9 -49.15 -4.1 -49.15 -1.1 -49.15 2.65 -52.9 -13.35 -52.9 -1.05 -57.15 6.9 -57.15 10.85 -61.1 10.35 -61.1 24.75 -66.05 24.0 -65.35 28.15 -65.35 35.4 -65.35 42.95 -65.35 46.9 -69.3 35.1 -69.3 34.05 -69.3 46.35 -73.55 M-47.45 -41.05 Q-41.1 -37.5 -23.8 -37.5 L37.75 -37.5 30.65 -32.5 -16.9 -32.5 -28.25 -32.5 -31.95 -32.5 Q-45.25 -32.8 -51.95 -34.95 L-53.95 -35.7 Q-56.0 -36.6 -57.2 -37.7 L-47.45 -41.05 M20.7 -57.15 L34.75 -57.15 38.7 -61.1 19.75 -61.1 17.0 -58.3 15.8 -57.15 20.7 -57.15" fill="#ffe266" fill-rule="evenodd" stroke="none"/>
    <path d="M84.7 -88.65 L81.9 -85.85 65.85 -80.3 68.8 -83.25 71.55 -86.0 44.65 -86.0 40.45 -81.8 60.45 -81.8 58.35 -79.7 56.2 -77.55 52.05 -77.55 39.35 -77.55 36.2 -77.55 33.45 -74.75 32.2 -73.55 40.25 -73.55 46.35 -73.55 34.05 -69.3 29.6 -69.3 27.95 -69.3 24.75 -66.05 10.35 -61.1 3.65 -61.1 -7.6 -61.1 -11.55 -57.15 -7.7 -57.15 -1.05 -57.15 -13.35 -52.9 -19.85 -52.9 -26.35 -52.9 -10.15 -69.05 3.0 -73.55 23.3 -73.55 27.3 -77.55 14.8 -77.55 27.35 -81.8 30.35 -81.8 31.55 -81.8 33.35 -83.55 33.75 -83.95 52.2 -90.25 56.75 -90.25 71.5 -90.25 76.05 -90.25 86.3 -90.25 84.7 -88.65 M-36.3 -44.95 L-42.15 -44.95 -41.85 -45.2 -37.95 -49.15 -30.6 -49.15 -24.15 -49.15 -36.3 -44.95 M-48.55 -41.8 L-47.65 -41.2 -47.45 -41.05 -57.2 -37.7 -57.3 -37.85 -58.45 -39.4 -58.55 -39.65 Q-64.45 -37.7 -69.65 -36.1 L-74.15 -34.8 -83.0 -32.5 -84.0 -38.35 -75.15 -39.9 -71.65 -40.6 Q-65.55 -41.95 -61.6 -43.35 L-49.05 -55.85 -33.15 -61.25 -48.4 -46.0 -50.55 -43.9 -49.5 -42.55 -48.55 -41.8 M6.65 -65.35 L15.1 -65.35 19.05 -69.3 4.0 -69.3 0.6 -69.3 -1.75 -66.9 -3.35 -65.35 0.5 -65.35 6.65 -65.35" fill="#f7d84f" fill-rule="evenodd" stroke="none"/>
    <path d="M-47.5 -57.4 L-44.65 -60.3 -59.2 -60.3 -61.05 -60.3 -59.1 -62.2 -56.0 -65.35 -46.1 -65.35 -41.1 -65.35 -29.1 -65.35 -31.7 -62.65 -33.15 -61.25 -49.05 -55.85 -47.5 -57.4 M-8.9 -70.3 L-5.7 -73.55 0.8 -73.55 3.0 -73.55 -10.15 -69.05 -8.9 -70.3 M12.8 -77.55 L5.7 -77.55 9.95 -81.8 25.5 -81.8 27.35 -81.8 14.8 -77.55 12.8 -77.55 M34.65 -84.85 L35.75 -86.0 21.3 -86.0 15.6 -86.0 7.3 -86.0 -0.95 -77.75 -11.45 -77.75 1.05 -90.25 7.65 -90.25 18.5 -90.25 48.4 -90.25 50.8 -90.25 52.2 -90.25 33.75 -83.95 34.65 -84.85 M-22.15 -77.55 L-28.85 -75.65 Q-29.0 -80.7 -32.95 -85.2 L-20.55 -88.65 Q-14.75 -83.9 -14.8 -79.65 L-17.0 -79.0 -22.15 -77.55" fill="#f5c936" fill-rule="evenodd" stroke="none"/>
  </g>
</svg>
