<?xml version="1.0" encoding="UTF-8" standalone="no"?>
<svg xmlns:ffdec="https://www.free-decompiler.com/flash" xmlns:xlink="http://www.w3.org/1999/xlink" ffdec:objectType="shape" height="24.0px" width="122.5px" xmlns="http://www.w3.org/2000/svg">
  <g transform="matrix(1.0, 0.0, 0.0, 1.0, -134.75, -29.35)">
    <path d="M214.45 50.25 L168.45 50.25 174.1 32.5 220.1 32.5 214.45 50.25" fill="#563218" fill-rule="evenodd" stroke="none"/>
    <path d="M144.55 49.95 Q142.2 49.3 140.4 47.5 138.65 45.75 138.15 43.4 L137.9 41.35 137.9 41.25 Q137.9 37.6 140.4 35.0 L140.95 34.55 Q143.35 32.5 146.65 32.5 L150.1 32.5 144.55 49.95" fill="#fc854b" fill-rule="evenodd" stroke="none"/>
    <path d="M155.45 50.25 L146.65 50.25 144.55 49.95 150.1 32.5 161.1 32.5 155.45 50.25" fill="#fa7e91" fill-rule="evenodd" stroke="none"/>
    <path d="M168.45 50.25 L155.45 50.25 161.1 32.5 174.1 32.5 168.45 50.25" fill="#f980cb" fill-rule="evenodd" stroke="none"/>
    <path d="M227.95 50.25 L214.45 50.25 220.1 32.5 233.6 32.5 227.95 50.25" fill="#4bfcba" fill-rule="evenodd" stroke="none"/>
    <path d="M238.95 50.25 L227.95 50.25 233.6 32.5 244.6 32.5 238.95 50.25" fill="#49fe69" fill-rule="evenodd" stroke="none"/>
    <path d="M244.6 32.5 L245.25 32.5 Q248.9 32.5 251.4 35.0 252.45 36.05 253.1 37.25 L249.25 49.3 Q247.45 50.25 245.25 50.25 L238.95 50.25 244.6 32.5" fill="#6ffd4a" fill-rule="evenodd" stroke="none"/>
    <path d="M253.1 37.25 Q254.05 39.05 254.15 41.25 L254.15 41.35 Q254.15 45.0 251.5 47.5 L251.4 47.6 249.25 49.3 253.1 37.25" fill="#c2fd4a" fill-rule="evenodd" stroke="none"/>
    <path d="M245.25 29.35 L245.6 29.35 Q250.25 29.35 253.65 32.75 L254.3 33.45 Q257.25 36.8 257.25 41.25 L257.25 41.35 Q257.15 46.25 253.65 49.75 251.2 52.2 248.1 53.0 L245.25 53.35 146.65 53.35 143.6 52.95 Q140.55 52.15 138.15 49.75 L136.7 48.0 Q134.65 45.05 134.75 41.35 L134.75 41.25 Q134.65 36.35 138.15 32.85 L138.25 32.75 Q140.1 30.9 142.35 30.05 144.35 29.3 146.65 29.35 L245.25 29.35 M253.1 37.25 Q252.45 36.05 251.4 35.0 248.9 32.5 245.25 32.5 L244.6 32.5 233.6 32.5 220.1 32.5 174.1 32.5 161.1 32.5 150.1 32.5 146.65 32.5 Q143.35 32.5 140.95 34.55 L140.4 35.0 Q137.9 37.6 137.9 41.25 L137.9 41.35 138.15 43.4 Q138.65 45.75 140.4 47.5 142.2 49.3 144.55 49.95 L146.65 50.25 155.45 50.25 168.45 50.25 214.45 50.25 227.95 50.25 238.95 50.25 245.25 50.25 Q247.45 50.25 249.25 49.3 L251.4 47.6 251.5 47.5 Q254.15 45.0 254.15 41.35 L254.15 41.25 Q254.05 39.05 253.1 37.25" fill="#380b56" fill-rule="evenodd" stroke="none"/>
  </g>
</svg>
