<?xml version="1.0" encoding="UTF-8" standalone="no"?>
<svg xmlns:ffdec="https://www.free-decompiler.com/flash" xmlns:xlink="http://www.w3.org/1999/xlink" ffdec:objectType="shape" height="24.0px" width="122.5px" xmlns="http://www.w3.org/2000/svg">
  <g transform="matrix(1.0, 0.0, 0.0, 1.0, -134.75, -29.35)">
    <path d="M146.65 32.5 L245.25 32.5 Q248.9 32.5 251.4 35.0 254.0 37.6 254.15 41.25 L254.15 41.35 Q254.15 45.0 251.5 47.5 L251.4 47.6 Q248.9 50.25 245.25 50.25 L146.65 50.25 Q143.0 50.1 140.4 47.5 137.9 45.0 137.9 41.35 L137.9 41.25 Q137.9 37.6 140.4 35.0 143.0 32.5 146.65 32.5" fill="#cb9f36" fill-rule="evenodd" stroke="none"/>
    <path d="M245.25 29.35 Q250.15 29.25 253.65 32.75 257.25 36.35 257.25 41.25 L257.25 41.35 Q257.15 46.25 253.65 49.75 250.15 53.25 245.25 53.35 L146.65 53.35 Q141.75 53.35 138.15 49.75 134.65 46.25 134.75 41.35 L134.75 41.25 Q134.65 36.35 138.15 32.85 L138.25 32.75 Q141.75 29.25 146.65 29.35 L245.25 29.35 M146.65 32.5 Q143.0 32.5 140.4 35.0 137.9 37.6 137.9 41.25 L137.9 41.35 Q137.9 45.0 140.4 47.5 143.0 50.1 146.65 50.25 L245.25 50.25 Q248.9 50.25 251.4 47.6 L251.5 47.5 Q254.15 45.0 254.15 41.35 L254.15 41.25 Q254.0 37.6 251.4 35.0 248.9 32.5 245.25 32.5 L146.65 32.5" fill="#775b1a" fill-rule="evenodd" stroke="none"/>
  </g>
</svg>
