<?xml version="1.0" encoding="UTF-8" standalone="no"?>
<svg xmlns:ffdec="https://www.free-decompiler.com/flash" xmlns:xlink="http://www.w3.org/1999/xlink" ffdec:objectType="shape" height="16.25px" width="30.8px" xmlns="http://www.w3.org/2000/svg">
  <g transform="matrix(1.0, 0.0, 0.0, 1.0, 15.4, 8.75)">
    <path d="M-14.35 2.2 L-14.35 2.25 -14.15 3.2 Q-13.7 1.0 -11.45 -0.25 -7.45 -2.65 -3.0 3.0 0.95 7.95 7.15 5.8 13.3 3.6 14.4 -2.7 L14.1 -4.05 Q13.8 -1.75 11.4 -0.55 7.25 1.6 2.5 -4.45 -1.75 -9.8 -8.75 -6.4 -13.85 -3.85 -14.4 1.85 L-14.35 2.2 M-15.4 1.85 L-15.4 1.8 Q-14.8 -4.5 -9.2 -7.3 -1.45 -11.1 3.3 -5.05 7.45 0.2 10.95 -1.45 14.25 -3.2 12.45 -7.75 L12.45 -8.1 12.7 -8.4 13.05 -8.4 13.35 -8.2 Q14.9 -5.75 15.4 -2.85 L15.4 -2.65 Q14.25 4.3 7.5 6.75 0.55 9.15 -3.8 3.6 -7.65 -1.25 -10.95 0.6 -14.2 2.5 -12.9 6.8 L-12.85 6.85 -12.9 7.2 -13.15 7.45 -13.5 7.5 -13.8 7.25 Q-15.0 4.95 -15.35 2.4 L-15.4 1.85" fill="#832c3a" fill-rule="evenodd" stroke="none"/>
  </g>
</svg>
