<?xml version="1.0" encoding="UTF-8" standalone="no"?>
<svg xmlns:ffdec="https://www.free-decompiler.com/flash" xmlns:xlink="http://www.w3.org/1999/xlink" ffdec:objectType="shape" height="27.3px" width="27.25px" xmlns="http://www.w3.org/2000/svg">
  <g transform="matrix(1.0, 0.0, 0.0, 1.0, 0.0, 0.0)">
    <path d="M22.0 4.15 L22.55 4.65 Q26.25 8.4 26.25 13.65 26.25 18.9 22.55 22.55 L22.0 23.1 22.0 4.15 M5.75 23.55 L4.65 22.55 Q1.0 18.9 1.0 13.65 1.0 8.4 4.65 4.65 L5.75 3.7 5.75 23.55" fill="#dadada" fill-rule="evenodd" stroke="none"/>
    <path d="M22.0 23.1 Q19.65 25.25 16.6 26.0 L16.6 1.35 Q19.65 2.0 22.0 4.15 L22.0 23.1 M11.25 26.1 Q8.2 25.55 5.75 23.55 L5.75 3.7 Q8.2 1.7 11.25 1.2 L11.25 26.1" fill="#ebebeb" fill-rule="evenodd" stroke="none"/>
    <path d="M16.6 26.0 L13.6 26.3 11.25 26.1 11.25 1.2 13.6 1.0 16.6 1.35 16.6 26.0" fill="#ffffff" fill-rule="evenodd" stroke="none"/>
    <path d="M22.65 3.4 L22.7 3.4 23.25 3.95 Q27.25 8.0 27.25 13.65 27.25 19.3 23.25 23.25 L23.35 23.2 22.7 23.85 22.65 23.9 Q20.1 26.15 16.85 27.0 L16.8 27.0 13.6 27.3 11.1 27.1 Q7.75 26.5 5.15 24.35 L3.95 23.25 Q0.0 19.3 0.0 13.65 0.0 8.0 3.95 3.95 L5.15 2.95 5.15 2.9 Q7.8 0.75 11.1 0.25 L13.6 0.0 16.8 0.4 Q20.1 1.05 22.65 3.4 M22.0 23.1 L22.55 22.55 Q26.25 18.9 26.25 13.65 26.25 8.4 22.55 4.65 L22.0 4.15 Q19.65 2.0 16.6 1.35 L13.6 1.0 11.25 1.2 Q8.2 1.7 5.75 3.7 L4.65 4.65 Q1.0 8.4 1.0 13.65 1.0 18.9 4.65 22.55 L5.75 23.55 Q8.2 25.55 11.25 26.1 L13.6 26.3 16.6 26.0 Q19.65 25.25 22.0 23.1" fill="#1a1a1a" fill-rule="evenodd" stroke="none"/>
  </g>
</svg>
