<?xml version="1.0" encoding="UTF-8" standalone="no"?>
<svg xmlns:ffdec="https://www.free-decompiler.com/flash" xmlns:xlink="http://www.w3.org/1999/xlink" ffdec:objectType="shape" height="17.95px" width="29.7px" xmlns="http://www.w3.org/2000/svg">
  <g transform="matrix(1.0, 0.0, 0.0, 1.0, 15.55, 15.6)">
    <path d="M-10.3 -10.35 Q-13.8 -6.8 -14.4 -2.05 -12.9 -5.45 -9.2 -7.3 -1.45 -11.1 3.3 -5.05 7.45 0.2 10.95 -1.45 14.2 -3.15 12.5 -7.65 L12.45 -7.7 10.3 -10.35 Q6.1 -14.6 0.05 -14.6 -6.0 -14.6 -10.3 -10.35 M-11.0 -11.05 Q-6.4 -15.6 0.05 -15.6 6.5 -15.6 11.0 -11.05 L13.35 -8.2 13.4 -8.1 Q15.55 -2.6 11.4 -0.55 7.25 1.6 2.5 -4.45 -1.75 -9.8 -8.75 -6.4 -13.9 -3.8 -14.4 1.9 L-14.55 2.25 -14.85 2.35 -15.2 2.25 -15.4 1.95 -15.55 -0.05 Q-15.55 -6.45 -11.0 -11.05" fill="#832c3a" fill-rule="evenodd" stroke="none"/>
  </g>
</svg>
