<?xml version="1.0" encoding="UTF-8" standalone="no"?>
<svg xmlns:ffdec="https://www.free-decompiler.com/flash" xmlns:xlink="http://www.w3.org/1999/xlink" ffdec:objectType="shape" height="18.8px" width="29.9px" xmlns="http://www.w3.org/2000/svg">
  <g transform="matrix(1.0, 0.0, 0.0, 1.0, 14.3, 3.25)">
    <path d="M14.4 2.5 L14.6 0.25 Q12.75 4.85 7.5 6.75 0.55 9.15 -3.8 3.6 -7.65 -1.25 -10.95 0.6 -14.2 2.5 -12.9 6.8 -11.9 8.65 -10.3 10.25 -6.0 14.55 0.05 14.55 6.1 14.55 10.3 10.25 13.7 6.9 14.4 2.5 M15.4 2.65 Q14.6 7.4 11.0 10.95 6.5 15.55 0.05 15.55 -6.4 15.55 -11.0 10.95 -12.7 9.25 -13.8 7.25 L-13.8 7.15 Q-15.45 2.0 -11.45 -0.25 -7.45 -2.65 -3.0 3.0 0.95 7.95 7.15 5.8 13.35 3.6 14.4 -2.8 L14.6 -3.1 14.9 -3.25 15.25 -3.1 15.4 -2.8 15.6 -0.05 15.4 2.65" fill="#832c3a" fill-rule="evenodd" stroke="none"/>
  </g>
</svg>
