<?xml version="1.0" encoding="UTF-8" standalone="no"?>
<svg xmlns:ffdec="https://www.free-decompiler.com/flash" xmlns:xlink="http://www.w3.org/1999/xlink" ffdec:objectType="shape" height="31.1px" width="21.8px" xmlns="http://www.w3.org/2000/svg">
  <g transform="matrix(1.0, 0.0, 0.0, 1.0, -14.2, -8.85)">
    <path d="M23.8 21.1 Q23.55 18.5 24.15 16.5 24.75 11.85 27.8 10.5 30.8 9.1 32.45 10.15 34.15 11.3 35.15 12.3 L35.7 11.95 35.85 12.15 36.0 12.75 35.7 13.3 34.15 14.35 Q34.8 12.95 33.45 11.65 32.1 10.25 29.65 10.5 27.15 10.65 25.85 13.65 24.6 16.6 24.8 20.3 L24.85 21.05 24.8 21.05 24.3 21.15 23.8 21.1" fill="#115e13" fill-rule="evenodd" stroke="none"/>
    <path d="M35.7 11.95 L35.15 12.3 Q34.15 11.3 32.45 10.15 30.8 9.1 27.8 10.5 24.75 11.85 24.15 16.5 23.55 18.5 23.8 21.1 L22.9 21.05 Q22.55 16.35 24.4 12.9 26.45 9.15 29.7 8.9 33.0 8.6 35.65 11.85 L35.7 11.95" fill="#1b941e" fill-rule="evenodd" stroke="none"/>
    <path d="M22.9 21.05 L23.8 21.1 24.3 21.15 24.8 21.05 24.85 21.05 Q30.2 19.65 32.75 23.1 35.45 26.55 35.05 30.3 34.6 33.95 31.65 36.95 L31.7 36.95 Q28.7 39.95 24.5 39.95 20.25 39.95 17.25 36.95 14.25 33.95 14.2 29.85 14.15 25.65 16.75 23.05 18.8 20.9 22.4 21.0 L22.9 21.05 M24.95 22.5 L24.55 22.6 24.25 22.65 24.0 22.6 23.1 22.5 22.65 22.5 Q19.6 22.4 17.8 24.1 15.6 26.3 15.7 29.85 15.8 33.4 18.3 35.9 20.85 38.45 24.5 38.45 28.1 38.45 30.6 35.9 33.2 33.35 33.55 30.15 33.85 26.95 31.6 24.05 29.45 21.4 25.1 22.5 L24.95 22.5" fill="#770003" fill-rule="evenodd" stroke="none"/>
    <path d="M24.95 22.5 L25.1 22.5 Q29.45 21.4 31.6 24.05 33.85 26.95 33.55 30.15 33.2 33.35 30.6 35.9 28.1 38.45 24.5 38.45 20.85 38.45 18.3 35.9 15.8 33.4 15.7 29.85 15.6 26.3 17.8 24.1 19.6 22.4 22.65 22.5 L23.1 22.5 24.0 22.6 24.25 22.65 24.55 22.6 24.95 22.5 M18.5 24.65 Q16.75 25.9 16.75 27.95 L16.95 30.1 Q17.75 31.75 19.85 31.3 21.95 30.9 23.35 30.0 24.75 29.1 25.1 30.7 25.4 32.2 26.4 32.05 L27.35 32.1 27.3 33.05 27.1 34.15 27.15 34.75 Q27.45 35.35 28.45 35.35 30.1 35.35 31.5 33.35 32.85 31.4 32.85 29.25 32.85 27.25 32.45 26.3 31.6 24.4 28.95 23.5 L25.2 23.15 25.0 23.15 24.05 23.15 23.2 23.2 22.9 23.2 Q20.05 23.45 18.5 24.65" fill="#950004" fill-rule="evenodd" stroke="none"/>
    <path d="M18.5 24.65 Q20.05 23.45 22.9 23.2 L23.2 23.2 24.05 23.15 25.0 23.15 25.2 23.15 28.95 23.5 Q31.6 24.4 32.45 26.3 32.85 27.25 32.85 29.25 32.85 31.4 31.5 33.35 30.1 35.35 28.45 35.35 27.45 35.35 27.15 34.75 L27.1 34.15 27.3 33.05 27.35 32.1 26.4 32.05 Q25.4 32.2 25.1 30.7 24.75 29.1 23.35 30.0 21.95 30.9 19.85 31.3 17.75 31.75 16.95 30.1 L16.75 27.95 Q16.75 25.9 18.5 24.65 M23.35 26.75 Q23.35 24.15 21.2 24.85 20.25 25.1 19.65 25.8 18.9 26.6 18.9 27.4 L19.2 28.4 Q19.65 29.3 20.75 29.3 21.85 29.3 23.35 26.75 M31.75 29.15 Q31.75 27.7 30.8 26.3 29.95 25.1 28.7 24.55 27.5 23.9 26.65 24.3 26.0 24.55 25.8 25.25 25.65 25.65 25.65 26.15 25.65 27.0 26.35 27.6 L28.4 29.15 29.25 30.85 29.35 31.0 29.45 31.3 29.6 31.5 Q30.0 32.1 30.35 32.1 31.3 32.1 31.6 30.75 L31.75 29.15" fill="#b70004" fill-rule="evenodd" stroke="none"/>
    <path d="M31.75 29.15 L31.6 30.75 Q31.3 32.1 30.35 32.1 30.0 32.1 29.6 31.5 L29.45 31.3 29.35 31.0 29.25 30.85 28.4 29.15 26.35 27.6 Q25.65 27.0 25.65 26.15 25.65 25.65 25.8 25.25 26.0 24.55 26.65 24.3 27.5 23.9 28.7 24.55 29.95 25.1 30.8 26.3 31.75 27.7 31.75 29.15 M23.35 26.75 Q21.85 29.3 20.75 29.3 19.65 29.3 19.2 28.4 L18.9 27.4 Q18.9 26.6 19.65 25.8 20.25 25.1 21.2 24.85 23.35 24.15 23.35 26.75" fill="#ff1117" fill-rule="evenodd" stroke="none"/>
  </g>
</svg>
