<?xml version="1.0" encoding="UTF-8" standalone="no"?>
<svg xmlns:ffdec="https://www.free-decompiler.com/flash" xmlns:xlink="http://www.w3.org/1999/xlink" ffdec:objectType="shape" height="8.55px" width="8.55px" xmlns="http://www.w3.org/2000/svg">
  <g transform="matrix(1.0, 0.0, 0.0, 1.0, 4.3, 8.55)">
    <path d="M0.7 -7.45 L0.7 -7.5 0.85 -8.45 Q2.05 -8.25 3.0 -7.3 3.9 -6.4 4.15 -5.25 L3.1 -5.35 2.3 -6.6 Q1.6 -7.3 0.7 -7.45 M-1.25 -8.35 L-1.5 -7.2 -2.35 -6.6 Q-3.3 -5.65 -3.3 -4.3 L-3.3 -4.0 -4.25 -3.85 -4.3 -4.3 Q-4.3 -6.05 -3.05 -7.3 L-1.25 -8.35 M2.55 -2.25 L2.6 -0.9 Q1.5 0.0 0.0 0.0 L-0.1 0.0 -1.35 -0.2 -1.4 -0.25 -1.3 -1.25 0.0 -1.0 Q1.35 -1.0 2.3 -2.0 L2.55 -2.25" fill="#1c8ba6" fill-rule="evenodd" stroke="none"/>
    <path d="M-1.5 -7.2 Q-1.5 -6.4 -1.1 -5.55 L-1.05 -5.4 -0.95 -5.35 -1.15 -4.65 Q-1.15 -3.95 -0.65 -3.45 -0.15 -2.95 0.55 -2.95 1.25 -2.95 1.7 -3.45 L2.05 -3.95 2.35 -3.65 2.55 -2.25 2.3 -2.0 Q1.35 -1.0 0.0 -1.0 L-1.3 -1.25 -1.2 -2.3 Q-1.1 -3.2 -1.95 -3.7 -2.65 -4.05 -3.3 -4.0 L-3.3 -4.3 Q-3.3 -5.65 -2.35 -6.6 L-1.5 -7.2 M0.7 -6.3 L0.7 -7.45 Q1.6 -7.3 2.3 -6.6 L3.1 -5.35 2.9 -5.35 2.05 -5.3 1.7 -5.8 Q1.3 -6.25 0.7 -6.3" fill="#3abcdb" fill-rule="evenodd" stroke="none"/>
    <path d="M0.7 -6.3 Q1.3 -6.25 1.7 -5.8 L2.05 -5.3 Q0.9 -5.35 0.7 -6.3 M-0.95 -5.35 Q0.0 -3.9 0.85 -3.9 L2.05 -3.95 1.7 -3.45 Q1.25 -2.95 0.55 -2.95 -0.15 -2.95 -0.65 -3.45 -1.15 -3.95 -1.15 -4.65 L-0.95 -5.35" fill="#74e4ff" fill-rule="evenodd" stroke="none"/>
    <path d="M-0.95 -5.35 L-0.65 -5.8 Q-0.15 -6.3 0.55 -6.3 L0.7 -6.3 Q0.9 -5.35 2.05 -5.3 L2.2 -4.65 2.05 -3.95 0.85 -3.9 Q0.0 -3.9 -0.95 -5.35" fill="#ffedff" fill-rule="evenodd" stroke="none"/>
    <path d="M-1.5 -7.2 L0.0 -7.55 0.7 -7.45 0.7 -6.3 0.55 -6.3 Q-0.15 -6.3 -0.65 -5.8 L-0.95 -5.35 -1.05 -5.4 -1.1 -5.55 Q-1.5 -6.4 -1.5 -7.2 M3.1 -5.35 L3.25 -4.3 Q3.25 -3.1 2.55 -2.25 L2.35 -3.65 2.05 -3.95 2.2 -4.65 2.05 -5.3 2.9 -5.35 3.1 -5.35 M-3.3 -4.0 Q-2.65 -4.05 -1.95 -3.7 -1.1 -3.2 -1.2 -2.3 L-1.3 -1.25 -2.35 -2.0 Q-3.2 -2.85 -3.3 -4.0" fill="#ffa5c6" fill-rule="evenodd" stroke="none"/>
    <path d="M0.7 -7.45 L0.0 -7.55 -1.5 -7.2 -1.25 -8.35 0.0 -8.55 0.85 -8.45 0.7 -7.5 0.7 -7.45 M3.1 -5.35 L4.15 -5.25 4.25 -4.3 Q4.25 -2.55 3.0 -1.3 L2.6 -0.9 2.55 -2.25 Q3.25 -3.1 3.25 -4.3 L3.1 -5.35 M-1.3 -1.25 L-1.4 -0.25 Q-2.3 -0.55 -3.05 -1.3 -4.15 -2.4 -4.25 -3.85 L-3.3 -4.0 Q-3.2 -2.85 -2.35 -2.0 L-1.3 -1.25" fill="#cd4c76" fill-rule="evenodd" stroke="none"/>
  </g>
</svg>
