<?xml version="1.0" encoding="UTF-8" standalone="no"?>
<svg xmlns:ffdec="https://www.free-decompiler.com/flash" xmlns:xlink="http://www.w3.org/1999/xlink" ffdec:objectType="shape" height="103.5px" width="103.5px" xmlns="http://www.w3.org/2000/svg">
  <g transform="matrix(1.0, 0.0, 0.0, 1.0, 112.3, 103.65)">
    <path d="M-34.95 -92.85 L-28.75 -99.1 -28.5 -99.55 -27.65 -100.5 Q-24.65 -103.4 -20.45 -103.6 L-19.8 -103.65 -18.5 -103.55 -16.2 -103.05 Q-14.75 -102.6 -13.45 -101.7 L-12.05 -100.5 -11.25 -99.6 Q-10.3 -98.45 -9.7 -97.15 -9.3 -96.15 -9.05 -95.05 L-8.8 -92.65 Q-8.8 -88.1 -12.05 -84.85 L-12.9 -84.05 -20.8 -76.1 Q-20.0 -77.4 -19.5 -78.75 L-17.5 -80.75 -13.55 -84.75 -12.75 -85.55 Q-9.8 -88.5 -9.8 -92.65 L-9.9 -94.2 -10.2 -95.55 Q-10.75 -97.4 -11.95 -98.9 L-12.75 -99.8 -12.95 -99.95 -13.5 -100.5 -14.15 -100.95 Q-15.45 -101.85 -17.0 -102.3 L-19.45 -102.65 -19.8 -102.65 -21.6 -102.5 Q-24.65 -102.0 -26.95 -99.8 L-27.7 -98.95 -27.85 -98.65 -27.9 -98.6 -28.0 -98.5 -32.9 -93.55 -34.95 -92.85 M-71.85 -25.05 L-82.1 -14.75 Q-81.2 -16.1 -80.65 -17.6 L-70.45 -27.8 Q-70.95 -26.35 -71.85 -25.05 M-96.2 -31.7 L-86.0 -41.9 -83.85 -42.65 -88.75 -37.75 -88.75 -37.7 -88.95 -37.55 -89.4 -37.1 -90.0 -36.5 -93.65 -32.85 -94.0 -32.5 -96.2 -31.7" fill="#b22031" fill-rule="evenodd" stroke="none"/>
    <path d="M-32.9 -93.55 L-28.0 -98.5 -27.9 -98.6 -27.85 -98.65 -27.7 -98.95 -26.95 -99.8 Q-24.65 -102.0 -21.6 -102.5 L-30.2 -93.9 -30.35 -93.9 -32.9 -93.55 M-9.9 -94.2 L-9.8 -92.65 Q-9.8 -88.5 -12.75 -85.55 L-13.55 -84.75 -17.5 -80.75 -19.5 -78.75 Q-19.15 -79.95 -18.95 -81.15 L-18.85 -82.4 -19.0 -85.05 -9.9 -94.2 M-88.75 -37.7 L-88.75 -37.75 -83.85 -42.65 -83.8 -42.65 -81.25 -43.0 -81.1 -43.0 -91.25 -32.85 -91.4 -32.85 -93.55 -32.6 -93.65 -32.85 -90.0 -36.5 -89.4 -37.1 -88.95 -37.55 -88.75 -37.6 -88.75 -37.7 M-80.1 -23.95 L-69.9 -34.15 Q-69.7 -32.9 -69.75 -31.5 L-69.75 -31.35 Q-69.8 -30.05 -70.15 -28.75 L-70.45 -27.8 -80.65 -17.6 Q-80.05 -19.35 -79.95 -21.3 -79.9 -22.7 -80.1 -23.95" fill="#d12f42" fill-rule="evenodd" stroke="none"/>
    <path d="M-21.6 -102.5 L-19.8 -102.65 -19.45 -102.65 -17.0 -102.3 -26.0 -93.3 -26.7 -93.5 -30.2 -93.9 -21.6 -102.5 M-11.95 -98.9 Q-10.75 -97.4 -10.2 -95.55 L-9.9 -94.2 -19.0 -85.05 -19.75 -87.5 -21.1 -89.75 -11.95 -98.9 M-91.25 -32.85 L-81.1 -43.0 Q-78.85 -43.1 -76.9 -42.4 L-87.05 -32.25 -89.25 -32.75 -91.25 -32.85 M-82.2 -28.7 L-72.0 -38.85 Q-70.4 -36.8 -69.9 -34.15 L-80.1 -23.95 Q-80.55 -26.6 -82.2 -28.7" fill="#eb3e52" fill-rule="evenodd" stroke="none"/>
    <path d="M-17.0 -102.3 Q-15.45 -101.85 -14.15 -100.95 L-13.5 -100.5 -12.95 -99.95 -12.75 -99.8 -11.95 -98.9 -21.1 -89.75 -22.0 -90.75 Q-23.8 -92.55 -26.0 -93.3 L-17.0 -102.3 M-87.05 -32.25 L-76.9 -42.4 Q-74.7 -41.65 -72.9 -39.85 L-72.0 -38.85 -82.2 -28.7 -82.75 -29.4 -83.05 -29.7 Q-83.95 -30.6 -85.0 -31.25 -85.95 -31.9 -87.05 -32.25" fill="#f3475a" fill-rule="evenodd" stroke="none"/>
    <path d="M-91.25 -32.85 L-89.25 -32.75 -87.05 -32.25 -97.7 -21.55 Q-99.4 -22.15 -101.3 -22.15 L-101.4 -22.15 -101.95 -22.1 -101.45 -22.65 -101.3 -22.65 -101.3 -22.8 -91.25 -32.85 M-90.6 -13.5 Q-90.9 -15.05 -91.7 -16.45 L-92.8 -18.05 -82.2 -28.7 Q-80.55 -26.6 -80.1 -23.95 L-90.6 -13.5 M-19.0 -85.05 L-29.2 -74.85 Q-29.65 -77.5 -31.25 -79.6 L-21.1 -89.75 -19.75 -87.5 -19.0 -85.05 M-30.2 -93.9 L-26.7 -93.5 -26.0 -93.3 -36.15 -83.15 Q-38.05 -83.85 -40.35 -83.75 L-30.2 -93.9" fill="#a164c6" fill-rule="evenodd" stroke="none"/>
    <path d="M-87.05 -32.25 Q-85.95 -31.9 -85.0 -31.25 -83.95 -30.6 -83.05 -29.7 L-82.75 -29.4 -82.2 -28.7 -92.8 -18.05 -93.6 -18.95 Q-94.95 -20.35 -96.55 -21.1 L-97.5 -21.5 -97.7 -21.55 -87.05 -32.25 M-21.1 -89.75 L-31.25 -79.6 -31.45 -79.85 -32.15 -80.6 Q-33.5 -81.95 -35.05 -82.7 L-36.15 -83.15 -26.0 -93.3 Q-23.8 -92.55 -22.0 -90.75 L-21.1 -89.75" fill="#b171d9" fill-rule="evenodd" stroke="none"/>
    <path d="M-93.55 -32.6 L-91.4 -32.85 -91.25 -32.85 -101.3 -22.8 -101.45 -22.65 -101.95 -22.1 Q-103.6 -22.05 -105.0 -21.5 L-94.0 -32.5 -93.55 -32.6 M-80.65 -17.6 L-91.05 -7.2 Q-90.35 -9.05 -90.35 -11.15 L-90.4 -12.35 -90.5 -13.05 -90.6 -13.5 -80.1 -23.95 Q-79.9 -22.7 -79.95 -21.3 -80.05 -19.35 -80.65 -17.6 M-19.0 -85.05 L-18.85 -82.4 -18.95 -81.15 Q-19.15 -79.95 -19.5 -78.75 L-24.7 -73.55 -26.65 -71.6 -26.65 -71.65 -29.7 -68.55 Q-29.15 -70.3 -29.05 -72.2 -29.0 -73.6 -29.2 -74.85 L-19.0 -85.05 M-30.2 -93.9 L-40.35 -83.75 -40.5 -83.75 -43.1 -83.4 -32.9 -93.55 -30.35 -93.9 -30.2 -93.9" fill="#8a57aa" fill-rule="evenodd" stroke="none"/>
    <path d="M-34.95 -92.85 L-32.9 -93.55 -43.1 -83.4 -45.15 -82.7 -34.95 -92.85 M-19.5 -78.75 Q-20.0 -77.4 -20.8 -76.1 L-31.05 -65.85 Q-30.2 -67.15 -29.7 -68.55 L-26.65 -71.65 -26.65 -71.6 -24.7 -73.55 -19.5 -78.75 M-82.1 -14.75 L-94.25 -2.6 Q-94.4 -2.45 -94.6 -2.45 -95.7 -1.55 -96.9 -1.0 -98.9 -0.15 -101.3 -0.15 -105.9 -0.15 -109.1 -3.35 -110.15 -4.4 -110.85 -5.6 -112.25 -8.0 -112.3 -10.85 L-112.3 -11.15 Q-112.3 -14.9 -110.1 -17.75 L-109.3 -18.75 -109.1 -18.95 -108.2 -19.75 -96.2 -31.7 -94.0 -32.5 -105.0 -21.5 Q-103.6 -22.05 -101.95 -22.1 L-101.4 -22.15 -101.3 -22.15 Q-99.4 -22.15 -97.7 -21.55 L-97.5 -21.5 -96.55 -21.1 Q-94.95 -20.35 -93.6 -18.95 L-92.8 -18.05 -91.7 -16.45 Q-90.9 -15.05 -90.6 -13.5 L-90.5 -13.05 -90.4 -12.35 -90.35 -11.15 Q-90.35 -9.05 -91.05 -7.2 L-80.65 -17.6 Q-81.2 -16.1 -82.1 -14.75 M-102.15 -12.6 Q-101.75 -13.0 -101.0 -12.85 -99.7 -12.65 -99.55 -11.35 L-99.55 -11.15 Q-99.55 -10.1 -100.45 -9.5 L-101.2 -9.1 -101.4 -9.1 -101.45 -9.1 Q-104.4 -9.25 -104.5 -11.9 L-104.5 -12.15 -104.25 -13.3 -103.65 -14.1 Q-102.85 -14.75 -101.1 -14.8 L-101.05 -14.8 Q-98.85 -14.5 -98.15 -12.75 L-97.85 -11.1 Q-97.8 -9.15 -99.05 -8.1 L-99.95 -7.6 -101.4 -7.2 -101.45 -7.2 Q-103.5 -7.1 -105.0 -8.4 -106.55 -9.7 -106.5 -11.85 -106.5 -12.9 -106.1 -13.75 L-105.6 -14.65 -105.05 -15.3 -102.75 -16.55 -101.4 -16.7 -101.35 -16.7 Q-99.3 -16.7 -97.85 -15.3 L-97.75 -15.2 -96.85 -14.05 Q-96.2 -12.95 -96.05 -11.6 -95.65 -8.85 -97.35 -7.3 L-97.8 -6.85 -98.65 -6.3 Q-99.8 -5.6 -101.2 -5.55 -104.0 -5.35 -106.0 -7.05 L-106.6 -7.6 Q-107.85 -8.9 -108.2 -10.7 L-108.35 -11.65 Q-108.45 -13.6 -107.45 -15.1 L-106.85 -15.9 -106.25 -16.45 Q-104.25 -18.25 -101.7 -18.35 L-101.15 -18.35 -101.1 -18.35 -100.95 -18.35 Q-98.55 -18.25 -96.7 -16.65 L-96.25 -16.2 -95.5 -15.35 Q-94.2 -13.55 -94.1 -11.15 L-94.2 -9.9 Q-94.5 -7.75 -96.0 -6.0 L-96.45 -5.5 -97.25 -4.9 Q-98.95 -3.8 -101.35 -3.85 -104.6 -3.9 -107.35 -6.0 L-107.75 -6.3 Q-109.9 -8.2 -110.1 -11.05 L-110.15 -11.65 -110.15 -11.7 Q-110.25 -14.35 -108.8 -16.45 L-108.15 -17.2 -107.75 -17.7 Q-106.3 -19.2 -104.3 -19.8 L-101.7 -20.2 -101.45 -20.2 -99.3 -19.95 Q-97.75 -19.65 -96.45 -18.75 -95.65 -18.25 -94.95 -17.55 L-94.2 -16.7 Q-92.5 -14.55 -92.25 -11.8 L-92.25 -11.2 Q-92.2 -7.5 -94.65 -4.65 L-94.75 -4.5 -95.1 -4.15 -95.9 -3.55 -96.0 -3.45 Q-98.25 -1.85 -101.55 -1.95 -105.85 -2.1 -108.85 -4.8 L-110.0 -6.05 -108.5 -4.0 Q-105.5 -1.05 -101.3 -1.05 -98.7 -1.05 -96.6 -2.15 L-95.35 -3.0 -94.2 -4.0 -93.65 -4.55 -93.55 -4.65 Q-91.25 -7.4 -91.25 -11.15 L-91.35 -12.7 -91.4 -12.9 Q-91.65 -14.4 -92.3 -15.7 L-93.45 -17.45 -94.2 -18.3 Q-95.25 -19.35 -96.5 -20.0 -97.35 -20.5 -98.35 -20.8 L-98.45 -20.8 -101.3 -21.2 -101.65 -21.2 -103.0 -21.05 Q-105.3 -20.7 -107.15 -19.4 L-107.35 -19.25 -108.5 -18.3 -108.75 -18.0 -109.45 -17.2 -109.45 -17.1 -109.65 -16.8 Q-111.0 -14.65 -111.0 -11.9 L-110.95 -11.0 Q-110.8 -8.35 -109.1 -6.3 L-108.25 -5.45 Q-105.5 -3.0 -101.5 -2.85 -98.6 -2.75 -96.55 -4.2 L-95.75 -4.8 -95.35 -5.25 Q-93.25 -7.75 -93.15 -10.95 L-93.15 -11.2 Q-93.2 -13.95 -94.85 -16.05 L-95.6 -16.9 -96.5 -17.7 Q-98.1 -18.9 -100.1 -19.2 L-101.45 -19.3 -101.75 -19.3 Q-104.55 -19.2 -106.4 -17.65 L-107.1 -17.05 -107.5 -16.55 -108.1 -15.75 Q-109.3 -13.95 -109.25 -11.7 L-109.2 -10.95 Q-108.9 -8.4 -106.8 -6.75 L-106.7 -6.7 Q-104.3 -4.8 -101.35 -4.8 -99.4 -4.75 -97.95 -5.6 L-97.1 -6.15 -96.65 -6.6 Q-95.85 -7.55 -95.45 -8.65 -95.0 -9.8 -95.05 -11.1 -95.1 -13.15 -96.2 -14.7 L-96.9 -15.55 -97.15 -15.8 Q-98.85 -17.4 -101.15 -17.45 L-101.6 -17.45 -101.85 -17.45 Q-104.0 -17.3 -105.65 -15.75 L-106.2 -15.25 -106.8 -14.45 Q-107.55 -13.25 -107.45 -11.7 -107.25 -9.25 -105.45 -7.75 -103.65 -6.3 -101.25 -6.45 -100.15 -6.5 -99.3 -6.95 -98.85 -7.15 -98.45 -7.5 L-98.0 -7.9 Q-96.65 -9.25 -96.95 -11.45 L-96.95 -11.5 Q-97.05 -12.55 -97.5 -13.4 L-98.4 -14.6 -98.95 -15.05 Q-99.75 -15.6 -100.8 -15.75 L-101.4 -15.8 Q-103.25 -15.8 -104.45 -14.7 L-105.0 -14.05 -105.4 -13.05 -105.6 -11.85 Q-105.65 -10.15 -104.45 -9.1 -103.2 -8.05 -101.55 -8.1 L-100.65 -8.3 -99.75 -8.8 Q-98.75 -9.6 -98.75 -11.05 -98.75 -11.6 -98.9 -12.0 -99.35 -13.6 -101.15 -13.9 L-103.05 -13.35 -103.5 -12.55 -103.55 -11.95 -103.3 -10.95 -102.7 -10.35 -101.5 -10.0 -101.1 -10.15 Q-100.55 -10.5 -100.5 -11.1 -100.55 -11.8 -101.1 -11.95 L-101.15 -11.95 -101.55 -11.9 -101.75 -11.4 -101.9 -11.1 -102.0 -11.05 -102.25 -11.0 Q-102.45 -11.0 -102.55 -11.15 L-102.65 -11.5 -102.6 -11.65 -102.15 -12.6" fill="#6c3f87" fill-rule="evenodd" stroke="none"/>
    <path d="M-46.35 -72.95 L-36.15 -83.15 -35.05 -82.7 Q-33.5 -81.95 -32.15 -80.6 L-31.45 -79.85 -31.25 -79.6 -41.45 -69.4 -42.35 -70.4 -44.85 -72.3 -46.35 -72.95" fill="#367fe2" fill-rule="evenodd" stroke="none"/>
    <path d="M-31.25 -79.6 Q-29.65 -77.5 -29.2 -74.85 L-39.4 -64.7 -40.05 -67.05 Q-40.6 -68.3 -41.45 -69.4 L-31.25 -79.6 M-40.35 -83.75 Q-38.05 -83.85 -36.15 -83.15 L-46.35 -72.95 -49.65 -73.55 -50.55 -73.55 -40.35 -83.75" fill="#3270c4" fill-rule="evenodd" stroke="none"/>
    <path d="M-50.55 -73.55 L-50.7 -73.55 -53.3 -73.2 -43.1 -83.4 -40.5 -83.75 -40.35 -83.75 -50.55 -73.55 M-29.2 -74.85 Q-29.0 -73.6 -29.05 -72.2 -29.15 -70.3 -29.7 -68.55 L-34.3 -63.95 -36.05 -62.2 -36.1 -62.2 -39.9 -58.35 Q-39.35 -60.1 -39.25 -62.0 L-39.2 -62.6 -39.4 -64.7 -29.2 -74.85" fill="#285ea8" fill-rule="evenodd" stroke="none"/>
    <path d="M-31.05 -65.85 L-41.25 -55.6 Q-40.4 -56.95 -39.9 -58.35 L-36.1 -62.2 -36.05 -62.2 -34.3 -63.95 -29.7 -68.55 Q-30.2 -67.15 -31.05 -65.85 M-55.35 -72.5 L-50.25 -77.55 -50.3 -77.55 -45.15 -82.7 -43.1 -83.4 -53.3 -73.2 -55.35 -72.5" fill="#1f477d" fill-rule="evenodd" stroke="none"/>
    <path d="M-46.35 -72.95 L-44.85 -72.3 -42.35 -70.4 -41.45 -69.4 -51.65 -59.25 -52.5 -60.25 -54.6 -61.95 -54.65 -61.95 -56.5 -62.8 -46.35 -72.95" fill="#5fbf38" fill-rule="evenodd" stroke="none"/>
    <path d="M-56.5 -62.8 L-60.75 -63.35 -50.55 -73.55 -49.65 -73.55 -46.35 -72.95 -56.5 -62.8 M-41.45 -69.4 Q-40.6 -68.3 -40.05 -67.05 L-39.4 -64.7 -49.55 -54.5 -50.2 -56.8 Q-50.75 -58.1 -51.65 -59.25 L-41.45 -69.4" fill="#55aa32" fill-rule="evenodd" stroke="none"/>
    <path d="M-60.75 -63.35 L-60.9 -63.35 -63.3 -63.05 -63.35 -63.1 -53.3 -73.2 -50.7 -73.55 -50.55 -73.55 -60.75 -63.35 M-39.4 -64.7 L-39.2 -62.6 -39.25 -62.0 Q-39.35 -60.1 -39.9 -58.35 L-50.05 -48.2 Q-49.5 -49.9 -49.4 -51.85 -49.35 -53.25 -49.55 -54.5 L-39.4 -64.7" fill="#458c27" fill-rule="evenodd" stroke="none"/>
    <path d="M-41.25 -55.6 L-51.45 -45.4 Q-50.6 -46.75 -50.05 -48.2 L-39.9 -58.35 Q-40.4 -56.95 -41.25 -55.6 M-65.55 -62.3 L-60.45 -67.4 -60.5 -67.4 -55.4 -72.5 -55.35 -72.5 -53.3 -73.2 -63.35 -63.1 -63.45 -63.0 -65.55 -62.3" fill="#325e1e" fill-rule="evenodd" stroke="none"/>
    <path d="M-61.8 -49.05 L-62.7 -50.05 Q-64.5 -51.85 -66.7 -52.6 L-56.5 -62.8 -54.65 -61.95 -54.6 -61.95 -52.5 -60.25 -51.65 -59.25 -61.8 -49.05" fill="#f0cc23" fill-rule="evenodd" stroke="none"/>
    <path d="M-66.7 -52.6 Q-68.65 -53.3 -70.9 -53.2 L-60.75 -63.35 -56.5 -62.8 -66.7 -52.6 M-51.65 -59.25 Q-50.75 -58.1 -50.2 -56.8 L-49.55 -54.5 -59.75 -44.35 Q-60.1 -46.35 -61.1 -48.0 L-61.8 -49.05 -51.65 -59.25" fill="#d4b213" fill-rule="evenodd" stroke="none"/>
    <path d="M-70.9 -53.2 L-71.05 -53.2 -73.65 -52.85 -63.45 -63.0 -63.3 -63.05 -60.9 -63.35 -60.75 -63.35 -70.9 -53.2 M-49.55 -54.5 Q-49.35 -53.25 -49.4 -51.85 -49.5 -49.9 -50.05 -48.2 L-55.2 -43.05 -60.3 -37.95 Q-59.7 -39.7 -59.6 -41.65 L-59.65 -43.8 -59.75 -44.35 -49.55 -54.5" fill="#b8990d" fill-rule="evenodd" stroke="none"/>
    <path d="M-51.45 -45.4 L-61.65 -35.2 Q-60.8 -36.5 -60.3 -37.95 L-55.2 -43.05 -50.05 -48.2 Q-50.6 -46.75 -51.45 -45.4 M-75.8 -52.1 L-65.55 -62.3 -63.45 -63.0 -73.65 -52.85 -75.8 -52.1" fill="#8d7509" fill-rule="evenodd" stroke="none"/>
    <path d="M-72.0 -38.85 L-72.9 -39.85 Q-74.7 -41.65 -76.9 -42.4 L-66.7 -52.6 Q-64.5 -51.85 -62.7 -50.05 L-61.8 -49.05 -72.0 -38.85" fill="#e7811d" fill-rule="evenodd" stroke="none"/>
    <path d="M-76.9 -42.4 Q-78.85 -43.1 -81.1 -43.0 L-70.9 -53.2 Q-68.65 -53.3 -66.7 -52.6 L-76.9 -42.4 M-101.45 -22.65 L-101.3 -22.8 -101.3 -22.65 -101.45 -22.65 M-69.9 -34.15 Q-70.4 -36.8 -72.0 -38.85 L-61.8 -49.05 -61.1 -48.0 Q-60.1 -46.35 -59.75 -44.35 L-69.9 -34.15" fill="#cd6e0f" fill-rule="evenodd" stroke="none"/>
    <path d="M-88.75 -37.7 L-88.75 -37.6 -88.95 -37.55 -88.75 -37.7 M-93.65 -32.85 L-93.55 -32.6 -94.0 -32.5 -93.65 -32.85 M-81.1 -43.0 L-81.25 -43.0 -83.8 -42.65 -73.65 -52.85 -71.05 -53.2 -70.9 -53.2 -81.1 -43.0 M-63.3 -63.05 L-63.45 -63.0 -63.35 -63.1 -63.3 -63.05 M-59.75 -44.35 L-59.65 -43.8 -59.6 -41.65 Q-59.7 -39.7 -60.3 -37.95 L-70.45 -27.8 -70.15 -28.75 Q-69.8 -30.05 -69.75 -31.35 L-69.75 -31.5 Q-69.7 -32.9 -69.9 -34.15 L-59.75 -44.35" fill="#b15e0d" fill-rule="evenodd" stroke="none"/>
    <path d="M-61.65 -35.2 L-71.85 -25.05 Q-70.95 -26.35 -70.45 -27.8 L-60.3 -37.95 Q-60.8 -36.5 -61.65 -35.2 M-86.0 -41.9 L-80.85 -47.0 -80.9 -47.0 -75.8 -52.1 -73.65 -52.85 -83.8 -42.65 -83.85 -42.65 -86.0 -41.9" fill="#824408" fill-rule="evenodd" stroke="none"/>
    <path d="M-102.15 -12.6 L-102.6 -11.65 -102.65 -11.5 -102.55 -11.15 Q-102.45 -11.0 -102.25 -11.0 L-102.0 -11.05 -101.9 -11.1 -101.75 -11.4 -101.55 -11.9 -101.15 -11.95 -101.1 -11.95 Q-100.55 -11.8 -100.5 -11.1 -100.55 -10.5 -101.1 -10.15 L-101.5 -10.0 -102.7 -10.35 -103.3 -10.95 -103.55 -11.95 -103.5 -12.55 -103.05 -13.35 -101.15 -13.9 Q-99.35 -13.6 -98.9 -12.0 -98.75 -11.6 -98.75 -11.05 -98.75 -9.6 -99.75 -8.8 L-100.65 -8.3 -101.55 -8.1 Q-103.2 -8.05 -104.45 -9.1 -105.65 -10.15 -105.6 -11.85 L-105.4 -13.05 -105.0 -14.05 -104.45 -14.7 Q-103.25 -15.8 -101.4 -15.8 L-100.8 -15.75 Q-99.75 -15.6 -98.95 -15.05 L-98.4 -14.6 -97.5 -13.4 Q-97.05 -12.55 -96.95 -11.5 L-96.95 -11.45 Q-96.65 -9.25 -98.0 -7.9 L-98.45 -7.5 Q-98.85 -7.15 -99.3 -6.95 -100.15 -6.5 -101.25 -6.45 -103.65 -6.3 -105.45 -7.75 -107.25 -9.25 -107.45 -11.7 -107.55 -13.25 -106.8 -14.45 L-106.2 -15.25 -105.65 -15.75 Q-104.0 -17.3 -101.85 -17.45 L-101.6 -17.45 -101.15 -17.45 Q-98.85 -17.4 -97.15 -15.8 L-96.9 -15.55 -96.2 -14.7 Q-95.1 -13.15 -95.05 -11.1 -95.0 -9.8 -95.45 -8.65 -95.85 -7.55 -96.65 -6.6 L-97.1 -6.15 -97.95 -5.6 Q-99.4 -4.75 -101.35 -4.8 -104.3 -4.8 -106.7 -6.7 L-106.8 -6.75 Q-108.9 -8.4 -109.2 -10.95 L-109.25 -11.7 Q-109.3 -13.95 -108.1 -15.75 L-107.5 -16.55 -107.1 -17.05 -106.4 -17.65 Q-104.55 -19.2 -101.75 -19.3 L-101.45 -19.3 -100.1 -19.2 Q-98.1 -18.9 -96.5 -17.7 L-95.6 -16.9 -94.85 -16.05 Q-93.2 -13.95 -93.15 -11.2 L-93.15 -10.95 Q-93.25 -7.75 -95.35 -5.25 L-95.75 -4.8 -96.55 -4.2 Q-98.6 -2.75 -101.5 -2.85 -105.5 -3.0 -108.25 -5.45 L-109.1 -6.3 Q-110.8 -8.35 -110.95 -11.0 L-111.0 -11.9 Q-111.0 -14.65 -109.65 -16.8 L-109.45 -17.1 -109.45 -17.2 -108.75 -18.0 -108.5 -18.3 -107.35 -19.25 -107.15 -19.4 Q-105.3 -20.7 -103.0 -21.05 L-101.65 -21.2 -101.3 -21.2 -98.45 -20.8 -98.35 -20.8 Q-97.35 -20.5 -96.5 -20.0 -95.25 -19.35 -94.2 -18.3 L-93.45 -17.45 -92.3 -15.7 Q-91.65 -14.4 -91.4 -12.9 L-91.35 -12.7 -91.25 -11.15 Q-91.25 -7.4 -93.55 -4.65 L-93.65 -4.55 -94.2 -4.0 -95.35 -3.0 -96.6 -2.15 Q-98.7 -1.05 -101.3 -1.05 -105.5 -1.05 -108.5 -4.0 L-110.0 -6.05 -108.85 -4.8 Q-105.85 -2.1 -101.55 -1.95 -98.25 -1.85 -96.0 -3.45 L-95.9 -3.55 -95.1 -4.15 -94.75 -4.5 -94.65 -4.65 Q-92.2 -7.5 -92.25 -11.2 L-92.25 -11.8 Q-92.5 -14.55 -94.2 -16.7 L-94.95 -17.55 Q-95.65 -18.25 -96.45 -18.75 -97.75 -19.65 -99.3 -19.95 L-101.45 -20.2 -101.7 -20.2 -104.3 -19.8 Q-106.3 -19.2 -107.75 -17.7 L-108.15 -17.2 -108.8 -16.45 Q-110.25 -14.35 -110.15 -11.7 L-110.15 -11.65 -110.1 -11.05 Q-109.9 -8.2 -107.75 -6.3 L-107.35 -6.0 Q-104.6 -3.9 -101.35 -3.85 -98.95 -3.8 -97.25 -4.9 L-96.45 -5.5 -96.0 -6.0 Q-94.5 -7.75 -94.2 -9.9 L-94.1 -11.15 Q-94.2 -13.55 -95.5 -15.35 L-96.25 -16.2 -96.7 -16.65 Q-98.55 -18.25 -100.95 -18.35 L-101.1 -18.35 -101.15 -18.35 -101.7 -18.35 Q-104.25 -18.25 -106.25 -16.45 L-106.85 -15.9 -107.45 -15.1 Q-108.45 -13.6 -108.35 -11.65 L-108.2 -10.7 Q-107.85 -8.9 -106.6 -7.6 L-106.0 -7.05 Q-104.0 -5.35 -101.2 -5.55 -99.8 -5.6 -98.65 -6.3 L-97.8 -6.85 -97.35 -7.3 Q-95.65 -8.85 -96.05 -11.6 -96.2 -12.95 -96.85 -14.05 L-97.75 -15.2 -97.85 -15.3 Q-99.3 -16.7 -101.35 -16.7 L-101.4 -16.7 -102.75 -16.55 -105.05 -15.3 -105.6 -14.65 -106.1 -13.75 Q-106.5 -12.9 -106.5 -11.85 -106.55 -9.7 -105.0 -8.4 -103.5 -7.1 -101.45 -7.2 L-101.4 -7.2 -99.95 -7.6 -99.05 -8.1 Q-97.8 -9.15 -97.85 -11.1 L-98.15 -12.75 Q-98.85 -14.5 -101.05 -14.8 L-101.1 -14.8 Q-102.85 -14.75 -103.65 -14.1 L-104.25 -13.3 -104.5 -12.15 -104.5 -11.9 Q-104.4 -9.25 -101.45 -9.1 L-101.4 -9.1 -101.2 -9.1 -100.45 -9.5 Q-99.55 -10.1 -99.55 -11.15 L-99.55 -11.35 Q-99.7 -12.65 -101.0 -12.85 -101.75 -13.0 -102.15 -12.6" fill="#3d7b24" fill-rule="evenodd" stroke="none"/>
  </g>
</svg>
