<?xml version="1.0" encoding="UTF-8" standalone="no"?>
<svg xmlns:ffdec="https://www.free-decompiler.com/flash" xmlns:xlink="http://www.w3.org/1999/xlink" ffdec:objectType="shape" height="34.1px" width="185.35px" xmlns="http://www.w3.org/2000/svg">
  <g transform="matrix(1.0, 0.0, 0.0, 1.0, 4.5, 5.5)">
    <path d="M2.0 -3.4 L174.35 -3.4 Q180.85 -3.4 180.85 3.1 L180.85 22.1 Q180.85 28.6 174.35 28.6 L2.0 28.6 Q-4.5 28.6 -4.5 22.1 L-4.5 3.1 Q-4.5 -3.4 2.0 -3.4" fill="#000000" fill-opacity="0.29803923" fill-rule="evenodd" stroke="none"/>
    <path d="M2.0 -5.5 L174.35 -5.5 Q180.85 -5.5 180.85 1.0 L180.85 20.0 Q180.85 26.5 174.35 26.5 L2.0 26.5 Q-4.5 26.5 -4.5 20.0 L-4.5 1.0 Q-4.5 -5.5 2.0 -5.5" fill="#c05b2a" fill-rule="evenodd" stroke="none"/>
    <path d="M-3.0 10.5 L178.95 10.5 178.95 20.0 Q178.95 25.0 173.95 25.0 L2.0 25.0 Q-3.0 25.0 -3.0 20.0 L-3.0 10.5" fill="#ff7b4a" fill-rule="evenodd" stroke="none"/>
    <path d="M-3.0 10.5 L-3.0 1.0 Q-3.0 -4.0 2.0 -4.0 L173.95 -4.0 Q178.95 -4.0 178.95 1.0 L178.95 10.5 -3.0 10.5" fill="#f6b07d" fill-rule="evenodd" stroke="none"/>
  </g>
</svg>
