<?xml version="1.0" encoding="UTF-8" standalone="no"?>
<svg xmlns:ffdec="https://www.free-decompiler.com/flash" xmlns:xlink="http://www.w3.org/1999/xlink" ffdec:objectType="shape" height="91.55px" width="91.6px" xmlns="http://www.w3.org/2000/svg">
  <g transform="matrix(1.0, 0.0, 0.0, 1.0, 31.75, 80.55)">
    <path d="M47.95 -65.5 Q51.0 -62.25 53.35 -58.2 L56.4 -52.4 Q58.3 -48.25 59.05 -44.0 59.8 -39.45 59.85 -34.85 59.8 -30.2 59.05 -25.7 58.3 -21.35 56.45 -17.25 L54.5 -13.3 Q52.45 -9.25 49.55 -5.85 46.5 -2.25 42.95 0.75 39.4 3.7 35.55 5.8 31.7 7.85 27.45 9.15 23.15 10.35 18.65 10.8 L11.3 10.95 Q6.45 10.8 2.05 9.4 L-3.65 7.55 Q-5.4 6.8 -7.05 5.9 L-12.95 2.25 Q-16.85 -0.45 -20.1 -4.05 -23.15 -7.45 -25.55 -11.35 -27.9 -15.2 -29.25 -19.3 -30.7 -23.55 -31.3 -27.9 -31.8 -31.3 -31.75 -34.85 L-31.1 -42.05 Q-30.6 -45.5 -29.55 -48.85 -28.55 -52.1 -27.05 -55.15 L-23.6 -61.2 -20.7 -64.95 Q-17.35 -68.75 -13.4 -71.7 -10.05 -74.25 -6.25 -75.9 -2.5 -77.6 1.45 -78.7 5.45 -79.8 9.65 -80.1 L16.35 -80.55 Q20.9 -80.45 25.3 -79.35 29.6 -78.25 33.6 -76.4 37.7 -74.45 41.15 -71.8 44.85 -68.95 47.95 -65.5 M9.35 8.8 Q33.05 10.45 46.55 -4.6 57.85 -17.2 57.85 -34.85 57.85 -54.6 43.3 -67.3 30.4 -78.55 14.2 -78.55 8.35 -78.55 0.95 -76.5 -9.05 -73.7 -14.3 -68.5 L-18.2 -64.55 -20.35 -62.15 -22.35 -59.65 -22.45 -59.5 -22.6 -59.25 -22.85 -58.9 Q-25.3 -55.25 -26.9 -51.1 -28.3 -47.5 -29.05 -43.6 L-29.35 -41.9 -29.4 -41.65 -29.7 -39.3 Q-30.05 -35.9 -29.9 -32.55 -29.65 -28.05 -28.65 -23.95 -27.65 -19.9 -25.9 -16.05 -24.1 -12.15 -21.45 -8.8 L-16.95 -4.0 -11.65 0.5 -6.15 4.15 -3.15 5.7 Q-0.4 6.95 2.5 7.65 L9.35 8.8" fill="#644124" fill-rule="evenodd" stroke="none"/>
    <path d="M-22.85 -58.9 L-22.6 -59.25 -22.45 -59.5 -22.35 -59.65 -20.35 -62.15 -18.2 -64.55 -14.3 -68.5 Q-9.05 -73.7 0.95 -76.5 8.35 -78.55 14.2 -78.55 30.4 -78.55 43.3 -67.3 57.85 -54.6 57.85 -34.85 57.85 -17.2 46.55 -4.6 33.05 10.45 9.35 8.8 26.6 8.25 38.55 -3.5 47.65 -12.4 49.95 -24.2 L49.9 -24.45 Q48.35 -30.35 47.15 -32.25 45.6 -34.75 41.85 -38.6 L35.25 -45.25 Q28.8 -51.8 10.6 -56.7 -4.35 -60.75 -12.65 -60.75 -17.2 -60.75 -23.05 -58.6 L-22.85 -58.9" fill="#ac6f3e" fill-rule="evenodd" stroke="none"/>
    <path d="M9.35 8.8 L2.5 7.65 Q-0.4 6.95 -3.15 5.7 L-6.15 4.15 -11.65 0.5 -16.95 -4.0 -21.45 -8.8 Q-24.1 -12.15 -25.9 -16.05 -27.65 -19.9 -28.65 -23.95 -29.65 -28.05 -29.9 -32.55 -30.05 -35.9 -29.7 -39.3 L-29.4 -41.65 -29.35 -41.9 -29.05 -43.6 Q-28.3 -47.5 -26.9 -51.1 -25.3 -55.25 -22.85 -58.9 L-23.05 -58.6 Q-17.2 -60.75 -12.65 -60.75 -4.35 -60.75 10.6 -56.7 28.8 -51.8 35.25 -45.25 L41.85 -38.6 Q45.6 -34.75 47.15 -32.25 48.35 -30.35 49.9 -24.45 L49.95 -24.2 Q47.65 -12.4 38.55 -3.5 26.6 8.25 9.35 8.8 M41.5 -30.25 L41.0 -31.4 Q31.25 -41.25 19.45 -43.95 10.6 -45.95 1.6 -46.45 L-4.55 -46.7 -14.0 -45.75 Q-20.6 -31.35 -15.75 -18.8 -10.9 -6.3 -4.5 -2.2 1.85 1.85 7.35 2.85 15.15 4.35 21.85 0.55 31.75 -5.15 37.45 -15.05 41.55 -22.1 41.5 -30.25" fill="#c38145" fill-rule="evenodd" stroke="none"/>
    <path d="M41.5 -30.25 Q41.55 -22.1 37.45 -15.05 31.75 -5.15 21.85 0.55 15.15 4.35 7.35 2.85 1.85 1.85 -4.5 -2.2 -10.9 -6.3 -15.75 -18.8 -20.6 -31.35 -14.0 -45.75 L-4.55 -46.7 1.6 -46.45 Q10.6 -45.95 19.45 -43.95 31.25 -41.25 41.0 -31.4 L41.5 -30.25" fill="#cd8f52" fill-rule="evenodd" stroke="none"/>
  </g>
</svg>
