<?xml version="1.0" encoding="UTF-8" standalone="no"?>
<svg xmlns:ffdec="https://www.free-decompiler.com/flash" xmlns:xlink="http://www.w3.org/1999/xlink" ffdec:objectType="shape" height="25.75px" width="40.35px" xmlns="http://www.w3.org/2000/svg">
  <g transform="matrix(1.0, 0.0, 0.0, 1.0, 18.85, 17.3)">
    <path d="M15.2 -12.45 L15.2 -13.85 18.15 -12.55 Q18.75 -12.1 19.3 -10.7 L15.2 -12.45 M15.85 3.2 Q17.7 3.25 19.15 3.95 20.65 4.65 20.65 5.5 20.65 6.3 19.3 6.8 L15.7 7.15 15.85 3.2 M-10.95 5.25 Q-13.75 5.05 -16.0 3.9 -17.9 2.9 -17.8 2.35 L-17.05 -0.9 Q-16.4 -0.5 -13.95 0.3 L-9.85 1.45 -10.95 5.25 M-8.2 -16.15 L-8.55 -14.6 -12.05 -14.15 -13.75 -13.7 -13.4 -14.85 Q-12.45 -15.4 -11.7 -15.55 L-8.2 -16.15" fill="#093777" fill-rule="evenodd" stroke="none"/>
    <path d="M15.2 -13.85 L15.2 -12.45 10.0 -13.4 10.1 -14.95 15.2 -13.85 M-2.7 -16.2 L-2.8 -14.55 -8.55 -14.6 -8.2 -16.15 -2.7 -16.2 M15.85 3.2 L15.7 7.15 10.9 7.45 11.05 3.45 15.85 3.2 M-5.75 6.25 L-10.95 5.25 -9.85 1.45 -5.4 2.25 -5.75 6.25" fill="#0c4595" fill-rule="evenodd" stroke="none"/>
    <path d="M15.2 -12.45 L19.3 -10.7 Q18.75 -12.1 18.15 -12.55 L15.2 -13.85 10.1 -14.95 5.45 -15.6 1.65 -15.9 -2.7 -16.2 -8.2 -16.15 -11.7 -15.55 Q-12.45 -15.4 -13.4 -14.85 L-13.75 -13.7 -12.05 -14.15 -8.55 -14.6 -2.8 -14.55 1.65 -14.4 5.4 -14.1 10.0 -13.4 15.2 -12.45 M5.75 2.4 L9.45 2.4 14.65 2.3 20.15 1.05 21.1 0.6 21.5 5.95 Q21.15 7.65 15.95 8.25 10.55 8.8 1.0 8.0 L-9.95 6.6 -15.95 5.4 Q-16.2 5.15 -17.45 4.4 -18.6 3.9 -18.85 2.2 L-17.75 -2.2 -16.75 -1.95 Q-14.4 -0.35 -9.8 0.4 L-5.65 1.25 -0.4 1.85 5.75 2.4 M9.2 -12.6 L6.45 -12.95 0.35 -13.55 -4.25 -13.7 -8.1 -13.6 Q-11.2 -13.75 -14.05 -12.55 L-15.05 -12.75 Q-14.25 -15.55 -12.6 -16.3 L-10.85 -16.9 -3.95 -17.25 3.2 -16.85 Q14.15 -15.9 17.7 -13.8 20.05 -12.5 20.4 -9.2 L19.05 -9.7 16.3 -11.0 14.55 -11.55 9.2 -12.6 M15.7 7.15 L19.3 6.8 Q20.65 6.3 20.65 5.5 20.65 4.65 19.15 3.95 17.7 3.25 15.85 3.2 L11.05 3.45 6.5 3.4 -0.8 2.85 -5.4 2.25 -9.85 1.45 -13.95 0.3 Q-16.4 -0.5 -17.05 -0.9 L-17.8 2.35 Q-17.9 2.9 -16.0 3.9 -13.75 5.05 -10.95 5.25 L-5.75 6.25 -1.35 6.8 6.4 7.4 10.9 7.45 15.7 7.15" fill="#062550" fill-rule="evenodd" stroke="none"/>
    <path d="M10.1 -14.95 L10.0 -13.4 5.4 -14.1 5.45 -15.6 10.1 -14.95 M1.65 -15.9 L1.65 -14.4 -2.8 -14.55 -2.7 -16.2 1.65 -15.9 M10.9 7.45 L6.4 7.4 6.5 3.4 11.05 3.45 10.9 7.45 M-1.35 6.8 L-5.75 6.25 -5.4 2.25 -0.8 2.85 -1.35 6.8" fill="#1055b6" fill-rule="evenodd" stroke="none"/>
    <path d="M1.65 -14.4 L1.65 -15.9 5.45 -15.6 5.4 -14.1 1.65 -14.4 M6.4 7.4 L-1.35 6.8 -0.8 2.85 6.5 3.4 6.4 7.4" fill="#1965d2" fill-rule="evenodd" stroke="none"/>
    <path d="M5.75 2.4 Q6.25 -9.0 6.65 -12.9 L6.45 -12.95 9.2 -12.6 Q9.7 -11.35 9.65 -6.45 L9.45 2.4 5.75 2.4 M0.35 -13.55 L-0.4 1.85 -5.65 1.25 -4.25 -13.7 0.35 -13.55" fill="#ff3535" fill-rule="evenodd" stroke="none"/>
    <path d="M6.45 -12.95 L6.65 -12.9 Q6.25 -9.0 5.75 2.4 L-0.4 1.85 0.35 -13.55 6.45 -12.95" fill="#f54c4c" fill-rule="evenodd" stroke="none"/>
    <path d="M19.05 -9.7 L19.45 -9.5 Q19.35 -9.3 20.15 1.05 L14.65 2.3 14.55 -11.55 16.3 -11.0 19.05 -9.7 M-14.05 -12.55 Q-11.2 -13.75 -8.1 -13.6 L-9.8 0.4 Q-14.4 -0.35 -16.75 -1.95 L-14.05 -12.55" fill="#ad0b0b" fill-rule="evenodd" stroke="none"/>
    <path d="M20.15 1.05 Q19.35 -9.3 19.45 -9.5 L19.05 -9.7 20.4 -9.2 21.1 0.6 20.15 1.05 M-15.05 -12.75 L-14.05 -12.55 -16.75 -1.95 -17.75 -2.2 -15.05 -12.75" fill="#570303" fill-rule="evenodd" stroke="none"/>
    <path d="M9.45 2.4 L9.65 -6.45 Q9.7 -11.35 9.2 -12.6 L14.55 -11.55 14.65 2.3 9.45 2.4 M-8.1 -13.6 L-4.25 -13.7 -5.65 1.25 -9.8 0.4 -8.1 -13.6" fill="#d91515" fill-rule="evenodd" stroke="none"/>
  </g>
</svg>
