<?xml version="1.0" encoding="UTF-8" standalone="no"?>
<svg xmlns:ffdec="https://www.free-decompiler.com/flash" xmlns:xlink="http://www.w3.org/1999/xlink" ffdec:objectType="shape" height="29.65px" width="63.6px" xmlns="http://www.w3.org/2000/svg">
  <g transform="matrix(1.0, 0.0, 0.0, 1.0, 4.25, 5.75)">
    <path d="M9.3 -0.35 Q16.3 -3.6 27.8 -2.75 39.3 -1.9 45.65 1.6 51.95 5.1 53.25 9.15 L52.95 9.5 52.25 9.55 40.55 8.75 Q32.65 8.2 24.45 8.65 16.2 9.1 11.15 8.45 6.05 7.8 3.55 12.6 L3.2 8.65 Q3.3 8.0 2.8 5.45 2.3 2.85 9.3 -0.35" fill="#392756" fill-rule="evenodd" stroke="none"/>
    <path d="M0.1 23.9 Q-2.25 21.2 -2.8 13.85 -3.4 6.45 4.2 0.7 11.75 -5.1 27.8 -5.2 43.85 -5.35 51.75 1.65 59.65 8.65 58.75 13.6 57.85 18.55 56.5 21.1 L54.65 23.9 0.1 23.9 M9.3 -0.35 Q2.3 2.85 2.8 5.45 3.3 8.0 3.2 8.65 L3.55 12.6 Q6.05 7.8 11.15 8.45 16.2 9.1 24.45 8.65 32.65 8.2 40.55 8.75 L52.25 9.55 52.95 9.5 53.25 9.15 Q51.95 5.1 45.65 1.6 39.3 -1.9 27.8 -2.75 16.3 -3.6 9.3 -0.35" fill="#211733" fill-rule="evenodd" stroke="none"/>
    <path d="M0.1 23.9 Q-1.8 23.65 -2.8 21.25 -3.7 19.0 -4.2 12.45 -4.7 5.9 3.15 -0.4 11.0 -6.7 29.7 -5.55 48.4 -4.4 53.6 1.4 58.75 7.15 59.05 10.95 L59.35 16.7 Q59.35 19.3 58.15 21.35 56.8 23.7 54.65 23.9 L56.5 21.1 Q57.85 18.55 58.75 13.6 59.65 8.65 51.75 1.65 43.85 -5.35 27.8 -5.2 11.75 -5.1 4.2 0.7 -3.4 6.45 -2.8 13.85 -2.25 21.2 0.1 23.9" fill="#110c19" fill-rule="evenodd" stroke="none"/>
  </g>
</svg>
