<?xml version="1.0" encoding="UTF-8" standalone="no"?>
<svg xmlns:ffdec="https://www.free-decompiler.com/flash" xmlns:xlink="http://www.w3.org/1999/xlink" ffdec:objectType="shape" height="69.1px" width="126.2px" xmlns="http://www.w3.org/2000/svg">
  <g transform="matrix(1.0, 0.0, 0.0, 1.0, 54.95, 33.85)">
    <path d="M40.7 -17.65 L41.75 -19.8 Q44.15 -14.95 46.4 -8.95 L48.85 -2.1 Q46.8 -4.8 44.7 -8.95 L42.7 -13.1 40.7 -17.65 M-26.3 17.2 L-25.75 17.55 -25.65 17.65 -24.8 18.15 -25.7 19.25 Q-27.35 20.95 -29.55 21.8 L-28.8 20.55 -26.6 17.65 -26.3 17.2 M7.15 14.25 L7.3 14.2 9.2 13.15 9.25 16.1 9.2 16.9 8.5 17.0 Q7.8 16.3 7.15 14.25 M16.85 8.25 L18.1 7.35 18.15 7.65 17.95 8.9 16.85 8.25 M26.3 0.65 L26.7 0.25 27.5 -0.5 27.6 -0.55 Q28.8 2.2 29.9 3.85 L28.35 2.5 Q27.25 1.8 26.3 0.65 M34.65 -8.6 L34.85 -8.9 34.9 -8.95 35.1 -9.25 35.45 -9.7 36.0 -10.4 36.5 -8.95 38.55 -2.7 Q36.95 -4.5 34.65 -8.6" fill="#ffffff" fill-rule="evenodd" stroke="none"/>
    <path d="M40.5 -17.3 L40.7 -17.65 42.7 -13.1 44.7 -8.95 Q46.8 -4.8 48.85 -2.1 L46.4 -8.95 Q44.15 -14.95 41.75 -19.8 L42.25 -21.0 42.4 -21.45 42.55 -21.85 42.9 -22.8 42.95 -23.05 43.5 -24.95 43.5 -25.05 44.75 -21.9 Q47.2 -15.55 48.8 -8.95 L48.85 -8.65 Q51.8 2.1 57.5 11.5 L49.75 5.6 49.5 5.3 49.3 5.1 Q46.65 1.8 45.5 -2.75 L43.7 -8.95 Q42.3 -13.25 40.5 -17.3 M-30.75 11.65 L-29.3 13.95 -30.45 16.3 Q-34.6 22.85 -42.5 23.65 L-44.85 23.85 Q-35.35 20.1 -30.75 11.65 M-27.65 15.95 L-26.3 17.2 -26.6 17.65 -28.8 20.55 -27.65 15.95 M-24.8 18.15 L-23.25 18.95 -23.45 19.15 -23.5 19.2 -25.0 20.4 -27.15 21.6 -30.35 23.0 -29.55 21.8 Q-27.35 20.95 -25.7 19.25 L-24.8 18.15 M-9.15 20.3 L-9.0 20.25 -6.6 19.75 -6.35 19.65 Q-7.85 24.85 -11.75 27.6 L-12.15 27.1 -12.3 26.8 Q-9.85 21.95 -9.35 20.7 L-9.15 20.3 M-2.9 18.6 L-0.25 17.55 0.9 17.15 1.6 16.85 Q1.25 20.45 -0.15 23.35 -1.5 26.15 -2.05 26.15 L-2.75 26.0 -2.75 25.8 -2.9 18.6 M5.5 15.1 Q6.3 14.65 7.15 14.25 7.8 16.3 8.5 17.0 L9.2 16.9 9.25 16.1 9.2 13.15 9.6 12.9 11.4 11.9 Q11.75 17.0 11.75 22.75 L11.5 25.55 Q11.25 27.65 11.0 27.9 7.8 21.15 5.5 15.1 M14.35 10.05 L14.8 9.75 15.2 9.45 16.85 8.25 17.95 8.9 18.15 7.65 18.1 7.35 19.2 6.5 19.85 6.0 21.1 5.05 Q24.15 14.2 24.15 16.7 L24.05 17.55 23.8 17.65 21.6 17.45 20.5 16.75 19.9 16.9 19.9 17.0 Q15.85 15.65 14.65 11.55 L14.35 10.05 M25.8 1.1 L26.3 0.65 Q27.25 1.8 28.35 2.5 L29.9 3.85 Q28.8 2.2 27.6 -0.55 L29.75 -2.75 29.8 -2.8 31.55 3.8 32.55 7.55 33.05 9.3 33.85 11.0 33.7 10.9 28.5 5.05 25.8 1.1 M32.45 -5.9 L32.9 -6.45 33.2 -6.8 34.15 -7.95 34.65 -8.6 Q36.95 -4.5 38.55 -2.7 L36.5 -8.95 36.0 -10.4 37.45 -12.4 37.8 -12.9 39.1 -8.95 41.3 -2.1 Q41.2 0.3 42.0 3.15 36.55 0.5 32.45 -5.9" fill="#d1d1d1" fill-rule="evenodd" stroke="none"/>
    <path d="M37.8 -12.9 L38.35 -13.7 38.55 -14.05 39.3 -15.2 39.35 -15.3 39.8 -16.0 40.4 -17.1 40.5 -17.3 Q42.3 -13.25 43.7 -8.95 L45.5 -2.75 Q46.65 1.8 49.3 5.1 L42.25 -3.35 41.45 -2.5 41.3 -2.1 39.1 -8.95 37.8 -12.9 M43.5 -25.05 L44.35 -30.6 Q49.9 -25.15 50.95 -18.5 L52.5 -8.95 53.85 -3.3 55.35 1.7 55.85 3.25 Q57.8 9.05 63.4 14.3 58.7 13.1 57.5 11.5 51.8 2.1 48.85 -8.65 L48.8 -8.95 Q47.2 -15.55 44.75 -21.9 L43.5 -25.05 M24.65 6.35 L24.35 6.5 23.8 4.95 24.65 6.35 M18.4 23.55 L18.35 24.0 Q16.75 25.45 14.5 26.15 L13.0 17.75 Q14.05 21.25 17.3 23.05 L18.4 23.55 M5.55 27.7 L0.95 28.3 2.75 23.15 Q3.9 25.6 5.55 27.7 M-5.35 28.4 L-5.55 28.4 -5.4 28.15 -5.35 28.4 M-31.45 10.4 L-31.4 10.45 -31.2 10.85 -30.75 11.65 Q-35.35 20.1 -44.85 23.85 L-42.5 23.65 Q-34.6 22.85 -30.45 16.3 L-29.3 13.95 -28.55 14.9 -28.55 14.95 -27.65 15.95 -28.8 20.55 -29.55 21.8 -30.35 23.0 -27.15 21.6 -25.0 20.4 -23.5 19.2 -23.45 19.15 -23.25 18.95 -22.25 19.4 -22.9 20.0 -24.1 21.2 -24.35 21.45 Q-27.55 24.25 -30.45 25.6 L-33.2 26.6 -32.85 23.75 -33.15 23.05 Q-40.2 26.25 -47.85 25.15 L-52.3 24.4 Q-43.2 23.8 -36.5 17.6 -33.1 14.55 -31.45 10.4 M-20.2 20.1 L-20.15 20.15 -18.6 20.45 -18.8 22.65 -18.4 23.45 Q-16.6 22.85 -15.1 20.65 L-14.25 20.7 Q-15.2 23.5 -16.55 26.2 -17.15 25.35 -18.4 24.25 L-21.7 21.55 -20.2 20.1 M-11.7 20.65 L-10.2 20.45 -9.15 20.3 -9.35 20.7 Q-9.85 21.95 -12.3 26.8 L-12.15 27.1 -11.75 27.6 Q-7.85 24.85 -6.35 19.65 L-5.05 19.3 -4.5 19.15 -2.9 18.6 -2.75 25.8 -2.75 26.0 -2.05 26.15 Q-1.5 26.15 -0.15 23.35 1.25 20.45 1.6 16.85 L4.1 15.75 4.4 15.6 5.5 15.1 Q7.8 21.15 11.0 27.9 11.25 27.65 11.5 25.55 L11.75 22.75 Q11.75 17.0 11.4 11.9 L12.4 11.3 12.6 11.2 13.95 10.3 14.35 10.05 14.65 11.55 Q15.85 15.65 19.9 17.0 L19.85 18.1 20.0 19.2 21.25 22.85 18.6 21.55 18.55 21.55 16.5 20.05 Q14.0 17.35 12.85 13.6 L12.3 13.7 12.1 19.7 Q12.05 23.2 12.6 26.6 13.05 29.75 14.0 32.85 12.2 31.6 10.65 30.1 L8.05 27.4 Q4.75 23.65 2.45 19.05 L-3.3 32.0 -3.5 29.25 -3.6 28.4 -4.0 26.65 Q-4.15 25.95 -4.45 25.4 L-9.1 28.05 -9.4 28.25 Q-12.05 29.8 -14.8 31.15 -16.2 31.8 -17.9 31.6 L-15.0 27.7 Q-13.55 25.35 -12.5 22.75 L-11.7 20.65 M21.1 5.05 L21.65 4.65 Q21.7 4.55 21.8 4.55 L22.4 6.8 22.6 7.5 Q24.55 13.85 27.85 19.65 L24.8 18.9 23.7 18.6 22.65 18.05 21.6 17.45 23.8 17.65 24.05 17.55 24.15 16.7 Q24.15 14.2 21.1 5.05 M24.55 2.2 L25.2 1.65 25.8 1.1 28.5 5.05 33.7 10.9 Q34.95 13.55 38.2 18.2 31.6 12.65 28.3 8.15 L26.55 5.55 24.55 2.2 M29.8 -2.8 L30.35 -3.4 31.2 -4.4 32.45 -5.9 Q36.55 0.5 42.0 3.15 L42.9 5.7 Q41.9 5.65 38.1 3.25 33.75 0.5 31.95 -1.95 L31.75 0.35 31.65 1.45 31.85 3.45 32.2 5.7 32.55 7.55 31.55 3.8 29.8 -2.8 M55.35 -2.25 L55.85 -1.8 Q61.25 2.95 68.05 5.5 L66.15 6.3 Q61.4 7.75 58.1 4.65 L57.65 4.15 Q56.05 1.15 55.35 -2.25 M58.9 -8.95 L59.15 -9.2 59.15 -8.95 Q58.85 -7.3 57.85 -6.15 56.65 -4.95 55.0 -4.8 L54.95 -4.8 53.9 -8.05 54.2 -7.9 Q56.45 -6.85 58.9 -8.95" fill="#989898" fill-rule="evenodd" stroke="none"/>
    <path d="M44.35 -30.6 L44.1 -33.85 Q49.7 -28.45 51.8 -21.9 53.85 -15.4 53.9 -9.2 L54.8 -8.95 55.75 -8.95 Q56.75 -9.1 57.65 -9.85 L60.15 -12.3 Q60.55 -10.5 60.35 -8.95 59.9 -5.55 56.3 -3.6 62.25 3.25 71.25 5.05 66.85 8.65 60.95 7.85 L59.8 7.55 62.4 10.8 Q65.9 14.8 68.35 16.15 64.4 17.35 56.35 12.75 47.4 7.65 42.7 -0.1 L44.75 7.25 Q42.15 7.6 38.6 5.55 35.05 3.55 33.15 0.55 L33.2 2.2 Q33.35 5.6 35.1 9.85 37.15 14.95 40.9 19.85 L39.15 20.2 Q34.25 19.35 27.7 10.75 L24.65 6.35 23.8 4.95 24.35 6.5 Q27.05 13.75 30.25 20.9 L29.25 21.25 28.5 21.35 27.85 21.4 27.15 21.15 Q24.2 20.4 21.35 19.1 L23.25 23.5 22.85 24.4 Q21.0 24.55 19.35 23.9 L18.4 23.55 17.3 23.05 Q14.05 21.25 13.0 17.75 L14.5 26.15 16.05 35.25 Q12.6 34.5 9.85 32.2 7.35 30.15 5.55 27.7 3.9 25.6 2.75 23.15 L0.95 28.3 -0.7 32.2 Q-1.05 33.0 -1.75 33.5 -3.2 34.7 -4.7 34.5 L-5.35 28.4 -5.4 28.15 -5.55 28.4 Q-6.95 30.65 -9.45 32.0 -14.7 34.75 -20.25 32.3 L-17.05 27.2 -17.95 26.95 -20.9 25.85 -23.25 23.0 -23.3 22.9 -26.1 24.9 -30.45 27.5 Q-32.5 28.7 -34.75 28.9 L-35.9 28.85 -33.9 24.65 Q-43.0 29.35 -52.7 25.35 L-54.95 24.5 Q-49.65 23.0 -44.5 21.15 -36.35 18.45 -32.7 10.45 L-32.15 8.85 -31.45 10.4 Q-33.1 14.55 -36.5 17.6 -43.2 23.8 -52.3 24.4 L-47.85 25.15 Q-40.2 26.25 -33.15 23.05 L-32.85 23.75 -33.2 26.6 -30.45 25.6 Q-27.55 24.25 -24.35 21.45 L-24.1 21.2 -22.9 20.0 -22.25 19.4 -22.05 19.5 -20.4 20.05 -20.2 20.1 -21.7 21.55 -18.4 24.25 Q-17.15 25.35 -16.55 26.2 -15.2 23.5 -14.25 20.7 L-12.9 20.7 -11.7 20.65 -12.5 22.75 Q-13.55 25.35 -15.0 27.7 L-17.9 31.6 Q-16.2 31.8 -14.8 31.15 -12.05 29.8 -9.4 28.25 L-9.1 28.05 -4.45 25.4 Q-4.15 25.95 -4.0 26.65 L-3.6 28.4 -3.5 29.25 -3.3 32.0 2.45 19.05 Q4.75 23.65 8.05 27.4 L10.65 30.1 Q12.2 31.6 14.0 32.85 13.05 29.75 12.6 26.6 12.05 23.2 12.1 19.7 L12.3 13.7 12.85 13.6 Q14.0 17.35 16.5 20.05 L18.55 21.55 18.6 21.55 21.25 22.85 20.0 19.2 19.85 18.1 19.9 17.0 19.9 16.9 20.5 16.75 21.6 17.45 22.65 18.05 23.7 18.6 24.8 18.9 27.85 19.65 Q24.55 13.85 22.6 7.5 L22.4 6.8 21.8 4.55 22.45 4.0 23.4 3.2 24.55 2.2 26.55 5.55 28.3 8.15 Q31.6 12.65 38.2 18.2 34.95 13.55 33.7 10.9 L33.85 11.0 33.05 9.3 32.55 7.55 32.2 5.7 31.85 3.45 31.65 1.45 31.75 0.35 31.95 -1.95 Q33.75 0.5 38.1 3.25 41.9 5.65 42.9 5.7 L42.0 3.15 Q41.2 0.3 41.3 -2.1 L41.45 -2.5 42.25 -3.35 49.3 5.1 49.5 5.3 49.75 5.6 57.5 11.5 Q58.7 13.1 63.4 14.3 57.8 9.05 55.85 3.25 L55.35 1.7 53.85 -3.3 52.5 -8.95 50.95 -18.5 Q49.9 -25.15 44.35 -30.6 M-18.6 20.45 L-15.9 20.55 -15.1 20.65 Q-16.6 22.85 -18.4 23.45 L-18.8 22.65 -18.6 20.45 M58.9 -8.95 Q56.45 -6.85 54.2 -7.9 L53.9 -8.05 54.95 -4.8 55.0 -4.8 Q56.65 -4.95 57.85 -6.15 58.85 -7.3 59.15 -8.95 L59.15 -9.2 58.9 -8.95 M55.35 -2.25 Q56.05 1.15 57.65 4.15 L58.1 4.65 Q61.4 7.75 66.15 6.3 L68.05 5.5 Q61.25 2.95 55.85 -1.8 L55.35 -2.25" fill="#606060" fill-rule="evenodd" stroke="none"/>
  </g>
</svg>
