<?xml version="1.0" encoding="UTF-8" standalone="no"?>
<svg xmlns:ffdec="https://www.free-decompiler.com/flash" xmlns:xlink="http://www.w3.org/1999/xlink" ffdec:objectType="shape" height="22.2px" width="84.25px" xmlns="http://www.w3.org/2000/svg">
  <g transform="matrix(1.0, 0.0, 0.0, 1.0, 34.5, 10.35)">
    <path d="M4.05 9.55 L8.5 10.75 8.85 10.75 9.3 10.8 9.7 10.8 9.8 10.8 10.3 10.8 Q20.45 10.6 20.95 -0.45 L20.95 -0.5 20.95 -0.75 20.95 -1.95 20.95 -2.0 20.9 -2.7 20.9 -2.85 21.1 -3.1 22.1 -3.9 21.5 -7.75 20.45 -7.95 20.15 -8.0 19.9 -8.05 19.65 -8.05 13.55 -8.65 12.9 -8.65 10.1 -8.65 Q3.35 -8.4 -3.0 -6.15 -4.85 -5.9 -5.4 -5.2 L-5.25 -6.1 -7.4 -5.95 -9.45 -5.85 -9.5 -5.85 -9.2 -5.15 -9.1 -4.95 -9.9 -5.35 -12.4 -6.15 -12.85 -6.25 -13.05 -6.3 -14.05 -6.5 -18.3 -7.15 -24.15 -7.3 Q-28.85 -7.2 -33.6 -5.75 L-33.6 -2.3 -32.7 -1.6 -32.5 -1.4 -32.45 -1.2 -32.4 -0.75 -32.35 -0.35 Q-30.9 8.85 -24.3 10.55 L-22.4 10.85 -21.45 10.9 -21.2 10.9 -20.55 10.9 Q-11.85 10.5 -9.45 -0.75 L-9.35 -1.35 -8.4 -3.3 -5.75 -3.3 -5.55 -4.2 -5.55 -4.1 -4.65 -1.85 -4.3 -0.75 -4.15 -0.2 Q-2.05 5.0 1.25 7.8 L1.85 8.3 2.4 8.65 4.05 9.55 M-11.55 -0.75 Q-11.4 0.2 -11.4 1.4 -11.5 5.55 -16.05 8.25 -19.15 10.05 -22.5 9.45 L-25.55 8.4 Q-30.4 5.95 -31.0 0.9 L-31.05 -0.75 -30.9 -1.6 -30.85 -1.95 Q-29.95 -5.1 -25.75 -5.85 L-18.8 -6.3 -16.75 -6.1 Q-14.8 -5.9 -13.55 -4.8 -12.7 -4.1 -12.15 -2.9 L-12.1 -2.75 -11.8 -1.95 -11.55 -0.75 M-34.4 -6.5 L-34.15 -6.75 Q-29.15 -8.25 -24.15 -8.35 -18.25 -8.65 -10.85 -6.7 L-4.25 -6.95 Q3.25 -9.55 10.0 -9.8 15.85 -10.1 22.0 -8.85 L22.4 -8.7 22.5 -8.55 43.25 -10.3 43.45 -10.3 Q48.95 -8.95 49.75 -3.15 L49.6 -2.75 47.5 0.25 47.2 0.4 46.9 0.4 46.6 0.25 46.45 -0.05 Q45.95 -4.7 42.0 -6.05 L22.0 -2.15 22.0 -1.95 22.0 -0.75 Q21.75 11.7 10.45 11.85 -0.15 12.1 -4.9 0.55 L-5.35 -0.75 -5.75 -1.95 -5.8 -2.05 -7.9 -2.05 -7.9 -1.95 -8.2 -0.75 Q-11.7 12.15 -21.4 11.85 -31.55 11.7 -33.25 -0.75 L-33.3 -0.9 -34.25 -1.55 -34.45 -1.75 -34.45 -1.95 -34.45 -2.05 -34.5 -6.25 -34.4 -6.5 M23.2 -3.75 L23.2 -3.55 41.9 -7.2 42.2 -7.2 Q46.4 -5.9 47.4 -1.55 L48.55 -3.25 Q47.85 -8.0 43.3 -9.15 L22.7 -7.45 23.2 -3.75 M-29.65 3.6 L-29.25 4.35 -26.8 6.95 -25.25 7.9 -22.75 8.75 -20.5 9.0 Q-18.45 8.85 -16.4 7.7 -12.25 5.15 -12.1 1.35 -12.05 0.15 -12.25 -0.75 L-12.55 -1.95 -12.65 -2.2 Q-13.1 -3.3 -13.8 -4.05 -14.9 -5.15 -16.75 -5.35 L-18.15 -5.5 -20.9 -5.65 -23.45 -5.5 -25.6 -5.1 Q-29.2 -4.45 -30.1 -1.95 L-30.4 -0.75 -30.4 0.85 Q-30.25 2.3 -29.65 3.6" fill="#1c1c1c" fill-rule="evenodd" stroke="none"/>
    <path d="M12.9 -8.65 L12.3 -8.65 11.35 -7.35 2.3 -6.8 Q-1.8 -6.05 -2.25 -1.95 L-2.3 -0.75 -2.1 1.3 Q-1.5 4.5 1.8 6.85 L1.25 7.8 Q-2.05 5.0 -4.15 -0.2 L-4.3 -0.75 -4.65 -1.85 -5.55 -4.1 -5.55 -4.2 -5.75 -3.3 -8.4 -3.3 -9.35 -1.35 -9.45 -0.75 Q-11.85 10.5 -20.55 10.9 L-19.6 9.55 -21.5 9.6 -22.5 9.45 Q-19.15 10.05 -16.05 8.25 -11.5 5.55 -11.4 1.4 -11.4 0.2 -11.55 -0.75 L-11.5 -0.65 -11.2 -1.05 Q-8.35 -4.2 -7.4 -5.95 L-5.25 -6.1 -5.4 -5.2 Q-4.85 -5.9 -3.0 -6.15 3.35 -8.4 10.1 -8.65 L12.9 -8.65 M2.4 8.65 L3.45 9.25 4.05 9.55 2.4 8.65 M-9.2 -5.15 L-9.5 -5.85 -9.45 -5.85 -9.45 -5.8 -9.2 -5.15" fill="#3c3c3c" fill-rule="evenodd" stroke="none"/>
    <path d="M8.7 -1.75 L8.5 -1.6 8.5 -1.75 8.7 -1.75" fill="#ffffff" fill-rule="evenodd" stroke="none"/>
    <path d="M11.3 -6.5 L8.4 -2.15 8.3 -1.95 8.15 -1.75 8.2 -1.75 7.5 -0.75 6.65 0.3 1.8 5.95 Q-0.85 3.9 -1.4 1.2 L-1.6 -0.75 -1.55 -1.95 Q-1.1 -5.4 2.4 -6.05 L8.35 -6.7 11.3 -6.5 M7.05 8.55 L11.2 2.3 11.2 2.35 12.45 0.55 13.35 -0.75 14.1 -1.95 14.95 -3.3 15.45 -3.25 16.15 -3.25 16.15 -3.45 15.9 -3.7 15.2 -3.7 16.15 -5.2 Q17.5 -4.4 18.2 -3.05 L17.4 -1.95 16.55 -0.75 13.75 2.75 13.8 2.75 9.45 8.75 10.55 8.75 7.05 8.55 M12.35 8.35 L14.8 4.75 14.8 4.8 Q16.05 2.85 18.85 -0.55 L18.9 -0.15 Q19.0 3.7 16.2 6.15 L16.25 6.25 16.1 6.35 Q15.85 6.45 15.65 6.65 L15.65 6.6 14.15 7.55 12.35 8.35 M-23.45 -5.5 L-25.8 -1.95 -26.55 -0.75 -26.9 -0.3 -29.65 3.6 Q-30.25 2.3 -30.4 0.85 L-30.4 -0.75 -30.1 -1.95 Q-29.2 -4.45 -25.6 -5.1 L-23.45 -5.5 M-26.8 6.95 L-21.95 1.1 -20.4 -0.75 -19.55 -1.95 -17.25 -5.4 -18.15 -5.5 -16.75 -5.35 Q-14.9 -5.15 -13.8 -4.05 L-15.15 -1.95 -15.95 -0.75 -16.25 -0.35 -22.75 8.75 -25.25 7.9 -26.8 6.95 M-12.65 -2.2 L-12.55 -1.95 -12.25 -0.75 Q-12.05 0.15 -12.1 1.35 -12.25 5.15 -16.4 7.7 -18.45 8.85 -20.5 9.0 L-15.4 1.6 -13.6 -0.75 -12.8 -1.95 -12.65 -2.2" fill="#ffffff" fill-opacity="0.47843137" fill-rule="evenodd" stroke="none"/>
    <path d="M1.8 5.95 L6.65 0.3 7.5 -0.75 8.2 -1.75 8.15 -1.75 8.3 -1.95 8.4 -2.15 11.3 -6.5 11.5 -6.5 12.1 -6.4 12.25 -6.4 Q14.65 -6.2 16.15 -5.2 L15.2 -3.7 15.9 -3.7 16.15 -3.45 16.15 -3.25 15.45 -3.25 14.95 -3.3 14.1 -1.95 13.35 -0.75 12.45 0.55 11.2 2.35 11.2 2.3 7.05 8.55 4.25 7.55 3.85 7.3 1.8 5.95 M8.7 -1.75 L8.5 -1.75 8.5 -1.6 8.7 -1.75 M10.55 8.75 L9.45 8.75 13.8 2.75 13.75 2.75 16.55 -0.75 17.4 -1.95 18.2 -3.05 18.6 -1.95 18.65 -1.75 18.8 -0.9 18.85 -0.75 18.85 -0.55 Q16.05 2.85 14.8 4.8 L14.8 4.75 12.35 8.35 11.6 8.55 10.55 8.75 M-29.65 3.6 L-26.9 -0.3 -26.55 -0.75 -25.8 -1.95 -23.45 -5.5 -20.9 -5.65 -18.15 -5.5 -17.25 -5.4 -19.55 -1.95 -20.4 -0.75 -21.95 1.1 -26.8 6.95 -29.25 4.35 -29.65 3.6 M-22.75 8.75 L-16.25 -0.35 -15.95 -0.75 -15.15 -1.95 -13.8 -4.05 Q-13.1 -3.3 -12.65 -2.2 L-12.8 -1.95 -13.6 -0.75 -15.4 1.6 -20.5 9.0 -22.75 8.75" fill="#ffffff" fill-opacity="0.7058824" fill-rule="evenodd" stroke="none"/>
    <path d="M1.8 5.95 L3.85 7.3 4.25 7.55 7.05 8.55 10.55 8.75 11.6 8.55 12.35 8.35 14.15 7.55 15.65 6.6 15.65 6.65 Q15.85 6.45 16.1 6.35 L16.25 6.25 16.2 6.15 Q19.0 3.7 18.9 -0.15 L18.85 -0.55 18.85 -0.75 18.8 -0.9 18.65 -1.75 18.6 -1.95 18.2 -3.05 Q17.5 -4.4 16.15 -5.2 14.65 -6.2 12.25 -6.4 L12.1 -6.4 11.5 -6.5 11.3 -6.5 8.35 -6.7 2.4 -6.05 Q-1.1 -5.4 -1.55 -1.95 L-1.6 -0.75 -1.4 1.2 Q-0.85 3.9 1.8 5.95 M11.35 -7.35 L12.35 -7.25 13.05 -7.15 Q18.4 -6.3 19.4 -1.95 L19.6 -0.75 19.65 -0.15 19.65 -0.05 19.65 0.95 19.6 1.2 Q19.1 5.75 14.5 8.15 9.35 10.75 4.1 8.2 L3.95 8.1 3.75 8.0 1.8 6.85 Q-1.5 4.5 -2.1 1.3 L-2.3 -0.75 -2.25 -1.95 Q-1.8 -6.05 2.3 -6.8 L11.35 -7.35 M-7.4 -5.95 Q-8.35 -4.2 -11.2 -1.05 L-11.5 -0.65 -11.55 -0.75 -11.8 -1.95 -12.1 -2.75 -12.15 -2.9 Q-12.7 -4.1 -13.55 -4.8 -14.8 -5.9 -16.75 -6.1 L-18.8 -6.3 -25.75 -5.85 Q-29.95 -5.1 -30.85 -1.95 L-30.9 -1.6 -31.05 -0.75 -31.0 0.9 Q-30.4 5.95 -25.55 8.4 L-22.5 9.45 -21.5 9.6 -19.6 9.55 -20.55 10.9 -21.2 10.9 -21.45 10.9 -22.4 10.85 -24.3 10.55 Q-30.9 8.85 -32.35 -0.35 L-32.4 -0.75 -32.45 -1.2 -32.5 -1.4 -32.7 -1.6 -33.6 -2.3 -33.6 -5.75 Q-28.85 -7.2 -24.15 -7.3 L-18.3 -7.15 -14.05 -6.5 -13.05 -6.3 -12.85 -6.25 -12.4 -6.15 -9.9 -5.35 -9.1 -4.95 -9.2 -5.15 -9.45 -5.8 -9.45 -5.85 -7.4 -5.95 M23.2 -3.75 L22.7 -7.45 43.3 -9.15 Q47.85 -8.0 48.55 -3.25 L47.4 -1.55 Q46.4 -5.9 42.2 -7.2 L41.9 -7.2 23.2 -3.55 23.2 -3.75" fill="#2c2c2c" fill-rule="evenodd" stroke="none"/>
    <path d="M12.9 -8.65 L13.55 -8.65 19.65 -8.05 19.9 -8.05 20.15 -8.0 20.45 -7.95 21.5 -7.75 22.1 -3.9 21.1 -3.1 20.9 -2.85 20.9 -2.7 20.95 -2.0 20.95 -1.95 20.95 -0.75 20.95 -0.5 20.95 -0.45 Q20.45 10.6 10.3 10.8 L9.8 10.8 9.7 10.8 9.3 10.8 8.85 10.75 8.5 10.75 4.05 9.55 3.45 9.25 2.4 8.65 1.85 8.3 1.25 7.8 1.8 6.85 3.75 8.0 3.95 8.1 4.1 8.2 Q9.35 10.75 14.5 8.15 19.1 5.75 19.6 1.2 L19.65 0.95 19.65 -0.05 19.65 -0.15 19.6 -0.75 19.4 -1.95 Q18.4 -6.3 13.05 -7.15 L12.35 -7.25 11.35 -7.35 12.3 -8.65 12.9 -8.65" fill="#4f4e4e" fill-rule="evenodd" stroke="none"/>
  </g>
</svg>
