<?xml version="1.0" encoding="UTF-8" standalone="no"?>
<svg xmlns:ffdec="https://www.free-decompiler.com/flash" xmlns:xlink="http://www.w3.org/1999/xlink" ffdec:objectType="shape" height="54.7px" width="34.55px" xmlns="http://www.w3.org/2000/svg">
  <g transform="matrix(1.0, 0.0, 0.0, 1.0, 10.65, 44.25)">
    <path d="M8.55 -4.7 L10.0 -4.85 11.15 -5.0 14.05 -5.55 14.9 -5.95 13.3 -6.6 11.55 -7.25 11.65 -8.75 Q13.0 -8.75 15.4 -7.6 17.95 -6.4 18.6 -5.25 L23.15 2.35 Q23.9 3.75 23.9 4.7 23.9 7.35 19.45 9.0 15.45 10.45 10.3 10.45 L8.7 10.35 8.5 9.1 8.6 3.95 8.85 5.1 9.3 7.25 9.4 7.85 9.75 9.55 13.7 9.0 15.0 8.75 17.6 8.2 Q20.6 7.5 22.2 6.15 23.05 4.85 22.6 3.4 L21.75 1.8 17.85 -5.15 15.95 -6.4 15.15 -6.9 13.9 -7.55 14.9 -7.05 Q15.55 -6.55 15.85 -5.6 13.95 -4.65 13.25 -4.45 L12.0 -4.15 11.25 -4.05 10.6 -3.95 6.75 -3.95 7.05 -3.15 5.95 -3.15 6.2 0.4 Q6.2 1.75 5.45 5.65 L4.4 10.3 3.15 10.3 4.35 6.5 Q4.95 2.8 4.95 -3.4 4.95 -4.15 5.7 -4.35 L8.55 -4.7 M0.85 -8.5 L1.05 -8.55 1.1 -7.35 -1.2 -6.2 -1.5 -6.0 1.1 -4.75 Q1.85 -4.7 1.85 -4.5 L0.75 -0.5 -1.55 7.3 Q-2.25 9.4 -3.55 9.4 L0.3 -2.05 Q-0.7 -0.7 -3.55 7.0 -4.2 8.4 -5.7 9.0 L-7.2 9.3 -9.0 8.3 Q-10.65 6.95 -10.65 4.95 -10.65 4.5 -9.55 2.4 L-6.45 -3.55 Q-6.25 -5.05 -5.35 -6.3 -3.55 -8.7 0.85 -8.5 M-4.2 5.6 Q-2.0 0.1 -0.45 -2.6 L0.7 -4.25 0.5 -4.35 -1.7 -5.25 -2.35 -5.6 -2.45 -5.9 -1.35 -7.3 -1.25 -7.45 -4.15 -5.5 -4.55 -5.0 -8.6 2.95 -9.15 4.0 Q-9.7 5.0 -9.3 5.6 L-8.6 6.55 -6.8 8.35 Q-5.15 8.0 -4.6 6.65 L-4.2 5.6" fill="#29150c" fill-rule="evenodd" stroke="none"/>
    <path d="M14.45 -2.2 L14.45 -2.25 17.2 3.5 17.15 4.25 16.75 4.6 14.45 -2.2" fill="#844226" fill-rule="evenodd" stroke="none"/>
    <path d="M11.15 -5.0 L11.5 -6.8 11.55 -7.25 13.3 -6.6 14.9 -5.95 14.05 -5.55 11.15 -5.0 M1.1 -7.35 L1.1 -4.75 -1.5 -6.0 -1.2 -6.2 1.1 -7.35 M4.4 10.3 L5.45 5.65 Q6.2 1.75 6.2 0.4 L5.95 -3.15 7.05 -3.15 7.15 -2.85 8.6 3.95 8.5 9.1 4.4 10.3 M-3.55 9.4 L-3.55 7.0 Q-0.7 -0.7 0.3 -2.05 L-3.55 9.4" fill="#3d1f12" fill-rule="evenodd" stroke="none"/>
    <path d="M-4.15 -5.5 L-1.25 -7.45 -1.35 -7.3 -2.45 -5.9 -4.15 -5.5 M11.25 -4.05 L12.0 -4.15 11.6 -4.1 11.25 -4.05 M13.25 -4.45 Q13.95 -4.65 15.85 -5.6 15.55 -6.55 14.9 -7.05 L15.15 -6.9 15.95 -6.4 16.25 -6.1 17.3 -4.65 16.1 -3.9 14.0 -3.25 13.25 -4.45" fill="#a0502e" fill-rule="evenodd" stroke="none"/>
    <path d="M22.2 6.15 Q20.6 7.5 17.6 8.2 L17.25 6.6 19.45 5.35 Q20.0 4.9 20.0 4.5 20.0 3.0 19.3 1.6 L16.1 -3.9 17.3 -4.65 19.15 -1.1 20.75 2.75 21.4 4.25 22.2 6.15" fill="#572c1a" fill-rule="evenodd" stroke="none"/>
    <path d="M14.45 -2.25 L14.0 -3.25 16.1 -3.9 19.3 1.6 Q20.0 3.0 20.0 4.5 20.0 4.9 19.45 5.35 L17.25 6.6 17.2 6.45 16.9 5.15 16.75 4.6 17.15 4.25 17.2 3.5 14.45 -2.25" fill="#703821" fill-rule="evenodd" stroke="none"/>
    <path d="M0.5 -4.35 L0.7 -4.25 -0.45 -2.6 Q-2.0 0.1 -4.2 5.6 L-5.35 5.4 -1.15 -3.4 0.5 -4.35 M-4.6 6.65 Q-5.15 8.0 -6.8 8.35 L-5.8 6.35 -4.6 6.65 M8.6 3.95 L7.15 -2.85 10.95 -3.05 13.2 6.05 9.1 6.2 8.85 5.1 8.6 3.95 M13.9 -3.25 L14.45 -2.2 16.75 4.6 15.7 5.3 14.5 5.75 12.1 -3.15 13.9 -3.25" fill="#cecebb" fill-rule="evenodd" stroke="none"/>
    <path d="M0.5 -4.35 L-1.15 -3.4 -2.8 -4.05 -1.7 -5.25 0.5 -4.35 M-4.55 -5.0 L-4.15 -5.5 -2.45 -5.9 -2.35 -5.6 -3.65 -4.4 -4.55 -5.0 M7.15 -2.85 L7.05 -3.15 6.75 -3.95 10.6 -3.95 10.95 -3.05 7.15 -2.85 M12.0 -4.15 L13.25 -4.45 14.0 -3.25 13.9 -3.25 12.1 -3.15 11.6 -4.1 12.0 -4.15 M14.9 -7.05 L13.9 -7.55 15.15 -6.9 14.9 -7.05 M15.95 -6.4 L17.85 -5.15 17.3 -4.65 16.25 -6.1 15.95 -6.4" fill="#f7f7f4" fill-rule="evenodd" stroke="none"/>
    <path d="M13.9 -3.25 L14.0 -3.25 14.45 -2.25 14.45 -2.2 13.9 -3.25 M13.2 6.05 L13.25 6.4 9.3 7.25 9.1 6.2 13.2 6.05 M16.75 4.6 L16.9 5.15 Q14.55 6.1 14.5 5.75 L15.7 5.3 16.75 4.6 M17.2 6.45 L17.25 6.6 14.85 7.65 14.75 7.25 17.2 6.45 M9.45 7.85 L13.45 7.5 13.55 8.05 9.6 8.65 9.45 7.85" fill="#abaa9a" fill-rule="evenodd" stroke="none"/>
    <path d="M-5.35 5.4 L-4.2 5.6 -4.6 6.65 -5.8 6.35 -7.75 5.3 -8.6 6.55 -9.3 5.6 -8.55 4.6 -9.15 4.0 -8.6 2.95 -7.95 3.6 -3.65 -4.4 -2.35 -5.6 -1.7 -5.25 -2.8 -4.05 -7.15 4.45 -5.35 5.4 M10.6 -3.95 L11.25 -4.05 11.6 -4.1 12.1 -3.15 14.5 5.75 Q14.55 6.1 16.9 5.15 L17.2 6.45 14.75 7.25 14.85 7.65 15.0 8.75 13.7 9.0 13.55 8.05 13.45 7.5 9.45 7.85 9.4 7.85 9.3 7.25 13.25 6.4 13.2 6.05 10.95 -3.05 10.6 -3.95 M21.75 1.8 L22.6 3.4 21.4 4.25 20.75 2.75 21.75 1.8" fill="#9d282c" fill-rule="evenodd" stroke="none"/>
    <path d="M-1.15 -3.4 L-5.35 5.4 -7.15 4.45 -2.8 -4.05 -1.15 -3.4 M-6.8 8.35 L-8.6 6.55 -7.75 5.3 -5.8 6.35 -6.8 8.35 M-9.3 5.6 Q-9.7 5.0 -9.15 4.0 L-8.55 4.6 -9.3 5.6 M-8.6 2.95 L-4.55 -5.0 -3.65 -4.4 -7.95 3.6 -8.6 2.95 M17.85 -5.15 L21.75 1.8 20.75 2.75 19.15 -1.1 17.3 -4.65 17.85 -5.15 M22.6 3.4 Q23.05 4.85 22.2 6.15 L21.4 4.25 22.6 3.4 M17.6 8.2 L15.0 8.75 14.85 7.65 17.25 6.6 17.6 8.2 M13.7 9.0 L9.75 9.55 9.6 8.65 13.55 8.05 13.7 9.0" fill="#959480" fill-rule="evenodd" stroke="none"/>
    <path d="M10.0 -4.85 L10.5 -13.65 Q10.5 -24.05 8.7 -32.25 6.35 -43.0 1.8 -43.0 -1.2 -43.0 -2.9 -40.95 -4.3 -39.25 -4.3 -37.2 -4.3 -34.5 -1.65 -28.9 1.25 -22.9 1.6 -19.8 2.1 -15.7 2.1 -6.55 L2.15 6.15 Q1.45 5.2 1.05 3.3 0.65 1.4 0.75 -0.5 L1.85 -4.5 Q1.85 -4.7 1.1 -4.75 L1.1 -7.35 1.05 -8.55 0.85 -8.5 Q0.8 -14.85 -0.15 -19.95 -0.8 -23.5 -1.5 -24.9 L-4.1 -29.35 Q-5.6 -32.5 -5.6 -37.25 -5.6 -38.4 -4.8 -40.35 L-4.3 -40.7 Q-3.85 -41.15 -3.85 -41.8 -3.85 -43.0 -1.25 -43.7 L1.8 -44.25 Q6.35 -44.25 8.75 -37.45 11.9 -28.35 11.5 -6.8 L11.15 -5.0 10.0 -4.85" fill="#a46637" fill-rule="evenodd" stroke="none"/>
    <path d="M2.15 6.15 L2.1 -6.55 Q2.1 -15.7 1.6 -19.8 1.25 -22.9 -1.65 -28.9 -4.3 -34.5 -4.3 -37.2 -4.3 -39.25 -2.9 -40.95 -1.2 -43.0 1.8 -43.0 6.35 -43.0 8.7 -32.25 10.5 -24.05 10.5 -13.65 L10.0 -4.85 8.55 -4.7 8.75 -14.15 6.0 -12.05 Q3.8 -10.0 3.9 -6.55 3.9 -3.9 3.25 0.65 L2.6 5.7 2.6 6.35 2.15 6.15" fill="#e7a867" fill-rule="evenodd" stroke="none"/>
    <path d="M2.6 6.35 L2.6 5.7 3.25 0.65 Q3.9 -3.9 3.9 -6.55 3.8 -10.0 6.0 -12.05 L8.75 -14.15 8.55 -4.7 5.7 -4.35 Q4.95 -4.15 4.95 -3.4 4.95 2.8 4.35 6.5 L2.65 6.45 2.65 6.35 2.6 6.35" fill="#f4bb83" fill-rule="evenodd" stroke="none"/>
  </g>
</svg>
