<?xml version="1.0" encoding="UTF-8" standalone="no"?>
<svg xmlns:ffdec="https://www.free-decompiler.com/flash" xmlns:xlink="http://www.w3.org/1999/xlink" ffdec:objectType="shape" height="19.1px" width="21.35px" xmlns="http://www.w3.org/2000/svg">
  <g transform="matrix(1.0, 0.0, 0.0, 1.0, 10.5, 8.4)">
    <path d="M-1.6 -4.05 L-5.7 -2.1 -5.95 -3.8 -5.8 -4.85 -5.65 -5.6 -4.25 -6.1 Q-3.0 -5.45 -1.6 -4.05 M4.35 3.35 Q0.95 4.45 -1.9 6.05 L-3.4 2.9 Q-0.9 1.5 2.05 0.45 L4.35 3.35" fill="#ffffff" fill-rule="evenodd" stroke="none"/>
    <path d="M-0.05 -4.65 L-1.6 -4.05 Q-3.0 -5.45 -4.25 -6.1 L-5.65 -5.6 -5.8 -4.85 -5.95 -3.8 -5.7 -2.1 -6.8 -1.45 -7.05 -3.5 -6.7 -5.55 -3.25 -7.15 Q-1.85 -6.65 -0.05 -4.65 M6.25 2.8 L4.35 3.35 2.05 0.45 2.95 0.15 3.6 -0.05 6.2 2.75 6.25 2.8 M-1.9 6.05 L-4.55 7.65 -5.3 4.05 -3.4 2.9 -1.9 6.05" fill="#e0e0e0" fill-rule="evenodd" stroke="none"/>
    <path d="M-0.9 -8.05 L0.1 -7.25 2.2 -5.35 0.8 -4.95 -0.05 -4.65 Q-1.85 -6.65 -3.25 -7.15 L-0.9 -8.05 M-6.8 -1.45 L-9.25 0.2 Q-9.85 -1.85 -9.6 -3.65 L-9.55 -3.8 -6.7 -5.55 -7.05 -3.5 -6.8 -1.45 M6.45 -0.8 L8.5 1.45 9.1 2.1 6.25 2.8 6.2 2.75 3.6 -0.05 6.45 -0.8 M-4.55 7.65 L-7.05 9.6 -7.1 9.35 -7.7 5.8 Q-6.6 4.85 -5.3 4.05 L-4.55 7.65" fill="#b4b4b4" fill-rule="evenodd" stroke="none"/>
    <path d="M-0.9 -8.05 L-0.6 -8.15 0.25 -8.4 0.65 -8.2 0.6 -8.2 Q2.3 -7.3 3.6 -5.75 L2.2 -5.35 0.1 -7.25 -0.9 -8.05 M-9.25 0.2 L-10.25 1.05 -10.3 0.95 Q-10.7 -1.25 -10.2 -3.35 L-9.55 -3.8 -9.6 -3.65 Q-9.85 -1.85 -9.25 0.2 M6.45 -0.8 L8.1 -1.15 10.85 1.8 9.1 2.1 8.5 1.45 6.45 -0.8 M-7.05 9.6 L-8.25 10.7 -9.05 6.95 -7.7 5.8 -7.1 9.35 -7.05 9.6" fill="#464646" fill-rule="evenodd" stroke="none"/>
  </g>
</svg>
