<?xml version="1.0" encoding="UTF-8" standalone="no"?>
<svg xmlns:ffdec="https://www.free-decompiler.com/flash" xmlns:xlink="http://www.w3.org/1999/xlink" ffdec:objectType="shape" height="4.55px" width="40.25px" xmlns="http://www.w3.org/2000/svg">
  <g transform="matrix(1.0, 0.0, 0.0, 1.0, 25.55, 15.05)">
    <path d="M-24.7 -10.5 L-25.35 -10.9 Q-25.6 -11.25 -25.5 -11.65 L-25.15 -12.3 Q-18.85 -16.9 -12.45 -12.3 L-12.05 -11.65 Q-12.0 -11.25 -12.25 -10.9 L-12.85 -10.5 -13.6 -10.65 Q-18.85 -14.4 -23.95 -10.7 -24.3 -10.45 -24.7 -10.5 M14.25 -12.35 L14.7 -11.7 14.55 -10.95 Q14.3 -10.6 13.9 -10.5 L13.15 -10.65 Q5.85 -15.35 -1.5 -10.65 L-2.25 -10.5 -2.9 -10.95 -3.0 -11.7 -2.6 -12.35 Q5.85 -17.75 14.25 -12.35" fill="#291b16" fill-rule="evenodd" stroke="none"/>
  </g>
</svg>
