<?xml version="1.0" encoding="UTF-8" standalone="no"?>
<svg xmlns:ffdec="https://www.free-decompiler.com/flash" xmlns:xlink="http://www.w3.org/1999/xlink" ffdec:objectType="shape" height="45.6px" width="80.0px" xmlns="http://www.w3.org/2000/svg">
  <g transform="matrix(1.0, 0.0, 0.0, 1.0, 55.0, 31.5)">
    <path d="M2.9 -19.5 L4.0 -18.85 1.7 -18.05 1.75 -20.15 2.7 -19.65 2.55 -19.5 2.9 -19.5 M-5.0 -23.65 L-3.95 -23.15 -10.3 -11.55 Q-12.15 -17.95 -15.0 -20.9 -17.9 -23.85 -21.6 -26.85 L-23.0 -23.25 -24.5 -19.7 -32.1 -26.4 Q-32.45 -25.05 -33.45 -23.45 -34.45 -21.85 -35.4 -20.6 L-37.2 -18.7 -38.3 -17.8 Q-39.3 -21.85 -40.05 -23.85 L-49.6 -18.45 -49.8 -21.05 -49.25 -24.3 -48.5 -27.3 -48.75 -26.85 -52.35 -19.35 -52.7 -18.55 -53.85 -20.55 Q-54.9 -22.8 -55.0 -25.35 L-54.45 -26.0 -53.75 -26.6 Q-53.9 -24.55 -53.45 -22.25 L-53.05 -20.9 Q-51.2 -25.35 -49.2 -28.2 L-48.7 -28.85 -48.35 -29.35 -47.85 -29.9 -45.15 -30.65 -46.15 -29.2 Q-48.05 -25.95 -48.65 -20.75 L-48.65 -20.3 -39.8 -25.2 -38.45 -22.75 -38.05 -20.25 -35.3 -23.6 -32.7 -27.1 Q-31.1 -27.4 -28.65 -25.55 -26.25 -23.75 -25.05 -21.45 L-24.35 -23.0 Q-24.2 -24.8 -21.75 -28.2 -21.05 -28.05 -18.45 -26.2 -15.35 -23.9 -13.65 -21.65 L-12.15 -19.1 -10.4 -15.5 -10.05 -14.7 -5.0 -23.65 M-2.4 -20.6 L-3.35 -22.9 -1.75 -22.1 -1.2 -21.8 -2.4 -20.6" fill="#606060" fill-rule="evenodd" stroke="none"/>
    <path d="M2.7 -19.65 L2.9 -19.5 2.55 -19.5 2.7 -19.65 M-51.4 -28.35 Q-49.95 -29.25 -48.1 -29.85 L-47.85 -29.9 -48.35 -29.35 -48.7 -28.85 -49.2 -28.2 Q-51.2 -25.35 -53.05 -20.9 L-53.45 -22.25 Q-52.6 -25.55 -51.4 -28.35 M-22.4 -29.9 L-18.1 -28.75 Q-15.15 -25.25 -13.65 -21.65 -15.35 -23.9 -18.45 -26.2 -21.05 -28.05 -21.75 -28.2 L-22.4 -29.9 M-6.45 -24.35 L-5.4 -23.85 -5.0 -23.65 -10.05 -14.7 -10.4 -15.5 Q-8.3 -17.15 -6.75 -23.25 L-6.45 -24.35 M-24.35 -23.0 L-25.05 -21.45 Q-26.25 -23.75 -28.65 -25.55 -31.1 -27.4 -32.7 -27.1 L-32.15 -28.4 Q-31.55 -29.7 -30.55 -30.3 L-24.35 -23.0 M-38.45 -22.75 L-39.8 -25.2 -48.65 -20.3 -48.65 -20.75 Q-41.05 -28.1 -39.9 -28.4 -39.4 -28.15 -38.45 -22.75" fill="#989898" fill-rule="evenodd" stroke="none"/>
    <path d="M-53.75 -26.6 L-53.25 -27.1 -52.85 -27.4 -52.8 -27.4 -51.4 -28.35 Q-52.6 -25.55 -53.45 -22.25 -53.9 -24.55 -53.75 -26.6 M-45.15 -30.65 L-43.45 -30.95 -44.05 -30.35 Q-47.75 -26.5 -46.95 -24.25 -46.7 -24.1 -42.0 -29.15 L-40.0 -31.35 -37.45 -31.5 -36.85 -31.5 Q-37.35 -29.75 -37.35 -27.35 -37.35 -25.75 -36.75 -23.45 -34.5 -24.6 -33.7 -28.6 -33.35 -30.15 -33.45 -31.45 L-29.55 -31.15 Q-28.8 -29.25 -27.05 -27.35 L-24.45 -25.05 -24.0 -25.7 -24.95 -29.6 -25.15 -30.45 -22.4 -29.9 -21.75 -28.2 Q-24.2 -24.8 -24.35 -23.0 L-30.55 -30.3 Q-31.55 -29.7 -32.15 -28.4 L-32.7 -27.1 -35.3 -23.6 -38.05 -20.25 -38.45 -22.75 Q-39.4 -28.15 -39.9 -28.4 -41.05 -28.1 -48.65 -20.75 -48.05 -25.95 -46.15 -29.2 L-45.15 -30.65 M-27.4 -30.85 L-26.55 -30.7 -26.7 -29.85 -27.15 -30.65 -27.4 -30.85 M-18.1 -28.75 L-14.9 -27.75 -14.6 -27.2 -14.5 -27.1 -9.6 -18.5 Q-8.9 -19.75 -8.25 -25.15 L-6.45 -24.35 -6.75 -23.25 Q-8.3 -17.15 -10.4 -15.5 L-12.15 -19.1 -13.65 -21.65 Q-15.15 -25.25 -18.1 -28.75" fill="#d1d1d1" fill-rule="evenodd" stroke="none"/>
    <path d="M-43.45 -30.95 L-40.0 -31.35 -42.0 -29.15 Q-46.7 -24.1 -46.95 -24.25 -47.75 -26.5 -44.05 -30.35 L-43.45 -30.95 M-36.85 -31.5 L-33.45 -31.45 Q-33.35 -30.15 -33.7 -28.6 -34.5 -24.6 -36.75 -23.45 -37.35 -25.75 -37.35 -27.35 -37.35 -29.75 -36.85 -31.5 M-29.55 -31.15 L-27.4 -30.85 -27.15 -30.65 -26.7 -29.85 -26.55 -30.7 -25.15 -30.45 -24.95 -29.6 -24.0 -25.7 -24.45 -25.05 -27.05 -27.35 Q-28.8 -29.25 -29.55 -31.15 M-14.9 -27.75 L-8.25 -25.15 Q-8.9 -19.75 -9.6 -18.5 L-14.5 -27.1 -14.6 -27.2 -14.9 -27.75" fill="#ffffff" fill-rule="evenodd" stroke="none"/>
    <path d="M18.45 -6.6 L19.95 -4.7 Q22.8 -0.8 24.05 2.75 23.1 8.0 20.75 12.85 20.15 8.3 17.35 6.55 18.55 2.4 18.55 -3.2 L18.45 -6.6" fill="url(#gradient0)" fill-rule="evenodd" stroke="none"/>
    <path d="M9.95 -3.85 L10.5 -6.3 11.4 -10.9 10.5 -14.0 10.35 -14.45 Q15.05 -10.75 18.45 -6.6 L18.55 -3.2 Q18.55 2.4 17.35 6.55 L14.95 5.85 12.15 5.15 Q11.15 5.0 9.5 4.0 9.95 1.15 9.95 -2.7 L9.95 -3.85" fill="url(#gradient1)" fill-rule="evenodd" stroke="none"/>
    <path d="M9.5 4.0 Q8.8 3.95 8.75 3.15 L8.7 1.45 9.95 -3.85 9.95 -2.7 Q9.95 1.15 9.5 4.0" fill="#b9a99b" fill-opacity="0.29803923" fill-rule="evenodd" stroke="none"/>
    <path d="M24.05 2.75 L24.85 5.9 25.0 7.5 25.0 7.55 Q24.0 10.95 22.4 14.1 L20.85 13.05 20.75 12.85 Q23.1 8.0 24.05 2.75" fill="#8e7c71" fill-opacity="0.69411767" fill-rule="evenodd" stroke="none"/>
  </g>
  <defs>
    <linearGradient gradientTransform="matrix(0.0029, -0.008, 0.0328, 0.0121, 50.9, 6.95)" gradientUnits="userSpaceOnUse" id="gradient0" spreadMethod="pad" x1="-819.2" x2="819.2">
      <stop offset="0.0" stop-color="#8e7c71" stop-opacity="0.4"/>
      <stop offset="1.0" stop-color="#cbc8c0"/>
    </linearGradient>
    <linearGradient gradientTransform="matrix(0.0, -0.0122, 0.0293, 0.0, 8.3, -12.75)" gradientUnits="userSpaceOnUse" id="gradient1" spreadMethod="pad" x1="-819.2" x2="819.2">
      <stop offset="0.0" stop-color="#b9a99b" stop-opacity="0.4"/>
      <stop offset="1.0" stop-color="#ebe8e0"/>
    </linearGradient>
  </defs>
</svg>
