<?xml version="1.0" encoding="UTF-8" standalone="no"?>
<svg xmlns:ffdec="https://www.free-decompiler.com/flash" xmlns:xlink="http://www.w3.org/1999/xlink" ffdec:objectType="shape" height="64.9px" width="25.4px" xmlns="http://www.w3.org/2000/svg">
  <g transform="matrix(1.0, 0.0, 0.0, 1.0, 7.9, 3.35)">
    <path d="M7.2 48.85 L9.25 48.85 9.95 56.0 9.5 56.9 8.5 58.5 7.2 48.85" fill="#f1b67a" fill-rule="evenodd" stroke="none"/>
    <path d="M0.2 49.35 L7.2 48.85 8.5 58.5 7.45 59.4 6.25 59.55 Q3.65 59.55 1.65 57.75 L1.6 57.7 Q1.05 57.2 0.85 56.6 L0.7 55.85 0.2 49.35" fill="#ffce9d" fill-rule="evenodd" stroke="none"/>
    <path d="M9.25 48.85 L11.6 49.0 11.7 50.85 11.8 52.65 12.05 56.25 11.8 58.05 Q11.6 58.7 9.8 60.35 8.0 61.95 5.1 61.4 2.15 60.8 0.4 59.25 L0.05 56.6 -0.65 53.3 -0.85 51.5 -1.1 49.55 0.2 49.35 0.7 55.85 0.85 56.6 Q1.05 57.2 1.6 57.7 L1.65 57.75 Q3.65 59.55 6.25 59.55 L7.45 59.4 8.5 58.5 9.5 56.9 9.95 56.0 9.25 48.85" fill="#aa6a40" fill-rule="evenodd" stroke="none"/>
    <path d="M9.9 23.85 L9.15 20.4 11.05 21.05 11.7 24.0 11.6 24.05 Q11.0 24.3 10.45 24.05 L9.9 23.85 M11.2 29.85 L10.4 26.2 Q11.4 26.65 12.4 27.25 L13.0 30.15 11.9 29.85 11.2 29.85 M11.85 32.9 L13.8 33.7 16.05 44.3 17.15 48.25 17.5 49.7 Q17.5 50.6 16.45 51.35 14.95 52.5 11.8 52.65 L11.7 50.85 15.5 49.8 11.6 49.0 9.25 48.85 7.2 48.85 0.2 49.35 -1.1 49.55 Q-4.5 50.3 -5.25 50.75 L-5.1 50.8 -0.85 51.5 -0.65 53.3 Q-4.0 53.4 -5.65 52.35 L-7.05 50.65 -7.3 36.1 -5.55 35.0 -5.4 44.4 Q-5.25 44.35 -5.3 46.25 -5.1 46.2 -5.2 46.55 L-5.35 48.9 -1.45 47.85 1.75 47.4 7.15 47.1 11.5 47.25 15.05 47.8 14.45 44.95 14.3 44.95 14.2 43.05 14.0 43.05 11.85 32.9 M-7.35 32.55 L-7.4 29.2 -5.65 27.85 -5.6 31.9 -6.3 32.0 -7.35 32.55 M-5.7 25.75 L-5.9 25.75 -6.95 25.3 Q-7.4 24.85 -7.4 24.25 -7.4 23.6 -6.9 23.2 L-5.75 22.2 -5.7 25.75" fill="#384000" fill-rule="evenodd" stroke="none"/>
    <path d="M4.9 22.55 L4.1 22.0 Q3.7 21.45 3.8 20.85 3.85 20.25 4.35 19.9 L4.9 22.55 M-1.45 19.95 L-1.2 19.85 -0.05 20.0 Q0.45 20.3 0.65 20.9 L0.5 22.05 Q0.2 22.55 -0.4 22.75 L-1.25 23.05 -1.45 19.95 M-1.1 25.5 Q2.05 24.35 5.35 24.75 L6.2 28.9 Q5.8 28.45 5.2 28.4 2.0 28.15 -0.9 29.35 L-1.1 25.5 M-0.7 32.5 L-0.3 32.35 Q2.2 31.2 4.95 31.4 L6.05 31.05 6.5 30.4 7.9 38.05 7.85 39.3 Q7.75 40.05 7.15 40.55 6.6 40.95 4.4 41.55 L1.5 42.15 Q-0.4 42.15 -0.6 40.5 L-0.55 38.05 -1.0 34.0 -0.65 33.3 -0.7 32.5 M1.75 47.4 L1.7 44.7 6.95 44.4 7.15 47.1 1.75 47.4" fill="#b0c60b" fill-rule="evenodd" stroke="none"/>
    <path d="M-3.5 20.75 L-1.45 19.95 -1.25 23.05 Q-2.4 23.45 -3.4 24.15 L-3.45 22.55 -3.5 20.75 M4.35 19.9 Q4.85 19.5 5.45 19.6 L6.7 19.8 7.25 23.0 5.05 22.55 4.9 22.55 4.35 19.9 M5.35 24.75 L7.65 25.2 8.6 30.95 9.9 37.4 10.9 42.7 9.9 42.65 9.85 42.65 5.05 42.7 -1.15 43.3 -1.2 43.3 -2.05 43.45 -2.25 43.5 -2.95 36.8 -3.35 26.45 Q-2.25 25.85 -1.1 25.5 L-0.9 29.35 -1.6 29.65 Q-2.15 29.9 -2.35 30.5 L-2.3 31.65 -1.45 32.4 -0.7 32.5 -0.65 33.3 -1.0 34.0 -0.55 38.05 -0.6 40.5 Q-0.4 42.15 1.5 42.15 L4.4 41.55 Q6.6 40.95 7.15 40.55 7.75 40.05 7.85 39.3 L7.9 38.05 6.5 30.4 6.55 30.05 Q6.6 29.4 6.2 28.95 L6.2 28.9 5.35 24.75 M1.7 44.7 L1.75 47.4 -1.45 47.85 -1.55 45.15 -1.6 45.15 1.7 44.7 M7.15 47.1 L6.95 44.4 10.95 44.45 11.5 47.25 7.15 47.1" fill="#93a603" fill-rule="evenodd" stroke="none"/>
    <path d="M6.7 19.8 L9.15 20.4 9.9 23.85 7.25 23.0 6.7 19.8 M7.65 25.2 L10.4 26.2 11.2 29.85 Q10.95 29.9 10.75 30.05 10.25 30.4 10.1 31.0 9.95 31.6 10.3 32.1 L11.25 32.75 11.85 32.9 14.0 43.05 13.65 43.0 10.9 42.7 9.9 37.4 8.6 30.95 7.65 25.2 M-3.35 26.45 L-2.95 36.8 -2.25 43.5 -2.45 43.55 -4.5 44.1 -5.4 44.4 -5.55 35.0 -5.1 34.75 Q-4.55 34.5 -4.3 33.9 -4.05 33.35 -4.35 32.75 -4.6 32.2 -5.15 31.95 L-5.6 31.9 -5.65 27.85 -3.35 26.45 M-1.6 45.15 L-1.55 45.15 -1.45 47.85 -5.35 48.9 -5.2 46.55 Q-5.1 46.2 -5.3 46.25 L-1.6 45.15 M14.3 44.95 L14.45 44.95 15.05 47.8 11.5 47.25 10.95 44.45 14.3 44.95 M-5.7 25.75 L-5.75 22.2 -3.5 20.75 -3.45 22.55 -3.4 24.15 -4.85 25.35 Q-5.25 25.7 -5.7 25.75" fill="#778700" fill-rule="evenodd" stroke="none"/>
    <path d="M10.9 42.7 L13.65 43.0 14.0 43.05 14.2 43.05 14.3 44.95 10.95 44.45 6.95 44.4 1.7 44.7 -1.6 45.15 -5.3 46.25 Q-5.25 44.35 -5.4 44.4 L-4.5 44.1 -2.45 43.55 -2.25 43.5 -2.05 43.45 -1.2 43.3 -1.15 43.3 5.05 42.7 9.85 42.65 9.9 42.65 10.9 42.7 M11.6 49.0 L15.5 49.8 11.7 50.85 11.6 49.0 M-1.1 49.55 L-0.85 51.5 -5.1 50.8 -5.25 50.75 Q-4.5 50.3 -1.1 49.55" fill="#5a6600" fill-rule="evenodd" stroke="none"/>
    <path d="M9.15 20.4 L8.15 15.75 6.25 7.2 6.15 6.5 6.0 6.25 Q4.15 -1.45 3.35 -2.95 5.15 -2.5 6.2 -1.45 L11.05 21.05 9.15 20.4 M10.4 26.2 L9.9 23.85 10.45 24.05 Q11.0 24.3 11.6 24.05 L11.7 24.0 12.4 27.25 Q11.4 26.65 10.4 26.2 M11.85 32.9 L11.2 29.85 11.9 29.85 13.0 30.15 13.8 33.7 11.85 32.9 M-7.3 36.1 L-7.35 32.55 -6.3 32.0 -5.6 31.9 -5.55 35.0 -7.3 36.1 M-7.4 29.2 L-7.9 0.4 -7.1 -0.55 Q-6.45 -1.05 -6.15 -1.35 L-5.75 22.2 -6.9 23.2 Q-7.4 23.6 -7.4 24.25 -7.4 24.85 -6.95 25.3 L-5.9 25.75 -5.7 25.75 -5.65 27.85 -7.4 29.2" fill="#955402" fill-rule="evenodd" stroke="none"/>
    <path d="M6.7 19.8 L6.4 18.05 3.9 5.2 2.85 1.95 1.7 -1.3 1.3 -3.3 1.6 -3.3 3.35 -2.95 Q4.15 -1.45 6.0 6.25 L6.15 6.5 6.25 7.2 8.15 15.75 9.15 20.4 6.7 19.8 M-4.8 -2.1 L-5.1 -1.95 -5.25 -0.3 Q-5.25 4.05 -4.4 10.5 -3.65 16.0 -3.5 20.75 L-5.75 22.2 -6.15 -1.35 -4.8 -2.1 M7.25 23.0 L9.9 23.85 10.4 26.2 7.65 25.2 7.25 23.0 M11.85 32.9 L11.25 32.75 10.3 32.1 Q9.95 31.6 10.1 31.0 10.25 30.4 10.75 30.05 10.95 29.9 11.2 29.85 L11.85 32.9 M-5.65 27.85 L-5.7 25.75 Q-5.25 25.7 -4.85 25.35 L-3.4 24.15 -3.35 26.45 -5.65 27.85 M-5.6 31.9 L-5.15 31.95 Q-4.6 32.2 -4.35 32.75 -4.05 33.35 -4.3 33.9 -4.55 34.5 -5.1 34.75 L-5.55 35.0 -5.6 31.9" fill="#ffbd00" fill-rule="evenodd" stroke="none"/>
    <path d="M1.3 -3.3 L1.7 -1.3 2.85 1.95 3.9 5.2 6.4 18.05 6.7 19.8 5.45 19.6 Q4.85 19.5 4.35 19.9 L4.25 19.45 2.25 10.15 1.75 5.4 Q1.35 2.55 -0.3 0.8 -1.85 0.55 -2.25 2.35 L-2.4 4.8 -1.45 19.95 -3.5 20.75 Q-3.65 16.0 -4.4 10.5 -5.25 4.05 -5.25 -0.3 L-5.1 -1.95 -4.8 -2.1 -4.65 -2.2 -4.6 -2.2 -4.2 -2.35 -3.75 -2.5 -0.9 -3.3 -0.85 -3.3 1.3 -3.3 M4.9 22.55 L5.05 22.55 7.25 23.0 7.65 25.2 5.35 24.75 4.9 22.55 M-1.25 23.05 L-1.1 25.5 Q-2.25 25.85 -3.35 26.45 L-3.4 24.15 Q-2.4 23.45 -1.25 23.05 M6.5 30.4 L6.45 30.25 6.2 28.9 6.2 28.95 Q6.6 29.4 6.55 30.05 L6.5 30.4 M-0.9 29.35 L-0.7 32.5 -1.45 32.4 -2.3 31.65 -2.35 30.5 Q-2.15 29.9 -1.6 29.65 L-0.9 29.35" fill="#ffd900" fill-rule="evenodd" stroke="none"/>
    <path d="M-1.45 19.95 L-2.4 4.8 -2.25 2.35 Q-1.85 0.55 -0.3 0.8 1.35 2.55 1.75 5.4 L2.25 10.15 4.25 19.45 4.35 19.9 Q3.85 20.25 3.8 20.85 3.7 21.45 4.1 22.0 L4.9 22.55 5.35 24.75 Q2.05 24.35 -1.1 25.5 L-1.25 23.05 -0.4 22.75 Q0.2 22.55 0.5 22.05 L0.65 20.9 Q0.45 20.3 -0.05 20.0 L-1.2 19.85 -1.45 19.95 M6.2 28.9 L6.45 30.25 6.5 30.4 6.05 31.05 4.95 31.4 Q2.2 31.2 -0.3 32.35 L-0.7 32.5 -0.9 29.35 Q2.0 28.15 5.2 28.4 5.8 28.45 6.2 28.9" fill="#ffe851" fill-rule="evenodd" stroke="none"/>
  </g>
</svg>
