<?xml version="1.0" encoding="UTF-8" standalone="no"?>
<svg xmlns:ffdec="https://www.free-decompiler.com/flash" xmlns:xlink="http://www.w3.org/1999/xlink" ffdec:objectType="shape" height="52.1px" width="81.45px" xmlns="http://www.w3.org/2000/svg">
  <g transform="matrix(1.0, 0.0, 0.0, 1.0, 50.1, 31.5)">
    <path d="M7.35 -16.65 L7.8 -16.35 8.25 -16.05 Q9.8 -13.4 10.25 -10.2 10.95 -4.95 12.55 0.2 13.1 1.95 13.95 3.5 15.15 6.75 16.95 9.35 L18.85 11.75 Q20.8 13.9 23.1 14.8 L24.1 15.15 25.1 15.35 28.55 18.25 26.9 18.6 Q21.0 19.35 16.2 13.65 14.6 11.65 13.4 9.35 11.95 6.65 11.05 3.5 L10.35 1.6 Q8.8 -3.5 9.0 -9.05 9.15 -13.25 7.35 -16.65 M17.8 -7.4 L18.45 -6.6 19.55 -5.2 18.5 -2.75 17.8 -7.4 M19.9 -4.75 L19.95 -4.7 Q23.4 0.05 24.55 4.3 L24.0 4.05 23.0 3.5 Q21.1 2.3 19.65 0.4 L19.9 -4.75 M-48.65 -29.65 L-48.1 -29.85 -45.55 -30.55 -45.45 -30.5 Q-42.75 -29.05 -38.0 -29.05 L-37.05 -29.2 -35.5 -29.5 -34.7 -30.45 -34.5 -30.7 -33.7 -31.45 -31.6 -31.35 Q-31.75 -29.15 -29.75 -27.4 -29.25 -26.95 -28.5 -26.75 L-25.4 -26.8 -21.6 -27.1 -14.45 -27.45 -14.0 -27.4 -10.05 -25.9 -12.4 -25.7 -15.4 -25.7 -22.95 -25.25 -23.4 -25.2 -25.4 -25.2 -29.4 -25.2 Q-30.8 -25.3 -31.6 -26.3 -32.35 -25.65 -33.25 -25.5 L-34.5 -25.15 -34.7 -25.15 -42.05 -25.65 -44.1 -27.65 -44.35 -27.7 Q-46.45 -28.3 -48.05 -29.25 L-48.65 -29.65" fill="#989898" fill-rule="evenodd" stroke="none"/>
    <path d="M8.25 -16.05 L12.35 -12.8 12.95 -9.5 Q13.45 -5.25 14.5 -1.35 15.2 1.2 16.35 3.5 L17.0 5.5 Q18.1 8.4 19.45 7.75 L18.15 3.5 Q16.9 0.5 16.45 -2.75 L15.25 -10.1 17.8 -7.4 18.5 -2.75 Q18.55 -0.25 19.2 1.95 L19.7 3.5 Q20.5 6.6 21.7 9.35 22.6 11.55 23.85 13.5 L24.75 14.9 25.1 15.35 24.1 15.15 23.1 14.8 Q20.8 13.9 18.85 11.75 L16.95 9.35 Q15.15 6.75 13.95 3.5 13.1 1.95 12.55 0.2 10.95 -4.95 10.25 -10.2 9.8 -13.4 8.25 -16.05 M-45.55 -30.55 L-37.45 -31.5 -33.7 -31.45 -34.5 -30.7 -34.7 -30.45 -35.5 -29.5 -37.05 -29.2 -38.0 -29.05 Q-42.75 -29.05 -45.45 -30.5 L-45.55 -30.55 M-31.6 -31.35 L-28.05 -30.95 -27.65 -30.5 Q-27.65 -30.35 -26.95 -30.1 L-25.65 -29.8 -25.4 -29.8 -23.9 -29.85 -22.45 -29.9 Q-18.35 -28.95 -14.0 -27.4 L-14.45 -27.45 -21.6 -27.1 -25.4 -26.8 -28.5 -26.75 Q-29.25 -26.95 -29.75 -27.4 -31.75 -29.15 -31.6 -31.35" fill="#d1d1d1" fill-rule="evenodd" stroke="none"/>
    <path d="M12.35 -12.8 L15.25 -10.1 16.45 -2.75 Q16.9 0.5 18.15 3.5 L19.45 7.75 Q18.1 8.4 17.0 5.5 L16.35 3.5 Q15.2 1.2 14.5 -1.35 13.45 -5.25 12.95 -9.5 L12.35 -12.8 M-28.05 -30.95 L-22.45 -29.9 -23.9 -29.85 -25.4 -29.8 -25.65 -29.8 -26.95 -30.1 Q-27.65 -30.35 -27.65 -30.5 L-28.05 -30.95" fill="#ffffff" fill-rule="evenodd" stroke="none"/>
    <path d="M24.55 4.3 L24.8 5.4 24.25 5.15 21.8 4.1 20.05 2.65 20.4 3.5 Q21.15 6.6 22.55 9.35 L23.75 11.6 24.3 12.3 26.0 14.35 26.3 14.7 31.35 17.75 Q29.5 20.65 26.7 20.6 21.15 20.35 16.55 15.85 13.75 13.1 11.85 9.35 10.45 6.7 9.55 3.5 L8.65 1.1 Q7.25 -3.4 7.3 -8.15 7.35 -14.05 3.5 -18.35 L1.6 -20.25 6.05 -17.5 7.35 -16.65 Q9.15 -13.25 9.0 -9.05 8.8 -3.5 10.35 1.6 L11.05 3.5 Q11.95 6.65 13.4 9.35 14.6 11.65 16.2 13.65 21.0 19.35 26.9 18.6 L28.55 18.25 25.1 15.35 24.75 14.9 23.85 13.5 Q22.6 11.55 21.7 9.35 20.5 6.6 19.7 3.5 L19.2 1.95 Q18.55 -0.25 18.5 -2.75 L19.55 -5.2 19.9 -4.75 19.65 0.4 Q21.1 2.3 23.0 3.5 L24.0 4.05 24.55 4.3 M-42.05 -25.65 L-45.5 -26.4 Q-48.3 -27.1 -50.1 -29.05 L-48.65 -29.65 -48.05 -29.25 Q-46.45 -28.3 -44.35 -27.7 L-44.1 -27.65 -42.05 -25.65 M-10.05 -25.9 L-7.75 -24.9 -12.4 -25.7 -10.05 -25.9" fill="#606060" fill-rule="evenodd" stroke="none"/>
  </g>
</svg>
