<?xml version="1.0" encoding="UTF-8" standalone="no"?>
<svg xmlns:ffdec="https://www.free-decompiler.com/flash" xmlns:xlink="http://www.w3.org/1999/xlink" ffdec:objectType="shape" height="33.7px" width="29.8px" xmlns="http://www.w3.org/2000/svg">
  <g transform="matrix(1.0, 0.0, 0.0, 1.0, 25.35, 117.65)">
    <path d="M-24.2 -90.05 Q-25.1 -92.05 -25.35 -94.35 L-23.5 -98.1 -14.75 -114.9 Q-10.6 -117.65 -6.2 -117.65 L-5.1 -117.6 -9.4 -108.0 Q-11.5 -103.15 -12.75 -102.45 L-13.7 -102.75 -13.8 -103.7 -12.75 -106.8 Q-11.6 -110.2 -11.05 -112.85 L-10.9 -114.05 Q-15.05 -107.95 -18.7 -101.5 -22.45 -94.85 -24.2 -90.05 M-6.75 -98.1 Q-5.75 -97.9 -5.45 -97.6 -6.95 -95.35 -13.9 -95.35 -16.95 -95.35 -18.55 -96.95 L-18.4 -97.05 -15.4 -97.75 -8.55 -98.35 -6.75 -98.1 M-18.9 -91.35 L-18.9 -91.25 Q-19.15 -92.0 -18.25 -92.25 L-15.55 -92.45 -15.4 -92.15 -15.4 -91.85 -15.75 -91.2 -17.55 -90.95 Q-18.4 -90.95 -18.9 -91.35" fill="#8a8a8a" fill-rule="evenodd" stroke="none"/>
    <path d="M3.35 -99.4 Q2.05 -95.25 -0.6 -91.9 -2.55 -90.75 -3.25 -90.7 -16.65 -89.35 -18.35 -88.5 -19.7 -87.85 -20.0 -86.35 L-20.1 -85.3 Q-22.2 -86.55 -23.6 -88.9 L-24.2 -90.05 Q-22.45 -94.85 -18.7 -101.5 -15.05 -107.95 -10.9 -114.05 L-11.05 -112.85 Q-11.6 -110.2 -12.75 -106.8 L-13.8 -103.7 -13.7 -102.75 -12.75 -102.45 Q-11.5 -103.15 -9.4 -108.0 L-5.1 -117.6 Q-1.6 -117.3 0.75 -115.05 -1.7 -108.75 -5.15 -104.3 -5.8 -103.5 -9.35 -102.2 -13.3 -100.75 -15.4 -101.1 L-16.05 -100.5 Q-14.45 -98.6 -2.45 -98.6 0.95 -98.6 3.35 -99.4 M-2.2 -92.65 Q-1.45 -92.9 -0.8 -93.85 L-1.5 -95.15 Q-1.85 -95.5 -2.55 -95.5 L-6.3 -94.85 -9.7 -94.25 -14.85 -94.55 Q-19.35 -94.85 -19.65 -94.65 L-20.05 -93.95 Q-19.25 -93.35 -16.9 -92.8 -13.7 -92.0 -9.95 -92.0 L-2.2 -92.65 M-6.75 -98.1 L-8.55 -98.35 -15.4 -97.75 -18.4 -97.05 -18.55 -96.95 Q-16.95 -95.35 -13.9 -95.35 -6.95 -95.35 -5.45 -97.6 -5.75 -97.9 -6.75 -98.1 M-18.9 -91.35 Q-18.4 -90.95 -17.55 -90.95 L-15.75 -91.2 -15.4 -91.85 -15.4 -92.15 -15.55 -92.45 -18.25 -92.25 Q-19.15 -92.0 -18.9 -91.25 L-18.9 -91.35" fill="#b4b4b4" fill-rule="evenodd" stroke="none"/>
    <path d="M0.75 -115.05 L2.6 -112.7 2.95 -112.1 0.9 -109.0 Q-1.45 -104.9 -1.45 -102.95 -1.45 -102.25 -1.05 -101.85 -0.7 -101.5 -0.15 -101.5 1.45 -101.5 3.1 -103.85 3.95 -105.0 4.45 -106.4 4.55 -103.8 3.75 -100.8 L3.35 -99.4 Q0.95 -98.6 -2.45 -98.6 -14.45 -98.6 -16.05 -100.5 L-15.4 -101.1 Q-13.3 -100.75 -9.35 -102.2 -5.8 -103.5 -5.15 -104.3 -1.7 -108.75 0.75 -115.05 M-0.6 -91.9 L-3.45 -88.9 -4.7 -87.8 -14.1 -87.05 Q-17.25 -86.7 -17.7 -84.3 -19.0 -84.65 -20.1 -85.3 L-20.0 -86.35 Q-19.7 -87.85 -18.35 -88.5 -16.65 -89.35 -3.25 -90.7 -2.55 -90.75 -0.6 -91.9 M-2.2 -92.65 L-9.95 -92.0 Q-13.7 -92.0 -16.9 -92.8 -19.25 -93.35 -20.05 -93.95 L-19.65 -94.65 Q-19.35 -94.85 -14.85 -94.55 L-9.7 -94.25 -6.3 -94.85 -2.55 -95.5 Q-1.85 -95.5 -1.5 -95.15 L-0.8 -93.85 Q-1.45 -92.9 -2.2 -92.65" fill="#e0e0e0" fill-rule="evenodd" stroke="none"/>
    <path d="M2.95 -112.1 Q4.35 -109.55 4.45 -106.4 3.95 -105.0 3.1 -103.85 1.45 -101.5 -0.15 -101.5 -0.7 -101.5 -1.05 -101.85 -1.45 -102.25 -1.45 -102.95 -1.45 -104.9 0.9 -109.0 L2.95 -112.1 M-4.7 -87.8 Q-9.5 -83.95 -14.7 -83.95 L-17.7 -84.3 Q-17.25 -86.7 -14.1 -87.05 L-4.7 -87.8" fill="#ffffff" fill-rule="evenodd" stroke="none"/>
  </g>
</svg>
