<?xml version="1.0" encoding="UTF-8" standalone="no"?>
<svg xmlns:ffdec="https://www.free-decompiler.com/flash" xmlns:xlink="http://www.w3.org/1999/xlink" ffdec:objectType="shape" height="80.85px" width="42.35px" xmlns="http://www.w3.org/2000/svg">
  <g transform="matrix(1.0, 0.0, 0.0, 1.0, 33.7, 42.75)">
    <path d="M-14.3 16.8 Q-8.6 23.8 -1.2 29.25 3.2 32.5 7.4 34.6 L7.75 35.0 7.75 35.6 6.75 37.7 6.5 38.0 6.1 38.1 5.7 38.0 Q1.65 35.85 -2.6 32.7 -10.6 26.8 -16.9 19.15 L-18.9 16.55 -20.35 14.6 Q-23.95 9.55 -26.85 3.8 L-28.35 0.7 Q-35.6 -15.15 -33.05 -27.65 -30.9 -38.55 -22.55 -42.0 L-20.35 -42.75 -20.35 -41.2 -21.95 -40.6 Q-29.6 -37.35 -31.6 -27.35 -34.05 -15.0 -26.7 0.7 L-25.5 3.1 Q-23.15 7.75 -20.35 11.95 -12.7 23.35 -1.7 31.5 2.1 34.3 5.7 36.35 L6.05 35.6 Q2.05 33.55 -2.1 30.45 -12.95 22.45 -20.35 11.05 -22.7 7.45 -24.65 3.5 L-26.0 0.7 Q-32.85 -14.1 -30.45 -25.8 -28.4 -36.05 -20.35 -39.2 L-20.35 -37.55 -20.45 -37.5 -20.85 -37.3 Q-21.1 -37.2 -21.3 -37.05 -27.35 -33.85 -29.0 -25.5 -31.3 -14.0 -24.35 0.7 L-23.3 2.8 -20.35 8.2 -16.3 14.25 -14.3 16.8" fill="#4f4f4f" fill-rule="evenodd" stroke="none"/>
    <path d="M-20.35 -41.2 L-20.35 -40.55 -20.35 -39.2 Q-28.4 -36.05 -30.45 -25.8 -32.85 -14.1 -26.0 0.7 L-24.65 3.5 Q-22.7 7.45 -20.35 11.05 -12.95 22.45 -2.1 30.45 2.05 33.55 6.05 35.6 L5.7 36.35 Q2.1 34.3 -1.7 31.5 -12.7 23.35 -20.35 11.95 -23.15 7.75 -25.5 3.1 L-26.7 0.7 Q-34.05 -15.0 -31.6 -27.35 -29.6 -37.35 -21.95 -40.6 L-20.35 -41.2" fill="#9e9e9e" fill-rule="evenodd" stroke="none"/>
    <path d="M-20.35 -40.55 L-20.1 -40.7 Q-16.55 -42.4 -14.0 -42.0 -2.9 -41.8 0.3 -38.75 2.25 -35.05 5.0 -33.65 7.85 -30.7 8.45 -28.4 8.65 -27.55 8.65 -23.65 8.65 -16.5 5.95 -11.25 L-2.9 2.65 -5.9 5.9 Q-8.1 8.0 -8.55 9.25 -9.65 12.0 -13.3 15.75 L-14.3 16.8 -16.3 14.25 -20.35 8.2 -23.3 2.8 -24.35 0.7 Q-31.3 -14.0 -29.0 -25.5 -27.35 -33.85 -21.3 -37.05 -21.1 -37.2 -20.85 -37.3 L-20.45 -37.5 -20.35 -37.55 -20.35 -39.2 -20.35 -40.55" fill="#808080" fill-rule="evenodd" stroke="none"/>
  </g>
</svg>
