<?xml version="1.0" encoding="UTF-8" standalone="no"?>
<svg xmlns:ffdec="https://www.free-decompiler.com/flash" xmlns:xlink="http://www.w3.org/1999/xlink" ffdec:objectType="shape" height="134.75px" width="28.55px" xmlns="http://www.w3.org/2000/svg">
  <g transform="matrix(1.0, 0.0, 0.0, 1.0, 17.7, 135.15)">
    <path d="M6.45 -132.45 L7.25 -132.85 7.4 -132.85 Q8.1 -132.8 9.05 -131.45 L10.8 -128.35 10.85 -128.15 10.85 -128.0 10.75 -127.85 10.65 -127.75 10.6 -127.7 10.1 -127.25 10.1 -127.2 9.95 -127.05 9.05 -125.9 9.1 -125.9 8.9 -125.65 8.4 -124.75 6.75 -121.5 6.65 -121.2 4.8 -116.65 4.55 -116.0 4.35 -115.35 4.35 -115.3 3.5 -112.7 1.1 -103.3 1.05 -103.05 0.2 -99.1 0.2 -99.0 -0.25 -96.8 -0.3 -96.7 -0.45 -95.8 -1.4 -90.9 -1.55 -90.2 -1.55 -90.1 -1.95 -87.9 -3.2 -80.7 -3.55 -78.75 -3.7 -77.25 -3.85 -76.05 -4.55 -68.1 -4.8 -64.65 -5.6 -54.5 -5.65 -53.85 -6.0 -49.2 -6.3 -45.55 -6.4 -44.2 -6.75 -40.0 -6.8 -39.2 -7.0 -37.0 -7.05 -36.5 -7.05 -36.05 -8.05 -23.85 -8.2 -22.2 -8.65 -16.75 -9.0 -12.1 -9.15 -10.3 -9.35 -8.45 -9.45 -7.1 -9.45 -7.05 -9.35 -4.55 -9.4 -4.3 -9.6 -4.1 -9.9 -4.05 -11.95 -4.25 -12.85 -0.75 -13.05 -0.45 -13.4 -0.4 -15.65 -0.7 Q-15.85 -0.7 -15.95 -0.85 L-16.1 -1.15 -16.35 -4.7 -17.2 -4.8 Q-17.4 -4.8 -17.5 -4.95 L-17.55 -4.95 -17.65 -5.3 -17.7 -7.5 -17.7 -7.6 -17.7 -7.65 -17.65 -7.75 -17.65 -8.05 -17.25 -12.15 -13.6 -50.55 -12.0 -67.95 -11.25 -76.15 -11.1 -77.5 -10.95 -78.9 -10.95 -78.95 -10.85 -79.85 -10.85 -79.9 -10.85 -80.1 -10.85 -80.2 -10.85 -80.3 -10.8 -80.4 Q-11.15 -83.3 -12.1 -101.15 L-12.15 -102.7 -12.3 -105.8 -12.35 -108.35 -12.25 -114.65 -12.15 -116.3 Q-11.55 -124.95 -9.3 -128.75 L-6.4 -133.55 -6.25 -133.75 -6.15 -133.9 -5.5 -134.7 -5.1 -135.05 -4.45 -135.0 -4.35 -134.9 Q-4.0 -134.45 -3.6 -132.8 L-3.6 -132.7 -3.6 -132.55 -3.65 -132.45 Q-5.15 -129.65 -6.05 -125.05 L-6.15 -124.55 -6.25 -124.0 -6.35 -123.2 -6.4 -123.05 -6.45 -122.4 -6.5 -122.25 -7.2 -104.7 -7.05 -100.65 -7.05 -100.2 -7.0 -99.45 -6.9 -97.2 -6.75 -94.9 Q-5.25 -105.85 -3.65 -111.5 L-2.65 -115.0 -0.5 -121.65 0.0 -123.0 1.0 -125.45 Q2.25 -128.15 3.35 -129.35 L4.05 -130.1 4.05 -130.15 4.55 -130.7 5.45 -131.6 5.7 -131.8 5.85 -131.95 6.25 -132.3 6.3 -132.3 6.3 -132.35 6.45 -132.45 M8.4 -126.7 L9.3 -127.85 9.35 -127.85 9.45 -128.0 9.75 -128.3 8.25 -130.85 7.25 -131.85 6.95 -131.6 6.9 -131.55 6.15 -130.9 6.15 -130.85 5.9 -130.65 5.85 -130.55 4.8 -129.45 4.75 -129.45 4.1 -128.7 3.85 -128.4 Q3.25 -127.7 2.7 -126.6 L1.9 -125.05 1.2 -123.35 0.95 -122.65 Q-0.8 -118.3 -2.7 -111.25 -4.45 -105.05 -6.05 -92.55 L-6.35 -90.4 -6.4 -89.95 -6.4 -89.9 -4.25 -80.6 -4.2 -80.85 -3.6 -84.4 -2.55 -90.4 -2.5 -90.6 -1.3 -96.7 -1.3 -96.9 0.0 -103.05 0.05 -103.25 Q1.8 -111.2 3.4 -115.65 L3.4 -115.6 3.45 -115.85 3.85 -117.0 5.85 -121.9 6.0 -122.2 Q7.15 -124.9 8.25 -126.45 L8.4 -126.7 M-7.7 -120.8 L-7.5 -122.35 -7.25 -124.15 -7.0 -125.5 Q-6.1 -129.95 -4.6 -132.75 L-4.95 -133.85 -5.55 -133.0 -6.65 -131.3 -8.45 -128.25 Q-10.6 -124.55 -11.15 -116.25 L-11.35 -110.2 -11.35 -108.35 -11.1 -101.2 -10.1 -82.45 -9.3 -84.65 -7.4 -90.15 -7.8 -95.95 -8.05 -100.15 Q-8.65 -112.55 -7.7 -120.8 M-10.15 -76.95 L-10.15 -76.7 -10.3 -75.3 -10.65 -71.8 -11.7 -60.05 -12.5 -51.3 -12.6 -50.45 -13.25 -43.1 -16.25 -12.1 -16.25 -12.05 -16.65 -8.05 -14.7 -7.9 -12.2 -7.75 -10.4 -7.6 -10.0 -12.1 -10.0 -12.15 -9.65 -16.45 -9.65 -16.85 -9.25 -21.55 -9.2 -22.3 -8.05 -36.6 -7.95 -37.45 -7.8 -39.3 -7.75 -40.05 -7.4 -44.25 -7.2 -46.8 -6.7 -53.15 -6.65 -53.95 -5.8 -64.7 -5.55 -68.2 -5.45 -69.05 -5.0 -74.6 -4.85 -76.15 -4.7 -77.2 -5.1 -76.9 -7.55 -75.9 -7.75 -75.9 -7.9 -75.9 Q-8.7 -75.95 -9.35 -76.45 L-10.1 -77.25 -10.15 -76.95 M-9.85 -79.8 L-9.95 -78.9 -9.85 -78.8 -9.85 -78.75 Q-8.95 -77.0 -7.7 -76.9 -6.45 -76.9 -4.8 -78.5 L-7.0 -88.2 -9.85 -80.15 -9.85 -79.8 M-16.65 -5.75 L-15.85 -5.65 -12.3 -5.3 -10.35 -5.1 -10.4 -6.6 -16.65 -7.05 -16.65 -5.75 M-13.7 -1.45 L-13.6 -1.85 -13.6 -1.8 -12.95 -4.35 -15.35 -4.6 -15.25 -2.55 -15.2 -2.8 -15.1 -1.65 -13.7 -1.45" fill="#464646" fill-rule="evenodd" stroke="none"/>
    <path d="M8.9 -125.65 L9.1 -125.9 9.05 -125.9 9.95 -127.05 8.9 -125.6 8.9 -125.65 M5.9 -130.65 L6.15 -130.85 6.15 -130.9 6.9 -131.55 6.95 -131.6 7.25 -131.85 8.25 -130.85 9.75 -128.3 9.45 -128.0 9.35 -127.85 9.3 -127.85 8.4 -126.7 Q7.2 -129.15 5.9 -130.65 M-11.35 -110.2 L-11.15 -116.25 Q-10.6 -124.55 -8.45 -128.25 L-6.65 -131.3 -5.55 -133.0 -4.95 -133.85 -4.6 -132.75 Q-6.1 -129.95 -7.0 -125.5 L-7.25 -124.15 -7.5 -122.35 -7.7 -120.8 Q-9.4 -116.9 -10.9 -111.8 L-11.35 -110.2 M-12.2 -7.75 L-14.7 -7.9 -13.45 -8.25 -12.2 -7.75 M-13.7 -1.45 L-15.1 -1.65 -15.2 -2.8 -15.25 -2.55 -15.35 -4.6 -12.95 -4.35 -13.6 -1.8 -13.6 -1.85 -13.7 -1.45" fill="#8a8a8a" fill-rule="evenodd" stroke="none"/>
    <path d="M8.4 -124.75 L8.9 -125.65 8.9 -125.6 8.4 -124.75 M8.4 -126.7 L8.25 -126.45 Q7.15 -124.9 6.0 -122.2 L5.95 -122.25 Q4.4 -124.5 3.25 -125.3 L1.2 -123.35 1.9 -125.05 2.7 -126.6 3.7 -128.1 3.65 -128.1 3.85 -128.4 4.1 -128.7 4.75 -129.45 4.8 -129.45 5.85 -130.55 5.9 -130.65 Q7.2 -129.15 8.4 -126.7 M-3.6 -84.4 L-4.2 -80.85 -5.0 -83.95 -6.35 -90.4 -6.05 -92.55 Q-4.8 -90.75 -3.95 -87.35 L-3.5 -85.05 -3.6 -84.4 M-7.7 -120.8 Q-8.65 -112.55 -8.05 -100.15 L-7.8 -95.95 -9.3 -84.65 -10.1 -82.45 -11.1 -101.2 -11.35 -108.35 -11.35 -110.2 -10.9 -111.8 Q-9.4 -116.9 -7.7 -120.8 M-13.25 -43.1 L-12.6 -50.45 -12.5 -51.3 -11.7 -60.05 -10.65 -71.8 -10.3 -75.3 -10.15 -76.7 -10.15 -76.95 -9.35 -76.45 Q-8.7 -75.95 -7.9 -75.9 L-7.75 -75.9 -7.55 -75.9 -5.1 -76.9 -4.75 -77.15 -4.7 -77.2 -4.85 -76.15 -5.0 -74.6 -5.05 -74.45 -7.5 -74.3 -8.75 -74.35 -8.05 -74.3 Q-8.25 -70.4 -10.9 -55.5 -12.2 -48.1 -13.25 -43.1 M-10.0 -12.1 L-10.4 -7.6 -12.2 -7.75 -13.45 -8.25 -14.7 -7.9 -16.65 -8.05 -16.25 -12.05 -16.25 -12.1 -16.05 -12.1 -12.55 -12.1 -12.5 -12.15 -10.85 -12.05 -10.0 -12.1 M-9.85 -79.8 L-9.85 -80.15 -7.0 -88.2 -4.8 -78.5 Q-6.45 -76.9 -7.7 -76.9 -8.95 -77.0 -9.85 -78.75 L-9.85 -78.8 -9.95 -78.9 -9.85 -79.8 M-16.65 -5.75 L-16.65 -7.05 -10.4 -6.6 -10.35 -5.1 -12.3 -5.3 -15.85 -5.65 -16.65 -5.75" fill="#b4b4b4" fill-rule="evenodd" stroke="none"/>
    <path d="M-1.95 -87.9 L-1.55 -90.1 -1.95 -87.9 M6.0 -122.2 L5.85 -121.9 3.85 -117.0 3.45 -115.85 3.05 -116.15 Q2.15 -115.25 -0.35 -109.85 L-1.0 -108.45 Q-2.95 -104.3 -3.05 -103.15 L-2.6 -103.05 -1.45 -102.95 -1.0 -102.95 0.0 -103.05 -1.3 -96.9 -1.3 -96.7 Q-2.3 -96.5 -3.0 -95.8 -4.0 -94.8 -4.0 -93.4 -4.0 -92.0 -3.0 -91.0 L-2.5 -90.6 -2.55 -90.4 -3.6 -84.4 -3.5 -85.05 -3.95 -87.35 Q-4.8 -90.75 -6.05 -92.55 -4.45 -105.05 -2.7 -111.25 -0.8 -118.3 0.95 -122.65 L1.2 -123.35 3.25 -125.3 Q4.4 -124.5 5.95 -122.25 L6.0 -122.2 M-4.2 -80.85 L-4.25 -80.6 -6.4 -89.9 -6.4 -89.95 -6.35 -90.4 -5.0 -83.95 -4.2 -80.85 M-7.8 -95.95 L-7.4 -90.15 -9.3 -84.65 -7.8 -95.95 M-10.15 -76.95 L-10.1 -77.25 -9.35 -76.45 -10.15 -76.95 M-5.1 -76.9 L-4.7 -77.2 -4.75 -77.15 -5.1 -76.9 M-5.45 -69.05 L-5.55 -68.2 -5.8 -64.7 -6.65 -53.95 -6.7 -53.15 Q-7.5 -52.0 -7.5 -51.05 L-7.3 -48.4 -7.2 -46.8 -7.4 -44.25 -7.75 -40.05 -7.8 -39.3 -8.1 -38.45 -7.95 -37.45 -8.05 -36.6 -9.2 -22.3 -9.25 -21.55 -9.4 -21.35 Q-12.0 -17.85 -12.0 -15.75 L-11.95 -15.05 -11.85 -14.9 -9.65 -16.45 -10.0 -12.15 -10.0 -12.1 -10.85 -12.05 -12.5 -12.15 -12.55 -12.1 -16.05 -12.1 -16.25 -12.1 -13.25 -43.1 Q-12.2 -48.1 -10.9 -55.5 -8.25 -70.4 -8.05 -74.3 L-8.75 -74.35 -7.5 -74.3 -5.05 -74.45 Q-6.1 -71.6 -5.5 -69.1 L-5.45 -69.05" fill="#e0e0e0" fill-rule="evenodd" stroke="none"/>
    <path d="M-7.05 -36.05 L-7.05 -36.5 -7.0 -37.0 -7.05 -36.05 M-1.55 -90.1 L-1.55 -90.2 -1.4 -90.9 -1.55 -90.1 M3.45 -115.85 L3.4 -115.6 3.4 -115.65 Q1.8 -111.2 0.05 -103.25 L0.0 -103.05 -1.0 -102.95 -1.45 -102.95 -2.6 -103.05 -3.05 -103.15 Q-2.95 -104.3 -1.0 -108.45 L-0.35 -109.85 Q2.15 -115.25 3.05 -116.15 L3.45 -115.85 M-1.3 -96.7 L-2.5 -90.6 -3.0 -91.0 Q-4.0 -92.0 -4.0 -93.4 -4.0 -94.8 -3.0 -95.8 -2.3 -96.5 -1.3 -96.7 M-5.0 -74.6 L-5.45 -69.05 -5.5 -69.1 Q-6.1 -71.6 -5.05 -74.45 L-5.0 -74.6 M-6.7 -53.15 L-7.2 -46.8 -7.3 -48.4 -7.5 -51.05 Q-7.5 -52.0 -6.7 -53.15 M-7.8 -39.3 L-7.95 -37.45 -8.1 -38.45 -7.8 -39.3 M-9.25 -21.55 L-9.65 -16.85 -9.65 -16.45 -11.85 -14.9 -11.95 -15.05 -12.0 -15.75 Q-12.0 -17.85 -9.4 -21.35 L-9.25 -21.55" fill="#ffffff" fill-rule="evenodd" stroke="none"/>
    <path d="M6.45 -132.45 L6.3 -132.35 6.3 -132.3 6.25 -132.3 6.45 -132.45 M5.7 -131.8 L5.45 -131.6 5.7 -131.8 M-6.35 -123.2 L-6.25 -124.0 -6.15 -124.55 -6.35 -123.2 M10.1 -127.25 L10.6 -127.7 10.65 -127.75 10.1 -127.25" fill="#ff0000" fill-rule="evenodd" stroke="none"/>
  </g>
</svg>
