<?xml version="1.0" encoding="UTF-8" standalone="no"?>
<svg xmlns:ffdec="https://www.free-decompiler.com/flash" xmlns:xlink="http://www.w3.org/1999/xlink" ffdec:objectType="shape" height="292.7px" width="132.65px" xmlns="http://www.w3.org/2000/svg">
  <g transform="matrix(1.0, 0.0, 0.0, 1.0, 41.4, 259.1)">
    <path d="M-14.7 -140.6 L-15.65 -152.3 -0.25 -148.2 -1.6 -148.3 Q-2.55 -148.35 -4.9 -147.55 -5.75 -147.25 -6.25 -149.3 L-9.1 -146.6 -14.7 -140.6 M2.7 -147.4 L35.35 -138.75 35.35 -138.5 Q37.75 -112.75 36.9 -86.6 L36.45 -88.65 36.3 -92.05 33.1 -106.55 Q32.6 -107.85 31.6 -108.05 29.5 -114.3 28.0 -116.8 25.7 -120.55 21.4 -128.6 L19.65 -131.2 20.05 -131.6 20.05 -132.15 19.3 -134.1 19.1 -134.55 18.8 -134.75 Q16.05 -137.15 13.3 -137.45 L11.2 -138.8 Q9.35 -139.85 7.7 -141.65 L4.35 -145.45 3.0 -147.1 2.7 -147.4 M-7.6 -138.1 L-7.85 -138.05 -7.75 -139.0 -7.6 -138.1 M-3.95 -55.05 L-4.75 -54.8 -8.0 -55.5 Q-10.55 -56.2 -10.75 -56.6 L-9.7 -56.7 -3.75 -55.4 -3.95 -55.05 M-7.15 -50.95 Q-7.05 -50.7 -5.75 -50.2 -6.15 -49.9 -7.95 -49.4 L-9.75 -48.95 -10.5 -49.0 -10.5 -49.2 -9.55 -50.45 -7.55 -52.15 -7.15 -50.95" fill="#484848" fill-rule="evenodd" stroke="none"/>
    <path d="M-16.15 -138.85 L-14.7 -140.6 -9.1 -146.6 -6.25 -149.3 Q-5.75 -147.25 -4.9 -147.55 -2.55 -148.35 -1.6 -148.3 L-0.25 -148.2 1.35 -148.1 Q2.0 -148.05 2.7 -147.4 L3.0 -147.1 4.35 -145.45 7.7 -141.65 Q9.35 -139.85 11.2 -138.8 L13.3 -137.45 11.9 -137.5 Q9.7 -138.95 7.7 -139.1 L8.3 -136.25 8.65 -134.55 9.55 -130.15 9.75 -129.3 9.75 -129.25 10.45 -126.45 10.45 -126.4 11.1 -123.55 13.6 -112.7 Q14.15 -108.0 13.7 -105.85 L7.9 -101.25 7.25 -100.75 5.05 -99.2 Q6.95 -95.65 7.55 -93.5 L7.8 -91.95 6.4 -85.5 5.8 -82.6 5.8 -82.45 5.2 -79.5 1.7 -60.6 1.25 -57.8 0.75 -54.7 Q-0.55 -46.5 -0.55 -43.25 L1.7 -22.85 Q2.55 -13.85 2.75 -6.35 L3.05 3.1 Q3.05 12.55 1.95 20.95 L18.0 18.95 Q24.8 18.05 32.6 16.0 30.65 18.3 26.1 19.2 L19.95 19.9 0.75 22.2 Q-0.25 22.2 0.55 21.8 L1.35 15.9 Q1.65 13.4 1.65 2.3 1.65 -10.35 1.05 -18.25 0.3 -28.2 -2.1 -42.55 L-2.2 -43.6 -2.35 -46.65 -2.55 -49.6 -2.45 -52.85 -2.55 -56.2 -2.6 -57.4 -2.7 -57.8 -2.75 -58.6 -2.75 -60.35 -2.75 -60.45 -2.7 -61.4 -2.65 -63.65 -2.5 -73.65 -2.15 -88.8 -2.1 -90.5 -1.95 -88.6 Q-1.7 -82.85 -1.6 -71.45 L-1.45 -59.25 -1.45 -55.7 -1.35 -46.8 1.45 -63.6 Q1.35 -63.6 2.8 -72.5 L4.7 -83.3 6.5 -92.25 Q6.2 -92.6 6.05 -93.1 L5.35 -94.85 4.15 -98.45 Q1.45 -97.75 -0.4 -95.05 -1.65 -93.3 -2.05 -91.5 -0.85 -97.7 -2.35 -113.05 L-4.25 -134.1 -3.95 -137.0 -4.0 -137.55 -4.85 -137.5 -6.3 -137.75 -4.75 -140.25 Q-3.55 -142.3 -3.55 -142.9 -3.55 -144.7 -4.6 -145.35 -5.5 -145.95 -7.85 -145.95 L-8.75 -146.0 Q-8.95 -145.95 -8.95 -145.3 -8.95 -145.1 -11.5 -140.65 L-14.25 -135.4 -15.05 -133.35 -15.6 -131.4 -18.7 -120.75 -18.4 -122.5 -15.85 -134.65 -14.7 -138.4 -15.5 -137.15 -16.0 -136.4 -21.1 -128.65 Q-24.95 -122.25 -24.95 -117.25 -24.95 -116.1 -23.75 -111.65 -22.3 -106.25 -20.75 -103.95 L-20.25 -110.75 -20.35 -106.95 -19.15 -96.65 -17.35 -85.5 -18.55 -106.95 Q-18.55 -111.25 -15.05 -122.75 -15.9 -119.15 -16.2 -115.0 -16.5 -110.45 -16.3 -103.75 L-16.0 -93.6 Q-16.0 -88.7 -15.3 -81.6 L-14.65 -74.9 Q-14.65 -74.15 -15.8 -67.5 L-17.05 -60.95 -17.15 -60.7 Q-17.45 -60.4 -17.45 -59.45 -17.4 -58.7 -17.95 -58.7 L-18.2 -58.75 -18.45 -62.95 Q-18.85 -60.3 -20.0 -56.45 L-23.9 -43.4 -24.55 -41.25 Q-29.65 -25.55 -32.25 -19.6 L-35.05 -12.75 Q-38.0 -4.45 -39.55 -1.55 L-40.35 0.0 Q-40.35 1.55 -34.85 4.0 -30.2 6.05 -27.45 6.6 L-27.1 8.2 Q-28.6 7.6 -35.4 5.35 -41.4 2.9 -41.4 0.1 L-38.45 -7.3 Q-33.25 -20.3 -24.4 -47.05 -20.7 -58.25 -20.3 -60.8 L-19.05 -68.4 -25.7 -102.75 -24.05 -106.9 -23.85 -107.95 Q-23.85 -110.0 -25.2 -112.7 -26.55 -115.4 -26.55 -118.4 -26.55 -123.75 -21.75 -131.3 -19.45 -134.9 -16.15 -138.85 M52.25 -35.65 L52.55 -34.7 52.95 -33.2 Q54.6 -27.1 58.5 -9.55 L61.35 3.15 Q61.35 6.05 58.8 7.9 55.9 10.0 46.35 13.55 L44.35 14.2 41.75 15.0 40.0 15.35 Q39.35 15.35 38.55 14.1 L35.45 9.3 34.45 12.05 33.05 15.45 35.1 7.3 Q36.2 8.05 37.25 11.2 39.1 13.75 45.5 12.5 L45.75 12.4 53.9 9.55 Q59.55 7.15 59.55 4.45 59.55 3.0 59.0 0.25 L55.85 -13.9 Q53.9 -22.8 51.2 -33.3 L50.55 -35.85 49.85 -38.55 49.45 -40.05 49.35 -40.4 44.85 -56.55 44.4 -58.05 42.6 -63.75 40.85 -68.85 Q39.75 -71.85 38.3 -76.8 L38.0 -77.95 36.75 -82.55 36.35 -83.9 36.45 -88.6 36.45 -88.65 36.9 -86.6 38.2 -80.9 39.0 -77.75 39.85 -74.55 Q41.4 -68.85 42.95 -64.1 L43.75 -61.55 44.9 -58.05 45.4 -56.55 50.85 -40.05 51.35 -38.5 52.25 -35.65 M17.85 -131.55 L19.05 -131.2 19.65 -131.2 21.4 -128.6 Q25.7 -120.55 28.0 -116.8 29.5 -114.3 31.6 -108.05 L31.55 -108.05 32.05 -106.55 32.1 -101.05 Q28.4 -115.55 24.6 -121.55 L17.85 -131.55 M5.65 -139.8 Q4.45 -142.85 2.3 -144.3 1.25 -145.0 -4.15 -147.3 L-3.5 -146.45 Q-2.9 -145.65 -2.75 -143.15 L-2.65 -138.5 -1.95 -122.65 Q-1.25 -108.45 -1.25 -103.8 L-1.3 -96.25 13.1 -108.0 8.4 -129.2 Q6.65 -137.15 5.65 -139.8 M1.15 -42.0 L1.65 -43.05 Q2.3 -44.05 3.25 -44.05 5.55 -44.05 7.2 -42.7 8.85 -41.35 8.85 -39.45 8.05 -37.95 6.7 -37.1 5.65 -36.45 4.95 -36.45 3.85 -36.45 2.7 -37.4 1.3 -38.6 0.95 -40.7 L1.15 -42.0 M6.0 -19.0 Q8.1 -19.0 9.6 -17.6 11.1 -16.2 11.1 -14.2 10.3 -12.7 8.95 -11.85 7.9 -11.2 7.2 -11.2 5.6 -11.2 4.4 -12.35 3.2 -13.55 3.2 -15.2 L3.3 -16.1 3.6 -16.85 4.75 -17.95 6.0 -19.0 M5.25 8.45 Q6.2 6.4 7.55 5.75 L10.15 5.9 Q11.45 6.7 11.95 8.5 12.45 10.25 12.15 11.65 L12.1 12.05 Q11.3 13.6 10.0 14.4 8.95 15.05 7.9 15.05 7.15 15.05 6.1 14.25 4.95 13.35 4.35 12.05 4.35 11.4 4.65 10.3 4.9 9.15 5.25 8.45 M3.2 -42.2 Q2.45 -41.5 2.45 -40.45 2.45 -39.4 3.2 -38.65 3.9 -37.95 4.95 -37.95 6.0 -37.95 6.75 -38.65 7.45 -39.4 7.45 -40.45 7.45 -41.5 6.75 -42.2 6.0 -42.95 4.95 -42.95 3.9 -42.95 3.2 -42.2 M5.45 -16.95 Q4.7 -16.25 4.7 -15.2 4.7 -14.15 5.45 -13.4 6.15 -12.7 7.2 -12.7 8.25 -12.7 9.0 -13.4 9.7 -14.15 9.7 -15.2 9.7 -16.25 9.0 -16.95 8.25 -17.7 7.2 -17.7 6.15 -17.7 5.45 -16.95 M8.2 8.55 Q7.15 8.55 6.45 9.3 5.7 10.0 5.7 11.05 5.7 12.1 6.45 12.85 7.15 13.55 8.2 13.55 9.25 13.55 10.0 12.85 10.7 12.1 10.7 11.05 10.7 10.0 10.0 9.3 9.25 8.55 8.2 8.55 M-7.9 -137.7 L-7.9 -137.65 Q-8.0 -137.15 -8.6 -136.35 -11.1 -133.45 -12.75 -129.75 -9.95 -137.45 -7.75 -139.0 L-7.85 -138.05 -7.9 -137.7 M-22.0 -101.0 L-23.0 -105.65 Q-23.8 -103.5 -20.6 -83.45 L-17.25 -63.85 -16.65 -67.7 Q-16.1 -71.65 -16.1 -72.3 L-19.55 -89.35 -20.75 -95.05 -20.7 -95.35 -21.2 -98.45 -21.95 -101.7 -22.0 -101.0" fill="#39420f" fill-rule="evenodd" stroke="none"/>
    <path d="M12.75 -128.0 Q13.75 -130.0 15.1 -130.9 26.05 -122.5 32.1 -97.95 L32.15 -88.6 Q32.15 -81.1 30.7 -74.85 L30.5 -74.15 Q23.65 -104.85 15.35 -120.85 L16.35 -115.65 16.85 -111.1 Q16.85 -108.25 13.7 -101.3 L11.2 -96.1 10.8 -98.5 13.7 -105.85 Q14.15 -108.0 13.6 -112.7 L13.75 -112.35 13.75 -112.0 14.25 -113.95 12.95 -120.85 Q12.3 -124.45 12.3 -126.25 L12.75 -128.0 M5.65 -139.8 Q6.65 -137.15 8.4 -129.2 L13.1 -108.0 -1.3 -96.25 -1.25 -103.8 Q-1.25 -108.45 -1.95 -122.65 L-2.65 -138.5 -2.75 -143.15 Q-2.9 -145.65 -3.5 -146.45 L-4.15 -147.3 Q1.25 -145.0 2.3 -144.3 4.45 -142.85 5.65 -139.8 M2.9 -141.05 Q0.8 -141.95 -0.1 -142.75 0.0 -107.85 -0.65 -99.65 L11.5 -109.5 Q7.3 -134.35 5.15 -138.75 4.3 -140.45 2.9 -141.05 M27.85 -105.75 L27.75 -106.6 27.4 -106.95 27.1 -106.6 26.95 -105.75 Q26.95 -105.25 27.1 -104.9 27.2 -104.55 27.4 -104.55 L27.75 -104.9 27.85 -105.75 M45.75 12.4 L45.5 12.5 Q39.1 13.75 37.25 11.2 36.2 8.05 35.1 7.3 L33.05 15.45 32.9 15.95 32.6 16.0 Q24.8 18.05 18.0 18.95 L1.95 20.95 Q3.05 12.55 3.05 3.1 L2.75 -6.35 Q3.35 -8.1 3.7 -11.3 L6.2 -9.3 5.25 8.45 Q4.9 9.15 4.65 10.3 4.35 11.4 4.35 12.05 L4.4 13.0 4.75 15.05 4.55 19.0 5.3 19.05 8.0 18.85 7.75 17.05 Q9.55 17.05 10.85 15.6 12.1 14.1 12.1 12.05 L12.15 11.65 12.55 11.65 12.2 18.1 15.3 17.6 25.7 16.0 25.6 12.7 26.4 12.55 26.6 15.9 28.85 16.05 Q31.75 16.05 32.75 12.1 33.55 6.7 34.65 3.8 L34.75 4.8 Q35.0 6.25 35.25 6.3 L35.25 3.6 35.55 4.3 38.6 8.2 Q40.85 11.15 41.2 12.45 L44.75 11.35 Q46.9 10.65 46.15 10.7 43.7 0.5 40.3 -19.85 L37.95 -33.85 37.4 -37.1 37.1 -39.05 36.3 -43.8 35.2 -50.15 34.5 -54.1 34.25 -55.55 32.0 -67.1 Q33.1 -68.7 33.95 -71.05 L34.0 -71.05 34.45 -71.45 34.5 -71.65 34.7 -73.1 34.7 -73.5 35.05 -74.8 35.8 -78.6 36.3 -75.15 36.35 -75.0 37.25 -68.75 Q38.15 -62.55 38.4 -61.55 L38.75 -59.85 39.25 -57.45 40.05 -53.6 42.95 -39.75 43.25 -38.2 43.6 -36.5 44.2 -33.6 Q51.8 3.15 51.8 5.15 51.8 10.1 45.75 12.4 M6.05 -93.1 Q6.2 -92.6 6.5 -92.25 L4.7 -83.3 2.8 -72.5 Q1.35 -63.6 1.45 -63.6 L-1.35 -46.8 -1.45 -55.7 -1.45 -59.25 -1.6 -71.45 Q-1.7 -82.85 -1.95 -88.6 L-2.1 -90.5 -2.1 -91.25 -2.05 -91.5 Q-1.65 -93.3 -0.4 -95.05 1.45 -97.75 4.15 -98.45 L5.35 -94.85 Q2.4 -92.15 1.05 -85.95 0.3 -82.55 0.05 -78.05 -0.05 -65.25 -0.7 -58.85 L-0.9 -57.05 -0.65 -58.55 -0.6 -58.8 Q2.2 -74.6 4.05 -83.75 L6.05 -93.1 M6.15 -81.4 Q7.55 -77.6 9.3 -74.2 L7.85 -67.45 5.35 -55.45 4.8 -52.7 Q3.45 -46.0 3.25 -44.05 2.3 -44.05 1.65 -43.05 L1.15 -42.0 2.6 -53.8 2.95 -56.8 4.8 -73.8 Q5.4 -77.7 6.15 -81.4 M4.3 -34.5 L6.0 -19.0 4.75 -17.95 3.6 -16.85 1.5 -36.4 Q1.95 -35.55 4.3 -34.5 M35.75 -70.0 L35.35 -70.35 35.15 -70.15 35.1 -69.45 Q35.1 -68.55 35.8 -68.4 L35.75 -70.0 M34.7 -63.05 L34.65 -62.05 34.75 -61.4 Q35.15 -61.85 34.75 -63.05 L34.7 -63.05 M49.15 2.75 Q48.8 2.2 48.3 2.2 47.8 2.2 47.45 2.75 47.1 3.25 47.1 3.95 47.1 4.65 47.45 5.2 47.8 5.7 48.3 5.7 L49.15 5.2 49.5 3.95 Q49.5 3.25 49.15 2.75 M-20.25 -110.75 L-20.75 -103.95 Q-22.3 -106.25 -23.75 -111.65 -24.95 -116.1 -24.95 -117.25 -24.95 -122.25 -21.1 -128.65 L-16.0 -136.4 -15.5 -137.15 -14.7 -138.4 -15.85 -134.65 -18.4 -122.5 -18.7 -120.75 -19.25 -118.55 Q-20.0 -115.0 -20.25 -110.75 M-21.75 -116.45 Q-21.65 -117.25 -20.8 -118.25 -20.0 -119.8 -20.0 -123.75 -20.0 -124.4 -20.15 -124.6 L-20.4 -124.7 -21.95 -121.8 Q-23.05 -119.95 -23.05 -116.7 -23.05 -116.05 -22.7 -116.1 L-22.35 -116.3 -21.75 -116.45 M-20.75 -95.05 L-19.55 -89.35 -16.1 -72.3 Q-16.1 -71.65 -16.65 -67.7 L-17.25 -63.85 -20.6 -83.45 Q-23.8 -103.5 -23.0 -105.65 L-22.0 -101.0 -22.05 -100.5 -22.25 -97.75 Q-22.2 -96.8 -20.85 -94.25 L-20.75 -95.05" fill="#61721b" fill-rule="evenodd" stroke="none"/>
    <path d="M2.9 -141.05 Q4.3 -140.45 5.15 -138.75 7.3 -134.35 11.5 -109.5 L-0.65 -99.65 Q0.0 -107.85 -0.1 -142.75 0.8 -141.95 2.9 -141.05 M3.8 -124.95 Q4.1 -124.45 4.6 -124.45 5.1 -124.45 5.45 -124.95 L5.75 -126.15 5.45 -127.35 Q5.1 -127.85 4.6 -127.85 L3.8 -127.35 Q3.45 -126.85 3.45 -126.15 3.45 -125.45 3.8 -124.95 M11.2 -96.1 L13.7 -101.3 Q16.85 -108.25 16.85 -111.1 L16.35 -115.65 15.35 -120.85 Q23.65 -104.85 30.5 -74.15 29.5 -70.4 28.15 -67.9 27.2 -67.4 26.2 -67.35 L24.9 -67.5 23.85 -74.7 23.45 -77.15 Q22.95 -76.1 22.75 -75.05 L22.65 -73.85 23.55 -68.1 Q20.4 -70.0 17.25 -76.25 13.1 -84.65 11.2 -96.1 M8.0 -123.35 Q8.4 -120.6 8.4 -117.25 8.4 -112.9 6.75 -110.5 3.85 -107.2 1.45 -103.9 3.5 -102.9 6.35 -105.5 9.6 -108.55 9.6 -114.1 9.6 -116.9 8.9 -122.55 7.8 -130.95 5.9 -133.4 7.5 -126.85 8.0 -123.35 M7.35 -114.15 L7.55 -114.9 7.35 -115.65 6.9 -115.95 6.45 -115.65 6.25 -114.9 6.45 -114.15 6.9 -113.85 7.35 -114.15 M4.45 -118.6 L4.3 -119.1 3.85 -119.35 3.45 -119.1 3.25 -118.6 3.45 -118.05 Q3.6 -117.85 3.85 -117.85 L4.3 -118.05 4.45 -118.6 M17.95 -100.4 L17.45 -99.95 17.25 -98.9 17.45 -97.85 Q17.65 -97.4 17.95 -97.4 18.25 -97.4 18.45 -97.85 L18.65 -98.9 18.45 -99.95 17.95 -100.4 M5.35 -94.85 L6.05 -93.1 4.05 -83.75 Q2.2 -74.6 -0.6 -58.8 L-0.65 -58.55 -0.9 -57.05 -0.7 -58.85 Q-0.05 -65.25 0.05 -78.05 0.3 -82.55 1.05 -85.95 2.4 -92.15 5.35 -94.85 M9.3 -74.2 L10.1 -72.7 Q16.25 -61.75 22.7 -62.35 L24.35 -62.65 27.45 -41.25 27.45 -41.15 27.9 -37.85 Q32.2 -6.8 32.2 4.1 L32.05 7.85 Q32.0 9.15 32.3 9.5 L33.45 6.5 33.6 2.95 Q33.6 -0.25 29.95 -29.6 L29.05 -37.0 28.6 -40.45 25.55 -63.15 26.3 -63.65 Q29.7 -63.75 32.0 -67.1 L34.25 -55.55 34.5 -54.1 35.2 -50.15 36.3 -43.8 37.1 -39.05 37.4 -37.1 37.95 -33.85 40.3 -19.85 Q43.7 0.5 46.15 10.7 46.9 10.65 44.75 11.35 L41.2 12.45 Q40.85 11.15 38.6 8.2 L35.55 4.3 35.25 3.6 35.25 6.3 Q35.0 6.25 34.75 4.8 L34.65 3.8 Q33.55 6.7 32.75 12.1 31.75 16.05 28.85 16.05 L26.6 15.9 26.4 12.55 25.6 12.7 25.7 16.0 15.3 17.6 12.2 18.1 12.55 11.65 12.15 11.65 Q12.45 10.25 11.95 8.5 11.45 6.7 10.15 5.9 L7.55 5.75 Q6.2 6.4 5.25 8.45 L6.2 -9.3 Q8.25 -9.3 9.7 -10.7 11.1 -12.15 11.1 -14.2 11.1 -16.2 9.6 -17.6 8.1 -19.0 6.0 -19.0 L4.3 -34.5 Q6.2 -34.5 7.55 -35.95 8.85 -37.4 8.85 -39.45 8.85 -41.35 7.2 -42.7 5.55 -44.05 3.25 -44.05 3.45 -46.0 4.8 -52.7 L5.35 -55.45 7.85 -67.45 9.3 -74.2 M4.0 -90.05 L2.35 -85.0 Q0.3 -78.35 0.3 -74.5 L0.4 -71.55 1.0 -73.2 3.1 -84.45 4.0 -90.05 M9.65 -51.2 Q9.65 -50.6 9.9 -50.15 10.1 -49.7 10.45 -49.7 10.8 -49.7 11.05 -50.15 L11.25 -51.2 11.15 -52.0 11.05 -52.25 10.45 -52.7 10.15 -52.6 9.9 -52.25 Q9.65 -51.8 9.65 -51.2 M23.1 -50.3 Q22.8 -48.25 23.15 -44.25 L23.45 -41.15 Q23.8 -37.9 24.5 -33.65 L27.35 -15.55 27.4 -15.4 27.5 -16.6 Q27.5 -31.6 26.7 -38.8 L26.25 -41.65 26.15 -42.15 24.95 -46.1 23.5 -49.6 23.1 -50.3 M31.75 -59.85 L31.1 -60.5 Q30.75 -60.5 30.5 -59.85 30.2 -59.25 30.2 -58.35 30.2 -57.45 30.5 -56.8 30.75 -56.2 31.1 -56.2 31.45 -56.2 31.75 -56.8 L32.0 -58.35 31.75 -59.85 M29.4 1.95 L29.05 1.5 Q28.85 1.5 28.7 1.95 28.55 2.35 28.55 2.95 28.55 3.55 28.7 4.0 L29.05 4.4 29.4 4.0 29.55 2.95 29.4 1.95 M7.75 17.05 L8.0 18.85 5.3 19.05 4.55 19.0 4.75 15.05 Q5.75 16.75 7.75 17.05 M17.9 11.65 L15.95 11.65 16.4 11.85 17.25 12.0 17.9 11.65 M-21.75 -116.45 L-22.35 -116.3 -22.7 -116.1 Q-23.05 -116.05 -23.05 -116.7 -23.05 -119.95 -21.95 -121.8 L-20.4 -124.7 -20.15 -124.6 Q-20.0 -124.4 -20.0 -123.75 -20.0 -119.8 -20.8 -118.25 -21.65 -117.25 -21.75 -116.45 M-20.75 -95.05 L-20.85 -94.25 Q-22.2 -96.8 -22.25 -97.75 L-22.05 -100.5 -22.0 -101.0 -21.95 -101.7 -21.2 -98.45 -20.7 -95.35 -20.75 -95.05" fill="#758a20" fill-rule="evenodd" stroke="none"/>
    <path d="M3.8 -124.95 Q3.45 -125.45 3.45 -126.15 3.45 -126.85 3.8 -127.35 L4.6 -127.85 Q5.1 -127.85 5.45 -127.35 L5.75 -126.15 5.45 -124.95 Q5.1 -124.45 4.6 -124.45 4.1 -124.45 3.8 -124.95 M4.45 -118.6 L4.3 -118.05 3.85 -117.85 Q3.6 -117.85 3.45 -118.05 L3.25 -118.6 3.45 -119.1 3.85 -119.35 4.3 -119.1 4.45 -118.6 M7.35 -114.15 L6.9 -113.85 6.45 -114.15 6.25 -114.9 6.45 -115.65 6.9 -115.95 7.35 -115.65 7.55 -114.9 7.35 -114.15 M8.0 -123.35 Q7.5 -126.85 5.9 -133.4 7.8 -130.95 8.9 -122.55 9.6 -116.9 9.6 -114.1 9.6 -108.55 6.35 -105.5 3.5 -102.9 1.45 -103.9 3.85 -107.2 6.75 -110.5 8.4 -112.9 8.4 -117.25 8.4 -120.6 8.0 -123.35 M17.95 -100.4 L18.45 -99.95 18.65 -98.9 18.45 -97.85 Q18.25 -97.4 17.95 -97.4 17.65 -97.4 17.45 -97.85 L17.25 -98.9 17.45 -99.95 17.95 -100.4 M23.55 -68.1 L22.65 -73.85 22.75 -75.05 Q22.95 -76.1 23.45 -77.15 L23.85 -74.7 24.9 -67.5 23.55 -68.1 M24.35 -62.65 L25.55 -63.15 28.6 -40.45 29.05 -37.0 29.95 -29.6 Q33.6 -0.25 33.6 2.95 L33.45 6.5 32.3 9.5 Q32.0 9.15 32.05 7.85 L32.2 4.1 Q32.2 -6.8 27.9 -37.85 L27.45 -41.15 27.45 -41.25 24.35 -62.65 M4.0 -90.05 L3.1 -84.45 1.0 -73.2 0.4 -71.55 0.3 -74.5 Q0.3 -78.35 2.35 -85.0 L4.0 -90.05 M9.65 -51.2 Q9.65 -51.8 9.9 -52.25 L10.15 -52.6 10.45 -52.7 11.05 -52.25 11.15 -52.0 11.25 -51.2 11.05 -50.15 Q10.8 -49.7 10.45 -49.7 10.1 -49.7 9.9 -50.15 9.65 -50.6 9.65 -51.2 M31.75 -59.85 L32.0 -58.35 31.75 -56.8 Q31.45 -56.2 31.1 -56.2 30.75 -56.2 30.5 -56.8 30.2 -57.45 30.2 -58.35 30.2 -59.25 30.5 -59.85 30.75 -60.5 31.1 -60.5 L31.75 -59.85 M23.1 -50.3 L23.5 -49.6 24.95 -46.1 26.15 -42.15 26.25 -41.65 26.7 -38.8 Q27.5 -31.6 27.5 -16.6 L27.4 -15.4 27.35 -15.55 24.5 -33.65 Q23.8 -37.9 23.45 -41.15 L23.15 -44.25 Q22.8 -48.25 23.1 -50.3 M29.4 1.95 L29.55 2.95 29.4 4.0 29.05 4.4 28.7 4.0 Q28.55 3.55 28.55 2.95 28.55 2.35 28.7 1.95 28.85 1.5 29.05 1.5 L29.4 1.95 M17.9 11.65 L17.25 12.0 16.4 11.85 15.95 11.65 17.9 11.65" fill="#8fa927" fill-rule="evenodd" stroke="none"/>
    <path d="M11.9 -137.5 L11.85 -137.5 Q9.9 -137.4 8.3 -136.25 L7.7 -139.1 Q9.7 -138.95 11.9 -137.5 M11.1 -123.55 Q11.8 -126.25 12.75 -128.0 L12.3 -126.25 Q12.3 -124.45 12.95 -120.85 L14.25 -113.95 13.75 -112.0 13.75 -112.35 13.6 -112.7 11.1 -123.55 M15.1 -130.9 Q16.05 -131.5 17.15 -131.6 L17.85 -131.55 24.6 -121.55 Q28.4 -115.55 32.1 -101.05 L32.1 -97.95 Q26.05 -122.5 15.1 -130.9 M7.9 -101.25 L13.7 -105.85 10.8 -98.5 10.7 -99.2 Q10.4 -101.15 10.25 -103.05 L8.85 -101.95 7.9 -101.25 M27.85 -105.75 L27.75 -104.9 27.4 -104.55 Q27.2 -104.55 27.1 -104.9 26.95 -105.25 26.95 -105.75 L27.1 -106.6 27.4 -106.95 27.75 -106.6 27.85 -105.75 M36.35 -83.9 L36.75 -82.55 38.0 -77.95 38.3 -76.8 Q39.75 -71.85 40.85 -68.85 L42.6 -63.75 44.4 -58.05 44.85 -56.55 49.35 -40.4 49.45 -40.05 49.85 -38.55 50.55 -35.85 51.2 -33.3 Q53.9 -22.8 55.85 -13.9 L59.0 0.25 Q59.55 3.0 59.55 4.45 59.55 7.15 53.9 9.55 L45.75 12.4 Q51.8 10.1 51.8 5.15 51.8 3.15 44.2 -33.6 L43.6 -36.5 43.25 -38.2 42.95 -39.75 40.05 -53.6 39.25 -57.45 38.75 -59.85 38.4 -61.55 Q38.15 -62.55 37.25 -68.75 L36.35 -75.0 36.3 -75.15 35.8 -78.6 36.35 -83.9 M2.75 -6.35 Q2.55 -13.85 1.7 -22.85 L-0.55 -43.25 Q-0.55 -46.5 0.75 -54.7 L1.25 -57.8 1.7 -60.6 5.2 -79.5 5.8 -82.45 6.15 -81.4 Q5.4 -77.7 4.8 -73.8 L2.95 -56.8 2.6 -53.8 1.15 -42.0 0.95 -40.7 Q1.3 -38.6 2.7 -37.4 3.85 -36.45 4.95 -36.45 5.65 -36.45 6.7 -37.1 8.05 -37.95 8.85 -39.45 8.85 -37.4 7.55 -35.95 6.2 -34.5 4.3 -34.5 1.95 -35.55 1.5 -36.4 L3.6 -16.85 3.3 -16.1 3.2 -15.2 Q3.2 -13.55 4.4 -12.35 5.6 -11.2 7.2 -11.2 7.9 -11.2 8.95 -11.85 10.3 -12.7 11.1 -14.2 11.1 -12.15 9.7 -10.7 8.25 -9.3 6.2 -9.3 L3.7 -11.3 Q3.35 -8.1 2.75 -6.35 M33.95 -71.05 L34.7 -73.5 34.7 -73.1 34.5 -71.65 34.45 -71.45 34.0 -71.05 33.95 -71.05 M34.7 -63.05 L34.75 -63.05 Q35.15 -61.85 34.75 -61.4 L34.65 -62.05 34.7 -63.05 M35.75 -70.0 L35.8 -68.4 Q35.1 -68.55 35.1 -69.45 L35.15 -70.15 35.35 -70.35 35.75 -70.0 M49.15 2.75 Q49.5 3.25 49.5 3.95 L49.15 5.2 48.3 5.7 Q47.8 5.7 47.45 5.2 47.1 4.65 47.1 3.95 47.1 3.25 47.45 2.75 47.8 2.2 48.3 2.2 48.8 2.2 49.15 2.75 M12.1 12.05 Q12.1 14.1 10.85 15.6 9.55 17.05 7.75 17.05 5.75 16.75 4.75 15.05 L4.4 13.0 4.35 12.05 Q4.95 13.35 6.1 14.25 7.15 15.05 7.9 15.05 8.95 15.05 10.0 14.4 11.3 13.6 12.1 12.05 M-18.7 -120.75 L-15.6 -131.4 -15.05 -133.35 -14.25 -135.4 -11.5 -140.65 Q-8.95 -145.1 -8.95 -145.3 -8.95 -145.95 -8.75 -146.0 L-7.85 -145.95 Q-5.5 -145.95 -4.6 -145.35 -3.55 -144.7 -3.55 -142.9 -3.55 -142.3 -4.75 -140.25 L-6.3 -137.75 -7.9 -137.65 -7.9 -137.7 -7.7 -137.8 -7.6 -138.1 -7.75 -139.0 Q-9.95 -137.45 -12.75 -129.75 L-13.6 -127.3 -14.8 -123.65 -15.0 -123.0 -15.05 -122.75 Q-18.55 -111.25 -18.55 -106.95 L-17.35 -85.5 -19.15 -96.65 -20.35 -106.95 -20.25 -110.75 Q-20.0 -115.0 -19.25 -118.55 L-18.7 -120.75 M-18.2 -58.75 L-18.15 -57.95 Q-19.65 -56.35 -19.9 -54.8 L-19.85 -52.0 Q-19.65 -48.05 -23.9 -43.4 L-20.0 -56.45 Q-18.85 -60.3 -18.45 -62.95 L-18.2 -58.75 M-24.55 -41.25 L-23.9 -39.4 -23.45 -38.5 -26.75 -23.05 Q-28.2 -15.2 -28.2 -6.55 L-27.9 -0.3 -27.45 6.6 Q-30.2 6.05 -34.85 4.0 -40.35 1.55 -40.35 0.0 L-39.55 -1.55 Q-38.0 -4.45 -35.05 -12.75 L-32.25 -19.6 Q-29.65 -25.55 -24.55 -41.25" fill="#4e5b15" fill-rule="evenodd" stroke="none"/>
    <path d="M-7.6 -138.1 L-7.7 -137.8 -7.9 -137.7 -7.85 -138.05 -7.6 -138.1 M-16.0 -93.6 L-14.4 -83.0 Q-14.05 -81.0 -14.05 -80.1 L-14.95 -63.85 -15.35 -61.75 -15.3 -61.75 -17.0 -60.95 -17.05 -60.95 -15.8 -67.5 Q-14.65 -74.15 -14.65 -74.9 L-15.3 -81.6 Q-16.0 -88.7 -16.0 -93.6" fill="#4d4640" fill-rule="evenodd" stroke="none"/>
    <path d="M-2.1 -90.5 L-2.15 -88.8 -2.5 -73.65 -2.65 -63.65 -2.7 -61.4 -6.55 -61.3 -6.55 -61.4 -6.55 -61.95 Q-6.65 -65.9 -8.3 -84.85 L-9.4 -97.55 -10.15 -106.05 Q-10.15 -116.0 -8.4 -124.55 -6.7 -132.9 -3.95 -137.0 L-4.25 -134.1 -2.35 -113.05 Q-0.85 -97.7 -2.05 -91.5 L-2.1 -91.25 -2.1 -90.5 M3.2 -42.2 Q3.9 -42.95 4.95 -42.95 6.0 -42.95 6.75 -42.2 7.45 -41.5 7.45 -40.45 7.45 -39.4 6.75 -38.65 6.0 -37.95 4.95 -37.95 3.9 -37.95 3.2 -38.65 2.45 -39.4 2.45 -40.45 2.45 -41.5 3.2 -42.2 M5.45 -16.95 Q6.15 -17.7 7.2 -17.7 8.25 -17.7 9.0 -16.95 9.7 -16.25 9.7 -15.2 9.7 -14.15 9.0 -13.4 8.25 -12.7 7.2 -12.7 6.15 -12.7 5.45 -13.4 4.7 -14.15 4.7 -15.2 4.7 -16.25 5.45 -16.95 M8.2 8.55 Q9.25 8.55 10.0 9.3 10.7 10.0 10.7 11.05 10.7 12.1 10.0 12.85 9.25 13.55 8.2 13.55 7.15 13.55 6.45 12.85 5.7 12.1 5.7 11.05 5.7 10.0 6.45 9.3 7.15 8.55 8.2 8.55 M-5.8 -113.05 Q-6.25 -113.6 -6.85 -113.6 -7.45 -113.6 -7.9 -113.05 -8.35 -112.5 -8.35 -111.75 -8.35 -111.0 -7.9 -110.45 -7.45 -109.9 -6.85 -109.9 -6.25 -109.9 -5.8 -110.45 -5.35 -111.0 -5.35 -111.75 -5.35 -112.5 -5.8 -113.05 M-5.55 -100.55 Q-6.0 -101.15 -6.6 -101.15 -7.2 -101.15 -7.65 -100.55 -8.1 -100.0 -8.1 -99.15 -8.1 -98.3 -7.65 -97.7 -7.2 -97.15 -6.6 -97.15 -6.0 -97.15 -5.55 -97.7 -5.1 -98.3 -5.1 -99.15 -5.1 -100.0 -5.55 -100.55 M-6.5 -88.95 Q-7.05 -88.35 -7.05 -87.5 -7.05 -86.65 -6.5 -86.0 -6.0 -85.4 -5.25 -85.4 -4.5 -85.4 -3.95 -86.0 -3.45 -86.65 -3.45 -87.5 -3.45 -88.35 -3.95 -88.95 -4.5 -89.6 -5.25 -89.6 -6.0 -89.6 -6.5 -88.95 M-3.65 -76.3 Q-4.05 -76.75 -4.55 -76.75 -5.05 -76.75 -5.4 -76.3 -5.8 -75.85 -5.8 -75.2 -5.8 -74.55 -5.4 -74.1 -5.05 -73.65 -4.55 -73.65 -4.05 -73.65 -3.65 -74.1 -3.3 -74.55 -3.3 -75.2 -3.3 -75.85 -3.65 -76.3 M-3.3 -66.15 Q-3.65 -66.5 -4.15 -66.5 -4.65 -66.5 -5.0 -66.15 L-5.35 -65.3 Q-5.35 -64.8 -5.0 -64.45 -4.65 -64.1 -4.15 -64.1 -3.65 -64.1 -3.3 -64.45 -2.95 -64.8 -2.95 -65.3 -2.95 -65.8 -3.3 -66.15" fill="#eceae8" fill-rule="evenodd" stroke="none"/>
    <path d="M8.3 -136.25 Q9.9 -137.4 11.85 -137.5 L11.9 -137.5 13.3 -137.45 Q16.05 -137.15 18.8 -134.75 L19.1 -134.55 19.3 -134.1 20.05 -132.15 20.05 -131.6 19.65 -131.2 19.05 -131.2 17.85 -131.55 17.15 -131.6 Q16.05 -131.5 15.1 -130.9 13.75 -130.0 12.75 -128.0 11.8 -126.25 11.1 -123.55 L10.45 -126.4 10.45 -126.45 Q11.75 -130.15 13.7 -131.75 L13.8 -131.85 Q15.05 -132.9 16.65 -133.05 L17.1 -133.1 18.1 -133.05 18.1 -133.15 17.95 -133.5 17.9 -133.55 17.1 -134.2 16.8 -134.4 Q15.4 -135.4 14.05 -135.8 L11.95 -136.0 Q10.15 -135.8 8.65 -134.55 L8.3 -136.25 M30.5 -74.15 L30.7 -74.85 Q32.15 -81.1 32.15 -88.6 L32.1 -97.95 32.1 -101.05 32.05 -106.55 31.55 -108.05 31.6 -108.05 Q32.6 -107.85 33.1 -106.55 L36.3 -92.05 36.45 -88.65 36.45 -88.6 36.35 -83.9 35.8 -78.6 35.05 -74.8 34.7 -73.5 33.95 -71.05 Q33.1 -68.7 32.0 -67.1 29.7 -63.75 26.3 -63.65 L25.55 -63.15 24.35 -62.65 22.7 -62.35 Q16.25 -61.75 10.1 -72.7 L9.3 -74.2 Q7.55 -77.6 6.15 -81.4 L5.8 -82.45 5.8 -82.6 6.4 -85.5 6.75 -84.3 Q8.05 -80.2 9.8 -76.6 L11.4 -73.45 Q16.95 -63.55 22.6 -63.85 L24.1 -64.15 24.85 -64.5 25.3 -64.75 25.6 -65.0 26.05 -65.15 26.2 -65.15 Q29.4 -65.35 31.55 -69.35 L32.65 -71.95 31.5 -69.5 Q30.45 -67.7 29.15 -66.8 L29.15 -66.75 29.0 -66.7 Q27.7 -65.9 26.25 -65.85 L25.15 -65.9 23.8 -66.25 Q19.8 -67.85 15.9 -75.6 13.35 -80.65 11.65 -86.8 10.55 -90.9 9.75 -95.4 L9.2 -99.0 8.85 -101.95 10.25 -103.05 Q10.4 -101.15 10.7 -99.2 L10.8 -98.5 11.2 -96.1 Q13.1 -84.65 17.25 -76.25 20.4 -70.0 23.55 -68.1 L24.9 -67.5 26.2 -67.35 Q27.2 -67.4 28.15 -67.9 29.5 -70.4 30.5 -74.15 M44.35 14.2 L46.35 13.55 Q41.9 26.35 28.7 30.95 21.0 33.6 7.95 33.6 0.25 33.6 -3.1 32.55 -8.1 30.9 -16.7 24.4 -19.2 22.75 -22.5 18.05 -26.3 12.6 -27.1 8.2 L-27.45 6.6 -27.9 -0.3 -28.2 -6.55 Q-28.2 -15.2 -26.75 -23.05 L-23.45 -38.5 -23.9 -39.4 -24.55 -41.25 -23.9 -43.4 Q-19.65 -48.05 -19.85 -52.0 L-19.9 -54.8 Q-19.65 -56.35 -18.15 -57.95 L-18.2 -58.75 -17.95 -58.7 Q-17.4 -58.7 -17.45 -59.45 -17.45 -60.4 -17.15 -60.7 L-17.05 -60.95 -17.0 -60.95 -15.3 -61.75 -8.6 -61.25 -8.55 -61.4 -6.55 -61.4 -6.55 -61.3 -2.7 -61.4 -2.75 -60.45 -13.8 -60.95 Q-15.85 -61.2 -16.55 -60.35 -17.05 -59.75 -17.25 -57.95 L-17.15 -57.15 -17.6 -53.9 Q-18.2 -50.65 -20.0 -46.8 L-20.3 -44.9 -20.0 -43.65 -19.35 -42.9 -14.9 -43.15 -5.5 -43.25 Q-3.3 -42.45 -2.2 -43.6 L-2.1 -42.55 -11.05 -42.35 -15.15 -42.4 -20.6 -42.6 Q-26.7 -28.85 -26.7 -5.15 -26.7 13.1 -15.75 23.25 -6.2 32.1 7.9 32.1 22.5 32.1 30.8 28.45 40.45 24.25 44.35 14.2 M-2.7 -57.8 L-2.6 -57.4 -6.55 -57.85 -7.5 -57.9 -9.75 -57.9 -11.25 -57.8 Q-13.1 -57.15 -13.6 -56.4 L-14.2 -54.85 -12.9 -54.8 -10.35 -54.4 Q-9.65 -54.35 -9.0 -53.85 -9.0 -52.4 -10.0 -51.65 -10.75 -51.15 -11.65 -51.15 L-12.8 -51.45 -14.0 -51.75 -16.35 -47.9 -6.45 -46.85 Q-5.25 -46.85 -4.65 -47.6 -3.8 -48.7 -2.45 -52.85 L-2.55 -49.6 Q-4.55 -47.15 -5.05 -46.9 L-11.35 -46.35 Q-16.75 -46.35 -16.75 -47.7 L-16.25 -50.3 Q-15.9 -51.55 -16.45 -51.65 L-16.7 -52.9 -15.5 -54.75 Q-13.9 -57.05 -12.7 -57.7 -11.3 -58.55 -8.4 -58.6 L-7.95 -58.6 -5.35 -58.4 -2.7 -57.8 M-15.1 -60.3 L-14.9 -59.85 -15.1 -59.4 Q-15.3 -59.2 -15.55 -59.2 L-16.0 -59.4 -16.2 -59.85 -16.0 -60.3 -15.55 -60.5 -15.1 -60.3 M-14.15 -54.25 L-16.4 -52.45 -14.55 -52.3 -14.2 -52.3 -11.6 -52.45 Q-11.05 -52.65 -10.95 -53.65 -11.45 -54.1 -14.15 -54.25 M-5.8 -53.0 L-5.55 -53.8 Q-5.3 -54.15 -4.95 -54.15 L-4.35 -53.8 Q-4.1 -53.5 -4.1 -53.0 -4.1 -52.5 -4.35 -52.15 -4.6 -51.85 -4.95 -51.85 -5.3 -51.85 -5.55 -52.15 L-5.8 -53.0 M-2.65 -44.55 Q-2.95 -44.3 -3.35 -44.3 -3.75 -44.3 -4.0 -44.55 L-4.3 -45.2 -4.0 -45.8 Q-3.75 -46.1 -3.35 -46.1 -2.95 -46.1 -2.65 -45.8 L-2.4 -45.2 Q-2.4 -44.85 -2.65 -44.55 M-19.05 -45.75 Q-18.75 -46.05 -18.3 -46.05 L-17.55 -45.75 Q-17.25 -45.45 -17.25 -45.05 -17.25 -44.65 -17.55 -44.35 -17.85 -44.05 -18.3 -44.05 -18.75 -44.05 -19.05 -44.35 L-19.35 -45.05 -19.05 -45.75" fill="#0d0d0d" fill-rule="evenodd" stroke="none"/>
    <path d="M8.65 -134.55 Q10.15 -135.8 11.95 -136.0 L14.05 -135.8 Q15.4 -135.4 16.8 -134.4 L16.1 -134.45 15.45 -134.4 Q12.0 -133.9 9.75 -129.3 L9.55 -130.15 8.65 -134.55 M6.4 -85.5 L7.8 -91.95 7.55 -93.5 Q6.95 -95.65 5.05 -99.2 L7.25 -100.75 7.5 -98.95 Q8.05 -95.4 8.75 -92.1 9.75 -87.6 11.15 -83.55 12.8 -78.6 15.05 -74.35 19.5 -66.15 24.05 -64.7 L24.85 -64.5 24.1 -64.15 22.6 -63.85 Q16.95 -63.55 11.4 -73.45 L9.8 -76.6 Q8.05 -80.2 6.75 -84.3 L6.4 -85.5 M33.05 15.45 L34.45 12.05 35.45 9.3 38.55 14.1 Q39.35 15.35 40.0 15.35 L41.75 15.0 44.35 14.2 Q40.45 24.25 30.8 28.45 22.5 32.1 7.9 32.1 -6.2 32.1 -15.75 23.25 -26.7 13.1 -26.7 -5.15 -26.7 -28.85 -20.6 -42.6 L-15.15 -42.4 -11.05 -42.35 -2.1 -42.55 Q0.3 -28.2 1.05 -18.25 1.65 -10.35 1.65 2.3 1.65 13.4 1.35 15.9 L0.55 21.8 Q-0.25 22.2 0.75 22.2 L19.95 19.9 26.1 19.2 Q30.65 18.3 32.6 16.0 L32.9 15.95 33.05 15.45 M-16.75 -36.3 Q-17.8 -34.0 -19.15 -27.2 L-20.65 -17.2 Q-21.8 -8.8 -21.8 -6.4 -21.8 4.75 -17.7 12.05 -14.75 17.3 -7.0 24.0 L-4.0 27.1 Q-1.6 29.0 2.25 29.0 4.75 29.0 7.8 27.95 11.3 26.75 12.6 25.0 L12.25 25.05 9.55 25.55 6.85 25.9 Q-2.9 25.9 -2.9 22.9 -2.9 18.2 -1.5 8.7 -0.15 -0.85 -0.15 -6.5 -0.15 -12.4 -0.75 -18.95 L-2.05 -30.45 -2.25 -33.65 Q-2.35 -35.55 -2.95 -36.6 -4.75 -39.6 -12.45 -39.6 -15.25 -39.6 -16.75 -36.3" fill="#141414" fill-rule="evenodd" stroke="none"/>
    <path d="M-2.6 -57.4 L-2.55 -56.2 -2.45 -52.85 Q-3.8 -48.7 -4.65 -47.6 -5.25 -46.85 -6.45 -46.85 L-16.35 -47.9 -14.0 -51.75 -14.2 -49.4 Q-14.2 -48.25 -13.25 -47.9 L-8.8 -47.6 Q-6.55 -47.6 -5.0 -48.85 -2.85 -50.65 -2.85 -54.6 -2.85 -56.25 -5.05 -57.25 L-7.5 -57.9 -6.55 -57.85 -2.6 -57.4 M-16.75 -36.3 Q-15.25 -39.6 -12.45 -39.6 -4.75 -39.6 -2.95 -36.6 -2.35 -35.55 -2.25 -33.65 L-2.05 -30.45 -0.75 -18.95 Q-0.15 -12.4 -0.15 -6.5 -0.15 -0.85 -1.5 8.7 -2.9 18.2 -2.9 22.9 -2.9 25.9 6.85 25.9 L9.55 25.55 12.25 25.05 12.6 25.0 Q11.3 26.75 7.8 27.95 4.75 29.0 2.25 29.0 -1.6 29.0 -4.0 27.1 L-7.0 24.0 Q-14.75 17.3 -17.7 12.05 -21.8 4.75 -21.8 -6.4 -21.8 -8.8 -20.65 -17.2 L-19.15 -27.2 Q-17.8 -34.0 -16.75 -36.3 M-12.9 -54.8 L-14.2 -54.85 -13.6 -56.4 Q-13.1 -57.15 -11.25 -57.8 L-12.9 -54.8 M-15.75 -26.05 Q-18.65 -14.35 -18.65 -0.55 -18.65 0.8 -15.05 2.7 -11.65 4.5 -9.85 4.5 -4.9 4.5 -5.0 -1.2 L-4.25 -28.2 Q-4.25 -31.6 -5.4 -33.45 -7.1 -36.2 -11.45 -36.2 -13.25 -36.2 -15.75 -26.05" fill="#1e1e1e" fill-rule="evenodd" stroke="none"/>
    <path d="M-2.75 -60.35 L-2.75 -58.6 -9.8 -59.1 -14.05 -59.5 -15.5 -54.75 -16.7 -52.9 -16.45 -51.65 Q-17.3 -48.6 -17.3 -47.05 L-17.1 -46.05 -6.7 -45.65 -6.7 -44.65 -12.4 -44.15 -16.25 -44.25 Q-17.25 -44.2 -19.35 -42.9 L-20.0 -43.65 -20.3 -44.9 -20.0 -46.8 -19.35 -47.15 -16.0 -57.5 -17.25 -57.95 Q-17.05 -59.75 -16.55 -60.35 -15.85 -61.2 -13.8 -60.95 L-13.75 -60.85 -14.25 -60.75 -10.3 -60.55 -3.55 -60.35 -2.75 -60.35 M-2.35 -46.65 L-2.2 -43.6 Q-3.3 -42.45 -5.5 -43.25 L-5.85 -43.8 -6.05 -44.85 Q-6.05 -45.25 -5.1 -45.85 -3.95 -46.6 -2.35 -46.65 M-15.1 -60.3 L-15.55 -60.5 -16.0 -60.3 -16.2 -59.85 -16.0 -59.4 -15.55 -59.2 Q-15.3 -59.2 -15.1 -59.4 L-14.9 -59.85 -15.1 -60.3 M-14.15 -54.25 Q-13.65 -54.2 -13.4 -53.85 -13.15 -53.5 -13.2 -53.1 -13.3 -52.7 -13.7 -52.45 L-14.2 -52.3 -14.55 -52.3 -16.4 -52.45 -14.15 -54.25 M-2.65 -44.55 Q-2.4 -44.85 -2.4 -45.2 L-2.65 -45.8 Q-2.95 -46.1 -3.35 -46.1 -3.75 -46.1 -4.0 -45.8 L-4.3 -45.2 -4.0 -44.55 Q-3.75 -44.3 -3.35 -44.3 -2.95 -44.3 -2.65 -44.55 M-19.05 -45.75 L-19.35 -45.05 -19.05 -44.35 Q-18.75 -44.05 -18.3 -44.05 -17.85 -44.05 -17.55 -44.35 -17.25 -44.65 -17.25 -45.05 -17.25 -45.45 -17.55 -45.75 L-18.3 -46.05 Q-18.75 -46.05 -19.05 -45.75" fill="#8b8b8b" fill-rule="evenodd" stroke="none"/>
    <path d="M-2.75 -60.45 L-2.75 -60.35 -3.55 -60.35 -10.3 -60.55 -14.25 -60.75 -13.75 -60.85 -13.8 -60.95 -2.75 -60.45 M-2.75 -58.6 L-2.7 -57.8 -5.35 -58.4 -7.95 -58.6 -8.4 -58.6 Q-11.3 -58.55 -12.7 -57.7 -13.9 -57.05 -15.5 -54.75 L-14.05 -59.5 -9.8 -59.1 -2.75 -58.6 M-2.55 -49.6 L-2.35 -46.65 Q-3.95 -46.6 -5.1 -45.85 -6.05 -45.25 -6.05 -44.85 L-5.85 -43.8 -5.5 -43.25 -14.9 -43.15 -19.35 -42.9 Q-17.25 -44.2 -16.25 -44.25 L-12.4 -44.15 -6.7 -44.65 -6.7 -45.65 -17.1 -46.05 -17.3 -47.05 Q-17.3 -48.6 -16.45 -51.65 -15.9 -51.55 -16.25 -50.3 L-16.75 -47.7 Q-16.75 -46.35 -11.35 -46.35 L-5.05 -46.9 Q-4.55 -47.15 -2.55 -49.6 M-17.25 -57.95 L-16.0 -57.5 -19.35 -47.15 -20.0 -46.8 Q-18.2 -50.65 -17.6 -53.9 L-17.15 -57.15 -17.25 -57.95 M-14.2 -52.3 L-13.7 -52.45 Q-13.3 -52.7 -13.2 -53.1 -13.15 -53.5 -13.4 -53.85 -13.65 -54.2 -14.15 -54.25 -11.45 -54.1 -10.95 -53.65 -11.05 -52.65 -11.6 -52.45 L-14.2 -52.3" fill="#4e4e4e" fill-rule="evenodd" stroke="none"/>
    <path d="M16.8 -134.4 L17.1 -134.2 17.9 -133.55 17.95 -133.5 18.1 -133.15 18.1 -133.05 17.1 -133.1 16.65 -133.05 Q15.05 -132.9 13.8 -131.85 L13.7 -131.75 Q11.75 -130.15 10.45 -126.45 L9.75 -129.25 9.75 -129.3 Q12.0 -133.9 15.45 -134.4 L16.1 -134.45 16.8 -134.4 M7.25 -100.75 L7.9 -101.25 8.85 -101.95 9.2 -99.0 9.75 -95.4 Q10.55 -90.9 11.65 -86.8 13.35 -80.65 15.9 -75.6 19.8 -67.85 23.8 -66.25 L25.15 -65.9 26.25 -65.85 Q27.7 -65.9 29.0 -66.7 L29.15 -66.75 29.15 -66.8 Q30.45 -67.7 31.5 -69.5 L32.65 -71.95 31.55 -69.35 Q29.4 -65.35 26.2 -65.15 L26.05 -65.15 25.6 -65.0 25.3 -64.75 24.85 -64.5 24.05 -64.7 Q19.5 -66.15 15.05 -74.35 12.8 -78.6 11.15 -83.55 9.75 -87.6 8.75 -92.1 8.05 -95.4 7.5 -98.95 L7.25 -100.75 M-11.25 -57.8 L-9.75 -57.9 -7.5 -57.9 -5.05 -57.25 Q-2.85 -56.25 -2.85 -54.6 -2.85 -50.65 -5.0 -48.85 -6.55 -47.6 -8.8 -47.6 L-13.25 -47.9 Q-14.2 -48.25 -14.2 -49.4 L-14.0 -51.75 -12.8 -51.45 -11.65 -51.15 Q-10.75 -51.15 -10.0 -51.65 -9.0 -52.4 -9.0 -53.85 -9.65 -54.35 -10.35 -54.4 L-12.9 -54.8 -11.25 -57.8 M-5.8 -53.0 L-5.55 -52.15 Q-5.3 -51.85 -4.95 -51.85 -4.6 -51.85 -4.35 -52.15 -4.1 -52.5 -4.1 -53.0 -4.1 -53.5 -4.35 -53.8 L-4.95 -54.15 Q-5.3 -54.15 -5.55 -53.8 L-5.8 -53.0 M-7.15 -50.95 L-7.55 -52.15 -9.55 -50.45 -10.5 -49.2 -10.5 -49.0 -9.75 -48.95 -7.95 -49.4 Q-6.15 -49.9 -5.75 -50.2 -7.05 -50.7 -7.15 -50.95 M-3.95 -55.05 L-3.75 -55.4 -9.7 -56.7 -10.75 -56.6 Q-10.55 -56.2 -8.0 -55.5 L-4.75 -54.8 -3.95 -55.05 M-15.75 -26.05 Q-13.25 -36.2 -11.45 -36.2 -7.1 -36.2 -5.4 -33.45 -4.25 -31.6 -4.25 -28.2 L-5.0 -1.2 Q-4.9 4.5 -9.85 4.5 -11.65 4.5 -15.05 2.7 -18.65 0.8 -18.65 -0.55 -18.65 -14.35 -15.75 -26.05" fill="#272727" fill-rule="evenodd" stroke="none"/>
    <path d="M-6.3 -137.75 L-4.85 -137.5 -4.0 -137.55 -3.95 -137.0 Q-6.7 -132.9 -8.4 -124.55 -10.15 -116.0 -10.15 -106.05 L-9.4 -97.55 -8.3 -84.85 Q-6.65 -65.9 -6.55 -61.95 L-6.55 -61.4 -8.55 -61.4 -8.6 -61.25 -8.35 -64.05 -7.75 -72.05 Q-7.75 -74.45 -9.5 -87.9 -10.3 -93.7 -10.7 -99.15 -11.3 -106.25 -11.3 -112.65 -11.3 -116.85 -10.05 -123.85 -8.45 -132.95 -5.95 -136.85 L-8.6 -136.35 Q-8.0 -137.15 -7.9 -137.65 L-6.3 -137.75" fill="#7e7e7e" fill-rule="evenodd" stroke="none"/>
    <path d="M-8.6 -136.35 L-5.95 -136.85 Q-8.45 -132.95 -10.05 -123.85 -11.3 -116.85 -11.3 -112.65 -11.3 -106.25 -10.7 -99.15 -10.3 -93.7 -9.5 -87.9 -7.75 -74.45 -7.75 -72.05 L-8.35 -64.05 -8.6 -61.25 -15.3 -61.75 -15.35 -61.75 -14.95 -63.85 -14.05 -80.1 Q-14.05 -81.0 -14.4 -83.0 L-16.0 -93.6 -16.3 -103.75 Q-16.5 -110.45 -16.2 -115.0 -15.9 -119.15 -15.05 -122.75 L-15.0 -123.0 -14.8 -123.65 -13.6 -127.3 -12.75 -129.75 Q-11.1 -133.45 -8.6 -136.35 M-5.55 -100.55 Q-5.1 -100.0 -5.1 -99.15 -5.1 -98.3 -5.55 -97.7 -6.0 -97.15 -6.6 -97.15 -7.2 -97.15 -7.65 -97.7 -8.1 -98.3 -8.1 -99.15 -8.1 -100.0 -7.65 -100.55 -7.2 -101.15 -6.6 -101.15 -6.0 -101.15 -5.55 -100.55 M-5.8 -113.05 Q-5.35 -112.5 -5.35 -111.75 -5.35 -111.0 -5.8 -110.45 -6.25 -109.9 -6.85 -109.9 -7.45 -109.9 -7.9 -110.45 -8.35 -111.0 -8.35 -111.75 -8.35 -112.5 -7.9 -113.05 -7.45 -113.6 -6.85 -113.6 -6.25 -113.6 -5.8 -113.05 M-6.5 -88.95 Q-6.0 -89.6 -5.25 -89.6 -4.5 -89.6 -3.95 -88.95 -3.45 -88.35 -3.45 -87.5 -3.45 -86.65 -3.95 -86.0 -4.5 -85.4 -5.25 -85.4 -6.0 -85.4 -6.5 -86.0 -7.05 -86.65 -7.05 -87.5 -7.05 -88.35 -6.5 -88.95 M-3.3 -66.15 Q-2.95 -65.8 -2.95 -65.3 -2.95 -64.8 -3.3 -64.45 -3.65 -64.1 -4.15 -64.1 -4.65 -64.1 -5.0 -64.45 -5.35 -64.8 -5.35 -65.3 L-5.0 -66.15 Q-4.65 -66.5 -4.15 -66.5 -3.65 -66.5 -3.3 -66.15 M-3.65 -76.3 Q-3.3 -75.85 -3.3 -75.2 -3.3 -74.55 -3.65 -74.1 -4.05 -73.65 -4.55 -73.65 -5.05 -73.65 -5.4 -74.1 -5.8 -74.55 -5.8 -75.2 -5.8 -75.85 -5.4 -76.3 -5.05 -76.75 -4.55 -76.75 -4.05 -76.75 -3.65 -76.3" fill="#b8b8b8" fill-rule="evenodd" stroke="none"/>
    <path d="M-16.15 -138.85 L-17.2 -152.45 -17.1 -152.85 -17.25 -153.35 -17.05 -153.8 -16.6 -154.05 8.4 -157.55 8.6 -157.55 22.25 -155.85 22.25 -259.1 23.75 -259.1 23.75 -234.85 23.75 -149.05 Q25.75 -147.0 27.75 -146.95 L28.85 -147.1 29.9 -147.55 30.7 -148.1 31.75 -149.05 31.75 -234.85 31.75 -259.1 33.25 -259.1 33.25 -154.15 Q56.55 -150.3 76.05 -144.3 L76.35 -144.2 76.7 -143.85 76.75 -143.4 76.7 -143.25 76.85 -142.8 77.3 -131.65 77.75 -131.55 Q81.2 -129.45 84.2 -125.7 91.25 -116.95 91.25 -104.55 91.25 -92.15 84.2 -83.4 80.7 -79.0 76.45 -76.75 L76.05 -76.7 Q74.35 -54.85 70.75 -33.15 L70.45 -32.7 69.9 -32.55 69.65 -32.65 69.25 -32.55 52.95 -33.2 52.55 -34.7 52.25 -35.65 69.3 -34.05 69.35 -34.05 69.5 -34.8 Q71.45 -46.95 72.85 -59.1 L74.55 -77.1 74.6 -77.35 75.3 -88.05 75.35 -89.05 75.55 -93.7 75.9 -103.3 76.0 -108.95 76.05 -115.15 76.05 -119.7 75.8 -131.3 75.8 -132.25 75.7 -133.85 75.65 -135.85 75.35 -142.7 72.15 -143.9 Q61.5 -147.0 49.75 -149.5 L49.3 -149.6 33.25 -152.4 33.25 -148.8 33.05 -148.3 Q30.4 -145.4 27.75 -145.45 25.1 -145.4 22.45 -148.3 L22.25 -148.8 22.25 -154.05 22.25 -154.3 8.55 -156.05 -12.7 -153.05 -15.65 -152.3 -14.7 -140.6 -16.15 -138.85 M77.55 -105.25 Q77.35 -92.5 76.65 -80.3 79.9 -80.4 83.0 -84.35 L83.05 -84.35 Q89.75 -92.75 89.75 -104.55 89.75 -116.35 83.05 -124.75 80.4 -128.05 77.35 -130.0 L77.45 -125.2 77.45 -122.6 77.5 -116.9 77.55 -105.25 M58.55 -57.8 L64.85 -56.8 66.35 -56.5 67.1 -56.3 68.25 -56.0 68.7 -55.7 68.8 -55.2 66.3 -37.2 66.15 -36.8 65.8 -36.55 65.4 -36.55 63.8 -36.95 63.45 -37.0 61.45 -37.4 61.3 -37.45 51.35 -38.5 50.85 -40.05 Q57.9 -39.9 64.95 -38.2 L67.2 -54.7 Q56.85 -57.3 45.4 -56.55 L44.9 -58.05 49.95 -58.25 50.65 -58.25 51.15 -58.25 51.45 -58.25 51.75 -58.25 58.55 -57.8" fill="#333333" fill-rule="evenodd" stroke="none"/>
    <path d="M-12.7 -153.05 L8.55 -156.05 22.25 -154.3 22.25 -154.05 10.7 -152.9 Q1.5 -151.8 -3.55 -150.65 L-12.7 -153.05 M49.75 -149.5 Q61.5 -147.0 72.15 -143.9 L36.05 -140.1 17.55 -145.05 25.05 -145.05 35.1 -146.0 52.55 -146.05 53.5 -146.85 53.8 -147.55 Q53.2 -148.55 50.95 -148.95 L47.6 -149.5 49.75 -149.5 M75.65 -135.85 L75.7 -133.85 75.8 -132.25 75.8 -131.3 76.05 -119.7 76.0 -120.7 Q71.55 -117.75 66.6 -112.4 L53.6 -96.75 Q48.65 -90.75 39.8 -78.85 L39.0 -77.75 38.2 -80.9 38.8 -94.45 38.9 -98.9 Q44.9 -105.65 47.05 -108.55 53.3 -117.15 64.15 -126.7 69.95 -131.8 75.65 -135.85 M75.55 -93.7 L75.35 -89.05 75.3 -88.05 75.2 -87.05 59.3 -68.8 52.35 -60.95 49.95 -58.25 44.9 -58.05 43.75 -61.55 42.95 -64.1 49.3 -70.4 Q64.75 -85.5 75.55 -93.7 M31.75 -259.1 L31.75 -234.85 30.75 -234.85 30.75 -259.1 31.75 -259.1 M23.75 -234.85 L23.75 -259.1 28.25 -259.1 28.25 -234.85 23.75 -234.85 M77.45 -125.2 L77.35 -130.0 Q80.4 -128.05 83.05 -124.75 89.75 -116.35 89.75 -104.55 89.75 -92.75 83.05 -84.35 L83.0 -84.35 Q79.9 -80.4 76.65 -80.3 77.35 -92.5 77.55 -105.25 79.5 -102.05 83.05 -102.05 85.35 -102.05 86.3 -105.0 86.8 -106.6 86.8 -108.55 86.8 -116.1 79.3 -124.25 L77.45 -126.1 77.45 -125.2" fill="#888888" fill-rule="evenodd" stroke="none"/>
    <path d="M28.85 -147.1 L27.75 -146.95 Q25.75 -147.0 23.75 -149.05 L23.75 -234.85 28.25 -234.85 28.25 -259.1 30.75 -259.1 30.75 -234.85 28.25 -234.85 28.25 -171.15 28.2 -158.25 28.2 -154.95 28.2 -153.3 28.25 -147.0 28.85 -147.1" fill="#9c9c9c" fill-rule="evenodd" stroke="none"/>
    <path d="M30.7 -148.1 L29.9 -147.55 28.85 -147.1 28.25 -147.0 28.2 -153.3 28.2 -154.95 28.2 -158.25 28.25 -171.15 28.25 -234.85 30.75 -234.85 30.75 -197.6 30.75 -196.35 30.75 -187.55 30.7 -148.1" fill="#cecece" fill-rule="evenodd" stroke="none"/>
    <path d="M31.75 -234.85 L31.75 -149.05 30.7 -148.1 30.75 -187.55 30.75 -196.35 30.75 -197.6 30.75 -234.85 31.75 -234.85" fill="#b0b0b0" fill-rule="evenodd" stroke="none"/>
    <path d="M77.55 -105.25 L77.5 -116.9 Q78.3 -116.55 79.05 -116.55 79.8 -116.55 80.6 -117.7 L81.3 -119.2 Q81.3 -119.95 79.1 -121.6 L77.45 -122.6 77.45 -125.2 77.45 -126.1 79.3 -124.25 Q86.8 -116.1 86.8 -108.55 86.8 -106.6 86.3 -105.0 85.35 -102.05 83.05 -102.05 79.5 -102.05 77.55 -105.25" fill="#9b9b9b" fill-rule="evenodd" stroke="none"/>
    <path d="M22.25 -154.05 L22.25 -148.8 22.45 -148.3 Q25.1 -145.4 27.75 -145.45 30.4 -145.4 33.05 -148.3 L33.25 -148.8 33.25 -152.4 49.3 -149.6 49.75 -149.5 47.6 -149.5 50.95 -148.95 Q53.2 -148.55 53.8 -147.55 L53.5 -146.85 52.55 -146.05 35.1 -146.0 25.05 -145.05 17.55 -145.05 -3.55 -150.65 Q1.5 -151.8 10.7 -152.9 L22.25 -154.05" fill="#919191" fill-rule="evenodd" stroke="none"/>
    <path d="M-15.65 -152.3 L-12.7 -153.05 -3.55 -150.65 17.55 -145.05 36.05 -140.1 72.15 -143.9 75.35 -142.7 37.85 -138.15 Q39.3 -118.65 38.9 -98.9 L38.8 -94.45 38.2 -80.9 36.9 -86.6 Q37.75 -112.75 35.35 -138.5 L35.35 -138.75 2.7 -147.4 Q2.0 -148.05 1.35 -148.1 L-0.25 -148.2 -15.65 -152.3 M77.5 -116.9 L77.45 -122.6 79.1 -121.6 Q81.3 -119.95 81.3 -119.2 L80.6 -117.7 Q79.8 -116.55 79.05 -116.55 78.3 -116.55 77.5 -116.9" fill="#b6b6b6" fill-rule="evenodd" stroke="none"/>
    <path d="M75.35 -142.7 L75.65 -135.85 Q69.95 -131.8 64.15 -126.7 53.3 -117.15 47.05 -108.55 44.9 -105.65 38.9 -98.9 39.3 -118.65 37.85 -138.15 L75.35 -142.7 M76.05 -119.7 L76.05 -115.15 76.0 -108.95 75.9 -103.3 75.55 -93.7 Q64.75 -85.5 49.3 -70.4 L42.95 -64.1 Q41.4 -68.85 39.85 -74.55 L39.0 -77.75 39.8 -78.85 Q48.65 -90.75 53.6 -96.75 L66.6 -112.4 Q71.55 -117.75 76.0 -120.7 L76.05 -119.7 M75.3 -88.05 L74.6 -77.35 73.2 -75.8 Q62.35 -63.3 58.55 -57.8 L51.75 -58.25 51.45 -58.25 51.15 -58.25 50.65 -58.25 50.8 -58.5 52.35 -60.95 59.3 -68.8 75.2 -87.05 75.3 -88.05" fill="#7c7c7c" fill-rule="evenodd" stroke="none"/>
    <path d="M74.6 -77.35 L74.55 -77.1 72.85 -59.1 Q71.45 -46.95 69.5 -34.8 L69.35 -34.05 69.3 -34.05 52.25 -35.65 51.35 -38.5 61.3 -37.45 61.45 -37.4 63.45 -37.0 63.8 -36.95 65.4 -36.55 65.8 -36.55 66.15 -36.8 66.3 -37.2 68.8 -55.2 68.7 -55.7 68.25 -56.0 67.1 -56.3 66.35 -56.5 64.85 -56.8 58.55 -57.8 Q62.35 -63.3 73.2 -75.8 L74.6 -77.35 M49.95 -58.25 L52.35 -60.95 50.8 -58.5 50.65 -58.25 49.95 -58.25" fill="#666666" fill-rule="evenodd" stroke="none"/>
    <path d="M50.3 -52.45 L52.1 -52.4 Q54.7 -52.05 57.8 -47.25 L58.55 -44.25 Q59.55 -41.55 61.8 -41.55 63.05 -41.55 63.8 -46.75 64.3 -50.35 64.3 -52.95 64.3 -53.7 63.9 -53.85 L63.05 -54.05 Q50.3 -55.75 50.3 -52.45 M45.4 -56.55 Q56.85 -57.3 67.2 -54.7 L64.95 -38.2 Q57.9 -39.9 50.85 -40.05 L45.4 -56.55" fill="#66cc00" fill-rule="evenodd" stroke="none"/>
    <path d="M50.3 -52.45 Q50.3 -55.75 63.05 -54.05 L63.9 -53.85 Q64.3 -53.7 64.3 -52.95 64.3 -50.35 63.8 -46.75 63.05 -41.55 61.8 -41.55 59.55 -41.55 58.55 -44.25 L57.8 -47.25 Q54.7 -52.05 52.1 -52.4 L50.3 -52.45" fill="#84ff09" fill-rule="evenodd" stroke="none"/>
  </g>
</svg>
