<?xml version="1.0" encoding="UTF-8" standalone="no"?>
<svg xmlns:ffdec="https://www.free-decompiler.com/flash" xmlns:xlink="http://www.w3.org/1999/xlink" ffdec:objectType="shape" height="12.0px" width="17.5px" xmlns="http://www.w3.org/2000/svg">
  <g transform="matrix(1.0, 0.0, 0.0, 1.0, 18.25, 219.5)">
    <path d="M-5.85 -215.55 Q-7.15 -216.25 -9.0 -216.25 -10.85 -216.25 -12.2 -215.55 -13.5 -214.8 -13.5 -213.75 -13.5 -212.7 -12.2 -212.0 -10.85 -211.25 -9.0 -211.25 -7.15 -211.25 -5.85 -212.0 -4.5 -212.7 -4.5 -213.75 -4.5 -214.8 -5.85 -215.55 M-4.25 -216.55 Q-2.3 -215.3 -2.25 -213.5 -2.3 -211.7 -4.25 -210.4 -6.45 -209.0 -9.5 -209.0 -12.55 -209.0 -14.7 -210.4 -16.7 -211.7 -16.75 -213.5 -16.7 -215.3 -14.7 -216.55 -12.55 -218.0 -9.5 -218.0 -6.45 -218.0 -4.25 -216.55" fill="#cccccc" fill-rule="evenodd" stroke="none"/>
    <path d="M-5.85 -215.55 Q-4.5 -214.8 -4.5 -213.75 -4.5 -212.7 -5.85 -212.0 -7.15 -211.25 -9.0 -211.25 -10.85 -211.25 -12.2 -212.0 -13.5 -212.7 -13.5 -213.75 -13.5 -214.8 -12.2 -215.55 -10.85 -216.25 -9.0 -216.25 -7.15 -216.25 -5.85 -215.55" fill="#ffffff" fill-rule="evenodd" stroke="none"/>
    <path d="M-4.25 -216.55 Q-6.45 -218.0 -9.5 -218.0 -12.55 -218.0 -14.7 -216.55 -16.7 -215.3 -16.75 -213.5 -16.7 -211.7 -14.7 -210.4 -12.55 -209.0 -9.5 -209.0 -6.45 -209.0 -4.25 -210.4 -2.3 -211.7 -2.25 -213.5 -2.3 -215.3 -4.25 -216.55 M-9.5 -219.5 Q-5.95 -219.5 -3.4 -217.8 -0.7 -216.0 -0.75 -213.5 -0.7 -211.0 -3.4 -209.15 -5.95 -207.5 -9.5 -207.5 -13.05 -207.5 -15.55 -209.15 -18.3 -211.0 -18.25 -213.5 -18.3 -216.0 -15.55 -217.8 -13.05 -219.5 -9.5 -219.5" fill="#666666" fill-rule="evenodd" stroke="none"/>
  </g>
</svg>
