<?xml version="1.0" encoding="UTF-8" standalone="no"?>
<svg xmlns:ffdec="https://www.free-decompiler.com/flash" xmlns:xlink="http://www.w3.org/1999/xlink" ffdec:objectType="shape" height="55.55px" width="73.25px" xmlns="http://www.w3.org/2000/svg">
  <g transform="matrix(1.0, 0.0, 0.0, 1.0, 36.55, 27.75)">
    <path d="M10.8 -26.05 L8.45 -26.5 6.55 -26.75 M18.1 -23.4 L14.5 -24.95 M24.65 -18.95 L21.55 -21.35 M29.95 -12.95 L27.5 -16.1 M33.25 -5.75 L31.9 -9.45 M35.5 6.7 Q35.05 5.2 34.15 3.95 L34.25 2.85 M31.9 21.85 L33.1 20.6 Q33.9 19.65 34.35 18.5 M35.55 14.75 Q36.0 12.75 35.95 10.75 M1.05 26.8 Q3.05 27.05 5.1 26.85 M9.1 26.75 L13.15 26.85 M17.25 25.9 L17.55 25.95 17.8 26.0 21.15 26.05 M25.15 25.35 L29.0 23.85 M34.3 2.05 L34.05 -1.85 M-5.35 -26.15 L-9.25 -25.1 M-19.75 -19.55 L-21.25 -18.2 -21.35 -18.1 -22.3 -17.15 -22.35 -17.05 -22.75 -16.55 M-25.0 -13.35 L-26.85 -9.85 M-28.25 -6.15 L-29.2 -2.15 M-13.0 -23.65 L-16.45 -21.85 M-29.6 2.0 L-29.65 3.1 -29.6 3.85 Q-30.6 4.2 -31.5 4.75 M-34.25 7.45 L-34.45 7.75 -34.45 7.8 Q-35.55 9.45 -35.8 11.15 M-35.25 15.2 L-34.25 17.0 -34.2 17.0 -33.05 18.45 M-29.65 20.55 L-28.3 20.95 -28.15 20.95 Q-26.9 21.25 -25.8 21.8 M-6.95 27.0 L-2.9 26.75 M-14.75 26.6 L-11.95 26.6 -11.3 26.5 -11.0 26.55 M-22.4 24.05 Q-20.65 25.1 -18.75 25.75 M2.6 -27.0 L-1.35 -26.8" fill="none" stroke="#5fc5c9" stroke-linecap="round" stroke-linejoin="round" stroke-width="1.5"/>
  </g>
</svg>
