<?xml version="1.0" encoding="UTF-8" standalone="no"?>
<svg xmlns:ffdec="https://www.free-decompiler.com/flash" xmlns:xlink="http://www.w3.org/1999/xlink" ffdec:objectType="shape" height="108.45px" width="33.5px" xmlns="http://www.w3.org/2000/svg">
  <g transform="matrix(1.0, 0.0, 0.0, 1.0, -25.15, 43.9)">
    <path d="M36.05 17.1 Q36.65 26.8 41.85 34.95 44.9 39.75 47.15 45.05 49.35 50.25 47.3 55.55 46.6 57.45 45.6 58.95 44.35 60.75 42.05 61.4 35.35 63.5 30.6 58.3 25.45 52.6 28.0 45.35 28.7 43.45 30.3 43.1 L28.5 48.95 Q28.2 49.95 28.35 51.05 29.25 58.45 36.45 60.6 38.65 61.2 40.8 60.65 44.85 59.45 46.35 55.65 48.7 49.65 45.65 44.05 42.1 37.5 38.7 30.8 36.9 27.25 36.2 23.4 35.55 19.95 36.05 17.1" fill="#9f9f9f" fill-rule="evenodd" stroke="none"/>
    <path d="M39.25 42.7 L39.65 43.75 38.8 45.6 38.65 44.5 Q38.7 42.95 37.35 42.15 36.45 41.65 35.55 41.85 31.1 42.1 29.75 46.4 27.9 52.2 32.05 56.6 35.2 60.0 39.9 59.25 44.1 58.5 44.9 54.05 46.1 47.55 43.2 41.55 42.15 39.45 40.2 37.7 39.0 36.55 38.1 34.95 35.85 31.2 34.95 26.75 32.8 15.85 33.85 5.1 34.5 -2.35 36.75 -9.7 L36.1 -8.2 Q37.2 -12.5 40.6 -15.05 L41.5 -15.1 41.65 -15.05 Q45.8 -14.6 47.1 -10.35 49.85 -0.95 50.25 8.9 50.35 12.05 49.05 14.95 46.8 19.95 44.9 25.05 43.85 27.75 44.25 30.75 44.85 35.65 47.4 39.95 50.0 44.35 50.45 49.35 50.95 54.5 48.45 58.85 47.7 60.1 46.6 60.95 40.35 65.55 32.5 62.7 L31.1 62.05 Q27.7 60.0 26.6 56.1 25.5 52.05 26.35 48.1 27.45 43.05 32.25 40.8 36.85 38.5 39.25 42.7 M36.05 17.1 Q35.55 19.95 36.2 23.4 36.9 27.25 38.7 30.8 42.1 37.5 45.65 44.05 48.7 49.65 46.35 55.65 44.85 59.45 40.8 60.65 38.65 61.2 36.45 60.6 29.25 58.45 28.35 51.05 28.2 49.95 28.5 48.95 L30.3 43.1 Q28.7 43.45 28.0 45.35 25.45 52.6 30.6 58.3 35.35 63.5 42.05 61.4 44.35 60.75 45.6 58.95 46.6 57.45 47.3 55.55 49.35 50.25 47.15 45.05 44.9 39.75 41.85 34.95 36.65 26.8 36.05 17.1" fill="#858585" fill-rule="evenodd" stroke="none"/>
    <path d="M39.25 42.7 Q36.85 38.5 32.25 40.8 27.45 43.05 26.35 48.1 25.5 52.05 26.6 56.1 27.7 60.0 31.1 62.05 L32.5 62.7 Q40.35 65.55 46.6 60.95 47.7 60.1 48.45 58.85 50.95 54.5 50.45 49.35 50.0 44.35 47.4 39.95 44.85 35.65 44.25 30.75 43.85 27.75 44.9 25.05 46.8 19.95 49.05 14.95 50.35 12.05 50.25 8.9 49.85 -0.95 47.1 -10.35 45.8 -14.6 41.65 -15.05 L41.5 -15.1 40.6 -15.05 Q37.2 -12.5 36.1 -8.2 L36.75 -9.7 Q34.5 -2.35 33.85 5.1 32.8 15.85 34.95 26.75 35.85 31.2 38.1 34.95 39.0 36.55 40.2 37.7 42.15 39.45 43.2 41.55 46.1 47.55 44.9 54.05 44.1 58.5 39.9 59.25 35.2 60.0 32.05 56.6 27.9 52.2 29.75 46.4 31.1 42.1 35.55 41.85 36.45 41.65 37.35 42.15 38.7 42.95 38.65 44.5 L38.8 45.6 39.65 43.75 39.25 42.7 M51.55 8.85 Q50.95 16.25 47.1 22.7 44.7 26.85 45.45 31.65 45.85 34.15 47.05 36.5 49.25 40.7 50.7 45.25 52.85 51.8 50.45 58.05 47.95 64.55 41.2 64.55 L35.0 64.4 Q28.05 63.55 25.95 56.75 23.65 49.35 27.95 42.75 30.65 38.55 35.4 39.2 39.2 39.8 39.95 43.5 40.3 45.05 39.35 46.4 L38.45 46.5 Q38.2 45.0 37.35 43.35 37.05 42.7 36.4 42.4 L34.85 42.2 Q32.55 42.7 31.45 44.8 27.7 52.15 34.2 57.1 36.55 58.85 39.7 58.0 44.35 57.0 44.5 51.85 44.65 45.45 41.05 40.5 L39.25 38.2 Q35.1 33.15 33.65 26.55 31.65 17.35 32.45 7.9 L32.7 5.1 Q33.25 -0.2 34.25 -5.4 34.8 -8.3 35.95 -11.05 37.7 -15.15 41.65 -15.6 L42.7 -15.65 Q43.8 -16.05 44.85 -15.4 46.25 -14.45 46.95 -12.95 51.65 -2.65 51.55 8.85" fill="#4d4d4d" fill-rule="evenodd" stroke="none"/>
    <path d="M47.65 -13.25 L47.65 -21.1 50.95 -16.2 Q57.65 -6.7 57.65 2.35 57.65 6.6 56.7 8.65 55.4 11.55 50.85 15.05 53.1 13.15 53.8 9.5 54.2 7.55 54.2 3.6 54.2 -2.25 51.8 -7.0 50.75 -9.1 47.65 -13.25" fill="#989898" fill-rule="evenodd" stroke="none"/>
    <path d="M47.8 -43.9 L47.65 -43.45 47.65 -43.9 47.8 -43.9 M47.65 -13.25 Q50.75 -9.1 51.8 -7.0 54.2 -2.25 54.2 3.6 54.2 7.55 53.8 9.5 53.1 13.15 50.85 15.05 55.4 11.55 56.7 8.65 57.65 6.6 57.65 2.35 57.65 -6.7 50.95 -16.2 L47.65 -21.1 47.65 -23.0 Q48.9 -20.85 51.9 -16.6 58.65 -6.95 58.65 2.35 58.65 8.35 55.85 11.75 L53.9 14.05 Q52.5 15.5 50.7 16.35 45.3 19.6 43.55 19.6 42.85 19.6 42.75 19.3 L42.75 19.0 Q42.75 18.4 43.85 18.15 45.65 17.75 46.6 17.2 L47.85 16.5 49.1 15.5 52.05 11.55 Q52.95 9.9 53.2 7.6 L53.25 3.7 Q53.25 -2.0 50.85 -6.7 L47.65 -11.55 47.65 -13.25" fill="#606060" fill-rule="evenodd" stroke="none"/>
  </g>
</svg>
