<?xml version="1.0" encoding="UTF-8" standalone="no"?>
<svg xmlns:ffdec="https://www.free-decompiler.com/flash" xmlns:xlink="http://www.w3.org/1999/xlink" ffdec:objectType="shape" height="99.4px" width="75.05px" xmlns="http://www.w3.org/2000/svg">
  <g transform="matrix(1.0, 0.0, 0.0, 1.0, 69.55, 25.95)">
    <path d="M-58.1 18.95 L-53.85 16.5 Q-51.9 15.35 -51.0 14.1 -48.9 11.25 -48.7 1.85 -48.6 -5.0 -46.75 -9.05 -43.35 -16.6 -32.4 -25.95 L-29.25 -25.95 Q-36.65 -20.3 -41.35 -13.8 -46.3 -6.95 -46.2 -1.8 -46.2 -1.3 -46.95 3.25 L-47.95 8.45 Q-50.6 15.1 -52.7 16.7 -54.15 17.75 -58.1 18.95 M-32.7 -25.95 L-33.35 -25.6 -32.9 -25.95 -32.7 -25.95" fill="#d1d1d1" fill-rule="evenodd" stroke="none"/>
    <path d="M-33.35 -25.6 Q-35.4 -24.6 -37.65 -22.4 -40.6 -19.5 -45.75 -12.9 -45.4 -14.2 -40.85 -19.85 L-35.55 -25.95 -32.9 -25.95 -33.35 -25.6 M-21.2 -25.95 Q-27.55 -21.75 -33.7 -15.3 -41.1 -7.45 -42.4 -1.8 -43.65 3.55 -43.45 8.15 L-43.05 13.05 -43.3 13.8 Q-43.25 12.3 -43.6 9.3 L-43.95 5.95 Q-43.95 -0.2 -43.3 -3.55 -42.35 -8.15 -39.85 -10.25 L-38.05 -12.7 -38.15 -12.8 Q-43.7 -7.75 -44.7 -2.0 -45.25 1.3 -45.1 7.35 -45.65 12.75 -51.9 17.35 -57.55 21.55 -62.1 21.55 -64.2 21.55 -65.85 20.7 -68.25 19.45 -68.6 16.75 -68.45 16.15 -67.9 16.85 L-65.7 18.85 -63.35 19.5 Q-60.7 19.9 -58.1 18.95 -54.15 17.75 -52.7 16.7 -50.6 15.1 -47.95 8.45 L-46.95 3.25 Q-46.2 -1.3 -46.2 -1.8 -46.3 -6.95 -41.35 -13.8 -36.65 -20.3 -29.25 -25.95 L-21.2 -25.95 M-41.6 10.5 Q-41.25 10.9 -40.55 14.3 -39.85 17.8 -39.85 19.5 -39.85 21.7 -41.5 28.45 -43.3 35.85 -44.85 38.75 -46.6 42.0 -48.35 43.2 -51.2 45.1 -57.05 45.1 -62.05 45.1 -65.05 42.25 -68.15 39.3 -68.15 34.1 -68.15 30.3 -65.55 28.85 L-65.1 28.95 Q-65.75 30.0 -66.75 33.15 -66.75 42.15 -56.4 42.15 -53.8 42.15 -50.75 39.65 -47.15 36.75 -46.6 32.5 L-45.45 26.65 Q-44.9 24.45 -44.9 21.35 L-45.85 12.1 Q-45.85 11.5 -45.45 11.0 L-45.05 10.6 -44.55 9.0 -44.25 11.5 Q-44.25 12.5 -45.0 19.35 -43.3 17.7 -43.0 16.75 -42.35 15.0 -42.05 9.15 L-41.6 10.5 M-56.65 17.7 Q-57.1 16.5 -57.1 15.15 -57.1 12.2 -55.7 8.95 -54.0 4.85 -49.7 -0.75 -49.15 1.45 -50.25 4.65 -50.95 6.8 -52.8 10.4 -53.05 10.9 -53.7 14.85 -54.05 17.05 -56.65 17.7 M-52.55 22.3 L-54.75 20.25 -54.0 19.85 Q-53.35 21.5 -52.55 22.3" fill="#989898" fill-rule="evenodd" stroke="none"/>
    <path d="M-35.55 -25.95 L-40.85 -19.85 Q-45.4 -14.2 -45.75 -12.9 -40.6 -19.5 -37.65 -22.4 -35.4 -24.6 -33.35 -25.6 L-32.7 -25.95 -32.4 -25.95 Q-43.35 -16.6 -46.75 -9.05 -48.6 -5.0 -48.7 1.85 -48.9 11.25 -51.0 14.1 -51.9 15.35 -53.85 16.5 L-58.1 18.95 Q-60.7 19.9 -63.35 19.5 L-65.7 18.85 -67.9 16.85 Q-68.45 16.15 -68.6 16.75 -68.25 19.45 -65.85 20.7 -64.2 21.55 -62.1 21.55 -57.55 21.55 -51.9 17.35 -45.65 12.75 -45.1 7.35 -45.25 1.3 -44.7 -2.0 -43.7 -7.75 -38.15 -12.8 L-38.05 -12.7 -39.85 -10.25 Q-42.35 -8.15 -43.3 -3.55 -43.95 -0.2 -43.95 5.95 L-43.6 9.3 Q-43.25 12.3 -43.3 13.8 L-43.05 13.05 -43.45 8.15 Q-43.65 3.55 -42.4 -1.8 -41.1 -7.45 -33.7 -15.3 -27.55 -21.75 -21.2 -25.95 L-19.6 -25.95 Q-34.25 -15.5 -39.45 -6.05 -41.9 -1.6 -41.9 2.5 L-40.3 10.5 Q-38.7 18.05 -38.7 19.4 -38.7 21.35 -39.8 26.1 L-41.7 34.4 Q-42.05 36.3 -45.3 40.55 -48.35 44.55 -49.5 45.2 L-51.15 45.7 Q-56.85 48.2 -63.0 44.7 -69.0 41.25 -69.0 36.0 -69.0 31.65 -67.8 29.7 -66.9 28.2 -65.4 28.2 -64.75 28.2 -64.1 28.65 L-63.6 29.1 -63.65 29.3 -65.05 31.5 -65.85 33.15 Q-65.85 37.0 -63.55 39.05 -61.25 41.1 -56.95 41.1 -53.8 41.1 -51.9 39.6 -50.0 38.0 -48.2 33.85 L-47.6 31.75 -46.75 26.2 -50.05 24.9 -51.9 23.85 Q-53.1 23.25 -54.4 21.9 -55.4 20.85 -55.85 20.85 -57.8 22.5 -62.3 22.45 -66.0 22.45 -68.0 20.65 -69.55 19.25 -69.55 17.7 -69.55 17.0 -69.0 15.75 -68.3 14.25 -67.25 13.4 L-66.8 13.7 Q-68.2 15.2 -66.9 16.85 -65.4 18.75 -61.1 18.75 -59.25 18.75 -57.5 18.1 -59.5 14.7 -56.0 7.2 -52.8 0.4 -49.6 -1.85 -49.4 -4.25 -47.6 -10.35 -46.5 -13.95 -42.45 -19.55 -38.05 -25.7 -35.55 -25.95 M-56.65 17.7 Q-54.05 17.05 -53.7 14.85 -53.05 10.9 -52.8 10.4 -50.95 6.8 -50.25 4.65 -49.15 1.45 -49.7 -0.75 -54.0 4.85 -55.7 8.95 -57.1 12.2 -57.1 15.15 -57.1 16.5 -56.65 17.7 M-41.6 10.5 L-42.05 9.15 Q-42.35 15.0 -43.0 16.75 -43.3 17.7 -45.0 19.35 -44.25 12.5 -44.25 11.5 L-44.55 9.0 -45.05 10.6 -45.45 11.0 Q-45.85 11.5 -45.85 12.1 L-44.9 21.35 Q-44.9 24.45 -45.45 26.65 L-46.6 32.5 Q-47.15 36.75 -50.75 39.65 -53.8 42.15 -56.4 42.15 -66.75 42.15 -66.75 33.15 -65.75 30.0 -65.1 28.95 L-65.55 28.85 Q-68.15 30.3 -68.15 34.1 -68.15 39.3 -65.05 42.25 -62.05 45.1 -57.05 45.1 -51.2 45.1 -48.35 43.2 -46.6 42.0 -44.85 38.75 -43.3 35.85 -41.5 28.45 -39.85 21.7 -39.85 19.5 -39.85 17.8 -40.55 14.3 -41.25 10.9 -41.6 10.5 M-52.05 18.6 L-53.0 19.25 -52.15 20.85 -50.5 23.1 Q-47.55 25.0 -46.45 24.95 -46.3 23.9 -46.3 22.15 L-46.45 18.1 -46.8 13.6 -48.8 15.7 -50.75 17.65 -52.05 18.6 M-52.55 22.3 Q-53.35 21.5 -54.0 19.85 L-54.75 20.25 -52.55 22.3 M-49.95 6.5 Q-51.95 9.55 -53.05 15.0 L-51.05 10.85 Q-50.0 8.3 -49.95 6.5" fill="#606060" fill-rule="evenodd" stroke="none"/>
    <path d="M-12.65 67.05 L-13.85 69.5 -14.6 70.55 Q-13.45 66.2 -13.3 64.8 -13.15 63.45 -13.55 61.75 -13.1 59.4 -17.75 53.3 -22.6 46.85 -22.6 42.85 -22.6 42.2 -21.5 41.2 -21.95 45.35 -17.3 52.15 -12.4 59.25 -12.4 63.25 -12.4 65.95 -12.65 67.05 M-38.15 24.05 L-39.1 29.2 Q-40.1 34.25 -40.65 35.55 -44.8 44.95 -48.6 51.6 -50.1 54.2 -50.1 57.0 -50.1 61.75 -47.65 64.65 -45.25 67.45 -41.4 67.45 -37.2 67.45 -34.2 64.4 -31.1 61.25 -31.1 56.5 -31.1 56.0 -31.8 53.9 L-33.1 49.6 -32.55 49.8 Q-31.45 50.8 -30.6 53.5 -29.9 55.65 -29.9 56.65 -29.9 61.1 -33.4 64.8 -36.95 68.55 -41.35 68.55 -45.15 68.55 -47.65 66.3 -51.05 63.3 -51.05 56.8 -51.05 54.4 -49.5 50.15 -47.4 44.5 -43.6 39.75 -41.4 37.0 -40.0 31.55 L-38.15 24.05" fill="#9f9f9f" fill-rule="evenodd" stroke="none"/>
    <path d="M-50.05 24.9 L-46.75 26.2 -47.6 31.75 -49.55 27.4 -50.05 24.9 M-49.5 45.2 Q-48.35 44.55 -45.3 40.55 -42.05 36.3 -41.7 34.4 L-39.8 26.1 Q-38.7 21.35 -38.7 19.4 -38.7 18.05 -40.3 10.5 L-41.9 2.5 Q-41.9 -1.6 -39.45 -6.05 -34.25 -15.5 -19.6 -25.95 L4.55 -25.95 3.3 -14.0 Q2.45 -7.15 2.45 -1.8 3.1 -2.15 0.05 11.6 -3.05 25.45 -4.3 26.7 -5.65 38.2 -6.45 42.25 -7.45 47.05 -10.4 55.8 L-10.85 54.65 -13.35 48.45 Q-14.15 46.45 -15.4 44.55 L-14.9 46.6 -11.9 54.7 Q-10.9 57.2 -10.9 59.65 -10.9 60.9 -11.55 63.5 -12.15 66.05 -12.65 67.05 -12.4 65.95 -12.4 63.25 -12.4 59.25 -17.3 52.15 -21.95 45.35 -21.5 41.2 -22.6 42.2 -22.6 42.85 -22.6 46.85 -17.75 53.3 -13.1 59.4 -13.55 61.75 -14.65 59.2 -15.65 58.3 L-18.25 56.5 Q-21.15 54.75 -23.65 52.65 -28.6 48.5 -28.6 45.35 L-24.65 39.55 Q-23.75 38.25 -21.85 33.9 L-20.1 29.75 -19.65 28.75 -25.15 38.3 -31.55 48.15 Q-32.1 47.2 -33.9 46.3 -36.1 45.25 -38.0 45.7 -36.1 41.45 -35.9 37.4 L-36.0 30.8 Q-36.0 24.8 -34.7 19.5 L-33.1 15.35 Q-31.95 12.8 -31.95 11.6 -34.7 13.5 -35.9 19.7 L-36.7 26.65 Q-37.25 31.35 -38.9 36.45 -40.65 41.8 -42.4 43.65 L-46.25 47.8 Q-48.0 50.85 -48.0 57.5 -48.0 65.9 -41.4 65.9 -36.75 65.9 -34.05 62.25 -31.95 59.45 -31.95 56.35 -31.95 51.9 -34.55 49.75 -36.35 48.3 -38.55 48.3 -39.05 48.3 -39.7 48.7 -40.85 49.35 -41.45 51.0 L-41.6 52.1 Q-42.45 51.25 -42.45 50.25 -42.45 48.7 -40.5 47.45 -39.0 46.5 -38.2 46.5 -33.7 46.5 -31.05 50.4 -28.75 53.85 -28.75 58.6 -28.75 64.55 -32.5 67.65 -35.75 70.35 -40.9 70.35 -47.05 70.35 -50.4 66.55 -53.3 63.3 -53.3 58.4 -53.3 56.3 -52.0 51.8 -50.7 47.4 -49.5 45.2 M-39.3 55.5 L-39.1 48.8 -37.65 48.7 Q-35.75 48.7 -34.25 51.3 -32.85 53.75 -32.85 56.55 -32.85 58.45 -33.75 60.35 -35.0 63.0 -37.6 64.0 L-39.1 59.0 Q-39.3 58.3 -39.3 55.5 M-38.15 24.05 L-40.0 31.55 Q-41.4 37.0 -43.6 39.75 -47.4 44.5 -49.5 50.15 -51.05 54.4 -51.05 56.8 -51.05 63.3 -47.65 66.3 -45.15 68.55 -41.35 68.55 -36.95 68.55 -33.4 64.8 -29.9 61.1 -29.9 56.65 -29.9 55.65 -30.6 53.5 -31.45 50.8 -32.55 49.8 L-33.1 49.6 -31.8 53.9 Q-31.1 56.0 -31.1 56.5 -31.1 61.25 -34.2 64.4 -37.2 67.45 -41.4 67.45 -45.25 67.45 -47.65 64.65 -50.1 61.75 -50.1 57.0 -50.1 54.2 -48.6 51.6 -44.8 44.95 -40.65 35.55 -40.1 34.25 -39.1 29.2 L-38.15 24.05 M-50.75 17.65 L-48.8 15.7 -46.8 13.6 -46.45 18.1 -46.3 22.15 Q-46.3 23.9 -46.45 24.95 -47.55 25.0 -50.5 23.1 L-51.0 20.0 -50.75 17.65 M-23.85 69.55 Q-21.7 69.55 -19.55 68.05 -17.9 66.9 -16.75 65.35 L-16.65 65.3 Q-17.1 67.35 -19.9 70.05 -22.5 72.5 -23.5 72.5 -25.7 72.5 -28.4 71.55 -31.4 70.5 -32.55 68.95 L-31.1 67.4 -29.7 65.65 -26.25 68.55 Q-24.7 69.55 -23.85 69.55" fill="#858585" fill-rule="evenodd" stroke="none"/>
    <path d="M-51.9 23.85 L-50.05 24.9 -49.55 27.4 -47.6 31.75 -48.2 33.85 Q-49.05 30.6 -50.65 27.8 -51.8 25.7 -51.9 23.85 M-51.15 45.7 L-49.5 45.2 Q-50.7 47.4 -52.0 51.8 -53.3 56.3 -53.3 58.4 -53.3 63.3 -50.4 66.55 -47.05 70.35 -40.9 70.35 -35.75 70.35 -32.5 67.65 -28.75 64.55 -28.75 58.6 -28.75 53.85 -31.05 50.4 -33.7 46.5 -38.2 46.5 -39.0 46.5 -40.5 47.45 -42.45 48.7 -42.45 50.25 -42.45 51.25 -41.6 52.1 L-41.45 51.0 Q-40.85 49.35 -39.7 48.7 -39.05 48.3 -38.55 48.3 -36.35 48.3 -34.55 49.75 -31.95 51.9 -31.95 56.35 -31.95 59.45 -34.05 62.25 -36.75 65.9 -41.4 65.9 -48.0 65.9 -48.0 57.5 -48.0 50.85 -46.25 47.8 L-42.4 43.65 Q-40.65 41.8 -38.9 36.45 -37.25 31.35 -36.7 26.65 L-35.9 19.7 Q-34.7 13.5 -31.95 11.6 -31.95 12.8 -33.1 15.35 L-34.7 19.5 Q-36.0 24.8 -36.0 30.8 L-35.9 37.4 Q-36.1 41.45 -38.0 45.7 -36.1 45.25 -33.9 46.3 -32.1 47.2 -31.55 48.15 L-25.15 38.3 -19.65 28.75 -20.1 29.75 -21.85 33.9 Q-23.75 38.25 -24.65 39.55 L-28.6 45.35 Q-28.6 48.5 -23.65 52.65 -21.15 54.75 -18.25 56.5 L-15.65 58.3 Q-14.65 59.2 -13.55 61.75 -13.15 63.45 -13.3 64.8 -13.45 66.2 -14.6 70.55 L-13.85 69.5 -12.65 67.05 Q-12.15 66.05 -11.55 63.5 -10.9 60.9 -10.9 59.65 -10.9 57.2 -11.9 54.7 L-14.9 46.6 -15.4 44.55 Q-14.15 46.45 -13.35 48.45 L-10.85 54.65 -10.4 55.8 Q-7.45 47.05 -6.45 42.25 -5.65 38.2 -4.3 26.7 -3.05 25.45 0.05 11.6 3.1 -2.15 2.45 -1.8 2.45 -7.15 3.3 -14.0 L4.55 -25.95 5.5 -25.95 5.15 -19.15 4.4 -7.85 Q3.35 1.65 0.7 12.4 L-2.2 22.95 Q-3.85 28.9 -4.2 32.2 -4.95 39.2 -6.8 48.65 L-8.45 57.35 Q-10.2 65.45 -12.2 69.15 L-13.95 71.1 -16.45 73.15 -16.7 72.6 Q-16.0 71.1 -15.05 68.05 -14.15 65.05 -14.15 64.2 -14.15 60.3 -17.1 58.4 -21.4 56.3 -24.05 54.1 L-27.1 50.5 -29.5 46.95 -30.05 48.2 -30.65 49.45 -29.25 52.75 Q-27.85 56.15 -27.85 57.95 L-28.25 61.5 -28.9 63.25 -29.15 64.45 Q-29.15 65.4 -26.95 67.0 -24.8 68.6 -23.75 68.6 -20.25 68.6 -17.85 64.95 L-16.05 61.1 -15.8 61.2 Q-15.05 61.75 -15.05 62.8 -15.05 64.85 -17.55 68.8 -20.5 73.45 -23.55 73.45 -25.3 73.45 -27.9 72.55 -29.1 72.15 -31.05 70.8 -32.7 69.65 -33.6 69.65 -34.35 69.65 -36.4 70.35 L-44.0 71.05 Q-47.9 71.05 -50.7 68.55 -54.5 65.2 -54.5 58.25 -54.5 52.0 -51.15 45.7 M-42.8 50.8 Q-42.8 48.75 -41.1 47.6 -39.1 46.25 -38.5 43.75 -36.8 35.55 -36.75 34.3 L-37.1 35.8 Q-38.85 40.05 -44.05 48.1 -47.3 53.1 -47.3 58.35 -47.3 61.5 -45.3 63.2 -43.45 64.8 -40.4 64.8 L-39.1 64.65 -38.55 64.45 Q-40.25 61.65 -40.25 55.55 L-39.7 49.25 Q-40.4 50.2 -41.25 53.0 L-42.15 52.9 Q-42.8 51.7 -42.8 50.8 M-39.3 55.5 Q-39.3 58.3 -39.1 59.0 L-37.6 64.0 Q-35.0 63.0 -33.75 60.35 -32.85 58.45 -32.85 56.55 -32.85 53.75 -34.25 51.3 -35.75 48.7 -37.65 48.7 L-39.1 48.8 -39.3 55.5 M-52.05 18.6 L-50.75 17.65 -51.0 20.0 -50.5 23.1 -52.15 20.85 -52.05 18.6 M-23.85 69.55 Q-24.7 69.55 -26.25 68.55 L-29.7 65.65 -31.1 67.4 -32.55 68.95 Q-31.4 70.5 -28.4 71.55 -25.7 72.5 -23.5 72.5 -22.5 72.5 -19.9 70.05 -17.1 67.35 -16.65 65.3 L-16.75 65.35 Q-17.9 66.9 -19.55 68.05 -21.7 69.55 -23.85 69.55" fill="#4d4d4d" fill-rule="evenodd" stroke="none"/>
  </g>
</svg>
