<?xml version="1.0" encoding="UTF-8" standalone="no"?>
<svg xmlns:ffdec="https://www.free-decompiler.com/flash" xmlns:xlink="http://www.w3.org/1999/xlink" ffdec:objectType="shape" height="27.0px" width="134.0px" xmlns="http://www.w3.org/2000/svg">
  <g transform="matrix(1.0, 0.0, 0.0, 1.0, 1.0, 1.0)">
    <path d="M0.05 26.0 L-0.95 26.0 -0.95 10.35 -0.95 10.25 Q-1.35 4.6 1.5 1.8 4.25 -1.05 10.3 -1.0 L121.7 -1.0 Q127.75 -1.05 130.5 1.8 133.35 4.6 132.95 10.25 L132.95 26.0 131.95 26.0 131.95 25.0 131.95 10.25 Q132.75 -0.1 121.7 0.0 L10.3 0.0 Q-0.75 -0.1 0.05 10.25 L0.05 25.0 0.05 26.0" fill="#585858" fill-rule="evenodd" stroke="none"/>
    <path d="M0.05 25.0 L0.05 10.25 Q-0.75 -0.1 10.3 0.0 L121.7 0.0 Q132.75 -0.1 131.95 10.25 L131.95 25.0 128.95 25.0 128.95 9.95 Q128.95 3.4 122.05 3.0 L9.95 3.0 Q3.05 3.4 3.05 9.95 L3.05 25.0 0.05 25.0" fill="#d4a713" fill-rule="evenodd" stroke="none"/>
    <path d="M3.05 25.0 L3.05 9.95 Q3.05 3.4 9.95 3.0 L122.05 3.0 Q128.95 3.4 128.95 9.95 L128.95 25.0 127.95 25.0 127.95 9.95 Q127.95 4.35 122.0 4.0 L10.0 4.0 Q4.05 4.35 4.05 9.95 L4.05 25.0 3.05 25.0" fill="#fff675" fill-rule="evenodd" stroke="none"/>
    <path d="M128.95 26.0 L127.95 26.0 127.95 25.0 128.95 25.0 128.95 26.0 M4.05 26.0 L3.05 26.0 3.05 25.0 4.05 25.0 4.05 9.95 Q4.05 4.35 10.0 4.0 L122.0 4.0 Q127.95 4.35 127.95 9.95 L127.95 25.0 4.05 25.0 4.05 26.0" fill="#f8e70f" fill-rule="evenodd" stroke="none"/>
    <path d="M0.05 26.0 L0.05 25.0 3.05 25.0 3.05 26.0 0.05 26.0 M131.95 25.0 L131.95 26.0 128.95 26.0 128.95 25.0 131.95 25.0" fill="#c78c11" fill-rule="evenodd" stroke="none"/>
    <path d="M127.95 26.0 L4.05 26.0 4.05 25.0 127.95 25.0 127.95 26.0" fill="#dfb70f" fill-rule="evenodd" stroke="none"/>
  </g>
</svg>
