<?xml version="1.0" encoding="UTF-8" standalone="no"?>
<svg xmlns:ffdec="https://www.free-decompiler.com/flash" xmlns:xlink="http://www.w3.org/1999/xlink" ffdec:objectType="shape" height="26.6px" width="15.6px" xmlns="http://www.w3.org/2000/svg">
  <g transform="matrix(1.0, 0.0, 0.0, 1.0, -7.85, 20.35)">
    <path d="M11.45 -18.75 L11.3 -18.95 16.1 -20.35 18.55 -13.05 19.6 -11.15 Q18.85 -9.25 18.8 -8.2 L20.55 -7.1 19.75 -3.8 22.85 -3.4 22.8 -2.45 Q21.15 -1.9 19.85 -0.9 L18.3 0.45 17.55 0.1 17.55 -0.7 17.95 -1.25 17.4 -1.2 16.95 -1.25 16.65 -1.35 16.55 -1.4 Q16.45 -1.95 16.6 -2.4 L16.65 -2.75 Q16.85 -3.75 17.2 -4.75 L16.9 -4.9 16.65 -4.85 16.2 -4.85 16.1 -4.85 16.65 -7.0 16.7 -7.3 16.45 -7.95 14.05 -7.15 13.5 -7.15 13.2 -8.3 15.7 -10.4 16.65 -11.2 17.35 -12.15 11.45 -18.75 M13.0 -11.8 L16.1 -12.4 16.05 -11.75 13.45 -11.0 12.6 -11.1 13.0 -11.8" fill="#ffffff" fill-rule="evenodd" stroke="none"/>
    <path d="M8.55 -17.8 L11.45 -18.75 17.35 -12.15 16.65 -11.2 15.7 -10.4 13.2 -8.3 13.5 -7.15 14.05 -7.15 16.45 -7.95 16.7 -7.3 16.65 -7.0 16.1 -4.85 16.2 -4.85 16.65 -4.85 16.9 -4.9 17.2 -4.75 Q16.85 -3.75 16.65 -2.75 L16.6 -2.4 Q16.45 -1.95 16.55 -1.4 L16.65 -1.35 16.95 -1.25 17.4 -1.2 17.95 -1.25 17.55 -0.7 17.55 0.1 18.3 0.45 17.45 1.1 Q17.05 1.4 14.2 2.5 L12.9 3.05 13.55 1.9 14.8 1.25 15.3 0.85 15.7 0.3 16.05 -0.25 14.05 -0.15 13.35 -0.6 13.8 -1.35 14.3 -2.25 14.65 -3.15 14.9 -4.25 12.6 -2.85 12.1 -3.1 12.75 -3.85 13.25 -4.55 13.45 -5.25 13.5 -6.1 12.3 -6.15 11.85 -6.3 11.55 -6.45 12.0 -8.45 Q12.5 -10.85 8.55 -17.8 M13.0 -11.8 L12.6 -11.1 13.45 -11.0 16.05 -11.75 16.1 -12.4 13.0 -11.8" fill="#d1d1d1" fill-rule="evenodd" stroke="none"/>
    <path d="M22.8 -2.45 L22.9 -2.5 22.95 -2.2 22.95 -2.15 Q22.8 -1.8 20.85 -0.35 L18.15 1.6 Q17.65 2.05 15.55 3.15 13.1 4.45 12.3 4.45 L11.85 4.4 Q11.45 4.6 11.1 4.75 10.65 3.25 10.8 2.85 11.55 1.15 11.05 -0.45 L10.3 -0.65 9.95 -1.05 10.65 -3.9 9.85 -5.15 10.2 -6.8 Q10.7 -9.35 8.15 -17.5 L8.55 -17.8 Q12.5 -10.85 12.0 -8.45 L11.55 -6.45 11.85 -6.3 12.3 -6.15 13.5 -6.1 13.45 -5.25 13.25 -4.55 12.75 -3.85 12.1 -3.1 12.6 -2.85 14.9 -4.25 14.65 -3.15 14.3 -2.25 13.8 -1.35 13.35 -0.6 14.05 -0.15 16.05 -0.25 15.7 0.3 15.3 0.85 14.8 1.25 13.55 1.9 12.9 3.05 14.2 2.5 Q17.05 1.4 17.45 1.1 L18.3 0.45 19.85 -0.9 Q21.15 -1.9 22.8 -2.45" fill="#989898" fill-rule="evenodd" stroke="none"/>
    <path d="M22.95 -2.15 L23.3 -2.35 23.45 -2.0 23.0 -1.1 20.35 1.1 18.8 2.15 17.95 2.7 16.5 3.65 13.6 5.35 10.9 6.25 10.65 6.15 Q9.6 3.7 10.7 0.65 L10.45 0.2 9.25 -0.2 Q9.25 -0.95 9.4 -1.7 L9.85 -3.25 Q8.7 -4.85 9.2 -6.8 9.7 -8.9 7.85 -17.25 L8.15 -17.5 Q10.7 -9.35 10.2 -6.8 L9.85 -5.15 10.65 -3.9 9.95 -1.05 10.3 -0.65 11.05 -0.45 Q11.55 1.15 10.8 2.85 10.65 3.25 11.1 4.75 11.45 4.6 11.85 4.4 L12.3 4.45 Q13.1 4.45 15.55 3.15 17.65 2.05 18.15 1.6 L20.85 -0.35 Q22.8 -1.8 22.95 -2.15" fill="#606060" fill-rule="evenodd" stroke="none"/>
  </g>
</svg>
