<?xml version="1.0" encoding="UTF-8" standalone="no"?>
<svg xmlns:ffdec="https://www.free-decompiler.com/flash" xmlns:xlink="http://www.w3.org/1999/xlink" ffdec:objectType="shape" height="9.0px" width="12.0px" xmlns="http://www.w3.org/2000/svg">
  <g transform="matrix(1.0, 0.0, 0.0, 1.0, 6.0, 4.5)">
    <path d="M-4.5 -1.65 L-4.95 -2.25 -4.85 -3.0 -4.2 -3.45 -3.45 -3.35 0.0 -1.15 3.5 -3.35 4.25 -3.45 Q4.65 -3.4 4.85 -3.0 L5.0 -2.25 4.55 -1.65 1.9 0.0 4.55 1.65 5.0 2.3 4.85 3.05 4.25 3.5 3.5 3.35 0.0 1.2 -3.45 3.35 -4.2 3.5 -4.85 3.05 -4.95 2.3 Q-4.9 1.85 -4.5 1.65 L-1.85 0.0 -4.5 -1.65" fill="#ffffff" fill-rule="evenodd" stroke="none"/>
    <path d="M2.95 -4.2 L4.45 -4.45 Q5.25 -4.25 5.7 -3.55 6.15 -2.85 5.95 -2.05 5.75 -1.25 5.05 -0.8 L3.8 0.0 5.05 0.8 Q5.75 1.25 5.95 2.05 6.15 2.85 5.7 3.55 5.25 4.25 4.45 4.45 L2.95 4.2 0.0 2.35 -2.95 4.2 -4.45 4.45 Q-5.25 4.25 -5.7 3.55 -6.15 2.85 -5.95 2.05 -5.75 1.25 -5.05 0.8 L-3.75 0.0 -5.05 -0.8 Q-5.75 -1.25 -5.95 -2.05 -6.15 -2.85 -5.7 -3.55 -5.25 -4.25 -4.45 -4.45 L-2.95 -4.2 0.0 -2.35 2.95 -4.2 M-4.5 -1.65 L-1.85 0.0 -4.5 1.65 Q-4.9 1.85 -4.95 2.3 L-4.85 3.05 -4.2 3.5 -3.45 3.35 0.0 1.2 3.5 3.35 4.25 3.5 4.85 3.05 5.0 2.3 4.55 1.65 1.9 0.0 4.55 -1.65 5.0 -2.25 4.85 -3.0 Q4.65 -3.4 4.25 -3.45 L3.5 -3.35 0.0 -1.15 -3.45 -3.35 -4.2 -3.45 -4.85 -3.0 -4.95 -2.25 -4.5 -1.65" fill="#000000" fill-rule="evenodd" stroke="none"/>
  </g>
</svg>
