<?xml version="1.0" encoding="UTF-8" standalone="no"?>
<svg xmlns:ffdec="https://www.free-decompiler.com/flash" xmlns:xlink="http://www.w3.org/1999/xlink" ffdec:objectType="shape" height="16.75px" width="19.4px" xmlns="http://www.w3.org/2000/svg">
  <g transform="matrix(1.0, 0.0, 0.0, 1.0, 11.2, 4.05)">
    <path d="M-1.1 4.25 L-0.85 4.2 -0.6 4.35 -0.55 4.4 -0.4 4.75 -0.5 5.05 -1.4 6.3 7.7 6.3 Q7.9 6.3 8.05 6.45 L8.2 6.75 8.1 7.1 5.85 10.2 5.7 10.35 5.45 10.4 -4.4 10.4 -5.9 12.45 -6.05 12.6 -6.3 12.65 -6.4 12.7 -6.7 12.6 -11.0 8.85 -11.2 8.55 -11.1 8.2 -10.85 8.0 -1.1 4.25" fill="#000000" fill-opacity="0.29803923" fill-rule="evenodd" stroke="none"/>
    <path d="M-10.7 0.2 L-0.95 -3.55 -0.9 -3.5 -2.4 -1.45 7.7 -1.45 5.45 1.65 -4.65 1.65 -6.3 3.9 -6.4 3.95 -10.7 0.2" fill="#ffffff" fill-rule="evenodd" stroke="none"/>
    <path d="M-10.7 0.2 L-0.95 -3.55 -0.9 -3.5 -2.4 -1.45 7.7 -1.45 5.45 1.65 -4.65 1.65 -6.3 3.9 -6.4 3.95 -10.7 0.2 Z" fill="none" stroke="#ff0000" stroke-linecap="round" stroke-linejoin="round" stroke-width="1.0"/>
  </g>
</svg>
