<?xml version="1.0" encoding="UTF-8" standalone="no"?>
<svg xmlns:ffdec="https://www.free-decompiler.com/flash" xmlns:xlink="http://www.w3.org/1999/xlink" ffdec:objectType="shape" height="22.0px" width="152.0px" xmlns="http://www.w3.org/2000/svg">
  <g transform="matrix(1.0, 0.0, 0.0, 1.0, 0.0, 0.0)">
    <path d="M151.0 22.0 L150.55 22.0 1.2 22.0 1.0 22.0 1.0 21.0 1.2 21.0 150.55 21.0 151.0 21.0 151.0 22.0" fill="#d3d5d6" fill-rule="evenodd" stroke="none"/>
    <path d="M0.0 1.0 L1.0 1.0 1.0 20.8 1.0 21.0 1.0 22.0 0.0 22.0 0.0 20.8 0.0 1.0 M151.0 1.0 L151.0 0.95 151.0 0.0 152.0 0.0 152.0 0.95 152.0 20.8 152.0 22.0 151.0 22.0 151.0 21.0 151.0 20.8 151.0 1.0" fill="#c9cbcc" fill-rule="evenodd" stroke="none"/>
    <path d="M1.0 1.0 L1.2 1.0 150.55 1.0 151.0 1.0 151.0 20.8 151.0 21.0 150.55 21.0 1.2 21.0 1.0 21.0 1.0 20.8 1.0 1.0" fill="#ffffff" fill-rule="evenodd" stroke="none"/>
    <path d="M0.0 1.0 L0.0 0.95 0.0 0.0 1.2 0.0 150.55 0.0 151.0 0.0 151.0 0.95 151.0 1.0 150.55 1.0 1.2 1.0 1.0 1.0 0.0 1.0" fill="#6d6f70" fill-rule="evenodd" stroke="none"/>
  </g>
</svg>
