<?xml version="1.0" encoding="UTF-8" standalone="no"?>
<svg xmlns:ffdec="https://www.free-decompiler.com/flash" xmlns:xlink="http://www.w3.org/1999/xlink" ffdec:objectType="shape" height="56.05px" width="77.85px" xmlns="http://www.w3.org/2000/svg">
  <g transform="matrix(1.0, 0.0, 0.0, 1.0, 35.1, 18.8)">
    <path d="M21.5 29.7 L21.35 29.9 21.4 29.7 21.5 29.7" fill="#9f3000" fill-rule="evenodd" stroke="none"/>
    <path d="M-27.45 -5.0 L-27.4 -5.05 -27.4 -5.0 -27.45 -5.0 M30.65 0.2 L31.75 -0.1 30.65 0.2" fill="#f46800" fill-rule="evenodd" stroke="none"/>
    <path d="M31.25 -10.35 L31.05 -12.1 33.75 -12.85 33.8 -11.25 31.25 -10.35 M8.8 7.55 L11.5 6.75 12.3 6.45 12.15 14.05 20.55 13.2 20.3 16.4 20.1 17.25 20.1 17.2 20.15 16.8 12.0 17.6 11.9 19.7 8.35 19.6 8.45 17.75 4.0 17.8 -0.65 17.75 -0.65 18.45 Q-4.7 17.35 -7.55 15.4 L-9.75 13.55 -4.3 14.05 -4.55 5.0 -2.65 6.25 -1.0 7.1 -0.8 14.25 4.0 14.3 8.6 14.25 8.8 7.55 M-7.55 2.8 L-12.9 2.2 -12.9 9.25 Q-14.85 5.55 -15.25 0.55 L-14.95 0.45 -14.0 0.35 Q-9.3 0.35 -8.75 1.55 L-8.7 1.55 -8.3 2.1 -7.55 2.8" fill="#ffffff" fill-rule="evenodd" stroke="none"/>
    <path d="M12.2 -4.9 L12.3 -0.45 13.0 -0.5 14.45 -0.35 15.9 -0.5 16.45 -0.8 19.6 -1.15 19.6 -0.95 23.3 -0.95 23.3 -1.95 20.9 -1.95 20.6 -5.7 Q22.8 -5.4 23.35 -3.45 L23.6 2.15 23.7 9.0 Q24.0 15.25 20.95 20.85 L19.4 21.65 20.1 17.25 20.3 16.4 20.55 13.2 20.55 13.1 20.55 13.05 Q21.1 7.4 21.05 2.15 L12.35 3.05 12.3 6.45 11.5 6.75 8.8 7.55 8.8 4.0 10.9 4.0 10.9 2.95 Q10.1 0.2 10.1 -3.15 10.1 -4.25 12.2 -4.9 M30.5 -3.4 L31.7 -3.75 31.25 -10.35 33.8 -11.25 33.9 -0.65 31.75 -0.05 31.75 -0.1 30.65 0.2 30.5 -3.4 M-21.3 -3.1 L-18.5 -2.4 -18.5 -1.65 -14.6 -1.65 -14.6 -3.05 -16.15 -3.05 -15.75 -7.4 -12.3 -6.95 -12.75 -1.35 -10.75 -1.05 -9.4 -0.9 -9.3 -0.9 -4.6 -0.45 -4.65 -4.45 -3.05 -3.2 Q-2.35 -2.45 -2.0 -1.6 L-2.0 -1.55 -3.65 -1.4 -4.35 -1.05 Q-4.35 -0.85 -3.65 -0.7 L-2.0 -0.55 Q-2.0 1.9 -1.4 4.0 L-1.05 4.0 -1.0 7.1 -2.65 6.25 -4.55 5.0 -4.6 3.05 -7.55 2.8 -8.3 2.1 -8.7 1.55 -8.75 1.55 Q-9.3 0.35 -14.0 0.35 L-14.95 0.45 -15.25 0.55 Q-14.85 5.55 -12.9 9.25 L-12.75 13.15 -9.75 13.55 -7.55 15.4 Q-4.7 17.35 -0.65 18.45 L-0.4 23.8 -3.95 23.3 -4.2 17.55 -12.5 16.75 -12.15 20.05 -13.55 19.1 -14.85 18.05 -15.75 17.15 -15.95 16.95 -16.0 16.9 -16.05 16.2 -16.75 16.05 -18.35 14.0 -19.7 11.85 -16.3 12.55 Q-16.6 7.05 -16.4 1.6 L-22.25 0.3 -21.3 -3.1 M1.7 -0.2 L4.0 -0.2 5.4 -0.2 5.4 2.45 1.65 2.15 1.7 -0.2 M7.9 3.0 L8.05 3.0 7.9 3.0 6.6 3.0 7.9 3.0 M28.85 11.55 L28.85 14.55 28.85 15.15 26.45 15.7 26.75 12.65 26.8 12.05 28.85 11.55 M8.35 19.6 L11.9 19.7 11.65 23.55 8.1 23.85 8.35 19.6" fill="#e0e0e0" fill-rule="evenodd" stroke="none"/>
    <path d="M12.1 -7.3 L12.2 -4.9 Q10.1 -4.25 10.1 -3.15 10.1 0.2 10.9 2.95 L10.9 4.0 8.8 4.0 8.8 3.25 4.0 3.3 1.5 3.3 1.65 2.15 5.4 2.45 6.15 3.0 6.6 3.0 7.9 3.0 8.05 3.0 7.9 3.0 8.4 1.05 Q8.9 -0.4 9.4 -0.8 L8.8 -0.95 8.65 -5.45 8.75 -5.65 8.75 -5.7 Q9.3 -6.7 11.0 -7.1 L12.1 -7.3 M20.6 -5.7 L20.3 -8.45 23.8 -8.9 24.45 -1.95 26.0 -2.3 26.05 1.3 24.55 1.6 Q24.65 6.9 24.15 12.6 L25.05 12.4 24.55 15.35 24.4 16.1 23.75 16.25 22.9 22.2 22.9 22.25 22.55 23.05 21.15 26.35 20.8 27.05 9.75 29.55 4.2 30.05 -9.2 27.05 -10.05 26.65 -3.75 27.2 -3.95 23.3 -0.4 23.8 -0.2 27.4 4.0 27.45 7.85 27.4 8.1 23.85 11.65 23.55 11.4 27.25 18.5 26.6 19.4 21.65 20.95 20.85 Q24.0 15.25 23.7 9.0 L23.6 2.15 23.35 -3.45 Q22.8 -5.4 20.6 -5.7 M34.45 13.55 L34.25 13.6 34.2 14.1 32.75 16.65 32.4 17.15 30.4 19.75 29.6 20.65 30.6 14.7 28.85 15.15 28.85 14.55 28.85 11.55 29.7 11.35 29.9 12.75 Q30.1 13.3 30.35 13.3 L30.8 12.75 31.0 11.3 31.0 10.95 31.05 10.95 Q31.7 5.25 31.75 -0.05 L33.9 -0.65 34.05 -0.35 34.05 2.35 Q34.15 3.0 34.5 3.2 L35.25 1.45 34.7 9.75 35.9 9.35 34.45 13.55 M-27.4 -5.2 L-27.0 -10.75 -23.5 -10.3 -23.9 -4.65 -24.4 -4.9 -24.75 -3.75 Q-23.0 -3.05 -22.1 -2.85 L-21.65 -3.05 -21.55 -3.15 -21.3 -3.1 -22.25 0.3 -24.05 -0.2 Q-24.1 5.25 -23.7 10.75 L-19.7 11.85 -18.35 14.0 -16.75 16.05 -23.4 14.5 -23.3 15.5 -27.1 9.1 -27.4 8.4 -27.55 -1.3 -29.4 -2.0 -29.4 -2.1 Q-29.4 -3.5 -28.6 -4.2 L-27.9 -4.6 -27.45 -5.0 -27.4 -5.0 -27.4 -5.05 -27.35 -5.15 -27.4 -5.2 M-15.75 -7.4 L-15.55 -9.3 -12.05 -9.0 -12.3 -6.95 -15.75 -7.4 M-4.65 -4.45 L-4.6 -8.65 -3.75 -8.6 -1.85 -8.55 -1.6 -8.55 -1.35 -1.5 -2.0 -1.55 -2.0 -1.6 Q-2.35 -2.45 -3.05 -3.2 L-4.65 -4.45 M-1.1 -0.5 L-1.1 -0.3 -0.95 -0.3 -0.55 3.25 -1.05 3.2 -1.05 4.0 -1.4 4.0 Q-2.0 1.9 -2.0 -0.55 L-1.1 -0.5 M26.95 -1.35 L29.1 -1.9 29.25 0.55 27.05 1.05 26.95 -1.35 M36.2 -1.55 L36.65 -3.45 36.75 -1.75 36.2 -1.55 M24.2 25.6 L24.95 25.45 23.9 26.55 24.2 25.6 M-11.4 25.9 L-15.3 23.35 -16.0 16.9 -15.95 16.95 -15.75 17.15 -14.85 18.05 -13.55 19.1 -12.15 20.05 -11.4 25.9" fill="#b4b4b4" fill-rule="evenodd" stroke="none"/>
    <path d="M8.45 -10.0 L10.25 -10.1 11.95 -10.25 11.95 -10.2 12.1 -7.3 11.0 -7.1 Q9.3 -6.7 8.75 -5.7 L8.75 -5.65 8.65 -5.45 8.45 -10.0 M13.0 -0.5 L16.45 -0.8 15.9 -0.5 14.45 -0.35 13.0 -0.5 M19.6 -1.15 L20.95 -1.35 20.9 -1.95 23.3 -1.95 23.3 -0.95 19.6 -0.95 19.6 -1.15 M20.3 -8.45 L19.9 -10.8 23.45 -11.05 23.8 -8.9 20.3 -8.45 M26.0 -2.3 L29.15 -3.0 29.15 -2.7 29.1 -1.9 26.95 -1.35 26.25 1.25 26.05 1.3 26.0 -2.3 M35.35 -4.95 Q38.5 -6.15 40.7 -7.4 L40.6 -9.4 41.15 -5.05 41.3 -0.1 Q41.3 6.15 39.15 11.8 L35.3 13.25 34.45 13.55 35.9 9.35 Q38.3 8.4 40.1 7.4 40.7 1.8 40.75 -3.45 38.95 -2.6 36.75 -1.75 L36.65 -3.45 36.2 -1.55 35.85 -1.45 35.9 -2.2 Q35.4 -3.55 35.4 -4.3 L35.35 -4.3 35.35 -4.95 M34.2 14.1 L32.85 22.1 Q29.55 25.95 25.25 29.0 L22.6 29.5 23.9 26.55 24.95 25.45 28.8 24.55 29.6 20.65 30.4 19.75 32.4 17.15 32.75 16.65 34.2 14.1 M16.9 33.45 L17.7 30.2 11.1 30.75 10.8 34.7 7.2 35.3 7.6 30.9 4.0 30.95 0.0 30.9 0.25 35.1 -1.55 34.85 -3.3 34.5 -3.55 30.75 -10.7 30.1 -10.25 32.3 -11.3 31.85 -14.25 30.25 -14.35 29.55 -15.75 29.3 Q-18.85 27.15 -21.55 24.35 L-14.95 25.85 -15.3 23.35 -11.4 25.9 -11.3 26.45 -10.05 26.65 -9.2 27.05 4.2 30.05 9.75 29.55 20.8 27.05 21.15 26.35 22.55 23.05 22.9 22.25 22.2 26.0 23.1 25.85 21.5 29.7 21.4 29.7 21.35 29.9 Q20.0 32.25 18.5 32.9 L16.9 33.45 M-26.55 17.95 L-27.05 13.35 -27.3 13.25 -29.65 12.4 -31.5 7.75 -27.3 9.55 -27.4 8.4 -27.1 9.1 -23.3 15.5 -22.15 23.7 -22.8 22.95 -24.7 20.6 -26.55 17.95 M-31.95 -15.6 Q-32.55 -11.6 -32.8 -7.5 -30.65 -6.2 -27.45 -5.0 L-27.9 -4.6 -28.6 -4.2 Q-29.4 -3.5 -29.4 -2.1 L-29.4 -2.0 Q-31.4 -2.75 -33.05 -3.6 L-33.15 0.65 Q-33.55 -2.2 -33.55 -5.15 L-32.55 -15.95 -31.95 -15.6 M-27.4 -5.05 L-27.4 -5.2 -27.35 -5.15 -27.4 -5.05 M-27.0 -10.75 L-26.7 -13.3 -26.5 -13.25 -23.3 -12.15 -23.5 -10.3 -27.0 -10.75 M-23.9 -4.65 L-23.95 -3.8 -21.55 -3.15 -21.65 -3.05 -22.1 -2.85 Q-23.0 -3.05 -24.75 -3.75 L-24.4 -4.9 -23.9 -4.65 M-18.5 -2.4 L-16.2 -1.9 -16.15 -3.05 -14.6 -3.05 -14.6 -1.65 -18.5 -1.65 -18.5 -2.4 M-15.55 -9.3 L-15.3 -11.25 -11.8 -11.05 -12.05 -9.0 -15.55 -9.3 M-10.75 -1.05 L-9.3 -0.9 -9.4 -0.9 -10.75 -1.05 M-4.6 -8.65 L-4.6 -10.7 -1.1 -10.55 -1.1 -0.5 -2.0 -0.55 -3.65 -0.7 Q-4.35 -0.85 -4.35 -1.05 L-3.65 -1.4 -2.0 -1.55 -1.35 -1.5 -1.6 -8.55 -1.85 -8.55 -3.75 -8.6 -4.6 -8.65 M-0.95 -0.3 L-0.05 -0.25 -0.05 2.2 Q0.15 2.85 0.7 2.95 L1.4 2.75 1.45 -0.2 1.7 -0.2 1.65 2.15 1.5 3.3 -0.55 3.25 -0.95 -0.3 M6.8 -0.2 L8.8 -0.25 8.8 -0.95 9.4 -0.8 Q8.9 -0.4 8.4 1.05 L7.9 3.0 6.6 3.0 6.6 2.85 6.75 2.85 6.8 -0.2 M34.05 -0.35 Q34.25 -0.15 34.6 -0.1 L35.3 -0.6 35.25 1.45 34.5 3.2 Q34.15 3.0 34.05 2.35 L34.05 -0.35 M31.0 10.95 L31.0 11.3 30.8 12.75 30.35 13.3 Q30.1 13.3 29.9 12.75 L29.7 11.35 31.0 10.95 M25.65 12.3 L25.3 15.95 24.4 16.1 24.55 15.35 25.05 12.4 25.65 12.3" fill="#8a8a8a" fill-rule="evenodd" stroke="none"/>
    <path d="M8.45 -10.0 L8.35 -11.5 11.9 -11.55 11.95 -10.25 10.25 -10.1 8.45 -10.0 M19.9 -10.8 L19.7 -12.05 23.2 -12.45 23.45 -11.05 19.9 -10.8 M29.15 -3.0 L30.5 -3.4 30.65 0.2 29.25 0.55 29.1 -1.9 29.15 -2.7 29.15 -3.0 M31.05 -12.1 L30.8 -13.75 33.6 -14.3 33.7 -14.3 34.25 -14.4 Q35.0 -9.85 35.2 -4.9 L35.35 -4.95 35.35 -4.3 35.4 -4.3 Q35.4 -3.55 35.9 -2.2 L35.85 -1.45 35.3 -1.25 35.3 -0.6 34.6 -0.1 Q34.25 -0.15 34.05 -0.35 L33.9 -0.65 33.8 -11.25 33.75 -12.85 31.05 -12.1 M40.6 -9.4 L39.8 -16.85 40.35 -17.55 42.3 -6.65 42.75 0.25 39.25 15.55 38.8 16.55 38.8 16.5 39.6 11.6 Q39.35 11.65 39.15 11.8 41.3 6.15 41.3 -0.1 L41.15 -5.05 40.6 -9.4 M32.85 22.1 L32.6 23.35 32.85 23.25 34.75 22.55 34.8 22.55 34.05 23.45 31.6 26.05 27.6 29.6 27.9 28.4 25.25 29.0 Q29.55 25.95 32.85 22.1 M22.6 29.5 L21.5 29.7 23.1 25.85 24.2 25.6 23.9 26.55 22.6 29.5 M21.35 29.9 L20.4 34.0 18.4 34.85 16.35 35.6 16.35 35.55 16.9 33.45 18.5 32.9 Q20.0 32.25 21.35 29.9 M10.8 34.7 L10.6 36.9 9.5 37.05 7.0 37.25 7.2 35.3 10.8 34.7 M0.25 35.1 L0.35 37.1 -1.45 36.85 -3.2 36.55 -3.3 34.55 -3.3 34.5 -1.55 34.85 0.25 35.1 M-10.25 32.3 L-10.25 32.35 -9.8 34.55 -13.8 32.6 -14.25 30.25 -11.3 31.85 -10.25 32.3 M-15.75 29.3 L-19.6 28.45 Q-22.6 25.85 -25.25 22.45 L-26.1 21.35 -26.55 17.95 -24.7 20.6 -22.8 22.95 -22.15 23.7 -22.05 24.2 -21.55 24.35 Q-18.85 27.15 -15.75 29.3 M-29.65 12.4 L-31.7 11.55 Q-35.1 3.45 -35.1 -5.5 -35.1 -9.05 -33.45 -18.8 L-33.3 -18.7 -32.1 -17.6 -31.7 -17.25 -31.95 -15.6 -32.55 -15.95 -33.55 -5.15 Q-33.55 -2.2 -33.15 0.65 L-33.05 6.9 -31.5 7.75 -29.65 12.4 M-26.7 -13.3 L-26.5 -15.0 -23.05 -14.15 -23.3 -12.15 -26.5 -13.25 -26.7 -13.3 M-15.3 -11.25 L-15.1 -12.75 -11.6 -12.35 -11.8 -11.05 -15.3 -11.25 M-4.6 -10.7 L-4.55 -11.8 -3.85 -11.75 -1.7 -11.65 -1.05 -11.65 -1.1 -10.55 -4.6 -10.7 M-0.05 -0.25 L1.45 -0.2 1.4 2.75 0.7 2.95 Q0.15 2.85 -0.05 2.2 L-0.05 -0.25 M5.4 -0.2 L6.8 -0.2 6.75 2.85 6.6 2.85 6.6 3.0 6.15 3.0 5.4 2.45 5.4 -0.2 M26.25 1.25 L26.95 -1.35 27.05 1.05 26.25 1.25 M26.8 12.05 L26.75 12.65 26.45 15.7 25.3 15.95 25.65 12.3 26.8 12.05" fill="#464646" fill-rule="evenodd" stroke="none"/>
  </g>
</svg>
