<?xml version="1.0" encoding="UTF-8" standalone="no"?>
<svg xmlns:ffdec="https://www.free-decompiler.com/flash" xmlns:xlink="http://www.w3.org/1999/xlink" ffdec:objectType="shape" height="15.1px" width="13.25px" xmlns="http://www.w3.org/2000/svg">
  <g transform="matrix(1.0, 0.0, 0.0, 1.0, 1.6, -46.35)">
    <path d="M9.05 46.7 L11.45 47.5 Q11.8 53.25 11.55 55.9 L11.2 57.4 Q11.05 58.9 9.5 60.2 8.0 61.45 6.65 61.45 5.4 61.45 2.75 60.1 0.15 58.7 -0.85 57.55 L-1.6 47.8 0.2 47.2 Q0.7 55.05 2.75 57.85 4.0 59.55 6.2 59.55 L7.1 59.2 8.5 58.5 9.95 56.0 9.05 46.7" fill="#a46637" fill-rule="evenodd" stroke="none"/>
    <path d="M9.05 46.7 L9.95 56.0 8.5 58.5 Q6.5 50.6 6.8 46.35 L9.05 46.7" fill="#e7a867" fill-rule="evenodd" stroke="none"/>
    <path d="M8.5 58.5 L7.1 59.2 6.2 59.55 Q4.0 59.55 2.75 57.85 0.7 55.05 0.2 47.2 3.55 46.5 6.8 46.35 6.5 50.6 8.5 58.5" fill="#f4bb83" fill-rule="evenodd" stroke="none"/>
  </g>
</svg>
