<?xml version="1.0" encoding="UTF-8" standalone="no"?>
<svg xmlns:ffdec="https://www.free-decompiler.com/flash" xmlns:xlink="http://www.w3.org/1999/xlink" ffdec:objectType="shape" height="113.55px" width="52.8px" xmlns="http://www.w3.org/2000/svg">
  <g transform="matrix(1.0, 0.0, 0.0, 1.0, 21.7, 126.0)">
    <path d="M8.5 -125.85 L8.55 -125.75 8.6 -125.4 8.1 -124.7 Q7.55 -124.85 7.55 -125.45 7.55 -125.7 7.7 -125.85 7.95 -126.1 8.5 -125.85 M9.15 -115.9 L8.95 -115.45 8.45 -115.25 Q7.75 -115.25 7.75 -115.85 7.75 -116.55 8.5 -116.6 9.15 -116.6 9.15 -115.9 M0.55 -109.15 Q-0.2 -109.15 -0.45 -109.65 L-0.55 -110.2 Q-0.55 -111.35 0.55 -111.2 1.6 -111.0 1.6 -110.15 1.6 -109.15 0.55 -109.15 M10.35 -108.85 L10.4 -108.55 10.35 -108.2 9.9 -108.0 9.35 -108.5 Q9.35 -109.3 10.25 -109.0 L10.35 -108.85 M18.65 -106.5 L18.3 -106.55 18.15 -106.7 Q18.05 -106.65 18.05 -107.1 18.05 -107.55 18.35 -107.7 18.7 -107.95 19.3 -107.1 L19.25 -106.75 Q19.15 -106.5 18.65 -106.5 M16.5 -102.0 L17.05 -101.35 16.5 -100.9 16.0 -101.35 16.25 -101.65 16.5 -102.0 M30.8 -88.45 L30.7 -89.0 30.75 -89.25 31.1 -88.1 30.8 -88.45 M20.85 -88.7 L20.7 -88.25 Q20.6 -88.1 20.1 -87.9 L19.5 -88.15 19.45 -88.75 Q19.45 -89.4 20.15 -89.4 20.85 -89.4 20.85 -88.7 M27.4 -83.4 L27.2 -83.0 Q27.0 -82.7 26.55 -82.7 25.9 -82.7 25.9 -83.35 25.9 -84.0 26.65 -84.0 27.4 -83.95 27.4 -83.4 M20.4 -79.05 L20.5 -78.65 20.45 -78.2 19.95 -78.05 19.4 -78.55 Q19.4 -79.3 20.4 -79.05 M27.1 -78.9 Q27.85 -78.95 27.85 -78.25 L27.65 -77.8 Q27.45 -77.5 27.1 -77.5 26.4 -77.5 26.4 -78.3 26.4 -78.85 27.1 -78.9 M11.65 -90.95 Q11.0 -90.95 11.0 -91.6 11.0 -92.3 11.7 -92.3 12.4 -92.3 12.4 -91.65 12.4 -90.95 11.65 -90.95 M5.25 -94.7 Q5.25 -93.95 4.5 -93.95 3.95 -93.95 3.75 -94.3 L3.6 -94.7 Q3.6 -95.45 4.4 -95.45 5.25 -95.45 5.25 -94.7 M3.0 -87.65 L2.5 -87.1 2.15 -87.3 2.1 -87.6 2.25 -87.85 2.5 -88.0 3.0 -87.65 M5.7 -83.75 Q5.2 -83.75 4.95 -84.1 L4.85 -84.5 Q4.85 -85.25 5.7 -85.15 6.45 -85.15 6.45 -84.5 6.45 -83.75 5.7 -83.75 M6.3 -76.0 L5.95 -76.0 5.8 -76.2 Q5.7 -76.15 5.7 -76.6 L5.95 -77.15 Q6.35 -77.45 7.0 -76.6 L6.9 -76.25 Q6.8 -76.0 6.3 -76.0 M14.1 -83.0 L13.85 -82.4 13.3 -82.25 Q12.65 -82.25 12.45 -82.6 L12.4 -83.0 Q12.4 -83.75 13.25 -83.8 14.1 -83.85 14.1 -83.0 M15.25 -69.2 L15.1 -68.6 Q14.8 -68.15 14.2 -68.15 13.5 -68.15 13.2 -68.7 L13.1 -69.25 Q13.1 -70.35 14.2 -70.35 15.25 -70.35 15.25 -69.2 M6.2 -68.1 Q6.4 -67.9 5.95 -67.9 L5.6 -67.95 5.5 -68.1 5.7 -68.25 6.05 -68.35 6.2 -68.1 M0.75 -67.0 Q1.45 -67.0 1.45 -66.35 L1.15 -65.8 0.75 -65.65 Q0.2 -65.65 0.1 -66.0 L0.05 -66.35 Q0.05 -67.0 0.75 -67.0 M5.5 -55.75 L5.55 -55.4 4.85 -54.75 4.35 -55.25 4.55 -55.5 5.3 -55.85 5.5 -55.75 M16.5 -49.55 L16.9 -49.2 16.8 -48.85 Q17.0 -48.75 16.5 -48.75 L16.25 -48.8 16.15 -48.95 16.15 -49.15 16.25 -49.55 16.5 -49.55 M24.8 -72.5 Q25.15 -72.8 25.8 -71.95 L25.7 -71.55 Q25.6 -71.3 25.15 -71.3 L24.75 -71.35 24.65 -71.55 Q24.5 -71.5 24.5 -71.95 24.5 -72.3 24.8 -72.5 M21.0 -70.8 L20.85 -71.0 Q20.75 -71.05 20.75 -71.45 20.75 -72.05 21.4 -72.15 22.0 -72.2 22.0 -71.45 22.0 -70.8 21.35 -70.8 L21.0 -70.8 M22.2 -64.15 L22.25 -63.8 22.2 -63.5 21.7 -63.3 21.2 -63.8 21.35 -64.2 22.1 -64.3 22.2 -64.15 M21.0 -58.9 L20.65 -58.95 20.45 -59.1 20.4 -59.35 20.45 -59.8 21.6 -59.6 21.7 -59.35 21.45 -59.05 21.0 -58.9 M24.4 -25.0 L24.4 -24.55 23.9 -24.35 23.35 -24.55 Q23.35 -25.5 23.9 -25.75 24.4 -26.1 24.4 -25.0 M22.6 -37.7 Q21.95 -37.7 21.65 -38.25 L21.55 -38.75 Q21.55 -39.85 22.6 -39.85 23.7 -39.85 23.7 -38.7 23.7 -37.7 22.6 -37.7 M12.2 -42.65 Q12.2 -41.65 11.15 -41.65 10.45 -41.65 10.15 -42.2 L10.05 -42.7 Q10.05 -43.8 11.15 -43.8 12.2 -43.8 12.2 -42.65 M3.8 -42.1 Q3.8 -42.75 4.9 -42.6 L4.95 -42.45 5.05 -42.15 Q5.05 -41.6 4.4 -41.6 L3.9 -41.7 Q3.8 -41.65 3.8 -42.1 M11.85 -31.85 Q11.85 -30.85 10.8 -30.85 10.1 -30.85 9.8 -31.35 L9.7 -31.95 Q9.7 -33.0 10.8 -33.0 11.85 -33.0 11.85 -31.85 M3.0 -34.4 L3.45 -34.9 3.9 -34.5 4.15 -34.05 Q4.05 -33.5 3.4 -33.5 L2.9 -34.0 3.0 -34.4 M14.1 -20.25 L14.0 -20.8 Q14.0 -21.9 15.1 -21.9 16.15 -21.9 16.15 -20.75 16.15 -19.7 15.1 -19.7 14.4 -19.7 14.1 -20.25 M12.4 -13.05 L12.25 -12.65 11.65 -12.45 11.35 -12.55 11.25 -12.95 11.45 -13.15 12.15 -13.4 12.4 -13.05 M7.1 -23.3 L6.85 -23.25 6.55 -23.35 6.45 -23.7 6.7 -24.0 7.05 -23.95 7.2 -23.65 7.1 -23.3 M2.8 -17.85 L2.9 -17.5 2.8 -17.2 2.35 -17.0 1.8 -17.5 1.95 -17.9 2.75 -18.0 2.8 -17.85 M1.1 -15.9 L1.3 -15.55 Q1.25 -15.2 0.9 -15.2 L0.6 -15.25 0.55 -15.6 0.55 -15.9 1.1 -15.9 M30.65 -21.65 L30.7 -21.3 30.35 -21.15 Q30.0 -21.35 30.0 -21.5 30.35 -21.9 30.55 -21.8 L30.65 -21.65 M23.5 -20.8 L23.0 -20.25 22.5 -20.9 Q22.85 -21.3 23.25 -21.15 L23.5 -20.8 M25.85 -15.5 Q25.55 -15.05 24.95 -15.05 24.25 -15.05 24.0 -15.55 L23.9 -16.15 Q23.9 -17.2 24.95 -17.2 26.05 -17.2 26.05 -16.05 L25.85 -15.5 M-2.7 -119.75 Q-2.05 -119.75 -2.05 -119.15 L-2.25 -118.75 Q-2.5 -118.5 -2.85 -118.5 -3.4 -118.5 -3.4 -119.1 -3.4 -119.7 -2.7 -119.75 M-9.8 -121.7 L-9.85 -122.65 Q-9.0 -122.65 -8.45 -122.0 L-8.95 -121.55 -9.8 -121.7 M-9.3 -115.1 Q-8.5 -115.1 -8.2 -114.7 L-8.25 -114.35 Q-8.55 -114.1 -8.8 -114.1 L-9.25 -114.5 -9.3 -114.7 -9.3 -115.1 M-14.7 -108.3 Q-14.8 -108.15 -15.25 -108.15 -15.6 -108.15 -15.8 -108.45 L-15.6 -109.4 -15.3 -109.45 Q-14.65 -109.45 -14.65 -108.75 L-14.7 -108.3 M-11.5 -105.1 Q-10.4 -104.9 -10.4 -104.05 -10.4 -103.05 -11.5 -103.05 -12.25 -103.05 -12.5 -103.6 L-12.55 -104.1 Q-12.55 -105.25 -11.5 -105.1 M-2.5 -104.4 L-3.05 -103.95 -3.55 -104.4 -3.3 -104.6 -3.05 -105.05 -2.5 -104.4 M-9.45 -96.85 Q-8.75 -96.85 -8.75 -96.1 -8.9 -95.35 -9.5 -95.35 -10.0 -95.35 -10.15 -95.7 L-10.2 -96.1 Q-10.2 -96.85 -9.45 -96.85 M-4.65 -91.85 Q-4.75 -91.65 -5.2 -91.6 L-5.75 -91.8 -5.85 -92.3 Q-5.85 -92.9 -5.2 -93.0 -4.6 -93.05 -4.6 -92.3 L-4.65 -91.85 M-13.05 -90.45 Q-12.35 -90.4 -12.35 -89.6 -12.35 -88.7 -13.1 -88.7 L-13.5 -88.75 -13.8 -88.95 -13.8 -89.6 Q-13.8 -90.45 -13.05 -90.45 M-16.3 -79.25 Q-16.3 -80.0 -15.55 -79.95 -14.8 -79.85 -14.8 -79.3 L-15.0 -78.9 Q-15.2 -78.65 -15.6 -78.65 -16.1 -78.65 -16.25 -78.9 L-16.3 -79.25 M-1.55 -85.3 L-2.35 -84.35 Q-2.85 -83.75 -3.2 -83.75 -3.7 -83.75 -3.85 -84.1 L-3.95 -84.5 Q-3.95 -85.05 -3.35 -85.1 L-1.55 -85.3 M-6.1 -82.15 L-6.65 -81.7 -7.15 -82.3 Q-6.8 -82.65 -6.4 -82.6 L-6.1 -82.15 M-1.45 -74.8 L-1.65 -74.6 Q-1.8 -74.45 -1.95 -74.45 L-2.35 -74.7 -2.35 -75.1 -1.55 -75.1 -1.45 -74.8 M-7.4 -68.5 Q-6.65 -68.5 -6.65 -67.85 -6.65 -67.1 -7.4 -67.1 -8.25 -67.1 -8.25 -67.85 -8.25 -68.55 -7.4 -68.5 M-13.0 -72.5 L-12.75 -72.55 -12.35 -72.2 Q-12.4 -71.85 -12.75 -71.7 L-13.0 -71.8 -13.1 -72.15 -13.0 -72.5 M-17.0 -68.65 Q-17.0 -69.5 -16.1 -69.4 -15.25 -69.25 -15.25 -68.65 -15.25 -68.0 -16.15 -68.0 -16.85 -68.0 -16.95 -68.35 L-17.0 -68.65 M-13.15 -62.8 L-12.9 -62.85 Q-12.5 -62.65 -12.5 -62.2 L-12.9 -62.0 -13.2 -62.15 -13.25 -62.45 -13.15 -62.8 M-19.65 -51.9 Q-19.65 -51.45 -19.9 -51.3 L-19.8 -52.3 -19.65 -51.9 M-5.0 -60.2 Q-3.95 -60.05 -3.95 -59.15 -3.95 -58.2 -5.0 -58.2 -5.75 -58.2 -6.0 -58.7 L-6.1 -59.2 Q-6.1 -60.4 -5.0 -60.2 M-4.3 -51.8 Q-3.2 -51.6 -3.2 -50.7 -3.2 -49.75 -4.3 -49.75 -5.05 -49.75 -5.3 -50.3 L-5.4 -50.8 Q-5.4 -51.95 -4.3 -51.8 M-5.0 -42.65 Q-5.0 -41.65 -6.1 -41.65 -6.85 -41.65 -7.1 -42.2 L-7.15 -42.7 Q-7.15 -43.9 -6.1 -43.7 -5.0 -43.55 -5.0 -42.65 M-13.45 -45.2 L-13.15 -45.35 Q-12.9 -45.45 -12.9 -45.8 L-12.5 -45.45 Q-12.5 -44.9 -13.1 -44.8 L-13.4 -44.9 -13.45 -45.2 M-14.0 -34.9 Q-14.0 -33.9 -15.05 -33.9 -15.8 -33.9 -16.05 -34.4 L-16.15 -35.0 Q-16.15 -36.2 -15.05 -36.0 -14.0 -35.8 -14.0 -34.9 M-7.8 -24.9 L-7.45 -25.5 Q-7.05 -25.75 -6.55 -24.9 L-6.65 -24.5 Q-6.7 -24.3 -7.15 -24.3 L-7.55 -24.35 -7.7 -24.5 -7.8 -24.9 M-21.15 -20.6 L-21.65 -21.1 -21.7 -21.4 -21.65 -21.8 -20.9 -21.8 -20.6 -21.35 Q-20.6 -20.7 -21.15 -20.6 M-6.25 -18.75 L-5.75 -18.25 -6.25 -17.75 -6.8 -18.25 Q-6.25 -18.25 -6.25 -18.75 M-14.0 -17.1 Q-14.55 -17.1 -14.7 -17.55 L-14.8 -17.9 Q-14.8 -18.65 -14.0 -18.8 -13.2 -18.9 -13.2 -17.85 -13.2 -17.5 -13.5 -17.3 L-14.0 -17.1" fill="#956f60" fill-rule="evenodd" stroke="none"/>
  </g>
</svg>
