<?xml version="1.0" encoding="UTF-8" standalone="no"?>
<svg xmlns:ffdec="https://www.free-decompiler.com/flash" xmlns:xlink="http://www.w3.org/1999/xlink" ffdec:objectType="shape" height="59.05px" width="61.85px" xmlns="http://www.w3.org/2000/svg">
  <g transform="matrix(1.0, 0.0, 0.0, 1.0, -1.45, -2.55)">
    <path d="M42.3 36.1 L41.95 36.45 38.7 39.7 38.3 40.1 38.3 40.0 Q35.65 39.55 32.3 43.2 L32.0 43.5 31.85 43.65 31.7 43.6 31.6 43.5 30.25 42.15 23.85 35.65 23.75 35.55 22.5 34.2 22.45 34.15 18.4 29.6 18.2 29.4 17.9 29.0 13.25 23.35 11.95 21.65 11.6 21.2 10.3 19.4 Q3.9 10.4 1.9 3.3 L1.85 3.05 2.35 3.25 Q3.85 3.85 5.35 4.75 L5.4 4.8 10.3 8.0 11.6 8.9 11.95 9.15 13.25 10.05 17.9 13.6 18.25 13.85 22.4 17.3 22.5 17.4 23.75 18.45 23.85 18.55 Q31.2 24.9 39.3 33.1 L39.45 33.25 42.15 35.95 42.25 36.05 42.3 36.1 M22.5 18.1 L22.4 18.0 21.05 16.85 20.85 16.65 19.45 15.55 18.25 14.55 17.9 14.3 13.25 10.75 11.9 9.8 11.6 9.5 10.5 8.8 10.3 8.6 5.0 5.2 2.6 3.8 3.25 5.75 3.85 7.15 4.5 8.6 5.15 10.05 5.9 11.5 6.75 13.05 7.7 14.6 8.7 16.2 9.1 16.8 9.2 17.0 9.85 17.85 10.05 18.25 10.3 18.6 11.0 19.5 11.6 20.4 11.95 20.85 12.2 21.2 12.9 22.1 13.25 22.55 13.55 22.95 14.25 23.85 14.9 24.7 15.7 25.6 16.4 26.5 17.05 27.35 17.15 27.45 17.9 28.3 17.95 28.35 18.15 28.65 18.2 28.7 18.35 28.85 18.75 29.25 19.4 30.0 19.9 30.6 20.05 30.75 21.35 32.25 22.45 33.45 22.5 33.5 22.75 33.75 23.4 34.4 23.5 34.5 23.75 34.85 23.85 34.95 24.2 35.3 24.95 36.05 25.15 36.25 25.7 36.8 26.45 37.65 26.95 38.15 27.2 38.4 28.0 39.2 28.8 40.0 29.6 40.8 30.4 41.6 32.6 40.1 30.75 41.95 31.8 43.0 31.95 42.85 33.95 40.95 Q36.25 39.15 38.3 39.5 L41.65 36.15 39.1 33.6 36.1 36.6 38.75 33.25 Q33.75 28.15 28.95 23.75 L27.85 22.75 27.35 22.35 27.2 22.2 24.4 19.7 23.85 19.25 23.8 19.2 22.5 18.1" fill="#837c7b" fill-rule="evenodd" stroke="none"/>
    <path d="M41.95 36.45 L42.3 36.1 Q52.55 43.35 62.55 54.15 L62.6 54.2 Q63.3 55.6 62.55 56.35 L57.95 60.95 57.85 61.05 56.0 60.9 53.9 58.8 Q53.25 57.85 53.65 56.65 53.9 55.7 51.95 54.55 44.6 50.2 38.3 40.1 L38.7 39.7 38.75 39.75 Q45.0 49.8 50.75 52.85 56.45 55.95 54.1 56.8 53.75 57.75 54.35 58.45 L56.35 60.45 57.6 60.6 62.2 56.0 Q62.7 55.5 62.2 54.5 52.15 43.75 42.0 36.5 L41.95 36.45" fill="#0f462c" fill-rule="evenodd" stroke="none"/>
    <path d="M38.7 39.7 L41.95 36.45 42.0 36.5 Q52.15 43.75 62.2 54.5 62.7 55.5 62.2 56.0 L57.6 60.6 56.35 60.45 54.35 58.45 Q53.75 57.75 54.1 56.8 56.45 55.95 50.75 52.85 45.0 49.8 38.75 39.75 L38.7 39.7 M55.45 58.35 L56.0 59.0 Q56.6 59.6 57.3 59.6 58.85 59.55 60.45 57.15 61.5 55.6 61.25 54.75 L60.55 53.75 59.75 53.05 59.4 52.9 59.2 52.7 Q57.3 50.8 50.9 45.0 L46.7 41.1 45.7 40.1 44.6 39.2 Q43.2 38.2 42.9 38.1 41.95 37.75 41.0 38.7 39.75 39.95 40.35 41.15 L42.55 44.25 Q43.95 46.35 46.0 48.4 L48.4 50.6 51.25 52.45 54.3 54.1 55.8 54.8 Q56.7 55.5 55.75 56.95 55.25 57.75 55.45 58.35" fill="#125435" fill-rule="evenodd" stroke="none"/>
    <path d="M42.3 36.1 L42.25 36.05 42.15 35.95 39.45 33.25 39.3 33.1 Q31.2 24.9 23.85 18.55 L23.75 18.45 22.5 17.4 22.4 17.3 18.25 13.85 17.9 13.6 13.25 10.05 11.95 9.15 11.6 8.9 10.3 8.0 5.4 4.8 5.35 4.75 Q3.85 3.85 2.35 3.25 L1.85 3.05 1.9 3.3 Q3.9 10.4 10.3 19.4 L11.6 21.2 11.95 21.65 13.25 23.35 17.9 29.0 18.2 29.4 18.4 29.6 22.45 34.15 22.5 34.2 23.75 35.55 23.85 35.65 30.25 42.15 31.6 43.5 31.7 43.6 31.85 43.65 32.0 43.5 32.3 43.2 Q35.65 39.55 38.3 40.0 L38.3 40.1 Q44.6 50.2 51.95 54.55 53.9 55.7 53.65 56.65 53.25 57.85 53.9 58.8 L56.0 60.9 57.85 61.05 57.95 60.95 62.55 56.35 Q63.3 55.6 62.6 54.2 L62.55 54.15 Q52.55 43.35 42.3 36.1 M42.55 35.85 Q52.75 43.15 62.8 53.9 L62.95 54.25 Q63.7 55.7 62.8 56.6 L58.2 61.2 58.0 61.3 55.9 61.2 53.7 59.0 Q52.9 57.9 53.35 56.55 53.45 55.85 51.8 54.8 44.4 50.5 38.05 40.35 35.65 40.05 32.55 43.35 L32.5 43.4 32.2 43.7 32.0 43.9 31.6 43.9 31.35 43.75 30.0 42.4 23.6 35.9 23.5 35.8 22.25 34.45 22.15 34.35 18.15 29.85 17.95 29.65 17.65 29.25 13.0 23.6 11.65 21.85 11.3 21.4 10.0 19.6 Q3.6 10.5 1.6 3.4 L1.45 2.55 1.95 2.75 2.5 3.0 Q3.95 3.55 5.5 4.5 L5.6 4.5 10.5 7.7 11.8 8.6 12.15 8.85 13.4 9.8 18.1 13.3 18.45 13.55 22.65 17.05 22.75 17.15 24.0 18.2 24.1 18.3 Q31.4 24.6 39.55 32.85 L39.7 33.0 42.45 35.75 42.55 35.85" fill="#000000" fill-rule="evenodd" stroke="none"/>
    <path d="M55.45 58.35 Q55.25 57.75 55.75 56.95 56.7 55.5 55.8 54.8 L54.3 54.1 51.25 52.45 48.4 50.6 46.0 48.4 Q43.95 46.35 42.55 44.25 L40.35 41.15 Q39.75 39.95 41.0 38.7 41.95 37.75 42.9 38.1 43.2 38.2 44.6 39.2 L45.7 40.1 46.7 41.1 50.9 45.0 Q57.3 50.8 59.2 52.7 L59.4 52.9 59.75 53.05 60.55 53.75 61.25 54.75 Q61.5 55.6 60.45 57.15 58.85 59.55 57.3 59.6 56.6 59.6 56.0 59.0 L55.45 58.35 M56.0 53.8 Q56.85 53.75 57.15 53.25 57.45 52.75 57.1 52.4 L53.95 49.95 49.65 46.45 46.2 43.1 44.2 41.0 Q42.85 39.65 42.3 40.2 41.45 41.05 47.65 48.45 L49.7 50.2 52.0 51.9 54.55 53.25 55.2 53.6 56.0 53.8 M57.75 58.65 L59.0 57.7 60.25 55.95 Q60.5 55.2 60.25 54.95 L59.95 54.75 Q59.65 54.65 59.25 55.05 L58.45 56.25 57.5 57.4 Q57.25 57.65 57.25 58.05 L57.4 58.4 57.75 58.65" fill="#156b43" fill-rule="evenodd" stroke="none"/>
    <path d="M56.0 53.8 L55.2 53.6 54.55 53.25 52.0 51.9 49.7 50.2 47.65 48.45 Q41.45 41.05 42.3 40.2 42.85 39.65 44.2 41.0 L46.2 43.1 49.65 46.45 53.95 49.95 57.1 52.4 Q57.45 52.75 57.15 53.25 56.85 53.75 56.0 53.8 M57.75 58.65 L57.4 58.4 57.25 58.05 Q57.25 57.65 57.5 57.4 L58.45 56.25 59.25 55.05 Q59.65 54.65 59.95 54.75 L60.25 54.95 Q60.5 55.2 60.25 55.95 L59.0 57.7 57.75 58.65" fill="#197e4f" fill-rule="evenodd" stroke="none"/>
    <path d="M17.9 14.3 L18.25 14.55 19.45 15.55 20.85 16.65 21.05 16.85 22.4 18.0 22.5 18.1 22.5 29.8 22.45 29.75 20.6 27.7 18.9 25.7 18.3 25.0 18.15 24.85 17.9 24.5 17.9 14.3 M23.85 19.25 L24.4 19.7 27.2 22.2 27.35 22.35 27.85 22.75 28.95 23.75 Q33.75 28.15 38.75 33.25 L36.1 36.6 32.6 40.1 31.6 39.1 30.75 38.35 27.4 35.0 25.95 33.45 23.85 31.25 23.85 19.25 M11.6 9.5 L11.9 9.8 13.25 10.75 13.2 18.6 11.6 16.3 11.6 9.5" fill="#b8b3b2" fill-rule="evenodd" stroke="none"/>
    <path d="M22.5 18.1 L23.8 19.2 23.85 19.25 23.85 31.25 23.75 31.15 23.55 30.95 22.75 30.05 22.5 29.8 22.5 18.1 M5.0 5.2 L10.3 8.6 10.5 8.8 11.6 9.5 11.6 16.3 10.55 14.85 10.5 14.7 10.3 14.5 Q7.15 9.75 5.15 5.45 L5.0 5.2 M13.25 10.75 L17.9 14.3 17.9 24.5 14.25 20.05 13.2 18.6 13.25 10.75" fill="#cdc6c4" fill-rule="evenodd" stroke="none"/>
    <path d="M23.85 34.95 L23.75 34.85 23.5 34.5 23.4 34.4 22.75 33.75 22.5 33.5 22.5 30.4 22.9 30.8 23.6 31.7 23.75 31.85 23.85 31.95 23.85 34.95 M17.9 28.3 L17.15 27.45 17.05 27.35 16.4 26.5 15.7 25.6 14.9 24.7 14.25 23.85 13.55 22.95 13.25 22.55 13.25 19.25 13.45 19.45 13.85 20.05 14.25 20.55 14.7 21.1 15.1 21.6 15.5 22.2 15.95 22.75 16.4 23.3 16.85 23.85 17.3 24.4 17.6 24.8 17.8 25.0 17.9 25.1 17.9 28.3 M11.6 20.4 L11.0 19.5 10.3 18.6 10.05 18.25 9.85 17.85 9.2 17.0 9.1 16.8 8.7 16.2 7.7 14.6 6.75 13.05 5.9 11.5 5.15 10.05 4.5 8.6 3.85 7.15 3.25 5.75 2.6 3.8 5.0 5.2 5.15 5.45 5.5 6.3 5.9 7.2 6.35 8.15 6.8 9.0 7.25 9.95 7.85 10.95 8.4 11.9 9.0 12.9 9.6 13.8 9.85 14.25 10.0 14.5 10.15 14.75 10.15 14.85 10.5 15.3 10.55 15.45 10.85 15.85 11.2 16.3 11.55 16.85 11.6 16.9 11.6 20.4" fill="#e7e1df" fill-rule="evenodd" stroke="none"/>
    <path d="M17.9 24.5 L18.15 24.85 18.3 25.0 18.9 25.7 20.6 27.7 22.45 29.75 22.5 29.8 22.75 30.05 23.55 30.95 23.75 31.15 23.85 31.25 25.95 33.45 27.4 35.0 30.75 38.35 31.6 39.1 32.6 40.1 30.0 38.1 28.6 36.9 27.4 35.7 27.35 35.65 26.25 34.45 25.6 33.8 25.05 33.25 23.9 32.0 23.85 31.95 23.75 31.85 23.6 31.7 22.9 30.8 22.5 30.4 22.45 30.35 21.8 29.6 20.7 28.4 20.1 27.7 19.75 27.25 18.7 26.1 18.6 26.0 18.25 25.55 17.9 25.1 17.8 25.0 17.6 24.8 17.3 24.4 16.85 23.85 16.4 23.3 15.95 22.75 15.5 22.2 15.1 21.6 14.7 21.1 14.25 20.55 13.85 20.05 13.45 19.45 13.25 19.25 12.65 18.45 11.95 17.45 11.9 17.4 11.6 16.9 11.55 16.85 11.2 16.3 10.85 15.85 10.55 15.45 10.5 15.3 10.15 14.85 10.15 14.75 10.0 14.5 9.85 14.25 9.6 13.8 9.0 12.9 8.4 11.9 7.85 10.95 7.25 9.95 6.8 9.0 6.35 8.15 5.9 7.2 5.5 6.3 5.15 5.45 Q7.15 9.75 10.3 14.5 L10.5 14.7 10.55 14.85 11.6 16.3 13.2 18.6 14.25 20.05 17.9 24.5" fill="#ffffff" fill-rule="evenodd" stroke="none"/>
    <path d="M32.6 40.1 L30.4 41.6 29.6 40.8 28.8 40.0 28.0 39.2 27.2 38.4 26.95 38.15 26.45 37.65 25.7 36.8 25.15 36.25 24.95 36.05 24.2 35.3 23.85 34.95 23.85 31.95 23.9 32.0 25.05 33.25 25.6 33.8 26.25 34.45 27.35 35.65 27.4 35.7 28.6 36.9 30.0 38.1 32.6 40.1 M22.5 33.5 L22.45 33.45 21.35 32.25 20.05 30.75 19.9 30.6 19.4 30.0 18.75 29.25 18.35 28.85 18.2 28.7 18.15 28.65 17.95 28.35 17.9 28.3 17.9 25.1 18.25 25.55 18.6 26.0 18.7 26.1 19.75 27.25 20.1 27.7 20.7 28.4 21.8 29.6 22.45 30.35 22.5 30.4 22.5 33.5 M13.25 22.55 L12.9 22.1 12.2 21.2 11.95 20.85 11.6 20.4 11.6 16.9 11.9 17.4 11.95 17.45 12.65 18.45 13.25 19.25 13.25 22.55" fill="#dad5d3" fill-rule="evenodd" stroke="none"/>
    <path d="M36.1 36.6 L39.1 33.6 41.65 36.15 38.3 39.5 Q36.25 39.15 33.95 40.95 L31.95 42.85 31.8 43.0 30.75 41.95 32.6 40.1 36.1 36.6" fill="#a8a3a2" fill-rule="evenodd" stroke="none"/>
  </g>
</svg>
