<?xml version="1.0" encoding="UTF-8" standalone="no"?>
<svg xmlns:ffdec="https://www.free-decompiler.com/flash" xmlns:xlink="http://www.w3.org/1999/xlink" ffdec:objectType="shape" height="61.4px" width="42.55px" xmlns="http://www.w3.org/2000/svg">
  <g transform="matrix(1.0, 0.0, 0.0, 1.0, -12.9, -1.15)">
    <path d="M17.4 12.0 L19.0 17.95 42.25 10.3 Q41.3 7.75 40.95 4.25 L17.4 12.0 M35.55 28.6 L36.35 27.9 37.5 28.75 37.7 28.85 37.8 28.85 37.85 28.7 38.7 27.65 40.25 28.25 40.25 28.3 40.35 28.25 40.4 28.3 40.6 28.15 40.65 28.05 40.95 26.85 42.65 27.25 42.8 27.25 42.9 27.0 43.0 26.9 42.95 26.85 42.85 25.8 44.55 25.8 44.7 25.75 44.85 25.6 44.8 25.55 44.8 25.4 44.35 24.4 45.9 24.1 46.1 24.05 46.15 23.95 46.25 23.85 46.05 23.6 45.25 22.75 46.6 22.2 46.8 22.1 46.75 22.05 46.8 21.85 46.65 21.7 45.55 21.0 46.65 20.25 46.8 20.1 46.75 19.9 46.6 19.7 45.15 19.3 45.9 18.4 46.05 18.2 45.95 18.0 45.9 18.0 45.7 17.85 44.15 17.75 44.55 16.65 44.6 16.5 44.55 16.45 44.4 16.25 44.25 16.3 42.55 16.4 42.55 15.35 42.6 15.25 42.55 15.1 42.4 15.0 42.2 15.0 40.6 15.45 40.2 14.3 40.15 14.3 40.1 14.15 39.95 14.1 39.8 14.15 38.25 14.85 37.45 13.75 37.35 13.65 37.1 13.65 37.05 13.75 35.85 14.7 34.75 13.8 34.5 13.7 34.35 13.75 34.2 13.9 33.5 15.0 32.0 14.4 Q31.85 14.25 31.75 14.4 L31.65 14.45 31.5 14.6 31.25 15.7 29.6 15.4 29.4 15.4 29.2 15.5 29.2 15.7 29.35 16.85 27.6 16.7 27.4 16.8 27.35 17.0 27.3 17.2 27.85 18.25 26.25 18.5 26.0 18.6 25.95 18.8 26.05 19.0 26.95 19.8 25.55 20.4 25.3 20.5 25.35 20.7 25.45 20.9 25.45 20.95 26.65 21.55 25.5 22.35 Q25.4 22.35 25.4 22.5 L25.4 22.7 25.45 22.7 25.6 22.8 27.05 23.3 26.25 24.15 26.2 24.45 26.25 24.65 26.4 24.75 28.1 24.85 27.65 25.85 27.65 25.9 27.65 26.05 27.75 26.25 27.9 26.3 29.65 26.15 29.6 27.25 29.65 27.45 29.65 27.5 29.8 27.65 29.95 27.6 30.0 27.65 31.6 27.15 31.9 28.05 19.25 26.3 Q16.9 18.75 15.0 11.0 L42.1 2.1 Q46.05 16.6 51.1 30.75 L49.3 30.5 48.5 28.4 44.3 29.8 35.55 28.6 M33.0 28.2 L33.9 27.7 34.45 28.4 33.0 28.2 M42.65 19.75 L42.2 24.4 33.15 23.65 33.55 19.0 35.45 19.1 35.35 20.65 39.3 21.0 39.4 19.5 42.65 19.75 M30.55 18.75 L32.65 18.85 32.25 23.55 30.15 23.4 30.55 18.75" fill="#ffffff" fill-rule="evenodd" stroke="none"/>
    <path d="M17.4 12.0 L40.95 4.25 Q41.3 7.75 42.25 10.3 L19.0 17.95 17.4 12.0" fill="#0099cc" fill-rule="evenodd" stroke="none"/>
    <path d="M31.9 28.05 L31.6 27.15 30.0 27.65 29.95 27.6 29.8 27.65 29.65 27.5 29.65 27.45 29.6 27.25 29.65 26.15 27.9 26.3 27.75 26.25 27.65 26.05 27.65 25.9 27.65 25.85 28.1 24.85 26.4 24.75 26.25 24.65 26.2 24.45 26.25 24.15 27.05 23.3 25.6 22.8 25.45 22.7 25.4 22.7 25.4 22.5 Q25.4 22.35 25.5 22.35 L26.65 21.55 25.45 20.95 25.45 20.9 25.35 20.7 25.3 20.5 25.55 20.4 26.95 19.8 26.05 19.0 25.95 18.8 26.0 18.6 26.25 18.5 27.85 18.25 27.3 17.2 27.35 17.0 27.4 16.8 27.6 16.7 29.35 16.85 29.2 15.7 29.2 15.5 29.4 15.4 29.6 15.4 31.25 15.7 31.5 14.6 31.65 14.45 31.75 14.4 Q31.85 14.25 32.0 14.4 L33.5 15.0 34.2 13.9 34.35 13.75 34.5 13.7 34.75 13.8 35.85 14.7 37.05 13.75 37.1 13.65 37.35 13.65 37.45 13.75 38.25 14.85 39.8 14.15 39.95 14.1 40.1 14.15 40.15 14.3 40.2 14.3 40.6 15.45 42.2 15.0 42.4 15.0 42.55 15.1 42.6 15.25 42.55 15.35 42.55 16.4 44.25 16.3 44.4 16.25 44.55 16.45 44.6 16.5 44.55 16.65 44.15 17.75 45.7 17.85 45.9 18.0 45.95 18.0 46.05 18.2 45.9 18.4 45.15 19.3 46.6 19.7 46.75 19.9 46.8 20.1 46.65 20.25 45.55 21.0 46.65 21.7 46.8 21.85 46.75 22.05 46.8 22.1 46.6 22.2 45.25 22.75 46.05 23.6 46.25 23.85 46.15 23.95 46.1 24.05 45.9 24.1 44.35 24.4 44.8 25.4 44.8 25.55 44.85 25.6 44.7 25.75 44.55 25.8 42.85 25.8 42.95 26.85 43.0 26.9 42.9 27.0 42.8 27.25 42.65 27.25 40.95 26.85 40.65 28.05 40.6 28.15 40.4 28.3 40.35 28.25 40.25 28.3 40.25 28.25 38.7 27.65 37.85 28.7 37.8 28.85 37.7 28.85 37.5 28.75 36.35 27.9 35.55 28.6 35.2 28.85 35.15 28.9 35.05 28.9 34.9 28.9 34.75 28.8 34.45 28.4 33.9 27.7 33.0 28.2 32.45 28.5 32.25 28.5 32.1 28.5 32.15 28.4 31.95 28.3 31.9 28.05 M27.6 17.05 L28.3 18.25 28.25 18.35 28.2 18.4 28.2 18.45 26.3 18.75 26.25 18.75 27.35 19.8 27.35 19.9 27.35 20.0 27.3 20.05 25.7 20.65 25.9 20.75 25.95 20.8 27.0 21.45 27.1 21.55 27.05 21.6 27.05 21.7 Q26.4 22.15 25.7 22.55 L25.95 22.6 26.0 22.6 27.35 23.05 27.45 23.2 27.5 23.25 27.45 23.3 26.5 24.45 28.25 24.6 28.4 24.65 28.45 24.75 27.9 26.05 28.1 26.0 28.15 26.0 29.8 25.85 29.85 25.9 29.95 25.95 30.0 26.0 29.95 26.15 29.95 27.3 30.1 27.25 31.7 26.85 31.8 26.8 31.9 26.9 32.3 28.2 33.9 27.4 34.0 27.4 34.85 28.45 34.85 28.5 34.9 28.5 34.95 28.65 35.1 28.55 35.1 28.5 36.25 27.5 36.35 27.55 36.45 27.5 37.65 28.55 38.55 27.35 38.6 27.25 38.65 27.25 40.15 27.9 40.2 27.85 40.35 28.0 40.7 26.65 40.75 26.55 40.8 26.55 42.65 26.95 42.5 25.65 42.55 25.6 42.65 25.45 44.3 25.5 44.3 25.55 44.55 25.55 44.4 25.35 44.45 25.3 43.95 24.35 43.95 24.3 44.0 24.15 44.05 24.1 45.6 23.85 45.6 23.9 45.85 23.85 44.9 22.8 44.85 22.75 44.85 22.6 44.95 22.55 46.5 21.95 45.15 21.2 45.15 21.15 45.1 21.05 45.05 20.95 45.1 20.85 46.15 20.25 46.2 20.15 46.45 20.05 44.8 19.5 44.7 19.5 44.65 19.35 44.75 19.3 45.5 18.45 45.5 18.4 45.65 18.25 43.85 18.0 43.75 18.0 43.7 17.85 44.25 16.6 42.4 16.65 42.3 16.7 42.2 16.65 42.25 16.6 42.3 15.25 40.5 15.8 40.35 15.75 39.95 14.45 38.3 15.2 38.2 15.2 38.1 15.15 37.25 14.0 37.15 14.0 37.1 14.1 36.0 15.05 35.85 15.05 35.8 15.05 34.65 14.15 34.45 14.05 33.75 15.25 33.65 15.3 33.5 15.35 31.9 14.65 31.85 14.75 31.85 14.8 31.55 15.85 31.45 16.0 31.3 16.0 29.7 15.75 29.65 15.65 29.5 15.7 29.5 15.85 29.65 16.9 29.65 17.05 29.6 17.1 27.6 17.05" fill="#006600" fill-rule="evenodd" stroke="none"/>
    <path d="M40.05 15.9 L39.7 14.85 38.3 15.55 38.15 15.55 38.1 15.6 37.9 15.45 37.15 14.4 36.05 15.3 36.1 15.35 35.85 15.4 35.7 15.35 34.6 14.5 33.9 15.6 33.85 15.6 33.75 15.7 33.7 15.7 33.5 15.7 32.05 15.05 31.8 16.15 31.7 16.3 31.45 16.4 29.8 16.05 30.0 17.1 30.0 17.2 29.95 17.25 29.85 17.35 29.8 17.35 29.7 17.4 28.1 17.45 28.65 18.3 28.65 18.5 28.55 18.6 Q28.45 18.75 28.35 18.7 L26.95 19.0 27.75 19.75 27.8 19.9 27.8 20.1 27.75 20.1 27.65 20.2 26.3 20.7 27.45 21.3 27.55 21.45 27.55 21.6 27.4 21.8 26.45 22.4 27.7 22.9 27.85 23.0 27.85 23.15 27.8 23.35 27.1 24.2 28.55 24.3 28.65 24.35 28.75 24.4 28.85 24.55 28.85 24.75 28.4 25.65 29.95 25.55 30.15 25.6 30.15 25.65 30.25 25.7 30.25 25.85 30.25 26.9 31.75 26.5 32.0 26.5 32.1 26.7 32.15 26.7 32.45 27.8 33.85 27.1 33.85 27.05 34.05 27.05 34.25 27.15 35.05 28.2 36.15 27.25 Q36.2 27.15 36.3 27.15 L36.45 27.2 36.5 27.2 37.6 28.1 38.35 27.1 38.5 26.9 38.75 26.95 40.1 27.5 40.4 26.5 40.55 26.3 40.6 26.3 40.8 26.3 42.3 26.55 42.25 25.45 42.25 25.35 42.35 25.2 42.55 25.15 44.05 25.2 43.6 24.3 43.55 24.15 43.65 23.95 43.75 23.85 43.8 23.85 45.25 23.65 44.5 22.9 44.35 22.65 44.45 22.55 44.4 22.5 44.6 22.35 45.85 21.9 44.8 21.3 44.65 21.15 44.65 20.9 44.75 20.8 45.8 20.15 44.5 19.7 44.35 19.55 44.25 19.45 44.3 19.3 45.05 18.45 43.65 18.3 43.45 18.2 43.35 18.0 43.4 17.9 43.8 16.9 42.2 17.05 42.05 17.0 41.9 16.9 41.85 16.75 42.0 15.65 40.5 16.1 40.2 16.05 40.05 15.9 M27.6 17.05 L29.6 17.1 29.65 17.05 29.65 16.9 29.5 15.85 29.5 15.7 29.65 15.65 29.7 15.75 31.3 16.0 31.45 16.0 31.55 15.85 31.85 14.8 31.85 14.75 31.9 14.65 33.5 15.35 33.65 15.3 33.75 15.25 34.45 14.05 34.65 14.15 35.8 15.05 35.85 15.05 36.0 15.05 37.1 14.1 37.15 14.0 37.25 14.0 38.1 15.15 38.2 15.2 38.3 15.2 39.95 14.45 40.35 15.75 40.5 15.8 42.3 15.25 42.25 16.6 42.2 16.65 42.3 16.7 42.4 16.65 44.25 16.6 43.7 17.85 43.75 18.0 43.85 18.0 45.65 18.25 45.5 18.4 45.5 18.45 44.75 19.3 44.65 19.35 44.7 19.5 44.8 19.5 46.45 20.05 46.2 20.15 46.15 20.25 45.1 20.85 45.05 20.95 45.1 21.05 45.15 21.15 45.15 21.2 46.5 21.95 44.95 22.55 44.85 22.6 44.85 22.75 44.9 22.8 45.85 23.85 45.6 23.9 45.6 23.85 44.05 24.1 44.0 24.15 43.95 24.3 43.95 24.35 44.45 25.3 44.4 25.35 44.55 25.55 44.3 25.55 44.3 25.5 42.65 25.45 42.55 25.6 42.5 25.65 42.65 26.95 40.8 26.55 40.75 26.55 40.7 26.65 40.35 28.0 40.2 27.85 40.15 27.9 38.65 27.25 38.6 27.25 38.55 27.35 37.65 28.55 36.45 27.5 36.35 27.55 36.25 27.5 35.1 28.5 35.1 28.55 34.95 28.65 34.9 28.5 34.85 28.5 34.85 28.45 34.0 27.4 33.9 27.4 32.3 28.2 31.9 26.9 31.8 26.8 31.7 26.85 30.1 27.25 29.95 27.3 29.95 26.15 30.0 26.0 29.95 25.95 29.85 25.9 29.8 25.85 28.15 26.0 28.1 26.0 27.9 26.05 28.45 24.75 28.4 24.65 28.25 24.6 26.5 24.45 27.45 23.3 27.5 23.25 27.45 23.2 27.35 23.05 26.0 22.6 25.95 22.6 25.7 22.55 Q26.4 22.15 27.05 21.7 L27.05 21.6 27.1 21.55 27.0 21.45 25.95 20.8 25.9 20.75 25.7 20.65 27.3 20.05 27.35 20.0 27.35 19.9 27.35 19.8 26.25 18.75 26.3 18.75 28.2 18.45 28.2 18.4 28.25 18.35 28.3 18.25 27.6 17.05" fill="#dfeedd" fill-rule="evenodd" stroke="none"/>
    <path d="M40.05 15.9 L40.2 16.05 40.5 16.1 42.0 15.65 41.85 16.75 41.9 16.9 42.05 17.0 42.2 17.05 43.8 16.9 43.4 17.9 43.35 18.0 43.45 18.2 43.65 18.3 45.05 18.45 44.3 19.3 44.25 19.45 44.35 19.55 44.5 19.7 45.8 20.15 44.75 20.8 44.65 20.9 44.65 21.15 44.8 21.3 45.85 21.9 44.6 22.35 44.4 22.5 44.45 22.55 44.35 22.65 44.5 22.9 45.25 23.65 43.8 23.85 43.75 23.85 43.65 23.95 43.55 24.15 43.6 24.3 44.05 25.2 42.55 25.15 42.35 25.2 42.25 25.35 42.25 25.45 42.3 26.55 40.8 26.3 40.6 26.3 40.55 26.3 40.4 26.5 40.1 27.5 38.75 26.95 38.5 26.9 38.35 27.1 37.6 28.1 36.5 27.2 36.45 27.2 36.3 27.15 Q36.2 27.15 36.15 27.25 L35.05 28.2 34.25 27.15 34.05 27.05 33.85 27.05 33.85 27.1 32.45 27.8 32.15 26.7 32.1 26.7 32.0 26.5 31.75 26.5 30.25 26.9 30.25 25.85 30.25 25.7 30.15 25.65 30.15 25.6 29.95 25.55 28.4 25.65 28.85 24.75 28.85 24.55 28.75 24.4 28.65 24.35 28.55 24.3 27.1 24.2 27.8 23.35 27.85 23.15 27.85 23.0 27.7 22.9 26.45 22.4 27.4 21.8 27.55 21.6 27.55 21.45 27.45 21.3 26.3 20.7 27.65 20.2 27.75 20.1 27.8 20.1 27.8 19.9 27.75 19.75 26.95 19.0 28.35 18.7 Q28.45 18.75 28.55 18.6 L28.65 18.5 28.65 18.3 28.1 17.45 29.7 17.4 29.8 17.35 29.85 17.35 29.95 17.25 30.0 17.2 30.0 17.1 29.8 16.05 31.45 16.4 31.7 16.3 31.8 16.15 32.05 15.05 33.5 15.7 33.7 15.7 33.75 15.7 33.85 15.6 33.9 15.6 34.6 14.5 35.7 15.35 35.85 15.4 36.1 15.35 36.05 15.3 37.15 14.4 37.9 15.45 38.1 15.6 38.15 15.55 38.3 15.55 39.7 14.85 40.05 15.9 M42.65 19.75 L39.4 19.5 39.3 21.0 35.35 20.65 35.45 19.1 33.55 19.0 33.15 23.65 42.2 24.4 42.65 19.75 M30.55 18.75 L30.15 23.4 32.25 23.55 32.65 18.85 30.55 18.75" fill="#00cc00" fill-rule="evenodd" stroke="none"/>
    <path d="M46.0 38.0 L45.5 36.4 46.2 36.5 46.55 36.85 46.5 37.45 46.0 38.0 M47.0 32.7 Q46.6 31.9 45.85 31.65 L43.95 31.75 43.8 31.2 43.0 31.45 43.15 32.0 Q41.9 32.45 41.55 33.25 41.05 34.0 41.35 34.95 41.6 35.55 42.1 35.95 L43.0 36.35 44.6 36.45 45.2 38.2 Q44.8 38.15 44.6 37.9 L44.15 37.25 42.1 38.2 42.7 39.0 43.45 39.45 44.35 39.7 45.65 39.55 45.95 40.5 46.75 40.25 46.45 39.3 47.4 38.8 48.1 38.05 48.45 37.1 48.3 36.0 Q48.0 35.05 47.15 34.65 L44.85 34.45 44.4 33.0 44.85 33.2 45.25 33.55 47.0 32.7 M43.6 33.25 L44.0 34.55 43.5 34.35 43.25 34.05 43.25 33.65 43.6 33.25 M44.3 29.8 L49.3 30.5 52.4 38.95 41.25 42.65 37.75 31.95 44.3 29.8 M34.05 41.9 L33.55 40.3 34.3 40.45 34.65 40.75 34.6 41.4 34.05 41.9 M31.7 37.15 L32.1 38.45 31.6 38.3 31.35 38.0 31.35 37.6 31.7 37.15 M35.1 36.65 Q34.7 35.85 33.95 35.6 L32.0 35.65 31.85 35.1 31.1 35.35 31.25 35.9 Q30.0 36.35 29.65 37.15 29.15 37.9 29.45 38.85 L30.15 39.85 31.1 40.3 32.7 40.35 33.3 42.1 Q32.9 42.05 32.7 41.8 L32.2 41.2 30.2 42.1 30.8 42.9 31.55 43.35 32.45 43.65 33.75 43.45 34.05 44.4 34.8 44.15 34.5 43.2 35.5 42.7 36.2 42.0 36.55 41.05 36.4 39.9 Q36.1 38.95 35.25 38.6 L32.9 38.35 32.45 36.9 32.95 37.15 33.35 37.5 35.1 36.65 M25.75 35.85 L36.1 32.45 39.6 43.15 29.25 46.55 Q26.3 42.45 25.75 35.85" fill="#ffcc33" fill-rule="evenodd" stroke="none"/>
    <path d="M43.6 33.25 L43.25 33.65 43.25 34.05 43.5 34.35 44.0 34.55 43.6 33.25 M47.0 32.7 L45.25 33.55 44.85 33.2 44.4 33.0 44.85 34.45 47.15 34.65 Q48.0 35.05 48.3 36.0 L48.45 37.1 48.1 38.05 47.4 38.8 46.45 39.3 46.75 40.25 45.95 40.5 45.65 39.55 44.35 39.7 43.45 39.45 42.7 39.0 42.1 38.2 44.15 37.25 44.6 37.9 Q44.8 38.15 45.2 38.2 L44.6 36.45 43.0 36.35 42.1 35.95 Q41.6 35.55 41.35 34.95 41.05 34.0 41.55 33.25 41.9 32.45 43.15 32.0 L43.0 31.45 43.8 31.2 43.95 31.75 45.85 31.65 Q46.6 31.9 47.0 32.7 M46.0 38.0 L46.5 37.45 46.55 36.85 46.2 36.5 45.5 36.4 46.0 38.0 M35.1 36.65 L33.35 37.5 32.95 37.15 32.45 36.9 32.9 38.35 35.25 38.6 Q36.1 38.95 36.4 39.9 L36.55 41.05 36.2 42.0 35.5 42.7 34.5 43.2 34.8 44.15 34.05 44.4 33.75 43.45 32.45 43.65 31.55 43.35 30.8 42.9 30.2 42.1 32.2 41.2 32.7 41.8 Q32.9 42.05 33.3 42.1 L32.7 40.35 31.1 40.3 30.15 39.85 29.45 38.85 Q29.15 37.9 29.65 37.15 30.0 36.35 31.25 35.9 L31.1 35.35 31.85 35.1 32.0 35.65 33.95 35.6 Q34.7 35.85 35.1 36.65 M31.7 37.15 L31.35 37.6 31.35 38.0 31.6 38.3 32.1 38.45 31.7 37.15 M34.05 41.9 L34.6 41.4 34.65 40.75 34.3 40.45 33.55 40.3 34.05 41.9" fill="#996600" fill-rule="evenodd" stroke="none"/>
    <path d="M42.25 1.15 L42.6 1.2 42.8 1.4 Q46.6 16.4 52.0 30.85 L55.45 39.8 55.45 40.15 55.15 40.35 27.2 49.55 26.95 49.55 26.65 49.3 Q21.95 38.05 18.25 26.15 15.95 18.65 14.0 10.9 L14.1 10.6 14.3 10.35 42.25 1.15 M51.1 30.75 Q46.05 16.6 42.1 2.1 L15.0 11.0 Q16.9 18.75 19.25 26.3 22.8 37.7 27.35 48.6 L54.45 39.7 51.1 30.75" fill="#666666" fill-rule="evenodd" stroke="none"/>
    <path d="M31.9 28.05 L31.95 28.3 32.15 28.4 32.1 28.5 32.25 28.5 32.45 28.5 33.0 28.2 34.45 28.4 34.75 28.8 34.9 28.9 35.05 28.9 35.15 28.9 35.2 28.85 35.55 28.6 44.3 29.8 37.75 31.95 41.25 42.65 52.4 38.95 49.3 30.5 51.1 30.75 54.45 39.7 27.35 48.6 Q22.8 37.7 19.25 26.3 L31.9 28.05 M25.75 35.85 Q26.3 42.45 29.25 46.55 L39.6 43.15 36.1 32.45 25.75 35.85" fill="#eaeaea" fill-rule="evenodd" stroke="none"/>
    <path d="M44.3 29.8 L48.5 28.4 49.3 30.5 44.3 29.8" fill="#ffdc72" fill-rule="evenodd" stroke="none"/>
    <path d="M49.9 43.7 L49.8 43.5 49.65 43.3 48.8 43.2 48.55 43.3 48.45 43.5 48.35 44.25 48.4 44.45 48.6 44.55 48.55 44.7 48.35 44.8 48.25 45.0 48.1 45.8 48.15 46.0 48.2 46.05 48.35 46.2 48.35 46.35 48.15 46.4 48.0 46.65 47.9 47.45 47.95 47.7 48.15 47.8 48.85 47.9 49.1 47.85 49.25 47.65 49.4 47.65 49.45 47.9 49.65 48.0 50.5 48.1 50.75 48.1 50.85 47.85 51.0 47.9 51.1 48.15 51.3 48.2 52.1 48.35 52.35 48.3 52.5 48.1 52.6 47.4 52.5 47.15 52.3 47.0 52.3 46.85 52.55 46.8 52.7 46.6 52.8 45.75 52.75 45.5 52.5 45.4 52.55 45.25 52.8 45.15 52.9 45.0 53.05 44.15 52.95 43.9 52.75 43.75 52.05 43.65 51.8 43.75 51.7 43.95 51.55 43.9 51.45 43.7 51.25 43.55 50.45 43.4 50.2 43.55 Q50.05 43.55 50.05 43.7 L49.9 43.7 M13.85 55.95 L16.35 37.55 53.75 42.65 51.25 61.05 13.85 55.95 M42.35 50.15 L35.25 49.2 35.05 50.45 42.15 51.4 42.35 50.15 M26.85 50.25 L26.65 51.5 30.45 52.0 30.65 50.75 26.85 50.25 M41.75 54.45 L38.6 54.05 38.45 55.25 41.6 55.65 41.75 54.45 M31.15 50.85 L30.95 52.1 36.05 52.75 36.25 51.5 31.15 50.85 M42.05 52.3 L36.85 51.6 36.65 52.85 41.85 53.55 42.05 52.3 M26.55 52.4 L26.4 53.6 37.4 55.1 37.55 53.9 26.55 52.4 M26.05 43.3 L23.5 42.95 23.35 43.95 25.9 44.3 26.05 43.3 M27.15 48.1 L26.95 49.35 34.2 50.35 34.4 49.1 27.15 48.1 M26.5 40.05 L23.0 39.6 22.85 40.6 26.35 41.05 26.5 40.05 M16.9 42.05 L16.75 43.05 22.85 43.9 23.0 42.9 16.9 42.05 M26.25 41.75 L19.35 40.8 19.2 41.8 26.1 42.75 26.25 41.75 M17.35 38.8 L17.2 39.8 21.75 40.45 21.9 39.45 17.35 38.8 M17.1 40.5 L16.95 41.5 18.45 41.7 18.6 40.7 17.1 40.5" fill="#ffffff" fill-rule="evenodd" stroke="none"/>
    <path d="M48.6 44.55 L48.4 44.45 48.35 44.25 48.45 43.5 48.55 43.3 48.8 43.2 49.65 43.3 49.8 43.5 49.9 43.7 49.8 43.85 48.9 43.75 48.8 44.55 48.6 44.55 M50.05 43.7 Q50.05 43.55 50.2 43.55 L50.45 43.4 51.25 43.55 51.45 43.7 51.55 43.9 51.45 44.05 50.1 43.9 50.05 43.7 M51.7 43.95 L51.8 43.75 52.05 43.65 52.75 43.75 52.95 43.9 53.05 44.15 52.9 45.0 52.8 45.15 52.55 45.25 52.45 45.2 52.45 45.05 52.55 44.2 51.7 44.1 51.7 43.95 M52.5 45.4 L52.75 45.5 52.8 45.75 52.7 46.6 52.55 46.8 52.3 46.85 52.2 46.8 52.4 45.4 52.5 45.4 M52.3 47.0 L52.5 47.15 52.6 47.4 52.5 48.1 52.35 48.3 52.1 48.35 51.3 48.2 51.1 48.15 51.0 47.9 51.1 47.75 52.05 47.85 52.2 47.0 52.3 47.0 M50.85 47.85 L50.75 48.1 50.5 48.1 49.65 48.0 49.45 47.9 49.4 47.65 49.45 47.5 50.8 47.7 50.85 47.85 M49.25 47.65 L49.1 47.85 48.85 47.9 48.15 47.8 47.95 47.7 47.9 47.45 48.0 46.65 48.15 46.4 48.35 46.35 48.55 46.5 48.4 47.4 49.2 47.5 49.25 47.65 M48.35 46.2 L48.2 46.05 48.15 46.0 48.1 45.8 48.25 45.0 48.35 44.8 48.55 44.7 48.75 44.85 48.6 45.85 48.6 46.2 48.35 46.2 M53.75 42.65 L54.4 42.75 51.8 61.65 13.75 56.45 13.85 55.95 51.25 61.05 53.75 42.65" fill="#cccccc" fill-rule="evenodd" stroke="none"/>
    <path d="M17.1 40.5 L18.6 40.7 18.45 41.7 16.95 41.5 17.1 40.5 M17.35 38.8 L21.9 39.45 21.75 40.45 17.2 39.8 17.35 38.8 M26.25 41.75 L26.1 42.75 19.2 41.8 19.35 40.8 26.25 41.75 M16.9 42.05 L23.0 42.9 22.85 43.9 16.75 43.05 16.9 42.05 M26.5 40.05 L26.35 41.05 22.85 40.6 23.0 39.6 26.5 40.05 M27.15 48.1 L34.4 49.1 34.2 50.35 26.95 49.35 27.15 48.1 M26.05 43.3 L25.9 44.3 23.35 43.95 23.5 42.95 26.05 43.3 M26.55 52.4 L37.55 53.9 37.4 55.1 26.4 53.6 26.55 52.4 M42.05 52.3 L41.85 53.55 36.65 52.85 36.85 51.6 42.05 52.3 M31.15 50.85 L36.25 51.5 36.05 52.75 30.95 52.1 31.15 50.85 M41.75 54.45 L41.6 55.65 38.45 55.25 38.6 54.05 41.75 54.45 M26.85 50.25 L30.65 50.75 30.45 52.0 26.65 51.5 26.85 50.25 M42.35 50.15 L42.15 51.4 35.05 50.45 35.25 49.2 42.35 50.15" fill="#999999" fill-rule="evenodd" stroke="none"/>
    <path d="M52.55 45.25 L52.5 45.4 52.4 45.4 52.2 46.8 52.3 46.85 52.3 47.0 52.2 47.0 52.05 47.85 51.1 47.75 51.0 47.9 50.85 47.85 50.8 47.7 49.45 47.5 49.4 47.65 49.25 47.65 49.2 47.5 48.4 47.4 48.55 46.5 48.35 46.35 48.35 46.2 48.6 46.2 48.6 45.85 52.45 45.05 52.45 45.2 52.55 45.25" fill="#ff6666" fill-rule="evenodd" stroke="none"/>
    <path d="M48.6 44.55 L48.8 44.55 48.9 43.75 49.8 43.85 49.9 43.7 50.05 43.7 50.1 43.9 51.45 44.05 51.55 43.9 51.7 43.95 51.7 44.1 52.55 44.2 52.45 45.05 48.6 45.85 48.75 44.85 48.55 44.7 48.6 44.55" fill="#ff9090" fill-rule="evenodd" stroke="none"/>
    <path d="M13.85 55.95 L13.75 56.45 51.8 61.65 54.4 42.75 53.75 42.65 16.35 37.55 13.85 55.95 M54.9 42.0 Q55.1 42.0 55.2 42.15 L55.3 42.45 52.6 62.2 52.4 62.45 52.1 62.55 13.25 57.25 12.95 57.05 12.9 56.8 15.6 37.05 15.75 36.75 16.05 36.7 54.9 42.0" fill="#666666" fill-rule="evenodd" stroke="none"/>
  </g>
</svg>
