<?xml version="1.0" encoding="UTF-8" standalone="no"?>
<svg xmlns:ffdec="https://www.free-decompiler.com/flash" xmlns:xlink="http://www.w3.org/1999/xlink" ffdec:objectType="shape" height="36.05px" width="36.0px" xmlns="http://www.w3.org/2000/svg">
  <g transform="matrix(1.0, 0.0, 0.0, 1.0, 18.0, 36.05)">
    <path d="M3.0 -35.8 Q8.55 -34.95 12.7 -30.75 17.2 -26.25 17.9 -20.2 L17.8 -20.95 Q12.2 -21.85 8.0 -26.05 3.8 -30.25 3.0 -35.8" fill="#000000" fill-rule="evenodd" stroke="none"/>
    <path d="M17.65 -14.35 L16.75 -11.25 Q13.65 -10.0 10.0 -10.0 2.5 -10.0 -2.75 -15.3 -8.0 -20.55 -8.0 -28.0 -8.0 -31.65 -6.7 -34.8 L-3.65 -35.7 Q-4.0 -33.95 -4.0 -32.0 -4.0 -24.55 1.25 -19.3 6.5 -14.0 14.0 -14.0 L17.65 -14.35" fill="#080808" fill-rule="evenodd" stroke="none"/>
    <path d="M16.75 -11.25 L15.95 -9.55 Q12.15 -7.5 7.5 -7.5 0.0 -7.5 -5.25 -12.8 -10.5 -18.05 -10.5 -25.5 -10.5 -30.15 -8.4 -34.0 L-6.7 -34.8 Q-8.0 -31.65 -8.0 -28.0 -8.0 -20.55 -2.75 -15.3 2.5 -10.0 10.0 -10.0 13.65 -10.0 16.75 -11.25" fill="#101010" fill-rule="evenodd" stroke="none"/>
    <path d="M2.1 -35.95 L2.25 -35.9 3.0 -35.8 Q3.8 -30.25 8.0 -26.05 12.2 -21.85 17.8 -20.95 L17.9 -20.2 17.9 -20.1 Q11.75 -20.75 7.25 -25.3 2.75 -29.8 2.1 -35.95" fill="#3b1a03" fill-rule="evenodd" stroke="none"/>
    <path d="M17.9 -20.1 L18.0 -18.0 17.8 -15.2 15.0 -15.0 Q7.5 -15.0 2.25 -20.3 -3.0 -25.55 -3.0 -33.0 L-2.8 -35.85 0.0 -36.05 2.1 -35.95 Q2.75 -29.8 7.25 -25.3 11.75 -20.75 17.9 -20.1" fill="#441d03" fill-rule="evenodd" stroke="none"/>
    <path d="M17.8 -15.2 L17.65 -14.35 14.0 -14.0 Q6.5 -14.0 1.25 -19.3 -4.0 -24.55 -4.0 -32.0 -4.0 -33.95 -3.65 -35.7 L-3.2 -35.75 -2.8 -35.85 -3.0 -33.0 Q-3.0 -25.55 2.25 -20.3 7.5 -15.0 15.0 -15.0 L17.8 -15.2" fill="#4e2203" fill-rule="evenodd" stroke="none"/>
    <path d="M15.0 -8.0 L14.0 -6.7 Q9.2 -2.75 2.75 -2.75 -4.75 -2.75 -10.0 -8.05 -15.25 -13.3 -15.25 -20.75 -15.25 -27.25 -11.25 -32.1 L-9.95 -33.05 Q-13.0 -28.65 -13.0 -23.0 -13.0 -15.55 -7.75 -10.3 -2.5 -5.0 5.0 -5.0 10.6 -5.0 15.0 -8.0" fill="#632d04" fill-rule="evenodd" stroke="none"/>
    <path d="M15.95 -9.55 L15.0 -8.0 Q10.6 -5.0 5.0 -5.0 -2.5 -5.0 -7.75 -10.3 -13.0 -15.55 -13.0 -23.0 -13.0 -28.65 -9.95 -33.05 L-9.85 -33.15 -9.15 -33.6 -8.4 -34.0 Q-10.5 -30.15 -10.5 -25.5 -10.5 -18.05 -5.25 -12.8 0.0 -7.5 7.5 -7.5 12.15 -7.5 15.95 -9.55" fill="#592804" fill-rule="evenodd" stroke="none"/>
    <path d="M14.0 -6.7 L12.7 -5.3 Q7.45 0.0 0.0 0.0 -7.5 0.0 -12.75 -5.3 -18.0 -10.55 -18.0 -18.0 -18.0 -25.45 -12.75 -30.75 L-11.25 -32.1 Q-15.25 -27.25 -15.25 -20.75 -15.25 -13.3 -10.0 -8.05 -4.75 -2.75 2.75 -2.75 9.2 -2.75 14.0 -6.7" fill="#6e3206" fill-rule="evenodd" stroke="none"/>
  </g>
</svg>
