<?xml version="1.0" encoding="UTF-8" standalone="no"?>
<svg xmlns:ffdec="https://www.free-decompiler.com/flash" xmlns:xlink="http://www.w3.org/1999/xlink" ffdec:objectType="shape" height="71.9px" width="67.3px" xmlns="http://www.w3.org/2000/svg">
  <g transform="matrix(1.0, 0.0, 0.0, 1.0, 33.65, 35.95)">
    <path d="M23.95 -18.35 L24.9 -18.5 Q29.55 -18.55 31.6 -14.15 L31.6 -14.1 Q33.45 -10.0 33.6 -5.5 33.8 0.8 33.45 6.95 33.1 13.8 29.7 19.35 26.4 24.7 21.55 28.65 17.85 31.65 13.6 33.45 L13.5 33.45 Q2.15 37.75 -9.45 34.6 L-9.5 34.6 Q-19.5 31.9 -25.65 23.45 -33.55 12.75 -33.65 -0.5 -33.75 -9.65 -29.75 -17.85 -26.95 -23.6 -22.4 -27.8 L-22.35 -27.8 Q-17.3 -32.45 -10.6 -34.45 L-10.55 -34.5 Q0.1 -37.5 10.5 -34.35 16.75 -32.55 17.55 -26.35 L17.55 -26.3 Q17.75 -24.45 17.35 -22.65 L17.35 -22.7 Q16.55 -19.1 15.35 -15.4 L23.95 -18.35 M10.7 -10.65 L10.25 -10.5 Q14.45 -21.45 14.65 -22.7 L14.65 -22.6 14.75 -23.75 14.75 -24.3 Q14.75 -28.0 12.95 -29.7 9.8 -33.0 -0.2 -33.0 -10.85 -33.0 -17.35 -28.0 -23.8 -23.1 -26.1 -18.4 -26.9 -17.45 -28.5 -13.1 -30.6 -7.6 -30.6 -2.75 L-30.6 -2.4 -30.6 -2.1 -30.6 -1.75 -30.0 6.15 Q-28.05 17.25 -21.25 24.25 -12.85 33.0 0.5 33.0 11.7 33.0 20.7 25.25 29.1 18.05 29.9 9.8 L30.45 3.6 30.6 -3.45 30.15 -8.85 Q28.95 -15.7 24.9 -15.5 L23.1 -15.15 23.15 -15.15 21.8 -14.75 21.65 -14.7 10.7 -10.65" fill="#ffffff" fill-rule="evenodd" stroke="none"/>
    <path d="M30.6 -3.45 L30.15 -7.85 Q28.95 -14.7 24.9 -14.5 L23.1 -14.15 23.15 -14.15 21.8 -13.75 21.65 -13.7 10.25 -9.5 10.7 -10.65 21.65 -14.7 21.8 -14.75 23.15 -15.15 23.1 -15.15 24.9 -15.5 Q28.95 -15.7 30.15 -8.85 L30.6 -3.45 M14.75 -23.75 Q14.65 -27.1 12.95 -28.7 9.8 -32.0 -0.2 -32.0 -10.85 -32.0 -17.35 -27.0 -23.8 -22.1 -26.1 -17.4 -26.9 -16.45 -28.5 -12.1 -30.45 -7.0 -30.6 -2.4 L-30.6 -2.75 Q-30.6 -7.6 -28.5 -13.1 -26.9 -17.45 -26.1 -18.4 -23.8 -23.1 -17.35 -28.0 -10.85 -33.0 -0.2 -33.0 9.8 -33.0 12.95 -29.7 14.75 -28.0 14.75 -24.3 L14.75 -23.75" fill="#b1b1b1" fill-rule="evenodd" stroke="none"/>
    <path d="M10.7 -10.65 L10.25 -9.5 21.65 -13.7 21.8 -13.75 23.15 -14.15 23.1 -14.15 24.9 -14.5 Q28.95 -14.7 30.15 -7.85 L30.6 -3.45 30.45 3.6 29.9 9.8 Q29.1 18.05 20.7 25.25 11.7 33.0 0.5 33.0 -12.85 33.0 -21.25 24.25 -28.05 17.25 -30.0 6.15 L-30.6 -1.75 -30.6 -2.1 -30.6 -2.4 Q-30.45 -7.0 -28.5 -12.1 -26.9 -16.45 -26.1 -17.4 -23.8 -22.1 -17.35 -27.0 -10.85 -32.0 -0.2 -32.0 9.8 -32.0 12.95 -28.7 14.65 -27.1 14.75 -23.75 L14.65 -22.6 14.65 -22.7 Q14.45 -21.45 10.25 -10.5 L10.7 -10.65" fill="#e5e5e5" fill-rule="evenodd" stroke="none"/>
  </g>
</svg>
