<?xml version="1.0" encoding="UTF-8" standalone="no"?>
<svg xmlns:ffdec="https://www.free-decompiler.com/flash" xmlns:xlink="http://www.w3.org/1999/xlink" ffdec:objectType="shape" height="83.45px" width="104.05px" xmlns="http://www.w3.org/2000/svg">
  <g transform="matrix(1.0, 0.0, 0.0, 1.0, 59.55, 55.9)">
    <path d="M-44.95 -28.8 L-46.75 -29.05 -47.95 -28.75 Q-48.7 -27.95 -49.35 -27.95 -49.7 -27.95 -57.6 -31.9 L-58.7 -33.1 Q-59.55 -34.45 -59.55 -35.9 -59.55 -37.65 -58.95 -39.05 -58.0 -41.35 -55.7 -41.65 -53.6 -41.9 -51.7 -43.1 -49.6 -44.35 -47.25 -46.95 -45.0 -49.4 -42.1 -51.0 -38.65 -52.95 -35.35 -53.15 L-29.1 -54.55 Q-22.35 -55.9 -16.8 -55.9 -12.5 -55.9 -7.65 -53.95 L-1.8 -51.2 Q0.7 -50.15 5.2 -50.05 L10.8 -50.0 Q14.9 -49.5 18.95 -45.35 22.75 -41.45 23.5 -37.85 24.2 -34.7 26.9 -31.8 L32.05 -27.1 Q35.05 -24.45 35.1 -21.15 35.45 -12.05 38.3 -8.05 40.3 -5.3 44.0 -4.6 L44.5 -4.35 Q43.4 -3.75 41.7 -3.05 39.2 -2.05 37.75 -2.05 L35.45 -2.55 34.35 -3.15 Q35.1 -0.95 34.85 0.95 L34.45 5.75 Q34.45 11.95 37.4 12.15 L39.7 12.05 Q40.9 12.0 41.3 12.9 37.6 17.0 32.2 17.0 30.4 17.0 28.4 16.0 L23.55 22.0 25.4 24.5 27.45 27.1 Q26.05 28.25 23.1 26.45 19.8 24.4 19.8 20.2 19.8 19.15 22.9 15.2 20.9 14.4 20.2 12.8 18.95 9.8 15.55 6.05 L13.65 6.35 11.65 5.85 Q10.35 5.4 9.5 4.75 L9.8 4.3 Q11.65 5.05 12.3 5.05 L16.75 4.9 Q19.95 4.9 22.7 6.4 25.65 8.0 25.65 10.1 25.65 12.6 23.45 16.35 21.25 20.1 21.25 21.45 L21.7 22.75 Q22.35 24.1 23.3 25.05 L24.45 25.75 23.1 24.2 Q22.0 22.4 22.95 20.65 25.25 18.1 27.35 14.4 29.3 10.9 29.3 9.7 29.3 6.25 26.2 3.5 22.15 -0.15 14.6 0.0 L15.7 -0.3 17.5 -0.65 Q24.0 -0.65 27.6 3.15 30.5 6.15 30.5 9.75 30.5 13.15 29.1 14.95 30.2 15.75 31.85 15.75 36.25 15.75 38.0 14.15 L39.0 13.5 Q33.5 13.2 33.15 8.85 33.85 2.95 33.85 -0.2 33.85 -3.9 29.95 -6.25 25.45 -8.15 24.35 -8.8 25.7 -8.85 29.0 -7.7 L32.1 -6.5 34.65 -4.95 Q37.3 -3.45 38.2 -3.45 L39.8 -3.6 41.0 -4.15 Q38.25 -5.35 36.35 -9.45 34.15 -14.05 34.3 -20.0 34.35 -24.05 31.5 -26.5 29.2 -28.55 24.1 -30.05 24.25 -30.45 25.9 -30.6 24.0 -33.5 20.6 -40.8 18.8 -44.65 15.25 -46.8 11.8 -48.85 8.0 -49.0 L-0.35 -49.3 -1.95 -49.65 4.1 -44.7 0.8 -45.55 Q-5.0 -51.1 -8.0 -52.75 -11.8 -54.85 -17.25 -54.85 -29.45 -54.85 -35.85 -49.25 L-37.6 -48.0 -39.25 -46.45 -36.65 -50.3 -34.65 -51.95 Q-41.35 -51.15 -44.7 -47.3 -47.4 -44.2 -47.4 -39.7 -47.4 -36.9 -45.65 -34.5 L-42.1 -29.2 -42.2 -28.8 -43.3 -28.8 Q-45.35 -30.45 -47.5 -34.7 -49.05 -37.9 -50.2 -39.5 L-50.15 -39.6 Q-50.25 -40.1 -51.25 -40.75 L-53.75 -41.2 Q-55.55 -41.2 -56.9 -39.2 -58.0 -37.6 -58.0 -36.5 -58.0 -34.9 -57.2 -33.1 L-51.95 -30.6 Q-50.0 -29.75 -48.85 -30.05 L-52.65 -32.8 Q-55.6 -35.0 -55.3 -36.9 -55.15 -37.95 -54.0 -37.95 -52.1 -37.95 -49.15 -34.9 -47.35 -33.1 -46.2 -31.25 L-46.15 -31.25 -46.15 -31.2 -44.95 -28.8 M-49.0 -41.35 L-48.1 -44.55 -49.2 -43.55 -49.95 -42.15 -49.0 -41.35 M-48.25 -32.4 Q-50.35 -34.75 -52.15 -36.1 L-53.35 -36.7 -54.1 -36.65 Q-54.55 -36.25 -54.1 -35.4 -53.7 -34.55 -50.65 -32.75 -48.6 -31.55 -47.25 -31.3 L-48.25 -32.4 M19.05 6.35 L17.45 6.0 Q19.05 7.25 20.85 10.4 L22.8 13.85 23.45 14.35 Q26.0 10.9 23.95 8.5 22.25 6.6 19.05 6.35" fill="#606060" fill-rule="evenodd" stroke="none"/>
    <path d="M8.7 4.3 L8.15 3.5 14.05 1.45 14.6 1.15 11.35 0.35 8.25 -0.3 9.05 -2.15 Q10.4 -3.95 13.1 -4.75 L16.5 -5.3 Q20.3 -5.3 23.3 -3.75 25.85 -2.45 26.45 -2.65 24.55 -5.4 21.4 -7.1 17.7 -9.1 10.8 -10.55 L10.65 -11.45 18.05 -11.95 Q17.3 -12.9 14.1 -13.95 10.7 -15.15 8.15 -15.1 L11.15 -18.1 Q15.0 -17.5 20.25 -13.75 25.1 -10.3 27.65 -10.3 29.55 -10.3 31.0 -11.55 32.55 -12.85 32.55 -14.75 L32.25 -16.3 31.45 -16.2 Q31.25 -14.45 30.25 -14.45 27.2 -14.45 25.2 -15.9 L18.95 -20.05 15.75 -21.4 Q19.25 -21.95 20.4 -22.6 21.65 -23.35 22.35 -25.4 L26.65 -21.45 27.0 -22.0 24.7 -24.95 Q22.75 -27.05 22.55 -28.65 L23.85 -28.65 Q25.9 -29.2 29.35 -25.9 32.4 -23.05 32.8 -21.65 33.15 -20.5 33.4 -14.75 33.7 -9.1 34.45 -6.9 L33.4 -7.35 Q26.45 -10.3 17.85 -10.8 18.25 -10.25 21.45 -8.95 25.0 -7.55 26.15 -6.55 L29.1 -3.8 Q30.25 -2.5 30.85 -1.0 31.45 0.5 31.55 2.9 L31.65 6.9 Q32.0 11.65 35.8 13.75 L35.1 14.15 34.75 14.2 Q33.15 13.8 32.75 13.3 32.4 12.8 31.5 7.9 31.1 5.55 29.5 3.15 L27.85 1.0 Q26.55 -0.65 21.75 -2.3 17.6 -3.7 16.0 -3.7 12.45 -3.65 12.45 -2.25 L12.45 -1.9 12.1 -0.4 Q12.1 -0.05 11.65 -0.05 L14.6 0.0 Q22.15 -0.15 26.2 3.5 29.3 6.25 29.3 9.7 29.3 10.9 27.35 14.4 25.25 18.1 22.95 20.65 L25.35 16.25 Q27.45 12.7 27.45 10.35 27.45 7.35 24.35 4.75 21.25 2.15 17.7 2.15 10.35 3.6 8.7 4.3 M4.95 -19.8 Q1.05 -22.85 -1.65 -23.5 L2.45 -24.95 Q3.0 -24.95 5.6 -23.7 8.8 -22.2 10.05 -21.75 8.7 -22.05 6.85 -21.05 5.75 -20.5 4.95 -19.8 M-4.4 -24.7 Q-7.95 -25.85 -10.55 -26.1 -10.0 -27.4 -8.75 -28.25 L-7.6 -28.8 Q-1.75 -27.7 0.4 -26.25 L-4.4 -24.7 M-13.25 -25.5 L-13.7 -25.55 -14.5 -25.8 Q-15.4 -28.65 -15.4 -29.85 -15.4 -31.9 -13.1 -33.1 -11.35 -34.0 -9.5 -34.0 -8.3 -34.0 -6.55 -33.3 -3.75 -32.2 -1.9 -29.75 L-4.7 -30.8 -7.15 -31.3 Q-10.0 -31.3 -11.7 -30.4 -13.7 -29.35 -13.7 -27.25 L-13.45 -26.0 -13.25 -25.5 M-16.5 -26.1 L-17.9 -26.55 Q-21.0 -29.15 -21.0 -31.1 -21.0 -32.5 -18.75 -34.6 -16.6 -36.6 -13.35 -37.2 L-10.5 -37.5 Q-10.5 -38.5 -8.85 -37.6 -13.05 -37.45 -15.55 -35.1 -17.7 -33.1 -17.7 -30.6 L-16.5 -26.1 M-22.65 -25.85 L-24.7 -25.65 Q-25.85 -31.6 -25.85 -33.8 -25.85 -38.8 -23.65 -42.05 -20.95 -46.1 -15.45 -46.1 L-11.65 -45.2 Q-8.55 -44.25 -7.75 -43.55 -5.05 -41.2 -0.35 -39.6 3.6 -38.3 4.9 -38.5 8.9 -39.15 12.4 -35.45 16.7 -30.8 18.5 -30.2 L17.3 -31.25 Q15.8 -32.55 14.3 -35.0 L12.25 -37.85 Q10.75 -39.0 8.05 -39.15 L3.7 -39.6 Q-2.4 -41.3 -7.45 -46.05 -11.4 -49.8 -17.1 -49.8 -22.2 -49.8 -25.45 -46.25 -28.5 -42.95 -29.65 -37.1 L-30.6 -38.45 -31.4 -41.1 -31.7 -43.3 Q-31.7 -47.0 -28.7 -49.75 L-25.45 -52.5 -25.5 -52.8 Q-29.25 -53.25 -32.8 -48.85 -36.15 -44.7 -36.15 -40.7 -36.15 -37.7 -35.35 -35.35 -34.35 -32.55 -33.15 -30.15 L-31.4 -26.7 -33.4 -27.35 Q-34.8 -27.9 -35.15 -28.15 L-34.3 -28.3 -37.15 -32.4 Q-39.45 -36.45 -39.45 -39.25 -39.45 -42.05 -38.9 -43.75 -38.2 -45.85 -35.85 -49.25 -29.45 -54.85 -17.25 -54.85 -11.8 -54.85 -8.0 -52.75 -5.0 -51.1 0.8 -45.55 1.8 -44.8 7.45 -43.35 L14.5 -41.5 Q15.25 -41.25 16.55 -39.25 18.05 -37.0 17.9 -35.4 L16.95 -36.0 Q15.8 -36.75 15.0 -38.55 L13.8 -40.7 Q12.75 -41.45 7.85 -41.95 2.3 -42.5 0.9 -42.95 -0.2 -43.3 -7.25 -48.4 -13.35 -52.8 -17.3 -52.8 -20.8 -52.8 -24.1 -50.9 -27.55 -48.95 -28.05 -46.45 L-26.45 -47.85 Q-19.95 -51.9 -17.8 -51.9 -14.5 -51.9 -12.25 -50.5 L-4.05 -44.75 Q-1.25 -42.85 2.2 -42.2 L11.85 -40.35 Q13.6 -39.95 15.2 -37.25 16.6 -34.5 16.9 -34.3 20.45 -31.6 20.45 -30.65 20.45 -28.85 19.0 -27.45 17.4 -25.9 14.75 -25.9 12.35 -25.9 9.9 -26.85 4.25 -29.05 -2.0 -35.5 -3.75 -37.35 -6.95 -38.15 L-11.05 -38.7 Q-15.85 -38.7 -19.85 -35.25 -23.9 -31.8 -22.65 -25.85 M-36.5 -28.4 L-37.4 -28.6 -40.4 -34.45 Q-41.85 -37.5 -41.85 -39.45 L-41.25 -44.15 -42.25 -42.5 Q-42.85 -40.7 -42.85 -39.1 -42.85 -38.5 -41.25 -34.25 L-38.85 -28.5 -39.2 -28.5 Q-41.65 -31.2 -43.7 -35.5 -45.4 -39.1 -45.4 -40.3 -45.4 -42.25 -43.25 -45.4 -40.55 -49.4 -36.65 -50.3 L-39.25 -46.45 Q-39.8 -44.85 -40.15 -42.3 L-40.5 -39.25 Q-40.5 -36.6 -38.65 -32.7 L-36.5 -28.4 M-57.2 -33.1 Q-58.0 -34.9 -58.0 -36.5 -58.0 -37.6 -56.9 -39.2 -55.55 -41.2 -53.75 -41.2 L-51.25 -40.75 Q-50.25 -40.1 -50.15 -39.6 L-50.2 -39.5 -50.5 -38.8 -50.35 -38.75 -50.95 -38.75 -52.2 -39.15 -53.45 -39.55 Q-55.25 -39.55 -55.9 -38.55 -56.8 -37.3 -57.2 -33.1 M5.05 -47.5 Q14.1 -46.7 17.1 -44.1 19.95 -41.7 22.1 -33.25 21.75 -33.65 18.1 -40.0 15.8 -44.1 12.1 -45.15 L7.7 -46.15 Q4.45 -46.9 3.7 -47.4 L5.05 -47.5 M0.3 -36.35 L-0.55 -36.1 5.2 -32.4 Q8.65 -30.05 11.85 -30.25 L10.9 -30.65 Q10.65 -30.75 6.15 -33.9 2.35 -36.6 0.3 -36.35 M28.3 -17.45 L23.45 -20.5 23.65 -19.85 Q25.2 -17.35 27.5 -17.05 L28.2 -17.2 28.3 -17.45 M31.1 -19.05 Q31.1 -21.45 29.75 -23.15 28.45 -24.85 26.1 -25.65 L27.5 -24.15 28.5 -22.05 Q29.3 -20.35 30.9 -18.9 L31.1 -19.05 M-13.0 -43.15 Q-19.25 -43.15 -23.05 -36.75 -20.75 -38.45 -16.85 -40.25 -13.25 -41.9 -12.35 -41.9 L-6.45 -40.75 -9.85 -42.5 Q-11.4 -43.15 -13.0 -43.15" fill="#d1d1d1" fill-rule="evenodd" stroke="none"/>
    <path d="M9.5 4.75 L8.95 4.65 8.7 4.3 Q10.35 3.6 17.7 2.15 21.25 2.15 24.35 4.75 27.45 7.35 27.45 10.35 27.45 12.7 25.35 16.25 L22.95 20.65 Q22.0 22.4 23.1 24.2 L24.45 25.75 23.3 25.05 Q22.35 24.1 21.7 22.75 L21.25 21.45 Q21.25 20.1 23.45 16.35 25.65 12.6 25.65 10.1 25.65 8.0 22.7 6.4 19.95 4.9 16.75 4.9 L12.3 5.05 Q11.65 5.05 9.8 4.3 L9.5 4.75 M8.15 -15.1 Q6.6 -16.95 6.5 -17.5 L9.15 -18.5 11.05 -19.1 13.2 -18.85 Q15.2 -18.15 19.8 -15.45 L24.9 -12.35 Q26.55 -11.45 28.6 -11.45 29.2 -11.45 29.65 -11.9 L30.5 -12.75 31.15 -13.5 Q30.35 -13.05 29.35 -13.05 26.15 -13.05 23.85 -14.7 21.9 -16.1 18.95 -20.05 L25.2 -15.9 Q27.2 -14.45 30.25 -14.45 31.25 -14.45 31.45 -16.2 L32.25 -16.3 32.55 -14.75 Q32.55 -12.85 31.0 -11.55 29.55 -10.3 27.65 -10.3 25.1 -10.3 20.25 -13.75 15.0 -17.5 11.15 -18.1 L8.15 -15.1 M-1.65 -23.5 L-4.4 -24.7 0.4 -26.25 Q-1.75 -27.7 -7.6 -28.8 L-8.75 -28.25 Q-10.0 -27.4 -10.55 -26.1 -10.85 -25.8 -13.25 -25.5 L-13.45 -26.0 -13.7 -27.25 Q-13.7 -29.35 -11.7 -30.4 -10.0 -31.3 -7.15 -31.3 L-4.7 -30.8 -1.9 -29.75 Q-0.95 -29.0 0.0 -28.4 L0.1 -27.8 Q0.1 -27.1 3.05 -25.65 5.75 -24.35 7.5 -23.9 10.65 -23.05 13.3 -23.05 19.15 -23.05 20.35 -24.5 21.05 -25.3 21.25 -26.95 L21.1 -27.8 Q20.1 -26.65 18.45 -25.75 16.9 -24.9 16.1 -24.9 9.05 -24.9 1.75 -30.35 L-3.7 -34.6 Q-6.65 -36.85 -8.85 -37.6 -10.5 -38.5 -10.5 -37.5 L-13.35 -37.2 Q-16.6 -36.6 -18.75 -34.6 -21.0 -32.5 -21.0 -31.1 -21.0 -29.15 -17.9 -26.55 -18.6 -26.25 -19.6 -26.1 L-22.65 -25.85 Q-23.9 -31.8 -19.85 -35.25 -15.85 -38.7 -11.05 -38.7 L-6.95 -38.15 Q-3.75 -37.35 -2.0 -35.5 4.25 -29.05 9.9 -26.85 12.35 -25.9 14.75 -25.9 17.4 -25.9 19.0 -27.45 20.45 -28.85 20.45 -30.65 20.45 -31.6 16.9 -34.3 16.6 -34.5 15.2 -37.25 13.6 -39.95 11.85 -40.35 L2.2 -42.2 Q-1.25 -42.85 -4.05 -44.75 L-12.25 -50.5 Q-14.5 -51.9 -17.8 -51.9 -19.95 -51.9 -26.45 -47.85 L-28.05 -46.45 Q-27.55 -48.95 -24.1 -50.9 -20.8 -52.8 -17.3 -52.8 -13.35 -52.8 -7.25 -48.4 -0.2 -43.3 0.9 -42.95 2.3 -42.5 7.85 -41.95 12.75 -41.45 13.8 -40.7 L15.0 -38.55 Q15.8 -36.75 16.95 -36.0 L17.9 -35.4 Q18.05 -37.0 16.55 -39.25 15.25 -41.25 14.5 -41.5 L7.45 -43.35 Q1.8 -44.8 0.8 -45.55 L4.1 -44.7 -1.95 -49.65 -0.35 -49.3 8.0 -49.0 Q11.8 -48.85 15.25 -46.8 18.8 -44.65 20.6 -40.8 24.0 -33.5 25.9 -30.6 24.25 -30.45 24.1 -30.05 29.2 -28.55 31.5 -26.5 34.35 -24.05 34.3 -20.0 34.15 -14.05 36.35 -9.45 38.25 -5.35 41.0 -4.15 L39.8 -3.6 38.2 -3.45 Q37.3 -3.45 34.65 -4.95 L32.1 -6.5 29.0 -7.7 Q25.7 -8.85 24.35 -8.8 25.45 -8.15 29.95 -6.25 33.85 -3.9 33.85 -0.2 33.85 2.95 33.15 8.85 33.5 13.2 39.0 13.5 L38.0 14.15 Q36.25 15.75 31.85 15.75 30.2 15.75 29.1 14.95 30.5 13.15 30.5 9.75 30.5 6.15 27.6 3.15 24.0 -0.65 17.5 -0.65 L15.7 -0.3 14.6 0.0 11.65 -0.05 Q12.1 -0.05 12.1 -0.4 L12.45 -1.9 12.45 -2.25 Q12.45 -3.65 16.0 -3.7 17.6 -3.7 21.75 -2.3 26.55 -0.65 27.85 1.0 L29.5 3.15 Q31.1 5.55 31.5 7.9 32.4 12.8 32.75 13.3 33.15 13.8 34.75 14.2 L35.1 14.15 35.8 13.75 Q32.0 11.65 31.65 6.9 L31.55 2.9 Q31.45 0.5 30.85 -1.0 30.25 -2.5 29.1 -3.8 L26.15 -6.55 Q25.0 -7.55 21.45 -8.95 18.25 -10.25 17.85 -10.8 26.45 -10.3 33.4 -7.35 L34.45 -6.9 Q33.7 -9.1 33.4 -14.75 33.15 -20.5 32.8 -21.65 32.4 -23.05 29.35 -25.9 25.9 -29.2 23.85 -28.65 L22.55 -28.65 Q22.75 -27.05 24.7 -24.95 L27.0 -22.0 26.65 -21.45 22.35 -25.4 Q21.65 -23.35 20.4 -22.6 19.25 -21.95 15.75 -21.4 L10.05 -21.75 Q8.8 -22.2 5.6 -23.7 3.0 -24.95 2.45 -24.95 L-1.65 -23.5 M-35.15 -28.15 L-35.2 -28.15 -35.25 -28.2 -35.3 -28.2 -36.5 -28.4 -38.65 -32.7 Q-40.5 -36.6 -40.5 -39.25 L-40.15 -42.3 Q-39.8 -44.85 -39.25 -46.45 L-37.6 -48.0 -35.85 -49.25 Q-38.2 -45.85 -38.9 -43.75 -39.45 -42.05 -39.45 -39.25 -39.45 -36.45 -37.15 -32.4 L-34.3 -28.3 -35.15 -28.15 M-39.2 -28.5 L-40.45 -28.7 -42.2 -28.8 -42.1 -29.2 -45.65 -34.5 Q-47.4 -36.9 -47.4 -39.7 -47.4 -44.2 -44.7 -47.3 -41.35 -51.15 -34.65 -51.95 L-36.65 -50.3 Q-40.55 -49.4 -43.25 -45.4 -45.4 -42.25 -45.4 -40.3 -45.4 -39.1 -43.7 -35.5 -41.65 -31.2 -39.2 -28.5 M-43.3 -28.8 L-44.95 -28.8 -46.15 -31.2 -46.15 -31.25 -46.2 -31.25 Q-47.35 -33.1 -49.15 -34.9 -52.1 -37.95 -54.0 -37.95 -55.15 -37.95 -55.3 -36.9 -55.6 -35.0 -52.65 -32.8 L-48.85 -30.05 Q-50.0 -29.75 -51.95 -30.6 L-57.2 -33.1 Q-56.8 -37.3 -55.9 -38.55 -55.25 -39.55 -53.45 -39.55 L-52.2 -39.15 -50.95 -38.75 -50.35 -38.75 -50.5 -38.8 -50.2 -39.5 Q-49.05 -37.9 -47.5 -34.7 -45.35 -30.45 -43.3 -28.8 M5.05 -47.5 L3.7 -47.4 Q4.45 -46.9 7.7 -46.15 L12.1 -45.15 Q15.8 -44.1 18.1 -40.0 21.75 -33.65 22.1 -33.25 19.95 -41.7 17.1 -44.1 14.1 -46.7 5.05 -47.5 M-49.0 -41.35 L-49.95 -42.15 -49.2 -43.55 -48.1 -44.55 -49.0 -41.35 M19.05 6.35 Q22.25 6.6 23.95 8.5 26.0 10.9 23.45 14.35 L22.8 13.85 20.85 10.4 Q19.05 7.25 17.45 6.0 L19.05 6.35" fill="#989898" fill-rule="evenodd" stroke="none"/>
    <path d="M8.15 3.5 L8.25 -0.3 11.35 0.35 14.6 1.15 14.05 1.45 8.15 3.5 M9.05 -2.15 Q9.8 -3.6 9.9 -4.9 L9.9 -6.65 Q9.9 -7.85 10.8 -10.55 17.7 -9.1 21.4 -7.1 24.55 -5.4 26.45 -2.65 25.85 -2.45 23.3 -3.75 20.3 -5.3 16.5 -5.3 L13.1 -4.75 Q10.4 -3.95 9.05 -2.15 M10.65 -11.45 Q9.2 -14.45 8.15 -15.1 10.7 -15.15 14.1 -13.95 17.3 -12.9 18.05 -11.95 L10.65 -11.45 M6.5 -17.5 L4.95 -19.8 Q5.75 -20.5 6.85 -21.05 8.7 -22.05 10.05 -21.75 L15.75 -21.4 18.95 -20.05 Q21.9 -16.1 23.85 -14.7 26.15 -13.05 29.35 -13.05 30.35 -13.05 31.15 -13.5 L30.5 -12.75 29.65 -11.9 Q29.2 -11.45 28.6 -11.45 26.55 -11.45 24.9 -12.35 L19.8 -15.45 Q15.2 -18.15 13.2 -18.85 L11.05 -19.1 9.15 -18.5 6.5 -17.5 M-14.5 -25.8 L-16.5 -26.1 -17.7 -30.6 Q-17.7 -33.1 -15.55 -35.1 -13.05 -37.45 -8.85 -37.6 -6.65 -36.85 -3.7 -34.6 L1.75 -30.35 Q9.05 -24.9 16.1 -24.9 16.9 -24.9 18.45 -25.75 20.1 -26.65 21.1 -27.8 L21.25 -26.95 Q21.05 -25.3 20.35 -24.5 19.15 -23.05 13.3 -23.05 10.65 -23.05 7.5 -23.9 5.75 -24.35 3.05 -25.65 0.1 -27.1 0.1 -27.8 L0.0 -28.4 Q-0.95 -29.0 -1.9 -29.75 -3.75 -32.2 -6.55 -33.3 -8.3 -34.0 -9.5 -34.0 -11.35 -34.0 -13.1 -33.1 -15.4 -31.9 -15.4 -29.85 -15.4 -28.65 -14.5 -25.8 M-24.7 -25.65 Q-28.9 -24.85 -31.4 -26.7 L-33.15 -30.15 Q-34.35 -32.55 -35.35 -35.35 -36.15 -37.7 -36.15 -40.7 -36.15 -44.7 -32.8 -48.85 -29.25 -53.25 -25.5 -52.8 L-25.45 -52.5 -28.7 -49.75 Q-31.7 -47.0 -31.7 -43.3 L-31.4 -41.1 -30.6 -38.45 -29.65 -37.1 Q-28.5 -42.95 -25.45 -46.25 -22.2 -49.8 -17.1 -49.8 -11.4 -49.8 -7.45 -46.05 -2.4 -41.3 3.7 -39.6 L8.05 -39.15 Q10.75 -39.0 12.25 -37.85 L14.3 -35.0 Q15.8 -32.55 17.3 -31.25 L18.5 -30.2 Q16.7 -30.8 12.4 -35.45 8.9 -39.15 4.9 -38.5 3.6 -38.3 -0.35 -39.6 -5.05 -41.2 -7.75 -43.55 -8.55 -44.25 -11.65 -45.2 L-15.45 -46.1 Q-20.95 -46.1 -23.65 -42.05 -25.85 -38.8 -25.85 -33.8 -25.85 -31.6 -24.7 -25.65 M-37.4 -28.6 L-38.85 -28.5 -41.25 -34.25 Q-42.85 -38.5 -42.85 -39.1 -42.85 -40.7 -42.25 -42.5 L-41.25 -44.15 -41.85 -39.45 Q-41.85 -37.5 -40.4 -34.45 L-37.4 -28.6 M0.3 -36.35 Q2.35 -36.6 6.15 -33.9 10.65 -30.75 10.9 -30.65 L11.85 -30.25 Q8.65 -30.05 5.2 -32.4 L-0.55 -36.1 0.3 -36.35 M31.1 -19.05 L30.9 -18.9 Q29.3 -20.35 28.5 -22.05 L27.5 -24.15 26.1 -25.65 Q28.45 -24.85 29.75 -23.15 31.1 -21.45 31.1 -19.05 M28.3 -17.45 L28.2 -17.2 27.5 -17.05 Q25.2 -17.35 23.65 -19.85 L23.45 -20.5 28.3 -17.45 M-13.0 -43.15 Q-11.4 -43.15 -9.85 -42.5 L-6.45 -40.75 -12.35 -41.9 Q-13.25 -41.9 -16.85 -40.25 -20.75 -38.45 -23.05 -36.75 -19.25 -43.15 -13.0 -43.15" fill="#ffffff" fill-rule="evenodd" stroke="none"/>
  </g>
</svg>
