<?xml version="1.0" encoding="UTF-8" standalone="no"?>
<svg xmlns:ffdec="https://www.free-decompiler.com/flash" xmlns:xlink="http://www.w3.org/1999/xlink" ffdec:objectType="shape" height="108.55px" width="57.85px" xmlns="http://www.w3.org/2000/svg">
  <g transform="matrix(1.0, 0.0, 0.0, 1.0, 59.7, 26.5)">
    <path d="M-23.9 -15.55 L-20.75 -18.45 Q-18.85 -19.95 -18.05 -21.25 L-17.95 -20.95 -18.3 -20.3 Q-18.35 -19.8 -17.9 -20.1 -17.5 -20.5 -17.55 -20.0 L-18.05 -17.6 -18.75 -12.5 Q-12.7 -16.4 -11.9 -16.3 L-11.15 -16.05 -11.2 -15.95 -12.4 -11.45 -14.25 -4.7 -13.25 -5.3 -12.15 -5.5 -11.5 -5.3 -11.6 -5.05 Q-11.8 -3.15 -14.4 4.2 L-17.0 11.95 Q-17.55 17.2 -17.3 24.05 L-16.85 32.0 -15.6 42.9 Q-18.75 39.15 -20.85 28.8 L-21.7 23.6 Q-22.7 16.1 -21.6 10.6 L-21.95 10.55 -22.85 16.05 -23.55 23.4 Q-24.6 35.45 -23.95 38.75 L-23.3 40.9 Q-23.05 42.2 -23.4 45.45 -23.55 47.2 -24.05 48.65 L-27.3 55.8 Q-29.45 60.45 -34.55 65.9 -40.1 71.65 -42.8 71.35 -43.8 71.25 -43.35 71.15 L-43.35 70.7 Q-39.55 67.0 -35.65 57.2 -31.7 47.3 -30.85 39.05 L-30.2 22.7 -29.15 0.95 Q-27.9 -10.9 -23.9 -15.55" fill="#ffffff" fill-rule="evenodd" stroke="none"/>
    <path d="M-23.9 -15.55 Q-27.9 -10.9 -29.15 0.95 L-30.2 22.7 -30.85 39.05 Q-31.7 47.3 -35.65 57.2 -39.55 67.0 -43.35 70.7 L-43.35 71.15 Q-43.8 71.25 -42.8 71.35 -40.1 71.65 -34.55 65.9 -29.45 60.45 -27.3 55.8 L-24.05 48.65 Q-23.55 47.2 -23.4 45.45 -23.05 42.2 -23.3 40.9 L-23.95 38.75 Q-24.6 35.45 -23.55 23.4 L-22.85 16.05 -21.95 10.55 -21.6 10.6 Q-22.7 16.1 -21.7 23.6 L-20.85 28.8 Q-18.75 39.15 -15.6 42.9 L-16.85 32.0 -17.3 24.05 Q-17.55 17.2 -17.0 11.95 L-14.4 4.2 Q-11.8 -3.15 -11.6 -5.05 L-11.5 -5.3 -12.15 -5.5 -13.25 -5.3 -14.25 -4.7 -12.4 -11.45 -11.2 -15.95 -11.15 -16.05 -11.9 -16.3 Q-12.7 -16.4 -18.75 -12.5 L-18.05 -17.6 -17.55 -20.0 Q-17.5 -20.5 -17.9 -20.1 -18.35 -19.8 -18.3 -20.3 L-17.95 -20.95 -18.05 -21.25 Q-18.85 -19.95 -20.75 -18.45 L-23.9 -15.55 M-31.65 -7.85 Q-30.95 -14.7 -24.95 -19.55 -19.3 -24.05 -13.6 -23.45 -10.55 -23.15 -10.75 -21.1 L-11.4 -19.4 -12.1 -18.0 -9.25 -18.7 -6.75 -18.45 Q-6.8 -17.9 -8.5 -14.8 L-11.2 -9.7 -10.95 -9.7 -8.2 -10.55 -6.95 -10.3 -6.3 -10.05 Q-6.1 -10.3 -6.2 -9.3 -8.05 -5.95 -10.05 -1.4 -14.05 7.8 -15.0 17.0 -15.3 19.75 -14.9 24.35 L-14.1 31.9 Q-12.65 42.0 -13.2 47.0 -13.4 49.15 -14.3 51.7 -15.4 54.9 -17.0 56.6 -16.95 53.05 -18.15 50.25 -19.05 47.9 -20.2 47.25 L-20.1 48.55 Q-21.9 61.55 -28.9 68.15 -35.6 74.5 -49.15 76.45 -44.95 69.8 -41.25 63.0 -33.95 49.6 -34.15 44.45 L-40.6 56.15 Q-44.4 62.25 -47.6 61.9 -48.55 61.8 -48.3 61.4 -42.65 57.45 -37.25 45.1 -32.5 34.2 -31.7 26.8 L-31.55 22.6 -31.5 20.0 -31.5 9.25 -31.65 -7.85" fill="#d1d1d1" fill-rule="evenodd" stroke="none"/>
    <path d="M-31.65 -7.85 L-31.5 9.25 -31.5 20.0 -31.55 22.6 -31.7 26.8 Q-32.5 34.2 -37.25 45.1 -42.65 57.45 -48.3 61.4 -48.55 61.8 -47.6 61.9 -44.4 62.25 -40.6 56.15 L-34.15 44.45 Q-33.95 49.6 -41.25 63.0 -44.95 69.8 -49.15 76.45 -35.6 74.5 -28.9 68.15 -21.9 61.55 -20.1 48.55 L-20.2 47.25 Q-19.05 47.9 -18.15 50.25 -16.95 53.05 -17.0 56.6 -15.4 54.9 -14.3 51.7 -13.4 49.15 -13.2 47.0 -12.65 42.0 -14.1 31.9 L-14.9 24.35 Q-15.3 19.75 -15.0 17.0 -14.05 7.8 -10.05 -1.4 -8.05 -5.95 -6.2 -9.3 -6.1 -10.3 -6.3 -10.05 L-6.95 -10.3 -8.2 -10.55 -10.95 -9.7 -11.2 -9.7 -8.5 -14.8 Q-6.8 -17.9 -6.75 -18.45 L-9.25 -18.7 -12.1 -18.0 -11.4 -19.4 -10.75 -21.1 Q-10.55 -23.15 -13.6 -23.45 -19.3 -24.05 -24.95 -19.55 -30.95 -14.7 -31.65 -7.85 M-4.7 -17.7 Q-3.1 -6.75 -8.15 4.35 -10.05 8.5 -10.6 13.15 -11.35 18.9 -11.45 24.7 -11.6 30.85 -11.0 37.0 -9.85 48.9 -14.2 59.95 -15.0 62.1 -16.15 64.25 -16.8 61.45 -18.75 59.55 L-19.2 59.3 Q-22.5 66.55 -28.55 71.85 -32.7 75.55 -38.3 77.25 -46.45 79.65 -55.1 80.4 -47.9 74.1 -44.3 65.15 -43.9 64.05 -43.85 62.8 L-48.8 63.25 -52.75 63.85 -55.55 63.85 Q-46.45 58.9 -41.65 49.7 -35.65 37.7 -34.15 24.3 L-33.95 22.35 Q-32.9 11.5 -33.4 0.45 -34.3 -15.6 -21.2 -23.85 -18.2 -25.85 -14.7 -24.7 -8.5 -23.0 -4.7 -17.7 M-42.55 46.15 L-46.95 54.0 -51.35 50.35 -46.9 48.45 Q-44.65 47.4 -42.55 46.15" fill="#989898" fill-rule="evenodd" stroke="none"/>
    <path d="M-6.15 -23.5 Q-3.6 -21.95 -2.75 -19.3 -0.4 -11.75 -4.05 -3.75 -10.25 9.9 -9.4 24.9 L-9.3 26.35 Q-8.45 37.7 -9.05 48.85 -9.7 60.8 -17.65 67.6 L-17.65 67.45 Q-17.65 64.7 -18.65 61.9 L-18.9 61.25 Q-21.65 71.25 -31.2 75.65 -44.7 81.9 -59.7 82.05 L-59.7 80.9 Q-49.7 75.8 -45.25 64.65 -49.25 66.25 -53.9 65.8 -56.85 66.0 -58.3 63.9 L-58.35 63.45 -56.35 62.3 Q-51.45 59.65 -47.9 55.2 L-49.05 54.55 Q-51.8 53.1 -53.2 50.75 L-53.65 49.5 -50.65 48.45 Q-45.65 46.25 -41.1 42.75 -38.25 35.7 -36.55 28.45 L-35.35 22.2 Q-34.05 13.15 -34.95 4.1 -36.25 -8.9 -29.15 -19.3 -22.15 -29.45 -10.0 -25.3 -8.0 -24.6 -6.15 -23.5 M-42.55 46.15 Q-44.65 47.4 -46.9 48.45 L-51.35 50.35 -46.95 54.0 -42.55 46.15 M-4.7 -17.7 Q-8.5 -23.0 -14.7 -24.7 -18.2 -25.85 -21.2 -23.85 -34.3 -15.6 -33.4 0.45 -32.9 11.5 -33.95 22.35 L-34.15 24.3 Q-35.65 37.7 -41.65 49.7 -46.45 58.9 -55.55 63.85 L-52.75 63.85 -48.8 63.25 -43.85 62.8 Q-43.9 64.05 -44.3 65.15 -47.9 74.1 -55.1 80.4 -46.45 79.65 -38.3 77.25 -32.7 75.55 -28.55 71.85 -22.5 66.55 -19.2 59.3 L-18.75 59.55 Q-16.8 61.45 -16.15 64.25 -15.0 62.1 -14.2 59.95 -9.85 48.9 -11.0 37.0 -11.6 30.85 -11.45 24.7 -11.35 18.9 -10.6 13.15 -10.05 8.5 -8.15 4.35 -3.1 -6.75 -4.7 -17.7" fill="#606060" fill-rule="evenodd" stroke="none"/>
  </g>
</svg>
