<?xml version="1.0" encoding="UTF-8" standalone="no"?>
<svg xmlns:ffdec="https://www.free-decompiler.com/flash" xmlns:xlink="http://www.w3.org/1999/xlink" ffdec:objectType="shape" height="169.25px" width="86.45px" xmlns="http://www.w3.org/2000/svg">
  <g transform="matrix(1.0, 0.0, 0.0, 1.0, 36.4, 134.8)">
    <path d="M23.7 -25.35 L24.7 -25.65 24.8 -23.4 25.1 -17.25 25.05 -17.25 25.1 -16.45 25.0 -16.1 Q24.85 -15.95 24.65 -15.95 L24.3 -16.05 24.1 -16.4 24.1 -17.0 23.7 -25.15 23.7 -25.35 M8.5 -16.15 L8.5 -15.25 8.5 -14.15 8.35 -13.8 8.0 -13.65 7.9 -13.65 7.85 -13.7 Q7.75 -13.7 7.65 -13.8 L7.5 -14.15 7.5 -15.25 7.5 -21.25 7.5 -23.05 7.5 -23.1 7.9 -23.1 8.5 -23.1 8.5 -16.15 M17.95 -16.1 L18.95 -16.2 19.35 -14.95 21.0 -9.05 Q24.0 2.1 25.8 13.3 L29.3 12.7 29.55 12.65 29.9 12.55 36.9 10.8 37.1 10.75 38.45 10.3 Q48.95 6.75 49.05 2.05 L49.0 1.45 Q48.85 0.5 48.4 -0.3 41.05 -12.8 34.25 -23.2 L34.35 -23.6 34.1 -25.35 Q41.35 -14.25 49.25 -0.8 49.85 0.2 50.0 1.3 L50.05 2.05 Q50.15 7.55 38.35 11.4 37.1 20.2 29.45 26.75 20.4 34.45 7.6 34.45 -5.25 34.45 -14.25 26.75 -21.1 20.9 -22.75 13.3 L-23.35 13.1 Q-36.5 8.5 -36.4 2.05 -36.4 0.1 -35.2 -1.65 L-35.25 -1.6 Q-30.25 -12.75 -23.85 -22.75 L-23.3 -21.75 Q-29.5 -12.0 -34.35 -1.2 L-34.35 -1.1 Q-35.4 0.4 -35.4 2.05 -35.3 7.9 -23.0 12.15 L-23.05 12.15 -23.0 12.15 -21.35 12.7 -18.25 13.55 -8.95 15.4 7.55 16.45 23.55 15.5 Q24.9 15.25 24.9 14.15 L24.85 13.95 24.7 12.9 Q22.5 -0.85 18.4 -14.6 L18.45 -14.6 18.2 -15.35 18.1 -15.65 17.95 -16.1 M29.25 -26.8 L30.1 -18.7 30.15 -18.3 30.15 -18.25 30.05 -17.85 29.7 -17.7 29.35 -17.8 29.2 -18.0 29.15 -18.1 29.15 -18.15 28.5 -24.55 28.25 -26.75 29.25 -27.1 29.25 -26.8 M2.15 -23.05 L2.2 -23.05 2.4 -23.0 2.45 -23.0 2.5 -23.0 2.8 -23.0 2.95 -23.0 3.05 -23.0 3.15 -23.0 3.1 -21.2 3.0 -14.95 3.0 -14.25 2.85 -13.95 2.5 -13.8 2.2 -13.9 2.15 -13.95 2.0 -14.3 2.05 -15.25 2.15 -23.05 M28.5 25.6 Q35.4 19.7 36.75 11.9 31.7 13.4 25.9 14.3 25.9 16.05 23.75 16.5 L7.55 17.45 Q-8.95 17.45 -21.1 13.8 -19.35 20.45 -13.3 25.6 -4.65 32.95 7.6 32.95 19.8 32.95 28.5 25.6 M-22.25 -27.65 L-21.55 -27.35 -21.25 -27.25 -22.6 -19.8 -22.65 -19.6 -22.8 -19.5 -23.15 -19.4 -23.5 -19.6 -23.6 -19.95 -23.3 -21.7 -22.25 -27.65 M-19.4 -19.0 L-19.6 -17.9 -19.8 -17.6 -20.2 -17.5 -20.5 -17.7 -20.6 -18.1 -19.15 -25.7 -19.1 -20.65 -19.25 -19.8 -19.4 -19.0" fill="#090909" fill-rule="evenodd" stroke="none"/>
    <path d="M22.4 -25.05 L23.7 -25.35 23.7 -25.15 22.4 -25.05 M29.25 -27.1 L29.45 -27.15 29.5 -27.15 29.6 -27.2 29.65 -27.25 29.65 -27.15 29.65 -27.1 29.25 -26.8 29.25 -27.1" fill="#36271d" fill-rule="evenodd" stroke="none"/>
    <path d="M29.95 -27.35 L30.0 -27.4 29.65 -27.15 29.65 -27.25 29.95 -27.35" fill="#493527" fill-rule="evenodd" stroke="none"/>
    <path d="M28.5 -24.55 L29.15 -18.15 29.15 -18.1 28.1 -17.65 25.1 -17.25 24.8 -23.4 Q26.55 -23.75 28.5 -24.55 M-18.25 13.55 L-19.7 12.4 -21.3 10.8 -21.35 10.8 -21.7 10.35 -21.8 10.05 -21.75 9.75 Q-21.55 7.65 -18.25 -2.2 L-17.1 -5.7 -15.95 -9.25 -14.95 -12.3 -14.45 -13.65 -12.4 -13.45 -12.3 -13.35 -11.1 -13.15 -12.05 -13.3 -12.25 -12.35 -12.3 -11.95 -12.45 -10.3 -12.65 -8.0 Q-13.75 -2.95 -13.75 -1.2 -13.9 -0.3 -13.25 -0.3 -12.65 -0.3 -10.4 -7.0 L-8.55 -12.7 -7.15 -12.45 -1.25 -12.45 -1.3 -11.15 -1.05 -8.3 -1.05 -3.05 -0.8 0.8 Q-0.55 3.1 0.25 3.1 1.45 3.1 2.15 -12.45 L2.15 -12.7 Q2.0 -12.55 1.75 -12.5 L2.25 -12.9 2.25 -13.2 3.9 -13.05 7.9 -13.05 8.65 -5.9 9.3 -0.25 Q9.8 3.3 10.5 3.3 11.15 3.3 11.0 -0.95 L10.75 -9.15 10.7 -12.6 11.7 -12.5 11.95 -12.7 13.2 -12.75 13.25 -12.85 17.35 -13.5 17.65 -14.1 Q17.75 -14.35 18.25 -14.6 L18.4 -14.6 Q22.5 -0.85 24.7 12.9 L24.85 13.95 24.9 14.15 Q24.9 15.25 23.55 15.5 L7.55 16.45 -8.95 15.4 -18.25 13.55 M3.1 -21.2 L4.4 -21.15 7.5 -21.25 7.5 -15.25 5.0 -15.05 3.0 -14.95 3.1 -21.2 M-4.7 -10.9 Q-6.5 -10.9 -7.6 -8.0 L-9.0 -2.75 Q-10.9 4.65 -10.9 5.75 L-11.4 7.55 -11.9 9.85 -11.9 10.4 -11.85 10.5 -11.9 10.7 -11.65 11.15 -11.3 11.65 -8.95 12.45 -3.15 12.45 -2.0 11.4 Q-1.35 10.85 -0.65 10.85 L1.6 12.45 3.85 13.0 5.65 13.5 8.65 13.5 10.35 12.1 Q11.6 11.0 12.05 11.0 L14.4 12.5 15.0 12.5 15.35 12.6 15.8 12.5 18.6 12.5 19.85 12.05 20.2 12.05 Q21.4 12.05 21.65 11.2 L21.7 10.0 Q21.7 8.25 19.0 -1.85 L17.8 -7.85 Q17.6 -9.6 16.85 -10.95 15.75 -12.9 14.45 -10.35 L14.45 -5.7 14.35 -4.4 14.05 -0.65 13.2 3.8 Q12.35 6.85 10.8 6.85 9.05 6.85 8.15 3.75 L7.4 1.4 7.4 1.85 6.65 -7.9 Q5.5 -12.95 4.3 -9.55 3.75 -7.95 3.2 -4.4 L2.55 0.15 2.25 3.0 2.3 2.25 2.1 3.35 1.45 5.8 Q1.0 7.35 -0.15 8.25 L-1.2 8.25 Q-1.75 7.05 -2.5 3.65 L-2.95 1.6 -3.15 -0.7 -3.1 -6.5 Q-3.25 -10.9 -4.7 -10.9 M41.25 -3.7 L41.15 -3.35 40.85 -3.05 Q39.6 -3.05 38.15 -5.75 L36.2 -9.85 Q35.0 -11.5 34.1 -12.9 32.3 -15.6 32.3 -16.6 32.3 -23.1 41.25 -3.7 M21.6 -11.55 L20.5 -14.5 20.2 -15.3 20.5 -15.3 22.05 -15.45 22.7 -15.55 23.0 -15.0 23.95 -13.4 24.5 -12.5 26.15 -9.65 27.75 -5.9 Q28.7 -3.95 30.5 -2.4 L30.8 -3.0 Q30.8 -4.65 27.9 -10.1 L27.7 -10.45 26.8 -12.75 25.95 -15.1 25.55 -16.1 29.35 -16.85 Q30.05 -14.65 32.1 -11.35 L35.55 -5.9 36.85 -3.25 Q37.6 -1.6 38.55 -0.45 39.9 1.3 40.3 2.4 40.7 3.45 40.7 5.1 40.7 6.5 40.0 7.1 L38.55 7.95 37.05 8.7 36.4 9.0 Q33.7 9.85 32.8 10.35 L30.15 10.9 29.45 11.05 27.6 5.6 24.6 -2.8 21.6 -11.55 M32.15 8.45 L32.6 8.35 Q34.85 8.15 36.65 6.7 L37.0 6.4 38.15 4.9 38.2 4.8 38.25 4.35 Q38.25 2.65 35.25 -2.4 32.6 -6.85 32.3 -5.7 L32.25 -5.3 Q32.25 -4.2 33.75 -0.8 L33.3 0.05 Q32.9 1.25 32.7 1.25 32.05 1.25 31.05 0.45 L29.65 -0.65 28.6 -2.05 28.45 -2.2 28.15 -2.7 26.9 -4.75 Q25.65 -7.85 24.25 -8.3 24.65 -6.45 25.65 -3.95 L27.4 0.05 29.15 4.3 Q30.25 6.8 31.3 8.4 L32.15 8.45 M-20.65 -14.6 Q-20.15 -15.5 -19.6 -14.85 L-19.3 -14.4 Q-18.0 -14.25 -18.0 -12.6 -18.0 -9.85 -20.35 -3.6 L-21.05 -1.8 -22.55 1.85 -25.1 7.6 -25.55 7.35 Q-29.45 7.55 -29.45 3.05 -29.45 1.4 -27.7 -2.2 L-25.25 -6.8 Q-23.35 -9.9 -22.5 -11.75 L-20.95 -13.9 -20.65 -14.6 M-24.05 -14.55 L-23.95 -14.25 Q-23.95 -13.9 -25.3 -11.2 L-27.25 -7.45 Q-30.5 -0.8 -31.15 -0.8 -31.55 -0.8 -31.65 -1.5 -31.65 -2.5 -28.2 -8.25 L-26.05 -12.35 Q-24.7 -14.75 -24.05 -14.55 M-22.2 -5.7 Q-22.2 -8.7 -24.65 -4.2 -27.1 0.3 -27.1 2.3 -27.1 2.9 -26.45 3.55 L-25.7 3.6 Q-24.3 2.4 -23.15 -1.2 -22.2 -4.2 -22.2 -5.7 M-13.75 5.35 Q-13.75 4.2 -14.35 3.0 -15.0 1.7 -15.15 0.2 L-15.2 -2.45 Q-15.3 -3.8 -16.05 -2.9 -16.8 -2.1 -16.9 -1.4 -17.05 0.6 -18.35 4.65 L-19.65 9.0 Q-19.65 9.7 -19.25 10.2 -18.4 11.25 -16.05 11.25 -13.8 11.25 -13.7 10.15 L-14.05 8.45 -13.75 5.35" fill="#222222" fill-rule="evenodd" stroke="none"/>
    <path d="M24.7 -25.65 L27.25 -26.4 27.4 -26.45 28.25 -26.75 28.5 -24.55 Q26.55 -23.75 24.8 -23.4 L24.7 -25.65 M8.5 -15.25 L8.85 -15.25 13.7 -15.6 15.35 -15.8 16.35 -15.9 17.95 -16.1 18.1 -15.65 18.2 -15.35 18.45 -14.6 18.4 -14.6 18.25 -14.6 Q17.75 -14.35 17.65 -14.1 L17.35 -13.5 13.25 -12.85 13.2 -12.75 11.95 -12.7 11.7 -12.5 10.7 -12.6 10.75 -9.15 11.0 -0.95 Q11.15 3.3 10.5 3.3 9.8 3.3 9.3 -0.25 L8.65 -5.9 7.9 -13.05 3.9 -13.05 2.25 -13.2 2.25 -12.9 1.75 -12.5 Q2.0 -12.55 2.15 -12.7 L2.15 -12.45 Q1.45 3.1 0.25 3.1 -0.55 3.1 -0.8 0.8 L-1.05 -3.05 -1.05 -8.3 -1.3 -11.15 -1.25 -12.45 -7.15 -12.45 -8.55 -12.7 -10.4 -7.0 Q-12.65 -0.3 -13.25 -0.3 -13.9 -0.3 -13.75 -1.2 -13.75 -2.95 -12.65 -8.0 L-12.45 -10.3 -12.3 -11.95 -12.25 -12.35 -12.05 -13.3 -11.1 -13.15 -12.3 -13.35 -12.4 -13.45 -14.45 -13.65 -14.95 -12.3 -15.95 -9.25 -17.1 -5.7 -18.25 -2.2 Q-21.55 7.65 -21.75 9.75 L-21.8 10.05 -21.7 10.35 -21.35 10.8 -21.3 10.8 -19.7 12.4 -18.25 13.55 -21.35 12.7 -23.0 12.15 -23.05 12.15 -23.0 12.15 Q-35.3 7.9 -35.4 2.05 -35.4 0.4 -34.35 -1.1 L-34.35 -1.2 Q-29.5 -12.0 -23.3 -21.75 L-23.3 -21.7 -23.6 -19.95 -23.5 -19.6 -23.15 -19.4 -22.8 -19.5 -22.65 -19.6 -22.6 -19.8 -21.25 -27.25 -20.9 -27.1 -19.5 -26.6 -19.15 -26.5 -19.15 -25.7 -20.6 -18.1 -20.5 -17.7 -20.2 -17.5 -19.8 -17.6 -19.6 -17.9 -19.4 -19.0 -19.05 -18.85 -19.05 -16.7 -2.75 -13.65 -1.3 -15.05 -1.3 -15.45 0.9 -15.3 2.05 -15.25 2.0 -14.3 2.15 -13.95 2.2 -13.9 2.5 -13.8 2.85 -13.95 3.0 -14.25 3.0 -14.95 5.0 -15.05 7.5 -15.25 7.5 -14.15 7.65 -13.8 Q7.75 -13.7 7.85 -13.7 L7.9 -13.65 8.0 -13.65 8.35 -13.8 8.5 -14.15 8.5 -15.25 M18.95 -16.2 L19.75 -16.3 19.95 -16.35 24.1 -17.0 24.1 -16.4 24.3 -16.05 24.65 -15.95 Q24.85 -15.95 25.0 -16.1 L25.1 -16.45 25.05 -17.25 25.1 -17.25 28.1 -17.65 29.15 -18.1 29.2 -18.0 29.35 -17.8 29.7 -17.7 30.05 -17.85 30.15 -18.25 30.15 -18.3 30.1 -18.7 31.0 -19.3 31.15 -19.4 32.65 -20.75 Q33.85 -22.1 34.25 -23.2 41.05 -12.8 48.4 -0.3 48.85 0.5 49.0 1.45 L49.05 2.05 Q48.95 6.75 38.45 10.3 L37.1 10.75 36.9 10.8 29.9 12.55 29.55 12.65 29.3 12.7 25.8 13.3 Q24.0 2.1 21.0 -9.05 L19.35 -14.95 18.95 -16.2 M3.15 -23.0 L3.85 -22.95 6.15 -23.05 7.5 -23.05 7.5 -21.25 4.4 -21.15 3.1 -21.2 3.15 -23.0 M41.25 -3.7 Q32.3 -23.1 32.3 -16.6 32.3 -15.6 34.1 -12.9 35.0 -11.5 36.2 -9.85 L38.15 -5.75 Q39.6 -3.05 40.85 -3.05 L41.15 -3.35 41.25 -3.7 M21.6 -11.55 L24.6 -2.8 27.6 5.6 29.45 11.05 30.15 10.9 32.8 10.35 Q33.7 9.85 36.4 9.0 L37.05 8.7 38.55 7.95 40.0 7.1 Q40.7 6.5 40.7 5.1 40.7 3.45 40.3 2.4 39.9 1.3 38.55 -0.45 37.6 -1.6 36.85 -3.25 L35.55 -5.9 32.1 -11.35 Q30.05 -14.65 29.35 -16.85 L25.55 -16.1 25.95 -15.1 26.8 -12.75 27.7 -10.45 27.9 -10.1 Q30.8 -4.65 30.8 -3.0 L30.5 -2.4 Q28.7 -3.95 27.75 -5.9 L26.15 -9.65 24.5 -12.5 23.95 -13.4 23.0 -15.0 22.7 -15.55 22.05 -15.45 20.5 -15.3 20.2 -15.3 20.5 -14.5 21.6 -11.55 M11.95 21.1 Q19.85 20.2 25.05 18.7 L31.5 16.55 31.5 16.6 Q27.45 22.15 24.75 24.15 18.4 28.9 8.4 28.9 1.2 28.9 -4.75 25.25 -9.65 22.25 -9.65 20.45 -9.55 19.1 -8.25 19.1 -7.1 19.1 -5.35 19.75 L-3.65 20.05 -2.15 20.2 -1.25 20.1 Q-0.85 20.05 -0.45 20.6 L0.45 20.7 7.7 20.95 9.15 21.1 11.95 21.1 M-24.05 -14.55 Q-24.7 -14.75 -26.05 -12.35 L-28.2 -8.25 Q-31.65 -2.5 -31.65 -1.5 -31.55 -0.8 -31.15 -0.8 -30.5 -0.8 -27.25 -7.45 L-25.3 -11.2 Q-23.95 -13.9 -23.95 -14.25 L-24.05 -14.55 M-20.65 -14.6 L-20.95 -13.9 -22.5 -11.75 Q-23.35 -9.9 -25.25 -6.8 L-27.7 -2.2 Q-29.45 1.4 -29.45 3.05 -29.45 7.55 -25.55 7.35 L-25.1 7.6 -22.55 1.85 -21.05 -1.8 -20.35 -3.6 Q-18.0 -9.85 -18.0 -12.6 -18.0 -14.25 -19.3 -14.4 L-19.6 -14.85 Q-20.15 -15.5 -20.65 -14.6" fill="#171717" fill-rule="evenodd" stroke="none"/>
    <path d="M32.3 -28.35 L32.95 -28.65 33.1 -28.7 33.55 -28.9 34.1 -25.35 34.35 -23.6 34.25 -23.2 Q33.85 -22.1 32.65 -20.75 L31.15 -19.4 31.0 -19.3 30.1 -18.7 29.25 -26.8 29.65 -27.1 29.65 -27.15 29.65 -27.1 29.75 -26.1 30.05 -19.75 31.0 -20.35 31.15 -20.45 Q32.2 -21.1 32.75 -21.85 33.15 -22.5 33.15 -23.55 L32.85 -25.35 32.7 -26.05 32.45 -27.25 32.3 -28.35 M22.4 -25.05 L23.7 -25.15 24.1 -17.0 19.95 -16.35 19.75 -16.3 18.95 -16.2 17.95 -16.1 16.35 -15.9 15.35 -15.8 13.7 -15.6 8.85 -15.25 8.5 -15.25 8.5 -16.15 13.1 -16.55 13.7 -16.6 17.15 -16.85 17.7 -16.9 18.2 -16.95 18.7 -17.0 22.45 -17.8 22.55 -21.95 22.4 -25.05 M1.55 -23.1 L1.9 -23.05 2.15 -23.05 2.05 -15.25 0.9 -15.3 -1.3 -15.45 -1.25 -16.25 -0.15 -16.15 0.65 -16.1 1.5 -16.15 1.5 -16.45 1.45 -17.95 1.55 -23.1 M-23.4 -28.15 L-23.05 -28.0 -23.0 -27.95 -22.25 -27.65 -23.3 -21.7 -23.3 -21.75 -23.85 -22.75 -24.05 -23.45 -23.4 -28.15 M-19.4 -19.0 L-19.25 -19.8 -19.05 -19.75 -19.05 -18.85 -19.4 -19.0 M-5.1 -16.75 L-5.15 -16.4 -16.85 -18.65 -16.85 -19.0 -16.65 -18.95 Q-13.8 -18.15 -8.0 -17.2 L-5.1 -16.75" fill="#381e10" fill-rule="evenodd" stroke="none"/>
    <path d="M31.9 -28.15 L32.05 -28.25 32.3 -28.35 32.45 -27.25 32.7 -26.05 32.85 -25.35 33.15 -23.55 Q33.15 -22.5 32.75 -21.85 32.2 -21.1 31.15 -20.45 L31.0 -20.35 30.05 -19.75 29.75 -26.1 29.65 -27.1 29.65 -27.15 30.0 -27.4 31.4 -27.95 31.9 -28.15 M16.8 -24.1 L16.8 -23.85 20.65 -24.6 21.0 -24.7 22.4 -25.05 22.55 -21.95 22.45 -17.8 18.7 -17.0 18.2 -16.95 17.7 -16.9 17.15 -16.85 13.7 -16.6 13.1 -16.55 8.5 -16.15 8.5 -23.1 10.2 -23.2 12.7 -23.35 12.7 -23.55 16.8 -24.1 M0.75 -23.15 L1.1 -23.1 1.2 -23.1 1.55 -23.1 1.45 -17.95 1.5 -16.45 1.5 -16.15 0.65 -16.1 -0.15 -16.15 -1.25 -16.25 -1.2 -17.5 Q-0.4 -17.7 -0.3 -18.3 L-0.15 -21.85 -0.2 -21.45 -1.1 -21.5 -1.05 -23.25 -0.8 -23.25 0.75 -23.15 M9.4 -18.55 L9.45 -18.4 Q9.65 -16.95 10.3 -16.95 L13.7 -17.15 16.15 -17.5 17.45 -17.75 17.55 -17.8 18.4 -18.0 Q20.4 -18.45 21.05 -18.8 L21.05 -23.1 20.7 -23.0 Q19.9 -22.6 17.6 -22.1 L12.55 -21.35 12.45 -21.25 9.75 -21.0 9.35 -21.0 Q9.3 -19.35 9.4 -18.55 M-19.25 -19.8 L-19.1 -20.65 -19.05 -19.75 -19.25 -19.8 M-16.85 -23.05 L-16.85 -24.75 -4.9 -23.05 -4.95 -21.4 -10.6 -21.95 -15.1 -22.8 -16.85 -23.05 M-5.1 -17.7 L-5.1 -16.75 -8.0 -17.2 Q-13.8 -18.15 -16.65 -18.95 L-16.85 -19.0 -16.85 -19.9 -13.35 -19.45 -12.15 -19.15 -5.1 -17.7" fill="#5b311c" fill-rule="evenodd" stroke="none"/>
    <path d="M9.4 -18.55 Q9.3 -19.35 9.35 -21.0 L9.75 -21.0 12.45 -21.25 12.55 -21.35 17.6 -22.1 Q19.9 -22.6 20.7 -23.0 L21.05 -23.1 21.05 -18.8 Q20.4 -18.45 18.4 -18.0 L17.55 -17.8 17.45 -17.75 16.15 -17.5 13.7 -17.15 10.3 -16.95 Q9.65 -16.95 9.45 -18.4 L9.4 -18.55 M-1.1 -21.5 L-0.2 -21.45 -0.15 -21.85 -0.3 -18.3 Q-0.4 -17.7 -1.2 -17.5 L-1.1 -21.5 M-16.85 -23.05 L-15.1 -22.8 -10.6 -21.95 -4.95 -21.4 -5.1 -17.7 -12.15 -19.15 -13.35 -19.45 -12.1 -19.3 -12.1 -21.9 -16.85 -22.8 -16.85 -23.05" fill="#834527" fill-rule="evenodd" stroke="none"/>
    <path d="M-4.7 -10.9 Q-3.25 -10.9 -3.1 -6.5 L-3.15 -0.7 -2.95 1.6 -2.5 3.65 Q-1.75 7.05 -1.2 8.25 L-0.15 8.25 Q1.0 7.35 1.45 5.8 L2.1 3.35 2.3 2.25 2.25 3.0 2.55 0.15 3.2 -4.4 Q3.75 -7.95 4.3 -9.55 5.5 -12.95 6.65 -7.9 L7.4 1.85 7.4 1.4 8.15 3.75 Q9.05 6.85 10.8 6.85 12.35 6.85 13.2 3.8 L14.05 -0.65 14.35 -4.4 14.45 -5.7 14.45 -10.35 Q15.75 -12.9 16.85 -10.95 17.6 -9.6 17.8 -7.85 L19.0 -1.85 Q21.7 8.25 21.7 10.0 L21.65 11.2 Q21.4 12.05 20.2 12.05 L19.85 12.05 18.6 12.5 15.8 12.5 15.35 12.6 15.0 12.5 14.4 12.5 12.05 11.0 Q11.6 11.0 10.35 12.1 L8.65 13.5 5.65 13.5 3.85 13.0 1.6 12.45 -0.65 10.85 Q-1.35 10.85 -2.0 11.4 L-3.15 12.45 -8.95 12.45 -11.3 11.65 -11.65 11.15 -11.9 10.7 -11.85 10.5 -11.9 10.4 -11.9 9.85 -11.4 7.55 -10.9 5.75 Q-10.9 4.65 -9.0 -2.75 L-7.6 -8.0 Q-6.5 -10.9 -4.7 -10.9 M20.05 8.25 L19.1 4.05 18.05 -0.15 Q17.1 -4.2 16.35 -5.2 15.55 -6.3 15.55 -2.65 L15.6 1.55 15.6 6.3 15.9 9.0 Q16.25 10.35 17.8 10.35 20.05 10.35 20.05 8.25 M7.7 9.8 Q7.7 7.95 5.5 -1.7 3.85 -2.85 3.7 -0.75 3.6 0.4 3.8 2.8 L3.45 8.55 Q3.45 11.65 6.6 11.65 7.4 11.65 7.65 10.85 L7.7 9.8 M32.15 8.45 L31.3 8.4 Q30.25 6.8 29.15 4.3 L27.4 0.05 25.65 -3.95 Q24.65 -6.45 24.25 -8.3 25.65 -7.85 26.9 -4.75 L28.15 -2.7 28.45 -2.2 28.6 -2.05 29.65 -0.65 31.05 0.45 Q32.05 1.25 32.7 1.25 32.9 1.25 33.3 0.05 L33.75 -0.8 Q32.25 -4.2 32.25 -5.3 L32.3 -5.7 Q32.6 -6.85 35.25 -2.4 38.25 2.65 38.25 4.35 L38.2 4.8 38.15 4.9 37.0 6.4 36.65 6.7 Q34.85 8.15 32.6 8.35 L32.15 8.45 M33.85 6.0 Q33.85 4.65 31.9 2.8 29.95 1.0 29.95 2.6 L30.8 5.1 Q31.8 7.6 32.6 7.6 33.85 7.6 33.85 6.0 M-22.2 -5.7 Q-22.2 -4.2 -23.15 -1.2 -24.3 2.4 -25.7 3.6 L-26.45 3.55 Q-27.1 2.9 -27.1 2.3 -27.1 0.3 -24.65 -4.2 -22.2 -8.7 -22.2 -5.7 M-13.75 5.35 L-14.05 8.45 -13.7 10.15 Q-13.8 11.25 -16.05 11.25 -18.4 11.25 -19.25 10.2 -19.65 9.7 -19.65 9.0 L-18.35 4.65 Q-17.05 0.6 -16.9 -1.4 -16.8 -2.1 -16.05 -2.9 -15.3 -3.8 -15.2 -2.45 L-15.15 0.2 Q-15.0 1.7 -14.35 3.0 -13.75 4.2 -13.75 5.35 M-4.8 -7.9 Q-5.8 -9.1 -6.3 -7.45 L-6.75 -4.65 Q-6.8 -3.1 -7.45 -0.2 -8.85 6.65 -8.85 8.55 L-8.7 9.6 Q-8.1 10.45 -5.85 10.45 -4.4 10.45 -4.15 9.05 L-4.15 7.5 Q-4.5 1.9 -4.8 0.05 L-4.8 -7.9 M-15.35 5.0 Q-15.35 4.0 -16.1 3.45 -16.95 2.9 -17.2 4.95 -17.25 5.45 -18.05 7.95 -18.2 9.1 -16.75 9.1 -15.75 9.1 -15.45 7.2 L-15.35 5.0" fill="#313131" fill-rule="evenodd" stroke="none"/>
    <path d="M7.7 9.8 L7.65 10.85 Q7.4 11.65 6.6 11.65 3.45 11.65 3.45 8.55 L3.8 2.8 Q3.6 0.4 3.7 -0.75 3.85 -2.85 5.5 -1.7 7.7 7.95 7.7 9.8 M20.05 8.25 Q20.05 10.35 17.8 10.35 16.25 10.35 15.9 9.0 L15.6 6.3 15.6 1.55 15.55 -2.65 Q15.55 -6.3 16.35 -5.2 17.1 -4.2 18.05 -0.15 L19.1 4.05 20.05 8.25 M33.85 6.0 Q33.85 7.6 32.6 7.6 31.8 7.6 30.8 5.1 L29.95 2.6 Q29.95 1.0 31.9 2.8 33.85 4.65 33.85 6.0 M-4.8 -7.9 L-4.8 0.05 Q-4.5 1.9 -4.15 7.5 L-4.15 9.05 Q-4.4 10.45 -5.85 10.45 -8.1 10.45 -8.7 9.6 L-8.85 8.55 Q-8.85 6.65 -7.45 -0.2 -6.8 -3.1 -6.75 -4.65 L-6.3 -7.45 Q-5.8 -9.1 -4.8 -7.9 M-15.35 5.0 L-15.45 7.2 Q-15.75 9.1 -16.75 9.1 -18.2 9.1 -18.05 7.95 -17.25 5.45 -17.2 4.95 -16.95 2.9 -16.1 3.45 -15.35 4.0 -15.35 5.0" fill="#3f3f3f" fill-rule="evenodd" stroke="none"/>
    <path d="M28.5 25.6 Q19.8 32.95 7.6 32.95 -4.65 32.95 -13.3 25.6 -19.35 20.45 -21.1 13.8 -8.95 17.45 7.55 17.45 L23.75 16.5 Q25.9 16.05 25.9 14.3 31.7 13.4 36.75 11.9 35.4 19.7 28.5 25.6 M11.95 21.1 L9.15 21.1 7.7 20.95 0.45 20.7 -0.45 20.6 Q-0.85 20.05 -1.25 20.1 L-2.15 20.2 -3.65 20.05 -5.35 19.75 Q-7.1 19.1 -8.25 19.1 -9.55 19.1 -9.65 20.45 -9.65 22.25 -4.75 25.25 1.2 28.9 8.4 28.9 18.4 28.9 24.75 24.15 27.45 22.15 31.5 16.6 L31.5 16.55 25.05 18.7 Q19.85 20.2 11.95 21.1" fill="#0f0f0f" fill-rule="evenodd" stroke="none"/>
    <path d="M-1.6 -23.3 L-1.05 -23.25 -1.1 -21.5 -1.2 -17.5 -1.25 -16.25 -1.3 -15.45 -1.3 -15.05 -2.75 -13.65 -19.05 -16.7 -19.05 -18.85 -19.05 -19.75 -19.1 -20.65 -19.15 -25.7 -19.15 -26.5 -18.25 -26.2 -18.45 -17.15 -2.95 -14.4 -1.85 -15.35 -1.6 -23.3 M-15.45 -25.3 L-14.65 -25.1 Q-10.1 -23.95 -4.45 -23.5 L-4.1 -23.5 -4.45 -15.55 -7.0 -16.0 -13.95 -17.25 -17.55 -17.9 -17.55 -25.65 -15.45 -25.3 M-4.95 -21.4 L-4.9 -23.05 -16.85 -24.75 -16.85 -23.05 -16.85 -22.8 -12.1 -21.9 -12.1 -19.3 -13.35 -19.45 -16.85 -19.9 -16.85 -19.0 -16.85 -18.65 -5.15 -16.4 -5.1 -16.75 -5.1 -17.7 -4.95 -21.4 M-17.3 -21.85 L-17.3 -20.85 -12.75 -20.05 -12.75 -21.2 -17.3 -21.85" fill="#583300" fill-rule="evenodd" stroke="none"/>
    <path d="M-2.7 -23.4 L-1.6 -23.3 -1.85 -15.35 -2.95 -14.4 -2.7 -23.4" fill="#af6500" fill-rule="evenodd" stroke="none"/>
    <path d="M-3.85 -23.5 L-2.7 -23.4 -2.95 -14.4 -18.45 -17.15 -18.25 -26.2 -17.45 -25.9 -17.3 -25.85 -15.9 -25.45 -15.45 -25.3 -17.55 -25.65 -17.55 -17.9 -13.95 -17.25 -7.0 -16.0 -4.45 -15.55 -4.1 -23.5 -3.85 -23.45 -3.85 -23.5 M-17.3 -21.85 L-12.75 -21.2 -12.75 -20.05 -17.3 -20.85 -17.3 -21.85" fill="#ff9606" fill-rule="evenodd" stroke="none"/>
    <path d="M22.6 -96.45 Q21.85 -105.8 18.05 -115.1 13.5 -126.2 6.9 -129.75 3.7 -131.5 1.25 -132.35 -3.6 -134.25 -8.85 -131.0 L-9.2 -130.7 -11.75 -127.6 Q-16.3 -120.65 -18.1 -117.2 -20.8 -112.4 -28.05 -97.05 L-28.05 -97.0 -29.15 -93.95 -30.5 -95.35 -29.65 -97.55 -28.25 -100.4 -24.4 -108.45 -23.95 -109.35 -23.55 -110.15 -20.05 -117.15 -20.0 -117.25 -19.75 -117.65 -19.65 -117.8 Q-17.8 -121.25 -13.25 -128.3 -9.3 -134.45 -3.7 -134.75 8.05 -135.55 16.55 -121.15 20.85 -114.05 22.1 -108.65 23.4 -103.35 23.8 -98.9 L23.95 -97.05 23.9 -97.75 22.6 -96.45 M33.1 -28.7 L33.55 -28.95 33.55 -28.9 33.1 -28.7 M29.6 -27.2 L29.95 -27.35 29.65 -27.25 29.6 -27.2" fill="#3c0303" fill-rule="evenodd" stroke="none"/>
    <path d="M-0.15 -126.9 L0.85 -128.3 0.95 -128.6 0.85 -128.9 Q-3.1 -134.05 -9.85 -129.65 L-10.0 -129.5 -10.1 -129.3 -11.1 -122.25 Q-13.7 -114.95 -16.6 -107.55 L-16.85 -107.65 Q-16.65 -107.6 -17.0 -108.45 -16.75 -108.5 -16.0 -111.35 -14.95 -113.9 -14.45 -116.65 L-14.3 -117.75 Q-17.45 -112.0 -21.05 -106.6 -26.05 -97.8 -27.15 -92.8 -28.35 -93.3 -29.15 -93.95 L-28.05 -97.0 -28.05 -97.05 Q-20.8 -112.4 -18.1 -117.2 -16.3 -120.65 -11.75 -127.6 L-9.2 -130.7 -8.85 -131.0 Q-3.6 -134.25 1.25 -132.35 3.7 -131.5 6.9 -129.75 13.5 -126.2 18.05 -115.1 21.85 -105.8 22.6 -96.45 L21.6 -95.65 18.65 -94.0 17.35 -93.6 15.35 -93.05 11.85 -92.4 Q14.2 -96.75 14.4 -98.8 17.75 -117.95 9.6 -113.95 L8.8 -119.65 Q6.4 -125.35 4.55 -128.3 3.25 -126.85 1.1 -125.35 -1.05 -123.8 -3.0 -122.95 L-1.3 -125.35 -1.15 -125.05 -1.35 -124.6 Q-0.3 -125.0 1.1 -126.2 L4.0 -129.2 Q3.25 -129.4 2.95 -130.4 L2.0 -129.1 -0.15 -126.9 M-18.3 -103.2 L-19.05 -101.4 Q-20.3 -101.7 -21.05 -102.55 L-20.9 -102.6 -18.4 -103.2 -18.3 -103.2 M-20.25 -98.5 L-20.75 -97.25 -21.35 -97.75 Q-21.3 -97.65 -21.55 -97.7 -21.7 -98.35 -20.95 -98.45 L-20.25 -98.5 M-13.2 -101.35 L-12.0 -103.75 -10.55 -103.6 -10.3 -103.5 -10.65 -101.9 Q-11.65 -101.55 -13.2 -101.35 M-24.4 -108.45 L-28.25 -100.4 -26.8 -103.8 -24.4 -108.45 M15.35 -93.05 L15.35 -93.1 15.35 -93.05" fill="#660707" fill-rule="evenodd" stroke="none"/>
    <path d="M-16.6 -107.55 L-17.15 -106.1 -18.35 -106.2 -18.85 -105.75 -17.65 -104.85 -18.3 -103.2 -18.4 -103.2 -20.9 -102.6 -21.05 -102.55 Q-20.3 -101.7 -19.05 -101.4 L-19.4 -100.6 -22.1 -100.65 Q-22.2 -100.1 -22.55 -100.05 -21.6 -99.5 -20.0 -99.05 L-20.25 -98.5 -20.95 -98.45 Q-21.7 -98.35 -21.55 -97.7 -21.3 -97.65 -21.35 -97.75 L-20.75 -97.25 -21.6 -95.3 -21.65 -95.0 -21.55 -94.8 Q-22.3 -94.3 -22.5 -93.35 L-22.55 -92.2 -22.8 -92.2 -25.35 -92.25 -27.15 -92.8 Q-26.05 -97.8 -21.05 -106.6 -17.45 -112.0 -14.3 -117.75 L-14.45 -116.65 Q-14.95 -113.9 -16.0 -111.35 -16.75 -108.5 -17.0 -108.45 -16.65 -107.6 -16.85 -107.65 L-16.6 -107.55 M-15.9 -96.0 L-14.8 -98.1 -14.45 -98.1 -13.8 -98.2 -8.05 -98.0 Q-7.0 -97.45 -5.55 -97.2 L-5.05 -97.15 Q-6.2 -96.65 -6.8 -96.7 L-14.45 -96.2 -15.9 -96.0 M-13.8 -100.1 L-13.2 -101.35 Q-11.65 -101.55 -10.65 -101.9 L-10.35 -100.5 -13.6 -100.15 -13.8 -100.1 M-12.0 -103.75 L-11.85 -104.0 -10.1 -103.95 -10.3 -103.5 -10.55 -103.6 -12.0 -103.75 M-9.8 -108.35 Q-6.95 -114.6 -4.55 -120.8 L-3.0 -122.95 Q-1.05 -123.8 1.1 -125.35 3.25 -126.85 4.55 -128.3 6.4 -125.35 8.8 -119.65 L9.6 -113.95 Q17.75 -117.95 14.4 -98.8 14.2 -96.75 11.85 -92.4 L11.35 -92.3 6.75 -91.85 7.2 -92.7 Q10.2 -98.4 10.75 -100.8 10.1 -102.15 10.2 -103.95 L10.2 -105.8 10.3 -105.95 9.55 -106.0 Q6.35 -103.4 3.0 -101.6 3.5 -103.5 2.25 -105.2 7.5 -107.7 7.2 -114.95 L5.95 -119.15 4.55 -121.5 Q2.3 -124.05 1.35 -124.1 0.0 -123.95 -2.1 -119.95 -2.6 -119.2 -2.55 -118.45 -4.85 -112.75 -8.75 -109.15 L-9.8 -108.35 M-1.3 -125.35 L-0.15 -126.9 2.0 -129.1 2.95 -130.4 Q3.25 -129.4 4.0 -129.2 L1.1 -126.2 Q-0.3 -125.0 -1.35 -124.6 L-1.15 -125.05 -1.3 -125.35 M15.35 -93.05 L15.35 -93.1 15.35 -93.05" fill="#830c0c" fill-rule="evenodd" stroke="none"/>
    <path d="M-4.55 -107.5 L-4.65 -108.0 Q-4.75 -109.55 -2.35 -113.6 0.05 -117.15 1.35 -117.25 L2.2 -117.25 Q2.05 -116.9 2.3 -117.1 2.0 -116.15 2.4 -115.7 1.95 -111.3 0.05 -108.8 L-1.45 -107.35 -1.85 -107.45 -1.9 -107.45 -4.55 -107.5 M-20.25 -92.15 Q-19.6 -93.55 -17.6 -93.85 L-14.55 -94.05 Q-11.4 -93.95 -7.8 -94.2 -5.85 -94.15 -0.1 -97.3 2.9 -98.85 6.3 -100.75 L6.95 -100.6 7.0 -100.2 Q6.95 -98.75 4.35 -95.75 1.4 -92.7 -0.35 -92.55 L-0.3 -91.75 -3.15 -91.8 -7.15 -91.9 -18.6 -92.1 -20.25 -92.15" fill="#c91919" fill-rule="evenodd" stroke="none"/>
    <path d="M-17.15 -106.1 L-17.65 -104.85 -18.85 -105.75 -18.35 -106.2 -17.15 -106.1 M-19.4 -100.6 L-20.0 -99.05 Q-21.6 -99.5 -22.55 -100.05 -22.2 -100.1 -22.1 -100.65 L-19.4 -100.6 M-21.55 -94.8 L-21.45 -94.7 -21.2 -94.6 -17.25 -94.15 -16.95 -94.2 -16.75 -94.4 -15.9 -96.0 -14.45 -96.2 -6.8 -96.7 Q-6.2 -96.65 -5.05 -97.15 -2.65 -96.9 -0.45 -97.95 L-0.5 -97.95 Q2.0 -99.1 2.85 -101.15 L3.0 -101.6 Q6.35 -103.4 9.55 -106.0 L10.3 -105.95 10.2 -105.8 10.2 -103.95 Q10.1 -102.15 10.75 -100.8 10.2 -98.4 7.2 -92.7 L6.75 -91.85 1.65 -91.75 -0.3 -91.75 -0.35 -92.55 Q1.4 -92.7 4.35 -95.75 6.95 -98.75 7.0 -100.2 L6.95 -100.6 6.3 -100.75 Q2.9 -98.85 -0.1 -97.3 -5.85 -94.15 -7.8 -94.2 -11.4 -93.95 -14.55 -94.05 L-17.6 -93.85 Q-19.6 -93.55 -20.25 -92.15 L-22.55 -92.2 -22.5 -93.35 Q-22.3 -94.3 -21.55 -94.8 M-14.8 -98.1 L-13.8 -100.1 -13.6 -100.15 -10.35 -100.5 -9.75 -99.45 -9.75 -99.5 Q-9.1 -98.6 -8.05 -98.0 L-13.8 -98.2 -14.45 -98.1 -14.8 -98.1 M-11.85 -104.0 L-9.8 -108.35 -8.75 -109.15 Q-4.85 -112.75 -2.55 -118.45 -2.6 -119.2 -2.1 -119.95 0.0 -123.95 1.35 -124.1 2.3 -124.05 4.55 -121.5 L5.95 -119.15 7.2 -114.95 Q7.5 -107.7 2.25 -105.2 1.0 -106.9 -1.45 -107.35 L0.05 -108.8 Q1.95 -111.3 2.4 -115.7 2.0 -116.15 2.3 -117.1 2.05 -116.9 2.2 -117.25 L1.35 -117.25 Q0.05 -117.15 -2.35 -113.6 -4.75 -109.55 -4.65 -108.0 L-4.55 -107.5 -7.0 -106.75 Q-9.2 -105.7 -10.1 -103.95 L-11.85 -104.0" fill="#a61515" fill-rule="evenodd" stroke="none"/>
    <path d="M31.95 -29.9 L31.9 -28.15 31.4 -27.95 30.0 -27.4 29.95 -27.35 29.6 -27.2 29.5 -27.15 29.45 -27.15 29.25 -27.1 28.25 -26.75 27.4 -26.45 27.6 -27.25 27.85 -28.15 28.8 -28.55 29.05 -28.65 29.45 -28.8 31.85 -29.85 31.95 -29.9 M16.95 -25.3 L16.8 -24.1 12.7 -23.55 12.85 -24.9 16.95 -25.3 M0.0 -24.65 Q0.3 -23.85 0.75 -23.15 L-0.8 -23.25 -1.05 -23.25 -1.6 -23.3 -2.7 -23.4 -3.85 -23.5 -4.2 -25.0 -2.7 -24.85 -1.55 -24.75 -1.25 -24.75 -0.45 -24.7 0.0 -24.65 M2.2 -23.05 L2.45 -23.0 2.4 -23.0 2.2 -23.05 M-21.55 -27.35 L-20.9 -27.1 -21.25 -27.25 -21.55 -27.35 M-19.5 -26.6 L-19.65 -28.4 -19.2 -28.25 -17.95 -27.75 -17.7 -27.7 -16.0 -27.1 -15.5 -26.95 Q-15.25 -25.95 -14.65 -25.1 L-15.45 -25.3 -15.9 -25.45 -17.3 -25.85 -17.45 -25.9 -18.25 -26.2 -19.15 -26.5 -19.5 -26.6" fill="#804308" fill-rule="evenodd" stroke="none"/>
    <path d="M17.35 -93.6 L18.65 -94.0 21.6 -95.65 Q22.8 -85.85 22.45 -77.8 L22.45 -77.7 22.45 -77.6 Q23.0 -65.7 27.1 -53.45 L27.15 -53.4 Q31.9 -37.15 31.95 -29.9 L31.85 -29.85 29.45 -28.8 29.05 -28.65 28.8 -28.55 27.85 -28.15 28.0 -31.05 28.25 -31.75 27.9 -31.95 Q27.5 -36.45 25.45 -44.4 L25.85 -46.7 Q25.35 -47.5 23.55 -53.95 L22.85 -53.65 22.15 -55.95 23.1 -56.15 20.65 -66.3 20.4 -67.2 20.35 -67.55 Q19.25 -71.45 18.65 -74.4 L18.45 -77.6 18.45 -77.75 Q18.75 -85.0 17.8 -93.7 L17.35 -93.6 M11.0 -86.55 L9.65 -85.2 Q8.4 -85.35 8.45 -85.55 8.15 -85.8 8.25 -86.25 L10.8 -90.5 11.0 -86.55 M13.1 -28.6 L17.05 -29.2 17.15 -27.55 17.15 -27.2 16.95 -25.3 12.85 -24.9 13.15 -27.55 13.1 -28.6 M0.0 -24.65 L-0.45 -24.7 -1.25 -24.75 -1.55 -24.75 -2.7 -24.85 -4.2 -25.0 -4.45 -26.9 -4.45 -26.95 -4.45 -28.25 -4.0 -28.25 -0.45 -27.85 -0.45 -27.0 0.0 -24.65 M-7.55 -80.55 L-4.85 -80.9 -3.55 -81.0 -3.25 -77.45 -2.15 -74.7 Q-3.35 -73.4 -5.25 -72.2 L-5.4 -72.1 -5.4 -72.15 -7.05 -76.25 -7.15 -76.7 -7.55 -80.55 M-23.35 -82.4 Q-21.8 -81.7 -18.85 -81.25 -17.5 -77.3 -13.9 -73.8 L-13.45 -73.2 Q-12.7 -71.5 -12.4 -69.45 L-14.45 -69.3 -15.55 -69.4 -15.35 -65.4 -15.3 -64.15 -15.15 -59.7 -15.1 -59.7 -15.05 -56.65 -15.1 -53.55 -13.7 -53.5 -13.4 -53.5 -13.7 -49.9 -14.5 -49.8 -16.8 -48.75 -17.95 -47.65 -16.55 -63.25 -16.5 -63.4 Q-15.75 -68.0 -17.0 -71.25 -22.15 -76.4 -23.35 -82.4 M-19.65 -28.4 L-19.55 -29.45 -19.6 -29.4 -18.15 -45.05 -16.5 -44.85 -14.7 -45.05 -14.15 -44.95 -14.4 -42.25 -15.3 -42.4 Q-15.0 -41.6 -16.15 -31.05 L-15.45 -30.75 -15.6 -29.05 -15.6 -29.0 Q-15.75 -27.95 -15.5 -26.95 L-16.0 -27.1 -17.7 -27.7 -17.95 -27.75 -19.2 -28.25 -19.65 -28.4" fill="#b15c0a" fill-rule="evenodd" stroke="none"/>
    <path d="M6.75 -91.85 L11.35 -92.3 10.7 -92.2 10.8 -90.55 10.8 -90.5 8.25 -86.25 Q8.15 -85.8 8.45 -85.55 8.4 -85.35 9.65 -85.2 L11.0 -86.55 11.05 -83.5 10.7 -83.55 Q9.75 -83.25 7.05 -78.3 7.15 -85.25 6.75 -91.8 L6.75 -91.85 M18.65 -74.4 Q19.25 -71.45 20.35 -67.55 L20.4 -67.2 20.65 -66.3 23.1 -56.15 22.15 -55.95 Q19.4 -65.3 18.65 -74.4 M22.85 -53.65 L23.55 -53.95 Q25.35 -47.5 25.85 -46.7 L25.45 -44.4 23.3 -52.25 23.3 -52.2 22.85 -53.65 M27.9 -31.95 L28.25 -31.75 28.0 -31.05 27.9 -31.95 M11.05 -78.45 L10.9 -73.6 12.2 -67.45 10.55 -67.05 10.2 -66.95 8.3 -66.35 7.5 -70.4 7.5 -70.45 10.5 -77.25 11.05 -78.45 M14.1 -56.6 L14.7 -52.85 Q11.2 -54.5 10.3 -55.1 L10.3 -55.15 10.25 -55.4 14.1 -56.6 M16.0 -42.25 L16.6 -35.75 16.1 -35.75 Q13.45 -35.6 13.4 -38.6 13.0 -40.8 16.0 -42.25 M16.8 -33.15 L17.05 -29.2 13.1 -28.6 12.9 -31.9 Q15.35 -32.55 16.8 -33.15 M-7.65 -84.55 L-3.6 -84.8 -3.55 -81.0 -4.85 -80.9 -7.55 -80.55 -7.65 -84.55 M-19.65 -85.35 Q-19.55 -83.25 -18.85 -81.25 -21.8 -81.7 -23.35 -82.4 -24.2 -86.6 -23.15 -91.15 L-23.1 -91.4 -22.8 -92.2 -22.55 -92.2 -22.65 -89.75 Q-22.65 -86.9 -20.85 -85.9 L-19.65 -85.35 M-5.4 -72.1 L-5.25 -72.2 Q-3.35 -73.4 -2.15 -74.7 L-1.6 -73.35 -1.45 -72.95 -0.95 -69.95 -0.95 -69.65 -0.95 -69.35 -4.6 -67.3 -4.9 -67.1 -4.95 -69.45 -5.4 -72.1 M-4.75 -55.0 L-0.75 -52.35 -0.75 -51.65 -4.7 -51.05 -4.75 -55.0 M-17.95 -47.65 L-16.8 -48.75 -14.5 -49.8 -13.7 -49.9 -14.15 -44.95 -14.7 -45.05 -16.5 -44.85 -18.15 -45.05 -18.15 -45.1 -17.95 -47.65 M-13.4 -53.5 L-13.7 -53.5 -15.1 -53.55 -15.05 -56.65 -15.1 -59.7 -15.15 -59.7 -15.3 -64.15 -15.35 -65.4 -15.55 -69.4 -14.45 -69.3 -12.4 -69.45 Q-12.0 -66.5 -12.55 -62.9 L-13.4 -53.5 M-14.4 -42.25 L-15.45 -30.75 -16.15 -31.05 Q-15.0 -41.6 -15.3 -42.4 L-14.4 -42.25 M-4.45 -28.25 L-4.5 -30.7 -0.45 -30.4 -0.45 -27.85 -4.0 -28.25 -4.45 -28.25 M-4.6 -39.65 L-4.6 -40.9 -3.25 -39.8 -4.6 -39.65" fill="#ce740a" fill-rule="evenodd" stroke="none"/>
    <path d="M6.75 -91.8 L6.75 -91.85 6.75 -91.8 M14.7 -52.85 L14.7 -52.8 16.0 -42.25 Q13.0 -40.8 13.4 -38.6 13.45 -35.6 16.1 -35.75 L16.6 -35.75 16.8 -33.15 Q15.35 -32.55 12.9 -31.9 L12.75 -33.7 Q13.2 -34.15 13.15 -35.05 L12.55 -36.4 11.7 -44.75 Q15.35 -46.55 15.35 -47.45 15.35 -49.3 12.35 -50.7 L10.85 -51.3 10.3 -55.1 Q11.2 -54.5 14.7 -52.85 M7.05 -78.3 Q9.75 -83.25 10.7 -83.55 L11.05 -83.5 11.05 -78.45 10.5 -77.25 7.5 -70.45 6.9 -73.0 6.85 -73.55 7.05 -78.3 M-0.95 -69.35 L-0.9 -64.1 -4.85 -63.95 -4.9 -67.1 -4.6 -67.3 -0.95 -69.35 M8.95 -63.0 L8.3 -66.35 10.2 -66.95 10.55 -67.05 12.2 -67.45 14.1 -56.6 10.25 -55.4 9.65 -59.05 10.0 -59.15 Q13.1 -59.75 9.25 -63.1 L8.95 -63.0 M-0.8 -58.3 L-0.75 -52.35 -4.75 -55.0 -4.8 -58.6 -4.8 -58.65 -0.8 -58.3 M-0.75 -51.65 L-0.7 -48.4 -2.85 -48.5 -4.7 -48.45 -4.7 -51.05 -0.75 -51.65 M-4.6 -42.85 L-4.3 -42.6 -0.6 -39.55 -0.55 -36.1 -2.4 -36.0 Q-3.55 -35.55 -4.55 -35.25 L-4.6 -39.65 -3.25 -39.8 -4.6 -40.9 -4.6 -42.85 M-7.45 -88.55 L-4.45 -89.05 -4.35 -89.05 -4.1 -89.1 -3.95 -89.15 -3.8 -89.2 -3.4 -89.3 -3.6 -84.8 -7.65 -84.55 -7.45 -88.55 M-20.25 -92.15 L-20.6 -90.65 Q-20.6 -88.9 -19.95 -88.8 L-19.55 -88.65 -19.65 -85.35 -20.85 -85.9 Q-22.65 -86.9 -22.65 -89.75 L-22.55 -92.2 -20.25 -92.15 M-0.45 -30.4 L-4.5 -30.7 -4.5 -33.85 Q-3.45 -33.2 -2.0 -32.85 L-0.5 -32.3 -0.45 -30.4" fill="#e48d0c" fill-rule="evenodd" stroke="none"/>
    <path d="M-3.7 -100.7 L-3.95 -99.6 -5.7 -99.6 -5.3 -101.35 -4.9 -103.5 -6.45 -103.5 -6.1 -104.95 -1.3 -104.95 -1.6 -103.5 -3.15 -103.5 -3.7 -100.7 M-20.25 -92.15 L-18.6 -92.1 -19.3 -90.1 -19.55 -88.65 -19.95 -88.8 Q-20.6 -88.9 -20.6 -90.65 L-20.25 -92.15 M-7.15 -91.9 L-3.15 -91.8 -3.4 -89.3 -3.8 -89.2 -3.95 -89.15 -4.1 -89.1 -4.35 -89.05 -4.45 -89.05 -7.45 -88.55 -7.15 -91.9 M8.95 -63.0 L9.25 -63.1 Q13.1 -59.75 10.0 -59.15 L9.65 -59.05 8.95 -63.0 M10.85 -51.3 L12.35 -50.7 Q15.35 -49.3 15.35 -47.45 15.35 -46.55 11.7 -44.75 L10.85 -51.3 M12.55 -36.4 L13.15 -35.05 Q13.2 -34.15 12.75 -33.7 L12.55 -36.4 M-4.7 -48.45 L-2.85 -48.5 -0.7 -48.4 -0.6 -39.55 -4.3 -42.6 -4.6 -42.85 -4.7 -48.45 M-0.55 -36.1 L-0.5 -32.3 -2.0 -32.85 Q-3.45 -33.2 -4.5 -33.85 L-4.55 -35.25 Q-3.55 -35.55 -2.4 -36.0 L-0.55 -36.1 M-4.85 -63.95 L-0.9 -64.1 -0.8 -58.3 -4.8 -58.65 -4.85 -63.95" fill="#ff9f10" fill-rule="evenodd" stroke="none"/>
    <path d="M-29.15 -93.95 Q-28.35 -93.3 -27.15 -92.8 L-27.5 -90.65 Q-27.75 -84.45 -23.7 -82.6 L-23.35 -82.4 Q-22.15 -76.4 -17.0 -71.25 -15.75 -68.0 -16.5 -63.4 L-16.55 -63.25 -17.95 -47.65 -18.75 -46.15 -18.65 -45.6 -18.6 -45.55 -18.5 -45.4 -18.15 -45.1 -18.15 -45.05 -19.6 -29.4 -19.55 -29.45 -19.65 -28.4 -21.25 -29.05 -22.25 -29.45 -22.35 -29.5 -22.75 -29.85 -22.95 -30.15 -23.1 -30.35 Q-23.4 -30.95 -23.15 -31.55 L-21.25 -42.8 Q-20.95 -44.5 -20.55 -49.35 L-20.2 -54.6 -20.05 -56.65 -19.75 -60.35 -19.7 -63.9 -19.7 -65.15 Q-19.6 -68.05 -19.65 -71.25 L-19.65 -71.3 Q-19.7 -73.15 -21.45 -75.1 L-24.75 -78.25 -24.8 -78.3 Q-29.6 -82.8 -29.7 -88.75 L-29.7 -89.4 -29.65 -91.15 -29.6 -91.6 -29.15 -93.95 M11.85 -92.4 L15.35 -93.05 17.35 -93.6 17.8 -93.7 Q18.75 -85.0 18.45 -77.75 L18.45 -77.6 18.65 -74.4 Q17.85 -78.55 18.05 -80.95 17.7 -81.25 17.75 -81.65 17.4 -79.95 16.15 -77.85 14.75 -75.4 14.25 -75.1 L13.05 -75.15 Q12.9 -75.05 12.95 -75.95 13.2 -78.4 14.2 -81.25 15.15 -86.5 15.3 -91.75 15.15 -92.25 15.35 -93.05 14.2 -90.85 12.3 -88.35 L11.0 -86.55 10.8 -90.5 10.8 -90.55 11.05 -90.95 11.25 -91.35 11.85 -92.4 M21.6 -95.65 L22.6 -96.45 22.8 -92.9 Q23.05 -81.75 24.95 -69.25 L25.0 -69.25 25.3 -67.85 25.55 -66.6 27.45 -58.3 27.8 -56.7 27.95 -56.0 28.4 -53.85 29.45 -49.15 29.5 -49.0 33.05 -32.95 33.1 -32.5 33.15 -32.1 33.0 -31.0 32.95 -30.85 32.55 -30.2 32.45 -30.15 32.35 -30.1 31.95 -29.9 Q31.9 -37.15 27.15 -53.4 L27.1 -53.45 Q23.0 -65.7 22.45 -77.6 L22.45 -77.7 22.45 -77.8 Q22.8 -85.85 21.6 -95.65 M22.15 -55.95 L22.85 -53.65 Q20.15 -52.55 19.5 -52.75 L18.2 -52.65 Q17.7 -52.55 17.75 -53.5 17.9 -54.95 22.15 -55.95 M25.45 -44.4 Q27.5 -36.45 27.9 -31.95 27.65 -32.4 27.35 -33.5 26.0 -35.75 24.85 -39.6 L20.15 -38.8 Q19.4 -39.3 19.5 -39.65 L21.45 -40.05 Q22.8 -40.15 24.35 -41.65 24.85 -42.5 24.95 -43.25 L25.35 -44.1 25.45 -44.4 M28.0 -31.05 L27.85 -28.15 27.4 -28.0 24.9 -27.1 24.6 -27.0 24.4 -26.95 23.9 -26.8 19.2 -25.65 16.95 -25.3 17.15 -27.2 17.15 -27.55 17.05 -29.2 18.8 -29.45 27.55 -31.1 27.75 -31.15 27.75 -31.05 27.85 -30.95 28.0 -31.05 M-0.45 -27.85 L4.25 -27.55 4.7 -27.6 9.35 -28.1 13.1 -28.6 13.15 -27.55 12.85 -24.9 11.6 -24.8 5.4 -24.55 3.4 -24.45 2.45 -24.5 2.4 -24.5 2.35 -24.5 0.0 -24.65 -0.45 -27.0 -0.45 -27.85 M-10.15 -114.55 L-7.15 -121.8 -6.85 -122.55 -6.8 -122.8 -4.65 -128.9 -4.7 -129.25 -5.0 -129.5 -5.35 -129.5 -5.6 -129.2 Q-7.1 -124.5 -9.05 -119.7 L-10.95 -115.25 -11.3 -115.6 -11.8 -116.15 -12.1 -116.55 -10.1 -121.95 -10.1 -122.05 -9.1 -128.95 Q-3.55 -132.45 -0.15 -128.55 L-5.4 -121.35 -5.45 -121.2 -8.5 -113.85 -9.55 -114.2 -10.15 -114.55 M-18.85 -81.25 L-14.7 -80.9 -8.1 -80.5 -7.55 -80.55 -7.15 -76.7 -7.05 -76.25 -5.4 -72.15 -5.4 -72.1 Q-8.8 -70.0 -12.4 -69.45 -12.7 -71.5 -13.45 -73.2 L-13.9 -73.8 Q-17.5 -77.3 -18.85 -81.25 M-2.15 -74.7 L-3.25 -77.45 -3.55 -81.0 -0.65 -81.4 Q-0.15 -80.75 -0.05 -79.65 -0.1 -77.0 -2.15 -74.7 M-13.7 -49.9 L-13.4 -53.5 -12.1 -53.4 -8.65 -53.25 Q-8.05 -53.2 -7.4 -51.9 -8.75 -50.7 -13.7 -49.9 M-14.15 -44.95 L-13.6 -44.8 -12.85 -44.6 Q-10.65 -43.6 -10.7 -43.3 L-10.55 -43.15 Q-11.55 -42.05 -13.55 -42.25 L-14.4 -42.25 -14.15 -44.95 M-15.45 -30.75 L-13.25 -30.05 -11.25 -29.5 Q-9.0 -28.65 -4.45 -28.25 L-4.45 -26.95 -4.45 -26.9 -4.2 -25.0 -4.55 -25.0 -4.85 -25.05 -5.15 -25.05 -5.65 -25.1 -5.8 -25.15 -6.0 -25.15 -13.9 -26.5 -15.5 -26.95 Q-15.75 -27.95 -15.6 -29.0 L-15.6 -29.05 -15.45 -30.75" fill="#a43c0a" fill-rule="evenodd" stroke="none"/>
    <path d="M-16.6 -107.55 Q-13.7 -114.95 -11.1 -122.25 L-10.1 -129.3 -10.0 -129.5 -9.85 -129.65 Q-3.1 -134.05 0.85 -128.9 L0.95 -128.6 0.85 -128.3 -0.15 -126.9 -1.3 -125.35 -3.0 -122.95 -4.55 -120.8 Q-6.95 -114.6 -9.8 -108.35 L-11.85 -104.0 -12.0 -103.75 -13.2 -101.35 -13.8 -100.1 -14.8 -98.1 -15.9 -96.0 -16.75 -94.4 -16.95 -94.2 -17.25 -94.15 -21.2 -94.6 -21.45 -94.7 -21.55 -94.8 -21.65 -95.0 -21.6 -95.3 -20.75 -97.25 -20.25 -98.5 -20.0 -99.05 -19.4 -100.6 -19.05 -101.4 -18.3 -103.2 -17.65 -104.85 -17.15 -106.1 -16.6 -107.55 M22.6 -96.45 L23.9 -97.75 23.95 -97.05 24.3 -87.25 Q24.4 -80.1 26.7 -69.6 L26.65 -69.65 27.0 -67.95 27.35 -66.75 30.1 -54.25 33.95 -36.95 34.75 -33.2 Q34.95 -30.1 33.55 -28.95 L33.1 -28.7 32.95 -28.65 32.3 -28.35 32.05 -28.25 31.9 -28.15 31.95 -29.9 32.35 -30.1 32.45 -30.15 32.55 -30.2 32.95 -30.85 33.0 -31.0 33.15 -32.1 33.1 -32.5 33.05 -32.95 29.5 -49.0 29.45 -49.15 28.4 -53.85 27.95 -56.0 27.8 -56.7 27.45 -58.3 25.55 -66.6 25.3 -67.85 25.0 -69.25 24.95 -69.25 Q23.05 -81.75 22.8 -92.9 L22.6 -96.45 M-30.5 -95.35 L-29.15 -93.95 -29.6 -91.6 -29.65 -91.15 -29.7 -89.4 -29.7 -88.75 Q-29.6 -82.8 -24.8 -78.3 L-24.75 -78.25 -21.45 -75.1 Q-19.7 -73.15 -19.65 -71.3 L-19.65 -71.25 Q-19.6 -68.05 -19.7 -65.15 L-19.7 -63.9 -19.75 -60.35 -20.05 -56.65 -20.2 -54.6 -20.55 -49.35 Q-20.95 -44.5 -21.25 -42.8 L-23.15 -31.55 Q-23.4 -30.95 -23.1 -30.35 L-22.95 -30.15 -22.75 -29.85 -22.35 -29.5 -22.25 -29.45 -21.25 -29.05 -19.65 -28.4 -19.5 -26.6 -20.9 -27.1 -21.55 -27.35 -22.25 -27.65 -23.0 -27.95 -23.05 -28.0 -23.4 -28.15 -23.45 -28.15 Q-24.95 -29.5 -24.9 -32.0 L-24.5 -34.6 -22.95 -43.2 -23.0 -43.2 Q-22.7 -44.85 -22.3 -49.6 L-21.95 -54.9 -21.45 -60.65 -21.35 -63.8 -21.35 -65.05 -21.35 -71.2 Q-21.35 -72.65 -22.7 -74.1 L-26.1 -77.2 Q-31.25 -82.15 -31.4 -88.65 -31.5 -92.35 -30.5 -95.35 M-4.55 -107.5 L-1.9 -107.45 -1.85 -107.45 -1.45 -107.35 Q1.0 -106.9 2.25 -105.2 3.5 -103.5 3.0 -101.6 L2.85 -101.15 Q2.0 -99.1 -0.5 -97.95 L-0.45 -97.95 Q-2.65 -96.9 -5.05 -97.15 L-5.55 -97.2 Q-7.0 -97.45 -8.05 -98.0 -9.1 -98.6 -9.75 -99.5 L-9.75 -99.45 -10.35 -100.5 -10.65 -101.9 -10.3 -103.5 -10.1 -103.95 Q-9.2 -105.7 -7.0 -106.75 L-4.55 -107.5 M-7.5 -105.3 L-9.0 -103.9 -9.35 -103.2 -9.4 -103.15 -9.6 -102.5 Q-9.75 -101.55 -9.35 -100.7 L-8.95 -100.1 Q-7.95 -98.85 -6.15 -98.35 L-5.45 -98.2 -5.4 -98.2 Q-4.1 -98.0 -2.85 -98.2 -1.85 -98.4 -0.85 -98.85 L1.5 -100.65 1.6 -100.8 1.6 -100.85 1.95 -101.55 Q2.55 -103.15 1.45 -104.6 L1.3 -104.8 Q0.15 -106.15 -2.0 -106.45 L-3.45 -106.55 -3.7 -106.55 Q-5.2 -106.45 -6.6 -105.8 L-7.5 -105.3 M16.95 -25.3 L19.2 -25.65 23.9 -26.8 24.4 -26.95 24.6 -27.0 24.9 -27.1 27.4 -28.0 27.85 -28.15 27.6 -27.25 27.4 -26.45 27.25 -26.4 24.7 -25.65 23.7 -25.35 22.4 -25.05 21.0 -24.7 20.65 -24.6 16.8 -23.85 16.8 -24.1 16.95 -25.3 M0.0 -24.65 L2.35 -24.5 2.4 -24.5 2.45 -24.5 3.4 -24.45 5.4 -24.55 11.6 -24.8 12.85 -24.9 12.7 -23.55 12.7 -23.35 10.2 -23.2 8.5 -23.1 7.9 -23.1 7.5 -23.1 7.5 -23.05 6.15 -23.05 3.85 -22.95 3.15 -23.0 3.05 -23.0 2.95 -23.0 2.8 -23.0 2.5 -23.0 2.45 -23.0 2.2 -23.05 2.15 -23.05 1.9 -23.05 1.55 -23.1 1.2 -23.1 1.1 -23.1 0.75 -23.15 Q0.3 -23.85 0.0 -24.65 M-4.2 -25.0 L-3.85 -23.5 -3.85 -23.45 -4.1 -23.5 -4.45 -23.5 Q-10.1 -23.95 -14.65 -25.1 -15.25 -25.95 -15.5 -26.95 L-13.9 -26.5 -6.0 -25.15 -5.8 -25.15 -5.65 -25.1 -5.15 -25.05 -4.85 -25.05 -4.55 -25.0 -4.2 -25.0 M-10.95 -115.25 L-9.05 -119.7 Q-7.1 -124.5 -5.6 -129.2 L-5.35 -129.5 -5.0 -129.5 -4.7 -129.25 -4.65 -128.9 -6.8 -122.8 -6.85 -122.55 -7.15 -121.8 -10.15 -114.55 -10.6 -113.65 -10.25 -114.45 -10.6 -114.05 -10.6 -114.0 -11.1 -113.4 -12.45 -111.85 -12.4 -112.15 -11.6 -113.8 -10.95 -115.25 M-8.5 -113.85 L-5.45 -121.2 -5.4 -121.35 -0.15 -128.55 Q-3.55 -132.45 -9.1 -128.95 L-10.1 -122.05 -10.1 -121.95 -12.1 -116.55 -12.65 -115.0 -15.4 -107.85 -16.0 -106.25 -16.7 -104.55 -17.2 -103.3 -18.05 -101.25 -18.35 -100.5 -19.05 -98.8 -19.1 -98.6 -19.65 -97.35 -20.4 -95.5 -19.4 -95.4 -17.45 -95.2 -17.1 -95.85 -15.9 -98.2 -14.9 -100.1 -14.35 -101.2 -13.2 -103.6 -12.95 -104.1 -11.15 -107.85 -9.15 -112.3 -8.5 -113.85" fill="#6a2808" fill-rule="evenodd" stroke="none"/>
    <path d="M1.6 -100.8 L1.5 -100.65 -0.85 -98.85 Q-1.85 -98.4 -2.85 -98.2 -4.1 -98.0 -5.4 -98.2 L-5.45 -98.2 -6.15 -98.35 Q-7.95 -98.85 -8.95 -100.1 L-9.35 -100.7 Q-9.75 -101.55 -9.6 -102.5 L-9.4 -103.15 -9.35 -103.2 -9.0 -103.9 -7.5 -105.3 -7.7 -104.5 -7.6 -103.9 Q-7.35 -103.05 -6.4 -102.15 L-5.3 -101.35 -5.7 -99.6 -3.95 -99.6 -3.7 -100.7 -0.9 -100.4 1.05 -100.7 1.7 -101.0 1.6 -100.8 M11.35 -92.3 L11.85 -92.4 11.25 -91.35 11.05 -90.95 10.8 -90.55 10.7 -92.2 11.35 -92.3 M11.0 -86.55 L12.3 -88.35 Q14.2 -90.85 15.35 -93.05 15.15 -92.25 15.3 -91.75 15.15 -86.5 14.2 -81.25 13.2 -78.4 12.95 -75.95 12.9 -75.05 13.05 -75.15 L14.25 -75.1 Q14.75 -75.4 16.15 -77.85 17.4 -79.95 17.75 -81.65 17.7 -81.25 18.05 -80.95 17.85 -78.55 18.65 -74.4 19.4 -65.3 22.15 -55.95 17.9 -54.95 17.75 -53.5 17.7 -52.55 18.2 -52.65 L19.5 -52.75 Q20.15 -52.55 22.85 -53.65 L23.3 -52.2 23.3 -52.25 25.45 -44.4 25.35 -44.1 24.95 -43.25 Q24.85 -42.5 24.35 -41.65 22.8 -40.15 21.45 -40.05 L19.5 -39.65 Q19.4 -39.3 20.15 -38.8 L24.85 -39.6 Q26.0 -35.75 27.35 -33.5 27.65 -32.4 27.9 -31.95 L28.0 -31.05 27.85 -30.95 27.75 -31.05 27.75 -31.15 27.55 -31.1 18.8 -29.45 17.05 -29.2 16.8 -33.15 Q18.65 -33.9 18.8 -34.65 L18.8 -34.7 Q18.7 -35.7 16.6 -35.75 L16.0 -42.25 16.9 -42.65 17.15 -42.75 Q20.7 -43.95 21.2 -47.35 21.1 -49.55 17.0 -51.75 L16.8 -51.8 15.7 -52.35 14.7 -52.8 14.7 -52.85 14.1 -56.6 16.6 -57.35 Q18.35 -57.7 18.4 -58.95 18.4 -62.75 17.4 -65.45 L17.0 -66.1 16.0 -67.3 Q15.15 -67.95 14.2 -67.9 L12.2 -67.45 10.9 -73.6 11.05 -78.45 11.3 -79.05 12.0 -82.3 Q11.65 -82.85 11.9 -83.4 L11.05 -83.5 11.0 -86.55 M-3.6 -84.8 Q-1.4 -85.1 -0.15 -85.6 3.4 -86.4 6.35 -91.15 L6.75 -91.8 Q7.15 -85.25 7.05 -78.3 L6.9 -78.05 6.85 -78.0 3.65 -72.35 Q3.2 -71.75 -0.95 -69.35 L-0.95 -69.65 -0.95 -69.95 -1.45 -72.95 -1.6 -73.35 -2.15 -74.7 Q-0.1 -77.0 -0.05 -79.65 -0.15 -80.75 -0.65 -81.4 L-3.55 -81.0 -3.6 -84.8 M8.3 -66.35 L5.45 -65.85 5.8 -66.7 6.1 -67.35 7.15 -69.7 7.5 -70.4 8.3 -66.35 M10.3 -55.15 L10.1 -55.3 10.05 -55.35 10.25 -55.4 10.3 -55.15 M-0.75 -52.35 L0.1 -51.8 -0.75 -51.65 -0.75 -52.35 M-0.45 -30.4 L4.25 -30.25 4.7 -30.3 6.4 -30.6 12.9 -31.9 13.1 -28.6 9.35 -28.1 4.7 -27.6 4.25 -27.55 -0.45 -27.85 -0.45 -30.4 M-10.95 -115.25 L-11.6 -113.8 -12.4 -112.15 -12.45 -111.85 -11.1 -113.4 -10.6 -114.0 -12.05 -110.8 Q-12.05 -110.25 -13.6 -107.0 L-14.45 -105.35 -14.95 -104.3 -15.35 -103.55 -16.55 -101.15 -16.95 -100.35 -17.5 -99.3 -17.85 -98.5 -19.35 -95.55 -19.4 -95.4 -20.4 -95.5 -19.65 -97.35 -19.1 -98.6 -19.05 -98.8 -18.35 -100.5 -18.05 -101.25 -17.2 -103.3 -16.7 -104.55 -16.0 -106.25 -15.4 -107.85 -12.65 -115.0 -12.1 -116.55 -11.8 -116.15 -11.3 -115.6 -10.95 -115.25 M-19.65 -85.35 L-18.45 -85.05 -17.0 -84.9 -16.15 -84.85 -15.9 -84.85 -15.45 -84.85 Q-14.85 -84.45 -14.7 -84.75 L-7.65 -84.55 -7.55 -80.55 -8.1 -80.5 -14.7 -80.9 -18.85 -81.25 Q-19.55 -83.25 -19.65 -85.35 M-22.8 -92.2 L-23.1 -91.4 -23.15 -91.15 Q-24.2 -86.6 -23.35 -82.4 L-23.7 -82.6 Q-27.75 -84.45 -27.5 -90.65 L-27.15 -92.8 -25.35 -92.25 -22.8 -92.2 M-18.15 -45.1 L-18.5 -45.4 -18.6 -45.55 -18.65 -45.6 -18.75 -46.15 -17.95 -47.65 -18.15 -45.1 M-4.9 -67.1 L-6.8 -65.9 -8.75 -64.55 Q-11.4 -62.65 -11.55 -61.9 L-11.15 -59.05 -9.75 -58.4 -7.25 -56.65 -4.75 -55.0 -4.7 -51.05 -10.8 -49.9 -10.9 -49.85 -11.05 -49.85 -13.5 -48.65 -13.35 -48.2 Q-12.7 -46.4 -10.25 -44.75 -6.6 -42.45 -4.6 -40.9 L-4.6 -39.65 -10.65 -38.8 Q-11.4 -37.75 -11.55 -34.2 L-11.2 -31.8 -10.7 -31.5 Q-9.85 -31.0 -9.7 -31.25 L-4.5 -30.7 -4.45 -28.25 Q-9.0 -28.65 -11.25 -29.5 L-13.25 -30.05 -15.45 -30.75 -14.4 -42.25 -13.55 -42.25 Q-11.55 -42.05 -10.55 -43.15 L-10.7 -43.3 Q-10.65 -43.6 -12.85 -44.6 L-13.6 -44.8 -14.15 -44.95 -13.7 -49.9 Q-8.75 -50.7 -7.4 -51.9 -8.05 -53.2 -8.65 -53.25 L-12.1 -53.4 -13.4 -53.5 -12.55 -62.9 Q-12.0 -66.5 -12.4 -69.45 -8.8 -70.0 -5.4 -72.1 L-4.95 -69.45 -4.9 -67.1" fill="#bb450c" fill-rule="evenodd" stroke="none"/>
    <path d="M-7.5 -105.3 L-6.6 -105.8 Q-5.2 -106.45 -3.7 -106.55 L-3.45 -106.55 -2.0 -106.45 Q0.15 -106.15 1.3 -104.8 L1.45 -104.6 Q2.55 -103.15 1.95 -101.55 L1.6 -100.85 1.6 -100.8 1.7 -101.0 1.05 -100.7 -0.9 -100.4 -3.7 -100.7 -3.15 -103.5 -1.6 -103.5 -1.3 -104.95 -6.1 -104.95 -6.45 -103.5 -4.9 -103.5 -5.3 -101.35 -6.4 -102.15 Q-7.35 -103.05 -7.6 -103.9 L-7.7 -104.5 -7.5 -105.3 M-0.3 -91.75 L1.65 -91.75 6.75 -91.85 6.75 -91.8 6.35 -91.15 Q3.4 -86.4 -0.15 -85.6 -1.4 -85.1 -3.6 -84.8 L-3.4 -89.3 Q-1.7 -89.75 -0.9 -90.55 L-0.8 -90.65 -0.6 -90.95 -0.3 -91.75 M11.05 -83.5 L11.9 -83.4 Q11.65 -82.85 12.0 -82.3 L11.3 -79.05 11.05 -78.45 11.05 -83.5 M12.2 -67.45 L14.2 -67.9 Q15.15 -67.95 16.0 -67.3 L17.0 -66.1 17.4 -65.45 Q18.4 -62.75 18.4 -58.95 18.35 -57.7 16.6 -57.35 L14.1 -56.6 12.2 -67.45 M14.7 -52.8 L15.7 -52.35 16.8 -51.8 17.0 -51.75 Q21.1 -49.55 21.2 -47.35 20.7 -43.95 17.15 -42.75 L16.9 -42.65 16.0 -42.25 14.7 -52.8 M16.6 -35.75 Q18.7 -35.7 18.8 -34.7 L18.8 -34.65 Q18.65 -33.9 16.8 -33.15 L16.6 -35.75 M-0.95 -69.35 Q3.2 -71.75 3.65 -72.35 L6.85 -78.0 6.9 -78.05 7.05 -78.3 6.85 -73.55 6.9 -73.0 7.5 -70.45 7.5 -70.4 7.15 -69.7 6.1 -67.35 5.8 -66.7 5.45 -65.85 8.3 -66.35 8.95 -63.0 3.75 -63.4 -0.9 -64.1 -0.95 -69.35 M9.65 -59.05 L10.25 -55.4 10.05 -55.35 10.1 -55.3 10.3 -55.15 10.3 -55.1 10.85 -51.3 9.65 -51.75 5.0 -53.45 4.65 -53.55 4.25 -53.7 3.6 -54.05 2.7 -54.1 Q2.7 -52.3 4.25 -50.95 5.85 -48.55 8.8 -48.8 L4.25 -48.2 -0.7 -48.4 -0.75 -51.65 0.1 -51.8 -0.75 -52.35 -0.8 -58.3 -0.4 -58.3 Q5.7 -57.95 9.65 -59.05 M11.7 -44.75 L12.55 -36.4 11.0 -38.45 Q8.15 -41.0 6.9 -42.75 L11.7 -44.75 M12.75 -33.7 L12.9 -31.9 6.4 -30.6 4.7 -30.3 4.25 -30.25 -0.45 -30.4 -0.5 -32.3 2.0 -31.9 4.25 -31.7 4.7 -31.8 Q6.55 -32.15 8.7 -33.05 L11.85 -33.35 12.05 -33.35 12.25 -33.4 12.75 -33.7 M-0.6 -39.55 L4.05 -35.9 3.0 -36.0 -0.55 -36.1 -0.6 -39.55 M-10.6 -114.0 L-10.6 -114.05 -10.25 -114.45 -10.6 -113.65 -10.15 -114.55 -9.55 -114.2 -8.5 -113.85 -9.15 -112.3 -11.15 -107.85 -12.95 -104.1 -13.2 -103.6 -14.35 -101.2 -14.9 -100.1 -15.9 -98.2 -17.1 -95.85 -17.45 -95.2 -19.4 -95.4 -19.35 -95.55 -17.85 -98.5 -17.5 -99.3 -16.95 -100.35 -16.55 -101.15 -15.35 -103.55 -14.95 -104.3 -14.45 -105.35 -13.6 -107.0 Q-12.05 -110.25 -12.05 -110.8 L-10.6 -114.0 M-19.55 -88.65 L-17.4 -88.4 -16.6 -88.35 -14.6 -88.25 -7.45 -88.55 -7.65 -84.55 -14.7 -84.75 Q-14.85 -84.45 -15.45 -84.85 L-15.9 -84.85 -16.15 -84.85 -17.0 -84.9 -18.45 -85.05 -19.65 -85.35 -19.55 -88.65 M-4.9 -67.1 L-4.85 -63.95 Q-6.45 -63.55 -6.8 -62.55 L-6.85 -62.5 Q-7.2 -59.35 -6.05 -59.05 L-5.9 -59.0 -5.65 -58.9 -4.8 -58.6 -4.75 -55.0 -7.25 -56.65 -9.75 -58.4 -11.15 -59.05 -11.55 -61.9 Q-11.4 -62.65 -8.75 -64.55 L-6.8 -65.9 -4.9 -67.1 M-4.7 -51.05 L-4.7 -48.45 -9.4 -48.0 -9.25 -47.55 -9.2 -47.5 -9.05 -47.2 -5.45 -43.5 -4.6 -42.85 -4.6 -40.9 Q-6.6 -42.45 -10.25 -44.75 -12.7 -46.4 -13.35 -48.2 L-13.5 -48.65 -11.05 -49.85 -10.9 -49.85 -10.8 -49.9 -4.7 -51.05 M-4.5 -30.7 L-9.7 -31.25 Q-9.85 -31.0 -10.7 -31.5 L-11.2 -31.8 -11.55 -34.2 Q-11.4 -37.75 -10.65 -38.8 L-4.6 -39.65 -4.55 -35.25 -5.8 -34.9 -5.65 -34.75 -4.5 -33.85 -4.5 -30.7" fill="#d34e0e" fill-rule="evenodd" stroke="none"/>
    <path d="M-18.6 -92.1 L-7.15 -91.9 -7.45 -88.55 -14.6 -88.25 -16.6 -88.35 -17.4 -88.4 -19.55 -88.65 -19.3 -90.1 -18.6 -92.1 M-3.15 -91.8 L-0.3 -91.75 -0.6 -90.95 -0.8 -90.65 -0.9 -90.55 Q-1.7 -89.75 -3.4 -89.3 L-3.15 -91.8 M-0.9 -64.1 L3.75 -63.4 8.95 -63.0 9.65 -59.05 Q5.7 -57.95 -0.4 -58.3 L-0.8 -58.3 -0.9 -64.1 M-0.7 -48.4 L4.25 -48.2 8.8 -48.8 Q5.85 -48.55 4.25 -50.95 2.7 -52.3 2.7 -54.1 L3.6 -54.05 4.25 -53.7 4.65 -53.55 5.0 -53.45 9.65 -51.75 10.85 -51.3 11.7 -44.75 6.9 -42.75 Q8.15 -41.0 11.0 -38.45 L12.55 -36.4 12.75 -33.7 12.25 -33.4 12.05 -33.35 11.85 -33.35 8.7 -33.05 Q6.55 -32.15 4.7 -31.8 L4.25 -31.7 2.0 -31.9 -0.5 -32.3 -0.55 -36.1 3.0 -36.0 4.05 -35.9 -0.6 -39.55 -0.7 -48.4 M-4.7 -48.45 L-4.6 -42.85 -5.45 -43.5 -9.05 -47.2 -9.2 -47.5 -9.25 -47.55 -9.4 -48.0 -4.7 -48.45 M-4.8 -58.65 L-4.8 -58.6 -5.65 -58.9 -5.9 -59.0 -6.05 -59.05 Q-7.2 -59.35 -6.85 -62.5 L-6.8 -62.55 Q-6.45 -63.55 -4.85 -63.95 L-4.8 -58.65 M-4.5 -33.85 L-5.65 -34.75 -5.8 -34.9 -4.55 -35.25 -4.5 -33.85" fill="#ef5911" fill-rule="evenodd" stroke="none"/>
  </g>
</svg>
