<?xml version="1.0" encoding="UTF-8" standalone="no"?>
<svg xmlns:ffdec="https://www.free-decompiler.com/flash" xmlns:xlink="http://www.w3.org/1999/xlink" ffdec:objectType="shape" height="63.15px" width="20.2px" xmlns="http://www.w3.org/2000/svg">
  <g transform="matrix(1.0, 0.0, 0.0, 1.0, 7.95, 1.95)">
    <path d="M6.3 44.3 L7.9 43.85 8.55 52.25 Q8.55 55.6 6.6 55.6 3.05 55.6 0.65 44.55 L3.7 44.65 4.2 46.45 Q5.05 49.0 5.55 49.55 6.3 49.8 6.5 49.2 L6.65 47.75 6.3 44.3" fill="#3c3c3c" fill-rule="evenodd" stroke="none"/>
    <path d="M3.7 44.65 L4.75 44.55 6.3 44.3 6.65 47.75 6.5 49.2 Q6.3 49.8 5.55 49.55 5.05 49.0 4.2 46.45 L3.7 44.65" fill="#4e4e4e" fill-rule="evenodd" stroke="none"/>
    <path d="M3.7 44.65 L3.15 42.0 2.85 39.8 2.25 35.2 1.7 30.7 1.2 26.45 0.65 21.9 0.15 17.3 -0.3 12.55 -0.7 8.15 -0.8 7.35 Q-0.8 6.05 -0.4 4.65 L0.3 3.05 0.6 2.55 1.1 2.9 Q2.35 4.0 3.1 7.4 L3.65 11.75 3.65 11.95 3.9 16.8 3.95 21.5 3.95 21.55 4.4 26.05 4.8 30.35 5.3 34.85 5.75 39.45 6.3 44.3 4.75 44.55 3.7 44.65" fill="#ffffff" fill-rule="evenodd" stroke="none"/>
    <path d="M3.1 -1.95 L3.7 2.0 4.25 6.95 4.8 11.55 5.3 16.35 5.75 20.95 6.2 25.55 6.3 26.65 6.6 29.8 7.05 34.35 7.45 38.95 7.9 43.85 6.3 44.3 5.75 39.45 5.3 34.85 4.8 30.35 4.4 26.05 3.95 21.55 3.95 21.5 3.9 16.8 3.65 11.95 3.65 11.75 3.1 7.4 Q2.35 4.0 1.1 2.9 L0.6 2.55 0.3 3.05 -0.4 4.65 Q-0.8 6.05 -0.8 7.35 L-0.7 8.15 -0.3 12.55 0.15 17.3 0.65 21.9 1.2 26.45 1.7 30.7 2.25 35.2 2.85 39.8 3.15 42.0 3.7 44.65 0.65 44.55 -0.25 39.65 -0.95 34.95 -1.0 34.55 -1.45 30.45 -1.85 26.2 -2.2 21.8 -2.55 17.25 -2.95 12.55 -3.25 8.2 -3.6 3.4 -3.95 -1.05 Q0.75 -2.1 3.1 -1.95" fill="#e0e0e0" fill-rule="evenodd" stroke="none"/>
    <path d="M3.1 -1.95 L4.9 -1.65 4.9 -1.55 5.2 1.05 5.75 6.05 6.2 10.75 6.7 15.65 7.15 20.25 7.65 24.95 7.75 26.15 8.05 29.2 8.55 33.7 9.0 38.3 9.45 43.2 7.9 43.85 7.45 38.95 7.05 34.35 6.6 29.8 6.3 26.65 6.2 25.55 5.75 20.95 5.3 16.35 4.8 11.55 4.25 6.95 3.7 2.0 3.1 -1.95 M-6.8 0.2 L-3.95 -1.05 -3.6 3.4 -3.25 8.2 -2.95 12.55 -2.55 17.25 -2.2 21.8 -1.85 26.2 -1.45 30.45 -1.0 34.55 -0.95 34.95 -0.25 39.65 0.65 44.55 -0.9 44.15 -4.4 16.75 -6.5 0.2 -6.8 0.2" fill="#b4b4b4" fill-rule="evenodd" stroke="none"/>
    <path d="M7.9 43.85 L9.45 43.2 9.0 38.3 8.55 33.7 8.05 29.2 7.75 26.15 7.65 24.95 7.15 20.25 6.7 15.65 6.2 10.75 5.75 6.05 5.2 1.05 4.9 -1.55 4.9 -1.65 Q6.4 -1.3 6.6 -0.75 L12.1 54.6 Q12.1 57.3 10.15 59.25 8.25 61.2 5.5 61.2 2.65 61.2 0.6 59.05 -1.3 57.1 -1.05 55.2 L-7.95 1.4 Q-7.8 0.85 -6.8 0.2 L-6.5 0.2 -4.4 16.75 -0.9 44.15 0.65 44.55 Q3.05 55.6 6.6 55.6 8.55 55.6 8.55 52.25 L7.9 43.85" fill="#464646" fill-rule="evenodd" stroke="none"/>
    <path d="M-1.9 46.6 L-2.15 45.7 Q-1.25 44.75 1.65 44.1 L7.65 43.45 10.65 43.9 10.7 43.9 11.1 44.35 11.05 52.8 9.8 52.2 9.95 44.75 Q8.7 44.1 7.6 44.45 L7.7 51.8 7.55 51.8 6.05 51.9 5.75 44.65 3.7 44.85 4.45 52.1 3.1 52.4 1.8 45.25 Q0.8 45.1 0.15 45.75 L1.6 52.9 Q1.0 53.1 0.55 53.4 L-1.25 46.6 -1.9 46.6" fill="#e0e0e0" fill-rule="evenodd" stroke="none"/>
    <path d="M9.8 52.2 L7.7 51.8 7.6 44.45 Q8.7 44.1 9.95 44.75 L9.8 52.2 M6.05 51.9 L4.45 52.1 3.7 44.85 5.75 44.65 6.05 51.9 M3.1 52.4 L2.5 52.6 1.6 52.9 0.15 45.75 Q0.8 45.1 1.8 45.25 L3.1 52.4 M0.55 53.4 L-0.35 53.95 -1.9 46.6 -1.25 46.6 0.55 53.4" fill="#b4b4b4" fill-rule="evenodd" stroke="none"/>
    <path d="M9.8 52.2 L11.05 52.8 11.1 44.35 10.7 43.9 10.65 43.9 7.65 43.45 1.65 44.1 Q-1.25 44.75 -2.15 45.7 L-1.9 46.6 -0.35 53.95 0.55 53.4 Q1.0 53.1 1.6 52.9 L2.5 52.6 3.1 52.4 4.45 52.1 6.05 51.9 7.55 51.8 7.7 51.8 9.8 52.2 M-3.35 45.75 L-3.35 45.65 -3.35 45.5 -3.3 45.35 -3.2 45.2 -3.2 45.15 Q-2.25 43.75 1.45 42.95 L7.65 42.25 Q10.25 42.25 11.25 42.9 11.95 43.25 12.25 44.0 L12.25 44.1 12.25 44.25 12.2 53.55 12.1 53.95 12.05 54.05 Q11.35 55.2 9.25 56.05 6.95 57.1 3.85 57.1 0.55 57.1 -1.15 55.2 L-1.2 55.15 -1.3 55.05 -1.35 54.85 -3.35 45.75" fill="#464646" fill-rule="evenodd" stroke="none"/>
  </g>
</svg>
