<?xml version="1.0" encoding="UTF-8" standalone="no"?>
<svg xmlns:ffdec="https://www.free-decompiler.com/flash" xmlns:xlink="http://www.w3.org/1999/xlink" ffdec:objectType="shape" height="118.3px" width="96.8px" xmlns="http://www.w3.org/2000/svg">
  <g transform="matrix(1.0, 0.0, 0.0, 1.0, 48.0, 56.4)">
    <path d="M32.25 -17.8 L30.75 -15.25 29.9 -12.55 Q27.3 -12.05 23.25 -10.75 L19.35 -9.65 Q18.75 -9.65 17.65 -10.55 L16.65 -11.5 Q19.3 -15.2 23.7 -16.55 L32.25 -17.8 M29.8 -8.65 L31.25 -2.4 25.3 -0.2 25.05 -0.25 20.95 0.7 20.0 0.9 Q21.6 -0.55 23.55 -3.3 L26.2 -6.85 Q26.15 -7.05 25.55 -7.05 L29.8 -8.65 M31.75 0.25 L31.95 2.8 Q31.95 3.45 31.35 4.15 L30.6 4.8 29.35 3.65 27.3 3.8 25.55 4.3 25.2 4.55 22.15 4.7 Q22.9 3.85 26.05 2.3 29.45 0.65 31.75 0.25 M-20.6 -33.4 Q-17.3 -32.15 -15.75 -29.35 -14.05 -27.65 -14.05 -26.3 -14.05 -25.7 -14.3 -25.45 -14.9 -25.3 -19.8 -27.25 L-20.2 -31.05 -20.6 -33.4 M-23.6 -20.1 Q-23.55 -18.4 -26.1 -17.25 L-26.15 -17.2 -23.6 -20.1 M-33.9 -1.85 L-30.4 -5.45 Q-27.85 -7.75 -26.05 -7.75 -25.4 -7.75 -25.0 -7.0 L-24.75 -6.25 -34.3 1.75 -35.25 0.95 -35.5 0.55 Q-35.25 -0.3 -33.9 -1.85 M-11.4 -38.8 L-7.65 -37.0 Q-7.85 -36.45 -9.55 -35.35 -11.1 -34.35 -11.05 -33.25 L-11.4 -33.25 Q-13.85 -33.6 -16.45 -36.15 -19.5 -39.15 -17.45 -41.35 L-12.5 -39.3 -11.4 -38.8 M-1.35 -28.55 L-1.5 -28.7 -3.6 -30.75 -5.8 -32.65 4.25 -31.45 Q6.3 -31.0 8.55 -29.8 L10.9 -27.6 11.8 -27.7 5.75 -26.35 2.9 -26.75 Q0.15 -27.35 -1.35 -28.55 M-3.4 -41.85 Q-0.9 -40.05 0.35 -38.45 2.9 -35.25 -2.8 -35.8 L-3.4 -41.85 M-20.15 -12.95 L-24.0 -13.3 -20.75 -17.45 Q-20.3 -15.7 -20.1 -13.05 L-20.15 -12.95 M-7.5 -17.7 L-2.75 -18.5 -12.75 15.05 -17.1 17.6 Q-13.75 14.2 -13.75 5.75 L-14.45 -3.1 -14.55 -5.05 Q-14.55 -7.15 -14.15 -8.95 -13.5 -12.3 -11.65 -14.65 L-11.4 -14.95 Q-9.75 -16.85 -7.5 -17.7 M-8.3 19.9 L-8.15 22.35 Q-8.15 24.6 -9.4 28.35 -10.65 31.95 -11.9 33.8 L-12.05 34.0 -15.3 33.9 -15.4 33.5 Q-12.1 30.4 -10.75 26.65 -9.55 22.4 -8.3 19.9 M-13.4 -19.75 Q-12.9 -19.4 -12.9 -18.9 -12.9 -18.4 -13.4 -18.0 -13.95 -17.65 -14.65 -17.65 -15.35 -17.65 -15.85 -18.0 -16.4 -18.4 -16.4 -18.9 -16.4 -19.4 -15.85 -19.75 -15.35 -20.15 -14.65 -20.15 -13.95 -20.15 -13.4 -19.75 M23.75 -40.4 Q27.85 -36.65 28.35 -32.35 28.6 -30.1 28.2 -27.75 34.35 -22.65 34.4 -22.05 31.8 -21.4 28.1 -23.55 24.0 -26.0 23.4 -29.95 L20.9 -25.9 20.55 -25.25 19.6 -25.0 Q19.25 -25.2 18.95 -26.15 18.65 -27.1 18.65 -27.85 18.65 -28.2 18.8 -28.55 19.2 -29.3 19.85 -32.0 L22.0 -38.9 22.05 -38.65 22.3 -37.55 Q22.65 -38.8 23.75 -40.4 M35.4 -30.3 Q35.1 -32.05 37.9 -33.4 40.6 -34.75 42.15 -33.85 40.6 -31.85 39.1 -31.0 37.35 -30.0 35.4 -30.3 M15.8 -42.65 L19.4 -45.25 Q20.05 -44.15 20.2 -42.65 20.3 -40.5 19.55 -37.7 18.85 -35.1 16.35 -29.4 14.65 -30.9 13.35 -33.4 12.3 -35.45 12.3 -36.3 12.3 -38.55 14.1 -40.85 L15.8 -42.65 M9.25 -37.55 Q9.25 -35.25 6.65 -34.65 L5.4 -39.55 4.7 -42.65 Q4.25 -44.55 4.45 -44.9 5.95 -44.05 7.1 -42.65 L8.05 -41.15 Q9.25 -38.9 9.25 -37.55 M14.2 -17.35 Q14.4 -16.35 14.2 -15.35 13.8 -13.5 10.5 -8.65 L11.2 -8.9 12.65 -9.2 14.55 -8.75 17.25 -7.9 12.55 -5.7 7.25 -5.25 Q7.25 -6.9 8.2 -9.85 L11.45 -15.05 Q13.55 -17.0 14.2 -17.35 M16.35 -1.15 Q14.35 1.35 11.05 2.25 10.3 2.0 10.25 1.05 10.6 0.1 12.9 -1.8 15.75 -4.15 18.0 -4.2 17.6 -2.7 16.35 -1.15 M4.75 1.15 Q5.75 -0.5 5.65 0.15 7.05 2.45 8.25 7.3 9.75 13.5 8.75 17.3 L6.45 23.95 4.75 33.35 2.0 27.25 Q0.35 23.0 0.35 19.8 0.35 16.2 1.3 11.55 2.55 5.35 4.95 0.95 L4.75 1.15 M-24.8 3.4 L-26.1 5.95 -26.6 6.65 -27.25 7.2 -28.0 6.85 -25.2 2.35 -24.8 3.4 M-23.1 27.95 Q-23.05 26.9 -18.4 22.55 L-18.4 29.05 Q-23.15 29.05 -23.1 27.95" fill="#ffffff" fill-rule="evenodd" stroke="none"/>
    <path d="M42.95 -28.1 L42.9 -27.8 42.65 -27.5 42.1 -27.15 41.85 -27.15 42.9 -28.0 42.95 -28.1 M38.1 -21.65 L32.25 -17.8 23.7 -16.55 Q19.3 -15.2 16.65 -11.5 L17.65 -10.55 Q18.75 -9.65 19.35 -9.65 L23.25 -10.75 Q27.3 -12.05 29.9 -12.55 L29.8 -8.65 25.55 -7.05 Q23.05 -5.35 20.25 -1.8 17.85 1.15 17.15 2.8 22.45 2.75 24.05 1.9 25.0 1.45 25.3 -0.2 L31.25 -2.4 31.75 0.25 Q29.45 0.65 26.05 2.3 22.9 3.85 22.15 4.7 L25.2 4.55 21.45 8.0 21.2 8.45 21.1 8.65 16.4 17.0 Q14.05 22.2 14.05 28.85 14.05 37.85 18.65 46.4 15.5 45.5 9.5 42.3 3.7 39.15 3.0 39.0 2.1 40.3 0.05 44.9 0.65 43.5 -1.15 41.2 -2.9 39.0 -6.0 37.0 -7.35 40.75 -10.7 45.55 -13.6 49.65 -15.4 51.25 L-17.5 38.95 Q-18.0 36.55 -18.5 35.6 -18.85 36.45 -21.65 38.95 L-25.65 42.25 Q-24.2 35.3 -25.65 31.7 -26.1 30.55 -26.8 29.9 -27.3 29.45 -27.5 29.45 L-29.7 30.25 -32.95 31.45 -21.2 7.1 -26.7 12.1 -31.95 17.25 -32.05 14.95 Q-32.05 8.3 -28.3 3.3 -26.7 1.2 -21.7 -3.0 -27.4 -1.4 -33.05 4.25 -37.85 9.05 -39.05 12.6 L-37.4 6.75 -35.25 0.95 -34.3 1.75 -24.75 -6.25 -25.0 -7.0 Q-25.4 -7.75 -26.05 -7.75 -27.85 -7.75 -30.4 -5.45 L-33.9 -1.85 Q-32.15 -4.65 -30.35 -8.35 L-30.05 -8.95 Q-28.3 -12.65 -28.3 -13.85 L-28.3 -14.55 -28.8 -14.5 -26.15 -17.2 -26.1 -17.25 Q-23.55 -18.4 -23.6 -20.1 L-23.6 -20.15 -21.35 -23.05 -18.8 -21.7 -20.0 -25.0 -19.7 -25.5 -19.8 -27.25 Q-14.9 -25.3 -14.3 -25.45 L-11.25 -22.05 -10.65 -22.5 Q-10.05 -23.1 -10.05 -23.75 -10.05 -25.6 -11.4 -27.7 L-11.9 -28.45 Q-13.45 -30.6 -15.15 -31.7 L-15.75 -29.35 Q-17.3 -32.15 -20.6 -33.4 L-21.15 -35.65 -20.85 -35.5 -16.25 -32.8 -23.7 -44.05 -20.8 -44.1 Q-16.4 -44.1 -12.75 -42.65 L-11.85 -42.2 -11.4 -41.95 Q-8.65 -40.4 -5.25 -37.15 L-4.8 -38.25 Q-4.55 -40.4 -5.55 -42.65 -6.05 -43.7 -6.9 -44.75 -9.0 -47.35 -11.4 -48.55 L-11.4 -48.6 Q-8.85 -48.2 -3.1 -44.5 L-0.4 -42.65 Q2.55 -40.25 3.0 -39.15 L1.95 -42.65 -1.45 -52.3 9.0 -42.65 10.3 -41.25 11.05 -41.9 10.45 -42.65 9.7 -43.45 Q8.35 -45.0 8.35 -45.6 8.35 -46.45 9.85 -49.5 L11.8 -42.2 Q12.45 -42.2 13.25 -42.65 14.9 -43.5 17.15 -46.2 20.05 -49.7 20.45 -51.8 20.15 -49.15 21.0 -44.2 L21.35 -42.65 22.0 -38.9 19.85 -32.0 Q17.95 -30.4 16.75 -26.0 15.9 -23.0 15.9 -21.7 18.65 -21.85 20.55 -22.6 22.75 -23.45 25.25 -25.5 L20.9 -25.9 23.4 -29.95 Q24.0 -26.0 28.1 -23.55 31.8 -21.4 34.4 -22.05 34.35 -22.65 28.2 -27.75 28.6 -30.1 28.35 -32.35 27.85 -36.65 23.75 -40.4 L26.1 -42.65 29.55 -45.6 30.0 -42.65 30.25 -40.4 36.25 -42.65 38.2 -43.3 37.65 -42.65 Q36.1 -40.5 35.35 -38.8 34.3 -36.4 33.6 -32.55 35.25 -32.0 36.8 -33.7 38.2 -35.25 38.25 -36.9 L40.6 -36.75 42.9 -36.15 44.5 -34.7 42.9 -30.9 39.9 -28.9 Q37.4 -27.65 33.25 -27.1 L38.1 -21.65 M-11.4 -38.8 L-12.5 -39.3 -17.45 -41.35 Q-19.5 -39.15 -16.45 -36.15 -13.85 -33.6 -11.4 -33.25 L-11.05 -33.25 Q-11.1 -34.35 -9.55 -35.35 -7.85 -36.45 -7.65 -37.0 L-11.4 -38.8 M8.55 -29.8 Q2.7 -33.55 -2.25 -33.55 L-8.6 -32.7 Q-5.5 -30.5 -2.0 -26.95 -2.85 -24.45 -1.55 -19.6 -0.15 -14.7 2.35 -11.5 5.8 -16.45 6.4 -21.65 5.85 -22.25 3.4 -20.65 2.85 -22.5 0.8 -25.65 L-1.35 -28.55 Q0.15 -27.35 2.9 -26.75 L5.75 -26.35 11.8 -27.7 10.9 -27.6 8.55 -29.8 M-3.4 -41.85 L-2.8 -35.8 Q2.9 -35.25 0.35 -38.45 -0.9 -40.05 -3.4 -41.85 M-20.75 -17.45 L-20.0 -18.5 -22.85 -15.75 -25.5 -12.85 Q-25.35 -12.65 -23.95 -12.2 L-22.6 -11.85 -25.0 -8.5 -23.05 -7.85 -21.0 -7.5 Q-18.95 -7.95 -17.4 -8.95 -16.15 -9.75 -15.2 -10.9 L-14.55 -5.05 -14.45 -3.1 Q-14.25 2.7 -15.7 8.0 -17.25 13.55 -20.9 19.2 L-18.6 19.45 Q-17.45 19.45 -15.25 18.4 -13.25 17.45 -12.1 16.5 L-12.75 21.05 -11.15 20.9 -10.05 20.65 -14.35 27.75 Q-15.65 30.25 -15.95 31.8 -16.5 34.2 -15.15 35.25 L-13.05 41.35 Q-10.7 40.35 -8.65 37.2 -6.35 33.6 -6.45 30.0 -6.5 29.2 -6.95 28.85 L-7.4 28.7 -9.75 31.55 -11.9 33.8 Q-10.65 31.95 -9.4 28.35 -8.15 24.6 -8.15 22.35 L-8.3 19.9 -8.25 19.25 Q-4.85 15.85 -2.6 9.2 -0.3 2.6 -0.3 -3.8 L-0.7 -7.95 Q-1.15 -11.7 -1.75 -13.8 L-8.05 10.15 Q-8.85 12.35 -12.75 15.05 L-2.75 -18.5 -7.5 -17.7 Q-9.7 -17.25 -11.4 -16.0 -13.55 -14.5 -14.8 -11.85 L-20.1 -13.05 Q-20.3 -15.7 -20.75 -17.45 M-13.4 -19.75 Q-13.95 -20.15 -14.65 -20.15 -15.35 -20.15 -15.85 -19.75 -16.4 -19.4 -16.4 -18.9 -16.4 -18.4 -15.85 -18.0 -15.35 -17.65 -14.65 -17.65 -13.95 -17.65 -13.4 -18.0 -12.9 -18.4 -12.9 -18.9 -12.9 -19.4 -13.4 -19.75 M35.4 -30.3 Q37.35 -30.0 39.1 -31.0 40.6 -31.85 42.15 -33.85 40.6 -34.75 37.9 -33.4 35.1 -32.05 35.4 -30.3 M15.8 -42.65 L14.1 -40.85 Q12.3 -38.55 12.3 -36.3 12.3 -35.45 13.35 -33.4 14.65 -30.9 16.35 -29.4 18.85 -35.1 19.55 -37.7 20.3 -40.5 20.2 -42.65 20.05 -44.15 19.4 -45.25 L15.8 -42.65 M9.25 -37.55 Q9.25 -38.9 8.05 -41.15 L7.1 -42.65 Q5.95 -44.05 4.45 -44.9 4.25 -44.55 4.7 -42.65 L5.4 -39.55 6.65 -34.65 Q9.25 -35.25 9.25 -37.55 M14.2 -17.35 L14.9 -17.4 14.85 -18.5 Q11.05 -16.0 8.05 -10.55 5.5 -5.9 5.35 -3.15 L8.5 -2.8 Q11.45 -2.8 14.0 -4.35 15.35 -5.2 16.65 -6.4 L15.75 -6.75 12.55 -5.7 17.25 -7.9 14.55 -8.75 12.65 -9.2 11.2 -8.9 10.5 -8.65 Q13.8 -13.5 14.2 -15.35 14.4 -16.35 14.2 -17.35 M20.0 -22.2 L20.0 -20.25 28.05 -20.25 28.05 -22.2 20.0 -22.2 M16.35 -1.15 Q17.6 -2.7 18.0 -4.2 15.75 -4.15 12.9 -1.8 10.6 0.1 10.25 1.05 10.3 2.0 11.05 2.25 14.35 1.35 16.35 -1.15 M13.95 11.45 Q14.8 9.9 14.25 7.15 L13.3 3.85 8.75 17.3 Q9.75 13.5 8.25 7.3 7.05 2.45 5.65 0.15 5.75 -0.5 4.75 1.15 1.35 5.7 -0.05 10.95 -1.2 15.2 -1.2 21.05 -1.2 27.8 1.7 32.35 3.3 34.8 6.1 37.35 7.15 39.15 8.9 40.2 10.7 41.3 12.6 41.2 12.3 39.95 11.5 33.1 L10.7 26.35 Q13.25 13.7 13.9 11.7 L13.95 11.45 M-20.7 0.2 Q-22.45 2.4 -22.25 3.05 L-19.7 1.2 Q-19.0 0.35 -18.45 -1.85 -18.95 -1.95 -20.7 0.2 M-24.8 3.4 L-25.2 2.35 -28.0 6.85 -27.25 7.2 -26.6 6.65 -26.1 5.95 -24.8 3.4 M-23.1 27.95 Q-23.15 29.05 -18.4 29.05 L-18.4 22.55 Q-23.05 26.9 -23.1 27.95" fill="#d1d1d1" fill-rule="evenodd" stroke="none"/>
    <path d="M41.6 -26.15 Q41.35 -25.5 39.95 -23.75 L38.1 -21.65 33.25 -27.1 Q37.4 -27.65 39.9 -28.9 L42.9 -30.9 44.5 -34.7 42.9 -36.15 40.6 -36.75 38.25 -36.9 Q38.2 -35.25 36.8 -33.7 35.25 -32.0 33.6 -32.55 34.3 -36.4 35.35 -38.8 36.1 -40.5 37.65 -42.65 L38.2 -43.3 36.25 -42.65 30.25 -40.4 30.0 -42.65 29.55 -45.6 26.1 -42.65 23.75 -40.4 Q22.65 -38.8 22.3 -37.55 L22.05 -38.65 22.0 -38.9 21.35 -42.65 21.0 -44.2 Q20.15 -49.15 20.45 -51.8 20.05 -49.7 17.15 -46.2 14.9 -43.5 13.25 -42.65 12.45 -42.2 11.8 -42.2 L9.85 -49.5 Q8.35 -46.45 8.35 -45.6 8.35 -45.0 9.7 -43.45 L10.45 -42.65 11.05 -41.9 10.3 -41.25 9.0 -42.65 -1.45 -52.3 1.95 -42.65 3.0 -39.15 Q2.55 -40.25 -0.4 -42.65 L-3.1 -44.5 Q-8.85 -48.2 -11.4 -48.6 L-11.4 -48.55 Q-9.0 -47.35 -6.9 -44.75 -6.05 -43.7 -5.55 -42.65 -4.55 -40.4 -4.8 -38.25 L-5.25 -37.15 Q-8.65 -40.4 -11.4 -41.95 L-11.85 -42.2 -12.75 -42.65 Q-16.4 -44.1 -20.8 -44.1 L-23.7 -44.05 -16.25 -32.8 -20.85 -35.5 -21.15 -35.65 -20.6 -33.4 -20.2 -31.05 -19.8 -27.25 -19.7 -25.5 -20.0 -25.0 -18.8 -21.7 -21.35 -23.05 -23.6 -20.15 -23.6 -20.1 -26.15 -17.2 -28.8 -14.5 -28.3 -14.55 -28.3 -13.85 Q-28.3 -12.65 -30.05 -8.95 L-30.35 -8.35 Q-32.15 -4.65 -33.9 -1.85 -35.25 -0.3 -35.5 0.55 L-35.25 0.95 -37.4 6.75 -39.05 12.6 Q-37.85 9.05 -33.05 4.25 -27.4 -1.4 -21.7 -3.0 -26.7 1.2 -28.3 3.3 -32.05 8.3 -32.05 14.95 L-31.95 17.25 -26.7 12.1 -21.2 7.1 -32.95 31.45 -29.7 30.25 -27.5 29.45 Q-27.3 29.45 -26.8 29.9 -26.1 30.55 -25.65 31.7 -24.2 35.3 -25.65 42.25 L-21.65 38.95 Q-18.85 36.45 -18.5 35.6 -18.0 36.55 -17.5 38.95 L-15.4 51.25 Q-13.6 49.65 -10.7 45.55 -7.35 40.75 -6.0 37.0 -2.9 39.0 -1.15 41.2 0.65 43.5 0.05 44.9 2.1 40.3 3.0 39.0 3.7 39.15 9.5 42.3 15.5 45.5 18.65 46.4 14.05 37.85 14.05 28.85 14.05 22.2 16.4 17.0 L21.1 8.65 Q18.85 12.95 17.65 19.65 16.85 24.35 16.85 27.3 16.85 42.9 31.25 52.15 L28.35 52.85 25.45 53.15 Q22.8 53.15 18.65 51.1 L15.0 49.0 14.15 49.2 14.05 49.35 14.0 52.15 Q14.0 54.5 14.25 55.4 L15.35 58.85 Q9.65 56.85 6.9 51.6 5.1 46.5 4.0 45.85 L3.9 45.95 1.55 51.85 Q-0.3 56.6 -1.5 57.75 -3.25 44.0 -5.6 44.0 -6.35 44.0 -11.65 50.5 -17.4 57.5 -20.0 58.85 L-20.25 48.7 Q-20.35 44.75 -21.85 44.75 -22.25 44.75 -26.95 49.4 -31.95 54.3 -34.65 55.0 -33.7 54.05 -32.1 47.65 -30.5 41.0 -30.5 37.4 L-30.65 36.05 -31.75 35.75 Q-34.4 37.2 -36.45 38.75 -38.4 39.9 -43.55 41.4 -41.25 37.45 -37.85 26.1 L-34.6 15.25 -34.6 15.5 -35.9 26.5 Q-32.05 24.75 -29.3 19.55 -27.75 16.55 -27.1 13.9 L-28.05 15.45 Q-29.6 18.6 -34.15 23.55 L-33.85 23.15 -33.2 20.2 -32.75 16.9 -34.2 11.6 Q-34.85 12.85 -38.05 15.05 -42.0 17.8 -44.45 17.15 -34.8 -6.8 -34.8 -8.35 L-35.1 -8.9 -35.15 -8.95 -36.2 -9.8 -41.55 -8.55 Q-40.05 -11.05 -38.1 -12.95 -36.15 -14.85 -34.8 -15.4 L-31.65 -17.5 -28.2 -20.1 -29.5 -28.5 -25.9 -29.3 -28.2 -34.3 -24.4 -35.2 Q-23.6 -39.4 -24.5 -42.8 L-24.45 -42.8 -24.5 -42.85 -25.2 -45.75 -15.5 -45.0 Q-14.95 -45.0 -14.55 -45.95 -14.25 -46.65 -14.25 -47.0 L-15.7 -48.55 -18.9 -51.05 -11.4 -50.3 -6.9 -49.85 -3.35 -49.7 Q-2.35 -49.7 -2.75 -49.8 L-3.25 -53.05 -3.95 -55.15 0.15 -53.05 6.1 -47.4 Q7.15 -47.65 8.35 -49.25 9.4 -50.65 9.45 -51.2 10.4 -51.15 12.55 -50.1 L15.05 -48.7 Q17.55 -50.4 19.0 -52.25 L19.4 -52.5 Q20.8 -53.6 21.2 -54.95 L21.7 -54.25 23.15 -52.25 24.4 -48.75 25.5 -45.95 31.35 -48.65 31.0 -44.25 42.85 -44.85 40.95 -42.65 40.45 -42.0 Q39.7 -41.0 39.25 -38.15 L42.9 -37.2 47.05 -34.75 Q45.45 -34.25 43.55 -31.1 L42.9 -29.9 40.3 -27.5 41.6 -26.15 M30.6 4.8 L28.9 5.05 29.4 4.5 Q29.35 4.2 28.7 4.0 L27.3 3.8 29.35 3.65 30.6 4.8 M-15.75 -29.35 L-15.15 -31.7 Q-13.45 -30.6 -11.9 -28.45 L-11.4 -27.7 Q-10.05 -25.6 -10.05 -23.75 -10.05 -23.1 -10.65 -22.5 L-11.25 -22.05 -14.3 -25.45 Q-14.05 -25.7 -14.05 -26.3 -14.05 -27.65 -15.75 -29.35 M-2.0 -26.95 L0.4 -23.7 Q1.1 -22.75 2.2 -19.55 L2.5 -18.75 3.25 -19.8 3.4 -20.65 Q5.85 -22.25 6.4 -21.65 5.8 -16.45 2.35 -11.5 -0.15 -14.7 -1.55 -19.6 -2.85 -24.45 -2.0 -26.95 M-22.6 -11.85 L-19.4 -11.65 -19.05 -12.25 -19.65 -12.65 -20.15 -12.95 -20.1 -13.05 -14.8 -11.85 -15.2 -10.9 Q-16.15 -9.75 -17.4 -8.95 -18.95 -7.95 -21.0 -7.5 L-23.05 -7.85 -25.0 -8.5 -22.6 -11.85 M-8.05 10.15 L-1.75 -13.8 Q-1.15 -11.7 -0.7 -7.95 L-0.3 -3.8 Q-0.3 2.6 -2.6 9.2 -4.85 15.85 -8.25 19.25 L-8.25 19.2 -8.3 18.95 -8.5 18.9 -10.05 20.65 -11.15 20.9 -12.75 21.05 -12.1 16.5 Q-5.45 12.8 -4.0 5.3 -3.65 3.45 -3.5 0.05 -3.4 -2.55 -3.0 -3.15 L-3.1 -3.7 -3.5 -3.9 Q-4.9 -0.15 -5.45 5.4 -5.6 6.9 -8.05 10.15 M-11.9 33.8 L-9.75 31.55 -7.4 28.7 -6.95 28.85 Q-6.5 29.2 -6.45 30.0 -6.35 33.6 -8.65 37.2 -10.7 40.35 -13.05 41.35 L-15.15 35.25 -13.15 35.4 -11.1 35.15 Q-9.75 34.85 -9.55 34.55 -9.55 34.2 -10.25 33.5 -10.65 34.0 -12.05 34.0 L-11.9 33.8 M20.9 -25.9 L25.25 -25.5 Q22.75 -23.45 20.55 -22.6 18.65 -21.85 15.9 -21.7 15.9 -23.0 16.75 -26.0 17.95 -30.4 19.85 -32.0 19.2 -29.3 18.8 -28.55 18.65 -28.2 18.65 -27.85 18.65 -27.1 18.95 -26.15 19.25 -25.2 19.6 -25.0 L20.55 -25.25 20.9 -25.9 M20.0 -22.2 L28.05 -22.2 28.05 -20.25 20.0 -20.25 20.0 -22.2 M12.55 -5.7 L15.75 -6.75 16.65 -6.4 Q15.35 -5.2 14.0 -4.35 11.45 -2.8 8.5 -2.8 L5.35 -3.15 Q5.5 -5.9 8.05 -10.55 11.05 -16.0 14.85 -18.5 L14.9 -17.4 14.2 -17.35 Q13.55 -17.0 11.45 -15.05 L8.2 -9.85 Q7.25 -6.9 7.25 -5.25 L12.55 -5.7 M25.3 -0.2 Q25.0 1.45 24.05 1.9 22.45 2.75 17.15 2.8 17.85 1.15 20.25 -1.8 23.05 -5.35 25.55 -7.05 26.15 -7.05 26.2 -6.85 L23.55 -3.3 Q21.6 -0.55 20.0 0.9 L20.95 0.7 25.05 -0.25 25.3 -0.2 M8.75 17.3 L13.3 3.85 14.25 7.15 Q14.8 9.9 13.95 11.45 L13.25 10.75 Q11.8 12.95 9.2 18.0 L8.45 19.55 6.45 23.95 8.75 17.3 M13.9 11.7 Q13.25 13.7 10.7 26.35 L11.5 33.1 Q12.3 39.95 12.6 41.2 10.7 41.3 8.9 40.2 7.15 39.15 6.1 37.35 6.75 35.5 6.9 32.9 L7.15 28.15 Q8.0 21.35 13.9 11.7 M-20.7 0.2 Q-18.95 -1.95 -18.45 -1.85 -19.0 0.35 -19.7 1.2 L-22.25 3.05 Q-22.45 2.4 -20.7 0.2" fill="#989898" fill-rule="evenodd" stroke="none"/>
    <path d="M28.9 5.05 L27.4 5.3 Q23.65 7.95 21.35 11.75 18.5 16.55 18.5 22.35 18.5 34.75 22.1 41.0 25.2 46.35 34.25 52.0 31.35 55.15 24.75 55.15 23.3 55.15 20.2 54.2 L15.9 52.6 Q17.6 58.25 18.55 59.75 L19.15 60.8 19.05 61.55 Q18.9 61.9 18.25 61.9 15.35 61.9 11.8 58.95 8.05 55.85 4.25 50.0 3.9 52.35 1.65 56.3 -0.8 60.45 -2.35 60.6 L-2.85 59.0 Q-3.4 55.95 -5.75 46.75 -7.0 51.0 -13.05 56.25 -18.4 60.8 -21.0 61.35 -21.85 59.4 -22.1 53.6 L-22.25 47.75 Q-26.1 52.35 -30.1 55.15 -34.2 58.05 -36.85 57.9 L-37.65 57.85 -37.9 57.05 Q-36.6 54.65 -35.3 51.35 -32.6 44.65 -32.4 38.75 L-32.5 38.25 Q-33.65 40.15 -38.9 42.2 -43.85 44.1 -46.75 44.15 L-47.65 43.3 Q-45.6 40.7 -42.8 34.5 -38.6 25.35 -37.95 17.55 -38.3 17.95 -40.25 18.4 L-42.65 18.8 -48.0 18.75 -38.45 -5.85 -37.9 -7.7 -43.7 -7.55 Q-41.85 -12.0 -36.7 -15.7 L-35.05 -17.15 -34.35 -17.7 -29.5 -21.3 -29.5 -21.6 -29.5 -21.65 -29.7 -23.95 -29.8 -24.45 -30.8 -29.3 -27.6 -30.3 -29.6 -34.7 -25.5 -36.1 -25.45 -36.85 Q-25.5 -39.8 -26.4 -46.5 -25.4 -47.35 -24.5 -47.35 L-23.95 -47.4 -16.7 -46.6 -19.65 -48.85 Q-20.5 -49.75 -21.6 -51.85 L-17.05 -52.6 -11.5 -51.9 -11.4 -51.85 Q-6.5 -51.15 -5.45 -50.65 L-4.8 -50.2 -4.75 -51.8 -4.85 -53.05 Q-5.25 -54.35 -7.05 -56.4 -5.1 -56.2 -1.75 -54.85 L2.3 -53.05 6.5 -49.35 Q7.0 -49.9 7.75 -51.8 8.2 -53.0 9.25 -53.0 L11.05 -52.55 Q12.95 -51.9 14.95 -50.55 15.85 -51.15 16.6 -52.25 L17.55 -53.1 20.0 -56.35 Q22.0 -55.7 23.85 -54.05 L25.45 -52.25 Q26.15 -50.15 26.3 -48.0 L32.3 -50.85 Q32.8 -50.1 32.85 -45.85 L35.7 -46.25 38.85 -46.5 44.95 -46.0 42.85 -42.65 41.05 -39.45 42.9 -38.85 48.8 -34.1 Q48.1 -33.05 45.65 -30.75 43.15 -28.5 42.95 -28.1 L42.9 -28.0 41.85 -27.15 42.1 -27.15 41.6 -26.15 40.3 -27.5 42.9 -29.9 43.55 -31.1 Q45.45 -34.25 47.05 -34.75 L42.9 -37.2 39.25 -38.15 Q39.7 -41.0 40.45 -42.0 L40.95 -42.65 42.85 -44.85 31.0 -44.25 31.35 -48.65 25.5 -45.95 24.4 -48.75 23.15 -52.25 21.7 -54.25 21.2 -54.95 Q20.8 -53.6 19.4 -52.5 L19.0 -52.25 Q17.55 -50.4 15.05 -48.7 L12.55 -50.1 Q10.4 -51.15 9.45 -51.2 9.4 -50.65 8.35 -49.25 7.15 -47.65 6.1 -47.4 L0.15 -53.05 -3.95 -55.15 -3.25 -53.05 -2.75 -49.8 Q-2.35 -49.7 -3.35 -49.7 L-6.9 -49.85 -11.4 -50.3 -18.9 -51.05 -15.7 -48.55 -14.25 -47.0 Q-14.25 -46.65 -14.55 -45.95 -14.95 -45.0 -15.5 -45.0 L-25.2 -45.75 -24.5 -42.85 -24.45 -42.8 -24.5 -42.8 Q-23.6 -39.4 -24.4 -35.2 L-28.2 -34.3 -25.9 -29.3 -29.5 -28.5 -28.2 -20.1 -31.65 -17.5 -34.8 -15.4 Q-36.15 -14.85 -38.1 -12.95 -40.05 -11.05 -41.55 -8.55 L-36.2 -9.8 -35.15 -8.95 -35.1 -8.9 -34.8 -8.35 Q-34.8 -6.8 -44.45 17.15 -42.0 17.8 -38.05 15.05 -34.85 12.85 -34.2 11.6 L-32.75 16.9 -33.2 20.2 -33.85 23.15 -34.15 23.55 Q-29.6 18.6 -28.05 15.45 L-27.1 13.9 Q-27.75 16.55 -29.3 19.55 -32.05 24.75 -35.9 26.5 L-34.6 15.5 -34.6 15.25 -37.85 26.1 Q-41.25 37.45 -43.55 41.4 -38.4 39.9 -36.45 38.75 -34.4 37.2 -31.75 35.75 L-30.65 36.05 -30.5 37.4 Q-30.5 41.0 -32.1 47.65 -33.7 54.05 -34.65 55.0 -31.95 54.3 -26.95 49.4 -22.25 44.75 -21.85 44.75 -20.35 44.75 -20.25 48.7 L-20.0 58.85 Q-17.4 57.5 -11.65 50.5 -6.35 44.0 -5.6 44.0 -3.25 44.0 -1.5 57.75 -0.3 56.6 1.55 51.85 L3.9 45.95 4.0 45.85 Q5.1 46.5 6.9 51.6 9.65 56.85 15.35 58.85 L14.25 55.4 Q14.0 54.5 14.0 52.15 L14.05 49.35 14.15 49.2 15.0 49.0 18.65 51.1 Q22.8 53.15 25.45 53.15 L28.35 52.85 31.25 52.15 Q16.85 42.9 16.85 27.3 16.85 24.35 17.65 19.65 18.85 12.95 21.1 8.65 L21.2 8.45 21.45 8.0 25.2 4.55 25.55 4.3 27.3 3.8 28.7 4.0 Q29.35 4.2 29.4 4.5 L28.9 5.05 M8.55 -29.8 Q6.3 -31.0 4.25 -31.45 L-5.8 -32.65 -3.6 -30.75 -1.5 -28.7 -1.35 -28.55 0.8 -25.65 Q2.85 -22.5 3.4 -20.65 L3.25 -19.8 2.5 -18.75 2.2 -19.55 Q1.1 -22.75 0.4 -23.7 L-2.0 -26.95 Q-5.5 -30.5 -8.6 -32.7 L-2.25 -33.55 Q2.7 -33.55 8.55 -29.8 M-20.75 -17.45 L-24.0 -13.3 -20.15 -12.95 -19.65 -12.65 -19.05 -12.25 -19.4 -11.65 -22.6 -11.85 -23.95 -12.2 Q-25.35 -12.65 -25.5 -12.85 L-22.85 -15.75 -20.0 -18.5 -20.75 -17.45 M-15.2 -10.9 L-14.8 -11.85 Q-13.55 -14.5 -11.4 -16.0 -9.7 -17.25 -7.5 -17.7 -9.75 -16.85 -11.4 -14.95 L-11.65 -14.65 Q-13.5 -12.3 -14.15 -8.95 -14.55 -7.15 -14.55 -5.05 L-15.2 -10.9 M-14.45 -3.1 L-13.75 5.75 Q-13.75 14.2 -17.1 17.6 L-12.75 15.05 Q-8.85 12.35 -8.05 10.15 -5.6 6.9 -5.45 5.4 -4.9 -0.15 -3.5 -3.9 L-3.1 -3.7 -3.0 -3.15 Q-3.4 -2.55 -3.5 0.05 -3.65 3.45 -4.0 5.3 -5.45 12.8 -12.1 16.5 -13.25 17.45 -15.25 18.4 -17.45 19.45 -18.6 19.45 L-20.9 19.2 Q-17.25 13.55 -15.7 8.0 -14.25 2.7 -14.45 -3.1 M-8.25 19.25 L-8.3 19.9 Q-9.55 22.4 -10.75 26.65 -12.1 30.4 -15.4 33.5 L-15.3 33.9 -12.05 34.0 Q-10.65 34.0 -10.25 33.5 -9.55 34.2 -9.55 34.55 -9.75 34.85 -11.1 35.15 L-13.15 35.4 -15.15 35.25 Q-16.5 34.2 -15.95 31.8 -15.65 30.25 -14.35 27.75 L-10.05 20.65 -8.5 18.9 -8.3 18.95 -8.25 19.2 -8.25 19.25 M13.95 11.45 L13.9 11.7 Q8.0 21.35 7.15 28.15 L6.9 32.9 Q6.75 35.5 6.1 37.35 3.3 34.8 1.7 32.35 -1.2 27.8 -1.2 21.05 -1.2 15.2 -0.05 10.95 1.35 5.7 4.75 1.15 L4.95 0.95 Q2.55 5.35 1.3 11.55 0.35 16.2 0.35 19.8 0.35 23.0 2.0 27.25 L4.75 33.35 6.45 23.95 8.45 19.55 9.2 18.0 Q11.8 12.95 13.25 10.75 L13.95 11.45" fill="#606060" fill-rule="evenodd" stroke="none"/>
  </g>
</svg>
