<?xml version="1.0" encoding="UTF-8" standalone="no"?>
<svg xmlns:ffdec="https://www.free-decompiler.com/flash" xmlns:xlink="http://www.w3.org/1999/xlink" ffdec:objectType="shape" height="155.3px" width="116.85px" xmlns="http://www.w3.org/2000/svg">
  <g transform="matrix(1.0, 0.0, 0.0, 1.0, 23.25, 18.3)">
    <path d="M-4.8 -3.55 Q-3.65 -3.85 -2.75 -5.25 -1.5 -7.1 -0.4 -7.95 4.45 -11.65 20.3 -12.15 L20.4 -12.2 20.45 -13.05 20.3 -13.6 19.85 -13.55 Q9.4 -13.4 1.95 -10.45 -5.25 -7.65 -4.95 -4.1 L-4.8 -3.55 M3.4 4.6 Q3.05 1.65 3.05 0.35 3.05 -0.7 3.55 -1.6 L3.95 -0.55 Q4.3 0.35 6.0 2.75 7.85 5.25 8.8 6.0 L8.65 6.1 8.2 6.55 Q6.6 6.55 6.15 6.1 L6.95 5.45 4.1 4.65 3.4 4.6 M57.9 39.5 Q57.95 38.45 58.5 36.05 L59.05 32.55 59.05 32.45 58.95 32.3 Q57.9 32.6 57.45 33.15 56.65 33.2 55.45 33.6 L54.2 34.0 53.6 33.95 Q53.3 33.85 53.3 33.45 53.3 32.85 55.95 31.85 58.55 30.8 58.55 29.95 58.55 28.35 58.05 27.95 L56.1 26.75 53.8 26.4 Q53.45 26.25 53.45 25.9 53.45 25.15 54.35 25.15 55.55 25.15 56.85 25.75 L58.3 26.3 Q58.7 26.3 58.7 26.1 L58.65 25.85 Q58.65 25.25 59.25 25.25 58.75 22.85 57.55 20.35 55.9 16.95 53.3 14.45 L51.1 12.4 Q51.1 11.95 51.75 11.95 52.95 11.95 55.0 14.4 L57.55 17.9 Q58.85 19.85 60.45 23.9 L60.8 23.0 61.1 21.95 61.15 20.1 Q61.15 17.1 59.45 14.0 L57.75 10.9 Q57.75 9.05 59.7 11.15 61.7 13.3 62.35 17.85 L62.35 21.6 62.75 20.85 Q65.35 15.8 65.35 12.05 65.35 10.55 63.85 8.8 L62.55 7.2 62.5 7.1 59.4 7.1 Q60.35 6.35 61.15 6.1 62.5 5.7 63.4 4.9 L61.9 2.65 Q61.25 1.95 60.1 1.95 L56.0 2.6 53.35 3.2 52.45 3.15 52.35 2.55 Q52.9 1.5 55.15 0.35 L58.75 -1.3 58.25 -1.7 57.95 -1.7 Q53.95 -2.0 53.1 -2.7 L53.55 -3.4 57.4 -3.6 Q56.1 -4.9 50.95 -7.7 45.65 -10.65 44.35 -10.65 37.85 -10.65 33.05 -8.6 L28.6 -6.55 27.8 -7.0 27.1 -7.95 Q28.05 -9.0 32.45 -10.65 36.1 -12.0 38.0 -12.15 L37.0 -12.15 37.0 -13.05 34.85 -13.05 Q15.55 -12.55 6.85 -9.4 -1.4 -6.5 -1.4 -0.8 -1.4 1.2 -0.3 2.6 L1.3 4.35 -0.75 4.3 Q-2.3 3.85 -3.3 1.6 L-4.4 -1.3 -5.2 0.4 Q-5.7 2.0 -5.05 3.85 -7.05 3.75 -8.4 1.7 -9.65 -0.3 -9.65 -3.1 -9.65 -8.15 -1.45 -12.15 7.6 -16.6 21.25 -16.6 36.6 -16.6 49.0 -10.7 57.95 -6.45 61.3 -1.9 64.6 2.55 66.5 7.1 L66.55 7.2 Q67.85 10.3 68.5 13.4 69.2 16.75 69.2 23.15 L69.1 27.1 Q65.85 24.5 63.45 24.45 L61.9 24.7 60.7 25.2 Q59.85 25.6 59.65 26.6 59.1 28.1 59.3 30.05 59.3 31.8 60.15 34.0 62.25 38.25 62.75 44.35 L62.35 44.7 62.3 44.6 61.7 43.7 60.95 42.65 60.7 42.35 60.95 41.45 60.5 42.1 60.3 41.8 60.2 41.7 58.6 39.95 Q58.15 39.55 57.9 39.5 M67.6 16.65 Q67.6 14.95 66.75 14.85 66.5 17.5 66.05 19.05 L65.05 21.1 Q64.35 22.55 64.35 23.3 L64.6 23.6 Q65.9 22.1 66.75 20.2 67.6 18.25 67.6 16.65 M62.8 26.85 L63.15 27.45 62.05 27.05 61.15 27.1 Q61.1 27.35 61.95 28.6 L63.4 31.1 63.3 31.1 62.0 30.55 61.5 30.65 61.2 30.7 Q61.0 30.6 61.15 31.15 L63.3 35.65 Q64.45 38.3 65.25 41.35 L65.75 43.8 Q66.6 48.05 66.7 53.1 66.8 56.9 64.95 64.45 63.55 70.9 55.9 81.35 L55.95 81.35 55.4 81.95 Q49.05 90.55 48.7 95.75 48.35 97.9 48.9 100.65 49.6 104.1 51.2 106.15 51.35 102.45 53.1 99.7 54.55 97.35 55.8 97.0 L55.5 98.3 Q55.55 112.0 63.4 119.7 70.5 127.0 83.5 130.25 79.55 123.25 76.15 115.85 69.2 101.1 70.6 96.1 L75.9 108.8 Q79.35 115.35 82.65 115.5 83.6 115.4 83.45 115.1 77.65 110.35 73.7 97.2 71.1 87.45 72.6 81.45 L74.25 74.75 76.55 64.45 77.2 60.3 Q78.05 50.5 77.15 45.85 74.4 33.5 73.45 33.0 72.15 30.75 70.2 29.0 L69.05 28.1 Q68.5 27.65 67.95 27.3 65.05 25.45 63.25 25.45 62.2 25.35 62.4 26.25 L62.8 26.85 M63.5 25.05 Q64.6 24.9 65.9 25.55 L69.1 27.7 70.2 28.65 Q72.95 31.15 75.05 34.75 L76.5 38.25 Q79.95 47.9 78.25 64.5 L77.45 69.3 75.1 81.45 75.15 81.45 Q74.55 92.0 78.25 102.25 81.95 112.45 90.65 118.35 L87.85 118.05 83.85 117.0 Q81.4 116.1 78.8 115.95 78.7 117.15 79.15 118.35 82.5 127.8 88.9 134.8 80.95 133.25 73.0 129.9 67.6 127.65 63.25 123.55 56.6 117.3 53.4 109.25 53.05 109.15 52.85 109.45 50.7 111.05 50.15 114.05 48.85 111.75 48.15 109.25 43.55 96.6 49.95 86.1 51.55 83.55 53.35 81.35 L53.3 81.35 Q60.8 71.9 62.45 64.45 64.5 54.9 64.0 47.95 L63.8 45.7 63.5 43.6 62.5 39.6 Q59.8 32.25 60.4 27.3 61.6 25.45 63.5 25.05 M83.2 101.8 Q85.25 103.2 87.65 104.35 85.1 105.8 82.7 107.4 80.7 103.1 79.05 98.95 L83.2 101.8" fill="#3e2615" fill-rule="evenodd" stroke="none"/>
    <path d="M-4.8 -3.55 L-4.95 -4.1 Q-5.25 -7.65 1.95 -10.45 9.4 -13.4 19.85 -13.55 L20.3 -13.6 20.45 -13.05 20.4 -12.2 20.3 -12.15 Q4.45 -11.65 -0.4 -7.95 -1.5 -7.1 -2.75 -5.25 -3.65 -3.85 -4.8 -3.55 M8.2 6.55 L8.65 6.1 8.8 6.0 Q7.85 5.25 6.0 2.75 4.3 0.35 3.95 -0.55 L3.55 -1.6 Q3.05 -0.7 3.05 0.35 3.05 1.65 3.4 4.6 L-0.75 4.3 1.3 4.35 -0.3 2.6 Q-1.4 1.2 -1.4 -0.8 -1.4 -6.5 6.85 -9.4 15.55 -12.55 34.85 -13.05 L37.0 -13.05 37.0 -12.15 38.0 -12.15 Q36.1 -12.0 32.45 -10.65 28.05 -9.0 27.1 -7.95 L27.8 -7.0 28.6 -6.55 33.05 -8.6 Q37.85 -10.65 44.35 -10.65 45.65 -10.65 50.95 -7.7 56.1 -4.9 57.4 -3.6 L53.55 -3.4 53.1 -2.7 Q53.95 -2.0 57.95 -1.7 L58.25 -1.7 58.75 -1.3 55.15 0.35 Q52.9 1.5 52.35 2.55 L52.45 3.15 53.35 3.2 56.0 2.6 60.1 1.95 Q61.25 1.95 61.9 2.65 L63.4 4.9 Q62.5 5.7 61.15 6.1 60.35 6.35 59.4 7.1 L62.5 7.1 62.55 7.2 63.85 8.8 Q65.35 10.55 65.35 12.05 65.35 15.8 62.75 20.85 L62.35 21.6 62.35 17.85 Q61.7 13.3 59.7 11.15 57.75 9.05 57.75 10.9 L59.45 14.0 Q61.15 17.1 61.15 20.1 L61.1 21.95 60.8 23.0 60.45 23.9 Q58.85 19.85 57.55 17.9 L55.0 14.4 Q52.95 11.95 51.75 11.95 51.1 11.95 51.1 12.4 L53.3 14.45 Q55.9 16.95 57.55 20.35 58.75 22.85 59.25 25.25 58.65 25.25 58.65 25.85 L58.7 26.1 Q58.7 26.3 58.3 26.3 L56.85 25.75 Q55.55 25.15 54.35 25.15 53.45 25.15 53.45 25.9 53.45 26.25 53.8 26.4 L56.1 26.75 58.05 27.95 Q58.55 28.35 58.55 29.95 58.55 30.8 55.95 31.85 53.3 32.85 53.3 33.45 53.3 33.85 53.6 33.95 L54.2 34.0 55.45 33.6 Q56.65 33.2 57.45 33.15 57.9 32.6 58.95 32.3 L59.05 32.45 59.05 32.55 58.5 36.05 Q57.95 38.45 57.9 39.5 57.5 39.7 57.35 40.3 L53.2 38.4 54.35 36.6 52.95 35.8 Q51.35 34.75 50.6 32.0 L50.6 31.25 Q51.4 30.9 54.25 30.45 56.05 30.1 56.05 29.35 56.05 29.0 55.6 28.95 L55.6 28.85 55.5 28.65 Q54.3 28.3 52.85 26.85 L51.05 24.75 50.5 23.65 50.2 22.5 50.05 22.1 52.35 21.35 53.4 21.45 Q53.75 21.95 55.05 22.7 L56.35 23.3 Q56.9 23.3 56.9 22.8 L56.85 22.75 Q56.75 21.45 52.65 16.2 47.95 10.25 44.85 9.75 45.05 9.55 46.65 8.9 48.4 8.15 49.0 8.15 L50.05 8.35 50.55 8.25 52.0 8.75 55.1 11.4 Q56.45 12.55 57.3 14.15 L58.7 16.85 58.75 16.65 58.9 17.1 Q59.1 17.55 59.45 17.6 L59.5 17.45 59.5 16.8 Q58.25 12.9 56.7 10.9 L55.5 9.4 53.95 7.95 53.0 7.2 52.85 7.1 52.95 7.1 54.25 6.2 53.8 5.6 42.6 5.7 40.9 5.6 43.65 3.0 Q45.75 0.95 45.85 0.35 L45.9 0.25 45.2 0.2 Q43.7 0.2 40.55 1.45 36.95 2.8 33.75 4.9 L32.35 4.75 Q33.05 1.2 35.05 -0.2 L40.1 -2.35 Q46.05 -4.6 49.8 -5.0 51.95 -5.25 52.2 -5.7 51.9 -5.75 52.05 -5.9 L52.05 -6.2 45.85 -6.6 41.1 -6.55 Q38.8 -6.7 32.8 -4.75 27.35 -3.0 26.45 -2.25 24.2 -0.4 23.05 3.1 22.25 5.45 19.95 5.45 18.3 5.45 16.4 3.45 L14.8 1.4 Q14.8 -2.15 18.85 -4.15 20.9 -5.15 23.45 -5.8 22.55 -6.4 21.05 -6.4 16.45 -6.4 12.35 -3.5 8.55 -0.85 8.55 1.55 8.55 3.85 10.9 6.6 L8.2 6.55 M60.7 42.35 L60.5 42.1 60.95 41.45 60.7 42.35 M63.85 13.4 L63.45 10.7 62.4 9.3 Q61.45 8.3 61.45 9.05 L62.15 10.4 Q62.85 11.7 62.85 13.0 L62.75 14.1 Q62.75 15.15 63.2 15.15 63.85 15.15 63.85 13.4 M67.6 16.65 Q67.6 18.25 66.75 20.2 65.9 22.1 64.6 23.6 L64.35 23.3 Q64.35 22.55 65.05 21.1 L66.05 19.05 Q66.5 17.5 66.75 14.85 67.6 14.95 67.6 16.65 M62.8 26.85 L62.4 26.25 Q62.2 25.35 63.25 25.45 65.05 25.45 67.95 27.3 68.5 27.65 69.05 28.1 L70.2 29.0 Q72.15 30.75 73.45 33.0 74.4 33.5 77.15 45.85 78.05 50.5 77.2 60.3 L76.55 64.45 74.25 74.75 72.6 81.45 Q71.1 87.45 73.7 97.2 77.65 110.35 83.45 115.1 83.6 115.4 82.65 115.5 79.35 115.35 75.9 108.8 L70.6 96.1 Q69.2 101.1 76.15 115.85 79.55 123.25 83.5 130.25 70.5 127.0 63.4 119.7 55.55 112.0 55.5 98.3 L55.8 97.0 Q54.55 97.35 53.1 99.7 51.35 102.45 51.2 106.15 49.6 104.1 48.9 100.65 48.35 97.9 48.7 95.75 49.05 90.55 55.4 81.95 L55.95 81.35 55.9 81.35 Q63.55 70.9 64.95 64.45 66.8 56.9 66.7 53.1 66.6 48.05 65.75 43.8 L65.25 41.35 Q64.45 38.3 63.3 35.65 L61.15 31.15 Q61.0 30.6 61.2 30.7 L61.5 30.65 62.0 30.55 63.3 31.1 63.4 31.1 61.95 28.6 Q61.1 27.35 61.15 27.1 L62.05 27.05 63.15 27.45 62.8 26.85 M65.05 26.4 L65.1 26.5 65.25 26.8 Q65.3 27.0 65.15 26.85 64.95 26.75 65.05 26.9 L65.55 27.85 66.5 30.1 63.2 28.1 62.9 28.15 62.9 28.25 63.8 30.35 65.25 33.9 Q64.8 33.7 64.7 33.5 L64.1 33.4 63.8 33.45 63.9 33.6 Q63.95 34.55 66.05 39.95 L66.1 40.15 66.8 42.4 68.15 47.3 Q68.9 53.5 66.6 64.45 65.05 71.6 58.5 81.35 L57.8 82.35 Q54.15 87.4 52.2 92.05 55.9 88.85 61.8 81.4 L64.55 76.95 Q68.25 69.7 69.7 64.45 72.45 52.6 71.0 46.3 L71.15 46.3 71.95 53.0 Q72.0 58.55 70.95 64.45 69.2 73.15 65.05 81.4 L65.1 81.4 61.75 89.25 60.5 91.15 Q59.85 92.4 59.4 95.6 59.2 97.25 59.55 98.9 59.85 100.7 62.0 106.65 63.9 111.85 69.2 118.05 74.7 124.5 77.4 124.5 78.45 124.55 78.0 124.4 77.95 124.1 78.05 123.95 74.15 119.7 70.6 109.2 67.25 98.4 68.4 90.35 69.6 85.4 71.1 81.4 74.3 71.55 75.65 64.45 77.1 40.8 74.15 38.35 72.0 33.35 70.0 30.75 L68.95 29.5 68.3 28.9 66.5 27.6 65.05 26.4" fill="#55341e" fill-rule="evenodd" stroke="none"/>
    <path d="M10.9 6.6 Q8.55 3.85 8.55 1.55 8.55 -0.85 12.35 -3.5 16.45 -6.4 21.05 -6.4 22.55 -6.4 23.45 -5.8 20.9 -5.15 18.85 -4.15 14.8 -2.15 14.8 1.4 L16.4 3.45 Q18.3 5.45 19.95 5.45 22.25 5.45 23.05 3.1 24.2 -0.4 26.45 -2.25 27.35 -3.0 32.8 -4.75 38.8 -6.7 41.1 -6.55 L45.85 -6.6 52.05 -6.2 52.05 -5.9 Q51.9 -5.75 52.2 -5.7 51.95 -5.25 49.8 -5.0 46.05 -4.6 40.1 -2.35 L35.05 -0.2 Q33.05 1.2 32.35 4.75 L33.75 4.9 Q36.95 2.8 40.55 1.45 43.7 0.2 45.2 0.2 L45.9 0.25 45.85 0.35 Q45.75 0.95 43.65 3.0 L40.9 5.6 42.6 5.7 53.8 5.6 54.25 6.2 52.95 7.1 52.85 7.1 53.0 7.2 53.95 7.95 55.5 9.4 56.7 10.9 Q58.25 12.9 59.5 16.8 L59.5 17.45 59.45 17.6 Q59.1 17.55 58.9 17.1 L58.75 16.65 58.7 16.85 57.3 14.15 Q56.45 12.55 55.1 11.4 L52.0 8.75 50.55 8.25 50.05 8.35 49.0 8.15 Q48.4 8.15 46.65 8.9 45.05 9.55 44.85 9.75 47.95 10.25 52.65 16.2 56.75 21.45 56.85 22.75 L56.9 22.8 Q56.9 23.3 56.35 23.3 L55.05 22.7 Q53.75 21.95 53.4 21.45 L52.35 21.35 50.05 22.1 50.2 22.5 50.5 23.65 51.05 24.75 52.85 26.85 Q54.3 28.3 55.5 28.65 L55.6 28.85 55.6 28.95 Q56.05 29.0 56.05 29.35 56.05 30.1 54.25 30.45 51.4 30.9 50.6 31.25 L50.6 32.0 Q51.35 34.75 52.95 35.8 L54.35 36.6 53.2 38.4 52.75 38.2 52.2 37.95 48.55 36.05 48.25 35.7 Q47.45 34.2 47.45 33.2 47.45 31.15 48.7 26.1 L49.55 22.5 49.75 21.75 49.75 21.6 49.85 21.05 49.9 20.95 49.95 20.3 Q49.95 18.7 48.0 16.15 45.6 13.0 41.5 10.7 37.55 8.4 32.65 7.2 L32.25 7.1 Q23.1 4.95 10.9 6.6 M63.85 13.4 Q63.85 15.15 63.2 15.15 62.75 15.15 62.75 14.1 L62.85 13.0 Q62.85 11.7 62.15 10.4 L61.45 9.05 Q61.45 8.3 62.4 9.3 L63.45 10.7 63.85 13.4 M65.05 26.4 L66.5 27.6 68.3 28.9 68.95 29.5 70.0 30.75 Q72.0 33.35 74.15 38.35 77.1 40.8 75.65 64.45 74.3 71.55 71.1 81.4 69.6 85.4 68.4 90.35 67.25 98.4 70.6 109.2 74.15 119.7 78.05 123.95 77.95 124.1 78.0 124.4 78.45 124.55 77.4 124.5 74.7 124.5 69.2 118.05 63.9 111.85 62.0 106.65 59.85 100.7 59.55 98.9 59.2 97.25 59.4 95.6 59.85 92.4 60.5 91.15 L61.75 89.25 65.1 81.4 65.05 81.4 Q69.2 73.15 70.95 64.45 72.0 58.55 71.95 53.0 L71.15 46.3 71.0 46.3 Q72.45 52.6 69.7 64.45 68.25 69.7 64.55 76.95 L61.8 81.4 Q55.9 88.85 52.2 92.05 54.15 87.4 57.8 82.35 L58.5 81.35 Q65.05 71.6 66.6 64.45 68.9 53.5 68.15 47.3 L66.8 42.4 66.1 40.15 66.05 39.95 Q63.95 34.55 63.9 33.6 L63.8 33.45 64.1 33.4 64.7 33.5 Q64.8 33.7 65.25 33.9 L63.8 30.35 62.9 28.25 62.9 28.15 63.2 28.1 66.5 30.1 65.55 27.85 65.05 26.9 Q64.95 26.75 65.15 26.85 65.3 27.0 65.25 26.8 L65.1 26.5 65.05 26.4" fill="#683f24" fill-rule="evenodd" stroke="none"/>
    <path d="M3.4 4.6 L4.1 4.65 6.95 5.45 6.15 6.1 Q-3.45 6.3 -6.6 5.1 -11.15 3.3 -11.15 -2.95 -11.15 -8.6 -4.8 -12.1 1.75 -15.75 16.6 -18.1 L21.2 -18.3 Q29.45 -18.3 39.45 -15.3 50.85 -11.85 60.1 -5.65 64.0 -3.05 67.35 6.2 L67.7 7.1 67.7 7.2 Q70.5 15.4 70.5 22.0 L70.25 28.05 Q73.85 31.3 76.35 35.65 77.6 38.1 78.35 41.3 80.65 50.2 79.2 64.5 L76.95 80.55 Q76.85 80.9 76.9 81.45 76.2 88.05 78.05 95.4 82.05 99.5 87.15 102.35 88.4 103.2 90.1 103.85 L89.55 105.0 Q87.85 107.05 84.85 108.3 84.15 108.45 83.6 108.75 86.85 113.65 91.6 116.9 L93.6 118.3 Q93.35 118.4 93.45 118.7 91.75 120.6 88.85 120.1 84.1 120.15 80.15 118.0 84.25 129.7 93.1 135.8 L93.0 137.0 Q79.5 135.05 66.0 127.65 56.05 122.25 53.05 111.25 52.8 111.5 52.7 111.9 51.55 114.7 51.9 117.7 L51.9 117.85 Q44.0 110.25 44.7 98.3 45.3 88.3 51.15 81.35 L51.1 81.35 Q57.45 74.25 59.7 68.1 L61.1 64.45 Q63.15 54.05 62.85 46.35 L61.85 46.7 Q61.2 46.7 60.9 46.4 L60.5 45.8 60.35 45.2 Q60.2 44.1 59.0 42.3 57.95 40.65 57.35 40.3 57.5 39.7 57.9 39.5 58.15 39.55 58.6 39.95 L60.2 41.7 60.3 41.8 60.5 42.1 60.7 42.35 60.95 42.65 61.7 43.7 62.3 44.6 62.35 44.7 62.75 44.35 Q62.25 38.25 60.15 34.0 59.3 31.8 59.3 30.05 59.1 28.1 59.65 26.6 59.85 25.6 60.7 25.2 L61.9 24.7 63.45 24.45 Q65.85 24.5 69.1 27.1 L69.2 23.15 Q69.2 16.75 68.5 13.4 67.85 10.3 66.55 7.2 L66.5 7.1 Q64.6 2.55 61.3 -1.9 57.95 -6.45 49.0 -10.7 36.6 -16.6 21.25 -16.6 7.6 -16.6 -1.45 -12.15 -9.65 -8.15 -9.65 -3.1 -9.65 -0.3 -8.4 1.7 -7.05 3.75 -5.05 3.85 -5.7 2.0 -5.2 0.4 L-4.4 -1.3 -3.3 1.6 Q-2.3 3.85 -0.75 4.3 L3.4 4.6 M63.5 25.05 Q61.6 25.45 60.4 27.3 59.8 32.25 62.5 39.6 L63.5 43.6 63.8 45.7 64.0 47.95 Q64.5 54.9 62.45 64.45 60.8 71.9 53.3 81.35 L53.35 81.35 Q51.55 83.55 49.95 86.1 43.55 96.6 48.15 109.25 48.85 111.75 50.15 114.05 50.7 111.05 52.85 109.45 53.05 109.15 53.4 109.25 56.6 117.3 63.25 123.55 67.6 127.65 73.0 129.9 80.95 133.25 88.9 134.8 82.5 127.8 79.15 118.35 78.7 117.15 78.8 115.95 81.4 116.1 83.85 117.0 L87.85 118.05 90.65 118.35 Q81.95 112.45 78.25 102.25 74.55 92.0 75.15 81.45 L75.1 81.45 77.45 69.3 78.25 64.5 Q79.95 47.9 76.5 38.25 L75.05 34.75 Q72.95 31.15 70.2 28.65 L69.1 27.7 65.9 25.55 Q64.6 24.9 63.5 25.05 M83.2 101.8 L79.05 98.95 Q80.7 103.1 82.7 107.4 85.1 105.8 87.65 104.35 85.25 103.2 83.2 101.8" fill="#27180d" fill-rule="evenodd" stroke="none"/>
    <path d="M24.65 -12.95 Q28.15 -12.1 31.75 -10.7 36.0 -9.05 37.85 -5.6 38.7 -4.45 39.2 -2.8 40.05 -2.95 40.95 -2.5 L41.1 -2.45 41.2 -2.4 Q50.1 1.65 54.0 10.3 L54.2 10.75 Q57.3 17.75 58.3 25.4 L58.5 26.45 58.6 28.15 58.6 28.7 Q58.5 35.8 57.1 42.55 56.0 47.55 52.6 56.45 51.7 58.65 48.85 63.35 L48.05 64.5 Q53.25 52.0 52.7 38.7 L52.95 35.6 53.1 31.0 Q53.1 26.55 52.2 21.5 51.3 16.3 49.75 12.1 49.45 12.3 49.45 12.6 L50.4 17.0 51.0 20.45 Q51.6 23.65 51.6 27.6 51.6 31.8 49.6 36.05 L48.9 37.55 Q49.35 33.95 48.7 31.5 50.4 26.4 48.8 21.75 48.6 18.9 47.35 15.35 46.35 12.5 45.2 10.75 44.55 9.75 43.8 9.1 L44.45 10.75 46.55 16.3 Q47.65 19.45 47.65 22.8 L47.35 25.35 46.9 28.3 Q47.1 29.5 46.4 31.15 L45.1 33.85 Q43.6 37.3 40.75 39.35 L39.0 40.8 Q44.05 33.45 42.7 21.5 42.3 18.1 41.6 15.5 41.2 13.2 40.4 10.75 L40.3 10.5 Q38.65 5.7 38.65 4.2 L38.9 1.55 38.75 2.15 39.2 -0.75 39.2 -2.5 39.0 -1.35 38.6 0.05 37.75 1.5 36.95 3.05 35.75 4.5 Q32.8 6.95 27.1 9.35 L18.3 13.05 Q12.4 15.5 9.0 17.1 0.5 21.15 -5.9 28.1 L-15.35 40.3 Q-16.55 37.7 -16.55 33.5 L-16.2 29.3 -15.85 26.65 Q-14.3 22.4 -12.05 18.9 -9.2 14.55 -4.7 10.55 L-4.65 10.55 Q-1.6 7.8 2.3 5.25 4.85 3.6 6.9 2.5 L6.7 2.55 Q2.9 3.8 -0.5 5.8 L-0.6 5.85 -3.25 7.6 Q-7.55 9.9 -11.2 13.55 -14.0 16.35 -18.6 21.9 L-19.65 19.65 -19.75 17.6 -19.4 14.35 -19.1 12.4 Q-17.65 9.65 -15.35 7.1 -9.95 1.1 -2.4 -2.4 L4.35 -4.95 4.75 -5.1 6.35 -5.5 8.05 -5.9 14.2 -7.1 13.8 -7.1 13.55 -7.1 13.35 -7.1 13.15 -7.1 2.35 -5.4 1.75 -5.2 1.4 -5.1 1.25 -5.05 0.85 -4.95 0.85 -4.9 0.8 -4.9 Q-2.8 -3.85 -6.2 -2.15 L-6.8 -2.8 Q-7.3 -3.35 -7.3 -4.05 -7.3 -7.1 -1.4 -10.1 L1.05 -11.25 6.1 -12.45 Q16.4 -14.55 24.65 -12.95 M40.85 5.45 Q40.55 5.8 40.55 6.95 40.55 8.4 41.25 10.75 41.65 12.3 42.4 14.2 44.2 19.05 44.2 25.4 44.2 27.35 43.55 30.25 L42.9 32.9 42.95 33.2 43.25 33.2 Q45.05 29.95 45.65 27.4 46.05 25.5 46.05 22.0 46.05 17.45 44.7 14.5 L43.05 10.75 40.85 5.45 M43.05 4.85 Q42.85 4.85 42.75 5.0 45.5 7.45 47.1 10.75 L47.9 12.7 50.1 20.3 50.35 19.7 Q50.35 18.55 49.55 15.75 L48.5 12.2 48.0 10.75 46.75 8.45 45.0 6.4 Q43.5 4.85 43.05 4.85 M57.3 34.9 Q57.3 25.65 54.7 16.95 L53.95 14.7 53.35 12.45 Q53.25 11.75 52.65 10.75 L52.25 10.15 50.75 7.95 49.2 5.8 47.3 3.55 Q45.9 2.2 44.1 1.0 42.3 -0.2 42.3 0.2 L44.9 3.45 48.95 8.6 50.2 10.75 51.1 12.85 52.45 17.15 54.6 25.7 Q55.55 30.4 55.55 34.3 55.55 37.45 54.6 42.05 L53.65 46.6 Q53.65 47.25 54.1 47.2 L56.1 41.25 Q57.3 37.1 57.3 34.9 M34.1 -4.1 Q34.1 -5.2 33.3 -4.35 L31.8 -2.6 Q30.5 -1.2 28.3 -0.25 25.05 1.25 24.2 1.55 21.4 2.6 17.5 3.2 7.05 4.95 3.2 6.55 0.75 7.6 -2.6 10.75 -7.2 15.15 -10.35 20.8 -13.65 26.7 -13.65 31.15 L-13.6 31.55 -13.15 31.65 -12.2 29.7 -11.05 27.75 -7.3 23.75 Q-1.7 18.55 4.75 15.7 8.6 14.0 15.1 11.5 20.75 9.35 23.35 8.5 25.7 7.75 29.8 5.1 34.4 2.15 34.4 0.85 34.4 0.4 34.05 0.4 33.9 0.4 32.3 1.6 L29.65 3.35 Q26.7 5.05 23.75 5.5 L23.85 5.4 Q29.6 2.25 30.7 0.7 L34.1 -4.1 M31.8 -8.45 L31.6 -8.8 29.45 -8.95 Q25.95 -8.45 23.5 -6.35 21.0 -4.25 18.0 -3.75 L14.65 -3.75 10.75 -3.9 7.65 -3.85 Q-1.3 -3.35 -9.9 4.2 -17.75 11.1 -17.75 15.9 -17.85 16.6 -17.45 16.6 L-17.15 16.5 Q-14.6 9.95 -10.55 6.4 -4.4 0.95 8.2 -1.8 L13.15 -1.8 14.55 -1.6 16.05 -1.35 Q13.55 1.2 10.55 2.25 L10.6 2.5 11.1 2.55 Q13.35 2.55 17.7 0.5 21.25 -1.2 22.65 -2.35 L25.95 -6.15 Q28.95 -9.1 31.6 -8.1 L31.8 -8.45 M25.4 -9.9 Q25.4 -11.2 15.95 -11.2 6.35 -11.2 3.15 -9.7 2.7 -9.45 -0.3 -8.1 -3.1 -6.7 -3.1 -6.05 L-3.05 -5.8 -0.6 -7.2 Q1.35 -8.2 3.85 -8.35 L11.3 -8.5 12.3 -8.6 13.2 -8.7 14.2 -8.8 18.8 -9.8 20.95 -9.9 23.5 -9.8 24.2 -9.65 25.2 -9.65 25.4 -9.9" fill="#55341e" fill-rule="evenodd" stroke="none"/>
    <path d="M25.4 -9.9 L25.2 -9.65 24.2 -9.65 23.5 -9.8 20.95 -9.9 18.8 -9.8 14.2 -8.8 13.2 -8.7 12.3 -8.6 11.3 -8.5 3.85 -8.35 Q1.35 -8.2 -0.6 -7.2 L-3.05 -5.8 -3.1 -6.05 Q-3.1 -6.7 -0.3 -8.1 2.7 -9.45 3.15 -9.7 6.35 -11.2 15.95 -11.2 25.4 -11.2 25.4 -9.9 M31.8 -8.45 L31.6 -8.1 Q28.95 -9.1 25.95 -6.15 L22.65 -2.35 Q21.25 -1.2 17.7 0.5 13.35 2.55 11.1 2.55 L10.6 2.5 10.55 2.25 Q13.55 1.2 16.05 -1.35 L14.55 -1.6 13.15 -1.8 8.2 -1.8 Q-4.4 0.95 -10.55 6.4 -14.6 9.95 -17.15 16.5 L-17.45 16.6 Q-17.85 16.6 -17.75 15.9 -17.75 11.1 -9.9 4.2 -1.3 -3.35 7.65 -3.85 L10.75 -3.9 14.65 -3.75 18.0 -3.75 Q21.0 -4.25 23.5 -6.35 25.95 -8.45 29.45 -8.95 L31.6 -8.8 31.8 -8.45 M34.1 -4.1 L30.7 0.7 Q29.6 2.25 23.85 5.4 L23.75 5.5 Q26.7 5.05 29.65 3.35 L32.3 1.6 Q33.9 0.4 34.05 0.4 34.4 0.4 34.4 0.85 34.4 2.15 29.8 5.1 25.7 7.75 23.35 8.5 20.75 9.35 15.1 11.5 8.6 14.0 4.75 15.7 -1.7 18.55 -7.3 23.75 L-11.05 27.75 -12.2 29.7 -13.15 31.65 -13.6 31.55 -13.65 31.15 Q-13.65 26.7 -10.35 20.8 -7.2 15.15 -2.6 10.75 0.75 7.6 3.2 6.55 7.05 4.95 17.5 3.2 21.4 2.6 24.2 1.55 25.05 1.25 28.3 -0.25 30.5 -1.2 31.8 -2.6 L33.3 -4.35 Q34.1 -5.2 34.1 -4.1 M57.3 34.9 Q57.3 37.1 56.1 41.25 L54.1 47.2 Q53.65 47.25 53.65 46.6 L54.6 42.05 Q55.55 37.45 55.55 34.3 55.55 30.4 54.6 25.7 L52.45 17.15 51.1 12.85 50.2 10.75 48.95 8.6 44.9 3.45 42.3 0.2 Q42.3 -0.2 44.1 1.0 45.9 2.2 47.3 3.55 L49.2 5.8 50.75 7.95 52.25 10.15 52.65 10.75 Q53.25 11.75 53.35 12.45 L53.95 14.7 54.7 16.95 Q57.3 25.65 57.3 34.9 M43.05 4.85 Q43.5 4.85 45.0 6.4 L46.75 8.45 48.0 10.75 48.5 12.2 49.55 15.75 Q50.35 18.55 50.35 19.7 L50.1 20.3 47.9 12.7 47.1 10.75 Q45.5 7.45 42.75 5.0 42.85 4.85 43.05 4.85 M40.85 5.45 L43.05 10.75 44.7 14.5 Q46.05 17.45 46.05 22.0 46.05 25.5 45.65 27.4 45.05 29.95 43.25 33.2 L42.95 33.2 42.9 32.9 43.55 30.25 Q44.2 27.35 44.2 25.4 44.2 19.05 42.4 14.2 41.65 12.3 41.25 10.75 40.55 8.4 40.55 6.95 40.55 5.8 40.85 5.45" fill="#683f24" fill-rule="evenodd" stroke="none"/>
    <path d="M8.5 -14.25 L9.75 -14.35 Q17.0 -14.85 24.65 -12.95 16.4 -14.55 6.1 -12.45 L1.05 -11.25 -1.4 -10.1 Q-7.3 -7.1 -7.3 -4.05 -7.3 -3.35 -6.8 -2.8 L-6.2 -2.15 -7.3 -1.6 -11.65 0.95 Q-12.2 -0.2 -9.8 -4.95 -9.2 -6.15 -7.9 -7.2 L-7.85 -7.25 -6.3 -8.3 -5.15 -8.95 Q-2.9 -10.1 0.4 -11.05 2.1 -12.1 6.75 -13.8 L8.5 -14.25 M41.2 -2.4 L41.65 -2.3 Q45.85 -0.85 49.15 2.2 L49.6 2.65 49.85 2.9 Q53.35 6.4 55.65 10.75 L57.35 14.55 57.75 15.65 58.55 19.95 Q59.3 23.65 59.35 25.3 62.95 50.1 45.15 70.5 L45.45 70.0 48.05 64.5 48.85 63.35 Q51.7 58.65 52.6 56.45 56.0 47.55 57.1 42.55 58.5 35.8 58.6 28.7 L58.6 28.15 58.5 26.45 58.3 25.4 Q57.3 17.75 54.2 10.75 L54.0 10.3 Q50.1 1.65 41.2 -2.4 M0.8 -4.9 L0.85 -4.9 0.85 -4.95 1.25 -5.05 1.4 -5.1 1.75 -5.2 2.35 -5.4 13.15 -7.1 13.35 -7.1 13.55 -7.1 13.8 -7.1 14.2 -7.1 8.05 -5.9 6.35 -5.5 4.75 -5.1 4.35 -4.95 -2.4 -2.4 -4.5 -1.4 -4.1 -1.75 -1.1 -3.9 0.8 -4.9 M-19.1 12.4 L-19.4 14.35 -19.75 17.6 -19.65 19.65 -18.6 21.9 Q-14.0 16.35 -11.2 13.55 -7.55 9.9 -3.25 7.6 L-4.45 8.5 -7.85 11.5 -8.05 11.7 -8.25 11.85 -8.65 12.25 -10.6 14.4 -10.65 14.45 Q-17.3 22.1 -19.6 32.15 L-20.6 28.95 Q-22.6 22.15 -20.65 16.1 -20.1 14.2 -19.1 12.4 M-0.6 5.85 L-0.5 5.8 Q2.9 3.8 6.7 2.55 L6.9 2.5 Q4.85 3.6 2.3 5.25 -1.6 7.8 -4.65 10.55 L-4.25 9.95 -1.9 7.05 -0.6 5.85 M-15.85 26.65 L-16.2 29.3 -16.55 33.5 Q-16.55 37.7 -15.35 40.3 L-5.9 28.1 Q0.5 21.15 9.0 17.1 12.4 15.5 18.3 13.05 L27.1 9.35 Q32.8 6.95 35.75 4.5 L36.95 3.05 37.75 1.5 38.6 0.05 38.55 0.3 Q37.4 3.95 35.85 5.6 L35.75 5.65 Q27.25 14.0 15.6 18.35 3.85 22.7 -4.95 31.75 -13.0 40.05 -14.0 51.3 -20.15 47.6 -18.45 36.95 L-17.35 31.45 -15.95 26.95 -15.85 26.65 M38.75 2.15 L38.9 1.55 38.65 4.2 Q38.65 5.7 40.3 10.5 L40.4 10.75 Q41.2 13.2 41.6 15.5 40.8 12.6 39.65 10.75 L39.2 10.1 Q37.7 8.05 35.6 7.5 L36.2 6.9 Q37.2 5.9 37.85 4.6 L38.6 2.75 38.75 2.15 M39.0 40.8 L40.75 39.35 Q43.6 37.3 45.1 33.85 L46.4 31.15 Q47.1 29.5 46.9 28.3 L47.35 25.35 47.65 22.8 Q47.65 19.45 46.55 16.3 L44.45 10.75 43.8 9.1 Q44.55 9.75 45.2 10.75 46.35 12.5 47.35 15.35 48.6 18.9 48.8 21.75 L48.0 19.75 47.9 19.6 Q50.0 34.55 38.0 42.1 L38.15 41.95 38.55 41.4 38.85 41.0 38.95 40.85 39.0 40.8 M48.9 37.55 L49.6 36.05 Q51.6 31.8 51.6 27.6 51.6 23.65 51.0 20.45 L50.4 17.0 49.45 12.6 Q49.45 12.3 49.75 12.1 51.3 16.3 52.2 21.5 53.1 26.55 53.1 31.0 L52.95 35.6 52.7 38.7 52.1 32.45 Q50.95 36.65 48.5 39.75 L48.75 38.65 48.9 37.55" fill="#3e2615" fill-rule="evenodd" stroke="none"/>
    <path d="M57.75 15.65 Q65.85 38.5 54.55 60.1 49.5 69.85 40.55 76.55 46.55 64.6 49.8 51.6 51.55 44.5 51.5 37.25 L49.8 40.25 Q49.15 41.45 47.2 42.3 47.85 37.85 47.25 33.65 45.25 39.05 40.8 42.45 38.7 44.05 35.9 44.0 L35.75 43.5 Q40.75 37.1 41.5 29.1 42.4 19.9 38.65 11.45 L38.3 10.75 Q37.2 8.8 35.1 8.05 L30.45 11.6 Q21.05 17.15 11.1 21.8 -0.55 27.1 -7.25 37.75 -11.75 45.05 -13.3 53.45 -18.35 52.8 -19.65 47.3 -20.8 42.3 -20.45 37.0 L-20.0 33.65 Q-25.1 25.95 -22.25 16.55 -19.6 7.95 -12.8 1.9 -13.35 -5.95 -7.1 -9.8 -1.2 -13.4 8.5 -14.25 L6.75 -13.8 Q2.1 -12.1 0.4 -11.05 -2.9 -10.1 -5.15 -8.95 L-6.3 -8.3 -7.85 -7.25 -7.9 -7.2 Q-9.2 -6.15 -9.8 -4.95 -12.2 -0.2 -11.65 0.95 L-7.3 -1.6 -6.2 -2.15 Q-2.8 -3.85 0.8 -4.9 L-1.1 -3.9 -4.1 -1.75 -4.5 -1.4 -2.4 -2.4 Q-9.95 1.1 -15.35 7.1 -17.65 9.65 -19.1 12.4 -20.1 14.2 -20.65 16.1 -22.6 22.15 -20.6 28.95 L-19.6 32.15 Q-17.3 22.1 -10.65 14.45 L-10.6 14.4 -8.65 12.25 -8.25 11.85 -8.05 11.7 -7.85 11.5 -4.45 8.5 -3.25 7.6 -0.6 5.85 -1.9 7.05 -4.25 9.95 -4.65 10.55 -4.7 10.55 Q-9.2 14.55 -12.05 18.9 -14.3 22.4 -15.85 26.65 L-15.95 26.95 -17.35 31.45 -18.45 36.95 Q-20.15 47.6 -14.0 51.3 -13.0 40.05 -4.95 31.75 3.85 22.7 15.6 18.35 27.25 14.0 35.75 5.65 L35.85 5.6 Q37.4 3.95 38.55 0.3 L38.6 0.05 39.0 -1.35 39.2 -2.5 39.2 -0.75 38.75 2.15 38.6 2.75 37.85 4.6 Q37.2 5.9 36.2 6.9 L35.6 7.5 Q37.7 8.05 39.2 10.1 L39.65 10.75 Q40.8 12.6 41.6 15.5 42.3 18.1 42.7 21.5 44.05 33.45 39.0 40.8 L38.95 40.85 38.85 41.0 38.55 41.4 38.15 41.95 38.0 42.1 Q50.0 34.55 47.9 19.6 L48.0 19.75 48.8 21.75 Q50.4 26.4 48.7 31.5 49.35 33.95 48.9 37.55 L48.75 38.65 48.5 39.75 Q50.95 36.65 52.1 32.45 L52.7 38.7 Q53.25 52.0 48.05 64.5 L45.45 70.0 45.15 70.5 Q62.95 50.1 59.35 25.3 59.3 23.65 58.55 19.95 L57.75 15.65" fill="#27180d" fill-rule="evenodd" stroke="none"/>
    <path d="M41.3 0.9 L41.0 0.45 40.75 -0.75 40.65 -2.2 Q37.6 -1.05 37.15 -2.75 36.65 -4.4 37.6 -4.8 38.6 -5.25 39.5 -5.3 38.25 -6.35 37.9 -7.05 37.5 -7.95 37.8 -8.55 L38.35 -9.15 Q39.0 -9.4 39.8 -9.15 40.85 -8.9 41.4 -7.7 L41.9 -7.05 41.8 -8.8 Q41.85 -9.4 42.85 -9.85 L44.7 -9.95 Q45.4 -9.75 45.65 -9.15 L45.55 -7.9 44.8 -6.05 44.7 -6.0 Q45.6 -6.35 46.7 -6.0 47.7 -5.75 48.3 -4.85 L48.0 -4.2 47.9 -4.4 Q47.5 -5.3 46.35 -5.45 L45.65 -5.35 44.35 -6.1 44.75 -6.55 Q45.75 -7.85 45.3 -8.95 L44.4 -9.55 43.05 -9.5 Q42.75 -9.4 42.6 -8.25 L42.3 -6.15 42.25 -6.1 42.1 -6.2 42.0 -6.1 40.15 -8.1 Q39.15 -8.95 38.55 -8.7 L38.2 -7.5 Q38.95 -5.9 40.8 -5.25 L40.55 -4.9 38.5 -4.6 Q37.55 -4.15 38.0 -3.15 38.4 -2.25 39.7 -2.5 40.4 -2.7 41.2 -3.2 L41.25 -1.5 41.25 -0.15 41.7 0.6 41.3 0.9 M44.2 -0.4 L44.75 -0.15 43.95 0.05 44.2 -0.4" fill="#002851" fill-rule="evenodd" stroke="none"/>
    <path d="M41.7 0.6 L41.25 -0.15 41.25 -1.5 41.2 -3.2 Q40.4 -2.7 39.7 -2.5 38.4 -2.25 38.0 -3.15 37.55 -4.15 38.5 -4.6 L40.55 -4.9 40.8 -5.25 Q38.95 -5.9 38.2 -7.5 L38.55 -8.7 Q39.15 -8.95 40.15 -8.1 L42.0 -6.1 42.1 -6.2 42.25 -6.1 42.3 -6.15 42.6 -8.25 Q42.75 -9.4 43.05 -9.5 L44.4 -9.55 45.3 -8.95 Q45.75 -7.85 44.75 -6.55 L44.35 -6.1 44.2 -6.15 Q43.45 -6.15 42.8 -5.55 L41.85 -5.6 41.25 -4.8 Q41.05 -4.4 41.25 -3.9 L41.75 -3.4 41.7 -2.95 Q41.7 -1.45 42.55 -1.0 L44.2 -0.4 43.95 0.05 43.7 0.1 Q42.55 0.1 41.7 0.6 M45.65 -5.35 L46.35 -5.45 Q47.5 -5.3 47.9 -4.4 L48.0 -4.2 47.75 -3.15 47.7 -3.25 Q47.05 -4.25 45.8 -5.25 L45.65 -5.35" fill="#0059b2" fill-rule="evenodd" stroke="none"/>
    <path d="M42.8 -5.55 L42.6 -5.35 Q41.85 -4.55 41.75 -3.4 L41.25 -3.9 Q41.05 -4.4 41.25 -4.8 L41.85 -5.6 42.8 -5.55 M50.15 0.75 Q50.15 1.45 49.6 1.95 49.1 2.5 48.4 2.5 47.7 2.5 47.15 1.95 46.65 1.45 46.65 0.75 46.65 0.05 47.15 -0.5 47.7 -1.0 48.4 -1.0 49.1 -1.0 49.6 -0.5 50.15 0.05 50.15 0.75 M51.8 10.8 Q51.3 10.85 50.9 10.5 50.5 10.15 50.45 9.65 50.4 9.15 50.75 8.8 51.1 8.35 51.6 8.3 52.1 8.25 52.45 8.65 52.9 8.95 52.95 9.45 L52.6 10.35 Q52.3 10.75 51.8 10.8" fill="#0065cb" fill-rule="evenodd" stroke="none"/>
    <path d="M55.3 4.85 L55.7 5.1 Q56.3 5.55 56.35 6.15 L55.8 7.35 54.5 8.8 54.4 8.9 Q55.35 8.85 56.3 9.5 57.35 10.2 57.45 11.6 57.6 13.0 56.1 13.4 54.65 13.8 53.05 12.25 53.0 14.9 51.35 15.05 L49.15 14.7 Q48.8 14.2 48.75 13.7 L48.95 12.5 49.3 11.1 Q46.05 11.15 46.15 9.4 L46.45 8.2 47.35 8.45 Q47.05 8.7 47.1 9.3 47.2 10.3 48.5 10.45 L50.15 10.3 49.6 11.95 49.2 13.25 Q49.3 14.75 50.4 14.65 52.35 14.5 52.45 12.7 L52.45 11.2 52.55 11.15 52.75 11.0 52.8 11.0 53.25 11.55 Q54.45 12.9 55.7 12.8 L56.3 12.65 56.7 12.4 56.9 11.45 Q56.8 10.4 55.75 9.9 L53.45 9.2 53.4 9.0 54.6 8.35 Q56.0 7.45 55.9 6.25 55.85 5.85 55.3 5.4 L54.8 5.1 55.25 4.85 55.3 4.85 M51.35 4.7 Q51.8 5.25 51.85 6.15 L52.1 6.9 52.6 5.3 52.75 5.1 53.6 5.3 53.15 6.0 52.15 7.9 52.1 7.9 52.0 7.8 51.9 7.85 Q51.45 6.45 50.8 5.4 L50.25 4.6 50.25 4.25 51.35 4.7 M49.55 7.35 L50.45 8.25 50.1 8.5 48.8 8.2 49.25 7.75 49.55 7.35" fill="#001b37" fill-rule="evenodd" stroke="none"/>
    <path d="M53.6 5.3 L53.8 5.3 54.8 5.1 55.3 5.4 Q55.85 5.85 55.9 6.25 56.0 7.45 54.6 8.35 L53.4 9.0 53.45 9.2 55.75 9.9 Q56.8 10.4 56.9 11.45 L56.7 12.4 56.3 12.65 55.7 12.8 Q54.45 12.9 53.25 11.55 L52.8 11.0 52.75 11.0 52.55 11.15 52.45 11.2 52.45 12.7 Q52.35 14.5 50.4 14.65 49.3 14.75 49.2 13.25 L49.6 11.95 50.15 10.3 48.5 10.45 Q47.2 10.3 47.1 9.3 47.05 8.7 47.35 8.45 L47.5 8.45 48.8 8.2 50.1 8.5 50.45 8.25 49.55 7.35 Q50.05 6.35 50.25 4.6 L50.8 5.4 Q51.45 6.45 51.9 7.85 L52.0 7.8 52.1 7.9 52.15 7.9 53.15 6.0 53.6 5.3 M51.8 10.8 Q52.3 10.75 52.6 10.35 L52.95 9.45 Q52.9 8.95 52.45 8.65 52.1 8.25 51.6 8.3 51.1 8.35 50.75 8.8 50.4 9.15 50.45 9.65 50.5 10.15 50.9 10.5 51.3 10.85 51.8 10.8" fill="#00366d" fill-rule="evenodd" stroke="none"/>
    <path d="M48.3 -4.85 L48.85 -5.7 Q49.95 -7.05 51.9 -7.05 53.85 -7.05 54.3 -4.95 54.65 -2.9 52.3 -0.85 55.95 -0.5 55.95 1.85 55.95 4.35 55.3 4.85 L55.25 4.85 54.8 5.1 53.8 5.3 53.6 5.3 52.75 5.1 52.2 4.95 51.35 4.7 50.25 4.25 50.25 4.6 Q50.05 6.35 49.55 7.35 L49.25 7.75 48.8 8.2 47.5 8.45 47.35 8.45 46.45 8.2 Q45.1 7.7 45.15 6.6 45.2 5.1 45.6 3.95 43.6 4.95 42.45 4.95 41.15 4.95 40.5 4.2 40.1 3.7 40.1 3.2 40.1 2.2 40.85 1.3 L41.3 0.9 41.7 0.6 Q42.55 0.1 43.7 0.1 L43.95 0.05 44.75 -0.15 44.2 -0.4 42.55 -1.0 Q41.7 -1.45 41.7 -2.95 L41.75 -3.4 Q41.85 -4.55 42.6 -5.35 L42.8 -5.55 Q43.45 -6.15 44.2 -6.15 L44.35 -6.1 45.65 -5.35 45.8 -5.25 Q47.05 -4.25 47.7 -3.25 L47.75 -3.15 48.0 -4.2 48.3 -4.85 M47.05 -3.5 Q46.2 -4.95 45.15 -5.35 L44.25 -5.5 43.85 -5.4 43.45 -5.15 43.0 -4.8 Q42.35 -4.1 42.3 -3.15 L42.3 -3.0 Q42.3 -2.55 43.6 -1.7 L44.25 -1.25 44.9 -0.85 46.15 -0.1 46.1 -0.05 46.0 0.1 46.0 0.25 Q44.05 0.75 42.5 1.5 40.75 2.3 40.7 3.15 L42.15 4.3 Q44.6 4.3 46.4 2.35 L46.7 2.8 Q45.95 5.05 45.95 5.65 45.95 7.1 47.45 7.1 48.2 7.1 48.65 6.65 L48.95 6.25 49.25 5.3 49.35 4.5 49.35 3.85 49.2 2.95 51.45 3.95 53.25 4.65 53.65 4.65 53.75 4.65 53.9 4.6 Q55.35 4.4 55.35 3.1 55.35 0.35 52.85 0.05 L50.75 -0.1 50.7 -0.25 50.45 -0.6 50.45 -0.65 51.3 -1.25 Q53.35 -2.75 53.35 -4.5 L53.25 -5.3 52.95 -5.95 51.6 -6.3 Q50.1 -6.3 49.35 -4.9 L48.1 -1.75 47.8 -1.7 47.05 -3.5" fill="#002244" fill-rule="evenodd" stroke="none"/>
    <path d="M47.05 -3.5 L47.8 -1.7 48.1 -1.75 49.35 -4.9 Q50.1 -6.3 51.6 -6.3 L52.95 -5.95 53.25 -5.3 53.35 -4.5 Q53.35 -2.75 51.3 -1.25 L50.45 -0.65 50.45 -0.6 50.7 -0.25 50.75 -0.1 52.85 0.05 Q55.35 0.35 55.35 3.1 55.35 4.4 53.9 4.6 L53.75 4.65 53.65 4.65 53.25 4.65 51.45 3.95 49.2 2.95 49.35 3.85 49.35 4.5 49.25 5.3 48.95 6.25 48.65 6.65 Q48.2 7.1 47.45 7.1 45.95 7.1 45.95 5.65 45.95 5.05 46.7 2.8 L46.4 2.35 Q44.6 4.3 42.15 4.3 L40.7 3.15 Q40.75 2.3 42.5 1.5 44.05 0.75 46.0 0.25 L46.0 0.1 46.1 -0.05 46.15 -0.1 44.9 -0.85 44.25 -1.25 43.6 -1.7 Q42.3 -2.55 42.3 -3.0 L42.3 -3.15 Q42.35 -4.1 43.0 -4.8 L43.45 -5.15 43.85 -5.4 44.25 -5.5 45.15 -5.35 Q46.2 -4.95 47.05 -3.5 M50.15 0.75 Q50.15 0.05 49.6 -0.5 49.1 -1.0 48.4 -1.0 47.7 -1.0 47.15 -0.5 46.65 0.05 46.65 0.75 46.65 1.45 47.15 1.95 47.7 2.5 48.4 2.5 49.1 2.5 49.6 1.95 50.15 1.45 50.15 0.75" fill="#00478f" fill-rule="evenodd" stroke="none"/>
  </g>
</svg>
