<?xml version="1.0" encoding="UTF-8" standalone="no"?>
<svg xmlns:ffdec="https://www.free-decompiler.com/flash" xmlns:xlink="http://www.w3.org/1999/xlink" ffdec:objectType="shape" height="50.6px" width="52.0px" xmlns="http://www.w3.org/2000/svg">
  <g transform="matrix(1.0, 0.0, 0.0, 1.0, 17.8, 3.8)">
    <path d="M2.1 -3.65 L7.0 -3.3 7.0 -3.25 Q9.7 -2.4 12.6 -0.6 L18.85 3.4 24.5 7.1 29.15 8.7 Q30.55 9.3 31.15 10.65 L33.1 15.1 Q34.4 18.3 34.15 19.9 32.85 22.45 31.35 23.25 29.15 24.6 27.4 24.55 28.5 27.45 27.3 31.25 25.9 35.55 23.0 36.7 19.95 37.95 18.05 37.25 L18.1 37.2 16.3 36.05 Q16.95 41.1 15.95 43.7 15.2 45.5 13.3 46.35 10.2 47.6 7.8 45.25 6.45 44.0 5.3 41.35 4.6 40.15 3.75 36.25 L2.65 32.45 Q0.75 27.8 -0.15 26.65 -1.7 25.0 -3.6 26.2 L-2.55 28.15 -2.55 28.2 Q-1.1 31.7 -1.95 34.3 -2.85 36.95 -5.95 38.2 -8.9 39.45 -11.95 36.65 -15.0 33.95 -17.45 27.8 -18.7 24.95 -15.2 18.95 -11.35 12.35 -8.75 6.5 L-6.75 1.5 -6.65 1.4 -4.75 -1.0 -7.85 8.95 Q-8.25 10.1 -11.85 16.85 -13.95 21.1 -15.95 24.3 -16.8 25.75 -16.05 27.6 -13.4 34.0 -10.25 36.1 -8.15 37.3 -6.5 36.65 -4.65 35.9 -3.9 34.4 -2.9 32.5 -3.9 29.9 -4.15 29.25 -5.25 28.5 -6.55 27.65 -7.25 27.95 L-9.9 28.7 -4.75 24.85 Q-1.95 23.7 -0.35 24.3 L-3.25 17.5 Q0.0 21.65 3.4 30.2 5.45 35.15 6.5 38.55 6.9 39.65 8.35 40.9 L7.0 40.75 Q6.3 40.9 8.4 42.75 10.35 44.65 12.15 44.05 13.85 43.4 14.35 42.55 14.85 41.7 14.6 38.6 L12.7 40.05 14.3 37.3 Q15.0 35.95 14.25 34.1 13.35 32.5 12.75 30.75 11.8 28.0 12.65 25.45 L13.65 25.55 Q15.0 26.0 16.95 28.65 L18.6 30.4 20.5 32.35 Q19.45 32.7 17.6 31.45 17.6 35.0 20.0 35.15 22.35 35.3 23.4 34.6 24.45 33.95 25.8 29.85 23.4 32.45 22.4 31.9 26.75 28.2 26.45 26.9 26.15 25.5 25.15 23.9 L24.4 22.85 22.7 20.8 Q21.3 19.3 21.3 17.05 L24.0 17.9 27.35 19.3 27.5 19.3 Q26.75 19.45 26.55 19.55 26.4 19.75 26.4 20.05 26.4 20.55 26.7 21.1 27.1 21.9 28.45 22.1 29.55 22.35 30.85 21.7 32.15 21.05 32.35 19.35 32.65 17.7 31.45 15.25 L30.55 17.0 Q31.6 14.1 30.85 12.75 30.0 11.35 29.15 10.8 28.7 10.5 26.6 9.5 25.8 9.15 23.6 8.75 22.75 7.7 18.85 5.25 L13.6 2.1 Q5.3 -2.7 2.1 -3.65 M24.15 20.65 Q24.45 21.05 24.95 20.1 25.4 19.25 24.5 18.9 L23.1 18.8 23.3 19.4 24.15 20.65 M15.65 28.3 Q14.9 27.65 14.2 27.75 L14.25 28.6 14.85 31.6 Q15.5 29.9 16.2 29.0 L15.65 28.3" fill="#0d0d0d" fill-rule="evenodd" stroke="none"/>
    <path d="M-4.75 -1.0 Q-4.8 -0.8 -2.95 -2.0 -0.95 -3.25 1.2 -3.55 L1.1 -3.55 2.0 -3.7 2.05 -3.65 2.1 -3.65 Q5.3 -2.7 13.6 2.1 L18.85 5.25 Q22.75 7.7 23.6 8.75 25.8 9.15 26.6 9.5 28.7 10.5 29.15 10.8 30.0 11.35 30.85 12.75 31.6 14.1 30.55 17.0 L31.45 15.25 Q32.65 17.7 32.35 19.35 32.15 21.05 30.85 21.7 29.55 22.35 28.45 22.1 27.1 21.9 26.7 21.1 26.4 20.55 26.4 20.05 26.4 19.75 26.55 19.55 26.75 19.45 27.5 19.3 L27.35 19.3 24.0 17.9 21.3 17.05 Q21.3 19.3 22.7 20.8 L24.4 22.85 25.15 23.9 Q26.15 25.5 26.45 26.9 26.75 28.2 22.4 31.9 23.4 32.45 25.8 29.85 24.45 33.95 23.4 34.6 22.35 35.3 20.0 35.15 17.6 35.0 17.6 31.45 19.45 32.7 20.5 32.35 L18.6 30.4 16.95 28.65 Q15.0 26.0 13.65 25.55 L12.65 25.45 Q11.8 28.0 12.75 30.75 13.35 32.5 14.25 34.1 15.0 35.95 14.3 37.3 L12.7 40.05 14.6 38.6 Q14.85 41.7 14.35 42.55 13.85 43.4 12.15 44.05 10.35 44.65 8.4 42.75 6.3 40.9 7.0 40.75 L8.35 40.9 Q6.9 39.65 6.5 38.55 5.45 35.15 3.4 30.2 0.0 21.65 -3.25 17.5 L-0.35 24.3 Q-1.95 23.7 -4.75 24.85 L-9.9 28.7 -7.25 27.95 Q-6.55 27.65 -5.25 28.5 -4.15 29.25 -3.9 29.9 -2.9 32.5 -3.9 34.4 -4.65 35.9 -6.5 36.65 -8.15 37.3 -10.25 36.1 -13.4 34.0 -16.05 27.6 -16.8 25.75 -15.95 24.3 -13.95 21.1 -11.85 16.85 -8.25 10.1 -7.85 8.95 L-4.75 -1.0 M23.6 13.0 Q23.95 11.9 23.3 10.3 L18.6 6.5 15.0 4.0 Q5.95 -2.15 1.65 -1.75 -5.9 -1.1 -5.05 4.6 L-4.7 6.5 -4.0 9.5 Q-3.35 12.35 -4.1 13.85 -2.15 15.95 -0.45 19.3 L2.0 24.6 Q4.55 29.95 8.4 28.4 10.75 27.4 11.2 26.05 11.5 25.0 11.2 21.1 L14.25 22.35 Q16.65 23.4 17.0 23.25 19.3 22.3 19.35 19.2 18.9 15.75 19.0 14.6 L21.05 14.8 22.2 14.75 Q23.4 14.25 23.6 13.0 M-4.9 14.55 L-6.5 9.9 Q-8.4 12.1 -12.25 18.4 -15.95 24.75 -15.7 25.3 L-14.85 26.6 Q-13.95 27.7 -12.8 27.25 -6.55 22.35 -5.2 19.6 -4.05 17.35 -4.9 14.55 M-6.7 33.3 Q-5.55 31.95 -5.8 29.85 L-13.5 29.8 -13.35 30.4 -11.7 32.9 Q-9.75 35.15 -8.45 34.6 -7.35 34.2 -6.7 33.3 M24.7 10.35 Q24.5 10.7 24.55 12.35 24.6 13.85 23.6 15.2 27.7 17.15 28.9 15.9 29.95 14.95 29.1 12.85 28.7 11.95 27.9 11.55 L24.7 10.35 M19.5 29.2 Q20.85 30.3 22.35 29.65 25.55 28.35 24.4 25.9 L20.45 20.9 Q20.35 21.9 18.65 23.25 17.35 24.3 16.15 24.8 18.25 28.3 19.5 29.2 M11.55 28.3 Q10.3 29.8 6.15 30.1 3.75 31.25 7.85 38.4 L8.15 39.15 8.2 39.05 10.25 38.35 Q12.2 37.55 12.3 36.6 L11.55 28.3" fill="#1e1e1e" fill-rule="evenodd" stroke="none"/>
    <path d="M14.6 6.5 L9.4 3.2 Q1.65 -1.15 -1.9 0.3 -3.95 1.15 -3.25 4.65 L-2.75 6.5 1.25 17.45 2.95 20.85 3.9 20.8 Q4.95 19.95 5.8 16.0 8.4 18.75 10.55 17.85 L11.1 16.1 Q11.65 14.4 13.9 13.75 16.4 12.85 17.1 11.75 17.7 10.65 16.85 8.8 16.55 7.95 14.6 6.5 M23.6 13.0 Q23.4 14.25 22.2 14.75 L21.05 14.8 19.0 14.6 Q18.9 15.75 19.35 19.2 19.3 22.3 17.0 23.25 16.65 23.4 14.25 22.35 L11.2 21.1 Q11.5 25.0 11.2 26.05 10.75 27.4 8.4 28.4 4.55 29.95 2.0 24.6 L-0.45 19.3 Q-2.15 15.95 -4.1 13.85 -3.35 12.35 -4.0 9.5 L-4.7 6.5 -5.05 4.6 Q-5.9 -1.1 1.65 -1.75 5.95 -2.15 15.0 4.0 L18.6 6.5 23.3 10.3 Q23.95 11.9 23.6 13.0 M-7.25 13.75 L-7.35 13.45 -9.95 17.65 -14.35 24.4 -14.0 25.0 -12.9 24.9 Q-11.25 24.25 -9.7 22.35 L-7.1 18.9 Q-5.7 16.8 -7.25 13.75 M-6.7 33.3 Q-7.35 34.2 -8.45 34.6 -9.75 35.15 -11.7 32.9 L-13.35 30.4 -13.5 29.8 -5.8 29.85 Q-5.55 31.95 -6.7 33.3 M-4.9 14.55 Q-4.05 17.35 -5.2 19.6 -6.55 22.35 -12.8 27.25 -13.95 27.7 -14.85 26.6 L-15.7 25.3 Q-15.95 24.75 -12.25 18.4 -8.4 12.1 -6.5 9.9 L-4.9 14.55 M21.25 8.8 Q17.8 9.7 18.4 11.2 18.55 11.65 19.65 12.25 20.6 12.85 21.6 12.95 L22.75 12.35 22.35 11.0 21.25 8.8 M24.7 10.35 L27.9 11.55 Q28.7 11.95 29.1 12.85 29.95 14.95 28.9 15.9 27.7 17.15 23.6 15.2 24.6 13.85 24.55 12.35 24.5 10.7 24.7 10.35 M26.9 14.1 L27.2 14.35 27.5 14.4 27.75 14.15 27.7 13.75 27.5 13.5 27.15 13.45 26.9 13.7 26.9 14.1 M14.55 21.55 L16.1 21.5 Q18.5 20.6 18.55 18.65 L18.15 17.0 Q17.3 14.85 14.8 16.15 12.2 17.45 13.2 19.9 13.7 21.05 14.55 21.55 M19.5 29.2 Q18.25 28.3 16.15 24.8 17.35 24.3 18.65 23.25 20.35 21.9 20.45 20.9 L24.4 25.9 Q25.55 28.35 22.35 29.65 20.85 30.3 19.5 29.2 M10.15 35.45 L9.5 35.95 Q9.25 36.25 9.4 36.6 L9.9 37.0 10.75 36.95 11.35 36.45 11.45 35.8 10.95 35.35 10.15 35.45 M11.55 28.3 L12.3 36.6 Q12.2 37.55 10.25 38.35 L8.2 39.05 8.15 39.15 7.85 38.4 Q3.75 31.25 6.15 30.1 10.3 29.8 11.55 28.3 M5.85 27.25 Q7.1 27.35 8.6 26.75 L10.1 26.05 Q9.05 20.85 5.25 22.45 3.1 23.3 3.8 25.85 4.3 27.2 5.85 27.25 M23.5 27.0 L22.95 26.55 22.05 26.6 Q21.65 26.75 21.45 27.2 21.2 27.55 21.35 27.9 L21.95 28.3 22.7 28.2 23.45 27.7 23.5 27.0" fill="#272727" fill-rule="evenodd" stroke="none"/>
    <path d="M14.6 6.5 Q16.55 7.95 16.85 8.8 17.7 10.65 17.1 11.75 16.4 12.85 13.9 13.75 11.65 14.4 11.1 16.1 L10.55 17.85 Q8.4 18.75 5.8 16.0 4.95 19.95 3.9 20.8 L2.95 20.85 1.25 17.45 -2.75 6.5 -3.25 4.65 Q-3.95 1.15 -1.9 0.3 1.65 -1.15 9.4 3.2 L14.6 6.5 M-7.25 13.75 Q-5.7 16.8 -7.1 18.9 L-9.7 22.35 Q-11.25 24.25 -12.9 24.9 L-14.0 25.0 -14.35 24.4 -9.95 17.65 -7.35 13.45 -7.25 13.75 M21.25 8.8 L22.35 11.0 22.75 12.35 21.6 12.95 Q20.6 12.85 19.65 12.25 18.55 11.65 18.4 11.2 17.8 9.7 21.25 8.8 M26.9 14.1 L26.9 13.7 27.15 13.45 27.5 13.5 27.7 13.75 27.75 14.15 27.5 14.4 27.2 14.35 26.9 14.1 M14.55 21.55 Q13.7 21.05 13.2 19.9 12.2 17.45 14.8 16.15 17.3 14.85 18.15 17.0 L18.55 18.65 Q18.5 20.6 16.1 21.5 L14.55 21.55 M10.15 35.45 L10.95 35.35 11.45 35.8 11.35 36.45 10.75 36.95 9.9 37.0 9.4 36.6 Q9.25 36.25 9.5 35.95 L10.15 35.45 M23.5 27.0 L23.45 27.7 22.7 28.2 21.95 28.3 21.35 27.9 Q21.2 27.55 21.45 27.2 21.65 26.75 22.05 26.6 L22.95 26.55 23.5 27.0 M5.85 27.25 Q4.3 27.2 3.8 25.85 3.1 23.3 5.25 22.45 9.05 20.85 10.1 26.05 L8.6 26.75 Q7.1 27.35 5.85 27.25" fill="#3e3e3e" fill-rule="evenodd" stroke="none"/>
  </g>
</svg>
