<?xml version="1.0" encoding="UTF-8" standalone="no"?>
<svg xmlns:ffdec="https://www.free-decompiler.com/flash" xmlns:xlink="http://www.w3.org/1999/xlink" ffdec:objectType="shape" height="52.0px" width="49.35px" xmlns="http://www.w3.org/2000/svg">
  <g transform="matrix(1.0, 0.0, 0.0, 1.0, 31.0, 4.3)">
    <path d="M0.6 -4.2 L4.25 -3.05 Q5.55 -2.5 6.6 -1.75 11.4 1.65 14.4 7.15 15.15 8.65 18.35 18.0 18.35 27.1 16.85 30.45 14.8 34.85 9.25 33.2 10.2 36.35 7.7 39.45 4.95 42.8 0.2 42.8 L-2.6 42.45 Q-5.6 41.65 -6.75 39.8 -8.5 44.4 -9.4 45.55 -11.1 47.7 -14.7 47.7 -18.35 47.7 -19.65 45.9 -20.45 44.75 -20.45 42.15 -20.45 38.95 -18.75 33.65 -16.75 28.25 -16.35 26.65 L-15.2 21.05 Q-19.95 27.45 -23.8 28.1 -27.9 28.75 -29.85 25.5 -31.85 22.2 -30.4 19.1 -28.95 15.95 -26.5 15.35 -24.1 14.75 -22.8 14.05 L-20.1 12.5 -18.75 11.5 Q-15.75 8.7 -13.25 5.15 L-12.55 4.0 -12.55 3.95 -9.35 0.5 -5.3 -4.25 -9.35 1.45 -11.3 4.0 -12.05 4.85 -12.45 5.3 -12.9 6.2 -13.0 6.35 -13.1 6.45 Q-15.3 9.75 -18.2 12.45 L-20.8 14.15 Q-23.5 15.8 -24.95 16.15 -28.65 17.0 -29.5 19.95 -30.3 22.95 -28.25 25.4 -26.25 27.8 -22.6 25.85 -19.0 23.9 -16.9 19.75 -15.5 18.2 -14.7 18.55 L-14.7 18.5 -13.7 14.75 -13.8 14.65 Q-14.05 14.5 -14.3 14.5 L-15.2 14.35 -13.95 13.9 -13.65 13.85 -13.6 13.9 -13.5 13.9 -13.4 13.35 -12.75 9.75 -12.25 7.6 -12.8 15.1 -15.25 27.95 -17.8 35.7 Q-19.2 39.9 -19.2 42.0 -19.2 44.35 -17.85 45.65 -16.55 46.8 -14.5 46.8 -11.95 46.8 -10.15 44.65 -8.4 42.55 -8.05 39.4 -7.65 36.5 -6.45 32.05 L-5.25 27.7 -7.25 28.4 -8.65 28.5 -5.35 26.4 -3.55 24.25 -2.45 25.4 -0.35 27.8 0.2 28.25 -1.9 27.55 Q-1.8 28.55 -2.0 34.8 -2.0 37.7 -1.3 39.1 L-0.5 40.2 -0.55 40.3 Q-1.85 39.5 -4.5 35.45 -4.75 35.8 -5.25 35.9 -5.65 36.2 -5.65 37.65 -5.65 39.3 -3.5 40.5 -1.65 41.55 0.3 41.55 3.55 41.55 5.9 39.05 8.35 36.45 7.5 33.0 L7.5 27.6 5.95 28.5 5.45 28.65 7.4 25.9 9.15 23.2 11.55 25.65 9.75 25.15 Q9.1 25.1 9.1 27.0 L9.25 31.8 10.3 31.95 11.45 32.05 Q14.5 32.05 15.6 30.05 16.6 28.2 16.45 24.0 L14.45 25.2 13.45 25.45 15.25 22.75 Q16.5 20.35 16.5 19.15 16.5 17.85 14.95 13.7 L12.5 7.65 Q9.55 1.55 5.7 -1.0 L2.7 -2.95 0.6 -4.2 M-5.0 30.6 L-5.55 33.35 Q-3.85 31.25 -3.85 30.4 L-4.15 27.6 -5.0 30.6" fill="#0d0d0d" fill-rule="evenodd" stroke="none"/>
    <path d="M0.6 -4.2 L2.7 -2.95 5.7 -1.0 Q9.55 1.55 12.5 7.65 L14.95 13.7 Q16.5 17.85 16.5 19.15 16.5 20.35 15.25 22.75 L13.45 25.45 14.45 25.2 16.45 24.0 Q16.6 28.2 15.6 30.05 14.5 32.05 11.45 32.05 L10.3 31.95 9.25 31.8 9.1 27.0 Q9.1 25.1 9.75 25.15 L11.55 25.65 9.15 23.2 7.4 25.9 5.45 28.65 5.95 28.5 7.5 27.6 7.5 33.0 Q8.35 36.45 5.9 39.05 3.55 41.55 0.3 41.55 -1.65 41.55 -3.5 40.5 -5.65 39.3 -5.65 37.65 -5.65 36.2 -5.25 35.9 -4.75 35.8 -4.5 35.45 -1.85 39.5 -0.55 40.3 L-0.5 40.2 -1.3 39.1 Q-2.0 37.7 -2.0 34.8 -1.8 28.55 -1.9 27.55 L0.2 28.25 -0.35 27.8 -2.45 25.4 -3.55 24.25 -5.35 26.4 -8.65 28.5 -7.25 28.4 -5.25 27.7 -6.45 32.05 Q-7.65 36.5 -8.05 39.4 -8.4 42.55 -10.15 44.65 -11.95 46.8 -14.5 46.8 -16.55 46.8 -17.85 45.65 -19.2 44.35 -19.2 42.0 -19.2 39.9 -17.8 35.7 L-15.25 27.95 -12.8 15.1 -12.25 7.6 -12.75 9.75 -13.4 13.35 -13.5 13.9 -13.6 13.9 -13.65 13.85 -13.95 13.9 -15.2 14.35 -14.3 14.5 Q-14.05 14.5 -13.8 14.65 L-13.7 14.75 -14.7 18.5 -14.7 18.55 Q-15.5 18.2 -16.9 19.75 -19.0 23.9 -22.6 25.85 -26.25 27.8 -28.25 25.4 -30.3 22.95 -29.5 19.95 -28.65 17.0 -24.95 16.15 -23.5 15.8 -20.8 14.15 L-18.2 12.45 Q-15.3 9.75 -13.1 6.45 L-13.0 6.35 -12.9 6.2 -12.45 5.3 -12.05 4.85 -11.3 4.0 -9.35 1.45 -5.3 -4.25 -2.5 -4.3 0.6 -4.2 M-0.4 -1.8 L-2.7 -1.2 -4.55 -0.2 -6.45 0.95 Q-8.1 2.25 -9.5 4.3 L-10.75 9.8 -11.8 15.7 -12.7 21.3 -12.6 23.35 Q-12.2 25.3 -10.45 25.3 -7.9 25.3 -5.6 23.35 L-3.55 21.1 Q-3.15 22.15 -1.9 23.15 -0.3 24.5 1.5 24.5 3.3 24.5 4.75 23.7 6.4 22.8 6.4 21.15 L5.9 18.8 Q5.2 16.2 4.85 13.95 6.05 17.65 8.1 19.65 9.75 21.35 11.2 21.35 13.25 21.05 13.25 18.8 13.25 17.65 11.05 12.7 L8.7 7.8 Q6.15 2.5 4.45 0.1 2.95 -1.95 1.9 -2.05 L-0.4 -1.8 M5.35 30.05 L0.7 29.9 0.6 29.8 Q0.45 29.85 0.45 30.4 0.45 33.35 1.1 35.0 1.7 36.55 2.7 36.55 4.5 36.55 5.5 33.85 L6.4 30.45 Q6.1 30.2 5.35 30.05 M-17.75 13.2 Q-19.7 14.8 -21.7 15.6 L-26.45 17.65 Q-27.8 18.55 -27.8 20.6 -27.8 22.65 -26.35 23.05 L-24.25 22.95 Q-21.0 21.95 -17.8 17.1 -17.1 16.0 -17.75 13.2 M-8.45 32.4 Q-8.45 30.95 -9.35 30.25 -10.05 29.7 -11.2 29.7 -13.3 29.7 -15.0 32.0 -17.0 34.7 -17.0 39.15 -17.0 40.5 -16.15 41.65 -15.1 42.9 -13.4 42.9 -11.75 42.9 -10.2 40.1 -8.45 36.95 -8.45 32.4" fill="#1e1e1e" fill-rule="evenodd" stroke="none"/>
    <path d="M3.8 5.6 L3.2 5.35 Q2.9 5.35 2.65 5.6 2.4 5.7 2.4 6.05 L2.65 6.6 3.2 6.8 3.8 6.65 4.05 6.1 3.8 5.6 M6.35 10.6 L6.1 11.75 7.2 14.7 Q8.35 17.1 9.6 17.1 10.2 17.1 10.3 16.75 L10.3 15.55 Q10.45 15.05 9.2 13.1 7.75 10.95 6.35 10.6 M-0.8 2.3 L-0.85 2.3 -0.85 3.95 -0.45 7.5 Q-3.05 4.05 -3.95 3.15 L-4.65 2.6 Q-7.85 5.05 -9.15 9.1 L-11.05 15.35 Q-11.6 17.5 -11.2 17.65 -10.8 17.85 -10.8 18.3 L-12.15 21.1 Q-12.15 23.15 -8.85 23.15 -7.6 23.15 -7.05 22.6 -6.55 22.1 -6.55 20.8 -6.55 19.5 -6.9 19.05 -7.35 18.6 -8.95 18.05 L-8.25 17.35 -7.55 17.25 -5.45 18.15 -4.2 18.55 Q-2.1 18.55 0.35 16.05 2.75 13.65 2.75 11.95 2.75 8.5 2.35 6.75 1.55 2.85 -0.8 2.3 M-0.4 -1.8 L1.9 -2.05 Q2.95 -1.95 4.45 0.1 6.15 2.5 8.7 7.8 L11.05 12.7 Q13.25 17.65 13.25 18.8 13.25 21.05 11.2 21.35 9.75 21.35 8.1 19.65 6.05 17.65 4.85 13.95 5.2 16.2 5.9 18.8 L6.4 21.15 Q6.4 22.8 4.75 23.7 3.3 24.5 1.5 24.5 -0.3 24.5 -1.9 23.15 -3.15 22.15 -3.55 21.1 L-5.6 23.35 Q-7.9 25.3 -10.45 25.3 -12.2 25.3 -12.6 23.35 L-12.7 21.3 -11.8 15.7 -10.75 9.8 -9.5 4.3 Q-8.1 2.25 -6.45 0.95 L-4.55 -0.2 -2.7 -1.2 -0.4 -1.8 M-1.3 21.65 Q-0.45 22.35 0.7 22.35 1.85 22.35 2.7 21.65 3.5 20.9 3.5 19.85 3.5 18.8 2.7 18.05 1.85 17.3 0.7 17.3 -0.45 17.3 -1.3 18.05 -2.1 18.8 -2.1 19.85 -2.1 20.9 -1.3 21.65 M-17.75 13.2 Q-17.1 16.0 -17.8 17.1 -21.0 21.95 -24.25 22.95 L-26.35 23.05 Q-27.8 22.65 -27.8 20.6 -27.8 18.55 -26.45 17.65 L-21.7 15.6 Q-19.7 14.8 -17.75 13.2 M5.35 30.05 Q6.1 30.2 6.4 30.45 L5.5 33.85 Q4.5 36.55 2.7 36.55 1.7 36.55 1.1 35.0 0.45 33.35 0.45 30.4 0.45 29.85 0.6 29.8 L0.7 29.9 5.35 30.05 M-8.45 32.4 Q-8.45 36.95 -10.2 40.1 -11.75 42.9 -13.4 42.9 -15.1 42.9 -16.15 41.65 -17.0 40.5 -17.0 39.15 -17.0 34.7 -15.0 32.0 -13.3 29.7 -11.2 29.7 -10.05 29.7 -9.35 30.25 -8.45 30.95 -8.45 32.4" fill="#272727" fill-rule="evenodd" stroke="none"/>
    <path d="M3.8 5.6 L4.05 6.1 3.8 6.65 3.2 6.8 2.65 6.6 2.4 6.05 Q2.4 5.7 2.65 5.6 2.9 5.35 3.2 5.35 L3.8 5.6 M-0.8 2.3 Q1.55 2.85 2.35 6.75 2.75 8.5 2.75 11.95 2.75 13.65 0.35 16.05 -2.1 18.55 -4.2 18.55 L-5.45 18.15 -7.55 17.25 -8.25 17.35 -8.95 18.05 Q-7.35 18.6 -6.9 19.05 -6.55 19.5 -6.55 20.8 -6.55 22.1 -7.05 22.6 -7.6 23.15 -8.85 23.15 -12.15 23.15 -12.15 21.1 L-10.8 18.3 Q-10.8 17.85 -11.2 17.65 -11.6 17.5 -11.05 15.35 L-9.15 9.1 Q-7.85 5.05 -4.65 2.6 L-3.95 3.15 Q-3.05 4.05 -0.45 7.5 L-0.85 3.95 -0.85 2.3 -0.8 2.3 M6.35 10.6 Q7.75 10.95 9.2 13.1 10.45 15.05 10.3 15.55 L10.3 16.75 Q10.2 17.1 9.6 17.1 8.35 17.1 7.2 14.7 L6.1 11.75 6.35 10.6 M-1.3 21.65 Q-2.1 20.9 -2.1 19.85 -2.1 18.8 -1.3 18.05 -0.45 17.3 0.7 17.3 1.85 17.3 2.7 18.05 3.5 18.8 3.5 19.85 3.5 20.9 2.7 21.65 1.85 22.35 0.7 22.35 -0.45 22.35 -1.3 21.65" fill="#3e3e3e" fill-rule="evenodd" stroke="none"/>
  </g>
</svg>
