<?xml version="1.0" encoding="UTF-8" standalone="no"?>
<svg xmlns:ffdec="https://www.free-decompiler.com/flash" xmlns:xlink="http://www.w3.org/1999/xlink" ffdec:objectType="shape" height="46.85px" width="83.9px" xmlns="http://www.w3.org/2000/svg">
  <g transform="matrix(1.0, 0.0, 0.0, 1.0, 37.3, 15.8)">
    <path d="M26.25 0.15 L26.15 0.15 26.1 -0.6 26.25 0.15" fill="#003507" fill-rule="evenodd" stroke="none"/>
    <path d="M30.35 -0.9 L30.3 -0.9 30.3 -0.95 30.35 -0.9" fill="#006315" fill-rule="evenodd" stroke="none"/>
    <path d="M-27.1 3.1 L-27.1 3.4 -28.4 6.1 -27.1 3.1" fill="#00861f" fill-rule="evenodd" stroke="none"/>
    <path d="M5.65 3.25 L5.7 3.35 5.65 3.25" fill="#00a026" fill-rule="evenodd" stroke="none"/>
    <path d="M10.1 -10.05 L10.05 -11.35 11.55 -11.4 11.6 -10.2 11.6 -10.15 10.1 -10.05 M17.3 27.85 L17.6 28.85 17.05 28.8 16.1 29.0 15.8 28.0 16.7 27.85 17.05 27.8 17.3 27.85 M17.7 -10.65 L17.65 -11.85 18.0 -11.9 19.15 -12.05 19.15 -10.8 17.7 -10.65 M26.85 28.6 L27.25 29.5 27.2 29.55 26.9 29.6 26.85 29.65 25.45 29.6 25.15 28.75 26.85 28.6 M32.2 -13.25 L32.15 -14.65 33.0 -15.15 33.75 -15.8 Q33.6 -14.2 33.8 -12.2 L33.05 -13.5 32.2 -13.25 M35.85 -3.45 Q37.45 1.3 40.2 7.15 L40.0 6.85 39.8 6.55 37.75 2.95 Q36.4 0.35 36.05 -1.35 L35.9 -2.55 35.95 -2.55 35.9 -2.9 35.85 -3.45 M45.9 18.3 L46.6 19.6 45.35 20.4 44.7 19.25 45.75 18.45 45.9 18.3 M25.2 -9.45 L25.2 -9.55 25.3 -13.05 26.85 -13.35 26.75 -11.75 26.3 -11.65 26.45 -9.95 27.35 -0.4 27.2 0.1 26.25 0.15 26.1 -0.6 25.9 -2.4 25.9 -3.15 25.2 -9.45 M38.75 23.95 L39.4 24.85 38.65 25.05 38.25 25.1 37.8 25.2 37.15 24.3 37.55 24.2 38.75 23.95 M6.55 29.95 L6.6 30.95 5.1 31.05 5.05 30.05 6.55 29.95 M-24.25 -13.45 L-24.15 -15.35 -23.8 -15.2 -23.7 -15.15 -23.3 -15.05 -23.2 -15.05 -23.1 -15.05 -23.05 -15.0 -22.65 -14.85 -22.75 -12.75 -23.15 -12.95 -24.25 -13.45 M-35.75 19.65 L-36.0 20.1 -36.15 20.0 -37.1 19.45 -37.3 19.35 -37.0 18.85 -35.75 19.65 M-17.65 -11.5 L-17.65 -13.5 -16.5 -13.25 -16.25 -13.2 -16.1 -13.15 -16.15 -11.4 -17.65 -11.5 M-28.95 24.8 L-29.2 25.2 -30.8 24.85 -30.5 24.4 -28.95 24.8 M-10.4 -11.0 L-11.9 -11.1 -11.9 -12.45 -10.4 -12.25 -10.4 -11.0 M-18.85 27.95 L-19.35 29.3 -19.4 29.2 -20.7 28.95 -20.85 28.95 -20.4 27.85 -18.85 27.95 M-4.1 -10.65 L-4.1 -11.5 -4.05 -11.65 -2.95 -11.6 -2.6 -11.55 -2.6 -11.5 -2.6 -10.55 -4.1 -10.65 M-3.85 29.1 L-4.0 30.45 -4.0 30.55 -5.5 30.25 -5.35 28.8 -5.05 28.85 -3.85 29.1" fill="#464646" fill-rule="evenodd" stroke="none"/>
    <path d="M10.1 -10.05 L11.6 -10.15 11.7 -7.6 10.2 -7.3 10.1 -10.05 M12.05 -1.9 L12.15 -1.05 12.0 -1.1 11.55 -1.5 12.0 -1.9 12.05 -1.9 M17.0 26.6 L17.3 27.85 17.05 27.8 16.7 27.85 15.8 28.0 15.5 26.8 15.85 26.75 17.0 26.6 M17.7 -10.65 L19.15 -10.8 19.2 -8.65 18.55 -8.6 17.75 -8.5 17.7 -10.65 M19.6 -2.45 L19.7 -1.5 18.2 -1.5 18.1 -2.45 19.6 -2.45 M26.5 27.6 L26.8 28.45 26.85 28.6 25.15 28.75 24.65 27.35 26.0 27.55 26.5 27.6 M32.2 -13.25 L33.05 -13.5 33.8 -12.2 Q34.2 -8.45 35.85 -3.5 L35.85 -3.45 35.9 -2.9 35.95 -2.55 35.9 -2.55 36.05 -1.35 Q36.4 0.35 37.75 2.95 L39.8 6.55 40.0 6.85 40.2 7.15 40.2 7.2 43.7 14.2 36.9 3.55 Q32.5 -6.8 32.2 -13.25 M44.95 16.55 L45.9 18.3 45.75 18.45 44.7 19.25 44.1 18.1 44.5 17.7 44.6 17.5 44.65 17.4 44.95 16.55 M38.25 23.25 L38.75 23.9 38.75 23.95 37.55 24.2 37.15 24.3 36.65 23.55 37.45 23.4 38.25 23.25 M25.8 -2.35 Q25.25 -5.9 25.2 -9.45 L25.9 -3.15 25.9 -2.4 25.8 -2.35 M6.45 28.95 L6.55 29.95 5.05 30.05 4.95 28.95 6.45 28.95 M-24.25 -13.45 L-23.15 -12.95 -22.75 -12.75 -23.0 -10.8 -23.35 -10.85 -23.4 -10.5 -23.9 -6.6 -23.9 -6.5 -23.9 -6.45 Q-25.0 -1.95 -27.1 3.1 L-27.3 1.0 -28.95 3.65 Q-24.9 -5.85 -24.25 -13.45 M-34.65 17.85 L-35.75 19.65 -37.0 18.85 -35.9 17.0 -34.65 17.85 M-17.65 -11.5 L-16.15 -11.4 -16.25 -9.75 -17.75 -9.95 -17.65 -11.5 M-27.9 23.0 L-28.95 24.8 -30.5 24.4 -29.45 22.65 -28.95 22.75 -27.9 23.0 M-18.7 -3.45 L-18.55 -4.35 -17.75 -3.6 Q-18.0 -3.4 -18.3 -3.3 L-18.7 -3.45 M-11.9 -11.1 L-10.4 -11.0 -10.4 -9.05 -11.9 -9.15 -11.9 -11.1 M-18.55 27.2 L-18.85 27.95 -20.4 27.85 -20.05 27.0 -18.75 27.15 -18.55 27.2 M-12.4 -2.15 L-12.25 -3.5 -11.85 -3.5 -11.9 -2.15 -12.4 -2.15 M-2.6 -10.55 L-2.55 -8.7 -4.05 -8.75 -4.1 -10.65 -2.6 -10.55 M-2.55 -1.95 L-2.55 -1.9 -2.55 -1.5 -2.75 -1.5 -3.0 -1.55 -3.05 -1.6 -2.95 -1.65 -2.55 -1.95 M-3.8 28.0 L-3.85 29.1 -5.05 28.85 -5.35 28.8 -5.25 27.35 -3.8 28.0" fill="#8a8a8a" fill-rule="evenodd" stroke="none"/>
    <path d="M11.7 -7.6 L11.8 -5.45 10.35 -4.85 10.2 -7.3 11.7 -7.6 M16.35 24.1 L17.0 26.6 15.85 26.75 15.5 26.8 15.1 25.25 16.3 24.15 16.35 24.1 M19.2 -8.65 L19.35 -5.75 17.85 -6.1 17.75 -8.5 18.55 -8.6 19.2 -8.65 M25.85 25.7 L26.5 27.6 26.0 27.55 24.65 27.35 24.05 25.45 25.85 25.7 M43.7 14.2 L44.95 16.55 44.65 17.4 44.6 17.5 44.5 17.7 44.1 18.1 Q39.65 10.05 36.9 3.55 L43.7 14.2 M27.65 -0.5 Q28.65 4.7 30.75 9.85 L30.95 10.4 31.4 11.75 31.7 12.6 33.3 17.1 Q33.9 18.8 34.45 19.9 35.3 21.8 35.8 21.8 L35.95 21.8 37.15 21.65 38.25 23.25 37.45 23.4 36.65 23.55 Q28.6 12.05 26.25 0.15 L27.2 0.1 27.35 -0.4 27.65 -0.5 M26.1 -0.6 L25.8 -2.35 25.9 -2.4 26.1 -0.6 M3.15 3.7 L3.15 3.65 3.2 3.3 3.15 3.7 M5.45 14.7 L6.25 26.0 6.25 26.1 6.2 25.5 6.0 23.8 5.6 19.0 5.45 15.0 5.45 14.7 M6.4 27.75 L6.45 28.95 4.95 28.95 4.9 27.8 6.4 27.75 M-23.0 -10.8 L-23.9 -6.5 -23.9 -6.6 -23.4 -10.5 -23.35 -10.85 -23.0 -10.8 M-28.4 6.1 L-31.0 11.3 -34.65 17.85 -35.9 17.0 Q-31.7 9.95 -29.0 3.7 L-28.95 3.65 -27.3 1.0 -27.1 3.1 -28.4 6.1 M-16.25 -9.75 L-16.7 -5.95 -17.0 -5.1 -17.4 -4.05 -18.85 1.1 -18.9 1.05 Q-19.2 2.05 -21.1 4.95 -19.6 0.6 -18.7 -3.45 L-18.3 -3.3 Q-18.0 -3.4 -17.75 -3.6 L-18.55 -4.35 Q-18.0 -7.25 -17.75 -9.95 L-16.25 -9.75 M-27.35 21.95 L-27.9 23.0 -28.95 22.75 -29.45 22.65 -28.95 21.7 -27.35 21.95 M-11.9 -9.15 L-10.4 -9.05 -10.45 -7.25 -11.95 -7.45 -11.9 -9.15 M-18.05 25.95 L-18.55 27.2 -18.75 27.15 -20.05 27.0 Q-17.95 21.55 -16.4 16.45 L-17.15 19.55 -17.4 20.3 Q-18.4 23.75 -19.4 25.7 L-18.05 25.95 M-2.55 -8.7 L-2.55 -4.35 -4.05 -5.35 -4.05 -8.75 -2.55 -8.7 M-3.7 26.85 L-3.8 28.0 -5.25 27.35 -5.15 25.8 -3.75 26.8 -3.7 26.85" fill="#b4b4b4" fill-rule="evenodd" stroke="none"/>
    <path d="M11.8 -5.45 L12.05 -1.9 12.0 -1.9 11.55 -1.5 12.0 -1.1 12.15 -1.05 12.85 5.5 12.85 5.55 12.8 5.8 12.7 6.15 12.7 6.2 12.55 7.85 Q13.05 13.55 13.9 19.2 L14.35 22.35 Q11.25 9.1 10.35 -4.85 L11.8 -5.45 M15.85 22.15 L16.35 24.1 16.3 24.15 15.1 25.25 14.75 24.0 15.85 22.15 M19.35 -5.75 L19.6 -2.45 18.1 -2.45 17.85 -6.1 19.35 -5.75 M19.7 -1.5 Q21.05 11.9 25.85 25.7 L24.05 25.45 23.55 23.95 23.75 24.0 20.35 7.3 Q20.35 4.55 20.05 3.75 L18.95 4.2 18.2 -1.5 19.7 -1.5 M26.75 -10.05 Q26.75 -5.25 27.65 -0.5 L27.35 -0.4 26.45 -9.95 26.75 -10.05 M30.75 9.85 L30.8 9.95 Q33.25 15.85 37.15 21.65 L35.95 21.8 35.8 21.8 Q35.3 21.8 34.45 19.9 33.9 18.8 33.3 17.1 L31.7 12.6 31.4 11.75 30.95 10.4 30.75 9.85 M3.15 3.7 L3.2 3.3 3.35 3.1 Q3.55 2.85 3.85 2.85 L4.4 3.05 4.65 3.55 5.45 14.5 5.45 14.7 5.45 15.0 5.6 19.0 6.0 23.8 6.2 25.5 6.25 26.1 6.4 27.75 4.9 27.8 4.5 22.55 4.5 22.5 4.75 23.4 4.85 23.7 4.9 23.85 5.3 24.95 3.75 10.2 3.75 12.1 3.15 3.7 M-16.7 -5.95 Q-18.7 6.5 -27.35 21.95 L-28.95 21.7 Q-23.95 12.8 -21.1 4.95 -19.2 2.05 -18.9 1.05 L-18.85 1.1 -17.4 -4.05 -17.0 -5.1 -16.7 -5.95 M-11.95 -7.45 L-10.45 -7.25 -11.1 -0.3 -11.45 -0.3 -12.3 -0.2 -12.55 -0.1 -12.35 2.65 -12.4 2.6 Q-13.75 11.1 -14.75 15.2 L-15.1 16.5 -16.4 20.5 -17.75 24.1 -17.35 24.1 -18.05 25.95 -19.4 25.7 Q-18.4 23.75 -17.4 20.3 L-17.15 19.55 -16.4 16.45 Q-13.4 6.6 -12.4 -2.15 L-11.9 -2.15 -11.85 -3.5 -12.25 -3.5 -11.95 -7.45 M-2.55 -4.35 L-2.55 -1.95 -2.95 -1.65 -3.05 -1.6 -3.0 -1.55 -2.75 -1.5 -2.55 -1.5 -2.75 7.95 -4.15 4.6 -4.05 -5.35 -2.55 -4.35 M-3.55 24.4 L-3.7 26.8 -3.7 26.85 -3.75 26.8 -5.15 25.8 -4.8 20.45 -4.2 22.85 -3.9 24.3 -3.55 24.4" fill="#e0e0e0" fill-rule="evenodd" stroke="none"/>
    <path d="M12.85 5.55 Q13.9 13.95 15.85 22.15 L14.75 24.0 14.35 22.35 13.9 19.2 Q13.05 13.55 12.55 7.85 L12.7 6.2 12.7 6.15 12.8 5.8 12.85 5.55 M23.55 23.95 Q20.4 13.85 18.95 4.2 L20.05 3.75 Q20.35 4.55 20.35 7.3 L23.75 24.0 23.55 23.95 M26.75 -11.75 L26.75 -10.05 26.45 -9.95 26.3 -11.65 26.75 -11.75 M4.5 22.5 L3.75 12.1 3.75 10.2 5.3 24.95 4.9 23.85 4.85 23.7 4.75 23.4 4.5 22.5 M-11.1 -0.3 Q-12.6 11.05 -17.35 24.1 L-17.75 24.1 -16.4 20.5 -15.1 16.5 -14.75 15.2 Q-13.75 11.1 -12.4 2.6 L-12.35 2.65 -12.55 -0.1 -12.3 -0.2 -11.45 -0.3 -11.1 -0.3 M-2.75 7.95 Q-3.0 16.2 -3.55 24.4 L-3.9 24.3 -4.2 22.85 -4.8 20.45 -4.15 4.6 -2.75 7.95" fill="#ffffff" fill-rule="evenodd" stroke="none"/>
  </g>
</svg>
