<?xml version="1.0" encoding="UTF-8" standalone="no"?>
<svg xmlns:ffdec="https://www.free-decompiler.com/flash" xmlns:xlink="http://www.w3.org/1999/xlink" ffdec:objectType="shape" height="135.5px" width="68.75px" xmlns="http://www.w3.org/2000/svg">
  <g transform="matrix(1.0, 0.0, 0.0, 1.0, 30.1, 136.65)">
    <path d="M1.75 -121.0 Q1.75 -119.9 0.95 -119.1 0.15 -118.3 -1.0 -118.3 -2.15 -118.3 -2.95 -119.1 L-3.55 -119.95 -2.85 -120.0 1.6 -121.9 1.75 -121.0 M5.3 -112.65 L5.45 -111.9 Q5.45 -110.55 2.25 -107.3 -1.85 -103.15 -6.85 -102.3 L-7.0 -102.7 -7.2 -103.65 Q-7.2 -105.2 -3.75 -108.85 0.2 -112.95 3.45 -112.95 L5.1 -112.85 5.3 -112.65 M8.55 -96.05 Q7.25 -90.2 2.9 -84.0 -1.4 -77.8 -5.45 -75.95 L-6.55 -76.25 -6.8 -78.35 Q-6.8 -82.15 -1.9 -86.75 6.5 -94.75 7.7 -96.2 L8.55 -96.05 M6.6 -78.3 L7.2 -78.25 Q7.6 -78.2 7.6 -76.5 7.2 -74.45 3.6 -70.1 L7.6 -69.65 9.5 -69.7 Q10.6 -69.65 10.8 -68.95 11.4 -66.65 10.7 -61.7 L11.3 -62.45 11.5 -61.0 Q11.5 -56.55 9.3 -52.15 6.9 -47.4 3.95 -47.35 L3.15 -47.7 Q2.6 -47.75 2.6 -48.75 L4.75 -53.25 5.3 -54.75 Q-1.55 -48.0 -4.05 -48.0 -5.95 -48.0 -6.95 -49.0 -7.7 -49.75 -7.7 -50.7 -7.7 -51.55 -7.15 -52.0 -4.2 -54.55 -0.05 -58.85 L-5.3 -58.25 Q-7.9 -58.25 -7.9 -60.5 -7.9 -66.6 -1.4 -71.3 L3.45 -74.7 Q5.95 -76.6 6.6 -78.3 M5.6 -37.85 Q1.4 -32.85 -2.2 -31.8 -0.2 -30.9 9.0 -28.7 15.15 -27.25 15.25 -24.9 15.25 -22.25 12.25 -22.25 7.2 -22.25 -0.65 -25.3 -8.65 -28.4 -8.55 -30.65 -8.5 -34.1 -2.7 -38.55 L-2.4 -38.8 Q3.05 -43.2 5.25 -43.2 9.5 -43.2 6.2 -38.55 L6.15 -38.55 5.6 -37.85 M10.25 -16.6 Q10.25 -14.15 5.25 -12.75 1.15 -11.65 -4.15 -11.65 -7.15 -11.65 -8.15 -12.15 -9.0 -12.6 -8.95 -13.7 -8.95 -15.15 -7.25 -15.55 L3.95 -16.95 7.7 -17.75 Q8.25 -18.0 10.05 -17.25 L10.15 -17.35 10.25 -16.6" fill="#ffffff" fill-rule="evenodd" stroke="none"/>
    <path d="M9.55 -130.25 L11.8 -125.85 12.55 -124.55 Q17.2 -116.35 27.05 -100.35 34.5 -88.25 33.55 -79.5 32.9 -73.25 28.1 -68.7 L26.85 -67.6 25.05 -66.25 23.75 -65.45 24.7 -58.05 Q25.5 -51.25 27.1 -43.2 L28.15 -38.55 31.15 -29.35 Q33.4 -23.55 35.55 -16.65 L35.8 -15.9 35.75 -15.95 36.2 -14.3 37.3 -10.95 38.3 -7.35 38.65 -5.9 38.65 -5.85 37.15 -5.35 37.1 -5.35 35.95 -4.95 33.55 -4.2 32.6 -4.7 32.65 -4.7 25.75 -8.0 22.35 -3.1 22.4 -3.1 21.65 -2.1 18.65 -1.8 16.35 -1.55 13.95 -1.4 8.0 -1.15 Q-4.65 -1.25 -16.95 -3.1 L-18.6 -3.35 -18.9 -3.45 -25.8 -5.0 -25.55 -5.45 -25.85 -5.0 -28.15 -5.7 -28.55 -5.8 -30.1 -6.35 -30.1 -6.4 -29.85 -8.05 -29.65 -9.3 -29.4 -10.55 -29.4 -10.6 -29.15 -11.75 -29.1 -12.1 -26.8 -22.55 Q-25.2 -28.05 -24.05 -33.35 L-23.8 -34.7 -22.95 -38.55 -22.9 -38.55 -22.75 -39.85 -21.85 -47.8 -21.15 -54.25 -20.55 -60.55 -20.55 -60.95 -20.4 -62.65 -20.35 -63.35 -20.05 -66.3 -19.85 -75.1 -19.7 -82.95 -19.6 -89.35 Q-19.35 -108.35 -12.05 -124.3 L-8.6 -131.35 Q-5.5 -137.55 0.5 -136.5 6.45 -135.5 8.7 -131.7 L9.55 -130.25 M-7.05 -126.4 Q-7.2 -130.6 -4.55 -133.45 L-2.8 -134.9 Q-6.05 -133.95 -7.75 -130.2 L-7.85 -130.0 -9.65 -126.0 -10.7 -123.7 -11.9 -120.9 Q-17.6 -106.9 -18.05 -90.65 L-18.1 -89.35 -18.2 -82.9 -18.5 -67.4 -18.55 -66.25 -18.85 -63.15 -18.85 -62.55 -19.05 -60.0 -19.2 -58.3 -20.3 -47.65 -21.4 -38.55 -21.85 -36.4 -22.5 -33.15 Q-23.65 -27.8 -25.25 -22.25 L-27.6 -11.9 -27.6 -11.85 -27.8 -11.05 -27.9 -10.4 -27.85 -10.4 -28.0 -9.15 -28.3 -7.55 -15.95 -4.55 -13.2 -3.85 -3.75 -3.1 2.7 -2.5 7.05 -2.5 13.7 -3.1 13.9 -3.15 18.15 -3.55 20.9 -3.85 25.5 -10.1 33.8 -5.85 36.85 -6.65 35.8 -10.55 34.75 -13.9 34.7 -14.0 34.2 -15.55 34.2 -15.6 34.0 -16.25 34.0 -16.3 29.75 -28.9 Q28.1 -33.35 26.6 -38.55 L25.65 -42.9 Q24.0 -51.05 23.2 -57.85 L22.15 -65.6 22.15 -65.7 22.15 -65.8 22.1 -66.2 23.3 -66.95 24.6 -67.8 26.45 -69.2 27.65 -70.35 Q31.5 -74.35 32.05 -79.65 32.85 -87.95 25.7 -99.6 19.15 -110.25 14.95 -117.45 L11.65 -123.1 10.1 -125.85 Q9.2 -127.9 7.1 -131.15 L6.25 -132.3 Q5.4 -133.25 4.25 -133.85 5.45 -133.0 5.7 -131.7 6.1 -130.4 5.35 -128.65 L4.75 -127.45 3.8 -126.0 Q2.5 -124.3 1.05 -123.25 L0.8 -123.05 Q-0.55 -122.15 -2.0 -121.75 L-2.45 -121.65 -3.7 -121.5 Q-4.8 -121.55 -5.5 -122.15 L-5.9 -122.5 Q-6.85 -123.55 -7.0 -125.6 L-7.05 -126.4 M4.5 -131.4 Q4.1 -132.7 2.4 -133.5 -1.25 -135.25 -3.6 -132.6 -5.3 -130.7 -5.7 -128.25 -5.9 -127.05 -5.75 -125.7 L-5.3 -123.85 -4.75 -123.15 Q-4.1 -122.7 -3.0 -122.8 L-2.35 -122.95 Q-1.45 -123.2 -0.6 -123.65 1.45 -124.8 3.1 -127.15 L3.7 -128.1 3.65 -128.1 4.35 -129.7 4.5 -131.4" fill="#464646" fill-rule="evenodd" stroke="none"/>
    <path d="M5.35 -128.65 Q6.1 -130.4 5.7 -131.7 5.45 -133.0 4.25 -133.85 5.4 -133.25 6.25 -132.3 L7.1 -131.15 Q9.2 -127.9 10.1 -125.85 L11.65 -123.1 14.95 -117.45 Q19.15 -110.25 25.7 -99.6 32.85 -87.95 32.05 -79.65 31.5 -74.35 27.65 -70.35 L26.45 -69.2 24.6 -67.8 23.3 -66.95 22.1 -66.2 22.15 -65.8 22.15 -65.7 22.15 -65.6 23.2 -57.85 Q24.0 -51.05 25.65 -42.9 L26.6 -38.55 Q28.1 -33.35 29.75 -28.9 L34.0 -16.3 34.0 -16.25 34.2 -15.6 34.2 -15.55 34.7 -14.0 34.75 -13.9 35.8 -10.55 36.85 -6.65 33.8 -5.85 25.5 -10.1 20.9 -3.85 18.15 -3.55 13.9 -3.15 13.7 -3.1 7.05 -2.5 2.7 -2.5 -3.75 -3.1 -13.2 -3.85 -15.95 -4.55 -28.3 -7.55 -28.0 -9.15 -27.85 -10.4 -27.9 -10.4 -27.8 -11.05 -27.6 -11.85 -27.6 -11.9 -25.25 -22.25 Q-23.65 -27.8 -22.5 -33.15 L-21.85 -36.4 -21.4 -38.55 -20.3 -47.65 -19.2 -58.3 -19.05 -60.0 -18.85 -62.55 -18.85 -63.15 -18.55 -66.25 -18.5 -67.4 -18.2 -82.9 -18.1 -89.35 -18.05 -90.65 Q-17.6 -106.9 -11.9 -120.9 L-10.7 -123.7 -9.65 -126.0 -7.85 -130.0 -7.75 -130.2 Q-6.05 -133.95 -2.8 -134.9 L-4.55 -133.45 Q-7.2 -130.6 -7.05 -126.4 -9.4 -122.7 -10.2 -116.95 L-8.9 -113.75 Q-10.95 -112.95 -11.9 -107.55 -12.55 -103.85 -12.55 -99.4 -12.55 -98.75 -10.45 -97.35 L-7.05 -95.0 -8.35 -94.5 -13.35 -94.65 Q-14.45 -94.3 -14.45 -92.4 L-14.4 -86.25 -14.15 -78.4 Q-13.95 -75.85 -12.7 -73.9 -11.55 -72.1 -11.55 -70.9 -11.55 -67.65 -13.4 -61.7 -15.1 -56.35 -15.25 -46.55 L-15.3 -43.8 Q-15.3 -41.65 -14.05 -40.1 -12.85 -38.6 -11.15 -38.55 L-11.05 -38.55 Q-16.65 -36.4 -17.05 -25.05 -17.15 -23.3 -16.6 -22.45 L-13.9 -19.35 Q-22.1 -19.65 -22.25 -15.8 -22.5 -11.45 -21.0 -10.3 -20.55 -9.9 -15.3 -8.6 -8.8 -6.85 0.55 -6.1 L10.65 -5.7 13.85 -5.8 13.85 -5.6 16.05 -5.65 20.4 -5.95 27.5 -13.65 31.4 -10.2 Q32.05 -10.75 31.2 -10.7 L30.4 -12.5 29.9 -13.9 29.3 -15.5 28.55 -19.65 25.15 -15.65 25.35 -15.45 25.2 -15.2 21.7 -15.75 18.1 -15.35 18.0 -16.6 21.0 -19.15 Q20.8 -20.2 20.85 -22.15 L22.15 -22.75 22.55 -20.5 23.4 -21.3 Q25.15 -23.05 25.05 -25.2 25.0 -27.2 24.4 -27.75 22.85 -29.0 20.85 -31.1 21.85 -32.25 22.5 -33.85 L22.95 -35.35 Q22.9 -37.1 22.15 -38.55 21.45 -40.15 20.0 -41.5 L20.1 -41.15 Q20.4 -39.8 19.75 -39.05 L18.55 -39.2 18.25 -42.55 18.3 -42.85 Q16.35 -44.0 14.6 -43.6 L16.45 -46.55 17.4 -47.7 17.35 -48.15 Q17.35 -49.1 17.65 -49.75 17.9 -50.4 18.3 -50.4 L18.9 -49.95 19.2 -52.15 Q19.2 -55.95 17.0 -68.65 L14.8 -80.65 15.05 -82.55 14.3 -80.9 Q13.3 -81.85 12.95 -82.6 12.55 -83.55 12.5 -85.25 L13.1 -85.35 Q14.85 -84.6 15.4 -84.05 L15.65 -85.1 Q16.55 -88.3 17.55 -89.9 19.9 -80.25 20.7 -78.05 22.1 -74.2 23.95 -74.2 25.4 -74.2 27.2 -76.75 29.05 -79.35 29.05 -81.65 29.05 -84.05 25.25 -94.2 20.85 -105.95 17.5 -105.95 15.35 -105.95 15.25 -101.45 15.15 -99.1 15.35 -95.75 14.75 -91.7 13.8 -89.25 L13.4 -88.25 13.4 -87.95 13.3 -88.0 12.85 -87.2 12.6 -88.35 12.0 -88.45 11.95 -88.25 Q11.5 -89.0 11.45 -91.25 L11.55 -91.8 Q11.7 -92.35 12.05 -92.4 L12.65 -91.55 13.6 -100.45 14.7 -112.05 14.7 -112.7 14.65 -112.6 14.25 -112.95 Q13.25 -112.15 11.75 -109.5 10.45 -107.2 10.4 -106.7 8.05 -122.65 6.6 -126.35 L5.35 -128.65 M7.8 -112.55 L7.9 -113.3 8.7 -113.25 Q9.7 -110.35 9.7 -108.65 L9.6 -108.8 Q7.8 -110.3 7.8 -112.55 M10.2 -102.35 L9.65 -103.3 8.95 -106.1 9.0 -106.15 Q11.2 -105.3 11.8 -104.35 L12.0 -103.65 11.8 -102.9 11.25 -102.5 10.6 -101.9 10.2 -102.35 M11.7 -99.1 L11.9 -98.75 12.2 -97.15 11.9 -95.55 Q11.6 -94.9 11.2 -94.9 11.0 -94.9 10.9 -95.0 10.65 -95.2 10.5 -95.55 10.2 -96.2 10.2 -97.15 10.2 -98.1 10.5 -98.75 10.8 -99.4 11.2 -99.4 L11.7 -99.1 M20.1 -26.9 L20.0 -27.65 Q20.0 -28.6 20.25 -29.2 20.5 -29.85 20.9 -29.85 L21.5 -29.2 21.85 -27.65 Q21.9 -26.75 21.6 -26.1 21.35 -25.5 21.0 -25.45 20.65 -25.5 20.35 -26.1 L20.25 -26.25 20.25 -26.35 20.1 -26.9 M14.95 -76.25 L15.5 -74.2 Q13.95 -74.8 13.65 -76.0 L13.65 -77.2 14.2 -78.4 14.95 -76.25 M16.45 -68.25 L16.3 -67.3 15.7 -66.9 15.15 -67.3 Q14.9 -67.7 14.9 -68.25 15.35 -70.65 15.7 -71.4 16.3 -71.1 16.45 -68.25 M20.6 -35.9 L20.95 -34.4 20.7 -32.85 20.1 -32.25 Q19.7 -32.25 19.4 -32.85 19.15 -33.5 19.15 -34.4 19.1 -35.3 19.35 -35.9 19.6 -36.55 19.95 -36.5 L20.6 -35.9 M17.4 -57.4 L18.1 -56.75 18.35 -55.15 18.1 -53.55 Q17.8 -52.9 17.4 -52.9 17.0 -52.9 16.75 -53.55 16.45 -54.2 16.45 -55.15 16.45 -56.1 16.75 -56.75 17.0 -57.4 17.4 -57.4 M16.5 -64.4 L17.2 -63.75 17.45 -62.15 17.2 -60.55 Q16.9 -59.9 16.5 -59.9 16.1 -59.9 15.85 -60.55 15.55 -61.2 15.55 -62.15 15.55 -63.1 15.85 -63.75 16.1 -64.4 16.5 -64.4" fill="#8a8a8a" fill-rule="evenodd" stroke="none"/>
    <path d="M5.35 -128.65 L6.6 -126.35 Q8.05 -122.65 10.4 -106.7 10.45 -107.2 11.75 -109.5 13.25 -112.15 14.25 -112.95 L14.65 -112.6 14.7 -112.7 14.7 -112.05 13.6 -100.45 12.65 -91.55 12.05 -92.4 Q11.7 -92.35 11.55 -91.8 L11.45 -91.25 Q11.5 -89.0 11.95 -88.25 L12.0 -88.45 12.6 -88.35 12.85 -87.2 13.3 -88.0 13.4 -87.95 13.4 -88.25 13.8 -89.25 Q14.75 -91.7 15.35 -95.75 15.15 -99.1 15.25 -101.45 15.35 -105.95 17.5 -105.95 20.85 -105.95 25.25 -94.2 29.05 -84.05 29.05 -81.65 29.05 -79.35 27.2 -76.75 25.4 -74.2 23.95 -74.2 22.1 -74.2 20.7 -78.05 19.9 -80.25 17.55 -89.9 16.55 -88.3 15.65 -85.1 L15.4 -84.05 Q14.85 -84.6 13.1 -85.35 L12.5 -85.25 Q12.55 -83.55 12.95 -82.6 13.3 -81.85 14.3 -80.9 L15.05 -82.55 14.8 -80.65 17.0 -68.65 Q19.2 -55.95 19.2 -52.15 L18.9 -49.95 18.3 -50.4 Q17.9 -50.4 17.65 -49.75 17.35 -49.1 17.35 -48.15 L17.4 -47.7 16.45 -46.55 14.6 -43.6 Q16.35 -44.0 18.3 -42.85 L18.25 -42.55 18.55 -39.2 19.75 -39.05 Q20.4 -39.8 20.1 -41.15 L20.0 -41.5 Q21.45 -40.15 22.15 -38.55 22.9 -37.1 22.95 -35.35 L22.5 -33.85 Q21.85 -32.25 20.85 -31.1 22.85 -29.0 24.4 -27.75 25.0 -27.2 25.05 -25.2 25.15 -23.05 23.4 -21.3 L22.55 -20.5 22.15 -22.75 20.85 -22.15 Q20.8 -20.2 21.0 -19.15 L18.0 -16.6 18.1 -15.35 21.7 -15.75 25.2 -15.2 25.35 -15.45 25.15 -15.65 28.55 -19.65 29.3 -15.5 29.9 -13.9 30.4 -12.5 31.2 -10.7 Q32.05 -10.75 31.4 -10.2 L27.5 -13.65 20.4 -5.95 16.05 -5.65 13.85 -5.6 13.85 -5.8 10.65 -5.7 0.55 -6.1 Q-8.8 -6.85 -15.3 -8.6 -20.55 -9.9 -21.0 -10.3 -22.5 -11.45 -22.25 -15.8 -22.1 -19.65 -13.9 -19.35 L-16.6 -22.45 Q-17.15 -23.3 -17.05 -25.05 -16.65 -36.4 -11.05 -38.55 L-11.15 -38.55 Q-12.85 -38.6 -14.05 -40.1 -15.3 -41.65 -15.3 -43.8 L-15.25 -46.55 Q-15.1 -56.35 -13.4 -61.7 -11.55 -67.65 -11.55 -70.9 -11.55 -72.1 -12.7 -73.9 -13.95 -75.85 -14.15 -78.4 L-14.4 -86.25 -14.45 -92.4 Q-14.45 -94.3 -13.35 -94.65 L-8.35 -94.5 -7.05 -95.0 -10.45 -97.35 Q-12.55 -98.75 -12.55 -99.4 -12.55 -103.85 -11.9 -107.55 -10.95 -112.95 -8.9 -113.75 L-10.2 -116.95 Q-9.4 -122.7 -7.05 -126.4 L-7.0 -125.6 Q-6.85 -123.55 -5.9 -122.5 -6.95 -120.0 -6.95 -117.25 L-6.9 -116.15 -4.15 -116.0 1.75 -116.55 Q4.9 -117.25 4.9 -118.7 4.9 -123.45 3.8 -126.0 L4.75 -127.45 5.35 -128.65 M7.8 -112.55 Q7.8 -110.3 9.6 -108.8 L9.7 -108.65 Q9.7 -110.35 8.7 -113.25 L7.9 -113.3 7.8 -112.55 M10.2 -102.35 L7.95 -99.7 Q3.95 -95.1 2.05 -95.0 1.55 -94.55 1.55 -95.55 1.55 -96.95 4.65 -101.15 7.7 -105.3 7.7 -108.45 7.7 -110.9 6.8 -113.4 5.85 -116.0 4.9 -116.0 -0.5 -113.35 -4.0 -112.35 -7.5 -111.35 -8.95 -109.85 -10.3 -108.45 -10.3 -106.1 -10.3 -99.4 -9.45 -98.7 L-1.3 -98.35 Q-6.3 -92.5 -7.7 -88.5 -8.95 -85.0 -8.95 -77.55 -8.95 -74.65 -8.45 -73.85 -7.45 -72.35 -3.75 -72.6 L-7.45 -69.4 Q-10.5 -66.75 -10.55 -66.4 -10.95 -62.3 -11.3 -46.55 L-11.3 -46.0 Q-11.3 -44.55 -10.7 -44.0 -10.1 -43.4 -8.75 -43.4 L0.35 -44.8 Q-1.95 -41.7 -5.8 -38.55 L-5.85 -38.55 -6.5 -38.0 Q-10.35 -35.2 -10.8 -34.1 -11.65 -32.35 -11.85 -24.6 -11.85 -23.85 -8.0 -23.5 L6.95 -21.7 7.1 -21.55 8.1 -21.25 Q5.0 -20.05 0.55 -19.3 L-6.25 -18.2 Q-13.1 -16.9 -13.25 -12.2 -13.35 -9.9 -8.8 -9.15 L2.5 -8.65 9.15 -8.9 17.0 -9.8 Q17.2 -8.85 17.15 -10.15 17.1 -12.4 16.35 -13.8 15.55 -15.15 14.5 -15.1 L13.35 -15.05 17.8 -19.85 Q20.4 -22.9 20.35 -25.55 L20.25 -26.25 20.35 -26.1 Q20.65 -25.5 21.0 -25.45 21.35 -25.5 21.6 -26.1 21.9 -26.75 21.85 -27.65 L21.5 -29.2 20.9 -29.85 Q20.5 -29.85 20.25 -29.2 20.0 -28.6 20.0 -27.65 L20.1 -26.9 Q19.7 -27.9 18.8 -28.3 16.2 -29.05 14.1 -30.0 L12.95 -30.3 16.1 -33.25 17.2 -34.7 Q15.5 -35.4 13.8 -36.4 11.85 -37.5 10.55 -38.55 L10.6 -38.55 8.95 -40.35 Q10.6 -42.0 11.85 -44.35 L12.8 -46.55 Q14.35 -49.9 14.35 -54.95 14.35 -71.95 11.9 -75.0 11.6 -75.4 10.35 -81.15 9.1 -87.1 9.1 -88.95 L9.15 -89.65 9.3 -89.75 9.55 -89.7 9.2 -89.0 9.3 -88.9 Q9.7 -89.75 10.75 -94.5 L10.9 -95.0 Q11.0 -94.9 11.2 -94.9 11.6 -94.9 11.9 -95.55 L12.2 -97.15 11.9 -98.75 11.7 -99.1 12.6 -104.8 12.45 -105.2 11.8 -104.35 Q11.2 -105.3 9.0 -106.15 L8.95 -106.1 9.65 -103.3 10.2 -102.35 M24.8 -86.5 Q24.8 -88.7 23.3 -92.7 21.7 -96.9 20.2 -98.1 L19.3 -97.05 Q19.2 -95.6 21.0 -90.35 22.65 -85.5 23.45 -84.25 L24.4 -85.0 Q24.8 -85.8 24.8 -86.5 M16.45 -68.25 Q16.3 -71.1 15.7 -71.4 15.35 -70.65 14.9 -68.25 14.9 -67.7 15.15 -67.3 L15.7 -66.9 16.3 -67.3 16.45 -68.25 M14.95 -76.25 L14.2 -78.4 13.65 -77.2 13.65 -76.0 Q13.95 -74.8 15.5 -74.2 L14.95 -76.25 M16.5 -64.4 Q16.1 -64.4 15.85 -63.75 15.55 -63.1 15.55 -62.15 15.55 -61.2 15.85 -60.55 16.1 -59.9 16.5 -59.9 16.9 -59.9 17.2 -60.55 L17.45 -62.15 17.2 -63.75 16.5 -64.4 M17.4 -57.4 Q17.0 -57.4 16.75 -56.75 16.45 -56.1 16.45 -55.15 16.45 -54.2 16.75 -53.55 17.0 -52.9 17.4 -52.9 17.8 -52.9 18.1 -53.55 L18.35 -55.15 18.1 -56.75 17.4 -57.4 M20.6 -35.9 L19.95 -36.5 Q19.6 -36.55 19.35 -35.9 19.1 -35.3 19.15 -34.4 19.15 -33.5 19.4 -32.85 19.7 -32.25 20.1 -32.25 L20.7 -32.85 20.95 -34.4 20.6 -35.9" fill="#b4b4b4" fill-rule="evenodd" stroke="none"/>
    <path d="M-5.9 -122.5 L-5.5 -122.15 Q-4.8 -121.55 -3.7 -121.5 L-2.45 -121.65 -2.0 -121.75 Q-0.55 -122.15 0.8 -123.05 L1.05 -123.25 Q2.5 -124.3 3.8 -126.0 4.9 -123.45 4.9 -118.7 4.9 -117.25 1.75 -116.55 L-4.15 -116.0 -6.9 -116.15 -6.95 -117.25 Q-6.95 -120.0 -5.9 -122.5 M1.75 -121.0 L1.6 -121.9 -2.85 -120.0 -3.55 -119.95 -2.95 -119.1 Q-2.15 -118.3 -1.0 -118.3 0.15 -118.3 0.95 -119.1 1.75 -119.9 1.75 -121.0 M5.3 -112.65 L5.1 -112.85 3.45 -112.95 Q0.2 -112.95 -3.75 -108.85 -7.2 -105.2 -7.2 -103.65 L-7.0 -102.7 -6.85 -102.3 Q-1.85 -103.15 2.25 -107.3 5.45 -110.55 5.45 -111.9 L5.3 -112.65 M20.25 -26.25 L20.35 -25.55 Q20.4 -22.9 17.8 -19.85 L13.35 -15.05 14.5 -15.1 Q15.55 -15.15 16.35 -13.8 17.1 -12.4 17.15 -10.15 17.2 -8.85 17.0 -9.8 L9.15 -8.9 2.5 -8.65 -8.8 -9.15 Q-13.35 -9.9 -13.25 -12.2 -13.1 -16.9 -6.25 -18.2 L0.55 -19.3 Q5.0 -20.05 8.1 -21.25 L7.1 -21.55 6.95 -21.7 -8.0 -23.5 Q-11.85 -23.85 -11.85 -24.6 -11.65 -32.35 -10.8 -34.1 -10.35 -35.2 -6.5 -38.0 L-5.85 -38.55 -5.8 -38.55 Q-1.95 -41.7 0.35 -44.8 L-8.75 -43.4 Q-10.1 -43.4 -10.7 -44.0 -11.3 -44.55 -11.3 -46.0 L-11.3 -46.55 Q-10.95 -62.3 -10.55 -66.4 -10.5 -66.75 -7.45 -69.4 L-3.75 -72.6 Q-7.45 -72.35 -8.45 -73.85 -8.95 -74.65 -8.95 -77.55 -8.95 -85.0 -7.7 -88.5 -6.3 -92.5 -1.3 -98.35 L-9.45 -98.7 Q-10.3 -99.4 -10.3 -106.1 -10.3 -108.45 -8.95 -109.85 -7.5 -111.35 -4.0 -112.35 -0.5 -113.35 4.9 -116.0 5.85 -116.0 6.8 -113.4 7.7 -110.9 7.7 -108.45 7.7 -105.3 4.65 -101.15 1.55 -96.95 1.55 -95.55 1.55 -94.55 2.05 -95.0 3.95 -95.1 7.95 -99.7 L10.2 -102.35 10.6 -101.9 11.25 -102.5 11.8 -102.9 12.0 -103.65 11.8 -104.35 12.45 -105.2 12.6 -104.8 11.7 -99.1 11.2 -99.4 Q10.8 -99.4 10.5 -98.75 10.2 -98.1 10.2 -97.15 10.2 -96.2 10.5 -95.55 10.65 -95.2 10.9 -95.0 L10.75 -94.5 Q9.7 -89.75 9.3 -88.9 L9.2 -89.0 9.55 -89.7 9.3 -89.75 9.15 -89.65 9.1 -88.95 Q9.1 -87.1 10.35 -81.15 11.6 -75.4 11.9 -75.0 14.35 -71.95 14.35 -54.95 14.35 -49.9 12.8 -46.55 L11.85 -44.35 Q10.6 -42.0 8.95 -40.35 L10.6 -38.55 10.55 -38.55 Q11.85 -37.5 13.8 -36.4 15.5 -35.4 17.2 -34.7 L16.1 -33.25 12.95 -30.3 14.1 -30.0 Q16.2 -29.05 18.8 -28.3 19.7 -27.9 20.1 -26.9 L20.25 -26.35 20.25 -26.25 M24.8 -86.5 Q24.8 -85.8 24.4 -85.0 L23.45 -84.25 Q22.65 -85.5 21.0 -90.35 19.2 -95.6 19.3 -97.05 L20.2 -98.1 Q21.7 -96.9 23.3 -92.7 24.8 -88.7 24.8 -86.5 M6.6 -78.3 Q5.95 -76.6 3.45 -74.7 L-1.4 -71.3 Q-7.9 -66.6 -7.9 -60.5 -7.9 -58.25 -5.3 -58.25 L-0.05 -58.85 Q-4.2 -54.55 -7.15 -52.0 -7.7 -51.55 -7.7 -50.7 -7.7 -49.75 -6.95 -49.0 -5.95 -48.0 -4.05 -48.0 -1.55 -48.0 5.3 -54.75 L4.75 -53.25 2.6 -48.75 Q2.6 -47.75 3.15 -47.7 L3.95 -47.35 Q6.9 -47.4 9.3 -52.15 11.5 -56.55 11.5 -61.0 L11.3 -62.45 10.7 -61.7 Q11.4 -66.65 10.8 -68.95 10.6 -69.65 9.5 -69.7 L7.6 -69.65 3.6 -70.1 Q7.2 -74.45 7.6 -76.5 7.6 -78.2 7.2 -78.25 L6.6 -78.3 M8.55 -96.05 L7.7 -96.2 Q6.5 -94.75 -1.9 -86.75 -6.8 -82.15 -6.8 -78.35 L-6.55 -76.25 -5.45 -75.95 Q-1.4 -77.8 2.9 -84.0 7.25 -90.2 8.55 -96.05 M10.25 -16.6 L10.15 -17.35 10.05 -17.25 Q8.25 -18.0 7.7 -17.75 L3.95 -16.95 -7.25 -15.55 Q-8.95 -15.15 -8.95 -13.7 -9.0 -12.6 -8.15 -12.15 -7.15 -11.65 -4.15 -11.65 1.15 -11.65 5.25 -12.75 10.25 -14.15 10.25 -16.6 M5.6 -37.85 L6.15 -38.55 6.2 -38.55 Q9.5 -43.2 5.25 -43.2 3.05 -43.2 -2.4 -38.8 L-2.7 -38.55 Q-8.5 -34.1 -8.55 -30.65 -8.65 -28.4 -0.65 -25.3 7.2 -22.25 12.25 -22.25 15.25 -22.25 15.25 -24.9 15.15 -27.25 9.0 -28.7 -0.2 -30.9 -2.2 -31.8 1.4 -32.85 5.6 -37.85" fill="#e0e0e0" fill-rule="evenodd" stroke="none"/>
    <path d="M7.5 -127.45 Q7.5 -126.25 5.75 -126.25 4.9 -126.25 4.75 -126.65 L4.75 -127.1 Q4.75 -128.75 6.15 -128.75 7.5 -128.7 7.5 -127.45 M12.75 -118.7 Q12.75 -117.4 11.75 -117.4 10.5 -117.4 10.15 -118.0 10.0 -118.2 10.0 -118.8 10.0 -119.85 11.4 -120.05 12.75 -120.25 12.75 -118.7 M24.0 -101.75 Q24.0 -101.15 23.65 -100.95 L22.65 -100.75 Q21.75 -100.75 21.4 -101.45 L21.25 -102.05 Q21.25 -103.25 22.65 -103.15 24.0 -103.05 24.0 -101.75 M31.0 -76.25 Q31.0 -75.65 30.65 -75.45 L29.65 -75.25 Q28.75 -75.25 28.4 -75.95 L28.25 -76.55 Q28.25 -77.75 29.65 -77.65 31.0 -77.55 31.0 -76.25 M19.75 -75.2 Q19.75 -73.9 18.75 -73.9 17.5 -73.9 17.15 -74.5 17.0 -74.7 17.0 -75.3 17.0 -76.35 18.4 -76.55 19.75 -76.75 19.75 -75.2 M21.25 -61.2 Q21.25 -59.9 20.25 -59.9 19.0 -59.9 18.65 -60.5 18.5 -60.7 18.5 -61.3 18.5 -62.35 19.9 -62.55 21.25 -62.75 21.25 -61.2 M23.25 -40.45 Q23.25 -39.15 22.25 -39.15 21.0 -39.15 20.65 -39.75 20.5 -39.95 20.5 -40.55 20.5 -41.6 21.9 -41.8 23.25 -42.0 23.25 -40.45 M28.75 -32.0 Q28.75 -30.75 27.6 -30.75 26.3 -30.75 26.05 -31.5 25.9 -31.9 26.0 -32.4 26.0 -33.65 27.4 -33.3 28.75 -32.95 28.75 -32.0 M35.0 -12.9 L35.0 -11.55 Q34.85 -11.0 34.0 -11.0 32.7 -11.0 32.25 -11.7 32.0 -12.0 32.0 -12.45 32.0 -13.5 33.5 -13.75 35.0 -14.0 35.0 -12.9 M30.0 -19.0 Q30.0 -17.75 28.85 -17.75 27.55 -17.75 27.3 -18.5 27.15 -18.9 27.25 -19.4 27.25 -20.65 28.65 -20.3 30.0 -19.95 30.0 -19.0 M-13.25 -103.45 Q-13.25 -102.9 -13.4 -102.75 -13.65 -102.5 -14.35 -102.5 -15.1 -102.5 -15.45 -103.2 L-15.65 -103.8 Q-15.65 -104.85 -14.45 -104.75 -13.25 -104.65 -13.25 -103.45 M-13.25 -67.7 Q-13.25 -67.15 -13.4 -67.0 -13.65 -66.75 -14.35 -66.75 -15.1 -66.75 -15.45 -67.45 L-15.65 -68.05 Q-15.65 -69.1 -14.45 -69.0 -13.25 -68.9 -13.25 -67.7 M-16.25 -41.5 Q-16.25 -40.9 -16.6 -40.7 L-17.6 -40.5 Q-18.5 -40.5 -18.85 -41.2 L-19.0 -41.8 Q-19.0 -43.0 -17.6 -42.9 -16.25 -42.8 -16.25 -41.5 M-21.0 -23.5 Q-21.0 -22.9 -21.35 -22.7 L-22.35 -22.5 Q-23.25 -22.5 -23.6 -23.2 L-23.75 -23.8 Q-23.75 -25.0 -22.35 -24.9 -21.0 -24.8 -21.0 -23.5 M-15.5 -8.7 Q-15.5 -8.15 -15.65 -8.0 L-16.6 -7.75 Q-17.35 -7.75 -17.7 -8.45 L-17.9 -9.05 Q-17.9 -10.1 -16.7 -10.0 -15.5 -9.9 -15.5 -8.7" fill="#616161" fill-rule="evenodd" stroke="none"/>
    <path d="M7.5 -93.45 Q7.5 -92.25 5.75 -92.25 4.9 -92.25 4.75 -92.65 L4.75 -93.1 Q4.75 -94.75 6.15 -94.75 7.5 -94.7 7.5 -93.45 M7.0 -74.95 Q7.0 -73.75 5.25 -73.75 4.4 -73.75 4.25 -74.15 L4.25 -74.6 Q4.25 -76.25 5.65 -76.25 7.0 -76.2 7.0 -74.95 M1.5 -84.2 Q1.5 -83.0 -0.25 -83.0 -1.1 -83.0 -1.25 -83.4 L-1.25 -83.85 Q-1.25 -85.5 0.15 -85.5 1.5 -85.45 1.5 -84.2 M7.75 -60.95 Q7.75 -59.75 6.0 -59.75 5.15 -59.75 5.0 -60.15 L5.0 -60.6 Q5.0 -62.25 6.4 -62.25 7.75 -62.2 7.75 -60.95 M2.5 -30.7 Q2.5 -29.5 0.75 -29.5 -0.1 -29.5 -0.25 -29.9 L-0.25 -30.35 Q-0.25 -32.0 1.15 -32.0 2.5 -31.95 2.5 -30.7 M2.75 -15.2 Q2.75 -14.0 1.0 -14.0 0.15 -14.0 0.0 -14.4 L0.0 -14.85 Q0.0 -16.5 1.4 -16.5 2.75 -16.45 2.75 -15.2 M1.25 -103.45 Q1.25 -102.25 -0.5 -102.25 -1.35 -102.25 -1.5 -102.65 L-1.5 -103.1 Q-1.5 -104.75 -0.1 -104.75 1.25 -104.7 1.25 -103.45 M1.25 -67.7 Q1.25 -66.5 -0.5 -66.5 -1.35 -66.5 -1.5 -66.9 L-1.5 -67.35 Q-1.5 -69.0 -0.1 -69.0 1.25 -68.95 1.25 -67.7" fill="#e0e0e0" fill-rule="evenodd" stroke="none"/>
    <path d="M6.5 -110.7 Q6.5 -109.5 4.75 -109.5 3.9 -109.5 3.75 -109.9 L3.75 -110.35 Q3.75 -112.0 5.15 -112.0 6.5 -111.95 6.5 -110.7 M14.0 -67.95 Q14.0 -66.65 13.0 -66.65 11.75 -66.65 11.4 -67.25 11.25 -67.45 11.25 -68.05 11.25 -69.1 12.65 -69.3 14.0 -69.5 14.0 -67.95 M2.25 -50.7 Q2.25 -49.5 0.5 -49.5 -0.35 -49.5 -0.5 -49.9 L-0.5 -50.35 Q-0.5 -52.0 0.9 -52.0 2.25 -51.95 2.25 -50.7 M15.0 -50.95 Q15.0 -49.65 14.0 -49.65 12.75 -49.65 12.4 -50.25 12.25 -50.45 12.25 -51.05 12.25 -52.1 13.65 -52.3 15.0 -52.5 15.0 -50.95 M10.5 -40.2 Q10.5 -39.0 8.75 -39.0 7.9 -39.0 7.75 -39.4 L7.75 -39.85 Q7.75 -41.5 9.15 -41.5 10.5 -41.45 10.5 -40.2 M15.25 -30.95 Q15.25 -29.65 14.25 -29.65 13.0 -29.65 12.65 -30.25 12.5 -30.45 12.5 -31.05 12.5 -32.1 13.9 -32.3 15.25 -32.5 15.25 -30.95 M15.5 -15.45 Q15.5 -14.15 14.5 -14.15 13.25 -14.15 12.9 -14.75 12.75 -14.95 12.75 -15.55 12.75 -16.6 14.15 -16.8 15.5 -17.0 15.5 -15.45 M9.0 -22.2 Q9.0 -21.0 7.25 -21.0 6.4 -21.0 6.25 -21.4 L6.25 -21.85 Q6.25 -23.5 7.65 -23.5 9.0 -23.45 9.0 -22.2 M0.0 -118.45 Q0.0 -117.25 -1.75 -117.25 -2.6 -117.25 -2.75 -117.65 L-2.75 -118.1 Q-2.75 -119.75 -1.35 -119.75 0.0 -119.7 0.0 -118.45 M-6.75 -60.95 Q-6.75 -60.4 -6.9 -60.25 L-7.85 -60.0 Q-8.6 -60.0 -8.95 -60.7 L-9.15 -61.3 Q-9.15 -62.35 -7.95 -62.25 -6.75 -62.15 -6.75 -60.95" fill="#b4b4b4" fill-rule="evenodd" stroke="none"/>
    <path d="M14.0 -103.7 Q14.0 -102.4 13.0 -102.4 11.75 -102.4 11.4 -103.0 11.25 -103.2 11.25 -103.8 11.25 -104.85 12.65 -105.05 14.0 -105.25 14.0 -103.7 M27.25 -85.0 Q27.25 -84.4 26.9 -84.2 L25.9 -84.0 Q25.0 -84.0 24.65 -84.7 24.5 -85.0 24.5 -85.3 24.5 -86.5 25.9 -86.4 27.25 -86.3 27.25 -85.0 M20.25 -93.7 Q20.25 -92.4 19.25 -92.4 18.0 -92.4 17.65 -93.0 17.5 -93.2 17.5 -93.8 17.5 -94.85 18.9 -95.05 20.25 -95.25 20.25 -93.7 M14.25 -84.45 Q14.25 -83.15 13.25 -83.15 12.0 -83.15 11.65 -83.75 11.5 -83.95 11.5 -84.55 11.5 -85.6 12.9 -85.8 14.25 -86.0 14.25 -84.45 M21.75 -22.45 Q21.75 -21.15 20.75 -21.15 19.5 -21.15 19.15 -21.75 19.0 -21.95 19.0 -22.55 19.0 -23.6 20.4 -23.8 21.75 -24.0 21.75 -22.45 M9.25 -8.95 Q9.25 -7.65 8.25 -7.65 7.0 -7.65 6.65 -8.25 6.5 -8.45 6.5 -9.05 6.5 -10.1 7.9 -10.3 9.25 -10.5 9.25 -8.95 M23.75 -10.0 Q23.75 -8.75 22.6 -8.75 21.3 -8.75 21.05 -9.5 20.9 -9.9 21.0 -10.4 21.0 -11.65 22.4 -11.3 23.75 -10.95 23.75 -10.0 M-8.0 -110.7 Q-8.0 -110.15 -8.15 -110.0 -8.4 -109.75 -9.1 -109.75 -9.85 -109.75 -10.2 -110.45 L-10.4 -111.05 Q-10.4 -112.1 -9.2 -112.0 -8.0 -111.9 -8.0 -110.7 M-7.0 -93.45 Q-7.0 -92.9 -7.15 -92.75 -7.4 -92.5 -8.1 -92.5 -8.85 -92.5 -9.2 -93.2 L-9.4 -93.8 Q-9.4 -94.85 -8.2 -94.75 -7.0 -94.65 -7.0 -93.45 M-13.0 -84.2 Q-13.0 -83.65 -13.15 -83.5 L-14.1 -83.25 Q-14.85 -83.25 -15.2 -83.95 L-15.4 -84.55 Q-15.4 -85.6 -14.2 -85.5 -13.0 -85.4 -13.0 -84.2 M-7.5 -74.95 Q-7.5 -74.4 -7.65 -74.25 L-8.6 -74.0 Q-9.35 -74.0 -9.7 -74.7 L-9.9 -75.3 Q-9.9 -76.35 -8.7 -76.25 -7.5 -76.15 -7.5 -74.95 M-12.25 -50.7 Q-12.25 -50.15 -12.4 -50.0 L-13.35 -49.75 Q-14.1 -49.75 -14.45 -50.45 L-14.65 -51.05 Q-14.65 -52.1 -13.45 -52.0 -12.25 -51.9 -12.25 -50.7 M-4.0 -40.2 Q-4.0 -39.65 -4.15 -39.5 -4.4 -39.25 -5.1 -39.25 -5.85 -39.25 -6.2 -39.95 L-6.4 -40.55 Q-6.4 -41.6 -5.2 -41.5 -4.0 -41.4 -4.0 -40.2 M-12.0 -30.7 Q-12.0 -30.15 -12.15 -30.0 -12.4 -29.75 -13.1 -29.75 -13.85 -29.75 -14.2 -30.45 L-14.4 -31.05 Q-14.4 -32.1 -13.2 -32.0 -12.0 -31.9 -12.0 -30.7 M-5.5 -22.2 Q-5.5 -21.65 -5.65 -21.5 -5.9 -21.25 -6.6 -21.25 -7.35 -21.25 -7.7 -21.95 L-7.9 -22.55 Q-7.9 -23.6 -6.7 -23.5 -5.5 -23.4 -5.5 -22.2 M-11.75 -15.2 Q-11.75 -14.65 -11.9 -14.5 -12.15 -14.25 -12.85 -14.25 -13.6 -14.25 -13.95 -14.95 L-14.15 -15.55 Q-14.15 -16.6 -12.95 -16.5 -11.75 -16.4 -11.75 -15.2 M-3.5 -8.7 Q-3.5 -7.5 -5.25 -7.5 -6.1 -7.5 -6.25 -7.9 L-6.25 -8.35 Q-6.25 -10.0 -4.85 -10.0 -3.5 -9.95 -3.5 -8.7" fill="#8a8a8a" fill-rule="evenodd" stroke="none"/>
  </g>
</svg>
