<?xml version="1.0" encoding="UTF-8" standalone="no"?>
<svg xmlns:ffdec="https://www.free-decompiler.com/flash" xmlns:xlink="http://www.w3.org/1999/xlink" ffdec:objectType="shape" height="54.45px" width="92.25px" xmlns="http://www.w3.org/2000/svg">
  <g transform="matrix(1.0, 0.0, 0.0, 1.0, 43.0, 13.4)">
    <path d="M-27.35 1.5 Q-27.05 1.5 -27.0 2.05 L-27.75 4.1 -28.25 5.3 -27.85 3.7 Q-27.45 2.7 -27.35 1.5" fill="#cbc8c0" fill-rule="evenodd" stroke="none"/>
    <path d="M-31.35 -10.9 L-32.5 -10.9 -32.0 -8.75 -31.75 -7.85 -31.5 -6.45 Q-31.5 -3.7 -32.25 -1.75 L-32.55 -1.05 -33.0 -0.05 -32.8 0.9 -32.05 1.75 Q-31.3 2.3 -30.15 2.3 L-27.7 1.65 Q-27.55 1.5 -27.4 1.5 L-27.35 1.5 Q-27.45 2.7 -27.85 3.7 L-28.25 5.3 -29.85 8.65 -30.1 9.25 Q-30.8 11.0 -30.9 13.95 L-30.9 14.6 -29.75 17.5 -29.9 17.75 Q-30.95 20.45 -30.95 23.95 -30.95 26.1 -29.5 28.65 L-27.25 31.95 -28.45 33.4 -29.55 34.25 Q-30.75 34.25 -31.7 32.65 -32.85 30.8 -32.85 27.8 L-32.35 23.95 -31.85 20.05 Q-31.85 19.55 -32.95 16.1 -34.1 12.6 -34.1 11.55 -34.1 7.2 -34.75 4.4 L-35.45 0.5 -34.55 -3.65 Q-34.3 -4.6 -34.25 -6.9 -34.25 -8.4 -33.7 -8.4 -33.1 -8.4 -33.25 -8.85 L-33.55 -9.35 -33.8 -10.15 -33.5 -13.4 -31.6 -13.4 -31.6 -13.25 -30.7 -10.9 -31.35 -10.9 M-35.65 -7.7 L-36.8 -3.65 -37.55 0.15 -36.6 5.6 Q-35.7 10.15 -35.7 11.0 -35.7 13.2 -36.4 17.75 -37.15 18.95 -38.2 19.75 -38.9 20.25 -39.25 20.35 L-39.85 19.0 -40.65 16.65 Q-38.65 11.85 -38.65 10.5 -38.65 7.9 -40.3 3.45 L-41.95 -1.2 -41.5 -3.25 -40.65 -5.95 -40.4 -8.35 -41.2 -10.3 -41.8 -11.6 -41.8 -13.4 -34.5 -13.4 -34.65 -12.2 Q-35.05 -9.0 -35.65 -7.7 M-18.75 30.15 Q-18.15 32.05 -18.15 32.8 -18.15 34.65 -19.0 35.45 -19.6 36.0 -20.25 36.05 L-20.85 36.25 -20.35 33.4 -20.35 33.35 Q-20.1 31.9 -20.45 29.7 -19.7 30.2 -18.8 30.15 L-18.75 30.15" fill="#9f9f9f" fill-rule="evenodd" stroke="none"/>
    <path d="M44.3 3.35 L45.3 6.4 45.7 7.1 Q47.9 10.55 47.9 14.1 47.9 15.1 46.3 19.0 L44.65 23.2 Q44.65 23.7 45.15 25.0 L45.6 26.8 45.55 27.35 44.85 27.75 43.75 27.85 Q42.45 27.85 41.75 25.25 41.2 23.45 41.2 22.1 L42.45 18.0 43.3 14.45 Q43.3 12.3 42.0 9.8 L40.65 7.25 Q40.95 5.9 40.65 5.45 L39.45 6.05 39.3 7.4 Q39.3 8.7 40.65 11.35 L41.95 14.45 Q41.95 15.75 39.85 22.25 L40.65 26.1 39.7 26.05 Q40.05 24.3 38.45 21.75 36.7 19.0 36.7 17.45 L37.5 12.75 38.3 8.65 38.0 6.65 37.25 4.8 37.25 7.15 Q37.45 8.05 36.55 11.95 35.6 16.2 35.6 17.5 L35.8 19.3 35.9 19.95 36.15 20.45 Q38.55 24.25 38.55 25.35 38.55 26.1 37.8 27.3 36.8 28.7 35.4 29.35 34.85 28.85 34.75 27.85 L34.7 27.45 Q34.5 26.05 33.7 24.25 L30.7 19.95 30.65 19.85 Q28.35 16.6 28.35 14.65 28.35 13.5 29.0 10.75 29.65 8.05 30.7 5.1 L32.1 1.45 33.1 -1.7 30.75 3.15 30.7 3.25 28.7 6.7 Q27.0 11.95 27.0 14.65 27.0 17.05 28.25 18.75 L30.7 22.3 32.65 25.55 Q33.15 30.1 31.9 32.45 L30.7 33.9 Q29.8 34.5 28.55 34.5 27.8 34.5 26.7 32.95 25.8 31.6 25.8 31.25 L26.25 28.75 26.65 26.25 Q26.65 24.85 25.55 22.8 23.8 19.45 22.4 15.15 23.75 7.45 25.3 4.85 26.5 2.9 26.5 1.6 L26.35 0.9 26.0 0.9 Q23.85 4.9 22.85 7.15 20.95 11.15 20.95 13.75 L20.2 23.15 Q20.2 26.45 22.05 31.2 L23.85 35.75 Q23.85 39.9 20.35 39.9 L19.55 39.75 19.5 39.6 19.45 39.0 19.5 38.75 20.05 35.9 20.05 35.85 Q20.25 34.9 19.35 32.4 L17.7 28.6 16.5 25.55 16.3 24.7 15.8 22.4 15.3 19.2 15.2 18.6 15.25 17.05 15.35 16.75 15.5 15.35 16.1 10.1 Q16.4 7.55 17.45 3.7 L17.7 2.4 Q17.9 0.05 17.55 -0.6 L17.2 0.05 17.2 0.15 15.5 9.2 15.05 11.6 14.6 14.35 14.25 16.65 14.05 18.95 14.65 24.4 14.85 25.75 15.05 27.55 Q15.05 29.5 14.65 30.75 L13.75 34.1 10.8 30.8 Q11.45 28.65 11.1 25.25 L11.1 25.1 10.65 21.95 12.2 14.75 11.95 11.05 11.3 10.5 11.05 10.6 Q10.9 11.15 10.9 16.6 L10.65 17.55 9.65 19.65 9.3 20.25 8.8 21.7 Q8.1 23.85 8.1 26.45 8.1 28.2 9.2 30.25 L9.75 31.15 12.3 34.45 Q13.35 36.2 13.35 37.4 L13.25 38.25 Q12.85 39.0 11.3 39.0 9.3 39.0 7.7 37.5 L6.85 36.6 6.75 36.45 Q5.05 34.2 5.05 31.55 L5.9 23.35 Q5.9 21.95 4.9 19.25 L3.85 16.65 4.05 14.1 Q4.2 11.9 3.85 10.1 3.6 8.35 2.75 5.55 2.0 3.1 2.0 2.6 2.0 1.25 2.85 -1.5 L3.75 -4.6 3.4 -5.3 2.8 -5.2 Q2.35 -4.6 1.5 -1.15 0.65 2.05 0.65 2.65 0.65 3.55 1.75 8.1 L2.35 10.8 2.75 13.5 2.4 17.4 1.95 20.25 Q1.9 22.3 1.15 23.55 0.6 24.55 -0.25 24.75 L-0.6 24.75 -1.7 24.6 -2.8 23.9 Q-3.5 23.1 -3.5 21.75 L-3.2 20.1 -2.85 19.15 Q-1.6 16.5 -1.05 14.9 L-0.6 13.0 Q-0.6 10.75 -2.0 7.05 L-2.45 5.95 -4.3 1.3 -3.8 -0.75 -2.85 -3.45 Q-2.55 -4.65 -2.55 -5.85 L-3.45 -7.8 -4.15 -9.1 -4.15 -6.9 -3.65 -6.1 Q-3.65 -5.55 -4.55 -1.85 -5.5 1.8 -5.5 2.8 L-3.65 7.95 Q-1.85 12.5 -1.85 13.05 -1.85 14.0 -3.35 17.8 L-4.85 21.75 Q-4.85 25.2 -2.0 25.85 L-2.95 28.6 -4.4 32.4 Q-5.2 34.9 -5.05 35.85 L-5.05 35.9 -4.55 38.75 -4.5 39.0 -4.55 39.6 -4.6 39.75 -5.3 39.9 Q-8.4 39.9 -8.4 35.75 L-6.8 31.2 Q-5.15 26.45 -5.15 23.15 L-5.85 13.75 Q-5.85 11.15 -7.5 7.15 L-10.3 0.9 -10.4 0.95 -10.6 0.9 -10.75 1.6 -10.7 1.95 -10.7 2.2 -10.3 3.6 -9.7 4.85 Q-8.3 7.45 -7.1 15.15 -8.35 19.45 -9.9 22.8 L-10.3 23.7 Q-10.9 25.15 -10.9 26.25 L-10.55 28.65 -10.55 28.75 -10.3 30.1 -10.15 31.25 -10.3 31.75 -10.95 32.95 Q-11.9 34.5 -12.55 34.5 -14.55 34.5 -15.55 32.45 -16.05 31.35 -16.25 29.7 L-16.3 27.85 -16.2 25.55 -15.75 24.65 -14.65 22.6 -14.2 21.8 -13.25 20.3 -12.45 19.05 -12.3 18.75 -11.9 18.1 -11.4 16.6 -11.2 14.65 -11.25 13.3 -11.4 12.15 Q-11.7 10.35 -12.35 7.9 L-12.7 6.7 -13.15 5.95 -14.1 3.95 -14.5 3.15 -14.65 2.8 -15.25 1.45 -15.85 0.05 -16.5 -1.5 -16.6 -1.7 -15.7 1.45 -15.5 2.0 -14.9 3.6 -14.5 4.85 -13.6 7.9 -12.95 10.75 -12.9 10.95 Q-12.4 13.55 -12.4 14.65 -12.4 15.55 -12.8 16.7 L-13.15 17.55 -13.9 18.95 -14.45 19.85 -14.8 20.4 -15.15 21.0 -16.2 22.65 -17.15 24.25 -17.9 26.85 -18.05 27.85 -18.45 29.15 -18.65 29.35 -19.1 29.1 -20.75 27.3 -21.15 26.55 -21.45 25.5 -21.45 25.35 -21.05 23.9 -20.15 22.1 -19.3 20.45 -19.1 19.95 -19.0 19.3 -18.8 17.5 -18.85 16.6 -19.6 12.25 -19.65 11.95 Q-20.35 8.45 -20.3 7.4 L-20.3 7.15 -20.3 4.8 -20.95 6.65 -21.2 8.65 -21.1 9.35 -20.5 12.75 -19.9 16.45 -19.8 17.45 Q-19.8 18.15 -20.1 19.15 L-21.35 21.75 -21.6 22.25 -22.05 23.35 Q-22.65 24.9 -22.45 26.05 L-23.3 26.1 -22.6 22.25 Q-24.45 15.75 -24.45 14.45 -24.45 13.95 -23.3 11.35 -22.1 8.7 -22.1 7.4 L-22.25 6.05 -23.3 5.45 Q-23.55 5.9 -23.3 7.25 L-23.95 8.8 -24.5 9.8 -25.2 11.6 -25.65 14.45 -25.6 14.85 -24.9 18.0 -23.8 22.1 Q-23.8 23.45 -24.25 25.25 L-24.9 27.05 Q-25.4 27.85 -26.05 27.85 L-27.0 27.75 -27.65 27.35 -27.7 26.8 -27.3 25.0 -26.85 23.2 -28.3 19.0 -28.5 18.45 -29.2 16.3 -29.7 14.1 Q-29.7 11.2 -28.35 8.3 L-28.25 8.05 -27.75 7.1 -27.4 6.4 Q-26.8 4.9 -26.35 2.5 L-26.0 0.25 -25.75 -0.5 -26.25 -0.55 Q-25.65 -0.55 -25.8 -2.2 L-26.05 -4.6 -26.1 -5.0 -26.1 -4.9 -26.3 -8.1 -26.35 -8.95 -25.95 -10.9 -27.4 -10.9 -27.4 -9.3 -27.05 -3.25 Q-27.05 -1.75 -27.35 -0.7 -27.9 1.15 -29.55 1.15 L-29.95 1.15 Q-31.75 1.05 -31.75 0.0 L-31.05 -2.5 Q-30.35 -4.8 -30.35 -6.35 L-30.4 -6.75 -30.85 -8.75 -31.35 -10.9 -30.7 -10.9 -31.6 -13.25 -31.6 -13.4 -10.3 -13.4 -10.3 -10.9 40.7 -10.9 40.7 3.35 44.3 3.35 M-27.25 31.95 Q-26.3 33.7 -26.3 34.9 L-26.4 35.75 Q-26.75 36.5 -28.1 36.5 -30.35 36.5 -32.05 34.1 -33.65 31.8 -33.65 29.05 -32.9 21.85 -32.9 20.85 -32.9 19.45 -33.8 16.75 L-34.7 14.15 -34.55 11.6 Q-34.4 9.4 -34.7 7.6 -34.95 5.85 -35.7 3.05 L-36.35 0.1 Q-36.35 -1.25 -35.6 -4.0 L-34.8 -7.1 -35.1 -7.8 -35.65 -7.7 Q-35.05 -9.0 -34.65 -12.2 L-34.5 -13.4 -33.5 -13.4 -33.8 -10.15 -33.55 -9.35 -33.25 -8.85 Q-33.1 -8.4 -33.7 -8.4 -34.25 -8.4 -34.25 -6.9 -34.3 -4.6 -34.55 -3.65 L-35.45 0.5 -34.75 4.4 Q-34.1 7.2 -34.1 11.55 -34.1 12.6 -32.95 16.1 -31.85 19.55 -31.85 20.05 L-32.35 23.95 -32.85 27.8 Q-32.85 30.8 -31.7 32.65 -30.75 34.25 -29.55 34.25 L-28.45 33.4 -27.25 31.95 M-36.4 17.75 Q-36.45 19.8 -37.1 21.05 -37.7 22.25 -38.65 22.25 -39.9 22.25 -40.6 21.4 -41.25 20.6 -41.25 19.25 L-40.95 17.6 -40.65 16.65 -39.85 19.0 -39.25 20.35 Q-38.9 20.25 -38.2 19.75 -37.15 18.95 -36.4 17.75 M3.3 21.95 L2.9 25.25 Q2.6 28.65 3.15 30.8 L0.55 34.1 -0.25 30.75 Q-0.6 29.5 -0.6 27.55 L-0.4 26.0 Q2.05 25.95 2.85 23.3 L3.2 21.3 3.3 21.95 M2.7 39.0 Q1.35 39.0 1.0 38.25 L0.9 37.4 Q0.9 36.2 1.85 34.45 L3.8 31.7 Q3.8 35.2 5.8 37.65 4.4 39.0 2.7 39.0 M-18.75 30.15 L-18.15 30.0 -17.0 33.25 Q-17.0 37.4 -20.1 37.4 L-20.8 37.25 Q-20.75 37.1 -20.85 37.1 L-20.9 36.5 -20.85 36.25 -20.25 36.05 Q-19.6 36.0 -19.0 35.45 -18.15 34.65 -18.15 32.8 -18.15 32.05 -18.75 30.15 M-28.55 28.3 L-28.55 28.25 Q-27.95 29.1 -26.3 29.1 L-25.25 28.8 -25.95 31.6 -28.55 28.3 M-29.65 25.55 Q-29.85 23.3 -29.25 20.9 L-28.95 23.5 -29.15 25.45 -29.2 27.05 -29.65 25.55" fill="#858585" fill-rule="evenodd" stroke="none"/>
    <path d="M-31.35 -10.9 L-30.85 -8.75 -30.4 -6.75 -30.35 -6.35 Q-30.35 -4.8 -31.05 -2.5 L-31.75 0.0 Q-31.75 1.05 -29.95 1.15 L-29.55 1.15 Q-27.9 1.15 -27.35 -0.7 -27.05 -1.75 -27.05 -3.25 L-27.4 -9.3 -27.4 -10.9 -25.95 -10.9 -26.35 -8.95 -26.3 -8.1 -26.1 -4.9 -26.1 -5.0 -26.05 -4.6 -25.8 -2.2 Q-25.65 -0.55 -26.25 -0.55 L-25.75 -0.5 -26.0 0.25 -26.35 2.5 Q-26.8 4.9 -27.4 6.4 L-27.75 7.1 -28.25 8.05 -28.35 8.3 Q-29.7 11.2 -29.7 14.1 L-29.2 16.3 -28.5 18.45 -28.3 19.0 -26.85 23.2 -27.3 25.0 -27.7 26.8 -27.65 27.35 -27.0 27.75 -26.05 27.85 Q-25.4 27.85 -24.9 27.05 L-24.25 25.25 Q-23.8 23.45 -23.8 22.1 L-24.9 18.0 -25.6 14.85 -25.65 14.45 -25.2 11.6 -24.5 9.8 -23.95 8.8 -23.3 7.25 Q-23.55 5.9 -23.3 5.45 L-22.25 6.05 -22.1 7.4 Q-22.1 8.7 -23.3 11.35 -24.45 13.95 -24.45 14.45 -24.45 15.75 -22.6 22.25 L-23.3 26.1 -22.45 26.05 Q-22.65 24.9 -22.05 23.35 L-21.6 22.25 -21.35 21.75 -20.1 19.15 Q-19.8 18.15 -19.8 17.45 L-19.9 16.45 -20.5 12.75 -21.1 9.35 -21.2 8.65 -20.95 6.65 -20.3 4.8 -20.3 7.15 -20.3 7.4 Q-20.35 8.45 -19.65 11.95 L-19.6 12.25 -18.85 16.6 -18.8 17.5 -19.0 19.3 -19.1 19.95 -19.3 20.45 -20.15 22.1 -21.05 23.9 -21.45 25.35 -21.45 25.5 -21.15 26.55 -20.75 27.3 -19.1 29.1 -18.65 29.35 -18.45 29.15 -18.05 27.85 -17.9 26.85 -17.15 24.25 -16.2 22.65 -15.15 21.0 -14.8 20.4 -14.45 19.85 -13.9 18.95 -13.15 17.55 -12.8 16.7 Q-12.4 15.55 -12.4 14.65 -12.4 13.55 -12.9 10.95 L-12.95 10.75 -13.6 7.9 -14.5 4.85 -14.9 3.6 -15.5 2.0 -15.7 1.45 -16.6 -1.7 -16.5 -1.5 -15.85 0.05 -15.25 1.45 -14.65 2.8 -14.5 3.15 -14.1 3.95 -13.15 5.95 -12.7 6.7 -12.35 7.9 Q-11.7 10.35 -11.4 12.15 L-11.25 13.3 -11.2 14.65 -11.4 16.6 -11.9 18.1 -12.3 18.75 -12.45 19.05 -13.25 20.3 -14.2 21.8 -14.65 22.6 -15.75 24.65 -16.2 25.55 -16.3 27.85 -16.25 29.7 Q-16.05 31.35 -15.55 32.45 -14.55 34.5 -12.55 34.5 -11.9 34.5 -10.95 32.95 L-10.3 31.75 -10.15 31.25 -10.3 30.1 -10.55 28.75 -10.55 28.65 -10.9 26.25 Q-10.9 25.15 -10.3 23.7 L-9.9 22.8 Q-8.35 19.45 -7.1 15.15 -8.3 7.45 -9.7 4.85 L-10.3 3.6 -10.7 2.2 -10.7 1.95 -10.75 1.6 -10.6 0.9 -10.4 0.95 -10.3 0.9 -7.5 7.15 Q-5.85 11.15 -5.85 13.75 L-5.15 23.15 Q-5.15 26.45 -6.8 31.2 L-8.4 35.75 Q-8.4 39.9 -5.3 39.9 L-4.6 39.75 -4.55 39.6 -4.5 39.0 -4.55 38.75 -5.05 35.9 -5.05 35.85 Q-5.2 34.9 -4.4 32.4 L-2.95 28.6 -2.0 25.85 Q-4.85 25.2 -4.85 21.75 L-3.35 17.8 Q-1.85 14.0 -1.85 13.05 -1.85 12.5 -3.65 7.95 L-5.5 2.8 Q-5.5 1.8 -4.55 -1.85 -3.65 -5.55 -3.65 -6.1 L-4.15 -6.9 -4.15 -9.1 -3.45 -7.8 -2.55 -5.85 Q-2.55 -4.65 -2.85 -3.45 L-3.8 -0.75 -4.3 1.3 -2.45 5.95 -2.0 7.05 Q-0.6 10.75 -0.6 13.0 L-1.05 14.9 Q-1.6 16.5 -2.85 19.15 L-3.2 20.1 -3.5 21.75 Q-3.5 23.1 -2.8 23.9 L-1.7 24.6 -0.6 24.75 -0.25 24.75 Q0.6 24.55 1.15 23.55 1.9 22.3 1.95 20.25 L2.4 17.4 2.75 13.5 2.35 10.8 1.75 8.1 Q0.65 3.55 0.65 2.65 0.65 2.05 1.5 -1.15 2.35 -4.6 2.8 -5.2 L3.4 -5.3 3.75 -4.6 2.85 -1.5 Q2.0 1.25 2.0 2.6 2.0 3.1 2.75 5.55 3.6 8.35 3.85 10.1 4.2 11.9 4.05 14.1 L3.85 16.65 4.9 19.25 Q5.9 21.95 5.9 23.35 L5.05 31.55 Q5.05 34.2 6.75 36.45 L6.85 36.6 7.7 37.5 Q9.3 39.0 11.3 39.0 12.85 39.0 13.25 38.25 L13.35 37.4 Q13.35 36.2 12.3 34.45 L9.75 31.15 9.2 30.25 Q8.1 28.2 8.1 26.45 8.1 23.85 8.8 21.7 L9.3 20.25 9.65 19.65 10.65 17.55 10.9 16.6 Q10.9 11.15 11.05 10.6 L11.3 10.5 11.95 11.05 12.2 14.75 10.65 21.95 11.1 25.1 11.1 25.25 Q11.45 28.65 10.8 30.8 L13.75 34.1 14.65 30.75 Q15.05 29.5 15.05 27.55 L14.85 25.75 14.65 24.4 14.05 18.95 14.25 16.65 14.6 14.35 15.05 11.6 15.5 9.2 17.2 0.15 17.2 0.05 17.55 -0.6 Q17.9 0.05 17.7 2.4 L17.45 3.7 Q16.4 7.55 16.1 10.1 L15.5 15.35 15.35 16.75 15.25 17.05 15.2 18.6 15.3 19.2 15.8 22.4 16.3 24.7 16.5 25.55 17.7 28.6 19.35 32.4 Q20.25 34.9 20.05 35.85 L20.05 35.9 19.5 38.75 19.45 39.0 19.5 39.6 19.55 39.75 20.35 39.9 Q23.85 39.9 23.85 35.75 L22.05 31.2 Q20.2 26.45 20.2 23.15 L20.95 13.75 Q20.95 11.15 22.85 7.15 23.85 4.9 26.0 0.9 L26.35 0.9 26.5 1.6 Q26.5 2.9 25.3 4.85 23.75 7.45 22.4 15.15 23.8 19.45 25.55 22.8 26.65 24.85 26.65 26.25 L26.25 28.75 25.8 31.25 Q25.8 31.6 26.7 32.95 27.8 34.5 28.55 34.5 29.8 34.5 30.7 33.9 L31.9 32.45 Q33.15 30.1 32.65 25.55 L30.7 22.3 28.25 18.75 Q27.0 17.05 27.0 14.65 27.0 11.95 28.7 6.7 L30.7 3.25 30.75 3.15 33.1 -1.7 32.1 1.45 30.7 5.1 Q29.65 8.05 29.0 10.75 28.35 13.5 28.35 14.65 28.35 16.6 30.65 19.85 L30.7 19.95 33.7 24.25 Q34.5 26.05 34.7 27.45 L34.75 27.85 Q34.85 28.85 35.4 29.35 36.8 28.7 37.8 27.3 38.55 26.1 38.55 25.35 38.55 24.25 36.15 20.45 L35.9 19.95 35.8 19.3 35.6 17.5 Q35.6 16.2 36.55 11.95 37.45 8.05 37.25 7.15 L37.25 4.8 38.0 6.65 38.3 8.65 37.5 12.75 36.7 17.45 Q36.7 19.0 38.45 21.75 40.05 24.3 39.7 26.05 L40.65 26.1 39.85 22.25 Q41.95 15.75 41.95 14.45 L40.65 11.35 Q39.3 8.7 39.3 7.4 L39.45 6.05 40.65 5.45 Q40.95 5.9 40.65 7.25 L42.0 9.8 Q43.3 12.3 43.3 14.45 L42.45 18.0 41.2 22.1 Q41.2 23.45 41.75 25.25 42.45 27.85 43.75 27.85 L44.85 27.75 45.55 27.35 45.6 26.8 45.15 25.0 Q44.65 23.7 44.65 23.2 L46.3 19.0 Q47.9 15.1 47.9 14.1 47.9 10.55 45.7 7.1 L45.3 6.4 44.3 3.35 45.35 3.35 45.7 4.1 Q46.7 6.3 48.05 8.65 49.25 10.65 49.25 14.6 L47.65 18.1 Q46.0 21.7 46.0 23.15 46.0 23.65 46.55 25.05 L47.0 26.95 Q47.0 29.1 44.05 29.1 42.7 29.1 41.15 27.2 40.4 27.25 39.8 27.65 L38.4 28.95 Q37.15 30.2 35.6 30.15 L34.7 29.95 34.05 29.8 Q33.05 31.3 32.5 33.9 32.0 35.0 30.7 35.45 L28.45 35.75 Q27.05 35.75 25.65 33.8 L25.2 33.1 25.25 37.35 Q25.15 38.65 24.0 39.9 22.95 41.05 21.65 41.05 18.35 41.05 18.25 38.8 L18.7 35.65 Q18.7 35.1 17.9 32.85 L16.15 28.4 Q15.8 34.1 15.15 35.2 14.7 36.0 14.7 37.6 14.7 38.5 14.05 39.2 12.95 40.25 10.7 40.25 8.55 40.25 6.75 38.65 5.15 40.25 3.25 40.25 1.25 40.25 0.3 39.2 -0.3 38.5 -0.3 37.6 -0.3 36.0 -0.7 35.2 -1.25 34.1 -1.6 28.4 L-3.15 32.85 -3.85 35.65 -3.45 38.8 Q-3.55 41.05 -6.45 41.05 -7.6 41.05 -8.55 39.9 -9.55 38.65 -9.55 36.8 L-7.9 30.75 Q-6.25 25.25 -6.25 23.15 -6.7 19.15 -6.45 18.3 L-8.75 24.15 -9.7 26.5 -9.35 28.9 -8.95 31.3 Q-8.95 32.15 -10.0 33.8 -11.25 35.75 -12.5 35.75 -15.0 35.75 -15.85 34.3 -15.85 36.15 -16.85 37.4 -17.8 38.55 -18.95 38.55 -21.85 38.55 -21.95 36.3 L-21.55 33.15 Q-21.55 32.6 -22.25 30.35 L-23.25 27.3 -23.75 27.2 -23.9 27.4 Q-24.25 31.75 -24.7 32.7 -25.1 33.5 -25.1 35.1 -25.1 36.0 -25.7 36.7 -26.65 37.75 -28.65 37.75 -30.95 37.75 -32.75 35.45 -34.75 32.9 -34.75 29.1 -34.0 21.85 -34.0 20.85 -34.0 19.1 -34.9 16.4 L-35.6 20.8 Q-36.3 23.5 -38.6 23.5 -42.45 23.5 -42.45 19.25 L-41.1 15.3 Q-39.75 11.5 -39.75 10.55 -39.75 10.0 -41.35 5.45 L-43.0 0.3 -42.15 -4.35 -41.35 -8.6 -41.8 -9.4 -41.8 -11.6 -41.2 -10.3 -40.4 -8.35 -40.65 -5.95 -41.5 -3.25 -41.95 -1.2 -40.3 3.45 Q-38.65 7.9 -38.65 10.5 -38.65 11.85 -40.65 16.65 L-40.95 17.6 -41.25 19.25 Q-41.25 20.6 -40.6 21.4 -39.9 22.25 -38.65 22.25 -37.7 22.25 -37.1 21.05 -36.45 19.8 -36.4 17.75 -35.7 13.2 -35.7 11.0 -35.7 10.15 -36.6 5.6 L-37.55 0.15 -36.8 -3.65 -35.65 -7.7 -35.1 -7.8 -34.8 -7.1 -35.6 -4.0 Q-36.35 -1.25 -36.35 0.1 L-35.7 3.05 Q-34.95 5.85 -34.7 7.6 -34.4 9.4 -34.55 11.6 L-34.7 14.15 -33.8 16.75 Q-32.9 19.45 -32.9 20.85 -32.9 21.85 -33.65 29.05 -33.65 31.8 -32.05 34.1 -30.35 36.5 -28.1 36.5 -26.75 36.5 -26.4 35.75 L-26.3 34.9 Q-26.3 33.7 -27.25 31.95 L-29.5 28.65 Q-30.95 26.1 -30.95 23.95 -30.95 20.45 -29.9 17.75 L-29.75 17.5 -30.9 14.6 -30.9 13.95 Q-30.8 11.0 -30.1 9.25 L-29.85 8.65 -28.25 5.3 -27.75 4.1 -27.0 2.05 Q-27.05 1.5 -27.35 1.5 L-27.4 1.5 Q-27.55 1.5 -27.7 1.65 L-30.15 2.3 Q-31.3 2.3 -32.05 1.75 L-32.8 0.9 -33.0 -0.05 -32.55 -1.05 -32.25 -1.75 Q-31.5 -3.7 -31.5 -6.45 L-31.75 -7.85 -32.0 -8.75 -32.5 -10.9 -31.35 -10.9 M2.7 39.0 Q4.4 39.0 5.8 37.65 3.8 35.2 3.8 31.7 L1.85 34.45 Q0.9 36.2 0.9 37.4 L1.0 38.25 Q1.35 39.0 2.7 39.0 M3.3 21.95 L3.2 21.3 2.85 23.3 Q2.05 25.95 -0.4 26.0 L-0.6 27.55 Q-0.6 29.5 -0.25 30.75 L0.55 34.1 3.15 30.8 Q2.6 28.65 2.9 25.25 L3.3 21.95 M-29.65 25.55 L-29.2 27.05 -29.15 25.45 -28.95 23.5 -29.25 20.9 Q-29.85 23.3 -29.65 25.55 M-28.55 28.3 L-25.95 31.6 -25.25 28.8 -26.3 29.1 Q-27.95 29.1 -28.55 28.25 L-28.55 28.3 M-20.85 36.25 L-20.9 36.5 -20.85 37.1 Q-20.75 37.1 -20.8 37.25 L-20.1 37.4 Q-17.0 37.4 -17.0 33.25 L-18.15 30.0 -18.75 30.15 -18.8 30.15 Q-19.7 30.2 -20.45 29.7 -20.1 31.9 -20.35 33.35 L-20.35 33.4 -20.85 36.25" fill="#4d4d4d" fill-rule="evenodd" stroke="none"/>
  </g>
</svg>
