<?xml version="1.0" encoding="UTF-8" standalone="no"?>
<svg xmlns:ffdec="https://www.free-decompiler.com/flash" xmlns:xlink="http://www.w3.org/1999/xlink" ffdec:objectType="shape" height="40.9px" width="34.2px" xmlns="http://www.w3.org/2000/svg">
  <g transform="matrix(1.0, 0.0, 0.0, 1.0, 10.5, 9.4)">
    <path d="M0.55 29.95 L0.55 29.9 Q-1.35 28.3 -1.35 27.55 L-1.35 27.5 -1.65 26.35 -1.55 25.4 -1.5 25.25 -1.4 25.1 Q-0.5 23.6 1.9 21.5 L2.4 21.05 Q3.7 19.95 4.95 19.1 7.3 17.45 9.6 16.65 10.9 16.15 12.4 15.95 L13.7 15.75 14.8 15.65 17.25 15.6 18.95 15.7 19.6 15.8 21.45 16.15 Q22.25 18.15 22.25 18.85 22.25 20.35 20.75 22.3 20.55 22.35 20.1 23.15 L19.65 23.6 19.65 23.5 19.3 22.65 19.55 22.55 Q20.8 20.9 20.75 19.65 L20.4 18.55 Q19.9 17.95 18.85 17.7 L16.6 17.45 16.5 17.45 16.35 17.45 16.25 17.45 16.15 17.45 14.35 17.6 13.7 17.7 12.7 17.85 11.7 18.1 11.55 18.15 Q8.25 19.05 5.1 21.25 0.0 24.55 -0.2 26.9 -0.3 27.7 0.35 28.45 0.75 28.95 4.15 29.65 L2.4 30.05 0.75 30.0 0.7 30.0 0.55 29.95" fill="#8a8a8a" fill-rule="evenodd" stroke="none"/>
    <path d="M-0.3 16.95 L1.45 15.4 2.95 14.25 6.15 12.5 9.3 11.4 10.8 11.05 11.4 10.95 14.6 10.4 14.75 10.35 17.0 11.25 15.45 11.35 13.35 11.55 12.0 11.75 11.6 11.8 9.9 12.3 8.65 12.7 Q6.45 13.4 4.9 14.45 4.2 14.85 3.45 15.45 L1.25 17.1 0.15 18.05 -1.85 20.2 -2.1 20.55 -2.15 20.65 -2.95 22.05 -3.6 23.5 -3.75 21.3 -3.55 20.15 -3.5 19.95 -2.4 18.85 -0.3 16.95 M-3.0 25.6 L-2.35 24.05 -2.15 23.65 Q-1.4 22.25 1.05 20.1 L1.8 19.45 4.35 17.65 Q6.45 16.35 9.0 15.65 L11.7 14.95 13.7 14.55 14.2 14.5 15.75 14.3 18.1 14.3 Q19.6 14.4 20.65 14.85 L21.0 15.05 21.15 15.4 21.45 16.15 19.6 15.8 18.95 15.7 17.25 15.6 14.8 15.65 13.7 15.75 12.4 15.95 Q10.9 16.15 9.6 16.65 7.3 17.45 4.95 19.1 3.7 19.95 2.4 21.05 L1.9 21.5 Q-0.5 23.6 -1.4 25.1 L-1.5 25.25 -1.55 25.4 -1.65 26.35 -1.35 27.5 -1.35 27.55 Q-1.35 28.3 0.55 29.9 L0.55 29.95 0.45 29.9 0.7 30.05 0.15 29.85 -1.25 28.9 Q-2.35 28.1 -2.55 27.2 L-3.0 25.6 M16.6 18.65 Q19.4 19.05 19.6 19.5 20.15 21.75 18.7 22.25 L16.6 18.65 M5.0 28.9 Q2.15 28.5 1.7 27.75 1.2 26.95 1.25 26.5 1.7 25.2 2.5 24.65 L5.0 28.9" fill="#616161" fill-rule="evenodd" stroke="none"/>
    <path d="M11.4 10.95 L7.9 6.3 2.8 -0.8 2.45 -1.3 2.5 -1.3 Q-1.6 -7.35 -4.25 -7.35 -5.85 -7.35 -6.55 -5.9 -7.05 -4.9 -7.05 -3.5 -7.05 -1.5 -5.7 2.35 -4.5 6.5 -2.05 12.65 L-1.65 13.65 -0.65 16.1 -0.3 16.95 -2.4 18.85 -3.5 19.95 -3.65 19.75 -3.85 19.2 -5.2 14.75 -7.45 7.35 -8.85 2.65 Q-9.75 -0.05 -9.5 -2.95 -9.3 -5.85 -8.5 -6.95 L-7.7 -7.75 Q-7.0 -8.6 -5.9 -8.85 L-4.95 -9.15 Q-2.7 -9.65 0.1 -7.25 2.9 -4.9 3.85 -3.4 L4.6 -2.3 5.1 -1.7 6.15 -0.4 10.25 4.85 11.7 6.75 14.6 10.4 11.4 10.95" fill="#b4b4b4" fill-rule="evenodd" stroke="none"/>
    <path d="M-0.3 16.95 L-0.65 16.1 -1.65 13.65 -2.05 12.65 Q-4.5 6.5 -5.7 2.35 -7.05 -1.5 -7.05 -3.5 -7.05 -4.9 -6.55 -5.9 -5.85 -7.35 -4.25 -7.35 -1.6 -7.35 2.5 -1.3 L2.45 -1.3 2.8 -0.8 7.9 6.3 11.4 10.95 10.8 11.05 9.3 11.4 7.5 8.6 6.6 7.15 1.2 -0.65 Q-1.8 -4.85 -4.25 -6.1 L-5.65 -5.6 -5.8 -4.85 -5.95 -3.8 Q-5.95 -1.6 -4.05 1.7 L-4.0 1.65 Q-0.9 6.2 0.55 8.9 L1.15 10.1 1.35 10.5 2.7 13.7 2.95 14.25 1.45 15.4 -0.3 16.95 M21.0 15.05 L20.65 14.85 Q19.6 14.4 18.1 14.3 L15.75 14.3 14.2 14.5 13.7 14.55 11.7 14.95 9.0 15.65 Q6.45 16.35 4.35 17.65 L1.8 19.45 1.05 20.1 Q-1.4 22.25 -2.15 23.65 L-2.35 24.05 -3.0 25.6 -3.15 25.2 -3.65 24.0 -3.35 22.95 -3.6 23.5 -2.95 22.05 -2.15 20.65 -2.1 20.55 -1.85 20.2 0.15 18.05 1.25 17.1 3.45 15.45 Q4.2 14.85 4.9 14.45 6.45 13.4 8.65 12.7 L9.9 12.3 11.6 11.8 12.0 11.75 13.35 11.55 15.45 11.35 17.0 11.25 17.35 11.35 17.75 11.5 Q18.5 11.9 19.5 13.15 L21.0 15.05" fill="#e0e0e0" fill-rule="evenodd" stroke="none"/>
    <path d="M2.95 14.25 L2.7 13.7 1.35 10.5 1.15 10.1 0.55 8.9 Q-0.9 6.2 -4.0 1.65 L-4.05 1.7 Q-5.95 -1.6 -5.95 -3.8 L-5.8 -4.85 -5.65 -5.6 -4.25 -6.1 Q-1.8 -4.85 1.2 -0.65 L6.6 7.15 7.5 8.6 9.3 11.4 6.15 12.5 2.95 14.25" fill="#ffffff" fill-rule="evenodd" stroke="none"/>
    <path d="M14.6 10.4 L11.7 6.75 10.25 4.85 6.15 -0.4 5.1 -1.7 4.6 -2.3 3.85 -3.4 Q2.9 -4.9 0.1 -7.25 -2.7 -9.65 -4.95 -9.15 -2.3 -9.9 0.65 -8.2 L0.6 -8.2 Q3.35 -6.55 5.55 -3.35 7.75 -0.2 9.8 2.1 L12.1 4.8 16.55 10.1 17.85 10.35 19.4 11.7 Q19.7 11.7 21.7 14.85 23.7 17.95 23.65 18.95 L23.7 19.05 Q23.75 20.5 22.6 21.9 L21.5 23.55 20.25 24.9 19.8 24.2 19.75 24.1 19.6 23.85 19.5 23.75 19.55 23.7 18.7 22.25 Q20.15 21.75 19.6 19.5 19.4 19.05 16.6 18.65 L13.7 18.9 12.75 19.1 Q6.9 20.25 2.5 24.65 1.7 25.2 1.25 26.5 1.2 26.95 1.7 27.75 2.15 28.5 5.0 28.9 L6.2 31.0 6.05 31.05 5.9 31.05 2.75 31.5 2.15 31.5 1.95 31.45 1.55 31.35 Q0.45 31.3 -0.75 30.5 L-1.85 29.6 -2.25 29.15 -3.05 28.4 Q-3.45 28.0 -4.1 25.5 L-4.6 23.4 -4.45 21.85 -9.1 4.7 -9.3 4.15 -9.45 3.75 Q-11.1 -0.2 -10.1 -3.8 -9.55 -5.7 -8.5 -6.95 -9.3 -5.85 -9.5 -2.95 -9.75 -0.05 -8.85 2.65 L-7.45 7.35 -5.2 14.75 -3.85 19.2 -3.65 19.75 -3.5 19.95 -3.55 20.15 -3.75 21.3 -3.6 23.5 -3.35 22.95 -3.65 24.0 -3.15 25.2 -3.0 25.6 -2.55 27.2 Q-2.35 28.1 -1.25 28.9 L0.15 29.85 0.7 30.05 0.45 29.9 0.55 29.95 0.7 30.0 0.75 30.0 2.4 30.05 4.15 29.65 Q0.75 28.95 0.35 28.45 -0.3 27.7 -0.2 26.9 0.0 24.55 5.1 21.25 8.25 19.05 11.55 18.15 L11.7 18.1 12.7 17.85 13.7 17.7 14.35 17.6 16.15 17.45 16.25 17.45 16.35 17.45 16.5 17.45 16.6 17.45 18.85 17.7 Q19.9 17.95 20.4 18.55 L20.75 19.65 Q20.8 20.9 19.55 22.55 L19.3 22.65 19.65 23.5 19.65 23.6 20.1 23.15 Q20.55 22.35 20.75 22.3 22.25 20.35 22.25 18.85 22.25 18.15 21.45 16.15 L21.15 15.4 21.0 15.05 19.5 13.15 Q18.5 11.9 17.75 11.5 L17.35 11.35 17.0 11.25 14.75 10.35 14.6 10.4" fill="#464646" fill-rule="evenodd" stroke="none"/>
    <path d="M1.5 11.45 L1.25 12.25 Q0.9 12.75 0.25 12.75 -0.5 12.75 -0.8 12.05 L-1.0 11.45 Q-1.0 10.2 0.25 10.2 1.5 10.2 1.5 11.45 M10.0 7.45 L9.75 8.25 Q9.4 8.75 8.75 8.75 7.9 8.75 7.6 8.05 L7.5 7.45 Q7.5 6.2 8.75 6.2 10.0 6.2 10.0 7.45" fill="#b4b4b4" fill-rule="evenodd" stroke="none"/>
    <path d="M-2.25 -1.25 L-2.5 -0.5 Q-2.85 0.0 -3.5 0.0 -4.25 0.0 -4.6 -0.7 L-4.75 -1.25 Q-4.75 -2.5 -3.5 -2.5 -2.25 -2.5 -2.25 -1.25 M4.5 5.2 L4.25 6.0 Q3.9 6.5 3.25 6.5 2.4 6.5 2.1 5.8 L2.0 5.2 Q2.0 3.95 3.25 3.95 4.5 3.95 4.5 5.2" fill="#e0e0e0" fill-rule="evenodd" stroke="none"/>
    <path d="M-4.25 5.95 L-4.5 6.75 Q-4.85 7.25 -5.5 7.25 -6.25 7.25 -6.6 6.55 L-6.75 5.95 Q-6.75 4.7 -5.5 4.7 -4.25 4.7 -4.25 5.95" fill="#8a8a8a" fill-rule="evenodd" stroke="none"/>
  </g>
</svg>
