<?xml version="1.0" encoding="UTF-8" standalone="no"?>
<svg xmlns:ffdec="https://www.free-decompiler.com/flash" xmlns:xlink="http://www.w3.org/1999/xlink" ffdec:objectType="shape" height="81.35px" width="22.25px" xmlns="http://www.w3.org/2000/svg">
  <g transform="matrix(1.0, 0.0, 0.0, 1.0, 14.15, 95.35)">
    <path d="M-13.9 -85.5 L-14.05 -85.8 -14.1 -86.0 Q-14.3 -87.15 -13.55 -87.95 L-13.9 -85.5" fill="#b8b8b8" fill-rule="evenodd" stroke="none"/>
    <path d="M-4.75 -30.05 L-4.75 -30.15 -4.9 -30.9 Q-4.95 -31.75 -4.65 -32.35 L-3.0 -31.2 Q-3.7 -30.4 -4.75 -30.05 M6.4 -17.45 L5.9 -16.8 5.95 -17.15 Q6.0 -17.45 6.4 -17.45 M4.55 -15.65 Q3.9 -14.8 2.85 -14.7 L2.65 -14.6 Q1.75 -14.6 0.85 -15.4 L1.3 -15.4 4.55 -15.65 M-10.1 -87.6 L-10.3 -86.95 -10.15 -86.9 -10.5 -84.3 -12.05 -84.45 Q-13.5 -84.7 -13.9 -85.5 L-13.55 -87.95 -13.35 -88.2 Q-13.45 -88.9 -13.2 -89.45 L-13.0 -89.85 -12.4 -90.6 -9.8 -90.8 -10.1 -87.6 M-11.35 -78.85 L-11.4 -79.7 -11.0 -80.85 -11.35 -78.85 M-13.15 -55.85 L-13.05 -56.4 -12.8 -56.85 -12.2 -57.55 -9.05 -57.6 -8.15 -57.15 -8.4 -56.9 Q-9.05 -56.4 -11.1 -56.15 L-13.15 -55.85 M-3.0 -15.5 Q-3.35 -14.75 -3.75 -14.35 -4.35 -13.95 -5.0 -14.0 -5.85 -14.15 -6.4 -14.65 L-6.9 -15.25 Q-8.35 -15.55 -8.95 -16.8 -9.25 -17.2 -9.1 -17.8 L-9.05 -18.1 -9.0 -18.15 Q-7.4 -17.75 -7.8 -16.5 -7.2 -15.75 -3.0 -15.5" fill="#c4c4c4" fill-rule="evenodd" stroke="none"/>
    <path d="M2.2 -91.1 L4.15 -91.0 4.25 -90.85 4.8 -90.1 5.05 -88.7 5.1 -88.65 5.8 -87.5 5.8 -86.3 Q5.65 -85.55 5.0 -85.0 4.9 -87.35 3.45 -87.5 L2.05 -87.35 1.85 -87.85 0.75 -87.45 0.5 -87.5 2.2 -91.1 M3.4 -82.05 L4.35 -80.65 4.2 -79.65 4.1 -79.4 Q3.55 -78.4 2.55 -78.2 1.95 -76.75 0.55 -76.6 L0.35 -76.5 -0.55 -76.7 Q1.3 -78.85 3.4 -82.05 M-1.35 -55.0 L-1.1 -55.4 1.4 -57.6 1.9 -57.9 4.35 -57.95 4.45 -57.8 5.0 -57.1 5.05 -57.0 -1.35 -55.0 M-4.65 -32.35 L-4.4 -32.8 -3.75 -33.2 -1.5 -33.1 Q-0.1 -33.55 1.05 -32.75 L1.3 -32.5 Q1.85 -31.95 1.9 -30.85 0.7 -30.25 -1.3 -28.85 L-1.25 -29.75 -1.9 -29.8 -1.95 -28.35 -2.15 -28.25 -3.65 -27.1 -3.75 -27.25 -4.4 -28.85 -4.75 -30.05 Q-3.7 -30.4 -3.0 -31.2 L-4.65 -32.35 M5.85 -22.4 L5.65 -22.35 2.3 -22.2 2.2 -22.55 1.75 -24.25 2.85 -24.65 5.85 -22.4 M2.2 -25.2 L1.55 -25.0 1.5 -25.2 1.6 -25.75 2.2 -25.2 M2.35 -22.0 L4.4 -21.05 5.25 -20.5 5.65 -20.2 Q6.4 -19.55 6.65 -18.75 L6.5 -17.75 6.4 -17.5 6.4 -17.45 Q6.0 -17.45 5.95 -17.15 L5.9 -16.8 Q5.45 -16.4 4.85 -16.3 L4.55 -15.65 1.3 -15.4 0.85 -15.4 0.1 -16.2 -0.4 -16.9 -1.0 -18.25 -1.3 -19.25 -1.25 -19.25 1.45 -19.4 2.35 -18.4 2.85 -18.9 2.2 -19.6 2.3 -19.65 Q2.5 -19.75 2.5 -20.7 L2.35 -22.0 M-6.5 -90.2 L-6.7 -90.8 -7.05 -92.1 -7.15 -92.85 Q-7.25 -94.1 -6.7 -94.75 -6.45 -95.05 -6.05 -95.15 L-4.15 -95.2 Q-5.5 -93.2 -6.5 -90.2 M-9.8 -90.8 L-9.25 -90.65 -6.85 -89.1 -7.05 -88.45 -7.45 -86.8 -10.1 -87.6 -9.8 -90.8 M-10.15 -86.9 L-7.6 -86.05 -7.9 -84.55 -8.15 -84.5 -8.4 -84.5 -10.5 -84.3 -10.15 -86.9 M-11.0 -80.85 L-11.0 -80.9 -10.45 -81.75 -9.1 -83.2 -8.0 -83.9 Q-8.55 -80.35 -8.6 -76.45 L-8.7 -76.55 -9.2 -77.15 Q-10.65 -77.45 -11.25 -78.7 L-11.35 -78.85 -11.0 -80.85 M-0.25 -60.15 L-0.3 -58.85 -0.3 -58.7 -0.45 -57.5 Q-0.85 -56.0 -1.65 -55.1 L-1.9 -54.85 -3.6 -54.35 -3.4 -58.7 -4.05 -58.7 -4.25 -54.15 -4.5 -54.1 -4.65 -54.05 -5.25 -55.0 -5.85 -56.15 -6.55 -57.8 -6.9 -59.05 -7.0 -59.8 -7.0 -60.2 -4.65 -60.0 -0.25 -60.15 M-8.15 -57.15 Q-6.75 -56.4 -6.0 -55.3 L-5.9 -55.05 -5.2 -53.85 -6.3 -53.45 -9.9 -54.6 -10.15 -53.9 -7.35 -53.0 Q-9.5 -52.15 -10.65 -51.25 L-11.85 -51.4 Q-13.6 -51.7 -13.9 -52.75 L-13.95 -53.0 Q-14.15 -54.3 -13.2 -55.15 L-13.15 -55.85 -11.1 -56.15 Q-9.05 -56.4 -8.4 -56.9 L-8.15 -57.15 M-9.15 -22.45 L-9.05 -23.4 Q-9.05 -25.1 -10.25 -26.3 L-11.05 -26.95 -10.9 -27.45 -10.7 -27.9 -10.1 -28.65 -6.95 -28.7 Q-5.1 -27.9 -4.15 -26.75 L-6.15 -25.2 -7.8 -25.7 -8.0 -25.05 -6.2 -24.45 -5.95 -22.6 -6.15 -22.6 -9.15 -22.45 M-2.1 -19.3 L-2.15 -18.3 -2.45 -17.0 -2.95 -15.6 -3.0 -15.5 Q-7.2 -15.75 -7.8 -16.5 -7.4 -17.75 -9.0 -18.15 L-9.05 -18.1 -8.7 -19.0 -8.15 -19.85 -6.8 -21.3 -5.75 -21.95 Q-5.3 -20.75 -4.35 -20.1 L-5.55 -18.3 -4.9 -17.85 -3.65 -19.7 -2.1 -19.3" fill="#eaeaea" fill-rule="evenodd" stroke="none"/>
    <path d="M5.0 -85.0 L4.1 -84.5 3.35 -84.25 0.05 -84.1 -0.5 -84.2 Q-1.55 -84.6 -2.2 -84.95 L-2.85 -85.3 2.1 -87.15 2.05 -87.35 3.45 -87.5 Q4.9 -87.35 5.0 -85.0 M0.75 -87.45 L-3.15 -86.05 -2.65 -86.6 -1.65 -87.9 -1.25 -88.45 Q-0.2 -89.7 1.25 -90.65 L1.7 -90.9 2.2 -91.1 0.5 -87.5 0.75 -87.45 M-0.55 -76.7 L-2.2 -78.15 -2.7 -78.8 -3.3 -80.15 -3.7 -81.55 -3.7 -81.65 -3.7 -82.75 -3.6 -84.05 -3.55 -84.25 0.05 -80.3 0.55 -80.8 -3.05 -84.75 -2.2 -84.5 -0.45 -84.0 -0.05 -83.95 Q1.15 -83.6 2.15 -82.95 L2.95 -82.4 3.35 -82.1 3.4 -82.05 Q1.3 -78.85 -0.55 -76.7 M5.05 -57.0 L5.25 -55.65 5.3 -55.6 5.95 -54.5 5.95 -53.3 Q5.7 -52.1 4.3 -51.45 L3.5 -51.25 0.2 -51.05 -0.35 -51.15 Q-1.4 -51.55 -2.0 -51.9 L-2.7 -52.3 2.25 -54.1 2.05 -54.8 -2.95 -53.0 -2.5 -53.6 -1.45 -54.9 -1.35 -55.0 5.05 -57.0 M-3.4 -51.0 L-3.4 -51.2 0.2 -47.3 0.75 -47.75 -2.9 -51.7 -2.05 -51.45 -0.25 -50.95 0.15 -50.9 Q1.35 -50.55 2.3 -49.9 L3.1 -49.35 3.5 -49.1 4.55 -47.65 4.4 -46.65 4.3 -46.35 Q3.75 -45.35 2.7 -45.15 2.1 -43.75 0.75 -43.55 L0.55 -43.45 Q-0.7 -43.45 -2.05 -45.1 L-2.5 -45.75 -3.15 -47.1 -3.55 -48.5 -3.55 -48.6 -3.5 -49.7 -3.4 -51.0 M1.9 -30.85 L1.85 -29.9 1.85 -29.75 1.7 -28.6 Q1.25 -27.1 0.45 -26.25 L0.25 -26.0 -1.15 -24.75 -1.5 -24.5 -1.3 -28.85 Q0.7 -30.25 1.9 -30.85 M-1.95 -28.35 L-2.15 -24.55 -2.3 -24.8 -3.1 -26.15 -3.65 -27.1 -2.15 -28.25 -1.95 -28.35 M1.55 -25.0 L-0.85 -24.15 -0.35 -24.7 0.65 -26.0 1.05 -26.55 3.55 -28.7 4.0 -28.95 6.45 -29.05 6.55 -28.9 7.1 -28.15 Q7.45 -27.5 7.35 -26.75 L7.4 -26.7 8.1 -25.6 8.1 -24.4 Q7.85 -23.2 6.4 -22.6 L5.85 -22.4 2.85 -24.65 4.35 -25.25 4.15 -25.95 2.2 -25.2 1.6 -25.75 1.5 -25.2 1.55 -25.0 M2.3 -22.2 L1.8 -22.3 Q0.75 -22.7 0.1 -23.05 L-0.55 -23.4 1.75 -24.25 2.2 -22.55 2.3 -22.2 M-1.3 -19.25 L-1.4 -19.65 -1.4 -19.75 -1.4 -20.85 -1.3 -22.15 -1.3 -22.35 1.45 -19.4 -1.25 -19.25 -1.3 -19.25 M2.2 -19.6 L-0.75 -22.85 0.1 -22.6 1.85 -22.1 2.25 -22.05 2.35 -22.0 2.5 -20.7 Q2.5 -19.75 2.3 -19.65 L2.2 -19.6 M-4.15 -95.2 L-3.8 -95.05 Q-2.4 -95.5 -1.25 -94.7 L-1.0 -94.45 Q-0.2 -93.65 -0.45 -91.85 L-0.45 -91.7 -0.6 -90.55 Q-1.05 -89.05 -1.85 -88.15 L-2.05 -87.9 -3.45 -86.65 -3.8 -86.4 -3.55 -91.7 -4.2 -91.75 -4.45 -86.45 -4.6 -86.7 -5.4 -88.05 -6.05 -89.2 -6.5 -90.2 Q-5.5 -93.2 -4.15 -95.2 M-6.85 -89.1 L-6.2 -88.35 -6.05 -88.1 -5.3 -86.75 -5.05 -86.05 -7.45 -86.8 -7.05 -88.45 -6.85 -89.1 M-7.6 -86.05 L-5.35 -85.35 -7.9 -84.55 -7.6 -86.05 M-8.0 -83.9 L-7.5 -84.1 -6.85 -84.25 -4.9 -84.6 -7.85 -80.2 -7.2 -79.75 -4.35 -84.1 -4.3 -84.2 -4.3 -84.1 -4.3 -82.8 -4.35 -81.65 -4.35 -81.2 -4.45 -80.2 -4.75 -78.9 -5.25 -77.5 Q-5.6 -76.7 -6.05 -76.25 -6.65 -75.85 -7.3 -75.9 -8.05 -76.05 -8.6 -76.45 -8.55 -80.35 -8.0 -83.9 M-7.0 -60.2 Q-7.0 -61.15 -6.5 -61.7 L-5.9 -62.1 -3.65 -62.0 Q-2.2 -62.5 -1.1 -61.7 L-0.8 -61.4 Q-0.35 -60.95 -0.25 -60.15 L-4.65 -60.0 -7.0 -60.2 M-1.9 -54.85 L-3.3 -53.6 -3.65 -53.4 -3.6 -54.35 -1.9 -54.85 M-4.25 -54.15 L-4.3 -53.4 -4.45 -53.7 -4.65 -54.05 -4.5 -54.1 -4.25 -54.15 M-5.2 -53.85 L-5.15 -53.7 -4.85 -53.0 -6.3 -53.45 -5.2 -53.85 M-7.35 -53.0 L-5.15 -52.3 -8.0 -51.5 -8.25 -51.45 -10.65 -51.25 Q-9.5 -52.15 -7.35 -53.0 M-8.9 -50.2 Q-8.2 -50.8 -7.3 -51.05 L-6.65 -51.25 -4.75 -51.6 -7.65 -47.15 -7.0 -46.75 -4.15 -51.05 -4.1 -51.15 -4.1 -51.05 -4.1 -49.75 -4.2 -48.6 -4.2 -48.15 -4.3 -47.15 -4.55 -45.85 -5.1 -44.5 Q-5.4 -43.65 -5.9 -43.2 -6.45 -42.8 -7.1 -42.9 -7.95 -43.0 -8.55 -43.5 L-9.0 -44.1 Q-10.5 -44.4 -11.1 -45.65 -11.35 -46.1 -11.25 -46.7 L-10.85 -47.85 -10.3 -48.7 -8.9 -50.2 M-11.05 -26.95 L-10.25 -26.3 Q-9.05 -25.1 -9.05 -23.4 L-9.15 -22.45 -9.75 -22.55 Q-11.5 -22.85 -11.8 -23.9 L-11.8 -24.1 Q-12.0 -25.4 -11.05 -26.3 L-11.05 -26.95 M-5.95 -22.6 L-6.2 -24.45 -3.05 -23.45 -5.9 -22.6 -5.95 -22.6 M-6.15 -25.2 L-4.15 -26.75 -3.9 -26.45 -3.75 -26.2 -3.0 -24.85 -2.75 -24.15 -6.15 -25.2 M-3.65 -19.7 L-2.05 -22.2 -2.0 -22.3 -2.0 -22.2 -2.0 -20.9 -2.05 -19.75 -2.1 -19.3 -3.65 -19.7 M-5.75 -21.95 L-5.2 -22.2 -4.55 -22.35 -2.6 -22.7 -4.35 -20.1 Q-5.3 -20.75 -5.75 -21.95" fill="#fcfcfc" fill-rule="evenodd" stroke="none"/>
  </g>
</svg>
