<?xml version="1.0" encoding="UTF-8" standalone="no"?>
<svg xmlns:ffdec="https://www.free-decompiler.com/flash" xmlns:xlink="http://www.w3.org/1999/xlink" ffdec:objectType="shape" height="48.95px" width="27.45px" xmlns="http://www.w3.org/2000/svg">
  <g transform="matrix(1.0, 0.0, 0.0, 1.0, 21.8, 111.8)">
    <path d="M2.9 -68.55 L1.15 -66.5 Q-0.25 -65.35 -2.45 -65.35 -5.35 -65.35 -6.75 -66.9 -7.85 -68.1 -7.85 -69.9 -7.85 -71.75 -6.65 -73.15 -4.75 -75.45 -0.45 -75.4 -1.7 -74.45 -1.7 -73.15 -1.7 -72.4 -1.35 -72.1 -1.05 -71.75 -0.3 -71.7 1.15 -71.45 1.65 -72.75 L1.95 -74.45 Q2.45 -73.75 2.95 -71.85 3.45 -69.75 3.1 -68.95 -1.85 -68.25 -3.25 -66.05 -0.1 -67.6 2.9 -68.55" fill="#af8039" fill-rule="evenodd" stroke="none"/>
    <path d="M-15.1 -67.4 L-15.3 -67.05 -16.45 -64.9 -17.0 -63.65 -17.6 -64.3 Q-17.5 -65.75 -16.7 -67.0 L-14.7 -69.45 -14.7 -69.5 -14.6 -70.8 -14.6 -70.9 -16.2 -71.9 Q-18.05 -72.7 -20.25 -75.05 L-20.0 -76.15 Q-19.4 -75.2 -17.6 -73.7 -15.6 -72.0 -13.95 -71.35 -14.0 -69.4 -15.1 -67.4 M2.9 -68.55 L4.3 -68.35 Q3.05 -66.75 0.75 -65.55 -2.2 -64.05 -5.55 -64.05 -8.45 -64.05 -10.4 -64.9 -13.2 -66.15 -13.2 -68.95 -13.2 -71.5 -9.95 -74.25 -6.55 -77.15 -3.0 -77.15 0.85 -77.15 3.1 -75.45 5.25 -73.85 5.25 -71.3 L5.1 -70.1 4.9 -69.65 Q4.7 -69.15 3.85 -69.0 L3.1 -68.95 Q3.45 -69.75 2.95 -71.85 2.45 -73.75 1.95 -74.45 0.65 -75.3 -0.45 -75.4 -4.75 -75.45 -6.65 -73.15 -7.85 -71.75 -7.85 -69.9 -7.85 -68.1 -6.75 -66.9 -5.35 -65.35 -2.45 -65.35 -0.25 -65.35 1.15 -66.5 L2.9 -68.55 M-8.0 -74.5 L-8.55 -74.25 -8.8 -73.75 -8.55 -73.2 Q-8.35 -73.0 -8.0 -73.0 L-7.4 -73.2 -7.2 -73.75 -7.4 -74.25 -8.0 -74.5 M-8.25 -71.85 L-7.9 -71.95 -7.8 -72.2 -7.9 -72.45 -8.25 -72.55 -8.55 -72.45 -8.7 -72.2 -8.55 -71.95 -8.25 -71.85 M-9.7 -73.0 L-10.1 -73.15 -10.5 -73.0 -10.65 -72.75 -10.5 -72.45 -10.1 -72.35 -9.7 -72.45 -9.55 -72.75 -9.7 -73.0" fill="#a17739" fill-rule="evenodd" stroke="none"/>
    <path d="M-21.4 -66.6 L-21.45 -66.6 -21.35 -66.6 Q-20.15 -67.2 -19.45 -68.2 -18.85 -69.0 -18.95 -69.65 L-19.8 -69.8 -19.4 -71.55 Q-19.25 -72.6 -20.55 -73.85 L-20.45 -74.25 -17.05 -71.2 -14.6 -70.8 -14.7 -69.5 -18.1 -65.9 -19.65 -63.55 -18.6 -65.0 -14.7 -69.45 -16.7 -67.0 Q-17.5 -65.75 -17.6 -64.3 L-18.8 -63.75 -19.65 -63.55 -20.6 -63.4 Q-20.0 -63.55 -18.9 -65.75 -19.0 -66.65 -20.3 -66.65 L-21.4 -66.6 M-20.35 -74.55 L-20.25 -75.05 Q-18.05 -72.7 -16.2 -71.9 L-14.6 -70.9 -16.3 -71.15 Q-18.0 -71.8 -20.35 -74.55 M1.05 -74.35 L0.2 -74.7 Q-0.3 -74.7 -0.6 -74.35 -0.95 -74.0 -0.95 -73.5 -0.95 -73.0 -0.6 -72.65 -0.3 -72.3 0.2 -72.3 0.7 -72.3 1.05 -72.65 L1.35 -73.5 1.05 -74.35 M-0.45 -75.4 Q0.65 -75.3 1.95 -74.45 L1.65 -72.75 Q1.15 -71.45 -0.3 -71.7 -1.05 -71.75 -1.35 -72.1 -1.7 -72.4 -1.7 -73.15 -1.7 -74.45 -0.45 -75.4 M-14.8 -69.85 L-15.1 -69.95 -20.0 -67.15 Q-18.7 -67.25 -17.45 -68.15 L-14.8 -69.85 M-18.85 -70.95 L-18.7 -70.55 -17.1 -70.25 -15.35 -70.25 Q-17.65 -70.1 -18.85 -70.95" fill="#d9bd93" fill-rule="evenodd" stroke="none"/>
    <path d="M3.85 -75.65 L4.9 -75.2 Q5.55 -74.75 5.05 -74.15 L3.85 -75.65 M1.05 -74.35 L1.35 -73.5 1.05 -72.65 Q0.7 -72.3 0.2 -72.3 -0.3 -72.3 -0.6 -72.65 -0.95 -73.0 -0.95 -73.5 -0.95 -74.0 -0.6 -74.35 -0.3 -74.7 0.2 -74.7 L1.05 -74.35" fill="#000000" fill-rule="evenodd" stroke="none"/>
    <path d="M5.05 -74.15 Q5.65 -72.7 5.65 -71.7 5.65 -68.45 2.7 -65.9 -0.75 -63.0 -6.4 -63.0 -9.0 -63.0 -11.1 -64.3 -12.6 -65.3 -14.75 -67.75 L-15.1 -67.4 Q-14.0 -69.4 -13.95 -71.35 -15.6 -72.0 -17.6 -73.7 -19.4 -75.2 -20.0 -76.15 L-20.0 -76.4 Q-18.2 -75.2 -17.7 -74.2 -17.3 -73.4 -15.35 -72.45 L-14.8 -72.1 -13.9 -71.95 Q-13.35 -71.95 -11.65 -73.55 L-8.85 -75.95 Q-7.6 -76.65 -5.65 -77.2 L-3.05 -77.75 Q1.9 -76.9 3.85 -75.65 L5.05 -74.15 M-16.45 -64.9 L-16.6 -63.7 -17.0 -63.65 -16.45 -64.9 M3.1 -68.95 L3.85 -69.0 Q4.7 -69.15 4.9 -69.65 L5.1 -70.1 5.25 -71.3 Q5.25 -73.85 3.1 -75.45 0.85 -77.15 -3.0 -77.15 -6.55 -77.15 -9.95 -74.25 -13.2 -71.5 -13.2 -68.95 -13.2 -66.15 -10.4 -64.9 -8.45 -64.05 -5.55 -64.05 -2.2 -64.05 0.75 -65.55 3.05 -66.75 4.3 -68.35 L2.9 -68.55 Q-0.1 -67.6 -3.25 -66.05 -1.85 -68.25 3.1 -68.95" fill="#2f1c00" fill-rule="evenodd" stroke="none"/>
    <path d="M-16.6 -63.7 L-16.6 -63.5 -16.45 -63.35 Q-16.4 -63.2 -17.0 -63.2 -17.3 -63.2 -17.9 -63.7 -18.55 -64.0 -19.45 -62.85 L-20.1 -62.85 Q-20.8 -62.95 -20.8 -63.6 L-20.0 -64.3 Q-19.2 -65.05 -19.2 -66.3 L-21.8 -66.15 -21.4 -66.6 -20.3 -66.65 Q-19.0 -66.65 -18.9 -65.75 -20.0 -63.55 -20.6 -63.4 L-19.65 -63.55 -18.8 -63.75 -17.6 -64.3 -17.0 -63.65 -16.6 -63.7 M-21.35 -66.6 L-20.75 -67.05 Q-19.7 -67.7 -19.25 -69.45 L-20.7 -69.95 -20.3 -70.5 Q-19.9 -71.15 -19.9 -71.75 -19.9 -72.3 -20.25 -72.95 L-20.55 -73.85 Q-19.25 -72.6 -19.4 -71.55 L-19.8 -69.8 -18.95 -69.65 Q-18.85 -69.0 -19.45 -68.2 -20.15 -67.2 -21.35 -66.6 M-8.0 -74.5 L-7.4 -74.25 -7.2 -73.75 -7.4 -73.2 -8.0 -73.0 Q-8.35 -73.0 -8.55 -73.2 L-8.8 -73.75 -8.55 -74.25 -8.0 -74.5 M-9.7 -73.0 L-9.55 -72.75 -9.7 -72.45 -10.1 -72.35 -10.5 -72.45 -10.65 -72.75 -10.5 -73.0 -10.1 -73.15 -9.7 -73.0 M-8.25 -71.85 L-8.55 -71.95 -8.7 -72.2 -8.55 -72.45 -8.25 -72.55 -7.9 -72.45 -7.8 -72.2 -7.9 -71.95 -8.25 -71.85" fill="#643c00" fill-rule="evenodd" stroke="none"/>
    <path d="M-20.45 -74.25 L-20.35 -74.55 Q-18.0 -71.8 -16.3 -71.15 L-14.6 -70.9 -14.6 -70.8 -17.05 -71.2 -20.45 -74.25 M-14.8 -69.85 L-17.45 -68.15 Q-18.7 -67.25 -20.0 -67.15 L-15.1 -69.95 -14.8 -69.85 M-14.7 -69.5 L-14.7 -69.45 -18.6 -65.0 -19.65 -63.55 -18.1 -65.9 -14.7 -69.5 M-18.85 -70.95 Q-17.65 -70.1 -15.35 -70.25 L-17.1 -70.25 -18.7 -70.55 -18.85 -70.95" fill="#e6d2b7" fill-rule="evenodd" stroke="none"/>
    <path d="M-5.45 -111.8 Q-5.05 -111.8 -4.75 -111.5 -4.45 -111.2 -4.45 -110.8 -4.45 -110.4 -4.75 -110.1 -5.05 -109.8 -5.45 -109.8 L-6.15 -110.1 -6.45 -110.8 -6.15 -111.5 -5.45 -111.8 M-1.7 -106.35 Q-1.7 -105.85 -2.05 -105.5 -2.4 -105.15 -2.9 -105.15 -3.4 -105.15 -3.75 -105.5 -4.1 -105.85 -4.1 -106.35 L-3.75 -107.2 -2.9 -107.55 Q-2.4 -107.55 -2.05 -107.2 -1.7 -106.85 -1.7 -106.35 M-7.05 -93.45 Q-7.65 -92.8 -8.5 -92.8 -9.35 -92.8 -10.0 -93.45 -10.6 -94.05 -10.6 -94.9 -10.6 -95.75 -10.0 -96.4 -9.35 -97.0 -8.5 -97.0 -7.65 -97.0 -7.05 -96.4 -6.4 -95.75 -6.4 -94.9 -6.4 -94.05 -7.05 -93.45 M-1.95 -89.6 Q-1.55 -90.0 -1.0 -90.0 -0.45 -90.0 -0.05 -89.6 0.35 -89.2 0.35 -88.65 0.35 -88.1 -0.05 -87.7 -0.45 -87.3 -1.0 -87.3 -1.55 -87.3 -1.95 -87.7 -2.35 -88.1 -2.35 -88.65 -2.35 -89.2 -1.95 -89.6 M-7.4 -80.7 Q-7.05 -80.35 -7.05 -79.9 -7.05 -79.45 -7.4 -79.15 -7.7 -78.8 -8.15 -78.8 -8.6 -78.8 -8.95 -79.15 -9.25 -79.45 -9.25 -79.9 L-8.95 -80.7 -8.15 -81.0 -7.4 -80.7" fill="#b5b9ee" fill-rule="evenodd" stroke="none"/>
  </g>
</svg>
