<?xml version="1.0" encoding="UTF-8" standalone="no"?>
<svg xmlns:ffdec="https://www.free-decompiler.com/flash" xmlns:xlink="http://www.w3.org/1999/xlink" ffdec:objectType="shape" height="55.3px" width="640.0px" xmlns="http://www.w3.org/2000/svg">
  <g transform="matrix(1.0, 0.0, 0.0, 1.0, 0.0, -122.0)">
    <path d="M379.3 136.8 Q446.55 139.25 489.55 143.15 L515.0 145.8 550.05 150.6 Q585.85 156.2 603.85 158.15 L640.0 161.4 640.0 162.6 605.0 159.45 Q586.45 157.45 550.7 151.9 527.0 148.2 505.15 145.8 L490.1 144.3 Q446.7 140.35 379.0 138.0 L377.3 138.0 379.3 136.8 M640.0 149.1 L628.55 149.1 611.25 147.45 598.65 145.85 598.65 145.8 598.8 145.7 598.9 145.6 601.05 145.8 610.95 146.8 628.3 148.15 640.0 148.2 640.0 149.1 M588.4 128.0 L583.55 128.0 555.95 126.9 540.55 127.55 540.55 127.3 548.9 126.85 562.95 126.25 588.4 128.0 M369.3 127.35 L364.7 126.45 373.6 126.4 389.2 125.45 398.05 125.6 419.35 125.5 421.2 125.4 440.95 126.1 450.0 127.55 440.35 126.85 426.05 126.25 422.4 126.35 419.15 126.45 397.95 126.55 386.55 127.05 373.35 127.3 369.3 127.35 M320.65 127.35 L319.5 127.6 318.0 128.0 305.95 128.0 320.65 127.35 M57.35 137.05 L59.0 136.3 105.15 138.6 134.0 138.6 127.15 139.5 106.1 139.5 57.35 137.05 M312.25 137.85 L314.1 138.7 Q281.85 139.85 241.9 143.6 L219.65 145.8 188.65 149.2 188.05 148.1 208.3 145.8 223.9 144.25 Q262.0 140.65 312.25 137.85 M111.75 158.15 L74.55 162.2 Q31.0 166.6 1.3 167.3 L0.0 167.3 0.0 166.5 2.05 166.5 Q54.9 163.45 95.3 159.35 L110.75 157.65 111.75 158.15 M0.0 155.75 L0.0 155.05 5.75 154.75 30.8 153.45 36.5 153.65 36.5 153.75 0.0 155.75 M159.5 138.55 L173.85 138.3 173.85 138.35 167.3 138.85 163.9 139.05 159.5 138.55" fill="#efefef" fill-rule="evenodd" stroke="none"/>
    <path d="M414.7 155.3 Q440.35 156.15 454.05 158.15 L472.1 161.5 Q482.75 163.55 495.4 164.55 506.2 165.5 515.05 167.0 L530.45 169.35 Q553.65 172.25 623.75 174.55 L623.5 174.7 616.5 174.95 610.75 175.15 Q563.05 175.15 527.4 170.65 L506.0 167.4 495.0 165.55 473.25 162.5 454.3 159.3 Q439.2 157.15 414.95 156.2 L414.7 155.3 M374.15 155.45 L361.7 155.45 Q361.55 155.4 361.55 154.95 361.55 154.5 361.7 154.55 L361.8 154.7 374.55 154.7 374.15 155.45 M198.7 162.65 L221.8 162.65 306.75 168.2 396.6 173.85 397.2 174.0 397.8 174.25 307.95 169.4 222.4 163.75 198.2 163.75 Q168.2 165.6 154.35 167.75 L138.2 170.65 114.75 175.15 Q144.8 168.1 154.6 166.65 165.6 165.0 198.7 162.7 L198.7 162.65" fill="#e7e7e7" fill-rule="evenodd" stroke="none"/>
    <path d="M379.3 136.8 Q380.4 135.95 380.75 135.0 L439.3 135.0 Q438.95 135.5 438.95 136.0 438.95 137.65 442.15 138.8 445.4 140.0 449.95 140.0 454.5 140.0 457.7 138.8 460.95 137.65 460.95 136.0 L460.65 135.0 499.65 135.0 Q496.95 136.55 496.95 138.5 496.95 141.2 502.05 143.1 507.2 145.0 514.45 145.0 521.7 145.0 526.8 143.1 531.95 141.2 531.95 138.5 531.95 136.55 529.25 135.0 L640.0 135.0 640.0 148.2 628.3 148.15 610.95 146.8 601.05 145.8 598.9 145.6 598.8 145.7 598.65 145.8 598.65 145.85 611.25 147.45 628.55 149.1 640.0 149.1 640.0 161.4 603.85 158.15 Q585.85 156.2 550.05 150.6 L515.0 145.8 489.55 143.15 Q446.55 139.25 379.3 136.8 M640.0 128.0 L588.4 128.0 562.95 126.25 548.9 126.85 540.55 127.3 540.55 127.55 555.95 126.9 583.55 128.0 371.9 128.0 370.4 127.6 369.3 127.35 373.35 127.3 386.55 127.05 397.95 126.55 419.15 126.45 422.4 126.35 426.05 126.25 440.35 126.85 450.0 127.55 440.95 126.1 421.2 125.4 419.35 125.5 398.05 125.6 389.2 125.45 373.6 126.4 364.7 126.45 Q356.0 125.0 344.95 125.0 330.85 125.0 320.65 127.35 L305.95 128.0 61.0 128.0 Q58.8 126.2 54.2 124.75 47.0 122.5 37.25 122.1 57.4 122.0 77.65 122.05 L122.9 122.05 165.5 122.15 211.8 122.25 254.35 122.35 300.2 122.4 343.5 122.4 387.85 122.4 432.15 122.35 476.4 122.25 520.55 122.25 565.95 122.25 608.15 122.35 640.0 122.45 640.0 128.0 M28.05 122.15 Q18.75 122.55 11.75 124.75 7.15 126.2 5.0 128.0 L0.0 128.0 0.0 122.2 28.05 122.15 M0.0 135.0 L5.0 135.0 Q7.2 136.75 11.75 138.2 20.55 141.0 33.0 141.0 45.45 141.0 54.2 138.2 L57.35 137.05 106.1 139.5 127.15 139.5 Q121.85 140.4 117.3 141.8 105.0 145.6 105.0 151.0 105.0 154.7 110.75 157.65 L95.3 159.35 Q54.9 163.45 2.05 166.5 L0.0 166.5 0.0 155.75 36.5 153.75 36.5 153.65 30.8 153.45 5.75 154.75 0.0 155.05 0.0 135.0 M59.0 136.3 L61.0 135.0 190.4 135.0 Q187.95 136.55 187.95 138.5 187.95 141.2 192.6 143.1 197.3 145.0 203.95 145.0 210.6 145.0 215.25 143.1 219.95 141.2 219.95 138.5 219.95 136.55 217.5 135.0 L262.2 135.0 Q263.3 135.8 265.35 136.5 269.75 138.0 275.95 138.0 282.15 138.0 286.55 136.5 288.6 135.8 289.75 135.0 L309.15 135.0 Q309.75 136.5 312.25 137.85 262.0 140.65 223.9 144.25 L208.3 145.8 188.05 148.1 Q185.55 144.55 176.7 141.8 170.9 140.0 163.9 139.05 L167.3 138.85 173.85 138.35 173.85 138.3 159.5 138.55 147.0 138.0 134.0 138.6 105.15 138.6 59.0 136.3 M314.1 138.7 Q316.3 139.55 319.5 140.35 330.05 143.0 344.95 143.0 359.85 143.0 370.4 140.35 374.75 139.3 377.3 138.0 L379.0 138.0 Q446.7 140.35 490.1 144.3 L505.15 145.8 Q527.0 148.2 550.7 151.9 586.45 157.45 605.0 159.45 L640.0 162.6 640.0 177.3 627.35 177.3 572.3 177.3 515.4 177.3 461.35 177.3 405.95 177.3 350.5 177.3 295.1 177.3 239.7 177.3 183.85 177.3 129.2 177.3 73.35 177.3 18.35 177.3 0.0 177.3 0.0 167.3 1.3 167.3 Q31.0 166.6 74.55 162.2 L111.75 158.15 Q114.1 159.2 117.3 160.2 129.6 164.0 147.0 164.0 164.4 164.0 176.7 160.2 189.0 156.4 189.0 151.0 189.0 150.05 188.65 149.2 L219.65 145.8 241.9 143.6 Q281.85 139.85 314.1 138.7 M414.95 156.2 Q439.2 157.15 454.3 159.3 L473.25 162.5 495.0 165.55 506.0 167.4 527.4 170.65 Q563.05 175.15 610.75 175.15 L616.5 174.95 623.5 174.7 623.75 174.55 Q553.65 172.25 530.45 169.35 L515.05 167.0 Q506.2 165.5 495.4 164.55 482.75 163.55 472.1 161.5 L454.05 158.15 Q440.35 156.15 414.7 155.3 413.75 152.95 408.95 151.2 402.95 149.0 394.45 149.0 L393.3 149.0 Q393.95 148.05 393.95 147.0 393.95 144.5 390.4 142.75 386.9 141.0 381.95 141.0 377.0 141.0 373.45 142.75 369.95 144.5 369.95 147.0 369.95 149.5 373.45 151.25 375.1 152.05 377.1 152.5 375.3 153.5 374.55 154.7 L361.8 154.7 361.7 154.55 Q361.55 154.5 361.55 154.95 361.55 155.4 361.7 155.45 L374.15 155.45 373.95 156.5 Q373.95 159.6 379.95 161.8 385.95 164.0 394.45 164.0 402.95 164.0 408.95 161.8 414.95 159.6 414.95 156.5 L414.95 156.2 M198.7 162.65 L198.7 162.7 Q165.6 165.0 154.6 166.65 144.8 168.1 114.75 175.15 L138.2 170.65 154.35 167.75 Q168.2 165.6 198.2 163.75 L222.4 163.75 307.95 169.4 397.8 174.25 397.2 174.0 396.6 173.85 306.75 168.2 221.8 162.65 198.7 162.65" fill="url(#gradient0)" fill-rule="evenodd" stroke="none"/>
    <path d="M640.0 135.0 L529.25 135.0 Q531.95 136.55 531.95 138.5 531.95 141.2 526.8 143.1 521.7 145.0 514.45 145.0 507.2 145.0 502.05 143.1 496.95 141.2 496.95 138.5 496.95 136.55 499.65 135.0 L460.65 135.0 460.95 136.0 Q460.95 137.65 457.7 138.8 454.5 140.0 449.95 140.0 445.4 140.0 442.15 138.8 438.95 137.65 438.95 136.0 438.95 135.5 439.3 135.0 L380.75 135.0 Q380.4 135.95 379.3 136.8 L377.3 138.0 Q374.75 139.3 370.4 140.35 359.85 143.0 344.95 143.0 330.05 143.0 319.5 140.35 316.3 139.55 314.1 138.7 L312.25 137.85 Q309.75 136.5 309.15 135.0 L289.75 135.0 Q288.6 135.8 286.55 136.5 282.15 138.0 275.95 138.0 269.75 138.0 265.35 136.5 263.3 135.8 262.2 135.0 L217.5 135.0 Q219.95 136.55 219.95 138.5 219.95 141.2 215.25 143.1 210.6 145.0 203.95 145.0 197.3 145.0 192.6 143.1 187.95 141.2 187.95 138.5 187.95 136.55 190.4 135.0 L61.0 135.0 59.0 136.3 57.35 137.05 54.2 138.2 Q45.45 141.0 33.0 141.0 20.55 141.0 11.75 138.2 7.2 136.75 5.0 135.0 L0.0 135.0 0.0 128.0 5.0 128.0 Q7.15 126.2 11.75 124.75 18.75 122.55 28.05 122.15 L33.0 122.0 37.25 122.1 Q47.0 122.5 54.2 124.75 58.8 126.2 61.0 128.0 L305.95 128.0 318.0 128.0 319.5 127.6 320.65 127.35 Q330.85 125.0 344.95 125.0 356.0 125.0 364.7 126.45 L369.3 127.35 370.4 127.6 371.9 128.0 583.55 128.0 588.4 128.0 640.0 128.0 640.0 135.0 M414.95 156.2 L414.95 156.5 Q414.95 159.6 408.95 161.8 402.95 164.0 394.45 164.0 385.95 164.0 379.95 161.8 373.95 159.6 373.95 156.5 L374.15 155.45 374.55 154.7 Q375.3 153.5 377.1 152.5 375.1 152.05 373.45 151.25 369.95 149.5 369.95 147.0 369.95 144.5 373.45 142.75 377.0 141.0 381.95 141.0 386.9 141.0 390.4 142.75 393.95 144.5 393.95 147.0 393.95 148.05 393.3 149.0 L394.45 149.0 Q402.95 149.0 408.95 151.2 413.75 152.95 414.7 155.3 L414.95 156.2 M188.65 149.2 Q189.0 150.05 189.0 151.0 189.0 156.4 176.7 160.2 164.4 164.0 147.0 164.0 129.6 164.0 117.3 160.2 114.1 159.2 111.75 158.15 L110.75 157.65 Q105.0 154.7 105.0 151.0 105.0 145.6 117.3 141.8 121.85 140.4 127.15 139.5 L134.0 138.6 147.0 138.0 159.5 138.55 163.9 139.05 Q170.9 140.0 176.7 141.8 185.55 144.55 188.05 148.1 L188.65 149.2" fill="#c0c4c9" fill-rule="evenodd" stroke="none"/>
  </g>
  <defs>
    <radialGradient cx="0" cy="0" gradientTransform="matrix(0.405, 0.0, 0.0, 0.0612, 330.7, 178.0)" gradientUnits="userSpaceOnUse" id="gradient0" r="819.2" spreadMethod="pad">
      <stop offset="0.0" stop-color="#f5f5f5"/>
      <stop offset="1.0" stop-color="#e7e7e7"/>
    </radialGradient>
  </defs>
</svg>
