<?xml version="1.0" encoding="UTF-8" standalone="no"?>
<svg xmlns:ffdec="https://www.free-decompiler.com/flash" xmlns:xlink="http://www.w3.org/1999/xlink" ffdec:objectType="shape" height="34.6px" width="114.85px" xmlns="http://www.w3.org/2000/svg">
  <g transform="matrix(1.0, 0.0, 0.0, 1.0, -0.15, 0.0)">
    <path d="M115.0 1.6 L115.0 4.0 114.9 4.0 114.85 4.0 Q113.7 4.0 113.4 4.55 L112.9 5.1 111.6 4.5 Q111.4 4.5 110.95 4.85 L110.7 4.45 110.0 4.35 Q109.2 4.35 108.5 5.0 L108.15 5.35 107.4 5.15 106.25 4.9 104.25 5.35 103.4 5.3 Q103.0 4.9 102.55 4.9 101.95 4.9 101.45 5.3 L101.0 5.7 Q100.25 5.7 100.15 5.1 100.1 4.8 99.5 4.65 L97.75 4.45 96.8 3.95 94.85 4.15 94.35 4.75 94.1 5.25 93.35 5.05 Q92.7 5.05 91.8 5.9 L90.9 5.35 Q90.05 4.8 89.15 4.8 88.9 4.8 88.6 5.15 L87.6 4.85 86.25 4.55 Q84.9 4.55 83.95 5.85 L82.35 5.75 Q82.25 5.55 80.35 4.8 L79.45 4.8 78.9 5.45 77.6 5.2 76.65 5.45 75.25 5.55 74.95 5.3 74.6 5.0 74.5 5.05 74.35 4.65 72.9 4.35 Q72.3 4.35 71.9 4.85 L71.55 5.3 70.25 5.05 Q69.95 5.05 69.6 5.4 L69.25 5.05 68.6 4.55 67.35 4.55 66.5 5.05 65.55 5.35 64.85 5.1 Q64.35 4.8 64.05 4.8 L62.25 5.9 Q61.35 5.9 61.05 5.05 60.75 4.15 60.2 4.05 L60.1 4.05 Q58.1 3.55 57.55 4.05 57.2 4.35 56.8 5.3 L56.1 4.85 54.6 4.85 Q54.1 4.9 53.85 5.2 L53.65 5.5 52.35 5.25 51.5 5.4 50.85 5.15 50.15 4.9 Q49.6 4.9 48.85 5.35 L48.35 5.15 47.0 4.9 45.05 5.15 44.3 6.0 Q43.2 5.65 43.0 5.35 L42.2 5.2 41.85 4.9 Q41.55 4.6 40.9 4.6 39.75 4.6 39.35 5.3 L39.3 5.35 39.2 5.2 Q38.75 4.75 38.15 4.75 36.9 4.75 36.1 5.4 35.75 5.05 35.5 5.05 35.15 5.05 34.6 5.45 L33.5 5.05 32.7 5.3 Q32.55 4.15 31.85 3.65 L30.95 3.7 Q30.55 3.7 30.05 3.2 28.55 3.4 28.0 5.15 27.8 4.8 27.05 4.8 26.55 4.8 26.15 5.1 L25.75 5.4 25.2 5.2 24.4 4.95 21.9 5.05 20.85 5.2 Q20.55 4.55 19.45 4.0 17.95 3.2 17.95 5.15 L17.1 4.7 16.45 4.7 15.65 5.1 14.25 5.45 Q12.5 5.45 11.85 4.9 11.15 4.3 10.4 4.3 9.55 4.3 8.9 4.95 8.3 5.55 7.55 5.55 L6.8 5.2 Q6.35 4.8 5.6 4.8 L5.55 4.8 4.55 5.05 4.1 5.3 Q3.75 5.3 3.55 5.0 L3.1 4.65 Q2.6 4.65 1.8 5.4 L1.55 5.65 1.5 4.7 Q1.3 4.1 0.15 4.0 L0.15 1.6 0.75 1.6 Q0.85 2.15 1.3 2.6 L1.8 3.1 2.1 3.15 2.65 2.7 Q2.9 2.2 3.35 2.2 L3.6 2.45 Q3.7 2.65 4.2 2.65 L4.65 2.3 5.1 1.95 Q5.3 1.95 5.6 2.25 L5.85 2.5 6.9 3.05 7.25 2.95 7.2 2.7 8.5 2.35 9.25 2.6 11.0 2.85 12.0 2.65 12.6 2.4 Q12.85 2.4 13.0 2.75 L13.4 3.25 14.55 3.25 Q15.25 3.1 15.5 2.55 L15.8 1.85 16.75 1.8 16.8 1.95 17.2 2.1 18.0 1.8 19.55 1.4 Q20.15 1.55 20.15 2.25 L20.15 3.3 20.7 3.45 21.05 3.1 Q21.4 2.7 21.75 2.7 22.1 2.7 22.9 3.6 L23.55 3.6 25.0 2.6 25.75 2.6 25.8 2.9 Q25.9 3.2 26.45 3.2 L27.3 2.7 29.25 2.2 29.95 3.0 Q30.5 3.6 30.95 3.6 L33.1 3.45 33.6 2.8 Q34.05 2.5 35.25 2.45 L35.35 2.9 Q35.55 3.35 36.2 3.35 L37.05 2.85 37.75 2.85 37.85 3.05 39.45 3.1 40.2 3.35 40.9 2.2 41.05 1.9 41.55 1.7 Q42.45 1.7 42.6 2.6 42.75 3.45 43.15 3.45 L43.7 3.1 Q44.15 2.75 44.65 2.75 L44.95 3.1 Q45.15 3.45 45.7 3.45 46.3 2.55 46.65 2.25 L47.55 2.25 49.45 3.45 50.15 2.95 Q50.7 2.4 50.95 2.35 L51.25 3.1 52.05 2.85 52.15 3.3 Q52.25 3.5 52.8 3.5 53.9 3.5 54.3 2.6 54.75 1.6 55.4 1.4 L56.4 1.4 57.2 2.55 58.05 3.45 59.15 2.45 60.35 2.45 60.9 3.1 61.55 3.1 62.35 2.9 62.8 2.8 63.0 3.05 Q63.1 3.25 63.45 3.25 L64.05 2.8 Q64.3 2.35 64.9 2.35 65.4 2.35 65.5 2.75 65.55 3.15 66.0 3.15 L66.6 2.8 68.8 2.4 69.75 3.0 70.5 3.55 Q71.1 3.55 71.75 3.15 L72.4 2.75 73.45 2.5 Q73.65 2.2 74.1 2.2 74.7 2.2 74.85 2.6 L75.0 3.25 75.35 3.3 75.4 3.3 75.4 3.35 75.65 3.45 76.3 2.9 Q76.6 2.35 76.85 2.35 L77.8 2.45 78.15 3.1 Q78.35 3.45 78.9 3.45 L79.3 3.05 Q79.5 2.65 79.85 2.55 L80.1 3.1 Q80.2 3.3 80.6 3.3 L81.0 3.2 80.95 2.8 Q81.0 2.55 81.45 2.55 81.7 2.55 81.95 2.95 82.25 3.3 82.6 3.3 L83.15 2.0 Q83.65 0.7 84.55 0.7 85.45 0.7 85.9 1.95 86.4 3.2 86.75 3.2 87.3 3.2 87.55 2.85 L87.95 2.5 88.4 2.6 88.4 3.3 88.9 3.6 89.6 3.15 Q90.35 2.65 90.6 2.65 L91.15 2.75 91.1 3.15 Q91.15 3.4 91.6 3.4 L92.2 3.15 92.3 2.75 93.4 2.7 94.0 2.75 94.15 2.95 94.6 3.1 Q95.1 3.1 95.1 2.65 L95.1 2.55 95.1 2.5 95.5 1.65 96.1 1.6 96.25 1.7 96.05 2.65 Q96.05 3.35 97.0 3.35 L97.6 2.85 Q98.25 2.35 98.45 2.35 L98.8 2.6 99.5 2.9 99.6 2.9 Q100.3 2.95 100.45 3.15 100.6 3.35 100.95 3.35 L101.35 3.1 Q101.55 2.85 102.05 2.85 L102.75 3.1 103.5 2.55 Q104.1 1.95 104.65 1.95 105.3 1.95 107.05 3.15 L107.9 3.15 109.05 2.35 110.05 2.35 110.4 2.7 111.35 2.75 111.9 2.65 112.0 2.25 112.6 2.7 113.15 3.15 Q114.25 3.15 114.35 2.55 L114.5 1.6 115.0 1.6 M115.0 12.7 L115.0 15.8 114.9 15.8 114.85 15.8 Q113.7 15.8 113.4 15.25 L112.9 14.7 111.6 15.3 Q111.4 15.3 110.95 14.95 L110.7 15.35 110.0 15.45 Q109.2 15.45 108.5 14.8 L108.15 14.45 107.4 14.65 106.25 14.9 104.25 14.45 103.4 14.5 Q103.0 14.9 102.55 14.9 101.95 14.9 101.45 14.5 L101.0 14.1 Q100.25 14.1 100.15 14.7 L99.5 15.15 97.75 15.35 96.8 15.85 94.85 15.65 94.35 15.05 94.1 14.55 93.35 14.75 Q92.7 14.75 91.8 13.9 L90.9 14.45 Q90.05 15.0 89.15 15.0 88.9 15.0 88.6 14.65 88.25 14.65 87.6 14.95 L86.25 15.25 Q84.9 15.25 83.95 13.95 L82.35 14.05 Q82.25 14.25 80.35 15.0 L79.45 15.0 78.9 14.35 77.6 14.6 76.65 14.35 75.25 14.25 74.95 14.5 74.6 14.8 74.5 14.75 74.35 15.15 72.9 15.45 Q72.3 15.45 71.9 14.95 L71.55 14.5 70.25 14.75 Q69.95 14.75 69.6 14.4 L69.25 14.75 68.6 15.25 67.35 15.25 66.5 14.75 Q66.0 14.45 65.55 14.45 L64.85 14.7 64.05 15.0 62.25 13.9 Q61.35 13.9 61.05 14.75 60.75 15.65 60.2 15.75 L60.1 15.8 57.55 15.75 56.8 14.5 56.1 14.95 54.6 14.95 Q54.1 14.9 53.85 14.6 L53.65 14.3 52.35 14.55 51.5 14.4 50.85 14.65 50.15 14.9 48.85 14.45 48.35 14.65 47.0 14.9 45.05 14.65 44.3 13.8 Q43.2 14.15 43.0 14.45 L42.2 14.6 41.85 14.9 Q41.55 15.2 40.9 15.2 39.75 15.2 39.35 14.5 L39.3 14.45 39.2 14.6 Q38.75 15.05 38.15 15.05 36.9 15.05 36.1 14.4 L35.5 14.75 Q35.15 14.75 34.6 14.35 L33.5 14.75 32.7 14.5 Q32.4 16.5 30.5 16.6 28.6 16.65 28.0 14.65 27.8 15.0 27.05 15.0 L26.15 14.7 25.75 14.4 25.2 14.6 24.4 14.85 21.9 14.75 20.85 14.6 Q20.55 15.25 19.45 15.8 17.95 16.6 17.95 14.65 17.8 14.65 17.1 15.1 L16.45 15.1 15.65 14.7 Q14.85 14.35 14.25 14.35 12.5 14.35 11.85 14.9 11.15 15.5 10.4 15.5 9.55 15.5 8.9 14.85 8.3 14.25 7.55 14.25 7.25 14.25 6.8 14.6 6.35 15.0 5.6 15.0 L5.55 15.0 4.55 14.75 4.1 14.5 Q3.75 14.5 3.55 14.8 L3.1 15.15 Q2.6 15.15 1.8 14.4 L1.55 14.15 1.5 15.1 Q1.3 15.7 0.15 15.8 L0.15 12.7 Q1.3 12.7 1.6 12.15 L1.8 11.85 2.1 11.6 3.4 12.2 4.05 11.85 4.3 12.25 5.0 12.35 Q5.8 12.35 6.5 11.7 L6.85 11.35 7.6 11.55 8.75 11.8 10.75 11.35 11.6 11.4 Q12.0 11.8 12.45 11.8 L13.55 11.4 14.0 11.0 Q14.75 11.0 14.85 11.6 14.9 11.9 15.5 12.05 L17.25 12.25 18.2 12.75 Q18.9 13.15 20.15 12.55 L20.65 11.95 20.9 11.45 21.65 11.65 Q22.3 11.65 23.2 10.8 L24.1 11.35 Q24.95 11.9 25.85 11.9 L26.4 11.55 27.4 11.85 28.75 12.15 Q30.1 12.15 31.05 10.85 L32.65 10.95 34.65 11.9 35.55 11.9 36.1 11.25 37.4 11.5 38.35 11.25 39.75 11.15 40.05 11.4 40.4 11.7 40.5 11.65 40.65 12.05 42.1 12.35 Q42.7 12.35 43.1 11.85 L43.45 11.4 44.75 11.65 Q45.05 11.65 45.4 11.3 L45.75 11.65 46.4 12.15 47.65 12.15 48.5 11.65 49.45 11.35 50.15 11.6 50.95 11.9 52.75 10.8 Q53.65 10.8 53.95 11.65 54.25 12.55 54.8 12.65 56.9 13.15 57.45 12.65 L58.2 11.4 58.9 11.85 60.4 11.85 61.15 11.5 61.35 11.2 62.65 11.45 63.5 11.3 64.15 11.55 64.85 11.8 66.15 11.35 66.65 11.55 68.0 11.8 69.95 11.55 70.7 10.7 Q71.8 11.05 72.0 11.35 L72.8 11.5 73.15 11.8 Q73.45 12.1 74.1 12.1 75.25 12.1 75.65 11.4 L75.7 11.35 75.8 11.5 Q76.25 11.95 76.85 11.95 78.1 11.95 78.9 11.3 L79.5 11.65 Q79.85 11.65 80.4 11.25 L81.5 11.65 82.3 11.4 Q82.45 12.55 83.15 13.05 L84.05 13.0 Q84.45 13.0 84.95 13.5 86.45 13.3 87.0 11.55 87.2 11.9 87.95 11.9 L88.85 11.6 89.25 11.3 89.8 11.5 90.6 11.75 93.1 11.65 94.15 11.5 Q94.45 12.15 95.55 12.7 97.05 13.5 97.05 11.55 L97.9 12.0 98.55 12.0 99.35 11.6 Q100.15 11.25 100.75 11.25 102.5 11.25 103.15 11.8 103.85 12.4 104.6 12.4 105.45 12.4 106.1 11.75 106.7 11.15 107.45 11.15 107.75 11.15 108.2 11.5 108.65 11.9 109.4 11.9 L109.5 11.9 Q109.0 12.0 108.55 12.25 107.9 12.55 107.9 12.85 107.9 13.2 108.65 14.1 109.9 13.85 109.9 12.7 L109.75 11.9 110.45 11.65 110.9 11.4 Q111.25 11.4 111.45 11.7 L111.9 12.05 Q112.45 12.05 113.45 11.05 113.4 11.65 113.5 12.0 113.7 12.6 114.85 12.7 L115.0 12.7 M107.75 16.8 L107.9 17.45 107.8 18.1 Q107.8 18.35 107.15 18.35 106.15 18.35 106.15 17.45 106.15 16.5 107.75 16.8 M102.9 16.15 L103.4 16.75 103.3 17.2 103.15 17.4 102.45 17.35 102.4 16.8 Q102.4 16.4 102.55 16.25 L102.9 16.15 M108.0 20.8 L108.1 20.75 108.15 21.15 Q108.15 21.7 106.9 21.95 L106.5 21.85 106.4 21.35 Q106.4 20.95 106.9 20.75 L108.0 20.8 M113.3 19.15 L113.1 19.65 112.55 19.8 112.0 19.75 111.9 19.65 111.8 19.0 111.9 18.4 112.55 18.5 Q113.0 18.75 113.3 19.15 M92.7 12.05 L91.65 11.95 91.65 12.9 92.15 13.2 92.55 13.1 92.75 12.95 92.9 12.4 92.8 12.0 92.7 12.05 M92.15 17.8 L91.8 18.3 90.9 18.85 90.2 18.05 Q90.2 17.4 90.75 17.25 91.4 17.1 92.15 17.8 M81.9 12.55 Q80.2 12.25 80.2 13.3 L80.2 13.75 Q80.35 14.2 81.15 14.2 L81.65 14.1 81.8 13.85 81.9 13.0 81.9 12.55 M84.45 16.55 L84.55 16.7 84.65 17.2 Q84.65 18.2 83.05 18.2 81.9 18.2 81.9 17.35 81.9 16.75 82.85 16.55 83.7 16.35 84.45 16.55 M88.65 20.45 L88.7 20.85 88.65 21.6 88.55 21.7 88.15 21.8 87.15 21.7 Q87.05 21.8 87.05 21.15 87.05 20.7 87.7 20.5 L88.65 20.45 M98.8 13.15 L97.55 13.25 Q97.2 13.55 97.2 14.05 L97.35 14.35 98.15 14.85 Q98.9 14.1 98.9 13.6 L98.8 13.15 M98.8 16.2 L99.7 16.35 99.8 16.55 99.9 17.1 Q99.9 17.55 99.35 17.85 L98.4 18.15 Q97.6 18.15 97.4 17.75 L97.4 17.3 Q97.4 16.2 98.8 16.2 M95.7 22.35 L95.9 22.9 95.65 23.3 Q95.4 23.6 95.05 23.6 L94.3 23.45 Q94.2 23.55 94.2 22.9 94.2 22.55 94.45 22.35 94.85 22.05 95.7 22.35 M100.45 20.1 L100.55 20.25 100.65 20.75 100.55 21.4 100.55 21.5 100.15 21.6 99.2 21.35 Q99.05 20.95 99.3 20.4 99.65 19.75 100.45 20.1 M70.05 12.85 L68.5 12.9 68.4 13.55 68.4 14.0 Q68.5 14.4 69.15 14.4 L70.05 14.15 70.2 13.4 70.05 12.85 M65.9 11.65 Q65.4 11.85 65.4 12.55 L65.5 13.05 65.9 13.2 66.45 12.9 66.55 12.15 Q66.55 11.8 66.35 11.75 L65.9 11.65 M72.4 16.85 L71.9 17.8 Q71.35 18.4 70.65 18.4 L70.05 18.3 69.9 18.2 69.9 17.3 Q69.9 16.25 71.15 16.0 72.4 15.7 72.4 16.85 M62.9 18.85 L62.8 19.6 Q62.8 19.85 62.15 19.85 61.4 19.85 60.95 19.25 L60.65 18.6 Q60.65 17.85 61.8 17.85 62.9 17.85 62.9 18.85 M69.95 21.7 L70.15 21.8 70.2 22.2 Q70.2 22.95 69.4 22.95 L68.8 22.85 68.65 22.75 68.65 22.35 Q68.65 22.15 69.1 21.9 L69.95 21.7 M77.65 15.9 L77.75 16.0 77.8 16.35 Q77.8 17.9 76.4 17.85 L75.7 17.15 Q75.7 16.5 76.25 16.1 76.9 15.6 77.65 15.9 M77.95 20.6 L77.9 21.1 77.15 21.3 76.15 21.2 Q76.05 21.3 76.05 20.65 L76.15 20.15 Q77.3 20.15 77.95 20.6 M47.65 13.2 L46.15 13.2 46.15 13.7 46.25 14.3 Q46.45 14.8 46.9 14.8 47.3 14.8 47.7 13.8 L47.65 13.2 M50.65 16.15 L50.15 16.55 49.65 16.85 Q48.5 16.85 48.25 16.4 L48.2 16.05 Q48.2 14.65 50.65 16.15 M45.9 18.4 L46.0 18.85 45.95 19.35 44.9 19.7 44.6 19.55 44.5 19.05 Q44.5 18.65 44.8 18.45 L45.9 18.4 M43.15 21.3 L43.25 22.1 43.15 22.8 42.65 22.95 41.4 22.95 Q41.25 22.95 41.25 22.3 41.25 21.75 41.8 21.35 L43.15 21.3 M60.4 12.8 L60.1 12.75 59.15 12.95 Q58.45 13.25 58.45 13.65 L58.8 14.2 59.55 14.7 60.1 14.55 Q60.45 14.3 60.45 13.6 L60.4 12.8 M56.2 18.4 L56.4 19.45 55.85 20.1 55.05 20.4 Q54.45 20.4 54.15 19.95 L53.95 19.45 Q53.95 18.85 54.4 18.5 L56.2 18.4 M59.45 22.15 L59.55 22.9 59.6 23.6 Q59.55 23.8 59.15 23.8 L57.9 23.55 Q57.7 23.6 57.7 22.95 L58.0 22.35 Q58.45 21.85 59.45 22.15 M27.65 12.7 L26.95 13.2 26.95 14.35 27.05 14.45 27.65 14.55 Q28.25 14.55 28.15 14.35 L28.3 14.2 28.4 13.7 Q28.4 12.9 27.65 12.7 M26.4 16.95 L26.4 17.5 Q26.3 17.85 25.9 17.85 L24.65 17.8 Q24.45 17.75 24.45 17.1 24.45 16.2 25.0 16.15 25.6 16.1 26.4 16.95 M23.25 20.55 L23.2 21.1 Q23.55 21.3 22.9 21.3 22.1 21.3 21.7 20.65 L21.45 20.0 Q21.45 19.15 22.35 19.4 23.25 19.65 23.25 20.55 M30.4 21.65 Q30.4 22.3 29.65 22.3 L29.15 22.25 28.75 22.05 Q28.8 21.0 29.55 20.65 30.3 20.3 30.4 21.65 M38.65 18.1 Q38.65 18.6 38.25 19.15 37.55 20.05 36.15 20.05 35.4 20.05 35.25 19.5 L35.25 18.85 Q35.25 17.5 36.95 17.15 38.65 16.85 38.65 18.1 M34.75 12.05 Q34.15 12.4 34.2 12.85 L34.9 13.1 Q34.9 12.8 35.15 12.8 35.15 12.3 34.75 12.05 M11.4 13.65 Q11.4 12.85 10.45 12.8 9.45 12.7 9.45 13.85 L9.5 14.25 9.65 14.35 10.65 14.6 11.4 13.65 M6.7 16.6 L6.8 16.8 6.9 17.35 6.65 17.9 6.15 18.1 5.45 17.3 Q5.45 16.2 6.7 16.6 M11.5 16.85 L11.65 17.2 11.4 17.6 10.8 17.8 10.3 17.75 10.25 17.65 10.1 17.55 10.0 17.1 Q10.0 16.75 10.45 16.6 11.0 16.4 11.5 16.85 M4.15 12.4 L3.1 12.4 Q2.7 12.5 2.75 13.1 L3.1 13.5 Q3.4 13.8 3.65 13.8 4.3 13.8 4.25 13.55 L4.15 12.4 M3.65 19.35 L3.75 20.45 3.7 21.25 Q3.6 21.6 3.15 21.6 L1.8 21.4 1.7 21.35 1.65 20.4 1.8 20.0 2.2 19.55 Q2.9 18.95 3.65 19.35 M9.15 21.1 Q9.7 21.3 9.7 21.95 L9.15 22.45 8.75 22.3 8.65 21.8 8.75 21.25 Q8.8 21.2 9.15 21.1 M15.95 17.4 L16.0 17.85 15.7 18.7 Q15.4 19.1 14.9 19.1 13.95 19.1 13.6 18.6 L13.45 18.05 Q13.45 17.45 13.9 17.3 L15.95 17.4 M18.2 22.65 L18.3 22.75 18.4 23.1 18.25 23.6 18.3 23.7 17.9 23.8 16.9 23.7 Q16.75 23.8 16.75 23.15 L16.75 22.8 16.9 22.65 18.2 22.65" fill="#1ca83f" fill-rule="evenodd" stroke="none"/>
    <path d="M0.15 1.6 L0.15 0.8 0.3 0.8 Q1.3 0.85 1.6 1.35 L1.8 1.7 2.1 1.9 3.4 1.3 4.05 1.65 4.3 1.25 5.0 1.15 5.6 1.25 Q6.05 1.4 6.5 1.8 L6.85 2.15 7.6 1.95 8.75 1.7 10.75 2.15 11.6 2.1 Q12.0 1.7 12.45 1.7 L13.55 2.1 14.0 2.5 Q14.75 2.5 14.85 1.9 14.95 1.25 17.25 1.25 L18.2 0.75 Q18.9 0.35 20.15 0.95 L20.65 1.55 20.9 2.05 21.65 1.85 Q22.3 1.85 23.2 2.7 L24.1 2.15 Q24.95 1.6 25.85 1.6 L26.4 1.95 27.4 1.65 Q28.0 1.35 28.75 1.35 30.1 1.35 31.05 2.65 L32.65 2.55 Q32.75 2.35 34.65 1.6 L35.55 1.6 36.1 2.25 37.4 2.0 38.35 2.25 39.75 2.35 40.05 2.1 40.4 1.8 40.5 1.85 40.65 1.45 Q40.95 1.15 42.1 1.15 42.7 1.15 43.1 1.65 L43.45 2.1 44.75 1.85 Q45.05 1.85 45.4 2.2 L45.75 1.85 46.4 1.35 47.65 1.35 48.5 1.85 49.45 2.15 50.15 1.9 Q50.65 1.6 50.95 1.6 L52.75 2.7 Q53.65 2.7 53.95 1.85 54.25 0.95 54.8 0.85 56.9 0.35 57.45 0.85 L58.2 2.1 58.9 1.65 60.4 1.65 61.15 2.0 61.35 2.3 62.65 2.05 63.5 2.2 64.15 1.95 64.85 1.7 Q65.4 1.7 66.15 2.15 L66.65 1.95 68.0 1.7 69.95 1.95 70.7 2.8 Q71.8 2.45 72.0 2.15 L72.8 2.0 73.15 1.7 Q73.45 1.4 74.1 1.4 75.25 1.4 75.65 2.1 L75.7 2.15 75.8 2.0 Q76.25 1.55 76.85 1.55 78.1 1.55 78.9 2.2 79.25 1.85 79.5 1.85 L80.4 2.25 81.5 1.85 82.3 2.1 Q82.6 0.1 84.5 0.0 86.4 -0.05 87.0 1.95 87.2 1.6 87.95 1.6 88.45 1.6 88.85 1.9 L89.25 2.2 89.8 2.0 90.6 1.75 93.1 1.85 94.15 2.0 Q94.45 1.35 95.55 0.8 97.05 0.0 97.05 1.95 L97.9 1.5 98.55 1.5 99.35 1.9 99.5 2.0 100.75 2.25 Q102.5 2.25 103.15 1.7 103.85 1.1 104.6 1.1 105.45 1.1 106.1 1.75 106.7 2.35 107.45 2.35 L108.2 2.0 Q108.65 1.6 109.45 1.6 L110.45 1.85 110.9 2.1 Q111.25 2.1 111.45 1.8 111.65 1.45 111.9 1.45 112.45 1.45 113.45 2.45 113.4 1.85 113.5 1.5 113.7 0.85 115.0 0.8 L115.0 1.6 114.5 1.6 114.35 2.55 Q114.25 3.15 113.15 3.15 L112.6 2.7 112.0 2.25 111.9 2.65 111.35 2.75 110.4 2.7 110.05 2.35 109.05 2.35 107.9 3.15 107.05 3.15 Q105.3 1.95 104.65 1.95 104.1 1.95 103.5 2.55 L102.75 3.1 102.05 2.85 Q101.55 2.85 101.35 3.1 L100.95 3.35 Q100.6 3.35 100.45 3.15 100.3 2.95 99.6 2.9 L99.5 2.9 98.8 2.6 98.45 2.35 Q98.25 2.35 97.6 2.85 L97.0 3.35 Q96.05 3.35 96.05 2.65 L96.25 1.7 96.1 1.6 95.5 1.65 95.1 2.5 95.1 2.55 95.1 2.65 Q95.1 3.1 94.6 3.1 L94.15 2.95 94.0 2.75 93.4 2.7 92.3 2.75 92.2 3.15 91.6 3.4 Q91.15 3.4 91.1 3.15 L91.15 2.75 90.6 2.65 Q90.35 2.65 89.6 3.15 L88.9 3.6 88.4 3.3 88.4 2.6 87.95 2.5 87.55 2.85 Q87.3 3.2 86.75 3.2 86.4 3.2 85.9 1.95 85.45 0.7 84.55 0.7 83.65 0.7 83.15 2.0 L82.6 3.3 Q82.25 3.3 81.95 2.95 81.7 2.55 81.45 2.55 81.0 2.55 80.95 2.8 L81.0 3.2 80.6 3.3 Q80.2 3.3 80.1 3.1 L79.85 2.55 Q79.5 2.65 79.3 3.05 L78.9 3.45 Q78.35 3.45 78.15 3.1 L77.8 2.45 76.85 2.35 Q76.6 2.35 76.3 2.9 L75.65 3.45 75.4 3.35 75.4 3.3 75.35 3.3 75.0 3.25 74.85 2.6 Q74.7 2.2 74.1 2.2 73.65 2.2 73.45 2.5 L72.4 2.75 71.75 3.15 Q71.1 3.55 70.5 3.55 L69.75 3.0 68.8 2.4 66.6 2.8 66.0 3.15 Q65.55 3.15 65.5 2.75 65.4 2.35 64.9 2.35 64.3 2.35 64.05 2.8 L63.45 3.25 Q63.1 3.25 63.0 3.05 L62.8 2.8 62.35 2.9 61.55 3.1 60.9 3.1 60.35 2.45 59.15 2.45 58.05 3.45 57.2 2.55 56.4 1.4 55.4 1.4 Q54.75 1.6 54.3 2.6 53.9 3.5 52.8 3.5 52.25 3.5 52.15 3.3 L52.05 2.85 51.25 3.1 50.95 2.35 Q50.7 2.4 50.15 2.95 L49.45 3.45 47.55 2.25 46.65 2.25 Q46.3 2.55 45.7 3.45 45.15 3.45 44.95 3.1 L44.65 2.75 Q44.15 2.75 43.7 3.1 L43.15 3.45 Q42.75 3.45 42.6 2.6 42.45 1.7 41.55 1.7 L41.05 1.9 40.9 2.2 40.2 3.35 39.45 3.1 37.85 3.05 37.75 2.85 37.05 2.85 36.2 3.35 Q35.55 3.35 35.35 2.9 L35.25 2.45 Q34.05 2.5 33.6 2.8 L33.1 3.45 30.95 3.6 Q30.5 3.6 29.95 3.0 L29.25 2.2 27.3 2.7 26.45 3.2 Q25.9 3.2 25.8 2.9 L25.75 2.6 25.0 2.6 23.55 3.6 22.9 3.6 Q22.1 2.7 21.75 2.7 21.4 2.7 21.05 3.1 L20.7 3.45 20.15 3.3 20.15 2.25 Q20.15 1.55 19.55 1.4 L18.0 1.8 17.2 2.1 16.8 1.95 16.75 1.8 15.8 1.85 15.5 2.55 Q15.25 3.1 14.55 3.25 L13.4 3.25 13.0 2.75 Q12.85 2.4 12.6 2.4 L12.0 2.65 11.0 2.85 9.25 2.6 8.5 2.35 7.2 2.7 7.25 2.95 6.9 3.05 5.85 2.5 5.6 2.25 Q5.3 1.95 5.1 1.95 L4.65 2.3 4.2 2.65 Q3.7 2.65 3.6 2.45 L3.35 2.2 Q2.9 2.2 2.65 2.7 L2.1 3.15 1.8 3.1 1.3 2.6 Q0.85 2.15 0.75 1.6 L0.15 1.6 M115.0 33.0 L115.0 33.8 Q113.7 33.75 113.5 33.1 113.4 32.75 113.45 32.15 112.45 33.15 111.9 33.15 L111.45 32.8 Q111.25 32.5 110.9 32.5 L110.45 32.75 109.45 33.0 Q108.65 33.0 108.2 32.6 107.75 32.25 107.45 32.25 106.7 32.25 106.1 32.85 105.45 33.5 104.6 33.5 103.85 33.5 103.15 32.9 102.5 32.35 100.75 32.35 100.2 32.35 99.5 32.65 L99.35 32.7 98.55 33.1 97.9 33.1 97.05 32.65 Q97.05 34.6 95.55 33.8 94.45 33.25 94.15 32.6 L93.1 32.75 90.6 32.85 89.8 32.6 89.25 32.4 88.85 32.7 87.95 33.0 Q87.2 33.0 87.0 32.65 86.4 34.65 84.5 34.6 82.6 34.5 82.3 32.5 L81.5 32.75 80.4 32.35 Q79.85 32.75 79.5 32.75 L78.9 32.4 Q78.1 33.05 76.85 33.05 76.25 33.05 75.8 32.6 L75.7 32.45 75.65 32.5 Q75.25 33.2 74.1 33.2 73.45 33.2 73.15 32.9 L72.8 32.6 72.0 32.45 Q71.8 32.15 70.7 31.8 L69.95 32.65 68.0 32.9 66.65 32.65 66.15 32.45 64.85 32.9 64.15 32.65 63.5 32.4 62.65 32.55 61.35 32.3 61.15 32.6 60.4 32.95 58.9 32.95 58.2 32.5 57.45 33.75 Q56.9 34.25 54.8 33.75 54.25 33.65 53.95 32.75 53.65 31.9 52.75 31.9 L50.95 33.0 50.15 32.7 49.45 32.45 48.5 32.75 47.65 33.25 46.4 33.25 45.75 32.75 45.4 32.4 Q45.05 32.75 44.75 32.75 L43.45 32.5 43.1 32.95 Q42.7 33.45 42.1 33.45 L40.65 33.15 40.5 32.75 40.4 32.8 40.05 32.5 39.75 32.25 38.35 32.35 37.4 32.6 36.1 32.35 35.55 33.0 34.65 33.0 32.65 32.05 31.05 31.95 Q30.1 33.25 28.75 33.25 L27.4 32.95 26.4 32.65 25.85 33.0 Q24.95 33.0 24.1 32.45 L23.2 31.9 Q22.3 32.75 21.65 32.75 L20.9 32.55 20.65 33.05 20.15 33.65 Q18.9 34.25 18.2 33.85 L17.25 33.35 Q14.95 33.35 14.85 32.7 14.75 32.1 14.0 32.1 L13.55 32.5 12.45 32.9 Q12.0 32.9 11.6 32.5 L10.75 32.45 8.75 32.9 7.6 32.65 6.85 32.45 6.5 32.8 5.6 33.35 5.0 33.45 4.3 33.35 4.05 32.95 3.4 33.3 2.1 32.7 1.8 32.95 1.6 33.25 Q1.3 33.8 0.15 33.8 L0.15 33.0 0.75 33.0 Q0.85 32.45 1.3 32.0 L1.8 31.55 2.1 31.45 2.65 31.9 Q2.9 32.4 3.35 32.4 L3.6 32.15 Q3.7 31.95 4.2 31.95 L4.65 32.3 5.1 32.65 5.6 32.4 5.85 32.1 Q6.25 31.55 6.9 31.55 L7.25 31.65 7.2 31.9 8.5 32.25 9.25 32.0 11.0 31.75 12.0 31.95 12.6 32.2 Q12.85 32.2 13.0 31.85 L13.4 31.35 14.55 31.35 Q15.25 31.5 15.5 32.05 L15.8 32.75 16.75 32.8 16.8 32.65 Q16.9 32.5 17.2 32.5 17.45 32.5 18.0 32.8 L19.55 33.2 Q20.15 33.05 20.15 32.35 L20.15 31.3 20.7 31.15 21.05 31.5 Q21.4 31.9 21.75 31.9 L22.9 31.0 23.55 31.0 25.0 32.0 25.75 32.0 25.8 31.7 Q25.9 31.4 26.45 31.4 L27.3 31.9 29.25 32.4 29.95 31.6 Q30.5 31.0 30.95 31.0 L33.1 31.15 33.6 31.8 35.25 32.15 35.35 31.7 Q35.55 31.25 36.2 31.25 L37.05 31.75 37.75 31.75 37.85 31.55 39.45 31.5 Q39.7 31.25 40.2 31.25 L40.9 32.4 41.05 32.7 41.55 32.9 Q42.45 32.9 42.6 32.0 42.75 31.15 43.15 31.15 L43.7 31.5 Q44.15 31.85 44.65 31.85 L44.95 31.5 Q45.15 31.15 45.7 31.15 46.3 32.05 46.65 32.35 L47.55 32.35 49.45 31.15 50.15 31.65 50.95 32.25 51.25 31.5 52.05 31.75 52.15 31.3 Q52.25 31.1 52.8 31.1 53.9 31.1 54.3 32.0 54.75 33.0 55.4 33.2 L56.4 33.2 57.2 32.05 Q57.8 31.15 58.05 31.15 L59.15 32.15 60.35 32.15 60.9 31.5 61.55 31.5 62.35 31.7 62.8 31.8 63.0 31.55 Q63.1 31.35 63.45 31.35 L64.05 31.8 Q64.3 32.25 64.9 32.25 65.4 32.25 65.5 31.85 65.55 31.45 66.0 31.45 L66.6 31.8 Q67.05 32.2 68.8 32.2 L69.75 31.6 70.5 31.05 Q71.1 31.05 71.75 31.45 L72.4 31.85 73.45 32.1 Q73.65 32.4 74.1 32.4 74.7 32.4 74.85 32.0 L75.0 31.35 75.35 31.3 75.4 31.3 75.4 31.25 75.65 31.15 Q76.0 31.15 76.3 31.7 76.6 32.25 76.85 32.25 L77.8 32.15 78.15 31.5 Q78.35 31.15 78.9 31.15 L79.3 31.55 79.85 32.05 80.1 31.5 Q80.2 31.3 80.6 31.3 L81.0 31.4 80.95 31.8 Q81.0 32.05 81.45 32.05 L81.95 31.65 Q82.25 31.3 82.6 31.3 L83.15 32.6 Q83.65 33.9 84.55 33.9 85.45 33.9 85.9 32.65 86.4 31.4 86.75 31.4 87.3 31.4 87.55 31.75 L87.95 32.1 88.4 32.0 88.4 31.3 Q88.5 31.0 88.9 31.0 L89.6 31.45 90.6 31.95 91.15 31.85 91.1 31.45 Q91.15 31.2 91.6 31.2 92.05 31.2 92.2 31.45 L92.3 31.85 93.4 31.9 94.0 31.85 94.15 31.65 Q94.3 31.5 94.6 31.5 95.1 31.5 95.1 31.95 L95.1 32.05 95.1 32.1 95.5 32.95 96.1 33.0 96.25 32.9 96.05 31.95 Q96.05 31.25 97.0 31.25 L97.6 31.75 98.45 32.25 98.8 32.0 Q99.05 31.8 99.5 31.75 L99.6 31.7 100.45 31.45 100.95 31.25 Q101.2 31.25 101.35 31.5 101.55 31.75 102.05 31.75 L102.75 31.5 103.5 32.05 Q104.1 32.65 104.65 32.65 105.3 32.65 107.05 31.45 L107.9 31.45 109.05 32.25 110.05 32.25 110.4 31.9 111.35 31.85 111.9 31.95 112.0 32.35 112.6 31.9 113.15 31.45 Q114.25 31.45 114.35 32.05 L114.5 33.0 115.0 33.0" fill="#0f5521" fill-rule="evenodd" stroke="none"/>
    <path d="M115.0 4.0 L115.0 7.6 114.25 7.6 113.7 8.6 112.9 9.15 112.35 8.7 Q112.1 8.2 111.65 8.2 L111.4 8.45 110.8 8.65 110.35 8.3 109.9 7.95 Q109.6 7.95 109.15 8.5 108.75 9.05 108.1 9.05 L107.75 8.95 107.8 8.7 106.5 8.35 105.75 8.6 104.0 8.85 103.0 8.65 102.4 8.4 Q102.15 8.4 102.0 8.75 L101.6 9.25 100.45 9.25 Q99.75 9.1 99.5 8.55 L99.2 7.85 98.25 7.8 98.2 7.95 Q98.1 8.1 97.8 8.1 L97.0 7.8 95.45 7.4 Q94.85 7.55 94.85 8.25 L94.85 9.3 94.3 9.45 93.95 9.1 Q93.6 8.7 93.25 8.7 92.9 8.7 92.1 9.6 L91.45 9.6 90.0 8.6 89.25 8.6 89.2 8.9 Q89.1 9.2 88.55 9.2 L87.7 8.7 85.75 8.2 85.05 9.0 Q84.5 9.6 84.05 9.6 L81.9 9.45 81.4 8.8 79.75 8.45 79.65 8.9 Q79.45 9.35 78.8 9.35 L77.95 8.85 77.25 8.85 77.15 9.05 75.55 9.1 74.8 9.35 74.1 8.2 73.95 7.9 73.45 7.7 Q72.55 7.7 72.4 8.6 72.25 9.45 71.85 9.45 L71.3 9.1 Q70.85 8.75 70.35 8.75 L70.05 9.1 Q69.85 9.45 69.3 9.45 L68.35 8.25 67.45 8.25 65.55 9.45 64.85 8.95 64.05 8.35 63.75 9.1 62.95 8.85 62.85 9.3 62.2 9.5 Q61.1 9.5 60.7 8.6 L60.1 7.7 Q59.85 7.5 59.6 7.4 L58.6 7.4 57.8 8.55 56.95 9.45 55.85 8.45 54.65 8.45 Q54.4 8.6 54.1 9.1 L53.45 9.1 52.65 8.9 52.2 8.8 52.0 9.05 Q51.9 9.25 51.55 9.25 L50.95 8.8 Q50.7 8.35 50.1 8.35 49.6 8.35 49.5 8.75 49.45 9.15 49.0 9.15 L48.4 8.8 Q47.95 8.4 46.2 8.4 45.8 8.4 45.25 9.0 L44.5 9.55 Q43.9 9.55 43.25 9.15 L42.6 8.75 41.55 8.5 40.9 8.2 Q40.3 8.2 40.15 8.6 L40.0 9.25 39.65 9.3 39.6 9.3 39.6 9.35 39.35 9.45 Q39.0 9.45 38.7 8.9 L38.15 8.35 37.2 8.45 36.85 9.1 Q36.65 9.45 36.1 9.45 L35.7 9.05 35.15 8.55 34.9 9.1 Q34.8 9.3 34.4 9.3 L34.0 9.2 34.05 8.8 Q34.0 8.55 33.55 8.55 33.3 8.55 33.05 8.95 L32.4 9.3 31.85 8.0 Q31.35 6.7 30.45 6.7 29.55 6.7 29.1 7.95 L28.25 9.2 Q27.7 9.2 27.45 8.85 L27.05 8.5 26.6 8.6 26.6 9.3 Q26.5 9.6 26.1 9.6 L25.4 9.15 Q24.65 8.65 24.4 8.65 L23.85 8.75 23.9 9.15 Q23.85 9.4 23.4 9.4 L22.8 9.15 22.7 8.75 21.6 8.7 21.0 8.75 20.85 8.95 20.4 9.1 Q19.9 9.1 19.9 8.65 L19.9 8.55 19.9 8.5 19.5 7.65 18.9 7.6 18.75 7.7 18.95 8.65 Q18.95 9.35 18.0 9.35 L17.4 8.85 16.55 8.35 16.2 8.6 Q15.9 8.85 15.4 8.9 14.7 8.95 14.55 9.15 14.4 9.35 14.05 9.35 L13.65 9.1 12.95 8.85 12.25 9.1 11.5 8.55 Q10.9 7.95 10.35 7.95 9.7 7.95 7.95 9.15 L7.1 9.15 5.95 8.35 4.95 8.35 4.6 8.7 3.65 8.75 3.1 8.65 3.0 8.25 Q2.85 8.3 2.4 8.7 L1.85 9.15 1.8 9.15 Q0.75 9.15 0.65 8.55 L0.5 7.6 0.15 7.6 0.15 4.0 Q1.3 4.1 1.5 4.7 L1.55 5.65 1.8 5.4 Q2.6 4.65 3.1 4.65 L3.55 5.0 Q3.75 5.3 4.1 5.3 L4.55 5.05 5.55 4.8 5.6 4.8 Q6.35 4.8 6.8 5.2 L7.55 5.55 Q8.3 5.55 8.9 4.95 9.55 4.3 10.4 4.3 11.15 4.3 11.85 4.9 12.5 5.45 14.25 5.45 L15.65 5.1 16.45 4.7 17.1 4.7 17.95 5.15 Q17.95 3.2 19.45 4.0 20.55 4.55 20.85 5.2 L21.9 5.05 24.4 4.95 25.2 5.2 25.75 5.4 26.15 5.1 Q26.55 4.8 27.05 4.8 27.8 4.8 28.0 5.15 28.55 3.4 30.05 3.2 30.55 3.7 30.95 3.7 L31.85 3.65 Q32.55 4.15 32.7 5.3 L33.5 5.05 34.6 5.45 Q35.15 5.05 35.5 5.05 35.75 5.05 36.1 5.4 36.9 4.75 38.15 4.75 38.75 4.75 39.2 5.2 L39.3 5.35 39.35 5.3 Q39.75 4.6 40.9 4.6 41.55 4.6 41.85 4.9 L42.2 5.2 43.0 5.35 Q43.2 5.65 44.3 6.0 L45.05 5.15 47.0 4.9 48.35 5.15 48.85 5.35 Q49.6 4.9 50.15 4.9 L50.85 5.15 51.5 5.4 52.35 5.25 53.65 5.5 53.85 5.2 Q54.1 4.9 54.6 4.85 L56.1 4.85 56.8 5.3 Q57.2 4.35 57.55 4.05 58.1 3.55 60.1 4.05 L60.2 4.05 Q60.75 4.15 61.05 5.05 61.35 5.9 62.25 5.9 L64.05 4.8 Q64.35 4.8 64.85 5.1 L65.55 5.35 66.5 5.05 67.35 4.55 68.6 4.55 69.25 5.05 69.6 5.4 Q69.95 5.05 70.25 5.05 L71.55 5.3 71.9 4.85 Q72.3 4.35 72.9 4.35 L74.35 4.65 74.5 5.05 74.6 5.0 74.95 5.3 75.25 5.55 76.65 5.45 77.6 5.2 78.9 5.45 79.45 4.8 80.35 4.8 Q82.25 5.55 82.35 5.75 L83.95 5.85 Q84.9 4.55 86.25 4.55 L87.6 4.85 88.6 5.15 Q88.9 4.8 89.15 4.8 90.05 4.8 90.9 5.35 L91.8 5.9 Q92.7 5.05 93.35 5.05 L94.1 5.25 94.35 4.75 94.85 4.15 96.8 3.95 97.75 4.45 99.5 4.65 Q100.1 4.8 100.15 5.1 100.25 5.7 101.0 5.7 L101.45 5.3 Q101.95 4.9 102.55 4.9 103.0 4.9 103.4 5.3 L104.25 5.35 106.25 4.9 107.4 5.15 108.15 5.35 108.5 5.0 Q109.2 4.35 110.0 4.35 L110.7 4.45 110.95 4.85 Q111.4 4.5 111.6 4.5 L112.9 5.1 113.4 4.55 Q113.7 4.0 114.85 4.0 L114.9 4.0 115.0 4.0 M115.0 11.9 L115.0 12.7 114.85 12.7 Q113.7 12.6 113.5 12.0 113.4 11.65 113.45 11.05 112.45 12.05 111.9 12.05 L111.45 11.7 Q111.25 11.4 110.9 11.4 L110.45 11.65 109.75 11.9 109.9 12.7 Q109.9 13.85 108.65 14.1 107.9 13.2 107.9 12.85 107.9 12.55 108.55 12.25 109.0 12.0 109.5 11.9 L109.4 11.9 Q108.65 11.9 108.2 11.5 107.75 11.15 107.45 11.15 106.7 11.15 106.1 11.75 105.45 12.4 104.6 12.4 103.85 12.4 103.15 11.8 102.5 11.25 100.75 11.25 100.15 11.25 99.35 11.6 L98.55 12.0 97.9 12.0 97.05 11.55 Q97.05 13.5 95.55 12.7 94.45 12.15 94.15 11.5 L93.1 11.65 90.6 11.75 89.8 11.5 89.25 11.3 88.85 11.6 87.95 11.9 Q87.2 11.9 87.0 11.55 86.45 13.3 84.95 13.5 84.45 13.0 84.05 13.0 L83.15 13.05 Q82.45 12.55 82.3 11.4 L81.5 11.65 80.4 11.25 Q79.85 11.65 79.5 11.65 L78.9 11.3 Q78.1 11.95 76.85 11.95 76.25 11.95 75.8 11.5 L75.7 11.35 75.65 11.4 Q75.25 12.1 74.1 12.1 73.45 12.1 73.15 11.8 L72.8 11.5 72.0 11.35 Q71.8 11.05 70.7 10.7 L69.95 11.55 68.0 11.8 66.65 11.55 66.15 11.35 64.85 11.8 64.15 11.55 63.5 11.3 62.65 11.45 61.35 11.2 61.15 11.5 60.4 11.85 58.9 11.85 58.2 11.4 57.45 12.65 Q56.9 13.15 54.8 12.65 54.25 12.55 53.95 11.65 53.65 10.8 52.75 10.8 L50.95 11.9 50.15 11.6 49.45 11.35 48.5 11.65 47.65 12.15 46.4 12.15 45.75 11.65 45.4 11.3 Q45.05 11.65 44.75 11.65 L43.45 11.4 43.1 11.85 Q42.7 12.35 42.1 12.35 L40.65 12.05 40.5 11.65 40.4 11.7 40.05 11.4 39.75 11.15 38.35 11.25 37.4 11.5 36.1 11.25 35.55 11.9 34.65 11.9 32.65 10.95 31.05 10.85 Q30.1 12.15 28.75 12.15 L27.4 11.85 26.4 11.55 25.85 11.9 Q24.95 11.9 24.1 11.35 L23.2 10.8 Q22.3 11.65 21.65 11.65 L20.9 11.45 20.65 11.95 20.15 12.55 Q18.9 13.15 18.2 12.75 L17.25 12.25 15.5 12.05 Q14.9 11.9 14.85 11.6 14.75 11.0 14.0 11.0 L13.55 11.4 12.45 11.8 Q12.0 11.8 11.6 11.4 L10.75 11.35 8.75 11.8 7.6 11.55 6.85 11.35 6.5 11.7 Q5.8 12.35 5.0 12.35 L4.3 12.25 4.05 11.85 3.4 12.2 2.1 11.6 1.8 11.85 1.6 12.15 Q1.3 12.7 0.15 12.7 L0.15 11.9 0.75 11.9 Q0.85 11.35 1.3 10.9 L1.8 10.45 2.1 10.35 2.65 10.8 Q2.9 11.3 3.35 11.3 L3.6 11.05 Q3.7 10.85 4.2 10.85 L4.65 11.2 5.1 11.55 5.85 11.0 Q6.25 10.45 6.9 10.45 L7.25 10.55 7.2 10.8 8.5 11.15 9.25 10.9 11.0 10.65 12.0 10.85 12.6 11.1 Q12.85 11.1 13.0 10.75 L13.4 10.25 14.55 10.25 Q15.25 10.4 15.5 10.95 L15.8 11.65 16.75 11.7 16.8 11.55 Q16.9 11.4 17.2 11.4 17.45 11.4 18.0 11.7 L19.55 12.1 Q20.15 11.95 20.15 11.25 L20.15 10.2 20.7 10.05 21.05 10.4 Q21.4 10.8 21.75 10.8 L22.9 9.9 23.55 9.9 25.0 10.9 25.75 10.9 25.8 10.6 Q25.9 10.3 26.45 10.3 L27.3 10.8 29.25 11.3 29.95 10.5 Q30.5 9.9 30.95 9.9 L33.1 10.05 33.6 10.7 35.25 11.05 35.35 10.6 Q35.55 10.15 36.2 10.15 L37.05 10.65 37.75 10.65 37.85 10.45 39.45 10.4 Q39.7 10.15 40.2 10.15 L40.9 11.3 41.05 11.6 41.55 11.8 Q42.45 11.8 42.6 10.9 42.75 10.05 43.15 10.05 L43.7 10.4 Q44.15 10.75 44.65 10.75 L44.95 10.4 Q45.15 10.05 45.7 10.05 46.3 10.95 46.65 11.25 L47.55 11.25 49.45 10.05 50.15 10.55 50.95 11.15 51.25 10.4 52.05 10.65 52.15 10.2 Q52.25 10.0 52.8 10.0 53.9 10.0 54.3 10.9 54.75 11.9 55.4 12.1 L56.4 12.1 57.2 10.95 Q57.8 10.05 58.05 10.05 L59.15 11.05 60.35 11.05 60.9 10.4 61.55 10.4 62.35 10.6 62.8 10.7 63.0 10.45 Q63.1 10.25 63.45 10.25 L64.05 10.7 Q64.3 11.15 64.9 11.15 65.4 11.15 65.5 10.75 65.55 10.35 66.0 10.35 L66.6 10.7 Q67.05 11.1 68.8 11.1 L69.75 10.5 70.5 9.95 Q71.1 9.95 71.75 10.35 L72.4 10.75 73.45 11.0 Q73.65 11.3 74.1 11.3 74.7 11.3 74.85 10.9 L75.0 10.25 75.35 10.2 75.4 10.2 75.4 10.15 75.65 10.05 Q76.0 10.05 76.3 10.6 76.6 11.15 76.85 11.15 L77.8 11.05 78.15 10.4 Q78.35 10.05 78.9 10.05 L79.3 10.45 79.85 10.95 80.1 10.4 Q80.2 10.2 80.6 10.2 L81.0 10.3 80.95 10.7 Q81.0 10.95 81.45 10.95 L81.95 10.55 Q82.25 10.2 82.6 10.2 L83.15 11.5 Q83.65 12.8 84.55 12.8 85.45 12.8 85.9 11.55 86.4 10.3 86.75 10.3 87.3 10.3 87.55 10.65 L87.95 11.0 88.4 10.9 88.4 10.2 Q88.5 9.9 88.9 9.9 L89.6 10.35 90.6 10.85 91.15 10.75 91.1 10.35 Q91.15 10.1 91.6 10.1 92.05 10.1 92.2 10.35 L92.3 10.75 93.4 10.8 94.0 10.75 94.15 10.55 Q94.3 10.4 94.6 10.4 95.1 10.4 95.1 10.85 L95.1 10.95 95.1 11.0 95.5 11.85 96.1 11.9 96.25 11.8 96.05 10.85 Q96.05 10.15 97.0 10.15 L97.6 10.65 98.45 11.15 98.8 10.9 99.6 10.6 100.45 10.35 100.95 10.15 Q101.2 10.15 101.35 10.4 101.55 10.65 102.05 10.65 L102.75 10.4 103.5 10.95 Q104.1 11.55 104.65 11.55 105.3 11.55 107.05 10.35 L107.9 10.35 109.05 11.15 110.05 11.15 110.4 10.8 111.35 10.75 111.9 10.85 112.0 11.25 112.6 10.8 113.15 10.35 Q114.25 10.35 114.35 10.95 L114.5 11.9 115.0 11.9 M110.25 6.55 L108.9 6.3 108.8 6.85 108.9 7.4 109.9 7.45 110.3 7.4 110.25 7.3 110.3 6.8 110.25 6.55 M96.55 6.3 Q96.45 5.3 95.45 5.3 94.45 5.3 94.45 6.1 94.45 6.75 94.65 6.7 L95.8 6.9 96.55 6.3 M92.7 12.05 L92.8 12.0 92.9 12.4 92.75 12.95 92.55 13.1 92.15 13.2 91.65 12.9 91.65 11.95 92.7 12.05 M86.9 6.4 Q86.45 6.5 86.45 7.2 L86.9 7.55 87.4 7.4 87.45 7.05 86.9 6.4 M81.45 6.55 L79.9 6.55 79.8 7.1 79.9 7.65 81.15 7.7 81.5 7.6 81.55 7.05 81.45 6.55 M81.9 12.55 L81.9 13.0 81.8 13.85 81.65 14.1 81.15 14.2 Q80.35 14.2 80.2 13.75 L80.2 13.3 Q80.2 12.25 81.9 12.55 M98.8 13.15 L98.9 13.6 Q98.9 14.1 98.15 14.85 L97.35 14.35 97.2 14.05 Q97.2 13.55 97.55 13.25 L98.8 13.15 M70.55 6.7 Q70.45 5.85 69.6 6.0 68.8 6.1 68.8 7.0 L68.9 7.5 69.15 7.65 Q70.1 7.65 70.3 7.25 L70.55 6.7 M65.9 11.65 L66.35 11.75 Q66.55 11.8 66.55 12.15 L66.45 12.9 65.9 13.2 65.5 13.05 65.4 12.55 Q65.4 11.85 65.9 11.65 M70.05 12.85 L70.2 13.4 70.05 14.15 69.15 14.4 Q68.5 14.4 68.4 14.0 L68.4 13.55 68.5 12.9 70.05 12.85 M55.4 7.3 Q54.8 7.0 54.15 7.3 54.15 7.9 54.4 8.05 55.35 8.05 55.45 7.7 L55.4 7.3 M59.45 5.45 Q59.45 4.7 58.45 4.65 57.4 4.55 57.4 5.7 L57.45 6.3 58.4 6.55 Q58.8 6.55 59.15 6.15 L59.45 5.45 M47.65 13.2 L47.7 13.8 Q47.3 14.8 46.9 14.8 46.45 14.8 46.25 14.3 L46.15 13.7 46.15 13.2 47.65 13.2 M60.4 12.8 L60.45 13.6 Q60.45 14.3 60.1 14.55 L59.55 14.7 58.8 14.2 58.45 13.65 Q58.45 13.25 59.15 12.95 L60.1 12.75 60.4 12.8 M20.65 5.8 Q20.4 5.75 20.05 6.05 19.75 6.35 19.75 6.6 19.75 7.2 19.9 7.15 L20.9 7.2 21.4 6.3 Q21.1 6.0 20.65 5.8 M37.4 6.55 L37.0 6.7 36.9 7.2 37.0 7.75 37.4 7.9 37.9 7.7 37.95 6.55 37.4 6.55 M34.2 7.05 Q34.0 6.8 33.45 6.8 L33.45 6.7 33.4 7.05 33.5 7.45 33.9 7.4 34.2 7.05 M31.2 4.8 L30.05 4.85 29.95 5.45 30.1 5.85 30.9 6.65 31.15 6.45 31.4 5.5 31.3 4.95 31.2 4.8 M27.65 12.7 Q28.4 12.9 28.4 13.7 L28.3 14.2 28.15 14.35 Q28.25 14.55 27.65 14.55 L27.05 14.45 26.95 14.35 26.95 13.2 27.65 12.7 M34.75 12.05 Q35.15 12.3 35.15 12.8 34.9 12.8 34.9 13.1 L34.2 12.85 Q34.15 12.4 34.75 12.05 M5.9 6.15 L4.15 6.1 3.95 6.85 4.0 7.45 5.15 7.7 Q5.45 7.7 5.95 6.7 L5.9 6.15 M10.7 6.55 Q10.5 6.4 10.3 6.4 L10.15 6.4 10.2 7.05 10.5 7.05 10.7 6.55 M11.4 13.65 L10.65 14.6 9.65 14.35 9.5 14.25 9.45 13.85 Q9.45 12.7 10.45 12.8 11.4 12.85 11.4 13.65 M4.15 12.4 L4.25 13.55 Q4.3 13.8 3.65 13.8 3.4 13.8 3.1 13.5 L2.75 13.1 Q2.7 12.5 3.1 12.4 L4.15 12.4" fill="#20bf48" fill-rule="evenodd" stroke="none"/>
    <path d="M115.0 7.6 L115.0 11.9 114.5 11.9 114.35 10.95 Q114.25 10.35 113.15 10.35 L112.6 10.8 112.0 11.25 111.9 10.85 111.35 10.75 110.4 10.8 110.05 11.15 109.05 11.15 107.9 10.35 107.05 10.35 Q105.3 11.55 104.65 11.55 104.1 11.55 103.5 10.95 L102.75 10.4 102.05 10.65 Q101.55 10.65 101.35 10.4 101.2 10.15 100.95 10.15 L100.45 10.35 99.6 10.6 98.8 10.9 98.45 11.15 97.6 10.65 97.0 10.15 Q96.05 10.15 96.05 10.85 L96.25 11.8 96.1 11.9 95.5 11.85 95.1 11.0 95.1 10.95 95.1 10.85 Q95.1 10.4 94.6 10.4 94.3 10.4 94.15 10.55 L94.0 10.75 93.4 10.8 92.3 10.75 92.2 10.35 Q92.05 10.1 91.6 10.1 91.15 10.1 91.1 10.35 L91.15 10.75 90.6 10.85 89.6 10.35 88.9 9.9 Q88.5 9.9 88.4 10.2 L88.4 10.9 87.95 11.0 87.55 10.65 Q87.3 10.3 86.75 10.3 86.4 10.3 85.9 11.55 85.45 12.8 84.55 12.8 83.65 12.8 83.15 11.5 L82.6 10.2 Q82.25 10.2 81.95 10.55 L81.45 10.95 Q81.0 10.95 80.95 10.7 L81.0 10.3 80.6 10.2 Q80.2 10.2 80.1 10.4 L79.85 10.95 79.3 10.45 78.9 10.05 Q78.35 10.05 78.15 10.4 L77.8 11.05 76.85 11.15 Q76.6 11.15 76.3 10.6 76.0 10.05 75.65 10.05 L75.4 10.15 75.4 10.2 75.35 10.2 75.0 10.25 74.85 10.9 Q74.7 11.3 74.1 11.3 73.65 11.3 73.45 11.0 L72.4 10.75 71.75 10.35 Q71.1 9.95 70.5 9.95 L69.75 10.5 68.8 11.1 Q67.05 11.1 66.6 10.7 L66.0 10.35 Q65.55 10.35 65.5 10.75 65.4 11.15 64.9 11.15 64.3 11.15 64.05 10.7 L63.45 10.25 Q63.1 10.25 63.0 10.45 L62.8 10.7 62.35 10.6 61.55 10.4 60.9 10.4 60.35 11.05 59.15 11.05 58.05 10.05 Q57.8 10.05 57.2 10.95 L56.4 12.1 55.4 12.1 Q54.75 11.9 54.3 10.9 53.9 10.0 52.8 10.0 52.25 10.0 52.15 10.2 L52.05 10.65 51.25 10.4 50.95 11.15 50.15 10.55 49.45 10.05 47.55 11.25 46.65 11.25 Q46.3 10.95 45.7 10.05 45.15 10.05 44.95 10.4 L44.65 10.75 Q44.15 10.75 43.7 10.4 L43.15 10.05 Q42.75 10.05 42.6 10.9 42.45 11.8 41.55 11.8 L41.05 11.6 40.9 11.3 40.2 10.15 Q39.7 10.15 39.45 10.4 L37.85 10.45 37.75 10.65 37.05 10.65 36.2 10.15 Q35.55 10.15 35.35 10.6 L35.25 11.05 33.6 10.7 33.1 10.05 30.95 9.9 Q30.5 9.9 29.95 10.5 L29.25 11.3 27.3 10.8 26.45 10.3 Q25.9 10.3 25.8 10.6 L25.75 10.9 25.0 10.9 23.55 9.9 22.9 9.9 21.75 10.8 Q21.4 10.8 21.05 10.4 L20.7 10.05 20.15 10.2 20.15 11.25 Q20.15 11.95 19.55 12.1 L18.0 11.7 Q17.45 11.4 17.2 11.4 16.9 11.4 16.8 11.55 L16.75 11.7 15.8 11.65 15.5 10.95 Q15.25 10.4 14.55 10.25 L13.4 10.25 13.0 10.75 Q12.85 11.1 12.6 11.1 L12.0 10.85 11.0 10.65 9.25 10.9 8.5 11.15 7.2 10.8 7.25 10.55 6.9 10.45 Q6.25 10.45 5.85 11.0 L5.1 11.55 4.65 11.2 4.2 10.85 Q3.7 10.85 3.6 11.05 L3.35 11.3 Q2.9 11.3 2.65 10.8 L2.1 10.35 1.8 10.45 1.3 10.9 Q0.85 11.35 0.75 11.9 L0.15 11.9 0.15 7.6 0.5 7.6 0.65 8.55 Q0.75 9.15 1.8 9.15 L1.85 9.15 2.4 8.7 Q2.85 8.3 3.0 8.25 L3.1 8.65 3.65 8.75 4.6 8.7 4.95 8.35 5.95 8.35 7.1 9.15 7.95 9.15 Q9.7 7.95 10.35 7.95 10.9 7.95 11.5 8.55 L12.25 9.1 12.95 8.85 13.65 9.1 14.05 9.35 Q14.4 9.35 14.55 9.15 14.7 8.95 15.4 8.9 15.9 8.85 16.2 8.6 L16.55 8.35 17.4 8.85 18.0 9.35 Q18.95 9.35 18.95 8.65 L18.75 7.7 18.9 7.6 19.5 7.65 19.9 8.5 19.9 8.55 19.9 8.65 Q19.9 9.1 20.4 9.1 L20.85 8.95 21.0 8.75 21.6 8.7 22.7 8.75 22.8 9.15 23.4 9.4 Q23.85 9.4 23.9 9.15 L23.85 8.75 24.4 8.65 Q24.65 8.65 25.4 9.15 L26.1 9.6 Q26.5 9.6 26.6 9.3 L26.6 8.6 27.05 8.5 27.45 8.85 Q27.7 9.2 28.25 9.2 L29.1 7.95 Q29.55 6.7 30.45 6.7 31.35 6.7 31.85 8.0 L32.4 9.3 33.05 8.95 Q33.3 8.55 33.55 8.55 34.0 8.55 34.05 8.8 L34.0 9.2 34.4 9.3 Q34.8 9.3 34.9 9.1 L35.15 8.55 35.7 9.05 36.1 9.45 Q36.65 9.45 36.85 9.1 L37.2 8.45 38.15 8.35 38.7 8.9 Q39.0 9.45 39.35 9.45 L39.6 9.35 39.6 9.3 39.65 9.3 40.0 9.25 40.15 8.6 Q40.3 8.2 40.9 8.2 L41.55 8.5 42.6 8.75 43.25 9.15 Q43.9 9.55 44.5 9.55 L45.25 9.0 Q45.8 8.4 46.2 8.4 47.95 8.4 48.4 8.8 L49.0 9.15 Q49.45 9.15 49.5 8.75 49.6 8.35 50.1 8.35 50.7 8.35 50.95 8.8 L51.55 9.25 Q51.9 9.25 52.0 9.05 L52.2 8.8 52.65 8.9 53.45 9.1 54.1 9.1 Q54.4 8.6 54.65 8.45 L55.85 8.45 56.95 9.45 57.8 8.55 58.6 7.4 59.6 7.4 Q59.85 7.5 60.1 7.7 L60.7 8.6 Q61.1 9.5 62.2 9.5 L62.85 9.3 62.95 8.85 63.75 9.1 64.05 8.35 64.85 8.95 65.55 9.45 67.45 8.25 68.35 8.25 69.3 9.45 Q69.85 9.45 70.05 9.1 L70.35 8.75 Q70.85 8.75 71.3 9.1 L71.85 9.45 Q72.25 9.45 72.4 8.6 72.55 7.7 73.45 7.7 L73.95 7.9 74.1 8.2 74.8 9.35 75.55 9.1 77.15 9.05 77.25 8.85 77.95 8.85 78.8 9.35 Q79.45 9.35 79.65 8.9 L79.75 8.45 81.4 8.8 81.9 9.45 84.05 9.6 Q84.5 9.6 85.05 9.0 L85.75 8.2 87.7 8.7 88.55 9.2 Q89.1 9.2 89.2 8.9 L89.25 8.6 90.0 8.6 91.45 9.6 92.1 9.6 Q92.9 8.7 93.25 8.7 93.6 8.7 93.95 9.1 L94.3 9.45 94.85 9.3 94.85 8.25 Q94.85 7.55 95.45 7.4 L97.0 7.8 97.8 8.1 Q98.1 8.1 98.2 7.95 L98.25 7.8 99.2 7.85 99.5 8.55 Q99.75 9.1 100.45 9.25 L101.6 9.25 102.0 8.75 Q102.15 8.4 102.4 8.4 L103.0 8.65 104.0 8.85 105.75 8.6 106.5 8.35 107.8 8.7 107.75 8.95 108.1 9.05 Q108.75 9.05 109.15 8.5 109.6 7.95 109.9 7.95 L110.35 8.3 110.8 8.65 111.4 8.45 111.65 8.2 Q112.1 8.2 112.35 8.7 L112.9 9.15 113.7 8.6 114.25 7.6 115.0 7.6 M110.25 6.55 L110.3 6.8 110.25 7.3 110.3 7.4 109.9 7.45 108.9 7.4 108.8 6.85 108.9 6.3 110.25 6.55 M96.55 6.3 L95.8 6.9 94.65 6.7 Q94.45 6.75 94.45 6.1 94.45 5.3 95.45 5.3 96.45 5.3 96.55 6.3 M81.45 6.55 L81.55 7.05 81.5 7.6 81.15 7.7 79.9 7.65 79.8 7.1 79.9 6.55 81.45 6.55 M86.9 6.4 L87.45 7.05 87.4 7.4 86.9 7.55 86.45 7.2 Q86.45 6.5 86.9 6.4 M70.55 6.7 L70.3 7.25 Q70.1 7.65 69.15 7.65 L68.9 7.5 68.8 7.0 Q68.8 6.1 69.6 6.0 70.45 5.85 70.55 6.7 M59.45 5.45 L59.15 6.15 Q58.8 6.55 58.4 6.55 L57.45 6.3 57.4 5.7 Q57.4 4.55 58.45 4.65 59.45 4.7 59.45 5.45 M55.4 7.3 L55.45 7.7 Q55.35 8.05 54.4 8.05 54.15 7.9 54.15 7.3 54.8 7.0 55.4 7.3 M31.2 4.8 L31.3 4.95 31.4 5.5 31.15 6.45 30.9 6.65 30.1 5.85 29.95 5.45 30.05 4.85 31.2 4.8 M34.2 7.05 L33.9 7.4 33.5 7.45 33.4 7.05 33.45 6.7 33.45 6.8 Q34.0 6.8 34.2 7.05 M37.4 6.55 L37.95 6.55 37.9 7.7 37.4 7.9 37.0 7.75 36.9 7.2 37.0 6.7 37.4 6.55 M20.65 5.8 Q21.1 6.0 21.4 6.3 L20.9 7.2 19.9 7.15 Q19.75 7.2 19.75 6.6 19.75 6.35 20.05 6.05 20.4 5.75 20.65 5.8 M10.7 6.55 L10.5 7.05 10.2 7.05 10.15 6.4 10.3 6.4 Q10.5 6.4 10.7 6.55 M5.9 6.15 L5.95 6.7 Q5.45 7.7 5.15 7.7 L4.0 7.45 3.95 6.85 4.15 6.1 5.9 6.15" fill="#25d451" fill-rule="evenodd" stroke="none"/>
    <path d="M115.0 15.8 L115.0 28.85 115.0 33.0 114.5 33.0 114.35 32.05 Q114.25 31.45 113.15 31.45 L112.6 31.9 112.0 32.35 111.9 31.95 111.35 31.85 110.4 31.9 110.05 32.25 109.05 32.25 107.9 31.45 107.05 31.45 Q105.3 32.65 104.65 32.65 104.1 32.65 103.5 32.05 L102.75 31.5 102.05 31.75 Q101.55 31.75 101.35 31.5 101.2 31.25 100.95 31.25 L100.45 31.45 99.6 31.7 99.5 31.75 Q99.05 31.8 98.8 32.0 L98.45 32.25 97.6 31.75 97.0 31.25 Q96.05 31.25 96.05 31.95 L96.25 32.9 96.1 33.0 95.5 32.95 95.1 32.1 95.1 32.05 95.1 31.95 Q95.1 31.5 94.6 31.5 94.3 31.5 94.15 31.65 L94.0 31.85 93.4 31.9 92.3 31.85 92.2 31.45 Q92.05 31.2 91.6 31.2 91.15 31.2 91.1 31.45 L91.15 31.85 90.6 31.95 89.6 31.45 88.9 31.0 Q88.5 31.0 88.4 31.3 L88.4 32.0 87.95 32.1 87.55 31.75 Q87.3 31.4 86.75 31.4 86.4 31.4 85.9 32.65 85.45 33.9 84.55 33.9 83.65 33.9 83.15 32.6 L82.6 31.3 Q82.25 31.3 81.95 31.65 L81.45 32.05 Q81.0 32.05 80.95 31.8 L81.0 31.4 80.6 31.3 Q80.2 31.3 80.1 31.5 L79.85 32.05 79.3 31.55 78.9 31.15 Q78.35 31.15 78.15 31.5 L77.8 32.15 76.85 32.25 Q76.6 32.25 76.3 31.7 76.0 31.15 75.65 31.15 L75.4 31.25 75.4 31.3 75.35 31.3 75.0 31.35 74.85 32.0 Q74.7 32.4 74.1 32.4 73.65 32.4 73.45 32.1 L72.4 31.85 71.75 31.45 Q71.1 31.05 70.5 31.05 L69.75 31.6 68.8 32.2 Q67.05 32.2 66.6 31.8 L66.0 31.45 Q65.55 31.45 65.5 31.85 65.4 32.25 64.9 32.25 64.3 32.25 64.05 31.8 L63.45 31.35 Q63.1 31.35 63.0 31.55 L62.8 31.8 62.35 31.7 61.55 31.5 60.9 31.5 60.35 32.15 59.15 32.15 58.05 31.15 Q57.8 31.15 57.2 32.05 L56.4 33.2 55.4 33.2 Q54.75 33.0 54.3 32.0 53.9 31.1 52.8 31.1 52.25 31.1 52.15 31.3 L52.05 31.75 51.25 31.5 50.95 32.25 50.15 31.65 49.45 31.15 47.55 32.35 46.65 32.35 Q46.3 32.05 45.7 31.15 45.15 31.15 44.95 31.5 L44.65 31.85 Q44.15 31.85 43.7 31.5 L43.15 31.15 Q42.75 31.15 42.6 32.0 42.45 32.9 41.55 32.9 L41.05 32.7 40.9 32.4 40.2 31.25 Q39.7 31.25 39.45 31.5 L37.85 31.55 37.75 31.75 37.05 31.75 36.2 31.25 Q35.55 31.25 35.35 31.7 L35.25 32.15 33.6 31.8 33.1 31.15 30.95 31.0 Q30.5 31.0 29.95 31.6 L29.25 32.4 27.3 31.9 26.45 31.4 Q25.9 31.4 25.8 31.7 L25.75 32.0 25.0 32.0 23.55 31.0 22.9 31.0 21.75 31.9 Q21.4 31.9 21.05 31.5 L20.7 31.15 20.15 31.3 20.15 32.35 Q20.15 33.05 19.55 33.2 L18.0 32.8 Q17.45 32.5 17.2 32.5 16.9 32.5 16.8 32.65 L16.75 32.8 15.8 32.75 15.5 32.05 Q15.25 31.5 14.55 31.35 L13.4 31.35 13.0 31.85 Q12.85 32.2 12.6 32.2 L12.0 31.95 11.0 31.75 9.25 32.0 8.5 32.25 7.2 31.9 7.25 31.65 6.9 31.55 Q6.25 31.55 5.85 32.1 L5.6 32.4 5.1 32.65 4.65 32.3 4.2 31.95 Q3.7 31.95 3.6 32.15 L3.35 32.4 Q2.9 32.4 2.65 31.9 L2.1 31.45 1.8 31.55 1.3 32.0 Q0.85 32.45 0.75 33.0 L0.15 33.0 0.15 28.85 0.15 15.8 Q1.3 15.7 1.5 15.1 L1.55 14.15 1.8 14.4 Q2.6 15.15 3.1 15.15 L3.55 14.8 Q3.75 14.5 4.1 14.5 L4.55 14.75 5.55 15.0 5.6 15.0 Q6.35 15.0 6.8 14.6 7.25 14.25 7.55 14.25 8.3 14.25 8.9 14.85 9.55 15.5 10.4 15.5 11.15 15.5 11.85 14.9 12.5 14.35 14.25 14.35 14.85 14.35 15.65 14.7 L16.45 15.1 17.1 15.1 Q17.8 14.65 17.95 14.65 17.95 16.6 19.45 15.8 20.55 15.25 20.85 14.6 L21.9 14.75 24.4 14.85 25.2 14.6 25.75 14.4 26.15 14.7 27.05 15.0 Q27.8 15.0 28.0 14.65 28.6 16.65 30.5 16.6 32.4 16.5 32.7 14.5 L33.5 14.75 34.6 14.35 Q35.15 14.75 35.5 14.75 L36.1 14.4 Q36.9 15.05 38.15 15.05 38.75 15.05 39.2 14.6 L39.3 14.45 39.35 14.5 Q39.75 15.2 40.9 15.2 41.55 15.2 41.85 14.9 L42.2 14.6 43.0 14.45 Q43.2 14.15 44.3 13.8 L45.05 14.65 47.0 14.9 48.35 14.65 48.85 14.45 50.15 14.9 50.85 14.65 51.5 14.4 52.35 14.55 53.65 14.3 53.85 14.6 Q54.1 14.9 54.6 14.95 L56.1 14.95 56.8 14.5 57.55 15.75 60.1 15.8 60.2 15.75 Q60.75 15.65 61.05 14.75 61.35 13.9 62.25 13.9 L64.05 15.0 64.85 14.7 65.55 14.45 Q66.0 14.45 66.5 14.75 L67.35 15.25 68.6 15.25 69.25 14.75 69.6 14.4 Q69.95 14.75 70.25 14.75 L71.55 14.5 71.9 14.95 Q72.3 15.45 72.9 15.45 L74.35 15.15 74.5 14.75 74.6 14.8 74.95 14.5 75.25 14.25 76.65 14.35 77.6 14.6 78.9 14.35 79.45 15.0 80.35 15.0 Q82.25 14.25 82.35 14.05 L83.95 13.95 Q84.9 15.25 86.25 15.25 L87.6 14.95 Q88.25 14.65 88.6 14.65 88.9 15.0 89.15 15.0 90.05 15.0 90.9 14.45 L91.8 13.9 Q92.7 14.75 93.35 14.75 L94.1 14.55 94.35 15.05 94.85 15.65 96.8 15.85 97.75 15.35 99.5 15.15 100.15 14.7 Q100.25 14.1 101.0 14.1 L101.45 14.5 Q101.95 14.9 102.55 14.9 103.0 14.9 103.4 14.5 L104.25 14.45 106.25 14.9 107.4 14.65 108.15 14.45 108.5 14.8 Q109.2 15.45 110.0 15.45 L110.7 15.35 110.95 14.95 Q111.4 15.3 111.6 15.3 L112.9 14.7 113.4 15.25 Q113.7 15.8 114.85 15.8 L114.9 15.8 115.0 15.8 M113.3 19.15 Q113.0 18.75 112.55 18.5 L111.9 18.4 111.8 19.0 111.9 19.65 112.0 19.75 112.55 19.8 113.1 19.65 113.3 19.15 M108.0 20.8 L106.9 20.75 Q106.4 20.95 106.4 21.35 L106.5 21.85 106.9 21.95 Q108.15 21.7 108.15 21.15 L108.1 20.75 108.0 20.8 M102.9 16.15 L102.55 16.25 Q102.4 16.4 102.4 16.8 L102.45 17.35 103.15 17.4 103.3 17.2 103.4 16.75 102.9 16.15 M107.75 16.8 Q106.15 16.5 106.15 17.45 106.15 18.35 107.15 18.35 107.8 18.35 107.8 18.1 L107.9 17.45 107.75 16.8 M92.15 17.8 Q91.4 17.1 90.75 17.25 90.2 17.4 90.2 18.05 L90.9 18.85 91.8 18.3 92.15 17.8 M88.65 20.45 L87.7 20.5 Q87.05 20.7 87.05 21.15 87.05 21.8 87.15 21.7 L88.15 21.8 88.55 21.7 88.65 21.6 88.7 20.85 88.65 20.45 M84.45 16.55 Q83.7 16.35 82.85 16.55 81.9 16.75 81.9 17.35 81.9 18.2 83.05 18.2 84.65 18.2 84.65 17.2 L84.55 16.7 84.45 16.55 M100.45 20.1 Q99.65 19.75 99.3 20.4 99.05 20.95 99.2 21.35 L100.15 21.6 100.55 21.5 100.55 21.4 100.65 20.75 100.55 20.25 100.45 20.1 M95.7 22.35 Q94.85 22.05 94.45 22.35 94.2 22.55 94.2 22.9 94.2 23.55 94.3 23.45 L95.05 23.6 Q95.4 23.6 95.65 23.3 L95.9 22.9 95.7 22.35 M98.8 16.2 Q97.4 16.2 97.4 17.3 L97.4 17.75 Q97.6 18.15 98.4 18.15 L99.35 17.85 Q99.9 17.55 99.9 17.1 L99.8 16.55 99.7 16.35 98.8 16.2 M77.95 20.6 Q77.3 20.15 76.15 20.15 L76.05 20.65 Q76.05 21.3 76.15 21.2 L77.15 21.3 77.9 21.1 77.95 20.6 M77.65 15.9 Q76.9 15.6 76.25 16.1 75.7 16.5 75.7 17.15 L76.4 17.85 Q77.8 17.9 77.8 16.35 L77.75 16.0 77.65 15.9 M69.95 21.7 L69.1 21.9 Q68.65 22.15 68.65 22.35 L68.65 22.75 68.8 22.85 69.4 22.95 Q70.2 22.95 70.2 22.2 L70.15 21.8 69.95 21.7 M62.9 18.85 Q62.9 17.85 61.8 17.85 60.65 17.85 60.65 18.6 L60.95 19.25 Q61.4 19.85 62.15 19.85 62.8 19.85 62.8 19.6 L62.9 18.85 M72.4 16.85 Q72.4 15.7 71.15 16.0 69.9 16.25 69.9 17.3 L69.9 18.2 70.05 18.3 70.65 18.4 Q71.35 18.4 71.9 17.8 L72.4 16.85 M43.15 21.3 L41.8 21.35 Q41.25 21.75 41.25 22.3 41.25 22.95 41.4 22.95 L42.65 22.95 43.15 22.8 43.25 22.1 43.15 21.3 M45.9 18.4 L44.8 18.45 Q44.5 18.65 44.5 19.05 L44.6 19.55 44.9 19.7 45.95 19.35 46.0 18.85 45.9 18.4 M50.65 16.15 Q48.2 14.65 48.2 16.05 L48.25 16.4 Q48.5 16.85 49.65 16.85 L50.15 16.55 50.65 16.15 M59.45 22.15 Q58.45 21.85 58.0 22.35 L57.7 22.95 Q57.7 23.6 57.9 23.55 L59.15 23.8 Q59.55 23.8 59.6 23.6 L59.55 22.9 59.45 22.15 M56.2 18.4 L54.4 18.5 Q53.95 18.85 53.95 19.45 L54.15 19.95 Q54.45 20.4 55.05 20.4 L55.85 20.1 56.4 19.45 56.2 18.4 M38.65 18.1 Q38.65 16.85 36.95 17.15 35.25 17.5 35.25 18.85 L35.25 19.5 Q35.4 20.05 36.15 20.05 37.55 20.05 38.25 19.15 38.65 18.6 38.65 18.1 M30.4 21.65 Q30.3 20.3 29.55 20.65 28.8 21.0 28.75 22.05 L29.15 22.25 29.65 22.3 Q30.4 22.3 30.4 21.65 M23.25 20.55 Q23.25 19.65 22.35 19.4 21.45 19.15 21.45 20.0 L21.7 20.65 Q22.1 21.3 22.9 21.3 23.55 21.3 23.2 21.1 L23.25 20.55 M26.4 16.95 Q25.6 16.1 25.0 16.15 24.45 16.2 24.45 17.1 24.45 17.75 24.65 17.8 L25.9 17.85 Q26.3 17.85 26.4 17.5 L26.4 16.95 M11.5 16.85 Q11.0 16.4 10.45 16.6 10.0 16.75 10.0 17.1 L10.1 17.55 10.25 17.65 10.3 17.75 10.8 17.8 11.4 17.6 11.65 17.2 11.5 16.85 M6.7 16.6 Q5.45 16.2 5.45 17.3 L6.15 18.1 6.65 17.9 6.9 17.35 6.8 16.8 6.7 16.6 M18.2 22.65 L16.9 22.65 16.75 22.8 16.75 23.15 Q16.75 23.8 16.9 23.7 L17.9 23.8 18.3 23.7 18.25 23.6 18.4 23.1 18.3 22.75 18.2 22.65 M15.95 17.4 L13.9 17.3 Q13.45 17.45 13.45 18.05 L13.6 18.6 Q13.95 19.1 14.9 19.1 15.4 19.1 15.7 18.7 L16.0 17.85 15.95 17.4 M9.15 21.1 Q8.8 21.2 8.75 21.25 L8.65 21.8 8.75 22.3 9.15 22.45 9.7 21.95 Q9.7 21.3 9.15 21.1 M3.65 19.35 Q2.9 18.95 2.2 19.55 L1.8 20.0 1.65 20.4 1.7 21.35 1.8 21.4 3.15 21.6 Q3.6 21.6 3.7 21.25 L3.75 20.45 3.65 19.35 M0.15 28.85 L115.0 28.85 0.15 28.85" fill="#178834" fill-rule="evenodd" stroke="none"/>
  </g>
</svg>
