<?xml version="1.0" encoding="UTF-8" standalone="no"?>
<svg xmlns:ffdec="https://www.free-decompiler.com/flash" xmlns:xlink="http://www.w3.org/1999/xlink" ffdec:objectType="shape" height="51.05px" width="51.6px" xmlns="http://www.w3.org/2000/svg">
  <g transform="matrix(1.0, 0.0, 0.0, 1.0, 25.8, 25.5)">
    <path d="M13.25 -16.85 Q13.15 -16.25 12.75 -16.0 L11.9 -15.9 Q10.5 -16.1 10.05 -16.75 9.7 -17.4 10.0 -18.0 10.25 -18.6 10.95 -18.7 L11.2 -18.8 12.45 -18.35 13.2 -17.65 13.25 -16.85 M16.3 -15.4 L16.75 -15.25 17.2 -14.5 17.25 -13.6 17.35 -12.3 16.9 -11.6 Q16.5 -11.3 16.05 -11.35 15.6 -11.4 15.3 -11.75 15.0 -12.1 15.0 -12.55 L15.15 -13.35 15.15 -14.3 Q15.25 -14.95 15.5 -15.15 L16.3 -15.4 M8.45 -20.2 L7.75 -19.3 Q6.55 -18.55 5.3 -19.1 L4.65 -19.4 3.45 -19.7 Q2.75 -20.05 2.75 -20.75 2.75 -21.5 3.4 -21.85 L4.5 -22.1 6.2 -22.25 7.85 -21.75 Q8.7 -21.1 8.45 -20.2 M-0.65 -22.55 Q-0.05 -22.35 0.05 -22.05 0.35 -21.6 0.25 -20.95 L0.1 -20.2 Q-0.1 -19.8 -0.4 -19.7 L-0.85 -19.65 -1.35 -19.45 -1.85 -19.55 -2.4 -19.9 -2.5 -20.4 -2.5 -21.6 -2.35 -22.3 -1.9 -22.6 -0.65 -22.55 M20.05 -5.85 Q19.5 -5.7 18.95 -6.1 L18.2 -7.0 17.75 -7.75 17.55 -8.45 17.85 -9.1 Q18.25 -9.55 18.75 -9.7 19.45 -9.8 19.75 -9.35 L20.6 -7.75 Q20.9 -7.15 20.8 -6.7 20.7 -6.0 20.05 -5.85 M19.4 -1.85 L19.6 -2.35 20.05 -2.95 21.2 -3.15 21.95 -2.3 22.05 -1.35 22.15 -0.9 21.9 -0.45 21.25 0.7 Q20.8 1.05 20.3 1.0 19.8 0.95 19.45 0.5 L19.25 -0.8 Q19.25 -1.5 19.4 -1.85 M-19.95 -0.6 L-19.95 -0.5 Q-20.7 -0.5 -20.95 -0.8 L-21.25 -1.6 -21.1 -2.4 Q-20.8 -2.9 -20.4 -2.8 L-20.25 -2.85 Q-19.75 -2.9 -19.25 -2.2 L-19.1 -1.65 -19.35 -1.1 -19.5 -0.95 Q-19.65 -0.6 -19.95 -0.6 M-17.8 -7.1 Q-17.85 -6.75 -18.35 -6.35 -18.95 -5.7 -19.6 -5.6 -20.5 -5.4 -20.9 -6.0 -21.35 -6.65 -20.85 -7.45 -20.3 -8.35 -19.35 -8.5 L-19.25 -8.6 Q-18.35 -8.5 -18.1 -8.05 L-17.9 -7.5 -17.8 -7.1 M-4.5 -20.3 L-4.65 -19.9 -4.6 -19.35 Q-4.6 -19.05 -4.95 -18.7 L-5.85 -18.1 -6.9 -18.2 -7.55 -19.05 -7.75 -20.1 -7.5 -20.95 Q-7.1 -21.45 -6.2 -21.45 L-6.0 -21.6 -4.95 -21.25 Q-4.35 -20.85 -4.5 -20.3 M-10.15 -18.65 Q-9.7 -18.2 -9.95 -17.45 -10.2 -16.8 -10.85 -16.55 L-10.95 -16.45 -12.15 -16.45 Q-12.85 -16.45 -13.35 -16.8 -13.7 -17.1 -13.75 -17.65 -13.75 -18.15 -13.4 -18.5 L-12.25 -18.95 -11.15 -19.1 -10.15 -18.65 M-17.8 -13.25 L-17.7 -13.5 -16.75 -14.45 Q-15.95 -14.7 -15.45 -14.15 -15.05 -13.65 -15.25 -12.7 L-15.4 -12.05 Q-15.55 -11.5 -15.85 -11.15 -16.25 -10.75 -16.75 -10.75 L-17.3 -10.9 -17.8 -11.25 -17.85 -11.35 -18.0 -12.2 -17.8 -13.25 M-19.15 2.9 Q-18.9 3.3 -19.0 4.25 L-19.1 5.05 -19.55 5.5 -20.2 6.0 Q-21.25 6.0 -21.6 5.65 -22.0 5.25 -21.9 4.05 L-21.55 3.0 -20.85 2.7 -19.95 2.55 Q-19.5 2.55 -19.15 2.9 M-17.65 8.5 L-17.1 9.1 Q-16.7 9.7 -16.65 10.1 -16.5 10.7 -16.85 11.15 -17.25 11.55 -18.0 11.45 L-19.1 10.8 -19.65 10.35 -20.15 9.7 Q-20.4 9.1 -19.85 8.55 -19.45 8.1 -18.75 8.1 -18.15 8.1 -17.65 8.5 M-16.75 13.95 Q-17.1 13.65 -17.1 12.85 -17.1 12.05 -16.75 11.75 L-16.35 11.6 -15.2 11.7 Q-14.6 12.05 -14.7 13.0 L-14.85 13.55 -15.15 13.85 -15.7 14.15 -16.2 14.15 -16.75 13.95 M-11.5 18.55 L-12.9 17.8 -13.9 17.05 Q-14.35 16.4 -14.1 15.85 -13.85 15.35 -12.9 15.15 L-12.25 14.95 -11.1 15.3 Q-10.45 15.65 -10.4 16.25 L-10.45 16.75 -10.25 17.25 Q-10.0 17.85 -10.5 18.3 -10.85 18.75 -11.5 18.55 M-4.85 18.9 L-4.75 19.3 -4.5 19.6 Q-4.0 20.1 -4.25 20.65 -4.4 21.25 -5.1 21.35 -5.35 21.35 -5.45 21.5 L-7.3 21.3 Q-8.45 21.0 -8.75 20.25 L-8.7 19.35 Q-8.5 18.9 -8.1 18.7 L-7.25 18.45 -6.25 17.95 -5.35 18.1 Q-4.9 18.4 -4.85 18.9 M-2.25 20.65 L-2.15 20.1 -1.7 19.8 -1.05 19.7 -0.4 20.05 0.1 20.55 Q0.4 20.95 0.25 21.3 L0.05 21.8 -0.05 22.2 Q-0.3 22.75 -0.9 22.85 -1.45 22.9 -1.9 22.4 L-2.1 21.95 -2.2 21.55 -2.25 20.65 M21.05 4.95 L21.05 5.05 19.85 4.9 Q19.3 4.4 19.45 3.7 L19.65 3.2 20.2 2.9 20.45 2.85 21.0 3.0 21.4 3.5 21.6 3.9 Q21.75 4.55 21.05 4.95 M17.75 7.75 L17.9 7.45 18.05 7.1 Q18.4 6.5 19.25 6.6 L19.8 6.75 20.15 7.3 20.45 8.25 Q20.55 8.8 20.25 9.15 20.0 9.5 19.55 9.65 L19.0 9.85 18.3 9.6 17.75 9.15 17.6 8.4 Q17.6 7.95 17.75 7.75 M13.7 13.7 L14.3 13.05 14.8 12.3 15.0 11.65 Q15.2 11.4 15.65 11.3 L15.95 11.2 Q16.65 11.2 17.0 11.7 L17.35 12.55 17.4 13.3 17.0 14.0 16.45 14.7 Q15.65 15.7 14.9 15.75 14.05 15.85 13.65 15.1 13.3 14.4 13.7 13.7 M11.55 18.5 L11.05 18.6 Q10.05 18.7 9.8 17.95 9.65 17.75 9.75 17.35 9.8 16.9 10.15 16.4 10.55 16.0 11.3 15.8 L12.4 15.95 Q13.05 16.3 12.95 16.85 L12.05 18.1 11.55 18.5 M6.9 21.35 Q6.45 22.1 5.55 22.35 L4.85 22.4 4.45 22.45 4.4 22.45 Q3.35 22.35 3.1 21.75 2.95 21.4 3.05 20.95 L3.1 20.25 3.3 19.45 Q3.5 19.15 4.1 18.95 L6.25 18.5 7.3 18.8 Q7.8 19.2 7.65 19.75 L7.35 20.3 6.9 21.35" fill="#87465e" fill-rule="evenodd" stroke="none"/>
    <path d="M-25.15 -5.2 Q-24.95 -6.2 -24.3 -6.75 L-24.3 -6.85 Q-24.1 -7.1 -24.05 -7.3 L-24.0 -8.35 -23.75 -9.7 -23.7 -9.75 Q-23.5 -10.85 -22.6 -11.75 -22.0 -12.35 -21.95 -13.0 L-21.7 -13.7 Q-21.35 -14.45 -20.55 -14.75 -20.2 -14.95 -20.15 -15.3 L-20.15 -15.35 Q-20.1 -16.55 -19.0 -17.15 -18.3 -17.55 -17.9 -18.1 L-17.9 -18.2 -16.65 -19.55 -16.6 -19.55 Q-15.9 -20.3 -14.4 -20.65 L-14.4 -20.6 -12.95 -21.6 -12.8 -21.8 Q-11.9 -23.25 -11.15 -23.35 L-9.85 -23.7 -8.45 -23.85 -8.4 -23.85 Q-7.85 -23.9 -7.3 -24.3 -6.3 -25.05 -5.8 -25.05 L-4.85 -25.2 -4.8 -25.2 -3.2 -24.95 -2.2 -25.05 Q-1.5 -25.75 0.0 -25.4 1.5 -25.75 2.3 -25.05 L3.15 -24.95 3.2 -24.95 4.8 -25.2 4.85 -25.2 5.8 -25.05 Q6.3 -25.05 7.3 -24.3 7.9 -23.9 8.45 -23.85 L9.85 -23.7 9.75 -23.7 11.15 -23.35 Q11.9 -23.25 12.85 -21.8 L13.05 -21.5 14.45 -20.55 14.5 -20.55 14.4 -20.65 Q15.9 -20.3 16.65 -19.55 L17.9 -18.2 17.9 -18.1 Q18.3 -17.55 19.0 -17.15 L19.05 -17.15 Q20.1 -16.55 20.15 -15.35 L20.15 -15.3 Q20.2 -14.95 20.65 -14.75 L20.55 -14.75 Q21.7 -14.3 21.95 -13.0 22.0 -12.35 22.6 -11.75 23.5 -10.85 23.75 -9.75 L23.75 -9.7 24.0 -8.35 24.05 -7.3 Q24.1 -7.1 24.3 -6.85 L24.4 -6.75 25.2 -5.15 Q25.4 -4.1 25.15 -3.2 L25.05 -3.15 25.05 -3.0 24.9 -2.55 25.0 -1.4 25.0 -1.35 25.05 -1.25 25.3 -0.8 25.35 -0.75 Q25.95 0.2 25.75 1.15 L25.55 1.9 25.5 2.45 25.35 3.3 25.3 3.4 24.95 4.05 Q24.6 4.55 24.55 5.1 L24.6 6.55 24.6 6.6 24.45 8.0 Q24.4 8.75 23.15 9.85 L22.9 10.1 22.15 11.55 22.15 11.6 Q22.05 13.2 21.4 13.95 L20.15 15.35 Q19.6 15.8 19.25 16.55 18.8 17.7 17.7 17.95 L17.55 17.95 Q17.2 18.05 17.1 18.5 L17.1 18.45 Q16.75 19.6 15.6 20.0 14.9 20.15 14.4 20.75 L14.4 20.85 12.55 22.2 11.2 22.6 10.2 22.75 9.95 22.85 9.7 23.1 9.7 23.15 Q9.15 23.75 8.2 24.2 L8.15 24.25 6.2 24.3 6.3 24.3 5.7 24.25 4.3 24.55 3.85 24.85 3.75 24.85 Q2.85 25.55 2.0 25.55 L1.9 25.55 0.0 25.05 -1.9 25.55 -2.0 25.55 Q-2.85 25.55 -3.75 24.85 L-4.25 24.55 -5.7 24.25 -6.3 24.3 -6.2 24.3 -8.15 24.25 -8.2 24.2 -9.65 23.15 -9.7 23.1 -9.9 22.9 -10.2 22.75 -11.15 22.6 -12.5 22.2 Q-13.6 21.8 -14.35 20.85 L-14.4 20.75 Q-14.9 20.15 -15.5 20.0 L-15.6 20.0 Q-16.75 19.6 -17.0 18.45 L-17.0 18.5 Q-17.2 18.05 -17.55 17.95 L-17.65 17.95 Q-18.8 17.7 -19.25 16.55 -19.6 15.8 -20.1 15.35 L-21.4 13.95 Q-22.05 13.2 -22.15 11.6 L-22.95 10.0 -23.1 9.85 Q-24.4 8.75 -24.45 8.0 L-24.6 6.6 -24.6 6.55 -24.55 5.1 -24.85 4.05 -25.3 3.4 -25.3 3.3 -25.5 2.45 -25.55 1.9 -25.75 1.15 Q-25.95 0.2 -25.3 -0.75 L-25.3 -0.8 -25.05 -1.25 -25.0 -1.35 -24.95 -1.4 -24.9 -2.6 -25.0 -3.0 -25.05 -3.15 -25.05 -3.2 Q-25.5 -4.1 -25.15 -5.15 L-25.15 -5.2 M-24.25 -5.2 L-24.3 -4.95 Q-24.5 -4.3 -24.3 -3.7 L-24.25 -3.55 -24.2 -3.3 -24.15 -3.25 -24.0 -2.1 -24.15 -1.1 -24.2 -1.0 -24.5 -0.25 Q-25.0 0.4 -24.9 0.95 L-24.85 1.05 -24.7 1.8 -24.7 1.85 -24.6 2.45 -24.5 2.95 -24.45 3.1 -24.1 3.6 -24.15 3.6 Q-23.65 4.45 -23.65 5.25 L-23.65 5.4 -23.75 6.5 -23.75 6.55 -23.6 7.75 -23.6 7.8 -23.55 8.0 -22.5 9.2 Q-21.55 10.1 -21.25 11.45 L-21.25 11.5 Q-21.2 12.65 -20.8 13.25 L-20.7 13.5 -19.5 14.75 -18.5 16.2 Q-18.2 16.85 -17.55 17.1 L-17.4 17.1 Q-16.6 17.15 -16.2 18.15 -16.15 18.85 -15.3 19.2 L-15.25 19.2 Q-14.35 19.4 -13.7 20.25 L-13.65 20.3 -12.2 21.35 -12.15 21.4 -10.95 21.8 -10.9 21.8 -10.05 21.9 -9.95 21.9 Q-9.55 22.0 -8.95 22.6 L-7.85 23.45 -7.8 23.45 -6.55 23.5 -6.4 23.45 -4.95 23.4 -4.9 23.4 Q-3.95 23.5 -3.3 24.15 L-3.3 24.1 -3.2 24.2 -3.1 24.3 -2.1 24.7 -1.9 24.7 -0.05 24.2 0.05 24.15 0.1 24.2 2.0 24.7 2.2 24.7 3.2 24.3 3.4 24.15 3.45 24.05 Q4.05 23.5 4.95 23.4 L5.0 23.4 6.4 23.45 6.55 23.5 7.85 23.45 7.9 23.45 8.9 22.75 8.95 22.7 9.1 22.6 Q9.6 22.0 10.0 21.9 L10.05 21.9 10.95 21.8 11.05 21.8 12.25 21.4 12.35 21.35 13.55 20.45 13.65 20.4 13.8 20.25 Q14.45 19.4 15.35 19.2 L15.65 19.05 16.3 18.3 16.3 18.15 Q16.65 17.15 17.45 17.1 L17.55 17.1 Q18.2 16.85 18.5 16.2 18.9 15.3 19.55 14.75 L19.6 14.75 20.7 13.5 20.8 13.25 Q21.2 12.65 21.25 11.5 L21.25 11.45 Q21.55 10.1 22.6 9.2 L23.55 8.0 23.6 7.8 23.6 7.75 23.75 6.55 23.75 6.5 23.65 5.4 23.65 5.25 Q23.65 4.45 24.2 3.6 L24.2 3.55 24.45 3.1 24.55 2.95 24.6 2.6 24.7 2.3 24.7 1.95 24.75 1.75 24.9 1.05 24.9 0.95 24.65 -0.2 24.6 -0.3 Q24.25 -0.7 24.2 -1.0 L24.2 -1.1 24.0 -2.1 24.2 -3.25 24.2 -3.35 24.35 -3.7 24.4 -4.9 24.4 -4.95 23.75 -6.2 23.75 -6.25 Q23.2 -6.8 23.2 -7.2 L23.2 -7.3 23.1 -8.3 23.0 -9.25 23.0 -9.6 22.0 -11.15 21.85 -11.25 Q21.15 -12.0 21.05 -12.85 21.0 -13.6 20.25 -14.0 19.35 -14.45 19.3 -15.25 L19.3 -15.35 Q19.15 -16.0 18.6 -16.4 17.75 -16.95 17.25 -17.6 L16.15 -18.85 16.05 -18.95 Q15.55 -19.5 14.25 -19.75 L14.3 -19.7 Q12.85 -20.15 12.15 -21.3 L12.1 -21.35 11.0 -22.5 10.85 -22.55 9.75 -22.85 9.65 -22.85 9.6 -22.85 8.4 -23.0 Q7.55 -23.05 6.8 -23.65 L5.9 -24.15 5.75 -24.2 5.65 -24.2 4.8 -24.35 4.7 -24.35 3.4 -24.1 3.45 -24.1 1.95 -24.3 1.85 -24.35 1.75 -24.45 0.15 -24.55 -0.15 -24.55 -1.7 -24.45 -1.9 -24.25 -1.95 -24.2 -3.35 -24.1 -4.7 -24.35 -4.8 -24.35 -5.6 -24.2 -5.75 -24.2 -5.85 -24.15 -6.8 -23.65 Q-7.55 -23.05 -8.35 -23.0 L-8.4 -23.0 -9.55 -22.85 -9.65 -22.85 -9.75 -22.85 -10.9 -22.5 Q-11.35 -22.4 -12.0 -21.35 -12.85 -20.15 -14.1 -19.75 L-14.15 -19.75 -14.25 -19.75 Q-15.55 -19.5 -16.05 -18.95 L-16.15 -18.75 -17.2 -17.6 Q-17.75 -16.95 -18.55 -16.4 L-18.7 -16.25 Q-19.2 -15.9 -19.3 -15.35 L-19.3 -15.25 Q-19.3 -14.5 -20.1 -14.05 L-20.2 -14.0 -20.65 -13.7 -21.05 -12.9 Q-21.15 -12.0 -21.85 -11.25 L-22.0 -11.15 -22.85 -9.7 -22.9 -9.6 -23.1 -8.3 -23.2 -7.3 -23.2 -7.2 Q-23.2 -6.85 -23.55 -6.35 L-23.7 -6.25 -23.75 -6.2 -24.25 -5.2 M3.55 -18.45 L4.25 -18.35 5.35 -17.8 6.2 -17.45 7.2 -17.35 8.15 -17.1 Q8.7 -17.0 9.4 -15.95 9.8 -15.3 10.6 -15.05 L10.55 -15.1 Q11.65 -14.85 12.2 -14.3 L13.1 -13.3 13.1 -13.25 Q13.4 -12.85 13.9 -12.55 L13.95 -12.55 Q14.7 -12.1 14.75 -11.25 L14.75 -11.2 15.1 -10.8 15.05 -10.8 Q15.9 -10.45 16.05 -9.5 16.1 -9.05 16.55 -8.6 L17.4 -7.15 17.4 -7.1 17.55 -6.1 17.6 -5.35 17.8 -5.0 17.85 -4.95 Q18.25 -4.55 18.45 -3.75 18.6 -3.0 18.4 -2.35 L18.35 -2.3 18.35 -2.2 18.2 -1.55 18.3 -1.0 18.35 -0.9 18.5 -0.6 18.55 -0.55 Q19.0 0.15 18.85 0.85 L18.7 1.4 18.65 1.8 18.55 2.4 18.5 2.5 18.25 2.95 17.95 3.75 18.0 4.8 18.0 4.85 17.9 5.85 16.95 7.2 Q16.3 7.7 16.2 8.5 16.15 9.65 15.65 10.2 L14.75 11.25 Q14.35 11.55 14.1 12.1 13.75 12.95 12.95 13.15 L12.85 13.15 Q12.6 13.2 12.5 13.55 L12.5 13.5 Q12.25 14.35 11.4 14.65 10.9 14.75 10.55 15.2 L10.55 15.25 9.2 16.25 8.2 16.55 7.45 16.65 7.1 16.9 7.1 16.95 6.0 17.7 5.95 17.75 4.55 17.8 4.6 17.8 3.75 17.75 3.7 17.75 Q3.15 17.85 2.8 18.2 L2.75 18.2 Q2.1 18.7 1.45 18.7 L1.4 18.7 0.0 18.35 -1.4 18.7 -1.45 18.7 Q-2.1 18.7 -2.75 18.2 -3.15 17.85 -3.7 17.75 L-4.6 17.8 -4.55 17.8 -5.95 17.75 -6.0 17.7 Q-6.7 17.4 -7.05 16.95 L-7.1 16.9 -7.4 16.65 -8.15 16.55 -9.15 16.25 -10.5 15.25 -10.55 15.2 Q-10.9 14.75 -11.35 14.65 L-11.4 14.65 Q-12.25 14.35 -12.45 13.5 L-12.45 13.55 Q-12.6 13.2 -12.85 13.15 L-12.9 13.15 Q-13.75 12.95 -14.1 12.1 -14.35 11.55 -14.7 11.25 L-15.65 10.2 Q-16.15 9.65 -16.2 8.5 -16.3 7.7 -16.9 7.2 -17.85 6.4 -17.9 5.85 L-18.0 4.85 -18.0 4.8 -17.95 3.75 -18.2 2.95 -18.5 2.5 -18.5 2.4 -18.65 1.8 -18.7 1.4 -18.85 0.85 Q-19.0 0.15 -18.5 -0.55 L-18.5 -0.6 -18.35 -0.9 -18.3 -1.0 -18.2 -1.55 -18.3 -2.2 -18.35 -2.3 -18.35 -2.35 Q-18.65 -3.0 -18.4 -3.75 L-17.8 -4.95 -17.8 -5.0 -17.6 -5.35 -17.55 -6.1 -17.4 -7.1 -17.35 -7.15 Q-17.2 -7.95 -16.55 -8.6 -16.1 -9.05 -16.05 -9.5 -15.9 -10.45 -15.05 -10.8 L-14.75 -11.2 -14.75 -11.25 Q-14.7 -12.1 -13.9 -12.55 -13.4 -12.85 -13.1 -13.25 L-13.1 -13.3 -12.2 -14.3 -12.15 -14.3 Q-11.65 -14.85 -10.55 -15.1 L-10.55 -15.05 Q-9.8 -15.3 -9.35 -15.95 -8.7 -17.0 -8.15 -17.1 L-7.2 -17.35 -6.2 -17.45 -6.15 -17.45 Q-5.75 -17.5 -5.35 -17.8 L-4.25 -18.35 -3.55 -18.45 -3.5 -18.45 -2.3 -18.25 -1.65 -18.35 Q-1.1 -18.85 0.0 -18.6 1.1 -18.85 1.7 -18.35 L2.3 -18.25 3.5 -18.45 3.55 -18.45 M1.15 -17.5 L1.1 -17.55 0.1 -17.6 -0.1 -17.6 -1.1 -17.55 -1.1 -17.5 -2.55 -17.3 -2.6 -17.3 -3.45 -17.45 -3.5 -17.45 -4.05 -17.35 -4.2 -17.35 -4.75 -17.0 Q-5.4 -16.5 -6.1 -16.45 L-6.15 -16.45 -7.0 -16.35 -7.05 -16.35 -7.85 -16.15 -8.5 -15.4 Q-9.2 -14.4 -10.3 -14.1 L-10.35 -14.1 Q-11.15 -13.95 -11.5 -13.6 L-11.5 -13.55 -12.3 -12.7 Q-12.7 -12.15 -13.4 -11.7 L-13.35 -11.7 -13.75 -11.15 Q-13.75 -10.35 -14.6 -9.9 L-14.65 -9.9 -15.05 -9.4 Q-15.1 -8.55 -15.85 -7.85 L-15.85 -7.9 -16.4 -6.9 -16.4 -6.95 -16.55 -6.0 -16.6 -5.35 Q-16.55 -4.9 -17.05 -4.3 L-17.1 -4.3 -17.45 -3.5 -17.45 -2.8 -17.35 -2.5 -17.2 -1.55 -17.4 -0.6 -17.35 -0.7 -17.65 0.0 -17.85 0.65 -17.7 1.25 -17.7 1.35 -17.65 1.7 -17.65 1.8 -17.6 2.05 -17.35 2.45 Q-16.95 3.2 -16.95 3.85 L-16.95 3.95 -17.0 4.75 -17.0 4.8 -16.9 5.65 -16.9 5.7 -16.25 6.45 Q-15.4 7.2 -15.2 8.35 L-15.2 8.4 -14.85 9.6 -14.85 9.65 -14.05 10.5 Q-13.55 10.95 -13.2 11.7 L-12.75 12.15 Q-11.9 12.2 -11.5 13.2 L-11.5 13.25 -11.1 13.7 Q-10.3 13.85 -9.75 14.6 L-8.8 15.3 -7.9 15.6 -7.35 15.65 -7.25 15.65 -6.3 16.3 -5.65 16.8 -4.85 16.85 -4.8 16.8 -3.6 16.75 -3.55 16.75 Q-2.75 16.85 -2.15 17.4 L-2.1 17.45 -1.45 17.7 -0.15 17.35 0.2 17.35 1.5 17.7 2.15 17.45 2.15 17.4 Q2.75 16.85 3.6 16.75 L4.8 16.8 4.85 16.85 5.65 16.8 6.3 16.3 6.35 16.3 Q6.85 15.7 7.3 15.65 L7.35 15.65 7.95 15.6 8.85 15.3 9.75 14.6 9.8 14.6 Q10.35 13.85 11.15 13.7 L11.1 13.7 11.55 13.25 11.55 13.2 Q11.9 12.2 12.75 12.15 L13.2 11.7 Q13.55 10.95 14.1 10.5 L14.85 9.65 14.85 9.6 15.2 8.4 15.2 8.35 Q15.4 7.2 16.3 6.45 L16.9 5.7 16.9 5.65 17.0 4.8 17.0 4.75 16.95 3.95 16.95 3.85 Q16.95 3.2 17.4 2.45 L17.6 2.05 17.65 1.8 17.7 1.7 17.7 1.35 17.75 1.25 17.85 0.65 17.7 0.0 17.35 -0.7 17.4 -0.6 17.2 -1.55 17.35 -2.5 17.45 -2.7 17.45 -2.75 17.5 -3.5 17.1 -4.3 Q16.55 -4.9 16.6 -5.35 L16.55 -6.0 16.4 -6.95 16.45 -6.9 15.85 -7.9 15.85 -7.85 Q15.1 -8.55 15.05 -9.35 L14.65 -9.9 Q13.75 -10.35 13.75 -11.15 L13.4 -11.7 Q12.7 -12.15 12.3 -12.7 L11.55 -13.55 11.5 -13.6 Q11.15 -13.95 10.35 -14.1 9.2 -14.4 8.55 -15.4 L7.9 -16.15 7.85 -16.15 7.05 -16.35 7.0 -16.35 6.15 -16.45 6.1 -16.45 Q5.4 -16.5 4.75 -17.0 L4.2 -17.35 4.05 -17.35 3.5 -17.45 3.45 -17.45 2.6 -17.3 1.2 -17.5 1.15 -17.5" fill="#1f1318" fill-rule="evenodd" stroke="none"/>
    <path d="M-24.25 -5.2 L-23.75 -6.2 -23.7 -6.25 -23.55 -6.35 Q-23.2 -6.85 -23.2 -7.2 L-23.2 -7.3 -23.1 -8.3 -22.9 -9.6 -22.85 -9.7 -22.0 -11.15 -21.85 -11.25 Q-21.15 -12.0 -21.05 -12.9 L-20.65 -13.7 -20.2 -14.0 -20.1 -14.05 Q-19.3 -14.5 -19.3 -15.25 L-19.3 -15.35 Q-19.2 -15.9 -18.7 -16.25 L-18.55 -16.4 Q-17.75 -16.95 -17.2 -17.6 L-16.15 -18.75 -16.05 -18.95 Q-15.55 -19.5 -14.25 -19.75 L-14.15 -19.75 -14.1 -19.75 Q-12.85 -20.15 -12.0 -21.35 -11.35 -22.4 -10.9 -22.5 L-9.75 -22.85 -9.65 -22.85 -9.55 -22.85 -8.4 -23.0 -8.35 -23.0 Q-7.55 -23.05 -6.8 -23.65 L-5.85 -24.15 -5.75 -24.2 -5.6 -24.2 -4.8 -24.35 -4.7 -24.35 -3.35 -24.1 -1.95 -24.2 -1.9 -24.25 -1.7 -24.45 -0.15 -24.55 0.15 -24.55 1.75 -24.45 1.85 -24.35 1.95 -24.3 3.45 -24.1 3.4 -24.1 4.7 -24.35 4.8 -24.35 5.65 -24.2 5.75 -24.2 5.9 -24.15 6.8 -23.65 Q7.55 -23.05 8.4 -23.0 L9.6 -22.85 9.65 -22.85 9.75 -22.85 10.85 -22.55 11.0 -22.5 12.1 -21.35 12.15 -21.3 Q12.85 -20.15 14.3 -19.7 L14.25 -19.75 Q15.55 -19.5 16.05 -18.95 L16.15 -18.85 17.25 -17.6 Q17.75 -16.95 18.6 -16.4 19.15 -16.0 19.3 -15.35 L19.3 -15.25 Q19.35 -14.45 20.25 -14.0 21.0 -13.6 21.05 -12.85 21.15 -12.0 21.85 -11.25 L22.0 -11.15 23.0 -9.6 23.0 -9.25 23.1 -8.3 23.2 -7.3 23.2 -7.2 Q23.2 -6.8 23.75 -6.25 L23.75 -6.2 24.4 -4.95 24.4 -4.9 24.35 -3.7 24.2 -3.35 24.2 -3.25 24.0 -2.1 24.2 -1.1 24.2 -1.0 Q24.25 -0.7 24.6 -0.3 L24.65 -0.2 24.9 0.95 24.9 1.05 24.75 1.75 24.7 1.95 24.7 2.3 24.6 2.6 24.55 2.95 24.45 3.1 24.2 3.55 24.2 3.6 Q23.65 4.45 23.65 5.25 L23.65 5.4 23.75 6.5 23.75 6.55 23.6 7.75 23.6 7.8 23.55 8.0 22.6 9.2 Q21.55 10.1 21.25 11.45 L21.25 11.5 Q21.2 12.65 20.8 13.25 L20.7 13.5 19.6 14.75 19.55 14.75 Q18.9 15.3 18.5 16.2 18.2 16.85 17.55 17.1 L17.45 17.1 Q16.65 17.15 16.3 18.15 L16.3 18.3 15.65 19.05 15.35 19.2 Q14.45 19.4 13.8 20.25 L13.65 20.4 13.55 20.45 12.35 21.35 12.25 21.4 11.05 21.8 10.95 21.8 10.05 21.9 10.0 21.9 Q9.6 22.0 9.1 22.6 L8.95 22.7 8.9 22.75 7.9 23.45 7.85 23.45 6.55 23.5 6.4 23.45 5.0 23.4 4.95 23.4 Q4.05 23.5 3.45 24.05 L3.4 24.15 3.2 24.3 2.2 24.7 2.0 24.7 0.1 24.2 0.05 24.15 -0.05 24.2 -1.9 24.7 -2.1 24.7 -3.1 24.3 -3.2 24.2 -3.3 24.1 -3.3 24.15 Q-3.95 23.5 -4.9 23.4 L-4.95 23.4 -6.4 23.45 -6.55 23.5 -7.8 23.45 -7.85 23.45 -8.95 22.6 Q-9.55 22.0 -9.95 21.9 L-10.05 21.9 -10.9 21.8 -10.95 21.8 -12.15 21.4 -12.2 21.35 -13.65 20.3 -13.7 20.25 Q-14.35 19.4 -15.25 19.2 L-15.3 19.2 Q-16.15 18.85 -16.2 18.15 -16.6 17.15 -17.4 17.1 L-17.55 17.1 Q-18.2 16.85 -18.5 16.2 L-19.5 14.75 -20.7 13.5 -20.8 13.25 Q-21.2 12.65 -21.25 11.5 L-21.25 11.45 Q-21.55 10.1 -22.5 9.2 L-23.55 8.0 -23.6 7.8 -23.6 7.75 -23.75 6.55 -23.75 6.5 -23.65 5.4 -23.65 5.25 Q-23.65 4.45 -24.15 3.6 L-24.1 3.6 -24.45 3.1 -24.5 2.95 -24.6 2.45 -24.7 1.85 -24.7 1.8 -24.85 1.05 -24.9 0.95 Q-25.0 0.4 -24.5 -0.25 L-24.2 -1.0 -24.15 -1.1 -24.0 -2.1 -24.15 -3.25 -24.2 -3.3 -24.25 -3.55 -24.3 -3.7 Q-24.5 -4.3 -24.3 -4.95 L-24.25 -5.2 M13.25 -16.85 L13.2 -17.65 12.45 -18.35 11.2 -18.8 10.95 -18.7 Q10.25 -18.6 10.0 -18.0 9.7 -17.4 10.05 -16.75 10.5 -16.1 11.9 -15.9 L12.75 -16.0 Q13.15 -16.25 13.25 -16.85 M3.55 -18.45 L3.5 -18.45 2.3 -18.25 1.7 -18.35 Q1.1 -18.85 0.0 -18.6 -1.1 -18.85 -1.65 -18.35 L-2.3 -18.25 -3.5 -18.45 -3.55 -18.45 -4.25 -18.35 -5.35 -17.8 Q-5.75 -17.5 -6.15 -17.45 L-6.2 -17.45 -7.2 -17.35 -8.15 -17.1 Q-8.7 -17.0 -9.35 -15.95 -9.8 -15.3 -10.55 -15.05 L-10.55 -15.1 Q-11.65 -14.85 -12.15 -14.3 L-12.2 -14.3 -13.1 -13.3 -13.1 -13.25 Q-13.4 -12.85 -13.9 -12.55 -14.7 -12.1 -14.75 -11.25 L-14.75 -11.2 -15.05 -10.8 Q-15.9 -10.45 -16.05 -9.5 -16.1 -9.05 -16.55 -8.6 -17.2 -7.95 -17.35 -7.15 L-17.4 -7.1 -17.55 -6.1 -17.6 -5.35 -17.8 -5.0 -17.8 -4.95 -18.4 -3.75 Q-18.65 -3.0 -18.35 -2.35 L-18.35 -2.3 -18.3 -2.2 -18.2 -1.55 -18.3 -1.0 -18.35 -0.9 -18.5 -0.6 -18.5 -0.55 Q-19.0 0.15 -18.85 0.85 L-18.7 1.4 -18.65 1.8 -18.5 2.4 -18.5 2.5 -18.2 2.95 -17.95 3.75 -18.0 4.8 -18.0 4.85 -17.9 5.85 Q-17.85 6.4 -16.9 7.2 -16.3 7.7 -16.2 8.5 -16.15 9.65 -15.65 10.2 L-14.7 11.25 Q-14.35 11.55 -14.1 12.1 -13.75 12.95 -12.9 13.15 L-12.85 13.15 Q-12.6 13.2 -12.45 13.55 L-12.45 13.5 Q-12.25 14.35 -11.4 14.65 L-11.35 14.65 Q-10.9 14.75 -10.55 15.2 L-10.5 15.25 -9.15 16.25 -8.15 16.55 -7.4 16.65 -7.1 16.9 -7.05 16.95 Q-6.7 17.4 -6.0 17.7 L-5.95 17.75 -4.55 17.8 -4.6 17.8 -3.7 17.75 Q-3.15 17.85 -2.75 18.2 -2.1 18.7 -1.45 18.7 L-1.4 18.7 0.0 18.35 1.4 18.7 1.45 18.7 Q2.1 18.7 2.75 18.2 L2.8 18.2 Q3.15 17.85 3.7 17.75 L3.75 17.75 4.6 17.8 4.55 17.8 5.95 17.75 6.0 17.7 7.1 16.95 7.1 16.9 7.45 16.65 8.2 16.55 9.2 16.25 10.55 15.25 10.55 15.2 Q10.9 14.75 11.4 14.65 12.25 14.35 12.5 13.5 L12.5 13.55 Q12.6 13.2 12.85 13.15 L12.95 13.15 Q13.75 12.95 14.1 12.1 14.35 11.55 14.75 11.25 L15.65 10.2 Q16.15 9.65 16.2 8.5 16.3 7.7 16.95 7.2 L17.9 5.85 18.0 4.85 18.0 4.8 17.95 3.75 18.25 2.95 18.5 2.5 18.55 2.4 18.65 1.8 18.7 1.4 18.85 0.85 Q19.0 0.15 18.55 -0.55 L18.5 -0.6 18.35 -0.9 18.3 -1.0 18.2 -1.55 18.35 -2.2 18.35 -2.3 18.4 -2.35 Q18.6 -3.0 18.45 -3.75 18.25 -4.55 17.85 -4.95 L17.8 -5.0 17.6 -5.35 17.55 -6.1 17.4 -7.1 17.4 -7.15 16.55 -8.6 Q16.1 -9.05 16.05 -9.5 15.9 -10.45 15.05 -10.8 L15.1 -10.8 14.75 -11.2 14.75 -11.25 Q14.7 -12.1 13.95 -12.55 L13.9 -12.55 Q13.4 -12.85 13.1 -13.25 L13.1 -13.3 12.2 -14.3 Q11.65 -14.85 10.55 -15.1 L10.6 -15.05 Q9.8 -15.3 9.4 -15.95 8.7 -17.0 8.15 -17.1 L7.2 -17.35 6.2 -17.45 5.35 -17.8 4.25 -18.35 3.55 -18.45 M6.9 21.35 L7.35 20.3 7.65 19.75 Q7.8 19.2 7.3 18.8 L6.25 18.5 4.1 18.95 Q3.5 19.15 3.3 19.45 L3.1 20.25 3.05 20.95 Q2.95 21.4 3.1 21.75 3.35 22.35 4.4 22.45 L4.45 22.45 4.85 22.4 5.55 22.35 Q6.45 22.1 6.9 21.35 M11.55 18.5 L12.05 18.1 12.95 16.85 Q13.05 16.3 12.4 15.95 L11.3 15.8 Q10.55 16.0 10.15 16.4 9.8 16.9 9.75 17.35 9.65 17.75 9.8 17.95 10.05 18.7 11.05 18.6 L11.55 18.5 M13.7 13.7 Q13.3 14.4 13.65 15.1 14.05 15.85 14.9 15.75 15.65 15.7 16.45 14.7 L17.0 14.0 17.4 13.3 17.35 12.55 17.0 11.7 Q16.65 11.2 15.95 11.2 L15.65 11.3 Q15.2 11.4 15.0 11.65 L14.8 12.3 14.3 13.05 13.7 13.7 M17.75 7.75 Q17.6 7.95 17.6 8.4 L17.75 9.15 18.3 9.6 19.0 9.85 19.55 9.65 Q20.0 9.5 20.25 9.15 20.55 8.8 20.45 8.25 L20.15 7.3 19.8 6.75 19.25 6.6 Q18.4 6.5 18.05 7.1 L17.9 7.45 17.75 7.75 M21.05 4.95 Q21.75 4.55 21.6 3.9 L21.4 3.5 21.0 3.0 20.45 2.85 20.2 2.9 19.65 3.2 19.45 3.7 Q19.3 4.4 19.85 4.9 L21.05 5.05 21.05 4.95 M-2.25 20.65 L-2.2 21.55 -2.1 21.95 -1.9 22.4 Q-1.45 22.9 -0.9 22.85 -0.3 22.75 -0.05 22.2 L0.05 21.8 0.25 21.3 Q0.4 20.95 0.1 20.55 L-0.4 20.05 -1.05 19.7 -1.7 19.8 -2.15 20.1 -2.25 20.65 M-4.85 18.9 Q-4.9 18.4 -5.35 18.1 L-6.25 17.95 -7.25 18.45 -8.1 18.7 Q-8.5 18.9 -8.7 19.35 L-8.75 20.25 Q-8.45 21.0 -7.3 21.3 L-5.45 21.5 Q-5.35 21.35 -5.1 21.35 -4.4 21.25 -4.25 20.65 -4.0 20.1 -4.5 19.6 L-4.75 19.3 -4.85 18.9 M-11.5 18.55 Q-10.85 18.75 -10.5 18.3 -10.0 17.85 -10.25 17.25 L-10.45 16.75 -10.4 16.25 Q-10.45 15.65 -11.1 15.3 L-12.25 14.95 -12.9 15.15 Q-13.85 15.35 -14.1 15.85 -14.35 16.4 -13.9 17.05 L-12.9 17.8 -11.5 18.55 M-16.75 13.95 L-16.2 14.15 -15.7 14.15 -15.15 13.85 -14.85 13.55 -14.7 13.0 Q-14.6 12.05 -15.2 11.7 L-16.35 11.6 -16.75 11.75 Q-17.1 12.05 -17.1 12.85 -17.1 13.65 -16.75 13.95 M-17.65 8.5 Q-18.15 8.1 -18.75 8.1 -19.45 8.1 -19.85 8.55 -20.4 9.1 -20.15 9.7 L-19.65 10.35 -19.1 10.8 -18.0 11.45 Q-17.25 11.55 -16.85 11.15 -16.5 10.7 -16.65 10.1 -16.7 9.7 -17.1 9.1 L-17.65 8.5 M-19.15 2.9 Q-19.5 2.55 -19.95 2.55 L-20.85 2.7 -21.55 3.0 -21.9 4.05 Q-22.0 5.25 -21.6 5.65 -21.25 6.0 -20.2 6.0 L-19.55 5.5 -19.1 5.05 -19.0 4.25 Q-18.9 3.3 -19.15 2.9 M-17.8 -13.25 L-18.0 -12.2 -17.85 -11.35 -17.8 -11.25 -17.3 -10.9 -16.75 -10.75 Q-16.25 -10.75 -15.85 -11.15 -15.55 -11.5 -15.4 -12.05 L-15.25 -12.7 Q-15.05 -13.65 -15.45 -14.15 -15.95 -14.7 -16.75 -14.45 L-17.7 -13.5 -17.8 -13.25 M-10.15 -18.65 L-11.15 -19.1 -12.25 -18.95 -13.4 -18.5 Q-13.75 -18.15 -13.75 -17.65 -13.7 -17.1 -13.35 -16.8 -12.85 -16.45 -12.15 -16.45 L-10.95 -16.45 -10.85 -16.55 Q-10.2 -16.8 -9.95 -17.45 -9.7 -18.2 -10.15 -18.65 M-4.5 -20.3 Q-4.35 -20.85 -4.95 -21.25 L-6.0 -21.6 -6.2 -21.45 Q-7.1 -21.45 -7.5 -20.95 L-7.75 -20.1 -7.55 -19.05 -6.9 -18.2 -5.85 -18.1 -4.95 -18.7 Q-4.6 -19.05 -4.6 -19.35 L-4.65 -19.9 -4.5 -20.3 M-17.8 -7.1 L-17.9 -7.5 -18.1 -8.05 Q-18.35 -8.5 -19.25 -8.6 L-19.35 -8.5 Q-20.3 -8.35 -20.85 -7.45 -21.35 -6.65 -20.9 -6.0 -20.5 -5.4 -19.6 -5.6 -18.95 -5.7 -18.35 -6.35 -17.85 -6.75 -17.8 -7.1 M-19.95 -0.6 Q-19.65 -0.6 -19.5 -0.95 L-19.35 -1.1 -19.1 -1.65 -19.25 -2.2 Q-19.75 -2.9 -20.25 -2.85 L-20.4 -2.8 Q-20.8 -2.9 -21.1 -2.4 L-21.25 -1.6 -20.95 -0.8 Q-20.7 -0.5 -19.95 -0.5 L-19.95 -0.6 M19.4 -1.85 Q19.25 -1.5 19.25 -0.8 L19.45 0.5 Q19.8 0.95 20.3 1.0 20.8 1.05 21.25 0.7 L21.9 -0.45 22.15 -0.9 22.05 -1.35 21.95 -2.3 21.2 -3.15 20.05 -2.95 19.6 -2.35 19.4 -1.85 M20.05 -5.85 Q20.7 -6.0 20.8 -6.7 20.9 -7.15 20.6 -7.75 L19.75 -9.35 Q19.45 -9.8 18.75 -9.7 18.25 -9.55 17.85 -9.1 L17.55 -8.45 17.75 -7.75 18.2 -7.0 18.95 -6.1 Q19.5 -5.7 20.05 -5.85 M-0.65 -22.55 L-1.9 -22.6 -2.35 -22.3 -2.5 -21.6 -2.5 -20.4 -2.4 -19.9 -1.85 -19.55 -1.35 -19.45 -0.85 -19.65 -0.4 -19.7 Q-0.1 -19.8 0.1 -20.2 L0.25 -20.95 Q0.35 -21.6 0.05 -22.05 -0.05 -22.35 -0.65 -22.55 M8.45 -20.2 Q8.7 -21.1 7.85 -21.75 L6.2 -22.25 4.5 -22.1 3.4 -21.85 Q2.75 -21.5 2.75 -20.75 2.75 -20.05 3.45 -19.7 L4.65 -19.4 5.3 -19.1 Q6.55 -18.55 7.75 -19.3 L8.45 -20.2 M16.3 -15.4 L15.5 -15.15 Q15.25 -14.95 15.15 -14.3 L15.15 -13.35 15.0 -12.55 Q15.0 -12.1 15.3 -11.75 15.6 -11.4 16.05 -11.35 16.5 -11.3 16.9 -11.6 L17.35 -12.3 17.25 -13.6 17.2 -14.5 16.75 -15.25 16.3 -15.4" fill="#4a2735" fill-rule="evenodd" stroke="none"/>
  </g>
</svg>
