<?xml version="1.0" encoding="UTF-8" standalone="no"?>
<svg xmlns:ffdec="https://www.free-decompiler.com/flash" xmlns:xlink="http://www.w3.org/1999/xlink" ffdec:objectType="shape" height="73.65px" width="56.25px" xmlns="http://www.w3.org/2000/svg">
  <g transform="matrix(1.0, 0.0, 0.0, 1.0, 0.0, 0.0)">
    <path d="M12.9 34.4 Q16.5 37.1 23.0 40.8 L25.3 42.65 25.3 36.3 23.3 35.2 21.05 33.8 18.3 32.85 Q17.0 32.25 16.8 31.25 16.2 28.5 15.75 24.95 L15.15 21.85 Q14.9 21.15 13.45 20.45 L10.35 19.1 6.1 17.05 Q2.9 15.25 2.9 13.95 L3.0 13.55 4.85 15.1 Q6.7 16.55 7.95 16.6 6.5 15.15 4.35 11.45 L4.4 11.15 4.55 11.15 7.9 14.95 9.15 16.35 Q10.2 16.65 12.25 17.85 11.75 16.65 11.4 14.8 L10.1 8.5 10.25 8.35 Q10.85 9.05 11.3 11.0 L12.0 14.35 Q12.5 16.2 13.95 18.5 L14.4 19.2 16.1 20.45 Q17.05 21.4 17.2 22.95 L17.25 23.75 17.85 23.05 18.2 20.15 18.45 20.15 18.3 23.3 Q18.2 24.2 17.45 24.85 L17.25 25.65 Q17.4 27.55 17.65 28.2 18.25 29.65 20.1 30.7 L21.0 31.2 23.75 32.15 25.3 32.85 25.3 30.9 24.1 28.15 21.5 21.85 20.85 20.45 Q20.4 19.55 19.85 19.15 L19.2 18.4 18.75 17.75 17.85 17.1 Q17.3 16.8 17.1 16.55 16.75 16.15 16.5 15.25 L16.5 14.9 16.2 12.5 16.85 6.3 16.85 6.15 16.95 5.95 17.25 6.45 17.1 8.95 17.1 10.15 18.5 8.65 Q20.3 7.05 20.4 5.35 L20.65 5.95 20.7 6.45 Q20.7 7.75 19.35 8.6 18.65 9.05 17.4 11.15 L17.05 11.75 17.0 13.85 17.0 14.05 17.85 15.4 Q19.6 16.3 20.95 18.4 21.85 19.75 22.2 20.85 L22.35 21.15 22.1 20.1 21.9 16.65 21.9 16.55 21.9 16.3 21.9 16.1 21.9 15.7 21.1 14.75 Q20.25 13.65 20.25 12.85 20.25 11.1 20.55 10.55 20.85 10.9 20.85 11.75 L20.85 13.15 Q20.95 13.7 21.9 14.55 L22.3 13.4 22.4 13.0 22.8 11.9 23.5 10.7 Q23.75 9.9 24.45 9.15 L24.75 9.1 23.55 12.4 Q23.05 13.55 22.85 14.5 L22.75 15.25 22.7 15.3 22.7 15.45 22.7 15.85 22.75 16.7 23.05 19.25 Q23.7 22.25 25.5 26.9 L25.8 27.35 26.1 27.7 26.45 22.5 26.05 21.4 25.65 19.85 Q25.5 18.75 25.5 17.3 25.5 16.8 25.65 16.55 L25.9 17.5 26.3 18.85 26.3 18.95 Q26.3 19.85 26.8 20.65 L27.05 21.15 27.0 21.0 27.1 20.6 27.9 17.35 28.1 17.35 28.1 18.35 27.45 21.25 27.3 22.55 27.3 23.05 Q27.25 23.7 27.5 25.1 L27.75 27.15 28.0 28.0 28.3 26.75 29.15 23.5 31.25 16.25 Q31.25 15.5 28.75 11.55 L27.45 9.4 26.8 8.3 26.75 8.2 26.3 7.25 25.95 6.5 Q25.3 5.25 24.55 4.5 24.15 4.15 24.15 3.2 24.15 2.05 24.6 1.55 L24.75 1.55 24.9 3.4 Q25.1 4.45 26.0 5.35 L26.3 5.8 26.4 5.4 26.8 4.4 27.15 3.95 27.5 3.2 Q27.8 2.3 28.2 1.9 L29.0 0.55 29.35 0.0 29.4 0.4 28.3 3.3 Q27.15 6.25 27.15 6.75 27.15 7.6 29.75 10.8 L30.15 8.65 Q30.5 8.85 30.5 9.65 L30.2 11.2 30.2 11.3 30.4 11.55 32.7 14.6 Q34.8 10.65 34.8 9.75 32.4 7.35 32.4 6.1 32.4 5.7 32.75 4.6 L33.15 3.1 33.15 1.6 Q33.15 0.6 33.45 0.05 L33.9 0.9 33.05 6.2 Q33.05 6.85 34.5 8.15 L35.55 9.15 Q36.05 8.25 37.55 7.85 38.55 7.35 38.95 6.0 39.25 4.75 40.05 4.6 L39.4 6.65 Q38.95 7.8 37.95 8.35 36.45 9.2 35.8 10.7 L35.35 11.7 Q34.3 15.5 33.6 16.5 L33.65 16.9 Q33.65 17.5 32.45 20.8 L31.2 24.35 30.85 26.05 31.45 25.15 34.35 20.9 36.95 16.05 Q38.3 13.8 39.35 13.05 L39.85 9.6 Q40.5 6.1 43.65 7.7 L44.2 6.15 Q44.45 5.4 45.15 5.2 L45.15 5.45 44.65 7.15 Q44.15 8.35 43.75 8.35 L41.15 8.0 41.0 8.05 40.5 12.3 40.45 12.65 47.25 12.95 48.6 12.05 52.25 8.35 55.05 7.55 54.7 8.2 52.3 9.05 50.25 12.15 49.6 13.2 49.85 13.35 52.55 13.6 55.25 13.8 55.2 14.0 49.9 14.15 46.5 13.8 45.35 13.85 Q41.25 13.9 40.1 14.8 L38.9 16.7 37.5 18.55 36.3 20.35 34.45 24.0 32.3 27.65 31.6 29.35 33.75 28.85 Q34.8 28.7 36.3 27.85 L38.55 26.45 39.3 25.6 39.9 24.2 40.5 22.45 40.6 22.15 40.5 21.95 41.85 20.25 43.55 18.5 44.4 17.65 Q44.65 17.95 43.9 18.7 L43.05 19.8 41.35 22.25 Q40.5 23.6 40.6 24.95 L43.6 24.5 46.8 22.55 48.35 21.4 Q49.7 20.7 49.95 21.55 51.0 21.4 51.5 21.8 L50.9 22.1 49.85 22.1 49.4 21.55 46.3 23.65 Q45.6 24.1 45.05 24.45 L45.65 24.45 45.6 24.55 Q46.2 24.95 46.55 24.9 L48.05 24.9 49.65 24.4 51.35 24.55 49.2 25.25 45.15 26.05 44.15 26.15 Q39.9 26.6 39.45 27.65 39.15 28.4 38.05 29.4 L37.8 29.65 39.0 29.95 40.8 29.9 40.55 30.2 39.35 30.5 38.6 30.5 37.35 30.0 Q36.3 30.8 35.25 30.85 33.7 31.0 32.6 31.45 L32.4 31.8 32.1 32.6 31.0 34.35 30.75 34.75 30.75 41.45 29.8 41.8 29.75 39.05 29.75 37.2 29.75 37.15 30.05 34.95 30.05 34.65 30.05 34.5 30.25 33.35 30.15 33.0 Q30.0 32.9 29.8 33.15 29.95 32.95 30.05 32.95 L30.65 31.05 31.4 28.35 Q31.4 27.9 32.65 25.85 L33.9 23.6 33.9 23.55 36.2 19.7 37.95 16.75 39.0 15.25 40.2 14.0 41.85 13.65 45.6 13.2 46.1 13.25 46.15 13.3 46.65 13.3 46.75 13.25 Q46.6 13.0 46.3 13.0 L45.7 12.95 44.5 12.95 42.7 13.05 40.35 13.3 40.15 13.35 Q40.35 13.05 40.35 11.55 L40.55 9.75 40.4 9.3 Q40.15 10.15 40.15 11.3 L39.9 13.2 39.95 13.35 Q39.25 13.5 39.25 13.8 L39.3 14.0 37.5 16.15 35.65 19.25 Q34.1 22.3 31.65 25.55 29.0 28.85 28.35 31.95 L27.85 33.9 27.6 32.9 Q27.5 31.35 27.1 30.45 L26.8 29.85 26.6 29.55 26.25 29.3 25.4 28.1 24.55 26.1 24.55 26.0 24.15 25.0 23.55 23.2 22.8 20.7 Q22.65 20.25 22.65 19.5 L22.6 18.2 22.25 15.65 Q22.1 15.8 22.1 16.55 L22.45 18.4 22.45 20.15 22.7 22.0 22.75 22.5 21.5 20.15 20.65 18.65 19.7 17.25 18.75 16.65 17.35 15.45 Q17.2 14.85 16.9 14.8 L16.85 15.1 Q16.85 15.7 19.55 17.85 L21.2 20.6 22.7 23.5 23.4 24.9 23.5 25.0 24.95 28.9 25.75 30.55 26.55 32.35 26.65 32.65 26.3 32.35 26.3 33.6 26.3 33.7 26.3 33.95 26.3 35.85 26.3 35.9 26.3 39.05 26.25 43.7 Q27.3 45.05 27.7 46.45 L26.0 44.2 23.15 41.55 20.4 39.9 18.45 38.75 17.55 38.25 16.9 37.9 16.65 37.75 16.55 37.7 16.4 37.6 14.4 36.25 Q11.55 34.0 12.9 34.4 L12.4 33.65 10.25 29.95 10.15 30.0 10.1 30.25 Q10.1 30.95 10.9 32.5 L11.9 34.55 12.05 34.85 11.6 35.05 Q11.15 35.4 11.1 35.8 L7.6 36.65 6.45 35.9 Q4.85 34.9 3.9 34.85 L3.8 35.0 6.95 36.75 Q4.6 37.2 3.95 37.7 L3.85 37.75 Q3.5 37.9 3.5 37.95 L3.55 38.1 3.8 38.1 4.3 38.0 4.65 38.0 6.25 37.6 7.55 37.55 8.3 37.55 8.55 37.7 8.85 37.55 8.95 37.55 9.45 37.4 9.4 37.45 9.8 37.35 9.85 37.3 11.35 36.8 11.4 36.8 11.55 36.7 11.65 36.7 11.85 36.7 13.6 36.65 13.65 36.65 15.0 37.5 17.15 38.95 19.5 40.5 Q22.2 42.7 23.55 45.0 L24.65 47.15 25.55 48.75 Q26.25 49.8 26.9 49.75 L27.6 49.7 27.0 50.45 26.2 50.45 Q25.5 49.2 25.95 59.4 L25.4 66.65 Q24.65 72.85 23.1 73.15 L22.95 73.15 22.9 73.15 22.65 73.1 22.65 73.15 22.55 73.1 22.5 72.8 23.25 71.8 Q24.05 70.7 24.3 69.4 L24.8 66.85 25.2 62.3 25.4 55.85 25.4 50.15 24.2 47.35 Q23.15 45.05 21.8 43.7 L17.25 39.85 17.15 39.8 Q15.95 39.85 15.2 40.35 14.1 41.15 13.05 41.15 11.6 41.15 10.35 40.5 L9.3 39.7 9.4 39.45 9.45 39.5 9.7 39.5 12.45 40.45 13.8 40.45 Q15.3 39.35 16.1 39.0 13.45 37.1 12.6 37.1 L7.7 38.45 6.85 38.3 6.8 38.3 Q5.0 38.15 3.05 38.95 L0.55 39.8 0.0 39.5 Q0.4 39.0 1.8 38.3 3.15 37.65 4.05 37.55 L4.0 37.3 4.6 37.1 5.25 36.55 Q5.25 36.05 2.2 34.6 L0.35 33.8 0.4 33.75 0.45 33.7 3.0 34.2 4.4 34.75 6.0 35.55 Q7.2 36.1 8.4 36.1 9.6 36.1 11.55 34.6 L11.0 33.35 9.9 30.35 9.6 29.0 Q9.3 28.15 7.85 27.85 4.75 27.25 3.95 26.0 L8.15 27.35 Q10.65 28.3 10.95 29.6 L11.95 31.95 12.9 34.4 M31.75 41.2 L33.15 40.7 35.25 39.5 Q36.45 39.5 39.75 34.1 L40.95 32.1 Q42.15 31.35 43.8 31.0 L43.95 30.8 44.75 30.7 Q46.1 29.8 46.4 29.75 L49.9 29.2 52.9 28.7 Q53.55 28.7 53.9 29.05 L47.4 30.4 46.55 30.85 51.15 31.8 Q52.45 32.15 53.1 32.55 L53.75 32.8 56.25 34.1 Q56.3 34.25 55.9 34.25 L51.5 32.5 50.05 32.3 Q50.4 32.35 50.75 32.75 L51.35 33.55 51.0 33.7 49.65 32.5 49.7 32.3 49.85 32.3 48.3 32.2 46.35 32.4 46.25 32.6 45.45 32.6 Q41.55 33.25 40.55 35.3 L39.6 37.55 39.3 38.15 40.25 37.9 Q42.55 37.3 43.6 37.95 L44.55 38.05 47.6 38.35 47.4 38.8 45.7 38.85 44.25 38.7 44.4 39.0 44.85 40.1 Q45.2 40.9 46.1 41.2 46.8 41.45 46.8 42.05 L46.8 42.35 46.65 42.35 44.4 40.7 43.65 39.55 Q43.1 38.75 42.65 38.75 40.2 38.75 38.45 40.05 L38.2 40.3 37.95 40.75 36.6 42.5 Q35.8 43.2 32.95 44.05 L30.75 44.65 30.7 59.1 30.75 62.6 Q30.75 64.75 30.9 66.0 L31.5 69.4 Q31.75 70.7 32.6 71.8 L33.35 72.8 33.3 73.1 32.9 73.15 32.4 73.0 32.3 72.95 32.2 72.85 31.5 71.7 Q30.9 70.65 30.6 66.35 30.3 62.05 30.3 53.0 30.35 43.9 29.8 44.8 29.05 44.8 28.9 44.0 29.4 45.05 33.35 43.5 37.3 41.95 37.75 40.75 38.2 39.5 38.6 38.8 L39.25 37.3 39.7 36.0 39.85 35.7 40.8 34.15 41.3 33.45 Q41.45 33.25 42.35 32.95 L42.8 32.7 43.55 32.45 44.45 32.3 45.55 32.0 46.75 31.8 47.75 31.75 47.8 31.6 46.85 31.4 46.55 31.5 46.3 31.25 45.1 31.15 45.2 31.15 46.3 30.25 Q45.3 30.65 44.6 31.2 43.7 31.35 42.35 32.0 L41.55 32.25 41.3 32.65 40.65 33.4 39.65 34.8 Q38.7 36.2 38.7 36.5 L38.75 36.6 38.45 37.0 36.3 39.55 Q35.85 40.0 31.75 41.2 M50.45 11.1 L50.2 11.05 49.2 12.0 Q48.0 12.75 47.85 13.2 L47.85 13.5 47.95 13.55 Q48.5 13.55 49.6 12.25 L50.2 11.45 Q50.8 11.4 50.45 11.1 M43.65 18.55 L43.6 18.65 43.65 18.6 43.65 18.55 M37.9 28.6 L37.95 28.45 38.9 27.5 40.3 26.1 40.4 26.1 41.9 25.85 44.6 25.6 46.3 25.35 Q46.15 25.1 45.75 25.1 45.6 24.85 45.25 24.85 L44.65 24.85 42.1 25.2 40.5 25.6 40.5 25.5 Q40.5 24.85 39.8 25.55 L38.55 26.95 35.5 28.95 34.3 29.4 34.0 29.45 34.0 29.5 33.9 29.5 33.65 29.55 32.7 29.65 Q31.85 29.8 31.7 30.1 L31.3 31.15 30.85 32.2 30.85 32.5 31.15 32.5 32.2 31.3 Q32.8 30.55 33.25 30.5 L36.9 29.5 37.35 29.25 37.35 29.2 37.6 28.95 37.65 28.9 37.9 28.6 M43.95 39.15 L43.55 38.35 Q43.25 38.05 42.65 38.05 L42.65 38.1 39.85 38.3 Q39.1 38.6 38.8 38.95 L39.05 39.15 Q39.45 39.15 40.1 38.6 L40.9 38.3 41.7 38.45 42.7 38.5 43.05 38.4 Q43.4 38.4 43.75 39.15 L43.95 39.15 M31.1 13.05 L30.45 12.3 28.85 10.3 26.75 7.15 26.65 7.35 27.65 9.05 28.55 10.65 29.75 12.3 30.3 12.9 30.25 12.8 32.3 16.35 31.95 17.0 31.5 18.15 30.95 19.85 29.85 23.25 Q29.45 24.4 28.8 26.7 L28.6 27.55 28.15 28.4 Q27.8 29.45 27.8 30.1 L27.8 30.3 28.0 30.5 Q28.35 30.5 28.65 29.25 L29.25 28.05 30.25 25.6 Q30.3 24.95 30.65 24.35 30.7 23.65 31.0 23.2 L31.2 22.55 31.45 21.95 31.65 20.75 Q31.65 20.35 33.2 16.35 33.75 14.65 34.85 12.0 L34.85 11.55 34.9 11.55 35.45 10.6 Q35.95 9.45 36.75 8.75 L36.65 8.5 Q35.95 8.95 35.5 9.75 L34.8 11.2 34.8 11.5 34.65 11.5 33.05 15.4 32.4 14.65 32.0 14.05 31.4 13.4 31.1 13.05 M22.35 14.1 Q22.1 14.45 22.1 15.15 L22.15 15.6 22.3 15.6 22.5 14.35 22.35 14.1 M26.9 24.4 L26.85 23.7 26.7 23.7 26.6 24.0 26.6 26.0 26.55 26.4 26.6 27.35 26.75 28.35 26.7 28.75 Q26.75 29.15 27.1 29.15 27.5 29.15 27.4 28.2 L27.25 27.05 27.15 26.45 27.05 26.25 26.9 25.95 26.9 25.9 26.9 24.4 M26.85 22.25 L26.9 21.9 26.8 21.55 Q26.65 21.65 26.65 21.9 L26.75 22.25 26.85 22.25 M6.85 14.75 Q7.3 15.7 8.7 17.1 L9.2 17.55 8.9 17.6 Q8.85 17.85 9.45 18.15 L10.7 18.7 12.4 19.6 12.6 19.3 12.4 18.95 11.85 18.4 10.95 17.85 10.5 17.65 9.85 17.45 9.2 16.85 8.1 15.65 7.0 14.6 6.85 14.75 M7.65 17.45 L8.05 17.6 8.3 17.6 8.35 17.45 8.1 17.15 7.5 17.1 7.45 17.2 7.65 17.45 M21.4 32.1 L20.55 31.6 19.25 30.95 18.1 30.25 17.9 30.1 17.45 29.05 Q17.1 28.2 17.1 26.1 L16.85 24.6 16.6 23.1 16.45 21.6 Q16.05 20.65 15.45 20.4 L14.6 19.7 Q13.6 18.95 13.35 18.45 L12.8 17.3 Q12.7 16.45 12.15 16.3 L12.1 16.45 12.5 17.75 13.0 18.8 13.85 20.05 14.55 20.6 15.25 21.0 15.3 21.0 15.85 21.5 16.05 22.55 16.3 25.1 16.5 27.6 Q16.45 28.15 17.15 30.2 L17.3 30.7 17.3 30.4 17.35 31.05 17.65 31.5 Q18.0 32.35 18.3 32.35 L18.6 32.1 19.3 32.4 20.8 32.9 20.4 32.65 20.25 32.55 20.45 32.65 20.9 32.95 22.2 33.75 23.8 34.45 24.25 34.85 Q24.7 35.2 24.9 35.2 L25.2 34.9 25.1 33.95 24.95 33.5 24.4 33.15 Q23.0 32.25 21.4 32.1 M2.05 39.05 L2.85 38.35 Q2.15 38.45 1.9 38.9 L2.05 39.05" fill="#3f210f" fill-rule="evenodd" stroke="none"/>
    <path d="M12.9 34.4 Q11.55 34.0 14.4 36.25 L15.3 37.1 16.0 37.7 19.4 40.25 23.1 43.2 23.35 43.2 19.7 39.8 18.45 38.75 20.4 39.9 23.15 41.55 26.0 44.2 27.7 46.45 Q27.3 45.05 26.25 43.7 L26.3 39.05 26.3 35.9 26.3 35.85 26.3 33.95 26.3 33.7 26.3 33.6 26.3 32.35 26.65 32.65 26.55 32.35 25.75 30.55 24.95 28.9 23.5 25.0 23.4 24.9 22.7 23.5 21.2 20.6 19.55 17.85 Q16.85 15.7 16.85 15.1 L16.9 14.8 Q17.2 14.85 17.35 15.45 L18.75 16.65 19.7 17.25 20.65 18.65 21.5 20.15 22.75 22.5 22.7 22.0 22.45 20.15 22.45 18.4 22.1 16.55 Q22.1 15.8 22.25 15.65 L22.6 18.2 22.65 19.5 Q22.65 20.25 22.8 20.7 L23.55 23.2 24.15 25.0 24.55 26.0 24.55 26.1 25.4 28.1 26.25 29.3 26.6 29.55 26.8 29.85 27.1 30.45 Q27.5 31.35 27.6 32.9 L27.85 33.9 28.35 31.95 Q29.0 28.85 31.65 25.55 34.1 22.3 35.65 19.25 L37.5 16.15 39.3 14.0 39.25 13.8 Q39.25 13.5 39.95 13.35 L39.9 13.2 40.15 11.3 Q40.15 10.15 40.4 9.3 L40.55 9.75 40.35 11.55 Q40.35 13.05 40.15 13.35 L40.35 13.3 42.7 13.05 44.5 12.95 45.7 12.95 46.3 13.0 Q46.6 13.0 46.75 13.25 L46.65 13.3 46.15 13.3 46.1 13.25 45.6 13.2 41.85 13.65 40.2 14.0 39.0 15.25 37.95 16.75 36.2 19.7 33.9 23.55 33.9 23.6 32.65 25.85 Q31.4 27.9 31.4 28.35 L30.65 31.05 30.05 32.95 Q29.95 32.95 29.8 33.15 30.0 32.9 30.15 33.0 L30.25 33.35 30.05 34.5 30.05 34.65 30.05 34.95 29.75 37.15 29.75 37.2 29.75 39.05 29.8 41.8 30.75 41.45 30.75 41.55 31.0 41.45 31.45 41.25 31.6 41.2 31.75 41.2 Q35.85 40.0 36.3 39.55 L38.45 37.0 38.75 36.6 38.7 36.5 Q38.7 36.2 39.65 34.8 L40.65 33.4 41.3 32.65 41.55 32.25 42.35 32.0 Q43.7 31.35 44.6 31.2 45.3 30.65 46.3 30.25 L45.2 31.15 45.1 31.15 46.3 31.25 46.55 31.5 46.85 31.4 47.8 31.6 47.75 31.75 46.75 31.8 45.55 32.0 44.45 32.3 43.55 32.45 42.8 32.7 42.35 32.95 Q41.45 33.25 41.3 33.45 L40.8 34.15 39.85 35.7 39.7 36.0 39.25 37.3 38.6 38.8 Q38.2 39.5 37.75 40.75 37.3 41.95 33.35 43.5 29.4 45.05 28.9 44.0 29.05 44.8 29.8 44.8 30.35 43.9 30.3 53.0 30.3 62.05 30.6 66.35 30.9 70.65 31.5 71.7 L32.2 72.85 32.3 72.95 32.4 73.0 32.7 73.15 31.0 73.5 29.65 73.25 Q29.45 72.95 28.5 72.95 L28.0 73.3 27.45 73.65 26.65 73.65 24.9 73.15 23.4 73.3 22.65 73.15 22.65 73.1 22.9 73.15 22.95 73.15 23.1 73.15 Q24.65 72.85 25.4 66.65 L25.95 59.4 Q25.5 49.2 26.2 50.45 L27.0 50.45 27.6 49.7 26.9 49.75 Q26.25 49.8 25.55 48.75 L24.65 47.15 23.55 45.0 Q22.2 42.7 19.5 40.5 L17.15 38.95 15.0 37.5 13.65 36.65 13.6 36.65 11.85 36.7 Q12.7 36.15 13.0 36.2 L13.05 35.9 Q13.05 35.0 11.3 36.0 L9.45 37.4 8.95 37.55 8.85 37.55 8.55 37.7 8.3 37.55 7.55 37.55 6.25 37.6 4.65 38.0 4.3 38.0 3.8 38.1 3.55 38.1 3.5 37.95 Q3.5 37.9 3.85 37.75 L3.95 37.7 Q4.6 37.2 6.95 36.75 L3.8 35.0 3.9 34.85 Q4.85 34.9 6.45 35.9 L7.6 36.65 11.1 35.8 Q11.15 35.4 11.6 35.05 L12.05 34.85 11.9 34.55 10.9 32.5 Q10.1 30.95 10.1 30.25 L10.15 30.0 10.25 29.95 12.4 33.65 12.9 34.4 M50.45 11.1 Q50.8 11.4 50.2 11.45 L49.6 12.25 Q48.5 13.55 47.95 13.55 L47.85 13.5 47.85 13.2 Q48.0 12.75 49.2 12.0 L50.2 11.05 50.45 11.1 M34.3 29.4 L35.5 28.95 38.55 26.95 39.8 25.55 Q40.5 24.85 40.5 25.5 L40.5 25.6 42.1 25.2 44.65 24.85 45.25 24.85 Q45.6 24.85 45.75 25.1 46.15 25.1 46.3 25.35 L44.6 25.6 41.9 25.85 40.4 26.1 40.3 26.1 38.9 27.5 37.95 28.45 37.9 28.6 Q37.7 28.0 36.7 28.85 L35.35 29.25 34.3 29.4 M37.35 29.25 L36.9 29.5 33.25 30.5 Q32.8 30.55 32.2 31.3 L31.15 32.5 30.85 32.5 30.85 32.2 31.3 31.15 31.7 30.1 Q31.85 29.8 32.7 29.65 L33.65 29.55 33.9 29.5 34.05 29.7 34.6 29.85 35.6 29.8 35.95 29.55 37.35 29.25 M41.85 32.6 L42.25 32.85 43.05 32.5 44.0 31.8 43.25 31.65 42.95 31.75 Q42.45 32.0 41.85 32.6 M32.0 14.05 L32.4 14.65 33.05 15.4 34.65 11.5 34.8 11.5 34.8 11.2 35.5 9.75 Q35.95 8.95 36.65 8.5 L36.75 8.75 Q35.95 9.45 35.45 10.6 L34.9 11.55 34.85 11.55 34.85 12.0 Q33.75 14.65 33.2 16.35 31.65 20.35 31.65 20.75 L31.45 21.95 31.2 22.55 31.0 23.2 Q30.7 23.65 30.65 24.35 30.3 24.95 30.25 25.6 L29.25 28.05 28.65 29.25 Q28.35 30.5 28.0 30.5 L27.8 30.3 27.8 30.1 Q27.8 29.45 28.15 28.4 L28.6 27.55 28.8 26.7 Q29.45 24.4 29.85 23.25 L30.95 19.85 31.5 18.15 31.95 17.0 32.3 16.35 30.25 12.8 30.3 12.9 29.75 12.3 28.55 10.65 27.65 9.05 26.65 7.35 26.75 7.15 28.85 10.3 30.45 12.3 31.1 13.05 31.15 13.15 32.1 15.35 32.25 15.25 32.15 14.3 32.0 14.05 M26.9 24.4 L26.9 25.9 26.9 25.95 27.05 26.25 27.15 26.45 27.25 27.05 27.4 28.2 Q27.5 29.15 27.1 29.15 26.75 29.15 26.7 28.75 L26.75 28.35 26.6 27.35 26.55 26.4 26.6 26.0 26.6 24.0 26.7 23.7 26.85 23.7 26.9 24.4 M32.15 18.45 Q31.8 18.75 31.15 20.2 30.6 21.55 30.6 21.9 L29.9 23.9 29.95 24.2 30.05 24.35 Q31.8 20.55 32.25 18.45 L32.15 18.45 M20.4 32.65 L20.8 32.9 19.3 32.4 18.6 32.1 18.3 32.35 Q18.0 32.35 17.65 31.5 L17.35 31.05 17.3 30.4 17.3 30.7 17.15 30.2 Q16.45 28.15 16.5 27.6 L16.3 25.1 16.05 22.55 15.85 21.5 15.3 21.0 15.25 21.0 14.55 20.6 13.85 20.05 13.0 18.8 12.5 17.75 12.1 16.45 12.15 16.3 Q12.7 16.45 12.8 17.3 L13.35 18.45 Q13.6 18.95 14.6 19.7 L15.45 20.4 Q16.05 20.65 16.45 21.6 L16.6 23.1 16.85 24.6 17.1 26.1 Q17.1 28.2 17.45 29.05 L17.9 30.1 18.1 30.25 19.25 30.95 20.55 31.6 21.4 32.1 20.0 31.7 19.55 31.75 19.5 32.0 20.4 32.65 M7.65 17.45 L7.45 17.2 7.5 17.1 8.1 17.15 8.35 17.45 8.3 17.6 8.05 17.6 7.65 17.45 M6.85 14.75 L7.0 14.6 8.1 15.65 9.2 16.85 9.85 17.45 10.5 17.65 10.95 17.85 11.85 18.4 12.4 18.95 12.6 19.3 12.4 19.6 10.7 18.7 9.45 18.15 Q8.85 17.85 8.9 17.6 L9.2 17.55 8.7 17.1 Q7.3 15.7 6.85 14.75 M21.4 32.1 Q23.0 32.25 24.4 33.15 L24.95 33.5 25.1 33.95 25.2 34.9 24.9 35.2 Q24.7 35.2 24.25 34.85 L23.8 34.45 22.2 33.75 20.9 32.95 20.45 32.65 24.15 34.4 24.5 34.0 Q22.65 32.65 21.4 32.1 M17.45 29.8 L17.2 30.1 17.55 30.7 Q17.95 31.2 18.5 31.2 L18.6 31.0 18.1 30.35 17.45 29.8 M2.05 39.05 L1.9 38.9 Q2.15 38.45 2.85 38.35 L2.05 39.05 M29.25 30.1 L29.35 30.7 29.5 30.75 30.5 27.85 Q29.95 27.9 29.55 28.9 29.25 29.65 29.25 30.1 M29.1 31.4 L28.95 31.85 29.1 31.95 29.2 31.4 29.1 31.4 M26.85 36.1 L26.6 37.85 26.8 40.8 26.95 43.85 27.1 43.85 27.3 41.6 27.1 38.8 26.85 36.1 M28.65 36.15 L28.4 37.95 Q28.4 39.15 28.55 40.1 28.85 39.45 28.85 37.65 28.85 36.25 28.65 36.15 M25.4 45.65 Q25.75 46.7 26.35 46.7 L26.55 46.65 26.05 46.0 25.4 45.65 M26.6 46.6 L26.5 47.0 27.1 47.95 27.3 48.0 27.45 47.7 27.2 47.05 26.6 46.6 M33.35 41.85 L34.0 42.1 Q34.65 42.1 35.05 41.55 L35.4 40.7 Q35.05 40.6 34.4 41.05 L33.35 41.85 M28.65 50.0 L28.4 50.8 28.25 51.75 28.55 56.45 28.35 59.5 28.5 65.25 28.95 68.05 Q29.4 70.55 29.85 71.15 L29.95 70.85 29.55 68.0 Q29.15 65.9 29.15 63.2 L29.05 56.9 28.85 54.3 28.65 51.75 28.85 50.15 28.8 50.0 28.65 50.0 M27.15 53.15 Q27.0 53.75 27.0 54.45 L27.2 56.5 27.3 56.55 27.45 55.35 27.35 53.15 27.15 53.15 M27.0 58.35 Q26.65 59.4 26.75 61.1 L26.95 63.8 26.8 65.8 26.5 67.5 26.45 70.6 26.55 70.7 Q27.05 70.35 27.0 69.4 L26.85 67.9 27.35 64.35 27.3 61.25 27.4 59.6 Q27.4 58.65 27.0 58.35" fill="#643417" fill-rule="evenodd" stroke="none"/>
    <path d="M14.4 36.25 L16.4 37.6 16.55 37.7 16.65 37.75 16.9 37.9 17.55 38.25 18.45 38.75 19.7 39.8 23.35 43.2 23.1 43.2 19.4 40.25 16.0 37.7 15.3 37.1 14.4 36.25 M9.45 37.4 L11.3 36.0 Q13.05 35.0 13.05 35.9 L13.0 36.2 Q12.7 36.15 11.85 36.7 L11.65 36.7 11.55 36.7 11.4 36.8 11.35 36.8 9.85 37.3 9.8 37.35 9.4 37.45 9.45 37.4 M34.3 29.4 L35.35 29.25 36.7 28.85 Q37.7 28.0 37.9 28.6 L37.65 28.9 37.6 28.95 37.35 29.2 37.35 29.25 35.95 29.55 35.6 29.8 34.6 29.85 34.05 29.7 33.9 29.5 34.0 29.5 34.0 29.45 34.3 29.4 M41.85 32.6 Q42.45 32.0 42.95 31.75 L43.25 31.65 44.0 31.8 43.05 32.5 42.25 32.85 41.85 32.6 M32.0 14.05 L32.15 14.3 32.25 15.25 32.1 15.35 31.15 13.15 31.1 13.05 31.4 13.4 32.0 14.05 M32.15 18.45 L32.25 18.45 Q31.8 20.55 30.05 24.35 L29.95 24.2 29.9 23.9 30.6 21.9 Q30.6 21.55 31.15 20.2 31.8 18.75 32.15 18.45 M20.4 32.65 L19.5 32.0 19.55 31.75 20.0 31.7 21.4 32.1 Q22.65 32.65 24.5 34.0 L24.15 34.4 20.45 32.65 20.25 32.55 20.4 32.65 M17.45 29.8 L18.1 30.35 18.6 31.0 18.5 31.2 Q17.95 31.2 17.55 30.7 L17.2 30.1 17.45 29.8 M27.0 58.35 Q27.4 58.65 27.4 59.6 L27.3 61.25 27.35 64.35 26.85 67.9 27.0 69.4 Q27.05 70.35 26.55 70.7 L26.45 70.6 26.5 67.5 26.8 65.8 26.95 63.8 26.75 61.1 Q26.65 59.4 27.0 58.35 M27.15 53.15 L27.35 53.15 27.45 55.35 27.3 56.55 27.2 56.5 27.0 54.45 Q27.0 53.75 27.15 53.15 M28.65 50.0 L28.8 50.0 28.85 50.15 28.65 51.75 28.85 54.3 29.05 56.9 29.15 63.2 Q29.15 65.9 29.55 68.0 L29.95 70.85 29.85 71.15 Q29.4 70.55 28.95 68.05 L28.5 65.25 28.35 59.5 28.55 56.45 28.25 51.75 28.4 50.8 28.65 50.0 M33.35 41.85 L34.4 41.05 Q35.05 40.6 35.4 40.7 L35.05 41.55 Q34.65 42.1 34.0 42.1 L33.35 41.85 M26.6 46.6 L27.2 47.05 27.45 47.7 27.3 48.0 27.1 47.95 26.5 47.0 26.6 46.6 M25.4 45.65 L26.05 46.0 26.55 46.65 26.35 46.7 Q25.75 46.7 25.4 45.65 M28.65 36.15 Q28.85 36.25 28.85 37.65 28.85 39.45 28.55 40.1 28.4 39.15 28.4 37.95 L28.65 36.15 M26.85 36.1 L27.1 38.8 27.3 41.6 27.1 43.85 26.95 43.85 26.8 40.8 26.6 37.85 26.85 36.1 M29.1 31.4 L29.2 31.4 29.1 31.95 28.95 31.85 29.1 31.4 M29.25 30.1 Q29.25 29.65 29.55 28.9 29.95 27.9 30.5 27.85 L29.5 30.75 29.35 30.7 29.25 30.1" fill="#7e421e" fill-rule="evenodd" stroke="none"/>
    <path d="M43.95 39.15 L43.75 39.15 Q43.4 38.4 43.05 38.4 L42.7 38.5 41.7 38.45 40.9 38.3 40.1 38.6 Q39.45 39.15 39.05 39.15 L38.8 38.95 Q39.1 38.6 39.85 38.3 L42.65 38.1 42.65 38.05 Q43.25 38.05 43.55 38.35 L43.95 39.15 M22.35 14.1 L22.5 14.35 22.3 15.6 22.15 15.6 22.1 15.15 Q22.1 14.45 22.35 14.1 M26.85 22.25 L26.75 22.25 26.65 21.9 Q26.65 21.65 26.8 21.55 L26.9 21.9 26.85 22.25" fill="#573622" fill-rule="evenodd" stroke="none"/>
    <path d="M1.3 34.6 L1.1 34.6 1.05 34.55 1.2 34.55 1.3 34.6" fill="#2e1d12" fill-rule="evenodd" stroke="none"/>
  </g>
</svg>
