<?xml version="1.0" encoding="UTF-8" standalone="no"?>
<svg xmlns:ffdec="https://www.free-decompiler.com/flash" xmlns:xlink="http://www.w3.org/1999/xlink" ffdec:objectType="shape" height="188.9px" width="253.25px" xmlns="http://www.w3.org/2000/svg">
  <g transform="matrix(1.0, 0.0, 0.0, 1.0, 124.8, 145.8)">
    <path d="M22.5 -118.7 L20.95 -119.0 Q19.7 -119.35 19.35 -119.65 18.7 -120.25 18.7 -122.2 L18.8 -124.05 Q19.05 -125.2 19.7 -125.7 L21.05 -126.45 22.15 -127.05 22.75 -127.45 Q23.8 -128.15 25.4 -128.35 L28.25 -128.4 29.4 -128.35 30.8 -128.15 34.45 -127.5 Q35.35 -127.3 35.6 -126.8 L35.8 -125.85 35.7 -124.7 35.1 -123.65 Q34.15 -122.35 33.6 -122.0 L32.15 -121.4 30.6 -121.0 Q29.9 -120.75 27.7 -119.5 26.0 -118.55 24.75 -118.45 L22.5 -118.7 M31.75 -123.25 L32.65 -123.55 33.3 -124.25 34.15 -125.6 33.1 -125.85 31.0 -126.25 26.45 -126.55 25.15 -126.35 24.2 -126.1 21.45 -125.1 20.65 -124.6 Q20.25 -124.2 20.15 -122.45 20.15 -121.45 20.4 -121.15 20.6 -120.85 21.3 -120.65 L25.8 -120.5 27.95 -121.7 Q29.7 -122.7 31.75 -123.25 M15.75 -138.45 L15.45 -138.65 13.7 -139.0 11.85 -139.0 10.25 -139.65 Q9.75 -139.95 8.75 -140.6 L5.95 -141.85 4.0 -143.1 Q2.45 -143.95 0.4 -143.95 L-3.45 -143.5 -7.3 -142.95 -9.9 -143.1 -12.5 -143.3 -15.45 -142.9 Q-17.65 -142.3 -19.4 -140.9 L-20.3 -140.05 Q-21.45 -138.9 -22.1 -137.45 -21.9 -137.05 -22.25 -136.4 L-22.8 -135.3 Q-22.95 -134.3 -21.95 -133.75 -21.25 -133.35 -20.15 -133.45 -19.0 -133.55 -16.0 -134.55 -13.45 -135.35 -11.85 -135.2 -9.65 -134.95 -8.25 -133.25 L-7.55 -132.35 -6.75 -131.65 -4.7 -131.25 2.3 -131.2 4.6 -131.45 Q5.2 -131.65 6.3 -132.35 L8.0 -133.3 11.2 -133.4 Q13.25 -133.2 14.5 -133.35 16.3 -133.5 17.5 -134.35 L16.65 -137.1 15.75 -138.45 M18.9 -132.8 Q18.25 -132.0 16.6 -131.6 L11.05 -131.45 8.5 -131.35 7.55 -130.8 6.6 -130.2 Q5.05 -129.25 2.4 -129.25 L-2.0 -129.4 -5.35 -129.3 Q-7.35 -129.5 -8.4 -130.45 L-9.75 -132.1 Q-11.4 -133.75 -14.7 -133.0 L-17.2 -132.2 -19.75 -131.55 -22.4 -131.75 Q-23.75 -132.2 -24.35 -133.3 -25.3 -135.0 -24.2 -137.2 L-23.1 -138.9 -21.85 -140.5 -20.1 -142.55 -18.2 -143.55 Q-15.05 -144.9 -12.95 -145.0 L-10.9 -144.95 -8.85 -144.8 -5.35 -145.05 -1.85 -145.6 Q2.5 -146.2 4.95 -144.85 L6.85 -143.65 Q7.65 -143.15 9.35 -142.35 11.65 -141.25 12.9 -141.1 L14.35 -141.05 15.7 -140.85 Q17.5 -140.25 18.8 -137.25 20.05 -134.25 18.9 -132.8 M44.35 -73.1 L47.5 -72.45 Q49.1 -71.95 49.7 -71.35 L50.45 -70.1 51.0 -68.75 51.15 -67.1 51.0 -65.85 50.25 -64.85 49.25 -64.05 47.8 -63.85 45.65 -63.25 Q43.35 -62.55 41.0 -63.6 40.4 -63.85 39.55 -64.4 L36.85 -66.2 36.1 -67.05 35.9 -68.35 Q35.9 -69.15 36.05 -69.55 36.25 -70.15 37.25 -70.75 L39.1 -71.55 40.9 -72.35 42.3 -73.1 Q42.95 -73.3 44.35 -73.1 M47.45 -65.65 L48.3 -65.75 49.0 -66.05 Q49.45 -66.5 49.25 -67.65 49.05 -69.2 48.45 -69.8 47.95 -70.35 47.0 -70.55 L45.3 -70.85 43.95 -71.1 42.65 -71.0 Q41.5 -70.05 40.8 -70.0 L39.95 -70.1 Q39.35 -70.15 38.35 -69.55 L37.5 -68.7 Q37.25 -67.8 38.6 -66.9 40.5 -65.6 41.55 -65.15 43.35 -64.4 44.9 -64.8 L46.2 -65.25 47.45 -65.65 M55.2 -58.25 Q55.3 -57.7 56.0 -57.0 L56.4 -56.65 Q57.2 -56.0 57.8 -55.65 58.9 -55.1 61.0 -55.0 62.85 -54.85 65.4 -55.05 L71.45 -55.7 77.45 -55.9 80.35 -55.65 Q81.8 -55.65 82.5 -56.25 L83.2 -57.25 84.35 -59.45 84.7 -60.25 84.6 -61.15 Q84.35 -62.0 83.15 -63.2 L82.65 -63.7 80.4 -65.5 Q79.4 -66.15 78.5 -66.2 L75.75 -65.65 Q72.35 -64.55 68.6 -64.85 L64.8 -64.95 62.85 -64.25 59.05 -62.1 55.8 -59.65 55.15 -58.8 55.15 -58.65 55.15 -58.25 55.2 -58.25 M53.45 -60.1 Q53.85 -60.85 54.7 -61.45 57.45 -63.7 60.95 -65.45 63.95 -67.0 66.25 -67.0 L69.1 -66.8 74.65 -67.25 76.65 -67.8 78.6 -68.0 Q79.95 -67.85 81.4 -66.9 L83.7 -64.9 85.45 -62.85 Q86.6 -60.95 86.0 -58.65 85.55 -56.65 84.0 -54.95 L82.65 -53.9 81.0 -53.8 77.4 -54.05 73.75 -54.1 67.15 -53.4 60.55 -53.1 Q58.55 -53.25 57.2 -53.85 L54.6 -55.55 Q53.65 -56.4 53.35 -57.2 L53.15 -58.4 Q53.15 -59.5 53.45 -60.1 M7.2 -71.8 Q7.8 -72.2 9.1 -72.8 11.1 -73.55 14.3 -73.7 L19.65 -74.0 22.5 -74.3 Q24.1 -74.3 25.1 -73.6 L26.45 -72.05 27.55 -70.2 29.1 -67.9 Q29.6 -66.75 29.45 -65.4 29.25 -64.05 28.5 -63.0 27.1 -60.95 24.4 -60.05 22.5 -59.35 19.35 -59.15 16.75 -58.9 14.9 -59.2 L12.0 -59.75 9.25 -59.5 6.45 -58.75 Q3.0 -57.8 0.9 -58.7 0.05 -59.1 -0.4 -59.85 -0.95 -60.7 -0.7 -61.5 -1.95 -61.6 -2.6 -62.75 -3.2 -63.7 -3.2 -64.95 -3.3 -66.35 -2.8 -67.4 -2.0 -69.1 -0.1 -70.0 1.3 -70.65 3.6 -70.75 L5.95 -71.05 Q6.4 -71.2 7.2 -71.8 M26.05 -69.25 L25.6 -69.85 25.15 -70.9 Q24.45 -72.45 22.85 -72.6 L20.95 -72.4 17.75 -72.2 14.55 -72.2 Q10.5 -72.0 8.4 -70.7 L7.3 -69.95 6.1 -69.4 5.6 -69.3 3.6 -69.25 Q0.75 -69.25 -0.65 -67.9 -1.5 -67.1 -1.8 -65.95 -2.1 -64.7 -1.5 -63.75 L0.1 -63.65 Q1.0 -63.3 1.15 -62.45 1.0 -61.35 1.3 -60.9 L2.2 -60.4 2.4 -60.35 2.55 -60.35 5.0 -60.45 6.8 -60.85 Q10.05 -61.8 11.5 -61.65 L13.65 -61.15 15.75 -60.6 18.35 -60.55 23.1 -61.2 Q25.65 -62.05 27.05 -63.8 27.6 -64.5 27.8 -65.35 28.1 -67.0 26.35 -68.95 L26.05 -69.25 M112.2 -26.3 L111.6 -26.85 110.2 -27.6 108.7 -27.8 Q106.6 -27.9 104.9 -27.25 104.35 -27.1 104.0 -26.75 L103.6 -26.1 103.3 -25.4 Q102.85 -24.5 101.05 -23.55 99.5 -22.7 98.2 -22.3 L97.5 -22.1 96.9 -21.4 Q97.35 -20.95 98.8 -21.15 L104.55 -21.5 106.2 -21.55 109.25 -22.35 110.4 -22.65 111.45 -23.25 112.25 -23.7 112.75 -24.4 112.6 -25.25 112.2 -26.3 M112.55 -28.6 Q114.0 -27.6 114.55 -25.9 115.0 -24.05 114.2 -23.0 L113.1 -21.95 Q112.15 -21.35 111.0 -20.9 L108.55 -20.15 106.15 -19.65 103.8 -19.55 99.25 -19.2 97.4 -19.1 Q96.6 -19.15 95.9 -19.65 L95.15 -20.3 94.95 -21.2 95.15 -22.15 96.05 -22.9 98.45 -24.0 100.25 -24.75 101.65 -25.95 102.4 -27.4 103.2 -28.35 104.35 -29.0 106.55 -29.6 Q108.3 -29.85 109.8 -29.55 L112.55 -28.6 M112.75 13.35 L113.35 13.6 115.2 13.95 117.1 14.2 118.8 14.75 121.25 15.05 123.75 15.4 Q125.25 15.5 126.1 14.85 L126.45 14.25 126.2 13.8 125.6 12.1 Q125.3 11.45 124.55 10.95 L124.35 10.85 124.1 10.75 123.05 10.2 120.35 8.35 Q119.35 7.45 118.7 7.25 L117.9 7.2 116.65 7.2 115.25 7.25 Q114.15 7.4 112.55 8.6 L110.1 10.45 Q108.5 11.3 108.2 11.65 108.2 11.95 108.5 12.05 L109.0 12.3 109.3 12.7 109.75 12.85 111.85 13.0 112.75 13.35 M117.8 5.2 L119.25 5.3 120.7 6.15 121.95 7.3 124.55 8.8 Q126.2 9.65 126.9 10.5 L127.85 12.25 128.45 14.05 Q128.55 14.9 128.15 15.6 127.35 17.1 125.35 17.35 L121.95 17.15 118.5 16.45 115.2 15.6 112.8 15.15 111.7 14.6 109.4 14.5 108.55 14.4 107.6 13.75 106.8 12.7 106.6 11.45 Q106.6 10.7 106.85 10.4 L107.85 10.0 Q108.8 9.8 109.9 8.85 L111.7 7.15 Q113.45 5.65 115.4 5.3 L117.8 5.2 M100.0 18.45 L96.1 19.25 94.15 19.45 92.45 19.1 Q90.45 18.45 89.5 17.75 L88.7 16.9 Q88.55 16.6 88.65 15.95 88.9 14.7 89.8 14.0 90.2 13.7 91.25 13.35 92.25 13.05 92.65 12.7 L92.3 12.15 Q92.25 11.75 92.45 11.5 92.8 10.95 94.0 11.05 L97.7 11.45 Q99.7 11.85 101.15 12.6 L101.85 13.2 102.0 14.0 102.0 15.6 101.9 16.8 Q101.7 17.5 101.15 17.85 100.85 18.2 100.0 18.45 M95.5 13.5 L93.5 14.15 Q91.05 14.85 90.25 16.1 91.6 17.6 94.3 17.7 L98.75 17.15 Q100.0 16.95 100.3 16.45 L100.45 15.3 100.45 14.15 Q98.9 13.5 97.1 13.2 L96.2 13.2 95.5 13.5 M63.95 11.9 L62.45 10.75 59.95 9.25 58.3 8.5 Q57.4 7.95 57.0 7.25 L52.2 6.7 50.8 6.35 48.9 6.2 Q45.35 6.1 43.75 7.4 L42.6 8.7 42.55 8.85 41.65 10.15 38.95 13.45 Q38.2 14.3 38.4 14.85 L39.05 15.55 Q41.15 16.8 43.65 17.0 46.15 17.2 48.4 16.35 L50.05 15.65 Q51.0 15.3 51.75 15.25 L53.9 15.7 56.0 16.3 58.25 16.3 64.45 15.8 Q65.65 15.7 65.9 15.05 L65.85 14.35 63.95 11.9 M59.1 6.75 L60.7 7.55 Q62.7 8.4 65.15 10.4 66.7 11.65 67.35 12.75 68.3 14.45 67.65 15.85 66.9 17.55 64.3 17.85 L62.3 17.85 60.25 17.85 58.2 18.15 56.15 18.25 Q55.55 18.2 53.75 17.55 L51.3 17.15 48.55 18.05 Q46.05 19.05 43.25 18.8 40.45 18.5 38.15 17.1 L36.9 15.95 36.6 14.5 Q36.6 13.55 36.75 13.3 L37.6 12.5 Q38.75 11.65 40.8 8.7 42.65 6.1 44.25 5.35 45.6 4.7 48.65 4.6 L51.45 4.75 52.85 5.15 55.2 5.5 56.6 5.55 57.9 5.9 59.1 6.75 M-64.7 -77.7 L-65.4 -79.1 -66.35 -80.05 -68.35 -80.3 -70.3 -79.8 Q-71.8 -79.5 -73.95 -79.75 L-77.6 -80.35 -79.85 -80.2 Q-80.5 -79.9 -81.6 -78.85 L-82.15 -78.5 -83.4 -77.9 -84.85 -76.05 -84.9 -75.95 -85.3 -74.95 -85.4 -74.5 -85.5 -73.4 -84.8 -73.15 -84.15 -72.75 -82.55 -72.5 -82.35 -72.5 -78.05 -71.45 Q-75.25 -70.5 -73.75 -70.45 -71.85 -70.4 -68.8 -71.45 -66.55 -72.2 -65.5 -73.25 L-64.8 -74.25 Q-64.4 -75.15 -64.4 -76.05 -64.4 -76.9 -64.7 -77.7 M-85.7 -70.9 L-86.3 -71.15 Q-86.65 -71.4 -86.8 -72.0 -87.65 -75.0 -85.45 -78.1 L-84.35 -79.25 -83.05 -79.9 Q-82.6 -80.15 -81.85 -80.75 L-80.7 -81.6 Q-79.0 -82.5 -75.85 -81.95 L-73.35 -81.55 -70.9 -81.6 Q-68.95 -82.25 -67.95 -82.3 -65.7 -82.35 -64.0 -80.25 L-63.0 -78.6 -62.6 -77.25 Q-62.25 -75.6 -62.85 -74.0 -63.45 -72.35 -64.75 -71.35 -65.85 -70.45 -68.7 -69.5 -70.85 -68.8 -72.35 -68.6 -74.25 -68.45 -77.45 -69.35 L-82.55 -70.45 -84.4 -70.55 -85.7 -70.9 M-51.75 -77.1 L-50.35 -76.35 Q-47.35 -74.8 -43.5 -76.7 L-42.6 -77.35 Q-42.35 -77.8 -42.35 -78.5 -42.4 -79.55 -43.15 -80.4 -43.85 -81.3 -44.85 -81.6 L-46.8 -81.75 -50.1 -81.05 Q-52.35 -80.25 -52.85 -78.85 -53.15 -77.8 -52.55 -77.35 L-51.75 -77.1 M-44.85 -83.65 L-43.6 -83.15 -42.75 -82.65 -41.2 -80.85 -40.7 -79.9 Q-40.55 -79.45 -40.55 -78.9 L-40.65 -77.35 Q-40.75 -76.45 -41.1 -76.05 L-42.15 -75.35 -43.75 -74.6 -45.2 -74.05 -47.15 -73.95 -48.65 -74.0 -50.15 -74.2 -52.1 -75.3 -53.9 -76.05 -54.5 -76.65 -54.6 -77.4 Q-54.6 -79.25 -54.1 -80.2 -53.55 -81.25 -52.2 -82.0 L-49.7 -82.95 -49.65 -83.45 -49.3 -83.8 -47.95 -84.0 -46.55 -83.75 -44.85 -83.65 M-42.0 -31.05 L-42.5 -31.9 Q-43.4 -33.25 -44.2 -33.65 -45.1 -34.15 -47.1 -34.05 L-48.5 -33.9 Q-49.25 -33.7 -50.2 -33.1 L-52.15 -32.0 Q-53.55 -31.2 -54.35 -31.05 L-57.25 -31.2 -60.2 -31.25 -61.8 -30.55 -63.6 -29.55 -64.2 -29.25 -64.25 -29.2 -64.5 -29.1 -67.05 -27.45 -68.5 -25.8 -69.8 -24.0 Q-68.0 -23.05 -65.15 -23.4 L-60.35 -23.75 -57.6 -23.2 -54.85 -22.5 -50.5 -22.35 -46.15 -23.0 -43.2 -23.6 Q-41.8 -24.1 -41.3 -24.8 -40.85 -25.5 -40.95 -26.7 -41.0 -29.0 -42.0 -31.05 M-46.2 -35.95 L-44.2 -35.9 Q-43.35 -35.65 -42.4 -34.8 -40.8 -33.3 -39.85 -31.1 -39.0 -28.95 -39.0 -26.65 -39.0 -24.3 -40.0 -23.2 -40.75 -22.4 -42.7 -21.8 L-48.15 -20.75 -53.15 -20.35 -57.05 -21.05 -60.9 -21.75 -65.2 -21.4 -69.4 -21.65 -71.6 -22.4 -72.35 -22.75 Q-72.7 -23.15 -72.4 -23.75 L-71.65 -24.55 -70.05 -26.45 -68.5 -28.4 -65.6 -30.3 Q-63.35 -31.4 -62.55 -32.05 L-61.15 -32.95 -59.95 -33.15 -57.55 -32.95 -55.65 -32.7 Q-54.2 -32.7 -52.0 -34.15 -49.6 -35.7 -48.35 -35.9 L-46.2 -35.95 M-8.1 -23.85 Q-8.1 -24.65 -8.25 -25.1 -8.6 -26.0 -9.7 -26.55 -11.25 -27.25 -14.3 -27.35 L-17.9 -27.5 Q-18.85 -27.6 -19.0 -27.05 L-21.5 -27.25 -23.5 -26.8 -24.3 -26.5 -25.15 -26.1 -28.45 -24.05 -29.05 -23.45 Q-29.2 -22.9 -28.8 -22.5 L-27.9 -21.95 -26.0 -21.4 -24.1 -20.95 -20.05 -19.3 Q-17.5 -18.35 -15.75 -18.6 L-13.75 -19.1 -11.75 -19.55 -10.45 -19.55 Q-9.7 -19.6 -9.25 -19.9 -8.5 -20.45 -8.3 -22.3 L-8.15 -23.55 -8.1 -23.85 M-31.05 -22.7 Q-31.2 -24.1 -30.05 -25.25 L-27.7 -26.75 -24.8 -28.25 Q-23.3 -29.0 -22.55 -28.95 L-21.05 -28.9 -20.15 -29.3 -18.5 -29.55 -13.4 -29.4 -10.15 -28.95 Q-8.6 -28.4 -7.5 -27.3 -6.75 -26.65 -6.5 -25.9 -6.25 -25.25 -6.25 -23.9 -6.35 -21.65 -6.65 -20.6 -7.25 -18.75 -8.65 -18.0 L-10.8 -17.55 -13.05 -17.35 -15.1 -16.7 -17.15 -16.65 Q-18.7 -16.8 -20.9 -17.65 L-24.55 -19.05 -28.25 -20.1 Q-30.8 -21.0 -31.05 -22.7 M-38.65 -19.7 L-39.75 -19.0 -38.6 -18.55 -37.5 -18.15 -36.7 -18.1 -35.05 -18.15 -34.3 -18.3 -33.85 -18.85 Q-33.5 -19.4 -33.75 -19.75 -35.55 -20.5 -36.45 -20.15 L-37.25 -19.85 -37.85 -19.95 -38.65 -19.7 M-34.65 -16.55 Q-37.35 -16.15 -39.7 -17.3 -41.25 -18.0 -41.25 -19.05 -41.25 -19.9 -40.35 -20.45 L-38.75 -21.2 -37.25 -21.9 -35.75 -22.25 -33.75 -21.5 -32.45 -20.35 Q-32.25 -19.9 -32.35 -18.95 -32.55 -17.6 -33.2 -17.05 -33.8 -16.65 -34.65 -16.55 M-37.15 21.95 L-39.35 22.45 Q-40.5 22.8 -40.3 23.5 L-39.55 24.1 Q-34.7 25.85 -30.1 24.15 -29.8 24.05 -29.8 23.9 L-30.0 23.6 Q-31.5 22.55 -33.5 22.3 L-34.35 22.2 -35.2 21.9 -37.15 21.95 M-37.65 20.7 L-36.3 20.55 -32.95 20.45 -32.05 20.6 -31.3 21.05 -30.65 21.5 Q-29.4 21.95 -28.9 22.4 -28.25 22.95 -28.25 23.75 -28.25 24.6 -28.9 25.15 L-29.5 25.65 -32.35 26.4 -33.85 26.4 -37.05 26.15 -39.9 25.5 -41.15 24.7 Q-41.8 23.95 -41.65 23.1 -41.55 22.2 -40.8 21.65 L-39.45 21.15 -37.65 20.7 M-64.2 11.55 Q-63.85 10.95 -63.0 10.4 -60.5 8.7 -55.45 7.85 L-52.95 7.75 -51.5 8.2 -50.05 8.75 -47.75 9.1 Q-46.1 9.45 -44.45 10.9 -42.8 12.3 -42.45 13.9 -42.25 15.05 -42.65 16.3 -43.1 18.0 -44.25 18.4 L-45.4 18.5 -49.35 18.55 -55.45 18.45 -61.5 17.65 -63.6 16.85 -64.55 15.85 Q-64.95 15.1 -64.75 13.7 -64.65 12.25 -64.2 11.55 M-61.8 11.45 Q-62.35 11.75 -62.55 12.1 -63.05 12.6 -63.25 13.9 -63.35 14.65 -63.1 15.05 L-62.55 15.55 -60.75 16.1 -47.95 16.7 -45.65 16.65 -44.6 16.5 -44.4 15.75 -44.1 15.0 Q-43.85 14.15 -44.5 13.35 L-45.8 12.1 Q-47.05 11.15 -47.85 10.95 L-49.55 10.75 -50.85 10.45 -52.15 10.15 -53.25 10.0 Q-53.95 9.8 -53.95 9.2 -56.55 9.5 -59.0 10.25 -60.85 10.85 -61.8 11.45 M-79.9 12.0 L-80.1 11.8 Q-81.55 10.5 -84.5 9.5 -93.45 6.25 -99.65 8.35 -101.95 9.15 -105.55 11.45 L-110.9 14.6 -111.35 14.8 -114.1 16.0 -114.2 16.0 -115.45 16.8 -116.8 17.45 -119.15 17.85 Q-121.6 18.3 -123.25 20.25 -123.15 20.95 -122.35 21.2 L-121.05 21.25 -118.25 21.3 -116.1 22.05 -113.95 22.85 Q-111.65 23.35 -108.35 22.15 L-105.7 21.1 -103.0 20.25 -102.85 20.25 -102.8 20.25 Q-100.25 19.7 -95.7 20.35 L-88.35 20.9 -83.65 20.1 -81.85 19.8 -81.75 19.8 -81.15 19.65 -80.6 19.45 -80.15 19.2 Q-79.1 18.65 -78.6 17.65 L-78.35 17.05 -78.15 16.35 -78.15 16.15 Q-77.95 13.8 -79.9 12.0 M-117.3 23.5 L-119.5 23.2 -121.75 23.2 Q-123.0 23.1 -123.85 22.4 -124.85 21.6 -124.8 20.55 -124.75 19.45 -123.25 18.25 -122.0 17.2 -120.95 16.75 L-119.5 16.3 -118.05 16.0 Q-116.75 15.7 -114.7 14.6 L-110.2 12.25 -105.45 9.3 Q-102.65 7.55 -100.5 6.8 -96.15 5.2 -91.0 5.8 -86.35 6.35 -81.65 8.6 -78.45 10.15 -77.3 11.9 -75.9 13.9 -76.4 16.5 -76.85 19.1 -78.85 20.5 -80.45 21.6 -84.1 22.2 L-90.25 22.8 -97.0 22.05 -103.65 22.3 -107.2 23.75 Q-109.9 24.8 -112.9 24.8 L-115.05 24.55 -116.15 24.05 -117.3 23.5 M-58.85 32.85 L-59.65 32.9 -61.1 32.35 -62.4 31.5 Q-64.7 30.1 -67.95 29.95 L-70.95 30.0 -73.85 30.55 Q-75.8 31.0 -76.9 31.7 L-78.35 33.05 -79.1 33.75 Q-81.15 35.9 -84.1 37.2 -84.55 37.3 -84.5 37.65 L-84.2 38.0 -83.4 38.85 -82.45 38.9 -77.0 37.75 -74.75 37.1 -72.9 36.95 -70.7 37.1 -68.2 37.55 -65.9 37.65 -55.05 37.4 -53.95 37.0 Q-53.7 36.7 -53.7 35.9 -53.7 34.75 -54.25 34.4 -54.45 34.25 -54.8 34.2 L-55.4 34.1 -56.7 33.5 -58.05 32.9 -58.85 32.85 M-64.8 28.55 Q-62.3 29.15 -61.25 29.9 L-59.65 30.85 -58.4 30.95 -57.15 31.05 -56.35 31.45 -55.55 31.9 -54.05 32.4 Q-53.15 32.65 -52.7 33.0 -52.0 33.6 -51.8 34.85 -51.6 36.1 -51.95 37.2 -52.35 38.4 -53.3 38.95 -54.0 39.35 -55.65 39.45 L-64.55 39.65 -67.7 39.55 -70.75 39.1 -73.8 39.0 -77.85 40.1 -82.35 40.85 -84.45 40.55 -85.4 39.5 Q-85.95 38.75 -86.45 38.6 L-87.2 38.35 -87.5 37.75 -87.15 37.05 Q-86.75 36.65 -85.75 36.45 -82.95 35.65 -80.65 33.35 L-77.85 30.65 Q-76.55 29.75 -74.1 29.1 -69.95 27.95 -67.6 28.1 L-64.8 28.55 M-91.05 40.5 L-91.2 40.1 -91.6 39.85 -92.3 39.25 -92.65 38.95 -93.2 39.25 -94.4 38.9 -95.3 39.0 -96.25 39.45 -96.45 39.95 -96.5 40.4 -96.25 40.8 Q-95.35 41.6 -94.8 41.65 L-93.85 41.55 -91.45 40.85 Q-91.1 40.75 -91.05 40.5 M-98.0 40.7 L-97.9 39.55 -97.4 38.6 Q-96.9 38.0 -95.85 37.75 L-94.05 37.35 -92.5 37.05 Q-92.1 37.1 -91.1 37.85 -89.95 39.0 -89.65 39.6 -89.05 40.9 -89.85 41.7 L-90.75 42.35 Q-92.5 43.1 -94.05 43.1 -95.95 43.1 -97.2 42.0 -97.85 41.45 -98.0 40.7" fill="#9d9d9d" fill-rule="evenodd" stroke="none"/>
    <path d="M-20.3 -140.05 L-19.95 -139.35 Q-18.85 -137.95 -16.2 -137.95 L-14.1 -138.1 -12.05 -137.95 Q-11.25 -137.75 -10.15 -137.15 L-8.25 -136.15 Q-5.05 -134.65 0.15 -135.5 L4.35 -136.2 8.6 -136.6 10.7 -136.5 12.75 -136.6 Q14.95 -137.0 15.75 -138.45 L16.65 -137.1 17.5 -134.35 Q16.3 -133.5 14.5 -133.35 13.25 -133.2 11.2 -133.4 L8.0 -133.3 6.3 -132.35 Q5.2 -131.65 4.6 -131.45 L2.3 -131.2 -4.7 -131.25 -6.75 -131.65 -7.55 -132.35 -8.25 -133.25 Q-9.65 -134.95 -11.85 -135.2 -13.45 -135.35 -16.0 -134.55 -19.0 -133.55 -20.15 -133.45 -21.25 -133.35 -21.95 -133.75 -22.95 -134.3 -22.8 -135.3 L-22.25 -136.4 Q-21.9 -137.05 -22.1 -137.45 -21.45 -138.9 -20.3 -140.05 M56.4 -56.65 L56.1 -57.1 55.5 -57.95 55.2 -58.25 55.15 -58.25 55.15 -58.65 55.15 -58.8 55.8 -59.65 59.05 -62.1 Q60.05 -60.1 61.3 -59.5 62.25 -59.0 64.35 -58.65 L65.75 -58.15 67.2 -57.7 69.25 -57.6 72.55 -57.6 76.2 -58.05 Q77.75 -58.65 79.9 -60.9 L82.65 -63.7 83.15 -63.2 Q84.35 -62.0 84.6 -61.15 L84.7 -60.25 84.35 -59.45 83.2 -57.25 82.5 -56.25 Q81.8 -55.65 80.35 -55.65 L77.45 -55.9 71.45 -55.7 65.4 -55.05 Q62.85 -54.85 61.0 -55.0 58.9 -55.1 57.8 -55.65 57.2 -56.0 56.4 -56.65 M5.6 -69.3 L5.3 -68.5 4.55 -66.9 Q4.35 -66.2 4.6 -65.9 4.85 -65.5 5.8 -65.5 10.4 -65.7 15.15 -64.55 L18.75 -64.05 Q19.55 -64.15 21.85 -65.2 23.9 -66.0 24.45 -66.55 L25.5 -68.2 26.05 -69.25 26.35 -68.95 Q28.1 -67.0 27.8 -65.35 27.6 -64.5 27.05 -63.8 25.65 -62.05 23.1 -61.2 L18.35 -60.55 15.75 -60.6 13.65 -61.15 11.5 -61.65 Q10.05 -61.8 6.8 -60.85 L5.0 -60.45 2.55 -60.35 2.4 -60.35 2.2 -60.4 1.3 -60.9 Q1.0 -61.35 1.15 -62.45 1.0 -63.3 0.1 -63.65 L-1.5 -63.75 Q-2.1 -64.7 -1.8 -65.95 -1.5 -67.1 -0.65 -67.9 0.75 -69.25 3.6 -69.25 L5.6 -69.3 M124.1 10.75 L124.35 10.85 124.55 10.95 Q125.3 11.45 125.6 12.1 L126.2 13.8 126.45 14.25 126.1 14.85 Q125.25 15.5 123.75 15.4 L121.25 15.05 118.8 14.75 117.1 14.2 115.2 13.95 113.35 13.6 112.75 13.35 Q117.75 13.0 122.3 11.45 L124.1 10.75 M42.55 8.85 L43.55 9.75 Q45.0 10.95 47.5 11.65 L52.6 12.4 56.15 12.65 58.1 13.25 59.4 13.35 61.25 13.1 Q62.25 12.8 63.5 11.5 L63.95 11.9 65.85 14.35 65.9 15.05 Q65.65 15.7 64.45 15.8 L58.25 16.3 56.0 16.3 53.9 15.7 51.75 15.25 Q51.0 15.3 50.05 15.65 L48.4 16.35 Q46.15 17.2 43.65 17.0 41.15 16.8 39.05 15.55 L38.4 14.85 Q38.2 14.3 38.95 13.45 L41.65 10.15 42.55 8.85 M-82.15 -78.5 L-81.65 -77.5 -80.5 -76.8 -79.2 -76.4 -77.65 -75.65 Q-76.65 -75.1 -76.1 -74.9 L-73.0 -74.55 -70.45 -74.55 -69.0 -74.7 Q-68.2 -74.95 -66.95 -76.2 L-64.7 -77.7 Q-64.4 -76.9 -64.4 -76.05 -64.4 -75.15 -64.8 -74.25 L-65.5 -73.25 Q-66.55 -72.2 -68.8 -71.45 -71.85 -70.4 -73.75 -70.45 -75.25 -70.5 -78.05 -71.45 L-82.35 -72.5 -82.55 -72.5 -82.95 -72.65 Q-84.25 -73.2 -84.95 -73.9 L-85.4 -74.5 -85.3 -74.95 -84.9 -75.95 -84.85 -76.05 -83.4 -77.9 -82.15 -78.5 M-63.6 -29.55 L-62.1 -28.4 -60.65 -27.05 -59.05 -25.95 Q-57.9 -25.45 -55.9 -25.25 L-50.9 -24.75 -49.0 -24.85 -47.55 -25.85 -45.1 -27.65 Q-43.6 -28.7 -42.9 -29.65 L-42.0 -31.05 Q-41.0 -29.0 -40.95 -26.7 -40.85 -25.5 -41.3 -24.8 -41.8 -24.1 -43.2 -23.6 L-46.15 -23.0 -50.5 -22.35 -54.85 -22.5 -57.6 -23.2 -60.35 -23.75 -65.15 -23.4 Q-68.0 -23.05 -69.8 -24.0 L-68.5 -25.8 -67.05 -27.45 -64.5 -29.1 -64.25 -29.2 -64.2 -29.25 -63.6 -29.55 M-23.5 -26.8 L-23.45 -26.75 -21.35 -24.15 Q-20.6 -23.3 -20.05 -23.15 L-18.65 -23.0 -15.55 -22.15 -12.95 -21.95 -11.4 -22.7 -9.8 -23.25 Q-8.75 -23.55 -8.25 -23.8 L-8.1 -23.85 -8.15 -23.55 -8.3 -22.3 Q-8.5 -20.45 -9.25 -19.9 -9.7 -19.6 -10.45 -19.55 L-11.75 -19.55 -13.75 -19.1 -15.75 -18.6 Q-17.5 -18.35 -20.05 -19.3 L-24.1 -20.95 -26.0 -21.4 -27.9 -21.95 -28.8 -22.5 Q-29.2 -22.9 -29.05 -23.45 L-28.45 -24.05 -25.15 -26.1 -24.3 -26.5 -23.5 -26.8 M-110.9 14.6 L-110.45 14.4 Q-109.25 15.05 -107.65 15.55 L-103.55 16.35 -99.4 16.9 -96.45 17.4 -93.5 17.7 -89.05 17.25 -85.6 16.4 -82.5 14.35 -79.9 12.0 Q-77.95 13.8 -78.15 16.15 L-78.15 16.35 -78.35 17.05 -78.6 17.65 -80.6 19.45 -81.15 19.65 -81.75 19.8 -81.85 19.8 -83.65 20.1 -88.35 20.9 -95.7 20.35 Q-100.25 19.7 -102.8 20.25 L-102.85 20.25 -103.0 20.25 -105.7 21.1 -108.35 22.15 Q-111.65 23.35 -113.95 22.85 L-116.1 22.05 -118.25 21.3 -121.05 21.25 -122.35 21.2 Q-123.15 20.95 -123.25 20.25 -121.6 18.3 -119.15 17.85 L-116.8 17.45 -115.45 16.8 -114.2 16.0 -114.1 16.0 -111.35 14.8 -110.9 14.6 M-78.35 33.05 L-78.3 33.15 -77.15 34.4 -75.85 34.6 -71.7 35.45 -66.55 36.8 -62.5 36.9 -61.2 36.65 Q-60.75 36.4 -60.25 35.25 L-58.85 32.85 -58.05 32.9 -56.7 33.5 -55.4 34.1 -54.8 34.2 Q-54.45 34.25 -54.25 34.4 -53.7 34.75 -53.7 35.9 -53.7 36.7 -53.95 37.0 L-55.05 37.4 -65.9 37.65 -68.2 37.55 -70.7 37.1 -72.9 36.95 -74.75 37.1 -77.0 37.75 -82.45 38.9 -83.4 38.85 -84.2 38.0 -84.5 37.65 Q-84.55 37.3 -84.1 37.2 -81.15 35.9 -79.1 33.75 L-78.35 33.05" fill="#dbdbdb" fill-rule="evenodd" stroke="none"/>
    <path d="M-20.3 -140.05 L-19.4 -140.9 Q-17.65 -142.3 -15.45 -142.9 L-12.5 -143.3 -9.9 -143.1 -7.3 -142.95 -3.45 -143.5 0.4 -143.95 Q2.45 -143.95 4.0 -143.1 L5.95 -141.85 8.75 -140.6 Q9.75 -139.95 10.25 -139.65 L11.85 -139.0 13.7 -139.0 15.45 -138.65 15.75 -138.45 Q14.95 -137.0 12.75 -136.6 L10.7 -136.5 8.6 -136.6 4.35 -136.2 0.15 -135.5 Q-5.05 -134.65 -8.25 -136.15 L-10.15 -137.15 Q-11.25 -137.75 -12.05 -137.95 L-14.1 -138.1 -16.2 -137.95 Q-18.85 -137.95 -19.95 -139.35 L-20.3 -140.05 M31.75 -123.25 Q29.7 -122.7 27.95 -121.7 L25.8 -120.5 21.3 -120.65 Q20.6 -120.85 20.4 -121.15 20.15 -121.45 20.15 -122.45 20.25 -124.2 20.65 -124.6 L21.45 -125.1 24.2 -126.1 25.15 -126.35 26.45 -126.55 31.0 -126.25 33.1 -125.85 34.15 -125.6 33.3 -124.25 32.65 -123.55 31.75 -123.25 M47.45 -65.65 L46.2 -65.25 44.9 -64.8 Q43.35 -64.4 41.55 -65.15 40.5 -65.6 38.6 -66.9 37.25 -67.8 37.5 -68.7 L38.35 -69.55 Q39.35 -70.15 39.95 -70.1 L40.8 -70.0 Q41.5 -70.05 42.65 -71.0 L43.95 -71.1 45.3 -70.85 47.0 -70.55 Q47.95 -70.35 48.45 -69.8 49.05 -69.2 49.25 -67.65 49.45 -66.5 49.0 -66.05 L48.3 -65.75 47.45 -65.65 M55.2 -58.25 L55.5 -57.95 56.1 -57.1 56.4 -56.65 56.0 -57.0 Q55.3 -57.7 55.2 -58.25 M82.65 -63.7 L79.9 -60.9 Q77.75 -58.65 76.2 -58.05 L72.55 -57.6 69.25 -57.6 67.2 -57.7 65.75 -58.15 64.35 -58.65 Q62.25 -59.0 61.3 -59.5 60.05 -60.1 59.05 -62.1 L62.85 -64.25 64.8 -64.95 68.6 -64.85 Q72.35 -64.55 75.75 -65.65 L78.5 -66.2 Q79.4 -66.15 80.4 -65.5 L82.65 -63.7 M26.05 -69.25 L25.5 -68.2 24.45 -66.55 Q23.9 -66.0 21.85 -65.2 19.55 -64.15 18.75 -64.05 L15.15 -64.55 Q10.4 -65.7 5.8 -65.5 4.85 -65.5 4.6 -65.9 4.35 -66.2 4.55 -66.9 L5.3 -68.5 5.6 -69.3 6.1 -69.4 7.3 -69.95 8.4 -70.7 Q10.5 -72.0 14.55 -72.2 L17.75 -72.2 20.95 -72.4 22.85 -72.6 Q24.45 -72.45 25.15 -70.9 L25.6 -69.85 26.05 -69.25 M112.2 -26.3 L112.6 -25.25 112.75 -24.4 112.25 -23.7 111.45 -23.25 110.4 -22.65 109.25 -22.35 106.2 -21.55 104.55 -21.5 98.8 -21.15 Q97.35 -20.95 96.9 -21.4 L97.5 -22.1 98.2 -22.3 Q99.5 -22.7 101.05 -23.55 102.85 -24.5 103.3 -25.4 L103.6 -26.1 104.0 -26.75 Q104.35 -27.1 104.9 -27.25 106.6 -27.9 108.7 -27.8 L110.2 -27.6 111.6 -26.85 112.2 -26.3 M124.1 10.75 L122.3 11.45 Q117.75 13.0 112.75 13.35 L111.85 13.0 109.75 12.85 109.3 12.7 109.0 12.3 108.5 12.05 Q108.2 11.95 108.2 11.65 108.5 11.3 110.1 10.45 L112.55 8.6 Q114.15 7.4 115.25 7.25 L116.65 7.2 117.9 7.2 118.7 7.25 Q119.35 7.45 120.35 8.35 L123.05 10.2 124.1 10.75 M42.55 8.85 L42.6 8.7 43.75 7.4 Q45.35 6.1 48.9 6.2 L50.8 6.35 52.2 6.7 57.0 7.25 Q57.4 7.95 58.3 8.5 L59.95 9.25 62.45 10.75 63.95 11.9 63.5 11.5 Q62.25 12.8 61.25 13.1 L59.4 13.35 58.1 13.25 56.15 12.65 52.6 12.4 47.5 11.65 Q45.0 10.95 43.55 9.75 L42.55 8.85 M95.5 13.5 L96.2 13.2 97.1 13.2 Q98.9 13.5 100.45 14.15 L100.45 15.3 100.3 16.45 Q100.0 16.95 98.75 17.15 L94.3 17.7 Q91.6 17.6 90.25 16.1 91.05 14.85 93.5 14.15 L95.5 13.5 M-82.15 -78.5 L-81.6 -78.85 Q-80.5 -79.9 -79.85 -80.2 L-77.6 -80.35 -73.95 -79.75 Q-71.8 -79.5 -70.3 -79.8 L-68.35 -80.3 -66.35 -80.05 -65.4 -79.1 -64.7 -77.7 -66.95 -76.2 Q-68.2 -74.95 -69.0 -74.7 L-70.45 -74.55 -73.0 -74.55 -76.1 -74.9 Q-76.65 -75.1 -77.65 -75.65 L-79.2 -76.4 -80.5 -76.8 -81.65 -77.5 -82.15 -78.5 M-82.55 -72.5 L-84.15 -72.75 -84.8 -73.15 -85.5 -73.4 -85.4 -74.5 -84.95 -73.9 Q-84.25 -73.2 -82.95 -72.65 L-82.55 -72.5 M-51.75 -77.1 L-52.55 -77.35 Q-53.15 -77.8 -52.85 -78.85 -52.35 -80.25 -50.1 -81.05 L-46.8 -81.75 -44.85 -81.6 Q-43.85 -81.3 -43.15 -80.4 -42.4 -79.55 -42.35 -78.5 -42.35 -77.8 -42.6 -77.35 L-43.5 -76.7 Q-47.35 -74.8 -50.35 -76.35 L-51.75 -77.1 M-42.0 -31.05 L-42.9 -29.65 Q-43.6 -28.7 -45.1 -27.65 L-47.55 -25.85 -49.0 -24.85 -50.9 -24.75 -55.9 -25.25 Q-57.9 -25.45 -59.05 -25.95 L-60.65 -27.05 -62.1 -28.4 -63.6 -29.55 -61.8 -30.55 -60.2 -31.25 -57.25 -31.2 -54.35 -31.05 Q-53.55 -31.2 -52.15 -32.0 L-50.2 -33.1 Q-49.25 -33.7 -48.5 -33.9 L-47.1 -34.05 Q-45.1 -34.15 -44.2 -33.65 -43.4 -33.25 -42.5 -31.9 L-42.0 -31.05 M-23.5 -26.8 L-21.5 -27.25 -19.0 -27.05 Q-18.85 -27.6 -17.9 -27.5 L-14.3 -27.35 Q-11.25 -27.25 -9.7 -26.55 -8.6 -26.0 -8.25 -25.1 -8.1 -24.65 -8.1 -23.85 L-8.25 -23.8 Q-8.75 -23.55 -9.8 -23.25 L-11.4 -22.7 -12.95 -21.95 -15.55 -22.15 -18.65 -23.0 -20.05 -23.15 Q-20.6 -23.3 -21.35 -24.15 L-23.45 -26.75 -23.5 -26.8 M-38.65 -19.7 L-37.85 -19.95 -37.25 -19.85 -36.45 -20.15 Q-35.55 -20.5 -33.75 -19.75 -33.5 -19.4 -33.85 -18.85 L-34.3 -18.3 -35.05 -18.15 -36.7 -18.1 -37.5 -18.15 -38.6 -18.55 -39.75 -19.0 -38.65 -19.7 M-37.15 21.95 L-35.2 21.9 -34.35 22.2 -33.5 22.3 Q-31.5 22.55 -30.0 23.6 L-29.8 23.9 Q-29.8 24.05 -30.1 24.15 -34.7 25.85 -39.55 24.1 L-40.3 23.5 Q-40.5 22.8 -39.35 22.45 L-37.15 21.95 M-110.9 14.6 L-105.55 11.45 Q-101.95 9.15 -99.65 8.35 -93.45 6.25 -84.5 9.5 -81.55 10.5 -80.1 11.8 L-79.9 12.0 -82.5 14.35 -85.6 16.4 -89.05 17.25 -93.5 17.7 -96.45 17.4 -99.4 16.9 -103.55 16.35 -107.65 15.55 Q-109.25 15.05 -110.45 14.4 L-110.9 14.6 M-61.8 11.45 Q-60.85 10.85 -59.0 10.25 -56.55 9.5 -53.95 9.2 -53.95 9.8 -53.25 10.0 L-52.15 10.15 -50.85 10.45 -49.55 10.75 -47.85 10.95 Q-47.05 11.15 -45.8 12.1 L-44.5 13.35 Q-43.85 14.15 -44.1 15.0 L-44.4 15.75 -44.6 16.5 -45.65 16.65 -47.95 16.7 -60.75 16.1 -62.55 15.55 -63.1 15.05 Q-63.35 14.65 -63.25 13.9 -63.05 12.6 -62.55 12.1 -62.35 11.75 -61.8 11.45 M-78.6 17.65 Q-79.1 18.65 -80.15 19.2 L-80.6 19.45 -78.6 17.65 M-78.35 33.05 L-76.9 31.7 Q-75.8 31.0 -73.85 30.55 L-70.95 30.0 -67.95 29.95 Q-64.7 30.1 -62.4 31.5 L-61.1 32.35 -59.65 32.9 -58.85 32.85 -60.25 35.25 Q-60.75 36.4 -61.2 36.65 L-62.5 36.9 -66.55 36.8 -71.7 35.45 -75.85 34.6 -77.15 34.4 -78.3 33.15 -78.35 33.05 M-91.05 40.5 Q-91.1 40.75 -91.45 40.85 L-93.85 41.55 -94.8 41.65 Q-95.35 41.6 -96.25 40.8 L-96.5 40.4 -96.45 39.95 -96.25 39.45 -95.3 39.0 -94.4 38.9 -93.2 39.25 -92.65 38.95 -92.3 39.25 -91.6 39.85 -91.2 40.1 -91.05 40.5" fill="#efefef" fill-rule="evenodd" stroke="none"/>
  </g>
</svg>
