<?xml version="1.0" encoding="UTF-8" standalone="no"?>
<svg xmlns:ffdec="https://www.free-decompiler.com/flash" xmlns:xlink="http://www.w3.org/1999/xlink" ffdec:objectType="shape" height="4.4px" width="4.4px" xmlns="http://www.w3.org/2000/svg">
  <g transform="matrix(1.0, 0.0, 0.0, 1.0, 0.0, 0.0)">
    <path d="M3.05 3.05 Q2.7 3.4 2.15 3.4 1.65 3.4 1.35 3.1 L1.3 3.05 Q1.0 2.7 1.0 2.2 1.0 1.7 1.3 1.35 L1.35 1.35 Q1.65 1.0 2.15 1.0 2.7 1.0 3.05 1.35 3.4 1.7 3.4 2.2 3.4 2.7 3.05 3.05" fill="#f9689b" fill-rule="evenodd" stroke="none"/>
    <path d="M3.05 3.05 Q3.4 2.7 3.4 2.2 3.4 1.7 3.05 1.35 2.7 1.0 2.15 1.0 1.65 1.0 1.35 1.35 L1.3 1.35 Q1.0 1.7 1.0 2.2 1.0 2.7 1.3 3.05 L1.35 3.1 Q1.65 3.4 2.15 3.4 2.7 3.4 3.05 3.05 M3.75 0.65 Q4.4 1.3 4.4 2.2 4.4 3.1 3.75 3.75 3.1 4.4 2.15 4.4 1.25 4.4 0.6 3.75 0.0 3.1 0.0 2.2 0.0 1.3 0.6 0.7 L0.6 0.65 Q1.25 0.0 2.15 0.0 3.1 0.0 3.75 0.65" fill="#583c35" fill-rule="evenodd" stroke="none"/>
  </g>
</svg>
