<?xml version="1.0" encoding="UTF-8" standalone="no"?>
<svg xmlns:ffdec="https://www.free-decompiler.com/flash" xmlns:xlink="http://www.w3.org/1999/xlink" ffdec:objectType="shape" height="2.9px" width="2.0px" xmlns="http://www.w3.org/2000/svg">
  <g transform="matrix(1.0, 0.0, 0.0, 1.0, 0.25, -0.25)">
    <path d="M1.5 2.75 Q1.2 3.15 0.75 3.15 0.3 3.15 0.0 2.75 L-0.25 1.95 Q-0.3 1.5 0.0 1.2 0.3 0.75 0.75 0.8 1.2 0.75 1.5 1.2 L1.75 1.95 1.5 2.75" fill="#0a5926" fill-rule="evenodd" stroke="none"/>
    <path d="M1.55 2.0 L0.9 2.35 0.25 2.0 0.0 1.3 Q0.0 0.9 0.25 0.6 0.5 0.25 0.9 0.25 L1.55 0.6 1.75 1.3 1.55 2.0 M1.45 1.3 L1.3 0.8 0.9 0.6 Q0.65 0.55 0.5 0.75 L0.3 1.3 0.5 1.95 Q0.65 2.15 0.9 2.15 L1.3 1.95 1.45 1.3" fill="#489320" fill-rule="evenodd" stroke="none"/>
    <path d="M1.45 1.3 L1.3 1.95 0.9 2.15 Q0.65 2.15 0.5 1.95 L0.3 1.3 0.5 0.75 Q0.65 0.55 0.9 0.6 L1.3 0.8 1.45 1.3" fill="#71d43c" fill-rule="evenodd" stroke="none"/>
  </g>
</svg>
