<?xml version="1.0" encoding="UTF-8" standalone="no"?>
<svg xmlns:ffdec="https://www.free-decompiler.com/flash" xmlns:xlink="http://www.w3.org/1999/xlink" ffdec:objectType="shape" height="51.25px" width="65.4px" xmlns="http://www.w3.org/2000/svg">
  <g transform="matrix(1.0, 0.0, 0.0, 1.0, 7.95, 3.0)">
    <path d="M25.6 -0.35 L26.3 1.7 27.8 -1.5 28.1 1.5 28.1 1.45 28.25 1.7 29.35 0.05 27.85 -2.6 25.6 -0.35 M0.55 28.25 L0.6 28.3 0.6 28.25 0.55 28.25 -1.6 27.9 -2.7 24.55 1.1 24.25 1.75 25.4 4.35 24.7 5.95 26.75 6.05 28.1 6.65 28.2 6.8 27.6 5.6 24.9 5.45 24.9 3.1 23.7 3.1 23.1 2.5 23.45 -0.1 23.65 -1.95 20.65 1.7 19.4 3.1 21.1 3.1 20.15 6.8 21.0 7.25 23.55 7.1 23.9 8.15 23.85 8.15 22.3 8.0 21.0 7.65 19.85 7.6 19.95 6.4 20.15 3.95 19.35 3.8 18.3 3.5 18.3 3.4 18.9 2.2 19.2 -0.35 18.75 -0.45 18.45 -2.0 20.25 -5.4 19.3 -3.65 15.95 -1.1 16.15 -1.35 15.3 -0.85 15.3 -1.05 14.85 -3.2 14.35 -3.95 10.85 -0.1 10.95 0.5 12.35 0.8 11.95 0.7 11.45 1.2 11.5 1.5 11.2 0.05 9.15 1.65 6.05 4.55 8.5 3.75 10.95 3.55 11.15 3.8 11.75 4.5 11.8 4.9 12.85 5.65 10.4 6.8 11.1 6.75 10.9 5.05 9.7 5.9 6.0 9.15 7.55 9.1 10.15 8.8 10.85 8.9 10.9 9.85 9.2 10.0 9.35 10.0 9.25 10.4 8.75 9.75 6.8 13.25 6.45 13.75 7.3 14.1 6.9 14.15 6.85 12.5 5.2 13.9 1.65 16.8 3.65 16.7 4.65 19.35 4.85 17.9 4.5 17.25 0.75 20.8 0.9 21.8 3.35 21.8 3.45 22.05 3.55 21.45 0.1 25.0 0.25 25.9 2.45 26.25 2.2 26.0 2.0 25.15 -0.45 28.0 -3.0 29.75 0.1 28.45 1.95 30.05 4.45 30.05 4.5 30.2 4.5 28.95 2.6 31.1 -0.55 33.5 2.05 33.05 3.2 33.95 2.7 33.25 1.0 35.9 -1.7 37.85 1.3 36.4 3.5 35.8 3.95 36.2 5.2 38.65 2.7 40.6 5.7 39.8 6.95 41.05 7.0 41.2 4.6 44.75 3.25 45.2 6.75 43.5 7.95 46.2 9.9 45.0 11.0 46.8 10.3 45.6 9.2 46.95 5.55 49.9 7.55 49.6 10.1 48.95 11.2 48.7 11.15 48.95 13.15 48.45 13.55 49.9 14.1 49.55 13.25 49.95 10.75 51.1 10.5 50.5 9.55 50.3 6.95 53.3 5.1 54.55 8.75 53.1 9.95 53.65 9.8 53.65 10.0 53.9 9.65 57.45 10.15 56.05 13.7 53.5 13.8 53.25 13.65 51.4 14.6 50.7 14.6 49.35 16.6 50.2 16.65 51.5 20.0 48.4 20.45 48.8 20.85 49.6 20.4 52.4 22.6 49.45 25.05 47.75 24.15 47.7 26.35 49.7 25.25 52.55 27.4 50.45 29.2 51.75 29.65 53.9 28.9 56.35 31.45 53.15 33.45 51.0 31.9 50.9 31.65 50.5 32.35 51.7 32.65 51.95 34.5 54.5 34.0 56.65 36.85 53.2 38.4 51.3 36.65 51.25 36.4 50.85 36.35 52.15 38.4 50.25 41.4 47.55 38.7 48.5 36.35 48.8 36.15 48.65 36.15 48.6 36.0 47.25 39.05 44.2 36.75 44.7 34.8 43.6 34.8 42.65 35.3 42.5 35.2 Q42.6 35.7 43.05 36.65 L43.45 37.75 45.8 38.1 46.85 41.5 43.45 41.8 44.3 42.4 45.6 44.7 43.45 47.55 40.95 44.75 42.1 42.4 43.05 41.8 42.55 40.8 42.35 41.05 42.4 41.1 40.9 44.55 40.45 44.25 40.75 46.15 37.85 48.25 36.4 44.7 38.2 42.85 38.45 42.8 38.05 42.5 38.3 40.8 38.0 40.7 37.45 41.95 36.9 41.55 37.15 43.3 34.25 45.4 32.8 41.85 33.1 41.55 32.7 41.45 31.15 44.55 28.2 42.2 28.9 39.7 28.8 39.8 28.5 39.25 27.9 39.0 28.25 40.75 25.5 42.95 24.05 39.85 23.6 40.75 24.25 40.95 24.8 44.45 21.0 44.2 20.7 43.3 20.5 43.6 19.7 42.95 20.35 45.35 17.65 47.75 15.4 43.75 12.7 46.1 10.9 42.8 11.4 42.15 10.65 42.5 10.3 41.05 9.0 41.65 9.75 42.05 11.25 44.2 9.65 47.35 6.75 44.85 7.55 42.4 7.75 42.25 7.3 42.45 6.95 40.8 6.75 43.7 3.05 42.65 2.75 40.1 3.35 38.85 Q3.0 38.5 2.45 38.4 L2.4 38.4 1.25 40.4 -2.2 40.15 -1.4 40.5 -1.45 41.75 -2.55 44.1 -6.1 44.15 -5.25 40.4 -2.75 39.95 -2.3 40.15 -1.2 36.5 0.05 36.35 0.0 36.3 -0.15 35.5 -0.45 35.75 -2.9 36.55 -5.35 33.95 -2.1 32.0 -0.05 33.55 0.0 33.65 0.2 33.5 -0.05 33.15 1.5 32.45 1.5 32.35 1.5 32.25 0.05 32.85 -2.6 30.45 0.55 28.25 M52.8 6.45 L52.45 10.0 54.1 8.55 53.2 5.55 50.65 7.1 50.75 9.3 52.8 6.45 M54.05 10.0 L53.7 10.55 53.7 11.5 56.15 10.8 53.75 13.3 53.75 13.4 55.9 13.3 57.05 10.35 54.05 10.0 M41.55 4.8 L41.45 6.95 44.0 4.55 43.1 7.65 43.2 7.75 44.8 6.6 44.45 3.65 41.55 4.8 M43.15 8.1 L41.85 8.9 41.8 8.95 41.7 9.35 44.75 10.05 41.5 11.05 43.3 11.8 43.55 11.8 45.75 9.9 43.2 8.15 43.15 8.1 M44.95 11.05 L44.7 11.25 44.95 11.4 44.95 11.05 M47.25 10.15 L47.65 10.0 47.45 7.0 49.35 9.85 49.5 7.75 47.05 6.05 46.05 9.0 47.25 10.15 M44.85 12.2 L41.85 12.05 40.75 13.9 43.95 12.75 41.7 15.45 43.85 15.2 44.85 12.2 M41.05 10.35 L41.9 7.35 38.95 7.3 37.85 9.2 41.05 7.9 38.9 10.7 41.05 10.35 M45.3 11.2 L45.2 13.35 47.75 10.95 47.0 13.6 47.5 13.15 48.05 13.4 48.55 13.0 48.2 10.05 45.3 11.2 M49.95 17.0 L49.1 16.9 48.65 17.55 50.3 19.2 46.8 18.3 47.6 19.6 48.1 20.15 51.15 19.8 49.95 17.0 M47.6 13.55 L45.9 14.9 49.35 14.85 46.35 16.7 48.45 17.1 50.35 14.65 47.6 13.55 M41.15 15.6 L38.2 14.6 36.7 16.2 40.2 16.0 37.35 17.9 39.45 18.05 41.1 15.65 41.15 15.6 M44.0 21.6 L41.25 20.2 39.5 21.55 43.05 21.85 39.95 23.35 41.1 23.65 42.25 23.6 43.95 21.7 44.0 21.6 M45.05 15.9 L42.05 15.8 42.05 15.85 40.95 17.65 44.2 16.4 41.95 19.2 44.1 18.9 45.05 15.9 M40.5 24.05 L39.7 26.05 42.9 24.5 40.9 27.35 43.0 26.75 43.65 23.8 40.5 24.05 M49.5 24.55 L51.95 22.6 49.5 20.8 47.75 21.8 50.95 22.55 47.75 23.5 47.75 23.65 49.5 24.55 M47.5 23.65 L44.6 24.35 44.0 26.45 46.8 24.4 45.4 27.65 47.35 26.85 47.4 26.8 47.5 23.65 M48.5 21.0 L46.4 18.8 44.3 19.4 47.5 20.75 44.0 21.2 45.7 22.5 48.5 21.0 M50.95 15.85 L51.9 15.05 54.45 14.4 56.7 17.15 53.25 18.9 51.35 17.25 50.95 15.85 M53.35 13.2 L53.4 10.15 50.35 11.0 49.95 13.2 52.8 11.0 51.45 14.2 53.35 13.2 M52.25 34.75 L55.25 36.45 51.7 36.5 53.35 37.95 56.25 36.75 54.35 34.35 52.25 34.75 M52.1 29.8 L51.95 30.0 54.95 31.2 51.4 31.7 53.2 32.95 55.9 31.4 53.8 29.25 52.1 29.8 M52.15 15.3 L55.25 16.85 51.75 17.1 53.4 18.45 56.3 17.1 54.25 14.8 52.15 15.3 M51.4 33.0 L50.25 32.7 50.2 32.75 49.45 32.7 51.1 35.45 48.1 33.75 48.9 35.8 51.9 36.1 51.4 33.0 M48.65 28.95 L47.15 30.5 50.75 30.25 47.85 32.2 50.0 32.35 51.65 29.85 48.7 29.0 48.65 28.95 M48.3 28.75 L48.5 28.5 50.15 29.05 52.1 27.4 49.7 25.65 47.75 26.65 51.1 27.4 47.7 28.45 48.3 28.75 M44.0 27.9 L42.55 29.35 45.95 28.95 43.4 30.9 43.7 30.8 44.0 31.15 45.3 31.3 46.95 28.6 44.05 27.8 44.0 27.9 M41.05 33.5 L42.75 34.85 45.6 33.45 43.55 31.15 41.5 31.7 44.6 33.2 41.05 33.5 M45.2 34.5 L44.65 36.65 47.15 38.6 48.3 35.85 46.9 34.15 46.95 37.6 45.2 34.5 M42.2 36.5 L40.9 34.75 40.85 38.2 39.1 35.05 38.6 37.2 41.0 39.2 42.2 36.5 M48.1 34.65 L47.95 34.8 48.35 35.3 48.1 34.65 M43.45 47.1 L45.2 44.7 44.2 42.75 43.45 46.1 42.4 42.7 41.4 44.7 43.45 47.1 M45.55 38.4 L43.5 38.0 43.45 38.0 43.5 38.05 45.65 40.65 42.35 39.45 43.35 41.4 46.5 41.25 45.55 38.4 M48.0 38.65 L50.15 40.95 51.75 38.4 50.6 36.5 50.1 39.95 48.8 36.65 48.0 38.65 M41.95 41.2 L40.45 39.6 40.45 43.15 38.75 40.2 38.4 42.3 40.8 44.15 41.95 41.2 M36.1 5.6 L36.05 5.55 36.05 5.6 36.1 5.6 M38.6 3.15 L36.45 5.45 37.25 7.45 38.55 4.15 39.0 6.9 39.45 6.95 40.2 5.7 38.6 3.15 M37.45 1.3 L35.85 -1.25 33.7 1.05 34.3 2.45 34.9 2.1 35.8 -0.25 36.3 3.15 37.45 1.3 M32.35 4.1 L32.3 4.1 32.6 6.25 34.65 3.4 34.35 6.8 35.85 5.25 34.95 2.35 32.4 4.05 32.35 4.1 M32.2 3.75 L32.6 3.5 33.1 2.15 31.1 -0.1 29.4 2.55 30.6 4.4 31.25 0.9 32.2 3.75 M30.45 6.45 L32.75 9.0 32.65 6.85 29.9 5.6 29.4 8.65 31.15 9.95 30.45 6.45 M34.15 10.55 L35.9 7.4 35.95 10.85 37.25 9.1 36.05 6.4 33.65 8.4 34.15 10.55 M29.65 4.45 L28.05 1.9 25.9 4.2 26.7 6.2 28.0 2.9 28.5 6.3 29.65 4.5 29.65 4.45 M21.7 3.65 L21.35 6.8 23.2 7.95 22.3 4.55 24.7 7.0 24.45 4.85 21.8 3.7 21.7 3.65 M20.5 5.05 L20.4 5.1 20.1 5.05 20.25 5.35 20.5 5.05 M24.5 4.0 L22.6 1.0 25.65 2.55 24.75 0.6 21.75 0.4 22.4 3.5 24.5 4.0 M20.55 1.25 L17.55 1.05 18.2 4.15 20.3 4.65 18.4 1.65 21.45 3.2 20.55 1.25 M23.6 8.05 L22.2 10.9 23.55 12.6 23.85 9.05 25.35 12.15 25.8 10.45 24.95 9.55 25.05 9.35 23.6 8.05 M25.4 9.45 L26.9 11.0 26.85 7.45 28.6 10.4 28.9 8.25 26.5 6.45 26.5 6.55 25.4 9.45 M34.7 23.5 L31.7 23.6 30.7 25.5 33.9 24.05 31.8 26.95 33.95 26.55 34.7 23.5 M31.65 23.25 L33.7 22.4 33.8 19.3 30.85 20.0 30.3 22.05 33.05 20.05 31.65 23.25 M35.8 16.3 L37.25 13.45 34.3 12.85 32.9 14.5 36.3 13.85 33.65 16.2 35.8 16.3 M38.0 14.15 L38.35 14.3 39.6 14.15 40.85 11.4 37.7 10.95 36.5 12.75 40.0 11.95 37.45 14.35 37.85 14.35 38.0 14.15 M28.45 22.0 L26.35 24.15 27.05 26.2 28.25 23.0 28.85 26.5 30.1 24.65 28.45 22.0 M22.45 19.55 L21.3 22.3 22.6 24.05 22.65 20.6 24.4 23.65 24.9 21.6 22.45 19.55 M22.3 13.65 L21.0 16.4 22.35 18.1 22.45 14.7 24.1 17.85 24.7 15.7 22.3 13.65 M25.75 15.8 L26.8 12.5 27.55 16.0 28.7 14.15 26.95 11.5 24.95 13.8 25.75 15.8 M28.4 17.3 L25.55 18.2 25.1 20.3 27.75 18.1 26.55 21.45 28.45 20.5 28.4 17.3 M28.75 12.4 L30.25 13.9 29.9 10.45 32.0 13.35 32.25 11.2 29.6 9.45 28.75 12.4 M29.1 16.2 L29.25 18.35 31.2 15.45 30.95 19.05 32.5 17.55 31.6 14.55 29.1 16.2 M38.0 21.8 L39.7 19.35 36.75 18.35 35.25 19.95 38.75 19.75 35.9 21.65 38.0 21.8 M36.15 22.65 L35.3 24.65 38.55 23.1 36.55 25.95 38.65 25.35 39.3 22.4 36.15 22.65 M21.65 10.65 L19.0 9.3 18.35 12.4 20.1 13.7 19.5 10.2 21.7 12.8 21.65 10.65 M16.45 3.85 L14.0 2.1 12.95 5.05 14.45 6.6 14.4 3.05 16.15 6.0 16.45 3.85 M16.8 4.95 L17.35 8.05 19.45 8.6 17.6 5.6 20.65 7.2 19.8 5.2 16.8 4.95 M13.35 10.2 L10.95 7.55 14.25 8.6 13.1 6.85 10.05 7.05 11.2 10.0 13.35 10.2 M4.15 12.1 L1.05 11.75 1.55 14.7 3.6 15.45 1.75 12.5 4.85 14.1 4.55 13.8 4.65 13.5 4.15 12.1 M1.8 6.4 L0.4 9.1 1.65 10.9 1.9 7.45 3.45 10.65 4.1 8.6 1.8 6.4 M15.0 7.65 L14.35 10.6 15.95 12.05 15.35 8.6 17.65 11.4 17.8 9.2 15.0 7.65 M7.25 10.8 L6.6 7.3 8.85 9.9 8.75 7.75 6.1 6.4 5.5 9.5 7.25 10.8 M8.25 14.65 L8.55 12.5 5.85 10.75 5.0 13.7 6.5 15.2 6.15 11.75 8.25 14.65 M7.55 18.55 L6.9 16.5 3.75 16.1 4.25 19.1 6.25 19.8 4.45 16.85 7.55 18.55 M8.75 14.65 L8.4 17.65 10.15 18.85 9.2 15.55 11.8 18.05 11.7 15.9 8.75 14.65 M10.0 9.6 L9.95 9.7 8.6 12.1 8.95 12.3 8.9 12.8 9.75 14.1 10.05 10.7 11.55 13.85 12.25 11.85 10.0 9.6 M3.4 16.95 L3.45 16.95 3.35 16.95 3.4 16.95 M3.4 20.5 L3.45 23.5 5.35 24.5 3.95 21.35 6.8 23.45 6.45 21.3 3.4 20.5 M2.95 21.45 L1.5 19.85 -1.5 20.75 0.05 23.3 2.25 23.2 -0.6 21.15 2.95 21.45 M3.15 17.4 L2.2 15.5 -1.0 15.55 -0.1 18.45 2.05 18.9 -0.2 16.25 3.15 17.4 M8.6 22.9 L10.6 23.55 8.9 20.4 11.9 22.2 11.1 20.2 8.1 19.75 8.6 22.9 M20.15 16.75 L19.65 14.6 16.7 13.8 16.75 16.95 18.7 17.9 17.4 14.6 20.15 16.75 M15.95 15.2 L16.1 13.0 13.3 11.45 12.65 14.4 14.25 15.85 13.65 12.4 15.95 15.2 M14.3 20.7 L13.65 17.2 15.9 19.75 15.8 17.6 13.1 16.3 12.55 19.4 14.3 20.7 M13.55 30.35 L10.15 29.7 13.5 28.55 11.55 27.7 9.15 29.7 11.6 31.4 13.55 30.35 M18.95 27.6 L16.95 26.75 14.55 28.8 17.05 30.5 19.0 29.45 15.6 28.8 18.95 27.6 M18.05 26.4 L20.1 27.1 18.2 24.2 21.4 25.8 20.6 23.75 17.5 23.45 18.05 26.4 M15.3 23.75 L13.2 23.1 11.15 25.5 13.85 26.85 15.65 25.5 12.15 25.35 15.3 23.75 M20.1 19.45 L17.05 18.7 17.15 21.7 19.05 22.65 17.6 19.5 20.55 21.6 20.1 19.45 M12.2 33.5 L10.1 34.15 9.5 37.05 12.65 36.85 13.45 34.8 10.25 36.35 12.2 33.5 M19.15 32.65 L17.7 34.25 18.9 37.2 21.25 35.3 20.9 33.15 19.15 36.2 19.15 32.65 M14.5 31.05 L13.8 34.15 16.8 34.0 17.75 32.1 14.6 33.5 16.65 30.6 14.5 31.05 M13.7 36.8 L14.55 39.75 17.2 38.0 16.95 35.85 14.85 38.75 15.2 35.3 13.7 36.8 M19.8 27.9 L19.4 31.05 22.35 30.65 23.1 28.65 20.15 30.35 21.9 27.3 19.8 27.9 M6.65 26.6 L7.3 27.9 9.45 27.85 6.85 25.45 10.2 26.2 8.85 24.55 5.9 25.05 6.1 25.5 6.65 26.6 M7.45 28.7 L5.35 28.25 3.4 30.6 6.3 31.85 7.95 30.5 4.45 30.3 6.45 29.25 7.45 28.7 M1.35 25.55 L0.85 24.6 -2.25 24.75 -1.35 27.6 0.8 27.95 -1.45 25.4 1.0 26.25 0.7 25.7 1.35 25.55 M4.9 33.45 L3.25 32.0 0.35 33.2 2.25 35.6 4.35 35.2 1.3 33.55 4.9 33.45 M2.55 28.45 L4.7 28.5 2.0 26.3 5.55 26.85 4.2 25.15 1.1 25.85 2.55 28.45 M2.35 29.9 L0.45 28.7 -2.15 30.5 0.15 32.45 2.1 31.7 -1.15 30.6 2.35 29.9 M6.7 32.1 L5.65 33.35 8.55 34.6 10.2 33.25 6.7 33.05 9.7 31.45 7.9 31.05 6.7 32.1 M7.35 35.15 L5.15 35.2 3.8 38.0 6.8 38.5 8.15 36.85 4.75 37.6 7.35 35.15 M10.0 39.0 L10.25 38.75 10.25 38.45 7.9 41.15 8.55 37.75 6.9 39.15 7.5 42.1 10.25 40.7 9.85 39.1 10.0 39.0 M1.05 40.0 L2.15 38.2 -1.05 39.3 1.2 36.6 -0.95 36.85 -1.95 39.85 1.05 40.0 M2.15 41.55 L2.95 44.05 0.25 46.45 -1.55 43.15 0.0 41.1 1.35 40.65 2.15 41.55 M7.2 44.75 L9.5 46.95 10.9 44.25 9.65 42.45 9.4 45.9 7.85 42.7 7.2 44.75 M0.35 46.0 L2.55 43.95 1.95 41.85 0.55 45.0 0.2 41.5 -1.1 43.2 0.35 46.0 M3.2 40.25 L3.45 42.4 6.45 43.35 6.55 40.35 4.7 39.25 5.9 42.5 3.2 40.25 M18.15 41.7 L17.75 41.35 17.9 40.95 17.9 40.9 17.5 39.9 16.1 43.15 15.7 39.75 14.5 41.55 16.0 44.2 18.25 41.95 18.15 41.7 M18.65 39.05 L18.15 41.15 20.45 43.15 21.8 40.3 20.4 38.65 20.2 42.15 18.65 39.05 M10.25 39.25 L10.85 42.15 12.6 41.3 12.65 41.25 13.65 40.7 13.6 38.5 11.25 41.2 11.9 37.8 10.3 39.2 10.25 39.2 10.25 39.25 M40.1 30.8 L38.15 29.9 39.7 33.0 36.75 31.05 37.25 33.15 40.35 33.8 40.25 32.35 40.25 32.25 40.1 30.8 M16.85 43.7 L16.25 44.5 17.7 47.3 19.95 45.25 19.4 43.2 17.95 46.3 17.65 43.0 16.85 43.7 M12.2 41.75 L11.35 42.85 12.8 45.65 15.0 43.6 14.75 42.6 14.3 41.85 13.05 44.65 12.7 41.55 12.2 41.75 M39.1 29.95 L41.6 28.65 39.55 26.4 37.5 27.0 40.6 28.4 37.1 28.75 38.2 29.6 39.1 29.95 M22.15 31.05 L21.85 31.1 21.05 32.65 23.05 35.1 24.8 32.7 23.85 30.75 23.1 34.1 22.15 31.05 M26.35 27.55 L26.15 25.4 23.2 24.25 22.95 27.15 22.95 27.25 24.75 28.45 23.7 25.15 26.35 27.55 M27.8 28.25 L25.8 29.1 25.55 32.25 28.5 31.6 29.1 29.55 26.25 31.5 27.8 28.25 M34.8 32.65 L34.45 34.75 37.05 36.55 38.0 33.7 37.95 33.65 36.9 33.45 36.6 32.15 36.55 32.1 36.8 35.55 34.8 32.65 M33.65 33.1 L32.65 31.15 31.9 34.5 30.85 31.1 29.85 33.05 31.85 35.5 33.65 33.1 M32.0 28.8 L33.0 30.7 36.15 30.6 35.25 27.75 33.15 27.35 35.35 29.95 32.0 28.8 M28.6 35.1 L28.6 35.85 27.75 36.35 27.45 36.75 28.9 39.4 31.2 37.2 30.45 35.15 29.0 38.35 28.65 34.95 28.6 35.1 M27.95 40.6 L27.5 38.5 25.85 41.55 25.8 37.95 24.35 39.6 25.55 42.5 27.95 40.6 M29.2 40.0 L28.65 42.1 31.05 44.15 32.35 41.4 31.0 39.7 30.9 43.1 29.2 40.0 M28.2 33.45 L26.1 36.2 26.55 32.7 24.85 34.05 25.6 37.15 28.25 35.65 28.2 33.45 M22.7 40.4 L22.7 40.5 22.9 40.55 22.7 40.4 M24.75 38.55 L24.7 38.6 24.75 38.55 M22.05 40.55 L22.0 40.65 23.75 43.45 21.25 42.2 20.95 42.8 21.3 43.85 24.45 44.2 23.95 41.2 22.05 40.55 M24.75 37.7 L23.35 36.05 23.15 39.55 21.6 36.45 21.1 38.55 23.4 40.55 24.75 37.7 M36.75 43.15 L36.5 41.35 36.5 41.25 36.35 41.15 34.7 43.95 34.75 40.4 33.25 42.0 34.35 44.95 36.75 43.15 M38.5 38.6 L37.0 37.0 37.0 40.55 35.3 37.6 35.3 37.7 35.45 37.95 35.2 38.3 34.95 39.7 37.35 41.55 38.5 38.6 M34.9 37.85 L33.95 36.1 33.05 39.55 32.1 36.25 31.25 38.2 33.15 40.55 35.0 38.0 34.9 37.85 M-4.6 35.8 L-7.55 37.0 -5.7 39.4 -3.6 39.05 -6.6 37.35 -3.0 37.35 -4.6 35.8 M-0.35 33.75 L-2.15 32.5 -4.9 34.0 -2.8 36.15 -0.7 35.55 -3.9 34.25 -0.35 33.75 M-1.3 16.5 L-3.5 16.4 -5.05 19.15 -2.1 19.85 -0.65 18.25 -4.1 18.8 -1.3 16.5 M-0.4 11.25 L-3.55 11.1 -2.9 14.0 -0.85 14.6 -2.8 11.8 0.4 13.3 -0.4 11.25 M40.35 46.0 L40.1 44.0 40.0 43.95 38.3 46.8 38.35 43.25 36.85 44.8 37.95 47.8 40.35 46.0 M-4.5 35.4 L-2.6 37.15 -2.35 38.6 -3.3 39.35 -5.9 39.75 -7.95 36.9 -4.5 35.4 M-4.9 43.25 L-2.85 40.35 -5.0 40.75 -5.8 43.8 -2.75 43.75 -1.8 41.8 -4.9 43.25" fill="#565656" fill-rule="evenodd" stroke="none"/>
    <path d="M25.6 -0.35 L27.85 -2.6 29.35 0.05 28.25 1.7 28.1 1.45 28.1 1.5 27.8 -1.5 26.3 1.7 25.6 -0.35 M54.05 10.0 L57.05 10.35 55.9 13.3 53.75 13.4 53.75 13.3 56.15 10.8 53.7 11.5 53.7 10.55 54.05 10.0 M52.8 6.45 L50.75 9.3 50.65 7.1 53.2 5.55 54.1 8.55 52.45 10.0 52.8 6.45 M43.15 8.1 L43.2 8.15 45.75 9.9 43.55 11.8 43.3 11.8 41.5 11.05 44.75 10.05 41.7 9.35 41.8 8.95 41.85 8.9 43.15 8.1 M41.55 4.8 L44.45 3.65 44.8 6.6 43.2 7.75 43.1 7.65 44.0 4.55 41.45 6.95 41.55 4.8 M41.05 10.35 L38.9 10.7 41.05 7.9 37.85 9.2 38.95 7.3 41.9 7.35 41.05 10.35 M44.85 12.2 L43.85 15.2 41.7 15.45 43.95 12.75 40.75 13.9 41.85 12.05 44.85 12.2 M47.25 10.15 L46.05 9.0 47.05 6.05 49.5 7.75 49.35 9.85 47.45 7.0 47.65 10.0 47.25 10.15 M45.3 11.2 L48.2 10.05 48.55 13.0 48.05 13.4 47.5 13.15 47.0 13.6 47.75 10.95 45.2 13.35 45.3 11.2 M47.6 13.55 L50.35 14.65 48.45 17.1 46.35 16.7 49.35 14.85 45.9 14.9 47.6 13.55 M49.95 17.0 L51.15 19.8 48.1 20.15 47.6 19.6 46.8 18.3 50.3 19.2 48.65 17.55 49.1 16.9 49.95 17.0 M41.15 15.6 L41.1 15.65 39.45 18.05 37.35 17.9 40.2 16.0 36.7 16.2 38.2 14.6 41.15 15.6 M45.05 15.9 L44.1 18.9 41.95 19.2 44.2 16.4 40.95 17.65 42.05 15.85 42.05 15.8 45.05 15.9 M44.0 21.6 L43.95 21.7 42.25 23.6 41.1 23.65 39.95 23.35 43.05 21.85 39.5 21.55 41.25 20.2 44.0 21.6 M49.5 24.55 L47.75 23.65 47.75 23.5 50.95 22.55 47.75 21.8 49.5 20.8 51.95 22.6 49.5 24.55 M40.5 24.05 L43.65 23.8 43.0 26.75 40.9 27.35 42.9 24.5 39.7 26.05 40.5 24.05 M48.5 21.0 L45.7 22.5 44.0 21.2 47.5 20.75 44.3 19.4 46.4 18.8 48.5 21.0 M47.5 23.65 L47.4 26.8 47.35 26.85 45.4 27.65 46.8 24.4 44.0 26.45 44.6 24.35 47.5 23.65 M53.35 13.2 L51.45 14.2 52.8 11.0 49.95 13.2 50.35 11.0 53.4 10.15 53.35 13.2 M52.15 15.3 L54.25 14.8 56.3 17.1 53.4 18.45 51.75 17.1 55.25 16.85 52.15 15.3 M52.1 29.8 L53.8 29.25 55.9 31.4 53.2 32.95 51.4 31.7 54.95 31.2 51.95 30.0 52.1 29.8 M52.25 34.75 L54.35 34.35 56.25 36.75 53.35 37.95 51.7 36.5 55.25 36.45 52.25 34.75 M48.65 28.95 L48.7 29.0 51.65 29.85 50.0 32.35 47.85 32.2 50.75 30.25 47.15 30.5 48.65 28.95 M51.4 33.0 L51.9 36.1 48.9 35.8 48.1 33.75 51.1 35.45 49.45 32.7 50.2 32.75 50.25 32.7 51.4 33.0 M48.3 28.75 L47.7 28.45 51.1 27.4 47.75 26.65 49.7 25.65 52.1 27.4 50.15 29.05 48.5 28.5 48.3 28.75 M44.0 27.9 L44.05 27.8 46.95 28.6 45.3 31.3 44.0 31.15 43.7 30.8 43.4 30.9 45.95 28.95 42.55 29.35 44.0 27.9 M42.2 36.5 L41.0 39.2 38.6 37.2 39.1 35.05 40.85 38.2 40.9 34.75 42.2 36.5 M45.2 34.5 L46.95 37.6 46.9 34.15 48.3 35.85 47.15 38.6 44.65 36.65 45.2 34.5 M41.05 33.5 L44.6 33.2 41.5 31.7 43.55 31.15 45.6 33.45 42.75 34.85 41.05 33.5 M48.0 38.65 L48.8 36.65 50.1 39.95 50.6 36.5 51.75 38.4 50.15 40.95 48.0 38.65 M45.55 38.4 L46.5 41.25 43.35 41.4 42.35 39.45 45.65 40.65 43.5 38.05 43.45 38.0 43.5 38.0 45.55 38.4 M43.45 47.1 L41.4 44.7 42.4 42.7 43.45 46.1 44.2 42.75 45.2 44.7 43.45 47.1 M41.95 41.2 L40.8 44.15 38.4 42.3 38.75 40.2 40.45 43.15 40.45 39.6 41.95 41.2 M32.35 4.1 L32.4 4.05 34.95 2.35 35.85 5.25 34.35 6.8 34.65 3.4 32.6 6.25 32.3 4.1 32.35 4.1 M37.45 1.3 L36.3 3.15 35.8 -0.25 34.9 2.1 34.3 2.45 33.7 1.05 35.85 -1.25 37.45 1.3 M38.6 3.15 L40.2 5.7 39.45 6.95 39.0 6.9 38.55 4.15 37.25 7.45 36.45 5.45 38.6 3.15 M32.2 3.75 L31.25 0.9 30.6 4.4 29.4 2.55 31.1 -0.1 33.1 2.15 32.6 3.5 32.2 3.75 M21.7 3.65 L21.8 3.7 24.45 4.85 24.7 7.0 22.3 4.55 23.2 7.95 21.35 6.8 21.7 3.65 M29.65 4.45 L29.65 4.5 28.5 6.3 28.0 2.9 26.7 6.2 25.9 4.2 28.05 1.9 29.65 4.45 M34.15 10.55 L33.65 8.4 36.05 6.4 37.25 9.1 35.95 10.85 35.9 7.4 34.15 10.55 M30.45 6.45 L31.15 9.95 29.4 8.65 29.9 5.6 32.65 6.85 32.75 9.0 30.45 6.45 M20.55 1.25 L21.45 3.2 18.4 1.65 20.3 4.65 18.2 4.15 17.55 1.05 20.55 1.25 M24.5 4.0 L22.4 3.5 21.75 0.4 24.75 0.6 25.65 2.55 22.6 1.0 24.5 4.0 M23.6 8.05 L25.05 9.35 24.95 9.55 25.8 10.45 25.35 12.15 23.85 9.05 23.55 12.6 22.2 10.9 23.6 8.05 M25.4 9.45 L26.5 6.55 26.5 6.45 28.9 8.25 28.6 10.4 26.85 7.45 26.9 11.0 25.4 9.45 M29.1 16.2 L31.6 14.55 32.5 17.55 30.95 19.05 31.2 15.45 29.25 18.35 29.1 16.2 M28.75 12.4 L29.6 9.45 32.25 11.2 32.0 13.35 29.9 10.45 30.25 13.9 28.75 12.4 M28.4 17.3 L28.45 20.5 26.55 21.45 27.75 18.1 25.1 20.3 25.55 18.2 28.4 17.3 M25.75 15.8 L24.95 13.8 26.95 11.5 28.7 14.15 27.55 16.0 26.8 12.5 25.75 15.8 M22.3 13.65 L24.7 15.7 24.1 17.85 22.45 14.7 22.35 18.1 21.0 16.4 22.3 13.65 M22.45 19.55 L24.9 21.6 24.4 23.65 22.65 20.6 22.6 24.05 21.3 22.3 22.45 19.55 M28.45 22.0 L30.1 24.65 28.85 26.5 28.25 23.0 27.05 26.2 26.35 24.15 28.45 22.0 M38.0 14.15 L37.85 14.35 37.45 14.35 40.0 11.95 36.5 12.75 37.7 10.95 40.85 11.4 39.6 14.15 38.35 14.3 38.0 14.15 M35.8 16.3 L33.65 16.2 36.3 13.85 32.9 14.5 34.3 12.85 37.25 13.45 35.8 16.3 M31.65 23.25 L33.05 20.05 30.3 22.05 30.85 20.0 33.8 19.3 33.7 22.4 31.65 23.25 M34.7 23.5 L33.95 26.55 31.8 26.95 33.9 24.05 30.7 25.5 31.7 23.6 34.7 23.5 M13.35 10.2 L11.2 10.0 10.05 7.05 13.1 6.85 14.25 8.6 10.95 7.55 13.35 10.2 M16.8 4.95 L19.8 5.2 20.65 7.2 17.6 5.6 19.45 8.6 17.35 8.05 16.8 4.95 M16.45 3.85 L16.15 6.0 14.4 3.05 14.45 6.6 12.95 5.05 14.0 2.1 16.45 3.85 M21.65 10.65 L21.7 12.8 19.5 10.2 20.1 13.7 18.35 12.4 19.0 9.3 21.65 10.65 M36.15 22.65 L39.3 22.4 38.65 25.35 36.55 25.95 38.55 23.1 35.3 24.65 36.15 22.65 M38.0 21.8 L35.9 21.65 38.75 19.75 35.25 19.95 36.75 18.35 39.7 19.35 38.0 21.8 M15.0 7.65 L17.8 9.2 17.65 11.4 15.35 8.6 15.95 12.05 14.35 10.6 15.0 7.65 M1.8 6.4 L4.1 8.6 3.45 10.65 1.9 7.45 1.65 10.9 0.4 9.1 1.8 6.4 M4.15 12.1 L4.65 13.5 4.55 13.8 4.85 14.1 1.75 12.5 3.6 15.45 1.55 14.7 1.05 11.75 4.15 12.1 M7.25 10.8 L5.5 9.5 6.1 6.4 8.75 7.75 8.85 9.9 6.6 7.3 7.25 10.8 M10.0 9.6 L12.25 11.85 11.55 13.85 10.05 10.7 9.75 14.1 8.9 12.8 8.95 12.3 8.6 12.1 9.95 9.7 10.0 9.6 M8.75 14.65 L11.7 15.9 11.8 18.05 9.2 15.55 10.15 18.85 8.4 17.65 8.75 14.65 M7.55 18.55 L4.45 16.85 6.25 19.8 4.25 19.1 3.75 16.1 6.9 16.5 7.55 18.55 M8.25 14.65 L6.15 11.75 6.5 15.2 5.0 13.7 5.85 10.75 8.55 12.5 8.25 14.65 M3.15 17.4 L-0.2 16.25 2.05 18.9 -0.1 18.45 -1.0 15.55 2.2 15.5 3.15 17.4 M2.95 21.45 L-0.6 21.15 2.25 23.2 0.05 23.3 -1.5 20.75 1.5 19.85 2.95 21.45 M3.4 20.5 L6.45 21.3 6.8 23.45 3.95 21.35 5.35 24.5 3.45 23.5 3.4 20.5 M20.15 16.75 L17.4 14.6 18.7 17.9 16.75 16.95 16.7 13.8 19.65 14.6 20.15 16.75 M8.6 22.9 L8.1 19.75 11.1 20.2 11.9 22.2 8.9 20.4 10.6 23.55 8.6 22.9 M15.95 15.2 L13.65 12.4 14.25 15.85 12.65 14.4 13.3 11.45 16.1 13.0 15.95 15.2 M14.3 20.7 L12.55 19.4 13.1 16.3 15.8 17.6 15.9 19.75 13.65 17.2 14.3 20.7 M20.1 19.45 L20.55 21.6 17.6 19.5 19.05 22.65 17.15 21.7 17.05 18.7 20.1 19.45 M15.3 23.75 L12.15 25.35 15.65 25.5 13.85 26.85 11.15 25.5 13.2 23.1 15.3 23.75 M18.05 26.4 L17.5 23.45 20.6 23.75 21.4 25.8 18.2 24.2 20.1 27.1 18.05 26.4 M18.95 27.6 L15.6 28.8 19.0 29.45 17.05 30.5 14.55 28.8 16.95 26.75 18.95 27.6 M13.55 30.35 L11.6 31.4 9.15 29.7 11.55 27.7 13.5 28.55 10.15 29.7 13.55 30.35 M12.2 33.5 L10.25 36.35 13.45 34.8 12.65 36.85 9.5 37.05 10.1 34.15 12.2 33.5 M14.5 31.05 L16.65 30.6 14.6 33.5 17.75 32.1 16.8 34.0 13.8 34.15 14.5 31.05 M19.15 32.65 L19.15 36.2 20.9 33.15 21.25 35.3 18.9 37.2 17.7 34.25 19.15 32.65 M13.7 36.8 L15.2 35.3 14.85 38.75 16.95 35.85 17.2 38.0 14.55 39.75 13.7 36.8 M19.8 27.9 L21.9 27.3 20.15 30.35 23.1 28.65 22.35 30.65 19.4 31.05 19.8 27.9 M1.35 25.55 L0.7 25.7 1.0 26.25 -1.45 25.4 0.8 27.95 -1.35 27.6 -2.25 24.75 0.85 24.6 1.35 25.55 M7.45 28.7 L6.45 29.25 4.45 30.3 7.95 30.5 6.3 31.85 3.4 30.6 5.35 28.25 7.45 28.7 M6.65 26.6 L6.1 25.5 5.9 25.05 8.85 24.55 10.2 26.2 6.85 25.45 9.45 27.85 7.3 27.9 6.65 26.6 M2.35 29.9 L-1.15 30.6 2.1 31.7 0.15 32.45 -2.15 30.5 0.45 28.7 2.35 29.9 M2.55 28.45 L1.1 25.85 4.2 25.15 5.55 26.85 2.0 26.3 4.7 28.5 2.55 28.45 M4.9 33.45 L1.3 33.55 4.35 35.2 2.25 35.6 0.35 33.2 3.25 32.0 4.9 33.45 M6.7 32.1 L7.9 31.05 9.7 31.45 6.7 33.05 10.2 33.25 8.55 34.6 5.65 33.35 6.7 32.1 M7.35 35.15 L4.75 37.6 8.15 36.85 6.8 38.5 3.8 38.0 5.15 35.2 7.35 35.15 M10.0 39.0 L9.85 39.1 10.25 40.7 7.5 42.1 6.9 39.15 8.55 37.75 7.9 41.15 10.25 38.45 10.25 38.75 10.0 39.0 M1.05 40.0 L-1.95 39.85 -0.95 36.85 1.2 36.6 -1.05 39.3 2.15 38.2 1.05 40.0 M3.2 40.25 L5.9 42.5 4.7 39.25 6.55 40.35 6.45 43.35 3.45 42.4 3.2 40.25 M0.35 46.0 L-1.1 43.2 0.2 41.5 0.55 45.0 1.95 41.85 2.55 43.95 0.35 46.0 M7.2 44.75 L7.85 42.7 9.4 45.9 9.65 42.45 10.9 44.25 9.5 46.95 7.2 44.75 M10.25 39.25 L10.25 39.2 10.3 39.2 11.9 37.8 11.25 41.2 13.6 38.5 13.65 40.7 12.65 41.25 12.6 41.3 10.85 42.15 10.25 39.25 M18.65 39.05 L20.2 42.15 20.4 38.65 21.8 40.3 20.45 43.15 18.15 41.15 18.65 39.05 M18.15 41.7 L18.25 41.95 16.0 44.2 14.5 41.55 15.7 39.75 16.1 43.15 17.5 39.9 17.9 40.9 17.9 40.95 17.75 41.35 18.15 41.7 M12.2 41.75 L12.7 41.55 13.05 44.65 14.3 41.85 14.75 42.6 15.0 43.6 12.8 45.65 11.35 42.85 12.2 41.75 M16.85 43.7 L17.65 43.0 17.95 46.3 19.4 43.2 19.95 45.25 17.7 47.3 16.25 44.5 16.85 43.7 M40.1 30.8 L40.25 32.25 40.25 32.35 40.35 33.8 37.25 33.15 36.75 31.05 39.7 33.0 38.15 29.9 40.1 30.8 M39.1 29.95 L38.2 29.6 37.1 28.75 40.6 28.4 37.5 27.0 39.55 26.4 41.6 28.65 39.1 29.95 M32.0 28.8 L35.35 29.95 33.15 27.35 35.25 27.75 36.15 30.6 33.0 30.7 32.0 28.8 M33.65 33.1 L31.85 35.5 29.85 33.05 30.85 31.1 31.9 34.5 32.65 31.15 33.65 33.1 M34.8 32.65 L36.8 35.55 36.55 32.1 36.6 32.15 36.9 33.45 37.95 33.65 38.0 33.7 37.05 36.55 34.45 34.75 34.8 32.65 M27.8 28.25 L26.25 31.5 29.1 29.55 28.5 31.6 25.55 32.25 25.8 29.1 27.8 28.25 M26.35 27.55 L23.7 25.15 24.75 28.45 22.95 27.25 22.95 27.15 23.2 24.25 26.15 25.4 26.35 27.55 M22.15 31.05 L23.1 34.1 23.85 30.75 24.8 32.7 23.05 35.1 21.05 32.65 21.85 31.1 22.15 31.05 M28.6 35.1 L28.65 34.95 29.0 38.35 30.45 35.15 31.2 37.2 28.9 39.4 27.45 36.75 27.75 36.35 28.6 35.85 28.6 35.1 M28.2 33.45 L28.25 35.65 25.6 37.15 24.85 34.05 26.55 32.7 26.1 36.2 28.2 33.45 M29.2 40.0 L30.9 43.1 31.0 39.7 32.35 41.4 31.05 44.15 28.65 42.1 29.2 40.0 M27.95 40.6 L25.55 42.5 24.35 39.6 25.8 37.95 25.85 41.55 27.5 38.5 27.95 40.6 M22.05 40.55 L23.95 41.2 24.45 44.2 21.3 43.85 20.95 42.8 21.25 42.2 23.75 43.45 22.0 40.65 22.05 40.55 M24.75 37.7 L23.4 40.55 21.1 38.55 21.6 36.45 23.15 39.55 23.35 36.05 24.75 37.7 M36.75 43.15 L34.35 44.95 33.25 42.0 34.75 40.4 34.7 43.95 36.35 41.15 36.5 41.25 36.5 41.35 36.75 43.15 M34.9 37.85 L35.0 38.0 33.15 40.55 31.25 38.2 32.1 36.25 33.05 39.55 33.95 36.1 34.9 37.85 M38.5 38.6 L37.35 41.55 34.95 39.7 35.2 38.3 35.45 37.95 35.3 37.7 35.3 37.6 37.0 40.55 37.0 37.0 38.5 38.6 M40.35 46.0 L37.95 47.8 36.85 44.8 38.35 43.25 38.3 46.8 40.0 43.95 40.1 44.0 40.35 46.0 M-0.4 11.25 L0.4 13.3 -2.8 11.8 -0.85 14.6 -2.9 14.0 -3.55 11.1 -0.4 11.25 M-1.3 16.5 L-4.1 18.8 -0.65 18.25 -2.1 19.85 -5.05 19.15 -3.5 16.4 -1.3 16.5 M-0.35 33.75 L-3.9 34.25 -0.7 35.55 -2.8 36.15 -4.9 34.0 -2.15 32.5 -0.35 33.75 M-4.6 35.8 L-3.0 37.35 -6.6 37.35 -3.6 39.05 -5.7 39.4 -7.55 37.0 -4.6 35.8 M-4.9 43.25 L-1.8 41.8 -2.75 43.75 -5.8 43.8 -5.0 40.75 -2.85 40.35 -4.9 43.25" fill="#c2c2c2" fill-rule="evenodd" stroke="none"/>
  </g>
</svg>
