<?xml version="1.0" encoding="UTF-8" standalone="no"?>
<svg xmlns:ffdec="https://www.free-decompiler.com/flash" xmlns:xlink="http://www.w3.org/1999/xlink" ffdec:objectType="shape" height="48.7px" width="115.0px" xmlns="http://www.w3.org/2000/svg">
  <g transform="matrix(1.0, 0.0, 0.0, 1.0, 76.05, 43.45)">
    <path d="M11.7 -8.35 L9.2 -8.8 3.45 -8.55 Q1.6 -8.05 -1.1 -6.35 -4.4 -4.2 -5.5 -3.7 -6.45 -3.25 -8.45 -2.55 -10.35 -1.65 -11.05 -1.5 -12.75 -1.15 -16.0 -1.95 -19.3 -2.75 -20.7 -3.5 -21.5 -3.85 -24.15 -5.55 -26.25 -6.85 -27.75 -7.25 -30.3 -8.0 -32.95 -6.95 L-35.25 -5.95 -37.5 -6.05 -38.55 -7.05 -39.5 -8.2 Q-40.65 -9.25 -43.15 -8.95 L-45.05 -8.75 -46.95 -8.95 Q-48.3 -9.35 -49.6 -10.9 L-51.65 -13.65 -53.4 -15.05 -55.75 -15.1 -58.3 -14.5 -60.9 -13.95 Q-64.2 -13.55 -65.9 -15.15 -66.95 -16.1 -67.35 -17.65 -67.65 -19.1 -67.35 -20.65 L-67.55 -21.1 -66.8 -23.45 Q-66.0 -25.05 -64.6 -26.1 -63.75 -26.75 -62.4 -27.25 L-61.95 -27.05 -60.85 -26.7 -60.35 -26.35 -59.9 -26.3 -59.55 -25.95 -59.2 -25.5 Q-58.6 -24.8 -57.1 -24.1 L-55.9 -23.6 -54.15 -23.05 Q-53.65 -23.05 -53.55 -23.3 -53.45 -23.5 -53.65 -23.7 L-54.0 -23.95 -56.9 -25.6 -58.05 -26.45 -58.2 -26.7 -58.05 -27.0 -57.95 -27.75 -58.0 -28.7 -57.6 -28.85 -54.95 -30.0 -52.2 -31.1 -49.4 -31.8 -46.65 -32.65 Q-46.0 -32.95 -44.35 -34.0 L-42.05 -35.25 -39.55 -35.75 -38.7 -35.85 -37.8 -35.5 -36.8 -35.25 -35.9 -34.55 Q-34.25 -33.15 -30.45 -32.45 L-28.25 -32.1 Q-24.75 -31.65 -21.25 -32.75 -19.95 -33.1 -19.35 -33.8 -19.05 -34.0 -19.15 -34.25 -19.15 -34.55 -19.6 -34.55 L-20.2 -34.3 Q-21.2 -33.75 -23.5 -33.45 L-25.85 -33.25 -28.0 -33.55 -31.1 -34.15 Q-33.2 -34.65 -34.0 -35.25 L-34.5 -35.8 -34.4 -36.6 -34.25 -37.05 -32.4 -37.65 Q-30.75 -37.95 -27.8 -37.6 L-23.15 -37.35 -20.3 -37.95 -17.5 -38.8 -12.15 -39.65 -9.25 -39.3 -7.7 -38.45 -6.3 -37.35 Q-3.8 -35.35 -1.4 -34.7 L3.5 -34.0 Q5.85 -33.75 7.4 -33.1 L7.25 -33.15 6.95 -32.9 6.45 -31.85 Q6.0 -30.9 4.75 -29.65 L2.1 -27.2 Q0.1 -25.7 -3.75 -24.4 -10.05 -22.25 -16.5 -21.15 -17.2 -21.05 -17.45 -20.7 -17.0 -20.25 -15.8 -20.45 -9.0 -21.6 -2.75 -23.5 -0.45 -24.1 0.95 -24.85 L3.25 -26.2 7.25 -28.75 Q8.35 -29.45 9.0 -29.65 L10.55 -29.85 12.7 -30.4 13.15 -30.5 15.8 -30.05 18.35 -29.0 20.75 -27.55 Q22.65 -26.5 24.35 -25.8 L26.6 -24.65 28.15 -22.8 27.2 -21.4 Q26.2 -19.95 25.2 -19.35 L24.15 -18.85 20.65 -17.55 Q20.0 -17.35 19.9 -17.0 19.8 -16.55 20.2 -16.25 L21.0 -16.05 Q21.55 -16.1 22.55 -16.5 L24.05 -17.0 24.95 -17.05 26.15 -17.35 27.45 -17.85 28.15 -18.3 Q29.25 -19.0 30.55 -18.85 L31.4 -18.8 31.55 -18.8 Q32.45 -18.0 33.4 -17.3 L35.0 -16.0 35.15 -15.85 35.0 -15.5 Q34.45 -14.2 33.55 -13.55 32.85 -13.05 31.2 -12.75 L28.8 -12.0 Q28.0 -11.5 27.25 -10.4 L25.95 -8.5 Q25.4 -7.7 24.75 -7.5 24.2 -7.4 22.85 -7.95 20.4 -9.0 17.8 -8.3 L15.65 -7.6 13.5 -7.5 11.7 -8.35" fill="#efefef" fill-rule="evenodd" stroke="none"/>
    <path d="M-69.8 -11.0 L-69.85 -12.75 -70.05 -14.45 Q-70.75 -16.6 -74.7 -17.45 L-74.55 -18.2 Q-74.5 -19.25 -73.3 -20.2 L-71.3 -21.85 -69.85 -23.95 -69.65 -24.3 -69.55 -24.45 -69.55 -24.5 Q-68.7 -26.1 -67.85 -26.85 L-67.7 -27.0 -66.05 -27.75 -64.25 -28.3 Q-63.15 -28.75 -61.35 -30.05 L-58.5 -31.95 -55.5 -32.9 Q-53.4 -33.45 -52.45 -33.9 -51.65 -34.25 -50.0 -35.3 L-47.5 -36.7 -44.15 -37.35 -40.75 -37.9 Q-39.75 -38.2 -37.75 -39.15 L-34.75 -40.35 -30.1 -40.5 -25.45 -40.05 -20.15 -40.7 -14.85 -41.8 Q-8.2 -42.95 -4.7 -39.65 L-3.85 -39.0 -3.7 -38.95 -3.65 -38.9 Q-1.9 -36.8 2.65 -36.4 L6.2 -36.05 Q8.15 -35.75 9.45 -34.95 L11.05 -33.75 12.65 -32.75 Q13.8 -32.2 16.2 -32.1 L19.8 -31.6 21.95 -30.2 24.0 -28.55 Q24.6 -28.15 27.35 -26.9 29.45 -25.95 30.4 -24.9 L31.8 -22.7 33.1 -20.5 Q33.55 -19.9 34.65 -19.0 L36.0 -17.7 36.2 -17.5 36.85 -16.6 37.05 -16.25 Q37.75 -14.95 37.8 -13.45 L37.45 -12.45 Q37.2 -11.55 36.4 -10.9 35.6 -10.25 34.65 -10.2 L32.15 -10.5 29.8 -10.25 Q28.6 -9.45 28.7 -7.35 L28.8 -5.7 28.65 -4.15 Q28.3 -3.05 27.3 -2.35 26.3 -1.7 25.15 -1.8 24.05 -1.9 22.9 -2.75 L20.9 -4.4 Q19.75 -5.3 18.55 -5.55 17.15 -5.9 16.25 -5.15 L15.05 -3.35 Q14.4 -2.1 13.65 -1.85 12.6 -1.55 10.7 -3.0 8.6 -4.6 6.4 -5.15 L1.85 -4.9 Q0.55 -4.3 -1.35 -2.3 -3.3 -0.2 -4.4 0.4 -6.1 1.4 -9.65 1.8 L-15.7 2.15 Q-19.05 1.95 -21.35 0.65 L-25.1 -2.0 Q-27.35 -3.6 -29.15 -3.6 -30.3 -3.6 -31.7 -3.0 L-34.15 -1.85 Q-37.4 -0.35 -39.25 -1.5 L-40.65 -2.9 -42.0 -4.3 Q-44.1 -5.9 -47.9 -4.2 -49.5 -3.45 -50.25 -3.85 L-51.0 -4.7 -51.5 -5.8 Q-52.2 -7.55 -53.85 -8.6 -55.55 -9.65 -57.4 -9.6 L-59.8 -9.05 -62.2 -8.2 Q-65.2 -7.05 -67.1 -7.7 -68.15 -8.05 -68.9 -9.0 -69.6 -9.9 -69.8 -11.0 M11.7 -8.35 L13.5 -7.5 15.65 -7.6 17.8 -8.3 Q20.4 -9.0 22.85 -7.95 24.2 -7.4 24.75 -7.5 25.4 -7.7 25.95 -8.5 L27.25 -10.4 Q28.0 -11.5 28.8 -12.0 L31.2 -12.75 Q32.85 -13.05 33.55 -13.55 34.45 -14.2 35.0 -15.5 L35.15 -15.85 35.0 -16.0 33.4 -17.3 Q32.45 -18.0 31.55 -18.8 L31.4 -18.8 30.55 -18.85 Q29.25 -19.0 28.15 -18.3 L27.45 -17.85 26.15 -17.35 24.95 -17.05 24.05 -17.0 22.55 -16.5 Q21.55 -16.1 21.0 -16.05 L20.2 -16.25 Q19.8 -16.55 19.9 -17.0 20.0 -17.35 20.65 -17.55 L24.15 -18.85 25.2 -19.35 Q26.2 -19.95 27.2 -21.4 L28.15 -22.8 26.6 -24.65 24.35 -25.8 Q22.65 -26.5 20.75 -27.55 L18.35 -29.0 15.8 -30.05 13.15 -30.5 12.7 -30.4 10.55 -29.85 9.0 -29.65 Q8.35 -29.45 7.25 -28.75 L3.25 -26.2 0.95 -24.85 Q-0.45 -24.1 -2.75 -23.5 -9.0 -21.6 -15.8 -20.45 -17.0 -20.25 -17.45 -20.7 -17.2 -21.05 -16.5 -21.15 -10.05 -22.25 -3.75 -24.4 0.1 -25.7 2.1 -27.2 L4.75 -29.65 Q6.0 -30.9 6.45 -31.85 L6.95 -32.9 7.25 -33.15 7.4 -33.1 Q5.85 -33.75 3.5 -34.0 L-1.4 -34.7 Q-3.8 -35.35 -6.3 -37.35 L-7.7 -38.45 -9.25 -39.3 -12.15 -39.65 -17.5 -38.8 -20.3 -37.95 -23.15 -37.35 -27.8 -37.6 Q-30.75 -37.95 -32.4 -37.65 L-34.25 -37.05 -34.4 -36.6 -34.5 -35.8 -34.0 -35.25 Q-33.2 -34.65 -31.1 -34.15 L-28.0 -33.55 -25.85 -33.25 -23.5 -33.45 Q-21.2 -33.75 -20.2 -34.3 L-19.6 -34.55 Q-19.15 -34.55 -19.15 -34.25 -19.05 -34.0 -19.35 -33.8 -19.95 -33.1 -21.25 -32.75 -24.75 -31.65 -28.25 -32.1 L-30.45 -32.45 Q-34.25 -33.15 -35.9 -34.55 L-36.8 -35.25 -37.8 -35.5 -38.7 -35.85 -39.55 -35.75 -42.05 -35.25 -44.35 -34.0 Q-46.0 -32.95 -46.65 -32.65 L-49.4 -31.8 -52.2 -31.1 -54.95 -30.0 -57.6 -28.85 -58.0 -28.7 -57.95 -27.75 -58.05 -27.0 -58.2 -26.7 -58.05 -26.45 -56.9 -25.6 -54.0 -23.95 -53.65 -23.7 Q-53.45 -23.5 -53.55 -23.3 -53.65 -23.05 -54.15 -23.05 L-55.9 -23.6 -57.1 -24.1 Q-58.6 -24.8 -59.2 -25.5 L-59.55 -25.95 -59.9 -26.3 -60.35 -26.35 -60.85 -26.7 -61.95 -27.05 -62.4 -27.25 Q-63.75 -26.75 -64.6 -26.1 -66.0 -25.05 -66.8 -23.45 L-67.55 -21.1 -67.35 -20.65 Q-67.65 -19.1 -67.35 -17.65 -66.95 -16.1 -65.9 -15.15 -64.2 -13.55 -60.9 -13.95 L-58.3 -14.5 -55.75 -15.1 -53.4 -15.05 -51.65 -13.65 -49.6 -10.9 Q-48.3 -9.35 -46.95 -8.95 L-45.05 -8.75 -43.15 -8.95 Q-40.65 -9.25 -39.5 -8.2 L-38.55 -7.05 -37.5 -6.05 -35.25 -5.95 -32.95 -6.95 Q-30.3 -8.0 -27.75 -7.25 -26.25 -6.85 -24.15 -5.55 -21.5 -3.85 -20.7 -3.5 -19.3 -2.75 -16.0 -1.95 -12.75 -1.15 -11.05 -1.5 -10.35 -1.65 -8.45 -2.55 -6.45 -3.25 -5.5 -3.7 -4.4 -4.2 -1.1 -6.35 1.6 -8.05 3.45 -8.55 L9.2 -8.8 11.7 -8.35" fill="#dbdbdb" fill-rule="evenodd" stroke="none"/>
    <path d="M-74.65 -16.25 L-74.95 -16.35 Q-75.9 -16.8 -76.05 -18.0 -76.15 -19.2 -75.3 -19.8 L-75.25 -19.8 -74.25 -20.8 -72.05 -22.7 Q-71.5 -23.3 -70.45 -25.2 L-68.7 -27.55 Q-67.9 -28.2 -66.4 -28.75 L-63.9 -29.65 Q-63.1 -30.05 -61.45 -31.35 -59.95 -32.55 -58.95 -33.0 L-56.3 -33.8 -53.65 -34.5 Q-52.65 -34.9 -51.05 -35.95 L-48.5 -37.5 Q-47.05 -38.15 -44.1 -38.6 -41.0 -39.05 -39.7 -39.55 L-36.3 -41.1 Q-34.2 -41.9 -30.8 -41.7 L-25.1 -41.4 -19.45 -42.2 -13.8 -43.3 -8.0 -43.05 Q-4.95 -42.3 -3.25 -40.3 L-2.95 -39.85 -2.55 -39.5 Q-0.7 -37.75 3.75 -37.45 L7.2 -37.05 10.35 -35.9 11.85 -34.7 Q12.75 -33.95 13.45 -33.65 L16.45 -33.25 Q19.35 -33.15 21.05 -32.25 L24.15 -29.9 Q24.9 -29.35 28.05 -27.85 30.5 -26.65 31.55 -25.35 L32.65 -23.5 33.75 -21.65 Q34.3 -20.85 35.65 -19.6 L37.6 -17.55 Q38.95 -15.75 38.9 -13.35 L38.95 -12.95 Q38.95 -11.65 38.1 -10.5 37.2 -9.4 35.9 -9.05 L35.2 -8.9 33.55 -8.95 33.3 -9.0 33.25 -9.0 30.55 -9.0 Q30.35 -8.2 30.3 -6.95 L30.15 -4.9 29.55 -2.7 Q29.1 -1.8 28.45 -1.25 L28.4 -1.2 27.8 -0.8 24.05 -0.65 Q22.5 -1.1 20.15 -3.1 18.45 -4.6 17.35 -4.1 16.8 -3.85 16.4 -2.95 L15.8 -1.6 15.75 -1.55 Q15.25 -0.8 14.3 -0.6 L13.55 -0.5 Q12.2 -0.45 11.0 -1.15 L8.8 -2.6 6.5 -3.85 3.9 -3.95 Q2.15 -3.6 0.05 -1.65 L-3.55 1.35 Q-5.6 2.55 -9.7 3.05 -18.65 4.25 -22.9 1.25 L-25.6 -0.9 Q-27.2 -2.15 -28.6 -2.25 -30.0 -2.4 -31.9 -1.55 L-35.1 -0.1 Q-37.45 0.6 -39.25 -0.15 -40.05 -0.45 -40.7 -1.05 L-41.95 -2.45 -42.05 -2.55 -43.35 -3.6 -45.5 -3.75 -47.65 -3.0 Q-50.55 -1.9 -51.8 -3.3 -52.25 -3.75 -52.5 -4.65 L-53.05 -6.15 Q-53.75 -7.5 -55.55 -8.0 -57.15 -8.4 -58.9 -8.0 L-62.1 -7.0 -65.35 -6.4 Q-67.3 -6.4 -68.85 -7.55 -70.5 -8.75 -70.8 -10.55 L-70.85 -12.3 Q-70.85 -13.45 -71.1 -14.05 -71.55 -15.4 -72.8 -15.9 L-73.15 -16.0 -74.05 -16.15 -74.65 -16.25 M-69.8 -11.0 Q-69.6 -9.9 -68.9 -9.0 -68.15 -8.05 -67.1 -7.7 -65.2 -7.05 -62.2 -8.2 L-59.8 -9.05 -57.4 -9.6 Q-55.55 -9.65 -53.85 -8.6 -52.2 -7.55 -51.5 -5.8 L-51.0 -4.7 -50.25 -3.85 Q-49.5 -3.45 -47.9 -4.2 -44.1 -5.9 -42.0 -4.3 L-40.65 -2.9 -39.25 -1.5 Q-37.4 -0.35 -34.15 -1.85 L-31.7 -3.0 Q-30.3 -3.6 -29.15 -3.6 -27.35 -3.6 -25.1 -2.0 L-21.35 0.65 Q-19.05 1.95 -15.7 2.15 L-9.65 1.8 Q-6.1 1.4 -4.4 0.4 -3.3 -0.2 -1.35 -2.3 0.55 -4.3 1.85 -4.9 L6.4 -5.15 Q8.6 -4.6 10.7 -3.0 12.6 -1.55 13.65 -1.85 14.4 -2.1 15.05 -3.35 L16.25 -5.15 Q17.15 -5.9 18.55 -5.55 19.75 -5.3 20.9 -4.4 L22.9 -2.75 Q24.05 -1.9 25.15 -1.8 26.3 -1.7 27.3 -2.35 28.3 -3.05 28.65 -4.15 L28.8 -5.7 28.7 -7.35 Q28.6 -9.45 29.8 -10.25 L32.15 -10.5 34.65 -10.2 Q35.6 -10.25 36.4 -10.9 37.2 -11.55 37.45 -12.45 L37.8 -13.45 Q37.75 -14.95 37.05 -16.25 L36.85 -16.6 36.2 -17.5 36.0 -17.7 34.65 -19.0 Q33.55 -19.9 33.1 -20.5 L31.8 -22.7 30.4 -24.9 Q29.45 -25.95 27.35 -26.9 24.6 -28.15 24.0 -28.55 L21.95 -30.2 19.8 -31.6 16.2 -32.1 Q13.8 -32.2 12.65 -32.75 L11.05 -33.75 9.45 -34.95 Q8.15 -35.75 6.2 -36.05 L2.65 -36.4 Q-1.9 -36.8 -3.65 -38.9 L-3.7 -38.95 -3.85 -39.0 -4.7 -39.65 Q-8.2 -42.95 -14.85 -41.8 L-20.15 -40.7 -25.45 -40.05 -30.1 -40.5 -34.75 -40.35 -37.75 -39.15 Q-39.75 -38.2 -40.75 -37.9 L-44.15 -37.35 -47.5 -36.7 -50.0 -35.3 Q-51.65 -34.25 -52.45 -33.9 -53.4 -33.45 -55.5 -32.9 L-58.5 -31.95 -61.35 -30.05 Q-63.15 -28.75 -64.25 -28.3 L-66.05 -27.75 -67.7 -27.0 -67.85 -26.85 Q-68.7 -26.1 -69.55 -24.5 L-69.55 -24.45 -69.65 -24.3 -69.85 -23.95 -71.3 -21.85 -73.3 -20.2 Q-74.5 -19.25 -74.55 -18.2 L-74.7 -17.45 Q-70.75 -16.6 -70.05 -14.45 L-69.85 -12.75 -69.8 -11.0" fill="#9d9d9d" fill-rule="evenodd" stroke="none"/>
    <path d="M35.2 -8.9 L35.65 -8.95 35.7 -8.9 Q36.85 -7.65 36.3 -6.8 L35.55 -6.3 34.65 -6.05 Q33.25 -5.65 32.0 -3.75 L29.8 -0.65 Q27.9 1.35 24.95 1.1 23.7 1.0 22.2 0.35 L19.55 -0.95 Q18.5 -1.5 17.8 -1.35 L16.95 -0.8 16.25 -0.1 Q14.8 1.15 12.4 0.8 11.0 0.6 8.6 -0.6 6.3 -1.85 5.05 -1.9 2.75 -2.1 -0.05 0.4 L-2.2 2.4 -4.55 4.0 Q-6.15 4.75 -9.35 4.95 L-16.15 5.25 -20.4 4.65 Q-21.7 4.3 -24.7 2.45 -27.1 0.9 -28.4 0.7 L-30.85 0.95 -33.2 1.7 Q-37.2 3.15 -39.2 1.7 L-40.8 0.0 Q-41.75 -1.1 -42.6 -1.4 L-44.85 -1.35 -47.2 -0.6 -51.25 -0.8 Q-53.35 -1.45 -54.6 -3.1 L-56.0 -4.6 -56.8 -5.0 Q-57.25 -5.3 -57.2 -5.65 -61.7 -4.3 -63.8 -4.2 -67.7 -3.95 -70.25 -5.85 -72.4 -7.45 -72.95 -10.2 -73.3 -11.95 -73.6 -12.3 L-74.85 -13.5 Q-75.45 -14.3 -75.05 -15.45 L-74.65 -16.25 -74.05 -16.15 -73.15 -16.0 -72.8 -15.9 Q-71.55 -15.4 -71.1 -14.05 -70.85 -13.45 -70.85 -12.3 L-70.8 -10.55 Q-70.5 -8.75 -68.85 -7.55 -67.3 -6.4 -65.35 -6.4 L-62.1 -7.0 -58.9 -8.0 Q-57.15 -8.4 -55.55 -8.0 -53.75 -7.5 -53.05 -6.15 L-52.5 -4.65 Q-52.25 -3.75 -51.8 -3.3 -50.55 -1.9 -47.65 -3.0 L-45.5 -3.75 -43.35 -3.6 -42.05 -2.55 -41.95 -2.45 -40.7 -1.05 Q-40.05 -0.45 -39.25 -0.15 -37.45 0.6 -35.1 -0.1 L-31.9 -1.55 Q-30.0 -2.4 -28.6 -2.25 -27.2 -2.15 -25.6 -0.9 L-22.9 1.25 Q-18.65 4.25 -9.7 3.05 -5.6 2.55 -3.55 1.35 L0.05 -1.65 Q2.15 -3.6 3.9 -3.95 L6.5 -3.85 8.8 -2.6 11.0 -1.15 Q12.2 -0.45 13.55 -0.5 L14.3 -0.6 Q15.25 -0.8 15.75 -1.55 L15.8 -1.6 16.4 -2.95 Q16.8 -3.85 17.35 -4.1 18.45 -4.6 20.15 -3.1 22.5 -1.1 24.05 -0.65 L27.8 -0.8 28.4 -1.2 28.45 -1.25 Q29.1 -1.8 29.55 -2.7 L30.15 -4.9 30.3 -6.95 Q30.35 -8.2 30.55 -9.0 L33.25 -9.0 33.3 -9.0 33.55 -8.95 35.2 -8.9" fill="#39561a" fill-rule="evenodd" stroke="none"/>
  </g>
</svg>
