<?xml version="1.0" encoding="UTF-8" standalone="no"?>
<svg xmlns:ffdec="https://www.free-decompiler.com/flash" xmlns:xlink="http://www.w3.org/1999/xlink" ffdec:objectType="shape" height="114.85px" width="67.25px" xmlns="http://www.w3.org/2000/svg">
  <g transform="matrix(1.0, 0.0, 0.0, 1.0, 38.35, 103.4)">
    <path d="M-9.5 -59.45 L-9.55 -58.25 -9.55 -58.6 -9.55 -58.8 -9.5 -59.45" fill="#6b6d65" fill-rule="evenodd" stroke="none"/>
    <path d="M4.45 -96.0 L5.95 -96.0 6.25 -96.0 7.05 -96.05 7.65 -96.05 7.65 -95.05 7.65 -92.85 5.95 -92.8 5.85 -92.8 5.4 -92.8 5.3 -92.8 5.15 -92.8 4.65 -92.8 4.6 -94.0 4.45 -96.0 M-0.05 -96.05 L1.3 -96.0 1.3 -94.8 1.3 -92.8 -2.0 -92.9 -2.9 -92.95 -2.7 -96.2 -0.05 -96.05 M4.05 -84.05 L1.65 -84.05 1.6 -84.65 Q1.6 -86.8 2.9 -85.65 L4.05 -84.05 M3.9 -72.05 L5.35 -72.05 5.4 -71.25 5.4 -70.7 Q5.45 -70.55 5.1 -70.55 4.45 -70.55 3.9 -72.05 M-0.45 -72.1 L-0.3 -69.3 -0.8 -68.1 -0.8 -67.7 -1.1 -67.65 Q-2.1 -67.65 -2.3 -69.95 L-2.3 -72.15 -2.3 -72.3 -0.55 -72.1 -0.45 -72.1 M3.75 -12.05 Q3.9 -13.7 4.35 -15.05 L4.4 -12.05 3.75 -12.05 M-17.55 -3.7 L-17.45 0.6 -18.4 0.4 -18.55 0.35 Q-19.0 0.0 -19.1 -1.05 -19.3 -2.0 -18.9 -4.15 L-18.9 -4.2 -17.55 -3.7" fill="#ffffff" fill-rule="evenodd" stroke="none"/>
    <path d="M7.65 -96.05 L8.45 -96.05 8.4 -92.9 7.65 -92.85 7.65 -95.05 7.65 -96.05 M1.3 -96.0 L3.9 -96.0 4.45 -96.0 4.6 -94.0 4.65 -92.8 3.9 -92.8 3.4 -92.8 1.3 -92.8 1.3 -94.8 1.3 -96.0 M-1.05 -84.2 Q-0.2 -87.6 2.4 -89.7 L4.2 -89.7 Q5.3 -87.3 5.95 -84.05 L4.05 -84.05 2.9 -85.65 Q1.6 -86.8 1.6 -84.65 L1.65 -84.05 -0.05 -84.05 -1.05 -84.2 M5.35 -72.05 L7.45 -72.05 6.9 -63.45 Q5.65 -64.15 4.8 -65.0 3.55 -66.2 1.75 -68.55 L1.45 -64.85 Q1.0 -62.4 -0.95 -62.4 -2.15 -62.4 -3.15 -63.9 L-4.25 -65.9 -4.55 -65.35 -4.1 -72.5 -2.3 -72.3 -2.3 -72.15 -2.3 -69.95 Q-2.1 -67.65 -1.1 -67.65 L-0.8 -67.7 -0.8 -68.1 -0.3 -69.3 -0.45 -72.1 -0.05 -72.05 3.9 -72.05 Q4.45 -70.55 5.1 -70.55 5.45 -70.55 5.4 -70.7 L5.4 -71.25 5.35 -72.05 M1.85 -36.05 L1.9 -36.3 2.9 -40.7 3.9 -43.2 Q4.55 -44.4 5.65 -44.15 L5.1 -36.05 1.85 -36.05 M20.55 -12.2 L19.9 -18.55 19.35 -24.15 20.85 -24.2 21.6 -20.25 23.0 -12.3 20.55 -12.2 M-0.1 -24.05 L4.3 -24.05 4.35 -15.05 Q3.9 -13.7 3.75 -12.05 L-0.05 -12.05 -0.55 -12.1 -0.8 -12.1 -0.8 -14.75 -0.75 -15.15 -0.1 -24.05 M0.65 -0.05 L4.65 -0.05 4.75 3.45 Q2.4 2.6 1.0 0.55 L0.65 0.0 0.65 -0.05 M-3.45 -84.45 L-3.35 -86.15 -3.0 -84.4 -3.45 -84.45 M-19.1 -28.3 L-17.9 -27.85 -18.05 -25.15 -17.8 -15.85 -21.2 -17.1 -20.05 -23.85 -19.1 -28.3 M-27.25 -20.1 Q-26.35 -23.0 -24.75 -29.5 L-24.5 -30.35 -23.05 -29.8 -23.9 -23.9 -24.9 -18.55 -27.25 -20.1 M-28.5 -9.0 L-26.9 -7.9 Q-27.45 -6.25 -28.25 -4.95 L-28.4 -4.9 -28.5 -9.0 M-17.4 3.5 L-19.3 3.45 Q-20.45 2.9 -21.0 1.45 L-21.1 1.1 -21.35 -0.65 Q-21.65 -2.55 -21.6 -4.2 L-21.7 -5.25 -18.9 -4.2 -18.9 -4.15 Q-19.3 -2.0 -19.1 -1.05 -19.0 0.0 -18.55 0.35 L-18.4 0.4 -17.45 0.6 -17.4 3.5" fill="#e0e0e0" fill-rule="evenodd" stroke="none"/>
    <path d="M8.5 -88.0 L8.5 -87.9 8.2 -84.05 5.95 -84.05 Q5.3 -87.3 4.2 -89.7 L2.4 -89.7 Q-0.2 -87.6 -1.05 -84.2 L-3.0 -84.4 -3.35 -86.15 -3.0 -91.95 -1.1 -91.7 6.6 -91.7 8.4 -92.35 8.4 -92.05 8.4 -90.85 8.45 -88.65 8.5 -88.0 M6.9 -63.45 L6.65 -60.05 -0.05 -60.05 -4.85 -60.55 -4.55 -65.35 -4.25 -65.9 -3.15 -63.9 Q-2.15 -62.4 -0.95 -62.4 1.0 -62.4 1.45 -64.85 L1.75 -68.55 Q3.55 -66.2 4.8 -65.0 5.65 -64.15 6.9 -63.45 M-15.05 -74.8 L-15.75 -63.1 -16.65 -63.45 Q-16.6 -68.35 -15.85 -75.1 L-15.05 -74.8 M17.7 -44.75 L17.95 -45.05 17.95 -45.5 18.7 -44.05 Q20.45 -40.65 21.0 -38.0 L21.4 -36.2 17.1 -36.05 17.7 -44.75 M5.9 -48.05 L5.65 -44.15 Q4.55 -44.4 3.9 -43.2 L2.9 -40.7 1.9 -36.3 1.85 -36.05 -0.05 -36.05 -6.25 -36.7 -5.85 -43.55 Q-4.6 -44.0 -2.55 -46.1 -1.05 -47.6 2.1 -48.05 L5.9 -48.05 M-16.75 -45.7 L-17.15 -39.6 -24.0 -42.15 -23.15 -43.85 -22.85 -44.3 -21.2 -46.75 Q-20.55 -44.85 -18.2 -44.8 L-16.75 -45.7 M-7.0 -24.75 L-0.1 -24.05 -0.75 -15.15 -0.8 -14.75 -0.8 -12.1 -6.9 -12.8 -7.0 -24.75 M16.4 -12.05 L16.3 -24.05 19.35 -24.15 19.9 -18.55 20.55 -12.2 16.4 -12.05 M20.85 -24.2 L23.3 -24.3 24.15 -18.5 24.85 -12.4 23.0 -12.3 21.6 -20.25 20.85 -24.2 M4.75 3.45 L4.8 6.15 0.8 4.7 Q-1.15 3.75 -3.2 3.6 L-6.55 4.3 -6.65 -0.75 0.65 -0.05 0.65 0.0 1.0 0.55 Q2.4 2.6 4.75 3.45 M16.75 3.55 L16.65 -0.05 24.6 -0.35 Q24.15 1.1 22.85 1.95 L22.4 2.3 22.35 2.3 21.25 2.35 19.85 2.55 Q18.25 2.85 16.75 3.55 M-16.7 -98.85 L-14.6 -98.05 -13.6 -97.75 -13.8 -94.8 -15.1 -95.15 -15.9 -95.4 -17.7 -96.05 -16.7 -98.85 M-17.4 3.5 L-17.4 5.4 -18.4 5.2 Q-20.2 4.8 -21.3 3.8 L-23.7 1.0 -24.0 0.5 Q-24.85 -1.15 -27.75 -1.45 L-28.35 -1.55 -28.4 -4.9 -28.25 -4.95 Q-27.45 -6.25 -26.9 -7.9 L-24.55 -6.35 -21.7 -5.25 -21.6 -4.2 Q-21.65 -2.55 -21.35 -0.65 L-21.1 1.1 -21.0 1.45 Q-20.45 2.9 -19.3 3.45 L-17.4 3.5 M-19.1 -28.3 L-20.05 -23.85 -21.2 -17.1 -24.55 -18.35 -24.9 -18.55 -23.9 -23.9 -23.05 -29.8 -19.1 -28.3 M-27.0 -32.0 L-24.55 -30.35 -24.5 -30.35 -24.75 -29.5 Q-26.35 -23.0 -27.25 -20.1 L-28.7 -21.05 -28.7 -25.5 -27.0 -32.0" fill="#b4b4b4" fill-rule="evenodd" stroke="none"/>
    <path d="M8.4 -92.9 L8.4 -92.35 6.6 -91.7 -1.1 -91.7 -3.0 -91.95 -2.9 -92.95 -2.0 -92.9 1.3 -92.8 3.4 -92.8 3.9 -92.8 4.65 -92.8 5.15 -92.8 5.3 -92.8 5.4 -92.8 5.85 -92.8 5.95 -92.8 7.65 -92.85 8.4 -92.9 M23.15 -36.3 L21.4 -36.2 21.0 -38.0 Q20.45 -40.65 18.7 -44.05 L17.95 -45.5 17.95 -45.05 17.7 -44.75 17.9 -48.05 19.55 -48.1 20.2 -46.3 20.95 -43.9 23.15 -36.3 M23.3 -24.3 L25.55 -24.4 Q26.4 -18.5 26.75 -12.45 L24.85 -12.4 24.15 -18.5 23.3 -24.3 M2.1 -48.05 Q-1.05 -47.6 -2.55 -46.1 -4.6 -44.0 -5.85 -43.55 L-5.55 -48.65 -0.05 -48.05 2.1 -48.05 M24.6 -0.35 L26.75 -0.45 26.7 0.55 26.55 2.9 26.35 5.55 24.5 5.45 24.45 5.45 19.85 6.15 Q18.25 6.6 16.8 7.3 L16.75 3.55 Q18.25 2.85 19.85 2.55 L21.25 2.35 22.35 2.3 22.4 2.3 22.85 1.95 Q24.15 1.1 24.6 -0.35 M-6.55 4.3 L-3.2 3.6 Q-1.15 3.75 0.8 4.7 L4.8 6.15 4.85 9.45 1.55 8.3 Q-1.05 7.15 -3.15 6.9 L-3.8 6.85 -5.15 6.75 -5.15 7.15 -6.5 7.1 -6.55 4.3 M-17.7 -96.05 L-18.3 -96.4 Q-19.25 -96.9 -19.25 -97.35 L-19.25 -97.45 -19.25 -97.5 -18.2 -99.9 -18.15 -99.85 -17.9 -99.6 -16.9 -98.95 -16.7 -98.85 -17.7 -96.05 M-15.9 -95.4 L-15.1 -95.15 -13.8 -94.8 -14.35 -86.55 -18.2 -87.95 -17.05 -93.2 Q-17.2 -94.45 -16.45 -94.2 L-14.55 -93.65 -15.15 -94.4 -15.85 -95.35 -15.9 -95.4 M-15.85 -75.1 Q-16.6 -68.35 -16.65 -63.45 L-22.25 -65.85 -20.4 -77.0 -15.85 -75.1 M-27.05 -44.0 L-25.15 -49.25 -20.85 -49.65 -20.7 -50.45 -16.45 -50.8 -16.75 -45.7 -18.2 -44.8 Q-20.55 -44.85 -21.2 -46.75 L-22.85 -44.3 -23.15 -43.85 -24.0 -42.15 -24.55 -42.35 -27.05 -44.0 M-28.8 -33.2 L-27.0 -32.0 -28.7 -25.5 -28.8 -33.2 M-28.35 -1.55 L-27.75 -1.45 Q-24.85 -1.15 -24.0 0.5 L-23.7 1.0 -21.3 3.8 Q-20.2 4.8 -18.4 5.2 L-17.4 5.4 -17.35 7.6 -18.4 7.45 -18.75 7.4 -22.05 6.45 -22.1 6.4 Q-23.35 6.0 -24.5 5.0 L-24.55 5.0 -26.75 3.35 -28.25 2.45 -28.35 -1.55" fill="#8a8a8a" fill-rule="evenodd" stroke="none"/>
    <path d="M18.7 -60.45 L19.05 -60.05 18.65 -60.05 18.7 -60.45 M-20.45 -55.85 L-20.45 -56.1 -20.45 -56.15 -20.4 -56.7 -20.4 -56.85 -17.8 -56.85 -17.8 -56.1 -18.5 -56.1 -18.5 -55.85 -20.45 -55.85 M-13.85 -56.85 L-13.8 -58.6 -13.8 -58.85 -12.3 -58.85 -12.3 -58.6 -12.4 -56.85 -13.85 -56.85 M-23.7 -66.45 L-21.75 -77.55 -20.4 -77.0 -22.25 -65.85 -23.7 -66.45 M-19.8 -88.55 L-18.8 -94.35 -19.8 -95.85 Q-20.45 -96.75 -20.4 -97.35 L-20.2 -98.2 -19.25 -100.35 -13.6 -98.25 -13.6 -97.75 -14.6 -98.05 -16.7 -98.85 -16.9 -98.95 -17.9 -99.6 -18.15 -99.85 -18.2 -99.9 -19.25 -97.5 -19.25 -97.45 -19.25 -97.35 Q-19.25 -96.9 -18.3 -96.4 L-17.7 -96.05 -15.9 -95.4 -15.85 -95.35 -15.15 -94.4 -14.55 -93.65 -16.45 -94.2 Q-17.2 -94.45 -17.05 -93.2 L-18.2 -87.95 -19.8 -88.55 M8.45 -96.05 L9.0 -96.05 8.5 -88.0 8.45 -88.65 8.4 -90.85 8.4 -92.05 8.4 -92.35 8.4 -92.9 8.45 -96.05 M7.05 -96.05 L6.25 -96.0 5.95 -96.0 4.45 -96.0 3.9 -96.0 1.3 -96.0 -0.05 -96.05 7.05 -96.05 M19.55 -48.1 L21.6 -48.2 22.0 -47.05 22.8 -44.75 25.2 -36.35 23.15 -36.3 20.95 -43.9 20.2 -46.3 19.55 -48.1 M27.55 -24.45 L28.45 -16.7 28.35 -17.65 28.4 -12.55 26.75 -12.45 Q26.4 -18.5 25.55 -24.4 L27.55 -24.45 M28.7 1.3 L28.55 3.35 28.4 5.75 28.25 6.85 28.15 7.35 28.15 7.55 27.6 7.45 24.55 7.2 Q22.0 7.3 19.85 7.95 18.25 8.45 16.85 9.25 L16.8 7.3 Q18.25 6.6 19.85 6.15 L24.45 5.45 24.5 5.45 26.35 5.55 26.55 2.9 26.7 0.55 26.75 -0.45 28.65 -0.55 28.7 1.3 M4.9 11.25 Q3.1 10.9 0.85 9.9 -1.3 8.9 -3.1 8.65 L-3.15 6.9 -3.2 8.65 -3.75 8.6 -3.8 8.6 -5.1 8.55 -5.1 8.65 -6.5 8.65 -6.5 7.1 -5.15 7.15 -5.15 6.75 -3.8 6.85 -3.15 6.9 Q-1.05 7.15 1.55 8.3 L4.85 9.45 4.9 11.25 M-28.0 4.25 L-28.6 3.9 -28.2 4.1 -28.0 4.25 M-36.85 -13.4 L-34.5 -25.05 -34.5 -24.95 -36.65 -14.4 -36.85 -13.4 M-27.8 -48.65 L-26.9 -51.2 -26.55 -52.0 -26.35 -52.4 -26.0 -52.5 -20.25 -52.55 -20.2 -52.7 -16.45 -51.3 -16.45 -50.8 -20.7 -50.45 -20.85 -49.65 -25.15 -49.25 -27.05 -44.0 -28.05 -44.65 -27.8 -48.65 M-2.7 -96.2 L-2.7 -96.35 -0.05 -96.05 -2.7 -96.2 M-17.35 7.6 L-17.35 8.35 -24.55 5.65 -28.25 3.15 -28.25 2.45 -26.75 3.35 -24.55 5.0 -24.5 5.0 Q-23.35 6.0 -22.1 6.4 L-22.05 6.45 -18.75 7.4 -18.4 7.45 -17.35 7.6" fill="#464646" fill-rule="evenodd" stroke="none"/>
    <path d="M9.1 -97.6 L10.4 -97.6 10.45 -97.25 10.45 -96.1 10.45 -96.05 9.0 -96.05 9.1 -97.6 M10.65 -84.05 L11.05 -80.2 11.85 -75.0 12.55 -72.05 10.5 -72.05 9.9 -74.6 Q9.45 -76.8 9.15 -79.2 8.8 -81.55 8.7 -84.05 L10.65 -84.05 M-13.5 -99.3 L-12.75 -99.1 -11.6 -98.85 -10.2 -98.55 -2.6 -97.7 -2.7 -96.35 -10.0 -97.0 -10.25 -97.05 -10.4 -97.05 -10.55 -97.1 -13.6 -98.25 -13.5 -99.3 M6.1 -50.9 L6.25 -53.35 16.45 -53.15 18.25 -53.15 18.05 -50.3 17.15 -50.3 16.95 -51.0 6.1 -50.9 M18.5 -57.7 L17.9 -58.4 16.55 -60.05 18.65 -60.05 18.5 -57.7 M28.75 -12.55 L28.75 -12.35 28.8 -11.35 28.9 -2.7 28.85 -2.1 28.8 -0.55 28.65 -0.55 28.4 -12.55 28.75 -12.55 M-14.95 9.25 L-15.65 9.25 -17.3 9.15 -17.35 8.35 -14.95 9.25 M-28.6 3.9 L-30.7 2.85 -35.3 0.7 -35.4 0.6 Q-37.8 -0.7 -38.3 -3.45 L-36.35 -2.2 Q-35.85 -1.25 -34.8 -0.7 L-32.85 0.25 -32.1 0.65 -28.25 3.15 -28.2 4.1 -28.6 3.9 M-32.0 -35.3 L-31.9 -35.55 -30.75 -39.55 -30.65 -40.0 -28.95 -45.25 -28.05 -44.65 -28.35 -40.1 -28.35 -40.05 -28.4 -39.95 -28.6 -39.55 -30.25 -34.15 -32.0 -35.3 M-16.35 -52.9 L-5.35 -51.8 -5.35 -51.7 -15.3 -50.9 -15.35 -50.9 -16.45 -51.3 -16.35 -52.9 M-34.5 -24.95 L-32.85 -23.85 -32.9 -23.6 -35.05 -13.35 -36.65 -14.4 -34.5 -24.95" fill="#000000" fill-rule="evenodd" stroke="none"/>
    <path d="M6.3 -0.05 L5.75 -0.5 4.85 -1.9 4.6 -2.55 4.4 -12.05 9.95 -12.05 10.15 -9.5 10.45 -5.3 10.6 -3.85 Q10.65 -0.95 9.2 -0.05 L6.3 -0.05 M-8.65 -72.9 L-8.55 -75.05 -8.1 -79.4 -8.05 -81.7 Q-7.85 -83.2 -6.8 -83.3 -5.75 -83.45 -5.75 -79.6 L-6.2 -72.7 -8.65 -72.9 M-17.75 -15.0 L-17.75 -15.15 -17.6 -15.75 -14.8 -14.7 Q-14.65 -10.15 -14.8 -5.95 L-14.85 -4.0 -15.1 -2.8 -17.55 -3.7 -17.75 -15.0" fill="#8f8f8f" fill-rule="evenodd" stroke="none"/>
    <path d="M7.55 -73.45 L7.9 -72.05 7.45 -72.05 7.55 -73.45 M5.1 -36.05 L9.95 -36.05 9.95 -36.0 10.8 -31.85 11.85 -24.05 4.3 -24.05 5.1 -36.05 M9.95 -12.05 L13.55 -12.05 13.9 -9.75 14.25 -5.3 14.35 -2.7 14.25 -0.05 9.2 -0.05 Q10.65 -0.95 10.6 -3.85 L10.45 -5.3 10.15 -9.5 9.95 -12.05 M6.3 -0.05 L4.65 -0.05 4.6 -2.55 4.85 -1.9 5.75 -0.5 6.3 -0.05 M-10.65 -73.15 L-10.65 -74.85 Q-10.2 -76.7 -10.2 -78.7 -10.2 -81.25 -9.05 -84.95 L-3.45 -84.45 -4.1 -72.5 -6.2 -72.7 -5.75 -79.6 Q-5.75 -83.45 -6.8 -83.3 -7.85 -83.2 -8.05 -81.7 L-8.1 -79.4 -8.55 -75.05 -8.65 -72.9 -10.55 -73.1 -10.65 -73.15 M-17.45 -34.7 L-17.35 -35.1 -16.65 -37.25 -16.6 -37.5 -16.1 -38.8 -15.95 -39.15 -11.85 -37.6 -11.55 -35.1 Q-10.8 -28.3 -10.6 -25.1 L-17.9 -27.85 -17.45 -34.7 M-28.6 -15.45 L-28.5 -9.0 -29.95 -9.95 -29.2 -13.6 -28.6 -15.45 M-17.75 -15.0 L-17.8 -15.85 -17.6 -15.75 -17.75 -15.15 -17.75 -15.0 M-14.8 -14.7 L-10.85 -13.2 -10.9 -11.85 -11.15 -6.35 -11.25 -3.9 -11.7 -2.25 -11.75 -1.55 -15.1 -2.8 -14.85 -4.0 -14.8 -5.95 Q-14.65 -10.15 -14.8 -14.7" fill="#707070" fill-rule="evenodd" stroke="none"/>
    <path d="M18.3 -53.85 L16.2 -53.85 16.15 -54.1 6.3 -54.1 6.65 -60.05 16.55 -60.05 17.9 -58.4 18.5 -57.7 18.3 -53.85 M-5.1 -55.85 L-8.8 -55.85 -8.75 -55.65 -8.7 -54.0 -16.25 -54.0 -16.1 -56.85 -13.85 -56.85 -12.4 -56.85 -12.3 -58.6 -12.3 -58.85 -13.8 -58.85 Q-13.7 -61.75 -14.1 -60.35 -14.55 -58.65 -15.05 -58.9 L-15.1 -58.95 -15.75 -59.1 -15.75 -63.1 -10.55 -61.1 -4.85 -60.55 -5.1 -55.85 M7.55 -73.45 L8.2 -84.05 8.7 -84.05 Q8.8 -81.55 9.15 -79.2 9.45 -76.8 9.9 -74.6 L10.5 -72.05 7.9 -72.05 7.55 -73.45 M-10.65 -73.15 L-15.05 -74.8 -14.4 -85.1 -14.3 -85.65 -14.15 -86.45 -10.55 -85.1 -9.05 -84.95 Q-10.2 -81.25 -10.2 -78.7 -10.2 -76.7 -10.65 -74.85 L-10.65 -73.15 M7.95 -48.05 L5.9 -48.05 5.9 -48.25 7.15 -48.2 7.35 -48.15 7.55 -48.2 7.95 -48.05 M9.95 -36.05 L17.1 -36.05 16.3 -24.05 11.85 -24.05 10.8 -31.85 9.95 -36.0 9.95 -36.05 M-17.15 -39.6 L-15.95 -39.15 -16.1 -38.8 -16.6 -37.5 -16.65 -37.25 -17.35 -35.1 -17.45 -34.7 -17.45 -34.75 -17.15 -39.6 M-11.85 -37.6 L-10.55 -37.1 -6.25 -36.7 -7.0 -24.75 -10.55 -25.1 -10.6 -25.1 Q-10.8 -28.3 -11.55 -35.1 L-11.85 -37.6 M13.55 -12.05 L16.4 -12.05 16.65 -0.05 14.25 -0.05 14.35 -2.7 14.25 -5.3 13.9 -9.75 13.55 -12.05 M-9.5 -59.45 L-9.55 -58.8 -9.55 -58.6 -9.55 -58.25 -9.5 -59.45 M-10.85 -13.2 L-10.55 -13.1 -6.9 -12.8 -6.65 -0.75 -10.55 -1.1 -11.75 -1.55 -11.7 -2.25 -11.25 -3.9 -11.15 -6.35 -10.9 -11.85 -10.85 -13.2 M-29.7 -21.75 L-28.7 -21.05 -28.6 -15.45 -29.2 -13.6 -29.95 -9.95 -32.25 -11.45 -31.65 -14.15 -29.7 -21.75" fill="#444444" fill-rule="evenodd" stroke="none"/>
    <path d="M6.1 -50.9 L16.95 -51.0 17.15 -50.3 18.05 -50.3 17.9 -48.05 7.95 -48.05 7.55 -48.2 7.35 -48.15 7.15 -48.2 5.9 -48.25 6.1 -50.9 M-14.15 -86.45 L-14.3 -85.65 -14.4 -85.1 -14.4 -85.15 -14.35 -86.55 -14.15 -86.45 M-15.35 -50.9 L-15.3 -50.9 -5.35 -51.7 -5.55 -48.65 -10.55 -49.1 -15.35 -50.9 M-30.25 -34.15 L-28.6 -39.55 -28.4 -39.95 -28.35 -40.05 -28.8 -33.2 -30.25 -34.15 M-35.05 -13.35 L-32.9 -23.6 -32.85 -23.85 -29.7 -21.75 -31.65 -14.15 -32.25 -11.45 -35.05 -13.35 M-36.35 -2.2 L-32.1 0.65 -32.85 0.25 -34.8 -0.7 Q-35.85 -1.25 -36.35 -2.2" fill="#1a1a1a" fill-rule="evenodd" stroke="none"/>
    <path d="M4.05 -84.05 L4.35 -82.55 4.65 -78.8 5.35 -72.05 3.9 -72.05 Q3.2 -73.8 2.55 -77.5 L1.65 -84.05 4.05 -84.05 M4.35 -15.05 L4.4 -15.15 4.5 -15.45 6.0 -17.95 Q8.45 -20.55 9.55 -16.4 L9.7 -15.15 9.95 -12.05 4.4 -12.05 4.6 -2.55 4.5 -2.9 4.3 -3.55 4.3 -3.6 4.25 -3.75 3.9 -5.3 3.65 -9.65 3.65 -9.85 3.75 -12.05 4.4 -12.05 4.35 -15.05 M6.3 -0.05 L9.2 -0.05 Q8.55 0.35 7.65 0.35 6.9 0.35 6.3 -0.05 M-4.25 -96.3 L-2.7 -96.2 -2.9 -92.95 -4.35 -93.1 -4.4 -94.6 -4.3 -95.95 -4.25 -96.3 M-2.3 -72.3 Q-2.25 -73.45 -1.7 -74.65 -1.05 -76.05 -0.6 -73.8 L-0.45 -72.1 -0.55 -72.1 -2.3 -72.3 M-8.65 -72.9 L-6.2 -72.7 -6.25 -72.2 Q-6.9 -65.55 -7.4 -65.55 -8.35 -65.55 -8.6 -68.45 L-8.7 -71.4 -8.65 -72.9 M-18.9 -4.2 L-18.95 -4.95 -18.5 -10.2 -18.4 -10.6 -18.1 -13.05 -18.0 -13.5 -17.95 -13.8 -17.9 -14.1 -17.75 -15.0 -17.55 -3.7 -15.1 -2.8 Q-15.95 0.65 -17.35 0.6 L-17.45 0.6 -17.55 -3.7 -18.9 -4.2 M-17.6 -15.75 L-17.6 -15.95 Q-16.9 -18.85 -15.9 -18.5 -15.15 -18.25 -14.85 -16.15 L-14.8 -15.15 -14.8 -14.7 -17.6 -15.75" fill="#bfbfbf" fill-rule="evenodd" stroke="none"/>
    <path d="M5.95 -84.05 L6.15 -82.85 7.05 -75.95 7.55 -73.45 7.45 -72.05 7.9 -72.05 8.75 -69.15 Q9.3 -67.4 10.75 -64.75 L12.0 -62.3 11.55 -61.65 Q8.8 -62.4 6.9 -63.45 L7.45 -72.05 5.35 -72.05 4.65 -78.8 4.35 -82.55 4.05 -84.05 5.95 -84.05 M1.65 -84.05 L2.55 -77.5 Q3.2 -73.8 3.9 -72.05 L-0.05 -72.05 -0.45 -72.1 -0.6 -73.8 Q-1.05 -76.05 -1.7 -74.65 -2.25 -73.45 -2.3 -72.3 L-4.1 -72.5 -4.55 -65.35 -5.8 -63.45 Q-7.1 -61.65 -9.2 -61.65 -11.1 -61.65 -11.1 -62.6 L-10.7 -64.55 -10.65 -69.0 -10.65 -73.15 -10.55 -73.1 -8.65 -72.9 -8.7 -71.4 -8.6 -68.45 Q-8.35 -65.55 -7.4 -65.55 -6.9 -65.55 -6.25 -72.2 L-6.2 -72.7 -4.1 -72.5 -3.45 -84.45 -9.05 -84.95 -8.9 -85.45 Q-7.2 -90.8 -4.8 -90.2 -3.85 -88.5 -3.35 -86.15 L-3.45 -84.45 -3.0 -84.4 -3.0 -84.2 -2.3 -78.15 Q-1.6 -79.85 -1.15 -83.85 L-1.05 -84.2 -0.05 -84.05 1.65 -84.05 M5.65 -44.15 L5.7 -44.15 Q6.85 -43.9 7.85 -42.3 9.1 -39.5 9.95 -36.05 L5.1 -36.05 5.65 -44.15 M-15.95 -39.15 Q-13.75 -44.95 -12.6 -42.2 L-11.9 -38.0 -11.85 -37.6 -15.95 -39.15 M-0.1 -24.05 L0.05 -25.3 Q0.75 -30.55 1.7 -35.45 L1.85 -36.05 5.1 -36.05 4.3 -24.05 11.85 -24.05 12.15 -21.75 12.15 -21.55 13.1 -15.15 13.55 -12.05 9.95 -12.05 9.7 -15.15 9.55 -16.4 Q8.45 -20.55 6.0 -17.95 L4.5 -15.45 4.4 -15.15 4.35 -15.05 4.3 -24.05 -0.1 -24.05 M19.35 -24.15 L19.15 -25.45 Q18.65 -29.65 18.6 -32.4 18.55 -34.05 19.1 -34.15 L20.85 -24.2 19.35 -24.15 M-0.8 -12.1 L-0.55 -12.1 -0.05 -12.05 3.75 -12.05 3.65 -9.85 3.65 -9.65 3.9 -5.3 4.25 -3.75 4.3 -3.6 4.3 -3.55 4.5 -2.9 4.6 -2.55 4.65 -0.05 6.3 -0.05 Q6.9 0.35 7.65 0.35 8.55 0.35 9.2 -0.05 L14.25 -0.05 14.1 0.55 13.85 1.2 Q12.6 4.05 8.4 4.05 6.35 4.05 4.75 3.45 L4.65 -0.05 0.65 -0.05 Q-0.7 -2.35 -0.75 -4.9 L-0.75 -5.3 -0.75 -5.45 -0.8 -12.1 M20.55 -12.2 L23.0 -12.3 23.55 -8.5 Q24.0 -4.8 22.85 -4.8 21.45 -4.8 20.55 -12.2 M-4.25 -96.3 L-4.3 -95.95 -4.4 -94.6 -4.35 -93.1 -9.1 -93.7 -10.25 -93.9 -10.45 -93.95 -10.6 -94.0 -10.65 -94.0 -10.25 -97.0 -10.25 -97.05 -10.0 -97.0 -8.65 -96.75 -8.2 -96.7 -4.25 -96.3 M-19.1 -28.3 L-19.05 -28.45 -18.15 -32.15 -18.05 -32.55 -17.6 -34.2 -17.45 -34.7 -17.9 -27.85 -10.6 -25.1 -10.55 -24.05 Q-10.5 -21.2 -10.75 -15.15 L-10.85 -13.2 -14.8 -14.7 -14.8 -15.15 -14.85 -16.15 Q-15.15 -18.25 -15.9 -18.5 -16.9 -18.85 -17.6 -15.95 L-17.6 -15.75 -17.8 -15.85 -17.75 -15.0 -17.9 -14.1 -17.95 -13.8 -18.0 -13.5 -18.1 -13.05 -18.4 -10.6 -18.5 -10.2 -18.95 -4.95 -18.9 -4.2 -21.7 -5.25 -21.8 -10.3 Q-21.7 -13.4 -21.2 -17.1 L-17.8 -15.85 -18.05 -25.15 -17.9 -27.85 -19.1 -28.3 M-11.75 -1.55 Q-11.9 0.1 -12.25 0.95 L-12.5 1.35 Q-13.4 2.8 -16.2 3.55 L-17.4 3.5 -17.45 0.6 -17.35 0.6 Q-15.95 0.65 -15.1 -2.8 L-11.75 -1.55 M-24.9 -18.55 L-25.1 -17.55 -26.15 -11.15 Q-26.45 -9.4 -26.9 -7.9 L-28.5 -9.0 -28.6 -15.45 -27.3 -19.95 -27.25 -20.1 -24.9 -18.55 M-24.5 -30.35 Q-23.45 -34.05 -23.05 -31.25 L-23.05 -29.8 -24.5 -30.35 M-29.95 -9.95 L-28.5 -9.0 -28.4 -4.9 -29.05 -4.85 Q-30.0 -4.9 -30.0 -6.65 -30.25 -7.9 -29.95 -9.95" fill="#a0a0a0" fill-rule="evenodd" stroke="none"/>
    <path d="M20.65 -57.9 L22.2 -57.9 22.2 -53.85 18.3 -53.85 18.5 -57.7 18.95 -57.2 Q19.2 -56.9 19.65 -56.9 20.05 -56.9 20.35 -57.15 L20.65 -57.85 20.65 -57.9 M6.3 -54.1 L-3.05 -54.1 -3.05 -55.85 -5.1 -55.85 -4.85 -60.55 -10.55 -61.1 -15.75 -63.1 -15.05 -74.8 -10.65 -73.15 -10.65 -69.0 -10.7 -64.55 -11.1 -62.6 Q-11.1 -61.65 -9.2 -61.65 -7.1 -61.65 -5.8 -63.45 L-4.55 -65.35 -4.85 -60.55 -0.05 -60.05 6.65 -60.05 6.3 -54.1 M-16.25 -54.0 L-19.6 -54.0 -19.85 -53.7 -21.25 -53.7 -21.25 -55.85 -20.45 -55.85 -18.5 -55.85 -18.5 -56.1 -17.8 -56.1 -17.8 -56.85 -16.1 -56.85 -16.25 -54.0 M-15.75 -59.1 Q-16.25 -60.75 -16.85 -59.75 L-16.65 -62.55 -16.65 -63.45 -15.75 -63.1 -15.75 -59.1 M8.5 -87.9 Q8.5 -86.05 8.65 -84.3 L8.7 -84.05 8.2 -84.05 7.55 -73.45 7.05 -75.95 6.15 -82.85 5.95 -84.05 8.2 -84.05 8.5 -87.9 M7.9 -72.05 L10.5 -72.05 Q11.05 -70.0 11.85 -68.0 13.6 -63.8 16.55 -60.05 L6.65 -60.05 6.9 -63.45 Q8.8 -62.4 11.55 -61.65 L12.0 -62.3 10.75 -64.75 Q9.3 -67.4 8.75 -69.15 L7.9 -72.05 M21.4 -36.2 L22.65 -28.4 23.3 -24.3 20.85 -24.2 19.1 -34.15 Q18.55 -34.05 18.6 -32.4 18.65 -29.65 19.15 -25.45 L19.35 -24.15 16.3 -24.05 16.4 -12.05 13.55 -12.05 13.1 -15.15 12.15 -21.55 12.15 -21.75 11.85 -24.05 16.3 -24.05 17.1 -36.05 21.4 -36.2 M7.95 -48.05 L8.1 -47.95 Q10.55 -47.1 12.45 -44.05 14.3 -41.15 17.7 -44.75 L17.1 -36.05 9.95 -36.05 Q9.1 -39.5 7.85 -42.3 6.85 -43.9 5.7 -44.15 L5.65 -44.15 5.9 -48.05 7.95 -48.05 M5.9 -48.25 L5.9 -48.05 2.1 -48.05 5.9 -48.25 M-5.85 -43.55 L-6.25 -36.7 -0.05 -36.05 1.85 -36.05 1.7 -35.45 Q0.75 -30.55 0.05 -25.3 L-0.1 -24.05 -7.0 -24.75 -6.25 -36.7 -10.55 -37.1 -11.85 -37.6 -11.9 -38.0 -12.6 -42.2 Q-13.75 -44.95 -15.95 -39.15 L-17.15 -39.6 -16.75 -45.7 -15.5 -46.55 Q-11.4 -47.4 -10.25 -45.95 -7.6 -43.3 -6.3 -43.45 L-6.25 -43.45 -5.85 -43.55 M23.0 -12.3 L24.85 -12.4 24.95 -9.4 Q25.05 -4.6 24.8 -2.15 L24.6 -0.35 16.65 -0.05 16.75 3.55 16.05 3.85 15.0 4.45 14.8 4.55 Q11.75 6.45 8.8 6.65 L4.8 6.15 4.75 3.45 Q6.35 4.05 8.4 4.05 12.6 4.05 13.85 1.2 L14.1 0.55 14.25 -0.05 16.65 -0.05 16.4 -12.05 20.55 -12.2 Q21.45 -4.8 22.85 -4.8 24.0 -4.8 23.55 -8.5 L23.0 -12.3 M-10.25 -97.05 L-10.25 -97.0 -10.65 -94.0 -12.35 -94.4 -13.8 -94.8 -13.6 -97.75 -11.8 -97.35 -10.65 -97.1 -10.55 -97.1 -10.4 -97.05 -10.25 -97.05 M-14.15 -86.45 Q-12.8 -92.55 -11.05 -92.55 L-3.0 -91.95 -3.35 -86.15 Q-3.85 -88.5 -4.8 -90.2 -7.2 -90.8 -8.9 -85.45 L-9.05 -84.95 -10.55 -85.1 -14.15 -86.45 M-14.4 -85.15 L-14.4 -85.1 -15.05 -74.8 -15.85 -75.1 -15.4 -78.9 -14.4 -85.15 M-3.0 -84.4 L-1.05 -84.2 -1.15 -83.85 Q-1.6 -79.85 -2.3 -78.15 L-3.0 -84.2 -3.0 -84.4 M-24.0 -42.15 L-17.15 -39.6 -17.45 -34.75 -17.45 -34.7 -17.6 -34.2 -18.05 -32.55 -18.15 -32.15 -19.05 -28.45 -19.1 -28.3 -23.05 -29.8 -23.05 -31.25 Q-23.45 -34.05 -24.5 -30.35 L-24.55 -30.35 -27.0 -32.0 -25.65 -37.3 -24.0 -42.15 M-10.6 -25.1 L-10.55 -25.1 -7.0 -24.75 -6.9 -12.8 -0.8 -12.1 -0.75 -5.45 -0.75 -5.3 -0.75 -4.9 Q-0.7 -2.35 0.65 -0.05 L-6.65 -0.75 -6.55 4.3 -8.0 4.6 Q-11.85 5.55 -15.65 5.5 L-17.4 5.4 -17.4 3.5 -16.2 3.55 Q-13.4 2.8 -12.5 1.35 L-12.25 0.95 Q-11.9 0.1 -11.75 -1.55 L-10.55 -1.1 -6.65 -0.75 -6.9 -12.8 -10.55 -13.1 -10.85 -13.2 -10.75 -15.15 Q-10.5 -21.2 -10.55 -24.05 L-10.6 -25.1 M-24.9 -18.55 L-24.55 -18.35 -21.2 -17.1 Q-21.7 -13.4 -21.8 -10.3 L-21.7 -5.25 -24.55 -6.35 -26.9 -7.9 Q-26.45 -9.4 -26.15 -11.15 L-25.1 -17.55 -24.9 -18.55 M-28.7 -25.5 L-28.7 -21.05 -27.25 -20.1 -27.3 -19.95 -28.6 -15.45 -28.7 -21.05 -29.7 -21.75 -29.2 -23.75 -28.85 -25.05 -28.7 -25.5 M-28.4 -4.9 L-28.35 -1.55 Q-30.75 -2.1 -31.8 -4.2 L-31.9 -4.55 Q-32.9 -7.5 -32.25 -11.45 L-29.95 -9.95 Q-30.25 -7.9 -30.0 -6.65 -30.0 -4.9 -29.05 -4.85 L-28.4 -4.9" fill="#747474" fill-rule="evenodd" stroke="none"/>
    <path d="M-4.0 -50.8 L6.1 -50.9 5.9 -48.25 2.1 -48.05 -0.05 -48.05 -5.55 -48.65 -5.85 -43.55 -6.25 -43.45 -6.3 -43.45 Q-7.6 -43.3 -10.25 -45.95 -11.4 -47.4 -15.5 -46.55 L-16.75 -45.7 -16.45 -50.8 -15.35 -50.9 -10.55 -49.1 -5.55 -48.65 -5.35 -51.7 -5.0 -51.75 -4.0 -50.8 M18.05 -50.3 L18.7 -50.35 18.7 -50.3 19.55 -48.1 17.9 -48.05 17.7 -44.75 Q14.3 -41.15 12.45 -44.05 10.55 -47.1 8.1 -47.95 L7.95 -48.05 17.9 -48.05 18.05 -50.3 M21.4 -36.2 L23.15 -36.3 Q24.6 -30.4 25.55 -24.4 L23.3 -24.3 22.65 -28.4 21.4 -36.2 M24.85 -12.4 L26.75 -12.45 26.85 -8.8 26.75 -0.45 24.6 -0.35 24.8 -2.15 Q25.05 -4.6 24.95 -9.4 L24.85 -12.4 M4.8 6.15 L8.8 6.65 Q11.75 6.45 14.8 4.55 L15.0 4.45 16.05 3.85 16.75 3.55 16.8 7.3 15.9 7.75 Q12.7 9.5 10.2 9.65 L5.8 9.6 5.7 9.6 4.85 9.45 4.8 6.15 M-10.65 -94.0 L-10.6 -94.0 -10.45 -93.95 -10.25 -93.9 -9.1 -93.7 -4.35 -93.1 -2.9 -92.95 -3.0 -91.95 -11.05 -92.55 Q-12.8 -92.55 -14.15 -86.45 L-14.35 -86.55 -14.4 -85.15 -15.4 -78.9 -15.85 -75.1 -20.4 -77.0 -20.25 -77.85 -18.45 -86.7 -18.2 -87.95 -14.35 -86.55 -13.8 -94.8 -12.35 -94.4 -10.65 -94.0 M-16.85 -59.75 L-22.55 -63.9 -22.25 -65.85 -16.65 -63.45 -16.65 -62.55 -16.85 -59.75 M-6.55 4.3 L-6.5 7.1 -10.1 7.4 -10.3 7.4 -15.9 7.75 -17.35 7.6 -17.4 5.4 -15.65 5.5 Q-11.85 5.55 -8.0 4.6 L-6.55 4.3 M-27.05 -44.0 L-24.55 -42.35 -24.0 -42.15 -25.65 -37.3 -27.0 -32.0 -28.8 -33.2 -28.35 -40.05 -28.35 -40.1 -27.05 -44.0 M-32.85 -23.85 L-32.7 -24.6 -32.65 -24.65 -32.65 -24.75 -30.25 -34.15 -28.8 -33.2 -28.7 -25.5 -28.85 -25.05 -29.2 -23.75 -29.7 -21.75 -32.85 -23.85 M-32.25 -11.45 Q-32.9 -7.5 -31.9 -4.55 L-31.8 -4.2 Q-30.75 -2.1 -28.35 -1.55 L-28.25 2.45 -29.85 1.7 -29.9 1.65 -30.3 1.45 -31.9 0.7 -32.1 0.65 -36.35 -2.2 -36.75 -3.45 -36.7 -3.85 Q-36.55 -5.95 -35.05 -13.35 L-32.25 -11.45" fill="#4a4a4a" fill-rule="evenodd" stroke="none"/>
    <path d="M10.45 -96.05 L10.35 -93.0 10.35 -92.1 Q10.35 -87.85 10.65 -84.05 L8.7 -84.05 8.65 -84.3 Q8.5 -86.05 8.5 -87.9 L8.5 -88.0 9.0 -96.05 8.45 -96.05 7.65 -96.05 7.05 -96.05 -0.05 -96.05 -2.7 -96.35 -2.7 -96.2 -4.25 -96.3 -8.2 -96.7 -8.65 -96.75 -10.0 -97.0 -2.7 -96.35 -2.6 -97.7 3.9 -97.5 5.15 -97.5 5.95 -97.5 7.05 -97.5 8.5 -97.55 8.5 -97.6 9.1 -97.6 9.0 -96.05 10.45 -96.05 M12.55 -72.05 L13.6 -69.05 13.7 -68.9 18.6 -60.6 18.7 -60.5 18.7 -60.45 18.65 -60.05 19.05 -60.05 19.35 -59.7 20.1 -58.85 20.4 -58.55 20.65 -57.9 20.65 -57.85 20.35 -57.15 Q20.05 -56.9 19.65 -56.9 19.2 -56.9 18.95 -57.2 L18.5 -57.7 18.65 -60.05 16.55 -60.05 Q13.6 -63.8 11.85 -68.0 11.05 -70.0 10.5 -72.05 L12.55 -72.05 M-16.85 -59.75 L-24.75 -60.5 -23.7 -66.45 -22.25 -65.85 -22.55 -63.9 -16.85 -59.75 M-21.75 -77.55 L-19.8 -88.55 -18.2 -87.95 -18.45 -86.7 -20.25 -77.85 -20.4 -77.0 -21.75 -77.55 M-19.25 -100.35 L-18.7 -101.75 -18.7 -101.8 Q-18.6 -102.65 -17.3 -103.35 L-17.25 -103.4 -17.35 -103.2 -17.5 -102.85 Q-17.8 -102.0 -17.6 -101.4 L-17.65 -101.3 -17.55 -101.15 -17.0 -100.65 -16.5 -100.35 -15.55 -99.9 -13.5 -99.3 -13.6 -98.25 -10.55 -97.1 -10.65 -97.1 -11.8 -97.35 -13.6 -97.75 -13.6 -98.25 -19.25 -100.35 M6.25 -53.35 L6.1 -50.9 -4.0 -50.8 -4.05 -53.35 -0.2 -53.35 6.25 -53.35 M18.05 -50.3 L18.25 -53.15 22.2 -53.2 22.2 -50.4 21.0 -50.0 21.6 -48.2 19.55 -48.1 18.7 -50.3 18.7 -50.35 18.05 -50.3 M25.2 -36.35 Q26.65 -30.45 27.55 -24.45 L25.55 -24.4 Q24.6 -30.4 23.15 -36.3 L25.2 -36.35 M28.45 -16.7 L28.6 -15.05 28.75 -12.55 28.4 -12.55 28.65 -0.55 28.8 -0.55 28.75 0.55 28.7 1.3 28.65 -0.55 26.75 -0.45 26.85 -8.8 26.75 -12.45 28.4 -12.55 28.35 -17.65 28.45 -16.7 M16.85 9.25 L16.8 9.25 16.8 9.3 Q13.1 11.3 10.3 11.4 L5.7 11.35 5.65 11.35 4.9 11.25 4.85 9.45 5.7 9.6 5.8 9.6 10.2 9.65 Q12.7 9.5 15.9 7.75 L16.8 7.3 16.85 9.25 M-6.5 8.65 L-9.85 8.9 -14.95 9.25 -17.35 8.35 -17.35 7.6 -15.9 7.75 -10.3 7.4 -10.1 7.4 -6.5 7.1 -6.5 8.65 M-17.3 9.15 L-18.4 8.95 -18.7 8.9 -18.8 8.85 -22.35 7.85 Q-23.85 7.35 -25.4 6.15 L-25.4 6.1 -27.5 4.55 -27.7 4.45 -28.0 4.25 -28.2 4.1 -28.25 3.15 -32.1 0.65 -31.9 0.7 -30.3 1.45 -29.9 1.65 -29.85 1.7 -28.25 2.45 -28.25 3.15 -24.55 5.65 -17.35 8.35 -17.3 9.15 M-38.3 -3.45 L-38.3 -3.5 -38.35 -3.9 -38.25 -5.0 -37.0 -12.8 -36.95 -13.0 -36.9 -13.3 -36.85 -13.4 -36.65 -14.4 -35.05 -13.35 Q-36.55 -5.95 -36.7 -3.85 L-36.75 -3.45 -36.35 -2.2 -38.3 -3.45 M-34.5 -25.05 L-34.5 -25.25 -34.25 -26.4 -34.2 -26.4 -34.0 -27.4 -32.3 -34.3 -32.0 -35.3 -30.25 -34.15 -32.65 -24.75 -32.65 -24.65 -32.7 -24.6 -32.85 -23.85 -34.5 -24.95 -34.5 -25.05 M-28.95 -45.25 L-27.8 -48.65 -28.05 -44.65 -27.05 -44.0 -28.35 -40.1 -28.05 -44.65 -28.95 -45.25 M-20.2 -52.7 L-20.15 -53.0 -17.45 -52.95 -16.35 -52.9 -16.45 -51.3 -15.35 -50.9 -16.45 -50.8 -16.45 -51.3 -20.2 -52.7 M-5.35 -51.8 L-5.0 -51.75 -5.35 -51.7 -5.35 -51.8" fill="#161616" fill-rule="evenodd" stroke="none"/>
  </g>
</svg>
