<?xml version="1.0" encoding="UTF-8" standalone="no"?>
<svg xmlns:ffdec="https://www.free-decompiler.com/flash" xmlns:xlink="http://www.w3.org/1999/xlink" ffdec:objectType="shape" height="33.05px" width="30.65px" xmlns="http://www.w3.org/2000/svg">
  <g transform="matrix(1.0, 0.0, 0.0, 1.0, 17.7, 130.4)">
    <path d="M7.5 -120.95 L7.55 -120.85 9.35 -118.35 Q7.65 -111.65 7.05 -104.85 L6.8 -100.95 4.25 -100.9 4.45 -104.85 Q4.95 -111.7 6.85 -118.6 L7.5 -120.95" fill="#b4b4b4" fill-rule="evenodd" stroke="none"/>
    <path d="M7.5 -120.95 L7.7 -121.55 8.25 -123.35 8.35 -123.55 8.7 -124.6 8.8 -124.9 8.9 -125.2 9.6 -127.0 9.7 -127.25 9.75 -127.5 Q11.9 -127.45 11.55 -125.75 10.3 -122.2 9.4 -118.6 L9.35 -118.35 7.55 -120.85 7.5 -120.95 M6.8 -100.95 L6.8 -100.35 6.75 -97.85 4.25 -97.85 4.25 -100.9 6.8 -100.95" fill="#8a8a8a" fill-rule="evenodd" stroke="none"/>
    <path d="M9.35 -118.35 L9.4 -118.6 Q10.3 -122.2 11.55 -125.75 11.9 -127.45 9.75 -127.5 L9.7 -127.25 9.6 -127.0 8.9 -125.2 8.8 -124.9 8.7 -124.6 8.35 -123.55 8.25 -123.35 7.7 -121.55 7.5 -120.95 6.85 -118.6 Q4.95 -111.7 4.45 -104.85 L4.25 -100.9 4.25 -97.85 6.75 -97.85 6.8 -100.35 6.8 -100.95 7.05 -104.85 Q7.65 -111.65 9.35 -118.35 M9.25 -130.4 Q13.2 -127.8 12.95 -124.6 L11.3 -118.6 Q9.45 -110.85 9.15 -104.85 8.95 -100.8 9.5 -97.6 L8.5 -97.6 8.5 -97.55 7.05 -97.5 5.95 -97.5 5.15 -97.5 3.9 -97.5 2.2 -97.5 2.2 -97.7 2.2 -97.85 3.0 -104.85 Q3.95 -112.4 5.45 -118.6 7.05 -125.3 9.25 -130.4" fill="#464646" fill-rule="evenodd" stroke="none"/>
    <path d="M-11.95 -100.0 L-9.55 -103.3 -8.65 -104.15 -7.65 -104.8 Q-5.45 -102.6 -3.95 -98.8 L-3.65 -98.45 -3.25 -98.45 -2.9 -98.8 Q-1.75 -101.9 1.55 -103.7 3.85 -101.9 5.55 -98.15 L5.7 -98.25 5.85 -98.35 5.85 -97.5 5.6 -97.5 5.15 -97.5 4.0 -99.4 Q2.45 -102.15 1.75 -102.15 0.85 -102.15 -1.35 -99.95 L-3.45 -97.8 Q-3.75 -97.8 -5.3 -99.7 -6.9 -101.65 -7.5 -102.75 -8.05 -101.7 -9.45 -100.65 -10.65 -99.8 -10.95 -99.8 L-11.95 -100.0 M2.2 -99.6 L2.05 -98.95 1.5 -98.4 Q0.7 -98.4 0.4 -99.05 L0.2 -99.8 Q0.2 -101.05 1.2 -100.9 2.2 -100.8 2.2 -99.6 M-6.85 -99.55 Q-6.85 -99.2 -7.0 -98.9 -7.3 -98.45 -7.75 -98.45 -8.35 -98.45 -8.6 -99.05 L-8.65 -99.55 Q-8.65 -100.9 -7.75 -100.75 -6.85 -100.55 -6.85 -99.55" fill="#ffffff" fill-rule="evenodd" stroke="none"/>
    <path d="M-16.75 -101.45 L-16.35 -102.45 -16.0 -102.55 Q-15.3 -102.55 -15.3 -101.45 -15.3 -101.1 -15.45 -100.8 -15.7 -100.45 -16.05 -100.45 -16.55 -100.45 -16.7 -100.9 L-16.75 -101.45 M-13.65 -103.95 Q-13.2 -102.35 -13.05 -100.25 L-12.9 -99.85 -12.7 -99.65 -12.9 -99.65 Q-13.8 -99.65 -14.25 -100.5 L-14.55 -101.35 Q-14.55 -102.85 -13.65 -103.95" fill="#e0e0e0" fill-rule="evenodd" stroke="none"/>
    <path d="M-15.3 -104.7 L-14.5 -106.1 -13.75 -104.25 -13.65 -103.95 Q-14.55 -102.85 -14.55 -101.35 L-14.25 -100.5 Q-13.8 -99.65 -12.9 -99.65 L-12.7 -99.65 -12.6 -99.6 -12.25 -99.65 -12.0 -99.9 -11.95 -100.0 -10.95 -99.8 Q-10.65 -99.8 -9.45 -100.65 -8.05 -101.7 -7.5 -102.75 -6.9 -101.65 -5.3 -99.7 -3.75 -97.8 -3.45 -97.8 L-1.35 -99.95 Q0.85 -102.15 1.75 -102.15 2.45 -102.15 4.0 -99.4 L5.15 -97.5 Q1.35 -97.3 -0.8 -97.4 L-6.15 -97.75 Q-9.3 -97.95 -11.6 -98.85 -13.55 -98.95 -15.55 -99.9 L-15.4 -100.35 -14.4 -102.75 -14.95 -103.65 -15.3 -104.7 M2.2 -99.6 Q2.2 -100.8 1.2 -100.9 0.2 -101.05 0.2 -99.8 L0.4 -99.05 Q0.7 -98.4 1.5 -98.4 L2.05 -98.95 2.2 -99.6 M-6.85 -99.55 Q-6.85 -100.55 -7.75 -100.75 -8.65 -100.9 -8.65 -99.55 L-8.6 -99.05 Q-8.35 -98.45 -7.75 -98.45 -7.3 -98.45 -7.0 -98.9 -6.85 -99.2 -6.85 -99.55" fill="#b4b4b4" fill-rule="evenodd" stroke="none"/>
    <path d="M-17.0 -100.65 L-16.75 -101.45 -16.7 -100.9 Q-16.55 -100.45 -16.05 -100.45 -15.7 -100.45 -15.45 -100.8 -15.3 -101.1 -15.3 -101.45 -15.3 -102.55 -16.0 -102.55 L-16.35 -102.45 -15.3 -104.7 -14.95 -103.65 -14.4 -102.75 -15.4 -100.35 -15.55 -99.9 -16.5 -100.35 -17.0 -100.65" fill="#8a8a8a" fill-rule="evenodd" stroke="none"/>
    <path d="M-17.0 -100.65 L-17.55 -101.15 -17.65 -101.3 -17.6 -101.4 Q-17.8 -102.0 -17.5 -102.85 L-17.35 -103.2 -17.25 -103.4 -17.3 -103.35 Q-16.1 -106.25 -14.8 -107.8 L-14.55 -107.95 -14.25 -107.95 -13.95 -107.7 Q-12.65 -105.65 -12.15 -102.2 -10.3 -105.05 -7.75 -106.35 L-7.5 -106.4 -7.25 -106.25 Q-5.05 -104.2 -3.4 -100.65 -1.95 -103.5 1.4 -105.25 L1.6 -105.3 1.9 -105.2 Q4.35 -103.35 5.85 -100.5 L5.85 -98.35 5.7 -98.25 5.55 -98.15 Q3.85 -101.9 1.55 -103.7 -1.75 -101.9 -2.9 -98.8 L-3.25 -98.45 -3.65 -98.45 -3.95 -98.8 Q-5.45 -102.6 -7.65 -104.8 L-8.65 -104.15 -9.55 -103.3 -11.95 -100.0 -12.0 -99.9 -12.25 -99.65 -12.6 -99.6 -12.7 -99.65 -12.9 -99.85 -13.05 -100.25 Q-13.2 -102.35 -13.65 -103.95 L-13.75 -104.25 -14.5 -106.1 -15.3 -104.7 -16.35 -102.45 -16.75 -101.45 -17.0 -100.65" fill="#464646" fill-rule="evenodd" stroke="none"/>
  </g>
</svg>
