<?xml version="1.0" encoding="UTF-8" standalone="no"?>
<svg xmlns:ffdec="https://www.free-decompiler.com/flash" xmlns:xlink="http://www.w3.org/1999/xlink" ffdec:objectType="shape" height="56.55px" width="40.4px" xmlns="http://www.w3.org/2000/svg">
  <g transform="matrix(1.0, 0.0, 0.0, 1.0, 20.6, 4.3)">
    <path d="M7.35 12.25 L7.45 11.9 8.55 11.9 Q9.5 12.45 10.6 14.6 11.55 16.55 11.55 17.3 L11.25 18.5 10.8 18.95 Q8.5 17.95 7.65 15.5 L7.2 13.15 Q7.2 12.6 7.35 12.25 M3.4 6.95 L3.65 6.45 4.25 6.2 Q4.6 6.2 4.85 6.45 L5.1 7.0 4.85 7.6 4.25 7.75 3.65 7.55 3.4 6.95 M0.1 2.9 L0.85 2.85 1.8 3.8 Q2.8 5.2 3.35 7.95 3.7 9.95 3.65 11.75 3.65 14.3 2.7 16.3 1.95 17.7 1.35 18.1 L-1.8 20.3 -4.25 20.5 -4.8 20.2 -5.4 19.85 -5.8 19.65 Q-6.65 19.15 -6.85 19.15 -7.5 19.1 -7.9 19.55 L-8.3 20.0 -6.6 20.7 -6.35 20.85 -6.0 21.4 -5.85 22.35 -5.85 22.4 -5.8 23.1 Q-5.8 24.1 -6.3 24.7 L-6.95 25.25 -8.5 25.55 -9.35 25.4 -9.85 25.25 -10.0 25.2 -10.95 24.8 -11.3 24.35 -11.6 23.35 -11.55 22.8 -11.55 22.75 -11.3 21.95 -10.9 21.55 Q-10.2 21.2 -10.2 20.05 L-10.5 19.65 -10.85 19.45 -11.1 18.95 -10.95 16.85 -10.7 15.1 -10.2 13.1 Q-9.75 11.4 -8.9 9.85 L-7.7 7.6 -7.65 7.55 Q-6.6 5.8 -5.75 4.8 L-4.35 3.4 -3.85 3.2 -2.5 4.6 -1.75 5.6 -1.1 6.4 0.45 8.55 0.1 5.35 Q-0.1 3.3 0.1 2.9 M3.7 20.15 Q4.55 20.95 4.55 22.1 4.55 23.25 3.7 24.05 2.85 24.75 1.65 24.65 0.45 24.55 -0.4 23.75 L-0.9 23.1 -1.2 22.15 -1.25 21.75 Q-1.25 20.6 -0.4 19.9 0.45 19.1 1.65 19.2 2.85 19.25 3.7 20.15" fill="#dda975" fill-rule="evenodd" stroke="none"/>
    <path d="M1.75 -1.35 Q2.35 -1.85 2.9 -1.85 3.9 -1.85 5.5 0.5 7.25 3.1 9.9 8.85 14.6 19.0 14.6 20.8 14.55 21.65 13.95 22.6 13.25 23.65 12.2 23.6 10.65 23.5 9.0 21.45 7.35 19.3 5.9 15.55 L6.75 19.4 7.5 23.55 Q7.5 25.1 5.8 26.15 4.05 27.15 1.6 27.0 0.55 26.9 -0.75 25.65 L-1.25 25.1 -2.7 23.35 -2.75 23.35 -3.4 23.4 -3.4 23.6 -3.4 23.65 -3.45 23.8 Q-4.15 25.75 -5.2 26.25 L-6.2 26.8 -7.3 27.5 -10.35 27.9 -10.45 27.85 Q-11.4 27.75 -11.9 26.85 L-12.05 25.75 -12.1 25.3 -12.15 24.4 -12.15 24.3 -12.15 22.85 -12.15 22.75 Q-12.0 20.15 -11.5 17.65 L-11.05 15.4 -8.85 5.05 Q-7.4 2.85 -5.7 1.4 L-4.45 0.4 -4.35 0.35 Q-1.95 -0.95 0.55 -0.95 L1.75 -1.35 M0.1 2.9 Q-0.1 3.3 0.1 5.35 L0.45 8.55 -1.1 6.4 -1.75 5.6 -2.5 4.6 -3.85 3.2 -4.35 3.4 -5.75 4.8 Q-6.6 5.8 -7.65 7.55 L-7.7 7.6 -8.9 9.85 Q-9.75 11.4 -10.2 13.1 L-10.7 15.1 -10.95 16.85 -11.1 18.95 -10.85 19.45 -10.5 19.65 -10.2 20.05 Q-10.2 21.2 -10.9 21.55 L-11.3 21.95 -11.55 22.75 -11.55 22.8 -11.6 23.35 -11.3 24.35 -10.95 24.8 -10.0 25.2 -9.85 25.25 -9.35 25.4 -8.5 25.55 -6.95 25.25 -6.3 24.7 Q-5.8 24.1 -5.8 23.1 L-5.85 22.4 -5.85 22.35 -6.0 21.4 -6.35 20.85 -6.6 20.7 -8.3 20.0 -7.9 19.55 Q-7.5 19.1 -6.85 19.15 -6.65 19.15 -5.8 19.65 L-5.4 19.85 -4.8 20.2 -4.25 20.5 -1.8 20.3 1.35 18.1 Q1.95 17.7 2.7 16.3 3.65 14.3 3.65 11.75 3.7 9.95 3.35 7.95 2.8 5.2 1.8 3.8 L0.85 2.85 0.1 2.9 M3.4 6.95 L3.65 7.55 4.25 7.75 4.85 7.6 5.1 7.0 4.85 6.45 Q4.6 6.2 4.25 6.2 L3.65 6.45 3.4 6.95 M7.35 12.25 Q7.2 12.6 7.2 13.15 L7.65 15.5 Q8.5 17.95 10.8 18.95 L11.25 18.5 11.55 17.3 Q11.55 16.55 10.6 14.6 9.5 12.45 8.55 11.9 L7.45 11.9 7.35 12.25 M3.7 20.15 Q2.85 19.25 1.65 19.2 0.45 19.1 -0.4 19.9 -1.25 20.6 -1.25 21.75 L-1.2 22.15 -0.9 23.1 -0.4 23.75 Q0.45 24.55 1.65 24.65 2.85 24.75 3.7 24.05 4.55 23.25 4.55 22.1 4.55 20.95 3.7 20.15 M-8.35 33.7 Q-7.8 34.45 -7.8 35.6 L-8.05 37.4 -8.7 40.5 Q-9.5 44.65 -10.8 46.15 -11.65 47.05 -12.9 47.05 -14.0 47.05 -15.1 46.25 -16.6 45.15 -16.6 42.95 -16.6 37.2 -14.0 34.45 -12.35 32.7 -10.6 32.7 -9.1 32.7 -8.35 33.7 M-18.15 11.95 Q-12.8 4.95 -12.35 4.95 -12.85 10.95 -13.2 11.6 -13.65 12.4 -16.15 12.4 -18.0 12.4 -18.15 11.95" fill="#d59d6b" fill-rule="evenodd" stroke="none"/>
    <path d="M1.75 -1.35 L0.55 -0.95 Q-1.95 -0.95 -4.35 0.35 L-4.45 0.4 -5.7 1.4 Q-7.4 2.85 -8.85 5.05 L-11.05 15.4 -11.5 17.65 Q-12.0 20.15 -12.15 22.75 L-12.15 22.85 -12.15 24.3 -12.15 24.4 -12.1 25.3 -12.05 25.75 -11.9 26.85 Q-11.4 27.75 -10.45 27.85 L-10.35 27.9 -7.3 27.5 -6.2 26.8 -5.2 26.25 Q-4.15 25.75 -3.45 23.8 L-3.4 23.65 -3.4 23.6 -3.4 23.4 -2.75 23.35 -2.7 23.35 -1.25 25.1 -0.75 25.65 Q0.55 26.9 1.6 27.0 4.05 27.15 5.8 26.15 7.5 25.1 7.5 23.55 L6.75 19.4 5.9 15.55 Q7.35 19.3 9.0 21.45 10.65 23.5 12.2 23.6 13.25 23.65 13.95 22.6 14.55 21.65 14.6 20.8 14.6 19.0 9.9 8.85 7.25 3.1 5.5 0.5 3.9 -1.85 2.9 -1.85 2.35 -1.85 1.75 -1.35 M1.55 -4.2 L3.7 -2.85 6.8 -0.7 Q13.85 4.2 18.25 20.95 17.15 27.05 12.5 26.7 11.95 26.65 11.45 26.15 10.85 25.6 10.35 25.6 L7.75 27.9 Q5.05 30.15 2.35 29.95 1.05 29.8 -0.55 28.65 L-0.95 28.35 -2.75 26.75 Q-3.25 27.75 -4.75 29.15 L-5.0 29.35 -5.4 29.7 Q-6.55 30.7 -8.0 31.35 L-6.55 31.25 -4.5 30.5 -4.5 30.6 Q-5.4 32.45 -6.15 36.45 L-7.35 43.25 Q-9.15 51.3 -14.0 51.3 -16.1 51.3 -17.45 50.0 -18.85 48.65 -18.85 46.05 -18.85 43.45 -16.9 37.75 -15.0 32.0 -14.6 29.7 L-14.55 29.35 -13.85 25.2 -13.5 22.85 -12.25 16.8 -11.7 8.65 -13.15 15.2 -13.95 15.0 -15.75 15.05 -14.45 15.55 Q-14.0 15.65 -13.4 16.15 L-14.8 22.45 -15.95 21.25 Q-19.6 17.25 -19.6 12.5 -19.6 11.7 -17.0 8.85 L-12.6 3.8 Q-11.75 2.45 -8.1 -0.85 -5.5 -3.3 -4.35 -3.95 L-3.7 -4.2 -1.1 -4.3 1.55 -4.2 M-18.15 11.95 Q-18.0 12.4 -16.15 12.4 -13.65 12.4 -13.2 11.6 -12.85 10.95 -12.35 4.95 -12.8 4.95 -18.15 11.95 M-8.35 33.7 Q-9.1 32.7 -10.6 32.7 -12.35 32.7 -14.0 34.45 -16.6 37.2 -16.6 42.95 -16.6 45.15 -15.1 46.25 -14.0 47.05 -12.9 47.05 -11.65 47.05 -10.8 46.15 -9.5 44.65 -8.7 40.5 L-8.05 37.4 -7.8 35.6 Q-7.8 34.45 -8.35 33.7" fill="#c68758" fill-rule="evenodd" stroke="none"/>
    <path d="M1.55 -4.2 Q3.6 -3.75 5.3 -2.95 L7.75 -1.5 Q14.05 3.25 17.3 11.6 19.8 17.9 19.8 22.8 19.8 24.15 18.95 25.35 17.95 26.75 15.65 28.35 L13.1 28.5 10.9 28.1 Q7.65 31.75 5.75 31.65 2.5 31.65 -0.45 30.6 L-2.55 29.7 -2.75 29.6 -2.95 29.7 -3.3 30.25 -4.0 32.35 -4.75 36.05 Q-5.95 46.75 -9.05 50.25 -10.85 52.25 -14.7 52.25 -16.45 52.25 -18.45 51.1 -20.5 49.9 -20.1 45.0 -19.7 40.05 -17.5 35.25 -16.5 32.7 -16.0 29.7 L-15.15 24.2 -16.2 23.0 -17.85 20.55 Q-20.6 15.8 -20.6 12.45 -20.6 10.75 -18.8 8.85 L-12.25 2.1 Q-8.05 -2.4 -4.35 -3.95 -5.5 -3.3 -8.1 -0.85 -11.75 2.45 -12.6 3.8 L-17.0 8.85 Q-19.6 11.7 -19.6 12.5 -19.6 17.25 -15.95 21.25 L-14.8 22.45 -13.4 16.15 Q-14.0 15.65 -14.45 15.55 L-15.75 15.05 -13.95 15.0 -13.15 15.2 -11.7 8.65 -12.25 16.8 -13.5 22.85 -13.85 25.2 -14.55 29.35 -14.6 29.7 Q-15.0 32.0 -16.9 37.75 -18.85 43.45 -18.85 46.05 -18.85 48.65 -17.45 50.0 -16.1 51.3 -14.0 51.3 -9.15 51.3 -7.35 43.25 L-6.15 36.45 Q-5.4 32.45 -4.5 30.6 L-4.5 30.5 -6.55 31.25 -8.0 31.35 Q-6.55 30.7 -5.4 29.7 L-5.0 29.35 -4.75 29.15 Q-3.25 27.75 -2.75 26.75 L-0.95 28.35 -0.55 28.65 Q1.05 29.8 2.35 29.95 5.05 30.15 7.75 27.9 L10.35 25.6 Q10.85 25.6 11.45 26.15 11.95 26.65 12.5 26.7 17.15 27.05 18.25 20.95 13.85 4.2 6.8 -0.7 L3.7 -2.85 1.55 -4.2" fill="#7e4d2d" fill-rule="evenodd" stroke="none"/>
  </g>
</svg>
