<?xml version="1.0" encoding="UTF-8" standalone="no"?>
<svg xmlns:ffdec="https://www.free-decompiler.com/flash" xmlns:xlink="http://www.w3.org/1999/xlink" ffdec:objectType="shape" height="51.95px" width="77.95px" xmlns="http://www.w3.org/2000/svg">
  <g transform="matrix(1.0, 0.0, 0.0, 1.0, 60.3, 16.55)">
    <path d="M16.35 -16.35 L16.45 15.75 -16.9 15.75 -17.0 -16.55 16.35 -16.35 M10.0 -13.1 L10.05 -13.0 10.15 -13.0 10.0 -13.1 M9.4 -7.95 L9.5 -8.05 9.4 -8.4 9.4 -8.5 9.3 -8.75 9.25 -8.85 8.95 -9.2 8.85 -9.05 8.8 -8.95 9.0 -8.4 9.4 -7.95 M2.45 -12.65 L2.6 -12.15 3.0 -11.4 3.4 -10.95 Q3.8 -10.65 3.95 -10.95 L4.0 -11.25 3.9 -11.85 3.0 -14.55 2.8 -14.85 2.45 -14.75 2.3 -14.4 Q2.2 -13.85 2.35 -13.4 L2.45 -12.65 M2.05 10.3 L2.15 10.7 4.25 10.15 6.55 8.75 8.75 6.8 9.25 6.0 9.25 5.95 9.35 6.1 9.4 6.1 9.65 6.2 Q9.85 6.4 9.75 6.2 L9.75 5.85 9.7 5.75 9.55 5.55 9.55 5.4 10.15 3.3 Q10.75 0.15 10.45 -2.15 10.15 -5.1 8.4 -7.2 6.35 -9.65 2.55 -10.45 L-0.65 -10.6 -0.7 -10.6 -2.65 -10.3 -3.5 -9.95 -6.95 -7.95 -7.45 -7.45 -9.05 -5.35 -9.5 -4.5 -9.8 -3.3 -9.5 -3.7 -9.9 -3.15 -10.25 -0.45 Q-10.4 1.4 -10.1 2.75 -9.7 4.4 -8.4 6.05 L-5.85 8.8 Q-4.4 10.15 -3.55 10.5 L-2.6 10.75 -2.6 11.15 -2.35 11.85 -2.15 12.15 -1.75 12.55 -1.6 12.55 Q-1.35 12.75 -1.45 12.25 L-1.45 12.05 -1.4 11.75 -1.4 11.35 -1.5 11.05 -1.5 11.0 -1.5 10.75 -1.45 10.85 -0.2 10.85 1.3 10.8 1.6 11.5 1.65 11.6 1.85 11.85 2.3 12.05 2.2 11.85 Q2.4 12.05 2.25 11.75 L2.25 11.6 2.15 11.35 2.2 11.0 2.15 10.9 2.05 10.3 M11.4 -7.7 L11.45 -7.8 11.35 -8.15 Q11.15 -8.4 11.25 -8.4 L10.95 -8.65 10.95 -8.5 10.85 -8.4 10.85 -8.15 10.8 -7.8 10.85 -7.7 10.8 -7.6 10.95 -7.1 11.25 -6.7 Q11.45 -6.45 11.4 -6.7 L11.4 -7.7 M13.05 10.6 L13.0 10.8 12.85 10.9 12.55 11.5 12.55 11.6 12.75 11.75 13.0 11.5 13.7 10.8 13.95 10.1 13.95 9.9 Q14.25 10.2 14.05 9.75 L13.8 3.3 13.7 3.0 13.2 2.4 13.15 3.0 13.6 8.65 13.5 9.4 Q13.5 10.1 13.05 10.6 M10.3 10.8 L10.15 10.7 Q9.85 10.3 9.8 10.6 L9.8 10.8 9.75 10.9 9.75 11.35 9.85 11.75 9.85 11.95 10.0 12.55 10.05 12.55 10.25 12.75 10.6 13.0 10.65 12.85 10.6 12.75 10.65 12.65 10.7 12.05 10.7 11.85 10.65 11.75 10.6 11.5 10.3 10.8 M11.8 6.9 L11.65 6.9 11.65 7.0 11.6 7.0 11.6 7.1 11.75 7.6 11.85 7.6 11.95 7.7 12.05 7.7 12.05 7.35 11.8 6.9 M-5.05 -11.75 L-5.75 -12.65 -6.0 -12.45 -6.15 -12.15 -6.15 -11.85 -6.2 -11.5 -6.15 -11.15 -5.75 -10.1 -5.65 -10.1 -5.5 -9.75 Q-5.1 -9.45 -4.85 -9.55 -4.65 -9.65 -4.65 -10.2 L-4.65 -10.5 -4.8 -11.0 -4.75 -11.0 -5.05 -11.75 M7.9 12.65 L8.0 12.25 8.0 11.6 7.9 10.8 7.55 10.0 Q7.2 9.4 7.1 9.65 L7.0 9.65 6.6 10.5 6.6 11.25 Q6.75 12.05 7.25 12.65 L7.8 12.75 7.9 12.65 M-0.4 -11.45 L-0.4 -11.5 Q-0.35 -11.45 -0.25 -11.55 L-0.15 -11.75 -0.2 -12.0 -0.2 -12.55 -0.45 -12.7 -0.5 -12.65 -0.85 -12.55 -1.1 -12.3 -1.05 -12.05 -0.95 -11.75 -0.75 -11.5 -0.4 -11.45 M-12.8 -4.4 L-12.7 -4.0 -12.05 -3.2 -11.85 -3.2 -11.45 -3.8 -11.55 -5.55 -11.8 -6.55 -11.9 -6.7 -12.3 -7.2 Q-12.6 -7.6 -12.65 -7.4 L-12.95 -6.9 -12.8 -4.4 M-7.45 -11.25 L-7.5 -11.4 -7.85 -11.8 -8.0 -11.75 -8.15 -11.35 -8.15 -10.55 -8.05 -10.0 -7.7 -9.65 Q-7.35 -9.65 -7.35 -9.95 L-7.35 -10.1 -7.3 -10.3 -7.35 -10.7 -7.45 -11.25 M-12.95 1.3 L-12.9 1.65 -12.55 1.8 -12.25 1.55 -12.15 1.2 -12.25 0.0 -12.3 -0.25 -12.75 -0.55 -12.8 -0.5 -12.9 -0.55 -13.0 -0.3 -13.05 0.1 -12.95 0.75 -12.95 1.3 M-8.75 -8.85 L-8.7 -8.65 -8.75 -8.65 -9.05 -8.95 -9.25 -9.45 -9.55 -9.35 -9.55 -9.2 -9.5 -8.75 -9.55 -8.75 -9.45 -8.5 -9.5 -8.5 -9.15 -7.7 -9.15 -7.8 -9.05 -7.6 -8.9 -7.5 -8.65 -7.4 -8.45 -7.5 -8.5 -7.7 -8.5 -8.15 -8.75 -8.85 M-9.9 6.1 L-10.1 4.45 Q-10.15 3.8 -10.65 3.1 L-10.9 2.9 -11.2 3.6 -11.2 3.9 -11.1 4.85 -10.85 5.95 -10.5 6.7 Q-10.15 7.2 -10.15 6.9 L-10.15 6.4 -10.05 6.2 -9.9 6.1 M-9.15 9.6 L-9.0 9.4 -8.95 9.15 -9.15 8.15 -9.15 8.05 -9.4 7.95 -9.7 8.15 -9.75 8.45 -9.7 8.75 -9.6 9.05 -9.6 9.45 -9.35 9.55 -9.15 9.6 M-7.2 12.25 L-6.95 12.45 -7.05 12.05 -7.05 11.95 -7.1 11.85 -7.1 11.75 -7.2 11.35 -7.4 10.9 -7.5 10.8 -7.75 10.6 -7.8 10.7 -7.7 10.9 -7.75 10.9 -7.6 11.35 -7.65 11.35 -7.35 12.15 -7.25 12.25 -7.2 12.25 M-12.95 6.55 L-13.15 6.55 -13.35 6.8 -13.3 7.0 -13.1 7.8 -13.0 8.05 -13.05 8.05 -12.85 8.85 -12.6 9.3 Q-12.35 9.65 -12.35 9.4 -12.1 9.4 -12.4 9.05 L-12.35 8.65 -12.35 8.35 -12.4 8.35 -12.4 7.95 -12.5 7.7 -12.5 7.2 -12.75 6.8 -12.95 6.55" fill="#e5c093" fill-rule="evenodd" stroke="none"/>
    <path d="M10.0 -13.1 L10.15 -13.0 10.05 -13.0 10.0 -13.1 M2.45 -12.65 L2.35 -13.4 Q2.2 -13.85 2.3 -14.4 L2.45 -14.75 2.8 -14.85 3.0 -14.55 3.9 -11.85 4.0 -11.25 3.95 -10.95 Q3.8 -10.65 3.4 -10.95 L3.0 -11.4 2.6 -12.15 2.45 -12.65 M9.4 -7.95 L9.0 -8.4 8.8 -8.95 8.85 -9.05 8.95 -9.2 9.25 -8.85 9.3 -8.75 9.4 -8.5 9.4 -8.4 9.5 -8.05 9.4 -7.95 M1.8 9.7 L1.9 9.9 2.05 10.25 2.05 10.3 2.15 10.9 2.2 11.0 2.15 11.35 2.25 11.6 2.25 11.75 Q2.4 12.05 2.2 11.85 L2.3 12.05 1.85 11.85 1.65 11.6 1.6 11.5 1.3 10.8 1.25 10.7 1.1 10.2 1.1 10.1 0.95 9.9 0.95 9.8 0.95 9.75 1.0 9.7 1.5 9.65 1.75 9.65 1.8 9.7 M9.25 5.95 L9.15 5.75 9.1 5.55 9.15 5.4 9.15 5.25 9.2 5.25 9.2 5.15 Q9.1 4.95 9.3 5.15 L9.5 5.25 9.55 5.4 9.55 5.55 9.7 5.75 9.75 5.85 9.75 6.2 Q9.85 6.4 9.65 6.2 L9.4 6.1 9.35 6.1 9.25 5.95 M13.05 10.6 Q13.5 10.1 13.5 9.4 L13.6 8.65 13.15 3.0 13.2 2.4 13.7 3.0 13.8 3.3 14.05 9.75 Q14.25 10.2 13.95 9.9 L13.95 10.1 13.7 10.8 13.0 11.5 12.75 11.75 12.55 11.6 12.55 11.5 12.85 10.9 13.0 10.8 13.05 10.6 M7.9 12.65 L7.8 12.75 7.25 12.65 Q6.75 12.05 6.6 11.25 L6.6 10.5 7.0 9.65 7.1 9.65 Q7.2 9.4 7.55 10.0 L7.9 10.8 8.0 11.6 8.0 12.25 7.9 12.65 M-5.05 -11.75 L-4.75 -11.0 -4.8 -11.0 -4.65 -10.5 -4.65 -10.2 Q-4.65 -9.65 -4.85 -9.55 -5.1 -9.45 -5.5 -9.75 L-5.65 -10.1 -5.75 -10.1 -6.15 -11.15 -6.2 -11.5 -6.15 -11.85 -6.15 -12.15 -6.0 -12.45 -5.75 -12.65 -5.05 -11.75 M-12.8 -4.4 L-12.95 -6.9 -12.65 -7.4 Q-12.6 -7.6 -12.3 -7.2 L-11.9 -6.7 -11.8 -6.55 -11.55 -5.55 -11.45 -3.8 -11.85 -3.2 -12.05 -3.2 -12.7 -4.0 -12.8 -4.4 M-8.75 -8.85 L-8.5 -8.15 -8.5 -7.7 -8.45 -7.5 -8.65 -7.4 -8.9 -7.5 -9.05 -7.6 -9.15 -7.8 -9.15 -7.7 -9.5 -8.5 -9.45 -8.5 -9.55 -8.75 -9.5 -8.75 -9.55 -9.2 -9.55 -9.35 -9.25 -9.45 -9.05 -8.95 -8.75 -8.65 -8.7 -8.65 -8.75 -8.85 M-9.9 6.1 L-10.05 6.2 -10.15 6.4 -10.15 6.9 Q-10.15 7.2 -10.5 6.7 L-10.85 5.95 -11.1 4.85 -11.2 3.9 -11.2 3.6 -10.9 2.9 -10.65 3.1 Q-10.15 3.8 -10.1 4.45 L-9.9 6.1 M-7.2 12.25 L-7.25 12.25 -7.35 12.15 -7.65 11.35 -7.6 11.35 -7.75 10.9 -7.7 10.9 -7.8 10.7 -7.75 10.6 -7.5 10.8 -7.4 10.9 -7.2 11.35 -7.1 11.75 -7.1 11.85 -7.05 11.95 -7.05 12.05 -6.95 12.45 -7.2 12.25" fill="#d7b082" fill-rule="evenodd" stroke="none"/>
    <path d="M16.35 -16.35 Q16.9 -16.25 17.65 -14.85 L17.65 16.9 17.5 16.9 16.45 15.75 16.35 -16.35 M-2.6 10.75 L-2.65 10.6 -2.6 10.55 -2.4 10.7 -2.1 10.85 -1.55 11.05 -1.5 11.05 -1.4 11.35 -1.4 11.75 -1.45 12.05 -1.45 12.25 Q-1.35 12.75 -1.6 12.55 L-1.75 12.55 -2.15 12.15 -2.35 11.85 -2.6 11.15 -2.6 10.75 M11.4 -7.7 L11.4 -6.7 Q11.45 -6.45 11.25 -6.7 L10.95 -7.1 10.8 -7.6 10.85 -7.7 10.8 -7.8 10.85 -8.15 10.85 -8.4 10.95 -8.5 10.95 -8.65 11.25 -8.4 Q11.15 -8.4 11.35 -8.15 L11.45 -7.8 11.4 -7.7 M11.8 6.9 L12.05 7.35 12.05 7.7 11.95 7.7 11.85 7.6 11.75 7.6 11.6 7.1 11.6 7.0 11.65 7.0 11.65 6.9 11.8 6.9 M10.3 10.8 L10.6 11.5 10.65 11.75 10.7 11.85 10.7 12.05 10.65 12.65 10.6 12.75 10.65 12.85 10.6 13.0 10.25 12.75 10.05 12.55 10.0 12.55 9.85 11.95 9.85 11.75 9.75 11.35 9.75 10.9 9.8 10.8 9.8 10.6 Q9.85 10.3 10.15 10.7 L10.3 10.8 M-0.4 -11.45 L-0.75 -11.5 -0.95 -11.75 -1.05 -12.05 -1.1 -12.3 -0.85 -12.55 -0.5 -12.65 -0.45 -12.7 -0.2 -12.55 -0.2 -12.0 -0.15 -11.75 -0.25 -11.55 Q-0.35 -11.45 -0.4 -11.5 L-0.4 -11.45 M-12.95 1.3 L-12.95 0.75 -13.05 0.1 -13.0 -0.3 -12.9 -0.55 -12.8 -0.5 -12.75 -0.55 -12.3 -0.25 -12.25 0.0 -12.15 1.2 -12.25 1.55 -12.55 1.8 -12.9 1.65 -12.95 1.3 M-7.45 -11.25 L-7.35 -10.7 -7.3 -10.3 -7.35 -10.1 -7.35 -9.95 Q-7.35 -9.65 -7.7 -9.65 L-8.05 -10.0 -8.15 -10.55 -8.15 -11.35 -8.0 -11.75 -7.85 -11.8 -7.5 -11.4 -7.45 -11.25 M-9.15 9.6 L-9.35 9.55 -9.6 9.45 -9.6 9.05 -9.7 8.75 -9.75 8.45 -9.7 8.15 -9.4 7.95 -9.15 8.05 -9.15 8.15 -8.95 9.15 -9.0 9.4 -9.15 9.6 M-12.95 6.55 L-12.75 6.8 -12.5 7.2 -12.5 7.7 -12.4 7.95 -12.4 8.35 -12.35 8.35 -12.35 8.65 -12.4 9.05 Q-12.1 9.4 -12.35 9.4 -12.35 9.65 -12.6 9.3 L-12.85 8.85 -13.05 8.05 -13.0 8.05 -13.1 7.8 -13.3 7.0 -13.35 6.8 -13.15 6.55 -12.95 6.55 M-25.9 22.3 L-25.75 22.3 -25.75 22.5 -25.9 22.3" fill="#fad7ac" fill-rule="evenodd" stroke="none"/>
    <path d="M1.2 -9.75 L1.4 -9.65 3.55 -9.25 Q5.95 -8.5 7.5 -6.75 8.85 -5.2 9.4 -3.1 L9.45 -3.05 9.7 -3.0 10.05 -2.45 10.15 -1.95 10.35 0.0 10.25 0.9 9.95 1.15 9.75 0.95 9.85 0.0 9.7 -1.2 9.55 -2.45 9.4 -2.85 9.45 -3.05 9.35 -3.1 9.3 -3.1 9.2 -2.9 9.25 -1.35 9.35 -0.6 9.55 0.45 9.7 0.8 9.25 3.4 Q8.5 6.45 6.9 7.65 L4.8 9.15 4.15 9.3 1.8 9.7 1.75 9.65 1.45 9.05 1.2 8.85 1.05 8.85 0.9 9.05 0.9 9.4 0.95 9.55 0.95 9.75 0.95 9.8 -0.45 9.9 -1.9 9.9 -1.95 9.75 Q-2.25 9.4 -2.35 9.65 L-2.4 9.8 -3.1 9.6 -5.05 8.2 Q-8.0 5.45 -8.75 3.65 -9.8 1.2 -9.2 -2.2 L-8.5 -4.65 -8.4 -4.7 -8.4 -4.75 -7.85 -5.7 -6.25 -7.5 -4.0 -8.8 -2.35 -9.4 -1.7 -9.85 -2.65 -9.15 -1.1 -9.55 1.0 -9.7 0.9 -9.55 0.9 -8.85 1.0 -8.4 1.35 -7.5 1.5 -7.2 1.7 -7.0 Q2.1 -6.8 2.1 -7.1 L2.15 -7.4 2.1 -7.7 2.0 -8.05 2.0 -8.4 1.9 -8.75 1.85 -8.85 1.65 -9.35 1.4 -9.65 1.2 -9.75 M-2.6 10.55 L-2.45 10.0 -1.85 10.0 -1.5 10.7 -1.55 10.7 -1.5 10.75 -1.5 11.0 -1.5 11.05 -1.55 11.05 -2.1 10.85 -2.4 10.7 -2.6 10.55 M4.5 -1.95 L4.8 -1.25 5.2 -0.8 Q5.4 -0.6 5.35 -0.8 5.35 -1.05 5.45 -0.9 L5.3 -1.15 Q5.5 -1.15 5.5 -1.65 L5.55 -2.05 5.55 -2.3 5.5 -2.45 5.15 -3.3 4.65 -3.7 4.45 -3.6 4.35 -3.3 4.25 -2.75 4.5 -1.95 M2.65 3.2 Q2.65 3.6 2.95 3.8 L3.2 3.9 3.3 3.8 3.3 3.4 3.35 3.4 3.25 3.2 3.3 3.1 3.15 2.5 2.8 1.75 2.65 1.75 2.55 1.95 2.6 2.15 2.6 2.65 2.65 2.9 2.6 2.9 2.65 3.2 M-8.4 0.2 L-8.35 0.35 -8.25 0.55 -8.0 0.7 -7.9 0.7 Q-7.75 0.45 -7.85 0.2 L-8.25 -1.15 -8.4 -1.35 -8.55 -1.5 -8.6 -1.15 -8.55 -0.9 -8.55 -0.8 -8.5 -0.5 -8.5 -0.2 -8.4 0.2 M-3.15 4.6 L-3.4 3.2 -3.35 3.3 -3.55 2.65 -4.05 1.85 -4.25 1.35 -4.55 1.15 -4.85 1.65 -4.9 2.75 -4.85 3.1 -4.85 3.2 -4.9 3.2 -4.85 3.9 -4.8 4.0 -4.8 4.25 -4.75 4.35 -4.6 5.25 -4.55 5.75 -4.6 5.65 -4.5 5.95 -4.15 7.0 -3.95 7.35 -3.8 7.5 -3.5 7.6 -3.55 7.5 -3.4 7.1 -3.15 6.9 -3.05 6.7 -3.05 6.4 -3.0 6.3 -3.05 6.1 -3.0 5.95 -3.0 5.4 -3.05 5.25 -3.05 5.05 -3.1 4.95 -3.1 4.7 -3.15 4.6 M-1.1 -3.3 L-1.15 -3.45 -1.15 -3.6 -1.2 -3.7 -1.4 -4.25 -1.65 -4.5 -1.85 -4.6 -1.95 -4.5 -1.85 -4.25 -1.85 -4.0 -1.8 -3.8 -1.7 -3.6 -1.65 -3.6 -1.45 -3.1 -1.35 -3.1 -1.2 -3.0 -1.1 -3.3 M-25.75 25.15 L-25.75 29.1 -28.65 29.25 -28.95 29.5 -28.7 30.25 Q-28.45 30.6 -28.25 30.6 L-26.2 30.9 -25.75 30.95 -25.75 33.65 -51.95 33.65 -52.05 33.5 -54.05 33.0 -54.55 32.55 -54.8 32.2 -54.85 32.2 -55.15 31.65 -55.3 31.55 -55.55 31.0 -56.4 29.6 -57.7 26.75 -57.85 26.3 Q-58.25 25.1 -58.1 24.6 L-57.7 23.9 -57.15 23.4 -27.85 23.4 -26.9 23.9 -26.85 23.9 -26.55 24.25 -26.4 24.45 -26.0 24.9 -25.85 25.0 -25.75 25.15 M-51.3 29.8 Q-51.6 29.5 -51.8 29.5 L-53.05 29.4 -53.25 29.5 -53.1 30.25 -52.45 31.0 -52.05 31.1 -51.05 30.9 -51.0 30.9 -50.95 30.45 -51.3 29.8 M-51.45 26.1 L-53.65 25.8 -54.45 26.1 -55.4 25.9 Q-55.95 25.9 -55.85 26.55 L-55.4 27.2 -55.0 27.3 -52.25 27.85 -49.55 28.3 Q-47.75 27.5 -46.7 27.5 L-45.7 27.65 -44.5 26.65 -44.45 26.45 -44.75 26.0 Q-45.2 25.55 -45.75 25.55 L-46.45 25.8 -47.65 25.55 -49.55 25.8 -51.45 26.1 M-45.1 31.1 L-44.95 31.45 -44.7 31.65 -38.65 31.55 -34.9 31.65 -34.4 31.55 Q-34.2 31.25 -34.4 30.7 -34.35 30.35 -34.85 29.8 L-35.35 29.6 -36.25 29.6 -41.3 29.9 -44.25 30.6 -45.05 30.9 -45.1 31.1 M-28.5 25.55 Q-28.65 25.35 -29.15 25.1 L-31.45 25.0 -32.45 25.25 -35.05 25.55 -37.65 25.9 -37.9 26.1 -37.65 26.75 Q-37.4 27.1 -37.0 27.1 L-29.9 26.75 -28.3 26.65 Q-28.05 26.2 -28.5 25.55" fill="#f3ebcd" fill-rule="evenodd" stroke="none"/>
    <path d="M16.45 15.75 L17.5 16.9 -16.9 16.9 -16.9 15.75 16.45 15.75 M9.75 0.95 L9.95 1.15 10.25 0.9 10.35 0.0 10.15 -1.95 10.05 -2.45 9.7 -3.0 9.45 -3.05 9.4 -3.1 Q8.85 -5.2 7.5 -6.75 5.95 -8.5 3.55 -9.25 L1.4 -9.65 1.2 -9.75 1.0 -9.7 -1.1 -9.55 -2.65 -9.15 -1.7 -9.85 -2.35 -9.4 -4.0 -8.8 -6.25 -7.5 -7.85 -5.7 -8.4 -4.75 -8.4 -4.7 -8.5 -4.65 -9.2 -2.2 Q-9.8 1.2 -8.75 3.65 -8.0 5.45 -5.05 8.2 L-3.1 9.6 -2.4 9.8 -2.45 10.0 -2.6 10.55 -2.65 10.6 -2.6 10.75 -3.55 10.5 Q-4.4 10.15 -5.85 8.8 L-8.4 6.05 Q-9.7 4.4 -10.1 2.75 -10.4 1.4 -10.25 -0.45 L-9.9 -3.15 -9.5 -3.7 -9.8 -3.3 -9.5 -4.5 -9.05 -5.35 -7.45 -7.45 -6.95 -7.95 -3.5 -9.95 -2.65 -10.3 -0.7 -10.6 -0.65 -10.6 2.55 -10.45 Q6.35 -9.65 8.4 -7.2 10.15 -5.1 10.45 -2.15 10.75 0.15 10.15 3.3 L9.55 5.4 9.5 5.25 9.3 5.15 Q9.1 4.95 9.2 5.15 L9.2 5.25 9.15 5.25 9.15 5.4 9.1 5.55 9.15 5.75 9.25 5.95 9.25 6.0 8.75 6.8 6.55 8.75 4.25 10.15 2.15 10.7 2.05 10.3 2.05 10.25 1.9 9.9 1.8 9.7 4.15 9.3 4.8 9.15 6.9 7.65 Q8.5 6.45 9.25 3.4 L9.7 0.8 9.75 0.95 M4.5 -1.95 L4.25 -2.75 4.35 -3.3 4.45 -3.6 4.65 -3.7 5.15 -3.3 5.5 -2.45 5.55 -2.3 5.55 -2.05 5.5 -1.65 Q5.5 -1.15 5.3 -1.15 L5.45 -0.9 Q5.35 -1.05 5.35 -0.8 5.4 -0.6 5.2 -0.8 L4.8 -1.25 4.5 -1.95 M0.95 9.75 L0.95 9.55 0.9 9.4 0.9 9.05 1.05 8.85 1.2 8.85 1.45 9.05 1.75 9.65 1.5 9.65 1.0 9.7 0.95 9.75 M0.95 9.8 L0.95 9.9 1.1 10.1 1.1 10.2 1.25 10.7 1.3 10.8 -0.2 10.85 -1.45 10.85 -1.5 10.75 -1.55 10.7 -1.5 10.7 -1.85 10.0 -1.9 9.9 -0.45 9.9 0.95 9.8 M-1.1 -3.3 L-1.2 -3.0 -1.35 -3.1 -1.45 -3.1 -1.65 -3.6 -1.7 -3.6 -1.8 -3.8 -1.85 -4.0 -1.85 -4.25 -1.95 -4.5 -1.85 -4.6 -1.65 -4.5 -1.4 -4.25 -1.2 -3.7 -1.15 -3.6 -1.15 -3.45 -1.1 -3.3 M-3.15 4.6 L-3.1 4.7 -3.1 4.95 -3.05 5.05 -3.05 5.25 -3.0 5.4 -3.0 5.95 -3.05 6.1 -3.0 6.3 -3.05 6.4 -3.05 6.7 -3.15 6.9 -3.4 7.1 -3.55 7.5 -3.5 7.6 -3.8 7.5 -3.95 7.35 -4.15 7.0 -4.5 5.95 -4.6 5.65 -4.55 5.75 -4.6 5.25 -4.75 4.35 -4.8 4.25 -4.8 4.0 -4.85 3.9 -4.9 3.2 -4.85 3.2 -4.85 3.1 -4.9 2.75 -4.85 1.65 -4.55 1.15 -4.25 1.35 -4.05 1.85 -3.55 2.65 -3.35 3.3 -3.4 3.2 -3.15 4.6 M-25.9 22.3 L-25.75 22.5 -25.75 25.15 -25.85 25.0 -26.0 24.9 -26.4 24.45 -26.55 24.25 -26.85 23.9 -26.9 23.9 -27.85 23.4 -57.15 23.4 -57.7 23.9 -58.1 24.6 Q-58.25 25.1 -57.85 26.3 L-57.7 26.75 -56.4 29.6 -55.55 31.0 -55.3 31.55 -55.15 31.65 -54.85 32.2 -54.8 32.2 -54.55 32.55 -54.05 33.0 -52.05 33.5 -51.95 33.65 -25.75 33.65 -25.75 35.4 -54.45 35.4 -60.0 23.4 -60.3 22.3 -25.9 22.3 M-54.55 33.65 L-54.5 33.65 -54.6 33.5 -54.55 33.65" fill="#ecd6b0" fill-rule="evenodd" stroke="none"/>
    <path d="M9.75 0.95 L9.7 0.8 9.55 0.45 9.35 -0.6 9.25 -1.35 9.2 -2.9 9.3 -3.1 9.35 -3.1 9.45 -3.05 9.4 -2.85 9.55 -2.45 9.7 -1.2 9.85 0.0 9.75 0.95 M-2.45 10.0 L-2.4 9.8 -2.35 9.65 Q-2.25 9.4 -1.95 9.75 L-1.9 9.9 -1.85 10.0 -2.45 10.0 M1.0 -9.7 L1.2 -9.75 1.4 -9.65 1.65 -9.35 1.85 -8.85 1.9 -8.75 2.0 -8.4 2.0 -8.05 2.1 -7.7 2.15 -7.4 2.1 -7.1 Q2.1 -6.8 1.7 -7.0 L1.5 -7.2 1.35 -7.5 1.0 -8.4 0.9 -8.85 0.9 -9.55 1.0 -9.7 M2.65 3.2 L2.6 2.9 2.65 2.9 2.6 2.65 2.6 2.15 2.55 1.95 2.65 1.75 2.8 1.75 3.15 2.5 3.3 3.1 3.25 3.2 3.35 3.4 3.3 3.4 3.3 3.8 3.2 3.9 2.95 3.8 Q2.65 3.6 2.65 3.2 M-8.4 0.2 L-8.5 -0.2 -8.5 -0.5 -8.55 -0.8 -8.55 -0.9 -8.6 -1.15 -8.55 -1.5 -8.4 -1.35 -8.25 -1.15 -7.85 0.2 Q-7.75 0.45 -7.9 0.7 L-8.0 0.7 -8.25 0.55 -8.35 0.35 -8.4 0.2 M-25.75 29.1 L-25.75 30.95 -26.2 30.9 -28.25 30.6 Q-28.45 30.6 -28.7 30.25 L-28.95 29.5 -28.65 29.25 -25.75 29.1 M-28.5 25.55 Q-28.05 26.2 -28.3 26.65 L-29.9 26.75 -37.0 27.1 Q-37.4 27.1 -37.65 26.75 L-37.9 26.1 -37.65 25.9 -35.05 25.55 -32.45 25.25 -31.45 25.0 -29.15 25.1 Q-28.65 25.35 -28.5 25.55 M-45.1 31.1 L-45.05 30.9 -44.25 30.6 -41.3 29.9 -36.25 29.6 -35.35 29.6 -34.85 29.8 Q-34.35 30.35 -34.4 30.7 -34.2 31.25 -34.4 31.55 L-34.9 31.65 -38.65 31.55 -44.7 31.65 -44.95 31.45 -45.1 31.1 M-51.45 26.1 L-49.55 25.8 -47.65 25.55 -46.45 25.8 -45.75 25.55 Q-45.2 25.55 -44.75 26.0 L-44.45 26.45 -44.5 26.65 -45.7 27.65 -46.7 27.5 Q-47.75 27.5 -49.55 28.3 L-52.25 27.85 -55.0 27.3 -55.4 27.2 -55.85 26.55 Q-55.95 25.9 -55.4 25.9 L-54.45 26.1 -53.65 25.8 -51.45 26.1 M-51.3 29.8 L-50.95 30.45 -51.0 30.9 -51.05 30.9 -52.05 31.1 -52.45 31.0 -53.1 30.25 -53.25 29.5 -53.05 29.4 -51.8 29.5 Q-51.6 29.5 -51.3 29.8" fill="#fffae9" fill-rule="evenodd" stroke="none"/>
    <path d="M-54.55 33.65 L-54.6 33.5 -54.5 33.65 -54.55 33.65" fill="#eeeeee" fill-rule="evenodd" stroke="none"/>
  </g>
</svg>
