<?xml version="1.0" encoding="UTF-8" standalone="no"?>
<svg xmlns:ffdec="https://www.free-decompiler.com/flash" xmlns:xlink="http://www.w3.org/1999/xlink" ffdec:objectType="shape" height="140.2px" width="244.0px" xmlns="http://www.w3.org/2000/svg">
  <g transform="matrix(1.0, 0.0, 0.0, 1.0, 122.0, 70.1)">
    <path d="M93.25 -62.7 L-46.6 -62.7 -45.4 -63.7 96.25 -63.7 101.55 -63.35 Q102.85 -63.2 103.55 -62.05 L103.6 -62.0 Q103.75 -61.05 103.3 -60.3 102.35 -58.5 100.75 -57.05 L94.8 -51.2 40.15 3.4 Q37.55 5.95 34.4 7.4 30.4 9.2 25.75 9.2 L-86.05 9.2 -118.5 9.2 -117.5 8.2 -83.05 8.2 25.75 8.2 Q30.2 8.2 34.0 6.5 36.95 5.15 39.45 2.7 L52.8 -10.55 52.85 -10.65 74.55 -32.35 74.6 -32.4 92.65 -50.5 100.0 -57.85 Q102.3 -60.0 102.6 -61.3 L102.65 -61.3 102.65 -61.6 102.65 -61.65 102.55 -61.8 Q102.0 -62.4 100.3 -62.6 L98.7 -62.7 98.15 -62.7 93.25 -62.7 M55.35 -11.75 Q62.55 -14.95 67.55 -19.05 L67.55 -19.1 69.95 -21.2 72.65 -24.55 Q74.45 -27.45 74.5 -30.2 L74.5 -30.8 74.5 -30.9 75.5 -31.85 75.5 -31.15 75.5 -30.8 75.5 -30.2 Q75.45 -27.15 73.5 -24.0 72.4 -22.35 70.7 -20.5 L70.65 -20.5 68.2 -18.3 Q62.35 -13.45 53.45 -9.85 L55.35 -11.75" fill="#838383" fill-rule="evenodd" stroke="none"/>
    <path d="M-18.3 -13.05 L-17.15 -12.6 -14.9 -11.8 -14.4 -11.65 Q-5.2 -8.75 6.05 -8.4 L7.2 -8.4 7.55 -8.4 16.25 -8.65 16.55 -8.65 17.5 -8.75 19.8 -8.95 22.75 -9.25 28.6 -10.15 Q39.65 -12.2 47.95 -16.5 L48.5 -16.8 49.9 -17.55 51.1 -18.25 52.0 -18.85 52.2 -18.95 52.45 -19.15 Q54.45 -20.55 55.9 -22.0 57.25 -23.35 58.1 -24.75 L58.5 -25.45 Q59.15 -26.5 59.45 -29.2 L59.45 -30.2 59.45 -30.35 59.45 -30.45 59.4 -30.7 59.4 -30.75 59.4 -30.95 59.35 -31.15 Q58.7 -34.95 54.9 -37.9 L92.65 -50.5 74.6 -32.4 74.55 -32.35 52.85 -10.65 52.8 -10.55 39.45 2.7 Q36.95 5.15 34.0 6.5 30.2 8.2 25.75 8.2 L-83.05 8.2 -18.8 -13.25 -18.3 -13.05 M55.35 -11.75 L53.45 -9.85 Q62.35 -13.45 68.2 -18.3 L70.65 -20.5 70.7 -20.5 Q72.4 -22.35 73.5 -24.0 75.45 -27.15 75.5 -30.2 L75.5 -30.8 75.5 -31.15 75.5 -31.85 74.5 -30.9 55.35 -11.75 M-86.05 9.2 L25.75 9.2 Q30.4 9.2 34.4 7.4 37.55 5.95 40.15 3.4 L94.8 -51.2 111.5 -56.8 46.55 8.15 Q43.8 10.8 40.65 12.4 L40.05 12.65 36.75 13.85 Q33.7 14.65 30.3 14.65 L-102.35 14.65 -86.05 9.2 M-12.25 -13.5 Q0.4 -10.0 17.3 -11.45 34.2 -12.9 45.55 -18.45 51.85 -21.55 54.45 -24.85 L54.55 -24.9 55.9 -27.45 55.9 -27.4 Q56.35 -28.8 56.25 -30.2 L56.25 -30.25 56.25 -30.35 56.25 -30.5 56.2 -30.65 56.2 -30.7 Q55.35 -37.3 42.35 -40.85 29.7 -44.35 12.8 -42.9 -4.1 -41.45 -15.45 -35.95 -25.55 -31.05 -26.1 -25.4 L-26.1 -25.35 -26.1 -25.2 -26.1 -23.65 -25.9 -22.85 Q-25.5 -21.25 -24.35 -19.8 L-24.2 -19.7 Q-21.05 -15.95 -12.25 -13.5 M-28.3 -23.95 L-28.3 -25.2 -28.3 -25.3 -28.3 -25.6 -28.3 -25.75 Q-27.65 -31.9 -17.4 -37.2 -5.3 -43.4 12.7 -44.8 30.7 -46.2 44.15 -41.95 57.35 -37.8 58.4 -30.6 L58.45 -30.35 58.45 -30.1 58.45 -29.3 58.45 -29.15 Q58.35 -27.15 57.25 -25.25 L55.2 -22.7 Q52.45 -19.95 47.5 -17.4 35.4 -11.15 17.4 -9.75 -0.6 -8.35 -14.1 -12.6 -21.4 -14.9 -24.95 -18.1 -26.3 -19.3 -27.05 -20.6 -28.05 -22.2 -28.3 -23.95 M36.75 14.85 L40.45 13.55 40.65 13.45 40.55 16.1 40.45 16.15 36.85 17.45 36.75 14.85 M60.1 10.6 L60.15 6.75 60.95 9.8 Q62.25 15.55 62.05 21.75 61.95 25.05 61.45 28.45 L61.1 19.5 61.1 19.0 Q60.95 14.7 60.1 10.6" fill="#adadad" fill-rule="evenodd" stroke="none"/>
    <path d="M74.5 -30.9 L74.5 -30.8 74.5 -30.2 Q74.45 -27.45 72.65 -24.55 L69.95 -21.2 67.55 -19.1 67.55 -19.05 Q62.55 -14.95 55.35 -11.75 L74.5 -30.9" fill="#ffaf5f" fill-rule="evenodd" stroke="none"/>
    <path d="M-46.6 -62.7 L-46.8 -62.45 -47.1 -62.2 -116.75 7.45 -117.5 8.2 -118.5 9.2 -118.5 9.25 -118.6 9.3 Q-120.8 11.6 -120.9 13.0 L-120.9 13.35 -121.0 14.7 -121.0 17.3 -120.9 51.85 -120.9 53.5 -120.85 66.45 -120.85 66.6 -120.85 67.55 Q-120.45 68.6 -118.15 68.95 L-115.6 69.1 30.3 69.1 30.45 69.1 36.75 68.35 38.8 67.7 40.2 67.1 40.65 66.9 Q43.9 65.3 46.7 62.6 L47.25 62.05 118.2 -8.9 119.2 -9.9 119.55 -10.35 Q120.9 -12.0 121.0 -13.1 L121.0 -13.25 121.0 -26.25 121.0 -28.6 120.95 -62.2 121.0 -64.9 121.05 -67.1 121.05 -67.65 Q120.9 -68.35 119.95 -68.55 L112.4 -69.1 -30.4 -69.1 Q-39.05 -69.1 -45.4 -63.7 L-46.6 -62.7 M-30.4 -70.1 L115.65 -70.1 116.3 -70.1 116.35 -70.1 118.3 -69.95 Q121.05 -69.6 121.8 -68.5 L121.85 -68.4 121.95 -68.2 122.0 -68.15 122.0 -68.05 122.0 -13.3 Q122.1 -11.75 119.95 -9.25 L119.55 -8.85 118.9 -8.2 47.4 63.3 47.25 63.45 Q44.2 66.35 40.65 68.0 L40.6 68.0 Q38.75 68.85 36.75 69.35 L30.45 70.1 -115.6 70.1 -118.15 69.95 Q-121.4 69.5 -121.8 67.85 L-121.8 67.9 Q-122.05 67.25 -121.85 66.45 L-122.0 13.35 -121.95 13.15 Q-122.0 11.4 -119.35 8.7 L-119.3 8.6 -119.1 8.45 -118.95 8.3 -47.8 -62.9 -47.65 -63.05 -47.0 -63.65 -45.6 -64.85 Q-39.1 -70.1 -30.4 -70.1" fill="#000000" fill-rule="evenodd" stroke="none"/>
    <path d="M-28.9 -21.85 L-28.75 -21.5 -28.4 -20.9 -28.3 -20.7 -27.9 -20.05 -27.9 -20.1 Q-27.1 -18.7 -25.6 -17.35 L-25.5 -17.25 -25.25 -17.05 -19.8 -13.7 -18.8 -13.25 -83.05 8.2 -117.5 8.2 -116.75 7.45 -75.15 -6.45 Q-75.2 -5.7 -74.25 -5.7 L-72.7 -6.1 Q-72.3 -6.25 -71.95 -6.45 -71.75 -6.5 -71.7 -6.55 L-71.6 -6.6 -71.55 -6.65 Q-70.1 -7.4 -69.05 -8.4 L-68.95 -8.5 -67.7 -8.95 -68.25 -8.4 -68.9 -7.95 -69.15 -7.6 -69.35 -6.2 -69.15 -6.2 -69.0 -6.25 -68.95 -6.3 -67.7 -7.1 Q-67.25 -7.35 -66.9 -7.7 L-66.15 -8.3 -65.95 -8.55 -64.85 -9.75 -64.75 -9.9 -28.9 -21.85 M54.9 -37.9 Q51.2 -40.8 44.45 -42.9 L38.65 -44.4 93.25 -62.7 98.15 -62.7 98.7 -62.7 100.3 -62.6 Q102.0 -62.4 102.55 -61.8 L102.65 -61.65 102.65 -61.6 102.65 -61.3 102.6 -61.3 Q102.3 -60.0 100.0 -57.85 L92.65 -50.5 54.9 -37.9 M-118.5 9.2 L-86.05 9.2 -102.35 14.65 -115.75 14.65 Q-120.05 14.65 -120.9 13.35 L-120.9 13.0 Q-120.8 11.6 -118.6 9.3 L-118.5 9.25 -118.5 9.2 M94.8 -51.2 L100.75 -57.05 Q102.35 -58.5 103.3 -60.3 103.75 -61.05 103.6 -62.0 L103.55 -62.05 Q102.85 -63.2 101.55 -63.35 L96.25 -63.7 112.4 -69.1 119.95 -68.55 Q120.9 -68.35 121.05 -67.65 L121.05 -67.1 120.55 -66.05 117.95 -63.15 111.5 -56.8 94.8 -51.2" fill="#a3a3a3" fill-rule="evenodd" stroke="none"/>
    <path d="M111.5 -56.8 L117.95 -63.15 120.55 -66.05 121.05 -67.1 121.0 -64.9 119.55 -63.45 118.6 -62.5 47.25 8.85 Q44.2 11.8 40.65 13.45 L40.45 13.55 36.75 14.85 Q33.7 15.65 30.3 15.65 L-115.75 15.65 -118.15 15.55 Q-120.05 15.3 -121.0 14.7 L-120.9 13.35 Q-120.05 14.65 -115.75 14.65 L-102.35 14.65 30.3 14.65 Q33.7 14.65 36.75 13.85 L40.05 12.65 40.65 12.4 Q43.8 10.8 46.55 8.15 L111.5 -56.8" fill="#d0d0d0" fill-rule="evenodd" stroke="none"/>
    <path d="M-121.0 14.7 Q-120.05 15.3 -118.15 15.55 L-118.15 18.15 Q-120.05 17.9 -121.0 17.3 L-121.0 14.7 M119.55 -63.45 L121.0 -64.9 120.95 -62.2 119.55 -60.85 119.55 -63.45 M47.25 46.45 L46.7 47.0 Q43.9 49.7 40.65 51.3 L40.2 51.5 39.35 51.9 40.55 16.1 40.65 16.05 Q44.2 14.4 47.25 11.45 L47.25 46.45 M38.2 52.3 L36.75 52.75 30.45 53.5 30.3 53.5 30.3 18.25 Q33.7 18.25 36.75 17.45 L36.85 17.45 38.2 52.3 M60.15 6.75 L105.95 -39.05 106.7 -36.0 Q107.9 -30.15 107.65 -23.85 107.35 -18.1 105.75 -12.05 L60.5 33.2 61.45 28.45 Q61.95 25.05 62.05 21.75 L106.35 -22.55 Q106.5 -28.85 105.35 -34.6 L60.95 9.8 60.15 6.75 M30.3 54.5 L30.45 54.5 36.75 53.75 38.25 53.35 38.75 66.05 36.75 66.65 Q33.7 67.45 30.3 67.45 L30.3 54.5 M39.3 52.95 Q39.95 52.7 40.6 52.4 L40.65 52.4 Q44.2 50.75 47.25 47.85 L47.25 60.65 Q44.2 63.6 40.65 65.25 L40.45 65.35 38.85 66.0 39.3 52.95" fill="#727272" fill-rule="evenodd" stroke="none"/>
    <path d="M38.65 -44.4 L38.6 -44.4 Q29.8 -46.3 19.3 -46.1 L18.2 -46.1 12.6 -45.8 Q-5.6 -44.4 -17.85 -38.1 -28.7 -32.5 -29.3 -25.9 L-29.3 -25.5 -29.3 -25.35 -29.3 -23.85 -28.9 -21.85 -64.75 -9.9 -64.45 -10.7 -64.45 -10.85 Q-64.35 -11.75 -65.35 -11.75 L-66.95 -11.35 -67.7 -11.0 -67.85 -10.95 -68.0 -10.8 -68.05 -10.75 Q-69.5 -10.0 -70.55 -9.0 L-70.75 -8.85 -70.9 -8.7 -71.05 -8.55 -71.45 -8.25 -71.85 -8.1 -71.95 -8.15 -72.0 -8.25 -71.35 -9.0 -71.05 -9.2 -70.75 -9.5 -70.4 -9.8 -70.3 -11.25 -70.5 -11.25 -70.55 -11.2 -70.7 -11.15 -71.35 -10.75 -71.95 -10.35 -72.75 -9.75 -73.45 -9.1 -73.7 -8.9 -74.75 -7.7 -75.2 -6.65 -75.15 -6.55 -75.15 -6.45 -116.75 7.45 -47.1 -62.2 -46.8 -62.45 -46.6 -62.7 93.25 -62.7 38.65 -44.4 M96.25 -63.7 L-45.4 -63.7 Q-39.05 -69.1 -30.4 -69.1 L112.4 -69.1 96.25 -63.7 M-118.15 15.55 L-115.75 15.65 30.3 15.65 30.3 18.25 -115.75 18.25 -118.15 18.15 -118.15 15.55 M47.25 8.85 L118.6 -62.5 119.55 -63.45 119.55 -60.85 118.6 -59.9 47.25 11.45 47.25 8.85 M-64.95 -14.85 Q-65.0 -15.3 -64.35 -15.95 L-64.35 -16.05 -64.25 -16.15 -62.4 -17.45 -60.55 -17.95 -60.4 -17.95 -60.3 -17.95 -60.7 -17.8 -61.05 -17.5 -61.2 -17.15 -61.15 -16.3 Q-61.25 -15.95 -60.45 -16.3 L-60.3 -16.35 -60.45 -16.25 -60.55 -16.15 -62.35 -14.85 Q-63.45 -14.35 -64.2 -14.35 L-64.3 -14.35 -64.45 -14.35 Q-64.95 -14.45 -64.95 -14.85 M-55.5 -19.15 L-55.55 -20.0 Q-55.5 -20.35 -56.25 -20.0 L-56.85 -19.65 Q-57.35 -20.15 -58.4 -20.15 -60.1 -20.15 -62.4 -19.0 -64.8 -17.8 -66.45 -16.15 -68.1 -14.5 -68.05 -13.35 -68.1 -12.15 -66.4 -12.15 -64.7 -12.15 -62.35 -13.35 -60.0 -14.5 -58.35 -16.15 -57.25 -17.2 -56.9 -18.15 L-56.15 -18.5 -55.65 -18.8 Q-55.5 -19.0 -55.5 -19.15 M-63.8 -24.75 L-70.45 -24.75 Q-71.15 -24.75 -71.85 -24.05 L-73.65 -22.25 Q-74.35 -21.55 -73.65 -21.55 L-66.85 -21.55 Q-66.4 -21.55 -66.4 -21.15 -66.4 -20.85 -66.95 -20.3 L-68.05 -19.5 -69.2 -19.2 -76.0 -19.2 Q-76.7 -19.2 -77.45 -18.45 L-79.2 -16.7 Q-79.95 -15.95 -79.25 -15.95 L-72.6 -15.95 Q-70.8 -15.95 -68.15 -17.25 -65.65 -18.5 -63.75 -20.35 -61.95 -22.2 -62.0 -23.45 -62.0 -24.75 -63.8 -24.75 M-46.1 -31.85 L-47.45 -30.5 -48.35 -31.2 -46.1 -31.85 M-40.2 -34.85 Q-39.9 -35.3 -40.35 -35.2 L-49.75 -32.45 -50.5 -32.1 -52.3 -30.3 Q-52.55 -30.0 -52.3 -29.9 L-48.35 -27.2 Q-48.1 -27.1 -47.6 -27.45 L-46.0 -28.6 Q-45.4 -29.05 -45.55 -29.25 L-46.05 -29.6 -42.85 -32.8 -41.7 -33.1 Q-41.15 -33.35 -40.85 -33.75 L-40.2 -34.85 M-50.5 -27.0 L-55.05 -27.0 Q-55.6 -27.0 -56.1 -26.5 L-57.3 -25.25 Q-57.8 -24.8 -57.25 -24.8 L-52.7 -24.8 -52.3 -24.55 Q-52.35 -24.3 -52.7 -23.95 L-53.45 -23.4 -54.3 -23.2 -58.85 -23.2 Q-59.4 -23.2 -59.95 -22.65 L-61.15 -21.45 Q-61.65 -20.95 -61.1 -20.95 L-56.6 -20.95 Q-55.3 -20.95 -53.55 -21.85 -51.8 -22.7 -50.5 -24.0 -49.3 -25.2 -49.25 -26.15 -49.25 -27.0 -50.5 -27.0 M-60.9 -33.8 L-61.0 -33.75 -61.2 -33.65 -62.15 -33.05 -63.05 -32.45 -64.2 -31.6 -65.2 -30.7 -65.55 -30.35 -67.05 -28.6 -67.75 -27.15 -67.8 -26.95 Q-67.9 -25.7 -66.45 -25.7 -65.45 -25.7 -64.15 -26.25 L-63.05 -26.75 -62.7 -26.95 -62.5 -27.05 -62.45 -27.1 Q-60.5 -28.15 -58.8 -29.7 L-58.6 -29.9 -58.35 -30.05 -58.05 -30.35 -57.55 -30.7 -57.5 -30.75 -56.85 -31.0 -56.8 -30.95 Q-56.65 -30.95 -56.75 -30.75 -56.75 -30.45 -57.65 -29.7 L-58.6 -28.95 -59.05 -28.45 -59.35 -26.4 Q-59.4 -26.2 -58.95 -26.4 L-58.85 -26.45 -58.65 -26.55 -56.75 -27.75 -55.7 -28.6 -54.65 -29.5 -54.3 -29.85 -52.75 -31.6 Q-52.2 -32.4 -52.15 -33.05 L-52.15 -33.2 Q-51.9 -34.5 -53.35 -34.5 -54.35 -34.5 -55.75 -33.9 L-56.8 -33.45 -57.15 -33.25 -57.3 -33.15 -57.45 -33.1 Q-59.45 -32.0 -61.1 -30.5 L-61.3 -30.3 -61.55 -30.05 -61.75 -29.85 -62.3 -29.45 -62.95 -29.2 -63.05 -29.25 -63.1 -29.45 -62.2 -30.5 -61.8 -30.8 -61.25 -31.2 Q-60.8 -31.5 -60.85 -31.75 L-60.55 -33.8 Q-60.5 -34.0 -60.9 -33.8 M-37.85 -41.9 Q-39.0 -41.9 -40.65 -41.1 L-43.25 -39.35 -43.3 -39.3 -43.4 -39.2 -46.25 -36.35 Q-46.7 -35.9 -46.15 -35.9 L-39.15 -35.9 Q-38.6 -35.9 -38.15 -36.35 L-36.9 -37.6 Q-36.4 -38.15 -36.95 -38.15 L-38.85 -38.15 -38.7 -38.3 -34.55 -40.1 -34.1 -40.4 -33.95 -40.75 -33.7 -41.7 Q-33.6 -42.15 -34.3 -41.8 L-36.7 -40.75 -36.65 -40.9 -36.65 -41.0 -36.7 -41.1 Q-36.65 -41.9 -37.85 -41.9 M-41.05 -38.15 L-42.3 -38.15 -41.3 -39.15 -40.75 -39.5 -40.6 -39.55 -40.05 -39.75 Q-39.75 -39.75 -39.75 -39.55 L-39.8 -39.5 -39.95 -39.2 -41.05 -38.15 M-40.6 -44.3 L-50.9 -44.3 Q-51.6 -44.3 -52.3 -43.6 L-54.1 -41.8 Q-54.8 -41.1 -54.1 -41.1 L-50.5 -41.1 -52.85 -38.75 -56.45 -38.75 Q-57.15 -38.75 -57.9 -38.0 L-59.65 -36.25 Q-60.4 -35.5 -59.7 -35.5 L-49.4 -35.5 Q-48.65 -35.5 -47.9 -36.25 L-46.15 -38.0 Q-45.4 -38.75 -46.15 -38.75 L-49.65 -38.75 -47.3 -41.1 -43.8 -41.1 Q-43.05 -41.1 -42.35 -41.8 L-40.55 -43.6 Q-39.85 -44.3 -40.6 -44.3 M-47.7 -48.2 L-49.5 -46.45 Q-50.2 -45.7 -49.5 -45.7 L-39.2 -45.7 Q-38.45 -45.7 -37.75 -46.45 L-35.95 -48.2 Q-35.25 -48.95 -36.0 -48.95 L-46.3 -48.95 Q-47.0 -48.95 -47.7 -48.2 M-80.3 -14.4 L-80.4 -14.35 -80.6 -14.25 -81.55 -13.65 -82.4 -13.05 -83.55 -12.2 -84.6 -11.3 -84.95 -10.95 -86.45 -9.15 -87.15 -7.75 -87.2 -7.5 Q-87.3 -6.3 -85.85 -6.3 -84.85 -6.3 -83.55 -6.8 L-82.4 -7.35 -82.1 -7.5 -81.9 -7.6 -81.85 -7.7 Q-79.9 -8.75 -78.2 -10.3 L-78.0 -10.5 -77.7 -10.65 -77.45 -10.95 -76.95 -11.3 -76.9 -11.35 -76.25 -11.55 -76.15 -11.5 Q-76.0 -11.5 -76.15 -11.35 -76.15 -11.05 -77.05 -10.3 L-78.0 -9.55 -78.4 -9.05 -78.75 -7.0 Q-78.8 -6.75 -78.35 -7.0 L-78.25 -7.05 -78.05 -7.15 -76.15 -8.3 -75.1 -9.15 -74.05 -10.05 -73.7 -10.45 -72.1 -12.2 Q-71.55 -13.0 -71.55 -13.65 L-71.55 -13.8 Q-71.3 -15.1 -72.75 -15.1 -73.75 -15.1 -75.15 -14.5 L-76.2 -14.0 -76.5 -13.85 -76.7 -13.75 -76.85 -13.7 -80.5 -11.1 -80.7 -10.85 -80.9 -10.65 -81.15 -10.45 -81.7 -10.0 -82.3 -9.8 -82.4 -9.85 -82.5 -10.0 -81.6 -11.1 -81.15 -11.4 -80.65 -11.8 -80.2 -12.3 -79.95 -14.4 Q-79.9 -14.6 -80.3 -14.4 M-67.7 -8.95 L-68.95 -8.5 -68.9 -8.6 -68.8 -8.7 -68.6 -8.9 -68.15 -9.15 -67.75 -9.35 -67.65 -9.25 -67.6 -9.15 -67.7 -8.95 M-35.45 -44.95 L-32.15 -48.25 Q-31.7 -48.75 -32.15 -48.75 L-33.35 -48.75 Q-33.9 -48.75 -34.35 -48.25 L-39.45 -43.2 Q-39.9 -42.7 -39.35 -42.7 L-32.35 -42.7 Q-31.8 -42.7 -31.35 -43.2 L-26.25 -48.25 Q-25.75 -48.8 -26.2 -48.8 L-27.5 -48.8 Q-27.95 -48.8 -28.45 -48.25 L-31.75 -44.95 -32.45 -44.95 -30.15 -47.3 Q-29.65 -47.8 -30.2 -47.8 L-31.4 -47.8 Q-31.85 -47.8 -32.35 -47.3 L-34.65 -44.95 -35.45 -44.95" fill="#999999" fill-rule="evenodd" stroke="none"/>
    <path d="M47.25 62.05 L46.7 62.6 Q43.9 65.3 40.65 66.9 L40.2 67.1 38.8 67.7 36.75 68.35 30.45 69.1 30.3 69.1 30.3 67.45 Q33.7 67.45 36.75 66.65 L38.75 66.05 38.8 67.7 38.85 66.0 40.45 65.35 40.65 65.25 Q44.2 63.6 47.25 60.65 L47.25 47.85 47.4 47.7 118.9 -23.8 119.55 -24.45 119.55 -11.65 118.6 -10.7 47.25 60.65 47.25 62.05 M47.25 11.45 L118.6 -59.9 119.55 -60.85 119.55 -25.95 119.2 -25.5 118.2 -24.5 107.1 -13.4 Q108.5 -19.3 108.65 -24.9 108.85 -31.05 107.55 -36.85 L106.7 -40.15 106.5 -40.4 106.15 -40.5 105.85 -40.35 59.25 6.25 59.15 6.4 59.1 6.6 59.15 6.75 59.1 34.6 47.25 46.45 47.25 11.45" fill="#6a6a6a" fill-rule="evenodd" stroke="none"/>
    <path d="M-28.9 -21.85 L-29.3 -23.85 -29.3 -25.35 -29.3 -25.5 -29.3 -25.9 Q-28.7 -32.5 -17.85 -38.1 -5.6 -44.4 12.6 -45.8 L18.2 -46.1 19.3 -46.1 Q29.8 -46.3 38.6 -44.4 L38.65 -44.4 44.45 -42.9 Q51.2 -40.8 54.9 -37.9 58.7 -34.95 59.35 -31.15 L59.4 -30.95 59.4 -30.75 59.4 -30.7 59.45 -30.45 59.45 -30.35 59.45 -30.2 59.45 -29.2 Q59.15 -26.5 58.5 -25.45 L58.1 -24.75 Q57.25 -23.35 55.9 -22.0 54.45 -20.55 52.45 -19.15 L52.2 -18.95 52.0 -18.85 51.1 -18.25 49.9 -17.55 48.5 -16.8 47.95 -16.5 Q39.65 -12.2 28.6 -10.15 L22.75 -9.25 19.8 -8.95 17.5 -8.75 16.55 -8.65 16.25 -8.65 7.55 -8.4 7.2 -8.4 6.05 -8.4 Q-5.2 -8.75 -14.4 -11.65 L-14.9 -11.8 -17.15 -12.6 -18.3 -13.05 -19.8 -13.7 -25.25 -17.05 -25.5 -17.25 -25.6 -17.35 Q-27.1 -18.7 -27.9 -20.1 L-27.9 -20.05 -28.3 -20.7 -28.4 -20.9 -28.75 -21.5 -28.9 -21.85 M-28.3 -23.95 Q-28.05 -22.2 -27.05 -20.6 -26.3 -19.3 -24.95 -18.1 -21.4 -14.9 -14.1 -12.6 -0.6 -8.35 17.4 -9.75 35.4 -11.15 47.5 -17.4 52.45 -19.95 55.2 -22.7 L57.25 -25.25 Q58.35 -27.15 58.45 -29.15 L58.45 -29.3 58.45 -30.1 58.45 -30.35 58.4 -30.6 Q57.35 -37.8 44.15 -41.95 30.7 -46.2 12.7 -44.8 -5.3 -43.4 -17.4 -37.2 -27.65 -31.9 -28.3 -25.75 L-28.3 -25.6 -28.3 -25.3 -28.3 -25.2 -28.3 -23.95 M120.95 -62.2 L121.0 -28.6 Q120.8 -27.5 119.55 -25.95 L119.55 -60.85 120.95 -62.2 M121.0 -26.25 L121.0 -13.25 121.0 -13.1 119.55 -11.65 119.55 -24.45 119.95 -24.85 121.0 -26.25 M119.55 -10.35 L119.2 -9.9 118.2 -8.9 47.25 62.05 47.25 60.65 118.6 -10.7 119.55 -11.65 119.55 -10.35 M30.3 53.5 L-115.6 53.5 -118.15 53.35 -118.15 18.15 -115.75 18.25 30.3 18.25 30.3 53.5 M60.1 30.35 L60.1 10.6 Q60.95 14.7 61.1 19.0 L61.1 19.5 61.05 22.75 Q60.85 26.45 60.1 30.35 M6.95 19.65 L0.95 19.65 0.95 25.65 6.95 25.65 6.95 19.65 M6.95 35.65 L0.95 35.65 0.95 41.65 6.95 41.65 6.95 35.65 M6.95 27.65 L0.95 27.65 0.95 33.65 6.95 33.65 6.95 27.65 M6.95 43.65 L0.95 43.65 0.95 49.65 6.95 49.65 6.95 43.65 M30.3 67.45 L-115.75 67.45 -118.15 67.35 -118.15 54.35 -115.6 54.5 30.3 54.5 30.3 67.45 M-1.05 19.65 L-7.05 19.65 -7.05 25.65 -1.05 25.65 -1.05 19.65 M-9.05 19.65 L-15.05 19.65 -15.05 25.65 -9.05 25.65 -9.05 19.65 M-25.05 19.65 L-31.05 19.65 -31.05 25.65 -25.05 25.65 -25.05 19.65 M-17.05 27.65 L-23.05 27.65 -23.05 33.65 -17.05 33.65 -17.05 27.65 M-25.05 27.65 L-31.05 27.65 -31.05 33.65 -25.05 33.65 -25.05 27.65 M-17.05 35.65 L-23.05 35.65 -23.05 41.65 -17.05 41.65 -17.05 35.65 M-25.05 43.65 L-31.05 43.65 -31.05 49.65 -25.05 49.65 -25.05 43.65 M-25.05 35.65 L-31.05 35.65 -31.05 41.65 -25.05 41.65 -25.05 35.65 M-1.05 27.65 L-7.05 27.65 -7.05 33.65 -1.05 33.65 -1.05 27.65 M-1.05 35.65 L-7.05 35.65 -7.05 41.65 -1.05 41.65 -1.05 35.65 M-9.05 27.65 L-15.05 27.65 -15.05 33.65 -9.05 33.65 -9.05 27.65 M-1.05 43.65 L-7.05 43.65 -7.05 49.65 -1.05 49.65 -1.05 43.65 M-9.05 35.65 L-15.05 35.65 -15.05 41.65 -9.05 41.65 -9.05 35.65 M-9.05 43.65 L-15.05 43.65 -15.05 49.65 -9.05 49.65 -9.05 43.65 M-17.05 19.65 L-23.05 19.65 -23.05 25.65 -17.05 25.65 -17.05 19.65 M-17.05 43.65 L-23.05 43.65 -23.05 49.65 -17.05 49.65 -17.05 43.65 M-80.45 51.0 Q-80.15 50.9 -80.2 50.6 L-82.2 45.85 -82.45 45.6 -83.8 45.6 -84.05 45.85 -86.0 50.6 Q-86.1 50.9 -85.8 51.0 L-85.0 51.35 Q-84.65 51.5 -84.5 51.15 L-84.25 50.55 -82.0 50.55 -81.75 51.15 Q-81.6 51.5 -81.25 51.35 L-80.45 51.0 M-61.15 49.3 L-60.25 49.3 -60.05 49.35 -60.0 49.55 -60.05 49.75 -60.25 49.8 -61.15 49.8 -61.15 49.3 M-53.95 46.2 L-53.95 46.15 -54.0 46.15 -54.3 45.95 -54.6 45.8 -55.0 45.65 -55.45 45.6 -55.65 45.6 -56.5 45.7 -57.25 46.1 -57.35 46.2 Q-57.95 46.7 -57.95 47.45 L-57.65 48.3 -57.4 48.6 -57.35 48.65 -57.3 48.75 -57.25 48.75 Q-56.75 49.2 -55.95 49.25 L-55.85 49.25 -55.75 49.3 -55.65 49.3 -55.45 49.35 -55.35 49.55 -55.35 49.6 -55.45 49.75 -55.95 49.8 -56.3 49.7 -56.55 49.75 -57.6 50.6 -57.6 50.8 -57.55 50.85 -56.95 51.2 -56.5 51.35 -56.05 51.4 -55.9 51.4 -55.0 51.3 -54.3 50.9 -54.2 50.8 Q-53.6 50.25 -53.6 49.55 -53.6 49.05 -53.85 48.7 L-54.1 48.4 -54.2 48.3 -54.25 48.25 Q-54.85 47.8 -55.55 47.7 L-55.65 47.7 -55.75 47.7 -55.9 47.7 -56.1 47.65 -56.2 47.45 -56.2 47.35 -56.1 47.25 -55.55 47.15 -55.4 47.2 -55.2 47.3 -54.95 47.25 -53.95 46.35 -53.95 46.2 M-63.45 51.0 Q-63.15 50.9 -63.2 50.6 L-65.2 45.85 -65.45 45.6 -66.8 45.6 -67.05 45.85 -69.0 50.6 Q-69.1 50.9 -68.8 51.0 L-68.0 51.35 Q-67.65 51.5 -67.5 51.15 L-67.25 50.55 -65.0 50.55 -64.75 51.15 Q-64.6 51.5 -64.25 51.35 L-63.45 51.0 M-65.65 48.95 L-66.6 48.95 -66.1 47.8 -65.65 48.95 M-58.4 47.35 Q-58.4 46.6 -58.9 46.1 -59.45 45.6 -60.25 45.6 L-62.4 45.6 Q-62.75 45.6 -62.75 45.95 L-62.75 51.05 -62.4 51.4 -60.25 51.4 Q-59.45 51.4 -58.9 50.9 -58.4 50.35 -58.4 49.65 -58.4 49.05 -58.7 48.65 L-58.75 48.55 -58.8 48.5 -58.75 48.4 -58.7 48.35 Q-58.4 47.9 -58.4 47.35 M-61.15 47.7 L-61.15 47.2 -60.2 47.2 -60.05 47.25 -59.95 47.45 -60.05 47.6 -60.05 47.65 -60.2 47.7 -61.15 47.7 M-69.3 51.05 L-69.3 50.15 Q-69.3 49.8 -69.65 49.8 L-70.85 49.8 -70.85 45.95 Q-70.85 45.6 -71.2 45.6 L-72.1 45.6 Q-72.45 45.6 -72.45 45.95 L-72.45 51.05 -72.1 51.4 -69.65 51.4 Q-69.3 51.4 -69.3 51.05 M-78.15 47.2 L-75.75 47.2 Q-75.35 47.2 -75.35 46.85 L-75.35 45.95 Q-75.35 45.6 -75.75 45.6 L-79.4 45.6 Q-79.75 45.6 -79.75 45.95 L-79.75 51.05 -79.4 51.4 -78.5 51.4 Q-78.15 51.4 -78.15 51.05 L-78.15 49.3 -76.45 49.3 Q-76.1 49.3 -76.1 48.95 L-76.1 48.05 Q-76.1 47.7 -76.45 47.7 L-78.15 47.7 -78.15 47.2 M-82.65 48.95 L-83.6 48.95 -83.1 47.8 -82.65 48.95 M-89.75 47.55 Q-89.4 47.2 -88.85 47.2 -88.3 47.2 -87.9 47.55 -87.5 47.95 -87.5 48.5 -87.5 49.05 -87.9 49.4 -88.3 49.8 -88.85 49.8 -89.4 49.8 -89.75 49.4 -90.15 49.05 -90.15 48.5 -90.15 47.95 -89.75 47.55 M-86.8 50.55 Q-85.9 49.7 -85.9 48.5 -85.9 47.3 -86.8 46.45 -87.6 45.6 -88.85 45.6 -90.05 45.6 -90.9 46.45 -91.75 47.3 -91.75 48.5 -91.75 49.7 -90.9 50.55 -90.05 51.4 -88.85 51.4 -87.6 51.4 -86.8 50.55 M-91.8 51.05 L-91.8 50.15 Q-91.8 49.8 -92.15 49.8 L-93.35 49.8 -93.35 45.95 Q-93.35 45.6 -93.7 45.6 L-94.6 45.6 Q-94.95 45.6 -94.95 45.95 L-94.95 51.05 -94.6 51.4 -92.15 51.4 Q-91.8 51.4 -91.8 51.05 M-95.65 51.0 Q-95.35 50.9 -95.4 50.6 L-97.4 45.85 -97.65 45.6 -99.0 45.6 -99.25 45.85 -101.2 50.6 Q-101.3 50.9 -101.0 51.0 L-100.2 51.35 Q-99.85 51.5 -99.7 51.15 L-99.45 50.55 -97.2 50.55 -96.95 51.15 Q-96.8 51.5 -96.45 51.35 L-95.65 51.0 M-97.85 48.95 L-98.8 48.95 -98.3 47.8 -97.85 48.95 M-101.35 47.2 L-101.6 46.8 -101.95 46.45 Q-102.45 45.9 -103.15 45.7 L-104.0 45.6 Q-105.2 45.6 -106.05 46.45 -106.9 47.3 -106.9 48.5 -106.9 49.7 -106.05 50.55 -105.2 51.4 -104.0 51.4 L-103.05 51.25 -101.95 50.55 Q-101.1 49.7 -101.05 48.5 -101.05 48.3 -101.3 48.3 L-103.8 48.3 Q-104.2 48.3 -104.2 48.65 L-104.2 49.15 Q-104.2 49.55 -103.8 49.55 L-103.2 49.55 -104.0 49.8 Q-104.55 49.8 -104.9 49.4 -105.3 49.05 -105.3 48.5 -105.3 47.95 -104.9 47.55 -104.55 47.2 -104.0 47.2 -103.5 47.2 -103.15 47.5 L-103.1 47.55 -103.05 47.55 -102.95 47.7 -102.85 47.85 Q-102.75 48.0 -102.65 47.95 L-101.5 47.45 -101.35 47.2 M-107.75 45.6 L-108.65 45.6 Q-109.0 45.6 -109.0 45.95 L-109.0 51.05 -108.65 51.4 -107.75 51.4 Q-107.4 51.4 -107.4 51.05 L-107.4 45.95 Q-107.4 45.6 -107.75 45.6 M-109.7 47.2 L-109.95 46.8 -110.3 46.45 Q-110.8 45.9 -111.5 45.7 L-112.35 45.6 Q-113.55 45.6 -114.4 46.45 -115.25 47.3 -115.25 48.5 -115.25 49.7 -114.4 50.55 -113.55 51.4 -112.35 51.4 L-111.4 51.25 Q-110.8 51.05 -110.3 50.55 -109.45 49.7 -109.4 48.5 -109.4 48.3 -109.65 48.3 L-112.15 48.3 Q-112.55 48.3 -112.55 48.65 L-112.55 49.15 Q-112.55 49.55 -112.15 49.55 L-111.55 49.55 -112.35 49.8 Q-112.9 49.8 -113.25 49.4 -113.65 49.05 -113.65 48.5 -113.65 47.95 -113.25 47.55 -112.9 47.2 -112.35 47.2 -111.85 47.2 -111.5 47.5 L-111.45 47.55 -111.4 47.55 -111.3 47.7 -111.2 47.85 -111.0 47.95 -109.85 47.45 -109.7 47.2" fill="#626262" fill-rule="evenodd" stroke="none"/>
    <path d="M-75.15 -6.45 L-75.15 -6.55 -75.2 -6.65 -74.75 -7.7 -73.7 -8.9 -73.45 -9.1 -72.75 -9.75 -71.95 -10.35 -71.35 -10.75 -70.7 -11.15 -70.55 -11.2 -70.5 -11.25 -70.3 -11.25 -70.4 -9.8 -70.75 -9.5 -71.05 -9.2 -71.35 -9.0 -72.0 -8.25 -71.95 -8.15 -71.85 -8.1 -71.45 -8.25 -71.05 -8.55 -70.9 -8.7 -70.75 -8.85 -70.55 -9.0 Q-69.5 -10.0 -68.05 -10.75 L-68.0 -10.8 -67.85 -10.95 -67.7 -11.0 -66.95 -11.35 -65.35 -11.75 Q-64.35 -11.75 -64.45 -10.85 L-64.45 -10.7 -64.75 -9.9 -64.85 -9.75 -65.95 -8.55 -66.15 -8.3 -66.9 -7.7 Q-67.25 -7.35 -67.7 -7.1 L-68.95 -6.3 -69.0 -6.25 -69.15 -6.2 -69.35 -6.2 -69.15 -7.6 -68.9 -7.95 -68.25 -8.4 -67.7 -8.95 -67.6 -9.15 -67.65 -9.25 -67.75 -9.35 -68.15 -9.15 -68.6 -8.9 -68.8 -8.7 -68.9 -8.6 -68.95 -8.5 -69.05 -8.4 Q-70.1 -7.4 -71.55 -6.65 L-71.6 -6.6 -71.7 -6.55 Q-71.75 -6.5 -71.95 -6.45 -72.3 -6.25 -72.7 -6.1 L-74.25 -5.7 Q-75.2 -5.7 -75.15 -6.45 M121.0 -28.6 L121.0 -26.25 119.95 -24.85 119.55 -24.45 118.9 -23.8 47.4 47.7 47.25 47.85 Q44.2 50.75 40.65 52.4 L40.6 52.4 Q39.95 52.7 39.3 52.95 L38.25 53.35 36.75 53.75 30.45 54.5 30.3 54.5 -115.6 54.5 -118.15 54.35 Q-119.95 54.1 -120.9 53.5 L-120.9 51.85 -120.85 52.0 Q-120.4 53.0 -118.15 53.35 L-115.6 53.5 30.3 53.5 30.45 53.5 36.75 52.75 38.2 52.3 39.35 51.9 40.2 51.5 40.65 51.3 Q43.9 49.7 46.7 47.0 L47.25 46.45 59.1 34.6 59.15 6.75 59.1 6.6 59.15 6.4 59.25 6.25 105.85 -40.35 106.15 -40.5 106.5 -40.4 106.7 -40.15 107.55 -36.85 Q108.85 -31.05 108.65 -24.9 108.5 -19.3 107.1 -13.4 L118.2 -24.5 119.2 -25.5 119.55 -25.95 Q120.8 -27.5 121.0 -28.6 M60.5 33.2 L105.75 -12.05 Q107.35 -18.1 107.65 -23.85 107.9 -30.15 106.7 -36.0 L105.95 -39.05 60.15 6.75 60.1 10.6 60.1 30.35 60.1 33.6 60.5 33.2 M-80.3 -14.4 Q-79.9 -14.6 -79.95 -14.4 L-80.2 -12.3 -80.65 -11.8 -81.15 -11.4 -81.6 -11.1 -82.5 -10.0 -82.4 -9.85 -82.3 -9.8 -81.7 -10.0 -81.15 -10.45 -80.9 -10.65 -80.7 -10.85 -80.5 -11.1 -76.85 -13.7 -76.7 -13.75 -76.5 -13.85 -76.2 -14.0 -75.15 -14.5 Q-73.75 -15.1 -72.75 -15.1 -71.3 -15.1 -71.55 -13.8 L-71.55 -13.65 Q-71.55 -13.0 -72.1 -12.2 L-73.7 -10.45 -74.05 -10.05 -75.1 -9.15 -76.15 -8.3 -78.05 -7.15 -78.25 -7.05 -78.35 -7.0 Q-78.8 -6.75 -78.75 -7.0 L-78.4 -9.05 -78.0 -9.55 -77.05 -10.3 Q-76.15 -11.05 -76.15 -11.35 -76.0 -11.5 -76.15 -11.5 L-76.25 -11.55 -76.9 -11.35 -76.95 -11.3 -77.45 -10.95 -77.7 -10.65 -78.0 -10.5 -78.2 -10.3 Q-79.9 -8.75 -81.85 -7.7 L-81.9 -7.6 -82.1 -7.5 -82.4 -7.35 -83.55 -6.8 Q-84.85 -6.3 -85.85 -6.3 -87.3 -6.3 -87.2 -7.5 L-87.15 -7.75 -86.45 -9.15 -84.95 -10.95 -84.6 -11.3 -83.55 -12.2 -82.4 -13.05 -81.55 -13.65 -80.6 -14.25 -80.4 -14.35 -80.3 -14.4 M-47.7 -48.2 Q-47.0 -48.95 -46.3 -48.95 L-36.0 -48.95 Q-35.25 -48.95 -35.95 -48.2 L-37.75 -46.45 Q-38.45 -45.7 -39.2 -45.7 L-49.5 -45.7 Q-50.2 -45.7 -49.5 -46.45 L-47.7 -48.2 M-40.6 -44.3 Q-39.85 -44.3 -40.55 -43.6 L-42.35 -41.8 Q-43.05 -41.1 -43.8 -41.1 L-47.3 -41.1 -49.65 -38.75 -46.15 -38.75 Q-45.4 -38.75 -46.15 -38.0 L-47.9 -36.25 Q-48.65 -35.5 -49.4 -35.5 L-59.7 -35.5 Q-60.4 -35.5 -59.65 -36.25 L-57.9 -38.0 Q-57.15 -38.75 -56.45 -38.75 L-52.85 -38.75 -50.5 -41.1 -54.1 -41.1 Q-54.8 -41.1 -54.1 -41.8 L-52.3 -43.6 Q-51.6 -44.3 -50.9 -44.3 L-40.6 -44.3 M-41.05 -38.15 L-39.95 -39.2 -39.8 -39.5 -39.75 -39.55 Q-39.75 -39.75 -40.05 -39.75 L-40.6 -39.55 -40.75 -39.5 -41.3 -39.15 -42.3 -38.15 -41.05 -38.15 M-37.85 -41.9 Q-36.65 -41.9 -36.7 -41.1 L-36.65 -41.0 -36.65 -40.9 -36.7 -40.75 -34.3 -41.8 Q-33.6 -42.15 -33.7 -41.7 L-33.95 -40.75 -34.1 -40.4 -34.55 -40.1 -38.7 -38.3 -38.85 -38.15 -36.95 -38.15 Q-36.4 -38.15 -36.9 -37.6 L-38.15 -36.35 Q-38.6 -35.9 -39.15 -35.9 L-46.15 -35.9 Q-46.7 -35.9 -46.25 -36.35 L-43.4 -39.2 -43.3 -39.3 -43.25 -39.35 -40.65 -41.1 Q-39.0 -41.9 -37.85 -41.9 M-60.9 -33.8 Q-60.5 -34.0 -60.55 -33.8 L-60.85 -31.75 Q-60.8 -31.5 -61.25 -31.2 L-61.8 -30.8 -62.2 -30.5 -63.1 -29.45 -63.05 -29.25 -62.95 -29.2 -62.3 -29.45 -61.75 -29.85 -61.55 -30.05 -61.3 -30.3 -61.1 -30.5 Q-59.45 -32.0 -57.45 -33.1 L-57.3 -33.15 -57.15 -33.25 -56.8 -33.45 -55.75 -33.9 Q-54.35 -34.5 -53.35 -34.5 -51.9 -34.5 -52.15 -33.2 L-52.15 -33.05 Q-52.2 -32.4 -52.75 -31.6 L-54.3 -29.85 -54.65 -29.5 -55.7 -28.6 -56.75 -27.75 -58.65 -26.55 -58.85 -26.45 -58.95 -26.4 Q-59.4 -26.2 -59.35 -26.4 L-59.05 -28.45 -58.6 -28.95 -57.65 -29.7 Q-56.75 -30.45 -56.75 -30.75 -56.65 -30.95 -56.8 -30.95 L-56.85 -31.0 -57.5 -30.75 -57.55 -30.7 -58.05 -30.35 -58.35 -30.05 -58.6 -29.9 -58.8 -29.7 Q-60.5 -28.15 -62.45 -27.1 L-62.5 -27.05 -62.7 -26.95 -63.05 -26.75 -64.15 -26.25 Q-65.45 -25.7 -66.45 -25.7 -67.9 -25.7 -67.8 -26.95 L-67.75 -27.15 -67.05 -28.6 -65.55 -30.35 -65.2 -30.7 -64.2 -31.6 -63.05 -32.45 -62.15 -33.05 -61.2 -33.65 -61.0 -33.75 -60.9 -33.8 M-50.5 -27.0 Q-49.25 -27.0 -49.25 -26.15 -49.3 -25.2 -50.5 -24.0 -51.8 -22.7 -53.55 -21.85 -55.3 -20.95 -56.6 -20.95 L-61.1 -20.95 Q-61.65 -20.95 -61.15 -21.45 L-59.95 -22.65 Q-59.4 -23.2 -58.85 -23.2 L-54.3 -23.2 -53.45 -23.4 -52.7 -23.95 Q-52.35 -24.3 -52.3 -24.55 L-52.7 -24.8 -57.25 -24.8 Q-57.8 -24.8 -57.3 -25.25 L-56.1 -26.5 Q-55.6 -27.0 -55.05 -27.0 L-50.5 -27.0 M-40.2 -34.85 L-40.85 -33.75 Q-41.15 -33.35 -41.7 -33.1 L-42.85 -32.8 -46.05 -29.6 -45.55 -29.25 Q-45.4 -29.05 -46.0 -28.6 L-47.6 -27.45 Q-48.1 -27.1 -48.35 -27.2 L-52.3 -29.9 Q-52.55 -30.0 -52.3 -30.3 L-50.5 -32.1 -49.75 -32.45 -40.35 -35.2 Q-39.9 -35.3 -40.2 -34.85 M-46.1 -31.85 L-48.35 -31.2 -47.45 -30.5 -46.1 -31.85 M-63.8 -24.75 Q-62.0 -24.75 -62.0 -23.45 -61.95 -22.2 -63.75 -20.35 -65.65 -18.5 -68.15 -17.25 -70.8 -15.95 -72.6 -15.95 L-79.25 -15.95 Q-79.95 -15.95 -79.2 -16.7 L-77.45 -18.45 Q-76.7 -19.2 -76.0 -19.2 L-69.2 -19.2 -68.05 -19.5 -66.95 -20.3 Q-66.4 -20.85 -66.4 -21.15 -66.4 -21.55 -66.85 -21.55 L-73.65 -21.55 Q-74.35 -21.55 -73.65 -22.25 L-71.85 -24.05 Q-71.15 -24.75 -70.45 -24.75 L-63.8 -24.75 M-55.5 -19.15 Q-55.5 -19.0 -55.65 -18.8 L-56.15 -18.5 -56.9 -18.15 Q-57.25 -17.2 -58.35 -16.15 -60.0 -14.5 -62.35 -13.35 -64.7 -12.15 -66.4 -12.15 -68.1 -12.15 -68.05 -13.35 -68.1 -14.5 -66.45 -16.15 -64.8 -17.8 -62.4 -19.0 -60.1 -20.15 -58.4 -20.15 -57.35 -20.15 -56.85 -19.65 L-56.25 -20.0 Q-55.5 -20.35 -55.55 -20.0 L-55.5 -19.15 M-64.95 -14.85 Q-64.95 -14.45 -64.45 -14.35 L-64.3 -14.35 -64.2 -14.35 Q-63.45 -14.35 -62.35 -14.85 L-60.55 -16.15 -60.45 -16.25 -60.3 -16.35 -60.45 -16.3 Q-61.25 -15.95 -61.15 -16.3 L-61.2 -17.15 -61.05 -17.5 -60.7 -17.8 -60.3 -17.95 -60.4 -17.95 -60.55 -17.95 -62.4 -17.45 -64.25 -16.15 -64.35 -16.05 -64.35 -15.95 Q-65.0 -15.3 -64.95 -14.85 M-35.45 -44.95 L-34.65 -44.95 -32.35 -47.3 Q-31.85 -47.8 -31.4 -47.8 L-30.2 -47.8 Q-29.65 -47.8 -30.15 -47.3 L-32.45 -44.95 -31.75 -44.95 -28.45 -48.25 Q-27.95 -48.8 -27.5 -48.8 L-26.2 -48.8 Q-25.75 -48.8 -26.25 -48.25 L-31.35 -43.2 Q-31.8 -42.7 -32.35 -42.7 L-39.35 -42.7 Q-39.9 -42.7 -39.45 -43.2 L-34.35 -48.25 Q-33.9 -48.75 -33.35 -48.75 L-32.15 -48.75 Q-31.7 -48.75 -32.15 -48.25 L-35.45 -44.95" fill="#4f4f4f" fill-rule="evenodd" stroke="none"/>
    <path d="M121.0 -13.1 Q120.9 -12.0 119.55 -10.35 L119.55 -11.65 121.0 -13.1 M30.3 69.1 L-115.6 69.1 -118.15 68.95 -118.15 67.35 -115.75 67.45 30.3 67.45 30.3 69.1 M-120.85 66.6 L-120.85 66.45 -120.9 53.5 Q-119.95 54.1 -118.15 54.35 L-118.15 67.35 Q-119.95 67.1 -120.85 66.6 M-120.9 51.85 L-121.0 17.3 Q-120.05 17.9 -118.15 18.15 L-118.15 53.35 Q-120.4 53.0 -120.85 52.0 L-120.9 51.85" fill="#565656" fill-rule="evenodd" stroke="none"/>
    <path d="M60.95 9.8 L105.35 -34.6 Q106.5 -28.85 106.35 -22.55 L62.05 21.75 Q62.25 15.55 60.95 9.8" fill="#7e7e7e" fill-rule="evenodd" stroke="none"/>
    <path d="M6.95 19.65 L6.95 25.65 0.95 25.65 0.95 19.65 6.95 19.65 M5.95 20.65 L1.95 20.65 1.95 24.65 5.95 24.65 5.95 20.65 M6.95 35.65 L6.95 41.65 0.95 41.65 0.95 35.65 6.95 35.65 M5.95 28.65 L1.95 28.65 1.95 32.65 5.95 32.65 5.95 28.65 M5.95 36.65 L1.95 36.65 1.95 40.65 5.95 40.65 5.95 36.65 M6.95 43.65 L6.95 49.65 0.95 49.65 0.95 43.65 6.95 43.65 M6.95 27.65 L6.95 33.65 0.95 33.65 0.95 27.65 6.95 27.65 M5.95 44.65 L1.95 44.65 1.95 48.65 5.95 48.65 5.95 44.65 M-10.05 20.65 L-14.05 20.65 -14.05 24.65 -10.05 24.65 -10.05 20.65 M-18.05 20.65 L-22.05 20.65 -22.05 24.65 -18.05 24.65 -18.05 20.65 M-1.05 19.65 L-1.05 25.65 -7.05 25.65 -7.05 19.65 -1.05 19.65 M-2.05 20.65 L-6.05 20.65 -6.05 24.65 -2.05 24.65 -2.05 20.65 M-25.05 19.65 L-25.05 25.65 -31.05 25.65 -31.05 19.65 -25.05 19.65 M-9.05 19.65 L-9.05 25.65 -15.05 25.65 -15.05 19.65 -9.05 19.65 M-26.05 36.65 L-30.05 36.65 -30.05 40.65 -26.05 40.65 -26.05 36.65 M-26.05 20.65 L-30.05 20.65 -30.05 24.65 -26.05 24.65 -26.05 20.65 M-17.05 27.65 L-17.05 33.65 -23.05 33.65 -23.05 27.65 -17.05 27.65 M-26.05 28.65 L-30.05 28.65 -30.05 32.65 -26.05 32.65 -26.05 28.65 M-18.05 28.65 L-22.05 28.65 -22.05 32.65 -18.05 32.65 -18.05 28.65 M-25.05 27.65 L-25.05 33.65 -31.05 33.65 -31.05 27.65 -25.05 27.65 M-18.05 36.65 L-22.05 36.65 -22.05 40.65 -18.05 40.65 -18.05 36.65 M-26.05 44.65 L-30.05 44.65 -30.05 48.65 -26.05 48.65 -26.05 44.65 M-18.05 44.65 L-22.05 44.65 -22.05 48.65 -18.05 48.65 -18.05 44.65 M-1.05 35.65 L-1.05 41.65 -7.05 41.65 -7.05 35.65 -1.05 35.65 M-1.05 27.65 L-1.05 33.65 -7.05 33.65 -7.05 27.65 -1.05 27.65 M-25.05 35.65 L-25.05 41.65 -31.05 41.65 -31.05 35.65 -25.05 35.65 M-25.05 43.65 L-25.05 49.65 -31.05 49.65 -31.05 43.65 -25.05 43.65 M-17.05 35.65 L-17.05 41.65 -23.05 41.65 -23.05 35.65 -17.05 35.65 M-10.05 28.65 L-14.05 28.65 -14.05 32.65 -10.05 32.65 -10.05 28.65 M-9.05 27.65 L-9.05 33.65 -15.05 33.65 -15.05 27.65 -9.05 27.65 M-2.05 44.65 L-6.05 44.65 -6.05 48.65 -2.05 48.65 -2.05 44.65 M-10.05 44.65 L-14.05 44.65 -14.05 48.65 -10.05 48.65 -10.05 44.65 M-2.05 28.65 L-6.05 28.65 -6.05 32.65 -2.05 32.65 -2.05 28.65 M-2.05 36.65 L-6.05 36.65 -6.05 40.65 -2.05 40.65 -2.05 36.65 M-1.05 43.65 L-1.05 49.65 -7.05 49.65 -7.05 43.65 -1.05 43.65 M-10.05 36.65 L-14.05 36.65 -14.05 40.65 -10.05 40.65 -10.05 36.65 M-17.05 43.65 L-17.05 49.65 -23.05 49.65 -23.05 43.65 -17.05 43.65 M-17.05 19.65 L-17.05 25.65 -23.05 25.65 -23.05 19.65 -17.05 19.65 M-9.05 43.65 L-9.05 49.65 -15.05 49.65 -15.05 43.65 -9.05 43.65 M-9.05 35.65 L-9.05 41.65 -15.05 41.65 -15.05 35.65 -9.05 35.65 M-78.15 47.2 L-78.15 47.7 -76.45 47.7 Q-76.1 47.7 -76.1 48.05 L-76.1 48.95 Q-76.1 49.3 -76.45 49.3 L-78.15 49.3 -78.15 51.05 Q-78.15 51.4 -78.5 51.4 L-79.4 51.4 -79.75 51.05 -79.75 45.95 Q-79.75 45.6 -79.4 45.6 L-75.75 45.6 Q-75.35 45.6 -75.35 45.95 L-75.35 46.85 Q-75.35 47.2 -75.75 47.2 L-78.15 47.2 M-69.3 51.05 Q-69.3 51.4 -69.65 51.4 L-72.1 51.4 -72.45 51.05 -72.45 45.95 Q-72.45 45.6 -72.1 45.6 L-71.2 45.6 Q-70.85 45.6 -70.85 45.95 L-70.85 49.8 -69.65 49.8 Q-69.3 49.8 -69.3 50.15 L-69.3 51.05 M-61.15 47.7 L-60.2 47.7 -60.05 47.65 -60.05 47.6 -59.95 47.45 -60.05 47.25 -60.2 47.2 -61.15 47.2 -61.15 47.7 M-58.4 47.35 Q-58.4 47.9 -58.7 48.35 L-58.75 48.4 -58.8 48.5 -58.75 48.55 -58.7 48.65 Q-58.4 49.05 -58.4 49.65 -58.4 50.35 -58.9 50.9 -59.45 51.4 -60.25 51.4 L-62.4 51.4 -62.75 51.05 -62.75 45.95 Q-62.75 45.6 -62.4 45.6 L-60.25 45.6 Q-59.45 45.6 -58.9 46.1 -58.4 46.6 -58.4 47.35 M-65.65 48.95 L-66.1 47.8 -66.6 48.95 -65.65 48.95 M-63.45 51.0 L-64.25 51.35 Q-64.6 51.5 -64.75 51.15 L-65.0 50.55 -67.25 50.55 -67.5 51.15 Q-67.65 51.5 -68.0 51.35 L-68.8 51.0 Q-69.1 50.9 -69.0 50.6 L-67.05 45.85 -66.8 45.6 -65.45 45.6 -65.2 45.85 -63.2 50.6 Q-63.15 50.9 -63.45 51.0 M-53.95 46.2 L-53.95 46.35 -54.95 47.25 -55.2 47.3 -55.4 47.2 -55.55 47.15 -56.1 47.25 -56.2 47.35 -56.2 47.45 -56.1 47.65 -55.9 47.7 -55.75 47.7 -55.65 47.7 -55.55 47.7 Q-54.85 47.8 -54.25 48.25 L-54.2 48.3 -54.1 48.4 -53.85 48.7 Q-53.6 49.05 -53.6 49.55 -53.6 50.25 -54.2 50.8 L-54.3 50.9 -55.0 51.3 -55.9 51.4 -56.05 51.4 -56.5 51.35 -56.95 51.2 -57.55 50.85 -57.6 50.8 -57.6 50.6 -56.55 49.75 -56.3 49.7 -55.95 49.8 -55.45 49.75 -55.35 49.6 -55.35 49.55 -55.45 49.35 -55.65 49.3 -55.75 49.3 -55.85 49.25 -55.95 49.25 Q-56.75 49.2 -57.25 48.75 L-57.3 48.75 -57.35 48.65 -57.4 48.6 -57.65 48.3 -57.95 47.45 Q-57.95 46.7 -57.35 46.2 L-57.25 46.1 -56.5 45.7 -55.65 45.6 -55.45 45.6 -55.0 45.65 -54.6 45.8 -54.3 45.95 -54.0 46.15 -53.95 46.15 -53.95 46.2 M-61.15 49.3 L-61.15 49.8 -60.25 49.8 -60.05 49.75 -60.0 49.55 -60.05 49.35 -60.25 49.3 -61.15 49.3 M-80.45 51.0 L-81.25 51.35 Q-81.6 51.5 -81.75 51.15 L-82.0 50.55 -84.25 50.55 -84.5 51.15 Q-84.65 51.5 -85.0 51.35 L-85.8 51.0 Q-86.1 50.9 -86.0 50.6 L-84.05 45.85 -83.8 45.6 -82.45 45.6 -82.2 45.85 -80.2 50.6 Q-80.15 50.9 -80.45 51.0 M-109.7 47.2 L-109.85 47.45 -111.0 47.95 -111.2 47.85 -111.3 47.7 -111.4 47.55 -111.45 47.55 -111.5 47.5 Q-111.85 47.2 -112.35 47.2 -112.9 47.2 -113.25 47.55 -113.65 47.95 -113.65 48.5 -113.65 49.05 -113.25 49.4 -112.9 49.8 -112.35 49.8 L-111.55 49.55 -112.15 49.55 Q-112.55 49.55 -112.55 49.15 L-112.55 48.65 Q-112.55 48.3 -112.15 48.3 L-109.65 48.3 Q-109.4 48.3 -109.4 48.5 -109.45 49.7 -110.3 50.55 -110.8 51.05 -111.4 51.25 L-112.35 51.4 Q-113.55 51.4 -114.4 50.55 -115.25 49.7 -115.25 48.5 -115.25 47.3 -114.4 46.45 -113.55 45.6 -112.35 45.6 L-111.5 45.7 Q-110.8 45.9 -110.3 46.45 L-109.95 46.8 -109.7 47.2 M-107.75 45.6 Q-107.4 45.6 -107.4 45.95 L-107.4 51.05 Q-107.4 51.4 -107.75 51.4 L-108.65 51.4 -109.0 51.05 -109.0 45.95 Q-109.0 45.6 -108.65 45.6 L-107.75 45.6 M-101.35 47.2 L-101.5 47.45 -102.65 47.95 Q-102.75 48.0 -102.85 47.85 L-102.95 47.7 -103.05 47.55 -103.1 47.55 -103.15 47.5 Q-103.5 47.2 -104.0 47.2 -104.55 47.2 -104.9 47.55 -105.3 47.95 -105.3 48.5 -105.3 49.05 -104.9 49.4 -104.55 49.8 -104.0 49.8 L-103.2 49.55 -103.8 49.55 Q-104.2 49.55 -104.2 49.15 L-104.2 48.65 Q-104.2 48.3 -103.8 48.3 L-101.3 48.3 Q-101.05 48.3 -101.05 48.5 -101.1 49.7 -101.95 50.55 L-103.05 51.25 -104.0 51.4 Q-105.2 51.4 -106.05 50.55 -106.9 49.7 -106.9 48.5 -106.9 47.3 -106.05 46.45 -105.2 45.6 -104.0 45.6 L-103.15 45.7 Q-102.45 45.9 -101.95 46.45 L-101.6 46.8 -101.35 47.2 M-97.85 48.95 L-98.3 47.8 -98.8 48.95 -97.85 48.95 M-95.65 51.0 L-96.45 51.35 Q-96.8 51.5 -96.95 51.15 L-97.2 50.55 -99.45 50.55 -99.7 51.15 Q-99.85 51.5 -100.2 51.35 L-101.0 51.0 Q-101.3 50.9 -101.2 50.6 L-99.25 45.85 -99.0 45.6 -97.65 45.6 -97.4 45.85 -95.4 50.6 Q-95.35 50.9 -95.65 51.0 M-91.8 51.05 Q-91.8 51.4 -92.15 51.4 L-94.6 51.4 -94.95 51.05 -94.95 45.95 Q-94.95 45.6 -94.6 45.6 L-93.7 45.6 Q-93.35 45.6 -93.35 45.95 L-93.35 49.8 -92.15 49.8 Q-91.8 49.8 -91.8 50.15 L-91.8 51.05 M-86.8 50.55 Q-87.6 51.4 -88.85 51.4 -90.05 51.4 -90.9 50.55 -91.75 49.7 -91.75 48.5 -91.75 47.3 -90.9 46.45 -90.05 45.6 -88.85 45.6 -87.6 45.6 -86.8 46.45 -85.9 47.3 -85.9 48.5 -85.9 49.7 -86.8 50.55 M-89.75 47.55 Q-90.15 47.95 -90.15 48.5 -90.15 49.05 -89.75 49.4 -89.4 49.8 -88.85 49.8 -88.3 49.8 -87.9 49.4 -87.5 49.05 -87.5 48.5 -87.5 47.95 -87.9 47.55 -88.3 47.2 -88.85 47.2 -89.4 47.2 -89.75 47.55 M-82.65 48.95 L-83.1 47.8 -83.6 48.95 -82.65 48.95" fill="#383838" fill-rule="evenodd" stroke="none"/>
    <path d="M5.95 20.65 L5.95 24.65 1.95 24.65 1.95 20.65 5.95 20.65 M5.95 36.65 L5.95 40.65 1.95 40.65 1.95 36.65 5.95 36.65 M5.95 28.65 L5.95 32.65 1.95 32.65 1.95 28.65 5.95 28.65 M5.95 44.65 L5.95 48.65 1.95 48.65 1.95 44.65 5.95 44.65 M-18.05 20.65 L-18.05 24.65 -22.05 24.65 -22.05 20.65 -18.05 20.65 M-10.05 20.65 L-10.05 24.65 -14.05 24.65 -14.05 20.65 -10.05 20.65 M-2.05 20.65 L-2.05 24.65 -6.05 24.65 -6.05 20.65 -2.05 20.65 M-26.05 20.65 L-26.05 24.65 -30.05 24.65 -30.05 20.65 -26.05 20.65 M-26.05 36.65 L-26.05 40.65 -30.05 40.65 -30.05 36.65 -26.05 36.65 M-18.05 28.65 L-18.05 32.65 -22.05 32.65 -22.05 28.65 -18.05 28.65 M-26.05 28.65 L-26.05 32.65 -30.05 32.65 -30.05 28.65 -26.05 28.65 M-18.05 44.65 L-18.05 48.65 -22.05 48.65 -22.05 44.65 -18.05 44.65 M-26.05 44.65 L-26.05 48.65 -30.05 48.65 -30.05 44.65 -26.05 44.65 M-18.05 36.65 L-18.05 40.65 -22.05 40.65 -22.05 36.65 -18.05 36.65 M-10.05 28.65 L-10.05 32.65 -14.05 32.65 -14.05 28.65 -10.05 28.65 M-2.05 36.65 L-2.05 40.65 -6.05 40.65 -6.05 36.65 -2.05 36.65 M-2.05 28.65 L-2.05 32.65 -6.05 32.65 -6.05 28.65 -2.05 28.65 M-10.05 44.65 L-10.05 48.65 -14.05 48.65 -14.05 44.65 -10.05 44.65 M-2.05 44.65 L-2.05 48.65 -6.05 48.65 -6.05 44.65 -2.05 44.65 M-10.05 36.65 L-10.05 40.65 -14.05 40.65 -14.05 36.65 -10.05 36.65" fill="#171717" fill-rule="evenodd" stroke="none"/>
    <path d="M-118.15 68.95 Q-120.45 68.6 -120.85 67.55 L-120.85 66.6 Q-119.95 67.1 -118.15 67.35 L-118.15 68.95" fill="#484848" fill-rule="evenodd" stroke="none"/>
    <path d="M60.5 33.2 L60.1 33.6 60.1 30.35 Q60.85 26.45 61.05 22.75 L61.1 19.5 61.45 28.45 60.5 33.2" fill="#8a8a8a" fill-rule="evenodd" stroke="none"/>
    <path d="M30.3 15.65 Q33.7 15.65 36.75 14.85 L36.85 17.45 40.45 16.15 40.55 16.1 39.35 51.9 38.2 52.3 36.85 17.45 36.75 17.45 Q33.7 18.25 30.3 18.25 L30.3 15.65 M40.65 13.45 Q44.2 11.8 47.25 8.85 L47.25 11.45 Q44.2 14.4 40.65 16.05 L40.55 16.1 40.65 13.45 M38.25 53.35 L39.3 52.95 38.85 66.0 38.8 67.7 38.75 66.05 38.25 53.35" fill="#8c8c8c" fill-rule="evenodd" stroke="none"/>
    <path d="M-3.3 -39.25 Q-8.95 -37.8 -13.65 -35.7 L-15.0 -35.05 Q-24.45 -30.45 -25.1 -25.3 L-25.1 -25.15 -25.1 -25.05 -25.1 -23.8 -24.95 -23.1 -23.9 -20.95 -23.3 -20.15 Q-20.15 -16.75 -12.0 -14.45 0.5 -11.0 17.2 -12.45 33.9 -13.9 45.1 -19.35 50.9 -22.2 53.45 -25.2 L54.1 -26.0 54.95 -27.75 Q55.35 -28.95 55.25 -30.15 L55.25 -30.25 55.2 -30.55 Q54.25 -36.6 42.1 -39.9 29.6 -43.35 12.9 -41.9 4.0 -41.15 -3.3 -39.25 M-12.25 -13.5 Q-21.05 -15.95 -24.2 -19.7 L-24.35 -19.8 Q-25.5 -21.25 -25.9 -22.85 L-26.1 -23.65 -26.1 -25.2 -26.1 -25.35 -26.1 -25.4 Q-25.55 -31.05 -15.45 -35.95 -4.1 -41.45 12.8 -42.9 29.7 -44.35 42.35 -40.85 55.35 -37.3 56.2 -30.7 L56.2 -30.65 56.25 -30.5 56.25 -30.35 56.25 -30.25 56.25 -30.2 Q56.35 -28.8 55.9 -27.4 L55.9 -27.45 54.55 -24.9 54.45 -24.85 Q51.85 -21.55 45.55 -18.45 34.2 -12.9 17.3 -11.45 0.4 -10.0 -12.25 -13.5" fill="#212121" fill-rule="evenodd" stroke="none"/>
  </g>
</svg>
