<?xml version="1.0" encoding="UTF-8" standalone="no"?>
<svg xmlns:ffdec="https://www.free-decompiler.com/flash" xmlns:xlink="http://www.w3.org/1999/xlink" ffdec:objectType="shape" height="85.25px" width="31.85px" xmlns="http://www.w3.org/2000/svg">
  <g transform="matrix(1.0, 0.0, 0.0, 1.0, 17.45, 137.0)">
    <path d="M-14.5 -120.75 Q-13.95 -124.95 -12.35 -129.0 -10.2 -134.55 -6.9 -136.55 L-4.25 -136.65 -3.7 -136.8 -0.1 -136.7 Q1.85 -136.25 1.25 -135.2 L-0.85 -134.55 -2.35 -133.7 -3.2 -132.95 Q-5.45 -130.9 -5.65 -127.85 -5.85 -124.8 -5.65 -124.3 -5.15 -123.05 -3.65 -122.7 L-2.35 -122.7 Q0.2 -122.85 2.9 -126.8 5.6 -130.7 5.6 -131.6 5.6 -132.45 6.1 -132.85 L6.65 -132.85 6.95 -133.45 10.0 -132.95 14.4 -123.8 14.4 -123.25 14.4 -123.2 13.6 -120.85 Q12.35 -118.7 9.35 -116.15 4.1 -111.85 -7.25 -111.85 -10.75 -111.85 -13.4 -114.75 L-14.4 -116.0 Q-14.95 -117.9 -14.5 -120.75 M5.7 -128.9 Q4.95 -126.7 2.3 -124.2 -0.35 -121.7 -3.7 -121.6 L-5.35 -121.85 Q-7.1 -122.55 -7.1 -125.3 L-7.0 -127.5 -7.0 -127.9 Q-6.85 -130.05 -6.3 -131.35 L-6.0 -131.9 -5.35 -133.1 -4.3 -134.45 -4.2 -134.55 -3.95 -134.85 -6.35 -135.05 -7.5 -134.35 -9.5 -132.15 Q-11.6 -128.95 -12.45 -125.4 L-12.75 -123.95 -13.65 -117.65 -13.65 -116.85 -13.3 -116.15 -11.45 -114.65 -9.5 -113.8 -7.25 -113.1 Q1.65 -113.05 5.35 -114.45 L10.05 -117.65 12.65 -121.1 13.85 -123.65 10.4 -131.6 7.1 -132.0 5.7 -128.9" fill="#464646" fill-rule="evenodd" stroke="none"/>
    <path d="M5.7 -128.9 L9.95 -128.9 7.3 -124.15 Q2.3 -118.45 -6.1 -119.15 L-6.75 -119.25 -8.85 -119.9 -10.75 -120.65 Q-11.1 -120.45 -12.2 -122.75 L-12.75 -123.95 -12.45 -125.4 Q-11.6 -128.95 -9.5 -132.15 L-9.2 -132.05 -8.0 -131.8 -6.45 -131.4 -6.3 -131.35 Q-6.85 -130.05 -7.0 -127.9 L-7.0 -127.5 -7.1 -125.3 Q-7.1 -122.55 -5.35 -121.85 L-3.7 -121.6 Q-0.35 -121.7 2.3 -124.2 4.95 -126.7 5.7 -128.9" fill="#ffffff" fill-rule="evenodd" stroke="none"/>
    <path d="M9.95 -128.9 L5.7 -128.9 7.1 -132.0 10.4 -131.6 10.4 -131.55 9.95 -128.9 M-6.3 -131.35 L-6.45 -131.4 -8.0 -131.8 -9.2 -132.05 -9.5 -132.15 -7.5 -134.35 -6.35 -135.05 -3.95 -134.85 -4.2 -134.55 -4.3 -134.45 -5.35 -133.1 -6.0 -131.9 -6.3 -131.35 M-6.75 -119.25 L-6.1 -119.15 Q2.3 -118.45 7.3 -124.15 L10.05 -117.65 5.35 -114.45 Q1.65 -113.05 -7.25 -113.1 L-6.75 -119.25" fill="#e0e0e0" fill-rule="evenodd" stroke="none"/>
    <path d="M-10.75 -120.65 L-8.85 -119.9 -6.75 -119.25 -7.25 -113.1 -9.5 -113.8 -11.45 -114.65 -10.75 -120.65 M7.3 -124.15 L9.95 -128.9 12.65 -121.1 10.05 -117.65 7.3 -124.15" fill="#b4b4b4" fill-rule="evenodd" stroke="none"/>
    <path d="M-12.75 -123.95 L-12.2 -122.75 Q-11.1 -120.45 -10.75 -120.65 L-11.45 -114.65 -13.3 -116.15 -13.65 -116.85 -13.65 -117.65 -12.75 -123.95 M9.95 -128.9 L10.4 -131.55 10.4 -131.6 13.85 -123.65 12.65 -121.1 9.95 -128.9" fill="#8a8a8a" fill-rule="evenodd" stroke="none"/>
    <path d="M-1.85 -97.8 L3.75 -97.6 6.55 -92.3 4.95 -55.0 1.95 -51.75 -3.25 -52.0 -2.9 -56.75 Q-1.45 -73.8 -1.85 -97.8" fill="#ffffff" fill-rule="evenodd" stroke="none"/>
    <path d="M-3.25 -52.0 L-6.85 -52.2 Q-5.35 -75.2 -5.4 -97.9 L-1.85 -97.8 Q-1.45 -73.8 -2.9 -56.75 L-3.25 -52.0" fill="#e0e0e0" fill-rule="evenodd" stroke="none"/>
    <path d="M-6.85 -52.2 L-14.8 -52.55 -16.15 -54.35 -16.15 -54.45 -14.05 -80.25 Q-13.25 -89.8 -12.8 -98.15 L-5.4 -97.9 Q-5.35 -75.2 -6.85 -52.2" fill="#b4b4b4" fill-rule="evenodd" stroke="none"/>
    <path d="M-16.15 -54.35 L-17.45 -56.05 -16.5 -93.1 -13.75 -98.15 -12.8 -98.15 Q-13.25 -89.8 -14.05 -80.25 L-16.15 -54.45 -16.15 -54.35" fill="#8a8a8a" fill-rule="evenodd" stroke="none"/>
  </g>
</svg>
