<?xml version="1.0" encoding="UTF-8" standalone="no"?>
<svg xmlns:ffdec="https://www.free-decompiler.com/flash" xmlns:xlink="http://www.w3.org/1999/xlink" ffdec:objectType="shape" height="46.8px" width="35.6px" xmlns="http://www.w3.org/2000/svg">
  <g transform="matrix(1.0, 0.0, 0.0, 1.0, 16.45, 25.75)">
    <path d="M-2.55 -2.55 Q-2.7 -4.55 -3.3 -6.85 -4.2 -11.05 -10.1 -21.55 L-1.6 -23.75 Q0.15 -23.75 1.5 -22.45 2.55 -21.45 2.55 -20.95 2.55 -13.3 3.1 -9.5 L3.8 -5.0 3.55 -5.15 Q1.5 -5.5 -0.7 -4.05 L-2.55 -2.55" fill="#e7a867" fill-rule="evenodd" stroke="none"/>
    <path d="M3.8 -5.0 L3.1 -9.5 Q2.55 -13.3 2.55 -20.95 2.55 -21.45 1.5 -22.45 0.15 -23.75 -1.6 -23.75 L-10.1 -21.55 Q-4.2 -11.05 -3.3 -6.85 -2.7 -4.55 -2.55 -2.55 -2.15 0.05 -1.95 4.45 -2.7 4.4 -2.8 3.9 L-2.85 3.95 -3.1 1.85 -3.75 -1.85 -4.1 -3.4 Q-5.5 -8.7 -8.15 -13.95 L-10.95 -18.35 Q-12.55 -20.85 -12.55 -22.2 -12.55 -22.85 -10.35 -24.05 -7.1 -25.75 -1.55 -25.75 3.65 -25.75 4.2 -19.4 L4.5 -13.15 Q4.7 -9.1 5.6 -6.4 L6.0 -4.75 6.5 -3.05 6.45 -3.1 Q6.55 -2.1 7.2 -0.35 L7.85 1.75 7.8 1.85 6.4 3.2 6.25 3.35 Q4.85 0.75 3.8 -5.0" fill="#a46637" fill-rule="evenodd" stroke="none"/>
    <path d="M-2.55 -2.55 L-0.7 -4.05 Q1.5 -5.5 3.55 -5.15 L3.8 -5.0 Q4.85 0.75 6.25 3.35 L5.1 4.2 2.25 5.95 1.8 6.05 Q0.25 6.35 -1.05 6.05 L-1.9 5.65 Q-2.75 4.9 -2.85 3.95 L-2.8 3.9 Q-2.7 4.4 -1.95 4.45 -2.15 0.05 -2.55 -2.55" fill="#f4bb83" fill-rule="evenodd" stroke="none"/>
    <path d="M-0.55 6.7 L-0.5 6.7 0.9 6.85 0.75 7.4 Q-0.4 7.15 -0.7 7.4 L-1.2 8.3 -1.1 9.05 -0.65 9.35 0.05 9.4 0.9 9.2 1.15 8.8 1.55 9.15 1.05 9.75 0.05 10.0 -1.5 8.95 -1.65 8.35 -1.45 7.35 -0.95 6.95 -0.55 6.7" fill="#752a00" fill-rule="evenodd" stroke="none"/>
    <path d="M1.15 8.8 L0.9 9.2 0.05 9.4 -0.65 9.35 -1.1 9.05 -1.2 8.3 -0.7 7.4 Q-0.4 7.15 0.75 7.4 L0.85 8.1 1.15 8.8" fill="#ffd900" fill-rule="evenodd" stroke="none"/>
    <path d="M6.25 3.35 L6.4 3.2 7.8 1.85 7.85 1.75 7.85 0.3 8.15 0.3 Q8.55 1.65 8.55 2.65 8.55 3.8 7.85 5.1 6.8 6.9 4.7 8.2 L3.85 8.6 Q4.15 8.0 4.05 7.25 L5.1 6.5 5.7 5.95 7.65 3.1 7.85 2.3 5.85 4.6 5.35 5.0 3.75 6.05 3.35 6.25 2.25 5.95 5.1 4.2 6.25 3.35 M-3.1 1.85 L-2.85 3.95 Q-2.75 4.9 -1.9 5.65 L-2.5 5.7 -3.15 4.35 Q-3.4 3.3 -3.8 4.55 L-3.15 6.0 -3.75 6.8 -4.05 6.2 -4.4 4.6 -4.1 3.25 -3.1 1.85 M-1.05 6.05 Q0.25 6.35 1.8 6.05 L0.9 6.85 -0.5 6.7 -0.55 6.7 -1.05 6.05" fill="#59431f" fill-rule="evenodd" stroke="none"/>
    <path d="M5.35 5.0 L5.85 4.6 5.7 5.95 5.1 6.5 5.05 6.15 Q5.05 5.7 5.35 5.0 M3.6 6.45 L3.35 6.25 3.75 6.05 3.6 6.45" fill="#c2a069" fill-rule="evenodd" stroke="none"/>
    <path d="M-3.15 6.0 L-3.8 4.55 Q-3.4 3.3 -3.15 4.35 L-2.5 5.7 -3.15 6.0 M-0.5 6.7 L-0.55 6.7 -0.5 6.7 M5.35 5.0 Q5.05 5.7 5.05 6.15 L5.1 6.5 4.05 7.25 3.6 6.45 3.75 6.05 5.35 5.0 M5.7 5.95 L5.85 4.6 7.85 2.3 7.65 3.1 5.7 5.95" fill="#8a6d3e" fill-rule="evenodd" stroke="none"/>
    <path d="M1.8 6.05 L2.25 5.95 3.35 6.25 3.6 6.45 4.05 7.25 Q4.15 8.0 3.85 8.6 L3.4 9.1 2.4 9.35 1.55 9.15 1.15 8.8 0.85 8.1 0.75 7.4 0.9 6.85 1.8 6.05 M3.65 7.65 Q3.65 7.2 3.3 6.9 2.9 6.55 2.4 6.55 1.9 6.55 1.55 6.9 1.15 7.2 1.15 7.65 1.15 8.1 1.55 8.45 1.9 8.75 2.4 8.75 L3.3 8.45 3.65 7.65" fill="#801500" fill-rule="evenodd" stroke="none"/>
    <path d="M3.65 7.65 L3.3 8.45 2.4 8.75 Q1.9 8.75 1.55 8.45 1.15 8.1 1.15 7.65 1.15 7.2 1.55 6.9 1.9 6.55 2.4 6.55 2.9 6.55 3.3 6.9 3.65 7.2 3.65 7.65" fill="#fc4825" fill-rule="evenodd" stroke="none"/>
    <path d="M-3.15 6.0 L-2.5 5.7 -1.9 5.65 -1.05 6.05 -0.55 6.7 -0.95 6.95 -3.25 6.6 -3.3 6.6 -3.4 7.3 -3.35 7.75 -3.75 6.8 -3.15 6.0 M-1.65 8.35 L-1.5 8.95 Q-2.25 8.8 -2.75 8.45 L-2.0 8.45 -1.65 8.35" fill="#384000" fill-rule="evenodd" stroke="none"/>
    <path d="M-0.95 6.95 L-1.45 7.35 -1.65 8.35 -2.0 8.45 -2.75 8.45 -3.05 8.4 -3.2 8.1 -3.35 7.75 -3.4 7.3 -3.3 6.6 -3.25 6.6 -0.95 6.95" fill="#93a603" fill-rule="evenodd" stroke="none"/>
    <path d="M9.5 -1.0 L9.45 -3.1 10.5 -2.55 Q15.5 0.8 16.25 1.75 17.75 3.7 17.35 8.55 L17.3 8.85 13.65 5.0 10.75 2.25 9.4 1.15 9.5 -1.0 M-10.3 11.4 L-11.65 13.0 -15.25 16.85 Q-14.95 15.35 -13.1 10.95 -10.8 5.4 -8.85 3.2 L-8.1 2.3 Q-8.6 2.95 -8.65 5.85 -8.65 9.05 -10.3 11.4" fill="#3c3b35" fill-rule="evenodd" stroke="none"/>
    <path d="M17.3 8.85 Q16.85 11.0 15.05 14.5 12.8 18.95 10.85 19.7 L4.75 12.05 8.15 8.35 Q11.05 5.15 11.05 3.9 L10.75 2.25 13.65 5.0 17.3 8.85" fill="#4d4b43" fill-rule="evenodd" stroke="none"/>
    <path d="M7.85 1.75 L7.2 -0.35 Q6.55 -2.1 6.45 -3.1 L6.5 -3.05 9.5 -1.0 9.4 1.15 Q9.35 3.9 7.85 6.45 6.25 9.15 3.5 10.7 L4.75 12.05 10.85 19.7 Q12.8 18.95 15.05 14.5 16.85 11.0 17.3 8.85 L17.35 8.55 Q17.75 3.7 16.25 1.75 15.5 0.8 10.5 -2.55 L9.5 -3.25 6.0 -4.75 5.6 -6.4 Q13.95 -2.9 16.95 0.3 19.15 2.6 19.15 5.85 19.15 12.4 15.55 17.05 13.0 20.4 10.6 21.05 L9.5 20.85 4.6 14.25 2.8 11.75 -2.05 18.25 -2.75 17.7 0.15 13.0 Q2.4 9.9 4.7 8.2 6.8 6.9 7.85 5.1 8.55 3.8 8.55 2.65 8.55 1.65 8.15 0.3 L7.85 0.3 7.85 1.75 M-4.1 -3.4 L-3.75 -1.85 Q-7.45 0.95 -8.85 3.2 -10.8 5.4 -13.1 10.95 -14.95 15.35 -15.25 16.85 L-11.65 13.0 -10.3 11.4 -8.55 9.55 Q-7.9 9.55 -6.85 10.7 L-4.75 13.2 -5.8 9.9 -5.1 6.7 -4.1 3.25 -4.4 4.6 -4.05 6.2 -4.45 8.7 Q-4.45 10.35 -2.6 15.85 -2.6 16.45 -2.8 16.45 L-3.2 16.35 -8.15 11.3 Q-14.45 18.4 -16.05 19.6 -16.45 19.5 -16.45 18.4 -16.45 13.5 -13.65 7.85 -10.25 0.9 -4.1 -3.4" fill="#1c1b19" fill-rule="evenodd" stroke="none"/>
    <path d="M6.5 -3.05 L6.0 -4.75 9.5 -3.25 10.5 -2.55 9.45 -3.1 9.5 -1.0 6.5 -3.05 M-3.75 -1.85 L-3.1 1.85 -4.1 3.25 -5.1 6.7 -5.8 9.9 -4.75 13.2 -6.85 10.7 Q-7.9 9.55 -8.55 9.55 L-10.3 11.4 Q-8.65 9.05 -8.65 5.85 -8.6 2.95 -8.1 2.3 L-8.85 3.2 Q-7.45 0.95 -3.75 -1.85 M4.6 14.25 L1.2 16.55 Q-1.05 17.9 -2.05 18.25 L2.8 11.75 4.6 14.25" fill="#2c2a26" fill-rule="evenodd" stroke="none"/>
    <path d="M4.75 12.05 L3.5 10.7 Q6.25 9.15 7.85 6.45 9.35 3.9 9.4 1.15 L10.75 2.25 11.05 3.9 Q11.05 5.15 8.15 8.35 L4.75 12.05" fill="#5b5951" fill-rule="evenodd" stroke="none"/>
  </g>
</svg>
