<?xml version="1.0" encoding="UTF-8" standalone="no"?>
<svg xmlns:ffdec="https://www.free-decompiler.com/flash" xmlns:xlink="http://www.w3.org/1999/xlink" ffdec:objectType="shape" height="22.2px" width="24.65px" xmlns="http://www.w3.org/2000/svg">
  <g transform="matrix(1.0, 0.0, 0.0, 1.0, 11.95, 133.3)">
    <path d="M10.35 -126.25 L9.25 -128.45 9.65 -130.1 10.75 -128.3 10.7 -128.05 10.35 -126.25 M-10.45 -122.85 L-11.0 -124.7 -9.8 -128.55 Q-8.55 -131.55 -6.8 -133.3 L-7.25 -132.55 -9.1 -128.65 Q-9.85 -126.7 -9.85 -125.0 L-9.85 -124.8 -10.45 -122.85" fill="#464646" fill-rule="evenodd" stroke="none"/>
    <path d="M5.25 -122.7 L6.2 -121.45 6.3 -121.3 4.2 -119.65 2.9 -118.95 2.85 -119.0 2.05 -120.2 Q3.7 -121.2 5.25 -122.7 M4.0 -115.25 L4.35 -115.0 4.7 -114.05 Q4.7 -113.5 4.35 -113.1 L4.1 -112.85 4.1 -113.4 4.0 -115.25 M8.4 -117.15 L8.55 -116.7 8.5 -115.1 Q8.2 -114.85 7.8 -114.85 7.3 -114.85 6.95 -115.25 6.65 -115.6 6.65 -116.1 6.65 -116.6 6.95 -117.0 7.3 -117.35 7.8 -117.35 L8.4 -117.15 M-5.0 -118.65 L-3.4 -118.65 -3.9 -117.45 -4.55 -117.45 -5.35 -117.5 -5.2 -118.05 -5.0 -118.65 M-6.3 -113.65 L-5.9 -113.35 Q-5.6 -112.95 -5.6 -112.4 -5.6 -111.85 -5.9 -111.5 -6.2 -111.1 -6.6 -111.1 L-6.75 -111.1 -6.3 -113.65" fill="#e0e0e0" fill-rule="evenodd" stroke="none"/>
    <path d="M7.75 -125.7 L9.25 -128.45 10.35 -126.25 Q9.8 -124.25 8.75 -123.4 L8.6 -123.25 7.75 -125.7 M12.7 -119.05 Q12.7 -118.5 12.35 -118.1 12.0 -117.7 11.5 -117.7 11.0 -117.7 10.65 -118.1 10.3 -118.5 10.3 -119.05 10.3 -119.6 10.65 -120.0 11.0 -120.4 11.5 -120.4 12.0 -120.4 12.35 -120.0 12.7 -119.6 12.7 -119.05 M-9.85 -124.8 Q-9.8 -123.0 -9.05 -121.15 -8.35 -119.45 -7.25 -118.85 L-7.45 -118.3 Q-9.35 -119.5 -10.35 -122.55 L-10.45 -122.85 -9.85 -124.8 M-9.65 -114.6 Q-9.65 -114.1 -10.0 -113.8 -10.3 -113.45 -10.8 -113.45 -11.3 -113.45 -11.65 -113.8 L-11.95 -114.6 -11.65 -115.45 Q-11.3 -115.75 -10.8 -115.75 L-10.0 -115.45 Q-9.65 -115.1 -9.65 -114.6" fill="#8a8a8a" fill-rule="evenodd" stroke="none"/>
    <path d="M7.75 -125.7 L8.6 -123.25 6.3 -121.3 6.2 -121.45 5.25 -122.7 6.15 -123.7 7.75 -125.7 M8.5 -115.1 L8.55 -116.7 8.4 -117.15 8.6 -117.0 8.95 -116.1 Q8.95 -115.6 8.6 -115.25 L8.5 -115.1 M-7.25 -118.85 L-5.75 -118.65 -5.0 -118.65 -5.2 -118.05 -5.35 -117.5 Q-6.55 -117.65 -7.45 -118.3 L-7.25 -118.85 M-6.75 -111.1 L-7.3 -111.5 -7.6 -112.4 -7.3 -113.35 Q-7.0 -113.7 -6.6 -113.7 L-6.3 -113.65 -6.75 -111.1" fill="#b4b4b4" fill-rule="evenodd" stroke="none"/>
    <path d="M2.05 -120.2 L2.85 -119.0 2.9 -118.95 Q-0.1 -117.55 -3.9 -117.45 L-3.4 -118.65 -2.6 -118.65 Q-0.15 -118.95 2.05 -120.2 M4.1 -112.85 L3.5 -112.7 Q3.0 -112.7 2.65 -113.1 2.3 -113.5 2.3 -114.05 2.3 -114.6 2.65 -115.0 3.0 -115.4 3.5 -115.4 L4.0 -115.25 4.1 -113.4 4.1 -112.85 M-0.05 -112.6 Q-0.05 -112.1 -0.4 -111.75 -0.75 -111.35 -1.25 -111.35 -1.75 -111.35 -2.1 -111.75 -2.45 -112.1 -2.45 -112.6 L-2.1 -113.5 Q-1.75 -113.85 -1.25 -113.85 L-0.4 -113.5 Q-0.05 -113.1 -0.05 -112.6" fill="#ffffff" fill-rule="evenodd" stroke="none"/>
  </g>
</svg>
