<?xml version="1.0" encoding="UTF-8" standalone="no"?>
<svg xmlns:ffdec="https://www.free-decompiler.com/flash" xmlns:xlink="http://www.w3.org/1999/xlink" ffdec:objectType="shape" height="134.7px" width="80.1px" xmlns="http://www.w3.org/2000/svg">
  <g transform="matrix(1.0, 0.0, 0.0, 1.0, 36.45, 135.85)">
    <path d="M7.7 -132.5 L8.7 -131.35 Q11.1 -128.35 12.75 -124.0 14.7 -118.85 17.6 -107.85 L19.9 -98.75 21.8 -90.35 Q27.7 -71.1 32.35 -52.75 L34.7 -43.3 37.5 -32.05 38.1 -29.5 43.65 -9.5 42.55 -8.65 Q40.0 -6.95 36.8 -5.65 L34.15 -4.7 31.8 -4.05 20.55 -2.0 17.75 -1.7 7.75 -1.15 Q-4.1 -1.25 -15.6 -3.0 L-17.2 -3.25 -17.45 -3.3 -24.05 -4.8 -26.25 -5.4 Q-33.35 -7.6 -35.3 -10.45 L-36.45 -11.7 -33.9 -21.55 -31.9 -29.35 Q-30.45 -34.75 -28.45 -43.3 L-28.4 -43.3 -26.3 -52.75 -21.2 -76.15 Q-14.8 -105.6 -13.4 -113.3 -11.3 -124.85 -9.8 -128.55 -7.35 -134.55 -2.8 -135.6 L-1.85 -135.8 -1.0 -135.85 -0.8 -135.85 -0.7 -135.85 Q2.1 -135.85 4.25 -134.9 5.75 -134.3 6.95 -133.25 L7.7 -132.5 M-6.45 -123.4 Q-6.9 -124.3 -7.0 -125.6 -7.4 -129.9 -5.0 -132.85 L-5.35 -132.6 Q-8.5 -129.7 -9.15 -127.85 -9.9 -125.85 -12.2 -113.45 -14.9 -99.05 -18.15 -83.25 L-26.6 -43.3 Q-29.65 -28.85 -34.25 -13.25 -34.25 -12.1 -33.65 -11.05 -33.05 -10.05 -32.1 -9.55 -29.2 -8.05 -27.7 -7.55 L-14.75 -4.3 Q-13.7 -3.85 -12.15 -3.7 L-3.25 -3.0 2.8 -2.45 6.85 -2.45 13.1 -3.0 19.9 -3.7 32.1 -5.6 Q34.4 -5.8 38.05 -7.8 41.6 -9.75 41.6 -10.55 41.6 -13.5 39.0 -22.75 L29.2 -58.55 19.7 -95.4 18.85 -98.75 13.2 -118.7 Q10.35 -127.45 7.55 -130.9 L7.2 -131.35 6.95 -131.6 Q6.0 -132.65 4.9 -133.3 5.5 -132.6 5.7 -131.7 L5.85 -130.75 Q5.8 -129.3 4.75 -127.45 L3.25 -125.3 1.05 -123.25 Q-0.15 -122.35 -1.5 -121.9 L-2.0 -121.75 -2.45 -121.65 Q-4.4 -121.2 -5.5 -122.15 L-6.45 -123.4 M2.4 -133.5 L0.2 -134.15 -1.35 -134.05 Q-2.6 -133.75 -3.6 -132.6 -6.15 -129.8 -5.75 -125.7 L-5.65 -124.95 Q-5.4 -123.7 -4.75 -123.15 L-2.35 -122.95 -0.4 -123.8 1.95 -125.7 3.7 -128.1 3.65 -128.1 Q4.75 -130.05 4.5 -131.4 L4.05 -132.25 Q3.5 -133.0 2.4 -133.5" fill="#464646" fill-rule="evenodd" stroke="none"/>
    <path d="M5.85 -130.75 L5.7 -131.7 Q5.5 -132.6 4.9 -133.3 6.0 -132.65 6.95 -131.6 L7.2 -131.35 7.55 -130.9 Q10.35 -127.45 13.2 -118.7 L18.85 -98.75 19.7 -95.4 29.2 -58.55 39.0 -22.75 Q41.6 -13.5 41.6 -10.55 41.6 -9.75 38.05 -7.8 34.4 -5.8 32.1 -5.6 L19.9 -3.7 13.1 -3.0 6.85 -2.45 2.8 -2.45 -3.25 -3.0 -12.15 -3.7 Q-13.7 -3.85 -14.75 -4.3 L-27.7 -7.55 Q-29.2 -8.05 -32.1 -9.55 -33.05 -10.05 -33.65 -11.05 -34.25 -12.1 -34.25 -13.25 -29.65 -28.85 -26.6 -43.3 L-18.15 -83.25 Q-14.9 -99.05 -12.2 -113.45 -9.9 -125.85 -9.15 -127.85 -8.5 -129.7 -5.35 -132.6 L-5.0 -132.85 Q-7.4 -129.9 -7.0 -125.6 -6.9 -124.3 -6.45 -123.4 -8.9 -118.65 -10.9 -111.8 -13.5 -102.95 -13.5 -98.6 L-13.05 -97.5 -12.65 -96.45 -14.65 -91.5 Q-16.65 -86.85 -16.65 -83.95 -16.65 -82.85 -15.15 -80.9 L-13.7 -79.1 Q-13.7 -78.8 -15.2 -75.8 -17.55 -71.15 -20.65 -60.6 -19.0 -60.2 -18.6 -59.6 -24.95 -46.9 -24.95 -42.65 -24.95 -42.0 -23.85 -40.95 L-19.85 -37.0 Q-24.9 -36.0 -27.35 -24.75 -28.65 -19.0 -29.35 -12.1 L-22.45 -8.75 -9.2 -6.55 -5.8 -6.25 4.95 -5.8 13.85 -6.2 20.05 -6.6 22.45 -7.05 28.85 -9.65 Q34.45 -9.65 36.65 -10.9 37.8 -11.55 37.8 -12.4 37.8 -15.9 36.75 -20.5 L35.2 -26.95 Q34.55 -30.3 31.45 -35.9 28.5 -40.85 28.5 -41.05 28.5 -44.55 29.25 -45.35 29.95 -45.6 29.95 -46.2 29.95 -48.5 29.15 -51.4 L23.95 -70.15 19.15 -69.3 Q18.85 -69.15 18.85 -70.15 18.85 -73.2 20.2 -74.6 21.5 -75.45 21.5 -75.8 21.5 -81.35 15.2 -97.55 L15.2 -97.85 15.15 -98.75 Q13.25 -111.9 10.85 -120.1 8.65 -127.6 5.85 -130.75" fill="#8a8a8a" fill-rule="evenodd" stroke="none"/>
    <path d="M-6.45 -123.4 L-5.5 -122.15 Q-4.4 -121.2 -2.45 -121.65 -3.55 -120.9 -3.55 -120.35 L-3.55 -119.95 -3.35 -119.95 Q-5.65 -115.5 -6.55 -110.15 -7.35 -105.45 -7.8 -96.2 -10.8 -85.4 -13.1 -72.4 L-14.05 -62.05 -14.05 -61.65 -14.0 -61.75 Q-13.1 -62.05 -11.3 -63.15 L-9.25 -64.3 -6.25 -64.3 -5.55 -63.65 Q-5.55 -62.7 -8.45 -60.55 L-12.25 -57.9 -15.9 -53.4 -17.25 -41.2 -17.3 -40.9 Q-17.3 -37.65 -16.15 -35.7 -15.05 -33.75 -15.05 -32.05 -15.05 -31.3 -16.5 -28.75 -18.05 -26.05 -18.75 -26.05 L-18.95 -26.1 Q-19.95 -18.55 -20.9 -13.5 -20.1 -12.9 -15.65 -12.4 L-10.85 -12.05 -3.15 -11.45 4.1 -10.45 Q4.5 -10.55 4.5 -10.75 L4.2 -10.85 9.4 -11.4 12.15 -16.45 Q15.55 -15.35 18.15 -14.15 19.3 -13.65 20.55 -13.65 21.55 -13.65 23.95 -14.6 24.7 -15.5 25.35 -18.45 26.0 -21.45 26.0 -24.0 26.0 -32.1 21.35 -33.65 L20.6 -33.8 17.7 -34.45 Q15.2 -35.1 14.5 -35.5 15.55 -36.55 19.9 -39.35 22.75 -41.15 22.75 -42.9 22.75 -50.95 20.8 -58.0 19.3 -63.45 17.55 -65.7 L12.7 -65.55 Q7.75 -65.85 7.35 -66.7 9.45 -69.9 11.85 -75.15 15.05 -82.35 13.75 -84.0 L13.4 -86.6 11.3 -84.65 Q10.05 -83.7 8.25 -83.7 L7.35 -83.95 7.15 -84.25 6.75 -85.65 8.15 -88.4 9.5 -91.05 Q3.25 -85.35 -0.75 -85.35 L-1.4 -85.45 -1.45 -85.7 Q-0.35 -87.5 2.35 -89.85 L10.4 -96.4 Q9.15 -96.15 5.25 -97.05 1.7 -97.9 0.5 -98.75 L0.1 -99.05 Q3.3 -100.55 6.5 -103.25 10.35 -106.6 9.9 -108.65 L9.0 -108.35 Q8.0 -110.85 8.0 -112.25 8.0 -112.75 8.5 -112.6 8.95 -112.45 8.95 -112.95 8.95 -117.95 5.95 -122.25 4.4 -124.5 3.25 -125.3 L4.75 -127.45 Q5.8 -129.3 5.85 -130.75 8.65 -127.6 10.85 -120.1 13.25 -111.9 15.15 -98.75 L15.2 -97.85 15.2 -97.55 Q21.5 -81.35 21.5 -75.8 21.5 -75.45 20.2 -74.6 18.85 -73.2 18.85 -70.15 18.85 -69.15 19.15 -69.3 L23.95 -70.15 29.15 -51.4 Q29.95 -48.5 29.95 -46.2 29.95 -45.6 29.25 -45.35 28.5 -44.55 28.5 -41.05 28.5 -40.85 31.45 -35.9 34.55 -30.3 35.2 -26.95 L36.75 -20.5 Q37.8 -15.9 37.8 -12.4 37.8 -11.55 36.65 -10.9 34.45 -9.65 28.85 -9.65 L22.45 -7.05 20.05 -6.6 13.85 -6.2 4.95 -5.8 -5.8 -6.25 -9.2 -6.55 -22.45 -8.75 -29.35 -12.1 Q-28.65 -19.0 -27.35 -24.75 -24.9 -36.0 -19.85 -37.0 L-23.85 -40.95 Q-24.95 -42.0 -24.95 -42.65 -24.95 -46.9 -18.6 -59.6 -19.0 -60.2 -20.65 -60.6 -17.55 -71.15 -15.2 -75.8 -13.7 -78.8 -13.7 -79.1 L-15.15 -80.9 Q-16.65 -82.85 -16.65 -83.95 -16.65 -86.85 -14.65 -91.5 L-12.65 -96.45 -13.05 -97.5 -13.5 -98.6 Q-13.5 -102.95 -10.9 -111.8 -8.9 -118.65 -6.45 -123.4" fill="#b4b4b4" fill-rule="evenodd" stroke="none"/>
    <path d="M-2.45 -121.65 L-2.0 -121.75 -1.5 -121.9 Q-0.15 -122.35 1.05 -123.25 L3.25 -125.3 Q4.4 -124.5 5.95 -122.25 8.95 -117.95 8.95 -112.95 8.95 -112.45 8.5 -112.6 8.0 -112.75 8.0 -112.25 8.0 -110.85 9.0 -108.35 L9.9 -108.65 Q10.35 -106.6 6.5 -103.25 3.3 -100.55 0.1 -99.05 L0.5 -98.75 Q1.7 -97.9 5.25 -97.05 9.15 -96.15 10.4 -96.4 L2.35 -89.85 Q-0.35 -87.5 -1.45 -85.7 L-1.4 -85.45 -0.75 -85.35 Q3.25 -85.35 9.5 -91.05 L8.15 -88.4 6.75 -85.65 7.15 -84.25 7.35 -83.95 8.25 -83.7 Q10.05 -83.7 11.3 -84.65 L13.4 -86.6 13.75 -84.0 Q15.05 -82.35 11.85 -75.15 9.45 -69.9 7.35 -66.7 7.75 -65.85 12.7 -65.55 L17.55 -65.7 Q19.3 -63.45 20.8 -58.0 22.75 -50.95 22.75 -42.9 22.75 -41.15 19.9 -39.35 15.55 -36.55 14.5 -35.5 15.2 -35.1 17.7 -34.45 L20.6 -33.8 21.35 -33.65 Q26.0 -32.1 26.0 -24.0 26.0 -21.45 25.35 -18.45 24.7 -15.5 23.95 -14.6 21.55 -13.65 20.55 -13.65 19.3 -13.65 18.15 -14.15 15.55 -15.35 12.15 -16.45 L9.4 -11.4 4.2 -10.85 4.5 -10.75 Q4.5 -10.55 4.1 -10.45 L-3.15 -11.45 -10.85 -12.05 -15.65 -12.4 Q-20.1 -12.9 -20.9 -13.5 -19.95 -18.55 -18.95 -26.1 L-18.75 -26.05 Q-18.05 -26.05 -16.5 -28.75 -15.05 -31.3 -15.05 -32.05 -15.05 -33.75 -16.15 -35.7 -17.3 -37.65 -17.3 -40.9 L-17.25 -41.2 -15.9 -53.4 -12.25 -57.9 -8.45 -60.55 Q-5.55 -62.7 -5.55 -63.65 L-6.25 -64.3 -9.25 -64.3 -11.3 -63.15 Q-13.1 -62.05 -14.0 -61.75 L-14.05 -61.65 -14.05 -62.05 -13.1 -72.4 Q-10.8 -85.4 -7.8 -96.2 -7.35 -105.45 -6.55 -110.15 -5.65 -115.5 -3.35 -119.95 L-3.55 -119.95 -3.55 -120.35 Q-3.55 -120.9 -2.45 -121.65 M6.15 -106.75 Q6.15 -114.15 3.05 -116.15 2.15 -115.25 -0.35 -109.85 L-1.0 -108.45 Q-2.95 -104.3 -3.05 -103.15 L-2.6 -103.05 -1.45 -102.95 -1.0 -102.95 Q1.0 -103.05 3.35 -104.1 6.15 -105.35 6.15 -106.75 M2.9 -93.4 Q2.9 -94.8 1.9 -95.8 0.9 -96.8 -0.55 -96.8 -2.0 -96.8 -3.0 -95.8 -4.0 -94.8 -4.0 -93.4 -4.0 -92.0 -3.0 -91.0 -2.0 -90.0 -0.55 -90.0 0.9 -90.0 1.9 -91.0 2.9 -92.0 2.9 -93.4 M3.75 -82.25 L4.5 -85.55 Q0.05 -83.05 -3.05 -78.35 -6.45 -73.2 -5.5 -69.1 -5.25 -68.7 -5.5 -68.3 L-3.5 -68.1 Q-1.8 -68.1 3.55 -71.05 10.3 -74.75 11.6 -78.95 L2.65 -78.7 3.75 -82.25 M15.45 -51.2 Q14.85 -51.2 11.4 -49.75 L3.6 -46.5 -2.35 -43.5 Q-9.25 -39.95 -10.85 -37.35 -12.45 -34.8 -5.65 -35.45 1.95 -35.45 9.85 -40.45 16.9 -44.85 16.9 -47.4 16.9 -49.55 16.25 -50.55 L15.45 -51.2 M12.85 -61.85 Q11.8 -62.55 7.8 -62.55 5.05 -62.55 -3.3 -58.0 -11.7 -53.45 -12.25 -52.0 L-13.95 -47.3 Q-15.1 -44.05 -11.15 -42.05 L-7.25 -44.25 -6.65 -44.25 Q-2.7 -44.25 14.4 -56.8 14.4 -60.8 12.85 -61.85 M9.95 -34.5 Q8.45 -34.45 5.75 -33.35 1.85 -31.8 -1.7 -28.9 L-3.1 -27.7 -4.5 -26.75 Q-7.3 -24.25 -9.4 -21.35 -12.0 -17.85 -12.0 -15.75 L-11.95 -15.05 -11.85 -14.9 Q-0.95 -22.6 2.3 -25.85 L0.65 -17.05 Q0.7 -15.75 3.3 -15.75 6.6 -15.75 8.95 -20.75 11.3 -25.7 11.3 -32.4 L11.1 -34.3 9.95 -34.5 M13.3 -27.6 Q13.3 -21.1 15.05 -18.4 16.15 -16.65 17.8 -16.65 L18.4 -16.7 18.35 -16.8 Q17.75 -21.05 16.15 -25.6 L14.1 -30.2 14.05 -30.35 Q13.3 -28.7 13.3 -27.6" fill="#e0e0e0" fill-rule="evenodd" stroke="none"/>
    <path d="M12.85 -61.85 Q14.4 -60.8 14.4 -56.8 -2.7 -44.25 -6.65 -44.25 L-7.25 -44.25 -11.15 -42.05 Q-15.1 -44.05 -13.95 -47.3 L-12.25 -52.0 Q-11.7 -53.45 -3.3 -58.0 5.05 -62.55 7.8 -62.55 11.8 -62.55 12.85 -61.85 M15.45 -51.2 L16.25 -50.55 Q16.9 -49.55 16.9 -47.4 16.9 -44.85 9.85 -40.45 1.95 -35.45 -5.65 -35.45 -12.45 -34.8 -10.85 -37.35 -9.25 -39.95 -2.35 -43.5 L3.6 -46.5 11.4 -49.75 Q14.85 -51.2 15.45 -51.2 M3.75 -82.25 L2.65 -78.7 11.6 -78.95 Q10.3 -74.75 3.55 -71.05 -1.8 -68.1 -3.5 -68.1 L-5.5 -68.3 Q-5.25 -68.7 -5.5 -69.1 -6.45 -73.2 -3.05 -78.35 0.05 -83.05 4.5 -85.55 L3.75 -82.25 M2.9 -93.4 Q2.9 -92.0 1.9 -91.0 0.9 -90.0 -0.55 -90.0 -2.0 -90.0 -3.0 -91.0 -4.0 -92.0 -4.0 -93.4 -4.0 -94.8 -3.0 -95.8 -2.0 -96.8 -0.55 -96.8 0.9 -96.8 1.9 -95.8 2.9 -94.8 2.9 -93.4 M6.15 -106.75 Q6.15 -105.35 3.35 -104.1 1.0 -103.05 -1.0 -102.95 L-1.45 -102.95 -2.6 -103.05 -3.05 -103.15 Q-2.95 -104.3 -1.0 -108.45 L-0.35 -109.85 Q2.15 -115.25 3.05 -116.15 6.15 -114.15 6.15 -106.75 M9.95 -34.5 L11.1 -34.3 11.3 -32.4 Q11.3 -25.7 8.95 -20.75 6.6 -15.75 3.3 -15.75 0.7 -15.75 0.65 -17.05 L2.3 -25.85 Q-0.95 -22.6 -11.85 -14.9 L-11.95 -15.05 -12.0 -15.75 Q-12.0 -17.85 -9.4 -21.35 -7.3 -24.25 -4.5 -26.75 L-3.1 -27.7 -1.7 -28.9 Q1.85 -31.8 5.75 -33.35 8.45 -34.45 9.95 -34.5 M13.3 -27.6 Q13.3 -28.7 14.05 -30.35 L14.1 -30.2 16.15 -25.6 Q17.75 -21.05 18.35 -16.8 L18.4 -16.7 17.8 -16.65 Q16.15 -16.65 15.05 -18.4 13.3 -21.1 13.3 -27.6" fill="#ffffff" fill-rule="evenodd" stroke="none"/>
  </g>
</svg>
