<?xml version="1.0" encoding="UTF-8" standalone="no"?>
<svg xmlns:ffdec="https://www.free-decompiler.com/flash" xmlns:xlink="http://www.w3.org/1999/xlink" ffdec:objectType="shape" height="17.85px" width="18.25px" xmlns="http://www.w3.org/2000/svg">
  <g transform="matrix(1.0, 0.0, 0.0, 1.0, 9.8, 135.85)">
    <path d="M8.35 -131.4 L7.45 -131.15 7.45 -131.05 7.2 -131.35 6.95 -131.6 Q6.0 -132.65 4.9 -133.3 5.5 -132.6 5.7 -131.7 L5.85 -130.75 Q5.8 -129.3 4.75 -127.45 L3.25 -125.3 1.05 -123.25 Q-0.15 -122.35 -1.5 -121.9 L-2.0 -121.75 -2.45 -121.65 Q-4.4 -121.2 -5.5 -122.15 L-6.45 -123.4 Q-6.9 -124.3 -7.0 -125.6 -7.4 -129.9 -5.0 -132.85 L-5.35 -132.6 -8.3 -129.35 -9.2 -127.6 -9.3 -127.55 -9.45 -127.55 -9.5 -127.05 -9.6 -128.8 -9.6 -129.0 -9.25 -129.75 -8.95 -130.35 Q-6.6 -134.7 -2.8 -135.6 L-1.85 -135.8 -1.0 -135.85 -0.8 -135.85 -0.7 -135.85 Q2.1 -135.85 4.25 -134.9 5.75 -134.3 6.95 -133.25 L7.7 -132.5 8.35 -131.8 8.35 -131.6 8.35 -131.4 M2.4 -133.5 L0.2 -134.15 -1.35 -134.05 Q-2.6 -133.75 -3.6 -132.6 -6.15 -129.8 -5.75 -125.7 L-5.65 -124.95 Q-5.4 -123.7 -4.75 -123.15 L-2.35 -122.95 -0.4 -123.8 1.95 -125.7 3.7 -128.1 3.65 -128.1 Q4.75 -130.05 4.5 -131.4 L4.05 -132.25 Q3.5 -133.0 2.4 -133.5" fill="#464646" fill-rule="evenodd" stroke="none"/>
    <path d="M7.45 -131.05 L7.1 -129.05 5.85 -130.75 5.7 -131.7 Q5.5 -132.6 4.9 -133.3 6.0 -132.65 6.95 -131.6 L7.2 -131.35 7.45 -131.05 M-7.75 -120.65 L-8.45 -121.75 Q-9.2 -124.0 -8.15 -128.85 L-8.2 -129.2 -8.3 -129.35 -5.35 -132.6 -5.0 -132.85 Q-7.4 -129.9 -7.0 -125.6 -6.9 -124.3 -6.45 -123.4 L-7.75 -120.65" fill="#8a8a8a" fill-rule="evenodd" stroke="none"/>
    <path d="M7.1 -129.05 L7.05 -128.75 Q6.65 -126.55 4.7 -123.85 L3.25 -125.3 4.75 -127.45 Q5.8 -129.3 5.85 -130.75 L7.1 -129.05 M-3.75 -119.1 Q-6.55 -119.5 -7.75 -120.65 L-6.45 -123.4 -5.5 -122.15 Q-4.4 -121.2 -2.45 -121.65 -3.55 -120.9 -3.55 -120.35 L-3.55 -119.95 -3.35 -119.95 -3.75 -119.1" fill="#b4b4b4" fill-rule="evenodd" stroke="none"/>
    <path d="M4.7 -123.85 L3.4 -122.15 Q0.3 -118.55 -3.75 -119.1 L-3.35 -119.95 -3.55 -119.95 -3.55 -120.35 Q-3.55 -120.9 -2.45 -121.65 L-2.0 -121.75 -1.5 -121.9 Q-0.15 -122.35 1.05 -123.25 L3.25 -125.3 4.7 -123.85" fill="#e0e0e0" fill-rule="evenodd" stroke="none"/>
    <path d="M7.45 -131.05 L7.45 -131.15 8.35 -131.4 8.45 -131.05 8.3 -129.9 8.05 -128.55 7.85 -127.75 Q7.25 -125.6 5.35 -123.05 L4.15 -121.5 Q0.7 -117.45 -3.9 -118.1 L-4.2 -118.15 Q-6.85 -118.6 -8.2 -119.65 -9.1 -120.4 -9.4 -121.45 -10.0 -123.1 -9.65 -125.95 L-9.5 -127.05 -9.45 -127.55 -9.3 -127.55 -9.2 -127.6 -8.3 -129.35 -8.2 -129.2 -8.15 -128.85 Q-9.2 -124.0 -8.45 -121.75 L-7.75 -120.65 Q-6.55 -119.5 -3.75 -119.1 0.3 -118.55 3.4 -122.15 L4.7 -123.85 Q6.65 -126.55 7.05 -128.75 L7.1 -129.05 7.45 -131.05" fill="#616161" fill-rule="evenodd" stroke="none"/>
  </g>
</svg>
