<?xml version="1.0" encoding="UTF-8" standalone="no"?>
<svg xmlns:ffdec="https://www.free-decompiler.com/flash" xmlns:xlink="http://www.w3.org/1999/xlink" ffdec:objectType="shape" height="104.65px" width="87.15px" xmlns="http://www.w3.org/2000/svg">
  <g transform="matrix(1.0, 0.0, 0.0, 1.0, 25.85, 39.85)">
    <path d="M-17.85 21.9 L-15.0 30.65 Q-13.55 35.15 -13.2 39.9 -12.85 44.35 -13.55 49.05 -14.25 53.5 -16.45 57.65 -17.05 58.85 -18.05 59.4 -16.45 56.35 -15.5 53.05 -14.35 49.2 -14.1 45.3 -13.8 40.95 -14.7 36.55 -15.55 32.4 -17.05 28.45 -18.3 25.1 -17.85 21.9" fill="#b4b4b4" fill-rule="evenodd" stroke="none"/>
    <path d="M-13.5 27.0 L-12.55 31.65 Q-11.3 36.15 -11.1 40.75 -10.9 45.45 -12.25 49.9 -13.7 54.6 -16.2 58.65 -18.7 62.65 -23.25 63.35 -20.65 62.0 -19.25 59.6 -17.85 57.25 -16.9 54.55 -15.4 50.0 -15.45 45.15 -15.45 40.55 -16.5 36.0 L-19.0 26.4 Q-20.3 21.9 -20.2 17.3 -20.05 12.3 -18.45 7.7 L-17.15 7.7 Q-16.3 12.1 -16.4 16.5 -16.55 21.3 -14.3 25.45 L-13.5 27.0 M43.7 -16.15 Q45.3 -12.35 46.35 -8.2 47.45 -3.8 47.9 0.4 48.45 5.35 48.5 10.35 L48.8 19.85 Q49.05 24.3 50.85 28.6 52.75 33.05 55.85 35.6 54.6 35.9 53.35 34.95 51.1 33.35 49.95 30.9 48.6 27.9 48.15 24.75 47.35 19.1 47.3 13.3 L46.85 2.4 Q46.5 -2.15 45.45 -6.7 44.4 -11.45 43.7 -16.15 M21.85 52.1 Q21.6 53.65 20.25 52.1 19.15 50.95 18.75 49.15 L16.55 39.85 14.85 32.7 Q15.45 30.3 17.7 31.4 19.55 32.25 20.0 34.3 20.8 37.7 21.05 41.2 L21.85 52.1 M14.3 54.65 L14.1 55.9 Q10.0 53.8 8.6 48.9 7.15 43.8 6.6 38.7 6.2 34.65 6.15 30.7 L6.2 28.9 Q6.3 27.3 6.75 25.7 L7.35 25.4 8.0 25.35 Q9.25 31.9 11.15 38.15 L13.4 46.1 Q14.1 48.6 14.15 51.15 L14.3 54.65 M6.85 51.7 L6.1 54.35 5.55 55.9 Q2.9 54.3 3.05 50.2 L3.1 44.25 Q3.05 41.35 3.95 38.55 5.7 42.4 6.0 47.2 6.1 48.85 6.6 50.8 L6.85 51.7 M-0.3 22.9 Q-0.15 27.5 0.5 32.25 1.2 37.1 1.25 42.1 1.25 46.9 0.6 51.75 0.4 53.4 -0.55 55.15 L-1.55 56.4 -2.6 56.3 Q-1.45 50.5 -0.6 44.55 0.0 40.2 -0.55 35.9 -1.0 32.55 -1.6 29.35 -2.35 25.4 -0.6 22.0 L-0.3 22.9 M34.0 49.95 Q34.1 50.4 33.65 50.6 L33.35 50.75 Q31.95 50.5 31.1 49.5 30.85 51.4 29.6 52.75 27.05 50.25 26.3 45.95 25.5 41.45 24.3 36.75 L23.7 36.35 Q23.15 30.2 28.65 27.8 29.7 27.25 30.25 28.05 31.5 30.05 31.7 32.35 32.15 37.5 33.0 42.7 L34.0 49.95 M-7.8 28.2 L-6.6 37.85 Q-6.05 42.75 -6.85 47.6 -7.55 52.0 -10.2 55.8 L-11.15 57.2 -11.5 57.35 -11.85 57.4 -12.3 57.4 -9.55 49.5 Q-7.95 45.55 -7.8 41.05 -7.65 36.15 -8.35 31.35 -8.6 29.75 -7.8 28.2 M-17.85 21.9 Q-18.3 25.1 -17.05 28.45 -15.55 32.4 -14.7 36.55 -13.8 40.95 -14.1 45.3 -14.35 49.2 -15.5 53.05 -16.45 56.35 -18.05 59.4 -17.05 58.85 -16.45 57.65 -14.25 53.5 -13.55 49.05 -12.85 44.35 -13.2 39.9 -13.55 35.15 -15.0 30.65 L-17.85 21.9" fill="#9f9f9f" fill-rule="evenodd" stroke="none"/>
    <path d="M35.1 -39.85 L37.1 -36.0 40.35 -30.15 Q42.0 -27.3 43.3 -24.25 45.9 -18.4 47.4 -12.5 48.75 -7.35 49.05 -2.2 49.4 4.35 49.35 10.75 49.3 15.7 49.85 20.7 50.15 23.6 51.0 26.45 52.1 30.0 55.2 32.1 L59.75 34.95 56.35 37.15 Q55.05 38.0 54.1 39.15 L54.45 39.7 55.05 40.55 55.7 41.25 56.4 41.85 53.5 44.65 Q50.35 47.55 46.3 47.9 43.55 48.2 41.2 46.85 L40.75 47.0 40.6 47.45 42.45 51.9 40.05 51.85 38.3 51.4 37.7 51.2 36.05 51.35 35.65 53.2 Q34.7 53.45 33.85 53.9 30.55 55.45 26.95 55.25 25.45 54.95 24.35 55.6 22.85 56.4 23.2 58.25 L21.1 57.25 Q18.9 56.05 17.2 54.2 L15.25 59.0 14.0 58.95 Q11.6 58.4 9.5 57.25 8.4 56.7 7.35 56.8 L6.8 57.4 6.45 57.9 6.15 58.45 5.95 58.95 5.55 59.15 Q3.25 57.1 1.65 54.65 L1.3 54.25 -1.3 58.05 Q-2.1 59.35 -3.3 60.2 L-3.55 59.4 -4.1 58.3 -4.35 58.0 -4.55 58.15 -6.3 59.7 Q-7.05 60.2 -7.85 60.3 L-9.75 60.75 -8.0 56.6 Q-6.65 54.1 -5.8 51.3 -4.45 46.7 -4.5 42.05 -4.5 38.5 -5.0 34.85 -4.95 37.9 -5.2 41.2 -5.55 46.2 -6.7 51.15 -7.15 53.2 -8.3 54.8 -10.75 58.35 -14.45 60.4 -15.65 61.1 -17.05 61.25 L-14.1 56.9 Q-11.65 52.9 -10.65 48.55 -9.6 44.15 -9.95 39.8 -10.3 35.35 -11.45 31.25 L-13.4 24.15 -13.5 27.0 -14.3 25.45 Q-16.55 21.3 -16.4 16.5 -16.3 12.1 -17.15 7.7 L35.1 -39.85 M-7.8 28.2 Q-8.6 29.75 -8.35 31.35 -7.65 36.15 -7.8 41.05 -7.95 45.55 -9.55 49.5 L-12.3 57.4 -11.85 57.4 -11.5 57.35 -11.15 57.2 -10.2 55.8 Q-7.55 52.0 -6.85 47.6 -6.05 42.75 -6.6 37.85 L-7.8 28.2 M34.0 49.95 L33.0 42.7 Q32.15 37.5 31.7 32.35 31.5 30.05 30.25 28.05 29.7 27.25 28.65 27.8 23.15 30.2 23.7 36.35 L24.3 36.75 Q25.5 41.45 26.3 45.95 27.05 50.25 29.6 52.75 30.85 51.4 31.1 49.5 31.95 50.5 33.35 50.75 L33.65 50.6 Q34.1 50.4 34.0 49.95 M-0.3 22.9 L-0.6 22.0 Q-2.35 25.4 -1.6 29.35 -1.0 32.55 -0.55 35.9 0.0 40.2 -0.6 44.55 -1.45 50.5 -2.6 56.3 L-1.55 56.4 -0.55 55.15 Q0.4 53.4 0.6 51.75 1.25 46.9 1.25 42.1 1.2 37.1 0.5 32.25 -0.15 27.5 -0.3 22.9 M6.85 51.7 L6.6 50.8 Q6.1 48.85 6.0 47.2 5.7 42.4 3.95 38.55 3.05 41.35 3.1 44.25 L3.05 50.2 Q2.9 54.3 5.55 55.9 L6.1 54.35 6.85 51.7 M14.3 54.65 L14.15 51.15 Q14.1 48.6 13.4 46.1 L11.15 38.15 Q9.25 31.9 8.0 25.35 L7.35 25.4 6.75 25.7 Q6.3 27.3 6.2 28.9 L6.15 30.7 Q6.2 34.65 6.6 38.7 7.15 43.8 8.6 48.9 10.0 53.8 14.1 55.9 L14.3 54.65 M21.85 52.1 L21.05 41.2 Q20.8 37.7 20.0 34.3 19.55 32.25 17.7 31.4 15.45 30.3 14.85 32.7 L16.55 39.85 18.75 49.15 Q19.15 50.95 20.25 52.1 21.6 53.65 21.85 52.1 M43.7 -16.15 Q44.4 -11.45 45.45 -6.7 46.5 -2.15 46.85 2.4 L47.3 13.3 Q47.35 19.1 48.15 24.75 48.6 27.9 49.95 30.9 51.1 33.35 53.35 34.95 54.6 35.9 55.85 35.6 52.75 33.05 50.85 28.6 49.05 24.3 48.8 19.85 L48.5 10.35 Q48.45 5.35 47.9 0.4 47.45 -3.8 46.35 -8.2 45.3 -12.35 43.7 -16.15 M-20.2 59.0 L-21.0 59.8 -22.2 59.05 -19.3 57.85 -20.2 59.0" fill="#858585" fill-rule="evenodd" stroke="none"/>
    <path d="M35.1 -39.85 L38.15 -36.05 Q40.7 -32.6 42.65 -28.4 45.1 -23.25 46.9 -17.75 49.2 -10.75 49.9 -3.55 50.45 1.8 50.25 7.15 50.1 11.6 50.4 16.25 50.7 20.55 51.8 24.6 53.05 29.2 56.7 32.15 58.4 33.6 61.3 33.8 L60.7 35.25 Q60.0 36.3 58.95 36.95 56.55 38.2 55.75 39.6 L56.75 40.9 57.55 41.95 56.25 43.7 Q54.8 45.6 52.75 46.9 49.75 48.7 46.3 48.95 L42.25 48.7 43.75 52.15 43.5 52.8 37.6 52.6 37.25 52.3 36.7 53.9 Q35.9 54.15 35.2 54.55 32.3 55.85 29.15 56.3 L24.7 56.1 23.8 59.35 21.3 58.5 Q19.15 57.4 17.35 56.05 L17.15 57.4 16.7 59.15 16.4 59.75 14.65 59.9 Q11.05 59.5 7.6 57.95 L7.05 59.0 6.8 59.55 6.55 59.85 5.9 60.35 5.1 60.05 Q2.5 58.65 1.2 55.9 L-0.8 59.5 Q-1.75 61.0 -3.25 61.65 L-4.2 61.2 -4.5 59.6 Q-5.3 60.7 -6.5 61.15 L-7.65 61.5 -9.7 61.6 -10.45 61.2 -10.15 58.6 Q-11.7 60.35 -13.75 61.5 -15.1 62.2 -16.8 62.05 L-17.35 61.6 -18.95 63.1 Q-20.3 64.25 -22.0 64.65 -24.35 65.1 -25.85 64.25 L-22.25 60.9 -24.1 58.65 -21.8 58.2 Q-20.5 57.9 -19.65 57.05 -17.4 54.6 -16.95 50.95 -16.4 46.65 -16.65 42.2 -16.85 37.95 -17.95 33.95 L-20.2 25.65 Q-21.4 21.55 -21.2 17.2 -21.0 12.3 -19.15 7.7 L-18.45 7.7 Q-20.05 12.3 -20.2 17.3 -20.3 21.9 -19.0 26.4 L-16.5 36.0 Q-15.45 40.55 -15.45 45.15 -15.4 50.0 -16.9 54.55 -17.85 57.25 -19.25 59.6 -20.65 62.0 -23.25 63.35 -18.7 62.65 -16.2 58.65 -13.7 54.6 -12.25 49.9 -10.9 45.45 -11.1 40.75 -11.3 36.15 -12.55 31.65 L-13.5 27.0 -13.4 24.15 -11.45 31.25 Q-10.3 35.35 -9.95 39.8 -9.6 44.15 -10.65 48.55 -11.65 52.9 -14.1 56.9 L-17.05 61.25 Q-15.65 61.1 -14.45 60.4 -10.75 58.35 -8.3 54.8 -7.15 53.2 -6.7 51.15 -5.55 46.2 -5.2 41.2 -4.95 37.9 -5.0 34.85 -4.5 38.5 -4.5 42.05 -4.45 46.7 -5.8 51.3 -6.65 54.1 -8.0 56.6 L-9.75 60.75 -7.85 60.3 Q-7.05 60.2 -6.3 59.7 L-4.55 58.15 -4.35 58.0 -4.1 58.3 -3.55 59.4 -3.3 60.2 Q-2.1 59.35 -1.3 58.05 L1.3 54.25 1.65 54.65 Q3.25 57.1 5.55 59.15 L5.95 58.95 6.15 58.45 6.45 57.9 6.8 57.4 7.35 56.8 Q8.4 56.7 9.5 57.25 11.6 58.4 14.0 58.95 L15.25 59.0 17.2 54.2 Q18.9 56.05 21.1 57.25 L23.2 58.25 Q22.85 56.4 24.35 55.6 25.45 54.95 26.95 55.25 30.55 55.45 33.85 53.9 34.7 53.45 35.65 53.2 L36.05 51.35 37.7 51.2 38.3 51.4 40.05 51.85 42.45 51.9 40.6 47.45 40.75 47.0 41.2 46.85 Q43.55 48.2 46.3 47.9 50.35 47.55 53.5 44.65 L56.4 41.85 55.7 41.25 55.05 40.55 54.45 39.7 54.1 39.15 Q55.05 38.0 56.35 37.15 L59.75 34.95 55.2 32.1 Q52.1 30.0 51.0 26.45 50.15 23.6 49.85 20.7 49.3 15.7 49.35 10.75 49.4 4.35 49.05 -2.2 48.75 -7.35 47.4 -12.5 45.9 -18.4 43.3 -24.25 42.0 -27.3 40.35 -30.15 L37.1 -36.0 35.1 -39.85 M-20.2 59.0 L-19.3 57.85 -22.2 59.05 -21.0 59.8 -20.2 59.0" fill="#4d4d4d" fill-rule="evenodd" stroke="none"/>
  </g>
</svg>
