<?xml version="1.0" encoding="UTF-8" standalone="no"?>
<svg xmlns:ffdec="https://www.free-decompiler.com/flash" xmlns:xlink="http://www.w3.org/1999/xlink" ffdec:objectType="shape" height="20.35px" width="16.55px" xmlns="http://www.w3.org/2000/svg">
  <g transform="matrix(1.0, 0.0, 0.0, 1.0, 15.9, 9.5)">
    <path d="M0.65 0.15 Q0.65 4.6 -1.75 7.7 -4.15 10.85 -7.6 10.85 -11.05 10.85 -13.5 7.7 -15.9 4.6 -15.9 0.15 -15.9 -4.3 -12.35 -5.95 -8.85 -7.65 -6.45 -9.05 -4.05 -10.45 -1.7 -7.35 0.65 -4.3 0.65 0.15" fill="#ca92a7" fill-rule="evenodd" stroke="none"/>
    <path d="M-13.05 -2.2 L-12.65 -2.65 -2.35 -8.35 -1.9 -8.0 Q-1.35 -7.5 -1.15 -6.75 L-1.15 -6.8 -0.8 -4.75 Q-0.55 -1.5 -0.75 2.1 L-0.75 2.15 Q-0.95 4.55 -2.6 6.5 L-4.55 8.15 Q-8.2 10.5 -11.2 7.55 L-11.3 7.5 Q-12.95 6.05 -13.65 3.65 L-13.6 3.7 Q-14.75 -0.1 -13.05 -2.2" fill="#a068cb" fill-rule="evenodd" stroke="none"/>
    <path d="M-4.95 4.05 L-5.0 4.1 -5.9 4.9 Q-6.65 5.4 -7.3 4.75 L-7.35 4.65 Q-8.1 3.95 -8.4 2.8 -8.8 1.35 -8.45 0.55 L-4.2 -2.85 Q-4.05 -0.45 -4.2 2.1 -4.25 3.2 -4.95 4.05" fill="#ffdbb7" fill-rule="evenodd" stroke="none"/>
    <path d="M-2.2 -7.1 L-1.7 -6.85 Q-1.2 -6.4 -1.05 -5.7 L-1.05 -5.75 -0.75 -3.9 Q-0.5 -0.95 -0.7 2.3 L-0.7 2.35 Q-0.85 4.55 -2.3 6.3 L-2.25 6.25 -3.95 7.8 Q-7.1 9.9 -9.7 7.25 L-9.8 7.2 Q-11.2 5.9 -11.8 3.7 L-11.75 3.75 Q-12.6 0.8 -11.7 -1.0 L-2.2 -7.1 M-4.95 4.05 Q-4.25 3.2 -4.2 2.1 -4.05 -0.45 -4.2 -2.85 L-8.45 0.55 Q-8.8 1.35 -8.4 2.8 -8.1 3.95 -7.35 4.65 L-7.3 4.75 Q-6.65 5.4 -5.9 4.9 L-5.0 4.1 -4.95 4.05" fill="#312141" fill-rule="evenodd" stroke="none"/>
  </g>
</svg>
