<?xml version="1.0" encoding="UTF-8" standalone="no"?>
<svg xmlns:ffdec="https://www.free-decompiler.com/flash" xmlns:xlink="http://www.w3.org/1999/xlink" ffdec:objectType="shape" height="36.1px" width="48.0px" xmlns="http://www.w3.org/2000/svg">
  <g transform="matrix(1.0, 0.0, 0.0, 1.0, -38.95, 108.95)">
    <path d="M81.8 -108.45 Q82.6 -107.9 82.6 -107.05 L82.55 -106.7 Q83.8 -106.35 84.85 -105.55 86.9 -103.95 86.95 -101.6 L86.95 -75.9 Q86.65 -74.65 84.75 -73.8 L84.8 -73.8 83.95 -73.45 Q82.25 -72.85 80.05 -72.85 L76.8 -73.25 75.3 -73.8 Q73.55 -74.6 73.25 -75.75 L73.25 -78.7 73.2 -82.5 73.2 -83.7 73.2 -85.2 73.2 -88.8 73.2 -89.8 73.2 -95.25 73.15 -101.6 Q73.2 -103.95 75.2 -105.55 76.25 -106.35 77.55 -106.7 L77.5 -107.05 Q77.5 -107.9 78.35 -108.45 79.05 -108.95 80.05 -108.95 81.05 -108.95 81.8 -108.45 M81.25 -106.5 L81.6 -107.05 81.25 -107.6 80.05 -107.95 Q79.35 -107.95 78.9 -107.6 78.5 -107.4 78.5 -107.05 L78.7 -106.65 78.9 -106.5 Q79.35 -106.2 80.05 -106.2 80.75 -106.2 81.25 -106.5 M81.95 -105.8 L81.8 -105.7 Q80.7 -105.2 80.05 -105.2 L78.95 -105.45 78.3 -105.7 78.2 -105.8 Q76.85 -105.5 75.8 -104.75 L75.85 -104.75 Q74.2 -103.45 74.15 -101.6 L74.15 -100.75 74.2 -100.7 75.45 -99.85 Q76.4 -99.35 76.8 -99.2 L80.05 -98.8 Q82.3 -98.8 83.95 -99.45 L84.9 -99.95 85.9 -100.7 85.95 -100.75 85.95 -101.6 Q85.9 -103.45 84.25 -104.75 83.2 -105.5 81.95 -105.8 M83.95 -97.45 L84.45 -97.65 Q85.55 -98.15 85.95 -98.8 L85.95 -100.0 84.65 -99.2 83.95 -98.9 Q82.3 -98.3 80.05 -98.3 L76.8 -98.7 Q76.05 -98.9 75.4 -99.2 L74.15 -100.0 74.15 -98.75 Q74.55 -98.15 75.6 -97.65 L76.8 -97.25 80.45 -96.8 Q82.45 -96.85 83.95 -97.45 M70.5 -103.25 L71.1 -105.75 55.15 -105.75 54.3 -103.25 52.35 -97.5 69.1 -97.5 70.5 -103.25 M53.0 -101.75 L53.45 -103.25 54.4 -106.5 72.0 -106.5 72.0 -81.05 69.55 -73.1 51.85 -73.1 51.85 -98.0 53.0 -101.75 M80.45 -96.3 L76.8 -96.7 75.4 -97.3 74.15 -98.0 74.2 -77.5 Q74.6 -76.95 75.6 -76.45 L76.8 -76.0 80.05 -75.6 Q82.3 -75.6 83.95 -76.25 L84.9 -76.75 85.9 -77.5 85.95 -77.55 85.95 -98.05 83.95 -96.9 80.45 -96.3 M66.95 -84.5 L66.95 -84.65 66.95 -85.4 66.9 -88.8 66.85 -89.8 66.3 -94.5 55.1 -94.5 Q54.5 -92.2 54.25 -89.8 L54.15 -88.8 Q53.95 -86.7 54.0 -84.5 L54.05 -83.15 54.1 -82.5 Q54.35 -79.4 55.1 -76.25 L66.25 -76.25 66.9 -82.5 66.9 -83.15 66.95 -84.5 M53.05 -83.15 L53.0 -84.5 Q52.95 -86.65 53.15 -88.8 L53.25 -89.8 Q53.55 -92.5 54.25 -95.1 L67.2 -95.05 67.85 -89.8 67.9 -88.8 67.95 -85.4 67.95 -84.55 67.95 -84.5 67.9 -83.15 67.9 -82.5 67.2 -75.65 Q67.15 -75.55 54.25 -75.6 53.4 -79.1 53.1 -82.5 L53.05 -83.15 M68.7 -83.15 L68.7 -97.0 52.7 -97.0 52.7 -83.15 52.7 -73.75 68.7 -73.75 68.7 -83.15 M76.8 -75.5 Q76.05 -75.7 75.4 -76.0 74.65 -76.4 74.2 -76.75 L74.2 -75.95 Q74.5 -75.25 75.7 -74.7 L75.75 -74.7 76.8 -74.3 80.05 -73.85 Q82.3 -73.85 83.95 -74.5 L84.35 -74.7 Q85.65 -75.3 85.95 -76.1 L85.95 -76.8 84.65 -76.0 83.95 -75.7 Q82.3 -75.1 80.05 -75.1 L76.8 -75.5 M69.7 -97.4 L69.7 -76.7 71.25 -82.0 71.25 -102.75 69.7 -97.4 M42.25 -93.6 L44.8 -94.2 Q46.3 -94.2 48.95 -92.95 50.75 -91.55 50.75 -90.45 L50.75 -76.4 Q50.85 -75.2 48.85 -74.35 L44.85 -73.65 41.55 -74.1 40.8 -74.4 Q38.85 -75.2 38.95 -76.4 L38.95 -90.45 Q38.95 -91.55 40.75 -92.9 L42.25 -93.6 M41.55 -92.25 L41.35 -92.1 Q40.05 -91.15 39.95 -90.4 L39.95 -89.65 Q40.6 -89.2 41.55 -88.9 L41.85 -88.8 43.65 -88.45 43.65 -90.8 44.15 -87.95 45.65 -87.95 46.15 -90.8 46.15 -88.45 47.9 -88.8 48.55 -89.05 49.75 -89.7 49.75 -90.45 Q49.65 -91.05 48.7 -91.85 L48.35 -92.15 Q46.85 -93.2 44.8 -93.2 42.9 -93.2 41.55 -92.25 M40.7 -88.35 L41.55 -87.85 Q42.95 -87.35 44.85 -87.35 47.0 -87.35 48.45 -88.0 L49.75 -89.1 49.2 -88.8 48.75 -88.6 48.7 -88.6 Q47.6 -88.1 46.15 -87.95 L46.15 -87.45 43.65 -87.45 43.65 -87.95 41.55 -88.35 39.95 -89.05 40.1 -88.8 40.7 -88.35 M48.7 -76.85 L49.75 -77.5 49.75 -87.5 48.7 -87.0 Q47.1 -86.35 44.85 -86.35 L41.55 -86.8 39.95 -87.5 39.95 -77.45 41.55 -76.6 Q42.95 -76.1 44.85 -76.1 46.3 -76.1 48.7 -76.85 M41.55 -75.15 Q42.95 -74.65 44.85 -74.65 47.0 -74.65 48.45 -75.3 49.7 -76.05 49.75 -76.4 L49.75 -76.85 48.75 -76.3 48.7 -76.3 Q47.1 -75.6 44.85 -75.6 L41.55 -76.05 39.95 -76.85 39.95 -76.4 Q40.0 -76.0 41.55 -75.15" fill="#2a2a2a" fill-rule="evenodd" stroke="none"/>
    <path d="M81.25 -106.5 Q80.75 -106.2 80.05 -106.2 79.35 -106.2 78.9 -106.5 L78.7 -106.65 78.5 -107.05 Q78.5 -107.4 78.9 -107.6 79.35 -107.95 80.05 -107.95 L81.25 -107.6 81.6 -107.05 81.25 -106.5 M81.75 -101.15 L80.0 -100.75 Q78.95 -100.75 78.2 -101.15 77.5 -101.55 77.5 -102.1 77.5 -102.65 78.2 -103.05 78.95 -103.45 80.0 -103.45 L81.75 -103.05 Q82.5 -102.65 82.5 -102.1 82.5 -101.55 81.75 -101.15 M70.5 -103.25 L69.1 -97.5 52.35 -97.5 54.3 -103.25 70.5 -103.25 M66.95 -84.5 L66.9 -83.15 66.9 -82.5 66.25 -76.25 55.1 -76.25 Q54.35 -79.4 54.1 -82.5 L54.05 -83.15 54.0 -84.5 59.35 -84.05 66.95 -84.5 M48.7 -87.0 L49.75 -87.5 49.75 -77.5 48.7 -76.85 48.7 -87.0 M41.55 -76.6 L39.95 -77.45 39.95 -87.5 41.55 -86.8 41.55 -76.6" fill="#dddddd" fill-rule="evenodd" stroke="none"/>
    <path d="M81.95 -105.8 Q83.2 -105.5 84.25 -104.75 85.9 -103.45 85.95 -101.6 L85.95 -100.75 85.9 -100.7 84.9 -99.95 83.95 -99.45 Q82.3 -98.8 80.05 -98.8 L76.8 -99.2 Q76.4 -99.35 75.45 -99.85 L74.2 -100.7 74.15 -100.75 74.15 -101.6 Q74.2 -103.45 75.85 -104.75 L75.8 -104.75 Q76.85 -105.5 78.2 -105.8 L78.3 -105.7 78.95 -105.45 80.05 -105.2 Q80.7 -105.2 81.8 -105.7 L81.95 -105.8 M81.75 -101.15 Q82.5 -101.55 82.5 -102.1 82.5 -102.65 81.75 -103.05 L80.0 -103.45 Q78.95 -103.45 78.2 -103.05 77.5 -102.65 77.5 -102.1 77.5 -101.55 78.2 -101.15 78.95 -100.75 80.0 -100.75 L81.75 -101.15 M54.3 -103.25 L55.15 -105.75 71.1 -105.75 70.5 -103.25 54.3 -103.25 M41.55 -92.25 Q42.9 -93.2 44.8 -93.2 46.85 -93.2 48.35 -92.15 L48.7 -91.85 Q49.65 -91.05 49.75 -90.45 L49.75 -89.7 48.55 -89.05 47.9 -88.8 46.15 -88.45 46.15 -90.8 45.65 -87.95 44.15 -87.95 43.65 -90.8 43.65 -88.45 41.85 -88.8 41.55 -88.9 Q40.6 -89.2 39.95 -89.65 L39.95 -90.4 Q40.05 -91.15 41.35 -92.1 L41.55 -92.25" fill="#c8c8c8" fill-rule="evenodd" stroke="none"/>
    <path d="M83.95 -98.9 L84.65 -99.2 85.95 -100.0 85.95 -98.8 Q85.55 -98.15 84.45 -97.65 L83.95 -97.45 83.95 -98.9 M76.8 -97.25 L75.6 -97.65 Q74.55 -98.15 74.15 -98.75 L74.15 -100.0 75.4 -99.2 Q76.05 -98.9 76.8 -98.7 L76.8 -97.25 M53.05 -83.15 L53.1 -82.5 Q53.4 -79.1 54.25 -75.6 67.15 -75.55 67.2 -75.65 L67.9 -82.5 67.9 -83.15 68.7 -83.15 68.7 -73.75 52.7 -73.75 52.7 -83.15 53.05 -83.15 M76.8 -74.3 L75.75 -74.7 75.7 -74.7 Q74.5 -75.25 74.2 -75.95 L74.2 -76.75 Q74.65 -76.4 75.4 -76.0 76.05 -75.7 76.8 -75.5 L76.8 -74.3 M83.95 -75.7 L84.65 -76.0 85.95 -76.8 85.95 -76.1 Q85.65 -75.3 84.35 -74.7 L83.95 -74.5 83.95 -75.7" fill="#727272" fill-rule="evenodd" stroke="none"/>
    <path d="M79.4 -95.65 L80.4 -95.6 80.4 -76.45 79.4 -76.4 79.4 -95.65 M74.5 -97.05 L75.55 -96.35 75.55 -77.5 74.6 -77.8 74.5 -97.05 M76.95 -95.9 L78.05 -95.6 77.85 -76.5 76.8 -76.6 76.95 -95.9 M84.3 -96.25 L85.35 -96.8 85.35 -77.5 84.3 -77.0 84.3 -96.25 M81.8 -95.6 L82.9 -95.9 82.95 -76.6 81.85 -76.45 81.8 -95.6" fill="#ea5b5b" fill-rule="evenodd" stroke="none"/>
    <path d="M79.4 -95.65 L79.4 -76.4 80.4 -76.45 80.4 -95.6 79.4 -95.65 M80.45 -96.3 L83.95 -96.9 85.95 -98.05 85.95 -77.55 85.9 -77.5 84.9 -76.75 83.95 -76.25 Q82.3 -75.6 80.05 -75.6 L76.8 -76.0 75.6 -76.45 Q74.6 -76.95 74.2 -77.5 L74.15 -98.0 75.4 -97.3 76.8 -96.7 80.45 -96.3 M76.95 -95.9 L76.8 -76.6 77.85 -76.5 78.05 -95.6 76.95 -95.9 M74.5 -97.05 L74.6 -77.8 75.55 -77.5 75.55 -96.35 74.5 -97.05 M54.0 -84.5 Q53.95 -86.7 54.15 -88.8 L54.25 -89.8 Q54.5 -92.2 55.1 -94.5 L66.3 -94.5 66.85 -89.8 66.9 -88.8 66.95 -85.4 66.95 -84.65 66.95 -84.5 59.35 -84.05 54.0 -84.5 M48.7 -76.85 Q46.3 -76.1 44.85 -76.1 42.95 -76.1 41.55 -76.6 L41.55 -86.8 44.85 -86.35 Q47.1 -86.35 48.7 -87.0 L48.7 -76.85 M81.8 -95.6 L81.85 -76.45 82.95 -76.6 82.9 -95.9 81.8 -95.6 M84.3 -96.25 L84.3 -77.0 85.35 -77.5 85.35 -96.8 84.3 -96.25" fill="#ffffff" fill-rule="evenodd" stroke="none"/>
    <path d="M83.95 -97.45 Q82.45 -96.85 80.45 -96.8 L76.8 -97.25 76.8 -98.7 80.05 -98.3 Q82.3 -98.3 83.95 -98.9 L83.95 -97.45 M67.9 -83.15 L67.95 -84.5 67.95 -84.55 67.95 -85.4 67.9 -88.8 67.85 -89.8 67.2 -95.05 54.25 -95.1 Q53.55 -92.5 53.25 -89.8 L53.15 -88.8 Q52.95 -86.65 53.0 -84.5 L53.05 -83.15 52.7 -83.15 52.7 -97.0 68.7 -97.0 68.7 -83.15 67.9 -83.15 M76.8 -74.3 L76.8 -75.5 80.05 -75.1 Q82.3 -75.1 83.95 -75.7 L83.95 -74.5 Q82.3 -73.85 80.05 -73.85 L76.8 -74.3 M40.7 -88.35 L40.1 -88.8 39.95 -89.05 41.55 -88.35 43.65 -87.95 43.65 -87.45 46.15 -87.45 46.15 -87.95 Q47.6 -88.1 48.7 -88.6 L48.75 -88.6 49.2 -88.8 49.75 -89.1 48.45 -88.0 Q47.0 -87.35 44.85 -87.35 42.95 -87.35 41.55 -87.85 L40.7 -88.35 M41.55 -75.15 Q40.0 -76.0 39.95 -76.4 L39.95 -76.85 41.55 -76.05 44.85 -75.6 Q47.1 -75.6 48.7 -76.3 L48.75 -76.3 49.75 -76.85 49.75 -76.4 Q49.7 -76.05 48.45 -75.3 47.0 -74.65 44.85 -74.65 42.95 -74.65 41.55 -75.15" fill="#999999" fill-rule="evenodd" stroke="none"/>
    <path d="M69.7 -97.4 L71.25 -102.75 71.25 -82.0 69.7 -76.7 69.7 -97.4" fill="#858585" fill-rule="evenodd" stroke="none"/>
  </g>
</svg>
