<?xml version="1.0" encoding="UTF-8" standalone="no"?>
<svg xmlns:ffdec="https://www.free-decompiler.com/flash" xmlns:xlink="http://www.w3.org/1999/xlink" ffdec:objectType="shape" height="34.0px" width="65.0px" xmlns="http://www.w3.org/2000/svg">
  <g transform="matrix(1.0, 0.0, 0.0, 1.0, 0.0, 0.0)">
    <path d="M61.05 19.25 L62.95 19.25 62.8 20.3 Q61.9 24.45 58.65 27.7 54.3 32.1 48.0 32.1 L17.0 32.1 Q10.7 32.1 6.25 27.7 3.1 24.45 2.2 20.3 L2.0 19.25 3.95 19.25 4.05 19.95 4.15 20.3 60.85 20.3 60.95 19.95 61.05 19.25" fill="#63ff5e" fill-rule="evenodd" stroke="none"/>
    <path d="M60.75 13.25 L60.85 13.7 60.85 13.65 Q61.2 15.25 61.2 17.0 L61.2 17.5 61.2 17.85 61.15 18.25 61.05 19.25 60.95 19.95 60.85 20.3 4.15 20.3 4.05 19.95 3.95 19.25 3.8 18.25 3.8 17.95 3.75 17.6 3.75 17.5 3.75 17.0 Q3.75 15.25 4.15 13.65 L4.3 13.25 60.75 13.25" fill="#2bf924" fill-rule="evenodd" stroke="none"/>
    <path d="M60.65 12.85 L60.75 13.25 4.3 13.25 4.45 12.85 Q5.3 9.95 7.65 7.65 L7.6 7.65 Q11.45 3.8 17.0 3.8 L48.0 3.8 Q53.5 3.8 57.35 7.65 59.65 9.95 60.65 12.85" fill="#27e41f" fill-rule="evenodd" stroke="none"/>
    <path d="M48.0 0.0 Q55.05 0.0 60.0 4.95 63.45 8.4 64.5 12.85 L64.6 13.25 Q65.0 15.05 65.0 17.0 L65.0 17.5 65.0 17.95 64.95 18.45 64.85 19.25 64.7 20.3 Q63.75 25.25 60.0 29.0 55.05 34.0 48.0 34.0 L17.0 34.0 Q9.95 34.0 4.95 29.0 1.2 25.25 0.25 20.3 L0.15 19.25 0.05 18.45 0.05 17.95 0.0 17.5 0.0 17.0 Q0.0 15.05 0.35 13.25 L0.45 12.85 Q1.5 8.4 4.95 4.95 9.95 0.0 17.0 0.0 L48.0 0.0 M62.95 19.25 L63.05 18.45 63.1 17.95 63.1 17.5 63.1 17.0 Q63.1 15.05 62.7 13.25 L62.6 12.85 Q61.55 9.15 58.65 6.3 54.3 1.9 48.0 1.9 L17.0 1.9 Q10.7 1.9 6.25 6.3 3.4 9.15 2.4 12.85 L2.3 13.25 Q1.9 15.05 1.9 17.0 L1.9 17.5 1.9 17.95 1.9 18.45 2.0 19.25 2.2 20.3 Q3.1 24.45 6.25 27.7 10.7 32.1 17.0 32.1 L48.0 32.1 Q54.3 32.1 58.65 27.7 61.9 24.45 62.8 20.3 L62.95 19.25" fill="#139110" fill-rule="evenodd" stroke="none"/>
    <path d="M61.05 19.25 L61.15 18.25 61.2 17.85 61.2 17.5 61.2 17.0 Q61.2 15.25 60.85 13.65 L60.85 13.7 60.75 13.25 60.65 12.85 62.6 12.85 62.7 13.25 Q63.1 15.05 63.1 17.0 L63.1 17.5 63.1 17.95 63.05 18.45 62.95 19.25 61.05 19.25 M4.3 13.25 L4.15 13.65 Q3.75 15.25 3.75 17.0 L3.75 17.5 3.75 17.6 3.8 17.95 3.8 18.25 3.95 19.25 2.0 19.25 1.9 18.45 1.9 17.95 1.9 17.5 1.9 17.0 Q1.9 15.05 2.3 13.25 L2.4 12.85 4.45 12.85 4.3 13.25" fill="#a4ffa1" fill-rule="evenodd" stroke="none"/>
    <path d="M62.6 12.85 L60.65 12.85 Q59.65 9.95 57.35 7.65 53.5 3.8 48.0 3.8 L17.0 3.8 Q11.45 3.8 7.6 7.65 L7.65 7.65 Q5.3 9.95 4.45 12.85 L2.4 12.85 Q3.4 9.15 6.25 6.3 10.7 1.9 17.0 1.9 L48.0 1.9 Q54.3 1.9 58.65 6.3 61.55 9.15 62.6 12.85" fill="#beffbc" fill-rule="evenodd" stroke="none"/>
  </g>
</svg>
