<?xml version="1.0" encoding="UTF-8" standalone="no"?>
<svg xmlns:ffdec="https://www.free-decompiler.com/flash" xmlns:xlink="http://www.w3.org/1999/xlink" ffdec:objectType="shape" height="80.55px" width="85.75px" xmlns="http://www.w3.org/2000/svg">
  <g transform="matrix(1.0, 0.0, 0.0, 1.0, -4.25, 2.9)">
    <path d="M89.15 48.25 L89.9 48.25 89.8 67.5 Q89.7 74.25 84.15 74.5 L12.45 77.65 Q4.25 77.9 4.25 69.75 L4.25 4.75 Q4.25 -3.6 12.5 -2.85 L84.35 3.0 Q90.0 3.35 90.0 10.25 L89.9 26.0 89.15 26.0 89.25 10.2 Q89.2 4.3 84.35 3.95 L12.45 -1.75 Q5.4 -2.35 5.4 4.85 L5.4 18.25 5.4 58.75 5.35 69.7 Q5.3 76.75 12.4 76.55 L84.15 73.55 Q88.95 73.3 89.05 67.5 L89.15 48.25" fill="#000000" fill-rule="evenodd" stroke="none"/>
    <path d="M89.15 48.25 L89.05 67.5 Q88.95 73.3 84.15 73.55 L12.4 76.55 Q5.3 76.75 5.35 69.7 L5.4 58.75 5.4 18.25 5.4 4.85 Q5.4 -2.35 12.45 -1.75 L84.35 3.95 Q89.2 4.3 89.25 10.2 L89.15 26.0 18.5 26.0 18.5 48.25 89.15 48.25" fill="#cccccc" fill-rule="evenodd" stroke="none"/>
  </g>
</svg>
