<?xml version="1.0" encoding="UTF-8" standalone="no"?>
<svg xmlns:ffdec="https://www.free-decompiler.com/flash" xmlns:xlink="http://www.w3.org/1999/xlink" ffdec:objectType="shape" height="135.75px" width="101.05px" xmlns="http://www.w3.org/2000/svg">
  <g transform="matrix(1.0, 0.0, 0.0, 1.0, 52.45, 49.05)">
    <path d="M26.3 72.9 Q26.25 72.8 27.15 70.65 L27.2 71.15 Q27.6 74.75 28.1 75.85 29.75 79.6 34.35 79.6 35.7 79.6 38.3 78.5 41.2 77.25 42.25 75.9 41.9 76.95 44.15 73.45 45.1 70.9 45.1 68.4 45.1 64.5 42.1 60.7 40.5 58.65 35.5 54.15 30.85 49.9 28.9 47.1 25.9 42.8 25.9 38.05 25.9 32.55 29.75 25.85 33.55 19.2 33.55 14.65 33.55 11.55 31.2 7.45 L21.75 -7.15 17.0 -14.35 Q15.35 -17.35 15.35 -20.55 15.35 -26.8 17.05 -30.25 18.2 -32.65 23.1 -38.35 L23.1 -36.65 Q20.95 -35.1 19.5 -30.9 18.1 -26.75 18.1 -22.0 18.1 -17.15 18.4 -16.65 18.95 -16.5 19.55 -14.85 20.0 -13.7 22.8 -9.0 L26.0 -3.75 Q32.5 5.5 33.45 7.2 35.8 11.5 35.8 16.25 35.8 17.8 34.6 20.85 33.5 23.55 32.25 25.55 28.65 31.1 27.65 34.0 26.95 35.85 26.95 38.5 26.95 42.2 29.2 46.25 31.8 50.95 36.45 53.95 42.0 57.5 44.4 61.55 46.3 64.85 46.3 68.8 46.3 72.35 44.2 75.75 40.9 81.1 33.95 81.1 29.25 81.1 26.3 72.9 M17.4 56.0 L17.75 57.0 Q18.3 58.05 19.15 58.15 L19.65 56.75 20.3 58.25 19.1 59.3 18.3 59.25 17.15 57.1 17.4 56.0 M8.9 54.1 L9.0 54.65 9.1 55.5 Q9.4 57.65 10.8 59.9 12.95 63.25 16.5 64.1 12.5 65.75 9.45 59.3 6.75 53.5 6.75 46.3 6.75 39.75 12.35 31.05 17.9 22.3 17.9 16.55 17.9 12.35 16.15 8.55 15.1 6.4 12.25 2.35 6.6 -5.6 6.6 -12.5 6.75 -16.75 7.6 -21.05 9.3 -29.55 12.8 -31.45 9.0 -23.0 9.0 -16.05 9.0 -7.05 13.9 1.65 L17.25 7.95 Q18.75 11.5 18.75 15.15 18.75 23.3 13.25 31.85 10.25 36.45 9.45 38.15 7.75 41.75 7.75 45.4 L8.9 54.1 M24.55 56.8 Q24.5 55.85 23.95 55.2 23.3 54.5 22.4 54.5 L22.15 54.4 Q21.3 54.5 20.45 55.1 19.25 55.9 18.9 57.2 18.2 57.45 18.15 56.6 18.55 52.5 22.1 53.05 23.1 53.05 23.85 54.2 L23.95 54.4 Q24.5 55.4 24.55 56.8 M7.8 32.85 L6.95 34.15 Q4.75 30.75 3.7 28.8 1.8 25.25 1.8 18.6 1.8 16.05 2.95 12.85 3.75 10.65 6.7 4.3 L6.55 7.6 Q5.55 8.75 4.55 10.85 2.65 14.95 2.65 20.1 2.65 23.0 3.9 25.65 L7.8 32.85 M-0.5 60.75 L0.2 59.2 0.65 60.65 Q2.05 60.5 2.45 58.55 L2.7 59.6 1.5 61.75 Q1.0 61.65 0.3 61.25 L-0.5 60.75 M-22.75 78.0 Q-21.6 79.3 -18.75 80.6 -16.05 81.85 -14.8 81.85 -10.15 81.85 -8.5 78.3 -7.9 77.05 -7.6 73.5 L-7.5 73.05 -6.7 75.15 Q-7.2 77.3 -8.8 79.65 -11.25 83.35 -14.5 83.35 -21.15 83.35 -24.45 78.1 -26.65 74.6 -26.65 70.85 -26.65 65.9 -23.55 62.1 -21.75 59.9 -16.65 56.0 -11.8 52.3 -9.8 49.65 -6.7 45.45 -6.7 39.95 -6.7 36.25 -10.95 29.7 -15.25 23.1 -15.25 18.4 -15.25 12.75 -10.4 6.3 -3.85 -2.35 -3.05 -4.25 -2.2 -6.2 -2.4 -12.05 -2.55 -16.95 -0.2 -19.45 L-0.05 -19.4 0.0 -18.95 -0.6 -17.9 Q-1.25 -16.55 -1.25 -13.15 L-0.6 -9.9 0.05 -7.4 Q0.05 -6.2 -6.45 3.15 -13.0 12.5 -13.0 16.6 -13.0 20.75 -9.3 28.0 -5.65 35.2 -5.65 39.75 -5.65 45.85 -8.75 50.25 -10.75 53.1 -15.55 56.75 -20.7 60.65 -22.35 62.7 -25.45 66.45 -25.45 71.5 L-25.2 73.45 -24.65 75.35 Q-23.85 77.05 -22.75 78.0 M-18.15 19.75 L-17.8 22.05 -20.85 26.35 Q-22.6 29.4 -22.6 33.05 L-21.95 37.1 Q-21.25 39.9 -20.55 41.25 L-20.4 43.15 -22.55 37.75 Q-23.6 35.4 -23.6 32.9 -23.6 26.65 -18.15 19.75 M-34.65 46.75 Q-34.6 48.8 -33.25 49.15 L-32.55 47.85 -32.15 49.45 -34.3 50.1 -35.1 47.8 -34.65 46.75 M-42.75 44.5 Q-42.7 46.9 -41.2 50.1 -39.35 54.0 -36.8 54.6 -39.7 54.95 -41.7 51.65 -44.0 47.9 -44.0 40.8 -44.0 33.75 -42.3 29.85 -40.75 26.3 -35.85 21.2 -31.3 16.4 -29.05 10.85 -27.65 7.3 -27.65 5.35 -27.65 0.35 -28.6 -1.5 L-30.8 -5.25 -33.85 -11.95 Q-34.5 -13.55 -34.5 -15.85 -34.5 -20.7 -31.75 -26.4 -29.0 -32.05 -25.55 -34.25 -28.4 -32.3 -30.25 -26.5 -31.85 -21.45 -31.85 -17.05 -31.85 -14.2 -29.25 -5.85 -26.7 2.55 -26.7 6.05 -26.7 7.0 -27.55 9.85 L-28.6 13.8 -32.4 19.55 Q-39.7 27.0 -41.4 31.1 -43.25 35.4 -42.75 44.5 M-27.75 48.8 Q-27.75 47.65 -28.25 46.85 -28.8 46.05 -29.5 46.05 L-29.75 45.9 -30.85 45.7 Q-31.65 46.0 -32.45 46.7 -33.45 47.55 -33.4 48.2 L-34.1 48.3 Q-33.7 45.8 -32.9 45.15 -32.1 44.5 -29.55 44.6 -28.65 45.55 -27.9 46.8 L-27.35 48.0 -27.45 48.7 -27.75 48.8 M36.9 -37.65 Q36.8 -35.8 33.75 -31.75 30.15 -27.0 29.65 -25.85 L24.1 -14.4 24.4 -12.3 24.8 -10.3 Q24.9 -9.55 25.7 -8.55 L26.5 -7.6 26.35 -6.95 26.2 -7.1 Q23.45 -11.6 22.75 -13.7 22.15 -15.55 22.15 -19.0 22.15 -26.35 23.1 -26.35 23.6 -26.35 23.1 -25.95 22.6 -25.6 23.1 -25.6 23.85 -25.6 27.25 -32.3 31.35 -39.0 35.75 -39.0 36.75 -39.0 36.65 -38.45 L36.9 -37.65 M5.8 -4.2 L6.4 -3.0 Q3.8 1.75 2.3 4.8 -0.45 10.3 -1.4 15.0 L-1.5 12.95 Q-1.5 11.05 1.55 3.9 L5.8 -4.2 M-0.85 -23.5 L-0.4 -23.45 Q-0.4 -23.15 -2.5 -20.35 -4.95 -17.1 -6.35 -13.1 -8.3 -7.65 -8.9 -4.55 -9.35 -2.05 -10.45 0.55 -11.6 -10.15 -7.0 -16.9 -4.6 -20.45 -0.85 -23.5 M7.6 -37.8 L7.85 -37.55 6.95 -35.75 Q6.2 -34.15 6.0 -33.0 L5.1 -25.9 Q4.65 -26.35 4.65 -27.15 4.65 -32.1 5.7 -34.85 6.35 -36.6 7.6 -37.8 M-11.65 -6.05 L-12.55 -10.0 -12.9 -13.35 Q-12.9 -20.05 -7.8 -26.9 -5.2 -30.35 -2.45 -32.9 -1.65 -34.9 1.35 -38.45 5.2 -42.9 7.45 -42.25 3.6 -41.75 0.9 -34.0 L-1.05 -27.8 Q-2.1 -24.45 -3.0 -23.1 L-3.05 -23.05 -4.95 -21.25 Q-6.7 -20.55 -8.5 -17.0 -10.75 -12.6 -11.65 -6.05 M-11.65 -0.25 L-12.4 3.2 Q-14.95 -3.15 -20.6 -13.65 -24.5 -20.85 -24.5 -23.9 -24.5 -30.45 -19.3 -35.25 -15.15 -39.05 -12.35 -39.05 -15.4 -36.6 -17.75 -33.45 -21.6 -28.25 -21.6 -23.45 -21.6 -17.55 -18.15 -11.45 L-11.65 -0.25 M20.1 -2.6 Q23.25 -1.15 25.35 4.8 27.25 10.1 27.25 15.05 L27.0 15.75 26.45 15.8 Q25.85 5.8 23.0 1.2 L21.05 -1.15 Q20.15 -2.05 20.1 -2.6 M11.7 -14.65 Q12.1 -13.2 17.5 -2.2 22.2 7.45 22.2 10.5 L22.0 12.55 Q21.55 8.75 18.3 1.85 L15.1 -4.4 Q12.2 -10.8 12.0 -11.65 11.8 -12.45 11.7 -14.65 M9.6 13.3 L9.6 7.75 Q9.6 7.1 9.75 6.85 L10.1 6.2 10.2 6.4 10.7 9.2 Q11.2 11.6 13.2 16.6 L12.1 17.9 Q10.0 19.9 9.55 16.0 L9.6 13.3 M8.25 16.9 L8.8 18.15 7.85 19.95 Q7.3 19.2 8.25 16.9 M15.15 38.7 Q15.6 38.5 15.6 38.7 L15.4 40.1 Q15.1 43.9 16.65 50.3 L15.75 50.6 Q15.2 49.45 14.7 46.65 L14.35 43.9 14.6 41.35 Q14.9 39.5 15.15 38.7 M36.9 32.85 Q38.4 34.55 38.4 35.35 38.4 42.75 37.4 44.4 L36.45 44.95 35.5 45.0 Q37.25 40.7 37.25 35.85 L36.9 32.85 M11.9 52.55 L12.7 54.6 11.5 59.05 10.85 57.7 11.9 52.55 M-2.2 55.45 Q1.4 55.1 1.75 59.1 1.6 59.95 1.0 59.7 0.85 56.3 -2.2 56.8 L-2.45 56.9 Q-3.4 56.9 -4.05 57.6 -4.7 58.3 -4.7 59.3 -4.9 59.75 -4.9 58.75 -4.25 56.8 -2.2 55.45 M3.2 66.6 Q6.75 65.05 7.75 64.0 L8.4 64.7 6.25 66.5 3.65 66.75 3.2 66.6 M0.75 -0.1 L0.9 0.25 -2.65 5.45 Q-5.5 10.45 -5.9 18.2 -6.65 18.0 -6.65 16.85 -6.65 12.05 -4.4 7.45 -2.65 3.85 0.75 -0.1 M-2.3 -39.1 L-2.25 -39.1 Q-2.4 -37.4 -3.7 -35.6 L-4.95 -34.15 Q-6.35 -34.15 -8.7 -32.55 -11.1 -30.95 -13.1 -28.55 -14.7 -26.65 -15.75 -23.2 -16.75 -20.0 -16.75 -17.3 L-16.6 -14.2 -16.25 -12.9 -15.5 -12.05 -15.55 -11.85 -15.85 -11.45 Q-17.0 -12.45 -17.75 -15.05 -18.35 -17.25 -18.35 -19.15 -18.35 -25.3 -13.9 -31.6 -9.4 -38.0 -4.95 -38.0 L-3.65 -38.4 -3.15 -38.5 -2.3 -39.1 M-22.6 -8.4 Q-20.0 -4.4 -19.25 -2.6 -18.05 0.15 -18.05 3.65 -18.05 7.85 -18.3 8.25 -18.45 8.6 -19.3 8.55 L-19.3 8.25 Q-18.45 -0.1 -20.25 -3.95 -21.2 -6.0 -22.8 -8.0 L-22.6 -8.4 M-28.9 -20.05 L-25.6 -10.5 Q-22.55 -1.9 -22.55 2.05 -22.55 3.35 -23.15 5.05 -23.65 0.45 -26.45 -9.1 L-29.1 -18.05 -28.9 -20.05 M-5.25 -4.7 L-5.45 -4.9 -5.05 -4.9 -5.25 -4.7 M-34.05 8.25 L-34.8 5.45 -35.1 4.35 Q-34.85 1.9 -33.85 -2.15 -33.65 -1.65 -33.2 2.75 L-32.45 7.35 Q-33.45 8.2 -34.05 8.25 M-34.1 29.3 Q-33.9 29.55 -34.25 33.9 L-34.7 38.9 -34.5 41.0 -35.4 41.15 Q-35.85 39.25 -35.85 36.3 -34.65 30.65 -34.1 29.3 M-16.65 35.0 L-17.0 39.7 Q-17.0 41.1 -15.95 45.55 L-15.45 47.2 -16.3 47.5 Q-17.05 46.15 -17.6 43.15 -18.15 40.25 -18.15 37.9 -18.2 35.6 -16.65 35.0 M-23.15 73.7 L-23.25 72.4 -23.1 72.45 Q-20.1 73.3 -17.2 72.55 -15.1 72.0 -14.4 71.25 L-14.6 72.85 Q-16.05 73.45 -18.6 73.9 L-23.15 73.7" fill="#ffffff" fill-rule="evenodd" stroke="none"/>
    <path d="M27.15 -39.75 Q26.1 -38.8 24.6 -35.05 23.1 -31.35 23.1 -30.05 L23.55 -31.15 Q24.85 -36.25 27.3 -38.1 30.1 -40.25 36.65 -40.25 39.45 -40.25 40.9 -38.85 42.1 -37.7 42.1 -35.95 42.1 -32.95 40.85 -31.05 39.65 -29.25 35.25 -25.55 32.45 -23.2 30.3 -18.15 28.5 -13.9 28.5 -11.85 28.5 -7.95 31.3 -1.75 L34.5 6.75 Q37.55 14.4 37.55 15.9 37.55 20.65 32.75 27.85 27.9 35.05 27.9 37.75 27.9 43.9 31.65 47.85 34.0 50.35 40.95 56.0 44.5 59.4 46.05 62.3 47.45 65.0 47.45 67.95 47.45 74.2 42.75 78.45 38.75 82.05 34.65 82.05 32.2 82.05 29.85 79.95 26.95 77.4 26.3 72.9 29.25 81.1 33.95 81.1 40.9 81.1 44.2 75.75 46.3 72.35 46.3 68.8 46.3 64.85 44.4 61.55 42.0 57.5 36.45 53.95 31.8 50.95 29.2 46.25 26.95 42.2 26.95 38.5 26.95 35.85 27.65 34.0 28.65 31.1 32.25 25.55 33.5 23.55 34.6 20.85 35.8 17.8 35.8 16.25 35.8 11.5 33.45 7.2 32.5 5.5 26.0 -3.75 L22.8 -9.0 Q20.0 -13.7 19.55 -14.85 18.95 -16.5 18.4 -16.65 18.1 -17.15 18.1 -22.0 18.1 -26.75 19.5 -30.9 20.95 -35.1 23.1 -36.65 L23.1 -38.35 Q18.2 -32.65 17.05 -30.25 15.35 -26.8 15.35 -20.55 15.35 -17.35 17.0 -14.35 L21.75 -7.15 31.2 7.45 Q33.55 11.55 33.55 14.65 33.55 19.2 29.75 25.85 25.9 32.55 25.9 38.05 25.9 42.8 28.9 47.1 30.85 49.9 35.5 54.15 40.5 58.65 42.1 60.7 45.1 64.5 45.1 68.4 45.1 70.9 44.15 73.45 41.9 76.95 42.25 75.9 L43.35 73.75 Q44.1 72.2 44.1 69.8 44.1 64.4 41.1 60.45 39.45 58.4 34.45 54.35 29.75 50.6 27.75 47.6 24.75 43.0 24.75 36.4 24.75 34.8 25.55 31.6 26.8 28.7 28.25 24.2 30.75 16.55 30.75 12.7 30.75 9.25 28.0 4.5 26.55 2.05 21.9 -4.35 13.05 -16.45 13.05 -23.3 13.05 -28.05 15.95 -33.25 19.1 -38.85 23.1 -39.9 L23.1 -41.15 Q16.7 -39.0 16.0 -38.5 13.0 -36.2 11.35 -34.3 10.9 -33.8 10.2 -32.0 9.65 -30.6 9.1 -30.6 8.65 -30.6 6.35 -24.95 3.7 -18.55 3.7 -14.2 L4.4 -9.7 Q5.0 -5.6 4.8 -4.9 5.5 -4.9 5.8 -4.2 L1.55 3.9 Q-1.5 11.05 -1.5 12.95 L-1.4 15.0 Q-0.45 10.3 2.3 4.8 3.8 1.75 6.4 -3.0 L7.1 -1.75 Q1.8 7.65 0.1 13.0 -1.3 17.3 -1.3 22.45 L-1.0 25.7 0.85 29.2 4.0 33.9 Q5.5 36.15 5.5 36.8 5.5 37.8 4.2 40.2 3.2 44.1 3.2 46.6 L4.1 57.2 2.7 59.6 2.45 58.55 Q1.3 55.05 2.3 50.75 3.5 45.65 3.05 42.05 3.3 39.65 2.8 37.55 2.4 35.6 1.5 34.4 -1.6 30.0 -2.85 26.4 -3.95 23.25 -3.95 19.6 -3.95 15.7 -3.05 12.7 L0.0 5.1 Q-4.7 8.45 -4.7 22.15 L-4.25 27.3 -3.75 34.65 -5.55 30.1 Q-6.7 24.45 -8.1 20.5 -8.85 18.3 -8.85 15.8 -8.85 13.8 -7.75 10.6 -6.5 7.05 -4.55 4.2 L-0.4 -1.35 Q1.95 -4.25 2.4 -4.25 L3.05 -4.2 2.9 -4.9 Q2.9 -6.05 2.1 -9.75 L1.3 -13.8 Q1.3 -16.5 3.05 -22.05 L2.9 -22.25 2.45 -21.6 Q1.95 -20.75 1.1 -16.9 L0.35 -13.1 Q0.35 -9.25 0.95 -7.4 L1.5 -5.95 Q1.5 -5.1 -0.3 -2.85 L-4.3 2.0 Q-10.1 9.55 -10.1 15.8 -10.1 20.55 -8.0 26.95 L-5.3 34.0 Q-4.55 37.0 -4.55 38.8 -4.55 45.1 -7.65 50.0 -9.7 53.25 -14.45 57.3 -19.8 61.9 -21.3 63.8 -24.4 67.7 -24.4 72.35 -24.4 73.95 -23.95 74.95 L-22.75 78.0 Q-23.85 77.05 -24.65 75.35 L-25.2 73.45 -25.45 71.5 Q-25.45 66.45 -22.35 62.7 -20.7 60.65 -15.55 56.75 -10.75 53.1 -8.75 50.25 -5.65 45.85 -5.65 39.75 -5.65 35.2 -9.3 28.0 -13.0 20.75 -13.0 16.6 -13.0 12.5 -6.45 3.15 0.05 -6.2 0.05 -7.4 L-0.6 -9.9 -1.25 -13.15 Q-1.25 -16.55 -0.6 -17.9 L0.0 -18.95 -0.05 -19.4 -0.2 -19.45 Q-2.55 -16.95 -2.4 -12.05 -2.2 -6.2 -3.05 -4.25 -3.85 -2.35 -10.4 6.3 -15.25 12.75 -15.25 18.4 -15.25 23.1 -10.95 29.7 -6.7 36.25 -6.7 39.95 -6.7 45.45 -9.8 49.65 -11.8 52.3 -16.65 56.0 -21.75 59.9 -23.55 62.1 -26.65 65.9 -26.65 70.85 -26.65 74.6 -24.45 78.1 -21.15 83.35 -14.5 83.35 -11.25 83.35 -8.8 79.65 -7.2 77.3 -6.7 75.15 -6.95 78.0 -9.55 81.05 -12.2 84.25 -14.65 84.25 -20.05 84.25 -24.05 79.7 -27.7 75.6 -27.7 71.15 -27.7 65.55 -24.55 61.6 -22.65 59.15 -17.7 55.75 -12.65 52.2 -10.8 50.0 -7.7 46.2 -7.7 40.9 -7.7 36.3 -12.35 30.35 -17.0 24.4 -17.0 19.25 L-16.45 15.9 -15.7 12.95 Q-14.5 10.8 -12.55 6.15 -10.65 1.6 -10.45 0.55 -9.35 -2.05 -8.9 -4.55 -8.3 -7.65 -6.35 -13.1 -4.95 -17.1 -2.5 -20.35 -0.4 -23.15 -0.4 -23.45 L-0.85 -23.5 1.6 -27.3 2.35 -30.55 Q3.0 -33.95 4.35 -36.2 5.95 -38.9 8.85 -40.6 8.75 -40.8 6.9 -39.8 3.05 -36.4 2.35 -33.35 1.35 -29.0 -3.0 -23.1 -2.1 -24.45 -1.05 -27.8 L0.9 -34.0 Q3.6 -41.75 7.45 -42.25 5.2 -42.9 1.35 -38.45 -1.65 -34.9 -2.45 -32.9 -5.2 -30.35 -7.8 -26.9 -12.9 -20.05 -12.9 -13.35 L-12.55 -10.0 -11.65 -6.05 -11.55 -3.75 -11.65 -0.25 -18.15 -11.45 Q-21.6 -17.55 -21.6 -23.45 -21.6 -28.25 -17.75 -33.45 -15.4 -36.6 -12.35 -39.05 -15.15 -39.05 -19.3 -35.25 -24.5 -30.45 -24.5 -23.9 -24.5 -20.85 -20.6 -13.65 -14.95 -3.15 -12.4 3.2 L-15.5 9.6 -14.35 4.2 Q-14.35 1.85 -16.85 -3.35 -18.9 -7.65 -20.45 -9.85 -24.15 -15.05 -25.55 -19.05 -26.55 -22.0 -26.55 -25.4 -26.55 -31.35 -20.65 -36.25 -16.05 -40.1 -13.05 -40.45 L-6.7 -43.25 -5.1 -43.5 -8.15 -40.2 -12.4 -35.55 Q-3.15 -41.85 0.0 -42.9 2.85 -43.85 15.7 -45.1 12.95 -42.45 10.95 -39.6 8.9 -36.6 8.3 -34.25 L8.85 -34.85 Q12.8 -39.8 15.1 -41.8 18.65 -44.95 21.85 -44.95 L28.6 -42.3 27.35 -40.0 27.15 -39.75 M25.85 27.7 L24.0 32.2 24.95 21.8 25.25 16.4 Q25.25 12.0 24.15 8.5 23.0 4.8 20.75 2.6 L23.65 10.2 Q24.45 13.2 24.45 18.15 24.45 20.9 23.5 23.5 22.4 26.4 19.65 30.4 L18.15 33.4 Q16.9 36.45 16.9 38.7 16.9 40.0 17.05 39.55 16.6 43.1 17.65 48.25 18.5 52.55 17.4 56.0 L17.15 57.1 Q16.05 55.2 14.45 50.9 12.65 45.9 12.65 43.65 12.65 42.95 13.4 36.55 L21.1 23.8 21.55 21.65 21.85 19.15 Q21.85 14.15 18.7 6.35 17.15 2.5 13.4 -5.05 12.85 -5.95 12.8 -5.4 L18.4 7.25 Q20.55 12.6 20.55 17.45 20.55 22.6 18.05 26.55 14.6 31.95 14.45 32.45 L13.4 34.3 Q12.95 34.3 12.65 34.95 12.35 35.55 12.35 36.4 10.45 39.75 10.2 40.4 8.7 44.45 8.7 50.7 L8.9 54.1 7.75 45.4 Q7.75 41.75 9.45 38.15 10.25 36.45 13.25 31.85 18.75 23.3 18.75 15.15 18.75 11.5 17.25 7.95 L13.9 1.65 Q9.0 -7.05 9.0 -16.05 9.0 -23.0 12.8 -31.45 9.3 -29.55 7.6 -21.05 6.75 -16.75 6.6 -12.5 6.6 -5.6 12.25 2.35 15.1 6.4 16.15 8.55 17.9 12.35 17.9 16.55 17.9 22.3 12.35 31.05 6.75 39.75 6.75 46.3 6.75 53.5 9.45 59.3 12.5 65.75 16.5 64.1 L18.3 64.25 Q21.3 64.25 23.2 63.0 26.1 61.05 24.55 56.9 L24.55 56.8 Q24.5 55.4 23.95 54.4 L24.15 54.55 26.25 56.5 26.45 58.1 Q26.45 61.4 24.25 63.5 22.0 65.7 18.1 65.7 12.25 65.7 8.8 60.9 4.9 55.5 4.9 45.0 L5.35 40.2 7.0 36.85 Q8.3 34.45 9.15 33.2 12.25 30.3 14.4 26.2 16.6 21.85 16.6 18.3 16.6 14.5 10.8 3.15 5.0 -8.2 5.0 -12.5 5.0 -13.95 6.0 -17.5 7.45 -22.8 10.7 -30.95 11.55 -33.15 15.75 -36.45 L20.35 -39.55 20.9 -39.7 Q16.65 -35.8 14.55 -32.1 11.9 -27.55 11.9 -22.45 11.9 -17.15 14.65 -12.3 16.45 -9.1 20.7 -4.3 25.25 0.9 26.7 3.2 29.45 7.5 29.45 11.75 29.45 13.4 28.55 17.05 L25.85 27.7 M20.3 58.25 L22.2 62.4 20.4 63.05 18.3 59.25 19.1 59.3 20.3 58.25 M8.4 32.05 L7.8 32.85 3.9 25.65 Q2.65 23.0 2.65 20.1 2.65 14.95 4.55 10.85 5.55 8.75 6.55 7.6 6.9 11.25 5.5 14.75 3.95 18.6 3.95 21.45 3.95 23.35 4.75 24.95 L8.4 32.05 M6.95 34.15 L6.15 35.55 5.85 35.0 2.65 30.05 Q-0.1 25.5 -0.1 20.85 0.8 13.75 1.0 13.05 2.5 7.9 7.55 -1.0 L7.8 -0.25 Q6.9 2.95 6.7 4.3 3.75 10.65 2.95 12.85 1.8 16.05 1.8 18.6 1.8 25.25 3.7 28.8 4.75 30.75 6.95 34.15 M-0.7 65.5 L-2.45 64.75 -0.5 60.75 0.3 61.25 Q1.0 61.65 1.5 61.75 L-0.7 65.5 M-17.55 14.45 L-17.95 16.1 Q-18.35 18.5 -18.15 19.75 -23.6 26.65 -23.6 32.9 -23.6 35.4 -22.55 37.75 L-20.4 43.15 -19.9 45.9 Q-21.4 43.6 -22.65 40.25 -24.45 35.45 -24.45 31.0 L-23.95 28.0 -22.7 24.0 Q-21.8 22.9 -20.5 20.6 -18.95 17.75 -17.55 14.45 M-17.8 22.05 Q-17.35 24.15 -18.45 25.3 L-20.5 27.75 -21.15 30.25 -21.6 33.5 -20.55 41.25 Q-21.25 39.9 -21.95 37.1 L-22.6 33.05 Q-22.6 29.4 -20.85 26.35 L-17.8 22.05 M-21.75 20.2 L-24.3 24.35 -22.85 18.5 -21.2 12.2 Q-20.15 7.65 -20.15 5.15 -20.15 -0.8 -21.65 -2.45 L-22.8 -3.75 Q-20.9 0.55 -20.9 3.95 -20.9 7.65 -21.85 11.5 -23.0 16.2 -25.1 18.35 -28.35 21.6 -30.5 25.6 L-31.4 27.4 -31.4 27.25 -32.35 30.45 Q-33.35 33.8 -33.1 39.1 -32.9 43.5 -34.65 46.75 L-35.1 47.8 Q-36.65 45.5 -37.25 41.05 L-37.6 36.45 Q-37.6 34.85 -37.1 32.4 -36.5 29.2 -35.45 26.9 L-25.45 15.05 -24.5 10.2 Q-23.85 7.05 -23.85 4.55 -23.85 0.85 -25.2 -2.5 L-27.15 -6.85 -28.7 -11.45 Q-29.25 -13.0 -29.35 -11.6 L-28.05 -7.3 Q-26.45 -2.45 -25.6 0.75 -25.05 2.9 -25.05 5.05 -25.05 12.05 -28.55 16.85 -30.45 19.45 -33.8 23.0 L-35.1 24.7 Q-35.7 24.7 -36.1 25.25 -36.5 25.8 -36.5 26.6 -42.5 34.25 -42.75 44.5 -43.25 35.4 -41.4 31.1 -39.7 27.0 -32.4 19.55 L-28.6 13.8 -27.55 9.85 Q-26.7 7.0 -26.7 6.05 -26.7 2.55 -29.25 -5.85 -31.85 -14.2 -31.85 -17.05 -31.85 -21.45 -30.25 -26.5 -28.4 -32.3 -25.55 -34.25 -29.0 -32.05 -31.75 -26.4 -34.5 -20.7 -34.5 -15.85 -34.5 -13.55 -33.85 -11.95 L-30.8 -5.25 -28.6 -1.5 Q-27.65 0.35 -27.65 5.35 -27.65 7.3 -29.05 10.85 -31.3 16.4 -35.85 21.2 -40.75 26.3 -42.3 29.85 -44.0 33.75 -44.0 40.8 -44.0 47.9 -41.7 51.65 -39.7 54.95 -36.8 54.6 L-34.0 55.1 Q-30.45 55.55 -28.2 52.9 -27.9 52.6 -27.75 51.3 -27.6 49.9 -27.75 48.8 L-27.45 48.7 -27.35 48.0 -27.9 46.8 Q-28.65 45.55 -29.55 44.6 -29.05 44.9 -27.7 46.35 -26.2 47.95 -26.0 48.65 -25.75 52.25 -28.2 54.5 -30.35 56.5 -33.3 56.5 -39.65 56.5 -42.95 51.75 -45.8 47.7 -45.8 41.2 -45.8 34.85 -45.3 33.05 -44.5 31.5 -44.0 29.25 -42.2 26.3 -39.15 22.9 -32.5 16.75 -30.55 13.1 -29.25 10.6 -29.25 6.4 -29.25 1.35 -32.65 -6.3 -36.1 -13.9 -36.1 -16.6 -36.1 -21.05 -31.9 -27.95 -28.7 -33.25 -24.55 -36.65 -20.5 -40.0 -16.9 -40.4 L-15.85 -40.55 -18.8 -39.0 Q-21.6 -37.35 -23.95 -34.2 -25.4 -32.25 -26.6 -28.4 -27.65 -25.2 -27.65 -24.0 -27.65 -18.1 -21.6 -8.9 -15.6 0.25 -15.6 4.0 -15.6 7.8 -16.65 9.8 -20.2 16.6 -21.75 20.2 M-32.15 49.45 L-30.95 53.8 -32.8 54.2 -34.3 50.1 -32.15 49.45 M36.9 -37.65 L36.65 -38.45 Q36.75 -39.0 35.75 -39.0 31.35 -39.0 27.25 -32.3 23.85 -25.6 23.1 -25.6 22.6 -25.6 23.1 -25.95 23.6 -26.35 23.1 -26.35 22.15 -26.35 22.15 -19.0 22.15 -15.55 22.75 -13.7 23.45 -11.6 26.2 -7.1 L26.35 -6.95 26.5 -7.6 25.7 -8.55 Q24.9 -9.55 24.8 -10.3 L24.4 -12.3 24.1 -14.4 29.65 -25.85 Q30.15 -27.0 33.75 -31.75 36.8 -35.8 36.9 -37.65 M7.6 -37.8 Q6.35 -36.6 5.7 -34.85 4.65 -32.1 4.65 -27.15 4.65 -26.35 5.1 -25.9 L6.0 -33.0 Q6.2 -34.15 6.95 -35.75 L7.85 -37.55 7.6 -37.8 M11.7 -14.65 Q11.8 -12.45 12.0 -11.65 12.2 -10.8 15.1 -4.4 L18.3 1.85 Q21.55 8.75 22.0 12.55 L22.2 10.5 Q22.2 7.45 17.5 -2.2 12.1 -13.2 11.7 -14.65 M20.1 -2.6 Q20.15 -2.05 21.05 -1.15 L23.0 1.2 Q25.85 5.8 26.45 15.8 L27.0 15.75 27.25 15.05 Q27.25 10.1 25.35 4.8 23.25 -1.15 20.1 -2.6 M12.1 17.9 L13.2 16.6 Q11.2 11.6 10.7 9.2 L10.2 6.4 10.1 6.2 9.75 6.85 Q9.6 7.1 9.6 7.75 L9.6 13.3 Q7.85 9.7 7.85 3.9 L7.9 1.9 8.25 0.2 Q10.7 3.9 12.75 8.45 15.35 14.3 15.35 17.9 L14.85 20.55 Q14.25 23.25 13.85 24.15 13.4 20.9 12.1 17.9 M8.8 18.15 L9.35 19.4 Q7.15 23.95 6.65 25.7 L6.5 26.75 Q6.25 26.1 5.7 23.3 L5.15 20.5 Q6.55 14.4 7.1 12.95 L8.25 16.9 Q7.3 19.2 7.85 19.95 L8.8 18.15 M15.15 38.7 Q14.9 39.5 14.6 41.35 L14.35 43.9 14.7 46.65 Q15.2 49.45 15.75 50.6 L16.65 50.3 Q15.1 43.9 15.4 40.1 L15.6 38.7 Q15.6 38.5 15.15 38.7 M37.7 27.8 Q39.3 31.1 39.6 37.8 37.85 46.15 35.1 49.75 L32.85 47.7 Q34.1 47.05 34.9 42.45 35.75 37.7 35.2 33.25 L37.7 27.8 M36.9 32.85 L37.25 35.85 Q37.25 40.7 35.5 45.0 L36.45 44.95 37.4 44.4 Q38.4 42.75 38.4 35.35 38.4 34.55 36.9 32.85 M25.7 51.95 Q20.3 46.25 20.2 39.65 20.15 35.95 21.5 33.4 L21.25 35.0 Q20.35 35.8 22.0 43.6 L24.45 48.7 Q25.55 50.95 25.7 51.95 M30.05 55.25 L30.25 53.1 33.2 55.7 Q32.8 57.05 32.5 59.15 32.25 61.3 32.35 62.55 30.0 57.7 30.05 55.25 M21.65 68.25 L22.4 68.1 Q23.15 68.05 23.25 68.75 23.5 69.4 22.55 72.1 L21.1 75.4 Q22.55 70.15 21.65 68.25 M10.85 57.7 L11.15 54.35 11.15 50.85 11.05 49.85 11.9 52.55 10.85 57.7 M12.7 54.6 L13.95 57.45 12.65 60.8 11.5 59.05 12.7 54.6 M-2.2 55.45 Q-4.25 56.8 -4.9 58.75 -4.9 59.75 -4.7 59.3 -5.25 61.15 -5.25 62.2 -5.25 65.1 -1.95 66.25 L1.5 66.8 3.2 66.6 3.65 66.75 2.45 68.2 Q-3.6 67.65 -5.4 64.85 -6.45 63.2 -6.4 58.85 -4.6 56.45 -2.2 55.45 M8.4 64.7 L9.2 65.45 7.05 66.85 6.25 66.5 8.4 64.7 M-2.05 70.75 L-2.4 73.4 Q-2.4 75.1 -1.55 77.85 L-2.75 74.8 -3.5 72.25 -3.45 70.1 -2.05 70.75 M-2.3 -39.1 L-3.15 -38.5 -3.65 -38.4 -4.95 -38.0 Q-9.4 -38.0 -13.9 -31.6 -18.35 -25.3 -18.35 -19.15 -18.35 -17.25 -17.75 -15.05 -17.0 -12.45 -15.85 -11.45 L-15.55 -11.85 -15.5 -12.05 -16.25 -12.9 -16.6 -14.2 -16.75 -17.3 Q-16.75 -20.0 -15.75 -23.2 -14.7 -26.65 -13.1 -28.55 -11.1 -30.95 -8.7 -32.55 -6.35 -34.15 -4.95 -34.15 L-3.7 -35.6 Q-2.4 -37.4 -2.25 -39.1 L-2.3 -39.1 M0.75 -0.1 Q-2.65 3.85 -4.4 7.45 -6.65 12.05 -6.65 16.85 -6.65 18.0 -5.9 18.2 -5.5 10.45 -2.65 5.45 L0.9 0.25 0.75 -0.1 M-28.9 -20.05 L-29.1 -18.05 -26.45 -9.1 Q-23.65 0.45 -23.15 5.05 -22.55 3.35 -22.55 2.05 -22.55 -1.9 -25.6 -10.5 L-28.9 -20.05 M-22.6 -8.4 L-22.8 -8.0 Q-21.2 -6.0 -20.25 -3.95 -18.45 -0.1 -19.3 8.25 L-19.3 8.55 Q-18.45 8.6 -18.3 8.25 -18.05 7.85 -18.05 3.65 -18.05 0.15 -19.25 -2.6 -20.0 -4.4 -22.6 -8.4 M-5.25 -4.7 L-5.05 -4.9 -5.45 -4.9 -5.25 -4.7 M-35.1 4.35 L-36.25 0.05 Q-35.85 -6.2 -34.75 -7.65 -32.75 -4.75 -31.4 0.65 -30.35 4.9 -30.35 7.05 L-30.65 9.4 Q-31.05 11.25 -31.4 11.9 L-32.5 13.7 Q-32.95 14.4 -32.9 13.7 -33.15 11.85 -34.05 8.25 -33.45 8.2 -32.45 7.35 L-33.2 2.75 Q-33.65 -1.65 -33.85 -2.15 -34.85 1.9 -35.1 4.35 M-25.8 43.55 Q-28.35 39.6 -29.2 35.6 -30.5 29.45 -27.05 25.2 -27.55 25.8 -27.95 27.9 -28.35 30.15 -28.35 32.5 L-28.1 35.2 -25.8 43.55 M-34.1 29.3 Q-34.65 30.65 -35.85 36.3 -35.85 39.25 -35.4 41.15 L-34.5 41.0 -34.7 38.9 -34.25 33.9 Q-33.9 29.55 -34.1 29.3 M-17.4 29.95 L-15.0 35.45 -15.25 38.2 -15.0 44.1 Q-14.9 45.4 -13.85 47.65 L-12.85 49.95 Q-12.85 50.95 -15.15 52.0 -16.7 49.9 -18.0 46.1 -19.35 42.35 -19.35 40.25 L-19.2 37.05 Q-18.8 34.3 -17.4 29.95 M-16.65 35.0 Q-18.2 35.6 -18.15 37.9 -18.15 40.25 -17.6 43.15 -17.05 46.15 -16.3 47.5 L-15.45 47.2 -15.95 45.55 Q-17.0 41.1 -17.0 39.7 L-16.65 35.0 M-5.75 54.3 Q-4.9 50.7 -3.45 48.95 -2.05 47.25 -1.4 44.4 -1.1 43.1 -0.95 40.2 -0.85 37.45 -1.0 37.45 L-1.25 35.8 Q0.45 39.4 0.2 42.15 -0.25 47.3 -5.75 54.3 M-32.4 59.55 L-30.9 59.2 Q-30.7 60.4 -31.6 62.65 -32.6 65.25 -34.15 66.5 L-33.2 63.75 Q-32.4 61.0 -32.4 59.55 M-10.15 57.1 Q-10.35 58.8 -11.15 61.35 -11.95 63.8 -12.6 64.85 L-12.9 61.4 -13.35 57.95 -10.35 55.4 -10.15 57.1 M-23.15 73.7 L-18.6 73.9 Q-16.05 73.45 -14.6 72.85 -16.0 74.25 -17.3 74.7 L-21.85 75.2 Q-22.85 75.2 -23.15 73.7 M-34.0 55.1 Q-34.7 55.1 -34.35 55.5 -34.0 55.85 -34.0 55.1 M-28.25 66.85 L-28.45 66.05 -28.6 64.75 -28.25 66.85" fill="#d1d1d1" fill-rule="evenodd" stroke="none"/>
    <path d="M27.15 -39.75 Q28.25 -39.95 31.6 -41.65 34.7 -43.2 35.75 -43.2 38.45 -43.2 41.15 -41.15 45.0 -38.3 45.0 -32.9 45.0 -29.8 42.75 -27.3 L37.85 -23.15 Q30.65 -17.45 30.65 -8.75 L30.9 -5.5 31.3 -1.75 Q28.5 -7.95 28.5 -11.85 28.5 -13.9 30.3 -18.15 32.45 -23.2 35.25 -25.55 39.65 -29.25 40.85 -31.05 42.1 -32.95 42.1 -35.95 42.1 -37.7 40.9 -38.85 39.45 -40.25 36.65 -40.25 30.1 -40.25 27.3 -38.1 24.85 -36.25 23.55 -31.15 L23.1 -30.05 Q23.1 -31.35 24.6 -35.05 26.1 -38.8 27.15 -39.75 M25.55 31.6 L25.85 27.7 28.55 17.05 Q29.45 13.4 29.45 11.75 29.45 7.5 26.7 3.2 25.25 0.9 20.7 -4.3 16.45 -9.1 14.65 -12.3 11.9 -17.15 11.9 -22.45 11.9 -27.55 14.55 -32.1 16.65 -35.8 20.9 -39.7 L20.35 -39.55 15.75 -36.45 Q11.55 -33.15 10.7 -30.95 7.45 -22.8 6.0 -17.5 5.0 -13.95 5.0 -12.5 5.0 -8.2 10.8 3.15 16.6 14.5 16.6 18.3 16.6 21.85 14.4 26.2 12.25 30.3 9.15 33.2 L10.2 29.9 8.4 32.05 4.75 24.95 Q3.95 23.35 3.95 21.45 3.95 18.6 5.5 14.75 6.9 11.25 6.55 7.6 L6.7 4.3 Q6.9 2.95 7.8 -0.25 L7.55 -1.0 Q2.5 7.9 1.0 13.05 0.8 13.75 -0.1 20.85 -0.1 25.5 2.65 30.05 L5.85 35.0 Q3.1 32.7 -1.0 25.7 L-1.3 22.45 Q-1.3 17.3 0.1 13.0 1.8 7.65 7.1 -1.75 L6.4 -3.0 5.8 -4.2 Q5.5 -4.9 4.8 -4.9 5.0 -5.6 4.4 -9.7 L3.7 -14.2 Q3.7 -18.55 6.35 -24.95 8.65 -30.6 9.1 -30.6 9.65 -30.6 10.2 -32.0 10.9 -33.8 11.35 -34.3 13.0 -36.2 16.0 -38.5 16.7 -39.0 23.1 -41.15 L23.1 -39.9 Q19.1 -38.85 15.95 -33.25 13.05 -28.05 13.05 -23.3 13.05 -16.45 21.9 -4.35 26.55 2.05 28.0 4.5 30.75 9.25 30.75 12.7 30.75 16.55 28.25 24.2 26.8 28.7 25.55 31.6 M24.0 32.2 L23.5 36.75 24.3 40.95 Q25.3 45.3 26.35 47.45 L29.35 52.05 28.7 56.9 28.95 59.85 Q29.25 62.1 29.75 63.1 L31.45 65.7 Q32.75 67.85 33.1 70.05 32.5 68.55 31.95 68.2 31.05 67.6 28.45 67.7 L27.25 63.45 Q28.1 61.35 28.1 59.9 28.1 58.2 27.1 56.55 L24.0 52.0 17.8 43.3 Q17.65 43.05 17.85 42.65 18.15 42.05 18.15 40.7 L17.7 37.3 17.5 36.25 17.05 39.55 Q16.9 40.0 16.9 38.7 16.9 36.45 18.15 33.4 L19.65 30.4 Q22.4 26.4 23.5 23.5 24.45 20.9 24.45 18.15 24.45 13.2 23.65 10.2 L20.75 2.6 Q23.0 4.8 24.15 8.5 25.25 12.0 25.25 16.4 L24.95 21.8 24.0 32.2 M20.4 63.05 L20.4 63.1 17.55 63.55 Q16.15 58.85 13.45 53.65 11.8 50.5 11.8 46.25 11.8 42.15 13.4 36.55 12.65 42.95 12.65 43.65 12.65 45.9 14.45 50.9 16.05 55.2 17.15 57.1 L18.3 59.25 20.4 63.05 M21.1 23.8 Q19.35 26.55 14.45 32.45 14.6 31.95 18.05 26.55 20.55 22.6 20.55 17.45 20.55 12.6 18.4 7.25 L12.8 -5.4 Q12.85 -5.95 13.4 -5.05 17.15 2.5 18.7 6.35 21.85 14.15 21.85 19.15 L21.55 21.65 21.1 23.8 M13.4 34.3 L12.35 36.4 Q12.35 35.55 12.65 34.95 12.95 34.3 13.4 34.3 M26.25 56.5 Q26.95 57.8 26.95 59.3 26.95 62.95 24.4 65.35 21.95 67.65 18.6 67.65 11.5 67.65 7.65 62.2 4.15 57.25 4.15 49.1 4.7 42.7 5.35 40.2 L4.9 45.0 Q4.9 55.5 8.8 60.9 12.25 65.7 18.1 65.7 22.0 65.7 24.25 63.5 26.45 61.4 26.45 58.1 L26.25 56.5 M4.1 57.2 L4.65 58.5 4.9 59.65 3.85 62.15 Q2.55 64.6 2.15 66.0 L-0.7 65.55 -0.7 65.5 1.5 61.75 2.7 59.6 4.1 57.2 M3.05 42.05 L2.7 38.75 2.25 40.8 2.0 42.5 Q2.0 45.2 0.1 48.25 L-4.05 54.45 Q-4.65 55.45 -7.0 57.7 -8.25 58.85 -8.25 61.65 -8.25 63.65 -7.5 65.8 L-8.75 70.05 Q-9.55 70.0 -10.95 70.5 -12.7 71.15 -13.45 72.25 -13.55 68.7 -11.85 66.95 -10.05 65.85 -9.95 65.4 L-9.2 63.3 Q-8.75 61.55 -8.75 58.8 L-9.0 54.15 -7.45 51.55 Q-5.55 48.35 -4.6 45.95 -3.25 42.4 -3.25 39.15 L-3.75 34.65 -4.25 27.3 -4.7 22.15 Q-4.7 8.45 0.0 5.1 L-3.05 12.7 Q-3.95 15.7 -3.95 19.6 -3.95 23.25 -2.85 26.4 -1.6 30.0 1.5 34.4 2.4 35.6 2.8 37.55 3.3 39.65 3.05 42.05 M-5.55 30.1 L-5.3 34.0 -8.0 26.95 Q-10.1 20.55 -10.1 15.8 -10.1 9.55 -4.3 2.0 L-0.3 -2.85 Q1.5 -5.1 1.5 -5.95 L0.95 -7.4 Q0.35 -9.25 0.35 -13.1 L1.1 -16.9 Q1.95 -20.75 2.45 -21.6 L2.9 -22.25 3.05 -22.05 Q1.3 -16.5 1.3 -13.8 L2.1 -9.75 Q2.9 -6.05 2.9 -4.9 L3.05 -4.2 2.4 -4.25 Q1.95 -4.25 -0.4 -1.35 L-4.55 4.2 Q-6.5 7.05 -7.75 10.6 -8.85 13.8 -8.85 15.8 -8.85 18.3 -8.1 20.5 -6.7 24.45 -5.55 30.1 M-15.7 12.95 L-15.65 9.95 -16.85 12.6 -17.55 14.45 Q-18.95 17.75 -20.5 20.6 -21.8 22.9 -22.7 24.0 L-21.75 20.2 Q-20.2 16.6 -16.65 9.8 -15.6 7.8 -15.6 4.0 -15.6 0.25 -21.6 -8.9 -27.65 -18.1 -27.65 -24.0 -27.65 -25.2 -26.6 -28.4 -25.4 -32.25 -23.95 -34.2 -21.6 -37.35 -18.8 -39.0 L-15.85 -40.55 -16.9 -40.4 Q-20.5 -40.0 -24.55 -36.65 -28.7 -33.25 -31.9 -27.95 -36.1 -21.05 -36.1 -16.6 -36.1 -13.9 -32.65 -6.3 -29.25 1.35 -29.25 6.4 -29.25 10.6 -30.55 13.1 -32.5 16.75 -39.15 22.9 L-37.6 19.8 Q-35.45 17.75 -35.45 15.85 -35.45 13.2 -36.65 7.65 L-37.9 1.65 Q-37.9 -1.0 -36.55 -5.25 L-35.7 -6.7 Q-35.1 -7.5 -35.1 -8.05 L-36.2 -11.7 Q-37.3 -15.6 -37.3 -17.75 -37.3 -21.95 -34.5 -26.75 -32.25 -30.65 -27.25 -36.25 -24.75 -39.05 -19.55 -40.5 -13.3 -41.85 -9.95 -43.15 L-6.7 -43.25 -13.05 -40.45 Q-16.05 -40.1 -20.65 -36.25 -26.55 -31.35 -26.55 -25.4 -26.55 -22.0 -25.55 -19.05 -24.15 -15.05 -20.45 -9.85 -18.9 -7.65 -16.85 -3.35 -14.35 1.85 -14.35 4.2 L-15.5 9.6 -12.4 3.2 -11.65 -0.25 -11.55 -3.75 -11.65 -6.05 Q-10.75 -12.6 -8.5 -17.0 -6.7 -20.55 -4.95 -21.25 L-3.05 -23.05 -3.0 -23.1 Q1.35 -29.0 2.35 -33.35 3.05 -36.4 6.9 -39.8 8.75 -40.8 8.85 -40.6 5.95 -38.9 4.35 -36.2 3.0 -33.95 2.35 -30.55 L1.6 -27.3 -0.85 -23.5 Q-4.6 -20.45 -7.0 -16.9 -11.6 -10.15 -10.45 0.55 -10.65 1.6 -12.55 6.15 -14.5 10.8 -15.7 12.95 M-24.3 24.35 L-25.35 28.1 -25.8 31.0 -25.6 33.95 -25.0 37.65 -23.45 41.6 Q-22.25 44.25 -22.25 44.75 -22.25 45.25 -22.75 46.6 L-23.65 49.45 -23.9 53.15 Q-23.9 54.8 -22.55 57.8 -22.55 58.35 -23.25 58.9 L-24.75 60.2 Q-26.15 56.7 -26.15 55.7 -24.5 52.1 -24.5 49.85 -24.5 48.25 -25.9 45.6 L-29.5 39.15 Q-32.2 34.15 -32.05 32.2 -31.3 30.4 -31.35 28.35 L-31.4 27.4 -30.5 25.6 Q-28.35 21.6 -25.1 18.35 -23.0 16.2 -21.85 11.5 -20.9 7.65 -20.9 3.95 -20.9 0.55 -22.8 -3.75 L-21.65 -2.45 Q-20.15 -0.8 -20.15 5.15 -20.15 7.65 -21.2 12.2 L-22.85 18.5 -24.3 24.35 M-32.8 54.2 L-32.8 54.25 -35.7 54.25 Q-35.7 50.85 -37.25 45.75 L-38.85 40.5 Q-38.85 38.0 -37.75 33.6 -36.65 29.2 -35.45 26.9 -36.5 29.2 -37.1 32.4 -37.6 34.85 -37.6 36.45 L-37.25 41.05 Q-36.65 45.5 -35.1 47.8 L-34.3 50.1 -32.8 54.2 M-25.45 15.05 L-28.55 18.6 Q-31.6 21.85 -33.8 23.0 -30.45 19.45 -28.55 16.85 -25.05 12.05 -25.05 5.05 -25.05 2.9 -25.6 0.75 -26.45 -2.45 -28.05 -7.3 L-29.35 -11.6 Q-29.25 -13.0 -28.7 -11.45 L-27.15 -6.85 -25.2 -2.5 Q-23.85 0.85 -23.85 4.55 -23.85 7.05 -24.5 10.2 L-25.45 15.05 M-35.1 24.7 L-36.5 26.6 Q-36.5 25.8 -36.1 25.25 -35.7 24.7 -35.1 24.7 M-26.0 48.65 L-25.8 49.2 Q-25.65 49.85 -25.65 50.45 -25.65 54.25 -28.4 56.4 -31.05 58.45 -35.35 58.45 -41.55 58.45 -44.6 52.4 -46.85 48.0 -46.85 42.3 -46.85 34.3 -44.0 29.25 -44.5 31.5 -45.3 33.05 -45.8 34.85 -45.8 41.2 -45.8 47.7 -42.95 51.75 -39.65 56.5 -33.3 56.5 -30.35 56.5 -28.2 54.5 -25.75 52.25 -26.0 48.65 M-5.1 -43.5 Q-3.35 -44.45 4.3 -46.05 12.2 -47.75 15.75 -47.75 21.5 -47.75 26.95 -46.0 L32.8 -43.65 31.9 -43.45 Q31.2 -43.25 29.45 -41.7 L27.3 -39.95 27.35 -40.0 28.6 -42.3 21.85 -44.95 Q18.65 -44.95 15.1 -41.8 12.8 -39.8 8.85 -34.85 L8.3 -34.25 Q8.9 -36.6 10.95 -39.6 12.95 -42.45 15.7 -45.1 2.85 -43.85 0.0 -42.9 -3.15 -41.85 -12.4 -35.55 L-8.15 -40.2 -5.1 -43.5 M9.6 13.3 L9.55 16.0 Q10.0 19.9 12.1 17.9 13.4 20.9 13.85 24.15 14.25 23.25 14.85 20.55 L15.35 17.9 Q15.35 14.3 12.75 8.45 10.7 3.9 8.25 0.2 L7.9 1.9 7.85 3.9 Q7.85 9.7 9.6 13.3 M8.8 18.15 L8.25 16.9 7.1 12.95 Q6.55 14.4 5.15 20.5 L5.7 23.3 Q6.25 26.1 6.5 26.75 L6.65 25.7 Q7.15 23.95 9.35 19.4 L8.8 18.15 M35.2 33.25 Q35.25 32.0 34.75 30.35 L33.9 28.35 36.6 24.75 37.7 27.8 35.2 33.25 M25.7 51.95 Q25.55 50.95 24.45 48.7 L22.0 43.6 Q20.35 35.8 21.25 35.0 L21.5 33.4 Q20.15 35.95 20.2 39.65 20.3 46.25 25.7 51.95 M32.35 62.55 L34.05 66.2 Q29.85 63.7 29.85 57.8 L30.05 55.25 Q30.0 57.7 32.35 62.55 M21.1 75.4 Q17.15 80.4 11.85 80.4 6.9 80.4 4.6 77.3 2.85 74.95 2.85 71.25 2.85 67.05 5.55 67.15 L6.15 67.3 Q3.85 68.35 3.85 70.6 3.85 74.95 6.65 76.55 8.0 77.35 9.8 77.35 13.9 77.35 15.55 75.85 17.45 74.1 18.4 68.9 L21.65 68.25 Q22.55 70.15 21.1 75.4 M28.4 71.6 Q28.4 70.2 29.4 69.75 L30.55 69.6 Q31.15 69.6 31.8 70.3 32.25 70.85 33.15 70.3 33.4 73.2 32.0 77.9 30.0 76.95 29.25 75.75 28.4 74.4 28.4 71.6 M13.95 57.45 Q14.75 59.15 13.85 62.1 L13.25 61.55 12.65 60.8 13.95 57.45 M10.35 55.15 L10.25 56.4 Q9.55 53.5 9.55 52.55 L9.8 47.2 Q10.35 50.35 10.35 55.15 M9.2 65.45 L10.55 66.5 Q8.65 68.1 6.2 69.3 L4.5 69.85 Q4.65 69.15 5.05 68.6 5.8 67.6 7.35 68.2 7.6 67.5 7.05 66.85 L9.2 65.45 M2.45 68.2 Q2.05 69.05 2.0 70.15 -1.8 70.2 -4.25 68.1 -6.95 65.8 -6.95 61.8 -6.95 60.05 -6.4 58.85 -6.45 63.2 -5.4 64.85 -3.6 67.65 2.45 68.2 M14.55 70.95 L13.5 70.0 14.1 69.85 Q15.45 69.9 16.25 71.05 17.1 72.35 15.8 73.65 15.6 72.45 14.85 71.35 L14.85 70.95 14.55 70.95 M-2.05 70.75 L1.25 71.4 Q0.95 76.5 5.0 79.3 8.55 81.8 13.4 81.4 L12.25 82.1 9.25 82.7 6.5 83.0 Q4.45 83.0 2.2 81.8 -0.55 80.3 -1.55 77.85 -2.4 75.1 -2.4 73.4 L-2.05 70.75 M29.4 81.95 L28.35 82.55 28.7 80.55 Q29.8 81.6 29.4 81.95 M-35.1 4.35 L-34.8 5.45 -34.05 8.25 Q-33.15 11.85 -32.9 13.7 -32.95 14.4 -32.5 13.7 L-31.4 11.9 Q-31.05 11.25 -30.65 9.4 L-30.35 7.05 Q-30.35 4.9 -31.4 0.65 -32.75 -4.75 -34.75 -7.65 -35.85 -6.2 -36.25 0.05 L-35.1 4.35 M-25.8 43.55 L-28.1 35.2 -28.35 32.5 Q-28.35 30.15 -27.95 27.9 -27.55 25.8 -27.05 25.2 -30.5 29.45 -29.2 35.6 -28.35 39.6 -25.8 43.55 M-21.5 45.95 L-19.0 49.0 -20.0 52.25 Q-20.85 55.4 -20.75 56.25 L-21.75 57.05 Q-22.85 55.9 -22.85 52.3 L-22.35 49.35 -21.5 45.95 M-17.4 29.95 L-16.2 26.95 -13.6 30.55 Q-15.05 34.0 -15.0 35.45 L-17.4 29.95 M-14.15 41.4 L-14.3 41.4 Q-14.25 35.9 -12.95 31.45 L-10.45 34.95 Q-10.9 36.8 -12.45 39.15 -13.75 41.25 -14.15 41.4 M-17.4 25.45 L-17.0 25.1 Q-17.05 26.0 -17.95 27.7 -19.15 29.85 -20.1 36.2 L-20.4 33.7 Q-20.4 31.9 -20.0 30.05 -19.3 26.35 -17.4 25.45 M-9.7 36.5 Q-8.95 38.9 -8.95 40.6 L-9.8 44.05 Q-10.75 47.4 -11.5 48.55 -12.4 47.55 -13.2 45.7 -13.9 44.0 -13.9 43.15 -10.25 37.8 -9.7 36.5 M-5.75 54.3 Q-0.25 47.3 0.2 42.15 0.45 39.4 -1.25 35.8 L-1.0 37.45 Q-0.85 37.45 -0.95 40.2 -1.1 43.1 -1.4 44.4 -2.05 47.25 -3.45 48.95 -4.9 50.7 -5.75 54.3 M-34.15 66.5 L-37.7 68.8 Q-40.5 70.3 -41.45 70.3 -46.35 70.3 -49.2 67.6 -51.7 65.2 -51.7 61.95 -51.7 57.55 -50.1 56.5 L-47.65 56.1 Q-49.0 56.3 -49.65 57.05 -50.6 58.15 -50.6 60.8 -50.6 64.3 -47.75 65.85 -45.85 66.9 -43.15 66.9 -40.35 66.9 -38.35 65.2 -36.05 63.25 -35.75 59.65 L-32.4 59.55 Q-32.4 61.0 -33.2 63.75 L-34.15 66.5 M-12.6 64.85 Q-11.95 63.8 -11.15 61.35 -10.35 58.8 -10.15 57.1 -9.45 61.4 -10.65 64.2 -11.7 66.7 -14.35 68.45 L-12.6 64.85 M-8.75 74.75 Q-8.75 76.6 -9.7 78.0 -10.7 79.55 -12.5 80.2 -12.2 78.95 -12.8 76.35 L-13.55 72.75 Q-12.6 73.05 -12.0 72.55 -11.3 71.9 -10.9 71.9 L-9.8 72.15 -9.0 72.35 -8.75 74.75 M-28.6 64.75 L-27.4 62.8 -27.4 63.3 Q-27.7 65.2 -28.25 66.85 L-28.6 64.75 M-10.35 83.95 L-9.2 82.85 -8.95 84.9 -10.35 83.95" fill="#989898" fill-rule="evenodd" stroke="none"/>
    <path d="M31.3 -1.75 L30.9 -5.5 30.65 -8.75 Q30.65 -17.45 37.85 -23.15 L42.75 -27.3 Q45.0 -29.8 45.0 -32.9 45.0 -38.3 41.15 -41.15 38.45 -43.2 35.75 -43.2 34.7 -43.2 31.6 -41.65 28.25 -39.95 27.15 -39.75 L27.35 -40.0 27.3 -39.95 29.45 -41.7 Q31.2 -43.25 31.9 -43.45 L32.8 -43.65 26.95 -46.0 Q21.5 -47.75 15.75 -47.75 12.2 -47.75 4.3 -46.05 -3.35 -44.45 -5.1 -43.5 L-6.7 -43.25 -9.95 -43.15 Q-6.55 -45.75 2.5 -47.5 10.5 -49.05 17.6 -49.05 24.65 -49.05 29.75 -46.8 32.4 -45.65 34.85 -44.15 39.5 -42.85 41.45 -41.55 45.9 -38.65 45.9 -33.25 45.9 -29.3 43.7 -26.4 42.3 -24.55 38.9 -22.0 35.25 -19.3 34.05 -17.85 31.85 -15.25 31.85 -11.85 L32.4 -6.1 32.5 -1.4 Q32.5 -0.75 32.8 0.0 L33.2 0.85 Q36.45 9.95 38.2 13.1 38.8 14.2 38.8 15.35 38.8 17.65 37.2 23.4 37.2 23.95 38.1 25.7 L39.15 27.85 Q40.7 35.65 40.7 37.6 40.7 42.4 39.4 45.8 38.2 48.95 36.1 50.5 48.6 59.55 48.6 69.05 48.6 73.65 45.05 77.95 40.85 83.05 34.4 83.05 L32.6 82.65 30.75 82.2 30.25 83.15 Q29.35 84.15 26.6 84.35 L28.1 79.8 26.55 76.65 Q25.45 74.15 25.45 73.25 25.45 72.1 25.85 70.6 27.45 69.25 27.45 68.25 L27.1 66.0 26.75 64.45 Q25.15 66.1 24.75 67.35 L24.55 69.05 Q24.55 72.1 23.3 74.55 21.55 77.85 17.2 80.75 16.4 81.3 15.65 81.5 14.8 81.7 13.25 82.65 L11.2 83.5 8.15 84.1 Q4.1 84.1 1.9 83.05 -0.4 81.95 -2.4 78.85 -3.6 77.0 -4.35 72.65 -5.05 68.8 -6.65 67.2 L-7.2 68.5 Q-7.8 69.95 -7.8 70.55 -7.8 71.1 -7.25 71.65 -6.45 72.45 -6.2 72.95 L-6.0 73.55 -5.85 74.9 Q-5.85 75.8 -6.7 78.05 -7.6 80.4 -8.65 82.15 L-7.15 86.7 Q-8.2 86.6 -9.8 85.55 L-11.3 84.5 -13.1 84.9 -14.9 85.25 Q-17.35 85.25 -21.25 82.95 L-25.5 80.0 -26.85 77.35 Q-27.65 75.8 -29.7 76.45 L-30.15 76.2 Q-28.75 74.55 -28.75 73.55 L-29.5 65.7 Q-29.5 64.95 -28.1 62.65 L-26.7 60.45 -26.8 56.6 -28.2 57.85 Q-29.6 59.2 -29.6 59.8 -29.6 63.7 -33.45 67.65 -37.15 71.4 -40.15 71.4 -45.3 71.4 -48.6 69.3 -52.45 66.85 -52.45 62.15 -52.45 58.45 -51.4 56.55 -50.5 54.95 -49.05 54.95 L-47.2 55.05 -46.8 55.8 Q-46.35 56.35 -46.35 56.6 -46.45 56.9 -47.55 57.0 L-49.5 57.25 -49.7 58.85 Q-49.7 62.4 -48.45 64.05 -47.15 65.8 -44.2 65.8 -41.7 65.8 -39.95 64.15 -38.45 62.75 -36.95 59.5 -41.95 58.45 -45.05 53.95 -48.0 49.6 -48.0 43.85 -48.0 34.95 -45.4 30.05 -44.3 27.9 -37.6 19.8 L-39.15 22.9 Q-42.2 26.3 -44.0 29.25 -46.85 34.3 -46.85 42.3 -46.85 48.0 -44.6 52.4 -41.55 58.45 -35.35 58.45 -31.05 58.45 -28.4 56.4 -25.65 54.25 -25.65 50.45 -25.65 49.85 -25.8 49.2 L-26.0 48.65 Q-26.2 47.95 -27.7 46.35 -29.05 44.9 -29.55 44.6 -32.1 44.5 -32.9 45.15 -33.7 45.8 -34.1 48.3 L-33.4 48.2 Q-33.45 47.55 -32.45 46.7 -31.65 46.0 -30.85 45.7 L-29.75 45.9 -29.5 46.05 Q-28.8 46.05 -28.25 46.85 -27.75 47.65 -27.75 48.8 -27.6 49.9 -27.75 51.3 -27.9 52.6 -28.2 52.9 -30.45 55.55 -34.0 55.1 L-36.8 54.6 Q-39.35 54.0 -41.2 50.1 -42.7 46.9 -42.75 44.5 -42.5 34.25 -36.5 26.6 L-35.1 24.7 -33.8 23.0 Q-31.6 21.85 -28.55 18.6 L-25.45 15.05 -35.45 26.9 Q-36.65 29.2 -37.75 33.6 -38.85 38.0 -38.85 40.5 L-37.25 45.75 Q-35.7 50.85 -35.7 54.25 L-32.8 54.25 -32.8 54.2 -30.95 53.8 -32.15 49.45 -32.55 47.85 -33.25 49.15 Q-34.6 48.8 -34.65 46.75 -32.9 43.5 -33.1 39.1 -33.35 33.8 -32.35 30.45 L-31.4 27.25 -31.4 27.4 -31.35 28.35 Q-31.3 30.4 -32.05 32.2 -32.2 34.15 -29.5 39.15 L-25.9 45.6 Q-24.5 48.25 -24.5 49.85 -24.5 52.1 -26.15 55.7 -26.15 56.7 -24.75 60.2 L-23.25 58.9 Q-22.55 58.35 -22.55 57.8 -23.9 54.8 -23.9 53.15 L-23.65 49.45 -22.75 46.6 Q-22.25 45.25 -22.25 44.75 -22.25 44.25 -23.45 41.6 L-25.0 37.65 -25.6 33.95 -25.8 31.0 -25.35 28.1 -24.3 24.35 -21.75 20.2 -22.7 24.0 -23.95 28.0 -24.45 31.0 Q-24.45 35.45 -22.65 40.25 -21.4 43.6 -19.9 45.9 L-20.4 43.15 -20.55 41.25 -21.6 33.5 -21.15 30.25 -20.5 27.75 -18.45 25.3 Q-17.35 24.15 -17.8 22.05 L-18.15 19.75 Q-18.35 18.5 -17.95 16.1 L-17.55 14.45 -16.85 12.6 -15.65 9.95 -15.7 12.95 -16.45 15.9 -17.0 19.25 Q-17.0 24.4 -12.35 30.35 -7.7 36.3 -7.7 40.9 -7.7 46.2 -10.8 50.0 -12.65 52.2 -17.7 55.75 -22.65 59.15 -24.55 61.6 -27.7 65.55 -27.7 71.15 -27.7 75.6 -24.05 79.7 -20.05 84.25 -14.65 84.25 -12.2 84.25 -9.55 81.05 -6.95 78.0 -6.7 75.15 L-7.5 73.05 -7.6 73.5 Q-7.9 77.05 -8.5 78.3 -10.15 81.85 -14.8 81.85 -16.05 81.85 -18.75 80.6 -21.6 79.3 -22.75 78.0 L-23.95 74.95 Q-24.4 73.95 -24.4 72.35 -24.4 67.7 -21.3 63.8 -19.8 61.9 -14.45 57.3 -9.7 53.25 -7.65 50.0 -4.55 45.1 -4.55 38.8 -4.55 37.0 -5.3 34.0 L-5.55 30.1 -3.75 34.65 -3.25 39.15 Q-3.25 42.4 -4.6 45.95 -5.55 48.35 -7.45 51.55 L-9.0 54.15 -8.75 58.8 Q-8.75 61.55 -9.2 63.3 L-9.95 65.4 Q-10.05 65.85 -11.85 66.95 -13.55 68.7 -13.45 72.25 -12.7 71.15 -10.95 70.5 -9.55 70.0 -8.75 70.05 L-7.5 65.8 Q-8.25 63.65 -8.25 61.65 -8.25 58.85 -7.0 57.7 -4.65 55.45 -4.05 54.45 L0.1 48.25 Q2.0 45.2 2.0 42.5 L2.25 40.8 2.7 38.75 3.05 42.05 Q3.5 45.65 2.3 50.75 1.3 55.05 2.45 58.55 2.05 60.5 0.65 60.65 L0.2 59.2 -0.5 60.75 -2.45 64.75 -0.7 65.5 -0.7 65.55 2.15 66.0 Q2.55 64.6 3.85 62.15 L4.9 59.65 4.65 58.5 4.1 57.2 3.2 46.6 Q3.2 44.1 4.2 40.2 5.5 37.8 5.5 36.8 5.5 36.15 4.0 33.9 L0.85 29.2 -1.0 25.7 Q3.1 32.7 5.85 35.0 L6.15 35.55 6.95 34.15 7.8 32.85 8.4 32.05 10.2 29.9 9.15 33.2 Q8.3 34.45 7.0 36.85 L5.35 40.2 Q4.7 42.7 4.15 49.1 4.15 57.25 7.65 62.2 11.5 67.65 18.6 67.65 21.95 67.65 24.4 65.35 26.95 62.95 26.95 59.3 26.95 57.8 26.25 56.5 L24.15 54.55 23.95 54.4 23.85 54.2 Q23.1 53.05 22.1 53.05 18.55 52.5 18.15 56.6 18.2 57.45 18.9 57.2 19.25 55.9 20.45 55.1 21.3 54.5 22.15 54.4 L22.4 54.5 Q23.3 54.5 23.95 55.2 24.5 55.85 24.55 56.8 L24.55 56.9 Q26.1 61.05 23.2 63.0 21.3 64.25 18.3 64.25 L16.5 64.1 Q12.95 63.25 10.8 59.9 9.4 57.65 9.1 55.5 L9.0 54.65 8.9 54.1 8.7 50.7 Q8.7 44.45 10.2 40.4 10.45 39.75 12.35 36.4 L13.4 34.3 14.45 32.45 Q19.35 26.55 21.1 23.8 L13.4 36.55 Q11.8 42.15 11.8 46.25 11.8 50.5 13.45 53.65 16.15 58.85 17.55 63.55 L20.4 63.1 20.4 63.05 22.2 62.4 20.3 58.25 19.65 56.75 19.15 58.15 Q18.3 58.05 17.75 57.0 L17.4 56.0 Q18.5 52.55 17.65 48.25 16.6 43.1 17.05 39.55 L17.5 36.25 17.7 37.3 18.15 40.7 Q18.15 42.05 17.85 42.65 17.65 43.05 17.8 43.3 L24.0 52.0 27.1 56.55 Q28.1 58.2 28.1 59.9 28.1 61.35 27.25 63.45 L28.45 67.7 Q31.05 67.6 31.95 68.2 32.5 68.55 33.1 70.05 32.75 67.85 31.45 65.7 L29.75 63.1 Q29.25 62.1 28.95 59.85 L28.7 56.9 29.35 52.05 26.35 47.45 Q25.3 45.3 24.3 40.95 L23.5 36.75 24.0 32.2 25.85 27.7 25.55 31.6 Q24.75 34.8 24.75 36.4 24.75 43.0 27.75 47.6 29.75 50.6 34.45 54.35 39.45 58.4 41.1 60.45 44.1 64.4 44.1 69.8 44.1 72.2 43.35 73.75 L42.25 75.9 Q41.2 77.25 38.3 78.5 35.7 79.6 34.35 79.6 29.75 79.6 28.1 75.85 27.6 74.75 27.2 71.15 L27.15 70.65 Q26.25 72.8 26.3 72.9 26.95 77.4 29.85 79.95 32.2 82.05 34.65 82.05 38.75 82.05 42.75 78.45 47.45 74.2 47.45 67.95 47.45 65.0 46.05 62.3 44.5 59.4 40.95 56.0 34.0 50.35 31.65 47.85 27.9 43.9 27.9 37.75 27.9 35.05 32.75 27.85 37.55 20.65 37.55 15.9 37.55 14.4 34.5 6.75 L31.3 -1.75 M37.7 27.8 L36.6 24.75 33.9 28.35 34.75 30.35 Q35.25 32.0 35.2 33.25 35.75 37.7 34.9 42.45 34.1 47.05 32.85 47.7 L35.1 49.75 Q37.85 46.15 39.6 37.8 39.3 31.1 37.7 27.8 M33.25 29.2 Q28.9 33.05 29.45 39.75 29.95 45.5 32.25 47.1 33.65 43.1 34.15 40.55 L34.5 36.6 34.0 32.8 33.25 29.2 M32.35 62.55 Q32.25 61.3 32.5 59.15 32.8 57.05 33.2 55.7 L30.25 53.1 30.05 55.25 29.85 57.8 Q29.85 63.7 34.05 66.2 L32.35 62.55 M24.1 58.65 Q24.1 57.2 23.6 56.15 22.6 54.1 20.1 55.75 L23.0 61.85 Q24.1 59.5 24.1 58.65 M19.1 52.65 Q19.1 52.15 20.75 51.95 L22.4 51.8 18.05 44.3 19.1 52.65 M41.25 69.6 Q39.8 71.4 33.85 67.6 34.65 70.6 34.3 74.2 33.95 77.65 32.95 78.35 L33.75 78.45 Q38.7 78.1 40.95 75.75 42.95 73.65 42.95 69.8 42.95 64.95 40.8 62.2 39.6 60.6 34.1 56.35 33.3 58.75 33.3 59.6 33.3 64.8 36.35 66.95 38.0 68.15 41.25 69.6 M21.1 75.4 L22.55 72.1 Q23.5 69.4 23.25 68.75 23.15 68.05 22.4 68.1 L21.65 68.25 18.4 68.9 Q17.45 74.1 15.55 75.85 13.9 77.35 9.8 77.35 8.0 77.35 6.65 76.55 3.85 74.95 3.85 70.6 3.85 68.35 6.15 67.3 L5.55 67.15 Q2.85 67.05 2.85 71.25 2.85 74.95 4.6 77.3 6.9 80.4 11.85 80.4 17.15 80.4 21.1 75.4 M28.4 71.6 Q28.4 74.4 29.25 75.75 30.0 76.95 32.0 77.9 33.4 73.2 33.15 70.3 32.25 70.85 31.8 70.3 31.15 69.6 30.55 69.6 L29.4 69.75 Q28.4 70.2 28.4 71.6 M11.9 52.55 L11.05 49.85 11.15 50.85 11.15 54.35 10.85 57.7 11.5 59.05 12.65 60.8 13.25 61.55 13.85 62.1 Q14.75 59.15 13.95 57.45 L12.7 54.6 11.9 52.55 M10.35 55.15 Q10.35 50.35 9.8 47.2 L9.55 52.55 Q9.55 53.5 10.25 56.4 L10.35 55.15 M-4.7 59.3 Q-4.7 58.3 -4.05 57.6 -3.4 56.9 -2.45 56.9 L-2.2 56.8 Q0.85 56.3 1.0 59.7 1.6 59.95 1.75 59.1 1.4 55.1 -2.2 55.45 -4.6 56.45 -6.4 58.85 -6.95 60.05 -6.95 61.8 -6.95 65.8 -4.25 68.1 -1.8 70.2 2.0 70.15 2.05 69.05 2.45 68.2 L3.65 66.75 6.25 66.5 7.05 66.85 Q7.6 67.5 7.35 68.2 5.8 67.6 5.05 68.6 4.65 69.15 4.5 69.85 L6.2 69.3 Q8.65 68.1 10.55 66.5 L9.2 65.45 8.4 64.7 7.75 64.0 Q6.75 65.05 3.2 66.6 L1.5 66.8 -1.95 66.25 Q-5.25 65.1 -5.25 62.2 -5.25 61.15 -4.7 59.3 M5.5 60.85 L3.1 65.9 Q3.95 65.75 5.35 64.85 6.75 64.0 7.15 63.35 L5.5 60.85 M14.55 70.95 L12.3 70.85 12.4 69.85 12.75 69.5 Q13.55 69.1 14.3 69.1 15.2 69.1 15.9 69.6 L16.9 70.5 17.15 68.95 14.1 67.9 Q12.15 67.15 11.6 67.15 6.0 70.7 4.6 71.1 5.6 74.25 6.95 75.5 8.05 76.5 9.95 76.5 13.65 76.5 14.6 73.95 L14.85 71.35 Q15.6 72.45 15.8 73.65 17.1 72.35 16.25 71.05 15.45 69.9 14.1 69.85 L13.5 70.0 14.55 70.95 M16.6 63.45 L15.5 60.85 14.75 62.75 15.35 63.05 16.6 63.45 M-1.55 77.85 Q-0.55 80.3 2.2 81.8 4.45 83.0 6.5 83.0 L9.25 82.7 12.25 82.1 13.4 81.4 Q8.55 81.8 5.0 79.3 0.95 76.5 1.25 71.4 L-2.05 70.75 -3.45 70.1 -3.5 72.25 -2.75 74.8 -1.55 77.85 M29.4 81.95 Q29.8 81.6 28.7 80.55 L28.35 82.55 29.4 81.95 M0.8 55.2 L1.95 46.8 -2.5 54.3 -0.85 54.45 Q0.8 54.65 0.8 55.2 M-21.5 45.95 L-22.35 49.35 -22.85 52.3 Q-22.85 55.9 -21.75 57.05 L-20.75 56.25 Q-20.85 55.4 -20.0 52.25 L-19.0 49.0 -21.5 45.95 M-41.9 44.15 Q-41.9 48.85 -39.35 51.85 -38.05 53.35 -36.6 53.95 -38.8 45.55 -40.0 38.0 L-39.35 33.05 Q-40.9 37.15 -41.9 44.15 M-15.0 35.45 Q-15.05 34.0 -13.6 30.55 L-16.2 26.95 -17.4 29.95 Q-18.8 34.3 -19.2 37.05 L-19.35 40.25 Q-19.35 42.35 -18.0 46.1 -16.7 49.9 -15.15 52.0 -12.85 50.95 -12.85 49.95 L-13.85 47.65 Q-14.9 45.4 -15.0 44.1 L-15.25 38.2 -15.0 35.45 M-17.4 25.45 Q-19.3 26.35 -20.0 30.05 -20.4 31.9 -20.4 33.7 L-20.1 36.2 Q-19.15 29.85 -17.95 27.7 -17.05 26.0 -17.0 25.1 L-17.4 25.45 M-14.15 41.4 Q-13.75 41.25 -12.45 39.15 -10.9 36.8 -10.45 34.95 L-12.95 31.45 Q-14.25 35.9 -14.3 41.4 L-14.15 41.4 M-9.7 36.5 Q-10.25 37.8 -13.9 43.15 -13.9 44.0 -13.2 45.7 -12.4 47.55 -11.5 48.55 -10.75 47.4 -9.8 44.05 L-8.95 40.6 Q-8.95 38.9 -9.7 36.5 M-32.4 59.55 L-35.75 59.65 Q-36.05 63.25 -38.35 65.2 -40.35 66.9 -43.15 66.9 -45.85 66.9 -47.75 65.85 -50.6 64.3 -50.6 60.8 -50.6 58.15 -49.65 57.05 -49.0 56.3 -47.65 56.1 L-50.1 56.5 Q-51.7 57.55 -51.7 61.95 -51.7 65.2 -49.2 67.6 -46.35 70.3 -41.45 70.3 -40.5 70.3 -37.7 68.8 L-34.15 66.5 Q-32.6 65.25 -31.6 62.65 -30.7 60.4 -30.9 59.2 L-32.4 59.55 M-4.3 61.4 L-3.2 64.25 -0.25 58.2 Q-2.65 56.65 -3.7 58.85 -4.25 60.0 -4.3 61.4 M-16.15 52.7 L-18.3 49.8 Q-19.35 52.1 -19.7 54.05 L-19.8 55.55 -16.15 52.7 M-10.15 57.1 L-10.35 55.4 -13.35 57.95 -12.9 61.4 -12.6 64.85 -14.35 68.45 Q-11.7 66.7 -10.65 64.2 -9.45 61.4 -10.15 57.1 M-14.1 63.1 Q-13.1 63.5 -13.55 61.15 L-14.25 58.55 -17.5 60.85 Q-15.95 62.4 -14.1 63.1 M-14.6 72.85 L-14.4 71.25 Q-15.1 72.0 -17.2 72.55 -20.1 73.3 -23.1 72.45 L-23.25 72.4 -23.15 73.7 Q-22.85 75.2 -21.85 75.2 L-17.3 74.7 Q-16.0 74.25 -14.6 72.85 M-8.75 74.75 L-9.0 72.35 -9.8 72.15 -10.9 71.9 Q-11.3 71.9 -12.0 72.55 -12.6 73.05 -13.55 72.75 L-12.8 76.35 Q-12.2 78.95 -12.5 80.2 -10.7 79.55 -9.7 78.0 -8.75 76.6 -8.75 74.75 M-13.65 64.1 Q-14.95 64.05 -19.0 62.25 -20.0 63.4 -20.75 66.7 -21.45 69.85 -22.9 71.3 L-21.6 71.55 Q-19.4 70.8 -17.5 69.75 -13.75 67.7 -13.65 64.1 M-28.4 50.1 Q-28.4 46.65 -31.95 46.9 L-30.1 53.4 Q-29.15 52.7 -28.7 51.4 L-28.4 50.1 M-34.0 55.1 Q-34.0 55.85 -34.35 55.5 -34.7 55.1 -34.0 55.1 M-28.25 66.85 Q-27.7 65.2 -27.4 63.3 L-27.4 62.8 -28.6 64.75 -28.45 66.05 -28.25 66.85 M-10.35 83.95 L-8.95 84.9 -9.2 82.85 -10.35 83.95 M-14.8 74.85 L-18.45 75.65 -22.45 76.1 Q-22.15 77.95 -18.45 79.6 -14.9 81.2 -13.45 80.6 -14.8 79.0 -14.8 74.85" fill="#606060" fill-rule="evenodd" stroke="none"/>
  </g>
</svg>
