<?xml version="1.0" encoding="UTF-8" standalone="no"?>
<svg xmlns:ffdec="https://www.free-decompiler.com/flash" xmlns:xlink="http://www.w3.org/1999/xlink" ffdec:objectType="shape" height="152.75px" width="40.45px" xmlns="http://www.w3.org/2000/svg">
  <g transform="matrix(1.0, 0.0, 0.0, 1.0, 26.95, 136.85)">
    <path d="M4.15 -126.7 L6.6 -129.4 8.6 -131.65 10.75 -126.35 10.45 -125.8 6.45 -118.25 Q5.6 -116.55 4.35 -115.6 2.7 -114.35 -0.55 -113.5 L1.75 -120.15 4.15 -126.7 M-2.5 -103.4 L-1.95 -103.55 0.45 -103.65 1.85 -103.35 Q2.25 -102.95 2.15 -101.75 L1.45 -94.95 0.7 -88.15 Q-2.4 -58.65 1.3 -19.25 1.5 -16.85 0.9 -15.9 0.4 -15.05 -0.75 -14.5 L-2.9 -13.65 -4.75 -12.75 -4.8 -15.25 -5.05 -29.65 Q-4.6 -90.1 -3.8 -96.6 L-2.75 -102.35 -2.55 -103.3 -2.5 -103.4" fill="#ffffff" fill-rule="evenodd" stroke="none"/>
    <path d="M4.15 -126.7 L4.1 -126.7 5.2 -129.2 5.55 -130.1 5.6 -130.2 5.65 -130.3 5.7 -130.45 5.7 -130.55 5.75 -130.7 5.75 -130.8 Q5.75 -132.3 4.95 -133.35 3.65 -135.95 8.5 -133.35 11.55 -129.5 12.25 -125.3 L10.8 -122.75 8.25 -118.85 Q6.0 -115.45 4.15 -105.45 2.25 -95.45 2.1 -93.75 L1.3 -86.9 0.4 -78.9 0.15 -75.85 -0.15 -69.75 0.2 -53.7 1.0 -37.35 2.45 -15.95 Q3.6 -0.95 4.65 8.85 L4.85 10.55 4.9 11.05 3.45 11.35 -0.6 11.65 -1.7 11.55 -3.4 10.85 -3.75 10.7 Q-4.2 8.75 -4.25 5.75 L-4.75 -12.6 -4.75 -12.75 -2.9 -13.65 -0.75 -14.5 Q0.4 -15.05 0.9 -15.9 1.5 -16.85 1.3 -19.25 -2.4 -58.65 0.7 -88.15 L1.45 -94.95 2.15 -101.75 Q2.25 -102.95 1.85 -103.35 L0.45 -103.65 -1.95 -103.55 -2.5 -103.4 -0.55 -113.5 Q2.7 -114.35 4.35 -115.6 5.6 -116.55 6.45 -118.25 L10.45 -125.8 10.75 -126.35 8.6 -131.65 6.6 -129.4 4.15 -126.7 M-11.55 -124.7 L-11.4 -124.65 Q-10.55 -124.4 -10.3 -123.6 -10.15 -123.05 -10.15 -120.55 L-10.25 -115.8 -10.85 -115.75 Q-11.55 -115.75 -12.55 -116.75 L-13.1 -117.4 Q-13.75 -118.4 -13.75 -119.5 -12.7 -123.85 -11.55 -124.7 M-11.4 -107.55 L-11.75 -106.1 Q-13.65 -103.7 -14.05 -101.05 -16.2 -87.55 -18.0 -73.65 -18.3 -84.95 -17.6 -96.4 L-17.5 -98.25 Q-17.35 -100.5 -16.45 -102.35 -15.0 -105.55 -11.4 -107.55 M-24.2 7.8 L-24.15 4.9 -23.45 -14.25 -22.05 -33.6 -22.4 -14.65 Q-22.6 0.0 -22.35 7.25 L-22.55 8.65 -23.1 9.15 -23.75 9.15 Q-24.3 8.85 -24.2 7.8" fill="#e0e0e0" fill-rule="evenodd" stroke="none"/>
    <path d="M-3.75 10.7 L-3.4 10.85 -1.7 11.55 -0.6 11.65 3.45 11.35 4.9 11.05 5.05 12.45 5.3 14.65 -1.4 14.25 Q-3.05 13.8 -3.75 10.7 M-11.55 -124.7 Q-12.7 -123.85 -13.75 -119.5 -13.75 -118.4 -13.1 -117.4 L-12.55 -116.75 Q-11.55 -115.75 -10.85 -115.75 L-10.25 -115.8 -10.15 -120.55 Q-10.15 -123.05 -10.3 -123.6 -10.55 -124.4 -11.4 -124.65 L-11.55 -124.7 M-10.95 -131.45 L-7.95 -122.2 -14.2 -79.4 -15.7 -69.25 -16.0 -66.95 -19.15 -45.35 Q-20.3 -37.6 -20.7 -32.2 L-21.5 -18.25 Q-21.9 -9.65 -21.0 12.25 L-20.9 12.3 Q-23.4 12.8 -24.65 11.9 -25.9 10.95 -25.85 10.15 L-25.8 9.05 -25.8 7.25 Q-25.7 -10.5 -24.25 -31.05 L-22.55 -50.8 -21.5 -62.25 -20.85 -71.4 -20.35 -80.0 -20.2 -82.5 Q-19.95 -88.4 -18.6 -95.6 L-16.7 -104.6 -14.8 -118.85 -13.75 -123.5 -10.95 -131.45 M-11.4 -107.55 Q-15.0 -105.55 -16.45 -102.35 -17.35 -100.5 -17.5 -98.25 L-17.6 -96.4 Q-18.3 -84.95 -18.0 -73.65 -16.2 -87.55 -14.05 -101.05 -13.65 -103.7 -11.75 -106.1 L-11.4 -107.55 M-24.2 7.8 Q-24.3 8.85 -23.75 9.15 L-23.1 9.15 -22.55 8.65 -22.35 7.25 Q-22.6 0.0 -22.4 -14.65 L-22.05 -33.6 -23.45 -14.25 -24.15 4.9 -24.2 7.8" fill="#b4b4b4" fill-rule="evenodd" stroke="none"/>
    <path d="M4.9 11.05 L4.85 10.55 4.65 8.85 Q3.6 -0.95 2.45 -15.95 L1.0 -37.35 0.2 -53.7 -0.15 -69.75 0.15 -75.85 0.4 -78.9 1.3 -86.9 2.1 -93.75 Q2.25 -95.45 4.15 -105.45 6.0 -115.45 8.25 -118.85 L10.8 -122.75 12.25 -125.3 Q11.55 -129.5 8.5 -133.35 3.65 -135.95 4.95 -133.35 5.75 -132.3 5.75 -130.8 L5.75 -130.7 5.7 -130.55 5.7 -130.45 5.65 -130.3 5.6 -130.2 5.55 -130.1 5.2 -129.2 4.1 -126.7 4.15 -126.7 1.75 -120.15 -0.55 -113.5 -2.5 -103.4 -2.55 -103.3 -2.75 -102.35 -3.8 -96.6 Q-4.6 -90.1 -5.05 -29.65 L-4.8 -15.25 -4.75 -12.75 -4.75 -12.6 -4.25 5.75 Q-4.2 8.75 -3.75 10.7 -3.05 13.8 -1.4 14.25 L5.3 14.65 5.05 12.45 4.9 11.05 M13.1 -124.05 L12.5 -123.15 Q11.85 -122.35 11.8 -122.5 L10.2 -120.5 Q9.85 -120.05 7.4 -112.3 4.95 -104.6 4.9 -103.15 4.8 -101.75 3.9 -97.65 2.95 -93.6 2.45 -86.55 2.15 -82.85 2.35 -83.3 L1.6 -77.4 Q0.85 -70.9 0.85 -69.75 0.85 -63.55 1.15 -55.5 L1.2 -53.75 1.8 -41.4 2.0 -37.4 3.45 -16.0 Q4.6 -1.05 5.65 8.75 L5.7 8.85 5.85 10.45 5.85 10.5 6.05 12.3 6.05 12.35 6.3 14.6 6.3 14.65 6.4 14.65 5.7 15.9 Q-0.4 15.75 -2.8 14.45 -5.65 12.85 -5.25 8.65 L-5.85 -6.95 Q-6.6 -20.45 -6.85 -31.7 L-6.95 -38.5 -6.95 -41.05 -7.05 -42.95 -6.85 -53.6 -6.4 -72.0 Q-5.75 -92.0 -4.2 -103.55 -3.45 -108.8 -2.55 -112.15 L-1.1 -117.85 -0.6 -120.1 0.85 -124.4 Q1.45 -125.7 3.0 -127.3 L3.25 -127.6 Q4.1 -128.6 4.05 -129.65 4.0 -131.1 2.85 -131.95 1.7 -132.75 -0.15 -132.75 -3.9 -132.75 -6.05 -127.6 L-6.9 -125.15 -7.2 -123.8 -7.95 -119.55 -8.15 -117.85 -10.15 -103.55 -10.2 -103.55 -13.05 -79.75 Q-15.0 -63.4 -17.05 -50.65 -18.95 -39.55 -19.15 -36.05 L-19.75 -25.3 -20.8 0.2 -19.85 13.0 -22.0 13.1 -26.2 12.5 -26.95 12.3 -26.8 9.05 -26.8 7.25 -26.8 7.1 Q-26.7 -10.6 -25.25 -31.1 L-23.55 -50.9 -23.45 -51.65 -22.5 -62.35 -21.75 -68.45 -21.1 -84.0 -21.05 -84.75 Q-20.6 -92.65 -18.25 -104.65 L-18.45 -103.95 Q-16.0 -119.25 -14.0 -125.2 L-11.3 -132.5 Q-10.6 -133.85 -4.35 -136.05 0.95 -137.9 7.0 -135.55 L7.6 -135.3 9.15 -134.6 Q11.95 -130.0 13.5 -124.5 L13.1 -124.05 M-3.7 -133.35 L-4.45 -132.25 -1.45 -134.55 -1.65 -134.55 Q-2.75 -134.55 -3.7 -133.35 M-7.95 -122.2 L-7.5 -126.8 -6.75 -129.8 -5.85 -132.15 -5.15 -133.35 -4.85 -134.0 Q-4.7 -134.75 -6.6 -134.25 L-9.15 -133.35 -10.95 -131.45 -13.75 -123.5 -14.8 -118.85 -16.7 -104.6 -18.6 -95.6 Q-19.95 -88.4 -20.2 -82.5 L-20.35 -80.0 -20.85 -71.4 -21.5 -62.25 -22.55 -50.8 -24.25 -31.05 Q-25.7 -10.5 -25.8 7.25 L-25.8 9.05 -25.85 10.15 Q-25.9 10.95 -24.65 11.9 -23.4 12.8 -20.9 12.3 L-21.0 12.25 Q-21.9 -9.65 -21.5 -18.25 L-20.7 -32.2 Q-20.3 -37.6 -19.15 -45.35 L-16.0 -66.95 -16.3 -64.5 -15.4 -70.65 -14.2 -79.4 -7.95 -122.2" fill="#464646" fill-rule="evenodd" stroke="none"/>
    <path d="M-3.7 -133.35 Q-2.75 -134.55 -1.65 -134.55 L-1.45 -134.55 -4.45 -132.25 -3.7 -133.35 M-10.95 -131.45 L-9.15 -133.35 -6.6 -134.25 Q-4.7 -134.75 -4.85 -134.0 L-5.15 -133.35 -5.85 -132.15 -6.75 -129.8 -7.5 -126.8 -7.95 -122.2 -10.95 -131.45 M-14.2 -79.4 L-15.4 -70.65 -16.3 -64.5 -16.0 -66.95 -15.7 -69.25 -14.2 -79.4" fill="#8a8a8a" fill-rule="evenodd" stroke="none"/>
  </g>
</svg>
