<?xml version="1.0" encoding="UTF-8" standalone="no"?>
<svg xmlns:ffdec="https://www.free-decompiler.com/flash" xmlns:xlink="http://www.w3.org/1999/xlink" ffdec:objectType="shape" height="29.5px" width="82.05px" xmlns="http://www.w3.org/2000/svg">
  <g transform="matrix(1.0, 0.0, 0.0, 1.0, 37.6, 35.05)">
    <path d="M20.65 -23.75 Q19.35 -24.5 17.75 -24.5 15.4 -24.5 13.7 -22.85 L13.65 -22.8 Q12.15 -21.25 12.05 -19.15 10.45 -20.0 8.75 -20.45 L8.65 -20.5 Q9.15 -23.25 11.2 -25.3 13.9 -28.0 17.75 -28.0 L20.4 -27.65 20.65 -23.75 M20.3 -29.2 L17.75 -29.5 Q13.3 -29.5 10.15 -26.35 7.75 -23.95 7.2 -20.8 L4.9 -21.0 4.7 -24.65 Q5.75 -26.95 7.65 -28.85 L9.55 -30.45 9.5 -30.3 10.1 -30.85 Q13.5 -33.0 17.75 -33.0 L20.0 -32.85 20.15 -31.65 20.3 -29.2 M21.15 -16.9 L20.55 -15.5 Q19.4 -14.5 17.75 -14.5 L17.25 -14.5 16.7 -15.25 15.65 -16.4 14.35 -17.6 14.3 -17.65 13.55 -18.2 13.5 -18.75 Q13.5 -20.5 14.75 -21.75 16.0 -23.0 17.75 -23.0 19.55 -23.0 20.8 -21.75 L20.75 -21.75 20.8 -21.7 21.15 -16.9 M4.95 -19.5 L7.0 -19.3 8.35 -19.0 Q10.1 -18.55 11.7 -17.65 L11.65 -17.65 13.4 -16.45 14.6 -15.35 15.55 -14.3 16.8 -12.6 Q17.7 -11.1 18.2 -9.35 L18.55 -7.95 18.7 -6.35 18.7 -6.3 18.4 -6.3 16.3 -6.1 15.25 -6.0 Q15.15 -7.55 14.65 -8.9 L13.35 -11.35 13.35 -11.4 12.1 -12.85 10.5 -14.2 Q9.3 -15.05 8.0 -15.45 L5.15 -15.95 4.95 -19.5 M18.25 -13.0 L19.9 -13.4 Q19.55 -11.95 19.5 -10.3 L18.25 -13.0 M5.25 -14.45 L7.55 -14.0 7.55 -14.05 Q8.6 -13.65 9.65 -12.95 L11.05 -11.8 12.15 -10.5 13.25 -8.4 13.75 -5.9 13.75 -5.85 13.4 -5.85 11.8 -5.75 10.25 -5.65 Q10.15 -6.85 9.7 -7.8 L8.6 -9.3 7.0 -10.45 5.45 -10.9 5.25 -14.45 M5.55 -9.4 L6.35 -9.1 7.55 -8.25 8.35 -7.15 8.75 -5.6 5.8 -5.55 5.55 -9.4 M21.9 -6.75 L21.25 -6.65 21.1 -6.6 21.1 -6.65 20.95 -8.25 20.95 -8.35 20.9 -9.0 20.95 -9.7 20.95 -9.75 Q21.0 -11.6 21.45 -13.2 L21.9 -6.75" fill="#ffffff" fill-rule="evenodd" stroke="none"/>
    <path d="M20.4 -27.65 Q22.55 -27.05 24.3 -25.3 L24.9 -21.75 23.35 -20.2 Q22.95 -21.65 21.85 -22.8 L20.65 -23.75 20.4 -27.65 M23.85 -27.6 Q22.2 -28.8 20.3 -29.2 L20.15 -31.65 20.0 -32.85 22.95 -32.1 23.85 -27.6 M4.9 -21.0 L4.5 -21.0 3.65 -20.95 Q3.9 -22.9 4.7 -24.65 L4.9 -21.0 M9.55 -30.45 L10.1 -30.85 9.5 -30.3 9.55 -30.45 M20.8 -21.7 Q22.0 -20.45 22.0 -18.75 L22.0 -18.4 21.15 -16.9 20.8 -21.7 M5.15 -15.95 L4.5 -16.0 3.8 -15.95 3.45 -15.9 3.45 -16.0 3.2 -19.45 3.6 -19.45 3.7 -19.45 4.5 -19.5 4.95 -19.5 5.15 -15.95 M5.45 -10.9 L4.5 -11.0 4.45 -11.0 3.85 -10.95 3.6 -14.45 3.9 -14.45 4.05 -14.45 4.5 -14.5 5.25 -14.45 5.45 -10.9 M5.8 -5.55 L4.3 -5.55 4.0 -9.45 4.45 -9.5 4.5 -9.5 5.55 -9.4 5.8 -5.55 M25.75 -15.75 Q25.35 -14.65 24.55 -13.65 L24.45 -13.45 Q23.9 -12.1 23.75 -10.5 L23.65 -9.0 23.8 -7.0 22.1 -6.75 21.9 -6.75 21.45 -13.2 21.55 -13.55 21.55 -13.6 Q22.3 -16.45 24.1 -18.7 L24.15 -18.8 24.4 -19.1 24.45 -19.15 25.15 -19.95 25.75 -15.75 M26.65 -7.5 L26.45 -7.5 25.55 -7.3 25.3 -7.3 25.15 -9.0 25.25 -10.3 Q25.4 -11.65 25.85 -12.8 L26.1 -13.2 26.4 -10.9 26.4 -10.7 26.45 -10.4 26.65 -7.5" fill="#e0e0e0" fill-rule="evenodd" stroke="none"/>
    <path d="M24.3 -25.3 L26.15 -22.7 26.05 -22.6 24.9 -21.75 24.3 -25.3 M22.95 -32.1 Q25.65 -31.05 27.85 -28.85 29.8 -26.9 30.85 -24.55 29.05 -24.3 27.45 -23.4 26.7 -25.0 25.35 -26.35 L23.85 -27.6 22.95 -32.1 M36.65 -26.95 Q36.2 -25.7 36.05 -24.35 L33.55 -24.75 Q33.9 -28.3 35.65 -31.1 L36.65 -26.95 M25.15 -19.95 L26.9 -21.35 Q27.5 -21.8 28.1 -22.05 L28.1 -22.1 Q29.6 -22.9 31.2 -23.1 L31.25 -23.1 32.9 -23.25 33.45 -23.25 35.75 -22.85 37.15 -22.4 37.2 -22.4 37.7 -22.15 38.55 -17.5 37.05 -18.65 Q35.55 -19.55 33.85 -19.7 L32.9 -19.75 31.95 -19.7 Q29.8 -19.5 28.05 -18.15 L28.0 -18.15 Q27.1 -17.5 26.3 -16.6 L26.3 -16.55 25.9 -16.1 25.8 -15.9 25.75 -15.75 25.15 -19.95 M26.1 -13.2 L27.15 -15.25 27.4 -15.6 27.45 -15.6 28.9 -16.9 28.9 -16.95 Q30.35 -18.0 32.1 -18.2 L32.9 -18.25 33.7 -18.2 Q35.05 -18.05 36.3 -17.35 L38.35 -15.6 39.05 -14.65 39.55 -11.0 38.85 -10.75 38.9 -10.75 37.8 -10.4 Q37.45 -11.9 36.5 -13.05 L36.5 -13.0 Q35.5 -14.2 34.2 -14.55 L32.9 -14.75 32.85 -14.75 Q31.65 -14.75 30.65 -14.1 L30.7 -14.15 29.35 -13.05 29.35 -13.0 Q28.15 -11.6 27.95 -9.75 L27.9 -9.0 Q27.9 -8.35 28.05 -7.8 L26.65 -7.5 26.45 -10.4 26.4 -10.7 26.4 -10.9 26.1 -13.2 M30.1 -8.25 L29.5 -8.1 29.4 -9.0 29.45 -9.5 29.45 -9.55 Q29.55 -11.0 30.45 -12.05 L30.5 -12.05 31.45 -12.85 Q32.05 -13.25 32.85 -13.25 L32.9 -13.25 33.8 -13.1 Q34.25 -13.0 34.7 -12.7 L35.6 -11.45 36.05 -10.9 36.35 -10.0 36.35 -9.95 33.95 -9.2 30.1 -8.25 M-29.6 -28.45 Q-28.65 -26.55 -28.2 -24.25 L-28.3 -24.25 -28.25 -24.25 -29.75 -23.65 -30.2 -25.15 -29.6 -28.45 M-31.05 -20.75 L-30.4 -21.3 -30.4 -21.35 -29.15 -22.25 -27.8 -22.8 -27.8 -22.85 -26.5 -23.15 -26.45 -23.15 -25.75 -23.25 -25.95 -19.75 -26.35 -19.7 -28.05 -19.15 Q-29.0 -18.75 -29.8 -17.9 L-31.05 -16.5 -32.25 -14.3 -31.05 -20.75 M-31.55 -10.95 L-31.55 -11.1 Q-31.2 -13.65 -29.8 -15.65 L-28.85 -16.75 -28.8 -16.8 Q-28.15 -17.5 -27.4 -17.8 L-26.15 -18.2 -26.0 -18.2 -26.2 -14.65 -27.3 -14.25 -27.25 -14.25 Q-28.0 -13.85 -28.6 -12.95 -29.45 -11.8 -29.6 -10.25 L-29.7 -10.3 -29.85 -10.35 -30.4 -10.55 -31.55 -10.95 M-28.15 -9.8 L-28.15 -9.95 Q-28.0 -11.2 -27.35 -12.1 L-27.4 -12.1 -26.5 -12.95 -26.25 -13.05 -26.4 -9.3 -28.15 -9.8" fill="#b4b4b4" fill-rule="evenodd" stroke="none"/>
    <path d="M38.3 -34.25 L39.3 -35.05 40.15 -31.75 39.15 -30.9 38.5 -33.35 38.3 -34.25 M39.6 -29.2 L40.55 -30.15 41.4 -26.7 41.25 -26.5 41.2 -26.5 40.6 -25.45 39.6 -29.2 M42.45 -17.75 L43.2 -16.45 44.3 -13.75 44.45 -12.95 43.9 -12.7 43.5 -12.55 42.45 -17.75 M41.45 -22.0 L41.4 -22.5 Q41.4 -23.75 41.9 -24.75 L42.05 -24.15 43.15 -19.3 42.5 -20.1 41.65 -21.05 41.45 -22.0 M-33.3 -29.4 Q-33.95 -29.9 -34.7 -30.1 L-34.0 -33.35 -32.55 -32.45 -33.3 -29.4 M-34.4 -24.75 Q-34.95 -25.15 -35.6 -25.2 L-35.0 -28.55 Q-34.3 -28.35 -33.7 -27.8 L-34.4 -24.75 M-35.4 -18.55 L-36.1 -22.2 -35.85 -23.7 Q-35.2 -23.65 -34.65 -22.9 L-35.4 -18.55 M-37.05 -16.75 L-36.85 -18.0 Q-36.7 -16.7 -36.7 -15.25 L-36.75 -13.8 -36.75 -13.75 -36.75 -13.05 -37.6 -13.4 -37.05 -16.75" fill="#464646" fill-rule="evenodd" stroke="none"/>
    <path d="M35.65 -31.1 L36.75 -32.65 Q37.45 -33.6 38.3 -34.25 L38.5 -33.35 39.15 -30.9 38.4 -30.05 38.35 -30.05 Q37.25 -28.65 36.65 -26.95 L35.65 -31.1 M40.6 -25.45 Q39.9 -24.15 39.9 -22.55 L37.8 -23.75 37.75 -23.8 37.5 -23.9 Q37.8 -26.85 39.55 -29.1 L39.55 -29.15 39.6 -29.2 40.6 -25.45 M37.7 -22.15 L39.5 -20.95 41.35 -19.15 42.45 -17.75 43.5 -12.55 43.3 -12.45 43.35 -12.5 41.85 -11.85 41.5 -13.0 41.5 -13.05 Q40.8 -14.95 39.5 -16.55 L39.5 -16.6 38.55 -17.5 37.7 -22.15 M39.05 -14.65 L40.1 -12.55 40.45 -11.4 40.45 -11.3 39.55 -11.0 39.05 -14.65 M41.45 -22.0 L41.65 -21.05 41.6 -21.1 41.45 -22.0 M-32.55 -32.45 Q-31.35 -31.5 -30.3 -29.75 L-29.6 -28.45 -30.2 -25.15 -31.1 -26.95 Q-32.1 -28.6 -33.3 -29.4 L-32.55 -32.45 M-33.7 -27.8 Q-33.0 -27.2 -32.4 -26.2 -31.5 -24.65 -31.05 -22.75 L-31.35 -22.45 -31.4 -22.45 -32.45 -21.45 -33.2 -23.4 -33.2 -23.45 -34.4 -24.75 -33.7 -27.8 M-32.25 -14.3 Q-32.8 -13.0 -33.0 -11.5 L-33.6 -11.7 -33.55 -11.7 -35.0 -12.25 -34.95 -12.5 -34.75 -13.55 -34.2 -15.5 -33.2 -17.8 -33.15 -17.8 -32.35 -19.2 -32.3 -19.2 -31.7 -20.0 -31.05 -20.75 -32.25 -14.3 M-34.65 -22.9 L-34.45 -22.65 -34.5 -22.65 Q-33.8 -21.45 -33.75 -19.75 L-34.5 -18.45 -34.5 -18.5 -35.25 -16.9 -35.4 -18.55 -34.65 -22.9" fill="#8a8a8a" fill-rule="evenodd" stroke="none"/>
  </g>
</svg>
