<?xml version="1.0" encoding="UTF-8" standalone="no"?>
<svg xmlns:ffdec="https://www.free-decompiler.com/flash" xmlns:xlink="http://www.w3.org/1999/xlink" ffdec:objectType="shape" height="114.6px" width="52.05px" xmlns="http://www.w3.org/2000/svg">
  <g transform="matrix(1.0, 0.0, 0.0, 1.0, 21.7, 128.65)">
    <path d="M4.7 -124.05 Q5.05 -124.05 5.25 -123.75 L5.4 -123.2 5.2 -122.6 3.05 -120.9 2.4 -120.8 Q2.0 -120.8 1.8 -121.15 L1.7 -121.8 2.1 -122.3 4.15 -123.85 4.7 -124.05 M8.25 -128.45 L8.9 -128.45 9.4 -127.95 Q9.5 -127.55 9.25 -127.3 L7.95 -124.95 7.35 -124.55 Q7.0 -124.45 6.75 -124.7 6.45 -124.9 6.35 -125.3 L6.5 -126.0 7.75 -128.05 8.25 -128.45 M-10.3 -125.45 L-9.65 -128.0 -9.3 -128.55 -8.6 -128.6 Q-8.25 -128.5 -8.1 -128.2 L-7.95 -127.55 -8.55 -125.15 Q-8.65 -124.8 -8.9 -124.55 L-9.6 -124.45 Q-9.95 -124.4 -10.15 -124.75 L-10.3 -125.45 M-0.9 -120.8 L-0.55 -120.25 -0.7 -119.55 -1.2 -119.2 -4.0 -118.85 Q-4.35 -118.85 -4.6 -119.15 L-4.85 -119.75 -4.7 -120.4 -4.05 -120.7 -1.55 -120.95 -0.9 -120.8 M-9.5 -122.3 L-9.2 -122.85 -8.65 -123.1 -8.1 -122.75 -6.25 -121.0 -5.95 -120.45 -6.15 -119.8 Q-6.45 -119.5 -6.75 -119.5 -7.15 -119.55 -7.35 -119.75 -8.45 -120.6 -9.35 -121.7 L-9.5 -122.3" fill="#ffffff" fill-rule="evenodd" stroke="none"/>
    <path d="M-15.55 -16.05 L-15.7 -16.6 -15.35 -17.1 -14.8 -17.25 -11.85 -16.8 Q-11.55 -16.75 -11.35 -16.5 L-11.2 -15.95 -11.5 -15.45 Q-11.75 -15.25 -12.05 -15.3 L-15.05 -15.75 -15.55 -16.05 M-5.85 -16.05 Q-5.55 -16.0 -5.35 -15.75 L-5.2 -15.2 Q-5.25 -14.9 -5.45 -14.7 L-6.0 -14.55 -9.05 -14.9 -9.55 -15.2 -9.7 -15.75 -9.4 -16.25 -8.85 -16.4 -5.85 -16.05 M-21.1 -16.9 L-21.55 -17.25 -21.65 -17.8 -21.35 -18.25 -20.75 -18.35 -17.8 -17.8 -17.35 -17.45 -17.2 -16.9 -17.5 -16.45 -18.05 -16.3 -21.1 -16.9 M23.7 -17.3 L24.25 -17.2 24.6 -16.75 24.5 -16.2 Q24.3 -15.95 24.0 -15.85 L21.05 -15.3 Q20.7 -15.25 20.5 -15.45 L20.15 -15.9 Q20.1 -16.25 20.3 -16.45 L20.8 -16.8 23.7 -17.3 M29.4 -18.8 L29.95 -18.75 30.35 -18.3 30.3 -17.75 29.85 -17.35 26.9 -16.5 26.35 -16.6 Q26.05 -16.75 26.0 -17.05 L26.05 -17.6 26.5 -17.95 29.4 -18.8 M0.6 -15.35 L0.75 -14.8 0.5 -14.25 -0.05 -14.1 -3.0 -14.3 Q-3.3 -14.3 -3.5 -14.55 L-3.7 -15.1 -3.45 -15.6 -2.9 -15.8 0.05 -15.6 0.6 -15.35 M2.5 -14.25 L2.25 -14.8 2.5 -15.3 3.0 -15.55 5.95 -15.55 6.5 -15.3 6.7 -14.8 6.5 -14.25 5.95 -14.05 3.0 -14.05 2.5 -14.25 M12.45 -15.55 L12.7 -15.05 12.55 -14.5 Q12.3 -14.25 12.0 -14.25 L9.0 -14.1 8.45 -14.3 Q8.2 -14.5 8.2 -14.8 L8.4 -15.35 8.95 -15.6 11.9 -15.75 12.45 -15.55 M14.4 -15.7 L14.9 -16.0 17.85 -16.35 18.4 -16.2 18.7 -15.7 18.55 -15.15 18.05 -14.85 15.05 -14.5 14.5 -14.65 14.2 -15.15 Q14.15 -15.5 14.4 -15.7" fill="#ffffff" fill-rule="evenodd" stroke="none"/>
  </g>
</svg>
