<?xml version="1.0" encoding="UTF-8" standalone="no"?>
<svg xmlns:ffdec="https://www.free-decompiler.com/flash" xmlns:xlink="http://www.w3.org/1999/xlink" ffdec:objectType="shape" height="61.45px" width="38.35px" xmlns="http://www.w3.org/2000/svg">
  <g transform="matrix(1.0, 0.0, 0.0, 1.0, 8.95, 10.0)">
    <path d="M3.05 -9.95 L3.4 -9.4 1.6 -9.8 0.5 -9.95 3.05 -9.95 M21.35 27.85 L21.1 28.3 Q20.85 28.8 20.95 29.0 L20.65 29.05 20.45 29.05 18.7 29.55 Q13.05 31.15 10.95 31.9 L9.8 32.3 8.85 31.85 10.55 31.05 14.4 29.65 18.15 28.5 20.15 28.05 21.35 27.85 M-6.1 -6.35 L-5.8 -6.7 -6.05 -6.3 -6.1 -6.35" fill="#535353" fill-rule="evenodd" stroke="none"/>
    <path d="M3.4 -9.4 L3.4 -9.35 22.45 26.05 22.0 26.1 15.65 14.25 10.9 5.2 Q9.7 2.3 7.95 -0.55 4.35 -6.35 0.95 -6.35 -0.5 -6.35 -1.65 -5.25 -3.35 -3.65 -3.35 -0.05 -3.35 1.6 -2.5 5.5 L-4.35 -0.05 -6.05 -6.3 -5.8 -6.7 -5.7 -6.8 -5.25 -7.25 Q-4.35 -8.0 -2.0 -8.95 L0.5 -9.95 1.6 -9.8 3.4 -9.4" fill="#e6e6e6" fill-rule="evenodd" stroke="none"/>
    <path d="M-2.5 5.5 Q-3.35 1.6 -3.35 -0.05 -3.35 -3.65 -1.65 -5.25 -0.5 -6.35 0.95 -6.35 4.35 -6.35 7.95 -0.55 9.7 2.3 10.9 5.2 L15.65 14.25 22.0 26.1 19.25 26.6 18.2 24.3 15.4 18.3 11.65 10.7 Q4.2 -4.0 1.35 -4.0 -0.5 -4.0 -1.2 -2.1 L-1.55 -0.1 Q-1.55 3.55 -1.0 5.95 -0.25 9.2 1.25 8.55 L6.4 17.85 6.6 18.3 Q7.8 21.1 10.45 29.45 L6.8 31.35 6.45 30.4 2.1 18.3 -2.5 5.5" fill="#f4f4f4" fill-rule="evenodd" stroke="none"/>
    <path d="M10.45 29.45 Q7.8 21.1 6.6 18.3 L6.4 17.85 1.25 8.55 Q-0.25 9.2 -1.0 5.95 -1.55 3.55 -1.55 -0.1 L-1.2 -2.1 Q-0.5 -4.0 1.35 -4.0 4.2 -4.0 11.65 10.7 L15.4 18.3 18.2 24.3 19.25 26.6 17.4 27.1 15.55 27.6 Q13.9 28.15 10.45 29.45" fill="#fcfcfc" fill-rule="evenodd" stroke="none"/>
    <path d="M3.4 -9.35 Q10.65 -3.35 12.9 0.85 L15.45 6.4 20.5 16.3 Q25.2 25.45 26.8 26.7 25.55 25.95 22.45 26.05 L3.4 -9.35 M-2.5 5.5 Q-0.75 12.1 1.45 18.3 L3.55 24.0 5.65 29.15 6.65 31.4 5.55 32.3 4.4 33.25 2.25 35.1 -3.2 19.4 Q-7.45 6.2 -7.45 1.55 -7.45 -0.2 -6.85 -3.1 L-6.05 -6.3 -4.35 -0.05 -2.5 5.5" fill="#494949" fill-rule="evenodd" stroke="none"/>
    <path d="M22.0 26.1 L22.45 26.05 22.05 26.8 20.95 26.95 19.7 27.2 17.75 27.75 14.95 28.65 Q12.2 29.65 10.3 30.55 L8.0 31.75 7.2 31.6 7.0 31.5 6.8 31.35 10.45 29.45 Q13.9 28.15 15.55 27.6 L17.4 27.1 19.25 26.6 22.0 26.1" fill="#c8c8c8" fill-rule="evenodd" stroke="none"/>
    <path d="M26.8 26.7 L27.55 28.1 25.4 27.35 Q23.4 26.8 22.05 26.8 L22.45 26.05 Q25.55 25.95 26.8 26.7 M2.25 35.1 L4.4 33.25 5.55 32.3 6.65 31.4 6.8 31.35 7.0 31.5 7.2 31.6 8.0 31.75 7.55 32.1 6.1 33.3 5.35 33.95 2.6 36.5 2.25 35.1" fill="#3c3c3c" fill-rule="evenodd" stroke="none"/>
    <path d="M27.55 28.1 Q27.8 29.6 26.8 30.6 L24.45 32.05 25.2 31.45 25.85 30.4 26.45 29.2 Q25.65 28.4 24.9 28.15 L21.4 27.85 21.35 27.85 21.4 27.8 22.05 26.8 Q23.4 26.8 25.4 27.35 L27.55 28.1 M8.0 31.75 L8.85 31.85 Q8.25 32.1 7.75 32.45 L6.2 33.5 5.15 34.4 Q4.15 35.4 3.9 36.0 4.55 36.95 6.3 37.5 L8.15 37.85 6.65 38.25 5.7 38.4 Q4.6 38.4 3.85 37.85 L2.6 36.5 5.35 33.95 6.1 33.3 7.55 32.1 8.0 31.75" fill="#282828" fill-rule="evenodd" stroke="none"/>
    <path d="M8.0 31.75 L10.3 30.55 Q12.2 29.65 14.95 28.65 L17.75 27.75 19.7 27.2 20.95 26.95 22.05 26.8 21.4 27.8 21.35 27.85 20.15 28.05 18.15 28.5 14.4 29.65 10.55 31.05 8.85 31.85 8.0 31.75" fill="#b0b0b0" fill-rule="evenodd" stroke="none"/>
    <path d="M6.65 31.4 L5.65 29.15 3.55 24.0 1.45 18.3 Q-0.75 12.1 -2.5 5.5 L2.1 18.3 6.45 30.4 6.8 31.35 6.65 31.4" fill="#616161" fill-rule="evenodd" stroke="none"/>
    <path d="M20.65 29.05 L21.7 29.0 24.0 33.45 24.2 33.4 Q29.4 44.0 29.4 45.6 29.4 48.35 27.05 50.05 25.15 51.45 23.1 51.45 21.05 51.45 19.35 50.35 16.7 48.55 12.3 43.0 L9.5 38.9 10.0 38.8 7.1 34.1 8.3 33.3 18.0 48.55 20.45 49.5 23.0 50.1 25.35 49.2 Q27.9 47.9 29.25 45.85 L20.65 29.05" fill="#9d632f" fill-rule="evenodd" stroke="none"/>
    <path d="M18.7 29.55 L27.65 46.25 25.9 47.75 24.85 48.4 Q23.35 48.45 20.85 46.45 15.95 42.4 11.0 32.0 L10.95 31.9 Q13.05 31.15 18.7 29.55" fill="#eaa76a" fill-rule="evenodd" stroke="none"/>
    <path d="M10.95 31.9 L11.0 32.0 Q15.95 42.4 20.85 46.45 23.35 48.45 24.85 48.4 L25.9 47.75 27.65 46.25 18.7 29.55 20.45 29.05 20.65 29.05 29.25 45.85 Q27.9 47.9 25.35 49.2 L23.0 50.1 20.45 49.5 18.0 48.55 8.3 33.3 9.8 32.3 10.95 31.9" fill="#de9954" fill-rule="evenodd" stroke="none"/>
    <path d="M3.4 -9.4 L3.05 -9.95 6.7 -8.35 9.6 -6.55 Q15.4 1.5 15.85 2.65 L18.85 9.25 21.6 14.2 Q22.5 16.5 26.0 23.05 L29.25 29.15 Q27.35 31.9 24.2 33.4 L24.0 33.45 21.7 29.0 20.65 29.05 20.95 29.0 Q20.85 28.8 21.1 28.3 L21.35 27.85 21.4 27.85 24.9 28.15 Q25.65 28.4 26.45 29.2 L25.85 30.4 25.2 31.45 24.45 32.05 26.8 30.6 Q27.8 29.6 27.55 28.1 L26.8 26.7 Q25.2 25.45 20.5 16.3 L15.45 6.4 12.9 0.85 Q10.65 -3.35 3.4 -9.35 L3.4 -9.4 M-6.05 -6.3 L-6.85 -3.1 Q-7.45 -0.2 -7.45 1.55 -7.45 6.2 -3.2 19.4 L2.25 35.1 2.6 36.5 3.85 37.85 Q4.6 38.4 5.7 38.4 L6.65 38.25 8.15 37.85 6.3 37.5 Q4.55 36.95 3.9 36.0 4.15 35.4 5.15 34.4 L6.2 33.5 7.75 32.45 Q8.25 32.1 8.85 31.85 L9.8 32.3 8.3 33.3 7.1 34.1 10.0 38.8 9.5 38.9 5.85 39.3 Q1.95 39.3 1.15 37.3 -2.4 25.8 -4.4 17.5 -5.1 14.6 -7.1 10.85 -8.1 9.0 -8.6 5.55 L-8.95 1.7 Q-8.95 -2.05 -6.1 -6.35 L-6.05 -6.3" fill="#1b1b1b" fill-rule="evenodd" stroke="none"/>
  </g>
</svg>
