<?xml version="1.0" encoding="UTF-8" standalone="no"?>
<svg xmlns:ffdec="https://www.free-decompiler.com/flash" xmlns:xlink="http://www.w3.org/1999/xlink" ffdec:objectType="shape" height="26.6px" width="107.75px" xmlns="http://www.w3.org/2000/svg">
  <g transform="matrix(1.0, 0.0, 0.0, 1.0, 46.15, 13.8)">
    <path d="M24.15 -13.8 L35.9 -13.8 32.9 -7.0 21.15 -7.0 24.15 -13.8 M47.9 -13.8 L48.85 -13.8 55.45 -7.0 44.95 -7.0 47.9 -13.8 M-37.0 -7.0 L-33.85 -13.8 -32.1 -13.8 -35.05 -7.0 -37.0 -7.0 M-21.85 -13.8 L-10.1 -13.8 -13.1 -7.0 -24.85 -7.0 -21.85 -13.8 M1.9 -13.8 L13.4 -13.8 10.4 -7.0 -1.1 -7.0 1.9 -13.8" fill="#ff0000" fill-rule="evenodd" stroke="none"/>
    <path d="M56.45 -5.9 L61.6 -0.6 51.9 4.5 56.45 -5.9 M36.35 12.7 L36.15 12.8 24.2 12.8 32.9 -7.0 44.95 -7.0 36.35 12.7 M12.45 12.8 L1.7 12.8 10.4 -7.0 21.15 -7.0 12.45 12.8 M-9.8 12.8 L-21.8 12.8 -13.1 -7.0 -1.1 -7.0 -9.8 12.8 M-33.55 12.8 L-43.7 12.8 -35.05 -7.0 -24.85 -7.0 -33.55 12.8" fill="#ff6600" fill-rule="evenodd" stroke="none"/>
    <path d="M13.4 -13.8 L24.15 -13.8 21.15 -7.0 10.4 -7.0 13.4 -13.8 M35.9 -13.8 L47.9 -13.8 44.95 -7.0 32.9 -7.0 35.9 -13.8 M-32.1 -13.8 L-21.85 -13.8 -24.85 -7.0 -35.05 -7.0 -32.1 -13.8 M-10.1 -13.8 L1.9 -13.8 -1.1 -7.0 -13.1 -7.0 -10.1 -13.8" fill="#ff9435" fill-rule="evenodd" stroke="none"/>
    <path d="M55.45 -7.0 L56.45 -5.9 51.9 4.5 36.35 12.7 44.95 -7.0 55.45 -7.0 M24.2 12.8 L12.45 12.8 21.15 -7.0 32.9 -7.0 24.2 12.8 M1.7 12.8 L-9.8 12.8 -1.1 -7.0 10.4 -7.0 1.7 12.8 M-21.8 12.8 L-33.55 12.8 -24.85 -7.0 -13.1 -7.0 -21.8 12.8 M-43.7 12.8 L-46.15 12.8 -37.0 -7.0 -35.05 -7.0 -43.7 12.8" fill="#e80000" fill-rule="evenodd" stroke="none"/>
  </g>
</svg>
