<?xml version="1.0" encoding="UTF-8" standalone="no"?>
<svg xmlns:ffdec="https://www.free-decompiler.com/flash" xmlns:xlink="http://www.w3.org/1999/xlink" ffdec:objectType="shape" height="29.5px" width="23.45px" xmlns="http://www.w3.org/2000/svg">
  <g transform="matrix(1.0, 0.0, 0.0, 1.0, -9.7, 20.2)">
    <path d="M10.95 -18.85 L10.95 -18.9 11.0 -18.9 11.3 -19.15 Q12.8 -20.2 15.0 -20.2 16.85 -20.2 16.95 -19.65 L16.9 -19.35 Q16.2 -19.95 17.75 -10.4 19.3 -0.9 22.1 -0.4 24.9 0.1 28.25 -2.6 L31.85 -5.35 31.75 -5.15 Q30.95 -3.85 29.35 -2.2 25.35 1.8 21.2 3.1 L19.2 3.1 19.0 2.15 Q18.7 1.3 18.3 1.3 L17.5 2.55 17.85 3.1 Q16.55 1.05 15.6 -1.3 14.65 -3.75 13.7 -7.7 L13.3 -9.2 11.65 -14.15 11.3 -17.4 10.95 -18.85 M28.35 -0.55 L28.45 -0.55 28.05 -0.25 28.35 -0.55" fill="#d1d1d1" fill-rule="evenodd" stroke="none"/>
    <path d="M25.85 3.85 L24.8 5.0 24.5 5.3 25.5 4.0 24.95 4.2 25.85 3.85 M17.25 6.75 L15.45 2.8 15.2 2.1 17.25 6.75 M10.05 -18.0 L10.15 -18.1 10.85 -18.8 10.95 -18.85 11.3 -17.4 11.65 -14.15 13.3 -9.2 13.7 -7.7 Q14.65 -3.75 15.6 -1.3 16.55 1.05 17.85 3.1 L17.5 2.55 18.3 1.3 Q18.7 1.3 19.0 2.15 L19.2 3.1 21.2 3.1 Q25.35 1.8 29.35 -2.2 30.95 -3.85 31.75 -5.15 L31.8 -5.25 31.6 -4.85 31.55 -4.75 31.3 -4.3 31.1 -4.05 29.6 -1.95 25.4 3.15 25.35 3.2 25.2 3.4 24.35 4.45 24.25 4.45 24.15 4.5 23.15 5.5 20.55 7.6 19.95 7.75 Q18.45 7.75 16.15 2.8 L12.7 -5.15 Q12.05 -6.4 11.6 -8.4 L10.95 -11.7 10.55 -14.95 10.05 -18.0 M28.35 -0.55 L28.05 -0.25 28.45 -0.55 28.35 -0.55" fill="#989898" fill-rule="evenodd" stroke="none"/>
    <path d="M31.85 -5.35 L32.05 -5.8 33.15 -5.8 33.1 -5.75 Q32.25 -3.9 29.55 -0.5 L25.85 3.85 24.95 4.2 25.5 4.0 24.5 5.3 24.5 5.35 23.9 5.9 23.35 6.45 22.9 6.9 Q20.3 9.25 19.3 9.3 L19.25 9.3 18.35 8.65 17.3 6.9 17.25 6.75 15.2 2.1 14.35 -0.2 14.2 -0.55 12.95 -3.8 Q11.85 -6.05 10.8 -10.1 9.95 -13.35 9.8 -15.6 L9.75 -16.25 9.7 -17.0 9.7 -17.1 9.7 -17.15 10.05 -18.0 10.55 -14.95 10.95 -11.7 11.6 -8.4 Q12.05 -6.4 12.7 -5.15 L16.15 2.8 Q18.45 7.75 19.95 7.75 L20.55 7.6 23.15 5.5 24.15 4.5 24.25 4.45 24.35 4.45 25.2 3.4 25.35 3.2 25.4 3.15 29.6 -1.95 31.1 -4.05 31.3 -4.3 31.55 -4.75 31.6 -4.85 31.8 -5.25 31.75 -5.15 31.85 -5.35" fill="#606060" fill-rule="evenodd" stroke="none"/>
  </g>
</svg>
