<?xml version="1.0" encoding="UTF-8" standalone="no"?>
<svg xmlns:ffdec="https://www.free-decompiler.com/flash" xmlns:xlink="http://www.w3.org/1999/xlink" ffdec:objectType="shape" height="60.3px" width="41.9px" xmlns="http://www.w3.org/2000/svg">
  <g transform="matrix(1.0, 0.0, 0.0, 1.0, 0.0, 0.0)">
    <path d="M31.05 12.35 Q34.1 12.35 38.1 15.0 41.5 17.25 41.9 18.35 L41.9 18.7 35.65 19.6 35.25 18.85 40.0 18.5 41.05 18.2 Q38.3 15.45 35.95 14.15 L33.15 13.15 29.25 12.85 28.3 12.35 28.55 12.35 31.05 12.35 M29.75 20.8 Q34.35 24.35 37.6 28.6 L40.0 32.25 Q40.0 32.85 39.7 32.85 L38.3 32.7 Q31.0 31.2 29.5 29.6 29.4 30.8 29.1 31.4 L29.85 31.9 28.9 31.8 28.65 32.25 27.85 32.45 Q23.9 30.7 23.5 30.7 20.2 30.7 20.2 32.95 L21.95 34.4 25.7 37.0 30.35 38.35 36.05 39.7 Q34.7 36.85 33.4 35.25 L31.95 33.45 Q36.2 36.85 36.85 40.05 L36.75 40.35 35.95 40.4 30.5 39.35 Q24.55 37.8 21.4 35.4 L23.8 39.15 Q25.4 40.95 27.7 41.8 L29.95 42.6 Q31.05 43.65 31.9 46.7 32.65 49.3 32.65 50.95 L32.55 51.75 30.6 51.75 Q29.95 51.65 27.25 50.05 24.3 48.3 23.45 47.3 20.85 54.05 20.85 59.1 L20.5 60.3 17.55 60.0 18.3 53.15 Q16.85 52.75 15.7 51.05 15.15 52.45 12.15 54.45 9.6 56.1 8.7 56.3 8.5 56.1 8.45 54.5 8.45 53.75 9.25 50.75 10.25 46.95 11.35 45.6 L13.55 43.7 Q15.25 42.15 15.7 40.4 15.9 39.7 18.7 35.55 L18.55 33.1 18.35 31.0 17.95 31.45 Q17.95 33.6 16.95 36.15 15.85 38.95 14.4 39.7 11.6 42.35 8.75 43.25 L5.4 43.9 5.05 43.4 4.85 42.2 Q4.85 40.85 5.65 38.9 7.1 35.25 10.7 32.2 11.85 31.25 13.8 30.7 L15.8 30.25 17.55 29.5 Q18.3 28.75 18.15 26.35 L19.5 24.6 20.65 27.1 25.55 30.55 Q27.2 31.5 27.65 31.5 28.35 31.5 28.55 30.7 L28.65 28.6 28.5 26.2 27.15 22.6 25.85 20.55 24.8 19.2 24.7 19.1 24.9 18.7 Q26.25 19.8 29.75 20.8 M13.4 29.25 Q8.95 31.2 5.45 32.15 L2.25 32.7 2.15 32.4 Q2.25 31.1 4.3 28.15 7.15 24.0 11.2 22.4 L11.15 22.95 Q7.95 24.25 6.1 26.5 4.7 28.15 2.9 31.95 L11.25 29.55 12.85 28.7 13.4 29.25 M11.4 20.65 L6.55 20.25 Q5.0 19.85 4.0 18.5 L5.05 17.3 6.85 16.85 4.75 18.15 6.0 19.1 Q7.7 19.9 10.7 19.95 L11.55 19.9 11.4 20.65 M36.9 28.95 Q34.0 24.9 32.7 23.85 L26.5 20.25 26.25 20.3 27.8 23.45 29.45 27.65 Q29.8 29.0 30.7 29.6 31.75 30.15 32.2 30.65 35.2 31.85 39.1 31.9 L36.9 28.95 M20.0 28.8 L19.65 28.45 Q19.45 28.45 19.35 28.8 19.2 29.1 19.2 29.6 19.2 30.1 19.35 30.45 L19.65 30.75 20.0 30.45 20.1 29.6 20.0 28.8 M6.85 37.95 Q5.55 41.45 5.55 42.15 5.55 42.9 5.85 43.3 7.1 42.6 9.75 41.95 11.5 41.5 12.6 40.1 L16.0 36.6 Q17.3 34.8 17.3 32.75 17.3 32.45 16.3 31.3 14.4 31.55 12.7 32.15 9.5 33.35 6.8 37.95 L6.85 37.95 M23.3 41.7 Q23.2 40.0 22.4 38.3 21.4 36.2 19.95 36.2 17.6 36.2 16.3 40.4 15.6 42.6 15.4 45.0 15.35 47.8 16.15 50.05 16.95 52.25 17.95 52.25 19.2 52.25 21.2 49.35 23.35 46.2 23.35 43.55 L23.3 41.7 M13.25 52.5 L15.4 50.25 Q15.4 49.6 14.45 47.6 13.8 45.5 15.05 43.35 L14.3 43.65 Q11.75 44.6 10.25 48.35 9.0 51.35 9.05 53.8 L9.0 55.45 13.25 52.5 M21.4 30.25 L22.45 30.1 21.4 29.25 21.4 30.25 M31.2 45.95 Q29.45 43.3 27.8 42.35 26.7 41.7 25.1 41.7 L23.95 41.8 23.85 45.15 Q23.85 46.95 24.0 47.05 L25.1 48.15 Q26.05 49.1 28.25 50.15 30.35 51.15 31.2 51.15 L32.2 50.95 31.7 48.05 31.2 45.95 M19.05 59.5 L19.65 58.35 Q20.25 56.75 20.55 53.55 L20.0 53.05 Q19.4 54.45 19.0 56.6 L18.7 59.05 18.8 59.4 19.05 59.5" fill="#052704" fill-rule="evenodd" stroke="none"/>
    <path d="M29.25 9.9 L29.7 10.45 30.65 11.9 30.25 11.9 26.35 10.75 Q24.1 9.75 23.5 8.7 23.55 8.45 23.95 8.05 L25.65 8.25 28.25 9.15 28.4 9.2 29.25 9.9 M24.55 17.1 Q24.55 17.8 24.15 18.6 L22.45 18.25 19.5 13.35 19.0 12.4 Q19.0 11.75 19.15 11.5 L19.6 11.2 Q20.55 11.3 22.15 13.2 23.85 15.15 24.55 17.1 M8.65 16.45 Q8.2 16.4 7.85 16.1 L10.2 12.4 Q11.75 10.1 13.25 9.3 13.45 11.0 11.4 13.55 L8.65 16.45 M10.6 5.3 L10.4 4.95 Q10.4 4.4 10.95 4.0 11.5 3.6 12.3 3.6 L13.95 5.45 13.7 6.2 12.8 6.55 11.75 6.2 Q11.0 5.8 10.6 5.3 M30.7 5.3 Q31.5 4.9 32.7 4.9 L34.75 5.3 Q35.55 5.65 35.55 6.15 35.55 6.65 34.75 7.05 L32.7 7.4 30.7 7.05 Q29.85 6.65 29.85 6.15 29.85 5.65 30.7 5.3 M23.3 1.75 L28.0 1.1 27.25 2.1 25.05 3.4 24.05 3.7 23.15 3.4 22.95 2.65 23.3 1.75 M30.5 16.8 L30.8 16.8 31.95 17.6 33.05 18.6 32.85 19.2 31.95 19.45 30.95 18.55 30.35 17.5 Q30.35 16.85 30.5 16.8 M4.7 12.7 L4.5 14.35 Q4.25 15.05 3.45 15.45 L2.95 14.8 2.75 14.25 Q3.65 13.3 4.7 12.7 M14.8 23.4 L15.0 24.6 16.0 22.7 Q16.75 21.05 17.25 20.8 L17.65 21.2 Q17.75 21.7 16.7 23.85 L15.3 26.35 13.9 25.3 Q13.2 24.45 13.2 22.85 L13.95 22.6 Q14.65 22.8 14.8 23.4" fill="#fc3a3a" fill-rule="evenodd" stroke="none"/>
    <path d="M28.15 4.2 L31.1 3.9 35.4 4.55 38.05 5.25 Q37.6 6.35 35.6 8.15 L31.7 8.35 27.45 5.7 28.15 4.2 M30.25 11.9 L24.0 11.45 20.45 9.0 20.7 7.0 24.3 7.1 Q25.4 7.3 26.35 7.75 L27.9 8.85 28.25 9.15 25.65 8.25 23.95 8.05 Q23.55 8.45 23.5 8.7 24.1 9.75 26.35 10.75 L30.25 11.9 M19.75 9.3 Q24.1 12.55 24.55 17.1 23.85 15.15 22.15 13.2 20.55 11.3 19.6 11.2 L19.15 11.5 Q19.0 11.75 19.0 12.4 L19.5 13.35 22.45 18.25 Q20.35 18.25 18.85 16.15 17.35 14.05 17.35 11.1 18.35 11.1 19.05 10.6 19.75 10.05 19.75 9.3 M16.35 11.05 Q15.2 13.1 13.75 14.3 11.7 15.95 8.65 16.45 L11.4 13.55 Q13.45 11.0 13.25 9.3 13.95 8.95 14.55 8.85 15.35 10.3 16.35 11.05 M14.6 8.25 Q12.25 7.35 11.7 6.85 L10.6 5.3 Q11.0 5.8 11.75 6.2 L12.8 6.55 13.7 6.2 13.95 5.45 12.3 3.6 Q13.85 3.3 17.1 4.7 16.05 4.7 15.35 5.75 14.6 6.8 14.6 8.25 M30.7 5.3 Q29.85 5.65 29.85 6.15 29.85 6.65 30.7 7.05 L32.7 7.4 34.75 7.05 Q35.55 6.65 35.55 6.15 35.55 5.65 34.75 5.3 L32.7 4.9 Q31.5 4.9 30.7 5.3 M23.3 1.75 L22.95 2.65 23.15 3.4 24.05 3.7 25.05 3.4 27.25 2.1 25.15 5.1 Q24.05 6.45 23.0 6.45 L22.0 6.4 21.4 5.1 Q20.85 4.5 19.6 4.9 20.7 3.4 23.3 1.75 M26.85 18.95 L26.7 16.8 28.55 17.85 29.45 17.1 29.75 16.7 28.35 14.85 28.2 14.7 31.25 14.85 Q32.15 15.7 33.9 18.4 35.65 21.05 35.65 21.55 L26.85 18.95 M30.5 16.8 Q30.35 16.85 30.35 17.5 L30.95 18.55 31.95 19.45 32.85 19.2 33.05 18.6 31.95 17.6 30.8 16.8 30.5 16.8 M4.15 16.75 L0.75 17.65 Q2.0 15.05 2.8 13.85 3.8 12.3 5.45 10.75 5.1 11.2 6.05 11.15 L7.45 11.05 5.8 14.15 4.15 16.75 M4.7 12.7 Q3.65 13.3 2.75 14.25 L2.95 14.8 3.45 15.45 Q4.25 15.05 4.5 14.35 L4.7 12.7 M19.9 19.8 Q19.65 22.45 17.2 25.5 15.45 27.7 14.2 28.5 13.5 27.85 12.65 26.05 11.8 24.15 11.8 22.95 11.8 20.95 12.45 18.1 L13.4 17.75 14.6 16.95 14.45 19.5 Q14.5 20.55 15.45 21.45 L15.95 20.9 Q16.2 20.65 16.3 20.65 16.5 18.1 16.75 17.45 17.75 18.75 19.9 19.8 M14.8 23.4 Q14.65 22.8 13.95 22.6 L13.2 22.85 Q13.2 24.45 13.9 25.3 L15.3 26.35 16.7 23.85 Q17.75 21.7 17.65 21.2 L17.25 20.8 Q16.75 21.05 16.0 22.7 L15.0 24.6 14.8 23.4" fill="#dd0404" fill-rule="evenodd" stroke="none"/>
    <path d="M35.65 19.6 L36.15 20.55 36.4 21.75 36.4 22.25 Q36.65 22.3 36.4 22.3 L35.85 22.3 34.0 21.95 29.75 20.8 Q26.25 19.8 24.9 18.7 L24.7 19.1 24.8 19.2 24.05 19.35 22.7 19.1 Q21.3 18.7 20.55 18.2 L20.55 19.0 Q20.55 22.35 19.5 24.6 L18.15 26.35 15.35 28.85 13.4 29.25 12.85 28.7 Q10.8 24.9 11.15 22.95 L11.2 22.4 11.4 20.65 11.55 19.9 12.65 15.9 9.75 16.85 9.35 16.9 6.85 16.85 5.05 17.3 1.95 18.2 0.1 18.4 0.0 18.1 Q0.4 15.65 2.7 12.65 6.15 8.3 11.65 7.35 L10.45 5.8 9.85 4.65 Q9.85 3.15 14.0 2.85 14.7 2.8 15.95 1.4 17.2 0.0 19.4 0.0 L20.95 0.85 Q22.0 1.7 22.5 1.7 L25.3 1.2 Q26.95 0.65 27.45 0.65 L28.65 0.9 27.65 2.55 27.05 3.35 31.15 3.1 Q34.3 3.1 38.9 5.2 39.1 6.75 36.15 8.75 33.45 10.55 30.75 11.1 L31.2 12.3 31.05 12.35 28.55 12.35 28.3 12.35 29.25 12.85 31.7 14.95 33.85 16.95 35.25 18.85 35.65 19.6 M35.6 8.15 Q37.6 6.35 38.05 5.25 L35.4 4.55 31.1 3.9 28.15 4.2 Q26.65 4.25 25.75 5.0 L23.85 6.6 Q25.05 6.95 26.35 7.75 25.4 7.3 24.3 7.1 L20.7 7.0 20.7 6.95 20.45 7.0 20.4 7.05 20.3 7.05 19.35 7.45 Q19.2 7.1 18.3 6.8 L17.1 4.7 Q13.85 3.3 12.3 3.6 11.5 3.6 10.95 4.0 10.4 4.4 10.4 4.95 L10.6 5.3 11.7 6.85 Q12.25 7.35 14.6 8.25 L16.35 8.25 16.45 8.8 14.55 8.85 Q13.95 8.95 13.25 9.3 11.75 10.1 10.2 12.4 L7.85 16.1 Q8.2 16.4 8.65 16.45 11.7 15.95 13.75 14.3 15.2 13.1 16.35 11.05 L16.85 9.45 17.7 9.75 17.35 11.1 Q17.35 14.05 18.85 16.15 20.35 18.25 22.45 18.25 L24.15 18.6 Q24.55 17.8 24.55 17.1 24.1 12.55 19.75 9.3 L19.0 9.1 19.35 8.4 20.45 9.0 24.0 11.45 30.25 11.9 30.65 11.9 29.7 10.45 29.25 9.9 30.15 10.35 Q31.55 10.35 33.15 9.6 L35.6 8.15 M27.25 2.1 L28.0 1.1 23.3 1.75 Q20.7 3.4 19.6 4.9 19.15 5.85 19.0 6.55 L20.05 6.7 22.0 6.4 23.0 6.45 Q24.05 6.45 25.15 5.1 L27.25 2.1 M20.25 3.75 Q21.6 2.15 21.85 2.1 19.95 0.75 18.85 0.75 16.9 0.75 15.65 3.4 17.65 4.6 18.6 6.05 18.9 5.4 20.25 3.75 M26.85 18.95 L35.65 21.55 Q35.65 21.05 33.9 18.4 32.15 15.7 31.25 14.85 30.3 14.2 27.0 12.95 L22.95 11.7 Q23.95 13.2 24.55 15.85 24.95 17.65 26.85 18.95 M4.15 16.75 L6.5 16.0 Q7.8 15.3 8.55 13.65 10.15 10.2 11.25 9.55 12.0 9.1 14.0 8.4 L12.6 7.85 Q11.0 7.8 8.25 9.15 6.3 10.1 5.45 10.75 3.8 12.3 2.8 13.85 2.0 15.05 0.75 17.65 L4.15 16.75 M19.9 19.8 Q19.7 17.85 19.35 17.3 L18.65 16.55 Q17.7 15.1 16.75 12.55 L14.15 15.5 Q12.8 17.1 12.45 18.1 11.8 20.95 11.8 22.95 11.8 24.15 12.65 26.05 13.5 27.85 14.2 28.5 15.45 27.7 17.2 25.5 19.65 22.45 19.9 19.8" fill="#550000" fill-rule="evenodd" stroke="none"/>
    <path d="M35.6 8.15 L33.15 9.6 Q31.55 10.35 30.15 10.35 L29.25 9.9 28.4 9.2 28.25 9.15 27.9 8.85 26.35 7.75 Q25.05 6.95 23.85 6.6 L25.75 5.0 Q26.65 4.25 28.15 4.2 L27.45 5.7 31.7 8.35 35.6 8.15 M20.45 9.0 L19.35 8.4 19.35 7.45 20.3 7.05 20.4 7.05 20.45 7.0 20.7 6.95 20.7 7.0 20.45 9.0 M19.0 9.1 L19.75 9.3 Q19.75 10.05 19.05 10.6 18.35 11.1 17.35 11.1 L17.7 9.75 18.65 9.55 19.0 9.1 M16.85 9.45 L16.35 11.05 Q15.35 10.3 14.55 8.85 L16.45 8.8 16.85 9.45 M16.35 8.25 L14.6 8.25 Q14.6 6.8 15.35 5.75 16.05 4.7 17.1 4.7 L18.3 6.8 Q17.5 6.8 16.95 7.25 16.35 7.65 16.35 8.25 M22.0 6.4 L20.05 6.7 19.0 6.55 Q19.15 5.85 19.6 4.9 20.85 4.5 21.4 5.1 L22.0 6.4 M20.25 3.75 Q18.9 5.4 18.6 6.05 17.65 4.6 15.65 3.4 16.9 0.75 18.85 0.75 19.95 0.75 21.85 2.1 21.6 2.15 20.25 3.75 M31.25 14.85 L28.2 14.7 28.35 14.85 29.75 16.7 29.45 17.1 28.55 17.85 26.7 16.8 26.85 18.95 Q24.95 17.65 24.55 15.85 23.95 13.2 22.95 11.7 L27.0 12.95 Q30.3 14.2 31.25 14.85 M5.45 10.75 Q6.3 10.1 8.25 9.15 11.0 7.8 12.6 7.85 L14.0 8.4 Q12.0 9.1 11.25 9.55 10.15 10.2 8.55 13.65 7.8 15.3 6.5 16.0 L4.15 16.75 5.8 14.15 7.45 11.05 6.05 11.15 Q5.1 11.2 5.45 10.75 M12.45 18.1 Q12.8 17.1 14.15 15.5 L16.75 12.55 Q17.7 15.1 18.65 16.55 L19.35 17.3 Q19.7 17.85 19.9 19.8 17.75 18.75 16.75 17.45 16.5 18.1 16.3 20.65 16.2 20.65 15.95 20.9 L15.45 21.45 Q14.5 20.55 14.45 19.5 L14.6 16.95 13.4 17.75 12.45 18.1" fill="#9c0303" fill-rule="evenodd" stroke="none"/>
    <path d="M29.85 31.9 Q30.85 32.15 31.7 33.1 L31.95 33.45 33.4 35.25 24.2 33.55 24.65 34.3 Q25.5 35.6 25.7 37.0 L21.95 34.4 20.2 32.95 Q20.2 30.7 23.5 30.7 23.9 30.7 27.85 32.45 L28.65 32.25 28.9 31.8 29.85 31.9 M35.95 14.15 Q38.3 15.45 41.05 18.2 L40.0 18.5 35.25 18.85 33.85 16.95 35.95 14.15 M24.8 19.2 L25.85 20.55 27.15 22.6 Q23.9 22.85 23.3 23.2 22.4 23.75 20.65 27.1 L19.5 24.6 Q20.55 22.35 20.55 19.0 L20.55 18.2 Q21.3 18.7 22.7 19.1 L24.05 19.35 24.8 19.2 M32.2 30.65 Q31.75 30.15 30.7 29.6 29.8 29.0 29.45 27.65 L27.8 23.45 26.25 20.3 26.5 20.25 32.7 23.85 Q34.0 24.9 36.9 28.95 L31.3 25.55 31.2 26.15 32.2 30.65 M6.85 16.85 L9.35 16.9 8.75 16.95 10.7 19.95 Q7.7 19.9 6.0 19.1 L4.75 18.15 6.85 16.85 M20.0 28.8 L20.1 29.6 20.0 30.45 19.65 30.75 19.35 30.45 Q19.2 30.1 19.2 29.6 19.2 29.1 19.35 28.8 19.45 28.45 19.65 28.45 L20.0 28.8 M11.25 29.55 Q10.4 27.9 10.2 25.45 7.95 25.7 5.6 28.4 L2.9 31.95 Q4.7 28.15 6.1 26.5 7.95 24.25 11.15 22.95 10.8 24.9 12.85 28.7 L11.25 29.55 M12.6 40.1 L14.7 34.8 14.85 34.3 Q9.3 37.5 6.85 37.95 L6.8 37.95 Q9.5 33.35 12.7 32.15 14.4 31.55 16.3 31.3 17.3 32.45 17.3 32.75 17.3 34.8 16.0 36.6 L12.6 40.1 M23.3 41.7 L21.85 40.7 20.5 39.35 20.6 40.6 Q20.8 43.5 20.35 44.7 20.0 45.55 19.05 45.95 L18.35 44.9 Q18.0 44.25 18.0 43.4 L18.25 39.6 17.3 40.9 15.4 45.0 Q15.6 42.6 16.3 40.4 17.6 36.2 19.95 36.2 21.4 36.2 22.4 38.3 23.2 40.0 23.3 41.7 M13.25 52.5 L9.0 55.45 9.05 53.8 11.6 50.25 Q12.35 49.2 12.55 48.05 L13.25 52.5 M31.2 45.95 L31.7 48.05 32.2 50.95 31.2 51.15 Q30.35 51.15 28.25 50.15 26.05 49.1 25.1 48.15 L25.2 44.95 31.2 45.95 M19.05 59.5 L18.8 59.4 18.7 59.05 19.0 56.6 Q19.4 54.45 20.0 53.05 L20.55 53.55 Q20.25 56.75 19.65 58.35 L19.05 59.5" fill="#165614" fill-rule="evenodd" stroke="none"/>
    <path d="M24.65 24.25 L24.95 24.1 Q25.9 24.95 26.95 26.85 L27.85 28.85 27.55 29.8 26.95 30.05 Q26.1 29.65 25.35 28.25 24.5 26.75 24.5 25.05 24.5 24.4 24.65 24.25 M7.95 41.05 Q7.3 41.05 7.2 40.7 L7.1 40.05 8.15 39.0 Q9.15 38.15 10.15 38.15 11.15 38.15 11.2 38.7 10.9 40.05 10.45 40.45 9.8 41.05 7.95 41.05 M9.15 27.8 Q10.15 27.8 9.7 28.0 9.65 28.95 9.3 29.3 L7.55 30.3 Q7.0 30.25 6.85 30.0 L6.6 29.4 Q6.9 28.8 7.95 28.25 8.8 27.8 9.15 27.8 M36.1 29.1 Q37.05 29.6 37.05 30.2 L36.95 30.9 36.8 30.8 Q35.7 31.5 34.2 30.35 32.95 29.35 32.95 28.95 32.95 28.15 33.15 28.15 L33.8 28.1 Q34.8 28.1 34.6 28.4 L36.1 29.1 M16.9 45.05 Q17.4 45.3 18.0 46.75 18.7 48.3 18.7 49.55 L18.65 50.4 18.45 50.5 17.95 50.55 15.95 48.05 Q15.2 46.4 16.9 45.05 M27.85 36.8 Q27.4 36.2 27.25 34.95 29.3 33.6 33.05 37.2 L32.75 38.05 32.2 38.2 Q29.0 38.3 27.85 36.8" fill="#269423" fill-rule="evenodd" stroke="none"/>
    <path d="M27.15 22.6 L28.5 26.2 28.65 28.6 28.55 30.7 Q28.35 31.5 27.65 31.5 27.2 31.5 25.55 30.55 L20.65 27.1 Q22.4 23.75 23.3 23.2 23.9 22.85 27.15 22.6 M24.65 24.25 Q24.5 24.4 24.5 25.05 24.5 26.75 25.35 28.25 26.1 29.65 26.95 30.05 L27.55 29.8 27.85 28.85 26.95 26.85 Q25.9 24.95 24.95 24.1 L24.65 24.25 M36.9 28.95 L39.1 31.9 Q35.2 31.85 32.2 30.65 L31.2 26.15 31.3 25.55 36.9 28.95 M2.9 31.95 L5.6 28.4 Q7.95 25.7 10.2 25.45 10.4 27.9 11.25 29.55 L2.9 31.95 M6.85 37.95 Q9.3 37.5 14.85 34.3 L14.7 34.8 12.6 40.1 Q11.5 41.5 9.75 41.95 7.1 42.6 5.85 43.3 5.55 42.9 5.55 42.15 5.55 41.45 6.85 37.95 M9.15 27.8 Q8.8 27.8 7.95 28.25 6.9 28.8 6.6 29.4 L6.85 30.0 Q7.0 30.25 7.55 30.3 L9.3 29.3 Q9.65 28.95 9.7 28.0 10.15 27.8 9.15 27.8 M7.95 41.05 Q9.8 41.05 10.45 40.45 10.9 40.05 11.2 38.7 11.15 38.15 10.15 38.15 9.15 38.15 8.15 39.0 L7.1 40.05 7.2 40.7 Q7.3 41.05 7.95 41.05 M15.4 45.0 L17.3 40.9 18.25 39.6 18.0 43.4 Q18.0 44.25 18.35 44.9 L19.05 45.95 Q20.0 45.55 20.35 44.7 20.8 43.5 20.6 40.6 L20.5 39.35 21.85 40.7 23.3 41.7 23.35 43.55 Q23.35 46.2 21.2 49.35 19.2 52.25 17.95 52.25 16.95 52.25 16.15 50.05 15.35 47.8 15.4 45.0 M16.9 45.05 Q15.2 46.4 15.95 48.05 L17.95 50.55 18.45 50.5 18.65 50.4 18.7 49.55 Q18.7 48.3 18.0 46.75 17.4 45.3 16.9 45.05 M36.1 29.1 L34.6 28.4 Q34.8 28.1 33.8 28.1 L33.15 28.15 Q32.95 28.15 32.95 28.95 32.95 29.35 34.2 30.35 35.7 31.5 36.8 30.8 L36.95 30.9 37.05 30.2 Q37.05 29.6 36.1 29.1 M25.7 37.0 Q25.5 35.6 24.65 34.3 L24.2 33.55 33.4 35.25 Q34.7 36.85 36.05 39.7 L30.35 38.35 25.7 37.0 M27.85 36.8 Q29.0 38.3 32.2 38.2 L32.75 38.05 33.05 37.2 Q29.3 33.6 27.25 34.95 27.4 36.2 27.85 36.8" fill="#1f7a1d" fill-rule="evenodd" stroke="none"/>
    <path d="M29.25 12.85 L33.15 13.15 35.95 14.15 33.85 16.95 31.7 14.95 29.25 12.85 M10.7 19.95 L8.75 16.95 9.35 16.9 9.75 16.85 12.65 15.9 11.55 19.9 10.7 19.95 M9.05 53.8 Q9.0 51.35 10.25 48.35 11.75 44.6 14.3 43.65 L15.05 43.35 Q13.8 45.5 14.45 47.6 15.4 49.6 15.4 50.25 L13.25 52.5 12.55 48.05 Q12.35 49.2 11.6 50.25 L9.05 53.8 M25.1 48.15 L24.0 47.05 Q23.85 46.95 23.85 45.15 L23.95 41.8 25.1 41.7 Q26.7 41.7 27.8 42.35 29.45 43.3 31.2 45.95 L25.2 44.95 25.1 48.15" fill="#10420f" fill-rule="evenodd" stroke="none"/>
    <path d="M19.35 8.4 L19.0 9.1 18.65 9.55 17.7 9.75 16.85 9.45 16.45 8.8 16.35 8.25 Q16.35 7.65 16.95 7.25 17.5 6.8 18.3 6.8 19.2 7.1 19.35 7.45 L19.35 8.4 M19.05 8.15 L18.75 7.5 18.05 7.2 Q17.65 7.2 17.35 7.5 17.05 7.75 17.05 8.15 17.05 8.55 17.35 8.85 L18.05 9.1 18.75 8.85 19.05 8.15" fill="#8c4600" fill-rule="evenodd" stroke="none"/>
    <path d="M19.05 8.15 L18.75 8.85 18.05 9.1 17.35 8.85 Q17.05 8.55 17.05 8.15 17.05 7.75 17.35 7.5 17.65 7.2 18.05 7.2 L18.75 7.5 19.05 8.15" fill="#ffc809" fill-rule="evenodd" stroke="none"/>
  </g>
</svg>
