<?xml version="1.0" encoding="UTF-8" standalone="no"?>
<svg xmlns:ffdec="https://www.free-decompiler.com/flash" xmlns:xlink="http://www.w3.org/1999/xlink" ffdec:objectType="shape" height="139.6px" width="68.45px" xmlns="http://www.w3.org/2000/svg">
  <g transform="matrix(1.0, 0.0, 0.0, 1.0, 29.8, 135.6)">
    <path d="M26.45 -9.95 L26.3 -11.65 29.2 -12.5 29.3 -11.1 26.45 -9.95 M2.05 -8.15 L2.05 -9.9 5.35 -9.85 5.35 -7.55 2.05 -8.15 M-5.85 2.15 L-12.45 1.65 -12.55 -0.1 -12.3 -0.2 -11.45 -0.3 Q-7.3 -0.3 -6.85 0.9 L-5.85 2.15" fill="#ffffff" fill-rule="evenodd" stroke="none"/>
    <path d="M27.35 -0.4 L26.45 -9.95 29.3 -11.1 30.15 -1.25 27.35 -0.4 M2.05 -2.85 L2.05 -8.15 5.35 -7.55 5.45 1.8 2.15 1.5 Q2.3 -1.75 2.05 -2.85 M15.05 -1.5 L14.5 -1.9 13.25 -2.1 12.0 -1.9 11.55 -1.5 12.0 -1.1 13.25 -0.95 14.5 -1.1 15.05 -1.5 M17.65 -2.45 L17.7 -1.5 20.95 -1.5 20.9 -2.45 17.65 -2.45 M10.3 2.5 L10.3 2.25 Q9.55 -0.45 9.5 -3.6 9.5 -4.85 12.1 -5.55 L17.6 -6.1 Q20.2 -6.1 20.9 -3.85 L21.35 1.5 21.4 2.0 10.3 2.5 M25.9 1.6 L24.6 1.75 25.05 0.3 Q25.35 0.4 25.85 1.3 L25.9 1.6 M-0.7 2.4 L-5.85 2.15 -6.85 0.9 Q-7.3 -0.3 -11.45 -0.3 L-12.3 -0.2 -12.55 -0.1 -12.45 1.65 -18.8 0.85 Q-18.65 -0.5 -17.4 -4.05 -16.1 -7.95 -15.7 -7.95 L-8.95 -7.05 Q-2.05 -5.5 -1.0 -2.1 L-2.4 -2.05 -3.05 -1.6 -2.45 -1.5 -1.0 -1.15 Q-1.05 0.75 -0.7 2.4 M-11.85 -3.5 L-15.1 -3.5 -15.2 -2.15 -11.9 -2.15 -11.85 -3.5 M-7.35 -2.7 L-8.6 -2.5 Q-9.15 -2.3 -9.15 -2.1 L-8.6 -1.65 -7.4 -1.45 -6.1 -1.65 Q-5.55 -1.85 -5.55 -2.1 -5.55 -2.3 -6.1 -2.5 L-7.35 -2.7" fill="#e0e0e0" fill-rule="evenodd" stroke="none"/>
    <path d="M6.5 2.3 L7.6 2.3 8.05 0.45 Q8.45 -1.0 8.85 -1.35 8.4 -1.5 8.25 -1.6 7.9 -1.85 7.9 -2.75 7.85 -5.15 8.25 -6.0 8.7 -6.95 10.2 -7.3 L18.55 -8.6 22.75 -9.15 22.8 -8.6 23.5 1.3 23.5 1.85 21.4 2.0 21.35 1.5 20.9 -3.85 Q20.2 -6.1 17.6 -6.1 L12.1 -5.55 Q9.5 -4.85 9.5 -3.6 9.55 -0.45 10.3 2.25 L10.3 2.5 6.65 2.5 2.1 2.45 2.15 1.5 5.45 1.8 6.05 2.3 6.5 2.3 M24.05 -1.9 L25.9 -2.4 26.15 0.2 26.8 0.4 Q27.35 0.15 27.35 -0.4 L30.15 -1.25 30.3 -0.95 30.4 1.1 25.9 1.6 25.85 1.3 Q25.35 0.4 25.05 0.3 L24.6 1.75 24.35 1.75 24.05 -1.9 M31.4 0.95 L31.8 -0.7 32.3 -3.85 32.85 -0.3 32.95 0.75 31.4 0.95 M0.3 2.4 L-0.7 2.4 Q-1.05 0.75 -1.0 -1.15 L0.05 -1.1 0.3 2.4 M-18.8 0.85 L-24.65 -0.1 -24.3 -4.15 Q-23.95 -5.05 -22.65 -5.5 L-23.4 -5.75 Q-23.9 -5.95 -23.9 -6.6 L-23.4 -10.5 -23.35 -10.85 -13.4 -9.35 -0.5 -8.7 -0.5 -5.35 -0.35 -2.05 -1.0 -2.1 Q-2.05 -5.5 -8.95 -7.05 L-15.7 -7.95 Q-16.1 -7.95 -17.4 -4.05 -18.65 -0.5 -18.8 0.85 M-20.1 -5.25 L-20.45 -4.15 -18.3 -3.3 Q-18.0 -3.4 -17.75 -3.6 -17.75 -4.0 -20.1 -5.25" fill="#b4b4b4" fill-rule="evenodd" stroke="none"/>
    <path d="M6.5 2.3 L6.5 2.15 6.6 2.15 6.6 -8.6 6.6 -9.8 25.0 -11.4 25.9 -3.15 25.9 -2.4 24.05 -1.9 23.5 1.3 22.8 -8.6 22.75 -9.15 18.55 -8.6 10.2 -7.3 Q8.7 -6.95 8.25 -6.0 7.85 -5.15 7.9 -2.75 7.9 -1.85 8.25 -1.6 8.4 -1.5 8.85 -1.35 8.45 -1.0 8.05 0.45 L7.6 2.3 6.5 2.3 M30.3 -0.95 Q30.5 -0.75 30.8 -0.7 32.0 -1.55 31.75 -2.7 31.25 -3.95 31.2 -4.65 L31.15 -4.65 30.45 -12.85 33.05 -13.5 Q34.35 -11.5 34.8 -9.4 L35.6 -5.4 36.2 0.2 32.95 0.75 32.85 -0.3 32.3 -3.85 31.8 -0.7 31.4 0.95 30.4 1.1 30.3 -0.95 M-27.2 -0.65 L-27.25 -2.85 -26.95 -7.75 Q-26.65 -12.2 -25.55 -14.1 L-23.15 -12.95 -20.2 -11.85 0.8 -10.4 Q0.65 -10.4 0.8 -4.15 0.95 2.1 1.35 2.25 L2.05 -2.85 Q2.3 -1.75 2.15 1.5 L2.1 2.45 0.3 2.4 0.05 -1.1 -1.0 -1.15 -2.45 -1.5 -3.05 -1.6 -2.4 -2.05 -1.0 -2.1 -0.35 -2.05 -0.5 -5.35 -0.5 -8.7 -13.4 -9.35 -23.35 -10.85 -23.4 -10.5 -23.9 -6.6 Q-23.9 -5.95 -23.4 -5.75 L-22.65 -5.5 Q-23.95 -5.05 -24.3 -4.15 L-24.65 -0.1 -27.2 -0.65 M15.05 -1.5 L14.5 -1.1 13.25 -0.95 12.0 -1.1 11.55 -1.5 12.0 -1.9 13.25 -2.1 14.5 -1.9 15.05 -1.5 M17.65 -2.45 L20.9 -2.45 20.95 -1.5 17.7 -1.5 17.65 -2.45 M-20.1 -5.25 Q-17.75 -4.0 -17.75 -3.6 -18.0 -3.4 -18.3 -3.3 L-20.45 -4.15 -20.1 -5.25 M-11.85 -3.5 L-11.9 -2.15 -15.2 -2.15 -15.1 -3.5 -11.85 -3.5 M-7.35 -2.7 L-6.1 -2.5 Q-5.55 -2.3 -5.55 -2.1 -5.55 -1.85 -6.1 -1.65 L-7.4 -1.45 -8.6 -1.65 -9.15 -2.1 Q-9.15 -2.3 -8.6 -2.5 L-7.35 -2.7" fill="#8a8a8a" fill-rule="evenodd" stroke="none"/>
    <path d="M25.9 -2.4 L25.9 -3.15 25.0 -11.4 6.6 -9.8 6.6 -8.6 6.6 2.15 6.5 2.15 6.5 2.3 6.05 2.3 5.45 1.8 5.35 -7.55 5.35 -9.85 2.05 -9.9 2.05 -8.15 2.05 -2.85 1.35 2.25 Q0.95 2.1 0.8 -4.15 0.65 -10.4 0.8 -10.4 L-20.2 -11.85 -23.15 -12.95 -25.55 -14.1 Q-26.65 -12.2 -26.95 -7.75 L-27.25 -2.85 -27.2 -0.65 -28.5 -0.9 -28.5 -2.4 -27.95 -9.35 -27.8 -10.6 -27.8 -10.65 -27.6 -12.1 -26.8 -17.35 -26.35 -17.35 -24.7 -15.8 Q-23.85 -15.05 -23.1 -15.05 -20.75 -14.15 -16.25 -13.2 -7.15 -11.35 7.1 -11.3 L15.65 -11.65 Q21.35 -12.15 29.0 -13.8 L31.6 -14.4 Q32.85 -14.9 33.8 -15.9 L33.95 -16.1 34.4 -16.1 34.45 -15.8 34.4 -15.85 34.8 -14.25 Q36.4 -9.25 37.5 0.0 L36.2 0.2 35.6 -5.4 34.8 -9.4 Q34.35 -11.5 33.05 -13.5 L30.45 -12.85 31.15 -4.65 31.2 -4.65 Q31.25 -3.95 31.75 -2.7 32.0 -1.55 30.8 -0.7 30.5 -0.75 30.3 -0.95 L30.15 -1.25 29.3 -11.1 29.2 -12.5 26.3 -11.65 26.45 -9.95 27.35 -0.4 Q27.35 0.15 26.8 0.4 L26.15 0.2 25.9 -2.4 M23.5 1.3 L24.05 -1.9 24.35 1.75 23.5 1.85 23.5 1.3" fill="#464646" fill-rule="evenodd" stroke="none"/>
    <path d="M26.15 -30.95 L26.15 -31.05 Q26.15 -31.85 25.6 -32.4 25.05 -32.95 24.25 -32.95 23.45 -32.95 22.9 -32.4 22.35 -31.85 22.35 -31.05 L22.35 -30.95 Q22.4 -30.2 22.9 -29.7 23.45 -29.15 24.25 -29.15 25.05 -29.15 25.6 -29.7 26.1 -30.2 26.15 -30.95 M22.15 -33.0 L22.2 -33.1 Q23.05 -33.95 24.25 -33.95 25.45 -33.95 26.3 -33.1 27.15 -32.25 27.15 -31.05 L27.15 -30.95 Q27.1 -29.8 26.3 -29.0 25.45 -28.15 24.25 -28.15 L23.9 -28.15 Q22.9 -28.3 22.2 -29.0 21.55 -29.65 21.4 -30.5 L21.35 -30.95 21.35 -31.05 21.5 -31.9 22.15 -33.0 M26.6 -15.4 Q25.6 -15.5 24.85 -16.25 24.05 -17.05 24.0 -18.2 L24.0 -18.3 Q24.0 -19.5 24.85 -20.35 25.7 -21.2 26.9 -21.2 28.1 -21.2 28.95 -20.35 29.8 -19.5 29.8 -18.3 L29.8 -18.2 Q29.75 -17.25 29.25 -16.55 L28.95 -16.25 Q28.1 -15.4 26.9 -15.4 L26.6 -15.4 M28.8 -18.2 L28.8 -18.3 28.8 -18.5 28.25 -19.65 Q27.7 -20.2 26.9 -20.2 26.1 -20.2 25.55 -19.65 25.0 -19.1 25.0 -18.3 L25.0 -18.2 Q25.05 -17.45 25.55 -16.95 26.1 -16.4 26.9 -16.4 L27.35 -16.45 Q27.85 -16.55 28.25 -16.95 28.75 -17.45 28.8 -18.2" fill="#454545" fill-rule="evenodd" stroke="none"/>
    <path d="M22.35 -30.95 L22.35 -31.05 Q22.35 -31.85 22.9 -32.4 23.45 -32.95 24.25 -32.95 25.05 -32.95 25.6 -32.4 26.15 -31.85 26.15 -31.05 L26.15 -30.95 22.35 -30.95 M25.0 -18.2 L25.0 -18.3 Q25.0 -19.1 25.55 -19.65 26.1 -20.2 26.9 -20.2 27.7 -20.2 28.25 -19.65 L28.8 -18.5 28.8 -18.3 28.8 -18.2 25.0 -18.2" fill="#d4d4d4" fill-rule="evenodd" stroke="none"/>
    <path d="M26.15 -30.95 Q26.1 -30.2 25.6 -29.7 25.05 -29.15 24.25 -29.15 23.45 -29.15 22.9 -29.7 22.4 -30.2 22.35 -30.95 L26.15 -30.95 M28.8 -18.2 Q28.75 -17.45 28.25 -16.95 27.85 -16.55 27.35 -16.45 L26.9 -16.4 Q26.1 -16.4 25.55 -16.95 25.05 -17.45 25.0 -18.2 L28.8 -18.2" fill="#aaaaaa" fill-rule="evenodd" stroke="none"/>
    <path d="M-7.2 -103.4 L-6.2 -105.9 -3.75 -108.85 Q-0.1 -112.6 2.95 -112.9 L1.9 -106.9 Q-2.1 -103.1 -6.85 -102.3 L-7.0 -102.7 -7.2 -103.4 M-0.35 -118.35 L1.6 -121.85 1.75 -121.0 Q1.75 -119.9 0.95 -119.1 L-0.35 -118.35 M0.6 -89.1 Q0.6 -85.2 0.85 -81.25 -2.35 -77.35 -5.45 -75.95 L-6.55 -76.25 -6.8 -78.35 Q-6.8 -82.15 -1.9 -86.75 L0.6 -89.1 M1.65 -73.35 Q3.25 -61.3 7.3 -49.05 5.7 -47.4 3.95 -47.35 L3.15 -47.7 Q2.6 -47.75 2.6 -48.75 L4.75 -53.25 5.3 -54.75 Q-1.55 -48.0 -4.05 -48.0 -5.95 -48.0 -6.95 -49.0 -7.7 -49.75 -7.7 -50.7 -7.7 -51.55 -7.15 -52.0 -4.2 -54.55 -0.05 -58.85 L-5.3 -58.25 Q-7.9 -58.25 -7.9 -60.5 -7.9 -66.6 -1.4 -71.3 L-1.25 -71.4 0.7 -72.7 1.65 -73.35 M6.15 -38.55 L5.6 -37.85 Q1.4 -32.85 -2.2 -31.8 -0.2 -30.9 9.0 -28.7 13.25 -27.7 14.65 -26.25 L14.6 -26.25 15.25 -25.05 15.3 -24.7 Q15.3 -21.65 12.3 -21.65 7.2 -21.65 -0.65 -25.1 -1.95 -25.7 -2.95 -26.25 -8.65 -28.75 -8.55 -30.65 -8.5 -34.1 -2.7 -38.55 L-2.4 -38.8 Q3.05 -43.2 5.25 -43.2 9.5 -43.2 6.2 -38.55 L6.15 -38.55 M10.35 -15.05 Q10.35 -14.2 9.95 -13.45 L6.9 -13.45 3.2 -12.95 0.0 -13.45 -8.3 -13.45 -7.45 -13.8 3.95 -15.45 7.75 -16.4 Q8.3 -16.75 10.15 -15.8 L10.25 -15.95 10.35 -15.05 M2.15 -8.95 L2.15 -9.75 4.85 -9.7 5.45 -9.7 5.45 -8.95 5.45 -7.35 2.15 -7.95 2.15 -8.95 M29.3 -12.05 L29.4 -10.95 26.45 -9.8 26.4 -10.45 26.4 -10.5 26.3 -11.55 26.55 -11.6 27.0 -11.7 29.25 -12.4 29.3 -12.1 29.3 -12.05" fill="#ffffff" fill-rule="evenodd" stroke="none"/>
    <path d="M29.9 -3.5 L30.05 -0.95 27.25 -0.1 27.05 -2.95 26.45 -9.8 29.4 -10.95 29.9 -3.5 M21.05 -2.0 L20.3 -1.95 9.55 -1.25 9.55 -3.2 8.55 -6.3 Q7.6 -8.65 6.4 -8.8 L6.3 -8.95 6.05 -8.95 6.05 -9.7 4.85 -9.7 2.15 -9.75 2.15 -8.95 1.5 -8.95 Q1.25 -8.4 1.15 -7.5 L1.15 -7.4 0.55 -6.6 -0.05 -4.9 -0.7 -3.25 -1.2 -1.45 -1.0 -1.4 -17.55 -3.2 -17.85 -3.25 -17.8 -3.3 Q-17.9 -4.8 -17.1 -7.05 L-15.55 -9.7 -14.65 -11.1 -13.95 -11.8 -13.9 -12.0 Q-12.95 -13.4 -10.8 -14.85 -8.5 -16.5 -6.4 -16.95 L0.5 -18.2 Q5.0 -19.1 8.15 -20.5 7.4 -20.65 7.15 -20.85 L7.0 -21.0 -8.05 -23.05 Q-11.9 -23.5 -11.9 -24.35 L-11.8 -26.25 Q-11.55 -32.55 -10.8 -34.1 -10.35 -35.2 -6.5 -38.0 L-5.85 -38.55 -5.8 -38.55 Q-1.95 -41.7 0.35 -44.8 L-8.75 -43.4 Q-10.1 -43.4 -10.7 -44.0 -11.3 -44.55 -11.3 -46.0 L-11.3 -46.55 Q-10.95 -62.3 -10.55 -66.4 -10.5 -66.75 -7.45 -69.4 L-3.75 -72.6 Q-7.45 -72.35 -8.45 -73.85 -8.95 -74.65 -8.95 -77.55 -8.95 -85.0 -7.7 -88.5 -6.3 -92.5 -1.3 -98.35 L-2.7 -98.25 -3.15 -98.25 -3.5 -98.25 -3.6 -98.25 -3.9 -98.25 -8.9 -98.45 -7.2 -103.4 -7.0 -102.7 -6.85 -102.3 Q-2.1 -103.1 1.9 -106.9 0.55 -98.05 0.6 -89.1 L-1.9 -86.75 Q-6.8 -82.15 -6.8 -78.35 L-6.55 -76.25 -5.45 -75.95 Q-2.35 -77.35 0.85 -81.25 1.1 -77.35 1.65 -73.4 L1.65 -73.35 0.7 -72.7 -1.25 -71.4 -1.4 -71.3 Q-7.9 -66.6 -7.9 -60.5 -7.9 -58.25 -5.3 -58.25 L-0.05 -58.85 Q-4.2 -54.55 -7.15 -52.0 -7.7 -51.55 -7.7 -50.7 -7.7 -49.75 -6.95 -49.0 -5.95 -48.0 -4.05 -48.0 -1.55 -48.0 5.3 -54.75 L4.75 -53.25 2.6 -48.75 Q2.6 -47.75 3.15 -47.7 L3.95 -47.35 Q5.7 -47.4 7.3 -49.05 8.5 -45.3 10.0 -41.5 L8.95 -40.35 10.6 -38.55 10.55 -38.55 10.85 -38.3 11.45 -37.9 11.45 -37.85 Q12.25 -35.85 13.2 -33.8 L13.5 -33.45 13.95 -33.35 16.4 -33.6 16.45 -33.6 16.2 -33.35 16.1 -33.25 12.95 -30.3 14.1 -30.0 Q16.2 -29.05 18.8 -28.3 19.7 -27.9 20.1 -26.9 L20.25 -26.35 20.25 -26.2 20.3 -25.9 20.4 -25.4 Q20.5 -22.45 17.95 -18.85 L15.05 -15.0 13.75 -13.45 17.45 -10.7 Q19.55 -8.95 21.05 -2.05 L21.05 -2.0 M5.5 -1.15 L5.5 2.1 2.25 1.8 2.3 -0.5 2.25 -1.25 2.1 -2.55 2.15 -7.95 5.45 -7.35 5.5 -1.15 M-6.2 -105.9 L-3.3 -112.55 Q-0.5 -113.45 3.45 -115.3 L2.95 -112.9 Q-0.1 -112.6 -3.75 -108.85 L-6.2 -105.9 M-1.55 -116.05 L-0.35 -118.35 0.95 -119.1 Q1.75 -119.9 1.75 -121.0 L1.6 -121.85 3.95 -125.65 4.3 -124.55 4.85 -120.9 3.9 -117.3 Q3.1 -116.85 1.75 -116.55 L-1.55 -116.05 M10.35 -15.05 L10.25 -15.95 10.15 -15.8 Q8.3 -16.75 7.75 -16.4 L3.95 -15.45 -7.45 -13.8 -8.3 -13.45 0.0 -13.45 3.2 -12.95 6.9 -13.45 9.95 -13.45 Q10.35 -14.2 10.35 -15.05 M6.15 -38.55 L6.2 -38.55 Q9.5 -43.2 5.25 -43.2 3.05 -43.2 -2.4 -38.8 L-2.7 -38.55 Q-8.5 -34.1 -8.55 -30.65 -8.65 -28.75 -2.95 -26.25 -1.95 -25.7 -0.65 -25.1 7.2 -21.65 12.3 -21.65 15.3 -21.65 15.3 -24.7 L15.25 -25.05 14.6 -26.25 14.65 -26.25 Q13.25 -27.7 9.0 -28.7 -0.2 -30.9 -2.2 -31.8 1.4 -32.85 5.6 -37.85 L6.15 -38.55" fill="#e0e0e0" fill-rule="evenodd" stroke="none"/>
    <path d="M33.1 -4.1 L32.8 -4.05 31.5 -3.7 31.85 -3.8 31.25 -3.8 31.45 -3.85 31.45 -4.45 Q31.2 -5.2 30.65 -8.6 L30.45 -9.75 Q30.05 -11.2 29.35 -12.05 L29.3 -12.05 29.3 -12.1 29.25 -12.4 27.0 -11.7 26.55 -11.6 Q25.85 -12.25 25.65 -10.45 L25.6 -8.15 Q25.45 -5.85 25.7 -4.8 L25.85 -3.0 25.9 -2.75 26.45 -2.85 26.5 -2.75 21.05 -2.0 21.05 -2.05 Q19.55 -8.95 17.45 -10.7 L13.75 -13.45 15.05 -15.0 17.95 -18.85 Q20.5 -22.45 20.4 -25.4 L20.3 -25.9 20.25 -26.2 20.3 -26.15 20.35 -26.05 Q20.65 -25.35 21.05 -25.3 21.35 -25.35 21.6 -26.05 L21.6 -26.1 21.65 -26.25 21.7 -26.25 21.85 -27.65 21.5 -29.2 20.9 -29.85 Q20.5 -29.85 20.25 -29.2 20.0 -28.6 20.0 -27.65 L20.1 -26.9 Q19.7 -27.9 18.8 -28.3 16.2 -29.05 14.1 -30.0 L12.95 -30.3 16.1 -33.25 16.2 -33.35 16.45 -33.6 19.2 -34.0 Q19.2 -33.5 19.35 -33.05 L19.35 -33.0 19.4 -32.85 Q19.7 -32.25 20.1 -32.25 L20.7 -32.85 20.95 -34.3 21.3 -34.35 22.8 -34.65 22.5 -33.85 22.15 -33.0 21.5 -31.9 20.85 -31.1 21.4 -30.5 Q21.55 -29.65 22.2 -29.0 22.9 -28.3 23.9 -28.15 L24.4 -27.75 Q24.8 -27.35 25.0 -26.25 L24.95 -26.25 25.05 -25.4 25.1 -25.0 Q25.3 -22.55 23.6 -20.55 L22.75 -19.6 22.65 -20.55 22.3 -22.2 21.0 -21.55 Q21.0 -19.25 21.25 -18.05 L18.6 -15.4 18.25 -15.05 18.3 -12.15 Q18.55 -11.4 19.55 -10.75 20.3 -10.25 23.55 -12.75 L26.6 -15.4 26.9 -15.4 Q28.1 -15.4 28.95 -16.25 L29.25 -16.55 29.6 -14.7 29.75 -13.85 Q30.75 -13.15 31.05 -11.65 L31.7 -8.7 32.8 -5.6 33.3 -4.15 33.1 -4.1 M9.55 -1.25 L8.8 -1.2 8.7 -1.2 7.9 -1.2 8.7 -1.25 8.7 -1.35 8.05 -3.3 7.55 -5.2 7.35 -7.05 7.35 -7.15 Q7.25 -8.0 6.55 -8.4 L6.55 -8.55 6.4 -8.8 Q7.6 -8.65 8.55 -6.3 L9.55 -3.2 9.55 -1.25 M0.1 -1.35 L-0.55 -1.4 -1.0 -1.4 -1.2 -1.45 -0.7 -3.25 -0.05 -4.9 0.55 -6.6 1.15 -7.4 1.1 -7.35 0.65 -5.6 0.5 -4.8 0.1 -1.5 0.1 -1.35 M-17.85 -3.25 L-18.45 -3.35 -24.3 -4.6 Q-24.05 -5.4 -23.95 -6.75 -23.85 -9.45 -23.15 -11.9 L-22.55 -13.3 -22.75 -13.45 -22.7 -14.1 Q-22.65 -15.0 -22.25 -15.7 -20.75 -18.55 -14.1 -18.25 L-14.9 -19.35 -16.7 -21.9 Q-17.25 -22.9 -17.1 -24.9 L-17.0 -26.25 -16.95 -26.85 -11.05 -38.55 -11.15 -38.55 Q-12.85 -38.6 -14.05 -40.1 -15.3 -41.65 -15.3 -43.8 L-15.25 -46.55 Q-15.1 -56.35 -13.4 -61.7 -11.55 -67.65 -11.55 -70.9 -11.55 -72.1 -12.7 -73.9 -13.95 -75.85 -14.15 -78.4 L-14.4 -86.25 -14.45 -92.4 Q-14.45 -94.3 -13.35 -94.65 L-13.3 -94.65 -12.9 -89.4 -12.65 -88.95 -12.2 -88.75 -11.7 -88.9 -11.4 -89.3 -10.05 -94.65 -9.9 -94.65 -8.45 -94.5 -8.35 -94.5 -7.05 -95.0 -9.45 -96.65 -8.9 -98.45 -3.9 -98.25 -3.6 -98.25 -3.5 -98.25 -3.15 -98.25 -2.7 -98.25 -1.3 -98.35 Q-6.3 -92.5 -7.7 -88.5 -8.95 -85.0 -8.95 -77.55 -8.95 -74.65 -8.45 -73.85 -7.45 -72.35 -3.75 -72.6 L-7.45 -69.4 Q-10.5 -66.75 -10.55 -66.4 -10.95 -62.3 -11.3 -46.55 L-11.3 -46.0 Q-11.3 -44.55 -10.7 -44.0 -10.1 -43.4 -8.75 -43.4 L0.35 -44.8 Q-1.95 -41.7 -5.8 -38.55 L-5.85 -38.55 -6.5 -38.0 Q-10.35 -35.2 -10.8 -34.1 -11.55 -32.55 -11.8 -26.25 L-11.9 -24.35 Q-11.9 -23.5 -8.05 -23.05 L7.0 -21.0 7.15 -20.85 Q7.4 -20.65 8.15 -20.5 5.0 -19.1 0.5 -18.2 L-6.4 -16.95 Q-8.5 -16.5 -10.8 -14.85 -12.95 -13.4 -13.9 -12.0 L-13.95 -11.8 -14.65 -11.1 -15.55 -9.7 -17.1 -7.05 Q-17.9 -4.8 -17.8 -3.3 L-17.85 -3.25 M-3.3 -112.55 L-1.55 -116.05 1.75 -116.55 Q3.1 -116.85 3.9 -117.3 L3.45 -115.3 Q-0.5 -113.45 -3.3 -112.55 M3.95 -125.65 L5.65 -128.25 6.55 -126.55 4.85 -120.9 4.3 -124.55 3.95 -125.65 M10.0 -41.5 L11.45 -37.9 10.85 -38.3 10.55 -38.55 10.6 -38.55 8.95 -40.35 10.0 -41.5" fill="#b4b4b4" fill-rule="evenodd" stroke="none"/>
    <path d="M36.7 3.05 L36.0 1.65 35.3 -0.4 33.1 -4.1 33.3 -4.15 32.8 -5.6 31.7 -8.7 31.05 -11.65 Q30.75 -13.15 29.75 -13.85 L29.6 -14.7 29.25 -16.55 Q29.75 -17.25 29.8 -18.2 L29.8 -18.3 Q29.8 -19.5 28.95 -20.35 28.1 -21.2 26.9 -21.2 25.7 -21.2 24.85 -20.35 24.0 -19.5 24.0 -18.3 L24.0 -18.2 Q24.05 -17.05 24.85 -16.25 25.6 -15.5 26.6 -15.4 L23.55 -12.75 Q20.3 -10.25 19.55 -10.75 18.55 -11.4 18.3 -12.15 L18.25 -15.05 18.6 -15.4 21.25 -18.05 Q21.0 -19.25 21.0 -21.55 L22.3 -22.2 22.65 -20.55 22.75 -19.6 23.6 -20.55 Q25.3 -22.55 25.1 -25.0 L25.05 -25.4 24.95 -26.25 25.0 -26.25 Q24.8 -27.35 24.4 -27.75 L23.9 -28.15 24.25 -28.15 Q25.45 -28.15 26.3 -29.0 27.1 -29.8 27.15 -30.95 L27.15 -31.05 Q27.15 -32.25 26.3 -33.1 25.45 -33.95 24.25 -33.95 23.05 -33.95 22.2 -33.1 L22.15 -33.0 22.5 -33.85 22.8 -34.65 Q25.05 -35.15 27.35 -36.0 L28.65 -36.55 Q28.6 -34.9 32.2 -23.05 L35.85 -11.25 36.45 -8.4 36.8 -7.0 Q36.95 -5.95 37.3 -5.35 L38.2 -5.5 37.5 -5.35 36.7 2.6 36.7 3.05 M8.7 -1.2 L8.4 -1.15 7.8 -1.15 7.75 -1.15 7.15 -1.15 7.1 -1.15 6.55 -1.15 6.55 -8.4 Q7.25 -8.0 7.35 -7.15 L7.35 -7.05 7.55 -5.2 8.05 -3.3 8.7 -1.35 8.7 -1.25 7.9 -1.2 8.7 -1.2 M1.2 -1.3 L0.1 -1.35 0.1 -1.5 0.5 -4.8 0.65 -5.6 1.1 -7.35 1.1 -7.25 Q0.95 -6.3 0.95 -4.0 L0.95 -3.65 Q0.95 -1.95 1.2 -1.3 M-24.3 -4.6 L-24.85 -4.25 -25.5 -3.1 Q-26.35 -1.5 -26.45 -0.5 L-26.9 3.7 -27.0 3.75 -27.0 3.7 -27.0 3.25 -27.05 2.75 -27.2 2.05 -27.6 0.7 Q-27.95 -0.15 -28.0 -1.95 L-27.85 -7.6 -26.1 -15.5 -24.1 -24.2 -23.6 -26.25 -23.55 -26.25 Q-23.05 -28.7 -22.7 -31.25 L-22.0 -35.55 -21.85 -36.3 -21.85 -36.4 -21.4 -38.55 -20.3 -47.65 -19.2 -58.3 -19.05 -60.0 -18.85 -62.55 -18.85 -63.15 -18.55 -66.25 -18.5 -67.4 -18.2 -82.9 -18.1 -89.35 -18.05 -90.65 Q-17.6 -106.9 -11.9 -120.9 L-10.7 -123.7 -9.65 -126.0 -7.85 -130.0 -7.75 -130.2 -7.55 -130.55 -7.5 -130.7 -6.65 -132.15 -5.85 -133.05 Q-14.05 -113.4 -13.3 -94.65 L-13.35 -94.65 Q-14.45 -94.3 -14.45 -92.4 L-14.4 -86.25 -14.15 -78.4 Q-13.95 -75.85 -12.7 -73.9 -11.55 -72.1 -11.55 -70.9 -11.55 -67.65 -13.4 -61.7 -15.1 -56.35 -15.25 -46.55 L-15.3 -43.8 Q-15.3 -41.65 -14.05 -40.1 -12.85 -38.6 -11.15 -38.55 L-11.05 -38.55 -16.95 -26.85 -17.0 -26.25 -17.1 -24.9 Q-17.25 -22.9 -16.7 -21.9 L-14.9 -19.35 -14.1 -18.25 Q-20.75 -18.55 -22.25 -15.7 -22.65 -15.0 -22.7 -14.1 L-22.75 -13.45 -22.55 -13.3 -23.15 -11.9 Q-23.85 -9.45 -23.95 -6.75 -24.05 -5.4 -24.3 -4.6 M-10.05 -94.65 L-9.45 -96.65 -7.05 -95.0 -8.35 -94.5 -8.45 -94.5 -9.9 -94.65 -10.05 -94.65 M5.65 -128.25 L7.35 -130.75 7.45 -130.6 7.75 -130.15 7.75 -130.1 6.55 -126.55 5.65 -128.25 M19.2 -34.0 L20.95 -34.3 20.7 -32.85 20.1 -32.25 Q19.7 -32.25 19.4 -32.85 L19.35 -33.0 19.35 -33.05 Q19.2 -33.5 19.2 -34.0 M21.5 -31.9 L21.35 -31.05 21.35 -30.95 21.4 -30.5 20.85 -31.1 21.5 -31.9 M20.1 -26.9 L20.0 -27.65 Q20.0 -28.6 20.25 -29.2 20.5 -29.85 20.9 -29.85 L21.5 -29.2 21.85 -27.65 21.7 -26.25 21.65 -26.25 21.6 -26.1 21.6 -26.05 Q21.35 -25.35 21.05 -25.3 20.65 -25.35 20.35 -26.05 L20.3 -26.15 20.25 -26.2 20.25 -26.35 20.1 -26.9" fill="#8a8a8a" fill-rule="evenodd" stroke="none"/>
    <path d="M-27.0 3.75 L-27.45 4.0 Q-28.45 4.0 -29.2 -0.6 L-29.7 -5.25 -29.8 -6.0 -29.8 -6.05 -29.8 -6.25 -29.55 -7.55 -25.0 -26.25 -23.8 -33.05 -22.95 -38.55 -22.9 -38.55 -22.75 -39.85 -22.6 -40.95 -22.55 -41.35 -21.85 -47.8 -21.55 -50.6 -21.35 -52.3 -21.15 -54.25 -20.55 -60.55 -20.55 -60.95 -20.4 -62.65 -20.35 -63.35 -20.05 -66.3 -19.85 -75.1 -19.7 -82.95 -19.6 -89.35 Q-19.35 -108.35 -12.05 -124.3 L-8.6 -131.35 Q-7.15 -134.3 -5.0 -135.6 L-3.15 -135.6 -3.55 -134.6 -3.75 -134.25 -7.0 -125.8 Q-8.7 -120.85 -9.8 -115.95 L-10.6 -111.95 Q-11.8 -105.1 -11.85 -98.4 L-11.75 -94.75 -11.75 -94.05 -11.55 -94.75 -10.75 -97.55 -9.95 -100.0 Q-7.9 -106.1 -5.2 -111.95 L-3.25 -116.0 -2.0 -118.45 -0.65 -120.95 0.45 -122.8 Q2.95 -127.05 5.8 -131.15 L6.45 -132.05 6.55 -132.2 7.55 -133.2 8.4 -132.2 8.45 -132.05 8.5 -132.2 9.0 -131.25 9.05 -129.3 8.75 -128.45 7.3 -124.0 Q6.05 -120.0 5.15 -115.95 L4.45 -112.9 3.7 -108.85 Q2.75 -103.3 2.4 -97.7 L2.2 -95.0 2.1 -90.55 Q2.05 -86.85 2.25 -83.05 2.5 -78.75 3.05 -74.35 L3.65 -70.15 3.65 -70.1 Q5.2 -60.35 8.4 -50.5 L11.05 -42.9 Q12.2 -39.75 13.6 -36.5 L14.3 -34.9 16.3 -35.1 19.25 -35.5 20.7 -35.75 21.0 -35.8 22.9 -36.2 Q25.6 -36.85 26.9 -37.5 28.05 -38.1 28.1 -38.7 L27.95 -39.05 Q27.75 -39.3 27.8 -39.6 L27.9 -39.8 28.1 -40.1 28.65 -40.25 29.15 -39.95 29.6 -38.7 Q31.25 -32.4 36.95 -13.45 L37.15 -12.8 37.15 -12.75 37.4 -11.5 38.25 -7.4 38.4 -6.5 38.65 -5.95 38.65 -4.05 38.6 -1.3 38.4 -0.15 38.25 1.0 37.35 3.85 37.05 3.9 36.7 3.85 36.7 3.05 36.7 2.6 37.5 -5.35 38.2 -5.5 37.3 -5.35 Q36.95 -5.95 36.8 -7.0 L36.45 -8.4 35.85 -11.25 32.2 -23.05 Q28.6 -34.9 28.65 -36.55 L27.35 -36.0 Q25.05 -35.15 22.8 -34.65 L21.3 -34.35 20.95 -34.3 19.2 -34.0 16.45 -33.6 16.4 -33.6 13.95 -33.35 13.5 -33.45 13.2 -33.8 Q12.25 -35.85 11.45 -37.85 L11.45 -37.9 10.0 -41.5 Q8.5 -45.3 7.3 -49.05 3.25 -61.3 1.65 -73.35 L1.65 -73.4 Q1.1 -77.35 0.85 -81.25 0.6 -85.2 0.6 -89.1 0.55 -98.05 1.9 -106.9 L2.95 -112.9 3.45 -115.3 3.9 -117.3 4.85 -120.9 6.55 -126.55 7.75 -130.1 7.75 -130.15 7.45 -130.6 7.35 -130.75 5.65 -128.25 3.95 -125.65 1.6 -121.85 -0.35 -118.35 -1.55 -116.05 -3.3 -112.55 -6.2 -105.9 -7.2 -103.4 -8.9 -98.45 -9.45 -96.65 -10.05 -94.65 -11.4 -89.3 -11.7 -88.9 -12.2 -88.75 -12.65 -88.95 -12.9 -89.4 -13.3 -94.65 Q-14.05 -113.4 -5.85 -133.05 L-6.65 -132.15 -7.5 -130.7 -7.55 -130.55 -7.75 -130.2 -7.85 -130.0 -9.65 -126.0 -10.7 -123.7 -11.9 -120.9 Q-17.6 -106.9 -18.05 -90.65 L-18.1 -89.35 -18.2 -82.9 -18.5 -67.4 -18.55 -66.25 -18.85 -63.15 -18.85 -62.55 -19.05 -60.0 -19.2 -58.3 -20.3 -47.65 -21.4 -38.55 -21.85 -36.4 -21.85 -36.3 -22.0 -35.55 -22.7 -31.25 Q-23.05 -28.7 -23.55 -26.25 L-23.6 -26.25 -24.1 -24.2 -26.1 -15.5 -27.85 -7.6 -28.0 -1.95 Q-27.95 -0.15 -27.6 0.7 L-27.2 2.05 -27.05 2.75 -27.0 3.25 -27.0 3.7 -27.0 3.75 M31.25 -3.8 L30.9 -3.7 30.35 -3.6 29.9 -3.5 29.4 -10.95 29.3 -12.05 29.35 -12.05 Q30.05 -11.2 30.45 -9.75 L30.65 -8.6 Q31.2 -5.2 31.45 -4.45 L31.45 -3.85 31.25 -3.8 M27.05 -2.95 L26.45 -2.85 25.9 -2.75 25.85 -3.0 25.7 -4.8 Q25.45 -5.85 25.6 -8.15 L25.65 -10.45 Q25.85 -12.25 26.55 -11.6 L26.3 -11.55 26.4 -10.5 26.4 -10.45 26.45 -9.8 27.05 -2.95 M6.55 -1.15 L6.5 -1.15 6.2 -1.15 5.95 -1.15 5.85 -1.15 5.5 -1.15 5.45 -7.35 5.45 -8.95 6.05 -8.95 6.3 -8.95 6.4 -8.8 6.55 -8.55 6.55 -8.4 6.55 -1.15 M2.25 -1.25 L1.7 -1.25 1.2 -1.3 Q0.95 -1.95 0.95 -3.65 L0.95 -4.0 Q0.95 -6.3 1.1 -7.25 L1.1 -7.35 1.15 -7.4 1.15 -7.5 Q1.25 -8.4 1.5 -8.95 L2.15 -8.95 2.15 -7.95 2.1 -2.55 2.25 -1.25" fill="#464646" fill-rule="evenodd" stroke="none"/>
  </g>
</svg>
