<?xml version="1.0" encoding="UTF-8" standalone="no"?>
<svg xmlns:ffdec="https://www.free-decompiler.com/flash" xmlns:xlink="http://www.w3.org/1999/xlink" ffdec:objectType="shape" height="85.65px" width="63.0px" xmlns="http://www.w3.org/2000/svg">
  <g transform="matrix(1.0, 0.0, 0.0, 1.0, 28.5, 101.2)">
    <path d="M18.45 -31.6 L18.45 -31.7 Q18.45 -32.5 17.9 -33.05 17.35 -33.6 16.55 -33.6 15.75 -33.6 15.2 -33.05 14.65 -32.5 14.65 -31.7 L14.65 -31.6 Q14.7 -30.85 15.2 -30.35 L15.55 -30.1 Q15.95 -29.8 16.55 -29.8 17.35 -29.8 17.9 -30.35 L18.4 -31.25 18.45 -31.6 M19.2 -16.4 Q18.35 -15.55 17.15 -15.55 15.95 -15.55 15.1 -16.4 L15.05 -16.45 Q14.3 -17.25 14.25 -18.35 L14.25 -18.45 Q14.25 -19.65 15.1 -20.5 15.95 -21.35 17.15 -21.35 18.35 -21.35 19.2 -20.5 20.05 -19.65 20.05 -18.45 L20.05 -18.35 Q20.0 -17.2 19.2 -16.4 M14.8 -29.4 L14.5 -29.65 Q13.7 -30.45 13.65 -31.6 L13.65 -31.7 Q13.65 -32.9 14.5 -33.75 15.35 -34.6 16.55 -34.6 17.75 -34.6 18.6 -33.75 19.4 -32.95 19.45 -31.85 L19.45 -31.7 19.45 -31.6 Q19.4 -30.45 18.6 -29.65 17.75 -28.8 16.55 -28.8 15.55 -28.8 14.8 -29.4 M19.05 -18.35 L19.05 -18.45 Q19.05 -19.25 18.5 -19.8 17.95 -20.35 17.15 -20.35 16.35 -20.35 15.8 -19.8 15.25 -19.25 15.25 -18.45 L15.25 -18.35 Q15.3 -17.6 15.8 -17.1 16.35 -16.55 17.15 -16.55 17.95 -16.55 18.5 -17.1 19.0 -17.6 19.05 -18.35 M-1.4 -98.95 L-1.15 -98.75 -1.1 -98.3 -1.85 -95.9 -2.05 -95.5 -2.4 -95.45 -2.5 -95.5 -5.85 -89.35 Q-5.7 -88.7 -5.9 -87.95 L-5.95 -87.85 -6.0 -87.75 Q-6.35 -86.75 -7.3 -86.25 -8.35 -85.6 -9.5 -85.95 -10.65 -86.3 -11.2 -87.3 L-11.2 -87.35 Q-11.8 -88.3 -11.55 -89.45 L-11.5 -89.55 -11.4 -89.75 Q-11.1 -90.65 -10.3 -91.1 L-10.3 -91.15 -9.55 -96.6 -9.95 -96.65 -10.25 -96.85 -10.3 -97.25 -9.55 -99.75 -9.25 -100.1 -8.85 -100.15 -1.4 -98.95 M-18.2 -100.55 L-18.2 -99.65 -18.15 -99.6 -18.1 -99.4 Q-18.05 -99.2 -18.15 -99.1 L-18.15 -99.0 -18.2 -98.55 -18.55 -97.7 -18.8 -97.4 -19.15 -97.35 -22.85 -91.3 Q-22.5 -90.4 -22.75 -89.4 L-22.8 -89.3 Q-23.15 -88.2 -24.1 -87.6 -24.6 -87.35 -25.1 -87.25 L-26.3 -87.35 Q-27.1 -87.55 -27.65 -88.1 L-28.1 -88.7 Q-28.65 -89.7 -28.4 -90.8 L-28.35 -90.9 Q-28.05 -92.05 -27.0 -92.7 L-26.65 -92.85 -25.65 -97.95 -25.8 -98.0 -26.0 -98.05 -26.2 -98.3 -26.1 -98.6 -25.2 -100.8 -24.95 -101.1 -24.6 -101.2 -18.2 -100.55 M-6.2 -90.15 L-6.15 -90.1 -3.2 -95.55 -3.85 -95.7 -6.6 -90.75 -6.3 -90.35 -6.2 -90.15 M-2.15 -98.0 L-8.7 -99.0 -9.15 -97.5 -2.6 -96.55 -2.15 -98.0 M-18.8 -99.65 L-24.4 -100.2 -24.9 -98.95 -24.75 -98.95 -19.3 -98.4 -18.8 -99.65 M-8.2 -96.45 L-8.9 -96.55 -9.6 -91.5 -8.85 -91.65 -8.2 -96.45 M-6.9 -88.15 L-6.85 -88.25 Q-6.75 -88.6 -6.8 -88.95 L-7.05 -89.7 -7.1 -89.8 -7.5 -90.25 -8.2 -90.6 -8.35 -90.6 -9.0 -90.6 -9.65 -90.4 -9.8 -90.3 -10.2 -89.9 -10.55 -89.25 -10.6 -89.15 Q-10.75 -88.45 -10.35 -87.8 L-10.3 -87.7 -10.05 -87.4 Q-9.7 -87.05 -9.2 -86.9 L-7.75 -87.1 -7.55 -87.2 -7.15 -87.65 -6.9 -88.15 M-8.2 -91.6 L-7.9 -91.55 -7.05 -91.15 -4.5 -95.8 -7.55 -96.3 -8.2 -91.6 M-21.15 -97.55 L-23.65 -97.75 -24.65 -92.9 -24.15 -92.7 -21.15 -97.55 M-24.25 -97.85 L-25.0 -97.95 -25.0 -97.9 -26.0 -93.0 -25.25 -93.0 -24.25 -97.85 M-23.75 -89.55 L-23.7 -89.65 -23.6 -90.2 -23.8 -90.9 -23.85 -91.0 -23.9 -91.1 -24.2 -91.5 -24.7 -91.85 -24.85 -91.95 -25.05 -92.0 -25.45 -92.05 -26.25 -91.9 -26.4 -91.85 -26.5 -91.8 -26.95 -91.45 -27.4 -90.65 -27.45 -90.55 Q-27.6 -89.95 -27.25 -89.35 L-27.2 -89.2 Q-26.8 -88.5 -26.05 -88.3 L-24.8 -88.4 -24.6 -88.5 Q-24.0 -88.85 -23.75 -89.55 M-19.8 -97.4 L-20.55 -97.45 -23.65 -92.35 -23.4 -92.1 -23.2 -91.85 -19.8 -97.4" fill="#454545" fill-rule="evenodd" stroke="none"/>
    <path d="M18.45 -31.6 L18.4 -31.25 17.9 -30.35 Q17.35 -29.8 16.55 -29.8 15.95 -29.8 15.55 -30.1 L15.2 -30.35 Q14.7 -30.85 14.65 -31.6 L18.45 -31.6 M19.05 -18.35 Q19.0 -17.6 18.5 -17.1 17.95 -16.55 17.15 -16.55 16.35 -16.55 15.8 -17.1 15.3 -17.6 15.25 -18.35 L19.05 -18.35 M-18.8 -99.65 L-19.3 -98.4 -24.75 -98.95 -24.9 -98.95 -24.4 -100.2 -18.8 -99.65 M-2.15 -98.0 L-2.6 -96.55 -9.15 -97.5 -8.7 -99.0 -2.15 -98.0 M-6.2 -90.15 L-6.3 -90.35 -6.6 -90.75 -3.85 -95.7 -3.2 -95.55 -6.15 -90.1 -6.2 -90.15 M-8.2 -96.45 L-8.85 -91.65 -9.6 -91.5 -8.9 -96.55 -8.2 -96.45 M-6.9 -88.15 L-7.15 -87.65 -7.55 -87.2 -7.75 -87.1 -9.2 -86.9 Q-9.7 -87.05 -10.05 -87.4 L-10.3 -87.7 -10.35 -87.8 Q-10.75 -88.45 -10.6 -89.15 L-6.9 -88.15 M-24.25 -97.85 L-25.25 -93.0 -26.0 -93.0 -25.0 -97.9 -25.0 -97.95 -24.25 -97.85 M-23.75 -89.55 Q-24.0 -88.85 -24.6 -88.5 L-24.8 -88.4 -26.05 -88.3 Q-26.8 -88.5 -27.2 -89.2 L-27.25 -89.35 Q-27.6 -89.95 -27.45 -90.55 L-23.75 -89.55 M-19.8 -97.4 L-23.2 -91.85 -23.4 -92.1 -23.65 -92.35 -20.55 -97.45 -19.8 -97.4" fill="#aaaaaa" fill-rule="evenodd" stroke="none"/>
    <path d="M14.65 -31.6 L14.65 -31.7 Q14.65 -32.5 15.2 -33.05 15.75 -33.6 16.55 -33.6 17.35 -33.6 17.9 -33.05 18.45 -32.5 18.45 -31.7 L18.45 -31.6 14.65 -31.6 M15.25 -18.35 L15.25 -18.45 Q15.25 -19.25 15.8 -19.8 16.35 -20.35 17.15 -20.35 17.95 -20.35 18.5 -19.8 19.05 -19.25 19.05 -18.45 L19.05 -18.35 15.25 -18.35 M-10.6 -89.15 L-10.55 -89.25 -10.2 -89.9 -9.8 -90.3 -9.65 -90.4 -9.0 -90.6 -8.35 -90.6 -8.2 -90.6 -7.5 -90.25 -7.1 -89.8 -7.05 -89.7 -6.8 -88.95 Q-6.75 -88.6 -6.85 -88.25 L-6.9 -88.15 -10.6 -89.15 M-27.45 -90.55 L-27.4 -90.65 -26.95 -91.45 -26.5 -91.8 -26.4 -91.85 -26.25 -91.9 -25.45 -92.05 -25.05 -92.0 -24.85 -91.95 -24.7 -91.85 -24.2 -91.5 -23.9 -91.1 -23.85 -91.0 -23.8 -90.9 -23.6 -90.2 -23.7 -89.65 -23.75 -89.55 -27.45 -90.55" fill="#d4d4d4" fill-rule="evenodd" stroke="none"/>
    <path d="M34.5 -18.25 L34.35 -18.7 34.4 -18.7 34.5 -18.25 M-25.5 -19.75 L-25.7 -18.7 -25.75 -18.7 -25.5 -19.75" fill="#0b4a56" fill-rule="evenodd" stroke="none"/>
    <path d="M21.05 -35.2 L20.9 -34.05 20.9 -34.35 20.85 -35.2 21.05 -35.2" fill="#9c5328" fill-rule="evenodd" stroke="none"/>
    <path d="M-14.0 -87.05 L-15.0 -86.9 -14.1 -87.05 -14.0 -87.05" fill="#b86432" fill-rule="evenodd" stroke="none"/>
  </g>
</svg>
