<?xml version="1.0" encoding="UTF-8" standalone="no"?>
<svg xmlns:ffdec="https://www.free-decompiler.com/flash" xmlns:xlink="http://www.w3.org/1999/xlink" ffdec:objectType="shape" height="65.2px" width="112.8px" xmlns="http://www.w3.org/2000/svg">
  <g transform="matrix(1.0, 0.0, 0.0, 1.0, 25.3, 32.35)">
    <path d="M-6.6 12.0 L-6.55 12.35 -6.3 15.9 -6.3 16.0 -6.3 16.1 -6.3 16.15 -10.25 15.7 Q-13.15 15.2 -15.85 13.55 -18.2 12.1 -19.15 11.85 -20.4 11.5 -20.65 11.25 L-21.1 10.5 -21.4 9.6 -21.85 8.6 -22.0 7.65 -21.8 5.1 -21.65 5.25 -18.2 7.6 -16.95 8.2 Q-12.9 10.15 -6.6 12.0 M-15.95 11.4 L-15.55 11.65 -15.1 11.85 -14.5 12.55 -13.8 13.05 -9.8 13.9 -9.0 13.75 -8.85 13.25 -9.15 12.7 Q-9.5 12.4 -10.3 12.3 L-12.45 11.95 -13.75 11.45 -14.3 10.85 -15.0 10.6 -15.75 10.75 Q-16.15 11.05 -15.95 11.4" fill="#5519a7" fill-rule="evenodd" stroke="none"/>
    <path d="M-6.3 16.15 L-6.1 18.6 Q-18.85 15.2 -22.6 11.1 L-22.65 11.05 Q-23.8 9.65 -23.7 8.55 L-23.7 8.45 -23.25 3.45 -22.55 4.35 -21.8 5.1 -22.0 7.65 -21.85 8.6 -21.4 9.6 -21.1 10.5 -20.65 11.25 Q-20.4 11.5 -19.15 11.85 -18.2 12.1 -15.85 13.55 -13.15 15.2 -10.25 15.7 L-6.3 16.15 M-6.05 19.65 L-5.9 20.05 -5.6 20.3 -5.1 20.5 -5.6 20.3 -5.65 20.25 -5.95 20.0 -6.05 19.65" fill="#3d1278" fill-rule="evenodd" stroke="none"/>
    <path d="M19.4 -26.05 L19.5 -26.05 15.7 -26.05 16.05 -26.1 Q18.0 -26.3 19.4 -26.05 M25.15 -25.2 L24.9 -25.45 24.85 -25.55 24.5 -25.3 Q25.2 -25.75 25.35 -26.35 L25.8 -26.35 25.7 -26.3 Q25.15 -25.95 25.15 -25.2 M-15.95 11.4 Q-16.15 11.05 -15.75 10.75 L-15.0 10.6 -14.3 10.85 -13.75 11.45 -12.45 11.95 -10.3 12.3 Q-9.5 12.4 -9.15 12.7 L-8.85 13.25 -9.0 13.75 -9.8 13.9 -13.8 13.05 -14.5 12.55 -15.1 11.85 -15.55 11.65 -15.95 11.4" fill="#641dc6" fill-rule="evenodd" stroke="none"/>
    <path d="M53.9 7.7 L54.0 7.7 54.1 8.0 53.9 8.45 53.5 8.65 53.4 8.65 53.05 8.6 52.95 8.05 53.0 7.7 Q53.25 7.5 53.9 7.7" fill="#7322e3" fill-rule="evenodd" stroke="none"/>
    <path d="M5.85 -14.1 Q7.75 -14.3 8.85 -13.45 L9.5 -12.75 Q10.5 -11.6 10.8 -9.85 L10.85 -8.1 10.6 -6.45 Q9.9 -3.65 8.05 -1.15 L7.75 -0.75 7.55 -1.05 6.45 -3.3 6.4 -3.4 6.05 -2.8 6.35 -3.4 6.65 -4.05 7.5 -6.4 7.55 -7.7 Q7.25 -9.7 5.15 -9.35 L5.0 -7.35 4.9 -7.8 Q4.45 -10.3 5.15 -12.2 L5.55 -13.2 5.8 -14.0 5.8 -14.1 5.85 -14.1 M12.8 -12.0 L18.6 -13.65 18.8 -10.1 15.65 -9.4 15.55 -8.3 15.5 -7.25 18.25 -8.2 18.35 -5.65 15.35 -4.55 15.3 -3.85 15.25 -3.15 18.5 -4.05 18.75 -0.5 Q16.2 -0.05 12.3 1.5 L12.8 -12.0 M19.9 -2.6 L21.15 -13.35 Q23.95 -14.25 25.75 -14.25 28.1 -14.35 28.25 -12.75 L28.25 -12.6 Q28.3 -11.45 27.7 -10.3 27.0 -8.9 25.45 -7.5 L26.0 -6.4 27.7 -3.05 25.05 -0.4 22.85 -5.45 22.4 -1.0 19.55 -0.1 19.9 -2.6 M32.95 -1.75 L31.45 -11.15 30.95 -13.55 30.7 -14.35 30.55 -14.3 Q32.45 -15.35 33.9 -15.7 36.2 -16.25 36.55 -14.5 L36.6 -12.75 Q36.4 -11.0 34.95 -8.8 L32.75 -6.1 32.75 -5.95 Q32.9 -3.8 33.2 -1.9 L32.95 -1.75 M45.1 -12.65 L45.05 -12.25 44.8 -11.0 43.55 -10.75 42.3 -10.5 Q42.5 -11.3 42.05 -11.35 41.5 -11.45 40.8 -10.85 40.3 -10.5 40.35 -10.0 40.35 -9.7 40.85 -9.55 L41.65 -9.5 42.85 -9.45 Q44.1 -9.2 44.25 -8.2 L44.15 -7.6 Q44.0 -6.55 43.05 -5.45 41.85 -4.15 39.95 -3.45 L38.05 -3.25 Q37.2 -3.45 36.55 -3.95 L37.55 -5.6 38.2 -6.6 Q38.65 -6.15 39.2 -6.05 L39.8 -6.0 40.75 -6.15 Q41.45 -6.4 41.45 -6.75 41.6 -7.2 40.95 -7.3 L40.15 -7.35 39.6 -7.35 38.3 -7.5 Q37.7 -7.55 37.45 -7.85 L37.15 -8.25 Q36.95 -8.65 37.1 -9.25 37.6 -10.85 39.8 -12.75 L40.05 -13.0 Q42.5 -14.9 44.05 -14.75 45.35 -14.55 45.1 -12.65 M30.2 -14.1 L30.55 -14.3 30.2 -14.1 M23.55 -10.4 L23.4 -9.15 23.15 -7.85 24.35 -8.8 Q25.05 -9.45 25.2 -10.05 L25.3 -10.35 Q25.3 -10.75 24.75 -10.75 L23.55 -10.4 M32.65 -9.25 Q34.05 -10.5 34.3 -11.6 L34.3 -11.8 Q34.25 -12.1 33.8 -12.0 L32.45 -11.4 32.45 -10.35 32.6 -9.25 32.65 -9.25" fill="#c7aeff" fill-rule="evenodd" stroke="none"/>
    <path d="M31.15 -0.75 L30.6 -0.45 30.5 -3.0 30.15 -7.5 30.15 -7.65 30.15 -7.7 30.05 -9.8 29.75 -12.75 29.65 -13.8 29.8 -13.85 30.2 -14.1 30.55 -14.3 30.7 -14.35 30.95 -13.55 31.45 -11.15 32.95 -1.75 32.4 -1.4 31.15 -0.75 M7.75 -0.75 L7.65 -0.65 Q5.5 1.9 2.75 3.1 L1.0 3.7 0.95 2.85 1.1 0.65 1.45 -10.05 1.5 -12.75 Q3.9 -13.9 5.65 -14.1 L5.8 -14.1 5.8 -14.0 5.55 -13.2 5.15 -12.2 Q4.45 -10.3 4.9 -7.8 L5.0 -7.35 4.95 -6.35 4.9 -5.65 4.75 -0.7 5.0 -1.05 6.05 -2.8 6.4 -3.4 6.45 -3.3 7.55 -1.05 7.75 -0.75" fill="#b097e9" fill-rule="evenodd" stroke="none"/>
    <path d="M70.1 22.35 L69.8 22.15 66.3 19.75 64.8 18.45 64.25 18.05 62.35 17.7 63.1 18.15 64.5 19.2 65.25 19.9 67.25 21.35 68.8 22.5 68.95 22.6 66.9 22.75 67.35 22.75 57.1 17.4 56.7 17.4 57.95 17.35 Q61.4 17.35 65.05 18.25 68.6 19.15 70.4 20.45 71.1 20.95 71.3 21.4 L71.0 21.9 70.1 22.35" fill="#eec433" fill-rule="evenodd" stroke="none"/>
    <path d="M68.95 22.6 L68.8 22.5 67.25 21.35 65.25 19.9 64.5 19.2 63.1 18.15 62.35 17.7 64.25 18.05 64.8 18.45 66.3 19.75 69.8 22.15 70.1 22.35 68.95 22.6 M56.7 17.4 L57.1 17.4 67.35 22.75 66.9 22.75 66.6 22.75 62.25 22.4 59.55 21.85 Q55.95 20.9 54.2 19.65 L53.35 18.75 53.3 18.7 Q53.25 18.4 53.55 18.15 L53.85 18.0 54.15 17.85 56.7 17.4" fill="#f9ee71" fill-rule="evenodd" stroke="none"/>
    <path d="M52.25 18.55 Q52.25 17.9 52.95 17.35 54.2 16.35 57.95 16.35 61.5 16.35 65.3 17.3 69.1 18.25 71.0 19.65 72.1 20.45 72.25 21.15 72.5 22.0 71.6 22.7 70.35 23.75 66.6 23.75 L64.25 23.65 59.3 22.8 Q55.45 21.8 53.6 20.45 52.5 19.65 52.35 18.95 L52.25 18.55 M70.1 22.35 L71.0 21.9 71.3 21.4 Q71.1 20.95 70.4 20.45 68.6 19.15 65.05 18.25 61.4 17.35 57.95 17.35 L56.7 17.4 54.15 17.85 53.85 18.0 53.55 18.15 Q53.25 18.4 53.3 18.7 L53.35 18.75 54.2 19.65 Q55.95 20.9 59.55 21.85 L62.25 22.4 66.6 22.75 66.9 22.75 68.95 22.6 70.1 22.35" fill="#b77215" fill-rule="evenodd" stroke="none"/>
    <path d="M19.5 -26.05 L19.95 -25.95 21.45 -25.45 22.95 -25.0 23.5 -25.0 23.7 -24.6 24.35 -23.45 24.65 -23.05 23.75 -23.0 Q8.5 -21.7 -0.35 -14.15 -2.3 -12.6 -3.65 -10.55 -4.85 -11.0 -5.7 -11.95 -6.6 -12.95 -6.95 -14.25 L-7.25 -16.25 -7.3 -17.35 -5.9 -18.45 Q-2.45 -20.9 3.5 -23.0 10.25 -25.3 15.7 -26.05 L19.5 -26.05 M25.8 -26.35 L27.5 -26.4 28.85 -25.4 30.35 -23.65 30.55 -23.15 27.3 -23.2 26.8 -23.75 25.85 -24.6 25.8 -24.65 25.5 -24.9 25.4 -24.95 25.15 -25.2 Q25.15 -25.95 25.7 -26.3 L25.8 -26.35" fill="#3a56e5" fill-rule="evenodd" stroke="none"/>
    <path d="M12.9 3.85 L14.15 3.35 14.3 5.0 14.45 6.9 14.6 5.25 14.75 2.85 15.55 2.65 15.75 6.15 15.85 7.7 15.95 6.3 16.2 3.15 17.6 2.65 Q17.2 4.9 17.1 7.15 L17.05 8.55 15.4 9.1 15.15 6.1 14.9 8.95 13.3 9.55 12.65 3.9 12.9 3.85 M18.15 7.9 L18.15 2.95 19.4 2.4 Q19.15 5.75 19.3 8.15 L18.9 8.35 18.15 8.7 18.15 7.9 M31.25 6.5 L30.8 6.7 30.6 0.75 31.25 0.55 32.45 0.2 33.1 0.0 33.35 1.5 32.45 1.75 31.95 1.9 31.95 2.4 31.95 2.8 32.7 2.55 33.05 2.4 33.2 3.45 32.7 3.65 31.95 4.0 31.85 4.35 31.85 4.65 32.7 4.4 33.3 4.2 33.45 5.65 32.7 5.9 Q32.05 6.1 31.25 6.5 M42.45 4.75 L41.5 4.85 42.0 2.95 40.85 -0.3 42.15 -1.25 42.3 -0.3 42.55 0.85 43.05 -1.25 44.3 -1.25 Q43.3 1.85 42.8 4.3 L42.7 4.7 42.45 4.75 M37.5 -0.2 L39.4 -0.95 Q40.5 -1.1 40.65 -0.35 40.85 0.75 39.7 2.1 L40.95 3.9 39.95 5.2 38.7 3.1 38.75 5.1 37.55 5.6 37.5 4.6 37.5 -0.2 M38.75 0.9 L38.7 1.45 38.65 2.05 39.1 1.55 39.45 0.95 39.5 0.85 Q39.45 0.65 39.2 0.65 L38.75 0.9 M35.2 1.45 L35.05 2.0 35.0 2.55 35.55 2.1 35.9 1.5 35.95 1.4 Q35.9 1.2 35.65 1.2 35.45 1.25 35.2 1.45 M33.9 0.3 L35.85 -0.4 Q36.9 -0.6 37.0 0.2 37.25 1.25 36.1 2.65 L37.3 4.4 36.35 5.75 35.05 3.65 35.1 5.6 34.0 6.15 34.0 5.1 33.9 0.3 M26.7 1.55 L27.65 1.15 Q28.1 0.9 28.5 0.8 L28.75 0.8 Q29.8 0.6 29.95 1.4 30.1 2.45 29.05 3.7 29.85 3.5 30.05 4.05 L30.15 4.3 Q30.25 4.85 29.8 5.55 L28.8 6.55 Q28.2 7.1 27.2 7.3 L26.85 7.35 26.75 2.8 26.7 1.55 M28.15 2.5 L28.2 3.05 28.15 3.65 28.75 2.7 28.8 2.45 28.55 2.4 28.15 2.5 M23.0 2.15 Q23.8 1.6 24.45 1.5 25.15 1.45 25.55 1.8 26.2 2.2 26.4 3.0 L26.4 3.6 Q26.3 5.0 25.4 6.25 24.5 7.5 23.1 7.95 L23.0 6.85 23.05 3.05 23.0 2.15 M28.1 4.7 L28.15 5.6 Q29.15 5.1 29.05 4.7 29.05 4.55 28.75 4.55 L28.1 4.7 M24.4 3.3 L24.3 6.35 24.95 5.15 Q25.25 4.35 25.15 3.8 25.1 3.15 24.4 3.3 M20.1 2.55 L21.45 2.1 Q21.2 4.4 21.25 6.35 L22.6 5.85 22.8 7.45 Q21.7 7.65 20.2 8.4 L20.1 2.55" fill="#4a6eff" fill-rule="evenodd" stroke="none"/>
    <path d="M17.75 -28.85 Q18.55 -28.6 19.2 -28.0 L19.15 -27.75 18.0 -27.65 17.6 -27.65 17.4 -27.6 17.15 -27.6 16.95 -27.55 16.65 -27.55 11.35 -26.65 7.5 -25.65 0.0 -23.05 Q-4.0 -21.45 -6.1 -20.05 -9.9 -17.5 -13.0 -12.9 L-15.15 -9.1 -15.45 -8.4 -15.5 -9.95 Q-15.4 -13.1 -14.25 -15.4 L-12.35 -18.15 Q-6.85 -24.6 3.2 -27.25 8.9 -28.7 17.75 -28.85 M23.7 -24.6 L25.15 -25.2 25.4 -24.95 25.5 -24.9 25.8 -24.65 25.85 -24.6 26.8 -23.75 27.3 -23.2 24.65 -23.05 24.35 -23.45 23.7 -24.6 M27.5 -26.4 L29.35 -26.5 30.45 -26.5 31.0 -26.3 32.5 -25.4 34.35 -24.0 35.6 -22.65 30.55 -23.15 30.35 -23.65 28.85 -25.4 27.5 -26.4 M-3.65 -10.55 Q-7.1 -5.4 -7.25 2.95 -12.2 0.45 -14.2 -3.55 L-15.05 -5.9 -14.9 -6.25 Q-14.05 -8.75 -12.8 -10.85 -10.6 -14.65 -7.3 -17.35 L-7.25 -16.25 -6.95 -14.25 Q-6.6 -12.95 -5.7 -11.95 -4.85 -11.0 -3.65 -10.55" fill="#2a3ecb" fill-rule="evenodd" stroke="none"/>
    <path d="M9.5 -18.25 Q7.45 -16.45 6.15 -14.6 L5.85 -14.1 5.8 -14.1 5.65 -14.1 Q3.9 -13.9 1.5 -12.75 L1.45 -10.05 1.1 0.65 0.95 2.85 1.0 3.7 2.75 3.1 Q5.5 1.9 7.65 -0.65 L7.75 -0.75 8.05 -1.15 Q9.95 1.3 12.9 3.85 L12.65 3.9 13.3 9.55 14.9 8.95 15.15 6.1 15.4 9.1 17.05 8.55 17.1 7.15 18.15 7.9 18.15 8.7 18.9 8.35 20.65 9.3 21.05 9.45 Q15.0 10.85 15.05 12.5 L15.25 12.95 18.35 11.7 Q19.8 11.0 22.85 10.35 L22.85 10.25 23.85 10.15 25.7 10.4 30.6 10.7 31.15 10.65 31.2 9.15 33.2 8.95 33.2 9.55 33.25 10.1 36.85 8.7 37.0 8.65 37.05 8.65 37.2 8.55 41.55 8.45 35.3 11.25 33.15 12.4 32.95 10.2 31.7 10.5 31.5 10.55 31.5 10.6 31.7 13.35 Q30.95 13.95 30.95 14.3 L30.95 14.65 30.95 14.7 31.45 15.0 31.7 15.0 31.55 17.5 30.55 17.6 14.8 17.05 12.65 16.55 Q7.6 15.15 4.5 12.3 L4.8 11.45 5.0 10.05 Q4.95 7.95 3.0 8.15 2.1 8.25 1.65 8.8 -0.3 5.45 -0.9 0.8 L-1.25 -4.85 -1.25 -10.6 -1.3 -11.15 0.6 -13.0 Q4.4 -16.25 9.5 -18.25 M14.3 5.0 L14.6 5.25 14.45 6.9 14.3 5.0 M15.75 6.15 L15.95 6.3 15.85 7.7 15.75 6.15 M31.25 7.7 L31.25 6.5 Q32.05 6.1 32.7 5.9 L32.7 6.5 32.8 7.2 32.9 7.5 31.25 7.7 M31.25 0.55 L31.15 -0.75 32.4 -1.4 32.45 0.2 31.25 0.55 M30.15 -7.7 L29.55 -10.85 28.8 -14.0 27.1 -18.45 25.6 -21.6 25.85 -21.6 27.9 -21.7 28.25 -20.85 Q29.95 -16.9 30.55 -14.3 L30.2 -14.1 29.8 -13.85 29.65 -13.8 29.75 -12.75 30.05 -9.8 30.15 -7.7 M39.9 -20.2 Q44.45 -18.85 48.3 -16.35 L50.45 -14.85 50.5 -14.6 Q52.05 -8.25 51.75 -3.65 51.45 1.05 49.5 5.1 49.2 4.85 48.7 4.8 47.35 4.7 47.4 6.25 L47.45 7.0 48.05 7.65 47.0 9.1 43.6 12.65 40.95 12.5 36.05 12.95 34.4 13.35 Q35.7 12.65 41.5 10.3 46.55 8.3 46.55 8.0 46.55 7.15 44.35 7.05 L40.05 7.05 40.6 6.65 42.45 4.75 42.7 4.7 42.8 4.3 43.0 3.95 Q46.35 -0.8 46.75 -5.65 L46.7 -9.6 Q46.5 -12.4 45.75 -14.1 L45.35 -14.35 45.85 -14.05 Q45.15 -15.85 43.75 -17.25 L41.3 -19.2 39.9 -20.2 M6.35 -3.4 L6.05 -2.8 5.0 -1.05 4.75 -0.7 4.9 -5.65 5.75 -4.3 6.35 -3.4 M32.45 1.75 L32.45 1.85 32.55 1.95 32.7 2.55 31.95 2.8 31.95 2.4 31.95 1.9 32.45 1.75 M32.7 3.65 L32.7 4.4 31.85 4.65 31.85 4.35 31.95 4.0 32.7 3.65 M47.1 -14.1 L47.25 -13.65 Q47.5 -13.3 48.15 -13.3 48.6 -13.3 48.9 -13.6 L49.2 -14.1 Q49.2 -15.75 48.2 -15.75 L47.8 -15.7 Q47.1 -15.4 47.1 -14.1 M47.15 -10.25 L46.85 -10.95 46.8 -10.65 46.9 -10.8 47.15 -10.25 M66.1 24.85 L52.05 25.95 51.6 25.65 Q48.85 23.9 47.05 22.95 L46.75 22.8 Q45.65 22.25 44.6 21.85 L42.0 21.0 41.7 20.9 41.5 20.85 35.55 20.35 32.9 20.4 Q19.2 20.7 4.75 20.15 L4.45 20.15 3.0 19.45 -1.5 17.15 2.6 17.5 Q25.95 19.85 38.8 18.75 L42.3 18.35 46.1 17.7 49.7 18.15 52.25 18.55 52.35 18.95 Q52.5 19.65 53.6 20.45 55.45 21.8 59.3 22.8 L64.25 23.65 66.1 24.85 M42.2 13.75 Q39.3 15.75 35.75 16.75 L33.05 17.35 33.05 17.3 33.55 17.25 33.5 16.55 33.4 16.0 33.35 15.25 33.4 14.9 33.2 14.95 33.2 14.75 34.95 14.35 40.95 13.7 42.2 13.75 M22.05 15.25 L22.05 14.75 Q22.0 13.4 20.55 13.55 19.0 13.7 19.0 14.65 L19.0 14.75 19.25 15.6 Q19.7 16.5 20.75 16.5 21.9 16.5 22.05 15.25 M10.65 5.65 Q10.65 4.85 9.95 4.95 9.1 5.1 9.1 5.85 L9.1 6.2 Q9.2 6.5 9.7 6.5 L10.35 6.2 10.65 5.65" fill="#3b3b3b" fill-rule="evenodd" stroke="none"/>
    <path d="M50.45 -14.85 L53.65 -12.0 56.2 -8.65 57.05 -6.85 Q56.9 -6.35 56.9 -5.4 56.95 -3.05 56.6 -0.7 L56.4 -0.8 55.5 -1.05 Q53.8 -1.15 53.9 1.05 L53.95 2.0 54.9 3.1 55.7 3.15 55.3 4.3 53.9 7.7 Q53.25 7.5 53.0 7.7 L52.95 8.05 53.05 8.6 53.4 8.65 50.55 12.9 47.95 15.5 47.45 15.85 38.65 17.25 30.55 17.6 31.55 17.5 31.7 15.0 32.45 14.9 33.2 14.75 33.2 14.95 33.4 14.9 33.35 15.25 33.4 16.0 33.5 16.55 33.55 17.25 33.05 17.3 33.05 17.35 35.75 16.75 Q39.3 15.75 42.2 13.75 L43.6 13.9 44.55 14.2 43.3 15.3 42.75 15.95 Q42.45 16.4 42.45 16.6 L43.6 16.05 44.25 15.75 45.9 14.7 Q46.6 14.35 46.55 13.95 46.55 13.45 45.3 13.05 L43.6 12.65 47.0 9.1 48.05 7.65 48.75 7.75 Q50.0 7.75 49.95 6.25 49.95 5.45 49.5 5.1 51.45 1.05 51.75 -3.65 52.05 -8.25 50.5 -14.6 L50.45 -14.85 M14.8 17.05 L2.75 16.0 2.7 16.0 -4.7 15.25 -4.8 15.25 -5.05 12.15 -5.05 12.1 Q-7.1 -1.05 -3.2 -8.35 L-1.3 -11.15 -1.25 -10.6 -1.25 -4.85 -0.9 0.8 Q-0.3 5.45 1.65 8.8 1.05 9.4 1.1 10.65 1.1 11.2 1.45 11.75 2.0 12.65 3.1 12.65 4.05 12.65 4.5 12.3 7.6 15.15 12.65 16.55 L14.8 17.05 M52.5 -6.85 L52.55 -6.65 53.3 -5.95 54.0 -5.9 Q54.6 -6.4 54.55 -7.05 54.55 -8.0 53.4 -8.25 52.3 -8.45 52.35 -7.3 52.35 -7.0 52.5 -6.85 M46.1 17.7 Q52.9 16.25 55.65 13.3 L56.6 11.9 56.95 12.0 Q62.0 13.2 71.3 18.25 L71.3 18.3 81.7 23.5 Q84.25 24.75 85.35 25.55 L82.45 25.3 82.0 25.3 66.1 24.85 64.25 23.65 66.6 23.75 Q70.35 23.75 71.6 22.7 72.5 22.0 72.25 21.15 72.1 20.45 71.0 19.65 69.1 18.25 65.3 17.3 61.5 16.35 57.95 16.35 54.2 16.35 52.95 17.35 52.25 17.9 52.25 18.55 L49.7 18.15 46.1 17.7 M31.7 13.35 L31.5 10.6 31.5 10.55 31.7 10.5 32.95 10.2 33.15 12.4 31.7 13.35" fill="#292929" fill-rule="evenodd" stroke="none"/>
    <path d="M14.5 -15.65 Q14.45 -17.1 12.9 -17.1 11.25 -17.1 11.3 -15.7 L11.5 -14.85 Q11.9 -13.95 13.05 -13.95 14.55 -13.95 14.5 -15.65 M18.95 -18.5 L19.05 -18.6 19.25 -18.6 19.6 -19.25 Q19.55 -20.2 18.85 -20.05 18.1 -19.8 18.15 -19.0 L18.15 -18.7 18.95 -18.5 M9.5 -18.25 L9.5 -18.3 10.3 -18.6 Q18.5 -21.45 23.9 -21.5 L24.1 -21.5 25.6 -21.6 27.1 -18.45 28.8 -14.0 29.55 -10.85 30.15 -7.7 30.15 -7.65 30.15 -7.5 30.5 -3.0 30.6 -0.45 31.15 -0.75 31.25 0.55 30.6 0.75 30.8 6.7 31.25 6.5 31.25 7.7 23.05 9.0 21.05 9.45 20.65 9.3 18.9 8.35 19.3 8.15 Q19.15 5.75 19.4 2.4 L18.15 2.95 18.15 7.9 17.1 7.15 Q17.2 4.9 17.6 2.65 L16.2 3.15 15.95 6.3 15.75 6.15 15.55 2.65 14.75 2.85 14.6 5.25 14.3 5.0 14.15 3.35 12.9 3.85 Q9.95 1.3 8.05 -1.15 9.9 -3.65 10.6 -6.45 L10.85 -8.1 10.8 -9.85 Q10.5 -11.6 9.5 -12.75 L8.85 -13.45 Q7.75 -14.3 5.85 -14.1 L6.15 -14.6 Q7.45 -16.45 9.5 -18.25 M27.9 -21.7 L30.5 -21.65 Q35.5 -21.45 39.9 -20.2 L41.3 -19.2 43.75 -17.25 Q45.15 -15.85 45.85 -14.05 L45.35 -14.35 45.75 -14.1 Q46.5 -12.4 46.7 -9.6 L46.75 -5.65 Q46.35 -0.8 43.0 3.95 L42.8 4.3 Q43.3 1.85 44.3 -1.25 L43.05 -1.25 42.55 0.85 42.3 -0.3 42.15 -1.25 40.85 -0.3 42.0 2.95 41.5 4.85 42.45 4.75 40.6 6.65 40.05 7.05 36.9 7.05 32.9 7.5 32.8 7.2 32.7 6.5 32.7 5.9 33.45 5.65 33.3 4.2 32.7 4.4 32.7 3.65 33.2 3.45 33.05 2.4 32.7 2.55 32.55 1.95 32.45 1.85 32.45 1.75 33.35 1.5 33.1 0.0 32.45 0.2 32.4 -1.4 32.95 -1.75 33.2 -1.9 Q32.9 -3.8 32.75 -5.95 L32.75 -6.1 34.95 -8.8 Q36.4 -11.0 36.6 -12.75 L36.55 -14.5 Q36.2 -16.25 33.9 -15.7 32.45 -15.35 30.55 -14.3 29.95 -16.9 28.25 -20.85 L27.9 -21.7 M5.0 -7.35 L5.15 -9.35 Q7.25 -9.7 7.55 -7.7 L7.5 -6.4 6.65 -4.05 6.35 -3.4 5.75 -4.3 4.9 -5.65 4.95 -6.35 5.0 -7.35 M19.9 -2.6 L19.55 -0.1 22.4 -1.0 22.85 -5.45 25.05 -0.4 27.7 -3.05 26.0 -6.4 25.45 -7.5 Q27.0 -8.9 27.7 -10.3 28.3 -11.45 28.25 -12.6 L28.25 -12.75 Q28.1 -14.35 25.75 -14.25 23.95 -14.25 21.15 -13.35 L19.9 -2.6 M12.8 -12.0 L12.3 1.5 Q16.2 -0.05 18.75 -0.5 L18.5 -4.05 15.25 -3.15 15.3 -3.85 15.35 -4.55 18.35 -5.65 18.25 -8.2 15.5 -7.25 15.55 -8.3 15.65 -9.4 18.8 -10.1 18.6 -13.65 12.8 -12.0 M45.1 -12.65 Q45.35 -14.55 44.05 -14.75 42.5 -14.9 40.05 -13.0 L39.8 -12.75 Q37.6 -10.85 37.1 -9.25 36.95 -8.65 37.15 -8.25 L37.45 -7.85 Q37.7 -7.55 38.3 -7.5 L39.6 -7.35 40.15 -7.35 40.95 -7.3 Q41.6 -7.2 41.45 -6.75 41.45 -6.4 40.75 -6.15 L39.8 -6.0 39.2 -6.05 Q38.65 -6.15 38.2 -6.6 L37.55 -5.6 36.55 -3.95 Q37.2 -3.45 38.05 -3.25 L39.95 -3.45 Q41.85 -4.15 43.05 -5.45 44.0 -6.55 44.15 -7.6 L44.25 -8.2 Q44.1 -9.2 42.85 -9.45 L41.65 -9.5 40.85 -9.55 Q40.35 -9.7 40.35 -10.0 40.3 -10.5 40.8 -10.85 41.5 -11.45 42.05 -11.35 42.5 -11.3 42.3 -10.5 L43.55 -10.75 44.8 -11.0 45.05 -12.25 45.1 -12.65 M41.05 -16.45 Q41.0 -18.9 39.35 -19.1 37.65 -19.35 37.7 -17.6 37.7 -16.2 39.0 -15.4 L40.25 -15.4 Q41.05 -16.05 41.05 -16.45 M24.3 -18.0 Q24.3 -19.05 23.15 -19.0 21.95 -18.95 22.0 -17.7 21.95 -16.15 23.05 -16.15 23.85 -16.15 24.15 -16.95 L24.3 -18.0 M32.65 -9.25 L32.6 -9.25 32.45 -10.35 32.45 -11.4 33.8 -12.0 Q34.25 -12.1 34.3 -11.8 L34.3 -11.6 Q34.05 -10.5 32.65 -9.25 M23.55 -10.4 L24.75 -10.75 Q25.3 -10.75 25.3 -10.35 L25.2 -10.05 Q25.05 -9.45 24.35 -8.8 L23.15 -7.85 23.4 -9.15 23.55 -10.4 M37.5 -0.2 L37.5 4.6 37.55 5.6 38.75 5.1 38.7 3.1 39.95 5.2 40.95 3.9 39.7 2.1 Q40.85 0.75 40.65 -0.35 40.5 -1.1 39.4 -0.95 L37.5 -0.2 M47.15 -10.25 L46.9 -10.8 46.8 -10.65 46.85 -10.95 47.15 -10.25 M45.35 -1.75 Q45.3 -2.8 44.05 -2.4 L44.05 -1.75 Q44.2 -1.3 44.8 -1.3 L45.25 -1.4 45.35 -1.75 M52.05 25.95 L48.55 26.5 45.05 27.2 Q29.2 30.5 20.9 27.1 L12.65 23.65 10.8 22.9 7.6 21.5 6.0 20.85 5.75 20.75 4.9 20.4 4.4 20.15 4.45 20.15 4.75 20.15 Q19.2 20.7 32.9 20.4 L35.55 20.35 41.5 20.85 41.7 20.9 42.0 21.0 44.6 21.85 Q45.65 22.25 46.75 22.8 L47.05 22.95 Q48.85 23.9 51.6 25.65 L52.05 25.95 M33.9 0.3 L34.0 5.1 34.0 6.15 35.1 5.6 35.05 3.65 36.35 5.75 37.3 4.4 36.1 2.65 Q37.25 1.25 37.0 0.2 36.9 -0.6 35.85 -0.4 L33.9 0.3 M35.2 1.45 Q35.45 1.25 35.65 1.2 35.9 1.2 35.95 1.4 L35.9 1.5 35.55 2.1 35.0 2.55 35.05 2.0 35.2 1.45 M38.75 0.9 L39.2 0.65 Q39.45 0.65 39.5 0.85 L39.45 0.95 39.1 1.55 38.65 2.05 38.7 1.45 38.75 0.9 M31.2 9.15 L31.15 10.65 30.6 10.7 25.7 10.4 23.85 10.15 28.85 9.4 31.2 9.15 M37.2 8.55 L37.05 8.65 37.1 8.55 37.2 8.55 M37.0 8.65 L36.85 8.7 33.25 10.1 33.2 9.55 33.2 8.95 36.3 8.7 37.0 8.65 M20.1 2.55 L20.2 8.4 Q21.7 7.65 22.8 7.45 L22.6 5.85 21.25 6.35 Q21.2 4.4 21.45 2.1 L20.1 2.55 M24.4 3.3 Q25.1 3.15 25.15 3.8 25.25 4.35 24.95 5.15 L24.3 6.35 24.4 3.3 M28.1 4.7 L28.75 4.55 Q29.05 4.55 29.05 4.7 29.15 5.1 28.15 5.6 L28.1 4.7 M23.0 2.15 L23.05 3.05 23.0 6.85 23.1 7.95 Q24.5 7.5 25.4 6.25 26.3 5.0 26.4 3.6 L26.4 3.0 Q26.2 2.2 25.55 1.8 25.15 1.45 24.45 1.5 23.8 1.6 23.0 2.15 M28.15 2.5 L28.55 2.4 28.8 2.45 28.75 2.7 28.15 3.65 28.2 3.05 28.15 2.5 M26.7 1.55 L26.75 2.8 26.85 7.35 27.2 7.3 Q28.2 7.1 28.8 6.55 L29.8 5.55 Q30.25 4.85 30.15 4.3 L30.05 4.05 Q29.85 3.5 29.05 3.7 30.1 2.45 29.95 1.4 29.8 0.6 28.75 0.8 L28.5 0.8 Q28.1 0.9 27.65 1.15 L26.7 1.55" fill="#484848" fill-rule="evenodd" stroke="none"/>
    <path d="M30.55 -23.15 L35.6 -22.65 Q43.2 -21.5 49.1 -17.6 52.9 -15.15 55.3 -12.45 L56.2 -11.35 59.2 -6.55 Q59.5 -4.7 59.3 -2.8 L59.3 -2.65 59.3 -2.45 59.25 -2.3 59.25 -2.1 59.25 -2.0 58.7 2.85 Q58.1 7.25 57.3 10.05 L57.25 10.1 57.1 10.5 Q62.3 11.65 72.0 16.95 L82.35 22.15 Q85.9 23.9 86.9 24.85 L86.85 24.85 Q87.9 25.75 87.3 26.45 L86.2 29.05 85.85 29.4 Q85.0 29.85 81.15 29.35 60.75 27.8 44.8 31.2 37.1 32.75 31.3 32.85 L31.25 32.85 Q24.65 32.9 20.1 31.15 L5.3 25.05 5.35 25.05 2.35 23.8 -5.1 20.5 -5.6 20.3 -5.9 20.05 -6.05 19.65 -6.1 18.6 -6.3 16.15 -6.3 16.1 -6.3 16.0 -6.3 15.9 -6.55 12.35 -6.6 12.0 Q-7.35 7.05 -7.25 2.95 -7.1 -5.4 -3.65 -10.55 -2.3 -12.6 -0.35 -14.15 8.5 -21.7 23.75 -23.0 L24.65 -23.05 27.3 -23.2 30.55 -23.15 M25.6 -21.6 L24.1 -21.5 23.9 -21.5 Q18.5 -21.45 10.3 -18.6 L9.5 -18.3 9.5 -18.25 Q4.4 -16.25 0.6 -13.0 L-1.3 -11.15 -3.2 -8.35 Q-7.1 -1.05 -5.05 12.1 L-5.05 12.15 -4.8 15.25 -4.7 15.25 2.7 16.0 2.75 16.0 14.8 17.05 30.55 17.6 38.65 17.25 47.45 15.85 Q53.4 14.2 55.25 11.2 L55.35 10.75 55.85 9.65 56.2 8.2 57.2 2.85 57.75 -2.15 57.75 -2.3 57.8 -2.7 57.8 -2.85 57.8 -2.9 57.8 -2.95 Q57.75 -4.95 57.05 -6.85 L56.2 -8.65 53.65 -12.0 50.45 -14.85 48.3 -16.35 Q44.45 -18.85 39.9 -20.2 35.5 -21.45 30.5 -21.65 L27.9 -21.7 25.85 -21.6 25.6 -21.6 M-4.55 19.1 L2.4 22.15 2.95 22.4 5.9 23.65 20.65 29.75 Q24.95 31.4 31.25 31.35 36.95 31.25 44.5 29.75 60.65 26.3 81.3 27.85 L81.35 27.85 84.95 28.1 85.4 27.05 82.2 26.8 82.05 26.8 Q61.5 25.2 45.35 28.65 28.9 32.1 20.35 28.5 L20.3 28.5 7.05 22.95 5.4 22.25 2.3 20.75 2.3 20.8 -4.7 17.2 -4.55 19.1 M66.1 24.85 L82.0 25.3 82.45 25.3 85.35 25.55 Q84.25 24.75 81.7 23.5 L71.3 18.3 71.3 18.25 Q62.0 13.2 56.95 12.0 L56.6 11.9 55.65 13.3 Q52.9 16.25 46.1 17.7 L42.3 18.35 38.8 18.75 Q25.95 19.85 2.6 17.5 L-1.5 17.15 3.0 19.45 4.45 20.15 4.4 20.15 4.9 20.4 5.75 20.75 6.0 20.85 7.6 21.5 10.8 22.9 12.65 23.65 20.9 27.1 Q29.2 30.5 45.05 27.2 L48.55 26.5 52.05 25.95 66.1 24.85 M-0.15 -12.65 L-0.35 -12.65 -0.4 -12.55 -0.35 -12.55 -0.15 -12.65" fill="#070707" fill-rule="evenodd" stroke="none"/>
    <path d="M57.05 -6.85 Q57.75 -4.95 57.8 -2.95 L57.8 -2.9 57.8 -2.85 57.8 -2.7 57.75 -2.3 57.75 -2.15 57.2 2.85 56.2 8.2 55.85 9.65 55.35 10.75 55.25 11.2 Q53.4 14.2 47.45 15.85 L47.95 15.5 50.55 12.9 53.4 8.65 53.5 8.65 53.9 8.45 54.1 8.0 54.0 7.7 53.9 7.7 55.3 4.3 55.7 3.15 56.2 3.15 56.5 2.8 56.95 1.9 57.3 1.05 Q57.25 -0.25 56.6 -0.7 56.95 -3.05 56.9 -5.4 56.9 -6.35 57.05 -6.85 M-4.55 19.1 L-4.7 17.2 2.3 20.8 2.3 20.75 5.4 22.25 7.05 22.95 20.3 28.5 20.35 28.5 Q28.9 32.1 45.35 28.65 61.5 25.2 82.05 26.8 L82.2 26.8 85.4 27.05 84.95 28.1 81.35 27.85 81.3 27.85 Q60.65 26.3 44.5 29.75 36.95 31.25 31.25 31.35 24.95 31.4 20.65 29.75 L5.9 23.65 2.95 22.4 2.4 22.15 -4.55 19.1" fill="#191919" fill-rule="evenodd" stroke="none"/>
    <path d="M32.35 -27.95 L25.0 -27.7 24.45 -28.2 22.5 -28.9 20.5 -29.05 20.25 -29.25 18.95 -30.45 Q26.25 -29.75 32.35 -27.95 M9.85 -30.8 L16.7 -29.85 16.55 -29.55 16.65 -29.25 17.3 -29.0 17.75 -28.85 Q8.9 -28.7 3.2 -27.25 -6.85 -24.6 -12.35 -18.15 L-14.25 -15.4 Q-15.4 -13.1 -15.5 -9.95 L-15.45 -8.4 -16.05 -7.0 Q-18.2 -1.35 -18.2 7.6 L-21.65 5.25 -21.8 5.1 -22.55 4.35 -23.25 3.45 -23.1 1.65 -23.1 1.45 -23.2 0.85 -23.2 0.9 Q-26.0 -17.05 -14.4 -24.45 -4.7 -30.6 9.85 -30.8 M18.0 -27.65 L19.0 -27.45 Q19.4 -27.1 19.4 -26.05 18.0 -26.3 16.05 -26.1 L15.7 -26.05 Q10.25 -25.3 3.5 -23.0 -2.45 -20.9 -5.9 -18.45 L-7.3 -17.35 Q-10.6 -14.65 -12.8 -10.85 -14.05 -8.75 -14.9 -6.25 L-15.15 -7.1 -15.15 -9.1 -13.0 -12.9 Q-9.9 -17.5 -6.1 -20.05 -4.0 -21.45 0.0 -23.05 L7.5 -25.65 11.35 -26.65 16.65 -27.55 16.95 -27.55 17.15 -27.6 17.4 -27.6 17.6 -27.65 18.0 -27.65 M30.45 -26.5 L34.4 -26.55 36.65 -26.5 Q42.55 -24.2 47.25 -20.7 52.6 -16.7 55.3 -12.45 52.9 -15.15 49.1 -17.6 43.2 -21.5 35.6 -22.65 L34.35 -24.0 32.5 -25.4 31.0 -26.3 30.45 -26.5 M23.85 -27.7 L24.0 -27.35 Q24.2 -26.65 23.7 -26.15 L22.7 -25.95 21.9 -26.15 Q21.45 -26.35 21.3 -26.85 21.15 -27.2 21.3 -27.55 21.5 -27.95 21.9 -27.85 L21.95 -28.0 23.45 -27.85 23.85 -27.7 M-7.25 2.95 Q-7.35 7.05 -6.6 12.0 -12.9 10.15 -16.95 8.2 -17.35 0.6 -15.1 -5.8 L-15.05 -5.9 -14.2 -3.55 Q-12.2 0.45 -7.25 2.95" fill="#2132ab" fill-rule="evenodd" stroke="none"/>
    <path d="M18.95 -30.45 L20.25 -29.25 20.5 -29.05 22.5 -28.9 24.45 -28.2 25.0 -27.7 32.35 -27.95 32.55 -27.9 32.7 -27.85 33.75 -27.55 36.25 -26.65 36.65 -26.5 34.4 -26.55 30.45 -26.5 29.35 -26.5 27.5 -26.4 25.8 -26.35 25.35 -26.35 Q25.2 -25.75 24.5 -25.3 L24.85 -25.55 24.9 -25.45 25.15 -25.2 23.7 -24.6 23.5 -25.0 22.95 -25.0 21.45 -25.45 19.95 -25.95 19.5 -26.05 19.4 -26.05 Q19.4 -27.1 19.0 -27.45 L18.0 -27.65 19.15 -27.75 19.2 -28.0 Q18.55 -28.6 17.75 -28.85 L17.3 -29.0 16.65 -29.25 16.55 -29.55 16.7 -29.85 9.85 -30.8 16.55 -30.65 16.8 -30.6 18.95 -30.45 M23.85 -27.7 L23.45 -27.85 21.95 -28.0 21.9 -27.85 Q21.5 -27.95 21.3 -27.55 21.15 -27.2 21.3 -26.85 21.45 -26.35 21.9 -26.15 L22.7 -25.95 23.7 -26.15 Q24.2 -26.65 24.0 -27.35 L23.85 -27.7 M-15.15 -9.1 L-15.15 -7.1 -14.9 -6.25 -15.05 -5.9 -15.1 -5.8 Q-17.35 0.6 -16.95 8.2 L-18.2 7.6 Q-18.2 -1.35 -16.05 -7.0 L-15.45 -8.4 -15.15 -9.1" fill="#172480" fill-rule="evenodd" stroke="none"/>
    <path d="M32.35 -27.95 Q26.25 -29.75 18.95 -30.45 L16.8 -30.6 16.55 -30.65 9.85 -30.8 Q-4.7 -30.6 -14.4 -24.45 -26.0 -17.05 -23.2 0.9 L-23.2 0.85 -23.1 1.45 -23.1 1.65 -23.25 3.45 -23.7 8.45 -23.7 8.55 Q-23.8 9.65 -22.65 11.05 L-22.6 11.1 Q-18.85 15.2 -6.1 18.6 L-6.05 19.65 -5.95 20.0 -5.65 20.25 -5.6 20.3 Q-19.75 16.65 -23.75 12.05 -25.5 10.0 -25.2 8.35 L-24.6 1.65 -24.6 1.6 -24.65 1.15 -24.7 1.15 Q-27.7 -17.85 -15.2 -25.7 -3.05 -33.45 16.65 -32.15 36.3 -30.85 48.15 -21.9 58.0 -14.55 59.2 -6.55 L56.2 -11.35 55.3 -12.45 Q52.6 -16.7 47.25 -20.7 42.55 -24.2 36.65 -26.5 L36.25 -26.65 33.75 -27.55 32.7 -27.85 32.55 -27.9 32.35 -27.95" fill="#111c66" fill-rule="evenodd" stroke="none"/>
    <path d="M18.95 -18.5 L18.15 -18.7 18.15 -19.0 Q18.1 -19.8 18.85 -20.05 19.55 -20.2 19.6 -19.25 L19.25 -18.6 19.05 -18.6 18.95 -18.5 M14.5 -15.65 Q14.55 -13.95 13.05 -13.95 11.9 -13.95 11.5 -14.85 L11.3 -15.7 Q11.25 -17.1 12.9 -17.1 14.45 -17.1 14.5 -15.65 M21.05 9.45 L23.05 9.0 31.25 7.7 32.9 7.5 36.9 7.05 40.05 7.05 44.35 7.05 Q46.55 7.15 46.55 8.0 46.55 8.3 41.5 10.3 35.7 12.65 34.4 13.35 L36.05 12.95 40.95 12.5 43.6 12.65 45.3 13.05 Q46.55 13.45 46.55 13.95 46.6 14.35 45.9 14.7 L44.25 15.75 43.6 16.05 42.75 15.95 43.3 15.3 44.55 14.2 43.6 13.9 42.2 13.75 40.95 13.7 34.95 14.35 33.2 14.75 32.45 14.9 30.95 14.7 30.95 14.65 30.95 14.3 Q30.95 13.95 31.7 13.35 L33.15 12.4 35.3 11.25 41.55 8.45 37.2 8.55 37.1 8.55 37.05 8.65 37.0 8.65 36.3 8.7 33.2 8.95 31.2 9.15 28.85 9.4 23.85 10.15 22.85 10.25 22.85 10.35 Q19.8 11.0 18.35 11.7 L15.25 12.95 15.05 12.5 Q15.0 10.85 21.05 9.45 M41.05 -16.45 Q41.05 -16.05 40.25 -15.4 L39.0 -15.4 Q37.7 -16.2 37.7 -17.6 37.65 -19.35 39.35 -19.1 41.0 -18.9 41.05 -16.45 M24.3 -18.0 L24.15 -16.95 Q23.85 -16.15 23.05 -16.15 21.95 -16.15 22.0 -17.7 21.95 -18.95 23.15 -19.0 24.3 -19.05 24.3 -18.0 M47.1 -14.1 Q47.1 -15.4 47.8 -15.7 L48.2 -15.75 Q49.2 -15.75 49.2 -14.1 L48.9 -13.6 Q48.6 -13.3 48.15 -13.3 47.5 -13.3 47.25 -13.65 L47.1 -14.1 M45.35 -1.75 L45.25 -1.4 44.8 -1.3 Q44.2 -1.3 44.05 -1.75 L44.05 -2.4 Q45.3 -2.8 45.35 -1.75 M54.0 -5.9 L52.65 -6.7 52.5 -6.85 Q52.35 -7.0 52.35 -7.3 52.3 -8.45 53.4 -8.25 54.55 -8.0 54.55 -7.05 54.6 -6.4 54.0 -5.9 M55.7 3.15 L54.9 3.1 53.95 2.0 53.9 1.05 Q53.8 -1.15 55.5 -1.05 L56.4 -0.8 56.6 -0.7 Q57.25 -0.25 57.3 1.05 L56.95 1.9 56.5 2.8 56.2 3.15 55.7 3.15 M48.05 7.65 L47.45 7.0 47.4 6.25 Q47.35 4.7 48.7 4.8 49.2 4.85 49.5 5.1 49.95 5.45 49.95 6.25 50.0 7.75 48.75 7.75 L48.05 7.65 M22.05 15.25 Q21.9 16.5 20.75 16.5 19.7 16.5 19.25 15.6 L19.0 14.75 19.0 14.65 Q19.0 13.7 20.55 13.55 22.0 13.4 22.05 14.75 L22.05 15.25 M10.65 5.65 L10.35 6.2 9.7 6.5 Q9.2 6.5 9.1 6.2 L9.1 5.85 Q9.1 5.1 9.95 4.95 10.65 4.85 10.65 5.65 M1.65 8.8 Q2.1 8.25 3.0 8.15 4.95 7.95 5.0 10.05 L4.8 11.45 4.5 12.3 Q4.05 12.65 3.1 12.65 2.0 12.65 1.45 11.75 1.1 11.2 1.1 10.65 1.05 9.4 1.65 8.8" fill="#8130f0" fill-rule="evenodd" stroke="none"/>
    <path d="M52.5 -6.85 L52.65 -6.7 54.0 -5.9 53.3 -5.95 52.55 -6.65 52.5 -6.85" fill="#7f34b1" fill-rule="evenodd" stroke="none"/>
    <path d="M43.6 16.05 L42.45 16.6 Q42.45 16.4 42.75 15.95 L43.6 16.05 M32.45 14.9 L31.7 15.0 31.45 15.0 30.95 14.7 32.45 14.9 M-0.15 -12.65 L-0.35 -12.55 -0.4 -12.55 -0.35 -12.65 -0.15 -12.65" fill="#9141c6" fill-rule="evenodd" stroke="none"/>
  </g>
</svg>
