<?xml version="1.0" encoding="UTF-8" standalone="no"?>
<svg xmlns:ffdec="https://www.free-decompiler.com/flash" xmlns:xlink="http://www.w3.org/1999/xlink" ffdec:objectType="shape" height="64.35px" width="63.4px" xmlns="http://www.w3.org/2000/svg">
  <g transform="matrix(1.0, 0.0, 0.0, 1.0, 5.0, 49.45)">
    <path d="M50.45 -46.95 L51.7 -45.65 50.4 -45.15 42.3 -42.15 17.85 -33.05 Q17.0 -33.95 16.1 -34.3 L45.85 -45.25 49.35 -46.55 50.45 -46.95 M28.5 -43.9 L28.3 -43.8 27.8 -43.5 27.3 -43.25 26.85 -42.95 Q24.8 -41.55 23.75 -39.45 L23.65 -39.45 21.2 -39.95 20.65 -40.1 20.6 -40.15 21.0 -40.8 21.05 -40.85 21.35 -41.3 21.95 -42.1 21.95 -42.15 22.15 -42.4 22.45 -42.7 23.55 -43.85 24.3 -44.4 25.1 -44.9 25.9 -44.75 28.5 -43.9" fill="#ffffff" fill-rule="evenodd" stroke="none"/>
    <path d="M16.1 -34.3 L15.5 -34.45 13.85 -34.6 3.9 -35.0 Q5.3 -36.1 9.4 -37.5 L9.45 -37.5 12.85 -38.65 13.15 -38.75 13.05 -38.45 13.05 -38.4 13.25 -38.05 Q13.6 -37.75 15.15 -37.1 L15.1 -37.15 Q16.8 -36.45 17.35 -36.45 L20.9 -37.45 24.25 -38.55 24.55 -38.8 Q25.85 -41.45 28.75 -42.9 31.6 -44.45 35.1 -44.45 L38.1 -44.05 38.45 -44.1 Q40.25 -44.9 43.4 -45.55 L43.75 -45.75 43.8 -46.15 43.6 -46.45 Q42.5 -47.2 40.95 -47.45 L39.5 -47.55 39.4 -47.55 39.3 -47.55 38.95 -47.45 39.1 -47.5 39.85 -47.75 45.4 -47.55 46.25 -46.8 46.3 -46.2 45.85 -45.25 16.1 -34.3 M28.0 -20.55 L25.3 -19.8 Q23.7 -20.0 20.05 -29.25 19.05 -31.75 17.85 -33.05 L42.3 -42.15 38.1 -39.05 Q34.2 -36.1 31.8 -31.9 28.4 -26.0 28.0 -20.55 M31.25 -44.85 L30.5 -44.6 28.5 -43.9 25.9 -44.75 25.1 -44.9 27.4 -45.65 27.95 -45.75 Q28.5 -45.5 29.9 -45.15 L31.25 -44.85 M11.45 -31.75 L12.05 -32.0 13.35 -32.8 17.7 -10.35 Q20.0 2.05 20.3 7.5 L20.3 7.55 20.3 8.85 20.3 8.95 20.3 10.25 Q18.5 5.5 17.55 -0.05 16.85 -4.15 16.35 -10.7 15.9 -16.1 14.35 -21.4 L12.75 -26.2 Q11.5 -30.15 11.45 -31.75 M-0.75 -14.55 L-0.3 -15.0 0.3 -15.15 6.15 -14.8 6.45 -14.6 7.15 -14.55 7.45 -14.2 5.95 -13.05 3.7 -11.35 2.35 -9.8 Q1.2 -8.55 0.85 -8.55 -0.2 -8.55 -0.9 -10.0 L-1.4 -11.75 Q-1.35 -13.7 -0.75 -14.55 M40.2 -17.45 L40.0 -16.45 Q38.25 -12.4 24.15 -10.2 L24.05 -10.25 23.35 -10.7 25.65 -11.8 30.7 -13.9 Q33.65 -14.9 40.2 -17.45 M53.3 -22.85 L53.3 -22.8 53.3 -22.55 53.3 -22.5 53.3 -22.4 53.2 -21.95 Q52.8 -20.65 51.4 -19.7 49.5 -18.5 46.6 -17.7 L43.65 -17.6 43.2 -17.95 42.95 -18.25 45.65 -19.6 Q50.9 -22.15 53.3 -22.85" fill="#e0e0e0" fill-rule="evenodd" stroke="none"/>
    <path d="M39.85 -47.75 L47.15 -48.45 47.7 -48.4 48.6 -47.4 49.35 -46.55 45.85 -45.25 46.3 -46.2 46.25 -46.8 45.4 -47.55 39.85 -47.75 M34.25 -22.3 L28.0 -20.55 Q28.4 -26.0 31.8 -31.9 34.2 -36.1 38.1 -39.05 L42.3 -42.15 50.4 -45.15 52.5 -41.7 54.2 -37.45 55.2 -34.0 Q55.2 -32.55 51.7 -30.25 48.7 -28.3 45.9 -27.3 41.65 -25.75 39.75 -24.5 L36.65 -23.35 Q34.85 -22.7 34.25 -22.3 M39.5 -46.55 L41.8 -46.2 38.75 -45.25 38.45 -45.5 36.7 -46.0 39.5 -46.55 M27.95 -45.75 L30.45 -45.95 31.7 -45.9 32.8 -45.8 32.85 -45.8 33.95 -45.65 34.25 -45.6 34.7 -45.5 34.9 -45.5 35.1 -45.45 33.05 -45.3 31.25 -44.85 29.9 -45.15 Q28.5 -45.5 27.95 -45.75 M19.65 -39.4 L19.7 -39.35 19.75 -39.35 20.35 -39.15 21.4 -38.95 21.9 -39.0 Q22.6 -39.0 22.55 -38.75 L22.0 -38.3 Q20.75 -37.6 18.85 -37.5 16.9 -37.45 15.5 -38.05 L14.85 -38.3 16.3 -38.8 18.45 -39.45 18.75 -39.55 19.65 -39.4 M19.6 -40.4 L18.8 -40.55 19.9 -40.85 19.6 -40.4 M3.55 -32.75 Q4.0 -32.5 4.75 -32.2 L7.35 -31.75 9.8 -31.55 11.45 -31.75 Q11.5 -30.15 12.75 -26.2 L14.35 -21.4 Q15.9 -16.1 16.35 -10.7 16.85 -4.15 17.55 -0.05 18.5 5.5 20.3 10.25 L20.3 11.05 20.65 10.85 20.8 10.5 Q21.35 3.9 18.7 -10.55 L17.8 -15.3 19.65 -15.95 22.35 -16.8 28.35 -18.15 38.5 -20.55 Q40.3 -21.0 43.0 -22.0 L47.4 -23.35 41.0 -21.15 40.7 -20.95 40.4 -20.95 40.2 -20.9 Q38.15 -20.05 31.7 -18.0 L19.5 -14.15 19.4 -14.1 19.3 -14.15 18.9 -14.1 19.35 -10.9 20.05 -5.95 20.65 0.0 21.45 5.4 21.65 9.2 21.75 9.5 21.95 9.65 23.7 10.2 23.9 10.2 24.05 10.2 34.1 5.75 34.15 5.75 Q38.1 3.5 40.25 1.7 43.0 -0.8 43.3 -3.05 50.85 -5.5 52.65 -7.95 54.0 -9.75 54.25 -14.8 54.4 -9.5 51.7 -6.5 50.6 -5.3 40.05 2.55 33.5 7.45 26.55 10.75 L25.3 11.35 22.75 11.75 20.25 11.8 Q19.65 11.4 18.1 9.4 17.2 8.25 16.15 7.75 16.1 3.45 15.45 -1.0 14.7 -5.8 14.7 -10.65 14.7 -12.05 15.3 -15.35 L15.3 -15.45 15.25 -15.65 15.15 -15.8 15.1 -15.85 15.0 -15.9 15.0 -15.95 14.65 -16.1 14.6 -16.1 9.25 -16.25 10.65 -16.25 8.2 -17.0 Q2.7 -18.75 2.7 -19.8 L3.2 -22.75 Q3.2 -25.05 3.35 -25.75 4.05 -29.4 4.05 -31.6 L4.05 -32.5 Q3.75 -32.65 3.55 -32.75 M54.3 -26.5 L54.35 -24.5 54.35 -24.45 54.35 -22.45 54.3 -22.6 54.3 -22.8 54.3 -22.85 54.15 -25.05 54.0 -25.4 53.65 -25.55 53.3 -25.4 50.0 -24.25 51.75 -25.05 Q53.5 -25.85 54.3 -26.5 M0.25 -15.45 L9.35 -15.3 9.45 -15.3 13.35 -14.9 13.35 -14.75 9.55 -10.7 Q7.35 -8.4 5.2 -7.1 L2.1 -7.1 Q-0.4 -7.15 -1.5 -8.8 -2.2 -9.9 -2.2 -11.25 -2.2 -13.05 -0.75 -14.55 -1.35 -13.7 -1.4 -11.75 L-0.9 -10.0 Q-0.2 -8.55 0.85 -8.55 1.2 -8.55 2.35 -9.8 L3.7 -11.35 5.95 -13.05 7.45 -14.2 7.15 -14.55 6.45 -14.6 6.15 -14.8 0.3 -15.15 -0.3 -15.0 0.25 -15.45 M9.4 -5.75 L10.9 0.5 Q11.55 3.35 11.55 6.15 L11.3 11.0 Q10.65 13.2 7.9 13.2 4.4 13.2 0.95 9.8 -1.25 7.65 -2.1 5.95 L-2.9 2.1 -3.55 -2.2 Q-3.85 -5.55 -2.6 -5.55 L-1.5 -5.25 -1.1 -5.05 -0.25 -2.7 0.95 0.45 1.5 3.35 Q1.8 5.15 2.6 6.3 2.9 6.2 2.9 5.4 2.9 2.55 2.15 -4.45 L3.1 -4.35 5.95 -4.35 Q7.15 -4.5 9.4 -5.75 M23.35 -10.7 L21.25 -12.0 Q20.55 -12.35 20.0 -13.25 L32.0 -17.05 40.15 -19.8 40.15 -18.3 40.15 -18.2 40.2 -17.45 Q33.65 -14.9 30.7 -13.9 L25.65 -11.8 23.35 -10.7 M32.25 -10.1 L32.3 -9.8 32.15 -8.8 31.95 -7.65 32.8 2.3 32.65 3.75 Q32.25 4.3 30.35 4.95 L26.0 7.3 Q25.1 6.45 25.1 -6.85 25.1 -7.8 27.9 -8.95 30.55 -10.05 32.25 -10.1 M39.2 -6.45 Q39.2 1.35 34.0 2.55 L33.7 2.4 33.7 -4.0 Q33.35 -5.25 33.35 -8.7 33.35 -9.7 33.5 -10.05 33.85 -10.75 35.2 -11.0 L36.9 -11.9 Q37.9 -12.45 38.25 -11.45 L39.15 -8.6 39.2 -6.45 M56.95 -27.8 L57.15 -27.45 57.15 -27.25 55.35 -27.2 55.2 -27.2 54.8 -29.4 55.45 -29.85 56.9 -27.85 56.95 -27.8 M55.3 -26.2 L55.9 -26.15 55.9 -25.95 56.05 -24.3 55.35 -20.05 55.35 -19.95 55.35 -24.5 55.3 -26.2 M42.95 -18.25 L41.65 -19.9 41.6 -19.95 41.35 -20.2 53.2 -24.35 53.3 -22.85 Q50.9 -22.15 45.65 -19.6 L42.95 -18.25 M51.2 -7.85 L51.15 -7.8 49.75 -7.8 49.7 -7.85 49.7 -16.6 Q50.95 -17.15 52.4 -18.3 L52.7 -17.9 52.3 -17.05 52.3 -12.75 52.1 -10.3 Q51.9 -8.8 51.2 -7.85 M48.8 -7.9 Q48.05 -5.7 45.65 -5.7 L45.1 -5.75 44.75 -10.25 44.35 -15.6 Q44.35 -16.1 44.9 -16.3 L48.95 -16.35 Q48.75 -15.7 48.8 -14.65 L49.1 -11.75 48.8 -8.8 48.8 -7.9" fill="#b4b4b4" fill-rule="evenodd" stroke="none"/>
    <path d="M47.7 -48.4 L49.3 -47.8 50.45 -46.95 49.35 -46.55 48.6 -47.4 47.7 -48.4 M51.7 -45.65 Q54.55 -42.15 57.4 -34.15 L56.9 -33.15 56.95 -33.15 55.3 -30.95 55.25 -30.9 53.95 -30.0 Q52.0 -28.95 48.95 -27.6 44.95 -25.75 41.25 -24.4 L37.6 -23.2 37.65 -23.2 34.85 -22.45 34.8 -22.45 34.25 -22.3 Q34.85 -22.7 36.65 -23.35 L39.75 -24.5 Q41.65 -25.75 45.9 -27.3 48.7 -28.3 51.7 -30.25 55.2 -32.55 55.2 -34.0 L54.2 -37.45 52.5 -41.7 50.4 -45.15 51.7 -45.65 M17.8 -15.3 L17.65 -15.95 14.25 -32.35 Q14.5 -33.55 15.4 -33.2 L16.15 -32.4 Q17.3 -30.8 19.7 -25.8 23.15 -18.7 25.3 -18.8 L25.45 -18.8 37.9 -22.25 Q50.15 -26.0 54.2 -29.15 L54.3 -27.5 54.3 -26.5 Q53.5 -25.85 51.75 -25.05 L50.0 -24.25 47.4 -23.35 43.0 -22.0 Q40.3 -21.0 38.5 -20.55 L28.35 -18.15 22.35 -16.8 19.65 -15.95 17.8 -15.3 M25.3 11.35 Q21.55 13.0 19.5 13.45 L18.45 13.55 14.7 13.35 Q15.55 12.65 15.9 11.5 L16.15 8.85 16.15 8.6 16.15 7.75 Q17.2 8.25 18.1 9.4 19.65 11.4 20.25 11.8 L22.75 11.75 25.3 11.35 M9.25 -16.25 L7.85 -16.3 -0.05 -16.45 1.45 -24.85 Q2.6 -31.2 3.1 -33.0 L3.35 -32.85 3.4 -32.8 3.55 -32.75 Q3.75 -32.65 4.05 -32.5 L4.05 -31.6 Q4.05 -29.4 3.35 -25.75 3.2 -25.05 3.2 -22.75 L2.7 -19.8 Q2.7 -18.75 8.2 -17.0 L10.65 -16.25 9.25 -16.25 M9.45 -15.3 L10.7 -15.25 13.6 -15.15 14.0 -15.1 12.45 -12.85 Q9.85 -9.4 8.0 -8.05 L7.45 -7.7 7.0 -7.45 5.2 -7.1 2.75 -6.55 2.0 -6.55 0.6 -6.6 -1.8 -7.1 -1.75 -7.1 Q-3.35 -7.85 -3.35 -9.85 -3.35 -12.8 -1.5 -14.6 L-0.45 -15.45 0.25 -15.45 -0.3 -15.0 -0.75 -14.55 Q-2.2 -13.05 -2.2 -11.25 -2.2 -9.9 -1.5 -8.8 -0.4 -7.15 2.1 -7.1 L5.2 -7.1 Q7.35 -8.4 9.55 -10.7 L13.35 -14.75 13.35 -14.9 9.45 -15.3 M9.4 -5.75 Q7.15 -4.5 5.95 -4.35 L3.1 -4.35 2.15 -4.45 Q2.9 2.55 2.9 5.4 2.9 6.2 2.6 6.3 1.8 5.15 1.5 3.35 L0.95 0.45 -0.25 -2.7 -1.1 -5.05 -1.5 -5.25 -2.6 -5.55 Q-3.85 -5.55 -3.55 -2.2 L-2.9 2.1 -2.1 5.95 Q-1.25 7.65 0.95 9.8 4.4 13.2 7.9 13.2 10.65 13.2 11.3 11.0 L11.55 6.15 Q11.55 3.35 10.9 0.5 L9.4 -5.75 M14.95 11.2 Q14.45 12.7 12.8 13.25 L12.75 13.25 Q4.75 15.3 0.4 12.3 -3.95 9.25 -3.75 -7.55 -3.25 -6.7 -2.2 -6.2 -0.85 -5.55 2.0 -5.55 6.15 -5.55 8.85 -6.8 11.55 -8.05 13.95 -13.25 L13.7 -10.65 Q13.7 -5.7 14.45 -0.85 15.15 3.95 15.15 8.6 L14.95 11.2 M24.1 -9.2 Q39.0 -11.45 40.95 -16.05 L41.3 -10.25 41.85 -6.85 42.3 -3.6 42.3 -3.5 42.3 -3.45 Q42.15 -1.4 39.6 0.95 37.5 2.7 33.7 4.85 L33.65 4.9 24.3 9.05 23.55 0.25 22.4 -8.1 22.0 -10.1 21.8 -9.8 21.5 -9.55 21.4 -9.2 Q22.2 -4.8 22.8 1.5 L23.3 9.05 22.8 8.9 22.7 8.7 22.45 5.25 21.65 -0.1 21.05 -6.05 20.35 -11.4 20.8 -11.1 20.75 -11.1 23.75 -9.25 24.1 -9.2 M39.2 -6.45 L39.15 -8.6 38.25 -11.45 Q37.9 -12.45 36.9 -11.9 L35.2 -11.0 Q33.85 -10.75 33.5 -10.05 33.35 -9.7 33.35 -8.7 33.35 -5.25 33.7 -4.0 L33.7 2.4 34.0 2.55 Q39.2 1.35 39.2 -6.45 M32.25 -10.1 Q30.55 -10.05 27.9 -8.95 25.1 -7.8 25.1 -6.85 25.1 6.45 26.0 7.3 L30.35 4.95 Q32.25 4.3 32.65 3.75 L32.8 2.3 31.95 -7.65 32.15 -8.8 32.3 -9.8 32.25 -10.1 M51.15 -7.8 Q49.0 -5.95 43.3 -4.1 L42.85 -7.0 42.85 -7.05 42.3 -10.3 41.85 -18.1 42.4 -17.35 Q43.4 -15.85 46.85 -16.75 49.9 -17.6 51.95 -18.85 52.95 -19.55 53.55 -20.4 L53.55 -20.25 53.3 -17.0 Q53.3 -10.6 51.85 -8.55 L51.2 -7.85 Q51.9 -8.8 52.1 -10.3 L52.3 -12.75 52.3 -17.05 52.7 -17.9 52.4 -18.3 Q50.95 -17.15 49.7 -16.6 L49.7 -7.85 49.75 -7.8 51.15 -7.8 M48.8 -7.9 L48.8 -8.8 49.1 -11.75 48.8 -14.65 Q48.75 -15.7 48.95 -16.35 L44.9 -16.3 Q44.35 -16.1 44.35 -15.6 L44.75 -10.25 45.1 -5.75 45.65 -5.7 Q48.05 -5.7 48.8 -7.9" fill="#8a8a8a" fill-rule="evenodd" stroke="none"/>
    <path d="M5.1 -33.15 L3.55 -33.7 3.45 -34.0 12.8 -33.6 Q11.55 -32.55 9.8 -32.55 L7.5 -32.75 7.45 -32.75 5.05 -33.15 5.1 -33.15" fill="#616161" fill-rule="evenodd" stroke="none"/>
    <path d="M39.85 -47.75 L39.1 -47.5 38.95 -47.45 39.3 -47.55 39.4 -47.55 39.5 -47.55 40.95 -47.45 Q42.5 -47.2 43.6 -46.45 L43.8 -46.15 43.75 -45.75 43.4 -45.55 Q40.25 -44.9 38.45 -44.1 L38.1 -44.05 35.1 -44.45 Q31.6 -44.45 28.75 -42.9 25.85 -41.45 24.55 -38.8 L24.25 -38.55 20.9 -37.45 17.35 -36.45 Q16.8 -36.45 15.1 -37.15 L15.15 -37.1 Q13.6 -37.75 13.25 -38.05 L13.05 -38.4 13.05 -38.45 13.15 -38.75 12.85 -38.65 9.45 -37.5 9.4 -37.5 Q5.3 -36.1 3.9 -35.0 L13.85 -34.6 15.5 -34.45 16.1 -34.3 Q17.0 -33.95 17.85 -33.05 19.05 -31.75 20.05 -29.25 23.7 -20.0 25.3 -19.8 L28.0 -20.55 34.25 -22.3 34.8 -22.45 34.85 -22.45 37.65 -23.2 37.6 -23.2 41.25 -24.4 Q44.95 -25.75 48.95 -27.6 52.0 -28.95 53.95 -30.0 L55.25 -30.9 55.3 -30.95 56.95 -33.15 56.9 -33.15 57.4 -34.15 Q54.55 -42.15 51.7 -45.65 L50.45 -46.95 49.3 -47.8 47.7 -48.4 47.15 -48.45 39.85 -47.75 M39.5 -46.55 L36.7 -46.0 38.45 -45.5 38.75 -45.25 41.8 -46.2 39.5 -46.55 M34.5 -46.9 L38.6 -48.4 Q41.45 -49.45 47.15 -49.45 49.35 -49.5 51.5 -47.35 L52.7 -46.0 Q55.6 -42.25 58.4 -34.35 L58.4 -34.2 Q58.45 -33.85 57.8 -32.65 57.1 -31.45 56.2 -30.5 L57.7 -28.45 Q58.2 -27.8 58.15 -27.45 L58.15 -26.75 58.0 -26.4 Q57.85 -26.25 57.65 -26.25 L57.5 -26.25 56.9 -26.2 56.9 -26.15 57.05 -24.3 56.35 -19.85 55.25 -14.85 Q55.45 -9.05 52.45 -5.8 51.3 -4.6 40.65 3.35 34.0 8.35 27.0 11.65 20.8 14.55 18.4 14.55 L12.95 14.25 Q4.35 16.1 -0.2 12.8 -4.8 9.45 -5.0 -2.7 L-4.3 -11.45 -4.25 -11.15 Q-3.8 -14.45 -1.05 -16.25 L0.45 -25.0 0.45 -25.05 Q1.95 -33.1 2.35 -34.0 L2.5 -34.15 2.3 -34.45 Q2.25 -34.6 2.35 -34.75 3.1 -36.45 9.1 -38.45 L20.75 -42.2 21.15 -42.75 21.2 -42.75 21.35 -43.0 22.2 -43.95 23.9 -45.35 Q26.35 -46.95 30.45 -46.95 L32.55 -46.85 32.95 -46.8 33.9 -46.7 34.5 -46.9 M28.5 -43.9 L30.5 -44.6 31.25 -44.85 33.05 -45.3 35.1 -45.45 34.9 -45.5 34.7 -45.5 34.25 -45.6 33.95 -45.65 32.85 -45.8 32.8 -45.8 31.7 -45.9 30.45 -45.95 27.95 -45.75 27.4 -45.65 25.1 -44.9 24.3 -44.4 23.55 -43.85 22.45 -42.7 22.15 -42.4 21.95 -42.15 21.95 -42.1 21.35 -41.3 21.05 -40.85 21.0 -40.8 20.6 -40.15 20.65 -40.1 21.2 -39.95 23.65 -39.45 23.75 -39.45 Q24.8 -41.55 26.85 -42.95 L27.3 -43.25 27.8 -43.5 28.3 -43.8 28.5 -43.9 M19.65 -39.4 L18.75 -39.55 18.45 -39.45 16.3 -38.8 14.85 -38.3 15.5 -38.05 Q16.9 -37.45 18.85 -37.5 20.75 -37.6 22.0 -38.3 L22.55 -38.75 Q22.6 -39.0 21.9 -39.0 L21.4 -38.95 20.35 -39.15 19.75 -39.35 19.7 -39.35 19.65 -39.4 M19.6 -40.4 L19.9 -40.85 18.8 -40.55 19.6 -40.4 M5.1 -33.15 L5.05 -33.15 7.45 -32.75 7.5 -32.75 9.8 -32.55 Q11.55 -32.55 12.8 -33.6 L3.45 -34.0 3.55 -33.7 5.1 -33.15 M11.45 -31.75 L9.8 -31.55 7.35 -31.75 4.75 -32.2 Q4.0 -32.5 3.55 -32.75 L3.4 -32.8 3.35 -32.85 3.1 -33.0 Q2.6 -31.2 1.45 -24.85 L-0.05 -16.45 7.85 -16.3 9.25 -16.25 14.6 -16.1 14.65 -16.1 15.0 -15.95 15.0 -15.9 15.1 -15.85 15.15 -15.8 15.25 -15.65 15.3 -15.45 15.3 -15.35 Q14.7 -12.05 14.7 -10.65 14.7 -5.8 15.45 -1.0 16.1 3.45 16.15 7.75 L16.15 8.6 16.15 8.85 15.9 11.5 Q15.55 12.65 14.7 13.35 L18.45 13.55 19.5 13.45 Q21.55 13.0 25.3 11.35 L26.55 10.75 Q33.5 7.45 40.05 2.55 50.6 -5.3 51.7 -6.5 54.4 -9.5 54.25 -14.8 54.0 -9.75 52.65 -7.95 50.85 -5.5 43.3 -3.05 43.0 -0.8 40.25 1.7 38.1 3.5 34.15 5.75 L34.1 5.75 24.05 10.2 23.9 10.2 23.7 10.2 21.95 9.65 21.75 9.5 21.65 9.2 21.45 5.4 20.65 0.0 20.05 -5.95 19.35 -10.9 18.9 -14.1 19.3 -14.15 19.4 -14.1 19.5 -14.15 31.7 -18.0 Q38.15 -20.05 40.2 -20.9 L40.4 -20.95 40.7 -20.95 41.0 -21.15 47.4 -23.35 50.0 -24.25 53.3 -25.4 53.65 -25.55 54.0 -25.4 54.15 -25.05 54.3 -22.85 54.3 -22.8 54.3 -22.6 54.35 -22.45 54.35 -24.45 54.35 -24.5 54.3 -26.5 54.3 -27.5 54.2 -29.15 Q50.15 -26.0 37.9 -22.25 L25.45 -18.8 25.3 -18.8 Q23.15 -18.7 19.7 -25.8 17.3 -30.8 16.15 -32.4 L15.4 -33.2 Q14.5 -33.55 14.25 -32.35 L17.65 -15.95 17.8 -15.3 18.7 -10.55 Q21.35 3.9 20.8 10.5 L20.65 10.85 20.3 11.05 20.3 10.25 20.3 8.95 20.3 8.85 20.3 7.55 20.3 7.5 Q20.0 2.05 17.7 -10.35 L13.35 -32.8 12.05 -32.0 11.45 -31.75 M0.25 -15.45 L-0.45 -15.45 -1.5 -14.6 Q-3.35 -12.8 -3.35 -9.85 -3.35 -7.85 -1.75 -7.1 L-1.8 -7.1 0.6 -6.6 2.0 -6.55 2.75 -6.55 5.2 -7.1 7.0 -7.45 7.45 -7.7 8.0 -8.05 Q9.85 -9.4 12.45 -12.85 L14.0 -15.1 13.6 -15.15 10.7 -15.25 9.45 -15.3 9.35 -15.3 0.25 -15.45 M14.95 11.2 L15.15 8.6 Q15.15 3.95 14.45 -0.85 13.7 -5.7 13.7 -10.65 L13.95 -13.25 Q11.55 -8.05 8.85 -6.8 6.15 -5.55 2.0 -5.55 -0.85 -5.55 -2.2 -6.2 -3.25 -6.7 -3.75 -7.55 -3.95 9.25 0.4 12.3 4.75 15.3 12.75 13.25 L12.8 13.25 Q14.45 12.7 14.95 11.2 M23.35 -10.7 L24.05 -10.25 24.15 -10.2 Q38.25 -12.4 40.0 -16.45 L40.2 -17.45 40.15 -18.2 40.15 -18.3 40.15 -19.8 32.0 -17.05 20.0 -13.25 Q20.55 -12.35 21.25 -12.0 L23.35 -10.7 M24.1 -9.2 L23.75 -9.25 20.75 -11.1 20.8 -11.1 20.35 -11.4 21.05 -6.05 21.65 -0.1 22.45 5.25 22.7 8.7 22.8 8.9 23.3 9.05 22.8 1.5 Q22.2 -4.8 21.4 -9.2 L21.5 -9.55 21.8 -9.8 22.0 -10.1 22.4 -8.1 23.55 0.25 24.3 9.05 33.65 4.9 33.7 4.85 Q37.5 2.7 39.6 0.95 42.15 -1.4 42.3 -3.45 L42.3 -3.5 42.3 -3.6 41.85 -6.85 41.3 -10.25 40.95 -16.05 Q39.0 -11.45 24.1 -9.2 M56.95 -27.8 L56.9 -27.85 55.45 -29.85 54.8 -29.4 55.2 -27.2 55.35 -27.2 57.15 -27.25 57.15 -27.45 56.95 -27.8 M55.3 -26.2 L55.35 -24.5 55.35 -19.95 55.35 -20.05 56.05 -24.3 55.9 -25.95 55.9 -26.15 55.3 -26.2 M42.95 -18.25 L43.2 -17.95 43.65 -17.6 46.6 -17.7 Q49.5 -18.5 51.4 -19.7 52.8 -20.65 53.2 -21.95 L53.3 -22.4 53.3 -22.5 53.3 -22.55 53.3 -22.8 53.3 -22.85 53.2 -24.35 41.35 -20.2 41.6 -19.95 41.65 -19.9 42.95 -18.25 M51.2 -7.85 L51.85 -8.55 Q53.3 -10.6 53.3 -17.0 L53.55 -20.25 53.55 -20.4 Q52.95 -19.55 51.95 -18.85 49.9 -17.6 46.85 -16.75 43.4 -15.85 42.4 -17.35 L41.85 -18.1 42.3 -10.3 42.85 -7.05 42.85 -7.0 43.3 -4.1 Q49.0 -5.95 51.15 -7.8 L51.2 -7.85" fill="#464646" fill-rule="evenodd" stroke="none"/>
  </g>
</svg>
