<?xml version="1.0" encoding="UTF-8" standalone="no"?>
<svg xmlns:ffdec="https://www.free-decompiler.com/flash" xmlns:xlink="http://www.w3.org/1999/xlink" ffdec:objectType="shape" height="87.2px" width="58.55px" xmlns="http://www.w3.org/2000/svg">
  <g transform="matrix(1.0, 0.0, 0.0, 1.0, 37.5, 118.0)">
    <path d="M-36.2 -34.05 Q5.0 -115.1 17.65 -116.95 L19.45 -115.05 Q8.9 -112.75 -31.95 -32.15 L-36.2 -34.05" fill="#b4b4b4" fill-rule="evenodd" stroke="none"/>
    <path d="M-36.2 -34.05 L-31.95 -32.15 Q8.9 -112.75 19.45 -115.05 L17.65 -116.95 Q5.0 -115.1 -36.2 -34.05 M-25.2 -43.05 Q-29.4 -33.35 -31.15 -30.8 L-34.05 -32.15 -37.5 -33.75 Q4.75 -116.95 17.75 -118.0 L18.0 -117.95 18.15 -117.85 20.9 -114.95 21.05 -114.65 21.0 -114.35 20.8 -114.15 20.45 -114.1 Q11.6 -115.7 -25.2 -43.05" fill="#464646" fill-rule="evenodd" stroke="none"/>
  </g>
</svg>
