<?xml version="1.0" encoding="UTF-8" standalone="no"?>
<svg xmlns:ffdec="https://www.free-decompiler.com/flash" xmlns:xlink="http://www.w3.org/1999/xlink" ffdec:objectType="shape" height="16.65px" width="20.5px" xmlns="http://www.w3.org/2000/svg">
  <g transform="matrix(1.0, 0.0, 0.0, 1.0, -31.65, 19.75)">
    <path d="M33.55 -3.4 L33.55 -3.65 33.6 -3.4 33.55 -3.4 M47.45 -14.15 L47.4 -14.25 47.4 -14.35 47.45 -14.15" fill="#562e17" fill-rule="evenodd" stroke="none"/>
    <path d="M38.05 -8.7 L38.0 -8.7 Q37.85 -8.7 37.55 -9.45 L37.1 -10.55 Q32.9 -8.75 32.9 -8.0 32.9 -7.5 33.45 -5.7 L33.95 -3.45 33.8 -3.1 33.5 -3.1 32.6 -3.3 32.1 -3.85 31.9 -5.7 31.65 -8.4 Q31.65 -9.5 32.2 -9.85 L32.3 -9.95 33.15 -10.3 35.45 -11.2 36.35 -11.6 36.85 -11.9 37.35 -11.85 37.6 -11.7 37.9 -11.05 38.1 -9.95 38.2 -9.15 38.05 -8.7 M33.6 -3.4 L33.65 -3.45 Q32.6 -6.6 32.6 -8.05 32.6 -8.65 32.85 -8.8 L33.0 -8.75 36.55 -10.95 36.5 -11.1 36.25 -11.1 34.25 -10.4 33.2 -9.9 33.2 -9.95 Q32.6 -9.7 32.3 -9.3 L32.45 -8.15 32.55 -3.85 Q32.85 -3.4 33.4 -3.4 L33.55 -3.4 33.6 -3.4 M46.95 -16.25 L46.95 -16.4 Q47.15 -17.0 48.05 -17.45 48.95 -17.8 49.65 -18.1 L51.05 -18.9 51.0 -19.05 50.0 -19.05 Q46.5 -17.55 46.5 -16.85 L46.6 -16.3 46.65 -13.35 46.85 -13.3 47.3 -13.5 47.3 -13.85 46.95 -13.9 46.95 -14.4 47.05 -14.2 47.3 -14.3 47.4 -14.25 47.45 -14.15 47.95 -13.15 47.8 -13.0 47.55 -12.9 47.25 -12.8 46.95 -12.75 46.55 -12.75 46.45 -12.85 46.3 -12.85 46.3 -13.1 46.1 -15.0 46.05 -15.8 45.75 -17.05 45.8 -17.2 46.15 -17.7 46.4 -17.9 47.35 -18.45 47.95 -18.75 48.25 -18.9 49.5 -19.4 49.55 -19.4 49.95 -19.55 50.55 -19.7 51.0 -19.75 51.15 -19.75 51.35 -19.55 51.7 -19.0 51.85 -18.5 52.15 -17.3 52.15 -15.4 52.0 -15.35 Q51.7 -15.35 51.6 -15.95 L51.5 -16.85 51.2 -17.55 51.15 -18.3 50.7 -18.3 50.05 -18.1 48.8 -17.55 48.3 -17.3 46.95 -16.25" fill="#333333" fill-rule="evenodd" stroke="none"/>
    <path d="M33.55 -3.4 L33.4 -3.4 Q32.85 -3.4 32.55 -3.85 L32.45 -8.15 32.3 -9.3 Q32.6 -9.7 33.2 -9.95 L33.2 -9.9 34.25 -10.4 36.25 -11.1 36.5 -11.1 36.55 -10.95 33.0 -8.75 32.85 -8.8 Q32.6 -8.65 32.6 -8.05 32.6 -6.6 33.65 -3.45 L33.6 -3.4 33.55 -3.65 33.55 -3.4 M46.95 -14.4 L46.95 -13.9 47.3 -13.85 47.3 -13.5 46.85 -13.3 46.65 -13.35 46.6 -16.3 46.5 -16.85 Q46.5 -17.55 50.0 -19.05 L51.0 -19.05 51.05 -18.9 49.65 -18.1 Q48.95 -17.8 48.05 -17.45 47.15 -17.0 46.95 -16.4 L46.95 -16.25 46.9 -15.2 46.95 -14.4" fill="#666666" fill-rule="evenodd" stroke="none"/>
  </g>
</svg>
