<?xml version="1.0" encoding="UTF-8" standalone="no"?>
<svg xmlns:ffdec="https://www.free-decompiler.com/flash" xmlns:xlink="http://www.w3.org/1999/xlink" ffdec:objectType="shape" height="48.6px" width="55.65px" xmlns="http://www.w3.org/2000/svg">
  <g transform="matrix(1.0, 0.0, 0.0, 1.0, -20.65, 89.7)">
    <path d="M56.5 -79.95 L59.65 -81.5 Q66.5 -84.65 74.05 -86.2 L74.4 -85.85 74.35 -85.3 73.6 -84.7 69.85 -83.85 Q63.2 -82.1 57.05 -78.9 L48.8 -73.95 45.45 -71.5 38.75 -65.6 37.55 -64.4 33.65 -59.8 31.85 -57.3 31.85 -57.2 29.25 -53.45 26.9 -49.3 26.15 -49.1 22.85 -44.0 23.1 -44.95 23.15 -45.35 24.5 -48.5 28.3 -54.0 30.25 -57.35 32.6 -60.7 36.3 -65.45 38.0 -67.1 45.0 -72.65 48.2 -74.95 56.5 -79.95" fill="#ffffff" fill-rule="evenodd" stroke="none"/>
    <path d="M59.95 -86.8 L64.8 -88.4 65.45 -87.55 Q69.95 -87.65 74.05 -86.2 66.5 -84.65 59.65 -81.5 L56.5 -79.95 59.95 -86.8 M73.6 -84.7 L67.8 -79.9 66.45 -79.8 64.8 -79.5 65.1 -77.2 64.0 -76.3 57.05 -78.9 Q63.2 -82.1 69.85 -83.85 L73.6 -84.7 M56.15 -71.4 L52.25 -69.1 45.45 -71.5 48.8 -73.95 56.15 -71.4 M44.65 -63.85 L43.05 -62.65 37.55 -64.4 38.75 -65.6 44.65 -63.85 M36.55 -72.05 L38.85 -73.8 39.1 -73.55 38.75 -67.75 38.0 -67.1 36.3 -65.45 35.8 -65.1 35.7 -65.9 Q35.6 -68.95 36.55 -72.05 M47.35 -79.95 L50.5 -81.8 48.85 -76.3 48.2 -74.95 45.0 -72.65 46.9 -79.6 47.35 -79.95 M68.6 -86.4 L68.2 -86.2 67.9 -85.85 68.0 -85.45 68.35 -85.25 68.75 -85.45 69.05 -85.8 69.05 -86.25 68.6 -86.4 M68.2 -81.0 L68.55 -81.45 68.35 -82.05 67.9 -82.35 67.3 -82.25 67.0 -81.65 Q66.9 -81.35 67.1 -81.1 67.3 -80.9 67.65 -80.75 L68.2 -81.0 M64.25 -85.85 L62.35 -85.6 62.05 -85.15 62.4 -84.8 63.4 -84.2 64.6 -85.0 64.25 -85.85 M62.6 -79.4 L60.5 -79.2 61.2 -78.4 62.25 -78.4 62.75 -78.85 62.6 -79.4" fill="#e0e0e0" fill-rule="evenodd" stroke="none"/>
    <path d="M59.95 -86.8 L56.5 -79.95 48.2 -74.95 48.85 -76.3 50.5 -81.8 59.95 -86.8 M64.0 -76.3 Q61.1 -73.8 57.65 -72.0 L56.15 -71.4 48.8 -73.95 57.05 -78.9 64.0 -76.3 M52.25 -69.1 L44.65 -63.85 38.75 -65.6 45.45 -71.5 52.25 -69.1 M43.05 -62.65 L39.65 -59.85 33.65 -59.8 37.55 -64.4 43.05 -62.65 M36.9 -57.05 L35.6 -55.55 Q35.05 -55.35 34.25 -54.65 L34.05 -54.4 29.25 -53.45 31.85 -57.2 31.85 -57.3 36.9 -57.05 M26.75 -60.65 L30.2 -65.1 30.25 -57.35 28.3 -54.0 28.1 -55.25 27.15 -59.3 27.1 -59.6 26.75 -60.65 M32.15 -67.5 L36.55 -72.05 Q35.6 -68.95 35.7 -65.9 L35.8 -65.1 36.3 -65.45 32.6 -60.7 32.1 -67.4 32.15 -67.5 M38.85 -73.8 L47.35 -79.95 46.9 -79.6 45.0 -72.65 38.0 -67.1 38.75 -67.75 39.1 -73.55 38.85 -73.8" fill="#b4b4b4" fill-rule="evenodd" stroke="none"/>
    <path d="M39.65 -59.85 L36.9 -57.05 31.85 -57.3 33.65 -59.8 39.65 -59.85 M34.05 -54.4 L33.95 -54.3 33.8 -54.2 Q31.65 -51.95 28.5 -50.2 L27.55 -49.45 27.5 -49.2 26.5 -48.55 26.9 -49.3 29.25 -53.45 34.05 -54.4 M24.5 -48.5 Q22.35 -51.8 23.45 -55.1 L24.2 -56.8 24.7 -57.55 24.5 -57.1 26.75 -60.65 27.1 -59.6 27.15 -59.3 28.1 -55.25 28.3 -54.0 24.5 -48.5 M30.2 -65.1 L32.1 -67.45 32.15 -67.5 32.1 -67.4 32.6 -60.7 30.25 -57.35 30.2 -65.1 M62.6 -79.4 L62.75 -78.85 62.25 -78.4 61.2 -78.4 60.5 -79.2 62.6 -79.4 M64.25 -85.85 L64.6 -85.0 63.4 -84.2 62.4 -84.8 62.05 -85.15 62.35 -85.6 64.25 -85.85 M68.2 -81.0 L67.65 -80.75 Q67.3 -80.9 67.1 -81.1 66.9 -81.35 67.0 -81.65 L67.3 -82.25 67.9 -82.35 68.35 -82.05 68.55 -81.45 68.2 -81.0 M68.6 -86.4 L69.05 -86.25 69.05 -85.8 68.75 -85.45 68.35 -85.25 68.0 -85.45 67.9 -85.85 68.2 -86.2 68.6 -86.4" fill="#8a8a8a" fill-rule="evenodd" stroke="none"/>
    <path d="M26.6 -62.85 L27.5 -64.0 28.7 -65.4 31.4 -68.35 32.0 -69.0 36.55 -73.6 Q43.05 -79.25 50.45 -83.5 57.75 -87.9 64.95 -89.7 L65.65 -89.05 Q71.15 -88.75 76.3 -86.2 L76.2 -85.6 68.2 -79.15 65.6 -79.05 66.0 -76.8 63.05 -74.6 45.65 -63.5 Q41.9 -60.65 38.85 -57.1 L38.05 -56.1 37.3 -55.25 37.05 -55.3 36.35 -54.45 35.25 -53.25 34.95 -52.85 34.7 -52.7 32.55 -50.6 32.05 -50.25 30.6 -49.35 29.35 -49.05 28.85 -48.9 27.75 -47.7 24.15 -43.75 23.3 -42.75 22.95 -42.3 22.65 -42.6 21.15 -41.1 20.85 -41.35 20.8 -41.45 20.7 -41.75 20.65 -42.6 20.85 -43.4 21.3 -44.25 23.0 -48.6 Q22.05 -51.6 22.35 -54.45 22.8 -58.25 25.55 -61.65 L25.85 -61.95 26.6 -62.85 M74.05 -86.2 Q69.95 -87.65 65.45 -87.55 L64.8 -88.4 59.95 -86.8 50.5 -81.8 47.35 -79.95 38.85 -73.8 36.55 -72.05 32.15 -67.5 32.1 -67.45 30.2 -65.1 26.75 -60.65 24.5 -57.1 24.7 -57.55 24.2 -56.8 23.45 -55.1 Q22.35 -51.8 24.5 -48.5 L23.15 -45.35 23.1 -44.95 22.85 -44.0 26.15 -49.1 26.9 -49.3 26.5 -48.55 27.5 -49.2 27.55 -49.45 28.5 -50.2 Q31.65 -51.95 33.8 -54.2 L33.95 -54.3 34.05 -54.4 34.25 -54.65 Q35.05 -55.35 35.6 -55.55 L36.9 -57.05 39.65 -59.85 43.05 -62.65 44.65 -63.85 52.25 -69.1 56.15 -71.4 57.65 -72.0 Q61.1 -73.8 64.0 -76.3 L65.1 -77.2 64.8 -79.5 66.45 -79.8 67.8 -79.9 73.6 -84.7 74.35 -85.3 74.4 -85.85 74.05 -86.2" fill="#464646" fill-rule="evenodd" stroke="none"/>
  </g>
</svg>
