<?xml version="1.0" encoding="UTF-8" standalone="no"?>
<svg xmlns:ffdec="https://www.free-decompiler.com/flash" xmlns:xlink="http://www.w3.org/1999/xlink" ffdec:objectType="shape" height="48.5px" width="48.6px" xmlns="http://www.w3.org/2000/svg">
  <g transform="matrix(1.0, 0.0, 0.0, 1.0, 24.3, 15.2)">
    <path d="M18.8 -15.2 L19.85 -15.2 24.2 21.65 24.3 22.7 Q24.35 24.95 21.9 26.85 20.5 29.15 15.75 30.9 9.2 33.3 0.0 33.3 -9.25 33.3 -15.75 30.9 -20.6 29.15 -21.9 26.8 -24.35 24.95 -24.3 22.7 L-24.2 21.8 -19.8 -15.2 -18.8 -15.2 -23.2 21.9 -23.2 22.0 -23.25 22.1 -23.25 22.15 -23.3 22.55 -23.3 22.6 -23.3 22.7 -23.3 22.85 -23.2 23.4 -23.2 23.5 -23.0 24.0 -22.75 24.5 -22.55 24.8 -21.25 26.05 -21.1 26.2 -20.6 26.9 -20.15 27.35 -18.5 28.55 -15.7 29.85 -15.4 29.95 -14.8 30.15 -7.95 31.8 -6.7 31.9 -5.7 32.0 -3.05 32.25 0.0 32.3 1.6 32.3 1.7 32.3 7.4 31.85 12.25 30.9 13.1 30.7 15.4 29.95 Q17.9 29.0 19.55 27.85 L20.1 27.4 21.6 25.5 23.15 23.7 23.15 23.6 23.15 21.2 18.8 -15.2" fill="#062809" fill-rule="evenodd" stroke="none"/>
    <path d="M10.85 -7.35 L15.8 -8.8 18.8 15.1 18.85 16.05 18.85 17.95 18.2 19.9 17.1 22.5 14.65 24.55 12.15 26.4 7.75 28.0 2.75 29.1 0.8 29.35 -5.5 28.95 Q-5.55 29.15 -5.65 28.95 L-8.3 28.4 -11.85 27.25 Q-13.8 26.75 -16.0 24.4 -18.6 21.65 -18.6 18.85 L-18.35 13.35 -16.75 4.05 -16.8 4.2 -16.65 3.7 -16.5 2.6 -16.45 2.6 -16.3 1.8 -14.9 -4.25 -13.6 -9.05 -9.05 -7.55 -5.85 -6.85 3.4 -6.3 10.8 -7.35 10.85 -7.35" fill="#50af2d" fill-rule="evenodd" stroke="none"/>
    <path d="M10.85 -7.35 L10.8 -7.35 3.4 -6.3 -5.85 -6.85 -9.05 -7.55 -13.6 -9.05 -14.9 -4.25 -16.3 1.8 -16.45 2.6 -16.5 2.6 -16.65 3.7 -16.8 4.2 -16.75 4.05 -18.35 13.35 -18.6 18.85 Q-18.6 21.65 -16.0 24.4 -13.8 26.75 -11.85 27.25 L-8.3 28.4 -5.65 28.95 Q-5.55 29.15 -5.5 28.95 L0.8 29.35 2.75 29.1 7.75 28.0 12.15 26.4 14.65 24.55 17.1 22.5 18.2 19.9 18.85 17.95 18.85 16.05 18.8 15.1 15.8 -8.8 10.85 -7.35 M23.15 23.7 L21.6 25.5 20.1 27.4 19.45 27.75 12.25 30.2 9.3 30.8 -0.85 31.45 -4.4 31.3 Q-4.5 31.7 -4.55 31.3 L-11.25 30.45 -14.75 29.55 -18.65 28.15 -18.65 28.1 -20.15 27.35 -20.6 26.9 -21.1 26.2 -21.25 26.05 -22.55 24.8 -22.75 24.5 -20.05 9.1 -20.05 9.05 -15.45 -15.2 15.85 -15.2 23.15 23.7" fill="#409221" fill-rule="evenodd" stroke="none"/>
    <path d="M18.8 -15.2 L23.15 21.2 23.15 23.6 23.15 23.7 15.85 -15.2 18.8 -15.2 M20.1 27.4 L19.55 27.85 Q17.9 29.0 15.4 29.95 L13.1 30.7 12.25 30.9 7.4 31.85 1.7 32.3 1.6 32.3 0.0 32.3 -3.05 32.25 -5.7 32.0 -6.7 31.9 -7.95 31.8 -14.8 30.15 -15.4 29.95 -15.7 29.85 -18.5 28.55 -20.15 27.35 -18.65 28.1 -18.65 28.15 -14.75 29.55 -11.25 30.45 -4.55 31.3 Q-4.5 31.7 -4.4 31.3 L-0.85 31.45 9.3 30.8 12.25 30.2 19.45 27.75 20.1 27.4 M-22.75 24.5 L-23.0 24.0 -23.2 23.5 -23.2 23.4 -23.3 22.85 -23.3 22.7 -23.3 22.6 -23.3 22.55 -23.25 22.15 -23.25 22.1 -23.2 22.0 -23.2 21.9 -18.8 -15.2 -15.45 -15.2 -20.05 9.05 -20.05 9.1 -22.75 24.5" fill="#2f6f17" fill-rule="evenodd" stroke="none"/>
    <path d="M19.3 -10.85 L18.8 -15.2 19.85 -15.2 20.35 -10.95 19.55 -10.85 19.3 -10.85 M20.1 -4.15 L19.55 -8.65 20.25 -8.75 20.6 -8.7 21.15 -4.3 20.25 -4.15 20.1 -4.15 M21.6 8.35 L21.05 3.85 21.7 3.75 22.1 3.8 22.6 8.2 21.7 8.35 21.6 8.35 M22.95 19.65 L22.55 16.15 22.9 16.45 Q23.55 17.15 23.55 18.1 23.55 19.0 22.95 19.65 M23.2 22.4 Q23.35 21.85 23.8 21.4 L24.15 21.15 24.2 21.65 24.3 22.7 23.85 24.7 23.8 24.65 Q23.3 24.2 23.15 23.6 L23.2 22.4 M17.95 28.8 L17.9 28.85 Q17.25 29.5 16.35 29.55 L17.95 28.8 M8.25 31.65 L7.95 32.8 4.3 33.15 3.7 32.15 7.4 31.85 8.25 31.65 M-20.1 -4.35 L-20.75 -4.85 -21.0 -5.15 -20.65 -8.2 -19.55 -8.7 -20.1 -4.35 M-19.3 -11.0 L-20.05 -11.55 -20.2 -11.75 -19.85 -14.95 -19.45 -15.2 -18.8 -15.2 -19.3 -11.0 M-21.55 8.1 L-22.2 7.65 -22.45 7.35 -22.1 4.35 Q-21.65 3.9 -21.05 3.8 L-21.55 8.1 M-22.65 24.65 Q-23.0 25.05 -23.45 25.25 -24.3 24.05 -24.3 22.7 L-24.2 21.8 -24.05 20.75 Q-23.55 20.8 -23.1 21.05 L-23.2 21.9 -23.2 22.0 -23.25 22.1 -23.25 22.15 -23.3 22.55 -23.3 22.6 -23.3 22.7 -23.3 22.85 -23.2 23.4 -23.2 23.5 -23.0 24.0 -22.75 24.5 -22.65 24.65 M-2.6 32.25 L-3.2 33.2 -3.2 33.25 -6.65 32.95 -7.05 31.9 -6.7 31.9 -5.7 32.0 -3.05 32.25 -2.6 32.25" fill="#062809" fill-rule="evenodd" stroke="none"/>
    <path d="M8.85 -7.1 L10.8 -7.35 10.85 -7.35 11.9 -7.65 12.3 -7.35 Q12.95 -6.65 12.95 -5.7 12.95 -4.75 12.3 -4.1 11.6 -3.4 10.65 -3.4 9.7 -3.4 9.05 -4.1 8.35 -4.75 8.35 -5.7 8.35 -6.5 8.85 -7.1 M17.0 0.7 L17.5 4.65 Q16.9 5.1 16.1 5.1 15.15 5.1 14.5 4.4 13.8 3.75 13.8 2.8 13.8 1.85 14.5 1.15 15.15 0.5 16.1 0.5 L17.0 0.7 M18.2 10.35 Q17.55 10.85 16.75 10.85 15.8 10.85 15.15 10.15 14.45 9.5 14.45 8.55 14.45 7.6 15.15 6.9 15.8 6.25 16.75 6.25 L17.75 6.45 18.2 10.35 M12.3 21.65 Q12.3 20.7 13.0 20.0 13.65 19.35 14.6 19.35 15.55 19.35 16.25 20.0 16.9 20.7 16.9 21.65 16.9 22.6 16.25 23.25 L15.9 23.55 Q15.3 23.95 14.6 23.95 13.65 23.95 13.0 23.25 12.3 22.6 12.3 21.65 M6.85 23.95 Q6.85 23.0 7.55 22.3 8.2 21.65 9.15 21.65 10.1 21.65 10.8 22.3 11.45 23.0 11.45 23.95 11.45 24.9 10.8 25.55 10.1 26.25 9.15 26.25 8.2 26.25 7.55 25.55 6.85 24.9 6.85 23.95 M-7.8 -7.25 Q-7.2 -6.6 -7.2 -5.7 -7.2 -4.75 -7.9 -4.1 -8.55 -3.4 -9.5 -3.4 -10.45 -3.4 -11.15 -4.1 -11.8 -4.75 -11.8 -5.7 -11.8 -6.65 -11.15 -7.35 L-10.2 -7.9 -9.05 -7.55 -7.8 -7.25 M-16.1 0.8 Q-15.6 0.5 -14.95 0.5 -14.0 0.5 -13.35 1.15 -12.65 1.85 -12.65 2.8 -12.65 3.75 -13.35 4.4 -14.0 5.1 -14.95 5.1 -15.9 5.1 -16.6 4.4 L-16.75 4.2 -16.75 4.05 -16.8 4.2 -16.65 3.7 -16.5 2.6 -16.45 2.6 -16.3 1.8 -16.1 0.8 M-17.7 9.55 L-17.25 6.9 Q-16.55 6.25 -15.6 6.25 -14.65 6.25 -14.0 6.9 -13.3 7.6 -13.3 8.55 -13.3 9.5 -14.0 10.15 -14.65 10.85 -15.6 10.85 -16.55 10.85 -17.25 10.15 L-17.7 9.55 M-18.55 16.4 L-18.5 16.45 Q-17.8 17.15 -17.8 18.1 -17.8 19.05 -18.5 19.7 L-18.55 19.75 -18.6 18.85 -18.55 16.4 M-11.15 21.65 Q-11.15 22.6 -11.85 23.25 -12.5 23.95 -13.45 23.95 -14.4 23.95 -15.1 23.25 -15.75 22.6 -15.75 21.65 -15.75 20.7 -15.1 20.0 -14.4 19.35 -13.45 19.35 -12.5 19.35 -11.85 20.0 -11.15 20.7 -11.15 21.65 M-5.7 23.95 Q-5.7 24.9 -6.4 25.55 -7.05 26.25 -8.0 26.25 -8.95 26.25 -9.65 25.55 -10.3 24.9 -10.3 23.95 -10.3 23.0 -9.65 22.3 -8.95 21.65 -8.0 21.65 -7.05 21.65 -6.4 22.3 -5.7 23.0 -5.7 23.95 M-15.45 25.0 L-15.1 24.95 Q-14.15 24.95 -13.5 25.6 -12.95 26.15 -12.8 26.9 L-15.45 25.0" fill="#fafafa" fill-rule="evenodd" stroke="none"/>
    <path d="M8.85 -7.1 L9.05 -7.35 Q9.7 -8.0 10.65 -8.0 L11.9 -7.65 10.85 -7.35 10.8 -7.35 8.85 -7.1 M7.05 -11.8 Q7.05 -12.75 7.75 -13.45 8.4 -14.1 9.35 -14.1 10.3 -14.1 11.0 -13.45 11.65 -12.75 11.65 -11.8 11.65 -10.85 11.0 -10.2 10.3 -9.5 9.35 -9.5 8.4 -9.5 7.75 -10.2 7.05 -10.85 7.05 -11.8 M-1.7 -9.65 Q-1.7 -10.6 -1.0 -11.3 -0.35 -11.95 0.6 -11.95 1.55 -11.95 2.25 -11.3 2.9 -10.6 2.9 -9.65 2.9 -8.7 2.25 -8.05 1.55 -7.35 0.6 -7.35 -0.35 -7.35 -1.0 -8.05 -1.7 -8.7 -1.7 -9.65 M19.65 5.05 L20.15 7.7 20.1 7.65 Q19.4 7.0 19.4 6.05 19.4 5.5 19.65 5.05 M21.65 15.85 L22.45 20.1 21.25 20.4 Q20.3 20.4 19.65 19.7 18.95 19.05 18.95 18.1 18.95 17.15 19.65 16.45 20.3 15.8 21.25 15.8 L21.65 15.85 M17.0 0.7 L17.75 1.15 Q18.4 1.85 18.4 2.8 18.4 3.75 17.75 4.4 L17.5 4.65 17.0 0.7 M18.2 10.35 L17.75 6.45 18.4 6.9 Q19.05 7.6 19.05 8.55 19.05 9.5 18.4 10.15 L18.2 10.35 M15.15 29.25 L14.65 28.85 Q13.95 28.2 13.95 27.25 13.95 26.3 14.65 25.6 15.3 24.95 16.25 24.95 17.2 24.95 17.9 25.6 18.55 26.3 18.55 27.25 L18.4 28.15 15.15 29.25 M3.7 31.15 Q3.8 30.5 4.35 29.95 5.0 29.3 5.95 29.3 6.9 29.3 7.6 29.95 L8.15 30.85 3.7 31.15 M-16.95 -7.3 L-16.8 -6.45 Q-16.8 -5.55 -17.4 -4.9 L-16.95 -7.3 M-5.9 -11.8 Q-5.9 -10.85 -6.6 -10.2 -7.25 -9.5 -8.2 -9.5 -9.15 -9.5 -9.85 -10.2 -10.5 -10.85 -10.5 -11.8 -10.5 -12.75 -9.85 -13.45 -9.15 -14.1 -8.2 -14.1 -7.25 -14.1 -6.6 -13.45 -5.9 -12.75 -5.9 -11.8 M-10.2 -7.9 L-9.5 -8.0 Q-8.55 -8.0 -7.9 -7.35 L-7.8 -7.25 -9.05 -7.55 -10.2 -7.9 M-16.75 4.2 L-16.8 4.2 Q-17.25 3.6 -17.25 2.8 -17.25 1.85 -16.6 1.15 L-16.1 0.8 -16.3 1.8 -16.45 2.6 -16.5 2.6 -16.65 3.7 -16.8 4.2 -16.75 4.05 -16.75 4.2 M-19.15 4.25 L-18.95 4.4 Q-18.25 5.1 -18.25 6.05 -18.25 7.0 -18.95 7.65 L-19.9 8.3 -19.15 4.25 M-17.25 6.9 L-17.7 9.55 -17.9 8.55 Q-17.9 7.6 -17.25 6.9 M-18.55 19.75 Q-19.2 20.4 -20.1 20.4 -21.05 20.4 -21.75 19.7 L-21.9 19.55 -21.3 16.15 Q-20.75 15.8 -20.1 15.8 -19.2 15.8 -18.55 16.4 L-18.6 18.85 -18.55 19.75 M-22.65 24.65 L-22.75 24.5 -22.3 21.85 Q-21.95 22.4 -21.95 23.05 -21.95 24.0 -22.65 24.65 M-7.0 31.0 Q-6.9 30.4 -6.45 29.95 -5.75 29.3 -4.8 29.3 -3.85 29.3 -3.2 29.95 -2.6 30.55 -2.5 31.4 L-4.4 31.3 Q-4.5 31.7 -4.55 31.3 L-7.0 31.0 M-12.8 26.9 L-12.8 27.25 Q-12.8 28.2 -13.5 28.85 -14.05 29.45 -14.8 29.55 L-16.75 28.85 Q-17.4 28.2 -17.4 27.25 -17.4 26.3 -16.75 25.6 -16.2 25.05 -15.45 25.0 L-12.8 26.9" fill="#dbdbdb" fill-rule="evenodd" stroke="none"/>
    <path d="M19.3 -10.85 Q18.5 -10.95 17.95 -11.55 17.25 -12.2 17.25 -13.15 17.25 -14.1 17.95 -14.8 L18.5 -15.2 18.8 -15.2 19.3 -10.85 M20.1 -4.15 Q19.25 -4.2 18.65 -4.85 17.95 -5.5 17.95 -6.45 17.95 -7.4 18.65 -8.1 L19.55 -8.65 20.1 -4.15 M21.05 3.85 L21.6 8.35 Q20.75 8.3 20.15 7.7 L19.65 5.05 20.1 4.4 Q20.5 4.0 21.05 3.85 M21.65 15.85 L22.55 16.15 22.95 19.65 22.9 19.7 22.45 20.1 21.65 15.85 M23.2 22.4 L23.15 23.6 23.1 23.05 23.2 22.4 M17.95 28.8 L16.35 29.55 16.25 29.55 Q15.65 29.55 15.15 29.25 L18.4 28.15 17.95 28.8 M3.7 31.15 L8.15 30.85 8.25 31.6 8.25 31.65 7.4 31.85 3.7 32.15 3.65 31.6 3.7 31.15 M-19.55 -8.7 L-19.1 -8.75 Q-18.15 -8.75 -17.5 -8.1 L-16.95 -7.3 -17.4 -4.9 -17.5 -4.85 Q-18.15 -4.15 -19.1 -4.15 L-20.1 -4.35 -19.55 -8.7 M-18.8 -15.2 L-17.3 -15.2 -16.8 -14.8 Q-16.1 -14.1 -16.1 -13.15 -16.1 -12.2 -16.8 -11.55 -17.45 -10.85 -18.4 -10.85 L-19.3 -11.0 -18.8 -15.2 M-19.9 8.3 L-20.55 8.35 -21.55 8.1 -21.05 3.8 -20.55 3.75 Q-19.75 3.75 -19.15 4.25 L-19.9 8.3 M-21.9 19.55 Q-22.4 18.95 -22.4 18.1 -22.4 17.15 -21.75 16.45 L-21.3 16.15 -21.9 19.55 M-22.75 24.5 L-23.0 24.0 -23.2 23.5 -23.2 23.4 -23.3 22.85 -23.3 22.7 -23.3 22.6 -23.3 22.55 -23.25 22.15 -23.25 22.1 -23.2 22.0 -23.2 21.9 -23.1 21.05 -22.65 21.4 -22.3 21.85 -22.75 24.5 M-2.5 31.4 L-2.5 31.6 -2.6 32.25 -3.05 32.25 -5.7 32.0 -6.7 31.9 -7.05 31.9 -7.1 31.6 -7.0 31.0 -4.55 31.3 Q-4.5 31.7 -4.4 31.3 L-2.5 31.4 M-14.8 29.55 L-15.1 29.55 Q-16.05 29.55 -16.75 28.85 L-14.8 29.55" fill="#a6a6a6" fill-rule="evenodd" stroke="none"/>
    <path d="M20.85 1.9 L20.3 -2.65 20.75 -2.7 21.35 -2.6 21.85 1.65 20.85 1.9 M21.8 10.15 L22.25 10.45 Q22.9 11.15 22.9 12.1 22.9 13.05 22.25 13.7 L22.25 13.75 21.8 10.15 M21.55 25.6 L21.6 25.5 22.1 24.95 21.75 25.4 21.55 25.6 M10.05 31.35 L12.25 30.9 13.0 30.7 12.8 30.9 Q12.1 31.6 11.15 31.6 L10.05 31.35 M2.7 32.2 L2.25 32.8 1.6 33.3 0.0 33.3 -0.3 33.3 -1.0 32.8 -1.4 32.3 0.0 32.3 1.6 32.3 1.7 32.3 2.7 32.2 M-20.8 1.6 L-21.25 1.2 -21.7 0.6 -21.4 -1.85 -21.25 -2.05 -20.3 -2.6 -20.8 1.6 M-9.25 31.5 L-10.0 31.6 Q-10.95 31.6 -11.65 30.9 L-9.25 31.5" fill="#062809" fill-rule="evenodd" stroke="none"/>
    <path d="M3.3 -6.3 L3.4 -6.3 7.55 -6.9 Q7.45 -6.25 6.95 -5.75 6.25 -5.05 5.3 -5.05 4.35 -5.05 3.7 -5.75 L3.3 -6.3 M13.1 -7.95 L15.8 -8.8 16.0 -7.2 14.95 -6.95 Q14.0 -6.95 13.35 -7.65 L13.1 -7.95 M16.8 -1.0 Q16.15 -0.55 15.4 -0.55 14.45 -0.55 13.8 -1.25 13.1 -1.9 13.1 -2.85 13.1 -3.8 13.8 -4.5 14.45 -5.15 15.4 -5.15 L16.3 -5.0 16.8 -1.0 M18.55 13.15 L18.3 12.1 18.35 11.6 18.55 13.15 M13.45 16.35 Q13.45 15.4 14.15 14.7 14.8 14.05 15.75 14.05 16.7 14.05 17.4 14.7 18.05 15.4 18.05 16.35 18.05 17.3 17.4 17.95 16.7 18.65 15.75 18.65 14.8 18.65 14.15 17.95 13.45 17.3 13.45 16.35 M1.3 26.45 Q1.3 25.5 2.0 24.8 2.65 24.15 3.6 24.15 4.55 24.15 5.25 24.8 5.9 25.5 5.9 26.45 5.9 27.4 5.25 28.05 4.55 28.75 3.6 28.75 2.65 28.75 2.0 28.05 1.3 27.4 1.3 26.45 M1.8 29.2 L0.8 29.35 -0.8 29.4 Q-0.25 28.9 0.6 28.9 L1.8 29.2 M-11.65 -8.35 Q-11.85 -7.95 -12.2 -7.65 -12.85 -6.95 -13.8 -6.95 L-14.15 -6.95 -13.6 -9.05 -11.65 -8.35 M-14.65 -5.1 L-14.25 -5.15 Q-13.3 -5.15 -12.65 -4.5 -11.95 -3.8 -11.95 -2.85 -11.95 -1.9 -12.65 -1.25 -13.3 -0.55 -14.25 -0.55 -15.05 -0.55 -15.65 -1.05 L-14.9 -4.25 -14.65 -5.1 M-2.05 -6.4 L-2.55 -5.75 Q-3.2 -5.05 -4.15 -5.05 -5.1 -5.05 -5.8 -5.75 -6.3 -6.25 -6.4 -6.95 L-5.85 -6.85 -2.05 -6.4 M-17.85 10.45 Q-17.15 11.15 -17.15 12.1 -17.15 13.05 -17.85 13.7 L-18.4 14.15 -18.35 13.35 -17.85 10.45 M-12.3 16.35 Q-12.3 17.3 -13.0 17.95 -13.65 18.65 -14.6 18.65 -15.55 18.65 -16.25 17.95 -16.9 17.3 -16.9 16.35 -16.9 15.4 -16.25 14.7 -15.55 14.05 -14.6 14.05 -13.65 14.05 -13.0 14.7 -12.3 15.4 -12.3 16.35 M-17.9 21.75 L-17.35 22.15 Q-16.7 22.8 -16.65 23.65 L-17.9 21.75 M-0.5 26.35 Q-0.5 27.3 -1.2 27.95 -1.85 28.65 -2.8 28.65 -3.75 28.65 -4.45 27.95 -5.1 27.3 -5.1 26.35 -5.1 25.4 -4.45 24.7 -3.75 24.05 -2.8 24.05 -1.85 24.05 -1.2 24.7 -0.5 25.4 -0.5 26.35 M-11.35 27.45 Q-10.75 27.0 -10.0 27.0 -9.05 27.0 -8.4 27.65 L-7.85 28.5 -8.3 28.4 -11.35 27.45" fill="#de3f3f" fill-rule="evenodd" stroke="none"/>
    <path d="M3.3 -6.3 Q3.0 -6.75 3.0 -7.35 3.0 -8.3 3.7 -9.0 4.35 -9.65 5.3 -9.65 6.25 -9.65 6.95 -9.0 7.6 -8.3 7.6 -7.35 L7.55 -6.9 3.4 -6.3 3.3 -6.3 M16.0 -7.2 L15.8 -8.8 13.1 -7.95 Q12.65 -8.5 12.65 -9.25 12.65 -10.2 13.35 -10.9 14.0 -11.55 14.95 -11.55 15.9 -11.55 16.6 -10.9 L16.7 -10.8 17.15 -8.45 16.6 -7.65 Q16.3 -7.35 16.0 -7.2 M16.8 -1.0 L16.3 -5.0 17.05 -4.5 Q17.7 -3.8 17.7 -2.85 17.7 -1.9 17.05 -1.25 L16.8 -1.0 M18.55 -0.95 L18.9 0.9 Q18.45 0.35 18.45 -0.4 L18.55 -0.95 M21.4 14.3 L20.6 14.4 Q19.65 14.4 19.0 13.7 L18.55 13.15 18.35 11.6 Q18.5 10.95 19.0 10.45 19.65 9.8 20.55 9.8 L21.4 14.3 M21.55 25.6 L21.45 25.65 20.1 26.1 Q19.15 26.1 18.5 25.4 17.8 24.75 17.8 23.8 17.8 22.85 18.5 22.15 19.15 21.5 20.1 21.5 21.05 21.5 21.75 22.15 22.4 22.85 22.4 23.8 L22.1 24.95 21.6 25.5 21.55 25.6 M13.4 29.85 L12.25 30.2 9.4 30.75 Q8.85 30.15 8.85 29.3 8.85 28.35 9.55 27.65 10.2 27.0 11.15 27.0 12.1 27.0 12.8 27.65 13.45 28.35 13.45 29.3 L13.4 29.85 M1.8 29.2 L2.25 29.55 Q2.9 30.25 2.9 31.2 L-1.7 31.45 -1.7 31.2 Q-1.7 30.25 -1.0 29.55 L-0.8 29.4 0.8 29.35 1.8 29.2 M-17.95 -2.0 Q-17.3 -1.35 -17.3 -0.4 -17.3 0.55 -18.0 1.2 L-18.65 1.7 -17.95 -2.0 M-14.15 -6.95 Q-14.9 -7.1 -15.45 -7.65 -16.1 -8.3 -16.1 -9.25 -16.1 -10.2 -15.45 -10.9 -14.75 -11.55 -13.8 -11.55 -12.85 -11.55 -12.2 -10.9 -11.5 -10.2 -11.5 -9.25 -11.5 -8.75 -11.65 -8.35 L-13.6 -9.05 -14.15 -6.95 M-15.65 -1.05 L-15.9 -1.25 Q-16.55 -1.9 -16.55 -2.85 -16.55 -3.8 -15.9 -4.5 -15.35 -5.0 -14.65 -5.1 L-14.9 -4.25 -15.65 -1.05 M-6.4 -6.95 L-6.45 -7.35 Q-6.45 -8.3 -5.8 -9.0 -5.1 -9.65 -4.15 -9.65 -3.2 -9.65 -2.55 -9.0 -1.85 -8.3 -1.85 -7.35 L-2.05 -6.4 -5.85 -6.85 -6.4 -6.95 M-18.4 14.15 L-19.45 14.4 Q-20.25 14.4 -20.9 13.9 L-20.2 9.95 -19.45 9.8 Q-18.5 9.8 -17.85 10.45 L-18.35 13.35 -18.4 14.15 M-16.65 23.65 L-16.65 23.8 Q-16.65 24.75 -17.35 25.4 -18.0 26.1 -18.95 26.1 -19.9 26.1 -20.6 25.4 -21.25 24.75 -21.25 23.8 -21.25 22.85 -20.6 22.15 -19.9 21.5 -18.95 21.5 L-17.9 21.75 -16.65 23.65 M-7.85 28.5 Q-7.7 28.85 -7.7 29.3 -7.7 30.2 -8.3 30.8 L-11.25 30.45 -12.1 30.2 -12.3 29.3 Q-12.3 28.35 -11.65 27.65 -11.5 27.5 -11.35 27.45 L-8.3 28.4 -7.85 28.5" fill="#b63232" fill-rule="evenodd" stroke="none"/>
    <path d="M17.15 -8.45 L16.7 -10.8 Q17.25 -10.15 17.25 -9.25 L17.15 -8.45 M18.55 -0.95 Q18.65 -1.55 19.15 -2.05 19.65 -2.55 20.3 -2.65 L20.85 1.9 20.75 1.9 Q19.8 1.9 19.15 1.2 L18.9 0.9 18.55 -0.95 M21.8 10.15 L22.25 13.75 21.4 14.3 20.55 9.8 20.6 9.8 Q21.25 9.8 21.8 10.15 M13.0 30.7 L12.25 30.9 10.05 31.35 9.55 30.9 9.4 30.75 12.25 30.2 13.4 29.85 13.0 30.7 M-1.7 31.45 L2.9 31.2 2.7 32.2 1.7 32.3 1.6 32.3 0.0 32.3 -1.4 32.3 -1.7 31.45 M-20.3 -2.6 L-19.6 -2.7 Q-18.65 -2.7 -18.0 -2.05 L-17.95 -2.0 -18.65 1.7 -19.6 1.9 -20.8 1.6 -20.3 -2.6 M-20.9 13.9 L-21.1 13.7 Q-21.75 13.05 -21.75 12.1 -21.75 11.15 -21.1 10.45 L-20.2 9.95 -20.9 13.9 M-8.3 30.8 L-8.4 30.9 -9.25 31.5 -11.65 30.9 -12.1 30.2 -11.25 30.45 -8.3 30.8" fill="#932121" fill-rule="evenodd" stroke="none"/>
  </g>
</svg>
