<?xml version="1.0" encoding="UTF-8" standalone="no"?>
<svg xmlns:ffdec="https://www.free-decompiler.com/flash" xmlns:xlink="http://www.w3.org/1999/xlink" ffdec:objectType="shape" height="61.0px" width="73.15px" xmlns="http://www.w3.org/2000/svg">
  <g transform="matrix(1.0, 0.0, 0.0, 1.0, 38.5, 31.05)">
    <path d="M1.35 -28.1 Q5.15 -30.05 9.4 -30.05 19.3 -30.05 26.2 -23.5 L26.15 -23.5 Q33.65 -16.5 33.65 -5.0 33.65 4.8 28.2 12.55 L23.15 18.1 Q23.8 19.4 23.7 20.65 23.75 24.25 20.65 26.5 L20.7 26.45 Q18.3 28.2 15.6 28.2 14.05 28.45 11.9 26.6 L11.85 26.55 11.45 26.35 Q9.35 26.4 5.8 27.5 1.25 28.95 -3.2 28.95 -5.25 29.05 -11.25 26.6 L-11.25 26.55 Q-15.8 24.6 -19.65 24.6 L-20.0 24.8 -20.15 24.85 Q-21.8 25.4 -22.65 25.35 -28.65 25.35 -29.55 20.15 L-29.65 19.7 Q-29.75 17.5 -30.0 16.85 -35.0 9.65 -35.7 7.9 -37.5 3.85 -37.5 -4.45 L-37.15 -7.85 Q-36.85 -10.6 -36.35 -12.1 L-36.4 -12.1 Q-35.8 -14.35 -33.85 -17.85 -30.75 -23.4 -27.05 -25.25 -20.65 -28.6 -14.35 -28.55 -10.75 -28.55 -6.5 -27.55 -3.7 -26.9 -1.85 -26.0 -0.55 -27.15 1.35 -28.1 M7.5 -14.75 Q6.85 -14.15 6.85 -12.7 6.85 -11.15 7.3 -9.95 8.15 -7.65 8.05 -6.95 L8.05 -6.85 Q8.05 -2.65 7.05 0.6 L7.0 0.75 6.35 2.6 6.35 2.9 6.5 3.15 7.25 3.85 7.4 3.95 7.55 4.15 12.05 8.15 12.25 8.25 12.55 8.25 12.75 8.05 16.9 2.65 17.05 2.45 18.65 0.15 18.75 -0.15 Q18.7 -14.6 8.55 -14.95 L8.5 -14.95 8.25 -14.95 8.2 -14.95 7.6 -14.8 7.5 -14.75 M7.85 -12.7 Q7.85 -13.55 8.15 -13.95 L8.2 -13.95 8.25 -13.95 8.5 -13.95 Q17.65 -13.5 17.75 -0.3 L16.15 2.0 16.1 2.05 12.3 7.0 8.3 3.45 7.9 3.1 7.4 2.6 8.0 1.05 8.0 0.85 Q9.05 -2.5 9.05 -6.75 9.25 -7.65 8.25 -10.3 7.85 -11.35 7.85 -12.7 M-20.65 -4.2 Q-20.65 -8.9 -18.75 -11.1 -17.6 -12.35 -15.8 -12.35 -12.25 -12.35 -10.3 -11.45 L-10.35 -11.45 -9.95 -11.15 -10.45 -7.85 -10.45 -7.8 Q-11.0 -3.6 -10.75 0.0 L-10.75 0.15 Q-10.65 1.55 -11.35 2.5 L-11.4 2.65 Q-12.3 3.55 -13.8 4.3 L-14.0 4.45 Q-15.1 5.0 -17.4 6.35 L-17.95 5.5 -20.1 1.4 Q-20.65 -0.4 -20.65 -4.2 M-19.5 -11.75 Q-21.65 -9.3 -21.65 -4.2 -21.65 -0.15 -21.05 1.7 L-21.0 1.8 Q-19.85 3.9 -18.85 5.95 L-17.8 7.35 -17.5 7.45 -17.25 7.4 -13.5 5.3 -13.4 5.2 -13.35 5.2 Q-11.6 4.3 -10.55 3.2 L-10.45 3.0 Q-9.65 1.8 -9.75 0.1 L-9.75 0.0 Q-10.0 -3.55 -9.45 -7.65 L-9.45 -7.75 -8.95 -11.15 Q-8.9 -11.35 -9.0 -11.45 -9.25 -12.0 -9.85 -12.3 L-9.85 -12.35 Q-11.95 -13.35 -15.8 -13.35 -18.1 -13.35 -19.5 -11.8 L-19.5 -11.75 M-2.75 13.6 L-2.75 13.65 -2.7 13.65 -2.75 13.6" fill="#ffffff" fill-rule="evenodd" stroke="none"/>
    <path d="M9.4 -31.05 Q19.75 -31.0 26.9 -24.25 L27.05 -24.05 Q34.65 -16.8 34.65 -5.0 34.65 5.05 29.1 13.0 L29.05 13.15 24.35 18.3 Q24.8 19.5 24.7 20.65 L24.7 20.75 Q24.7 24.65 21.5 27.1 L21.3 27.25 Q18.7 29.2 15.75 29.2 13.85 29.55 11.3 27.35 9.3 27.45 6.1 28.45 1.4 29.95 -3.15 29.95 L-3.2 29.95 Q-5.4 30.1 -11.6 27.5 L-11.65 27.5 Q-15.85 25.7 -19.4 25.6 L-19.65 25.7 -19.65 25.75 -19.75 25.75 -19.8 25.8 -22.7 26.35 Q-29.55 26.3 -30.55 20.3 L-30.55 20.35 -30.65 19.8 -30.65 19.75 -30.9 17.3 Q-35.95 10.05 -36.6 8.25 L-36.6 8.3 Q-38.5 4.15 -38.5 -4.4 L-38.5 -4.45 -38.15 -8.0 -37.4 -12.1 -37.35 -12.35 Q-36.75 -14.7 -34.7 -18.3 L-34.7 -18.35 Q-31.45 -24.2 -27.5 -26.15 -20.85 -29.6 -14.35 -29.55 -10.65 -29.55 -6.35 -28.55 L-6.25 -28.55 Q-3.75 -27.95 -2.0 -27.15 L0.9 -29.0 Q4.9 -31.05 9.4 -31.05 M-19.5 -11.75 L-19.5 -11.8 Q-18.1 -13.35 -15.8 -13.35 -11.95 -13.35 -9.85 -12.35 L-9.85 -12.3 Q-9.25 -12.0 -9.0 -11.45 -8.9 -11.35 -8.95 -11.15 L-9.45 -7.75 -9.45 -7.65 Q-10.0 -3.55 -9.75 0.0 L-9.75 0.1 Q-9.65 1.8 -10.45 3.0 L-10.55 3.2 Q-11.6 4.3 -13.35 5.2 L-13.4 5.2 -13.5 5.3 -17.25 7.4 -17.5 7.45 -17.8 7.35 -18.85 5.95 Q-19.85 3.9 -21.0 1.8 L-21.05 1.7 Q-21.65 -0.15 -21.65 -4.2 -21.65 -9.3 -19.5 -11.75 M-20.65 -4.2 Q-20.65 -0.4 -20.1 1.4 L-17.95 5.5 -17.4 6.35 Q-15.1 5.0 -14.0 4.45 L-13.8 4.3 Q-12.3 3.55 -11.4 2.65 L-11.35 2.5 Q-10.65 1.55 -10.75 0.15 L-10.75 0.0 Q-11.0 -3.6 -10.45 -7.8 L-10.45 -7.85 -9.95 -11.15 -10.35 -11.45 -10.3 -11.45 Q-12.25 -12.35 -15.8 -12.35 -17.6 -12.35 -18.75 -11.1 -20.65 -8.9 -20.65 -4.2 M7.85 -12.7 Q7.85 -11.35 8.25 -10.3 9.25 -7.65 9.05 -6.75 9.05 -2.5 8.0 0.85 L8.0 1.05 7.4 2.6 7.9 3.1 8.3 3.45 12.3 7.0 16.1 2.05 16.15 2.0 17.75 -0.3 Q17.65 -13.5 8.5 -13.95 L8.25 -13.95 8.2 -13.95 8.15 -13.95 Q7.85 -13.55 7.85 -12.7 M7.5 -14.75 L7.6 -14.8 8.2 -14.95 8.25 -14.95 8.5 -14.95 8.55 -14.95 Q18.7 -14.6 18.75 -0.15 L18.65 0.15 17.05 2.45 16.9 2.65 12.75 8.05 12.55 8.25 12.25 8.25 12.05 8.15 7.55 4.15 7.4 3.95 7.25 3.85 6.5 3.15 6.35 2.9 6.35 2.6 7.0 0.75 7.05 0.6 Q8.05 -2.65 8.05 -6.85 L8.05 -6.95 Q8.15 -7.65 7.3 -9.95 6.85 -11.15 6.85 -12.7 6.85 -14.15 7.5 -14.75 M1.35 -28.1 Q-0.55 -27.15 -1.85 -26.0 -3.7 -26.9 -6.5 -27.55 -10.75 -28.55 -14.35 -28.55 -20.65 -28.6 -27.05 -25.25 -30.75 -23.4 -33.85 -17.85 -35.8 -14.35 -36.4 -12.1 L-36.35 -12.1 Q-36.85 -10.6 -37.15 -7.85 L-37.5 -4.45 Q-37.5 3.85 -35.7 7.9 -35.0 9.65 -30.0 16.85 -29.75 17.5 -29.65 19.7 L-29.55 20.15 Q-28.65 25.35 -22.65 25.35 -21.8 25.4 -20.15 24.85 L-20.0 24.8 -19.65 24.6 Q-15.8 24.6 -11.25 26.55 L-11.25 26.6 Q-5.25 29.05 -3.2 28.95 1.25 28.95 5.8 27.5 9.35 26.4 11.45 26.35 L11.85 26.55 11.9 26.6 Q14.05 28.45 15.6 28.2 18.3 28.2 20.7 26.45 L20.65 26.5 Q23.75 24.25 23.7 20.65 23.8 19.4 23.15 18.1 L28.2 12.55 Q33.65 4.8 33.65 -5.0 33.65 -16.5 26.15 -23.5 L26.2 -23.5 Q19.3 -30.05 9.4 -30.05 5.15 -30.05 1.35 -28.1" fill="#c6c6c6" fill-rule="evenodd" stroke="none"/>
    <path d="M19.2 17.75 Q20.7 19.3 20.7 20.65 20.7 22.75 18.9 24.05 17.35 25.2 15.6 25.2 L13.8 24.95 Q12.45 23.35 11.45 23.35 10.55 23.35 8.0 24.3 L3.9 25.55 0.3 25.85 -3.2 25.95 Q-7.85 25.95 -13.5 23.8 -19.15 21.6 -19.65 21.6 L-21.15 22.0 -22.65 22.35 Q-24.35 22.35 -25.5 21.15 -26.35 20.25 -26.55 19.2 L-26.25 18.05 Q-26.1 17.35 -27.55 15.1 L-32.9 6.6 Q-34.5 2.9 -34.5 -4.45 L-34.2 -7.45 -33.5 -11.3 -32.85 -12.9 Q-32.7 -13.15 -32.7 -13.65 -32.7 -14.35 -31.55 -16.2 L-29.6 -19.1 Q-27.5 -21.75 -25.7 -22.6 -21.25 -24.85 -19.25 -25.25 L-14.35 -25.55 -7.2 -24.65 Q-2.6 -23.55 -1.45 -21.85 -0.25 -23.95 2.7 -25.45 5.85 -27.05 9.4 -27.05 18.1 -27.05 24.1 -21.35 30.65 -15.15 30.65 -5.0 30.65 2.9 26.65 9.35 24.1 13.45 19.2 17.75 M2.6 -1.85 L2.9 -0.55 Q3.45 -2.3 3.45 -3.9 3.45 -13.15 -0.65 -18.35 -5.25 -24.15 -14.4 -24.15 L-18.25 -23.5 -23.25 -22.3 Q-25.7 -21.15 -26.8 -20.2 L-27.45 -19.45 -29.15 -17.05 -31.5 -12.75 -31.5 -12.7 -32.0 -10.9 -32.9 -6.8 Q-32.9 0.75 -31.9 5.75 L-30.5 8.5 -28.75 11.15 -25.6 15.15 -25.05 15.8 -19.6 11.75 Q-19.9 11.5 -20.1 11.35 L-21.2 9.85 -24.05 5.8 Q-26.1 1.7 -26.1 -4.1 L-24.9 -11.2 -23.45 -13.95 Q-22.95 -14.75 -21.3 -15.95 L-19.35 -17.15 -11.7 -17.4 -8.9 -16.8 -7.4 -15.9 -3.0 -12.35 -1.5 -10.7 -1.6 -10.7 Q1.35 -7.45 1.65 -6.2 L2.6 -1.85 M-18.55 10.75 Q-13.0 8.55 -10.8 7.15 -8.95 6.05 -8.1 5.05 -6.7 3.5 -6.6 1.85 L-6.8 -2.0 -5.95 -11.35 Q-5.95 -14.55 -10.55 -15.75 L-15.8 -16.35 Q-20.1 -16.35 -22.4 -13.1 -24.65 -9.95 -24.65 -4.2 -24.65 -1.8 -24.0 1.25 L-23.15 4.4 Q-19.75 10.75 -18.55 10.75 M0.6 -1.9 Q0.55 -3.35 -1.15 -6.6 -2.85 -9.75 -3.75 -10.35 L-4.65 -10.6 -5.15 -6.0 -5.4 -2.15 -5.3 -0.75 Q-5.3 1.8 -4.55 5.25 -3.65 9.4 -2.45 9.4 -2.05 9.4 -1.0 10.85 0.35 12.75 1.45 13.7 L4.6 16.25 4.7 16.3 4.8 16.35 12.85 22.2 15.8 24.05 17.0 23.8 18.05 23.2 18.9 22.1 19.4 20.65 Q19.4 20.05 18.35 19.2 L13.3 15.3 10.25 12.7 6.75 9.8 Q2.4 5.85 1.8 3.1 L1.5 0.85 Q1.3 -0.6 0.6 -1.9 M14.0 13.5 L13.9 13.55 Q15.15 13.75 16.55 15.4 17.9 16.95 18.35 16.95 19.65 16.95 24.0 11.1 29.4 3.9 29.4 -3.2 29.4 -11.35 25.05 -17.7 20.15 -24.85 12.25 -25.4 L10.9 -26.05 10.7 -25.55 Q8.5 -25.6 4.45 -24.35 -0.4 -22.85 -0.4 -21.0 -0.4 -19.9 0.55 -18.35 L3.0 -14.5 Q4.05 -16.65 4.8 -17.6 6.15 -19.25 8.6 -19.25 10.95 -19.25 13.3 -18.4 16.9 -17.05 19.55 -13.85 L21.6 -9.75 22.35 -6.15 22.95 -2.05 Q22.95 0.85 21.4 4.3 19.1 9.3 14.0 13.5 M21.1 1.65 Q21.75 1.65 21.75 0.0 L21.65 -2.4 Q21.65 -11.4 16.0 -15.45 12.45 -17.95 8.5 -17.95 L6.1 -17.45 Q3.85 -16.25 3.85 -12.7 3.85 -8.95 4.45 -8.95 5.05 -8.9 5.05 -6.4 5.05 -2.25 4.15 -0.05 3.2 2.15 3.2 2.9 3.2 4.5 6.75 7.85 L12.75 13.0 Q14.2 11.9 17.75 6.65 L21.1 1.65 M3.65 17.55 L0.5 14.85 -2.8 11.4 -5.75 13.6 -8.9 15.35 -10.15 15.9 -8.65 16.1 Q-8.45 16.1 -8.45 16.6 -8.45 17.35 -2.8 17.7 2.8 18.05 3.65 17.55 M2.55 18.85 L-2.15 19.0 -6.65 18.4 -10.95 17.35 -12.45 17.15 -15.0 18.45 -18.45 20.6 -6.35 25.05 1.55 24.2 8.85 23.2 9.9 22.75 6.6 19.8 Q4.7 18.2 2.55 18.85 M-11.85 15.5 L-11.8 15.45 -9.45 14.35 -6.9 12.85 -4.55 11.7 Q-3.7 11.25 -3.7 10.55 -3.7 10.05 -4.95 8.4 -6.15 6.8 -6.05 4.45 -8.6 7.85 -13.0 10.05 L-17.1 12.1 -17.4 12.1 -17.35 12.25 -20.7 13.95 -21.65 14.65 Q-25.05 17.15 -25.05 18.55 -25.05 20.1 -23.8 20.7 L-22.35 21.05 Q-21.75 21.05 -17.8 18.8 L-11.85 15.5" fill="#804308" fill-rule="evenodd" stroke="none"/>
    <path d="M-6.4 -21.7 L-6.3 -21.4 -6.75 -20.2 -8.3 -20.05 -8.4 -21.15 -8.4 -21.75 -8.3 -20.75 -6.65 -20.9 -6.4 -21.7 M-24.85 -17.45 L-24.85 -16.75 -27.0 -17.5 -26.8 -18.15 -24.85 -17.45 M-29.9 -10.85 L-30.7 -10.45 Q-31.55 -12.05 -31.25 -12.15 L-30.8 -11.15 -29.55 -11.7 -29.9 -10.85 M-32.9 -6.8 L-31.8 -2.95 -30.8 0.85 Q-30.8 2.2 -31.2 3.8 L-31.9 5.75 Q-32.9 0.75 -32.9 -6.8 M-30.5 8.5 Q-31.1 6.7 -31.1 5.15 -31.1 4.0 -30.7 3.5 -29.0 4.5 -27.25 6.45 -25.35 8.6 -24.35 10.85 L-24.1 10.95 -21.2 9.85 -20.1 11.35 Q-19.9 11.5 -19.6 11.75 L-25.05 15.8 -25.6 15.15 -28.75 11.15 -30.5 8.5 M-28.0 -7.85 L-27.85 -7.2 -29.55 -6.95 -29.65 -8.7 -29.55 -7.65 -28.0 -7.85 M-3.6 -16.95 L-3.6 -16.85 -4.95 -16.25 -5.1 -16.25 -5.8 -17.8 -5.5 -17.9 -5.05 -16.9 -3.8 -17.45 -3.6 -16.95 M-10.7 -18.65 L-10.95 -17.95 -12.5 -18.5 -12.3 -19.0 -12.3 -19.1 -10.95 -18.65 -10.6 -19.65 -10.7 -18.65 M-5.3 -0.75 L-5.4 -2.15 -5.15 -6.0 -4.65 -10.6 -3.75 -10.35 Q-2.85 -9.75 -1.15 -6.6 0.55 -3.35 0.6 -1.9 L-0.75 -3.7 -1.95 -4.85 -3.2 -4.35 Q-4.5 -3.35 -5.3 -0.75 M13.3 15.3 L18.35 19.2 Q19.4 20.05 19.4 20.65 L18.9 22.1 18.05 23.2 17.6 23.35 17.85 23.0 18.1 21.95 Q18.1 20.05 16.6 18.5 L13.3 15.3 M-1.6 -0.5 L-1.35 -0.4 -2.1 1.1 -3.7 0.35 -3.4 -0.2 -2.1 0.4 -1.6 -0.5 M11.9 -23.95 L12.5 -25.3 12.25 -25.4 Q20.15 -24.85 25.05 -17.7 29.4 -11.35 29.4 -3.2 29.4 3.9 24.0 11.1 19.65 16.95 18.35 16.95 17.9 16.95 16.55 15.4 15.15 13.75 13.9 13.55 L14.0 13.5 Q15.45 14.2 16.55 14.1 17.6 14.05 19.25 13.15 L18.35 12.4 18.35 12.05 19.65 12.65 20.1 12.05 20.4 12.25 Q23.45 9.65 23.9 6.55 L25.25 7.7 26.0 5.55 25.35 5.25 Q27.7 3.05 27.7 -2.85 L27.6 -5.05 Q27.4 -4.65 26.75 -4.95 L25.95 -5.3 25.95 -5.6 25.95 -5.8 26.05 -6.0 27.4 -5.35 28.15 -6.85 27.45 -7.05 Q26.7 -8.4 26.1 -11.0 L25.0 -15.05 Q23.35 -19.65 18.35 -20.25 L18.9 -20.65 Q18.75 -21.15 17.5 -21.65 16.4 -22.15 15.3 -22.3 L14.05 -21.9 13.1 -21.55 13.45 -21.15 Q14.8 -21.35 17.6 -20.45 L18.0 -20.3 15.6 -20.35 13.9 -20.2 12.8 -20.35 10.9 -20.5 10.35 -21.1 11.7 -22.45 Q12.8 -23.25 14.3 -23.2 L14.95 -22.85 Q13.45 -24.0 12.25 -24.0 L11.9 -23.95 M10.7 -25.55 L10.2 -24.6 11.65 -23.85 11.5 -23.8 10.7 -23.65 Q8.95 -22.85 6.75 -23.2 L6.0 -22.05 5.8 -22.4 4.3 -21.75 5.05 -20.15 6.5 -20.4 6.8 -19.75 5.05 -19.45 Q4.55 -19.45 4.8 -20.0 5.0 -20.6 4.5 -20.6 4.2 -20.6 3.4 -20.2 2.4 -19.65 2.4 -19.1 L2.7 -16.85 3.0 -14.5 0.55 -18.35 Q-0.4 -19.9 -0.4 -21.0 -0.4 -22.85 4.45 -24.35 8.5 -25.6 10.7 -25.55 M20.1 -15.4 L20.0 -16.25 20.45 -15.3 21.9 -15.95 Q21.95 -15.3 20.6 -14.65 L20.1 -15.4 M23.45 2.7 L23.25 1.95 24.9 2.05 25.0 1.15 25.05 1.15 24.9 2.75 23.45 2.7 M2.4 7.05 L2.75 7.45 1.4 8.45 0.3 7.1 0.65 6.85 1.4 7.75 2.4 7.05 M3.6 12.85 L3.2 13.5 3.0 13.75 1.4 13.0 1.7 12.45 3.0 13.05 3.75 11.9 3.6 12.85 M8.95 16.35 L8.3 14.95 8.6 14.85 9.05 15.9 10.3 15.3 10.6 15.85 9.55 16.4 8.95 16.35 M5.1 19.65 L4.75 19.75 4.4 20.0 Q4.55 20.6 5.65 21.95 L5.8 22.7 Q6.0 23.25 6.6 23.25 8.0 23.25 8.2 22.8 L5.1 19.65 M-4.75 23.25 L-3.65 23.35 -2.45 23.6 1.0 23.3 Q3.5 22.95 4.1 22.5 4.1 21.65 3.4 20.45 L2.55 18.85 Q4.7 18.2 6.6 19.8 L9.9 22.75 8.85 23.2 1.55 24.2 -6.35 25.05 -18.45 20.6 -15.0 18.45 -12.45 17.15 -10.95 17.35 -12.3 18.55 -12.75 19.45 -12.6 19.9 -11.95 21.5 -10.45 20.8 -9.0 22.2 Q-7.85 23.05 -6.5 23.3 L-6.45 23.3 -6.35 24.35 -4.7 24.25 -4.75 23.25 M-6.9 12.85 Q-6.85 11.8 -6.35 10.85 L-5.75 9.65 Q-5.85 9.05 -7.1 9.05 L-15.7 12.05 -17.1 12.1 -13.0 10.05 Q-8.6 7.85 -6.05 4.45 -6.15 6.8 -4.95 8.4 -3.7 10.05 -3.7 10.55 -3.7 11.25 -4.55 11.7 L-6.9 12.85 M-10.75 11.85 L-10.65 11.55 -10.55 12.1 -8.85 11.85 -8.55 12.5 -10.55 12.8 -10.75 11.85 M-17.25 16.55 L-17.2 16.75 -17.6 17.7 Q-16.8 17.25 -14.25 16.35 L-11.85 15.5 -17.8 18.8 Q-21.75 21.05 -22.35 21.05 L-23.8 20.7 Q-25.05 20.1 -25.05 18.55 -25.05 17.15 -21.65 14.65 -22.95 16.4 -23.25 17.6 L-23.3 17.4 -23.35 17.95 Q-23.35 18.55 -22.95 19.0 -22.6 19.4 -22.25 19.4 L-20.95 19.15 -18.15 17.95 -19.35 17.1 -19.0 16.65 -17.9 17.4 -17.25 16.55 M-17.2 14.45 L-17.35 13.1 Q-18.95 14.7 -20.7 13.95 L-17.35 12.25 -17.2 13.9 -15.6 13.65 -15.55 14.35 -17.2 14.45 M-3.25 21.25 L-1.65 21.55 -1.5 20.5 -1.45 20.5 -1.65 22.25 -3.3 21.95 -3.25 21.25 M-30.05 2.8 L-28.65 2.95 -28.5 1.95 -28.45 1.95 -28.65 3.65 -30.25 3.45 -30.05 2.8 M-28.4 6.95 L-29.3 6.2 -29.6 6.0 -30.05 5.35 -29.5 7.2 Q-28.8 8.8 -28.2 9.25 -26.65 10.45 -26.0 10.3 L-26.2 9.4 -27.55 7.65 -28.4 6.95 M-22.8 8.8 L-22.55 9.35 -24.05 10.05 Q-24.8 8.45 -24.5 8.35 L-24.05 9.35 -22.8 8.8" fill="#9e530a" fill-rule="evenodd" stroke="none"/>
    <path d="M18.0 -20.3 L17.6 -20.45 Q16.2 -21.4 15.3 -22.3 16.4 -22.15 17.5 -21.65 18.75 -21.15 18.9 -20.65 L18.35 -20.25 18.0 -20.3 M5.1 19.65 L8.2 22.8 Q8.0 23.25 6.6 23.25 6.0 23.25 5.8 22.7 L5.65 21.95 Q5.7 20.8 5.1 19.65 M-28.2 9.25 Q-27.95 8.6 -28.4 6.95 L-27.55 7.65 -26.2 9.4 -26.0 10.3 Q-26.65 10.45 -28.2 9.25" fill="#d2bca6" fill-rule="evenodd" stroke="none"/>
    <path d="M-31.5 -12.75 L-29.15 -17.05 -27.45 -19.45 -26.8 -20.2 Q-25.7 -21.15 -23.25 -22.3 L-18.25 -23.5 -14.4 -24.15 Q-5.25 -24.15 -0.65 -18.35 3.45 -13.15 3.45 -3.9 3.45 -2.3 2.9 -0.55 L2.6 -1.85 Q2.4 -5.3 1.85 -6.85 0.95 -9.3 -1.5 -10.7 L-3.0 -12.35 -7.4 -15.9 -5.3 -15.4 Q-3.8 -14.9 -2.8 -13.65 L-1.5 -11.95 Q-0.25 -10.6 0.65 -10.6 1.2 -11.15 1.2 -12.0 1.2 -13.95 -1.1 -16.95 -3.55 -20.05 -6.3 -21.4 L-6.4 -21.7 -6.2 -22.4 -8.5 -22.45 -8.45 -22.0 -14.3 -22.85 Q-18.6 -22.85 -21.0 -21.9 L-25.5 -19.5 -26.55 -19.85 -26.95 -18.25 -28.6 -15.75 -30.0 -13.35 -30.05 -13.4 -30.05 -13.35 -31.5 -12.75 M-30.7 -10.45 L-30.85 -4.25 Q-30.7 -4.0 -29.7 -4.0 -28.75 -4.0 -27.95 -6.65 -26.75 -10.5 -23.45 -13.95 L-24.9 -11.2 -26.1 -4.1 Q-26.1 1.7 -24.05 5.8 L-21.2 9.85 -24.1 10.95 -24.35 10.85 Q-25.35 8.6 -27.25 6.45 -29.0 4.5 -30.7 3.5 -31.1 4.0 -31.1 5.15 -31.1 6.7 -30.5 8.5 L-31.9 5.75 -31.2 3.8 Q-30.8 2.2 -30.8 0.85 L-31.8 -2.95 -32.9 -6.8 -32.0 -10.9 -31.5 -12.7 -31.25 -12.15 Q-31.55 -12.05 -30.7 -10.45 M-19.35 -17.15 Q-17.4 -18.45 -15.95 -18.45 L-14.1 -18.1 -11.7 -17.4 -19.35 -17.15 M-5.3 -0.75 Q-4.5 -3.35 -3.2 -4.35 L-1.95 -4.85 -0.75 -3.7 0.6 -1.9 Q1.3 -0.6 1.5 0.85 L1.8 3.1 Q2.4 5.85 6.75 9.8 L4.2 8.1 2.65 6.85 Q2.65 6.35 2.3 6.0 1.9 5.65 1.35 5.65 L-1.0 2.95 Q-1.55 2.45 -2.2 2.45 -3.2 2.45 -3.25 3.0 L-3.45 3.15 -3.5 3.8 Q-3.5 5.75 1.5 12.15 L1.7 12.45 1.4 13.0 3.0 13.75 3.2 13.5 Q4.3 14.7 6.2 15.55 7.9 16.35 8.95 16.35 L9.55 16.4 10.75 16.35 Q11.35 16.2 11.35 15.55 L10.95 14.3 10.25 12.7 13.3 15.3 16.6 18.5 Q18.1 20.05 18.1 21.95 L17.85 23.0 17.6 23.35 16.75 23.55 12.75 21.0 7.05 17.6 4.8 16.35 4.7 16.3 4.6 16.25 1.45 13.7 Q0.35 12.75 -1.0 10.85 -2.05 9.4 -2.45 9.4 -3.65 9.4 -4.55 5.25 -5.3 1.8 -5.3 -0.75 M-1.6 -0.5 L-1.35 -1.1 -2.95 -1.85 -3.7 -0.35 -3.4 -0.2 -3.7 0.35 -2.1 1.1 -1.35 -0.4 -1.6 -0.5 M11.9 -23.95 L12.25 -24.0 Q13.45 -24.0 14.95 -22.85 L14.3 -23.2 Q12.8 -23.25 11.7 -22.45 L10.35 -21.1 10.9 -20.5 12.8 -20.35 13.9 -20.2 15.6 -20.35 18.0 -20.3 18.35 -20.25 Q23.35 -19.65 25.0 -15.05 L26.1 -11.0 Q26.7 -8.4 27.45 -7.05 L26.7 -7.25 25.05 -13.45 Q24.25 -16.05 21.8 -17.25 L21.8 -17.3 20.45 -18.05 19.2 -18.35 18.55 -18.3 18.6 -18.3 Q18.6 -17.45 20.1 -15.4 L20.6 -14.65 Q22.7 -12.75 23.25 -9.0 23.6 -6.6 23.55 0.35 L23.25 1.15 23.15 1.95 23.25 1.95 23.45 2.7 23.25 5.5 Q23.25 6.5 23.35 6.35 L23.5 6.2 24.9 2.75 26.05 -1.7 26.75 -4.95 Q27.4 -4.65 27.6 -5.05 L27.7 -2.85 Q27.7 3.05 25.35 5.25 L24.4 4.8 23.65 6.3 23.9 6.55 Q23.45 9.65 20.4 12.25 L20.1 12.05 20.4 11.55 18.8 10.4 18.05 11.9 18.35 12.05 18.35 12.4 19.25 13.15 Q17.6 14.05 16.55 14.1 15.45 14.2 14.0 13.5 19.1 9.3 21.4 4.3 22.95 0.85 22.95 -2.05 L22.35 -6.15 21.6 -9.75 19.55 -13.85 Q16.9 -17.05 13.3 -18.4 10.95 -19.25 8.6 -19.25 6.15 -19.25 4.8 -17.6 4.05 -16.65 3.0 -14.5 L2.7 -16.85 2.4 -19.1 Q2.4 -19.65 3.4 -20.2 4.2 -20.6 4.5 -20.6 5.0 -20.6 4.8 -20.0 4.55 -19.45 5.05 -19.45 L6.8 -19.75 6.5 -20.4 Q6.8 -20.45 6.0 -22.05 L6.75 -23.2 Q8.95 -22.85 10.7 -23.65 L11.5 -23.8 11.65 -23.85 11.8 -23.8 11.9 -23.95 M2.55 18.85 L3.4 20.45 Q4.1 21.65 4.1 22.5 3.5 22.95 1.0 23.3 L-2.45 23.6 -3.65 23.35 -4.75 23.25 -4.85 22.5 -6.5 22.6 -6.45 23.3 -6.5 23.3 Q-7.85 23.05 -9.0 22.2 L-10.45 20.8 -10.45 19.5 -12.6 19.9 -12.75 19.45 -12.3 18.55 -10.95 17.35 -6.65 18.4 -2.15 19.0 2.55 18.85 M-15.7 12.05 L-7.1 9.05 Q-5.85 9.05 -5.75 9.65 L-6.35 10.85 Q-6.85 11.8 -6.9 12.85 L-9.45 14.35 -11.8 15.45 -11.85 15.5 -14.25 16.35 Q-16.8 17.25 -17.6 17.7 L-17.2 16.75 -17.25 16.55 -17.15 15.9 -14.35 14.7 -10.55 12.8 -8.55 12.5 -8.85 11.85 Q-8.65 11.8 -8.95 11.05 L-9.3 10.25 -10.8 10.9 -10.65 11.55 -10.75 11.85 -15.55 13.4 -15.7 12.05 M-20.7 13.95 Q-18.95 14.7 -17.35 13.1 L-17.2 14.45 -18.35 15.1 -18.45 15.15 -21.1 16.9 -20.95 17.0 -19.15 16.55 -19.0 16.65 -19.35 17.1 -18.15 17.95 -20.95 19.15 -22.25 19.4 Q-22.6 19.4 -22.95 19.0 -23.35 18.55 -23.35 17.95 L-23.3 17.4 -23.25 17.6 Q-22.95 16.4 -21.65 14.65 L-20.7 13.95 M-3.25 21.25 L-3.3 21.95 -1.65 22.25 -1.45 20.5 -1.5 20.5 -1.45 19.8 -3.25 20.0 -3.3 21.25 -3.25 21.25 M-30.05 2.8 L-30.25 3.45 -28.65 3.65 -28.45 1.95 -28.5 1.95 -28.45 1.25 -29.8 1.1 -30.25 2.75 -30.05 2.8 M-22.8 8.8 L-22.55 8.65 -23.3 7.1 -24.8 7.75 -24.5 8.35 Q-24.8 8.45 -24.05 10.05 L-22.55 9.35 -22.8 8.8" fill="#c37525" fill-rule="evenodd" stroke="none"/>
    <path d="M-31.5 -12.75 L-30.05 -13.35 -30.05 -13.4 -30.0 -13.35 -29.35 -12.0 -29.55 -11.7 -30.8 -11.15 -31.25 -12.15 -31.5 -12.7 -31.5 -12.75 M-26.95 -18.25 L-26.55 -19.85 -25.5 -19.5 -25.2 -19.2 Q-24.9 -18.65 -24.85 -17.45 L-26.8 -18.15 -26.95 -18.25 M-8.45 -22.0 L-8.5 -22.45 -6.2 -22.4 -6.4 -21.7 -6.65 -20.9 -8.3 -20.75 -8.4 -21.75 -8.45 -22.0 M-1.5 -10.7 Q0.95 -9.3 1.85 -6.85 2.4 -5.3 2.6 -1.85 L1.65 -6.2 Q1.35 -7.45 -1.6 -10.7 L-1.5 -10.7 M-29.65 -8.7 L-29.75 -9.4 -28.2 -9.55 -27.85 -7.9 -28.0 -7.85 -29.55 -7.65 -29.65 -8.7 M-4.7 -18.95 Q-4.2 -18.95 -3.85 -18.55 -3.55 -18.15 -3.55 -17.6 L-3.8 -17.45 -5.05 -16.9 -5.5 -17.9 -5.8 -18.5 -4.7 -18.95 M-12.3 -19.1 L-12.5 -19.2 -11.95 -20.85 -10.4 -20.3 -10.6 -19.65 -10.95 -18.65 -12.3 -19.1 M18.05 23.2 L17.0 23.8 15.8 24.05 12.85 22.2 4.8 16.35 7.05 17.6 12.75 21.0 16.75 23.55 17.6 23.35 18.05 23.2 M-3.4 -0.2 L-3.7 -0.35 -2.95 -1.85 -1.35 -1.1 -1.6 -0.5 -2.1 0.4 -3.4 -0.2 M12.25 -25.4 L12.5 -25.3 11.9 -23.95 11.8 -23.8 11.65 -23.85 10.2 -24.6 10.7 -25.55 10.9 -26.05 12.25 -25.4 M17.6 -20.45 Q14.8 -21.35 13.45 -21.15 L13.1 -21.55 14.05 -21.9 15.3 -22.3 Q16.2 -21.4 17.6 -20.45 M27.45 -7.05 L28.15 -6.85 27.4 -5.35 26.05 -6.0 25.95 -6.0 25.95 -6.4 26.3 -7.35 26.7 -7.25 27.45 -7.05 M25.35 5.25 L26.0 5.55 25.25 7.7 23.9 6.55 23.65 6.3 24.4 4.8 25.35 5.25 M20.1 12.05 L19.65 12.65 18.35 12.05 18.05 11.9 18.8 10.4 20.4 11.55 20.1 12.05 M6.0 -22.05 Q6.8 -20.45 6.5 -20.4 L5.05 -20.15 4.3 -21.75 5.8 -22.4 6.0 -22.05 M20.0 -16.25 L19.7 -16.9 21.8 -17.3 21.8 -17.25 21.9 -15.95 20.45 -15.3 20.0 -16.25 M23.25 1.95 L23.15 1.95 23.25 1.15 23.55 0.35 25.05 0.45 25.0 1.15 24.9 2.05 23.25 1.95 M1.35 5.65 Q1.9 5.65 2.3 6.0 2.65 6.35 2.65 6.85 L2.4 7.05 1.4 7.75 0.65 6.85 0.3 6.4 1.35 5.65 M1.5 12.15 L1.9 11.3 2.15 10.8 4.1 11.3 3.75 11.9 3.0 13.05 1.7 12.45 1.5 12.15 M8.6 14.85 L8.3 14.25 9.8 13.6 10.6 15.15 10.3 15.3 9.05 15.9 8.6 14.85 M5.65 21.95 Q4.55 20.6 4.4 20.0 L4.75 19.75 5.1 19.65 Q5.7 20.8 5.65 21.95 M-12.6 19.9 L-10.45 19.5 -10.45 20.8 -11.95 21.5 -12.6 19.9 M-6.45 23.3 L-6.5 22.6 -4.85 22.5 -4.75 23.25 -4.7 24.25 -6.35 24.35 -6.45 23.3 M-15.7 12.05 L-15.55 13.4 -15.6 13.65 -17.2 13.9 -17.35 12.25 -17.4 12.1 -17.1 12.1 -15.7 12.05 M-10.65 11.55 L-10.8 10.9 -9.3 10.25 -8.95 11.05 Q-8.65 11.8 -8.85 11.85 L-10.55 12.1 -10.65 11.55 M-17.15 15.9 L-17.25 16.55 -17.9 17.4 -19.0 16.65 -19.15 16.55 -19.35 16.4 -18.45 15.15 -18.35 15.1 -17.15 15.9 M-1.5 20.5 L-1.65 21.55 -3.25 21.25 -3.3 21.25 -3.25 20.0 -1.45 19.8 -1.5 20.5 M-28.5 1.95 L-28.65 2.95 -30.05 2.8 -30.25 2.75 -29.8 1.1 -28.45 1.25 -28.5 1.95 M-28.2 9.25 Q-28.8 8.8 -29.5 7.2 L-30.05 5.35 -29.6 6.0 -29.3 6.2 -28.4 6.95 Q-27.95 8.6 -28.2 9.25 M-24.5 8.35 L-24.8 7.75 -23.3 7.1 -22.55 8.65 -22.8 8.8 -24.05 9.35 -24.5 8.35" fill="#e6d6c6" fill-rule="evenodd" stroke="none"/>
    <path d="M-30.0 -13.35 L-28.6 -15.75 -26.95 -18.25 -26.8 -18.15 -27.0 -17.5 -24.85 -16.75 -24.85 -17.45 Q-24.9 -18.65 -25.2 -19.2 L-25.5 -19.5 -21.0 -21.9 Q-18.6 -22.85 -14.3 -22.85 L-8.45 -22.0 -8.4 -21.75 -8.4 -21.15 -11.3 -21.7 -14.1 -21.95 Q-17.4 -21.95 -19.4 -21.0 -21.05 -20.25 -21.05 -19.35 L-20.8 -18.5 -20.4 -18.25 -12.3 -19.0 -12.5 -18.5 -10.95 -17.95 -10.7 -18.65 -5.1 -16.25 -4.95 -16.25 -4.0 -16.4 -3.6 -16.85 -3.6 -16.95 -3.55 -17.6 Q-3.55 -18.15 -3.85 -18.55 -4.2 -18.95 -4.7 -18.95 L-6.75 -20.2 -6.3 -21.4 Q-3.55 -20.05 -1.1 -16.95 1.2 -13.95 1.2 -12.0 1.2 -11.15 0.65 -10.6 -0.25 -10.6 -1.5 -11.95 L-2.8 -13.65 Q-3.8 -14.9 -5.3 -15.4 L-7.4 -15.9 -8.9 -16.8 -11.7 -17.4 -14.1 -18.1 -15.95 -18.45 Q-17.4 -18.45 -19.35 -17.15 L-21.3 -15.95 Q-22.95 -14.75 -23.45 -13.95 -26.75 -10.5 -27.95 -6.65 -28.75 -4.0 -29.7 -4.0 -30.7 -4.0 -30.85 -4.25 L-30.7 -10.45 -29.9 -10.85 -29.65 -10.05 -29.05 -9.55 Q-27.9 -10.3 -27.0 -11.7 -26.25 -12.85 -26.25 -13.3 L-26.35 -13.95 -26.5 -14.0 -27.5 -13.95 -29.35 -12.0 -30.0 -13.35 M-28.0 -7.85 L-27.85 -7.9 -28.2 -9.55 -29.75 -9.4 -29.65 -8.7 -29.55 -6.95 -27.85 -7.2 -28.0 -7.85 M6.75 9.8 L10.25 12.7 10.95 14.3 11.35 15.55 Q11.35 16.2 10.75 16.35 L9.55 16.4 10.6 15.85 10.3 15.3 10.6 15.15 9.8 13.6 8.3 14.25 8.6 14.85 8.3 14.95 8.95 16.35 Q7.9 16.35 6.2 15.55 4.3 14.7 3.2 13.5 L3.6 12.85 Q5.2 14.45 6.85 14.45 L8.15 13.35 Q7.6 12.3 5.7 10.7 3.65 8.95 2.75 8.95 2.1 8.95 1.8 9.25 L1.45 9.8 1.9 11.3 1.5 12.15 Q-3.5 5.75 -3.5 3.8 L-3.45 3.15 -3.25 3.0 Q-3.2 2.45 -2.2 2.45 -1.55 2.45 -1.0 2.95 L1.35 5.65 0.3 6.4 0.65 6.85 0.3 7.1 1.4 8.45 2.75 7.45 2.4 7.05 2.65 6.85 4.2 8.1 6.75 9.8 M26.05 -6.0 L25.95 -5.8 25.95 -5.6 25.7 -7.1 Q25.15 -10.3 23.85 -11.7 L23.8 -11.55 Q24.3 -4.3 25.55 -2.3 L25.95 -5.3 26.75 -4.95 26.05 -1.7 24.9 2.75 23.5 6.2 23.35 6.35 Q23.25 6.5 23.25 5.5 L23.45 2.7 24.9 2.75 25.05 1.15 25.0 1.15 25.05 0.45 23.55 0.35 Q23.6 -6.6 23.25 -9.0 22.7 -12.75 20.6 -14.65 21.95 -15.3 21.9 -15.95 L21.8 -17.25 Q24.25 -16.05 25.05 -13.45 L26.7 -7.25 26.3 -7.35 25.95 -6.4 25.95 -6.0 26.05 -6.0 M20.0 -16.25 L20.1 -15.4 Q18.6 -17.45 18.6 -18.3 L18.55 -18.3 19.2 -18.35 20.45 -18.05 21.8 -17.3 19.7 -16.9 20.0 -16.25 M-15.55 13.4 L-10.75 11.85 -10.55 12.8 -14.35 14.7 -17.15 15.9 -18.35 15.1 -17.2 14.45 -15.55 14.35 -15.6 13.65 -15.55 13.4 M-19.15 16.55 L-20.95 17.0 -21.1 16.9 -18.45 15.15 -19.35 16.4 -19.15 16.55" fill="#d38828" fill-rule="evenodd" stroke="none"/>
    <path d="M-29.35 -12.0 L-27.5 -13.95 -26.5 -14.0 -26.35 -13.95 -26.25 -13.3 Q-26.25 -12.85 -27.0 -11.7 -27.9 -10.3 -29.05 -9.55 L-29.65 -10.05 -29.9 -10.85 -29.55 -11.7 -29.35 -12.0 M-12.3 -19.0 L-20.4 -18.25 -20.8 -18.5 -21.05 -19.35 Q-21.05 -20.25 -19.4 -21.0 -17.4 -21.95 -14.1 -21.95 L-11.3 -21.7 -8.4 -21.15 -8.3 -20.05 -6.75 -20.2 -4.7 -18.95 -5.8 -18.5 -5.5 -17.9 -5.8 -17.8 -5.1 -16.25 -10.7 -18.65 -10.6 -19.65 -10.4 -20.3 -11.95 -20.85 -12.5 -19.2 -12.3 -19.1 -12.3 -19.0 M-3.55 -17.6 L-3.6 -16.95 -3.8 -17.45 -3.55 -17.6 M-3.6 -16.85 L-4.0 -16.4 -4.95 -16.25 -3.6 -16.85 M25.95 -5.6 L25.95 -5.3 25.55 -2.3 Q24.3 -4.3 23.8 -11.55 L23.85 -11.7 Q25.15 -10.3 25.7 -7.1 L25.95 -5.6 M1.9 11.3 L1.45 9.8 1.8 9.25 Q2.1 8.95 2.75 8.95 3.65 8.95 5.7 10.7 7.6 12.3 8.15 13.35 L6.85 14.45 Q5.2 14.45 3.6 12.85 L3.75 11.9 4.1 11.3 2.15 10.8 1.9 11.3" fill="#dc973e" fill-rule="evenodd" stroke="none"/>
  </g>
</svg>
