<?xml version="1.0" encoding="UTF-8" standalone="no"?>
<svg xmlns:ffdec="https://www.free-decompiler.com/flash" xmlns:xlink="http://www.w3.org/1999/xlink" ffdec:objectType="shape" height="115.65px" width="69.75px" xmlns="http://www.w3.org/2000/svg">
  <g transform="matrix(1.0, 0.0, 0.0, 1.0, 31.4, 128.65)">
    <path d="M4.7 -124.05 Q5.05 -124.05 5.25 -123.75 L5.4 -123.2 5.2 -122.6 3.05 -120.9 2.4 -120.8 Q2.0 -120.8 1.8 -121.15 L1.7 -121.8 2.1 -122.3 4.15 -123.85 4.7 -124.05 M22.8 -14.75 L22.45 -15.2 22.6 -15.75 23.1 -16.1 26.0 -16.6 26.55 -16.5 26.9 -16.05 26.8 -15.5 Q26.6 -15.25 26.3 -15.15 L23.35 -14.6 22.8 -14.75 M32.35 -17.95 L32.7 -17.5 32.6 -16.9 32.15 -16.55 29.25 -15.8 28.65 -15.9 28.35 -16.35 28.4 -16.95 Q28.55 -17.2 28.9 -17.25 L31.75 -18.0 32.35 -17.95 M37.35 -19.8 L37.95 -19.75 38.3 -19.35 38.3 -18.75 Q38.15 -18.5 37.85 -18.4 L35.05 -17.4 34.45 -17.45 Q34.15 -17.6 34.1 -17.9 34.0 -18.2 34.15 -18.5 L34.6 -18.85 37.35 -19.8 M4.55 -13.75 L4.8 -14.25 5.3 -14.5 8.3 -14.55 8.8 -14.35 9.05 -13.8 8.85 -13.3 Q8.65 -13.05 8.35 -13.05 L5.3 -13.0 4.8 -13.2 4.55 -13.75 M3.05 -13.75 L2.8 -13.25 Q2.6 -13.05 2.3 -13.05 L-0.75 -13.2 Q-1.05 -13.2 -1.25 -13.45 L-1.45 -14.0 -1.2 -14.5 -0.65 -14.7 2.35 -14.55 2.85 -14.3 3.05 -13.75 M17.4 -13.75 L16.85 -13.9 16.55 -14.4 16.7 -14.95 17.2 -15.25 20.15 -15.65 20.7 -15.5 21.0 -15.0 20.85 -14.45 20.35 -14.15 17.4 -13.75 M11.35 -13.2 L10.8 -13.35 10.55 -13.9 Q10.5 -14.2 10.75 -14.45 L11.25 -14.7 14.25 -14.95 14.8 -14.75 15.05 -14.25 14.9 -13.7 Q14.7 -13.5 14.4 -13.45 L11.35 -13.2 M8.25 -128.45 L8.9 -128.45 9.4 -127.95 Q9.5 -127.55 9.25 -127.3 L7.95 -124.95 7.35 -124.55 Q7.0 -124.45 6.75 -124.7 6.45 -124.9 6.35 -125.3 L6.5 -126.0 7.75 -128.05 8.25 -128.45 M-10.3 -125.45 L-9.65 -128.0 -9.3 -128.55 -8.6 -128.6 Q-8.25 -128.5 -8.1 -128.2 L-7.95 -127.55 -8.55 -125.15 Q-8.65 -124.8 -8.9 -124.55 L-9.6 -124.45 Q-9.95 -124.4 -10.15 -124.75 L-10.3 -125.45 M-0.9 -120.8 L-0.55 -120.25 -0.7 -119.55 -1.2 -119.2 -4.0 -118.85 Q-4.35 -118.85 -4.6 -119.15 L-4.85 -119.75 -4.7 -120.4 -4.05 -120.7 -1.55 -120.95 -0.9 -120.8 M-9.5 -122.3 L-9.2 -122.85 -8.65 -123.1 -8.1 -122.75 -6.25 -121.0 -5.95 -120.45 -6.15 -119.8 Q-6.45 -119.5 -6.75 -119.5 -7.15 -119.55 -7.35 -119.75 -8.45 -120.6 -9.35 -121.7 L-9.5 -122.3 M-19.4 -16.65 L-19.1 -17.1 -18.55 -17.2 -15.55 -16.6 Q-15.25 -16.55 -15.05 -16.3 L-14.95 -15.75 -15.25 -15.25 -15.85 -15.15 -18.85 -15.75 -19.3 -16.05 -19.4 -16.65 M-7.45 -14.65 L-7.15 -15.15 -6.6 -15.3 -3.6 -14.95 Q-3.3 -14.9 -3.1 -14.65 L-2.95 -14.1 Q-3.0 -13.8 -3.2 -13.6 L-3.75 -13.45 -6.8 -13.8 -7.3 -14.1 -7.45 -14.65 M-9.6 -15.65 Q-9.3 -15.6 -9.1 -15.35 L-8.95 -14.8 -9.25 -14.3 -9.8 -14.15 -12.8 -14.6 -13.3 -14.9 -13.45 -15.45 -13.1 -15.95 -12.55 -16.1 -9.6 -15.65 M-20.95 -17.55 L-20.85 -16.95 -21.2 -16.5 -21.75 -16.4 -24.8 -17.15 -25.25 -17.5 -25.3 -18.1 -24.95 -18.55 -24.4 -18.6 -21.4 -17.85 -20.95 -17.55 M-27.35 -19.35 Q-27.1 -19.3 -26.95 -19.0 L-26.85 -18.4 -27.25 -18.0 -27.8 -17.9 -30.85 -18.85 -31.3 -19.25 -31.35 -19.8 -31.0 -20.25 -30.4 -20.3 -27.35 -19.35" fill="#ffffff" fill-rule="evenodd" stroke="none"/>
  </g>
</svg>
