<?xml version="1.0" encoding="UTF-8" standalone="no"?>
<svg xmlns:ffdec="https://www.free-decompiler.com/flash" xmlns:xlink="http://www.w3.org/1999/xlink" ffdec:objectType="shape" height="26.7px" width="13.5px" xmlns="http://www.w3.org/2000/svg">
  <g transform="matrix(1.0, 0.0, 0.0, 1.0, -24.2, 9.45)">
    <path d="M35.3 8.7 L32.25 4.4 Q29.75 0.65 29.55 -0.1 L31.5 -1.3 35.8 7.9 35.3 8.7" fill="#d1d1d1" fill-rule="evenodd" stroke="none"/>
    <path d="M25.75 0.0 L24.2 -7.6 28.35 -8.45 Q34.7 -6.75 36.4 1.6 36.85 3.8 36.7 7.05 L35.85 13.95 25.75 0.0 M35.3 8.7 L35.8 7.9 31.5 -1.3 29.55 -0.1 Q29.75 0.65 32.25 4.4 L35.3 8.7" fill="#989898" fill-rule="evenodd" stroke="none"/>
    <path d="M28.35 -8.45 L33.25 -9.45 Q34.2 -7.9 35.2 -5.3 36.7 -1.45 37.55 2.6 38.0 4.75 37.25 10.6 L36.15 17.25 26.6 4.1 25.75 0.0 35.85 13.95 36.7 7.05 Q36.85 3.8 36.4 1.6 34.7 -6.75 28.35 -8.45" fill="#606060" fill-rule="evenodd" stroke="none"/>
  </g>
</svg>
