<?xml version="1.0" encoding="UTF-8" standalone="no"?>
<svg xmlns:ffdec="https://www.free-decompiler.com/flash" xmlns:xlink="http://www.w3.org/1999/xlink" ffdec:objectType="shape" height="37.0px" width="38.0px" xmlns="http://www.w3.org/2000/svg">
  <g transform="matrix(1.0, 0.0, 0.0, 1.0, 0.0, 0.0)">
    <path d="M7.85 4.0 L30.15 4.0 Q33.9 4.1 34.0 7.75 L34.0 18.5 4.0 18.5 4.0 7.75 Q4.1 4.1 7.85 4.0" fill="#ffffff" fill-rule="evenodd" stroke="none"/>
    <path d="M6.6 2.0 L31.4 2.0 Q36.0 2.0 36.0 6.55 L36.0 30.5 35.85 32.0 Q35.15 35.0 31.4 35.0 L6.6 35.0 Q2.0 35.0 2.0 30.5 L2.0 6.55 Q2.0 2.0 6.6 2.0 M7.85 4.0 Q4.1 4.1 4.0 7.75 L4.0 18.5 34.0 18.5 34.0 7.75 Q33.9 4.1 30.15 4.0 L7.85 4.0" fill="#ffd5ea" fill-rule="evenodd" stroke="none"/>
    <path d="M6.6 2.0 Q2.0 2.0 2.0 6.55 L2.0 30.5 Q2.0 35.0 6.6 35.0 L31.4 35.0 Q35.15 35.0 35.85 32.0 L36.0 30.5 36.0 6.55 Q36.0 2.0 31.4 2.0 L6.6 2.0 M32.4 0.0 Q38.0 0.0 38.0 5.55 L38.0 31.5 38.0 32.0 Q37.75 37.0 32.4 37.0 L5.6 37.0 Q0.0 37.0 0.0 31.5 L0.0 5.55 Q0.0 0.0 5.6 0.0 L32.4 0.0" fill="#f054a2" fill-rule="evenodd" stroke="none"/>
    <path d="M22.05 10.55 Q21.05 11.55 19.6 11.55 18.15 11.55 17.1 10.55 16.1 9.5 16.1 8.05 16.1 6.6 17.1 5.6 18.15 4.55 19.6 4.55 21.05 4.55 22.05 5.6 23.1 6.6 23.1 8.05 23.1 9.5 22.05 10.55 M17.45 32.5 Q16.9 32.5 16.45 32.05 16.0 31.7 16.0 31.15 L16.0 27.0 19.0 27.0 19.0 31.15 Q19.0 31.7 18.5 32.05 L17.45 32.5 M20.4 32.05 Q20.0 31.7 20.0 31.15 L20.0 27.0 23.0 27.0 23.0 31.15 Q23.0 31.7 22.5 32.05 L21.45 32.5 Q20.9 32.5 20.4 32.05 M12.95 13.8 Q13.2 13.35 13.7 13.05 L14.7 12.95 15.55 13.65 Q15.8 14.1 15.6 14.65 L13.4 21.6 Q13.3 22.15 12.75 22.35 L11.75 22.5 Q11.25 22.35 10.9 21.8 10.65 21.35 10.8 20.8 L12.95 13.8 M21.35 12.15 Q22.8 12.15 22.8 16.85 L26.45 26.0 12.75 26.0 16.2 17.3 Q16.2 12.15 17.65 12.15 L21.35 12.15 M25.3 13.05 Q25.8 13.25 25.95 13.8 L28.2 20.75 28.15 21.8 Q27.9 22.3 27.4 22.45 L26.35 22.35 25.65 21.6 23.4 14.65 Q23.25 14.1 23.5 13.65 23.75 13.05 24.3 12.9 L25.3 13.05" fill="#f054a2" fill-rule="evenodd" stroke="none"/>
  </g>
</svg>
