<?xml version="1.0" encoding="UTF-8" standalone="no"?>
<svg xmlns:ffdec="https://www.free-decompiler.com/flash" xmlns:xlink="http://www.w3.org/1999/xlink" ffdec:objectType="shape" height="30.9px" width="44.55px" xmlns="http://www.w3.org/2000/svg">
  <g transform="matrix(1.0, 0.0, 0.0, 1.0, 15.95, 33.5)">
    <path d="M-14.1 -15.4 L-13.8 -15.75 -13.7 -16.1 -13.55 -17.1 -11.55 -17.75 -11.6 -16.55 -11.45 -15.25 -11.1 -15.2 -10.75 -15.75 Q-10.6 -16.1 -10.75 -16.7 L-10.65 -17.35 -10.5 -17.75 Q-10.45 -18.0 -10.55 -18.1 L-8.7 -18.7 -8.65 -19.85 Q-8.45 -21.25 -7.95 -21.7 L-7.5 -21.8 -7.35 -21.45 -7.5 -21.1 -7.7 -19.8 -7.75 -19.15 -7.75 -19.0 -7.7 -19.0 -7.7 -18.7 -7.6 -18.3 -7.35 -18.1 -7.2 -17.85 -7.3 -17.6 -6.85 -16.85 Q-6.55 -16.4 -6.3 -16.55 L-6.1 -16.9 -6.2 -17.3 -6.55 -18.2 -6.75 -18.95 -6.75 -19.35 -4.6 -20.05 Q-5.7 -18.65 -5.1 -17.65 -4.65 -16.6 -2.15 -16.2 -1.8 -14.55 0.1 -14.2 1.85 -13.9 5.15 -14.9 9.2 -14.35 11.75 -17.7 14.7 -18.45 15.85 -20.35 L16.4 -21.55 16.8 -21.85 Q19.2 -23.6 19.05 -25.5 L19.05 -25.55 18.6 -27.15 20.05 -27.55 19.55 -27.4 19.75 -26.2 20.1 -24.35 20.3 -24.0 Q20.55 -24.0 20.6 -24.15 L20.75 -24.45 Q20.95 -25.35 20.5 -27.6 L20.5 -27.65 22.4 -28.2 21.8 -28.0 22.0 -28.05 22.2 -26.55 22.2 -26.45 22.35 -26.4 22.7 -26.6 22.7 -27.1 22.6 -28.25 24.75 -28.8 27.05 -29.45 26.55 -28.35 25.5 -26.3 25.05 -25.7 24.45 -25.55 23.85 -25.45 23.25 -24.7 22.85 -23.7 Q22.6 -23.35 21.9 -23.1 L20.85 -22.6 20.15 -21.2 Q19.55 -19.45 18.45 -19.1 L17.2 -18.75 Q16.6 -18.45 16.1 -17.4 L15.15 -15.8 Q14.45 -15.05 12.95 -14.95 L11.95 -14.75 11.6 -14.45 11.35 -14.55 Q11.05 -14.55 10.65 -14.15 L9.6 -13.1 Q8.95 -12.55 8.35 -12.5 L6.75 -12.85 5.15 -12.95 4.4 -12.4 3.7 -11.7 Q3.2 -11.2 2.4 -11.15 1.65 -11.1 1.05 -11.5 L0.45 -11.95 -0.2 -12.25 -1.05 -12.1 -1.9 -11.8 -3.1 -11.85 -4.35 -12.15 -6.45 -12.15 -8.6 -11.9 -10.1 -12.0 Q-10.6 -12.15 -11.95 -13.05 L-13.65 -14.65 -14.1 -15.4 M23.85 -29.8 L23.9 -29.6 23.85 -29.45 23.75 -29.35 23.6 -29.35 23.15 -29.65 23.1 -29.85 22.8 -29.9 22.65 -30.05 22.65 -30.25 22.9 -30.45 23.65 -30.3 23.85 -29.8 M24.75 -28.8 L24.65 -28.55 24.65 -28.2 24.6 -28.1 24.55 -27.8 24.65 -27.4 Q24.85 -27.2 25.05 -27.4 L25.2 -27.5 25.3 -27.85 25.35 -28.35 25.3 -28.75 25.15 -28.9 24.75 -28.8 M19.6 -30.25 L20.2 -30.2 20.9 -29.65 21.95 -28.2 22.0 -28.1 21.2 -27.85 20.15 -29.35 19.75 -29.7 19.35 -29.85 Q19.15 -30.15 19.6 -30.25 M2.95 -28.75 L3.9 -29.25 4.2 -29.3 4.95 -29.0 4.6 -28.65 4.15 -28.55 2.95 -28.0 Q2.75 -27.9 2.55 -28.1 L2.6 -28.5 2.95 -28.75 M11.35 -27.15 L11.15 -27.65 10.9 -27.9 10.4 -28.15 10.05 -28.2 9.8 -28.5 Q9.9 -28.7 10.05 -28.7 L10.45 -28.7 10.6 -28.75 11.55 -28.2 11.75 -27.9 12.0 -27.4 12.1 -27.1 12.0 -26.8 11.6 -26.8 11.35 -27.15 M7.75 -24.0 L8.9 -24.35 8.15 -25.85 7.5 -26.6 7.05 -26.9 Q6.75 -27.2 6.75 -27.4 L7.95 -27.2 8.8 -26.35 9.75 -24.85 9.8 -24.65 9.9 -24.65 10.0 -23.6 10.0 -23.4 9.9 -22.7 9.75 -22.45 9.85 -22.7 9.7 -22.35 Q9.65 -22.1 9.9 -21.95 L10.35 -21.85 10.7 -22.15 Q11.5 -23.1 11.25 -24.3 L11.05 -25.0 12.25 -25.35 12.25 -24.0 12.6 -23.8 12.9 -23.95 12.95 -24.2 13.0 -25.6 14.2 -25.9 14.15 -26.0 13.4 -27.55 13.35 -27.95 13.85 -28.1 14.25 -27.7 15.0 -26.15 15.2 -26.2 15.1 -25.8 15.3 -24.6 15.55 -24.65 15.75 -24.85 Q16.15 -25.6 16.1 -26.45 L17.55 -26.85 17.05 -27.3 17.8 -26.45 18.0 -25.8 17.6 -25.15 Q17.15 -23.75 15.75 -23.2 L15.1 -22.85 14.65 -22.05 Q13.85 -20.15 11.9 -19.6 L10.75 -19.25 9.9 -18.65 9.15 -18.0 Q8.05 -17.1 7.15 -16.9 L6.05 -16.75 4.95 -16.7 2.5 -16.1 Q1.0 -15.8 0.15 -16.55 L-0.85 -17.65 Q-1.4 -18.2 -2.55 -18.45 -3.0 -18.55 -3.1 -18.75 -3.3 -19.0 -2.95 -19.55 -2.65 -20.1 -2.8 -20.35 L-3.1 -20.55 -2.5 -20.75 0.65 -21.75 0.3 -20.75 0.4 -19.6 Q0.5 -19.0 0.7 -18.8 L1.1 -18.65 1.45 -18.85 1.4 -19.4 1.15 -20.4 1.35 -21.3 1.65 -21.85 1.75 -22.1 6.65 -23.65 Q7.25 -23.25 7.15 -22.45 L7.25 -22.1 Q7.35 -21.95 7.6 -21.9 L7.95 -22.0 8.15 -22.3 Q8.25 -23.35 7.75 -24.0 M-0.6 -15.55 Q-1.15 -15.95 -1.25 -16.65 L-1.15 -16.3 -0.65 -15.6 -0.6 -15.55 M-3.65 -17.65 L-4.25 -18.1 -4.2 -18.75 -4.0 -18.2 -3.65 -17.65 M3.25 -21.25 L3.4 -20.95 Q3.45 -20.85 3.65 -20.85 L3.85 -21.0 3.85 -21.35 3.75 -22.1 3.65 -22.3 3.4 -22.45 3.35 -22.35 3.2 -22.35 3.1 -22.2 3.05 -22.1 3.0 -21.7 3.05 -21.5 3.15 -21.4 3.25 -21.25 M-5.6 -22.35 L-5.25 -23.1 -5.1 -23.35 -4.75 -23.7 -4.3 -23.8 -4.1 -23.65 Q-4.0 -23.4 -4.3 -23.3 L-4.6 -22.85 -4.95 -21.95 -5.15 -21.7 -5.5 -21.75 -5.6 -22.1 -5.6 -22.35 M-8.5 -15.4 L-8.25 -15.1 -8.0 -14.8 Q-7.75 -14.55 -7.65 -14.85 L-7.6 -15.0 -8.0 -15.6 -8.3 -16.1 Q-8.4 -16.35 -8.65 -16.35 L-8.8 -16.3 -8.85 -16.1 -8.75 -15.8 -8.6 -15.65 -8.5 -15.4" fill="#ffd723" fill-rule="evenodd" stroke="none"/>
    <path d="M27.0 -20.85 L26.9 -20.65 26.8 -20.4 26.8 -20.1 Q26.75 -19.35 26.25 -18.9 L25.95 -22.2 25.9 -24.2 26.8 -24.65 27.0 -20.85 M25.05 -18.25 Q24.9 -18.25 24.8 -18.1 L24.65 -17.85 24.15 -16.45 Q23.8 -15.75 22.75 -15.45 L22.7 -15.65 22.65 -19.65 22.75 -20.95 22.75 -21.1 Q24.1 -21.4 24.7 -22.15 L25.05 -18.25 M21.55 -14.9 Q21.05 -12.4 18.2 -11.3 L18.2 -11.95 18.0 -16.9 18.85 -17.2 18.85 -16.35 Q18.95 -15.65 19.25 -15.35 L19.65 -15.15 20.4 -14.9 Q20.9 -15.4 21.0 -16.6 L20.8 -18.3 21.35 -18.85 21.45 -16.0 21.55 -14.9 M17.05 -10.9 L17.0 -10.9 16.9 -10.65 Q16.3 -8.35 14.95 -7.75 L15.0 -7.75 Q13.75 -7.3 12.55 -7.15 L12.45 -8.25 12.25 -12.4 12.25 -12.8 11.6 -12.1 12.25 -12.8 13.7 -13.05 14.0 -11.15 Q14.1 -10.45 14.5 -10.1 14.7 -9.9 15.0 -9.85 15.3 -9.85 15.5 -10.05 L15.8 -11.0 15.9 -11.75 15.9 -13.8 17.0 -14.95 16.75 -14.6 Q16.75 -12.8 17.05 -10.9 M11.25 -6.55 Q9.1 -4.15 6.4 -4.9 L6.2 -8.5 6.15 -10.6 5.95 -10.65 7.7 -10.35 7.9 -9.0 8.35 -7.7 8.55 -7.15 Q8.75 -6.8 9.05 -6.8 9.55 -6.75 9.75 -7.5 L10.0 -9.0 9.9 -10.9 10.95 -11.55 11.05 -9.1 11.25 -6.55 M5.25 -4.75 Q4.3 -4.1 3.1 -3.7 1.75 -3.4 0.05 -4.3 L0.0 -9.9 Q0.7 -9.6 1.4 -9.45 L1.4 -9.1 1.5 -7.85 1.75 -6.7 2.05 -5.6 2.3 -5.2 2.95 -5.15 Q3.35 -5.35 3.45 -5.5 3.7 -5.8 3.55 -6.1 L3.95 -6.6 4.0 -9.65 5.0 -10.1 4.95 -9.7 5.25 -4.75 M-1.15 -4.1 L-5.75 -4.25 -5.55 -4.15 -5.6 -9.75 -4.3 -9.35 -4.55 -7.9 -4.3 -5.9 -3.75 -4.9 -3.2 -4.5 Q-2.9 -4.5 -2.65 -5.1 L-2.2 -7.0 -2.2 -9.4 -2.75 -9.3 -1.1 -9.7 -1.2 -5.05 -1.15 -4.1 M-7.15 -4.15 Q-9.15 -3.55 -10.35 -3.8 -11.85 -4.25 -12.45 -4.9 L-12.7 -5.0 -13.2 -5.2 -13.2 -7.0 -13.15 -9.25 -13.05 -10.75 Q-12.4 -10.15 -11.1 -9.7 L-11.15 -9.15 -10.8 -6.55 -10.45 -5.5 -10.2 -4.8 Q-9.85 -4.55 -9.55 -4.8 -9.2 -5.05 -9.15 -5.4 L-8.8 -6.0 -8.65 -6.1 Q-8.55 -6.2 -8.6 -6.35 L-8.8 -6.55 -8.5 -7.6 -8.4 -8.35 -8.3 -8.7 -8.15 -9.55 -7.2 -9.8 -7.2 -6.05 -7.15 -4.15 M15.35 -21.6 L15.45 -21.65 16.6 -21.8 16.8 -21.85 16.4 -21.55 15.85 -20.35 Q14.7 -18.45 11.75 -17.7 9.2 -14.35 5.15 -14.9 1.85 -13.9 0.1 -14.2 -1.8 -14.55 -2.15 -16.2 -4.65 -16.6 -5.1 -17.65 -5.7 -18.65 -4.6 -20.05 L-4.15 -20.6 Q-3.4 -22.9 -0.7 -23.8 L-0.95 -23.15 -1.05 -22.75 -1.05 -22.55 Q-2.55 -21.9 -3.1 -20.55 L-3.2 -20.2 -3.35 -20.0 -4.2 -18.75 -4.25 -18.1 -3.65 -17.65 -3.6 -17.6 -3.1 -17.4 -1.9 -17.15 -1.85 -17.15 -1.65 -17.15 -1.4 -17.0 -1.25 -16.7 -1.25 -16.65 Q-1.15 -15.95 -0.6 -15.55 -0.25 -15.3 0.3 -15.2 1.9 -14.95 4.95 -15.9 L5.2 -15.95 Q8.85 -15.4 11.05 -18.45 L11.35 -18.6 Q13.15 -19.05 14.2 -19.95 15.0 -20.65 15.35 -21.6 M24.4 -21.6 L24.35 -21.8 23.25 -21.2 23.3 -20.2 23.4 -19.7 23.65 -19.2 24.1 -19.0 24.45 -19.25 24.55 -19.6 24.4 -21.6" fill="#e9811b" fill-rule="evenodd" stroke="none"/>
    <path d="M27.6 -29.0 L27.55 -25.6 26.9 -24.7 26.85 -24.7 26.8 -24.65 25.9 -24.2 25.6 -24.1 25.05 -22.75 24.7 -22.15 Q24.1 -21.4 22.75 -21.1 L22.65 -21.05 22.5 -21.05 Q22.15 -19.8 21.35 -18.85 L20.8 -18.3 18.85 -17.2 18.0 -16.9 17.75 -16.85 17.0 -14.95 15.9 -13.8 15.6 -13.65 15.4 -13.55 15.35 -13.55 15.35 -13.5 13.7 -13.05 12.25 -12.8 11.6 -12.1 10.95 -11.55 9.9 -10.9 9.65 -10.75 7.7 -10.35 5.95 -10.65 5.0 -10.1 4.0 -9.65 3.5 -9.5 3.4 -9.45 3.3 -9.45 3.2 -9.4 3.15 -9.4 1.4 -9.45 Q0.7 -9.6 0.0 -9.9 L-0.3 -10.05 -0.35 -10.05 -1.1 -9.7 -2.75 -9.3 -4.3 -9.35 -5.6 -9.75 -6.25 -10.1 -7.2 -9.8 -8.15 -9.55 Q-9.6 -9.3 -10.6 -9.55 L-11.1 -9.7 Q-12.4 -10.15 -13.05 -10.75 L-13.15 -10.8 -13.7 -11.0 -13.8 -11.05 -14.9 -11.65 -14.9 -13.45 Q-14.8 -12.55 -13.4 -11.95 L-12.65 -11.7 -12.45 -11.6 Q-11.85 -10.95 -10.35 -10.5 -8.9 -10.2 -6.35 -11.1 L-6.15 -11.15 -5.9 -11.05 Q-3.4 -9.55 -0.6 -11.1 L-0.35 -11.15 -0.1 -11.1 Q1.7 -10.1 3.1 -10.4 L5.55 -11.65 5.8 -11.75 6.05 -11.7 Q9.15 -10.6 11.55 -13.6 L11.75 -13.75 11.95 -13.8 12.0 -13.8 15.0 -14.45 14.95 -14.45 Q16.3 -15.05 16.9 -17.35 L17.0 -17.6 17.25 -17.7 Q20.95 -18.7 21.55 -21.6 L21.7 -21.85 22.0 -22.0 Q23.7 -22.25 24.15 -23.15 L24.65 -24.55 24.8 -24.8 Q24.9 -24.95 25.05 -24.95 25.75 -25.15 26.25 -25.5 L26.2 -25.45 Q26.75 -26.0 26.8 -26.8 L26.8 -27.1 26.9 -27.35 27.55 -28.9 27.6 -29.0 M10.1 -31.9 L12.5 -31.65 12.25 -32.4 14.5 -31.85 14.6 -31.8 Q17.25 -30.2 17.5 -28.65 L17.3 -28.4 17.2 -28.3 17.15 -28.2 16.8 -27.85 16.8 -27.8 16.7 -27.7 16.7 -27.65 16.6 -27.55 16.75 -27.4 16.5 -27.65 16.5 -28.0 Q16.75 -29.35 14.15 -30.95 L10.1 -31.9" fill="#be5000" fill-rule="evenodd" stroke="none"/>
    <path d="M27.3 -30.35 Q26.55 -31.6 25.2 -31.7 L22.8 -31.8 22.65 -31.8 16.45 -32.25 16.25 -32.25 12.25 -32.4 12.5 -31.65 10.1 -31.9 10.05 -31.9 9.85 -32.0 9.6 -31.95 8.2 -32.0 Q6.65 -32.1 4.4 -30.8 L4.2 -30.75 Q0.9 -30.4 -0.15 -29.4 L-1.4 -28.15 Q-1.55 -28.0 -1.7 -28.0 -4.35 -27.7 -6.0 -24.3 L-6.1 -24.15 -6.3 -24.05 Q-9.35 -23.15 -10.25 -20.05 L-10.45 -19.75 -10.8 -19.7 -12.4 -18.7 -12.5 -18.6 -12.55 -18.55 Q-13.35 -17.95 -13.55 -17.1 L-13.7 -16.1 -13.8 -15.75 -14.1 -15.4 Q-14.85 -14.45 -14.9 -13.65 L-14.9 -13.6 -14.9 -13.45 -14.9 -11.65 -14.9 -6.95 -14.9 -6.85 -14.9 -6.75 Q-14.75 -5.8 -13.2 -5.2 L-12.7 -5.0 -12.45 -4.9 Q-11.85 -4.25 -10.35 -3.8 -9.15 -3.55 -7.15 -4.15 L-6.35 -4.4 -6.15 -4.45 -5.9 -4.35 -5.75 -4.25 -1.15 -4.1 -0.6 -4.4 -0.35 -4.45 -0.1 -4.4 0.05 -4.3 Q1.75 -3.4 3.1 -3.7 4.3 -4.1 5.25 -4.75 L5.4 -4.85 5.55 -4.95 5.8 -5.05 6.05 -5.0 6.4 -4.9 Q9.1 -4.15 11.25 -6.55 L11.55 -6.9 11.75 -7.05 11.95 -7.1 12.55 -7.15 Q13.75 -7.3 15.0 -7.75 L14.95 -7.75 Q16.3 -8.35 16.9 -10.65 L17.0 -10.9 17.05 -10.9 17.25 -11.0 18.2 -11.3 Q21.05 -12.4 21.55 -14.9 L21.7 -15.15 22.0 -15.3 22.05 -15.3 22.75 -15.45 Q23.8 -15.75 24.15 -16.45 L24.65 -17.85 24.8 -18.1 Q24.9 -18.25 25.05 -18.25 L25.75 -18.5 26.25 -18.85 26.25 -18.9 Q26.75 -19.35 26.8 -20.1 L26.8 -20.4 26.9 -20.65 27.0 -20.85 Q27.75 -22.2 27.6 -23.05 L27.55 -23.2 27.55 -25.6 27.6 -29.0 27.6 -29.45 27.6 -29.5 27.35 -30.25 27.35 -30.3 27.3 -30.35 M10.3 -32.85 L10.65 -32.75 10.7 -32.9 Q10.8 -33.1 11.0 -33.1 L16.35 -33.25 Q20.2 -33.75 22.9 -32.8 L25.25 -32.7 Q27.15 -32.6 28.2 -30.8 L28.6 -29.6 28.55 -28.8 28.55 -28.7 28.55 -23.2 Q28.85 -22.0 27.8 -20.25 L27.8 -20.05 Q27.7 -18.05 25.6 -17.4 L25.05 -16.05 Q24.55 -14.75 22.5 -14.35 21.75 -11.25 17.75 -10.15 17.0 -7.5 15.35 -6.85 L15.35 -6.8 12.25 -6.1 Q9.45 -2.85 5.95 -3.95 4.85 -3.2 3.4 -2.75 1.7 -2.35 -0.35 -3.35 -3.45 -1.8 -6.25 -3.4 -9.0 -2.45 -10.6 -2.85 -12.35 -3.35 -13.15 -4.1 -15.8 -5.0 -15.9 -6.6 L-15.9 -7.05 -15.9 -13.35 -15.9 -13.8 Q-15.8 -14.9 -14.7 -16.25 -14.7 -18.3 -13.0 -19.5 L-11.1 -20.65 Q-10.05 -23.9 -6.8 -24.95 -4.95 -28.6 -1.95 -28.95 L-0.85 -30.1 Q0.3 -31.3 4.05 -31.75 6.5 -33.1 8.2 -33.0 L8.25 -33.0 9.7 -32.95 9.95 -32.85 10.3 -32.85" fill="#8e3f06" fill-rule="evenodd" stroke="none"/>
    <path d="M27.55 -25.6 L27.55 -23.2 27.6 -23.05 Q27.75 -22.2 27.0 -20.85 L26.8 -24.65 26.85 -24.7 26.9 -24.7 27.55 -25.6 M26.25 -18.9 L26.25 -18.85 25.75 -18.5 25.05 -18.25 24.7 -22.15 25.05 -22.75 25.6 -24.1 25.9 -24.2 25.95 -22.2 26.25 -18.9 M22.75 -15.45 L22.05 -15.3 22.0 -15.3 21.7 -15.15 21.55 -14.9 21.45 -16.0 21.35 -18.85 Q22.15 -19.8 22.5 -21.05 L22.65 -21.05 22.75 -21.1 22.75 -20.95 22.65 -19.65 22.7 -15.65 22.75 -15.45 M18.2 -11.3 L17.25 -11.0 17.05 -10.9 Q16.75 -12.8 16.75 -14.6 L17.0 -14.95 17.75 -16.85 18.0 -16.9 18.2 -11.95 18.2 -11.3 M12.55 -7.15 L11.95 -7.1 11.75 -7.05 11.55 -6.9 11.25 -6.55 11.05 -9.1 10.95 -11.55 11.6 -12.1 12.25 -12.8 12.25 -12.4 12.45 -8.25 12.55 -7.15 M6.4 -4.9 L6.05 -5.0 5.8 -5.05 5.55 -4.95 5.4 -4.85 5.25 -4.75 4.95 -9.7 5.0 -10.1 5.95 -10.65 6.15 -10.6 6.2 -8.5 6.4 -4.9 M0.05 -4.3 L-0.1 -4.4 -0.35 -4.45 -0.6 -4.4 -1.15 -4.1 -1.2 -5.05 -1.1 -9.7 -0.35 -10.05 -0.3 -10.05 0.0 -9.9 0.05 -4.3 M-5.75 -4.25 L-5.9 -4.35 -6.15 -4.45 -6.35 -4.4 -7.15 -4.15 -7.2 -6.05 -7.2 -9.8 -6.25 -10.1 -5.6 -9.75 -5.55 -4.15 -5.75 -4.25 M-13.2 -5.2 Q-14.75 -5.8 -14.9 -6.75 L-14.9 -6.85 -14.9 -6.95 -14.9 -11.65 -13.8 -11.05 -13.7 -11.0 -13.15 -10.8 -13.05 -10.75 -13.15 -9.25 -13.2 -7.0 -13.2 -5.2 M17.5 -28.65 L17.55 -28.4 17.55 -28.25 17.55 -28.2 18.4 -27.45 18.45 -27.4 18.6 -27.15 19.05 -25.55 19.05 -25.5 Q19.2 -23.6 16.8 -21.85 L16.6 -21.8 15.45 -21.65 15.35 -21.6 15.5 -22.0 15.7 -22.3 Q18.05 -23.85 18.05 -25.45 L18.0 -25.8 17.8 -26.45 17.05 -27.3 16.85 -27.4 16.8 -27.4 16.75 -27.4 16.6 -27.55 16.7 -27.65 16.7 -27.7 16.8 -27.8 16.8 -27.85 17.15 -28.2 17.2 -28.3 17.3 -28.4 17.5 -28.65" fill="#cb6210" fill-rule="evenodd" stroke="none"/>
    <path d="M7.75 -24.0 Q8.25 -23.35 8.15 -22.3 L7.95 -22.0 7.6 -21.9 Q7.35 -21.95 7.25 -22.1 L7.15 -22.45 Q7.25 -23.25 6.65 -23.65 L6.6 -23.7 Q5.7 -24.25 3.8 -24.25 L3.65 -24.25 Q2.2 -24.75 0.9 -23.5 L0.6 -23.15 0.3 -23.0 -1.05 -22.55 -1.05 -22.75 -0.95 -23.15 -0.7 -23.8 -0.05 -23.95 0.0 -24.0 0.2 -24.2 0.25 -24.25 0.3 -24.3 0.75 -24.65 Q2.25 -25.8 3.9 -25.25 6.05 -25.25 7.1 -24.6 L7.75 -24.0 M13.7 -13.05 L15.35 -13.5 15.35 -13.55 15.4 -13.55 15.6 -13.65 15.9 -13.8 15.9 -11.75 15.8 -11.0 15.5 -10.05 Q15.3 -9.85 15.0 -9.85 14.7 -9.9 14.5 -10.1 14.1 -10.45 14.0 -11.15 L13.7 -13.05 M18.85 -17.2 L20.8 -18.3 21.0 -16.6 Q20.9 -15.4 20.4 -14.9 L19.65 -15.15 19.25 -15.35 Q18.95 -15.65 18.85 -16.35 L18.85 -17.2 M7.7 -10.35 L9.65 -10.75 9.9 -10.9 10.0 -9.0 9.75 -7.5 Q9.55 -6.75 9.05 -6.8 8.75 -6.8 8.55 -7.15 L8.35 -7.7 7.9 -9.0 7.7 -10.35 M1.4 -9.45 L3.15 -9.4 3.2 -9.4 3.3 -9.45 3.4 -9.45 3.5 -9.5 4.0 -9.65 3.95 -6.6 3.55 -6.1 Q3.7 -5.8 3.45 -5.5 3.35 -5.35 2.95 -5.15 L2.3 -5.2 2.05 -5.6 1.75 -6.7 1.5 -7.85 1.4 -9.1 1.4 -9.45 M24.4 -21.6 L24.55 -19.6 24.45 -19.25 24.1 -19.0 23.65 -19.2 23.4 -19.7 23.3 -20.2 23.25 -21.2 24.35 -21.8 24.4 -21.6 M-11.1 -9.7 L-10.6 -9.55 Q-9.6 -9.3 -8.15 -9.55 L-8.3 -8.7 -8.4 -8.35 -8.5 -7.6 -8.8 -6.55 -8.6 -6.35 Q-8.55 -6.2 -8.65 -6.1 L-8.8 -6.0 -9.15 -5.4 Q-9.2 -5.05 -9.55 -4.8 -9.85 -4.55 -10.2 -4.8 L-10.45 -5.5 -10.8 -6.55 -11.15 -9.15 -11.1 -9.7 M-4.3 -9.35 L-2.75 -9.3 -2.2 -9.4 -2.2 -7.0 -2.65 -5.1 Q-2.9 -4.5 -3.2 -4.5 L-3.75 -4.9 -4.3 -5.9 -4.55 -7.9 -4.3 -9.35" fill="#f3a021" fill-rule="evenodd" stroke="none"/>
    <path d="M27.3 -30.35 L27.35 -30.3 27.35 -30.25 27.6 -29.5 27.6 -29.45 27.6 -29.0 27.55 -28.9 26.9 -27.35 26.8 -27.1 26.8 -26.8 Q26.75 -26.0 26.2 -25.45 L26.25 -25.5 Q25.75 -25.15 25.05 -24.95 24.9 -24.95 24.8 -24.8 L24.65 -24.55 24.15 -23.15 Q23.7 -22.25 22.0 -22.0 L21.7 -21.85 21.55 -21.6 Q20.95 -18.7 17.25 -17.7 L17.0 -17.6 16.9 -17.35 Q16.3 -15.05 14.95 -14.45 L15.0 -14.45 12.0 -13.8 11.95 -13.8 11.75 -13.75 11.55 -13.6 Q9.15 -10.6 6.05 -11.7 L5.8 -11.75 5.55 -11.65 3.1 -10.4 Q1.7 -10.1 -0.1 -11.1 L-0.35 -11.15 -0.6 -11.1 Q-3.4 -9.55 -5.9 -11.05 L-6.15 -11.15 -6.35 -11.1 Q-8.9 -10.2 -10.35 -10.5 -11.85 -10.95 -12.45 -11.6 L-12.65 -11.7 -13.4 -11.95 Q-14.8 -12.55 -14.9 -13.45 L-14.9 -13.6 -14.9 -13.65 Q-14.85 -14.45 -14.1 -15.4 L-13.65 -14.65 -11.95 -13.05 Q-10.6 -12.15 -10.1 -12.0 L-8.6 -11.9 -6.45 -12.15 -4.35 -12.15 -3.1 -11.85 -1.9 -11.8 -1.05 -12.1 -0.2 -12.25 0.45 -11.95 1.05 -11.5 Q1.65 -11.1 2.4 -11.15 3.2 -11.2 3.7 -11.7 L4.4 -12.4 5.15 -12.95 6.75 -12.85 8.35 -12.5 Q8.95 -12.55 9.6 -13.1 L10.65 -14.15 Q11.05 -14.55 11.35 -14.55 L11.6 -14.45 11.95 -14.75 12.95 -14.95 Q14.45 -15.05 15.15 -15.8 L16.1 -17.4 Q16.6 -18.45 17.2 -18.75 L18.45 -19.1 Q19.55 -19.45 20.15 -21.2 L20.85 -22.6 21.9 -23.1 Q22.6 -23.35 22.85 -23.7 L23.25 -24.7 23.85 -25.45 24.45 -25.55 25.05 -25.7 25.5 -26.3 26.55 -28.35 27.05 -29.45 27.1 -29.75 27.0 -30.75 27.3 -30.35 M-3.1 -20.55 L-2.8 -20.35 Q-2.65 -20.1 -2.95 -19.55 -3.3 -19.0 -3.1 -18.75 -3.0 -18.55 -2.55 -18.45 -1.4 -18.2 -0.85 -17.65 L0.15 -16.55 Q1.0 -15.8 2.5 -16.1 L4.95 -16.7 6.05 -16.75 7.15 -16.9 Q8.05 -17.1 9.15 -18.0 L9.9 -18.65 10.75 -19.25 11.9 -19.6 Q13.85 -20.15 14.65 -22.05 L15.1 -22.85 15.75 -23.2 Q17.15 -23.75 17.6 -25.15 L18.0 -25.8 18.05 -25.45 Q18.05 -23.85 15.7 -22.3 L15.5 -22.0 15.35 -21.6 Q15.0 -20.65 14.2 -19.95 13.15 -19.05 11.35 -18.6 L11.05 -18.45 Q8.85 -15.4 5.2 -15.95 L4.95 -15.9 Q1.9 -14.95 0.3 -15.2 -0.25 -15.3 -0.6 -15.55 L-0.65 -15.6 -1.15 -16.3 -1.25 -16.65 -1.25 -16.7 -1.4 -17.0 -1.65 -17.15 -1.85 -17.15 -1.9 -17.15 -3.1 -17.4 -3.6 -17.6 -3.65 -17.65 -4.0 -18.2 -4.2 -18.75 -3.35 -20.0 -3.2 -20.2 -3.1 -20.55" fill="#ffe366" fill-rule="evenodd" stroke="none"/>
    <path d="M12.25 -32.4 L16.25 -32.25 16.45 -32.25 22.65 -31.8 22.8 -31.8 25.2 -31.7 Q26.55 -31.6 27.3 -30.35 L27.0 -30.75 27.1 -29.75 27.05 -29.45 24.75 -28.8 22.6 -28.25 22.7 -27.1 22.7 -26.6 22.35 -26.4 22.2 -26.45 22.2 -26.55 22.0 -28.05 21.8 -28.0 22.4 -28.2 20.5 -27.65 20.5 -27.6 Q20.95 -25.35 20.75 -24.45 L20.6 -24.15 Q20.55 -24.0 20.3 -24.0 L20.1 -24.35 19.75 -26.2 19.55 -27.4 20.05 -27.55 18.6 -27.15 18.45 -27.4 18.4 -27.45 17.55 -28.2 17.55 -28.25 17.55 -28.4 17.5 -28.65 Q17.25 -30.2 14.6 -31.8 L14.5 -31.85 12.25 -32.4 M-13.55 -17.1 Q-13.35 -17.95 -12.55 -18.55 L-12.5 -18.6 -12.4 -18.7 -10.8 -19.7 -10.45 -19.75 -10.25 -20.05 Q-9.35 -23.15 -6.3 -24.05 L-6.1 -24.15 -6.0 -24.3 Q-4.35 -27.7 -1.7 -28.0 -1.55 -28.0 -1.4 -28.15 L-0.15 -29.4 Q0.9 -30.4 4.2 -30.75 L4.4 -30.8 Q6.65 -32.1 8.2 -32.0 L9.6 -31.95 9.85 -32.0 10.05 -31.9 10.1 -31.9 14.15 -30.95 Q16.75 -29.35 16.5 -28.0 L16.5 -27.65 16.75 -27.4 16.8 -27.4 16.85 -27.4 17.05 -27.3 17.55 -26.85 16.1 -26.45 Q16.15 -25.6 15.75 -24.85 L15.55 -24.65 15.3 -24.6 15.1 -25.8 15.2 -26.2 15.0 -26.15 14.25 -27.7 13.85 -28.1 13.35 -27.95 13.4 -27.55 14.15 -26.0 14.2 -25.9 13.0 -25.6 12.95 -24.2 12.9 -23.95 12.6 -23.8 12.25 -24.0 12.25 -25.35 11.05 -25.0 11.25 -24.3 Q11.5 -23.1 10.7 -22.15 L10.35 -21.85 9.9 -21.95 Q9.65 -22.1 9.7 -22.35 L9.85 -22.7 9.75 -22.45 9.9 -22.7 10.0 -23.4 10.0 -23.6 9.9 -24.65 9.8 -24.65 9.75 -24.85 8.8 -26.35 7.95 -27.2 6.75 -27.4 Q6.75 -27.2 7.05 -26.9 L7.5 -26.6 8.15 -25.85 8.9 -24.35 7.75 -24.0 7.1 -24.6 Q6.05 -25.25 3.9 -25.25 2.25 -25.8 0.75 -24.65 L0.3 -24.3 0.25 -24.25 0.2 -24.2 0.0 -24.0 -0.05 -23.95 -0.7 -23.8 Q-3.4 -22.9 -4.15 -20.6 L-4.6 -20.05 -6.75 -19.35 -6.75 -18.95 -6.55 -18.2 -6.2 -17.3 -6.1 -16.9 -6.3 -16.55 Q-6.55 -16.4 -6.85 -16.85 L-7.3 -17.6 -7.2 -17.85 -7.35 -18.1 -7.6 -18.3 -7.7 -18.7 -7.7 -19.0 -7.75 -19.0 -7.75 -19.15 -7.7 -19.8 -7.5 -21.1 -7.35 -21.45 -7.5 -21.8 -7.95 -21.7 Q-8.45 -21.25 -8.65 -19.85 L-8.7 -18.7 -10.55 -18.1 Q-10.45 -18.0 -10.5 -17.75 L-10.65 -17.35 -10.75 -16.7 Q-10.6 -16.1 -10.75 -15.75 L-11.1 -15.2 -11.45 -15.25 -11.6 -16.55 -11.55 -17.75 -13.55 -17.1 M23.85 -29.8 L23.65 -30.3 22.9 -30.45 22.65 -30.25 22.65 -30.05 22.8 -29.9 23.1 -29.85 23.15 -29.65 23.6 -29.35 23.75 -29.35 23.85 -29.45 23.9 -29.6 23.85 -29.8 M24.75 -28.8 L25.15 -28.9 25.3 -28.75 25.35 -28.35 25.3 -27.85 25.2 -27.5 25.05 -27.4 Q24.85 -27.2 24.65 -27.4 L24.55 -27.8 24.6 -28.1 24.65 -28.2 24.65 -28.55 24.75 -28.8 M19.6 -30.25 Q19.15 -30.15 19.35 -29.85 L19.75 -29.7 20.15 -29.35 21.2 -27.85 22.0 -28.1 21.95 -28.2 20.9 -29.65 20.2 -30.2 19.6 -30.25 M11.35 -27.15 L11.6 -26.8 12.0 -26.8 12.1 -27.1 12.0 -27.4 11.75 -27.9 11.55 -28.2 10.6 -28.75 10.45 -28.7 10.05 -28.7 Q9.9 -28.7 9.8 -28.5 L10.05 -28.2 10.4 -28.15 10.9 -27.9 11.15 -27.65 11.35 -27.15 M2.95 -28.75 L2.6 -28.5 2.55 -28.1 Q2.75 -27.9 2.95 -28.0 L4.15 -28.55 4.6 -28.65 4.95 -29.0 4.2 -29.3 3.9 -29.25 2.95 -28.75 M6.65 -23.65 L1.75 -22.1 1.65 -21.85 1.35 -21.3 1.15 -20.4 1.4 -19.4 1.45 -18.85 1.1 -18.65 0.7 -18.8 Q0.5 -19.0 0.4 -19.6 L0.3 -20.75 0.65 -21.75 -2.5 -20.75 -3.1 -20.55 Q-2.55 -21.9 -1.05 -22.55 L0.3 -23.0 0.6 -23.15 0.9 -23.5 Q2.2 -24.75 3.65 -24.25 L3.8 -24.25 Q5.7 -24.25 6.6 -23.7 L6.65 -23.65 M3.25 -21.25 L3.15 -21.4 3.05 -21.5 3.0 -21.7 3.05 -22.1 3.1 -22.2 3.2 -22.35 3.35 -22.35 3.4 -22.45 3.65 -22.3 3.75 -22.1 3.85 -21.35 3.85 -21.0 3.65 -20.85 Q3.45 -20.85 3.4 -20.95 L3.25 -21.25 M-5.6 -22.35 L-5.6 -22.1 -5.5 -21.75 -5.15 -21.7 -4.95 -21.95 -4.6 -22.85 -4.3 -23.3 Q-4.0 -23.4 -4.1 -23.65 L-4.3 -23.8 -4.75 -23.7 -5.1 -23.35 -5.25 -23.1 -5.6 -22.35 M-8.5 -15.4 L-8.6 -15.65 -8.75 -15.8 -8.85 -16.1 -8.8 -16.3 -8.65 -16.35 Q-8.4 -16.35 -8.3 -16.1 L-8.0 -15.6 -7.6 -15.0 -7.65 -14.85 Q-7.75 -14.55 -8.0 -14.8 L-8.25 -15.1 -8.5 -15.4" fill="#f5cc12" fill-rule="evenodd" stroke="none"/>
  </g>
</svg>
