<?xml version="1.0" encoding="UTF-8" standalone="no"?>
<svg xmlns:ffdec="https://www.free-decompiler.com/flash" xmlns:xlink="http://www.w3.org/1999/xlink" ffdec:objectType="shape" height="41.0px" width="34.0px" xmlns="http://www.w3.org/2000/svg">
  <g transform="matrix(1.0, 0.0, 0.0, 1.0, -6.0, 0.0)">
    <path d="M11.6 1.0 Q7.0 1.0 7.0 5.55 L7.0 35.5 Q7.0 40.0 11.6 40.0 L34.4 40.0 Q39.0 40.0 39.0 35.5 L39.0 5.55 Q39.0 3.15 37.7 2.0 36.55 1.0 34.4 1.0 L11.6 1.0 M34.4 0.0 Q37.75 0.0 39.1 2.0 40.0 3.35 40.0 5.55 L40.0 35.5 Q40.0 41.0 34.4 41.0 L11.6 41.0 Q6.0 41.0 6.0 35.5 L6.0 5.55 Q6.0 0.0 11.6 0.0 L34.4 0.0" fill="#000000" fill-opacity="0.5019608" fill-rule="evenodd" stroke="none"/>
    <path d="M32.05 3.0 L33.45 3.0 34.2 3.05 Q37.4 3.45 37.4 6.9 L37.4 20.5 9.0 20.5 9.0 6.9 Q9.0 3.05 12.95 3.0 L13.1 3.0 32.05 3.0" fill="#f2f2f2" fill-opacity="0.7490196" fill-rule="evenodd" stroke="none"/>
  </g>
</svg>
