<?xml version="1.0" encoding="UTF-8" standalone="no"?>
<svg xmlns:ffdec="https://www.free-decompiler.com/flash" xmlns:xlink="http://www.w3.org/1999/xlink" ffdec:objectType="shape" height="75.3px" width="75.3px" xmlns="http://www.w3.org/2000/svg">
  <g transform="matrix(1.0, 0.0, 0.0, 1.0, 19.45, 57.3)">
    <path d="M-17.4 -15.2 L-17.4 -15.1 -17.45 -15.75 -17.65 -19.6 -17.55 -22.4 Q-16.9 -31.4 -11.85 -39.2 -8.7 -44.1 -5.3 -46.75 L-4.4 -47.45 Q1.7 -51.65 3.85 -52.65 10.0 -55.5 18.2 -55.5 36.3 -55.5 46.3 -42.1 54.05 -31.75 54.05 -19.6 54.05 -6.95 46.85 2.25 43.95 5.95 39.85 9.1 33.95 13.65 27.15 15.55 20.5 17.4 15.25 16.1 30.4 15.15 39.8 4.75 44.75 -0.7 46.85 -7.1 48.45 -12.0 48.45 -17.4 48.45 -20.9 47.9 -24.15 L46.85 -24.25 19.55 -26.9 Q5.0 -28.15 -9.6 -26.35 L-11.65 -25.8 Q-13.6 -24.6 -14.95 -22.65 -17.2 -19.35 -17.4 -15.2" fill="#724931" fill-rule="evenodd" stroke="none"/>
    <path d="M-17.4 -15.2 Q-17.2 -19.35 -14.95 -22.65 -13.6 -24.6 -11.65 -25.8 L-9.6 -26.35 Q5.0 -28.15 19.55 -26.9 L46.85 -24.25 47.9 -24.15 Q48.45 -20.9 48.45 -17.4 48.45 -12.0 46.85 -7.1 44.75 -0.7 39.8 4.75 30.4 15.15 15.25 16.1 L7.85 14.75 4.5 13.6 Q-5.9 9.1 -11.65 0.4 L-12.7 -1.3 Q-16.55 -7.8 -17.4 -15.2 M31.05 5.1 Q41.75 -5.45 40.65 -20.65 L40.5 -22.4 Q20.55 -24.35 0.2 -23.4 -5.05 -22.85 -10.3 -21.6 -13.2 -8.8 -4.6 1.45 2.7 10.2 13.85 11.15 23.05 12.0 29.95 6.05 L31.05 5.1" fill="#83563a" fill-rule="evenodd" stroke="none"/>
    <path d="M31.05 5.1 L29.95 6.05 Q23.05 12.0 13.85 11.15 2.7 10.2 -4.6 1.45 -13.2 -8.8 -10.3 -21.6 -5.05 -22.85 0.2 -23.4 20.55 -24.35 40.5 -22.4 L40.65 -20.65 Q41.75 -5.45 31.05 5.1" fill="#926041" fill-rule="evenodd" stroke="none"/>
    <path d="M15.25 16.1 Q20.5 17.4 27.15 15.55 33.95 13.65 39.85 9.1 43.95 5.95 46.85 2.25 54.05 -6.95 54.05 -19.6 54.05 -31.75 46.3 -42.1 36.3 -55.5 18.2 -55.5 10.0 -55.5 3.85 -52.65 1.7 -51.65 -4.4 -47.45 L-5.3 -46.75 Q-8.7 -44.1 -11.85 -39.2 -16.9 -31.4 -17.55 -22.4 L-17.65 -19.6 -17.45 -15.75 -17.4 -15.1 -17.4 -15.2 Q-16.55 -7.8 -12.7 -1.3 L-11.65 0.4 Q-5.9 9.1 4.5 13.6 L7.85 14.75 15.25 16.1 M55.85 -19.6 Q55.85 -5.75 46.85 4.75 L44.8 6.95 Q33.9 18.0 19.15 18.0 2.75 18.0 -8.45 6.95 L-11.65 3.4 Q-19.45 -6.4 -19.45 -19.6 -19.45 -35.1 -8.55 -46.15 2.45 -57.3 18.2 -57.3 33.8 -57.3 44.8 -46.25 55.85 -35.2 55.85 -19.6" fill="#4b3121" fill-rule="evenodd" stroke="none"/>
  </g>
</svg>
