<?xml version="1.0" encoding="UTF-8" standalone="no"?>
<svg xmlns:ffdec="https://www.free-decompiler.com/flash" xmlns:xlink="http://www.w3.org/1999/xlink" ffdec:objectType="shape" height="135.8px" width="68.1px" xmlns="http://www.w3.org/2000/svg">
  <g transform="matrix(1.0, 0.0, 0.0, 1.0, 32.1, 141.35)">
    <path d="M-16.4 -129.05 Q-14.95 -131.45 -12.05 -133.95 -8.1 -137.45 -3.25 -139.2 -4.6 -135.8 -6.25 -133.35 -8.8 -129.6 -12.1 -128.05 L-15.1 -126.5 Q-16.15 -125.5 -15.95 -123.05 L-16.0 -122.85 -16.85 -122.85 -16.4 -129.05 M30.1 -10.5 Q26.9 -9.2 24.35 -8.65 L16.85 -7.2 7.15 -6.4 Q2.05 -6.15 -0.35 -6.55 -2.75 -6.95 -3.5 -8.2 -4.85 -10.35 -5.05 -19.0 L-5.1 -29.7 Q-4.75 -29.7 -5.0 -36.5 L-3.55 -38.1 Q-1.7 -33.55 -2.4 -25.35 -3.15 -16.55 -2.35 -13.15 -1.25 -8.65 -0.45 -7.95 0.25 -7.35 3.9 -7.3 L7.05 -7.4 16.7 -8.4 24.1 -10.35 Q26.25 -11.3 29.2 -11.3 L30.1 -10.5 M-8.75 -79.2 L-9.05 -81.35 Q-9.0 -82.6 -6.6 -91.3 L-2.55 -106.0 -2.4 -106.05 Q-0.1 -106.45 1.3 -107.1 L3.75 -108.2 Q6.25 -109.05 8.4 -108.7 9.75 -108.5 10.3 -108.05 10.35 -103.65 10.05 -101.7 L8.75 -93.2 Q8.55 -89.75 6.3 -85.65 4.1 -81.5 1.8 -80.35 0.7 -79.8 -3.15 -79.45 L-8.75 -79.2 M6.45 -103.8 Q6.45 -105.45 3.15 -104.7 L0.85 -104.5 Q-0.7 -104.4 -1.15 -103.9 -2.4 -102.45 -3.2 -99.5 L-4.2 -95.5 -5.45 -89.4 -6.4 -84.2 Q-6.3 -83.3 -4.85 -83.3 -1.6 -83.3 -0.05 -84.15 1.2 -84.8 1.75 -86.25 3.35 -89.85 4.85 -95.1 6.45 -100.85 6.45 -103.8 M-2.4 -105.95 L-2.4 -106.05 -2.6 -105.3 -2.4 -105.95 M7.2 -65.85 L6.2 -62.05 6.15 -62.05 6.1 -61.55 Q6.1 -60.95 6.35 -60.95 L6.6 -61.05 Q7.7 -61.05 9.15 -61.9 L9.35 -62.05 9.4 -62.05 12.65 -64.55 12.1 -62.05 11.45 -59.7 9.8 -54.7 9.8 -54.65 6.9 -49.2 Q7.75 -47.95 8.1 -47.75 L10.8 -47.15 13.3 -47.2 16.75 -27.85 19.2 -9.8 16.55 -9.4 6.95 -8.35 Q5.6 -8.2 0.55 -8.2 0.5 -9.1 -0.5 -10.7 L-1.55 -12.25 Q-1.2 -18.7 -1.2 -24.65 L-1.25 -31.95 Q-1.3 -35.3 -1.45 -36.2 -2.2 -39.3 -2.55 -39.7 -2.6 -42.2 -0.9 -49.8 L1.85 -62.05 1.9 -62.05 2.3 -63.8 Q2.65 -68.4 4.1 -69.6 7.35 -72.25 8.5 -74.05 L8.65 -73.8 Q8.4 -69.9 7.2 -65.85 M2.8 -52.55 Q1.6 -49.25 0.85 -46.15 L0.15 -43.3 0.35 -42.45 Q-0.15 -42.4 0.85 -42.4 1.4 -42.4 1.9 -42.9 2.55 -43.6 3.25 -45.55 L5.65 -50.35 Q8.1 -55.65 8.6 -57.65 7.55 -57.95 5.9 -56.4 4.0 -54.9 2.8 -52.55 M22.0 -26.55 L24.65 -27.3 18.25 -46.3 Q17.95 -47.75 18.15 -48.35 L18.15 -48.4 18.35 -48.75 19.1 -48.9 Q22.8 -48.95 24.85 -34.7 25.9 -27.5 27.15 -15.75 27.45 -15.0 25.9 -15.0 23.9 -15.05 23.3 -17.4 L22.0 -26.55 M22.05 -33.3 L19.2 -33.3 16.35 -41.6 Q14.15 -48.1 14.05 -48.8 L16.9 -49.15 18.85 -43.25 22.05 -33.3 M11.4 -43.2 Q8.65 -43.9 6.8 -42.9 5.15 -42.05 3.75 -39.7 2.3 -37.75 1.65 -32.15 1.2 -28.35 1.2 -24.4 L1.9 -19.85 2.7 -15.35 3.4 -11.8 3.7 -10.45 6.75 -10.1 12.6 -10.4 Q15.65 -10.85 15.7 -11.8 L15.3 -15.55 Q14.45 -20.85 13.3 -31.05 L13.25 -31.1 Q13.65 -36.75 13.05 -39.7 12.6 -42.3 11.4 -43.2" fill="#e0e0e0" fill-rule="evenodd" stroke="none"/>
    <path d="M-0.3 -140.15 L1.65 -139.25 Q-1.25 -137.8 -2.8 -136.65 -4.85 -135.2 -6.25 -133.35 L-8.0 -130.2 Q-9.4 -127.65 -9.85 -127.45 L-12.1 -126.7 Q-13.6 -126.1 -13.95 -125.3 L-15.0 -121.4 Q-15.85 -117.75 -15.85 -116.15 -18.1 -118.8 -18.1 -122.7 L-17.65 -125.65 Q-17.15 -127.95 -16.4 -129.05 L-16.85 -122.85 -16.0 -122.85 -15.95 -123.05 Q-16.15 -125.5 -15.1 -126.5 L-12.1 -128.05 Q-8.8 -129.6 -6.25 -133.35 -4.6 -135.8 -3.25 -139.2 L-0.3 -140.15 M-1.7 -109.1 L0.8 -109.6 Q3.05 -110.15 4.2 -110.7 8.3 -112.45 9.5 -112.45 L11.15 -112.15 Q13.3 -110.25 14.05 -107.0 14.6 -104.6 14.6 -100.05 14.1 -94.5 14.2 -92.1 L14.1 -90.05 Q14.15 -89.2 15.4 -88.05 16.25 -86.35 15.6 -83.1 L14.45 -77.75 13.1 -72.8 13.55 -72.95 16.1 -74.4 Q18.95 -76.05 20.4 -76.2 21.05 -76.35 21.1 -75.45 21.2 -74.6 20.7 -73.1 L17.65 -62.05 17.6 -62.05 17.1 -60.8 Q16.45 -58.8 15.35 -56.85 14.2 -54.95 13.4 -54.45 L14.35 -54.7 17.45 -56.0 21.95 -58.0 22.35 -57.2 28.35 -31.3 Q30.4 -21.65 30.05 -16.85 30.0 -15.95 29.6 -15.35 L28.2 -14.1 26.6 -13.05 27.75 -13.05 30.1 -13.05 30.75 -12.6 31.1 -12.15 30.95 -10.9 30.1 -10.5 29.2 -11.3 Q26.25 -11.3 24.1 -10.35 L16.7 -8.4 7.05 -7.4 3.9 -7.3 Q0.25 -7.35 -0.45 -7.95 -1.25 -8.65 -2.35 -13.15 -3.15 -16.55 -2.4 -25.35 -1.7 -33.55 -3.55 -38.1 L-5.0 -36.5 -5.25 -48.85 Q-3.9 -53.7 -1.25 -60.9 L-0.9 -62.05 -0.85 -62.05 2.05 -70.35 3.6 -76.25 1.9 -74.95 1.9 -74.9 Q1.3 -74.55 -0.1 -74.25 L-2.2 -73.95 -4.75 -74.25 -7.7 -74.85 -7.75 -74.85 -8.75 -79.2 -3.15 -79.45 Q0.7 -79.8 1.8 -80.35 4.1 -81.5 6.3 -85.65 8.55 -89.75 8.75 -93.2 L10.05 -101.7 Q10.35 -103.65 10.3 -108.05 9.75 -108.5 8.4 -108.7 6.25 -109.05 3.75 -108.2 L1.3 -107.1 Q-0.1 -106.45 -2.4 -106.05 L-2.4 -105.95 -2.2 -106.9 -2.4 -106.05 -2.55 -106.0 -1.7 -109.1 M7.2 -65.85 Q8.4 -69.9 8.65 -73.8 L8.5 -74.05 Q7.35 -72.25 4.1 -69.6 2.65 -68.4 2.3 -63.8 L1.9 -62.05 1.85 -62.05 -0.9 -49.8 Q-2.6 -42.2 -2.55 -39.7 -2.2 -39.3 -1.45 -36.2 -1.3 -35.3 -1.25 -31.95 L-1.2 -24.65 Q-1.2 -18.7 -1.55 -12.25 L-0.5 -10.7 Q0.5 -9.1 0.55 -8.2 5.6 -8.2 6.95 -8.35 L16.55 -9.4 19.2 -9.8 16.75 -27.85 13.3 -47.2 10.8 -47.15 8.1 -47.75 Q7.75 -47.95 6.9 -49.2 L9.8 -54.65 9.8 -54.7 11.45 -59.7 12.1 -62.05 12.65 -64.55 9.4 -62.05 9.35 -62.05 9.15 -61.9 Q7.7 -61.05 6.6 -61.05 L6.35 -60.95 Q6.1 -60.95 6.1 -61.55 L6.15 -62.05 6.2 -62.05 7.2 -65.85 M18.25 -46.3 L17.1 -49.7 13.25 -49.1 Q13.35 -48.3 17.0 -37.3 L20.55 -26.3 22.0 -26.55 23.3 -17.4 Q23.9 -15.05 25.9 -15.0 27.45 -15.0 27.15 -15.75 25.9 -27.5 24.85 -34.7 22.8 -48.95 19.1 -48.9 L18.35 -48.75 18.15 -48.4 18.15 -48.35 Q17.95 -47.75 18.25 -46.3 M22.05 -33.3 Q23.15 -29.3 23.45 -27.3 L21.05 -26.85 20.35 -29.65 19.2 -33.3 22.05 -33.3 M-17.35 -23.35 Q-17.5 -20.05 -18.15 -14.7 -18.8 -9.8 -19.0 -9.3 L-22.2 -11.35 Q-25.85 -12.65 -25.9 -13.8 -26.0 -14.55 -25.55 -16.0 L-24.4 -22.55 -23.0 -29.15 -21.2 -37.0 Q-19.4 -44.55 -18.3 -45.95 L-17.05 -46.4 -16.35 -46.45 -16.45 -46.4 Q-16.35 -43.7 -16.55 -39.1 -17.75 -29.2 -17.5 -25.3 L-17.35 -23.35 M-23.75 -78.85 Q-26.55 -80.05 -27.45 -80.95 -28.5 -81.95 -28.5 -83.65 -28.5 -87.1 -25.4 -93.9 -22.95 -99.25 -20.6 -102.8 -19.05 -105.1 -17.35 -108.85 -15.75 -111.4 -12.6 -111.5 -19.15 -100.2 -22.0 -90.3 -23.8 -84.15 -23.8 -80.2 L-23.75 -78.85" fill="#b4b4b4" fill-rule="evenodd" stroke="none"/>
    <path d="M-0.3 -140.15 Q8.5 -141.6 13.4 -137.1 17.6 -133.2 17.6 -126.4 17.6 -121.85 15.6 -120.5 L8.1 -119.05 Q1.2 -117.8 -0.8 -115.85 L4.55 -126.75 Q5.85 -129.3 5.85 -131.15 5.85 -133.15 4.05 -134.35 2.5 -135.4 0.4 -135.4 -3.65 -135.4 -5.65 -130.35 -7.6 -123.25 -9.0 -119.25 -10.45 -122.6 -11.15 -125.05 -11.35 -125.7 -12.0 -125.7 -12.65 -125.7 -13.05 -124.2 -13.95 -120.45 -15.2 -116.05 L-15.85 -116.15 Q-15.85 -117.75 -15.0 -121.4 L-13.95 -125.3 Q-13.6 -126.1 -12.1 -126.7 L-9.85 -127.45 Q-9.4 -127.65 -8.0 -130.2 L-6.25 -133.35 Q-4.85 -135.2 -2.8 -136.65 -1.25 -137.8 1.65 -139.25 L-0.3 -140.15 M-1.7 -109.1 L-0.4 -115.1 5.8 -117.75 9.75 -118.7 13.1 -118.95 14.65 -119.05 16.4 -115.15 18.35 -107.8 Q22.85 -82.8 23.8 -73.4 23.95 -67.45 24.4 -63.65 L24.65 -62.05 24.6 -62.05 Q25.6 -52.05 30.35 -34.15 34.5 -18.15 34.15 -13.9 34.0 -12.6 32.8 -11.8 L30.95 -10.9 31.1 -12.15 30.75 -12.6 30.1 -13.05 27.75 -13.05 26.6 -13.05 28.2 -14.1 29.6 -15.35 Q30.0 -15.95 30.05 -16.85 30.4 -21.65 28.35 -31.3 L22.35 -57.2 21.95 -58.0 17.45 -56.0 14.35 -54.7 13.4 -54.45 Q14.2 -54.95 15.35 -56.85 16.45 -58.8 17.1 -60.8 L17.6 -62.05 17.65 -62.05 20.7 -73.1 Q21.2 -74.6 21.1 -75.45 21.05 -76.35 20.4 -76.2 18.95 -76.05 16.1 -74.4 L13.55 -72.95 13.1 -72.8 14.45 -77.75 15.6 -83.1 Q16.25 -86.35 15.4 -88.05 14.15 -89.2 14.1 -90.05 L14.2 -92.1 Q14.1 -94.5 14.6 -100.05 14.6 -104.6 14.05 -107.0 13.3 -110.25 11.15 -112.15 L9.5 -112.45 Q8.3 -112.45 4.2 -110.7 3.05 -110.15 0.8 -109.6 L-1.7 -109.1 M-5.25 -48.85 Q-5.3 -56.15 -5.8 -62.05 -6.3 -69.75 -7.7 -74.85 L-4.75 -74.25 -2.2 -73.95 -0.1 -74.25 Q1.3 -74.55 1.9 -74.9 L1.9 -74.95 3.6 -76.25 2.05 -70.35 -0.85 -62.05 -0.9 -62.05 -1.25 -60.9 Q-3.9 -53.7 -5.25 -48.85 M-17.35 -23.35 Q-17.0 -19.55 -16.85 -9.45 -16.8 -7.8 -17.1 -7.65 -18.05 -7.75 -22.4 -9.75 -26.45 -11.5 -27.4 -12.5 L-27.75 -13.0 -27.9 -13.65 -27.75 -14.9 Q-25.45 -22.8 -24.6 -27.05 L-24.45 -28.1 -20.1 -54.9 Q-19.8 -57.45 -20.2 -60.5 L-20.85 -62.05 -21.5 -63.55 -21.45 -63.5 -27.65 -72.5 Q-30.75 -77.45 -30.65 -80.6 -31.25 -83.55 -28.6 -89.25 L-23.95 -98.05 -20.6 -104.85 -16.0 -115.3 -14.7 -115.0 -12.35 -122.8 -11.7 -124.8 -9.3 -117.55 -12.6 -111.5 Q-15.75 -111.4 -17.35 -108.85 -19.05 -105.1 -20.6 -102.8 -22.95 -99.25 -25.4 -93.9 -28.5 -87.1 -28.5 -83.65 -28.5 -81.95 -27.45 -80.95 -26.55 -80.05 -23.75 -78.85 -22.95 -74.0 -18.3 -68.85 -15.5 -65.75 -14.6 -62.05 -14.1 -60.35 -14.0 -58.45 -13.9 -56.5 -14.85 -49.95 L-16.55 -39.1 Q-16.35 -43.7 -16.45 -46.4 L-16.35 -46.45 -17.05 -46.4 -18.3 -45.95 Q-19.4 -44.55 -21.2 -37.0 L-23.0 -29.15 -24.4 -22.55 -25.55 -16.0 Q-26.0 -14.55 -25.9 -13.8 -25.85 -12.65 -22.2 -11.35 L-19.0 -9.3 Q-18.8 -9.8 -18.15 -14.7 -17.5 -20.05 -17.35 -23.35" fill="#8a8a8a" fill-rule="evenodd" stroke="none"/>
    <path d="M22.0 -26.55 L20.55 -26.3 17.0 -37.3 Q13.35 -48.3 13.25 -49.1 L17.1 -49.7 18.25 -46.3 24.65 -27.3 22.0 -26.55 M19.2 -33.3 L20.35 -29.65 21.05 -26.85 23.45 -27.3 Q23.15 -29.3 22.05 -33.3 L18.85 -43.25 16.9 -49.15 14.05 -48.8 Q14.15 -48.1 16.35 -41.6 L19.2 -33.3" fill="#616161" fill-rule="evenodd" stroke="none"/>
    <path d="M1.9 -141.3 L4.6 -141.3 9.5 -140.8 Q14.15 -138.5 16.3 -135.0 18.45 -131.6 18.45 -126.65 18.45 -120.9 16.2 -119.25 L18.3 -114.55 Q21.95 -103.2 23.85 -87.8 24.75 -80.45 25.65 -66.8 25.8 -64.75 26.25 -62.05 L26.2 -62.05 Q27.25 -52.65 31.55 -36.45 36.3 -18.2 36.0 -14.7 35.8 -12.55 34.95 -11.8 34.35 -11.25 30.8 -9.65 L24.55 -7.65 17.0 -6.3 7.3 -5.6 2.9 -5.55 Q-1.75 -5.55 -3.3 -6.3 -4.95 -7.05 -5.2 -9.45 -4.8 -18.55 -6.35 -29.3 L-6.75 -36.35 -7.0 -44.9 Q-6.75 -55.05 -7.05 -62.05 L-7.0 -62.05 Q-7.1 -68.1 -7.65 -71.5 -8.25 -75.4 -9.4 -76.55 -10.35 -79.95 -10.35 -80.7 -10.35 -84.35 -7.4 -94.75 L-3.0 -109.95 Q-2.75 -110.8 -2.85 -113.25 -2.25 -116.95 1.7 -125.1 L4.65 -131.05 Q4.65 -132.15 3.9 -133.15 2.9 -134.55 0.85 -134.55 -1.45 -134.55 -3.45 -132.15 -5.25 -130.0 -5.8 -127.4 -7.95 -116.55 -8.95 -115.0 -14.7 -105.85 -18.95 -94.6 -22.7 -84.7 -22.7 -80.65 -22.7 -74.05 -17.9 -69.2 -15.45 -66.7 -14.65 -65.25 -13.8 -63.85 -13.45 -62.05 L-13.0 -59.05 Q-12.8 -52.9 -13.85 -48.05 -15.3 -41.25 -15.95 -31.15 -16.3 -25.6 -16.0 -19.3 L-15.15 -6.85 -17.05 -6.8 -18.5 -7.15 -23.05 -9.1 -27.05 -10.85 -27.25 -11.05 -28.65 -12.5 Q-29.3 -13.55 -29.35 -14.25 -29.5 -15.75 -27.7 -20.9 L-25.45 -27.7 Q-23.5 -36.3 -22.75 -49.75 L-22.4 -57.9 Q-22.55 -60.0 -23.55 -62.05 L-23.5 -62.05 -24.05 -63.15 Q-24.7 -64.45 -27.5 -68.5 -29.2 -71.05 -32.1 -80.85 L-31.9 -84.2 Q-30.35 -90.35 -27.55 -95.3 -21.65 -105.7 -16.95 -115.6 -18.9 -116.45 -19.15 -119.85 -19.3 -121.85 -19.05 -126.25 L-17.8 -128.8 Q-16.2 -131.5 -14.0 -133.8 -7.2 -140.95 1.8 -141.3 L1.7 -141.3 1.9 -141.3 M-15.85 -116.15 L-15.2 -116.05 Q-13.95 -120.45 -13.05 -124.2 -12.65 -125.7 -12.0 -125.7 -11.35 -125.7 -11.15 -125.05 -10.45 -122.6 -9.0 -119.25 -7.6 -123.25 -5.65 -130.35 -3.65 -135.4 0.4 -135.4 2.5 -135.4 4.05 -134.35 5.85 -133.15 5.85 -131.15 5.85 -129.3 4.55 -126.75 L-0.8 -115.85 Q1.2 -117.8 8.1 -119.05 L15.6 -120.5 Q17.6 -121.85 17.6 -126.4 17.6 -133.2 13.4 -137.1 8.5 -141.6 -0.3 -140.15 L-3.25 -139.2 Q-8.1 -137.45 -12.05 -133.95 -14.95 -131.45 -16.4 -129.05 -17.15 -127.95 -17.65 -125.65 L-18.1 -122.7 Q-18.1 -118.8 -15.85 -116.15 M30.95 -10.9 L32.8 -11.8 Q34.0 -12.6 34.15 -13.9 34.5 -18.15 30.35 -34.15 25.6 -52.05 24.6 -62.05 L24.65 -62.05 24.4 -63.65 Q23.95 -67.45 23.8 -73.4 22.85 -82.8 18.35 -107.8 L16.4 -115.15 14.65 -119.05 13.1 -118.95 9.75 -118.7 5.8 -117.75 -0.4 -115.1 -1.7 -109.1 -2.55 -106.0 -6.6 -91.3 Q-9.0 -82.6 -9.05 -81.35 L-8.75 -79.2 -7.75 -74.85 -7.7 -74.85 Q-6.3 -69.75 -5.8 -62.05 -5.3 -56.15 -5.25 -48.85 L-5.0 -36.5 Q-4.75 -29.7 -5.1 -29.7 L-5.05 -19.0 Q-4.85 -10.35 -3.5 -8.2 -2.75 -6.95 -0.35 -6.55 2.05 -6.15 7.15 -6.4 L16.85 -7.2 24.35 -8.65 Q26.9 -9.2 30.1 -10.5 L30.95 -10.9 M-2.4 -105.95 L-2.6 -105.3 -2.4 -106.05 -2.2 -106.9 -2.4 -105.95 M-12.6 -111.5 L-9.3 -117.55 -11.7 -124.8 -12.35 -122.8 -14.7 -115.0 -16.0 -115.3 -20.6 -104.85 -23.95 -98.05 -28.6 -89.25 Q-31.25 -83.55 -30.65 -80.6 -30.75 -77.45 -27.65 -72.5 L-21.45 -63.5 -21.5 -63.55 -20.85 -62.05 -20.2 -60.5 Q-19.8 -57.45 -20.1 -54.9 L-24.45 -28.1 -24.6 -27.05 Q-25.45 -22.8 -27.75 -14.9 L-27.9 -13.65 -27.75 -13.0 -27.4 -12.5 Q-26.45 -11.5 -22.4 -9.75 -18.05 -7.75 -17.1 -7.65 -16.8 -7.8 -16.85 -9.45 -17.0 -19.55 -17.35 -23.35 L-17.5 -25.3 Q-17.75 -29.2 -16.55 -39.1 L-14.85 -49.95 Q-13.9 -56.5 -14.0 -58.45 -14.1 -60.35 -14.6 -62.05 -15.5 -65.75 -18.3 -68.85 -22.95 -74.0 -23.75 -78.85 L-23.8 -80.2 Q-23.8 -84.15 -22.0 -90.3 -19.15 -100.2 -12.6 -111.5" fill="#464646" fill-rule="evenodd" stroke="none"/>
    <path d="M6.45 -103.8 Q6.45 -100.85 4.85 -95.1 3.35 -89.85 1.75 -86.25 1.2 -84.8 -0.05 -84.15 -1.6 -83.3 -4.85 -83.3 -6.3 -83.3 -6.4 -84.2 L-5.45 -89.4 -4.2 -95.5 -3.2 -99.5 Q-2.4 -102.45 -1.15 -103.9 -0.7 -104.4 0.85 -104.5 L3.15 -104.7 Q6.45 -105.45 6.45 -103.8 M2.8 -52.55 Q4.0 -54.9 5.9 -56.4 7.55 -57.95 8.6 -57.65 8.1 -55.65 5.65 -50.35 L3.25 -45.55 Q2.55 -43.6 1.9 -42.9 1.4 -42.4 0.85 -42.4 -0.15 -42.4 0.35 -42.45 L0.15 -43.3 0.85 -46.15 Q1.6 -49.25 2.8 -52.55 M11.4 -43.2 Q12.6 -42.3 13.05 -39.7 13.65 -36.75 13.25 -31.1 L13.3 -31.05 Q14.45 -20.85 15.3 -15.55 L15.7 -11.8 Q15.65 -10.85 12.6 -10.4 L6.75 -10.1 3.7 -10.45 3.4 -11.8 2.7 -15.35 1.9 -19.85 1.2 -24.4 Q1.2 -28.35 1.65 -32.15 2.3 -37.75 3.75 -39.7 5.15 -42.05 6.8 -42.9 8.65 -43.9 11.4 -43.2" fill="#ffffff" fill-rule="evenodd" stroke="none"/>
  </g>
</svg>
