<?xml version="1.0" encoding="UTF-8" standalone="no"?>
<svg xmlns:ffdec="https://www.free-decompiler.com/flash" xmlns:xlink="http://www.w3.org/1999/xlink" ffdec:objectType="shape" height="132.35px" width="70.4px" xmlns="http://www.w3.org/2000/svg">
  <g transform="matrix(1.0, 0.0, 0.0, 1.0, 32.0, 139.85)">
    <path d="M5.45 -106.65 Q8.7 -103.25 9.0 -96.5 9.0 -83.1 9.9 -68.4 L10.35 -62.0 10.4 -61.8 Q11.25 -49.0 12.85 -37.0 14.35 -25.3 14.3 -21.95 14.3 -21.05 13.65 -19.85 12.65 -18.25 10.95 -17.35 L7.45 -15.9 Q4.65 -14.95 2.1 -15.05 -3.95 -14.55 -5.4 -15.05 -5.8 -15.15 -6.5 -16.5 L-2.55 -62.0 -2.5 -62.0 -2.45 -62.55 -2.95 -81.75 Q-3.2 -90.1 -2.2 -97.45 L-1.05 -104.35 Q-0.45 -106.45 1.05 -107.25 3.45 -107.5 5.45 -106.65" fill="#ffffff" fill-rule="evenodd" stroke="none"/>
    <path d="M32.4 -11.3 L30.85 -10.9 Q24.65 -9.3 22.75 -9.25 L11.75 -8.45 Q4.2 -8.35 1.4 -8.5 L-10.3 -9.4 -12.0 -9.5 Q-11.95 -11.4 -10.1 -23.85 -8.8 -32.95 -9.65 -48.2 -10.05 -52.2 -9.8 -61.8 L-9.8 -62.0 -9.55 -67.6 Q-8.8 -83.55 -7.65 -92.1 L-7.65 -92.0 -5.55 -108.5 -3.55 -108.65 1.0 -109.6 5.35 -109.95 Q9.05 -109.35 10.45 -107.6 11.75 -106.0 12.25 -101.55 L14.45 -80.25 Q15.3 -71.55 15.95 -67.1 L15.95 -67.15 16.75 -62.0 16.8 -61.8 17.45 -57.2 18.4 -42.4 19.6 -30.95 20.65 -19.45 20.65 -19.4 Q20.1 -16.25 19.4 -15.75 18.55 -15.2 11.3 -13.3 L6.85 -11.9 Q3.6 -11.05 1.7 -11.35 L-7.6 -11.4 Q-7.15 -10.45 -4.3 -10.25 -2.25 -10.05 1.55 -10.2 L11.55 -10.6 18.0 -10.9 22.25 -11.7 30.35 -12.6 31.05 -11.9 Q31.4 -11.65 32.4 -11.3 M5.45 -106.65 Q3.45 -107.5 1.05 -107.25 -0.45 -106.45 -1.05 -104.35 L-2.2 -97.45 Q-3.2 -90.1 -2.95 -81.75 L-2.45 -62.55 -2.5 -62.0 -2.55 -62.0 -6.5 -16.5 Q-5.8 -15.15 -5.4 -15.05 -3.95 -14.55 2.1 -15.05 4.65 -14.95 7.45 -15.9 L10.95 -17.35 Q12.65 -18.25 13.65 -19.85 14.3 -21.05 14.3 -21.95 14.35 -25.3 12.85 -37.0 11.25 -49.0 10.4 -61.8 L10.35 -62.0 9.9 -68.4 Q9.0 -83.1 9.0 -96.5 8.7 -103.25 5.45 -106.65 M-23.6 -13.25 L-22.75 -13.45 -20.35 -13.15 -17.95 -12.7 -16.35 -11.9 -18.4 -11.65 -21.6 -12.15 -23.95 -12.85 -23.6 -13.25" fill="#e0e0e0" fill-rule="evenodd" stroke="none"/>
    <path d="M35.4 -12.25 L32.4 -11.3 Q31.4 -11.65 31.05 -11.9 L30.35 -12.6 22.25 -11.7 18.0 -10.9 11.55 -10.6 1.55 -10.2 Q-2.25 -10.05 -4.3 -10.25 -7.15 -10.45 -7.6 -11.4 L1.7 -11.35 Q3.6 -11.05 6.85 -11.9 L11.3 -13.3 Q18.55 -15.2 19.4 -15.75 20.1 -16.25 20.65 -19.4 L20.65 -19.45 19.6 -30.95 18.4 -42.4 17.45 -57.2 16.8 -61.8 16.75 -62.0 15.95 -67.15 15.95 -67.1 Q15.3 -71.55 14.45 -80.25 L12.25 -101.55 Q11.75 -106.0 10.45 -107.6 9.05 -109.35 5.35 -109.95 L1.0 -109.6 -3.55 -108.65 -5.55 -108.5 -7.65 -92.0 -7.65 -92.1 Q-8.8 -83.55 -9.55 -67.6 L-9.8 -62.0 -9.8 -61.8 Q-10.05 -52.2 -9.65 -48.2 -8.8 -32.95 -10.1 -23.85 -11.95 -11.4 -12.0 -9.5 L-18.95 -10.45 -26.2 -11.95 -24.7 -15.05 -18.9 -13.8 -17.45 -13.85 -16.7 -13.9 -16.05 -14.15 Q-15.85 -14.35 -16.1 -14.55 -16.3 -14.8 -17.05 -14.85 L-21.7 -16.1 Q-23.5 -16.75 -23.5 -17.75 -19.4 -25.95 -17.6 -35.0 -16.0 -43.8 -15.95 -56.25 L-15.65 -61.8 -15.65 -62.0 -15.6 -62.0 -14.7 -72.35 Q-13.05 -91.4 -12.25 -111.05 L-7.25 -110.25 -4.55 -109.9 Q-4.7 -110.2 -3.55 -110.5 L-3.55 -110.55 1.0 -111.85 5.3 -112.95 9.35 -113.75 10.5 -113.3 12.35 -112.3 12.35 -112.25 Q18.1 -101.4 19.25 -97.35 20.2 -91.95 22.05 -85.15 L23.1 -74.2 21.4 -75.75 19.55 -77.05 18.1 -77.75 17.85 -77.4 Q18.15 -73.45 19.9 -62.0 L19.95 -61.8 20.2 -59.85 22.5 -44.2 Q23.35 -36.3 23.85 -33.6 24.5 -29.85 27.7 -21.8 L27.75 -21.7 30.5 -15.0 29.65 -14.8 21.95 -13.0 19.4 -12.45 19.55 -12.2 20.85 -11.95 22.15 -12.05 24.5 -12.35 30.0 -13.6 34.15 -14.7 35.4 -12.25 M-23.6 -13.25 L-23.95 -12.85 -21.6 -12.15 -18.4 -11.65 -16.35 -11.9 -17.95 -12.7 -20.35 -13.15 -22.75 -13.45 -23.6 -13.25" fill="#b4b4b4" fill-rule="evenodd" stroke="none"/>
    <path d="M-5.95 -125.05 L-5.45 -123.45 -4.9 -123.0 -4.15 -122.15 -3.25 -122.05 -1.15 -122.6 Q-0.1 -123.05 1.35 -124.15 L3.2 -126.15 6.05 -129.95 7.25 -131.4 Q8.0 -132.0 9.0 -132.0 L9.2 -132.0 Q11.85 -127.2 16.1 -114.35 L20.25 -101.45 20.0 -103.95 20.0 -103.85 18.4 -112.65 Q18.45 -113.65 19.7 -111.55 23.2 -105.55 25.55 -101.9 L31.75 -92.6 Q34.05 -89.0 34.05 -83.7 34.05 -79.7 33.1 -77.35 32.1 -74.9 29.15 -71.95 28.35 -71.5 26.4 -71.1 L24.0 -70.75 23.75 -68.15 Q23.75 -66.15 24.4 -62.0 L24.45 -61.8 Q25.2 -56.95 26.8 -48.95 29.65 -34.9 32.9 -24.2 34.3 -19.45 35.1 -17.55 L36.0 -15.5 Q36.25 -14.8 37.2 -13.85 37.1 -12.65 35.4 -12.25 L34.15 -14.7 30.0 -13.6 24.5 -12.35 22.15 -12.05 20.85 -11.95 19.55 -12.2 19.4 -12.45 21.95 -13.0 29.65 -14.8 30.5 -15.0 27.75 -21.7 27.7 -21.8 Q24.5 -29.85 23.85 -33.6 23.35 -36.3 22.5 -44.2 L20.2 -59.85 19.95 -61.8 19.9 -62.0 Q18.15 -73.45 17.85 -77.4 L18.1 -77.75 19.55 -77.05 21.4 -75.75 23.1 -74.2 22.05 -85.15 Q20.2 -91.95 19.25 -97.35 18.1 -101.4 12.35 -112.25 L12.35 -112.3 10.5 -113.3 9.35 -113.75 5.3 -112.95 1.0 -111.85 -3.55 -110.55 -3.55 -110.5 Q-4.7 -110.2 -4.55 -109.9 L-7.25 -110.25 -12.25 -111.05 Q-13.05 -91.4 -14.7 -72.35 L-15.6 -62.0 -15.65 -62.0 -15.65 -61.8 -15.95 -56.25 Q-16.0 -43.8 -17.6 -35.0 -19.4 -25.95 -23.5 -17.75 -23.5 -16.75 -21.7 -16.1 L-17.05 -14.85 Q-16.3 -14.8 -16.1 -14.55 -15.85 -14.35 -16.05 -14.15 L-16.7 -13.9 -17.45 -13.85 -18.9 -13.8 -24.7 -15.05 -26.2 -11.95 -27.65 -12.35 Q-28.3 -12.55 -30.15 -14.0 L-29.9 -14.45 Q-23.4 -33.25 -21.9 -40.2 -20.25 -48.4 -19.8 -61.8 L-19.8 -62.0 -19.75 -62.0 -19.25 -71.8 -19.25 -71.85 Q-17.0 -101.0 -16.2 -106.35 -13.3 -125.4 -6.25 -134.55 L-3.25 -134.55 -5.5 -132.95 -6.35 -130.75 -7.05 -128.45 Q-7.0 -127.55 -6.1 -125.35 L-5.95 -125.05" fill="#8a8a8a" fill-rule="evenodd" stroke="none"/>
    <path d="M-4.9 -123.0 Q-4.55 -122.8 -3.9 -122.75 L-2.35 -122.7 Q-0.4 -122.85 1.7 -125.2 L2.9 -126.8 Q5.6 -130.7 5.6 -131.6 5.6 -132.45 6.1 -132.85 L6.25 -133.0 6.25 -132.95 8.35 -134.8 8.6 -135.0 9.55 -135.45 11.3 -135.75 Q11.95 -135.75 12.6 -134.2 13.15 -132.85 13.15 -132.0 L13.0 -130.0 12.7 -128.7 Q13.5 -125.2 14.35 -123.35 L14.55 -122.95 14.6 -122.85 14.65 -122.8 15.45 -121.1 15.8 -120.5 16.6 -119.15 17.05 -118.5 17.5 -117.8 20.35 -112.75 22.8 -108.8 29.5 -98.25 31.95 -94.5 32.0 -94.4 Q33.2 -92.4 34.2 -89.7 35.6 -85.75 35.6 -82.25 35.6 -75.8 30.95 -70.7 L28.9 -68.45 27.7 -66.95 Q26.8 -65.5 26.15 -62.55 L26.0 -61.95 26.05 -61.8 Q29.05 -37.45 38.35 -13.85 L38.4 -13.35 Q38.3 -11.4 31.2 -9.85 L22.85 -8.55 11.85 -7.65 11.85 -7.6 1.25 -7.5 -10.65 -8.25 -15.2 -9.0 -19.45 -9.35 -26.6 -10.7 -27.8 -11.0 -27.95 -11.05 Q-32.0 -12.15 -32.0 -13.2 L-31.95 -13.45 Q-28.2 -23.45 -25.7 -32.0 -21.75 -45.9 -21.4 -55.8 L-21.2 -62.0 -21.15 -62.0 -21.15 -62.55 -21.15 -63.05 Q-20.45 -76.15 -20.45 -79.4 L-20.15 -86.2 -18.95 -101.05 Q-17.45 -112.9 -14.7 -120.3 L-15.1 -120.5 Q-15.7 -121.05 -15.1 -126.75 -14.5 -132.45 -9.75 -136.7 -5.0 -141.0 1.55 -139.45 L1.55 -138.8 Q1.6 -135.8 1.25 -135.2 L-0.85 -134.55 -1.55 -134.15 -4.25 -132.5 Q-5.0 -131.85 -5.6 -129.5 -6.2 -127.2 -6.05 -125.75 L-5.95 -125.05 -6.1 -125.35 Q-7.0 -127.55 -7.05 -128.45 L-6.35 -130.75 -5.5 -132.95 -3.25 -134.55 -6.25 -134.55 Q-13.3 -125.4 -16.2 -106.35 -17.0 -101.0 -19.25 -71.85 L-19.25 -71.8 -19.75 -62.0 -19.8 -62.0 -19.8 -61.8 Q-20.25 -48.4 -21.9 -40.2 -23.4 -33.25 -29.9 -14.45 L-30.15 -14.0 Q-28.3 -12.55 -27.65 -12.35 L-26.2 -11.95 -18.95 -10.45 -12.0 -9.5 -10.3 -9.4 1.4 -8.5 Q4.2 -8.35 11.75 -8.45 L22.75 -9.25 Q24.65 -9.3 30.85 -10.9 L32.4 -11.3 35.4 -12.25 Q37.1 -12.65 37.2 -13.85 36.25 -14.8 36.0 -15.5 L35.1 -17.55 Q34.3 -19.45 32.9 -24.2 29.65 -34.9 26.8 -48.95 25.2 -56.95 24.45 -61.8 L24.4 -62.0 Q23.75 -66.15 23.75 -68.15 L24.0 -70.75 26.4 -71.1 Q28.35 -71.5 29.15 -71.95 32.1 -74.9 33.1 -77.35 34.05 -79.7 34.05 -83.7 34.05 -89.0 31.75 -92.6 L25.55 -101.9 Q23.2 -105.55 19.7 -111.55 18.45 -113.65 18.4 -112.65 L20.0 -103.85 20.0 -103.95 20.25 -101.45 16.1 -114.35 Q11.85 -127.2 9.2 -132.0 L9.0 -132.0 Q8.0 -132.0 7.25 -131.4 L6.05 -129.95 3.2 -126.15 1.35 -124.15 Q-0.1 -123.05 -1.15 -122.6 L-3.25 -122.05 -4.15 -122.15 -4.9 -123.0" fill="#464646" fill-rule="evenodd" stroke="none"/>
  </g>
</svg>
