<?xml version="1.0" encoding="UTF-8" standalone="no"?>
<svg xmlns:ffdec="https://www.free-decompiler.com/flash" xmlns:xlink="http://www.w3.org/1999/xlink" ffdec:objectType="shape" height="185.4px" width="102.85px" xmlns="http://www.w3.org/2000/svg">
  <g transform="matrix(1.0, 0.0, 0.0, 1.0, 37.45, 149.1)">
    <path d="M-21.75 -115.1 Q-25.05 -113.55 -28.3 -112.05 L-29.95 -112.65 Q-31.6 -113.4 -31.6 -114.05 L-31.15 -115.65 Q-30.15 -118.55 -26.65 -126.25 L-24.3 -131.25 -23.55 -132.75 Q-20.5 -138.65 -18.75 -140.2 -8.35 -149.1 3.85 -149.1 L3.95 -149.1 3.95 -147.6 3.7 -147.6 Q-7.45 -147.6 -15.8 -140.3 -19.45 -137.15 -22.35 -132.75 L-23.3 -131.25 Q-27.25 -124.7 -29.6 -115.65 L-29.85 -114.75 -28.5 -113.9 -28.05 -115.65 Q-26.45 -121.4 -23.85 -126.85 L-21.45 -131.25 -20.5 -132.75 -18.45 -135.4 Q-18.15 -135.4 -18.1 -134.45 L-19.95 -99.75 -19.4 -98.3 -17.65 -109.05 -17.1 -132.75 -17.0 -136.05 Q-12.55 -141.15 -7.05 -143.85 -1.75 -146.5 3.95 -146.6 L3.95 -145.5 Q-0.4 -145.35 -3.45 -144.2 -7.55 -142.3 -10.8 -141.05 L-11.05 -140.8 -16.0 -135.7 -16.5 -121.2 -16.85 -112.05 -15.45 -115.65 -12.9 -121.4 -9.75 -126.7 Q-8.15 -129.1 -6.3 -130.8 L-4.9 -136.4 3.95 -141.1 3.95 -139.45 -3.1 -135.65 -3.6 -135.4 -2.75 -133.55 -2.3 -133.65 -1.15 -132.65 -0.95 -132.5 0.45 -131.25 0.5 -131.2 3.95 -127.55 3.95 -125.1 -0.9 -117.55 0.25 -118.5 Q2.05 -119.9 3.8 -120.6 L4.3 -120.8 5.8 -121.15 Q9.1 -121.7 12.2 -119.4 L12.6 -119.1 15.85 -115.65 17.15 -113.7 17.4 -113.25 17.6 -112.9 19.0 -110.25 20.25 -107.5 20.5 -106.8 22.15 -102.3 23.45 -99.45 23.8 -98.4 24.05 -97.25 24.15 -96.85 25.2 -91.8 27.0 -86.2 29.35 -78.2 31.65 -68.65 32.6 -64.25 Q35.1 -52.45 35.7 -46.9 L37.0 -35.35 37.45 -27.65 37.45 -26.85 37.6 -17.05 40.15 -16.85 45.75 -16.4 Q51.2 -16.4 56.65 -19.95 L53.95 -26.85 53.65 -27.65 50.35 -36.05 49.2 -38.9 47.35 -43.65 46.8 -44.95 47.45 -43.65 47.9 -42.95 49.6 -38.9 50.85 -36.05 54.55 -27.65 54.9 -26.85 55.6 -25.3 58.4 -26.85 59.65 -27.65 62.45 -29.85 63.2 -31.05 63.8 -32.25 Q61.6 -33.95 59.65 -36.05 L57.1 -38.9 Q55.25 -41.1 53.6 -43.65 50.1 -49.0 47.25 -55.75 45.4 -60.3 42.65 -68.65 L39.65 -78.2 Q37.1 -86.35 34.1 -96.85 L33.95 -97.25 33.35 -99.45 31.45 -106.05 31.25 -106.8 30.05 -110.4 28.85 -113.2 27.5 -115.65 Q25.5 -119.0 22.7 -122.05 17.0 -130.2 11.3 -131.25 9.6 -131.55 7.95 -131.25 6.1 -132.3 4.15 -132.3 L3.95 -132.3 3.95 -133.9 Q10.0 -134.85 15.75 -131.25 21.1 -127.9 26.2 -120.55 L26.65 -119.95 28.8 -115.65 32.15 -106.8 33.4 -103.1 34.6 -99.45 35.3 -97.25 35.4 -96.85 41.3 -78.2 44.3 -68.65 45.4 -65.05 Q49.4 -52.2 55.2 -43.65 56.8 -41.25 58.55 -39.15 L58.75 -38.9 61.3 -36.05 Q63.55 -33.7 65.4 -32.4 65.4 -31.0 63.85 -29.05 L62.55 -27.65 61.6 -26.85 Q59.45 -25.2 56.3 -23.95 57.35 -20.8 58.0 -20.3 L58.35 -19.8 Q58.35 -17.6 52.4 -16.05 47.8 -14.85 44.85 -14.85 L38.15 -15.2 Q36.5 -15.55 36.4 -16.75 37.45 -21.25 36.15 -26.4 L34.85 -26.85 33.4 -27.35 32.95 -29.8 36.05 -29.2 36.05 -27.95 Q36.15 -31.3 35.75 -36.05 L35.45 -38.9 34.8 -43.65 Q33.35 -53.3 30.35 -66.9 L30.0 -68.65 27.75 -78.2 Q25.75 -86.2 24.0 -91.85 L23.9 -91.9 Q23.6 -92.05 23.55 -92.35 L22.85 -94.9 22.3 -96.85 22.2 -97.25 21.55 -99.45 18.9 -106.8 Q17.05 -111.3 15.0 -114.2 L13.95 -115.65 11.3 -118.2 Q9.2 -119.7 6.95 -119.6 L5.4 -119.4 4.65 -119.2 Q2.05 -118.35 -0.75 -115.65 L-3.6 -112.45 -7.75 -106.8 -13.45 -98.7 -13.5 -98.6 -14.45 -97.25 -14.7 -96.85 -15.0 -96.45 -14.4 -99.95 -6.85 -128.85 -9.8 -125.05 Q-12.65 -120.35 -14.45 -115.65 L-15.45 -112.8 -16.85 -107.8 -17.95 -102.95 -18.65 -99.45 -19.05 -97.25 -19.2 -96.35 -19.25 -96.05 -20.6 -99.3 -20.0 -115.4 -20.0 -115.95 -21.75 -115.1 M33.85 -24.7 L33.05 -22.75 34.95 -14.7 36.8 -7.0 Q37.85 -2.75 37.85 0.85 37.85 15.4 29.85 25.5 L29.75 25.6 27.25 28.4 27.8 25.85 Q36.35 16.95 36.35 2.55 36.35 -3.0 34.9 -9.45 L33.65 -14.7 31.85 -21.5 27.8 -19.4 33.85 -24.7 M18.15 34.45 Q14.0 36.05 9.2 36.3 L9.35 34.8 Q14.0 34.55 18.3 32.65 L18.15 34.45 M-0.2 35.3 L-0.5 35.25 -0.75 35.15 -1.05 35.1 -1.3 35.0 -1.45 34.95 Q-5.6 33.4 -9.7 30.95 L-10.25 30.6 -10.4 28.75 -1.75 33.4 -0.4 33.8 -0.2 35.3 M-16.6 24.9 Q-21.55 19.1 -23.05 11.5 -24.85 -2.75 -21.75 -14.7 L-21.1 -16.9 -20.75 -20.45 -18.7 -19.0 -19.35 -19.4 -19.65 -16.9 -20.25 -14.7 Q-23.45 -2.4 -21.45 11.5 -20.25 16.9 -17.1 21.55 L-16.6 24.9 M-21.2 -25.85 L-25.15 -24.8 -29.75 -24.1 Q-31.9 -24.75 -31.75 -26.85 L-31.75 -26.95 -31.5 -27.65 -31.35 -28.2 -30.15 -32.25 -29.15 -36.05 -27.25 -43.65 -26.15 -48.3 Q-23.7 -59.0 -22.9 -66.1 L-22.55 -65.55 -22.05 -64.6 -22.6 -59.5 -22.8 -57.7 -22.85 -57.25 -23.35 -53.05 Q-24.05 -47.95 -24.9 -43.65 -25.7 -39.5 -26.65 -36.05 -28.0 -31.1 -29.65 -27.65 L-30.05 -26.85 -30.15 -26.65 -30.15 -25.55 Q-27.6 -25.35 -25.15 -26.25 L-23.8 -26.85 -21.1 -27.5 -21.2 -25.85 M28.8 -101.7 L29.65 -99.45 30.45 -97.25 30.6 -96.85 36.5 -78.2 39.25 -68.65 39.4 -68.05 Q42.1 -58.3 44.05 -52.25 41.85 -58.35 38.55 -68.65 L36.6 -74.7 35.5 -78.2 30.3 -94.25 29.95 -94.95 30.4 -95.0 Q30.6 -95.05 30.2 -96.85 L30.1 -97.25 29.5 -99.45 28.8 -101.7 M-19.9 -117.6 L-19.3 -132.75 -20.4 -131.25 -23.25 -125.75 Q-25.75 -120.4 -27.05 -115.65 L-27.45 -114.1 -19.9 -117.6" fill="#02142d" fill-rule="evenodd" stroke="none"/>
    <path d="M3.95 -145.5 L3.95 -141.1 -4.9 -136.4 -6.3 -130.8 Q-8.15 -129.1 -9.75 -126.7 L-12.9 -121.4 -15.45 -115.65 -16.85 -112.05 -16.5 -121.2 -15.0 -124.85 -14.9 -125.05 -13.4 -128.0 -12.95 -128.6 -12.65 -128.8 -11.5 -128.9 Q-11.1 -129.1 -11.1 -130.3 L-11.15 -131.25 -11.3 -132.35 Q-12.35 -139.15 -11.05 -140.8 L-10.8 -141.05 Q-7.55 -142.3 -3.45 -144.2 -0.4 -145.35 3.95 -145.5 M22.85 -94.9 L23.55 -92.35 Q23.6 -92.05 23.9 -91.9 L24.0 -91.85 Q25.75 -86.2 27.75 -78.2 L30.0 -68.65 30.35 -66.9 Q33.35 -53.3 34.8 -43.65 L35.45 -38.9 35.75 -36.05 Q36.15 -31.3 36.05 -27.95 L36.05 -29.2 32.95 -29.8 31.05 -40.3 29.6 -41.9 28.9 -42.5 28.7 -43.65 Q26.9 -54.8 25.95 -65.7 L25.7 -68.65 25.0 -78.2 24.7 -82.1 24.0 -88.6 22.85 -94.9 M-19.9 -117.6 L-27.45 -114.1 -27.05 -115.65 Q-25.75 -120.4 -23.25 -125.75 L-20.4 -131.25 -19.3 -132.75 -19.9 -117.6 M-22.05 -64.6 Q-19.65 -59.75 -18.35 -52.3 -17.35 -46.8 -17.5 -43.65 -17.6 -41.7 -18.1 -40.65 L-19.3 -38.15 -19.6 -36.05 -20.4 -31.05 -21.1 -27.5 -23.8 -26.85 -23.05 -31.05 -22.4 -36.05 Q-22.0 -39.85 -22.0 -43.1 L-22.0 -43.65 Q-22.1 -47.85 -23.35 -53.05 L-22.85 -57.25 -22.8 -57.7 -22.6 -59.5 -22.05 -64.6" fill="#051c3c" fill-rule="evenodd" stroke="none"/>
    <path d="M3.95 -147.6 L3.95 -146.6 Q-1.75 -146.5 -7.05 -143.85 -12.55 -141.15 -17.0 -136.05 L-17.1 -132.75 -17.65 -109.05 -19.4 -98.3 -19.95 -99.75 -18.1 -134.45 Q-18.15 -135.4 -18.45 -135.4 L-20.5 -132.75 -21.45 -131.25 -23.85 -126.85 Q-26.45 -121.4 -28.05 -115.65 L-28.5 -113.9 -29.85 -114.75 -29.6 -115.65 Q-27.25 -124.7 -23.3 -131.25 L-22.35 -132.75 Q-19.45 -137.15 -15.8 -140.3 -7.45 -147.6 3.7 -147.6 L3.95 -147.6 M3.95 -136.05 L3.95 -133.9 3.95 -132.3 3.95 -131.1 3.8 -131.25 2.8 -132.2 0.55 -134.05 1.85 -134.8 3.95 -136.05 M20.25 -107.5 Q20.25 -113.55 20.55 -114.2 L20.9 -114.2 Q21.2 -114.05 21.35 -114.55 24.35 -111.5 26.05 -108.85 L27.25 -106.8 27.4 -106.45 27.7 -105.7 28.8 -101.7 29.5 -99.45 30.1 -97.25 30.2 -96.85 Q30.6 -95.05 30.4 -95.0 L29.95 -94.95 30.3 -94.25 35.5 -78.2 36.6 -74.7 38.55 -68.65 Q41.85 -58.35 44.05 -52.25 L45.35 -48.65 46.8 -44.95 47.35 -43.65 49.2 -38.9 50.35 -36.05 53.65 -27.65 53.95 -26.85 56.65 -19.95 Q51.2 -16.4 45.75 -16.4 L40.15 -16.85 39.8 -26.85 39.75 -27.65 39.1 -36.05 38.8 -38.9 38.2 -43.65 36.2 -56.65 33.75 -68.65 Q32.45 -74.2 31.0 -78.2 29.1 -83.65 27.0 -86.2 L25.2 -91.8 24.15 -96.85 24.05 -97.25 23.8 -98.4 23.45 -99.45 22.15 -102.3 20.5 -106.8 20.25 -107.5 M62.45 -29.85 Q58.8 -31.65 55.35 -36.05 L53.25 -38.9 Q51.8 -41.05 50.4 -43.65 46.85 -50.15 43.45 -59.4 L40.3 -68.65 Q38.85 -73.25 37.5 -78.2 35.1 -87.0 33.05 -96.85 L32.95 -97.25 32.5 -99.45 31.35 -105.25 31.45 -106.05 33.35 -99.45 33.95 -97.25 34.1 -96.85 Q37.1 -86.35 39.65 -78.2 L42.65 -68.65 Q45.4 -60.3 47.25 -55.75 50.1 -49.0 53.6 -43.65 55.25 -41.1 57.1 -38.9 L59.65 -36.05 Q61.6 -33.95 63.8 -32.25 L63.2 -31.05 62.45 -29.85 M36.25 -61.95 L39.25 -43.65 40.05 -38.9 40.5 -36.05 41.8 -27.65 41.9 -26.85 42.95 -19.45 43.0 -19.3 45.2 -19.25 48.3 -19.6 51.8 -20.0 51.9 -20.0 52.0 -20.7 49.9 -26.85 49.6 -27.65 46.7 -36.05 45.7 -38.9 44.0 -43.65 36.75 -62.9 Q36.25 -62.95 36.25 -61.95 M9.25 -9.05 L15.55 -10.25 18.65 -10.9 18.85 -7.7 Q12.25 -7.45 9.45 -5.9 L9.25 -9.05 M-1.0 -8.65 L-1.55 -1.3 Q-2.6 -0.3 -2.7 1.8 L-2.7 2.05 -2.7 2.15 -2.7 2.25 -2.7 2.35 Q-2.7 4.25 -1.75 4.75 -1.95 11.9 -1.6 19.35 -5.25 17.7 -6.75 16.15 -7.9 14.95 -8.75 10.8 -9.5 7.2 -9.5 4.7 -9.5 -6.5 -7.1 -8.9 L-1.0 -8.65 M10.0 22.25 L10.1 16.9 10.8 16.75 10.9 16.7 11.4 16.5 11.55 16.4 Q13.0 15.6 13.0 13.6 13.0 11.6 10.95 9.25 L10.05 8.35 9.95 3.95 11.55 5.0 19.25 9.95 19.05 19.95 Q15.55 21.95 10.0 22.25" fill="#0c4595" fill-rule="evenodd" stroke="none"/>
    <path d="M3.95 -139.45 L3.95 -136.05 1.85 -134.8 0.55 -134.05 2.8 -132.2 3.8 -131.25 3.95 -131.1 3.95 -128.7 3.85 -128.85 1.75 -131.25 1.25 -131.7 0.35 -132.6 -0.3 -133.2 -2.45 -135.1 -3.1 -135.65 3.95 -139.45 M35.7 -46.9 Q35.1 -52.45 32.6 -64.25 L31.65 -68.65 29.35 -78.2 27.0 -86.2 Q29.1 -83.65 31.0 -78.2 32.45 -74.2 33.75 -68.65 L36.2 -56.65 38.2 -43.65 38.8 -38.9 39.1 -36.05 39.75 -27.65 39.8 -26.85 40.15 -16.85 37.6 -17.05 37.45 -26.85 37.45 -27.65 37.0 -35.35 37.25 -36.75 36.95 -38.9 36.2 -43.65 35.7 -46.9 M36.25 -61.95 Q36.25 -62.95 36.75 -62.9 L44.0 -43.65 45.7 -38.9 46.7 -36.05 49.6 -27.65 49.9 -26.85 52.0 -20.7 51.9 -20.0 51.8 -20.0 48.3 -19.6 45.2 -19.25 43.0 -19.3 42.95 -19.45 41.9 -26.85 41.8 -27.65 40.5 -36.05 40.05 -38.9 39.25 -43.65 36.25 -61.95 M9.95 3.95 L9.45 -5.9 Q12.25 -7.45 18.85 -7.7 19.25 1.25 19.25 9.9 L19.25 9.95 11.55 5.0 9.95 3.95 M-1.75 4.75 Q-2.7 4.25 -2.7 2.35 L-2.7 2.25 -2.7 2.15 -2.7 2.05 -2.7 1.8 Q-2.6 -0.3 -1.55 -1.3 L-1.75 4.75 M10.05 8.35 L10.95 9.25 Q13.0 11.6 13.0 13.6 13.0 15.6 11.55 16.4 L11.4 16.5 10.9 16.7 10.8 16.75 10.1 16.9 10.05 8.35" fill="#1055b6" fill-rule="evenodd" stroke="none"/>
    <path d="M3.95 -131.1 L3.95 -132.3 4.15 -132.3 Q6.1 -132.3 7.95 -131.25 9.6 -131.55 11.3 -131.25 17.0 -130.2 22.7 -122.05 25.5 -119.0 27.5 -115.65 L28.85 -113.2 30.05 -110.4 31.25 -106.8 31.45 -106.05 31.35 -105.25 32.5 -99.45 32.95 -97.25 33.05 -96.85 Q35.1 -87.0 37.5 -78.2 38.85 -73.25 40.3 -68.65 L43.45 -59.4 Q46.85 -50.15 50.4 -43.65 51.8 -41.05 53.25 -38.9 L55.35 -36.05 Q58.8 -31.65 62.45 -29.85 L59.65 -27.65 58.4 -26.85 55.6 -25.3 54.9 -26.85 54.55 -27.65 50.85 -36.05 49.6 -38.9 47.9 -42.95 47.45 -43.65 46.8 -44.95 45.35 -48.65 44.05 -52.25 Q42.1 -58.3 39.4 -68.05 L39.25 -68.65 36.5 -78.2 30.6 -96.85 30.45 -97.25 29.65 -99.45 28.8 -101.7 27.7 -105.7 27.4 -106.45 27.25 -106.8 26.05 -108.85 Q24.35 -111.5 21.35 -114.55 21.2 -114.05 20.9 -114.2 L20.55 -114.2 Q20.25 -113.55 20.25 -107.5 L19.0 -110.25 17.6 -112.9 17.4 -113.25 17.15 -113.7 15.85 -115.65 12.6 -119.1 12.2 -119.4 Q9.1 -121.7 5.8 -121.15 L4.3 -120.8 3.8 -120.6 Q2.05 -119.9 0.25 -118.5 L-0.9 -117.55 3.95 -125.1 3.95 -127.55 0.5 -131.2 0.45 -131.25 -0.95 -132.5 -1.15 -132.65 -2.3 -133.65 -2.75 -133.55 -3.6 -135.4 -3.1 -135.65 -2.45 -135.1 -0.3 -133.2 0.35 -132.6 1.25 -131.7 1.75 -131.25 3.85 -128.85 3.95 -128.7 3.95 -131.1 M35.7 -46.9 L36.2 -43.65 36.95 -38.9 37.25 -36.75 37.0 -35.35 35.7 -46.9 M8.9 -13.3 L16.3 -14.05 18.45 -14.3 18.65 -10.9 15.55 -10.25 9.25 -9.05 8.9 -13.3 M19.05 19.95 L18.8 25.75 18.55 25.85 18.5 25.85 18.3 25.95 17.15 26.4 Q13.05 27.9 9.75 27.9 L10.0 22.25 Q15.55 21.95 19.05 19.95 M29.85 11.55 Q30.85 -1.95 28.45 -14.7 L28.25 -15.9 28.75 -15.25 29.45 -13.4 Q30.45 -9.85 30.45 -2.55 L30.45 -1.2 30.45 -0.85 30.45 -0.5 Q30.4 7.15 29.85 11.55 M-23.35 -53.05 Q-22.1 -47.85 -22.0 -43.65 L-22.0 -43.1 Q-22.0 -39.85 -22.4 -36.05 L-23.05 -31.05 -23.8 -26.85 -25.15 -26.25 Q-27.6 -25.35 -30.15 -25.55 L-30.15 -26.65 -30.05 -26.85 -29.65 -27.65 Q-28.0 -31.1 -26.65 -36.05 -25.7 -39.5 -24.9 -43.65 -24.05 -47.95 -23.35 -53.05 M-10.75 -13.95 L-8.85 -13.5 -6.25 -13.0 -0.5 -13.0 -1.0 -8.65 -7.1 -8.9 Q-9.5 -6.5 -9.5 4.7 -9.5 7.2 -8.75 10.8 -7.9 14.95 -6.75 16.15 -5.25 17.7 -1.6 19.35 L-1.15 26.25 Q-5.75 24.6 -9.15 21.4 L-11.05 19.35 Q-11.95 2.25 -10.75 -13.95" fill="#093777" fill-rule="evenodd" stroke="none"/>
    <path d="M23.15 -24.65 L25.15 -25.5 23.3 -33.35 24.7 -30.6 25.1 -29.8 28.25 -30.75 26.45 -27.15 28.45 -23.0 25.75 -24.5 25.25 -24.8 23.4 -21.45 23.3 -21.3 23.3 -21.4 23.15 -24.65" fill="#bababa" fill-rule="evenodd" stroke="none"/>
    <path d="M-20.0 -115.4 L-20.6 -99.3 -21.05 -97.25 -21.85 -93.55 Q-23.7 -84.45 -23.7 -81.0 L-23.45 -78.2 Q-23.2 -76.4 -22.5 -74.7 L-22.5 -74.65 -22.45 -74.55 -21.35 -72.25 -19.55 -68.25 Q-15.55 -59.1 -13.15 -43.65 L-12.1 -36.1 -12.1 -36.05 -16.1 -37.35 Q-16.8 -37.9 -16.45 -40.65 L-16.45 -43.65 Q-16.6 -54.0 -18.85 -60.55 -20.1 -64.2 -21.9 -66.4 L-22.75 -67.35 -25.0 -69.0 -26.0 -69.45 -26.9 -69.8 -27.75 -70.2 -28.75 -73.0 -30.15 -78.2 -30.35 -79.9 Q-29.55 -79.55 -28.7 -79.55 -27.55 -79.55 -27.0 -80.65 -26.5 -81.7 -25.9 -85.05 -25.45 -87.45 -25.15 -91.15 L-24.15 -96.1 -23.9 -97.25 -23.45 -99.45 -23.2 -101.05 Q-23.2 -102.05 -23.4 -101.65 L-26.05 -99.45 -27.85 -97.25 -29.35 -95.15 Q-33.1 -89.5 -33.1 -85.7 -33.1 -82.85 -31.9 -81.25 L-32.85 -81.4 -34.35 -81.5 -35.65 -81.55 Q-36.0 -83.35 -36.0 -85.35 L-35.35 -88.5 -34.35 -92.15 -34.25 -92.4 -31.35 -97.25 -30.0 -99.45 -27.8 -102.95 -24.95 -107.55 -24.45 -108.35 -24.25 -108.65 -24.0 -109.0 -21.0 -113.8 -20.0 -115.4 M4.65 -119.2 L5.4 -119.4 Q6.55 -117.75 7.3 -115.65 L7.7 -114.45 4.65 -119.2 M6.95 -119.6 Q9.2 -119.7 11.3 -118.2 L13.95 -115.65 15.0 -114.2 18.05 -106.8 19.15 -103.65 19.2 -103.5 19.25 -103.3 19.75 -101.5 20.25 -99.45 20.55 -97.8 20.65 -97.25 20.75 -96.85 22.15 -87.15 22.15 -86.9 22.2 -86.65 17.3 -84.6 17.1 -85.55 16.5 -87.75 15.4 -91.1 15.2 -91.75 15.1 -92.0 11.75 -90.7 Q12.45 -92.1 12.2 -95.1 L12.0 -96.85 11.95 -97.25 11.6 -99.4 11.6 -99.45 12.05 -100.5 12.5 -102.4 Q12.5 -103.2 11.1 -106.8 L9.8 -110.05 Q9.8 -112.95 8.9 -115.65 8.2 -117.7 6.95 -119.6 M10.45 -97.4 L10.5 -97.25 10.55 -96.85 10.85 -93.5 10.0 -90.05 5.5 -89.1 5.1 -90.15 10.45 -97.4 M24.7 -30.6 L23.95 -35.1 26.0 -36.05 Q28.0 -37.1 29.25 -38.3 L32.1 -25.05 Q31.1 -22.25 23.75 -19.85 15.0 -17.0 2.4 -17.0 -12.75 -17.0 -17.4 -19.2 -18.95 -19.95 -19.5 -21.05 L-20.05 -22.6 -18.1 -36.5 -17.55 -36.05 Q-16.4 -35.1 -14.15 -34.2 L-13.35 -33.9 -14.15 -28.05 -17.15 -28.45 -14.45 -25.7 -15.05 -21.65 -14.45 -21.45 -14.85 -20.05 -13.05 -21.1 -8.8 -20.25 -7.2 -18.75 -7.5 -20.0 1.3 -19.2 3.55 -19.2 3.2 -17.9 5.05 -19.2 10.1 -19.4 Q11.05 -18.8 11.95 -18.25 L11.55 -19.5 Q19.25 -20.0 23.3 -21.4 L23.3 -21.3 23.4 -21.45 Q25.0 -22.05 26.05 -22.75 L25.75 -24.5 28.45 -23.0 26.45 -27.15 28.25 -30.75 25.1 -29.8 24.7 -30.6 M-8.8 -35.35 L-10.6 -35.6 -10.6 -35.85 -10.6 -36.05 Q-10.65 -39.85 -11.15 -43.65 -11.5 -46.65 -12.2 -49.7 -13.1 -53.85 -16.75 -66.55 -10.95 -63.55 -8.95 -63.3 -10.6 -64.8 -14.6 -67.15 -19.0 -70.05 -19.9 -72.6 L-13.4 -70.45 -13.2 -70.4 -12.85 -70.3 -10.05 -69.65 -9.65 -69.6 -8.45 -69.4 -7.6 -66.8 -6.3 -64.8 -7.15 -58.15 -11.85 -57.15 -10.2 -44.8 -10.0 -43.65 -8.6 -37.85 -8.75 -36.05 -8.8 -35.35" fill="#ad0b0b" fill-rule="evenodd" stroke="none"/>
    <path d="M-15.0 -96.45 L-14.7 -96.85 -14.45 -97.25 -13.5 -98.6 -13.45 -98.7 -7.75 -106.8 -3.6 -112.45 -0.75 -115.65 Q2.05 -118.35 4.65 -119.2 L7.7 -114.45 10.45 -97.4 5.1 -90.15 5.5 -89.1 10.0 -90.05 9.8 -88.55 Q9.8 -86.4 10.95 -85.15 L6.75 -84.35 Q3.55 -83.6 2.0 -83.75 L3.95 -89.95 5.6 -95.7 5.9 -96.85 6.0 -97.25 6.0 -97.6 Q6.0 -98.5 5.2 -99.45 L2.75 -101.4 Q-0.95 -103.75 -5.55 -103.75 -6.75 -103.75 -9.95 -99.45 L-11.55 -97.25 -11.85 -96.85 -12.75 -95.55 -12.85 -95.4 -12.95 -95.25 -13.1 -94.95 -16.1 -90.0 Q-17.25 -87.9 -17.85 -86.0 L-18.0 -85.65 -18.3 -84.6 -18.35 -84.5 -18.35 -84.4 -18.55 -83.65 -18.8 -81.65 -18.8 -81.4 -18.8 -81.25 Q-18.8 -79.6 -18.35 -78.2 -17.6 -75.8 -15.55 -74.3 L-11.85 -72.55 -8.8 -71.85 -8.45 -69.4 -9.65 -69.6 -10.05 -69.65 -12.85 -70.3 -13.2 -70.4 -13.4 -70.45 -19.9 -72.6 -19.95 -72.65 -20.85 -74.1 -21.25 -74.95 -21.35 -75.3 -21.95 -77.9 -21.95 -77.95 -22.0 -78.2 -22.1 -80.1 -22.15 -80.95 -21.5 -84.55 -20.45 -88.4 -20.15 -88.85 -19.9 -89.2 -19.75 -89.5 -19.65 -89.6 -19.6 -89.7 -18.65 -91.15 -17.8 -92.35 -15.0 -96.45 M13.1 -83.25 L12.8 -84.1 11.55 -87.05 11.3 -88.3 11.75 -90.7 15.1 -92.0 15.2 -91.75 15.4 -91.1 16.5 -87.75 17.1 -85.55 17.3 -84.6 17.25 -84.6 Q15.2 -83.85 13.1 -83.25 M11.6 -99.4 L11.6 -99.45 9.8 -110.05 11.1 -106.8 Q12.5 -103.2 12.5 -102.4 L12.05 -100.5 11.6 -99.45 11.6 -99.4 M-7.15 -58.15 L-8.45 -47.8 -8.45 -43.65 -8.6 -37.85 -10.0 -43.65 -10.2 -44.8 -11.85 -57.15 -7.15 -58.15 M23.3 -33.35 L23.05 -33.85 23.05 -29.15 20.4 -28.15 20.35 -28.9 20.15 -30.9 19.95 -32.55 19.8 -33.85 23.95 -35.1 24.7 -30.6 23.3 -33.35 M20.45 -27.7 L23.1 -26.0 23.15 -24.65 23.3 -21.4 Q19.25 -20.0 11.55 -19.5 L10.95 -21.1 15.35 -21.95 Q20.55 -23.35 20.55 -25.45 L20.5 -26.85 20.45 -27.65 20.45 -27.7 M25.75 -24.5 L26.05 -22.75 Q25.0 -22.05 23.4 -21.45 L25.25 -24.8 25.75 -24.5 M-14.15 -34.2 L-7.15 -32.6 -7.55 -29.7 -7.65 -28.9 -7.8 -27.65 -7.9 -27.1 -9.45 -27.4 -9.5 -27.4 -11.0 -32.45 -12.55 -27.85 -14.15 -28.05 -13.35 -33.9 -14.15 -34.2 M10.1 -19.4 L5.05 -19.2 7.0 -20.65 7.95 -20.75 10.1 -19.4 M3.55 -19.2 L1.3 -19.2 -7.5 -20.0 -7.75 -21.05 Q-5.05 -20.3 -3.5 -20.3 0.5 -20.3 3.85 -20.45 L3.55 -19.2 M-8.8 -20.25 L-13.05 -21.1 -11.0 -22.3 -8.8 -20.25 M-14.45 -21.45 L-15.05 -21.65 -14.45 -25.7 -13.5 -24.7 -14.45 -21.45 M-31.9 -81.25 Q-33.1 -82.85 -33.1 -85.7 -33.1 -89.5 -29.35 -95.15 L-27.85 -97.25 -26.05 -99.45 -23.4 -101.65 Q-23.2 -102.05 -23.2 -101.05 L-23.45 -99.45 -23.9 -97.25 -24.15 -96.1 -25.15 -91.15 Q-25.45 -87.45 -25.9 -85.05 -26.5 -81.7 -27.0 -80.65 -27.55 -79.55 -28.7 -79.55 -29.55 -79.55 -30.35 -79.9 L-30.35 -79.95 Q-30.35 -80.85 -31.9 -81.25 M-8.2 -24.1 L-8.25 -23.05 -8.5 -23.9 -8.2 -24.1" fill="#d91515" fill-rule="evenodd" stroke="none"/>
    <path d="M5.4 -119.4 L6.95 -119.6 Q8.2 -117.7 8.9 -115.65 9.8 -112.95 9.8 -110.05 L11.6 -99.45 11.6 -99.4 11.95 -97.25 12.0 -96.85 12.2 -95.1 Q12.45 -92.1 11.75 -90.7 L11.3 -88.3 11.55 -87.05 12.8 -84.1 13.1 -83.25 11.9 -82.95 10.95 -85.15 Q9.8 -86.4 9.8 -88.55 L10.0 -90.05 10.85 -93.5 10.55 -96.85 10.5 -97.25 10.45 -97.4 7.7 -114.45 7.3 -115.65 Q6.55 -117.75 5.4 -119.4" fill="#830808" fill-rule="evenodd" stroke="none"/>
    <path d="M10.95 -85.15 L11.9 -82.95 Q7.3 -81.8 2.25 -81.45 L-5.15 -80.9 Q-7.2 -80.6 -7.5 -79.8 L-7.9 -78.2 -8.4 -76.2 -8.9 -73.6 -8.8 -71.85 -11.85 -72.55 -15.55 -74.3 Q-17.6 -75.8 -18.35 -78.2 -18.8 -79.6 -18.8 -81.25 L-18.8 -81.4 -18.8 -81.65 -18.55 -83.65 -18.35 -84.4 -18.35 -84.5 -18.3 -84.6 -18.0 -85.65 -17.85 -86.0 Q-17.25 -87.9 -16.1 -90.0 L-13.1 -94.95 -12.95 -95.25 -12.85 -95.4 -12.75 -95.55 -11.85 -96.85 -11.55 -97.25 -9.95 -99.45 Q-6.75 -103.75 -5.55 -103.75 -0.95 -103.75 2.75 -101.4 L5.2 -99.45 Q6.0 -98.5 6.0 -97.6 L6.0 -97.25 5.9 -96.85 5.6 -95.7 3.95 -89.95 2.0 -83.75 Q3.55 -83.6 6.75 -84.35 L10.95 -85.15 M-5.85 -98.75 Q-7.05 -98.75 -7.75 -98.05 L-8.25 -97.25 -8.45 -96.85 -8.85 -96.0 -11.1 -92.2 -12.95 -89.4 -13.1 -89.05 -13.3 -88.75 -13.45 -88.45 -13.6 -88.2 -13.8 -87.8 -13.9 -87.65 -14.15 -87.2 -14.5 -86.6 -14.55 -86.45 -15.05 -85.6 -15.35 -85.05 -15.9 -84.1 -16.05 -83.85 -16.25 -83.45 -16.3 -83.35 -16.65 -82.5 -16.85 -81.7 Q-16.8 -80.65 -16.25 -80.2 L-16.0 -80.05 -15.35 -79.9 -15.25 -79.9 -12.75 -79.95 -11.6 -80.05 -10.95 -80.15 -10.0 -80.3 -5.15 -81.85 -5.05 -81.9 -4.95 -82.0 -4.85 -82.05 -4.75 -82.1 -4.65 -82.2 -4.5 -82.3 Q1.05 -86.05 1.05 -96.35 L0.8 -96.85 0.2 -97.25 -1.2 -97.85 Q-3.55 -98.75 -5.85 -98.75 M20.4 -28.15 L20.0 -28.0 20.45 -27.7 20.45 -27.65 20.5 -26.85 20.55 -25.45 Q20.55 -23.35 15.35 -21.95 L10.95 -21.1 10.7 -21.8 10.2 -23.2 14.2 -26.6 8.9 -26.55 7.05 -31.4 5.45 -26.4 0.2 -26.0 4.5 -23.0 4.2 -21.8 3.85 -20.45 Q0.5 -20.3 -3.5 -20.3 -5.05 -20.3 -7.75 -21.05 L-7.9 -21.7 -8.25 -23.05 -8.2 -24.1 -4.9 -26.5 -7.9 -27.1 -7.8 -27.65 -7.65 -28.9 -7.55 -29.7 -7.15 -32.6 Q-3.95 -32.25 4.5 -32.45 L18.35 -33.55 19.8 -33.85 19.95 -32.55 20.15 -30.9 20.35 -28.9 20.4 -28.15 M7.95 -20.75 L7.0 -20.65 7.5 -21.05 7.95 -20.75" fill="#ff3535" fill-rule="evenodd" stroke="none"/>
    <path d="M33.4 -27.35 L33.85 -24.7 27.8 -19.4 27.5 -19.25 Q24.3 -17.8 18.3 -16.8 L17.95 -16.75 16.9 -16.6 8.65 -15.75 -0.2 -15.5 Q-4.3 -15.5 -9.65 -16.5 L-10.5 -16.65 -17.05 -18.35 -17.05 -18.4 -18.15 -18.8 -18.5 -18.9 -18.7 -19.0 -20.75 -20.45 Q-21.55 -21.75 -21.55 -23.05 L-21.55 -23.1 -21.2 -25.85 -21.1 -27.5 -20.4 -31.05 -19.6 -36.05 -19.3 -38.15 -18.1 -40.65 Q-17.6 -41.7 -17.5 -43.65 -17.35 -46.8 -18.35 -52.3 -19.65 -59.75 -22.05 -64.6 L-22.55 -65.55 -23.1 -66.45 -22.9 -66.1 -24.15 -67.3 Q-24.65 -67.75 -27.3 -69.2 L-27.75 -70.2 -26.9 -69.8 -26.0 -69.45 -25.0 -69.0 -22.75 -67.35 -21.9 -66.4 Q-20.1 -64.2 -18.85 -60.55 -16.6 -54.0 -16.45 -43.65 L-16.45 -40.65 Q-16.8 -37.9 -16.1 -37.35 L-12.1 -36.05 -12.1 -36.1 -13.15 -43.65 Q-15.55 -59.1 -19.55 -68.25 L-21.35 -72.25 -22.45 -74.55 -22.5 -74.65 -22.5 -74.7 Q-23.2 -76.4 -23.45 -78.2 L-23.7 -81.0 Q-23.7 -84.45 -21.85 -93.55 L-21.05 -97.25 -20.6 -99.3 -19.25 -96.05 -19.75 -93.15 -19.95 -92.15 -17.25 -95.9 -16.6 -96.85 -16.35 -97.25 -14.75 -99.45 -14.4 -99.95 -15.0 -96.45 -17.8 -92.35 -18.65 -91.15 -19.6 -89.7 -19.65 -89.6 -19.75 -89.5 -19.9 -89.2 -20.15 -88.85 -20.45 -88.4 -21.5 -84.55 -22.15 -80.95 -22.1 -80.1 -22.0 -78.2 -21.95 -77.95 -21.95 -77.9 -21.35 -75.3 -21.25 -74.95 -20.85 -74.1 -19.95 -72.65 -19.9 -72.6 Q-19.0 -70.05 -14.6 -67.15 -10.6 -64.8 -8.95 -63.3 -10.95 -63.55 -16.75 -66.55 -13.1 -53.85 -12.2 -49.7 -11.5 -46.65 -11.15 -43.65 -10.65 -39.85 -10.6 -36.05 L-10.6 -35.85 -10.6 -35.6 -8.8 -35.35 -0.9 -34.8 1.15 -34.7 5.85 -34.55 11.25 -35.05 17.6 -35.7 Q18.1 -35.8 17.7 -35.55 L18.1 -35.8 20.1 -36.05 Q22.8 -36.45 24.1 -37.25 25.8 -38.3 26.65 -39.25 27.5 -40.25 27.5 -41.9 L29.6 -41.9 31.05 -40.3 32.95 -29.8 33.4 -27.35 M-37.2 -81.6 L-37.45 -84.85 Q-37.45 -87.65 -36.7 -90.15 -35.95 -92.55 -34.35 -95.5 L-33.35 -97.25 -32.0 -99.45 -30.7 -101.4 -29.65 -102.95 -23.7 -112.05 -21.75 -115.1 -20.0 -115.95 -20.0 -115.4 -21.0 -113.8 -24.0 -109.0 -24.25 -108.65 -24.45 -108.35 -24.95 -107.55 -27.8 -102.95 -30.0 -99.45 -31.35 -97.25 -34.25 -92.4 -34.35 -92.15 -35.35 -88.5 -36.0 -85.35 Q-36.0 -83.35 -35.65 -81.55 L-37.2 -81.6 M15.0 -114.2 Q17.05 -111.3 18.9 -106.8 L21.55 -99.45 22.2 -97.25 22.3 -96.85 22.85 -94.9 24.0 -88.6 24.1 -87.6 23.8 -87.5 22.2 -86.65 22.15 -86.9 22.15 -87.15 20.75 -96.85 20.65 -97.25 20.55 -97.8 20.25 -99.45 19.75 -101.5 19.25 -103.3 19.2 -103.5 19.15 -103.65 18.05 -106.8 15.0 -114.2 M29.25 -38.3 Q26.55 -37.0 23.6 -36.05 18.8 -34.5 13.3 -33.7 L1.4 -32.9 -3.95 -33.35 -7.8 -33.95 Q-13.2 -34.9 -15.95 -36.05 -17.3 -36.6 -18.0 -37.2 L-18.1 -36.5 -20.05 -22.6 -19.5 -21.05 Q-18.95 -19.95 -17.4 -19.2 -12.75 -17.0 2.4 -17.0 15.0 -17.0 23.75 -19.85 31.1 -22.25 32.1 -25.05 L29.25 -38.3" fill="#570303" fill-rule="evenodd" stroke="none"/>
    <path d="M13.1 -83.25 Q15.2 -83.85 17.25 -84.6 L17.3 -84.6 17.3 -84.15 16.95 -82.45 16.15 -80.3 Q16.2 -80.05 17.95 -78.8 L18.75 -78.2 Q19.65 -77.45 19.6 -76.95 L19.5 -62.4 17.1 -57.95 Q17.1 -57.65 18.9 -56.1 L21.15 -53.85 19.4 -51.65 16.35 -51.0 Q16.75 -51.35 16.75 -51.85 L16.1 -53.5 Q16.7 -57.15 14.75 -60.2 13.0 -62.95 12.6 -66.3 12.45 -67.3 12.45 -68.4 L12.5 -68.65 12.7 -69.25 13.05 -69.7 13.35 -70.35 14.55 -76.0 14.45 -77.95 14.4 -78.2 13.95 -80.5 13.1 -83.25 M22.45 -47.75 L23.3 -46.45 23.7 -44.7 23.6 -43.65 Q23.3 -42.15 22.2 -40.8 21.15 -39.55 19.7 -38.9 L18.4 -38.45 18.15 -41.05 18.95 -41.7 19.25 -42.8 19.2 -43.65 18.5 -45.6 22.45 -47.75 M13.3 -78.0 Q13.45 -76.5 12.4 -72.1 L11.5 -68.65 11.15 -67.35 11.65 -63.75 6.15 -59.7 1.0 -56.5 -0.75 -55.5 -1.65 -55.0 -3.35 -54.1 Q-5.9 -52.65 -5.9 -52.05 -5.9 -44.95 -4.95 -44.95 L-2.15 -45.25 -0.75 -45.55 -0.05 -45.75 8.7 -48.1 2.9 -45.5 Q1.6 -44.85 0.65 -43.65 L0.5 -43.45 0.25 -43.45 -0.75 -43.45 Q-3.0 -43.35 -4.15 -42.3 -5.0 -41.5 -5.0 -40.7 -5.0 -39.9 -4.05 -39.3 -3.05 -38.7 -1.5 -38.7 L0.75 -38.7 7.8 -38.9 11.15 -39.15 13.95 -39.55 Q16.15 -40.0 16.85 -40.65 L17.0 -37.95 11.2 -36.65 10.3 -36.55 1.0 -36.25 0.35 -36.25 -8.3 -36.55 -8.6 -37.85 -8.45 -43.65 -8.45 -47.8 -7.15 -58.15 -2.95 -59.45 -0.75 -60.35 Q3.05 -62.05 5.7 -64.45 7.65 -66.25 9.3 -68.65 L11.2 -71.85 Q11.1 -72.2 10.35 -72.4 8.15 -71.25 4.05 -70.1 -0.1 -68.95 -2.0 -68.95 L-6.1 -69.1 -8.45 -69.4 -8.8 -71.85 -6.85 -71.55 -2.0 -71.35 Q3.45 -71.35 8.2 -73.85 11.9 -75.8 13.3 -78.0 M12.5 -59.65 L15.0 -54.75 14.9 -54.3 11.15 -56.4 12.5 -59.65 M20.4 -28.15 L23.05 -29.15 23.05 -33.85 23.3 -33.35 25.15 -25.5 23.15 -24.65 23.1 -26.0 20.45 -27.7 20.0 -28.0 20.4 -28.15 M10.95 -21.1 L11.55 -19.5 11.95 -18.25 Q11.05 -18.8 10.1 -19.4 L7.95 -20.75 7.5 -21.05 7.0 -20.65 5.05 -19.2 3.2 -17.9 3.55 -19.2 3.85 -20.45 4.2 -21.8 10.7 -21.8 10.95 -21.1 M-7.5 -20.0 L-7.2 -18.75 -8.8 -20.25 -11.0 -22.3 -13.05 -21.1 -14.85 -20.05 -14.45 -21.45 -13.5 -24.7 -14.45 -25.7 -17.15 -28.45 -14.15 -28.05 -12.55 -27.85 -11.0 -32.45 -9.5 -27.4 -9.45 -27.4 -10.0 -21.75 -7.9 -21.7 -7.75 -21.05 -7.5 -20.0 M-0.5 -13.0 L6.45 -13.15 8.9 -13.3 9.25 -9.05 4.25 -8.5 -1.0 -8.65 -0.5 -13.0 M18.65 -10.9 L18.45 -14.3 21.1 -14.7 Q23.25 -15.1 24.4 -15.6 26.1 -16.3 27.35 -16.3 27.8 -16.3 28.25 -15.9 L28.45 -14.7 Q30.85 -1.95 29.85 11.55 L29.8 11.75 29.5 13.55 Q28.4 19.4 25.1 22.1 22.75 24.05 18.8 25.75 L19.05 19.95 Q21.2 18.7 22.55 16.8 26.55 11.3 26.55 -3.3 26.55 -12.0 25.0 -12.0 L18.65 -10.9 M-1.6 19.35 L1.1 20.4 Q6.2 22.3 7.8 22.3 L10.0 22.25 9.75 27.9 9.65 27.9 Q3.6 27.9 -1.15 26.25 L-1.6 19.35 M-30.35 -79.9 L-31.05 -80.35 -31.9 -81.25 Q-30.35 -80.85 -30.35 -79.95 L-30.35 -79.9 M-11.05 19.35 Q-16.2 13.0 -16.2 2.75 -16.2 -10.45 -14.1 -13.5 -13.45 -14.45 -12.55 -14.35 L-11.5 -14.05 -10.75 -13.95 Q-11.95 2.25 -11.05 19.35" fill="#dbdbdb" fill-rule="evenodd" stroke="none"/>
    <path d="M4.2 -21.8 L4.5 -23.0 0.2 -26.0 5.45 -26.4 7.05 -31.4 8.9 -26.55 14.2 -26.6 10.2 -23.2 10.7 -21.8 4.2 -21.8 M-9.45 -27.4 L-7.9 -27.1 -4.9 -26.5 -8.2 -24.1 -8.5 -23.9 -8.25 -23.05 -7.9 -21.7 -10.0 -21.75 -9.45 -27.4" fill="#f7f7f7" fill-rule="evenodd" stroke="none"/>
    <path d="M-5.85 -98.75 Q-3.55 -98.75 -1.2 -97.85 L0.2 -97.25 0.8 -96.85 1.05 -96.35 Q1.05 -86.05 -4.5 -82.3 L-4.65 -82.2 -4.75 -82.1 -4.85 -82.05 -4.95 -82.0 -5.05 -81.9 -5.15 -81.85 -10.0 -80.3 -10.95 -80.15 -11.6 -80.05 -12.75 -79.95 -15.25 -79.9 -15.35 -79.9 -16.0 -80.05 -16.25 -80.2 Q-16.8 -80.65 -16.85 -81.7 L-16.65 -82.5 -16.3 -83.35 -16.25 -83.45 -16.05 -83.85 -15.9 -84.1 -15.35 -85.05 -15.05 -85.6 -14.55 -86.45 -14.5 -86.6 -14.15 -87.2 -13.9 -87.65 -13.8 -87.8 -13.6 -88.2 -13.45 -88.45 -13.3 -88.75 -13.1 -89.05 -12.95 -89.4 -11.1 -92.2 -8.85 -96.0 -8.45 -96.85 -8.25 -97.25 -7.75 -98.05 Q-7.05 -98.75 -5.85 -98.75" fill="#f54c4c" fill-rule="evenodd" stroke="none"/>
    <path d="M23.95 -35.1 L19.8 -33.85 18.35 -33.55 4.5 -32.45 Q-3.95 -32.25 -7.15 -32.6 L-14.15 -34.2 Q-16.4 -35.1 -17.55 -36.05 L-18.1 -36.5 -18.0 -37.2 Q-17.3 -36.6 -15.95 -36.05 -13.2 -34.9 -7.8 -33.95 L-3.95 -33.35 1.4 -32.9 13.3 -33.7 Q18.8 -34.5 23.6 -36.05 26.55 -37.0 29.25 -38.3 28.0 -37.1 26.0 -36.05 L23.95 -35.1" fill="#ff6f6f" fill-rule="evenodd" stroke="none"/>
    <path d="M8.65 -15.75 L16.9 -16.6 17.95 -16.75 18.3 -16.8 18.45 -14.7 18.45 -14.3 16.3 -14.05 8.9 -13.3 8.75 -14.7 8.65 -15.75 M27.5 -19.25 L27.8 -19.4 31.85 -21.5 33.65 -14.7 34.9 -9.45 Q36.35 -3.0 36.35 2.55 36.35 16.95 27.8 25.85 29.25 18.7 29.8 11.75 L29.85 11.55 Q30.4 7.15 30.45 -0.5 L30.45 -0.85 30.45 -1.2 30.45 -2.55 Q30.45 -9.85 29.45 -13.4 L28.75 -15.25 28.25 -15.9 27.5 -19.25 M9.75 27.9 Q13.05 27.9 17.15 26.4 L18.3 25.95 18.5 25.85 18.55 25.85 18.8 25.75 18.3 32.65 Q14.0 34.55 9.35 34.8 L9.75 27.9 M-11.05 -140.8 Q-12.35 -139.15 -11.3 -132.35 L-11.15 -131.25 -11.1 -130.3 Q-11.1 -129.1 -11.5 -128.9 L-12.65 -128.8 -12.95 -128.6 -13.4 -128.0 -14.9 -125.05 -15.0 -124.85 -16.5 -121.2 -16.0 -135.7 -11.05 -140.8 M-0.5 -13.0 L-6.25 -13.0 -8.85 -13.5 -10.75 -13.95 -10.7 -14.7 -10.5 -16.65 -9.65 -16.5 Q-4.3 -15.5 -0.2 -15.5 L-0.3 -14.7 -0.5 -13.0 M-18.7 -19.0 L-18.5 -18.9 -18.15 -18.8 -17.05 -18.4 -17.05 -18.35 -17.4 -14.7 Q-19.25 6.3 -17.1 21.55 -20.25 16.9 -21.45 11.5 -23.45 -2.4 -20.25 -14.7 L-19.65 -16.9 -19.35 -19.4 -18.7 -19.0 M-10.4 28.75 L-11.05 19.35 -9.15 21.4 Q-5.75 24.6 -1.15 26.25 L-0.4 33.8 -1.75 33.4 -10.4 28.75" fill="#062959" fill-rule="evenodd" stroke="none"/>
    <path d="M-19.25 -96.05 L-19.2 -96.35 -19.05 -97.25 -18.65 -99.45 -17.95 -102.95 -16.85 -107.8 -15.45 -112.8 -14.45 -115.65 Q-12.65 -120.35 -9.8 -125.05 L-6.85 -128.85 -14.4 -99.95 -14.75 -99.45 -16.35 -97.25 -16.6 -96.85 -17.25 -95.9 -19.95 -92.15 -19.75 -93.15 -19.25 -96.05" fill="#e7a867" fill-rule="evenodd" stroke="none"/>
    <path d="M27.25 28.4 Q23.2 32.45 18.15 34.45 L18.3 32.65 Q22.45 30.8 26.2 27.4 L27.8 25.85 27.25 28.4 M9.2 36.3 L7.65 36.3 Q3.55 36.3 -0.2 35.3 L-0.4 33.8 Q3.5 34.85 7.9 34.85 L9.35 34.8 9.2 36.3 M-9.7 30.95 L-13.05 28.4 Q-15.0 26.75 -16.6 24.9 L-17.1 21.55 Q-15.65 23.75 -13.7 25.75 L-10.4 28.75 -10.25 30.6 -9.7 30.95 M-27.3 -69.2 L-27.75 -69.35 Q-31.4 -70.55 -33.9 -74.0 -35.95 -76.8 -36.75 -79.45 L-37.2 -81.6 -35.65 -81.55 Q-35.0 -78.2 -33.2 -75.35 -31.0 -71.9 -27.75 -70.2 L-27.3 -69.2 M22.2 -86.65 L23.8 -87.5 24.1 -87.6 24.0 -88.6 24.7 -82.1 25.0 -78.2 25.7 -68.65 25.95 -65.7 Q26.9 -54.8 28.7 -43.65 L28.9 -42.5 29.6 -41.9 27.5 -41.9 27.15 -43.65 Q25.65 -51.6 24.0 -68.65 L23.35 -75.35 23.1 -78.2 22.2 -86.65 M-22.9 -66.1 L-23.1 -66.45 -22.55 -65.55 -22.9 -66.1" fill="#666666" fill-rule="evenodd" stroke="none"/>
    <path d="M22.2 -86.65 L23.1 -78.2 23.35 -75.35 24.0 -68.65 Q25.65 -51.6 27.15 -43.65 L27.5 -41.9 Q27.5 -40.25 26.65 -39.25 25.8 -38.3 24.1 -37.25 22.8 -36.45 20.1 -36.05 L18.1 -35.8 18.4 -38.45 19.7 -38.9 Q21.15 -39.55 22.2 -40.8 23.3 -42.15 23.6 -43.65 L23.7 -44.7 23.3 -46.45 22.45 -47.75 Q21.65 -50.05 20.8 -51.05 19.95 -52.1 19.4 -51.65 L21.15 -53.85 18.9 -56.1 Q17.1 -57.65 17.1 -57.95 L19.5 -62.4 19.6 -76.95 Q19.65 -77.45 18.75 -78.2 L17.95 -78.8 Q16.2 -80.05 16.15 -80.3 L16.95 -82.45 17.3 -84.15 17.3 -84.6 22.2 -86.65 M17.0 -37.95 L17.6 -35.7 11.25 -35.05 5.85 -34.55 1.15 -34.7 -0.9 -34.8 -8.8 -35.35 -8.75 -36.05 -8.6 -37.85 -8.3 -36.55 0.35 -36.25 1.0 -36.25 10.3 -36.55 11.2 -36.65 17.0 -37.95 M-8.45 -69.4 L-6.1 -69.1 -2.0 -68.95 Q-0.1 -68.95 4.05 -70.1 8.15 -71.25 10.35 -72.4 11.1 -72.2 11.2 -71.85 L9.3 -68.65 Q7.65 -66.25 5.7 -64.45 3.05 -62.05 -0.75 -60.35 L-2.95 -59.45 -7.15 -58.15 -6.3 -64.8 -7.6 -66.8 -8.45 -69.4 M8.65 -15.75 L8.75 -14.7 8.9 -13.3 6.45 -13.15 -0.5 -13.0 -0.3 -14.7 -0.2 -15.5 8.65 -15.75 M18.45 -14.3 L18.45 -14.7 18.3 -16.8 Q24.3 -17.8 27.5 -19.25 L28.25 -15.9 Q27.8 -16.3 27.35 -16.3 26.1 -16.3 24.4 -15.6 23.25 -15.1 21.1 -14.7 L18.45 -14.3 M18.8 25.75 Q22.75 24.05 25.1 22.1 28.4 19.4 29.5 13.55 L29.8 11.75 Q29.25 18.7 27.8 25.85 L26.2 27.4 Q22.45 30.8 18.3 32.65 L18.8 25.75 M-30.35 -79.9 L-30.15 -78.2 -28.75 -73.0 -27.75 -70.2 Q-31.0 -71.9 -33.2 -75.35 -35.0 -78.2 -35.65 -81.55 L-34.35 -81.5 -32.85 -81.4 -31.9 -81.25 -31.05 -80.35 -30.35 -79.9 M-10.5 -16.65 L-10.7 -14.7 -10.75 -13.95 -11.5 -14.05 -12.55 -14.35 Q-13.45 -14.45 -14.1 -13.5 -16.2 -10.45 -16.2 2.75 -16.2 13.0 -11.05 19.35 L-10.4 28.75 -13.7 25.75 Q-15.65 23.75 -17.1 21.55 -19.25 6.3 -17.4 -14.7 L-17.05 -18.35 -10.5 -16.65 M-0.4 33.8 L-1.15 26.25 Q3.6 27.9 9.65 27.9 L9.75 27.9 9.35 34.8 7.9 34.85 Q3.5 34.85 -0.4 33.8" fill="#bdbdbd" fill-rule="evenodd" stroke="none"/>
    <path d="M10.1 -80.25 L7.25 -80.35 0.25 -78.2 Q-7.55 -75.7 -8.0 -74.95 L-7.0 -74.3 -5.15 -74.3 Q3.15 -75.05 6.7 -76.6 8.15 -77.25 9.0 -78.2 9.85 -79.1 10.1 -80.25 M11.9 -82.95 L12.35 -81.7 13.3 -78.2 13.3 -78.0 Q11.9 -75.8 8.2 -73.85 3.45 -71.35 -2.0 -71.35 L-6.85 -71.55 -8.8 -71.85 -8.9 -73.6 -8.4 -76.2 -7.9 -78.2 -7.5 -79.8 Q-7.2 -80.6 -5.15 -80.9 L2.25 -81.45 Q7.3 -81.8 11.9 -82.95 M11.65 -63.75 L12.5 -59.65 11.15 -56.4 14.9 -54.3 14.4 -51.45 Q14.25 -51.0 13.5 -50.25 L8.7 -48.1 -0.05 -45.75 -0.75 -45.55 -2.15 -45.25 -4.95 -44.95 Q-5.9 -44.95 -5.9 -52.05 -5.9 -52.65 -3.35 -54.1 L-1.65 -55.0 -0.75 -55.5 1.0 -56.5 6.15 -59.7 11.65 -63.75 M0.5 -43.45 L3.8 -41.6 Q4.8 -41.1 5.25 -41.15 6.0 -40.95 10.25 -42.25 L11.15 -42.55 14.35 -43.65 15.05 -43.95 14.75 -44.25 15.9 -44.65 16.85 -40.65 Q16.15 -40.0 13.95 -39.55 L11.15 -39.15 7.8 -38.9 0.75 -38.7 -1.5 -38.7 Q-3.05 -38.7 -4.05 -39.3 -5.0 -39.9 -5.0 -40.7 -5.0 -41.5 -4.15 -42.3 -3.0 -43.35 -0.75 -43.45 L0.25 -43.45 0.5 -43.45 M16.1 -53.5 L16.75 -51.85 Q16.75 -51.35 16.35 -51.0 L15.2 -50.65 16.1 -53.5 M11.35 -50.6 L12.3 -50.95 Q12.85 -51.25 12.85 -52.1 12.85 -53.25 11.5 -53.6 9.6 -54.05 5.1 -52.95 1.2 -52.0 -0.75 -50.75 L-0.8 -50.7 Q-2.7 -49.5 -2.7 -48.0 L-2.6 -47.3 -1.8 -47.4 -0.75 -47.4 -0.3 -47.45 Q2.4 -47.6 4.4 -48.4 L9.5 -50.15 11.35 -50.6 M18.5 -45.6 L19.2 -43.65 19.25 -42.8 18.95 -41.7 18.15 -41.05 17.4 -45.15 18.5 -45.6 M7.75 -46.75 L14.5 -49.35 Q17.2 -50.45 20.05 -50.8 L21.15 -48.5 Q19.3 -46.9 13.95 -44.85 L10.65 -43.65 Q7.4 -42.55 4.9 -42.0 L2.0 -43.5 2.15 -43.65 Q3.9 -45.35 7.75 -46.75 M9.45 -5.9 L9.1 -5.7 Q6.8 -4.2 6.8 -0.65 6.8 1.1 7.65 2.1 L9.95 3.95 10.05 8.35 Q7.7 6.25 4.45 6.25 2.9 6.25 1.6 6.9 -0.65 8.05 -0.65 10.7 -0.65 13.1 0.8 14.7 2.95 17.05 8.0 17.05 L10.1 16.9 10.0 22.25 7.8 22.3 Q6.2 22.3 1.1 20.4 L-1.6 19.35 Q-1.95 11.9 -1.75 4.75 L-1.05 4.9 Q0.5 4.9 1.55 3.35 2.55 1.9 2.55 0.05 2.55 -2.7 -0.05 -2.1 -0.95 -1.9 -1.55 -1.3 L-1.0 -8.65 4.25 -8.5 9.25 -9.05 9.45 -5.9 M18.85 -7.7 L18.65 -10.9 25.0 -12.0 Q26.55 -12.0 26.55 -3.3 26.55 11.3 22.55 16.8 21.2 18.7 19.05 19.95 L19.25 9.95 19.25 9.9 19.6 10.15 Q20.75 10.15 21.55 7.8 22.85 4.1 22.85 -4.4 22.85 -5.7 22.15 -6.8 21.6 -7.75 21.25 -7.75 L18.85 -7.7" fill="#eaeaea" fill-rule="evenodd" stroke="none"/>
    <path d="M10.1 -80.25 Q9.85 -79.1 9.0 -78.2 8.15 -77.25 6.7 -76.6 3.15 -75.05 -5.15 -74.3 L-7.0 -74.3 -8.0 -74.95 Q-7.55 -75.7 0.25 -78.2 L7.25 -80.35 10.1 -80.25 M5.25 -41.15 L14.75 -44.25 15.05 -43.95 14.35 -43.65 11.15 -42.55 10.25 -42.25 Q6.0 -40.95 5.25 -41.15 M11.35 -50.6 L9.5 -50.15 4.4 -48.4 Q2.4 -47.6 -0.3 -47.45 L-0.75 -47.4 -1.8 -47.4 -2.6 -47.3 -2.7 -48.0 Q-2.7 -49.5 -0.8 -50.7 L-0.75 -50.75 Q1.2 -52.0 5.1 -52.95 9.6 -54.05 11.5 -53.6 12.85 -53.25 12.85 -52.1 12.85 -51.25 12.3 -50.95 L11.35 -50.6 M9.95 3.95 L7.65 2.1 Q6.8 1.1 6.8 -0.65 6.8 -4.2 9.1 -5.7 L9.45 -5.9 9.95 3.95 M-1.55 -1.3 Q-0.95 -1.9 -0.05 -2.1 2.55 -2.7 2.55 0.05 2.55 1.9 1.55 3.35 0.5 4.9 -1.05 4.9 L-1.75 4.75 -1.55 -1.3 M10.1 16.9 L8.0 17.05 Q2.95 17.05 0.8 14.7 -0.65 13.1 -0.65 10.7 -0.65 8.05 1.6 6.9 2.9 6.25 4.45 6.25 7.7 6.25 10.05 8.35 L10.1 16.9 M18.85 -7.7 L21.25 -7.75 Q21.6 -7.75 22.15 -6.8 22.85 -5.7 22.85 -4.4 22.85 4.1 21.55 7.8 20.75 10.15 19.6 10.15 L19.25 9.9 Q19.25 1.25 18.85 -7.7" fill="#fafafa" fill-rule="evenodd" stroke="none"/>
    <path d="M11.9 -82.95 L13.1 -83.25 13.95 -80.5 14.4 -78.2 14.45 -77.95 14.55 -76.0 13.35 -70.35 13.05 -69.7 12.7 -69.25 12.5 -68.65 12.45 -68.4 Q12.45 -67.3 12.6 -66.3 13.0 -62.95 14.75 -60.2 16.7 -57.15 16.1 -53.5 L15.2 -50.65 16.35 -51.0 19.4 -51.65 Q19.95 -52.1 20.8 -51.05 21.65 -50.05 22.45 -47.75 L18.5 -45.6 17.4 -45.15 18.15 -41.05 18.4 -38.45 18.1 -35.8 17.7 -35.55 Q18.1 -35.8 17.6 -35.7 L17.0 -37.95 16.85 -40.65 15.9 -44.65 14.75 -44.25 5.25 -41.15 Q4.8 -41.1 3.8 -41.6 L0.5 -43.45 0.65 -43.65 Q1.6 -44.85 2.9 -45.5 L8.7 -48.1 13.5 -50.25 Q14.25 -51.0 14.4 -51.45 L14.9 -54.3 15.0 -54.75 12.5 -59.65 11.65 -63.75 11.15 -67.35 11.5 -68.65 12.4 -72.1 Q13.45 -76.5 13.3 -78.0 L13.3 -78.2 12.35 -81.7 11.9 -82.95 M7.75 -46.75 Q3.9 -45.35 2.15 -43.65 L2.0 -43.5 4.9 -42.0 Q7.4 -42.55 10.65 -43.65 L13.95 -44.85 Q19.3 -46.9 21.15 -48.5 L20.05 -50.8 Q17.2 -50.45 14.5 -49.35 L7.75 -46.75" fill="#989898" fill-rule="evenodd" stroke="none"/>
  </g>
</svg>
