<?xml version="1.0" encoding="UTF-8" standalone="no"?>
<svg xmlns:ffdec="https://www.free-decompiler.com/flash" xmlns:xlink="http://www.w3.org/1999/xlink" ffdec:objectType="shape" height="71.9px" width="63.8px" xmlns="http://www.w3.org/2000/svg">
  <g transform="matrix(1.0, 0.0, 0.0, 1.0, 31.9, 35.95)">
    <path d="M-10.75 0.45 L-10.45 0.5 -7.1 0.85 -0.8 -24.1 0.2 -27.1 0.25 -27.15 Q1.45 -30.2 3.65 -32.55 L3.7 -32.55 Q8.35 -37.6 14.5 -35.15 L14.55 -35.15 Q19.0 -33.45 19.4 -28.85 19.6 -26.9 20.4 -25.0 L20.35 -25.0 Q23.2 -18.4 28.8 -13.75 L28.85 -13.7 Q30.75 -12.05 31.5 -9.35 L31.5 -9.3 Q33.1 -3.1 28.5 1.2 23.6 5.75 17.65 3.15 L13.85 1.2 13.55 2.3 Q11.3 11.2 9.45 20.25 L9.45 20.3 8.5 23.25 8.45 23.3 Q4.45 32.75 -5.85 35.25 L-5.8 35.2 Q-14.1 37.35 -21.85 33.45 L-21.8 33.45 Q-30.3 29.25 -31.7 20.2 L-31.7 20.15 Q-32.6 14.3 -29.1 9.6 L-29.1 9.55 Q-22.3 0.4 -10.75 0.45 M-29.0 18.55 Q-28.8 24.95 -23.15 29.15 -18.1 32.9 -12.35 32.9 L-6.55 32.3 Q-2.3 31.2 1.3 28.4 L1.35 28.35 Q5.45 24.6 5.9 22.2 L5.9 22.25 6.5 19.6 6.5 19.45 Q6.55 18.05 11.9 -3.55 L14.35 -2.0 Q17.4 -0.2 18.1 0.1 20.95 1.15 22.15 1.15 L25.55 -0.2 25.75 -0.3 Q28.85 -2.5 29.05 -6.7 L29.05 -7.3 Q29.15 -8.9 26.85 -11.45 L26.8 -11.5 22.55 -15.85 Q16.55 -22.25 16.5 -28.6 16.55 -30.55 14.45 -31.9 L14.5 -31.9 Q12.5 -33.3 10.2 -32.95 L10.15 -32.95 Q8.4 -32.7 6.85 -31.35 L4.35 -28.65 4.25 -28.5 Q2.85 -26.1 1.95 -23.45 L1.95 -23.4 -4.85 4.1 Q-6.9 3.45 -10.8 3.45 -18.5 3.45 -23.75 7.7 -29.0 11.95 -29.0 18.05 L-29.0 18.55" fill="#ffffff" fill-rule="evenodd" stroke="none"/>
    <path d="M-29.0 18.55 Q-28.8 12.8 -23.75 8.7 -18.5 4.45 -10.8 4.45 -6.9 4.45 -4.85 5.1 L1.95 -22.4 1.95 -22.45 Q2.85 -25.1 4.25 -27.5 L4.35 -27.65 6.85 -30.35 Q8.4 -31.7 10.15 -31.95 L10.2 -31.95 Q12.5 -32.3 14.5 -30.9 L14.45 -30.9 Q16.55 -29.55 16.5 -27.6 16.55 -21.25 22.55 -14.85 L26.8 -10.5 26.85 -10.45 Q28.85 -8.2 29.05 -6.7 28.85 -2.5 25.75 -0.3 L25.55 -0.2 22.15 1.15 Q20.95 1.15 18.1 0.1 17.4 -0.2 14.35 -2.0 L11.9 -3.55 Q6.55 18.05 6.5 19.45 L6.5 19.6 5.9 22.25 5.9 22.2 Q5.45 24.6 1.35 28.35 L1.3 28.4 Q-2.3 31.2 -6.55 32.3 L-12.35 32.9 Q-18.1 32.9 -23.15 29.15 -28.8 24.95 -29.0 18.55" fill="#e5e5e5" fill-rule="evenodd" stroke="none"/>
    <path d="M29.05 -6.7 Q28.85 -8.2 26.85 -10.45 L26.8 -10.5 22.55 -14.85 Q16.55 -21.25 16.5 -27.6 16.55 -29.55 14.45 -30.9 L14.5 -30.9 Q12.5 -32.3 10.2 -31.95 L10.15 -31.95 Q8.4 -31.7 6.85 -30.35 L4.35 -27.65 4.25 -27.5 Q2.85 -25.1 1.95 -22.45 L1.95 -22.4 -4.85 5.1 Q-6.9 4.45 -10.8 4.45 -18.5 4.45 -23.75 8.7 -28.8 12.8 -29.0 18.55 L-29.0 18.05 Q-29.0 11.95 -23.75 7.7 -18.5 3.45 -10.8 3.45 -6.9 3.45 -4.85 4.1 L1.95 -23.4 1.95 -23.45 Q2.85 -26.1 4.25 -28.5 L4.35 -28.65 6.85 -31.35 Q8.4 -32.7 10.15 -32.95 L10.2 -32.95 Q12.5 -33.3 14.5 -31.9 L14.45 -31.9 Q16.55 -30.55 16.5 -28.6 16.55 -22.25 22.55 -15.85 L26.8 -11.5 26.85 -11.45 Q29.15 -8.9 29.05 -7.3 L29.05 -6.7" fill="#b1b1b1" fill-rule="evenodd" stroke="none"/>
  </g>
</svg>
