<?xml version="1.0" encoding="UTF-8" standalone="no"?>
<svg xmlns:ffdec="https://www.free-decompiler.com/flash" xmlns:xlink="http://www.w3.org/1999/xlink" ffdec:objectType="shape" height="34.6px" width="38.65px" xmlns="http://www.w3.org/2000/svg">
  <g transform="matrix(1.0, 0.0, 0.0, 1.0, 29.45, 109.45)">
    <path d="M-3.1 -102.65 L3.9 -103.05 3.75 -101.45 Q3.2 -99.9 2.15 -98.45 L0.0 -99.15 1.6 -100.4 2.85 -101.85 3.0 -102.15 2.35 -102.35 -3.2 -101.85 -3.1 -102.65 M-10.5 -99.75 L-10.9 -99.6 -10.7 -100.9 Q-10.35 -102.15 -8.3 -102.05 L-8.1 -101.25 Q-8.9 -101.4 -9.6 -100.95 -10.3 -100.55 -10.5 -99.75 M-20.15 -105.45 L-18.5 -107.75 -17.9 -106.65 -18.5 -106.4 Q-19.15 -106.55 -19.8 -105.85 L-20.15 -105.45 M-16.0 -104.0 L-14.85 -102.55 -15.65 -101.7 Q-15.5 -102.35 -15.65 -102.85 -15.9 -103.4 -16.3 -103.45 L-16.0 -104.0 M-18.95 -87.55 L-18.85 -88.0 -17.8 -87.45 -15.85 -86.8 -14.8 -86.9 -14.45 -87.15 -14.1 -86.05 Q-12.75 -84.1 -8.5 -81.0 L-8.2 -81.25 -7.8 -82.25 Q-7.2 -84.4 -8.75 -85.45 L-9.45 -86.15 -8.1 -85.75 Q-6.35 -85.4 -4.9 -86.5 -3.7 -87.5 -3.5 -88.8 L-3.2 -90.85 -4.25 -91.15 Q-5.7 -91.4 -6.5 -90.7 -7.2 -90.1 -8.25 -87.9 L-9.05 -87.25 -8.65 -88.05 -7.75 -90.75 -10.6 -91.75 -1.75 -92.2 -2.05 -85.3 Q-3.15 -83.3 -4.25 -83.45 -4.9 -83.6 -5.35 -83.9 L-8.6 -85.8 -6.55 -82.95 Q-4.95 -80.45 -4.8 -79.8 L-7.15 -77.95 Q-8.75 -79.8 -17.95 -86.75 L-18.95 -87.55 M-12.95 -91.9 L-14.95 -89.85 -14.75 -91.25 -18.5 -92.0 Q-18.2 -90.3 -18.5 -90.05 L-19.1 -91.7 -19.75 -93.4 -16.45 -92.55 -15.65 -92.35 -12.95 -91.9" fill="#c6bfc0" fill-rule="evenodd" stroke="none"/>
    <path d="M-3.2 -101.85 L2.35 -102.35 3.0 -102.15 2.85 -101.85 1.6 -100.4 0.0 -99.15 -4.65 -100.15 Q-3.75 -100.75 -3.2 -101.85 M-7.3 -100.25 L-10.5 -99.75 Q-10.3 -100.55 -9.6 -100.95 -8.9 -101.4 -8.1 -101.25 L-7.25 -100.35 -7.3 -100.25 M-15.65 -101.7 L-16.65 -100.6 -19.25 -102.35 Q-20.4 -103.25 -20.8 -104.05 L-20.8 -104.1 -20.2 -105.4 -20.15 -105.45 -19.8 -105.85 Q-19.15 -106.55 -18.5 -106.4 -19.15 -105.95 -19.35 -104.95 -19.75 -103.7 -18.85 -103.0 L-17.95 -102.65 Q-17.7 -102.6 -17.2 -102.9 L-16.3 -103.45 Q-15.9 -103.4 -15.65 -102.85 -15.5 -102.35 -15.65 -101.7 M-10.6 -91.75 L-7.75 -90.75 -8.65 -88.05 -9.05 -87.25 -8.25 -87.9 Q-7.2 -90.1 -6.5 -90.7 -5.7 -91.4 -4.25 -91.15 L-3.2 -90.85 -3.5 -88.8 Q-3.7 -87.5 -4.9 -86.5 -6.35 -85.4 -8.1 -85.75 L-9.45 -86.15 -8.75 -85.45 Q-7.2 -84.4 -7.8 -82.25 L-8.2 -81.25 -8.5 -81.0 Q-12.75 -84.1 -14.1 -86.05 L-14.45 -87.15 -14.8 -86.9 -15.85 -86.8 -17.8 -87.45 -18.85 -88.0 -18.95 -87.55 -19.25 -87.7 Q-18.35 -88.55 -17.45 -88.7 L-17.1 -88.7 -12.6 -87.6 -11.1 -87.1 Q-12.25 -88.15 -14.4 -88.8 L-17.2 -89.7 -18.5 -90.05 Q-18.2 -90.3 -18.5 -92.0 L-14.75 -91.25 -14.95 -89.85 -12.95 -91.9 -10.6 -91.75" fill="#e5e1e1" fill-rule="evenodd" stroke="none"/>
    <path d="M-3.1 -102.65 L-3.2 -101.85 Q-3.75 -100.75 -4.65 -100.15 L-7.15 -100.25 -7.25 -100.35 -8.1 -101.25 -8.3 -102.05 -3.1 -102.65 M4.6 -90.2 Q4.95 -89.6 4.45 -89.7 3.55 -89.85 3.1 -91.05 2.55 -92.7 -0.35 -94.45 L-2.85 -95.5 -5.45 -96.2 -8.75 -96.8 -6.95 -97.8 -1.0 -97.45 Q1.6 -96.95 4.35 -95.75 7.85 -94.25 7.45 -92.85 L7.3 -90.5 7.3 -88.85 Q5.8 -90.45 4.75 -90.65 4.3 -90.7 4.6 -90.2 M-17.9 -106.65 L-16.0 -104.0 -16.3 -103.45 -17.2 -102.9 Q-17.7 -102.6 -17.95 -102.65 L-18.85 -103.0 Q-19.75 -103.7 -19.35 -104.95 -19.15 -105.95 -18.5 -106.4 L-17.9 -106.65 M-19.3 -99.55 L-18.35 -98.95 -22.25 -98.55 -23.7 -98.2 -22.25 -101.25 -19.3 -99.55 M-18.5 -90.05 L-17.2 -89.7 -14.4 -88.8 Q-12.25 -88.15 -11.1 -87.1 L-12.6 -87.6 -17.1 -88.7 -17.45 -88.7 Q-18.35 -88.55 -19.25 -87.7 L-23.9 -89.45 -23.2 -89.6 Q-22.45 -89.95 -21.7 -91.6 -21.45 -92.45 -21.8 -94.1 L-19.75 -93.4 -19.1 -91.7 -18.5 -90.05 M-4.8 -79.8 Q-4.95 -80.45 -6.55 -82.95 L-8.6 -85.8 -5.35 -83.9 Q-4.9 -83.6 -4.25 -83.45 -3.15 -83.3 -2.05 -85.3 L-3.15 -82.55 -4.8 -79.8" fill="#161616" fill-rule="evenodd" stroke="none"/>
    <path d="M0.0 -99.15 L2.15 -98.45 Q3.2 -99.9 3.75 -101.45 L3.9 -103.05 -3.1 -102.65 -8.3 -102.05 Q-10.35 -102.15 -10.7 -100.9 L-10.9 -99.6 -10.5 -99.75 -7.3 -100.25 -7.15 -100.25 -4.65 -100.15 0.0 -99.15 M9.2 -102.0 L7.1 -102.65 Q5.2 -103.0 4.75 -102.15 4.15 -100.05 3.0 -98.05 L5.7 -95.95 6.95 -94.6 Q4.8 -95.9 3.55 -97.2 2.1 -98.05 -3.65 -99.15 L-9.15 -99.4 -14.9 -97.6 -13.35 -98.6 Q-11.7 -99.8 -11.7 -100.65 L-11.15 -101.0 Q-10.8 -101.35 -11.5 -101.5 -11.4 -101.45 -9.4 -102.4 -6.55 -103.3 -2.2 -103.6 L3.75 -104.05 7.95 -102.85 9.2 -102.0 M-20.15 -105.45 L-20.2 -105.4 -20.8 -104.1 -20.8 -104.05 Q-20.4 -103.25 -19.25 -102.35 L-16.65 -100.6 -15.65 -101.7 -14.85 -102.55 -16.0 -104.0 -17.9 -106.65 -18.5 -107.75 -20.15 -105.45 M-18.35 -109.45 Q-14.75 -103.5 -13.9 -102.85 L-15.3 -101.4 Q-16.25 -100.3 -16.45 -99.45 L-21.75 -102.35 -19.3 -107.35 -19.1 -107.65 -18.65 -108.75 -18.35 -109.45 M-10.6 -91.75 L-12.95 -91.9 -15.65 -92.35 -16.45 -92.55 -19.75 -93.4 -21.8 -94.1 Q-21.45 -92.45 -21.7 -91.6 -22.45 -89.95 -23.2 -89.6 L-23.9 -89.45 -19.25 -87.7 -18.95 -87.55 -17.95 -86.75 Q-8.75 -79.8 -7.15 -77.95 L-4.8 -79.8 -3.15 -82.55 -2.05 -85.3 -1.75 -92.2 -10.6 -91.75 M-12.2 -92.55 L-12.0 -92.55 Q-8.35 -92.1 -4.75 -92.45 L0.15 -93.2 Q-1.2 -90.9 -1.0 -89.1 -0.9 -86.3 -1.7 -83.35 -2.05 -81.85 -3.4 -80.05 -4.95 -78.0 -6.6 -77.3 L-5.1 -74.85 Q-5.6 -75.35 -6.9 -76.05 -12.75 -83.15 -18.15 -86.05 L-18.15 -86.1 Q-20.9 -87.75 -25.75 -88.7 L-25.05 -88.8 -24.5 -89.0 -27.6 -89.5 -27.2 -90.15 Q-23.0 -89.5 -22.4 -91.75 -22.25 -92.35 -22.65 -93.7 L-22.95 -95.05 -22.95 -95.6 Q-20.05 -94.2 -16.3 -93.3 L-14.5 -92.95 -12.2 -92.55 M-29.45 -84.9 L-27.75 -84.15 -20.65 -81.15 Q-23.75 -82.4 -29.45 -83.95 L-29.45 -84.9" fill="#3c1f4b" fill-rule="evenodd" stroke="none"/>
    <path d="M-12.0 -92.55 L-12.2 -92.55 -12.1 -92.6 -12.0 -92.55" fill="#ffffff" fill-rule="evenodd" stroke="none"/>
  </g>
</svg>
