<?xml version="1.0" encoding="UTF-8" standalone="no"?>
<svg xmlns:ffdec="https://www.free-decompiler.com/flash" xmlns:xlink="http://www.w3.org/1999/xlink" ffdec:objectType="shape" height="50.3px" width="57.3px" xmlns="http://www.w3.org/2000/svg">
  <g transform="matrix(1.0, 0.0, 0.0, 1.0, 33.5, 3.45)">
    <path d="M7.1 -1.95 Q11.05 -0.9 13.9 5.05 16.75 11.0 13.3 23.8 13.45 23.5 15.0 22.8 16.75 22.0 17.95 22.0 21.15 22.0 22.75 23.45 23.8 24.4 23.8 25.35 23.8 31.7 20.8 34.65 19.25 36.15 17.65 36.35 16.4 36.35 14.5 35.45 10.9 43.8 7.15 43.8 6.05 43.8 4.6 42.8 3.2 41.8 2.45 41.8 1.9 41.8 0.15 43.1 L-2.8 45.15 Q-5.95 46.85 -6.9 46.85 -8.9 46.85 -9.95 45.95 -10.4 45.5 -12.7 40.9 -15.0 36.3 -15.25 33.85 -15.5 31.35 -12.65 17.9 -12.65 15.2 -15.0 13.55 -16.95 12.2 -19.2 12.2 L-21.7 14.15 Q-24.6 16.05 -26.85 16.05 -30.2 16.05 -31.95 14.15 -33.5 12.5 -33.5 9.7 -33.5 6.95 -27.85 2.95 -22.6 -0.8 -20.3 -0.8 L-15.4 0.1 -11.25 0.95 -6.9 -1.75 Q-2.35 -4.2 1.4 -3.15 L-3.4 -1.55 Q-8.15 0.4 -10.45 2.75 -19.95 0.8 -21.0 0.8 L-24.5 2.65 Q-27.9 4.45 -28.55 4.9 -30.0 5.85 -31.1 7.2 -32.35 8.75 -32.35 9.95 -32.35 11.7 -30.95 13.05 -29.3 14.65 -26.4 14.65 -24.1 14.65 -22.5 13.0 -21.5 11.9 -19.35 8.2 -18.8 8.35 -18.6 8.65 -18.25 9.1 -19.15 10.55 -15.3 10.75 -13.05 12.45 -10.45 14.4 -10.45 17.9 L-11.55 24.0 Q-12.8 30.55 -13.7 33.25 L-11.35 40.0 Q-9.45 45.1 -8.65 45.1 -6.7 45.1 -2.6 43.15 1.7 41.05 1.7 39.65 L0.85 37.7 -0.35 35.75 -1.8 35.1 -3.15 34.85 -4.3 35.75 -6.2 37.65 -8.45 40.0 Q-8.35 39.3 -7.45 37.55 -6.45 35.55 -5.45 34.45 L-8.25 32.35 -5.85 32.4 -1.2 23.05 Q-1.2 24.0 -3.95 31.0 -4.25 33.45 -2.85 33.95 0.6 35.15 1.05 35.5 L2.35 37.85 3.35 40.3 6.35 42.45 Q9.0 41.0 13.3 34.15 13.3 33.15 12.9 32.65 12.2 31.85 9.6 30.4 6.7 30.1 5.8 32.2 5.2 33.55 4.4 37.9 4.3 36.1 4.35 33.65 L4.45 31.6 1.0 31.1 3.2 30.0 3.0 22.95 4.0 22.7 6.9 29.25 Q12.05 28.15 15.15 33.2 15.15 34.2 17.75 34.95 19.35 33.2 21.0 29.45 22.4 26.2 22.4 25.55 22.4 23.45 18.2 23.05 15.75 23.45 15.35 24.6 15.05 25.4 14.85 31.05 14.1 29.0 13.7 25.15 L10.35 25.45 Q13.6 18.05 13.35 11.3 13.0 4.5 7.1 -1.95 M4.6 7.35 L4.6 6.1 Q5.6 8.9 3.65 12.4 1.9 15.6 0.05 15.95 L-0.8 16.15 Q0.5 14.9 2.35 12.05 4.35 8.9 4.6 7.35 M5.0 30.15 L5.85 29.75 4.4 27.2 5.0 30.15" fill="#a46637" fill-rule="evenodd" stroke="none"/>
    <path d="M1.4 -3.15 Q4.6 -2.8 7.1 -1.95 13.0 4.5 13.35 11.3 13.6 18.05 10.35 25.45 L13.7 25.15 Q14.1 29.0 14.85 31.05 L17.0 32.7 Q17.9 31.15 19.65 28.9 L21.1 26.8 20.0 25.0 19.2 24.05 18.2 23.05 Q22.4 23.45 22.4 25.55 22.4 26.2 21.0 29.45 19.35 33.2 17.75 34.95 15.15 34.2 15.15 33.2 12.05 28.15 6.9 29.25 L4.0 22.7 3.0 22.95 3.2 30.0 1.0 31.1 4.45 31.6 4.35 33.65 Q4.3 36.1 4.4 37.9 L6.15 39.95 Q8.2 37.9 10.65 36.45 11.6 35.85 11.6 34.25 L11.45 33.2 11.2 32.7 10.4 31.35 9.6 30.4 Q12.2 31.85 12.9 32.65 13.3 33.15 13.3 34.15 9.0 41.0 6.35 42.45 L3.35 40.3 2.35 37.85 1.05 35.5 Q0.6 35.15 -2.85 33.95 -4.25 33.45 -3.95 31.0 -1.2 24.0 -1.2 23.05 L-5.85 32.4 -8.25 32.35 -5.45 34.45 Q-6.45 35.55 -7.45 37.55 -8.35 39.3 -8.45 40.0 L-7.9 42.65 -1.65 41.2 Q0.05 40.6 0.05 38.2 0.05 37.1 -0.35 35.75 L0.85 37.7 1.7 39.65 Q1.7 41.05 -2.6 43.15 -6.7 45.1 -8.65 45.1 -9.45 45.1 -11.35 40.0 L-13.7 33.25 Q-12.8 30.55 -11.55 24.0 L-10.45 17.9 Q-10.45 14.4 -13.05 12.45 -15.3 10.75 -19.15 10.55 -18.25 9.1 -18.6 8.65 -18.8 8.35 -19.35 8.2 -21.5 11.9 -22.5 13.0 -24.1 14.65 -26.4 14.65 -29.3 14.65 -30.95 13.05 -32.35 11.7 -32.35 9.95 -32.35 8.75 -31.1 7.2 -30.0 5.85 -28.55 4.9 -27.9 4.45 -24.5 2.65 L-21.0 0.8 Q-19.95 0.8 -10.45 2.75 -8.15 0.4 -3.4 -1.55 L1.4 -3.15 M7.5 8.75 L9.2 8.05 Q8.85 3.85 8.2 2.6 7.55 1.25 4.5 -1.0 4.55 0.75 5.55 3.9 6.5 6.85 7.5 8.75 M4.6 7.35 Q4.35 8.9 2.35 12.05 0.5 14.9 -0.8 16.15 L0.05 15.95 Q1.9 15.6 3.65 12.4 5.6 8.9 4.6 6.1 L4.6 7.35 M7.1 18.1 Q8.45 16.6 8.3 15.4 L-0.45 18.2 0.55 19.2 Q1.5 20.05 2.15 20.05 5.35 20.05 7.1 18.1 M3.45 5.2 Q3.45 2.95 1.85 1.2 0.35 -0.4 -1.25 -0.4 -3.95 -0.4 -5.85 1.9 -8.5 5.05 -8.5 11.8 -8.5 13.25 -7.75 14.65 -6.75 16.5 -5.1 16.5 -1.3 16.5 1.2 12.65 3.45 9.25 3.45 5.2 M-3.1 23.65 Q-5.65 20.3 -8.25 20.25 -9.5 20.3 -10.15 23.45 L-11.3 29.9 Q-9.1 30.95 -8.1 30.95 L-6.3 30.6 -5.1 29.5 Q-4.8 29.2 -3.9 26.15 L-3.1 23.65 M-11.65 7.8 L-11.45 6.5 Q-11.45 4.95 -13.8 3.8 -15.8 2.85 -18.85 2.45 -17.8 6.05 -16.95 7.15 -15.45 9.2 -12.1 9.25 L-11.65 7.8 M-19.65 4.7 Q-19.65 3.75 -20.15 3.35 -20.45 3.15 -21.45 2.9 -22.5 2.65 -26.75 4.85 -31.05 7.1 -31.05 8.05 -31.05 9.8 -29.95 10.9 -28.75 12.1 -26.65 12.1 -24.0 12.1 -22.15 10.65 -19.65 8.7 -19.65 4.7 M-10.55 38.45 L-8.0 34.55 -11.45 33.35 Q-13.3 33.3 -10.55 38.45" fill="#e7a867" fill-rule="evenodd" stroke="none"/>
    <path d="M-0.35 35.75 Q0.05 37.1 0.05 38.2 0.05 40.6 -1.65 41.2 L-7.9 42.65 -8.45 40.0 -6.2 37.65 -5.9 40.05 -3.25 40.4 Q-1.7 40.4 -0.8 39.5 -0.1 38.8 -0.1 37.95 -0.1 35.8 -3.2 35.65 L-4.3 35.75 -3.15 34.85 -1.8 35.1 -0.35 35.75 M9.6 30.4 L10.4 31.35 Q9.7 31.0 8.4 31.0 6.8 31.0 6.0 32.45 5.4 33.55 5.4 34.85 5.4 36.1 6.25 36.5 L7.7 36.7 Q9.35 36.7 10.8 33.85 L11.2 32.7 11.45 33.2 11.6 34.25 Q11.6 35.85 10.65 36.45 8.2 37.9 6.15 39.95 L4.4 37.9 Q5.2 33.55 5.8 32.2 6.7 30.1 9.6 30.4 M18.2 23.05 L19.2 24.05 Q18.7 23.75 18.0 23.75 16.7 23.75 15.95 24.55 15.25 25.3 15.25 26.55 15.25 27.9 15.7 28.65 16.1 29.4 16.8 29.4 18.3 29.4 19.2 28.45 20.15 27.5 20.15 25.85 L20.0 25.0 21.1 26.8 19.65 28.9 Q17.9 31.15 17.0 32.7 L14.85 31.05 Q15.05 25.4 15.35 24.6 15.75 23.45 18.2 23.05 M7.5 8.75 Q6.5 6.85 5.55 3.9 4.55 0.75 4.5 -1.0 7.55 1.25 8.2 2.6 8.85 3.85 9.2 8.05 L7.5 8.75 M3.45 5.2 Q3.45 9.25 1.2 12.65 -1.3 16.5 -5.1 16.5 -6.75 16.5 -7.75 14.65 -8.5 13.25 -8.5 11.8 -8.5 5.05 -5.85 1.9 -3.95 -0.4 -1.25 -0.4 0.35 -0.4 1.85 1.2 3.45 2.95 3.45 5.2 M7.1 18.1 Q5.35 20.05 2.15 20.05 1.5 20.05 0.55 19.2 L-0.45 18.2 8.3 15.4 Q8.45 16.6 7.1 18.1 M-7.25 9.8 Q-7.25 11.3 -6.15 12.1 -5.25 12.75 -3.85 12.75 -2.0 12.75 -0.45 11.2 1.4 9.35 1.4 6.25 1.4 -0.45 -2.9 3.15 -4.5 4.5 -5.9 6.6 -7.25 8.7 -7.25 9.8 M-19.65 4.7 Q-19.65 8.7 -22.15 10.65 -24.0 12.1 -26.65 12.1 -28.75 12.1 -29.95 10.9 -31.05 9.8 -31.05 8.05 -31.05 7.1 -26.75 4.85 -22.5 2.65 -21.45 2.9 -20.45 3.15 -20.15 3.35 -19.65 3.75 -19.65 4.7 M-11.65 7.8 L-12.1 9.25 Q-15.45 9.2 -16.95 7.15 -17.8 6.05 -18.85 2.45 -15.8 2.85 -13.8 3.8 -11.45 4.95 -11.45 6.5 L-11.65 7.8 M-3.1 23.65 L-3.9 26.15 Q-4.8 29.2 -5.1 29.5 L-6.3 30.6 -8.1 30.95 Q-9.1 30.95 -11.3 29.9 L-10.15 23.45 Q-9.5 20.3 -8.25 20.25 -5.65 20.3 -3.1 23.65 M-27.05 10.1 L-25.35 10.45 Q-23.8 10.45 -22.55 9.5 -21.3 8.55 -21.3 7.25 -21.3 6.35 -23.5 6.0 L-26.0 5.95 Q-26.55 6.1 -27.85 7.3 L-29.4 8.8 Q-28.8 9.6 -27.05 10.1 M-6.5 23.2 L-7.35 23.0 Q-9.5 25.15 -9.4 28.7 L-8.15 27.8 Q-6.95 26.6 -6.7 25.8 -6.45 25.1 -6.5 23.2 M-10.55 38.45 Q-13.3 33.3 -11.45 33.35 L-8.0 34.55 -10.55 38.45" fill="#f4bb83" fill-rule="evenodd" stroke="none"/>
    <path d="M10.4 31.35 L11.2 32.7 10.8 33.85 Q9.35 36.7 7.7 36.7 L6.25 36.5 Q5.4 36.1 5.4 34.85 5.4 33.55 6.0 32.45 6.8 31.0 8.4 31.0 9.7 31.0 10.4 31.35 M19.2 24.05 L20.0 25.0 20.15 25.85 Q20.15 27.5 19.2 28.45 18.3 29.4 16.8 29.4 16.1 29.4 15.7 28.65 15.25 27.9 15.25 26.55 15.25 25.3 15.95 24.55 16.7 23.75 18.0 23.75 18.7 23.75 19.2 24.05 M-7.25 9.8 Q-7.25 8.7 -5.9 6.6 -4.5 4.5 -2.9 3.15 1.4 -0.45 1.4 6.25 1.4 9.35 -0.45 11.2 -2.0 12.75 -3.85 12.75 -5.25 12.75 -6.15 12.1 -7.25 11.3 -7.25 9.8 M-6.5 23.2 Q-6.45 25.1 -6.7 25.8 -6.95 26.6 -8.15 27.8 L-9.4 28.7 Q-9.5 25.15 -7.35 23.0 L-6.5 23.2 M-27.05 10.1 Q-28.8 9.6 -29.4 8.8 L-27.85 7.3 Q-26.55 6.1 -26.0 5.95 L-23.5 6.0 Q-21.3 6.35 -21.3 7.25 -21.3 8.55 -22.55 9.5 -23.8 10.45 -25.35 10.45 L-27.05 10.1 M-4.3 35.75 L-3.2 35.65 Q-0.1 35.8 -0.1 37.95 -0.1 38.8 -0.8 39.5 -1.7 40.4 -3.25 40.4 L-5.9 40.05 -6.2 37.65 -4.3 35.75" fill="#f5c89d" fill-rule="evenodd" stroke="none"/>
  </g>
</svg>
