<?xml version="1.0" encoding="UTF-8" standalone="no"?>
<svg xmlns:ffdec="https://www.free-decompiler.com/flash" xmlns:xlink="http://www.w3.org/1999/xlink" ffdec:objectType="shape" height="58.5px" width="45.25px" xmlns="http://www.w3.org/2000/svg">
  <g transform="matrix(1.0, 0.0, 0.0, 1.0, 20.8, 27.8)">
    <path d="M-6.4 21.65 L-6.7 18.0 Q-7.1 13.6 -5.15 8.6 L-4.8 7.8 Q-4.5 10.45 -3.0 11.8 L-3.7 13.65 -5.35 18.05 -6.4 21.65" fill="#9f4c0d" fill-rule="evenodd" stroke="none"/>
    <path d="M-1.3 1.2 L-1.15 3.3 Q-0.3 3.85 1.05 4.2 L0.95 4.2 1.0 6.2 1.35 7.3 2.4 9.0 2.0 9.8 1.3 11.3 -1.25 11.2 Q-3.1 10.2 -3.35 7.4 -3.45 5.9 -3.1 4.4 L-1.3 1.2 M0.85 1.0 L0.75 0.05 0.55 -3.6 0.5 -4.65 Q-0.05 -11.65 -0.9 -19.4 L-1.45 -24.35 -1.45 -24.4 -1.55 -24.8 -1.6 -25.1 10.9 -25.65 12.4 -5.15 11.4 -3.25 Q10.25 -4.15 9.3 -4.5 L7.95 -4.8 7.05 -4.7 Q3.35 -4.15 1.5 -0.4 L0.85 1.0" fill="#724931" fill-rule="evenodd" stroke="none"/>
    <path d="M1.3 11.3 L0.9 12.15 0.3 13.0 Q-0.9 13.05 -1.9 12.55 L-3.0 11.8 Q-4.5 10.45 -4.8 7.8 L-3.15 4.45 -3.1 4.4 Q-3.45 5.9 -3.35 7.4 -3.1 10.2 -1.25 11.2 L1.3 11.3" fill="#713507" fill-rule="evenodd" stroke="none"/>
    <path d="M-2.25 -8.85 L-3.05 -14.95 -4.4 -24.25 -4.5 -24.8 -4.7 -26.0 -4.9 -26.4 Q-5.05 -26.8 -4.05 -27.1 L11.95 -27.7 Q13.55 -27.8 13.65 -26.65 L14.2 -13.05 14.0 -11.15 14.25 -8.9 13.8 -7.75 12.9 -6.15 12.4 -5.15 10.9 -25.65 -1.6 -25.1 -1.55 -24.8 -1.45 -24.4 -1.45 -24.35 -0.9 -19.4 Q-0.05 -11.65 0.5 -4.65 L0.55 -3.6 0.75 0.05 0.85 1.0 1.05 4.2 Q-0.3 3.85 -1.15 3.3 L-1.3 1.2 -1.45 -0.45 -1.6 -2.25 -2.1 -7.85 -2.25 -8.85" fill="#4b3121" fill-rule="evenodd" stroke="none"/>
    <path d="M1.05 4.2 L0.85 1.0 1.5 -0.4 Q3.35 -4.15 7.05 -4.7 L7.95 -4.8 9.3 -4.5 Q10.25 -4.15 11.4 -3.25 L10.45 -1.7 9.2 0.3 6.5 3.35 5.8 4.0 5.15 4.7 Q3.5 6.45 2.65 8.4 L2.5 8.7 2.4 9.0 1.35 7.3 1.0 6.2 0.95 4.2 1.05 4.2" fill="#83563a" fill-rule="evenodd" stroke="none"/>
    <path d="M14.2 -13.05 L14.25 -13.5 Q16.95 -13.25 20.1 -11.3 L20.15 -11.3 Q21.65 -10.0 23.2 -6.85 24.75 -3.65 24.4 0.45 24.1 4.45 21.3 7.05 L20.8 7.85 20.05 6.4 Q19.1 4.9 17.95 4.05 12.25 7.05 7.45 11.3 2.05 15.95 -1.75 21.6 -4.65 25.85 -6.65 30.7 -8.25 20.7 -10.05 16.25 L-12.25 11.95 Q-12.3 13.15 -14.85 14.75 -17.15 16.2 -18.7 16.35 L-20.8 16.15 Q-19.5 15.05 -17.85 11.4 -16.25 8.0 -16.15 6.65 L-16.2 6.65 Q-16.6 5.55 -16.5 4.55 L-15.3 2.35 -13.05 -1.05 -7.8 -5.75 Q-5.15 -7.95 -2.25 -8.85 L-2.1 -7.85 Q-6.15 -6.55 -10.1 -2.15 -14.35 2.55 -14.1 4.45 L-13.6 7.2 -11.9 10.55 -11.85 10.6 -11.15 11.55 -9.15 15.9 -8.9 13.55 Q-8.45 9.65 -6.7 6.5 L-4.4 3.25 -1.45 -0.45 -1.3 1.2 -3.1 4.4 -3.15 4.45 -4.8 7.8 -5.15 8.6 Q-7.1 13.6 -6.7 18.0 L-6.4 21.65 -6.15 25.8 Q-5.65 23.3 -2.9 18.15 L-1.75 16.15 0.3 13.0 0.9 12.15 1.3 11.3 2.0 9.8 2.4 9.0 2.5 8.7 2.65 8.4 Q3.5 6.45 5.15 4.7 L5.8 4.0 6.5 3.35 9.2 0.3 10.45 -1.7 11.4 -3.25 12.4 -5.15 12.9 -6.15 13.8 -7.75 14.25 -8.9 14.45 -7.0 12.55 -3.1 12.25 -2.55 11.15 -0.8 8.15 3.25 7.1 4.55 5.1 6.75 7.1 5.9 9.35 4.2 9.7 3.85 Q10.75 2.75 12.0 2.0 L12.85 1.6 Q13.55 1.3 14.2 1.35 L14.55 1.4 16.7 2.1 Q18.15 2.7 18.6 3.3 L18.75 3.45 20.9 5.85 22.95 -0.45 Q23.45 -4.6 21.7 -7.75 19.4 -11.7 14.3 -11.15 L14.0 -11.15 14.2 -13.05 M-15.85 11.35 L-17.75 14.8 Q-16.1 14.85 -14.3 13.2 -11.6 10.8 -15.2 8.15 -14.75 9.1 -15.85 11.35 M12.75 4.1 Q11.0 5.2 8.25 7.65 L6.95 8.9 4.65 11.15 Q1.4 14.5 -1.75 18.6 L-2.7 19.85 -1.75 18.75 2.15 14.3 Q5.25 10.9 7.3 10.55 L12.75 4.1" fill="#17192c" fill-rule="evenodd" stroke="none"/>
    <path d="M14.45 -7.0 L15.15 -7.15 Q16.6 -7.75 17.5 -7.75 20.45 -7.75 21.15 -6.75 22.0 -5.5 21.5 -1.25 21.15 1.7 18.75 3.45 L18.6 3.3 Q18.15 2.7 16.7 2.1 L14.55 1.4 14.2 1.35 Q13.55 1.3 12.85 1.6 L12.0 2.0 Q10.75 2.75 9.7 3.85 L9.35 4.2 7.1 5.9 5.1 6.75 7.1 4.55 8.15 3.25 11.15 -0.8 12.25 -2.55 12.55 -3.1 14.45 -7.0 M16.6 -6.25 L15.4 -6.0 14.6 -4.05 14.4 -3.65 13.15 -0.65 Q13.05 0.15 14.4 0.15 L14.55 0.15 Q16.45 0.15 16.8 -0.5 L17.0 -1.75 17.6 -4.15 17.7 -5.35 Q17.6 -6.25 16.6 -6.25" fill="#3e415f" fill-rule="evenodd" stroke="none"/>
    <path d="M14.25 -8.9 L14.0 -11.15 14.3 -11.15 Q19.4 -11.7 21.7 -7.75 23.45 -4.6 22.95 -0.45 L20.9 5.85 18.75 3.45 Q21.15 1.7 21.5 -1.25 22.0 -5.5 21.15 -6.75 20.45 -7.75 17.5 -7.75 16.6 -7.75 15.15 -7.15 L14.45 -7.0 14.25 -8.9 M-7.65 -1.65 L-9.25 0.45 Q-10.8 2.4 -11.0 3.75 -11.25 5.1 -10.65 6.6 -10.05 8.1 -9.6 12.5 L-12.1 7.6 -12.8 5.7 -12.7 4.25 Q-12.35 1.0 -9.9 -1.25 -7.4 -3.5 -7.65 -1.65" fill="#33354e" fill-rule="evenodd" stroke="none"/>
    <path d="M0.3 13.0 L-1.75 16.15 -2.9 18.15 Q-5.65 23.3 -6.15 25.8 L-6.4 21.65 -5.35 18.05 -3.7 13.65 -3.0 11.8 -1.9 12.55 Q-0.9 13.05 0.3 13.0" fill="#b65912" fill-rule="evenodd" stroke="none"/>
    <path d="M-2.1 -7.85 L-1.6 -2.25 -1.45 -0.45 -4.4 3.25 -6.7 6.5 Q-8.45 9.65 -8.9 13.55 L-9.15 15.9 -11.15 11.55 -11.85 10.6 -11.9 10.55 -13.6 7.2 -14.1 4.45 Q-14.35 2.55 -10.1 -2.15 -6.15 -6.55 -2.1 -7.85 M-7.65 -1.65 Q-7.4 -3.5 -9.9 -1.25 -12.35 1.0 -12.7 4.25 L-12.8 5.7 -12.1 7.6 -9.6 12.5 Q-10.05 8.1 -10.65 6.6 -11.25 5.1 -11.0 3.75 -10.8 2.4 -9.25 0.45 L-7.65 -1.65 M12.75 4.1 L7.3 10.55 Q5.25 10.9 2.15 14.3 L-1.75 18.75 -2.7 19.85 -1.75 18.6 Q1.4 14.5 4.65 11.15 L6.95 8.9 8.25 7.65 Q11.0 5.2 12.75 4.1 M-15.85 11.35 Q-14.75 9.1 -15.2 8.15 -11.6 10.8 -14.3 13.2 -16.1 14.85 -17.75 14.8 L-15.85 11.35" fill="#282a3e" fill-rule="evenodd" stroke="none"/>
    <path d="M16.6 -6.25 Q17.6 -6.25 17.7 -5.35 L17.6 -4.15 17.0 -1.75 16.8 -0.5 Q16.45 0.15 14.55 0.15 L14.4 0.15 Q13.05 0.15 13.15 -0.65 L14.4 -3.65 14.6 -4.05 15.4 -6.0 16.6 -6.25" fill="#474a6b" fill-rule="evenodd" stroke="none"/>
  </g>
</svg>
