<?xml version="1.0" encoding="UTF-8" standalone="no"?>
<svg xmlns:ffdec="https://www.free-decompiler.com/flash" xmlns:xlink="http://www.w3.org/1999/xlink" ffdec:objectType="shape" height="83.05px" width="83.05px" xmlns="http://www.w3.org/2000/svg">
  <g transform="matrix(1.0, 0.0, 0.0, 1.0, 25.0, 65.0)">
    <path d="M-21.85 -33.3 L-20.65 -37.3 -20.3 -38.15 Q-19.0 -41.45 -16.35 -45.35 -13.95 -48.95 -11.8 -51.05 -8.55 -54.6 -0.95 -58.35 L1.3 -59.4 Q9.45 -63.0 16.55 -63.0 26.25 -63.0 33.9 -59.4 41.6 -55.75 47.2 -48.45 56.05 -36.9 56.05 -23.45 56.05 -17.55 54.45 -12.1 51.85 -15.2 45.4 -18.55 39.6 -21.55 32.3 -23.85 L32.5 -24.9 32.55 -26.6 30.45 -27.85 Q22.25 -32.65 11.75 -35.5 1.35 -38.3 -7.75 -38.3 -11.35 -38.3 -14.45 -37.15 -17.15 -36.15 -21.85 -33.3 M45.5 -6.1 Q49.05 -5.35 50.95 -4.0 L50.25 -2.85 Q48.35 0.2 45.9 3.05 34.65 16.05 17.55 16.05 L13.85 15.85 Q24.0 15.9 33.25 9.45 39.9 4.8 44.25 -2.05 L44.75 -3.4 45.15 -4.55 36.75 -5.4 35.6 -5.35 35.3 -5.3 35.6 -6.95 36.75 -7.0 45.5 -6.1 M-8.9 -2.2 L-9.9 -2.15 -16.6 -1.75 -17.5 -3.2 -9.9 -3.75 -8.9 -2.2" fill="#f1b67a" fill-rule="evenodd" stroke="none"/>
    <path d="M-21.85 -33.3 Q-17.15 -36.15 -14.45 -37.15 -11.35 -38.3 -7.75 -38.3 1.35 -38.3 11.75 -35.5 22.25 -32.65 30.45 -27.85 L32.55 -26.6 32.5 -24.9 32.3 -23.85 Q25.15 -26.15 16.55 -27.75 -0.75 -30.95 -13.75 -29.45 -19.45 -28.8 -22.8 -27.35 L-21.85 -33.3 M29.95 -22.9 L29.25 -23.05 28.75 -23.25 29.95 -22.9 M35.6 -6.95 L35.3 -5.3 35.6 -5.35 36.75 -5.4 45.15 -4.55 44.75 -3.4 44.25 -2.05 Q39.9 4.8 33.25 9.45 24.0 15.9 13.85 15.85 L7.75 14.9 Q3.6 14.0 1.45 13.2 L-1.55 11.8 Q-6.9 9.0 -11.45 4.45 -14.4 1.5 -16.6 -1.75 L-9.9 -2.15 -8.9 -2.2 -5.25 2.5 Q3.6 12.4 11.6 12.4 19.2 12.4 26.55 7.2 33.7 2.15 35.3 -5.3 L25.55 -4.1 Q22.25 -2.8 17.35 -1.95 8.35 -0.65 -1.05 -2.3 L-3.35 -6.0 -4.9 -6.1 Q-6.4 -3.7 -8.3 -2.2 L-8.9 -2.2 -9.9 -3.75 -8.3 -3.8 Q-6.4 -5.3 -4.9 -7.7 L-3.35 -7.6 -1.05 -3.9 Q8.35 -2.25 17.35 -3.55 22.25 -4.4 25.55 -5.7 30.2 -6.7 35.6 -6.95" fill="#ffce9d" fill-rule="evenodd" stroke="none"/>
    <path d="M-8.9 -2.2 L-8.3 -2.2 Q-6.4 -3.7 -4.9 -6.1 L-3.35 -6.0 -1.05 -2.3 Q8.35 -0.65 17.35 -1.95 22.25 -2.8 25.55 -4.1 L35.3 -5.3 Q33.7 2.15 26.55 7.2 19.2 12.4 11.6 12.4 3.6 12.4 -5.25 2.5 L-8.9 -2.2" fill="#ffdfbf" fill-rule="evenodd" stroke="none"/>
    <path d="M54.45 -12.1 Q56.05 -17.55 56.05 -23.45 56.05 -36.9 47.2 -48.45 41.6 -55.75 33.9 -59.4 26.25 -63.0 16.55 -63.0 9.45 -63.0 1.3 -59.4 L-0.95 -58.35 Q-8.55 -54.6 -11.8 -51.05 -13.95 -48.95 -16.35 -45.35 -19.0 -41.45 -20.3 -38.15 L-20.65 -37.3 -21.85 -33.3 -22.8 -27.35 -24.9 -26.3 Q-24.15 -39.05 -16.35 -48.85 L-16.4 -48.85 -13.25 -52.45 -12.95 -52.7 -12.85 -52.85 -11.25 -54.35 -11.1 -54.45 Q-7.95 -57.3 -4.45 -59.4 4.9 -65.0 16.55 -65.0 28.2 -65.0 37.55 -59.4 41.95 -56.75 45.85 -52.85 58.05 -40.65 58.05 -23.45 58.05 -16.15 55.85 -9.7 L54.45 -12.1 M50.95 -4.0 L52.45 -2.5 51.9 -1.6 Q49.4 2.35 45.85 5.85 33.7 18.05 16.55 18.05 L11.8 17.8 11.7 17.8 Q7.6 17.35 3.8 16.15 0.5 15.1 -2.5 13.55 -8.1 10.6 -12.85 5.85 -16.25 2.45 -18.65 -1.3 L-19.45 -2.55 -17.5 -3.2 -16.6 -1.75 Q-14.4 1.5 -11.45 4.45 -6.9 9.0 -1.55 11.8 L1.45 13.2 Q3.6 14.0 7.75 14.9 L13.85 15.85 17.55 16.05 Q34.65 16.05 45.9 3.05 48.35 0.2 50.25 -2.85 L50.95 -4.0" fill="#aa6a40" fill-rule="evenodd" stroke="none"/>
    <path d="M26.5 -22.95 Q26.25 -22.0 26.7 -20.6 27.15 -18.85 29.0 -17.3 L28.95 -17.3 Q30.75 -15.8 32.8 -15.8 L34.25 -15.9 Q35.75 -13.15 35.75 -9.75 L35.7 -8.25 25.65 -7.0 Q22.3 -5.7 17.35 -4.85 8.3 -3.55 -0.7 -5.35 L-2.95 -9.05 -5.1 -9.0 Q-6.6 -6.6 -8.55 -5.1 L-10.65 -5.05 Q-14.8 -12.45 -14.8 -20.4 -14.8 -23.15 -13.4 -25.6 -12.4 -27.35 -11.0 -28.1 0.95 -29.0 16.3 -26.15 L21.0 -25.2 23.5 -24.3 26.5 -22.95" fill="#25349f" fill-rule="evenodd" stroke="none"/>
    <path d="M26.5 -22.95 L23.5 -24.3 21.0 -25.2 26.85 -23.75 26.7 -23.55 26.5 -22.95 M-11.0 -28.1 Q-12.4 -27.35 -13.4 -25.6 -14.8 -23.15 -14.8 -20.4 -14.8 -12.45 -10.65 -5.05 L-18.25 -4.4 Q-21.95 -11.05 -22.75 -18.85 L-23.0 -23.65 -22.95 -25.65 Q-19.6 -27.15 -13.75 -27.85 L-11.0 -28.1 M35.7 -8.25 L35.75 -9.75 Q35.75 -13.15 34.25 -15.9 36.7 -16.4 38.45 -18.5 L39.25 -19.6 41.0 -18.85 41.1 -17.3 41.15 -15.35 Q41.15 -15.05 41.4 -14.85 L41.9 -14.65 44.1 -15.0 Q45.95 -11.25 45.7 -7.45 L36.95 -8.3 35.7 -8.25" fill="#202d87" fill-rule="evenodd" stroke="none"/>
    <path d="M34.25 -15.9 L32.8 -15.8 Q30.75 -15.8 28.95 -17.3 L29.0 -17.3 Q27.15 -18.85 26.7 -20.6 26.25 -22.0 26.5 -22.95 L26.7 -23.55 26.85 -23.75 28.75 -23.25 29.25 -23.05 29.95 -22.9 39.25 -19.6 38.45 -18.5 Q36.7 -16.4 34.25 -15.9 M41.0 -18.85 L44.9 -16.95 Q51.35 -13.6 53.9 -10.45 L51.55 -5.1 Q49.6 -6.65 45.7 -7.45 45.95 -11.25 44.1 -15.0 L41.9 -14.65 41.4 -14.85 Q41.15 -15.05 41.15 -15.35 L41.1 -17.3 41.0 -18.85" fill="#1b2570" fill-rule="evenodd" stroke="none"/>
    <path d="M32.3 -23.85 Q39.6 -21.55 45.4 -18.55 51.85 -15.2 54.45 -12.1 L55.85 -9.7 55.25 -8.15 Q54.3 -5.75 53.0 -3.45 L52.45 -2.5 50.95 -4.0 Q49.05 -5.35 45.5 -6.1 L45.7 -7.45 Q49.6 -6.65 51.55 -5.1 L53.9 -10.45 Q51.35 -13.6 44.9 -16.95 L41.0 -18.85 40.6 -20.05 39.85 -20.8 39.25 -19.6 29.95 -22.9 31.5 -22.75 Q32.05 -22.85 32.3 -23.85 M-24.9 -26.3 L-22.8 -27.35 -22.95 -25.65 -23.0 -23.65 -22.75 -18.85 Q-21.95 -11.05 -18.25 -4.4 L-17.5 -3.2 -19.45 -2.55 -19.9 -3.3 -20.05 -3.55 Q-25.0 -12.5 -25.0 -23.45 L-24.95 -24.55 -24.9 -26.3" fill="#101431" fill-rule="evenodd" stroke="none"/>
    <path d="M21.0 -25.2 L16.3 -26.15 Q0.95 -29.0 -11.0 -28.1 L-13.75 -27.85 Q-19.6 -27.15 -22.95 -25.65 L-22.8 -27.35 Q-19.45 -28.8 -13.75 -29.45 -0.75 -30.95 16.55 -27.75 25.15 -26.15 32.3 -23.85 32.05 -22.85 31.5 -22.75 L29.95 -22.9 28.75 -23.25 26.85 -23.75 21.0 -25.2 M-10.65 -5.05 L-8.55 -5.1 Q-6.6 -6.6 -5.1 -9.0 L-2.95 -9.05 -0.7 -5.35 Q8.3 -3.55 17.35 -4.85 22.3 -5.7 25.65 -7.0 L35.7 -8.25 36.95 -8.3 45.7 -7.45 45.5 -6.1 36.75 -7.0 35.6 -6.95 Q30.2 -6.7 25.55 -5.7 22.25 -4.4 17.35 -3.55 8.35 -2.25 -1.05 -3.9 L-3.35 -7.6 -4.9 -7.7 Q-6.4 -5.3 -8.3 -3.8 L-9.9 -3.75 -17.5 -3.2 -18.25 -4.4 -10.65 -5.05 M39.25 -19.6 L39.85 -20.8 40.6 -20.05 41.0 -18.85 39.25 -19.6" fill="#171f5b" fill-rule="evenodd" stroke="none"/>
  </g>
</svg>
