<?xml version="1.0" encoding="UTF-8" standalone="no"?>
<svg xmlns:ffdec="https://www.free-decompiler.com/flash" xmlns:xlink="http://www.w3.org/1999/xlink" ffdec:objectType="shape" height="72.25px" width="52.05px" xmlns="http://www.w3.org/2000/svg">
  <g transform="matrix(1.0, 0.0, 0.0, 1.0, 23.3, 135.85)">
    <path d="M0.25 -121.3 Q1.75 -121.05 2.85 -119.0 L3.65 -117.1 Q4.1 -115.45 4.1 -113.4 4.1 -110.1 2.85 -107.75 L2.6 -107.3 2.0 -106.5 -0.05 -105.45 -0.2 -105.45 -0.85 -105.5 -1.2 -105.65 Q-2.25 -106.05 -3.05 -107.4 L-3.25 -107.75 Q-4.5 -110.1 -4.5 -113.4 -4.5 -115.5 -4.0 -117.2 L-3.3 -118.85 -3.25 -119.0 -2.45 -120.15 0.25 -121.3 M-7.6 -88.0 L-7.5 -88.45 -7.35 -89.15 -6.5 -91.65 -6.05 -92.75 Q-4.85 -95.3 -3.1 -96.95 L-2.15 -97.7 -1.45 -98.2 4.4 -99.75 4.5 -99.75 Q5.15 -99.75 5.35 -99.35 L5.5 -98.7 5.2 -97.7 4.85 -96.95 2.95 -92.75 0.75 -87.95 0.6 -87.7 -7.6 -88.0 M11.6 -73.35 L4.7 -73.1 8.25 -75.25 12.4 -75.5 12.4 -75.1 Q12.4 -74.4 11.6 -73.35 M-4.35 -73.35 L-8.45 -73.65 -8.6 -75.7 -1.95 -75.25 Q-3.2 -74.05 -4.35 -73.35 M4.5 -83.8 L1.25 -78.95 -8.5 -79.5 -8.4 -81.65 -8.2 -84.2 4.5 -83.8 M2.15 -65.7 L-0.95 -63.7 -7.3 -64.1 -5.25 -66.05 2.15 -65.7" fill="#ffffff" fill-rule="evenodd" stroke="none"/>
    <path d="M-4.1 -121.55 L-2.45 -121.65 -2.0 -121.75 Q-0.4 -122.2 1.05 -123.25 2.0 -123.95 2.85 -124.9 4.65 -123.75 6.2 -121.45 L6.3 -121.3 6.4 -121.1 7.1 -120.0 7.15 -119.9 7.35 -119.5 7.45 -119.35 7.5 -119.2 7.6 -119.05 7.65 -118.95 7.7 -118.85 8.0 -118.15 8.3 -117.45 8.55 -116.7 Q8.55 -114.2 7.55 -110.05 L6.9 -107.45 5.6 -103.6 5.75 -103.1 6.6 -102.9 8.45 -103.65 10.0 -104.5 10.1 -102.75 Q10.1 -102.1 8.8 -98.55 L8.55 -97.9 8.2 -96.95 7.4 -94.75 7.55 -94.35 Q7.7 -93.85 8.0 -93.5 L12.25 -96.75 Q12.7 -94.75 12.6 -92.75 12.45 -90.55 11.65 -88.35 L11.45 -87.95 Q6.15 -87.65 0.6 -87.7 L0.75 -87.95 2.95 -92.75 4.85 -96.95 5.2 -97.7 5.5 -98.7 5.35 -99.35 Q5.15 -99.75 4.5 -99.75 L4.4 -99.75 -1.45 -98.2 -2.15 -97.7 -3.1 -96.95 Q-4.85 -95.3 -6.05 -92.75 L-6.5 -91.65 -7.35 -89.15 -7.5 -88.45 -7.6 -88.0 -10.0 -88.15 -9.95 -88.75 -9.75 -91.65 -9.75 -91.85 -9.7 -92.75 -9.35 -96.95 -9.0 -98.35 Q-8.4 -100.6 -7.1 -101.2 L-4.55 -101.6 -1.65 -102.0 Q-1.4 -101.7 -1.4 -102.7 L-4.35 -103.65 Q-7.35 -104.35 -7.35 -105.1 L-7.2 -107.75 Q-6.85 -111.95 -5.4 -117.3 L-5.2 -118.05 -4.1 -121.55 M0.25 -121.3 L-2.45 -120.15 -3.25 -119.0 -3.3 -118.85 -4.0 -117.2 Q-4.5 -115.5 -4.5 -113.4 -4.5 -110.1 -3.25 -107.75 L-3.05 -107.4 Q-2.25 -106.05 -1.2 -105.65 L-0.85 -105.5 -0.2 -105.45 -0.05 -105.45 2.0 -106.5 2.6 -107.3 2.85 -107.75 Q4.1 -110.1 4.1 -113.4 4.1 -115.45 3.65 -117.1 L2.85 -119.0 Q1.75 -121.05 0.25 -121.3 M15.0 -73.65 L11.6 -73.35 Q12.4 -74.4 12.4 -75.1 L12.4 -75.5 15.35 -75.75 15.0 -73.65 M4.7 -73.1 L-4.35 -73.35 Q-3.2 -74.05 -1.95 -75.25 3.2 -75.05 8.25 -75.25 L4.7 -73.1 M-8.45 -73.65 L-11.15 -73.95 -11.6 -76.0 -8.6 -75.7 -8.45 -73.65 M9.15 -83.9 L9.0 -83.75 8.15 -82.65 8.0 -82.45 4.9 -78.95 1.25 -78.95 4.5 -83.8 9.15 -83.9 M7.75 -79.05 Q9.55 -80.5 10.35 -80.5 L10.5 -80.5 10.65 -80.45 10.7 -80.45 10.8 -80.45 10.95 -80.4 12.9 -79.3 7.75 -79.05 M8.5 -65.75 L8.25 -65.6 Q8.65 -65.4 8.55 -64.8 L12.6 -64.35 15.55 -65.3 19.75 -66.75 19.45 -64.65 -0.95 -63.7 2.15 -65.7 8.5 -65.75 M-11.2 -79.75 L-10.9 -81.65 -10.7 -82.9 -10.5 -84.4 -8.2 -84.2 -8.4 -81.65 -8.5 -79.5 -11.2 -79.75 M-8.05 -66.3 L-5.25 -66.05 -7.3 -64.1 -10.2 -64.4 -8.05 -66.3" fill="#e0e0e0" fill-rule="evenodd" stroke="none"/>
    <path d="M2.85 -124.9 L2.95 -124.95 3.05 -125.1 4.25 -126.6 4.75 -127.45 5.7 -129.55 Q6.5 -128.6 7.3 -126.85 8.7 -123.6 10.05 -117.7 L11.75 -108.9 11.9 -107.95 13.4 -98.5 13.6 -96.95 14.2 -92.75 14.7 -88.75 14.8 -88.15 11.45 -87.95 11.65 -88.35 Q12.45 -90.55 12.6 -92.75 12.7 -94.75 12.25 -96.75 L8.0 -93.5 Q7.7 -93.85 7.55 -94.35 L7.4 -94.75 8.2 -96.95 8.55 -97.9 8.8 -98.55 Q10.1 -102.1 10.1 -102.75 L10.0 -104.5 8.45 -103.65 6.6 -102.9 5.75 -103.1 5.6 -103.6 6.9 -107.45 7.55 -110.05 Q8.55 -114.2 8.55 -116.7 L8.3 -117.45 8.0 -118.15 7.7 -118.85 7.65 -118.95 7.6 -119.05 7.5 -119.2 7.45 -119.35 7.35 -119.5 7.15 -119.9 7.1 -120.0 6.4 -121.1 6.3 -121.3 6.2 -121.45 Q4.65 -123.75 2.85 -124.9 M-5.8 -122.4 L-5.5 -122.15 Q-4.95 -121.65 -4.1 -121.55 L-5.2 -118.05 -5.4 -117.3 Q-6.85 -111.95 -7.2 -107.75 L-7.35 -105.1 Q-7.35 -104.35 -4.35 -103.65 L-1.4 -102.7 Q-1.4 -101.7 -1.65 -102.0 L-4.55 -101.6 -7.1 -101.2 Q-8.4 -100.6 -9.0 -98.35 L-9.35 -96.95 -9.7 -92.75 -9.75 -91.85 -9.75 -91.65 -9.95 -88.75 -10.0 -88.15 -13.45 -88.45 -13.3 -89.4 -13.0 -91.65 -12.85 -92.75 -12.2 -96.95 -11.9 -98.9 -11.3 -103.0 -10.5 -107.0 -10.25 -108.25 Q-9.1 -113.55 -7.7 -117.6 L-5.8 -122.4 M18.8 -84.7 L20.65 -80.9 20.7 -80.85 20.8 -80.25 12.9 -79.3 10.95 -80.4 10.8 -80.45 10.7 -80.45 10.65 -80.45 10.5 -80.5 10.35 -80.5 Q9.55 -80.5 7.75 -79.05 L4.9 -78.95 8.0 -82.45 8.15 -82.65 9.0 -83.75 9.15 -83.9 18.8 -84.7 M20.9 -76.5 L20.75 -74.45 15.0 -73.65 15.35 -75.75 20.9 -76.5 M-11.15 -73.95 L-15.6 -74.5 -15.25 -76.5 -11.6 -76.0 -11.15 -73.95 M19.75 -66.75 L15.55 -65.3 12.6 -64.35 8.55 -64.8 Q8.65 -65.4 8.25 -65.6 L8.5 -65.75 19.75 -66.75 23.5 -67.35 24.0 -65.4 19.45 -64.65 19.75 -66.75 M-10.5 -84.4 L-10.7 -82.9 -10.9 -81.65 -11.2 -79.75 -14.7 -80.2 -14.45 -81.65 -14.0 -84.75 -10.5 -84.4 M-16.9 -67.35 L-8.05 -66.3 -10.2 -64.4 -17.4 -65.35 -16.9 -67.35" fill="#b4b4b4" fill-rule="evenodd" stroke="none"/>
    <path d="M5.7 -129.55 Q5.95 -130.75 5.7 -131.7 5.55 -132.5 5.0 -133.15 L7.0 -131.55 Q8.5 -130.0 9.9 -127.2 L11.85 -122.55 13.25 -118.4 16.05 -108.8 16.45 -107.3 17.2 -104.6 18.5 -99.8 19.25 -96.95 20.35 -92.75 21.0 -90.25 21.35 -88.85 14.8 -88.15 14.7 -88.75 14.2 -92.75 13.6 -96.95 13.4 -98.5 11.9 -107.95 11.75 -108.9 10.05 -117.7 Q8.7 -123.6 7.3 -126.85 6.5 -128.6 5.7 -129.55 M-16.85 -88.8 L-16.55 -90.4 -16.3 -91.65 -16.1 -92.75 -15.3 -96.95 -14.85 -99.7 -14.0 -104.75 -13.25 -109.0 -11.55 -118.35 -11.05 -120.55 Q-10.1 -124.5 -8.9 -127.25 L-7.0 -130.8 -5.15 -132.7 Q-7.0 -130.25 -7.05 -127.0 L-7.0 -125.7 -7.0 -125.6 Q-6.8 -123.4 -5.8 -122.4 L-7.7 -117.6 Q-9.1 -113.55 -10.25 -108.25 L-10.5 -107.0 -11.3 -103.0 -11.9 -98.9 -12.2 -96.95 -12.85 -92.75 -13.0 -91.65 -13.3 -89.4 -13.45 -88.45 -16.85 -88.8 M22.3 -85.15 L22.5 -84.25 22.55 -84.05 23.45 -80.8 23.45 -80.75 20.8 -80.25 20.7 -80.85 20.65 -80.9 18.8 -84.7 22.3 -85.15 M24.95 -75.2 L20.75 -74.45 20.9 -76.5 24.45 -77.1 24.95 -75.2 M-15.6 -74.5 L-19.8 -75.2 -19.4 -77.15 -15.25 -76.5 -15.6 -74.5 M23.5 -67.35 L26.9 -68.0 26.95 -67.75 27.4 -66.1 24.0 -65.4 23.5 -67.35 M-14.0 -84.75 L-14.45 -81.65 -14.7 -80.2 -18.6 -80.75 -18.55 -80.85 -18.4 -81.65 -17.8 -84.5 -17.65 -85.15 -14.0 -84.75 M-21.8 -66.15 L-21.45 -67.75 -21.35 -68.1 -16.9 -67.35 -17.4 -65.35 -21.8 -66.15" fill="#8a8a8a" fill-rule="evenodd" stroke="none"/>
    <path d="M4.5 -131.4 Q4.1 -132.7 2.4 -133.5 -1.25 -135.25 -3.6 -132.6 -5.8 -130.2 -5.8 -126.85 L-5.75 -125.7 Q-5.65 -124.4 -5.15 -123.65 L-4.75 -123.15 Q-4.3 -122.85 -3.65 -122.8 L-2.35 -122.95 Q-0.1 -123.6 1.75 -125.5 L2.65 -126.55 3.7 -128.1 3.65 -128.1 Q4.4 -129.45 4.55 -130.5 L4.5 -131.4 M5.7 -129.55 L4.75 -127.45 4.25 -126.6 3.05 -125.1 2.95 -124.95 2.85 -124.9 Q2.0 -123.95 1.05 -123.25 -0.4 -122.2 -2.0 -121.75 L-2.45 -121.65 -4.1 -121.55 Q-4.95 -121.65 -5.5 -122.15 L-5.8 -122.4 Q-6.8 -123.4 -7.0 -125.6 L-7.0 -125.7 -7.05 -127.0 Q-7.0 -130.25 -5.15 -132.7 L-7.0 -130.8 -8.9 -127.25 Q-10.1 -124.5 -11.05 -120.55 L-11.55 -118.35 -13.25 -109.0 -14.0 -104.75 -14.85 -99.7 -15.3 -96.95 -16.1 -92.75 -16.3 -91.65 -16.55 -90.4 -16.85 -88.8 -18.4 -89.0 -17.95 -91.15 -17.85 -91.65 -17.6 -92.75 -16.7 -96.95 -16.0 -100.25 -15.9 -100.7 -14.3 -108.5 -14.15 -109.35 -13.4 -113.3 -12.35 -118.6 -12.3 -118.95 -11.25 -123.65 -10.7 -125.65 -10.65 -125.95 -10.6 -126.05 -10.25 -127.25 -10.2 -127.4 -10.15 -127.5 -9.8 -128.55 Q-6.8 -135.85 -0.7 -135.85 4.6 -135.85 7.7 -132.5 9.7 -130.35 11.25 -127.45 L12.75 -124.0 14.5 -118.85 17.45 -108.45 17.6 -107.85 19.55 -100.3 20.35 -96.95 21.3 -92.75 21.75 -90.55 21.8 -90.35 22.25 -89.0 21.35 -88.85 21.0 -90.25 20.35 -92.75 19.25 -96.95 18.5 -99.8 17.2 -104.6 16.45 -107.3 16.05 -108.8 13.25 -118.4 11.85 -122.55 9.9 -127.2 Q8.5 -130.0 7.0 -131.55 L5.0 -133.15 Q5.55 -132.5 5.7 -131.7 5.95 -130.75 5.7 -129.55 M23.45 -80.75 L23.45 -80.8 22.55 -84.05 22.5 -84.25 22.3 -85.15 23.35 -85.3 24.55 -81.3 24.65 -80.95 23.45 -80.75 M24.95 -75.2 L24.45 -77.1 25.7 -77.35 26.25 -75.45 24.95 -75.2 M-19.8 -75.2 L-21.35 -75.5 -21.2 -76.15 -20.9 -77.4 -19.4 -77.15 -19.8 -75.2 M26.9 -68.0 L28.25 -68.3 28.4 -67.75 28.75 -66.45 27.4 -66.1 26.95 -67.75 26.9 -68.0 M-17.65 -85.15 L-17.8 -84.5 -18.4 -81.65 -18.55 -80.85 -18.6 -80.75 -20.15 -81.0 -20.0 -81.55 -20.0 -81.65 -19.2 -85.4 -17.65 -85.15 M-21.8 -66.15 L-23.3 -66.45 -23.05 -67.75 -22.9 -68.35 -21.35 -68.1 -21.45 -67.75 -21.8 -66.15" fill="#464646" fill-rule="evenodd" stroke="none"/>
  </g>
</svg>
