<?xml version="1.0" encoding="UTF-8" standalone="no"?>
<svg xmlns:ffdec="https://www.free-decompiler.com/flash" xmlns:xlink="http://www.w3.org/1999/xlink" ffdec:objectType="shape" height="60.8px" width="89.3px" xmlns="http://www.w3.org/2000/svg">
  <g transform="matrix(1.0, 0.0, 0.0, 1.0, 39.85, 14.4)">
    <path d="M26.05 34.65 Q26.4 32.25 29.0 32.2 31.6 32.1 36.3 39.4 41.0 46.7 45.85 43.95 47.8 41.0 47.8 37.6 L47.75 31.65 Q47.7 29.1 45.2 19.25 42.65 9.35 35.3 2.5 27.95 -4.4 13.15 -9.2 -1.65 -13.95 -14.45 -12.7 -27.3 -11.45 -31.8 -8.35 -36.3 -5.25 -36.95 0.05 -37.7 5.3 -36.7 7.85 -35.8 10.35 -35.05 10.95 L-31.85 14.2 Q-34.4 13.4 -36.05 12.25 -39.85 9.6 -39.85 3.25 -39.85 -3.6 -36.8 -7.1 -30.45 -14.4 -11.3 -14.4 11.55 -14.4 27.6 -5.25 49.45 7.25 49.45 33.5 49.45 41.8 47.8 44.7 46.95 46.2 45.4 46.2 38.1 46.2 34.4 39.8 L31.95 35.4 Q30.55 33.4 28.6 33.4 27.05 33.4 26.05 34.65" fill="#17100b" fill-rule="evenodd" stroke="none"/>
    <path d="M22.25 43.9 L23.1 42.1 23.9 39.2 24.7 36.4 25.15 33.55 Q25.15 32.25 25.7 30.75 L27.25 29.25 28.1 28.65 Q31.3 29.35 33.3 30.55 35.0 31.55 36.55 33.4 L34.6 29.1 34.9 28.85 Q34.05 27.6 31.45 24.95 L29.15 22.5 Q29.15 22.2 29.85 21.9 L30.95 21.6 Q32.75 21.6 36.7 24.15 39.9 26.25 41.55 27.85 L41.6 27.75 Q41.6 27.05 40.1 24.15 L38.5 21.3 36.75 19.75 34.45 18.1 32.5 17.25 Q30.85 16.4 30.85 15.75 30.85 15.45 31.85 15.1 L34.5 14.65 35.7 14.8 Q36.85 14.8 37.85 15.3 L39.5 16.2 Q38.95 14.45 37.3 11.95 L34.4 7.65 33.25 6.2 Q30.35 3.55 26.75 1.0 21.15 -2.95 16.75 -4.45 10.35 -7.1 3.25 -8.85 -6.4 -11.25 -13.25 -10.9 -18.6 -9.65 -22.3 -5.6 -25.5 -2.0 -25.5 1.2 -25.5 4.0 -25.05 6.6 -24.25 11.05 -22.4 11.65 -21.2 13.0 -19.3 12.7 -20.4 11.6 -21.05 9.55 -21.8 7.25 -21.8 4.55 L-21.35 1.65 Q-20.85 -0.55 -20.3 -0.5 L-20.0 3.1 Q-19.85 5.35 -19.15 6.7 -17.65 9.4 -16.45 10.3 -14.3 11.9 -10.3 12.35 L-9.9 12.3 -9.8 12.2 -8.45 12.1 Q-10.8 10.35 -11.8 8.2 -12.7 6.3 -12.7 3.85 L-12.65 3.45 -12.3 3.35 Q-11.3 5.1 -9.75 6.85 -6.6 10.35 -2.4 10.35 L2.6 10.1 1.8 9.05 0.85 8.0 0.85 7.25 1.2 7.15 2.5 7.7 5.25 8.6 9.15 9.05 9.6 9.15 9.7 9.1 13.4 9.15 16.8 9.75 17.05 9.85 17.1 9.85 16.6 9.9 12.6 10.8 10.4 11.5 9.55 11.8 Q2.5 12.4 -2.7 13.7 -8.1 15.0 -16.05 15.0 -24.0 15.0 -24.9 14.8 L-31.85 14.2 -35.05 10.95 Q-35.8 10.35 -36.7 7.85 -37.7 5.3 -36.95 0.05 -36.3 -5.25 -31.8 -8.35 -27.3 -11.45 -14.45 -12.7 -1.65 -13.95 13.15 -9.2 27.95 -4.4 35.3 2.5 42.65 9.35 45.2 19.25 47.7 29.1 47.75 31.65 L47.8 37.6 Q47.8 41.0 45.85 43.95 41.0 46.7 36.3 39.4 31.6 32.1 29.0 32.2 26.4 32.25 26.05 34.65 L26.0 35.0 Q25.75 37.4 24.5 40.95 24.0 42.4 22.85 43.35 L22.25 43.9 M-20.8 -10.2 Q-27.3 -8.9 -30.75 -5.15 -33.65 -1.95 -33.65 2.05 L-33.4 5.65 Q-32.8 8.0 -27.85 8.75 -27.25 8.5 -27.25 7.95 L-28.35 6.2 Q-29.5 4.4 -29.5 2.15 L-29.25 -0.8 -27.7 -4.05 -26.25 -5.65 -24.65 -7.05 -22.35 -8.6 -20.7 -9.9 -20.8 -10.2" fill="#251b12" fill-rule="evenodd" stroke="none"/>
    <path d="M22.65 0.05 Q12.55 -3.65 2.15 -6.85 -4.85 -8.95 -11.75 -7.25 -17.05 -6.05 -17.95 -1.15 -18.5 2.1 -17.15 5.1 L-16.4 6.1 Q-16.95 4.05 -15.15 0.2 -13.4 -3.65 -8.1 -4.5 -9.45 -2.4 -8.9 0.1 -8.4 2.25 -6.35 3.85 L-3.45 5.5 Q-4.25 4.55 -3.6 0.9 -3.0 -2.75 1.85 -2.65 L2.9 -2.45 6.35 -2.05 14.45 0.25 Q18.6 1.25 22.65 0.05 M-31.85 14.2 L-24.9 14.8 Q-24.0 15.0 -16.05 15.0 -8.1 15.0 -2.7 13.7 2.5 12.4 9.55 11.8 L10.4 11.5 12.6 10.8 16.6 9.9 17.1 9.85 17.05 9.85 16.8 9.75 13.4 9.15 9.7 9.1 9.6 9.15 9.15 9.05 5.25 8.6 2.5 7.7 1.2 7.15 0.85 7.25 0.85 8.0 1.8 9.05 2.6 10.1 -2.4 10.35 Q-6.6 10.35 -9.75 6.85 -11.3 5.1 -12.3 3.35 L-12.65 3.45 -12.7 3.85 Q-12.7 6.3 -11.8 8.2 -10.8 10.35 -8.45 12.1 L-9.8 12.2 -9.9 12.3 -10.3 12.35 Q-14.3 11.9 -16.45 10.3 -17.65 9.4 -19.15 6.7 -19.85 5.35 -20.0 3.1 L-20.3 -0.5 Q-20.85 -0.55 -21.35 1.65 L-21.8 4.55 Q-21.8 7.25 -21.05 9.55 -20.4 11.6 -19.3 12.7 -21.2 13.0 -22.4 11.65 -24.25 11.05 -25.05 6.6 -25.5 4.0 -25.5 1.2 -25.5 -2.0 -22.3 -5.6 -18.6 -9.65 -13.25 -10.9 -6.4 -11.25 3.25 -8.85 10.35 -7.1 16.75 -4.45 21.15 -2.95 26.75 1.0 30.35 3.55 33.25 6.2 L34.4 7.65 37.3 11.95 Q38.95 14.45 39.5 16.2 L37.85 15.3 Q36.85 14.8 35.7 14.8 L34.5 14.65 31.85 15.1 Q30.85 15.45 30.85 15.75 30.85 16.4 32.5 17.25 L34.45 18.1 36.75 19.75 38.5 21.3 40.1 24.15 Q41.6 27.05 41.6 27.75 L41.55 27.85 Q39.9 26.25 36.7 24.15 32.75 21.6 30.95 21.6 L29.85 21.9 Q29.15 22.2 29.15 22.5 L31.45 24.95 Q34.05 27.6 34.9 28.85 L34.6 29.1 36.55 33.4 Q35.0 31.55 33.3 30.55 31.3 29.35 28.1 28.65 L27.25 29.25 25.7 30.75 Q25.15 32.25 25.15 33.55 L24.7 36.4 23.9 39.2 23.1 42.1 22.25 43.9 22.25 43.95 19.7 45.0 18.55 45.2 17.3 44.95 18.1 43.45 Q21.15 38.0 21.7 31.7 21.8 30.6 21.55 29.55 21.25 28.1 19.9 27.4 24.8 25.95 27.6 26.7 L30.8 27.3 Q27.2 24.15 22.6 22.85 19.55 22.05 16.2 21.8 L17.4 20.45 18.0 19.9 18.7 19.5 19.45 19.1 16.45 17.95 Q13.0 16.45 9.2 15.9 L9.75 12.8 7.7 13.75 7.7 13.6 -2.65 15.0 -14.25 16.1 Q-25.7 16.1 -31.85 14.2 M21.75 12.2 Q17.2 12.1 12.75 14.2 L18.9 15.4 Q23.75 16.1 30.7 19.85 27.75 16.9 23.4 14.6 25.25 13.4 28.55 13.25 L21.75 12.2 M14.7 2.45 Q10.8 1.25 7.7 2.3 5.0 3.2 5.0 4.7 5.0 6.75 6.8 6.75 7.55 6.75 7.8 6.15 L8.05 5.35 Q8.3 5.0 9.2 4.8 L10.65 4.55 13.45 4.5 23.3 6.55 Q24.45 6.75 31.55 9.3 L31.95 9.15 32.15 9.0 Q28.75 6.75 25.75 5.4 21.7 3.55 17.1 2.7 L14.7 2.45 M-20.8 -10.2 L-20.7 -9.9 -22.35 -8.6 -24.65 -7.05 -26.25 -5.65 -27.7 -4.05 -29.25 -0.8 -29.5 2.15 Q-29.5 4.4 -28.35 6.2 L-27.25 7.95 Q-27.25 8.5 -27.85 8.75 -32.8 8.0 -33.4 5.65 L-33.65 2.05 Q-33.65 -1.95 -30.75 -5.15 -27.3 -8.9 -20.8 -10.2" fill="#35271a" fill-rule="evenodd" stroke="none"/>
    <path d="M22.65 0.05 Q18.6 1.25 14.45 0.25 L6.35 -2.05 2.9 -2.45 1.85 -2.65 Q-3.0 -2.75 -3.6 0.9 -4.25 4.55 -3.45 5.5 L-6.35 3.85 Q-8.4 2.25 -8.9 0.1 -9.45 -2.4 -8.1 -4.5 -13.4 -3.65 -15.15 0.2 -16.95 4.05 -16.4 6.1 L-17.15 5.1 Q-18.5 2.1 -17.95 -1.15 -17.05 -6.05 -11.75 -7.25 -4.85 -8.95 2.15 -6.85 12.55 -3.65 22.65 0.05 M7.7 13.75 L9.75 12.8 9.2 15.9 Q13.0 16.45 16.45 17.95 L19.45 19.1 18.7 19.5 18.0 19.9 17.4 20.45 16.2 21.8 Q19.55 22.05 22.6 22.85 27.2 24.15 30.8 27.3 L27.6 26.7 Q24.8 25.95 19.9 27.4 21.25 28.1 21.55 29.55 21.8 30.6 21.7 31.7 21.15 38.0 18.1 43.45 L17.3 44.95 18.55 45.2 19.7 45.0 22.25 43.95 22.25 43.9 22.85 43.35 Q24.0 42.4 24.5 40.95 23.25 45.7 18.25 46.3 16.8 46.6 15.35 45.8 L19.1 34.55 Q20.3 30.8 18.2 28.1 L17.55 27.5 18.6 25.1 13.7 21.9 16.0 19.5 Q11.6 18.1 7.1 17.3 6.75 15.45 7.7 13.75 M14.7 2.45 L17.1 2.7 Q21.7 3.55 25.75 5.4 28.75 6.75 32.15 9.0 L31.95 9.15 31.55 9.3 Q24.45 6.75 23.3 6.55 L13.45 4.5 10.65 4.55 9.2 4.8 Q8.3 5.0 8.05 5.35 L7.8 6.15 Q7.55 6.75 6.8 6.75 5.0 6.75 5.0 4.7 5.0 3.2 7.7 2.3 10.8 1.25 14.7 2.45 M21.75 12.2 L28.55 13.25 Q25.25 13.4 23.4 14.6 27.75 16.9 30.7 19.85 23.75 16.1 18.9 15.4 L12.75 14.2 Q17.2 12.1 21.75 12.2" fill="#4d3724" fill-rule="evenodd" stroke="none"/>
  </g>
</svg>
