<?xml version="1.0" encoding="UTF-8" standalone="no"?>
<svg xmlns:ffdec="https://www.free-decompiler.com/flash" xmlns:xlink="http://www.w3.org/1999/xlink" ffdec:objectType="shape" height="13.0px" width="39.6px" xmlns="http://www.w3.org/2000/svg">
  <g transform="matrix(1.0, 0.0, 0.0, 1.0, 35.35, -9.4)">
    <path d="M0.75 18.0 L0.4 17.4 Q0.1 17.1 -0.3 17.15 L-11.05 17.9 Q-11.5 17.95 -11.75 18.25 -12.05 18.55 -12.0 19.0 L-11.8 19.45 -12.35 19.55 -12.45 18.55 Q-12.45 17.05 -11.8 15.9 L-11.75 15.85 -11.75 15.8 Q-11.2 14.7 -10.15 13.9 L-8.7 12.85 -8.65 12.8 Q-7.0 12.0 -5.05 12.0 -2.0 12.0 0.15 13.9 L0.2 13.95 Q2.2 15.6 2.4 18.0 L0.75 18.0 M-21.65 18.6 L-21.95 18.25 Q-22.3 17.95 -22.75 17.95 L-32.5 18.2 Q-33.0 18.2 -33.3 18.55 L-33.65 19.25 -33.6 19.45 -34.15 19.45 -35.2 19.2 -35.2 19.1 Q-35.2 17.8 -34.65 16.75 -34.25 15.8 -33.2 15.0 L-33.25 15.1 Q-32.55 14.35 -31.7 14.05 -30.25 13.35 -28.55 13.35 -25.75 13.35 -23.8 15.0 -21.95 16.55 -21.65 18.6" fill="#6f5f55" fill-rule="evenodd" stroke="none"/>
    <path d="M0.75 18.0 L0.75 18.1 0.5 18.8 -0.15 19.15 -10.9 19.9 -11.65 19.65 -11.8 19.45 -12.0 19.0 Q-12.05 18.55 -11.75 18.25 -11.5 17.95 -11.05 17.9 L-0.3 17.15 Q0.1 17.1 0.4 17.4 L0.75 18.0 M-33.6 19.45 L-33.65 19.25 -33.3 18.55 Q-33.0 18.2 -32.5 18.2 L-22.75 17.95 Q-22.3 17.95 -21.95 18.25 L-21.65 18.6 -21.75 18.6 -21.6 19.05 -21.9 19.65 -22.7 19.95 -32.4 20.2 -33.25 19.95 -33.6 19.45" fill="#3d2618" fill-rule="evenodd" stroke="none"/>
    <path d="M-11.8 19.45 L-11.65 19.65 -10.9 19.9 -0.15 19.15 0.5 18.8 0.75 18.1 0.75 18.0 2.4 18.0 2.4 18.55 Q2.4 21.3 -0.2 21.35 L-5.75 21.8 -11.05 22.4 Q-12.15 21.15 -12.35 19.55 L-11.8 19.45 M-33.6 19.45 L-33.25 19.95 -32.4 20.2 -22.7 19.95 -21.9 19.65 -21.6 19.05 Q-21.5 21.4 -21.9 21.85 L-25.3 22.0 Q-28.25 21.75 -34.45 21.8 -35.15 20.6 -35.2 19.2 L-34.15 19.45 -33.6 19.45" fill="#e4b769" fill-rule="evenodd" stroke="none"/>
    <path d="M-13.6 12.5 L-13.5 11.75 Q-13.35 11.4 -8.05 10.1 -2.75 8.75 0.8 10.05 4.3 11.3 4.25 11.7 L4.05 12.5 3.55 13.1 -0.75 12.05 Q-4.75 10.8 -8.75 12.05 -12.75 13.25 -13.1 13.1 L-13.6 12.5" fill="#291b16" fill-rule="evenodd" stroke="none"/>
    <path d="M-35.35 15.55 Q-35.4 15.0 -34.45 13.85 -33.55 12.65 -30.85 11.65 -28.15 10.6 -24.45 11.65 -20.75 12.65 -20.55 13.05 -20.35 13.4 -20.4 13.8 L-20.85 14.4 Q-21.25 14.6 -24.65 13.65 -28.05 12.7 -30.55 13.65 -33.1 14.6 -34.2 15.35 -35.35 16.1 -35.35 15.55" fill="#291b16" fill-rule="evenodd" stroke="none"/>
  </g>
</svg>
