<?xml version="1.0" encoding="UTF-8" standalone="no"?>
<svg xmlns:ffdec="https://www.free-decompiler.com/flash" xmlns:xlink="http://www.w3.org/1999/xlink" ffdec:objectType="shape" height="25.1px" width="40.75px" xmlns="http://www.w3.org/2000/svg">
  <g transform="matrix(1.0, 0.0, 0.0, 1.0, 36.5, -1.9)">
    <path d="M1.25 14.6 L1.35 16.25 Q1.35 20.2 -0.55 22.95 -2.65 26.1 -5.75 26.1 L-5.85 26.1 Q-7.1 26.1 -8.25 25.55 -9.8 24.8 -11.05 22.95 -12.9 20.2 -12.9 16.3 L-12.9 16.25 -12.9 15.75 -12.9 15.55 -12.9 15.5 Q-12.85 13.8 -12.35 12.35 -11.9 10.8 -11.05 9.65 L-11.0 9.55 Q-10.4 8.55 -9.55 7.9 L-9.6 7.9 Q-7.9 6.4 -5.8 6.4 -2.65 6.3 -0.5 9.6 L-0.55 9.6 Q0.95 11.7 1.25 14.6 M-7.3 10.55 L-8.1 11.5 -8.15 11.55 -9.0 13.4 -9.35 15.35 -9.4 16.2 -9.4 16.25 Q-9.4 19.0 -8.15 21.0 -7.15 22.45 -5.8 22.6 -4.45 22.45 -3.45 21.0 -2.15 19.0 -2.15 16.25 L-2.2 14.95 Q-2.45 13.0 -3.45 11.55 L-3.45 11.5 Q-4.45 10.0 -5.8 9.9 -6.6 9.9 -7.3 10.55 M-34.2 18.8 L-34.25 17.6 Q-34.25 15.65 -33.7 14.05 L-33.75 14.15 Q-33.35 12.75 -32.6 11.65 L-31.25 10.1 Q-29.7 8.8 -27.8 8.8 -25.05 8.7 -23.1 11.65 -21.75 13.55 -21.45 16.2 L-21.35 17.6 -21.35 17.65 Q-21.4 21.1 -23.1 23.5 L-24.55 25.2 Q-26.0 26.35 -27.75 26.35 L-27.85 26.35 Q-30.65 26.35 -32.6 23.5 -33.95 21.5 -34.2 18.8 M-30.35 15.05 L-30.4 15.15 Q-30.75 16.25 -30.75 17.6 L-30.7 18.6 Q-30.5 20.25 -29.7 21.55 -28.9 22.7 -27.8 22.85 -26.8 22.7 -26.0 21.55 L-25.95 21.5 Q-25.05 20.15 -24.85 18.3 L-24.85 17.65 -24.85 17.6 Q-24.9 15.2 -26.0 13.6 -26.75 12.4 -27.8 12.3 -28.45 12.3 -29.0 12.8 L-29.05 12.8 -29.65 13.55 -29.7 13.6 -30.35 15.05" fill="#3d2618" fill-rule="evenodd" stroke="none"/>
    <path d="M3.7 14.2 L2.8 14.35 1.25 14.6 Q0.95 11.7 -0.55 9.6 L-0.5 9.6 Q-2.65 6.3 -5.8 6.4 -7.9 6.4 -9.6 7.9 L-9.55 7.9 Q-10.4 8.55 -11.0 9.55 L-11.05 9.65 Q-11.9 10.8 -12.35 12.35 -12.85 13.8 -12.9 15.5 -12.95 13.1 -12.25 11.1 -11.75 9.35 -10.75 8.05 L-10.7 7.95 Q-10.0 6.85 -9.0 6.1 L-9.05 6.1 Q-7.05 4.4 -4.6 4.4 -0.9 4.3 1.6 8.0 L1.55 8.0 Q3.4 10.6 3.7 14.2 M-21.45 16.2 Q-21.75 13.55 -23.1 11.65 -25.05 8.7 -27.8 8.8 -29.7 8.8 -31.25 10.1 L-32.6 11.65 Q-33.35 12.75 -33.75 14.15 L-33.7 14.05 Q-34.25 15.65 -34.25 17.6 L-34.2 18.8 -36.4 18.9 -36.5 17.15 Q-36.5 14.95 -35.85 13.15 L-35.9 13.25 Q-35.45 11.7 -34.55 10.45 L-33.05 8.75 Q-31.2 7.25 -28.95 7.25 -25.7 7.15 -23.45 10.45 -21.7 12.8 -21.45 16.2" fill="#6f5f55" fill-rule="evenodd" stroke="none"/>
    <path d="M3.7 14.2 L3.75 15.5 Q3.75 19.95 1.55 23.05 -0.9 26.6 -4.55 26.6 L-4.65 26.6 Q-6.6 26.6 -8.25 25.55 -7.1 26.1 -5.85 26.1 L-5.75 26.1 Q-2.65 26.1 -0.55 22.95 1.35 20.2 1.35 16.25 L1.25 14.6 2.8 14.35 3.7 14.2 M-34.2 18.8 Q-33.95 21.5 -32.6 23.5 -30.65 26.35 -27.85 26.35 L-27.75 26.35 Q-26.0 26.35 -24.55 25.2 -26.45 27.05 -28.9 27.0 L-29.0 27.0 Q-32.3 27.0 -34.55 23.8 -36.05 21.7 -36.4 18.9 L-34.2 18.8" fill="#e4b769" fill-rule="evenodd" stroke="none"/>
    <path d="M-7.3 10.55 Q-6.6 9.9 -5.8 9.9 -4.45 10.0 -3.45 11.5 L-3.45 11.55 Q-2.45 13.0 -2.2 14.95 L-2.15 16.25 Q-2.15 19.0 -3.45 21.0 -4.45 22.45 -5.8 22.6 -7.15 22.45 -8.15 21.0 -9.4 19.0 -9.4 16.25 L-9.4 16.2 -9.35 15.35 -9.0 13.4 -8.15 11.55 -8.1 11.5 -7.3 10.55 M-30.35 15.05 L-29.7 13.6 -29.65 13.55 -29.05 12.8 -29.0 12.8 Q-28.45 12.3 -27.8 12.3 -26.75 12.4 -26.0 13.6 -24.9 15.2 -24.85 17.6 L-24.85 17.65 -24.85 18.3 Q-25.05 20.15 -25.95 21.5 L-26.0 21.55 Q-26.8 22.7 -27.8 22.85 -28.9 22.7 -29.7 21.55 -30.5 20.25 -30.7 18.6 L-30.75 17.6 Q-30.75 16.25 -30.4 15.15 L-30.35 15.05" fill="#f5e3c5" fill-rule="evenodd" stroke="none"/>
    <path d="M3.55 5.6 L-0.75 4.55 Q-4.75 3.3 -8.75 4.55 -12.75 5.75 -13.1 5.6 L-13.6 5.0 -13.5 4.25 Q-13.35 3.9 -8.05 2.6 -2.75 1.25 0.8 2.55 4.3 3.8 4.25 4.2 L4.05 5.0 3.55 5.6" fill="#291b16" fill-rule="evenodd" stroke="none"/>
    <path d="M-24.45 3.95 Q-20.75 4.95 -20.55 5.35 -20.35 5.7 -20.4 6.1 L-20.85 6.7 Q-21.25 6.9 -24.65 5.95 -28.05 5.0 -30.55 5.95 -33.1 6.9 -34.2 7.65 -35.35 8.4 -35.35 7.85 -35.4 7.3 -34.45 6.15 -33.55 4.95 -30.85 3.95 -28.15 2.9 -24.45 3.95" fill="#291b16" fill-rule="evenodd" stroke="none"/>
  </g>
</svg>
