<?xml version="1.0" encoding="UTF-8" standalone="no"?>
<svg xmlns:ffdec="https://www.free-decompiler.com/flash" xmlns:xlink="http://www.w3.org/1999/xlink" ffdec:objectType="shape" height="126.65px" width="102.6px" xmlns="http://www.w3.org/2000/svg">
  <g transform="matrix(1.0, 0.0, 0.0, 1.0, -22.8, 14.55)">
    <path d="M46.4 -14.55 L47.7 -14.55 Q51.8 -8.2 54.1 -0.85 L55.85 22.25 54.8 14.95 54.2 11.65 54.15 11.55 53.85 9.65 Q52.65 2.7 50.8 -4.25 49.25 -9.95 46.4 -14.55 M64.0 -14.55 L70.65 -14.55 Q72.85 -9.0 73.75 -2.65 L74.4 3.4 Q71.9 -7.1 69.85 -9.55 72.2 -3.65 72.6 8.15 L72.4 12.55 71.9 18.8 Q72.5 10.65 70.35 3.4 L68.65 27.1 68.35 22.75 68.15 16.85 Q69.45 7.25 67.6 -2.65 66.45 -9.0 64.0 -14.55 M25.5 -14.55 L27.3 -14.55 28.7 -10.65 25.5 -14.55 M36.35 -14.55 L37.4 -14.55 Q39.25 -11.5 39.5 -10.1 L39.75 -9.65 41.4 -4.75 Q43.7 0.9 44.8 4.8 L47.35 13.55 47.35 13.6 47.4 19.8 Q47.15 19.5 46.1 12.65 45.1 6.45 42.35 4.9 L43.05 9.7 43.35 13.4 43.15 17.2 Q42.75 14.25 41.95 11.3 39.6 2.55 38.15 -6.4 L37.6 -9.75 37.55 -10.05 37.35 -11.1 36.35 -14.55" fill="#231811" fill-rule="evenodd" stroke="none"/>
    <path d="M70.65 -14.55 L72.75 -14.55 Q74.4 -9.7 75.1 -4.45 76.05 2.6 76.3 9.65 L74.8 12.0 74.6 12.25 74.75 10.05 Q74.8 6.65 74.4 3.55 L74.4 3.4 73.75 -2.65 Q72.85 -9.0 70.65 -14.55 M41.65 22.4 Q41.05 17.4 39.35 12.3 39.05 14.75 38.4 17.1 L35.0 21.1 34.95 21.3 32.5 26.95 32.8 24.25 34.45 14.05 33.95 16.0 Q33.35 13.55 32.25 11.4 L32.2 7.3 Q31.4 -5.45 22.8 -14.55 L25.5 -14.55 28.7 -10.65 Q32.5 -5.1 33.75 2.2 34.75 8.15 34.45 14.0 35.6 4.75 35.75 0.85 L37.0 10.3 Q37.75 0.0 35.65 -10.1 L35.55 -10.65 Q35.05 -11.45 35.15 -12.15 L34.3 -14.55 36.35 -14.55 37.35 -11.1 37.55 -10.05 37.6 -9.75 38.15 -6.4 Q39.6 2.55 41.95 11.3 42.75 14.25 43.15 17.2 42.75 19.95 41.65 22.4" fill="#150e0a" fill-rule="evenodd" stroke="none"/>
    <path d="M37.4 -14.55 L39.75 -14.55 39.85 -14.35 Q46.3 -3.75 49.2 8.2 L49.8 10.7 Q48.65 6.25 46.85 1.4 44.45 -4.9 42.85 -7.25 44.45 -4.8 45.85 2.4 47.1 8.9 47.35 13.55 L44.8 4.8 Q43.7 0.9 41.4 -4.75 L39.75 -9.65 39.5 -10.1 Q39.25 -11.5 37.4 -14.55 M41.9 -14.55 L46.4 -14.55 Q49.25 -9.95 50.8 -4.25 52.65 2.7 53.85 9.65 L54.15 11.55 49.0 -4.35 49.9 2.25 Q47.15 -6.7 41.9 -14.55 M47.7 -14.55 L50.65 -14.55 Q56.1 -5.55 58.35 4.8 L58.85 2.65 Q57.75 -6.65 53.1 -14.55 L54.45 -14.55 57.55 -8.2 Q60.5 -1.3 60.5 5.2 L60.2 9.7 59.4 16.15 Q58.05 14.45 58.05 14.05 57.6 5.35 53.95 -2.85 L54.1 -0.85 Q51.8 -8.2 47.7 -14.55 M54.95 -14.55 L57.6 -14.55 Q59.25 -11.3 60.5 -7.8 62.8 -1.25 64.3 5.65 L64.75 18.1 Q63.8 15.25 63.8 11.45 L63.7 4.7 Q62.9 -3.7 54.95 -14.55 M59.5 -14.55 L64.0 -14.55 Q66.45 -9.0 67.6 -2.65 69.45 7.25 68.15 16.85 L65.45 2.65 Q63.7 -6.55 59.5 -14.55 M27.3 -14.55 L34.3 -14.55 35.15 -12.15 Q35.05 -11.45 35.55 -10.65 L35.65 -10.1 Q37.75 0.0 37.0 10.3 L35.75 0.85 Q35.6 4.75 34.45 14.0 34.75 8.15 33.75 2.2 32.5 -5.1 28.7 -10.65 L27.3 -14.55" fill="#2c1e16" fill-rule="evenodd" stroke="none"/>
    <path d="M39.75 -14.55 L41.9 -14.55 Q47.15 -6.7 49.9 2.25 50.9 9.9 50.9 16.3 L50.05 11.8 49.8 10.7 49.2 8.2 Q46.3 -3.75 39.85 -14.35 L39.75 -14.55 M50.65 -14.55 L53.1 -14.55 Q57.75 -6.65 58.85 2.65 L58.35 4.8 Q56.1 -5.55 50.65 -14.55 M57.6 -14.55 L59.5 -14.55 Q63.7 -6.55 65.45 2.65 L65.4 2.5 64.0 -1.35 64.3 5.65 Q62.8 -1.25 60.5 -7.8 59.25 -11.3 57.6 -14.55" fill="#4a3021" fill-rule="evenodd" stroke="none"/>
    <path d="M54.45 -14.55 L54.95 -14.55 Q62.9 -3.7 63.7 4.7 L63.8 11.45 Q63.8 15.25 64.75 18.1 L64.3 5.65 65.75 14.25 66.3 9.6 65.95 6.3 65.4 2.5 65.45 2.65 68.15 16.85 67.7 19.4 66.5 25.0 66.5 24.95 Q66.95 19.35 66.6 18.1 L63.6 28.2 62.9 23.4 62.9 23.35 Q63.05 9.4 62.85 7.5 L60.6 -1.6 60.55 -0.6 Q61.45 12.7 61.55 20.2 L61.55 20.25 60.15 30.9 59.5 28.4 Q58.95 29.65 58.25 32.4 57.6 34.8 57.6 35.7 L57.55 32.25 Q58.0 23.55 57.75 21.1 L56.95 24.6 Q57.55 18.8 56.45 10.25 55.45 2.6 54.1 -0.85 L53.95 -2.85 Q57.6 5.35 58.05 14.05 58.05 14.45 59.4 16.15 L60.2 9.7 60.5 5.2 Q60.5 -1.3 57.55 -8.2 L54.45 -14.55 M47.35 13.55 Q47.1 8.9 45.85 2.4 44.45 -4.8 42.85 -7.25 44.45 -4.9 46.85 1.4 48.65 6.25 49.8 10.7 L50.05 11.8 50.9 16.3 52.0 24.2 Q50.95 27.6 50.05 29.05 L49.85 17.95 48.65 20.65 Q48.75 19.75 48.25 17.5 L47.35 13.6 47.35 13.55 M54.15 11.55 L54.2 11.65 54.1 18.5 52.95 15.5 52.85 18.85 51.55 10.95 49.9 2.25 49.0 -4.35 54.15 11.55" fill="#61441a" fill-rule="evenodd" stroke="none"/>
    <path d="M61.55 20.2 Q61.45 12.7 60.55 -0.6 L60.6 -1.6 62.85 7.5 Q63.05 9.4 62.9 23.35 L62.0 16.4 61.55 20.2 M66.5 25.0 L67.7 19.4 68.15 16.85 68.35 22.75 68.65 27.1 70.35 3.4 Q72.5 10.65 71.9 18.8 L72.4 12.55 72.6 8.15 Q72.2 -3.65 69.85 -9.55 71.9 -7.1 74.4 3.4 L74.4 3.55 Q74.8 6.65 74.75 10.05 L74.6 12.25 74.8 12.0 Q75.05 21.05 74.25 24.65 L74.4 15.3 Q74.55 12.9 73.95 18.35 L72.6 27.8 72.2 30.45 72.1 31.15 Q71.45 34.8 70.3 38.4 L68.15 43.9 69.95 33.1 71.35 20.15 Q70.75 25.8 66.9 40.7 L68.15 27.9 65.9 33.0 66.5 25.0 M54.2 11.65 L54.8 14.95 55.85 22.25 54.1 -0.85 Q55.45 2.6 56.45 10.25 57.55 18.8 56.95 24.6 L53.8 38.25 53.75 36.6 54.35 28.6 54.8 23.55 Q54.8 21.35 54.1 18.5 L54.2 11.65 M43.15 17.2 L43.35 13.4 43.05 9.7 42.35 4.9 Q45.1 6.45 46.1 12.65 47.15 19.5 47.4 19.8 L47.35 13.6 48.25 17.5 Q48.75 19.75 48.65 20.65 L44.85 29.15 Q45.2 22.4 45.0 16.85 L44.85 18.2 43.65 26.0 Q43.6 21.6 43.15 17.2" fill="#4f3712" fill-rule="evenodd" stroke="none"/>
    <path d="M76.3 9.65 L76.3 9.6 76.3 10.15 75.5 29.4 73.9 32.55 74.25 24.65 Q75.05 21.05 74.8 12.0 L76.3 9.65 M41.45 33.4 L41.7 22.85 41.65 22.4 Q42.75 19.95 43.15 17.2 43.6 21.6 43.65 26.0 L43.65 26.05 Q42.85 29.75 41.45 33.4 M38.4 17.1 Q37.5 20.2 35.95 23.0 33.7 27.1 32.45 31.4 L31.8 29.8 32.5 26.95 34.95 21.3 35.0 21.1 38.4 17.1 M29.35 25.45 L29.75 24.2 Q32.05 17.9 32.25 11.4 33.35 13.55 33.95 16.0 L34.45 14.05 32.8 24.25 32.8 24.2 32.85 21.9 32.5 22.1 31.1 27.55 31.25 28.3 29.7 24.45 29.35 25.45 M73.95 18.35 L73.7 20.7 72.6 27.8 73.95 18.35" fill="#352309" fill-rule="evenodd" stroke="none"/>
    <path d="M65.4 2.5 L65.95 6.3 66.3 9.6 65.75 14.25 64.3 5.65 64.0 -1.35 65.4 2.5 M52.0 24.2 L50.9 16.3 Q50.9 9.9 49.9 2.25 L51.55 10.95 52.85 18.85 52.85 18.9 52.0 24.2" fill="#805827" fill-rule="evenodd" stroke="none"/>
    <path d="M62.9 23.35 L62.9 23.4 Q62.8 29.35 61.55 36.9 60.6 42.7 59.55 46.3 L57.7 52.7 57.05 55.75 55.6 61.0 55.4 58.85 Q55.4 57.05 55.85 54.1 56.3 50.95 57.0 48.55 L57.5 46.7 59.1 40.35 Q60.05 36.15 61.55 20.25 L61.55 20.2 62.0 16.4 62.9 23.35 M66.5 24.95 L66.5 25.0 65.9 33.0 68.15 27.9 66.9 40.7 Q70.75 25.8 71.35 20.15 L69.95 33.1 68.15 43.9 70.3 38.4 69.0 59.35 69.0 59.4 66.95 65.55 66.95 65.5 Q67.55 55.75 67.35 51.75 L66.0 63.0 65.15 60.95 67.45 44.35 64.0 58.15 63.55 56.7 66.3 32.95 61.95 49.5 61.8 48.95 62.25 41.0 Q63.35 34.3 64.45 30.95 L66.5 24.95 M87.75 43.4 Q87.05 32.7 90.05 22.45 92.3 14.9 99.0 10.75 101.8 13.6 103.55 17.35 105.0 20.45 104.8 37.05 104.6 53.65 110.25 64.5 115.85 75.35 121.75 76.25 115.65 79.9 111.2 75.4 108.75 72.85 107.05 69.8 L112.4 84.0 Q99.05 83.85 93.95 71.8 88.15 58.3 87.75 43.4 M74.4 15.3 L73.95 18.35 Q74.55 12.9 74.4 15.3 M43.65 26.0 L44.85 18.2 45.0 16.85 Q45.2 22.4 44.85 29.15 L48.65 20.65 48.8 23.1 47.65 33.25 Q46.5 42.65 46.05 44.35 L46.05 44.45 45.85 44.85 46.95 36.35 Q47.45 30.6 48.1 25.55 L45.25 38.65 Q43.5 45.65 41.1 50.9 42.4 46.45 43.3 40.2 44.15 34.55 44.0 32.45 L40.65 46.4 Q39.7 49.6 37.25 55.05 39.7 49.15 41.45 41.8 43.45 33.1 43.65 26.05 L43.65 26.0 M47.85 51.25 L47.8 52.45 47.8 52.4 47.85 51.25 M52.6 41.95 L53.5 38.05 53.75 36.6 53.8 38.25 56.95 24.6 Q56.35 30.65 53.25 47.5 50.5 55.35 49.2 58.1 L49.05 56.35 Q52.75 44.85 52.6 41.95" fill="#7e5714" fill-rule="evenodd" stroke="none"/>
    <path d="M75.5 29.4 Q74.7 36.45 73.2 43.45 L72.25 48.6 72.25 48.55 72.25 48.65 71.65 50.5 70.9 53.05 70.15 55.55 69.35 58.1 69.0 59.35 70.3 38.4 Q71.45 34.8 72.1 31.15 L72.2 30.45 72.6 27.8 73.7 20.7 73.95 18.35 74.4 15.3 74.25 24.65 73.9 32.55 75.5 29.4 M29.3 66.2 L38.25 44.75 39.8 40.5 39.9 40.25 40.1 39.6 40.45 38.3 40.55 38.0 41.45 33.45 41.45 33.4 Q42.85 29.75 43.65 26.05 43.45 33.1 41.45 41.8 39.7 49.15 37.25 55.05 L36.95 55.8 35.6 58.75 35.55 58.9 34.95 59.9 33.8 61.75 32.5 63.45 31.0 64.9 29.35 66.2 29.3 66.2 M32.45 31.4 Q29.95 39.55 30.9 48.2 28.25 47.1 27.85 44.8 L27.25 41.05 Q27.35 32.85 29.35 25.45 L29.7 24.45 31.25 28.3 31.1 27.55 32.5 22.1 32.85 21.9 32.8 24.2 30.1 32.0 32.5 26.95 31.8 29.8 32.45 31.4 M105.4 14.0 Q107.9 26.0 107.75 38.15 107.6 47.35 109.4 56.45 112.0 69.85 123.8 74.8 L125.4 75.3 125.3 76.6 124.75 77.2 Q123.35 78.3 121.8 78.95 L118.35 80.35 Q116.05 81.2 113.55 80.95 L116.75 84.9 116.55 85.7 Q113.0 87.35 109.1 86.75 99.4 86.25 94.5 77.95 85.45 62.5 84.95 44.4 84.45 27.3 93.1 12.95 98.05 4.7 104.1 11.25 105.3 12.5 105.4 14.0 M87.75 43.4 Q88.15 58.3 93.95 71.8 99.05 83.85 112.4 84.0 L107.05 69.8 Q108.75 72.85 111.2 75.4 115.65 79.9 121.75 76.25 115.85 75.35 110.25 64.5 104.6 53.65 104.8 37.05 105.0 20.45 103.55 17.35 101.8 13.6 99.0 10.75 92.3 14.9 90.05 22.45 87.05 32.7 87.75 43.4 M61.8 48.95 L61.95 49.5 61.7 50.25 61.8 48.95 M63.55 56.7 L64.0 58.15 62.9 62.45 62.9 62.35 63.55 56.7 M65.15 60.95 L66.0 63.0 65.35 68.45 65.35 68.5 64.6 66.6 65.15 60.95 M47.65 61.2 L48.0 59.1 49.05 56.35 49.2 58.1 47.65 61.2" fill="#563a0a" fill-rule="evenodd" stroke="none"/>
    <path d="M62.9 23.4 L63.6 28.2 66.6 18.1 Q66.95 19.35 66.5 24.95 L64.45 30.95 Q63.35 34.3 62.25 41.0 L62.5 36.05 57.05 55.75 57.7 52.7 59.55 46.3 Q60.6 42.7 61.55 36.9 62.8 29.35 62.9 23.4 M48.65 20.65 L49.85 17.95 50.05 29.05 Q50.95 27.6 52.0 24.2 L52.25 26.75 52.85 18.9 52.85 18.85 52.95 15.5 54.1 18.5 Q54.8 21.35 54.8 23.55 L54.35 28.6 53.75 36.6 53.5 38.05 52.6 41.95 53.1 34.4 47.75 54.8 47.8 52.45 47.85 51.25 Q48.45 44.35 49.85 38.15 L52.3 27.7 46.05 44.35 Q46.5 42.65 47.65 33.25 L48.8 23.1 48.65 20.65 M56.95 24.6 L57.75 21.1 Q58.0 23.55 57.55 32.25 L57.6 35.7 Q57.6 34.8 58.25 32.4 58.95 29.65 59.5 28.4 L60.15 30.9 61.55 20.25 Q60.05 36.15 59.1 40.35 L57.5 46.7 58.9 40.3 60.05 32.75 54.0 51.35 55.6 39.35 53.25 47.5 Q56.35 30.65 56.95 24.6 M64.6 66.6 L65.35 68.5 64.95 71.45 Q64.6 70.05 64.6 66.6 M32.8 24.2 L32.8 24.25 32.5 26.95 30.1 32.0 32.8 24.2 M48.0 59.1 L47.65 61.2 46.35 63.55 46.7 62.0 46.5 63.05 48.0 59.1" fill="#986b20" fill-rule="evenodd" stroke="none"/>
    <path d="M52.85 18.9 L52.25 26.75 52.0 24.2 52.85 18.9" fill="#b6822d" fill-rule="evenodd" stroke="none"/>
    <path d="M57.0 48.55 Q56.3 50.95 55.85 54.1 55.4 57.05 55.4 58.85 L55.6 61.0 57.05 55.75 Q57.1 60.95 60.65 72.1 62.9 79.1 63.75 85.15 L63.75 85.2 63.3 83.9 Q62.35 81.1 60.95 78.45 59.7 76.15 57.4 76.0 55.95 79.1 56.75 82.5 L57.15 84.4 56.85 84.05 56.55 83.7 56.55 83.65 Q55.9 81.3 55.5 77.65 L54.8 67.15 55.5 56.05 Q55.5 52.2 57.0 48.55 M37.25 55.05 Q39.7 49.6 40.65 46.4 L44.0 32.45 Q44.15 34.55 43.3 40.2 42.4 46.45 41.1 50.9 43.5 45.65 45.25 38.65 L48.1 25.55 Q47.45 30.6 46.95 36.35 L45.85 44.85 46.05 44.45 Q44.65 50.0 43.1 52.25 L37.8 59.25 Q34.15 63.95 32.6 66.5 31.75 67.95 30.4 71.15 L30.45 70.9 Q31.6 66.8 33.5 63.05 L33.65 62.75 33.8 62.5 35.15 59.7 35.55 58.9 35.6 58.75 36.95 55.8 37.25 55.05 M53.25 47.5 L53.05 48.6 53.0 48.9 50.8 61.55 Q49.7 68.15 51.35 73.9 50.2 71.15 49.9 69.1 49.65 67.2 49.55 64.35 L49.3 59.55 49.2 58.1 Q50.5 55.35 53.25 47.5 M62.25 41.0 L61.8 48.95 61.45 47.85 62.25 41.0 M61.95 49.5 L66.3 32.95 63.55 56.7 Q62.75 51.95 61.95 49.5 M64.0 58.15 L67.45 44.35 65.15 60.95 64.0 58.15 M66.0 63.0 L67.35 51.75 Q67.55 55.75 66.95 65.5 L66.0 63.0 M66.95 65.55 L69.0 59.4 69.25 63.3 Q70.6 78.2 78.0 91.1 74.6 91.45 71.65 89.25 L70.4 88.5 Q70.8 76.55 66.95 65.55 M36.8 71.3 L39.65 65.4 47.55 50.9 47.75 51.15 47.85 51.25 47.8 52.4 47.75 52.65 47.65 52.9 47.35 54.1 46.4 57.4 Q45.4 60.8 45.4 61.6 L44.45 66.9 Q43.4 72.3 43.3 74.15 43.2 75.95 43.45 80.45 42.15 77.55 41.95 74.2 41.7 69.8 42.95 65.65 39.55 67.1 36.8 71.3 M48.9 54.6 L49.8 50.35 Q50.45 47.4 52.6 41.95 52.75 44.85 49.05 56.35 L48.9 54.6" fill="#ad7817" fill-rule="evenodd" stroke="none"/>
    <path d="M46.05 44.35 L52.3 27.7 49.85 38.15 Q48.45 44.35 47.85 51.25 L47.75 51.15 47.55 50.9 39.65 65.4 36.8 71.3 36.7 71.4 Q32.0 78.75 32.4 87.3 32.7 92.9 34.6 98.15 28.2 90.95 28.7 81.35 29.0 76.05 30.4 71.15 31.75 67.95 32.6 66.5 34.15 63.95 37.8 59.25 L43.1 52.25 Q44.65 50.0 46.05 44.45 L46.05 44.35 M47.8 52.45 L47.75 54.8 53.1 34.4 52.6 41.95 Q50.45 47.4 49.8 50.35 L48.9 54.6 48.0 59.1 46.5 63.05 46.7 62.0 46.35 63.55 47.65 61.2 Q45.8 73.9 48.25 86.8 45.0 84.0 43.45 80.45 43.2 75.95 43.3 74.15 43.4 72.3 44.45 66.9 L45.4 61.6 Q45.4 60.8 46.4 57.4 L47.35 54.1 47.65 52.9 47.75 52.65 47.8 52.4 47.8 52.45 M57.5 46.7 L57.0 48.55 Q55.5 52.2 55.5 56.05 L54.8 67.15 55.5 77.65 Q55.9 81.3 56.55 83.65 52.8 79.1 51.35 73.9 49.7 68.15 50.8 61.55 L53.0 48.9 53.05 48.6 53.25 47.5 55.6 39.35 54.0 51.35 60.05 32.75 58.9 40.3 57.5 46.7 M62.25 41.0 L61.45 47.85 Q61.1 52.55 61.45 55.75 61.75 59.0 62.9 62.35 L62.9 62.45 64.6 66.6 Q64.6 70.05 64.95 71.45 L65.35 68.5 65.35 68.45 65.5 68.95 Q70.15 86.25 65.85 98.65 L64.5 102.25 Q66.15 93.3 63.75 85.15 62.9 79.1 60.65 72.1 57.1 60.95 57.05 55.75 L62.5 36.05 62.25 41.0" fill="#d09426" fill-rule="evenodd" stroke="none"/>
    <path d="M72.25 48.65 L72.05 49.85 71.3 58.75 71.3 59.2 71.25 59.65 Q71.1 64.55 72.45 69.4 76.1 82.15 81.25 93.7 75.5 93.75 70.35 91.15 L69.35 96.55 Q67.5 105.05 61.4 110.9 L60.05 112.1 58.75 111.85 58.5 110.65 Q61.05 107.05 62.15 102.6 64.95 90.95 58.75 80.75 L60.5 89.0 Q58.75 89.8 57.2 88.35 50.3 81.9 48.8 72.55 50.25 83.05 52.1 92.25 L51.4 91.95 Q40.45 85.75 39.3 73.15 36.2 76.95 35.0 81.7 32.0 93.5 40.65 102.25 L40.0 103.2 Q37.15 103.3 35.25 101.45 20.55 87.15 28.75 67.5 L29.3 66.2 29.35 66.2 31.0 64.9 32.5 63.45 33.8 61.75 34.95 59.9 35.55 58.9 35.15 59.7 33.8 62.5 33.65 62.75 33.5 63.05 Q31.6 66.8 30.45 70.9 L30.4 71.15 Q29.0 76.05 28.7 81.35 28.2 90.95 34.6 98.15 32.7 92.9 32.4 87.3 32.0 78.75 36.7 71.4 L36.8 71.3 Q39.55 67.1 42.95 65.65 41.7 69.8 41.95 74.2 42.15 77.55 43.45 80.45 45.0 84.0 48.25 86.8 45.8 73.9 47.65 61.2 L49.2 58.1 49.3 59.55 49.55 64.35 Q49.65 67.2 49.9 69.1 50.2 71.15 51.35 73.9 52.8 79.1 56.55 83.65 L56.55 83.7 56.85 84.05 57.15 84.4 56.75 82.5 Q55.95 79.1 57.4 76.0 59.7 76.15 60.95 78.45 62.35 81.1 63.3 83.9 L63.75 85.2 63.75 85.15 Q66.15 93.3 64.5 102.25 L65.85 98.65 Q70.15 86.25 65.5 68.95 L65.35 68.45 66.0 63.0 66.95 65.5 66.95 65.55 Q70.8 76.55 70.4 88.5 L71.65 89.25 Q74.6 91.45 78.0 91.1 70.6 78.2 69.25 63.3 L69.0 59.4 69.0 59.35 69.35 58.1 70.15 55.55 70.9 53.05 71.65 50.5 72.25 48.65 M61.45 47.85 L61.8 48.95 61.7 50.25 61.95 49.5 Q62.75 51.95 63.55 56.7 L62.9 62.35 Q61.75 59.0 61.45 55.75 61.1 52.55 61.45 47.85 M62.9 62.45 L64.0 58.15 65.15 60.95 64.6 66.6 62.9 62.45 M48.9 54.6 L49.05 56.35 48.0 59.1 48.9 54.6" fill="#78520b" fill-rule="evenodd" stroke="none"/>
  </g>
</svg>
