<?xml version="1.0" encoding="UTF-8" standalone="no"?>
<svg xmlns:ffdec="https://www.free-decompiler.com/flash" xmlns:xlink="http://www.w3.org/1999/xlink" ffdec:objectType="shape" height="20.55px" width="27.7px" xmlns="http://www.w3.org/2000/svg">
  <g transform="matrix(1.0, 0.0, 0.0, 1.0, -1.75, -22.5)">
    <path d="M18.8 27.65 L15.8 28.85 11.55 30.9 9.75 26.05 12.85 24.45 16.0 23.55 16.2 23.5 18.8 27.65 M15.5 25.85 Q15.05 25.4 14.45 25.4 13.85 25.4 13.45 25.85 13.0 26.25 13.0 26.85 13.0 27.45 13.45 27.9 13.85 28.3 14.45 28.3 15.05 28.3 15.5 27.9 15.9 27.45 15.9 26.85 15.9 26.25 15.5 25.85" fill="#ffffff" fill-rule="evenodd" stroke="none"/>
    <path d="M21.2 27.05 L18.8 27.65 16.2 23.5 18.15 23.0 18.2 23.0 21.2 27.05 M11.55 30.9 L8.5 33.05 6.4 28.15 9.75 26.05 11.55 30.9" fill="#e0e0e0" fill-rule="evenodd" stroke="none"/>
    <path d="M21.7 22.5 L24.6 26.3 26.0 27.75 Q24.2 26.9 21.2 27.05 L18.2 23.0 21.7 22.5 M8.5 33.05 Q6.85 34.1 5.05 37.35 L2.75 32.35 Q3.35 30.95 4.9 29.45 L6.4 28.15 8.5 33.05 M6.65 41.2 Q5.5 40.35 5.5 39.1 5.5 35.1 13.15 31.15 19.55 27.85 22.45 27.85 25.35 27.85 26.75 29.0 27.75 29.8 27.75 30.75 27.75 32.25 27.2 32.95 L25.45 34.05 26.0 33.3 26.45 32.5 26.6 31.5 Q26.6 30.1 25.75 29.55 24.8 28.95 22.45 28.95 16.85 28.95 11.35 32.95 6.6 36.45 6.6 38.45 6.6 39.35 7.05 40.0 8.0 41.4 10.7 41.25 L9.4 41.65 8.0 41.75 6.65 41.2" fill="#b4b4b4" fill-rule="evenodd" stroke="none"/>
    <path d="M21.7 22.5 L23.5 22.5 28.75 29.35 Q29.45 30.2 29.45 30.85 L29.15 32.4 Q28.35 34.15 25.7 35.7 L22.6 30.1 Q14.2 30.5 9.2 36.2 L12.65 42.65 9.1 43.05 Q7.3 43.05 6.25 42.05 4.2 40.15 1.75 33.9 L2.75 32.35 5.05 37.35 Q6.85 34.1 8.5 33.05 L11.55 30.9 15.8 28.85 18.8 27.65 21.2 27.05 Q24.2 26.9 26.0 27.75 L24.6 26.3 21.7 22.5 M6.65 41.2 L8.0 41.75 9.4 41.65 10.7 41.25 Q8.0 41.4 7.05 40.0 6.6 39.35 6.6 38.45 6.6 36.45 11.35 32.95 16.85 28.95 22.45 28.95 24.8 28.95 25.75 29.55 26.6 30.1 26.6 31.5 L26.45 32.5 26.0 33.3 25.45 34.05 27.2 32.95 Q27.75 32.25 27.75 30.75 27.75 29.8 26.75 29.0 25.35 27.85 22.45 27.85 19.55 27.85 13.15 31.15 5.5 35.1 5.5 39.1 5.5 40.35 6.65 41.2" fill="#464646" fill-rule="evenodd" stroke="none"/>
  </g>
</svg>
