<?xml version="1.0" encoding="UTF-8" standalone="no"?>
<svg xmlns:ffdec="https://www.free-decompiler.com/flash" xmlns:xlink="http://www.w3.org/1999/xlink" ffdec:objectType="shape" height="84.45px" width="51.2px" xmlns="http://www.w3.org/2000/svg">
  <g transform="matrix(1.0, 0.0, 0.0, 1.0, -76.75, 8.85)">
    <path d="M124.65 73.6 L124.1 73.5 118.1 72.45 Q116.3 71.95 112.35 70.0 L107.05 66.65 102.85 63.05 Q99.05 59.7 96.7 55.6 L95.5 53.3 Q94.45 51.15 93.35 48.15 90.5 40.65 91.45 33.3 L91.6 32.05 Q92.95 24.1 92.6 17.65 92.25 11.2 91.55 7.15 90.8 3.1 91.4 1.9 L91.9 1.8 Q94.15 1.8 96.5 10.8 97.0 17.05 96.2 20.8 95.4 24.5 95.1 28.9 94.95 31.05 95.15 33.3 95.4 35.6 96.0 38.0 L96.3 33.3 Q96.8 28.1 98.5 24.3 100.85 18.75 100.6 13.35 100.3 7.9 98.3 3.85 L95.35 -2.25 95.85 -2.05 99.95 -0.15 102.65 2.1 104.4 3.75 104.4 3.7 102.0 -3.3 100.5 -5.7 99.9 -5.7 100.7 -5.7 101.7 -5.95 101.8 -6.05 103.65 -6.05 Q108.55 -4.35 111.85 -0.3 115.95 4.85 116.85 10.8 L117.1 13.7 Q117.25 21.4 114.85 30.85 L114.85 30.8 114.2 33.3 Q113.6 35.9 113.15 38.4 112.25 43.75 112.15 48.55 112.1 51.0 112.35 53.3 112.9 58.55 115.0 62.65 117.5 67.75 124.65 73.6 M112.2 16.9 Q112.45 13.8 112.0 10.8 111.45 7.55 110.0 4.5 107.8 -0.25 103.6 -3.5 103.85 -2.85 104.25 -2.25 107.6 3.25 106.45 9.8 L105.45 8.35 Q104.7 7.3 101.35 4.45 102.7 8.15 102.95 10.8 L103.6 14.95 Q104.7 20.9 102.05 29.9 L101.15 33.3 Q100.55 35.85 100.3 38.4 99.75 42.95 100.2 47.4 100.5 50.5 101.55 53.3 102.45 55.7 103.85 57.9 108.8 65.6 117.05 69.35 114.75 67.15 112.75 62.25 111.15 58.3 110.3 53.3 L109.95 50.85 Q109.1 44.3 109.8 39.0 L109.9 38.4 110.6 33.3 111.45 28.0 Q112.4 22.4 112.2 16.9" fill="#1e1e1e" fill-rule="evenodd" stroke="none"/>
    <path d="M127.65 74.05 L127.9 74.45 127.95 74.85 127.7 75.25 127.3 75.4 Q107.9 77.5 95.05 59.75 L94.7 64.8 94.5 65.3 Q94.3 65.5 94.0 65.5 L93.5 65.35 Q88.0 61.25 85.2 56.1 L83.9 53.3 Q82.95 50.8 82.4 47.65 L82.0 45.15 81.95 44.8 81.7 42.25 81.05 36.05 80.65 33.3 80.45 32.3 80.35 31.8 79.0 25.15 Q76.9 16.4 76.75 9.6 76.6 2.55 82.0 -3.45 87.4 -9.45 97.45 -8.8 107.45 -8.2 113.0 -1.25 117.5 4.35 118.4 10.8 L118.6 13.65 Q118.75 21.5 116.3 31.2 L115.75 33.3 114.7 38.4 Q113.75 43.75 113.65 48.6 113.6 51.05 113.85 53.3 114.4 58.15 116.35 61.95 L116.35 62.0 Q119.15 67.55 127.65 74.05 M124.65 73.6 Q117.5 67.75 115.0 62.65 112.9 58.55 112.35 53.3 112.1 51.0 112.15 48.55 112.25 43.75 113.15 38.4 113.6 35.9 114.2 33.3 L114.85 30.8 114.85 30.85 Q117.25 21.4 117.1 13.7 L116.85 10.8 Q115.95 4.85 111.85 -0.3 108.55 -4.35 103.65 -6.05 L100.55 -6.9 97.35 -7.3 Q88.1 -7.95 83.1 -2.45 78.1 3.05 78.25 9.55 78.4 16.2 80.45 24.8 L81.9 31.8 81.95 32.3 82.15 33.3 82.55 36.05 83.2 42.15 83.45 44.8 83.5 45.15 83.9 47.65 Q84.5 50.8 85.5 53.3 L86.5 55.4 Q88.9 59.75 93.3 63.3 L93.7 57.7 Q92.6 55.5 91.8 53.3 90.7 50.45 90.05 47.65 L89.9 46.85 90.4 47.85 93.2 53.3 95.1 57.15 Q104.15 70.7 116.9 73.45 L125.25 74.05 124.65 73.6" fill="#0b0b0b" fill-rule="evenodd" stroke="none"/>
    <path d="M103.65 -6.05 L101.8 -6.05 101.7 -5.95 100.7 -5.7 99.9 -5.7 100.5 -5.7 102.0 -3.3 104.4 3.7 104.4 3.75 102.65 2.1 99.95 -0.15 95.85 -2.05 95.35 -2.25 98.3 3.85 Q100.3 7.9 100.6 13.35 100.85 18.75 98.5 24.3 96.8 28.1 96.3 33.3 L96.0 38.0 Q95.4 35.6 95.15 33.3 94.95 31.05 95.1 28.9 95.4 24.5 96.2 20.8 97.0 17.05 96.5 10.8 94.15 1.8 91.9 1.8 L91.4 1.9 Q90.8 3.1 91.55 7.15 92.25 11.2 92.6 17.65 92.95 24.1 91.6 32.05 L91.45 33.3 Q90.5 40.65 93.35 48.15 94.45 51.15 95.5 53.3 L96.7 55.6 Q99.05 59.7 102.85 63.05 L107.05 66.65 112.35 70.0 Q116.3 71.95 118.1 72.45 L124.1 73.5 124.65 73.6 125.25 74.05 116.9 73.45 Q104.15 70.7 95.1 57.15 L93.2 53.3 90.4 47.85 89.9 46.85 90.05 47.65 Q90.7 50.45 91.8 53.3 92.6 55.5 93.7 57.7 L93.3 63.3 Q88.9 59.75 86.5 55.4 L85.5 53.3 Q84.5 50.8 83.9 47.65 L83.5 45.15 83.45 44.8 83.2 42.15 82.55 36.05 82.15 33.3 81.95 32.3 81.9 31.8 80.45 24.8 Q78.4 16.2 78.25 9.55 78.1 3.05 83.1 -2.45 88.1 -7.95 97.35 -7.3 L100.55 -6.9 103.65 -6.05" fill="#151515" fill-rule="evenodd" stroke="none"/>
    <path d="M112.2 16.9 Q112.4 22.4 111.45 28.0 L110.6 33.3 109.9 38.4 109.8 39.0 Q109.1 44.3 109.95 50.85 L110.3 53.3 Q111.15 58.3 112.75 62.25 114.75 67.15 117.05 69.35 108.8 65.6 103.85 57.9 102.45 55.7 101.55 53.3 100.5 50.5 100.2 47.4 99.75 42.95 100.3 38.4 100.55 35.85 101.15 33.3 L102.05 29.9 Q104.7 20.9 103.6 14.95 L102.95 10.8 Q102.7 8.15 101.35 4.45 104.7 7.3 105.45 8.35 L106.45 9.8 Q107.6 3.25 104.25 -2.25 103.85 -2.85 103.6 -3.5 107.8 -0.25 110.0 4.5 111.45 7.55 112.0 10.8 112.45 13.8 112.2 16.9" fill="#272727" fill-rule="evenodd" stroke="none"/>
  </g>
</svg>
