<?xml version="1.0" encoding="UTF-8" standalone="no"?>
<svg xmlns:ffdec="https://www.free-decompiler.com/flash" xmlns:xlink="http://www.w3.org/1999/xlink" ffdec:objectType="shape" height="22.5px" width="28.1px" xmlns="http://www.w3.org/2000/svg">
  <g transform="matrix(1.0, 0.0, 0.0, 1.0, 7.25, 8.2)">
    <path d="M11.55 -6.95 L13.35 -6.3 Q15.35 -5.35 16.95 -3.75 L17.35 -2.1 17.05 -3.15 16.8 -2.55 16.35 -1.2 15.2 -0.05 14.2 0.85 Q13.65 1.05 12.7 1.55 L10.25 2.45 7.35 2.95 Q5.1 3.5 5.1 4.2 L5.3 4.75 6.75 5.05 6.7 5.1 6.8 5.25 7.1 5.25 7.8 4.95 10.5 4.95 11.55 5.7 12.35 6.3 12.2 6.05 12.4 6.5 12.2 6.95 Q11.35 7.25 9.7 8.25 L6.3 8.9 Q5.35 9.1 5.35 9.8 5.35 10.35 6.35 10.55 7.3 10.8 7.3 11.15 7.3 12.15 4.6 12.65 L1.45 13.2 1.25 13.2 Q-0.9 12.9 -2.3 12.1 -2.7 11.55 -2.7 10.95 -2.7 10.35 -1.0 9.9 0.7 9.5 0.7 8.85 0.7 8.3 -0.8 7.45 -2.3 6.6 -2.3 6.1 -2.3 5.45 -0.1 5.25 2.05 5.05 2.05 4.35 2.05 3.5 0.4 2.65 L-2.55 1.3 Q-3.4 0.85 -3.75 -0.55 L-3.65 -0.35 -3.35 -1.8 -3.25 -1.6 -3.25 -1.65 -2.5 0.35 -2.5 0.4 Q-2.2 1.2 5.35 1.85 3.4 1.95 5.8 1.9 8.2 1.8 10.3 0.85 L12.95 -0.5 13.05 -0.5 13.45 -0.75 Q15.9 -1.85 16.3 -2.75 L16.35 -2.5 16.35 -3.55 Q15.5 -4.6 13.8 -5.35 L11.45 -6.1 11.55 -6.95 M-3.45 -4.25 Q-2.85 -5.4 -0.95 -6.3 0.0 -6.75 1.1 -7.0 L1.1 -5.8 -1.15 -5.25 -1.4 -5.15 Q-2.6 -5.1 -3.5 -4.1 L-3.35 -4.3 -3.45 -4.25 M2.7 1.95 L2.2 2.15 Q1.85 2.4 1.85 2.7 L2.05 3.1 3.7 3.3 5.3 3.1 5.45 2.75 Q5.45 1.95 2.7 1.95 M7.4 2.0 Q6.95 1.8 6.6 2.2 L6.6 2.75 6.95 2.8 7.25 2.65 7.45 2.35 7.4 2.0 M2.25 7.8 L1.85 8.1 1.85 8.6 2.3 8.65 3.9 8.55 4.2 8.1 3.9 7.9 2.25 7.8 M7.8 6.4 Q7.8 5.7 4.9 5.35 1.95 5.05 1.95 6.25 1.95 7.15 4.85 7.15 7.8 7.15 7.8 6.4 M4.05 10.25 Q4.05 9.65 2.15 9.85 0.2 10.0 0.2 10.5 L0.55 11.1 1.0 11.55 2.25 11.55 Q4.05 11.1 4.05 10.25" fill="#e0e0e0" fill-rule="evenodd" stroke="none"/>
    <path d="M17.35 -2.1 Q18.65 3.65 19.2 3.0 L19.25 3.1 19.65 3.9 19.5 5.9 Q19.15 7.4 14.45 10.55 L12.25 11.9 11.55 12.35 6.8 13.2 Q7.95 12.45 9.75 11.9 L11.6 11.4 12.45 10.75 14.0 9.4 15.7 8.05 16.95 6.9 Q18.05 5.85 18.05 5.4 L18.0 5.15 17.4 5.15 16.7 5.55 15.9 5.8 15.35 5.75 15.35 5.25 15.85 4.3 16.35 3.1 Q16.35 2.2 15.25 1.65 L14.55 1.3 14.1 1.05 14.15 0.95 14.2 0.85 15.2 -0.05 16.35 -1.2 16.8 -2.55 17.05 -3.15 17.35 -2.1 M-5.8 2.7 L-5.5 0.85 Q-5.25 1.1 -5.25 1.6 -5.25 2.5 -5.8 2.7 M-4.65 -1.75 L-4.4 -2.2 -4.25 -2.45 -4.3 -2.2 -4.35 -2.1 -4.45 -1.95 -4.5 -1.7 -4.5 -1.55 -4.65 -1.75 M-3.5 -4.1 L-3.45 -4.25 -3.35 -4.3 -3.5 -4.1 M1.1 -5.8 L1.1 -3.7 Q-1.95 -2.5 -1.65 -0.95 L-1.75 -0.9 -1.85 -0.9 -1.95 -0.9 Q-2.15 -0.9 -2.9 -1.8 L-3.3 -2.3 -3.35 -2.05 -3.35 -2.0 -3.25 -1.65 -3.25 -1.6 -3.35 -1.8 -3.4 -1.9 Q-3.2 -3.4 -2.6 -4.05 L-2.0 -4.85 -2.0 -4.9 -1.4 -5.15 -1.15 -5.25 1.1 -5.8 M11.05 -3.1 L11.45 -6.1 13.8 -5.35 Q15.5 -4.6 16.35 -3.55 L16.35 -2.5 16.3 -2.75 Q15.9 -1.85 13.45 -0.75 L14.2 -1.4 15.1 -2.4 15.2 -2.7 15.15 -3.0 14.25 -2.15 Q13.15 -1.3 12.4 -1.3 L11.6 -2.3 11.05 -3.1 M14.6 2.85 L14.35 3.2 13.8 3.45 13.4 3.2 13.4 2.95 Q13.4 1.95 14.05 2.1 14.6 2.2 14.6 2.85 M14.55 6.7 L15.1 6.7 15.3 7.1 Q15.3 7.5 14.95 7.7 L14.7 7.75 14.45 7.7 Q14.05 7.7 14.0 7.5 L14.0 7.35 14.1 7.05 14.55 6.7 M-5.25 5.4 L-5.5 5.85 -5.9 5.85 -6.1 5.35 Q-6.1 4.75 -5.65 4.8 -5.25 4.85 -5.25 5.4" fill="#8a8a8a" fill-rule="evenodd" stroke="none"/>
    <path d="M1.1 -3.7 L1.1 -2.85 Q-0.4 -1.8 -1.25 -0.15 4.6 1.55 6.45 1.0 L11.05 -0.6 11.0 -0.55 11.45 -0.8 10.9 -2.1 11.05 -3.1 11.6 -2.3 12.4 -1.3 Q13.15 -1.3 14.25 -2.15 L15.15 -3.0 15.2 -2.7 15.1 -2.4 14.2 -1.4 13.45 -0.75 13.05 -0.5 12.95 -0.5 10.3 0.85 Q8.2 1.8 5.8 1.9 3.4 1.95 5.35 1.85 -2.2 1.2 -2.5 0.4 L-2.5 0.35 -3.25 -1.65 -3.35 -2.0 -3.35 -2.05 -3.3 -2.3 -2.9 -1.8 Q-2.15 -0.9 -1.95 -0.9 L-1.85 -0.9 -1.75 -0.9 -1.65 -0.95 Q-1.95 -2.5 1.1 -3.7" fill="#454545" fill-rule="evenodd" stroke="none"/>
    <path d="M7.4 2.0 L7.45 2.35 7.25 2.65 6.95 2.8 6.6 2.75 6.6 2.2 Q6.95 1.8 7.4 2.0 M2.7 1.95 Q5.45 1.95 5.45 2.75 L5.3 3.1 3.7 3.3 2.05 3.1 1.85 2.7 Q1.85 2.4 2.2 2.15 L2.7 1.95 M4.05 10.25 Q4.05 11.1 2.25 11.55 L1.0 11.55 0.55 11.1 0.2 10.5 Q0.2 10.0 2.15 9.85 4.05 9.65 4.05 10.25 M7.8 6.4 Q7.8 7.15 4.85 7.15 1.95 7.15 1.95 6.25 1.95 5.05 4.9 5.35 7.8 5.7 7.8 6.4" fill="#ffffff" fill-rule="evenodd" stroke="none"/>
    <path d="M6.8 13.2 L5.4 13.3 1.6 13.25 1.45 13.2 4.6 12.65 Q7.3 12.15 7.3 11.15 7.3 10.8 6.35 10.55 5.35 10.35 5.35 9.8 5.35 9.1 6.3 8.9 L9.7 8.25 Q11.35 7.25 12.2 6.95 L12.4 6.5 12.2 6.05 12.35 6.3 11.55 5.7 10.5 4.95 7.8 4.95 7.1 5.25 6.8 5.25 6.7 5.1 6.75 5.05 5.3 4.75 5.1 4.2 Q5.1 3.5 7.35 2.95 L10.25 2.45 12.7 1.55 Q13.65 1.05 14.2 0.85 L14.15 0.95 14.1 1.05 14.55 1.3 15.25 1.65 Q16.35 2.2 16.35 3.1 L15.85 4.3 15.35 5.25 15.35 5.75 15.9 5.8 16.7 5.55 17.4 5.15 18.0 5.15 18.05 5.4 Q18.05 5.85 16.95 6.9 L15.7 8.05 14.0 9.4 12.45 10.75 11.6 11.4 9.75 11.9 Q7.95 12.45 6.8 13.2 M-2.3 12.1 L-3.3 11.4 -4.65 9.55 Q-6.05 6.45 -6.1 5.5 L-6.0 4.05 -5.95 3.85 -5.8 2.7 Q-5.25 2.5 -5.25 1.6 -5.25 1.1 -5.5 0.85 L-5.2 -0.1 -5.05 -0.65 -4.95 -0.85 -4.8 -1.3 -4.65 -1.75 -4.5 -1.55 -4.5 -1.7 -4.45 -1.95 -4.35 -2.1 -4.3 -2.2 -4.25 -2.45 -3.8 -3.45 -3.6 -3.75 -3.55 -4.05 -3.5 -4.1 Q-2.6 -5.1 -1.4 -5.15 L-2.0 -4.9 -2.0 -4.85 -2.6 -4.05 Q-3.2 -3.4 -3.4 -1.9 L-3.35 -1.8 -3.65 -0.35 -3.75 -0.55 Q-3.4 0.85 -2.55 1.3 L0.4 2.65 Q2.05 3.5 2.05 4.35 2.05 5.05 -0.1 5.25 -2.3 5.45 -2.3 6.1 -2.3 6.6 -0.8 7.45 0.7 8.3 0.7 8.85 0.7 9.5 -1.0 9.9 -2.7 10.35 -2.7 10.95 -2.7 11.55 -2.3 12.1 M14.55 6.7 L14.1 7.05 14.0 7.35 14.0 7.5 Q14.05 7.7 14.45 7.7 L14.7 7.75 14.95 7.7 Q15.3 7.5 15.3 7.1 L15.1 6.7 14.55 6.7 M14.6 2.85 Q14.6 2.2 14.05 2.1 13.4 1.95 13.4 2.95 L13.4 3.2 13.8 3.45 14.35 3.2 14.6 2.85 M2.25 7.8 L3.9 7.9 4.2 8.1 3.9 8.55 2.3 8.65 1.85 8.6 1.85 8.1 2.25 7.8 M-5.25 5.4 Q-5.25 4.85 -5.65 4.8 -6.1 4.75 -6.1 5.35 L-5.9 5.85 -5.5 5.85 -5.25 5.4" fill="#b4b4b4" fill-rule="evenodd" stroke="none"/>
    <path d="M11.55 -6.95 L11.6 -8.15 13.8 -7.35 Q16.1 -6.3 17.85 -4.45 L18.0 -4.25 20.25 2.5 20.8 3.7 20.65 6.15 Q20.4 7.95 15.05 11.55 11.6 13.8 4.8 14.25 -2.0 14.7 -4.55 11.1 -7.1 7.45 -7.2 5.95 -7.35 4.4 -7.05 3.7 -6.9 -0.25 -4.7 -4.15 L-4.65 -4.35 Q-4.1 -6.1 -1.4 -7.35 L1.1 -8.2 1.1 -7.0 Q0.0 -6.75 -0.95 -6.3 -2.85 -5.4 -3.45 -4.25 L-3.5 -4.1 -3.55 -4.05 -3.6 -3.75 -3.8 -3.45 -4.25 -2.45 -4.4 -2.2 -4.65 -1.75 -4.8 -1.3 -4.95 -0.85 -5.05 -0.65 -5.2 -0.1 -5.5 0.85 -5.8 2.7 -5.95 3.85 -6.0 4.05 -6.1 5.5 Q-6.05 6.45 -4.65 9.55 L-3.3 11.4 -2.3 12.1 Q-0.9 12.9 1.25 13.2 L1.45 13.2 1.6 13.25 5.4 13.3 6.8 13.2 11.55 12.35 12.25 11.9 14.45 10.55 Q19.15 7.4 19.5 5.9 L19.65 3.9 19.25 3.1 19.2 3.0 Q18.65 3.65 17.35 -2.1 L16.95 -3.75 Q15.35 -5.35 13.35 -6.3 L11.55 -6.95" fill="#464646" fill-rule="evenodd" stroke="none"/>
  </g>
</svg>
