<?xml version="1.0" encoding="UTF-8" standalone="no"?>
<svg xmlns:ffdec="https://www.free-decompiler.com/flash" xmlns:xlink="http://www.w3.org/1999/xlink" ffdec:objectType="shape" height="178.8px" width="146.1px" xmlns="http://www.w3.org/2000/svg">
  <g transform="matrix(1.0, 0.0, 0.0, 1.0, 87.9, 132.55)">
    <path d="M3.2 -80.4 Q6.45 -74.6 10.7 -70.3 14.3 -66.8 20.4 -63.15 L20.35 -63.15 21.45 -62.5 23.2 -58.95 21.0 -60.3 20.45 -60.35 19.95 -60.05 19.9 -59.45 Q19.95 -59.15 20.2 -59.0 L22.85 -57.45 23.4 -57.35 23.8 -57.6 Q29.85 -43.7 31.5 -24.75 L32.0 -18.35 31.8 -18.2 29.95 -16.45 Q29.3 -15.95 27.45 -15.1 18.95 -11.45 12.65 -10.7 11.3 -10.6 10.85 -10.0 L10.4 -9.45 9.6 -9.3 Q9.0 -9.3 8.95 -8.9 8.8 -8.45 9.65 -8.2 L14.35 -8.1 22.7 -9.1 29.95 -10.65 32.45 -11.25 32.55 -8.95 32.6 -7.45 32.7 -5.65 26.95 -3.85 18.9 -2.5 7.15 -1.15 -4.85 -0.85 -17.05 -0.7 Q-19.55 -0.7 -20.4 -1.7 L-20.6 -1.95 -21.0 -3.35 -21.05 -4.0 -21.05 -4.1 -20.65 -5.5 Q-17.5 -16.75 -16.15 -27.95 -14.65 -41.1 -15.8 -57.0 -16.25 -63.0 -18.1 -67.95 L-17.25 -67.55 -16.1 -67.4 -16.0 -67.4 -15.6 -66.1 -15.25 -65.65 -14.7 -65.55 Q-14.4 -65.65 -14.25 -65.9 L-14.15 -66.5 -14.4 -67.35 -12.7 -67.3 Q-7.8 -67.3 -4.35 -68.6 0.05 -70.35 1.85 -74.0 L2.7 -76.2 2.95 -76.3 3.25 -76.8 3.15 -77.35 2.95 -77.65 3.2 -80.4 M7.45 -71.9 L5.5 -74.2 5.0 -74.5 4.45 -74.3 4.15 -73.8 Q4.1 -73.5 4.3 -73.25 L6.3 -70.9 Q6.5 -70.65 6.8 -70.65 L7.35 -70.8 7.6 -71.35 7.45 -71.9 M12.25 -66.9 L10.15 -68.95 9.65 -69.2 9.1 -69.0 8.85 -68.45 9.05 -67.9 11.25 -65.8 Q11.45 -65.6 11.8 -65.6 12.1 -65.6 12.3 -65.85 L12.5 -66.35 12.25 -66.9 M17.65 -62.5 L15.3 -64.35 14.75 -64.5 14.25 -64.2 Q14.0 -64.0 14.05 -63.65 L14.35 -63.15 16.75 -61.3 17.3 -61.15 17.8 -61.45 17.95 -62.0 17.65 -62.5 M-13.75 -18.75 L-14.1 -13.9 Q-14.1 -10.4 -12.95 -8.0 -12.3 -6.8 -11.5 -6.3 L-10.4 -6.0 Q-9.8 -6.05 -9.4 -6.4 -8.85 -6.9 -8.7 -8.45 -8.6 -10.0 -8.0 -10.45 L-6.5 -10.9 Q6.85 -12.35 18.9 -18.15 22.75 -19.95 24.15 -22.0 25.15 -23.4 25.25 -25.1 25.3 -26.9 24.2 -28.1 23.05 -29.35 19.9 -29.85 L11.0 -31.5 Q12.6 -32.55 16.2 -34.0 19.45 -35.55 20.5 -37.7 21.3 -39.35 21.05 -41.7 20.75 -43.75 19.75 -44.55 18.95 -45.25 17.0 -45.45 L11.75 -46.15 Q10.4 -46.35 10.35 -47.1 13.8 -47.5 15.95 -51.35 17.65 -54.5 16.85 -57.1 15.9 -60.25 12.2 -61.55 8.4 -62.95 2.45 -61.65 -1.4 -60.9 -5.85 -59.25 -10.25 -57.6 -11.95 -55.3 L-12.4 -54.6 -12.4 -55.05 -12.6 -55.55 -13.15 -55.8 -13.65 -55.55 -13.9 -55.05 -13.9 -54.45 -13.9 -54.4 -13.8 -52.1 -13.55 -51.6 -13.5 -51.55 -13.9 -49.05 Q-14.4 -44.05 -13.85 -34.6 L-13.8 -34.1 -13.85 -33.95 -14.05 -30.95 -13.85 -30.4 -13.65 -30.2 -13.55 -27.6 -14.1 -27.4 -14.4 -26.9 -14.7 -23.9 -14.5 -23.35 Q-14.35 -23.15 -14.0 -23.1 -13.75 -23.1 -13.5 -23.25 L-13.65 -20.15 -13.65 -19.95 -13.8 -20.25 -14.3 -20.55 -14.85 -20.4 -15.15 -19.9 -15.55 -16.9 -15.4 -16.35 -14.9 -16.05 -14.35 -16.2 -14.05 -16.7 -13.75 -18.75 M-12.85 -59.3 L-13.3 -62.35 -13.6 -62.85 -14.15 -63.0 -14.65 -62.65 -14.8 -62.1 -14.35 -59.1 -14.05 -58.6 -13.5 -58.45 Q-13.2 -58.5 -13.0 -58.75 L-12.85 -59.3 M-78.5 -25.2 L-78.6 -22.5 -80.4 -21.25 -78.5 -25.2 M-15.2 -9.6 L-14.7 -12.65 -14.85 -13.2 -15.3 -13.55 -15.85 -13.4 -16.2 -12.9 -16.7 -9.85 -16.55 -9.3 -16.05 -9.0 Q-15.75 -8.95 -15.5 -9.15 L-15.2 -9.6 M-16.5 -2.55 L-15.9 -5.55 -16.0 -6.1 Q-16.2 -6.35 -16.5 -6.4 L-17.05 -6.3 -17.35 -5.85 -17.95 -2.85 -17.85 -2.25 -17.4 -1.95 -16.8 -2.05 -16.5 -2.55" fill="#dedede" fill-rule="evenodd" stroke="none"/>
    <path d="M6.1 -124.95 Q1.8 -128.25 -1.7 -129.4 L-2.1 -129.55 -2.55 -129.65 Q-10.2 -131.8 -15.65 -130.75 L-21.95 -129.35 -22.0 -129.35 -22.8 -128.95 Q-24.95 -127.95 -26.85 -126.65 L-30.5 -123.6 -30.55 -123.6 -39.45 -114.8 Q-47.6 -106.75 -59.6 -93.65 L-61.5 -91.2 -61.6 -91.25 -61.7 -91.25 -62.2 -91.1 -64.1 -89.65 -64.4 -89.1 -64.2 -88.55 -63.95 -88.35 -63.8 -88.3 -65.85 -85.65 -66.2 -85.1 Q-59.0 -91.9 -46.25 -94.85 -41.65 -96.2 -37.9 -101.15 L-37.85 -101.15 -30.4 -110.5 -33.85 -103.7 -37.1 -97.3 Q-37.75 -95.15 -37.35 -92.9 -36.85 -90.2 -34.75 -87.5 L-34.75 -87.45 -34.25 -86.85 -32.45 -84.95 Q-30.85 -83.4 -28.65 -81.8 -23.3 -77.9 -20.15 -72.35 -19.0 -70.25 -18.1 -67.95 -16.25 -63.0 -15.8 -57.0 -14.65 -41.1 -16.15 -27.95 -17.5 -16.75 -20.65 -5.5 L-21.05 -4.1 -21.05 -4.0 -21.15 -3.75 -21.75 -1.75 -21.75 -1.65 Q-21.85 -0.95 -21.6 -0.4 L-13.65 7.85 -5.3 0.8 -4.8 0.6 Q-4.55 0.6 -4.35 0.8 L3.6 8.1 11.75 0.15 12.25 -0.05 12.75 0.15 20.15 6.55 27.6 -2.05 27.65 -2.1 27.95 -2.25 28.35 -2.25 28.4 -2.25 28.7 -2.05 34.4 3.9 39.95 -5.1 40.3 -5.4 40.75 -5.4 41.15 -5.15 45.4 -0.15 45.75 -0.9 49.95 -9.55 50.35 -9.95 50.9 -9.9 56.65 -7.4 Q56.8 -11.25 56.35 -15.1 L55.85 -18.45 55.55 -18.05 55.4 -21.2 Q49.75 -48.7 46.05 -57.7 38.0 -78.2 31.1 -91.95 L31.25 -92.2 31.25 -92.75 30.05 -95.55 Q29.9 -95.85 29.6 -95.95 L29.1 -95.95 Q22.4 -108.65 16.85 -114.75 L16.2 -115.45 Q11.4 -120.65 7.25 -124.0 L7.1 -124.15 6.1 -124.95 M-70.0 -81.35 L-66.5 -87.4 Q-64.05 -91.0 -60.7 -94.65 -48.7 -107.75 -40.5 -115.85 L-31.55 -124.65 -31.55 -124.7 Q-27.75 -128.5 -22.6 -130.7 L-22.65 -130.7 Q-21.75 -131.2 -15.9 -132.25 L-15.95 -132.2 Q-10.2 -133.3 -2.15 -131.1 L-1.8 -131.0 0.1 -130.3 Q7.45 -127.25 17.95 -115.75 30.0 -102.5 47.45 -58.25 51.15 -49.2 56.85 -21.5 L57.1 -19.7 57.2 -19.45 57.4 -18.4 Q58.45 -12.35 58.1 -6.25 L57.95 -5.8 57.55 -5.55 57.05 -5.6 55.05 -6.5 53.55 -7.15 51.0 -8.25 47.0 -0.05 46.25 1.55 46.05 1.8 45.9 1.9 45.55 1.95 45.4 1.95 45.0 1.7 44.3 0.85 40.65 -3.4 36.85 2.7 35.8 4.45 35.3 5.2 35.15 5.5 34.8 5.8 34.35 5.85 33.95 5.65 33.4 5.05 33.3 4.95 32.05 3.65 28.2 -0.4 23.55 4.95 22.05 6.65 22.0 6.7 20.8 8.1 20.25 8.35 19.7 8.2 18.4 7.05 16.85 5.7 12.3 1.75 7.45 6.45 5.8 8.05 4.15 9.65 3.6 9.85 Q3.3 9.85 3.1 9.65 L1.55 8.25 0.0 6.8 -4.85 2.35 -10.4 7.05 -12.2 8.55 -12.35 8.7 -13.25 9.45 -13.8 9.6 Q-14.1 9.6 -14.3 9.4 L-14.45 9.2 -15.05 8.55 -16.5 7.05 -22.85 0.45 -22.9 0.5 -22.95 0.4 -23.1 0.25 -23.3 -0.3 -23.25 -0.55 -23.3 -1.65 -23.25 -2.05 -23.2 -2.15 -22.65 -4.05 -22.2 -5.55 Q-19.05 -16.85 -17.65 -28.15 -16.15 -41.15 -17.3 -56.9 -18.45 -72.45 -29.55 -80.6 -37.35 -86.3 -38.75 -91.95 -39.1 -93.45 -39.05 -94.9 -41.5 -92.45 -44.95 -91.55 L-45.0 -91.55 Q-68.55 -86.7 -71.8 -66.85 L-71.25 -63.6 -71.2 -63.15 -71.3 -62.65 -71.65 -62.35 -72.15 -62.35 -72.5 -62.45 Q-75.4 -63.55 -75.15 -67.7 L-75.15 -67.75 Q-74.15 -74.3 -70.95 -79.25 L-70.9 -79.35 -70.0 -81.35 M31.65 29.35 Q13.75 45.7 -11.15 46.25 -36.25 46.75 -54.95 30.9 L-54.25 31.15 -53.55 31.45 -53.15 31.6 -50.25 32.65 Q-33.3 45.2 -11.2 44.75 10.6 44.25 26.9 31.4 L29.35 30.4 29.65 30.25 30.9 29.7 31.65 29.35 M-81.95 -20.4 Q-79.95 -24.35 -78.25 -28.2 L-78.5 -25.2 -80.4 -21.25 -81.4 -20.2 -81.95 -20.4 M-45.85 -93.4 Q-62.65 -89.5 -69.5 -78.8 L-69.55 -78.7 -69.6 -78.65 Q-72.25 -74.55 -73.3 -69.35 L-73.65 -67.5 Q-73.75 -65.8 -73.1 -64.75 L-73.0 -64.65 -73.35 -66.7 -73.35 -66.95 Q-72.55 -72.05 -70.5 -76.15 L-70.45 -76.25 Q-64.0 -89.15 -45.3 -93.0 -41.0 -94.1 -38.45 -98.0 L-38.35 -98.1 -38.0 -98.65 Q-41.6 -94.6 -45.85 -93.4 M-49.8 -66.3 Q-48.85 -66.3 -47.85 -65.1 L-46.55 -63.15 -46.4 -62.7 Q-45.9 -61.2 -46.35 -59.8 L-46.35 -59.85 Q-46.7 -58.4 -48.55 -58.05 L-48.6 -58.05 -48.8 -58.05 -49.05 -58.0 Q-51.05 -57.85 -51.7 -59.2 L-51.7 -59.15 Q-52.45 -60.35 -52.3 -61.95 L-52.3 -62.0 -52.25 -62.4 -52.2 -62.6 -52.2 -62.65 Q-52.05 -63.75 -51.55 -64.65 -50.85 -66.05 -49.9 -66.25 L-49.8 -66.3 M-57.75 -20.45 L-56.95 -22.35 -56.8 -22.55 Q-55.95 -23.9 -55.0 -24.0 L-54.9 -24.0 Q-53.95 -23.9 -53.05 -22.65 -52.15 -21.55 -51.9 -20.05 -51.6 -18.7 -52.0 -17.55 L-52.15 -17.2 -52.15 -17.25 Q-52.6 -15.85 -54.5 -15.7 L-54.55 -15.7 -54.8 -15.7 -55.0 -15.7 Q-57.0 -15.75 -57.55 -17.15 L-57.55 -17.1 Q-58.15 -18.4 -57.85 -19.95 L-57.75 -20.45 M-53.75 -42.2 L-53.7 -42.25 -53.45 -42.7 -52.35 -44.0 Q-51.2 -45.1 -50.25 -44.95 L-50.15 -44.95 Q-49.4 -44.65 -48.9 -43.6 L-48.7 -43.1 Q-48.1 -41.85 -48.2 -40.35 -48.25 -38.8 -49.2 -37.6 L-49.15 -37.65 Q-50.0 -36.45 -51.85 -36.8 L-51.9 -36.8 -52.1 -36.85 -52.35 -36.9 Q-54.25 -37.45 -54.4 -38.9 L-54.45 -38.85 -54.45 -40.2 -54.0 -41.75 -53.75 -42.2 M-47.35 -84.0 L-47.3 -84.05 -47.25 -84.15 -47.2 -84.2 -47.05 -84.45 -46.9 -84.65 -45.45 -86.05 Q-44.2 -87.0 -43.3 -86.75 L-43.2 -86.7 -42.4 -85.95 Q-42.1 -85.5 -41.95 -84.75 -41.5 -83.4 -41.8 -81.95 L-41.95 -81.1 Q-42.3 -80.1 -43.0 -79.4 L-43.0 -79.45 Q-44.0 -78.25 -45.8 -78.8 L-45.85 -78.85 -46.05 -78.9 -46.25 -79.0 Q-47.6 -79.55 -47.95 -80.55 L-48.1 -81.25 -48.1 -81.3 Q-48.2 -82.65 -47.4 -83.95 L-47.35 -84.0 M-43.75 -79.95 L-43.65 -80.05 -42.95 -81.2 -42.7 -82.05 Q-42.55 -83.3 -42.85 -84.4 L-42.8 -84.45 -43.4 -85.65 -43.55 -85.8 -44.1 -85.7 -44.15 -85.7 -44.65 -85.4 -44.75 -85.45 -44.75 -85.4 -44.95 -85.25 -45.0 -85.2 -45.4 -84.9 -46.6 -83.45 Q-47.2 -82.5 -47.15 -81.35 L-47.0 -80.9 Q-46.75 -80.3 -45.85 -79.9 L-45.7 -79.85 -45.5 -79.8 -45.35 -79.75 -45.25 -79.7 -45.15 -79.65 -44.4 -79.65 Q-44.05 -79.75 -43.75 -79.95 M-47.5 -59.65 L-47.2 -60.15 Q-46.95 -61.25 -47.3 -62.4 L-47.55 -63.0 -48.5 -64.35 -48.5 -64.4 -49.75 -65.3 -50.25 -64.9 -50.55 -64.45 -50.6 -64.4 -50.6 -64.35 -50.75 -64.15 -50.75 -64.1 -51.3 -62.55 -51.4 -61.85 Q-51.5 -60.7 -50.9 -59.7 -50.4 -58.95 -49.15 -59.0 L-48.95 -59.05 -48.75 -59.05 -48.6 -59.05 -48.45 -59.1 -48.35 -59.1 Q-48.0 -59.25 -47.7 -59.45 L-47.5 -59.65 M-50.4 -37.8 Q-50.05 -37.95 -49.85 -38.25 -49.25 -39.2 -49.15 -40.35 -49.15 -41.55 -49.55 -42.7 L-49.55 -42.75 -49.7 -43.15 -50.4 -43.95 -51.05 -43.75 -51.5 -43.5 -51.55 -43.45 -51.55 -43.4 -51.8 -43.25 -51.8 -43.2 -53.15 -41.3 -53.3 -40.95 Q-53.65 -40.1 -53.5 -39.15 -53.3 -38.3 -52.1 -37.9 L-51.9 -37.85 -51.7 -37.8 -51.55 -37.75 -51.4 -37.75 -51.35 -37.7 -50.5 -37.8 -50.4 -37.8 M-53.5 -16.95 L-52.95 -17.65 -52.8 -18.0 Q-52.6 -18.9 -52.85 -19.85 -53.05 -21.05 -53.75 -21.95 L-53.75 -22.0 Q-54.35 -22.85 -54.95 -23.0 L-55.5 -22.7 -55.9 -22.25 -55.9 -22.2 -56.05 -22.0 -56.05 -21.95 -56.35 -21.35 -56.95 -19.75 Q-57.15 -18.6 -56.7 -17.55 -56.3 -16.75 -55.05 -16.7 L-54.85 -16.7 -54.6 -16.7 -54.5 -16.7 -54.35 -16.7 -54.25 -16.7 -53.5 -16.95" fill="#747474" fill-rule="evenodd" stroke="none"/>
    <path d="M-70.0 -81.35 L-70.9 -79.35 -70.95 -79.25 -70.0 -81.35 M-72.5 -62.45 L-72.15 -62.35 -71.65 -62.35 -71.3 -62.65 -71.2 -63.15 -71.25 -63.6 -70.2 -60.8 Q-67.95 -55.7 -70.0 -51.7 -74.3 -43.2 -76.0 -33.6 -76.75 -29.55 -77.0 -25.25 L-77.0 -24.9 -77.05 -24.0 -77.15 -18.55 -77.15 -18.3 -77.15 -18.2 -78.35 -18.9 -78.5 -20.8 -78.5 -22.6 -78.6 -22.5 -78.5 -25.2 -78.25 -28.2 Q-76.95 -41.2 -71.35 -52.35 L-71.35 -52.4 Q-69.65 -55.8 -71.55 -60.2 L-71.55 -60.15 -72.5 -62.45 M37.6 26.1 L37.1 26.4 37.9 24.0 38.85 23.2 37.6 26.1 M-61.65 27.45 L-62.25 27.0 -63.95 23.4 -62.6 24.8 -61.65 27.45 M21.6 31.65 L21.9 31.6 21.7 33.2 22.5 32.95 21.5 33.25 21.6 31.65 M29.75 28.6 L29.75 28.55 30.2 28.35 29.65 30.25 29.35 30.4 29.75 28.6 M8.5 34.6 L8.15 36.15 7.85 36.2 8.05 34.7 8.5 34.6 M-13.75 36.15 L-13.45 36.15 -13.5 37.65 -13.7 37.65 -13.75 36.15 M-2.55 35.75 L-2.2 35.75 -2.35 37.25 -1.75 37.2 -2.6 37.25 -2.55 35.75 M-24.05 37.35 L-24.3 37.35 -24.5 35.85 -24.1 35.85 -24.05 37.35 M-34.6 36.35 L-34.95 36.3 -35.3 34.75 -34.75 34.8 -34.6 36.35 M-44.1 34.55 L-44.35 34.45 -44.8 32.8 -44.45 32.9 -44.1 34.55 M-54.25 29.55 L-54.15 29.55 -53.65 29.75 -53.65 29.8 -53.15 31.6 -53.55 31.45 -54.25 29.55" fill="#92670b" fill-rule="evenodd" stroke="none"/>
    <path d="M-61.5 -91.2 L-61.15 -90.95 -61.0 -90.35 -61.3 -89.9 -63.15 -88.45 -63.7 -88.3 -63.8 -88.3 -63.95 -88.35 -64.2 -88.55 -64.4 -89.1 -64.1 -89.65 -62.2 -91.1 -61.7 -91.25 -61.6 -91.25 -61.5 -91.2 M23.2 -58.95 L23.6 -58.75 23.95 -58.3 23.85 -57.7 23.8 -57.6 23.4 -57.35 22.85 -57.45 20.2 -59.0 Q19.95 -59.15 19.9 -59.45 L19.95 -60.05 20.45 -60.35 21.0 -60.3 23.2 -58.95 M33.0 -60.8 L32.5 -58.3 32.15 -57.8 31.6 -57.7 Q31.3 -57.8 31.15 -58.05 30.95 -58.3 31.05 -58.6 L31.55 -61.45 31.9 -61.95 32.2 -62.1 32.45 -62.1 32.95 -61.75 33.05 -61.2 33.0 -60.8 M29.1 -95.95 L29.6 -95.95 Q29.9 -95.85 30.05 -95.55 L31.25 -92.75 31.25 -92.2 31.1 -91.95 30.85 -91.8 30.25 -91.8 29.85 -92.2 28.7 -94.9 Q28.55 -95.2 28.65 -95.5 L29.05 -95.9 29.1 -95.95 M3.0 -119.5 L2.45 -119.65 2.15 -120.15 Q2.1 -120.5 2.35 -120.7 2.5 -120.95 2.85 -121.0 L6.0 -120.9 6.45 -120.6 6.6 -120.0 6.3 -119.55 5.75 -119.4 3.0 -119.5 M9.3 -118.35 L8.85 -118.75 8.85 -119.3 9.25 -119.75 9.85 -119.75 11.15 -119.2 12.5 -118.5 12.9 -118.05 12.85 -117.5 12.75 -117.35 12.4 -117.1 11.8 -117.15 Q10.5 -117.85 9.3 -118.35 M-38.75 -91.95 Q-37.35 -86.3 -29.55 -80.6 -18.45 -72.45 -17.3 -56.9 -16.15 -41.15 -17.65 -28.15 -19.05 -16.85 -22.2 -5.55 L-24.35 -5.6 -32.05 -5.9 -33.0 -5.95 -33.2 -8.35 Q-30.6 -8.2 -28.55 -8.4 -27.65 -8.4 -27.2 -8.8 -26.6 -9.3 -26.75 -10.2 -26.9 -11.0 -27.45 -11.8 -29.25 -14.35 -32.8 -16.05 -35.15 -17.2 -39.5 -18.4 -30.75 -17.8 -22.95 -21.95 -21.2 -22.85 -20.65 -23.9 -20.05 -25.05 -20.65 -26.7 -20.9 -27.4 -22.1 -29.55 -23.05 -31.4 -22.9 -32.7 L-22.1 -34.6 -20.85 -36.45 Q-20.1 -37.55 -19.8 -38.4 -19.4 -39.55 -19.4 -42.15 L-19.5 -48.5 Q-19.65 -51.25 -20.05 -53.55 -19.8 -54.2 -19.85 -55.1 -19.85 -55.95 -20.5 -58.0 L-21.8 -63.85 Q-22.45 -66.85 -23.2 -68.8 L-23.2 -68.9 Q-23.05 -69.85 -23.9 -71.4 -26.7 -76.5 -29.2 -79.25 -31.2 -81.4 -36.0 -84.8 -37.55 -85.85 -38.6 -86.2 L-42.1 -86.05 -41.3 -84.35 Q-40.85 -82.95 -41.15 -81.35 L-41.2 -81.3 -41.25 -81.0 Q-41.5 -79.5 -42.55 -78.4 L-42.55 -78.45 Q-43.7 -77.15 -45.75 -77.85 L-45.85 -77.85 -46.05 -77.95 -46.25 -78.0 Q-48.25 -78.8 -48.35 -80.35 L-48.35 -80.55 -48.4 -80.55 Q-48.5 -82.2 -47.65 -83.65 L-47.35 -84.0 -47.4 -83.95 Q-48.2 -82.65 -48.1 -81.3 L-48.1 -81.25 -47.95 -80.55 Q-47.6 -79.55 -46.25 -79.0 L-46.05 -78.9 -45.85 -78.85 -45.8 -78.8 Q-44.0 -78.25 -43.0 -79.45 L-43.0 -79.4 Q-42.3 -80.1 -41.95 -81.1 L-41.8 -81.95 Q-41.5 -83.4 -41.95 -84.75 -42.1 -85.5 -42.4 -85.95 L-43.2 -86.7 -43.3 -86.75 Q-44.2 -87.0 -45.45 -86.05 L-46.9 -84.65 -47.05 -84.45 -47.2 -84.2 -47.25 -84.15 -47.3 -84.05 -47.35 -84.0 -47.7 -83.85 -47.65 -83.9 -43.8 -89.5 -43.8 -89.55 -42.35 -90.15 -38.75 -91.95 M32.85 -75.05 L33.1 -75.55 33.6 -75.8 34.15 -75.55 34.35 -75.05 34.3 -72.05 34.05 -71.55 33.55 -71.35 Q33.2 -71.35 33.0 -71.6 L32.8 -72.1 32.85 -75.05 M32.4 -81.85 L32.45 -82.25 32.55 -82.4 33.05 -82.7 33.6 -82.55 33.9 -82.05 34.2 -79.05 34.05 -78.5 34.0 -78.45 Q33.8 -78.25 33.5 -78.25 33.2 -78.2 32.95 -78.4 32.7 -78.65 32.7 -78.95 L32.4 -81.85 M31.1 -88.55 L31.15 -89.1 31.6 -89.45 32.2 -89.4 32.55 -88.95 33.25 -86.05 33.15 -85.5 32.85 -85.2 32.65 -85.15 32.1 -85.25 31.8 -85.75 31.1 -88.55 M2.95 -77.65 L3.15 -77.35 3.25 -76.8 2.95 -76.3 2.7 -76.2 2.35 -76.2 1.9 -76.5 0.2 -79.1 Q0.05 -79.35 0.15 -79.65 L0.45 -80.15 1.05 -80.2 Q1.35 -80.15 1.5 -79.9 L2.95 -77.65 M-14.4 -67.35 L-14.15 -66.5 -14.25 -65.9 Q-14.4 -65.65 -14.7 -65.55 L-15.25 -65.65 -15.6 -66.1 -16.0 -67.4 -16.45 -68.95 -16.4 -69.55 -15.95 -69.9 -15.4 -69.85 -15.0 -69.4 -14.4 -67.35 M17.65 -62.5 L17.95 -62.0 17.8 -61.45 17.3 -61.15 16.75 -61.3 14.35 -63.15 14.05 -63.65 Q14.0 -64.0 14.25 -64.2 L14.75 -64.5 15.3 -64.35 17.65 -62.5 M12.25 -66.9 L12.5 -66.35 12.3 -65.85 Q12.1 -65.6 11.8 -65.6 11.45 -65.6 11.25 -65.8 L9.05 -67.9 8.85 -68.45 9.1 -69.0 9.65 -69.2 10.15 -68.95 12.25 -66.9 M7.45 -71.9 L7.6 -71.35 7.35 -70.8 6.8 -70.65 Q6.5 -70.65 6.3 -70.9 L4.3 -73.25 Q4.1 -73.5 4.15 -73.8 L4.45 -74.3 5.0 -74.5 5.5 -74.2 7.45 -71.9 M-13.75 -18.75 L-14.05 -16.7 -14.35 -16.2 -14.9 -16.05 -15.4 -16.35 -15.55 -16.9 -15.15 -19.9 -14.85 -20.4 -14.3 -20.55 -13.8 -20.25 -13.65 -19.95 -13.65 -19.7 -13.75 -18.75 M-13.5 -23.25 Q-13.75 -23.1 -14.0 -23.1 -14.35 -23.15 -14.5 -23.35 L-14.7 -23.9 -14.4 -26.9 -14.1 -27.4 -13.55 -27.6 -13.05 -27.3 -12.9 -26.75 -13.2 -23.75 Q-13.25 -23.45 -13.45 -23.25 L-13.5 -23.25 M-13.65 -30.2 L-13.85 -30.4 -14.05 -30.95 -13.85 -33.95 -13.8 -34.1 -13.6 -34.45 -13.05 -34.65 -12.5 -34.4 -12.35 -33.85 -12.55 -30.85 Q-12.55 -30.55 -12.8 -30.3 L-13.35 -30.15 -13.65 -30.2 M-13.5 -51.55 L-13.55 -51.6 -13.8 -52.1 -13.9 -54.4 -13.9 -54.45 -13.9 -55.05 -13.65 -55.55 -13.15 -55.8 -12.6 -55.55 -12.4 -55.05 -12.4 -54.6 -12.4 -54.45 -12.3 -52.15 -12.5 -51.65 Q-12.7 -51.4 -13.0 -51.4 -13.3 -51.4 -13.5 -51.55 M32.5 -68.2 L32.8 -68.7 Q33.0 -68.95 33.35 -68.9 33.65 -68.85 33.85 -68.6 L34.0 -68.05 33.65 -65.1 33.35 -64.6 32.8 -64.45 Q32.5 -64.5 32.3 -64.75 32.1 -65.0 32.15 -65.3 L32.5 -68.2 M39.65 -6.2 L39.5 -5.65 Q39.3 -5.45 39.0 -5.4 L38.45 -5.55 38.15 -6.05 38.15 -6.45 38.1 -6.45 38.05 -6.95 37.9 -8.4 Q37.85 -8.75 38.1 -8.95 L38.6 -9.25 39.15 -9.05 39.4 -8.55 39.55 -7.15 39.65 -6.2 M38.9 -11.7 L38.75 -11.15 Q38.55 -10.95 38.25 -10.9 L37.7 -11.05 37.4 -11.55 37.1 -14.6 Q37.05 -14.95 37.3 -15.15 37.45 -15.4 37.8 -15.45 L38.35 -15.25 38.6 -14.75 38.9 -11.7 M38.15 -18.85 L38.0 -18.3 37.5 -18.0 Q37.2 -17.95 36.95 -18.15 L36.65 -18.65 36.25 -21.7 36.4 -22.25 Q36.6 -22.5 36.9 -22.55 L37.45 -22.4 37.75 -21.9 38.15 -18.85 M37.15 -25.95 L37.0 -25.4 36.55 -25.1 35.95 -25.25 35.65 -25.7 35.15 -28.75 Q35.1 -29.1 35.3 -29.3 L35.8 -29.65 36.35 -29.5 36.65 -29.0 37.15 -25.95 M35.9 -33.1 L35.8 -32.5 35.3 -32.2 34.75 -32.3 34.45 -32.8 33.8 -35.7 33.85 -36.3 Q34.0 -36.55 34.35 -36.6 L34.9 -36.55 35.25 -36.05 35.9 -33.1 M34.3 -40.0 L34.2 -39.45 33.75 -39.1 33.15 -39.2 32.85 -39.65 32.1 -42.6 32.15 -43.15 32.6 -43.5 33.2 -43.45 33.55 -43.0 34.3 -40.0 M32.5 -46.85 L32.45 -46.3 32.0 -45.9 31.4 -45.95 31.05 -46.4 30.15 -49.3 30.2 -49.9 Q30.35 -50.2 30.65 -50.25 L31.2 -50.2 31.6 -49.75 32.5 -46.85 M30.3 -53.6 L30.3 -53.0 29.85 -52.65 29.3 -52.65 28.9 -53.1 27.85 -55.95 27.9 -56.55 28.3 -56.95 28.85 -56.9 29.25 -56.5 30.3 -53.6 M22.15 8.55 L24.05 8.15 23.75 15.85 21.9 31.6 21.6 31.65 22.05 25.4 22.15 8.55 M10.35 10.5 L11.05 10.45 12.25 10.35 11.95 13.9 11.7 13.6 10.3 13.35 10.2 13.35 10.35 10.5 M8.7 33.45 L8.5 34.6 8.05 34.7 8.05 34.65 8.25 33.6 8.7 33.45 M-1.7 11.1 L0.2 11.05 0.0 13.45 -1.8 13.5 -1.7 11.1 M-2.05 34.45 L-2.2 35.75 -2.55 35.75 -2.5 34.45 -2.05 34.45 M-4.2 -96.3 Q-4.15 -96.0 -4.35 -95.75 L-4.8 -95.45 -5.35 -95.6 -5.7 -96.05 -6.1 -99.1 -5.9 -99.65 Q-5.75 -99.9 -5.4 -99.95 L-4.85 -99.75 -4.6 -99.25 -4.2 -96.3 M-4.9 -103.2 L-5.1 -102.7 Q-5.3 -102.45 -5.6 -102.45 L-6.15 -102.65 -6.4 -103.15 -6.45 -106.2 -6.2 -106.7 -5.7 -106.95 -5.15 -106.7 -4.95 -106.2 -4.9 -103.2 M-5.6 -113.8 L-5.2 -114.2 -4.6 -114.25 -4.2 -113.85 -4.2 -113.25 -4.65 -112.05 -4.8 -110.15 Q-4.8 -109.85 -5.05 -109.65 -5.3 -109.45 -5.6 -109.45 -5.9 -109.45 -6.1 -109.7 L-6.3 -110.2 -6.15 -112.25 -6.1 -112.45 -5.6 -113.8 M-2.4 -116.4 Q-2.6 -116.2 -2.9 -116.15 L-3.45 -116.3 -3.75 -116.8 -3.55 -117.35 Q-2.5 -118.7 -1.2 -119.55 L-0.65 -119.65 -0.15 -119.35 -0.05 -118.8 -0.35 -118.3 Q-1.5 -117.6 -2.4 -116.4 M-28.8 -106.55 L-29.25 -106.15 -29.85 -106.2 -30.2 -106.65 -30.15 -107.25 -28.75 -109.95 -28.3 -110.3 -27.75 -110.25 -27.35 -109.8 Q-27.3 -109.55 -27.4 -109.25 L-28.8 -106.55 M-32.0 -100.25 L-32.45 -99.85 -33.05 -99.9 -33.4 -100.35 -33.35 -100.95 -31.95 -103.65 -31.5 -104.0 -30.95 -103.95 -30.55 -103.5 -30.6 -102.95 -32.0 -100.25 M-39.25 -101.45 Q-39.45 -101.25 -39.75 -101.25 L-40.3 -101.45 -40.55 -101.95 -40.35 -102.5 -38.55 -104.7 -38.1 -105.0 -37.5 -104.9 -37.2 -104.45 -37.3 -103.85 -39.25 -101.45 M-35.1 -107.35 L-35.6 -107.0 -36.15 -107.1 -36.45 -107.6 -36.35 -108.15 -34.75 -110.65 Q-34.6 -110.9 -34.3 -110.95 L-33.75 -110.85 -33.4 -110.4 -33.5 -109.85 -35.1 -107.35 M-31.3 -113.1 Q-31.5 -112.9 -31.8 -112.8 L-32.35 -112.9 -32.65 -113.4 -32.55 -113.95 -30.85 -116.45 Q-30.7 -116.7 -30.4 -116.75 L-29.8 -116.65 -29.5 -116.2 -29.6 -115.6 -31.3 -113.1 M-25.55 -112.75 L-26.0 -112.35 -26.6 -112.4 -26.95 -112.85 -26.9 -113.45 -25.5 -116.15 -25.05 -116.5 -24.5 -116.45 -24.2 -116.2 -24.1 -116.0 Q-24.05 -115.75 -24.15 -115.45 L-25.55 -112.75 M-27.4 -118.95 L-27.9 -118.6 -28.45 -118.7 -28.75 -119.2 -28.65 -119.75 -27.05 -122.25 -26.6 -122.55 -26.05 -122.45 -25.7 -122.0 -25.8 -121.45 -27.4 -118.95 M-22.35 -119.0 L-22.8 -118.6 -23.4 -118.65 -23.65 -118.9 -23.75 -119.1 -23.7 -119.7 -22.3 -122.4 -21.85 -122.75 -21.3 -122.7 -20.9 -122.25 Q-20.85 -122.0 -20.95 -121.7 L-22.35 -119.0 M-45.25 -97.4 L-45.85 -97.4 -46.25 -97.8 -46.2 -98.4 -45.8 -98.8 Q-44.5 -99.3 -43.35 -100.0 L-42.75 -100.1 Q-42.5 -100.05 -42.3 -99.8 L-42.2 -99.2 -42.55 -98.75 Q-43.8 -98.0 -45.25 -97.4 M-4.75 -91.8 L-4.8 -92.0 -4.75 -92.6 Q-4.6 -92.85 -4.25 -92.9 L-3.7 -92.85 -3.35 -92.35 -3.3 -92.05 -2.55 -89.5 Q-2.5 -89.25 -2.6 -88.95 L-3.05 -88.55 -3.65 -88.6 -4.0 -89.05 -4.75 -91.8 M-17.5 -72.2 L-17.85 -72.55 -18.6 -74.1 -19.2 -75.25 -19.25 -75.8 -18.9 -76.25 -18.3 -76.3 -17.9 -75.95 -16.5 -73.2 -16.5 -72.65 -16.85 -72.2 -17.45 -72.2 -17.5 -72.2 M-21.65 -78.95 L-23.3 -80.9 -23.5 -81.4 -23.45 -81.55 -23.25 -81.95 -22.7 -82.15 -22.2 -81.9 -20.15 -79.45 -20.0 -78.9 -20.3 -78.4 -20.85 -78.25 -21.35 -78.55 -21.65 -78.95 M-25.35 -83.45 L-25.55 -83.4 -26.1 -83.55 -28.55 -85.3 -28.85 -85.8 -28.75 -86.35 Q-28.6 -86.6 -28.3 -86.65 L-27.75 -86.55 -25.85 -85.3 -25.15 -84.75 Q-24.95 -84.55 -24.9 -84.2 -24.85 -83.9 -25.05 -83.65 L-25.35 -83.45 M-31.15 -88.8 L-30.9 -88.5 -30.7 -87.95 -30.9 -87.45 -31.45 -87.25 -32.0 -87.45 -32.25 -87.7 Q-33.3 -88.85 -34.0 -89.95 L-34.1 -90.55 -33.8 -91.0 -33.25 -91.1 Q-32.95 -91.05 -32.75 -90.8 L-31.15 -88.8 M-0.05 -82.7 L-0.05 -82.15 -0.4 -81.7 -1.0 -81.7 Q-1.3 -81.8 -1.4 -82.05 L-2.7 -85.15 -2.65 -85.7 -2.25 -86.1 -1.65 -86.05 -1.3 -85.65 -0.05 -82.7 M-34.05 -94.25 Q-34.0 -93.95 -34.2 -93.7 -34.4 -93.5 -34.7 -93.45 L-35.25 -93.6 -35.55 -94.1 -35.55 -94.4 Q-35.65 -95.95 -35.2 -97.4 L-34.85 -97.85 -34.25 -97.9 -33.85 -97.55 -33.75 -96.95 -33.95 -96.1 -34.05 -94.25 M-49.8 -66.3 L-49.6 -66.35 -49.55 -66.35 -49.45 -66.4 -49.4 -66.4 Q-48.25 -66.45 -47.05 -65.05 -46.3 -64.25 -45.85 -63.2 L-45.15 -63.3 -41.3 -63.35 -34.15 -64.25 -34.65 -64.15 -34.05 -63.9 Q-33.05 -63.35 -32.65 -62.2 -32.35 -61.3 -32.7 -60.2 -33.25 -58.55 -35.85 -56.95 -38.05 -55.6 -41.15 -54.35 L-46.7 -52.3 -49.9 -51.0 -49.15 -51.1 -52.05 -50.7 Q-50.65 -53.55 -51.85 -56.0 L-50.7 -56.2 -52.0 -56.35 Q-53.65 -59.3 -54.1 -62.65 L-52.9 -62.6 -52.2 -62.6 -52.25 -62.4 -52.3 -62.0 -52.3 -61.95 Q-52.45 -60.35 -51.7 -59.15 L-51.7 -59.2 Q-51.05 -57.85 -49.05 -58.0 L-48.8 -58.05 -48.6 -58.05 -48.55 -58.05 Q-46.7 -58.4 -46.35 -59.85 L-46.35 -59.8 Q-45.9 -61.2 -46.4 -62.7 L-46.55 -63.15 -47.85 -65.1 Q-48.85 -66.3 -49.8 -66.3 M-56.35 -12.15 L-56.35 -12.75 Q-56.3 -13.45 -55.95 -13.8 L-54.7 -12.5 -56.05 -11.85 -56.2 -12.05 -56.35 -12.15 M-51.05 -17.15 L-51.3 -16.5 -51.35 -16.45 Q-51.95 -14.9 -54.1 -14.75 L-54.2 -14.75 -54.45 -14.75 -54.65 -14.75 Q-56.9 -14.8 -57.5 -16.35 L-57.55 -16.4 Q-58.25 -17.85 -57.95 -19.55 L-57.75 -20.45 -57.85 -19.95 Q-58.15 -18.4 -57.55 -17.1 L-57.55 -17.15 Q-57.0 -15.75 -55.0 -15.7 L-54.8 -15.7 -54.55 -15.7 -54.5 -15.7 Q-52.6 -15.85 -52.15 -17.25 L-52.15 -17.2 -52.0 -17.55 Q-51.6 -18.7 -51.9 -20.05 -52.15 -21.55 -53.05 -22.65 -53.95 -23.9 -54.9 -24.0 L-55.0 -24.0 -54.65 -24.05 -54.5 -24.05 Q-53.35 -24.0 -52.35 -22.5 -51.35 -21.3 -51.1 -19.7 L-51.1 -19.65 Q-50.8 -18.3 -51.05 -17.15 M-54.6 -40.1 L-54.2 -41.35 -53.75 -42.2 -54.0 -41.75 -54.45 -40.2 -54.45 -38.85 -54.4 -38.9 Q-54.25 -37.45 -52.35 -36.9 L-52.1 -36.85 -51.9 -36.8 -51.85 -36.8 Q-50.0 -36.45 -49.15 -37.65 L-49.2 -37.6 Q-48.25 -38.8 -48.2 -40.35 -48.1 -41.85 -48.7 -43.1 L-48.9 -43.6 Q-49.4 -44.65 -50.15 -44.95 L-49.9 -44.95 -49.85 -44.9 -49.75 -44.9 -49.7 -44.9 Q-49.0 -44.65 -48.5 -43.85 L-48.5 -43.8 -48.05 -42.85 Q-47.4 -41.4 -47.5 -39.8 L-47.5 -39.75 Q-47.55 -38.0 -48.6 -36.8 L-48.65 -36.75 Q-49.55 -35.4 -51.7 -35.8 L-51.8 -35.8 -52.0 -35.85 -52.25 -35.9 Q-54.35 -36.55 -54.6 -38.15 L-54.65 -38.25 -54.6 -40.1 M-12.85 -59.3 L-13.0 -58.75 Q-13.2 -58.5 -13.5 -58.45 L-14.05 -58.6 -14.35 -59.1 -14.8 -62.1 -14.65 -62.65 -14.15 -63.0 -13.6 -62.85 -13.3 -62.35 -12.85 -59.3 M-52.0 -95.15 L-52.6 -95.15 -53.0 -95.55 -52.95 -96.15 -52.55 -96.55 -49.7 -97.55 -49.15 -97.5 -48.75 -97.05 Q-48.7 -96.8 -48.8 -96.5 L-49.25 -96.1 -52.0 -95.15 M-55.7 -62.85 Q-55.35 -59.55 -53.85 -56.6 -63.15 -58.0 -64.4 -61.3 -65.85 -65.15 -66.1 -66.9 -66.4 -68.65 -66.05 -70.3 -65.25 -74.7 -62.55 -78.5 -59.95 -82.25 -56.1 -84.6 -53.55 -86.15 -46.65 -88.5 L-46.35 -88.6 -50.2 -82.65 -50.7 -82.4 -51.0 -82.25 -53.7 -80.65 Q-56.45 -78.8 -58.2 -75.85 -60.0 -72.95 -60.45 -69.7 -60.65 -68.25 -60.4 -67.4 L-59.55 -65.5 Q-58.7 -64.05 -57.9 -63.55 -57.15 -63.05 -55.7 -62.85 M-58.05 -92.1 L-58.6 -92.0 Q-58.95 -92.1 -59.1 -92.35 L-59.15 -92.9 -58.85 -93.4 -56.15 -94.85 -55.6 -94.9 -55.15 -94.5 -55.15 -93.95 -55.5 -93.5 Q-56.8 -92.9 -58.05 -92.1 M-69.4 -13.5 Q-70.3 -15.85 -70.4 -20.0 -70.45 -31.65 -67.6 -43.1 -66.35 -47.75 -64.7 -49.95 -62.85 -52.45 -59.1 -54.45 L-53.35 -55.65 -53.3 -55.55 -53.3 -55.6 Q-52.1 -53.25 -53.95 -50.4 L-56.65 -49.6 Q-57.85 -48.9 -59.1 -47.4 -61.4 -44.6 -62.45 -41.7 -63.2 -39.75 -63.65 -36.25 L-64.6 -29.3 Q-64.95 -25.45 -64.6 -22.35 -64.15 -18.65 -62.65 -15.6 L-62.55 -15.45 -62.3 -14.95 -62.35 -14.95 Q-67.25 -16.0 -69.4 -13.5 M-12.2 -37.9 Q-12.2 -37.6 -12.45 -37.4 -12.65 -37.2 -12.95 -37.2 -13.3 -37.2 -13.5 -37.45 L-13.7 -37.95 -13.65 -41.0 -13.4 -41.5 -12.9 -41.75 -12.35 -41.5 -12.15 -41.0 -12.2 -37.9 M-12.1 -45.05 L-12.3 -44.5 -12.85 -44.3 -13.35 -44.5 -13.6 -45.05 -13.65 -48.05 -13.45 -48.6 -12.9 -48.85 -12.4 -48.65 Q-12.15 -48.45 -12.15 -48.1 L-12.1 -45.05 M-16.5 -2.55 L-16.8 -2.05 -17.4 -1.95 -17.85 -2.25 -17.95 -2.85 -17.35 -5.85 -17.05 -6.3 -16.5 -6.4 Q-16.2 -6.35 -16.0 -6.1 L-15.9 -5.55 -16.5 -2.55 M-15.2 -9.6 L-15.5 -9.15 Q-15.75 -8.95 -16.05 -9.0 L-16.55 -9.3 -16.7 -9.85 -16.2 -12.9 -15.85 -13.4 -15.3 -13.55 -14.85 -13.2 -14.7 -12.65 -15.2 -9.6 M-13.55 3.2 L-13.35 3.75 -13.6 4.3 Q-13.9 4.5 -14.1 4.5 L-14.65 4.2 -16.65 1.9 -16.85 1.4 -16.6 0.85 -16.05 0.7 Q-15.75 0.7 -15.55 0.95 L-13.55 3.2 M-14.4 11.35 L-12.45 11.35 -12.6 14.3 -14.3 14.4 -14.4 11.35 M-24.85 11.4 L-24.75 14.75 -26.9 14.8 -27.15 11.4 -24.85 11.4 M-13.8 34.2 L-13.35 34.25 -13.45 36.15 -13.75 36.15 -13.8 34.2 M-34.9 33.55 L-34.75 34.8 -35.3 34.75 -35.55 33.5 -34.9 33.55 M-24.5 35.85 L-24.7 34.3 -24.15 34.3 -24.1 35.85 -24.5 35.85 M-36.7 13.4 L-36.6 15.0 -37.1 14.75 Q-37.6 14.4 -38.0 14.45 L-38.05 13.85 -36.7 13.4 M-50.35 9.5 L-48.25 9.7 -47.4 18.5 -44.45 32.9 -44.8 32.8 -49.55 14.85 -50.35 9.5" fill="#ceaf1b" fill-rule="evenodd" stroke="none"/>
    <path d="M-71.25 -63.6 L-71.8 -66.85 Q-68.55 -86.7 -45.0 -91.55 L-44.95 -91.55 Q-41.5 -92.45 -39.05 -94.9 -39.1 -93.45 -38.75 -91.95 L-42.35 -90.15 -43.8 -89.55 -43.8 -89.5 -47.65 -83.9 -47.7 -83.85 Q-55.3 -71.75 -54.1 -62.65 -53.65 -59.3 -52.0 -56.35 L-50.7 -56.2 -51.85 -56.0 Q-50.65 -53.55 -52.05 -50.7 L-53.15 -48.95 Q-61.3 -32.95 -58.55 -13.7 L-60.15 -14.35 Q-62.65 -33.6 -54.5 -49.65 L-54.45 -49.75 -53.95 -50.4 Q-52.1 -53.25 -53.3 -55.6 L-53.3 -55.55 -53.35 -55.65 -59.1 -54.45 Q-62.85 -52.45 -64.7 -49.95 -66.35 -47.75 -67.6 -43.1 -70.45 -31.65 -70.4 -20.0 -70.3 -15.85 -69.4 -13.5 L-69.45 -13.45 -69.95 -12.8 -73.15 -15.55 -77.15 -18.2 -77.15 -18.3 -77.15 -18.55 -77.05 -24.0 -77.0 -24.9 -77.0 -25.25 Q-76.75 -29.55 -76.0 -33.6 -74.3 -43.2 -70.0 -51.7 -67.95 -55.7 -70.2 -60.8 L-71.25 -63.6 M-14.45 9.2 L-14.3 9.4 Q-14.1 9.6 -13.8 9.6 L-13.25 9.45 -12.35 8.7 -12.45 11.35 -14.4 11.35 -14.45 9.2 M22.0 6.7 L22.05 6.65 23.15 6.5 24.0 6.4 24.05 8.15 22.15 8.55 22.0 6.7 M33.4 5.05 L33.95 5.65 34.35 5.85 34.8 5.8 35.15 5.5 35.3 5.2 35.3 5.5 31.7 23.45 30.2 28.35 29.75 28.55 31.85 18.6 31.85 18.35 31.9 18.15 32.6 13.4 32.6 13.15 32.65 12.9 33.4 5.05 M37.9 24.0 L40.2 16.95 42.95 4.35 43.15 2.7 45.3 2.05 45.25 2.3 44.05 7.6 40.5 18.9 40.2 19.65 40.1 20.05 39.1 22.55 38.95 22.85 38.85 23.2 37.9 24.0 M10.35 7.75 L12.45 7.6 12.25 10.35 11.05 10.45 10.35 10.5 10.35 7.75 M0.5 8.3 L0.2 11.05 -1.7 11.1 -1.6 8.35 -1.35 8.35 0.5 8.3 M-50.2 -82.65 L-46.35 -88.6 -46.65 -88.5 Q-53.55 -86.15 -56.1 -84.6 -59.95 -82.25 -62.55 -78.5 -65.25 -74.7 -66.05 -70.3 -66.4 -68.65 -66.1 -66.9 -65.85 -65.15 -64.4 -61.3 -63.15 -58.0 -53.85 -56.6 -55.35 -59.55 -55.7 -62.85 -56.7 -71.45 -50.2 -82.65 M-27.15 11.4 L-27.4 8.3 -24.95 8.4 -24.85 11.4 -27.15 11.4 M-48.25 9.7 L-50.35 9.5 -50.55 8.4 -48.25 9.7 M-58.75 7.0 L-56.95 17.85 -53.65 29.75 -54.15 29.55 -54.25 29.55 -57.05 21.8 -60.95 7.25 -58.75 7.0 M-70.5 4.35 L-69.55 3.8 -68.5 4.9 -67.85 8.45 -65.45 17.15 -62.6 24.8 -63.95 23.4 -64.65 21.9 -64.85 21.55 -66.3 17.9 -66.5 17.5 -67.0 16.2 -70.5 4.35" fill="#af8a10" fill-rule="evenodd" stroke="none"/>
    <path d="M10.2 13.35 L10.3 13.35 11.7 13.6 11.95 13.9 11.75 16.55 8.7 33.45 8.25 33.6 8.65 31.2 10.2 13.35 M-41.25 -81.0 L-41.2 -81.3 -41.15 -81.35 Q-40.85 -82.95 -41.3 -84.35 L-42.1 -86.05 -38.6 -86.2 Q-37.55 -85.85 -36.0 -84.8 -31.2 -81.4 -29.2 -79.25 -26.7 -76.5 -23.9 -71.4 -23.05 -69.85 -23.2 -68.9 L-23.2 -68.8 Q-22.45 -66.85 -21.8 -63.85 L-20.5 -58.0 Q-19.85 -55.95 -19.85 -55.1 -19.8 -54.2 -20.05 -53.55 -19.65 -51.25 -19.5 -48.5 L-19.4 -42.15 Q-19.4 -39.55 -19.8 -38.4 -20.1 -37.55 -20.85 -36.45 L-22.1 -34.6 -22.9 -32.7 Q-23.05 -31.4 -22.1 -29.55 -20.9 -27.4 -20.65 -26.7 -20.05 -25.05 -20.65 -23.9 -21.2 -22.85 -22.95 -21.95 -30.75 -17.8 -39.5 -18.4 -35.15 -17.2 -32.8 -16.05 -29.25 -14.35 -27.45 -11.8 -26.9 -11.0 -26.75 -10.2 -26.6 -9.3 -27.2 -8.8 -27.65 -8.4 -28.55 -8.4 -30.6 -8.2 -33.2 -8.35 L-34.05 -13.3 -34.05 -13.35 Q-34.9 -16.25 -37.85 -17.15 L-38.15 -17.2 -40.15 -16.95 -40.35 -17.1 -41.35 -18.15 -42.2 -19.35 -44.85 -21.7 Q-47.1 -23.7 -48.0 -26.5 L-32.5 -26.35 -31.1 -26.65 Q-30.4 -27.2 -30.7 -28.3 -31.05 -29.7 -32.7 -30.6 L-35.6 -31.7 Q-39.25 -32.9 -42.45 -35.3 L-35.35 -37.4 -32.1 -38.25 Q-30.35 -38.85 -29.3 -39.85 -27.95 -41.1 -27.3 -43.3 -26.9 -44.75 -26.65 -47.35 -26.55 -48.55 -26.95 -49.1 -27.35 -49.6 -28.6 -49.8 -31.95 -50.3 -33.6 -49.9 L-35.8 -49.05 -37.95 -48.05 -41.55 -46.95 -41.8 -46.85 -42.0 -46.8 -47.15 -44.55 -48.5 -43.85 Q-49.0 -44.65 -49.7 -44.9 L-49.75 -44.9 -49.85 -44.9 -49.9 -44.95 -50.15 -44.95 -50.25 -44.95 Q-51.2 -45.1 -52.35 -44.0 L-53.45 -42.7 -53.7 -42.25 -53.75 -42.2 -54.2 -41.35 -54.6 -40.1 -56.5 -38.35 Q-57.75 -36.7 -58.1 -33.6 -59.1 -26.55 -56.95 -22.35 L-57.75 -20.45 -57.95 -19.55 Q-58.25 -17.85 -57.55 -16.4 L-57.5 -16.35 Q-56.9 -14.8 -54.65 -14.75 L-54.45 -14.75 -54.2 -14.75 -54.1 -14.75 Q-51.95 -14.9 -51.35 -16.45 L-51.3 -16.5 -51.05 -17.15 -46.95 -15.65 -46.7 -15.55 Q-50.7 -14.4 -54.7 -12.5 L-55.95 -13.8 Q-56.3 -13.45 -56.35 -12.75 L-56.35 -12.15 -58.55 -13.7 Q-61.3 -32.95 -53.15 -48.95 L-52.05 -50.7 -49.15 -51.1 -49.9 -51.0 -46.7 -52.3 -41.15 -54.35 Q-38.05 -55.6 -35.85 -56.95 -33.25 -58.55 -32.7 -60.2 -32.35 -61.3 -32.65 -62.2 -33.05 -63.35 -34.05 -63.9 L-34.65 -64.15 -34.15 -64.25 -41.3 -63.35 -45.15 -63.3 -45.85 -63.2 Q-46.3 -64.25 -47.05 -65.05 -48.25 -66.45 -49.4 -66.4 L-49.45 -66.4 -49.55 -66.35 -49.6 -66.35 -49.8 -66.3 -49.9 -66.25 Q-50.85 -66.05 -51.55 -64.65 -52.05 -63.75 -52.2 -62.65 L-52.2 -62.6 -52.9 -62.6 -54.1 -62.65 Q-55.3 -71.75 -47.7 -83.85 L-47.35 -84.0 -47.65 -83.65 Q-48.5 -82.2 -48.4 -80.55 L-48.35 -80.55 -48.35 -80.35 Q-51.85 -78.5 -51.75 -72.6 -50.5 -68.75 -42.05 -68.85 -19.6 -68.8 -38.6 -80.4 L-41.25 -81.0 M-55.7 -62.85 Q-57.15 -63.05 -57.9 -63.55 -58.7 -64.05 -59.55 -65.5 L-60.4 -67.4 Q-60.65 -68.25 -60.45 -69.7 -60.0 -72.95 -58.2 -75.85 -56.45 -78.8 -53.7 -80.65 L-51.0 -82.25 -50.7 -82.4 -50.2 -82.65 Q-56.7 -71.45 -55.7 -62.85 M-53.95 -50.4 L-54.45 -49.75 -54.5 -49.65 Q-62.65 -33.6 -60.15 -14.35 L-62.15 -14.9 -62.3 -14.95 -62.55 -15.45 -62.65 -15.6 Q-64.15 -18.65 -64.6 -22.35 -64.95 -25.45 -64.6 -29.3 L-63.65 -36.25 Q-63.2 -39.75 -62.45 -41.7 -61.4 -44.6 -59.1 -47.4 -57.85 -48.9 -56.65 -49.6 L-53.95 -50.4 M-14.3 14.4 L-12.6 14.3 -13.35 34.25 -13.8 34.2 -14.3 14.4 M-1.8 13.5 L0.0 13.45 -2.05 34.45 -2.5 34.45 -1.8 13.5 M-26.9 14.8 L-24.75 14.75 -24.15 34.3 -24.7 34.3 -26.9 14.8 M-38.0 14.45 Q-37.6 14.4 -37.1 14.75 L-36.6 15.0 -36.4 20.65 -34.9 33.55 -35.55 33.5 -35.95 31.6 -38.0 14.45" fill="#e7d12e" fill-rule="evenodd" stroke="none"/>
    <path d="M-46.7 -15.55 L-46.95 -15.65 -51.05 -17.15 Q-50.8 -18.3 -51.1 -19.65 L-51.1 -19.7 Q-51.35 -21.3 -52.35 -22.5 -53.35 -24.0 -54.5 -24.05 L-54.65 -24.05 -55.0 -24.0 Q-55.95 -23.9 -56.8 -22.55 L-56.95 -22.35 Q-59.1 -26.55 -58.1 -33.6 -57.75 -36.7 -56.5 -38.35 L-54.6 -40.1 -54.65 -38.25 -54.6 -38.15 Q-54.35 -36.55 -52.25 -35.9 L-52.0 -35.85 -51.8 -35.8 -51.7 -35.8 Q-49.55 -35.4 -48.65 -36.75 L-48.6 -36.8 Q-47.55 -38.0 -47.5 -39.75 L-47.5 -39.8 Q-47.4 -41.4 -48.05 -42.85 L-48.5 -43.8 -48.5 -43.85 -47.15 -44.55 -42.0 -46.8 -41.8 -46.85 -41.55 -46.95 -37.95 -48.05 -35.8 -49.05 -33.6 -49.9 Q-31.95 -50.3 -28.6 -49.8 -27.35 -49.6 -26.95 -49.1 -26.55 -48.55 -26.65 -47.35 -26.9 -44.75 -27.3 -43.3 -27.95 -41.1 -29.3 -39.85 -30.35 -38.85 -32.1 -38.25 L-35.35 -37.4 -42.45 -35.3 Q-39.25 -32.9 -35.6 -31.7 L-32.7 -30.6 Q-31.05 -29.7 -30.7 -28.3 -30.4 -27.2 -31.1 -26.65 L-32.5 -26.35 -48.0 -26.5 Q-47.1 -23.7 -44.85 -21.7 L-42.2 -19.35 -41.35 -18.15 -40.35 -17.1 -40.15 -16.95 Q-43.4 -16.55 -46.7 -15.55 M-48.35 -80.35 Q-48.25 -78.8 -46.25 -78.0 L-46.05 -77.95 -45.85 -77.85 -45.75 -77.85 Q-43.7 -77.15 -42.55 -78.45 L-42.55 -78.4 Q-41.5 -79.5 -41.25 -81.0 L-38.6 -80.4 Q-19.6 -68.8 -42.05 -68.85 -50.5 -68.75 -51.75 -72.6 -51.85 -78.5 -48.35 -80.35" fill="#ffe946" fill-rule="evenodd" stroke="none"/>
    <path d="M1.55 -35.05 Q-0.4 -34.25 -2.15 -32.0 0.25 -29.05 4.4 -27.65 8.05 -26.35 12.45 -26.45 L14.2 -26.3 Q15.3 -25.9 15.2 -24.95 15.2 -24.4 14.45 -23.75 12.85 -22.45 9.7 -21.7 L1.9 -19.8 -0.3 -19.05 -2.55 -18.5 Q-3.85 -18.35 -6.1 -18.5 L-9.65 -18.65 Q-10.7 -18.55 -11.15 -18.9 L-11.35 -19.05 Q-11.7 -19.45 -11.6 -20.35 L-10.75 -45.15 Q-10.65 -47.85 -10.25 -49.4 -9.7 -51.65 -8.3 -52.9 -7.2 -53.85 -5.35 -54.4 L-2.0 -55.2 Q-0.25 -55.6 2.45 -56.65 L6.9 -58.25 8.65 -58.4 9.2 -57.75 Q9.4 -57.3 9.1 -57.0 11.2 -56.45 11.5 -55.45 12.05 -54.0 10.0 -52.6 8.4 -51.5 5.5 -50.3 L0.7 -48.2 -1.1 -47.05 -1.5 -46.05 Q-1.55 -45.45 -1.25 -45.05 -0.95 -44.7 0.0 -44.4 6.6 -42.6 13.55 -42.45 15.55 -42.35 15.8 -41.35 16.05 -40.35 14.55 -39.5 10.0 -36.65 5.8 -35.9 L3.65 -35.6 1.55 -35.05 M-24.9 -86.05 L-24.55 -86.2 -22.1 -87.6 Q-20.8 -88.25 -18.95 -88.75 L-13.55 -89.75 -8.1 -90.6 -6.6 -90.75 Q-5.7 -90.65 -5.4 -89.9 -5.3 -89.65 -5.35 -89.15 L-5.4 -88.9 Q-5.6 -87.05 -5.0 -84.85 L-3.55 -80.95 -2.65 -78.95 -1.85 -77.3 -1.65 -75.75 Q-1.55 -74.45 -1.9 -73.7 -2.25 -73.05 -3.35 -72.5 -5.05 -71.6 -6.75 -71.4 L-9.4 -71.15 -12.1 -70.45 -14.75 -70.5 -17.0 -71.7 -17.5 -72.2 -17.45 -72.2 -16.85 -72.2 -16.5 -72.65 -16.5 -73.2 -17.9 -75.95 -18.3 -76.3 -18.9 -76.25 -19.25 -75.8 -19.2 -75.25 -18.6 -74.1 -21.65 -78.95 -21.35 -78.55 -20.85 -78.25 -20.3 -78.4 -20.0 -78.9 -20.15 -79.45 -22.2 -81.9 -22.7 -82.15 -23.25 -81.95 -23.45 -81.55 -24.4 -82.65 -25.35 -83.45 -25.05 -83.65 Q-24.85 -83.9 -24.9 -84.2 -24.95 -84.55 -25.15 -84.75 L-25.85 -85.3 -25.8 -85.35 -24.9 -86.05 M-44.1 -85.7 L-43.55 -85.8 -43.4 -85.65 -42.8 -84.45 -42.85 -84.4 Q-42.55 -83.3 -42.7 -82.05 L-42.95 -81.2 -43.65 -80.05 -43.75 -79.95 -44.05 -80.1 Q-44.2 -80.0 -44.55 -80.35 L-45.15 -81.15 -45.35 -81.75 -45.5 -82.1 -45.75 -82.6 Q-45.55 -83.1 -45.6 -83.55 L-45.45 -83.65 -45.2 -84.25 -44.75 -84.95 -44.15 -85.5 -43.75 -85.75 -44.1 -85.7 M-50.25 -64.9 L-49.75 -65.3 -48.5 -64.4 -48.5 -64.35 -47.55 -63.0 -47.3 -62.4 Q-46.95 -61.25 -47.2 -60.15 L-47.5 -59.65 -47.3 -60.0 -47.55 -60.0 Q-47.7 -59.85 -48.1 -60.0 L-49.0 -60.45 -49.55 -60.9 -49.75 -61.1 -50.2 -61.45 Q-50.3 -62.0 -50.55 -62.4 L-50.45 -62.55 -50.45 -62.6 -50.5 -63.15 -50.4 -64.0 -50.15 -64.75 -49.9 -65.15 -50.25 -64.9 M-51.05 -43.75 L-50.4 -43.95 -49.7 -43.15 -49.55 -42.75 -49.55 -42.7 Q-49.15 -41.55 -49.15 -40.35 -49.25 -39.2 -49.85 -38.25 -50.05 -37.95 -50.4 -37.8 -50.2 -37.9 -50.0 -38.15 L-50.25 -38.25 -50.8 -38.4 -51.45 -39.15 -51.75 -39.75 -51.95 -40.05 -52.25 -40.5 -52.2 -41.5 -52.1 -41.65 -52.1 -41.7 -51.9 -42.25 -51.45 -42.95 -50.95 -43.65 -50.65 -43.9 -51.05 -43.75 M-53.5 -16.95 L-53.05 -17.5 -53.35 -17.55 Q-53.45 -17.35 -53.9 -17.55 L-54.75 -18.1 -55.15 -18.6 -55.4 -18.85 -55.8 -19.25 Q-55.85 -19.8 -56.05 -20.2 L-55.95 -20.35 -55.95 -20.75 -55.9 -21.0 -55.65 -21.8 -55.4 -22.55 -55.15 -22.9 -55.5 -22.7 -54.95 -23.0 Q-54.35 -22.85 -53.75 -22.0 L-53.75 -21.95 Q-53.05 -21.05 -52.85 -19.85 -52.6 -18.9 -52.8 -18.0 L-52.95 -17.65 -53.5 -16.95" fill="#f7f7f7" fill-rule="evenodd" stroke="none"/>
    <path d="M6.1 -124.95 L5.1 -125.65 4.85 -125.35 Q2.1 -121.9 0.85 -116.65 -0.15 -112.4 -0.35 -106.2 -0.45 -101.85 0.15 -99.1 0.8 -96.5 3.2 -92.15 6.55 -86.1 9.3 -82.4 13.1 -77.35 17.3 -74.35 L23.0 -70.6 28.0 -66.5 Q30.85 -63.95 32.0 -62.4 L32.2 -62.1 31.9 -61.95 31.55 -61.45 31.05 -58.6 Q30.95 -58.3 31.15 -58.05 31.3 -57.8 31.6 -57.7 L32.15 -57.8 32.5 -58.3 33.0 -60.8 Q34.3 -58.35 35.5 -54.45 L38.7 -44.05 Q41.7 -33.7 43.25 -26.35 44.8 -18.75 45.4 -12.0 L45.5 -10.45 45.6 -8.3 45.75 -3.05 45.75 -1.25 45.75 -0.9 45.4 -0.15 41.15 -5.15 40.75 -5.4 40.3 -5.4 39.95 -5.1 34.4 3.9 28.7 -2.05 28.4 -2.25 28.35 -2.25 27.95 -2.25 27.65 -2.1 27.6 -2.05 20.15 6.55 12.75 0.15 12.25 -0.05 11.75 0.15 3.6 8.1 -4.35 0.8 Q-4.55 0.6 -4.8 0.6 L-5.3 0.8 -13.65 7.85 -21.6 -0.4 Q-21.85 -0.95 -21.75 -1.65 L-21.75 -1.75 -21.15 -3.75 -21.05 -4.0 -21.05 -4.1 -21.05 -4.0 -21.0 -3.35 -20.6 -1.95 -20.4 -1.7 Q-19.55 -0.7 -17.05 -0.7 L-4.85 -0.85 7.15 -1.15 18.9 -2.5 26.95 -3.85 32.7 -5.65 32.6 -7.45 32.55 -8.95 32.45 -11.25 29.95 -10.65 22.7 -9.1 14.35 -8.1 9.65 -8.2 Q8.8 -8.45 8.95 -8.9 9.0 -9.3 9.6 -9.3 L10.4 -9.45 10.85 -10.0 Q11.3 -10.6 12.65 -10.7 18.95 -11.45 27.45 -15.1 29.3 -15.95 29.95 -16.45 L31.8 -18.2 32.0 -18.35 31.5 -24.75 Q29.85 -43.7 23.8 -57.6 L23.85 -57.7 23.95 -58.3 23.6 -58.75 23.2 -58.95 21.45 -62.5 20.35 -63.15 20.4 -63.15 Q14.3 -66.8 10.7 -70.3 6.45 -74.6 3.2 -80.4 L2.65 -81.5 2.6 -81.55 2.35 -82.15 0.3 -86.55 0.25 -86.6 -0.35 -88.15 -0.35 -88.2 -0.85 -89.55 -1.85 -92.7 -1.9 -92.9 -1.9 -92.85 -2.55 -95.05 -4.0 -94.65 Q-5.6 -93.75 -7.2 -93.3 -10.85 -92.3 -13.95 -93.9 L-15.75 -94.75 Q-16.75 -94.9 -17.9 -94.15 L-19.8 -92.8 Q-21.4 -91.65 -23.4 -91.3 L-27.3 -91.6 -27.4 -91.6 -27.75 -91.75 -28.15 -91.9 -30.65 -93.55 Q-32.1 -94.95 -32.8 -96.8 L-32.95 -97.3 -33.55 -100.25 -33.85 -103.7 -30.4 -110.5 -37.85 -101.15 -37.9 -101.15 Q-41.65 -96.2 -46.25 -94.85 -59.0 -91.9 -66.2 -85.1 L-65.85 -85.65 -63.8 -88.3 -63.7 -88.3 -63.15 -88.45 -61.3 -89.9 -61.0 -90.35 -61.15 -90.95 -61.5 -91.2 -59.6 -93.65 Q-47.6 -106.75 -39.45 -114.8 L-30.55 -123.6 -30.5 -123.6 -26.85 -126.65 Q-24.95 -127.95 -22.8 -128.95 L-22.0 -129.35 -21.95 -129.35 -15.65 -130.75 Q-10.2 -131.8 -2.55 -129.65 L-2.1 -129.55 -1.7 -129.4 Q1.8 -128.25 6.1 -124.95 M30.3 -53.6 L29.25 -56.5 28.85 -56.9 28.3 -56.95 27.9 -56.55 27.85 -55.95 28.9 -53.1 29.3 -52.65 29.85 -52.65 30.3 -53.0 30.3 -53.6 M32.5 -46.85 L31.6 -49.75 31.2 -50.2 30.65 -50.25 Q30.35 -50.2 30.2 -49.9 L30.15 -49.3 31.05 -46.4 31.4 -45.95 32.0 -45.9 32.45 -46.3 32.5 -46.85 M34.3 -40.0 L33.55 -43.0 33.2 -43.45 32.6 -43.5 32.15 -43.15 32.1 -42.6 32.85 -39.65 33.15 -39.2 33.75 -39.1 34.2 -39.45 34.3 -40.0 M35.9 -33.1 L35.25 -36.05 34.9 -36.55 34.35 -36.6 Q34.0 -36.55 33.85 -36.3 L33.8 -35.7 34.45 -32.8 34.75 -32.3 35.3 -32.2 35.8 -32.5 35.9 -33.1 M37.15 -25.95 L36.65 -29.0 36.35 -29.5 35.8 -29.65 35.3 -29.3 Q35.1 -29.1 35.15 -28.75 L35.65 -25.7 35.95 -25.25 36.55 -25.1 37.0 -25.4 37.15 -25.95 M38.15 -18.85 L37.75 -21.9 37.45 -22.4 36.9 -22.55 Q36.6 -22.5 36.4 -22.25 L36.25 -21.7 36.65 -18.65 36.95 -18.15 Q37.2 -17.95 37.5 -18.0 L38.0 -18.3 38.15 -18.85 M38.9 -11.7 L38.6 -14.75 38.35 -15.25 37.8 -15.45 Q37.45 -15.4 37.3 -15.15 37.05 -14.95 37.1 -14.6 L37.4 -11.55 37.7 -11.05 38.25 -10.9 Q38.55 -10.95 38.75 -11.15 L38.9 -11.7 M39.65 -6.2 L39.55 -7.15 39.4 -8.55 39.15 -9.05 38.6 -9.25 38.1 -8.95 Q37.85 -8.75 37.9 -8.4 L38.05 -6.95 38.1 -6.45 38.15 -6.45 38.15 -6.05 38.45 -5.55 39.0 -5.4 Q39.3 -5.45 39.5 -5.65 L39.65 -6.2 M-45.25 -97.4 Q-43.8 -98.0 -42.55 -98.75 L-42.2 -99.2 -42.3 -99.8 Q-42.5 -100.05 -42.75 -100.1 L-43.35 -100.0 Q-44.5 -99.3 -45.8 -98.8 L-46.2 -98.4 -46.25 -97.8 -45.85 -97.4 -45.25 -97.4 M-22.35 -119.0 L-20.95 -121.7 Q-20.85 -122.0 -20.9 -122.25 L-21.3 -122.7 -21.85 -122.75 -22.3 -122.4 -23.7 -119.7 -23.75 -119.1 -23.65 -118.9 -23.4 -118.65 -22.8 -118.6 -22.35 -119.0 M-27.4 -118.95 L-25.8 -121.45 -25.7 -122.0 -26.05 -122.45 -26.6 -122.55 -27.05 -122.25 -28.65 -119.75 -28.75 -119.2 -28.45 -118.7 -27.9 -118.6 -27.4 -118.95 M-25.55 -112.75 L-24.15 -115.45 Q-24.05 -115.75 -24.1 -116.0 L-24.2 -116.2 -24.5 -116.45 -25.05 -116.5 -25.5 -116.15 -26.9 -113.45 -26.95 -112.85 -26.6 -112.4 -26.0 -112.35 -25.55 -112.75 M-31.3 -113.1 L-29.6 -115.6 -29.5 -116.2 -29.8 -116.65 -30.4 -116.75 Q-30.7 -116.7 -30.85 -116.45 L-32.55 -113.95 -32.65 -113.4 -32.35 -112.9 -31.8 -112.8 Q-31.5 -112.9 -31.3 -113.1 M-35.1 -107.35 L-33.5 -109.85 -33.4 -110.4 -33.75 -110.85 -34.3 -110.95 Q-34.6 -110.9 -34.75 -110.65 L-36.35 -108.15 -36.45 -107.6 -36.15 -107.1 -35.6 -107.0 -35.1 -107.35 M-39.25 -101.45 L-37.3 -103.85 -37.2 -104.45 -37.5 -104.9 -38.1 -105.0 -38.55 -104.7 -40.35 -102.5 -40.55 -101.95 -40.3 -101.45 -39.75 -101.25 Q-39.45 -101.25 -39.25 -101.45 M-32.0 -100.25 L-30.6 -102.95 -30.55 -103.5 -30.95 -103.95 -31.5 -104.0 -31.95 -103.65 -33.35 -100.95 -33.4 -100.35 -33.05 -99.9 -32.45 -99.85 -32.0 -100.25 M-28.8 -106.55 L-27.4 -109.25 Q-27.3 -109.55 -27.35 -109.8 L-27.75 -110.25 -28.3 -110.3 -28.75 -109.95 -30.15 -107.25 -30.2 -106.65 -29.85 -106.2 -29.25 -106.15 -28.8 -106.55 M-2.4 -116.4 Q-1.5 -117.6 -0.35 -118.3 L-0.05 -118.8 -0.15 -119.35 -0.65 -119.65 -1.2 -119.55 Q-2.5 -118.7 -3.55 -117.35 L-3.75 -116.8 -3.45 -116.3 -2.9 -116.15 Q-2.6 -116.2 -2.4 -116.4 M-5.6 -113.8 L-6.1 -112.45 -6.15 -112.25 -6.3 -110.2 -6.1 -109.7 Q-5.9 -109.45 -5.6 -109.45 -5.3 -109.45 -5.05 -109.65 -4.8 -109.85 -4.8 -110.15 L-4.65 -112.05 -4.2 -113.25 -4.2 -113.85 -4.6 -114.25 -5.2 -114.2 -5.6 -113.8 M-4.9 -103.2 L-4.95 -106.2 -5.15 -106.7 -5.7 -106.95 -6.2 -106.7 -6.45 -106.2 -6.4 -103.15 -6.15 -102.65 -5.6 -102.45 Q-5.3 -102.45 -5.1 -102.7 L-4.9 -103.2 M-4.2 -96.3 L-4.6 -99.25 -4.85 -99.75 -5.4 -99.95 Q-5.75 -99.9 -5.9 -99.65 L-6.1 -99.1 -5.7 -96.05 -5.35 -95.6 -4.8 -95.45 -4.35 -95.75 Q-4.15 -96.0 -4.2 -96.3 M-45.85 -93.4 Q-41.6 -94.6 -38.0 -98.65 L-38.35 -98.1 -38.45 -98.0 Q-41.0 -94.1 -45.3 -93.0 -64.0 -89.15 -70.45 -76.25 L-70.5 -76.15 Q-72.55 -72.05 -73.35 -66.95 L-73.35 -66.7 -73.0 -64.65 -73.1 -64.75 Q-73.75 -65.8 -73.65 -67.5 L-73.3 -69.35 Q-72.25 -74.55 -69.6 -78.65 L-69.55 -78.7 -69.5 -78.8 Q-62.65 -89.5 -45.85 -93.4 M-52.0 -95.15 L-49.25 -96.1 -48.8 -96.5 Q-48.7 -96.8 -48.75 -97.05 L-49.15 -97.5 -49.7 -97.55 -52.55 -96.55 -52.95 -96.15 -53.0 -95.55 -52.6 -95.15 -52.0 -95.15 M-58.05 -92.1 Q-56.8 -92.9 -55.5 -93.5 L-55.15 -93.95 -55.15 -94.5 -55.6 -94.9 -56.15 -94.85 -58.85 -93.4 -59.15 -92.9 -59.1 -92.35 Q-58.95 -92.1 -58.6 -92.0 L-58.05 -92.1 M-43.75 -79.95 Q-44.05 -79.75 -44.4 -79.65 L-45.15 -79.65 -45.25 -79.7 -45.35 -79.75 -45.5 -79.8 -45.7 -79.85 -45.85 -79.9 Q-46.75 -80.3 -47.0 -80.9 L-47.15 -81.35 Q-47.2 -82.5 -46.6 -83.45 L-45.4 -84.9 -45.0 -85.2 -44.95 -85.25 -44.75 -85.4 -44.75 -85.45 -44.65 -85.4 -44.15 -85.7 -44.1 -85.7 -43.75 -85.75 -44.15 -85.5 -44.75 -84.95 -45.2 -84.25 -45.45 -83.65 -45.6 -83.55 Q-45.55 -83.1 -45.75 -82.6 L-45.5 -82.1 -45.35 -81.75 -45.15 -81.15 -44.55 -80.35 Q-44.2 -80.0 -44.05 -80.1 L-43.75 -79.95 M-47.5 -59.65 L-47.7 -59.45 Q-48.0 -59.25 -48.35 -59.1 L-48.45 -59.1 -48.6 -59.05 -48.75 -59.05 -48.95 -59.05 -49.15 -59.0 Q-50.4 -58.95 -50.9 -59.7 -51.5 -60.7 -51.4 -61.85 L-51.3 -62.55 -50.75 -64.1 -50.75 -64.15 -50.6 -64.35 -50.6 -64.4 -50.55 -64.45 -50.25 -64.9 -49.9 -65.15 -50.15 -64.75 -50.4 -64.0 -50.5 -63.15 -50.45 -62.6 -50.45 -62.55 -50.55 -62.4 Q-50.3 -62.0 -50.2 -61.45 L-49.75 -61.1 -49.55 -60.9 -49.0 -60.45 -48.1 -60.0 Q-47.7 -59.85 -47.55 -60.0 L-47.3 -60.0 -47.5 -59.65 M-50.4 -37.8 L-50.5 -37.8 -51.35 -37.7 -51.4 -37.75 -51.55 -37.75 -51.7 -37.8 -51.9 -37.85 -52.1 -37.9 Q-53.3 -38.3 -53.5 -39.15 -53.65 -40.1 -53.3 -40.95 L-53.15 -41.3 -51.8 -43.2 -51.8 -43.25 -51.55 -43.4 -51.55 -43.45 -51.5 -43.5 -51.05 -43.75 -50.65 -43.9 -50.95 -43.65 -51.45 -42.95 -51.9 -42.25 -52.1 -41.7 -52.1 -41.65 -52.2 -41.5 -52.25 -40.5 -51.95 -40.05 -51.75 -39.75 -51.45 -39.15 -50.8 -38.4 -50.25 -38.25 -50.0 -38.15 Q-50.2 -37.9 -50.4 -37.8 M-55.5 -22.7 L-55.15 -22.9 -55.4 -22.55 -55.65 -21.8 -55.9 -21.0 -55.95 -20.75 -55.95 -20.35 -56.05 -20.2 Q-55.85 -19.8 -55.8 -19.25 L-55.4 -18.85 -55.15 -18.6 -54.75 -18.1 -53.9 -17.55 Q-53.45 -17.35 -53.35 -17.55 L-53.05 -17.5 -53.5 -16.95 -54.25 -16.7 -54.35 -16.7 -54.5 -16.7 -54.6 -16.7 -54.85 -16.7 -55.05 -16.7 Q-56.3 -16.75 -56.7 -17.55 -57.15 -18.6 -56.95 -19.75 L-56.35 -21.35 -56.05 -21.95 -56.05 -22.0 -55.9 -22.2 -55.9 -22.25 -55.5 -22.7 M-13.55 3.2 L-15.55 0.95 Q-15.75 0.7 -16.05 0.7 L-16.6 0.85 -16.85 1.4 -16.65 1.9 -14.65 4.2 -14.1 4.5 Q-13.9 4.5 -13.6 4.3 L-13.35 3.75 -13.55 3.2" fill="#cdcdcd" fill-rule="evenodd" stroke="none"/>
    <path d="M32.2 -62.1 L32.0 -62.4 Q30.85 -63.95 28.0 -66.5 L23.0 -70.6 17.3 -74.35 Q13.1 -77.35 9.3 -82.4 6.55 -86.1 3.2 -92.15 0.8 -96.5 0.15 -99.1 -0.45 -101.85 -0.35 -106.2 -0.15 -112.4 0.85 -116.65 2.1 -121.9 4.85 -125.35 L5.1 -125.65 6.1 -124.95 7.1 -124.15 7.25 -124.0 Q11.4 -120.65 16.2 -115.45 L16.85 -114.75 Q22.4 -108.65 29.1 -95.95 L29.05 -95.9 28.65 -95.5 Q28.55 -95.2 28.7 -94.9 L29.85 -92.2 30.25 -91.8 30.85 -91.8 31.1 -91.95 Q38.0 -78.2 46.05 -57.7 49.75 -48.7 55.4 -21.2 L55.55 -18.05 55.85 -18.45 56.35 -15.1 Q56.8 -11.25 56.65 -7.4 L50.9 -9.9 50.35 -9.95 49.95 -9.55 45.75 -0.9 45.75 -1.25 45.75 -3.05 45.6 -8.3 45.5 -10.45 45.4 -12.0 Q44.8 -18.75 43.25 -26.35 41.7 -33.7 38.7 -44.05 L35.5 -54.45 Q34.3 -58.35 33.0 -60.8 L33.05 -61.2 32.95 -61.75 32.45 -62.1 32.2 -62.1 M9.3 -118.35 Q10.5 -117.85 11.8 -117.15 L12.4 -117.1 12.75 -117.35 12.85 -117.5 12.9 -118.05 12.5 -118.5 11.15 -119.2 9.85 -119.75 9.25 -119.75 8.85 -119.3 8.85 -118.75 9.3 -118.35 M3.0 -119.5 L5.75 -119.4 6.3 -119.55 6.6 -120.0 6.45 -120.6 6.0 -120.9 2.85 -121.0 Q2.5 -120.95 2.35 -120.7 2.1 -120.5 2.15 -120.15 L2.45 -119.65 3.0 -119.5 M31.1 -88.55 L31.8 -85.75 32.1 -85.25 32.65 -85.15 32.85 -85.2 33.15 -85.5 33.25 -86.05 32.55 -88.95 32.2 -89.4 31.6 -89.45 31.15 -89.1 31.1 -88.55 M32.4 -81.85 L32.7 -78.95 Q32.7 -78.65 32.95 -78.4 33.2 -78.2 33.5 -78.25 33.8 -78.25 34.0 -78.45 L34.05 -78.5 34.2 -79.05 33.9 -82.05 33.6 -82.55 33.05 -82.7 32.55 -82.4 32.45 -82.25 32.4 -81.85 M32.85 -75.05 L32.8 -72.1 33.0 -71.6 Q33.2 -71.35 33.55 -71.35 L34.05 -71.55 34.3 -72.05 34.35 -75.05 34.15 -75.55 33.6 -75.8 33.1 -75.55 32.85 -75.05 M32.5 -68.2 L32.15 -65.3 Q32.1 -65.0 32.3 -64.75 32.5 -64.5 32.8 -64.45 L33.35 -64.6 33.65 -65.1 34.0 -68.05 33.85 -68.6 Q33.65 -68.85 33.35 -68.9 33.0 -68.95 32.8 -68.7 L32.5 -68.2 M21.5 33.25 L22.5 32.95 24.95 32.15 25.4 31.95 25.45 31.95 26.9 31.4 Q10.6 44.25 -11.2 44.75 -33.3 45.2 -50.25 32.65 L-48.25 33.35 -45.85 34.05 -44.35 34.5 -44.35 34.45 -44.1 34.55 -34.95 36.3 -34.6 36.35 -34.3 36.4 -34.0 36.45 -25.6 37.25 -24.3 37.35 -24.05 37.35 -24.05 37.4 -22.8 37.45 -13.7 37.65 -13.5 37.65 -11.45 37.6 -2.6 37.25 -1.75 37.2 6.5 36.35 6.9 36.3 7.85 36.2 8.15 36.15 8.5 36.1 11.65 35.55 12.3 35.45 12.75 35.35 13.4 35.25 13.8 35.05 14.0 34.7 Q16.05 26.5 17.0 18.5 17.5 25.15 17.1 32.2 L17.2 32.6 17.5 32.9 18.9 33.75 18.95 33.75 19.25 33.85 19.5 33.85 21.5 33.25" fill="#a8a8a8" fill-rule="evenodd" stroke="none"/>
    <path d="M22.15 8.55 L22.05 25.4 21.6 31.65 20.1 32.1 Q20.75 20.2 18.6 9.25 L20.6 8.85 22.15 8.55 M21.9 31.6 L23.75 15.85 24.05 8.15 25.45 7.85 29.6 6.95 29.1 9.75 Q27.7 17.6 26.6 21.65 25.15 27.1 22.95 31.25 L21.9 31.6 M24.3 30.8 L24.9 30.55 24.3 30.8 M14.15 5.95 L12.55 6.1 10.4 6.25 12.45 4.3 14.15 5.95 M16.1 9.75 L16.05 10.9 16.05 10.95 16.05 11.1 Q15.55 22.3 12.65 33.9 L12.35 33.95 10.0 34.35 8.5 34.6 8.7 33.45 9.2 33.2 9.2 33.15 Q9.95 32.6 10.3 31.2 10.95 28.9 11.45 24.0 L12.3 15.9 Q12.4 14.5 11.95 13.9 L12.25 10.35 16.1 9.75 M0.2 11.05 L7.0 10.75 10.35 10.5 10.2 13.35 5.7 13.35 0.0 13.45 0.2 11.05 M8.25 33.6 L8.05 34.65 6.25 34.95 -2.2 35.75 -2.05 34.45 3.1 34.05 7.1 33.75 8.25 33.6 M-80.05 -18.0 L-78.6 -17.3 -78.25 -17.1 -77.05 -16.45 -74.05 -14.35 -70.75 -11.5 -70.75 -11.45 -71.1 -10.7 -71.35 -10.1 -71.6 -9.3 -72.25 -6.5 Q-72.65 -3.5 -71.8 -0.65 L-71.5 0.2 -70.85 1.75 -70.9 1.6 -71.15 1.5 -72.1 0.65 -72.75 -0.65 -72.9 -1.1 Q-73.5 -3.65 -73.45 -6.1 L-73.65 -7.2 -74.4 -7.75 -76.15 -8.4 -77.35 -8.8 -77.8 -8.95 -80.35 -9.85 -80.65 -10.0 Q-81.45 -10.45 -81.8 -10.9 L-82.15 -11.6 -82.15 -13.4 -82.0 -14.05 -81.9 -14.3 -81.55 -15.25 -80.65 -17.1 -80.05 -18.0 M-35.75 -13.6 L-35.7 -13.5 -35.55 -13.0 -35.5 -12.95 -35.5 -13.0 -34.75 -8.5 -34.75 -8.35 -34.7 -8.15 -34.65 -7.5 -34.5 -6.05 -34.45 -4.9 -34.45 -4.8 -34.55 -4.55 Q-34.9 -3.6 -35.4 -2.75 L-35.85 -1.4 -35.85 -1.35 -35.35 -0.05 Q-35.05 0.55 -35.15 2.4 -35.45 4.6 -35.95 5.5 L-36.6 6.3 -37.1 6.65 Q-37.85 7.1 -38.6 7.05 -38.35 7.3 -38.4 7.7 L-38.5 8.05 -38.7 8.45 -39.3 8.85 -41.6 8.75 Q-44.1 8.1 -46.0 7.2 L-46.5 6.95 -50.25 5.0 -51.15 4.5 -56.15 2.35 -56.9 1.75 -56.55 1.8 Q-54.0 2.25 -49.15 4.35 L-43.45 6.45 -42.8 6.6 -42.75 6.6 -41.8 6.8 Q-41.75 6.5 -42.2 5.9 L-42.2 5.85 Q-42.65 5.35 -42.55 5.0 -42.45 4.5 -41.4 4.5 L-39.55 4.5 -38.75 4.4 Q-38.3 4.25 -37.9 3.4 -37.4 2.4 -37.35 1.8 -37.15 0.85 -37.75 0.25 -38.2 -0.2 -39.65 -0.3 L-42.7 -0.75 Q-43.35 -0.85 -43.55 -1.25 -43.7 -1.75 -43.0 -2.25 -42.25 -2.7 -40.5 -2.95 -38.75 -3.15 -38.05 -3.65 -37.5 -4.0 -37.05 -4.7 L-36.55 -5.6 -36.3 -6.15 -35.7 -8.6 -35.6 -11.0 -35.75 -13.6 M-58.9 1.35 L-58.7 1.85 Q-59.0 2.1 -59.0 2.85 -58.95 3.4 -59.05 3.7 L-59.2 3.9 -60.15 4.05 Q-61.8 3.85 -62.35 3.3 L-62.6 3.05 -63.4 2.4 -63.9 2.6 -64.0 2.75 -64.1 3.1 -64.2 3.5 -64.45 3.55 -68.35 2.9 -68.7 2.4 -68.75 2.35 -68.95 2.1 -69.25 1.55 -69.3 1.5 -69.3 1.45 -69.85 0.35 -69.0 0.55 Q-66.8 1.85 -65.55 1.9 -65.45 1.7 -65.7 1.15 L-65.85 0.45 -66.0 -0.8 -66.05 -1.05 -65.95 -3.75 -65.8 -4.25 -65.3 -4.4 -64.8 -4.1 -63.9 -2.0 -63.7 -0.85 -63.6 -0.55 -62.95 0.2 -61.65 1.45 -61.25 1.7 -60.65 1.65 -60.0 1.35 -59.5 0.95 -58.75 1.75 -58.9 1.35 M-81.15 -4.75 L-79.4 -5.0 -77.05 -5.0 -76.0 -4.95 -75.6 -4.85 -75.45 -4.75 -75.35 -4.5 -74.9 -4.0 Q-74.75 -3.65 -74.9 -3.35 L-75.05 -3.05 -75.3 -2.85 Q-75.65 -2.6 -76.4 -2.3 L-77.05 -2.1 -80.0 -1.25 -80.8 -1.2 -81.5 -1.2 -82.3 -1.25 Q-83.15 -1.25 -83.5 -1.75 -83.7 -2.05 -83.7 -3.05 L-83.7 -3.6 Q-83.55 -4.0 -82.8 -4.3 L-82.15 -4.5 -81.15 -4.75 M-73.45 -11.35 Q-73.8 -12.0 -74.5 -12.7 L-75.75 -13.9 -76.95 -14.8 -77.5 -15.05 -78.1 -15.2 -78.5 -15.25 -79.2 -15.25 -79.4 -15.25 Q-80.0 -15.25 -80.15 -14.9 L-80.25 -14.7 Q-80.3 -14.3 -79.65 -13.85 L-79.05 -13.45 -78.35 -13.0 -77.65 -12.55 -77.1 -12.2 -76.7 -11.95 -75.75 -11.2 Q-74.9 -10.45 -74.45 -10.5 -74.25 -10.0 -73.8 -10.1 -73.25 -10.2 -73.25 -10.65 -73.2 -11.0 -73.45 -11.35 M-32.7 6.55 Q-31.55 2.55 -31.8 -1.45 L-31.9 -2.7 -31.9 -2.9 -24.75 -2.8 -25.15 1.5 -20.9 7.0 -25.0 6.9 -27.5 6.8 -32.7 6.55 M-2.85 6.9 L-7.2 7.0 -4.95 4.9 -2.85 6.9 M-14.4 11.35 L-14.3 14.4 -24.75 14.75 -24.85 11.4 -14.4 11.35 M-12.6 14.3 L-12.45 11.35 -1.7 11.1 -1.8 13.5 -5.15 13.65 -9.65 14.05 -12.6 14.3 M-34.85 11.35 L-32.15 11.4 -27.15 11.4 -26.9 14.8 -29.35 14.8 Q-30.55 14.8 -31.2 15.15 -32.25 15.8 -32.15 17.4 L-32.0 18.65 -31.7 19.85 Q-31.45 21.2 -31.35 22.9 L-30.8 31.1 Q-30.7 33.1 -29.85 33.7 L-28.35 34.15 -24.7 34.3 -24.5 35.85 -34.75 34.8 -34.9 33.55 -34.3 33.5 -33.8 33.35 -33.55 32.85 Q-33.25 31.35 -33.65 28.3 -34.2 23.65 -34.35 19.5 L-34.45 18.2 Q-34.6 17.1 -35.05 16.05 L-35.5 15.4 -36.2 15.2 -36.6 15.0 -36.7 13.4 Q-35.5 12.75 -34.85 11.35 M-24.15 34.3 L-22.75 34.25 -17.15 34.15 -16.85 34.15 -13.8 34.2 -13.75 36.15 -24.1 35.85 -24.15 34.3 M-13.45 36.15 L-13.35 34.25 -11.8 34.3 -4.65 34.5 -2.5 34.45 -2.55 35.75 -11.45 36.1 -13.45 36.15 M-38.05 13.85 L-38.0 14.45 -38.05 14.45 Q-38.8 14.55 -39.15 15.4 -39.4 15.95 -39.3 16.85 -39.2 24.45 -37.9 31.6 L-37.75 32.15 -37.2 32.75 -36.95 32.9 -36.85 33.0 -36.35 33.25 -35.55 33.5 -35.3 34.75 -44.45 32.9 -47.4 18.5 -48.25 9.7 Q-44.1 12.0 -39.55 13.85 L-39.35 13.9 -38.05 13.85 M-50.35 9.5 L-49.55 14.85 -44.8 32.8 -47.05 32.15 -48.6 29.2 -50.7 23.7 -53.2 16.05 Q-54.3 12.15 -54.75 8.85 L-54.65 8.85 -53.2 8.9 -51.0 9.4 -50.35 9.5 M-75.65 0.25 L-75.35 0.65 -75.5 1.15 -76.1 1.4 -76.8 1.65 -78.05 2.25 -79.0 2.45 Q-79.7 2.35 -79.6 1.8 L-78.95 1.2 -76.3 0.2 -75.65 0.25" fill="#292929" fill-rule="evenodd" stroke="none"/>
    <path d="M-22.65 -4.05 L-23.2 -2.15 -23.25 -2.05 -23.3 -1.65 -23.25 -0.55 -23.3 -0.3 -23.1 0.25 -22.95 0.4 -22.9 0.5 -22.85 0.45 -16.5 7.05 -20.9 7.0 -25.15 1.5 -24.75 -2.8 -24.65 -3.95 -24.65 -4.1 -22.65 -4.05 M-15.05 8.55 L-14.45 9.2 -14.4 11.35 -24.85 11.4 -24.95 8.4 -19.6 8.5 -15.05 8.55 M-12.35 8.7 L-12.2 8.55 -8.8 8.55 -1.6 8.35 -1.7 11.1 -12.45 11.35 -12.35 8.7 M-10.4 7.05 L-4.85 2.35 0.0 6.8 -1.55 6.85 -2.85 6.9 -4.95 4.9 -7.2 7.0 -10.4 7.05 M1.55 8.25 L3.1 9.65 Q3.3 9.85 3.6 9.85 L4.15 9.65 5.8 8.05 8.65 7.9 10.35 7.75 10.35 10.5 7.0 10.75 0.2 11.05 0.5 8.3 1.55 8.25 M7.45 6.45 L12.3 1.75 16.85 5.7 16.15 5.8 14.15 5.95 12.45 4.3 10.4 6.25 10.35 6.25 7.45 6.45 M18.4 7.05 L19.7 8.2 20.25 8.35 20.8 8.1 22.0 6.7 22.15 8.55 20.6 8.85 18.6 9.25 18.35 8.15 18.15 7.1 18.4 7.05 M23.55 4.95 L28.2 -0.4 32.05 3.65 24.0 4.9 23.55 4.95 M33.3 4.95 L33.4 5.05 32.65 12.9 32.6 13.15 32.6 13.4 31.9 18.15 31.85 18.35 31.85 18.6 29.75 28.55 29.75 28.6 28.75 29.0 27.0 29.75 26.8 29.8 24.9 30.55 24.3 30.8 23.7 31.0 22.95 31.25 Q25.15 27.1 26.6 21.65 27.7 17.6 29.1 9.75 L29.6 6.95 25.45 7.85 24.05 8.15 24.0 6.4 33.3 4.95 M35.3 5.2 L35.8 4.45 43.15 2.7 42.95 4.35 40.2 16.95 37.9 24.0 Q35.05 26.15 30.2 28.35 L31.7 23.45 35.3 5.5 35.3 5.2 M36.85 2.7 L40.65 -3.4 44.3 0.85 43.35 1.15 36.85 2.7 M45.55 1.95 L45.9 1.9 46.05 1.8 50.6 -0.1 48.6 5.5 48.4 6.0 47.1 9.0 46.8 9.65 42.05 18.95 41.2 20.4 39.6 22.5 38.85 23.2 38.95 22.85 39.1 22.55 40.1 20.05 40.2 19.65 40.5 18.9 44.05 7.6 45.25 2.3 45.3 2.05 45.55 1.95 M47.0 -0.05 L51.0 -8.25 53.55 -7.15 53.55 -5.35 53.55 -5.25 53.3 -4.2 Q52.75 -3.1 51.15 -2.05 49.6 -1.05 47.0 -0.05 M12.45 7.6 L15.6 7.35 16.15 7.3 16.15 8.6 16.1 9.75 12.25 10.35 12.45 7.6 M-69.95 0.1 L-70.05 0.35 -70.3 1.2 -70.65 2.1 -70.6 2.2 -70.4 2.55 -70.55 2.65 -70.95 2.85 -71.1 2.95 -71.55 3.2 -72.0 3.45 -73.7 4.35 -73.9 4.45 -75.1 4.9 -75.45 5.05 Q-77.8 5.9 -79.9 6.25 L-81.55 5.15 -81.6 5.15 Q-83.55 3.65 -84.7 1.3 -86.45 -2.3 -86.4 -8.1 -86.4 -13.9 -84.5 -17.15 L-84.45 -17.2 Q-83.9 -18.4 -82.75 -18.9 L-82.55 -19.0 -82.05 -18.85 -81.7 -18.7 -81.2 -18.5 -80.65 -18.3 -80.05 -18.0 -80.65 -17.1 -81.55 -15.25 -81.9 -14.3 -82.0 -14.05 -82.15 -13.4 -82.15 -11.6 -81.8 -10.9 Q-81.45 -10.45 -80.65 -10.0 L-80.35 -9.85 -77.8 -8.95 -77.35 -8.8 -76.15 -8.4 -74.4 -7.75 -73.65 -7.2 -73.45 -6.1 Q-73.5 -3.65 -72.9 -1.1 L-72.75 -0.65 -72.1 0.65 -71.15 1.5 -70.9 1.6 -70.85 1.75 -71.5 0.2 -71.8 -0.65 Q-72.65 -3.5 -72.25 -6.5 L-71.6 -9.3 -71.35 -10.1 -71.1 -10.7 -70.75 -11.4 -70.35 -11.15 -69.55 -10.5 -69.9 -9.65 -70.45 -7.85 -70.75 -6.3 -70.75 -6.25 Q-71.05 -4.25 -70.65 -2.3 L-70.25 -0.7 -69.95 0.1 M-58.6 -8.85 L-57.75 -9.05 -56.7 -9.25 -57.15 -8.5 -57.45 -7.85 -57.75 -7.1 Q-58.25 -5.75 -58.35 -4.4 L-58.4 -3.5 -58.1 -0.95 -58.0 -0.65 -57.1 1.75 -56.9 1.75 -56.15 2.35 -51.15 4.5 -50.25 5.0 -46.5 6.95 -46.0 7.2 Q-44.1 8.1 -41.6 8.75 L-39.3 8.85 -38.7 8.45 -38.5 8.05 -38.4 7.7 Q-38.35 7.3 -38.6 7.05 -37.85 7.1 -37.1 6.65 L-36.6 6.3 -35.95 5.5 Q-35.45 4.6 -35.15 2.4 -35.05 0.55 -35.35 -0.05 L-35.85 -1.35 -35.85 -1.4 -35.4 -2.75 Q-34.9 -3.6 -34.55 -4.55 L-34.45 -4.8 -34.4 -4.55 -34.4 -1.4 Q-34.45 2.05 -35.1 5.65 L-35.2 6.4 -35.5 7.9 -36.1 10.45 -36.1 10.5 -36.55 11.3 -36.75 11.55 -38.25 12.35 -39.1 12.4 -44.4 10.05 -48.45 7.9 -50.85 6.45 -50.9 6.45 -52.9 5.15 -53.85 4.5 -54.3 4.2 -54.35 4.2 -54.8 3.85 -55.25 3.55 -56.8 2.45 -57.05 1.95 -57.65 1.45 -58.4 0.95 -59.25 0.35 -59.3 0.35 -59.55 -0.7 -59.75 -1.75 -59.9 -3.5 -59.8 -5.1 -59.25 -7.35 -58.9 -8.25 -58.65 -8.75 -58.6 -8.85 M-59.15 0.75 L-58.9 1.35 -58.75 1.75 -59.5 0.95 -59.45 0.9 -59.15 0.75 M-58.7 1.85 L-58.6 2.1 -58.0 3.3 -57.8 3.55 -57.2 4.0 -56.8 4.3 -57.9 5.1 -58.45 5.3 -59.0 5.5 -61.35 5.75 -62.75 5.65 -65.25 5.05 Q-66.85 4.45 -67.95 3.35 L-68.35 2.9 -64.45 3.55 -64.2 3.5 -64.1 3.1 -64.0 2.75 -63.9 2.6 -63.4 2.4 -62.6 3.05 -62.35 3.3 Q-61.8 3.85 -60.15 4.05 L-59.2 3.9 -59.05 3.7 Q-58.95 3.4 -59.0 2.85 -59.0 2.1 -58.7 1.85 M-81.15 -4.75 L-82.15 -4.5 -82.8 -4.3 Q-83.55 -4.0 -83.7 -3.6 L-83.7 -3.05 Q-83.7 -2.05 -83.5 -1.75 -83.15 -1.25 -82.3 -1.25 L-81.5 -1.2 -80.8 -1.2 -80.0 -1.25 -77.05 -2.1 -76.4 -2.3 Q-75.65 -2.6 -75.3 -2.85 L-75.05 -3.05 -74.9 -3.35 Q-74.75 -3.65 -74.9 -4.0 L-75.35 -4.5 -75.45 -4.75 -75.6 -4.85 -76.0 -4.95 -77.05 -5.0 -79.4 -5.0 -81.15 -4.75 M-78.5 -20.8 L-78.35 -18.9 -78.65 -19.05 -79.9 -19.6 -78.65 -20.7 -78.5 -20.8 M-32.15 -4.4 L-32.1 -4.2 -31.9 -2.9 -31.9 -2.7 -31.8 -1.45 Q-31.55 2.55 -32.7 6.55 L-33.7 6.5 -33.6 5.9 Q-32.95 2.15 -32.85 -1.45 L-32.9 -4.45 -32.15 -4.4 M-27.4 8.3 L-27.15 11.4 -32.15 11.4 -34.85 11.35 -34.7 11.0 -34.65 10.9 -34.0 8.0 -32.75 8.05 -27.4 8.3 M-50.55 8.4 L-50.35 9.5 -51.0 9.4 -53.2 8.9 -54.65 8.85 -54.75 8.85 Q-54.3 12.15 -53.2 16.05 L-50.7 23.7 -48.6 29.2 -47.05 32.15 -47.8 31.9 -48.8 31.55 -52.5 30.25 -53.65 29.8 -53.65 29.75 -56.95 17.85 -58.75 7.0 -57.25 6.45 -56.1 5.7 -54.4 5.95 -53.75 6.4 -50.55 8.4 M-60.95 7.25 L-57.05 21.8 -54.25 29.55 Q-57.6 28.15 -59.9 26.75 L-62.6 24.8 -65.45 17.15 -67.85 8.45 -68.5 4.9 Q-67.35 5.9 -65.8 6.45 L-62.95 7.15 -62.9 7.15 -60.95 7.25 M-75.65 0.25 L-76.3 0.2 -78.95 1.2 -79.6 1.8 Q-79.7 2.35 -79.0 2.45 L-78.05 2.25 -76.8 1.65 -76.1 1.4 -75.5 1.15 -75.35 0.65 -75.65 0.25 M-70.5 4.35 L-67.0 16.2 -66.5 17.5 -66.3 17.9 -64.85 21.55 -64.65 21.9 -63.95 23.4 -64.45 22.7 -64.45 22.65 -68.4 15.8 Q-71.05 10.75 -73.15 5.75 L-70.5 4.35" fill="#191919" fill-rule="evenodd" stroke="none"/>
    <path d="M-22.2 -5.55 L-22.65 -4.05 -24.65 -4.1 -32.15 -4.4 -32.9 -4.45 -32.85 -1.45 Q-32.95 2.15 -33.6 5.9 L-33.7 6.5 -32.7 6.55 -27.5 6.8 -25.0 6.9 -20.9 7.0 -16.5 7.05 -15.05 8.55 -19.6 8.5 -24.95 8.4 -27.4 8.3 -32.75 8.05 -34.0 8.0 -34.65 10.9 -34.7 11.0 -34.85 11.35 Q-35.5 12.75 -36.7 13.4 L-38.05 13.85 -39.35 13.9 -39.55 13.85 Q-44.1 12.0 -48.25 9.7 L-50.55 8.4 -53.75 6.4 -54.4 5.95 -56.1 5.7 -57.25 6.45 -58.75 7.0 -60.95 7.25 -62.9 7.15 -62.95 7.15 -65.8 6.45 Q-67.35 5.9 -68.5 4.9 L-69.55 3.8 -70.5 4.35 -73.15 5.75 Q-71.05 10.75 -68.4 15.8 L-64.45 22.65 -64.45 22.7 -63.95 23.4 -62.25 27.0 Q-64.55 25.35 -65.6 23.7 L-65.65 23.55 -65.75 23.45 Q-71.0 14.9 -74.55 6.3 L-74.9 6.45 Q-77.5 7.45 -79.9 7.75 L-80.3 7.7 Q-81.5 7.15 -82.5 6.35 -84.75 4.65 -86.05 1.95 -87.95 -1.9 -87.9 -8.1 -87.9 -14.35 -85.8 -17.85 L-85.8 -17.9 Q-84.85 -19.9 -82.75 -20.5 L-82.3 -20.5 -81.95 -20.4 -81.4 -20.2 -80.4 -21.25 -78.6 -22.5 -78.5 -22.6 -78.5 -20.8 -78.65 -20.7 -79.9 -19.6 -78.65 -19.05 -78.35 -18.9 -77.15 -18.2 -73.15 -15.55 -69.95 -12.8 -69.45 -13.45 -69.4 -13.5 Q-67.25 -16.0 -62.35 -14.95 L-62.3 -14.95 -62.15 -14.9 -60.15 -14.35 -58.55 -13.7 -56.35 -12.15 -56.2 -12.05 -56.05 -11.85 -54.7 -12.5 Q-50.7 -14.4 -46.7 -15.55 -43.4 -16.55 -40.15 -16.95 L-38.15 -17.2 -37.85 -17.15 Q-34.9 -16.25 -34.05 -13.35 L-34.05 -13.3 -33.2 -8.35 -33.0 -5.95 -32.05 -5.9 -24.35 -5.6 -22.2 -5.55 M-12.2 8.55 L-10.4 7.05 -7.2 7.0 -2.85 6.9 -1.55 6.85 0.0 6.8 1.55 8.25 0.5 8.3 -1.35 8.35 -1.6 8.35 -8.8 8.55 -12.2 8.55 M5.8 8.05 L7.45 6.45 10.35 6.25 10.4 6.25 12.55 6.1 14.15 5.95 16.15 5.8 16.85 5.7 18.4 7.05 18.15 7.1 18.35 8.15 18.6 9.25 Q20.75 20.2 20.1 32.1 L21.6 31.65 21.5 33.25 19.5 33.85 19.25 33.85 18.95 33.75 18.9 33.75 17.5 32.9 17.2 32.6 17.1 32.2 Q17.5 25.15 17.0 18.5 16.05 26.5 14.0 34.7 L13.8 35.05 13.4 35.25 12.75 35.35 12.3 35.45 11.65 35.55 8.5 36.1 8.15 36.15 8.5 34.6 10.0 34.35 12.35 33.95 12.65 33.9 Q15.55 22.3 16.05 11.1 L16.05 10.95 16.05 10.9 16.1 9.75 16.15 8.6 16.15 7.3 15.6 7.35 12.45 7.6 10.35 7.75 8.65 7.9 5.8 8.05 M22.05 6.65 L23.55 4.95 24.0 4.9 32.05 3.65 33.3 4.95 24.0 6.4 23.15 6.5 22.05 6.65 M35.8 4.45 L36.85 2.7 43.35 1.15 44.3 0.85 45.0 1.7 45.4 1.95 45.55 1.95 45.3 2.05 43.15 2.7 35.8 4.45 M46.05 1.8 L46.25 1.55 47.0 -0.05 Q49.6 -1.05 51.15 -2.05 52.75 -3.1 53.3 -4.2 L53.55 -5.25 53.55 -5.35 53.55 -7.15 55.05 -6.5 55.05 -5.35 55.05 -5.25 Q55.1 -3.1 52.5 -1.25 L50.0 6.05 Q47.1 13.3 42.5 21.15 L42.55 21.1 Q41.3 23.6 37.6 26.1 L38.85 23.2 39.6 22.5 41.2 20.4 42.05 18.95 46.8 9.65 47.1 9.0 48.4 6.0 48.6 5.5 50.6 -0.1 46.05 1.8 M37.1 26.4 L32.4 29.0 31.65 29.35 30.9 29.7 29.65 30.25 30.2 28.35 Q35.05 26.15 37.9 24.0 L37.1 26.4 M-54.95 30.9 L-56.0 30.45 -61.65 27.45 -62.6 24.8 -59.9 26.75 Q-57.6 28.15 -54.25 29.55 L-53.55 31.45 -54.25 31.15 -54.95 30.9 M22.95 31.25 L23.7 31.0 24.3 30.8 24.9 30.55 26.8 29.8 27.0 29.75 28.75 29.0 29.75 28.6 29.35 30.4 26.9 31.4 25.45 31.95 25.4 31.95 24.95 32.15 22.5 32.95 21.7 33.2 21.9 31.6 22.95 31.25 M8.05 34.65 L8.05 34.7 7.85 36.2 6.9 36.3 6.5 36.35 -1.75 37.2 -2.35 37.25 -2.2 35.75 6.25 34.95 8.05 34.65 M-80.05 -18.0 L-80.65 -18.3 -81.2 -18.5 -81.7 -18.7 -82.05 -18.85 -82.55 -19.0 -82.75 -18.9 Q-83.9 -18.4 -84.45 -17.2 L-84.5 -17.15 Q-86.4 -13.9 -86.4 -8.1 -86.45 -2.3 -84.7 1.3 -83.55 3.65 -81.6 5.15 L-81.55 5.15 -79.9 6.25 Q-77.8 5.9 -75.45 5.05 L-75.1 4.9 -73.9 4.45 -73.7 4.35 -72.0 3.45 -71.55 3.2 -71.1 2.95 -70.95 2.85 -70.55 2.65 -70.4 2.55 -70.6 2.2 -70.65 2.1 -70.3 1.2 -70.05 0.35 -69.95 0.1 -69.85 0.35 -69.3 1.45 -69.3 1.5 -69.25 1.55 -68.95 2.1 -68.75 2.35 -68.7 2.4 -68.35 2.9 -67.95 3.35 Q-66.85 4.45 -65.25 5.05 L-62.75 5.65 -61.35 5.75 -59.0 5.5 -58.45 5.3 -57.9 5.1 -56.8 4.3 -57.2 4.0 -57.8 3.55 -58.0 3.3 -58.6 2.1 -58.7 1.85 -58.9 1.35 -59.15 0.75 -59.25 0.35 -58.4 0.95 -57.65 1.45 -57.05 1.95 -56.8 2.45 -55.25 3.55 -54.8 3.85 -54.35 4.2 -54.3 4.2 -53.85 4.5 -52.9 5.15 -50.9 6.45 -50.85 6.45 -48.45 7.9 -44.4 10.05 -39.1 12.4 -38.25 12.35 -36.75 11.55 -36.55 11.3 -36.1 10.5 -36.1 10.45 -35.5 7.9 -35.2 6.4 -35.1 5.65 Q-34.45 2.05 -34.4 -1.4 L-34.4 -4.55 -34.45 -4.8 -34.45 -4.9 -34.5 -6.05 -34.65 -7.5 -34.7 -8.15 -34.75 -8.35 -34.75 -8.5 -35.5 -13.0 -35.5 -12.95 -35.55 -13.0 -35.7 -13.5 -35.75 -13.6 Q-36.45 -15.1 -38.2 -15.65 L-38.35 -15.65 -43.9 -14.7 -43.95 -14.7 Q-48.55 -13.65 -53.2 -11.5 L-55.8 -10.25 -55.85 -10.25 -56.15 -10.1 -56.7 -9.25 -57.75 -9.05 -58.6 -8.85 -58.0 -9.95 -57.95 -10.05 -57.3 -11.05 -58.25 -11.8 -59.9 -12.7 -61.2 -13.15 -62.45 -13.45 Q-66.55 -14.35 -68.35 -12.45 L-68.65 -12.05 -69.05 -11.45 -69.15 -11.25 -69.25 -11.05 -69.55 -10.5 -70.35 -11.15 -70.75 -11.4 -71.1 -10.7 -70.75 -11.45 -70.75 -11.5 -74.05 -14.35 -77.05 -16.45 -78.25 -17.1 -78.6 -17.3 -80.05 -18.0 M-2.6 37.25 L-11.45 37.6 -13.5 37.65 -13.45 36.15 -11.45 36.1 -2.55 35.75 -2.6 37.25 M-13.7 37.65 L-22.8 37.45 -24.05 37.4 -24.05 37.35 -24.1 35.85 -13.75 36.15 -13.7 37.65 M-24.3 37.35 L-25.6 37.25 -34.0 36.45 -34.3 36.4 -34.6 36.35 -34.75 34.8 -24.5 35.85 -24.3 37.35 M-34.95 36.3 L-44.1 34.55 -44.45 32.9 -35.3 34.75 -34.95 36.3 M-44.35 34.45 L-44.35 34.5 -45.85 34.05 -48.25 33.35 -50.25 32.65 -53.15 31.6 -53.65 29.8 -52.5 30.25 -48.8 31.55 -47.8 31.9 -47.05 32.15 -44.8 32.8 -44.35 34.45" fill="#070707" fill-rule="evenodd" stroke="none"/>
    <path d="M11.95 13.9 Q12.4 14.5 12.3 15.9 L11.45 24.0 Q10.95 28.9 10.3 31.2 9.95 32.6 9.2 33.15 L9.2 33.2 8.7 33.45 11.75 16.55 11.95 13.9 M0.0 13.45 L5.7 13.35 10.2 13.35 8.65 31.2 8.25 33.6 7.1 33.75 3.1 34.05 -2.05 34.45 0.0 13.45 M-69.55 -10.5 L-69.25 -11.05 -69.15 -11.25 -69.05 -11.45 -68.65 -12.05 -68.35 -12.45 Q-66.55 -14.35 -62.45 -13.45 L-61.2 -13.15 -59.9 -12.7 -58.25 -11.8 -57.3 -11.05 -57.95 -10.05 -58.0 -9.95 -58.6 -8.85 -58.65 -8.75 -58.9 -8.25 -59.25 -7.35 -59.8 -5.1 -59.9 -3.5 -59.75 -1.75 -59.55 -0.7 -59.3 0.35 -59.25 0.35 -59.15 0.75 -59.45 0.9 -59.5 0.95 -60.0 1.35 -60.65 1.65 -61.25 1.7 -61.65 1.45 -62.95 0.2 -63.6 -0.55 -63.7 -0.85 -63.9 -2.0 -64.8 -4.1 -65.3 -4.4 -65.8 -4.25 -65.95 -3.75 -66.05 -1.05 -66.0 -0.8 -65.85 0.45 -65.7 1.15 Q-65.45 1.7 -65.55 1.9 -66.8 1.85 -69.0 0.55 L-69.85 0.35 -69.95 0.1 -70.25 -0.7 -70.65 -2.3 Q-71.05 -4.25 -70.75 -6.25 L-70.75 -6.3 -70.45 -7.85 -69.9 -9.65 -69.55 -10.5 M-56.7 -9.25 L-56.15 -10.1 -55.85 -10.25 -55.8 -10.25 -53.2 -11.5 Q-48.55 -13.65 -43.95 -14.7 L-43.9 -14.7 -38.35 -15.65 -38.2 -15.65 Q-36.45 -15.1 -35.75 -13.6 L-35.6 -11.0 -35.7 -8.6 -36.3 -6.15 -36.55 -5.6 -37.05 -4.7 Q-37.5 -4.0 -38.05 -3.65 -38.75 -3.15 -40.5 -2.95 -42.25 -2.7 -43.0 -2.25 -43.7 -1.75 -43.55 -1.25 -43.35 -0.85 -42.7 -0.75 L-39.65 -0.3 Q-38.2 -0.2 -37.75 0.25 -37.15 0.85 -37.35 1.8 -37.4 2.4 -37.9 3.4 -38.3 4.25 -38.75 4.4 L-39.55 4.5 -41.4 4.5 Q-42.45 4.5 -42.55 5.0 -42.65 5.35 -42.2 5.85 L-42.2 5.9 Q-41.75 6.5 -41.8 6.8 L-42.75 6.6 -42.8 6.6 -43.45 6.45 -49.15 4.35 Q-54.0 2.25 -56.55 1.8 L-56.9 1.75 -57.1 1.75 -58.0 -0.65 -58.1 -0.95 -58.4 -3.5 -58.35 -4.4 Q-58.25 -5.75 -57.75 -7.1 L-57.45 -7.85 -57.15 -8.5 -56.7 -9.25 M-67.25 -5.05 Q-67.1 -5.35 -67.1 -5.65 L-67.05 -6.25 -66.65 -7.65 -66.2 -8.75 -65.95 -9.1 -65.95 -9.15 -65.15 -10.05 -64.85 -10.3 -64.5 -10.65 Q-63.9 -11.15 -63.8 -11.55 L-63.8 -12.2 -64.25 -12.65 -64.85 -12.65 -65.35 -12.65 -65.95 -12.25 -66.45 -11.8 -67.25 -10.9 -67.5 -10.6 -67.5 -10.55 -68.2 -9.25 -68.4 -8.9 -69.05 -5.1 -69.0 -4.65 -68.7 -4.4 -67.7 -4.5 Q-67.4 -4.7 -67.25 -5.05 M-73.45 -11.35 Q-73.2 -11.0 -73.25 -10.65 -73.25 -10.2 -73.8 -10.1 -74.25 -10.0 -74.45 -10.5 -74.9 -10.45 -75.75 -11.2 L-76.7 -11.95 -77.1 -12.2 -77.65 -12.55 -78.35 -13.0 -79.05 -13.45 -79.65 -13.85 Q-80.3 -14.3 -80.25 -14.7 L-80.15 -14.9 Q-80.0 -15.25 -79.4 -15.25 L-79.2 -15.25 -78.5 -15.25 -78.1 -15.2 -77.5 -15.05 -76.95 -14.8 -75.75 -13.9 -74.5 -12.7 Q-73.8 -12.0 -73.45 -11.35 M-62.55 -4.55 Q-61.9 -4.35 -61.55 -4.7 -61.35 -4.95 -61.3 -5.4 L-61.3 -5.95 -61.35 -6.2 Q-61.4 -7.0 -61.0 -7.65 L-60.75 -8.05 -60.15 -8.65 -59.85 -8.95 -59.7 -9.25 Q-59.55 -9.65 -59.55 -10.4 L-59.55 -10.45 -59.65 -11.1 -59.75 -11.2 Q-60.0 -11.55 -60.65 -11.55 -61.65 -11.5 -62.45 -10.9 L-63.55 -9.7 -63.7 -9.4 -63.95 -8.25 -63.95 -7.6 -63.95 -7.45 -63.7 -5.75 Q-63.35 -4.85 -62.55 -4.55 M-37.4 -10.4 Q-37.25 -10.9 -37.25 -11.5 -37.35 -12.4 -37.6 -12.8 -37.95 -13.5 -38.65 -13.65 L-39.1 -13.65 -39.15 -13.65 -39.8 -13.6 -39.9 -13.6 -48.15 -11.9 -53.55 -10.0 Q-54.75 -9.3 -55.45 -8.2 L-55.85 -7.6 -56.05 -6.8 -56.05 -6.7 Q-55.9 -6.1 -55.3 -5.85 L-54.15 -5.7 -50.7 -6.05 -49.95 -6.2 -45.75 -7.05 -42.5 -7.5 Q-40.7 -7.85 -39.45 -8.45 L-38.55 -8.95 Q-37.7 -9.55 -37.4 -10.4 M-51.35 -1.25 L-52.45 -1.65 -53.75 -2.15 -55.9 -2.85 Q-56.4 -2.85 -56.7 -2.5 L-56.8 -1.95 Q-56.8 -1.4 -56.35 -1.0 L-56.2 -0.85 Q-55.7 -0.45 -55.0 -0.2 L-44.95 2.1 -43.3 2.4 -42.1 2.25 Q-41.45 1.75 -41.85 1.2 -42.1 0.9 -42.75 0.9 -45.3 0.75 -47.7 0.0 L-51.35 -1.25 M-31.9 -2.9 L-32.1 -4.2 -32.15 -4.4 -24.65 -4.1 -24.65 -3.95 -24.75 -2.8 -31.9 -2.9 M-24.75 14.75 L-14.3 14.4 -13.8 34.2 -16.85 34.15 -17.15 34.15 -22.75 34.25 -24.15 34.3 -24.75 14.75 M-13.35 34.25 L-12.6 14.3 -9.65 14.05 -5.15 13.65 -1.8 13.5 -2.5 34.45 -4.65 34.5 -11.8 34.3 -13.35 34.25 M-36.6 15.0 L-36.2 15.2 -35.5 15.4 -35.05 16.05 Q-34.6 17.1 -34.45 18.2 L-34.35 19.5 Q-34.2 23.65 -33.65 28.3 -33.25 31.35 -33.55 32.85 L-33.8 33.35 -34.3 33.5 -34.9 33.55 -36.4 20.65 -36.6 15.0 M-24.7 34.3 L-28.35 34.15 -29.85 33.7 Q-30.7 33.1 -30.8 31.1 L-31.35 22.9 Q-31.45 21.2 -31.7 19.85 L-32.0 18.65 -32.15 17.4 Q-32.25 15.8 -31.2 15.15 -30.55 14.8 -29.35 14.8 L-26.9 14.8 -24.7 34.3 M-35.55 33.5 L-36.35 33.25 -36.85 33.0 -36.95 32.9 -37.2 32.75 -37.75 32.15 -37.9 31.6 Q-39.2 24.45 -39.3 16.85 -39.4 15.95 -39.15 15.4 -38.8 14.55 -38.05 14.45 L-38.0 14.45 -35.95 31.6 -35.55 33.5" fill="#3b3b3b" fill-rule="evenodd" stroke="none"/>
    <path d="M-67.25 -5.05 Q-67.4 -4.7 -67.7 -4.5 L-68.7 -4.4 -69.0 -4.65 -69.05 -5.1 -68.4 -8.9 -68.2 -9.25 -67.5 -10.55 -67.5 -10.6 -67.25 -10.9 -66.45 -11.8 -65.95 -12.25 -65.35 -12.65 -64.85 -12.65 -64.25 -12.65 -63.8 -12.2 -63.8 -11.55 Q-63.9 -11.15 -64.5 -10.65 L-64.85 -10.3 -65.15 -10.05 -65.95 -9.15 -65.95 -9.1 -66.2 -8.75 -66.65 -7.65 -67.05 -6.25 -67.1 -5.65 Q-67.1 -5.35 -67.25 -5.05 M-62.55 -4.55 Q-63.35 -4.85 -63.7 -5.75 L-63.95 -7.45 -63.95 -7.6 -63.95 -8.25 -63.7 -9.4 -63.55 -9.7 -62.45 -10.9 Q-61.65 -11.5 -60.65 -11.55 -60.0 -11.55 -59.75 -11.2 L-59.65 -11.1 -59.55 -10.45 -59.55 -10.4 Q-59.55 -9.65 -59.7 -9.25 L-59.85 -8.95 -60.15 -8.65 -60.75 -8.05 -61.0 -7.65 Q-61.4 -7.0 -61.35 -6.2 L-61.3 -5.95 -61.3 -5.4 Q-61.35 -4.95 -61.55 -4.7 -61.9 -4.35 -62.55 -4.55 M-37.4 -10.4 Q-37.7 -9.55 -38.55 -8.95 L-39.45 -8.45 Q-40.7 -7.85 -42.5 -7.5 L-45.75 -7.05 -49.95 -6.2 -50.7 -6.05 -54.15 -5.7 -55.3 -5.85 Q-55.9 -6.1 -56.05 -6.7 L-56.05 -6.8 -55.85 -7.6 -55.45 -8.2 Q-54.75 -9.3 -53.55 -10.0 L-48.15 -11.9 -39.9 -13.6 -39.8 -13.6 -39.15 -13.65 -39.1 -13.65 -38.65 -13.65 Q-37.95 -13.5 -37.6 -12.8 -37.35 -12.4 -37.25 -11.5 -37.25 -10.9 -37.4 -10.4 M-51.35 -1.25 L-47.7 0.0 Q-45.3 0.75 -42.75 0.9 -42.1 0.9 -41.85 1.2 -41.45 1.75 -42.1 2.25 L-43.3 2.4 -44.95 2.1 -55.0 -0.2 Q-55.7 -0.45 -56.2 -0.85 L-56.35 -1.0 Q-56.8 -1.4 -56.8 -1.95 L-56.7 -2.5 Q-56.4 -2.85 -55.9 -2.85 L-53.75 -2.15 -52.45 -1.65 -51.35 -1.25" fill="#484848" fill-rule="evenodd" stroke="none"/>
    <path d="M-1.85 -92.7 L-0.85 -89.55 -0.35 -88.2 -0.35 -88.15 0.25 -86.6 0.3 -86.55 2.35 -82.15 2.6 -81.55 2.65 -81.5 3.2 -80.4 2.95 -77.65 1.5 -79.9 Q1.35 -80.15 1.05 -80.2 L0.45 -80.15 0.15 -79.65 Q0.05 -79.35 0.2 -79.1 L1.9 -76.5 2.35 -76.2 2.7 -76.2 1.85 -74.0 Q0.05 -70.35 -4.35 -68.6 -7.8 -67.3 -12.7 -67.3 L-14.4 -67.35 -15.0 -69.4 -15.4 -69.85 -15.95 -69.9 -16.4 -69.55 -16.45 -68.95 -16.0 -67.4 -16.1 -67.4 -17.25 -67.55 -18.1 -67.95 Q-19.0 -70.25 -20.15 -72.35 -23.3 -77.9 -28.65 -81.8 -30.85 -83.4 -32.45 -84.95 L-32.15 -84.7 -32.25 -87.5 -32.25 -87.7 -32.0 -87.45 -31.45 -87.25 -30.9 -87.45 -30.7 -87.95 -30.9 -88.5 -31.15 -88.8 -30.95 -88.8 -27.8 -88.45 -24.65 -88.25 Q-21.0 -88.25 -18.7 -90.0 L-17.55 -90.95 -16.3 -91.65 -15.05 -91.75 -5.95 -91.8 -4.75 -91.8 -4.0 -89.05 -3.65 -88.6 -3.05 -88.55 -2.6 -88.95 Q-2.5 -89.25 -2.55 -89.5 L-3.3 -92.05 Q-2.7 -92.25 -1.85 -92.7 M1.55 -35.05 L3.65 -35.6 5.8 -35.9 Q10.0 -36.65 14.55 -39.5 16.05 -40.35 15.8 -41.35 15.55 -42.35 13.55 -42.45 6.6 -42.6 0.0 -44.4 -0.95 -44.7 -1.25 -45.05 -1.55 -45.45 -1.5 -46.05 L-1.1 -47.05 0.7 -48.2 5.5 -50.3 Q8.4 -51.5 10.0 -52.6 12.05 -54.0 11.5 -55.45 11.2 -56.45 9.1 -57.0 9.4 -57.3 9.2 -57.75 L8.65 -58.4 6.9 -58.25 2.45 -56.65 Q-0.25 -55.6 -2.0 -55.2 L-5.35 -54.4 Q-7.2 -53.85 -8.3 -52.9 -9.7 -51.65 -10.25 -49.4 -10.65 -47.85 -10.75 -45.15 L-11.6 -20.35 Q-11.7 -19.45 -11.35 -19.05 L-11.15 -18.9 Q-10.7 -18.55 -9.65 -18.65 L-6.1 -18.5 Q-3.85 -18.35 -2.55 -18.5 L-0.3 -19.05 1.9 -19.8 9.7 -21.7 Q12.85 -22.45 14.45 -23.75 15.2 -24.4 15.2 -24.95 15.3 -25.9 14.2 -26.3 L12.45 -26.45 Q8.05 -26.35 4.4 -27.65 0.25 -29.05 -2.15 -32.0 -0.4 -34.25 1.55 -35.05 M-12.4 -54.6 L-11.95 -55.3 Q-10.25 -57.6 -5.85 -59.25 -1.4 -60.9 2.45 -61.65 8.4 -62.95 12.2 -61.55 15.9 -60.25 16.85 -57.1 17.65 -54.5 15.95 -51.35 13.8 -47.5 10.35 -47.1 10.4 -46.35 11.75 -46.15 L17.0 -45.45 Q18.95 -45.25 19.75 -44.55 20.75 -43.75 21.05 -41.7 21.3 -39.35 20.5 -37.7 19.45 -35.55 16.2 -34.0 12.6 -32.55 11.0 -31.5 L19.9 -29.85 Q23.05 -29.35 24.2 -28.1 25.3 -26.9 25.25 -25.1 25.15 -23.4 24.15 -22.0 22.75 -19.95 18.9 -18.15 6.85 -12.35 -6.5 -10.9 L-8.0 -10.45 Q-8.6 -10.0 -8.7 -8.45 -8.85 -6.9 -9.4 -6.4 -9.8 -6.05 -10.4 -6.0 L-11.5 -6.3 Q-12.3 -6.8 -12.95 -8.0 -14.1 -10.4 -14.1 -13.9 L-13.75 -18.75 -13.65 -19.7 -13.65 -19.95 -13.65 -20.15 -13.5 -23.25 -13.45 -23.25 Q-13.25 -23.45 -13.2 -23.75 L-12.9 -26.75 -13.05 -27.3 -13.55 -27.6 -13.65 -30.2 -13.35 -30.15 -12.8 -30.3 Q-12.55 -30.55 -12.55 -30.85 L-12.35 -33.85 -12.5 -34.4 -13.05 -34.65 -13.6 -34.45 -13.8 -34.1 -13.85 -34.6 Q-14.4 -44.05 -13.9 -49.05 L-13.5 -51.55 Q-13.3 -51.4 -13.0 -51.4 -12.7 -51.4 -12.5 -51.65 L-12.3 -52.15 -12.4 -54.45 -12.4 -54.6 M-17.5 -72.2 L-17.0 -71.7 -14.75 -70.5 -12.1 -70.45 -9.4 -71.15 -6.75 -71.4 Q-5.05 -71.6 -3.35 -72.5 -2.25 -73.05 -1.9 -73.7 -1.55 -74.45 -1.65 -75.75 L-1.85 -77.3 -2.65 -78.95 -3.55 -80.95 -5.0 -84.85 Q-5.6 -87.05 -5.4 -88.9 L-5.35 -89.15 Q-5.3 -89.65 -5.4 -89.9 -5.7 -90.65 -6.6 -90.75 L-8.1 -90.6 -13.55 -89.75 -18.95 -88.75 Q-20.8 -88.25 -22.1 -87.6 L-24.55 -86.2 -24.9 -86.05 -25.6 -85.8 -25.8 -85.35 -25.85 -85.3 -27.75 -86.55 -28.3 -86.65 Q-28.6 -86.6 -28.75 -86.35 L-28.85 -85.8 -28.55 -85.3 -26.1 -83.55 -25.55 -83.4 -25.35 -83.45 -24.4 -82.65 -23.45 -81.55 -23.5 -81.4 -23.3 -80.9 -21.65 -78.95 -18.6 -74.1 -17.85 -72.55 -17.5 -72.2 M-0.05 -82.7 L-1.3 -85.65 -1.65 -86.05 -2.25 -86.1 -2.65 -85.7 -2.7 -85.15 -1.4 -82.05 Q-1.3 -81.8 -1.0 -81.7 L-0.4 -81.7 -0.05 -82.15 -0.05 -82.7 M-12.1 -45.05 L-12.15 -48.1 Q-12.15 -48.45 -12.4 -48.65 L-12.9 -48.85 -13.45 -48.6 -13.65 -48.05 -13.6 -45.05 -13.35 -44.5 -12.85 -44.3 -12.3 -44.5 -12.1 -45.05 M-12.2 -37.9 L-12.15 -41.0 -12.35 -41.5 -12.9 -41.75 -13.4 -41.5 -13.65 -41.0 -13.7 -37.95 -13.5 -37.45 Q-13.3 -37.2 -12.95 -37.2 -12.65 -37.2 -12.45 -37.4 -12.2 -37.6 -12.2 -37.9" fill="#eaeaea" fill-rule="evenodd" stroke="none"/>
    <path d="M-33.85 -103.7 L-33.55 -100.25 -32.95 -97.3 -32.8 -96.8 Q-32.1 -94.95 -30.65 -93.55 L-28.15 -91.9 -27.75 -91.75 -27.4 -91.6 -27.3 -91.6 -23.4 -91.3 Q-21.4 -91.65 -19.8 -92.8 L-17.9 -94.15 Q-16.75 -94.9 -15.75 -94.75 L-13.95 -93.9 Q-10.85 -92.3 -7.2 -93.3 -5.6 -93.75 -4.0 -94.65 L-2.55 -95.05 -1.9 -92.85 -1.9 -92.9 -1.85 -92.7 Q-2.7 -92.25 -3.3 -92.05 L-3.35 -92.35 -3.7 -92.85 -4.25 -92.9 Q-4.6 -92.85 -4.75 -92.6 L-4.8 -92.0 -4.75 -91.8 -5.95 -91.8 -15.05 -91.75 -16.3 -91.65 -17.55 -90.95 -18.7 -90.0 Q-21.0 -88.25 -24.65 -88.25 L-27.8 -88.45 -30.95 -88.8 -31.15 -88.8 -32.75 -90.8 Q-32.95 -91.05 -33.25 -91.1 L-33.8 -91.0 -34.1 -90.55 -34.0 -89.95 Q-33.3 -88.85 -32.25 -87.7 L-32.25 -87.5 -32.15 -84.7 -32.45 -84.95 -34.25 -86.85 -34.75 -87.45 -34.75 -87.5 Q-36.85 -90.2 -37.35 -92.9 -37.75 -95.15 -37.1 -97.3 L-33.85 -103.7 M-25.8 -85.35 L-25.6 -85.8 -24.9 -86.05 -25.8 -85.35 M-34.05 -94.25 L-33.95 -96.1 -33.75 -96.95 -33.85 -97.55 -34.25 -97.9 -34.85 -97.85 -35.2 -97.4 Q-35.65 -95.95 -35.55 -94.4 L-35.55 -94.1 -35.25 -93.6 -34.7 -93.45 Q-34.4 -93.5 -34.2 -93.7 -34.0 -93.95 -34.05 -94.25" fill="#e7e7e7" fill-rule="evenodd" stroke="none"/>
  </g>
</svg>
