<?xml version="1.0" encoding="UTF-8" standalone="no"?>
<svg xmlns:ffdec="https://www.free-decompiler.com/flash" xmlns:xlink="http://www.w3.org/1999/xlink" ffdec:objectType="shape" height="114.85px" width="61.3px" xmlns="http://www.w3.org/2000/svg">
  <g transform="matrix(1.0, 0.0, 0.0, 1.0, 36.25, 102.65)">
    <path d="M-2.1 -82.65 L-2.05 -81.2 -11.25 -80.35 -11.4 -83.5 -5.35 -82.6 -5.35 -82.65 -2.1 -82.65 M-9.2 -95.55 L-3.2 -95.25 -3.2 -94.65 -5.35 -94.65 -5.35 -94.6 -9.25 -95.2 -9.2 -95.55" fill="#ffffff" fill-rule="evenodd" stroke="none"/>
    <path d="M-1.2 -95.25 L-1.3 -94.65 -3.2 -94.65 -3.2 -95.25 -1.2 -95.25 M-2.05 -81.2 L-1.95 -76.9 -11.0 -76.5 -11.2 -77.9 -11.25 -80.35 -2.05 -81.2 M10.8 -57.6 L10.55 -59.1 11.55 -57.65 10.8 -57.6 M8.9 -3.45 L5.85 -3.15 7.05 -15.15 7.9 -15.2 8.6 -9.0 8.85 -4.55 8.9 -3.45 M-10.6 -95.65 L-9.2 -95.55 -9.25 -95.2 -10.65 -95.4 -10.6 -95.65 M-19.65 -79.45 Q-20.05 -80.35 -20.05 -81.5 L-19.9 -85.6 -19.85 -85.65 -19.75 -80.1 -19.65 -79.45 M-8.7 -26.75 L-10.6 -27.0 -8.75 -37.85 -8.6 -37.85 -8.6 -36.2 -8.6 -34.75 -8.7 -26.75 M-20.7 -29.8 L-20.45 -30.65 Q-18.75 -35.35 -18.75 -32.35 -18.75 -31.6 -19.3 -29.15 L-20.7 -29.8 M-12.15 -15.75 L-9.95 -15.4 -10.25 -13.05 -11.05 -7.2 -11.4 -4.55 -11.65 -3.6 -13.6 -3.95 -12.15 -15.75 M-2.3 -26.2 L-1.05 -34.7 -1.05 -34.75 -0.55 -37.25 0.35 -37.25 -1.45 -26.2 -2.3 -26.2 M-27.85 -9.15 L-26.35 -14.4 -24.35 -19.75 -22.15 -18.7 -22.2 -18.6 -23.95 -11.9 Q-24.55 -9.75 -25.25 -7.9 L-27.85 -9.15" fill="#e0e0e0" fill-rule="evenodd" stroke="none"/>
    <path d="M13.8 -57.15 L21.7 -57.15 22.05 -55.4 22.35 -53.0 22.35 -52.85 11.9 -52.45 12.2 -55.2 10.85 -55.2 10.8 -57.6 11.55 -57.65 12.45 -56.45 Q12.65 -56.15 13.0 -56.15 13.3 -56.15 13.55 -56.4 L13.8 -57.1 13.8 -57.15 M-6.45 -52.2 L-6.05 -55.2 -8.5 -55.2 -8.45 -56.5 -8.75 -59.1 -5.35 -58.6 -5.35 -58.65 0.75 -58.65 1.1 -56.1 1.1 -55.2 2.95 -55.2 2.7 -52.3 -6.45 -52.2 M11.15 -37.95 L15.85 -38.45 16.6 -34.75 17.75 -27.65 8.3 -26.7 9.75 -37.1 Q10.6 -37.15 11.15 -37.95 M-8.6 -37.85 L-4.5 -37.25 -4.5 -37.3 -0.55 -37.25 -1.05 -34.75 -1.05 -34.7 -2.3 -26.2 -8.7 -26.75 -8.6 -34.75 -8.6 -36.2 -8.6 -37.85 M7.9 -15.2 L17.0 -16.1 16.05 -4.1 8.9 -3.45 8.85 -4.55 8.6 -9.0 7.9 -15.2 M17.9 -16.2 L18.9 -16.3 18.9 -16.25 17.9 -16.2 M-11.0 -76.5 L-1.95 -76.9 -1.3 -72.75 -1.6 -72.7 -3.95 -72.35 -10.5 -72.45 -11.0 -76.5 M-19.85 -85.65 L-19.9 -85.6 -20.05 -81.5 Q-20.05 -80.35 -19.65 -79.45 L-19.0 -73.3 -23.95 -75.45 Q-26.0 -77.8 -26.0 -82.2 -26.0 -84.5 -24.8 -87.85 L-19.85 -85.65 M-17.0 -39.55 L-18.8 -28.95 -19.3 -29.15 Q-18.75 -31.6 -18.75 -32.35 -18.75 -35.35 -20.45 -30.65 L-20.7 -29.8 -22.85 -30.8 -21.45 -34.75 -20.25 -38.1 -19.25 -40.55 -17.0 -39.55 M-26.45 -20.75 L-24.35 -19.75 -26.35 -14.4 -27.85 -9.15 -29.45 -9.95 -28.85 -13.8 -28.5 -14.9 -26.45 -20.75 M-22.15 -18.7 L-20.5 -17.95 -22.0 -6.35 -25.25 -7.9 Q-24.55 -9.75 -23.95 -11.9 L-22.2 -18.6 -22.15 -18.7 M-11.65 -3.6 L-11.4 -4.55 -11.05 -7.2 -10.25 -13.05 -9.95 -15.4 -3.25 -14.8 -3.3 -14.0 -3.35 -10.65 -4.25 -2.9 -7.15 -2.95 -7.15 -2.9 -11.65 -3.6" fill="#b4b4b4" fill-rule="evenodd" stroke="none"/>
    <path d="M21.7 -57.15 L23.45 -57.15 23.35 -55.4 23.1 -53.05 22.35 -52.85 22.35 -53.0 22.05 -55.4 21.7 -57.15 M-1.3 -72.75 L-1.3 -72.7 -1.05 -70.65 -5.35 -70.65 -5.35 -70.6 -10.35 -71.35 -10.5 -72.45 -3.95 -72.35 -1.6 -72.7 -1.3 -72.75 M11.5 -49.55 L13.05 -49.6 13.05 -49.55 13.3 -48.75 11.35 -48.55 11.5 -49.55 M9.85 -37.85 L11.15 -37.95 Q10.6 -37.15 9.75 -37.1 L9.85 -37.85 M2.25 -49.45 L1.95 -47.85 -3.65 -47.85 -3.65 -47.8 -7.0 -48.35 -6.85 -49.3 2.25 -49.45 M-24.8 -87.85 Q-26.0 -84.5 -26.0 -82.2 -26.0 -77.8 -23.95 -75.45 L-26.85 -76.75 -27.65 -88.25 -27.6 -88.4 -27.4 -89.0 -24.8 -87.85 M-17.8 -60.75 L-17.7 -60.7 -17.35 -58.0 -17.45 -55.2 -14.45 -55.2 -14.9 -52.1 -18.7 -52.05 Q-18.15 -54.25 -18.1 -55.4 L-18.1 -55.7 -18.1 -55.85 -17.9 -59.3 -17.8 -60.75 M-19.25 -40.55 L-20.25 -38.1 -21.45 -34.75 -22.85 -30.8 -25.65 -32.1 -24.7 -34.75 -22.5 -40.2 -22.3 -40.6 -21.85 -41.65 -19.25 -40.55 M-27.75 -21.35 L-26.45 -20.75 -28.5 -14.9 -28.85 -13.8 -27.75 -21.35 M4.7 9.3 L9.45 8.9 Q7.15 10.25 5.3 10.4 L4.6 10.45 4.7 9.3 M-26.2 4.35 L-23.65 5.65 -23.75 6.75 -24.65 5.9 -24.7 5.9 -26.2 4.35 M-15.1 8.5 L-15.1 8.3 -14.45 8.4 -15.1 8.5" fill="#8a8a8a" fill-rule="evenodd" stroke="none"/>
    <path d="M-27.75 -92.45 L-26.3 -95.45 Q-26.8 -96.0 -26.75 -96.6 L-26.55 -97.45 -24.9 -101.0 -24.9 -101.05 Q-24.75 -101.9 -23.4 -102.6 L-23.35 -102.65 -23.45 -102.45 -23.6 -102.1 Q-23.95 -101.25 -23.75 -100.65 L-23.75 -100.55 -23.7 -100.4 -23.05 -99.9 -22.5 -99.6 -21.45 -99.15 -19.05 -98.5 -18.55 -98.35 -18.45 -98.35 -17.2 -98.1 -15.7 -97.8 -10.3 -97.15 -0.85 -96.75 -0.35 -96.75 -0.05 -96.75 0.45 -96.75 0.95 -96.75 1.45 -96.75 1.7 -96.75 2.75 -96.75 3.9 -96.8 3.9 -96.85 5.5 -96.85 5.5 -96.5 5.5 -95.7 5.5 -95.35 5.5 -94.9 3.85 -94.7 3.85 -95.3 3.25 -95.3 2.05 -95.25 1.7 -95.25 0.6 -95.25 0.25 -95.25 -0.35 -95.25 -1.2 -95.25 -3.2 -95.25 -9.2 -95.55 -10.6 -95.65 -11.1 -95.7 -13.5 -95.95 -14.0 -96.0 -15.7 -96.3 -16.15 -96.35 -17.4 -96.6 -17.6 -96.6 -19.25 -97.4 -19.3 -97.0 -20.45 -97.3 -22.7 -98.1 -22.9 -98.2 -24.05 -98.85 -24.35 -99.1 -24.35 -99.15 -25.45 -96.75 -25.45 -96.7 -25.5 -96.6 Q-25.45 -96.15 -24.5 -95.65 L-23.8 -95.3 -23.65 -95.25 -21.9 -94.65 -21.8 -94.6 -21.05 -93.65 -20.4 -92.9 -22.45 -93.45 -23.65 -93.8 -25.1 -94.45 -27.4 -89.0 -27.6 -88.4 -27.65 -88.25 Q-29.55 -82.4 -28.9 -77.7 L-30.55 -78.4 Q-30.95 -82.95 -29.25 -88.4 L-28.8 -89.65 -27.65 -89.15 -27.75 -92.45 M5.7 -82.9 L6.0 -79.45 Q6.25 -76.7 6.65 -74.25 L6.9 -72.7 7.25 -71.05 5.65 -70.9 5.25 -72.7 5.05 -73.85 4.45 -78.45 4.05 -82.75 5.7 -82.9 M9.85 -63.85 L12.1 -59.95 12.3 -59.65 13.35 -58.1 13.6 -57.8 13.8 -57.15 13.8 -57.1 13.55 -56.4 Q13.3 -56.15 13.0 -56.15 12.65 -56.15 12.45 -56.45 L11.55 -57.65 10.55 -59.1 10.5 -59.2 10.35 -59.4 10.4 -59.4 10.5 -59.45 9.85 -63.85 M23.45 -57.15 L25.05 -57.15 24.95 -55.4 24.85 -53.1 24.85 -53.05 24.7 -52.15 Q24.45 -51.45 24.7 -50.9 L24.85 -50.65 18.1 -50.65 14.85 -49.25 15.0 -48.95 13.3 -48.75 13.05 -49.55 13.05 -49.6 11.5 -49.55 11.9 -52.45 22.35 -52.85 23.1 -53.05 23.35 -55.4 23.45 -57.15 M17.4 -39.2 L18.3 -34.75 18.7 -32.45 18.05 -27.65 17.75 -27.65 16.6 -34.75 15.85 -38.45 15.9 -38.45 17.5 -38.6 17.4 -39.2 M20.1 7.75 L20.05 8.0 20.05 7.9 20.1 7.75 M14.0 8.45 Q12.2 8.95 10.7 10.0 L10.7 10.05 Q7.7 12.05 5.35 12.15 L4.45 12.2 4.6 10.45 5.3 10.4 Q7.15 10.25 9.45 8.9 L14.0 8.45 M-8.85 9.4 L-11.5 9.75 -15.35 10.3 -15.1 8.5 -14.45 8.4 -8.85 9.4 M-24.0 8.6 L-25.55 7.25 -25.55 7.2 -27.35 5.5 Q-28.1 4.85 -30.15 3.7 L-31.35 3.05 -31.15 1.95 -26.2 4.35 -24.7 5.9 -24.65 5.9 -23.75 6.75 -24.0 8.6 M-35.05 0.6 L-35.85 -0.85 -35.55 -0.2 -35.05 0.6 M-24.65 -39.3 L-24.35 -40.2 -24.15 -40.6 -23.45 -42.35 -21.85 -41.65 -22.3 -40.6 -22.5 -40.2 -24.7 -34.75 -25.65 -32.1 -26.0 -32.25 -24.65 -39.3 M-20.3 -49.45 L-20.05 -53.95 -19.9 -56.6 -19.55 -63.6 -19.9 -63.8 -21.4 -64.65 -23.35 -65.9 -25.8 -68.05 -26.15 -70.8 -24.9 -69.3 -22.9 -67.55 -21.1 -66.25 -18.8 -64.95 -18.65 -64.85 -18.1 -64.55 -17.75 -61.35 -17.8 -60.75 -17.9 -59.3 -18.1 -55.85 -18.1 -55.7 -18.1 -55.4 Q-18.15 -54.25 -18.7 -52.05 L-14.9 -52.1 -15.2 -49.65 -19.4 -51.45 -19.65 -50.9 -20.3 -49.45 M-6.45 -52.2 L2.7 -52.3 2.25 -49.45 -6.85 -49.3 -6.45 -52.2 M18.9 -16.3 L20.5 -16.45 18.9 -16.25 18.9 -16.3 M-2.9 -14.8 L-3.35 -10.65 -3.3 -14.0 -3.25 -14.8 -2.9 -14.8" fill="#464646" fill-rule="evenodd" stroke="none"/>
    <path d="M5.5 -94.9 L5.45 -92.25 5.45 -91.35 Q5.45 -86.9 5.7 -82.9 L4.05 -82.75 4.05 -83.55 3.85 -87.9 3.85 -91.3 3.85 -92.15 3.85 -94.7 5.5 -94.9 M7.25 -71.05 L8.05 -68.3 Q8.8 -66.05 9.85 -63.85 L10.5 -59.45 10.4 -59.4 Q8.0 -63.15 6.65 -67.25 L5.65 -70.9 7.25 -71.05 M19.4 -27.8 L20.5 -16.45 18.9 -16.3 17.95 -26.15 18.05 -27.65 19.4 -27.8 M20.75 -4.55 L20.7 -1.35 20.55 1.3 20.35 4.1 20.2 6.5 20.1 7.6 20.1 7.75 20.05 7.9 18.45 8.05 18.05 8.0 17.15 7.95 17.05 7.95 15.15 8.2 15.25 6.4 17.0 6.2 18.55 6.3 18.75 3.65 18.9 1.3 19.1 -4.4 20.75 -4.55 M-5.1 9.5 L-5.6 9.4 -5.45 7.65 Q-3.75 7.95 -1.75 9.05 L-1.35 9.25 -1.05 9.45 -5.1 9.5 M-35.85 -0.85 L-36.25 -3.2 -36.2 -3.65 Q-35.85 -5.7 -33.95 -12.0 L-32.45 -11.35 -34.65 -3.65 -34.8 -3.2 Q-34.85 -1.05 -33.4 -0.15 L-31.05 1.2 -31.15 1.95 -35.55 -0.2 -35.85 -0.85 M-30.6 -22.65 L-29.45 -26.15 -29.45 -26.25 -29.05 -27.4 -27.2 -32.75 -26.0 -32.25 -26.25 -30.45 -27.85 -25.8 -28.25 -24.6 -29.1 -21.95 -30.6 -22.65 M-25.8 -68.05 L-27.0 -69.3 Q-29.75 -72.6 -30.35 -76.8 L-30.55 -78.4 -28.9 -77.7 -28.85 -77.05 Q-28.2 -73.55 -26.15 -70.8 L-25.8 -68.05 M-28.8 -89.65 L-27.75 -92.45 -27.65 -89.15 -28.8 -89.65 M-15.2 -49.65 L-14.35 -49.3 -14.35 -49.35 -13.4 -49.2 -15.3 -49.2 -15.2 -49.65 M-19.3 -97.0 L-19.25 -97.4 -17.6 -96.6 -19.3 -97.0 M-18.1 -64.55 L-17.55 -64.3 -17.55 -63.9 -17.55 -63.8 -17.55 -63.7 -17.55 -63.6 -17.6 -63.2 -17.75 -61.35 -18.1 -64.55" fill="#000000" fill-rule="evenodd" stroke="none"/>
    <path d="M0.3 -94.65 L3.25 -94.65 3.25 -94.3 3.25 -92.1 1.75 -92.05 1.7 -92.05 1.35 -92.05 1.25 -92.05 1.15 -92.05 0.95 -92.05 0.85 -92.05 0.55 -92.05 0.45 -92.05 0.35 -93.25 0.35 -93.6 0.3 -94.65 M3.85 -87.9 L4.05 -83.55 Q3.35 -83.0 2.3 -82.65 L-2.1 -82.65 -2.25 -88.05 -0.15 -88.4 0.0 -88.5 0.1 -88.45 0.35 -88.5 Q2.55 -88.65 3.85 -87.9 M1.0 -14.75 Q1.5 -16.2 2.3 -17.2 4.25 -19.8 5.1 -15.65 L5.2 -14.95 1.0 -14.75 M5.85 -3.15 L5.75 -1.75 Q4.9 1.1 3.55 1.1 1.45 1.1 0.7 -2.8 L5.85 -3.15 M-17.2 -84.45 Q-16.35 -86.05 -13.8 -86.3 L-11.4 -86.5 -11.4 -83.5 -16.7 -84.25 -17.2 -84.45 M-15.95 -16.35 L-15.75 -17.15 Q-14.8 -20.15 -14.0 -19.8 -13.25 -19.55 -13.25 -17.4 L-13.35 -15.95 -15.95 -16.35 M-14.7 -4.1 Q-15.95 0.6 -17.45 0.6 L-18.45 0.4 Q-18.85 0.05 -18.85 -1.15 L-18.25 -4.7 -14.7 -4.1" fill="#8f8f8f" fill-rule="evenodd" stroke="none"/>
    <path d="M-1.3 -94.65 L0.3 -94.65 0.35 -93.6 0.35 -93.25 0.45 -92.05 -0.35 -92.05 -0.9 -92.05 -1.8 -92.05 -1.3 -94.65 M3.25 -92.1 L3.25 -94.3 3.25 -94.65 3.85 -94.7 3.85 -92.15 3.25 -92.1 M3.85 -91.3 L3.85 -87.9 Q2.55 -88.65 0.35 -88.5 L0.1 -88.45 0.0 -88.5 -0.15 -88.4 -2.25 -88.05 -2.3 -89.6 -2.0 -90.9 0.4 -91.15 0.55 -91.25 0.95 -91.25 1.05 -91.25 1.3 -91.25 1.55 -91.25 1.7 -91.25 3.85 -91.3 M4.05 -83.55 L4.05 -82.75 2.3 -82.65 Q3.35 -83.0 4.05 -83.55 M1.35 -58.65 L3.1 -61.85 5.7 -66.05 6.65 -67.25 Q8.0 -63.15 10.4 -59.4 L10.35 -59.4 3.25 -58.65 1.35 -58.65 M1.2 -43.05 Q1.7 -43.6 2.4 -43.4 3.3 -43.15 4.05 -41.55 L5.25 -37.55 0.35 -37.25 1.2 -43.05 M7.5 -19.25 L7.5 -19.2 7.05 -15.15 5.2 -14.95 5.1 -15.65 Q4.25 -19.8 2.3 -17.2 1.5 -16.2 1.0 -14.75 L-2.9 -14.8 -1.45 -26.2 6.8 -26.55 7.35 -20.8 7.5 -19.25 M5.75 -1.75 L5.1 4.7 3.95 4.8 Q-0.1 4.8 -2.05 1.3 L-2.35 0.75 Q-3.15 -1.0 -3.3 -2.85 L0.7 -2.8 Q1.45 1.1 3.55 1.1 4.9 1.1 5.75 -1.75 M-11.5 -89.8 L-11.4 -86.5 -13.8 -86.3 Q-16.35 -86.05 -17.2 -84.45 L-19.85 -85.65 -19.85 -85.75 -19.8 -86.0 -19.7 -86.25 -19.7 -86.3 Q-19.7 -88.15 -15.15 -89.15 L-11.5 -89.8 M-10.65 -95.4 L-11.2 -92.5 -14.5 -92.95 -15.7 -93.15 -15.95 -93.2 -16.1 -93.25 -16.15 -93.25 -15.8 -95.7 -15.75 -96.1 -10.65 -95.4 M-8.6 -38.75 L-8.75 -37.85 -12.55 -38.4 Q-9.6 -45.65 -8.85 -42.8 L-8.6 -38.8 -8.6 -38.75 M-19.0 -17.25 L-17.05 -25.1 -16.15 -27.9 -10.6 -27.0 -12.15 -15.75 -13.35 -15.95 -13.25 -17.4 Q-13.25 -19.55 -14.0 -19.8 -14.8 -20.15 -15.75 -17.15 L-15.95 -16.35 -17.55 -16.6 -19.0 -17.25 M-14.45 2.8 Q-15.35 3.45 -16.7 3.9 L-19.6 3.9 Q-20.65 3.35 -20.9 1.65 L-20.95 -0.6 -20.75 -4.55 -20.65 -5.7 -18.25 -4.7 -18.85 -1.15 Q-18.85 0.05 -18.45 0.4 L-17.45 0.6 Q-15.95 0.6 -14.7 -4.1 L-13.6 -3.95 -14.45 2.8" fill="#707070" fill-rule="evenodd" stroke="none"/>
    <path d="M-1.95 -91.25 L-0.85 -91.25 0.55 -91.25 0.4 -91.15 -2.0 -90.9 -1.95 -91.25 M-0.1 -64.5 Q3.35 -67.45 3.85 -70.7 L5.65 -70.9 6.65 -67.25 5.7 -66.05 3.1 -61.85 1.35 -58.65 0.75 -58.65 -0.1 -64.5 M1.8 -46.95 L3.9 -47.45 Q4.85 -47.0 5.55 -45.65 L6.1 -44.25 6.75 -42.6 7.8 -38.7 8.3 -37.75 5.25 -37.55 4.05 -41.55 Q3.3 -43.15 2.4 -43.4 1.7 -43.6 1.2 -43.05 L1.8 -46.95 M-7.3 -46.2 L-8.6 -38.75 -8.6 -38.8 -8.85 -42.8 Q-9.6 -45.65 -12.55 -38.4 L-15.35 -38.8 -17.0 -39.55 -15.85 -46.05 -15.85 -46.1 Q-15.1 -44.95 -15.1 -43.25 -15.1 -42.6 -14.75 -42.2 -14.5 -41.85 -14.1 -41.85 -13.1 -41.85 -12.2 -43.5 -11.5 -44.85 -11.4 -45.6 L-9.75 -47.45 -9.0 -48.1 -8.3 -48.1 -7.3 -46.2 M6.8 -26.55 L8.3 -26.7 7.5 -19.25 7.35 -20.8 6.8 -26.55 M17.0 -16.1 L17.95 -26.15 18.9 -16.3 17.9 -16.2 17.0 -16.1 M16.05 -4.1 L19.1 -4.4 18.9 1.3 18.75 3.65 Q17.2 3.0 15.55 3.05 L15.5 3.05 16.05 -4.1 M-16.15 -93.25 L-18.0 -93.65 -19.8 -94.1 -19.3 -97.0 -17.6 -96.6 -16.7 -96.25 -15.75 -96.1 -15.8 -95.7 -16.15 -93.25 M-20.0 -92.85 L-19.0 -92.65 -18.8 -92.6 -14.65 -91.95 -11.35 -91.65 -11.55 -90.45 -11.5 -89.8 -15.15 -89.15 Q-19.7 -88.15 -19.7 -86.3 L-19.7 -86.25 -19.8 -86.0 -19.85 -85.75 -20.0 -92.85 M-18.45 -73.0 L-19.0 -73.1 -19.0 -73.3 -18.5 -73.05 -18.45 -73.0 M-11.85 -59.55 L-11.85 -60.05 -8.9 -60.2 -8.75 -59.1 -11.85 -59.55 M-18.8 -28.95 L-16.4 -27.9 -16.4 -27.95 -16.15 -27.9 -17.05 -25.1 -19.0 -17.25 -20.5 -17.95 -18.8 -28.95 M-22.0 -6.35 L-20.65 -5.7 -20.75 -4.55 -20.95 -0.6 -20.9 1.65 Q-20.65 3.35 -19.6 3.9 L-16.7 3.9 Q-15.35 3.45 -14.45 2.8 L-14.85 6.0 -16.4 6.1 Q-19.95 6.2 -21.45 4.4 L-22.7 2.4 -23.1 1.75 -22.0 -6.35 M-4.25 -2.9 L-3.3 -2.85 Q-3.15 -1.0 -2.35 0.75 L-2.05 1.3 Q-0.1 4.8 3.95 4.8 L5.1 4.7 4.85 7.35 4.25 7.4 Q1.05 7.35 -2.25 5.45 -3.6 4.65 -5.05 4.4 L-4.25 -2.9 M-29.9 -10.1 L-29.45 -9.95 -30.2 -4.9 Q-30.45 -7.25 -29.9 -10.1" fill="#444444" fill-rule="evenodd" stroke="none"/>
    <path d="M3.25 -92.1 L3.85 -92.15 3.85 -91.3 1.7 -91.25 1.55 -91.25 1.3 -91.25 1.05 -91.25 0.95 -91.25 0.55 -91.25 -0.85 -91.25 -1.95 -91.25 -1.8 -92.05 -0.9 -92.05 -0.35 -92.05 0.45 -92.05 0.55 -92.05 0.85 -92.05 0.95 -92.05 1.15 -92.05 1.25 -92.05 1.35 -92.05 1.7 -92.05 1.75 -92.05 3.25 -92.1 M-0.1 -64.5 L-1.05 -70.65 3.25 -70.65 3.85 -70.7 Q3.35 -67.45 -0.1 -64.5 M-10.35 -71.35 L-8.9 -60.2 -11.85 -60.05 -11.85 -59.55 -16.7 -60.3 -17.7 -60.7 -17.75 -61.35 -17.6 -63.2 -17.55 -63.6 -17.55 -63.7 -17.55 -63.8 -17.55 -63.9 -17.55 -64.3 -18.1 -64.55 -19.0 -73.1 -18.45 -73.0 -16.7 -72.25 -10.35 -71.35 M11.35 -48.55 L9.85 -37.85 8.3 -37.75 7.8 -38.7 6.75 -42.6 6.1 -44.25 5.55 -45.65 Q4.85 -47.0 3.9 -47.45 L1.8 -46.95 1.95 -47.85 4.45 -47.85 11.35 -48.55 M18.75 3.65 L18.55 6.3 17.0 6.2 15.25 6.4 15.5 3.05 15.55 3.05 Q17.2 3.0 18.75 3.65 M-11.2 -92.5 L-11.35 -91.65 -14.65 -91.95 -18.8 -92.6 -19.0 -92.65 -20.0 -92.85 -19.8 -94.1 -18.0 -93.65 -16.15 -93.25 -16.1 -93.25 -15.95 -93.2 -15.7 -93.15 -14.5 -92.95 -11.2 -92.5 M-26.85 -76.75 L-26.15 -70.8 Q-28.2 -73.55 -28.85 -77.05 L-28.9 -77.7 -26.85 -76.75 M-13.4 -49.2 L-7.0 -48.35 -7.3 -46.2 -8.3 -48.1 -9.0 -48.1 -9.75 -47.45 -11.4 -45.6 Q-11.5 -44.85 -12.2 -43.5 -13.1 -41.85 -14.1 -41.85 -14.5 -41.85 -14.75 -42.2 -15.1 -42.6 -15.1 -43.25 -15.1 -44.95 -15.85 -46.1 L-15.3 -49.2 -13.4 -49.2 M-26.25 -30.45 L-27.75 -21.35 -29.1 -21.95 -28.25 -24.6 -27.85 -25.8 -26.25 -30.45 M-23.1 1.75 L-22.7 2.4 -21.45 4.4 Q-19.95 6.2 -16.4 6.1 L-14.85 6.0 -15.1 8.3 -19.85 7.5 -23.65 5.65 -23.1 1.75 M-5.05 4.4 Q-3.6 4.65 -2.25 5.45 1.05 7.35 4.25 7.4 L4.85 7.35 4.7 9.3 -1.05 9.45 -1.35 9.25 -1.75 9.05 Q-3.75 7.95 -5.45 7.65 L-5.05 4.4 M-31.05 1.2 L-33.4 -0.15 Q-34.85 -1.05 -34.8 -3.2 L-34.65 -3.65 -32.45 -11.35 -29.9 -10.1 Q-30.45 -7.25 -30.2 -4.9 L-31.05 1.2" fill="#1a1a1a" fill-rule="evenodd" stroke="none"/>
    <path d="M0.3 -94.65 L0.25 -95.25 0.6 -95.25 1.7 -95.25 2.05 -95.25 3.25 -95.3 3.25 -94.65 0.3 -94.65 M2.3 -82.65 L2.15 -82.6 2.1 -82.55 0.0 -81.7 -0.25 -81.65 -2.05 -81.2 -2.1 -82.65 2.3 -82.65 M1.0 -14.75 L5.2 -14.95 5.55 -8.75 5.75 -4.55 5.85 -3.15 0.7 -2.8 0.65 -3.0 0.4 -4.55 Q0.25 -6.7 0.25 -8.9 0.25 -12.45 1.0 -14.75 M-3.15 -92.05 L-6.8 -92.15 -9.3 -92.35 -9.35 -93.85 -9.25 -95.2 -5.35 -94.6 -5.35 -94.65 -3.2 -94.65 -3.2 -94.05 -3.15 -92.05 M-11.4 -86.5 L-7.7 -86.8 -7.05 -87.0 -6.45 -87.15 -2.25 -88.05 -2.1 -82.65 -5.35 -82.65 -5.35 -82.6 -11.4 -83.5 -11.25 -80.35 -12.5 -80.35 -16.65 -80.6 Q-17.6 -80.9 -17.6 -82.65 L-17.6 -82.9 Q-17.6 -83.8 -17.2 -84.45 L-16.7 -84.25 -11.4 -83.5 -11.4 -86.5 M-18.25 -4.7 L-18.2 -5.45 -17.2 -11.1 -16.5 -14.1 -15.95 -16.35 -13.35 -15.95 Q-13.7 -11.2 -14.35 -6.65 L-14.65 -4.55 -14.7 -4.1 -18.25 -4.7" fill="#bfbfbf" fill-rule="evenodd" stroke="none"/>
    <path d="M0.25 -95.25 L0.3 -94.65 -1.3 -94.65 -1.2 -95.25 -0.35 -95.25 0.25 -95.25 M3.25 -94.65 L3.25 -95.3 3.85 -95.3 3.85 -94.7 3.25 -94.65 M-2.0 -90.9 L-2.3 -89.6 -2.25 -88.05 -6.45 -87.15 -7.05 -87.0 -7.7 -86.8 -11.4 -86.5 -11.5 -89.8 -2.0 -90.9 M-2.05 -81.2 L-0.25 -81.65 0.0 -81.7 2.1 -82.55 2.15 -82.6 2.3 -82.65 4.05 -82.75 4.45 -78.45 3.95 -78.25 Q2.45 -77.6 0.0 -77.15 L-1.95 -76.9 -2.05 -81.2 M10.8 -57.6 L4.25 -56.85 1.8 -57.45 Q1.2 -57.7 1.2 -58.1 L1.35 -58.65 3.25 -58.65 10.35 -59.4 10.5 -59.2 10.55 -59.1 10.8 -57.6 M-8.6 -38.75 L-8.6 -37.85 -8.75 -37.85 -10.6 -27.0 -8.7 -26.75 -8.8 -25.5 Q-9.0 -22.4 -9.95 -15.4 L-12.15 -15.75 -10.6 -27.0 -16.15 -27.9 -14.0 -34.75 -12.6 -38.4 -12.55 -38.4 -8.75 -37.85 -8.6 -38.75 M-0.55 -37.25 L0.05 -39.95 0.85 -42.45 1.2 -43.05 0.35 -37.25 5.25 -37.55 5.85 -34.75 6.35 -31.1 6.8 -26.55 -1.45 -26.2 0.35 -37.25 -0.55 -37.25 M7.5 -19.2 L7.9 -15.2 7.05 -15.15 5.85 -3.15 8.9 -3.45 8.9 -2.05 8.9 -1.95 8.7 0.45 8.4 1.95 Q7.55 4.25 5.1 4.7 L5.75 -1.75 5.85 -3.15 5.75 -4.55 5.55 -8.75 5.2 -14.95 7.05 -15.15 7.5 -19.2 M1.0 -14.75 Q0.25 -12.45 0.25 -8.9 0.25 -6.7 0.4 -4.55 L0.65 -3.0 0.7 -2.8 -3.3 -2.85 -3.35 -4.55 -3.35 -10.65 -2.9 -14.8 1.0 -14.75 M-15.7 -96.3 L-14.0 -96.0 -13.5 -95.95 -11.1 -95.7 -10.6 -95.65 -10.65 -95.4 -15.75 -96.1 -15.7 -96.3 M-3.2 -94.65 L-1.3 -94.65 -1.8 -92.05 -3.15 -92.05 -3.2 -94.05 -3.2 -94.65 M-9.3 -92.35 L-11.2 -92.5 -10.65 -95.4 -9.25 -95.2 -9.35 -93.85 -9.3 -92.35 M-19.85 -85.65 L-17.2 -84.45 Q-17.6 -83.8 -17.6 -82.9 L-17.6 -82.65 Q-17.6 -80.9 -16.65 -80.6 L-12.5 -80.35 -11.25 -80.35 -11.2 -77.9 -11.0 -76.5 -11.05 -76.5 Q-15.65 -76.5 -17.75 -77.5 L-18.15 -77.7 -18.65 -78.1 -19.2 -78.7 -19.65 -79.45 -19.75 -80.1 -19.85 -85.65 M-24.35 -19.75 L-23.85 -21.05 Q-22.7 -23.8 -20.7 -29.8 L-19.3 -29.15 -20.1 -25.9 -20.4 -25.1 -22.15 -18.7 -24.35 -19.75 M-20.65 -5.7 L-20.1 -11.1 -19.0 -17.25 -17.55 -16.6 -15.95 -16.35 -16.5 -14.1 -17.2 -11.1 -18.2 -5.45 -18.25 -4.7 -20.65 -5.7 M-13.35 -15.95 L-12.15 -15.75 -13.6 -3.95 -11.65 -3.6 -12.15 -1.55 Q-12.6 0.45 -12.8 0.85 L-13.0 1.3 Q-13.5 2.15 -14.45 2.8 L-13.6 -3.95 -14.7 -4.1 -14.65 -4.55 -14.35 -6.65 Q-13.7 -11.2 -13.35 -15.95 M-3.25 -14.8 L-2.5 -24.55 -2.3 -26.2 -1.45 -26.2 -2.9 -14.8 -3.25 -14.8 M-25.25 -7.9 L-26.7 -5.1 -27.45 -5.0 Q-28.25 -5.0 -28.05 -6.9 L-28.05 -6.95 -28.05 -7.05 -28.05 -7.15 -28.0 -8.0 -27.85 -9.15 -25.25 -7.9" fill="#a0a0a0" fill-rule="evenodd" stroke="none"/>
    <path d="M-1.95 -76.9 L0.0 -77.15 Q2.45 -77.6 3.95 -78.25 L4.45 -78.45 5.05 -73.85 5.25 -72.7 5.65 -70.9 3.85 -70.7 3.9 -71.8 3.85 -72.7 3.45 -73.75 0.0 -72.95 -0.7 -72.85 -1.3 -72.75 -1.95 -76.9 M-8.9 -60.2 L-7.4 -60.55 -4.95 -61.65 -1.5 -63.5 -0.1 -64.5 0.75 -58.65 1.35 -58.65 1.2 -58.1 Q1.2 -57.7 1.8 -57.45 L4.25 -56.85 10.8 -57.6 10.85 -55.2 12.2 -55.2 11.9 -52.45 2.7 -52.3 2.95 -55.2 1.1 -55.2 1.1 -56.1 0.75 -58.65 -5.35 -58.65 -5.35 -58.6 -8.75 -59.1 -8.45 -56.5 -8.5 -55.2 -6.05 -55.2 -6.45 -52.2 -10.6 -52.15 -11.65 -52.15 -12.0 -52.15 -11.85 -55.4 -11.85 -59.55 -8.75 -59.1 -8.9 -60.2 M11.15 -37.95 Q11.5 -38.6 11.65 -39.6 L12.35 -43.25 13.3 -44.65 14.15 -45.55 14.75 -43.15 15.6 -39.6 15.9 -38.45 15.85 -38.45 11.15 -37.95 M9.75 -37.1 L8.3 -26.7 17.75 -27.65 17.95 -26.15 17.0 -16.1 7.9 -15.2 7.5 -19.2 7.5 -19.25 8.3 -26.7 6.8 -26.55 6.35 -31.1 5.85 -34.75 5.25 -37.55 8.3 -37.75 Q8.8 -37.1 9.65 -37.1 L9.75 -37.1 M1.8 -46.95 L1.2 -43.05 0.85 -42.45 0.05 -39.95 -0.55 -37.25 -4.5 -37.3 -4.5 -37.25 -8.6 -37.85 -8.6 -38.75 -7.3 -46.2 -7.2 -45.8 -6.7 -43.85 -6.65 -40.6 Q-6.65 -38.55 -5.85 -37.55 L-4.8 -37.45 -4.8 -37.6 Q-3.35 -38.35 -2.9 -39.85 -2.55 -40.75 -2.25 -42.7 L-1.65 -44.25 Q0.4 -46.4 1.8 -46.95 M18.9 -16.25 L19.15 -8.05 19.15 -7.5 19.1 -4.4 16.05 -4.1 17.0 -16.1 17.9 -16.2 18.9 -16.25 M5.1 4.7 Q7.55 4.25 8.4 1.95 L8.7 0.45 8.9 -1.95 8.9 -2.05 8.9 -3.45 16.05 -4.1 15.5 3.05 14.4 3.1 Q11.65 3.35 9.2 5.3 6.95 6.95 4.85 7.35 L5.1 4.7 M-3.35 -10.65 L-3.35 -4.55 -3.3 -2.85 -4.25 -2.9 -3.35 -10.65 M-22.7 -98.1 L-20.45 -97.3 -19.3 -97.0 -19.8 -94.1 -21.0 -94.4 -21.85 -94.65 -21.8 -94.6 -21.9 -94.65 -23.65 -95.25 -23.8 -95.3 -22.7 -98.1 M-17.6 -96.6 L-17.4 -96.6 -16.15 -96.35 -15.7 -96.3 -15.75 -96.1 -16.7 -96.25 -17.6 -96.6 M-11.35 -91.65 L-7.45 -91.4 -5.55 -91.3 -1.95 -91.25 -2.0 -90.9 -11.5 -89.8 -11.55 -90.45 -11.35 -91.65 M-19.85 -85.75 L-19.85 -85.65 -24.8 -87.85 -24.65 -88.4 -23.65 -90.95 -22.45 -93.45 -20.4 -92.9 -20.0 -92.85 -19.85 -85.75 M-23.95 -75.45 L-19.0 -73.3 -19.65 -79.45 -19.2 -78.7 -18.65 -78.1 -18.15 -77.7 -17.75 -77.5 Q-15.65 -76.5 -11.05 -76.5 L-11.0 -76.5 -10.5 -72.45 -17.7 -72.9 -18.45 -73.0 -18.5 -73.05 -19.0 -73.3 -19.0 -73.1 -21.2 -73.65 -21.65 -73.8 -23.45 -74.95 -23.65 -75.15 -23.95 -75.45 M-17.0 -39.55 L-15.35 -38.8 -12.55 -38.4 -12.6 -38.4 -14.0 -34.75 -16.15 -27.9 -16.4 -27.95 -16.4 -27.9 -18.8 -28.95 -17.0 -39.55 -19.25 -40.55 -17.4 -44.25 -15.9 -46.2 -15.85 -46.1 -15.85 -46.05 -17.0 -39.55 M-22.85 -30.8 L-20.7 -29.8 Q-22.7 -23.8 -23.85 -21.05 L-24.35 -19.75 -26.45 -20.75 -25.0 -24.85 -22.85 -30.8 M-19.3 -29.15 L-18.8 -28.95 -20.5 -17.95 -19.0 -17.25 -20.1 -11.1 -20.65 -5.7 -22.0 -6.35 -20.5 -17.95 -22.15 -18.7 -20.4 -25.1 -20.1 -25.9 -19.3 -29.15 M-9.95 -15.4 Q-9.0 -22.4 -8.8 -25.5 L-8.7 -26.75 -2.3 -26.2 -2.5 -24.55 -3.25 -14.8 -9.95 -15.4 M-28.85 -13.8 L-29.45 -9.95 -27.85 -9.15 -28.0 -8.0 -28.05 -7.15 -28.05 -7.05 -28.05 -6.95 -28.05 -6.9 Q-28.25 -5.0 -27.45 -5.0 L-26.7 -5.1 -25.25 -7.9 -22.0 -6.35 -23.1 1.75 -23.2 1.45 -23.35 1.3 -23.55 0.75 Q-24.15 -1.0 -26.75 -1.25 -29.3 -1.6 -30.1 -4.2 L-30.15 -4.55 -30.2 -4.9 -29.45 -9.95 -29.9 -10.1 -28.85 -13.8 M-14.85 6.0 L-14.45 2.8 Q-13.5 2.15 -13.0 1.3 L-12.8 0.85 Q-12.6 0.45 -12.15 -1.55 L-11.65 -3.6 -7.15 -2.9 -7.15 -2.95 -4.25 -2.9 -5.05 4.4 Q-7.05 4.0 -9.3 4.75 -12.1 5.7 -14.85 6.0" fill="#747474" fill-rule="evenodd" stroke="none"/>
    <path d="M-1.8 -92.05 L-1.95 -91.25 -5.55 -91.3 -7.45 -91.4 -11.35 -91.65 -11.2 -92.5 -9.3 -92.35 -6.8 -92.15 -3.15 -92.05 -1.8 -92.05 M3.85 -70.7 L3.25 -70.65 -1.05 -70.65 -0.1 -64.5 -1.5 -63.5 -4.95 -61.65 -7.4 -60.55 -8.9 -60.2 -10.35 -71.35 -5.35 -70.6 -5.35 -70.65 -1.05 -70.65 -1.3 -72.7 -1.3 -72.75 -0.7 -72.85 0.0 -72.95 3.45 -73.75 3.85 -72.7 3.9 -71.8 3.85 -70.7 M14.15 -45.55 L13.3 -44.65 12.35 -43.25 11.65 -39.6 Q11.5 -38.6 11.15 -37.95 L9.85 -37.85 11.35 -48.55 13.3 -48.75 14.15 -45.55 M8.3 -37.75 L9.85 -37.85 9.75 -37.1 9.65 -37.1 Q8.8 -37.1 8.3 -37.75 M11.35 -48.55 L4.45 -47.85 1.95 -47.85 1.8 -46.95 Q0.4 -46.4 -1.65 -44.25 L-2.25 -42.7 Q-2.55 -40.75 -2.9 -39.85 -3.35 -38.35 -4.8 -37.6 L-4.8 -37.45 -5.85 -37.55 Q-6.65 -38.55 -6.65 -40.6 L-6.7 -43.85 -7.2 -45.8 -7.3 -46.2 -7.0 -48.35 -13.4 -49.2 -6.85 -49.3 -7.0 -48.35 -3.65 -47.8 -3.65 -47.85 1.95 -47.85 2.25 -49.45 11.5 -49.55 11.35 -48.55 M-12.0 -52.15 L-14.9 -52.1 -14.45 -55.2 -17.45 -55.2 -17.35 -58.0 -17.7 -60.7 -17.8 -60.75 -17.75 -61.35 -17.7 -60.7 -16.7 -60.3 -11.85 -59.55 -11.85 -55.4 -12.0 -52.15 M-23.8 -95.3 L-24.5 -95.65 Q-25.45 -96.15 -25.5 -96.6 L-25.45 -96.7 -25.45 -96.75 -24.35 -99.15 -24.35 -99.1 -24.05 -98.85 -22.9 -98.2 -22.7 -98.1 -23.8 -95.3 M-19.8 -94.1 L-20.0 -92.85 -20.4 -92.9 -21.05 -93.65 -21.8 -94.6 -21.85 -94.65 -21.0 -94.4 -19.8 -94.1 M-10.5 -72.45 L-10.35 -71.35 -16.7 -72.25 -18.45 -73.0 -17.7 -72.9 -10.5 -72.45 M-19.0 -73.1 L-18.1 -64.55 -18.65 -64.85 -18.8 -64.95 -21.1 -66.25 -22.9 -67.55 -24.9 -69.3 -26.15 -70.8 -26.85 -76.75 -23.95 -75.45 -23.65 -75.15 -23.45 -74.95 -21.65 -73.8 -21.2 -73.65 -19.0 -73.1 M-27.4 -89.0 L-25.1 -94.45 -23.65 -93.8 -22.45 -93.45 -23.65 -90.95 -24.65 -88.4 -24.8 -87.85 -27.4 -89.0 M-26.85 -76.75 L-28.9 -77.7 Q-29.55 -82.4 -27.65 -88.25 L-26.85 -76.75 M-15.3 -49.2 L-15.85 -46.1 -15.9 -46.2 -17.4 -44.25 -19.25 -40.55 -21.85 -41.65 -18.5 -49.15 -15.3 -49.2 M-25.65 -32.1 L-22.85 -30.8 -25.0 -24.85 -26.45 -20.75 -27.75 -21.35 -26.25 -30.45 -25.65 -32.1 M4.85 7.35 Q6.95 6.95 9.2 5.3 11.65 3.35 14.4 3.1 L15.5 3.05 15.25 6.4 Q12.3 6.9 10.0 8.5 L9.75 8.7 9.45 8.9 4.7 9.3 4.85 7.35 M-29.1 -21.95 L-27.75 -21.35 -28.85 -13.8 -29.9 -10.1 -32.45 -11.35 -29.1 -21.95 M-30.2 -4.9 L-30.15 -4.55 -30.1 -4.2 Q-29.3 -1.6 -26.75 -1.25 -24.15 -1.0 -23.55 0.75 L-23.35 1.3 -23.2 1.45 -23.1 1.75 -23.65 5.65 -19.85 7.5 -15.1 8.3 -14.85 6.0 Q-12.1 5.7 -9.3 4.75 -7.05 4.0 -5.05 4.4 L-5.45 7.65 -5.85 7.6 -11.7 8.0 -14.45 8.4 -15.1 8.3 -15.1 8.5 -16.9 8.65 -19.5 8.4 -22.5 7.45 -22.55 7.4 -23.75 6.75 -23.65 5.65 -26.2 4.35 -26.45 4.1 Q-27.3 3.35 -29.45 2.1 L-30.9 1.3 -31.05 1.2 -30.2 -4.9 M-1.05 9.45 L4.7 9.3 4.6 10.45 2.05 10.4 1.75 10.35 -0.6 9.6 -1.05 9.45" fill="#4a4a4a" fill-rule="evenodd" stroke="none"/>
    <path d="M15.0 -48.95 L15.7 -46.3 17.4 -39.2 17.5 -38.6 15.9 -38.45 15.6 -39.6 14.75 -43.15 14.15 -45.55 13.3 -48.75 15.0 -48.95 M18.7 -32.45 L19.25 -28.95 19.4 -27.8 18.05 -27.65 17.95 -26.15 17.75 -27.65 18.05 -27.65 18.7 -32.45 M20.5 -16.45 L20.7 -10.8 20.75 -4.55 19.1 -4.4 19.15 -7.5 19.15 -8.05 18.9 -16.25 20.5 -16.45 M20.05 8.0 L20.0 8.1 20.0 8.3 19.55 8.2 18.75 8.1 18.45 8.05 20.05 7.9 20.05 8.0 M15.15 8.2 L14.0 8.45 9.45 8.9 9.75 8.7 10.0 8.5 Q12.3 6.9 15.25 6.4 L15.15 8.2 M4.45 12.2 L1.7 12.1 1.6 12.1 1.55 12.1 Q-0.05 11.85 -2.3 10.65 -3.75 9.8 -5.1 9.5 L-1.05 9.45 -0.6 9.6 1.75 10.35 2.05 10.4 4.6 10.45 4.45 12.2 M-5.6 9.4 L-5.95 9.35 -6.0 9.35 -8.85 9.4 -14.45 8.4 -11.7 8.0 -5.85 7.6 -5.45 7.65 -5.6 9.4 M-15.35 10.3 L-16.9 10.4 -19.7 10.15 -19.75 10.1 Q-21.2 9.8 -22.95 9.1 L-24.0 8.6 -23.75 6.75 -22.55 7.4 -22.5 7.45 -19.5 8.4 -16.9 8.65 -15.1 8.5 -15.35 10.3 M-31.35 3.05 L-34.05 1.4 -34.2 1.3 -34.3 1.25 -35.05 0.6 -35.55 -0.2 -31.15 1.95 -31.05 1.2 -30.9 1.3 -29.45 2.1 Q-27.3 3.35 -26.45 4.1 L-26.2 4.35 -31.15 1.95 -31.35 3.05 M-33.95 -12.0 L-30.75 -22.05 -30.7 -22.3 -30.6 -22.65 -29.1 -21.95 -32.45 -11.35 -33.95 -12.0 M-27.2 -32.75 L-25.35 -37.65 -24.65 -39.35 -24.65 -39.3 -26.0 -32.25 -25.65 -32.1 -26.25 -30.45 -26.0 -32.25 -27.2 -32.75 M-23.45 -42.35 L-20.3 -49.45 -19.65 -50.9 -19.4 -51.45 -15.2 -49.65 -14.9 -52.1 -12.0 -52.15 -11.65 -52.15 -10.6 -52.15 -6.45 -52.2 -6.85 -49.3 -13.4 -49.2 -14.35 -49.35 -14.35 -49.3 -15.2 -49.65 -15.3 -49.2 -18.5 -49.15 -21.85 -41.65 -23.45 -42.35 M2.7 -52.3 L11.9 -52.45 11.5 -49.55 2.25 -49.45 2.7 -52.3" fill="#161616" fill-rule="evenodd" stroke="none"/>
  </g>
</svg>
