<?xml version="1.0" encoding="UTF-8" standalone="no"?>
<svg xmlns:ffdec="https://www.free-decompiler.com/flash" xmlns:xlink="http://www.w3.org/1999/xlink" ffdec:objectType="shape" height="37.05px" width="29.85px" xmlns="http://www.w3.org/2000/svg">
  <g transform="matrix(1.0, 0.0, 0.0, 1.0, 22.15, 61.55)">
    <path d="M-15.3 -58.9 L-15.3 -58.95 -15.15 -59.45 -15.3 -58.9" fill="#a0d014" fill-rule="evenodd" stroke="none"/>
    <path d="M-0.8 -45.6 L3.9 -35.9 2.45 -36.85 -2.0 -46.7 -0.8 -45.6 M-15.3 -58.9 L-15.15 -59.45 -14.95 -60.8 -5.55 -59.85 -5.7 -58.4 -15.3 -58.9 M-7.7 -56.0 L-10.4 -33.15 -11.3 -34.45 -9.75 -46.65 -8.25 -54.65 -7.7 -56.0" fill="#e0e0e0" fill-rule="evenodd" stroke="none"/>
    <path d="M-0.8 -45.6 L-2.0 -46.7 2.45 -36.85 3.9 -35.9 -0.8 -45.6 M-8.1 -39.25 L-8.55 -36.4 -8.85 -36.0 -10.2 -28.3 -13.95 -32.9 -15.3 -58.9 -5.7 -58.4 -8.1 -39.25 M-5.2 -32.2 L-3.2 -52.0 6.2 -33.15 -0.75 -36.05 -4.45 -30.5 -5.2 -32.2 M-7.7 -56.0 L-8.25 -54.65 -9.75 -46.65 -11.3 -34.45 -10.4 -33.15 -7.7 -56.0 M-16.5 -33.7 L-16.2 -47.4 -15.9 -34.25 -16.5 -33.7" fill="#b4b4b4" fill-rule="evenodd" stroke="none"/>
    <path d="M-15.3 -58.95 L-15.3 -58.9 -13.95 -32.9 -10.2 -28.3 -8.85 -36.0 -8.55 -36.4 -8.1 -39.25 -9.2 -26.25 -14.85 -32.05 -20.95 -29.55 -15.3 -58.95 M-5.2 -32.2 L-7.3 -37.45 -5.05 -55.5 -3.2 -52.0 -5.2 -32.2 M-16.5 -33.7 L-15.9 -34.25 -16.2 -47.4 -16.5 -33.7" fill="#8a8a8a" fill-rule="evenodd" stroke="none"/>
    <path d="M-4.7 -57.65 L7.7 -31.85 7.2 -31.65 -0.3 -34.9 -4.35 -28.7 -4.95 -29.1 -7.45 -35.45 -8.7 -24.5 -9.25 -24.7 -14.9 -30.95 -21.8 -28.2 -22.15 -28.9 -15.9 -61.55 -4.6 -60.7 -4.7 -57.65 M-15.15 -59.45 L-15.3 -58.95 -20.95 -29.55 -14.85 -32.05 -9.2 -26.25 -8.1 -39.25 -5.7 -58.4 -5.55 -59.85 -14.95 -60.8 -15.15 -59.45 M-3.2 -52.0 L-5.05 -55.5 -7.3 -37.45 -5.2 -32.2 -4.45 -30.5 -0.75 -36.05 6.2 -33.15 -3.2 -52.0" fill="#464646" fill-rule="evenodd" stroke="none"/>
  </g>
</svg>
