<?xml version="1.0" encoding="UTF-8" standalone="no"?>
<svg xmlns:ffdec="https://www.free-decompiler.com/flash" xmlns:xlink="http://www.w3.org/1999/xlink" ffdec:objectType="shape" height="121.05px" width="53.2px" xmlns="http://www.w3.org/2000/svg">
  <g transform="matrix(1.0, 0.0, 0.0, 1.0, -11.55, 45.75)">
    <path d="M27.0 -10.65 L27.3 -11.15 27.65 -11.25 27.6 -10.45 Q26.35 -7.8 25.5 -4.9 25.15 -3.35 25.25 -1.8 L25.65 2.7 26.2 7.7 26.2 8.0 Q25.3 8.1 25.1 6.9 L24.75 4.5 Q23.35 -2.5 26.1 -8.8 L26.6 -9.95 26.75 -10.25 26.9 -10.45 27.0 -10.65 M45.45 44.3 L45.95 45.35 45.5 47.75 Q45.1 48.25 44.65 48.15 L43.25 47.3 43.45 45.65 44.3 46.85 45.65 46.35 45.45 44.3 M53.35 41.25 Q53.15 37.1 52.35 33.05 L51.6 30.2 Q50.05 26.3 46.75 23.3 L41.7 18.7 Q39.0 16.4 37.0 13.7 35.9 12.3 35.2 10.5 L33.7 6.2 Q33.05 4.3 33.1 2.55 33.05 -2.15 33.95 -6.7 L34.65 -9.85 35.15 -12.0 35.5 -16.3 35.75 -21.2 Q34.05 -36.75 28.55 -38.9 L28.05 -39.4 Q32.0 -39.85 35.3 -32.3 37.95 -26.4 38.45 -21.2 38.9 -16.95 37.25 -12.25 L37.2 -12.0 Q35.9 -8.85 35.1 -5.4 L34.25 -2.85 34.15 -2.65 Q33.8 0.5 34.1 3.55 34.5 7.55 36.45 10.95 L38.75 14.1 40.15 15.4 47.75 22.45 Q49.7 24.4 51.1 27.0 54.05 32.65 54.3 39.05 L54.25 43.4 Q54.1 45.75 53.15 47.85 L51.75 50.45 Q50.45 52.2 48.4 51.95 L50.9 49.85 52.1 48.15 52.7 46.8 Q53.45 44.75 53.35 42.45 L53.35 42.2 53.35 41.25 M38.8 47.15 Q38.25 46.75 38.4 46.0 38.65 43.9 40.1 42.75 L41.7 42.4 Q42.65 42.25 43.4 42.9 44.9 44.05 45.1 46.0 L44.4 45.95 44.15 45.3 Q42.95 42.9 40.45 44.05 L40.4 44.0 40.3 44.1 40.2 44.15 Q39.5 44.3 39.15 45.15 38.7 46.0 38.8 47.15 M41.3 62.9 Q41.4 68.1 37.7 71.65 L36.05 72.95 30.55 72.95 Q29.35 72.85 28.1 72.35 24.4 71.0 22.35 67.6 19.7 63.3 20.7 58.25 21.6 53.8 24.25 50.35 L26.55 47.4 Q29.75 43.65 31.3 39.2 32.65 35.2 31.9 30.9 31.15 27.05 28.5 24.1 L25.45 20.9 23.1 18.85 19.05 14.7 17.95 12.75 Q16.35 8.9 16.55 4.55 16.8 0.0 18.5 -3.95 L20.85 -9.6 19.1 0.4 Q18.25 5.2 18.7 7.4 19.8 12.8 23.8 16.8 L27.6 20.7 28.65 22.05 31.15 25.85 31.7 26.8 Q32.75 29.2 33.0 31.75 L33.05 33.7 Q32.85 36.7 32.0 39.55 30.5 43.75 27.9 47.25 L25.05 51.3 Q23.0 54.05 22.5 57.35 L22.1 59.05 Q21.35 62.0 22.4 65.1 23.7 68.6 27.1 70.5 L26.65 70.15 Q28.7 71.55 31.15 71.85 33.95 72.2 36.65 71.2 38.05 70.5 39.2 69.1 40.4 67.8 40.5 65.85 40.75 63.7 39.9 61.6 L39.9 61.05 41.3 62.9 M30.95 -10.35 L30.15 -6.15 Q29.35 -1.4 29.6 3.65 28.35 1.15 28.55 -1.9 29.05 -6.75 29.95 -11.45 L31.85 -19.9 Q32.2 -21.6 32.35 -24.25 L32.35 -25.25 32.85 -23.05 Q33.25 -22.2 33.05 -21.15 L31.25 -11.6 30.95 -10.35 M43.05 27.1 Q45.15 30.05 45.55 33.85 L45.75 37.65 45.65 38.75 44.7 38.65 44.65 36.6 44.05 32.0 42.8 27.9 Q42.65 27.55 43.05 27.1 M20.6 27.15 Q20.85 30.2 22.0 32.9 23.25 35.85 25.1 38.5 L24.4 39.05 Q22.55 38.05 21.85 35.8 L19.85 30.3 Q19.4 29.0 20.0 27.7 L20.6 27.15" fill="#ffffff" fill-rule="evenodd" stroke="none"/>
    <path d="M21.7 -44.55 Q27.6 -43.7 29.95 -42.25 32.95 -40.55 35.2 -35.95 L38.1 -29.75 Q39.55 -26.05 40.0 -22.15 40.4 -17.9 38.45 -12.35 L36.85 -5.6 36.15 -1.6 Q35.5 2.45 36.05 6.5 36.45 9.05 37.75 11.1 38.6 12.55 39.9 13.7 43.15 17.0 46.7 19.65 L47.4 20.2 Q49.8 22.05 51.65 24.4 L52.9 26.0 54.0 28.7 Q54.6 29.75 54.8 31.05 L55.85 36.6 Q56.6 40.8 55.5 45.25 54.45 49.85 50.35 52.5 48.9 53.4 47.35 53.95 L42.95 54.1 Q41.45 53.85 40.2 53.0 39.05 52.2 38.4 51.1 37.2 49.25 37.0 47.15 L37.1 46.8 Q37.75 44.05 40.1 42.75 38.65 43.9 38.4 46.0 38.25 46.75 38.8 47.15 38.55 48.7 39.1 50.1 39.55 51.25 40.6 52.0 42.4 53.05 44.65 52.85 L45.7 52.7 46.45 52.65 47.4 52.35 48.4 51.95 Q50.45 52.2 51.75 50.45 L53.15 47.85 Q54.1 45.75 54.25 43.4 L54.3 39.05 Q54.05 32.65 51.1 27.0 49.7 24.4 47.75 22.45 L40.15 15.4 38.75 14.1 36.45 10.95 Q34.5 7.55 34.1 3.55 33.8 0.5 34.15 -2.65 L34.25 -2.85 35.1 -5.4 Q35.9 -8.85 37.2 -12.0 L37.25 -12.25 Q38.9 -16.95 38.45 -21.2 37.95 -26.4 35.3 -32.3 32.0 -39.85 28.05 -39.4 L28.55 -38.9 Q34.05 -36.75 35.75 -21.2 L35.5 -16.3 35.15 -12.0 34.65 -9.85 33.95 -6.7 Q33.05 -2.15 33.1 2.55 33.05 4.3 33.7 6.2 L35.2 10.5 Q35.9 12.3 37.0 13.7 39.0 16.4 41.7 18.7 L46.75 23.3 Q50.05 26.3 51.6 30.2 L52.35 33.05 Q53.15 37.1 53.35 41.25 53.05 37.85 51.65 34.6 L49.7 30.25 Q47.95 26.75 45.1 24.15 45.05 23.35 44.65 22.85 44.2 22.3 43.6 22.4 L42.1 20.85 41.95 20.6 39.75 18.7 37.5 16.9 35.6 14.9 Q34.2 13.15 33.3 10.95 L32.55 8.9 Q31.4 5.2 31.4 1.1 31.3 -0.15 31.5 -1.5 L33.25 -11.8 34.15 -11.9 33.85 -15.85 Q33.6 -17.7 33.1 -15.35 L32.5 -11.7 31.55 -7.15 30.75 -2.9 30.25 2.0 Q30.15 3.25 30.5 4.8 L30.95 7.5 Q31.4 10.85 32.95 13.8 L35.7 16.65 41.65 22.1 44.2 24.6 45.55 28.0 46.25 29.85 Q47.55 32.9 47.4 36.35 47.2 40.85 45.95 45.35 L45.45 44.3 43.7 42.0 43.65 40.45 43.5 37.95 Q43.2 33.15 41.5 28.55 L41.4 27.55 40.7 25.7 Q39.2 22.5 36.55 20.3 L32.95 17.15 32.3 16.35 30.95 14.5 Q28.95 11.5 28.2 7.95 L27.45 4.05 Q26.85 1.05 27.4 -1.85 L28.2 -6.2 27.65 -5.55 26.95 -3.75 Q26.15 -0.45 26.45 2.85 26.9 7.15 28.45 11.4 29.25 13.6 30.2 15.8 31.65 19.25 32.8 23.2 L29.8 19.3 29.7 19.15 26.8 13.5 25.25 11.1 Q23.95 9.55 23.25 7.85 L22.65 6.45 Q21.65 3.15 22.1 0.1 22.9 -5.3 25.55 -8.15 L26.1 -8.8 Q23.35 -2.5 24.75 4.5 L25.1 6.9 Q25.3 8.1 26.2 8.0 L26.2 7.7 25.65 2.7 25.25 -1.8 Q25.15 -3.35 25.5 -4.9 26.35 -7.8 27.6 -10.45 L27.65 -11.25 27.3 -11.15 27.0 -10.65 Q28.5 -14.45 26.85 -23.15 25.15 -32.4 27.55 -33.35 29.95 -34.35 29.95 -35.05 29.85 -35.8 22.35 -37.55 L22.7 -37.7 Q25.55 -39.75 26.35 -40.5 25.35 -41.3 22.35 -41.15 L19.1 -40.9 19.5 -41.9 Q20.0 -43.85 21.7 -44.55 M27.15 -34.4 Q24.95 -34.85 22.3 -32.4 22.25 -33.05 22.45 -33.45 23.15 -35.65 26.55 -36.0 27.75 -36.2 28.45 -35.2 29.35 -34.05 27.15 -34.4 M16.95 -4.6 L18.45 -7.4 19.85 -10.35 Q21.5 -13.6 22.15 -18.05 L22.3 -18.75 Q24.65 -16.0 24.25 -10.85 L22.15 -5.6 Q20.95 -2.05 20.75 1.85 20.6 6.3 22.85 9.95 L26.2 15.85 Q28.45 19.8 31.15 23.0 33.85 27.1 33.8 32.2 33.65 37.15 32.2 41.9 31.75 43.4 30.75 44.9 L28.35 48.2 Q25.5 51.95 23.65 56.2 22.65 58.75 22.8 61.7 23.05 64.8 24.5 67.5 25.35 69.05 26.65 70.15 L27.1 70.5 Q23.7 68.6 22.4 65.1 21.35 62.0 22.1 59.05 L22.5 57.35 Q23.0 54.05 25.05 51.3 L27.9 47.25 Q30.5 43.75 32.0 39.55 32.85 36.7 33.05 33.7 L33.0 31.75 Q32.75 29.2 31.7 26.8 L31.15 25.85 28.65 22.05 27.6 20.7 23.8 16.8 Q19.8 12.8 18.7 7.4 18.25 5.2 19.1 0.4 L20.85 -9.6 18.5 -3.95 Q16.8 0.0 16.55 4.55 16.35 8.9 17.95 12.75 L19.05 14.7 23.1 18.85 25.45 20.9 28.5 24.1 Q31.15 27.05 31.9 30.9 32.65 35.2 31.3 39.2 29.75 43.65 26.55 47.4 L24.25 50.35 Q21.6 53.8 20.7 58.25 19.7 63.3 22.35 67.6 24.4 71.0 28.1 72.35 29.35 72.85 30.55 72.95 L36.05 72.95 37.7 71.65 Q41.4 68.1 41.3 62.9 L41.35 63.35 Q41.4 68.45 38.4 72.35 36.85 74.2 34.55 74.05 L30.35 73.65 Q25.45 72.85 22.4 69.1 19.0 65.15 19.35 60.15 19.5 55.95 21.7 52.2 22.65 50.45 23.85 48.9 L26.05 45.95 28.1 43.4 Q30.95 39.65 31.15 34.9 31.3 31.65 30.3 28.75 29.55 26.85 28.25 25.4 25.15 22.3 21.55 19.8 17.75 17.1 16.05 12.95 14.55 9.05 15.45 4.7 L16.95 -4.4 16.95 -4.6 M30.95 -10.35 L31.25 -11.6 33.05 -21.15 Q33.25 -22.2 32.85 -23.05 L32.35 -25.25 32.35 -24.25 Q32.2 -21.6 31.85 -19.9 L29.95 -11.45 Q29.05 -6.75 28.55 -1.9 28.35 1.15 29.6 3.65 29.35 -1.4 30.15 -6.15 L30.95 -10.35 M38.75 9.95 Q38.4 8.0 38.2 5.85 37.8 1.9 38.75 -0.85 L39.9 -4.8 Q40.7 -6.9 41.05 -4.15 L40.8 1.85 Q40.5 7.2 40.65 8.75 41.0 12.0 41.3 13.65 39.9 12.15 38.75 9.95 M43.05 27.1 Q42.65 27.55 42.8 27.9 L44.05 32.0 44.65 36.6 44.7 38.65 45.65 38.75 45.75 37.65 45.55 33.85 Q45.15 30.05 43.05 27.1 M43.25 47.3 L44.65 48.15 Q45.1 48.25 45.5 47.75 44.85 49.85 44.35 52.0 L42.5 51.8 43.25 47.3 M18.4 22.55 L22.25 27.1 Q22.4 28.85 22.95 30.4 L23.9 33.2 Q25.2 37.6 28.4 40.45 L26.8 43.05 Q23.25 40.55 20.9 36.6 19.4 34.1 18.95 31.15 18.2 26.85 18.4 22.55 M38.85 30.35 Q39.25 34.95 37.55 39.2 L36.4 42.7 Q36.2 42.1 36.3 41.55 L37.5 35.25 Q37.85 33.55 37.8 31.95 37.7 29.75 37.15 27.7 L36.2 25.15 35.6 23.65 Q35.9 23.7 36.1 23.9 L37.3 25.7 Q38.55 27.85 38.85 30.35 M20.6 27.15 L20.0 27.7 Q19.4 29.0 19.85 30.3 L21.85 35.8 Q22.55 38.05 24.4 39.05 L25.1 38.5 Q23.25 35.85 22.0 32.9 20.85 30.2 20.6 27.15 M32.95 46.55 L33.2 47.9 Q33.9 51.4 32.7 54.7 32.4 51.15 30.15 48.25 L32.25 44.95 32.95 46.55 M40.3 44.1 L40.4 44.0 40.45 44.05 40.3 44.1 M39.9 61.05 L39.9 61.6 39.7 61.05 39.55 60.6 39.9 61.05 M44.55 57.35 L44.65 58.6 Q45.15 61.55 47.0 64.1 43.7 61.4 43.05 57.2 L44.55 57.35" fill="#d1d1d1" fill-rule="evenodd" stroke="none"/>
    <path d="M21.7 -44.55 Q20.0 -43.85 19.5 -41.9 L19.1 -40.9 22.35 -41.15 Q25.35 -41.3 26.35 -40.5 25.55 -39.75 22.7 -37.7 L22.35 -37.55 Q29.85 -35.8 29.95 -35.05 29.95 -34.35 27.55 -33.35 25.15 -32.4 26.85 -23.15 28.5 -14.45 27.0 -10.65 L26.9 -10.45 26.75 -10.25 26.6 -9.95 26.1 -8.8 25.55 -8.15 Q22.9 -5.3 22.1 0.1 21.65 3.15 22.65 6.45 L23.25 7.85 Q23.95 9.55 25.25 11.1 L26.8 13.5 29.7 19.15 31.15 23.0 Q28.45 19.8 26.2 15.85 L22.85 9.95 Q20.6 6.3 20.75 1.85 20.95 -2.05 22.15 -5.6 L24.25 -10.85 Q24.65 -16.0 22.3 -18.75 L22.15 -18.05 Q21.5 -13.6 19.85 -10.35 L18.45 -7.4 16.95 -4.6 17.1 -7.15 17.1 -9.0 17.2 -10.05 17.05 -14.75 16.85 -18.85 Q16.65 -21.2 14.9 -26.05 13.25 -30.9 12.85 -33.9 12.2 -40.25 15.65 -42.8 17.6 -44.25 21.7 -44.55 M32.8 23.2 Q31.65 19.25 30.2 15.8 29.25 13.6 28.45 11.4 26.9 7.15 26.45 2.85 26.15 -0.45 26.95 -3.75 L27.65 -5.55 28.2 -6.2 27.4 -1.85 Q26.85 1.05 27.45 4.05 L28.2 7.95 Q28.95 11.5 30.95 14.5 L32.3 16.35 32.95 17.15 36.55 20.3 Q39.2 22.5 40.7 25.7 L41.4 27.55 41.5 28.55 41.45 28.4 40.15 25.35 40.25 26.35 Q40.3 29.15 41.35 31.7 41.0 32.4 40.8 33.2 39.45 37.3 38.45 41.45 L38.0 42.3 36.75 44.4 Q36.0 45.7 35.75 47.2 35.55 48.55 35.8 49.7 36.35 52.2 37.95 54.15 L37.85 58.6 Q37.0 58.7 36.3 59.05 33.9 59.75 33.95 62.05 L33.55 58.55 34.95 55.75 Q35.55 54.45 35.5 53.15 35.4 48.0 32.9 43.65 L33.95 40.45 Q35.25 36.4 35.2 32.0 35.05 27.1 32.8 23.2 M45.95 45.35 Q47.2 40.85 47.4 36.35 47.55 32.9 46.25 29.85 L45.55 28.0 44.2 24.6 44.2 24.55 44.7 25.2 45.1 25.95 Q46.75 28.85 47.95 32.15 49.8 37.6 48.4 43.2 47.55 46.6 47.25 50.1 L47.25 51.7 44.5 52.05 44.35 52.05 44.35 52.0 Q44.85 49.85 45.5 47.75 L45.95 45.35 M32.95 13.8 Q31.4 10.85 30.95 7.5 L30.5 4.8 Q30.15 3.25 30.25 2.0 L30.75 -2.9 31.55 -7.15 32.5 -11.7 33.1 -15.35 Q33.6 -17.7 33.85 -15.85 L34.15 -11.9 33.25 -11.8 31.5 -1.5 Q31.3 -0.15 31.4 1.1 31.4 5.2 32.55 8.9 L33.3 10.95 Q34.2 13.15 35.6 14.9 L37.5 16.9 39.75 18.7 41.95 20.6 42.1 20.85 Q38.1 18.8 34.85 15.6 L33.45 14.3 32.95 13.8 M43.6 22.4 Q44.2 22.3 44.65 22.85 45.05 23.35 45.1 24.15 L43.6 22.4 M37.0 47.15 Q37.2 49.25 38.4 51.1 39.05 52.2 40.2 53.0 41.45 53.85 42.95 54.1 L47.35 53.95 Q48.9 53.4 50.35 52.5 54.45 49.85 55.5 45.25 56.6 40.8 55.85 36.6 L54.8 31.05 Q54.6 29.75 54.0 28.7 L52.9 26.0 Q55.35 29.7 56.4 34.25 57.35 38.6 57.45 43.2 57.5 45.65 56.5 47.75 54.45 52.35 50.25 54.85 49.65 55.15 49.05 55.4 47.5 56.05 45.6 56.1 40.55 56.35 37.95 52.05 36.8 50.1 36.95 47.85 L37.0 47.15 M27.15 -34.4 Q29.35 -34.05 28.45 -35.2 27.75 -36.2 26.55 -36.0 23.15 -35.65 22.45 -33.45 22.25 -33.05 22.3 -32.4 24.95 -34.85 27.15 -34.4 M38.75 9.95 L38.25 8.8 Q36.5 5.0 37.3 -0.05 37.95 -5.05 39.0 -9.7 L39.4 -11.0 Q41.65 -7.5 42.15 -2.45 42.7 2.55 41.9 6.8 41.0 10.95 42.2 14.5 L41.3 13.65 Q41.0 12.0 40.65 8.75 40.5 7.2 40.8 1.85 L41.05 -4.15 Q40.7 -6.9 39.9 -4.8 L38.75 -0.85 Q37.8 1.9 38.2 5.85 38.4 8.0 38.75 9.95 M18.4 22.55 L18.7 19.25 22.25 22.05 22.05 22.75 Q21.85 24.85 22.25 27.1 L18.4 22.55 M38.85 30.35 Q38.55 27.85 37.3 25.7 L36.1 23.9 Q35.9 23.7 35.6 23.65 L36.2 25.15 37.15 27.7 Q37.7 29.75 37.8 31.95 37.85 33.55 37.5 35.25 L36.3 41.55 Q36.2 42.1 36.4 42.7 L37.55 39.2 Q39.25 34.95 38.85 30.35 M32.7 54.7 Q33.9 51.4 33.2 47.9 L32.95 46.55 Q33.8 48.35 34.25 50.4 35.15 54.95 32.05 58.6 L32.7 54.7 M38.35 68.2 L37.15 69.4 37.1 69.25 36.5 68.2 35.05 65.45 33.95 62.3 34.05 62.5 34.3 62.7 34.6 62.8 35.05 62.55 Q35.25 61.0 36.6 60.8 L37.8 61.0 Q38.65 61.55 38.9 62.3 40.2 65.5 38.35 68.2 M44.55 57.35 L47.95 57.1 Q48.15 58.85 49.2 60.45 51.05 62.95 54.15 63.5 L58.0 63.1 Q59.85 62.7 61.2 61.35 63.25 59.4 62.8 56.7 62.65 55.2 62.05 53.85 61.35 52.15 59.3 52.3 L59.75 52.0 Q60.3 51.85 60.85 52.0 62.15 52.15 62.7 53.3 L63.5 55.15 Q63.9 56.4 63.95 57.7 64.15 59.7 63.45 61.5 62.4 63.85 60.25 65.0 57.7 66.5 54.65 67.1 L52.05 66.7 Q49.65 65.95 47.65 64.55 L47.0 64.1 Q45.15 61.55 44.65 58.6 L44.55 57.35 M40.7 72.6 L40.25 72.35 41.05 71.05 41.85 72.9 40.7 72.6" fill="#989898" fill-rule="evenodd" stroke="none"/>
    <path d="M52.9 26.0 L51.65 24.4 Q49.8 22.05 47.4 20.2 L46.7 19.65 Q43.15 17.0 39.9 13.7 38.6 12.55 37.75 11.1 36.45 9.05 36.05 6.5 35.5 2.45 36.15 -1.6 L36.85 -5.6 38.45 -12.35 Q40.4 -17.9 40.0 -22.15 39.55 -26.05 38.1 -29.75 L35.2 -35.95 Q32.95 -40.55 29.95 -42.25 27.6 -43.7 21.7 -44.55 17.6 -44.25 15.65 -42.8 12.2 -40.25 12.85 -33.9 13.25 -30.9 14.9 -26.05 16.65 -21.2 16.85 -18.85 L17.05 -14.75 17.2 -10.05 17.1 -9.0 17.1 -7.15 16.95 -4.6 16.95 -4.4 15.45 4.7 Q14.55 9.05 16.05 12.95 17.75 17.1 21.55 19.8 25.15 22.3 28.25 25.4 29.55 26.85 30.3 28.75 31.3 31.65 31.15 34.9 30.95 39.65 28.1 43.4 L26.05 45.95 23.85 48.9 Q22.65 50.45 21.7 52.2 19.5 55.95 19.35 60.15 19.0 65.15 22.4 69.1 25.45 72.85 30.35 73.65 L34.55 74.05 Q36.85 74.2 38.4 72.35 41.4 68.45 41.35 63.35 L41.3 62.9 39.9 61.05 39.55 60.6 39.7 61.05 39.9 61.6 Q40.75 63.7 40.5 65.85 40.4 67.8 39.2 69.1 38.05 70.5 36.65 71.2 33.95 72.2 31.15 71.85 28.7 71.55 26.65 70.15 25.35 69.05 24.5 67.5 23.05 64.8 22.8 61.7 22.65 58.75 23.65 56.2 25.5 51.95 28.35 48.2 L30.75 44.9 Q31.75 43.4 32.2 41.9 33.65 37.15 33.8 32.2 33.85 27.1 31.15 23.0 L29.7 19.15 29.8 19.3 32.8 23.2 Q35.05 27.1 35.2 32.0 35.25 36.4 33.95 40.45 L32.9 43.65 Q35.4 48.0 35.5 53.15 35.55 54.45 34.95 55.75 L33.55 58.55 33.95 62.05 Q33.9 59.75 36.3 59.05 37.0 58.7 37.85 58.6 L37.95 54.15 Q36.35 52.2 35.8 49.7 35.55 48.55 35.75 47.2 36.0 45.7 36.75 44.4 L38.0 42.3 38.45 41.45 Q39.45 37.3 40.8 33.2 41.0 32.4 41.35 31.7 40.3 29.15 40.25 26.35 L40.15 25.35 41.45 28.4 41.5 28.55 Q43.2 33.15 43.5 37.95 L43.65 40.45 43.7 42.0 45.45 44.3 45.65 46.35 44.3 46.85 43.45 45.65 43.25 47.3 42.5 51.8 44.35 52.0 44.35 52.05 44.5 52.05 47.25 51.7 47.25 50.1 Q47.55 46.6 48.4 43.2 49.8 37.6 47.95 32.15 46.75 28.85 45.1 25.95 L44.7 25.2 44.2 24.55 44.2 24.6 41.65 22.1 35.7 16.65 32.95 13.8 33.45 14.3 34.85 15.6 Q38.1 18.8 42.1 20.85 L43.6 22.4 45.1 24.15 Q47.95 26.75 49.7 30.25 L51.65 34.6 Q53.05 37.85 53.35 41.25 L53.35 42.2 53.35 42.45 Q53.45 44.75 52.7 46.8 L52.1 48.15 50.9 49.85 48.4 51.95 47.4 52.35 46.45 52.65 45.7 52.7 44.65 52.85 Q42.4 53.05 40.6 52.0 39.55 51.25 39.1 50.1 38.55 48.7 38.8 47.15 38.7 46.0 39.15 45.15 39.5 44.3 40.2 44.15 L40.3 44.1 40.45 44.05 Q42.95 42.9 44.15 45.3 L44.4 45.95 45.1 46.0 Q44.9 44.05 43.4 42.9 42.65 42.25 41.7 42.4 L40.1 42.75 Q37.75 44.05 37.1 46.8 L37.0 47.15 36.95 47.85 Q36.8 50.1 37.95 52.05 40.55 56.35 45.6 56.1 47.5 56.05 49.05 55.4 49.65 55.15 50.25 54.85 54.45 52.35 56.5 47.75 57.5 45.65 57.45 43.2 57.35 38.6 56.4 34.25 55.35 29.7 52.9 26.0 M45.55 17.25 Q49.65 19.8 52.6 23.6 54.15 25.6 55.2 27.75 L56.15 30.0 56.65 31.55 Q57.8 35.75 58.45 40.1 59.15 45.0 56.9 49.45 54.9 53.7 50.75 56.0 L49.0 56.85 Q49.8 58.6 50.85 60.15 L52.05 61.25 53.85 61.9 55.85 62.25 Q58.15 62.45 59.95 61.25 61.25 60.25 61.5 58.7 62.0 56.8 61.7 54.85 61.6 54.0 60.95 53.3 L60.1 53.1 58.4 53.45 Q57.7 52.35 58.9 51.65 60.7 50.35 62.4 51.6 63.3 52.25 63.7 53.15 64.65 55.3 64.75 57.8 L64.75 60.15 Q64.6 61.55 63.95 62.8 61.45 66.65 56.85 67.65 L53.45 68.35 Q50.75 68.2 48.45 66.65 L46.45 65.3 Q44.0 63.5 42.65 60.7 41.85 58.95 41.75 56.85 L38.65 55.0 39.0 58.85 Q41.65 60.3 42.25 63.05 42.55 64.4 42.3 65.75 L41.65 69.15 41.35 70.15 44.05 74.1 43.65 74.45 Q41.95 74.7 40.45 73.9 L39.5 73.2 Q37.5 74.75 34.9 75.3 L28.8 74.4 26.25 73.75 23.05 71.7 Q21.75 70.6 20.7 69.15 18.55 66.15 18.3 62.5 17.85 54.9 22.55 48.6 L25.05 45.25 26.0 44.0 Q21.75 41.45 19.75 37.15 18.9 35.45 18.4 33.7 17.7 31.7 17.55 29.7 L17.05 22.95 Q16.95 22.1 17.15 21.15 L17.75 18.1 Q15.65 15.3 14.55 12.1 13.6 9.35 14.0 6.5 14.7 0.9 15.7 -4.75 L15.75 -8.9 15.8 -9.95 15.7 -18.35 13.85 -24.8 Q11.95 -31.05 11.65 -33.7 11.15 -39.2 13.3 -42.25 15.4 -45.15 19.75 -45.65 30.35 -46.75 36.3 -37.25 40.2 -30.85 41.05 -22.4 L40.55 -17.3 39.95 -12.5 Q39.95 -12.15 40.3 -11.8 L41.7 -9.4 Q45.1 -1.6 43.65 6.65 43.1 9.55 43.0 12.75 43.05 14.3 43.6 15.75 L45.55 17.25 M41.3 13.65 L42.2 14.5 Q41.0 10.95 41.9 6.8 42.7 2.55 42.15 -2.45 41.65 -7.5 39.4 -11.0 L39.0 -9.7 Q37.95 -5.05 37.3 -0.05 36.5 5.0 38.25 8.8 L38.75 9.95 Q39.9 12.15 41.3 13.65 M51.55 46.95 Q53.05 43.0 52.1 38.95 51.0 34.3 48.65 30.3 49.55 32.6 49.9 35.15 L49.85 39.5 48.75 47.05 48.1 51.35 49.7 50.25 51.25 47.8 51.55 46.95 M40.75 41.4 L42.95 41.65 41.7 33.2 39.5 41.7 40.75 41.4 M41.8 44.6 Q39.7 45.2 39.55 47.6 39.55 49.15 40.45 50.25 L41.6 51.45 42.75 44.75 41.8 44.6 M22.25 27.1 Q21.85 24.85 22.05 22.75 L22.25 22.05 18.7 19.25 18.4 22.55 Q18.2 26.85 18.95 31.15 19.4 34.1 20.9 36.6 23.25 40.55 26.8 43.05 L28.4 40.45 Q25.2 37.6 23.9 33.2 L22.95 30.4 Q22.4 28.85 22.25 27.1 M29.85 32.9 Q29.55 28.1 26.1 25.05 L23.1 22.7 Q22.65 29.55 26.2 35.4 L28.85 39.75 Q29.75 37.8 29.85 35.55 L29.85 32.9 M32.95 46.55 L32.25 44.95 30.15 48.25 Q32.4 51.15 32.7 54.7 L32.05 58.6 Q35.15 54.95 34.25 50.4 33.8 48.35 32.95 46.55 M38.35 68.2 Q40.2 65.5 38.9 62.3 38.65 61.55 37.8 61.0 L36.6 60.8 Q35.25 61.0 35.05 62.55 L34.6 62.8 34.3 62.7 34.05 62.5 33.95 62.3 35.05 65.45 36.5 68.2 37.1 69.25 37.15 69.4 38.35 68.2 M27.0 63.95 L26.0 63.75 Q25.8 63.0 26.75 62.75 28.1 62.2 29.05 61.2 L30.75 58.75 Q31.7 57.25 31.6 55.3 31.6 51.85 29.45 49.1 26.45 52.2 24.8 56.2 L24.05 58.15 23.8 59.5 Q23.75 62.75 25.0 65.85 26.4 69.45 30.15 70.4 33.4 71.1 36.3 70.0 34.45 68.3 33.65 65.85 L33.0 62.65 32.65 59.95 Q30.6 63.1 27.0 63.95 M47.0 64.1 L47.65 64.55 Q49.65 65.95 52.05 66.7 L54.65 67.1 Q57.7 66.5 60.25 65.0 62.4 63.85 63.45 61.5 64.15 59.7 63.95 57.7 63.9 56.4 63.5 55.15 L62.7 53.3 Q62.15 52.15 60.85 52.0 60.3 51.85 59.75 52.0 L59.3 52.3 Q61.35 52.15 62.05 53.85 62.65 55.2 62.8 56.7 63.25 59.4 61.2 61.35 59.85 62.7 58.0 63.1 L54.15 63.5 Q51.05 62.95 49.2 60.45 48.15 58.85 47.95 57.1 L44.55 57.35 43.05 57.2 Q43.7 61.4 47.0 64.1 M40.7 72.6 L41.85 72.9 41.05 71.05 40.25 72.35 40.7 72.6" fill="#606060" fill-rule="evenodd" stroke="none"/>
  </g>
</svg>
