<?xml version="1.0" encoding="UTF-8" standalone="no"?>
<svg xmlns:ffdec="https://www.free-decompiler.com/flash" xmlns:xlink="http://www.w3.org/1999/xlink" ffdec:objectType="shape" height="95.1px" width="14.75px" xmlns="http://www.w3.org/2000/svg">
  <g transform="matrix(1.0, 0.0, 0.0, 1.0, -7.8, 113.3)">
    <path d="M9.4 -109.0 Q7.8 -110.45 7.8 -112.55 L7.9 -113.3 8.7 -113.25 Q9.7 -110.35 9.7 -108.65 L9.6 -108.8 9.4 -109.0 M9.1 -105.45 L8.95 -106.1 9.0 -106.15 9.25 -106.05 Q12.0 -104.95 12.0 -103.65 L11.8 -102.9 11.25 -102.5 10.6 -101.9 Q9.95 -102.55 9.65 -103.3 L9.1 -105.45 M12.0 -95.75 L11.9 -95.55 Q11.6 -94.9 11.2 -94.9 10.8 -94.9 10.5 -95.55 10.2 -96.2 10.2 -97.15 10.2 -98.1 10.5 -98.75 10.8 -99.4 11.2 -99.4 11.6 -99.4 11.9 -98.8 L11.9 -98.75 12.2 -97.15 12.0 -95.75 M12.05 -92.4 L13.1 -90.9 Q13.45 -90.1 13.4 -87.95 L12.7 -88.3 12.0 -88.45 11.95 -88.25 Q11.5 -89.0 11.45 -91.25 L11.55 -91.8 Q11.7 -92.35 12.05 -92.4 M17.05 -57.25 L17.4 -57.4 18.1 -56.75 18.35 -55.15 18.1 -53.55 18.05 -53.45 Q17.8 -52.9 17.4 -52.9 17.0 -52.9 16.75 -53.55 16.45 -54.2 16.45 -55.15 16.45 -56.1 16.75 -56.75 L17.05 -57.25 M15.55 -62.15 Q15.55 -63.1 15.85 -63.75 16.1 -64.4 16.5 -64.4 L17.2 -63.75 17.45 -62.15 17.2 -60.55 Q16.9 -59.9 16.5 -59.9 16.1 -59.9 15.85 -60.55 15.55 -61.2 15.55 -62.15 M14.55 -70.9 Q14.55 -71.85 14.85 -72.5 15.1 -73.15 15.5 -73.15 L16.2 -72.5 16.45 -70.9 16.2 -69.3 Q15.9 -68.65 15.5 -68.65 15.1 -68.65 14.85 -69.3 14.55 -69.95 14.55 -70.9 M13.55 -78.9 Q13.55 -79.85 13.85 -80.5 14.1 -81.15 14.5 -81.15 L15.2 -80.5 15.45 -78.9 15.2 -77.3 Q14.9 -76.65 14.5 -76.65 14.1 -76.65 13.85 -77.3 13.55 -77.95 13.55 -78.9 M18.35 -50.4 L19.0 -49.75 19.25 -48.15 19.0 -46.55 Q18.7 -45.9 18.3 -45.9 17.9 -45.9 17.65 -46.55 17.45 -46.95 17.4 -47.45 L17.35 -48.15 Q17.35 -49.1 17.65 -49.75 17.9 -50.4 18.3 -50.4 L18.35 -50.4 M20.85 -29.15 L21.5 -28.5 21.75 -26.9 21.5 -25.3 Q21.2 -24.65 20.8 -24.65 20.4 -24.65 20.15 -25.3 19.95 -25.7 19.9 -26.2 L19.85 -26.9 Q19.85 -27.85 20.15 -28.5 20.4 -29.15 20.8 -29.15 L20.85 -29.15 M20.9 -34.05 L20.65 -32.8 20.05 -32.2 19.9 -32.25 Q19.6 -32.35 19.4 -32.8 19.1 -33.45 19.1 -34.35 19.05 -35.25 19.3 -35.9 19.6 -36.5 19.95 -36.5 L20.6 -35.9 20.9 -34.35 20.9 -34.05 M20.15 -41.05 L19.9 -39.8 19.3 -39.2 19.15 -39.25 Q18.85 -39.35 18.65 -39.8 18.35 -40.45 18.35 -41.35 18.3 -42.25 18.55 -42.9 L19.2 -43.5 Q19.55 -43.5 19.85 -42.9 L20.15 -41.35 20.15 -41.05 M20.7 -20.75 L20.75 -22.05 22.05 -22.6 22.5 -18.85 22.55 -18.5 22.35 -18.4 21.25 -18.25 Q20.75 -18.6 20.7 -20.75" fill="#8a8a8a" fill-rule="evenodd" stroke="none"/>
  </g>
</svg>
