<?xml version="1.0" encoding="UTF-8" standalone="no"?>
<svg xmlns:ffdec="https://www.free-decompiler.com/flash" xmlns:xlink="http://www.w3.org/1999/xlink" ffdec:objectType="shape" height="101.35px" width="101.35px" xmlns="http://www.w3.org/2000/svg">
  <g transform="matrix(1.0, 0.0, 0.0, 1.0, 93.95, 101.55)">
    <path d="M-1.05 -92.05 L-4.85 -88.25 -5.5 -89.0 Q-6.55 -90.05 -7.75 -90.65 L-8.0 -91.25 -3.3 -96.0 Q-2.25 -95.55 -1.35 -94.85 L-1.5 -94.0 -1.05 -92.05 M-10.9 -84.2 L-10.6 -83.9 -9.95 -83.15 -15.0 -78.05 -15.7 -78.8 Q-16.95 -80.05 -18.55 -80.75 L-14.4 -84.85 -14.45 -84.4 Q-14.45 -82.85 -12.65 -81.9 -12.35 -82.75 -10.9 -84.2 M-23.65 -75.65 Q-22.6 -75.2 -21.7 -74.45 -23.45 -73.9 -23.45 -72.15 L-23.3 -71.2 Q-23.1 -70.7 -22.5 -70.6 L-25.2 -67.9 -25.85 -68.65 Q-27.1 -69.9 -28.7 -70.55 L-23.65 -75.65 M-33.8 -65.5 Q-32.2 -64.8 -30.95 -63.55 L-30.3 -62.8 -34.25 -58.85 Q-34.95 -59.45 -36.6 -59.45 L-37.2 -59.4 Q-38.0 -60.0 -38.9 -60.4 L-33.8 -65.5 M-44.0 -55.3 Q-42.4 -54.6 -41.15 -53.35 L-40.45 -52.6 -45.55 -47.55 -46.2 -48.3 Q-47.45 -49.55 -49.05 -50.2 L-44.0 -55.3 M-55.25 -44.05 L-54.15 -45.15 Q-52.55 -44.45 -51.3 -43.2 L-50.65 -42.45 -51.75 -41.3 -51.8 -41.35 Q-53.1 -44.1 -54.6 -44.1 L-55.25 -44.05 M-59.25 -40.05 L-56.7 -42.6 -56.95 -40.25 -56.85 -38.5 Q-57.95 -39.5 -59.25 -40.05 M-64.35 -34.95 Q-62.75 -34.25 -61.5 -33.0 L-60.8 -32.25 -63.45 -29.65 -63.25 -31.2 Q-63.25 -31.75 -63.4 -32.0 L-63.55 -32.3 -64.75 -32.6 -68.3 -30.95 -64.35 -34.95 M-74.5 -24.8 Q-72.9 -24.1 -71.65 -22.85 L-71.0 -22.1 -76.55 -16.5 -77.1 -17.1 Q-78.25 -18.25 -79.55 -18.9 L-80.1 -19.15 -74.5 -24.8" fill="#5fbf38" fill-rule="evenodd" stroke="none"/>
    <path d="M-1.35 -94.85 L-0.45 -94.05 0.25 -93.3 -1.05 -92.05 -1.5 -94.0 -1.35 -94.85 M-8.35 -90.95 L-8.0 -91.25 -7.75 -90.65 -8.35 -90.95 M-13.45 -85.85 Q-12.05 -85.25 -10.9 -84.2 -12.35 -82.75 -12.65 -81.9 -14.45 -82.85 -14.45 -84.4 L-14.4 -84.85 -13.45 -85.85 M-21.7 -74.45 L-21.65 -74.45 -20.8 -73.7 -20.1 -72.95 -22.5 -70.6 Q-23.1 -70.7 -23.3 -71.2 L-23.45 -72.15 Q-23.45 -73.9 -21.7 -74.45 M-34.25 -58.85 L-35.35 -57.7 -36.05 -58.45 -37.2 -59.4 -36.6 -59.45 Q-34.95 -59.45 -34.25 -58.85 M-55.25 -44.05 L-54.6 -44.1 Q-53.1 -44.1 -51.8 -41.35 L-51.75 -41.3 -55.7 -37.35 -56.4 -38.1 -56.85 -38.5 -56.95 -40.25 -56.7 -42.6 -55.25 -44.05 M-68.3 -30.95 L-64.75 -32.6 -63.55 -32.3 -63.4 -32.0 Q-63.25 -31.75 -63.25 -31.2 L-63.45 -29.65 -65.9 -27.2 -66.55 -27.95 Q-67.8 -29.2 -69.4 -29.9 L-68.3 -30.95" fill="#59b434" fill-rule="evenodd" stroke="none"/>
    <path d="M-1.05 -92.05 Q-0.45 -90.65 0.95 -89.1 L1.9 -88.15 -2.9 -83.4 Q-3.2 -86.15 -4.85 -88.25 L-1.05 -92.05 M-81.65 -22.45 L-78.55 -25.55 Q-76.35 -25.55 -74.5 -24.8 L-80.1 -19.15 Q-81.9 -19.95 -84.05 -19.95 L-84.15 -19.95 -83.65 -20.45 -79.85 -19.8 -80.5 -21.05 Q-81.1 -22.0 -81.65 -22.45 M-8.0 -91.25 L-8.15 -91.45 Q-8.6 -92.05 -9.3 -92.05 -9.8 -91.8 -10.25 -91.5 L-12.45 -91.65 -7.35 -96.75 Q-5.1 -96.75 -3.3 -96.0 L-8.0 -91.25 M-9.95 -83.15 Q-8.45 -81.25 -8.05 -78.8 L-8.4 -77.85 -13.1 -73.2 Q-13.35 -76.0 -15.0 -78.05 L-9.95 -83.15 M-14.4 -84.85 L-18.55 -80.75 Q-20.35 -81.5 -22.6 -81.5 L-17.5 -86.6 -14.25 -86.15 -14.4 -84.85 M-19.0 -71.2 Q-18.35 -69.8 -18.15 -68.1 L-22.65 -63.6 -23.4 -63.9 Q-23.8 -66.15 -25.2 -67.9 L-22.5 -70.6 -22.0 -70.55 Q-20.55 -70.55 -19.0 -71.2 M-27.7 -76.4 Q-25.45 -76.4 -23.65 -75.65 L-28.7 -70.55 -30.2 -71.05 -30.25 -71.05 Q-28.7 -72.95 -28.7 -74.65 L-28.8 -75.3 -27.7 -76.4 M-30.3 -62.8 Q-28.65 -60.7 -28.35 -57.95 L-33.45 -52.85 Q-33.6 -54.35 -34.1 -55.6 -33.7 -56.4 -33.7 -57.6 -33.7 -58.4 -34.25 -58.85 L-30.3 -62.8 M-37.85 -66.25 Q-35.6 -66.25 -33.8 -65.5 L-38.9 -60.4 Q-40.7 -61.15 -42.95 -61.15 L-37.85 -66.25 M-40.45 -52.6 Q-38.8 -50.55 -38.5 -47.75 L-40.65 -45.6 Q-41.7 -46.7 -42.95 -46.7 L-44.05 -46.5 -44.5 -45.9 -45.55 -47.55 -40.45 -52.6 M-53.15 -50.95 L-51.9 -52.15 -50.45 -51.95 Q-49.55 -51.95 -49.0 -52.5 -48.55 -52.95 -48.55 -53.7 L-48.65 -55.4 -48.05 -56.05 Q-45.8 -56.05 -44.0 -55.3 L-49.05 -50.2 Q-50.9 -51.0 -53.15 -50.95 M-50.65 -42.45 Q-49.0 -40.35 -48.7 -37.6 L-53.8 -32.5 Q-53.95 -34.0 -54.45 -35.25 L-53.85 -35.25 Q-52.7 -35.25 -51.7 -36.0 -50.7 -36.75 -50.7 -37.65 -50.7 -39.05 -51.75 -41.3 L-50.65 -42.45 M-54.15 -45.15 L-55.25 -44.05 -56.1 -43.7 Q-56.5 -43.35 -56.7 -42.6 L-59.25 -40.05 Q-61.05 -40.8 -63.3 -40.8 L-58.2 -45.9 Q-56.0 -45.9 -54.15 -45.15 M-60.8 -32.25 Q-59.15 -30.2 -58.85 -27.4 L-63.95 -22.35 Q-64.2 -24.8 -65.55 -26.7 L-64.8 -27.35 Q-63.8 -28.35 -63.45 -29.65 L-60.8 -32.25 M-73.5 -30.6 L-68.4 -35.7 Q-66.2 -35.7 -64.35 -34.95 L-68.3 -30.95 -69.15 -30.6 -69.8 -30.05 Q-71.5 -30.65 -73.5 -30.6 M-71.0 -22.1 Q-69.7 -20.5 -69.25 -18.45 -70.4 -18.25 -70.85 -17.5 -71.4 -16.65 -70.85 -15.4 L-74.35 -11.9 Q-74.8 -14.5 -76.55 -16.5 L-71.0 -22.1" fill="#55aa32" fill-rule="evenodd" stroke="none"/>
    <path d="M0.25 -93.3 Q1.9 -91.25 2.2 -88.45 L1.9 -88.15 0.95 -89.1 Q-0.45 -90.65 -1.05 -92.05 L0.25 -93.3 M-83.65 -20.45 L-81.65 -22.45 Q-81.1 -22.0 -80.5 -21.05 L-79.85 -19.8 -83.65 -20.45 M-10.25 -91.5 Q-9.8 -91.8 -9.3 -92.05 -8.6 -92.05 -8.15 -91.45 L-8.0 -91.25 -8.35 -90.95 -10.25 -91.5 M-8.4 -77.85 L-8.05 -78.8 -8.0 -78.3 -8.4 -77.85 M-14.25 -86.15 L-13.45 -85.85 -14.4 -84.85 -14.25 -86.15 M-20.1 -72.95 L-19.0 -71.2 Q-20.55 -70.55 -22.0 -70.55 L-22.5 -70.6 -20.1 -72.95 M-23.4 -63.9 L-22.65 -63.6 -23.25 -63.0 -23.4 -63.9 M-28.8 -75.3 L-28.7 -74.65 Q-28.7 -72.95 -30.25 -71.05 L-32.8 -71.3 -28.8 -75.3 M-34.25 -58.85 Q-33.7 -58.4 -33.7 -57.6 -33.7 -56.4 -34.1 -55.6 -34.6 -56.75 -35.35 -57.7 L-34.25 -58.85 M-44.5 -45.9 L-44.05 -46.5 -42.95 -46.7 Q-41.7 -46.7 -40.65 -45.6 L-43.6 -42.7 Q-43.8 -44.45 -44.5 -45.9 M-48.65 -55.4 L-48.55 -53.7 Q-48.55 -52.95 -49.0 -52.5 -49.55 -51.95 -50.45 -51.95 L-51.9 -52.15 -48.65 -55.4 M-56.7 -42.6 Q-56.5 -43.35 -56.1 -43.7 L-55.25 -44.05 -56.7 -42.6 M-51.75 -41.3 Q-50.7 -39.05 -50.7 -37.65 -50.7 -36.75 -51.7 -36.0 -52.7 -35.25 -53.85 -35.25 L-54.45 -35.25 Q-54.95 -36.4 -55.7 -37.35 L-51.75 -41.3 M-63.45 -29.65 Q-63.8 -28.35 -64.8 -27.35 L-65.55 -26.7 -65.9 -27.2 -63.45 -29.65 M-69.8 -30.05 L-69.15 -30.6 -68.3 -30.95 -69.4 -29.9 -69.8 -30.05 M-70.85 -15.4 Q-71.4 -16.65 -70.85 -17.5 -70.4 -18.25 -69.25 -18.45 L-69.05 -17.25 -70.85 -15.4" fill="#4d9c2c" fill-rule="evenodd" stroke="none"/>
    <path d="M-12.65 -95.5 L-10.45 -96.3 -15.55 -91.25 -17.75 -90.45 -12.65 -95.5 M1.55 -83.05 L0.35 -80.45 -4.7 -75.45 Q-3.95 -76.65 -3.5 -77.95 L-3.45 -78.0 1.55 -83.05 M-9.8 -70.3 L-14.9 -65.2 Q-14.15 -66.45 -13.7 -67.75 L-9.5 -72.0 -8.6 -72.85 Q-9.05 -71.55 -9.8 -70.3 M-20.0 -60.15 L-25.05 -55.05 Q-24.3 -56.3 -23.85 -57.6 L-19.9 -61.6 -18.8 -62.7 Q-19.25 -61.35 -20.0 -60.15 M-30.15 -49.95 L-35.25 -44.85 -34.05 -47.4 -28.95 -52.5 -30.15 -49.95 M-40.35 -39.8 L-45.4 -34.7 Q-44.65 -35.95 -44.2 -37.3 L-43.55 -37.95 -39.15 -42.35 Q-39.6 -41.05 -40.35 -39.8 M-50.5 -29.6 L-55.6 -24.5 Q-54.85 -25.8 -54.4 -27.1 L-49.3 -32.2 Q-49.75 -30.85 -50.5 -29.6 M-60.65 -19.45 L-65.75 -14.35 Q-65.0 -15.6 -64.55 -16.95 L-63.75 -17.8 -59.45 -22.1 Q-59.9 -20.75 -60.65 -19.45 M-70.85 -9.25 L-77.75 -2.4 -78.0 -2.25 -79.3 -1.35 -82.1 -0.35 -82.35 -0.3 -84.0 -0.2 -84.05 -0.2 Q-88.15 -0.2 -91.05 -3.1 -93.95 -6.0 -93.95 -10.05 -93.95 -13.45 -91.95 -16.05 L-91.8 -16.4 -83.9 -24.3 -81.65 -25.1 -87.4 -19.4 -84.3 -19.95 -84.15 -19.95 -84.05 -19.95 Q-81.9 -19.95 -80.1 -19.15 L-79.55 -18.9 Q-78.25 -18.25 -77.1 -17.1 L-76.55 -16.5 Q-74.8 -14.5 -74.35 -11.9 -74.2 -11.05 -74.2 -10.05 L-74.2 -9.95 -74.2 -9.3 -74.25 -8.7 -74.3 -8.5 -74.7 -6.8 -69.65 -11.9 Q-70.1 -10.55 -70.85 -9.25 M-78.8 -29.4 L-73.7 -34.5 -71.5 -35.3 -76.6 -30.2 -78.8 -29.4 M-68.6 -39.55 L-63.55 -44.65 -61.3 -45.45 -66.4 -40.35 -68.6 -39.55 M-58.45 -49.75 L-53.35 -54.8 -51.15 -55.6 -53.65 -53.1 -56.25 -50.55 -58.45 -49.75 M-48.3 -59.9 L-43.2 -65.0 -40.95 -65.8 -46.05 -60.7 -48.3 -59.9 M-38.1 -70.1 L-33.0 -75.15 -30.8 -75.95 -31.25 -75.5 -34.7 -72.1 -35.9 -70.9 -38.1 -70.1 M-27.95 -80.25 L-22.85 -85.35 -20.6 -86.15 -25.7 -81.05 -27.95 -80.25 M-83.9 -9.2 L-83.4 -9.7 -83.3 -10.05 Q-83.35 -10.7 -83.9 -10.8 L-83.95 -10.8 -84.3 -10.75 -84.45 -10.3 -84.6 -10.05 -84.7 -10.0 -84.9 -9.95 -85.15 -10.05 -85.25 -10.4 -85.2 -10.5 -84.85 -11.4 -83.75 -11.6 Q-82.8 -11.45 -82.55 -10.5 L-82.5 -10.05 Q-82.45 -9.15 -83.25 -8.55 L-83.95 -8.25 -84.15 -8.25 -84.3 -8.25 Q-86.85 -8.45 -86.9 -10.75 L-86.9 -10.8 -86.7 -12.0 -86.15 -12.75 Q-85.45 -13.35 -83.9 -13.4 L-83.8 -13.4 Q-82.0 -13.1 -81.3 -11.75 -81.0 -11.05 -80.95 -10.05 -80.9 -8.65 -81.65 -7.75 L-82.05 -7.35 -82.9 -6.85 -84.15 -6.5 -84.4 -6.5 Q-86.1 -6.55 -87.4 -7.6 -88.8 -8.75 -88.75 -10.75 L-88.45 -12.35 -87.95 -13.25 -87.45 -13.85 Q-86.15 -15.1 -84.2 -15.1 L-84.15 -15.1 -82.9 -14.9 Q-81.75 -14.6 -80.85 -13.75 L-80.75 -13.65 -80.2 -12.9 Q-79.5 -11.8 -79.3 -10.5 -79.0 -8.1 -80.4 -6.65 L-80.5 -6.6 -80.9 -6.2 -81.7 -5.65 Q-82.75 -5.1 -83.95 -5.05 L-84.65 -5.05 Q-86.75 -5.1 -88.3 -6.4 -90.2 -8.0 -90.4 -10.5 -90.5 -12.25 -89.65 -13.55 L-89.05 -14.35 -88.5 -14.85 Q-86.55 -16.65 -83.95 -16.55 L-83.9 -16.55 -83.8 -16.55 -82.85 -16.45 Q-80.95 -16.1 -79.5 -14.6 L-79.25 -14.3 -79.0 -14.05 Q-77.7 -12.35 -77.6 -10.05 L-77.7 -8.55 Q-78.05 -6.85 -79.25 -5.45 L-79.5 -5.15 -79.65 -5.0 -80.5 -4.4 Q-82.0 -3.5 -84.1 -3.55 L-84.7 -3.55 Q-87.3 -3.8 -89.5 -5.45 -91.95 -7.4 -92.0 -10.5 L-92.0 -10.55 Q-92.05 -12.9 -90.8 -14.75 L-90.2 -15.5 -89.85 -15.95 Q-88.3 -17.6 -86.0 -18.05 L-84.2 -18.25 -84.15 -18.25 -81.45 -17.8 -79.95 -17.1 -79.1 -16.55 -79.1 -16.5 -78.35 -15.85 -77.8 -15.25 Q-76.05 -13.15 -75.9 -10.4 L-75.9 -10.1 Q-75.9 -6.8 -78.1 -4.25 L-78.5 -3.85 -78.85 -3.5 -79.25 -3.2 Q-81.3 -1.7 -84.25 -1.8 L-84.55 -1.8 Q-88.25 -2.05 -90.85 -4.35 L-91.95 -5.55 -90.5 -3.65 Q-87.95 -1.1 -84.35 -1.0 L-84.05 -1.0 Q-81.05 -1.0 -78.75 -2.7 L-78.6 -2.8 -77.7 -3.65 -76.6 -4.9 Q-75.05 -7.15 -75.05 -10.05 L-75.1 -11.2 Q-75.4 -13.9 -77.15 -15.9 L-77.7 -16.5 -79.25 -17.8 -80.75 -18.55 Q-82.25 -19.15 -84.05 -19.15 L-84.25 -19.15 -85.0 -19.1 Q-87.3 -18.9 -89.15 -17.65 L-89.5 -17.4 -90.5 -16.5 -90.75 -16.25 -91.35 -15.5 -91.45 -15.35 -91.55 -15.2 Q-92.8 -13.2 -92.8 -10.75 -92.85 -7.25 -90.3 -4.95 -87.95 -2.9 -84.65 -2.65 L-84.2 -2.65 Q-81.65 -2.55 -79.85 -3.75 L-79.15 -4.3 -79.05 -4.4 -78.7 -4.75 Q-76.9 -6.9 -76.75 -9.55 L-76.75 -10.1 Q-76.8 -12.7 -78.4 -14.7 L-78.9 -15.25 -79.05 -15.4 Q-80.4 -16.7 -82.15 -17.15 L-84.05 -17.4 -84.15 -17.4 Q-85.95 -17.4 -87.3 -16.75 -88.45 -16.25 -89.3 -15.4 L-89.65 -14.95 -90.25 -14.2 Q-91.25 -12.6 -91.2 -10.55 -91.15 -7.8 -89.0 -6.1 -87.05 -4.6 -84.7 -4.35 L-84.1 -4.35 Q-82.4 -4.3 -81.1 -5.0 L-80.25 -5.6 -79.95 -5.95 -79.9 -6.0 -79.0 -7.25 Q-78.35 -8.55 -78.4 -10.05 -78.5 -12.0 -79.6 -13.45 L-79.85 -13.8 -80.1 -14.05 Q-81.5 -15.5 -83.4 -15.7 L-83.55 -15.7 -83.95 -15.75 Q-86.25 -15.85 -87.95 -14.25 L-88.45 -13.75 -89.05 -12.95 Q-89.65 -11.9 -89.55 -10.55 -89.4 -8.4 -87.75 -7.0 -86.35 -5.85 -84.55 -5.85 L-84.55 -5.8 -84.05 -5.85 -84.0 -5.85 Q-83.1 -5.9 -82.3 -6.25 -81.85 -6.45 -81.45 -6.75 L-81.05 -7.15 -80.95 -7.25 Q-79.9 -8.45 -80.15 -10.35 L-80.15 -10.4 Q-80.25 -11.45 -80.75 -12.3 L-81.45 -13.2 Q-82.55 -14.25 -84.15 -14.3 L-85.1 -14.2 -86.85 -13.25 -87.35 -12.65 -87.8 -11.75 -87.95 -10.75 Q-87.95 -9.15 -86.85 -8.25 -85.75 -7.3 -84.3 -7.35 L-83.95 -7.4 -83.9 -7.4 -83.85 -7.45 -83.65 -7.5 -83.6 -7.5 -83.15 -7.65 -82.8 -7.85 -82.65 -7.95 Q-81.75 -8.7 -81.75 -10.0 L-81.95 -11.1 Q-82.45 -12.35 -83.95 -12.55 -85.05 -12.5 -85.65 -12.05 L-86.05 -11.35 -86.1 -10.8 Q-86.0 -9.2 -84.2 -9.05 L-83.9 -9.2" fill="#325e1e" fill-rule="evenodd" stroke="none"/>
    <path d="M-2.9 -83.4 L1.9 -88.15 2.25 -87.85 2.2 -86.2 Q2.05 -84.55 1.55 -83.05 L-3.45 -78.0 -3.5 -78.1 Q-3.0 -79.55 -2.9 -81.1 L-2.9 -83.35 -2.9 -83.4 M-81.65 -22.45 Q-82.15 -22.85 -82.55 -22.85 -83.4 -22.85 -83.85 -22.0 L-84.25 -20.4 -83.65 -20.45 -84.15 -19.95 -84.3 -19.95 -87.4 -19.4 -81.65 -25.1 -79.5 -25.5 -78.55 -25.55 -81.65 -22.45 M-10.45 -96.3 L-8.3 -96.7 -7.35 -96.75 -12.45 -91.65 -13.4 -91.6 -15.55 -91.25 -10.45 -96.3 M-13.1 -73.2 L-8.4 -77.85 -9.0 -75.55 -9.5 -72.0 -13.7 -67.75 Q-13.2 -69.25 -13.1 -70.9 L-13.1 -73.2 M-20.6 -86.15 L-18.45 -86.55 -17.5 -86.6 -22.6 -81.5 -23.55 -81.45 -25.7 -81.05 -20.6 -86.15 M-22.65 -63.6 L-18.15 -68.1 -18.15 -65.85 Q-18.3 -64.2 -18.8 -62.7 L-19.9 -61.6 -19.95 -61.65 Q-21.25 -62.95 -22.65 -63.6 M-31.25 -75.5 L-30.8 -75.95 -28.65 -76.35 -27.7 -76.4 -28.8 -75.3 -28.85 -75.45 -28.95 -75.8 -29.15 -75.85 -29.95 -75.9 -31.25 -75.5 M-33.45 -52.85 L-28.35 -57.95 -28.35 -55.65 Q-28.45 -54.05 -28.95 -52.55 L-28.95 -52.5 -34.05 -47.4 -34.05 -47.45 Q-33.55 -48.95 -33.45 -50.55 L-33.45 -52.85 M-34.7 -72.1 L-35.25 -71.05 -35.9 -70.9 -34.7 -72.1 M-40.95 -65.8 L-38.8 -66.2 -37.85 -66.25 -42.95 -61.15 -43.9 -61.1 -46.05 -60.7 -40.95 -65.8 M-40.65 -45.6 L-38.5 -47.75 -38.5 -45.5 Q-38.65 -44.0 -39.05 -42.6 -39.75 -44.6 -40.65 -45.6 M-53.15 -50.95 L-54.1 -50.9 -56.25 -50.55 -53.65 -53.1 Q-52.85 -52.45 -51.9 -52.15 L-53.15 -50.95 M-61.3 -45.45 L-59.15 -45.85 -58.2 -45.9 -63.3 -40.8 -64.25 -40.75 -66.4 -40.35 -61.3 -45.45 M-48.8 -56.0 L-48.05 -56.05 -48.65 -55.4 -48.8 -56.0 M-48.7 -37.6 L-48.7 -37.55 -48.7 -35.3 Q-48.8 -33.7 -49.3 -32.2 L-54.4 -27.1 -54.4 -27.15 Q-53.9 -28.6 -53.8 -30.2 L-53.8 -32.5 -48.7 -37.6 M-43.8 -38.75 L-43.65 -38.2 -43.55 -37.95 -44.2 -37.3 -43.8 -38.75 M-58.85 -27.4 L-58.85 -25.15 Q-58.95 -23.55 -59.45 -22.1 L-63.75 -17.8 -64.25 -18.0 -63.95 -20.05 -63.95 -22.3 -63.95 -22.35 -58.85 -27.4 M-71.5 -35.3 L-69.35 -35.65 -68.4 -35.7 -73.5 -30.6 -74.45 -30.55 -76.6 -30.2 -71.5 -35.3 M-74.35 -11.9 L-70.85 -15.4 -70.7 -15.05 Q-70.15 -14.0 -69.3 -13.2 L-69.65 -11.9 -74.7 -6.8 -74.3 -8.5 -74.25 -8.7 -74.2 -9.3 -74.2 -9.95 -74.2 -10.05 Q-74.2 -11.05 -74.35 -11.9" fill="#458c27" fill-rule="evenodd" stroke="none"/>
    <path d="M1.9 -88.15 L2.2 -88.45 2.25 -87.85 1.9 -88.15 M-3.45 -78.0 L-3.5 -77.95 -3.5 -78.05 -3.5 -78.1 -3.45 -78.0 M-83.65 -20.45 L-84.25 -20.4 -83.85 -22.0 Q-83.4 -22.85 -82.55 -22.85 -82.15 -22.85 -81.65 -22.45 L-83.65 -20.45 M-9.5 -72.0 L-9.0 -75.55 -8.4 -77.85 -8.0 -78.3 -8.0 -76.0 Q-8.1 -74.35 -8.6 -72.85 L-9.5 -72.0 M-23.25 -63.0 L-22.65 -63.6 Q-21.25 -62.95 -19.95 -61.65 L-19.9 -61.6 -23.85 -57.6 Q-23.35 -59.1 -23.25 -60.75 L-23.25 -63.0 M-31.25 -75.5 L-29.95 -75.9 -29.15 -75.85 -28.95 -75.8 -28.85 -75.45 -28.8 -75.3 -32.8 -71.3 -33.75 -71.25 -35.25 -71.05 -34.7 -72.1 -31.25 -75.5 M-51.9 -52.15 Q-52.85 -52.45 -53.65 -53.1 L-51.15 -55.6 -49.0 -56.0 -48.8 -56.0 -48.65 -55.4 -51.9 -52.15 M-43.6 -42.7 L-40.65 -45.6 Q-39.75 -44.6 -39.05 -42.6 L-39.15 -42.35 -43.55 -37.95 -43.65 -38.2 -43.8 -38.75 -43.6 -40.4 -43.6 -42.7 M-64.55 -16.95 L-64.25 -18.0 -63.75 -17.8 -64.55 -16.95 M-69.3 -13.2 Q-70.15 -14.0 -70.7 -15.05 L-70.85 -15.4 -69.05 -17.25 -69.05 -14.95 -69.3 -13.2" fill="#3d7e22" fill-rule="evenodd" stroke="none"/>
    <path d="M0.7 -99.95 Q2.35 -99.35 3.75 -97.95 L4.3 -97.35 2.05 -95.15 -0.1 -95.65 Q-1.05 -95.55 -1.35 -94.85 -2.25 -95.55 -3.3 -96.0 L0.7 -99.95 M-7.75 -90.65 Q-6.55 -90.05 -5.5 -89.0 L-4.85 -88.25 -9.95 -83.15 -10.6 -83.9 -10.9 -84.2 -9.65 -85.5 Q-7.75 -87.35 -7.75 -90.35 L-7.75 -90.65 M-18.55 -80.75 Q-16.95 -80.05 -15.7 -78.8 L-15.0 -78.05 -18.3 -74.8 -19.35 -74.8 -19.45 -74.8 -21.2 -74.6 -21.65 -74.45 -21.7 -74.45 Q-22.6 -75.2 -23.65 -75.65 L-18.55 -80.75 M-28.7 -70.55 Q-27.1 -69.9 -25.85 -68.65 L-25.2 -67.9 -30.3 -62.8 -30.95 -63.55 Q-32.2 -64.8 -33.8 -65.5 L-29.65 -69.6 -29.4 -69.85 -28.7 -70.55 M-39.1 -53.95 L-40.45 -52.6 -41.15 -53.35 Q-42.4 -54.6 -44.0 -55.3 L-38.9 -60.4 Q-38.0 -60.0 -37.2 -59.4 -38.85 -59.3 -39.95 -58.45 -41.3 -57.4 -41.3 -55.95 -41.3 -54.95 -40.3 -54.4 -39.8 -54.1 -39.1 -53.95 M-49.05 -50.2 Q-47.45 -49.55 -46.2 -48.3 L-45.55 -47.55 -50.65 -42.45 -51.3 -43.2 Q-52.55 -44.45 -54.15 -45.15 L-49.05 -50.2 M-59.25 -40.05 Q-57.95 -39.5 -56.85 -38.5 L-56.4 -36.65 -60.8 -32.25 -61.5 -33.0 Q-62.75 -34.25 -64.35 -34.95 L-59.25 -40.05 M-67.05 -26.05 L-71.0 -22.1 -71.65 -22.85 Q-72.9 -24.1 -74.5 -24.8 L-70.35 -28.9 -70.45 -28.2 Q-70.45 -25.9 -68.25 -25.9 L-67.05 -26.05" fill="#fcf7f1" fill-rule="evenodd" stroke="none"/>
    <path d="M2.05 -95.15 L0.25 -93.3 -0.45 -94.05 -1.35 -94.85 Q-1.05 -95.55 -0.1 -95.65 L2.05 -95.15 M-7.75 -90.65 L-7.75 -90.35 Q-7.75 -87.35 -9.65 -85.5 L-10.9 -84.2 Q-12.05 -85.25 -13.45 -85.85 L-8.35 -90.95 -7.75 -90.65 M-21.65 -74.45 L-21.2 -74.6 -19.45 -74.8 -19.35 -74.8 -18.3 -74.8 -20.1 -72.95 -20.8 -73.7 -21.65 -74.45 M-37.2 -59.4 L-36.05 -58.45 -35.35 -57.7 -39.1 -53.95 Q-39.8 -54.1 -40.3 -54.4 -41.3 -54.95 -41.3 -55.95 -41.3 -57.4 -39.95 -58.45 -38.85 -59.3 -37.2 -59.4 M-56.4 -36.65 L-56.85 -38.5 -56.4 -38.1 -55.7 -37.35 -56.4 -36.65 M-69.4 -29.9 Q-67.8 -29.2 -66.55 -27.95 L-65.9 -27.2 -67.05 -26.05 -68.25 -25.9 Q-70.45 -25.9 -70.45 -28.2 L-70.35 -28.9 -69.4 -29.9" fill="#f8f3ed" fill-rule="evenodd" stroke="none"/>
    <path d="M-3.6 -100.5 L-2.55 -100.55 0.7 -99.95 -3.3 -96.0 Q-5.1 -96.75 -7.35 -96.75 L-3.6 -100.5 M4.3 -97.35 L5.2 -96.1 Q6.15 -94.5 6.35 -92.65 L5.85 -92.15 Q4.8 -93.5 2.95 -94.65 L2.05 -95.15 4.3 -97.35 M-4.85 -88.25 Q-3.2 -86.15 -2.9 -83.4 L-2.9 -83.35 -3.6 -82.7 -5.65 -80.6 -6.0 -80.65 Q-7.25 -80.65 -8.05 -78.8 -8.45 -81.25 -9.95 -83.15 L-4.85 -88.25 M-12.45 -91.65 L-10.25 -91.5 -11.9 -90.1 Q-13.75 -88.3 -14.25 -86.15 L-17.5 -86.6 -12.45 -91.65 M-15.0 -78.05 Q-13.35 -76.0 -13.1 -73.2 L-18.15 -68.1 Q-18.35 -69.8 -19.0 -71.2 L-18.5 -71.45 Q-16.8 -72.45 -16.15 -73.75 -16.45 -74.5 -17.0 -74.7 L-18.3 -74.8 -15.0 -78.05 M-22.6 -81.5 Q-20.35 -81.5 -18.55 -80.75 L-23.65 -75.65 Q-25.45 -76.4 -27.7 -76.4 L-22.6 -81.5 M-25.2 -67.9 Q-23.8 -66.15 -23.4 -63.9 L-25.85 -64.35 Q-26.9 -64.35 -27.25 -63.85 L-27.55 -62.5 Q-27.55 -61.4 -26.4 -59.85 L-28.35 -57.95 Q-28.65 -60.7 -30.3 -62.8 L-25.2 -67.9 M-30.2 -71.05 L-28.7 -70.55 -29.4 -69.85 -29.65 -69.6 -33.8 -65.5 Q-35.6 -66.25 -37.85 -66.25 L-35.7 -68.35 -35.6 -67.8 Q-33.65 -67.65 -31.15 -70.05 L-30.65 -70.55 -30.2 -71.05 M-34.1 -55.6 Q-33.6 -54.35 -33.45 -52.85 L-38.5 -47.75 Q-38.8 -50.55 -40.45 -52.6 L-39.1 -53.95 -37.9 -53.85 Q-35.05 -53.85 -34.1 -55.6 M-42.95 -61.15 Q-40.7 -61.15 -38.9 -60.4 L-44.0 -55.3 Q-45.8 -56.05 -48.05 -56.05 L-42.95 -61.15 M-45.55 -47.55 L-44.5 -45.9 -44.6 -45.2 -44.4 -41.85 -47.6 -38.65 -48.15 -38.1 -48.7 -37.55 -48.7 -37.6 Q-49.0 -40.35 -50.65 -42.45 L-45.55 -47.55 M-58.2 -45.9 L-53.15 -50.95 Q-50.9 -51.0 -49.05 -50.2 L-54.15 -45.15 Q-56.0 -45.9 -58.2 -45.9 M-63.3 -40.8 Q-61.05 -40.8 -59.25 -40.05 L-64.35 -34.95 Q-66.2 -35.7 -68.4 -35.7 L-63.3 -40.8 M-60.8 -32.25 L-56.4 -36.65 -56.0 -35.95 -55.75 -35.7 -55.15 -35.4 -54.45 -35.25 Q-53.95 -34.0 -53.8 -32.5 L-58.85 -27.4 Q-59.15 -30.2 -60.8 -32.25 M-65.55 -26.7 Q-64.2 -24.8 -63.95 -22.35 L-63.95 -22.3 -64.65 -21.6 -64.9 -21.4 -67.7 -18.6 -67.95 -18.6 -69.25 -18.45 Q-69.7 -20.5 -71.0 -22.1 L-67.05 -26.05 Q-66.25 -26.25 -65.55 -26.7 M-78.55 -25.55 L-73.5 -30.6 Q-71.5 -30.65 -69.8 -30.05 L-70.35 -28.9 -74.5 -24.8 Q-76.35 -25.55 -78.55 -25.55" fill="#f4efe9" fill-rule="evenodd" stroke="none"/>
    <path d="M2.05 -95.15 L2.95 -94.65 Q4.8 -93.5 5.85 -92.15 L2.2 -88.45 Q1.9 -91.25 0.25 -93.3 L2.05 -95.15 M-10.25 -91.5 L-8.35 -90.95 -13.45 -85.85 -14.25 -86.15 Q-13.75 -88.3 -11.9 -90.1 L-10.25 -91.5 M-8.05 -78.8 Q-7.25 -80.65 -6.0 -80.65 L-5.65 -80.6 -8.0 -78.3 -8.05 -78.8 M-18.3 -74.8 L-17.0 -74.7 Q-16.45 -74.5 -16.15 -73.75 -16.8 -72.45 -18.5 -71.45 L-19.0 -71.2 -20.1 -72.95 -18.3 -74.8 M-26.4 -59.85 Q-27.55 -61.4 -27.55 -62.5 L-27.25 -63.85 Q-26.9 -64.35 -25.85 -64.35 L-23.4 -63.9 -23.25 -63.0 -26.4 -59.85 M-30.25 -71.05 L-30.2 -71.05 -30.65 -70.55 -31.15 -70.05 Q-33.65 -67.65 -35.6 -67.8 L-35.7 -68.35 -32.8 -71.3 -30.25 -71.05 M-35.35 -57.7 Q-34.6 -56.75 -34.1 -55.6 -35.05 -53.85 -37.9 -53.85 L-39.1 -53.95 -35.35 -57.7 M-44.4 -41.85 L-44.6 -45.2 -44.5 -45.9 Q-43.8 -44.45 -43.6 -42.7 L-44.4 -41.85 M-54.45 -35.25 L-55.15 -35.4 -55.75 -35.7 -56.0 -35.95 -56.4 -36.65 -55.7 -37.35 Q-54.95 -36.4 -54.45 -35.25 M-65.9 -27.2 L-65.55 -26.7 Q-66.25 -26.25 -67.05 -26.05 L-65.9 -27.2 M-69.25 -18.45 L-67.95 -18.6 -67.7 -18.6 -69.05 -17.25 -69.25 -18.45 M-70.35 -28.9 L-69.8 -30.05 -69.4 -29.9 -70.35 -28.9" fill="#f0eae4" fill-rule="evenodd" stroke="none"/>
    <path d="M-12.65 -95.5 L-10.45 -97.75 -9.65 -98.65 Q-6.7 -101.55 -2.55 -101.55 -0.4 -101.55 1.45 -100.75 3.1 -100.0 4.45 -98.65 L5.0 -98.05 5.95 -96.8 Q6.9 -95.3 7.25 -93.5 L7.4 -91.55 7.4 -91.5 7.2 -89.5 Q6.85 -87.75 5.85 -86.2 L4.45 -84.55 3.65 -83.8 0.35 -80.45 1.55 -83.05 3.0 -84.5 3.75 -85.25 4.75 -86.35 Q6.05 -88.2 6.35 -90.4 L6.4 -91.4 6.4 -91.55 6.35 -92.65 Q6.15 -94.5 5.2 -96.1 L4.3 -97.35 3.75 -97.95 Q2.35 -99.35 0.7 -99.95 L-2.55 -100.55 -3.6 -100.5 Q-6.7 -100.2 -8.95 -97.95 L-9.65 -97.15 -9.7 -97.1 -10.45 -96.3 -12.65 -95.5 M-4.7 -75.45 L-9.8 -70.3 Q-9.05 -71.55 -8.6 -72.85 L-4.45 -77.0 -4.25 -77.25 -3.5 -77.95 Q-3.95 -76.65 -4.7 -75.45 M-14.9 -65.2 L-20.0 -60.15 Q-19.25 -61.35 -18.8 -62.7 L-13.7 -67.75 Q-14.15 -66.45 -14.9 -65.2 M-25.05 -55.05 L-30.15 -49.95 -28.95 -52.5 -28.95 -52.55 -28.35 -53.15 -27.75 -53.75 -24.15 -57.35 -23.85 -57.6 Q-24.3 -56.3 -25.05 -55.05 M-35.25 -44.85 L-40.35 -39.8 Q-39.6 -41.05 -39.15 -42.35 L-39.0 -42.5 -35.3 -46.2 -34.7 -46.8 -34.05 -47.45 -34.05 -47.4 -35.25 -44.85 M-45.4 -34.7 L-50.5 -29.6 Q-49.75 -30.85 -49.3 -32.2 L-48.6 -32.9 -48.35 -33.15 -44.2 -37.3 Q-44.65 -35.95 -45.4 -34.7 M-55.6 -24.5 L-60.65 -19.45 Q-59.9 -20.75 -59.45 -22.1 L-55.35 -26.2 -55.1 -26.4 -54.4 -27.15 -54.4 -27.1 Q-54.85 -25.8 -55.6 -24.5 M-65.75 -14.35 L-70.85 -9.25 Q-70.1 -10.55 -69.65 -11.9 L-68.75 -12.8 -64.55 -16.95 Q-65.0 -15.6 -65.75 -14.35 M-83.9 -24.3 L-78.8 -29.4 -76.6 -30.2 -81.65 -25.1 -83.9 -24.3 M-73.7 -34.5 L-68.6 -39.55 -66.4 -40.35 -71.5 -35.3 -73.7 -34.5 M-63.55 -44.65 L-58.45 -49.75 -56.25 -50.55 -61.3 -45.45 -63.55 -44.65 M-53.35 -54.8 L-48.3 -59.9 -46.05 -60.7 -49.35 -57.45 -49.35 -57.4 -51.15 -55.6 -53.35 -54.8 M-43.2 -65.0 L-38.1 -70.1 -35.9 -70.9 -40.95 -65.8 -43.2 -65.0 M-33.0 -75.15 L-27.95 -80.25 -25.7 -81.05 -30.8 -75.95 -33.0 -75.15 M-22.85 -85.35 L-17.75 -90.45 -15.55 -91.25 -20.6 -86.15 -22.85 -85.35" fill="#a39c96" fill-rule="evenodd" stroke="none"/>
    <path d="M-10.45 -96.3 L-9.7 -97.1 -9.65 -97.15 -8.95 -97.95 Q-6.7 -100.2 -3.6 -100.5 L-7.35 -96.75 -8.3 -96.7 -10.45 -96.3 M6.35 -92.65 L6.4 -91.55 6.4 -91.4 5.85 -92.15 6.35 -92.65 M4.75 -86.35 L3.75 -85.25 3.0 -84.5 1.55 -83.05 Q2.05 -84.55 2.2 -86.2 L2.25 -87.85 Q3.5 -86.75 4.75 -86.35 M-78.55 -25.55 L-79.5 -25.5 -81.65 -25.1 -76.6 -30.2 -74.45 -30.55 -73.5 -30.6 -78.55 -25.55 M-5.65 -80.6 L-3.6 -82.7 -2.9 -83.35 -2.9 -81.1 Q-3.0 -79.55 -3.5 -78.1 L-3.5 -78.05 -3.65 -78.55 -4.2 -79.65 -4.3 -79.8 -4.35 -79.85 -5.65 -80.6 M-18.15 -68.1 L-13.1 -73.2 -13.1 -70.9 Q-13.2 -69.25 -13.7 -67.75 L-18.8 -62.7 Q-18.3 -64.2 -18.15 -65.85 L-18.15 -68.1 M-15.55 -91.25 L-13.4 -91.6 -12.45 -91.65 -17.5 -86.6 -18.45 -86.55 -20.6 -86.15 -15.55 -91.25 M-25.7 -81.05 L-23.55 -81.45 -22.6 -81.5 -27.7 -76.4 -28.65 -76.35 -30.8 -75.95 -25.7 -81.05 M-28.35 -57.95 L-26.4 -59.85 -24.8 -58.0 -24.15 -57.35 -27.75 -53.75 -28.35 -53.15 -28.95 -52.55 Q-28.45 -54.05 -28.35 -55.65 L-28.35 -57.95 M-35.7 -68.35 L-37.85 -66.25 -38.8 -66.2 -40.95 -65.8 -35.9 -70.9 -35.25 -71.05 Q-35.75 -69.95 -35.75 -68.95 L-35.7 -68.35 M-38.5 -47.75 L-33.45 -52.85 -33.45 -50.55 Q-33.55 -48.95 -34.05 -47.45 L-34.7 -46.8 -35.3 -46.2 -39.0 -42.5 -39.05 -42.6 Q-38.65 -44.0 -38.5 -45.5 L-38.5 -47.75 M-56.25 -50.55 L-54.1 -50.9 -53.15 -50.95 -58.2 -45.9 -59.15 -45.85 -61.3 -45.45 -56.25 -50.55 M-46.05 -60.7 L-43.9 -61.1 -42.95 -61.15 -48.05 -56.05 -48.8 -56.0 Q-49.0 -56.8 -49.35 -57.4 L-49.35 -57.45 -46.05 -60.7 M-48.7 -37.55 L-48.15 -38.1 -47.6 -38.65 -44.4 -41.85 -43.8 -38.75 -44.2 -37.3 -48.35 -33.15 -48.6 -32.9 -49.3 -32.2 Q-48.8 -33.7 -48.7 -35.3 L-48.7 -37.55 M-59.45 -22.1 Q-58.95 -23.55 -58.85 -25.15 L-58.85 -27.4 -53.8 -32.5 -53.8 -30.2 Q-53.9 -28.6 -54.4 -27.15 L-55.1 -26.4 -55.35 -26.2 -59.45 -22.1 M-66.4 -40.35 L-64.25 -40.75 -63.3 -40.8 -68.4 -35.7 -69.35 -35.65 -71.5 -35.3 -66.4 -40.35 M-67.7 -18.6 L-64.9 -21.4 -64.65 -21.6 -63.95 -22.3 -63.95 -20.05 -64.25 -18.0 -67.7 -18.6 M-69.3 -13.2 L-68.75 -12.8 -69.65 -11.9 -69.3 -13.2" fill="#e3ddd6" fill-rule="evenodd" stroke="none"/>
    <path d="M6.4 -91.4 L6.35 -90.4 Q6.05 -88.2 4.75 -86.35 3.5 -86.75 2.25 -87.85 L2.2 -88.45 5.85 -92.15 6.4 -91.4 M-8.0 -78.3 L-5.65 -80.6 -4.35 -79.85 -4.3 -79.8 -4.2 -79.65 -3.65 -78.55 -3.5 -78.05 -3.5 -77.95 -4.25 -77.25 -4.45 -77.0 -8.6 -72.85 Q-8.1 -74.35 -8.0 -76.0 L-8.0 -78.3 M-24.15 -57.35 L-24.8 -58.0 -26.4 -59.85 -23.25 -63.0 -23.25 -60.75 Q-23.35 -59.1 -23.85 -57.6 L-24.15 -57.35 M-35.25 -71.05 L-33.75 -71.25 -32.8 -71.3 -35.7 -68.35 -35.75 -68.95 Q-35.75 -69.95 -35.25 -71.05 M-39.05 -42.6 L-39.0 -42.5 -39.15 -42.35 -39.05 -42.6 M-49.35 -57.4 Q-49.0 -56.8 -48.8 -56.0 L-49.0 -56.0 -51.15 -55.6 -49.35 -57.4 M-44.4 -41.85 L-43.6 -42.7 -43.6 -40.4 -43.8 -38.75 -44.4 -41.85 M-69.05 -17.25 L-67.7 -18.6 -64.25 -18.0 -64.55 -16.95 -68.75 -12.8 -69.3 -13.2 -69.05 -14.95 -69.05 -17.25" fill="#dbd5cf" fill-rule="evenodd" stroke="none"/>
    <path d="M-83.9 -9.2 L-84.2 -9.05 Q-86.0 -9.2 -86.1 -10.8 L-86.05 -11.35 -85.65 -12.05 Q-85.05 -12.5 -83.95 -12.55 -82.45 -12.35 -81.95 -11.1 L-81.75 -10.0 Q-81.75 -8.7 -82.65 -7.95 L-82.8 -7.85 -83.15 -7.65 -83.6 -7.5 -83.65 -7.5 -83.85 -7.45 -83.9 -7.4 -83.95 -7.4 -84.3 -7.35 Q-85.75 -7.3 -86.85 -8.25 -87.95 -9.15 -87.95 -10.75 L-87.8 -11.75 -87.35 -12.65 -86.85 -13.25 -85.1 -14.2 -84.15 -14.3 Q-82.55 -14.25 -81.45 -13.2 L-80.75 -12.3 Q-80.25 -11.45 -80.15 -10.4 L-80.15 -10.35 Q-79.9 -8.45 -80.95 -7.25 L-81.05 -7.15 -81.45 -6.75 Q-81.85 -6.45 -82.3 -6.25 -83.1 -5.9 -84.0 -5.85 L-84.05 -5.85 -84.55 -5.8 -84.55 -5.85 Q-86.35 -5.85 -87.75 -7.0 -89.4 -8.4 -89.55 -10.55 -89.65 -11.9 -89.05 -12.95 L-88.45 -13.75 -87.95 -14.25 Q-86.25 -15.85 -83.95 -15.75 L-83.55 -15.7 -83.4 -15.7 Q-81.5 -15.5 -80.1 -14.05 L-79.85 -13.8 -79.6 -13.45 Q-78.5 -12.0 -78.4 -10.05 -78.35 -8.55 -79.0 -7.25 L-79.9 -6.0 -79.95 -5.95 -80.25 -5.6 -81.1 -5.0 Q-82.4 -4.3 -84.1 -4.35 L-84.7 -4.35 Q-87.05 -4.6 -89.0 -6.1 -91.15 -7.8 -91.2 -10.55 -91.25 -12.6 -90.25 -14.2 L-89.65 -14.95 -89.3 -15.4 Q-88.45 -16.25 -87.3 -16.75 -85.95 -17.4 -84.15 -17.4 L-84.05 -17.4 -82.15 -17.15 Q-80.4 -16.7 -79.05 -15.4 L-78.9 -15.25 -78.4 -14.7 Q-76.8 -12.7 -76.75 -10.1 L-76.75 -9.55 Q-76.9 -6.9 -78.7 -4.75 L-79.05 -4.4 -79.15 -4.3 -79.85 -3.75 Q-81.65 -2.55 -84.2 -2.65 L-84.65 -2.65 Q-87.95 -2.9 -90.3 -4.95 -92.85 -7.25 -92.8 -10.75 -92.8 -13.2 -91.55 -15.2 L-91.45 -15.35 -91.35 -15.5 -90.75 -16.25 -90.5 -16.5 -89.5 -17.4 -89.15 -17.65 Q-87.3 -18.9 -85.0 -19.1 L-84.25 -19.15 -84.05 -19.15 Q-82.25 -19.15 -80.75 -18.55 L-79.25 -17.8 -77.7 -16.5 -77.15 -15.9 Q-75.4 -13.9 -75.1 -11.2 L-75.05 -10.05 Q-75.05 -7.15 -76.6 -4.9 L-77.7 -3.65 -78.6 -2.8 -78.75 -2.7 Q-81.05 -1.0 -84.05 -1.0 L-84.35 -1.0 Q-87.95 -1.1 -90.5 -3.65 L-91.95 -5.55 -90.85 -4.35 Q-88.25 -2.05 -84.55 -1.8 L-84.25 -1.8 Q-81.3 -1.7 -79.25 -3.2 L-78.85 -3.5 -78.5 -3.85 -78.1 -4.25 Q-75.9 -6.8 -75.9 -10.1 L-75.9 -10.4 Q-76.05 -13.15 -77.8 -15.25 L-78.35 -15.85 -79.1 -16.5 -79.1 -16.55 -79.95 -17.1 -81.45 -17.8 -84.15 -18.25 -84.2 -18.25 -86.0 -18.05 Q-88.3 -17.6 -89.85 -15.95 L-90.2 -15.5 -90.8 -14.75 Q-92.05 -12.9 -92.0 -10.55 L-92.0 -10.5 Q-91.95 -7.4 -89.5 -5.45 -87.3 -3.8 -84.7 -3.55 L-84.1 -3.55 Q-82.0 -3.5 -80.5 -4.4 L-79.65 -5.0 -79.5 -5.15 -79.25 -5.45 Q-78.05 -6.85 -77.7 -8.55 L-77.6 -10.05 Q-77.7 -12.35 -79.0 -14.05 L-79.25 -14.3 -79.5 -14.6 Q-80.95 -16.1 -82.85 -16.45 L-83.8 -16.55 -83.9 -16.55 -83.95 -16.55 Q-86.55 -16.65 -88.5 -14.85 L-89.05 -14.35 -89.65 -13.55 Q-90.5 -12.25 -90.4 -10.5 -90.2 -8.0 -88.3 -6.4 -86.75 -5.1 -84.65 -5.05 L-83.95 -5.05 Q-82.75 -5.1 -81.7 -5.65 L-80.9 -6.2 -80.5 -6.6 -80.4 -6.65 Q-79.0 -8.1 -79.3 -10.5 -79.5 -11.8 -80.2 -12.9 L-80.75 -13.65 -80.85 -13.75 Q-81.75 -14.6 -82.9 -14.9 L-84.15 -15.1 -84.2 -15.1 Q-86.15 -15.1 -87.45 -13.85 L-87.95 -13.25 -88.45 -12.35 -88.75 -10.75 Q-88.8 -8.75 -87.4 -7.6 -86.1 -6.55 -84.4 -6.5 L-84.15 -6.5 -82.9 -6.85 -82.05 -7.35 -81.65 -7.75 Q-80.9 -8.65 -80.95 -10.05 -81.0 -11.05 -81.3 -11.75 -82.0 -13.1 -83.8 -13.4 L-83.9 -13.4 Q-85.45 -13.35 -86.15 -12.75 L-86.7 -12.0 -86.9 -10.8 -86.9 -10.75 Q-86.85 -8.45 -84.3 -8.25 L-84.15 -8.25 -83.95 -8.25 -83.25 -8.55 Q-82.45 -9.15 -82.5 -10.05 L-82.55 -10.5 Q-82.8 -11.45 -83.75 -11.6 L-84.85 -11.4 -85.2 -10.5 -85.25 -10.4 -85.15 -10.05 -84.9 -9.95 -84.7 -10.0 -84.6 -10.05 -84.45 -10.3 -84.3 -10.75 -83.95 -10.8 -83.9 -10.8 Q-83.35 -10.7 -83.3 -10.05 L-83.4 -9.7 -83.9 -9.2" fill="#e2dbd4" fill-rule="evenodd" stroke="none"/>
  </g>
</svg>
