<?xml version="1.0" encoding="UTF-8" standalone="no"?>
<svg xmlns:ffdec="https://www.free-decompiler.com/flash" xmlns:xlink="http://www.w3.org/1999/xlink" ffdec:objectType="shape" height="129.0px" width="68.85px" xmlns="http://www.w3.org/2000/svg">
  <g transform="matrix(1.0, 0.0, 0.0, 1.0, 30.3, 130.15)">
    <path d="M6.9 -123.8 L6.95 -123.85 6.9 -123.8 M8.4 -124.65 L8.6 -124.8 9.15 -124.95 8.4 -124.65" fill="#f1b67a" fill-rule="evenodd" stroke="none"/>
    <path d="M-10.05 -126.95 L-10.2 -126.35 -10.0 -127.3 -9.95 -127.35 -10.05 -126.95 M12.3 -125.05 L12.35 -125.05 12.45 -125.0 12.3 -125.05" fill="#aa6a40" fill-rule="evenodd" stroke="none"/>
    <path d="M-10.05 -126.95 L-10.5 -124.95 -10.85 -123.55 -11.25 -121.85 -11.55 -120.7 -11.55 -120.65 -11.6 -120.55 Q-14.05 -111.35 -17.7 -102.8 L-16.4 -102.6 -16.0 -102.55 -15.65 -102.5 -15.6 -102.5 -11.55 -102.0 -10.1 -101.9 -6.25 -101.7 Q-5.95 -104.65 -3.5 -113.0 -1.7 -119.25 -0.3 -122.2 L0.95 -124.4 1.0 -124.45 1.4 -125.1 1.5 -125.25 2.4 -126.3 4.15 -128.2 7.6 -130.15 9.4 -130.05 9.5 -130.0 9.55 -130.0 9.6 -129.95 9.8 -129.7 12.35 -125.25 12.45 -125.0 12.35 -125.05 12.3 -125.05 10.5 -125.35 10.15 -125.3 9.15 -124.95 8.6 -124.8 8.4 -124.65 7.15 -124.0 7.15 -123.95 6.95 -123.85 6.9 -123.8 6.85 -123.75 Q5.45 -122.7 4.05 -119.7 2.9 -117.35 1.75 -113.75 L1.7 -113.75 Q-0.65 -106.6 -0.8 -101.6 L-0.65 -101.6 8.25 -101.85 9.55 -101.95 13.45 -102.35 14.3 -102.5 14.35 -102.5 18.15 -103.15 18.8 -103.3 18.9 -103.35 19.4 -103.55 19.55 -103.6 20.1 -103.95 20.35 -104.2 20.4 -104.25 20.4 -104.2 20.75 -102.65 20.8 -102.45 21.75 -96.9 22.4 -90.8 22.7 -87.4 22.85 -85.8 22.9 -85.2 23.05 -83.45 23.1 -82.75 23.15 -82.5 23.2 -81.8 23.2 -81.7 24.4 -67.85 24.85 -64.95 24.95 -64.3 25.0 -64.2 25.0 -64.15 25.0 -63.95 25.35 -61.9 25.95 -58.0 27.35 -49.5 27.7 -47.6 28.0 -45.8 28.15 -45.0 29.9 -36.55 30.35 -35.05 Q31.75 -29.8 33.65 -24.4 L35.0 -20.15 36.65 -14.25 37.05 -12.8 37.05 -12.75 37.35 -11.45 38.2 -7.4 38.5 -5.95 38.55 -5.75 37.05 -5.3 37.0 -5.35 36.85 -5.3 Q34.15 -4.35 30.95 -3.6 L30.5 -3.5 23.15 -2.25 18.3 -1.75 9.2 -1.2 9.15 -1.2 7.45 -1.15 7.25 -1.15 6.85 -1.15 5.5 -1.15 3.8 -1.2 2.7 -1.25 1.4 -1.3 0.15 -1.35 -2.85 -1.55 -3.65 -1.6 -4.55 -1.65 -4.8 -1.7 -16.95 -3.1 -17.25 -3.15 -18.45 -3.35 -19.05 -3.45 -26.0 -5.05 -27.1 -5.35 -28.15 -5.65 -28.2 -5.7 -29.8 -6.0 -29.75 -6.25 -29.5 -7.55 -28.25 -12.35 -28.1 -13.2 -27.85 -13.9 -27.9 -13.85 -27.7 -14.65 Q-26.1 -21.7 -24.25 -27.65 L-22.8 -33.15 -22.0 -36.55 -21.65 -38.5 -21.2 -41.75 -20.75 -45.0 -20.65 -46.05 -20.6 -46.35 -20.15 -50.7 -19.75 -56.7 -19.3 -63.9 -19.3 -63.95 -19.3 -64.2 -20.25 -64.7 -21.8 -65.6 -23.25 -66.65 Q-26.05 -68.8 -27.75 -71.5 -29.45 -74.25 -30.0 -77.55 -31.45 -85.85 -25.45 -97.65 L-24.85 -98.8 -24.25 -99.95 -22.9 -102.45 -22.8 -102.65 -21.6 -104.95 -13.25 -121.2 -10.25 -127.25 -9.75 -128.45 -9.85 -127.95 -9.95 -127.35 -10.0 -127.3 -10.2 -126.35 -10.05 -126.95 M4.65 -123.65 Q5.45 -124.9 7.15 -125.7 8.8 -126.45 10.05 -126.3 9.6 -128.65 8.6 -128.65 8.0 -128.65 6.3 -127.65 4.4 -126.5 3.35 -125.2 L-0.6 -118.05 -2.0 -114.35 Q-3.1 -111.15 -4.25 -106.1 L-4.75 -101.65 -2.3 -101.6 -1.75 -106.4 0.05 -113.35 Q0.85 -116.2 2.05 -118.95 L4.65 -123.65 M3.0 -100.15 L0.45 -100.1 -1.95 -100.1 -6.0 -100.2 -9.8 -100.35 -12.0 -100.5 -14.8 -100.85 -17.3 -101.2 -19.6 -101.6 -20.95 -101.2 Q-21.3 -101.55 -21.2 -102.15 L-21.25 -102.2 -23.4 -98.0 -18.7 -97.05 -17.35 -96.85 -15.6 -96.65 -13.05 -96.45 -10.4 -96.25 -6.1 -96.1 -1.85 -96.05 0.7 -96.05 3.0 -96.1 7.05 -96.25 10.5 -96.45 13.4 -96.75 Q19.35 -97.3 20.2 -98.0 L19.2 -101.85 14.9 -101.05 6.8 -100.25 3.0 -100.15 M14.65 -95.4 L12.1 -95.1 9.15 -94.85 8.05 -94.8 3.5 -94.6 -1.1 -94.55 -7.9 -94.6 -14.15 -95.1 -21.6 -96.05 -24.15 -96.75 -27.7 -87.35 Q-28.75 -83.95 -28.75 -80.85 -28.75 -73.3 -23.2 -68.4 -21.6 -67.0 -19.45 -65.7 L-17.7 -64.65 Q-17.7 -59.35 -19.75 -45.2 -22.75 -24.6 -27.95 -6.95 -24.35 -5.05 -9.2 -3.6 L9.35 -2.45 Q18.9 -2.45 36.7 -6.85 33.85 -15.85 30.85 -27.05 24.9 -49.35 23.4 -64.65 L20.25 -96.45 17.5 -95.7 14.65 -95.4 M-19.2 -103.1 L-18.85 -103.95 -16.15 -110.4 -12.9 -118.5 -20.6 -103.55 -19.2 -103.1" fill="#464646" fill-rule="evenodd" stroke="none"/>
    <path d="M7.45 -1.15 L9.15 -1.2 8.7 -1.15 7.95 -1.15 7.45 -1.15 M3.35 -125.2 Q4.4 -126.5 6.3 -127.65 8.0 -128.65 8.6 -128.65 9.6 -128.65 10.05 -126.3 8.8 -126.45 7.15 -125.7 5.45 -124.9 4.65 -123.65 L3.35 -125.2 M6.8 -100.25 L14.9 -101.05 19.2 -101.85 20.2 -98.0 Q19.35 -97.3 13.4 -96.75 L12.65 -100.7 9.8 -100.45 10.5 -96.45 7.05 -96.25 6.8 -100.25 M-10.4 -96.25 L-13.05 -96.45 -12.5 -98.4 -12.0 -100.5 -9.8 -100.35 -10.4 -96.25 M-15.6 -96.65 L-17.35 -96.85 -16.1 -101.0 -17.3 -101.2 -14.8 -100.85 -15.6 -96.65 M-18.7 -97.05 L-23.4 -98.0 -21.25 -102.2 -21.2 -102.15 Q-21.3 -101.55 -20.95 -101.2 L-19.6 -101.6 -17.3 -101.2 -18.7 -97.05 M19.0 -64.3 L17.9 -73.65 17.8 -74.5 16.45 -70.85 14.8 -67.35 14.35 -67.55 Q13.85 -67.9 13.7 -68.45 14.55 -71.2 15.3 -75.95 16.15 -81.65 15.95 -85.25 L15.7 -85.65 13.1 -81.3 11.2 -78.6 10.55 -79.2 10.1 -79.8 Q10.1 -80.7 11.65 -83.35 L13.85 -87.3 14.75 -89.3 Q15.15 -91.0 14.65 -95.4 L17.5 -95.7 20.25 -96.45 23.4 -64.65 Q24.9 -49.35 30.85 -27.05 33.85 -15.85 36.7 -6.85 18.9 -2.45 9.35 -2.45 L-9.2 -3.6 Q-24.35 -5.05 -27.95 -6.95 -22.75 -24.6 -19.75 -45.2 -17.7 -59.35 -17.7 -64.65 L-19.45 -65.7 Q-21.6 -67.0 -23.2 -68.4 -28.75 -73.3 -28.75 -80.85 -28.75 -83.95 -27.7 -87.35 L-24.15 -96.75 -21.6 -96.05 Q-22.55 -94.1 -24.25 -88.45 L-25.8 -82.95 Q-25.8 -76.3 -21.2 -74.4 -18.0 -73.1 -7.25 -73.1 L-3.3 -73.3 2.35 -74.5 Q2.95 -74.35 2.95 -72.75 2.95 -70.25 2.05 -68.9 0.3 -66.45 -6.35 -61.9 -6.6 -62.4 -7.2 -62.6 L-10.05 -63.0 -10.8 -62.95 -10.9 -61.55 -7.95 -61.3 Q-10.7 -60.85 -11.35 -60.25 L-12.1 -58.3 -12.8 -41.15 -8.4 -41.45 -6.1 -41.1 -5.2 -40.6 -11.4 -38.2 Q-16.95 -36.0 -17.65 -33.3 -17.55 -32.55 -17.25 -32.35 L-15.85 -32.1 -14.35 -32.55 -12.9 -33.05 -11.15 -32.45 -8.65 -31.15 -10.1 -30.25 Q-11.7 -29.6 -13.7 -29.9 L-16.05 -21.9 -19.95 -9.25 Q-15.35 -6.7 -1.2 -5.9 4.8 -5.55 14.5 -5.55 20.75 -5.55 24.25 -6.6 27.4 -7.55 31.55 -10.5 30.95 -10.85 29.95 -13.1 29.05 -15.3 28.65 -17.25 L28.4 -17.95 Q26.45 -22.2 24.9 -26.45 L20.9 -26.8 19.85 -27.3 Q22.85 -27.35 23.9 -28.05 25.4 -29.1 25.4 -32.55 L25.25 -34.75 22.85 -42.35 Q20.4 -41.6 18.4 -41.6 L18.15 -41.95 17.85 -42.8 Q18.2 -43.1 20.05 -44.05 21.95 -45.0 22.4 -45.05 21.3 -48.15 19.05 -64.2 L19.45 -64.2 Q20.3 -64.2 20.95 -64.65 L22.75 -66.1 Q23.1 -66.95 22.1 -66.95 21.8 -66.95 21.0 -66.35 L19.0 -64.3 M9.45 -63.5 L11.4 -63.55 Q11.75 -63.55 11.85 -63.35 L11.8 -62.1 8.8 -61.85 7.05 -62.2 Q6.6 -62.45 6.65 -62.75 L7.25 -63.25 8.55 -63.5 9.45 -63.5 M1.7 -61.5 Q1.7 -62.1 2.3 -62.5 2.85 -62.95 3.65 -62.95 L5.85 -62.9 5.8 -61.45 2.15 -61.45 1.7 -61.5 M13.4 -63.75 Q13.4 -64.2 14.05 -64.5 L15.5 -64.8 17.0 -64.5 Q17.6 -64.2 17.6 -63.75 17.6 -63.3 17.0 -63.0 L15.5 -62.7 14.05 -63.0 Q13.4 -63.3 13.4 -63.75 M-19.2 -103.1 L-20.6 -103.55 -12.9 -118.5 -16.15 -110.4 -18.85 -103.95 -19.2 -103.1 M-4.15 -62.6 L-2.55 -62.85 -0.95 -62.6 Q-0.3 -62.4 -0.3 -62.05 -0.3 -61.7 -0.95 -61.45 L-2.55 -61.25 -4.15 -61.45 -4.8 -62.05 -4.15 -62.6 M-18.9 -91.25 Q-18.45 -92.05 -17.75 -92.2 L-15.55 -92.45 Q-15.45 -92.15 -15.5 -91.65 L-15.55 -91.2 Q-18.4 -91.0 -18.9 -91.25 M-16.55 -63.9 L-17.05 -63.25 Q-16.5 -62.85 -14.8 -62.35 L-12.65 -61.85 -12.4 -62.65 -14.4 -63.75 -16.55 -63.9" fill="#8a8a8a" fill-rule="evenodd" stroke="none"/>
    <path d="M3.35 -125.2 L4.65 -123.65 2.05 -118.95 0.65 -118.65 -0.6 -118.05 3.35 -125.2 M-1.75 -106.4 L-2.3 -101.6 -4.75 -101.65 -4.25 -106.1 -1.75 -106.4 M3.0 -100.15 L6.8 -100.25 7.05 -96.25 3.0 -96.1 3.0 -100.15 M13.4 -96.75 L10.5 -96.45 9.8 -100.45 12.65 -100.7 13.4 -96.75 M0.7 -96.05 L-1.85 -96.05 -1.95 -100.1 0.45 -100.1 0.7 -96.05 M-6.1 -96.1 L-10.4 -96.25 -9.8 -100.35 -6.0 -100.2 -6.1 -96.1 M-13.05 -96.45 L-15.6 -96.65 -14.8 -100.85 -12.0 -100.5 -12.5 -98.4 -13.05 -96.45 M-17.35 -96.85 L-18.7 -97.05 -17.3 -101.2 -16.1 -101.0 -17.35 -96.85 M14.65 -95.4 Q15.15 -91.0 14.75 -89.3 L13.85 -87.3 11.65 -83.35 Q10.1 -80.7 10.1 -79.8 L10.55 -79.2 11.2 -78.6 13.1 -81.3 15.7 -85.65 15.95 -85.25 Q16.15 -81.65 15.3 -75.95 14.55 -71.2 13.7 -68.45 13.85 -67.9 14.35 -67.55 L14.8 -67.35 16.45 -70.85 17.8 -74.5 17.9 -73.65 19.0 -64.3 18.85 -64.25 19.05 -64.2 Q21.3 -48.15 22.4 -45.05 21.95 -45.0 20.05 -44.05 18.2 -43.1 17.85 -42.8 L18.15 -41.95 18.4 -41.6 Q20.4 -41.6 22.85 -42.35 L25.25 -34.75 25.4 -32.55 Q25.4 -29.1 23.9 -28.05 22.85 -27.35 19.85 -27.3 L20.9 -26.8 24.9 -26.45 Q26.45 -22.2 28.4 -17.95 L28.65 -17.25 Q29.05 -15.3 29.95 -13.1 30.95 -10.85 31.55 -10.5 27.4 -7.55 24.25 -6.6 20.75 -5.55 14.5 -5.55 4.8 -5.55 -1.2 -5.9 -15.35 -6.7 -19.95 -9.25 L-16.05 -21.9 -13.7 -29.9 Q-11.7 -29.6 -10.1 -30.25 L-8.65 -31.15 -11.15 -32.45 -12.9 -33.05 -14.35 -32.55 -15.85 -32.1 -17.25 -32.35 Q-17.55 -32.55 -17.65 -33.3 -16.95 -36.0 -11.4 -38.2 L-5.2 -40.6 -6.1 -41.1 -8.4 -41.45 -12.8 -41.15 -12.1 -58.3 -11.35 -60.25 Q-10.7 -60.85 -7.95 -61.3 L-6.9 -61.5 -6.35 -61.9 Q0.3 -66.45 2.05 -68.9 2.95 -70.25 2.95 -72.75 2.95 -74.35 2.35 -74.5 L-3.3 -73.3 -7.25 -73.1 Q-18.0 -73.1 -21.2 -74.4 -25.8 -76.3 -25.8 -82.95 L-24.25 -88.45 Q-22.55 -94.1 -21.6 -96.05 L-14.15 -95.1 -7.9 -94.6 -14.95 -94.35 -19.9 -94.0 -20.05 -93.95 Q-19.1 -93.5 -15.65 -92.85 L-7.65 -92.0 Q-4.05 -92.0 -3.05 -92.5 L-1.1 -94.55 3.5 -94.6 -1.25 -91.5 Q-2.2 -90.85 -6.3 -90.2 L-18.05 -88.65 Q-19.4 -88.15 -19.8 -86.8 -20.15 -85.6 -20.15 -82.25 -20.15 -78.95 -17.05 -77.9 L-9.85 -77.25 Q2.55 -77.25 6.7 -81.75 8.45 -83.65 9.75 -87.35 L12.1 -95.1 14.65 -95.4 M9.45 -63.5 L11.45 -68.5 13.1 -75.35 Q13.0 -76.7 12.0 -76.8 9.15 -73.8 7.4 -68.3 6.0 -63.9 3.65 -62.95 2.85 -62.95 2.3 -62.5 1.7 -62.1 1.7 -61.5 1.0 -60.7 -4.1 -57.05 -8.55 -53.9 -8.55 -53.05 -8.55 -48.25 -6.1 -46.5 -1.75 -44.35 2.05 -41.6 -4.7 -40.05 -8.55 -38.05 -11.15 -36.75 -11.15 -36.2 -11.15 -34.25 -6.7 -31.4 L-1.7 -28.55 Q-5.25 -28.0 -7.05 -27.1 -9.65 -25.8 -10.0 -23.3 -10.15 -22.25 -11.85 -16.9 -13.4 -12.0 -13.4 -10.45 -13.4 -7.8 9.85 -7.8 L22.45 -8.35 Q26.65 -9.15 26.65 -11.9 26.65 -14.95 20.4 -20.2 14.1 -25.5 14.1 -27.1 14.1 -29.2 17.55 -31.0 21.0 -32.8 21.0 -34.95 21.0 -37.2 17.4 -40.55 L11.05 -45.85 Q16.0 -46.7 17.5 -47.5 18.35 -47.95 18.35 -48.8 18.35 -52.6 17.7 -55.3 16.75 -59.35 14.55 -59.35 11.9 -59.35 10.0 -58.55 8.1 -57.75 7.2 -57.75 L8.8 -61.85 11.8 -62.1 11.85 -63.35 Q11.75 -63.55 11.4 -63.55 L9.45 -63.5 M13.4 -63.75 Q13.4 -63.3 14.05 -63.0 L15.5 -62.7 17.0 -63.0 Q17.6 -63.3 17.6 -63.75 17.6 -64.2 17.0 -64.5 L15.5 -64.8 14.05 -64.5 Q13.4 -64.2 13.4 -63.75 M-18.9 -91.25 Q-18.4 -91.0 -15.55 -91.2 L-15.5 -91.65 Q-15.45 -92.15 -15.55 -92.45 L-17.75 -92.2 Q-18.45 -92.05 -18.9 -91.25 M-4.15 -62.6 L-4.8 -62.05 -4.15 -61.45 -2.55 -61.25 -0.95 -61.45 Q-0.3 -61.7 -0.3 -62.05 -0.3 -62.4 -0.95 -62.6 L-2.55 -62.85 -4.15 -62.6" fill="#b4b4b4" fill-rule="evenodd" stroke="none"/>
    <path d="M2.05 -118.95 Q0.85 -116.2 0.05 -113.35 L-1.75 -106.4 -4.25 -106.1 Q-3.1 -111.15 -2.0 -114.35 L-0.6 -118.05 0.65 -118.65 2.05 -118.95 M0.45 -100.1 L3.0 -100.15 3.0 -96.1 0.7 -96.05 0.45 -100.1 M-1.85 -96.05 L-6.1 -96.1 -6.0 -100.2 -1.95 -100.1 -1.85 -96.05 M12.1 -95.1 L9.75 -87.35 Q8.45 -83.65 6.7 -81.75 2.55 -77.25 -9.85 -77.25 L-17.05 -77.9 Q-20.15 -78.95 -20.15 -82.25 -20.15 -85.6 -19.8 -86.8 -19.4 -88.15 -18.05 -88.65 L-6.3 -90.2 Q-2.2 -90.85 -1.25 -91.5 L3.5 -94.6 8.05 -94.8 -2.3 -88.35 Q-3.2 -87.85 -7.3 -87.6 L-15.1 -86.65 Q-17.8 -85.8 -17.8 -83.4 -17.8 -81.6 -16.65 -81.25 L-13.1 -81.1 Q-4.8 -81.1 -1.1 -82.55 6.2 -85.45 9.15 -94.85 L12.1 -95.1 M-1.1 -94.55 L-3.05 -92.5 Q-4.05 -92.0 -7.65 -92.0 L-15.65 -92.85 Q-19.1 -93.5 -20.05 -93.95 L-19.9 -94.0 -14.95 -94.35 -7.9 -94.6 -1.1 -94.55 M3.65 -62.95 Q6.0 -63.9 7.4 -68.3 9.15 -73.8 12.0 -76.8 13.0 -76.7 13.1 -75.35 L11.45 -68.5 9.45 -63.5 8.55 -63.5 7.25 -63.25 6.65 -62.75 Q6.6 -62.45 7.05 -62.2 L8.8 -61.85 7.2 -57.75 Q8.1 -57.75 10.0 -58.55 11.9 -59.35 14.55 -59.35 16.75 -59.35 17.7 -55.3 18.35 -52.6 18.35 -48.8 18.35 -47.95 17.5 -47.5 16.0 -46.7 11.05 -45.85 L17.4 -40.55 Q21.0 -37.2 21.0 -34.95 21.0 -32.8 17.55 -31.0 14.1 -29.2 14.1 -27.1 14.1 -25.5 20.4 -20.2 26.65 -14.95 26.65 -11.9 26.65 -9.15 22.45 -8.35 L9.85 -7.8 Q-13.4 -7.8 -13.4 -10.45 -13.4 -12.0 -11.85 -16.9 -10.15 -22.25 -10.0 -23.3 -9.65 -25.8 -7.05 -27.1 -5.25 -28.0 -1.7 -28.55 L-6.7 -31.4 Q-11.15 -34.25 -11.15 -36.2 -11.15 -36.75 -8.55 -38.05 -4.7 -40.05 2.05 -41.6 -1.75 -44.35 -6.1 -46.5 -8.55 -48.25 -8.55 -53.05 -8.55 -53.9 -4.1 -57.05 1.0 -60.7 1.7 -61.5 L2.15 -61.45 5.8 -61.45 5.85 -62.9 3.65 -62.95 M7.1 -39.8 Q8.4 -38.6 9.4 -38.55 L-1.2 -37.15 -7.2 -36.1 -7.05 -35.8 Q-5.7 -34.15 -1.5 -30.6 2.8 -26.9 5.5 -25.15 L4.4 -25.3 0.1 -24.45 Q-3.5 -23.55 -4.5 -23.0 -3.5 -22.4 -0.25 -21.5 L2.95 -20.7 13.95 -21.75 14.1 -23.3 Q14.1 -23.8 11.95 -26.95 L8.15 -32.4 Q12.65 -33.2 14.6 -34.6 15.8 -35.5 15.8 -36.4 15.8 -38.45 13.0 -40.6 9.95 -42.95 4.5 -44.55 5.15 -41.6 7.1 -39.8 M9.65 -53.95 Q7.2 -55.25 4.0 -55.65 -4.3 -56.75 -4.3 -51.75 -4.3 -50.45 -3.2 -50.0 -1.85 -49.45 2.4 -49.45 12.25 -49.45 12.25 -51.15 12.25 -52.6 9.65 -53.95 M4.8 -15.55 Q-3.2 -15.8 -8.65 -15.65 -8.65 -15.4 -9.05 -15.05 L-9.45 -14.7 Q-6.65 -11.65 -1.85 -10.8 L11.6 -10.3 Q23.25 -10.85 23.25 -14.6 23.25 -15.65 22.05 -16.3 20.75 -17.0 18.3 -17.0 L9.55 -16.25 4.8 -15.55" fill="#e0e0e0" fill-rule="evenodd" stroke="none"/>
    <path d="M8.05 -94.8 L9.15 -94.85 Q6.2 -85.45 -1.1 -82.55 -4.8 -81.1 -13.1 -81.1 L-16.65 -81.25 Q-17.8 -81.6 -17.8 -83.4 -17.8 -85.8 -15.1 -86.65 L-7.3 -87.6 Q-3.2 -87.85 -2.3 -88.35 L8.05 -94.8 M9.65 -53.95 Q12.25 -52.6 12.25 -51.15 12.25 -49.45 2.4 -49.45 -1.85 -49.45 -3.2 -50.0 -4.3 -50.45 -4.3 -51.75 -4.3 -56.75 4.0 -55.65 7.2 -55.25 9.65 -53.95 M7.1 -39.8 Q5.15 -41.6 4.5 -44.55 9.95 -42.95 13.0 -40.6 15.8 -38.45 15.8 -36.4 15.8 -35.5 14.6 -34.6 12.65 -33.2 8.15 -32.4 L11.95 -26.95 Q14.1 -23.8 14.1 -23.3 L13.95 -21.75 2.95 -20.7 -0.25 -21.5 Q-3.5 -22.4 -4.5 -23.0 -3.5 -23.55 0.1 -24.45 L4.4 -25.3 5.5 -25.15 Q2.8 -26.9 -1.5 -30.6 -5.7 -34.15 -7.05 -35.8 L-7.2 -36.1 -1.2 -37.15 9.4 -38.55 Q8.4 -38.6 7.1 -39.8 M4.8 -15.55 L9.55 -16.25 18.3 -17.0 Q20.75 -17.0 22.05 -16.3 23.25 -15.65 23.25 -14.6 23.25 -10.85 11.6 -10.3 L-1.85 -10.8 Q-6.65 -11.65 -9.45 -14.7 L-9.05 -15.05 Q-8.65 -15.4 -8.65 -15.65 -3.2 -15.8 4.8 -15.55" fill="#ffffff" fill-rule="evenodd" stroke="none"/>
    <path d="M-6.35 -61.9 L-6.9 -61.5 -7.95 -61.3 -10.9 -61.55 -10.8 -62.95 -10.05 -63.0 -7.2 -62.6 Q-6.6 -62.4 -6.35 -61.9 M19.05 -64.2 L18.85 -64.25 19.0 -64.3 21.0 -66.35 Q21.8 -66.95 22.1 -66.95 23.1 -66.95 22.75 -66.1 L20.95 -64.65 Q20.3 -64.2 19.45 -64.2 L19.05 -64.2 M-16.55 -63.9 L-14.4 -63.75 -12.4 -62.65 -12.65 -61.85 -14.8 -62.35 Q-16.5 -62.85 -17.05 -63.25 L-16.55 -63.9" fill="#616161" fill-rule="evenodd" stroke="none"/>
  </g>
</svg>
