<?xml version="1.0" encoding="UTF-8" standalone="no"?>
<svg xmlns:ffdec="https://www.free-decompiler.com/flash" xmlns:xlink="http://www.w3.org/1999/xlink" ffdec:objectType="shape" height="99.15px" width="99.1px" xmlns="http://www.w3.org/2000/svg">
  <g transform="matrix(1.0, 0.0, 0.0, 1.0, 75.65, 99.4)">
    <path d="M0.0 -88.25 L7.3 -95.6 7.55 -96.05 8.25 -96.85 Q10.9 -99.4 14.6 -99.4 L15.1 -99.4 16.85 -99.15 16.0 -98.3 14.6 -98.4 14.1 -98.35 Q11.1 -98.2 8.95 -96.15 L8.35 -95.45 8.15 -95.1 8.05 -95.0 2.05 -89.0 0.0 -88.25 M11.45 -74.75 L1.25 -64.6 2.5 -67.2 12.65 -77.35 11.45 -74.75 M-8.9 -54.4 L-19.05 -44.25 Q-18.3 -45.55 -17.85 -46.85 L-7.7 -57.05 Q-8.15 -55.7 -8.9 -54.4 M-29.25 -34.05 L-39.4 -23.9 -38.2 -26.5 -28.05 -36.65 Q-28.5 -35.35 -29.25 -34.05 M-49.55 -13.75 L-59.75 -3.55 -58.55 -6.15 -48.35 -16.35 -49.55 -13.75 M-61.15 -27.2 L-56.05 -32.25 -56.1 -32.25 -51.0 -37.35 -48.8 -38.15 -59.0 -27.95 -61.15 -27.2 M-40.75 -47.55 L-35.7 -52.6 -30.6 -57.7 -30.55 -57.75 -28.45 -58.5 -34.3 -52.65 -35.85 -51.05 -35.9 -51.05 -38.65 -48.3 -40.75 -47.55 M-20.45 -67.85 L-10.2 -78.1 -8.1 -78.8 -18.25 -68.65 -18.3 -68.65 -20.45 -67.85 M-67.6 -10.15 L-67.95 -9.55 -68.0 -9.3 -67.9 -9.0 Q-67.8 -8.9 -67.65 -8.9 L-67.35 -8.95 -67.25 -9.25 -67.1 -9.65 -66.8 -9.65 -66.75 -9.65 Q-66.3 -9.55 -66.25 -8.95 -66.3 -8.55 -66.65 -8.25 L-67.05 -8.1 -67.35 -8.15 Q-68.65 -8.4 -68.7 -9.65 L-68.65 -10.25 -68.3 -10.8 -67.85 -11.05 -66.8 -11.2 Q-64.95 -10.95 -64.85 -8.95 L-64.9 -8.4 Q-65.05 -7.65 -65.6 -7.2 -65.95 -6.9 -66.5 -6.75 L-67.1 -6.6 -67.35 -6.6 Q-68.5 -6.65 -69.4 -7.4 -70.4 -8.2 -70.35 -9.6 L-70.25 -10.45 -69.8 -11.4 -69.4 -11.85 -69.2 -12.0 Q-68.3 -12.75 -66.95 -12.75 L-66.75 -12.75 Q-65.5 -12.65 -64.6 -11.75 -63.75 -10.95 -63.45 -9.8 L-63.4 -9.3 -63.4 -9.25 Q-63.2 -7.5 -64.25 -6.45 L-64.55 -6.15 -65.35 -5.6 -66.85 -5.3 -67.35 -5.25 Q-69.0 -5.3 -70.2 -6.3 -71.65 -7.5 -71.8 -9.45 L-71.75 -10.55 -71.45 -11.35 -71.35 -11.55 -70.75 -12.35 -70.4 -12.7 -68.45 -13.8 -66.8 -14.05 -65.6 -13.85 Q-64.35 -13.55 -63.4 -12.55 -62.7 -11.85 -62.3 -10.95 -61.95 -10.05 -61.9 -8.95 -61.85 -6.95 -63.2 -5.4 L-63.45 -5.1 -64.3 -4.55 Q-65.4 -3.9 -66.95 -3.95 L-67.5 -3.95 Q-69.6 -4.15 -71.3 -5.5 -72.35 -6.35 -72.85 -7.45 L-73.2 -9.05 -73.25 -9.45 Q-73.3 -11.2 -72.4 -12.6 L-71.8 -13.4 -71.55 -13.7 Q-70.5 -14.8 -69.0 -15.25 L-67.0 -15.55 -66.75 -15.55 -64.4 -15.05 -62.35 -13.6 -61.2 -12.1 Q-60.45 -10.7 -60.4 -9.05 -60.4 -8.3 -60.55 -7.55 -60.9 -5.8 -62.15 -4.3 L-62.4 -4.05 -63.15 -3.4 Q-64.8 -2.35 -67.05 -2.4 L-68.0 -2.45 Q-70.6 -2.8 -72.45 -4.5 L-72.5 -4.55 -72.7 -4.75 -72.7 -4.7 Q-74.05 -6.05 -74.45 -7.8 L-74.65 -9.65 Q-74.65 -11.8 -73.55 -13.55 L-73.5 -13.7 -73.4 -13.85 -72.85 -14.5 -72.65 -14.75 -71.7 -15.5 -71.0 -15.95 Q-69.35 -16.95 -67.25 -17.05 L-66.9 -17.05 -65.35 -16.9 Q-64.25 -16.7 -63.25 -16.2 L-61.25 -14.75 -60.05 -13.25 Q-58.95 -11.45 -58.9 -9.2 L-58.9 -9.0 Q-58.9 -6.45 -60.25 -4.5 L-61.25 -3.3 -62.2 -2.45 Q-64.2 -0.95 -66.9 -0.95 L-68.95 -1.2 Q-70.7 -1.65 -72.1 -2.8 L-72.65 -3.3 -73.9 -5.0 -72.9 -3.95 -72.35 -3.5 -71.45 -2.9 Q-70.05 -2.1 -68.4 -1.8 L-67.1 -1.7 Q-64.45 -1.6 -62.65 -2.9 L-61.9 -3.55 -61.6 -3.85 Q-59.85 -5.85 -59.7 -8.35 L-59.7 -9.05 Q-59.7 -11.05 -60.65 -12.6 L-61.85 -14.1 Q-62.8 -15.05 -63.9 -15.6 L-66.1 -16.2 -67.0 -16.25 -68.1 -16.15 Q-70.45 -15.9 -72.05 -14.25 L-72.35 -13.95 -72.95 -13.15 Q-74.0 -11.5 -73.95 -9.45 L-73.95 -9.4 -73.85 -8.4 Q-73.65 -7.1 -72.85 -6.05 L-72.35 -5.45 -71.7 -4.9 Q-69.85 -3.5 -67.65 -3.25 L-66.95 -3.2 Q-65.1 -3.15 -63.75 -4.0 L-62.95 -4.6 -62.65 -4.9 -61.65 -6.4 Q-61.15 -7.6 -61.15 -9.0 -61.2 -10.35 -61.8 -11.5 -62.2 -12.35 -62.9 -13.05 -63.85 -14.05 -65.0 -14.45 L-66.75 -14.75 -66.8 -14.75 -67.55 -14.7 Q-69.4 -14.6 -70.85 -13.25 L-71.25 -12.85 -71.85 -12.05 Q-72.5 -11.05 -72.5 -9.8 L-72.5 -9.4 -72.5 -9.3 Q-72.3 -7.1 -70.65 -5.75 -69.25 -4.55 -67.4 -4.5 L-66.85 -4.55 Q-65.75 -4.6 -64.8 -5.05 L-64.0 -5.65 -63.75 -5.95 Q-62.4 -7.2 -62.7 -9.35 L-62.9 -10.35 Q-63.25 -11.45 -64.05 -12.25 -64.95 -13.15 -66.1 -13.35 L-66.95 -13.45 Q-68.75 -13.45 -69.9 -12.35 L-70.1 -12.1 -70.15 -12.1 -70.25 -11.9 -70.3 -11.9 -70.8 -11.0 -71.05 -9.6 Q-71.1 -7.85 -69.85 -6.85 -68.8 -5.9 -67.35 -5.85 L-67.0 -5.85 -66.95 -5.85 Q-66.35 -5.95 -65.9 -6.15 L-65.05 -6.65 Q-64.1 -7.45 -64.15 -8.95 L-64.15 -9.15 Q-64.3 -11.6 -66.7 -11.95 L-66.75 -11.95 -67.65 -11.85 -68.35 -11.6 -68.8 -11.35 -69.2 -10.8 Q-69.5 -10.35 -69.45 -9.65 -69.35 -7.7 -67.35 -7.45 L-67.15 -7.4 -66.95 -7.4 -66.85 -7.4 Q-66.45 -7.55 -66.15 -7.75 -65.5 -8.25 -65.5 -9.0 -65.55 -10.2 -66.65 -10.4 L-67.5 -10.2 -67.6 -10.15" fill="#a39c96" fill-rule="evenodd" stroke="none"/>
    <path d="M2.05 -89.0 L8.05 -95.0 8.15 -95.1 8.35 -95.45 8.95 -96.15 Q11.1 -98.2 14.1 -98.35 L5.15 -89.4 4.15 -89.35 3.7 -89.3 2.05 -89.0 M13.3 -81.4 L13.2 -79.8 13.0 -78.7 12.65 -77.35 2.5 -67.2 3.05 -69.65 3.15 -71.25 13.3 -81.4 M-8.1 -78.8 L-6.45 -79.15 -5.0 -79.25 -15.15 -69.1 -16.6 -69.0 -18.25 -68.65 -8.1 -78.8 M-7.3 -58.5 L-7.7 -57.05 -17.85 -46.85 Q-17.45 -48.05 -17.3 -49.3 L-17.2 -50.9 -7.05 -61.05 -7.15 -59.45 -7.3 -58.5 M-28.45 -58.5 L-26.8 -58.8 -25.35 -58.9 -35.5 -48.75 -36.95 -48.65 -38.65 -48.3 -35.9 -51.05 -35.85 -51.05 -34.3 -52.65 -28.45 -58.5 M-48.8 -38.15 L-47.1 -38.5 -45.65 -38.6 -52.45 -31.85 -52.4 -31.85 -53.1 -31.2 -55.05 -29.2 -55.85 -28.4 -57.3 -28.3 -59.0 -27.95 -48.8 -38.15 M-27.35 -40.7 L-27.5 -39.1 -28.05 -36.65 -38.2 -26.5 -37.65 -28.95 -37.55 -30.55 -27.35 -40.7 M-47.7 -20.4 L-47.8 -18.8 Q-47.95 -17.55 -48.35 -16.35 L-58.55 -6.15 -58.0 -8.6 -57.95 -8.75 -57.9 -10.2 -47.7 -20.4" fill="#e3ddd6" fill-rule="evenodd" stroke="none"/>
    <path d="M14.1 -98.35 L14.6 -98.4 16.0 -98.3 8.8 -91.1 7.05 -89.3 8.8 -88.8 9.15 -88.65 -1.05 -78.4 -2.45 -78.95 -3.15 -79.1 6.1 -88.4 7.05 -89.3 5.15 -89.4 14.1 -98.35 M12.3 -85.6 Q13.3 -83.8 13.3 -81.4 L3.15 -71.25 Q3.15 -73.6 2.15 -75.4 L12.3 -85.6 M-8.05 -65.25 L-7.4 -63.7 Q-7.05 -62.5 -7.05 -61.05 L-17.2 -50.9 Q-17.2 -53.25 -18.2 -55.05 L-8.05 -65.25 M-5.0 -79.25 L-3.15 -79.1 -10.25 -72.0 -12.65 -69.65 -13.3 -68.95 -15.15 -69.1 -5.0 -79.25 M-23.15 -59.1 L-18.3 -64.0 -13.3 -68.95 Q-12.2 -68.8 -11.2 -68.25 L-21.4 -58.05 -23.2 -58.7 -23.5 -58.75 -33.65 -48.6 -35.5 -48.75 -25.35 -58.9 -23.5 -58.75 -23.15 -59.1 M-55.85 -28.4 L-55.05 -29.2 -53.1 -31.2 -52.4 -31.85 -52.45 -31.85 -45.65 -38.6 -45.55 -38.6 -43.8 -38.45 -45.9 -36.4 -51.2 -31.05 -54.0 -28.25 Q-52.9 -28.1 -51.9 -27.55 L-62.05 -17.4 Q-63.05 -17.95 -64.15 -18.1 L-62.95 -19.35 -58.8 -23.45 -54.25 -28.05 -54.0 -28.25 -54.5 -28.35 -55.85 -28.4 M-38.1 -44.2 L-33.65 -48.6 Q-32.55 -48.45 -31.55 -47.9 L-41.7 -37.75 Q-42.7 -38.3 -43.8 -38.45 L-38.1 -44.2 M-38.55 -34.75 L-28.35 -44.9 -27.85 -43.8 Q-27.35 -42.4 -27.35 -40.7 L-37.55 -30.55 Q-37.55 -32.95 -38.55 -34.75 M-47.95 -22.75 Q-47.7 -21.65 -47.7 -20.4 L-57.9 -10.2 -57.95 -11.3 Q-58.15 -13.0 -58.9 -14.4 L-48.7 -24.55 -47.95 -22.75" fill="#f4efe9" fill-rule="evenodd" stroke="none"/>
    <path d="M-1.05 -78.4 L9.15 -88.65 11.1 -87.2 12.3 -85.6 2.15 -75.4 1.5 -76.3 0.9 -77.0 -1.05 -78.4 M-21.4 -58.05 L-11.2 -68.25 Q-10.15 -67.75 -9.25 -66.85 L-8.05 -65.25 -18.2 -55.05 -18.8 -55.95 -19.45 -56.65 -21.4 -58.05 M-31.55 -47.9 Q-30.5 -47.4 -29.6 -46.5 L-28.35 -44.9 -38.55 -34.75 -39.75 -36.35 -40.4 -36.95 -41.7 -37.75 -31.55 -47.9 M-51.9 -27.55 Q-50.85 -27.05 -49.95 -26.15 L-48.7 -24.55 -58.9 -14.4 -60.1 -16.0 Q-61.0 -16.9 -62.05 -17.4 L-51.9 -27.55" fill="#fcf7f1" fill-rule="evenodd" stroke="none"/>
    <path d="M18.35 -91.6 L12.3 -85.6 11.1 -87.2 9.15 -88.65 15.95 -95.45 Q15.5 -94.7 15.5 -93.65 15.5 -93.1 15.65 -92.7 15.8 -92.25 16.25 -92.0 L16.5 -91.9 18.35 -91.6 M18.9 -97.15 L18.1 -97.0 17.0 -96.45 18.15 -97.6 18.9 -97.15 M-2.5 -77.0 L-2.15 -76.45 Q-1.6 -76.05 -0.25 -76.05 L1.5 -76.3 2.15 -75.4 -8.05 -65.25 -9.25 -66.85 Q-10.15 -67.75 -11.2 -68.25 L-2.5 -77.0 M-18.8 -55.95 L-18.2 -55.05 -24.25 -49.05 Q-25.0 -49.65 -26.05 -50.0 L-28.6 -49.85 Q-29.8 -49.15 -29.8 -47.55 L-29.6 -46.5 Q-30.5 -47.4 -31.55 -47.9 L-22.95 -56.55 Q-22.4 -54.85 -20.55 -54.85 -19.6 -54.85 -18.8 -55.95 M-40.4 -36.95 L-39.75 -36.35 -38.55 -34.75 -47.35 -25.9 Q-47.85 -27.95 -49.7 -29.75 L-44.7 -34.8 -44.15 -34.75 Q-42.1 -34.75 -40.4 -36.95 M-62.7 -16.75 L-62.05 -17.4 Q-61.0 -16.9 -60.1 -16.0 L-58.9 -14.4 -59.5 -13.75 -60.75 -15.25 -62.7 -16.75" fill="#f3475a" fill-rule="evenodd" stroke="none"/>
    <path d="M0.0 -88.25 L2.05 -89.0 -8.1 -78.8 -10.2 -78.1 -5.15 -83.15 -0.05 -88.25 0.0 -88.25 M16.0 -98.3 L16.85 -99.15 18.85 -98.35 20.3 -97.35 20.85 -96.85 22.05 -95.35 22.3 -94.95 23.0 -93.45 23.4 -91.5 23.45 -90.5 23.45 -89.9 Q23.25 -86.65 20.85 -84.2 L20.2 -83.55 11.45 -74.75 12.65 -77.35 17.45 -82.2 19.5 -84.25 20.15 -84.9 Q21.8 -86.6 22.3 -88.75 L22.45 -90.5 22.45 -90.55 22.25 -92.3 Q22.0 -93.55 21.35 -94.6 L20.15 -96.15 20.1 -96.2 20.05 -96.25 19.5 -96.75 18.9 -97.15 18.15 -97.6 Q17.15 -98.1 16.0 -98.3 M1.25 -64.6 L-8.9 -54.4 Q-8.15 -55.7 -7.7 -57.05 L2.5 -67.2 1.25 -64.6 M-19.05 -44.25 L-29.25 -34.05 Q-28.5 -35.35 -28.05 -36.65 L-17.85 -46.85 Q-18.3 -45.55 -19.05 -44.25 M-39.4 -23.9 L-49.55 -13.75 -48.35 -16.35 -38.2 -26.5 -39.4 -23.9 M-59.75 -3.55 L-61.2 -2.15 Q-61.35 -2.0 -61.55 -2.0 L-61.65 -2.0 Q-63.9 -0.25 -66.9 -0.25 -70.55 -0.25 -73.15 -2.8 -74.9 -4.6 -75.4 -6.85 L-75.65 -9.0 Q-75.65 -12.0 -73.95 -14.3 L-73.9 -14.35 -73.75 -14.65 -67.6 -20.75 -66.3 -22.05 -64.25 -24.1 -63.7 -24.65 -63.15 -25.25 -63.1 -25.25 -61.15 -27.2 -59.0 -27.95 -61.85 -25.1 -62.45 -24.45 -63.1 -23.85 -64.1 -22.85 -66.8 -20.15 -69.6 -17.35 -66.9 -17.8 -66.5 -17.8 -64.75 -17.55 -62.7 -16.75 -60.75 -15.25 -59.5 -13.75 Q-58.4 -12.05 -58.2 -9.9 L-58.15 -9.0 Q-58.15 -7.5 -58.6 -6.1 L-58.55 -6.15 -59.75 -3.55 M-51.0 -37.35 L-40.8 -47.55 -40.75 -47.55 -38.65 -48.3 -48.8 -38.15 -51.0 -37.35 M-30.55 -57.75 L-25.5 -62.8 -25.55 -62.8 -20.45 -67.85 -18.3 -68.65 -23.4 -63.55 -23.35 -63.55 -28.45 -58.5 -30.55 -57.75 M-67.6 -10.15 L-67.5 -10.2 -66.65 -10.4 Q-65.55 -10.2 -65.5 -9.0 -65.5 -8.25 -66.15 -7.75 -66.45 -7.55 -66.85 -7.4 L-66.95 -7.4 -67.15 -7.4 -67.35 -7.45 Q-69.35 -7.7 -69.45 -9.65 -69.5 -10.35 -69.2 -10.8 L-68.8 -11.35 -68.35 -11.6 -67.65 -11.85 -66.75 -11.95 -66.7 -11.95 Q-64.3 -11.6 -64.15 -9.15 L-64.15 -8.95 Q-64.1 -7.45 -65.05 -6.65 L-65.9 -6.15 Q-66.35 -5.95 -66.95 -5.85 L-67.0 -5.85 -67.35 -5.85 Q-68.8 -5.9 -69.85 -6.85 -71.1 -7.85 -71.05 -9.6 L-70.8 -11.0 -70.3 -11.9 -70.25 -11.9 -70.15 -12.1 -70.1 -12.1 -69.9 -12.35 Q-68.75 -13.45 -66.95 -13.45 L-66.1 -13.35 Q-64.95 -13.15 -64.05 -12.25 -63.25 -11.45 -62.9 -10.35 L-62.7 -9.35 Q-62.4 -7.2 -63.75 -5.95 L-64.0 -5.65 -64.8 -5.05 Q-65.75 -4.6 -66.85 -4.55 L-67.4 -4.5 Q-69.25 -4.55 -70.65 -5.75 -72.3 -7.1 -72.5 -9.3 L-72.5 -9.4 -72.5 -9.8 Q-72.5 -11.05 -71.85 -12.05 L-71.25 -12.85 -70.85 -13.25 Q-69.4 -14.6 -67.55 -14.7 L-66.8 -14.75 -66.75 -14.75 -65.0 -14.45 Q-63.85 -14.05 -62.9 -13.05 -62.2 -12.35 -61.8 -11.5 -61.2 -10.35 -61.15 -9.0 -61.15 -7.6 -61.65 -6.4 L-62.65 -4.9 -62.95 -4.6 -63.75 -4.0 Q-65.1 -3.15 -66.95 -3.2 L-67.65 -3.25 Q-69.85 -3.5 -71.7 -4.9 L-72.35 -5.45 -72.85 -6.05 Q-73.65 -7.1 -73.85 -8.4 L-73.95 -9.4 -73.95 -9.45 Q-74.0 -11.5 -72.95 -13.15 L-72.35 -13.95 -72.05 -14.25 Q-70.45 -15.9 -68.1 -16.15 L-67.0 -16.25 -66.1 -16.2 -63.9 -15.6 Q-62.8 -15.05 -61.85 -14.1 L-60.65 -12.6 Q-59.7 -11.05 -59.7 -9.05 L-59.7 -8.35 Q-59.85 -5.85 -61.6 -3.85 L-61.9 -3.55 -62.65 -2.9 Q-64.45 -1.6 -67.1 -1.7 L-68.4 -1.8 Q-70.05 -2.1 -71.45 -2.9 L-72.35 -3.5 -72.9 -3.95 -73.9 -5.0 -72.65 -3.3 -72.1 -2.8 Q-70.7 -1.65 -68.95 -1.2 L-66.9 -0.95 Q-64.2 -0.95 -62.2 -2.45 L-61.25 -3.3 -60.25 -4.5 Q-58.9 -6.45 -58.9 -9.0 L-58.9 -9.2 Q-58.95 -11.45 -60.05 -13.25 L-61.25 -14.75 -63.25 -16.2 Q-64.25 -16.7 -65.35 -16.9 L-66.9 -17.05 -67.25 -17.05 Q-69.35 -16.95 -71.0 -15.95 L-71.7 -15.5 -72.65 -14.75 -72.85 -14.5 -73.4 -13.85 -73.5 -13.7 -73.55 -13.55 Q-74.65 -11.8 -74.65 -9.65 L-74.45 -7.8 Q-74.05 -6.05 -72.7 -4.7 L-72.7 -4.75 -72.5 -4.55 -72.45 -4.5 Q-70.6 -2.8 -68.0 -2.45 L-67.05 -2.4 Q-64.8 -2.35 -63.15 -3.4 L-62.4 -4.05 -62.15 -4.3 Q-60.9 -5.8 -60.55 -7.55 -60.4 -8.3 -60.4 -9.05 -60.45 -10.7 -61.2 -12.1 L-62.35 -13.6 -64.4 -15.05 -66.75 -15.55 -67.0 -15.55 -69.0 -15.25 Q-70.5 -14.8 -71.55 -13.7 L-71.8 -13.4 -72.4 -12.6 Q-73.3 -11.2 -73.25 -9.45 L-73.2 -9.05 -72.85 -7.45 Q-72.35 -6.35 -71.3 -5.5 -69.6 -4.15 -67.5 -3.95 L-66.95 -3.95 Q-65.4 -3.9 -64.3 -4.55 L-63.45 -5.1 -63.2 -5.4 Q-61.85 -6.95 -61.9 -8.95 -61.95 -10.05 -62.3 -10.95 -62.7 -11.85 -63.4 -12.55 -64.35 -13.55 -65.6 -13.85 L-66.8 -14.05 -68.45 -13.8 -70.4 -12.7 -70.75 -12.35 -71.35 -11.55 -71.45 -11.35 -71.75 -10.55 -71.8 -9.45 Q-71.65 -7.5 -70.2 -6.3 -69.0 -5.3 -67.35 -5.25 L-66.85 -5.3 -65.35 -5.6 -64.55 -6.15 -64.25 -6.45 Q-63.2 -7.5 -63.4 -9.25 L-63.4 -9.3 -63.45 -9.8 Q-63.75 -10.95 -64.6 -11.75 -65.5 -12.65 -66.75 -12.75 L-66.95 -12.75 Q-68.3 -12.75 -69.2 -12.0 L-69.4 -11.85 -69.8 -11.4 -70.25 -10.45 -70.35 -9.6 Q-70.4 -8.2 -69.4 -7.4 -68.5 -6.65 -67.35 -6.6 L-67.1 -6.6 -66.5 -6.75 Q-65.95 -6.9 -65.6 -7.2 -65.05 -7.65 -64.9 -8.4 L-64.85 -8.95 Q-64.95 -10.95 -66.8 -11.2 L-67.85 -11.05 -68.3 -10.8 -68.65 -10.25 -68.7 -9.65 Q-68.65 -8.4 -67.35 -8.15 L-67.05 -8.1 -66.65 -8.25 Q-66.3 -8.55 -66.25 -8.95 -66.3 -9.55 -66.75 -9.65 L-66.8 -9.65 -67.1 -9.65 -67.25 -9.25 -67.35 -8.95 -67.65 -8.9 Q-67.8 -8.9 -67.9 -9.0 L-68.0 -9.3 -67.95 -9.55 -67.6 -10.15" fill="#b22031" fill-rule="evenodd" stroke="none"/>
    <path d="M17.0 -96.45 L18.1 -97.0 18.9 -97.15 19.5 -96.75 20.05 -96.25 20.1 -96.2 20.15 -96.15 21.35 -94.6 18.35 -91.6 16.5 -91.9 16.25 -92.0 Q15.8 -92.25 15.65 -92.7 15.5 -93.1 15.5 -93.65 15.5 -94.7 15.95 -95.45 L17.0 -96.45 M-1.05 -78.4 L0.9 -77.0 1.5 -76.3 -0.25 -76.05 Q-1.6 -76.05 -2.15 -76.45 L-2.5 -77.0 -1.05 -78.4 M-22.95 -56.55 L-21.4 -58.05 -19.45 -56.65 -18.8 -55.95 Q-19.6 -54.85 -20.55 -54.85 -22.4 -54.85 -22.95 -56.55 M-29.6 -46.5 L-29.8 -47.55 Q-29.8 -49.15 -28.6 -49.85 L-26.05 -50.0 Q-25.0 -49.65 -24.25 -49.05 L-28.35 -44.9 -29.6 -46.5 M-41.7 -37.75 L-40.4 -36.95 Q-42.1 -34.75 -44.15 -34.75 L-44.7 -34.8 -41.7 -37.75 M-49.7 -29.75 Q-47.85 -27.95 -47.35 -25.9 L-48.7 -24.55 -49.95 -26.15 Q-50.85 -27.05 -51.9 -27.55 L-49.7 -29.75" fill="#ef4256" fill-rule="evenodd" stroke="none"/>
    <path d="M22.25 -92.3 L22.45 -90.55 13.3 -81.4 Q13.3 -83.8 12.3 -85.6 L18.35 -91.6 19.2 -91.6 Q21.0 -91.6 22.25 -92.3 M18.15 -97.6 L17.0 -96.45 15.95 -95.45 9.15 -88.65 8.8 -88.8 Q9.2 -89.3 9.2 -90.2 L8.8 -91.1 16.0 -98.3 Q17.15 -98.1 18.15 -97.6 M-5.0 -79.25 L4.7 -88.95 Q5.35 -88.6 6.1 -88.4 L-3.15 -79.1 -2.45 -78.95 -2.6 -77.75 -2.5 -77.0 -11.2 -68.25 Q-12.2 -68.8 -13.3 -68.95 L-18.3 -64.0 -18.45 -64.05 -19.4 -64.1 -19.75 -64.0 -20.1 -63.9 -20.7 -63.6 -15.15 -69.1 -13.3 -68.95 -12.65 -69.65 -11.05 -69.85 Q-10.05 -70.15 -10.05 -71.2 L-10.25 -72.0 -3.15 -79.1 -5.0 -79.25 M2.15 -75.4 Q3.15 -73.6 3.15 -71.25 L-2.55 -65.55 -2.6 -65.7 -2.7 -66.05 -2.9 -66.1 -3.7 -66.15 Q-5.2 -66.15 -7.25 -63.9 L-7.4 -63.7 -8.05 -65.25 2.15 -75.4 M-25.35 -58.9 L-22.4 -61.9 Q-23.05 -60.75 -23.15 -59.1 L-23.5 -58.75 -25.35 -58.9 M-23.5 -58.75 L-23.2 -58.7 -23.2 -58.3 -22.95 -56.55 -31.55 -47.9 Q-32.55 -48.45 -33.65 -48.6 L-38.1 -44.2 Q-38.4 -44.55 -39.05 -44.55 L-39.85 -44.45 -35.5 -48.75 -33.65 -48.6 -23.5 -58.75 M-24.25 -49.05 L-18.2 -55.05 Q-17.2 -53.25 -17.2 -50.9 L-22.4 -45.65 Q-22.8 -47.85 -24.25 -49.05 M-45.65 -38.6 L-45.55 -38.75 -45.55 -38.7 -45.55 -38.6 -45.65 -38.6 M-27.85 -43.8 Q-26.9 -42.8 -25.65 -42.4 L-27.35 -40.7 Q-27.35 -42.4 -27.85 -43.8 M-45.9 -36.4 L-45.9 -36.35 Q-45.9 -35.7 -45.45 -35.25 L-44.7 -34.8 -49.7 -29.75 -51.2 -31.05 -45.9 -36.4 M-54.5 -28.35 L-54.25 -28.05 -58.8 -23.45 Q-59.2 -23.95 -59.9 -24.35 L-55.85 -28.4 -54.5 -28.35 M-47.35 -25.9 L-38.55 -34.75 Q-37.55 -32.95 -37.55 -30.55 L-47.7 -20.4 Q-47.7 -21.65 -47.95 -22.75 -47.2 -23.3 -47.2 -24.55 L-47.35 -25.9 M-64.8 -19.45 L-63.35 -19.35 -62.95 -19.35 -64.15 -18.1 Q-63.05 -17.95 -62.05 -17.4 L-62.7 -16.75 -64.75 -17.55 -66.5 -17.8 -64.8 -19.45 M-58.9 -14.4 Q-58.15 -13.0 -57.95 -11.3 L-58.05 -10.25 -58.05 -10.05 -58.2 -9.9 Q-58.4 -12.05 -59.5 -13.75 L-58.9 -14.4" fill="#eb3e52" fill-rule="evenodd" stroke="none"/>
    <path d="M21.35 -94.6 Q22.0 -93.55 22.25 -92.3 21.0 -91.6 19.2 -91.6 L18.35 -91.6 21.35 -94.6 M4.7 -88.95 L5.15 -89.4 7.05 -89.3 8.8 -91.1 9.2 -90.2 Q9.2 -89.3 8.8 -88.8 L7.05 -89.3 6.1 -88.4 Q5.35 -88.6 4.7 -88.95 M-2.45 -78.95 L-1.05 -78.4 -2.5 -77.0 -2.6 -77.75 -2.45 -78.95 M-7.4 -63.7 L-7.25 -63.9 Q-5.2 -66.15 -3.7 -66.15 L-2.9 -66.1 -2.7 -66.05 -2.6 -65.7 -2.55 -65.55 -7.05 -61.05 Q-7.05 -62.5 -7.4 -63.7 M-12.65 -69.65 L-10.25 -72.0 -10.05 -71.2 Q-10.05 -70.15 -11.05 -69.85 L-12.65 -69.65 M-22.4 -61.9 L-20.7 -63.6 -20.1 -63.9 -19.75 -64.0 -19.4 -64.1 -18.45 -64.05 -18.3 -64.0 -23.15 -59.1 Q-23.05 -60.75 -22.4 -61.9 M-23.2 -58.7 L-21.4 -58.05 -22.95 -56.55 -23.2 -58.3 -23.2 -58.7 M-28.35 -44.9 L-24.25 -49.05 Q-22.8 -47.85 -22.4 -45.65 L-25.65 -42.4 Q-26.9 -42.8 -27.85 -43.8 L-28.35 -44.9 M-45.55 -38.7 L-44.8 -39.45 -40.6 -43.65 -39.85 -44.45 -39.05 -44.55 Q-38.4 -44.55 -38.1 -44.2 L-43.8 -38.45 Q-42.7 -38.3 -41.7 -37.75 L-44.7 -34.8 -45.45 -35.25 Q-45.9 -35.7 -45.9 -36.35 L-45.9 -36.4 -43.8 -38.45 -45.55 -38.6 -45.55 -38.7 M-54.25 -28.05 L-54.5 -28.35 -54.0 -28.25 -54.25 -28.05 M-59.9 -24.35 Q-59.2 -23.95 -58.8 -23.45 L-62.95 -19.35 -63.35 -19.35 -64.8 -19.45 -59.9 -24.35 M-51.9 -27.55 Q-52.9 -28.1 -54.0 -28.25 L-51.2 -31.05 -49.7 -29.75 -51.9 -27.55 M-48.7 -24.55 L-47.35 -25.9 -47.2 -24.55 Q-47.2 -23.3 -47.95 -22.75 L-48.7 -24.55 M-57.95 -11.3 L-57.9 -10.2 -58.05 -10.05 -58.05 -10.25 -57.95 -11.3" fill="#e5394d" fill-rule="evenodd" stroke="none"/>
    <path d="M22.45 -90.55 L22.45 -90.5 22.3 -88.75 Q21.8 -86.6 20.15 -84.9 L19.5 -84.25 17.45 -82.2 16.95 -82.3 14.35 -80.35 13.0 -78.7 13.2 -79.8 13.3 -81.4 22.45 -90.55 M3.15 -71.25 L3.05 -69.65 2.5 -67.2 -7.7 -57.05 -7.3 -58.5 Q-6.15 -59.1 -4.9 -60.3 -2.45 -62.75 -2.45 -64.9 L-2.55 -65.55 3.15 -71.25 M4.15 -89.35 L4.7 -88.95 -5.0 -79.25 -6.45 -79.15 -8.1 -78.8 2.05 -89.0 3.7 -89.3 4.15 -89.35 M-20.7 -63.6 L-22.4 -61.9 -25.35 -58.9 -26.8 -58.8 -28.45 -58.5 -23.35 -63.55 -23.4 -63.55 -18.3 -68.65 -18.25 -68.65 -16.6 -69.0 -15.15 -69.1 -20.7 -63.6 M-38.65 -48.3 L-36.95 -48.65 -35.5 -48.75 -39.85 -44.45 -41.55 -43.6 -41.8 -43.45 Q-44.7 -41.5 -45.55 -38.75 L-45.65 -38.6 -47.1 -38.5 -48.8 -38.15 -38.65 -48.3 M-22.4 -45.65 L-17.2 -50.9 -17.3 -49.3 Q-17.45 -48.05 -17.85 -46.85 L-28.05 -36.65 -27.5 -39.1 -27.35 -40.7 -25.65 -42.4 -24.2 -42.2 Q-23.3 -42.2 -22.75 -42.75 L-22.65 -42.85 -22.45 -43.15 -22.4 -43.3 -22.3 -43.6 -22.3 -43.65 -22.3 -43.7 -22.3 -43.75 -22.3 -43.85 -22.3 -43.95 -22.3 -44.8 -22.3 -44.85 -22.4 -45.65 M-59.0 -27.95 L-57.3 -28.3 -55.85 -28.4 -59.9 -24.35 Q-60.8 -24.9 -61.85 -25.1 L-59.0 -27.95 M-47.7 -20.4 L-37.55 -30.55 -37.65 -28.95 -38.2 -26.5 -48.35 -16.35 Q-47.95 -17.55 -47.8 -18.8 L-47.7 -20.4 M-66.5 -17.8 L-66.9 -17.8 -69.6 -17.35 -66.8 -20.15 Q-65.9 -19.65 -64.8 -19.45 L-66.5 -17.8 M-57.95 -8.75 L-58.0 -8.6 -58.55 -6.15 -58.6 -6.1 Q-58.15 -7.5 -58.15 -9.0 L-58.2 -9.9 -58.05 -10.05 -57.95 -8.75" fill="#d12f42" fill-rule="evenodd" stroke="none"/>
    <path d="M17.45 -82.2 L12.65 -77.35 13.0 -78.7 14.35 -80.35 16.95 -82.3 17.45 -82.2 M4.7 -88.95 L4.15 -89.35 5.15 -89.4 4.7 -88.95 M-2.55 -65.55 L-2.45 -64.9 Q-2.45 -62.75 -4.9 -60.3 -6.15 -59.1 -7.3 -58.5 L-7.15 -59.45 -7.05 -61.05 -2.55 -65.55 M-45.55 -38.75 Q-44.7 -41.5 -41.8 -43.45 L-41.55 -43.6 -39.85 -44.45 -40.6 -43.65 -44.8 -39.45 -45.55 -38.7 -45.55 -38.75 M-25.65 -42.4 L-22.4 -45.65 -22.3 -44.85 -22.3 -44.8 -22.3 -43.95 -22.3 -43.85 -22.3 -43.75 -22.3 -43.7 -22.3 -43.65 -22.3 -43.6 -22.4 -43.3 -22.45 -43.15 -22.65 -42.85 -22.75 -42.75 Q-23.3 -42.2 -24.2 -42.2 L-25.65 -42.4 M-61.85 -25.1 Q-60.8 -24.9 -59.9 -24.35 L-64.8 -19.45 Q-65.9 -19.65 -66.8 -20.15 L-64.1 -22.85 -63.1 -23.85 -62.45 -24.45 -61.85 -25.1 M-57.9 -10.2 L-57.95 -8.75 -58.05 -10.05 -57.9 -10.2" fill="#c82a3d" fill-rule="evenodd" stroke="none"/>
  </g>
</svg>
