<?xml version="1.0" encoding="UTF-8" standalone="no"?>
<svg xmlns:ffdec="https://www.free-decompiler.com/flash" xmlns:xlink="http://www.w3.org/1999/xlink" ffdec:objectType="shape" height="65.0px" width="81.65px" xmlns="http://www.w3.org/2000/svg">
  <g transform="matrix(1.0, 0.0, 0.0, 1.0, 50.75, 50.25)">
    <path d="M13.6 6.45 L13.15 6.25 12.6 6.0 Q9.5 4.6 8.95 4.1 L8.65 3.75 Q7.85 2.25 7.85 1.25 7.85 -0.8 9.1 -5.85 L9.95 -9.45 10.15 -10.2 10.15 -10.35 10.25 -10.9 10.3 -11.0 10.35 -11.65 Q10.35 -13.25 8.4 -15.8 6.0 -18.95 1.9 -21.25 -2.05 -23.55 -6.95 -24.75 L-7.35 -24.85 Q-16.5 -27.0 -28.7 -25.35 -31.05 -28.1 -31.05 -30.4 -31.05 -32.8 -27.25 -35.45 -23.15 -38.35 -18.55 -38.35 -17.05 -38.35 -16.15 -37.75 -18.7 -37.1 -20.75 -36.1 -24.8 -34.1 -24.8 -30.55 L-23.2 -28.5 Q-21.3 -26.5 -19.65 -26.5 -17.35 -26.5 -16.55 -28.85 -15.4 -32.35 -13.15 -34.2 -12.25 -34.95 -6.8 -36.7 -0.8 -38.65 1.5 -38.5 L6.25 -38.55 12.45 -38.15 12.45 -37.85 Q12.3 -37.7 12.6 -37.65 12.35 -37.2 10.2 -36.95 6.45 -36.55 0.5 -34.3 L-4.55 -32.15 Q-6.55 -30.75 -7.25 -27.2 L-5.85 -27.05 Q-2.65 -29.15 0.95 -30.5 4.1 -31.75 5.6 -31.75 L6.3 -31.7 6.25 -31.6 Q6.15 -31.0 4.05 -28.95 L1.3 -26.35 3.0 -26.25 14.2 -26.35 14.65 -25.75 13.35 -24.85 13.25 -24.85 13.4 -24.75 14.35 -24.0 15.9 -22.55 17.1 -21.05 Q18.65 -19.05 19.9 -15.15 L19.9 -14.5 19.85 -14.35 Q19.5 -14.4 19.3 -14.85 L19.15 -15.3 19.1 -15.1 17.7 -17.8 Q16.85 -19.4 15.5 -20.55 L12.4 -23.2 10.95 -23.7 10.45 -23.6 9.4 -23.8 Q8.8 -23.8 7.05 -23.05 5.45 -22.4 5.25 -22.2 8.35 -21.7 13.05 -15.75 17.15 -10.5 17.25 -9.2 L17.3 -9.15 Q17.3 -8.65 16.75 -8.65 16.6 -8.65 15.45 -9.25 14.15 -10.0 13.8 -10.5 L12.75 -10.6 10.45 -9.85 10.6 -9.45 10.9 -8.3 Q11.1 -7.7 11.45 -7.2 12.05 -6.2 13.25 -5.1 14.7 -3.65 15.9 -3.3 L16.0 -3.1 16.0 -3.0 16.45 -2.6 Q16.45 -1.85 14.65 -1.5 L11.0 -0.7 11.0 0.05 Q11.75 2.8 13.35 3.85 L14.75 4.65 13.6 6.45 M24.25 -18.55 Q24.25 -16.8 23.6 -16.8 23.15 -16.8 23.15 -17.85 L23.25 -18.95 Q23.25 -20.25 22.55 -21.55 L21.85 -22.9 Q21.85 -23.65 22.8 -22.65 L23.85 -21.25 24.25 -18.55" fill="#ffffff" fill-rule="evenodd" stroke="none"/>
    <path d="M-36.2 -27.35 L-40.35 -27.65 -38.3 -27.6 -39.9 -29.35 Q-41.0 -30.75 -41.0 -32.75 -41.0 -38.45 -32.75 -41.35 -24.05 -44.5 -4.75 -45.0 L-2.6 -45.0 -2.6 -44.1 -1.6 -44.1 Q-3.5 -43.95 -7.15 -42.6 -11.55 -40.95 -12.5 -39.9 L-11.8 -38.95 -11.0 -38.5 -6.55 -40.55 Q-1.75 -42.6 4.75 -42.6 6.05 -42.6 11.35 -39.65 16.5 -36.85 17.8 -35.55 L13.95 -35.35 13.5 -34.65 Q14.35 -33.95 18.35 -33.65 L18.65 -33.65 19.15 -33.25 15.55 -31.6 Q13.3 -30.45 12.75 -29.4 L12.85 -28.8 13.75 -28.75 16.4 -29.35 20.5 -30.0 Q21.65 -30.0 22.3 -29.3 L23.8 -27.05 Q22.9 -26.25 21.55 -25.85 L19.8 -24.85 22.9 -24.85 22.95 -24.75 24.25 -23.15 Q25.75 -21.4 25.75 -19.9 25.75 -16.15 23.15 -11.1 L22.75 -10.35 22.75 -14.1 Q22.1 -18.65 20.1 -20.8 18.15 -22.9 18.15 -21.05 L19.85 -17.95 Q21.55 -14.85 21.55 -11.85 L21.5 -10.0 21.2 -8.95 20.85 -8.05 Q19.25 -12.1 17.95 -14.05 L15.4 -17.55 Q13.35 -20.0 12.15 -20.0 11.5 -20.0 11.5 -19.55 L13.7 -17.5 Q16.3 -15.0 17.95 -11.6 19.15 -9.1 19.65 -6.7 19.05 -6.7 19.05 -6.1 L19.1 -5.85 Q19.1 -5.65 18.7 -5.65 L17.25 -6.2 Q15.95 -6.8 14.75 -6.8 13.85 -6.8 13.85 -6.05 13.85 -5.7 14.2 -5.55 L16.5 -5.2 Q17.5 -4.45 18.45 -4.0 18.95 -3.6 18.95 -2.0 18.95 -1.15 16.35 -0.1 13.7 0.9 13.7 1.5 13.7 1.9 14.0 2.0 L14.6 2.05 15.85 1.65 17.85 1.2 Q18.3 0.65 19.35 0.35 L19.45 0.5 19.45 0.6 18.9 4.1 Q18.35 6.5 18.3 7.55 17.9 7.75 17.75 8.35 L13.6 6.45 14.75 4.65 13.35 3.85 Q11.75 2.8 11.0 0.05 L11.0 -0.7 14.65 -1.5 Q16.45 -1.85 16.45 -2.6 L16.0 -3.0 16.0 -3.1 15.9 -3.3 Q14.7 -3.65 13.25 -5.1 12.05 -6.2 11.45 -7.2 11.1 -7.7 10.9 -8.3 L10.6 -9.45 10.45 -9.85 12.75 -10.6 13.8 -10.5 Q14.15 -10.0 15.45 -9.25 16.6 -8.65 16.75 -8.65 17.3 -8.65 17.3 -9.15 L17.25 -9.2 Q17.15 -10.5 13.05 -15.75 8.35 -21.7 5.25 -22.2 5.45 -22.4 7.05 -23.05 8.8 -23.8 9.4 -23.8 L10.45 -23.6 10.95 -23.7 12.4 -23.2 15.5 -20.55 Q16.85 -19.4 17.7 -17.8 L19.1 -15.1 19.15 -15.3 19.3 -14.85 Q19.5 -14.4 19.85 -14.35 L19.9 -14.5 19.9 -15.15 Q18.65 -19.05 17.1 -21.05 L15.9 -22.55 14.35 -24.0 13.4 -24.75 13.25 -24.85 13.35 -24.85 14.65 -25.75 14.2 -26.35 3.0 -26.25 1.3 -26.35 4.05 -28.95 Q6.15 -31.0 6.25 -31.6 L6.3 -31.7 5.6 -31.75 Q4.1 -31.75 0.95 -30.5 -2.65 -29.15 -5.85 -27.05 L-7.25 -27.2 Q-6.55 -30.75 -4.55 -32.15 L0.5 -34.3 Q6.45 -36.55 10.2 -36.95 12.35 -37.2 12.6 -37.65 12.3 -37.7 12.45 -37.85 L12.45 -38.15 6.25 -38.55 1.5 -38.5 Q-0.8 -38.65 -6.8 -36.7 -12.25 -34.95 -13.15 -34.2 -15.4 -32.35 -16.55 -28.85 -17.35 -26.5 -19.65 -26.5 -21.3 -26.5 -23.2 -28.5 L-24.8 -30.55 Q-24.8 -34.1 -20.75 -36.1 -18.7 -37.1 -16.15 -37.75 -17.05 -38.35 -18.55 -38.35 -23.15 -38.35 -27.25 -35.45 -31.05 -32.8 -31.05 -30.4 -31.05 -28.1 -28.7 -25.35 L-31.4 -25.4 -30.95 -25.85 -30.8 -25.95 Q-31.75 -26.7 -33.6 -29.2 -35.3 -31.6 -35.65 -32.5 L-36.05 -33.55 Q-36.55 -32.65 -36.55 -31.6 L-36.2 -27.35 M21.1 10.4 L20.9 10.15 21.35 9.5 21.1 10.4 M24.25 -18.55 L23.85 -21.25 22.8 -22.65 Q21.85 -23.65 21.85 -22.9 L22.55 -21.55 Q23.25 -20.25 23.25 -18.95 L23.15 -17.85 Q23.15 -16.8 23.6 -16.8 24.25 -16.8 24.25 -18.55 M28.0 -15.3 Q28.0 -13.7 27.15 -11.75 26.3 -9.85 25.0 -8.35 L24.75 -8.65 Q24.75 -9.4 25.45 -10.85 L26.45 -12.9 Q26.9 -14.45 27.15 -17.1 28.0 -17.0 28.0 -15.3 M-44.4 -35.5 L-44.55 -36.05 Q-44.85 -39.6 -37.65 -42.4 -30.2 -45.35 -19.75 -45.5 L-19.3 -45.55 Q-19.15 -45.6 -19.15 -45.0 L-19.2 -44.15 -19.3 -44.1 Q-35.15 -43.6 -40.0 -39.9 -41.1 -39.05 -42.35 -37.2 -43.25 -35.8 -44.4 -35.5" fill="#d1d1d1" fill-rule="evenodd" stroke="none"/>
    <path d="M-33.45 -25.85 L-32.65 -26.5 -35.5 -27.3 -36.2 -27.35 -36.55 -31.6 Q-36.55 -32.65 -36.05 -33.55 L-35.65 -32.5 Q-35.3 -31.6 -33.6 -29.2 -31.75 -26.7 -30.8 -25.95 L-30.95 -25.85 -31.4 -25.4 Q-33.0 -25.4 -33.45 -25.85 M-40.35 -27.65 Q-41.9 -28.1 -42.9 -30.35 L-44.0 -33.25 -44.8 -31.55 Q-45.3 -29.95 -44.65 -28.1 -46.65 -28.2 -48.0 -30.25 -49.25 -32.25 -49.25 -35.05 -49.25 -40.1 -41.05 -44.1 -32.0 -48.55 -18.35 -48.55 -3.0 -48.55 9.4 -42.65 18.35 -38.4 21.7 -33.85 25.0 -29.4 26.9 -24.85 L26.95 -24.75 Q28.25 -21.65 28.9 -18.55 29.6 -15.2 29.6 -8.8 29.6 -0.95 28.2 3.85 L27.5 5.85 27.7 6.2 Q27.7 7.2 26.3 8.4 24.85 10.85 22.75 12.75 L22.7 12.65 22.1 11.75 21.35 10.7 21.1 10.4 21.35 9.5 20.9 10.15 20.7 9.85 20.6 9.75 19.0 8.0 Q18.55 7.6 18.3 7.55 18.35 6.5 18.9 4.1 L19.45 0.6 19.45 0.5 19.35 0.35 Q18.3 0.65 17.85 1.2 L15.85 1.65 14.6 2.05 14.0 2.0 Q13.7 1.9 13.7 1.5 13.7 0.9 16.35 -0.1 18.95 -1.15 18.95 -2.0 18.95 -3.6 18.45 -4.0 17.5 -4.45 16.5 -5.2 L14.2 -5.55 Q13.85 -5.7 13.85 -6.05 13.85 -6.8 14.75 -6.8 15.95 -6.8 17.25 -6.2 L18.7 -5.65 Q19.1 -5.65 19.1 -5.85 L19.05 -6.1 Q19.05 -6.7 19.65 -6.7 19.15 -9.1 17.95 -11.6 16.3 -15.0 13.7 -17.5 L11.5 -19.55 Q11.5 -20.0 12.15 -20.0 13.35 -20.0 15.4 -17.55 L17.95 -14.05 Q19.25 -12.1 20.85 -8.05 L21.2 -8.95 21.5 -10.0 21.55 -11.85 Q21.55 -14.85 19.85 -17.95 L18.15 -21.05 Q18.15 -22.9 20.1 -20.8 22.1 -18.65 22.75 -14.1 L22.75 -10.35 23.15 -11.1 Q25.75 -16.15 25.75 -19.9 25.75 -21.4 24.25 -23.15 L22.95 -24.75 22.9 -24.85 19.8 -24.85 21.55 -25.85 Q22.9 -26.25 23.8 -27.05 L22.3 -29.3 Q21.65 -30.0 20.5 -30.0 L16.4 -29.35 13.75 -28.75 12.85 -28.8 12.75 -29.4 Q13.3 -30.45 15.55 -31.6 L19.15 -33.25 18.65 -33.65 18.35 -33.65 Q14.35 -33.95 13.5 -34.65 L13.95 -35.35 17.8 -35.55 Q16.5 -36.85 11.35 -39.65 6.05 -42.6 4.75 -42.6 -1.75 -42.6 -6.55 -40.55 L-11.0 -38.5 -11.8 -38.95 -12.5 -39.9 Q-11.55 -40.95 -7.15 -42.6 -3.5 -43.95 -1.6 -44.1 L-2.6 -44.1 -2.6 -45.0 -4.75 -45.0 Q-24.05 -44.5 -32.75 -41.35 -41.0 -38.45 -41.0 -32.75 -41.0 -30.75 -39.9 -29.35 L-38.3 -27.6 -40.35 -27.65 M28.0 -15.3 Q28.0 -17.0 27.15 -17.1 26.9 -14.45 26.45 -12.9 L25.45 -10.85 Q24.75 -9.4 24.75 -8.65 L25.0 -8.35 Q26.3 -9.85 27.15 -11.75 28.0 -13.7 28.0 -15.3 M-44.4 -35.5 Q-43.25 -35.8 -42.35 -37.2 -41.1 -39.05 -40.0 -39.9 -35.15 -43.6 -19.3 -44.1 L-19.2 -44.15 -19.15 -45.0 Q-19.15 -45.6 -19.3 -45.55 L-19.75 -45.5 Q-30.2 -45.35 -37.65 -42.4 -44.85 -39.6 -44.55 -36.05 L-44.4 -35.5" fill="#989898" fill-rule="evenodd" stroke="none"/>
    <path d="M-33.45 -25.85 Q-43.05 -25.65 -46.2 -26.85 -50.75 -28.65 -50.75 -34.9 -50.75 -40.55 -44.4 -44.05 -37.85 -47.7 -23.0 -50.05 L-18.4 -50.25 Q-10.15 -50.25 -0.15 -47.25 11.25 -43.8 20.5 -37.6 24.4 -35.0 27.75 -25.75 L28.1 -24.85 28.1 -24.75 Q30.9 -16.55 30.9 -9.95 30.9 -3.05 29.65 3.15 28.75 7.7 27.95 9.2 26.2 12.3 24.1 13.8 22.85 14.75 22.25 14.75 21.6 14.75 21.3 14.45 L20.9 13.85 20.75 13.25 Q20.6 12.15 19.4 10.35 18.35 8.7 17.75 8.35 17.9 7.75 18.3 7.55 18.55 7.6 19.0 8.0 L20.6 9.75 20.7 9.85 20.9 10.15 21.1 10.4 21.35 10.7 22.1 11.75 22.7 12.65 22.75 12.75 Q24.85 10.85 26.3 8.4 27.7 7.2 27.7 6.2 L27.5 5.85 28.2 3.85 Q29.6 -0.95 29.6 -8.8 29.6 -15.2 28.9 -18.55 28.25 -21.65 26.95 -24.75 L26.9 -24.85 Q25.0 -29.4 21.7 -33.85 18.35 -38.4 9.4 -42.65 -3.0 -48.55 -18.35 -48.55 -32.0 -48.55 -41.05 -44.1 -49.25 -40.1 -49.25 -35.05 -49.25 -32.25 -48.0 -30.25 -46.65 -28.2 -44.65 -28.1 -45.3 -29.95 -44.8 -31.55 L-44.0 -33.25 -42.9 -30.35 Q-41.9 -28.1 -40.35 -27.65 L-36.2 -27.35 -35.5 -27.3 -32.65 -26.5 -33.45 -25.85" fill="#606060" fill-rule="evenodd" stroke="none"/>
  </g>
</svg>
