<?xml version="1.0" encoding="UTF-8" standalone="no"?>
<svg xmlns:ffdec="https://www.free-decompiler.com/flash" xmlns:xlink="http://www.w3.org/1999/xlink" ffdec:objectType="shape" height="112.55px" width="48.95px" xmlns="http://www.w3.org/2000/svg">
  <g transform="matrix(1.0, 0.0, 0.0, 1.0, 17.5, 7.6)">
    <path d="M11.05 -5.65 L11.0 -5.55 10.85 -5.25 Q10.8 -5.05 10.95 -5.2 L11.05 -5.15 10.55 -4.2 9.6 -1.95 12.9 -3.95 13.2 -3.9 13.2 -3.8 12.3 -1.7 10.85 1.85 11.4 1.45 12.0 1.35 12.3 1.4 12.2 1.55 10.05 7.9 Q7.9 14.8 7.95 15.25 7.2 21.45 9.5 32.4 11.05 39.55 17.6 49.3 L18.3 50.3 Q21.95 55.35 23.9 60.0 20.2 56.8 14.3 49.35 L11.55 44.9 Q7.85 37.65 6.4 32.4 3.65 20.55 5.1 14.25 L4.95 14.25 4.15 20.95 Q4.1 26.5 5.15 32.4 6.9 41.1 11.05 49.35 L11.0 49.35 14.35 57.2 15.6 59.1 Q16.25 60.35 16.7 63.55 16.9 65.2 16.55 66.85 L14.1 74.6 Q12.2 79.8 6.9 86.0 1.4 92.45 -1.3 92.45 -2.35 92.5 -1.9 92.35 -1.85 92.05 -1.95 91.9 1.95 87.65 5.5 77.15 8.85 66.35 7.7 58.3 6.5 53.35 5.0 49.35 1.8 39.5 0.45 32.4 -1.0 8.75 1.95 6.3 5.0 -0.75 7.8 -3.15 L9.6 -4.45 11.05 -5.65" fill="#ffffff" fill-rule="evenodd" stroke="none"/>
    <path d="M11.05 -5.65 L9.6 -4.45 7.8 -3.15 Q5.0 -0.75 1.95 6.3 -1.0 8.75 0.45 32.4 1.8 39.5 5.0 49.35 6.5 53.35 7.7 58.3 8.85 66.35 5.5 77.15 1.95 87.65 -1.95 91.9 -1.85 92.05 -1.9 92.35 -2.35 92.5 -1.3 92.45 1.4 92.45 6.9 86.0 12.2 79.8 14.1 74.6 L16.55 66.85 Q16.9 65.2 16.7 63.55 16.25 60.35 15.6 59.1 L14.35 57.2 11.0 49.35 11.05 49.35 Q6.9 41.1 5.15 32.4 4.1 26.5 4.15 20.95 L4.95 14.25 5.1 14.25 Q3.65 20.55 6.4 32.4 7.85 37.65 11.55 44.9 L14.3 49.35 Q20.2 56.8 23.9 60.0 21.95 55.35 18.3 50.3 L17.6 49.3 Q11.05 39.55 9.5 32.4 7.2 21.45 7.95 15.25 7.9 14.8 10.05 7.9 L12.2 1.55 12.3 1.4 12.0 1.35 11.4 1.45 10.85 1.85 12.3 -1.7 13.2 -3.8 13.2 -3.9 12.9 -3.95 9.6 -1.95 10.55 -4.2 11.05 -5.15 10.95 -5.2 Q10.8 -5.05 10.85 -5.25 L11.0 -5.55 11.05 -5.65 M13.3 -5.2 L12.95 -4.6 Q13.5 -4.7 14.05 -5.0 L14.95 -4.95 14.15 -3.45 12.7 -0.95 12.8 -0.95 14.1 -1.5 14.6 -1.4 14.9 -1.35 Q15.1 -1.45 14.95 -0.9 L12.8 3.6 Q9.65 10.75 9.4 21.05 9.3 24.85 11.15 32.4 12.55 38.85 20.2 49.3 L20.15 49.3 20.7 49.9 Q27.05 58.5 27.4 63.7 27.75 65.85 27.2 68.6 26.5 72.05 24.9 74.1 24.75 70.4 23.0 67.65 21.55 65.3 20.3 64.95 L20.6 66.25 Q20.55 79.95 12.7 87.65 5.6 94.95 -7.4 98.2 -3.45 91.2 -0.05 83.8 6.9 69.05 5.5 64.05 L0.2 76.75 Q-3.25 83.3 -6.55 83.45 -7.5 83.35 -7.35 83.05 -1.55 78.3 2.4 65.15 5.0 55.4 3.5 49.4 L1.85 42.7 -0.45 32.4 -1.1 28.25 Q-1.95 18.45 -1.05 13.8 1.7 1.45 2.65 0.95 4.65 -2.5 8.15 -4.75 11.05 -6.6 12.85 -6.6 13.9 -6.7 13.7 -5.8 L13.3 -5.2" fill="#d1d1d1" fill-rule="evenodd" stroke="none"/>
    <path d="M12.6 -7.0 Q14.5 -6.6 15.7 -4.75 16.3 0.2 13.6 7.55 12.45 11.15 12.1 15.9 11.6 22.85 13.65 32.4 15.3 39.85 22.8 49.3 L22.75 49.3 Q24.55 51.5 26.15 54.05 32.55 64.55 27.95 77.2 27.25 79.7 25.95 82.0 25.4 79.0 23.25 77.4 23.05 77.1 22.7 77.2 19.5 85.25 12.85 91.5 8.5 95.6 3.1 97.85 -4.85 101.2 -12.8 102.75 -6.4 95.75 -3.05 86.3 -2.6 85.1 -2.7 83.9 -5.3 84.05 -7.75 84.95 L-11.75 86.0 -14.55 86.3 Q-5.85 80.4 -2.15 70.2 1.55 59.95 0.95 49.4 L1.0 49.4 -1.35 37.25 -2.15 32.45 Q-3.85 15.85 -0.4 6.2 L1.05 2.7 Q4.7 -3.5 10.2 -6.5 11.5 -7.15 12.6 -7.0 M13.3 -5.2 L13.7 -5.8 Q13.9 -6.7 12.85 -6.6 11.05 -6.6 8.15 -4.75 4.65 -2.5 2.65 0.95 1.7 1.45 -1.05 13.8 -1.95 18.45 -1.1 28.25 L-0.45 32.4 1.85 42.7 3.5 49.4 Q5.0 55.4 2.4 65.15 -1.55 78.3 -7.35 83.05 -7.5 83.35 -6.55 83.45 -3.25 83.3 0.2 76.75 L5.5 64.05 Q6.9 69.05 -0.05 83.8 -3.45 91.2 -7.4 98.2 5.6 94.95 12.7 87.65 20.55 79.95 20.6 66.25 L20.3 64.95 Q21.55 65.3 23.0 67.65 24.75 70.4 24.9 74.1 26.5 72.05 27.2 68.6 27.75 65.85 27.4 63.7 27.05 58.5 20.7 49.9 L20.15 49.3 20.2 49.3 Q12.55 38.85 11.15 32.4 9.3 24.85 9.4 21.05 9.65 10.75 12.8 3.6 L14.95 -0.9 Q15.1 -1.45 14.9 -1.35 L14.6 -1.4 14.1 -1.5 12.8 -0.95 12.7 -0.95 14.15 -3.45 14.95 -4.95 14.05 -5.0 Q13.5 -4.7 12.95 -4.6 L13.3 -5.2 M-7.1 69.75 Q-4.75 68.35 -2.95 66.9 -4.6 71.05 -6.6 75.35 -9.0 73.75 -11.55 72.3 -9.15 71.15 -7.1 69.75" fill="#989898" fill-rule="evenodd" stroke="none"/>
    <path d="M12.6 -7.0 Q11.5 -7.15 10.2 -6.5 4.7 -3.5 1.05 2.7 L-0.4 6.2 Q-3.85 15.85 -2.15 32.45 L-1.35 37.25 1.0 49.4 0.95 49.4 Q1.55 59.95 -2.15 70.2 -5.85 80.4 -14.55 86.3 L-11.75 86.0 -7.75 84.95 Q-5.3 84.05 -2.7 83.9 -2.6 85.1 -3.05 86.3 -6.4 95.75 -12.8 102.75 -4.85 101.2 3.1 97.85 8.5 95.6 12.85 91.5 19.5 85.25 22.7 77.2 23.05 77.1 23.25 77.4 25.4 79.0 25.95 82.0 27.25 79.7 27.95 77.2 32.55 64.55 26.15 54.05 24.55 51.5 22.75 49.3 L22.8 49.3 Q15.3 39.85 13.65 32.4 11.6 22.85 12.1 15.9 12.45 11.15 13.6 7.55 16.3 0.2 15.7 -4.75 14.5 -6.6 12.6 -7.0 M16.45 -5.45 Q17.0 -3.95 16.8 -2.0 16.8 -0.25 15.95 1.95 11.0 12.0 15.0 32.4 L16.4 36.05 Q18.65 42.2 25.0 49.3 L24.95 49.3 Q30.8 56.25 31.4 66.25 32.1 78.2 24.2 85.8 L24.2 85.65 Q24.55 82.65 23.4 79.85 L23.05 79.2 Q20.05 90.2 10.1 95.6 -3.4 103.0 -16.9 104.95 L-17.0 103.75 Q-8.15 97.65 -4.05 85.95 -8.0 88.1 -12.75 88.05 -15.65 88.55 -17.35 86.65 -17.25 86.35 -17.5 86.25 L-15.5 84.85 Q-10.75 81.6 -7.5 76.7 -8.05 76.4 -8.75 76.25 -11.75 75.0 -13.45 72.95 L-14.0 71.8 Q-12.3 71.15 -11.05 70.3 -5.95 67.45 -1.95 63.35 -0.1 56.0 -0.8 49.4 -0.75 48.85 -0.85 48.5 L-3.1 32.45 Q-4.55 18.15 -2.25 9.25 -1.5 6.05 -0.25 3.6 2.4 -1.05 6.35 -4.45 10.0 -7.55 12.65 -7.6 L14.2 -7.35 Q14.8 -7.2 15.4 -6.85 16.25 -6.45 16.45 -5.45 M-7.1 69.75 Q-9.15 71.15 -11.55 72.3 -9.0 73.75 -6.6 75.35 -4.6 71.05 -2.95 66.9 -4.75 68.35 -7.1 69.75" fill="#606060" fill-rule="evenodd" stroke="none"/>
  </g>
</svg>
