<?xml version="1.0" encoding="UTF-8" standalone="no"?>
<svg xmlns:ffdec="https://www.free-decompiler.com/flash" xmlns:xlink="http://www.w3.org/1999/xlink" ffdec:objectType="shape" height="265.0px" width="340.0px" xmlns="http://www.w3.org/2000/svg">
  <g transform="matrix(1.0, 0.0, 0.0, 1.0, 0.0, 0.0)">
    <path d="M336.0 261.0 L336.0 245.0 335.95 245.0 335.95 261.0 336.0 261.0 M336.0 169.5 L335.95 169.5 335.95 200.5 336.0 200.5 336.0 169.5 M336.0 106.5 L335.95 106.5 335.95 137.5 336.0 137.5 336.0 106.5 M336.0 43.5 L335.95 43.5 335.95 74.5 336.0 74.5 336.0 43.5 M1.0 264.0 L1.0 1.0 339.0 1.0 339.0 264.0 1.0 264.0 M198.5 262.0 L198.75 261.95 198.3 261.95 198.5 262.0" fill="#ffffff" fill-rule="evenodd" stroke="none"/>
    <path d="M336.0 43.5 L336.0 74.5 335.95 74.5 335.95 43.5 336.0 43.5 M336.0 106.5 L336.0 137.5 335.95 137.5 335.95 106.5 336.0 106.5 M336.0 169.5 L336.0 200.5 335.95 200.5 335.95 169.5 336.0 169.5 M336.0 261.0 L335.95 261.0 335.95 245.0 336.0 245.0 336.0 261.0" fill="#e2ccff" fill-rule="evenodd" stroke="none"/>
    <path d="M340.0 0.0 L340.0 265.0 0.0 265.0 0.0 0.0 340.0 0.0 M1.0 264.0 L339.0 264.0 339.0 1.0 1.0 1.0 1.0 264.0 M198.5 262.0 L198.3 261.95 198.75 261.95 198.5 262.0" fill="#b792e6" fill-rule="evenodd" stroke="none"/>
  </g>
</svg>
