<?xml version="1.0" encoding="UTF-8" standalone="no"?>
<svg xmlns:ffdec="https://www.free-decompiler.com/flash" xmlns:xlink="http://www.w3.org/1999/xlink" ffdec:objectType="shape" height="253.0px" width="151.0px" xmlns="http://www.w3.org/2000/svg">
  <g transform="matrix(1.0, 0.0, 0.0, 1.0, 0.0, 0.0)">
    <path d="M11.25 2.5 L139.75 2.5 Q148.5 2.5 148.5 11.25 L148.5 241.75 Q148.5 250.5 139.75 250.5 L11.25 250.5 Q2.5 250.5 2.5 241.75 L2.5 11.25 Q2.5 2.5 11.25 2.5" fill="#7f6bd4" fill-rule="evenodd" stroke="none"/>
    <path d="M139.75 0.0 Q151.0 0.0 151.0 11.25 L151.0 241.75 Q151.0 253.0 139.75 253.0 L11.25 253.0 Q0.0 253.0 0.0 241.75 L0.0 11.25 Q0.0 0.0 11.25 0.0 L139.75 0.0 M11.25 2.5 Q2.5 2.5 2.5 11.25 L2.5 241.75 Q2.5 250.5 11.25 250.5 L139.75 250.5 Q148.5 250.5 148.5 241.75 L148.5 11.25 Q148.5 2.5 139.75 2.5 L11.25 2.5" fill="#b4a9e4" fill-rule="evenodd" stroke="none"/>
  </g>
</svg>
