<?xml version="1.0" encoding="UTF-8" standalone="no"?>
<svg xmlns:ffdec="https://www.free-decompiler.com/flash" xmlns:xlink="http://www.w3.org/1999/xlink" ffdec:objectType="shape" height="27.2px" width="52.35px" xmlns="http://www.w3.org/2000/svg">
  <g transform="matrix(1.0, 0.0, 0.0, 1.0, 20.95, 144.65)">
    <path d="M-10.75 -130.55 L-10.3 -131.55 -10.35 -131.05 -10.75 -130.55" fill="#003507" fill-rule="evenodd" stroke="none"/>
    <path d="M-13.8 -139.9 L-13.75 -140.0 -13.65 -139.95 -11.2 -137.95 -11.3 -137.3 -13.85 -139.8 -13.8 -139.9 M9.85 -124.6 L10.2 -125.45 Q10.6 -125.25 10.6 -123.45 L10.2 -123.15 Q10.05 -123.2 10.05 -123.7 L9.85 -124.6 M11.85 -128.1 L12.3 -129.25 12.5 -129.05 Q12.85 -128.5 12.85 -127.65 L12.6 -126.5 12.2 -125.7 11.9 -125.5 Q11.55 -125.45 11.1 -126.1 L11.85 -128.1 M26.8 -134.4 Q25.3 -131.85 22.45 -132.4 L26.5 -134.75 Q26.8 -135.4 26.8 -134.4 M27.1 -131.95 L28.3 -130.95 28.85 -130.3 28.3 -129.9 27.95 -130.1 Q27.55 -130.45 27.25 -131.3 L27.1 -131.95 M23.6 -134.05 L23.05 -133.95 Q22.1 -133.95 20.7 -134.75 20.9 -135.05 20.7 -135.05 L20.6 -135.05 21.25 -135.1 22.45 -134.85 23.45 -134.3 23.6 -134.05 M20.95 -131.4 L20.5 -131.45 Q19.95 -131.7 18.9 -133.1 L18.0 -134.1 Q19.65 -133.7 20.4 -132.65 L20.95 -131.55 20.95 -131.4 M23.6 -131.25 Q24.1 -131.35 25.2 -130.65 26.45 -129.9 26.95 -128.9 L26.9 -128.75 Q25.8 -129.05 24.65 -129.7 L23.1 -130.8 23.6 -131.25 M22.35 -127.9 Q21.85 -128.3 21.55 -129.55 22.65 -128.65 22.9 -127.65 L22.35 -127.9 M21.35 -128.75 Q21.0 -128.45 19.35 -127.7 L18.8 -127.8 Q18.6 -127.95 18.6 -128.6 18.6 -128.95 19.9 -129.55 L20.7 -130.0 Q20.75 -129.1 21.35 -128.75 M15.6 -130.75 L14.65 -130.85 14.1 -131.25 17.3 -132.2 Q17.15 -130.75 15.6 -130.75 M13.4 -127.75 L15.4 -128.9 17.2 -129.85 17.75 -129.75 Q17.4 -128.6 16.15 -127.9 15.0 -127.3 13.65 -127.4 L13.4 -127.75 M-7.6 -140.45 L-7.55 -139.75 -8.0 -138.9 -9.4 -137.3 -9.6 -137.15 Q-9.85 -137.1 -9.85 -137.75 L-9.85 -138.85 Q-9.15 -139.1 -7.8 -140.45 L-7.6 -140.45 M-9.45 -139.45 L-10.35 -140.15 -9.65 -140.0 Q-9.25 -139.7 -9.45 -139.45 M-16.2 -136.45 L-16.7 -136.3 -17.2 -136.45 -17.4 -136.85 -17.2 -137.25 -16.7 -137.4 -16.2 -137.25 -16.0 -136.85 -16.2 -136.45 M-10.8 -135.4 L-11.7 -136.0 -11.25 -136.45 -10.45 -135.45 -10.8 -135.4 M-13.3 -133.15 Q-14.4 -132.3 -15.45 -132.6 -14.85 -133.05 -14.7 -133.45 -13.45 -133.45 -13.3 -133.15 M-13.5 -135.4 L-15.2 -137.3 Q-13.65 -136.55 -13.15 -135.75 L-13.2 -135.6 -13.5 -135.4 M-16.4 -133.9 Q-16.7 -133.1 -17.0 -132.85 L-17.25 -132.75 -17.25 -132.65 -17.3 -133.3 -16.2 -135.3 Q-16.15 -134.7 -16.4 -133.9 M-18.35 -132.55 L-18.2 -132.05 Q-18.2 -131.75 -18.35 -131.55 -18.5 -131.35 -18.75 -131.35 -19.0 -131.35 -19.15 -131.55 L-19.3 -132.05 -19.15 -132.55 -18.75 -132.75 -18.35 -132.55 M-15.35 -130.15 L-15.65 -130.05 -17.8 -131.55 -15.3 -130.45 -15.35 -130.15 M-16.1 -127.4 Q-16.7 -126.75 -17.75 -126.4 L-17.95 -126.45 -18.3 -126.7 Q-15.6 -128.35 -15.3 -128.4 L-16.1 -127.4 M-19.3 -127.65 L-19.05 -127.9 -18.75 -127.65 -18.65 -127.15 -18.75 -126.6 -19.05 -126.4 -19.3 -126.6 -19.45 -127.15 -19.3 -127.65" fill="#ffffff" fill-rule="evenodd" stroke="none"/>
    <path d="M-7.3 -137.25 L-7.95 -136.7 -9.1 -135.4 -11.75 -132.3 -11.6 -131.55 -12.55 -129.9 Q-15.2 -124.95 -17.45 -123.15 -18.35 -124.0 -18.75 -124.9 L-20.25 -126.5 -18.65 -129.35 -20.15 -132.4 Q-19.3 -133.25 -18.2 -135.9 -17.4 -137.75 -13.95 -139.85 L-13.8 -139.9 -13.85 -139.8 -11.3 -137.3 -11.2 -137.95 -13.65 -139.95 -11.05 -141.0 Q-8.2 -142.15 -7.5 -142.7 -5.8 -140.3 -5.8 -139.6 L-7.3 -137.25 M8.2 -121.2 L9.85 -124.6 10.05 -123.7 Q10.05 -123.2 10.2 -123.15 L10.6 -123.45 Q10.6 -125.25 10.2 -125.45 L11.85 -128.1 11.1 -126.1 Q11.55 -125.45 11.9 -125.5 L12.2 -125.7 12.6 -126.5 12.85 -127.65 Q12.85 -128.5 12.5 -129.05 L14.8 -132.25 Q18.55 -136.55 22.65 -136.55 L24.25 -136.25 24.75 -136.1 24.95 -136.05 26.45 -135.55 Q27.8 -135.05 28.55 -134.55 28.65 -134.15 29.0 -134.0 L29.3 -133.9 29.5 -133.4 Q29.5 -132.9 29.0 -132.8 28.5 -132.75 28.5 -132.25 28.5 -131.5 28.9 -131.3 29.75 -130.95 30.75 -129.6 29.05 -128.45 28.2 -126.5 27.65 -125.35 25.6 -125.35 L23.85 -127.0 Q21.2 -127.0 18.8 -125.85 16.45 -124.75 15.55 -124.75 13.0 -124.75 12.75 -124.25 12.05 -122.95 8.2 -121.2 M27.1 -131.95 L27.25 -131.3 Q27.55 -130.45 27.95 -130.1 L28.3 -129.9 28.85 -130.3 28.3 -130.95 27.1 -131.95 M26.8 -134.4 Q26.8 -135.4 26.5 -134.75 L22.45 -132.4 Q25.3 -131.85 26.8 -134.4 M22.35 -127.9 L22.9 -127.65 Q22.65 -128.65 21.55 -129.55 21.85 -128.3 22.35 -127.9 M23.6 -131.25 L23.1 -130.8 24.65 -129.7 Q25.8 -129.05 26.9 -128.75 L26.95 -128.9 Q26.45 -129.9 25.2 -130.65 24.1 -131.35 23.6 -131.25 M20.95 -131.4 L20.95 -131.55 20.4 -132.65 Q19.65 -133.7 18.0 -134.1 L18.9 -133.1 Q19.95 -131.7 20.5 -131.45 L20.95 -131.4 M23.6 -134.05 L23.45 -134.3 22.45 -134.85 21.25 -135.1 20.6 -135.05 20.7 -135.05 Q20.9 -135.05 20.7 -134.75 22.1 -133.95 23.05 -133.95 L23.6 -134.05 M13.4 -127.75 L13.65 -127.4 Q15.0 -127.3 16.15 -127.9 17.4 -128.6 17.75 -129.75 L17.2 -129.85 15.4 -128.9 13.4 -127.75 M15.6 -130.75 Q17.15 -130.75 17.3 -132.2 L14.1 -131.25 14.65 -130.85 15.6 -130.75 M21.35 -128.75 Q20.75 -129.1 20.7 -130.0 L19.9 -129.55 Q18.6 -128.95 18.6 -128.6 18.6 -127.95 18.8 -127.8 L19.35 -127.7 Q21.0 -128.45 21.35 -128.75 M-9.45 -139.45 Q-9.25 -139.7 -9.65 -140.0 L-10.35 -140.15 -9.45 -139.45 M-7.6 -140.45 L-7.8 -140.45 Q-9.15 -139.1 -9.85 -138.85 L-9.85 -137.75 Q-9.85 -137.1 -9.6 -137.15 L-9.4 -137.3 -8.0 -138.9 -7.55 -139.75 -7.6 -140.45 M-16.2 -136.45 L-16.0 -136.85 -16.2 -137.25 -16.7 -137.4 -17.2 -137.25 -17.4 -136.85 -17.2 -136.45 -16.7 -136.3 -16.2 -136.45 M-13.5 -135.4 L-13.2 -135.6 -13.15 -135.75 Q-13.65 -136.55 -15.2 -137.3 L-13.5 -135.4 M-13.3 -133.15 Q-13.45 -133.45 -14.7 -133.45 -14.85 -133.05 -15.45 -132.6 -14.4 -132.3 -13.3 -133.15 M-10.8 -135.4 L-10.45 -135.45 -11.25 -136.45 -11.7 -136.0 -10.8 -135.4 M-19.3 -127.65 L-19.45 -127.15 -19.3 -126.6 -19.05 -126.4 -18.75 -126.6 -18.65 -127.15 -18.75 -127.65 -19.05 -127.9 -19.3 -127.65 M-16.1 -127.4 L-15.3 -128.4 Q-15.6 -128.35 -18.3 -126.7 L-17.95 -126.45 -17.75 -126.4 Q-16.7 -126.75 -16.1 -127.4 M-15.35 -130.15 L-15.3 -130.45 -17.8 -131.55 -15.65 -130.05 -15.35 -130.15 M-18.35 -132.55 L-18.75 -132.75 -19.15 -132.55 -19.3 -132.05 -19.15 -131.55 Q-19.0 -131.35 -18.75 -131.35 -18.5 -131.35 -18.35 -131.55 -18.2 -131.75 -18.2 -132.05 L-18.35 -132.55 M-16.4 -133.9 Q-16.15 -134.7 -16.2 -135.3 L-17.3 -133.3 -17.25 -132.65 -17.25 -132.75 -17.0 -132.85 Q-16.7 -133.1 -16.4 -133.9" fill="#e0e0e0" fill-rule="evenodd" stroke="none"/>
    <path d="M-0.15 -142.8 Q0.45 -142.3 0.8 -142.3 L1.65 -142.35 Q1.8 -142.4 2.15 -142.6 2.25 -141.05 2.85 -140.45 3.8 -139.6 6.6 -139.85 L7.0 -137.35 5.6 -138.1 Q3.15 -139.15 1.45 -139.15 -6.35 -137.9 -7.3 -137.25 L-5.8 -139.6 Q-5.8 -140.3 -7.5 -142.7 L-7.25 -143.15 -5.0 -141.9 -3.9 -142.85 Q-3.0 -143.85 -2.55 -143.85 -1.6 -143.85 -0.9 -143.4 L-0.3 -142.75 -0.15 -142.8 M-11.6 -131.55 L-11.45 -131.0 Q-11.15 -130.25 -11.2 -129.75 L-11.8 -128.8 -12.45 -128.05 -12.2 -126.6 -11.95 -125.45 Q-12.45 -124.15 -13.35 -123.35 L-14.15 -122.75 -13.7 -121.45 -13.15 -120.75 -13.55 -118.1 -16.1 -119.9 -19.65 -122.15 Q-18.95 -123.8 -18.75 -124.9 -18.35 -124.0 -17.45 -123.15 -15.2 -124.95 -12.55 -129.9 L-11.6 -131.55 M21.35 -123.55 L20.8 -123.55 19.25 -123.9 Q17.35 -123.95 15.3 -122.5 13.8 -121.4 12.3 -120.85 10.6 -120.2 7.75 -119.7 L8.2 -121.2 Q12.05 -122.95 12.75 -124.25 13.0 -124.75 15.55 -124.75 16.45 -124.75 18.8 -125.85 21.2 -127.0 23.85 -127.0 L25.6 -125.35 Q27.65 -125.35 28.2 -126.5 29.05 -128.45 30.75 -129.6 L29.35 -126.8 Q30.05 -125.55 29.35 -124.7 L28.5 -123.3 28.4 -123.3 28.3 -122.85 28.05 -121.8 27.8 -121.05 27.7 -121.0 26.1 -120.55 24.35 -123.2 22.9 -124.65 22.5 -124.1 22.15 -123.8 21.35 -123.55" fill="#b4b4b4" fill-rule="evenodd" stroke="none"/>
    <path d="M-0.15 -142.8 L2.15 -143.4 Q3.7 -143.5 4.0 -140.9 5.95 -140.7 6.7 -140.15 7.4 -139.65 10.15 -139.6 11.0 -138.35 13.35 -137.45 15.4 -136.6 16.2 -134.9 L16.95 -135.9 Q17.8 -136.9 18.65 -136.9 L20.75 -137.1 22.65 -137.3 Q23.15 -137.3 23.7 -136.75 L24.25 -136.25 22.65 -136.55 Q18.55 -136.55 14.8 -132.25 L12.5 -129.05 12.3 -129.25 11.85 -128.1 10.2 -125.45 9.85 -124.6 8.2 -121.2 7.75 -119.7 Q10.6 -120.2 12.3 -120.85 13.8 -121.4 15.3 -122.5 17.35 -123.95 19.25 -123.9 L20.8 -123.55 21.35 -123.55 19.3 -122.75 19.0 -122.6 17.2 -121.65 16.35 -121.05 15.45 -122.2 14.75 -121.05 Q12.95 -121.05 11.7 -120.4 10.45 -119.8 10.45 -118.95 L8.1 -119.0 6.95 -119.0 7.15 -120.9 8.75 -124.65 11.25 -130.45 12.6 -132.3 8.9 -135.55 Q4.65 -138.4 -0.35 -138.4 -4.25 -138.4 -6.2 -137.05 -8.25 -135.65 -10.25 -131.65 L-10.25 -131.8 -10.3 -131.55 -10.75 -130.55 -12.0 -127.65 Q-10.95 -125.75 -10.95 -125.3 L-11.55 -124.4 -13.4 -122.7 -12.5 -121.45 Q-12.2 -120.35 -13.15 -117.6 L-13.25 -117.45 -15.05 -118.15 -16.45 -118.45 -17.6 -119.7 -19.1 -121.15 -20.35 -122.05 -19.6 -124.75 -20.65 -125.55 Q-20.95 -125.75 -20.95 -126.45 L-20.15 -127.2 Q-19.4 -128.15 -19.4 -129.35 -19.4 -130.75 -20.15 -131.75 L-20.95 -132.5 Q-20.95 -132.9 -20.15 -134.3 -19.3 -135.85 -19.1 -137.3 -18.8 -139.0 -17.2 -139.25 -15.65 -139.5 -15.65 -139.75 -15.65 -141.1 -7.4 -144.15 -6.75 -144.15 -6.0 -143.45 L-5.1 -142.8 -2.25 -144.65 -0.9 -143.4 Q-1.6 -143.85 -2.55 -143.85 -3.0 -143.85 -3.9 -142.85 L-5.0 -141.9 -7.25 -143.15 -7.5 -142.7 Q-8.2 -142.15 -11.05 -141.0 L-13.65 -139.95 -13.75 -140.0 -13.8 -139.9 -13.95 -139.85 Q-17.4 -137.75 -18.2 -135.9 -19.3 -133.25 -20.15 -132.4 L-18.65 -129.35 -20.25 -126.5 -18.75 -124.9 Q-18.95 -123.8 -19.65 -122.15 L-16.1 -119.9 -13.55 -118.1 -13.15 -120.75 -13.7 -121.45 -14.15 -122.75 -13.35 -123.35 Q-12.45 -124.15 -11.95 -125.45 L-12.2 -126.6 -12.45 -128.05 -11.8 -128.8 -11.2 -129.75 Q-11.15 -130.25 -11.45 -131.0 L-11.6 -131.55 -11.75 -132.3 -9.1 -135.4 -7.95 -136.7 -7.3 -137.25 Q-6.35 -137.9 1.45 -139.15 3.15 -139.15 5.6 -138.1 L7.0 -137.35 6.6 -139.85 Q3.8 -139.6 2.85 -140.45 2.25 -141.05 2.15 -142.6 1.8 -142.4 1.65 -142.35 L0.8 -142.3 Q0.45 -142.3 -0.15 -142.8 M24.95 -136.05 L27.9 -135.95 28.6 -135.85 Q28.4 -135.05 28.55 -134.55 27.8 -135.05 26.45 -135.55 L24.95 -136.05 M29.3 -133.9 L30.4 -133.5 Q30.3 -133.0 29.5 -132.4 L30.85 -131.35 Q31.4 -130.85 31.4 -129.4 31.4 -128.9 30.6 -128.2 29.75 -127.55 29.75 -127.05 L30.6 -124.8 Q30.9 -123.75 28.5 -123.3 L29.35 -124.7 Q30.05 -125.55 29.35 -126.8 L30.75 -129.6 Q29.75 -130.95 28.9 -131.3 28.5 -131.5 28.5 -132.25 28.5 -132.75 29.0 -132.8 29.5 -132.9 29.5 -133.4 L29.3 -133.9 M27.7 -121.0 L26.3 -119.85 26.1 -120.55 27.7 -121.0 M24.35 -123.2 L23.85 -123.7 22.9 -123.95 22.15 -123.8 22.5 -124.1 22.9 -124.65 24.35 -123.2" fill="#464646" fill-rule="evenodd" stroke="none"/>
  </g>
</svg>
