<?xml version="1.0" encoding="UTF-8" standalone="no"?>
<svg xmlns:ffdec="https://www.free-decompiler.com/flash" xmlns:xlink="http://www.w3.org/1999/xlink" ffdec:objectType="shape" height="35.1px" width="67.7px" xmlns="http://www.w3.org/2000/svg">
  <g transform="matrix(1.0, 0.0, 0.0, 1.0, 46.5, 134.85)">
    <path d="M8.25 -118.5 L7.25 -117.5 7.2 -118.35 7.2 -118.55 8.2 -118.5 8.25 -118.5" fill="#003507" fill-rule="evenodd" stroke="none"/>
    <path d="M13.0 -130.5 Q13.3 -130.55 13.95 -130.0 14.85 -129.2 14.9 -128.65 L12.75 -130.4 13.0 -130.5 M9.5 -125.85 L9.7 -126.35 Q9.9 -126.55 10.2 -126.55 L10.7 -126.35 10.9 -125.85 10.7 -125.35 10.2 -125.15 Q9.9 -125.15 9.7 -125.35 L9.5 -125.85 M6.15 -123.8 Q6.15 -124.15 6.5 -124.35 L7.25 -124.6 8.05 -124.35 8.35 -123.8 8.05 -123.2 7.25 -123.0 6.5 -123.2 Q6.15 -123.45 6.15 -123.8 M11.75 -129.65 L11.9 -129.4 11.75 -129.1 11.35 -129.0 11.25 -129.0 10.95 -129.1 10.8 -129.4 10.95 -129.65 11.0 -129.7 11.35 -129.8 11.75 -129.65 M14.7 -127.15 Q14.85 -127.4 15.1 -127.4 L15.5 -127.15 15.65 -126.65 15.5 -126.1 15.1 -125.9 14.75 -126.05 14.7 -126.1 14.55 -126.6 14.55 -126.65 14.7 -127.15 M13.35 -128.0 L13.5 -127.55 13.35 -127.1 13.0 -126.9 Q12.8 -126.9 12.65 -127.1 L12.5 -127.55 12.65 -128.0 Q12.8 -128.2 13.0 -128.2 L13.35 -128.0 M3.0 -117.75 L3.1 -117.1 2.9 -116.25 2.9 -116.2 2.45 -115.95 2.0 -116.25 1.8 -117.1 1.85 -117.35 1.55 -117.1 1.25 -116.9 Q-0.25 -116.15 -0.25 -115.9 L-0.15 -115.3 0.1 -115.0 0.5 -114.6 -0.4 -114.85 -0.55 -114.9 -1.8 -115.2 -5.15 -113.55 -8.05 -112.0 Q-9.65 -111.25 -10.9 -110.8 L-14.5 -109.35 -15.7 -109.75 -15.75 -109.75 -17.6 -110.55 Q-17.9 -109.5 -19.35 -109.2 L-20.75 -109.1 -20.0 -108.35 Q-19.65 -107.9 -19.65 -107.25 L-19.75 -105.95 -20.45 -106.4 -21.65 -107.95 -22.2 -108.7 -22.4 -108.9 -26.2 -108.5 -30.0 -108.1 -31.05 -110.15 -32.9 -109.95 Q-33.7 -109.75 -34.25 -109.25 L-34.6 -108.9 -35.45 -107.4 -35.75 -107.1 -36.75 -109.85 Q-37.35 -112.05 -37.35 -113.35 L-37.3 -115.0 Q-37.4 -116.0 -38.0 -116.65 -36.85 -116.6 -36.05 -117.45 -35.35 -118.2 -35.35 -118.95 -35.35 -119.95 -36.15 -121.3 -34.25 -120.35 -32.95 -122.25 -32.3 -123.25 -31.95 -124.6 L-31.9 -123.7 -31.85 -122.8 -30.95 -122.8 -31.85 -119.7 -33.05 -120.05 -33.35 -116.45 -33.55 -116.0 -33.65 -116.05 -34.1 -115.55 -32.9 -114.3 -30.2 -115.45 -28.2 -115.0 -26.2 -114.55 Q-25.6 -114.55 -25.45 -115.05 L-25.25 -115.85 -23.25 -114.4 Q-22.5 -113.95 -22.3 -113.95 -21.9 -113.95 -21.1 -114.7 -20.3 -115.5 -19.95 -115.5 L-18.65 -115.1 -17.95 -114.6 -16.55 -116.85 Q-15.1 -115.4 -13.85 -115.4 -13.25 -115.4 -12.95 -115.9 L-12.45 -116.75 -11.8 -116.1 Q-11.5 -115.8 -10.85 -115.8 -10.2 -115.8 -7.95 -116.8 L-5.85 -117.8 Q-5.6 -117.85 -5.3 -118.05 L-4.8 -118.35 -3.15 -118.65 Q-1.6 -118.8 0.75 -119.75 2.0 -118.8 2.05 -118.05 L2.05 -118.0 2.45 -118.25 2.9 -117.9 3.0 -117.75 M4.1 -119.25 L3.45 -119.25 3.3 -121.75 5.1 -120.1 4.6 -119.45 4.1 -119.25 M-27.0 -126.25 L-26.6 -126.4 -26.2 -126.25 -26.05 -125.85 -26.2 -125.45 Q-26.35 -125.3 -26.6 -125.3 -26.85 -125.3 -27.0 -125.45 L-27.15 -125.85 -27.0 -126.25 M-28.45 -125.05 Q-28.15 -124.75 -28.15 -124.3 -28.15 -123.85 -28.45 -123.5 -28.8 -123.2 -29.3 -123.2 -29.8 -123.2 -30.1 -123.5 L-30.45 -124.3 Q-30.45 -124.75 -30.1 -125.05 -29.8 -125.4 -29.3 -125.4 -28.8 -125.4 -28.45 -125.05 M-28.6 -128.15 L-28.35 -127.55 -28.6 -126.9 Q-28.85 -126.65 -29.2 -126.65 -29.55 -126.65 -29.8 -126.9 L-30.05 -127.55 -29.8 -128.15 -29.2 -128.45 Q-28.85 -128.45 -28.6 -128.15 M-36.75 -124.1 Q-36.4 -124.5 -35.85 -124.5 -35.3 -124.5 -34.9 -124.1 -34.55 -123.75 -34.55 -123.2 -34.55 -122.65 -34.9 -122.25 -35.3 -121.9 -35.85 -121.9 -36.4 -121.9 -36.75 -122.25 -37.15 -122.65 -37.15 -123.2 -37.15 -123.75 -36.75 -124.1 M-7.5 -109.1 L-7.8 -109.65 -7.5 -110.15 -6.75 -110.4 -6.0 -110.15 -5.7 -109.65 Q-5.7 -109.35 -6.0 -109.1 L-6.75 -108.9 -7.5 -109.1 M-17.1 -107.7 L-16.4 -108.0 Q-16.0 -108.0 -15.7 -107.7 -15.4 -107.45 -15.4 -107.05 -15.4 -106.65 -15.7 -106.35 -16.0 -106.1 -16.4 -106.1 -16.8 -106.1 -17.1 -106.35 L-17.4 -107.05 -17.1 -107.7 M-11.55 -110.4 Q-10.85 -110.4 -10.35 -109.85 -9.85 -109.35 -9.85 -108.65 -9.85 -107.95 -10.35 -107.4 -10.85 -106.9 -11.55 -106.9 -12.25 -106.9 -12.75 -107.4 -13.25 -107.95 -13.25 -108.65 -13.25 -109.35 -12.75 -109.85 -12.25 -110.4 -11.55 -110.4 M-4.95 -111.9 L-4.7 -112.4 -4.15 -112.65 -3.55 -112.4 -3.35 -111.9 -3.55 -111.35 Q-3.8 -111.15 -4.15 -111.15 L-4.7 -111.35 -4.95 -111.9 M-27.5 -105.55 L-27.75 -106.4 -27.5 -107.25 Q-27.3 -107.6 -27.0 -107.6 -26.7 -107.6 -26.45 -107.25 L-26.25 -106.4 -26.45 -105.55 Q-26.7 -105.2 -27.0 -105.2 -27.3 -105.2 -27.5 -105.55 M-29.4 -106.1 Q-29.25 -105.9 -29.25 -105.6 -29.25 -105.3 -29.4 -105.05 L-29.85 -104.85 Q-30.1 -104.85 -30.25 -105.05 L-30.45 -105.6 -30.25 -106.1 -29.85 -106.35 -29.4 -106.1 M-33.5 -106.7 L-33.9 -107.25 -33.5 -107.75 -32.55 -108.0 -31.6 -107.75 -31.2 -107.25 -31.6 -106.7 -32.55 -106.5 -33.5 -106.7 M-39.0 -112.5 L-38.75 -111.9 -39.0 -111.25 Q-39.3 -111.0 -39.65 -111.0 -40.0 -111.0 -40.25 -111.25 L-40.55 -111.9 -40.25 -112.5 -39.65 -112.8 -39.0 -112.5 M-40.2 -117.15 L-39.15 -116.25 -38.4 -115.1 -38.9 -114.6 -39.65 -114.95 Q-40.4 -115.7 -40.5 -117.0 L-40.2 -117.15 M-37.4 -118.55 Q-37.7 -118.3 -38.35 -118.3 L-40.45 -118.6 -39.4 -119.4 Q-39.4 -120.0 -36.45 -120.0 L-36.75 -119.2 -37.4 -118.55" fill="#ffffff" fill-rule="evenodd" stroke="none"/>
    <path d="M-43.3 -119.15 L-43.3 -119.2 Q-42.75 -120.05 -42.75 -120.45 -42.75 -120.95 -41.85 -120.95 -41.0 -121.0 -41.0 -121.5 -41.0 -122.5 -42.0 -124.7 -40.0 -124.6 -39.3 -125.5 L-37.8 -128.15 Q-36.5 -127.05 -35.5 -127.05 -35.0 -127.05 -34.55 -127.95 -34.1 -128.9 -33.6 -128.9 -33.1 -128.9 -33.3 -128.05 -33.5 -127.2 -33.0 -127.2 -31.75 -127.2 -31.15 -129.05 -30.8 -130.15 -30.8 -131.1 -28.4 -129.05 -27.35 -129.05 -25.15 -129.05 -23.3 -131.05 L-22.25 -129.4 -21.4 -127.7 -29.7 -119.35 -29.6 -117.5 -31.15 -115.95 -31.3 -115.3 -29.3 -116.6 Q-28.75 -115.3 -27.75 -115.3 L-26.85 -115.7 Q-25.75 -116.3 -25.05 -117.2 -23.9 -114.75 -22.6 -114.75 -22.4 -114.75 -21.4 -115.5 -20.35 -116.25 -19.9 -116.25 -18.95 -116.25 -18.2 -115.5 L-16.95 -117.9 Q-15.25 -116.45 -14.25 -116.45 -13.75 -116.45 -13.35 -117.3 -12.95 -118.2 -12.45 -118.2 L-11.65 -117.75 Q-11.4 -117.35 -10.9 -117.35 -9.95 -117.35 -8.0 -118.45 -5.8 -119.7 -5.55 -120.9 L-4.75 -120.35 -3.65 -120.15 Q-3.0 -120.15 -2.8 -120.45 L-1.85 -122.3 -0.8 -121.7 0.35 -121.45 Q1.55 -121.45 5.1 -124.85 L9.65 -129.55 10.35 -130.35 14.85 -131.85 Q16.95 -128.6 16.95 -127.6 16.95 -125.85 15.25 -124.65 14.35 -124.05 13.05 -123.6 L7.3 -121.6 7.35 -121.15 7.55 -120.5 Q7.65 -120.3 7.9 -120.35 L8.15 -120.5 7.0 -118.35 6.75 -118.15 6.1 -118.15 3.95 -118.05 3.0 -117.75 2.9 -117.9 2.45 -118.25 2.05 -118.0 2.05 -118.05 Q2.0 -118.8 0.75 -119.75 -1.6 -118.8 -3.15 -118.65 L-4.8 -118.35 -5.3 -118.05 Q-5.6 -117.85 -5.85 -117.8 L-7.95 -116.8 Q-10.2 -115.8 -10.85 -115.8 -11.5 -115.8 -11.8 -116.1 L-12.45 -116.75 -12.95 -115.9 Q-13.25 -115.4 -13.85 -115.4 -15.1 -115.4 -16.55 -116.85 L-17.95 -114.6 -18.65 -115.1 -19.95 -115.5 Q-20.3 -115.5 -21.1 -114.7 -21.9 -113.95 -22.3 -113.95 -22.5 -113.95 -23.25 -114.4 L-25.25 -115.85 -25.45 -115.05 Q-25.6 -114.55 -26.2 -114.55 L-28.2 -115.0 -30.2 -115.45 -32.9 -114.3 -34.1 -115.55 -33.65 -116.05 -33.55 -116.0 -33.35 -116.45 -33.05 -120.05 -31.85 -119.7 -30.95 -122.8 -31.85 -122.8 -31.9 -123.7 -31.95 -124.6 Q-32.3 -123.25 -32.95 -122.25 -34.25 -120.35 -36.15 -121.3 -35.35 -119.95 -35.35 -118.95 -35.35 -118.2 -36.05 -117.45 -36.85 -116.6 -38.0 -116.65 -37.4 -116.0 -37.3 -115.0 L-37.35 -113.35 Q-37.35 -112.05 -36.75 -109.85 L-35.75 -107.1 -35.45 -107.4 -34.6 -108.9 -34.25 -109.25 Q-33.7 -109.75 -32.9 -109.95 L-31.05 -110.15 -30.0 -108.1 -26.2 -108.5 -22.4 -108.9 -22.2 -108.7 -21.65 -107.95 -20.45 -106.4 -19.75 -105.95 -19.65 -107.25 Q-19.65 -107.9 -20.0 -108.35 L-20.75 -109.1 -19.35 -109.2 Q-17.9 -109.5 -17.6 -110.55 L-15.75 -109.75 -15.7 -109.75 -14.5 -109.35 -10.9 -110.8 Q-9.65 -111.25 -8.05 -112.0 L-5.15 -113.55 -1.8 -115.2 -0.55 -114.9 -0.4 -114.85 0.5 -114.6 0.1 -115.0 -0.15 -115.3 -0.25 -115.9 Q-0.25 -116.15 1.25 -116.9 L1.55 -117.1 1.85 -117.35 1.8 -117.1 2.0 -116.25 2.45 -115.95 2.9 -116.2 4.4 -115.7 3.8 -114.35 Q3.05 -113.0 2.0 -113.3 1.6 -111.75 1.5 -110.1 0.2 -110.0 -1.05 -109.05 -2.3 -108.2 -2.65 -108.2 -3.25 -108.2 -3.55 -107.05 L-4.2 -104.4 -7.55 -106.1 -9.35 -102.9 Q-10.15 -103.8 -11.05 -103.9 L-11.85 -102.6 -12.55 -103.05 -14.2 -103.8 -16.1 -100.95 Q-17.15 -102.2 -19.55 -103.8 L-20.7 -101.55 -22.4 -103.25 -24.45 -101.7 -25.1 -102.7 Q-25.9 -103.75 -26.55 -103.75 -27.05 -103.75 -28.3 -102.8 -29.55 -101.85 -30.05 -101.85 -31.05 -101.85 -33.55 -105.0 L-36.2 -102.6 -36.9 -104.25 Q-37.75 -105.8 -38.8 -106.15 L-40.65 -105.55 Q-41.5 -105.15 -41.05 -106.75 L-41.35 -109.9 -42.85 -109.9 -42.3 -111.95 Q-41.75 -114.15 -41.75 -114.8 L-42.35 -115.55 Q-43.35 -116.25 -45.5 -116.7 L-44.1 -118.2 -43.3 -119.15 M6.15 -123.8 Q6.15 -123.45 6.5 -123.2 L7.25 -123.0 8.05 -123.2 8.35 -123.8 8.05 -124.35 7.25 -124.6 6.5 -124.35 Q6.15 -124.15 6.15 -123.8 M9.5 -125.85 L9.7 -125.35 Q9.9 -125.15 10.2 -125.15 L10.7 -125.35 10.9 -125.85 10.7 -126.35 10.2 -126.55 Q9.9 -126.55 9.7 -126.35 L9.5 -125.85 M13.0 -130.5 L12.75 -130.4 14.9 -128.65 Q14.85 -129.2 13.95 -130.0 13.3 -130.55 13.0 -130.5 M13.35 -128.0 L13.0 -128.2 Q12.8 -128.2 12.65 -128.0 L12.5 -127.55 12.65 -127.1 Q12.8 -126.9 13.0 -126.9 L13.35 -127.1 13.5 -127.55 13.35 -128.0 M14.7 -127.15 L14.55 -126.65 14.55 -126.6 14.7 -126.1 14.75 -126.05 15.1 -125.9 15.5 -126.1 15.65 -126.65 15.5 -127.15 15.1 -127.4 Q14.85 -127.4 14.7 -127.15 M11.75 -129.65 L11.35 -129.8 11.0 -129.7 10.95 -129.65 10.8 -129.4 10.95 -129.1 11.25 -129.0 11.35 -129.0 11.75 -129.1 11.9 -129.4 11.75 -129.65 M4.1 -119.25 L4.6 -119.45 5.1 -120.1 3.3 -121.75 3.45 -119.25 4.1 -119.25 M-36.75 -124.1 Q-37.15 -123.75 -37.15 -123.2 -37.15 -122.65 -36.75 -122.25 -36.4 -121.9 -35.85 -121.9 -35.3 -121.9 -34.9 -122.25 -34.55 -122.65 -34.55 -123.2 -34.55 -123.75 -34.9 -124.1 -35.3 -124.5 -35.85 -124.5 -36.4 -124.5 -36.75 -124.1 M-28.6 -128.15 Q-28.85 -128.45 -29.2 -128.45 L-29.8 -128.15 -30.05 -127.55 -29.8 -126.9 Q-29.55 -126.65 -29.2 -126.65 -28.85 -126.65 -28.6 -126.9 L-28.35 -127.55 -28.6 -128.15 M-28.45 -125.05 Q-28.8 -125.4 -29.3 -125.4 -29.8 -125.4 -30.1 -125.05 -30.45 -124.75 -30.45 -124.3 L-30.1 -123.5 Q-29.8 -123.2 -29.3 -123.2 -28.8 -123.2 -28.45 -123.5 -28.15 -123.85 -28.15 -124.3 -28.15 -124.75 -28.45 -125.05 M-27.0 -126.25 L-27.15 -125.85 -27.0 -125.45 Q-26.85 -125.3 -26.6 -125.3 -26.35 -125.3 -26.2 -125.45 L-26.05 -125.85 -26.2 -126.25 -26.6 -126.4 -27.0 -126.25 M-37.4 -118.55 L-36.75 -119.2 -36.45 -120.0 Q-39.4 -120.0 -39.4 -119.4 L-40.45 -118.6 -38.35 -118.3 Q-37.7 -118.3 -37.4 -118.55 M-40.2 -117.15 L-40.5 -117.0 Q-40.4 -115.7 -39.65 -114.95 L-38.9 -114.6 -38.4 -115.1 -39.15 -116.25 -40.2 -117.15 M-39.0 -112.5 L-39.65 -112.8 -40.25 -112.5 -40.55 -111.9 -40.25 -111.25 Q-40.0 -111.0 -39.65 -111.0 -39.3 -111.0 -39.0 -111.25 L-38.75 -111.9 -39.0 -112.5 M-33.5 -106.7 L-32.55 -106.5 -31.6 -106.7 -31.2 -107.25 -31.6 -107.75 -32.55 -108.0 -33.5 -107.75 -33.9 -107.25 -33.5 -106.7 M-29.4 -106.1 L-29.85 -106.35 -30.25 -106.1 -30.45 -105.6 -30.25 -105.05 Q-30.1 -104.85 -29.85 -104.85 L-29.4 -105.05 Q-29.25 -105.3 -29.25 -105.6 -29.25 -105.9 -29.4 -106.1 M-27.5 -105.55 Q-27.3 -105.2 -27.0 -105.2 -26.7 -105.2 -26.45 -105.55 L-26.25 -106.4 -26.45 -107.25 Q-26.7 -107.6 -27.0 -107.6 -27.3 -107.6 -27.5 -107.25 L-27.75 -106.4 -27.5 -105.55 M-4.95 -111.9 L-4.7 -111.35 -4.15 -111.15 Q-3.8 -111.15 -3.55 -111.35 L-3.35 -111.9 -3.55 -112.4 -4.15 -112.65 -4.7 -112.4 -4.95 -111.9 M-11.55 -110.4 Q-12.25 -110.4 -12.75 -109.85 -13.25 -109.35 -13.25 -108.65 -13.25 -107.95 -12.75 -107.4 -12.25 -106.9 -11.55 -106.9 -10.85 -106.9 -10.35 -107.4 -9.85 -107.95 -9.85 -108.65 -9.85 -109.35 -10.35 -109.85 -10.85 -110.4 -11.55 -110.4 M-17.1 -107.7 L-17.4 -107.05 -17.1 -106.35 Q-16.8 -106.1 -16.4 -106.1 -16.0 -106.1 -15.7 -106.35 -15.4 -106.65 -15.4 -107.05 -15.4 -107.45 -15.7 -107.7 -16.0 -108.0 -16.4 -108.0 L-17.1 -107.7 M-7.5 -109.1 L-6.75 -108.9 -6.0 -109.1 Q-5.7 -109.35 -5.7 -109.65 L-6.0 -110.15 -6.75 -110.4 -7.5 -110.15 -7.8 -109.65 -7.5 -109.1" fill="#e0e0e0" fill-rule="evenodd" stroke="none"/>
    <path d="M-26.2 -118.25 L-26.3 -118.2 -26.25 -118.1 -26.5 -116.55 -26.55 -116.4 -26.95 -116.25 -29.6 -117.5 -29.7 -119.35 -21.4 -127.7 -22.25 -129.4 -23.3 -131.05 -21.95 -132.3 -21.1 -130.8 Q-20.55 -130.15 -18.85 -130.15 -18.3 -130.15 -17.35 -130.8 -16.25 -131.6 -15.65 -132.6 -14.6 -131.55 -13.6 -131.55 -13.05 -131.55 -12.5 -132.15 -12.1 -132.65 -11.9 -132.45 -11.85 -131.45 -13.15 -129.95 L-14.3 -128.85 Q-16.55 -126.8 -17.2 -126.8 -19.95 -126.8 -23.25 -123.1 -25.55 -120.45 -26.2 -118.25 M10.35 -130.35 L11.25 -132.65 11.7 -131.75 12.25 -131.9 Q12.8 -132.1 13.4 -132.45 14.7 -133.15 15.05 -133.85 L15.45 -132.6 16.65 -132.55 Q17.75 -132.3 17.55 -131.45 18.55 -130.6 19.5 -130.35 L18.05 -128.45 20.4 -126.3 18.9 -125.55 Q17.45 -124.6 17.55 -123.6 L15.6 -123.5 15.5 -123.5 Q14.0 -123.2 14.0 -121.95 14.0 -122.5 13.7 -122.35 L13.6 -122.3 12.6 -122.0 Q12.0 -122.0 11.65 -121.05 L10.95 -118.85 Q10.85 -119.55 10.1 -119.85 9.4 -118.9 8.25 -118.55 L8.2 -118.5 7.2 -118.55 7.2 -118.35 7.0 -118.35 8.15 -120.5 7.9 -120.35 Q7.65 -120.3 7.55 -120.5 L7.35 -121.15 7.3 -121.6 13.05 -123.6 Q14.35 -124.05 15.25 -124.65 16.95 -125.85 16.95 -127.6 16.95 -128.6 14.85 -131.85 L10.35 -130.35 M6.75 -118.15 L6.8 -116.0 4.4 -115.7 2.9 -116.2 2.9 -116.25 3.1 -117.1 3.0 -117.75 3.95 -118.05 6.1 -118.15 6.75 -118.15" fill="#b4b4b4" fill-rule="evenodd" stroke="none"/>
    <path d="M-26.25 -118.1 L-25.85 -117.5 -24.3 -117.25 -22.55 -115.65 Q-21.6 -116.4 -20.55 -116.8 L-19.6 -117.1 -18.5 -117.2 Q-18.0 -117.45 -17.1 -118.95 -15.55 -117.6 -14.55 -117.6 -14.05 -117.6 -13.25 -118.4 L-12.0 -119.2 Q-11.35 -119.2 -11.25 -118.75 L-11.25 -118.35 -9.45 -120.15 -6.85 -119.7 Q-6.4 -120.95 -5.65 -121.45 L-5.05 -121.75 Q-4.4 -121.55 -3.45 -122.4 L-2.9 -122.8 -2.35 -122.95 -1.45 -123.25 Q-0.7 -123.1 0.0 -122.55 L0.85 -124.0 Q1.5 -125.1 1.85 -125.1 2.85 -125.1 3.2 -125.5 L8.0 -129.5 9.25 -130.15 Q9.8 -130.6 11.2 -133.55 L11.3 -133.8 11.6 -133.05 12.25 -132.95 Q12.75 -132.95 13.85 -133.9 L15.45 -134.85 Q16.45 -134.85 15.95 -134.75 16.1 -133.8 18.95 -133.25 L18.2 -131.3 20.3 -130.5 19.15 -128.6 Q20.45 -128.1 21.2 -125.45 L18.3 -124.8 18.5 -122.6 15.3 -122.6 15.4 -120.55 13.9 -120.5 13.0 -120.7 12.8 -120.95 11.75 -119.15 10.65 -117.45 Q10.15 -118.35 8.25 -118.5 L8.2 -118.5 8.25 -118.55 Q9.4 -118.9 10.1 -119.85 10.85 -119.55 10.95 -118.85 L11.65 -121.05 Q12.0 -122.0 12.6 -122.0 L13.6 -122.3 13.7 -122.35 Q14.0 -122.5 14.0 -121.95 14.0 -123.2 15.5 -123.5 L15.6 -123.5 17.55 -123.6 Q17.45 -124.6 18.9 -125.55 L20.4 -126.3 18.05 -128.45 19.5 -130.35 Q18.55 -130.6 17.55 -131.45 17.75 -132.3 16.65 -132.55 L15.45 -132.6 15.05 -133.85 Q14.7 -133.15 13.4 -132.45 12.8 -132.1 12.25 -131.9 L11.7 -131.75 11.25 -132.65 10.35 -130.35 9.65 -129.55 5.1 -124.85 Q1.55 -121.45 0.35 -121.45 L-0.8 -121.7 -1.85 -122.3 -2.8 -120.45 Q-3.0 -120.15 -3.65 -120.15 L-4.75 -120.35 -5.55 -120.9 Q-5.8 -119.7 -8.0 -118.45 -9.95 -117.35 -10.9 -117.35 -11.4 -117.35 -11.65 -117.75 L-12.45 -118.2 Q-12.95 -118.2 -13.35 -117.3 -13.75 -116.45 -14.25 -116.45 -15.25 -116.45 -16.95 -117.9 L-18.2 -115.5 Q-18.95 -116.25 -19.9 -116.25 -20.35 -116.25 -21.4 -115.5 -22.4 -114.75 -22.6 -114.75 -23.9 -114.75 -25.05 -117.2 -25.75 -116.3 -26.85 -115.7 L-27.75 -115.3 Q-28.75 -115.3 -29.3 -116.6 L-31.3 -115.3 -31.15 -115.95 -29.6 -117.5 -26.95 -116.25 -26.55 -116.4 -26.5 -116.55 -26.25 -118.1 M7.25 -117.5 L7.4 -115.1 5.3 -114.7 Q4.65 -114.35 4.35 -113.65 L3.95 -111.5 2.25 -112.2 Q2.7 -110.45 2.45 -110.05 L-0.05 -108.25 Q-2.25 -106.75 -3.1 -105.2 -3.65 -103.6 -4.2 -102.9 L-7.35 -105.0 -9.05 -101.45 -10.65 -102.75 -11.7 -100.7 -13.95 -102.75 Q-14.85 -101.3 -16.25 -99.75 L-19.35 -102.65 -20.4 -101.0 Q-20.6 -101.0 -22.65 -102.35 L-24.5 -100.85 Q-25.6 -101.5 -26.5 -102.75 L-28.25 -101.65 Q-29.6 -100.85 -29.95 -100.85 L-31.25 -101.4 Q-32.75 -102.25 -33.65 -103.85 L-34.05 -103.35 -35.0 -102.1 -35.35 -101.65 Q-35.6 -101.3 -36.15 -101.3 L-37.25 -102.35 Q-38.35 -103.7 -38.55 -105.45 -39.15 -104.85 -40.2 -104.85 -41.25 -104.85 -42.15 -105.4 L-41.5 -106.6 Q-41.25 -107.2 -41.25 -107.85 L-43.8 -110.1 Q-43.8 -111.1 -42.5 -114.8 L-46.5 -116.3 -44.75 -118.2 Q-43.9 -118.95 -43.3 -119.15 L-44.1 -118.2 -45.5 -116.7 Q-43.35 -116.25 -42.35 -115.55 L-41.75 -114.8 Q-41.75 -114.15 -42.3 -111.95 L-42.85 -109.9 -41.35 -109.9 -41.05 -106.75 Q-41.5 -105.15 -40.65 -105.55 L-38.8 -106.15 Q-37.75 -105.8 -36.9 -104.25 L-36.2 -102.6 -33.55 -105.0 Q-31.05 -101.85 -30.05 -101.85 -29.55 -101.85 -28.3 -102.8 -27.05 -103.75 -26.55 -103.75 -25.9 -103.75 -25.1 -102.7 L-24.45 -101.7 -22.4 -103.25 -20.7 -101.55 -19.55 -103.8 Q-17.15 -102.2 -16.1 -100.95 L-14.2 -103.8 -12.55 -103.05 -11.85 -102.6 -11.05 -103.9 Q-10.15 -103.8 -9.35 -102.9 L-7.55 -106.1 -4.2 -104.4 -3.55 -107.05 Q-3.25 -108.2 -2.65 -108.2 -2.3 -108.2 -1.05 -109.05 0.2 -110.0 1.5 -110.1 1.6 -111.75 2.0 -113.3 3.05 -113.0 3.8 -114.35 L4.4 -115.7 6.8 -116.0 6.75 -118.15 7.0 -118.35 7.2 -118.35 7.25 -117.5 M-43.3 -119.2 L-44.3 -120.45 Q-44.5 -121.05 -41.85 -122.1 L-42.9 -125.0 Q-39.9 -125.95 -39.0 -126.95 L-37.5 -128.95 Q-36.85 -128.9 -35.55 -127.8 L-33.45 -129.65 -32.85 -128.0 Q-31.95 -129.25 -30.9 -132.0 -28.45 -130.05 -27.45 -130.05 -26.95 -130.05 -26.7 -130.7 -26.45 -131.4 -25.95 -131.4 -25.2 -130.75 -24.55 -130.7 -23.2 -130.55 -21.65 -133.4 L-20.6 -131.8 Q-20.25 -131.25 -19.65 -131.25 -19.35 -131.25 -17.8 -132.55 L-16.2 -133.85 Q-15.7 -133.85 -14.95 -133.2 -14.25 -132.6 -13.75 -132.6 -13.25 -132.6 -12.9 -133.15 -12.6 -133.75 -12.1 -133.75 L-10.95 -133.5 -10.6 -133.3 -10.65 -132.4 Q-10.75 -130.55 -12.1 -128.55 -13.25 -126.95 -13.6 -126.95 -14.6 -126.95 -15.15 -125.3 -16.25 -125.3 -16.7 -125.9 L-17.6 -125.1 Q-18.4 -124.2 -18.95 -124.2 L-21.05 -124.5 Q-20.55 -123.0 -21.9 -121.9 -23.0 -121.0 -24.0 -121.0 -24.55 -121.0 -24.75 -120.65 L-24.75 -121.05 Q-24.8 -119.55 -26.2 -118.25 -25.55 -120.45 -23.25 -123.1 -19.95 -126.8 -17.2 -126.8 -16.55 -126.8 -14.3 -128.85 L-13.15 -129.95 Q-11.85 -131.45 -11.9 -132.45 -12.1 -132.65 -12.5 -132.15 -13.05 -131.55 -13.6 -131.55 -14.6 -131.55 -15.65 -132.6 -16.25 -131.6 -17.35 -130.8 -18.3 -130.15 -18.85 -130.15 -20.55 -130.15 -21.1 -130.8 L-21.95 -132.3 -23.3 -131.05 Q-25.15 -129.05 -27.35 -129.05 -28.4 -129.05 -30.8 -131.1 -30.8 -130.15 -31.15 -129.05 -31.75 -127.2 -33.0 -127.2 -33.5 -127.2 -33.3 -128.05 -33.1 -128.9 -33.6 -128.9 -34.1 -128.9 -34.55 -127.95 -35.0 -127.05 -35.5 -127.05 -36.5 -127.05 -37.8 -128.15 L-39.3 -125.5 Q-40.0 -124.6 -42.0 -124.7 -41.0 -122.5 -41.0 -121.5 -41.0 -121.0 -41.85 -120.95 -42.75 -120.95 -42.75 -120.45 -42.75 -120.05 -43.3 -119.2" fill="#464646" fill-rule="evenodd" stroke="none"/>
  </g>
</svg>
