<?xml version="1.0" encoding="UTF-8" standalone="no"?>
<svg xmlns:ffdec="https://www.free-decompiler.com/flash" xmlns:xlink="http://www.w3.org/1999/xlink" ffdec:objectType="shape" height="165.45px" width="65.65px" xmlns="http://www.w3.org/2000/svg">
  <g transform="matrix(1.0, 0.0, 0.0, 1.0, 33.05, 133.1)">
    <path d="M27.6 -27.95 L29.0 -28.6 31.15 -19.3 Q32.9 -9.65 32.55 -0.05 31.95 15.65 23.5 24.3 15.0 32.95 2.7 32.3 -9.55 31.65 -18.1 22.2 -26.7 12.75 -27.75 -1.3 -28.45 -10.3 -27.9 -19.3 L-27.1 -28.15 -25.65 -27.6 -26.1 -23.1 -26.3 -21.0 -26.4 -19.3 Q-26.95 -10.35 -26.25 -1.4 -25.2 12.15 -17.0 21.2 -8.85 30.15 2.8 30.8 14.4 31.45 22.45 23.25 30.45 14.95 31.05 -0.1 31.4 -9.65 29.6 -19.3 L28.8 -23.3 28.6 -24.2 27.6 -27.95" fill="#101431" fill-rule="evenodd" stroke="none"/>
    <path d="M19.4 -25.75 L22.5 -26.4 27.6 -27.95 28.6 -24.2 28.8 -23.3 29.6 -19.3 Q31.4 -9.65 31.05 -0.1 30.45 14.95 22.45 23.25 14.4 31.45 2.8 30.8 -8.85 30.15 -17.0 21.2 -25.2 12.15 -26.25 -1.4 -26.95 -10.35 -26.4 -19.3 L-26.3 -21.0 -26.1 -23.1 -25.65 -27.6 -21.55 -26.4 Q-12.45 -24.2 0.45 -24.2 10.35 -24.2 18.05 -25.5 L18.25 -25.35 Q18.45 -25.15 18.8 -25.2 L19.25 -25.5 19.4 -25.75 M20.25 -20.2 L20.1 -21.1 19.8 -21.6 19.25 -21.75 18.75 -21.45 18.6 -20.9 18.75 -19.75 17.0 -19.3 Q12.0 -18.05 7.15 -17.95 L-12.25 -19.3 -17.65 -19.9 -17.7 -19.3 -18.2 -15.8 -18.65 -12.75 Q-18.65 9.05 -11.3 18.6 -5.55 26.05 4.9 26.05 13.6 26.05 18.8 19.85 L19.0 19.8 19.4 19.35 19.5 18.95 Q21.2 16.65 22.45 13.65 25.05 7.4 25.25 0.4 25.25 -3.8 24.6 -7.8 L23.0 -19.3 22.75 -21.1 20.25 -20.2 M15.95 23.4 L13.6 26.5 13.4 27.05 13.65 27.55 14.2 27.75 14.7 27.55 17.25 24.15 17.35 23.6 17.0 23.1 16.45 23.05 Q16.1 23.1 15.95 23.4" fill="#171f5b" fill-rule="evenodd" stroke="none"/>
    <path d="M12.35 -8.9 L12.35 2.65 12.55 5.5 12.55 7.9 Q12.25 10.15 10.7 10.15 L9.3 10.1 Q8.2 8.1 7.95 4.85 L7.45 -0.55 Q6.65 -4.85 1.25 -7.0 L-2.35 -8.3 Q-3.95 -9.0 -3.95 -9.8 L-3.85 -10.85 -3.35 -11.3 Q-2.5 -12.05 0.35 -12.25 3.3 -12.45 4.15 -11.8 8.7 -12.4 9.75 -11.9 11.35 -10.9 12.35 -8.9 M-6.95 -83.45 L-6.7 -82.8 Q-5.05 -78.65 -2.7 -70.3 0.35 -59.4 2.65 -52.75 L-6.8 -60.5 -12.85 -55.55 -12.85 -68.75 -13.4 -80.85 -13.25 -81.9 Q-12.95 -81.25 -12.55 -77.3 L-12.2 -73.45 -11.95 -63.15 -12.05 -57.2 -6.85 -61.5 1.0 -55.0 -7.15 -81.4 Q-7.55 -83.1 -7.15 -83.35 L-7.1 -83.4 -6.95 -83.45 M-21.1 -84.5 Q-22.4 -80.65 -25.75 -73.2 L-27.35 -69.8 -27.55 -69.35 -28.8 -66.65 -29.15 -65.95 -23.05 -68.05 -19.55 -62.3 Q-18.95 -68.7 -18.2 -73.15 -17.6 -77.05 -16.4 -82.35 L-15.95 -82.25 -19.15 -60.55 -23.25 -67.35 -30.35 -64.85 -28.85 -67.95 -27.35 -71.1 -27.05 -71.75 -23.5 -79.8 -21.55 -84.8 -21.1 -84.5" fill="#25349f" fill-rule="evenodd" stroke="none"/>
    <path d="M2.85 -101.25 L0.2 -101.25 -4.1 -100.85 -4.25 -100.8 Q-4.85 -104.35 -6.45 -107.75 L-1.2 -112.95 -0.5 -112.0 Q1.1 -109.7 2.0 -106.65 2.8 -103.9 2.85 -101.25 M-4.7 -97.45 L-4.6 -97.45 2.4 -96.75 Q2.3 -95.5 1.45 -93.45 0.35 -91.0 -1.4 -88.95 L-3.25 -90.4 -6.85 -93.85 -6.25 -94.8 -5.65 -95.75 -4.7 -97.45 M12.35 -8.9 Q11.35 -10.9 9.75 -11.9 8.7 -12.4 4.15 -11.8 3.3 -12.45 0.35 -12.25 -2.5 -12.05 -3.35 -11.3 L-3.85 -10.85 -3.95 -9.8 Q-3.95 -9.0 -2.35 -8.3 L1.25 -7.0 Q6.65 -4.85 7.45 -0.55 L7.95 4.85 Q8.2 8.1 9.3 10.1 L10.7 10.15 Q12.25 10.15 12.55 7.9 L12.55 5.5 12.35 2.65 12.35 -8.9 M4.85 18.65 Q-6.1 18.5 -9.2 3.25 -10.65 -4.0 -10.65 -13.9 -10.65 -14.95 -9.9 -15.3 L-7.5 -15.25 4.7 -14.65 Q11.25 -14.65 16.35 -16.0 17.0 -16.2 17.4 -10.2 17.75 -4.2 16.8 7.3 15.8 18.8 4.85 18.65 M-17.15 -113.0 Q-17.15 -112.45 -17.7 -112.45 -18.05 -112.45 -18.2 -113.75 L-18.25 -114.4 Q-18.35 -115.5 -18.65 -116.0 -18.9 -116.35 -19.25 -116.35 L-21.25 -115.2 Q-22.05 -115.2 -21.95 -115.55 L-19.4 -117.55 Q-18.45 -118.15 -17.9 -117.8 L-17.7 -117.6 -17.5 -117.0 -17.15 -113.0 M-11.5 -119.35 L-8.55 -118.45 Q-4.65 -117.05 -3.65 -115.55 L-8.0 -109.85 Q-9.25 -110.95 -11.1 -111.4 L-12.0 -111.5 -12.1 -111.55 -12.1 -112.2 -12.05 -115.25 -11.45 -119.25 -11.4 -119.35 -11.5 -119.35 M-16.9 -86.15 L-16.9 -85.05 Q-16.95 -84.1 -17.35 -84.1 -18.15 -84.1 -18.55 -84.5 L-18.8 -85.05 -18.35 -85.25 Q-17.95 -85.75 -17.95 -87.1 -17.15 -88.0 -16.95 -87.3 L-16.9 -86.15 M-9.9 -83.15 L-10.3 -84.15 -11.25 -86.1 -12.1 -88.05 -12.35 -88.85 -12.05 -88.95 -10.6 -89.55 -9.15 -90.5 -5.4 -85.3 Q-6.15 -84.55 -7.7 -83.85 L-9.9 -83.15 M-7.15 -83.35 Q-7.55 -83.1 -7.15 -81.4 L1.0 -55.0 -6.85 -61.5 -12.05 -57.2 -11.95 -63.15 -12.2 -73.45 -12.55 -77.3 Q-12.95 -81.25 -13.25 -81.9 L-12.45 -81.75 -11.85 -81.55 -11.8 -81.5 -11.7 -81.35 -11.3 -80.45 Q-10.35 -78.05 -8.3 -70.15 L-8.75 -81.05 -8.7 -81.05 -8.8 -82.55 -8.8 -82.6 -7.15 -83.35 M-20.15 -83.7 L-19.7 -83.05 -19.7 -82.75 -20.35 -78.75 -21.1 -74.75 -17.9 -82.6 -17.9 -82.7 -16.4 -82.35 Q-17.6 -77.05 -18.2 -73.15 -18.95 -68.7 -19.55 -62.3 L-23.05 -68.05 -29.15 -65.95 -28.8 -66.65 -27.55 -69.35 -27.35 -69.8 -25.75 -73.2 Q-22.4 -80.65 -21.1 -84.5 L-20.15 -83.7" fill="#202d87" fill-rule="evenodd" stroke="none"/>
    <path d="M2.85 -101.25 L2.85 -101.05 2.8 -99.75 2.75 -99.6 -4.1 -99.65 -5.7 -99.8 Q-5.7 -103.85 -7.1 -107.4 L-6.95 -107.45 -6.45 -107.75 Q-4.85 -104.35 -4.25 -100.8 L-4.1 -100.85 0.2 -101.25 2.85 -101.25 M-1.4 -88.95 L-1.5 -88.8 -1.65 -88.65 -2.25 -88.0 -2.4 -87.85 -8.75 -93.8 -7.25 -95.75 Q-6.65 -96.4 -5.95 -98.0 L-5.45 -97.6 -4.7 -97.45 -5.65 -95.75 -6.25 -94.8 -6.85 -93.85 -3.25 -90.4 -1.4 -88.95 M18.75 -19.75 L18.85 -19.3 19.1 -16.9 19.4 -16.4 19.95 -16.25 Q20.25 -16.3 20.45 -16.5 L20.6 -17.05 20.35 -19.3 20.25 -20.2 22.75 -21.1 23.0 -19.3 24.6 -7.8 Q25.25 -3.8 25.25 0.4 25.05 7.4 22.45 13.65 21.2 16.65 19.5 18.95 L20.45 15.3 20.35 14.75 Q20.15 14.5 19.85 14.45 L19.3 14.55 Q19.05 14.7 19.0 15.0 L17.95 18.9 18.0 19.45 18.45 19.85 18.8 19.85 Q13.6 26.05 4.9 26.05 -5.55 26.05 -11.3 18.6 -18.65 9.05 -18.65 -12.75 L-18.2 -15.8 -17.7 -19.3 -17.65 -19.9 -12.25 -19.3 7.15 -17.95 Q12.0 -18.05 17.0 -19.3 L18.75 -19.75 M19.6 -11.9 L19.95 -7.95 20.25 -7.4 Q20.45 -7.2 20.75 -7.25 L21.3 -7.5 21.45 -8.05 21.1 -12.05 20.85 -12.55 20.3 -12.75 19.8 -12.45 Q19.55 -12.25 19.6 -11.9 M4.85 18.65 Q15.8 18.8 16.8 7.3 17.75 -4.2 17.4 -10.2 17.0 -16.2 16.35 -16.0 11.25 -14.65 4.7 -14.65 L-7.5 -15.25 -9.9 -15.3 Q-10.65 -14.95 -10.65 -13.9 -10.65 -4.0 -9.2 3.25 -6.1 18.5 4.85 18.65 M20.2 -2.9 L20.25 1.05 20.5 1.6 21.0 1.8 21.55 1.6 21.75 1.05 21.7 -2.95 21.5 -3.5 20.95 -3.7 20.4 -3.45 20.2 -2.9 M20.1 6.1 L19.75 10.05 19.9 10.6 Q20.1 10.85 20.4 10.9 L20.95 10.75 21.25 10.25 21.6 6.15 21.4 5.6 Q21.2 5.35 20.9 5.35 L20.35 5.55 Q20.1 5.75 20.1 6.1 M-20.7 -108.65 L-24.85 -113.35 Q-24.8 -114.5 -21.15 -117.15 L-18.35 -118.95 Q-17.2 -119.5 -16.65 -119.3 L-16.6 -119.3 -16.3 -111.5 Q-17.1 -111.5 -18.6 -110.65 L-20.05 -109.7 -20.25 -109.55 -20.6 -109.25 -20.95 -108.95 -20.7 -108.65 M-17.15 -113.0 L-17.5 -117.0 -17.7 -117.6 -17.9 -117.8 Q-18.45 -118.15 -19.4 -117.55 L-21.95 -115.55 Q-22.05 -115.2 -21.25 -115.2 L-19.25 -116.35 Q-18.9 -116.35 -18.65 -116.0 -18.35 -115.5 -18.25 -114.4 L-18.2 -113.75 Q-18.05 -112.45 -17.7 -112.45 -17.15 -112.45 -17.15 -113.0 M-23.75 -99.95 L-28.25 -99.8 -27.95 -105.0 Q-27.6 -108.05 -26.45 -110.6 L-22.15 -106.85 -23.4 -102.85 -23.75 -100.2 -23.75 -99.95 M-16.2 -88.05 L-16.4 -83.05 Q-17.5 -83.2 -18.7 -83.8 L-21.35 -85.55 -21.9 -85.95 -23.4 -87.35 -21.2 -90.5 -20.7 -90.1 -20.15 -89.7 Q-18.5 -88.55 -17.95 -88.8 -17.35 -89.1 -16.2 -88.05 M-11.5 -119.35 L-11.4 -119.35 -11.45 -119.25 -12.05 -115.25 -12.1 -112.2 -12.1 -111.55 -12.0 -111.5 -11.1 -111.4 Q-9.25 -110.95 -8.0 -109.85 L-8.9 -108.7 -11.9 -110.2 -13.65 -110.95 -13.65 -111.0 -13.1 -119.5 -12.1 -119.5 -11.5 -119.35 M-16.9 -86.15 L-16.95 -87.3 Q-17.15 -88.0 -17.95 -87.1 -17.95 -85.75 -18.35 -85.25 L-18.8 -85.05 -18.55 -84.5 Q-18.15 -84.1 -17.35 -84.1 -16.95 -84.1 -16.9 -85.05 L-16.9 -86.15 M-9.9 -83.15 L-11.5 -82.9 -13.1 -82.85 -13.85 -91.35 -13.35 -91.4 Q-11.45 -91.75 -10.6 -92.4 L-10.55 -92.45 -10.5 -92.4 -9.15 -90.5 -10.6 -89.55 -12.05 -88.95 -12.35 -88.85 -12.1 -88.05 -11.25 -86.1 -10.3 -84.15 -9.9 -83.15 M-13.25 -81.9 L-13.4 -80.85 -12.85 -68.75 -12.85 -55.55 -6.8 -60.5 2.65 -52.75 Q0.35 -59.4 -2.7 -70.3 -5.05 -78.65 -6.7 -82.8 L-6.95 -83.45 -6.85 -83.55 Q-6.45 -83.95 -6.0 -83.85 -5.65 -83.85 -5.3 -83.5 L-4.55 -82.55 4.5 -49.65 -6.5 -57.35 -14.15 -50.2 -14.1 -54.1 -14.3 -70.9 -14.3 -71.5 -14.35 -72.1 -14.4 -73.8 Q-14.7 -80.0 -15.2 -82.2 L-13.25 -81.9 M-15.95 -82.25 L-15.7 -79.9 -15.5 -76.8 -15.5 -76.35 -18.8 -55.55 -19.65 -57.45 Q-21.5 -61.7 -22.6 -63.5 L-23.4 -64.6 -23.75 -64.8 -27.2 -64.2 -28.7 -63.85 -30.1 -63.55 -31.9 -63.15 -30.15 -66.9 -28.9 -69.95 -27.4 -73.75 -26.9 -75.05 -22.85 -85.9 -21.6 -84.85 -21.55 -84.8 -23.5 -79.8 -27.05 -71.75 -27.35 -71.1 -28.85 -67.95 -30.35 -64.85 -23.25 -67.35 -19.15 -60.55 -15.95 -82.25 M-23.55 -97.85 L-23.5 -97.55 -23.1 -95.75 -22.25 -93.05 -25.35 -89.95 -25.85 -91.2 -26.9 -93.75 -28.2 -97.0 -23.55 -97.85" fill="#1b2570" fill-rule="evenodd" stroke="none"/>
    <path d="M18.05 -25.5 L19.4 -25.75 19.25 -25.5 18.8 -25.2 Q18.45 -25.15 18.25 -25.35 L18.05 -25.5 M18.75 -19.75 L18.6 -20.9 18.75 -21.45 19.25 -21.75 19.8 -21.6 20.1 -21.1 20.25 -20.2 20.35 -19.3 20.6 -17.05 20.45 -16.5 Q20.25 -16.3 19.95 -16.25 L19.4 -16.4 19.1 -16.9 18.85 -19.3 18.75 -19.75 M19.5 18.95 L19.4 19.35 19.0 19.8 18.8 19.85 18.45 19.85 18.0 19.45 17.95 18.9 19.0 15.0 Q19.05 14.7 19.3 14.55 L19.85 14.45 Q20.15 14.5 20.35 14.75 L20.45 15.3 19.5 18.95 M19.6 -11.9 Q19.55 -12.25 19.8 -12.45 L20.3 -12.75 20.85 -12.55 21.1 -12.05 21.45 -8.05 21.3 -7.5 20.75 -7.25 Q20.45 -7.2 20.25 -7.4 L19.95 -7.95 19.6 -11.9 M20.1 6.1 Q20.1 5.75 20.35 5.55 L20.9 5.35 Q21.2 5.35 21.4 5.6 L21.6 6.15 21.25 10.25 20.95 10.75 20.4 10.9 Q20.1 10.85 19.9 10.6 L19.75 10.05 20.1 6.1 M20.2 -2.9 L20.4 -3.45 20.95 -3.7 21.5 -3.5 21.7 -2.95 21.75 1.05 21.55 1.6 21.0 1.8 20.5 1.6 20.25 1.05 20.2 -2.9 M15.95 23.4 Q16.1 23.1 16.45 23.05 L17.0 23.1 17.35 23.6 17.25 24.15 14.7 27.55 14.2 27.75 13.65 27.55 13.4 27.05 13.6 26.5 15.95 23.4" fill="#171d46" fill-rule="evenodd" stroke="none"/>
    <path d="M6.55 -99.1 L6.6 -100.35 Q6.6 -107.25 3.9 -111.1 L1.65 -114.35 0.95 -114.9 0.35 -115.0 0.35 -115.3 Q0.25 -115.9 -0.25 -116.3 L-0.7 -116.7 -0.75 -116.7 -1.85 -117.55 -1.8 -117.55 Q-4.35 -119.45 -5.2 -119.65 L-8.1 -120.65 -8.3 -120.7 -12.6 -121.0 -7.45 -127.7 -4.75 -129.9 -2.35 -129.95 Q1.55 -129.95 7.95 -125.0 L9.2 -124.0 9.75 -123.25 Q11.95 -120.1 12.7 -115.0 L12.85 -113.3 12.2 -110.7 10.5 -104.2 Q10.35 -103.6 10.5 -103.1 10.85 -102.05 12.6 -102.05 14.0 -102.05 14.6 -102.6 L14.9 -101.45 14.7 -99.4 Q14.2 -96.9 12.8 -92.9 10.7 -86.95 10.7 -85.9 L10.7 -84.75 Q10.9 -83.65 12.0 -83.65 13.05 -83.65 14.7 -85.1 L15.65 -85.9 15.95 -82.3 16.2 -81.75 16.75 -81.6 Q17.05 -81.6 17.3 -81.85 L17.45 -82.4 17.1 -86.4 17.1 -86.55 Q19.6 -86.2 20.1 -83.0 L20.15 -79.4 20.3 -77.6 20.65 -73.0 Q20.8 -70.05 21.2 -68.45 L21.2 -55.7 21.45 -51.4 21.05 -46.8 20.7 -43.8 20.45 -42.35 Q19.95 -40.6 18.3 -38.95 L18.4 -41.3 18.2 -41.85 17.7 -42.1 17.15 -41.9 Q16.9 -41.7 16.9 -41.35 L16.75 -38.65 16.7 -37.6 16.2 -37.2 15.95 -37.05 Q12.45 -34.65 12.45 -33.95 12.45 -33.65 13.2 -33.05 L17.6 -33.05 17.7 -33.05 17.5 -32.85 17.45 -32.3 18.45 -28.4 Q18.5 -28.1 18.8 -27.95 L19.1 -27.85 19.35 -27.85 19.8 -28.2 19.9 -28.75 18.9 -32.65 18.55 -33.15 18.25 -33.25 20.6 -33.55 Q22.05 -33.5 23.25 -32.85 L23.7 -32.6 25.25 -31.2 25.55 -30.3 25.55 -30.25 Q25.55 -29.65 24.75 -29.05 24.0 -28.5 22.55 -27.95 L22.15 -27.85 19.2 -27.25 17.7 -26.95 0.45 -25.7 -15.3 -26.7 Q-15.6 -27.25 -16.55 -27.65 L-19.1 -28.5 -19.65 -28.65 -21.2 -29.45 Q-22.3 -30.15 -23.0 -31.2 -24.15 -32.95 -24.15 -35.55 L-23.45 -39.85 -22.95 -43.8 -22.75 -46.7 Q-22.75 -52.6 -23.2 -61.35 L-22.25 -59.85 -22.25 -59.9 -18.15 -52.15 -17.5 -51.5 -16.6 -51.35 Q-16.15 -51.45 -15.8 -51.8 -15.45 -52.15 -15.35 -52.6 L-15.0 -55.15 -15.0 -55.25 -14.85 -57.05 -14.8 -56.4 -14.8 -55.35 -14.85 -48.5 -14.85 -47.9 Q-14.85 -47.3 -14.4 -46.85 -14.0 -46.4 -13.35 -46.4 -12.75 -46.4 -12.3 -46.8 L-12.15 -46.95 -12.65 -43.8 -12.85 -42.65 -13.75 -36.8 -13.6 -36.0 -13.6 -35.75 -11.75 -35.6 Q-9.95 -35.25 -9.95 -34.2 -9.95 -33.75 -10.85 -33.8 L-13.8 -33.7 -16.15 -33.4 -16.6 -33.35 Q-17.65 -33.15 -18.05 -32.4 -18.4 -31.8 -19.1 -31.75 L-19.15 -32.2 -19.0 -31.2 -18.7 -30.55 -18.05 -29.8 -17.55 -29.45 Q-15.25 -28.1 -9.4 -28.05 L-7.55 -28.05 4.15 -27.35 7.3 -27.2 Q7.95 -27.2 9.1 -27.9 10.35 -28.65 10.35 -29.2 10.35 -30.25 8.5 -31.2 L6.9 -31.85 Q1.7 -33.65 0.55 -34.35 L0.7 -34.5 Q6.3 -35.65 10.05 -40.15 L11.05 -41.45 11.3 -41.85 12.55 -43.8 Q14.55 -47.45 14.55 -50.7 14.55 -52.25 14.15 -52.7 12.75 -54.2 7.85 -53.3 L7.85 -54.6 Q8.65 -57.15 11.15 -63.15 13.25 -68.65 13.25 -71.9 L13.15 -73.55 11.4 -75.3 8.05 -76.85 Q5.85 -77.7 5.7 -78.15 L5.4 -79.4 Q5.1 -81.25 4.9 -85.1 4.9 -86.7 6.5 -91.75 8.05 -96.85 8.05 -97.5 8.05 -98.4 6.55 -99.1 M16.4 -77.3 L16.65 -73.3 Q16.65 -73.0 16.9 -72.8 L17.45 -72.6 Q17.75 -72.6 17.95 -72.85 L18.15 -73.35 17.9 -77.4 17.65 -77.9 17.1 -78.1 16.6 -77.85 Q16.35 -77.6 16.4 -77.3 M16.9 -68.3 L17.05 -64.3 Q17.05 -64.0 17.3 -63.8 17.5 -63.6 17.85 -63.6 L18.35 -63.8 18.55 -64.35 18.4 -68.35 18.15 -68.9 17.6 -69.1 17.1 -68.85 16.9 -68.3 M17.15 -59.3 L17.2 -55.35 Q17.2 -55.05 17.45 -54.8 17.65 -54.6 17.95 -54.6 L18.5 -54.8 18.7 -55.35 18.65 -59.35 18.45 -59.9 17.9 -60.1 17.35 -59.85 17.15 -59.3 M17.15 -50.35 L17.05 -46.35 17.25 -45.8 17.8 -45.6 18.35 -45.8 18.55 -46.3 18.65 -50.3 18.45 -50.85 17.95 -51.1 Q17.6 -51.1 17.4 -50.9 L17.15 -50.35 M-24.5 -83.3 L-24.15 -86.8 -24.0 -86.8 -23.95 -86.4 -23.9 -86.3 Q-23.95 -86.0 -23.65 -85.6 L-24.5 -83.3" fill="#202020" fill-rule="evenodd" stroke="none"/>
    <path d="M22.55 -27.95 Q24.0 -28.5 24.75 -29.05 25.55 -29.65 25.55 -30.25 L25.55 -30.3 25.25 -31.2 23.7 -32.6 23.25 -32.85 Q22.05 -33.5 20.6 -33.55 L18.25 -33.25 18.55 -33.15 18.9 -32.65 19.9 -28.75 19.8 -28.2 19.35 -27.85 19.1 -27.85 18.8 -27.95 Q18.5 -28.1 18.45 -28.4 L17.45 -32.3 17.5 -32.85 17.7 -33.05 17.6 -33.05 13.2 -33.05 Q12.45 -33.65 12.45 -33.95 12.45 -34.65 15.95 -37.05 L16.2 -37.2 16.7 -37.6 16.75 -38.65 16.9 -41.35 Q16.9 -41.7 17.15 -41.9 L17.7 -42.1 18.2 -41.85 18.4 -41.3 18.3 -38.95 Q19.95 -40.6 20.45 -42.35 L20.7 -43.8 21.05 -46.8 21.45 -51.4 21.2 -55.7 21.2 -68.45 Q20.8 -70.05 20.65 -73.0 L20.3 -77.6 20.15 -79.4 20.1 -83.0 Q19.6 -86.2 17.1 -86.55 L17.1 -86.4 17.45 -82.4 17.3 -81.85 Q17.05 -81.6 16.75 -81.6 L16.2 -81.75 15.95 -82.3 15.65 -85.9 14.7 -85.1 Q13.05 -83.65 12.0 -83.65 10.9 -83.65 10.7 -84.75 L10.7 -85.9 Q10.7 -86.95 12.8 -92.9 14.2 -96.9 14.7 -99.4 L14.9 -101.45 14.6 -102.6 Q14.0 -102.05 12.6 -102.05 10.85 -102.05 10.5 -103.1 10.35 -103.6 10.5 -104.2 L12.2 -110.7 12.85 -113.3 12.7 -115.0 Q11.95 -120.1 9.75 -123.25 L9.2 -124.0 7.95 -125.0 Q1.55 -129.95 -2.35 -129.95 L-4.75 -129.9 -7.45 -127.7 -12.6 -121.0 -8.3 -120.7 -8.1 -120.65 -5.2 -119.65 Q-4.35 -119.45 -1.8 -117.55 L-1.85 -117.55 -0.75 -116.7 -0.7 -116.7 -0.25 -116.3 Q0.25 -115.9 0.35 -115.3 L0.35 -115.0 0.95 -114.9 1.65 -114.35 3.9 -111.1 Q6.6 -107.25 6.6 -100.35 L6.55 -99.1 6.2 -97.5 6.35 -96.95 Q6.55 -95.0 4.75 -91.0 L4.15 -89.75 Q1.5 -84.65 -0.5 -84.55 L-0.8 -84.6 -1.15 -84.65 -1.1 -84.35 -0.95 -83.65 Q0.25 -77.9 2.6 -69.2 L3.95 -64.2 4.35 -62.85 Q6.7 -54.35 8.0 -50.4 L9.0 -47.7 9.05 -46.75 8.55 -45.95 Q8.15 -45.6 7.65 -45.6 L7.45 -45.6 Q7.05 -45.65 6.75 -45.85 L2.95 -48.5 -1.35 -51.5 -4.7 -53.85 -6.4 -52.3 -12.15 -46.95 -12.3 -46.8 Q-12.75 -46.4 -13.35 -46.4 -14.0 -46.4 -14.4 -46.85 -14.85 -47.3 -14.85 -47.9 L-14.85 -48.5 -13.25 -48.5 -5.45 -55.75 6.1 -47.7 7.7 -47.7 Q6.5 -50.4 2.6 -64.4 -1.15 -77.8 -2.65 -85.4 L-2.4 -85.25 -1.9 -85.25 Q0.15 -86.35 1.3 -87.85 L2.95 -90.65 4.0 -93.4 Q4.95 -96.15 4.95 -96.95 4.95 -97.55 4.25 -97.65 L3.85 -97.75 4.2 -97.75 4.65 -97.9 5.4 -97.95 5.65 -98.7 5.65 -99.6 5.8 -101.35 5.5 -104.75 Q5.45 -105.65 4.45 -108.0 L2.8 -111.35 1.8 -112.75 Q0.65 -113.95 -0.8 -113.95 L-0.95 -113.9 -1.1 -114.1 -1.65 -113.5 -2.25 -114.1 -1.05 -115.7 -1.6 -116.15 -2.65 -116.95 -5.5 -118.8 -5.55 -118.8 -8.5 -119.85 -12.05 -120.2 -12.05 -120.15 -13.65 -120.2 -13.95 -118.3 -14.15 -118.3 -14.55 -119.85 -13.95 -120.7 Q-11.6 -124.2 -8.75 -127.45 L-8.8 -127.4 -8.65 -127.55 -8.2 -128.0 -7.2 -128.85 -5.9 -129.75 Q-3.45 -131.2 -0.5 -131.5 L1.05 -131.6 Q6.75 -131.6 10.8 -127.55 L13.8 -124.05 Q21.65 -113.15 25.45 -99.4 L26.0 -97.3 Q27.75 -88.95 27.35 -79.4 27.05 -73.65 26.0 -67.45 L26.0 -67.4 Q24.5 -52.8 26.15 -43.8 26.95 -39.15 28.65 -36.05 L30.6 -32.4 30.05 -31.2 28.6 -30.05 27.05 -29.35 25.4 -28.75 22.55 -27.95 M-14.8 -56.4 L-14.85 -57.05 -15.0 -55.25 -15.0 -55.15 -15.35 -52.6 Q-15.45 -52.15 -15.8 -51.8 -16.15 -51.45 -16.6 -51.35 L-17.5 -51.5 -18.15 -52.15 -22.25 -59.9 -22.25 -59.85 -23.2 -61.35 Q-22.75 -52.6 -22.75 -46.7 L-22.95 -43.8 -23.45 -39.85 -24.15 -35.55 Q-24.15 -32.95 -23.0 -31.2 -22.3 -30.15 -21.2 -29.45 L-19.65 -28.65 -19.1 -28.5 -16.55 -27.65 Q-15.6 -27.25 -15.3 -26.7 L-21.2 -27.85 -21.3 -27.9 -25.2 -29.0 -26.65 -29.55 Q-28.4 -30.35 -29.15 -31.2 L-29.7 -32.4 -29.7 -32.45 Q-28.05 -37.65 -27.4 -43.8 L-27.2 -46.55 -27.2 -63.1 -24.85 -63.4 -23.95 -63.45 -22.45 -61.2 -18.35 -53.45 -16.75 -53.45 -16.4 -56.0 -15.5 -64.2 -15.4 -64.9 -15.05 -66.6 -14.8 -56.4 M16.9 -68.3 L17.1 -68.85 17.6 -69.1 18.15 -68.9 18.4 -68.35 18.55 -64.35 18.35 -63.8 17.85 -63.6 Q17.5 -63.6 17.3 -63.8 17.05 -64.0 17.05 -64.3 L16.9 -68.3 M16.4 -77.3 Q16.35 -77.6 16.6 -77.85 L17.1 -78.1 17.65 -77.9 17.9 -77.4 18.15 -73.35 17.95 -72.85 Q17.75 -72.6 17.45 -72.6 L16.9 -72.8 Q16.65 -73.0 16.65 -73.3 L16.4 -77.3 M17.15 -50.35 L17.4 -50.9 Q17.6 -51.1 17.95 -51.1 L18.45 -50.85 18.65 -50.3 18.55 -46.3 18.35 -45.8 17.8 -45.6 17.25 -45.8 17.05 -46.35 17.15 -50.35 M17.15 -59.3 L17.35 -59.85 17.9 -60.1 18.45 -59.9 18.65 -59.35 18.7 -55.35 18.5 -54.8 17.95 -54.6 Q17.65 -54.6 17.45 -54.8 17.2 -55.05 17.2 -55.35 L17.15 -59.3 M-26.05 -90.0 L-25.45 -88.9 -24.3 -89.9 -23.85 -88.9 -23.75 -88.95 -23.5 -88.35 -23.95 -87.2 -23.35 -86.4 -23.65 -85.6 Q-23.95 -86.0 -23.9 -86.3 L-23.95 -86.4 -24.0 -86.8 -24.15 -86.8 -24.5 -83.3 -27.35 -75.8 -27.2 -79.4 Q-26.9 -84.8 -26.1 -89.85 L-26.05 -90.0" fill="#151515" fill-rule="evenodd" stroke="none"/>
    <path d="M-15.3 -26.7 L0.45 -25.7 17.7 -26.95 19.2 -27.25 22.15 -27.85 22.55 -27.95 25.4 -28.75 27.05 -29.35 28.6 -30.05 30.05 -31.2 30.6 -32.4 28.65 -36.05 Q26.95 -39.15 26.15 -43.8 24.5 -52.8 26.0 -67.4 L26.0 -67.45 Q27.05 -73.65 27.35 -79.4 27.75 -88.95 26.0 -97.3 L25.45 -99.4 Q21.65 -113.15 13.8 -124.05 L10.8 -127.55 Q6.75 -131.6 1.05 -131.6 L-0.5 -131.5 Q-3.45 -131.2 -5.9 -129.75 L-7.2 -128.85 -8.2 -128.0 -8.65 -127.55 -8.8 -127.4 -8.75 -127.45 Q-11.6 -124.2 -13.95 -120.7 L-14.55 -119.85 -14.6 -120.05 -16.2 -120.05 Q-13.4 -124.4 -9.9 -128.45 L-9.85 -128.45 -9.7 -128.6 Q-5.25 -133.1 1.05 -133.1 7.35 -133.1 11.85 -128.6 L11.85 -128.65 15.05 -124.9 15.0 -124.9 Q23.1 -113.65 27.0 -99.4 L27.45 -97.65 Q29.25 -89.1 28.85 -79.4 28.6 -73.5 27.5 -67.2 26.0 -52.6 27.7 -43.8 28.45 -39.6 30.0 -36.75 L32.05 -32.95 32.1 -32.6 32.1 -32.4 31.9 -31.2 Q31.25 -29.8 29.0 -28.6 L27.6 -27.95 22.5 -26.4 19.4 -25.75 18.05 -25.5 Q10.35 -24.2 0.45 -24.2 -12.45 -24.2 -21.55 -26.4 L-25.65 -27.6 -27.1 -28.15 Q-30.25 -29.55 -30.95 -31.2 L-31.2 -32.4 -31.2 -32.6 -31.15 -32.8 Q-29.55 -37.85 -28.95 -43.8 L-28.7 -46.65 -28.7 -62.8 -27.4 -63.05 -27.2 -63.1 -27.2 -46.55 -27.4 -43.8 Q-28.05 -37.65 -29.7 -32.45 L-29.7 -32.4 -29.15 -31.2 Q-28.4 -30.35 -26.65 -29.55 L-25.2 -29.0 -21.3 -27.9 -21.2 -27.85 -15.3 -26.7 M-28.9 -71.75 L-28.7 -79.4 Q-28.3 -86.2 -27.15 -92.4 L-26.05 -90.0 -26.1 -89.85 Q-26.9 -84.8 -27.2 -79.4 L-27.35 -75.8 -28.9 -71.75" fill="#090909" fill-rule="evenodd" stroke="none"/>
    <path d="M6.55 -99.1 Q8.05 -98.4 8.05 -97.5 8.05 -96.85 6.5 -91.75 4.9 -86.7 4.9 -85.1 5.1 -81.25 5.4 -79.4 L5.7 -78.15 Q5.85 -77.7 8.05 -76.85 L11.4 -75.3 13.15 -73.55 13.25 -71.9 Q13.25 -68.65 11.15 -63.15 8.65 -57.15 7.85 -54.6 L7.85 -53.3 Q12.75 -54.2 14.15 -52.7 14.55 -52.25 14.55 -50.7 14.55 -47.45 12.55 -43.8 L11.3 -41.85 11.05 -41.45 10.05 -40.15 Q6.3 -35.65 0.7 -34.5 L0.55 -34.35 Q1.7 -33.65 6.9 -31.85 L8.5 -31.2 Q10.35 -30.25 10.35 -29.2 10.35 -28.65 9.1 -27.9 7.95 -27.2 7.3 -27.2 L4.15 -27.35 -7.55 -28.05 -9.4 -28.05 Q-15.25 -28.1 -17.55 -29.45 L-18.05 -29.8 -18.7 -30.55 -19.0 -31.2 -19.15 -32.2 -19.1 -31.75 Q-18.4 -31.8 -18.05 -32.4 -17.65 -33.15 -16.6 -33.35 L-16.15 -33.4 -13.8 -33.7 -10.85 -33.8 Q-9.95 -33.75 -9.95 -34.2 -9.95 -35.25 -11.75 -35.6 L-13.6 -35.75 -13.6 -36.0 -13.75 -36.8 -12.85 -42.65 -12.65 -43.8 -12.15 -46.95 -6.4 -52.3 -7.2 -48.5 -8.05 -43.8 -8.45 -41.05 Q-8.45 -40.3 -8.05 -39.9 L-7.95 -39.8 Q-7.4 -39.35 -6.3 -39.1 L-2.0 -38.7 Q0.45 -38.7 3.35 -41.15 L4.9 -42.6 5.95 -43.8 7.45 -45.6 7.65 -45.6 Q8.15 -45.6 8.55 -45.95 L9.05 -46.75 9.0 -47.7 8.0 -50.4 Q6.7 -54.35 4.35 -62.85 7.0 -67.9 7.0 -69.85 7.0 -71.15 5.3 -72.8 3.6 -74.45 3.45 -71.45 3.4 -70.55 2.6 -69.2 0.25 -77.9 -0.95 -83.65 L-0.5 -84.55 Q1.5 -84.65 4.15 -89.75 L4.75 -91.0 Q6.55 -95.0 6.35 -96.95 L6.2 -97.5 6.55 -99.1 M2.75 -29.75 Q2.75 -30.6 1.1 -31.2 L-4.8 -32.0 -12.15 -31.5 -13.05 -31.2 -13.4 -30.6 Q-13.4 -29.8 -11.05 -29.6 L-1.2 -28.85 1.8 -28.85 Q2.75 -29.45 2.75 -29.75 M-1.35 -51.5 L2.95 -48.5 -0.95 -48.2 Q-1.45 -48.6 -1.55 -49.1 L-1.6 -50.05 -1.35 -51.5" fill="#2a2a2a" fill-rule="evenodd" stroke="none"/>
    <path d="M4.35 -62.85 L3.95 -64.2 2.6 -69.2 Q3.4 -70.55 3.45 -71.45 3.6 -74.45 5.3 -72.8 7.0 -71.15 7.0 -69.85 7.0 -67.9 4.35 -62.85 M-0.95 -83.65 L-1.1 -84.35 -1.15 -84.65 -0.8 -84.6 -0.5 -84.55 -0.95 -83.65 M7.45 -45.6 L5.95 -43.8 4.9 -42.6 3.35 -41.15 Q0.45 -38.7 -2.0 -38.7 L-6.3 -39.1 Q-7.4 -39.35 -7.95 -39.8 L-8.05 -39.9 Q-8.45 -40.3 -8.45 -41.05 L-8.05 -43.8 -7.2 -48.5 -6.4 -52.3 -4.7 -53.85 -1.35 -51.5 -1.6 -50.05 -1.55 -49.1 Q-1.45 -48.6 -0.95 -48.2 L2.95 -48.5 6.75 -45.85 Q7.05 -45.65 7.45 -45.6 M2.75 -29.75 Q2.75 -29.45 1.8 -28.85 L-1.2 -28.85 -11.05 -29.6 Q-13.4 -29.8 -13.4 -30.6 L-13.05 -31.2 -12.15 -31.5 -4.8 -32.0 1.1 -31.2 Q2.75 -30.6 2.75 -29.75" fill="#383838" fill-rule="evenodd" stroke="none"/>
    <path d="M-14.85 -48.5 L-14.8 -55.35 -14.8 -56.4 -15.05 -66.6 -15.4 -64.9 -15.5 -64.2 -16.4 -56.0 -16.75 -53.45 -18.35 -53.45 -22.45 -61.2 -23.95 -63.45 -24.85 -63.4 -27.2 -63.1 -27.4 -63.05 -28.7 -62.8 -31.45 -62.3 -33.05 -62.3 -29.1 -71.2 -28.9 -71.75 -27.35 -75.8 -24.5 -83.3 -23.65 -85.6 -23.35 -86.4 -23.95 -87.2 -23.5 -88.35 -23.75 -88.95 -23.85 -88.9 -24.3 -89.9 -25.45 -88.9 -26.05 -90.0 -27.15 -92.4 -27.45 -93.0 -29.1 -97.55 -27.95 -98.1 -27.45 -98.35 -28.25 -99.0 Q-28.95 -99.2 -28.95 -99.7 -28.95 -104.7 -28.3 -107.0 L-26.55 -111.65 -25.5 -110.65 -24.65 -112.15 -25.55 -113.25 Q-25.25 -114.35 -23.05 -116.45 -19.85 -119.55 -16.2 -120.05 L-14.6 -120.05 -14.55 -119.85 -14.15 -118.3 -13.95 -118.3 -13.65 -120.2 -12.05 -120.15 -12.05 -120.2 -8.5 -119.85 -5.55 -118.8 -5.5 -118.8 -2.65 -116.95 -1.6 -116.15 -1.05 -115.7 -2.25 -114.1 -1.65 -113.5 -1.1 -114.1 -0.95 -113.9 -0.8 -113.95 Q0.65 -113.95 1.8 -112.75 L2.8 -111.35 4.45 -108.0 Q5.45 -105.65 5.5 -104.75 L5.8 -101.35 5.65 -99.6 5.65 -98.7 5.4 -97.95 4.65 -97.9 4.2 -97.75 3.85 -97.75 4.25 -97.65 Q4.95 -97.55 4.95 -96.95 4.95 -96.15 4.0 -93.4 L2.95 -90.65 1.3 -87.85 Q0.15 -86.35 -1.9 -85.25 L-2.4 -85.25 -2.65 -85.4 Q-1.15 -77.8 2.6 -64.4 6.5 -50.4 7.7 -47.7 L6.1 -47.7 -5.45 -55.75 -13.25 -48.5 -14.85 -48.5 M-6.45 -107.75 L-6.95 -107.45 -7.1 -107.4 Q-5.7 -103.85 -5.7 -99.8 L-4.1 -99.65 2.75 -99.6 2.8 -99.75 2.85 -101.05 2.85 -101.25 Q2.8 -103.9 2.0 -106.65 1.1 -109.7 -0.5 -112.0 L-1.2 -112.95 -6.45 -107.75 M4.35 -99.6 Q4.65 -103.0 3.6 -106.65 2.5 -110.35 0.4 -112.95 L0.0 -112.5 1.15 -110.85 Q3.6 -107.3 3.6 -100.95 L3.55 -99.6 4.35 -99.6 M4.0 -96.75 L3.35 -96.8 Q3.15 -94.85 1.3 -91.05 L-0.2 -88.4 Q1.8 -90.65 3.05 -93.45 3.9 -95.5 4.0 -96.75 M0.7 -98.8 L-5.9 -98.95 Q-5.95 -98.8 -5.15 -98.6 L0.55 -97.7 0.7 -98.8 M-1.4 -88.95 Q0.35 -91.0 1.45 -93.45 2.3 -95.5 2.4 -96.75 L-4.6 -97.45 -4.7 -97.45 -5.45 -97.6 -5.95 -98.0 Q-6.65 -96.4 -7.25 -95.75 L-8.75 -93.8 -2.4 -87.85 -2.25 -88.0 -1.65 -88.65 -1.5 -88.8 -1.4 -88.95 M-2.9 -82.5 L-3.9 -83.65 Q-2.3 -76.3 1.0 -64.4 3.75 -54.6 5.15 -50.3 L6.1 -49.65 -2.9 -82.5 M-16.3 -111.5 L-16.6 -119.3 -16.65 -119.3 Q-17.2 -119.5 -18.35 -118.95 L-21.15 -117.15 Q-24.8 -114.5 -24.85 -113.35 L-20.7 -108.65 -20.2 -108.1 -20.1 -108.2 -19.4 -109.0 -18.15 -110.1 Q-16.5 -111.25 -16.3 -111.5 M-21.75 -108.1 Q-21.65 -108.3 -22.1 -109.05 L-22.25 -109.3 -23.25 -110.6 -23.65 -111.05 -24.2 -111.7 -25.05 -110.3 -25.0 -110.25 -22.45 -108.25 -21.9 -108.0 -21.75 -108.1 M-22.15 -106.85 L-26.45 -110.6 Q-27.6 -108.05 -27.95 -105.0 L-28.25 -99.8 -23.75 -99.95 -22.3 -99.95 Q-22.65 -101.2 -22.3 -103.6 L-22.15 -104.95 -22.15 -106.85 M-16.75 -92.7 Q-15.9 -92.3 -14.95 -92.2 L-14.1 -92.15 -13.3 -92.2 Q-10.65 -92.5 -8.7 -94.8 -6.45 -97.45 -6.45 -101.2 -6.45 -104.95 -8.7 -107.6 -10.65 -109.9 -13.3 -110.2 L-14.1 -110.25 Q-16.0 -110.25 -17.55 -109.3 L-18.8 -108.3 -19.5 -107.6 -20.5 -106.15 Q-21.75 -104.0 -21.75 -101.2 L-21.65 -99.9 -21.55 -99.2 -21.5 -98.8 -21.1 -97.5 Q-20.55 -96.05 -19.5 -94.8 L-19.45 -94.75 -19.2 -94.5 -19.5 -94.3 Q-20.25 -93.8 -20.8 -91.9 L-21.2 -90.5 -23.4 -87.35 -21.9 -85.95 -21.35 -85.55 -18.7 -83.8 Q-17.5 -83.2 -16.4 -83.05 L-16.2 -88.05 Q-16.0 -88.9 -16.3 -91.0 -16.45 -91.95 -16.75 -92.7 M-27.0 -99.3 L-26.9 -98.35 -25.85 -98.45 -25.8 -98.45 -25.3 -98.5 -24.55 -98.6 -24.2 -98.65 Q-22.15 -98.9 -22.2 -99.2 L-27.0 -99.3 M-2.05 -115.55 Q-2.85 -116.75 -5.6 -117.9 L-4.25 -116.95 -3.2 -116.15 -2.65 -115.7 -3.85 -114.1 -3.45 -113.7 -2.05 -115.55 M-4.35 -113.55 L-8.35 -108.2 -7.5 -108.4 -5.5 -109.8 -3.05 -112.15 -4.35 -113.55 M-2.75 -113.55 L-2.95 -113.25 -2.45 -112.75 -2.2 -112.95 -2.75 -113.55 M-8.0 -109.85 L-3.65 -115.55 Q-4.65 -117.05 -8.55 -118.45 L-11.5 -119.35 -12.1 -119.5 -13.1 -119.5 -13.65 -111.0 -13.65 -110.95 -11.9 -110.2 -8.9 -108.7 -8.0 -109.85 M-15.0 -119.3 L-16.0 -119.25 -15.75 -118.3 -15.55 -118.25 -14.95 -118.3 -15.0 -119.3 M-13.9 -117.6 L-15.95 -117.6 -15.95 -111.0 -13.9 -111.0 -13.9 -117.6 M-5.95 -87.4 L-4.4 -88.75 -9.25 -93.3 -9.9 -92.75 -5.95 -87.4 M-4.35 -87.4 L-3.65 -88.0 -3.85 -88.2 -4.5 -87.6 -4.35 -87.4 M-22.9 -89.15 L-21.35 -91.55 -20.25 -93.5 Q-20.0 -94.1 -20.1 -94.25 L-23.9 -90.45 -22.9 -89.15 M-9.15 -90.5 L-10.5 -92.4 -10.55 -92.45 -10.6 -92.4 Q-11.45 -91.75 -13.35 -91.4 L-13.85 -91.35 -13.1 -82.85 -11.5 -82.9 -9.9 -83.15 -7.7 -83.85 Q-6.15 -84.55 -5.4 -85.3 L-9.15 -90.5 M-15.5 -91.45 L-15.75 -84.9 -13.95 -84.75 -13.95 -84.85 -14.55 -91.4 -15.5 -91.45 M-6.95 -83.45 L-7.1 -83.4 -7.15 -83.35 -8.8 -82.6 -8.8 -82.55 -11.6 -82.05 -12.45 -81.75 -13.25 -81.9 -15.2 -82.2 Q-14.7 -80.0 -14.4 -73.8 L-14.35 -72.1 -14.3 -71.5 -14.3 -70.9 -14.1 -54.1 -14.15 -50.2 -6.5 -57.35 4.5 -49.65 -4.55 -82.55 -5.3 -83.5 Q-5.65 -83.85 -6.0 -83.85 -6.45 -83.95 -6.85 -83.55 L-6.95 -83.45 M-17.9 -82.6 L-20.15 -83.7 -21.1 -84.5 -21.55 -84.8 -21.6 -84.85 -22.85 -85.9 -26.9 -75.05 -27.4 -73.75 -28.9 -69.95 -30.15 -66.9 -31.9 -63.15 -30.1 -63.55 -28.7 -63.85 -27.2 -64.2 -23.75 -64.8 -23.4 -64.6 -22.6 -63.5 Q-21.5 -61.7 -19.65 -57.45 L-18.8 -55.55 -15.5 -76.35 -15.5 -76.8 -15.7 -79.9 -15.95 -82.25 -16.4 -82.35 -17.9 -82.7 -17.9 -82.6 M-22.25 -93.05 Q-20.4 -95.0 -21.1 -96.25 -21.55 -97.05 -23.05 -97.65 L-23.55 -97.85 -28.2 -97.0 -26.9 -93.75 -25.85 -91.2 -25.35 -89.95 -22.25 -93.05 M-12.55 -50.2 L-6.1 -56.2 -6.35 -56.4 -12.55 -50.65 -12.55 -50.2 M-17.45 -56.1 L-15.15 -69.3 -15.35 -74.15 -16.6 -67.05 -17.0 -64.9 -17.1 -64.2 -17.9 -57.15 -17.45 -56.1" fill="#070d34" fill-rule="evenodd" stroke="none"/>
    <path d="M4.35 -99.6 L3.55 -99.6 3.6 -100.95 Q3.6 -107.3 1.15 -110.85 L0.0 -112.5 0.4 -112.95 Q2.5 -110.35 3.6 -106.65 4.65 -103.0 4.35 -99.6 M4.0 -96.75 Q3.9 -95.5 3.05 -93.45 1.8 -90.65 -0.2 -88.4 L1.3 -91.05 Q3.15 -94.85 3.35 -96.8 L4.0 -96.75 M-21.75 -108.1 L-21.9 -108.0 -22.45 -108.25 -25.0 -110.25 -25.05 -110.3 -24.2 -111.7 -23.65 -111.05 -23.25 -110.6 -22.25 -109.3 -22.1 -109.05 Q-21.65 -108.3 -21.75 -108.1 M-2.05 -115.55 L-3.45 -113.7 -3.85 -114.1 -2.65 -115.7 -3.2 -116.15 -4.25 -116.95 -5.6 -117.9 Q-2.85 -116.75 -2.05 -115.55 M-27.0 -99.3 L-22.2 -99.2 Q-22.15 -98.9 -24.2 -98.65 L-24.55 -98.6 -25.3 -98.5 -25.8 -98.45 -25.85 -98.45 -26.9 -98.35 -27.0 -99.3 M-2.75 -113.55 L-2.2 -112.95 -2.45 -112.75 -2.95 -113.25 -2.75 -113.55 M-15.0 -119.3 L-14.95 -118.3 -15.55 -118.25 -15.75 -118.3 -16.0 -119.25 -15.0 -119.3 M-22.9 -89.15 L-23.9 -90.45 -20.1 -94.25 Q-20.0 -94.1 -20.25 -93.5 L-21.35 -91.55 -22.9 -89.15 M-4.35 -87.4 L-4.5 -87.6 -3.85 -88.2 -3.65 -88.0 -4.35 -87.4 M-15.5 -91.45 L-14.55 -91.4 -13.95 -84.85 -13.95 -84.75 -15.75 -84.9 -15.5 -91.45 M-17.45 -56.1 L-17.9 -57.15 -17.1 -64.2 -17.0 -64.9 -16.6 -67.05 -15.35 -74.15 -15.15 -69.3 -17.45 -56.1 M-12.55 -50.2 L-12.55 -50.65 -6.35 -56.4 -6.1 -56.2 -12.55 -50.2" fill="#0d1343" fill-rule="evenodd" stroke="none"/>
    <path d="M0.7 -98.8 L0.55 -97.7 -5.15 -98.6 Q-5.95 -98.8 -5.9 -98.95 L0.7 -98.8 M-2.9 -82.5 L6.1 -49.65 5.15 -50.3 Q3.75 -54.6 1.0 -64.4 -2.3 -76.3 -3.9 -83.65 L-2.9 -82.5 M-20.7 -108.65 L-20.95 -108.95 -20.6 -109.25 -20.25 -109.55 -20.05 -109.7 -18.6 -110.65 Q-17.1 -111.5 -16.3 -111.5 -16.5 -111.25 -18.15 -110.1 L-19.4 -109.0 -20.1 -108.2 -20.2 -108.1 -20.7 -108.65 M-22.15 -106.85 L-22.15 -104.95 -22.3 -103.6 Q-22.65 -101.2 -22.3 -99.95 L-23.75 -99.95 -23.75 -100.2 -23.4 -102.85 -22.15 -106.85 M-19.2 -94.5 L-18.75 -94.0 -18.5 -93.8 -18.4 -93.7 -17.75 -93.2 -16.75 -92.7 Q-16.45 -91.95 -16.3 -91.0 -16.0 -88.9 -16.2 -88.05 -17.35 -89.1 -17.95 -88.8 -18.5 -88.55 -20.15 -89.7 L-20.7 -90.1 -21.2 -90.5 -20.8 -91.9 Q-20.25 -93.8 -19.5 -94.3 L-19.2 -94.5 M-4.35 -113.55 L-3.05 -112.15 -5.5 -109.8 -7.5 -108.4 -8.35 -108.2 -4.35 -113.55 M-13.9 -117.6 L-13.9 -111.0 -15.95 -111.0 -15.95 -117.6 -13.9 -117.6 M-5.95 -87.4 L-9.9 -92.75 -9.25 -93.3 -4.4 -88.75 -5.95 -87.4 M-12.45 -81.75 L-11.6 -82.05 -8.8 -82.55 -8.7 -81.05 -8.75 -81.05 -8.3 -70.15 Q-10.35 -78.05 -11.3 -80.45 L-11.7 -81.35 -11.8 -81.5 -11.85 -81.55 -12.45 -81.75 M-17.9 -82.6 L-21.1 -74.75 -20.35 -78.75 -19.7 -82.75 -19.7 -83.05 -20.15 -83.7 -17.9 -82.6 M-23.55 -97.85 L-23.05 -97.65 Q-21.55 -97.05 -21.1 -96.25 -20.4 -95.0 -22.25 -93.05 L-23.1 -95.75 -23.5 -97.55 -23.55 -97.85" fill="#121a51" fill-rule="evenodd" stroke="none"/>
    <path d="M-19.2 -94.5 L-19.45 -94.75 -19.5 -94.8 Q-20.55 -96.05 -21.1 -97.5 L-21.5 -98.8 -21.55 -99.2 -21.65 -99.9 -21.75 -101.2 Q-21.75 -104.0 -20.5 -106.15 L-19.5 -107.6 -18.8 -108.3 -17.55 -109.3 Q-16.0 -110.25 -14.1 -110.25 L-13.3 -110.2 Q-10.65 -109.9 -8.7 -107.6 -6.45 -104.95 -6.45 -101.2 -6.45 -97.45 -8.7 -94.8 -10.65 -92.5 -13.3 -92.2 L-14.1 -92.15 -14.95 -92.2 Q-15.9 -92.3 -16.75 -92.7 L-17.75 -93.2 -18.4 -93.7 -18.5 -93.8 -18.75 -94.0 -19.2 -94.5 M-8.55 -105.5 Q-11.3 -109.15 -14.3 -109.15 -16.75 -109.15 -18.4 -106.8 -19.95 -104.55 -19.95 -101.4 -19.95 -99.95 -19.25 -97.45 L-19.6 -96.3 -19.5 -96.2 -18.25 -95.5 -17.9 -95.3 -16.55 -94.45 -14.9 -93.6 -13.9 -93.55 Q-11.7 -93.55 -10.1 -97.05 -8.55 -100.55 -8.55 -105.5" fill="#cccccc" fill-rule="evenodd" stroke="none"/>
    <path d="M-19.25 -97.45 Q-19.95 -99.95 -19.95 -101.4 -19.95 -104.55 -18.4 -106.8 -16.75 -109.15 -14.3 -109.15 -11.3 -109.15 -8.55 -105.5 L-13.8 -108.6 -15.2 -97.0 -18.35 -100.15 -19.25 -97.45 M-8.55 -105.5 Q-8.55 -100.55 -10.1 -97.05 -11.7 -93.55 -13.9 -93.55 L-8.55 -105.5 M-14.9 -93.6 L-16.55 -94.45 -17.9 -95.3 -17.5 -95.1 -14.9 -93.6" fill="#ffffff" fill-rule="evenodd" stroke="none"/>
    <path d="M-13.2 -107.4 L-9.5 -105.15 -14.4 -94.15 -18.9 -96.7 -18.1 -98.95 -14.65 -95.65 -13.2 -107.4" fill="#30f003" fill-rule="evenodd" stroke="none"/>
    <path d="M-19.25 -97.45 L-18.35 -100.15 -15.2 -97.0 -13.8 -108.6 -8.55 -105.5 -13.9 -93.55 -14.9 -93.6 -17.5 -95.1 -18.25 -95.5 -19.5 -96.2 -19.6 -96.3 -19.25 -97.45 M-13.2 -107.4 L-14.65 -95.65 -18.1 -98.95 -18.9 -96.7 -14.4 -94.15 -9.5 -105.15 -13.2 -107.4" fill="#1d9500" fill-rule="evenodd" stroke="none"/>
    <path d="M-17.9 -95.3 L-18.25 -95.5 -17.5 -95.1 -17.9 -95.3" fill="#121212" fill-rule="evenodd" stroke="none"/>
  </g>
</svg>
