<?xml version="1.0" encoding="UTF-8" standalone="no"?>
<svg xmlns:ffdec="https://www.free-decompiler.com/flash" xmlns:xlink="http://www.w3.org/1999/xlink" ffdec:objectType="shape" height="62.2px" width="45.8px" xmlns="http://www.w3.org/2000/svg">
  <g transform="matrix(1.0, 0.0, 0.0, 1.0, 16.4, 11.2)">
    <path d="M25.95 47.4 L25.85 47.4 26.05 46.35 25.95 47.4" fill="#c38145" fill-rule="evenodd" stroke="none"/>
    <path d="M-0.9 -11.15 Q3.75 -10.4 7.6 -7.6 L9.55 -5.35 12.35 -0.8 Q14.0 2.15 15.55 6.5 L18.25 14.0 20.25 20.2 22.25 26.5 25.05 33.95 Q26.7 38.15 26.85 41.0 L26.9 46.1 Q26.9 47.05 25.95 47.4 L26.05 46.35 25.85 47.4 Q24.1 48.85 21.95 49.05 20.0 49.05 18.6 47.9 L16.1 45.75 Q14.2 44.2 10.95 40.45 7.7 36.65 5.65 33.35 3.6 30.0 0.75 27.1 -2.1 24.25 -4.95 20.15 -7.8 16.1 -10.8 12.3 -13.85 8.5 -13.9 6.7 -13.95 4.9 -14.2 4.05 -14.5 2.95 -14.4 1.9 -14.0 -2.5 -11.85 -6.25 L-12.15 -3.05 Q-12.15 5.45 3.1 26.2 9.1 34.35 14.5 40.15 20.0 46.1 21.6 46.1 22.9 46.1 23.45 45.1 24.05 44.0 24.05 41.5 24.05 37.5 20.75 27.6 17.0 16.3 11.85 7.1 8.85 1.7 7.9 -2.7 5.9 -8.8 -3.4 -11.0 L-0.9 -11.15" fill="#7b4e2f" fill-rule="evenodd" stroke="none"/>
    <path d="M25.95 47.4 Q26.9 47.05 26.9 46.1 L26.85 41.0 Q26.7 38.15 25.05 33.95 L22.25 26.5 20.25 20.2 18.25 14.0 15.55 6.5 Q14.0 2.15 12.35 -0.8 L9.55 -5.35 7.6 -7.6 Q3.75 -10.4 -0.9 -11.15 2.0 -11.0 6.1 -9.5 11.85 -7.4 12.55 -5.45 21.4 18.0 25.3 29.55 29.4 41.75 29.4 44.85 29.4 47.0 27.9 48.75 26.0 51.0 22.5 51.0 21.05 51.0 18.3 49.4 15.25 47.65 13.15 44.8 L11.2 42.7 Q5.7 36.25 -1.95 26.5 L-14.55 10.4 Q-15.3 9.45 -15.9 7.75 L-16.4 5.5 Q-16.4 2.1 -14.9 -1.4 -13.6 -4.45 -11.65 -6.6 L-11.85 -6.25 Q-14.0 -2.5 -14.4 1.9 -14.5 2.95 -14.2 4.05 -13.95 4.9 -13.9 6.7 -13.85 8.5 -10.8 12.3 -7.8 16.1 -4.95 20.15 -2.1 24.25 0.75 27.1 3.6 30.0 5.65 33.35 7.7 36.65 10.95 40.45 14.2 44.2 16.1 45.75 L18.6 47.9 Q20.0 49.05 21.95 49.05 24.1 48.85 25.85 47.4 L25.95 47.4" fill="#3a2516" fill-rule="evenodd" stroke="none"/>
    <path d="M-11.85 -6.25 L-11.65 -6.6 -7.55 -8.85 -3.4 -11.0 Q5.9 -8.8 7.9 -2.7 8.85 1.7 11.85 7.1 17.0 16.3 20.75 27.6 24.05 37.5 24.05 41.5 24.05 44.0 23.45 45.1 22.9 46.1 21.6 46.1 20.0 46.1 14.5 40.15 9.1 34.35 3.1 26.2 -12.15 5.45 -12.15 -3.05 L-11.85 -6.25 M-4.45 -1.85 Q-5.5 -0.65 -5.5 1.2 -5.5 4.4 -2.0 10.5 L4.7 22.45 Q7.7 28.7 11.8 32.25 14.1 34.25 16.0 34.9 16.9 34.8 16.9 33.6 16.9 32.35 13.8 25.8 L9.0 15.25 Q3.2 -0.25 -0.25 -3.25 -3.05 -3.4 -4.45 -1.85" fill="#97613b" fill-rule="evenodd" stroke="none"/>
    <path d="M-4.45 -1.85 Q-3.05 -3.4 -0.25 -3.25 3.2 -0.25 9.0 15.25 L13.8 25.8 Q16.9 32.35 16.9 33.6 16.9 34.8 16.0 34.9 14.1 34.25 11.8 32.25 7.7 28.7 4.7 22.45 L-2.0 10.5 Q-5.5 4.4 -5.5 1.2 -5.5 -0.65 -4.45 -1.85" fill="#b47448" fill-rule="evenodd" stroke="none"/>
  </g>
</svg>
