<?xml version="1.0" encoding="UTF-8" standalone="no"?>
<svg xmlns:ffdec="https://www.free-decompiler.com/flash" xmlns:xlink="http://www.w3.org/1999/xlink" ffdec:objectType="shape" height="36.05px" width="36.0px" xmlns="http://www.w3.org/2000/svg">
  <g transform="matrix(1.0, 0.0, 0.0, 1.0, 18.0, 36.05)">
    <path d="M14.0 -6.7 L12.7 -5.3 Q7.45 0.0 0.0 0.0 -7.5 0.0 -12.75 -5.3 -18.0 -10.55 -18.0 -18.0 -18.0 -25.45 -12.75 -30.75 L-11.25 -32.1 Q-15.25 -27.25 -15.25 -20.75 -15.25 -13.3 -10.0 -8.05 -4.75 -2.75 2.75 -2.75 9.2 -2.75 14.0 -6.7" fill="#ab6262" fill-rule="evenodd" stroke="none"/>
    <path d="M2.1 -35.95 Q8.2 -35.3 12.7 -30.75 17.25 -26.2 17.9 -20.1 11.75 -20.75 7.25 -25.3 2.75 -29.8 2.1 -35.95" fill="#4e2626" fill-rule="evenodd" stroke="none"/>
    <path d="M-2.8 -35.85 L0.0 -36.05 2.1 -35.95 Q2.75 -29.8 7.25 -25.3 11.75 -20.75 17.9 -20.1 L18.0 -18.0 17.8 -15.2 15.0 -15.0 Q7.5 -15.0 2.25 -20.3 -3.0 -25.55 -3.0 -33.0 L-2.8 -35.85" fill="#603131" fill-rule="evenodd" stroke="none"/>
    <path d="M17.8 -15.2 Q17.5 -13.15 16.75 -11.25 13.65 -10.0 10.0 -10.0 2.5 -10.0 -2.75 -15.3 -8.0 -20.55 -8.0 -28.0 -8.0 -31.65 -6.7 -34.8 L-2.8 -35.85 -3.0 -33.0 Q-3.0 -25.55 2.25 -20.3 7.5 -15.0 15.0 -15.0 L17.8 -15.2" fill="#723d3d" fill-rule="evenodd" stroke="none"/>
    <path d="M16.75 -11.25 Q16.05 -9.55 15.0 -8.0 10.6 -5.0 5.0 -5.0 -2.5 -5.0 -7.75 -10.3 -13.0 -15.55 -13.0 -23.0 -13.0 -28.65 -9.95 -33.05 -8.45 -34.15 -6.7 -34.8 -8.0 -31.65 -8.0 -28.0 -8.0 -20.55 -2.75 -15.3 2.5 -10.0 10.0 -10.0 13.65 -10.0 16.75 -11.25" fill="#864a4a" fill-rule="evenodd" stroke="none"/>
    <path d="M15.0 -8.0 L14.0 -6.7 Q9.2 -2.75 2.75 -2.75 -4.75 -2.75 -10.0 -8.05 -15.25 -13.3 -15.25 -20.75 -15.25 -27.25 -11.25 -32.1 L-9.95 -33.05 Q-13.0 -28.65 -13.0 -23.0 -13.0 -15.55 -7.75 -10.3 -2.5 -5.0 5.0 -5.0 10.6 -5.0 15.0 -8.0" fill="#985555" fill-rule="evenodd" stroke="none"/>
  </g>
</svg>
