<?xml version="1.0" encoding="UTF-8" standalone="no"?>
<svg xmlns:ffdec="https://www.free-decompiler.com/flash" xmlns:xlink="http://www.w3.org/1999/xlink" ffdec:objectType="shape" height="88.0px" width="100.25px" xmlns="http://www.w3.org/2000/svg">
  <g transform="matrix(1.0, 0.0, 0.0, 1.0, 31.05, 61.95)">
    <path d="M5.95 -37.2 L7.7 -36.9 9.75 -36.5 9.75 -36.55 Q21.95 -34.35 31.0 -30.65 L32.1 -30.2 32.8 -29.9 33.0 -30.45 33.6 -32.65 Q35.0 -37.95 35.55 -43.4 35.8 -46.45 34.0 -49.6 L31.65 -52.75 31.2 -53.25 30.9 -54.55 30.9 -55.1 30.6 -55.25 30.6 -55.3 30.95 -55.1 Q33.9 -55.45 36.5 -51.95 L36.6 -51.85 37.25 -50.55 38.0 -49.0 37.7 -49.2 38.2 -47.9 Q38.95 -45.6 38.75 -43.3 38.1 -36.15 36.15 -29.15 L35.9 -28.45 36.85 -27.95 39.45 -26.45 39.45 -26.5 40.95 -25.5 41.95 -24.8 43.85 -23.0 44.2 -22.35 Q44.65 -21.55 45.15 -21.35 L45.1 -21.15 Q45.7 -19.8 45.45 -18.5 L45.4 -18.15 58.55 -7.1 Q67.0 -1.3 68.7 3.95 L68.75 4.0 Q70.15 8.3 67.0 10.85 66.6 12.1 64.7 11.95 63.2 11.9 60.45 10.75 55.35 8.55 50.85 7.45 L40.0 5.35 38.25 5.1 Q41.05 -1.05 41.4 -8.15 44.3 2.3 49.7 4.6 L61.05 9.35 Q63.45 10.35 64.75 10.5 L65.6 10.25 Q65.65 9.95 65.85 9.8 L66.1 9.65 66.3 8.2 66.15 7.0 66.05 6.55 65.95 6.15 Q63.75 -0.15 51.25 -7.4 L46.85 -9.85 45.05 -10.75 45.0 -10.75 43.5 -11.5 42.55 -10.55 42.05 -10.4 41.6 -10.4 41.45 -10.8 41.35 -11.65 41.3 -12.3 41.1 -13.7 40.9 -14.8 40.8 -15.1 Q40.35 -16.15 39.0 -17.25 36.8 -19.1 32.15 -21.1 30.6 -21.8 29.0 -22.45 L28.25 -22.75 26.85 -23.25 Q18.75 -26.1 8.1 -28.05 L4.3 -28.7 4.25 -28.7 2.2 -29.05 -6.05 -30.0 Q-11.85 -30.5 -16.85 -30.2 L-16.9 -30.2 -17.35 -30.15 -17.5 -30.15 -18.7 -30.05 -18.8 -30.05 -23.3 -29.4 Q-25.0 -29.0 -26.05 -28.4 L-26.75 -27.2 -27.35 -26.0 -27.8 -25.05 -28.9 -22.4 Q-31.5 -25.05 -30.95 -27.5 L-31.0 -27.45 -30.55 -28.6 -29.7 -33.35 -29.6 -33.55 Q-29.05 -34.75 -27.65 -35.7 L-27.6 -35.9 Q-26.9 -36.0 -26.15 -36.45 L-25.85 -36.6 Q-23.65 -37.5 -20.2 -38.0 L-19.9 -38.05 -19.95 -38.0 -19.55 -38.0 -18.5 -38.05 -17.85 -38.25 -17.15 -38.35 -15.7 -38.45 Q-12.45 -38.7 -8.85 -38.6 L-4.5 -38.4 -3.75 -38.35 2.95 -37.65 3.35 -37.6 Q3.6 -37.4 4.1 -37.3 L5.45 -37.2 5.95 -37.2 M35.55 -50.75 L35.35 -50.95 Q33.9 -52.9 32.4 -53.4 37.05 -48.25 36.55 -43.3 35.95 -37.4 34.35 -31.7 L33.7 -29.5 35.0 -28.9 35.4 -30.25 Q37.1 -36.7 37.75 -43.4 38.05 -46.9 35.9 -50.5 L35.55 -50.75 M23.7 -31.7 L21.4 -32.35 21.35 -32.35 20.0 -32.75 17.25 -33.45 9.5 -35.05 9.45 -35.05 7.35 -35.45 5.2 -35.8 4.0 -31.7 4.05 -31.6 4.65 -30.15 8.35 -29.55 Q19.2 -27.6 27.5 -24.6 L28.8 -24.15 29.5 -23.85 32.75 -22.45 36.25 -20.75 38.3 -19.55 39.05 -19.05 39.1 -19.05 40.7 -17.7 Q41.9 -16.6 42.25 -15.5 L42.35 -15.3 42.4 -15.05 42.45 -14.25 42.6 -12.85 42.65 -12.95 42.95 -13.75 43.0 -13.85 43.0 -13.95 43.05 -14.1 43.4 -15.85 44.0 -18.8 44.05 -19.25 43.7 -20.6 43.6 -20.7 43.6 -20.75 Q42.4 -22.9 38.65 -25.2 L38.15 -25.5 35.1 -27.15 34.9 -27.25 34.35 -27.55 32.7 -28.3 30.65 -29.2 23.7 -31.7 M2.95 -31.75 L3.0 -31.8 3.9 -34.85 4.0 -35.2 4.2 -35.95 4.1 -35.95 3.1 -36.1 1.95 -36.25 -3.9 -36.9 -8.7 -37.1 -9.9 -37.15 -10.4 -37.15 -11.75 -37.1 -11.8 -37.1 -14.0 -37.05 -14.9 -37.0 -15.45 -36.95 -15.6 -36.95 -15.75 -36.95 -17.0 -36.85 -18.95 -36.6 -19.0 -36.6 -20.15 -32.45 -20.05 -32.4 -19.0 -31.55 -18.95 -31.55 -17.6 -31.65 -16.95 -31.7 -16.9 -31.7 Q-11.8 -32.0 -5.95 -31.5 L2.4 -30.55 3.45 -30.35 3.0 -31.45 Q2.9 -31.6 2.95 -31.75 M44.55 -14.1 L44.5 -13.95 44.4 -13.4 44.45 -13.5 44.05 -12.3 Q48.05 -10.45 51.75 -8.25 64.65 -0.75 66.9 5.85 L67.3 8.05 Q67.95 6.5 67.3 4.45 65.6 -0.4 57.7 -5.85 L57.65 -5.9 53.35 -9.5 45.05 -16.45 44.55 -14.1 M-21.25 -32.2 L-21.25 -32.25 -21.2 -32.45 -20.05 -36.5 -20.2 -36.45 Q-24.35 -35.85 -26.5 -34.6 L-26.6 -34.55 Q-27.7 -33.9 -28.2 -33.0 L-28.85 -29.6 -29.1 -28.2 -29.2 -27.9 -29.5 -27.2 Q-29.75 -25.9 -28.75 -24.5 L-28.6 -25.05 Q-29.15 -26.1 -28.95 -27.1 L-28.6 -28.1 -28.15 -28.7 Q-27.25 -29.8 -25.0 -30.5 L-24.6 -30.6 -22.1 -31.15 -20.4 -31.4 -21.05 -31.9 -21.2 -32.15 -21.25 -32.2" fill="#510000" fill-rule="evenodd" stroke="none"/>
    <path d="M21.35 -32.35 L21.4 -32.35 23.7 -31.7 22.7 -27.45 22.15 -27.6 20.55 -28.1 19.9 -28.25 20.5 -30.1 21.35 -32.3 21.35 -32.35 M7.35 -35.45 L9.45 -35.05 9.5 -35.05 17.25 -33.45 16.55 -31.0 16.05 -29.25 8.6 -30.8 5.65 -31.3 5.9 -32.3 6.35 -34.0 6.4 -34.15 6.7 -35.55 7.35 -35.45 M-3.9 -36.9 L1.95 -36.25 3.1 -36.1 4.1 -35.95 4.2 -35.95 4.0 -35.2 3.9 -34.85 3.0 -31.8 2.95 -31.75 1.65 -31.95 1.05 -32.0 -4.6 -32.6 -4.65 -32.75 -4.45 -34.0 -4.4 -34.35 -4.4 -34.2 -4.25 -34.0 Q-3.95 -33.7 -3.35 -33.7 -2.85 -33.7 -2.65 -34.0 -2.5 -34.2 -2.5 -34.6 -2.5 -35.5 -3.45 -35.6 L-4.25 -35.35 -3.9 -36.9 M1.5 -34.35 Q1.5 -35.3 0.7 -35.2 -0.15 -35.05 -0.15 -34.1 L-0.15 -34.0 Q-0.3 -33.5 0.5 -33.5 1.25 -33.5 1.45 -34.0 L1.5 -34.35 M53.35 -9.5 L57.65 -5.9 57.7 -5.85 Q65.6 -0.4 67.3 4.45 67.95 6.5 67.3 8.05 L66.9 5.85 Q64.65 -0.75 51.75 -8.25 48.05 -10.45 44.05 -12.3 L44.45 -13.5 44.4 -13.4 44.5 -13.95 44.55 -14.1 Q48.95 -12.05 53.1 -9.65 L53.35 -9.5" fill="#e51d1d" fill-rule="evenodd" stroke="none"/>
    <path d="M30.65 -29.2 L32.7 -28.3 34.35 -27.55 34.9 -27.25 35.1 -27.15 38.15 -25.5 38.65 -25.2 Q42.4 -22.9 43.6 -20.75 L43.6 -20.7 43.7 -20.6 44.05 -19.25 44.0 -18.8 43.4 -15.85 43.2 -16.25 Q42.35 -17.7 40.35 -19.25 L37.9 -20.95 34.2 -22.95 33.2 -23.45 33.1 -23.5 32.15 -23.9 29.45 -25.05 29.35 -25.1 30.4 -28.5 30.65 -29.2 M-20.05 -32.4 L-20.15 -32.45 -19.0 -36.6 -18.95 -36.6 -17.0 -36.85 -15.75 -36.95 -15.6 -36.95 -15.45 -36.95 -14.9 -37.0 -14.0 -37.05 -14.25 -35.7 -14.3 -35.5 -14.6 -34.0 -14.85 -32.8 -16.85 -32.7 -18.1 -32.6 -18.35 -32.55 -20.05 -32.4 M44.55 -14.1 L45.05 -16.45 53.35 -9.5 53.1 -9.65 Q48.95 -12.05 44.55 -14.1 M-15.8 -34.9 L-15.8 -35.1 Q-15.9 -35.7 -16.5 -35.7 L-17.1 -35.45 -17.25 -34.95 Q-17.45 -34.1 -16.55 -34.1 -15.8 -34.1 -15.8 -34.9 M-28.85 -29.6 L-28.2 -33.0 Q-27.7 -33.9 -26.6 -34.55 L-26.5 -34.6 Q-24.35 -35.85 -20.2 -36.45 L-20.05 -36.5 -21.2 -32.45 -21.25 -32.25 -21.25 -32.2 -21.3 -32.2 -23.75 -31.75 Q-26.0 -31.25 -27.45 -30.5 L-28.6 -29.75 -28.7 -29.7 -28.85 -29.6" fill="#990000" fill-rule="evenodd" stroke="none"/>
    <path d="M46.85 -9.85 L51.25 -7.4 Q63.75 -0.15 65.95 6.15 L66.05 6.55 65.9 6.9 Q65.45 8.0 63.75 8.0 63.0 8.0 59.75 6.4 L55.35 4.05 Q52.1 2.0 49.7 -0.3 44.1 -5.6 44.1 -9.05 44.1 -9.85 46.85 -9.85" fill="#740000" fill-rule="evenodd" stroke="none"/>
    <path d="M41.45 -10.8 L41.6 -10.4 42.05 -10.4 42.55 -10.55 43.5 -11.5 45.0 -10.75 45.05 -10.75 46.85 -9.85 Q44.1 -9.85 44.1 -9.05 44.1 -5.6 49.7 -0.3 52.1 2.0 55.35 4.05 L59.75 6.4 Q63.0 8.0 63.75 8.0 65.45 8.0 65.9 6.9 L66.05 6.55 66.15 7.0 66.3 8.2 66.1 9.65 65.85 9.8 Q65.65 9.95 65.6 10.25 L64.75 10.5 Q63.45 10.35 61.05 9.35 L49.7 4.6 Q44.3 2.3 41.4 -8.15 L41.45 -10.15 41.45 -10.8" fill="#620000" fill-rule="evenodd" stroke="none"/>
    <path d="M26.9 -8.4 L26.65 -11.9 24.05 -15.1 Q20.75 -18.2 16.3 -19.35 L5.35 -21.6 -4.2 -23.25 Q-8.9 -24.0 -13.25 -23.35 -15.0 -21.1 -15.8 -18.5 -17.25 -13.95 -17.75 -9.15 -18.25 -4.15 -17.0 0.7 -15.95 4.75 -13.7 8.25 -11.25 11.95 -8.1 14.95 -5.0 18.0 -0.8 19.15 3.3 20.25 7.6 19.15 11.55 18.35 14.8 15.7 18.45 12.7 21.15 8.95 23.8 5.3 25.25 0.95 26.75 -3.6 26.9 -8.4 M-28.55 -3.1 L-28.4 -2.55 -28.65 -7.3 Q-28.65 -11.75 -27.6 -14.15 L-26.0 -18.15 Q-25.45 -19.75 -23.35 -22.85 -21.25 -25.95 -17.45 -27.05 L-6.5 -27.55 Q0.65 -26.95 8.35 -25.25 L18.9 -22.8 22.9 -21.65 25.1 -20.1 25.3 -19.2 25.6 -18.1 25.95 -15.85 30.4 -16.05 30.75 -14.35 31.15 -12.05 32.35 -11.95 34.2 -11.65 34.3 -8.8 Q34.3 -1.6 31.75 4.45 29.65 9.2 25.95 13.3 17.1 23.15 2.4 24.25 L-2.0 23.6 -7.9 21.85 Q-20.15 16.25 -25.45 5.9 -27.65 1.6 -28.55 -3.1" fill="#f4bb83" fill-rule="evenodd" stroke="none"/>
    <path d="M-23.3 -29.4 L-18.8 -30.05 -18.7 -30.05 -17.5 -30.15 -17.35 -30.15 -16.9 -30.2 -16.85 -30.2 Q-11.85 -30.5 -6.05 -30.0 L2.2 -29.05 4.25 -28.7 4.3 -28.7 8.1 -28.05 Q18.75 -26.1 26.85 -23.25 L27.25 -20.8 27.25 -17.8 27.25 -17.4 27.2 -17.25 32.95 -16.8 33.2 -15.85 33.0 -13.15 39.65 -11.6 39.65 -10.1 39.65 -9.7 Q39.55 -1.95 36.25 4.85 34.15 9.1 30.8 13.0 21.0 24.3 6.1 24.3 L2.4 24.25 Q17.1 23.15 25.95 13.3 29.65 9.2 31.75 4.45 34.3 -1.6 34.3 -8.8 L34.2 -11.65 32.35 -11.95 31.15 -12.05 30.75 -14.35 30.4 -16.05 25.95 -15.85 25.6 -18.1 25.3 -19.2 25.1 -20.1 22.9 -21.65 18.9 -22.8 8.35 -25.25 Q0.65 -26.95 -6.5 -27.55 L-17.45 -27.05 Q-21.25 -25.95 -23.35 -22.85 -25.45 -19.75 -26.0 -18.15 L-27.6 -14.15 Q-28.65 -11.75 -28.65 -7.3 L-28.4 -2.55 -28.55 -3.1 -29.2 -9.55 -29.2 -9.8 -29.2 -10.1 -29.2 -10.6 -29.05 -13.2 -28.85 -15.2 Q-28.1 -20.35 -25.8 -25.05 L-24.7 -27.2 -24.65 -27.25 -23.65 -28.9 -23.3 -29.4" fill="#e7a867" fill-rule="evenodd" stroke="none"/>
    <path d="M26.9 -8.4 Q26.75 -3.6 25.25 0.95 23.8 5.3 21.15 8.95 18.45 12.7 14.8 15.7 11.55 18.35 7.6 19.15 3.3 20.25 -0.8 19.15 -5.0 18.0 -8.1 14.95 -11.25 11.95 -13.7 8.25 -15.95 4.75 -17.0 0.7 -18.25 -4.15 -17.75 -9.15 -17.25 -13.95 -15.8 -18.5 -15.0 -21.1 -13.25 -23.35 -8.9 -24.0 -4.2 -23.25 L5.35 -21.6 16.3 -19.35 Q20.75 -18.2 24.05 -15.1 L26.65 -11.9 26.9 -8.4" fill="#f5c89d" fill-rule="evenodd" stroke="none"/>
    <path d="M38.25 5.1 Q35.6 10.75 30.85 15.5 20.25 26.05 5.25 26.05 -9.75 26.05 -20.3 15.5 -30.95 4.85 -30.95 -10.15 -30.95 -12.75 -30.6 -15.2 -30.15 -18.95 -28.9 -22.4 L-27.8 -25.05 -27.35 -26.0 -26.75 -27.2 -26.05 -28.4 Q-25.0 -29.0 -23.3 -29.4 L-23.65 -28.9 -24.65 -27.25 -24.7 -27.2 -25.8 -25.05 Q-28.1 -20.35 -28.85 -15.2 L-29.05 -13.2 -29.2 -10.6 -29.2 -10.1 -29.2 -9.8 -29.2 -9.55 -28.55 -3.1 Q-27.65 1.6 -25.45 5.9 -20.15 16.25 -7.9 21.85 L-2.0 23.6 2.4 24.25 6.1 24.3 Q21.0 24.3 30.8 13.0 34.15 9.1 36.25 4.85 39.55 -1.95 39.65 -9.7 L39.65 -10.1 39.65 -11.6 40.85 -11.35 40.95 -11.9 41.3 -12.3 41.35 -11.65 41.45 -10.8 41.45 -10.15 41.4 -8.15 Q41.05 -1.05 38.25 5.1 M40.3 -13.35 L40.25 -13.25 40.25 -13.3 40.3 -13.35" fill="#a46637" fill-rule="evenodd" stroke="none"/>
    <path d="M29.0 -22.45 Q30.6 -21.8 32.15 -21.1 36.8 -19.1 39.0 -17.25 L39.0 -15.05 38.95 -14.6 39.0 -14.5 39.0 -13.45 36.6 -13.4 33.35 -13.8 35.6 -18.95 Q32.3 -16.95 27.25 -17.4 L27.25 -17.8 29.0 -22.45 M-4.5 -38.4 Q-5.1 -40.55 -4.75 -43.25 L-7.1 -40.2 -6.85 -42.65 Q-6.6 -43.9 -5.95 -44.6 L-4.8 -45.4 -3.05 -45.4 -0.4 -44.15 -0.4 -44.1 0.9 -39.1 -1.55 -42.25 Q-3.3 -40.4 -3.75 -38.35 L-4.5 -38.4" fill="#46240f" fill-rule="evenodd" stroke="none"/>
    <path d="M26.85 -23.25 L28.25 -22.75 29.0 -22.45 27.25 -17.8 27.25 -20.8 26.85 -23.25 M40.9 -14.8 L41.1 -13.7 41.3 -12.3 40.95 -11.9 40.85 -11.35 39.65 -11.6 33.0 -13.15 33.2 -15.85 32.95 -16.8 27.2 -17.25 27.25 -17.4 Q32.3 -16.95 35.6 -18.95 L33.35 -13.8 36.6 -13.4 39.0 -13.45 39.45 -13.45 39.5 -13.45 40.1 -13.35 40.2 -13.35 40.3 -13.35 40.9 -14.8 M40.25 -13.3 L40.25 -13.25 40.3 -13.35 40.25 -13.3 40.2 -13.3 40.25 -13.3" fill="#211107" fill-rule="evenodd" stroke="none"/>
    <path d="M4.1 -37.45 Q4.0 -39.35 3.55 -41.05 3.0 -43.15 1.95 -44.4 L1.2 -45.1 0.05 -45.95 -1.65 -47.3 -2.15 -47.55 Q-0.2 -46.75 1.5 -44.95 3.8 -42.45 4.1 -38.5 L4.15 -37.6 4.15 -37.45 4.1 -37.45 M-8.85 -38.6 L-8.9 -38.9 -8.75 -40.3 -8.6 -41.55 -8.65 -42.0 Q-8.9 -42.9 -10.4 -41.25 L-10.65 -41.0 -12.15 -39.05 -12.2 -39.3 -11.9 -40.45 -11.3 -42.4 -11.15 -42.9 Q-10.8 -43.85 -8.05 -46.45 L-6.55 -47.35 -6.5 -47.35 Q-3.1 -47.35 -0.9 -45.8 L0.7 -44.25 Q1.75 -42.9 2.35 -40.9 L2.95 -37.65 -3.75 -38.35 Q-3.3 -40.4 -1.55 -42.25 L0.9 -39.1 -0.4 -44.1 -0.4 -44.15 -3.05 -45.4 -4.8 -45.4 -5.95 -44.6 Q-6.6 -43.9 -6.85 -42.65 L-7.1 -40.2 -4.75 -43.25 Q-5.1 -40.55 -4.5 -38.4 L-8.85 -38.6 M39.0 -17.25 Q40.35 -16.15 40.8 -15.1 L40.9 -14.8 40.3 -13.35 40.2 -13.35 40.1 -13.35 39.5 -13.45 39.45 -13.45 39.0 -13.45 39.0 -14.5 38.95 -14.6 39.0 -15.05 39.0 -17.25 M40.25 -13.3 L40.2 -13.3 40.25 -13.3 M-11.65 -44.2 L-11.35 -44.6 Q-11.35 -44.25 -11.7 -44.1 L-11.65 -44.2" fill="#391e0d" fill-rule="evenodd" stroke="none"/>
    <path d="M-2.15 -47.55 L-1.65 -47.3 0.05 -45.95 1.2 -45.1 1.95 -44.4 Q3.0 -43.15 3.55 -41.05 4.0 -39.35 4.1 -37.45 L3.35 -37.6 2.95 -37.65 2.35 -40.9 Q1.75 -42.9 0.7 -44.25 L-0.9 -45.8 Q-3.1 -47.35 -6.5 -47.35 L-6.55 -47.35 -8.05 -46.45 Q-10.8 -43.85 -11.15 -42.9 L-11.3 -42.4 -11.9 -40.45 -12.2 -39.3 -12.15 -39.05 -10.65 -41.0 -10.4 -41.25 Q-8.9 -42.9 -8.65 -42.0 L-8.6 -41.55 -8.75 -40.3 -8.9 -38.9 -8.85 -38.6 Q-12.45 -38.7 -15.7 -38.45 L-17.15 -38.35 -17.85 -38.25 -17.8 -38.3 -18.1 -38.25 -18.2 -38.25 -17.8 -39.15 Q-15.85 -43.9 -12.2 -46.0 -8.25 -48.35 -5.0 -48.2 L-4.5 -48.2 Q-3.3 -48.05 -2.15 -47.55 M-11.65 -44.2 L-11.7 -44.1 Q-11.35 -44.25 -11.35 -44.6 L-11.65 -44.2" fill="#2c180b" fill-rule="evenodd" stroke="none"/>
    <path d="M30.8 -43.1 Q30.8 -46.8 29.85 -49.65 28.05 -54.8 23.6 -55.3 22.6 -55.4 20.4 -56.25 L17.1 -57.5 12.75 -58.1 Q9.6 -58.2 7.75 -56.3 L4.5 -53.2 2.45 -50.8 2.15 -50.1 4.3 -47.05 Q6.55 -43.85 7.0 -41.75 L7.25 -39.65 Q7.3 -39.05 7.7 -38.7 8.35 -38.1 9.9 -38.05 14.4 -37.9 17.55 -36.5 L20.2 -35.5 Q22.3 -34.8 23.1 -34.8 25.1 -34.8 25.85 -37.9 L25.9 -38.0 26.05 -39.8 26.2 -41.25 25.95 -44.8 Q25.1 -48.05 24.8 -49.45 26.8 -48.55 27.9 -45.65 28.75 -43.45 28.75 -41.25 L28.4 -37.95 28.25 -37.2 28.25 -36.85 Q28.35 -36.5 28.9 -36.5 L29.7 -36.8 Q30.45 -37.5 30.7 -39.7 L30.8 -43.1 M-5.0 -49.75 L-4.75 -50.5 -4.6 -50.8 -2.6 -55.15 Q-1.95 -56.4 0.85 -58.1 4.25 -60.15 6.55 -59.45 L8.25 -59.45 Q8.35 -59.3 8.6 -59.3 L9.35 -59.45 12.3 -59.45 17.2 -58.35 Q22.9 -57.0 27.75 -54.9 L28.55 -54.55 29.9 -52.85 32.45 -47.75 Q33.5 -45.4 33.25 -42.5 32.95 -39.65 33.1 -38.75 L32.1 -34.5 32.1 -34.4 31.55 -32.4 31.0 -30.65 Q21.95 -34.35 9.75 -36.55 L9.75 -36.5 7.7 -36.9 5.95 -37.2 5.65 -37.25 5.65 -37.35 5.65 -38.45 Q5.35 -43.05 2.6 -45.95 0.0 -48.75 -3.05 -49.45 L-4.35 -49.7 -5.0 -49.75" fill="#0058b0" fill-rule="evenodd" stroke="none"/>
    <path d="M30.8 -43.1 L30.7 -39.7 Q30.45 -37.5 29.7 -36.8 L28.9 -36.5 Q28.35 -36.5 28.25 -36.85 L28.25 -37.2 28.4 -37.95 28.75 -41.25 Q28.75 -43.45 27.9 -45.65 26.8 -48.55 24.8 -49.45 25.1 -48.05 25.95 -44.8 L26.2 -41.25 26.05 -39.8 25.9 -38.0 25.85 -37.9 Q25.1 -34.8 23.1 -34.8 22.3 -34.8 20.2 -35.5 L17.55 -36.5 Q14.4 -37.9 9.9 -38.05 8.35 -38.1 7.7 -38.7 7.3 -39.05 7.25 -39.65 L7.0 -41.75 Q6.55 -43.85 4.3 -47.05 L2.15 -50.1 2.45 -50.8 4.5 -53.2 7.75 -56.3 Q9.6 -58.2 12.75 -58.1 L17.1 -57.5 20.4 -56.25 Q22.6 -55.4 23.6 -55.3 28.05 -54.8 29.85 -49.65 30.8 -46.8 30.8 -43.1" fill="#006cd9" fill-rule="evenodd" stroke="none"/>
    <path d="M12.3 -59.45 L9.35 -59.45 8.6 -59.3 Q8.35 -59.3 8.25 -59.45 L6.55 -59.45 Q4.25 -60.15 0.85 -58.1 -1.95 -56.4 -2.6 -55.15 L-4.6 -50.8 -4.75 -50.5 -5.0 -49.75 -7.25 -49.6 -7.4 -49.55 -9.3 -49.0 -11.05 -48.3 -11.25 -48.2 -12.1 -47.8 -12.95 -47.3 -14.5 -46.25 -15.0 -45.85 -16.25 -44.6 -16.6 -44.2 Q-16.65 -47.2 -15.7 -50.1 L-15.45 -50.8 Q-14.25 -53.8 -9.9 -58.55 L-10.45 -58.35 -9.5 -58.7 -8.5 -59.0 -6.4 -59.55 -6.3 -59.55 -3.15 -60.1 -0.75 -60.35 Q2.1 -60.55 5.25 -60.35 L12.3 -59.45 M31.0 -30.65 L31.55 -32.4 32.1 -34.4 32.1 -34.5 33.1 -38.75 Q32.95 -39.65 33.25 -42.5 33.5 -45.4 32.45 -47.75 L29.9 -52.85 28.55 -54.55 29.35 -54.2 30.5 -53.65 30.85 -53.6 30.95 -53.5 31.2 -53.2 31.2 -53.25 31.65 -52.75 34.0 -49.6 Q35.8 -46.45 35.55 -43.4 35.0 -37.95 33.6 -32.65 L33.0 -30.45 32.8 -29.9 32.1 -30.2 31.0 -30.65 M40.95 -25.5 L39.45 -26.5 39.45 -26.45 36.85 -27.95 35.9 -28.45 36.15 -29.15 Q38.1 -36.15 38.75 -43.3 38.95 -45.6 38.2 -47.9 43.05 -43.7 43.05 -38.65 43.05 -34.35 41.75 -28.9 L40.95 -25.5" fill="#004993" fill-rule="evenodd" stroke="none"/>
    <path d="M-5.0 -49.75 L-4.35 -49.7 -3.05 -49.45 Q0.0 -48.75 2.6 -45.95 5.35 -43.05 5.65 -38.45 L5.65 -37.35 5.65 -37.25 5.95 -37.2 5.45 -37.2 4.1 -37.3 Q3.6 -37.4 3.35 -37.6 L4.1 -37.45 4.15 -37.45 4.15 -37.6 4.1 -38.5 Q3.8 -42.45 1.5 -44.95 -0.2 -46.75 -2.15 -47.55 -3.3 -48.05 -4.5 -48.2 L-5.0 -48.2 Q-8.25 -48.35 -12.2 -46.0 -15.85 -43.9 -17.8 -39.15 L-18.2 -38.25 -18.1 -38.25 -17.8 -38.3 -17.85 -38.25 -18.5 -38.05 -19.55 -38.0 -19.95 -38.0 -19.9 -38.05 -19.85 -38.05 -19.5 -39.1 -19.3 -39.55 -19.25 -39.65 -19.0 -40.2 -18.9 -40.5 -18.8 -40.65 -18.75 -40.8 -18.65 -40.95 -18.55 -41.15 -18.5 -41.3 -17.15 -43.5 -16.6 -44.15 -16.6 -44.2 -16.25 -44.6 -15.0 -45.85 -14.5 -46.25 -12.95 -47.3 -12.1 -47.8 -11.25 -48.2 -11.05 -48.3 -9.3 -49.0 -7.4 -49.55 -7.25 -49.6 -5.0 -49.75 M28.55 -54.55 L27.75 -54.9 Q22.9 -57.0 17.2 -58.35 L12.3 -59.45 5.25 -60.35 Q2.1 -60.55 -0.75 -60.35 L-3.15 -60.1 -6.3 -59.55 -6.4 -59.55 -8.5 -59.0 -9.5 -58.7 -10.45 -58.35 -12.05 -57.7 -12.9 -57.35 -12.9 -57.3 Q-18.0 -54.85 -20.4 -50.5 -22.8 -46.1 -24.55 -40.85 L-25.65 -37.35 -25.85 -36.6 -26.15 -36.45 Q-26.9 -36.0 -27.6 -35.9 L-27.2 -37.4 -26.45 -39.8 Q-24.5 -46.05 -21.7 -51.2 -17.85 -58.4 -7.1 -60.9 3.3 -63.45 17.55 -59.8 23.05 -58.5 27.75 -56.55 L28.35 -56.3 28.65 -56.15 28.75 -56.1 30.4 -55.35 30.6 -55.3 30.6 -55.25 30.9 -55.1 30.9 -54.55 31.2 -53.25 31.2 -53.2 30.95 -53.5 30.85 -53.6 30.5 -53.65 29.35 -54.2 28.55 -54.55 M36.6 -51.85 L36.6 -51.9 36.8 -51.75 Q36.9 -51.7 37.05 -51.6 L40.05 -49.3 40.4 -49.0 40.6 -48.8 Q48.7 -41.9 48.05 -35.35 47.4 -29.05 45.65 -23.0 L45.55 -22.6 45.15 -21.35 Q44.65 -21.55 44.2 -22.35 L43.85 -23.0 44.05 -22.8 44.1 -22.95 44.5 -24.4 Q46.0 -29.9 46.55 -35.5 46.95 -40.7 41.25 -46.2 L41.25 -46.25 40.9 -46.55 39.65 -47.65 39.6 -47.65 38.0 -49.0 37.25 -50.55 36.6 -51.85" fill="#00254a" fill-rule="evenodd" stroke="none"/>
    <path d="M35.55 -50.75 L35.9 -50.5 Q38.05 -46.9 37.75 -43.4 37.1 -36.7 35.4 -30.25 L35.0 -28.9 33.7 -29.5 34.35 -31.7 Q35.95 -37.4 36.55 -43.3 37.05 -48.25 32.4 -53.4 33.9 -52.9 35.35 -50.95 L35.55 -50.75 M23.7 -31.7 L30.65 -29.2 30.4 -28.5 29.35 -25.1 22.15 -27.6 22.7 -27.45 23.7 -31.7 M4.05 -31.6 L4.0 -31.7 5.2 -35.8 7.35 -35.45 6.7 -35.55 6.4 -34.15 6.35 -34.0 5.9 -32.3 5.65 -31.3 4.05 -31.6 M17.25 -33.45 L20.0 -32.75 21.35 -32.35 21.35 -32.3 20.5 -30.1 19.9 -28.25 18.95 -28.5 16.05 -29.25 16.55 -31.0 17.25 -33.45 M-14.0 -37.05 L-11.8 -37.1 -11.75 -37.1 -10.4 -37.15 -9.9 -37.15 -8.7 -37.1 -3.9 -36.9 -4.25 -35.35 -4.4 -34.35 -4.45 -34.0 -4.65 -32.75 -4.6 -32.6 -9.55 -32.85 -14.85 -32.8 -14.6 -34.0 -14.3 -35.5 -14.25 -35.7 -14.0 -37.05 M-11.2 -35.15 Q-11.2 -35.8 -11.95 -35.65 -12.75 -35.5 -12.75 -34.9 -12.85 -34.1 -12.0 -34.1 -11.65 -34.1 -11.4 -34.55 L-11.2 -35.15 M-6.9 -34.85 Q-6.9 -35.75 -7.7 -35.55 -8.55 -35.4 -8.55 -34.75 -8.65 -34.0 -7.8 -34.0 L-7.7 -34.0 Q-6.9 -34.05 -6.9 -34.85" fill="#cc0000" fill-rule="evenodd" stroke="none"/>
    <path d="M-10.45 -58.35 L-9.9 -58.55 Q-14.25 -53.8 -15.45 -50.8 L-15.7 -50.1 Q-16.65 -47.2 -16.6 -44.2 L-16.6 -44.15 -17.15 -43.5 -18.5 -41.3 -18.55 -41.15 -18.65 -40.95 -18.75 -40.8 -18.8 -40.65 -18.9 -40.5 -19.0 -40.2 -19.25 -39.65 -19.3 -39.55 -19.5 -39.1 -19.85 -38.05 -19.9 -38.05 -20.2 -38.0 Q-23.65 -37.5 -25.85 -36.6 L-25.65 -37.35 -24.55 -40.85 Q-22.8 -46.1 -20.4 -50.5 -18.0 -54.85 -12.9 -57.3 L-12.9 -57.35 -12.05 -57.7 -10.45 -58.35 M38.0 -49.0 L39.6 -47.65 39.65 -47.65 40.9 -46.55 41.25 -46.25 41.25 -46.2 Q46.95 -40.7 46.55 -35.5 46.0 -29.9 44.5 -24.4 L44.1 -22.95 44.05 -22.8 43.85 -23.0 41.95 -24.8 40.95 -25.5 41.75 -28.9 Q43.05 -34.35 43.05 -38.65 43.05 -43.7 38.2 -47.9 L37.7 -49.2 38.0 -49.0" fill="#003a74" fill-rule="evenodd" stroke="none"/>
    <path d="M43.4 -15.85 L43.05 -14.1 43.0 -13.95 43.0 -13.85 42.95 -13.75 42.65 -12.95 42.6 -12.85 42.45 -14.25 42.4 -15.05 42.35 -15.3 42.25 -15.5 Q41.9 -16.6 40.7 -17.7 L39.1 -19.05 39.05 -19.05 38.3 -19.55 36.25 -20.75 32.75 -22.45 29.5 -23.85 28.8 -24.15 27.5 -24.6 Q19.2 -27.6 8.35 -29.55 L4.65 -30.15 4.05 -31.6 5.65 -31.3 8.6 -30.8 16.05 -29.25 18.95 -28.5 19.9 -28.25 20.55 -28.1 22.15 -27.6 29.35 -25.1 29.45 -25.05 32.15 -23.9 33.1 -23.5 33.2 -23.45 34.2 -22.95 37.9 -20.95 40.35 -19.25 Q42.35 -17.7 43.2 -16.25 L43.4 -15.85 M2.95 -31.75 Q2.9 -31.6 3.0 -31.45 L3.45 -30.35 2.4 -30.55 -5.95 -31.5 Q-11.8 -32.0 -16.9 -31.7 L-16.95 -31.7 -17.6 -31.65 -18.95 -31.55 -19.0 -31.55 -20.05 -32.4 -18.35 -32.55 -18.1 -32.6 -16.85 -32.7 -14.85 -32.8 -9.55 -32.85 -4.6 -32.6 1.05 -32.0 1.65 -31.95 2.95 -31.75 M-21.25 -32.2 L-21.2 -32.15 -21.05 -31.9 -20.4 -31.4 -22.1 -31.15 -24.6 -30.6 -25.0 -30.5 Q-27.25 -29.8 -28.15 -28.7 L-28.6 -28.1 -28.95 -27.1 Q-29.15 -26.1 -28.6 -25.05 L-28.75 -24.5 Q-29.75 -25.9 -29.5 -27.2 L-29.2 -27.9 -29.1 -28.2 -28.85 -29.6 -28.7 -29.7 -28.6 -29.75 -27.45 -30.5 Q-26.0 -31.25 -23.75 -31.75 L-21.3 -32.2 -21.25 -32.2" fill="#770000" fill-rule="evenodd" stroke="none"/>
    <path d="M-4.25 -35.35 L-3.45 -35.6 Q-2.5 -35.5 -2.5 -34.6 -2.5 -34.2 -2.65 -34.0 -2.85 -33.7 -3.35 -33.7 -3.95 -33.7 -4.25 -34.0 L-4.4 -34.2 -4.4 -34.35 -4.25 -35.35 M1.5 -34.35 L1.45 -34.0 Q1.25 -33.5 0.5 -33.5 -0.3 -33.5 -0.15 -34.0 L-0.15 -34.1 Q-0.15 -35.05 0.7 -35.2 1.5 -35.3 1.5 -34.35 M-11.2 -35.15 L-11.4 -34.55 Q-11.65 -34.1 -12.0 -34.1 -12.85 -34.1 -12.75 -34.9 -12.75 -35.5 -11.95 -35.65 -11.2 -35.8 -11.2 -35.15 M-15.8 -34.9 Q-15.8 -34.1 -16.55 -34.1 -17.45 -34.1 -17.25 -34.95 L-17.1 -35.45 -16.5 -35.7 Q-15.9 -35.7 -15.8 -35.1 L-15.8 -34.9 M-6.9 -34.85 Q-6.9 -34.05 -7.7 -34.0 L-7.8 -34.0 Q-8.65 -34.0 -8.55 -34.75 -8.55 -35.4 -7.7 -35.55 -6.9 -35.75 -6.9 -34.85" fill="#fa4949" fill-rule="evenodd" stroke="none"/>
  </g>
</svg>
