<?xml version="1.0" encoding="UTF-8" standalone="no"?>
<svg xmlns:ffdec="https://www.free-decompiler.com/flash" xmlns:xlink="http://www.w3.org/1999/xlink" ffdec:objectType="shape" height="22.9px" width="33.1px" xmlns="http://www.w3.org/2000/svg">
  <g transform="matrix(1.0, 0.0, 0.0, 1.0, 14.9, 15.55)">
    <path d="M14.35 -13.85 L13.65 -13.95 Q8.35 -13.35 4.65 -9.3 3.3 -7.85 2.5 -6.45 L2.5 -6.4 2.1 -5.65 1.4 -3.5 1.35 -3.1 1.35 -3.0 Q1.85 -0.75 4.25 2.2 7.45 5.85 11.2 5.4 14.2 5.1 15.9 -2.15 L16.05 -2.8 16.15 -3.35 16.2 -3.95 16.3 -4.85 Q16.5 -7.0 16.3 -8.45 L15.4 -12.35 Q14.95 -13.55 14.35 -13.85 M0.1 -9.45 L2.1 -8.7 2.75 -9.55 6.05 -12.2 9.4 -14.55 12.05 -15.5 Q15.1 -15.95 16.8 -12.3 18.05 -9.6 18.2 -5.9 18.3 -2.95 16.9 1.2 14.9 6.95 11.35 7.35 9.65 7.55 3.35 4.1 2.1 3.45 0.95 1.35 -1.2 1.85 -3.5 0.9 -3.85 0.75 -6.1 2.55 -8.4 4.3 -10.3 4.5 -12.1 4.7 -12.8 4.15 -14.6 2.4 -14.9 -4.05 -15.05 -7.7 -14.0 -10.95 -12.8 -14.6 -11.55 -14.9 -10.25 -15.25 -7.95 -14.5 -5.65 -13.8 -4.4 -12.2 L-1.65 -9.25 -1.05 -9.3 0.1 -9.45 M0.55 -6.0 L0.95 -7.2 0.9 -7.35 Q-0.05 -8.8 -1.2 -8.3 -2.4 -7.85 -2.95 -6.8 -3.5 -5.8 -3.45 -3.55 -3.6 -3.4 -3.2 -2.65 L-1.95 -1.15 Q-1.05 -0.4 -0.4 -0.5 L0.4 -0.6 -0.25 -3.2 0.3 -5.15 0.55 -6.0 M-13.35 -4.6 L-13.35 -4.5 Q-13.2 -1.6 -12.45 0.3 -11.45 2.85 -9.6 2.65 -7.25 2.4 -3.95 -0.4 L-4.6 -1.75 -4.95 -3.45 -4.4 -5.7 -3.55 -7.6 -3.0 -8.25 -3.05 -8.35 -3.6 -9.2 -3.65 -9.25 -5.3 -11.8 Q-7.45 -13.95 -10.95 -13.55 -12.25 -13.4 -13.0 -10.2 -13.8 -7.0 -13.35 -4.6" fill="#4d0f0f" fill-rule="evenodd" stroke="none"/>
    <path d="M14.35 -13.85 Q14.95 -13.55 15.4 -12.35 L16.3 -8.45 Q16.5 -7.0 16.3 -4.85 L16.2 -3.95 16.15 -3.35 16.05 -2.8 15.9 -2.15 Q14.2 5.1 11.2 5.4 7.45 5.85 4.25 2.2 1.85 -0.75 1.35 -3.0 L1.35 -3.1 1.4 -3.5 2.1 -5.65 2.5 -6.4 2.45 -6.3 2.5 -6.15 Q2.7 -6.2 3.15 -6.75 3.6 -7.25 4.3 -7.2 L4.35 -6.75 3.55 -5.7 2.95 -4.8 Q3.0 -3.65 3.65 -2.45 L3.7 -2.35 4.45 -2.1 6.6 -1.7 Q8.1 -1.5 11.55 -1.65 L13.3 -1.85 Q15.1 -2.95 15.3 -4.45 L15.6 -6.8 15.8 -9.35 Q15.75 -10.85 14.95 -12.45 L14.35 -13.85 M-3.45 -3.55 L-2.95 -3.6 Q-1.3 -3.8 -0.5 -4.5 L0.4 -5.8 0.55 -6.0 0.3 -5.15 -0.25 -3.2 0.4 -0.6 -0.4 -0.5 Q-1.05 -0.4 -1.95 -1.15 L-3.2 -2.65 Q-3.6 -3.4 -3.45 -3.55 M-3.05 -8.35 L-3.0 -8.25 -3.55 -7.6 -4.4 -5.7 -4.95 -3.45 -4.6 -1.75 -3.95 -0.4 Q-7.25 2.4 -9.6 2.65 -11.45 2.85 -12.45 0.3 -13.2 -1.6 -13.35 -4.5 L-13.35 -4.6 -12.4 -4.35 -10.85 -4.1 -8.7 -4.1 -6.5 -4.3 Q-5.15 -4.45 -5.0 -6.4 -4.75 -8.25 -7.35 -11.1 -4.9 -9.25 -4.2 -8.0 L-3.05 -8.35" fill="#791515" fill-rule="evenodd" stroke="none"/>
    <path d="M2.5 -6.4 L2.5 -6.45 Q3.3 -7.85 4.65 -9.3 8.35 -13.35 13.65 -13.95 L14.35 -13.85 14.95 -12.45 Q15.75 -10.85 15.8 -9.35 L15.6 -6.8 15.3 -4.45 Q15.1 -2.95 13.3 -1.85 L11.55 -1.65 Q8.1 -1.5 6.6 -1.7 L4.45 -2.1 3.7 -2.35 3.65 -2.45 Q3.0 -3.65 2.95 -4.8 L3.55 -5.7 4.35 -6.75 4.3 -7.2 Q3.6 -7.25 3.15 -6.75 2.7 -6.2 2.5 -6.15 L2.45 -6.3 2.5 -6.4 M-3.45 -3.55 Q-3.5 -5.8 -2.95 -6.8 -2.4 -7.85 -1.2 -8.3 -0.05 -8.8 0.9 -7.35 L0.95 -7.2 0.55 -6.0 0.4 -5.8 -0.5 -4.5 Q-1.3 -3.8 -2.95 -3.6 L-3.45 -3.55 M10.8 -10.0 L7.4 -8.1 Q5.1 -6.5 5.15 -5.9 L5.2 -5.6 Q5.35 -5.25 5.85 -5.35 8.65 -5.65 11.4 -6.7 13.6 -7.65 13.6 -7.9 L13.75 -8.7 13.85 -9.4 13.75 -10.15 10.8 -10.0 M-13.35 -4.6 Q-13.8 -7.0 -13.0 -10.2 -12.25 -13.4 -10.95 -13.55 -7.45 -13.95 -5.3 -11.8 L-3.65 -9.25 -3.6 -9.2 -3.05 -8.35 -4.2 -8.0 Q-4.9 -9.25 -7.35 -11.1 -4.75 -8.25 -5.0 -6.4 -5.15 -4.45 -6.5 -4.3 L-8.7 -4.1 -10.85 -4.1 -12.4 -4.35 -13.35 -4.6 M-0.4 -7.85 Q-1.45 -7.8 -1.85 -7.25 L-1.9 -6.45 Q-2.0 -5.45 -1.45 -5.5 L-0.65 -6.05 Q-0.25 -6.6 -0.3 -7.05 L-0.4 -7.85 M-11.95 -10.45 Q-11.85 -8.9 -11.05 -8.35 -9.85 -7.6 -7.05 -7.0 -6.3 -7.1 -6.35 -7.8 -6.4 -9.05 -9.2 -10.8 -12.0 -12.55 -11.95 -10.45" fill="#981d1d" fill-rule="evenodd" stroke="none"/>
    <path d="M10.8 -10.0 L13.75 -10.15 13.85 -9.4 13.75 -8.7 13.6 -7.9 Q13.6 -7.65 11.4 -6.7 8.65 -5.65 5.85 -5.35 5.35 -5.25 5.2 -5.6 L5.15 -5.9 Q5.1 -6.5 7.4 -8.1 L10.8 -10.0 M-11.95 -10.45 Q-12.0 -12.55 -9.2 -10.8 -6.4 -9.05 -6.35 -7.8 -6.3 -7.1 -7.05 -7.0 -9.85 -7.6 -11.05 -8.35 -11.85 -8.9 -11.95 -10.45 M-0.4 -7.85 L-0.3 -7.05 Q-0.25 -6.6 -0.65 -6.05 L-1.45 -5.5 Q-2.0 -5.45 -1.9 -6.45 L-1.85 -7.25 Q-1.45 -7.8 -0.4 -7.85" fill="#bf2424" fill-rule="evenodd" stroke="none"/>
  </g>
</svg>
