<?xml version="1.0" encoding="UTF-8" standalone="no"?>
<svg xmlns:ffdec="https://www.free-decompiler.com/flash" xmlns:xlink="http://www.w3.org/1999/xlink" ffdec:objectType="shape" height="162.35px" width="91.8px" xmlns="http://www.w3.org/2000/svg">
  <g transform="matrix(1.0, 0.0, 0.0, 1.0, 41.95, 130.15)">
    <path d="M8.05 -94.8 L9.15 -94.85 8.9 -93.95 6.6 -93.85 8.05 -94.8 M-6.15 -87.65 L-2.7 -87.65 5.75 -87.85 Q3.0 -84.2 -1.1 -82.55 -4.8 -81.1 -13.1 -81.1 L-16.65 -81.25 Q-17.8 -81.6 -17.8 -83.4 -17.8 -85.8 -15.1 -86.65 L-7.3 -87.6 -6.15 -87.65 M-4.1 -53.15 Q-3.0 -56.6 4.0 -55.65 7.2 -55.25 9.65 -53.95 L10.3 -53.6 -2.7 -53.15 -4.1 -53.15 M13.75 -40.0 L7.35 -39.55 7.1 -39.8 Q5.75 -41.05 5.0 -42.9 L4.5 -44.55 9.05 -42.9 Q11.35 -41.85 13.0 -40.6 L13.75 -40.0 M12.65 -25.65 L-0.2 -25.15 -0.7 -25.15 -0.5 -26.15 Q-0.2 -29.1 1.45 -31.4 L1.9 -31.9 8.35 -32.1 8.85 -31.4 11.85 -27.1 12.65 -25.65 M16.85 -13.05 L7.45 -12.3 Q6.4 -12.8 5.15 -12.8 4.15 -12.8 3.35 -12.15 L-0.2 -12.15 Q-5.25 -12.15 -9.9 -12.4 L-9.1 -13.9 -5.9 -18.75 -0.2 -18.65 14.95 -19.35 16.85 -13.05 M15.05 -5.25 L18.9 -5.65 19.5 -2.45 Q19.5 -1.65 20.4 1.85 L15.75 2.25 15.7 1.7 15.5 -3.05 15.05 -5.25 M13.25 2.4 L12.65 2.4 Q12.05 -0.35 11.8 -2.6 L11.5 -5.0 13.25 2.4 M0.35 2.8 L-0.25 2.85 -12.7 2.25 -12.55 0.9 -11.85 -5.0 -0.2 -4.65 0.75 -4.65 Q0.5 -1.95 0.35 2.8 M21.15 15.55 L18.6 15.9 17.85 12.8 17.05 9.3 21.1 8.8 21.15 15.55 M16.15 16.15 L14.05 16.3 13.7 14.0 13.3 9.6 14.8 9.5 16.15 16.15 M4.45 17.0 L3.8 17.0 3.75 10.3 4.45 17.0 M0.05 17.2 L-2.65 17.25 -6.15 17.25 -6.4 16.3 -7.95 10.35 -1.8 10.45 0.15 10.4 0.05 17.2 M-14.0 16.65 L-16.25 16.35 -14.4 9.7 -11.8 10.0 -14.0 16.65 M21.15 22.05 L21.15 23.45 20.45 23.2 20.2 22.2 21.15 22.05 M16.55 22.6 L15.2 24.85 14.95 22.75 16.55 22.6 M5.15 23.65 L5.35 25.7 4.8 23.65 5.15 23.65 M-0.05 24.0 L-0.05 25.9 -4.3 25.0 -4.45 24.15 -3.15 24.1 -0.05 24.0 M-16.1 23.15 L-16.65 24.8 -18.85 24.8 -18.2 22.8 -16.1 23.15" fill="#ffffff" fill-rule="evenodd" stroke="none"/>
    <path d="M0.3 -114.15 L0.05 -113.35 -1.3 -108.15 -2.7 -108.15 -3.75 -108.15 -2.05 -114.15 0.3 -114.15 M3.0 -96.1 L0.7 -96.05 0.45 -100.1 3.0 -100.15 3.0 -96.1 M-1.85 -96.05 L-6.1 -96.1 -6.0 -100.2 -1.95 -100.1 -1.85 -96.05 M-7.9 -94.6 L-1.1 -94.55 -1.9 -93.65 -2.45 -93.65 -17.1 -94.25 -14.95 -94.35 -7.9 -94.6 M3.5 -94.6 L8.05 -94.8 6.6 -93.85 1.95 -93.7 3.5 -94.6 M9.15 -94.85 L12.1 -95.1 11.85 -94.2 8.9 -93.95 9.15 -94.85 M5.4 -80.55 Q1.45 -80.4 -2.7 -80.4 L-20.05 -81.25 -20.15 -82.25 Q-20.15 -85.6 -19.8 -86.8 -19.5 -87.85 -18.65 -88.35 L-6.15 -87.65 -7.3 -87.6 -15.1 -86.65 Q-17.8 -85.8 -17.8 -83.4 -17.8 -81.6 -16.65 -81.25 L-13.1 -81.1 Q-4.8 -81.1 -1.1 -82.55 3.0 -84.2 5.75 -87.85 L10.0 -88.1 9.75 -87.35 Q8.45 -83.65 6.7 -81.75 L5.4 -80.55 M10.7 -66.6 L6.7 -66.35 7.4 -68.3 Q8.3 -71.15 9.5 -73.3 L12.7 -73.55 10.7 -66.6 M8.1 -59.95 L7.2 -57.75 Q8.1 -57.75 10.0 -58.55 11.9 -59.35 14.55 -59.35 16.75 -59.35 17.7 -55.3 L17.9 -54.35 10.3 -53.6 9.65 -53.95 Q7.2 -55.25 4.0 -55.65 -3.0 -56.6 -4.1 -53.15 L-8.5 -53.25 Q-8.05 -54.4 -2.65 -58.6 L-1.25 -59.65 8.1 -59.95 M17.55 -40.4 L13.75 -40.0 13.0 -40.6 Q11.35 -41.85 9.05 -42.9 L4.5 -44.55 5.0 -42.9 Q5.75 -41.05 7.1 -39.8 L7.35 -39.55 Q3.7 -39.4 -0.2 -39.4 L-0.7 -39.4 2.05 -41.6 0.2 -42.9 -2.65 -44.65 -6.1 -46.5 -6.4 -46.75 -0.2 -46.65 17.85 -47.7 17.5 -47.5 Q16.0 -46.7 11.05 -45.85 L12.55 -44.65 14.7 -42.9 17.4 -40.55 17.55 -40.4 M17.95 -26.2 L12.65 -25.65 11.85 -27.1 8.85 -31.4 8.35 -32.1 20.45 -33.3 Q19.7 -32.25 17.85 -31.4 L16.65 -30.9 Q17.1 -30.35 17.95 -26.2 M-0.7 -25.15 L-8.7 -25.35 -5.7 -31.4 -5.4 -31.95 -0.2 -31.9 1.9 -31.9 1.45 -31.4 Q-0.2 -29.1 -0.5 -26.15 L-0.7 -25.15 M14.95 -19.35 L19.15 -19.85 20.35 -13.55 16.85 -13.05 14.95 -19.35 M7.45 -12.3 L3.35 -12.15 Q4.15 -12.8 5.15 -12.8 6.4 -12.8 7.45 -12.3 M-9.9 -12.4 L-14.1 -12.75 -12.9 -15.85 -11.65 -19.05 -5.9 -18.75 -9.1 -13.9 -9.9 -12.4 M7.95 -4.8 L11.5 -5.0 15.05 -5.25 15.5 -3.05 15.7 1.7 15.75 2.25 13.25 2.4 11.5 -5.0 11.8 -2.6 Q12.05 -0.35 12.65 2.4 L9.95 2.45 7.95 -4.8 M18.9 -5.65 L22.05 -6.05 22.2 -5.3 Q23.3 -0.4 22.6 -1.4 L22.9 1.5 20.4 1.85 Q19.5 -1.65 19.5 -2.45 L18.9 -5.65 M27.0 -6.85 L27.15 -6.85 30.3 0.0 28.75 0.4 Q27.55 -3.8 27.0 -6.85 M4.85 2.55 L0.35 2.8 Q0.5 -1.95 0.75 -4.65 L5.45 -4.7 5.25 -3.1 Q4.9 0.05 4.85 2.55 M-12.7 2.25 L-14.85 2.05 -13.75 -5.15 -11.85 -5.0 -12.55 0.9 -12.7 2.25 M-18.0 1.75 L-19.6 1.55 Q-18.55 -0.7 -18.55 -2.35 -18.55 -3.45 -17.6 -5.5 L-14.9 -5.2 -18.0 1.75 M36.15 13.6 L33.3 14.1 31.65 9.55 31.05 7.75 33.5 7.35 35.95 13.15 36.15 13.6 M25.5 14.9 L21.15 15.55 21.1 8.8 24.15 8.4 24.85 11.95 25.5 14.9 M18.6 15.9 L16.15 16.15 14.8 9.5 17.05 9.3 17.85 12.8 18.6 15.9 M14.05 16.3 L12.7 16.4 11.65 9.75 13.3 9.6 13.7 14.0 14.05 16.3 M5.6 16.9 L4.45 17.0 3.75 10.3 3.8 17.0 0.05 17.2 0.15 10.4 3.75 10.25 5.1 10.2 5.6 16.9 M-6.15 17.25 L-7.5 17.2 -7.55 16.75 Q-7.9 13.45 -8.55 10.3 L-7.95 10.35 -6.4 16.3 -6.15 17.25 M-12.55 16.8 L-14.0 16.65 -11.8 10.0 -11.0 10.1 -12.55 16.8 M-16.25 16.35 L-17.25 16.2 -16.05 9.5 -14.4 9.7 -16.25 16.35 M-24.0 15.9 L-27.75 15.3 -23.95 8.8 -21.15 9.1 -24.0 15.9 M20.2 22.2 L20.45 23.2 21.15 23.45 21.15 22.05 26.8 21.2 27.9 26.6 19.45 25.5 17.6 23.85 Q16.7 25.3 16.0 25.75 15.1 26.3 13.3 26.45 L13.2 22.9 14.95 22.75 15.2 24.85 16.55 22.6 20.2 22.2 M38.5 20.15 L38.7 21.4 38.5 21.8 37.75 22.0 Q37.1 22.0 36.1 20.4 L38.5 20.15 M5.15 23.65 L6.2 23.55 6.7 28.5 3.9 28.7 Q-1.7 28.7 -3.95 27.65 -5.95 26.75 -6.6 24.15 L-4.45 24.15 -4.3 25.0 -0.05 25.9 -0.05 24.0 4.8 23.65 5.35 25.7 5.15 23.65 M-19.15 22.6 L-18.2 22.8 -18.85 24.8 -16.65 24.8 -16.1 23.15 -14.75 23.4 Q-16.9 27.85 -19.65 26.75 L-20.55 26.5 -19.15 22.6 M-26.5 22.0 L-26.9 22.85 -31.55 22.15 -30.95 21.1 -26.5 22.0" fill="#e0e0e0" fill-rule="evenodd" stroke="none"/>
    <path d="M0.85 -120.65 L3.35 -125.2 4.65 -123.65 3.05 -120.7 0.85 -120.65 M3.0 -100.15 L6.8 -100.25 7.05 -96.25 3.0 -96.1 3.0 -100.15 M13.4 -96.75 L10.5 -96.45 9.8 -100.45 12.65 -100.7 13.4 -96.75 M0.7 -96.05 L-1.85 -96.05 -1.95 -100.1 0.45 -100.1 0.7 -96.05 M-6.1 -96.1 L-10.4 -96.25 -9.8 -100.35 -6.0 -100.2 -6.1 -96.1 M-13.05 -96.45 L-15.6 -96.65 -14.8 -100.85 -12.0 -100.5 -12.5 -98.4 -13.05 -96.45 M-17.35 -96.85 L-18.7 -97.05 -17.3 -101.2 -16.1 -101.0 -17.35 -96.85 M-21.6 -96.05 L-14.15 -95.1 -7.9 -94.6 -14.95 -94.35 -17.1 -94.25 -22.15 -94.75 -21.6 -96.05 M-1.1 -94.55 L3.5 -94.6 1.95 -93.7 -1.9 -93.65 -1.1 -94.55 M12.1 -95.1 L14.65 -95.4 14.75 -94.45 11.85 -94.2 12.1 -95.1 M15.9 -81.4 L13.0 -81.1 13.1 -81.3 15.7 -85.65 15.95 -85.25 15.9 -81.4 M10.4 -80.85 L5.4 -80.55 6.7 -81.75 Q8.45 -83.65 9.75 -87.35 L10.0 -88.1 14.4 -88.45 13.85 -87.3 11.65 -83.35 10.4 -80.85 M-20.05 -81.25 L-25.75 -81.95 -25.8 -82.95 -24.25 -88.45 -24.1 -88.95 -18.65 -88.35 Q-19.5 -87.85 -19.8 -86.8 -20.15 -85.6 -20.15 -82.25 L-20.05 -81.25 M18.65 -67.45 L10.7 -66.6 12.7 -73.55 14.95 -73.75 13.7 -68.45 Q13.85 -67.9 14.35 -67.55 L14.8 -67.35 16.45 -70.85 17.7 -74.1 17.85 -74.1 17.9 -73.65 18.65 -67.45 M6.7 -66.35 L-0.65 -66.15 Q1.25 -67.75 2.05 -68.9 2.95 -70.25 2.95 -72.75 L2.95 -72.95 9.5 -73.3 Q8.3 -71.15 7.4 -68.3 L6.7 -66.35 M17.9 -54.35 L17.7 -55.3 Q16.75 -59.35 14.55 -59.35 11.9 -59.35 10.0 -58.55 8.1 -57.75 7.2 -57.75 L8.1 -59.95 19.5 -61.1 20.45 -54.7 17.9 -54.35 M-1.25 -59.65 L-2.65 -58.6 Q-8.05 -54.4 -8.5 -53.25 L-12.35 -53.4 -12.1 -58.3 -11.55 -59.85 -2.7 -59.65 -1.25 -59.65 M23.2 -41.25 L17.55 -40.4 17.4 -40.55 14.7 -42.9 12.55 -44.65 11.05 -45.85 Q16.0 -46.7 17.5 -47.5 L17.85 -47.7 21.6 -48.25 Q22.05 -46.0 22.4 -45.05 L21.3 -44.65 20.05 -44.05 18.0 -42.9 17.85 -42.8 18.15 -41.95 18.4 -41.6 Q20.4 -41.6 22.85 -42.35 L23.2 -41.25 M-0.7 -39.4 L-13.55 -39.95 -12.65 -44.65 -12.55 -47.1 -6.4 -46.75 -6.1 -46.5 -2.65 -44.65 0.2 -42.9 2.05 -41.6 -0.7 -39.4 M24.9 -27.3 L24.1 -27.15 22.75 -27.25 22.9 -26.95 17.95 -26.2 Q17.1 -30.35 16.65 -30.9 L17.85 -31.4 Q19.7 -32.25 20.45 -33.3 L24.9 -34.05 25.0 -31.4 Q25.4 -29.6 25.3 -28.45 25.25 -27.65 24.9 -27.3 M-8.7 -25.35 L-16.55 -26.0 -16.45 -26.55 -15.1 -32.6 -5.4 -31.95 -5.7 -31.4 -8.7 -25.35 M19.15 -19.85 L26.0 -21.05 29.0 -15.2 20.35 -13.55 19.15 -19.85 M-14.1 -12.75 L-19.5 -13.35 -18.0 -19.65 -11.65 -19.05 -12.9 -15.85 -14.1 -12.75 M7.0 -4.75 L7.95 -4.8 9.95 2.45 8.2 2.45 7.0 -4.75 M22.05 -6.05 L27.0 -6.85 Q27.55 -3.8 28.75 0.4 L25.85 1.0 25.1 -3.25 25.05 1.15 22.9 1.5 22.6 -1.4 Q23.3 -0.4 22.2 -5.3 L22.05 -6.05 M27.15 -6.85 L30.35 -7.5 32.0 -1.6 32.0 -1.5 32.15 -1.15 32.35 -0.6 30.3 0.0 27.15 -6.85 M7.3 2.45 L4.85 2.55 Q4.9 0.05 5.25 -3.1 L5.45 -4.7 6.75 -4.75 7.3 2.45 M-14.85 2.05 L-15.5 2.0 -14.0 -5.15 -13.75 -5.15 -14.85 2.05 M-16.5 1.9 L-18.0 1.75 -14.9 -5.2 -14.25 -5.15 -16.5 1.9 M-19.6 1.55 L-24.65 0.85 -23.55 -2.75 -22.05 -6.0 -17.6 -5.5 Q-18.55 -3.45 -18.55 -2.35 -18.55 -0.7 -19.6 1.55 M43.35 10.7 L41.45 11.2 39.05 5.75 40.05 5.6 43.35 10.7 M37.45 13.05 L36.15 13.6 35.95 13.15 33.5 7.35 34.9 6.85 36.6 11.2 37.45 13.05 M33.3 14.1 L31.05 14.2 28.55 7.85 31.05 7.75 31.65 9.55 33.3 14.1 M26.75 14.7 L25.5 14.9 24.85 11.95 24.15 8.4 25.7 8.15 26.45 13.05 26.75 14.7 M12.7 16.4 L10.5 16.55 9.4 9.85 11.65 9.75 12.7 16.4 M8.45 16.7 L5.6 16.9 5.1 10.2 7.9 9.95 8.45 16.7 M-7.5 17.2 L-8.85 17.15 -9.5 10.2 -8.55 10.3 Q-7.9 13.45 -7.55 16.75 L-7.5 17.2 M-10.45 17.0 L-12.55 16.8 -11.0 10.1 -9.8 10.2 Q-10.05 14.0 -10.45 17.0 M-17.25 16.2 L-18.65 15.95 -18.25 14.25 -17.1 9.35 -16.05 9.5 -17.25 16.2 M-22.0 15.95 L-24.0 15.9 -21.15 9.1 -19.2 9.2 -21.25 14.15 -22.0 15.95 M-27.75 15.3 L-29.55 14.7 -28.65 12.8 -26.65 8.25 -23.95 8.8 -27.75 15.3 M-33.9 13.75 L-36.95 13.25 -33.1 7.25 -30.9 7.65 -33.9 13.75 M46.7 16.0 L47.05 16.55 Q45.95 18.5 45.45 18.6 44.85 18.8 43.95 17.0 L43.9 16.9 46.7 16.0 M13.2 22.9 L13.3 26.45 Q15.1 26.3 16.0 25.75 16.7 25.3 17.6 23.85 L19.45 25.5 27.9 26.6 26.8 21.2 28.15 20.95 Q29.15 24.8 30.3 27.8 29.2 28.5 27.8 28.5 L23.8 27.9 20.0 27.25 12.4 28.45 11.55 23.0 13.2 22.9 M9.1 23.25 L9.9 29.7 7.0 29.9 -0.4 29.45 Q-5.9 28.75 -7.15 27.45 L-8.05 25.25 -8.35 24.05 -6.6 24.15 Q-5.95 26.75 -3.95 27.65 -1.7 28.7 3.9 28.7 L6.7 28.5 6.2 23.55 9.1 23.25 M-12.2 23.75 L-12.85 25.0 Q-14.75 28.05 -18.9 28.05 L-22.65 27.6 Q-21.6 25.8 -20.45 22.3 L-19.15 22.6 -20.55 26.5 -19.65 26.75 Q-16.9 27.85 -14.75 23.4 L-12.2 23.75 M38.5 20.15 Q39.95 19.9 40.25 19.4 L40.4 19.15 42.2 22.8 40.2 23.75 36.55 24.35 Q35.55 24.35 33.65 20.45 L36.1 20.4 Q37.1 22.0 37.75 22.0 L38.5 21.8 38.7 21.4 38.5 20.15 M-32.4 20.55 L-30.95 21.1 -31.55 22.15 -26.9 22.85 -26.5 22.0 -24.75 22.1 -25.95 24.2 Q-31.05 23.7 -33.4 22.5 L-32.4 20.55" fill="#b4b4b4" fill-rule="evenodd" stroke="none"/>
    <path d="M3.35 -125.2 Q4.4 -126.5 6.3 -127.65 L7.25 -128.15 9.3 -128.3 Q9.75 -127.75 10.05 -126.3 8.8 -126.45 7.15 -125.7 5.45 -124.9 4.65 -123.65 L3.35 -125.2 M6.8 -100.25 L14.9 -101.05 19.2 -101.85 20.2 -98.0 Q19.35 -97.3 13.4 -96.75 L12.65 -100.7 9.8 -100.45 10.5 -96.45 7.05 -96.25 6.8 -100.25 M-10.4 -96.25 L-13.05 -96.45 -12.5 -98.4 -12.0 -100.5 -9.8 -100.35 -10.4 -96.25 M-15.6 -96.65 L-17.35 -96.85 -16.1 -101.0 -17.3 -101.2 -14.8 -100.85 -15.6 -96.65 M-18.7 -97.05 L-23.4 -98.0 -21.4 -101.9 -21.2 -101.85 -20.95 -101.2 -19.6 -101.6 -17.3 -101.2 -18.7 -97.05 M-24.8 -95.1 L-24.15 -96.75 -21.6 -96.05 -22.15 -94.75 -24.8 -95.1 M14.65 -95.4 L17.5 -95.7 20.25 -96.45 20.4 -95.15 14.75 -94.45 14.65 -95.4 M21.05 -89.35 L21.8 -82.2 15.9 -81.4 15.95 -85.25 15.7 -85.65 13.1 -81.3 13.0 -81.1 10.4 -80.85 11.65 -83.35 13.85 -87.3 14.4 -88.45 21.05 -89.35 M-25.75 -81.95 L-28.65 -82.45 Q-28.5 -84.8 -27.7 -87.35 L-27.0 -89.4 -24.1 -88.95 -24.25 -88.45 -25.8 -82.95 -25.75 -81.95 M23.1 -68.15 L18.65 -67.45 17.9 -73.65 17.85 -74.1 22.5 -74.8 23.1 -68.15 M-0.65 -66.15 L-2.7 -66.15 -21.65 -67.15 -23.2 -68.4 Q-26.35 -71.15 -27.7 -74.75 -16.4 -72.9 -2.7 -72.9 L2.95 -72.95 2.95 -72.75 Q2.95 -70.25 2.05 -68.9 1.25 -67.75 -0.65 -66.15 M14.95 -73.75 L17.7 -74.1 16.45 -70.85 14.8 -67.35 14.35 -67.55 Q13.85 -67.9 13.7 -68.45 L14.95 -73.75 M20.45 -54.7 L19.5 -61.1 23.75 -61.75 24.6 -55.45 20.45 -54.7 M25.75 -49.0 L25.8 -48.9 Q26.15 -46.8 26.65 -44.65 L27.0 -42.9 27.2 -42.05 23.2 -41.25 22.85 -42.35 Q20.4 -41.6 18.4 -41.6 L18.15 -41.95 17.85 -42.8 18.0 -42.9 20.05 -44.05 21.3 -44.65 22.4 -45.05 Q22.05 -46.0 21.6 -48.25 L25.75 -49.0 M-13.55 -39.95 L-20.4 -40.75 -20.1 -42.9 -19.8 -44.65 -19.75 -45.2 -19.35 -47.85 -12.55 -47.1 -12.65 -44.65 -13.55 -39.95 M28.85 -34.9 L29.7 -31.4 30.45 -28.55 24.9 -27.3 Q25.25 -27.65 25.3 -28.45 25.4 -29.6 25.0 -31.4 L24.9 -34.05 28.85 -34.9 M24.1 -27.15 L22.9 -26.95 22.75 -27.25 24.1 -27.15 M-16.55 -26.0 L-23.25 -26.95 -22.05 -31.4 -21.7 -33.45 -15.1 -32.6 -16.45 -26.55 -16.55 -26.0 M26.0 -21.05 L32.05 -22.5 33.7 -16.5 29.0 -15.2 26.0 -21.05 M-19.5 -13.35 L-26.35 -14.55 -24.85 -20.75 -18.0 -19.65 -19.5 -13.35 M31.9 -7.85 L35.85 -8.85 37.8 -2.1 37.95 -1.65 34.35 -0.95 31.9 -7.85 M32.4 -0.65 L32.35 -0.6 32.15 -1.15 32.4 -0.65 M8.2 2.45 L7.45 2.45 7.3 2.45 6.75 -4.75 7.0 -4.75 8.2 2.45 M-15.5 2.0 L-15.9 1.95 -14.1 -5.15 -14.0 -5.15 -15.5 2.0 M-16.1 1.9 L-16.5 1.9 -14.25 -5.15 -14.2 -5.15 -16.1 1.9 M-24.65 0.85 L-25.35 0.75 -25.25 -0.5 -25.7 0.7 -30.0 -0.1 Q-28.8 -2.5 -28.3 -4.3 L-27.85 -6.95 -22.05 -6.0 -23.55 -2.75 -24.65 0.85 M41.45 5.3 L44.6 10.35 43.35 10.7 40.05 5.6 41.45 5.3 M41.45 11.2 L39.2 11.65 36.8 5.85 39.05 5.75 41.45 11.2 M38.6 12.05 L37.55 12.95 37.45 13.05 36.6 11.2 34.9 6.85 35.8 6.3 38.6 12.05 M31.05 14.2 L29.55 14.25 27.75 7.85 28.55 7.85 31.05 14.2 M28.25 14.4 L26.75 14.7 26.45 13.05 25.7 8.15 26.3 8.05 26.6 9.35 28.25 14.4 M10.5 16.55 L9.35 16.65 8.45 16.7 7.9 9.95 8.45 9.9 9.4 9.85 10.5 16.55 M-8.85 17.15 L-10.45 17.0 Q-10.05 14.0 -9.8 10.2 L-9.5 10.2 -8.85 17.15 M-18.65 15.95 L-19.75 15.8 -18.85 12.75 -17.85 9.25 -17.1 9.35 -18.25 14.25 -18.65 15.95 M-20.1 15.8 L-22.0 15.95 -21.25 14.15 -19.2 9.2 -18.15 9.25 -20.1 15.8 M-29.55 14.7 L-30.75 14.2 -29.45 11.4 -27.85 7.9 -26.65 8.25 -28.65 12.8 -29.55 14.7 M-31.7 13.85 L-33.9 13.75 -30.9 7.65 -28.45 7.75 -31.7 13.85 M-36.95 13.25 L-37.8 12.85 -38.05 12.75 -34.2 6.85 -33.1 7.25 -36.95 13.25 M47.75 15.55 L48.85 17.45 Q48.85 18.0 47.7 19.25 46.2 20.95 44.0 21.05 L41.9 17.25 43.9 16.9 43.95 17.0 Q44.85 18.8 45.45 18.6 45.95 18.5 47.05 16.55 L46.7 16.0 47.75 15.55 M41.35 17.75 L43.7 22.7 Q43.7 23.7 42.4 24.2 40.55 24.9 32.95 26.4 L31.25 20.4 33.65 20.45 Q35.55 24.35 36.55 24.35 L40.2 23.75 42.2 22.8 40.4 19.15 41.35 17.75 M30.2 20.5 L31.25 24.25 31.8 25.65 32.3 27.8 Q28.6 29.65 27.55 29.65 L26.0 29.7 21.85 29.2 17.7 28.7 13.3 29.9 Q8.65 31.1 2.75 31.1 L-1.75 30.5 -11.6 28.6 Q-12.6 28.4 -15.65 28.6 L-19.25 28.85 Q-22.0 28.85 -23.9 28.1 L-21.75 22.1 -21.45 22.1 -20.45 22.3 Q-21.6 25.8 -22.65 27.6 L-18.9 28.05 Q-14.75 28.05 -12.85 25.0 L-12.2 23.75 -8.35 24.05 -8.05 25.25 -7.15 27.45 Q-5.9 28.75 -0.4 29.45 L7.0 29.9 9.9 29.7 9.1 23.25 10.2 23.1 11.55 23.0 12.4 28.45 20.0 27.25 23.8 27.9 27.8 28.5 Q29.2 28.5 30.3 27.8 29.15 24.8 28.15 20.95 L30.2 20.5 M-22.3 22.15 Q-23.95 26.0 -25.0 26.0 -27.7 26.0 -30.9 25.05 -34.1 24.1 -35.6 22.85 L-33.7 19.95 -32.4 20.55 -33.4 22.5 Q-31.05 23.7 -25.95 24.2 L-24.75 22.1 -22.3 22.15 M-34.95 19.5 L-35.8 20.9 Q-37.1 20.5 -38.65 19.55 -40.1 18.65 -40.7 17.8 L-39.1 18.3 -34.95 19.5 M-14.9 -114.55 L-14.45 -114.55 -16.15 -110.4 -16.85 -108.7 -17.9 -108.8 -14.9 -114.55 M-11.55 -59.85 L-12.1 -58.3 -12.35 -53.4 -18.55 -53.85 -17.9 -60.3 -11.55 -59.85" fill="#8a8a8a" fill-rule="evenodd" stroke="none"/>
    <path d="M0.85 -120.65 L-0.95 -120.65 -0.3 -122.2 0.95 -124.4 1.0 -124.45 1.4 -125.1 1.5 -125.25 2.4 -126.3 3.95 -128.0 7.25 -128.15 6.3 -127.65 Q4.4 -126.5 3.35 -125.2 L0.85 -120.65 M9.3 -128.3 L10.55 -128.4 12.35 -125.25 12.45 -125.0 12.35 -125.05 12.3 -125.05 10.5 -125.35 10.15 -125.3 9.15 -124.95 8.6 -124.8 8.4 -124.65 7.15 -124.0 7.15 -123.95 6.95 -123.85 6.9 -123.8 6.85 -123.75 Q5.7 -122.9 4.6 -120.75 L3.05 -120.7 4.65 -123.65 Q5.45 -124.9 7.15 -125.7 8.8 -126.45 10.05 -126.3 9.75 -127.75 9.3 -128.3 M0.3 -114.15 L1.9 -114.2 1.75 -113.75 1.7 -113.75 Q0.7 -110.75 0.15 -108.15 L-1.3 -108.15 0.05 -113.35 0.3 -114.15 M-3.75 -108.15 L-4.85 -108.15 -3.5 -113.0 -3.15 -114.15 -2.45 -114.15 -2.05 -114.15 -3.75 -108.15 M6.8 -100.25 L3.0 -100.15 0.45 -100.1 -1.95 -100.1 -6.0 -100.2 -9.8 -100.35 -12.0 -100.5 -14.8 -100.85 -17.3 -101.2 -19.6 -101.6 -20.95 -101.2 -21.2 -101.85 -2.7 -100.9 Q10.1 -100.9 20.8 -102.55 L20.8 -102.45 21.75 -96.9 21.95 -95.4 20.4 -95.15 20.25 -96.45 17.5 -95.7 14.65 -95.4 12.1 -95.1 9.15 -94.85 8.05 -94.8 3.5 -94.6 -1.1 -94.55 -7.9 -94.6 -14.15 -95.1 -21.6 -96.05 -24.15 -96.75 -24.8 -95.1 -26.55 -95.4 -25.45 -97.65 -24.85 -98.8 -24.25 -99.95 -23.05 -102.1 -21.4 -101.9 -23.4 -98.0 -18.7 -97.05 -17.35 -96.85 -15.6 -96.65 -13.05 -96.45 -10.4 -96.25 -6.1 -96.1 -1.85 -96.05 0.7 -96.05 3.0 -96.1 7.05 -96.25 10.5 -96.45 13.4 -96.75 Q19.35 -97.3 20.2 -98.0 L19.2 -101.85 14.9 -101.05 6.8 -100.25 M21.05 -89.35 L22.5 -89.55 22.7 -87.4 22.85 -85.8 22.9 -85.2 23.05 -83.45 23.1 -82.75 23.15 -82.5 23.15 -82.4 21.8 -82.2 21.05 -89.35 M-28.65 -82.45 L-30.2 -82.7 Q-29.95 -86.0 -28.75 -89.7 L-27.0 -89.4 -27.7 -87.35 Q-28.5 -84.8 -28.65 -82.45 M22.5 -74.8 L23.75 -75.05 24.35 -68.4 23.1 -68.15 22.5 -74.8 M-21.65 -67.15 L-24.3 -67.5 Q-26.4 -69.35 -27.75 -71.5 -28.8 -73.2 -29.4 -75.05 L-27.7 -74.75 Q-26.35 -71.15 -23.2 -68.4 L-21.65 -67.15 M23.75 -61.75 L25.3 -62.05 25.35 -61.9 25.95 -58.0 26.3 -55.75 24.6 -55.45 23.75 -61.75 M25.75 -49.0 L27.4 -49.35 27.45 -48.9 27.7 -47.6 28.0 -45.8 28.15 -45.0 28.25 -44.65 28.55 -42.9 28.65 -42.4 27.2 -42.05 27.0 -42.9 26.65 -44.65 Q26.15 -46.8 25.8 -48.9 L25.75 -49.0 M-20.4 -40.75 L-21.3 -40.9 -21.2 -41.75 -20.75 -45.0 -20.65 -46.05 -20.6 -46.35 -20.4 -48.0 -19.35 -47.85 -19.75 -45.2 -19.8 -44.65 -20.1 -42.9 -20.4 -40.75 M28.85 -34.9 L30.25 -35.25 30.95 -32.6 31.25 -31.4 31.85 -28.95 30.45 -28.55 29.7 -31.4 28.85 -34.9 M-23.25 -26.95 L-24.3 -27.15 -23.25 -31.4 -22.8 -33.15 -22.7 -33.6 -21.7 -33.45 -22.05 -31.4 -23.25 -26.95 M32.05 -22.5 L33.5 -22.95 35.15 -16.95 33.7 -16.5 32.05 -22.5 M-26.35 -14.55 L-27.4 -14.75 -25.85 -20.95 -24.85 -20.75 -26.35 -14.55 M30.35 -7.5 L31.9 -7.85 34.35 -0.95 33.45 -1.0 32.4 -0.65 32.15 -1.15 32.0 -1.5 32.0 -1.6 30.35 -7.5 M35.85 -8.85 L37.4 -9.3 39.7 -2.15 37.95 -1.65 37.8 -2.1 35.85 -8.85 M25.85 1.0 L25.05 1.15 25.1 -3.25 25.85 1.0 M-15.9 1.95 L-16.1 1.9 -14.2 -5.15 -14.1 -5.15 -15.9 1.95 M-25.35 0.75 L-25.7 0.7 -25.25 -0.5 -25.35 0.75 M-30.0 -0.1 L-31.8 -0.5 Q-29.95 -4.3 -29.45 -6.5 L-29.25 -7.2 -27.85 -6.95 -28.3 -4.3 Q-28.8 -2.5 -30.0 -0.1 M41.45 5.3 L42.9 4.9 45.6 10.0 44.6 10.35 41.45 5.3 M39.2 11.65 Q39.05 11.65 38.6 12.05 L35.8 6.3 36.5 5.7 36.8 5.85 39.2 11.65 M29.55 14.25 L29.15 14.25 28.25 14.4 26.6 9.35 26.3 8.05 27.35 7.85 27.75 7.85 29.55 14.25 M-19.75 15.8 L-19.8 15.8 -20.1 15.8 -18.15 9.25 -18.05 9.25 -17.85 9.25 -18.85 12.75 -19.75 15.8 M-30.75 14.2 L-31.35 13.85 -31.7 13.85 -28.45 7.75 -28.35 7.75 -27.85 7.9 -29.45 11.4 -30.75 14.2 M-38.05 12.75 L-38.9 12.2 -36.35 7.9 -35.35 6.2 -34.2 6.85 -38.05 12.75 M41.9 17.25 L44.0 21.05 Q46.2 20.95 47.7 19.25 48.85 18.0 48.85 17.45 L47.75 15.55 48.5 15.15 49.85 17.4 Q49.85 18.8 49.1 19.65 L46.25 21.55 Q45.7 21.85 44.1 24.05 42.95 25.65 40.5 25.8 35.75 26.2 32.5 28.65 29.45 30.9 26.65 30.9 L21.55 30.35 17.7 29.75 12.6 31.0 Q7.85 32.2 2.2 32.2 -5.45 32.2 -8.95 30.95 L-12.9 29.35 -19.35 30.25 -22.2 29.65 Q-24.1 29.1 -24.95 28.45 L-24.65 27.05 -33.15 25.45 Q-35.35 24.9 -36.1 22.95 L-36.55 21.55 -37.3 21.0 -40.4 18.65 -41.95 17.35 -40.7 17.8 Q-40.1 18.65 -38.65 19.55 -37.1 20.5 -35.8 20.9 L-34.95 19.5 -34.2 19.7 -33.7 19.95 -35.6 22.85 Q-34.1 24.1 -30.9 25.05 -27.7 26.0 -25.0 26.0 -23.95 26.0 -22.3 22.15 L-21.75 22.1 -23.9 28.1 Q-22.0 28.85 -19.25 28.85 L-15.65 28.6 Q-12.6 28.4 -11.6 28.6 L-1.75 30.5 2.75 31.1 Q8.65 31.1 13.3 29.9 L17.7 28.7 21.85 29.2 26.0 29.7 27.55 29.65 Q28.6 29.65 32.3 27.8 L31.8 25.65 31.25 24.25 30.2 20.5 30.9 20.35 31.25 20.4 32.95 26.4 Q40.55 24.9 42.4 24.2 43.7 23.7 43.7 22.7 L41.35 17.75 41.75 17.3 41.9 17.25 M-10.05 -126.95 L-10.5 -124.95 -10.85 -123.55 -11.25 -121.85 -11.5 -120.85 -13.35 -120.95 -13.25 -121.2 -10.25 -127.25 -9.9 -128.0 -9.85 -128.0 -9.85 -127.95 -9.95 -127.35 -10.0 -127.3 -10.2 -126.35 -10.05 -126.95 M-14.9 -114.55 L-17.9 -108.8 -19.5 -108.95 -16.5 -114.7 -14.9 -114.55 M-16.85 -108.7 L-16.15 -110.4 -14.45 -114.55 -13.35 -114.45 -15.4 -108.6 -16.85 -108.7 M-18.55 -53.85 L-19.9 -54.0 -19.75 -56.7 -19.5 -60.45 -17.9 -60.3 -18.55 -53.85" fill="#464646" fill-rule="evenodd" stroke="none"/>
    <path d="M9.15 -124.95 L8.4 -124.65 8.6 -124.8 9.15 -124.95 M6.95 -123.85 L6.9 -123.8 6.95 -123.85" fill="#f1b67a" fill-rule="evenodd" stroke="none"/>
    <path d="M12.45 -125.0 L12.3 -125.05 12.35 -125.05 12.45 -125.0 M-10.05 -126.95 L-10.2 -126.35 -10.0 -127.3 -9.95 -127.35 -10.05 -126.95" fill="#aa6a40" fill-rule="evenodd" stroke="none"/>
    <path d="M6.9 -123.8 L6.95 -123.85 6.9 -123.8 M8.4 -124.65 L8.6 -124.8 9.15 -124.95 8.4 -124.65" fill="#f1b67a" fill-rule="evenodd" stroke="none"/>
    <path d="M-10.2 -126.35 L-10.0 -127.3 -9.95 -127.35 -10.05 -126.95 -10.2 -126.35 M12.3 -125.05 L12.35 -125.05 12.45 -125.0 12.3 -125.05" fill="#aa6a40" fill-rule="evenodd" stroke="none"/>
    <path d="M-10.5 -124.95 L-10.2 -126.35 -10.05 -126.95 -10.5 -124.95 M-10.0 -127.3 L-9.85 -127.95 -9.95 -127.35 -10.0 -127.3 M20.35 -104.2 L20.2 -104.05 20.1 -103.95 20.35 -104.2 M18.8 -103.3 L18.75 -103.3 18.15 -103.15 18.8 -103.3 M12.45 -125.0 L9.6 -129.95 9.8 -129.7 12.35 -125.25 12.45 -125.0" fill="#29150c" fill-rule="evenodd" stroke="none"/>
    <path d="M2.05 -118.95 Q0.85 -116.2 0.05 -113.35 L-1.75 -106.4 -4.25 -106.1 Q-3.1 -111.15 -2.0 -114.35 L-0.6 -118.05 0.65 -118.65 2.05 -118.95 M0.45 -100.1 L3.0 -100.15 3.0 -96.1 0.7 -96.05 0.45 -100.1 M-1.85 -96.05 L-6.1 -96.1 -6.0 -100.2 -1.95 -100.1 -1.85 -96.05" fill="#bababa" fill-rule="evenodd" stroke="none"/>
    <path d="M3.35 -125.2 L4.65 -123.65 2.05 -118.95 0.65 -118.65 -0.6 -118.05 3.35 -125.2 M-1.75 -106.4 L-2.3 -101.6 -4.75 -101.65 -4.25 -106.1 -1.75 -106.4 M3.0 -100.15 L6.8 -100.25 7.05 -96.25 3.0 -96.1 3.0 -100.15 M13.4 -96.75 L10.5 -96.45 9.8 -100.45 12.65 -100.7 13.4 -96.75 M0.7 -96.05 L-1.85 -96.05 -1.95 -100.1 0.45 -100.1 0.7 -96.05 M-6.1 -96.1 L-10.4 -96.25 -9.8 -100.35 -6.0 -100.2 -6.1 -96.1 M-13.05 -96.45 L-15.6 -96.65 -14.8 -100.85 -12.0 -100.5 -12.5 -98.4 -13.05 -96.45 M-17.35 -96.85 L-18.7 -97.05 -17.3 -101.2 -16.1 -101.0 -17.35 -96.85" fill="#b4b4b4" fill-rule="evenodd" stroke="none"/>
    <path d="M3.35 -125.2 Q4.4 -126.5 6.3 -127.65 8.0 -128.65 8.6 -128.65 9.6 -128.65 10.05 -126.3 8.8 -126.45 7.15 -125.7 5.45 -124.9 4.65 -123.65 L3.35 -125.2 M6.8 -100.25 L14.9 -101.05 19.2 -101.85 20.2 -98.0 Q19.35 -97.3 13.4 -96.75 L12.65 -100.7 9.8 -100.45 10.5 -96.45 7.05 -96.25 6.8 -100.25 M-10.4 -96.25 L-13.05 -96.45 -12.5 -98.4 -12.0 -100.5 -9.8 -100.35 -10.4 -96.25 M-15.6 -96.65 L-17.35 -96.85 -16.1 -101.0 -17.3 -101.2 -14.8 -100.85 -15.6 -96.65 M-18.7 -97.05 L-23.4 -98.0 -21.25 -102.2 -21.2 -102.15 Q-21.25 -101.8 -19.6 -101.6 L-17.3 -101.2 -18.7 -97.05 M-19.2 -103.1 L-20.6 -103.55 -12.9 -118.5 -16.15 -110.4 -18.85 -103.95 -19.2 -103.1" fill="#8a8a8a" fill-rule="evenodd" stroke="none"/>
    <path d="M-10.5 -124.95 L-10.85 -123.55 -11.25 -121.85 -11.55 -120.7 -11.55 -120.65 -11.6 -120.55 Q-14.05 -111.35 -17.7 -102.8 L-16.4 -102.6 -16.0 -102.55 -15.65 -102.5 -15.6 -102.5 -11.55 -102.0 -10.1 -101.9 -6.25 -101.7 Q-5.9 -108.05 -3.35 -115.1 -1.9 -119.25 -0.3 -122.2 L0.95 -124.4 1.0 -124.45 1.4 -125.1 1.5 -125.25 2.4 -126.3 4.15 -128.2 4.9 -128.85 5.05 -128.95 Q6.35 -129.95 7.6 -130.15 L9.4 -130.05 9.5 -130.0 9.55 -130.0 9.6 -129.95 12.45 -125.0 12.35 -125.05 12.3 -125.05 10.5 -125.35 10.15 -125.3 9.15 -124.95 8.6 -124.8 8.4 -124.65 7.15 -124.0 7.15 -123.95 6.95 -123.85 6.9 -123.8 6.85 -123.75 Q5.45 -122.7 4.05 -119.7 2.9 -117.35 1.75 -113.75 L1.7 -113.75 Q-0.65 -106.6 -0.8 -101.6 L-0.65 -101.6 8.25 -101.85 9.55 -101.95 13.45 -102.35 14.3 -102.5 14.35 -102.5 18.15 -103.15 18.75 -103.3 18.8 -103.3 18.9 -103.35 19.4 -103.55 19.55 -103.6 20.1 -103.95 20.2 -104.05 20.35 -104.2 20.4 -104.25 20.4 -104.2 20.75 -102.65 20.8 -102.45 21.75 -96.9 20.25 -96.45 17.5 -95.7 14.65 -95.4 -1.1 -94.55 -7.9 -94.6 -14.15 -95.1 -21.6 -96.05 -24.15 -96.75 -24.25 -96.6 -25.45 -97.65 -24.85 -98.8 -24.25 -99.95 -22.9 -102.45 -22.8 -102.65 -21.6 -104.95 -13.25 -121.2 -10.25 -127.25 -9.75 -128.45 -9.85 -127.95 -10.0 -127.3 -10.2 -126.35 -10.5 -124.95 M4.65 -123.65 Q5.45 -124.9 7.15 -125.7 8.8 -126.45 10.05 -126.3 9.6 -128.65 8.6 -128.65 8.0 -128.65 6.3 -127.65 4.4 -126.5 3.35 -125.2 L-0.6 -118.05 -2.0 -114.35 Q-3.1 -111.15 -4.25 -106.1 L-4.75 -101.65 -2.3 -101.6 -1.75 -106.4 0.05 -113.35 Q0.85 -116.2 2.05 -118.95 L4.65 -123.65 M3.0 -100.15 L0.45 -100.1 -1.95 -100.1 -6.0 -100.2 -9.8 -100.35 -12.0 -100.5 -14.8 -100.85 -17.3 -101.2 -19.6 -101.6 Q-21.25 -101.8 -21.2 -102.15 L-21.25 -102.2 -23.4 -98.0 -18.7 -97.05 -17.35 -96.85 -15.6 -96.65 -13.05 -96.45 -10.4 -96.25 -6.1 -96.1 -1.85 -96.05 0.7 -96.05 3.0 -96.1 7.05 -96.25 10.5 -96.45 13.4 -96.75 Q19.35 -97.3 20.2 -98.0 L19.2 -101.85 14.9 -101.05 6.8 -100.25 3.0 -100.15 M-19.2 -103.1 L-18.85 -103.95 -16.15 -110.4 -12.9 -118.5 -20.6 -103.55 -19.2 -103.1" fill="#464646" fill-rule="evenodd" stroke="none"/>
  </g>
</svg>
