<?xml version="1.0" encoding="UTF-8" standalone="no"?>
<svg xmlns:ffdec="https://www.free-decompiler.com/flash" xmlns:xlink="http://www.w3.org/1999/xlink" ffdec:objectType="shape" height="68.1px" width="73.8px" xmlns="http://www.w3.org/2000/svg">
  <g transform="matrix(1.0, 0.0, 0.0, 1.0, 36.9, 34.05)">
    <path d="M23.3 -27.0 L22.2 -28.7 20.9 -30.15 M3.3 -28.4 L1.95 -26.05 1.9 -26.0 1.45 -24.75 M9.6 -32.8 Q7.65 -32.25 6.1 -31.15 M17.7 -32.4 Q15.95 -33.2 13.9 -33.3 M35.65 -0.55 Q35.3 -2.5 34.1 -4.0 M30.85 -6.45 Q29.1 -7.4 27.15 -8.0 M23.3 -8.8 L22.9 -8.8 22.6 -8.85 Q20.7 -8.85 19.4 -9.9 M20.9 -12.3 Q22.35 -13.65 23.25 -15.55 M24.45 -19.4 Q24.8 -21.45 24.55 -23.3 M-2.65 -27.2 L-3.85 -28.95 -3.9 -28.95 Q-5.2 -30.55 -6.75 -31.55 M-10.4 -33.05 L-14.35 -33.25 M-31.45 -3.4 L-32.25 -2.9 -32.3 -2.85 Q-33.55 -2.0 -34.4 -0.95 M-24.65 -18.7 Q-24.2 -16.85 -23.0 -15.05 M-24.15 -6.5 L-28.0 -5.25 M0.7 -21.1 L-1.1 -21.2 -1.25 -23.45 M-18.35 -32.1 Q-20.1 -31.2 -21.45 -29.7 M-23.55 -26.5 Q-24.5 -24.55 -24.8 -22.7 M-20.45 -12.1 L-19.6 -11.45 -21.35 -9.15 M-12.7 18.25 L-11.6 18.45 Q-11.0 19.85 -10.8 21.35 M-36.05 2.7 Q-36.3 4.25 -35.95 6.1 L-35.9 6.2 -35.8 6.8 M-34.55 10.6 Q-33.7 12.5 -32.25 13.75 M-28.65 15.6 L-27.65 15.85 -27.5 15.85 -24.7 16.35 M-7.3 31.95 Q-6.25 32.6 -4.85 32.95 L-4.65 33.0 -3.65 33.15 M-10.95 25.45 L-10.7 27.1 -10.7 27.15 -10.0 29.1 M-20.7 16.95 L-16.7 17.65 M35.6 7.7 Q36.15 6.45 36.15 4.9 L36.15 3.5 M21.9 15.4 L22.85 15.1 25.95 14.5 M29.6 13.05 L32.95 10.8 M11.0 23.65 L11.5 19.65 M14.5 17.9 L18.45 16.8 M0.35 33.3 L4.4 32.6 M7.85 31.05 Q9.65 29.85 10.15 27.75" fill="none" stroke="#5fc5c9" stroke-linecap="round" stroke-linejoin="round" stroke-width="1.5"/>
  </g>
</svg>
