<?xml version="1.0" encoding="UTF-8" standalone="no"?>
<svg xmlns:ffdec="https://www.free-decompiler.com/flash" xmlns:xlink="http://www.w3.org/1999/xlink" ffdec:objectType="shape" height="41.25px" width="37.6px" xmlns="http://www.w3.org/2000/svg">
  <g transform="matrix(1.0, 0.0, 0.0, 1.0, 16.95, 135.85)">
    <path d="M4.55 -130.5 L4.5 -131.4 Q4.1 -132.7 2.4 -133.5 -1.25 -135.25 -3.6 -132.6 -6.15 -129.8 -5.75 -125.7 -5.65 -124.4 -5.15 -123.65 L-4.75 -123.15 Q-4.3 -122.85 -3.65 -122.8 L-2.35 -122.95 Q-0.1 -123.6 1.75 -125.5 L3.7 -128.1 3.65 -128.1 Q4.4 -129.45 4.55 -130.5 M5.7 -129.55 L4.75 -127.45 2.85 -124.85 1.05 -123.25 Q-0.4 -122.2 -2.0 -121.75 L-2.45 -121.65 -4.15 -121.55 Q-4.95 -121.65 -5.5 -122.15 L-5.8 -122.4 Q-6.8 -123.4 -7.0 -125.6 -7.4 -129.75 -5.15 -132.7 L-7.0 -130.8 Q-9.35 -127.6 -11.05 -120.55 L-14.0 -104.75 -14.7 -100.4 -15.3 -96.95 -15.55 -95.5 -16.95 -95.65 -16.7 -96.95 -15.85 -101.0 Q-14.05 -109.6 -13.4 -113.3 -11.3 -124.85 -9.8 -128.55 -6.8 -135.85 -0.7 -135.85 4.6 -135.85 7.7 -132.5 10.8 -129.2 12.75 -124.0 14.7 -118.85 17.6 -107.85 L20.35 -96.95 20.65 -95.6 19.6 -95.5 19.25 -96.95 Q14.15 -116.25 11.85 -122.55 9.6 -128.85 7.0 -131.55 L5.0 -133.15 Q5.55 -132.5 5.7 -131.7 5.95 -130.75 5.7 -129.55" fill="#464646" fill-rule="evenodd" stroke="none"/>
    <path d="M2.85 -124.85 L4.0 -124.0 3.9 -123.95 1.7 -121.95 -2.85 -120.0 -3.45 -119.95 -3.55 -119.95 -4.05 -119.95 -4.65 -120.0 -4.15 -121.55 -2.45 -121.65 -2.0 -121.75 Q-0.4 -122.2 1.05 -123.25 L2.85 -124.85 M1.3 -120.85 L3.9 -122.9 4.55 -123.5 6.2 -121.45 Q7.8 -119.1 8.55 -116.7 8.55 -114.2 7.55 -110.05 6.7 -106.35 5.6 -103.6 L5.75 -103.1 6.6 -102.9 8.45 -103.65 10.0 -104.5 10.1 -102.75 Q10.1 -102.1 8.8 -98.55 L8.2 -96.95 7.4 -94.75 7.45 -94.65 3.8 -94.6 4.85 -96.95 5.5 -98.7 5.35 -99.35 Q5.15 -99.75 4.5 -99.75 -0.1 -99.75 -3.1 -96.95 L-4.95 -94.7 -9.6 -94.95 -9.35 -96.95 -9.25 -97.45 Q-8.65 -100.5 -7.1 -101.2 L-4.55 -101.6 -1.65 -102.0 Q-1.4 -101.7 -1.4 -102.7 L-4.35 -103.65 Q-7.35 -104.35 -7.35 -105.1 -7.35 -110.35 -5.2 -118.05 L-4.9 -119.0 -4.0 -118.95 -3.25 -119.0 Q-4.5 -116.7 -4.5 -113.4 -4.5 -110.1 -3.25 -107.75 -2.0 -105.45 -0.2 -105.45 1.6 -105.45 2.85 -107.75 4.1 -110.1 4.1 -113.4 4.1 -116.7 2.85 -119.0 2.15 -120.3 1.3 -120.85 M9.75 -94.75 L12.25 -96.75 12.55 -94.9 9.75 -94.75" fill="#e0e0e0" fill-rule="evenodd" stroke="none"/>
    <path d="M4.0 -124.0 L6.85 -127.75 5.7 -129.55 Q5.95 -130.75 5.7 -131.7 5.55 -132.5 5.0 -133.15 L7.0 -131.55 Q9.6 -128.85 11.85 -122.55 14.15 -116.25 19.25 -96.95 L19.6 -95.5 13.9 -95.0 13.6 -96.95 11.75 -108.9 Q9.7 -121.3 7.35 -126.65 6.5 -125.3 4.55 -123.5 L3.9 -122.9 1.3 -120.85 Q-1.15 -119.25 -3.25 -119.0 L-4.0 -118.95 -4.9 -119.0 Q-6.05 -119.2 -6.9 -119.8 -9.45 -113.35 -11.3 -103.0 L-11.9 -98.9 -12.2 -96.95 -12.45 -95.2 -15.55 -95.5 -15.3 -96.95 -14.7 -100.4 -14.0 -104.75 -11.05 -120.55 Q-9.35 -127.6 -7.0 -130.8 L-5.15 -132.7 Q-7.4 -129.75 -7.0 -125.6 -6.8 -123.4 -5.8 -122.4 L-6.45 -120.9 Q-5.7 -120.15 -4.65 -120.0 L-4.05 -119.95 -3.55 -119.95 -3.45 -119.95 -2.85 -120.0 1.7 -121.95 3.9 -123.95 4.0 -124.0" fill="#8a8a8a" fill-rule="evenodd" stroke="none"/>
    <path d="M2.85 -124.85 L4.75 -127.45 5.7 -129.55 6.85 -127.75 4.0 -124.0 2.85 -124.85 M-5.8 -122.4 L-5.5 -122.15 Q-4.95 -121.65 -4.15 -121.55 L-4.65 -120.0 Q-5.7 -120.15 -6.45 -120.9 L-5.8 -122.4 M-4.9 -119.0 L-5.2 -118.05 Q-7.35 -110.35 -7.35 -105.1 -7.35 -104.35 -4.35 -103.65 L-1.4 -102.7 Q-1.4 -101.7 -1.65 -102.0 L-4.55 -101.6 -7.1 -101.2 Q-8.65 -100.5 -9.25 -97.45 L-9.35 -96.95 -9.6 -94.95 -12.45 -95.2 -12.2 -96.95 -11.9 -98.9 -11.3 -103.0 Q-9.45 -113.35 -6.9 -119.8 -6.05 -119.2 -4.9 -119.0 M7.45 -94.65 L7.4 -94.75 8.2 -96.95 8.8 -98.55 Q10.1 -102.1 10.1 -102.75 L10.0 -104.5 8.45 -103.65 6.6 -102.9 5.75 -103.1 5.6 -103.6 Q6.7 -106.35 7.55 -110.05 8.55 -114.2 8.55 -116.7 7.8 -119.1 6.2 -121.45 L4.55 -123.5 Q6.5 -125.3 7.35 -126.65 9.7 -121.3 11.75 -108.9 L13.6 -96.95 13.9 -95.0 12.55 -94.9 12.25 -96.75 9.75 -94.75 7.45 -94.65" fill="#b4b4b4" fill-rule="evenodd" stroke="none"/>
    <path d="M1.3 -120.85 Q2.15 -120.3 2.85 -119.0 4.1 -116.7 4.1 -113.4 4.1 -110.1 2.85 -107.75 1.6 -105.45 -0.2 -105.45 -2.0 -105.45 -3.25 -107.75 -4.5 -110.1 -4.5 -113.4 -4.5 -116.7 -3.25 -119.0 -1.15 -119.25 1.3 -120.85 M-4.95 -94.7 L-3.1 -96.95 Q-0.1 -99.75 4.5 -99.75 5.15 -99.75 5.35 -99.35 L5.5 -98.7 4.85 -96.95 3.8 -94.6 1.95 -94.6 -4.95 -94.7" fill="#ffffff" fill-rule="evenodd" stroke="none"/>
  </g>
</svg>
