<?xml version="1.0" encoding="UTF-8" standalone="no"?>
<svg xmlns:ffdec="https://www.free-decompiler.com/flash" xmlns:xlink="http://www.w3.org/1999/xlink" ffdec:objectType="shape" height="141.0px" width="160.15px" xmlns="http://www.w3.org/2000/svg">
  <g transform="matrix(1.0, 0.0, 0.0, 1.0, 85.85, 80.0)">
    <path d="M-51.55 43.4 Q-50.15 38.95 -52.8 29.9 -55.9 19.3 -63.45 7.7 L-64.0 6.9 -65.15 5.25 -66.05 3.9 -66.25 3.65 -66.55 3.15 -68.85 -0.5 -69.7 -2.15 Q-73.45 -9.35 -73.45 -17.55 -73.45 -32.7 -58.55 -47.15 -54.5 -50.15 -50.45 -52.35 -43.3 -55.9 -34.55 -55.9 L-29.05 -55.45 Q-25.15 -54.9 -23.75 -53.9 L-22.55 -52.8 -20.8 -49.1 -19.45 -45.7 Q-19.55 -40.05 -20.35 -35.55 L-21.85 -36.1 Q-20.75 -40.75 -20.65 -43.15 L-20.65 -43.5 Q-20.65 -48.45 -23.25 -51.05 -25.5 -53.3 -29.85 -54.0 L-33.65 -54.65 -36.75 -54.95 -41.8 -54.4 Q-54.65 -50.25 -62.95 -40.55 -71.35 -30.7 -71.35 -19.45 -71.35 -8.15 -66.4 0.2 -60.7 7.65 -59.25 10.5 -53.75 15.9 -51.1 25.95 -49.25 32.8 -49.25 38.75 -49.25 41.8 -49.65 43.7 L-51.55 43.4" fill="#132806" fill-rule="evenodd" stroke="none"/>
    <path d="M-41.8 -54.4 L-36.75 -54.95 -33.65 -54.65 -29.85 -54.0 Q-40.75 -44.9 -48.85 -37.2 -55.9 -30.5 -57.35 -28.25 -59.45 -24.95 -60.3 -21.05 -60.95 -18.1 -60.95 -14.1 -60.95 -9.25 -59.2 -3.0 -57.05 4.6 -53.3 9.65 -50.75 13.05 -48.9 16.5 L-47.85 20.7 Q-46.65 26.0 -46.8 31.5 -46.9 36.85 -47.75 42.25 L-48.1 44.35 -49.65 43.7 Q-49.25 41.8 -49.25 38.75 -49.25 32.8 -51.1 25.95 -53.75 15.9 -59.25 10.5 -62.4 2.25 -63.25 -0.9 -64.5 -5.45 -64.5 -10.5 -64.5 -23.5 -58.5 -34.0 -51.7 -45.9 -38.9 -50.85 L-41.8 -54.4" fill="#34710f" fill-rule="evenodd" stroke="none"/>
    <path d="M-48.9 16.5 Q-50.75 13.05 -53.3 9.65 -57.05 4.6 -59.2 -3.0 -60.95 -9.25 -60.95 -14.1 -60.95 -18.1 -60.3 -21.05 -59.45 -24.95 -57.35 -28.25 -55.9 -30.5 -48.85 -37.2 -40.75 -44.9 -29.85 -54.0 -25.5 -53.3 -23.25 -51.05 -20.65 -48.45 -20.65 -43.5 L-20.65 -43.15 Q-20.75 -40.75 -21.85 -36.1 L-22.25 -36.25 Q-26.75 -37.9 -31.55 -37.75 -36.65 -38.4 -41.75 -38.0 -46.15 -34.5 -49.9 -30.45 -53.4 -26.65 -56.25 -22.25 -55.9 -12.75 -54.5 -3.4 -53.75 1.75 -51.95 6.75 -50.25 11.55 -48.9 16.5" fill="#28550d" fill-rule="evenodd" stroke="none"/>
    <path d="M-41.8 -54.4 L-38.9 -50.85 Q-51.7 -45.9 -58.5 -34.0 -64.5 -23.5 -64.5 -10.5 -64.5 -5.45 -63.25 -0.9 -62.4 2.25 -59.25 10.5 -60.7 7.65 -66.4 0.2 -71.35 -8.15 -71.35 -19.45 -71.35 -30.7 -62.95 -40.55 -54.65 -50.25 -41.8 -54.4" fill="#429113" fill-rule="evenodd" stroke="none"/>
    <path d="M-73.3 4.9 L-71.35 1.25 -69.7 -2.15 -68.85 -0.5 -70.55 2.75 -72.4 6.0 -73.3 4.9 M-58.55 -47.15 Q-59.4 -48.65 -60.55 -54.25 L-60.55 -54.75 -59.45 -64.15 -59.15 -65.3 -57.3 -66.45 Q-58.1 -64.3 -58.4 -61.7 L-58.55 -57.4 Q-58.55 -53.95 -57.1 -53.3 L-50.45 -52.35 Q-54.5 -50.15 -58.55 -47.15 M-19.2 -68.15 L-20.35 -66.65 -20.6 -68.65 -19.2 -68.15 M-22.8 -59.6 L-22.9 -56.05 -22.55 -52.8 -23.75 -53.9 Q-25.15 -54.9 -29.05 -55.45 -26.3 -56.8 -25.15 -57.5 -23.8 -58.4 -22.8 -59.6" fill="#2e0942" fill-rule="evenodd" stroke="none"/>
    <path d="M-20.35 -66.65 L-22.8 -59.6 Q-23.8 -58.4 -25.15 -57.5 -26.3 -56.8 -29.05 -55.45 L-34.55 -55.9 Q-43.3 -55.9 -50.45 -52.35 L-57.1 -53.3 Q-58.55 -53.95 -58.55 -57.4 L-58.4 -61.7 Q-56.9 -63.6 -53.95 -65.2 -50.65 -67.05 -47.95 -67.05 -37.7 -67.05 -33.35 -60.0 -30.4 -59.5 -27.15 -64.55 -25.4 -67.25 -24.8 -70.0 L-20.6 -68.65 -20.35 -66.65 M-40.45 -63.25 Q-44.5 -64.85 -49.0 -64.85 -51.65 -64.85 -53.95 -63.65 -56.85 -62.2 -57.95 -59.2 L-47.65 -58.05 -35.2 -59.35 Q-36.3 -61.65 -40.45 -63.25 M-68.85 -0.5 L-66.55 3.15 -66.25 3.65 -71.65 7.6 -72.4 6.0 -70.55 2.75 -68.85 -0.5" fill="#671494" fill-rule="evenodd" stroke="none"/>
    <path d="M-28.6 -71.0 L-24.8 -70.0 Q-25.4 -67.25 -27.15 -64.55 -30.4 -59.5 -33.35 -60.0 -37.7 -67.05 -47.95 -67.05 -50.65 -67.05 -53.95 -65.2 -56.9 -63.6 -58.4 -61.7 -58.1 -64.3 -57.3 -66.45 -54.55 -68.1 -51.6 -69.35 L-49.7 -70.05 -45.4 -70.45 -45.3 -70.45 -37.85 -69.65 -30.7 -68.4 Q-29.15 -68.4 -28.7 -69.55 -28.4 -70.25 -28.6 -71.0 M-40.45 -63.25 Q-36.3 -61.65 -35.2 -59.35 L-47.65 -58.05 -57.95 -59.2 Q-56.85 -62.2 -53.95 -63.65 -51.65 -64.85 -49.0 -64.85 -44.5 -64.85 -40.45 -63.25" fill="#841bbc" fill-rule="evenodd" stroke="none"/>
    <path d="M-49.7 -70.05 Q-42.45 -72.65 -34.7 -72.1 L-28.6 -71.0 Q-28.4 -70.25 -28.7 -69.55 -29.15 -68.4 -30.7 -68.4 L-37.85 -69.65 -45.3 -70.45 -45.4 -70.45 -49.7 -70.05" fill="#a634e2" fill-rule="evenodd" stroke="none"/>
    <path d="M-17.0 -71.05 L-16.9 -71.1 -16.35 -71.55 Q-11.3 -75.5 -7.45 -77.4 L-5.9 -78.1 Q-1.25 -80.0 5.4 -80.0 13.6 -80.0 21.9 -75.25 31.95 -69.5 35.35 -59.5 L37.25 -51.85 Q33.95 -62.15 26.65 -69.15 16.45 -78.9 3.05 -78.9 -4.85 -78.9 -13.6 -72.8 L-17.25 -68.15 -20.15 -63.55 -21.35 -56.9 Q-21.35 -51.45 -17.45 -46.2 L-16.45 -44.95 -17.15 -43.65 -19.2 -45.45 -19.45 -45.7 -20.8 -49.1 -22.55 -52.8 -22.9 -56.05 -22.8 -59.6 -20.35 -66.65 -19.2 -68.15 -17.0 -71.05 M38.15 -48.55 L38.55 -47.2 Q42.65 -33.4 47.95 -22.65 50.65 -17.1 53.8 -13.1 56.7 -9.4 58.9 -8.35 L57.65 -6.55 Q55.2 -8.1 54.05 -9.15 52.4 -10.7 48.2 -16.65 42.2 -25.15 39.7 -38.6 39.3 -43.9 38.15 -48.55" fill="#613905" fill-rule="evenodd" stroke="none"/>
    <path d="M37.25 -51.85 L38.15 -48.55 Q39.3 -43.9 39.7 -38.6 36.15 -52.15 24.4 -61.9 13.2 -71.2 2.1 -71.2 -2.1 -71.2 -6.65 -70.25 -11.25 -69.25 -14.6 -67.65 L-13.6 -72.8 Q-4.85 -78.9 3.05 -78.9 16.45 -78.9 26.65 -69.15 33.95 -62.15 37.25 -51.85" fill="#f1c745" fill-rule="evenodd" stroke="none"/>
    <path d="M-20.15 -63.55 L-17.25 -68.15 -13.6 -72.8 -14.6 -67.65 Q-11.25 -69.25 -6.65 -70.25 -2.1 -71.2 2.1 -71.2 13.2 -71.2 24.4 -61.9 36.15 -52.15 39.7 -38.6 42.2 -25.15 48.2 -16.65 52.4 -10.7 54.05 -9.15 55.2 -8.1 57.65 -6.55 L57.35 -5.75 Q51.5 -9.5 47.1 -14.45 42.2 -20.0 38.25 -26.3 L38.0 -27.2 36.4 -33.25 35.8 -35.6 Q33.6 -43.5 30.9 -48.2 26.15 -56.45 21.6 -60.4 15.5 -65.7 7.65 -65.7 L-4.05 -64.9 -20.15 -63.55" fill="#e4990e" fill-rule="evenodd" stroke="none"/>
    <path d="M-16.45 -44.95 L-17.45 -46.2 Q-21.35 -51.45 -21.35 -56.9 L-20.15 -63.55 -4.05 -64.9 7.65 -65.7 Q15.5 -65.7 21.6 -60.4 26.15 -56.45 30.9 -48.2 33.6 -43.5 35.8 -35.6 L36.4 -33.25 38.0 -27.2 38.25 -26.3 38.25 -26.35 36.3 -29.55 Q31.25 -38.15 24.5 -45.05 19.35 -50.25 12.1 -52.3 4.6 -54.4 -3.05 -53.35 -12.05 -52.35 -16.45 -44.95" fill="#bf730b" fill-rule="evenodd" stroke="none"/>
    <path d="M64.3 -7.7 Q66.0 -7.7 67.1 -5.5 L67.45 -5.15 67.65 -4.4 Q67.65 -3.0 65.8 -2.1 L64.15 -1.5 62.8 -1.35 Q61.95 -1.35 61.35 -2.25 L60.85 -3.5 60.75 -4.3 60.75 -4.35 60.75 -4.45 Q60.75 -5.95 62.1 -6.9 63.2 -7.7 64.3 -7.7 M-77.9 12.15 Q-79.1 11.65 -79.25 9.4 -79.4 6.55 -76.85 6.55 -75.3 6.55 -74.45 7.85 -74.0 8.6 -73.9 9.25 L-73.9 9.5 Q-73.9 10.9 -75.55 11.7 L-77.2 12.25 -77.9 12.15 M-51.55 46.6 Q-49.6 46.8 -48.8 48.1 -48.25 49.0 -48.25 50.45 -48.25 51.35 -49.0 51.95 L-49.6 52.3 -49.6 52.35 -50.45 52.6 -50.8 52.65 -51.65 52.75 -51.75 52.75 -51.85 52.75 -51.95 52.75 -52.15 52.75 Q-54.85 52.75 -54.85 50.6 -54.85 46.3 -51.55 46.6" fill="#c7c7c7" fill-rule="evenodd" stroke="none"/>
    <path d="M58.65 -4.9 L59.5 -6.75 Q61.3 -9.85 64.7 -9.85 68.95 -9.85 71.1 -7.25 72.8 -5.25 72.8 -2.6 L72.15 0.5 71.7 1.35 70.85 1.45 71.15 -0.7 Q71.15 -2.35 70.35 -3.65 L68.6 -5.65 69.5 -3.5 Q70.1 -2.2 70.1 -0.9 L69.95 0.25 69.65 1.5 65.25 0.75 64.8 0.65 61.3 -0.05 Q61.9 0.9 63.45 1.95 L64.55 2.6 Q66.05 3.3 67.5 3.35 66.25 4.8 65.25 4.8 L65.2 4.8 65.1 4.8 65.0 4.8 64.55 4.8 64.3 4.75 Q62.6 4.45 60.9 3.2 58.15 1.2 58.15 -1.9 58.15 -3.45 58.65 -4.9 M64.3 -7.7 Q63.2 -7.7 62.1 -6.9 60.75 -5.95 60.75 -4.45 L60.75 -4.35 60.75 -4.3 60.85 -3.5 61.35 -2.25 Q61.95 -1.35 62.8 -1.35 L64.15 -1.5 65.8 -2.1 Q67.65 -3.0 67.65 -4.4 L67.45 -5.15 67.1 -5.5 Q66.0 -7.7 64.3 -7.7 M-79.5 6.55 L-80.05 6.45 Q-80.8 6.45 -82.05 7.75 -83.55 9.35 -83.6 11.1 -84.5 10.05 -84.5 9.05 -84.5 7.2 -82.6 5.7 -80.8 4.35 -78.4 4.15 -73.5 3.85 -72.55 8.25 L-72.35 10.65 Q-72.35 13.1 -74.35 14.75 -76.25 16.3 -78.8 16.3 L-80.4 15.7 -81.95 15.1 -82.55 14.8 Q-83.0 14.25 -81.9 14.45 L-81.25 14.55 -79.55 14.75 Q-79.1 14.75 -76.8 13.6 L-76.35 13.2 -80.05 13.7 -80.4 13.75 -80.5 13.75 -81.8 13.65 Q-82.35 13.45 -82.35 12.8 L-79.75 6.65 -79.5 6.55 M-77.9 12.15 L-77.2 12.25 -75.55 11.7 Q-73.9 10.9 -73.9 9.5 L-73.9 9.25 Q-74.0 8.6 -74.45 7.85 -75.3 6.55 -76.85 6.55 -79.4 6.55 -79.25 9.4 -79.1 11.65 -77.9 12.15 M-57.0 47.15 Q-54.95 45.35 -52.0 45.2 -49.95 45.1 -48.35 45.85 -47.65 46.2 -47.0 46.75 -44.7 48.65 -44.7 52.2 L-44.85 53.75 -45.85 56.3 Q-47.05 58.55 -48.3 58.55 L-50.95 58.35 Q-47.45 56.1 -47.1 53.4 L-47.05 52.75 -47.15 52.2 -47.5 52.25 -48.3 53.25 -49.2 54.15 -53.05 57.3 -53.45 57.6 Q-55.35 57.6 -55.9 54.75 -56.1 51.6 -56.25 51.0 L-56.5 51.85 -56.75 54.5 Q-56.75 55.75 -55.95 56.9 L-54.8 58.25 -55.6 58.6 -56.4 58.05 Q-58.15 57.65 -58.9 55.0 -59.3 53.5 -59.3 52.2 -59.3 49.15 -57.0 47.15 M-51.55 46.6 Q-54.85 46.3 -54.85 50.6 -54.85 52.75 -52.15 52.75 L-51.95 52.75 -51.85 52.75 -51.75 52.75 -51.65 52.75 -50.8 52.65 -50.45 52.6 -49.6 52.35 -49.6 52.3 -49.0 51.95 Q-48.25 51.35 -48.25 50.45 -48.25 49.0 -48.8 48.1 -49.6 46.8 -51.55 46.6" fill="#888888" fill-rule="evenodd" stroke="none"/>
    <path d="M58.9 -8.35 Q60.1 -9.35 62.1 -10.3 64.25 -11.3 65.4 -11.3 68.45 -11.3 71.0 -9.4 74.3 -7.0 74.3 -2.65 74.3 0.4 72.35 3.0 69.9 6.3 65.6 6.3 L64.1 6.2 Q62.05 5.9 60.4 4.75 57.3 2.6 56.65 -2.05 L57.0 -4.9 57.35 -5.75 57.65 -6.55 58.9 -8.35 M-45.35 46.45 Q-44.5 47.55 -43.8 49.9 -43.2 51.9 -43.2 52.65 L-43.3 54.0 Q-43.75 57.1 -46.4 59.1 -49.0 61.0 -51.95 61.0 -55.65 61.0 -58.2 58.45 -60.8 55.85 -60.8 52.2 -60.8 48.6 -57.75 46.0 -54.95 43.55 -51.55 43.4 L-49.65 43.7 -48.1 44.35 -47.65 44.55 -45.35 46.45 M-71.1 10.1 Q-70.7 13.15 -73.05 15.4 -75.35 17.6 -78.9 17.6 -81.35 17.6 -83.15 15.95 L-83.95 15.1 Q-85.85 12.75 -85.85 9.75 -85.85 6.7 -83.4 4.7 -81.1 2.8 -78.05 2.8 -74.45 4.05 -73.3 4.9 L-72.4 6.0 -71.65 7.6 -71.25 8.85 -71.1 10.1 M58.65 -4.9 Q58.15 -3.45 58.15 -1.9 58.15 1.2 60.9 3.2 62.6 4.45 64.3 4.75 L64.55 4.8 65.0 4.8 65.1 4.8 65.2 4.8 65.25 4.8 Q66.25 4.8 67.5 3.35 66.05 3.3 64.55 2.6 L63.45 1.95 Q61.9 0.9 61.3 -0.05 L64.8 0.65 65.25 0.75 69.65 1.5 69.95 0.25 70.1 -0.9 Q70.1 -2.2 69.5 -3.5 L68.6 -5.65 70.35 -3.65 Q71.15 -2.35 71.15 -0.7 L70.85 1.45 71.7 1.35 72.15 0.5 72.8 -2.6 Q72.8 -5.25 71.1 -7.25 68.95 -9.85 64.7 -9.85 61.3 -9.85 59.5 -6.75 L58.65 -4.9 M-79.5 6.55 L-79.75 6.65 -82.35 12.8 Q-82.35 13.45 -81.8 13.65 L-80.5 13.75 -80.4 13.75 -80.05 13.7 -76.35 13.2 -76.8 13.6 Q-79.1 14.75 -79.55 14.75 L-81.25 14.55 -81.9 14.45 Q-83.0 14.25 -82.55 14.8 L-81.95 15.1 -80.4 15.7 -78.8 16.3 Q-76.25 16.3 -74.35 14.75 -72.35 13.1 -72.35 10.65 L-72.55 8.25 Q-73.5 3.85 -78.4 4.15 -80.8 4.35 -82.6 5.7 -84.5 7.2 -84.5 9.05 -84.5 10.05 -83.6 11.1 -83.55 9.35 -82.05 7.75 -80.8 6.45 -80.05 6.45 L-79.5 6.55 M-57.0 47.15 Q-59.3 49.15 -59.3 52.2 -59.3 53.5 -58.9 55.0 -58.15 57.65 -56.4 58.05 L-55.6 58.6 -54.8 58.25 -55.95 56.9 Q-56.75 55.75 -56.75 54.5 L-56.5 51.85 -56.25 51.0 Q-56.1 51.6 -55.9 54.75 -55.35 57.6 -53.45 57.6 L-53.05 57.3 -49.2 54.15 -48.3 53.25 -47.5 52.25 -47.15 52.2 -47.05 52.75 -47.1 53.4 Q-47.45 56.1 -50.95 58.35 L-48.3 58.55 Q-47.05 58.55 -45.85 56.3 L-44.85 53.75 -44.7 52.2 Q-44.7 48.65 -47.0 46.75 -47.65 46.2 -48.35 45.85 -49.95 45.1 -52.0 45.2 -54.95 45.35 -57.0 47.15" fill="#383838" fill-rule="evenodd" stroke="none"/>
    <path d="M-45.2 -8.2 L-45.65 -4.3 -45.85 -1.05 -42.95 9.7 Q-40.05 21.4 -40.05 27.35 -40.05 31.85 -41.75 37.85 -43.4 43.75 -45.35 46.45 L-47.65 44.55 -44.4 38.85 Q-44.1 37.95 -43.3 33.15 L-42.5 28.05 Q-42.5 18.75 -45.35 10.7 -48.2 2.6 -48.2 -3.3 -48.2 -10.45 -43.65 -17.4 -38.9 -24.7 -33.4 -24.7 L-30.55 -24.55 Q-28.9 -24.85 -25.8 -27.5 -23.5 -29.4 -21.9 -36.05 L-21.85 -36.1 -20.35 -35.55 Q-21.45 -29.6 -23.9 -25.8 -27.5 -20.25 -33.3 -20.25 L-36.0 -20.45 Q-36.65 -20.4 -38.5 -19.25 L-40.5 -17.15 -40.9 -16.7 -42.4 -14.75 -43.5 -12.8 -44.65 -10.05 -45.2 -8.2" fill="#430505" fill-rule="evenodd" stroke="none"/>
    <path d="M-48.9 16.5 Q-50.25 11.55 -51.95 6.75 -53.75 1.75 -54.5 -3.4 -55.9 -12.75 -56.25 -22.25 -53.4 -26.65 -49.9 -30.45 -46.15 -34.5 -41.75 -38.0 -36.65 -38.4 -31.55 -37.75 -26.75 -37.9 -22.25 -36.25 L-21.85 -36.1 -21.9 -36.05 Q-23.5 -29.4 -25.8 -27.5 -28.9 -24.85 -30.55 -24.55 L-33.4 -24.7 Q-38.9 -24.7 -43.65 -17.4 -48.2 -10.45 -48.2 -3.3 -48.2 2.6 -45.35 10.7 -42.5 18.75 -42.5 28.05 L-43.3 33.15 Q-44.1 37.95 -44.4 38.85 -43.8 36.15 -43.8 35.15 -43.8 25.85 -48.9 16.5" fill="#950b0b" fill-rule="evenodd" stroke="none"/>
    <path d="M-48.1 44.35 L-47.75 42.25 Q-46.9 36.85 -46.8 31.5 -46.65 26.0 -47.85 20.7 L-48.9 16.5 Q-43.8 25.85 -43.8 35.15 -43.8 36.15 -44.4 38.85 L-47.65 44.55 -48.1 44.35" fill="#e11111" fill-rule="evenodd" stroke="none"/>
    <path d="M-57.3 -66.45 Q-55.55 -71.35 -51.4 -74.3 -45.6 -78.45 -35.75 -78.45 -32.6 -78.45 -29.1 -77.5 -25.75 -76.65 -24.75 -75.65 -24.2 -72.8 -24.8 -70.0 L-28.6 -71.0 -29.15 -72.15 Q-31.55 -75.9 -39.05 -75.9 -45.35 -75.9 -47.95 -73.75 -50.0 -71.1 -51.5 -70.05 L-51.15 -69.95 -50.55 -70.0 -49.7 -70.05 -51.6 -69.35 Q-54.55 -68.1 -57.3 -66.45" fill="#ea7500" fill-rule="evenodd" stroke="none"/>
    <path d="M-49.7 -70.05 L-50.55 -70.0 -51.15 -69.95 -51.5 -70.05 Q-50.0 -71.1 -47.95 -73.75 -45.35 -75.9 -39.05 -75.9 -31.55 -75.9 -29.15 -72.15 L-28.6 -71.0 -34.7 -72.1 Q-42.45 -72.65 -49.7 -70.05" fill="#ff9933" fill-rule="evenodd" stroke="none"/>
    <path d="M-24.75 -75.65 Q-21.5 -72.75 -20.75 -70.1 L-20.6 -68.65 -24.8 -70.0 Q-24.2 -72.8 -24.75 -75.65 M-66.25 3.65 L-66.05 3.9 -65.15 5.25 -68.1 7.2 -71.25 8.85 -71.65 7.6 -66.25 3.65" fill="#ae5700" fill-rule="evenodd" stroke="none"/>
    <path d="M-64.0 6.9 L-66.75 8.5 Q-69.45 9.95 -71.1 10.1 L-71.25 8.85 -68.1 7.2 -65.15 5.25 -64.0 6.9 M-59.45 -64.15 Q-57.95 -70.25 -54.35 -73.85 -48.7 -79.55 -37.45 -79.55 -31.45 -79.55 -26.85 -77.6 -22.45 -75.75 -17.0 -71.05 L-19.2 -68.15 -20.6 -68.65 -20.75 -70.1 Q-21.5 -72.75 -24.75 -75.65 -25.75 -76.65 -29.1 -77.5 -32.6 -78.45 -35.75 -78.45 -45.6 -78.45 -51.4 -74.3 -55.55 -71.35 -57.3 -66.45 L-59.15 -65.3 -59.45 -64.15" fill="#5b2e00" fill-rule="evenodd" stroke="none"/>
    <path d="M38.25 -26.3 Q42.2 -20.0 47.1 -14.45 51.5 -9.5 57.35 -5.75 L57.0 -4.9 50.55 -6.85 48.5 -8.2 Q46.45 -10.0 44.15 -13.7 40.85 -19.0 38.45 -25.7 L38.25 -26.35 38.25 -26.3" fill="#0460f7" fill-rule="evenodd" stroke="none"/>
    <path d="M38.25 -26.35 L38.45 -25.7 Q40.85 -19.0 44.15 -13.7 46.45 -10.0 48.5 -8.2 L43.3 -11.8 Q42.3 -12.65 37.55 -18.55 33.75 -23.3 30.75 -29.4 27.8 -35.45 24.75 -39.15 21.6 -43.0 17.2 -45.2 13.55 -47.1 10.8 -47.1 9.4 -47.1 0.85 -43.95 -7.7 -40.8 -9.0 -40.8 -12.9 -40.8 -16.45 -44.95 -12.05 -52.35 -3.05 -53.35 4.6 -54.4 12.1 -52.3 19.35 -50.25 24.5 -45.05 31.25 -38.15 36.3 -29.55 L38.25 -26.35" fill="#0345b4" fill-rule="evenodd" stroke="none"/>
    <path d="M56.65 -2.05 Q46.35 -2.6 34.95 -19.1 29.1 -27.55 23.95 -37.95 L22.8 -39.25 20.85 -40.85 Q19.25 -42.1 18.05 -42.8 L15.65 -43.6 13.75 -44.1 13.25 -44.1 10.75 -43.8 Q8.1 -42.0 6.05 -41.0 2.3 -39.1 -3.5 -39.1 -10.0 -39.1 -13.95 -41.35 L-17.15 -43.65 -16.45 -44.95 Q-12.9 -40.8 -9.0 -40.8 -7.7 -40.8 0.85 -43.95 9.4 -47.1 10.8 -47.1 13.55 -47.1 17.2 -45.2 21.6 -43.0 24.75 -39.15 27.8 -35.45 30.75 -29.4 33.75 -23.3 37.55 -18.55 42.3 -12.65 43.3 -11.8 L48.5 -8.2 50.55 -6.85 57.0 -4.9 56.65 -2.05" fill="#012052" fill-rule="evenodd" stroke="none"/>
    <path d="M23.95 -37.95 Q16.2 -25.0 2.8 -15.1 L1.1 -13.9 Q-2.15 -11.65 -10.4 -7.1 -18.65 -2.6 -29.75 -2.25 -40.85 -1.9 -45.2 -8.2 L-44.65 -10.05 -39.95 -7.15 -39.0 -6.8 -35.0 -5.6 -30.05 -4.9 -23.0 -5.2 -19.8 -5.95 Q-14.25 -7.4 -12.75 -8.25 L-6.3 -11.35 1.4 -15.85 5.3 -18.75 13.25 -26.35 15.75 -29.25 19.8 -34.7 21.75 -37.65 22.2 -38.2 22.8 -39.25 23.95 -37.95 M-19.45 -45.7 L-19.2 -45.45 -17.15 -43.65 -13.95 -41.35 Q-10.0 -39.1 -3.5 -39.1 2.3 -39.1 6.05 -41.0 8.1 -42.0 10.75 -43.8 7.9 -38.75 -2.55 -31.55 -7.6 -28.1 -12.3 -25.6 L-12.4 -25.55 Q-17.35 -22.95 -21.9 -21.4 -26.1 -18.5 -31.95 -19.0 L-38.5 -19.25 Q-36.65 -20.4 -36.0 -20.45 L-33.3 -20.25 Q-27.5 -20.25 -23.9 -25.8 -21.45 -29.6 -20.35 -35.55 -19.55 -40.05 -19.45 -45.7 M13.75 -44.1 L13.55 -43.9 9.65 -38.95 6.95 -36.15 -0.75 -29.3 -4.55 -26.65 Q-6.35 -25.45 -10.2 -23.4 L-11.2 -22.85 -12.45 -22.2 -18.55 -19.6 Q-26.2 -17.3 -26.4 -17.3 L-28.9 -16.8 -36.25 -16.2 -40.4 -16.6 -40.9 -16.7 -40.5 -17.15 -37.4 -16.8 -33.65 -16.8 -26.35 -17.9 Q-17.95 -20.4 -11.5 -23.5 L-10.8 -23.85 Q-7.55 -25.45 -4.8 -27.25 4.35 -33.15 13.25 -44.1 L13.75 -44.1 M-16.45 -37.3 L-16.75 -36.75 -17.65 -34.4 -17.7 -34.25 -18.65 -29.85 -18.45 -28.3 -17.15 -28.05 Q-15.35 -28.05 -13.7 -28.75 L-13.45 -28.9 Q-10.45 -30.35 -8.0 -34.25 -8.0 -36.0 -10.95 -37.4 -13.35 -38.55 -14.8 -38.55 -15.7 -38.55 -16.45 -37.3" fill="#0c0c0c" fill-rule="evenodd" stroke="none"/>
    <path d="M-35.0 -5.6 L-39.0 -6.8 -42.4 -14.75 -40.9 -16.7 -40.4 -16.6 -35.0 -5.6 M-39.95 -7.15 L-44.65 -10.05 -43.5 -12.8 -39.95 -7.15 M-37.4 -16.8 L-40.5 -17.15 -38.5 -19.25 -31.95 -19.0 -37.4 -16.8 M-16.45 -37.3 Q-15.7 -38.55 -14.8 -38.55 -13.35 -38.55 -10.95 -37.4 -8.0 -36.0 -8.0 -34.25 -10.45 -30.35 -13.45 -28.9 L-13.7 -28.75 Q-15.35 -28.05 -17.15 -28.05 L-18.45 -28.3 -18.65 -29.85 -17.7 -34.25 -17.65 -34.4 -16.75 -36.75 -16.45 -37.3" fill="#1f1f1f" fill-rule="evenodd" stroke="none"/>
    <path d="M22.8 -39.25 L22.2 -38.2 21.75 -37.65 18.05 -42.8 Q19.25 -42.1 20.85 -40.85 L22.8 -39.25 M19.8 -34.7 L15.75 -29.25 Q13.85 -31.5 12.6 -33.7 L9.65 -38.95 13.55 -43.9 17.1 -38.8 19.8 -34.7 M13.25 -26.35 L5.3 -18.75 -0.75 -29.3 6.95 -36.15 Q9.65 -31.4 11.4 -28.85 L13.25 -26.35 M1.4 -15.85 L-6.3 -11.35 -12.45 -22.2 -11.2 -22.85 -10.2 -23.4 Q-6.35 -25.45 -4.55 -26.65 L1.4 -15.85 M-12.75 -8.25 Q-14.25 -7.4 -19.8 -5.95 L-26.4 -17.3 Q-26.2 -17.3 -18.55 -19.6 L-12.75 -8.25 M-23.0 -5.2 L-30.05 -4.9 -33.45 -11.75 -36.25 -16.2 -28.9 -16.8 -23.0 -5.2 M-26.35 -17.9 L-33.65 -16.8 -37.4 -16.8 -31.95 -19.0 Q-26.1 -18.5 -21.9 -21.4 L-26.35 -17.9" fill="#333333" fill-rule="evenodd" stroke="none"/>
    <path d="M21.75 -37.65 L19.8 -34.7 17.1 -38.8 13.55 -43.9 13.75 -44.1 15.65 -43.6 18.05 -42.8 21.75 -37.65 M15.75 -29.25 L13.25 -26.35 11.4 -28.85 Q9.65 -31.4 6.95 -36.15 L9.65 -38.95 12.6 -33.7 Q13.85 -31.5 15.75 -29.25 M5.3 -18.75 L1.4 -15.85 -4.55 -26.65 -0.75 -29.3 5.3 -18.75 M-6.3 -11.35 L-12.75 -8.25 -18.55 -19.6 -12.45 -22.2 -6.3 -11.35 M13.25 -44.1 Q4.35 -33.15 -4.8 -27.25 -7.55 -25.45 -10.8 -23.85 L-11.5 -23.5 Q-17.95 -20.4 -26.35 -17.9 L-21.9 -21.4 Q-17.35 -22.95 -12.4 -25.55 L-12.3 -25.6 Q-7.6 -28.1 -2.55 -31.55 7.9 -38.75 10.75 -43.8 L13.25 -44.1" fill="#494949" fill-rule="evenodd" stroke="none"/>
    <path d="M-19.8 -5.95 L-23.0 -5.2 -28.9 -16.8 -26.4 -17.3 -19.8 -5.95 M-30.05 -4.9 L-35.0 -5.6 -40.4 -16.6 -36.25 -16.2 -33.45 -11.75 -30.05 -4.9 M-39.0 -6.8 L-39.95 -7.15 -43.5 -12.8 -42.4 -14.75 -39.0 -6.8" fill="#2c2c2c" fill-rule="evenodd" stroke="none"/>
  </g>
</svg>
