<?xml version="1.0" encoding="UTF-8" standalone="no"?>
<svg xmlns:ffdec="https://www.free-decompiler.com/flash" xmlns:xlink="http://www.w3.org/1999/xlink" ffdec:objectType="shape" height="104.3px" width="173.8px" xmlns="http://www.w3.org/2000/svg">
  <g transform="matrix(1.0, 0.0, 0.0, 1.0, 110.3, 100.95)">
    <path d="M56.7 -97.75 L56.6 -98.15 57.1 -97.95 56.7 -97.75 M-109.9 -19.95 L-110.3 -19.75 -110.2 -20.3 -109.9 -19.95" fill="#b4b4b4" fill-rule="evenodd" stroke="none"/>
    <path d="M48.4 -75.6 L50.35 -76.1 Q51.3 -76.15 51.55 -75.75 49.95 -72.7 42.25 -64.35 L41.75 -63.8 39.55 -64.8 48.4 -75.6 M63.15 -76.6 L63.45 -76.85 63.45 -76.5 63.15 -76.6 M54.4 -66.7 L55.05 -65.1 55.65 -63.95 51.85 -64.8 50.15 -65.5 49.85 -62.2 49.8 -61.25 50.3 -58.25 50.4 -55.8 Q50.3 -54.3 49.75 -53.75 49.05 -53.35 48.25 -53.5 47.4 -53.7 46.9 -54.55 46.2 -55.4 46.2 -56.0 L46.65 -55.95 48.6 -56.05 48.15 -60.25 Q47.95 -66.65 48.3 -67.55 L53.35 -66.9 54.4 -66.7 M50.35 -54.0 L49.9 -53.45 Q49.5 -53.2 49.1 -53.25 L50.35 -54.0 M39.95 -51.35 Q40.9 -49.4 40.1 -47.25 39.3 -45.15 37.25 -44.2 L36.6 -44.15 35.4 -47.15 35.5 -47.1 37.35 -46.9 37.2 -48.65 Q36.15 -51.0 36.85 -53.3 37.65 -55.55 39.7 -56.55 L39.75 -56.55 40.55 -54.5 Q40.0 -55.05 39.9 -53.5 L39.95 -51.35 M30.0 -45.2 L29.85 -45.2 29.5 -45.15 29.1 -41.65 28.1 -37.05 27.15 -34.3 13.35 -35.35 12.15 -29.7 10.9 -25.65 Q10.4 -24.2 9.45 -23.75 8.45 -23.25 6.3 -23.2 L1.9 -23.0 0.1 -25.55 0.1 -25.6 5.0 -25.45 6.25 -25.4 Q7.25 -25.45 7.85 -25.8 L8.85 -27.7 Q11.65 -36.75 11.8 -36.85 L16.2 -37.1 22.45 -36.6 25.6 -36.35 26.25 -39.4 27.3 -45.85 Q27.45 -47.05 28.65 -47.7 L28.7 -47.65 30.0 -45.2 M-4.8 -23.3 L-10.2 -23.6 -12.95 -19.7 -13.25 -19.35 -13.95 -22.7 -13.85 -22.85 -11.3 -26.0 -7.2 -25.95 -7.05 -25.9 -4.8 -23.3 M-17.4 -14.0 L-20.35 -10.75 Q-21.75 -9.15 -22.75 -8.65 L-25.15 -8.75 -29.15 -10.45 Q-29.35 -10.5 -34.2 -13.2 L-42.3 -1.9 Q-43.1 -2.05 -45.0 -2.95 -47.35 -4.0 -49.15 -5.15 L-52.15 -7.1 -52.55 -6.7 -53.45 -9.35 -53.45 -9.4 -51.25 -9.2 -45.7 -5.85 -42.8 -4.45 -41.1 -6.95 -37.4 -12.05 Q-35.45 -14.8 -34.4 -15.3 -34.15 -15.4 -25.55 -11.7 L-23.3 -11.2 Q-22.65 -11.45 -22.05 -12.2 L-21.2 -13.25 -18.25 -17.0 -18.2 -17.05 -17.4 -14.0 M-55.9 -1.0 L-56.35 -0.5 -60.55 -0.3 Q-62.65 -1.05 -63.6 -3.0 L-65.2 -4.4 Q-66.5 -5.35 -66.4 -4.5 L-67.5 -6.5 -67.45 -6.5 -63.05 -6.6 Q-60.8 -5.7 -59.75 -3.35 L-58.4 -2.2 -57.45 -3.65 -57.4 -3.75 -55.9 -1.0 M-70.9 2.8 L-71.6 3.35 -72.3 3.25 -70.9 2.8 M-73.75 2.2 L-75.5 0.5 -78.2 -2.45 -81.0 -4.3 -81.55 -2.55 -83.3 0.95 -83.75 -0.3 -84.6 -1.8 -84.1 -2.75 Q-82.55 -5.75 -81.25 -7.0 L-75.7 -2.45 -72.75 0.65 -71.35 -0.9 -71.0 -1.25 -70.4 0.2 Q-70.25 1.25 -70.55 2.0 -70.95 2.75 -71.75 3.0 -72.55 3.1 -73.75 2.2 M-97.85 -1.45 L-98.0 -1.2 -98.2 -1.45 -97.85 -1.45 M-74.4 -9.55 L-75.05 -9.6 Q-86.35 -9.05 -89.65 -9.8 -89.9 -10.2 -89.2 -10.9 -88.65 -11.6 -87.55 -12.1 L-73.6 -11.95 -74.4 -9.55 M-51.9 -15.8 L-37.55 -20.1 -25.65 -24.0 -20.55 -22.25 Q-30.9 -17.85 -37.75 -15.55 -45.25 -13.0 -53.35 -11.25 L-52.8 -13.35 Q-52.5 -14.9 -51.9 -15.8 M-17.8 -27.15 L-12.85 -29.35 -8.0 -31.75 Q-8.55 -30.9 -8.5 -29.55 L-8.15 -28.0 -8.4 -27.9 -11.45 -26.35 Q-12.95 -25.65 -14.5 -25.05 L-14.75 -24.9 -15.85 -26.15 Q-16.8 -27.1 -17.8 -27.15 M-0.5 -35.75 Q1.4 -36.8 10.15 -42.35 L22.65 -50.55 Q23.75 -50.45 25.1 -49.7 L27.05 -48.8 Q20.6 -43.7 13.8 -39.6 7.65 -35.85 -2.45 -30.75 L-0.5 -35.75" fill="#ffffff" fill-rule="evenodd" stroke="none"/>
    <path d="M48.4 -75.6 Q51.25 -79.85 53.75 -87.75 55.9 -94.8 55.5 -95.7 54.4 -98.05 51.6 -98.6 L44.85 -99.05 41.9 -98.9 39.65 -98.8 38.05 -98.95 35.65 -98.75 32.5 -98.8 Q27.25 -98.85 18.8 -96.5 8.35 -93.5 -7.05 -87.25 L-8.3 -88.25 Q11.2 -96.15 23.8 -99.05 29.8 -100.4 34.1 -100.6 L36.85 -100.85 40.1 -100.9 Q41.15 -100.7 45.95 -100.85 50.75 -100.9 56.6 -98.15 L56.7 -97.75 Q59.2 -97.4 56.1 -87.75 52.9 -77.95 51.85 -76.3 L51.55 -75.75 Q51.3 -76.15 50.35 -76.1 L48.4 -75.6 M63.45 -76.85 L63.15 -76.6 59.45 -78.2 59.35 -77.95 Q61.3 -73.75 60.3 -69.65 59.2 -65.6 55.75 -63.9 L55.65 -63.95 55.05 -65.1 54.4 -66.7 54.5 -66.7 57.95 -66.1 Q58.15 -67.0 57.75 -74.65 L58.0 -78.8 Q58.15 -80.35 58.65 -81.0 L60.3 -80.0 Q61.35 -78.75 63.5 -77.2 L63.45 -76.85 M50.4 -55.8 L50.55 -55.5 50.35 -54.0 49.1 -53.25 47.75 -53.55 40.65 -54.5 41.3 -52.65 41.2 -52.6 39.95 -51.35 39.9 -53.5 Q40.0 -55.05 40.55 -54.5 L39.75 -56.55 44.6 -56.1 46.2 -56.0 Q46.2 -55.4 46.9 -54.55 47.4 -53.7 48.25 -53.5 49.05 -53.35 49.75 -53.75 50.3 -54.3 50.4 -55.8 M36.6 -44.15 L33.0 -44.85 30.0 -45.2 28.7 -47.65 30.35 -47.75 35.4 -47.15 36.6 -44.15 M1.9 -23.0 L1.75 -23.05 0.5 -22.95 -4.8 -23.3 -7.05 -25.9 0.1 -25.55 1.9 -23.0 M-13.25 -19.35 L-16.6 -15.0 -17.4 -14.1 -17.4 -14.0 -18.2 -17.05 -13.95 -22.7 -13.25 -19.35 M-52.55 -6.7 L-54.05 -4.2 -55.9 -1.0 -57.4 -3.75 -54.7 -8.1 -53.45 -9.35 -52.55 -6.7 M-63.6 -3.0 L-65.3 -2.85 -65.35 -2.85 -66.4 -4.45 -70.9 2.8 -72.3 3.25 -73.55 2.4 -73.75 2.2 Q-72.55 3.1 -71.75 3.0 -70.95 2.75 -70.55 2.0 -70.25 1.25 -70.4 0.2 L-71.0 -1.25 -70.15 -2.55 -67.5 -6.5 -66.4 -4.5 Q-66.5 -5.35 -65.2 -4.4 L-63.6 -3.0 M-83.3 0.95 Q-86.8 2.6 -90.65 0.85 -94.55 -0.95 -96.5 -5.2 L-96.7 -5.3 -97.85 -1.45 -98.2 -1.45 -98.55 -1.55 Q-98.4 -4.25 -98.7 -5.85 L-98.35 -7.7 Q-97.55 -7.65 -96.15 -6.75 L-92.95 -4.3 -86.4 1.3 -86.4 1.2 -84.75 -1.7 -84.6 -1.8 -83.75 -0.3 -83.3 0.95 M-67.45 -6.5 L-69.4 -9.75 -69.7 -9.8 -74.4 -9.55 -73.6 -11.95 -63.35 -13.5 Q-53.25 -15.15 -51.9 -15.8 -52.5 -14.9 -52.8 -13.35 L-53.35 -11.25 -54.3 -11.1 -57.25 -10.6 -60.3 -10.4 -59.85 -7.8 -58.95 -5.5 -57.95 -3.6 -58.05 -3.6 -59.75 -3.35 Q-60.8 -5.7 -63.05 -6.6 L-67.45 -6.5 M-89.65 -9.8 L-90.35 -9.85 Q-92.35 -10.2 -101.8 -14.05 -111.2 -17.85 -109.9 -19.95 L-110.2 -20.3 Q-108.5 -26.55 -105.45 -30.15 -102.25 -33.75 -101.6 -34.7 L-99.45 -37.2 -97.55 -39.1 Q-94.7 -42.25 -89.85 -45.9 -80.2 -53.25 -63.5 -62.3 L-63.45 -61.7 -63.4 -60.75 Q-76.35 -53.75 -84.6 -48.2 -91.85 -43.25 -95.15 -39.15 L-97.25 -36.75 -98.8 -35.05 -99.75 -33.7 -101.3 -32.05 -103.3 -29.85 Q-106.25 -26.4 -107.3 -24.4 -108.65 -21.9 -107.6 -19.55 -107.2 -18.65 -100.3 -15.8 -92.75 -12.6 -87.55 -12.1 -88.65 -11.6 -89.2 -10.9 -89.9 -10.2 -89.65 -9.8 M-25.65 -24.0 L-17.8 -27.15 Q-16.8 -27.1 -15.85 -26.15 L-14.75 -24.9 -19.9 -22.6 -20.55 -22.25 -25.65 -24.0 M-8.0 -31.75 L-0.5 -35.75 -2.45 -30.75 -8.15 -28.0 -8.5 -29.55 Q-8.55 -30.9 -8.0 -31.75 M22.65 -50.55 Q24.05 -51.25 31.8 -57.95 L39.55 -64.8 41.75 -63.8 38.55 -60.15 38.45 -60.1 39.7 -56.55 Q37.65 -55.55 36.85 -53.3 36.15 -51.0 37.2 -48.65 L35.9 -47.45 35.05 -49.4 33.8 -51.5 32.2 -53.55 30.0 -51.4 27.8 -49.4 27.05 -48.8 25.1 -49.7 Q23.75 -50.45 22.65 -50.55" fill="#e0e0e0" fill-rule="evenodd" stroke="none"/>
  </g>
</svg>
