<?xml version="1.0" encoding="UTF-8" standalone="no"?>
<svg xmlns:ffdec="https://www.free-decompiler.com/flash" xmlns:xlink="http://www.w3.org/1999/xlink" ffdec:objectType="shape" height="9.1px" width="41.75px" xmlns="http://www.w3.org/2000/svg">
  <g transform="matrix(1.0, 0.0, 0.0, 1.0, -9.7, -2.0)">
    <path d="M44.4 5.7 L38.85 4.5 34.9 3.5 33.7 3.0 42.7 4.25 Q44.4 4.7 44.85 5.65 45.4 5.7 44.4 5.7 M26.95 2.8 L26.3 2.7 25.15 2.6 30.65 2.85 Q34.05 3.3 36.6 4.5 L37.15 4.8 Q40.1 6.25 40.1 7.6 36.85 6.2 33.55 4.95 L32.0 4.4 31.75 4.3 31.65 4.3 30.6 3.95 28.2 3.15 27.7 2.9 26.95 2.8 M19.45 3.3 Q26.75 2.65 31.35 4.55 L31.55 4.6 Q34.85 6.0 34.85 7.4 L28.3 5.1 Q21.8 3.05 16.65 3.8 L19.45 3.3" fill="#fb9d20" fill-rule="evenodd" stroke="none"/>
    <path d="M36.1 6.35 L33.75 5.15 34.7 5.65 Q36.2 6.4 36.2 6.95 36.2 7.75 34.75 7.9 L32.15 6.85 Q29.1 5.65 26.1 5.0 22.45 4.2 18.35 4.15 L14.75 4.2 14.9 4.05 Q15.5 3.7 17.2 3.3 L20.2 2.75 21.35 2.6 21.7 2.65 22.45 2.45 26.6 2.0 27.15 2.05 29.9 2.15 31.55 2.35 32.95 2.75 35.15 2.75 37.7 2.85 40.65 3.35 42.9 3.9 42.95 3.9 43.05 3.9 Q45.3 4.6 45.3 5.6 L45.15 5.85 44.95 6.15 43.5 6.15 38.75 5.15 Q41.45 6.45 41.45 7.2 41.45 8.0 40.0 8.05 L37.4 6.9 36.1 6.35 M28.2 3.15 L30.6 3.95 31.65 4.3 31.75 4.3 32.0 4.4 33.55 4.95 Q36.85 6.2 40.1 7.6 40.1 6.25 37.15 4.8 L36.6 4.5 Q34.05 3.3 30.65 2.85 L25.15 2.6 26.3 2.7 26.95 2.8 28.2 3.15 M44.4 5.7 Q45.4 5.7 44.85 5.65 44.4 4.7 42.7 4.25 L33.7 3.0 34.9 3.5 38.85 4.5 44.4 5.7 M19.45 3.3 L16.65 3.8 Q21.8 3.05 28.3 5.1 L34.85 7.4 Q34.85 6.0 31.55 4.6 L31.35 4.55 Q26.75 2.65 19.45 3.3 M22.75 2.55 L21.8 2.65 23.0 2.6 23.2 2.6 22.75 2.55" fill="#734302" fill-rule="evenodd" stroke="none"/>
    <path d="M41.15 9.3 L41.3 9.65 33.35 9.05 33.7 8.6 41.15 9.3 M50.0 9.95 L50.3 10.35 45.0 9.95 45.0 9.35 50.0 9.95 M30.25 8.5 L30.05 8.75 22.2 8.3 22.65 7.4 30.25 8.5 M19.3 7.3 L19.1 8.25 10.5 7.4 10.8 6.6 19.3 7.3" fill="#ee5e05" fill-rule="evenodd" stroke="none"/>
    <path d="M41.45 8.6 L41.65 8.7 41.75 8.85 42.2 9.95 42.2 10.15 42.05 10.35 41.85 10.4 32.65 9.7 32.4 9.6 32.3 9.4 32.35 9.15 33.2 8.0 Q33.25 7.9 33.35 7.9 L33.55 7.85 41.45 8.6 M50.2 9.25 Q50.35 9.25 50.45 9.4 L51.4 10.55 51.45 10.8 51.35 11.05 51.1 11.1 44.65 10.6 44.4 10.5 44.3 10.25 44.3 8.95 44.35 8.8 44.5 8.65 44.7 8.6 50.2 9.25 M50.0 9.95 L45.0 9.35 45.0 9.95 50.3 10.35 50.0 9.95 M41.15 9.3 L33.7 8.6 33.35 9.05 41.3 9.65 41.15 9.3 M30.95 7.9 Q31.1 7.9 31.2 8.05 L31.25 8.25 31.2 8.5 30.5 9.35 30.35 9.45 30.2 9.45 21.65 8.95 21.45 8.9 21.3 8.7 21.35 8.45 22.1 6.85 22.25 6.7 22.45 6.65 30.95 7.9 M30.25 8.5 L22.65 7.4 22.2 8.3 30.05 8.75 30.25 8.5 M19.75 6.6 L19.95 6.7 20.05 6.85 20.05 7.05 19.7 8.7 19.55 8.9 19.35 8.95 10.05 8.05 9.85 8.0 9.75 7.8 9.75 7.6 10.25 6.1 10.35 5.9 10.6 5.85 19.75 6.6 M19.3 7.3 L10.8 6.6 10.5 7.4 19.1 8.25 19.3 7.3" fill="#6b2c04" fill-rule="evenodd" stroke="none"/>
  </g>
</svg>
