<?xml version="1.0" encoding="UTF-8" standalone="no"?>
<svg xmlns:ffdec="https://www.free-decompiler.com/flash" xmlns:xlink="http://www.w3.org/1999/xlink" ffdec:objectType="shape" height="35.5px" width="35.5px" xmlns="http://www.w3.org/2000/svg">
  <g transform="matrix(1.0, 0.0, 0.0, 1.0, 14.0, -4.95)">
    <path d="M1.25 15.65 L1.0 15.5 0.4 15.55 0.0 15.95 0.05 16.55 0.25 17.0 Q-1.3 19.3 -1.5 22.35 -1.7 25.5 -0.45 28.0 L-0.45 28.2 -0.15 28.65 -0.1 28.7 0.5 29.55 Q2.7 32.6 6.1 32.85 9.15 33.05 11.6 30.85 L12.6 32.2 12.7 32.35 Q9.6 34.9 5.65 34.6 1.35 34.35 -1.55 30.9 L-0.7 30.3 -0.4 29.8 -0.6 29.25 -1.1 28.95 -1.7 29.1 -2.4 29.7 Q-4.45 26.45 -4.2 22.3 -3.9 17.6 -0.75 14.45 L-0.3 14.35 0.0 13.8 Q3.15 11.1 7.2 11.35 11.6 11.65 14.5 15.25 L15.95 17.55 Q17.3 20.35 17.05 23.7 16.85 27.05 15.15 29.65 L13.8 31.4 13.75 31.3 12.75 29.75 12.7 29.7 Q14.75 27.15 15.0 23.45 15.25 20.0 13.75 17.2 L14.35 16.5 14.5 15.95 14.25 15.45 13.7 15.25 13.2 15.55 12.85 15.9 Q10.7 13.1 7.45 12.9 4.05 12.65 1.45 15.4 L1.25 15.65" fill="#f4f4f4" fill-rule="evenodd" stroke="none"/>
    <path d="M0.25 17.0 L0.75 18.3 1.1 18.75 1.65 18.8 2.1 18.4 2.2 17.85 1.4 15.9 1.25 15.65 1.45 15.4 Q4.05 12.65 7.45 12.9 10.7 13.1 12.85 15.9 L11.85 17.4 11.8 17.95 12.15 18.4 12.75 18.45 Q13.05 18.4 13.15 18.15 L13.75 17.2 Q15.25 20.0 15.0 23.45 14.75 27.15 12.7 29.7 L12.3 29.4 Q12.0 29.25 11.7 29.4 L11.35 29.8 11.4 30.45 11.6 30.85 Q9.15 33.05 6.1 32.85 2.7 32.6 0.5 29.55 L-0.1 28.7 0.4 28.8 0.95 28.45 2.0 26.5 2.0 25.95 1.6 25.5 1.0 25.5 0.65 25.9 -0.3 27.6 -0.45 28.0 Q-1.7 25.5 -1.5 22.35 -1.3 19.3 0.25 17.0 M2.55 20.6 Q2.35 20.35 2.0 20.35 L1.5 20.65 1.3 21.15 1.3 23.0 1.25 23.2 1.45 23.8 Q1.65 24.0 1.95 24.0 L2.5 23.85 2.75 23.3 2.8 23.1 2.8 21.1 2.55 20.6 M11.0 19.75 L10.6 20.2 Q10.3 21.2 10.15 22.3 L10.35 22.8 10.8 23.1 11.4 22.95 11.65 22.45 12.05 20.7 12.05 20.1 Q11.9 19.8 11.6 19.75 11.3 19.6 11.0 19.75 M11.8 27.25 L11.55 25.3 11.25 24.8 10.7 24.6 Q10.4 24.65 10.2 24.85 L10.0 25.4 10.35 27.6 10.7 28.05 11.25 28.15 11.7 27.8 11.8 27.25" fill="#ffffff" fill-rule="evenodd" stroke="none"/>
    <path d="M15.5 13.45 L15.2 13.95 15.3 14.5 15.8 14.8 16.35 14.7 Q18.85 18.6 18.55 23.55 18.2 28.65 15.0 32.3 L13.85 33.4 Q9.5 37.4 3.8 37.0 -1.4 36.65 -4.9 32.9 L-4.7 32.6 Q-4.55 32.35 -4.7 32.05 -4.75 31.75 -5.1 31.65 -5.35 31.5 -5.65 31.65 L-5.85 31.75 Q-9.3 27.45 -8.9 21.75 -8.55 15.8 -4.2 11.8 0.05 7.95 5.75 8.3 11.45 8.7 15.2 13.1 L15.5 13.45 M13.8 32.25 L15.1 30.7 Q17.25 27.65 17.5 23.6 17.8 19.55 16.05 16.25 L14.7 14.15 Q11.5 10.15 6.65 9.8 2.4 9.55 -1.0 12.3 L-1.65 11.65 Q-1.9 11.4 -2.2 11.45 L-2.75 11.7 -2.85 12.25 -2.65 12.75 -2.15 13.25 Q-5.6 16.8 -5.95 22.05 -6.25 27.1 -3.55 30.95 L-3.45 31.4 -3.0 31.65 Q0.2 35.45 4.9 35.75 9.75 36.1 13.45 32.55 L13.65 32.35 13.8 32.25" fill="#e1e1e1" fill-rule="evenodd" stroke="none"/>
    <path d="M13.8 31.4 L15.15 29.65 Q16.85 27.05 17.05 23.7 17.3 20.35 15.95 17.55 L14.5 15.25 Q11.6 11.65 7.2 11.35 3.15 11.1 0.0 13.8 0.05 13.5 -0.15 13.25 L-1.0 12.3 Q2.4 9.55 6.65 9.8 11.5 10.15 14.7 14.15 L16.05 16.25 Q17.8 19.55 17.5 23.6 17.25 27.65 15.1 30.7 L13.8 32.25 13.9 31.85 13.8 31.4 M-0.75 14.45 Q-3.9 17.6 -4.2 22.3 -4.45 26.45 -2.4 29.7 L-3.25 30.35 Q-3.5 30.5 -3.55 30.85 L-3.55 30.95 Q-6.25 27.1 -5.95 22.05 -5.6 16.8 -2.15 13.25 L-1.4 14.15 Q-1.15 14.45 -0.85 14.45 L-0.75 14.45 M-1.55 30.9 Q1.35 34.35 5.65 34.6 9.6 34.9 12.7 32.35 L13.05 32.5 13.65 32.35 13.45 32.55 Q9.75 36.1 4.9 35.75 0.2 35.45 -3.0 31.65 L-2.95 31.65 -2.4 31.55 -1.55 30.9" fill="#ebebeb" fill-rule="evenodd" stroke="none"/>
    <path d="M-5.85 9.55 Q-1.2 6.1 4.85 6.5 11.6 6.95 16.05 11.95 L16.3 12.2 16.7 12.7 Q16.1 13.0 15.5 13.45 L15.2 13.1 Q11.45 8.7 5.75 8.3 0.05 7.95 -4.2 11.8 -8.55 15.8 -8.9 21.75 -9.3 27.45 -5.85 31.75 L-6.45 31.9 -6.4 31.9 -7.15 31.95 -7.7 32.15 -7.95 32.65 -7.8 33.2 -7.25 33.45 -6.05 33.35 -6.0 33.35 -5.1 33.05 -4.9 32.9 Q-1.4 36.65 3.8 37.0 9.5 37.4 13.85 33.4 L15.0 32.3 Q18.2 28.65 18.55 23.55 18.85 18.6 16.35 14.7 L17.55 13.95 Q20.35 18.3 19.95 23.75 19.6 29.35 16.05 33.35 L15.8 33.15 Q15.55 32.9 15.25 33.0 14.95 33.0 14.7 33.25 L14.6 33.8 14.85 34.3 15.0 34.5 14.85 34.6 14.5 34.9 Q9.45 39.35 2.7 38.9 -4.05 38.45 -8.45 33.35 L-9.5 32.05 -9.6 31.7 -10.0 31.3 Q-12.8 27.0 -12.45 21.6 -12.0 15.05 -7.2 10.65 L-6.7 10.95 -4.9 11.4 -4.3 11.4 -3.95 10.95 Q-3.8 10.7 -3.95 10.35 -4.05 10.05 -4.4 10.0 L-5.85 9.55" fill="#cccccc" fill-rule="evenodd" stroke="none"/>
    <path d="M16.7 12.7 L16.3 12.2 16.05 11.95 Q11.6 6.95 4.85 6.5 -1.2 6.1 -5.85 9.55 L-6.55 9.45 Q-6.85 9.4 -7.05 9.6 -7.35 9.8 -7.35 10.15 L-7.2 10.65 Q-12.0 15.05 -12.45 21.6 -12.8 27.0 -10.0 31.3 L-11.95 30.55 -12.2 30.45 -12.2 30.5 Q-14.25 26.4 -13.95 21.5 -13.55 15.65 -9.95 11.4 L-9.5 11.25 -9.0 10.9 -8.9 10.35 -8.9 10.3 -7.9 9.3 Q-2.35 4.5 4.95 5.0 11.75 5.45 16.45 10.2 L17.15 10.95 Q21.95 16.5 21.45 23.85 21.05 29.85 17.35 34.2 L17.4 34.05 16.05 33.35 Q19.6 29.35 19.95 23.75 20.35 18.3 17.55 13.95 L17.95 13.8 18.35 13.35 18.35 12.75 Q18.2 12.45 17.9 12.4 17.65 12.25 17.35 12.4 17.05 12.5 16.7 12.7 M15.0 34.5 L16.3 35.25 15.5 36.0 14.7 36.65 Q9.4 40.85 2.6 40.4 -4.7 39.9 -9.55 34.35 L-10.95 32.6 -10.5 32.75 -9.95 32.65 -9.55 32.25 -9.5 32.05 -8.45 33.35 Q-4.05 38.45 2.7 38.9 9.45 39.35 14.5 34.9 L14.85 34.6 15.0 34.5" fill="#666666" fill-rule="evenodd" stroke="none"/>
    <path d="M-7.2 10.65 L-7.35 10.15 Q-7.35 9.8 -7.05 9.6 -6.85 9.4 -6.55 9.45 L-5.85 9.55 -4.4 10.0 Q-4.05 10.05 -3.95 10.35 -3.8 10.7 -3.95 10.95 L-4.3 11.4 -4.9 11.4 -6.7 10.95 -7.2 10.65 M1.25 15.65 L1.4 15.9 2.2 17.85 2.1 18.4 1.65 18.8 1.1 18.75 0.75 18.3 0.25 17.0 0.05 16.55 0.0 15.95 0.4 15.55 1.0 15.5 1.25 15.65 M-0.45 28.0 L-0.3 27.6 0.65 25.9 1.0 25.5 1.6 25.5 2.0 25.95 2.0 26.5 0.95 28.45 0.4 28.8 -0.1 28.7 -0.15 28.65 -0.45 28.2 -0.45 28.0 M11.6 30.85 L11.4 30.45 11.35 29.8 11.7 29.4 Q12.0 29.25 12.3 29.4 L12.7 29.7 12.75 29.75 13.75 31.3 13.8 31.4 13.9 31.85 13.8 32.25 13.65 32.35 13.05 32.5 12.7 32.35 12.6 32.2 11.6 30.85 M13.75 17.2 L13.15 18.15 Q13.05 18.4 12.75 18.45 L12.15 18.4 11.8 17.95 11.85 17.4 12.85 15.9 13.2 15.55 13.7 15.25 14.25 15.45 14.5 15.95 14.35 16.5 13.75 17.2 M2.55 20.6 L2.8 21.1 2.8 23.1 2.75 23.3 2.5 23.85 1.95 24.0 Q1.65 24.0 1.45 23.8 L1.25 23.2 1.3 23.0 1.3 21.15 1.5 20.65 2.0 20.35 Q2.35 20.35 2.55 20.6 M11.0 19.75 Q11.3 19.6 11.6 19.75 11.9 19.8 12.05 20.1 L12.05 20.7 11.65 22.45 11.4 22.95 10.8 23.1 10.35 22.8 10.15 22.3 Q10.3 21.2 10.6 20.2 L11.0 19.75 M-4.9 32.9 L-5.1 33.05 -6.0 33.35 -6.05 33.35 -7.25 33.45 -7.8 33.2 -7.95 32.65 -7.7 32.15 -7.15 31.95 -6.4 31.9 -6.45 31.9 -5.85 31.75 -5.65 31.65 Q-5.35 31.5 -5.1 31.65 -4.75 31.75 -4.7 32.05 -4.55 32.35 -4.7 32.6 L-4.9 32.9 M-1.0 12.3 L-0.15 13.25 Q0.05 13.5 0.0 13.8 L-0.3 14.35 -0.75 14.45 -0.85 14.45 Q-1.15 14.45 -1.4 14.15 L-2.15 13.25 -2.65 12.75 -2.85 12.25 -2.75 11.7 -2.2 11.45 Q-1.9 11.4 -1.65 11.65 L-1.0 12.3 M-2.4 29.7 L-1.7 29.1 -1.1 28.95 -0.6 29.25 -0.4 29.8 -0.7 30.3 -1.55 30.9 -2.4 31.55 -2.95 31.65 -3.0 31.65 -3.45 31.4 -3.55 30.95 -3.55 30.85 Q-3.5 30.5 -3.25 30.35 L-2.4 29.7 M11.8 27.25 L11.7 27.8 11.25 28.15 10.7 28.05 10.35 27.6 10.0 25.4 10.2 24.85 Q10.4 24.65 10.7 24.6 L11.25 24.8 11.55 25.3 11.8 27.25" fill="#cc0000" fill-rule="evenodd" stroke="none"/>
    <path d="M16.7 12.7 Q17.05 12.5 17.35 12.4 17.65 12.25 17.9 12.4 18.2 12.45 18.35 12.75 L18.35 13.35 17.95 13.8 17.55 13.95 16.35 14.7 15.8 14.8 15.3 14.5 15.2 13.95 15.5 13.45 Q16.1 13.0 16.7 12.7 M16.05 33.35 L17.4 34.05 17.35 34.2 Q17.25 35.1 16.55 35.4 L16.3 35.25 15.0 34.5 14.85 34.3 14.6 33.8 14.7 33.25 Q14.95 33.0 15.25 33.0 15.55 32.9 15.8 33.15 L16.05 33.35 M-8.9 10.3 L-8.9 10.35 -9.0 10.9 -9.5 11.25 -9.95 11.4 -8.95 10.15 -8.9 10.3 M-12.2 30.5 L-12.2 30.45 -11.95 30.55 -10.0 31.3 -9.6 31.7 -9.5 32.05 -9.55 32.25 -9.95 32.65 -10.5 32.75 -10.95 32.6 -11.35 32.45 Q-12.25 31.35 -12.2 30.5" fill="#a40000" fill-rule="evenodd" stroke="none"/>
  </g>
</svg>
