<?xml version="1.0" encoding="UTF-8" standalone="no"?>
<svg xmlns:ffdec="https://www.free-decompiler.com/flash" xmlns:xlink="http://www.w3.org/1999/xlink" ffdec:objectType="shape" height="128.1px" width="70.1px" xmlns="http://www.w3.org/2000/svg">
  <g transform="matrix(1.0, 0.0, 0.0, 1.0, 42.1, 16.1)">
    <path d="M-28.35 74.15 L-28.8 75.0 -28.3 73.8 -28.35 74.15" fill="#ebe8e0" fill-rule="evenodd" stroke="none"/>
    <path d="M-13.4 58.9 L-14.7 58.95 Q-13.1 60.25 -12.75 61.55 -12.6 62.25 -14.15 67.3 L-15.8 72.45 -13.95 76.25 Q-12.1 80.15 -11.85 81.15 -11.5 82.55 -11.5 83.6 L-12.55 87.4 -12.6 87.5 -13.65 90.9 -13.35 92.25 Q-12.9 93.95 -11.45 96.6 -11.35 96.85 -12.9 100.3 -13.2 100.95 -12.05 105.55 -11.1 109.25 -13.55 109.9 L-14.45 109.75 -15.45 108.85 -15.2 107.5 -15.0 106.15 Q-14.85 105.45 -15.1 104.15 -16.1 95.4 -16.1 87.4 L-16.1 86.2 Q-16.15 80.3 -17.15 76.6 -18.05 73.15 -20.1 69.7 L-22.1 66.45 Q-22.45 65.2 -20.85 61.85 -19.3 58.5 -19.7 57.0 L-21.35 54.35 Q-22.9 51.9 -23.6 49.35 -24.2 47.05 -22.2 42.5 -20.25 37.95 -21.5 33.25 -22.0 31.5 -23.75 29.9 L-25.8 27.6 Q-26.3 25.65 -25.35 22.2 -24.3 18.85 -24.4 18.45 L-25.8 15.25 -26.35 14.1 -28.2 4.6 -27.9 -2.15 -27.65 -9.35 -28.8 -12.65 -23.25 -16.1 Q-22.95 -14.85 -22.9 -6.0 L-22.7 4.15 Q-22.0 10.45 -20.9 9.9 -19.85 9.2 -18.75 14.1 L-17.65 16.8 Q-17.15 18.25 -14.8 27.05 -14.55 28.0 -14.7 28.8 L-14.8 28.65 -16.6 26.5 -17.75 24.55 Q-18.1 23.2 -18.3 17.6 -18.45 17.0 -18.7 16.75 L-19.2 16.0 Q-19.05 18.0 -19.5 21.05 -19.8 23.6 -19.6 24.45 L-17.8 28.05 Q-16.25 30.7 -15.8 32.45 -15.05 35.15 -16.6 40.75 -18.2 46.3 -17.35 49.5 -16.8 51.55 -15.25 54.7 L-13.4 58.9 M-26.45 49.85 L-27.05 50.2 Q-27.4 50.55 -27.25 51.1 L-26.2 53.6 -25.1 56.0 -25.85 59.35 Q-26.55 62.95 -26.35 64.55 L-26.05 67.75 Q-25.85 69.4 -26.0 69.85 -27.1 73.6 -28.5 76.8 -29.3 78.8 -29.2 79.2 L-27.8 84.4 -28.4 87.4 -29.4 91.35 Q-29.85 93.6 -31.1 97.05 L-32.6 101.05 Q-32.75 101.4 -32.15 103.95 -31.6 106.3 -32.35 107.9 -34.5 107.65 -35.55 106.2 L-36.25 104.6 -34.45 100.55 Q-32.6 96.7 -33.1 94.75 -33.35 93.9 -33.95 92.9 -32.55 90.65 -31.95 87.4 L-31.65 84.5 -31.75 79.15 Q-31.8 77.25 -29.8 73.3 -27.9 69.45 -28.0 67.15 -28.5 57.95 -27.4 57.65 -26.9 57.55 -27.05 58.1 -27.15 58.6 -26.65 58.5 L-27.8 49.05 Q-28.85 39.3 -28.1 37.65 L-27.5 38.4 -27.1 39.0 -26.8 39.9 Q-26.5 41.0 -26.4 43.35 L-26.45 49.85 M-30.85 30.75 L-30.75 31.15 Q-30.65 31.5 -31.2 31.65 -33.7 37.45 -33.7 38.6 -33.75 40.2 -33.25 41.85 L-32.75 43.55 Q-32.7 44.8 -34.25 49.45 L-34.5 51.0 -34.4 54.5 Q-34.35 56.25 -34.95 59.25 -35.75 62.8 -35.85 64.85 L-36.1 73.8 Q-36.3 75.1 -38.15 76.75 L-39.55 76.6 Q-39.2 74.4 -37.85 70.75 -36.7 67.85 -37.05 66.75 -38.35 62.25 -36.35 57.95 -34.35 53.55 -34.95 51.3 -35.5 49.35 -36.5 47.45 -36.95 46.7 -36.55 44.75 L-35.65 41.15 Q-35.3 39.65 -35.75 37.9 -36.85 33.8 -36.25 29.15 -35.7 24.45 -36.0 23.2 L-37.4 20.1 -38.75 16.9 -38.6 14.1 -38.55 13.2 Q-38.3 6.45 -38.45 5.4 L-39.45 -0.3 -40.55 -5.45 -35.1 -8.75 Q-34.4 -6.95 -33.05 -1.7 L-31.85 3.6 Q-31.65 5.4 -31.6 12.5 L-31.6 14.1 -31.65 16.45 -30.3 19.45 -29.15 21.55 Q-29.0 22.2 -30.15 26.0 L-31.3 29.9 -30.95 30.55 -30.9 30.6 -30.85 30.75 M-36.6 11.5 L-36.6 10.1 Q-37.25 11.6 -37.6 11.7 L-37.75 13.3 -37.7 14.1 -37.6 14.45 Q-37.3 15.6 -34.95 17.05 -32.7 18.5 -32.45 19.35 L-33.05 27.4 -32.8 28.1 -32.3 28.6 Q-31.85 27.5 -31.65 23.65 -31.4 19.75 -31.75 18.5 L-33.85 17.15 Q-36.1 15.6 -36.5 14.15 L-36.5 14.1 -36.6 11.5 M-21.8 17.05 Q-21.0 20.0 -21.75 21.15 -22.55 22.4 -22.25 23.65 L-20.45 26.0 -21.25 23.5 -20.65 21.65 Q-20.15 19.75 -20.4 18.8 -20.7 17.65 -22.3 15.25 L-21.8 17.05 M-28.35 32.4 Q-28.7 31.0 -28.25 30.25 -27.3 28.65 -26.9 27.3 L-27.1 30.55 -26.95 33.05 Q-26.55 34.45 -24.4 38.5 -25.95 37.7 -27.3 35.05 L-28.35 32.4 M-18.6 35.6 L-19.25 34.35 Q-18.75 38.45 -19.8 43.75 -20.75 48.6 -20.5 49.5 -20.25 50.5 -19.65 51.3 L-18.75 52.4 -19.6 50.4 Q-20.2 48.1 -19.2 42.9 -18.15 37.6 -18.6 35.6 M-12.0 45.85 Q-10.7 46.9 -6.6 56.85 L-6.45 58.3 -6.8 62.0 -7.25 62.0 Q-9.3 54.4 -12.65 45.95 L-12.0 45.85 M-18.5 64.3 Q-16.85 63.35 -16.65 62.8 L-16.6 57.8 -16.75 56.9 -17.85 60.9 Q-18.5 63.05 -18.5 64.3 M-10.95 73.2 L-11.15 72.5 -11.3 69.85 Q-11.2 67.4 -10.6 66.05 -10.45 67.6 -10.8 72.25 L-10.95 73.2 M-28.35 74.15 L-28.3 73.8 -28.8 75.0 -28.35 74.15 M-25.4 75.45 Q-24.05 77.6 -23.8 78.55 -23.15 80.95 -22.55 85.0 L-22.25 87.4 Q-22.05 90.35 -22.4 91.35 -22.95 92.7 -23.05 94.9 L-23.2 97.35 -23.25 97.45 Q-24.75 95.9 -25.05 94.75 -23.5 91.85 -23.8 87.4 -23.9 85.6 -24.35 83.6 -25.95 76.1 -25.75 75.6 -25.5 75.6 -25.4 75.45 M-14.95 80.7 L-14.25 85.65 Q-13.3 84.4 -13.4 82.3 -13.5 80.55 -14.35 78.8 -15.05 79.05 -14.95 80.7 M1.95 78.15 Q2.75 78.9 3.1 80.1 4.0 83.45 2.6 86.45 L2.15 87.4 0.45 90.1 0.45 89.9 Q0.45 88.5 0.95 87.4 L1.7 85.6 Q2.3 83.1 -0.15 75.75 L1.95 78.15" fill="#9f9f9f" fill-rule="evenodd" stroke="none"/>
    <path d="M28.0 95.8 Q26.0 92.15 25.35 89.6 25.1 88.4 26.35 85.9 L24.95 85.9 24.9 86.0 23.85 89.6 24.15 91.05 Q24.6 92.85 26.05 95.65 L24.6 99.6 Q24.3 100.25 25.45 105.15 26.4 109.05 23.95 109.75 L23.05 109.6 22.05 108.65 Q22.1 109.15 21.85 108.1 21.7 107.5 22.1 106.6 L22.5 105.8 Q22.65 105.05 22.4 103.65 19.65 101.35 19.15 99.3 18.85 98.1 19.6 96.5 20.3 94.95 20.1 94.15 L18.85 90.75 Q18.5 89.55 19.05 88.6 19.6 87.55 19.4 86.75 L19.15 85.9 18.05 85.9 17.25 87.5 Q15.8 89.8 14.9 95.25 14.35 98.35 15.75 104.4 16.75 108.8 14.9 109.3 12.95 109.85 12.3 107.15 11.75 105.1 11.65 100.95 L11.2 96.0 Q9.45 89.6 10.55 86.1 L10.65 85.9 9.1 85.9 8.1 90.1 Q7.65 92.45 6.4 96.15 L4.9 100.35 Q4.75 100.75 5.35 103.45 5.9 105.95 5.15 107.65 3.0 107.35 1.95 105.85 L1.25 104.15 1.5 103.45 2.4 101.35 3.0 99.95 3.05 99.85 Q4.9 95.75 4.4 93.7 L3.55 91.75 2.95 90.4 2.3 88.85 3.0 87.95 3.7 86.9 4.3 85.9 5.15 85.9 5.4 83.2 Q5.95 80.3 5.7 79.55 L4.05 75.35 2.45 71.15 3.8 66.2 Q5.2 61.35 4.0 56.8 1.55 52.15 0.2 50.65 L0.1 51.35 Q0.7 52.8 2.8 56.65 3.95 60.95 2.5 66.1 1.0 71.3 1.4 72.8 L2.7 76.15 3.95 79.45 Q4.75 82.45 4.0 85.9 L3.0 85.9 1.95 88.0 1.2 89.15 2.2 91.6 2.9 93.2 3.0 93.95 3.0 94.8 1.3 98.5 1.1 99.15 Q-0.75 95.85 -1.55 92.8 L0.3 87.4 Q1.4 83.85 1.2 83.05 -3.5 74.85 -3.8 73.7 -3.7 67.1 -3.85 65.2 -4.0 64.8 -4.05 65.0 L-4.05 65.95 Q-4.0 68.6 -4.4 72.3 L-4.6 75.7 Q-3.85 78.55 -2.2 79.75 -0.55 80.95 -0.35 81.6 -0.2 82.15 -0.7 84.9 L-1.3 87.4 Q-1.75 89.05 -2.35 90.55 L-2.4 92.55 Q-2.35 94.35 -2.7 95.75 L-3.65 98.4 Q-4.3 99.95 -3.9 102.2 -2.5 110.15 -4.6 110.7 -5.3 110.9 -6.6 109.5 L-6.15 105.1 -5.75 103.0 -8.5 98.35 Q-11.35 93.85 -12.15 90.9 -12.4 89.75 -11.15 87.4 L-10.9 86.95 Q-9.3 84.25 -10.05 81.4 -10.55 79.55 -12.45 76.2 L-14.3 72.95 -12.75 68.95 Q-11.25 64.9 -12.25 61.1 L-13.05 58.8 -13.4 58.9 -15.25 54.7 Q-16.8 51.55 -17.35 49.5 -18.2 46.3 -16.6 40.75 -15.05 35.15 -15.8 32.45 -16.25 30.7 -17.8 28.05 L-19.6 24.45 Q-19.8 23.6 -19.5 21.05 -19.05 18.0 -19.2 16.0 L-18.7 16.75 Q-18.45 17.0 -18.3 17.6 -18.1 23.2 -17.75 24.55 L-16.6 26.5 -14.8 28.65 -14.7 28.8 Q-14.55 28.0 -14.8 27.05 -17.15 18.25 -17.65 16.8 L-18.75 14.1 Q-19.85 9.2 -20.9 9.9 -22.0 10.45 -22.7 4.15 L-22.9 -6.0 Q-22.95 -14.85 -23.25 -16.1 L9.0 -16.1 27.4 14.1 28.0 14.55 28.0 95.8 M-15.45 108.85 Q-15.4 109.3 -15.65 108.35 -15.8 107.75 -15.4 106.9 L-15.0 106.15 -15.2 107.5 -15.45 108.85 M-15.1 104.15 Q-17.85 101.95 -18.35 100.05 -18.65 98.9 -17.9 97.4 -17.2 95.95 -17.4 95.2 L-18.65 92.0 Q-19.0 90.85 -18.45 89.95 -17.9 88.95 -18.1 88.2 L-18.35 87.4 -19.45 84.8 -20.9 81.3 Q-21.15 80.35 -20.7 79.85 L-19.6 79.1 Q-18.05 77.7 -19.2 73.4 -20.1 70.15 -22.9 71.55 L-20.95 74.05 -20.25 75.75 -21.35 78.4 Q-22.65 80.9 -22.45 81.65 L-19.4 87.2 -19.45 87.4 -20.25 88.9 Q-21.7 91.1 -22.6 96.2 -23.15 99.15 -21.75 104.85 -20.75 109.0 -22.6 109.45 -24.55 110.0 -25.2 107.45 -25.75 105.5 -25.85 101.6 -26.1 97.7 -26.3 96.95 -28.05 90.9 -26.95 87.6 L-26.85 87.4 Q-25.85 84.1 -26.55 81.65 L-27.5 78.0 Q-27.65 76.55 -26.4 73.35 -24.7 69.05 -24.8 67.85 -25.3 66.05 -25.45 63.2 -25.65 60.5 -24.9 57.5 L-24.15 55.0 -25.85 49.55 -26.45 49.85 -26.4 43.35 Q-26.5 41.0 -26.8 39.9 L-27.1 39.0 -27.5 38.4 -28.1 37.65 Q-28.85 39.3 -27.8 49.05 L-26.65 58.5 Q-27.15 58.6 -27.05 58.1 -26.9 57.55 -27.4 57.65 -28.5 57.95 -28.0 67.15 -27.9 69.45 -29.8 73.3 -31.8 77.25 -31.75 79.15 L-31.65 84.5 -31.95 87.4 Q-32.55 90.65 -33.95 92.9 L-35.2 90.2 -33.8 88.35 -33.2 87.4 Q-32.6 86.3 -32.75 85.7 L-35.1 77.85 -32.25 75.0 Q-30.25 72.65 -30.65 71.2 -30.75 70.7 -31.8 68.7 L-33.0 66.15 -31.45 62.95 Q-29.95 59.75 -30.1 59.35 L-31.15 56.65 -32.25 54.1 Q-32.7 52.4 -31.0 49.55 L-29.3 46.9 -30.5 44.9 Q-31.8 42.85 -32.6 39.95 -32.65 39.7 -29.9 33.35 L-30.85 30.75 -30.9 30.6 -30.95 30.55 -31.3 29.9 -30.15 26.0 Q-29.0 22.2 -29.15 21.55 L-30.3 19.45 -31.65 16.45 -31.6 14.1 -31.6 12.5 Q-31.65 5.4 -31.85 3.6 L-33.05 -1.7 Q-34.4 -6.95 -35.1 -8.75 L-33.0 -10.05 Q-32.7 -8.65 -32.8 -7.65 L-32.8 -7.05 -32.2 -10.6 -28.8 -12.65 -27.65 -9.35 -27.9 -2.15 -28.2 4.6 -26.35 14.1 -25.8 15.25 -24.4 18.45 Q-24.3 18.85 -25.35 22.2 -26.3 25.65 -25.8 27.6 L-23.75 29.9 Q-22.0 31.5 -21.5 33.25 -20.25 37.95 -22.2 42.5 -24.2 47.05 -23.6 49.35 -22.9 51.9 -21.35 54.35 L-19.7 57.0 Q-19.3 58.5 -20.85 61.85 -22.45 65.2 -22.1 66.45 L-20.1 69.7 Q-18.05 73.15 -17.15 76.6 -16.15 80.3 -16.1 86.2 L-16.1 87.4 Q-16.1 95.4 -15.1 104.15 M-36.6 11.5 L-36.5 14.1 -36.5 14.15 Q-36.1 15.6 -33.85 17.15 L-31.75 18.5 Q-31.4 19.75 -31.65 23.65 -31.85 27.5 -32.3 28.6 L-32.8 28.1 -33.05 27.4 -32.45 19.35 Q-32.7 18.5 -34.95 17.05 -37.3 15.6 -37.6 14.45 L-37.7 14.1 -37.75 13.3 -37.6 11.7 Q-37.25 11.6 -36.6 10.1 L-36.6 11.5 M-21.8 17.05 L-22.3 15.25 Q-20.7 17.65 -20.4 18.8 -20.15 19.75 -20.65 21.65 L-21.25 23.5 -20.45 26.0 -22.25 23.65 Q-22.55 22.4 -21.75 21.15 -21.0 20.0 -21.8 17.05 M-28.35 32.4 L-27.3 35.05 Q-25.95 37.7 -24.4 38.5 -26.55 34.45 -26.95 33.05 L-27.1 30.55 -26.9 27.3 Q-27.3 28.65 -28.25 30.25 -28.7 31.0 -28.35 32.4 M-10.95 73.2 L-10.8 72.25 Q-10.45 67.6 -10.6 66.05 -11.2 67.4 -11.3 69.85 L-11.15 72.5 -10.95 73.2 M-18.5 64.3 Q-18.5 63.05 -17.85 60.9 L-16.75 56.9 -16.6 57.8 -16.65 62.8 Q-16.85 63.35 -18.5 64.3 M-12.0 45.85 L-12.65 45.95 Q-9.3 54.4 -7.25 62.0 L-6.8 62.0 -6.45 58.3 -6.6 56.85 Q-10.7 46.9 -12.0 45.85 M-18.6 35.6 Q-18.15 37.6 -19.2 42.9 -20.2 48.1 -19.6 50.4 L-18.75 52.4 -19.65 51.3 Q-20.25 50.5 -20.5 49.5 -20.75 48.6 -19.8 43.75 -18.75 38.45 -19.25 34.35 L-18.6 35.6 M-25.4 75.45 Q-25.5 75.6 -25.75 75.6 -25.95 76.1 -24.35 83.6 -23.9 85.6 -23.8 87.4 -23.5 91.85 -25.05 94.75 -24.75 95.9 -23.25 97.45 L-23.2 97.35 -23.05 94.9 Q-22.95 92.7 -22.4 91.35 -22.05 90.35 -22.25 87.4 L-22.55 85.0 Q-23.15 80.95 -23.8 78.55 -24.05 77.6 -25.4 75.45 M-4.9 83.1 Q-5.2 81.95 -6.7 80.3 L-6.1 82.6 Q-5.3 85.1 -5.15 87.1 L-5.15 87.4 Q-5.15 88.75 -5.9 91.1 -6.7 93.6 -6.6 94.05 L-6.05 94.95 -5.3 95.35 -5.25 95.3 -4.8 88.9 -4.7 87.4 Q-4.55 84.3 -4.9 83.1 M-14.95 80.7 Q-15.05 79.05 -14.35 78.8 -13.5 80.55 -13.4 82.3 -13.3 84.4 -14.25 85.65 L-14.95 80.7 M1.95 78.15 L-0.15 75.75 Q2.3 83.1 1.7 85.6 L0.95 87.4 Q0.45 88.5 0.45 89.9 L0.45 90.1 2.15 87.4 2.6 86.45 Q4.0 83.45 3.1 80.1 2.75 78.9 1.95 78.15" fill="#858585" fill-rule="evenodd" stroke="none"/>
    <path d="M28.0 95.8 L28.0 100.15 26.7 98.25 Q25.35 99.95 25.85 101.65 L27.35 105.8 Q27.85 107.7 26.35 109.65 25.2 111.25 23.85 111.6 22.4 112.0 21.4 110.95 20.65 110.3 20.45 109.3 20.15 108.3 20.7 106.75 L21.0 104.85 Q20.85 104.2 20.25 103.75 L18.9 102.6 Q18.0 101.5 17.75 100.45 17.35 98.9 18.05 96.55 L18.65 94.0 18.0 92.4 17.25 91.4 Q16.0 93.85 17.35 102.6 18.5 109.95 15.5 110.8 11.85 111.9 10.7 107.25 10.05 96.75 9.7 95.55 L9.15 94.0 5.85 100.8 Q5.7 101.25 6.9 105.95 7.15 107.05 6.8 107.9 6.4 108.7 5.6 108.95 4.0 109.4 2.25 108.4 0.5 107.3 0.05 105.7 -0.35 104.05 0.4 101.2 L-1.8 96.7 Q-2.7 99.5 -2.15 106.45 -1.75 111.15 -4.65 111.9 -5.95 112.25 -6.85 111.45 -7.4 110.95 -7.55 110.3 -8.15 108.2 -7.4 106.0 -6.65 103.75 -6.8 103.2 L-8.25 102.05 Q-9.9 100.6 -10.8 99.05 -12.15 100.65 -11.65 102.25 L-10.15 106.15 Q-9.65 107.95 -11.15 109.8 -12.3 111.3 -13.65 111.65 -15.1 112.0 -16.1 111.0 -16.85 110.4 -17.05 109.45 -17.35 108.5 -16.8 107.05 -16.4 105.6 -16.5 105.25 -16.65 104.65 -17.25 104.25 L-18.6 103.15 Q-19.5 102.1 -19.75 101.1 -20.15 99.65 -19.45 97.45 L-18.85 95.05 -19.5 93.55 -20.25 92.6 Q-21.5 94.9 -20.15 103.15 -19.0 110.1 -22.0 110.9 -25.65 111.9 -26.8 107.55 -27.45 97.65 -27.8 96.5 -28.0 95.6 -28.35 95.05 L-31.65 101.45 Q-31.8 101.9 -30.6 106.3 -30.35 107.35 -30.7 108.15 -31.1 108.9 -31.9 109.15 -33.5 109.55 -35.25 108.6 -37.0 107.6 -37.45 106.05 -38.05 103.8 -36.2 99.3 L-34.25 95.2 -35.3 92.8 -36.3 90.45 -35.55 89.4 Q-34.95 88.6 -34.5 87.4 L-33.95 85.75 Q-33.55 84.6 -34.8 81.4 L-36.3 77.75 Q-36.55 76.7 -34.25 74.3 L-32.0 72.0 -33.0 69.7 -34.1 67.5 Q-34.55 65.8 -32.85 62.8 -31.15 59.8 -31.4 58.8 L-31.85 57.9 -32.65 56.9 -32.95 55.95 Q-32.7 57.1 -33.55 59.95 L-34.9 64.2 -34.85 66.85 -34.85 70.2 Q-34.95 72.3 -35.6 74.2 -36.55 77.4 -38.25 77.85 -39.1 78.1 -39.7 77.6 L-40.3 76.95 Q-40.8 75.1 -39.65 72.5 -38.15 69.15 -37.95 67.85 L-38.85 65.2 Q-39.6 62.75 -38.95 61.25 L-36.7 54.4 -36.3 52.35 Q-36.25 50.6 -37.45 47.7 -37.8 46.6 -37.4 43.7 L-36.85 40.6 -37.4 38.2 -38.5 33.55 -37.65 29.3 Q-36.85 25.05 -37.1 24.1 L-40.1 17.7 -39.9 14.1 -39.9 13.55 -39.6 5.05 Q-40.0 1.65 -40.85 -0.75 L-42.1 -4.4 -40.55 -5.45 -39.45 -0.3 -38.45 5.4 Q-38.3 6.45 -38.55 13.2 L-38.6 14.1 -38.75 16.9 -37.4 20.1 -36.0 23.2 Q-35.7 24.45 -36.25 29.15 -36.85 33.8 -35.75 37.9 -35.3 39.65 -35.65 41.15 L-36.55 44.75 Q-36.95 46.7 -36.5 47.45 -35.5 49.35 -34.95 51.3 -34.35 53.55 -36.35 57.95 -38.35 62.25 -37.05 66.75 -36.7 67.85 -37.85 70.75 -39.2 74.4 -39.55 76.6 L-38.15 76.75 Q-36.3 75.1 -36.1 73.8 L-35.85 64.85 Q-35.75 62.8 -34.95 59.25 -34.35 56.25 -34.4 54.5 L-34.5 51.0 -34.25 49.45 Q-32.7 44.8 -32.75 43.55 L-33.25 41.85 Q-33.75 40.2 -33.7 38.6 -33.7 37.45 -31.2 31.65 -30.65 31.5 -30.75 31.15 L-30.85 30.75 -29.9 33.35 Q-32.65 39.7 -32.6 39.95 -31.8 42.85 -30.5 44.9 L-29.3 46.9 -31.0 49.55 Q-32.7 52.4 -32.25 54.1 L-31.15 56.65 -30.1 59.35 Q-29.95 59.75 -31.45 62.95 L-33.0 66.15 -31.8 68.7 Q-30.75 70.7 -30.65 71.2 -30.25 72.65 -32.25 75.0 L-35.1 77.85 -32.75 85.7 Q-32.6 86.3 -33.2 87.4 L-33.8 88.35 -35.2 90.2 -33.95 92.9 Q-33.35 93.9 -33.1 94.75 -32.6 96.7 -34.45 100.55 L-36.25 104.6 -35.55 106.2 Q-34.5 107.65 -32.35 107.9 -31.6 106.3 -32.15 103.95 -32.75 101.4 -32.6 101.05 L-31.1 97.05 Q-29.85 93.6 -29.4 91.35 L-28.4 87.4 -27.8 84.4 -29.2 79.2 Q-29.3 78.8 -28.5 76.8 -27.1 73.6 -26.0 69.85 -25.85 69.4 -26.05 67.75 L-26.35 64.55 Q-26.55 62.95 -25.85 59.35 L-25.1 56.0 -26.2 53.6 -27.25 51.1 Q-27.4 50.55 -27.05 50.2 L-26.45 49.85 -25.85 49.55 -24.15 55.0 -24.9 57.5 Q-25.65 60.5 -25.45 63.2 -25.3 66.05 -24.8 67.85 -24.7 69.05 -26.4 73.35 -27.65 76.55 -27.5 78.0 L-26.55 81.65 Q-25.85 84.1 -26.85 87.4 L-26.95 87.6 Q-28.05 90.9 -26.3 96.95 -26.1 97.7 -25.85 101.6 -25.75 105.5 -25.2 107.45 -24.55 110.0 -22.6 109.45 -20.75 109.0 -21.75 104.85 -23.15 99.15 -22.6 96.2 -21.7 91.1 -20.25 88.9 L-19.45 87.4 -19.4 87.2 -22.45 81.65 Q-22.65 80.9 -21.35 78.4 L-20.25 75.75 -20.95 74.05 -22.9 71.55 Q-20.1 70.15 -19.2 73.4 -18.05 77.7 -19.6 79.1 L-20.7 79.85 Q-21.15 80.35 -20.9 81.3 L-19.45 84.8 -18.35 87.4 -18.1 88.2 Q-17.9 88.95 -18.45 89.95 -19.0 90.85 -18.65 92.0 L-17.4 95.2 Q-17.2 95.95 -17.9 97.4 -18.65 98.9 -18.35 100.05 -17.85 101.95 -15.1 104.15 -14.85 105.45 -15.0 106.15 L-15.4 106.9 Q-15.8 107.75 -15.65 108.35 -15.4 109.3 -15.45 108.85 L-14.45 109.75 -13.55 109.9 Q-11.1 109.25 -12.05 105.55 -13.2 100.95 -12.9 100.3 -11.35 96.85 -11.45 96.6 -12.9 93.95 -13.35 92.25 L-13.65 90.9 -12.6 87.5 -12.55 87.4 -11.5 83.6 Q-11.5 82.55 -11.85 81.15 -12.1 80.15 -13.95 76.25 L-15.8 72.45 -14.15 67.3 Q-12.6 62.25 -12.75 61.55 -13.1 60.25 -14.7 58.95 L-13.4 58.9 -13.05 58.8 -12.25 61.1 Q-11.25 64.9 -12.75 68.95 L-14.3 72.95 -12.45 76.2 Q-10.55 79.55 -10.05 81.4 -9.3 84.25 -10.9 86.95 L-11.15 87.4 Q-12.4 89.75 -12.15 90.9 -11.35 93.85 -8.5 98.35 L-5.75 103.0 -6.15 105.1 -6.6 109.5 Q-5.3 110.9 -4.6 110.7 -2.5 110.15 -3.9 102.2 -4.3 99.95 -3.65 98.4 L-2.7 95.75 Q-2.35 94.35 -2.4 92.55 L-2.35 90.55 Q-1.75 89.05 -1.3 87.4 L-0.7 84.9 Q-0.2 82.15 -0.35 81.6 -0.55 80.95 -2.2 79.75 -3.85 78.55 -4.6 75.7 L-4.4 72.3 Q-4.0 68.6 -4.05 65.95 L-4.05 65.0 Q-4.0 64.8 -3.85 65.2 -3.7 67.1 -3.8 73.7 -3.5 74.85 1.2 83.05 1.4 83.85 0.3 87.4 L-1.55 92.8 Q-0.75 95.85 1.1 99.15 L1.3 98.5 3.0 94.8 3.25 94.15 2.9 93.2 2.2 91.6 1.2 89.15 1.95 88.0 3.0 85.9 4.0 85.9 Q4.75 82.45 3.95 79.45 L2.7 76.15 1.4 72.8 Q1.0 71.3 2.5 66.1 3.95 60.95 2.8 56.65 0.7 52.8 0.1 51.35 L0.2 50.65 Q1.55 52.15 4.0 56.8 5.2 61.35 3.8 66.2 L2.45 71.15 4.05 75.35 5.7 79.55 Q5.95 80.3 5.4 83.2 L5.15 85.9 4.3 85.9 3.7 86.9 3.0 87.95 2.3 88.85 2.95 90.4 3.55 91.75 4.4 93.7 Q4.9 95.75 3.05 99.85 L3.0 99.95 2.4 101.35 1.5 103.45 1.25 104.15 1.95 105.85 Q3.0 107.35 5.15 107.65 5.9 105.95 5.35 103.45 4.75 100.75 4.9 100.35 L6.4 96.15 Q7.65 92.45 8.1 90.1 L9.1 85.9 10.65 85.9 10.55 86.1 Q9.45 89.6 11.2 96.0 L11.65 100.95 Q11.75 105.1 12.3 107.15 12.95 109.85 14.9 109.3 16.75 108.8 15.75 104.4 14.35 98.35 14.9 95.25 15.8 89.8 17.25 87.5 L18.05 85.9 19.15 85.9 19.4 86.75 Q19.6 87.55 19.05 88.6 18.5 89.55 18.85 90.75 L20.1 94.15 Q20.3 94.95 19.6 96.5 18.85 98.1 19.15 99.3 19.65 101.35 22.4 103.65 22.65 105.05 22.5 105.8 L22.1 106.6 Q21.7 107.5 21.85 108.1 22.1 109.15 22.05 108.65 L23.05 109.6 23.95 109.75 Q26.4 109.05 25.45 105.15 24.3 100.25 24.6 99.6 L26.05 95.65 Q24.6 92.85 24.15 91.05 L23.85 89.6 24.9 86.0 24.95 85.9 26.35 85.9 Q25.1 88.4 25.35 89.6 26.0 92.15 28.0 95.8 M-33.0 -10.05 L-32.2 -10.6 -32.8 -7.05 -32.8 -7.65 Q-32.7 -8.65 -33.0 -10.05 M-32.0 44.5 L-32.65 47.45 -33.5 50.75 -33.5 51.6 Q-32.15 49.2 -31.75 48.1 -31.0 46.25 -31.65 44.8 L-32.0 44.5 M-4.9 83.1 Q-4.55 84.3 -4.7 87.4 L-4.8 88.9 -5.25 95.3 -5.3 95.35 -6.05 94.95 -6.6 94.05 Q-6.7 93.6 -5.9 91.1 -5.15 88.75 -5.15 87.4 L-5.15 87.1 Q-5.3 85.1 -6.1 82.6 L-6.7 80.3 Q-5.2 81.95 -4.9 83.1" fill="#4d4d4d" fill-rule="evenodd" stroke="none"/>
  </g>
</svg>
