<?xml version="1.0" encoding="UTF-8" standalone="no"?>
<svg xmlns:ffdec="https://www.free-decompiler.com/flash" xmlns:xlink="http://www.w3.org/1999/xlink" ffdec:objectType="shape" height="7.0px" width="22.6px" xmlns="http://www.w3.org/2000/svg">
  <g transform="matrix(1.0, 0.0, 0.0, 1.0, 0.0, 0.0)">
    <path d="M1.6 6.55 Q0.5 6.35 0.25 5.15 -0.1 3.8 0.05 2.0 0.15 0.15 0.9 0.0 1.65 -0.15 3.8 1.05 5.9 2.25 10.1 3.1 L21.7 4.15 22.6 4.95 Q22.6 5.5 21.9 5.9 L21.4 6.15 16.25 5.4 8.5 4.6 4.15 3.1 Q1.75 2.3 1.75 3.9 1.75 4.2 5.85 5.25 2.1 5.0 4.0 5.7 5.85 6.4 3.8 6.35 L1.6 6.55" fill="#3f3732" fill-rule="evenodd" stroke="none"/>
    <path d="M21.4 6.15 L18.05 6.45 14.6 6.45 9.05 6.65 4.8 6.9 1.8 6.55 1.6 6.55 3.8 6.35 Q5.85 6.4 4.0 5.7 2.1 5.0 5.85 5.25 1.75 4.2 1.75 3.9 1.75 2.3 4.15 3.1 L8.5 4.6 16.25 5.4 21.4 6.15" fill="#5b534f" fill-rule="evenodd" stroke="none"/>
  </g>
</svg>
