<?xml version="1.0" encoding="UTF-8" standalone="no"?>
<svg xmlns:ffdec="https://www.free-decompiler.com/flash" xmlns:xlink="http://www.w3.org/1999/xlink" ffdec:objectType="shape" height="56.5px" width="40.4px" xmlns="http://www.w3.org/2000/svg">
  <g transform="matrix(1.0, 0.0, 0.0, 1.0, 20.6, 4.25)">
    <path d="M-6.1 36.35 Q-4.5 31.2 -4.5 30.5 L-6.55 31.25 -8.0 31.35 -4.6 29.1 -2.75 26.75 -0.75 28.5 Q1.1 29.95 2.35 29.95 4.2 29.95 6.45 28.9 L8.05 27.25 Q9.75 25.6 10.35 25.6 L11.45 26.15 13.05 26.7 Q14.8 26.7 16.3 25.45 18.25 23.85 18.25 20.95 15.75 12.25 13.95 8.65 L11.75 4.7 Q9.55 1.5 8.3 0.45 L1.55 -4.2 Q10.2 -2.05 15.55 7.8 19.8 15.55 19.8 22.2 19.8 26.0 16.75 27.6 15.4 28.3 13.75 28.3 L10.9 28.1 8.0 30.85 7.15 31.4 6.0 31.65 1.0 31.1 Q-1.4 30.55 -2.75 29.6 -4.75 33.2 -4.75 36.15 L-6.1 36.35 M-4.35 -3.95 Q-6.6 -2.4 -9.9 0.95 -12.75 3.85 -13.2 4.65 L-16.5 8.65 Q-19.5 12.35 -19.55 13.6 -20.5 13.3 -20.6 12.85 L-20.6 12.8 Q-20.65 10.65 -15.6 5.35 -10.35 -0.15 -4.35 -3.95 M-14.1 15.0 L-13.15 15.2 -11.7 8.65 -12.55 15.45 -14.1 15.0 M-12.85 17.8 L-14.05 26.95 Q-14.3 28.85 -15.8 34.25 -16.85 33.4 -16.6 32.45 L-15.8 28.25 -15.75 28.25 -12.85 17.8" fill="#0d0d0d" fill-rule="evenodd" stroke="none"/>
    <path d="M5.25 0.1 L4.2 -1.15 Q3.55 -1.85 2.9 -1.85 L-0.35 -1.2 Q-3.25 -0.4 -4.45 0.4 -8.65 3.35 -10.2 7.85 -11.3 11.15 -11.5 17.65 L-11.85 21.2 -12.15 23.55 -11.9 26.85 Q-11.45 27.95 -9.4 27.95 -7.35 27.95 -5.3 26.05 -3.7 24.5 -3.4 23.4 -3.95 23.35 -2.95 23.35 L-1.15 25.2 Q0.95 27.05 2.85 27.05 4.1 27.05 5.45 26.15 7.0 25.05 7.5 23.4 L6.25 16.9 6.1 16.15 Q7.4 20.25 9.5 22.2 11.0 23.6 12.3 23.6 13.15 23.85 14.05 22.45 14.95 22.45 15.65 21.9 16.3 21.35 16.3 20.6 16.3 19.8 15.7 19.25 15.05 18.65 14.1 18.7 L11.45 12.4 8.7 6.25 8.7 6.2 9.05 4.0 Q9.05 1.15 5.25 0.1 M1.55 -4.2 L8.3 0.45 Q9.55 1.5 11.75 4.7 L13.95 8.65 Q15.75 12.25 18.25 20.95 18.25 23.85 16.3 25.45 14.8 26.7 13.05 26.7 L11.45 26.15 10.35 25.6 Q9.75 25.6 8.05 27.25 L6.45 28.9 Q4.2 29.95 2.35 29.95 1.1 29.95 -0.75 28.5 L-2.75 26.75 -4.6 29.1 -8.0 31.35 -6.55 31.25 -4.5 30.5 Q-4.5 31.2 -6.1 36.35 L-7.9 36.6 Q-7.65 35.0 -8.2 33.95 -8.85 32.7 -10.6 32.7 -11.9 32.7 -14.5 35.1 L-15.8 34.25 Q-14.3 28.85 -14.05 26.95 L-12.85 17.8 -12.25 15.5 -12.55 15.45 -11.7 8.65 -13.15 15.2 -14.1 15.0 -19.55 13.6 Q-19.5 12.35 -16.5 8.65 L-13.2 4.65 Q-12.75 3.85 -9.9 0.95 -6.6 -2.4 -4.35 -3.95 L1.55 -4.2 M-13.05 11.05 L-12.35 4.95 -18.15 11.95 -17.55 12.4 -15.5 12.4 Q-13.5 12.55 -13.05 11.05" fill="#1e1e1e" fill-rule="evenodd" stroke="none"/>
    <path d="M14.05 22.45 Q13.15 23.85 12.3 23.6 11.0 23.6 9.5 22.2 7.4 20.25 6.1 16.15 L6.25 16.9 7.5 23.4 Q7.0 25.05 5.45 26.15 4.1 27.05 2.85 27.05 0.95 27.05 -1.15 25.2 L-2.95 23.35 Q-3.95 23.35 -3.4 23.4 -3.7 24.5 -5.3 26.05 -7.35 27.95 -9.4 27.95 -11.45 27.95 -11.9 26.85 L-12.15 23.55 -11.85 21.2 -11.5 17.65 Q-11.3 11.15 -10.2 7.85 -8.65 3.35 -4.45 0.4 -3.25 -0.4 -0.35 -1.2 L2.9 -1.85 Q3.55 -1.85 4.2 -1.15 L5.25 0.1 5.2 0.1 2.7 -0.2 -0.5 0.2 Q-3.1 0.65 -3.55 1.1 -4.3 1.85 -4.65 3.35 L-4.7 3.65 Q-6.5 5.65 -8.1 8.45 -11.1 13.8 -11.1 18.95 -11.1 19.45 -10.65 19.65 -10.2 19.8 -10.2 20.3 -10.2 21.05 -10.9 21.85 -11.6 22.65 -11.6 23.35 -11.6 24.05 -10.95 24.6 L-9.95 25.25 Q-8.65 26.75 -8.1 26.75 -7.25 26.75 -6.85 26.15 -6.55 25.8 -6.2 24.6 -5.65 22.5 -5.95 21.5 -6.4 20.2 -8.3 20.0 L-7.9 19.55 -7.55 19.25 -6.85 19.15 Q-4.2 20.55 -3.4 20.55 0.6 20.55 2.45 15.8 3.5 13.2 3.65 10.35 L6.3 8.55 8.7 6.25 11.45 12.4 14.1 18.7 Q12.5 19.95 12.5 20.55 12.5 21.2 14.05 22.45 M-14.5 35.1 Q-11.9 32.7 -10.6 32.7 -8.85 32.7 -8.2 33.95 -7.65 35.0 -7.9 36.6 L-11.55 36.4 Q-12.85 36.05 -14.5 35.1 M7.2 13.15 Q7.55 14.7 8.35 16.35 9.55 18.95 10.8 18.95 11.45 18.95 11.55 18.6 L11.55 17.3 Q11.7 16.75 10.4 14.65 8.9 12.3 7.45 11.9 L7.2 13.15 M4.5 22.8 Q4.3 21.35 3.7 20.4 2.9 19.2 1.65 19.2 0.0 19.2 -0.75 20.3 -1.25 21.0 -1.25 21.75 L-0.8 23.0 Q0.0 24.2 1.85 24.65 3.15 26.45 3.75 26.45 4.55 26.45 5.1 25.9 5.65 25.35 5.65 24.55 5.65 23.9 5.3 23.45 L4.5 22.8 M-13.05 11.05 Q-13.5 12.55 -15.5 12.4 L-17.55 12.4 -18.15 11.95 -12.35 4.95 -13.05 11.05" fill="#272727" fill-rule="evenodd" stroke="none"/>
    <path d="M3.65 10.35 Q3.5 13.2 2.45 15.8 0.6 20.55 -3.4 20.55 -4.2 20.55 -6.85 19.15 L-7.55 19.25 -7.9 19.55 -8.3 20.0 Q-6.4 20.2 -5.95 21.5 -5.65 22.5 -6.2 24.6 -7.45 22.95 -8.1 22.95 L-8.8 23.35 Q-9.55 23.95 -9.95 25.2 L-9.95 25.25 -10.95 24.6 Q-11.6 24.05 -11.6 23.35 -11.6 22.65 -10.9 21.85 -10.2 21.05 -10.2 20.3 -10.2 19.8 -10.65 19.65 -11.1 19.45 -11.1 18.95 -11.1 13.8 -8.1 8.45 -6.5 5.65 -4.7 3.65 -4.45 7.65 -2.2 9.2 -0.3 10.5 3.65 10.35 M7.2 13.15 L7.45 11.9 Q8.9 12.3 10.4 14.65 11.7 16.75 11.55 17.3 L11.55 18.6 Q11.45 18.95 10.8 18.95 9.55 18.95 8.35 16.35 7.55 14.7 7.2 13.15 M4.5 22.8 Q3.4 22.8 2.65 23.35 1.85 23.9 1.85 24.65 0.0 24.2 -0.8 23.0 L-1.25 21.75 Q-1.25 21.0 -0.75 20.3 0.0 19.2 1.65 19.2 2.9 19.2 3.7 20.4 4.3 21.35 4.5 22.8" fill="#3e3e3e" fill-rule="evenodd" stroke="none"/>
    <path d="M-4.7 3.65 L-4.65 3.35 -3.85 3.2 Q-3.4 3.2 0.45 8.55 L0.0 3.75 0.15 3.15 Q0.35 2.9 0.85 2.85 2.3 4.35 2.75 5.5 3.2 6.75 3.65 10.35 -0.3 10.5 -2.2 9.2 -4.45 7.65 -4.7 3.65 M4.85 7.55 L4.25 7.75 Q3.9 7.75 3.7 7.55 L3.45 6.95 Q3.45 6.6 3.7 6.4 3.9 6.15 4.25 6.15 4.6 6.15 4.85 6.4 L5.05 6.95 4.85 7.55 M1.85 24.65 Q1.85 23.9 2.65 23.35 3.4 22.8 4.5 22.8 4.5 23.55 3.75 24.1 2.95 24.65 1.85 24.65 M-9.95 25.2 Q-9.55 23.95 -8.8 23.35 L-8.1 22.95 Q-7.45 22.95 -6.2 24.6 -6.8 25.2 -8.2 25.35 L-9.95 25.2" fill="#d99567" fill-rule="evenodd" stroke="none"/>
    <path d="M14.05 22.45 Q12.5 21.2 12.5 20.55 12.5 19.95 14.1 18.7 14.3 19.7 14.6 20.35 L14.05 22.45 M8.7 6.25 L6.3 8.55 3.65 10.35 Q3.2 6.75 2.75 5.5 2.3 4.35 0.85 2.85 0.35 2.9 0.15 3.15 L0.0 3.75 0.45 8.55 Q-3.4 3.2 -3.85 3.2 L-4.65 3.35 Q-4.3 1.85 -3.55 1.1 -3.1 0.65 -0.5 0.2 L2.7 -0.2 5.2 0.1 Q7.3 3.2 8.7 6.2 L8.7 6.25 M-6.2 24.6 Q-6.55 25.8 -6.85 26.15 -7.25 26.75 -8.1 26.75 -8.65 26.75 -9.95 25.25 L-9.95 25.2 -8.2 25.35 Q-6.8 25.2 -6.2 24.6 M4.85 7.55 L5.05 6.95 4.85 6.4 Q4.6 6.15 4.25 6.15 3.9 6.15 3.7 6.4 3.45 6.6 3.45 6.95 L3.7 7.55 Q3.9 7.75 4.25 7.75 L4.85 7.55 M1.85 24.65 Q2.95 24.65 3.75 24.1 4.5 23.55 4.5 22.8 L5.3 23.45 Q5.65 23.9 5.65 24.55 5.65 25.35 5.1 25.9 4.55 26.45 3.75 26.45 3.15 26.45 1.85 24.65 M-14.5 35.1 Q-12.85 36.05 -11.55 36.4 L-7.9 36.6 -9.7 44.3 Q-10.7 47.05 -12.9 47.05 -14.65 47.05 -15.7 45.65 -16.6 44.45 -16.6 42.95 -16.6 41.7 -15.95 39.2 -15.25 36.5 -14.5 35.1" fill="#d08857" fill-rule="evenodd" stroke="none"/>
    <path d="M5.2 0.1 L5.25 0.1 Q9.05 1.15 9.05 4.0 L8.7 6.2 Q7.3 3.2 5.2 0.1 M-19.55 13.6 L-14.1 15.0 -15.75 15.05 Q-13.95 15.75 -13.4 16.15 L-14.8 22.45 Q-17.5 20.85 -19.55 13.6 M-15.8 34.25 L-14.5 35.1 Q-15.25 36.5 -15.95 39.2 -16.6 41.7 -16.6 42.95 -16.6 44.45 -15.7 45.65 -14.65 47.05 -12.9 47.05 -10.7 47.05 -9.7 44.3 L-7.9 36.6 -6.1 36.35 Q-7.25 44.0 -8.55 47.0 -10.4 51.3 -14.0 51.3 -16.15 51.3 -17.45 50.0 -18.85 48.6 -18.85 46.05 -18.85 44.6 -18.15 42.35 L-15.8 34.25 M14.05 22.45 L14.6 20.35 Q14.3 19.7 14.1 18.7 15.05 18.65 15.7 19.25 16.3 19.8 16.3 20.6 16.3 21.35 15.65 21.9 14.95 22.45 14.05 22.45" fill="#bd7543" fill-rule="evenodd" stroke="none"/>
    <path d="M-12.55 15.45 L-12.25 15.5 -12.85 17.8 -15.75 28.25 -15.8 28.25 Q-14.7 24.25 -15.5 23.45 -17.45 21.55 -17.85 20.55 L-20.6 12.85 Q-20.5 13.3 -19.55 13.6 -17.5 20.85 -14.8 22.45 L-13.4 16.15 Q-13.95 15.75 -15.75 15.05 L-14.1 15.0 -12.55 15.45 M-6.1 36.35 L-4.75 36.15 Q-6.25 45.25 -7.5 47.9 -9.5 52.25 -14.2 52.25 -18.0 52.25 -19.3 50.3 -20.15 49.05 -20.15 46.2 -20.15 44.45 -19.0 40.35 L-16.6 32.45 Q-16.85 33.4 -15.8 34.25 L-18.15 42.35 Q-18.85 44.6 -18.85 46.05 -18.85 48.6 -17.45 50.0 -16.15 51.3 -14.0 51.3 -10.4 51.3 -8.55 47.0 -7.25 44.0 -6.1 36.35" fill="#7d4a27" fill-rule="evenodd" stroke="none"/>
  </g>
</svg>
