<?xml version="1.0" encoding="UTF-8" standalone="no"?>
<svg xmlns:ffdec="https://www.free-decompiler.com/flash" xmlns:xlink="http://www.w3.org/1999/xlink" ffdec:objectType="shape" height="61.6px" width="40.55px" xmlns="http://www.w3.org/2000/svg">
  <g transform="matrix(1.0, 0.0, 0.0, 1.0, 10.4, 9.15)">
    <path d="M-4.95 -9.15 L-2.3 -8.85 Q-1.45 -8.55 0.65 -6.95 2.15 -5.8 3.4 -3.45 L17.85 23.55 17.15 23.75 Q11.9 14.2 7.3 6.6 0.3 -5.0 -1.25 -5.0 -4.05 -5.0 -4.75 -3.25 L-5.0 -0.5 Q-5.0 5.75 8.6 28.05 L6.95 29.45 Q0.4 18.25 -6.3 7.75 -9.65 2.05 -9.65 -2.05 -9.65 -5.05 -8.55 -6.85 L-8.5 -6.95 -6.8 -8.05 -4.95 -9.15" fill="#f1b67a" fill-rule="evenodd" stroke="none"/>
    <path d="M17.85 23.55 L3.4 -3.45 Q2.15 -5.8 0.65 -6.95 -1.45 -8.55 -2.3 -8.85 L-4.95 -9.15 -1.95 -8.9 Q0.6 -8.6 0.6 -8.2 0.6 -7.65 2.2 -6.45 L4.6 -4.3 19.35 23.25 17.85 23.55 M-8.55 -6.85 Q-9.65 -5.05 -9.65 -2.05 -9.65 2.05 -6.3 7.75 0.4 18.25 6.95 29.45 L5.8 30.5 -6.3 9.8 -7.95 6.7 -9.4 3.15 Q-10.4 0.2 -10.4 -1.05 -10.4 -3.35 -9.8 -4.75 L-8.55 -6.85" fill="#aa6a40" fill-rule="evenodd" stroke="none"/>
    <path d="M8.6 28.05 Q-5.0 5.75 -5.0 -0.5 L-4.75 -3.25 Q-4.05 -5.0 -1.25 -5.0 0.3 -5.0 7.3 6.6 11.9 14.2 17.15 23.75 L14.65 24.55 7.7 11.05 Q3.7 3.05 0.55 1.6 L-0.05 2.4 Q-0.5 3.25 -0.5 4.55 -0.5 8.9 3.8 15.85 L10.5 26.7 8.6 28.05" fill="#ffce9d" fill-rule="evenodd" stroke="none"/>
    <path d="M10.5 26.7 L3.8 15.85 Q-0.5 8.9 -0.5 4.55 -0.5 3.25 -0.05 2.4 L0.55 1.6 Q3.7 3.05 7.7 11.05 L14.65 24.55 Q12.55 25.55 10.5 26.7" fill="#ffdfbf" fill-rule="evenodd" stroke="none"/>
    <path d="M17.85 23.55 L19.35 23.25 22.05 28.2 20.5 28.45 17.85 23.55 M8.8 35.55 L5.8 30.5 6.95 29.45 9.85 34.35 8.8 35.55 M10.95 39.2 L12.1 38.15 14.7 42.6 13.65 43.8 10.95 39.2 M15.85 47.45 L16.95 46.45 Q17.65 47.6 18.2 49.55 19.1 50.95 22.9 50.95 25.3 50.95 26.95 49.3 28.65 47.6 28.65 45.1 L27.05 40.95 28.5 40.6 28.55 40.6 28.95 41.5 30.05 44.65 30.15 45.05 Q30.15 48.9 27.5 50.9 25.5 52.45 22.9 52.45 20.0 52.45 18.4 50.85 L15.85 47.45 M25.05 36.9 L25.0 36.9 22.65 32.45 24.15 32.15 26.55 36.65 25.05 36.9" fill="#20120b" fill-rule="evenodd" stroke="none"/>
    <path d="M14.65 24.55 L17.15 23.75 19.55 28.65 17.3 29.3 14.65 24.55 M19.5 33.5 L21.25 32.85 23.3 37.3 21.55 37.9 19.5 33.5 M10.5 26.7 Q11.2 27.25 11.95 28.75 L13.2 31.45 11.45 32.75 8.6 28.05 10.5 26.7 M13.8 36.75 L15.5 35.55 16.95 37.15 19.0 39.15 16.7 40.75 13.8 36.75 M19.85 44.2 Q22.45 42.7 25.15 41.55 25.9 43.2 25.25 44.5 24.6 45.75 23.1 45.75 L21.9 45.3 19.85 44.2" fill="#764127" fill-rule="evenodd" stroke="none"/>
    <path d="M13.2 31.45 L11.95 28.75 Q11.2 27.25 10.5 26.7 12.55 25.55 14.65 24.55 L17.3 29.3 Q15.2 30.25 13.2 31.45 M15.5 35.55 Q17.45 34.45 19.5 33.5 L21.55 37.9 19.0 39.15 16.95 37.15 15.5 35.55" fill="#8b4d2e" fill-rule="evenodd" stroke="none"/>
    <path d="M6.95 29.45 L8.6 28.05 11.45 32.75 9.85 34.35 6.95 29.45 M17.15 23.75 L17.85 23.55 20.5 28.45 19.55 28.65 17.15 23.75 M23.3 37.3 L21.25 32.85 22.65 32.45 25.0 36.9 23.3 37.3 M14.7 42.6 L12.1 38.15 13.8 36.75 16.7 40.75 14.7 42.6 M27.05 40.95 L28.65 45.1 Q28.65 47.6 26.95 49.3 25.3 50.95 22.9 50.95 19.1 50.95 18.2 49.55 17.65 47.6 16.95 46.45 L19.85 44.2 21.9 45.3 23.1 45.75 Q24.6 45.75 25.25 44.5 25.9 43.2 25.15 41.55 L27.05 40.95" fill="#59311e" fill-rule="evenodd" stroke="none"/>
    <path d="M17.3 29.3 L19.55 28.65 21.25 32.85 19.5 33.5 17.3 29.3 M11.45 32.75 L13.2 31.45 15.5 35.55 13.8 36.75 11.45 32.75 M16.7 40.75 L19.0 39.15 19.85 39.5 20.8 39.6 21.55 39.5 21.55 37.9 23.3 37.3 25.15 41.55 Q22.45 42.7 19.85 44.2 L16.7 40.75" fill="#f776fa" fill-rule="evenodd" stroke="none"/>
    <path d="M17.3 29.3 L19.5 33.5 Q17.45 34.45 15.5 35.55 L13.2 31.45 Q15.2 30.25 17.3 29.3 M19.0 39.15 L21.55 37.9 21.55 39.5 20.8 39.6 19.85 39.5 19.0 39.15" fill="#fa98fc" fill-rule="evenodd" stroke="none"/>
    <path d="M8.8 35.55 L9.85 34.35 12.1 38.15 10.95 39.2 8.8 35.55 M22.65 32.45 L20.5 28.45 22.05 28.2 24.15 32.15 22.65 32.45 M16.95 46.45 L15.85 47.45 13.65 43.8 14.7 42.6 16.95 46.45 M28.5 40.6 L27.05 40.95 25.05 36.9 26.55 36.65 28.5 40.6" fill="#6d126b" fill-rule="evenodd" stroke="none"/>
    <path d="M19.55 28.65 L20.5 28.45 22.65 32.45 21.25 32.85 19.55 28.65 M11.45 32.75 L13.8 36.75 12.1 38.15 9.85 34.35 11.45 32.75 M14.7 42.6 L16.7 40.75 19.85 44.2 16.95 46.45 14.7 42.6 M25.15 41.55 L23.3 37.3 25.0 36.9 25.05 36.9 27.05 40.95 25.15 41.55" fill="#f73ef7" fill-rule="evenodd" stroke="none"/>
  </g>
</svg>
