<?xml version="1.0" encoding="UTF-8" standalone="no"?>
<svg xmlns:ffdec="https://www.free-decompiler.com/flash" xmlns:xlink="http://www.w3.org/1999/xlink" ffdec:objectType="shape" height="13.15px" width="13.0px" xmlns="http://www.w3.org/2000/svg">
  <g transform="matrix(1.0, 0.0, 0.0, 1.0, -9.5, 16.6)">
    <path d="M20.0 -16.5 L20.0 -16.45 Q22.15 -15.6 22.4 -13.15 22.8 -10.7 21.2 -8.8 L19.4 -6.75 17.5 -4.25 Q16.6 -3.0 15.4 -3.7 L15.25 -3.85 11.4 -7.9 Q9.9 -9.3 9.6 -11.3 9.3 -13.0 10.15 -14.65 10.45 -15.45 11.1 -16.0 L11.05 -16.05 12.4 -16.45 Q14.6 -16.7 15.95 -15.05 16.3 -15.45 16.9 -15.85 L16.95 -15.85 Q17.55 -16.35 18.3 -16.55 L18.35 -16.55 20.0 -16.5 M15.15 -14.4 Q14.15 -15.65 12.5 -15.45 L12.4 -15.45 11.75 -15.25 11.7 -15.25 11.05 -14.2 Q10.25 -12.9 10.55 -11.5 10.85 -9.8 12.1 -8.65 L16.0 -4.4 16.1 -4.45 Q16.4 -4.45 16.65 -4.8 L18.65 -7.45 20.5 -9.45 20.5 -9.4 Q21.8 -11.0 21.45 -13.0 L21.4 -13.05 Q21.15 -14.9 19.6 -15.55 L19.65 -15.55 18.5 -15.6 18.55 -15.6 Q18.0 -15.45 17.5 -15.1 L17.5 -15.05 16.3 -13.85 16.05 -13.7 15.75 -13.7 15.45 -13.9 15.15 -14.4" fill="#525252" fill-rule="evenodd" stroke="none"/>
    <path d="M16.1 -4.45 L16.0 -4.4 12.1 -8.65 Q10.85 -9.8 10.55 -11.5 10.25 -12.9 11.05 -14.2 L11.7 -15.25 11.75 -15.25 12.4 -15.45 12.5 -15.45 Q14.15 -15.65 15.15 -14.4 L15.25 -13.45 16.1 -4.75 16.1 -4.45" fill="#ebebeb" fill-rule="evenodd" stroke="none"/>
    <path d="M15.15 -14.4 L15.45 -13.9 15.75 -13.7 16.05 -13.7 16.3 -13.85 17.5 -15.05 17.5 -15.1 Q18.0 -15.45 18.55 -15.6 L18.5 -15.6 19.65 -15.55 19.6 -15.55 Q21.15 -14.9 21.4 -13.05 L21.45 -13.0 Q21.8 -11.0 20.5 -9.4 L20.5 -9.45 18.65 -7.45 16.65 -4.8 Q16.4 -4.45 16.1 -4.45 L16.1 -4.75 15.25 -13.45 15.15 -14.4" fill="#d1d1d1" fill-rule="evenodd" stroke="none"/>
  </g>
</svg>
