<?xml version="1.0" encoding="UTF-8" standalone="no"?>
<svg xmlns:ffdec="https://www.free-decompiler.com/flash" xmlns:xlink="http://www.w3.org/1999/xlink" ffdec:objectType="shape" height="7.65px" width="8.35px" xmlns="http://www.w3.org/2000/svg">
  <g transform="matrix(1.0, 0.0, 0.0, 1.0, 17.7, 8.05)">
    <path d="M-17.65 -8.05 L-9.4 -7.6 -9.45 -7.1 -9.45 -7.05 -9.35 -4.55 -9.4 -4.3 -9.6 -4.1 -9.9 -4.05 -11.95 -4.25 -12.85 -0.75 -13.05 -0.45 -13.4 -0.4 -15.65 -0.7 Q-15.85 -0.7 -15.95 -0.85 L-16.1 -1.15 -16.35 -4.7 -17.2 -4.8 Q-17.4 -4.8 -17.5 -4.95 L-17.55 -4.95 -17.65 -5.3 -17.7 -7.5 -17.7 -7.6 -17.7 -7.65 -17.65 -7.75 -17.65 -8.05 M-16.65 -5.75 L-15.85 -5.65 -12.3 -5.3 -10.35 -5.1 -10.4 -6.6 -16.65 -7.05 -16.65 -5.75 M-13.7 -1.45 L-13.6 -1.85 -13.6 -1.8 -12.95 -4.35 -15.35 -4.6 -15.25 -2.55 -15.2 -2.8 -15.1 -1.65 -13.7 -1.45" fill="#464646" fill-rule="evenodd" stroke="none"/>
    <path d="M-13.7 -1.45 L-15.1 -1.65 -15.2 -2.8 -15.25 -2.55 -15.35 -4.6 -12.95 -4.35 -13.6 -1.8 -13.6 -1.85 -13.7 -1.45" fill="#8a8a8a" fill-rule="evenodd" stroke="none"/>
    <path d="M-16.65 -5.75 L-16.65 -7.05 -10.4 -6.6 -10.35 -5.1 -12.3 -5.3 -15.85 -5.65 -16.65 -5.75" fill="#b4b4b4" fill-rule="evenodd" stroke="none"/>
  </g>
</svg>
