<?xml version="1.0" encoding="UTF-8" standalone="no"?>
<svg xmlns:ffdec="https://www.free-decompiler.com/flash" xmlns:xlink="http://www.w3.org/1999/xlink" ffdec:objectType="shape" height="76.5px" width="127.55px" xmlns="http://www.w3.org/2000/svg">
  <g transform="matrix(1.0, 0.0, 0.0, 1.0, 3.5, 11.75)">
    <path d="M16.35 3.5 L17.85 3.5 Q18.5 11.0 17.0 18.85 L16.55 20.9 15.05 26.6 15.05 26.55 Q9.95 43.95 -2.25 54.4 L-2.75 54.55 -3.25 54.4 -3.5 53.9 -3.35 53.4 Q2.1 44.9 4.2 36.4 1.75 39.3 -0.15 39.6 L-0.65 39.5 -1.0 39.15 -1.0 38.6 Q5.55 19.65 1.85 3.5 L3.4 3.5 Q4.5 8.65 4.65 14.1 4.65 20.05 3.8 25.95 2.95 31.8 0.95 37.45 L3.3 35.1 4.7 33.0 Q6.65 29.8 8.05 25.55 L9.05 22.25 8.95 22.85 8.45 26.05 8.25 27.1 8.2 27.15 8.2 27.1 Q7.5 30.25 6.4 33.25 5.75 37.1 4.45 40.95 L0.6 49.6 4.0 45.35 Q8.1 40.1 10.9 33.7 12.45 30.1 13.6 26.15 L14.25 23.85 15.45 19.1 15.45 18.95 15.5 18.8 16.35 12.8 Q16.75 8.05 16.35 3.5" fill="#311b09" fill-rule="evenodd" stroke="none"/>
    <path d="M16.35 3.5 Q16.75 8.05 16.35 12.8 L15.5 18.8 15.45 18.95 15.45 19.1 14.25 23.85 13.6 26.15 Q12.45 30.1 10.9 33.7 12.2 30.2 13.0 26.15 13.8 22.05 14.1 16.85 14.4 11.65 13.0 6.15 L12.55 5.9 Q12.0 9.5 11.75 13.25 11.35 20.4 9.6 27.3 7.75 34.4 4.45 40.95 5.75 37.1 6.4 33.25 7.5 30.25 8.2 27.1 L8.2 27.15 8.25 27.1 8.45 26.05 8.95 22.85 9.05 22.25 8.05 25.55 Q6.65 29.8 4.7 33.0 L3.3 35.1 4.55 31.7 Q6.65 25.8 7.35 19.6 8.15 12.15 7.0 4.75 L6.65 3.5 16.35 3.5 M4.65 14.1 Q4.5 8.65 3.4 3.5 L5.45 3.5 4.65 14.1" fill="#4e2b0e" fill-rule="evenodd" stroke="none"/>
    <path d="M10.9 33.7 Q8.1 40.1 4.0 45.35 L0.6 49.6 4.45 40.95 Q7.75 34.4 9.6 27.3 11.35 20.4 11.75 13.25 12.0 9.5 12.55 5.9 L13.0 6.15 Q14.4 11.65 14.1 16.85 13.8 22.05 13.0 26.15 12.2 30.2 10.9 33.7 M3.3 35.1 L0.95 37.45 Q2.95 31.8 3.8 25.95 4.65 20.05 4.65 14.1 L5.45 3.5 6.65 3.5 7.0 4.75 Q8.15 12.15 7.35 19.6 6.65 25.8 4.55 31.7 L3.3 35.1" fill="#5e3310" fill-rule="evenodd" stroke="none"/>
    <path d="M97.8 -11.75 Q110.25 -11.75 117.9 -0.45 125.4 10.75 123.75 26.6 122.15 42.35 112.45 53.5 102.55 64.8 90.2 64.75 L86.6 64.5 86.15 64.25 85.95 63.8 86.1 63.3 Q86.25 63.1 86.5 63.05 93.4 61.2 99.25 53.45 L102.4 48.6 Q97.85 52.7 92.95 53.25 L92.5 53.2 92.2 52.85 92.1 52.45 92.3 52.05 94.35 49.1 Q99.15 41.3 98.7 30.3 L98.3 25.85 95.3 30.75 94.95 31.05 94.45 31.1 94.05 30.8 93.9 30.35 93.9 28.9 Q93.7 22.0 89.8 17.15 86.0 12.5 80.9 12.35 L80.55 12.25 80.3 12.05 Q76.8 6.95 77.05 3.35 L77.2 -3.15 77.3 -3.5 77.5 -3.75 Q79.3 -5.05 81.25 -5.85 L81.3 -5.85 Q88.9 -11.75 97.8 -11.75 M109.8 21.5 L109.8 25.25 Q109.75 29.9 108.85 34.55 108.05 38.85 106.65 42.9 105.1 47.3 102.5 51.45 L102.3 51.7 100.45 54.35 Q95.7 60.65 90.3 63.25 101.95 63.2 111.3 52.5 116.65 46.3 119.5 38.65 L119.55 38.6 119.85 37.35 Q121.65 33.45 122.05 28.15 L122.25 26.45 122.55 22.45 122.55 22.35 Q122.75 12.75 119.25 5.1 L119.25 5.0 118.65 3.8 116.65 0.4 Q109.45 -10.25 97.8 -10.25 92.0 -10.25 86.75 -7.55 85.4 -7.3 84.5 -6.55 L81.1 -4.15 78.7 -2.75 78.6 2.4 Q78.65 6.85 81.35 10.9 86.85 11.15 90.95 16.2 94.9 21.05 95.35 27.75 L97.9 23.6 Q96.5 16.75 92.55 8.8 L92.3 8.4 92.35 8.45 93.95 10.55 94.0 10.55 Q95.95 13.35 97.3 16.55 98.7 19.85 99.45 23.6 L99.45 23.7 Q100.05 26.8 100.2 30.25 100.65 41.45 95.95 49.45 L95.65 49.9 94.7 51.35 95.4 51.15 96.1 50.9 96.15 50.85 Q100.5 49.05 104.6 44.05 L106.0 40.05 Q107.7 34.6 109.1 27.05 L109.35 25.5 109.8 21.5" fill="#311b09" fill-rule="evenodd" stroke="none"/>
    <path d="M102.3 51.7 L101.8 52.5 103.45 50.35 Q106.4 46.7 108.25 42.25 110.6 36.7 111.8 30.65 112.8 25.7 112.25 20.85 L111.0 12.15 Q110.0 6.3 107.2 0.9 L110.25 3.1 Q113.25 5.5 114.85 9.05 116.7 13.3 117.45 17.75 L117.75 16.2 Q118.35 13.55 118.25 10.8 L120.5 19.95 Q121.45 24.25 121.1 28.75 120.75 33.1 119.85 37.35 L119.55 38.6 119.5 38.65 Q116.65 46.3 111.3 52.5 101.95 63.2 90.3 63.25 95.7 60.65 100.45 54.35 L102.3 51.7 M113.25 11.3 L114.05 24.15 113.85 28.7 113.2 34.1 112.35 37.75 112.15 38.35 110.5 43.0 108.35 47.25 108.1 47.65 108.05 47.75 103.65 53.9 97.25 60.5 97.25 60.65 97.4 60.65 100.7 58.95 106.6 54.6 108.6 52.55 109.0 52.1 111.35 49.2 111.5 48.9 111.7 48.65 112.75 46.95 112.95 46.7 115.1 42.1 116.0 39.45 116.35 38.15 117.35 32.1 117.35 31.4 117.4 31.1 117.45 28.8 117.3 26.3 116.75 21.7 115.3 16.15 114.4 13.5 113.4 11.25 113.3 11.2 Q113.15 11.2 113.25 11.3 M97.25 5.35 L97.25 5.25 97.4 5.2 98.1 5.65 98.2 5.75 98.3 5.8 98.6 6.0 100.6 7.8 102.55 10.1 102.7 10.4 103.3 11.25 104.25 13.05 105.45 16.1 106.25 19.6 106.25 19.8 106.3 20.0 106.55 23.1 106.55 23.9 106.5 24.25 106.5 25.4 105.55 31.25 105.4 31.75 105.35 32.0 104.6 34.3 104.0 35.6 103.95 35.65 103.85 35.55 103.6 22.55 103.45 21.1 103.3 20.4 103.3 20.2 103.25 20.05 102.95 18.25 102.85 17.9 102.8 17.55 102.6 16.9 102.55 16.55 101.8 14.05 101.7 13.9 101.4 12.95 101.25 12.65 101.15 12.35 100.9 11.8 100.85 11.65 100.75 11.5 100.65 11.2 99.85 9.65 99.75 9.4 99.25 8.5 99.1 8.3 98.55 7.3 98.4 7.15 97.85 6.25 97.8 6.15 97.7 6.05 97.25 5.35" fill="#6f3c13" fill-rule="evenodd" stroke="none"/>
    <path d="M122.05 28.15 Q122.0 23.25 121.25 18.3 120.55 13.55 119.4 9.25 118.2 4.75 115.2 1.15 112.65 -2.05 109.0 -4.0 104.9 -6.1 100.25 -6.75 L93.95 -6.5 Q98.3 -4.85 101.45 -1.25 104.55 2.25 106.6 6.65 108.5 10.75 109.4 15.3 110.0 18.35 109.8 21.5 L109.35 25.5 109.1 27.05 Q107.7 34.6 106.0 40.05 L104.6 44.05 Q100.5 49.05 96.15 50.85 L96.1 50.9 95.4 51.15 94.7 51.35 95.65 49.9 95.95 49.45 Q100.65 41.45 100.2 30.25 100.05 26.8 99.45 23.7 L99.45 23.6 Q98.7 19.85 97.3 16.55 95.95 13.35 94.0 10.55 L93.95 10.55 92.35 8.45 92.3 8.4 92.55 8.8 Q96.5 16.75 97.9 23.6 L95.35 27.75 Q94.9 21.05 90.95 16.2 86.85 11.15 81.35 10.9 78.65 6.85 78.6 2.4 L78.7 -2.75 81.1 -4.15 84.5 -6.55 Q85.4 -7.3 86.75 -7.55 92.0 -10.25 97.8 -10.25 109.45 -10.25 116.65 0.4 L118.65 3.8 119.25 5.0 119.25 5.1 Q122.75 12.75 122.55 22.35 L122.55 22.45 122.25 26.45 122.05 28.15 M108.1 26.35 Q108.1 1.95 88.6 -1.65 L85.9 -1.6 86.5 -1.6 Q89.95 0.15 93.4 4.5 96.6 8.6 98.25 12.5 100.65 18.25 101.3 20.65 102.3 24.15 102.3 28.25 L102.15 33.65 101.2 40.4 Q100.8 43.2 99.15 46.35 L99.65 45.9 Q103.1 42.3 105.45 36.45 L107.45 30.35 107.9 27.35 108.1 26.8 108.1 26.35" fill="#4e2b0e" fill-rule="evenodd" stroke="none"/>
    <path d="M113.25 11.3 Q113.15 11.2 113.3 11.2 L113.4 11.25 114.4 13.5 115.3 16.15 116.75 21.7 117.3 26.3 117.45 28.8 117.4 31.1 117.35 31.4 117.35 32.1 116.35 38.15 116.0 39.45 115.1 42.1 112.95 46.7 112.75 46.95 111.7 48.65 111.5 48.9 111.35 49.2 109.0 52.1 108.6 52.55 106.6 54.6 100.7 58.95 97.4 60.65 97.25 60.65 97.25 60.5 103.65 53.9 108.05 47.75 108.1 47.65 108.35 47.25 110.5 43.0 112.15 38.35 112.35 37.75 113.2 34.1 113.85 28.7 114.05 24.15 113.25 11.3" fill="#8f4e18" fill-rule="evenodd" stroke="none"/>
    <path d="M109.8 21.5 Q110.0 18.35 109.4 15.3 108.5 10.75 106.6 6.65 104.55 2.25 101.45 -1.25 98.3 -4.85 93.95 -6.5 L100.25 -6.75 Q104.9 -6.1 109.0 -4.0 112.65 -2.05 115.2 1.15 118.2 4.75 119.4 9.25 120.55 13.55 121.25 18.3 122.0 23.25 122.05 28.15 121.65 33.45 119.85 37.35 120.75 33.1 121.1 28.75 121.45 24.25 120.5 19.95 L118.25 10.8 Q118.35 13.55 117.75 16.2 L117.45 17.75 Q116.7 13.3 114.85 9.05 113.25 5.5 110.25 3.1 L107.2 0.9 Q110.0 6.3 111.0 12.15 L112.25 20.85 Q112.8 25.7 111.8 30.65 110.6 36.7 108.25 42.25 106.4 46.7 103.45 50.35 L101.8 52.5 102.3 51.7 102.5 51.45 Q105.1 47.3 106.65 42.9 108.05 38.85 108.85 34.55 109.75 29.9 109.8 25.25 L109.8 21.5 M108.1 26.35 L108.1 26.8 107.9 27.35 107.45 30.35 105.45 36.45 Q103.1 42.3 99.65 45.9 L99.15 46.35 Q100.8 43.2 101.2 40.4 L102.15 33.65 102.3 28.25 Q102.3 24.15 101.3 20.65 100.65 18.25 98.25 12.5 96.6 8.6 93.4 4.5 89.95 0.15 86.5 -1.6 L85.9 -1.6 88.6 -1.65 Q108.1 1.95 108.1 26.35 M97.25 5.35 L97.7 6.05 97.8 6.15 97.85 6.25 98.4 7.15 98.55 7.3 99.1 8.3 99.25 8.5 99.75 9.4 99.85 9.65 100.65 11.2 100.75 11.5 100.85 11.65 100.9 11.8 101.15 12.35 101.25 12.65 101.4 12.95 101.7 13.9 101.8 14.05 102.55 16.55 102.6 16.9 102.8 17.55 102.85 17.9 102.95 18.25 103.25 20.05 103.3 20.2 103.3 20.4 103.45 21.1 103.6 22.55 103.85 35.55 103.95 35.65 104.0 35.6 104.6 34.3 105.35 32.0 105.4 31.75 105.55 31.25 106.5 25.4 106.5 24.25 106.55 23.9 106.55 23.1 106.3 20.0 106.25 19.8 106.25 19.6 105.45 16.1 104.25 13.05 103.3 11.25 102.7 10.4 102.55 10.1 100.6 7.8 98.6 6.0 98.3 5.8 98.2 5.75 98.1 5.65 97.4 5.2 97.25 5.25 97.25 5.35" fill="#5e3310" fill-rule="evenodd" stroke="none"/>
  </g>
</svg>
