<?xml version="1.0" encoding="UTF-8" standalone="no"?>
<svg xmlns:ffdec="https://www.free-decompiler.com/flash" xmlns:xlink="http://www.w3.org/1999/xlink" ffdec:objectType="shape" height="10.9px" width="15.9px" xmlns="http://www.w3.org/2000/svg">
  <g transform="matrix(1.0, 0.0, 0.0, 1.0, 8.0, 5.35)">
    <path d="M4.9 1.3 Q4.95 2.2 4.35 2.95 4.1 3.25 4.15 3.7 4.2 4.1 4.55 4.35 L5.3 4.55 Q5.7 4.5 5.95 4.15 6.95 2.85 6.9 1.25 L6.9 1.2 Q6.9 -1.15 4.75 -2.8 2.75 -4.35 -0.1 -4.35 -2.95 -4.3 -4.95 -2.8 L-4.95 -2.75 Q-6.5 -1.55 -6.9 0.05 L-7.0 0.65 -6.7 1.35 Q-6.4 1.65 -6.0 1.65 L-5.3 1.35 -5.0 0.75 -4.95 0.65 Q-4.75 -0.4 -3.75 -1.2 L-3.7 -1.2 Q-2.2 -2.3 -0.1 -2.35 2.05 -2.35 3.55 -1.2 4.9 -0.2 4.9 1.25 L4.9 1.3 M3.9 1.35 L3.9 1.25 Q3.85 0.3 2.95 -0.4 1.7 -1.35 -0.05 -1.35 L-0.1 -1.35 Q-1.9 -1.3 -3.15 -0.4 L-3.1 -0.45 -4.0 0.85 Q-4.05 1.55 -4.55 2.1 -5.15 2.65 -6.0 2.65 -6.85 2.65 -7.4 2.1 -8.0 1.5 -8.0 0.65 L-7.8 -0.35 Q-7.35 -2.15 -5.6 -3.55 L-5.55 -3.6 Q-3.35 -5.3 -0.15 -5.35 L-0.1 -5.35 Q3.15 -5.35 5.4 -3.55 7.95 -1.6 7.9 1.2 L7.9 1.25 Q7.95 3.15 6.75 4.75 6.25 5.4 5.45 5.55 4.6 5.65 3.95 5.15 3.3 4.65 3.2 3.85 3.05 3.0 3.55 2.35 L3.9 1.35" fill="#1c5834" fill-rule="evenodd" stroke="none"/>
    <path d="M4.0 -1.8 Q4.95 -1.1 5.4 -0.15 L5.5 0.0 5.7 0.0 5.85 -0.15 5.85 -0.35 Q5.35 -1.4 4.3 -2.2 3.2 -3.05 1.85 -3.4 L1.65 -3.35 1.5 -3.2 1.55 -3.0 1.7 -2.9 Q3.0 -2.55 4.0 -1.8 M4.9 1.3 L4.9 1.25 Q4.9 -0.2 3.55 -1.2 2.05 -2.35 -0.1 -2.35 -2.2 -2.3 -3.7 -1.2 L-3.75 -1.2 Q-4.75 -0.4 -4.95 0.65 L-5.0 0.75 -5.3 1.35 -6.0 1.65 Q-6.4 1.65 -6.7 1.35 L-7.0 0.65 -6.9 0.05 Q-6.5 -1.55 -4.95 -2.75 L-4.95 -2.8 Q-2.95 -4.3 -0.1 -4.35 2.75 -4.35 4.75 -2.8 6.9 -1.15 6.9 1.2 L6.9 1.25 Q6.95 2.85 5.95 4.15 5.7 4.5 5.3 4.55 L4.55 4.35 Q4.2 4.1 4.15 3.7 4.1 3.25 4.35 2.95 4.95 2.2 4.9 1.3 M-3.35 -2.25 Q-2.1 -2.95 -0.45 -3.05 L-0.3 -3.1 -0.25 -3.3 -0.3 -3.45 -0.5 -3.55 Q-2.3 -3.45 -3.6 -2.7 L-3.75 -2.55 -3.7 -2.35 -3.55 -2.25 -3.35 -2.25" fill="#2ea85e" fill-rule="evenodd" stroke="none"/>
    <path d="M4.0 -1.8 Q3.0 -2.55 1.7 -2.9 L1.55 -3.0 1.5 -3.2 1.65 -3.35 1.85 -3.4 Q3.2 -3.05 4.3 -2.2 5.35 -1.4 5.85 -0.35 L5.85 -0.15 5.7 0.0 5.5 0.0 5.4 -0.15 Q4.95 -1.1 4.0 -1.8 M-3.35 -2.25 L-3.55 -2.25 -3.7 -2.35 -3.75 -2.55 -3.6 -2.7 Q-2.3 -3.45 -0.5 -3.55 L-0.3 -3.45 -0.25 -3.3 -0.3 -3.1 -0.45 -3.05 Q-2.1 -2.95 -3.35 -2.25" fill="#50eb8d" fill-rule="evenodd" stroke="none"/>
  </g>
</svg>
