<?xml version="1.0" encoding="UTF-8" standalone="no"?>
<svg xmlns:ffdec="https://www.free-decompiler.com/flash" xmlns:xlink="http://www.w3.org/1999/xlink" ffdec:objectType="shape" height="62.65px" width="45.3px" xmlns="http://www.w3.org/2000/svg">
  <g transform="matrix(1.0, 0.0, 0.0, 1.0, 15.5, 11.35)">
    <path d="M5.75 -2.05 Q7.45 -0.15 8.5 2.1 L8.95 3.2 25.8 40.15 Q26.6 42.65 26.6 44.25 26.55 45.9 25.0 47.05 23.4 48.25 21.45 47.55 19.45 46.8 17.15 43.75 L-6.05 14.05 -6.45 13.55 Q-8.0 11.45 -8.75 8.8 L-7.3 8.7 -7.05 8.75 Q-6.35 8.75 -5.8 6.4 -5.3 4.35 -5.3 2.75 L-0.2 2.7 Q0.35 1.65 0.45 -0.05 L0.55 -2.75 2.85 -3.05 5.2 -2.6 5.75 -2.05 M20.8 36.9 Q20.8 33.85 16.6 25.3 L11.35 15.2 6.5 4.35 5.85 2.65 Q5.45 1.8 4.5 1.65 3.6 1.5 2.85 2.4 L1.55 4.05 Q1.15 4.45 -0.9 4.6 -2.5 4.7 -2.8 6.25 L-3.0 9.0 Q-3.0 11.05 -2.15 12.45 L0.5 16.5 3.05 20.35 5.85 24.2 11.75 31.75 14.7 35.65 Q16.75 37.95 19.8 39.0 20.8 38.2 20.8 36.9" fill="#c38145" fill-rule="evenodd" stroke="none"/>
    <path d="M5.75 -2.05 L5.2 -2.6 2.85 -3.05 0.55 -2.75 0.45 -0.05 Q0.35 1.65 -0.2 2.7 L-5.3 2.75 Q-5.3 4.35 -5.8 6.4 -6.35 8.75 -7.05 8.75 L-7.3 8.7 -8.75 8.8 Q-8.0 11.45 -6.45 13.55 L-6.05 14.05 17.15 43.75 Q19.45 46.8 21.45 47.55 23.4 48.25 25.0 47.05 26.55 45.9 26.6 44.25 26.6 42.65 25.8 40.15 L8.95 3.2 8.5 2.1 Q7.45 -0.15 5.75 -2.05 M-14.0 3.8 Q-14.0 -1.8 -10.0 -5.85 -6.0 -9.85 -0.35 -9.85 5.3 -9.85 9.3 -5.85 11.35 -3.75 12.4 -1.15 L12.85 0.1 12.85 0.15 28.25 42.65 28.3 43.55 Q28.3 46.15 26.5 48.0 24.65 49.8 22.05 49.8 19.5 49.8 17.7 48.05 L-10.9 12.45 -10.95 12.4 -11.35 11.9 -11.4 11.85 Q-14.0 8.35 -14.0 3.8" fill="#ac6f3e" fill-rule="evenodd" stroke="none"/>
    <path d="M-11.05 -6.9 Q-6.6 -11.35 -0.35 -11.35 5.9 -11.35 10.35 -6.9 12.65 -4.55 13.8 -1.7 L14.3 -0.3 14.25 -0.35 29.7 42.25 29.75 42.45 29.8 43.55 Q29.8 46.75 27.55 49.05 25.25 51.3 22.05 51.3 18.85 51.3 16.6 49.05 L16.55 49.0 -12.05 13.4 -12.6 12.75 Q-15.5 8.85 -15.5 3.8 -15.5 -2.4 -11.05 -6.9 M-14.0 3.8 Q-14.0 8.35 -11.4 11.85 L-11.35 11.9 -10.95 12.4 -10.9 12.45 17.7 48.05 Q19.5 49.8 22.05 49.8 24.65 49.8 26.5 48.0 28.3 46.15 28.3 43.55 L28.25 42.65 12.85 0.15 12.85 0.1 12.4 -1.15 Q11.35 -3.75 9.3 -5.85 5.3 -9.85 -0.35 -9.85 -6.0 -9.85 -10.0 -5.85 -14.0 -1.8 -14.0 3.8" fill="#644124" fill-rule="evenodd" stroke="none"/>
    <path d="M20.8 36.9 Q20.8 38.2 19.8 39.0 16.75 37.95 14.7 35.65 L11.75 31.75 5.85 24.2 3.05 20.35 0.5 16.5 -2.15 12.45 Q-3.0 11.05 -3.0 9.0 L-2.8 6.25 Q-2.5 4.7 -0.9 4.6 1.15 4.45 1.55 4.05 L2.85 2.4 Q3.6 1.5 4.5 1.65 5.45 1.8 5.85 2.65 L6.5 4.35 11.35 15.2 16.6 25.3 Q20.8 33.85 20.8 36.9" fill="#cd8f52" fill-rule="evenodd" stroke="none"/>
  </g>
</svg>
