<?xml version="1.0" encoding="UTF-8" standalone="no"?>
<svg xmlns:ffdec="https://www.free-decompiler.com/flash" xmlns:xlink="http://www.w3.org/1999/xlink" ffdec:objectType="shape" height="134.65px" width="49.05px" xmlns="http://www.w3.org/2000/svg">
  <g transform="matrix(1.0, 0.0, 0.0, 1.0, 36.45, 135.85)">
    <path d="M5.7 -78.8 L5.5 -72.15 3.55 -71.05 Q-1.8 -68.1 -3.5 -68.1 L-5.5 -68.3 Q-5.25 -68.7 -5.5 -69.1 L-5.7 -70.95 -5.5 -72.7 Q-5.05 -75.35 -3.05 -78.35 0.05 -83.05 4.5 -85.55 L3.75 -82.25 2.65 -78.7 5.7 -78.8 M5.15 -61.9 L4.8 -50.05 Q-3.95 -44.25 -6.65 -44.25 L-7.25 -44.25 -7.15 -44.3 -7.3 -48.4 -7.5 -51.05 Q-7.5 -53.75 -1.1 -58.25 2.65 -60.9 5.15 -61.9 M4.7 -46.95 L4.4 -37.55 Q-0.7 -35.45 -5.65 -35.45 -8.1 -36.0 -8.1 -38.45 -8.1 -40.25 -2.35 -43.5 L3.6 -46.5 4.7 -46.95 M4.25 -32.7 L3.75 -15.75 3.3 -15.75 Q0.7 -15.75 0.65 -17.05 L2.3 -25.85 Q-0.9 -22.65 -11.35 -15.25 L-11.0 -18.85 -9.4 -21.35 Q-7.3 -24.25 -4.5 -26.75 L-3.1 -27.7 -1.7 -28.9 Q1.15 -31.25 4.25 -32.7 M-3.6 -91.75 L-3.2 -95.55 -3.0 -95.8 Q-2.0 -96.8 -0.55 -96.8 0.9 -96.8 1.9 -95.8 2.9 -94.8 2.9 -93.4 2.9 -92.0 1.9 -91.0 0.9 -90.0 -0.55 -90.0 -2.0 -90.0 -3.0 -91.0 L-3.6 -91.75 M-2.45 -103.0 L-2.15 -105.8 -1.0 -108.45 -0.35 -109.85 Q2.15 -115.25 3.05 -116.15 6.15 -114.15 6.15 -106.75 6.15 -105.35 3.35 -104.1 1.0 -103.05 -1.0 -102.95 L-1.45 -102.95 -2.45 -103.0" fill="#ffffff" fill-rule="evenodd" stroke="none"/>
    <path d="M7.45 -119.7 L7.35 -119.2 Q6.95 -117.4 6.85 -115.0 L6.45 -103.2 Q3.3 -100.55 0.1 -99.05 L0.5 -98.75 Q1.7 -97.9 5.25 -97.05 L6.25 -96.8 6.15 -92.9 2.35 -89.85 Q-0.35 -87.5 -1.45 -85.7 L-1.4 -85.45 -0.75 -85.35 Q2.05 -85.35 6.0 -88.15 L5.7 -78.8 2.65 -78.7 3.75 -82.25 4.5 -85.55 Q0.05 -83.05 -3.05 -78.35 -5.05 -75.35 -5.5 -72.7 L-3.6 -91.75 -3.0 -91.0 Q-2.0 -90.0 -0.55 -90.0 0.9 -90.0 1.9 -91.0 2.9 -92.0 2.9 -93.4 2.9 -94.8 1.9 -95.8 0.9 -96.8 -0.55 -96.8 -2.0 -96.8 -3.0 -95.8 L-3.2 -95.55 -2.45 -103.0 -1.45 -102.95 -1.0 -102.95 Q1.0 -103.05 3.35 -104.1 6.15 -105.35 6.15 -106.75 6.15 -114.15 3.05 -116.15 2.15 -115.25 -0.35 -109.85 L-1.0 -108.45 -2.15 -105.8 -1.25 -114.6 -0.6 -119.15 -0.55 -119.9 Q-0.55 -119.65 -0.5 -119.9 L3.15 -125.35 Q4.3 -124.6 5.95 -122.25 L7.45 -119.7 M5.5 -72.15 L5.15 -61.9 Q2.65 -60.9 -1.1 -58.25 -7.5 -53.75 -7.5 -51.05 L-7.3 -48.4 -7.15 -44.3 -7.25 -44.25 -6.65 -44.25 Q-3.95 -44.25 4.8 -50.05 L4.7 -46.95 3.6 -46.5 -2.35 -43.5 Q-8.1 -40.25 -8.1 -38.45 -8.1 -36.0 -5.65 -35.45 -0.7 -35.45 4.4 -37.55 L4.25 -32.7 Q1.15 -31.25 -1.7 -28.9 -1.05 -30.1 -1.05 -32.7 -0.45 -32.95 -1.45 -32.95 L-9.7 -31.65 -6.9 -59.05 Q-5.75 -61.8 -4.75 -62.95 -4.95 -63.15 -6.5 -62.95 L-5.7 -70.95 -5.5 -69.1 Q-5.25 -68.7 -5.5 -68.3 L-3.5 -68.1 Q-1.8 -68.1 3.55 -71.05 L5.5 -72.15 M3.75 -15.75 L3.6 -10.5 Q2.45 -10.75 1.45 -11.35 -0.8 -12.75 -4.1 -17.35 -5.65 -14.1 -7.6 -12.9 -8.95 -12.05 -10.85 -12.05 L-11.7 -12.05 -11.35 -15.25 Q-0.9 -22.65 2.3 -25.85 L0.65 -17.05 Q0.7 -15.75 3.3 -15.75 L3.75 -15.75 M-11.0 -18.85 L-10.3 -25.65 Q-8.1 -26.45 -4.5 -26.75 -7.3 -24.25 -9.4 -21.35 L-11.0 -18.85 M-14.2 -84.9 L-14.45 -85.75 -14.75 -87.35 Q-14.75 -90.05 -13.7 -92.3 L-12.6 -94.05 -14.2 -84.9 M-17.8 -64.2 L-18.2 -64.95 -18.4 -66.05 Q-18.6 -67.15 -16.9 -69.5 L-17.8 -64.2 M-20.2 -50.5 L-21.5 -43.1 Q-21.85 -44.15 -21.85 -45.7 -21.85 -47.7 -20.2 -50.5 M-24.1 -28.2 L-26.4 -15.05 -27.0 -15.8 Q-28.35 -17.75 -27.95 -20.7 -27.35 -25.25 -24.1 -28.2" fill="#e0e0e0" fill-rule="evenodd" stroke="none"/>
    <path d="M5.5 -130.9 L5.65 -130.9 Q7.65 -128.8 9.4 -124.45 L9.3 -124.3 9.25 -124.25 Q8.05 -122.95 7.45 -119.7 L5.95 -122.25 Q4.3 -124.6 3.15 -125.35 L3.55 -126.0 Q5.45 -128.9 5.5 -130.9 M6.45 -103.2 L6.25 -96.8 5.25 -97.05 Q1.7 -97.9 0.5 -98.75 L0.1 -99.05 Q3.3 -100.55 6.45 -103.2 M6.15 -92.9 L6.0 -88.15 Q2.05 -85.35 -0.75 -85.35 L-1.4 -85.45 -1.45 -85.7 Q-0.35 -87.5 2.35 -89.85 L6.15 -92.9 M3.6 -10.5 L3.45 -5.8 Q-1.35 -6.0 -2.85 -7.35 L-3.75 -8.45 Q-4.25 -8.95 -5.2 -8.95 -5.95 -8.95 -7.5 -7.8 L-9.2 -6.55 -12.15 -7.7 -11.7 -12.05 -10.85 -12.05 Q-8.95 -12.05 -7.6 -12.9 -5.65 -14.1 -4.1 -17.35 -0.8 -12.75 1.45 -11.35 2.45 -10.75 3.6 -10.5 M-10.3 -25.65 L-9.7 -31.65 -1.45 -32.95 Q-0.45 -32.95 -1.05 -32.7 -1.05 -30.1 -1.7 -28.9 L-3.1 -27.7 -4.5 -26.75 Q-8.1 -26.45 -10.3 -25.65 M-6.9 -59.05 L-6.5 -62.95 Q-4.95 -63.15 -4.75 -62.95 -5.75 -61.8 -6.9 -59.05 M-14.2 -84.9 L-14.95 -80.6 -15.15 -80.9 Q-16.65 -82.85 -16.65 -83.95 -16.65 -86.85 -14.65 -91.5 L-12.65 -96.45 -13.05 -97.5 -13.5 -98.6 Q-13.5 -102.95 -10.9 -111.8 -9.6 -116.3 -8.05 -119.9 L-12.6 -94.05 -13.7 -92.3 Q-14.75 -90.05 -14.75 -87.35 L-14.45 -85.75 -14.2 -84.9 M-16.9 -69.5 Q-18.6 -67.15 -18.4 -66.05 L-18.2 -64.95 -17.8 -64.2 -18.6 -59.6 Q-19.05 -60.2 -20.65 -60.6 -18.15 -69.05 -16.15 -73.7 L-16.9 -69.5 M-21.5 -43.1 L-22.15 -39.3 -23.85 -40.95 Q-24.95 -42.0 -24.95 -42.65 -24.95 -46.9 -18.65 -59.5 L-20.2 -50.5 Q-21.85 -47.7 -21.85 -45.7 -21.85 -44.15 -21.5 -43.1 M-26.4 -15.05 L-27.05 -11.35 -29.35 -12.1 Q-28.65 -19.0 -27.35 -24.75 -25.7 -32.35 -22.85 -35.25 L-24.1 -28.2 Q-27.35 -25.25 -27.95 -20.7 -28.35 -17.75 -27.0 -15.8 L-26.4 -15.05" fill="#b4b4b4" fill-rule="evenodd" stroke="none"/>
    <path d="M7.05 -131.7 L7.3 -131.25 7.8 -130.6 Q9.25 -128.7 10.75 -125.3 L10.85 -125.3 10.75 -125.3 11.1 -124.6 11.0 -124.55 Q10.3 -124.45 9.85 -123.8 8.65 -122.5 8.1 -119.05 L7.6 -114.95 3.85 -2.1 3.85 -2.4 3.35 -2.4 2.8 -2.45 -3.25 -3.0 -12.15 -3.7 -13.3 -3.85 -2.0 -114.7 -1.5 -118.5 -1.1 -119.15 -0.55 -119.9 -0.6 -119.15 -1.25 -114.6 -2.15 -105.8 -2.45 -103.0 -3.2 -95.55 -3.6 -91.75 -5.5 -72.7 -5.7 -70.95 -6.5 -62.95 -6.9 -59.05 -9.7 -31.65 -10.3 -25.65 -11.0 -18.85 -11.35 -15.25 -11.7 -12.05 -12.15 -7.7 -9.2 -6.55 -7.5 -7.8 Q-5.95 -8.95 -5.2 -8.95 -4.25 -8.95 -3.75 -8.45 L-2.85 -7.35 Q-1.35 -6.0 3.45 -5.8 L3.6 -10.5 3.75 -15.75 4.25 -32.7 4.4 -37.55 4.7 -46.95 4.8 -50.05 5.15 -61.9 5.5 -72.15 5.7 -78.8 6.0 -88.15 6.15 -92.9 6.25 -96.8 6.45 -103.2 6.85 -115.0 Q6.95 -117.4 7.35 -119.2 L7.45 -119.7 Q8.05 -122.95 9.25 -124.25 L9.3 -124.3 9.4 -124.45 Q7.65 -128.8 5.65 -130.9 L5.5 -130.9 5.5 -131.35 5.5 -131.7 7.05 -131.7 M-26.95 -7.3 L-27.15 -7.35 -27.7 -7.5 -27.7 -7.55 Q-29.2 -8.05 -32.1 -9.55 -33.05 -10.05 -33.65 -11.05 -34.25 -12.1 -34.25 -13.25 -29.65 -28.85 -26.6 -43.3 L-18.15 -83.25 Q-14.9 -99.05 -12.2 -113.45 -9.9 -125.85 -9.15 -127.85 -8.6 -129.4 -6.2 -131.75 -8.65 -127.2 -7.85 -121.15 L-7.8 -121.45 -7.75 -119.95 -7.5 -118.6 -26.95 -7.3 M-12.6 -94.05 L-8.05 -119.9 Q-9.6 -116.3 -10.9 -111.8 -13.5 -102.95 -13.5 -98.6 L-13.05 -97.5 -12.65 -96.45 -14.65 -91.5 Q-16.65 -86.85 -16.65 -83.95 -16.65 -82.85 -15.15 -80.9 L-14.95 -80.6 -14.2 -84.9 -12.6 -94.05 M-17.8 -64.2 L-16.9 -69.5 -16.15 -73.7 Q-18.15 -69.05 -20.65 -60.6 -19.05 -60.2 -18.6 -59.6 L-17.8 -64.2 M-20.2 -50.5 L-18.65 -59.5 Q-24.95 -46.9 -24.95 -42.65 -24.95 -42.0 -23.85 -40.95 L-22.15 -39.3 -21.5 -43.1 -20.2 -50.5 M-24.1 -28.2 L-22.85 -35.25 Q-25.7 -32.35 -27.35 -24.75 -28.65 -19.0 -29.35 -12.1 L-27.05 -11.35 -26.4 -15.05 -24.1 -28.2" fill="#8a8a8a" fill-rule="evenodd" stroke="none"/>
    <path d="M7.05 -131.7 L7.25 -131.65 7.45 -131.65 8.85 -131.2 9.3 -130.55 10.1 -129.4 Q11.4 -127.35 12.45 -124.8 L12.6 -124.45 12.35 -124.45 11.35 -124.6 11.1 -124.6 10.75 -125.3 10.85 -125.3 10.75 -125.3 Q9.25 -128.7 7.8 -130.6 L7.3 -131.25 7.05 -131.7 M3.85 -2.1 L3.85 -1.2 3.3 -1.25 -12.65 -2.55 -13.05 -2.6 -13.4 -2.65 -13.3 -3.85 -12.15 -3.7 -3.25 -3.0 2.8 -2.45 3.35 -2.4 3.85 -2.4 3.85 -2.1 M-1.5 -118.5 L-1.35 -119.2 -1.35 -119.25 -0.85 -121.6 -0.35 -122.4 -0.35 -122.3 -0.3 -122.45 1.85 -125.65 2.5 -126.7 Q4.05 -129.1 4.25 -130.8 L4.25 -131.2 5.25 -131.6 5.35 -131.65 5.45 -131.65 5.4 -131.65 5.5 -131.7 5.5 -131.35 5.5 -130.9 Q5.45 -128.9 3.55 -126.0 L3.15 -125.35 -0.5 -119.9 Q-0.55 -119.65 -0.55 -119.9 L-1.1 -119.15 -1.5 -118.5 M-26.95 -7.3 L-27.2 -5.75 -27.25 -5.7 -28.0 -5.95 -28.0 -6.0 Q-33.6 -7.95 -35.3 -10.45 L-36.45 -11.7 -33.9 -21.55 -31.9 -29.35 Q-30.45 -34.75 -28.45 -43.3 L-28.4 -43.3 -26.3 -52.75 -21.2 -76.15 Q-14.8 -105.6 -13.4 -113.3 -11.3 -124.85 -9.8 -128.55 -7.35 -134.55 -2.8 -135.6 L-1.85 -135.8 -1.15 -135.85 -2.5 -133.85 -4.45 -132.3 Q-6.45 -129.2 -6.75 -125.25 L-7.2 -122.65 -6.95 -121.9 -7.5 -118.6 -7.75 -119.95 -7.8 -121.45 -7.85 -121.15 Q-8.65 -127.2 -6.2 -131.75 -8.6 -129.4 -9.15 -127.85 -9.9 -125.85 -12.2 -113.45 -14.9 -99.05 -18.15 -83.25 L-26.6 -43.3 Q-29.65 -28.85 -34.25 -13.25 -34.25 -12.1 -33.65 -11.05 -33.05 -10.05 -32.1 -9.55 -29.2 -8.05 -27.7 -7.55 L-27.7 -7.5 -27.15 -7.35 -26.95 -7.3" fill="#464646" fill-rule="evenodd" stroke="none"/>
  </g>
</svg>
