<?xml version="1.0" encoding="UTF-8" standalone="no"?>
<svg xmlns:ffdec="https://www.free-decompiler.com/flash" xmlns:xlink="http://www.w3.org/1999/xlink" ffdec:objectType="shape" height="98.5px" width="28.8px" xmlns="http://www.w3.org/2000/svg">
  <g transform="matrix(1.0, 0.0, 0.0, 1.0, -24.45, 38.9)">
    <path d="M34.25 11.85 L34.3 11.95 33.95 12.0 Q33.05 11.9 32.65 10.95 31.9 9.35 31.9 3.0 31.9 -1.0 32.9 -4.45 33.9 -7.9 35.5 -9.5 L36.15 -10.7 Q33.95 -8.95 33.15 -9.0 L32.95 -9.05 32.85 -9.75 Q32.85 -10.75 36.35 -14.45 39.85 -18.1 39.85 -19.3 39.85 -20.6 38.05 -22.15 L35.5 -24.15 Q36.2 -24.7 38.3 -25.55 L40.75 -26.4 Q42.3 -26.4 42.9 -20.45 42.9 -19.25 42.1 -16.95 L41.0 -13.9 41.15 -13.5 Q42.05 -14.6 43.1 -17.75 44.15 -20.85 44.15 -22.25 44.15 -23.75 41.85 -28.15 L39.25 -33.1 38.95 -33.15 39.4 -33.25 Q43.6 -33.25 45.65 -28.55 47.6 -24.05 46.05 -19.1 L38.65 -4.4 Q33.05 6.85 34.25 11.85 M27.05 8.0 L30.7 20.8 Q32.9 29.05 32.9 34.5 L32.6 36.2 32.1 37.25 32.15 37.1 Q31.9 31.75 29.3 21.9 26.8 12.4 26.8 8.95 L26.85 8.2 27.05 8.0" fill="#ffffff" fill-rule="evenodd" stroke="none"/>
    <path d="M34.6 -17.75 Q35.15 -19.75 34.05 -23.65 L32.85 -27.5 34.45 -28.55 Q36.0 -29.45 36.0 -30.25 L34.9 -32.05 Q33.75 -33.6 33.75 -34.0 33.75 -34.5 37.4 -37.85 L41.75 -36.9 Q43.05 -36.4 44.6 -35.4 L48.35 -26.7 Q49.0 -24.85 49.0 -21.8 49.0 -13.85 42.5 -6.0 39.1 -1.85 38.05 0.05 36.0 3.7 36.0 7.85 L36.5 13.2 36.55 13.5 36.6 14.2 38.2 20.5 Q31.5 15.85 30.1 8.65 29.5 5.45 30.2 -1.35 L29.95 -2.2 Q29.6 -0.95 28.2 7.45 L28.55 8.7 29.8 12.4 30.0 13.1 30.9 16.05 Q33.15 21.0 33.45 22.1 L33.25 22.05 33.25 22.0 33.2 22.7 33.9 28.0 34.55 34.2 Q34.55 44.0 30.4 50.9 32.1 45.35 32.1 42.35 32.35 40.95 32.15 39.15 31.8 36.2 29.65 27.1 L27.15 17.0 25.95 11.4 Q25.6 1.45 27.2 -3.9 28.95 -9.95 35.2 -18.15 L34.55 -17.7 34.6 -17.75 M34.25 11.85 Q33.05 6.85 38.65 -4.4 L46.05 -19.1 Q47.6 -24.05 45.65 -28.55 43.6 -33.25 39.4 -33.25 L38.95 -33.15 39.25 -33.1 41.85 -28.15 Q44.15 -23.75 44.15 -22.25 44.15 -20.85 43.1 -17.75 42.05 -14.6 41.15 -13.5 L41.0 -13.9 42.1 -16.95 Q42.9 -19.25 42.9 -20.45 42.3 -26.4 40.75 -26.4 L38.3 -25.55 Q36.2 -24.7 35.5 -24.15 L38.05 -22.15 Q39.85 -20.6 39.85 -19.3 39.85 -18.1 36.35 -14.45 32.85 -10.75 32.85 -9.75 L32.95 -9.05 33.15 -9.0 Q33.95 -8.95 36.15 -10.7 L35.5 -9.5 Q33.9 -7.9 32.9 -4.45 31.9 -1.0 31.9 3.0 31.9 9.35 32.65 10.95 33.05 11.9 33.95 12.0 L34.3 11.95 34.25 11.85 M27.05 8.0 L26.85 8.2 26.8 8.95 Q26.8 12.4 29.3 21.9 31.9 31.75 32.15 37.1 L32.1 37.25 32.6 36.2 32.9 34.5 Q32.9 29.05 30.7 20.8 L27.05 8.0" fill="#d1d1d1" fill-rule="evenodd" stroke="none"/>
    <path d="M24.75 1.05 Q24.75 -1.05 27.7 -7.8 31.05 -15.6 34.6 -17.75 L34.55 -17.7 35.2 -18.15 Q28.95 -9.95 27.2 -3.9 25.6 1.45 25.95 11.4 L25.25 7.3 Q24.85 4.1 24.75 1.05 M44.6 -35.4 Q48.3 -32.45 50.0 -28.15 51.65 -23.85 51.45 -19.0 51.25 -14.15 48.65 -10.45 L43.1 -4.05 Q35.75 4.0 36.5 13.2 L36.0 7.85 Q36.0 3.7 38.05 0.05 39.1 -1.85 42.5 -6.0 49.0 -13.85 49.0 -21.8 49.0 -24.85 48.35 -26.7 L44.6 -35.4 M38.2 20.5 L39.05 22.5 Q32.0 19.7 29.65 11.25 L29.2 9.75 Q29.15 10.05 29.8 12.4 L28.55 8.7 28.2 7.45 Q29.6 -0.95 29.95 -2.2 L30.2 -1.35 Q29.5 5.45 30.1 8.65 31.5 15.85 38.2 20.5 M33.45 22.1 Q35.2 35.75 35.2 38.1 35.2 45.25 32.1 50.9 30.0 54.65 28.05 55.9 L30.4 50.9 Q34.55 44.0 34.55 34.2 L33.9 28.0 33.2 22.7 33.25 22.0 33.25 22.05 33.45 22.1" fill="#989898" fill-rule="evenodd" stroke="none"/>
    <path d="M37.4 -37.85 L35.85 -38.3 39.4 -38.9 Q42.3 -38.9 44.85 -37.15 47.45 -35.3 50.6 -31.0 52.25 -28.75 52.8 -26.05 53.25 -23.85 53.25 -19.3 53.25 -14.15 50.9 -10.3 49.5 -8.05 45.65 -4.3 41.9 -0.65 40.45 1.9 38.05 5.95 38.05 11.5 38.05 13.5 39.15 17.5 L41.0 23.7 Q40.05 24.35 38.95 24.35 L37.4 23.85 35.5 23.2 34.75 22.6 35.75 27.8 Q36.6 33.15 36.6 36.25 36.6 46.05 33.05 52.55 30.3 57.6 26.75 58.9 L25.5 59.6 Q27.05 57.1 28.85 51.35 30.7 45.4 30.7 42.65 30.7 34.55 27.6 24.9 24.45 15.25 24.45 6.65 L24.75 1.05 Q24.85 4.1 25.25 7.3 L25.95 11.4 27.15 17.0 29.65 27.1 Q31.8 36.2 32.15 39.15 32.35 40.95 32.1 42.35 32.1 45.35 30.4 50.9 L28.05 55.9 Q30.0 54.65 32.1 50.9 35.2 45.25 35.2 38.1 35.2 35.75 33.45 22.1 33.15 21.0 30.9 16.05 L30.0 13.1 29.8 12.4 Q29.15 10.05 29.2 9.75 L29.65 11.25 Q32.0 19.7 39.05 22.5 L38.2 20.5 36.6 14.2 36.55 13.5 36.5 13.2 Q35.75 4.0 43.1 -4.05 L48.65 -10.45 Q51.25 -14.15 51.45 -19.0 51.65 -23.85 50.0 -28.15 48.3 -32.45 44.6 -35.4 43.05 -36.4 41.75 -36.9 L37.4 -37.85" fill="#606060" fill-rule="evenodd" stroke="none"/>
  </g>
</svg>
