<?xml version="1.0" encoding="UTF-8" standalone="no"?>
<svg xmlns:ffdec="https://www.free-decompiler.com/flash" xmlns:xlink="http://www.w3.org/1999/xlink" ffdec:objectType="shape" height="40.65px" width="48.45px" xmlns="http://www.w3.org/2000/svg">
  <g transform="matrix(1.0, 0.0, 0.0, 1.0, 26.5, 136.1)">
    <path d="M1.7 -121.95 L3.9 -123.95 6.5 -127.25 5.5 -129.0 Q6.05 -130.55 5.7 -131.7 5.45 -132.95 4.35 -133.8 5.9 -132.8 7.35 -130.9 L8.2 -129.65 8.6 -129.05 Q12.6 -122.4 12.95 -121.2 L13.8 -119.35 Q18.75 -108.3 20.4 -95.45 L14.65 -95.45 11.3 -111.5 Q8.95 -121.4 7.0 -126.1 5.95 -124.75 3.9 -122.9 -0.55 -118.95 -4.0 -118.95 L-4.4 -118.95 -4.9 -118.05 -9.4 -108.0 Q-11.5 -103.15 -12.75 -102.45 L-13.7 -102.75 -13.8 -103.7 -12.75 -106.8 Q-11.6 -110.2 -11.05 -112.85 L-10.9 -114.05 Q-15.05 -107.95 -18.7 -101.5 L-21.85 -95.45 -24.8 -95.45 -23.5 -98.1 Q-15.7 -112.9 -11.55 -121.2 L-11.3 -121.65 -8.25 -128.05 -7.55 -129.5 -7.3 -130.0 Q-6.45 -131.8 -4.95 -132.95 -7.4 -129.95 -7.0 -125.6 -6.8 -123.1 -5.5 -122.15 -4.55 -121.35 -3.0 -121.55 L-3.85 -119.95 -3.55 -119.95 -3.45 -119.95 -2.85 -120.0 1.7 -121.95 M-15.3 -95.45 Q-17.35 -95.75 -18.55 -96.95 L-18.4 -97.05 -15.4 -97.75 -8.55 -98.35 -6.75 -98.1 Q-5.75 -97.9 -5.45 -97.6 -6.65 -95.8 -11.2 -95.45 L-15.3 -95.45" fill="#8a8a8a" fill-rule="evenodd" stroke="none"/>
    <path d="M5.5 -129.0 L6.5 -127.25 3.9 -123.95 1.7 -121.95 1.95 -122.6 Q1.95 -123.35 1.05 -123.25 3.1 -124.75 4.75 -127.45 L5.5 -129.0 M-21.85 -95.45 L-18.7 -101.5 Q-15.05 -107.95 -10.9 -114.05 L-11.05 -112.85 Q-11.6 -110.2 -12.75 -106.8 L-13.8 -103.7 -13.7 -102.75 -12.75 -102.45 Q-11.5 -103.15 -9.4 -108.0 L-4.9 -118.05 -4.4 -118.95 -4.0 -118.95 Q-0.55 -118.95 3.9 -122.9 5.95 -124.75 7.0 -126.1 8.95 -121.4 11.3 -111.5 L14.65 -95.45 12.05 -95.45 11.8 -98.25 11.85 -100.05 11.9 -100.2 11.3 -100.35 4.9 -95.6 4.7 -95.45 -2.05 -95.45 -2.55 -95.5 -3.5 -95.45 -11.2 -95.45 Q-6.65 -95.8 -5.45 -97.6 -5.75 -97.9 -6.75 -98.1 L-8.55 -98.35 -15.4 -97.75 -18.4 -97.05 -18.55 -96.95 Q-17.35 -95.75 -15.3 -95.45 L-21.85 -95.45 M1.15 -116.15 Q-1.4 -109.1 -5.15 -104.3 -5.8 -103.5 -9.35 -102.2 -13.3 -100.75 -15.4 -101.1 L-16.05 -100.5 Q-14.45 -98.6 -2.45 -98.6 10.35 -98.6 9.3 -109.9 8.9 -113.8 7.0 -117.7 5.25 -121.25 4.25 -121.25 3.0 -121.25 1.15 -116.15" fill="#b4b4b4" fill-rule="evenodd" stroke="none"/>
    <path d="M1.7 -121.95 L-2.85 -120.0 -3.45 -119.95 -3.55 -119.95 -3.85 -119.95 -3.0 -121.55 -2.45 -121.65 -2.0 -121.75 Q-0.4 -122.2 1.05 -123.25 1.95 -123.35 1.95 -122.6 L1.7 -121.95 M4.2 -113.05 Q3.25 -113.05 0.9 -109.0 -1.45 -104.9 -1.45 -102.95 -1.45 -102.25 -1.05 -101.85 -0.7 -101.5 -0.15 -101.5 1.45 -101.5 3.1 -103.85 5.2 -106.75 5.2 -111.25 L5.05 -112.75 4.95 -112.9 4.2 -113.05 M4.7 -95.45 L4.9 -95.6 11.3 -100.35 11.9 -100.2 11.85 -100.05 11.8 -98.25 12.05 -95.45 4.7 -95.45 M1.15 -116.15 Q3.0 -121.25 4.25 -121.25 5.25 -121.25 7.0 -117.7 8.9 -113.8 9.3 -109.9 10.35 -98.6 -2.45 -98.6 -14.45 -98.6 -16.05 -100.5 L-15.4 -101.1 Q-13.3 -100.75 -9.35 -102.2 -5.8 -103.5 -5.15 -104.3 -1.4 -109.1 1.15 -116.15 M-3.5 -95.45 L-2.55 -95.5 -2.05 -95.45 -3.5 -95.45" fill="#e0e0e0" fill-rule="evenodd" stroke="none"/>
    <path d="M4.2 -113.05 L4.95 -112.9 5.05 -112.75 5.2 -111.25 Q5.2 -106.75 3.1 -103.85 1.45 -101.5 -0.15 -101.5 -0.7 -101.5 -1.05 -101.85 -1.45 -102.25 -1.45 -102.95 -1.45 -104.9 0.9 -109.0 3.25 -113.05 4.2 -113.05" fill="#ffffff" fill-rule="evenodd" stroke="none"/>
    <path d="M4.5 -130.15 L4.5 -131.4 Q4.1 -132.7 2.4 -133.5 -1.25 -135.25 -3.6 -132.6 -6.15 -129.8 -5.75 -125.7 -5.6 -123.85 -4.75 -123.15 L-2.35 -122.95 -2.2 -123.0 Q1.25 -124.1 3.7 -128.1 L3.65 -128.1 4.5 -130.15 M-3.0 -121.55 Q-4.55 -121.35 -5.5 -122.15 -6.8 -123.1 -7.0 -125.6 -7.4 -129.95 -4.95 -132.95 -6.45 -131.8 -7.3 -130.0 L-7.55 -129.5 -8.25 -128.05 -11.3 -121.65 -11.55 -121.2 Q-15.7 -112.9 -23.5 -98.1 L-24.8 -95.45 -26.5 -95.45 -24.85 -98.8 -13.25 -121.2 -8.75 -130.5 Q-8.0 -132.2 -6.7 -133.35 -4.4 -135.55 -0.35 -136.05 L-0.05 -136.05 Q5.95 -136.65 10.15 -129.55 14.4 -122.3 14.6 -121.2 20.2 -109.3 21.95 -95.45 L20.4 -95.45 Q18.75 -108.3 13.8 -119.35 L12.95 -121.2 Q12.6 -122.4 8.6 -129.05 L8.2 -129.65 7.35 -130.9 Q5.9 -132.8 4.35 -133.8 5.45 -132.95 5.7 -131.7 6.05 -130.55 5.5 -129.0 L4.75 -127.45 Q3.1 -124.75 1.05 -123.25 -0.4 -122.2 -2.0 -121.75 L-2.45 -121.65 -3.0 -121.55" fill="#464646" fill-rule="evenodd" stroke="none"/>
  </g>
</svg>
