<?xml version="1.0" encoding="UTF-8" standalone="no"?>
<svg xmlns:ffdec="https://www.free-decompiler.com/flash" xmlns:xlink="http://www.w3.org/1999/xlink" ffdec:objectType="shape" height="92.1px" width="92.1px" xmlns="http://www.w3.org/2000/svg">
  <g transform="matrix(1.0, 0.0, 0.0, 1.0, 52.0, 57.05)">
    <path d="M-49.35 -15.25 L-49.25 -16.05 -49.0 -17.4 -48.7 -19.2 -47.35 -25.65 Q-44.75 -32.05 -40.15 -37.9 -35.7 -43.65 -30.65 -47.35 -26.45 -50.5 -19.75 -52.55 -12.8 -54.75 -6.05 -54.75 10.5 -54.75 23.35 -43.55 37.8 -30.9 37.8 -10.95 37.8 -2.0 35.0 5.0 33.05 9.85 24.2 20.8 L15.2 27.55 Q10.1 30.85 -2.4 32.7 8.5 30.2 12.55 18.05 16.6 5.9 13.05 -7.0 9.45 -19.9 -13.05 -18.95 L-13.1 -18.95 -15.2 -18.7 -16.65 -18.75 -22.1 -18.2 -20.6 -18.85 -21.3 -18.55 -31.75 -17.8 -40.05 -16.65 -48.5 -15.25 -49.4 -15.0 -49.35 -15.25" fill="#754b33" fill-rule="evenodd" stroke="none"/>
    <path d="M-49.35 -15.25 L-49.4 -15.0 -48.5 -15.25 -40.05 -16.65 -31.75 -17.8 -21.3 -18.55 -20.6 -18.85 -22.1 -18.2 -16.65 -18.75 -15.2 -18.7 -13.1 -18.95 -13.05 -18.95 Q9.45 -19.9 13.05 -7.0 16.6 5.9 12.55 18.05 8.5 30.2 -2.4 32.7 L-7.3 32.8 Q-28.0 30.65 -39.55 17.15 -49.8 5.3 -49.8 -10.95 L-49.35 -15.25 M11.25 0.8 Q11.25 -10.55 -1.55 -13.45 L-14.3 -14.7 -28.4 -14.65 -34.5 -13.55 Q-40.3 -12.5 -41.3 -7.9 -41.7 8.8 -31.15 17.9 -20.65 26.95 -8.9 26.95 -3.05 26.95 3.15 21.05 11.25 13.4 11.25 0.8" fill="#83563a" fill-rule="evenodd" stroke="none"/>
    <path d="M-2.4 32.7 Q10.1 30.85 15.2 27.55 L24.2 20.8 Q33.05 9.85 35.0 5.0 37.8 -2.0 37.8 -10.95 37.8 -30.9 23.35 -43.55 10.5 -54.75 -6.05 -54.75 -12.8 -54.75 -19.75 -52.55 -26.45 -50.5 -30.65 -47.35 -35.7 -43.65 -40.15 -37.9 -44.75 -32.05 -47.35 -25.65 L-48.7 -19.2 -49.0 -17.4 -49.25 -16.05 -49.35 -15.25 -49.8 -10.95 Q-49.8 5.3 -39.55 17.15 -28.0 30.65 -7.3 32.8 L-2.4 32.7 M26.6 -43.6 Q40.1 -30.1 40.1 -11.0 40.1 8.1 26.6 21.55 13.15 35.05 -5.95 35.05 -25.05 35.05 -38.55 21.55 -52.0 8.1 -52.0 -11.0 -52.0 -30.1 -38.55 -43.6 -25.05 -57.05 -5.95 -57.05 13.15 -57.05 26.6 -43.6" fill="#4b3121" fill-rule="evenodd" stroke="none"/>
    <path d="M11.25 0.8 Q11.25 13.4 3.15 21.05 -3.05 26.95 -8.9 26.95 -20.65 26.95 -31.15 17.9 -41.7 8.8 -41.3 -7.9 -40.3 -12.5 -34.5 -13.55 L-28.4 -14.65 -14.3 -14.7 -1.55 -13.45 Q11.25 -10.55 11.25 0.8" fill="#926041" fill-rule="evenodd" stroke="none"/>
  </g>
</svg>
