<?xml version="1.0" encoding="UTF-8" standalone="no"?>
<svg xmlns:ffdec="https://www.free-decompiler.com/flash" xmlns:xlink="http://www.w3.org/1999/xlink" ffdec:objectType="shape" height="16.9px" width="19.85px" xmlns="http://www.w3.org/2000/svg">
  <g transform="matrix(1.0, 0.0, 0.0, 1.0, 10.1, 135.85)">
    <path d="M2.75 -124.75 L3.9 -123.95 1.7 -121.95 -2.85 -120.0 -3.45 -119.95 -3.55 -119.95 -4.05 -119.95 -4.65 -120.0 -4.15 -121.55 -2.45 -121.65 -2.0 -121.75 Q-0.4 -122.2 1.05 -123.25 L2.75 -124.75" fill="#e0e0e0" fill-rule="evenodd" stroke="none"/>
    <path d="M3.9 -123.95 L2.75 -124.75 4.75 -127.45 5.65 -129.45 5.8 -129.3 6.9 -127.85 Q5.45 -125.65 3.9 -123.95 M-4.15 -121.55 L-4.65 -120.0 Q-5.7 -120.15 -6.45 -120.9 L-5.8 -122.4 -5.5 -122.15 Q-4.95 -121.65 -4.15 -121.55" fill="#b4b4b4" fill-rule="evenodd" stroke="none"/>
    <path d="M-4.65 -120.0 L-4.05 -119.95 -3.55 -119.95 -3.45 -119.95 -2.85 -120.0 1.7 -121.95 3.9 -123.95 Q5.45 -125.65 6.9 -127.85 L5.8 -129.3 5.65 -129.45 Q6.0 -130.7 5.7 -131.7 L4.95 -133.25 6.05 -132.45 Q7.55 -131.15 8.85 -128.7 L7.5 -126.8 Q6.65 -125.4 4.5 -123.45 L3.9 -122.9 1.2 -120.8 Q-0.85 -119.45 -2.7 -119.05 L-4.0 -118.95 -4.9 -119.0 Q-6.05 -119.2 -6.9 -119.8 -7.05 -119.4 -8.1 -121.5 -9.2 -123.7 -9.6 -125.5 -8.4 -128.85 -7.0 -130.8 L-5.15 -132.7 Q-7.4 -129.75 -7.0 -125.6 -6.8 -123.4 -5.8 -122.4 L-6.45 -120.9 Q-5.7 -120.15 -4.65 -120.0" fill="#8a8a8a" fill-rule="evenodd" stroke="none"/>
    <path d="M4.55 -130.45 L4.5 -131.4 Q4.1 -132.7 2.4 -133.5 -1.25 -135.25 -3.6 -132.6 -6.15 -129.8 -5.75 -125.7 -5.65 -124.4 -5.15 -123.65 L-4.75 -123.15 Q-4.3 -122.85 -3.65 -122.8 L-2.35 -122.95 Q-0.2 -123.6 1.6 -125.35 2.75 -126.5 3.7 -128.1 L3.65 -128.1 Q4.4 -129.4 4.55 -130.45 M2.75 -124.75 L1.05 -123.25 Q-0.4 -122.2 -2.0 -121.75 L-2.45 -121.65 -4.15 -121.55 Q-4.95 -121.65 -5.5 -122.15 L-5.8 -122.4 Q-6.8 -123.4 -7.0 -125.6 -7.4 -129.75 -5.15 -132.7 L-7.0 -130.8 Q-8.4 -128.85 -9.6 -125.5 L-10.1 -127.75 -9.8 -128.55 Q-6.8 -135.85 -0.7 -135.85 4.6 -135.85 7.7 -132.5 L9.75 -129.9 8.85 -128.7 Q7.55 -131.15 6.05 -132.45 L4.95 -133.25 5.7 -131.7 Q6.0 -130.7 5.65 -129.45 L4.75 -127.45 2.75 -124.75" fill="#464646" fill-rule="evenodd" stroke="none"/>
  </g>
</svg>
