<?xml version="1.0" encoding="UTF-8" standalone="no"?>
<svg xmlns:ffdec="https://www.free-decompiler.com/flash" xmlns:xlink="http://www.w3.org/1999/xlink" ffdec:objectType="shape" height="50.1px" width="10.1px" xmlns="http://www.w3.org/2000/svg">
  <g transform="matrix(1.0, 0.0, 0.0, 1.0, 14.35, 64.8)">
    <path d="M-5.75 -60.7 L-5.75 -60.5 Q-5.75 -59.35 -6.55 -58.5 -7.4 -57.7 -8.55 -57.7 -9.7 -57.7 -10.5 -58.5 -11.35 -59.35 -11.35 -60.5 L-11.3 -60.9 Q-10.7 -60.55 -9.85 -60.55 L-5.75 -60.7 M-6.75 -40.45 L-6.75 -40.25 Q-6.75 -39.1 -7.55 -38.25 -8.4 -37.45 -9.55 -37.45 -10.7 -37.45 -11.5 -38.25 -12.35 -39.1 -12.35 -40.25 L-12.3 -40.65 Q-11.7 -40.3 -10.85 -40.3 L-6.75 -40.45 M-7.25 -19.2 L-7.25 -19.0 Q-7.25 -17.85 -8.05 -17.0 -8.9 -16.2 -10.05 -16.2 -11.2 -16.2 -12.0 -17.0 -12.85 -17.85 -12.85 -19.0 L-12.8 -19.4 -11.35 -19.05 -7.25 -19.2" fill="#e1e1e1" fill-rule="evenodd" stroke="none"/>
    <path d="M-8.55 -64.8 Q-6.8 -64.8 -5.5 -63.5 -4.25 -62.25 -4.25 -60.5 -4.25 -58.75 -5.5 -57.45 -6.8 -56.2 -8.55 -56.2 -10.3 -56.2 -11.55 -57.45 -12.85 -58.75 -12.85 -60.5 -12.85 -62.25 -11.55 -63.5 -10.3 -64.8 -8.55 -64.8 M-5.75 -60.7 Q-5.85 -61.75 -6.55 -62.45 -7.4 -63.3 -8.55 -63.3 -9.7 -63.3 -10.5 -62.45 -11.2 -61.8 -11.3 -60.9 L-11.35 -60.5 Q-11.35 -59.35 -10.5 -58.5 -9.7 -57.7 -8.55 -57.7 -7.4 -57.7 -6.55 -58.5 -5.75 -59.35 -5.75 -60.5 L-5.75 -60.7 M-5.25 -40.25 Q-5.25 -38.5 -6.5 -37.2 -7.8 -35.95 -9.55 -35.95 -11.3 -35.95 -12.55 -37.2 -13.85 -38.5 -13.85 -40.25 -13.85 -42.0 -12.55 -43.25 -11.3 -44.55 -9.55 -44.55 -7.8 -44.55 -6.5 -43.25 -5.25 -42.0 -5.25 -40.25 M-6.75 -40.45 Q-6.85 -41.5 -7.55 -42.2 -8.4 -43.05 -9.55 -43.05 -10.7 -43.05 -11.5 -42.2 -12.2 -41.55 -12.3 -40.65 L-12.35 -40.25 Q-12.35 -39.1 -11.5 -38.25 -10.7 -37.45 -9.55 -37.45 -8.4 -37.45 -7.55 -38.25 -6.75 -39.1 -6.75 -40.25 L-6.75 -40.45 M-12.8 -19.4 L-12.85 -19.0 Q-12.85 -17.85 -12.0 -17.0 -11.2 -16.2 -10.05 -16.2 -8.9 -16.2 -8.05 -17.0 -7.25 -17.85 -7.25 -19.0 L-7.25 -19.2 Q-7.35 -20.25 -8.05 -20.95 -8.9 -21.8 -10.05 -21.8 -11.2 -21.8 -12.0 -20.95 -12.7 -20.3 -12.8 -19.4 M-10.05 -23.3 Q-8.3 -23.3 -7.0 -22.0 -5.75 -20.75 -5.75 -19.0 -5.75 -17.25 -7.0 -15.95 -8.3 -14.7 -10.05 -14.7 -11.8 -14.7 -13.05 -15.95 -14.35 -17.25 -14.35 -19.0 -14.35 -20.75 -13.05 -22.0 -11.8 -23.3 -10.05 -23.3" fill="#555555" fill-rule="evenodd" stroke="none"/>
    <path d="M-11.3 -60.9 Q-11.2 -61.8 -10.5 -62.45 -9.7 -63.3 -8.55 -63.3 -7.4 -63.3 -6.55 -62.45 -5.85 -61.75 -5.75 -60.7 L-9.85 -60.55 Q-10.7 -60.55 -11.3 -60.9 M-12.3 -40.65 Q-12.2 -41.55 -11.5 -42.2 -10.7 -43.05 -9.55 -43.05 -8.4 -43.05 -7.55 -42.2 -6.85 -41.5 -6.75 -40.45 L-10.85 -40.3 Q-11.7 -40.3 -12.3 -40.65 M-12.8 -19.4 Q-12.7 -20.3 -12.0 -20.95 -11.2 -21.8 -10.05 -21.8 -8.9 -21.8 -8.05 -20.95 -7.35 -20.25 -7.25 -19.2 L-11.35 -19.05 -12.8 -19.4" fill="#f8f8f8" fill-rule="evenodd" stroke="none"/>
  </g>
</svg>
