<?xml version="1.0" encoding="UTF-8" standalone="no"?>
<svg xmlns:ffdec="https://www.free-decompiler.com/flash" xmlns:xlink="http://www.w3.org/1999/xlink" ffdec:objectType="shape" height="22.2px" width="16.65px" xmlns="http://www.w3.org/2000/svg">
  <g transform="matrix(1.0, 0.0, 0.0, 1.0, -2.3, 13.0)">
    <path d="M6.2 -11.3 L6.15 -11.3 Q8.15 -13.0 10.6 -13.0 14.3 -13.1 16.8 -9.4 L16.75 -9.4 Q18.95 -6.35 18.95 -1.9 18.95 2.55 16.75 5.65 14.3 9.2 10.65 9.2 L10.55 9.2 Q6.95 9.2 4.45 5.65 2.3 2.55 2.3 -1.85 L2.3 -1.9 Q2.25 -4.3 2.95 -6.3 3.45 -8.05 4.45 -9.35 L4.5 -9.45 Q5.2 -10.55 6.2 -11.3" fill="#ffffff" fill-rule="evenodd" stroke="none"/>
  </g>
</svg>
