<?xml version="1.0" encoding="UTF-8" standalone="no"?>
<svg xmlns:ffdec="https://www.free-decompiler.com/flash" xmlns:xlink="http://www.w3.org/1999/xlink" ffdec:objectType="shape" height="18.55px" width="14.75px" xmlns="http://www.w3.org/2000/svg">
  <g transform="matrix(1.0, 0.0, 0.0, 1.0, -2.75, 9.15)">
    <path d="M5.9 -9.1 L9.35 -7.85 Q12.0 -6.65 13.5 -5.25 L15.5 -3.05 15.5 -3.1 17.0 -0.4 17.0 -0.35 Q18.35 3.4 16.0 6.65 14.45 8.6 11.95 9.25 L11.9 9.25 Q8.3 9.95 5.9 7.5 3.3 4.8 2.85 1.35 L2.8 1.35 Q2.35 -3.35 4.7 -7.3 L4.7 -7.55 Q4.7 -8.3 2.95 -8.55 L2.75 -8.55 2.75 -8.95 3.15 -9.0 5.9 -9.1" fill="#ffffff" fill-rule="evenodd" stroke="none"/>
  </g>
</svg>
