<?xml version="1.0" encoding="UTF-8" standalone="no"?>
<svg xmlns:ffdec="https://www.free-decompiler.com/flash" xmlns:xlink="http://www.w3.org/1999/xlink" ffdec:objectType="shape" height="18.35px" width="18.2px" xmlns="http://www.w3.org/2000/svg">
  <g transform="matrix(1.0, 0.0, 0.0, 1.0, -2.8, 9.8)">
    <path d="M9.35 -9.8 Q11.0 -9.65 17.85 -2.75 L18.1 -0.25 18.15 1.05 Q18.85 1.05 21.0 2.85 L19.4 3.15 Q15.4 4.1 3.35 8.55 L3.2 8.3 Q2.8 7.65 3.05 7.0 3.25 6.3 3.9 6.05 L4.35 5.8 Q2.8 3.2 2.8 -0.25 2.8 -2.35 3.4 -4.15 L3.35 -4.05 Q3.85 -5.6 4.8 -6.9 L4.85 -6.95 6.4 -8.6 Q7.6 -9.95 9.35 -9.8" fill="#ffffff" fill-rule="evenodd" stroke="none"/>
  </g>
</svg>
