<?xml version="1.0" encoding="UTF-8" standalone="no"?>
<svg xmlns:ffdec="https://www.free-decompiler.com/flash" xmlns:xlink="http://www.w3.org/1999/xlink" ffdec:objectType="shape" height="17.9px" width="37.85px" xmlns="http://www.w3.org/2000/svg">
  <g transform="matrix(1.0, 0.0, 0.0, 1.0, 38.4, 10.95)">
    <path d="M-29.25 -7.3 L-24.6 -7.95 -20.9 -7.55 -19.05 -7.05 Q-17.45 -6.5 -13.1 -3.2 -8.0 0.65 -8.0 2.45 -8.0 3.95 -9.6 3.95 L-12.55 1.65 Q-15.95 -1.15 -19.3 -2.8 -23.4 -4.85 -27.95 -5.6 L-32.0 -6.1 -31.85 -6.35 -29.25 -7.3 M-33.7 -3.2 L-36.5 -2.65 Q-31.35 -3.4 -24.85 1.15 -21.55 3.5 -18.3 6.1 -18.3 3.4 -21.8 0.35 -26.4 -3.7 -33.7 -3.2 M-35.95 -3.45 L-31.8 -4.3 -28.5 -4.05 -26.85 -3.65 Q-25.4 -3.15 -21.5 -0.05 -16.95 3.6 -16.95 5.4 -16.95 6.9 -18.4 6.95 L-21.0 4.8 Q-24.05 2.15 -27.05 0.65 -30.7 -1.25 -34.8 -1.8 L-38.4 -2.1 -38.25 -2.35 Q-37.65 -2.9 -35.95 -3.45 M-26.75 -6.95 L-29.9 -6.55 Q-24.1 -7.05 -16.85 -2.15 -13.15 0.35 -9.5 3.1 -9.5 0.4 -13.4 -2.8 -18.55 -7.1 -26.75 -6.95 M-17.15 -10.95 L-17.1 -10.95 -11.6 -10.05 Q-10.0 -9.5 -5.65 -6.2 -0.55 -2.35 -0.55 -0.55 -0.55 0.95 -2.15 0.95 L-5.1 -1.35 Q-8.5 -4.15 -11.85 -5.8 -15.95 -7.85 -20.5 -8.6 L-24.55 -9.1 -24.4 -9.35 Q-23.7 -9.85 -21.8 -10.3 L-17.15 -10.95 M-19.3 -9.95 L-22.45 -9.55 Q-16.65 -10.05 -9.4 -5.15 L-2.05 0.1 Q-2.05 -2.6 -5.95 -5.8 -11.1 -10.1 -19.3 -9.95" fill="#464646" fill-rule="evenodd" stroke="none"/>
    <path d="M-33.7 -3.2 Q-26.4 -3.7 -21.8 0.35 -18.3 3.4 -18.3 6.1 -21.55 3.5 -24.85 1.15 -31.35 -3.4 -36.5 -2.65 L-33.7 -3.2 M-26.75 -6.95 Q-18.55 -7.1 -13.4 -2.8 -9.5 0.4 -9.5 3.1 -13.15 0.35 -16.85 -2.15 -24.1 -7.05 -29.9 -6.55 L-26.75 -6.95 M-19.3 -9.95 Q-11.1 -10.1 -5.95 -5.8 -2.05 -2.6 -2.05 0.1 L-9.4 -5.15 Q-16.65 -10.05 -22.45 -9.55 L-19.3 -9.95" fill="#e0e0e0" fill-rule="evenodd" stroke="none"/>
  </g>
</svg>
