<?xml version="1.0" encoding="UTF-8" standalone="no"?>
<svg xmlns:ffdec="https://www.free-decompiler.com/flash" xmlns:xlink="http://www.w3.org/1999/xlink" ffdec:objectType="shape" height="105.7px" width="105.65px" xmlns="http://www.w3.org/2000/svg">
  <g transform="matrix(1.0, 0.0, 0.0, 1.0, 130.6, 105.8)">
    <path d="M-39.45 -97.85 L-33.15 -104.15 Q-30.95 -103.35 -29.2 -101.6 L-28.4 -100.7 -29.3 -99.75 Q-30.4 -99.15 -31.4 -98.1 -32.35 -97.2 -32.9 -96.15 L-49.0 -80.1 Q-48.2 -81.45 -48.2 -82.65 -48.2 -83.15 -48.35 -83.45 L-48.45 -83.8 -48.65 -83.85 -49.45 -83.9 Q-50.95 -83.9 -53.0 -81.65 -55.25 -79.15 -55.25 -76.95 L-55.1 -75.8 Q-53.95 -75.7 -52.55 -76.55 L-68.2 -60.85 Q-68.05 -61.2 -68.05 -61.7 -68.05 -65.45 -70.25 -67.0 L-42.45 -94.8 -41.55 -95.4 Q-39.45 -96.9 -39.45 -97.75 L-39.45 -97.85 M-93.2 -44.05 L-74.55 -62.7 -74.1 -62.1 Q-72.35 -59.95 -69.95 -59.95 L-68.9 -60.2 -100.0 -29.05 Q-101.15 -30.85 -102.05 -30.85 -102.9 -30.85 -103.35 -30.0 -103.8 -29.2 -103.8 -28.0 L-103.55 -25.5 -109.2 -19.9 -110.0 -20.8 Q-111.45 -22.25 -113.1 -23.05 L-113.1 -23.35 -113.1 -24.2 -96.6 -40.65 Q-96.05 -40.15 -95.15 -40.15 L-94.0 -40.35 Q-92.95 -40.85 -92.95 -42.3 L-93.2 -44.05" fill="#383838" fill-rule="evenodd" stroke="none"/>
    <path d="M-39.45 -97.85 Q-39.5 -98.6 -40.45 -98.95 L-43.15 -99.2 -44.35 -99.15 -38.8 -104.65 -37.0 -104.8 -33.15 -104.15 -39.45 -97.85 M-48.3 -95.15 Q-48.25 -94.5 -47.9 -94.2 -47.35 -93.8 -46.0 -93.8 -44.3 -93.8 -42.45 -94.8 L-70.25 -67.0 Q-70.95 -67.5 -71.8 -67.75 L-74.35 -67.6 Q-75.55 -66.9 -75.55 -65.3 -75.55 -64.15 -74.55 -62.7 L-93.2 -44.05 Q-93.8 -46.0 -95.7 -47.75 L-90.8 -52.7 -89.9 -52.5 Q-87.15 -52.5 -85.05 -56.5 -84.0 -58.5 -83.65 -59.8 L-68.8 -74.65 Q-68.35 -72.6 -66.3 -72.6 -64.7 -72.6 -63.55 -75.85 L-62.8 -79.2 Q-62.8 -79.95 -62.95 -80.5 L-48.3 -95.15 M-68.2 -60.85 L-52.55 -76.55 -50.65 -78.05 Q-49.6 -79.1 -49.0 -80.1 L-32.9 -96.15 Q-33.95 -94.45 -33.95 -92.4 -33.95 -90.85 -32.15 -89.9 -31.7 -91.05 -29.15 -93.5 -27.25 -95.35 -27.25 -98.35 -27.25 -99.0 -27.65 -99.45 -28.1 -100.05 -28.8 -100.05 L-29.3 -99.75 -28.4 -100.7 Q-26.5 -98.35 -26.05 -95.4 L-38.7 -82.8 -38.85 -82.8 Q-42.95 -82.8 -42.95 -80.15 L-42.8 -79.2 -42.6 -78.9 -54.3 -67.15 -56.1 -67.45 Q-58.15 -67.45 -59.45 -66.45 -60.8 -65.4 -60.8 -63.95 -60.8 -62.95 -59.8 -62.4 L-59.3 -62.15 -71.55 -49.9 Q-72.75 -52.1 -74.1 -52.1 -75.2 -52.1 -75.6 -51.7 -76.45 -50.95 -76.45 -48.25 L-76.15 -45.35 -82.75 -38.7 -82.75 -39.2 Q-82.75 -39.75 -82.9 -40.0 L-83.05 -40.3 -84.25 -40.6 -88.65 -38.6 Q-89.95 -37.75 -89.95 -36.2 -89.95 -33.9 -87.75 -33.9 L-87.6 -33.9 -98.55 -22.95 -98.55 -23.1 Q-98.55 -26.7 -100.0 -29.05 L-68.9 -60.2 -68.5 -60.5 -68.2 -60.85 M-104.5 -39.0 L-98.95 -44.5 Q-98.1 -43.4 -97.15 -41.35 L-96.6 -40.65 -113.1 -24.2 -113.2 -27.65 Q-113.45 -28.8 -114.1 -29.35 L-105.35 -38.1 -104.5 -39.0 M-109.2 -19.9 L-103.55 -25.5 Q-103.05 -22.85 -101.15 -21.95 L-99.8 -21.65 -106.7 -14.8 Q-107.3 -17.6 -109.2 -19.9 M-118.6 -24.85 L-118.65 -24.4 -118.65 -24.3 -119.2 -24.25 -118.6 -24.85" fill="#2b2b2b" fill-rule="evenodd" stroke="none"/>
    <path d="M-33.15 -104.15 L-37.0 -104.8 -38.8 -104.65 Q-42.3 -104.15 -44.9 -101.6 L-45.75 -100.5 -45.85 -100.45 -56.15 -90.1 -58.9 -87.4 -64.45 -81.85 -68.85 -77.45 -84.15 -62.15 -91.6 -54.7 -97.25 -49.05 -99.5 -46.8 -99.65 -46.65 -100.25 -46.1 -100.25 -46.05 -104.8 -41.5 -109.25 -37.1 -116.95 -29.4 -117.25 -29.05 -122.75 -23.55 Q-121.1 -24.2 -119.2 -24.25 L-118.65 -24.3 -118.5 -24.3 Q-116.0 -24.3 -113.85 -23.4 L-113.1 -23.05 Q-111.45 -22.25 -110.0 -20.8 L-109.2 -19.9 Q-107.3 -17.6 -106.7 -14.8 -106.45 -13.55 -106.45 -12.2 -106.45 -9.85 -107.2 -7.8 L-104.15 -10.9 -100.1 -14.9 -90.65 -24.4 -88.5 -26.5 -64.0 -51.0 -60.85 -54.2 -46.4 -68.6 -43.05 -71.95 -30.05 -85.0 -29.2 -85.85 Q-25.95 -89.1 -25.95 -93.7 L-26.05 -95.4 Q-26.5 -98.35 -28.4 -100.7 L-29.2 -101.6 Q-30.95 -103.35 -33.15 -104.15 M-28.5 -85.15 L-29.4 -84.3 -100.1 -13.55 -100.65 -13.0 -104.0 -9.65 -110.8 -2.85 -111.0 -2.7 Q-114.2 -0.1 -118.5 -0.1 -123.55 -0.1 -127.1 -3.65 -130.6 -7.2 -130.6 -12.2 -130.6 -16.35 -128.2 -19.5 L-127.3 -20.6 -127.1 -20.8 -125.9 -21.8 -110.5 -37.2 -109.9 -37.85 -109.25 -38.45 -105.6 -42.1 -100.8 -46.9 -98.1 -49.55 -98.6 -49.1 -46.6 -101.05 -45.6 -102.3 Q-42.3 -105.55 -37.7 -105.75 L-37.0 -105.8 Q-34.5 -105.8 -32.35 -104.9 -30.25 -104.05 -28.5 -102.3 L-27.7 -101.4 Q-25.8 -99.1 -25.2 -96.3 -24.95 -95.05 -24.95 -93.7 -24.95 -90.9 -26.05 -88.55 L-26.6 -87.5 -27.9 -85.8 -27.95 -85.7 -28.5 -85.15 M-119.45 -13.8 Q-119.0 -14.25 -118.15 -14.1 -116.8 -13.85 -116.6 -12.45 L-116.6 -12.2 Q-116.55 -11.05 -117.6 -10.35 -117.95 -10.1 -118.4 -9.95 L-118.6 -9.95 Q-121.9 -10.1 -122.0 -13.05 L-122.0 -13.35 -121.75 -14.5 -121.1 -15.45 Q-120.2 -16.2 -118.3 -16.25 L-118.2 -16.25 Q-115.85 -15.9 -115.05 -14.05 -114.75 -13.25 -114.7 -12.15 -114.65 -10.0 -116.1 -8.85 L-116.95 -8.3 -118.6 -7.85 -118.65 -7.85 Q-120.9 -7.75 -122.6 -9.2 -124.3 -10.6 -124.25 -13.0 -124.25 -14.2 -123.8 -15.15 L-123.3 -16.05 -122.65 -16.8 Q-121.15 -18.25 -118.95 -18.35 L-118.6 -18.35 Q-116.25 -18.3 -114.6 -16.7 L-113.65 -15.45 Q-112.9 -14.2 -112.7 -12.7 -112.3 -9.7 -114.15 -7.95 L-114.7 -7.45 Q-115.1 -7.1 -115.5 -6.85 -116.8 -6.1 -118.4 -6.05 -121.5 -5.85 -123.7 -7.7 -126.05 -9.65 -126.25 -12.75 -126.4 -14.95 -125.25 -16.6 L-124.65 -17.4 -123.95 -18.05 Q-121.55 -20.25 -118.35 -20.15 L-118.3 -20.15 -117.6 -20.1 -117.25 -20.05 Q-115.8 -19.85 -114.55 -19.05 L-112.95 -17.75 -112.2 -16.9 Q-110.7 -14.85 -110.6 -12.2 L-110.65 -10.8 Q-111.0 -8.4 -112.65 -6.55 L-113.2 -5.95 -114.0 -5.35 Q-115.9 -4.15 -118.55 -4.2 -122.15 -4.25 -125.15 -6.55 -128.2 -8.9 -128.25 -12.75 L-128.25 -12.8 Q-128.35 -15.75 -126.7 -18.05 L-126.1 -18.85 -125.6 -19.4 Q-123.95 -21.1 -121.7 -21.75 L-118.65 -22.2 -118.4 -22.2 -115.55 -21.75 -113.5 -20.8 -111.5 -19.25 -110.7 -18.35 Q-108.8 -16.0 -108.55 -12.9 L-108.55 -12.25 Q-108.5 -8.2 -111.2 -5.05 L-111.75 -4.5 -112.5 -3.85 Q-115.05 -2.0 -118.75 -2.1 -123.5 -2.25 -126.8 -5.2 L-128.15 -6.65 -126.4 -4.35 Q-123.15 -1.1 -118.5 -1.1 -114.75 -1.1 -111.9 -3.25 L-111.15 -3.9 -110.45 -4.55 Q-107.45 -7.75 -107.45 -12.2 L-107.55 -13.9 Q-108.0 -16.85 -109.9 -19.2 L-110.7 -20.1 Q-111.85 -21.25 -113.2 -22.0 L-114.65 -22.65 -118.5 -23.3 -118.55 -23.3 -120.3 -23.15 Q-123.0 -22.75 -125.15 -21.15 L-125.3 -21.0 -126.4 -20.1 -126.7 -19.75 -127.45 -18.85 -127.45 -18.8 -127.7 -18.45 Q-129.2 -16.05 -129.2 -13.05 -129.25 -8.75 -126.15 -5.95 -123.1 -3.25 -118.7 -3.1 -115.5 -3.0 -113.2 -4.55 L-112.45 -5.2 -111.95 -5.7 Q-109.6 -8.5 -109.55 -11.95 L-109.55 -12.25 Q-109.6 -15.3 -111.4 -17.65 L-112.2 -18.55 -113.9 -19.9 Q-115.05 -20.65 -116.35 -20.95 L-118.1 -21.15 -118.65 -21.2 Q-121.8 -21.2 -123.95 -19.55 L-124.9 -18.7 -125.4 -18.15 -126.0 -17.35 Q-127.3 -15.35 -127.25 -12.8 -127.2 -9.4 -124.55 -7.35 -121.85 -5.25 -118.55 -5.2 -116.35 -5.15 -114.75 -6.1 L-113.95 -6.7 -113.4 -7.2 Q-112.5 -8.25 -112.05 -9.45 -111.55 -10.7 -111.6 -12.15 -111.7 -14.45 -112.9 -16.15 L-113.65 -17.05 Q-114.8 -18.25 -116.15 -18.75 L-116.3 -18.8 -118.15 -19.15 -118.35 -19.15 Q-121.2 -19.25 -123.3 -17.3 L-123.95 -16.7 -124.55 -15.9 Q-125.4 -14.55 -125.25 -12.8 -125.05 -10.15 -123.05 -8.45 -121.1 -6.85 -118.45 -7.05 -117.25 -7.1 -116.25 -7.6 L-115.4 -8.15 -114.85 -8.65 Q-113.4 -10.1 -113.7 -12.55 L-113.7 -12.6 Q-113.8 -13.8 -114.35 -14.75 L-115.3 -16.0 Q-116.65 -17.3 -118.6 -17.35 L-120.15 -17.1 Q-121.2 -16.85 -121.95 -16.1 L-122.55 -15.3 -123.0 -14.35 -123.25 -13.0 Q-123.3 -11.1 -121.95 -9.95 -120.6 -8.8 -118.8 -8.85 L-117.75 -9.1 Q-117.25 -9.3 -116.85 -9.6 -115.7 -10.45 -115.7 -12.1 L-115.85 -13.2 Q-116.4 -14.95 -118.35 -15.25 -119.75 -15.2 -120.45 -14.65 L-120.95 -13.7 -121.0 -13.1 -120.75 -12.1 -119.9 -11.25 -118.7 -10.95 -118.35 -11.1 Q-117.65 -11.5 -117.6 -12.15 -117.65 -12.95 -118.3 -13.1 L-118.35 -13.1 -118.8 -13.05 -119.0 -12.5 -119.15 -12.15 -119.3 -12.05 -119.55 -12.05 Q-119.75 -12.05 -119.85 -12.2 L-120.0 -12.6 -119.95 -12.7 -119.45 -13.8" fill="#151515" fill-rule="evenodd" stroke="none"/>
    <path d="M-38.8 -104.65 L-44.35 -99.15 Q-45.9 -99.05 -46.75 -98.6 -48.35 -97.75 -48.35 -95.5 L-48.3 -95.15 -62.95 -80.5 Q-63.2 -81.25 -63.75 -81.6 L-64.45 -81.85 -58.9 -87.4 -58.7 -87.4 -56.8 -87.6 Q-55.8 -87.9 -55.8 -88.95 -55.8 -89.35 -56.15 -90.1 L-45.85 -100.45 -45.75 -100.5 -44.9 -101.6 Q-42.3 -104.15 -38.8 -104.65 M-91.6 -54.7 L-91.65 -54.1 -91.2 -53.0 -90.8 -52.7 -95.7 -47.75 -97.0 -48.85 -97.25 -49.05 -91.6 -54.7 M-83.65 -59.8 L-83.5 -60.95 Q-83.5 -61.85 -84.15 -62.15 L-68.85 -77.45 -68.95 -76.05 -68.8 -74.65 -83.65 -59.8 M-82.75 -38.7 L-76.15 -45.35 -75.5 -43.95 Q-74.9 -43.25 -73.35 -43.25 -72.2 -43.25 -71.2 -44.0 -70.2 -44.75 -70.2 -45.65 -70.2 -47.05 -71.3 -49.35 L-71.55 -49.9 -59.3 -62.15 -57.4 -61.85 Q-53.2 -61.85 -53.2 -65.6 -53.2 -66.75 -54.3 -67.15 L-42.6 -78.9 Q-42.25 -78.55 -41.5 -78.55 -39.8 -78.55 -38.0 -79.45 -36.3 -80.45 -35.65 -81.75 -35.95 -82.5 -36.5 -82.7 L-38.7 -82.8 -26.05 -95.4 -25.95 -93.7 Q-25.95 -89.1 -29.2 -85.85 L-30.05 -85.0 -43.05 -71.95 -45.35 -72.35 Q-46.4 -72.35 -46.75 -71.85 L-47.05 -70.5 Q-47.05 -69.65 -46.4 -68.6 L-60.85 -54.2 -62.45 -54.7 -63.55 -54.5 Q-64.1 -54.15 -64.1 -53.2 L-64.0 -51.0 -88.5 -26.5 Q-89.85 -26.3 -90.35 -25.5 L-90.65 -24.4 -100.1 -14.9 Q-100.95 -15.9 -101.85 -15.9 -102.95 -15.9 -103.35 -15.55 -104.2 -14.75 -104.2 -12.1 L-104.15 -10.9 -107.2 -7.8 Q-106.45 -9.85 -106.45 -12.2 -106.45 -13.55 -106.7 -14.8 L-99.8 -21.65 -99.4 -21.8 Q-98.6 -22.1 -98.55 -22.95 L-87.6 -33.9 Q-85.7 -33.95 -84.3 -35.35 -82.9 -36.75 -82.75 -38.7 M-100.25 -46.05 L-99.35 -45.0 -98.95 -44.5 -104.5 -39.0 Q-104.2 -39.5 -104.2 -40.05 -104.2 -40.9 -104.8 -41.5 L-100.25 -46.05 M-105.35 -38.1 L-114.1 -29.35 Q-114.75 -29.85 -115.7 -29.85 -116.4 -29.85 -116.95 -29.4 L-109.25 -37.1 -109.1 -37.1 Q-107.1 -37.1 -105.65 -37.95 L-105.35 -38.1 M-117.25 -29.05 L-118.2 -27.2 -118.6 -24.85 -119.2 -24.25 Q-121.1 -24.2 -122.75 -23.55 L-117.25 -29.05" fill="#292929" fill-rule="evenodd" stroke="none"/>
    <path d="M-44.35 -99.15 L-43.15 -99.2 -40.45 -98.95 Q-39.5 -98.6 -39.45 -97.85 L-42.45 -94.8 Q-44.3 -93.8 -46.0 -93.8 -47.35 -93.8 -47.9 -94.2 -48.25 -94.5 -48.3 -95.15 L-44.35 -99.15 M-29.3 -99.75 L-28.8 -100.05 Q-28.1 -100.05 -27.65 -99.45 -27.25 -99.0 -27.25 -98.35 -27.25 -95.35 -29.15 -93.5 -31.7 -91.05 -32.15 -89.9 -33.95 -90.85 -33.95 -92.4 -33.95 -94.45 -32.9 -96.15 L-29.3 -99.75 M-90.8 -52.7 L-83.65 -59.8 Q-84.0 -58.5 -85.05 -56.5 -87.15 -52.5 -89.9 -52.5 L-90.8 -52.7 M-87.6 -33.9 L-87.75 -33.9 Q-89.95 -33.9 -89.95 -36.2 -89.95 -37.75 -88.65 -38.6 L-84.25 -40.6 -83.05 -40.3 -82.9 -40.0 Q-82.75 -39.75 -82.75 -39.2 L-82.75 -38.7 -87.6 -33.9 M-76.15 -45.35 L-76.45 -48.25 Q-76.45 -50.95 -75.6 -51.7 -75.2 -52.1 -74.1 -52.1 -72.75 -52.1 -71.55 -49.9 L-76.15 -45.35 M-59.3 -62.15 L-59.8 -62.4 Q-60.8 -62.95 -60.8 -63.95 -60.8 -65.4 -59.45 -66.45 -58.15 -67.45 -56.1 -67.45 L-54.3 -67.15 -59.3 -62.15 M-42.6 -78.9 L-42.8 -79.2 -42.95 -80.15 Q-42.95 -82.8 -38.85 -82.8 L-38.7 -82.8 -42.6 -78.9 M-95.7 -47.75 Q-93.8 -46.0 -93.2 -44.05 L-96.6 -40.65 -97.15 -41.35 Q-98.1 -43.4 -98.95 -44.5 L-95.7 -47.75 M-74.55 -62.7 Q-75.55 -64.15 -75.55 -65.3 -75.55 -66.9 -74.35 -67.6 L-71.8 -67.75 Q-70.95 -67.5 -70.25 -67.0 L-74.55 -62.7 M-68.9 -60.2 L-68.2 -60.85 -68.5 -60.5 -68.9 -60.2 M-100.0 -29.05 Q-98.55 -26.7 -98.55 -23.1 L-98.55 -22.95 -99.8 -21.65 -101.15 -21.95 Q-103.05 -22.85 -103.55 -25.5 L-100.0 -29.05 M-114.1 -29.35 Q-113.45 -28.8 -113.2 -27.65 L-113.1 -24.2 -113.85 -23.4 Q-116.0 -24.3 -118.5 -24.3 L-118.65 -24.3 -118.65 -24.4 -118.6 -24.85 -114.1 -29.35 M-49.0 -80.1 Q-49.6 -79.1 -50.65 -78.05 L-52.55 -76.55 -49.0 -80.1 M-68.8 -74.65 L-62.95 -80.5 Q-62.8 -79.95 -62.8 -79.2 L-63.55 -75.85 Q-64.7 -72.6 -66.3 -72.6 -68.35 -72.6 -68.8 -74.65" fill="#272727" fill-rule="evenodd" stroke="none"/>
    <path d="M-44.35 -99.15 L-48.3 -95.15 -48.35 -95.5 Q-48.35 -97.75 -46.75 -98.6 -45.9 -99.05 -44.35 -99.15 M-90.8 -52.7 L-91.2 -53.0 -91.65 -54.1 -91.6 -54.7 -84.15 -62.15 Q-83.5 -61.85 -83.5 -60.95 L-83.65 -59.8 -90.8 -52.7 M-97.25 -49.05 L-97.0 -48.85 -95.7 -47.75 -98.95 -44.5 -99.35 -45.0 -100.25 -46.05 -100.25 -46.1 -99.65 -46.65 -99.5 -46.8 -97.25 -49.05 M-87.6 -33.9 L-82.75 -38.7 Q-82.9 -36.75 -84.3 -35.35 -85.7 -33.95 -87.6 -33.9 M-104.8 -41.5 Q-104.2 -40.9 -104.2 -40.05 -104.2 -39.5 -104.5 -39.0 L-105.35 -38.1 -105.65 -37.95 Q-107.1 -37.1 -109.1 -37.1 L-109.25 -37.1 -104.8 -41.5 M-99.8 -21.65 L-98.55 -22.95 Q-98.6 -22.1 -99.4 -21.8 L-99.8 -21.65 M-104.15 -10.9 L-104.2 -12.1 Q-104.2 -14.75 -103.35 -15.55 -102.95 -15.9 -101.85 -15.9 -100.95 -15.9 -100.1 -14.9 L-104.15 -10.9 M-90.65 -24.4 L-90.35 -25.5 Q-89.85 -26.3 -88.5 -26.5 L-90.65 -24.4 M-64.0 -51.0 L-64.1 -53.2 Q-64.1 -54.15 -63.55 -54.5 L-62.45 -54.7 -60.85 -54.2 -64.0 -51.0 M-46.4 -68.6 Q-47.05 -69.65 -47.05 -70.5 L-46.75 -71.85 Q-46.4 -72.35 -45.35 -72.35 L-43.05 -71.95 -46.4 -68.6 M-116.95 -29.4 Q-116.4 -29.85 -115.7 -29.85 -114.75 -29.85 -114.1 -29.35 L-118.6 -24.85 -118.2 -27.2 -117.25 -29.05 -116.95 -29.4 M-38.7 -82.8 L-36.5 -82.7 Q-35.95 -82.5 -35.65 -81.75 -36.3 -80.45 -38.0 -79.45 -39.8 -78.55 -41.5 -78.55 -42.25 -78.55 -42.6 -78.9 L-38.7 -82.8 M-58.9 -87.4 L-56.15 -90.1 Q-55.8 -89.35 -55.8 -88.95 -55.8 -87.9 -56.8 -87.6 L-58.7 -87.4 -58.9 -87.4 M-64.45 -81.85 L-63.75 -81.6 Q-63.2 -81.25 -62.95 -80.5 L-68.8 -74.65 -68.95 -76.05 -68.85 -77.45 -64.45 -81.85 M-54.3 -67.15 Q-53.2 -66.75 -53.2 -65.6 -53.2 -61.85 -57.4 -61.85 L-59.3 -62.15 -54.3 -67.15 M-71.55 -49.9 L-71.3 -49.35 Q-70.2 -47.05 -70.2 -45.65 -70.2 -44.75 -71.2 -44.0 -72.2 -43.25 -73.35 -43.25 -74.9 -43.25 -75.5 -43.95 L-76.15 -45.35 -71.55 -49.9" fill="#232323" fill-rule="evenodd" stroke="none"/>
    <path d="M-42.45 -94.8 L-39.45 -97.85 -39.45 -97.75 Q-39.45 -96.9 -41.55 -95.4 L-42.45 -94.8 M-70.25 -67.0 Q-68.05 -65.45 -68.05 -61.7 -68.05 -61.2 -68.2 -60.85 L-68.9 -60.2 -69.95 -59.95 Q-72.35 -59.95 -74.1 -62.1 L-74.55 -62.7 -70.25 -67.0 M-52.55 -76.55 Q-53.95 -75.7 -55.1 -75.8 L-55.25 -76.95 Q-55.25 -79.15 -53.0 -81.65 -50.95 -83.9 -49.45 -83.9 L-48.65 -83.85 -48.45 -83.8 -48.35 -83.45 Q-48.2 -83.15 -48.2 -82.65 -48.2 -81.45 -49.0 -80.1 L-52.55 -76.55 M-32.9 -96.15 Q-32.35 -97.2 -31.4 -98.1 -30.4 -99.15 -29.3 -99.75 L-32.9 -96.15 M-93.2 -44.05 L-92.95 -42.3 Q-92.95 -40.85 -94.0 -40.35 L-95.15 -40.15 Q-96.05 -40.15 -96.6 -40.65 L-93.2 -44.05 M-113.1 -24.2 L-113.1 -23.35 -113.1 -23.05 -113.85 -23.4 -113.1 -24.2 M-103.55 -25.5 L-103.8 -28.0 Q-103.8 -29.2 -103.35 -30.0 -102.9 -30.85 -102.05 -30.85 -101.15 -30.85 -100.0 -29.05 L-103.55 -25.5" fill="#323232" fill-rule="evenodd" stroke="none"/>
    <path d="M-119.45 -13.8 L-119.95 -12.7 -120.0 -12.6 -119.85 -12.2 Q-119.75 -12.05 -119.55 -12.05 L-119.3 -12.05 -119.15 -12.15 -119.0 -12.5 -118.8 -13.05 -118.35 -13.1 -118.3 -13.1 Q-117.65 -12.95 -117.6 -12.15 -117.65 -11.5 -118.35 -11.1 L-118.7 -10.95 -119.9 -11.25 -120.75 -12.1 -121.0 -13.1 -120.95 -13.7 -120.45 -14.65 Q-119.75 -15.2 -118.35 -15.25 -116.4 -14.95 -115.85 -13.2 L-115.7 -12.1 Q-115.7 -10.45 -116.85 -9.6 -117.25 -9.3 -117.75 -9.1 L-118.8 -8.85 Q-120.6 -8.8 -121.95 -9.95 -123.3 -11.1 -123.25 -13.0 L-123.0 -14.35 -122.55 -15.3 -121.95 -16.1 Q-121.2 -16.85 -120.15 -17.1 L-118.6 -17.35 Q-116.65 -17.3 -115.3 -16.0 L-114.35 -14.75 Q-113.8 -13.8 -113.7 -12.6 L-113.7 -12.55 Q-113.4 -10.1 -114.85 -8.65 L-115.4 -8.15 -116.25 -7.6 Q-117.25 -7.1 -118.45 -7.05 -121.1 -6.85 -123.05 -8.45 -125.05 -10.15 -125.25 -12.8 -125.4 -14.55 -124.55 -15.9 L-123.95 -16.7 -123.3 -17.3 Q-121.2 -19.25 -118.35 -19.15 L-118.15 -19.15 -116.3 -18.8 -116.15 -18.75 Q-114.8 -18.25 -113.65 -17.05 L-112.9 -16.15 Q-111.7 -14.45 -111.6 -12.15 -111.55 -10.7 -112.05 -9.45 -112.5 -8.25 -113.4 -7.2 L-113.95 -6.7 -114.75 -6.1 Q-116.35 -5.15 -118.55 -5.2 -121.85 -5.25 -124.55 -7.35 -127.2 -9.4 -127.25 -12.8 -127.3 -15.35 -126.0 -17.35 L-125.4 -18.15 -124.9 -18.7 -123.95 -19.55 Q-121.8 -21.2 -118.65 -21.2 L-118.1 -21.15 -116.35 -20.95 Q-115.05 -20.65 -113.9 -19.9 L-112.2 -18.55 -111.4 -17.65 Q-109.6 -15.3 -109.55 -12.25 L-109.55 -11.95 Q-109.6 -8.5 -111.95 -5.7 L-112.45 -5.2 -113.2 -4.55 Q-115.5 -3.0 -118.7 -3.1 -123.1 -3.25 -126.15 -5.95 -129.25 -8.75 -129.2 -13.05 -129.2 -16.05 -127.7 -18.45 L-127.45 -18.8 -127.45 -18.85 -126.7 -19.75 -126.4 -20.1 -125.3 -21.0 -125.15 -21.15 Q-123.0 -22.75 -120.3 -23.15 L-118.55 -23.3 -118.5 -23.3 -114.65 -22.65 -113.2 -22.0 Q-111.85 -21.25 -110.7 -20.1 L-109.9 -19.2 Q-108.0 -16.85 -107.55 -13.9 L-107.45 -12.2 Q-107.45 -7.75 -110.45 -4.55 L-111.15 -3.9 -111.9 -3.25 Q-114.75 -1.1 -118.5 -1.1 -123.15 -1.1 -126.4 -4.35 L-128.15 -6.65 -126.8 -5.2 Q-123.5 -2.25 -118.75 -2.1 -115.05 -2.0 -112.5 -3.85 L-111.75 -4.5 -111.2 -5.05 Q-108.5 -8.2 -108.55 -12.25 L-108.55 -12.9 Q-108.8 -16.0 -110.7 -18.35 L-111.5 -19.25 -113.5 -20.8 -115.55 -21.75 -118.4 -22.2 -118.65 -22.2 -121.7 -21.75 Q-123.95 -21.1 -125.6 -19.4 L-126.1 -18.85 -126.7 -18.05 Q-128.35 -15.75 -128.25 -12.8 L-128.25 -12.75 Q-128.2 -8.9 -125.15 -6.55 -122.15 -4.25 -118.55 -4.2 -115.9 -4.15 -114.0 -5.35 L-113.2 -5.95 -112.65 -6.55 Q-111.0 -8.4 -110.65 -10.8 L-110.6 -12.2 Q-110.7 -14.85 -112.2 -16.9 L-112.95 -17.75 -114.55 -19.05 Q-115.8 -19.85 -117.25 -20.05 L-117.6 -20.1 -118.3 -20.15 -118.35 -20.15 Q-121.55 -20.25 -123.95 -18.05 L-124.65 -17.4 -125.25 -16.6 Q-126.4 -14.95 -126.25 -12.75 -126.05 -9.65 -123.7 -7.7 -121.5 -5.85 -118.4 -6.05 -116.8 -6.1 -115.5 -6.85 -115.1 -7.1 -114.7 -7.45 L-114.15 -7.95 Q-112.3 -9.7 -112.7 -12.7 -112.9 -14.2 -113.65 -15.45 L-114.6 -16.7 Q-116.25 -18.3 -118.6 -18.35 L-118.95 -18.35 Q-121.15 -18.25 -122.65 -16.8 L-123.3 -16.05 -123.8 -15.15 Q-124.25 -14.2 -124.25 -13.0 -124.3 -10.6 -122.6 -9.2 -120.9 -7.75 -118.65 -7.85 L-118.6 -7.85 -116.95 -8.3 -116.1 -8.85 Q-114.65 -10.0 -114.7 -12.15 -114.75 -13.25 -115.05 -14.05 -115.85 -15.9 -118.2 -16.25 L-118.3 -16.25 Q-120.2 -16.2 -121.1 -15.45 L-121.75 -14.5 -122.0 -13.35 -122.0 -13.05 Q-121.9 -10.1 -118.6 -9.95 L-118.4 -9.95 Q-117.95 -10.1 -117.6 -10.35 -116.55 -11.05 -116.6 -12.2 L-116.6 -12.45 Q-116.8 -13.85 -118.15 -14.1 -119.0 -14.25 -119.45 -13.8" fill="#e2a52f" fill-rule="evenodd" stroke="none"/>
  </g>
</svg>
