<?xml version="1.0" encoding="UTF-8" standalone="no"?>
<svg xmlns:ffdec="https://www.free-decompiler.com/flash" xmlns:xlink="http://www.w3.org/1999/xlink" ffdec:objectType="shape" height="131.2px" width="68.65px" xmlns="http://www.w3.org/2000/svg">
  <g transform="matrix(1.0, 0.0, 0.0, 1.0, 30.3, 132.35)">
    <path d="M4.0 -113.0 L4.2 -113.05 4.95 -112.9 5.05 -112.75 5.2 -111.25 Q5.2 -106.75 3.1 -103.85 1.45 -101.5 -0.15 -101.5 -0.7 -101.5 -1.05 -101.85 -1.45 -102.25 -1.45 -102.95 L-1.1 -104.8 4.0 -113.0 M-15.85 -81.2 L-14.65 -85.95 -13.7 -87.05 -4.2 -87.85 Q-2.65 -88.1 3.0 -91.65 L8.5 -95.1 9.1 -94.95 9.1 -94.6 Q9.2 -93.05 6.9 -89.95 4.5 -86.75 2.8 -86.45 3.6 -83.9 -1.2 -82.4 -5.6 -81.1 -12.9 -81.1 L-15.85 -81.2 M11.05 -50.15 L1.7 -49.45 Q-2.1 -49.45 -3.65 -50.2 -4.8 -50.75 -4.15 -53.8 -3.55 -56.9 5.7 -55.0 L10.45 -54.5 Q13.7 -50.75 11.05 -50.15 M14.85 -38.8 L14.8 -38.8 Q15.8 -37.6 15.85 -36.3 15.85 -35.05 8.15 -32.45 L12.05 -27.2 Q14.05 -24.45 14.05 -23.25 14.1 -21.6 12.7 -21.55 L9.7 -21.75 Q6.1 -20.7 3.25 -20.7 L-0.75 -21.25 Q-3.5 -21.95 -4.5 -22.95 -3.55 -23.85 -1.15 -24.55 1.75 -25.45 4.4 -25.2 L5.5 -25.15 -2.6 -31.35 Q-7.0 -34.7 -7.25 -36.2 -6.2 -36.95 -1.15 -37.65 L9.85 -38.6 8.8 -38.8 8.85 -38.8 Q7.1 -39.35 5.85 -41.3 L5.1 -42.55 Q4.6 -43.6 4.5 -44.55 L5.25 -44.65 9.8 -42.5 13.1 -40.45 14.85 -38.8 M-6.85 -12.2 Q-7.5 -12.5 -7.95 -12.75 -9.45 -13.65 -9.4 -14.65 L-9.15 -15.4 -8.85 -15.6 -4.75 -15.9 -0.15 -15.7 6.2 -15.55 Q8.15 -15.55 10.45 -16.3 L16.95 -17.05 Q20.4 -17.15 21.3 -16.15 L21.55 -15.5 Q21.65 -14.7 20.65 -13.25 L20.3 -12.8 20.25 -12.7 16.4 -12.5 Q9.5 -12.1 1.95 -12.1 L0.15 -12.1 -6.85 -12.2" fill="#ffffff" fill-rule="evenodd" stroke="none"/>
    <path d="M34.95 -14.35 L34.8 -14.85 32.2 -24.0 Q30.3 -29.45 28.95 -34.85 L27.85 -38.8 27.3 -41.3 Q26.5 -45.25 25.85 -49.25 24.55 -56.6 23.5 -63.95 L23.45 -64.1 23.4 -64.65 22.85 -67.7 22.65 -69.8 20.9 -90.7 19.95 -98.55 Q18.6 -106.9 15.8 -114.4 14.55 -117.9 12.95 -121.2 L11.0 -125.0 10.45 -125.9 10.1 -126.55 8.6 -129.05 8.2 -129.75 6.8 -126.6 4.65 -122.1 4.25 -121.25 3.9 -120.45 1.35 -115.45 0.8 -114.45 -0.5 -112.05 -2.05 -108.95 -2.6 -108.05 -2.75 -107.75 -5.15 -104.3 -5.15 -104.25 -6.1 -102.8 -6.45 -102.3 -6.7 -101.95 -6.7 -101.9 -8.95 -98.8 -9.0 -98.75 -9.3 -98.35 -9.7 -97.8 -11.6 -95.4 -12.45 -94.4 -12.75 -94.05 -12.95 -93.85 -14.35 -92.3 -14.85 -91.75 -15.05 -91.6 -15.75 -90.9 -15.95 -92.1 -16.0 -92.65 -16.25 -94.15 -16.5 -96.35 -16.7 -98.3 -16.8 -100.05 -16.95 -104.55 Q-16.95 -108.05 -16.55 -111.35 L-19.3 -106.05 -20.35 -104.05 -23.5 -98.1 Q-29.9 -86.05 -28.55 -77.8 -27.55 -72.15 -22.9 -68.3 L-21.5 -67.25 Q-20.4 -66.45 -19.05 -65.75 L-18.95 -65.7 -18.3 -65.35 -17.7 -65.05 -17.7 -64.65 -17.7 -64.55 -17.7 -64.45 -17.75 -64.0 -17.75 -63.95 -18.25 -56.6 -18.45 -53.15 Q-18.85 -47.8 -19.65 -41.7 L-19.7 -41.55 -19.8 -40.85 -20.1 -38.8 -20.4 -37.5 -20.5 -36.95 -22.0 -30.35 -22.3 -29.1 -22.75 -27.45 -22.8 -27.3 Q-24.55 -21.5 -26.0 -14.6 L-26.05 -14.35 -26.05 -14.3 -26.1 -14.2 -26.2 -13.7 -26.25 -13.6 -26.25 -13.55 -26.55 -12.25 -26.6 -12.1 -26.6 -12.0 -26.8 -11.3 -27.65 -7.5 Q-27.1 -7.5 -26.2 -6.95 L-19.85 -5.3 Q-14.0 -3.9 -12.95 -3.8 L-3.65 -3.1 2.75 -2.5 7.0 -2.5 13.55 -3.1 13.75 -3.15 17.95 -3.5 20.7 -3.8 33.4 -5.8 35.45 -6.25 36.6 -6.65 35.8 -10.5 35.65 -11.15 35.4 -12.45 35.45 -12.45 35.35 -12.95 35.05 -13.85 35.05 -13.9 34.95 -14.35 M14.6 -121.2 Q21.1 -107.35 22.4 -90.8 L22.7 -87.4 23.2 -81.85 24.3 -68.8 24.4 -67.85 24.85 -64.95 24.95 -64.3 25.0 -63.95 27.35 -49.5 Q27.9 -46.15 28.6 -42.85 L28.95 -41.15 29.2 -39.7 29.4 -38.8 30.4 -35.1 Q31.8 -29.8 33.65 -24.4 L36.35 -15.1 36.45 -14.6 36.55 -14.2 36.85 -13.2 36.95 -12.75 36.95 -12.7 37.2 -11.45 37.25 -10.95 38.0 -7.3 38.3 -5.9 38.35 -5.85 36.85 -5.3 36.8 -5.35 36.6 -5.25 35.55 -4.9 33.15 -4.2 21.4 -2.1 18.4 -1.75 16.15 -1.55 13.8 -1.4 7.95 -1.15 Q-4.55 -1.25 -16.65 -3.1 L-18.3 -3.35 -18.6 -3.4 -25.45 -4.95 -27.75 -5.65 -28.0 -5.7 -29.6 -6.1 -29.55 -6.2 -29.25 -7.85 -28.3 -11.8 -28.15 -12.3 -28.1 -12.45 -27.75 -13.9 -27.8 -13.85 -27.8 -13.9 -27.65 -14.4 -27.6 -14.6 -27.4 -15.5 Q-26.0 -22.1 -24.3 -27.65 L-23.9 -29.1 -22.2 -36.05 -21.65 -38.75 -21.65 -38.8 -21.2 -41.55 -21.2 -41.75 -21.1 -42.3 -20.2 -50.5 -19.75 -56.7 -19.7 -57.3 -19.55 -60.25 -19.3 -63.95 -19.3 -64.2 -19.5 -64.3 -21.85 -65.65 -23.25 -66.65 Q-28.95 -71.0 -30.0 -77.55 -31.5 -86.25 -24.85 -98.8 L-20.35 -107.35 -19.1 -109.7 -15.8 -116.1 -13.25 -121.2 -13.05 -121.5 Q-13.95 -118.55 -14.45 -115.4 -15.2 -111.35 -15.4 -107.05 -15.65 -102.8 -15.35 -98.3 L-15.2 -96.25 -15.1 -95.15 -14.9 -93.4 -14.25 -94.2 -11.75 -97.35 -11.05 -98.25 -10.55 -98.9 -7.8 -102.8 Q-0.2 -113.95 6.2 -127.85 L7.5 -130.75 8.2 -132.35 8.9 -131.45 10.15 -129.55 10.95 -128.2 11.85 -126.6 14.6 -121.2" fill="#464646" fill-rule="evenodd" stroke="none"/>
    <path d="M6.8 -126.6 L8.2 -129.75 8.6 -129.05 10.1 -126.55 10.45 -125.9 11.0 -125.0 12.95 -121.2 Q14.55 -117.9 15.8 -114.4 18.6 -106.9 19.95 -98.55 L20.9 -90.7 22.65 -69.8 22.85 -67.7 23.4 -64.65 23.45 -64.1 23.5 -63.95 Q24.55 -56.6 25.85 -49.25 26.5 -45.25 27.3 -41.3 L27.85 -38.8 28.95 -34.85 Q30.3 -29.45 32.2 -24.0 L34.8 -14.85 34.95 -14.35 34.8 -14.35 30.25 -13.7 29.7 -13.6 29.5 -14.1 29.05 -15.35 29.0 -15.5 28.55 -17.3 27.65 -19.35 Q26.35 -22.05 24.9 -26.45 L20.75 -26.35 Q23.5 -27.8 24.4 -28.65 L25.0 -30.35 Q25.45 -32.0 25.4 -34.0 L23.95 -38.8 24.0 -38.8 23.05 -41.75 22.85 -42.35 17.85 -42.55 17.85 -42.8 Q17.85 -44.8 22.4 -45.05 L19.8 -57.95 Q17.65 -68.95 17.9 -73.3 L17.8 -74.5 Q17.4 -72.65 16.4 -70.25 L16.3 -69.95 Q16.35 -69.6 15.8 -68.35 L15.2 -67.6 14.8 -67.35 13.9 -67.55 Q13.7 -67.7 13.7 -68.45 L14.85 -74.05 14.95 -74.45 14.8 -74.5 Q15.95 -80.95 15.95 -84.9 L15.85 -86.35 15.0 -84.35 Q15.2 -84.2 14.45 -82.9 13.65 -81.55 13.5 -81.75 L13.45 -81.65 Q11.9 -79.1 11.2 -78.6 L10.4 -79.1 Q10.1 -79.35 10.1 -79.8 L12.85 -85.25 Q15.15 -90.4 15.15 -92.4 13.55 -102.0 11.3 -111.5 L8.75 -121.1 6.9 -117.9 4.0 -113.0 -1.1 -104.8 Q-3.15 -101.55 -5.15 -98.6 L-5.75 -97.8 -5.45 -97.6 Q-5.85 -97.0 -6.6 -96.55 L-8.15 -94.4 -9.9 -92.0 -11.6 -89.75 -13.7 -87.05 -14.65 -85.95 -17.45 -82.7 -17.7 -82.45 -18.2 -84.95 -19.25 -90.95 -19.55 -92.9 -20.15 -98.85 Q-25.8 -88.25 -25.8 -82.95 -25.8 -76.2 -21.2 -74.4 L-17.8 -73.75 -17.8 -73.65 -4.7 -73.1 -1.65 -73.6 2.35 -74.5 Q2.8 -73.75 2.8 -72.55 2.8 -68.05 -2.35 -64.25 -6.15 -61.4 -10.0 -60.9 -10.05 -57.7 -11.2 -51.15 L-12.7 -42.75 -12.7 -42.2 -12.8 -41.15 -9.6 -41.5 -6.3 -41.75 -5.2 -40.6 Q-6.15 -39.75 -8.3 -38.8 -9.95 -38.15 -12.2 -37.4 L-13.85 -36.8 -14.6 -32.55 -14.6 -32.45 -14.9 -32.35 -14.55 -32.45 -13.0 -32.85 -10.85 -32.4 -8.85 -31.8 -8.7 -31.2 Q-10.4 -29.6 -13.7 -29.95 -13.65 -29.4 -17.4 -15.2 L-16.65 -13.25 -16.45 -12.7 -16.65 -12.75 -26.1 -13.7 -26.2 -13.7 -26.1 -14.2 -26.05 -14.3 -26.05 -14.35 -26.0 -14.6 Q-24.55 -21.5 -22.8 -27.3 L-22.75 -27.45 -22.3 -29.1 -22.0 -30.35 -20.5 -36.95 -20.4 -37.5 -20.1 -38.8 -19.8 -40.85 -19.7 -41.55 -19.65 -41.7 Q-18.85 -47.8 -18.45 -53.15 L-18.25 -56.6 -17.75 -63.95 -17.75 -64.0 -17.7 -64.45 -17.7 -64.55 -17.7 -64.65 -17.7 -65.05 -18.3 -65.35 -18.95 -65.7 -19.05 -65.75 Q-20.4 -66.45 -21.5 -67.25 L-22.9 -68.3 Q-27.55 -72.15 -28.55 -77.8 -29.9 -86.05 -23.5 -98.1 L-20.35 -104.05 -19.3 -106.05 -16.55 -111.35 Q-16.95 -108.05 -16.95 -104.55 L-18.7 -101.5 -19.3 -100.4 -19.15 -97.35 -19.1 -96.25 -19.05 -95.9 -18.95 -94.65 -18.9 -94.3 -18.75 -92.8 -18.45 -90.7 -18.25 -89.5 -17.65 -86.4 -17.2 -84.3 -16.9 -84.65 -15.25 -86.65 -14.45 -87.65 -13.15 -89.3 -12.95 -89.55 -12.65 -89.95 -11.55 -91.4 -11.1 -92.0 -9.7 -93.95 -9.45 -94.25 -8.85 -95.1 -8.25 -95.9 -6.75 -98.1 -6.45 -98.55 -6.45 -98.5 -6.35 -98.65 -6.05 -99.1 -2.3 -104.75 -2.55 -105.6 -2.7 -107.35 -2.75 -107.75 -2.6 -108.05 -2.05 -108.95 -1.9 -108.45 -1.3 -106.35 1.3 -110.6 1.1 -113.35 0.8 -114.45 1.35 -115.45 2.25 -112.2 4.95 -116.95 3.9 -120.45 4.25 -121.25 4.65 -122.1 5.4 -120.25 5.75 -118.35 6.2 -119.2 8.2 -122.9 6.8 -126.6 M35.35 -12.95 L35.45 -12.45 35.4 -12.45 35.65 -11.15 35.8 -10.5 36.6 -6.65 35.45 -6.25 33.4 -5.8 20.7 -3.8 17.95 -3.5 13.75 -3.15 13.55 -3.1 7.0 -2.5 2.75 -2.5 -3.65 -3.1 -12.95 -3.8 Q-14.0 -3.9 -19.85 -5.3 L-26.2 -6.95 Q-27.1 -7.5 -27.65 -7.5 L-26.8 -11.3 -26.6 -12.0 -26.6 -12.1 -26.55 -12.25 -16.05 -11.2 -13.25 -11.0 0.15 -10.6 1.95 -10.6 Q9.5 -10.6 16.4 -11.0 L21.35 -11.3 25.55 -11.7 25.6 -11.7 28.9 -12.05 30.25 -12.2 35.35 -12.95 M27.1 -13.35 L27.25 -13.5 27.4 -13.35 27.1 -13.35 M4.4 -8.7 L4.4 -3.95 10.4 -4.05 10.4 -8.85 4.4 -8.7 M-3.45 -8.8 L-3.45 -4.35 2.8 -4.0 2.8 -8.7 -3.45 -8.8 M17.8 -9.3 L17.8 -4.65 22.55 -5.3 22.55 -9.8 17.8 -9.3 M11.8 -8.9 L11.8 -4.15 16.8 -4.55 16.8 -9.25 11.8 -8.9 M23.65 -9.95 L23.65 -5.5 27.55 -6.25 27.55 -10.5 23.65 -9.95 M31.3 -11.15 L28.55 -10.65 28.55 -6.5 31.45 -7.2 31.3 -11.15 M-22.95 -10.5 L-23.05 -7.6 -18.45 -6.55 -18.45 -9.95 -22.95 -10.5 M-10.1 -9.15 L-10.1 -5.1 -4.85 -4.45 -4.85 -8.85 -10.1 -9.15 M-17.35 -9.8 L-17.35 -6.3 -11.45 -5.3 -11.45 -9.25 -17.35 -9.8" fill="#8a8a8a" fill-rule="evenodd" stroke="none"/>
    <path d="M-16.95 -104.55 L-16.8 -100.05 -17.65 -98.55 -19.1 -96.25 -19.15 -97.35 -19.3 -100.4 -18.7 -101.5 -16.95 -104.55 M-16.25 -94.15 L-16.0 -92.65 -15.95 -92.1 -15.75 -90.9 -15.05 -91.6 -15.05 -88.9 -15.25 -86.65 -16.9 -84.65 -17.2 -84.3 -17.65 -86.4 -18.25 -89.5 -16.75 -93.0 -16.25 -94.15 M-11.6 -95.4 L-9.7 -97.8 -9.7 -97.65 -9.7 -93.95 -11.1 -92.0 -11.55 -91.4 -11.6 -92.0 -11.6 -95.4 M-6.1 -102.8 L-5.15 -104.25 -5.15 -104.3 -2.75 -107.75 -2.7 -107.35 -2.55 -105.6 -2.3 -104.75 -6.05 -99.1 -5.7 -99.6 -5.75 -99.85 -6.1 -102.8 M-2.05 -108.95 L-0.5 -112.05 0.8 -114.45 1.1 -113.35 1.3 -110.6 -1.3 -106.35 -1.9 -108.45 -2.05 -108.95 M1.35 -115.45 L3.9 -120.45 4.95 -116.95 2.25 -112.2 1.35 -115.45 M4.65 -122.1 L6.8 -126.6 8.2 -122.9 6.2 -119.2 5.75 -118.35 5.4 -120.25 4.65 -122.1 M-18.9 -94.3 L-18.95 -94.65 -18.4 -95.55 -18.9 -94.3" fill="#b4b4b4" fill-rule="evenodd" stroke="none"/>
    <path d="M-16.8 -100.05 L-16.7 -98.3 -16.5 -96.35 -16.25 -94.15 -16.75 -93.0 -18.25 -89.5 -18.45 -90.7 -18.75 -92.8 -18.9 -94.3 -18.4 -95.55 -18.95 -94.65 -19.05 -95.9 -19.1 -96.25 -17.65 -98.55 -16.8 -100.05 M-15.05 -91.6 L-14.85 -91.75 -14.35 -92.3 -12.95 -93.85 -12.75 -94.05 -12.45 -94.4 -11.6 -95.4 -11.6 -92.0 -11.55 -91.4 -12.65 -89.95 -12.95 -89.55 -13.15 -89.3 -14.45 -87.65 -15.25 -86.65 -15.05 -88.9 -15.05 -91.6 M-9.7 -97.8 L-9.3 -98.35 -9.0 -98.75 -8.95 -98.8 -6.7 -101.9 -6.7 -101.95 -6.45 -102.3 -6.1 -102.8 -5.75 -99.85 -5.7 -99.6 -6.05 -99.1 -6.35 -98.65 -6.45 -98.5 -6.45 -98.55 -6.75 -98.1 -8.25 -95.9 -8.85 -95.1 -9.45 -94.25 -9.7 -93.95 -9.7 -97.65 -9.7 -97.8 M6.9 -117.9 L7.0 -117.7 Q8.1 -115.5 8.7 -113.25 9.7 -110.35 9.7 -108.65 L9.6 -108.8 9.4 -109.0 9.25 -106.05 9.0 -106.15 8.95 -106.1 9.1 -105.45 Q7.55 -98.6 -2.45 -98.6 L-5.15 -98.6 Q-3.15 -101.55 -1.1 -104.8 L-1.45 -102.95 Q-1.45 -102.25 -1.05 -101.85 -0.7 -101.5 -0.15 -101.5 1.45 -101.5 3.1 -103.85 5.2 -106.75 5.2 -111.25 L5.05 -112.75 4.95 -112.9 4.2 -113.05 4.0 -113.0 6.9 -117.9 M-8.15 -94.4 L-6.3 -94.85 -2.55 -95.5 Q-1.85 -95.5 -1.5 -95.15 L-0.8 -93.85 Q-1.45 -92.9 -2.2 -92.65 L-9.9 -92.0 -8.15 -94.4 M-11.6 -89.75 L-3.25 -90.7 Q-1.75 -90.85 4.9 -95.6 L11.3 -100.35 11.9 -100.2 11.85 -100.05 11.9 -98.8 11.9 -98.75 12.2 -97.15 12.0 -95.75 12.15 -94.75 Q12.0 -92.6 9.3 -86.6 6.65 -80.7 2.85 -79.0 -0.95 -77.25 -11.5 -77.25 L-16.05 -77.65 -15.9 -78.65 -15.6 -81.15 -16.65 -81.3 -16.3 -81.25 -15.85 -81.2 -12.9 -81.1 Q-5.6 -81.1 -1.2 -82.4 3.6 -83.9 2.8 -86.45 4.5 -86.75 6.9 -89.95 9.2 -93.05 9.1 -94.6 L9.1 -94.95 8.5 -95.1 3.0 -91.65 Q-2.65 -88.1 -4.2 -87.85 L-13.7 -87.05 -11.6 -89.75 M-12.9 -12.45 L-12.75 -12.95 -11.7 -16.6 Q-10.25 -21.3 -10.25 -21.85 -10.15 -25.75 -9.05 -26.6 -7.95 -27.55 -1.75 -28.6 -3.7 -30.4 -8.35 -32.9 -11.25 -34.5 -11.2 -36.3 -11.2 -36.85 -8.8 -37.9 L-6.55 -38.8 -6.5 -38.8 2.05 -41.6 0.3 -42.6 -7.1 -47.0 Q-8.55 -48.0 -8.55 -53.05 -8.55 -54.45 -1.95 -59.0 5.3 -63.95 5.95 -64.95 L8.65 -71.0 Q11.35 -76.8 12.0 -76.8 L13.05 -76.5 13.1 -75.35 Q13.1 -73.6 11.9 -70.05 L7.2 -57.75 11.6 -58.75 13.45 -59.15 12.65 -58.95 13.9 -58.05 Q16.55 -56.05 16.55 -52.7 16.55 -50.75 15.15 -48.3 L14.15 -46.7 11.05 -45.85 15.45 -42.25 17.25 -40.85 19.7 -38.15 22.95 -33.85 22.75 -34.05 Q21.15 -30.3 20.65 -31.15 L20.85 -31.0 20.35 -30.8 18.0 -30.45 16.3 -30.55 Q14.05 -29.5 14.1 -27.1 14.1 -23.85 17.45 -22.8 L21.3 -19.55 25.0 -15.5 25.15 -15.3 22.9 -12.95 21.35 -12.8 20.65 -12.75 20.25 -12.7 20.3 -12.8 20.65 -13.25 Q21.65 -14.7 21.55 -15.5 L21.3 -16.15 Q20.4 -17.15 16.95 -17.05 L10.45 -16.3 Q8.15 -15.55 6.2 -15.55 L-0.15 -15.7 -4.75 -15.9 -8.85 -15.6 -9.15 -15.4 -9.4 -14.65 Q-9.45 -13.65 -7.95 -12.75 -7.5 -12.5 -6.85 -12.2 L-7.95 -12.25 -12.75 -12.45 -12.9 -12.45 M14.85 -38.8 L13.1 -40.45 9.8 -42.5 5.25 -44.65 4.5 -44.55 Q4.6 -43.6 5.1 -42.55 L5.85 -41.3 Q7.1 -39.35 8.85 -38.8 L8.8 -38.8 9.85 -38.6 -1.15 -37.65 Q-6.2 -36.95 -7.25 -36.2 -7.0 -34.7 -2.6 -31.35 L5.5 -25.15 4.4 -25.2 Q1.75 -25.45 -1.15 -24.55 -3.55 -23.85 -4.5 -22.95 -3.5 -21.95 -0.75 -21.25 L3.25 -20.7 Q6.1 -20.7 9.7 -21.75 L12.7 -21.55 Q14.1 -21.6 14.05 -23.25 14.05 -24.45 12.05 -27.2 L8.15 -32.45 Q15.85 -35.05 15.85 -36.3 15.8 -37.6 14.8 -38.8 L14.85 -38.8 M11.05 -50.15 Q13.7 -50.75 10.45 -54.5 L5.7 -55.0 Q-3.55 -56.9 -4.15 -53.8 -4.8 -50.75 -3.65 -50.2 -2.1 -49.45 1.7 -49.45 L11.05 -50.15" fill="#e0e0e0" fill-rule="evenodd" stroke="none"/>
    <path d="M34.95 -14.35 L35.05 -13.9 35.05 -13.85 35.35 -12.95 30.25 -12.2 28.9 -12.05 25.6 -11.7 25.55 -11.7 21.35 -11.3 16.4 -11.0 Q9.5 -10.6 1.95 -10.6 L0.15 -10.6 -13.25 -11.0 -16.05 -11.2 -26.55 -12.25 -26.25 -13.55 -26.25 -13.6 -26.2 -13.7 -26.1 -13.7 -16.65 -12.75 -16.45 -12.7 -16.05 -12.7 -13.25 -12.5 -12.9 -12.45 -12.75 -12.45 -7.95 -12.25 -6.85 -12.2 0.15 -12.1 1.95 -12.1 Q9.5 -12.1 16.4 -12.5 L20.25 -12.7 20.65 -12.75 21.35 -12.8 22.9 -12.95 23.45 -13.0 25.55 -13.2 27.1 -13.35 27.4 -13.35 28.9 -13.55 29.5 -13.6 29.7 -13.6 30.25 -13.7 34.8 -14.35 34.95 -14.35" fill="#616161" fill-rule="evenodd" stroke="none"/>
    <path d="M-5.15 -98.6 L-2.45 -98.6 Q7.55 -98.6 9.1 -105.45 L8.95 -106.1 9.0 -106.15 9.25 -106.05 9.4 -109.0 9.6 -108.8 9.7 -108.65 Q9.7 -110.35 8.7 -113.25 8.1 -115.5 7.0 -117.7 L6.9 -117.9 8.75 -121.1 11.3 -111.5 Q13.55 -102.0 15.15 -92.4 15.15 -90.4 12.85 -85.25 L10.1 -79.8 Q10.1 -79.35 10.4 -79.1 L11.2 -78.6 Q11.9 -79.1 13.45 -81.65 L13.5 -81.75 Q13.65 -81.55 14.45 -82.9 15.2 -84.2 15.0 -84.35 L15.85 -86.35 15.95 -84.9 Q15.95 -80.95 14.8 -74.5 L14.95 -74.45 14.85 -74.05 13.7 -68.45 Q13.7 -67.7 13.9 -67.55 L14.8 -67.35 15.2 -67.6 15.8 -68.35 Q16.35 -69.6 16.3 -69.95 L16.4 -70.25 Q17.4 -72.65 17.8 -74.5 L17.9 -73.3 Q17.65 -68.95 19.8 -57.95 L22.4 -45.05 Q17.85 -44.8 17.85 -42.8 L17.85 -42.55 22.85 -42.35 23.05 -41.75 24.0 -38.8 23.95 -38.8 25.4 -34.0 Q25.45 -32.0 25.0 -30.35 L24.4 -28.65 Q23.5 -27.8 20.75 -26.35 L24.9 -26.45 Q26.35 -22.05 27.65 -19.35 L28.55 -17.3 29.0 -15.5 29.05 -15.35 29.5 -14.1 29.7 -13.6 29.5 -13.6 28.9 -13.55 27.4 -13.35 27.25 -13.5 27.1 -13.35 25.55 -13.2 23.45 -13.0 22.9 -12.95 25.15 -15.3 25.0 -15.5 21.3 -19.55 17.45 -22.8 Q14.1 -23.85 14.1 -27.1 14.05 -29.5 16.3 -30.55 L18.0 -30.45 20.35 -30.8 20.85 -31.0 20.65 -31.15 Q21.15 -30.3 22.75 -34.05 L22.95 -33.85 19.7 -38.15 17.25 -40.85 15.45 -42.25 11.05 -45.85 14.15 -46.7 15.15 -48.3 Q16.55 -50.75 16.55 -52.7 16.55 -56.05 13.9 -58.05 L12.65 -58.95 13.45 -59.15 11.6 -58.75 7.2 -57.75 11.9 -70.05 Q13.1 -73.6 13.1 -75.35 L13.05 -76.5 12.0 -76.8 Q11.35 -76.8 8.65 -71.0 L5.95 -64.95 Q5.3 -63.95 -1.95 -59.0 -8.55 -54.45 -8.55 -53.05 -8.55 -48.0 -7.1 -47.0 L0.3 -42.6 2.05 -41.6 -6.5 -38.8 -6.55 -38.8 -8.8 -37.9 Q-11.2 -36.85 -11.2 -36.3 -11.25 -34.5 -8.35 -32.9 -3.7 -30.4 -1.75 -28.6 -7.95 -27.55 -9.05 -26.6 -10.15 -25.75 -10.25 -21.85 -10.25 -21.3 -11.7 -16.6 L-12.75 -12.95 -12.9 -12.45 -13.25 -12.5 -16.05 -12.7 -16.45 -12.7 -16.65 -13.25 -17.4 -15.2 Q-13.65 -29.4 -13.7 -29.95 -10.4 -29.6 -8.7 -31.2 L-8.85 -31.8 -10.85 -32.4 -13.0 -32.85 -14.55 -32.45 -14.9 -32.35 -14.6 -32.45 -14.6 -32.55 -13.85 -36.8 -12.2 -37.4 Q-9.95 -38.15 -8.3 -38.8 -6.15 -39.75 -5.2 -40.6 L-6.3 -41.75 -9.6 -41.5 -12.8 -41.15 -12.7 -42.2 -12.7 -42.75 -11.2 -51.15 Q-10.05 -57.7 -10.0 -60.9 -6.15 -61.4 -2.35 -64.25 2.8 -68.05 2.8 -72.55 2.8 -73.75 2.35 -74.5 L-1.65 -73.6 -4.7 -73.1 -17.8 -73.65 -17.8 -73.75 -21.2 -74.4 Q-25.8 -76.2 -25.8 -82.95 -25.8 -88.25 -20.15 -98.85 L-19.55 -92.9 -19.25 -90.95 -18.2 -84.95 -17.7 -82.45 -17.45 -82.7 -14.65 -85.95 -15.85 -81.2 -16.3 -81.25 -16.65 -81.3 -15.6 -81.15 -15.9 -78.65 -16.05 -77.65 -11.5 -77.25 Q-0.95 -77.25 2.85 -79.0 6.65 -80.7 9.3 -86.6 12.0 -92.6 12.15 -94.75 L12.0 -95.75 12.2 -97.15 11.9 -98.75 11.9 -98.8 11.85 -100.05 11.9 -100.2 11.3 -100.35 4.9 -95.6 Q-1.75 -90.85 -3.25 -90.7 L-11.6 -89.75 -9.9 -92.0 -2.2 -92.65 Q-1.45 -92.9 -0.8 -93.85 L-1.5 -95.15 Q-1.85 -95.5 -2.55 -95.5 L-6.3 -94.85 -8.15 -94.4 -6.6 -96.55 Q-5.85 -97.0 -5.45 -97.6 L-5.75 -97.8 -5.15 -98.6 M-3.45 -8.8 L2.8 -8.7 2.8 -4.0 -3.45 -4.35 -3.45 -8.8 M4.4 -8.7 L10.4 -8.85 10.4 -4.05 4.4 -3.95 4.4 -8.7 M11.8 -8.9 L16.8 -9.25 16.8 -4.55 11.8 -4.15 11.8 -8.9 M17.8 -9.3 L22.55 -9.8 22.55 -5.3 17.8 -4.65 17.8 -9.3 M31.3 -11.15 L31.45 -7.2 28.55 -6.5 28.55 -10.65 31.3 -11.15 M23.65 -9.95 L27.55 -10.5 27.55 -6.25 23.65 -5.5 23.65 -9.95 M-22.95 -10.5 L-18.45 -9.95 -18.45 -6.55 -23.05 -7.6 -22.95 -10.5 M-17.35 -9.8 L-11.45 -9.25 -11.45 -5.3 -17.35 -6.3 -17.35 -9.8 M-10.1 -9.15 L-4.85 -8.85 -4.85 -4.45 -10.1 -5.1 -10.1 -9.15" fill="#b3b3b3" fill-rule="evenodd" stroke="none"/>
  </g>
</svg>
