<?xml version="1.0" encoding="UTF-8" standalone="no"?>
<svg xmlns:ffdec="https://www.free-decompiler.com/flash" xmlns:xlink="http://www.w3.org/1999/xlink" ffdec:objectType="shape" height="69.7px" width="109.3px" xmlns="http://www.w3.org/2000/svg">
  <g transform="matrix(1.0, 0.0, 0.0, 1.0, 78.45, 67.05)">
    <path d="M18.9 -27.95 L17.15 -30.35 Q18.35 -35.55 20.9 -40.85 24.3 -39.55 25.15 -35.95 26.05 -31.95 25.85 -27.85 L27.8 -28.6 Q29.6 -21.55 28.0 -14.4 L29.1 -15.35 Q30.75 -13.1 30.65 -11.65 30.5 -9.9 29.95 -8.35 L29.3 -6.65 30.85 -5.75 Q30.55 -2.6 27.8 0.15 26.45 1.55 25.65 2.65 L25.95 0.15 26.8 -0.65 27.05 -1.2 27.7 -1.85 29.95 -4.55 Q28.4 -4.15 27.1 -5.4 29.8 -9.4 29.0 -13.4 L25.95 -9.7 Q27.9 -18.2 27.2 -26.85 L24.85 -24.3 Q25.05 -35.7 21.2 -38.7 L18.7 -31.85 18.7 -31.4 18.4 -30.95 18.4 -30.5 18.9 -27.95" fill="#606060" fill-rule="evenodd" stroke="none"/>
    <path d="M25.95 0.15 L26.15 -4.2 25.85 -9.65 25.05 -14.0 Q23.8 -19.45 21.25 -24.3 L18.9 -27.95 18.4 -30.5 18.4 -30.95 18.7 -31.4 18.7 -31.85 21.2 -38.7 Q25.05 -35.7 24.85 -24.3 L27.2 -26.85 Q27.9 -18.2 25.95 -9.7 L29.0 -13.4 Q29.8 -9.4 27.1 -5.4 28.4 -4.15 29.95 -4.55 L27.7 -1.85 27.05 -1.2 26.8 -0.65 25.95 0.15" fill="#989898" fill-rule="evenodd" stroke="none"/>
    <path d="M-75.1 -27.0 L-75.35 -25.95 -75.0 -27.65 -75.1 -27.0" fill="#2e3946" fill-rule="evenodd" stroke="none"/>
    <path d="M-43.9 -22.65 L-45.5 -25.35 Q-46.65 -27.6 -47.3 -28.2 -48.25 -29.25 -49.7 -29.75 L-51.9 -30.2 Q-54.6 -30.2 -57.05 -28.55 -59.2 -27.1 -60.75 -24.65 L-61.15 -23.05 Q-61.55 -24.7 -61.55 -25.65 -61.55 -27.75 -60.8 -29.75 -59.55 -32.95 -57.0 -33.65 -64.3 -34.45 -69.3 -29.2 -74.55 -23.75 -73.1 -15.65 -76.35 -17.3 -77.45 -19.15 -78.45 -20.8 -78.45 -23.85 -78.45 -32.95 -72.5 -39.85 -65.8 -47.7 -54.65 -48.0 L-55.55 -49.25 -55.55 -50.25 -51.1 -50.45 Q-49.55 -50.45 -47.9 -49.7 L-44.0 -48.1 -50.8 -56.45 Q-49.0 -57.25 -42.35 -58.85 -35.4 -57.4 -33.5 -56.55 -33.45 -58.75 -31.7 -61.95 -29.6 -65.75 -26.75 -67.05 -24.2 -62.1 -21.75 -56.75 L-21.45 -58.7 -20.9 -61.1 Q-18.55 -60.75 -14.95 -58.4 -10.7 -55.6 -9.05 -52.35 L-5.05 -61.05 -4.2 -61.5 -1.5 -50.2 -0.15 -51.5 1.75 -53.1 Q2.45 -52.8 2.6 -49.5 3.8 -52.1 6.85 -54.6 9.4 -56.8 10.95 -57.2 L16.3 -41.7 Q18.55 -42.4 19.9 -44.05 21.3 -45.8 21.05 -48.05 L21.75 -48.25 Q23.3 -45.75 23.85 -42.6 L24.15 -37.15 Q22.2 -28.25 20.9 -26.0 20.45 -25.15 19.7 -24.8 18.55 -24.25 16.35 -24.25 L16.8 -24.5 Q20.4 -27.35 21.7 -29.95 22.95 -32.35 22.95 -36.05 L22.0 -43.9 Q18.85 -39.3 15.9 -39.3 14.35 -39.3 12.15 -46.3 10.2 -52.75 10.25 -54.8 L2.3 -46.85 Q2.1 -46.85 1.85 -47.35 1.25 -48.25 1.0 -50.45 -0.05 -48.9 -1.75 -47.7 -2.65 -48.9 -3.8 -51.75 -5.15 -55.05 -4.7 -56.05 L-4.7 -57.55 Q-4.8 -55.5 -6.6 -52.75 -7.95 -50.65 -9.0 -49.85 L-18.95 -59.45 -20.2 -59.45 -20.3 -55.35 Q-19.95 -54.85 -20.9 -54.85 -21.45 -54.85 -23.0 -55.85 -24.95 -57.15 -25.5 -58.65 L-26.9 -62.8 Q-27.3 -64.7 -27.7 -64.15 L-31.05 -59.45 -33.05 -53.65 Q-33.7 -54.85 -36.4 -55.8 -39.0 -56.75 -41.5 -56.75 L-47.65 -56.5 -40.6 -44.45 Q-40.6 -43.65 -41.65 -43.3 -42.85 -44.95 -46.5 -47.0 -50.7 -49.25 -52.95 -48.75 -52.55 -47.8 -52.55 -46.85 -52.55 -45.7 -52.7 -45.55 L-53.85 -45.5 Q-57.65 -45.85 -63.15 -44.55 -68.55 -42.0 -72.4 -36.8 -76.7 -31.15 -76.7 -25.3 L-76.3 -22.45 -75.3 -18.7 -74.95 -19.75 Q-75.7 -27.6 -70.25 -31.6 -65.6 -35.05 -57.6 -35.05 -52.6 -35.05 -48.45 -31.25 -44.45 -27.55 -43.9 -22.65 M-57.45 -31.0 Q-55.5 -32.0 -52.15 -32.5 -54.4 -33.3 -57.45 -31.0" fill="#606060" fill-rule="evenodd" stroke="none"/>
    <path d="M-32.3 -25.0 Q-34.05 -25.4 -36.3 -26.4 L-36.55 -24.85 Q-36.8 -23.2 -37.05 -23.05 -36.6 -29.1 -40.35 -35.5 -44.4 -42.4 -51.4 -45.95 L-52.0 -43.75 -56.2 -44.2 -63.15 -44.55 Q-57.65 -45.85 -53.85 -45.5 L-52.7 -45.55 Q-52.55 -45.7 -52.55 -46.85 -52.55 -47.8 -52.95 -48.75 -50.7 -49.25 -46.5 -47.0 -42.85 -44.95 -41.65 -43.3 -40.6 -43.65 -40.6 -44.45 L-47.65 -56.5 -41.5 -56.75 Q-39.0 -56.75 -36.4 -55.8 -33.7 -54.85 -33.05 -53.65 L-31.05 -59.45 -31.25 -53.6 Q-31.25 -47.5 -30.0 -40.65 -28.7 -33.5 -27.0 -30.95 -26.1 -29.0 -29.55 -31.9 -30.45 -32.9 -31.2 -34.35 -32.35 -36.65 -33.3 -42.35 -34.35 -48.85 -33.8 -53.5 -36.65 -54.7 -38.2 -55.0 L-43.7 -55.5 Q-41.35 -52.15 -38.45 -45.75 -33.95 -35.6 -32.3 -25.0 M-40.0 -22.2 L-41.7 -22.35 -43.9 -22.65 Q-44.45 -27.55 -48.45 -31.25 -52.6 -35.05 -57.6 -35.05 -65.6 -35.05 -70.25 -31.6 -75.7 -27.6 -74.95 -19.75 -75.95 -27.5 -70.2 -33.9 -64.25 -40.45 -55.85 -40.45 -48.55 -40.45 -43.85 -34.7 -39.35 -29.25 -40.0 -22.2 M-27.7 -64.15 Q-27.3 -64.7 -26.9 -62.8 L-25.5 -58.65 Q-24.95 -57.15 -23.0 -55.85 -21.45 -54.85 -20.9 -54.85 -19.95 -54.85 -20.3 -55.35 L-20.2 -59.45 -18.95 -59.45 -9.0 -49.85 Q-7.95 -50.65 -6.6 -52.75 -4.8 -55.5 -4.7 -57.55 L-4.7 -56.05 Q-5.15 -55.05 -3.8 -51.75 -2.65 -48.9 -1.75 -47.7 -0.05 -48.9 1.0 -50.45 1.25 -48.25 1.85 -47.35 2.1 -46.85 2.3 -46.85 L10.25 -54.8 Q10.2 -52.75 12.15 -46.3 14.35 -39.3 15.9 -39.3 18.85 -39.3 22.0 -43.9 L22.95 -36.05 Q22.95 -32.35 21.7 -29.95 20.4 -27.35 16.8 -24.5 L17.45 -27.4 17.95 -29.7 Q17.95 -35.4 16.75 -37.55 L14.55 -34.3 Q10.65 -43.85 9.15 -53.4 L-2.4 -38.7 Q-8.6 -48.25 -18.15 -58.25 -18.2 -48.55 -14.6 -40.25 L-23.75 -55.25 Q-27.55 -61.7 -27.7 -64.15 M0.15 -46.5 L0.0 -46.7 -1.45 -44.6 Q-0.9 -44.2 0.15 -46.5 M21.6 -35.35 L21.05 -40.15 19.4 -30.3 20.15 -30.6 21.6 -35.35 M-2.85 -42.95 L-4.05 -48.35 Q-4.65 -51.85 -5.15 -53.5 -5.85 -52.95 -5.85 -50.1 -5.85 -46.65 -4.9 -44.4 -4.2 -42.7 -3.55 -42.7 -2.6 -42.7 -2.85 -42.95 M-53.1 -37.65 L-53.8 -37.35 Q-50.2 -35.8 -46.35 -31.75 -43.1 -28.35 -42.25 -26.25 -42.6 -29.4 -45.45 -32.8 -48.75 -36.65 -53.1 -37.65 M-57.45 -31.0 Q-54.4 -33.3 -52.15 -32.5 -55.5 -32.0 -57.45 -31.0 M-37.65 -35.25 Q-37.65 -38.65 -38.05 -39.35 L-39.3 -40.75 -37.65 -35.25" fill="#989898" fill-rule="evenodd" stroke="none"/>
    <path d="M16.35 -24.25 Q10.3 -27.05 7.8 -27.8 4.8 -28.75 -1.25 -29.6 L-9.95 -30.45 Q-11.1 -30.75 -12.75 -33.85 -13.45 -31.75 -15.05 -31.3 -15.75 -30.3 -16.75 -30.3 -17.45 -30.3 -18.5 -31.4 L-20.9 -34.45 Q-21.45 -32.2 -22.45 -31.05 -24.15 -29.15 -32.3 -25.0 -33.95 -35.6 -38.45 -45.75 -41.35 -52.15 -43.7 -55.5 L-38.2 -55.0 Q-36.65 -54.7 -33.8 -53.5 -34.35 -48.85 -33.3 -42.35 -32.35 -36.65 -31.2 -34.35 -30.45 -32.9 -29.55 -31.9 -26.1 -29.0 -27.0 -30.95 -28.7 -33.5 -30.0 -40.65 -31.25 -47.5 -31.25 -53.6 L-31.05 -59.45 -27.7 -64.15 Q-27.55 -61.7 -23.75 -55.25 L-14.6 -40.25 Q-18.2 -48.55 -18.15 -58.25 -8.6 -48.25 -2.4 -38.7 L9.15 -53.4 Q10.65 -43.85 14.55 -34.3 L16.75 -37.55 Q17.95 -35.4 17.95 -29.7 L17.45 -27.4 16.8 -24.5 16.35 -24.25 M-37.05 -23.05 L-40.0 -22.2 Q-39.35 -29.25 -43.85 -34.7 -48.55 -40.45 -55.85 -40.45 -64.25 -40.45 -70.2 -33.9 -75.95 -27.5 -74.95 -19.75 L-75.3 -18.7 -76.3 -22.45 -76.7 -25.3 Q-76.7 -31.15 -72.4 -36.8 -68.55 -42.0 -63.15 -44.55 L-56.2 -44.2 -52.0 -43.75 -51.4 -45.95 Q-44.4 -42.4 -40.35 -35.5 -36.6 -29.1 -37.05 -23.05 M21.6 -35.35 L20.15 -30.6 19.4 -30.3 21.05 -40.15 21.6 -35.35 M0.15 -46.5 Q-0.9 -44.2 -1.45 -44.6 L0.0 -46.7 0.15 -46.5 M16.7 -27.8 Q16.55 -28.25 16.7 -30.05 16.7 -31.7 15.65 -32.35 L14.0 -28.95 Q15.05 -27.0 15.6 -26.95 L16.7 -27.8 M9.25 -34.65 Q9.95 -38.2 9.1 -43.95 8.4 -48.9 7.8 -49.5 6.85 -43.8 4.9 -40.45 2.6 -36.55 -2.55 -32.85 -0.35 -32.55 1.85 -33.6 3.05 -34.2 5.6 -36.05 4.35 -32.95 3.9 -30.7 L7.25 -31.55 Q7.2 -30.4 8.2 -29.8 8.65 -29.55 9.3 -29.4 9.95 -29.65 10.4 -30.4 11.35 -31.75 11.35 -34.2 L11.05 -35.75 9.25 -34.65 M-22.05 -47.0 L-24.85 -52.55 Q-28.1 -58.85 -28.95 -61.0 L-29.2 -53.4 Q-29.2 -41.6 -26.9 -37.7 -26.15 -36.45 -25.15 -36.05 L-24.1 -35.8 Q-24.85 -39.45 -24.75 -42.9 L-17.0 -34.05 -16.85 -36.25 Q-16.85 -38.05 -18.25 -41.65 -19.75 -45.65 -21.55 -47.5 L-21.95 -47.2 -22.05 -47.0 M-35.35 -49.6 Q-36.05 -51.2 -37.85 -52.2 -39.45 -53.0 -40.45 -52.8 L-31.85 -31.45 -37.1 -49.6 -35.35 -49.6 M-2.85 -42.95 Q-2.6 -42.7 -3.55 -42.7 -4.2 -42.7 -4.9 -44.4 -5.85 -46.65 -5.85 -50.1 -5.85 -52.95 -5.15 -53.5 -4.65 -51.85 -4.05 -48.35 L-2.85 -42.95 M-40.85 -32.8 Q-41.25 -34.8 -43.3 -37.35 -45.65 -40.15 -48.45 -41.4 L-47.4 -40.3 -40.85 -32.8 M-53.1 -37.65 Q-48.75 -36.65 -45.45 -32.8 -42.6 -29.4 -42.25 -26.25 -43.1 -28.35 -46.35 -31.75 -50.2 -35.8 -53.8 -37.35 L-53.1 -37.65 M-70.5 -36.85 Q-67.4 -40.6 -64.8 -41.95 L-67.65 -40.75 Q-69.5 -39.9 -70.5 -38.85 -72.7 -36.65 -74.4 -29.95 -73.35 -33.3 -70.5 -36.85 M-75.1 -27.0 L-75.0 -27.65 -75.35 -25.95 -75.1 -27.0 M-4.95 -36.2 L-15.35 -54.2 Q-15.05 -50.25 -12.95 -44.55 -11.15 -39.65 -9.8 -37.75 -10.75 -37.85 -10.95 -37.35 L-11.0 -36.8 -10.3 -34.9 Q-9.35 -33.6 -6.55 -32.4 -6.25 -34.3 -6.4 -36.15 -5.65 -35.55 -5.35 -35.75 L-4.95 -36.2 M-52.95 -41.65 Q-55.95 -43.35 -61.7 -41.7 -53.05 -41.3 -52.95 -41.65 M-37.65 -35.25 L-39.3 -40.75 -38.05 -39.35 Q-37.65 -38.65 -37.65 -35.25" fill="#d1d1d1" fill-rule="evenodd" stroke="none"/>
    <path d="M9.25 -34.65 L11.05 -35.75 11.35 -34.2 Q11.35 -31.75 10.4 -30.4 9.95 -29.65 9.3 -29.4 8.65 -29.55 8.2 -29.8 7.2 -30.4 7.25 -31.55 L3.9 -30.7 Q4.35 -32.95 5.6 -36.05 3.05 -34.2 1.85 -33.6 -0.35 -32.55 -2.55 -32.85 2.6 -36.55 4.9 -40.45 6.85 -43.8 7.8 -49.5 8.4 -48.9 9.1 -43.95 9.95 -38.2 9.25 -34.65 M16.7 -27.8 L15.6 -26.95 Q15.05 -27.0 14.0 -28.95 L15.65 -32.35 Q16.7 -31.7 16.7 -30.05 16.55 -28.25 16.7 -27.8 M-35.35 -49.6 L-37.1 -49.6 -31.85 -31.45 -40.45 -52.8 Q-39.45 -53.0 -37.85 -52.2 -36.05 -51.2 -35.35 -49.6 M-22.05 -47.0 L-21.95 -47.2 -21.55 -47.5 Q-19.75 -45.65 -18.25 -41.65 -16.85 -38.05 -16.85 -36.25 L-17.0 -34.05 -24.75 -42.9 Q-24.85 -39.45 -24.1 -35.8 L-25.15 -36.05 Q-26.15 -36.45 -26.9 -37.7 -29.2 -41.6 -29.2 -53.4 L-28.95 -61.0 Q-28.1 -58.85 -24.85 -52.55 L-22.05 -47.0 M-40.85 -32.8 L-47.4 -40.3 -48.45 -41.4 Q-45.65 -40.15 -43.3 -37.35 -41.25 -34.8 -40.85 -32.8 M-70.5 -36.85 Q-73.35 -33.3 -74.4 -29.95 -72.7 -36.65 -70.5 -38.85 -69.5 -39.9 -67.65 -40.75 L-64.8 -41.95 Q-67.4 -40.6 -70.5 -36.85 M-52.95 -41.65 Q-53.05 -41.3 -61.7 -41.7 -55.95 -43.35 -52.95 -41.65 M-4.95 -36.2 L-5.35 -35.75 Q-5.65 -35.55 -6.4 -36.15 -6.25 -34.3 -6.55 -32.4 -9.35 -33.6 -10.3 -34.9 L-11.0 -36.8 -10.95 -37.35 Q-10.75 -37.85 -9.8 -37.75 -11.15 -39.65 -12.95 -44.55 -15.05 -50.25 -15.35 -54.2 L-4.95 -36.2" fill="#ffffff" fill-rule="evenodd" stroke="none"/>
  </g>
</svg>
