<?xml version="1.0" encoding="UTF-8" standalone="no"?>
<svg xmlns:ffdec="https://www.free-decompiler.com/flash" xmlns:xlink="http://www.w3.org/1999/xlink" ffdec:objectType="shape" height="48.3px" width="16.35px" xmlns="http://www.w3.org/2000/svg">
  <g transform="matrix(1.0, 0.0, 0.0, 1.0, 8.2, 0.1)">
    <path d="M3.45 -0.1 L3.55 -0.1 3.6 1.05 3.45 -0.1 M-6.95 -0.1 L-6.9 -0.1 -6.9 0.0 -6.95 -0.1 M-3.4 -0.1 L-3.35 -0.1 -3.05 1.0 -3.4 -0.1" fill="#989898" fill-rule="evenodd" stroke="none"/>
    <path d="M-5.85 -0.1 L-4.9 -0.1 -2.15 9.4 Q0.05 17.65 0.05 23.1 0.05 23.85 -0.25 24.8 -0.5 25.75 -0.75 25.85 L-0.7 25.7 Q-0.95 20.35 -3.55 10.5 -5.35 3.6 -5.85 -0.1" fill="#b4b4b4" fill-rule="evenodd" stroke="none"/>
    <path d="M-6.9 -0.1 L-5.85 -0.1 Q-5.35 3.6 -3.55 10.5 -0.95 20.35 -0.7 25.7 L-0.75 25.85 Q-0.5 25.75 -0.25 24.8 0.05 23.85 0.05 23.1 0.05 17.65 -2.15 9.4 L-4.9 -0.1 -3.4 -0.1 -3.05 1.0 -2.85 1.7 -1.95 4.65 Q0.3 9.6 0.6 10.7 L0.4 10.65 0.4 10.6 0.35 11.3 1.05 16.6 1.7 22.8 Q1.7 32.6 -2.45 39.5 -0.75 33.95 -0.75 30.95 -0.5 29.55 -0.7 27.75 -1.05 24.8 -3.2 15.7 L-5.7 5.6 -6.9 0.0 -6.9 -0.1 M-2.05 -0.1 L3.45 -0.1 3.6 1.05 3.6 1.2 3.6 1.3 3.65 1.5 3.65 1.8 3.7 2.1 3.75 2.8 5.35 9.1 Q-0.05 5.35 -2.05 -0.1" fill="#9f9f9f" fill-rule="evenodd" stroke="none"/>
    <path d="M-3.2 -0.1 L-2.05 -0.1 Q-0.05 5.35 5.35 9.1 L6.2 11.1 Q-0.85 8.3 -3.2 -0.1 M-2.45 39.5 Q1.7 32.6 1.7 22.8 L1.05 16.6 0.35 11.3 0.4 10.6 0.4 10.65 0.6 10.7 Q2.35 24.35 2.35 26.7 2.35 33.85 -0.75 39.5 -2.85 43.25 -4.8 44.5 L-2.45 39.5" fill="#858585" fill-rule="evenodd" stroke="none"/>
    <path d="M3.55 -0.1 L5.2 -0.1 5.2 0.1 Q5.2 2.1 6.3 6.1 L8.15 12.3 Q7.2 12.95 6.1 12.95 L4.55 12.45 2.65 11.8 1.9 11.2 2.9 16.4 Q3.75 21.75 3.75 24.85 3.75 34.65 0.2 41.15 -2.55 46.2 -6.1 47.5 L-7.35 48.2 Q-5.8 45.7 -4.0 39.95 -2.15 34.0 -2.15 31.25 -2.15 23.15 -5.25 13.5 -7.55 6.4 -8.2 -0.1 L-6.95 -0.1 -6.9 0.0 -5.7 5.6 -3.2 15.7 Q-1.05 24.8 -0.7 27.75 -0.5 29.55 -0.75 30.95 -0.75 33.95 -2.45 39.5 L-4.8 44.5 Q-2.85 43.25 -0.75 39.5 2.35 33.85 2.35 26.7 2.35 24.35 0.6 10.7 0.3 9.6 -1.95 4.65 L-2.85 1.7 -3.05 1.0 -3.35 -0.1 -3.2 -0.1 Q-0.85 8.3 6.2 11.1 L5.35 9.1 3.75 2.8 3.7 2.1 3.65 1.8 3.65 1.5 3.6 1.3 3.6 1.2 3.6 1.05 3.55 -0.1" fill="#4d4d4d" fill-rule="evenodd" stroke="none"/>
  </g>
</svg>
