<?xml version="1.0" encoding="UTF-8" standalone="no"?>
<svg xmlns:ffdec="https://www.free-decompiler.com/flash" xmlns:xlink="http://www.w3.org/1999/xlink" ffdec:objectType="shape" height="23.95px" width="17.7px" xmlns="http://www.w3.org/2000/svg">
  <g transform="matrix(1.0, 0.0, 0.0, 1.0, 0.4, -8.3)">
    <path d="M0.65 10.55 L0.3 10.05 Q0.6 9.75 2.35 8.8 L2.8 9.5 2.05 10.0 4.75 14.4 9.45 21.65 10.2 21.15 10.65 22.05 9.5 22.65 Q9.15 22.75 8.8 23.15 L7.9 22.05 8.5 21.65 3.9 14.45 1.25 10.25 0.65 10.55 M9.25 23.95 L9.95 25.2 9.45 25.05 9.15 24.4 9.25 23.95 M11.1 22.65 L12.1 23.45 11.95 24.2 11.0 22.95 Q10.85 22.7 11.1 22.65 M13.45 27.75 L13.5 27.4 Q13.5 26.2 13.0 25.65 13.4 25.6 13.75 25.9 L14.95 27.25 Q15.2 27.5 13.4 27.9 L13.45 27.75 M12.65 29.75 L11.05 27.25 11.15 26.9 11.85 27.65 Q11.85 27.9 12.65 28.25 L12.65 29.75" fill="#707070" fill-rule="evenodd" stroke="none"/>
    <path d="M0.65 10.55 L1.25 10.25 3.9 14.45 8.5 21.65 7.9 22.05 5.35 17.8 0.65 10.55 M10.2 21.15 L9.45 21.65 4.75 14.4 2.05 10.0 2.8 9.5 10.2 21.15 M10.55 23.2 Q12.65 25.9 12.8 26.65 L12.15 27.2 Q11.6 27.05 9.8 23.95 L10.55 23.2 M14.95 27.25 L16.75 29.55 Q14.4 31.7 13.85 31.7 L12.65 29.75 12.65 28.25 13.25 28.0 13.45 27.75 13.4 27.9 Q15.2 27.5 14.95 27.25 M13.7 29.05 Q13.55 29.2 13.55 29.8 L13.65 30.45 13.95 30.55 14.15 30.75 Q15.25 29.7 15.65 28.7 L13.8 28.85 13.7 29.05" fill="#8c8c8c" fill-rule="evenodd" stroke="none"/>
    <path d="M2.8 9.5 L2.35 8.8 Q0.6 9.75 0.3 10.05 L0.65 10.55 5.35 17.8 7.9 22.05 8.8 23.15 Q9.15 22.75 9.5 22.65 L10.65 22.05 10.2 21.15 2.8 9.5 M2.6 8.3 Q5.85 12.15 12.65 23.6 L12.55 24.6 Q12.45 24.9 12.6 25.05 L13.4 24.9 Q14.0 25.0 14.7 26.1 L16.15 27.8 17.3 29.25 Q16.8 30.5 15.6 31.45 L15.4 31.6 13.9 32.25 13.7 32.25 12.6 30.7 11.5 28.9 10.4 27.1 10.45 26.8 10.25 26.3 10.5 26.7 Q10.8 26.5 9.9 25.9 9.4 25.9 9.05 25.35 8.7 24.8 8.7 24.0 L8.65 23.9 7.65 22.55 5.7 19.8 4.75 18.25 0.55 11.7 0.0 11.15 Q-0.4 10.6 -0.4 10.0 L0.3 9.3 Q1.25 8.6 2.6 8.3 M9.25 23.95 L9.15 24.4 9.45 25.05 9.95 25.2 9.25 23.95 M11.1 22.65 Q10.85 22.7 11.0 22.95 L11.95 24.2 12.1 23.45 11.1 22.65 M10.55 23.2 L9.8 23.95 Q11.6 27.05 12.15 27.2 L12.8 26.65 Q12.65 25.9 10.55 23.2 M14.95 27.25 L13.75 25.9 Q13.4 25.6 13.0 25.65 13.5 26.2 13.5 27.4 L13.45 27.75 13.25 28.0 12.65 28.25 Q11.85 27.9 11.85 27.65 L11.15 26.9 11.05 27.25 12.65 29.75 13.85 31.7 Q14.4 31.7 16.75 29.55 L14.95 27.25 M13.7 29.05 L13.8 28.85 15.65 28.7 Q15.25 29.7 14.15 30.75 L13.95 30.55 13.65 30.45 13.55 29.8 Q13.55 29.2 13.7 29.05" fill="#333333" fill-rule="evenodd" stroke="none"/>
  </g>
</svg>
