<?xml version="1.0" encoding="UTF-8" standalone="no"?>
<svg xmlns:ffdec="https://www.free-decompiler.com/flash" xmlns:xlink="http://www.w3.org/1999/xlink" ffdec:objectType="shape" height="75.15px" width="18.8px" xmlns="http://www.w3.org/2000/svg">
  <g transform="matrix(1.0, 0.0, 0.0, 1.0, 19.95, 121.8)">
    <path d="M-6.7 -108.7 L-5.15 -109.65 -5.55 -105.35 -8.4 -103.65 -6.7 -108.7 M-6.6 -99.25 L-7.3 -94.25 -11.5 -91.5 -10.3 -96.8 -6.6 -99.25 M-7.9 -88.5 L-8.25 -83.25 -13.35 -80.25 -12.6 -85.6 -7.9 -88.5 M-8.3 -77.9 L-8.2 -73.35 -14.3 -69.3 -14.0 -74.15 -8.3 -77.9 M-7.75 -67.65 L-7.2 -63.45 -14.4 -58.45 -14.45 -63.05 -7.75 -67.65 M-15.85 -52.1 L-15.85 -52.65 -15.6 -52.25 -14.0 -49.35 -14.2 -53.15 -6.3 -58.3 -5.5 -54.85 -15.9 -47.6 -15.85 -52.1" fill="#ffffff" fill-rule="evenodd" stroke="none"/>
    <path d="M-8.25 -118.35 L-3.25 -121.1 -2.2 -120.3 -2.85 -117.35 -10.55 -113.0 -8.25 -118.35 M-14.95 -99.8 L-13.55 -104.65 -6.7 -108.7 -8.4 -103.65 -14.95 -99.8 M-5.15 -109.65 L-4.4 -110.1 -5.4 -105.4 -5.7 -104.1 -5.55 -105.35 -5.15 -109.65 M-11.5 -91.5 L-17.4 -87.65 -16.55 -92.7 -10.3 -96.8 -11.5 -91.5 M-13.35 -80.25 L-18.5 -77.2 -18.1 -82.25 -12.6 -85.6 -13.35 -80.25 M-14.3 -69.3 L-18.75 -66.35 -18.75 -70.95 -14.0 -74.15 -14.3 -69.3 M-14.45 -63.05 L-14.4 -58.45 -18.2 -55.8 -18.5 -60.3 -14.45 -63.05 M-15.6 -52.25 L-14.2 -53.15 -14.0 -49.35 -15.6 -52.25 M-15.9 -47.6 L-16.5 -47.2 -17.35 -51.1 -15.85 -52.1 -15.9 -47.6" fill="#e0e0e0" fill-rule="evenodd" stroke="none"/>
    <path d="M-8.25 -118.35 L-10.55 -113.0 -12.3 -112.0 -10.05 -117.4 -8.25 -118.35 M-2.85 -117.35 L-2.2 -120.3 -3.25 -121.1 -1.95 -121.8 -1.15 -121.15 -1.95 -117.9 -2.85 -117.35 M-14.95 -99.8 L-16.45 -98.9 -15.1 -103.7 -13.55 -104.65 -14.95 -99.8 M-4.4 -110.1 L-3.45 -110.65 -4.25 -106.1 -5.4 -105.4 -4.4 -110.1 M-6.6 -99.25 L-5.1 -100.2 -5.65 -95.3 -7.3 -94.25 -6.6 -99.25 M-17.4 -87.65 L-18.8 -86.75 -18.0 -91.75 -16.55 -92.7 -17.4 -87.65 M-7.9 -88.5 L-6.15 -89.6 -6.4 -84.35 -8.25 -83.25 -7.9 -88.5 M-18.5 -77.2 L-19.8 -76.45 -19.4 -81.45 -18.1 -82.25 -18.5 -77.2 M-8.3 -77.9 L-6.5 -79.15 -6.4 -74.5 -8.2 -73.35 -8.3 -77.9 M-18.75 -66.35 L-19.9 -65.6 -19.95 -70.15 -18.75 -70.95 -18.75 -66.35 M-7.2 -63.45 L-7.75 -67.65 -6.15 -68.75 -5.75 -64.45 -7.2 -63.45 M-18.5 -60.3 L-18.2 -55.8 -19.25 -55.1 -19.6 -59.55 -18.5 -60.3 M-6.3 -58.3 L-5.1 -59.05 -4.55 -55.5 -5.5 -54.85 -6.3 -58.3 M-16.5 -47.2 L-17.25 -46.65 -18.35 -50.45 -17.35 -51.1 -16.5 -47.2" fill="#464646" fill-rule="evenodd" stroke="none"/>
  </g>
</svg>
