<?xml version="1.0" encoding="UTF-8" standalone="no"?>
<svg xmlns:ffdec="https://www.free-decompiler.com/flash" xmlns:xlink="http://www.w3.org/1999/xlink" ffdec:objectType="shape" height="12.55px" width="18.7px" xmlns="http://www.w3.org/2000/svg">
  <g transform="matrix(1.0, 0.0, 0.0, 1.0, 9.0, 101.3)">
    <path d="M8.75 -100.4 Q9.25 -100.2 9.45 -99.8 L9.55 -99.75 Q10.25 -98.6 7.55 -96.25 L7.55 -96.2 6.7 -95.55 6.5 -95.4 6.45 -95.3 6.4 -95.2 6.35 -94.9 6.35 -94.85 6.1 -93.15 Q5.3 -90.7 3.05 -89.5 L3.0 -89.45 Q0.7 -88.3 -1.75 -89.1 L-1.8 -89.1 Q-2.55 -89.35 -3.15 -89.7 L-3.2 -89.75 -3.3 -89.8 -3.65 -90.0 -3.8 -90.05 -3.9 -90.05 -4.9 -89.75 Q-8.35 -88.95 -8.85 -90.2 L-8.9 -90.4 -9.0 -90.85 -9.0 -91.0 -9.0 -91.05 Q-8.9 -92.1 -6.95 -93.7 L-6.95 -93.75 -6.3 -94.25 -6.25 -94.3 -6.15 -94.45 -6.15 -94.6 Q-6.2 -95.7 -5.85 -96.95 -5.05 -99.4 -2.75 -100.55 L-2.65 -100.6 Q-0.45 -101.8 2.0 -101.0 L2.05 -101.0 Q3.2 -100.65 4.05 -99.9 L4.15 -99.85 4.3 -99.9 5.4 -100.2 5.5 -100.2 8.35 -100.5 8.4 -100.5 8.7 -100.4 8.75 -100.4" fill="#000000" fill-rule="evenodd" stroke="none"/>
    <path d="M5.0 -97.05 L4.2 -96.5 Q4.0 -97.45 3.45 -98.25 L3.0 -98.8 Q1.7 -100.1 -0.1 -100.1 -1.9 -100.1 -3.2 -98.8 -4.45 -97.55 -4.45 -95.75 L-4.35 -94.95 -4.2 -94.3 -3.85 -93.55 -3.5 -93.65 -2.95 -93.4 -2.75 -92.85 Q-3.55 -92.45 -4.3 -92.2 L-4.55 -92.6 -5.0 -93.8 -5.1 -94.4 Q-5.25 -95.5 -4.9 -96.65 -4.25 -98.7 -2.3 -99.7 -0.4 -100.75 1.7 -100.05 2.8 -99.75 3.6 -99.0 L4.1 -98.5 4.8 -97.45 5.0 -97.05 M-3.2 -90.95 Q-1.05 -91.65 1.35 -92.9 3.65 -94.1 5.4 -95.35 L5.4 -94.9 5.1 -93.45 Q4.5 -91.35 2.55 -90.35 0.65 -89.4 -1.45 -90.05 -2.2 -90.25 -2.75 -90.65 L-3.2 -90.95 M2.85 -98.35 L2.7 -98.0 2.35 -97.85 Q2.2 -97.85 2.05 -98.0 L1.9 -98.35 2.05 -98.7 2.35 -98.85 2.7 -98.7 2.75 -98.7 2.85 -98.35 M1.4 -95.65 L1.3 -95.5 1.15 -95.4 Q1.05 -95.4 0.95 -95.5 L0.85 -95.65 0.95 -95.85 1.15 -95.95 1.3 -95.85 1.4 -95.65 M3.0 -92.65 L3.75 -93.65 1.45 -92.4 -0.55 -91.4 -0.1 -91.35 Q1.7 -91.35 3.0 -92.65 M-0.4 -97.8 Q-0.4 -97.55 -0.55 -97.4 -0.7 -97.25 -1.0 -97.25 L-1.35 -97.4 -1.5 -97.8 -1.35 -98.2 -1.0 -98.35 -0.55 -98.2 -0.4 -97.8 M-1.75 -95.95 L-1.8 -95.7 -2.0 -95.35 Q-2.25 -95.1 -2.6 -95.1 L-2.8 -95.15 -3.2 -95.35 -3.35 -95.6 -3.4 -96.0 -3.2 -96.6 -2.6 -96.8 -2.0 -96.6 -1.9 -96.45 Q-1.75 -96.25 -1.75 -95.95" fill="#690a99" fill-rule="evenodd" stroke="none"/>
    <path d="M5.35 -97.3 L5.4 -97.35 Q7.4 -98.75 7.2 -99.15 L7.05 -99.25 Q6.5 -99.4 4.7 -98.7 L4.5 -98.65 4.0 -99.15 5.65 -99.65 8.3 -99.9 8.45 -99.9 8.95 -99.5 Q9.4 -98.65 7.2 -96.7 L6.3 -96.0 5.8 -95.6 5.4 -95.35 Q3.65 -94.1 1.35 -92.9 -1.05 -91.65 -3.2 -90.95 L-3.65 -90.8 -5.05 -90.35 -8.35 -90.5 -8.4 -90.95 Q-8.3 -91.8 -6.55 -93.3 L-5.95 -93.8 -5.45 -94.15 -5.35 -93.6 -5.65 -93.35 Q-7.25 -92.25 -7.45 -91.75 L-7.4 -91.75 -7.45 -91.55 Q-7.25 -91.15 -4.95 -91.95 L-4.7 -92.05 -4.3 -92.2 Q-3.55 -92.45 -2.75 -92.85 L0.4 -94.35 4.2 -96.5 5.0 -97.05 5.35 -97.3" fill="#33ff00" fill-rule="evenodd" stroke="none"/>
    <path d="M4.2 -96.5 L0.4 -94.35 -2.75 -92.85 -2.95 -93.4 -3.5 -93.65 -3.85 -93.55 -4.2 -94.3 -4.35 -94.95 -4.45 -95.75 Q-4.45 -97.55 -3.2 -98.8 -1.9 -100.1 -0.1 -100.1 1.7 -100.1 3.0 -98.8 L3.45 -98.25 Q4.0 -97.45 4.2 -96.5 M2.85 -98.35 L2.75 -98.7 2.7 -98.7 2.35 -98.85 2.05 -98.7 1.9 -98.35 2.05 -98.0 Q2.2 -97.85 2.35 -97.85 L2.7 -98.0 2.85 -98.35 M1.4 -95.65 L1.3 -95.85 1.15 -95.95 0.95 -95.85 0.85 -95.65 0.95 -95.5 Q1.05 -95.4 1.15 -95.4 L1.3 -95.5 1.4 -95.65 M3.0 -92.65 Q1.7 -91.35 -0.1 -91.35 L-0.55 -91.4 1.45 -92.4 3.75 -93.65 3.0 -92.65 M-1.75 -95.95 Q-1.75 -96.25 -1.9 -96.45 L-2.0 -96.6 -2.6 -96.8 -3.2 -96.6 -3.4 -96.0 -3.35 -95.6 -3.2 -95.35 -2.8 -95.15 -2.6 -95.1 Q-2.25 -95.1 -2.0 -95.35 L-1.8 -95.7 -1.75 -95.95 M-0.4 -97.8 L-0.55 -98.2 -1.0 -98.35 -1.35 -98.2 -1.5 -97.8 -1.35 -97.4 -1.0 -97.25 Q-0.7 -97.25 -0.55 -97.4 -0.4 -97.55 -0.4 -97.8" fill="#7e18b2" fill-rule="evenodd" stroke="none"/>
    <path d="M5.35 -97.3 L5.0 -97.05 4.8 -97.45 4.1 -98.5 3.6 -99.0 Q2.8 -99.75 1.7 -100.05 -0.4 -100.75 -2.3 -99.7 -4.25 -98.7 -4.9 -96.65 -5.25 -95.5 -5.1 -94.4 L-5.0 -93.8 -4.55 -92.6 -4.3 -92.2 -4.7 -92.05 -4.9 -92.45 -5.35 -93.6 -5.45 -94.15 Q-5.7 -95.4 -5.25 -96.75 -4.55 -99.0 -2.45 -100.05 -0.4 -101.15 1.8 -100.45 3.1 -100.05 4.0 -99.15 L4.5 -98.65 5.15 -97.65 5.35 -97.3 M-3.65 -90.8 L-3.2 -90.95 -2.75 -90.65 Q-2.2 -90.25 -1.45 -90.05 0.65 -89.4 2.55 -90.35 4.5 -91.35 5.1 -93.45 L5.4 -94.9 5.4 -95.35 5.8 -95.6 5.8 -94.9 5.5 -93.35 Q4.8 -91.1 2.75 -90.0 0.65 -88.95 -1.55 -89.65 -2.35 -89.9 -2.95 -90.3 L-3.0 -90.3 -3.65 -90.8" fill="#310548" fill-rule="evenodd" stroke="none"/>
  </g>
</svg>
