<?xml version="1.0" encoding="UTF-8" standalone="no"?>
<svg xmlns:ffdec="https://www.free-decompiler.com/flash" xmlns:xlink="http://www.w3.org/1999/xlink" ffdec:objectType="shape" height="99.15px" width="99.1px" xmlns="http://www.w3.org/2000/svg">
  <g transform="matrix(1.0, 0.0, 0.0, 1.0, 75.65, 99.4)">
    <path d="M20.85 -84.2 L20.2 -83.55 -61.2 -2.15 Q-61.35 -2.0 -61.55 -2.0 L-61.65 -2.0 Q-63.9 -0.25 -66.9 -0.25 -70.55 -0.25 -73.15 -2.8 -75.65 -5.4 -75.65 -9.0 -75.65 -12.0 -73.95 -14.3 L-73.9 -14.35 -73.75 -14.65 7.3 -95.6 7.55 -96.05 8.25 -96.85 Q10.9 -99.4 14.6 -99.4 L15.1 -99.4 Q17.15 -99.3 18.85 -98.35 19.95 -97.75 20.85 -96.85 L22.05 -95.35 Q23.2 -93.6 23.4 -91.5 L23.45 -90.5 23.45 -89.9 Q23.25 -86.65 20.85 -84.2 M22.45 -90.55 Q22.45 -92.8 21.35 -94.6 L20.15 -96.15 18.15 -97.6 Q16.55 -98.4 14.6 -98.4 L14.1 -98.35 Q11.1 -98.2 8.95 -96.15 L8.35 -95.45 8.15 -95.1 8.05 -95.0 -69.6 -17.35 -66.9 -17.8 -66.5 -17.8 Q-64.45 -17.7 -62.7 -16.75 L-60.75 -15.25 -59.5 -13.75 Q-58.4 -12.05 -58.2 -9.9 L-58.15 -9.0 Q-58.15 -7.5 -58.6 -6.1 L19.5 -84.25 20.15 -84.9 Q21.8 -86.6 22.3 -88.75 L22.45 -90.5 22.45 -90.55 M-67.6 -10.15 L-66.65 -10.4 Q-65.55 -10.2 -65.5 -9.0 -65.5 -8.25 -66.15 -7.75 -66.45 -7.55 -66.85 -7.4 L-66.95 -7.4 -67.15 -7.4 Q-69.35 -7.6 -69.45 -9.65 -69.5 -10.35 -69.2 -10.8 L-68.8 -11.35 Q-68.4 -11.7 -67.65 -11.85 L-66.75 -11.95 -66.7 -11.95 Q-64.3 -11.6 -64.15 -9.15 L-64.15 -8.95 Q-64.1 -7.45 -65.05 -6.65 L-65.9 -6.15 Q-66.35 -5.95 -66.95 -5.85 L-67.0 -5.85 Q-68.65 -5.8 -69.85 -6.85 -71.1 -7.85 -71.05 -9.6 L-70.8 -11.0 -70.3 -11.9 -69.9 -12.35 Q-68.75 -13.45 -66.95 -13.45 L-66.1 -13.35 Q-64.95 -13.15 -64.05 -12.25 -63.25 -11.45 -62.9 -10.35 L-62.7 -9.35 Q-62.4 -7.2 -63.75 -5.95 L-64.0 -5.65 -64.8 -5.05 Q-65.75 -4.6 -66.85 -4.55 -69.05 -4.4 -70.65 -5.75 -72.35 -7.15 -72.5 -9.4 -72.6 -10.9 -71.85 -12.05 L-71.25 -12.85 -70.85 -13.25 Q-69.1 -14.85 -66.8 -14.75 L-66.75 -14.75 -65.0 -14.45 Q-63.85 -14.05 -62.9 -13.05 -62.2 -12.35 -61.8 -11.5 -61.2 -10.35 -61.15 -9.0 -61.15 -7.6 -61.65 -6.4 L-62.65 -4.9 -62.95 -4.6 -63.75 -4.0 Q-65.1 -3.15 -66.95 -3.2 -69.55 -3.25 -71.7 -4.9 -73.95 -6.6 -73.95 -9.4 L-73.95 -9.45 Q-74.0 -11.5 -72.95 -13.15 L-72.35 -13.95 -72.05 -14.25 Q-70.45 -15.9 -68.1 -16.15 L-67.0 -16.25 Q-65.3 -16.25 -63.9 -15.6 -62.8 -15.05 -61.85 -14.1 L-60.65 -12.6 Q-59.7 -11.05 -59.7 -9.05 L-59.7 -8.35 Q-59.85 -5.85 -61.6 -3.85 L-61.9 -3.55 -62.65 -2.9 Q-64.45 -1.6 -67.1 -1.7 -70.5 -1.8 -72.9 -3.95 L-73.9 -5.0 -72.65 -3.3 Q-70.25 -0.95 -66.9 -0.95 -64.2 -0.95 -62.2 -2.45 L-61.25 -3.3 -60.25 -4.5 Q-58.9 -6.45 -58.9 -9.0 L-58.9 -9.2 Q-58.95 -11.45 -60.05 -13.25 L-61.25 -14.75 -63.25 -16.2 Q-64.9 -17.05 -66.9 -17.05 L-67.25 -17.05 Q-69.35 -16.95 -71.0 -15.95 L-71.7 -15.5 -72.65 -14.75 -72.85 -14.5 -73.4 -13.85 -73.5 -13.7 -73.55 -13.55 Q-74.65 -11.8 -74.65 -9.65 -74.7 -6.5 -72.45 -4.5 -70.25 -2.5 -67.05 -2.4 -64.8 -2.35 -63.15 -3.4 L-62.4 -4.05 -62.15 -4.3 Q-60.9 -5.8 -60.55 -7.55 -60.4 -8.3 -60.4 -9.05 -60.45 -10.7 -61.2 -12.1 L-62.35 -13.6 -64.4 -15.05 Q-65.6 -15.55 -67.0 -15.55 L-69.0 -15.25 Q-70.5 -14.8 -71.55 -13.7 L-71.8 -13.4 -72.4 -12.6 Q-73.3 -11.2 -73.25 -9.45 -73.2 -7.0 -71.3 -5.5 -69.35 -3.95 -66.95 -3.95 -65.4 -3.9 -64.3 -4.55 L-63.45 -5.1 -63.2 -5.4 Q-61.85 -6.95 -61.9 -8.95 -61.95 -10.05 -62.3 -10.95 -62.7 -11.85 -63.4 -12.55 -64.35 -13.55 -65.6 -13.85 L-66.8 -14.05 Q-68.85 -14.1 -70.4 -12.7 L-70.75 -12.35 -71.35 -11.55 Q-71.9 -10.65 -71.8 -9.45 -71.65 -7.5 -70.2 -6.3 -68.8 -5.15 -66.85 -5.3 L-65.35 -5.6 -64.55 -6.15 -64.25 -6.45 Q-63.2 -7.5 -63.4 -9.25 L-63.4 -9.3 -63.45 -9.8 Q-63.75 -10.95 -64.6 -11.75 -65.5 -12.65 -66.75 -12.75 L-66.95 -12.75 Q-68.45 -12.75 -69.4 -11.85 L-69.8 -11.4 -70.25 -10.45 -70.35 -9.6 Q-70.4 -8.2 -69.4 -7.4 -68.4 -6.55 -67.1 -6.6 L-66.5 -6.75 Q-65.95 -6.9 -65.6 -7.2 -65.05 -7.65 -64.9 -8.4 L-64.85 -8.95 Q-64.95 -10.95 -66.8 -11.2 -67.8 -11.2 -68.3 -10.8 L-68.65 -10.25 -68.7 -9.65 Q-68.65 -8.25 -67.05 -8.1 L-66.65 -8.25 Q-66.3 -8.55 -66.25 -8.95 -66.3 -9.55 -66.75 -9.65 L-66.8 -9.65 -67.1 -9.65 -67.25 -9.25 -67.35 -8.95 -67.65 -8.9 Q-67.8 -8.9 -67.9 -9.0 L-68.0 -9.3 -67.95 -9.55 -67.6 -10.15" fill="#168197" fill-rule="evenodd" stroke="none"/>
    <path d="M-59.5 -13.75 L-60.75 -15.25 -62.7 -16.75 18.15 -97.6 20.15 -96.15 21.35 -94.6 -59.5 -13.75" fill="#4dcbe6" fill-rule="evenodd" stroke="none"/>
    <path d="M21.35 -94.6 Q22.45 -92.8 22.45 -90.55 L-58.2 -9.9 Q-58.4 -12.05 -59.5 -13.75 L21.35 -94.6 M-62.7 -16.75 Q-64.45 -17.7 -66.5 -17.8 L14.1 -98.35 14.6 -98.4 Q16.55 -98.4 18.15 -97.6 L-62.7 -16.75" fill="#3ebed8" fill-rule="evenodd" stroke="none"/>
    <path d="M22.45 -90.55 L22.45 -90.5 22.3 -88.75 Q21.8 -86.6 20.15 -84.9 L19.5 -84.25 -58.6 -6.1 Q-58.15 -7.5 -58.15 -9.0 L-58.2 -9.9 22.45 -90.55 M-66.5 -17.8 L-66.9 -17.8 -69.6 -17.35 8.05 -95.0 8.15 -95.1 8.35 -95.45 8.95 -96.15 Q11.1 -98.2 14.1 -98.35 L-66.5 -17.8" fill="#29a1b9" fill-rule="evenodd" stroke="none"/>
    <path d="M-67.6 -10.15 L-67.95 -9.55 -68.0 -9.3 -67.9 -9.0 Q-67.8 -8.9 -67.65 -8.9 L-67.35 -8.95 -67.25 -9.25 -67.1 -9.65 -66.8 -9.65 -66.75 -9.65 Q-66.3 -9.55 -66.25 -8.95 -66.3 -8.55 -66.65 -8.25 L-67.05 -8.1 Q-68.65 -8.25 -68.7 -9.65 L-68.65 -10.25 -68.3 -10.8 Q-67.8 -11.2 -66.8 -11.2 -64.95 -10.95 -64.85 -8.95 L-64.9 -8.4 Q-65.05 -7.65 -65.6 -7.2 -65.95 -6.9 -66.5 -6.75 L-67.1 -6.6 Q-68.4 -6.55 -69.4 -7.4 -70.4 -8.2 -70.35 -9.6 L-70.25 -10.45 -69.8 -11.4 -69.4 -11.85 Q-68.45 -12.75 -66.95 -12.75 L-66.75 -12.75 Q-65.5 -12.65 -64.6 -11.75 -63.75 -10.95 -63.45 -9.8 L-63.4 -9.3 -63.4 -9.25 Q-63.2 -7.5 -64.25 -6.45 L-64.55 -6.15 -65.35 -5.6 -66.85 -5.3 Q-68.8 -5.15 -70.2 -6.3 -71.65 -7.5 -71.8 -9.45 -71.9 -10.65 -71.35 -11.55 L-70.75 -12.35 -70.4 -12.7 Q-68.85 -14.1 -66.8 -14.05 L-65.6 -13.85 Q-64.35 -13.55 -63.4 -12.55 -62.7 -11.85 -62.3 -10.95 -61.95 -10.05 -61.9 -8.95 -61.85 -6.95 -63.2 -5.4 L-63.45 -5.1 -64.3 -4.55 Q-65.4 -3.9 -66.95 -3.95 -69.35 -3.95 -71.3 -5.5 -73.2 -7.0 -73.25 -9.45 -73.3 -11.2 -72.4 -12.6 L-71.8 -13.4 -71.55 -13.7 Q-70.5 -14.8 -69.0 -15.25 L-67.0 -15.55 Q-65.6 -15.55 -64.4 -15.05 L-62.35 -13.6 -61.2 -12.1 Q-60.45 -10.7 -60.4 -9.05 -60.4 -8.3 -60.55 -7.55 -60.9 -5.8 -62.15 -4.3 L-62.4 -4.05 -63.15 -3.4 Q-64.8 -2.35 -67.05 -2.4 -70.25 -2.5 -72.45 -4.5 -74.7 -6.5 -74.65 -9.65 -74.65 -11.8 -73.55 -13.55 L-73.5 -13.7 -73.4 -13.85 -72.85 -14.5 -72.65 -14.75 -71.7 -15.5 -71.0 -15.95 Q-69.35 -16.95 -67.25 -17.05 L-66.9 -17.05 Q-64.9 -17.05 -63.25 -16.2 L-61.25 -14.75 -60.05 -13.25 Q-58.95 -11.45 -58.9 -9.2 L-58.9 -9.0 Q-58.9 -6.45 -60.25 -4.5 L-61.25 -3.3 -62.2 -2.45 Q-64.2 -0.95 -66.9 -0.95 -70.25 -0.95 -72.65 -3.3 L-73.9 -5.0 -72.9 -3.95 Q-70.5 -1.8 -67.1 -1.7 -64.45 -1.6 -62.65 -2.9 L-61.9 -3.55 -61.6 -3.85 Q-59.85 -5.85 -59.7 -8.35 L-59.7 -9.05 Q-59.7 -11.05 -60.65 -12.6 L-61.85 -14.1 Q-62.8 -15.05 -63.9 -15.6 -65.3 -16.25 -67.0 -16.25 L-68.1 -16.15 Q-70.45 -15.9 -72.05 -14.25 L-72.35 -13.95 -72.95 -13.15 Q-74.0 -11.5 -73.95 -9.45 L-73.95 -9.4 Q-73.95 -6.6 -71.7 -4.9 -69.55 -3.25 -66.95 -3.2 -65.1 -3.15 -63.75 -4.0 L-62.95 -4.6 -62.65 -4.9 -61.65 -6.4 Q-61.15 -7.6 -61.15 -9.0 -61.2 -10.35 -61.8 -11.5 -62.2 -12.35 -62.9 -13.05 -63.85 -14.05 -65.0 -14.45 L-66.75 -14.75 -66.8 -14.75 Q-69.1 -14.85 -70.85 -13.25 L-71.25 -12.85 -71.85 -12.05 Q-72.6 -10.9 -72.5 -9.4 -72.35 -7.15 -70.65 -5.75 -69.05 -4.4 -66.85 -4.55 -65.75 -4.6 -64.8 -5.05 L-64.0 -5.65 -63.75 -5.95 Q-62.4 -7.2 -62.7 -9.35 L-62.9 -10.35 Q-63.25 -11.45 -64.05 -12.25 -64.95 -13.15 -66.1 -13.35 L-66.95 -13.45 Q-68.75 -13.45 -69.9 -12.35 L-70.3 -11.9 -70.8 -11.0 -71.05 -9.6 Q-71.1 -7.85 -69.85 -6.85 -68.65 -5.8 -67.0 -5.85 L-66.95 -5.85 Q-66.35 -5.95 -65.9 -6.15 L-65.05 -6.65 Q-64.1 -7.45 -64.15 -8.95 L-64.15 -9.15 Q-64.3 -11.6 -66.7 -11.95 L-66.75 -11.95 -67.65 -11.85 Q-68.4 -11.7 -68.8 -11.35 L-69.2 -10.8 Q-69.5 -10.35 -69.45 -9.65 -69.35 -7.6 -67.15 -7.4 L-66.95 -7.4 -66.85 -7.4 Q-66.45 -7.55 -66.15 -7.75 -65.5 -8.25 -65.5 -9.0 -65.55 -10.2 -66.65 -10.4 L-67.6 -10.15" fill="#0d5e6f" fill-rule="evenodd" stroke="none"/>
  </g>
</svg>
