<?xml version="1.0" encoding="UTF-8" standalone="no"?>
<svg xmlns:ffdec="https://www.free-decompiler.com/flash" xmlns:xlink="http://www.w3.org/1999/xlink" ffdec:objectType="shape" height="132.5px" width="103.9px" xmlns="http://www.w3.org/2000/svg">
  <g transform="matrix(1.0, 0.0, 0.0, 1.0, 52.0, 51.05)">
    <path d="M28.0 69.75 Q27.55 74.9 23.5 78.05 L21.75 79.2 16.25 78.55 Q15.0 78.35 13.85 77.75 10.35 76.0 8.65 72.45 6.5 67.9 8.0 62.95 9.35 58.65 12.35 55.5 L14.95 52.8 Q18.45 49.45 20.55 45.1 22.35 41.3 22.0 36.95 21.7 33.05 19.35 29.75 L16.55 26.3 14.5 24.05 Q12.55 21.95 10.95 19.5 L10.0 17.45 Q8.8 13.45 9.5 9.15 10.25 4.7 12.35 0.85 L15.9 -5.7 Q18.35 -10.3 19.85 -15.15 L20.55 -17.85 20.85 -19.75 20.95 -20.35 Q21.15 -22.75 20.8 -25.15 20.35 -28.25 19.2 -31.1 18.55 -32.85 17.45 -34.4 L14.7 -37.65 11.75 -40.45 12.3 -40.95 Q14.5 -40.0 16.3 -38.5 L17.8 -37.2 19.25 -35.7 20.3 -34.4 Q21.4 -32.95 21.95 -31.05 L22.95 -27.65 23.65 -25.05 Q24.1 -23.25 23.8 -21.45 L23.6 -20.35 23.0 -18.0 22.95 -17.85 21.45 -13.8 Q19.75 -9.8 17.6 -6.05 14.0 0.4 11.75 7.75 11.1 9.9 11.3 12.15 11.85 17.7 15.4 22.1 L18.75 26.3 19.7 27.8 21.8 31.85 22.25 32.85 Q23.0 35.35 23.0 37.9 L22.85 39.85 Q22.35 42.85 21.15 45.55 19.3 49.6 16.35 52.8 L13.0 56.5 Q10.75 59.05 9.85 62.25 L9.3 63.85 Q8.2 66.8 9.0 69.95 9.9 73.6 13.05 75.8 L12.7 75.4 Q14.5 77.05 16.95 77.55 19.75 78.2 22.5 77.45 23.95 76.95 25.25 75.7 26.55 74.5 26.9 72.65 27.35 70.5 26.8 68.3 L26.8 67.8 28.0 69.75 M42.15 49.95 Q42.45 45.5 42.1 41.2 L41.65 38.35 Q40.55 34.25 37.6 30.9 L33.05 25.8 Q30.6 23.25 28.85 20.4 27.9 18.85 27.4 17.0 L26.35 12.6 Q25.95 10.6 26.15 8.85 26.6 4.2 27.95 -0.25 L28.95 -3.3 30.25 -7.45 Q31.35 -11.4 31.25 -15.5 L31.15 -17.85 30.85 -20.35 29.95 -24.4 28.9 -27.9 Q27.55 -31.85 24.55 -35.3 28.05 -33.5 29.45 -29.9 L31.65 -24.45 32.6 -22.0 33.15 -20.35 33.7 -17.85 33.75 -17.3 Q34.55 -10.95 31.7 -5.2 30.15 -2.15 28.95 1.15 L27.85 3.65 27.75 3.8 Q27.05 6.9 27.05 9.95 27.0 13.95 28.65 17.6 L30.55 21.0 31.75 22.4 Q35.35 26.1 38.65 30.15 40.4 32.35 41.5 35.1 43.8 41.0 43.4 47.4 L42.9 51.7 Q42.5 54.0 41.4 56.0 40.65 57.4 39.7 58.45 38.25 60.05 36.2 59.6 L38.9 57.75 40.25 56.25 41.05 54.95 Q42.0 53.0 42.1 50.7 L42.15 50.45 42.15 49.95 M27.15 53.8 Q26.65 53.35 26.85 52.65 27.35 50.6 28.95 49.6 L30.5 49.35 Q31.5 49.4 32.15 50.05 33.5 51.4 33.5 53.3 L32.8 53.2 32.65 52.55 Q31.7 50.05 29.15 50.9 L29.1 50.85 28.9 51.05 Q28.2 51.05 27.7 51.85 27.15 52.65 27.15 53.8 M4.25 -20.55 Q1.7 -24.85 -2.35 -27.6 -4.1 -28.8 -6.1 -29.45 L-11.25 -31.4 Q-14.05 -32.35 -16.9 -31.95 L-20.6 -30.75 -21.8 -30.2 -22.95 -29.8 -23.25 -29.8 -26.35 -29.8 Q-27.65 -31.3 -27.95 -33.4 -28.1 -34.75 -27.35 -36.05 -25.7 -39.15 -22.0 -39.25 -15.85 -39.45 -9.7 -38.0 -3.5 -36.7 1.65 -32.9 7.5 -28.5 10.15 -21.6 L10.6 -20.35 11.35 -17.85 12.2 -13.4 12.3 -10.6 Q12.15 -7.5 11.4 -4.5 L11.05 -3.0 Q10.7 -7.75 9.15 -12.2 L8.9 -13.1 7.55 -16.35 6.65 -17.85 4.5 -20.35 4.25 -20.55 M12.5 -28.55 L11.45 -29.8 6.45 -34.8 Q3.15 -37.75 -0.75 -39.4 -4.95 -41.05 -9.2 -41.35 L-15.15 -41.5 -15.85 -40.85 -17.6 -41.2 Q-17.8 -41.8 -17.25 -42.25 L-16.0 -42.7 -13.45 -43.5 -6.7 -43.0 -2.15 -42.0 Q2.35 -40.8 6.35 -38.4 10.65 -35.9 13.3 -32.0 L15.1 -28.8 Q16.5 -25.9 17.1 -22.8 L17.55 -20.35 17.55 -20.2 17.75 -17.85 17.7 -16.5 17.6 -15.7 Q17.0 -12.3 15.45 -9.35 L15.25 -9.1 Q14.6 -9.5 15.1 -10.15 L15.85 -11.65 15.95 -12.05 16.0 -12.25 16.1 -12.5 15.8 -13.0 16.05 -13.75 16.1 -17.85 15.85 -20.15 15.85 -20.35 Q15.45 -22.55 14.35 -24.55 L13.6 -26.55 Q13.4 -27.6 12.5 -28.55 M28.3 -18.9 L28.45 -17.85 Q28.6 -16.6 28.4 -15.45 L28.0 -13.3 Q26.9 -8.65 25.35 -4.2 24.65 -2.25 24.1 -0.1 22.85 4.55 22.55 9.6 21.55 7.0 22.15 4.0 23.8 -4.25 26.7 -11.95 27.8 -14.8 28.2 -17.85 L28.3 -18.9 M22.0 -5.65 Q22.4 -5.3 22.05 -4.65 20.5 -2.1 19.4 0.7 18.85 2.2 18.75 3.75 L18.65 8.2 18.7 13.25 18.7 13.55 Q17.8 13.55 17.75 12.35 L17.6 9.95 Q16.8 1.3 22.0 -5.65 M34.3 7.1 L32.5 12.85 31.85 12.2 Q32.7 8.65 33.15 5.25 L33.2 3.4 33.2 1.6 33.25 1.4 Q33.8 1.8 34.0 2.65 34.5 4.95 34.3 7.1 M34.05 51.75 L34.5 52.8 33.7 55.1 Q33.3 55.6 32.85 55.4 L31.55 54.45 31.95 52.85 32.65 54.15 34.0 53.8 34.05 51.75 M11.1 32.0 Q11.05 35.1 11.9 37.9 12.85 40.95 14.45 43.8 L13.65 44.25 Q11.9 43.05 11.45 40.8 L10.1 35.1 Q9.75 33.75 10.5 32.5 L11.1 32.0 M33.5 34.3 Q35.25 37.5 35.25 41.3 L35.05 45.1 34.8 46.15 33.9 46.0 34.1 43.9 33.95 39.35 Q33.75 37.25 33.15 35.1 33.05 34.75 33.5 34.3 M-36.65 -36.0 Q-36.5 -34.55 -37.5 -33.5 -37.9 -33.05 -38.4 -33.05 L-41.6 -32.75 -42.9 -33.95 Q-43.25 -35.15 -42.55 -36.1 L-41.9 -36.65 -36.65 -36.0 M-25.25 -43.0 Q-26.05 -41.9 -27.55 -41.75 -29.45 -41.45 -31.15 -42.45 -31.85 -42.9 -32.15 -43.7 L-32.5 -44.65 -31.1 -44.7 Q-28.0 -44.2 -25.25 -43.0" fill="#ffffff" fill-rule="evenodd" stroke="none"/>
    <path d="M6.1 -45.2 L12.3 -42.1 12.45 -42.05 12.5 -42.25 17.15 -39.75 18.15 -39.1 Q20.95 -36.85 22.95 -33.95 25.7 -29.9 25.95 -24.95 26.05 -22.6 25.6 -20.35 L25.5 -20.0 24.95 -17.85 Q24.0 -14.75 22.45 -11.85 L19.8 -7.25 Q17.75 -3.95 16.1 -0.45 14.5 3.05 13.95 6.85 13.35 11.3 15.15 15.1 L17.9 21.4 Q19.7 25.55 22.1 29.0 24.4 33.45 23.75 38.45 23.1 43.35 21.15 47.9 20.55 49.4 19.4 50.75 L16.65 53.8 Q13.4 57.2 11.2 61.2 9.85 63.65 9.75 66.6 9.65 69.7 10.8 72.55 11.5 74.2 12.7 75.4 L13.05 75.8 Q9.9 73.6 9.0 69.95 8.2 66.8 9.3 63.85 L9.85 62.25 Q10.75 59.05 13.0 56.5 L16.35 52.8 Q19.3 49.6 21.15 45.55 22.35 42.85 22.85 39.85 L23.0 37.9 Q23.0 35.35 22.25 32.85 L21.8 31.85 19.7 27.8 18.75 26.3 15.4 22.1 Q11.85 17.7 11.3 12.15 11.1 9.9 11.75 7.75 14.0 0.4 17.6 -6.05 19.75 -9.8 21.45 -13.8 L22.95 -17.85 23.0 -18.0 23.6 -20.35 23.8 -21.45 Q24.1 -23.25 23.65 -25.05 L22.95 -27.65 21.95 -31.05 Q21.4 -32.95 20.3 -34.4 L19.25 -35.7 17.8 -37.2 16.3 -38.5 Q14.5 -40.0 12.3 -40.95 L11.75 -40.45 14.7 -37.65 17.45 -34.4 Q18.55 -32.85 19.2 -31.1 20.35 -28.25 20.8 -25.15 21.15 -22.75 20.95 -20.35 L20.85 -19.75 20.55 -17.85 19.85 -15.15 Q18.35 -10.3 15.9 -5.7 L12.35 0.85 Q10.25 4.7 9.5 9.15 8.8 13.45 10.0 17.45 L10.95 19.5 Q12.55 21.95 14.5 24.05 L16.55 26.3 19.35 29.75 Q21.7 33.05 22.0 36.95 22.35 41.3 20.55 45.1 18.45 49.45 14.95 52.8 L12.35 55.5 Q9.35 58.65 8.0 62.95 6.5 67.9 8.65 72.45 10.35 76.0 13.85 77.75 15.0 78.35 16.25 78.55 L21.75 79.2 23.5 78.05 Q27.55 74.9 28.0 69.75 L28.0 70.2 Q27.55 75.3 24.1 78.85 22.45 80.5 20.15 80.1 L16.0 79.3 Q11.2 77.95 8.5 73.95 5.65 69.7 6.45 64.65 7.05 60.5 9.6 57.05 L12.1 54.0 14.6 51.3 16.9 48.95 Q20.15 45.5 20.85 40.85 21.35 37.6 20.6 34.65 20.1 32.6 18.9 31.1 16.2 27.65 12.85 24.75 9.35 21.75 8.15 17.45 7.0 13.35 8.4 9.15 9.75 4.95 10.8 0.3 11.15 -1.3 11.05 -3.0 L11.4 -4.5 Q12.15 -7.5 12.3 -10.6 L12.2 -13.4 11.35 -17.85 10.6 -20.35 10.15 -21.6 Q7.5 -28.5 1.65 -32.9 -3.5 -36.7 -9.7 -38.0 -15.85 -39.45 -22.0 -39.25 -25.7 -39.15 -27.35 -36.05 -28.1 -34.75 -27.95 -33.4 -27.65 -31.3 -26.35 -29.8 L-23.25 -29.8 -22.95 -29.8 -21.8 -30.2 -20.6 -30.75 -16.9 -31.95 Q-14.05 -32.35 -11.25 -31.4 L-6.1 -29.45 Q-4.1 -28.8 -2.35 -27.6 1.7 -24.85 4.25 -20.55 L2.95 -21.55 1.15 -22.65 Q-2.15 -24.8 -6.05 -26.2 L-7.8 -26.65 -14.45 -27.45 -25.0 -26.7 Q-27.1 -26.9 -29.0 -27.45 -31.05 -28.15 -31.4 -30.25 -31.7 -31.85 -31.05 -33.55 L-29.15 -38.4 Q-31.4 -37.6 -32.15 -35.25 -32.7 -33.45 -33.4 -31.6 L-35.5 -29.5 -38.0 -29.05 Q-41.9 -28.9 -45.4 -30.6 L-47.0 -31.8 Q-47.85 -32.65 -47.55 -33.85 -47.15 -35.4 -45.85 -36.4 -41.5 -39.9 -35.8 -39.15 L-33.25 -38.95 Q-31.65 -38.95 -30.75 -40.0 -31.9 -40.8 -33.15 -41.3 L-37.75 -42.8 -36.5 -44.15 Q-32.5 -47.15 -27.65 -48.2 L-18.7 -46.15 -17.15 -45.95 -18.55 -45.35 -21.65 -43.9 -23.4 -42.15 -22.25 -41.5 Q-20.3 -43.3 -17.8 -44.25 -11.8 -46.55 -5.75 -45.15 L1.35 -42.9 3.95 -41.75 Q8.25 -39.7 11.8 -36.45 L10.0 -38.8 8.1 -40.85 6.0 -42.25 Q1.15 -44.75 -4.15 -46.5 L-1.3 -46.6 -0.75 -46.65 6.1 -45.2 M21.15 25.2 L18.7 19.1 17.45 16.55 Q16.35 14.85 15.75 13.1 L15.35 11.65 Q14.65 8.3 15.45 5.25 16.85 0.0 19.65 -4.55 L23.7 -11.6 Q25.35 -14.6 26.25 -17.85 L26.75 -20.35 27.05 -23.35 Q27.2 -26.65 26.15 -29.7 24.8 -33.55 22.1 -36.6 L20.85 -38.05 Q19.75 -39.35 18.15 -40.1 16.4 -41.0 15.25 -42.15 L16.3 -42.0 19.25 -41.05 Q23.9 -39.2 26.7 -35.15 L30.25 -29.7 Q32.55 -26.1 34.05 -22.15 L34.7 -20.35 35.1 -18.8 35.3 -17.85 35.45 -16.25 Q35.7 -13.7 35.1 -11.4 L33.8 -7.4 Q32.05 -3.1 30.7 1.2 L29.6 5.05 Q28.55 9.05 28.7 13.1 28.8 15.7 29.85 17.9 30.6 19.4 31.7 20.7 34.6 24.3 37.9 27.3 L38.55 27.9 Q40.7 30.0 42.35 32.55 L43.4 34.25 44.2 37.05 Q44.65 38.2 44.75 39.5 L45.2 45.1 Q45.5 49.35 44.0 53.7 42.45 58.1 38.1 60.35 L34.9 61.45 30.55 61.15 Q29.1 60.75 27.9 59.75 26.9 58.9 26.35 57.75 25.3 55.75 25.4 53.65 L25.5 53.3 Q26.45 50.6 28.95 49.6 27.35 50.6 26.85 52.65 26.65 53.35 27.15 53.8 26.75 55.35 27.15 56.75 27.5 58.0 28.4 58.8 30.1 60.1 32.4 60.1 L33.4 60.1 34.15 60.1 35.2 59.9 36.2 59.6 Q38.25 60.05 39.7 58.45 40.65 57.4 41.4 56.0 42.5 54.0 42.9 51.7 L43.4 47.4 Q43.8 41.0 41.5 35.1 40.4 32.35 38.65 30.15 35.35 26.1 31.75 22.4 L30.55 21.0 28.65 17.6 Q27.0 13.95 27.05 9.95 27.05 6.9 27.75 3.8 L27.85 3.65 28.95 1.15 Q30.15 -2.15 31.7 -5.2 34.55 -10.95 33.75 -17.3 L33.7 -17.85 33.15 -20.35 32.6 -22.0 31.65 -24.45 29.45 -29.9 Q28.05 -33.5 24.55 -35.3 27.55 -31.85 28.9 -27.9 L29.95 -24.4 30.85 -20.35 31.15 -17.85 31.25 -15.5 Q31.35 -11.4 30.25 -7.45 L28.95 -3.3 27.95 -0.25 Q26.6 4.2 26.15 8.85 25.95 10.6 26.35 12.6 L27.4 17.0 Q27.9 18.85 28.85 20.4 30.6 23.25 33.05 25.8 L37.6 30.9 Q40.55 34.25 41.65 38.35 L42.1 41.2 Q42.45 45.5 42.15 49.95 42.35 46.3 41.25 42.65 L39.8 38.2 Q38.4 34.5 35.9 31.6 35.9 30.8 35.5 30.25 35.1 29.7 34.5 29.7 L33.2 28.0 33.05 27.75 31.05 25.6 29.0 23.55 27.35 21.45 Q26.15 19.55 25.45 17.25 L24.9 15.15 Q24.2 11.3 24.6 7.25 L25.0 4.7 Q26.7 -1.8 28.7 -8.45 28.95 -9.35 28.55 -10.15 L28.2 -9.15 27.5 -6.9 25.6 -0.95 24.4 3.25 23.4 8.0 Q23.15 9.25 23.35 10.8 L23.55 13.55 Q23.6 16.95 24.85 20.05 L27.3 23.15 Q30.05 26.0 32.6 29.2 L34.85 31.9 35.9 35.55 36.45 37.4 Q37.4 40.55 36.9 43.95 36.2 48.4 34.5 52.8 L34.05 51.75 32.55 49.2 32.65 47.7 32.75 45.2 Q32.95 40.25 31.75 35.45 L31.8 35.6 31.75 34.6 31.25 32.65 Q30.15 29.35 27.7 26.85 L24.5 23.35 23.95 22.5 22.75 20.5 Q21.15 17.35 20.75 13.7 L20.4 9.8 Q20.1 6.75 20.95 3.9 L22.2 -0.4 21.6 0.25 20.7 1.95 Q19.6 5.15 19.55 8.45 19.5 12.8 20.6 17.2 L21.85 21.75 Q22.95 25.35 23.7 29.35 L21.15 25.2 M26.8 67.8 L26.8 68.3 26.65 67.75 26.5 67.3 26.8 67.8 M12.5 -28.55 Q13.4 -27.6 13.6 -26.55 L14.35 -24.55 Q15.45 -22.55 15.85 -20.35 L15.85 -20.15 16.1 -17.85 16.05 -13.75 15.8 -13.0 16.1 -12.5 16.0 -12.25 15.95 -12.05 15.85 -11.65 15.1 -10.15 Q14.6 -9.5 15.25 -9.1 L15.45 -9.35 Q17.0 -12.3 17.6 -15.7 L17.7 -16.5 17.75 -17.85 17.55 -20.2 17.55 -20.35 17.1 -22.8 Q16.5 -25.9 15.1 -28.8 L13.3 -32.0 Q10.65 -35.9 6.35 -38.4 2.35 -40.8 -2.15 -42.0 L-6.7 -43.0 -13.45 -43.5 -16.0 -42.7 -17.25 -42.25 Q-17.8 -41.8 -17.6 -41.2 L-15.85 -40.85 -15.15 -41.5 -9.2 -41.35 Q-4.95 -41.05 -0.75 -39.4 3.15 -37.75 6.45 -34.8 L11.45 -29.8 12.5 -28.55 M22.0 -5.65 Q16.8 1.3 17.6 9.95 L17.75 12.35 Q17.8 13.55 18.7 13.55 L18.7 13.25 18.65 8.2 18.75 3.75 Q18.85 2.2 19.4 0.7 20.5 -2.1 22.05 -4.65 22.4 -5.3 22.0 -5.65 M28.3 -18.9 L28.2 -17.85 Q27.8 -14.8 26.7 -11.95 23.8 -4.25 22.15 4.0 21.55 7.0 22.55 9.6 22.85 4.55 24.1 -0.1 24.65 -2.25 25.35 -4.2 26.9 -8.65 28.0 -13.3 L28.4 -15.45 Q28.6 -16.6 28.45 -17.85 L28.3 -18.9 M33.3 -2.7 L34.15 -4.8 34.95 -1.95 35.1 -1.2 35.5 1.8 Q36.0 4.6 35.25 7.25 L34.0 11.85 33.0 15.25 Q32.65 16.45 32.45 17.65 32.25 18.65 32.4 19.75 30.5 16.95 29.95 13.85 29.6 12.05 29.85 10.25 30.15 7.65 30.8 5.15 31.85 1.2 33.3 -2.7 M34.3 7.1 Q34.5 4.95 34.0 2.65 33.8 1.8 33.25 1.4 L33.2 1.6 33.2 3.4 33.15 5.25 Q32.7 8.65 31.85 12.2 L32.5 12.85 34.3 7.1 M11.1 32.0 L10.5 32.5 Q9.75 33.75 10.1 35.1 L11.45 40.8 Q11.9 43.05 13.65 44.25 L14.45 43.8 Q12.85 40.95 11.9 37.9 11.05 35.1 11.1 32.0 M12.8 32.15 Q12.75 33.9 13.15 35.5 L13.75 38.4 Q14.6 42.9 17.5 46.05 L15.6 48.45 Q12.35 45.6 10.45 41.45 9.25 38.8 9.1 35.85 8.85 31.5 9.45 27.2 L12.8 32.15 M33.5 34.3 Q33.05 34.75 33.15 35.1 33.75 37.25 33.95 39.35 L34.1 43.9 33.9 46.0 34.8 46.15 35.05 45.1 35.25 41.3 Q35.25 37.5 33.5 34.3 M28.95 37.1 Q28.85 41.75 26.75 45.8 L25.25 49.1 Q25.15 48.5 25.3 47.95 L27.1 41.8 27.75 38.55 Q27.9 36.45 27.55 34.35 L26.9 31.65 26.4 30.1 26.9 30.45 27.9 32.3 Q28.9 34.65 28.95 37.1 M31.55 54.45 L32.85 55.4 Q33.3 55.6 33.7 55.1 L32.2 59.2 30.35 58.8 31.55 54.45 M28.9 51.05 L29.1 50.85 29.15 50.9 28.9 51.05 M20.35 60.65 Q20.4 57.15 18.4 54.0 L20.9 50.95 21.4 52.6 21.5 53.95 Q21.85 57.55 20.35 60.65 M31.8 64.55 L31.75 65.75 Q31.9 68.8 33.55 71.5 30.55 68.5 30.3 64.2 L31.8 64.55 M-36.65 -36.0 L-41.9 -36.65 -42.55 -36.1 Q-43.25 -35.15 -42.9 -33.95 L-41.6 -32.75 -38.4 -33.05 Q-37.9 -33.05 -37.5 -33.5 -36.5 -34.55 -36.65 -36.0 M-13.5 -47.05 L-20.35 -48.0 -13.0 -49.2 Q-9.9 -49.65 -6.75 -49.25 -3.8 -48.95 -0.9 -47.9 L-3.8 -47.6 -13.5 -47.05 M-25.25 -43.0 Q-28.0 -44.2 -31.1 -44.7 L-32.5 -44.65 -32.15 -43.7 Q-31.85 -42.9 -31.15 -42.45 -29.45 -41.45 -27.55 -41.75 -26.05 -41.9 -25.25 -43.0" fill="#d1d1d1" fill-rule="evenodd" stroke="none"/>
    <path d="M9.35 -45.1 L12.2 -43.5 Q12.55 -43.3 13.0 -43.15 15.95 -43.15 18.7 -42.3 20.35 -41.95 21.7 -40.95 L24.2 -39.3 Q25.65 -38.45 26.65 -37.25 29.55 -33.75 31.8 -29.9 L34.15 -25.7 Q35.55 -23.15 36.2 -20.35 L36.6 -17.85 36.7 -16.25 Q36.85 -11.75 35.1 -7.35 L34.55 -5.9 Q34.35 -5.35 34.75 -4.7 L35.95 -2.1 Q38.55 6.05 36.2 14.0 35.35 16.9 34.95 20.05 34.75 21.6 35.2 23.1 L37.0 24.8 38.55 27.9 37.9 27.3 Q34.6 24.3 31.7 20.7 30.6 19.4 29.85 17.9 28.8 15.7 28.7 13.1 28.55 9.05 29.6 5.05 L30.7 1.2 Q32.05 -3.1 33.8 -7.4 L35.1 -11.4 Q35.7 -13.7 35.45 -16.25 L35.3 -17.85 35.1 -18.8 34.7 -20.35 34.05 -22.15 Q32.55 -26.1 30.25 -29.7 L26.7 -35.15 Q23.9 -39.2 19.25 -41.05 L16.3 -42.0 15.25 -42.15 Q16.4 -41.0 18.15 -40.1 19.75 -39.35 20.85 -38.05 L22.1 -36.6 Q24.8 -33.55 26.15 -29.7 27.2 -26.65 27.05 -23.35 L26.75 -20.35 26.25 -17.85 Q25.35 -14.6 23.7 -11.6 L19.65 -4.55 Q16.85 0.0 15.45 5.25 14.65 8.3 15.35 11.65 L15.75 13.1 Q16.35 14.85 17.45 16.55 L18.7 19.1 21.15 25.2 21.05 25.05 22.1 29.0 Q19.7 25.55 17.9 21.4 L15.15 15.1 Q13.35 11.3 13.95 6.85 14.5 3.05 16.1 -0.45 17.75 -3.95 19.8 -7.25 L22.45 -11.85 Q24.0 -14.75 24.95 -17.85 L25.5 -20.0 25.6 -20.35 Q26.05 -22.6 25.95 -24.95 25.7 -29.9 22.95 -33.95 20.95 -36.85 18.15 -39.1 L17.15 -39.75 12.5 -42.25 12.45 -42.05 12.3 -42.1 6.1 -45.2 9.35 -45.1 M-12.4 -25.7 L-19.15 -25.55 -23.4 -25.2 -30.05 -25.25 -31.1 -25.9 -31.6 -26.3 Q-32.0 -26.05 -32.4 -25.85 L-33.85 -25.25 -34.7 -25.15 -42.05 -25.65 Q-43.1 -26.65 -44.3 -27.3 -46.15 -28.2 -48.0 -29.35 -50.1 -30.6 -50.45 -32.95 -50.7 -34.85 -49.5 -36.6 -47.65 -39.35 -44.4 -40.45 -40.45 -41.75 -36.15 -41.15 L-35.15 -41.5 -40.4 -42.85 Q-38.65 -45.55 -35.95 -47.15 -31.9 -49.4 -27.65 -48.2 -32.5 -47.15 -36.5 -44.15 L-37.75 -42.8 -33.15 -41.3 Q-31.9 -40.8 -30.75 -40.0 -31.65 -38.95 -33.25 -38.95 L-35.8 -39.15 Q-41.5 -39.9 -45.85 -36.4 -47.15 -35.4 -47.55 -33.85 -47.85 -32.65 -47.0 -31.8 L-45.4 -30.6 Q-41.9 -28.9 -38.0 -29.05 L-35.5 -29.5 -33.4 -31.6 Q-32.7 -33.45 -32.15 -35.25 -31.4 -37.6 -29.15 -38.4 L-31.05 -33.55 Q-31.7 -31.85 -31.4 -30.25 -31.05 -28.15 -29.0 -27.45 -27.1 -26.9 -25.0 -26.7 L-14.45 -27.45 -7.8 -26.65 -6.05 -26.2 -12.4 -25.7 M25.4 53.65 Q25.3 55.75 26.35 57.75 26.9 58.9 27.9 59.75 29.1 60.75 30.55 61.15 L34.9 61.45 38.1 60.35 Q42.45 58.1 44.0 53.7 45.5 49.35 45.2 45.1 L44.75 39.5 Q44.65 38.2 44.2 37.05 L43.4 34.25 Q45.45 38.25 46.0 42.8 46.5 47.25 46.1 51.85 45.9 54.3 44.7 56.3 42.2 60.6 37.75 62.7 L36.55 63.1 32.95 63.4 Q27.95 63.1 25.85 58.6 24.85 56.55 25.2 54.35 L25.4 53.65 M-1.3 -46.6 L-4.15 -46.5 Q1.15 -44.75 6.0 -42.25 L8.1 -40.85 10.0 -38.8 11.8 -36.45 Q8.25 -39.7 3.95 -41.75 L1.35 -42.9 -5.75 -45.15 Q-11.8 -46.55 -17.8 -44.25 -20.3 -43.3 -22.25 -41.5 L-23.4 -42.15 -21.65 -43.9 -18.55 -45.35 -17.15 -45.95 -18.7 -46.15 -13.5 -47.05 -3.8 -47.6 -3.2 -47.2 Q-2.3 -46.65 -1.3 -46.6 M24.85 20.05 Q23.6 16.95 23.55 13.55 L23.35 10.8 Q23.15 9.25 23.4 8.0 L24.4 3.25 25.6 -0.95 27.5 -6.9 28.2 -9.15 28.55 -10.15 Q28.95 -9.35 28.7 -8.45 26.7 -1.8 25.0 4.7 L24.6 7.25 Q24.2 11.3 24.9 15.15 L25.45 17.25 Q26.15 19.55 27.35 21.45 L29.0 23.55 31.05 25.6 33.05 27.75 33.2 28.0 Q29.45 25.55 26.55 22.05 L25.25 20.55 24.85 20.05 M34.5 29.7 Q35.1 29.7 35.5 30.25 35.9 30.8 35.9 31.6 L34.5 29.7 M33.3 -2.7 Q31.85 1.2 30.8 5.15 30.15 7.65 29.85 10.25 29.6 12.05 29.95 13.85 30.5 16.95 32.4 19.75 32.25 18.65 32.45 17.65 32.65 16.45 33.0 15.25 L34.0 11.85 35.25 7.25 Q36.0 4.6 35.5 1.8 L35.1 -1.2 34.95 -1.95 34.15 -4.8 33.3 -2.7 M23.7 29.35 Q22.95 25.35 21.85 21.75 L20.6 17.2 Q19.5 12.8 19.55 8.45 19.6 5.15 20.7 1.95 L21.6 0.25 22.2 -0.4 20.95 3.9 Q20.1 6.75 20.4 9.8 L20.75 13.7 Q21.15 17.35 22.75 20.5 L23.95 22.5 24.5 23.35 27.7 26.85 Q30.15 29.35 31.25 32.65 L31.75 34.6 31.8 35.6 31.75 35.45 30.8 32.25 30.75 33.35 Q30.55 36.1 31.3 38.7 L30.6 40.15 27.35 48.1 26.9 48.9 25.45 50.85 Q24.55 52.1 24.15 53.55 23.8 54.85 23.95 56.05 24.2 58.6 25.55 60.7 L25.05 65.1 23.45 65.35 Q21.0 65.8 20.8 68.15 L20.8 64.6 22.45 62.0 Q23.2 60.75 23.3 59.4 23.7 54.3 21.65 49.75 L23.05 46.65 Q24.8 42.75 25.15 38.35 25.55 33.55 23.7 29.35 M34.5 52.8 Q36.2 48.4 36.9 43.95 37.4 40.55 36.45 37.4 L35.9 35.55 34.85 31.9 34.85 31.85 35.25 32.6 35.55 33.4 Q37.0 36.45 37.8 39.85 39.1 45.5 37.15 50.95 35.95 54.25 35.25 57.65 L35.1 59.2 32.35 59.25 32.2 59.25 32.2 59.2 33.7 55.1 34.5 52.8 M12.8 32.15 L9.45 27.2 10.1 24.0 13.3 27.1 Q13.1 27.4 13.05 27.75 12.65 29.85 12.8 32.15 M28.95 37.1 Q28.9 34.65 27.9 32.3 L26.9 30.45 26.4 30.1 26.9 31.65 27.55 34.35 Q27.9 36.45 27.75 38.55 L27.1 41.8 25.3 47.95 Q25.15 48.5 25.25 49.1 L26.75 45.8 Q28.85 41.75 28.95 37.1 M20.35 60.65 Q21.85 57.55 21.5 53.95 L21.4 52.6 Q22.05 54.45 22.25 56.55 22.7 61.2 19.25 64.5 L20.35 60.65 M31.8 64.55 L35.15 64.65 Q35.2 66.5 36.15 68.1 37.7 70.8 40.7 71.7 42.55 72.05 44.55 71.7 46.45 71.5 47.95 70.3 50.15 68.6 50.0 65.8 49.95 64.3 49.55 62.9 49.0 61.1 46.95 61.1 L47.5 60.85 48.55 60.9 Q49.85 61.2 50.3 62.4 L50.85 64.3 51.1 66.95 Q51.05 68.95 50.1 70.7 48.9 72.85 46.6 73.85 43.9 75.05 40.85 75.3 L38.3 74.65 Q36.05 73.6 34.1 72.05 L33.55 71.5 Q31.9 68.8 31.75 65.75 L31.8 64.55 M24.55 74.7 L23.15 75.75 23.15 75.55 22.65 74.5 21.55 71.65 20.8 68.4 20.85 68.6 21.1 68.85 21.4 68.95 21.8 68.75 Q22.2 67.25 23.6 67.2 L24.7 67.5 Q25.5 68.15 25.7 68.9 26.6 72.2 24.55 74.7 M26.4 79.3 L25.95 79.05 26.85 77.8 27.5 79.75 26.4 79.3" fill="#989898" fill-rule="evenodd" stroke="none"/>
    <path d="M37.0 24.8 Q40.8 27.75 43.35 31.85 44.65 34.0 45.5 36.25 L46.25 38.6 46.55 40.15 Q47.25 44.45 47.4 48.85 47.6 53.8 44.95 58.0 42.5 61.95 38.1 63.85 L36.35 64.5 Q36.95 66.4 37.8 68.0 L38.9 69.25 Q39.65 69.75 40.55 70.05 L42.55 70.6 Q44.75 71.1 46.7 70.05 48.1 69.2 48.55 67.7 49.2 65.8 49.1 63.85 49.05 63.0 48.5 62.25 L47.75 61.95 45.95 62.15 Q45.4 60.95 46.6 60.4 48.6 59.3 50.15 60.7 L51.3 62.4 Q52.0 64.65 51.85 67.15 L51.55 69.45 Q51.3 70.9 50.45 72.0 47.6 75.55 43.0 76.1 L39.55 76.4 Q36.9 76.0 34.7 74.25 L32.85 72.65 Q30.6 70.65 29.6 67.7 28.95 65.8 29.05 63.75 L26.2 61.6 26.1 65.45 Q28.6 67.2 28.9 70.05 29.05 71.35 28.7 72.7 L27.7 76.0 27.3 76.95 29.55 81.2 Q29.4 81.5 29.1 81.45 27.35 81.55 26.0 80.55 L25.1 79.75 Q23.0 81.1 20.35 81.35 L14.35 79.85 Q13.05 79.55 11.85 78.9 L8.95 76.6 Q7.75 75.35 6.85 73.8 5.0 70.6 5.2 66.95 5.55 59.35 10.85 53.6 L13.7 50.5 14.75 49.35 Q10.8 46.4 9.25 41.85 8.6 40.1 8.25 38.35 7.8 36.25 7.85 34.2 L8.05 27.45 Q8.05 26.6 8.35 25.7 L9.25 22.75 Q7.45 19.75 6.7 16.4 6.05 13.6 6.7 10.8 L9.6 -0.15 9.8 -1.55 Q9.85 -7.6 7.6 -13.05 L5.85 -16.35 4.7 -17.85 2.05 -20.35 0.85 -21.2 Q-5.1 -25.25 -12.4 -25.7 L-6.05 -26.2 Q-2.15 -24.8 1.15 -22.65 L2.95 -21.55 4.25 -20.55 4.5 -20.35 6.65 -17.85 7.55 -16.35 8.9 -13.1 9.15 -12.2 Q10.7 -7.75 11.05 -3.0 11.15 -1.3 10.8 0.3 9.75 4.95 8.4 9.15 7.0 13.35 8.15 17.45 9.35 21.75 12.85 24.75 16.2 27.65 18.9 31.1 20.1 32.6 20.6 34.65 21.35 37.6 20.85 40.85 20.15 45.5 16.9 48.95 L14.6 51.3 12.1 54.0 9.6 57.05 Q7.05 60.5 6.45 64.65 5.65 69.7 8.5 73.95 11.2 77.95 16.0 79.3 L20.15 80.1 Q22.45 80.5 24.1 78.85 27.55 75.3 28.0 70.2 L28.0 69.75 26.8 67.8 26.5 67.3 26.65 67.75 26.8 68.3 Q27.35 70.5 26.9 72.65 26.55 74.5 25.25 75.7 23.95 76.95 22.5 77.45 19.75 78.2 16.95 77.55 14.5 77.05 12.7 75.4 11.5 74.2 10.8 72.55 9.65 69.7 9.75 66.6 9.85 63.65 11.2 61.2 13.4 57.2 16.65 53.8 L19.4 50.75 Q20.55 49.4 21.15 47.9 23.1 43.35 23.75 38.45 24.4 33.45 22.1 29.0 L21.05 25.05 21.15 25.2 23.7 29.35 Q25.55 33.55 25.15 38.35 24.8 42.75 23.05 46.65 L21.65 49.75 Q23.7 54.3 23.3 59.4 23.2 60.75 22.45 62.0 L20.8 64.6 20.8 68.15 Q21.0 65.8 23.45 65.35 L25.05 65.1 25.55 60.7 Q24.2 58.6 23.95 56.05 23.8 54.85 24.15 53.55 24.55 52.1 25.45 50.85 L26.9 48.9 27.35 48.1 30.6 40.15 31.3 38.7 Q30.55 36.1 30.75 33.35 L30.8 32.25 31.75 35.45 Q32.95 40.25 32.75 45.2 L32.65 47.7 32.55 49.2 34.05 51.75 34.0 53.8 32.65 54.15 31.95 52.85 31.55 54.45 30.35 58.8 32.2 59.2 32.2 59.25 32.35 59.25 35.1 59.2 35.25 57.65 Q35.95 54.25 37.15 50.95 39.1 45.5 37.8 39.85 37.0 36.45 35.55 33.4 L35.25 32.6 34.85 31.85 34.85 31.9 32.6 29.2 Q30.05 26.0 27.3 23.15 L24.85 20.05 25.25 20.55 26.55 22.05 Q29.45 25.55 33.2 28.0 L34.5 29.7 35.9 31.6 Q38.4 34.5 39.8 38.2 L41.25 42.65 Q42.35 46.3 42.15 49.95 L42.15 50.45 42.1 50.7 Q42.0 53.0 41.05 54.95 L40.25 56.25 38.9 57.75 36.2 59.6 35.2 59.9 34.15 60.1 33.4 60.1 32.4 60.1 Q30.1 60.1 28.4 58.8 27.5 58.0 27.15 56.75 26.75 55.35 27.15 53.8 27.15 52.65 27.7 51.85 28.2 51.05 28.9 51.05 L29.15 50.9 Q31.7 50.05 32.65 52.55 L32.8 53.2 33.5 53.3 Q33.5 51.4 32.15 50.05 31.5 49.4 30.5 49.35 L28.95 49.6 Q26.45 50.6 25.5 53.3 L25.4 53.65 25.2 54.35 Q24.85 56.55 25.85 58.6 27.95 63.1 32.95 63.4 L36.55 63.1 37.75 62.7 Q42.2 60.6 44.7 56.3 45.9 54.3 46.1 51.85 46.5 47.25 46.0 42.8 45.45 38.25 43.4 34.25 L42.35 32.55 Q40.7 30.0 38.55 27.9 L37.0 24.8 M-42.05 -25.65 Q-45.15 -25.95 -47.9 -27.4 -49.85 -28.5 -51.1 -30.35 -52.5 -32.6 -51.75 -35.15 -50.95 -37.95 -48.6 -39.8 -45.9 -42.05 -42.4 -42.65 -40.55 -46.3 -36.8 -48.3 -34.8 -49.25 -32.6 -49.45 -28.7 -49.95 -25.0 -49.3 L-12.7 -50.6 -8.15 -51.05 -3.6 -50.5 -0.05 -49.4 Q4.8 -47.6 9.35 -45.1 L6.1 -45.2 -0.75 -46.65 -1.3 -46.6 Q-2.3 -46.65 -3.2 -47.2 L-3.8 -47.6 -0.9 -47.9 Q-3.8 -48.95 -6.75 -49.25 -9.9 -49.65 -13.0 -49.2 L-20.35 -48.0 -13.5 -47.05 -18.7 -46.15 -27.65 -48.2 Q-31.9 -49.4 -35.95 -47.15 -38.65 -45.55 -40.4 -42.85 L-35.15 -41.5 -36.15 -41.15 Q-40.45 -41.75 -44.4 -40.45 -47.65 -39.35 -49.5 -36.6 -50.7 -34.85 -50.45 -32.95 -50.1 -30.6 -48.0 -29.35 -46.15 -28.2 -44.3 -27.3 -43.1 -26.65 -42.05 -25.65 M19.8 38.7 Q19.95 33.9 16.8 30.45 L14.1 27.85 Q12.9 34.65 15.85 40.85 L18.0 45.35 Q19.1 43.6 19.5 41.35 L19.8 38.7 M9.45 27.2 Q8.85 31.5 9.1 35.85 9.25 38.8 10.45 41.45 12.35 45.6 15.6 48.45 L17.5 46.05 Q14.6 42.9 13.75 38.4 L13.15 35.5 Q12.75 33.9 12.8 32.15 12.65 29.85 13.05 27.75 13.1 27.4 13.3 27.1 L10.1 24.0 9.45 27.2 M29.7 48.3 L31.85 48.75 31.5 40.3 28.45 48.45 29.7 48.3 M39.85 55.0 Q41.75 51.2 41.25 47.05 40.65 42.3 38.75 38.05 39.35 40.45 39.4 43.0 L38.95 47.35 37.1 54.8 36.0 58.95 Q36.95 58.75 37.7 58.05 L39.45 55.75 39.85 55.0 M30.4 51.6 Q28.2 52.0 27.85 54.35 27.65 55.85 28.45 57.1 L29.5 58.4 31.35 51.9 30.4 51.6 M21.4 52.6 L20.9 50.95 18.4 54.0 Q20.4 57.15 20.35 60.65 L19.25 64.5 Q22.7 61.2 22.25 56.55 22.05 54.45 21.4 52.6 M24.55 74.7 Q26.6 72.2 25.7 68.9 25.5 68.15 24.7 67.5 L23.6 67.2 Q22.2 67.25 21.8 68.75 L21.4 68.95 21.1 68.85 20.85 68.6 20.8 68.4 21.55 71.65 22.65 74.5 23.15 75.55 23.15 75.75 24.55 74.7 M33.55 71.5 L34.1 72.05 Q36.05 73.6 38.3 74.65 L40.85 75.3 Q43.9 75.05 46.6 73.85 48.9 72.85 50.1 70.7 51.05 68.95 51.1 66.95 L50.85 64.3 50.3 62.4 Q49.85 61.2 48.55 60.9 L47.5 60.85 46.95 61.1 Q49.0 61.1 49.55 62.9 49.95 64.3 50.0 65.8 50.15 68.6 47.95 70.3 46.45 71.5 44.55 71.7 42.55 72.05 40.7 71.7 37.7 70.8 36.15 68.1 35.2 66.5 35.15 64.65 L31.8 64.55 30.3 64.2 Q30.55 68.5 33.55 71.5 M13.65 69.3 L12.7 69.0 Q12.6 68.25 13.5 68.1 14.95 67.7 15.95 66.8 L17.95 64.55 Q19.0 63.1 19.15 61.2 19.5 57.7 17.65 54.75 14.35 57.55 12.3 61.3 L11.35 63.2 10.95 64.5 Q10.55 67.8 11.45 71.0 12.5 74.7 16.15 76.0 L22.3 76.3 Q20.6 74.35 20.1 71.85 L19.75 68.65 19.7 65.85 Q17.3 68.85 13.65 69.3 M26.4 79.3 L27.5 79.75 26.85 77.8 25.95 79.05 26.4 79.3" fill="#606060" fill-rule="evenodd" stroke="none"/>
  </g>
</svg>
