<?xml version="1.0" encoding="UTF-8" standalone="no"?>
<svg xmlns:ffdec="https://www.free-decompiler.com/flash" xmlns:xlink="http://www.w3.org/1999/xlink" ffdec:objectType="shape" height="63.15px" width="20.05px" xmlns="http://www.w3.org/2000/svg">
  <g transform="matrix(1.0, 0.0, 0.0, 1.0, 7.95, 1.95)">
    <path d="M1.1 2.9 Q2.35 4.0 3.1 7.4 L3.65 11.75 3.65 11.95 3.9 16.8 3.95 21.5 3.95 21.55 4.4 26.05 4.8 30.35 5.3 34.85 5.75 39.45 5.8 39.55 6.3 44.3 6.4 45.5 6.65 47.75 6.5 49.2 Q6.3 49.8 5.55 49.55 5.05 49.0 4.2 46.45 L3.95 45.55 3.7 44.65 3.15 42.0 2.85 39.8 2.85 39.75 2.25 35.2 1.7 30.7 1.2 26.45 0.65 21.9 0.15 17.3 -0.3 12.55 -0.7 8.15 -0.8 7.35 Q-0.8 6.05 -0.4 4.65 L0.3 3.05 0.6 2.55 1.1 2.9" fill="#ffffff" fill-rule="evenodd" stroke="none"/>
    <path d="M-3.95 -1.05 Q0.75 -2.1 3.1 -1.95 L3.7 2.0 4.25 6.95 4.8 11.55 5.3 16.35 5.75 20.95 6.2 25.55 6.3 26.65 6.6 29.8 7.05 34.35 7.45 38.95 7.55 39.75 7.9 43.85 8.1 45.75 8.4 49.8 8.55 52.25 Q8.55 55.6 6.6 55.6 4.2 55.6 2.3 50.5 1.6 48.6 1.0 46.1 L0.65 44.55 -0.1 40.6 -0.25 39.65 -0.95 34.95 -1.0 34.55 -1.45 30.45 -1.85 26.2 -2.2 21.8 -2.55 17.25 -2.95 12.55 -3.25 8.2 -3.6 3.4 -3.95 -1.05 M1.1 2.9 L0.6 2.55 0.3 3.05 -0.4 4.65 Q-0.8 6.05 -0.8 7.35 L-0.7 8.15 -0.3 12.55 0.15 17.3 0.65 21.9 1.2 26.45 1.7 30.7 2.25 35.2 2.85 39.75 2.85 39.8 3.15 42.0 3.7 44.65 3.95 45.55 4.2 46.45 Q5.05 49.0 5.55 49.55 6.3 49.8 6.5 49.2 L6.65 47.75 6.4 45.5 6.3 44.3 5.8 39.55 5.75 39.45 5.3 34.85 4.8 30.35 4.4 26.05 3.95 21.55 3.95 21.5 3.9 16.8 3.65 11.95 3.65 11.75 3.1 7.4 Q2.35 4.0 1.1 2.9" fill="#e0e0e0" fill-rule="evenodd" stroke="none"/>
    <path d="M4.9 -1.65 L4.9 -1.55 5.2 1.05 5.75 6.05 6.2 10.75 6.7 15.65 7.15 20.25 7.65 24.95 7.75 26.15 8.05 29.2 8.55 33.7 9.0 38.3 9.15 40.2 9.45 43.2 9.75 46.3 10.05 49.05 10.5 53.8 10.6 54.4 10.65 54.55 Q11.05 56.35 9.4 58.05 7.75 59.7 5.5 59.7 3.25 59.7 1.7 58.15 0.7 57.15 0.5 56.05 L0.45 55.0 -4.4 16.75 -6.5 0.2 -6.8 0.2 -3.95 -1.05 -3.6 3.4 -3.25 8.2 -2.95 12.55 -2.55 17.25 -2.2 21.8 -1.85 26.2 -1.45 30.45 -1.0 34.55 -0.95 34.95 -0.25 39.65 -0.1 40.6 0.65 44.55 1.0 46.1 Q1.6 48.6 2.3 50.5 4.2 55.6 6.6 55.6 8.55 55.6 8.55 52.25 L8.4 49.8 8.1 45.75 7.9 43.85 7.55 39.75 7.45 38.95 7.05 34.35 6.6 29.8 6.3 26.65 6.2 25.55 5.75 20.95 5.3 16.35 4.8 11.55 4.25 6.95 3.7 2.0 3.1 -1.95 4.9 -1.65" fill="#b4b4b4" fill-rule="evenodd" stroke="none"/>
    <path d="M4.9 -1.65 Q6.4 -1.3 6.6 -0.75 L12.1 54.6 Q12.1 57.3 10.15 59.25 8.25 61.2 5.5 61.2 2.65 61.2 0.6 59.05 -1.15 57.25 -1.05 55.5 L-1.05 55.2 -7.95 1.4 Q-7.8 0.85 -6.8 0.2 L-6.5 0.2 -4.4 16.75 0.45 55.0 0.5 56.05 Q0.7 57.15 1.7 58.15 3.25 59.7 5.5 59.7 7.75 59.7 9.4 58.05 11.05 56.35 10.65 54.55 L10.6 54.4 10.5 53.8 10.05 49.05 9.75 46.3 9.45 43.2 9.15 40.2 9.0 38.3 8.55 33.7 8.05 29.2 7.75 26.15 7.65 24.95 7.15 20.25 6.7 15.65 6.2 10.75 5.75 6.05 5.2 1.05 4.9 -1.55 4.9 -1.65" fill="#464646" fill-rule="evenodd" stroke="none"/>
  </g>
</svg>
