<?xml version="1.0" encoding="UTF-8" standalone="no"?>
<svg xmlns:ffdec="https://www.free-decompiler.com/flash" xmlns:xlink="http://www.w3.org/1999/xlink" ffdec:objectType="shape" height="108.25px" width="142.3px" xmlns="http://www.w3.org/2000/svg">
  <g transform="matrix(1.0, 0.0, 0.0, 1.0, 77.55, 54.35)">
    <path d="M23.35 -32.4 L22.7 -34.05 20.9 -38.8 Q20.0 -40.95 18.2 -42.0 L17.85 -41.65 Q20.55 -28.4 18.9 -15.0 17.5 -3.6 21.8 6.15 L22.85 6.2 Q27.3 -0.15 27.55 -8.15 27.9 -20.7 23.35 -32.4 M15.3 11.9 L16.2 7.75 Q16.9 1.85 14.65 -4.3 10.5 -15.8 0.95 -23.5 -8.4 -31.0 -20.3 -31.75 -31.35 -32.75 -42.15 -29.2 -46.75 -27.7 -51.4 -27.05 -49.85 -33.65 -42.1 -37.3 -36.95 -39.8 -31.35 -41.45 -17.55 -45.15 -3.85 -40.1 5.55 -36.65 11.45 -28.9 12.8 -27.15 13.35 -25.05 16.05 -34.85 11.75 -43.7 10.7 -45.8 11.3 -47.85 L12.15 -48.35 Q22.2 -44.3 27.05 -34.25 32.55 -22.95 31.1 -10.65 29.9 -0.15 24.65 8.95 L23.25 11.2 20.75 15.0 20.7 14.85 20.35 14.45 Q17.9 12.7 15.3 11.9 M15.0 -12.55 L15.55 -12.7 15.4 -13.9 Q12.25 -25.15 2.15 -32.0 -2.8 -36.2 -8.7 -38.7 -22.3 -44.4 -33.8 -36.55 L-33.85 -35.85 -33.15 -35.3 -26.3 -36.1 Q-12.7 -36.6 -1.15 -29.05 8.8 -22.45 15.0 -12.55 M8.3 -7.75 L8.05 -6.6 7.5 -6.55 Q-2.8 -17.15 -18.0 -16.05 -28.4 -15.15 -37.45 -10.3 -42.3 -7.7 -45.8 -3.9 -50.05 0.75 -52.3 7.2 L-53.25 9.0 Q-53.35 4.15 -51.6 -0.15 L-49.8 -3.9 Q-45.75 -11.25 -38.55 -15.85 -27.9 -22.65 -15.4 -22.3 1.05 -21.85 7.5 -7.3 L7.95 -7.4 8.3 -7.75 M-69.0 33.55 Q-57.9 39.4 -45.9 34.75 L-44.8 34.3 -35.7 29.45 -34.5 28.6 -32.8 27.35 Q-29.5 24.75 -26.6 21.6 -23.0 17.75 -18.65 14.5 L-18.4 14.9 Q-22.85 25.95 -33.15 32.05 L-33.45 32.2 -35.05 33.1 Q-43.15 37.4 -52.25 39.65 -65.7 43.05 -74.95 33.4 L-75.55 32.55 Q-76.05 29.9 -75.25 27.4 L-74.55 29.0 Q-72.9 32.7 -69.0 33.55 M-2.35 8.95 Q-2.65 7.3 -5.45 6.65 -6.7 6.35 -9.05 7.1 -10.8 7.55 -13.05 8.6 L-16.45 10.2 -16.85 10.4 Q-24.2 14.05 -31.45 16.25 L-33.0 16.7 -34.0 16.95 Q-43.8 19.5 -49.45 14.05 -38.55 9.75 -33.5 -0.85 L-31.75 -3.9 Q-26.65 -11.4 -16.8 -12.05 -0.4 -13.55 7.7 0.8 9.4 3.8 10.2 7.0 10.7 9.15 10.8 11.4 L9.05 10.95 9.0 10.85 8.6 10.55 Q4.5 8.55 0.15 8.8 L-0.25 8.95 -0.5 9.2 -3.0 8.95 -2.35 8.95 M28.9 19.2 Q29.1 18.1 30.5 17.2 L33.9 14.7 Q41.1 8.55 43.95 -1.0 47.85 -14.05 47.1 -27.65 L45.75 -36.25 46.2 -37.4 Q52.3 -29.55 56.1 -19.75 60.4 -8.45 56.0 3.05 L54.25 7.6 56.5 6.35 57.3 6.8 Q57.6 12.8 54.35 18.0 50.6 23.95 43.9 25.75 L42.85 26.05 Q39.25 26.8 36.15 25.9 L33.6 24.15 33.35 24.15 31.25 22.2 31.3 22.05 31.3 21.55 31.0 21.1 28.9 19.2 M42.45 38.6 Q42.85 37.8 43.4 37.15 45.7 34.4 50.8 33.55 52.35 33.45 53.5 32.6 L57.15 31.3 Q53.35 41.8 43.1 44.95 L42.4 45.15 41.75 45.2 Q41.4 42.95 41.65 41.15 41.85 39.75 42.45 38.6 M51.8 -19.9 L50.75 -22.25 50.15 -22.3 Q49.4 -11.1 46.1 -0.35 43.05 9.55 36.8 17.5 L33.4 21.4 Q33.85 22.3 34.7 22.55 38.25 23.75 42.0 22.55 L42.75 22.3 Q46.7 20.9 48.5 17.45 L47.65 16.55 Q49.55 10.1 51.9 3.65 56.1 -8.0 51.8 -19.9 M6.0 6.5 Q5.7 4.35 4.35 2.35 -4.05 -10.15 -18.6 -5.1 L-21.15 -3.9 Q-23.55 -2.55 -25.25 -0.35 -31.4 7.4 -40.4 11.2 L-38.55 11.95 -38.3 12.0 -38.1 12.05 -37.95 12.05 Q-35.2 12.55 -32.3 10.8 L-31.25 10.1 -30.6 9.6 -29.5 8.65 -29.4 8.5 Q-25.8 5.0 -20.95 3.45 -11.55 0.4 -2.45 4.0 -0.35 4.8 1.75 6.0 L3.25 6.9 4.25 9.05 6.0 9.0 6.0 6.5 M27.7 38.55 L30.95 39.45 30.75 40.05 29.9 40.75 Q27.85 42.2 25.25 42.85 L26.1 41.6 27.7 38.55 M35.5 40.85 L35.0 41.25 35.0 40.7 35.5 40.85 M-54.05 33.1 Q-46.35 22.2 -33.3 19.05 L-31.75 18.7 -28.55 18.15 -32.2 22.25 -33.9 23.85 -35.3 25.0 -46.4 31.6 -48.05 32.25 Q-51.1 33.4 -54.05 33.1" fill="#b7b0aa" fill-rule="evenodd" stroke="none"/>
    <path d="M23.35 -32.4 Q27.9 -20.7 27.55 -8.15 27.3 -0.15 22.85 6.2 L21.8 6.15 Q17.5 -3.6 18.9 -15.0 20.55 -28.4 17.85 -41.65 L18.2 -42.0 Q20.0 -40.95 20.9 -38.8 L22.7 -34.05 23.35 -32.4 M15.0 -12.55 Q8.8 -22.45 -1.15 -29.05 -12.7 -36.6 -26.3 -36.1 L-33.15 -35.3 -33.85 -35.85 -33.8 -36.55 Q-22.3 -44.4 -8.7 -38.7 -2.8 -36.2 2.15 -32.0 12.25 -25.15 15.4 -13.9 L15.55 -12.7 15.0 -12.55 M51.8 -19.9 Q56.1 -8.0 51.9 3.65 49.55 10.1 47.65 16.55 L48.5 17.45 Q46.7 20.9 42.75 22.3 L42.0 22.55 Q38.25 23.75 34.7 22.55 33.85 22.3 33.4 21.4 L36.8 17.5 Q43.05 9.55 46.1 -0.35 49.4 -11.1 50.15 -22.3 L50.75 -22.25 51.8 -19.9 M6.0 6.5 L6.0 9.0 4.25 9.05 3.25 6.9 1.75 6.0 Q-0.35 4.8 -2.45 4.0 -11.55 0.4 -20.95 3.45 -25.8 5.0 -29.4 8.5 L-29.5 8.65 -30.6 9.6 -31.25 10.1 -32.3 10.8 Q-35.2 12.55 -37.95 12.05 L-38.1 12.05 -38.3 12.0 -38.55 11.95 -40.4 11.2 Q-31.4 7.4 -25.25 -0.35 -23.55 -2.55 -21.15 -3.9 L-18.6 -5.1 Q-4.05 -10.15 4.35 2.35 5.7 4.35 6.0 6.5" fill="#d3cfcb" fill-rule="evenodd" stroke="none"/>
    <path d="M-39.2 -24.1 Q-51.45 -23.35 -61.55 -16.35 L-63.4 -15.1 -64.6 -15.25 Q-61.95 -26.2 -54.45 -34.75 -49.5 -40.45 -42.7 -43.5 L-47.7 -44.25 Q-45.0 -50.6 -37.1 -52.1 -29.1 -53.65 -20.9 -53.0 -14.15 -52.3 -8.6 -50.65 -3.1 -49.0 1.3 -46.9 L-4.3 -53.4 -3.5 -54.3 Q10.85 -54.85 22.9 -47.2 33.4 -40.45 37.35 -28.65 41.1 -37.05 41.1 -46.5 41.1 -47.5 42.3 -47.2 46.9 -46.25 50.15 -42.4 58.65 -32.15 62.45 -19.4 68.45 0.7 58.75 19.0 56.8 22.65 54.35 25.8 56.5 24.85 58.2 23.25 L61.15 19.7 Q61.4 19.25 61.95 19.0 64.15 27.55 60.4 35.9 55.85 45.85 46.0 49.15 L49.95 50.85 49.65 52.4 47.85 52.7 42.4 53.65 40.5 53.9 39.8 53.35 39.45 52.35 42.6 51.55 Q44.35 51.3 46.15 51.5 43.85 50.9 43.15 48.7 43.05 48.4 43.1 48.1 59.7 42.15 61.2 23.8 L61.25 22.35 Q56.1 30.95 46.6 30.1 L46.5 29.55 Q61.8 16.9 62.1 -3.45 62.35 -21.3 52.55 -36.25 48.6 -42.25 42.3 -45.65 44.15 -34.7 38.1 -26.4 44.2 -5.3 31.15 12.05 L30.95 12.3 Q28.5 15.55 24.85 16.8 L24.3 16.6 23.95 16.65 23.8 16.7 23.5 16.5 Q27.1 13.9 29.85 10.8 35.7 3.95 37.25 -5.5 39.1 -16.65 35.7 -27.35 32.1 -38.65 22.55 -46.0 20.1 -47.85 17.05 -48.9 8.55 -51.95 -0.5 -52.5 L6.25 -44.1 5.65 -41.95 Q-5.75 -49.2 -18.55 -50.7 -31.15 -53.25 -41.35 -48.65 -43.5 -47.75 -45.05 -45.75 -41.8 -45.95 -39.3 -44.3 L-38.75 -43.75 Q-46.2 -38.75 -53.35 -32.75 -56.0 -30.5 -57.65 -27.2 L-61.9 -18.65 Q-50.75 -26.4 -37.7 -25.45 L-37.55 -24.55 -39.2 -24.1 M38.1 41.65 Q36.6 42.95 34.25 42.95 L33.95 42.95 33.2 42.15 33.3 40.15 35.0 40.7 35.0 41.25 35.5 40.85 38.1 41.65 M32.7 40.0 Q29.45 44.75 23.5 44.5 L22.65 43.65 Q25.0 40.95 26.2 38.15 L27.7 38.55 26.1 41.6 25.25 42.85 Q27.85 42.2 29.9 40.75 L30.75 40.05 31.1 39.5 32.7 40.0 M-25.9 32.95 Q-29.4 36.35 -34.05 39.45 -38.1 42.15 -43.1 43.65 L-46.55 44.55 Q-51.05 45.55 -55.9 45.55 -67.15 46.3 -74.35 38.55 -77.85 34.8 -77.5 29.5 -77.3 25.85 -74.85 23.75 L-74.15 23.9 Q-73.5 31.6 -66.7 31.0 -57.45 30.25 -57.15 20.8 -56.7 7.85 -51.85 -3.9 L-51.6 -4.5 Q-48.35 -12.1 -41.6 -16.8 -31.45 -23.5 -19.15 -24.4 -6.6 -25.7 3.0 -17.15 7.5 -13.15 8.3 -7.75 L7.95 -7.4 7.5 -7.3 Q1.05 -21.85 -15.4 -22.3 -27.9 -22.65 -38.55 -15.85 -45.75 -11.25 -49.8 -3.9 L-51.6 -0.15 Q-53.35 4.15 -53.25 9.0 -52.25 22.0 -60.15 31.25 -61.8 33.15 -64.25 33.55 -66.7 33.95 -69.0 33.55 -72.9 32.7 -74.55 29.0 L-75.25 27.4 Q-76.05 29.9 -75.55 32.55 -72.3 40.2 -66.95 42.75 -64.45 43.9 -61.45 44.0 -52.15 44.15 -43.85 41.85 -35.7 39.55 -29.25 33.15 L-29.15 33.05 -27.65 31.55 Q-22.25 25.95 -18.75 21.25 -15.15 16.4 -11.4 12.7 L-10.55 11.85 -10.35 11.65 -9.05 10.5 -7.2 8.95 -6.85 8.7 -6.0 8.15 -5.0 7.75 Q-3.65 7.6 -2.35 8.95 L-3.0 8.95 -4.4 9.25 Q-5.45 9.6 -6.65 10.45 -7.95 11.35 -9.45 12.8 L-10.5 13.9 -10.6 14.05 Q-15.75 19.5 -20.55 26.6 -22.2 29.0 -24.35 31.35 L-25.9 32.95" fill="#48413c" fill-rule="evenodd" stroke="none"/>
    <path d="M-39.2 -24.1 L-37.55 -24.55 -37.7 -25.45 Q-50.75 -26.4 -61.9 -18.65 L-57.65 -27.2 Q-56.0 -30.5 -53.35 -32.75 -46.2 -38.75 -38.75 -43.75 L-39.3 -44.3 Q-41.8 -45.95 -45.05 -45.75 -43.5 -47.75 -41.35 -48.65 -31.15 -53.25 -18.55 -50.7 -5.75 -49.2 5.65 -41.95 L6.25 -44.1 -0.5 -52.5 Q8.55 -51.95 17.05 -48.9 20.1 -47.85 22.55 -46.0 32.1 -38.65 35.7 -27.35 39.1 -16.65 37.25 -5.5 35.7 3.95 29.85 10.8 27.1 13.9 23.5 16.5 L23.8 16.7 23.75 16.85 20.8 15.25 20.75 15.0 23.25 11.2 24.65 8.95 Q29.9 -0.15 31.1 -10.65 32.55 -22.95 27.05 -34.25 22.2 -44.3 12.15 -48.35 L11.3 -47.85 Q10.7 -45.8 11.75 -43.7 16.05 -34.85 13.35 -25.05 12.8 -27.15 11.45 -28.9 5.55 -36.65 -3.85 -40.1 -17.55 -45.15 -31.35 -41.45 -36.95 -39.8 -42.1 -37.3 -49.85 -33.65 -51.4 -27.05 -46.75 -27.7 -42.15 -29.2 -31.35 -32.75 -20.3 -31.75 -8.4 -31.0 0.95 -23.5 10.5 -15.8 14.65 -4.3 16.9 1.85 16.2 7.75 L15.3 11.9 12.3 11.25 11.85 11.35 11.6 11.65 10.8 11.4 Q10.7 9.15 10.2 7.0 9.4 3.8 7.7 0.8 -0.4 -13.55 -16.8 -12.05 -26.65 -11.4 -31.75 -3.9 L-33.5 -0.85 Q-38.55 9.75 -49.45 14.05 -43.8 19.5 -34.0 16.95 L-33.0 16.7 -31.45 16.25 Q-24.2 14.05 -16.85 10.4 L-16.45 10.2 -13.05 8.6 Q-10.8 7.55 -9.05 7.1 -6.7 6.35 -5.45 6.65 -2.65 7.3 -2.35 8.95 -3.65 7.6 -5.0 7.75 L-6.0 8.15 -6.85 8.7 -7.2 8.95 -9.05 10.5 -10.35 11.65 -10.55 11.85 -11.4 12.7 Q-15.15 16.4 -18.75 21.25 -22.25 25.95 -27.65 31.55 L-29.15 33.05 -29.25 33.15 Q-35.7 39.55 -43.85 41.85 -52.15 44.15 -61.45 44.0 -64.45 43.9 -66.95 42.75 -72.3 40.2 -75.55 32.55 L-74.95 33.4 Q-65.7 43.05 -52.25 39.65 -43.15 37.4 -35.05 33.1 L-33.45 32.2 -33.15 32.05 Q-22.85 25.95 -18.4 14.9 L-18.65 14.5 Q-23.0 17.75 -26.6 21.6 -29.5 24.75 -32.8 27.35 L-34.5 28.6 -35.7 29.45 -44.8 34.3 -45.9 34.75 Q-57.9 39.4 -69.0 33.55 -66.7 33.95 -64.25 33.55 -61.8 33.15 -60.15 31.25 -52.25 22.0 -53.25 9.0 L-52.3 7.2 Q-50.05 0.75 -45.8 -3.9 -42.3 -7.7 -37.45 -10.3 -28.4 -15.15 -18.0 -16.05 -2.8 -17.15 7.5 -6.55 L8.05 -6.6 8.3 -7.75 Q7.5 -13.15 3.0 -17.15 -6.6 -25.7 -19.15 -24.4 -31.45 -23.5 -41.6 -16.8 -42.25 -19.85 -40.4 -22.45 L-39.2 -24.1 M24.85 16.8 Q28.5 15.55 30.95 12.3 L31.15 12.05 Q44.2 -5.3 38.1 -26.4 44.15 -34.7 42.3 -45.65 48.6 -42.25 52.55 -36.25 62.35 -21.3 62.1 -3.45 61.8 16.9 46.5 29.55 L46.6 30.1 Q56.1 30.95 61.25 22.35 L61.2 23.8 Q59.7 42.15 43.1 48.1 43.05 48.4 43.15 48.7 43.85 50.9 46.15 51.5 44.35 51.3 42.6 51.55 L39.45 52.35 39.8 53.35 Q36.25 49.6 39.35 43.5 L39.8 42.25 40.2 42.35 40.7 42.35 41.1 42.1 41.65 41.15 Q41.4 42.95 41.75 45.2 L42.4 45.15 43.1 44.95 Q53.35 41.8 57.15 31.3 L53.5 32.6 Q52.35 33.45 50.8 33.55 45.7 34.4 43.4 37.15 42.85 37.8 42.45 38.6 42.65 36.7 41.6 34.8 L38.6 30.2 38.85 30.05 39.05 29.75 39.05 29.3 38.85 28.85 Q37.6 27.15 36.15 25.9 39.25 26.8 42.85 26.05 L43.9 25.75 Q50.6 23.95 54.35 18.0 57.6 12.8 57.3 6.8 L56.5 6.35 54.25 7.6 56.0 3.05 Q60.4 -8.45 56.1 -19.75 52.3 -29.55 46.2 -37.4 L45.75 -36.25 47.1 -27.65 Q47.85 -14.05 43.95 -1.0 41.1 8.55 33.9 14.7 L30.5 17.2 Q29.1 18.1 28.9 19.2 26.95 17.65 24.85 16.8 M30.95 39.45 L31.1 39.5 30.75 40.05 30.95 39.45 M-54.05 33.1 Q-51.1 33.4 -48.05 32.25 L-46.4 31.6 -35.3 25.0 -33.9 23.85 -32.2 22.25 -28.55 18.15 -31.75 18.7 -33.3 19.05 Q-46.35 22.2 -54.05 33.1" fill="#9b9188" fill-rule="evenodd" stroke="none"/>
    <path d="M37.3 39.85 L36.9 39.7 35.05 39.15 35.1 39.1 Q36.35 38.65 36.85 37.05 37.35 35.45 36.8 33.55 L36.1 31.7 37.05 31.15 39.8 34.75 39.4 35.15 37.75 36.95 37.25 37.65 37.3 39.35 37.3 39.85 M32.75 38.45 L31.85 38.2 31.4 38.05 28.2 37.15 26.7 36.75 Q7.65 31.8 -11.0 31.2 -11.9 30.5 -13.45 30.05 -15.75 29.35 -15.75 28.05 -15.75 26.45 -12.25 25.45 -10.45 24.95 -9.6 24.1 L-7.7 24.4 Q-5.65 24.35 -4.2 22.85 -2.8 21.3 -2.85 19.25 L-2.9 18.45 -1.9 18.95 Q-1.95 20.7 -0.85 22.25 0.4 24.0 2.4 24.4 4.15 24.75 5.65 23.95 L5.65 24.05 5.0 24.85 -2.45 25.45 -5.0 26.1 -5.75 26.25 Q3.75 28.95 24.45 33.5 L27.25 34.25 28.75 34.7 30.85 35.3 Q31.35 37.2 32.6 38.3 L32.75 38.45 M33.3 26.3 L33.6 28.2 32.8 25.8 33.3 26.3 M0.05 10.85 L1.9 14.5 Q0.9 14.65 0.05 15.3 L-1.15 16.5 -1.3 16.5 -2.8 17.0 -3.35 17.15 Q-3.75 16.4 -4.4 15.8 L-5.35 15.05 -5.15 14.85 -4.1 13.65 -2.45 11.5 -1.8 10.6 -0.75 10.7 0.05 10.85 M7.25 17.1 L7.0 16.7 Q6.35 15.8 5.5 15.25 L6.9 13.85 Q8.75 15.6 8.75 16.3 L8.75 16.6 8.6 17.0 8.0 17.15 7.25 17.1" fill="#471220" fill-rule="evenodd" stroke="none"/>
    <path d="M39.8 34.75 L40.05 35.05 40.3 35.55 40.3 35.5 40.65 36.35 40.7 36.35 40.95 37.45 40.8 39.25 40.75 39.4 40.75 39.45 40.7 39.55 40.35 40.4 40.2 40.7 40.15 40.75 39.95 40.7 39.8 40.65 39.6 40.6 39.55 40.55 39.15 40.45 37.3 39.85 37.3 39.35 37.25 37.65 37.75 36.95 39.4 35.15 39.8 34.75 M-11.0 31.2 L-11.6 31.2 -15.45 31.15 Q-19.9 31.1 -24.35 31.35 -22.2 29.0 -20.55 26.6 -15.75 19.5 -10.6 14.05 L-10.5 13.9 -9.8 14.8 Q-10.75 15.2 -11.45 16.0 -12.9 17.5 -12.85 19.55 -12.8 21.6 -11.25 23.05 L-9.6 24.1 Q-10.45 24.95 -12.25 25.45 -15.75 26.45 -15.75 28.05 -15.75 29.35 -13.45 30.05 -11.9 30.5 -11.0 31.2 M-5.35 15.05 L-6.1 14.7 -3.3 10.5 -3.25 10.45 -2.2 10.55 -1.8 10.6 -2.45 11.5 -4.1 13.65 -5.15 14.85 -5.35 15.05" fill="#360e18" fill-rule="evenodd" stroke="none"/>
    <path d="M39.8 42.25 L38.1 41.65 35.5 40.85 35.0 40.7 33.3 40.15 32.7 40.0 31.1 39.5 30.95 39.45 27.7 38.55 26.2 38.15 Q-0.3 31.35 -25.9 32.95 L-24.35 31.35 Q-19.9 31.1 -15.45 31.15 L-11.6 31.2 -11.0 31.2 Q7.65 31.8 26.7 36.75 L28.2 37.15 31.4 38.05 31.85 38.2 32.75 38.45 Q33.9 39.35 35.05 39.15 L36.9 39.7 37.3 39.85 39.15 40.45 39.55 40.55 39.6 40.6 39.8 40.65 39.95 40.7 40.15 40.75 40.2 40.7 40.35 40.4 40.7 39.55 40.75 39.45 40.75 39.4 40.8 39.25 40.95 37.45 40.7 36.35 40.65 36.35 40.3 35.5 40.3 35.55 40.05 35.05 39.8 34.75 37.05 31.15 38.6 30.2 41.6 34.8 Q42.65 36.7 42.45 38.6 41.85 39.75 41.65 41.15 L41.1 42.1 40.7 42.35 40.2 42.35 39.8 42.25 M20.8 15.25 L23.75 16.85 23.7 16.95 Q23.6 17.1 23.65 17.45 L23.95 18.8 21.75 17.5 19.75 16.45 20.55 15.8 20.75 15.35 20.8 15.25 M10.8 11.4 L11.6 11.65 11.55 11.75 11.6 12.25 12.0 13.4 10.8 13.0 8.35 12.35 8.9 11.75 9.05 11.35 9.05 10.95 10.8 11.4 M29.95 23.15 L31.05 22.4 31.25 22.2 33.35 24.15 33.3 24.15 33.05 24.45 33.05 24.85 33.3 26.3 32.8 25.8 29.95 23.15 M-0.5 9.2 L-0.55 9.35 -0.45 9.85 0.05 10.85 -0.75 10.7 -1.8 10.6 -2.2 10.55 -3.25 10.45 -3.25 10.05 Q-3.25 9.75 -3.4 9.6 L-3.8 9.35 -4.4 9.25 -3.0 8.95 -0.5 9.2" fill="#1b070c" fill-rule="evenodd" stroke="none"/>
    <path d="M23.95 18.8 L24.25 20.1 24.05 19.95 20.5 18.2 19.9 17.95 18.95 17.6 18.55 17.4 19.75 16.45 21.75 17.5 23.95 18.8 M24.85 22.5 L24.85 22.6 23.2 22.8 22.35 23.2 18.7 21.8 18.15 20.4 16.9 18.7 16.95 18.65 20.0 19.65 Q20.55 19.8 23.45 21.65 L23.9 21.95 24.85 22.5 M20.95 25.45 Q20.65 26.85 21.05 28.35 L17.15 26.95 Q18.25 26.1 18.65 24.65 L20.95 25.45 M23.05 31.75 L23.6 32.15 Q25.2 33.2 26.7 32.7 28.3 32.15 28.85 30.3 L29.1 28.5 30.05 28.85 30.35 28.85 30.85 28.65 30.9 28.05 Q30.9 27.25 28.45 25.95 L27.7 24.55 29.95 23.15 32.8 25.8 33.6 28.2 33.85 29.65 32.5 29.7 Q31.25 30.05 30.75 31.65 30.25 33.25 30.8 35.25 L30.85 35.3 28.75 34.7 27.25 34.25 24.45 33.5 Q3.75 28.95 -5.75 26.25 L-5.0 26.1 -2.45 25.45 5.0 24.85 5.65 24.05 5.65 23.95 6.1 23.65 Q7.2 22.85 7.65 21.7 L9.3 22.2 Q9.35 23.45 10.0 24.75 L10.3 25.25 Q5.25 24.5 5.25 27.0 5.25 27.65 14.75 29.9 L23.05 31.75 M25.1 18.45 Q27.5 19.45 29.6 21.45 L26.7 23.3 26.55 23.4 26.3 23.25 26.15 23.15 25.1 18.45 M12.0 13.4 L12.7 15.35 11.35 14.85 11.25 15.4 Q11.25 16.05 13.15 17.05 L13.35 17.15 13.4 17.35 Q12.45 17.35 11.6 17.8 10.65 18.3 10.1 19.1 L7.9 18.7 7.25 17.1 8.0 17.15 8.6 17.0 8.75 16.6 8.75 16.3 Q8.75 15.6 6.9 13.85 L8.35 12.35 10.8 13.0 12.0 13.4 M-1.15 16.5 Q-1.7 17.35 -1.85 18.45 L-1.9 18.95 -2.9 18.45 Q-3.05 17.75 -3.35 17.15 L-2.8 17.0 -1.3 16.5 -1.15 16.5 M1.35 10.25 Q4.3 10.3 7.05 11.45 L4.0 14.55 3.7 14.5 3.5 14.45 1.35 10.25 M13.3 12.95 Q16.15 13.5 18.7 15.15 L15.5 17.75 15.2 17.65 15.0 17.6 13.3 12.95 M34.15 25.85 Q36.05 27.05 37.65 29.05 L35.2 30.55 35.0 30.4 34.9 30.3 34.15 25.85 M-6.65 10.45 L-5.2 10.6 -7.7 14.4 -8.0 14.4 -8.2 14.4 -9.45 12.8 Q-7.95 11.35 -6.65 10.45" fill="#581728" fill-rule="evenodd" stroke="none"/>
    <path d="M24.25 20.1 L24.85 22.5 23.9 21.95 23.45 21.65 Q20.55 19.8 20.0 19.65 L16.95 18.65 18.55 17.4 18.95 17.6 19.9 17.95 20.5 18.2 24.05 19.95 24.25 20.1 M22.35 23.2 Q21.45 23.8 21.05 25.1 L20.95 25.45 18.65 24.65 18.7 24.4 Q19.0 23.1 18.7 21.8 L22.35 23.2 M21.05 28.35 L21.25 29.05 Q21.85 30.7 23.05 31.75 L14.75 29.9 Q5.25 27.65 5.25 27.0 5.25 24.5 10.3 25.25 11.25 26.8 12.9 27.45 L16.55 27.35 17.15 26.95 21.05 28.35 M29.1 28.5 Q29.05 27.5 28.65 26.45 L28.45 25.95 Q30.9 27.25 30.9 28.05 L30.85 28.65 30.35 28.85 30.05 28.85 29.1 28.5 M12.7 15.35 L13.35 17.15 13.15 17.05 Q11.25 16.05 11.25 15.4 L11.35 14.85 12.7 15.35 M10.1 19.1 Q9.6 19.75 9.4 20.7 L9.3 22.2 7.65 21.7 7.95 20.45 7.9 18.7 10.1 19.1" fill="#792036" fill-rule="evenodd" stroke="none"/>
    <path d="M23.8 16.7 L23.95 16.65 24.3 16.6 24.85 16.8 Q26.95 17.65 28.9 19.2 L31.0 21.1 31.3 21.55 31.3 22.05 31.25 22.2 31.05 22.4 29.95 23.15 27.7 24.55 28.45 25.95 28.65 26.45 Q29.05 27.5 29.1 28.5 L28.85 30.3 Q28.3 32.15 26.7 32.7 25.2 33.2 23.6 32.15 L23.05 31.75 Q21.85 30.7 21.25 29.05 L21.05 28.35 Q20.65 26.85 20.95 25.45 L21.05 25.1 Q21.45 23.8 22.35 23.2 L23.2 22.8 24.85 22.6 24.85 22.5 24.25 20.1 23.95 18.8 23.65 17.45 Q23.6 17.1 23.7 16.95 L23.75 16.85 23.8 16.7 M20.75 15.0 L20.8 15.25 20.75 15.35 20.55 15.8 19.75 16.45 18.55 17.4 16.95 18.65 16.9 18.7 18.15 20.4 18.7 21.8 Q19.0 23.1 18.7 24.4 L18.65 24.65 Q18.25 26.1 17.15 26.95 L16.55 27.35 12.9 27.45 Q11.25 26.8 10.3 25.25 L10.0 24.75 Q9.35 23.45 9.3 22.2 L9.4 20.7 Q9.6 19.75 10.1 19.1 10.65 18.3 11.6 17.8 12.45 17.35 13.4 17.35 L13.35 17.15 12.7 15.35 12.0 13.4 11.6 12.25 11.55 11.75 11.6 11.65 11.85 11.35 12.3 11.25 15.3 11.9 Q17.9 12.7 20.35 14.45 L20.7 14.85 20.75 15.0 M36.15 25.9 Q37.6 27.15 38.85 28.85 L39.05 29.3 39.05 29.75 38.85 30.05 38.6 30.2 37.05 31.15 36.1 31.7 36.8 33.55 Q37.35 35.45 36.85 37.05 36.35 38.65 35.1 39.1 L35.05 39.15 Q33.9 39.35 32.75 38.45 L32.6 38.3 Q31.35 37.2 30.85 35.3 L30.8 35.25 Q30.25 33.25 30.75 31.65 31.25 30.05 32.5 29.7 L33.85 29.65 33.6 28.2 33.3 26.3 33.05 24.85 33.05 24.45 33.3 24.15 33.35 24.15 33.6 24.15 36.15 25.9 M26.3 31.25 L26.8 30.9 27.65 29.5 27.85 28.0 27.55 26.8 Q27.2 25.85 26.65 25.2 L26.25 24.85 25.9 24.6 25.25 24.2 24.6 24.1 23.7 24.25 Q23.0 24.45 22.6 25.05 L22.3 25.7 22.3 25.8 22.25 25.9 22.25 25.95 Q21.85 27.2 22.35 28.7 L22.45 28.95 Q23.0 30.1 24.0 30.8 25.1 31.55 26.2 31.25 L26.3 31.25 M25.1 18.45 L26.15 23.15 26.3 23.25 26.55 23.4 26.7 23.3 29.6 21.45 Q27.5 19.45 25.1 18.45 M9.05 10.95 L9.05 11.35 8.9 11.75 8.35 12.35 6.9 13.85 5.5 15.25 Q6.35 15.8 7.0 16.7 L7.25 17.1 7.9 18.7 7.95 20.45 7.65 21.7 Q7.2 22.85 6.1 23.65 L5.65 23.95 Q4.15 24.75 2.4 24.4 0.4 24.0 -0.85 22.25 -1.95 20.7 -1.9 18.95 L-1.85 18.45 Q-1.7 17.35 -1.15 16.5 L0.05 15.3 Q0.9 14.65 1.9 14.5 L0.05 10.85 -0.45 9.85 -0.55 9.35 -0.5 9.2 -0.25 8.95 0.15 8.8 Q4.5 8.55 8.6 10.55 L9.0 10.85 9.05 10.95 M1.35 10.25 L3.5 14.45 3.7 14.5 4.0 14.55 7.05 11.45 Q4.3 10.3 1.35 10.25 M5.2 22.4 L6.25 21.1 6.5 20.15 6.4 18.65 5.85 17.5 4.6 16.4 4.5 16.35 3.5 16.0 2.65 15.95 Q1.85 16.0 1.15 16.4 L1.0 16.5 Q0.2 17.0 -0.1 17.75 L-0.35 18.5 -0.35 18.55 -0.4 18.65 -0.4 18.75 -0.4 19.65 Q-0.3 20.6 0.3 21.45 1.2 22.6 2.6 22.9 L4.7 22.7 5.15 22.45 5.2 22.4 M13.3 12.95 L15.0 17.6 15.2 17.65 15.5 17.75 18.7 15.15 Q16.15 13.5 13.3 12.95 M15.9 25.9 Q16.85 25.3 17.2 24.25 L17.3 23.85 Q17.65 22.5 17.0 21.2 L16.95 21.1 Q16.45 20.1 15.75 19.6 L14.85 19.1 14.0 18.9 Q13.1 18.8 12.3 19.25 L11.85 19.55 11.15 20.3 10.85 21.0 10.85 21.05 10.8 21.15 10.8 21.25 Q10.65 21.9 10.75 22.6 10.8 23.35 11.2 24.1 11.75 25.15 12.65 25.7 L13.25 26.0 14.8 26.25 15.85 25.95 15.9 25.9 M34.15 25.85 L34.9 30.3 35.0 30.4 35.2 30.55 37.65 29.05 Q36.05 27.05 34.15 25.85 M34.75 37.7 Q35.6 37.35 35.95 36.25 36.3 35.1 35.9 33.75 35.65 32.85 35.2 32.25 L35.1 32.05 34.65 31.6 34.15 31.2 32.9 31.05 32.0 31.75 31.7 32.25 31.7 32.3 31.65 32.35 31.65 32.45 Q31.3 33.6 31.7 35.0 L31.95 35.65 Q32.3 36.5 32.95 37.1 33.85 37.9 34.7 37.7 L34.75 37.7 M-9.45 12.8 L-8.2 14.4 -8.0 14.4 -7.7 14.4 -5.2 10.6 -6.65 10.45 Q-5.45 9.6 -4.4 9.25 L-3.8 9.35 -3.4 9.6 Q-3.25 9.75 -3.25 10.05 L-3.25 10.45 -3.3 10.5 -6.1 14.7 -5.35 15.05 -4.4 15.8 Q-3.75 16.4 -3.35 17.15 -3.05 17.75 -2.9 18.45 L-2.85 19.25 Q-2.8 21.3 -4.2 22.85 -5.65 24.35 -7.7 24.4 L-9.6 24.1 -11.25 23.05 Q-12.8 21.6 -12.85 19.55 -12.9 17.5 -11.45 16.0 -10.75 15.2 -9.8 14.8 L-10.5 13.9 -9.45 12.8 M-5.2 21.75 Q-4.3 20.7 -4.35 19.3 -4.4 18.35 -4.85 17.6 L-4.9 17.45 -5.45 16.85 -6.7 16.1 -6.95 16.0 -7.95 15.9 -8.8 16.05 Q-9.7 16.3 -10.4 17.05 -11.05 17.7 -11.25 18.5 L-11.35 19.25 -11.35 19.3 -11.35 19.4 -11.35 19.5 Q-11.3 20.95 -10.2 22.0 L-8.8 22.8 -7.75 22.9 Q-6.3 22.85 -5.25 21.8 L-5.2 21.75" fill="#2c0b13" fill-rule="evenodd" stroke="none"/>
    <path d="M22.6 25.05 Q23.0 24.45 23.7 24.25 L24.6 24.1 25.25 24.2 25.9 24.6 26.25 24.85 26.65 25.2 Q27.2 25.85 27.55 26.8 L27.85 28.0 27.65 29.5 26.8 30.9 26.3 31.25 25.35 30.2 Q23.65 28.15 23.15 26.25 L23.05 24.65 22.6 25.05 M5.35 17.7 L3.4 17.5 3.1 18.55 Q3.05 19.2 3.55 19.9 4.25 19.8 4.85 19.2 L5.35 18.45 5.35 17.7 M-0.1 17.75 Q0.2 17.0 1.0 16.5 L1.15 16.4 Q1.85 16.0 2.65 15.95 L3.5 16.0 4.5 16.35 4.6 16.4 5.85 17.5 6.4 18.65 6.5 20.15 6.25 21.1 5.2 22.4 Q1.9 20.85 0.75 18.7 L0.25 17.2 -0.1 17.75 M16.45 21.2 Q15.0 20.3 14.6 20.7 L14.2 21.65 Q14.05 22.3 14.45 23.1 15.15 23.1 15.85 22.6 L16.4 21.95 16.45 21.2 M11.15 20.3 L11.85 19.55 12.3 19.25 Q13.1 18.8 14.0 18.9 L14.85 19.1 15.75 19.6 Q16.45 20.1 16.95 21.1 L17.0 21.2 Q17.65 22.5 17.3 23.85 L17.2 24.25 Q16.85 25.3 15.9 25.9 14.0 24.55 12.9 23.2 12.2 22.3 11.85 21.4 L11.55 19.8 11.15 20.3 M32.0 31.75 L32.9 31.05 34.15 31.2 34.65 31.6 35.1 32.05 35.2 32.25 Q35.65 32.85 35.9 33.75 36.3 35.1 35.95 36.25 35.6 37.35 34.75 37.7 L33.8 36.35 32.8 34.25 32.4 32.85 32.4 32.35 32.35 31.4 32.0 31.75 M35.55 33.75 L34.9 33.05 34.35 32.85 34.3 32.85 33.95 33.6 Q33.8 34.1 34.05 34.95 L35.0 34.85 35.45 34.35 35.55 33.75 M27.15 26.85 Q25.95 25.75 25.6 26.0 25.4 26.05 25.15 26.85 L25.15 27.0 Q25.0 27.55 25.3 28.3 L26.45 28.05 26.9 27.65 27.0 27.5 27.15 26.85 M-5.2 21.75 Q-8.7 21.05 -10.2 19.3 L-10.25 19.2 -10.95 17.85 -11.25 18.5 Q-11.05 17.7 -10.4 17.05 -9.7 16.3 -8.8 16.05 L-7.95 15.9 -6.95 16.0 -6.7 16.1 -5.45 16.85 -4.9 17.45 -4.85 17.6 Q-4.4 18.35 -4.35 19.3 -4.3 20.7 -5.2 21.75 M-5.85 17.2 Q-7.5 16.95 -7.8 17.45 L-7.95 18.5 Q-7.9 19.15 -7.3 19.75 -6.65 19.45 -6.1 18.75 -5.75 18.2 -5.75 17.9 L-5.85 17.2" fill="#af3553" fill-rule="evenodd" stroke="none"/>
    <path d="M5.35 17.7 L5.35 18.45 4.85 19.2 Q4.25 19.8 3.55 19.9 3.05 19.2 3.1 18.55 L3.4 17.5 5.35 17.7 M16.45 21.2 L16.4 21.95 15.85 22.6 Q15.15 23.1 14.45 23.1 14.05 22.3 14.2 21.65 L14.6 20.7 Q15.0 20.3 16.45 21.2 M35.55 33.75 L35.45 34.35 35.0 34.85 34.05 34.95 Q33.8 34.1 33.95 33.6 L34.3 32.85 34.35 32.85 34.9 33.05 35.55 33.75 M27.15 26.85 L27.0 27.5 26.9 27.65 26.45 28.05 25.3 28.3 Q25.0 27.55 25.15 27.0 L25.15 26.85 Q25.4 26.05 25.6 26.0 25.95 25.75 27.15 26.85 M-5.85 17.2 L-5.75 17.9 Q-5.75 18.2 -6.1 18.75 -6.65 19.45 -7.3 19.75 -7.9 19.15 -7.95 18.5 L-7.8 17.45 Q-7.5 16.95 -5.85 17.2" fill="#d95b7d" fill-rule="evenodd" stroke="none"/>
    <path d="M26.3 31.25 L26.2 31.25 Q25.1 31.55 24.0 30.8 23.0 30.1 22.45 28.95 L22.35 28.7 Q21.85 27.2 22.25 25.95 L22.25 25.9 22.3 25.8 22.3 25.7 22.6 25.05 23.05 24.65 23.15 26.25 Q23.65 28.15 25.35 30.2 L26.3 31.25 M5.2 22.4 L5.15 22.45 4.7 22.7 2.6 22.9 Q1.2 22.6 0.3 21.45 -0.3 20.6 -0.4 19.65 L-0.4 18.75 -0.4 18.65 -0.35 18.55 -0.35 18.5 -0.1 17.75 0.25 17.2 0.75 18.7 Q1.9 20.85 5.2 22.4 M15.9 25.9 L15.85 25.95 14.8 26.25 13.25 26.0 12.65 25.7 Q11.75 25.15 11.2 24.1 10.8 23.35 10.75 22.6 10.65 21.9 10.8 21.25 L10.8 21.15 10.85 21.05 10.85 21.0 11.15 20.3 11.55 19.8 11.85 21.4 Q12.2 22.3 12.9 23.2 14.0 24.55 15.9 25.9 M34.75 37.7 L34.7 37.7 Q33.85 37.9 32.95 37.1 32.3 36.5 31.95 35.65 L31.7 35.0 Q31.3 33.6 31.65 32.45 L31.65 32.35 31.7 32.3 31.7 32.25 32.0 31.75 32.35 31.4 32.4 32.35 32.4 32.85 32.8 34.25 33.8 36.35 34.75 37.7 M-11.25 18.5 L-10.95 17.85 -10.25 19.2 -10.2 19.3 Q-8.7 21.05 -5.2 21.75 L-5.25 21.8 Q-6.3 22.85 -7.75 22.9 L-8.8 22.8 -10.2 22.0 Q-11.3 20.95 -11.35 19.5 L-11.35 19.4 -11.35 19.3 -11.35 19.25 -11.25 18.5" fill="#852c43" fill-rule="evenodd" stroke="none"/>
  </g>
</svg>
