<?xml version="1.0" encoding="UTF-8" standalone="no"?>
<svg xmlns:ffdec="https://www.free-decompiler.com/flash" xmlns:xlink="http://www.w3.org/1999/xlink" ffdec:objectType="shape" height="194.75px" width="209.2px" xmlns="http://www.w3.org/2000/svg">
  <g transform="matrix(1.0, 0.0, 0.0, 1.0, 134.65, 123.15)">
    <path d="M-86.55 -19.95 L-85.1 -20.2 -55.05 -50.2 Q-55.35 -50.75 -55.3 -51.3 -55.2 -52.15 -54.55 -52.65 -53.25 -53.8 -51.75 -54.75 L-50.3 -55.0 -20.25 -85.0 -20.5 -86.1 Q-20.4 -86.95 -19.75 -87.45 -18.45 -88.6 -16.95 -89.55 -16.3 -90.0 -15.5 -89.8 L11.7 -117.0 13.4 -118.8 16.3 -121.4 18.65 -123.05 19.0 -123.15 19.3 -122.95 19.35 -122.9 21.0 -120.4 21.05 -120.25 -13.35 -85.85 -13.25 -85.1 -13.7 -84.5 -14.45 -84.35 -14.75 -84.45 -24.6 -74.65 -24.95 -74.55 -25.5 -74.05 -25.75 -73.5 -48.15 -51.05 -48.05 -50.3 -48.5 -49.7 -49.25 -49.55 -49.55 -49.65 -59.4 -39.85 -59.75 -39.75 -60.3 -39.25 -60.55 -38.7 -82.95 -16.25 -82.85 -15.5 -83.3 -14.9 -84.05 -14.75 -84.35 -14.85 -94.2 -5.05 -94.55 -4.95 -95.1 -4.45 -95.35 -3.9 -116.2 17.0 Q-120.35 23.3 -120.35 31.25 -120.35 42.2 -112.55 50.0 -105.6 56.95 -96.15 57.7 L-94.4 57.75 74.4 57.75 74.55 60.85 64.2 71.15 64.05 71.45 63.7 71.6 -102.45 71.45 -102.75 71.5 -104.65 71.5 -107.0 71.45 -107.05 71.45 -109.3 71.2 -110.5 71.0 Q-113.25 70.5 -115.75 69.5 L-116.75 69.05 -118.75 68.05 -121.1 66.65 -121.95 66.05 -123.55 64.8 -125.6 62.9 -125.8 62.7 -126.3 62.2 -127.5 60.85 -129.35 58.5 -129.95 57.65 -132.3 53.25 -132.7 52.25 Q-133.7 49.7 -134.15 47.0 -134.65 44.35 -134.65 41.5 -134.65 29.9 -126.85 21.55 L-126.8 21.5 -125.8 20.4 -124.2 18.9 -89.85 -15.4 -90.1 -16.5 Q-90.0 -17.35 -89.35 -17.85 -88.05 -19.0 -86.55 -19.95" fill="#ffff00" fill-rule="evenodd" stroke="none"/>
  </g>
</svg>
