<?xml version="1.0" encoding="UTF-8" standalone="no"?>
<svg xmlns:ffdec="https://www.free-decompiler.com/flash" xmlns:xlink="http://www.w3.org/1999/xlink" ffdec:objectType="shape" height="166.1px" width="406.4px" xmlns="http://www.w3.org/2000/svg">
  <g transform="matrix(1.0, 0.0, 0.0, 1.0, -306.45, 195.7)">
    <path d="M478.15 -194.55 L478.75 -194.5 484.9 -194.5 451.6 -161.2 444.8 -161.2 478.15 -194.55 M486.3 -194.5 L493.15 -194.5 459.85 -161.2 453.0 -161.2 486.3 -194.5 M494.55 -194.5 L501.35 -194.5 468.05 -161.2 461.25 -161.2 494.55 -194.5 M502.75 -194.5 L509.55 -194.55 476.25 -161.25 469.45 -161.2 502.75 -194.5 M510.95 -194.55 L517.75 -194.55 484.45 -161.25 477.65 -161.25 510.95 -194.55 M519.15 -194.55 L525.95 -194.55 492.65 -161.25 485.85 -161.25 519.15 -194.55 M527.35 -194.55 L534.2 -194.55 500.9 -161.25 494.05 -161.25 527.35 -194.55 M535.6 -194.55 L542.4 -194.55 509.1 -161.25 502.3 -161.25 535.6 -194.55 M543.8 -194.55 L550.6 -194.55 517.3 -161.25 510.5 -161.25 543.8 -194.55 M552.0 -194.55 L558.8 -194.55 525.5 -161.25 518.7 -161.25 552.0 -194.55 M560.2 -194.55 L567.0 -194.6 533.7 -161.25 526.9 -161.25 560.2 -194.55 M568.4 -194.6 L575.2 -194.6 541.9 -161.3 535.1 -161.25 568.4 -194.6 M576.6 -194.6 L583.4 -194.6 550.1 -161.3 543.3 -161.3 576.6 -194.6 M584.8 -194.6 L591.6 -194.6 558.35 -161.3 551.55 -161.3 584.8 -194.6 M593.0 -194.6 L599.8 -194.6 566.55 -161.3 559.75 -161.3 593.0 -194.6 M601.2 -194.6 L608.0 -194.6 574.75 -161.3 567.95 -161.3 601.2 -194.6 M609.4 -194.6 L616.25 -194.6 582.95 -161.3 576.15 -161.3 609.4 -194.6 M617.6 -194.6 L624.45 -194.6 591.15 -161.3 584.35 -161.3 617.6 -194.6 M625.85 -194.6 L632.65 -194.6 599.35 -161.3 592.55 -161.3 625.85 -194.6 M634.05 -194.6 L640.85 -194.6 607.55 -161.3 600.75 -161.3 634.05 -194.6 M642.25 -194.6 L649.05 -194.65 615.75 -161.3 608.95 -161.3 642.25 -194.6 M650.45 -194.65 L657.25 -194.65 623.95 -161.35 617.15 -161.3 650.45 -194.65 M658.65 -194.65 L665.45 -194.65 632.15 -161.35 625.35 -161.35 658.65 -194.65 M666.85 -194.65 L673.65 -194.65 640.35 -161.35 633.55 -161.35 666.85 -194.65 M675.05 -194.65 L681.85 -194.65 648.55 -161.35 641.75 -161.35 675.05 -194.65 M683.25 -194.65 L690.05 -194.65 656.75 -161.35 649.95 -161.35 683.25 -194.65 M691.45 -194.65 L698.25 -194.65 664.95 -161.35 658.15 -161.35 691.45 -194.65 M699.65 -194.65 L706.45 -194.65 673.15 -161.35 666.35 -161.35 699.65 -194.65 M707.85 -194.65 L711.85 -194.65 678.25 -161.05 677.55 -161.35 674.55 -161.35 707.85 -194.65 M656.15 -159.3 L662.95 -159.35 630.15 -126.5 623.35 -126.5 656.15 -159.3 M664.35 -159.35 L671.15 -159.35 638.35 -126.55 631.55 -126.5 664.35 -159.35 M672.55 -159.35 L676.55 -159.35 643.45 -126.25 Q643.15 -126.55 642.75 -126.55 L639.75 -126.55 672.55 -159.35 M451.0 -159.2 L457.8 -159.2 425.0 -126.4 418.2 -126.4 451.0 -159.2 M459.2 -159.2 L466.0 -159.2 433.2 -126.4 426.4 -126.4 459.2 -159.2 M467.4 -159.2 L474.25 -159.2 441.4 -126.4 434.6 -126.4 467.4 -159.2 M475.65 -159.2 L482.45 -159.2 449.6 -126.4 442.8 -126.4 475.65 -159.2 M483.85 -159.2 L490.65 -159.2 457.8 -126.4 451.0 -126.4 483.85 -159.2 M492.05 -159.2 L498.85 -159.2 466.0 -126.4 459.2 -126.4 492.05 -159.2 M500.25 -159.2 L507.05 -159.2 474.2 -126.4 467.4 -126.4 500.25 -159.2 M508.45 -159.2 L515.25 -159.2 482.4 -126.4 475.6 -126.4 508.45 -159.2 M516.65 -159.2 L523.45 -159.2 490.65 -126.4 483.85 -126.4 516.65 -159.2 M524.85 -159.2 L531.65 -159.2 498.8 -126.4 492.0 -126.4 524.85 -159.2 M533.05 -159.2 L539.85 -159.2 507.0 -126.4 500.2 -126.4 533.05 -159.2 M541.25 -159.2 L548.05 -159.2 515.2 -126.4 508.4 -126.4 541.25 -159.2 M549.45 -159.2 L556.25 -159.25 523.4 -126.4 516.6 -126.4 549.45 -159.2 M557.65 -159.25 L564.45 -159.25 531.6 -126.4 524.8 -126.4 557.65 -159.25 M565.85 -159.25 L572.65 -159.25 539.85 -126.4 533.0 -126.4 565.85 -159.25 M574.05 -159.25 L580.85 -159.25 548.05 -126.4 541.25 -126.4 574.05 -159.25 M582.25 -159.25 L589.05 -159.25 556.25 -126.4 549.45 -126.4 582.25 -159.25 M590.45 -159.25 L597.25 -159.25 564.45 -126.45 557.65 -126.4 590.45 -159.25 M598.7 -159.25 L605.5 -159.25 572.65 -126.45 565.85 -126.45 598.7 -159.25 M606.9 -159.25 L613.7 -159.25 580.9 -126.45 574.05 -126.45 606.9 -159.25 M615.1 -159.25 L621.9 -159.25 589.1 -126.45 582.3 -126.45 615.1 -159.25 M623.3 -159.25 L630.1 -159.3 597.3 -126.5 590.5 -126.45 623.3 -159.25 M631.5 -159.3 L638.3 -159.3 605.5 -126.5 598.7 -126.5 631.5 -159.3 M639.7 -159.3 L646.5 -159.3 613.7 -126.5 606.9 -126.5 639.7 -159.3 M647.9 -159.3 L654.75 -159.3 621.95 -126.5 615.1 -126.5 647.9 -159.3 M442.9 -159.3 L443.05 -159.3 443.9 -159.2 444.0 -159.2 449.6 -159.2 416.8 -126.4 410.0 -126.4 442.9 -159.3 M432.6 -124.4 L439.45 -124.4 406.65 -91.65 399.85 -91.6 432.6 -124.4 M440.85 -124.4 L447.65 -124.4 414.9 -91.65 408.05 -91.65 440.85 -124.4 M449.05 -124.4 L455.85 -124.4 423.1 -91.65 416.3 -91.65 449.05 -124.4 M457.25 -124.4 L464.05 -124.4 431.3 -91.65 424.5 -91.65 457.25 -124.4 M465.45 -124.4 L472.25 -124.4 439.5 -91.65 432.7 -91.65 465.45 -124.4 M473.65 -124.4 L480.45 -124.4 447.7 -91.65 440.9 -91.65 473.65 -124.4 M481.85 -124.4 L488.65 -124.4 455.9 -91.65 449.1 -91.65 481.85 -124.4 M490.05 -124.4 L496.85 -124.45 464.1 -91.65 457.3 -91.65 490.05 -124.4 M498.25 -124.45 L505.05 -124.45 472.3 -91.65 465.5 -91.65 498.25 -124.45 M506.45 -124.45 L513.3 -124.45 480.5 -91.65 473.7 -91.65 506.45 -124.45 M514.7 -124.45 L521.5 -124.45 488.7 -91.65 481.9 -91.65 514.7 -124.45 M522.9 -124.45 L529.7 -124.45 496.9 -91.65 490.1 -91.65 522.9 -124.45 M531.1 -124.45 L537.9 -124.45 505.1 -91.65 498.3 -91.65 531.1 -124.45 M539.3 -124.45 L546.1 -124.45 513.3 -91.65 506.5 -91.65 539.3 -124.45 M547.5 -124.45 L554.3 -124.45 521.5 -91.7 514.7 -91.65 547.5 -124.45 M555.7 -124.45 L562.5 -124.5 529.7 -91.7 522.9 -91.7 555.7 -124.45 M563.9 -124.5 L570.7 -124.5 537.95 -91.7 531.1 -91.7 563.9 -124.5 M572.1 -124.5 L578.9 -124.5 546.15 -91.7 539.35 -91.7 572.1 -124.5 M580.3 -124.5 L587.1 -124.5 554.35 -91.75 547.55 -91.7 580.3 -124.5 M588.5 -124.5 L595.35 -124.5 562.55 -91.75 555.75 -91.75 588.5 -124.5 M596.75 -124.5 L603.55 -124.5 570.75 -91.75 563.95 -91.75 596.75 -124.5 M604.95 -124.5 L611.75 -124.5 578.95 -91.75 572.15 -91.75 604.95 -124.5 M613.15 -124.5 L619.95 -124.5 587.15 -91.75 580.35 -91.75 613.15 -124.5 M621.35 -124.5 L628.15 -124.55 595.35 -91.75 588.55 -91.75 621.35 -124.5 M629.55 -124.55 L636.35 -124.55 603.55 -91.75 596.75 -91.75 629.55 -124.55 M637.75 -124.55 L641.75 -124.55 608.65 -91.45 607.95 -91.75 604.95 -91.75 637.75 -124.55 M408.1 -124.5 L408.25 -124.45 409.1 -124.4 409.2 -124.4 414.8 -124.4 382.0 -91.6 375.2 -91.6 408.1 -124.5 M416.2 -124.4 L423.0 -124.4 390.25 -91.6 383.4 -91.6 416.2 -124.4 M424.4 -124.4 L431.2 -124.4 398.45 -91.6 391.65 -91.6 424.4 -124.4 M397.85 -89.6 L404.65 -89.6 370.85 -55.8 364.05 -55.8 397.85 -89.6 M406.05 -89.6 L412.85 -89.6 379.05 -55.8 372.25 -55.8 406.05 -89.6 M414.25 -89.6 L421.05 -89.6 387.25 -55.8 380.45 -55.8 414.25 -89.6 M422.45 -89.6 L429.25 -89.65 395.45 -55.8 388.65 -55.8 422.45 -89.6 M430.65 -89.65 L437.45 -89.65 403.65 -55.8 396.85 -55.8 430.65 -89.65 M438.85 -89.65 L445.65 -89.65 411.85 -55.8 405.05 -55.8 438.85 -89.65 M447.1 -89.65 L453.9 -89.65 420.05 -55.85 413.25 -55.8 447.1 -89.65 M455.25 -89.65 L462.1 -89.65 428.25 -55.85 421.45 -55.85 455.25 -89.65 M463.5 -89.65 L470.3 -89.65 436.45 -55.85 429.65 -55.85 463.5 -89.65 M471.7 -89.65 L478.5 -89.65 444.65 -55.85 437.85 -55.85 471.7 -89.65 M479.9 -89.65 L486.7 -89.65 452.85 -55.85 446.05 -55.85 479.9 -89.65 M488.1 -89.65 L494.9 -89.65 461.1 -55.85 454.25 -55.85 488.1 -89.65 M496.3 -89.65 L503.1 -89.65 469.3 -55.85 462.5 -55.85 496.3 -89.65 M504.5 -89.65 L511.3 -89.7 477.5 -55.85 470.7 -55.85 504.5 -89.65 M512.7 -89.7 L519.5 -89.7 485.7 -55.85 478.9 -55.85 512.7 -89.7 M520.9 -89.7 L527.7 -89.7 493.9 -55.85 487.1 -55.85 520.9 -89.7 M529.1 -89.7 L535.95 -89.7 502.1 -55.9 495.3 -55.85 529.1 -89.7 M537.35 -89.7 L544.15 -89.7 510.3 -55.9 503.5 -55.9 537.35 -89.7 M545.55 -89.7 L552.35 -89.7 518.5 -55.9 511.7 -55.9 545.55 -89.7 M553.75 -89.7 L560.55 -89.7 526.7 -55.9 519.9 -55.9 553.75 -89.7 M561.95 -89.7 L568.75 -89.75 534.95 -55.9 528.1 -55.9 561.95 -89.7 M570.15 -89.75 L576.95 -89.75 543.15 -55.9 536.35 -55.9 570.15 -89.75 M578.35 -89.75 L585.15 -89.75 551.35 -55.9 544.55 -55.9 578.35 -89.75 M586.55 -89.75 L593.35 -89.75 559.55 -55.9 552.75 -55.9 586.55 -89.75 M594.75 -89.75 L601.55 -89.75 567.75 -55.95 560.95 -55.9 594.75 -89.75 M602.95 -89.75 L606.95 -89.75 573.15 -55.95 569.15 -55.95 602.95 -89.75 M389.65 -89.6 L396.45 -89.6 362.65 -55.8 355.85 -55.8 389.65 -89.6 M381.4 -89.6 L388.25 -89.6 354.45 -55.8 347.6 -55.8 381.4 -89.6 M373.3 -89.7 L373.45 -89.65 374.3 -89.6 374.4 -89.6 380.0 -89.6 346.2 -55.8 339.6 -55.8 339.45 -55.8 373.3 -89.7" fill="#e2c48b" fill-rule="evenodd" stroke="none"/>
    <path d="M462.95 -192.0 Q465.25 -193.1 467.8 -193.75 L434.95 -160.9 430.85 -159.9 462.95 -192.0 M469.6 -194.15 L471.95 -194.5 473.45 -194.65 475.35 -194.7 476.85 -194.65 443.5 -161.25 440.55 -161.4 436.6 -161.15 469.6 -194.15 M427.0 -156.05 Q429.5 -157.45 432.25 -158.25 L400.15 -126.1 396.05 -125.1 427.0 -156.05 M434.15 -158.7 L440.55 -159.4 441.6 -159.35 408.7 -126.45 405.75 -126.6 401.8 -126.35 434.15 -158.7 M399.35 -123.9 L405.75 -124.6 406.8 -124.55 373.9 -91.65 370.95 -91.8 367.0 -91.55 399.35 -123.9 M392.2 -121.25 Q394.7 -122.65 397.45 -123.45 L365.35 -91.3 361.25 -90.3 392.2 -121.25 M364.55 -89.1 L370.95 -89.8 372.0 -89.75 338.15 -55.9 336.15 -56.0 335.7 -56.0 331.05 -55.6 364.55 -89.1 M357.4 -86.4 Q359.9 -87.8 362.65 -88.6 L329.25 -55.25 324.75 -53.8 357.4 -86.4" fill="#dbbd83" fill-rule="evenodd" stroke="none"/>
    <path d="M319.9 -51.15 L348.8 -80.0 349.15 -80.0 Q349.55 -80.05 349.85 -80.35 L350.85 -81.4 350.85 -81.45 Q353.9 -84.5 357.4 -86.4 L324.75 -53.8 Q322.2 -52.75 319.9 -51.15 M357.5 -88.75 L382.55 -113.8 383.0 -113.75 Q383.4 -113.8 383.7 -114.1 L385.65 -116.2 385.65 -116.25 Q388.7 -119.3 392.2 -121.25 L361.25 -90.3 357.5 -88.75 M392.3 -123.55 L417.35 -148.6 417.8 -148.55 Q418.2 -148.6 418.5 -148.9 L420.45 -151.0 420.45 -151.05 Q423.5 -154.1 427.0 -156.05 L396.05 -125.1 392.3 -123.55 M427.1 -158.35 L454.45 -185.7 454.5 -185.75 454.9 -186.2 458.6 -189.35 Q460.35 -190.65 462.25 -191.65 L462.95 -192.0 430.85 -159.9 427.1 -158.35" fill="#d4b67d" fill-rule="evenodd" stroke="none"/>
    <path d="M467.8 -193.75 L469.6 -194.15 436.6 -161.15 434.95 -160.9 467.8 -193.75 M476.85 -194.65 L478.15 -194.55 444.8 -161.2 444.15 -161.2 443.5 -161.25 476.85 -194.65 M484.9 -194.5 L486.3 -194.5 453.0 -161.2 451.6 -161.2 484.9 -194.5 M493.15 -194.5 L494.55 -194.5 461.25 -161.2 459.85 -161.2 493.15 -194.5 M501.35 -194.5 L502.75 -194.5 469.45 -161.2 468.05 -161.2 501.35 -194.5 M509.55 -194.55 L510.95 -194.55 477.65 -161.25 476.25 -161.25 509.55 -194.55 M517.75 -194.55 L519.15 -194.55 485.85 -161.25 484.45 -161.25 517.75 -194.55 M525.95 -194.55 L527.35 -194.55 494.05 -161.25 492.65 -161.25 525.95 -194.55 M534.2 -194.55 L535.6 -194.55 502.3 -161.25 500.9 -161.25 534.2 -194.55 M542.4 -194.55 L543.8 -194.55 510.5 -161.25 509.1 -161.25 542.4 -194.55 M550.6 -194.55 L552.0 -194.55 518.7 -161.25 517.3 -161.25 550.6 -194.55 M558.8 -194.55 L560.2 -194.55 526.9 -161.25 525.5 -161.25 558.8 -194.55 M567.0 -194.6 L568.4 -194.6 535.1 -161.25 533.7 -161.25 567.0 -194.6 M575.2 -194.6 L576.6 -194.6 543.3 -161.3 541.9 -161.3 575.2 -194.6 M583.4 -194.6 L584.8 -194.6 551.55 -161.3 550.1 -161.3 583.4 -194.6 M591.6 -194.6 L593.0 -194.6 559.75 -161.3 558.35 -161.3 591.6 -194.6 M599.8 -194.6 L601.2 -194.6 567.95 -161.3 566.55 -161.3 599.8 -194.6 M608.0 -194.6 L609.4 -194.6 576.15 -161.3 574.75 -161.3 608.0 -194.6 M616.25 -194.6 L617.6 -194.6 584.35 -161.3 582.95 -161.3 616.25 -194.6 M624.45 -194.6 L625.85 -194.6 592.55 -161.3 591.15 -161.3 624.45 -194.6 M632.65 -194.6 L634.05 -194.6 600.75 -161.3 599.35 -161.3 632.65 -194.6 M640.85 -194.6 L642.25 -194.6 608.95 -161.3 607.55 -161.3 640.85 -194.6 M649.05 -194.65 L650.45 -194.65 617.15 -161.3 615.75 -161.3 649.05 -194.65 M657.25 -194.65 L658.65 -194.65 625.35 -161.35 623.95 -161.35 657.25 -194.65 M665.45 -194.65 L666.85 -194.65 633.55 -161.35 632.15 -161.35 665.45 -194.65 M673.65 -194.65 L675.05 -194.65 641.75 -161.35 640.35 -161.35 673.65 -194.65 M681.85 -194.65 L683.25 -194.65 649.95 -161.35 648.55 -161.35 681.85 -194.65 M690.05 -194.65 L691.45 -194.65 658.15 -161.35 656.75 -161.35 690.05 -194.65 M698.25 -194.65 L699.65 -194.65 666.35 -161.35 664.95 -161.35 698.25 -194.65 M706.45 -194.65 L707.85 -194.65 674.55 -161.35 673.15 -161.35 706.45 -194.65 M662.95 -159.35 L664.35 -159.35 631.55 -126.5 630.15 -126.5 662.95 -159.35 M671.15 -159.35 L672.55 -159.35 639.75 -126.55 638.35 -126.55 671.15 -159.35 M654.75 -159.3 L656.15 -159.3 623.35 -126.5 621.95 -126.5 654.75 -159.3 M310.05 -31.0 L310.2 -31.9 310.2 -32.05 310.25 -32.15 310.25 -32.25 311.15 -35.25 311.45 -36.0 312.15 -37.65 312.3 -37.95 312.35 -38.1 312.45 -38.25 312.8 -38.9 313.0 -39.2 313.15 -39.5 316.0 -43.35 316.7 -44.1 316.8 -44.25 320.2 -47.3 320.55 -47.5 322.6 -48.9 322.65 -48.95 324.35 -49.85 324.5 -49.9 324.65 -50.0 324.95 -50.1 325.95 -50.5 327.35 -51.05 327.9 -51.25 330.3 -51.85 330.4 -51.85 330.5 -51.9 330.7 -51.9 331.05 -52.0 310.05 -31.0 M457.8 -159.2 L459.2 -159.2 426.4 -126.4 425.0 -126.4 457.8 -159.2 M466.0 -159.2 L467.4 -159.2 434.6 -126.4 433.2 -126.4 466.0 -159.2 M474.25 -159.2 L475.65 -159.2 442.8 -126.4 441.4 -126.4 474.25 -159.2 M482.45 -159.2 L483.85 -159.2 451.0 -126.4 449.6 -126.4 482.45 -159.2 M490.65 -159.2 L492.05 -159.2 459.2 -126.4 457.8 -126.4 490.65 -159.2 M498.85 -159.2 L500.25 -159.2 467.4 -126.4 466.0 -126.4 498.85 -159.2 M507.05 -159.2 L508.45 -159.2 475.6 -126.4 474.2 -126.4 507.05 -159.2 M515.25 -159.2 L516.65 -159.2 483.85 -126.4 482.4 -126.4 515.25 -159.2 M523.45 -159.2 L524.85 -159.2 492.0 -126.4 490.65 -126.4 523.45 -159.2 M531.65 -159.2 L533.05 -159.2 500.2 -126.4 498.8 -126.4 531.65 -159.2 M539.85 -159.2 L541.25 -159.2 508.4 -126.4 507.0 -126.4 539.85 -159.2 M548.05 -159.2 L549.45 -159.2 516.6 -126.4 515.2 -126.4 548.05 -159.2 M556.25 -159.25 L557.65 -159.25 524.8 -126.4 523.4 -126.4 556.25 -159.25 M564.45 -159.25 L565.85 -159.25 533.0 -126.4 531.6 -126.4 564.45 -159.25 M572.65 -159.25 L574.05 -159.25 541.25 -126.4 539.85 -126.4 572.65 -159.25 M580.85 -159.25 L582.25 -159.25 549.45 -126.4 548.05 -126.4 580.85 -159.25 M589.05 -159.25 L590.45 -159.25 557.65 -126.4 556.25 -126.4 589.05 -159.25 M597.25 -159.25 L598.7 -159.25 565.85 -126.45 564.45 -126.45 597.25 -159.25 M605.5 -159.25 L606.9 -159.25 574.05 -126.45 572.65 -126.45 605.5 -159.25 M613.7 -159.25 L615.1 -159.25 582.3 -126.45 580.9 -126.45 613.7 -159.25 M621.9 -159.25 L623.3 -159.25 590.5 -126.45 589.1 -126.45 621.9 -159.25 M630.1 -159.3 L631.5 -159.3 598.7 -126.5 597.3 -126.5 630.1 -159.3 M638.3 -159.3 L639.7 -159.3 606.9 -126.5 605.5 -126.5 638.3 -159.3 M646.5 -159.3 L647.9 -159.3 615.1 -126.5 613.7 -126.5 646.5 -159.3 M449.6 -159.2 L451.0 -159.2 418.2 -126.4 416.8 -126.4 449.6 -159.2 M432.25 -158.25 L434.15 -158.7 401.8 -126.35 400.15 -126.1 432.25 -158.25 M441.6 -159.35 L442.9 -159.3 410.0 -126.4 409.35 -126.4 408.7 -126.45 441.6 -159.35 M431.2 -124.4 L432.6 -124.4 399.85 -91.6 398.45 -91.6 431.2 -124.4 M439.45 -124.4 L440.85 -124.4 408.05 -91.65 406.65 -91.65 439.45 -124.4 M447.65 -124.4 L449.05 -124.4 416.3 -91.65 414.9 -91.65 447.65 -124.4 M455.85 -124.4 L457.25 -124.4 424.5 -91.65 423.1 -91.65 455.85 -124.4 M464.05 -124.4 L465.45 -124.4 432.7 -91.65 431.3 -91.65 464.05 -124.4 M472.25 -124.4 L473.65 -124.4 440.9 -91.65 439.5 -91.65 472.25 -124.4 M480.45 -124.4 L481.85 -124.4 449.1 -91.65 447.7 -91.65 480.45 -124.4 M488.65 -124.4 L490.05 -124.4 457.3 -91.65 455.9 -91.65 488.65 -124.4 M496.85 -124.45 L498.25 -124.45 465.5 -91.65 464.1 -91.65 496.85 -124.45 M505.05 -124.45 L506.45 -124.45 473.7 -91.65 472.3 -91.65 505.05 -124.45 M513.3 -124.45 L514.7 -124.45 481.9 -91.65 480.5 -91.65 513.3 -124.45 M521.5 -124.45 L522.9 -124.45 490.1 -91.65 488.7 -91.65 521.5 -124.45 M529.7 -124.45 L531.1 -124.45 498.3 -91.65 496.9 -91.65 529.7 -124.45 M537.9 -124.45 L539.3 -124.45 506.5 -91.65 505.1 -91.65 537.9 -124.45 M546.1 -124.45 L547.5 -124.45 514.7 -91.65 513.3 -91.65 546.1 -124.45 M554.3 -124.45 L555.7 -124.45 522.9 -91.7 521.5 -91.7 554.3 -124.45 M562.5 -124.5 L563.9 -124.5 531.1 -91.7 529.7 -91.7 562.5 -124.5 M570.7 -124.5 L572.1 -124.5 539.35 -91.7 537.95 -91.7 570.7 -124.5 M578.9 -124.5 L580.3 -124.5 547.55 -91.7 546.15 -91.7 578.9 -124.5 M587.1 -124.5 L588.5 -124.5 555.75 -91.75 554.35 -91.75 587.1 -124.5 M595.35 -124.5 L596.75 -124.5 563.95 -91.75 562.55 -91.75 595.35 -124.5 M603.55 -124.5 L604.95 -124.5 572.15 -91.75 570.75 -91.75 603.55 -124.5 M611.75 -124.5 L613.15 -124.5 580.35 -91.75 578.95 -91.75 611.75 -124.5 M619.95 -124.5 L621.35 -124.5 588.55 -91.75 587.15 -91.75 619.95 -124.5 M628.15 -124.55 L629.55 -124.55 596.75 -91.75 595.35 -91.75 628.15 -124.55 M636.35 -124.55 L637.75 -124.55 604.95 -91.75 603.55 -91.75 636.35 -124.55 M406.8 -124.55 L408.1 -124.5 375.2 -91.6 374.55 -91.6 373.9 -91.65 406.8 -124.55 M414.8 -124.4 L416.2 -124.4 383.4 -91.6 382.0 -91.6 414.8 -124.4 M423.0 -124.4 L424.4 -124.4 391.65 -91.6 390.25 -91.6 423.0 -124.4 M397.45 -123.45 L399.35 -123.9 367.0 -91.55 365.35 -91.3 397.45 -123.45 M396.45 -89.6 L397.85 -89.6 364.05 -55.8 362.65 -55.8 396.45 -89.6 M404.65 -89.6 L406.05 -89.6 372.25 -55.8 370.85 -55.8 404.65 -89.6 M412.85 -89.6 L414.25 -89.6 380.45 -55.8 379.05 -55.8 412.85 -89.6 M421.05 -89.6 L422.45 -89.6 388.65 -55.8 387.25 -55.8 421.05 -89.6 M429.25 -89.65 L430.65 -89.65 396.85 -55.8 395.45 -55.8 429.25 -89.65 M437.45 -89.65 L438.85 -89.65 405.05 -55.8 403.65 -55.8 437.45 -89.65 M445.65 -89.65 L447.1 -89.65 413.25 -55.8 411.85 -55.8 445.65 -89.65 M453.9 -89.65 L455.25 -89.65 421.45 -55.85 420.05 -55.85 453.9 -89.65 M462.1 -89.65 L463.5 -89.65 429.65 -55.85 428.25 -55.85 462.1 -89.65 M470.3 -89.65 L471.7 -89.65 437.85 -55.85 436.45 -55.85 470.3 -89.65 M478.5 -89.65 L479.9 -89.65 446.05 -55.85 444.65 -55.85 478.5 -89.65 M486.7 -89.65 L488.1 -89.65 454.25 -55.85 452.85 -55.85 486.7 -89.65 M494.9 -89.65 L496.3 -89.65 462.5 -55.85 461.1 -55.85 494.9 -89.65 M503.1 -89.65 L504.5 -89.65 470.7 -55.85 469.3 -55.85 503.1 -89.65 M511.3 -89.7 L512.7 -89.7 478.9 -55.85 477.5 -55.85 511.3 -89.7 M519.5 -89.7 L520.9 -89.7 487.1 -55.85 485.7 -55.85 519.5 -89.7 M527.7 -89.7 L529.1 -89.7 495.3 -55.85 493.9 -55.85 527.7 -89.7 M535.95 -89.7 L537.35 -89.7 503.5 -55.9 502.1 -55.9 535.95 -89.7 M544.15 -89.7 L545.55 -89.7 511.7 -55.9 510.3 -55.9 544.15 -89.7 M552.35 -89.7 L553.75 -89.7 519.9 -55.9 518.5 -55.9 552.35 -89.7 M560.55 -89.7 L561.95 -89.7 528.1 -55.9 526.7 -55.9 560.55 -89.7 M568.75 -89.75 L570.15 -89.75 536.35 -55.9 534.95 -55.9 568.75 -89.75 M576.95 -89.75 L578.35 -89.75 544.55 -55.9 543.15 -55.9 576.95 -89.75 M585.15 -89.75 L586.55 -89.75 552.75 -55.9 551.35 -55.9 585.15 -89.75 M593.35 -89.75 L594.75 -89.75 560.95 -55.9 559.55 -55.9 593.35 -89.75 M601.55 -89.75 L602.95 -89.75 569.15 -55.95 567.75 -55.95 601.55 -89.75 M388.25 -89.6 L389.65 -89.6 355.85 -55.8 354.45 -55.8 388.25 -89.6 M380.0 -89.6 L381.4 -89.6 347.6 -55.8 346.2 -55.8 380.0 -89.6 M372.0 -89.75 L373.3 -89.7 339.45 -55.8 338.15 -55.9 372.0 -89.75 M362.65 -88.6 L364.55 -89.1 331.05 -55.6 329.25 -55.25 362.65 -88.6" fill="#c6a86f" fill-rule="evenodd" stroke="none"/>
    <path d="M418.4 -153.2 L419.55 -154.3 422.6 -156.8 426.25 -159.05 426.55 -159.2 453.7 -186.35 454.2 -186.9 Q457.65 -190.4 461.75 -192.5 L464.25 -193.65 464.85 -193.85 469.1 -195.1 470.8 -195.4 473.05 -195.6 474.5 -195.7 475.35 -195.7 477.8 -195.6 478.85 -195.5 712.35 -195.65 712.7 -195.5 712.85 -195.15 712.85 -192.15 712.7 -191.8 679.55 -158.65 679.55 -157.35 Q679.55 -156.5 679.0 -155.9 678.4 -155.35 677.55 -155.35 L677.3 -155.35 Q676.85 -155.4 676.55 -155.6 L644.75 -123.85 644.75 -122.55 Q644.75 -121.7 644.2 -121.1 643.6 -120.55 642.75 -120.55 L642.5 -120.55 Q642.05 -120.6 641.75 -120.8 L609.95 -89.05 609.95 -87.75 Q609.95 -86.9 609.4 -86.3 608.8 -85.75 607.95 -85.75 L607.7 -85.75 Q607.25 -85.8 606.95 -86.0 L573.5 -52.6 573.15 -52.45 339.55 -52.25 339.3 -52.25 338.0 -52.4 336.25 -52.45 336.05 -52.45 334.6 -52.4 332.7 -52.2 310.15 -29.75 309.95 -29.6 309.7 -29.6 306.85 -30.25 306.55 -30.45 306.45 -30.8 306.5 -31.1 306.8 -32.75 Q307.2 -34.95 307.95 -37.0 310.1 -42.9 315.0 -47.7 L315.45 -48.1 347.35 -79.95 347.3 -80.05 Q347.1 -80.4 347.05 -80.8 L347.05 -81.25 Q347.15 -81.8 347.55 -82.25 L347.7 -82.45 348.75 -83.55 348.8 -83.6 349.95 -84.7 Q351.45 -86.1 353.0 -87.2 L356.65 -89.45 356.95 -89.6 381.15 -113.75 381.1 -113.85 380.9 -114.55 380.95 -115.1 Q381.0 -115.6 381.35 -116.0 L382.05 -116.8 383.55 -118.35 383.6 -118.4 384.75 -119.5 387.8 -122.0 391.45 -124.25 391.75 -124.4 415.95 -148.55 415.9 -148.65 415.7 -149.35 415.75 -149.9 Q415.8 -150.4 416.15 -150.8 L416.9 -151.65 417.05 -151.8 418.35 -153.15 418.4 -153.2 M678.55 -159.05 L711.85 -192.35 711.85 -194.65 707.85 -194.65 706.45 -194.65 699.65 -194.65 698.25 -194.65 691.45 -194.65 690.05 -194.65 683.25 -194.65 681.85 -194.65 675.05 -194.65 673.65 -194.65 666.85 -194.65 665.45 -194.65 658.65 -194.65 657.25 -194.65 650.45 -194.65 649.05 -194.65 642.25 -194.6 640.85 -194.6 634.05 -194.6 632.65 -194.6 625.85 -194.6 624.45 -194.6 617.6 -194.6 616.25 -194.6 609.4 -194.6 608.0 -194.6 601.2 -194.6 599.8 -194.6 593.0 -194.6 591.6 -194.6 584.8 -194.6 583.4 -194.6 576.6 -194.6 575.2 -194.6 568.4 -194.6 567.0 -194.6 560.2 -194.55 558.8 -194.55 552.0 -194.55 550.6 -194.55 543.8 -194.55 542.4 -194.55 535.6 -194.55 534.2 -194.55 527.35 -194.55 525.95 -194.55 519.15 -194.55 517.75 -194.55 510.95 -194.55 509.55 -194.55 502.75 -194.5 501.35 -194.5 494.55 -194.5 493.15 -194.5 486.3 -194.5 484.9 -194.5 478.75 -194.5 478.15 -194.55 476.85 -194.65 475.35 -194.7 473.45 -194.65 471.95 -194.5 469.6 -194.15 467.8 -193.75 Q465.25 -193.1 462.95 -192.0 L462.25 -191.65 Q460.35 -190.65 458.6 -189.35 L454.9 -186.2 454.5 -185.75 454.45 -185.7 427.1 -158.35 423.2 -155.95 Q421.05 -154.45 419.05 -152.45 L416.95 -150.15 416.7 -149.5 416.7 -149.45 Q416.75 -149.05 417.1 -148.75 L417.35 -148.6 392.3 -123.55 388.4 -121.15 Q386.25 -119.65 384.25 -117.65 L382.15 -115.35 Q381.9 -115.1 381.9 -114.7 L381.9 -114.65 Q381.95 -114.25 382.3 -113.95 L382.55 -113.8 357.5 -88.75 353.6 -86.35 349.5 -82.85 349.45 -82.85 348.3 -81.65 Q348.0 -81.3 348.05 -80.9 L348.05 -80.85 348.4 -80.2 348.8 -80.0 319.9 -51.15 316.1 -47.35 316.05 -47.3 315.7 -47.0 Q311.9 -43.3 309.8 -38.85 308.75 -36.55 308.1 -34.1 L307.7 -32.3 307.5 -31.1 309.65 -30.65 309.8 -30.75 309.95 -31.9 310.0 -32.1 310.0 -32.35 310.8 -35.35 310.85 -35.4 311.8 -37.8 311.95 -38.1 312.0 -38.25 312.45 -39.1 312.5 -39.25 312.6 -39.4 313.15 -40.4 314.5 -42.3 314.7 -42.65 317.95 -46.25 318.55 -46.8 322.2 -49.5 322.35 -49.65 322.7 -49.8 324.15 -50.65 324.3 -50.7 324.6 -50.85 325.1 -51.05 327.05 -51.9 330.1 -52.75 330.2 -52.8 330.3 -52.8 330.9 -52.95 332.2 -53.1 332.4 -53.2 335.65 -53.45 336.05 -53.45 337.05 -53.4 337.2 -53.4 338.95 -53.3 339.6 -53.25 572.95 -53.45 573.15 -53.65 607.0 -87.45 607.25 -87.05 607.45 -86.9 Q607.65 -86.75 607.95 -86.75 608.35 -86.75 608.65 -87.05 L608.95 -87.75 608.95 -89.45 641.8 -122.25 642.05 -121.85 642.2 -121.7 642.75 -121.55 Q643.15 -121.55 643.45 -121.85 L643.75 -122.55 643.75 -124.25 676.6 -157.05 676.85 -156.65 677.05 -156.5 677.55 -156.35 Q677.95 -156.35 678.25 -156.65 L678.55 -157.35 678.55 -159.05 M310.05 -31.0 L331.05 -52.0 330.7 -51.9 330.5 -51.9 330.4 -51.85 330.3 -51.85 327.9 -51.25 327.35 -51.05 325.95 -50.5 324.95 -50.1 324.65 -50.0 324.5 -49.9 324.35 -49.85 322.65 -48.95 322.6 -48.9 320.55 -47.5 320.2 -47.3 316.8 -44.25 316.7 -44.1 316.0 -43.35 313.15 -39.5 313.0 -39.2 312.8 -38.9 312.45 -38.25 312.35 -38.1 312.3 -37.95 312.15 -37.65 311.45 -36.0 311.15 -35.25 310.25 -32.25 310.25 -32.15 310.2 -32.05 310.2 -31.9 310.05 -31.0" fill="#70563e" fill-rule="evenodd" stroke="none"/>
    <path d="M711.85 -194.65 L711.85 -192.35 678.55 -159.05 678.55 -160.35 678.25 -161.05 711.85 -194.65 M676.6 -157.05 L643.75 -124.25 643.75 -125.55 643.45 -126.25 676.55 -159.35 676.55 -157.35 676.6 -157.05 M641.8 -122.25 L608.95 -89.45 608.95 -90.75 608.65 -91.45 641.75 -124.55 641.75 -122.55 641.8 -122.25 M607.0 -87.45 L573.15 -53.65 573.15 -55.95 606.95 -89.75 606.95 -87.75 607.0 -87.45" fill="#8c713d" fill-rule="evenodd" stroke="none"/>
    <path d="M678.55 -159.05 L678.55 -157.35 678.25 -156.65 Q677.95 -156.35 677.55 -156.35 L677.05 -156.5 676.85 -156.65 676.6 -157.05 676.55 -157.35 676.55 -159.35 672.55 -159.35 671.15 -159.35 664.35 -159.35 662.95 -159.35 656.15 -159.3 654.75 -159.3 647.9 -159.3 646.5 -159.3 639.7 -159.3 638.3 -159.3 631.5 -159.3 630.1 -159.3 623.3 -159.25 621.9 -159.25 615.1 -159.25 613.7 -159.25 606.9 -159.25 605.5 -159.25 598.7 -159.25 597.25 -159.25 590.45 -159.25 589.05 -159.25 582.25 -159.25 580.85 -159.25 574.05 -159.25 572.65 -159.25 565.85 -159.25 564.45 -159.25 557.65 -159.25 556.25 -159.25 549.45 -159.2 548.05 -159.2 541.25 -159.2 539.85 -159.2 533.05 -159.2 531.65 -159.2 524.85 -159.2 523.45 -159.2 516.65 -159.2 515.25 -159.2 508.45 -159.2 507.05 -159.2 500.25 -159.2 498.85 -159.2 492.05 -159.2 490.65 -159.2 483.85 -159.2 482.45 -159.2 475.65 -159.2 474.25 -159.2 467.4 -159.2 466.0 -159.2 459.2 -159.2 457.8 -159.2 451.0 -159.2 449.6 -159.2 444.0 -159.2 443.9 -159.2 443.05 -159.3 442.9 -159.3 441.6 -159.35 440.55 -159.4 434.15 -158.7 432.25 -158.25 Q429.5 -157.45 427.0 -156.05 423.5 -154.1 420.45 -151.05 L420.45 -151.0 418.5 -148.9 Q418.2 -148.6 417.8 -148.55 L417.35 -148.6 417.1 -148.75 Q416.75 -149.05 416.7 -149.45 L416.7 -149.5 416.95 -150.15 419.05 -152.45 Q421.05 -154.45 423.2 -155.95 L427.1 -158.35 430.85 -159.9 434.95 -160.9 436.6 -161.15 440.55 -161.4 443.5 -161.25 444.15 -161.2 444.8 -161.2 451.6 -161.2 453.0 -161.2 459.85 -161.2 461.25 -161.2 468.05 -161.2 469.45 -161.2 476.25 -161.25 477.65 -161.25 484.45 -161.25 485.85 -161.25 492.65 -161.25 494.05 -161.25 500.9 -161.25 502.3 -161.25 509.1 -161.25 510.5 -161.25 517.3 -161.25 518.7 -161.25 525.5 -161.25 526.9 -161.25 533.7 -161.25 535.1 -161.25 541.9 -161.3 543.3 -161.3 550.1 -161.3 551.55 -161.3 558.35 -161.3 559.75 -161.3 566.55 -161.3 567.95 -161.3 574.75 -161.3 576.15 -161.3 582.95 -161.3 584.35 -161.3 591.15 -161.3 592.55 -161.3 599.35 -161.3 600.75 -161.3 607.55 -161.3 608.95 -161.3 615.75 -161.3 617.15 -161.3 623.95 -161.35 625.35 -161.35 632.15 -161.35 633.55 -161.35 640.35 -161.35 641.75 -161.35 648.55 -161.35 649.95 -161.35 656.75 -161.35 658.15 -161.35 664.95 -161.35 666.35 -161.35 673.15 -161.35 674.55 -161.35 677.55 -161.35 678.25 -161.05 678.55 -160.35 678.55 -159.05 M643.75 -124.25 L643.75 -122.55 643.45 -121.85 Q643.15 -121.55 642.75 -121.55 L642.2 -121.7 642.05 -121.85 641.8 -122.25 641.75 -122.55 641.75 -124.55 637.75 -124.55 636.35 -124.55 629.55 -124.55 628.15 -124.55 621.35 -124.5 619.95 -124.5 613.15 -124.5 611.75 -124.5 604.95 -124.5 603.55 -124.5 596.75 -124.5 595.35 -124.5 588.5 -124.5 587.1 -124.5 580.3 -124.5 578.9 -124.5 572.1 -124.5 570.7 -124.5 563.9 -124.5 562.5 -124.5 555.7 -124.45 554.3 -124.45 547.5 -124.45 546.1 -124.45 539.3 -124.45 537.9 -124.45 531.1 -124.45 529.7 -124.45 522.9 -124.45 521.5 -124.45 514.7 -124.45 513.3 -124.45 506.45 -124.45 505.05 -124.45 498.25 -124.45 496.85 -124.45 490.05 -124.4 488.65 -124.4 481.85 -124.4 480.45 -124.4 473.65 -124.4 472.25 -124.4 465.45 -124.4 464.05 -124.4 457.25 -124.4 455.85 -124.4 449.05 -124.4 447.65 -124.4 440.85 -124.4 439.45 -124.4 432.6 -124.4 431.2 -124.4 424.4 -124.4 423.0 -124.4 416.2 -124.4 414.8 -124.4 409.2 -124.4 409.1 -124.4 408.25 -124.45 408.1 -124.5 406.8 -124.55 405.75 -124.6 399.35 -123.9 397.45 -123.45 Q394.7 -122.65 392.2 -121.25 388.7 -119.3 385.65 -116.25 L385.65 -116.2 383.7 -114.1 Q383.4 -113.8 383.0 -113.75 L382.55 -113.8 382.3 -113.95 Q381.95 -114.25 381.9 -114.65 L381.9 -114.7 Q381.9 -115.1 382.15 -115.35 L384.25 -117.65 Q386.25 -119.65 388.4 -121.15 L392.3 -123.55 396.05 -125.1 400.15 -126.1 401.8 -126.35 405.75 -126.6 408.7 -126.45 409.35 -126.4 410.0 -126.4 416.8 -126.4 418.2 -126.4 425.0 -126.4 426.4 -126.4 433.2 -126.4 434.6 -126.4 441.4 -126.4 442.8 -126.4 449.6 -126.4 451.0 -126.4 457.8 -126.4 459.2 -126.4 466.0 -126.4 467.4 -126.4 474.2 -126.4 475.6 -126.4 482.4 -126.4 483.85 -126.4 490.65 -126.4 492.0 -126.4 498.8 -126.4 500.2 -126.4 507.0 -126.4 508.4 -126.4 515.2 -126.4 516.6 -126.4 523.4 -126.4 524.8 -126.4 531.6 -126.4 533.0 -126.4 539.85 -126.4 541.25 -126.4 548.05 -126.4 549.45 -126.4 556.25 -126.4 557.65 -126.4 564.45 -126.45 565.85 -126.45 572.65 -126.45 574.05 -126.45 580.9 -126.45 582.3 -126.45 589.1 -126.45 590.5 -126.45 597.3 -126.5 598.7 -126.5 605.5 -126.5 606.9 -126.5 613.7 -126.5 615.1 -126.5 621.95 -126.5 623.35 -126.5 630.15 -126.5 631.55 -126.5 638.35 -126.55 639.75 -126.55 642.75 -126.55 Q643.15 -126.55 643.45 -126.25 L643.75 -125.55 643.75 -124.25 M608.95 -89.45 L608.95 -87.75 608.65 -87.05 Q608.35 -86.75 607.95 -86.75 607.65 -86.75 607.45 -86.9 L607.25 -87.05 607.0 -87.45 606.95 -87.75 606.95 -89.75 602.95 -89.75 601.55 -89.75 594.75 -89.75 593.35 -89.75 586.55 -89.75 585.15 -89.75 578.35 -89.75 576.95 -89.75 570.15 -89.75 568.75 -89.75 561.95 -89.7 560.55 -89.7 553.75 -89.7 552.35 -89.7 545.55 -89.7 544.15 -89.7 537.35 -89.7 535.95 -89.7 529.1 -89.7 527.7 -89.7 520.9 -89.7 519.5 -89.7 512.7 -89.7 511.3 -89.7 504.5 -89.65 503.1 -89.65 496.3 -89.65 494.9 -89.65 488.1 -89.65 486.7 -89.65 479.9 -89.65 478.5 -89.65 471.7 -89.65 470.3 -89.65 463.5 -89.65 462.1 -89.65 455.25 -89.65 453.9 -89.65 447.1 -89.65 445.65 -89.65 438.85 -89.65 437.45 -89.65 430.65 -89.65 429.25 -89.65 422.45 -89.6 421.05 -89.6 414.25 -89.6 412.85 -89.6 406.05 -89.6 404.65 -89.6 397.85 -89.6 396.45 -89.6 389.65 -89.6 388.25 -89.6 381.4 -89.6 380.0 -89.6 374.4 -89.6 374.3 -89.6 373.45 -89.65 373.3 -89.7 372.0 -89.75 370.95 -89.8 364.55 -89.1 362.65 -88.6 Q359.9 -87.8 357.4 -86.4 353.9 -84.5 350.85 -81.45 L350.85 -81.4 349.85 -80.35 Q349.55 -80.05 349.15 -80.0 L348.8 -80.0 348.4 -80.2 348.05 -80.85 348.05 -80.9 Q348.0 -81.3 348.3 -81.65 L349.45 -82.85 349.5 -82.85 353.6 -86.35 357.5 -88.75 361.25 -90.3 365.35 -91.3 367.0 -91.55 370.95 -91.8 373.9 -91.65 374.55 -91.6 375.2 -91.6 382.0 -91.6 383.4 -91.6 390.25 -91.6 391.65 -91.6 398.45 -91.6 399.85 -91.6 406.65 -91.65 408.05 -91.65 414.9 -91.65 416.3 -91.65 423.1 -91.65 424.5 -91.65 431.3 -91.65 432.7 -91.65 439.5 -91.65 440.9 -91.65 447.7 -91.65 449.1 -91.65 455.9 -91.65 457.3 -91.65 464.1 -91.65 465.5 -91.65 472.3 -91.65 473.7 -91.65 480.5 -91.65 481.9 -91.65 488.7 -91.65 490.1 -91.65 496.9 -91.65 498.3 -91.65 505.1 -91.65 506.5 -91.65 513.3 -91.65 514.7 -91.65 521.5 -91.7 522.9 -91.7 529.7 -91.7 531.1 -91.7 537.95 -91.7 539.35 -91.7 546.15 -91.7 547.55 -91.7 554.35 -91.75 555.75 -91.75 562.55 -91.75 563.95 -91.75 570.75 -91.75 572.15 -91.75 578.95 -91.75 580.35 -91.75 587.15 -91.75 588.55 -91.75 595.35 -91.75 596.75 -91.75 603.55 -91.75 604.95 -91.75 607.95 -91.75 608.65 -91.45 608.95 -90.75 608.95 -89.45" fill="#d7cfbf" fill-rule="evenodd" stroke="none"/>
    <path d="M573.15 -53.65 L572.95 -53.45 339.6 -53.25 338.95 -53.3 337.2 -53.4 337.05 -53.4 336.05 -53.45 335.65 -53.45 332.4 -53.2 332.2 -53.1 330.9 -52.95 330.3 -52.8 330.2 -52.8 330.1 -52.75 327.05 -51.9 325.1 -51.05 324.6 -50.85 324.3 -50.7 324.15 -50.65 322.7 -49.8 322.35 -49.65 322.2 -49.5 318.55 -46.8 317.95 -46.25 314.7 -42.65 314.5 -42.3 313.15 -40.4 312.6 -39.4 312.5 -39.25 312.45 -39.1 312.0 -38.25 311.95 -38.1 311.8 -37.8 310.85 -35.4 310.8 -35.35 310.0 -32.35 310.0 -32.1 309.95 -31.9 309.8 -30.75 309.65 -30.65 307.5 -31.1 307.7 -32.3 308.1 -34.1 Q308.75 -36.55 309.8 -38.85 311.9 -43.3 315.7 -47.0 L316.05 -47.3 316.1 -47.35 319.9 -51.15 Q322.2 -52.75 324.75 -53.8 L329.25 -55.25 331.05 -55.6 335.7 -56.0 336.15 -56.0 338.15 -55.9 339.45 -55.8 339.6 -55.8 346.2 -55.8 347.6 -55.8 354.45 -55.8 355.85 -55.8 362.65 -55.8 364.05 -55.8 370.85 -55.8 372.25 -55.8 379.05 -55.8 380.45 -55.8 387.25 -55.8 388.65 -55.8 395.45 -55.8 396.85 -55.8 403.65 -55.8 405.05 -55.8 411.85 -55.8 413.25 -55.8 420.05 -55.85 421.45 -55.85 428.25 -55.85 429.65 -55.85 436.45 -55.85 437.85 -55.85 444.65 -55.85 446.05 -55.85 452.85 -55.85 454.25 -55.85 461.1 -55.85 462.5 -55.85 469.3 -55.85 470.7 -55.85 477.5 -55.85 478.9 -55.85 485.7 -55.85 487.1 -55.85 493.9 -55.85 495.3 -55.85 502.1 -55.9 503.5 -55.9 510.3 -55.9 511.7 -55.9 518.5 -55.9 519.9 -55.9 526.7 -55.9 528.1 -55.9 534.95 -55.9 536.35 -55.9 543.15 -55.9 544.55 -55.9 551.35 -55.9 552.75 -55.9 559.55 -55.9 560.95 -55.9 567.75 -55.95 569.15 -55.95 573.15 -55.95 573.15 -53.65" fill="#b4955a" fill-rule="evenodd" stroke="none"/>
  </g>
</svg>
