<?xml version="1.0" encoding="UTF-8" standalone="no"?>
<svg xmlns:ffdec="https://www.free-decompiler.com/flash" xmlns:xlink="http://www.w3.org/1999/xlink" ffdec:objectType="shape" height="60.0px" width="60.0px" xmlns="http://www.w3.org/2000/svg">
  <g transform="matrix(1.0, 0.0, 0.0, 1.0, 2.0, 2.0)">
    <path d="M3.5 -2.0 L52.55 -2.0 Q58.0 -2.0 58.0 3.5 L58.0 52.5 Q58.0 58.0 52.55 58.0 L3.5 58.0 Q-2.0 58.0 -2.0 52.5 L-2.0 3.5 Q-2.0 -2.0 3.5 -2.0 M5.0 0.0 Q0.0 0.0 0.0 5.0 L0.0 51.0 Q0.0 56.0 5.0 56.0 L51.05 56.0 Q56.0 56.0 56.0 51.0 L56.0 5.0 Q56.0 0.0 51.05 0.0 L5.0 0.0" fill="#f7e10d" fill-rule="evenodd" stroke="none"/>
    <path d="M5.0 0.0 L51.05 0.0 Q56.0 0.0 56.0 5.0 L56.0 51.0 Q56.0 56.0 51.05 56.0 L5.0 56.0 Q0.0 56.0 0.0 51.0 L0.0 5.0 Q0.0 0.0 5.0 0.0 M5.75 1.0 Q1.0 1.0 1.0 5.75 L1.0 50.25 Q1.0 55.0 5.75 55.0 L50.3 55.0 Q55.0 55.0 55.0 50.25 L55.0 5.75 Q55.0 1.0 50.3 1.0 L5.75 1.0" fill="#ea8a22" fill-rule="evenodd" stroke="none"/>
    <path d="M5.75 1.0 L50.3 1.0 Q55.0 1.0 55.0 5.75 L55.0 50.25 Q55.0 55.0 50.3 55.0 L5.75 55.0 Q1.0 55.0 1.0 50.25 L1.0 5.75 Q1.0 1.0 5.75 1.0" fill="#ffffff" fill-rule="evenodd" stroke="none"/>
  </g>
</svg>
