<?xml version="1.0" encoding="UTF-8" standalone="no"?>
<svg xmlns:ffdec="https://www.free-decompiler.com/flash" xmlns:xlink="http://www.w3.org/1999/xlink" ffdec:objectType="shape" height="97.0px" width="96.95px" xmlns="http://www.w3.org/2000/svg">
  <g transform="matrix(1.0, 0.0, 0.0, 1.0, 57.3, 97.3)">
    <path d="M34.8 -95.65 L36.55 -94.4 36.65 -94.3 37.45 -93.35 -43.45 -12.45 -44.25 -13.4 -46.1 -14.75 34.8 -95.65" fill="#fff55c" fill-rule="evenodd" stroke="none"/>
    <path d="M37.45 -93.35 L36.65 -94.3 36.55 -94.4 34.8 -95.65 Q33.6 -96.25 32.2 -96.3 L31.85 -96.3 31.4 -96.25 Q28.85 -96.15 27.0 -94.3 L26.35 -93.55 26.3 -93.5 -51.9 -15.25 -49.65 -15.6 -49.3 -15.6 Q-47.6 -15.55 -46.1 -14.75 L-44.25 -13.4 -43.45 -12.45 Q-42.3 -10.9 -42.05 -9.0 L-42.0 -7.95 Q-42.0 -6.7 -42.35 -5.6 L36.05 -84.0 36.65 -84.6 Q38.65 -86.6 38.65 -89.45 L38.65 -89.75 Q38.55 -91.75 37.45 -93.35 M37.35 -83.9 L36.75 -83.3 -44.65 -1.9 Q-44.8 -1.75 -45.0 -1.75 L-45.15 -1.75 Q-47.1 -0.3 -49.65 -0.3 -52.85 -0.3 -55.1 -2.55 -57.3 -4.8 -57.3 -7.95 -57.3 -10.5 -55.85 -12.5 L-55.85 -12.55 -55.7 -12.9 25.55 -94.15 26.3 -95.0 Q28.6 -97.3 31.85 -97.3 L32.4 -97.25 33.1 -97.2 Q34.4 -97.0 35.5 -96.4 L37.25 -95.1 37.35 -95.0 38.2 -94.05 Q39.3 -92.55 39.6 -90.65 L39.65 -89.45 Q39.65 -86.2 37.35 -83.9 M-50.25 -8.95 Q-49.95 -9.25 -49.45 -9.15 -48.5 -9.0 -48.45 -7.95 L-48.55 -7.35 -48.9 -6.85 -49.6 -6.5 -49.7 -6.5 -49.95 -6.5 Q-51.75 -6.7 -51.85 -8.35 L-51.85 -8.5 -51.65 -9.6 -51.3 -10.0 -50.5 -10.4 -49.5 -10.5 -49.45 -10.5 Q-47.65 -10.25 -47.3 -8.55 L-47.25 -7.9 Q-47.2 -6.65 -48.0 -5.95 L-48.85 -5.4 -49.7 -5.2 -49.75 -5.2 Q-51.15 -5.15 -52.25 -6.05 -53.3 -6.95 -53.3 -8.45 L-53.1 -9.6 -52.6 -10.5 -52.3 -10.85 Q-51.25 -11.85 -49.7 -11.85 L-49.1 -11.75 Q-48.05 -11.6 -47.2 -10.8 L-46.35 -9.55 -46.0 -8.25 Q-45.7 -6.35 -46.9 -5.25 L-47.1 -5.05 -47.9 -4.45 Q-48.7 -4.1 -49.6 -4.05 -51.55 -3.9 -52.95 -5.1 -54.45 -6.35 -54.55 -8.3 -54.65 -9.55 -54.05 -10.55 L-53.4 -11.35 -53.1 -11.65 Q-51.6 -13.05 -49.55 -13.0 L-49.5 -13.0 -48.1 -12.75 Q-47.05 -12.4 -46.15 -11.45 L-45.4 -10.5 Q-44.7 -9.35 -44.65 -7.95 L-44.85 -6.2 Q-45.2 -5.2 -45.95 -4.35 L-46.15 -4.1 -46.95 -3.5 Q-48.15 -2.85 -49.7 -2.9 -51.95 -2.9 -53.85 -4.35 -55.8 -5.85 -55.8 -8.3 L-55.8 -8.35 Q-55.85 -10.1 -54.95 -11.45 L-54.35 -12.25 -54.15 -12.5 Q-52.75 -14.0 -50.65 -14.25 L-49.75 -14.3 Q-48.3 -14.3 -47.1 -13.75 L-45.2 -12.4 -44.4 -11.45 Q-43.4 -9.95 -43.35 -8.0 L-43.35 -7.75 Q-43.4 -5.3 -45.05 -3.4 L-45.25 -3.2 -46.0 -2.55 Q-47.55 -1.45 -49.8 -1.55 -52.8 -1.65 -54.9 -3.5 L-55.75 -4.45 Q-55.3 -3.65 -54.65 -2.95 -52.6 -0.9 -49.65 -0.9 -47.35 -0.9 -45.6 -2.15 L-44.7 -2.95 -43.6 -4.3 Q-42.65 -5.95 -42.65 -7.95 L-42.65 -8.4 Q-42.8 -10.4 -43.9 -12.0 L-44.7 -12.95 Q-45.55 -13.8 -46.55 -14.3 -47.95 -15.0 -49.65 -15.0 L-49.9 -15.0 Q-51.65 -14.95 -53.05 -14.1 L-53.85 -13.6 -54.65 -12.95 -54.85 -12.75 -55.3 -12.15 -55.45 -11.95 -55.5 -11.9 Q-56.45 -10.4 -56.45 -8.5 -56.45 -5.75 -54.5 -4.0 -52.55 -2.3 -49.8 -2.2 -47.85 -2.15 -46.45 -3.0 L-45.7 -3.65 -45.5 -3.85 Q-44.25 -5.3 -44.05 -7.05 L-44.0 -8.0 Q-44.0 -9.7 -44.85 -11.0 L-45.65 -11.95 Q-46.5 -12.85 -47.6 -13.25 L-49.75 -13.65 -51.45 -13.4 Q-52.75 -13.05 -53.7 -12.05 L-53.9 -11.8 -54.5 -11.0 Q-55.25 -9.85 -55.2 -8.35 -55.15 -6.15 -53.5 -4.85 -51.75 -3.55 -49.7 -3.5 -48.4 -3.5 -47.45 -4.0 L-46.6 -4.55 -46.4 -4.8 Q-45.25 -6.15 -45.3 -7.9 -45.35 -9.1 -45.85 -10.0 L-46.6 -11.0 Q-47.5 -11.95 -48.65 -12.2 L-49.55 -12.35 Q-51.35 -12.4 -52.7 -11.2 L-53.0 -10.9 -53.6 -10.1 Q-54.0 -9.3 -53.9 -8.35 -53.8 -6.65 -52.55 -5.55 -51.3 -4.55 -49.6 -4.7 L-48.4 -4.95 Q-47.95 -5.15 -47.55 -5.5 L-47.35 -5.7 Q-46.4 -6.6 -46.6 -8.15 L-46.6 -8.2 -46.8 -9.1 -47.6 -10.35 Q-48.5 -11.2 -49.65 -11.2 L-49.7 -11.2 Q-51.0 -11.2 -51.85 -10.4 L-52.1 -10.05 -52.55 -9.1 -52.65 -8.45 Q-52.7 -7.25 -51.85 -6.5 -51.0 -5.8 -49.85 -5.8 L-49.35 -5.9 -48.45 -6.4 Q-47.9 -6.95 -47.9 -7.9 L-47.9 -8.0 Q-48.0 -9.6 -49.55 -9.9 L-50.9 -9.5 -51.15 -9.1 -51.25 -8.5 Q-51.15 -7.3 -49.8 -7.15 L-49.4 -7.35 Q-49.1 -7.55 -49.1 -7.9 -49.1 -8.4 -49.5 -8.5 L-49.55 -8.5 -49.85 -8.5 -49.95 -8.15 -50.0 -7.95 -50.05 -7.9 -50.3 -7.85 -50.5 -7.95 -50.6 -8.2 -50.55 -8.5 -50.25 -8.95" fill="#c7a423" fill-rule="evenodd" stroke="none"/>
    <path d="M37.45 -93.35 Q38.55 -91.75 38.65 -89.75 L-42.05 -9.0 Q-42.3 -10.9 -43.45 -12.45 L37.45 -93.35 M-46.1 -14.75 Q-47.6 -15.55 -49.3 -15.6 L31.4 -96.25 31.85 -96.3 32.2 -96.3 Q33.6 -96.25 34.8 -95.65 L-46.1 -14.75" fill="#ffe54b" fill-rule="evenodd" stroke="none"/>
    <path d="M38.65 -89.75 L38.65 -89.45 Q38.65 -86.6 36.65 -84.6 L36.05 -84.0 -42.35 -5.6 Q-42.0 -6.7 -42.0 -7.95 L-42.05 -9.0 38.65 -89.75 M-49.3 -15.6 L-49.65 -15.6 -51.9 -15.25 26.3 -93.5 26.35 -93.55 27.0 -94.3 Q28.85 -96.15 31.4 -96.25 L-49.3 -15.6" fill="#eec536" fill-rule="evenodd" stroke="none"/>
    <path d="M-50.25 -8.95 L-50.55 -8.5 -50.6 -8.2 -50.5 -7.95 -50.3 -7.85 -50.05 -7.9 -50.0 -7.95 -49.95 -8.15 -49.85 -8.5 -49.55 -8.5 -49.5 -8.5 Q-49.1 -8.4 -49.1 -7.9 -49.1 -7.55 -49.4 -7.35 L-49.8 -7.15 Q-51.15 -7.3 -51.25 -8.5 L-51.15 -9.1 -50.9 -9.5 -49.55 -9.9 Q-48.0 -9.6 -47.9 -8.0 L-47.9 -7.9 Q-47.9 -6.95 -48.45 -6.4 L-49.35 -5.9 -49.85 -5.8 Q-51.0 -5.8 -51.85 -6.5 -52.7 -7.25 -52.65 -8.45 L-52.55 -9.1 -52.1 -10.05 -51.85 -10.4 Q-51.0 -11.2 -49.7 -11.2 L-49.65 -11.2 Q-48.5 -11.2 -47.6 -10.35 L-46.8 -9.1 -46.6 -8.2 -46.6 -8.15 Q-46.4 -6.6 -47.35 -5.7 L-47.55 -5.5 Q-47.95 -5.15 -48.4 -4.95 L-49.6 -4.7 Q-51.3 -4.55 -52.55 -5.55 -53.8 -6.65 -53.9 -8.35 -54.0 -9.3 -53.6 -10.1 L-53.0 -10.9 -52.7 -11.2 Q-51.35 -12.4 -49.55 -12.35 L-48.65 -12.2 Q-47.5 -11.95 -46.6 -11.0 L-45.85 -10.0 Q-45.35 -9.1 -45.3 -7.9 -45.25 -6.15 -46.4 -4.8 L-46.6 -4.55 -47.45 -4.0 Q-48.4 -3.5 -49.7 -3.5 -51.75 -3.55 -53.5 -4.85 -55.15 -6.15 -55.2 -8.35 -55.25 -9.85 -54.5 -11.0 L-53.9 -11.8 -53.7 -12.05 Q-52.75 -13.05 -51.45 -13.4 L-49.75 -13.65 -47.6 -13.25 Q-46.5 -12.85 -45.65 -11.95 L-44.85 -11.0 Q-44.0 -9.7 -44.0 -8.0 L-44.05 -7.05 Q-44.25 -5.3 -45.5 -3.85 L-45.7 -3.65 -46.45 -3.0 Q-47.85 -2.15 -49.8 -2.2 -52.55 -2.3 -54.5 -4.0 -56.45 -5.75 -56.45 -8.5 -56.45 -10.4 -55.5 -11.9 L-55.45 -11.95 -55.3 -12.15 -54.85 -12.75 -54.65 -12.95 -53.85 -13.6 -53.05 -14.1 Q-51.65 -14.95 -49.9 -15.0 L-49.65 -15.0 Q-47.95 -15.0 -46.55 -14.3 -45.55 -13.8 -44.7 -12.95 L-43.9 -12.0 Q-42.8 -10.4 -42.65 -8.4 L-42.65 -7.95 Q-42.65 -5.95 -43.6 -4.3 L-44.7 -2.95 -45.6 -2.15 Q-47.35 -0.9 -49.65 -0.9 -52.6 -0.9 -54.65 -2.95 -55.3 -3.65 -55.75 -4.45 L-54.9 -3.5 Q-52.8 -1.65 -49.8 -1.55 -47.55 -1.45 -46.0 -2.55 L-45.25 -3.2 -45.05 -3.4 Q-43.4 -5.3 -43.35 -7.75 L-43.35 -8.0 Q-43.4 -9.95 -44.4 -11.45 L-45.2 -12.4 -47.1 -13.75 Q-48.3 -14.3 -49.75 -14.3 L-50.65 -14.25 Q-52.75 -14.0 -54.15 -12.5 L-54.35 -12.25 -54.95 -11.45 Q-55.85 -10.1 -55.8 -8.35 L-55.8 -8.3 Q-55.8 -5.85 -53.85 -4.35 -51.95 -2.9 -49.7 -2.9 -48.15 -2.85 -46.95 -3.5 L-46.15 -4.1 -45.95 -4.35 Q-45.2 -5.2 -44.85 -6.2 L-44.65 -7.95 Q-44.7 -9.35 -45.4 -10.5 L-46.15 -11.45 Q-47.05 -12.4 -48.1 -12.75 L-49.5 -13.0 -49.55 -13.0 Q-51.6 -13.05 -53.1 -11.65 L-53.4 -11.35 -54.05 -10.55 Q-54.65 -9.55 -54.55 -8.3 -54.45 -6.35 -52.95 -5.1 -51.55 -3.9 -49.6 -4.05 -48.7 -4.1 -47.9 -4.45 L-47.1 -5.05 -46.9 -5.25 Q-45.7 -6.35 -46.0 -8.25 L-46.35 -9.55 -47.2 -10.8 Q-48.05 -11.6 -49.1 -11.75 L-49.7 -11.85 Q-51.25 -11.85 -52.3 -10.85 L-52.6 -10.5 -53.1 -9.6 -53.3 -8.45 Q-53.3 -6.95 -52.25 -6.05 -51.15 -5.15 -49.75 -5.2 L-49.7 -5.2 -48.85 -5.4 -48.0 -5.95 Q-47.2 -6.65 -47.25 -7.9 L-47.3 -8.55 Q-47.65 -10.25 -49.45 -10.5 L-49.5 -10.5 -50.5 -10.4 -51.3 -10.0 -51.65 -9.6 -51.85 -8.5 -51.85 -8.35 Q-51.75 -6.7 -49.95 -6.5 L-49.7 -6.5 -49.6 -6.5 -48.9 -6.85 -48.55 -7.35 -48.45 -7.95 Q-48.5 -9.0 -49.45 -9.15 -49.95 -9.25 -50.25 -8.95" fill="#9b811f" fill-rule="evenodd" stroke="none"/>
  </g>
</svg>
