<?xml version="1.0" encoding="UTF-8" standalone="no"?>
<svg xmlns:ffdec="https://www.free-decompiler.com/flash" xmlns:xlink="http://www.w3.org/1999/xlink" ffdec:objectType="shape" height="27.0px" width="85.05px" xmlns="http://www.w3.org/2000/svg">
  <g transform="matrix(1.0, 0.0, 0.0, 1.0, 0.7, 1.0)">
    <path d="M-0.15 26.0 L-0.7 25.3 0.9 6.65 Q1.85 -1.1 10.65 -1.0 L73.05 -1.0 Q79.1 -1.05 81.85 1.8 84.7 4.6 84.3 10.25 L84.3 10.35 84.3 26.0 83.3 26.0 83.3 25.0 83.3 10.25 Q84.1 -0.1 73.05 0.0 L10.65 0.0 Q2.8 -0.1 1.9 6.75 L-0.05 25.0 -0.15 26.0" fill="#585858" fill-rule="evenodd" stroke="none"/>
    <path d="M-0.15 26.0 L-0.05 25.0 2.95 25.0 2.85 26.0 -0.15 26.0 M83.3 25.0 L83.3 26.0 80.3 26.0 80.3 25.0 83.3 25.0" fill="#c78c11" fill-rule="evenodd" stroke="none"/>
    <path d="M-0.05 25.0 L1.9 6.75 Q2.8 -0.1 10.65 0.0 L73.05 0.0 Q84.1 -0.1 83.3 10.25 L83.3 25.0 80.3 25.0 80.3 9.95 Q80.3 3.4 73.4 3.0 L11.45 3.0 Q5.15 3.0 4.65 9.75 L2.95 25.0 -0.05 25.0" fill="#d4a713" fill-rule="evenodd" stroke="none"/>
    <path d="M80.3 26.0 L79.3 26.0 79.3 25.0 80.3 25.0 80.3 26.0 M3.85 26.0 L2.85 26.0 2.95 25.0 3.95 25.0 5.65 9.85 Q6.05 4.0 11.45 4.0 L73.35 4.0 Q79.3 4.35 79.3 9.95 L79.3 25.0 3.95 25.0 3.85 26.0" fill="#f8e70f" fill-rule="evenodd" stroke="none"/>
    <path d="M79.3 26.0 L3.85 26.0 3.95 25.0 79.3 25.0 79.3 26.0" fill="#dfb70f" fill-rule="evenodd" stroke="none"/>
    <path d="M80.3 25.0 L79.3 25.0 79.3 9.95 Q79.3 4.35 73.35 4.0 L11.45 4.0 Q6.05 4.0 5.65 9.85 L3.95 25.0 2.95 25.0 4.65 9.75 Q5.15 3.0 11.45 3.0 L73.4 3.0 Q80.3 3.4 80.3 9.95 L80.3 25.0" fill="#fff675" fill-rule="evenodd" stroke="none"/>
  </g>
</svg>
