<?xml version="1.0" encoding="UTF-8" standalone="no"?>
<svg xmlns:ffdec="https://www.free-decompiler.com/flash" xmlns:xlink="http://www.w3.org/1999/xlink" ffdec:objectType="shape" height="27.0px" width="105.0px" xmlns="http://www.w3.org/2000/svg">
  <g transform="matrix(1.0, 0.0, 0.0, 1.0, 1.0, 1.0)">
    <path d="M0.05 26.0 L-0.95 26.0 -0.95 10.35 -0.95 10.25 Q-1.35 4.6 1.5 1.8 4.25 -1.05 10.3 -1.0 L92.7 -1.0 Q98.75 -1.05 101.5 1.8 104.35 4.6 103.95 10.25 L103.95 26.0 102.95 26.0 102.95 10.25 Q103.75 -0.1 92.7 0.0 L10.3 0.0 Q-0.75 -0.1 0.05 10.25 L0.05 26.0" fill="#585858" fill-rule="evenodd" stroke="none"/>
    <path d="M0.05 26.0 L0.05 10.25 Q-0.75 -0.1 10.3 0.0 L92.7 0.0 Q103.75 -0.1 102.95 10.25 L102.95 26.0 0.05 26.0" fill="#ffffff" fill-rule="evenodd" stroke="none"/>
  </g>
</svg>
