<?xml version="1.0" encoding="UTF-8" standalone="no"?>
<svg xmlns:ffdec="https://www.free-decompiler.com/flash" xmlns:xlink="http://www.w3.org/1999/xlink" ffdec:objectType="shape" height="35.25px" width="44.8px" xmlns="http://www.w3.org/2000/svg">
  <g transform="matrix(1.0, 0.0, 0.0, 1.0, 21.7, 5.4)">
    <path d="M-7.15 12.9 L-6.8 14.45 Q-5.9 14.85 -5.15 15.4 L-6.55 15.6 -6.45 16.05 Q-6.25 16.65 -6.2 17.3 -6.05 18.5 -6.35 19.75 L-6.65 20.55 -6.65 20.6 -5.2 23.75 Q-3.45 26.6 -0.65 28.05 3.75 28.45 6.55 26.3 9.55 24.05 9.55 19.75 9.25 17.5 8.2 15.35 6.15 11.05 2.5 11.05 L1.4 11.4 Q0.3 11.8 -0.35 12.35 -0.75 13.45 -0.75 14.7 -0.8 17.7 0.9 21.25 L1.35 22.45 0.9 22.45 -0.25 20.9 Q-1.05 19.55 -1.25 19.55 L-2.6 19.65 -3.45 19.5 -2.5 19.0 Q-1.7 18.5 -1.7 17.9 -2.7 14.55 -2.6 13.2 -2.4 11.05 3.15 8.7 8.6 7.35 9.7 6.35 12.0 4.3 14.35 3.35 13.05 -0.1 9.6 -2.55 L5.4 -5.3 Q9.85 -4.3 12.5 -1.65 13.75 -0.45 14.8 1.6 15.4 2.65 16.75 3.05 18.4 3.5 19.0 4.1 20.4 5.4 21.65 7.4 23.1 9.8 23.1 11.45 23.1 14.25 21.95 15.9 L20.3 17.45 Q19.5 18.25 18.0 21.35 16.4 24.05 14.2 24.05 L10.45 23.2 Q9.55 25.55 7.05 27.55 4.15 29.85 0.9 29.85 -4.55 29.85 -7.55 22.45 -9.55 25.65 -13.4 26.6 -18.35 27.85 -20.3 25.25 -22.25 22.7 -21.5 20.7 -20.75 18.75 -20.05 14.85 -19.75 13.25 -19.6 11.1 L-19.55 10.4 Q-19.9 7.8 -18.05 5.9 -15.75 3.5 -12.65 2.05 L-10.35 1.25 -9.15 0.55 0.1 -5.3 -7.6 0.7 -10.95 2.8 -11.8 3.15 -12.0 3.25 -13.8 3.9 Q-17.6 5.45 -18.15 9.55 L-18.2 10.55 -18.35 12.45 Q-18.45 13.6 -18.9 15.85 L-19.45 18.25 Q-21.3 22.9 -19.15 24.55 -16.4 26.6 -12.4 24.7 -10.9 24.0 -9.9 22.95 -8.85 21.9 -8.35 20.45 -8.0 19.55 -7.9 18.5 L-8.1 16.05 -8.5 13.7 -8.85 12.2 -9.05 11.5 -9.45 10.2 -9.65 9.65 -9.2 9.85 -8.45 10.15 -7.7 10.55 -7.15 12.9 M20.9 13.85 Q21.8 12.3 21.6 11.2 21.45 9.3 20.0 7.55 L18.6 6.1 Q18.6 5.8 17.7 5.4 16.3 4.85 13.4 4.85 12.35 4.85 11.5 7.55 13.0 7.6 15.65 10.2 18.65 13.1 18.65 15.7 18.6 16.4 19.6 15.7 L20.9 13.85 M6.35 8.8 L5.65 9.45 Q6.2 10.9 9.35 15.5 12.0 19.85 10.85 21.75 L11.6 22.0 13.1 22.25 Q15.2 22.25 16.35 20.85 17.2 19.85 17.2 18.8 17.2 12.0 12.4 9.6 10.85 8.85 9.0 8.65 L7.25 8.55 6.35 8.8" fill="#a46637" fill-rule="evenodd" stroke="none"/>
    <path d="M-7.15 12.9 L-3.15 13.35 Q-3.3 12.0 -1.45 9.75 0.5 7.35 2.45 7.35 L2.85 6.3 3.55 4.7 Q5.15 5.65 5.55 6.15 L5.15 6.5 Q6.5 5.75 7.2 4.2 7.85 2.8 7.85 1.05 7.85 -0.95 7.1 -1.8 6.3 -2.75 3.55 -3.5 L2.2 -0.3 -1.6 -2.35 -6.45 1.05 -11.15 4.3 -11.2 4.35 -8.7 9.7 -8.65 9.8 -8.45 10.15 -9.2 9.85 -9.65 9.65 -9.45 10.2 -9.05 11.5 -8.85 12.2 -8.5 13.7 -8.1 16.05 -7.9 18.5 -8.9 14.75 -9.35 13.4 -10.1 11.6 -10.55 10.5 -10.95 9.75 -11.0 9.65 -11.15 9.15 -15.85 8.9 -16.15 8.95 -16.0 9.65 -16.0 9.7 Q-15.7 13.0 -16.75 16.1 L-18.1 20.55 -18.65 22.65 -19.15 24.55 Q-21.3 22.9 -19.45 18.25 L-18.9 15.85 Q-18.45 13.6 -18.35 12.45 L-18.2 10.55 -18.15 9.55 Q-17.6 5.45 -13.8 3.9 L-12.0 3.25 -11.8 3.15 -10.95 2.8 -7.6 0.7 0.1 -5.3 5.4 -5.3 9.6 -2.55 Q13.05 -0.1 14.35 3.35 12.0 4.3 9.7 6.35 8.6 7.35 3.15 8.7 -2.4 11.05 -2.6 13.2 -2.7 14.55 -1.7 17.9 -1.7 18.5 -2.5 19.0 L-3.45 19.5 -2.6 19.65 -1.25 19.55 Q-1.05 19.55 -0.25 20.9 L0.9 22.45 1.35 22.45 0.9 21.25 Q1.4 21.75 1.95 22.95 L2.4 24.2 2.35 24.85 2.15 24.85 -5.0 19.6 Q-5.0 19.0 -4.65 18.35 L-4.25 17.55 -5.8 16.85 -6.2 17.3 Q-6.25 16.65 -6.45 16.05 L-6.55 15.6 -5.15 15.4 Q-5.9 14.85 -6.8 14.45 L-7.15 12.9 M-6.35 19.75 L-5.2 23.75 -6.65 20.6 -6.65 20.55 -6.35 19.75 M-0.65 28.05 L1.2 27.8 4.25 26.85 Q5.4 26.3 6.35 24.5 7.15 23.05 7.15 22.35 7.15 18.3 4.3 15.15 1.8 12.45 -0.35 12.35 0.3 11.8 1.4 11.4 L2.5 11.05 Q6.15 11.05 8.2 15.35 9.25 17.5 9.55 19.75 9.55 24.05 6.55 26.3 3.75 28.45 -0.65 28.05 M20.9 13.85 L19.6 15.7 Q18.6 16.4 18.65 15.7 18.65 13.1 15.65 10.2 13.0 7.6 11.5 7.55 12.35 4.85 13.4 4.85 16.3 4.85 17.7 5.4 18.6 5.8 18.6 6.1 L20.0 7.55 Q21.45 9.3 21.6 11.2 21.8 12.3 20.9 13.85 M18.65 7.75 Q17.0 6.75 15.3 8.0 L19.2 12.85 Q20.35 12.2 20.45 11.3 20.25 8.75 18.65 7.75 M13.85 12.25 Q12.9 10.75 12.1 10.75 11.8 10.75 10.6 11.3 9.25 11.85 8.3 12.45 10.0 15.05 10.8 16.9 11.75 19.15 12.95 21.2 13.9 21.05 14.6 20.35 15.3 19.6 15.3 18.55 15.3 14.45 13.85 12.25 M6.35 8.8 L7.25 8.55 9.0 8.65 Q10.85 8.85 12.4 9.6 17.2 12.0 17.2 18.8 17.2 19.85 16.35 20.85 15.2 22.25 13.1 22.25 L11.6 22.0 10.85 21.75 Q12.0 19.85 9.35 15.5 6.2 10.9 5.65 9.45 L6.35 8.8" fill="#e7a867" fill-rule="evenodd" stroke="none"/>
    <path d="M-8.7 9.7 L-11.2 4.35 -11.15 4.3 -6.45 1.05 -1.6 -2.35 2.2 -0.3 3.55 -3.5 Q6.3 -2.75 7.1 -1.8 7.85 -0.95 7.85 1.05 7.85 2.8 7.2 4.2 6.5 5.75 5.15 6.5 L5.55 6.15 Q5.15 5.65 3.55 4.7 L2.85 6.3 2.45 7.35 Q0.5 7.35 -1.45 9.75 -3.3 12.0 -3.15 13.35 L-7.15 12.9 -7.7 10.55 -8.45 10.15 -8.65 9.8 Q-5.25 11.2 -4.2 11.2 L-0.15 7.55 Q1.9 5.7 -1.55 0.4 -3.45 0.4 -7.0 2.75 L-7.6 3.7 -8.0 4.6 -8.7 9.7 M-6.2 17.3 L-5.8 16.85 -4.25 17.55 -4.65 18.35 Q-5.0 19.0 -5.0 19.6 L2.15 24.85 2.35 24.85 2.4 24.2 1.95 22.95 Q1.4 21.75 0.9 21.25 -0.8 17.7 -0.75 14.7 -0.75 13.45 -0.35 12.35 1.8 12.45 4.3 15.15 7.15 18.3 7.15 22.35 7.15 23.05 6.35 24.5 5.4 26.3 4.25 26.85 L1.2 27.8 -0.65 28.05 Q-3.45 26.6 -5.2 23.75 L-6.35 19.75 Q-6.05 18.5 -6.2 17.3 M-19.15 24.55 L-18.65 22.65 -18.1 20.55 -16.75 16.1 Q-15.7 13.0 -16.0 9.7 L-16.0 9.65 -16.15 8.95 -15.85 8.9 -11.15 9.15 -11.0 9.65 -10.95 9.75 -10.55 10.5 -10.1 11.6 -9.35 13.4 -8.9 14.75 -7.9 18.5 Q-8.0 19.55 -8.35 20.45 -8.85 21.9 -9.9 22.95 -10.9 24.0 -12.4 24.7 -16.4 26.6 -19.15 24.55 M-14.25 10.15 L-14.5 12.8 -15.0 19.55 -15.1 20.4 -15.35 22.5 -15.4 23.15 -15.3 24.4 -15.25 24.7 -12.7 24.15 Q-10.4 23.1 -9.5 20.0 L-9.35 19.4 -9.2 18.3 Q-9.15 17.3 -9.4 16.35 -9.65 15.25 -10.3 14.15 L-11.35 12.6 -12.05 11.85 -13.85 10.35 -14.25 10.15 M0.25 25.35 Q-0.8 22.05 -3.25 23.5 L-2.0 25.0 Q-0.95 26.0 -0.2 26.05 L0.1 26.0 0.25 25.35 M13.85 12.25 Q15.3 14.45 15.3 18.55 15.3 19.6 14.6 20.35 13.9 21.05 12.95 21.2 11.75 19.15 10.8 16.9 10.0 15.05 8.3 12.45 9.25 11.85 10.6 11.3 11.8 10.75 12.1 10.75 12.9 10.75 13.85 12.25 M18.65 7.75 Q20.25 8.75 20.45 11.3 20.35 12.2 19.2 12.85 L15.3 8.0 Q17.0 6.75 18.65 7.75 M1.65 14.8 Q1.15 15.05 1.15 15.75 1.15 16.5 2.1 19.25 3.1 22.2 4.15 24.25 L5.3 24.1 Q5.8 23.8 5.8 22.35 5.8 20.5 4.65 17.85 3.55 15.25 2.4 14.4 L1.65 14.8" fill="#f4bb83" fill-rule="evenodd" stroke="none"/>
    <path d="M-8.65 9.8 L-8.7 9.7 -8.0 4.6 -7.6 3.7 -7.0 2.75 Q-3.45 0.4 -1.55 0.4 1.9 5.7 -0.15 7.55 L-4.2 11.2 Q-5.25 11.2 -8.65 9.8 M-14.25 10.15 L-13.85 10.35 -12.05 11.85 -11.35 12.6 -10.3 14.15 Q-9.65 15.25 -9.4 16.35 -9.15 17.3 -9.2 18.3 L-9.35 19.4 -9.5 20.0 Q-10.4 23.1 -12.7 24.15 L-15.25 24.7 -15.3 24.4 -15.4 23.15 -15.35 22.5 -15.1 20.4 -15.0 19.55 -14.5 12.8 -14.25 10.15 M0.25 25.35 L0.1 26.0 -0.2 26.05 Q-0.95 26.0 -2.0 25.0 L-3.25 23.5 Q-0.8 22.05 0.25 25.35 M1.65 14.8 L2.4 14.4 Q3.55 15.25 4.65 17.85 5.8 20.5 5.8 22.35 5.8 23.8 5.3 24.1 L4.15 24.25 Q3.1 22.2 2.1 19.25 1.15 16.5 1.15 15.75 1.15 15.05 1.65 14.8" fill="#f5c89d" fill-rule="evenodd" stroke="none"/>
    <path d="M-7.15 12.9 L-4.1 13.45 Q-3.7 13.45 -2.4 11.65 -0.75 9.25 1.55 7.5 L2.95 6.15 3.55 4.7 4.85 5.55 5.45 6.25 Q7.85 4.1 7.85 1.05 7.85 -0.7 7.35 -1.45 6.5 -2.75 3.55 -3.5 L2.15 0.0 2.2 -0.3 -1.6 -2.35 -6.3 1.15 Q-10.2 4.0 -11.2 4.35 L-8.7 9.7 -8.65 9.8 -8.45 10.15 -9.65 9.65 -8.75 12.4 Q-8.3 14.15 -7.9 18.5 L-8.2 17.4 Q-8.45 14.2 -9.95 11.85 -10.0 10.95 -10.45 10.25 -11.25 8.8 -13.5 8.8 L-16.15 8.95 -15.95 9.95 -18.2 10.45 Q-17.95 8.55 -16.35 6.5 -14.55 4.2 -12.0 3.25 -8.15 1.8 -5.95 -0.05 L0.1 -5.3 5.4 -5.3 Q7.7 -4.15 10.7 -1.55 14.4 1.65 14.35 3.35 10.95 5.55 2.65 8.95 1.4 9.45 0.45 10.0 L-0.75 10.0 -0.8 10.75 Q-2.6 12.0 -2.6 13.2 L-2.15 15.55 -1.7 17.9 Q-1.7 18.55 -2.2 18.9 L-3.45 19.5 -2.0 19.65 Q-1.1 19.7 -0.9 19.9 L-0.15 20.95 1.1 22.45 2.4 24.45 2.35 24.85 Q-1.5 23.05 -5.0 19.6 L-4.75 18.5 -4.25 17.55 -5.05 17.25 -6.2 17.3 -6.55 15.6 -5.15 15.4 -6.3 14.55 Q-6.9 13.9 -7.15 12.9 M4.95 26.4 L6.15 26.6 2.25 27.6 Q3.75 27.15 4.95 26.4 M-5.2 23.75 L-6.65 20.55 -6.35 19.75 -5.2 23.75" fill="#1e1e1e" fill-rule="evenodd" stroke="none"/>
    <path d="M-8.7 9.7 L-11.2 4.35 Q-10.2 4.0 -6.3 1.15 L-1.6 -2.35 2.2 -0.3 2.15 0.0 3.55 -3.5 Q6.5 -2.75 7.35 -1.45 7.85 -0.7 7.85 1.05 7.85 4.1 5.45 6.25 L4.85 5.55 3.55 4.7 2.95 6.15 1.55 7.5 Q-0.75 9.25 -2.4 11.65 -3.7 13.45 -4.1 13.45 L-7.15 12.9 Q-7.7 10.55 -8.45 10.15 L-8.65 9.8 -5.45 11.0 -4.2 11.2 0.2 6.8 Q0.7 6.4 0.7 5.7 0.7 5.05 -0.1 2.85 -1.0 0.4 -1.55 0.4 -4.6 0.4 -6.8 3.25 -8.95 6.1 -8.7 9.7 M-6.2 17.3 L-5.05 17.25 -4.25 17.55 -4.75 18.5 -5.0 19.6 Q-1.5 23.05 2.35 24.85 L2.4 24.45 Q4.0 26.25 4.95 26.4 3.75 27.15 2.25 27.6 L-0.65 28.05 -3.0 25.9 -5.2 23.75 -6.35 19.75 Q-6.2 19.0 -6.2 18.1 L-6.2 17.3 M-15.95 9.95 L-16.15 8.95 -13.5 8.8 Q-11.25 8.8 -10.45 10.25 -10.0 10.95 -9.95 11.85 L-10.0 11.85 Q-10.85 11.05 -12.15 10.5 -14.05 9.65 -15.95 9.95 M-8.2 17.4 L-7.9 18.5 -8.05 19.55 -8.2 17.4 M-3.25 23.5 L-2.7 24.25 Q-1.5 25.6 -0.1 26.05 L0.2 26.0 Q0.0 25.25 -0.65 24.35 -1.35 23.45 -2.05 23.1 L-3.25 23.5" fill="#272727" fill-rule="evenodd" stroke="none"/>
    <path d="M-8.45 10.15 Q-7.7 10.55 -7.15 12.9 -6.9 13.9 -6.3 14.55 L-5.15 15.4 -6.55 15.6 -6.2 17.3 -6.2 18.1 Q-6.2 19.0 -6.35 19.75 L-6.65 20.55 -5.2 23.75 -3.0 25.9 -0.65 28.05 2.25 27.6 6.15 26.6 6.95 26.75 Q7.7 27.0 7.5 27.2 6.3 28.1 4.15 29.0 L0.9 29.85 Q-1.3 29.85 -3.25 28.65 -6.3 26.75 -7.55 22.45 L-7.95 23.05 -8.05 19.55 -7.9 18.5 Q-8.3 14.15 -8.75 12.4 L-9.65 9.65 -8.45 10.15 M1.1 22.45 L-0.15 20.95 -0.9 19.9 Q-1.1 19.7 -2.0 19.65 L-3.45 19.5 -2.2 18.9 Q-1.7 18.55 -1.7 17.9 L-2.15 15.55 -2.6 13.2 Q-2.6 12.0 -0.8 10.75 L-1.0 14.25 -0.25 17.8 Q0.6 21.4 1.1 22.45 M0.45 10.0 Q1.4 9.45 2.65 8.95 10.95 5.55 14.35 3.35 14.4 1.65 10.7 -1.55 7.7 -4.15 5.4 -5.3 10.45 -4.35 13.4 -0.95 14.9 0.8 16.1 2.8 L7.2 8.55 6.05 9.15 4.8 9.6 0.45 10.0 M0.1 -5.3 L-5.95 -0.05 Q-8.15 1.8 -12.0 3.25 -14.55 4.2 -16.35 6.5 -17.95 8.55 -18.2 10.45 L-18.75 10.65 -19.6 11.3 Q-20.0 9.85 -19.0 7.65 -17.6 4.55 -14.1 2.9 L-7.85 -0.45 Q-2.95 -3.25 0.1 -5.3" fill="#0d0d0d" fill-rule="evenodd" stroke="none"/>
    <path d="M-8.7 9.7 Q-8.95 6.1 -6.8 3.25 -4.6 0.4 -1.55 0.4 -1.0 0.4 -0.1 2.85 0.7 5.05 0.7 5.7 0.7 6.4 0.2 6.8 L-4.2 11.2 -5.45 11.0 -8.65 9.8 -8.7 9.7 M-3.25 23.5 L-2.05 23.1 Q-1.35 23.45 -0.65 24.35 0.0 25.25 0.2 26.0 L-0.1 26.05 Q-1.5 25.6 -2.7 24.25 L-3.25 23.5" fill="#3e3e3e" fill-rule="evenodd" stroke="none"/>
    <path d="M-0.8 10.75 L-0.75 10.0 0.45 10.0 4.8 9.6 6.05 9.15 5.65 9.45 8.85 14.5 Q11.25 18.4 11.25 20.35 L11.15 21.25 10.85 21.75 13.1 22.25 Q15.2 22.25 16.35 20.85 17.2 19.85 17.2 18.8 17.2 13.8 14.55 11.05 11.9 8.35 7.2 8.55 L16.1 2.8 Q17.95 3.5 20.3 6.0 23.1 9.0 23.1 11.45 23.1 14.55 21.85 16.1 L19.35 18.85 16.45 23.25 Q15.65 24.05 14.1 24.05 L12.65 23.85 10.45 23.2 9.0 25.25 7.5 27.2 Q7.7 27.0 6.95 26.75 L6.15 26.6 Q7.7 26.05 8.7 24.0 9.55 22.2 9.55 20.3 9.55 15.4 6.5 12.8 4.45 11.05 2.5 11.05 1.7 11.05 -0.35 12.35 L-0.55 13.15 -0.75 14.7 -0.15 17.5 0.9 21.25 1.35 22.45 1.1 22.45 Q0.6 21.4 -0.25 17.8 L-1.0 14.25 -0.8 10.75 M-7.95 23.05 Q-9.2 25.05 -12.75 26.25 L-16.15 27.05 Q-18.25 27.05 -19.75 25.9 -21.65 24.45 -21.65 21.75 L-20.6 18.4 Q-19.55 15.55 -19.6 11.3 L-18.75 10.65 -18.2 10.45 Q-18.25 11.55 -19.25 16.4 -20.25 21.15 -20.25 22.2 L-19.85 23.2 -19.15 24.55 -17.3 25.3 -16.05 25.65 Q-13.55 25.65 -11.1 23.6 -8.95 21.75 -8.05 19.55 L-7.95 23.05 M14.5 9.55 L17.0 11.65 Q17.65 12.6 18.0 14.05 18.35 15.4 18.9 16.05 20.75 14.5 21.65 11.8 21.65 8.1 18.7 6.25 16.45 4.85 13.4 4.85 11.5 5.35 11.5 7.55 12.2 7.8 14.5 9.55" fill="#a46637" fill-rule="evenodd" stroke="none"/>
    <path d="M2.4 24.45 L1.1 22.45 1.35 22.45 0.9 21.25 Q2.4 23.35 2.4 24.45 M-18.2 10.45 L-15.95 9.95 Q-15.9 11.95 -19.15 24.55 L-19.85 23.2 -20.25 22.2 Q-20.25 21.15 -19.25 16.4 -18.25 11.55 -18.2 10.45 M-9.95 11.85 Q-8.45 14.2 -8.2 17.4 -9.1 14.0 -10.0 11.85 L-9.95 11.85 M14.5 9.55 Q12.2 7.8 11.5 7.55 11.5 5.35 13.4 4.85 16.45 4.85 18.7 6.25 21.65 8.1 21.65 11.8 20.75 14.5 18.9 16.05 18.35 15.4 18.0 14.05 17.65 12.6 17.0 11.65 L14.5 9.55 M15.3 8.0 L16.55 9.4 19.2 12.85 20.45 11.3 Q20.45 9.55 19.35 8.35 18.25 7.2 17.0 7.35 16.2 7.55 15.3 8.0 M7.2 8.55 Q11.9 8.35 14.55 11.05 17.2 13.8 17.2 18.8 17.2 19.85 16.35 20.85 15.2 22.25 13.1 22.25 L10.85 21.75 11.15 21.25 11.25 20.35 Q11.25 18.4 8.85 14.5 L5.65 9.45 6.05 9.15 7.2 8.55 M4.95 26.4 L6.2 24.55 Q7.15 22.95 7.15 22.35 7.15 20.0 5.45 17.1 3.25 13.4 -0.35 12.35 1.7 11.05 2.5 11.05 4.45 11.05 6.5 12.8 9.55 15.4 9.55 20.3 9.55 22.2 8.7 24.0 7.7 26.05 6.15 26.6 L4.95 26.4 M14.9 19.7 L15.3 18.8 Q15.3 12.25 12.45 11.1 10.1 10.15 8.3 12.45 L10.25 15.75 12.95 21.2 Q14.2 20.6 14.9 19.7" fill="#e7a867" fill-rule="evenodd" stroke="none"/>
    <path d="M15.3 8.0 Q16.2 7.55 17.0 7.35 18.25 7.2 19.35 8.35 20.45 9.55 20.45 11.3 L19.2 12.85 16.55 9.4 15.3 8.0 M2.4 14.4 L1.3 15.2 Q1.25 16.3 2.1 19.25 2.25 20.1 3.15 22.15 4.1 24.25 4.35 24.25 L5.25 24.15 5.7 23.9 5.8 22.7 Q5.8 21.85 4.8 19.05 3.6 15.85 2.4 14.4 M2.4 24.45 Q2.4 23.35 0.9 21.25 L-0.15 17.5 -0.75 14.7 -0.55 13.15 -0.35 12.35 Q3.25 13.4 5.45 17.1 7.15 20.0 7.15 22.35 7.15 22.95 6.2 24.55 L4.95 26.4 Q4.0 26.25 2.4 24.45 M14.9 19.7 Q14.2 20.6 12.95 21.2 L10.25 15.75 8.3 12.45 Q10.1 10.15 12.45 11.1 15.3 12.25 15.3 18.8 L14.9 19.7 M-10.0 11.85 Q-9.1 14.0 -8.2 17.4 L-8.05 19.55 Q-8.95 21.75 -11.1 23.6 -13.55 25.65 -16.05 25.65 L-17.3 25.3 -19.15 24.55 Q-15.9 11.95 -15.95 9.95 -14.05 9.65 -12.15 10.5 -10.85 11.05 -10.0 11.85 M-14.25 10.15 L-14.5 10.15 Q-15.0 19.55 -15.4 23.15 L-15.25 24.7 Q-12.25 23.9 -10.95 22.65 -9.2 21.0 -9.2 17.8 -9.2 16.7 -10.65 14.3 -12.3 11.55 -14.25 10.15" fill="#f4bb83" fill-rule="evenodd" stroke="none"/>
    <path d="M2.4 14.4 Q3.6 15.85 4.8 19.05 5.8 21.85 5.8 22.7 L5.7 23.9 5.25 24.15 4.35 24.25 Q4.1 24.25 3.15 22.15 2.25 20.1 2.1 19.25 1.25 16.3 1.3 15.2 L2.4 14.4 M-14.25 10.15 Q-12.3 11.55 -10.65 14.3 -9.2 16.7 -9.2 17.8 -9.2 21.0 -10.95 22.65 -12.25 23.9 -15.25 24.7 L-15.4 23.15 Q-15.0 19.55 -14.5 10.15 L-14.25 10.15" fill="#f5c89d" fill-rule="evenodd" stroke="none"/>
  </g>
</svg>
