<?xml version="1.0" encoding="UTF-8" standalone="no"?>
<svg xmlns:ffdec="https://www.free-decompiler.com/flash" xmlns:xlink="http://www.w3.org/1999/xlink" ffdec:objectType="shape" height="25.5px" width="22.9px" xmlns="http://www.w3.org/2000/svg">
  <g transform="matrix(1.0, 0.0, 0.0, 1.0, 17.85, 105.3)">
    <path d="M0.55 -99.8 L0.55 -100.0 0.7 -100.05 0.85 -100.05 1.0 -99.85 0.95 -99.75 0.8 -99.6 0.65 -99.7 0.55 -99.8 M-11.2 -102.0 L-11.2 -102.05 -10.6 -102.6 Q-9.35 -103.55 -7.95 -104.0 L-7.75 -104.0 -7.25 -104.2 -4.15 -104.1 -3.55 -103.95 Q-2.25 -103.55 -0.95 -102.7 L-0.8 -102.55 -0.2 -102.15 1.9 -100.05 2.3 -99.4 3.45 -96.95 3.7 -96.15 3.85 -95.35 4.05 -93.65 4.05 -92.8 3.75 -90.45 3.5 -89.55 2.65 -87.5 2.2 -86.7 2.0 -86.4 0.8 -84.8 0.2 -84.15 Q-0.7 -83.25 -1.65 -82.65 L-2.4 -82.15 Q-3.55 -81.55 -4.85 -81.25 L-5.6 -81.0 -7.0 -80.9 -8.4 -80.85 -9.15 -80.9 Q-10.75 -80.95 -12.1 -81.45 L-12.75 -81.75 -13.6 -82.2 -14.15 -82.6 -14.5 -82.85 -15.25 -83.65 -15.65 -84.25 Q-16.5 -85.5 -16.75 -87.1 L-16.85 -87.9 -16.8 -89.85 -16.7 -90.6 -16.65 -91.35 -16.6 -91.5 -16.55 -91.7 -16.0 -93.7 -15.75 -94.6 -15.0 -96.55 -14.5 -97.4 -13.45 -99.35 -13.4 -99.4 -12.95 -100.1 -11.65 -101.6 -11.2 -102.0 M-4.85 -83.9 L-4.95 -83.8 -5.9 -83.05 Q-7.1 -82.1 -8.15 -81.75 L-8.9 -81.55 -9.8 -81.3 -9.05 -81.2 -8.3 -81.1 -5.7 -81.4 -4.8 -81.6 Q-4.05 -81.85 -3.25 -82.25 L-2.6 -82.6 -1.85 -83.1 Q-0.9 -83.7 -0.1 -84.5 L0.55 -85.15 1.65 -86.7 1.8 -86.85 2.25 -87.7 3.15 -89.6 3.45 -90.55 3.75 -92.75 3.75 -93.65 3.65 -94.7 3.4 -96.0 3.2 -96.85 Q2.75 -98.05 1.95 -99.1 L1.55 -99.8 -0.4 -101.7 -1.0 -102.2 -1.2 -102.35 -1.55 -102.6 -1.1 -102.1 -0.6 -101.3 Q-0.15 -100.3 0.2 -98.7 L0.3 -98.05 0.5 -97.6 0.7 -95.85 0.55 -94.5 0.35 -93.5 0.25 -93.05 0.05 -92.15 -0.15 -91.5 -0.65 -90.25 -0.8 -89.7 -1.4 -88.55 -1.7 -87.95 -2.4 -86.75 -2.6 -86.5 -2.95 -86.0 -3.8 -84.95 -4.85 -83.9 M0.8 -97.9 L0.8 -97.95 0.7 -98.1 0.7 -98.3 0.95 -98.45 1.1 -98.35 1.2 -98.3 1.25 -98.2 1.2 -98.0 1.05 -97.85 0.8 -97.9 M2.15 -97.6 L2.3 -97.4 2.25 -97.15 2.05 -97.0 1.8 -97.05 1.7 -97.25 1.8 -97.45 2.0 -97.65 2.15 -97.6 M-12.65 -99.8 L-13.15 -99.1 -13.15 -99.05 -14.25 -97.2 -14.65 -96.35 -15.35 -94.55 -15.65 -93.6 -16.05 -91.55 -16.2 -90.6 -16.3 -90.2 -16.25 -88.2 -16.2 -87.35 Q-16.05 -85.75 -15.3 -84.6 L-14.9 -83.95 Q-14.3 -83.15 -13.4 -82.6 -12.95 -82.3 -12.55 -82.15 L-11.8 -81.9 -8.95 -81.95 -8.35 -82.1 -8.0 -82.25 Q-6.95 -82.65 -5.95 -83.35 L-4.95 -84.2 -3.95 -85.25 -3.1 -86.4 -2.75 -86.9 -2.65 -87.05 -1.9 -88.25 -1.7 -88.65 -1.15 -89.9 -0.95 -90.3 -0.5 -91.55 -0.4 -92.05 -0.1 -93.45 0.05 -94.3 0.15 -95.65 0.15 -96.4 0.1 -97.25 -0.05 -98.5 Q-0.25 -99.9 -0.8 -100.9 L-1.3 -101.7 -2.9 -103.2 -3.6 -103.6 -4.25 -103.85 -7.2 -103.8 -7.7 -103.65 -7.9 -103.6 Q-9.25 -103.1 -10.4 -102.2 L-11.05 -101.65 -12.65 -99.8 M2.95 -91.8 L3.0 -92.0 3.15 -92.0 3.3 -92.0 3.4 -91.9 3.35 -91.75 3.25 -91.65 3.05 -91.7 2.95 -91.8 M3.05 -94.5 L3.0 -94.35 2.9 -94.25 2.7 -94.25 2.65 -94.4 2.65 -94.55 2.8 -94.65 3.0 -94.65 3.05 -94.5 M2.05 -90.3 L2.1 -90.5 2.2 -90.55 2.4 -90.55 2.5 -90.35 2.45 -90.25 2.35 -90.1 2.15 -90.15 2.05 -90.3 M1.85 -87.7 L1.75 -87.9 1.8 -88.0 2.0 -88.15 2.15 -88.1 2.3 -87.95 2.2 -87.8 2.2 -87.75 2.05 -87.7 1.85 -87.7 M-4.05 -82.4 L-4.1 -82.6 -3.85 -82.55 Q-3.8 -82.4 -4.05 -82.4 M-4.6 -83.3 L-4.45 -83.2 -4.35 -83.1 -4.35 -82.9 Q-4.4 -82.8 -4.55 -82.8 L-4.7 -82.85 -4.8 -83.0 -4.8 -83.2 -4.6 -83.3 M-1.0 -84.3 L-1.2 -84.45 -0.8 -84.55 -0.8 -84.3 -1.0 -84.3 M-5.5 -82.1 L-5.6 -81.95 -5.8 -82.0 -5.85 -82.15 -5.8 -82.2 -5.75 -82.3 -5.65 -82.4 -5.5 -82.35 -5.45 -82.2 -5.5 -82.1" fill="#6b5314" fill-rule="evenodd" stroke="none"/>
    <path d="M0.55 -99.8 L0.65 -99.7 0.8 -99.6 0.95 -99.75 1.0 -99.85 0.85 -100.05 0.7 -100.05 0.55 -100.0 0.55 -99.8 M0.3 -98.05 L0.2 -98.7 Q-0.15 -100.3 -0.6 -101.3 L-1.1 -102.1 -1.55 -102.6 -1.2 -102.35 -1.0 -102.2 -0.4 -101.7 1.55 -99.8 1.95 -99.1 Q2.75 -98.05 3.2 -96.85 L3.4 -96.0 3.65 -94.7 3.75 -93.65 3.75 -92.75 3.45 -90.55 3.15 -89.6 2.25 -87.7 1.8 -86.85 1.65 -86.7 0.55 -85.15 -0.1 -84.5 Q-0.9 -83.7 -1.85 -83.1 L-2.6 -82.6 -3.25 -82.25 Q-4.05 -81.85 -4.8 -81.6 L-5.7 -81.4 -8.3 -81.1 -9.05 -81.2 -9.8 -81.3 -8.9 -81.55 -8.15 -81.75 Q-7.1 -82.1 -5.9 -83.05 L-4.95 -83.8 -4.85 -83.9 -3.3 -83.95 -2.3 -84.25 Q-1.5 -84.6 -0.8 -85.2 L-0.1 -85.95 0.25 -86.45 0.8 -87.4 1.2 -88.4 1.6 -89.85 1.8 -90.95 1.85 -92.2 1.9 -92.45 1.85 -93.5 1.65 -95.15 1.4 -96.15 0.6 -97.7 0.3 -98.05 M2.15 -97.6 L2.0 -97.65 1.8 -97.45 1.7 -97.25 1.8 -97.05 2.05 -97.0 2.25 -97.15 2.3 -97.4 2.15 -97.6 M0.8 -97.9 L1.05 -97.85 1.2 -98.0 1.25 -98.2 1.2 -98.3 1.1 -98.35 0.95 -98.45 0.7 -98.3 0.7 -98.1 0.8 -97.95 0.8 -97.9 M1.25 -93.1 L1.1 -93.2 1.15 -93.35 1.3 -93.4 1.45 -93.4 1.5 -93.25 1.45 -93.1 1.35 -93.05 1.25 -93.1 M0.95 -95.75 L1.1 -95.85 1.3 -95.8 1.45 -95.65 1.4 -95.45 1.25 -95.35 1.05 -95.4 Q0.9 -95.45 0.9 -95.6 L0.95 -95.75 M3.05 -94.5 L3.0 -94.65 2.8 -94.65 2.65 -94.55 2.65 -94.4 2.7 -94.25 2.9 -94.25 3.0 -94.35 3.05 -94.5 M2.95 -91.8 L3.05 -91.7 3.25 -91.65 3.35 -91.75 3.4 -91.9 3.3 -92.0 3.15 -92.0 3.0 -92.0 2.95 -91.8 M0.95 -89.8 L0.85 -89.95 0.8 -90.0 0.9 -90.25 1.05 -90.35 1.35 -90.35 1.45 -90.15 1.45 -89.9 1.25 -89.75 0.95 -89.8 M0.55 -92.2 L0.6 -92.4 0.75 -92.5 0.95 -92.5 1.0 -92.35 1.0 -92.3 1.0 -92.15 0.8 -92.0 0.6 -92.0 0.55 -92.15 0.55 -92.2 M2.05 -90.3 L2.15 -90.15 2.35 -90.1 2.45 -90.25 2.5 -90.35 2.4 -90.55 2.2 -90.55 2.1 -90.5 2.05 -90.3 M-0.45 -87.1 L-0.2 -87.2 -0.05 -87.15 0.1 -86.95 0.0 -86.8 -0.1 -86.65 -0.35 -86.7 -0.45 -86.9 -0.45 -87.1 M1.85 -87.7 L2.05 -87.7 2.2 -87.75 2.2 -87.8 2.3 -87.95 2.15 -88.1 2.0 -88.15 1.8 -88.0 1.75 -87.9 1.85 -87.7 M-0.4 -88.55 L-0.2 -88.55 -0.05 -88.35 -0.15 -88.15 -0.35 -88.0 -0.35 -88.05 -0.55 -88.05 -0.65 -88.15 -0.65 -88.25 -0.6 -88.45 -0.4 -88.55 M-2.6 -85.45 L-2.65 -85.65 -2.6 -85.75 -2.45 -85.85 -2.3 -85.85 -2.25 -85.65 -2.25 -85.55 -2.4 -85.4 -2.6 -85.45 M-1.0 -84.3 L-0.8 -84.3 -0.8 -84.55 -1.2 -84.45 -1.0 -84.3 M-4.6 -83.3 L-4.8 -83.2 -4.8 -83.0 -4.7 -82.85 -4.55 -82.8 Q-4.4 -82.8 -4.35 -82.9 L-4.35 -83.1 -4.45 -83.2 -4.6 -83.3 M-4.05 -82.4 Q-3.8 -82.4 -3.85 -82.55 L-4.1 -82.6 -4.05 -82.4 M-5.5 -82.1 L-5.45 -82.2 -5.5 -82.35 -5.65 -82.4 -5.75 -82.3 -5.8 -82.2 -5.85 -82.15 -5.8 -82.0 -5.6 -81.95 -5.5 -82.1" fill="#8a6b1a" fill-rule="evenodd" stroke="none"/>
    <path d="M-14.15 -82.6 L-13.6 -82.2 -12.75 -81.75 -12.1 -81.45 Q-10.75 -80.95 -9.15 -80.9 L-8.4 -80.85 -7.0 -80.9 -5.6 -81.0 -4.85 -81.25 Q-3.55 -81.55 -2.4 -82.15 L-1.65 -82.65 Q-0.7 -83.25 0.2 -84.15 L0.8 -84.8 2.0 -86.4 2.2 -86.7 2.65 -87.5 3.5 -89.55 3.75 -90.45 4.05 -92.8 4.05 -93.65 3.85 -95.35 3.7 -96.15 3.45 -96.95 2.3 -99.4 1.9 -100.05 -0.2 -102.15 -0.8 -102.55 -0.95 -102.7 Q-2.25 -103.55 -3.55 -103.95 L-4.15 -104.1 -7.25 -104.2 -7.75 -104.0 -7.95 -104.0 Q-9.35 -103.55 -10.6 -102.6 L-11.2 -102.05 -11.2 -102.0 -11.1 -103.2 -11.1 -103.45 -11.05 -103.5 Q-9.65 -104.6 -8.0 -105.0 L-7.4 -105.15 -3.9 -105.05 -3.35 -104.9 Q-1.95 -104.45 -0.4 -103.5 L-0.25 -103.4 0.25 -103.0 Q1.65 -102.0 2.65 -100.7 L3.05 -100.15 4.4 -97.3 4.6 -96.6 4.8 -95.5 5.05 -93.7 5.05 -92.9 4.75 -90.15 4.5 -89.45 3.5 -86.9 3.1 -86.25 2.85 -85.9 1.45 -84.05 0.95 -83.45 Q-0.1 -82.4 -1.25 -81.65 L-1.95 -81.3 Q-3.3 -80.55 -4.75 -80.2 L-5.45 -80.05 -6.9 -79.9 -8.65 -79.8 -9.3 -79.9 Q-11.15 -80.0 -12.65 -80.6 L-13.2 -80.85 -14.15 -81.4 -14.75 -81.8 -14.3 -81.5 -14.15 -82.6" fill="#ffffff" fill-rule="evenodd" stroke="none"/>
    <path d="M0.3 -98.05 L0.6 -97.7 1.4 -96.15 1.65 -95.15 1.85 -93.5 1.9 -92.45 1.85 -92.2 1.8 -90.95 1.6 -89.85 1.2 -88.4 0.8 -87.4 0.25 -86.45 -0.1 -85.95 -0.8 -85.2 Q-1.5 -84.6 -2.3 -84.25 L-3.3 -83.95 -4.85 -83.9 -3.8 -84.95 -2.95 -86.0 -2.6 -86.5 -2.4 -86.75 -1.7 -87.95 -1.4 -88.55 -0.8 -89.7 -0.65 -90.25 -0.15 -91.5 0.05 -92.15 0.25 -93.05 0.35 -93.5 0.55 -94.5 0.7 -95.85 0.5 -97.6 0.3 -98.05 M0.95 -95.75 L0.9 -95.6 Q0.9 -95.45 1.05 -95.4 L1.25 -95.35 1.4 -95.45 1.45 -95.65 1.3 -95.8 1.1 -95.85 0.95 -95.75 M1.25 -93.1 L1.35 -93.05 1.45 -93.1 1.5 -93.25 1.45 -93.4 1.3 -93.4 1.15 -93.35 1.1 -93.2 1.25 -93.1 M0.55 -92.2 L0.55 -92.15 0.6 -92.0 0.8 -92.0 1.0 -92.15 1.0 -92.3 1.0 -92.35 0.95 -92.5 0.75 -92.5 0.6 -92.4 0.55 -92.2 M0.95 -89.8 L1.25 -89.75 1.45 -89.9 1.45 -90.15 1.35 -90.35 1.05 -90.35 0.9 -90.25 0.8 -90.0 0.85 -89.95 0.95 -89.8 M-0.45 -87.1 L-0.45 -86.9 -0.35 -86.7 -0.1 -86.65 0.0 -86.8 0.1 -86.95 -0.05 -87.15 -0.2 -87.2 -0.45 -87.1 M-0.4 -88.55 L-0.6 -88.45 -0.65 -88.25 -0.65 -88.15 -0.55 -88.05 -0.35 -88.05 -0.35 -88.0 -0.15 -88.15 -0.05 -88.35 -0.2 -88.55 -0.4 -88.55 M-2.6 -85.45 L-2.4 -85.4 -2.25 -85.55 -2.25 -85.65 -2.3 -85.85 -2.45 -85.85 -2.6 -85.75 -2.65 -85.65 -2.6 -85.45" fill="#a6801f" fill-rule="evenodd" stroke="none"/>
    <path d="M-12.65 -99.8 L-11.05 -101.65 -10.4 -102.2 Q-9.25 -103.1 -7.9 -103.6 L-7.7 -103.65 -7.2 -103.8 -4.25 -103.85 -3.6 -103.6 -2.9 -103.2 -1.3 -101.7 -0.8 -100.9 Q-0.25 -99.9 -0.05 -98.5 L0.1 -97.25 0.15 -96.4 0.15 -95.65 0.05 -94.3 -0.1 -93.45 -0.4 -92.05 -0.5 -91.55 -0.95 -90.3 -1.15 -89.9 -1.7 -88.65 -1.9 -88.25 -2.65 -87.05 -2.75 -86.9 -3.1 -86.4 -3.95 -85.25 -4.95 -84.2 -5.95 -83.35 Q-6.95 -82.65 -8.0 -82.25 L-8.35 -82.1 -8.95 -81.95 -11.8 -81.9 -12.55 -82.15 Q-12.95 -82.3 -13.4 -82.6 -14.3 -83.15 -14.9 -83.95 L-15.3 -84.6 Q-16.05 -85.75 -16.2 -87.35 L-16.25 -88.2 -16.3 -90.2 -16.2 -90.6 -16.05 -91.55 -15.65 -93.6 -15.35 -94.55 -14.65 -96.35 -14.25 -97.2 -13.15 -99.05 -13.15 -99.1 -12.65 -99.8 M-9.6 -97.9 L-9.6 -98.0 -9.95 -98.85 -10.35 -100.9 -10.65 -100.55 -11.6 -99.4 -11.85 -99.0 -12.5 -98.15 -12.55 -98.1 -12.4 -98.05 -10.1 -96.2 -10.3 -95.75 -11.1 -96.45 -12.7 -97.85 -13.65 -96.1 -13.85 -95.75 -12.85 -95.05 -12.45 -94.85 -12.25 -94.7 -12.1 -94.7 -11.95 -94.7 -11.85 -94.8 -12.0 -95.1 -11.3 -94.85 -11.45 -94.35 -11.7 -94.35 -14.05 -95.3 -14.35 -94.4 -14.45 -94.25 -12.45 -93.8 -12.5 -93.45 -12.2 -93.15 -14.55 -93.8 -14.7 -93.25 -15.05 -92.85 -14.85 -92.85 -14.8 -92.8 -14.95 -92.6 -15.15 -91.45 -11.7 -92.1 -11.7 -91.85 -11.7 -91.7 -11.55 -91.65 -11.3 -91.65 -11.4 -91.4 -12.25 -91.4 -12.35 -91.7 -13.25 -91.3 -15.2 -91.15 -15.25 -90.2 -15.95 -89.5 -16.05 -89.35 -15.25 -89.55 -15.25 -88.65 -13.05 -89.85 -12.65 -89.8 -12.35 -90.1 -12.05 -90.2 -12.0 -89.7 -12.15 -89.45 -12.4 -89.3 -12.45 -89.55 -13.2 -89.0 -15.25 -88.1 -14.7 -86.65 -13.85 -85.15 -13.95 -84.8 -12.8 -86.3 -11.8 -87.8 -11.0 -88.85 -10.7 -89.35 -10.55 -89.3 -10.55 -89.2 -10.6 -89.05 -11.0 -88.05 -10.85 -88.0 -11.45 -87.25 -11.95 -86.7 Q-12.1 -86.4 -12.6 -85.85 L-13.35 -84.95 Q-13.65 -84.6 -12.75 -83.9 L-11.95 -83.6 -11.7 -84.35 -11.4 -84.75 -10.95 -85.75 -10.55 -86.75 -11.0 -86.9 -10.55 -88.15 -10.45 -88.2 -10.2 -88.1 -9.9 -88.05 -9.95 -87.95 -10.7 -85.7 -11.3 -83.4 -10.95 -83.3 -10.45 -83.15 -9.5 -83.1 -9.5 -83.4 Q-9.3 -84.0 -9.2 -85.1 L-9.2 -85.95 -9.3 -86.3 -9.5 -86.25 -9.6 -86.05 -9.6 -86.2 -9.4 -88.3 -9.4 -88.35 -9.25 -88.1 -9.3 -87.3 -9.0 -87.6 -8.95 -87.4 -9.0 -85.85 -9.05 -84.4 -9.1 -83.1 -8.4 -83.25 -8.45 -85.05 -8.6 -86.9 -8.6 -87.05 -8.35 -86.9 -8.35 -86.55 -8.2 -86.4 -8.0 -86.15 -7.9 -83.45 -7.2 -83.85 -6.5 -84.8 -6.1 -85.15 -6.4 -86.0 -6.4 -86.1 -6.65 -86.55 -6.75 -86.9 -6.8 -86.95 -6.9 -87.15 -7.2 -87.9 Q-7.05 -88.05 -7.2 -88.15 L-7.5 -88.5 -7.25 -88.9 -7.0 -88.85 -5.7 -85.7 -4.35 -87.0 -6.2 -88.95 Q-6.05 -89.15 -6.3 -89.7 L-4.05 -87.6 -3.8 -88.2 -3.0 -89.7 -5.65 -90.95 -5.25 -91.35 -5.1 -91.3 -4.9 -91.15 -4.55 -91.05 -2.75 -90.15 Q-2.3 -90.75 -2.3 -91.65 L-2.05 -92.75 -4.5 -92.75 -4.35 -92.95 -4.3 -93.2 -4.25 -93.35 -4.05 -93.3 -3.85 -93.35 -3.7 -93.35 -3.6 -93.3 -1.95 -93.2 -1.85 -94.15 -1.85 -94.9 -1.85 -95.05 -1.9 -95.2 -3.6 -94.65 -3.75 -94.75 -4.1 -94.9 -4.35 -94.85 -4.45 -94.75 -4.3 -94.4 -4.45 -94.35 -5.1 -94.85 -3.35 -95.45 -3.1 -95.15 Q-3.35 -95.45 -2.85 -95.6 L-1.8 -95.9 Q-1.6 -96.3 -1.55 -97.25 L-1.6 -97.45 -1.8 -98.95 -1.9 -99.15 -3.4 -97.25 -3.15 -98.4 -2.15 -99.65 -2.45 -99.95 -2.65 -100.3 -2.9 -100.75 -4.6 -97.95 -4.85 -98.1 -5.1 -97.55 -5.0 -97.45 Q-4.65 -97.95 -4.8 -97.55 L-5.2 -97.0 -5.4 -97.45 -5.5 -97.45 -4.75 -98.55 -4.25 -99.0 -3.95 -99.5 -4.2 -99.5 -3.2 -101.15 -3.7 -101.4 -4.1 -101.4 -4.65 -101.6 -5.9 -98.0 -6.25 -97.95 -6.3 -97.9 -6.35 -97.25 -6.25 -97.2 -6.35 -97.05 -6.6 -97.35 -6.35 -98.3 -6.1 -99.0 -6.0 -99.05 -4.9 -101.7 -5.95 -102.3 -6.6 -99.75 -6.85 -98.7 -6.95 -98.9 -7.25 -99.15 -7.4 -99.25 -6.85 -101.45 -6.8 -101.55 -6.35 -102.3 -6.95 -102.25 -7.85 -102.15 -8.0 -102.15 Q-9.5 -101.9 -9.85 -101.25 L-9.85 -101.15 -9.55 -100.05 -8.9 -97.9 -8.95 -97.95 -9.4 -98.3 -9.6 -97.9 M-3.7 -97.75 L-4.05 -96.65 -4.1 -96.7 -4.35 -96.95 -3.7 -97.75 M-4.1 -96.6 L-4.2 -96.25 -4.5 -95.95 -4.75 -96.05 -4.95 -96.0 -5.15 -95.8 -5.2 -95.55 -5.05 -95.4 -5.25 -95.2 -5.4 -95.8 -4.6 -96.75 -4.55 -96.7 -4.3 -96.6 -4.1 -96.6 M-5.05 -93.35 L-4.7 -93.35 -5.05 -92.8 -5.45 -92.9 -5.05 -93.35 M-13.4 -88.2 Q-13.1 -88.35 -12.85 -88.6 L-12.65 -88.95 -12.2 -89.3 -11.85 -89.2 -11.65 -89.4 -11.6 -89.35 -12.05 -88.95 -13.3 -87.65 Q-13.9 -86.9 -14.7 -86.65 L-13.4 -88.2" fill="#95d71c" fill-rule="evenodd" stroke="none"/>
    <path d="M-10.1 -96.2 L-12.4 -98.05 -12.55 -98.1 -12.5 -98.15 -11.85 -99.0 -11.6 -99.4 -10.65 -100.55 -10.35 -100.9 -9.95 -98.85 -9.6 -98.0 -9.6 -97.9 -9.85 -97.05 -10.1 -96.2 M-8.9 -97.9 L-9.55 -100.05 -9.85 -101.15 -9.85 -101.25 Q-9.5 -101.9 -8.0 -102.15 L-7.85 -102.15 -6.95 -102.25 -6.35 -102.3 -6.8 -101.55 -6.85 -101.45 -7.4 -99.25 -7.65 -98.7 -7.65 -98.65 -8.25 -98.05 Q-8.45 -97.8 -8.6 -97.8 L-8.85 -97.9 -8.9 -97.9 M-6.85 -98.7 L-6.6 -99.75 -5.95 -102.3 -4.9 -101.7 -6.0 -99.05 -5.8 -100.4 -5.75 -100.5 -5.55 -101.4 -5.6 -101.9 -5.95 -100.9 -6.05 -100.75 Q-6.75 -99.55 -6.4 -98.9 -6.25 -98.8 -6.1 -99.0 L-6.35 -98.3 -6.6 -97.35 -6.9 -98.6 -6.9 -98.65 -6.85 -98.7 M-6.35 -97.05 L-6.25 -97.2 -6.25 -97.15 -6.15 -97.2 -5.95 -97.4 -5.9 -97.65 -5.9 -98.0 -4.65 -101.6 -4.1 -101.4 -5.0 -99.6 -5.45 -98.2 -5.15 -98.55 -4.75 -98.55 -5.5 -97.45 -5.55 -97.4 Q-5.85 -97.2 -6.05 -97.15 L-6.15 -97.1 -6.35 -97.05 M-3.7 -101.4 L-3.2 -101.15 -4.2 -99.5 -4.25 -99.5 -4.75 -99.25 -4.0 -100.75 -3.7 -101.4 M-5.2 -97.0 L-4.8 -97.55 -4.6 -97.95 -2.9 -100.75 -2.65 -100.3 -2.45 -99.95 -2.15 -99.65 -3.15 -98.4 -3.15 -98.45 -3.4 -98.15 -3.7 -97.75 -4.35 -96.95 -4.6 -96.75 -5.4 -95.8 -5.2 -96.3 -5.2 -96.35 -5.2 -96.8 -5.2 -97.0 M-3.4 -97.25 L-1.9 -99.15 -1.8 -98.95 -1.6 -97.45 -1.55 -97.25 Q-1.6 -96.3 -1.8 -95.9 L-2.85 -95.6 -2.1 -96.5 -2.35 -96.65 -2.9 -96.2 -3.2 -95.9 Q-3.6 -95.55 -3.35 -95.45 L-5.1 -94.85 -5.25 -95.2 -5.05 -95.4 Q-4.95 -95.3 -4.75 -95.5 L-4.5 -95.95 -4.2 -96.25 Q-3.7 -96.25 -3.4 -97.25 M-4.45 -94.35 L-4.3 -94.4 -3.95 -94.4 -3.6 -94.65 -1.9 -95.2 -1.85 -95.05 -1.85 -94.9 -1.85 -94.15 -1.95 -93.2 -3.6 -93.3 -2.85 -93.8 -2.75 -93.85 -2.15 -94.3 -2.15 -94.65 -3.35 -94.05 -4.05 -93.95 -4.2 -93.6 -4.05 -93.3 -4.25 -93.35 -4.3 -93.35 -4.6 -93.35 -4.7 -93.35 -5.05 -93.35 -5.0 -93.4 -4.45 -94.35 M-3.7 -93.35 L-3.85 -93.35 -3.75 -93.4 -3.7 -93.35 M-4.5 -92.75 L-2.05 -92.75 -2.3 -91.65 Q-2.3 -90.75 -2.75 -90.15 L-4.55 -91.05 -4.4 -91.25 -4.9 -91.6 -5.1 -91.4 -4.8 -91.3 Q-4.5 -91.1 -5.1 -91.3 L-5.25 -91.35 -5.4 -91.75 -5.25 -92.05 -5.2 -92.35 -5.4 -92.5 -5.75 -92.3 -5.45 -92.9 -5.05 -92.8 -4.7 -92.7 -4.5 -92.75 M-5.65 -90.95 L-3.0 -89.7 -3.8 -88.2 -4.05 -87.6 -6.3 -89.7 -6.55 -90.55 -6.2 -90.75 -5.95 -90.6 -5.7 -90.5 -5.55 -90.65 -5.65 -90.9 -5.65 -90.95 M-6.2 -88.95 L-4.35 -87.0 -5.7 -85.7 -7.0 -88.85 -6.6 -88.5 Q-6.4 -87.85 -6.25 -88.95 L-6.2 -88.95 M-7.2 -87.9 L-6.9 -87.15 -7.2 -87.05 -7.3 -87.25 -7.5 -87.05 -7.5 -85.8 -7.4 -84.65 -7.15 -85.5 -7.15 -85.75 -7.05 -86.1 -7.0 -86.05 -6.5 -84.8 -7.2 -83.85 -7.9 -83.45 -8.0 -86.15 -7.8 -86.85 -8.0 -87.25 -7.75 -87.9 -7.45 -87.75 -7.2 -87.9 M-6.8 -86.95 L-6.75 -86.9 -6.65 -86.55 -6.85 -86.8 -6.8 -86.95 M-8.6 -87.05 L-8.6 -86.9 -8.45 -85.05 -8.4 -83.25 -9.1 -83.1 -9.05 -84.4 -9.0 -84.35 -8.9 -84.35 -8.85 -85.2 -8.85 -86.0 -9.0 -85.85 -8.95 -87.4 -8.6 -87.05 M-9.4 -88.35 L-9.4 -88.3 -9.6 -86.2 -9.7 -86.7 -9.75 -86.7 -9.9 -87.15 -9.95 -87.2 -10.0 -87.2 -10.35 -86.75 -10.3 -86.6 -10.25 -86.5 -10.05 -86.45 Q-10.55 -85.65 -10.5 -84.45 L-10.45 -84.05 -10.35 -83.25 -10.15 -83.2 -9.95 -83.85 -9.85 -83.25 Q-9.6 -83.25 -9.5 -83.4 L-9.5 -83.1 -10.45 -83.15 -10.95 -83.3 -11.3 -83.4 -10.7 -85.7 -9.95 -87.95 -9.9 -88.05 -9.4 -88.35 M-10.55 -88.15 L-11.0 -86.9 -11.2 -86.6 -12.05 -84.1 -11.7 -84.35 -11.95 -83.6 -12.75 -83.9 Q-13.65 -84.6 -13.35 -84.95 L-12.6 -85.85 Q-12.1 -86.4 -11.95 -86.7 L-11.9 -86.65 -11.95 -86.3 -12.25 -85.3 -12.6 -83.95 -12.25 -84.85 -11.55 -86.4 -11.65 -86.5 -11.55 -86.7 -11.4 -87.1 Q-11.35 -87.35 -11.45 -87.25 L-10.85 -88.0 -10.55 -88.15 M-10.7 -89.35 L-11.0 -88.85 -11.8 -87.8 -12.2 -87.9 -12.0 -88.55 -13.5 -86.4 -13.75 -85.85 -12.45 -87.55 -13.85 -85.15 -14.7 -86.65 -15.25 -88.1 -13.2 -89.0 -13.35 -88.8 -14.4 -88.15 -14.6 -87.7 Q-14.4 -87.65 -13.6 -88.25 L-13.4 -88.2 -14.7 -86.65 Q-13.9 -86.9 -13.3 -87.65 L-12.05 -88.95 -11.6 -89.35 -10.7 -89.35 M-12.4 -89.3 L-12.15 -89.45 -12.2 -89.3 -12.65 -88.95 -12.4 -89.3 M-12.05 -90.2 L-12.35 -90.1 -12.25 -90.45 -12.3 -90.55 -12.7 -90.45 -13.2 -90.15 -13.05 -89.85 -15.25 -88.65 -15.25 -89.55 -14.05 -90.25 -13.3 -90.5 -12.9 -90.6 -12.6 -90.85 -12.55 -91.0 -12.25 -91.4 -11.4 -91.4 -12.05 -90.2 M-15.25 -90.2 L-15.2 -91.15 -13.25 -91.3 -15.25 -90.2 M-11.7 -92.1 L-15.15 -91.45 -14.95 -92.6 -13.45 -92.2 -12.65 -92.25 -12.4 -92.4 -12.35 -92.65 -12.4 -92.75 -12.45 -92.8 -12.6 -92.8 -13.3 -92.6 -14.15 -92.8 Q-13.8 -92.8 -13.55 -93.05 L-13.5 -93.05 Q-13.1 -93.1 -13.6 -93.4 L-14.15 -93.5 -14.45 -93.35 Q-14.6 -93.25 -14.7 -93.25 L-14.55 -93.8 -12.2 -93.15 -11.85 -92.55 -11.7 -92.25 -11.6 -92.2 -11.7 -92.1 M-14.8 -92.8 L-14.85 -92.85 -14.7 -92.8 -14.8 -92.8 M-11.3 -94.85 L-12.0 -95.1 -12.6 -95.5 -13.65 -96.1 -12.7 -97.85 -11.1 -96.45 -10.3 -95.75 -10.6 -95.8 -11.1 -95.95 Q-11.0 -96.3 -11.25 -96.45 L-11.75 -96.45 -11.7 -96.2 -12.8 -96.5 -12.85 -96.5 -12.15 -95.9 -11.5 -95.75 -11.35 -95.7 -11.3 -94.85 M-10.45 -98.15 L-11.25 -99.25 -11.4 -99.4 -11.2 -98.35 -11.1 -98.05 Q-10.85 -97.4 -10.65 -97.65 L-10.35 -97.25 -10.05 -97.4 Q-9.85 -97.75 -10.25 -98.1 L-10.45 -98.15 M-8.15 -100.8 L-8.25 -101.8 -8.35 -102.0 Q-8.65 -99.7 -8.4 -99.2 L-8.2 -99.25 -7.95 -99.25 -8.1 -100.9 -8.15 -100.8 M-8.75 -99.05 L-8.95 -98.95 -8.95 -98.8 -8.9 -98.6 -8.7 -98.6 -8.55 -98.65 -8.55 -98.7 -8.45 -98.95 -8.55 -99.05 -8.75 -99.05 M-3.05 -99.05 L-3.55 -98.8 Q-4.2 -98.45 -4.55 -97.6 L-4.55 -97.45 -4.5 -97.4 -4.55 -97.15 -4.45 -97.05 -3.6 -98.15 -2.8 -99.05 -3.05 -99.05 M-1.7 -97.55 L-2.75 -97.05 -2.75 -97.0 -3.5 -96.45 -3.7 -95.8 -3.15 -96.3 -2.6 -96.75 -1.65 -97.5 -1.7 -97.55 M-5.8 -89.95 L-5.95 -89.85 -5.5 -89.3 -3.8 -88.55 -3.9 -88.7 Q-4.25 -89.35 -5.6 -90.25 L-5.8 -89.95 M-5.35 -86.8 Q-5.35 -87.6 -5.5 -87.85 L-5.7 -87.8 -5.6 -87.0 -5.35 -86.8 M-4.45 -91.8 L-4.55 -91.7 -3.95 -91.55 -2.55 -91.45 -2.7 -91.65 -2.3 -91.65 -3.25 -91.95 -3.6 -92.0 -3.65 -92.05 -3.75 -92.05 -4.5 -92.2 -4.75 -91.9 -4.45 -91.8" fill="#9ee221" fill-rule="evenodd" stroke="none"/>
    <path d="M-9.6 -97.9 L-9.4 -98.3 -8.95 -97.95 -9.3 -97.8 -9.05 -97.05 -8.95 -97.05 -8.65 -97.1 -8.85 -97.9 -8.6 -97.8 Q-8.45 -97.8 -8.25 -98.05 L-7.65 -98.65 -7.65 -98.7 Q-7.55 -98.6 -7.45 -98.6 -7.3 -98.6 -7.25 -98.7 L-7.35 -98.8 Q-7.65 -98.7 -7.25 -99.15 L-6.95 -98.9 -6.85 -98.7 -6.9 -98.65 -6.9 -98.6 -6.6 -97.35 -6.35 -97.05 -6.15 -97.1 -6.05 -97.15 Q-5.85 -97.2 -5.55 -97.4 L-5.5 -97.45 -5.4 -97.45 -5.2 -97.0 -5.2 -96.8 Q-5.45 -96.9 -5.55 -96.6 L-5.6 -96.3 -5.4 -96.5 Q-5.2 -96.8 -5.2 -96.35 L-5.2 -96.3 -5.4 -95.8 -5.25 -95.2 -5.1 -94.85 -4.45 -94.35 -5.0 -93.4 -5.05 -93.35 -5.45 -92.9 -5.75 -92.3 -5.4 -91.75 -5.25 -91.35 -5.65 -90.95 -5.65 -90.9 -5.8 -91.05 -6.1 -91.2 -6.35 -91.2 -6.35 -91.05 -6.2 -90.75 -6.55 -90.55 -6.3 -89.7 Q-6.05 -89.15 -6.2 -88.95 L-6.35 -89.05 -6.85 -89.25 -7.2 -89.3 -7.0 -88.85 -7.25 -88.9 -7.5 -88.5 -7.65 -88.4 -7.75 -87.9 -8.0 -87.25 -8.35 -86.9 -8.6 -87.05 -8.95 -87.4 -9.0 -87.6 -9.0 -87.85 -9.25 -88.1 -9.4 -88.35 -9.9 -88.05 -10.2 -88.1 -10.45 -88.2 -10.3 -88.5 -10.1 -88.85 -10.25 -89.15 -10.6 -89.05 -10.55 -89.2 -10.55 -89.3 -10.7 -89.35 -11.6 -89.35 -11.65 -89.4 -11.4 -89.75 -11.45 -90.1 -11.7 -90.05 -12.0 -89.7 -12.05 -90.2 -11.4 -91.4 -11.3 -91.65 -11.0 -92.05 Q-10.95 -92.2 -11.05 -92.35 L-11.1 -92.4 -11.2 -92.5 -11.25 -92.45 -11.3 -92.45 -11.4 -92.35 -11.6 -92.2 -11.7 -92.25 -11.85 -92.55 -12.2 -93.15 -12.5 -93.45 -12.45 -93.8 -14.45 -94.25 -14.35 -94.4 -14.05 -95.3 -11.7 -94.35 -11.45 -94.35 -11.3 -94.85 -11.35 -95.7 -11.35 -95.75 -11.35 -95.9 -11.4 -95.95 -11.1 -95.95 -10.6 -95.8 -10.3 -95.75 -10.1 -96.2 -9.85 -97.05 -9.6 -97.9 M-6.0 -99.05 L-6.1 -99.0 Q-6.25 -98.8 -6.4 -98.9 -6.75 -99.55 -6.05 -100.75 L-5.95 -100.9 -5.9 -100.8 -5.75 -100.6 -5.75 -100.5 -5.8 -100.4 -6.0 -99.05 M-4.2 -99.5 L-3.95 -99.5 -4.25 -99.0 -4.75 -98.55 -5.15 -98.55 -4.75 -99.25 -4.25 -99.5 -4.2 -99.5 M-3.15 -98.4 L-3.4 -97.25 Q-3.7 -96.25 -4.2 -96.25 L-4.1 -96.6 -4.05 -96.65 -3.7 -97.75 -3.4 -98.15 -3.15 -98.45 -3.15 -98.4 M-2.85 -95.6 Q-3.35 -95.45 -3.1 -95.15 L-3.35 -95.45 Q-3.6 -95.55 -3.2 -95.9 L-2.9 -96.2 -2.35 -96.65 -2.1 -96.5 -2.85 -95.6 M-3.6 -93.3 L-3.7 -93.35 -3.75 -93.4 -3.55 -93.8 -3.55 -93.85 -3.35 -94.05 -2.15 -94.65 -2.15 -94.3 -2.75 -93.85 -2.85 -93.8 -3.6 -93.3 M-6.65 -86.55 L-6.4 -86.1 -6.4 -86.0 -6.1 -85.15 -6.5 -84.8 -7.0 -86.05 -7.05 -86.1 -7.05 -86.2 -7.1 -86.75 -6.85 -86.8 -6.65 -86.55 M-9.6 -86.05 L-9.5 -86.25 -9.3 -86.3 -9.2 -85.95 -9.2 -85.1 Q-9.3 -84.0 -9.5 -83.4 -9.6 -83.25 -9.85 -83.25 L-9.95 -83.85 -9.9 -84.45 -9.8 -85.0 -9.7 -85.8 -9.65 -86.0 -9.6 -86.05 M-11.0 -86.9 L-10.55 -86.75 -10.95 -85.75 -11.4 -84.75 -11.7 -84.35 -12.05 -84.1 -11.2 -86.6 -11.0 -86.9 M-11.8 -87.8 L-12.8 -86.3 -13.95 -84.8 -13.85 -85.15 -12.45 -87.55 -12.2 -87.9 -11.8 -87.8 M-13.2 -89.0 L-12.45 -89.55 -12.4 -89.3 -12.65 -88.95 -12.85 -88.6 Q-13.1 -88.35 -13.4 -88.2 L-13.6 -88.25 -13.6 -88.35 -13.35 -88.8 -13.2 -89.0 M-15.25 -89.55 L-16.05 -89.35 -15.95 -89.5 -15.25 -90.2 -13.25 -91.3 -12.35 -91.7 -12.25 -91.4 -12.55 -91.0 -13.3 -90.5 -14.05 -90.25 -15.25 -89.55 M-14.85 -92.85 L-15.05 -92.85 -14.7 -93.25 Q-14.6 -93.25 -14.45 -93.35 L-14.15 -93.5 -13.6 -93.4 Q-13.1 -93.1 -13.5 -93.05 L-13.55 -93.05 Q-13.8 -92.8 -14.15 -92.8 L-14.7 -92.8 -14.85 -92.85 M-12.45 -94.85 L-12.85 -95.05 -13.85 -95.75 -13.65 -96.1 -12.6 -95.5 -12.6 -95.1 -12.55 -95.0 -12.45 -94.85 M-10.65 -97.65 Q-10.85 -97.4 -11.1 -98.05 L-11.2 -98.35 -11.4 -99.4 -11.25 -99.25 -10.45 -98.15 -10.65 -97.65 M-8.2 -99.25 L-8.4 -99.2 Q-8.65 -99.7 -8.35 -102.0 L-8.25 -101.8 -8.15 -100.8 -8.15 -99.7 -8.2 -99.25 M-8.0 -97.7 L-7.95 -97.6 -7.75 -97.5 -7.6 -97.65 -7.6 -97.85 -7.6 -98.0 -7.65 -98.05 -7.85 -98.05 -8.05 -98.0 -8.0 -97.7 M-9.85 -96.35 L-10.0 -96.3 -10.05 -96.2 -9.9 -96.0 -9.75 -95.95 -9.65 -96.0 -9.6 -96.2 -9.7 -96.35 -9.85 -96.35 M-8.95 -96.25 L-9.0 -96.2 -9.85 -95.15 -10.65 -93.6 -10.6 -90.0 -9.85 -89.9 Q-9.45 -89.8 -8.95 -89.3 L-8.7 -89.15 -8.5 -89.3 -8.05 -89.7 -7.75 -90.55 -7.5 -91.5 -7.05 -91.7 -6.55 -92.25 Q-6.4 -92.45 -6.65 -93.15 -6.9 -93.95 -6.55 -94.95 -6.2 -96.2 -7.1 -96.8 -8.15 -96.15 -8.7 -96.3 L-8.95 -96.25 M-5.2 -94.35 L-5.0 -94.65 -5.3 -94.75 Q-5.4 -94.65 -5.55 -94.6 L-5.2 -94.35 M-5.75 -94.3 L-5.95 -94.3 -6.1 -94.2 -6.15 -94.05 -6.05 -93.9 -5.9 -93.85 -5.75 -93.95 -5.7 -94.15 -5.75 -94.3 M-5.05 -93.5 Q-5.35 -94.0 -5.5 -93.8 L-5.4 -93.4 -5.05 -93.5 M-7.2 -89.8 L-6.9 -89.75 -6.8 -89.85 -6.75 -90.0 -6.95 -90.2 -7.1 -90.2 -7.25 -90.1 -7.25 -89.9 -7.2 -89.8 M-5.5 -89.3 L-5.15 -89.6 -4.55 -89.2 -3.9 -88.7 -3.8 -88.55 -5.5 -89.3 M-5.35 -86.8 L-5.6 -87.0 -5.7 -87.8 -5.5 -87.85 Q-5.35 -87.6 -5.35 -86.8 M-2.7 -91.65 L-2.55 -91.45 -3.95 -91.55 -4.55 -91.7 -4.45 -91.8 Q-4.25 -92.15 -3.75 -92.05 L-3.65 -92.05 -3.6 -92.0 -3.25 -91.95 -2.7 -91.65 M-13.95 -94.65 L-13.2 -94.5 Q-12.7 -94.25 -12.45 -94.3 L-12.35 -94.4 -12.4 -94.6 -13.1 -94.75 -13.95 -94.65 M-10.8 -95.15 L-11.05 -95.25 -11.2 -95.15 -11.2 -94.95 -11.0 -94.85 -10.8 -94.7 -10.6 -94.75 -10.6 -94.95 -10.8 -95.15" fill="#98c512" fill-rule="evenodd" stroke="none"/>
    <path d="M-4.1 -101.4 L-3.7 -101.4 -4.0 -100.75 -4.75 -99.25 -5.15 -98.55 -5.45 -98.2 -5.0 -99.6 -4.1 -101.4 M-9.05 -84.4 L-9.0 -85.85 -8.85 -86.0 -8.85 -85.2 -8.9 -84.35 -9.0 -84.35 -9.05 -84.4 M-9.6 -86.2 L-9.6 -86.05 -9.65 -86.0 -9.7 -85.8 -9.8 -85.0 -9.9 -84.45 -9.95 -83.85 -10.15 -83.2 -10.35 -83.25 -10.45 -84.05 -10.5 -84.45 Q-10.55 -85.65 -10.05 -86.45 L-9.75 -86.7 -9.7 -86.7 -9.6 -86.2 M-14.95 -92.6 L-14.8 -92.8 -14.7 -92.8 -14.15 -92.8 -13.3 -92.6 -13.35 -92.45 -13.15 -92.25 -12.65 -92.25 -13.45 -92.2 -14.95 -92.6 M-8.2 -99.25 L-8.15 -99.7 -8.15 -100.8 -8.1 -100.9 -7.95 -99.25 -8.2 -99.25 M-5.75 -100.5 L-5.75 -100.6 -5.9 -100.8 -5.95 -100.9 -5.6 -101.9 -5.55 -101.4 -5.75 -100.5 M-3.05 -99.05 L-2.8 -99.05 -3.6 -98.15 -4.45 -97.05 -4.55 -97.15 -4.5 -97.4 -4.55 -97.45 -4.55 -97.6 Q-4.2 -98.45 -3.55 -98.8 L-3.05 -99.05 M-1.7 -97.55 L-1.65 -97.5 -2.6 -96.75 -3.15 -96.3 -3.7 -95.8 -3.5 -96.45 -2.75 -97.0 -2.75 -97.05 -1.7 -97.55 M-3.35 -94.05 L-3.55 -93.85 -4.05 -93.95 -3.35 -94.05 M-5.15 -89.6 L-5.8 -89.95 -5.6 -90.25 Q-4.25 -89.35 -3.9 -88.7 L-4.55 -89.2 -5.15 -89.6 M-7.05 -86.1 L-7.15 -85.75 -7.15 -85.5 -7.4 -84.65 -7.5 -85.8 -7.5 -87.05 -7.3 -87.25 -7.2 -87.05 -7.15 -86.85 -7.1 -86.75 -7.05 -86.2 -7.05 -86.1 M-2.7 -91.65 L-3.25 -91.95 -2.3 -91.65 -2.7 -91.65 M-3.75 -92.05 Q-4.25 -92.15 -4.45 -91.8 L-4.75 -91.9 -4.5 -92.2 -3.75 -92.05 M-11.7 -96.2 L-11.4 -95.95 -11.35 -95.9 -11.35 -95.75 -11.35 -95.7 -11.5 -95.75 -12.15 -95.9 -12.85 -96.5 -12.8 -96.5 -11.7 -96.2 M-13.95 -94.65 L-13.1 -94.75 -12.4 -94.6 -12.35 -94.4 -12.45 -94.3 Q-12.7 -94.25 -13.2 -94.5 L-13.95 -94.65 M-12.55 -91.0 L-12.6 -90.85 -12.9 -90.6 -13.3 -90.5 -12.55 -91.0 M-13.35 -88.8 L-13.6 -88.35 -13.6 -88.25 Q-14.4 -87.65 -14.6 -87.7 L-14.4 -88.15 -13.35 -88.8 M-12.2 -87.9 L-12.45 -87.55 -13.75 -85.85 -13.5 -86.4 -12.0 -88.55 -12.2 -87.9 M-11.9 -86.65 L-11.7 -86.55 -11.65 -86.5 -11.55 -86.4 -12.25 -84.85 -12.6 -83.95 -12.25 -85.3 -11.95 -86.3 -11.9 -86.65" fill="#b9ea5e" fill-rule="evenodd" stroke="none"/>
    <path d="M-8.95 -97.95 L-8.9 -97.9 -8.85 -97.9 -8.65 -97.1 -8.95 -97.05 -9.05 -97.05 -9.3 -97.8 -8.95 -97.95 M-7.4 -99.25 L-7.25 -99.15 Q-7.65 -98.7 -7.35 -98.8 L-7.25 -98.7 Q-7.3 -98.6 -7.45 -98.6 -7.55 -98.6 -7.65 -98.7 L-7.4 -99.25 M-6.25 -97.2 L-6.35 -97.25 -6.3 -97.9 -6.25 -97.95 -5.9 -98.0 -5.9 -97.65 -5.95 -97.4 -6.15 -97.2 -6.25 -97.15 -6.25 -97.2 M-4.8 -97.55 Q-4.65 -97.95 -5.0 -97.45 L-5.1 -97.55 -4.85 -98.1 -4.6 -97.95 -4.8 -97.55 M-4.3 -94.4 L-4.45 -94.75 -4.35 -94.85 -4.1 -94.9 -3.75 -94.75 -3.6 -94.65 -3.95 -94.4 -4.3 -94.4 M-3.85 -93.35 L-4.05 -93.3 -4.2 -93.6 -4.05 -93.95 -3.55 -93.85 -3.55 -93.8 -3.75 -93.4 -3.85 -93.35 M-4.25 -93.35 L-4.3 -93.2 -4.35 -92.95 -4.5 -92.75 -4.7 -92.7 -5.05 -92.8 -4.7 -93.35 -4.6 -93.35 -4.3 -93.35 -4.25 -93.35 M-4.55 -91.05 L-4.9 -91.15 -5.1 -91.3 Q-4.5 -91.1 -4.8 -91.3 L-5.1 -91.4 -4.9 -91.6 -4.4 -91.25 -4.55 -91.05 M-7.5 -88.5 L-7.2 -88.15 Q-7.05 -88.05 -7.2 -87.9 L-7.45 -87.75 -7.75 -87.9 -7.65 -88.4 -7.5 -88.5 M-6.9 -87.15 L-6.8 -86.95 -6.85 -86.8 -7.1 -86.75 -7.15 -86.85 -7.2 -87.05 -6.9 -87.15 M-8.0 -86.15 L-8.2 -86.4 -8.35 -86.55 -8.35 -86.9 -8.0 -87.25 -7.8 -86.85 -8.0 -86.15 M-9.0 -87.6 L-9.3 -87.3 -9.25 -88.1 -9.0 -87.85 -9.0 -87.6 M-10.45 -88.2 L-10.55 -88.15 -10.85 -88.0 -11.0 -88.05 -10.6 -89.05 -10.25 -89.15 -10.1 -88.85 -10.3 -88.5 -10.45 -88.2 M-11.95 -86.7 L-11.45 -87.25 Q-11.35 -87.35 -11.4 -87.1 L-11.55 -86.7 -11.65 -86.5 -11.7 -86.55 -11.9 -86.65 -11.95 -86.7 M-12.15 -89.45 L-12.0 -89.7 -11.7 -90.05 -11.45 -90.1 -11.4 -89.75 -11.65 -89.4 -11.85 -89.2 -12.2 -89.3 -12.15 -89.45 M-12.35 -90.1 L-12.65 -89.8 -13.05 -89.85 -13.2 -90.15 -12.7 -90.45 -12.3 -90.55 -12.25 -90.45 -12.35 -90.1 M-11.3 -91.65 L-11.55 -91.65 -11.7 -91.7 -11.7 -91.85 -11.7 -92.1 -11.6 -92.2 -11.4 -92.35 -11.3 -92.45 -11.25 -92.45 -11.2 -92.5 -11.1 -92.4 -11.05 -92.35 Q-10.95 -92.2 -11.0 -92.05 L-11.3 -91.65 M-12.0 -95.1 L-11.85 -94.8 -11.95 -94.7 -12.1 -94.7 -12.25 -94.7 -12.45 -94.85 -12.55 -95.0 -12.6 -95.1 -12.6 -95.5 -12.0 -95.1 M-10.65 -97.65 L-10.45 -98.15 -10.25 -98.1 Q-9.85 -97.75 -10.05 -97.4 L-10.35 -97.25 -10.65 -97.65 M-8.75 -99.05 L-8.55 -99.05 -8.45 -98.95 -8.55 -98.7 -8.55 -98.65 -8.7 -98.6 -8.9 -98.6 -8.95 -98.8 -8.95 -98.95 -8.75 -99.05 M-4.05 -96.65 L-4.1 -96.6 -4.3 -96.6 -4.55 -96.7 -4.6 -96.75 -4.35 -96.95 -4.1 -96.7 -4.05 -96.65 M-5.05 -95.4 L-5.2 -95.55 -5.15 -95.8 -4.95 -96.0 -4.75 -96.05 -4.5 -95.95 -4.75 -95.5 Q-4.95 -95.3 -5.05 -95.4 M-5.2 -96.35 Q-5.2 -96.8 -5.4 -96.5 L-5.6 -96.3 -5.55 -96.6 Q-5.45 -96.9 -5.2 -96.8 L-5.2 -96.35 M-8.0 -97.7 L-8.05 -98.0 -7.85 -98.05 -7.65 -98.05 -7.6 -98.0 -7.6 -97.85 -7.6 -97.65 -7.75 -97.5 -7.95 -97.6 -8.0 -97.7 M-9.85 -96.35 L-9.7 -96.35 -9.6 -96.2 -9.65 -96.0 -9.75 -95.95 -9.9 -96.0 -10.05 -96.2 -10.0 -96.3 -9.85 -96.35 M-5.4 -91.75 L-5.75 -92.3 -5.4 -92.5 -5.2 -92.35 -5.25 -92.05 -5.4 -91.75 M-5.05 -93.5 L-5.4 -93.4 -5.5 -93.8 Q-5.35 -94.0 -5.05 -93.5 M-5.75 -94.3 L-5.7 -94.15 -5.75 -93.95 -5.9 -93.85 -6.05 -93.9 -6.15 -94.05 -6.1 -94.2 -5.95 -94.3 -5.75 -94.3 M-5.2 -94.35 L-5.55 -94.6 Q-5.4 -94.65 -5.3 -94.75 L-5.0 -94.65 -5.2 -94.35 M-6.2 -90.75 L-6.35 -91.05 -6.35 -91.2 -6.1 -91.2 -5.8 -91.05 -5.65 -90.9 -5.55 -90.65 -5.7 -90.5 -5.95 -90.6 -6.2 -90.75 M-7.2 -89.8 L-7.25 -89.9 -7.25 -90.1 -7.1 -90.2 -6.95 -90.2 -6.75 -90.0 -6.8 -89.85 -6.9 -89.75 -7.2 -89.8 M-5.5 -89.3 L-5.95 -89.85 -5.8 -89.95 -5.15 -89.6 -5.5 -89.3 M-10.05 -86.45 L-10.25 -86.5 -10.3 -86.6 -10.35 -86.75 -10.0 -87.2 -9.95 -87.2 -9.9 -87.15 -9.75 -86.7 -10.05 -86.45 M-6.2 -88.95 L-6.25 -88.95 Q-6.4 -87.85 -6.6 -88.5 L-7.0 -88.85 -7.2 -89.3 -6.85 -89.25 -6.35 -89.05 -6.2 -88.95 M-11.4 -95.95 L-11.7 -96.2 -11.75 -96.45 -11.25 -96.45 Q-11.0 -96.3 -11.1 -95.95 L-11.4 -95.95 M-10.8 -95.15 L-10.6 -94.95 -10.6 -94.75 -10.8 -94.7 -11.0 -94.85 -11.2 -94.95 -11.2 -95.15 -11.05 -95.25 -10.8 -95.15 M-13.3 -92.6 L-12.6 -92.8 -12.45 -92.8 -12.4 -92.75 -12.35 -92.65 -12.4 -92.4 -12.65 -92.25 -13.15 -92.25 -13.35 -92.45 -13.3 -92.6" fill="#303000" fill-rule="evenodd" stroke="none"/>
    <path d="M-8.95 -96.25 L-8.7 -96.3 Q-8.15 -96.15 -7.1 -96.8 -6.2 -96.2 -6.55 -94.95 -6.9 -93.95 -6.65 -93.15 -6.4 -92.45 -6.55 -92.25 L-7.05 -91.7 -7.5 -91.5 -7.75 -90.55 -8.05 -89.7 -8.5 -89.3 -8.7 -89.15 -8.95 -89.3 Q-9.45 -89.8 -9.85 -89.9 L-10.6 -90.0 -10.65 -93.6 -9.85 -95.15 -9.0 -96.2 -8.95 -96.25 M-6.75 -95.35 L-7.25 -96.3 -7.6 -96.25 Q-7.6 -95.65 -8.05 -95.6 -8.45 -95.6 -8.85 -95.9 -9.1 -95.2 -9.6 -94.6 L-10.25 -93.8 -10.15 -93.05 Q-10.1 -92.15 -10.2 -91.3 L-10.3 -90.25 -9.75 -90.4 -9.4 -90.45 -8.85 -89.85 Q-8.65 -89.55 -8.55 -89.6 -8.35 -89.95 -8.25 -90.55 L-8.0 -91.3 -7.4 -92.0 -6.85 -92.5 -7.1 -93.1 -7.4 -93.85 -7.15 -94.55 -6.75 -95.35" fill="#c0de6d" fill-rule="evenodd" stroke="none"/>
    <path d="M-6.75 -95.35 L-7.15 -94.55 -7.4 -93.85 -7.1 -93.1 -6.85 -92.5 -7.4 -92.0 -8.0 -91.3 -8.25 -90.55 Q-8.35 -89.95 -8.55 -89.6 -8.65 -89.55 -8.85 -89.85 L-9.4 -90.45 -9.75 -90.4 -10.3 -90.25 -10.2 -91.3 Q-10.1 -92.15 -10.15 -93.05 L-10.25 -93.8 -9.6 -94.6 Q-9.1 -95.2 -8.85 -95.9 -8.45 -95.6 -8.05 -95.6 -7.6 -95.65 -7.6 -96.25 L-7.25 -96.3 -6.75 -95.35" fill="#e7f8c7" fill-rule="evenodd" stroke="none"/>
    <path d="M-16.55 -91.7 L-16.6 -91.5 -16.65 -91.35 -16.7 -90.6 -16.8 -89.85 -16.85 -89.15 Q-17.2 -86.95 -17.5 -86.0 L-17.6 -86.65 -17.65 -86.75 -17.7 -86.95 -17.8 -87.45 Q-17.95 -88.9 -17.7 -90.55 L-17.55 -91.35 -17.6 -91.5 -17.55 -91.55 -17.0 -93.95 -16.75 -94.75 -16.1 -96.45 -15.85 -97.05 -15.65 -97.4 -15.45 -97.85 -15.4 -97.95 -15.1 -98.5 -15.1 -98.45 -15.1 -98.1 Q-15.1 -96.75 -15.7 -94.85 L-16.55 -91.7" fill="#999999" fill-rule="evenodd" stroke="none"/>
    <path d="M-14.15 -82.6 L-14.3 -81.5 -14.75 -81.8 -16.0 -83.05 -16.35 -83.5 Q-17.15 -84.55 -17.5 -86.0 -17.2 -86.95 -16.85 -89.15 L-16.8 -89.85 -16.85 -87.9 -16.75 -87.1 Q-16.5 -85.5 -15.65 -84.25 L-15.25 -83.65 -14.5 -82.85 -14.15 -82.6 M-11.1 -103.45 L-11.1 -103.2 -11.2 -102.0 -11.65 -101.6 -12.95 -100.1 -13.4 -99.4 -13.45 -99.35 -14.5 -97.4 -15.0 -96.55 -15.75 -94.6 -16.0 -93.7 -16.55 -91.7 -15.7 -94.85 Q-15.1 -96.75 -15.1 -98.1 L-15.1 -98.45 -14.25 -99.9 -14.05 -100.15 -13.65 -100.8 -11.6 -103.0 -11.55 -103.05 -11.1 -103.45" fill="#cccccc" fill-rule="evenodd" stroke="none"/>
  </g>
</svg>
