<?xml version="1.0" encoding="UTF-8" standalone="no"?>
<svg xmlns:ffdec="https://www.free-decompiler.com/flash" xmlns:xlink="http://www.w3.org/1999/xlink" ffdec:objectType="shape" height="11.85px" width="16.0px" xmlns="http://www.w3.org/2000/svg">
  <g transform="matrix(1.0, 0.0, 0.0, 1.0, -1.5, 5.7)">
    <path d="M9.6 -2.45 Q11.7 -2.35 13.2 -1.3 14.25 -0.5 14.3 0.45 14.15 1.4 13.05 2.1 11.55 3.05 9.4 2.95 L7.15 2.5 7.1 2.5 5.85 1.8 5.75 1.75 5.1 1.15 5.1 1.1 Q4.65 0.6 4.7 0.05 4.85 -0.9 5.95 -1.6 7.5 -2.55 9.6 -2.45" fill="#a86d4a" fill-rule="evenodd" stroke="none"/>
    <path d="M4.25 -4.35 Q6.55 -5.85 9.75 -5.7 12.95 -5.55 15.1 -3.95 17.7 -2.05 17.5 0.55 17.5 3.1 14.75 4.85 12.4 6.25 9.25 6.15 L6.1 5.55 6.15 5.6 Q4.95 5.2 3.9 4.45 L3.85 4.4 2.55 3.15 2.6 3.2 Q1.4 1.7 1.5 -0.05 1.55 -2.7 4.25 -4.35 M9.6 -2.45 Q7.5 -2.55 5.95 -1.6 4.85 -0.9 4.7 0.05 4.65 0.6 5.1 1.1 L5.1 1.15 5.75 1.75 5.85 1.8 7.1 2.5 7.15 2.5 9.4 2.95 Q11.55 3.05 13.05 2.1 14.15 1.4 14.3 0.45 14.25 -0.5 13.2 -1.3 11.7 -2.35 9.6 -2.45" fill="#20150f" fill-rule="evenodd" stroke="none"/>
  </g>
</svg>
