<?xml version="1.0" encoding="UTF-8" standalone="no"?>
<svg xmlns:ffdec="https://www.free-decompiler.com/flash" xmlns:xlink="http://www.w3.org/1999/xlink" ffdec:objectType="shape" height="89.3px" width="61.4px" xmlns="http://www.w3.org/2000/svg">
  <g transform="matrix(1.0, 0.0, 0.0, 1.0, 27.1, 104.65)">
    <path d="M18.05 -62.85 L17.95 -63.45 Q17.95 -64.05 19.0 -64.55 L21.25 -65.4 21.7 -65.05 21.8 -64.65 20.3 -63.55 Q19.2 -62.85 18.6 -62.75 L18.15 -62.75 18.05 -62.85 M-17.2 -64.95 Q-16.35 -65.1 -14.6 -64.3 L-13.6 -63.9 Q-13.8 -63.65 -14.15 -63.45 -14.85 -63.1 -15.8 -63.1 -16.75 -63.1 -17.4 -63.45 -18.1 -63.8 -18.1 -64.3 -18.1 -64.8 -17.2 -64.95" fill="#616161" fill-rule="evenodd" stroke="none"/>
    <path d="M5.75 -100.1 Q5.75 -98.95 6.1 -96.05 L2.85 -96.05 2.65 -100.1 5.75 -100.1 M10.05 -96.15 L9.25 -100.2 13.35 -100.4 14.55 -96.35 10.05 -96.15 M14.95 -100.55 L18.45 -101.0 21.15 -101.4 21.45 -101.45 21.9 -101.55 22.2 -101.6 23.85 -102.2 26.0 -98.0 Q22.85 -97.05 16.15 -96.45 L14.95 -100.55 M15.25 -94.9 Q14.8 -91.7 13.35 -88.1 L12.85 -87.2 Q12.6 -88.4 12.6 -89.65 L13.0 -94.75 15.25 -94.9 M14.15 -63.4 L15.75 -63.25 Q16.5 -63.05 16.55 -62.75 L16.0 -62.2 14.25 -61.95 12.9 -62.15 Q12.25 -62.35 12.2 -62.65 L12.7 -63.2 14.15 -63.4 M-10.8 -62.35 L-11.75 -62.6 -12.1 -63.2 Q-12.05 -63.55 -11.6 -63.75 L-10.7 -63.9 -7.55 -63.15 -7.75 -62.25 -10.8 -62.35 M-7.25 -94.9 Q-9.4 -94.15 -12.8 -94.15 -14.45 -94.15 -14.45 -92.4 L-14.35 -85.8 -14.15 -78.4 Q-14.05 -77.5 -12.75 -74.45 L-11.55 -70.9 Q-11.55 -68.4 -13.4 -61.15 -15.3 -53.9 -15.3 -43.55 L-14.8 -41.3 Q-13.9 -39.05 -11.95 -38.75 L-11.1 -38.7 Q-13.65 -37.55 -15.2 -34.2 -16.9 -30.45 -16.9 -24.9 L-16.8 -23.65 Q-16.7 -22.6 -16.25 -22.1 L-15.95 -21.75 Q-6.85 -20.35 3.95 -20.35 L5.8 -20.35 19.0 -21.1 23.9 -21.75 24.7 -23.65 24.9 -25.5 Q24.9 -26.55 23.85 -27.8 L20.8 -31.0 Q22.1 -32.1 22.7 -33.75 L23.0 -35.3 Q23.0 -38.05 20.25 -40.5 17.45 -43.0 17.45 -43.3 17.45 -43.9 16.55 -43.85 L14.6 -43.6 Q16.45 -46.9 18.5 -49.35 19.2 -50.2 19.2 -52.3 19.2 -55.95 18.05 -62.85 L18.15 -62.75 18.6 -62.75 Q19.2 -62.85 20.3 -63.55 L21.8 -64.65 21.7 -65.05 21.25 -65.4 19.0 -64.55 Q17.95 -64.05 17.95 -63.45 L17.0 -68.55 Q14.8 -79.8 14.8 -80.65 16.5 -87.65 17.1 -89.0 L17.55 -89.9 20.45 -78.7 Q21.95 -74.2 23.95 -74.2 25.4 -74.2 27.2 -76.75 29.05 -79.35 29.05 -81.65 29.05 -83.0 27.95 -86.75 26.65 -91.25 24.55 -96.1 L27.2 -97.0 27.3 -96.85 Q32.75 -86.95 32.05 -79.65 31.5 -74.35 27.65 -70.35 L26.35 -69.15 23.3 -66.95 22.1 -66.2 22.15 -65.8 22.15 -65.7 22.15 -65.6 23.2 -57.85 Q23.85 -52.3 25.1 -45.8 L25.3 -44.75 25.6 -43.3 25.55 -43.3 25.65 -42.9 Q26.4 -39.5 27.3 -36.25 28.4 -32.3 29.65 -28.8 L30.9 -24.9 31.4 -23.25 32.25 -20.45 Q26.6 -19.05 20.15 -18.25 L16.85 -17.9 3.95 -17.35 -6.1 -17.65 -17.45 -19.0 -25.25 -20.7 -24.95 -22.05 -24.55 -23.55 -24.15 -25.2 Q-23.2 -29.2 -22.5 -33.15 L-22.45 -33.4 -21.9 -36.25 -21.6 -37.95 -20.8 -43.3 -20.75 -43.3 -20.3 -47.65 -19.85 -51.85 -18.85 -62.55 -18.85 -63.15 -18.55 -66.25 -18.25 -81.8 -18.1 -89.35 -18.05 -90.65 -17.7 -96.3 -17.7 -96.5 -15.6 -95.95 -13.85 -95.6 -7.25 -94.9 M-7.3 -96.4 L-11.4 -96.8 -11.0 -100.85 -7.25 -100.45 -7.3 -96.4 M-13.2 -97.05 L-17.6 -98.0 -16.6 -101.85 -14.6 -101.35 -14.25 -101.3 -12.8 -101.1 -13.2 -97.05 M4.0 -62.7 L4.65 -62.15 Q4.65 -61.8 4.0 -61.55 L2.4 -61.35 0.8 -61.55 Q0.15 -61.8 0.15 -62.15 0.15 -62.5 0.8 -62.7 L2.4 -62.95 4.0 -62.7 M8.45 -63.05 L10.1 -62.8 Q10.75 -62.55 10.75 -62.2 10.75 -61.85 10.1 -61.6 L8.45 -61.35 6.85 -61.6 Q6.15 -61.85 6.15 -62.2 L6.85 -62.8 8.45 -63.05 M-5.3 -63.05 L-3.7 -63.3 -2.1 -63.05 Q-1.45 -62.8 -1.45 -62.45 -1.45 -62.1 -2.1 -61.85 L-3.7 -61.6 -5.3 -61.85 Q-5.95 -62.1 -5.95 -62.45 -5.95 -62.8 -5.3 -63.05 M-17.2 -64.95 Q-18.1 -64.8 -18.1 -64.3 -18.1 -63.8 -17.4 -63.45 -16.75 -63.1 -15.8 -63.1 -14.85 -63.1 -14.15 -63.45 -13.8 -63.65 -13.6 -63.9 L-14.6 -64.3 Q-16.35 -65.1 -17.2 -64.95" fill="#8a8a8a" fill-rule="evenodd" stroke="none"/>
    <path d="M5.75 -100.1 L9.25 -100.2 10.05 -96.15 6.1 -96.05 Q5.75 -98.95 5.75 -100.1 M13.35 -100.4 L14.95 -100.55 16.15 -96.45 14.55 -96.35 13.35 -100.4 M19.55 -95.3 Q19.75 -94.1 21.4 -89.5 22.95 -85.15 23.25 -84.6 L23.45 -84.25 24.5 -85.3 24.8 -86.5 Q24.8 -88.05 24.4 -89.4 L22.05 -95.6 23.8 -95.95 24.55 -96.1 Q26.65 -91.25 27.95 -86.75 29.05 -83.0 29.05 -81.65 29.05 -79.35 27.2 -76.75 25.4 -74.2 23.95 -74.2 21.95 -74.2 20.45 -78.7 L17.55 -89.9 17.1 -89.0 Q16.5 -87.65 14.8 -80.65 14.8 -79.8 17.0 -68.55 L17.95 -63.45 18.05 -62.85 Q19.2 -55.95 19.2 -52.3 19.2 -50.2 18.5 -49.35 16.45 -46.9 14.6 -43.6 L16.55 -43.85 Q17.45 -43.9 17.45 -43.3 17.45 -43.0 20.25 -40.5 23.0 -38.05 23.0 -35.3 L22.7 -33.75 Q22.1 -32.1 20.8 -31.0 L23.85 -27.8 Q24.9 -26.55 24.9 -25.5 L24.7 -23.65 23.9 -21.75 19.0 -21.1 5.8 -20.35 3.95 -20.35 Q-6.85 -20.35 -15.95 -21.75 L-16.25 -22.1 Q-16.7 -22.6 -16.8 -23.65 L-16.9 -24.9 Q-16.9 -30.45 -15.2 -34.2 -13.65 -37.55 -11.1 -38.7 L-11.95 -38.75 Q-13.9 -39.05 -14.8 -41.3 L-15.3 -43.55 Q-15.3 -53.9 -13.4 -61.15 -11.55 -68.4 -11.55 -70.9 L-12.75 -74.45 Q-14.05 -77.5 -14.15 -78.4 L-14.35 -85.8 -14.45 -92.4 Q-14.45 -94.15 -12.8 -94.15 -9.4 -94.15 -7.25 -94.9 L-4.15 -94.7 Q-6.9 -91.75 -8.05 -87.0 -8.95 -83.25 -8.95 -77.55 -8.95 -73.8 -7.75 -73.05 L-3.75 -72.6 -4.0 -72.3 Q-4.5 -71.55 -7.65 -68.75 -10.6 -65.85 -10.7 -63.9 L-11.6 -63.75 Q-12.05 -63.55 -12.1 -63.2 L-11.75 -62.6 -10.8 -62.35 -11.3 -46.3 Q-11.3 -44.85 -10.9 -44.15 -10.35 -43.3 -9.05 -43.4 L0.35 -44.8 Q-5.4 -38.9 -10.0 -35.0 -11.7 -32.8 -11.7 -24.4 -11.7 -23.7 -4.05 -22.85 L1.85 -22.1 3.95 -22.1 9.65 -22.2 11.9 -22.05 14.0 -22.4 19.75 -22.95 20.2 -25.4 Q20.2 -27.05 19.2 -28.05 17.45 -29.75 12.9 -30.2 L16.65 -33.85 17.2 -34.7 Q11.0 -37.55 8.95 -40.45 12.3 -44.2 13.45 -47.8 14.35 -50.75 14.35 -56.15 L14.25 -61.95 16.0 -62.2 16.55 -62.75 Q16.5 -63.05 15.75 -63.25 L14.15 -63.4 Q14.05 -69.8 11.55 -77.45 9.1 -84.95 9.1 -88.95 L9.15 -89.7 9.3 -89.75 9.55 -89.65 10.8 -94.65 13.0 -94.75 12.6 -89.65 Q12.6 -88.4 12.85 -87.2 L13.35 -88.1 Q14.8 -91.7 15.25 -94.9 L19.55 -95.3 M2.85 -96.05 L-0.2 -96.1 -0.2 -100.1 2.65 -100.1 2.85 -96.05 M-3.55 -96.2 L-7.3 -96.4 -7.25 -100.45 -3.85 -100.25 Q-3.55 -97.85 -3.55 -96.2 M-11.4 -96.8 L-13.2 -97.05 -12.8 -101.1 -11.0 -100.85 -11.4 -96.8" fill="#b4b4b4" fill-rule="evenodd" stroke="none"/>
    <path d="M22.05 -95.6 L24.4 -89.4 Q24.8 -88.05 24.8 -86.5 L24.5 -85.3 23.45 -84.25 23.25 -84.6 Q22.95 -85.15 21.4 -89.5 19.75 -94.1 19.55 -95.3 L22.05 -95.6 M10.8 -94.65 L9.55 -89.65 9.3 -89.75 9.15 -89.7 9.1 -88.95 Q9.1 -84.95 11.55 -77.45 14.05 -69.8 14.15 -63.4 L12.7 -63.2 12.2 -62.65 Q12.25 -62.35 12.9 -62.15 L14.25 -61.95 14.35 -56.15 Q14.35 -50.75 13.45 -47.8 12.3 -44.2 8.95 -40.45 11.0 -37.55 17.2 -34.7 L16.65 -33.85 12.9 -30.2 Q17.45 -29.75 19.2 -28.05 20.2 -27.05 20.2 -25.4 L19.75 -22.95 14.0 -22.4 Q15.15 -23.0 15.15 -24.45 15.15 -26.75 10.1 -28.15 -0.35 -31.0 -2.2 -31.75 2.0 -32.3 5.2 -36.85 7.65 -40.35 7.65 -41.85 7.65 -43.55 5.1 -43.05 2.75 -42.55 -0.45 -40.5 -8.55 -35.4 -8.55 -30.6 -8.55 -28.35 -0.55 -25.15 5.45 -22.75 9.65 -22.2 L3.95 -22.1 1.85 -22.1 -4.05 -22.85 Q-11.7 -23.7 -11.7 -24.4 -11.7 -32.8 -10.0 -35.0 -5.4 -38.9 0.35 -44.8 L-9.05 -43.4 Q-10.35 -43.3 -10.9 -44.15 -11.3 -44.85 -11.3 -46.3 L-10.8 -62.35 -7.75 -62.25 Q-8.05 -58.9 -6.75 -58.45 -6.1 -58.25 -6.6 -60.2 -4.5 -55.7 -6.25 -53.3 -7.7 -51.4 -7.7 -50.7 -7.7 -49.25 -6.35 -48.55 -5.35 -48.0 -4.05 -48.0 -3.0 -48.0 -1.0 -49.1 2.3 -50.9 5.3 -54.75 L3.95 -52.1 Q2.6 -49.35 2.6 -48.75 2.6 -47.35 3.95 -47.35 6.35 -47.35 8.7 -51.0 11.5 -55.25 11.5 -61.25 L11.8 -62.2 Q11.85 -62.45 11.3 -62.45 L10.8 -62.35 11.1 -65.5 Q11.1 -68.9 10.4 -69.45 L8.15 -69.6 3.6 -70.1 Q7.7 -74.95 7.6 -76.85 L7.4 -78.05 7.2 -78.25 6.6 -78.3 4.75 -76.3 Q2.75 -74.1 1.55 -73.3 -2.75 -70.45 -3.95 -69.2 -6.3 -66.85 -7.5 -63.0 L-7.55 -63.15 -10.7 -63.9 Q-10.6 -65.85 -7.65 -68.75 -4.5 -71.55 -4.0 -72.3 L-3.75 -72.6 -7.75 -73.05 Q-8.95 -73.8 -8.95 -77.55 -8.95 -83.25 -8.05 -87.0 -6.9 -91.75 -4.15 -94.7 -0.2 -94.55 6.15 -94.55 4.05 -91.8 -2.7 -85.6 -6.8 -81.8 -6.8 -78.35 L-6.7 -76.25 -5.45 -75.95 Q-1.15 -78.7 0.7 -80.95 4.05 -84.95 8.2 -94.6 L10.8 -94.65 M-0.2 -96.1 L-3.55 -96.2 Q-3.55 -97.85 -3.85 -100.25 L-0.2 -100.1 -0.2 -96.1" fill="#e0e0e0" fill-rule="evenodd" stroke="none"/>
    <path d="M14.0 -22.4 L11.9 -22.05 9.65 -22.2 Q5.45 -22.75 -0.55 -25.15 -8.55 -28.35 -8.55 -30.6 -8.55 -35.4 -0.45 -40.5 2.75 -42.55 5.1 -43.05 7.65 -43.55 7.65 -41.85 7.65 -40.35 5.2 -36.85 2.0 -32.3 -2.2 -31.75 -0.35 -31.0 10.1 -28.15 15.15 -26.75 15.15 -24.45 15.15 -23.0 14.0 -22.4 M6.15 -94.55 L8.2 -94.6 Q4.05 -84.95 0.7 -80.95 -1.15 -78.7 -5.45 -75.95 L-6.7 -76.25 -6.8 -78.35 Q-6.8 -81.8 -2.7 -85.6 4.05 -91.8 6.15 -94.55 M-7.55 -63.15 L-7.5 -63.0 Q-6.3 -66.85 -3.95 -69.2 -2.75 -70.45 1.55 -73.3 2.75 -74.1 4.75 -76.3 L6.6 -78.3 7.2 -78.25 7.4 -78.05 7.6 -76.85 Q7.7 -74.95 3.6 -70.1 L8.15 -69.6 10.4 -69.45 Q11.1 -68.9 11.1 -65.5 L10.8 -62.35 11.3 -62.45 Q11.85 -62.45 11.8 -62.2 L11.5 -61.25 Q11.5 -55.25 8.7 -51.0 6.35 -47.35 3.95 -47.35 2.6 -47.35 2.6 -48.75 2.6 -49.35 3.95 -52.1 L5.3 -54.75 Q2.3 -50.9 -1.0 -49.1 -3.0 -48.0 -4.05 -48.0 -5.35 -48.0 -6.35 -48.55 -7.7 -49.25 -7.7 -50.7 -7.7 -51.4 -6.25 -53.3 -4.5 -55.7 -6.6 -60.2 -6.1 -58.25 -6.75 -58.45 -8.05 -58.9 -7.75 -62.25 L-7.55 -63.15 M8.45 -63.05 L6.85 -62.8 6.15 -62.2 Q6.15 -61.85 6.85 -61.6 L8.45 -61.35 10.1 -61.6 Q10.75 -61.85 10.75 -62.2 10.75 -62.55 10.1 -62.8 L8.45 -63.05 M4.0 -62.7 L2.4 -62.95 0.8 -62.7 Q0.15 -62.5 0.15 -62.15 0.15 -61.8 0.8 -61.55 L2.4 -61.35 4.0 -61.55 Q4.65 -61.8 4.65 -62.15 L4.0 -62.7 M-5.3 -63.05 Q-5.95 -62.8 -5.95 -62.45 -5.95 -62.1 -5.3 -61.85 L-3.7 -61.6 -2.1 -61.85 Q-1.45 -62.1 -1.45 -62.45 -1.45 -62.8 -2.1 -63.05 L-3.7 -63.3 -5.3 -63.05" fill="#ffffff" fill-rule="evenodd" stroke="none"/>
    <path d="M9.25 -100.2 L5.75 -100.1 2.65 -100.1 -0.2 -100.1 -3.85 -100.25 -7.25 -100.45 -11.0 -100.85 -12.8 -101.1 -14.25 -101.3 -14.6 -101.35 -16.6 -101.85 -17.6 -98.0 -13.2 -97.05 -11.4 -96.8 -7.3 -96.4 -3.55 -96.2 -0.2 -96.1 2.85 -96.05 6.1 -96.05 10.05 -96.15 14.55 -96.35 16.15 -96.45 Q22.85 -97.05 26.0 -98.0 L23.85 -102.2 22.2 -101.6 21.9 -101.55 21.45 -101.45 21.15 -101.4 18.45 -101.0 14.95 -100.55 13.35 -100.4 9.25 -100.2 M28.45 -98.05 Q34.4 -87.4 33.55 -79.5 32.9 -73.25 28.1 -68.7 L26.75 -67.5 23.75 -65.45 23.85 -64.9 24.7 -58.05 Q25.3 -52.75 26.45 -46.7 L26.7 -45.25 27.1 -43.3 27.05 -43.3 27.1 -43.2 28.9 -36.25 31.05 -29.25 32.4 -25.25 32.9 -23.65 33.75 -20.85 34.3 -19.0 32.8 -18.6 Q25.9 -16.8 17.85 -16.0 L14.5 -15.7 3.95 -15.35 -10.55 -16.05 -20.8 -17.65 -25.65 -18.8 -27.1 -19.25 -26.7 -21.1 -26.45 -22.35 -26.05 -23.95 -25.7 -25.6 -24.45 -31.25 -24.05 -33.35 -23.5 -36.25 -22.35 -43.3 -22.3 -43.3 -21.85 -47.8 -20.4 -62.65 -20.35 -63.35 -20.05 -66.3 -19.85 -74.35 -19.7 -83.0 -19.6 -89.35 Q-19.55 -93.75 -19.1 -97.95 L-18.3 -103.8 -18.15 -104.65 -17.45 -103.95 -16.95 -103.6 -16.8 -103.55 -16.7 -103.5 -16.25 -103.35 Q-14.75 -102.85 -11.75 -102.5 L-11.7 -102.5 4.9 -101.6 7.35 -101.65 8.85 -101.75 8.85 -101.7 14.15 -102.0 18.2 -102.5 18.25 -102.5 20.3 -102.8 21.8 -103.1 22.05 -103.15 23.05 -103.45 23.65 -103.9 24.3 -104.4 24.45 -104.6 27.05 -100.35 28.45 -98.05 M19.55 -95.3 L15.25 -94.9 13.0 -94.75 10.8 -94.65 8.2 -94.6 6.15 -94.55 Q-0.2 -94.55 -4.15 -94.7 L-7.25 -94.9 -13.85 -95.6 -15.6 -95.95 -17.7 -96.5 -17.7 -96.3 -18.05 -90.65 -18.1 -89.35 -18.25 -81.8 -18.55 -66.25 -18.85 -63.15 -18.85 -62.55 -19.85 -51.85 -20.3 -47.65 -20.75 -43.3 -20.8 -43.3 -21.6 -37.95 -21.9 -36.25 -22.45 -33.4 -22.5 -33.15 Q-23.2 -29.2 -24.15 -25.2 L-24.55 -23.55 -24.95 -22.05 -25.25 -20.7 -17.45 -19.0 -6.1 -17.65 3.95 -17.35 16.85 -17.9 20.15 -18.25 Q26.6 -19.05 32.25 -20.45 L31.4 -23.25 30.9 -24.9 29.65 -28.8 Q28.4 -32.3 27.3 -36.25 26.4 -39.5 25.65 -42.9 L25.55 -43.3 25.6 -43.3 25.3 -44.75 25.1 -45.8 Q23.85 -52.3 23.2 -57.85 L22.15 -65.6 22.15 -65.7 22.15 -65.8 22.1 -66.2 23.3 -66.95 26.35 -69.15 27.65 -70.35 Q31.5 -74.35 32.05 -79.65 32.75 -86.95 27.3 -96.85 L27.2 -97.0 24.55 -96.1 23.8 -95.95 22.05 -95.6 19.55 -95.3" fill="#464646" fill-rule="evenodd" stroke="none"/>
  </g>
</svg>
