<?xml version="1.0" encoding="UTF-8" standalone="no"?>
<svg xmlns:ffdec="https://www.free-decompiler.com/flash" xmlns:xlink="http://www.w3.org/1999/xlink" ffdec:objectType="shape" height="9.7px" width="47.2px" xmlns="http://www.w3.org/2000/svg">
  <g transform="matrix(1.0, 0.0, 0.0, 1.0, 25.45, 104.25)">
    <path d="M20.35 -104.2 L20.2 -104.05 20.1 -103.95 20.35 -104.2 M18.8 -103.3 L18.75 -103.3 18.15 -103.15 18.8 -103.3" fill="#29150c" fill-rule="evenodd" stroke="none"/>
    <path d="M0.45 -100.1 L3.0 -100.15 3.0 -96.1 0.7 -96.05 0.45 -100.1 M-1.85 -96.05 L-6.1 -96.1 -6.0 -100.2 -1.95 -100.1 -1.85 -96.05" fill="#bababa" fill-rule="evenodd" stroke="none"/>
    <path d="M3.0 -100.15 L6.8 -100.25 7.05 -96.25 3.0 -96.1 3.0 -100.15 M13.4 -96.75 L10.5 -96.45 9.8 -100.45 12.65 -100.7 13.4 -96.75 M0.7 -96.05 L-1.85 -96.05 -1.95 -100.1 0.45 -100.1 0.7 -96.05 M-6.1 -96.1 L-10.4 -96.25 -9.8 -100.35 -6.0 -100.2 -6.1 -96.1 M-13.05 -96.45 L-15.6 -96.65 -14.8 -100.85 -12.0 -100.5 -12.5 -98.4 -13.05 -96.45 M-17.35 -96.85 L-18.7 -97.05 -17.3 -101.2 -16.1 -101.0 -17.35 -96.85" fill="#b4b4b4" fill-rule="evenodd" stroke="none"/>
    <path d="M6.8 -100.25 L14.9 -101.05 19.2 -101.85 20.2 -98.0 Q19.35 -97.3 13.4 -96.75 L12.65 -100.7 9.8 -100.45 10.5 -96.45 7.05 -96.25 6.8 -100.25 M-10.4 -96.25 L-13.05 -96.45 -12.5 -98.4 -12.0 -100.5 -9.8 -100.35 -10.4 -96.25 M-15.6 -96.65 L-17.35 -96.85 -16.1 -101.0 -17.3 -101.2 -18.7 -97.05 -23.4 -98.0 -21.25 -102.2 -21.2 -102.15 Q-21.25 -101.8 -19.6 -101.6 L-17.3 -101.2 -14.8 -100.85 -15.6 -96.65" fill="#8a8a8a" fill-rule="evenodd" stroke="none"/>
    <path d="M20.35 -104.2 L20.4 -104.25 20.4 -104.2 20.75 -102.65 20.8 -102.45 21.75 -96.9 20.25 -96.45 17.5 -95.7 14.65 -95.4 -1.1 -94.55 -7.9 -94.6 -14.15 -95.1 -21.6 -96.05 -24.15 -96.75 -25.45 -97.65 -24.85 -98.8 -24.25 -99.95 -22.9 -102.45 -22.8 -102.65 -22.0 -104.15 -19.5 -103.3 -18.15 -102.95 -16.4 -102.6 -16.0 -102.55 -15.65 -102.5 -15.6 -102.5 -11.55 -102.0 -10.1 -101.9 -0.65 -101.6 8.25 -101.85 9.55 -101.95 13.45 -102.35 14.3 -102.5 14.35 -102.5 18.15 -103.15 18.75 -103.3 18.8 -103.3 18.9 -103.35 19.4 -103.55 19.55 -103.6 20.1 -103.95 20.2 -104.05 20.35 -104.2 M3.0 -100.15 L0.45 -100.1 -1.95 -100.1 -6.0 -100.2 -9.8 -100.35 -12.0 -100.5 -14.8 -100.85 -17.3 -101.2 -19.6 -101.6 Q-21.25 -101.8 -21.2 -102.15 L-21.25 -102.2 -23.4 -98.0 -18.7 -97.05 -17.35 -96.85 -15.6 -96.65 -13.05 -96.45 -10.4 -96.25 -6.1 -96.1 -1.85 -96.05 0.7 -96.05 3.0 -96.1 7.05 -96.25 10.5 -96.45 13.4 -96.75 Q19.35 -97.3 20.2 -98.0 L19.2 -101.85 14.9 -101.05 6.8 -100.25 3.0 -100.15" fill="#464646" fill-rule="evenodd" stroke="none"/>
  </g>
</svg>
