<?xml version="1.0" encoding="UTF-8" standalone="no"?>
<svg xmlns:ffdec="https://www.free-decompiler.com/flash" xmlns:xlink="http://www.w3.org/1999/xlink" ffdec:objectType="shape" height="60.1px" width="66.0px" xmlns="http://www.w3.org/2000/svg">
  <g transform="matrix(1.0, 0.0, 0.0, 1.0, 33.1, 30.15)">
    <path d="M25.2 1.5 Q26.15 2.1 28.2 4.6 30.4 7.3 30.7 8.4 31.85 10.75 31.25 12.1 L30.35 14.05 31.9 18.85 Q31.9 23.5 30.05 26.15 28.3 28.65 25.45 28.65 L23.15 28.5 20.65 28.65 14.6 28.95 Q11.5 28.95 10.5 28.35 10.1 27.7 9.8 27.7 L-1.25 28.6 -3.9 28.0 Q-5.7 27.35 -6.45 27.35 L-8.9 27.8 -11.35 28.25 -12.75 28.0 -13.7 27.75 -16.25 28.4 -18.35 28.95 -20.15 28.5 -22.05 27.75 -27.3 26.25 Q-31.65 23.7 -31.65 14.95 -31.65 11.95 -30.75 8.7 -30.1 6.3 -29.4 5.1 -30.6 4.2 -31.45 1.7 L-32.1 -1.0 -30.75 -3.5 -30.05 -5.9 Q-29.6 -7.55 -27.35 -9.5 -24.4 -12.1 -20.75 -12.35 -19.85 -12.3 -19.6 -13.6 -19.05 -14.95 -19.05 -15.95 -19.05 -16.45 -19.45 -16.75 -19.9 -17.1 -19.9 -17.6 -19.9 -20.05 -18.35 -21.15 L-16.45 -22.05 Q-15.05 -22.85 -14.7 -24.55 L-14.2 -26.8 -12.9 -28.5 Q-12.2 -29.15 -10.6 -29.15 -10.1 -29.15 -9.3 -28.3 -8.45 -27.4 -8.15 -26.3 L-5.1 -27.15 -1.95 -26.75 Q-0.05 -26.0 -0.05 -23.65 -0.05 -22.6 3.35 -20.65 7.7 -18.25 9.9 -15.4 10.65 -14.45 11.8 -11.55 L13.6 -6.85 20.8 -10.8 26.15 -12.3 Q31.2 -12.3 31.2 -7.35 31.2 -6.0 30.4 -4.6 29.5 -2.95 27.95 -2.0 L26.35 -0.5 25.15 1.45 25.2 1.5" fill="#ffffff" fill-rule="evenodd" stroke="none"/>
    <path d="M27.15 0.1 L27.25 0.0 26.5 1.25 29.0 4.0 Q31.35 6.85 31.7 8.1 33.0 10.85 32.2 12.5 L32.15 12.55 31.45 14.1 32.9 18.85 Q32.9 23.85 30.9 26.75 28.8 29.65 25.45 29.65 L23.1 29.5 20.9 29.65 14.6 29.95 Q11.1 29.95 10.0 29.2 L9.65 28.9 Q9.6 28.75 9.7 28.75 L-1.25 29.6 -4.2 28.95 -4.25 28.95 -6.45 28.35 -8.65 28.8 -11.35 29.25 -13.0 28.95 -13.05 28.95 -13.65 28.75 -15.95 29.4 -15.95 29.35 -18.35 29.95 -20.5 29.45 -22.4 28.7 -22.35 28.7 Q-24.35 28.0 -27.55 27.25 L-27.8 27.15 Q-32.65 24.4 -32.65 14.95 -32.65 11.8 -31.7 8.45 L-30.65 5.35 Q-31.65 4.2 -32.4 2.05 -33.1 -0.1 -33.1 -1.0 L-31.65 -3.95 -31.0 -6.2 -31.0 -6.15 Q-30.55 -8.05 -28.0 -10.25 -24.8 -13.1 -20.8 -13.35 L-20.7 -13.35 -20.55 -13.8 -20.5 -13.95 Q-20.05 -15.1 -20.05 -15.95 -20.95 -16.65 -20.9 -17.6 -20.9 -20.65 -18.9 -21.95 -18.05 -22.65 -16.85 -23.0 -15.9 -23.6 -15.65 -24.75 L-15.15 -27.0 -15.0 -27.35 -13.45 -29.3 Q-12.55 -30.15 -10.6 -30.15 -9.8 -30.25 -8.55 -28.95 L-7.55 -27.55 -5.1 -28.15 -1.55 -27.65 Q0.95 -26.7 0.95 -23.65 1.15 -23.05 3.85 -21.5 8.35 -19.0 10.7 -16.0 11.5 -15.0 12.75 -11.9 L14.15 -8.25 20.35 -11.65 20.55 -11.75 26.15 -13.3 Q32.2 -13.3 32.2 -7.35 32.2 -5.75 31.3 -4.1 30.25 -2.25 28.5 -1.15 L27.15 0.1 M25.2 1.5 L25.15 1.45 26.35 -0.5 27.95 -2.0 Q29.5 -2.95 30.4 -4.6 31.2 -6.0 31.2 -7.35 31.2 -12.3 26.15 -12.3 L20.8 -10.8 13.6 -6.85 11.8 -11.55 Q10.65 -14.45 9.9 -15.4 7.7 -18.25 3.35 -20.65 -0.05 -22.6 -0.05 -23.65 -0.05 -26.0 -1.95 -26.75 L-5.1 -27.15 -8.15 -26.3 Q-8.45 -27.4 -9.3 -28.3 -10.1 -29.15 -10.6 -29.15 -12.2 -29.15 -12.9 -28.5 L-14.2 -26.8 -14.7 -24.55 Q-15.05 -22.85 -16.45 -22.05 L-18.35 -21.15 Q-19.9 -20.05 -19.9 -17.6 -19.9 -17.1 -19.45 -16.75 -19.05 -16.45 -19.05 -15.95 -19.05 -14.95 -19.6 -13.6 -19.85 -12.3 -20.75 -12.35 -24.4 -12.1 -27.35 -9.5 -29.6 -7.55 -30.05 -5.9 L-30.75 -3.5 -32.1 -1.0 -31.45 1.7 Q-30.6 4.2 -29.4 5.1 -30.1 6.3 -30.75 8.7 -31.65 11.95 -31.65 14.95 -31.65 23.7 -27.3 26.25 L-22.05 27.75 -20.15 28.5 -18.35 28.95 -16.25 28.4 -13.7 27.75 -12.75 28.0 -11.35 28.25 -8.9 27.8 -6.45 27.35 Q-5.7 27.35 -3.9 28.0 L-1.25 28.6 9.8 27.7 Q10.1 27.7 10.5 28.35 11.5 28.95 14.6 28.95 L20.65 28.65 23.15 28.5 25.45 28.65 Q28.3 28.65 30.05 26.15 31.9 23.5 31.9 18.85 L30.35 14.05 31.25 12.1 Q31.85 10.75 30.7 8.4 30.4 7.3 28.2 4.6 26.15 2.1 25.2 1.5" fill="#c6c6c6" fill-rule="evenodd" stroke="none"/>
    <path d="M-2.05 3.8 L-1.8 3.6 Q-2.6 2.8 -3.0 1.75 L-3.3 0.45 -3.05 -1.45 -2.75 -3.35 -2.95 -4.05 -1.95 -3.7 -0.3 -3.2 2.05 -2.9 3.75 -2.7 6.1 -2.85 7.9 -3.2 7.9 -3.1 7.5 -2.55 7.1 -1.45 7.1 -1.15 7.3 -0.95 8.05 -0.35 9.1 -0.4 10.6 -0.4 Q10.9 -0.85 10.9 -2.9 10.9 -6.1 9.6 -8.3 L8.35 -9.9 7.1 -11.35 6.05 -12.25 4.85 -13.0 4.4 -13.5 2.85 -13.7 -0.85 -13.0 Q-4.15 -11.95 -8.2 -9.55 L-9.5 -8.6 -10.2 -7.9 -11.75 -6.3 Q-12.15 -5.85 -12.25 -5.95 -11.25 -4.1 -10.5 -1.95 -9.85 0.1 -9.85 0.95 L-10.05 2.2 -10.2 3.75 -10.1 3.95 -9.95 4.15 -10.2 4.55 -10.75 5.4 -10.7 5.5 -10.5 5.6 -10.05 5.4 -9.5 5.2 -8.45 5.0 -6.75 4.85 -5.9 5.05 -5.4 5.4 -4.85 5.3 -3.8 5.35 -3.15 5.5 -2.7 5.45 -2.6 5.45 -1.3 5.6 -0.05 6.2 0.9 5.95 3.45 6.0 4.0 5.75 4.6 5.5 5.0 5.05 5.15 4.75 5.8 2.95 4.3 3.15 5.9 2.85 6.35 2.75 6.8 2.65 8.8 2.35 10.45 1.9 Q11.35 1.9 11.9 1.55 12.4 1.2 12.4 0.65 L12.15 0.15 11.45 -0.05 10.75 -0.15 10.35 -0.15 10.55 0.05 9.05 -0.05 7.85 -0.05 8.35 0.1 7.9 0.05 Q5.8 0.05 3.9 0.8 L-0.75 3.3 -1.7 3.9 -1.95 4.2 -2.45 4.35 -2.75 4.5 -2.05 3.8 M-5.9 -8.75 L-4.65 -9.1 -3.65 -9.25 -1.2 -8.7 0.9 -7.95 2.35 -7.45 2.8 -7.1 3.0 -6.8 Q2.9 -6.8 2.95 -6.4 L2.95 -5.75 3.6 -5.2 4.1 -4.8 1.2 -6.05 -1.5 -6.4 -4.1 -6.0 -5.75 -5.3 -5.35 -5.6 -4.2 -6.2 -3.7 -6.45 Q-3.8 -8.15 -4.05 -8.6 L-4.9 -8.85 -5.8 -8.75 -5.9 -8.75 M6.2 -4.95 L6.0 -5.0 7.3 -5.45 8.65 -5.75 9.3 -5.7 10.1 -5.55 9.9 -5.35 10.4 -4.8 9.85 -4.8 10.1 -4.35 10.4 -3.7 10.05 -3.35 8.85 -4.35 7.75 -4.8 6.2 -4.95 M-12.8 -6.7 L-10.05 -8.75 Q-7.8 -10.5 -6.0 -11.3 -2.7 -12.9 -0.35 -13.65 2.15 -14.5 3.75 -14.5 L4.45 -14.4 5.35 -14.15 6.15 -13.35 Q6.6 -12.85 6.7 -13.1 6.45 -14.75 5.0 -15.2 L2.6 -15.4 -1.9 -14.25 Q-1.05 -14.75 0.8 -15.35 L2.75 -15.85 1.7 -16.75 0.65 -17.8 -1.45 -19.3 -3.45 -20.15 Q-5.0 -20.8 -6.7 -20.8 L-8.1 -20.7 -9.75 -20.25 Q-12.9 -19.05 -14.45 -16.8 -16.05 -14.5 -16.05 -11.3 L-15.8 -7.6 Q-15.6 -6.7 -15.2 -6.7 -15.1 -6.7 -14.65 -7.0 L-15.4 -5.55 -14.55 -5.1 -12.8 -6.7 M26.25 -9.85 Q27.0 -9.85 27.6 -9.05 28.2 -8.25 28.2 -7.35 L27.7 -6.05 Q27.05 -5.1 26.1 -4.95 L24.95 -4.95 23.95 -4.95 Q23.1 -4.8 23.1 -4.3 23.1 -4.0 23.45 -3.4 L23.85 -2.4 Q23.85 -1.8 23.1 -0.85 22.25 0.3 21.35 0.3 L18.7 -0.2 Q17.05 -0.7 15.8 -1.45 L13.1 0.1 13.25 0.75 Q13.25 1.25 12.9 1.65 L12.0 2.4 Q14.65 2.25 18.65 2.45 L23.65 2.75 24.5 4.85 24.65 5.35 25.0 5.65 25.7 5.85 Q26.1 5.95 26.1 6.1 L26.4 6.4 27.05 6.95 Q28.0 8.1 28.0 10.95 L27.7 12.9 27.0 13.5 Q27.85 13.75 28.15 14.55 L28.3 15.45 28.65 17.0 28.9 18.8 28.6 22.45 28.25 23.25 27.35 24.25 26.75 24.65 26.25 25.15 Q25.6 25.65 25.0 25.65 L24.25 25.45 23.7 25.1 23.3 24.9 22.1 25.15 21.6 25.05 21.05 25.0 20.6 25.35 Q20.2 25.7 19.55 25.7 L18.15 25.45 17.55 25.15 17.1 25.3 16.6 25.65 16.05 25.8 15.3 25.9 13.6 25.6 12.95 25.3 12.45 25.15 11.9 25.0 11.45 24.85 11.05 24.9 10.55 24.95 10.1 24.85 9.8 24.7 8.9 24.85 8.2 24.95 6.25 25.15 4.75 24.95 4.3 24.75 4.05 24.85 3.9 24.9 1.6 25.5 1.05 25.6 Q0.3 25.6 -0.1 25.05 L-0.65 25.4 -1.2 25.6 -2.0 25.6 -2.9 25.45 -3.25 25.35 -4.85 25.15 Q-5.55 25.05 -6.25 24.5 L-7.1 23.55 -7.8 24.1 -8.6 24.65 Q-9.75 25.2 -10.85 25.2 -12.15 25.05 -13.25 24.45 L-14.2 25.45 -14.55 25.65 -14.8 25.85 -15.2 25.85 -15.55 25.8 -16.45 25.65 -17.9 25.5 -18.9 25.95 -19.85 25.65 -20.35 25.15 -20.7 24.8 -23.35 25.0 -24.45 24.9 -25.15 24.15 -26.2 23.3 Q-27.15 22.45 -27.1 22.0 L-27.7 19.95 -28.1 17.95 -28.35 16.75 -28.5 16.45 -28.65 14.95 -28.4 13.2 Q-28.25 12.15 -28.45 11.2 -28.6 10.55 -27.75 9.0 L-27.15 7.9 -26.55 7.05 -25.4 6.15 Q-24.3 5.5 -23.35 5.5 L-22.4 5.55 -21.45 5.7 -21.9 4.1 Q-23.45 3.75 -24.2 3.1 -24.75 2.65 -25.55 2.5 L-27.05 2.35 Q-27.95 2.1 -28.5 1.35 -29.05 0.5 -29.05 -0.55 L-29.1 -1.0 -29.0 -1.3 -27.45 -3.55 -27.5 -4.55 -27.15 -5.85 -25.9 -7.0 -24.8 -7.55 -23.45 -7.7 -22.7 -8.7 -21.6 -9.25 -20.75 -9.35 -19.8 -9.05 Q-19.0 -8.7 -18.75 -8.35 L-18.4 -7.6 -17.65 -6.95 -16.9 -6.45 Q-17.2 -10.75 -16.7 -13.35 -16.15 -16.4 -14.45 -18.15 L-15.4 -18.05 -16.05 -17.8 -16.45 -17.65 -16.75 -17.75 Q-16.95 -17.85 -16.95 -18.1 L-15.6 -19.45 Q-13.95 -20.6 -12.2 -21.1 L-12.3 -21.85 -12.4 -22.55 Q-12.4 -23.65 -12.0 -24.95 -11.6 -26.2 -11.15 -26.2 L-10.9 -25.9 -10.2 -22.95 -8.85 -24.95 Q-8.1 -25.7 -7.8 -25.7 L-7.5 -25.6 -7.35 -25.25 -7.55 -24.25 -7.8 -23.2 -6.2 -23.8 -4.95 -24.15 -3.2 -23.95 -3.05 -23.5 Q-3.05 -23.35 -3.35 -23.25 L-4.55 -22.85 -5.4 -22.1 -5.75 -21.45 -3.75 -21.05 -1.45 -20.0 1.4 -18.2 Q3.7 -16.65 4.05 -16.2 5.1 -16.5 6.35 -15.25 7.5 -14.1 7.5 -13.15 L7.25 -12.35 Q9.15 -10.75 10.15 -9.05 11.7 -6.3 11.7 -2.45 L12.95 -3.0 14.7 -4.25 18.4 -7.1 Q19.95 -8.1 20.55 -8.1 L22.95 -8.95 Q24.85 -9.85 26.25 -9.85 M7.9 -7.05 L7.8 -7.8 7.2 -8.9 5.5 -7.45 4.65 -6.95 4.95 -6.5 5.35 -5.9 6.5 -6.3 5.95 -6.65 Q5.75 -6.95 5.7 -7.35 L6.0 -7.85 6.75 -8.1 7.35 -7.6 7.5 -7.2 7.4 -6.95 7.15 -6.5 Q7.35 -6.5 7.55 -6.7 L7.9 -7.05 M8.35 -6.65 L9.3 -6.5 7.5 -6.15 5.1 -5.45 4.25 -7.15 Q5.3 -7.6 6.6 -8.9 L7.9 -10.25 7.5 -9.3 7.9 -8.4 8.35 -6.65 M1.65 -6.9 L1.45 -6.45 2.4 -6.05 2.6 -5.95 2.65 -6.55 2.35 -7.0 1.45 -7.35 1.65 -6.9 M-6.25 -4.55 Q-6.25 -5.05 -4.95 -5.45 L-2.25 -5.85 -1.5 -5.8 0.65 -5.5 1.3 -4.9 -0.65 -4.95 -1.9 -4.8 -3.2 -4.3 -3.8 -3.85 Q-4.2 -3.55 -4.5 -3.5 L-5.3 -2.9 -5.3 -3.35 -6.6 -2.75 -6.05 -4.15 -6.25 -4.55 M4.85 0.1 L5.0 0.05 4.65 -0.6 3.9 -0.65 1.3 -0.4 3.95 -1.0 4.9 -1.05 5.5 -1.75 5.95 -2.45 Q2.85 -1.85 -2.25 -3.5 L-2.7 -1.3 -2.9 -0.4 Q-2.9 -0.1 -2.5 0.3 L-1.95 0.6 0.0 -0.05 -1.4 0.95 -2.3 2.3 -1.5 3.3 Q0.1 2.05 2.6 0.95 3.85 0.4 4.85 0.1 M15.8 -4.0 L15.85 -4.25 14.85 -3.4 14.8 -3.35 14.75 -3.2 13.2 -2.3 13.25 -0.85 13.3 -0.75 15.65 -2.25 15.65 -2.4 15.65 -2.5 15.45 -2.8 Q16.35 -2.15 17.6 -1.45 19.65 -0.4 20.85 -0.4 21.2 -0.4 21.65 -0.8 L22.25 -1.3 22.15 -1.0 22.65 -1.6 23.0 -2.3 Q23.0 -3.05 22.5 -3.35 L21.7 -3.6 21.2 -3.6 20.85 -3.55 Q21.7 -3.5 22.3 -2.2 L22.35 -2.1 21.0 -1.6 20.15 -1.45 20.0 -1.45 16.25 -2.9 16.6 -3.2 17.15 -3.55 17.45 -3.65 Q15.8 -3.65 15.8 -4.0 M27.05 -8.1 L23.25 -7.15 Q20.5 -6.25 20.15 -6.0 L18.8 -5.05 Q17.75 -4.15 17.75 -3.4 17.75 -2.9 18.7 -2.55 L21.2 -2.1 21.65 -2.15 22.15 -2.45 20.55 -3.1 Q19.3 -3.55 19.1 -4.15 L19.2 -4.4 19.35 -4.5 19.45 -4.35 19.6 -4.0 Q21.0 -4.15 22.0 -4.7 22.95 -5.2 22.95 -5.6 L22.6 -6.2 23.8 -5.95 25.3 -5.7 Q26.25 -5.7 26.9 -6.4 27.5 -6.95 27.5 -7.6 L27.35 -8.25 26.7 -9.0 26.1 -8.45 26.8 -8.3 27.05 -8.1 M20.5 4.35 L20.2 3.35 19.85 4.3 19.7 3.4 19.3 3.3 19.65 5.65 20.0 5.65 20.2 4.8 20.3 5.65 20.7 5.65 20.85 4.45 21.05 3.35 20.85 3.3 20.65 3.3 20.5 4.35 M23.05 3.3 L22.55 3.4 22.6 4.7 22.3 4.1 21.8 3.3 21.35 3.3 21.35 4.1 21.4 5.6 21.8 5.6 21.9 5.55 21.85 4.3 22.6 5.65 23.1 5.65 23.15 4.75 23.05 3.3 M23.65 24.05 L24.05 24.3 Q24.8 24.7 25.15 24.7 25.45 24.7 26.25 23.9 L26.65 23.65 27.25 23.2 Q28.0 22.45 28.0 19.3 L28.05 18.4 27.95 17.65 27.85 17.1 27.5 16.0 27.45 15.65 27.5 15.3 27.35 14.9 26.95 14.45 Q26.6 14.2 26.4 13.6 L26.2 12.9 27.05 12.4 27.2 10.6 27.2 9.75 27.05 9.0 26.55 7.7 26.1 7.2 25.65 6.8 25.0 6.55 23.95 6.3 23.25 6.3 22.6 6.25 21.8 6.15 Q21.25 6.15 20.65 6.55 L20.1 7.1 Q20.05 6.65 19.25 6.35 L18.25 6.15 16.9 6.2 15.9 6.15 Q15.9 6.0 15.45 5.95 L15.0 5.9 14.7 6.0 Q14.4 6.15 14.25 6.35 L13.35 6.2 12.45 6.2 10.25 6.3 8.2 6.45 7.2 6.4 6.3 6.3 5.2 6.15 Q4.7 6.15 4.45 6.55 4.25 6.9 4.35 7.2 4.1 6.95 3.35 6.9 L2.35 6.85 1.55 6.8 0.95 6.75 Q0.6 6.75 0.35 7.0 L0.1 7.55 -0.35 7.15 -0.7 6.8 -2.35 6.3 -2.9 6.3 -3.85 6.2 -4.55 6.15 -5.25 6.3 -5.75 6.55 Q-5.75 6.2 -6.1 5.9 L-7.0 5.65 -7.5 5.7 -8.0 5.8 Q-8.9 5.8 -9.75 6.25 L-10.95 6.75 -11.1 6.65 -11.0 6.55 Q-11.0 6.25 -12.35 5.95 L-13.5 5.85 -13.95 6.0 -14.55 6.45 Q-14.9 6.15 -15.4 6.15 L-16.2 6.15 -17.3 6.2 -18.2 6.15 Q-18.2 6.0 -18.65 5.95 L-19.15 5.85 Q-19.55 5.85 -19.8 6.3 L-20.0 7.55 Q-20.2 6.95 -21.3 6.6 L-23.2 6.35 -24.35 6.6 -25.1 7.05 Q-26.05 7.55 -26.5 8.35 L-26.7 8.85 -26.85 9.15 -27.2 9.95 -27.45 10.4 Q-27.7 10.4 -27.7 11.35 L-27.7 11.8 -27.55 12.05 -27.45 12.1 -27.5 12.3 -27.45 12.95 Q-27.45 13.4 -27.6 13.4 -27.8 13.4 -27.8 15.25 L-27.6 16.25 -27.35 17.4 -26.9 19.45 -26.4 21.45 Q-26.4 22.05 -25.65 22.7 L-24.75 23.4 -24.0 24.05 -23.35 24.2 -20.0 23.75 Q-20.15 24.2 -19.8 24.65 -19.45 25.0 -19.05 25.0 L-18.45 24.85 -17.8 24.65 -16.35 24.8 -15.9 24.9 -15.25 25.0 Q-14.7 25.0 -14.3 24.55 -13.85 24.0 -13.7 23.0 L-12.25 24.05 -11.0 24.35 -10.45 24.35 -9.15 23.9 -8.5 23.45 -7.8 22.95 -7.1 22.5 -6.85 22.0 Q-6.8 21.35 -6.7 21.85 L-6.6 22.6 -6.25 23.15 -5.85 23.7 Q-5.4 24.15 -4.8 24.2 L-3.75 24.2 -3.2 24.45 -2.25 24.7 -1.3 24.7 -0.7 24.35 0.1 23.75 0.25 23.65 Q0.2 24.05 0.45 24.4 0.75 24.75 1.15 24.75 L1.5 24.7 3.8 24.1 4.25 23.55 4.35 23.35 Q4.5 23.9 5.0 24.05 L7.05 24.2 8.2 24.15 8.5 24.1 9.95 23.8 10.7 24.15 11.5 23.85 11.45 23.85 11.55 23.8 Q11.75 23.8 12.0 24.05 L12.5 24.3 13.1 24.05 13.75 24.8 14.55 24.85 14.8 24.95 15.1 25.0 16.05 25.0 16.7 24.7 17.05 24.4 17.4 24.2 Q17.55 24.2 18.3 24.55 L19.6 24.85 Q20.1 24.85 20.5 24.45 L21.1 24.05 21.65 24.2 22.25 24.3 23.0 24.1 23.4 23.9 23.6 24.05 23.65 24.05 M17.85 3.65 L18.5 3.65 18.5 5.3 17.85 5.3 17.85 3.65 M17.4 3.3 L17.4 5.65 18.95 5.65 18.95 3.3 17.4 3.3 M15.3 3.35 L15.3 3.75 15.95 3.75 15.95 4.8 15.95 5.65 16.45 5.65 16.45 3.75 17.1 3.75 17.1 3.4 15.3 3.35 M14.5 3.3 L14.45 3.4 14.55 4.7 14.2 4.1 13.75 3.3 13.25 3.3 13.25 4.1 13.35 5.6 13.75 5.6 13.85 5.55 13.8 4.3 14.55 5.65 15.0 5.65 15.1 4.75 14.95 3.3 14.5 3.3 M11.35 3.3 L11.35 5.65 12.95 5.65 12.95 3.3 11.35 3.3 M10.4 3.3 L10.3 4.85 10.4 5.65 10.95 5.65 11.05 5.05 10.9 3.3 10.4 3.3 M11.8 3.65 L12.45 3.65 12.45 5.3 11.8 5.3 11.8 3.65 M9.95 3.3 L9.45 3.4 9.5 4.7 9.15 4.1 8.7 3.3 8.3 3.3 8.25 4.1 8.35 5.6 8.7 5.6 8.8 5.55 8.8 4.3 9.5 5.65 10.0 5.65 10.1 4.75 9.95 3.3 M6.8 3.65 L7.45 3.65 7.45 5.3 6.8 5.3 6.8 3.65 M6.3 3.3 L6.3 5.65 7.9 5.65 7.9 3.3 6.3 3.3 M-23.8 -4.0 L-22.8 -4.1 Q-22.05 -4.55 -22.05 -5.35 -22.05 -6.05 -22.55 -6.55 -23.05 -7.05 -23.8 -7.05 -24.9 -7.05 -25.85 -6.15 -26.8 -5.25 -26.8 -4.3 L-26.55 -3.65 Q-25.95 -3.65 -25.95 -3.85 L-26.05 -4.1 -25.85 -4.4 -25.6 -4.5 -24.95 -4.2 -24.45 -4.0 -24.4 -4.0 Q-24.0 -3.85 -24.45 -4.15 L-24.4 -4.15 -23.8 -4.0 M-19.85 -7.35 L-19.2 -7.2 -19.4 -7.95 Q-19.8 -8.6 -20.65 -8.6 L-21.35 -8.55 -21.6 -8.4 -22.2 -7.8 -22.8 -7.15 -22.5 -7.15 -21.85 -7.35 -20.8 -7.4 -19.85 -7.35 M-20.2 -6.7 L-20.8 -6.8 -21.55 -6.7 -22.15 -6.6 Q-21.6 -6.05 -21.6 -5.6 -21.6 -5.1 -22.05 -4.45 -22.6 -3.45 -23.6 -3.45 L-24.6 -3.65 -24.85 -3.75 -25.25 -4.0 -25.4 -3.7 -24.95 -3.25 -24.65 -2.6 -24.75 -2.1 -25.0 -1.45 -25.4 -1.15 -25.6 -0.75 Q-25.6 -0.2 -24.75 0.9 L-23.7 2.15 Q-22.55 3.1 -20.65 3.1 -18.4 3.1 -17.0 1.35 -15.9 -0.1 -15.9 -1.8 -15.9 -4.0 -17.2 -5.25 L-17.3 -5.45 -17.5 -5.5 -18.1 -5.9 -18.9 -6.45 -19.4 -6.6 -20.15 -6.7 -20.2 -6.7 M-26.35 -0.35 L-25.5 -1.3 Q-24.95 -1.9 -24.95 -2.45 -24.95 -2.9 -25.4 -3.2 L-26.05 -3.4 Q-27.05 -3.4 -27.7 -2.35 -28.25 -1.4 -28.25 -0.35 -28.25 0.5 -27.75 1.05 -27.15 1.7 -26.35 1.65 L-25.9 0.5 -26.1 -0.15 -26.1 -0.25 -26.2 -0.35 -26.35 -0.35 M-6.2 -23.15 L-7.3 -22.55 -8.3 -21.6 -8.6 -21.75 -8.65 -22.2 -8.45 -23.5 -8.2 -24.65 -8.1 -24.9 Q-8.55 -24.6 -9.1 -23.3 L-9.9 -21.3 -9.9 -21.2 -10.05 -21.2 Q-11.45 -22.5 -11.45 -24.25 L-11.55 -23.95 -11.65 -22.85 -11.6 -21.8 -11.05 -20.65 -11.1 -20.45 -11.15 -20.4 -11.45 -20.4 -12.1 -20.35 -12.9 -20.1 -14.2 -19.45 -15.1 -18.8 -15.0 -18.8 -13.05 -18.8 -11.25 -20.0 -9.9 -20.65 -9.0 -20.95 -7.6 -21.15 -6.7 -21.1 -6.55 -21.45 -6.05 -22.4 -5.4 -23.15 -5.1 -23.35 -5.65 -23.25 -6.2 -23.15 M-4.7 -17.8 L-4.35 -18.45 -4.15 -18.5 -1.4 -17.75 -0.2 -17.0 -0.2 -15.65 Q-0.25 -15.55 -0.4 -15.55 L-2.9 -16.15 -3.4 -15.0 -3.55 -14.6 -3.7 -14.45 -3.7 -14.4 -4.0 -14.0 -6.0 -14.8 -6.1 -14.95 -4.7 -17.8 M-0.6 -17.05 L-2.25 -17.6 -4.1 -18.05 -5.95 -14.95 -4.15 -14.45 -3.35 -16.2 -2.9 -16.6 -2.1 -16.4 -0.6 -16.05 -0.6 -17.05 M-15.3 -3.0 L-15.25 -2.6 Q-14.4 -3.35 -14.4 -3.7 -14.4 -4.3 -14.65 -4.7 -14.95 -5.2 -15.45 -5.2 L-16.25 -5.1 -15.95 -4.65 -15.3 -3.0 M-15.1 -2.15 L-15.25 -2.15 -15.25 -1.8 -15.1 -2.15 M-13.7 -2.95 Q-14.55 -1.6 -14.9 -1.45 L-14.3 0.65 -13.85 0.45 -13.1 0.3 -12.95 0.3 -13.0 0.35 -14.8 2.25 -16.15 3.95 -17.5 5.35 -14.75 5.35 -14.45 5.2 -14.65 4.9 -14.75 4.65 -14.7 4.5 -14.65 4.5 -12.75 2.8 Q-12.4 2.45 -12.2 1.75 L-12.1 1.0 Q-12.1 -0.05 -12.55 -1.1 L-13.7 -2.95 M-12.4 -5.6 Q-13.35 -4.2 -13.35 -3.8 L-12.4 -2.3 Q-11.45 -0.75 -11.4 -0.15 L-11.2 1.7 Q-11.0 2.5 -10.4 2.7 L-10.2 0.8 Q-10.2 -0.25 -10.85 -2.05 L-12.4 -5.6 M-0.2 -7.5 L0.05 -7.8 -0.55 -7.95 -1.5 -8.35 -3.55 -8.75 -3.55 -8.6 -3.65 -8.2 -3.5 -7.5 -3.3 -6.55 -2.25 -6.7 -0.25 -6.8 -0.3 -7.0 -0.2 -7.5 M-11.9 2.75 L-12.8 3.9 -13.4 4.6 -13.15 5.0 -12.2 5.1 -11.8 5.3 -11.3 5.45 -10.9 5.05 -10.5 4.45 Q-10.35 4.35 -10.35 4.1 L-10.65 3.65 -11.25 3.15 -11.65 2.8 -11.9 2.75 M-15.2 0.45 Q-15.45 1.2 -16.25 2.15 L-17.2 3.0 -17.6 3.65 -17.55 4.05 -15.05 0.9 -15.2 0.45 M-18.7 3.9 L-19.9 4.25 -20.95 4.4 -20.5 5.85 -20.5 5.8 Q-20.5 5.7 -20.35 5.7 L-20.05 5.5 -19.8 5.2 -19.1 5.05 -18.25 5.2 -18.7 3.9" fill="#2e1738" fill-rule="evenodd" stroke="none"/>
    <path d="M-8.45 5.0 L-9.5 5.2 -10.05 5.4 -10.5 5.6 -10.7 5.5 -10.75 5.4 -10.2 4.55 -9.95 4.15 -10.1 3.95 -10.2 3.75 -10.05 2.2 -9.85 0.95 Q-9.85 0.1 -10.5 -1.95 -11.25 -4.1 -12.25 -5.95 -12.15 -5.85 -11.75 -6.3 L-10.2 -7.9 -9.5 -8.6 -8.2 -9.55 Q-4.15 -11.95 -0.85 -13.0 L2.85 -13.7 4.4 -13.5 4.85 -13.0 6.05 -12.25 7.1 -11.35 8.35 -9.9 9.6 -8.3 Q10.9 -6.1 10.9 -2.9 10.9 -0.85 10.6 -0.4 L9.1 -0.4 8.05 -0.35 7.3 -0.95 7.1 -1.15 7.1 -1.45 7.5 -2.55 7.9 -3.1 7.9 -3.2 6.1 -2.85 3.75 -2.7 2.05 -2.9 -0.3 -3.2 -1.95 -3.7 -2.95 -4.05 -2.75 -3.35 -3.05 -1.45 -3.3 0.45 -3.0 1.75 Q-2.6 2.8 -1.8 3.6 L-2.05 3.8 Q-2.8 3.45 -3.2 2.0 -3.65 0.7 -3.65 -1.1 -3.65 -3.0 -3.3 -3.75 -2.95 -4.5 -2.15 -4.5 L0.2 -3.95 Q2.5 -3.4 4.2 -3.4 L5.9 -3.45 6.1 -3.5 Q7.1 -3.7 7.65 -3.5 L8.85 -3.25 8.85 -4.35 10.05 -3.35 10.4 -3.7 10.1 -4.35 9.85 -4.8 10.4 -4.8 9.9 -5.35 10.1 -5.55 9.3 -5.7 8.65 -5.75 7.3 -5.45 6.0 -5.0 6.2 -4.95 6.05 -4.95 5.55 -4.9 3.6 -5.2 2.95 -5.75 2.95 -6.4 Q2.9 -6.8 3.0 -6.8 L2.8 -7.1 2.35 -7.45 0.9 -7.95 -1.2 -8.7 -3.65 -9.25 -4.65 -9.1 -5.9 -8.75 -6.05 -8.6 -5.7 -9.4 -4.5 -9.65 -0.75 -9.0 Q1.35 -8.4 3.3 -7.45 L4.6 -8.2 5.5 -8.95 6.4 -9.6 4.95 -10.8 4.3 -11.2 3.9 -11.55 3.45 -11.95 2.8 -12.15 4.05 -10.2 4.8 -8.7 4.7 -8.6 2.8 -10.85 1.8 -11.9 1.2 -12.35 0.2 -12.55 -0.1 -12.55 -0.1 -12.6 -1.15 -12.35 Q-4.95 -11.45 -8.15 -9.05 L-10.2 -7.15 Q-11.0 -6.2 -11.0 -5.75 L-10.45 -4.85 -9.7 -3.5 -9.1 -1.15 -8.9 0.65 -9.35 3.95 -9.1 4.4 -8.45 5.0 M11.45 -0.05 L12.15 0.15 12.4 0.65 Q12.4 1.2 11.9 1.55 11.35 1.9 10.45 1.9 L8.8 2.35 6.8 2.65 6.35 2.75 5.9 2.85 4.3 3.15 5.8 2.95 5.15 4.75 5.0 5.05 4.6 5.5 4.0 5.75 3.45 6.0 4.3 5.0 4.7 3.7 2.7 4.3 0.8 4.8 0.5 4.7 0.3 4.6 Q0.6 3.1 4.05 2.5 L8.8 1.95 11.35 1.45 Q11.95 1.25 11.95 0.6 L11.45 -0.05 M8.35 -6.65 L7.9 -8.4 7.5 -9.3 7.9 -10.25 6.6 -8.9 Q5.3 -7.6 4.25 -7.15 L5.1 -5.45 7.5 -6.15 9.3 -6.5 8.35 -6.65 M15.8 -4.0 Q15.8 -3.65 17.45 -3.65 L17.15 -3.55 16.6 -3.2 16.25 -2.9 20.0 -1.45 20.15 -1.45 21.0 -1.6 22.35 -2.1 22.3 -2.2 Q21.7 -3.5 20.85 -3.55 L21.2 -3.6 21.7 -3.6 22.5 -3.35 Q23.0 -3.05 23.0 -2.3 L22.65 -1.6 22.15 -1.0 22.25 -1.3 21.65 -0.8 Q21.2 -0.4 20.85 -0.4 19.65 -0.4 17.6 -1.45 16.35 -2.15 15.45 -2.8 L15.65 -2.5 15.65 -2.4 15.65 -2.25 13.3 -0.75 13.25 -0.85 13.2 -2.3 14.75 -3.2 14.8 -3.35 14.85 -3.4 15.85 -4.25 15.8 -4.0 M27.05 -8.1 L26.8 -8.3 26.1 -8.45 26.7 -9.0 27.35 -8.25 27.5 -7.6 Q27.5 -6.95 26.9 -6.4 26.25 -5.7 25.3 -5.7 L23.8 -5.95 22.6 -6.2 22.95 -5.6 Q22.95 -5.2 22.0 -4.7 21.0 -4.15 19.6 -4.0 20.5 -4.3 21.2 -4.95 L21.75 -5.6 21.75 -5.8 21.65 -5.95 21.45 -6.2 21.35 -6.2 21.95 -6.55 Q22.15 -6.85 22.65 -6.85 L23.35 -6.7 24.2 -6.55 Q27.15 -6.55 27.15 -7.65 L27.05 -8.1 M-23.8 -4.0 Q-23.4 -4.0 -23.0 -4.4 -22.5 -4.8 -22.5 -5.25 -22.5 -5.85 -23.05 -6.2 L-24.35 -6.45 Q-25.05 -6.45 -25.5 -6.05 -25.9 -5.75 -24.45 -4.15 -25.9 -5.2 -25.2 -4.65 L-24.45 -4.15 Q-24.0 -3.85 -24.4 -4.0 L-24.45 -4.0 -24.95 -4.2 -25.6 -4.5 -25.85 -4.4 -26.05 -4.1 -25.95 -3.85 Q-25.95 -3.65 -26.55 -3.65 L-26.8 -4.3 Q-26.8 -5.25 -25.85 -6.15 -24.9 -7.05 -23.8 -7.05 -23.05 -7.05 -22.55 -6.55 -22.05 -6.05 -22.05 -5.35 -22.05 -4.55 -22.8 -4.1 L-23.8 -4.0 M-21.85 -7.35 L-22.5 -7.15 -22.8 -7.15 -22.2 -7.8 -21.6 -8.4 -21.35 -8.55 -20.65 -8.6 Q-19.8 -8.6 -19.4 -7.95 L-19.2 -7.2 -19.85 -7.35 Q-20.05 -8.3 -21.05 -8.3 L-21.5 -8.1 -21.85 -7.35 M-26.1 -0.15 L-25.9 0.5 -26.35 1.65 Q-27.15 1.7 -27.75 1.05 -28.25 0.5 -28.25 -0.35 -28.25 -1.4 -27.7 -2.35 -27.05 -3.4 -26.05 -3.4 L-25.4 -3.2 Q-24.95 -2.9 -24.95 -2.45 -24.95 -1.9 -25.5 -1.3 L-26.35 -0.35 -26.4 -0.2 -26.65 -0.2 -26.1 -0.15 M-25.4 -2.25 L-25.7 -2.75 -26.15 -2.95 -27.15 -2.45 -27.65 -1.6 -27.3 -1.15 -26.75 -1.0 Q-26.3 -1.0 -25.9 -1.3 -25.4 -1.6 -25.4 -2.25 M-15.95 -4.65 L-16.25 -5.1 -15.45 -5.2 Q-14.95 -5.2 -14.65 -4.7 -14.4 -4.3 -14.4 -3.7 -14.4 -3.35 -15.25 -2.6 L-15.3 -3.0 -15.1 -3.4 -15.05 -3.7 Q-15.05 -4.2 -15.95 -4.65 M-13.7 -2.95 L-12.55 -1.1 Q-12.1 -0.05 -12.1 1.0 L-12.2 1.75 Q-12.4 2.45 -12.75 2.8 L-14.65 4.5 -14.7 4.5 -14.75 4.65 -14.65 4.9 -14.45 5.2 -14.75 5.35 -17.5 5.35 -16.15 3.95 -14.8 2.25 -13.0 0.35 -12.95 0.3 -13.1 0.3 -13.85 0.45 -14.3 0.65 -14.9 -1.45 Q-14.55 -1.6 -13.7 -2.95 M-5.8 -8.75 L-4.9 -8.85 -4.05 -8.6 Q-3.8 -8.15 -3.7 -6.45 L-4.2 -6.2 -4.35 -7.55 Q-4.65 -8.55 -5.8 -8.75 M-15.1 4.3 L-13.8 3.25 Q-12.85 2.25 -12.95 1.7 -13.85 1.75 -14.75 2.9 L-15.45 4.0 -15.4 4.2 -15.1 4.3 M-18.7 3.9 L-18.25 5.2 -19.1 5.05 -19.8 5.2 -20.05 5.5 -20.35 5.7 Q-20.5 5.7 -20.5 5.8 L-20.5 5.85 -20.95 4.4 -19.9 4.25 -18.7 3.9" fill="#6b248a" fill-rule="evenodd" stroke="none"/>
    <path d="M4.6 -8.2 L3.3 -7.45 Q1.35 -8.4 -0.75 -9.0 L-4.5 -9.65 -5.7 -9.4 -6.05 -8.6 -5.5 -7.45 -5.1 -6.4 -5.2 -6.05 -5.4 -5.6 -5.35 -5.6 -5.75 -5.3 -4.1 -6.0 -1.5 -6.4 1.2 -6.05 4.1 -4.8 3.6 -5.2 5.55 -4.9 5.9 -3.45 4.2 -3.4 Q2.5 -3.4 0.2 -3.95 L-2.15 -4.5 Q-2.95 -4.5 -3.3 -3.75 -3.65 -3.0 -3.65 -1.1 -3.65 0.7 -3.2 2.0 -2.8 3.45 -2.05 3.8 L-2.75 4.5 -2.45 4.35 -1.95 4.2 -1.7 3.9 -0.75 3.3 3.9 0.8 Q5.8 0.05 7.9 0.05 L8.35 0.1 8.45 0.1 8.5 0.1 8.85 0.45 9.15 1.05 8.8 1.95 4.05 2.5 Q0.6 3.1 0.3 4.6 L-0.4 5.05 -1.3 5.6 Q-3.75 4.95 -5.1 3.2 -6.4 0.95 -7.4 -0.25 L-7.55 0.1 -7.1 1.35 -4.85 5.3 -5.4 5.4 -5.9 5.05 -6.75 4.85 Q-7.75 3.4 -7.95 1.9 L-8.0 0.6 -8.25 -0.85 -9.0 -3.15 -10.05 -5.9 -9.8 -6.55 -8.45 -3.5 Q-8.35 -3.5 -8.35 -3.55 L-8.3 -3.7 -8.75 -4.7 Q-9.15 -5.8 -9.15 -6.85 L-8.85 -7.6 -7.5 -8.75 -7.05 -9.25 -6.5 -9.75 Q-5.8 -10.3 -3.4 -11.0 L0.1 -11.65 Q1.35 -11.65 2.35 -10.85 L4.6 -8.2 M-6.25 -4.55 L-6.05 -4.15 -6.6 -2.75 -5.3 -3.35 -5.3 -2.9 -4.5 -3.5 Q-4.2 -3.55 -3.8 -3.85 L-3.2 -4.3 -1.9 -4.8 -0.65 -4.95 1.3 -4.9 0.65 -5.5 -1.5 -5.8 -2.25 -5.85 -4.95 -5.45 Q-6.25 -5.05 -6.25 -4.55 M19.6 -4.0 L19.45 -4.35 19.35 -4.5 19.2 -4.4 19.1 -4.15 Q19.3 -3.55 20.55 -3.1 L22.15 -2.45 21.65 -2.15 21.2 -2.1 18.7 -2.55 Q17.75 -2.9 17.75 -3.4 17.75 -4.15 18.8 -5.05 L20.15 -6.0 Q20.5 -6.25 23.25 -7.15 L27.05 -8.1 27.15 -7.65 Q27.15 -6.55 24.2 -6.55 L23.35 -6.7 22.65 -6.85 Q22.15 -6.85 21.95 -6.55 L21.35 -6.2 21.45 -6.2 21.65 -5.95 21.75 -5.8 21.75 -5.6 21.2 -4.95 Q20.5 -4.3 19.6 -4.0 M-24.45 -4.15 L-25.2 -4.65 Q-25.9 -5.2 -24.45 -4.15 -25.9 -5.75 -25.5 -6.05 -25.05 -6.45 -24.35 -6.45 L-23.05 -6.2 Q-22.5 -5.85 -22.5 -5.25 -22.5 -4.8 -23.0 -4.4 -23.4 -4.0 -23.8 -4.0 L-24.4 -4.15 -24.45 -4.15 M-25.4 -2.25 Q-25.4 -1.6 -25.9 -1.3 -26.3 -1.0 -26.75 -1.0 L-27.3 -1.15 -27.65 -1.6 -27.15 -2.45 -26.15 -2.95 -25.7 -2.75 -25.4 -2.25" fill="#b041de" fill-rule="evenodd" stroke="none"/>
    <path d="M-8.45 5.0 L-9.1 4.4 -9.35 3.95 -8.9 0.65 -9.1 -1.15 -9.7 -3.5 -10.45 -4.85 -11.0 -5.75 Q-11.0 -6.2 -10.2 -7.15 L-8.15 -9.05 Q-4.95 -11.45 -1.15 -12.35 L-0.1 -12.6 -0.1 -12.55 0.2 -12.55 1.2 -12.35 1.8 -11.9 2.8 -10.85 4.7 -8.6 4.8 -8.7 4.05 -10.2 2.8 -12.15 3.45 -11.95 3.9 -11.55 4.3 -11.2 4.95 -10.8 6.4 -9.6 5.5 -8.95 4.6 -8.2 2.35 -10.85 Q1.35 -11.65 0.1 -11.65 L-3.4 -11.0 Q-5.8 -10.3 -6.5 -9.75 L-7.05 -9.25 -7.5 -8.75 -8.85 -7.6 -9.15 -6.85 Q-9.15 -5.8 -8.75 -4.7 L-8.3 -3.7 -8.35 -3.55 Q-8.35 -3.5 -8.45 -3.5 L-9.8 -6.55 -10.05 -5.9 -9.0 -3.15 -8.25 -0.85 -8.0 0.6 -7.95 1.9 Q-7.75 3.4 -6.75 4.85 L-8.45 5.0 M-6.05 -8.6 L-5.9 -8.75 -5.8 -8.75 Q-4.65 -8.55 -4.35 -7.55 L-4.2 -6.2 -5.35 -5.6 -5.4 -5.6 -5.2 -6.05 -5.1 -6.4 -5.5 -7.45 -6.05 -8.6 M5.55 -4.9 L6.05 -4.95 6.2 -4.95 7.75 -4.8 8.85 -4.35 8.85 -3.25 7.65 -3.5 Q7.1 -3.7 6.1 -3.5 L5.9 -3.45 5.55 -4.9 M9.05 -0.05 L10.55 0.05 10.35 -0.15 10.75 -0.15 11.45 -0.05 11.95 0.6 Q11.95 1.25 11.35 1.45 L8.8 1.95 9.15 1.05 8.85 0.45 8.5 0.1 8.45 0.1 9.05 -0.05 M3.45 6.0 L0.9 5.95 -0.05 6.2 -1.3 5.6 -2.6 5.45 -2.8 5.1 -2.7 5.45 -3.15 5.5 -3.8 5.35 -4.85 5.3 -7.1 1.35 -7.55 0.1 -7.4 -0.25 Q-6.4 0.95 -5.1 3.2 -3.75 4.95 -1.3 5.6 L-0.4 5.05 0.3 4.6 0.5 4.7 0.8 4.8 2.7 4.3 4.7 3.7 4.3 5.0 3.45 6.0 M20.35 14.9 L20.25 10.1 Q20.25 8.85 20.55 8.05 20.95 6.95 21.8 6.95 L22.3 7.1 22.8 7.15 23.7 7.15 24.35 7.2 Q25.5 7.3 25.95 8.45 26.3 9.25 26.3 10.65 L26.25 11.95 25.1 12.25 Q24.2 12.25 24.25 11.55 L24.15 9.8 23.0 9.8 22.35 9.85 21.95 10.2 21.85 10.6 21.85 11.95 Q21.9 12.5 22.2 12.9 22.75 13.55 25.95 14.9 L20.35 14.9 M14.95 14.9 L14.95 12.3 14.9 9.8 14.95 8.5 15.0 6.8 15.15 6.75 18.5 7.05 Q19.15 7.1 19.45 7.6 19.75 8.2 19.75 9.6 L19.55 12.4 Q19.15 13.9 18.1 14.05 18.95 14.35 19.25 14.9 L17.2 14.9 16.75 14.9 14.95 14.9 M8.4 14.9 L8.5 11.45 8.6 9.25 8.6 7.25 11.55 7.1 13.7 6.95 13.75 10.8 13.7 10.8 13.3 10.1 12.85 9.45 11.55 9.75 11.25 9.65 11.05 9.6 10.55 9.6 10.55 9.8 10.4 13.3 10.4 13.5 11.0 13.0 12.15 12.95 13.0 12.9 13.8 12.65 13.95 13.7 13.9 14.9 8.4 14.9 M18.05 10.25 L18.0 8.8 16.65 8.7 16.45 8.8 16.25 8.95 16.4 12.15 16.9 12.3 17.25 12.4 Q17.7 12.4 17.85 12.1 L18.05 10.25 M1.4 14.9 L1.35 12.45 0.95 7.6 2.95 7.65 Q3.6 7.6 3.6 8.35 L3.75 10.4 3.65 12.95 3.75 13.55 3.75 14.25 Q3.75 14.8 4.0 14.85 L4.2 14.9 1.4 14.9 M4.55 14.9 L5.15 14.85 5.2 11.55 5.2 6.95 7.15 7.25 7.85 7.15 7.95 8.6 8.0 9.85 7.85 12.5 7.55 14.9 4.55 14.9 M-0.45 14.9 L-6.05 14.9 -6.1 10.1 Q-6.1 6.95 -4.55 6.95 L-4.0 7.1 -3.45 7.15 -2.5 7.2 -1.65 7.3 Q-0.05 7.55 -0.05 10.65 L-0.1 11.95 Q-0.25 12.25 -1.3 12.25 -2.15 12.25 -2.1 11.55 -2.05 10.3 -2.25 9.8 L-3.4 9.8 -4.5 9.85 -4.5 11.15 Q-4.65 12.4 -4.15 12.95 L-3.1 13.55 -1.55 14.4 -0.45 14.9 M-21.85 -7.35 L-21.5 -8.1 -21.05 -8.3 Q-20.05 -8.3 -19.85 -7.35 L-20.8 -7.4 -21.85 -7.35 M-15.3 -3.0 L-15.95 -4.65 Q-15.05 -4.2 -15.05 -3.7 L-15.1 -3.4 -15.3 -3.0 M-9.1 14.9 L-9.05 13.45 -8.95 12.3 -8.9 11.65 Q-8.9 11.1 -9.05 11.1 L-9.15 10.35 -9.2 9.4 -9.4 8.2 -9.5 7.4 -9.4 6.85 -8.25 6.7 -7.6 6.6 -7.0 6.5 Q-6.7 6.5 -6.6 6.7 L-6.55 7.1 -6.75 8.1 -6.95 11.6 -6.95 13.15 -6.85 14.9 -9.1 14.9 M-14.0 14.9 L-13.85 13.7 -13.7 12.35 -13.9 10.75 -14.1 8.8 -13.85 6.95 Q-13.7 6.65 -13.5 6.65 -12.05 6.65 -11.8 6.95 -11.6 7.15 -11.6 8.35 L-11.75 9.0 -11.85 10.05 -11.85 11.25 -11.8 12.15 -11.95 14.9 -14.0 14.9 M-15.1 4.3 L-15.4 4.2 -15.45 4.0 -14.75 2.9 Q-13.85 1.75 -12.95 1.7 -12.85 2.25 -13.8 3.25 L-15.1 4.3 M-19.15 14.9 L-19.15 12.3 -19.2 9.85 -19.1 6.8 -18.95 6.75 -17.8 6.95 -16.1 7.05 -14.9 7.3 Q-14.3 7.8 -14.3 9.6 -14.3 11.5 -14.55 12.4 -14.95 13.9 -16.0 14.05 -15.15 14.35 -14.9 14.9 L-16.9 14.9 -17.3 14.9 -19.15 14.9 M-16.85 12.4 Q-16.25 12.4 -16.1 11.65 -15.95 10.9 -16.1 8.8 L-17.45 8.7 -17.65 8.8 -17.85 8.95 -17.7 12.15 -17.2 12.3 -16.85 12.4 M-26.9 14.9 L-26.65 12.25 -26.75 11.8 -26.85 11.35 Q-26.85 10.4 -25.75 8.9 -24.55 7.25 -23.2 7.25 L-22.35 7.3 -21.0 7.65 -20.35 8.7 -20.0 10.05 -19.7 11.05 -19.7 11.3 -19.8 11.45 -19.85 11.3 -19.9 11.25 Q-19.7 11.7 -20.2 11.85 L-22.2 12.2 -22.2 10.8 Q-22.25 9.55 -22.9 9.55 -24.1 9.55 -24.3 10.05 L-24.5 11.55 -24.75 12.95 -24.75 14.9 -26.9 14.9" fill="#9131b9" fill-rule="evenodd" stroke="none"/>
    <path d="M7.9 -7.05 L7.85 -7.5 7.5 -8.1 7.2 -8.3 6.75 -8.1 6.0 -7.85 5.7 -7.35 5.3 -7.0 Q4.85 -6.7 4.95 -6.5 L4.65 -6.95 5.5 -7.45 7.2 -8.9 7.8 -7.8 7.9 -7.05 M4.9 -1.05 L4.85 -1.15 4.85 -1.3 5.2 -1.95 3.3 -1.95 3.25 -1.3 2.8 -1.95 0.25 -2.3 0.2 -1.6 Q0.2 -1.15 0.35 -0.65 -0.05 -1.2 -0.2 -2.0 L-0.25 -2.4 -0.9 -2.75 -1.65 -2.75 Q-2.05 -1.7 -1.65 -1.0 L-1.5 -0.65 Q-0.9 -0.05 0.0 -0.05 L0.15 -0.05 0.35 -0.1 0.35 -0.05 -0.05 0.2 Q-1.05 0.95 -0.55 2.05 1.05 1.05 2.7 0.35 2.6 -0.2 2.8 -0.35 2.7 -0.05 3.3 0.15 L4.8 -0.1 4.85 -0.15 4.85 0.1 Q3.85 0.4 2.6 0.95 0.1 2.05 -1.5 3.3 L-2.3 2.3 -1.4 0.95 0.0 -0.05 -1.95 0.6 -2.5 0.3 Q-2.9 -0.1 -2.9 -0.4 L-2.7 -1.3 -2.25 -3.5 Q2.85 -1.85 5.95 -2.45 L5.5 -1.75 4.9 -1.05 M-17.2 -5.25 Q-15.9 -4.0 -15.9 -1.8 -15.9 -0.1 -17.0 1.35 -18.4 3.1 -20.65 3.1 -22.55 3.1 -23.7 2.15 L-24.75 0.9 Q-25.6 -0.2 -25.6 -0.75 L-25.4 -1.15 -25.0 -1.45 -24.75 -2.1 -24.65 -2.6 -24.95 -3.25 -25.4 -3.7 -25.25 -4.0 -24.85 -3.75 -24.6 -3.65 -23.6 -3.45 Q-22.6 -3.45 -22.05 -4.45 -21.6 -5.1 -21.6 -5.6 -21.6 -6.05 -22.15 -6.6 L-21.55 -6.7 -20.8 -6.8 -20.2 -6.7 -20.8 -6.7 -21.85 -6.6 -21.15 -5.75 -20.95 -5.25 Q-20.95 -4.1 -21.85 -3.45 -21.9 -3.35 -22.8 -3.0 L-23.15 -2.85 -23.2 -2.85 -23.45 -3.2 -23.75 -3.4 -23.8 -3.35 -23.85 -3.35 -23.5 -2.95 -23.25 -2.8 -23.2 -2.8 -23.5 -2.65 -23.65 -2.65 -23.8 -2.5 -23.7 -2.4 -23.8 -2.1 -23.75 -0.25 -23.7 -0.05 -23.65 0.15 -23.5 0.55 -23.8 0.25 -23.9 0.25 -24.0 0.3 -24.0 0.45 -23.75 0.85 -23.55 1.0 -23.3 1.05 -23.1 1.1 -22.85 1.35 -23.05 1.35 -23.6 1.55 -23.55 1.7 -23.05 1.75 -22.65 1.7 -22.7 1.45 -21.9 1.8 -20.7 1.95 Q-19.7 1.95 -18.95 1.55 -17.95 1.05 -17.65 0.05 -17.0 0.1 -17.0 -0.25 L-17.0 -0.45 -17.45 -0.45 -17.25 -0.9 Q-16.8 -0.9 -16.8 -1.4 L-16.85 -1.55 -16.95 -1.6 -17.05 -1.55 -16.85 -2.8 Q-16.85 -3.5 -17.0 -4.0 L-17.4 -5.05 -17.3 -5.1 -17.2 -5.25 M-22.8 -3.0 L-22.45 -3.55 -22.5 -3.7 -22.55 -3.7 -22.95 -3.2 -22.9 -3.05 -22.8 -3.0 M-18.1 -5.9 L-17.5 -5.5 -17.65 -5.45 -18.1 -5.9 M-16.35 -0.7 L-16.65 -0.7 -16.7 -0.5 -16.65 -0.2 -16.35 -0.2 -16.35 -0.65 -16.35 -0.7 M-0.2 -7.5 L-1.65 -8.0 -2.9 -8.35 -3.1 -8.3 -3.15 -8.3 -3.15 -8.1 -2.95 -7.45 Q-2.7 -7.0 -2.25 -6.7 L-3.3 -6.55 -3.5 -7.5 -3.65 -8.2 -3.55 -8.6 -3.55 -8.75 -1.5 -8.35 -0.55 -7.95 -0.25 -7.85 0.05 -7.8 -0.2 -7.5 M-17.0 0.6 L-16.6 0.3 -16.65 0.05 -16.75 -0.05 Q-17.05 0.0 -17.15 0.2 L-17.25 0.4 -17.2 0.5 -17.0 0.6 M-24.15 0.75 L-24.15 1.35 -23.85 1.65 -23.7 1.6 -23.65 1.5 Q-23.65 1.1 -24.15 0.75" fill="#a3a3a3" fill-rule="evenodd" stroke="none"/>
    <path d="M6.75 -8.1 L7.2 -8.3 7.5 -8.1 7.85 -7.5 7.9 -7.05 7.55 -6.7 Q7.35 -6.5 7.15 -6.5 L7.4 -6.95 7.5 -7.2 7.35 -7.6 6.75 -8.1 M4.95 -6.5 Q4.85 -6.7 5.3 -7.0 L5.7 -7.35 Q5.75 -6.95 5.95 -6.65 L6.5 -6.3 5.35 -5.9 4.95 -6.5 M2.4 -6.05 L1.45 -6.45 1.65 -6.9 2.15 -6.65 2.4 -6.05 M4.85 0.1 L4.85 -0.15 4.8 -0.1 3.3 0.15 Q2.7 -0.05 2.8 -0.35 2.6 -0.2 2.7 0.35 1.05 1.05 -0.55 2.05 -1.05 0.95 -0.05 0.2 L0.35 -0.05 0.35 -0.1 0.15 -0.05 0.0 -0.05 Q-0.9 -0.05 -1.5 -0.65 L-1.65 -1.0 Q-2.05 -1.7 -1.65 -2.75 L-0.9 -2.75 -0.25 -2.4 -0.2 -2.0 Q-0.05 -1.2 0.35 -0.65 0.2 -1.15 0.2 -1.6 L0.25 -2.3 2.8 -1.95 3.25 -1.3 3.3 -1.95 5.2 -1.95 4.85 -1.3 4.85 -1.15 4.9 -1.05 3.95 -1.0 1.3 -0.4 3.9 -0.65 4.65 -0.6 5.0 0.05 4.85 0.1 M25.95 14.9 Q22.75 13.55 22.2 12.9 21.9 12.5 21.85 11.95 L21.85 10.6 21.95 10.2 22.35 9.85 23.0 9.8 24.15 9.8 24.25 11.55 Q24.2 12.25 25.1 12.25 L26.25 11.95 26.3 10.65 Q26.3 9.25 25.95 8.45 25.5 7.3 24.35 7.2 L23.7 7.15 22.8 7.15 22.3 7.1 21.8 6.95 Q20.95 6.95 20.55 8.05 20.25 8.85 20.25 10.1 L20.35 14.9 20.55 15.35 Q20.8 15.7 21.55 15.9 L23.1 16.35 Q23.4 16.45 24.35 16.9 L24.85 17.25 24.9 17.65 25.0 18.7 24.9 19.6 Q24.7 20.05 24.05 20.15 L23.0 20.3 Q22.4 20.3 22.3 19.75 L22.3 17.45 21.8 17.4 20.4 17.6 20.4 19.0 Q20.4 21.85 20.8 22.75 21.1 23.45 22.0 23.45 L22.9 23.25 23.2 22.85 23.5 22.95 23.6 24.05 23.4 23.9 23.0 24.1 22.25 24.3 21.65 24.2 21.1 24.05 20.5 24.45 Q20.1 24.85 19.6 24.85 L18.3 24.55 Q17.55 24.2 17.4 24.2 L17.05 24.4 16.7 24.7 16.05 25.0 15.1 25.0 14.8 24.95 14.55 24.85 13.75 24.8 13.1 24.05 12.5 24.3 12.0 24.05 Q11.75 23.8 11.55 23.8 L11.45 23.85 11.5 23.85 10.7 24.15 9.95 23.8 8.5 24.1 8.2 24.15 7.05 24.2 5.0 24.05 Q4.5 23.9 4.35 23.35 L4.25 23.55 3.8 24.1 1.5 24.7 1.15 24.75 Q0.75 24.75 0.45 24.4 0.2 24.05 0.25 23.65 L0.1 23.75 -0.7 24.35 -1.3 24.7 -2.25 24.7 -3.2 24.45 -3.75 24.2 -4.8 24.2 Q-5.4 24.15 -5.85 23.7 L-6.25 23.15 -6.6 22.6 -6.7 21.85 Q-6.8 21.35 -6.85 22.0 L-7.1 22.5 -7.8 22.95 -8.5 23.45 -9.15 23.9 -10.45 24.35 -11.0 24.35 -12.25 24.05 -13.7 23.0 Q-13.85 24.0 -14.3 24.55 -14.7 25.0 -15.25 25.0 L-15.9 24.9 -16.35 24.8 -17.8 24.65 -18.45 24.85 -19.05 25.0 Q-19.45 25.0 -19.8 24.65 -20.15 24.2 -20.0 23.75 L-23.35 24.2 -24.0 24.05 -24.75 23.4 -25.65 22.7 Q-26.4 22.05 -26.4 21.45 L-26.9 19.45 -27.35 17.4 -27.6 16.25 -27.8 15.25 Q-27.8 13.4 -27.6 13.4 -27.45 13.4 -27.45 12.95 L-27.5 12.3 -27.45 12.1 -27.55 12.05 -27.7 11.8 -27.7 11.35 Q-27.7 10.4 -27.45 10.4 L-27.2 9.95 -26.85 9.15 -26.7 8.85 -26.5 8.35 Q-26.05 7.55 -25.1 7.05 L-24.35 6.6 -23.2 6.35 -21.3 6.6 Q-20.2 6.95 -20.0 7.55 L-19.8 6.3 Q-19.55 5.85 -19.15 5.85 L-18.65 5.95 Q-18.2 6.0 -18.2 6.15 L-17.3 6.2 -16.2 6.15 -15.4 6.15 Q-14.9 6.15 -14.55 6.45 L-13.95 6.0 -13.5 5.85 -12.35 5.95 Q-11.0 6.25 -11.0 6.55 L-11.1 6.65 -10.95 6.75 -9.75 6.25 Q-8.9 5.8 -8.0 5.8 L-7.5 5.7 -7.0 5.65 -6.1 5.9 Q-5.75 6.2 -5.75 6.55 L-5.25 6.3 -4.55 6.15 -3.85 6.2 -2.9 6.3 -2.35 6.3 -0.7 6.8 -0.35 7.15 0.1 7.55 0.35 7.0 Q0.6 6.75 0.95 6.75 L1.55 6.8 2.35 6.85 3.35 6.9 Q4.1 6.95 4.35 7.2 4.25 6.9 4.45 6.55 4.7 6.15 5.2 6.15 L6.3 6.3 7.2 6.4 8.2 6.45 10.25 6.3 12.45 6.2 13.35 6.2 14.25 6.35 Q14.4 6.15 14.7 6.0 L15.0 5.9 15.45 5.95 Q15.9 6.0 15.9 6.15 L16.9 6.2 18.25 6.15 19.25 6.35 Q20.05 6.65 20.1 7.1 L20.65 6.55 Q21.25 6.15 21.8 6.15 L22.6 6.25 23.25 6.3 23.95 6.3 25.0 6.55 25.65 6.8 26.1 7.2 26.55 7.7 27.05 9.0 27.2 9.75 27.2 10.6 27.05 12.4 26.2 12.9 26.4 13.6 Q26.6 14.2 26.95 14.45 L27.35 14.9 27.5 15.3 27.45 15.65 27.5 16.0 27.85 17.1 27.95 17.65 28.05 18.4 28.0 19.3 Q28.0 22.45 27.25 23.2 L26.65 23.65 26.25 23.9 Q25.45 24.7 25.15 24.7 24.8 24.7 24.05 24.3 L23.65 24.05 24.05 23.65 24.5 23.25 24.65 23.6 Q24.8 23.85 25.1 23.85 L25.4 23.85 26.05 22.95 26.4 22.75 26.7 22.55 26.95 21.5 27.15 19.3 27.1 17.55 26.8 16.55 Q26.5 16.15 26.55 15.9 L26.6 15.25 25.95 14.9 M19.25 14.9 Q18.95 14.35 18.1 14.05 19.15 13.9 19.55 12.4 L19.75 9.6 Q19.75 8.2 19.45 7.6 19.15 7.1 18.5 7.05 L15.15 6.75 15.0 6.8 14.95 8.5 14.9 9.8 14.95 12.3 14.95 14.9 Q14.95 24.05 15.1 24.1 L15.4 23.75 15.6 23.35 15.65 23.25 15.8 23.9 15.9 23.9 16.0 23.55 16.2 23.25 16.45 23.75 16.6 22.4 16.55 18.8 16.6 15.2 Q16.6 14.95 16.75 14.9 L17.2 14.9 17.85 15.4 Q18.2 15.95 18.2 16.85 L17.6 23.0 17.85 23.4 18.15 23.2 18.45 22.85 18.55 22.65 18.65 23.95 Q18.8 24.65 19.3 24.55 19.6 24.05 19.6 21.7 L19.45 16.75 19.25 14.9 M13.9 14.9 L13.95 13.7 13.8 12.65 13.0 12.9 12.15 12.95 11.0 13.0 10.4 13.5 10.4 13.3 10.55 9.8 10.55 9.6 11.05 9.6 11.25 9.65 11.55 9.75 12.85 9.45 13.3 10.1 13.7 10.8 13.75 10.8 13.7 6.95 11.55 7.1 8.6 7.25 8.6 9.25 8.5 11.45 8.4 14.9 8.35 22.3 8.4 22.8 8.5 23.25 9.6 22.95 9.9 22.85 10.75 23.25 11.15 23.1 Q11.3 22.95 11.55 22.95 L11.85 23.1 12.45 23.4 Q12.5 23.3 12.8 23.15 L13.25 22.8 14.2 24.05 14.45 22.35 14.55 21.05 14.55 20.4 13.5 20.55 12.3 20.65 11.65 21.05 11.6 21.0 11.7 20.7 11.7 20.5 10.75 20.4 10.55 20.1 10.45 18.85 10.4 17.85 10.55 17.65 10.75 17.1 10.65 16.1 10.7 16.15 11.95 15.95 Q12.45 15.9 12.7 15.4 L13.1 15.6 13.35 15.65 13.85 15.65 13.9 14.9 M18.05 10.25 L17.85 12.1 Q17.7 12.4 17.25 12.4 L16.9 12.3 16.4 12.15 16.25 8.95 16.45 8.8 16.65 8.7 18.0 8.8 18.05 10.25 M4.2 14.9 L4.0 14.85 Q3.75 14.8 3.75 14.25 L3.75 13.55 3.65 12.95 3.75 10.4 3.6 8.35 Q3.6 7.6 2.95 7.65 L0.95 7.6 1.35 12.45 1.4 14.9 1.05 23.45 1.1 23.75 1.25 23.9 3.45 23.25 3.75 20.85 4.05 18.15 5.2 17.95 5.35 20.25 5.2 23.3 7.0 23.4 7.4 23.35 7.65 23.3 7.7 20.2 7.7 18.35 7.55 16.15 7.55 14.9 7.85 12.5 8.0 9.85 7.95 8.6 7.85 7.15 7.15 7.25 5.2 6.95 5.2 11.55 5.15 14.85 4.55 14.9 4.2 14.9 M-6.05 14.9 L-5.85 15.35 Q-5.6 15.7 -4.8 15.9 L-3.25 16.35 -2.0 16.9 -1.55 17.25 -1.5 17.65 -1.35 18.7 Q-1.35 19.35 -1.5 19.6 L-2.35 20.15 -3.4 20.3 Q-4.0 20.3 -4.05 19.75 L-4.05 17.45 -4.6 17.4 -5.95 17.6 -6.0 19.0 Q-6.0 21.85 -5.6 22.75 -5.3 23.45 -4.35 23.45 L-3.5 23.25 -3.2 22.85 -2.9 22.95 Q-2.75 23.15 -2.75 24.05 L-2.3 23.65 -1.9 23.25 -1.7 23.6 -1.3 23.85 -1.0 23.85 -0.35 22.95 0.0 22.75 0.3 22.55 0.6 21.5 0.75 19.3 0.7 17.6 0.45 16.55 0.15 15.9 0.25 15.25 -0.45 14.9 -1.55 14.4 -3.1 13.55 -4.15 12.95 Q-4.65 12.4 -4.5 11.15 L-4.5 9.85 -3.4 9.8 -2.25 9.8 Q-2.05 10.3 -2.1 11.55 -2.15 12.25 -1.3 12.25 -0.25 12.25 -0.1 11.95 L-0.05 10.65 Q-0.05 7.55 -1.65 7.3 L-2.5 7.2 -3.45 7.15 -4.0 7.1 -4.55 6.95 Q-6.1 6.95 -6.1 10.1 L-6.05 14.9 M-17.4 -5.05 L-17.0 -4.0 Q-16.85 -3.5 -16.85 -2.8 L-17.05 -1.55 -17.2 -1.3 -17.3 -1.1 -17.3 -0.95 -17.25 -0.9 -17.45 -0.45 -17.75 -0.25 -17.85 -0.15 -17.8 0.0 -17.65 0.05 Q-17.95 1.05 -18.95 1.55 -19.7 1.95 -20.7 1.95 L-21.9 1.8 -22.7 1.45 -22.8 1.4 -22.85 1.35 -23.1 1.1 -22.6 1.05 -22.4 0.85 -22.45 0.7 -22.45 0.65 -22.8 0.65 Q-23.1 0.65 -23.35 0.8 L-23.35 0.75 -23.5 0.55 -23.65 0.15 -23.55 0.3 -23.35 0.35 -23.2 0.35 -23.2 0.3 -23.15 0.15 -23.15 0.35 -23.0 0.4 -22.65 0.25 -22.25 0.05 -22.35 -0.05 -22.55 -0.1 -22.85 0.0 -23.15 0.15 -23.35 -0.15 -23.65 -0.4 -23.75 -0.25 -23.8 -2.1 -23.7 -2.4 -23.35 -2.1 -23.2 -2.15 -23.1 -2.25 -23.05 -2.2 -22.95 -2.1 -22.6 -2.2 -22.4 -2.6 -22.5 -2.8 -22.85 -2.6 -23.1 -2.4 -23.5 -2.65 -23.2 -2.8 -23.15 -2.8 -23.15 -2.85 -22.8 -3.0 Q-21.9 -3.35 -21.85 -3.45 -20.95 -4.1 -20.95 -5.25 L-21.15 -5.75 -21.85 -6.6 -20.8 -6.7 -20.2 -6.7 -20.15 -6.7 -19.4 -6.6 -18.9 -6.45 -18.1 -5.9 -17.65 -5.45 -18.0 -5.25 -17.95 -5.1 -17.95 -5.05 -17.65 -5.0 -17.4 -5.05 M-22.1 -1.0 L-22.6 -1.0 -22.85 -0.65 -22.7 -0.5 Q-22.3 -0.65 -22.2 -0.75 L-22.1 -1.0 M-22.75 -1.45 L-22.7 -1.35 -22.55 -1.3 -22.1 -1.6 -22.2 -1.8 -22.3 -1.85 -22.65 -1.65 -22.75 -1.45 M-23.65 -1.05 L-23.4 -0.5 -23.2 -0.45 -22.95 -0.65 -23.25 -0.9 Q-23.5 -1.1 -23.6 -1.1 L-23.65 -1.05 M-23.6 -1.6 L-23.2 -1.25 -23.0 -1.3 -22.95 -1.45 -23.05 -1.7 -23.4 -1.8 -23.6 -1.6 M-6.2 -23.15 L-5.65 -23.25 -5.1 -23.35 -5.4 -23.15 -6.05 -22.4 -6.55 -21.45 -6.7 -21.1 -7.6 -21.15 -6.2 -23.15 M-15.0 -18.8 L-15.1 -18.8 -14.2 -19.45 -12.9 -20.1 -12.75 -20.1 -12.1 -20.35 -11.45 -20.4 Q-11.5 -20.3 -13.1 -19.6 L-15.0 -18.8 M-11.55 -23.95 L-11.45 -24.25 Q-11.45 -22.5 -10.05 -21.2 L-9.9 -21.2 -10.05 -21.0 Q-10.5 -20.95 -11.0 -21.9 -11.6 -22.85 -11.55 -23.95 M-8.2 -24.65 L-8.45 -23.5 -8.65 -22.2 -8.6 -21.75 -8.3 -21.6 -8.5 -21.45 -8.75 -21.3 -8.9 -22.05 -8.7 -23.8 -8.2 -24.65 M-4.7 -17.8 L-5.45 -18.75 -6.25 -19.45 -7.25 -19.95 -7.95 -20.15 -7.65 -20.2 -5.6 -20.1 -3.25 -19.6 -0.7 -17.65 Q0.65 -16.55 0.65 -16.0 0.65 -15.5 -1.35 -14.9 L-3.65 -14.0 -3.7 -14.4 -3.7 -14.45 -3.55 -14.6 -3.15 -14.9 -2.1 -15.55 -2.9 -16.15 -0.4 -15.55 Q-0.25 -15.55 -0.2 -15.65 L-0.2 -17.0 -1.4 -17.75 -4.15 -18.5 -4.35 -18.45 -4.7 -17.8 M-7.3 -11.85 Q-5.55 -12.85 -4.35 -13.25 L-3.4 -13.5 -3.05 -13.45 -2.95 -13.3 Q-3.4 -12.95 -5.75 -11.9 -8.45 -10.65 -11.95 -8.35 L-11.25 -9.0 -11.0 -9.35 -10.55 -9.75 -9.65 -10.35 -7.3 -11.85 M-17.65 -0.9 L-17.7 -1.05 -17.95 -1.15 -18.2 -1.05 -18.25 -0.9 -18.2 -0.75 -17.95 -0.7 -17.7 -0.75 -17.65 -0.9 M-17.95 -1.8 L-18.0 -1.95 -18.25 -2.0 -18.5 -1.95 -18.6 -1.8 -18.5 -1.6 -18.25 -1.55 -18.0 -1.6 -17.95 -1.8 M-19.05 -2.6 L-18.6 -2.3 -18.35 -2.35 -18.25 -2.55 -18.8 -2.75 -19.0 -2.7 -19.05 -2.6 M-17.7 -2.4 Q-17.55 -2.4 -17.4 -2.55 L-17.15 -2.85 -17.25 -3.05 -17.35 -3.05 -17.75 -2.9 -17.85 -2.6 -17.7 -2.4 M-18.45 -3.8 L-19.0 -3.85 -19.15 -3.7 -19.05 -3.55 -19.0 -3.35 -18.6 -3.3 -18.45 -3.35 -18.35 -3.55 -18.45 -3.8 M-19.0 -4.8 L-18.7 -4.45 Q-18.3 -4.2 -18.25 -4.55 -18.7 -4.95 -18.9 -4.9 L-19.0 -4.9 -19.0 -4.8 M-18.15 -5.25 L-18.35 -5.7 -18.6 -6.0 -18.65 -5.9 -18.7 -5.75 -18.55 -5.4 -18.35 -5.25 -18.15 -5.25 M-17.35 -3.7 L-17.35 -3.8 -17.55 -3.85 -17.85 -3.75 -18.05 -3.55 -18.0 -3.35 -17.85 -3.35 -17.6 -3.4 -17.35 -3.7 M-18.05 -4.35 L-17.8 -4.2 -17.2 -4.45 -17.25 -4.65 -17.55 -4.7 -18.05 -4.35 M-17.15 -2.2 Q-17.2 -2.15 -17.45 -2.05 -17.65 -1.9 -17.45 -1.55 L-17.15 -1.8 -17.0 -2.0 -17.05 -2.2 -17.15 -2.2 M-2.25 -6.7 Q-2.7 -7.0 -2.95 -7.45 L-3.15 -8.1 -3.15 -8.3 -3.1 -8.3 -2.9 -8.35 -1.65 -8.0 -0.2 -7.5 -0.3 -7.0 -0.25 -6.8 -2.25 -6.7 M-6.85 14.9 L-6.95 13.15 -6.95 11.6 -6.75 8.1 -6.55 7.1 -6.6 6.7 Q-6.7 6.5 -7.0 6.5 L-7.6 6.6 -8.25 6.7 -9.4 6.85 -9.5 7.4 -9.4 8.2 -9.2 9.4 -9.15 10.35 -9.05 11.1 Q-8.9 11.1 -8.9 11.65 L-8.95 12.3 -9.05 13.45 -9.1 14.9 Q-9.15 18.05 -9.7 19.2 -10.05 20.0 -10.85 20.0 L-10.95 19.95 -10.95 19.85 -11.25 19.65 -11.55 19.5 -11.8 18.75 -11.95 17.45 -11.95 14.9 -11.8 12.15 -11.85 11.25 -11.85 10.05 -11.75 9.0 -11.6 8.35 Q-11.6 7.15 -11.8 6.95 -12.05 6.65 -13.5 6.65 -13.7 6.65 -13.85 6.95 L-14.1 8.8 -13.9 10.75 -13.7 12.35 -13.85 13.7 -14.0 14.9 -14.0 19.25 -13.8 20.75 -13.6 21.8 -12.2 23.1 Q-11.5 23.5 -11.0 23.5 -9.95 23.5 -9.1 22.8 L-8.3 22.15 -8.0 22.0 -7.7 21.75 -7.35 21.0 -7.0 20.05 -7.1 19.75 -7.2 19.45 -6.75 17.0 -6.7 16.4 -6.85 14.9 M-16.85 12.4 L-17.2 12.3 -17.7 12.15 -17.85 8.95 -17.65 8.8 -17.45 8.7 -16.1 8.8 Q-15.95 10.9 -16.1 11.65 -16.25 12.4 -16.85 12.4 M-14.9 14.9 Q-15.15 14.35 -16.0 14.05 -14.95 13.9 -14.55 12.4 -14.3 11.5 -14.3 9.6 -14.3 7.8 -14.9 7.3 L-16.1 7.05 -17.8 6.95 -18.95 6.75 -19.1 6.8 -19.2 9.85 -19.15 12.3 -19.15 14.9 -19.15 23.4 -19.2 23.5 -19.15 23.55 -19.1 23.8 -19.05 24.1 -18.7 23.75 -18.55 23.35 -18.45 23.25 -18.25 23.9 -18.2 23.9 -18.1 23.55 -17.9 23.25 -17.65 23.75 Q-17.45 23.45 -17.5 22.4 L-17.55 18.8 -17.5 15.2 -17.3 14.9 -16.9 14.9 Q-16.55 14.9 -16.2 15.4 -15.9 15.95 -15.9 16.85 L-16.5 23.0 -16.3 23.4 -15.95 23.2 -15.65 22.85 -15.55 22.65 Q-15.4 23.05 -15.4 23.95 -15.3 24.65 -14.8 24.55 -14.45 24.1 -14.45 21.7 L-14.65 16.75 -14.9 14.9 M-24.75 14.9 L-24.75 12.95 -24.5 11.55 -24.3 10.05 Q-24.1 9.55 -22.9 9.55 -22.25 9.55 -22.2 10.8 L-22.2 12.2 -20.2 11.85 Q-19.7 11.7 -19.9 11.25 L-19.85 11.3 -19.8 11.45 -19.7 11.3 -19.7 11.05 -20.0 10.05 -20.35 8.7 -21.0 7.65 -22.35 7.3 -23.2 7.25 Q-24.55 7.25 -25.75 8.9 -26.85 10.4 -26.85 11.35 L-26.75 11.8 -26.65 12.25 -26.9 14.9 -26.6 17.15 -25.85 20.25 Q-25.55 21.05 -25.6 21.1 L-25.4 21.7 -24.75 22.3 -24.2 22.55 -23.5 23.25 -23.5 23.3 -23.35 23.35 -21.55 23.3 -20.35 22.95 Q-19.4 22.35 -19.4 19.8 L-19.55 17.15 -19.55 16.85 -20.75 17.25 -20.85 17.45 -21.45 17.25 -21.85 17.1 Q-21.7 18.8 -22.0 19.45 -22.2 19.95 -22.85 19.95 -24.35 19.95 -24.75 14.9 M-23.0 10.45 L-23.05 10.45 -23.05 10.5 -23.0 10.45" fill="#ffffff" fill-rule="evenodd" stroke="none"/>
    <path d="M-26.1 -0.15 L-26.65 -0.2 -26.4 -0.2 -26.35 -0.35 -26.2 -0.35 -26.1 -0.25 -26.1 -0.15" fill="#594166" fill-rule="evenodd" stroke="none"/>
    <path d="M-17.2 -5.25 L-17.3 -5.1 -17.4 -5.05 -17.65 -5.0 -17.95 -5.05 -17.95 -5.1 -18.0 -5.25 -17.65 -5.45 -17.5 -5.5 -17.3 -5.45 -17.2 -5.25 M-17.05 -1.55 L-16.95 -1.6 -16.85 -1.55 -16.8 -1.4 Q-16.8 -0.9 -17.25 -0.9 L-17.3 -0.95 -17.3 -1.1 -17.2 -1.3 -17.05 -1.55 M-17.45 -0.45 L-17.0 -0.45 -17.0 -0.25 Q-17.0 0.1 -17.65 0.05 L-17.8 0.0 -17.85 -0.15 -17.75 -0.25 -17.45 -0.45 M-22.7 1.45 L-22.65 1.7 -23.05 1.75 -23.55 1.7 -23.6 1.55 -23.05 1.35 -22.85 1.35 -22.8 1.4 -22.7 1.45 M-23.1 1.1 L-23.3 1.05 -23.55 1.0 -23.75 0.85 -24.0 0.45 -24.0 0.3 -23.9 0.25 -23.8 0.25 -23.5 0.55 -23.35 0.75 -23.35 0.8 Q-23.1 0.65 -22.8 0.65 L-22.45 0.65 -22.45 0.7 -22.4 0.85 -22.6 1.05 -23.1 1.1 M-23.65 0.15 L-23.7 -0.05 -23.75 -0.25 -23.65 -0.4 -23.35 -0.15 -23.15 0.15 -22.85 0.0 -22.55 -0.1 -22.35 -0.05 -22.25 0.05 -22.65 0.25 -23.0 0.4 -23.15 0.35 -23.15 0.15 -23.2 0.3 -23.2 0.35 -23.35 0.35 -23.55 0.3 -23.65 0.15 M-23.7 -2.4 L-23.8 -2.5 -23.65 -2.65 -23.5 -2.65 -23.1 -2.4 -22.85 -2.6 -22.5 -2.8 -22.4 -2.6 -22.6 -2.2 -22.95 -2.1 -23.05 -2.2 -23.1 -2.25 -23.2 -2.15 -23.35 -2.1 -23.7 -2.4 M-23.2 -2.8 L-23.25 -2.8 -23.5 -2.95 -23.85 -3.35 -23.8 -3.35 -23.75 -3.4 -23.45 -3.2 -23.2 -2.85 -23.15 -2.85 -23.15 -2.8 -23.2 -2.8 M-22.8 -3.0 L-22.9 -3.05 -22.95 -3.2 -22.55 -3.7 -22.5 -3.7 -22.45 -3.55 -22.8 -3.0 M-23.6 -1.6 L-23.4 -1.8 -23.05 -1.7 -22.95 -1.45 -23.0 -1.3 -23.2 -1.25 -23.6 -1.6 M-23.65 -1.05 L-23.6 -1.1 Q-23.5 -1.1 -23.25 -0.9 L-22.95 -0.65 -23.2 -0.45 -23.4 -0.5 -23.65 -1.05 M-22.75 -1.45 L-22.65 -1.65 -22.3 -1.85 -22.2 -1.8 -22.1 -1.6 -22.55 -1.3 -22.7 -1.35 -22.75 -1.45 M-22.1 -1.0 L-22.2 -0.75 Q-22.3 -0.65 -22.7 -0.5 L-22.85 -0.65 -22.6 -1.0 -22.1 -1.0 M-18.05 -4.35 L-17.55 -4.7 -17.25 -4.65 -17.2 -4.45 -17.8 -4.2 -18.05 -4.35 M-17.35 -3.7 L-17.6 -3.4 -17.85 -3.35 -18.0 -3.35 -18.05 -3.55 -17.85 -3.75 -17.55 -3.85 -17.35 -3.8 -17.35 -3.7 M-18.15 -5.25 L-18.35 -5.25 -18.55 -5.4 -18.7 -5.75 -18.65 -5.9 -18.6 -6.0 -18.35 -5.7 -18.15 -5.25 M-19.0 -4.8 L-19.0 -4.9 -18.9 -4.9 Q-18.7 -4.95 -18.25 -4.55 -18.3 -4.2 -18.7 -4.45 L-19.0 -4.8 M-18.45 -3.8 L-18.35 -3.55 -18.45 -3.35 -18.6 -3.3 -19.0 -3.35 -19.05 -3.55 -19.15 -3.7 -19.0 -3.85 -18.45 -3.8 M-17.7 -2.4 L-17.85 -2.6 -17.75 -2.9 -17.35 -3.05 -17.25 -3.05 -17.15 -2.85 -17.4 -2.55 Q-17.55 -2.4 -17.7 -2.4 M-19.05 -2.6 L-19.0 -2.7 -18.8 -2.75 -18.25 -2.55 -18.35 -2.35 -18.6 -2.3 -19.05 -2.6 M-17.95 -1.8 L-18.0 -1.6 -18.25 -1.55 -18.5 -1.6 -18.6 -1.8 -18.5 -1.95 -18.25 -2.0 -18.0 -1.95 -17.95 -1.8 M-17.65 -0.9 L-17.7 -0.75 -17.95 -0.7 -18.2 -0.75 -18.25 -0.9 -18.2 -1.05 -17.95 -1.15 -17.7 -1.05 -17.65 -0.9 M-17.15 -2.2 L-17.05 -2.2 -17.0 -2.0 -17.15 -1.8 -17.45 -1.55 Q-17.65 -1.9 -17.45 -2.05 -17.2 -2.15 -17.15 -2.2 M-16.35 -0.7 L-16.35 -0.65 -16.35 -0.2 -16.65 -0.2 -16.7 -0.5 -16.65 -0.7 -16.35 -0.7 M-17.0 0.6 L-17.2 0.5 -17.25 0.4 -17.15 0.2 Q-17.05 0.0 -16.75 -0.05 L-16.65 0.05 -16.6 0.3 -17.0 0.6 M-24.15 0.75 Q-23.65 1.1 -23.65 1.5 L-23.7 1.6 -23.85 1.65 -24.15 1.35 -24.15 0.75" fill="#a40f0f" fill-rule="evenodd" stroke="none"/>
    <path d="M-9.75 -20.25 L-8.1 -20.7 -6.7 -20.8 Q-5.0 -20.8 -3.45 -20.15 L-1.45 -19.3 0.65 -17.8 1.7 -16.75 2.75 -15.85 0.8 -15.35 Q-1.05 -14.75 -1.9 -14.25 L2.6 -15.4 5.0 -15.2 Q6.45 -14.75 6.7 -13.1 6.6 -12.85 6.15 -13.35 L5.35 -14.15 4.45 -14.4 3.75 -14.5 Q2.15 -14.5 -0.35 -13.65 -2.7 -12.9 -6.0 -11.3 -7.8 -10.5 -10.05 -8.75 L-12.8 -6.7 -13.4 -6.8 -13.85 -7.25 Q-13.85 -7.9 -10.75 -10.05 L-7.1 -12.45 -9.65 -11.15 Q-11.55 -10.15 -12.25 -10.15 -13.2 -10.15 -13.85 -10.9 -14.45 -11.65 -14.45 -12.95 -14.45 -14.9 -13.55 -16.7 -12.3 -19.15 -9.7 -20.2 L-9.75 -20.25 M-3.7 -14.4 L-3.65 -14.0 -1.35 -14.9 Q0.65 -15.5 0.65 -16.0 0.65 -16.55 -0.7 -17.65 L-3.25 -19.6 -5.6 -20.1 -7.65 -20.2 -7.95 -20.15 -7.25 -19.95 -6.25 -19.45 -5.45 -18.75 -4.7 -17.8 -6.1 -14.95 -6.0 -14.8 -4.0 -14.0 -3.7 -14.4 M-2.9 -16.15 L-2.1 -15.55 -3.15 -14.9 -3.55 -14.6 -3.4 -15.0 -2.9 -16.15 M-7.3 -11.85 L-9.65 -10.35 -10.55 -9.75 -11.0 -9.35 -11.25 -9.0 -11.95 -8.35 Q-8.45 -10.65 -5.75 -11.9 -3.4 -12.95 -2.95 -13.3 L-3.05 -13.45 -3.4 -13.5 -4.35 -13.25 Q-5.55 -12.85 -7.3 -11.85" fill="#3f5926" fill-rule="evenodd" stroke="none"/>
    <path d="M23.05 3.3 L23.15 4.75 23.1 5.65 22.6 5.65 21.85 4.3 21.9 5.55 21.8 5.6 21.4 5.6 21.35 4.1 21.35 3.3 21.8 3.3 22.3 4.1 22.6 4.7 22.55 3.4 23.05 3.3 M20.5 4.35 L20.65 3.3 20.85 3.3 21.05 3.35 20.85 4.45 20.7 5.65 20.3 5.65 20.2 4.8 20.0 5.65 19.65 5.65 19.3 3.3 19.7 3.4 19.85 4.3 20.2 3.35 20.5 4.35 M15.3 3.35 L17.1 3.4 17.1 3.75 16.45 3.75 16.45 5.65 15.95 5.65 15.95 4.8 15.95 3.75 15.3 3.75 15.3 3.35 M17.4 3.3 L18.95 3.3 18.95 5.65 17.4 5.65 17.4 3.3 M17.85 3.65 L17.85 5.3 18.5 5.3 18.5 3.65 17.85 3.65 M11.8 3.65 L11.8 5.3 12.45 5.3 12.45 3.65 11.8 3.65 M10.4 3.3 L10.9 3.3 11.05 5.05 10.95 5.65 10.4 5.65 10.3 4.85 10.4 3.3 M11.35 3.3 L12.95 3.3 12.95 5.65 11.35 5.65 11.35 3.3 M14.5 3.3 L14.95 3.3 15.1 4.75 15.0 5.65 14.55 5.65 13.8 4.3 13.85 5.55 13.75 5.6 13.35 5.6 13.25 4.1 13.25 3.3 13.75 3.3 14.2 4.1 14.55 4.7 14.45 3.4 14.5 3.3 M6.3 3.3 L7.9 3.3 7.9 5.65 6.3 5.65 6.3 3.3 M6.8 3.65 L6.8 5.3 7.45 5.3 7.45 3.65 6.8 3.65 M9.95 3.3 L10.1 4.75 10.0 5.65 9.5 5.65 8.8 4.3 8.8 5.55 8.7 5.6 8.35 5.6 8.25 4.1 8.3 3.3 8.7 3.3 9.15 4.1 9.5 4.7 9.45 3.4 9.95 3.3 M-8.3 -21.6 L-7.3 -22.55 -6.2 -23.15 -7.6 -21.15 -9.0 -20.95 -9.9 -20.65 -11.25 -20.0 -13.05 -18.8 -15.0 -18.8 -13.1 -19.6 Q-11.5 -20.3 -11.45 -20.4 L-11.15 -20.4 -11.1 -20.45 -11.05 -20.65 -11.6 -21.8 -11.65 -22.85 -11.55 -23.95 Q-11.6 -22.85 -11.0 -21.9 -10.5 -20.95 -10.05 -21.0 L-9.9 -21.2 -9.9 -21.3 -9.1 -23.3 Q-8.55 -24.6 -8.1 -24.9 L-8.2 -24.65 -8.7 -23.8 -8.9 -22.05 -8.75 -21.3 -8.5 -21.45 -8.3 -21.6 M-12.9 -20.1 L-12.1 -20.35 -12.75 -20.1 -12.9 -20.1 M-0.6 -17.05 L-0.6 -16.05 -2.1 -16.4 -2.9 -16.6 -3.35 -16.2 -4.15 -14.45 -5.95 -14.95 -4.1 -18.05 -2.25 -17.6 -0.6 -17.05 M-11.9 2.75 L-11.65 2.8 -11.25 3.15 -10.65 3.65 -10.35 4.1 Q-10.35 4.35 -10.5 4.45 L-10.9 5.05 -11.3 5.45 -11.8 5.3 -12.2 5.1 -13.15 5.0 -13.4 4.6 -12.8 3.9 -11.9 2.75" fill="#97913d" fill-rule="evenodd" stroke="none"/>
    <path d="M-9.75 -20.25 L-9.7 -20.2 Q-12.3 -19.15 -13.55 -16.7 -14.45 -14.9 -14.45 -12.95 -14.45 -11.65 -13.85 -10.9 -13.2 -10.15 -12.25 -10.15 -11.55 -10.15 -9.65 -11.15 L-7.1 -12.45 -10.75 -10.05 Q-13.85 -7.9 -13.85 -7.25 L-13.4 -6.8 -12.8 -6.7 -14.55 -5.1 -15.4 -5.55 -14.65 -7.0 Q-15.1 -6.7 -15.2 -6.7 -15.6 -6.7 -15.8 -7.6 L-16.05 -11.3 Q-16.05 -14.5 -14.45 -16.8 -12.9 -19.05 -9.75 -20.25" fill="#2b3b1c" fill-rule="evenodd" stroke="none"/>
    <path d="M-15.1 -2.15 L-15.25 -1.8 -15.25 -2.15 -15.1 -2.15" fill="#1c2512" fill-rule="evenodd" stroke="none"/>
    <path d="M-12.4 -5.6 L-10.85 -2.05 Q-10.2 -0.25 -10.2 0.8 L-10.4 2.7 Q-11.0 2.5 -11.2 1.7 L-11.4 -0.15 Q-11.45 -0.75 -12.4 -2.3 L-13.35 -3.8 Q-13.35 -4.2 -12.4 -5.6" fill="#614019" fill-rule="evenodd" stroke="none"/>
    <path d="M0.05 -7.8 L-0.25 -7.85 -0.55 -7.95 0.05 -7.8" fill="#9877a9" fill-rule="evenodd" stroke="none"/>
    <path d="M2.4 -6.05 L2.15 -6.65 1.65 -6.9 1.45 -7.35 2.35 -7.0 2.65 -6.55 2.6 -5.95 2.4 -6.05" fill="#aa9e9f" fill-rule="evenodd" stroke="none"/>
    <path d="M8.35 0.1 L7.85 -0.05 9.05 -0.05 8.45 0.1 8.35 0.1 M-2.6 5.45 L-2.7 5.45 -2.8 5.1 -2.6 5.45" fill="#591e73" fill-rule="evenodd" stroke="none"/>
    <path d="M20.35 14.9 L25.95 14.9 26.6 15.25 26.55 15.9 Q26.5 16.15 26.8 16.55 L27.1 17.55 27.15 19.3 26.95 21.5 26.7 22.55 26.4 22.75 26.05 22.95 25.4 23.85 25.1 23.85 Q24.8 23.85 24.65 23.6 L24.5 23.25 24.05 23.65 23.65 24.05 23.6 24.05 23.5 22.95 23.2 22.85 22.9 23.25 22.0 23.45 Q21.1 23.45 20.8 22.75 20.4 21.85 20.4 19.0 L20.4 17.6 21.8 17.4 22.3 17.45 22.3 19.75 Q22.4 20.3 23.0 20.3 L24.05 20.15 Q24.7 20.05 24.9 19.6 L25.0 18.7 24.9 17.65 24.85 17.25 24.35 16.9 Q23.4 16.45 23.1 16.35 L21.55 15.9 Q20.8 15.7 20.55 15.35 L20.35 14.9 M14.95 14.9 L16.75 14.9 Q16.6 14.95 16.6 15.2 L16.55 18.8 16.6 22.4 16.45 23.75 16.2 23.25 16.0 23.55 15.9 23.9 15.8 23.9 15.65 23.25 15.6 23.35 15.4 23.75 15.1 24.1 Q14.95 24.05 14.95 14.9 M17.2 14.9 L19.25 14.9 19.45 16.75 19.6 21.7 Q19.6 24.05 19.3 24.55 18.8 24.65 18.65 23.95 L18.55 22.65 18.45 22.85 18.15 23.2 17.85 23.4 17.6 23.0 18.2 16.85 Q18.2 15.95 17.85 15.4 L17.2 14.9 M13.9 14.9 L13.85 15.65 13.35 15.65 13.1 15.6 12.7 15.4 Q12.45 15.9 11.95 15.95 L10.7 16.15 10.65 16.1 10.75 17.1 10.55 17.65 10.4 17.85 10.45 18.85 10.55 20.1 10.75 20.4 11.7 20.5 11.7 20.7 11.6 21.0 11.65 21.05 12.3 20.65 13.5 20.55 14.55 20.4 14.55 21.05 14.45 22.35 14.2 24.05 13.25 22.8 12.8 23.15 Q12.5 23.3 12.45 23.4 L11.85 23.1 11.55 22.95 Q11.3 22.95 11.15 23.1 L10.75 23.25 9.9 22.85 9.6 22.95 8.5 23.25 8.4 22.8 8.35 22.3 8.4 14.9 13.9 14.9 M4.2 14.9 L4.55 14.9 7.55 14.9 7.55 16.15 7.7 18.35 7.7 20.2 7.65 23.3 7.4 23.35 7.0 23.4 5.2 23.3 5.35 20.25 5.2 17.95 4.05 18.15 3.75 20.85 3.45 23.25 1.25 23.9 1.1 23.75 1.05 23.45 1.4 14.9 4.2 14.9 M-0.45 14.9 L0.25 15.25 0.15 15.9 0.45 16.55 0.7 17.6 0.75 19.3 0.6 21.5 0.3 22.55 0.0 22.75 -0.35 22.95 -1.0 23.85 -1.3 23.85 -1.7 23.6 -1.9 23.25 -2.3 23.65 -2.75 24.05 Q-2.75 23.15 -2.9 22.95 L-3.2 22.85 -3.5 23.25 -4.35 23.45 Q-5.3 23.45 -5.6 22.75 -6.0 21.85 -6.0 19.0 L-5.95 17.6 -4.6 17.4 -4.05 17.45 -4.05 19.75 Q-4.0 20.3 -3.4 20.3 L-2.35 20.15 -1.5 19.6 Q-1.35 19.35 -1.35 18.7 L-1.5 17.65 -1.55 17.25 -2.0 16.9 -3.25 16.35 -4.8 15.9 Q-5.6 15.7 -5.85 15.35 L-6.05 14.9 -0.45 14.9 M-6.85 14.9 L-6.7 16.4 -6.75 17.0 -7.2 19.45 -7.1 19.75 -7.0 20.05 -7.35 21.0 -7.7 21.75 -8.0 22.0 -8.3 22.15 -9.1 22.8 Q-9.95 23.5 -11.0 23.5 -11.5 23.5 -12.2 23.1 L-13.6 21.8 -13.8 20.75 -14.0 19.25 -14.0 14.9 -11.95 14.9 -11.95 17.45 -11.8 18.75 -11.55 19.5 -11.25 19.65 -10.95 19.85 -10.95 19.95 -10.85 20.0 Q-10.05 20.0 -9.7 19.2 -9.15 18.05 -9.1 14.9 L-6.85 14.9 M-19.15 14.9 L-17.3 14.9 -17.5 15.2 -17.55 18.8 -17.5 22.4 Q-17.45 23.45 -17.65 23.75 L-17.9 23.25 -18.1 23.55 -18.2 23.9 -18.25 23.9 -18.45 23.25 -18.55 23.35 -18.7 23.75 -19.05 24.1 -19.1 23.8 -19.15 23.55 -19.15 23.4 -19.15 14.9 M-16.9 14.9 L-14.9 14.9 -14.65 16.75 -14.45 21.7 Q-14.45 24.1 -14.8 24.55 -15.3 24.65 -15.4 23.95 -15.4 23.05 -15.55 22.65 L-15.65 22.85 -15.95 23.2 -16.3 23.4 -16.5 23.0 -15.9 16.85 Q-15.9 15.95 -16.2 15.4 -16.55 14.9 -16.9 14.9 M-24.75 14.9 Q-24.35 19.95 -22.85 19.95 -22.2 19.95 -22.0 19.45 -21.7 18.8 -21.85 17.1 L-21.45 17.25 -20.85 17.45 -20.75 17.25 -19.55 16.85 -19.55 17.15 -19.4 19.8 Q-19.4 22.35 -20.35 22.95 L-21.55 23.3 -23.35 23.35 -23.5 23.3 -23.5 23.25 -24.2 22.55 -24.75 22.3 -25.4 21.7 -25.6 21.1 Q-25.55 21.05 -25.85 20.25 L-26.6 17.15 -26.9 14.9 -24.75 14.9" fill="#7a299c" fill-rule="evenodd" stroke="none"/>
    <path d="M-23.0 10.45 L-23.05 10.5 -23.05 10.45 -23.0 10.45" fill="#000000" fill-rule="evenodd" stroke="none"/>
  </g>
</svg>
